<?xml version="1.0" encoding="UTF-8" standalone="no"?>
<svg
   xmlns:ooo="http://xml.openoffice.org/svg/export"
   xmlns:dc="http://purl.org/dc/elements/1.1/"
   xmlns:cc="http://creativecommons.org/ns#"
   xmlns:rdf="http://www.w3.org/1999/02/22-rdf-syntax-ns#"
   xmlns:svg="http://www.w3.org/2000/svg"
   xmlns="http://www.w3.org/2000/svg"
   xmlns:sodipodi="http://sodipodi.sourceforge.net/DTD/sodipodi-0.dtd"
   xmlns:inkscape="http://www.inkscape.org/namespaces/inkscape"
   version="1.2"
   width="168.31999mm"
   height="140.58mm"
   viewBox="0 0 16831.999 14058"
   preserveAspectRatio="xMidYMid"
   xml:space="preserve"
   id="svg272"
   sodipodi:docname="armlngth.svg"
   style="fill-rule:evenodd;stroke-width:28.22200012;stroke-linejoin:round"
   inkscape:version="0.92.5 (2060ec1f9f, 2020-04-08)"><metadata
   id="metadata276"><rdf:RDF><cc:Work
       rdf:about=""><dc:format>image/svg+xml</dc:format><dc:type
         rdf:resource="http://purl.org/dc/dcmitype/StillImage" /></cc:Work></rdf:RDF></metadata><sodipodi:namedview
   pagecolor="#ffffff"
   bordercolor="#666666"
   borderopacity="1"
   objecttolerance="10"
   gridtolerance="10"
   guidetolerance="10"
   inkscape:pageopacity="0"
   inkscape:pageshadow="2"
   inkscape:window-width="664"
   inkscape:window-height="487"
   id="namedview274"
   showgrid="false"
   inkscape:zoom="0.2102413"
   inkscape:cx="318.08504"
   inkscape:cy="265.66299"
   inkscape:window-x="0"
   inkscape:window-y="0"
   inkscape:window-maximized="0"
   inkscape:current-layer="svg272" />
 <defs
   class="ClipPathGroup"
   id="defs8">
  <clipPath
   id="presentation_clip_path"
   clipPathUnits="userSpaceOnUse">
   <rect
   x="0"
   y="0"
   width="21000"
   height="29700"
   id="rect2" />
  </clipPath>
  <clipPath
   id="presentation_clip_path_shrink"
   clipPathUnits="userSpaceOnUse">
   <rect
   x="21"
   y="29"
   width="20958"
   height="29641"
   id="rect5" />
  </clipPath>
 </defs>
 <defs
   class="TextShapeIndex"
   id="defs12">
  <g
   ooo:slide="id1"
   ooo:id-list="id3"
   id="g10" />
 </defs>
 <defs
   class="EmbeddedBulletChars"
   id="defs44">
  <g
   id="bullet-char-template-57356"
   transform="matrix(4.8828125e-4,0,0,-4.8828125e-4,0,0)">
   <path
   d="M 580,1141 1163,571 580,0 -4,571 Z"
   id="path14"
   inkscape:connector-curvature="0" />
  </g>
  <g
   id="bullet-char-template-57354"
   transform="matrix(4.8828125e-4,0,0,-4.8828125e-4,0,0)">
   <path
   d="M 8,1128 H 1137 V 0 H 8 Z"
   id="path17"
   inkscape:connector-curvature="0" />
  </g>
  <g
   id="bullet-char-template-10146"
   transform="matrix(4.8828125e-4,0,0,-4.8828125e-4,0,0)">
   <path
   d="M 174,0 602,739 174,1481 1456,739 Z M 1358,739 309,1346 659,739 Z"
   id="path20"
   inkscape:connector-curvature="0" />
  </g>
  <g
   id="bullet-char-template-10132"
   transform="matrix(4.8828125e-4,0,0,-4.8828125e-4,0,0)">
   <path
   d="M 2015,739 1276,0 H 717 l 543,543 H 174 v 393 h 1086 l -543,545 h 557 z"
   id="path23"
   inkscape:connector-curvature="0" />
  </g>
  <g
   id="bullet-char-template-10007"
   transform="matrix(4.8828125e-4,0,0,-4.8828125e-4,0,0)">
   <path
   d="m 0,-2 c -7,16 -16,29 -25,39 l 381,530 c -94,256 -141,385 -141,387 0,25 13,38 40,38 9,0 21,-2 34,-5 21,4 42,12 65,25 l 27,-13 111,-251 280,301 64,-25 24,25 c 21,-10 41,-24 62,-43 C 886,937 835,863 770,784 769,783 710,716 594,584 L 774,223 c 0,-27 -21,-55 -63,-84 l 16,-20 C 717,90 699,76 672,76 641,76 570,178 457,381 L 164,-76 c -22,-34 -53,-51 -92,-51 -42,0 -63,17 -64,51 -7,9 -10,24 -10,44 0,9 1,19 2,30 z"
   id="path26"
   inkscape:connector-curvature="0" />
  </g>
  <g
   id="bullet-char-template-10004"
   transform="matrix(4.8828125e-4,0,0,-4.8828125e-4,0,0)">
   <path
   d="M 285,-33 C 182,-33 111,30 74,156 52,228 41,333 41,471 c 0,78 14,145 41,201 34,71 87,106 158,106 53,0 88,-31 106,-94 l 23,-176 c 8,-64 28,-97 59,-98 l 735,706 c 11,11 33,17 66,17 42,0 63,-15 63,-46 V 965 c 0,-36 -10,-64 -30,-84 L 442,47 C 390,-6 338,-33 285,-33 Z"
   id="path29"
   inkscape:connector-curvature="0" />
  </g>
  <g
   id="bullet-char-template-9679"
   transform="matrix(4.8828125e-4,0,0,-4.8828125e-4,0,0)">
   <path
   d="M 813,0 C 632,0 489,54 383,161 276,268 223,411 223,592 c 0,181 53,324 160,431 106,107 249,161 430,161 179,0 323,-54 432,-161 108,-107 162,-251 162,-431 0,-180 -54,-324 -162,-431 C 1136,54 992,0 813,0 Z"
   id="path32"
   inkscape:connector-curvature="0" />
  </g>
  <g
   id="bullet-char-template-8226"
   transform="matrix(4.8828125e-4,0,0,-4.8828125e-4,0,0)">
   <path
   d="m 346,457 c -73,0 -137,26 -191,78 -54,51 -81,114 -81,188 0,73 27,136 81,188 54,52 118,78 191,78 73,0 134,-26 185,-79 51,-51 77,-114 77,-187 0,-75 -25,-137 -76,-188 -50,-52 -112,-78 -186,-78 z"
   id="path35"
   inkscape:connector-curvature="0" />
  </g>
  <g
   id="bullet-char-template-8211"
   transform="matrix(4.8828125e-4,0,0,-4.8828125e-4,0,0)">
   <path
   d="M -4,459 H 1135 V 606 H -4 Z"
   id="path38"
   inkscape:connector-curvature="0" />
  </g>
  <g
   id="bullet-char-template-61548"
   transform="matrix(4.8828125e-4,0,0,-4.8828125e-4,0,0)">
   <path
   d="m 173,740 c 0,163 58,303 173,419 116,115 255,173 419,173 163,0 302,-58 418,-173 116,-116 174,-256 174,-419 0,-163 -58,-303 -174,-418 C 1067,206 928,148 765,148 601,148 462,206 346,322 231,437 173,577 173,740 Z"
   id="path41"
   inkscape:connector-curvature="0" />
  </g>
 </defs>
 <g
   id="g49"
   transform="translate(-2084,-7821)">
  <g
   id="id2"
   class="Master_Slide">
   <g
   id="bg-id2"
   class="Background" />
   <g
   id="bo-id2"
   class="BackgroundObjects" />
  </g>
 </g>
 <g
   class="SlideGroup"
   id="g270"
   transform="translate(-2084,-7821)">
  <g
   id="g268">
   <g
   id="container-id1">
    <g
   id="id1"
   class="Slide"
   clip-path="url(#presentation_clip_path)">
     <g
   class="Page"
   id="g264">
      <g
   class="Graphic"
   id="g262">
       <g
   id="id3">
        <rect
   class="BoundingBox"
   x="2084"
   y="7821"
   width="16832"
   height="14058"
   id="rect51"
   style="fill:none;stroke:none" />
        <path
   d="m 5388,17512 -97,168 -31,66 -18,70 -17,106 v 97 l 13,97 39,89 84,61 -88,-53 -35,-4 -49,18 -17,31 -9,39 13,36 27,44 114,83 172,67 75,26 84,13 h 71 l 75,22 92,31 208,27 247,-53 h 163 l 39,-13 40,-40 13,-53 18,-212 v -172 l -9,-88 -9,-57 -13,-62 -13,-62 -80,-234 -83,-251 z"
   id="path53"
   inkscape:connector-curvature="0"
   style="fill:#ffe0c0;stroke:none" />
        <path
   d="m 5388,17512 -97,168 -31,66 -18,70 -17,106 v 97 l 13,97 39,89 84,61 -88,-53 -35,-4 -49,18 -17,31 -9,39 13,36 27,44 114,83 172,67 75,26 84,13 h 71 l 75,22 92,31 208,27 247,-53 h 163 l 39,-13 40,-40 13,-53 18,-212 v -172 l -9,-88 -9,-57 -13,-62 -13,-62 -80,-234 -83,-251 z"
   id="path55"
   inkscape:connector-curvature="0"
   style="fill:none;stroke:#000000;stroke-width:35;stroke-linecap:round;stroke-linejoin:round" />
        <path
   d="m 5414,18209 h -3 -2 l -3,1 -3,1 -2,1 -3,1 -2,2 -3,2 -2,2 -3,3 -2,2 -2,3 -3,4 -2,3 -2,4 -2,3 -1,4 -2,5 -2,4 -1,4 -1,5 -2,5 -1,5 -1,5 -1,5 v 5 l -1,5 v 6 l -1,5 v 6 5"
   id="path57"
   inkscape:connector-curvature="0"
   style="fill:none;stroke:#000000;stroke-width:35;stroke-linecap:round;stroke-linejoin:round" />
        <path
   d="m 5432,17468 h 1243 v 259 H 5432 Z"
   id="path59"
   inkscape:connector-curvature="0"
   style="fill:#ffffff;stroke:none" />
        <path
   d="m 5432,17468 h 1243 v 259 H 5432 Z"
   id="path61"
   inkscape:connector-curvature="0"
   style="fill:none;stroke:#000000;stroke-width:35;stroke-linecap:round;stroke-linejoin:round" />
        <path
   d="m 5410,15245 -27,1063 -39,1283 1380,-13 14,-1345 -5,-697 49,-723 -14,-173 -13,-119 -26,-123 -27,-80 -48,-88 -49,-57 -84,-57 -101,-53 -110,-31 -124,-13 -101,-5 -124,22 -119,40 -70,44 -84,62 -62,75 -66,110 -49,123 -44,203 z"
   id="path63"
   inkscape:connector-curvature="0"
   style="fill:#804000;stroke:none" />
        <path
   d="m 5410,15245 -27,1063 -39,1283 1380,-13 14,-1345 -5,-697 49,-723 -14,-173 -13,-119 -26,-123 -27,-80 -48,-88 -49,-57 -84,-57 -101,-53 -110,-31 -124,-13 -101,-5 -124,22 -119,40 -70,44 -84,62 -62,75 -66,110 -49,123 -44,203 z"
   id="path65"
   inkscape:connector-curvature="0"
   style="fill:none;stroke:#000000;stroke-width:35;stroke-linecap:round;stroke-linejoin:round" />
        <path
   d="m 7037,10697 -145,-66 -168,-31 -128,-13 -189,-27 h -194 l -217,27 -132,35 -242,84 -181,70 66,40 -137,150 -97,115 124,35 -164,168 111,-14 -168,221 110,40 -44,53 -39,61 -53,119 123,-39 97,110 -35,22 -58,44 -44,58 -30,57 -14,53 -4,62 4,66 14,70 35,66 62,67 57,44 62,44 48,40 97,83 97,164 13,189 -17,115 -84,194 -106,190 851,878 142,-309 114,-115 106,-75 128,-66 146,-44 145,-66 110,-49 80,-75 44,-75 44,-97 27,-88 22,-88 13,-119 13,-177 v -190 l 49,-8 53,-14 66,-35 57,-40 44,-61 35,-62 14,-80 -9,-92 -40,-93 -35,-75 -53,-79 -124,-190 -26,-75 v -106 l -13,-278 -27,-141 -35,-150 -66,-123 -62,-102 -75,-88 -79,-66 z"
   id="path67"
   inkscape:connector-curvature="0"
   style="fill:#ffe0c0;stroke:none" />
        <path
   d="m 7037,10697 -145,-66 -168,-31 -128,-13 -189,-27 h -194 l -217,27 -132,35 -242,84 -181,70 66,40 -137,150 -97,115 124,35 -164,168 111,-14 -168,221 110,40 -44,53 -39,61 -53,119 123,-39 97,110 -35,22 -58,44 -44,58 -30,57 -14,53 -4,62 4,66 14,70 35,66 62,67 57,44 62,44 48,40 97,83 97,164 13,189 -17,115 -84,194 -106,190 851,878 142,-309 114,-115 106,-75 128,-66 146,-44 145,-66 110,-49 80,-75 44,-75 44,-97 27,-88 22,-88 13,-119 13,-177 v -190 l 49,-8 53,-14 66,-35 57,-40 44,-61 35,-62 14,-80 -9,-92 -40,-93 -35,-75 -53,-79 -124,-190 -26,-75 v -106 l -13,-278 -27,-141 -35,-150 -66,-123 -62,-102 -75,-88 -79,-66 z"
   id="path69"
   inkscape:connector-curvature="0"
   style="fill:none;stroke:#804000;stroke-width:35;stroke-linecap:round;stroke-linejoin:round" />
        <path
   d="m 7417,13123 -124,-18 h -106 l -75,14 -70,31 -35,26"
   id="path71"
   inkscape:connector-curvature="0"
   style="fill:none;stroke:#804000;stroke-width:35;stroke-linecap:round;stroke-linejoin:round" />
        <path
   d="m 5467,11892 h -11 l -10,2 -11,1 -10,3 -10,3 -10,4 -11,5 -9,6 -10,6 -9,7 -9,7 -9,9 -9,8 -8,10 -8,10 -7,10 -7,11 -7,12 -6,11 -6,13 -5,13 -5,13 -4,13 -4,14 -3,14 -3,14 -2,14 -2,15 -1,15 -1,14 v 15"
   id="path73"
   inkscape:connector-curvature="0"
   style="fill:none;stroke:#804000;stroke-width:35;stroke-linecap:round;stroke-linejoin:round" />
        <path
   d="m 7029,10697 -146,-66 -168,-31 -123,-13 -190,-27 h -194 l -216,27 -132,35 -238,84 -181,70 66,40 -137,150 -97,110 124,36 -164,167 111,-13 -168,221 110,39 -44,53 -39,62 -53,119 123,-40 97,124 57,-22 62,-9 75,13 58,27 35,66 22,62 22,44 44,53 35,35 62,88 -13,-123 13,-58 44,-75 66,-75 75,-92 36,-62 31,-57 61,-36 88,-39 31,-40 27,-49 22,-53 -13,-123 -27,-84 -48,-53 -22,-44 -27,-31 -22,-44 4,-70 27,-58 53,-40 57,-26 66,-22 80,4 -49,-44 5,-31 22,-22 44,-13 75,5 70,8 53,-4 71,-27 66,-22 79,5 84,9 146,35 z"
   id="path75"
   inkscape:connector-curvature="0"
   style="fill:#804000;stroke:none" />
        <path
   d="m 4470,20948 v 349 h 622 l 18,-71 123,71 230,61 286,53 239,14 225,-14 330,-26 120,-13 127,-36 v -92 l -13,-44 -39,-53 -49,-36 -66,-35 -115,-53 -119,-44 -128,-40 -137,-30 -463,-67 z"
   id="path77"
   inkscape:connector-curvature="0"
   style="fill:#201000;stroke:none" />
        <path
   d="m 4470,20948 v 349 h 622 l 18,-71 123,71 230,61 286,53 239,14 225,-14 330,-26 120,-13 127,-36 v -92 l -13,-44 -39,-53 -49,-36 -66,-35 -115,-53 -119,-44 -128,-40 -137,-30 -463,-67 z"
   id="path79"
   inkscape:connector-curvature="0"
   style="fill:none;stroke:#000000;stroke-width:35;stroke-linecap:round;stroke-linejoin:round" />
        <path
   d="m 3134,21089 v 344 h 617 l 14,-70 127,70 274,45 331,39 357,27 h 318 l 158,-40 124,-31 v -88 l -13,-49 -40,-48 -49,-40 -66,-35 -114,-53 -119,-44 -128,-35 -137,-36 -468,-66 z"
   id="path81"
   inkscape:connector-curvature="0"
   style="fill:#201000;stroke:none" />
        <path
   d="m 3134,21089 v 344 h 617 l 14,-70 127,70 274,45 331,39 357,27 h 318 l 158,-40 124,-31 v -88 l -13,-49 -40,-48 -49,-40 -66,-35 -114,-53 -119,-44 -128,-35 -137,-36 -468,-66 z"
   id="path83"
   inkscape:connector-curvature="0"
   style="fill:none;stroke:#000000;stroke-width:35;stroke-linecap:round;stroke-linejoin:round" />
        <path
   d="m 5525,17349 573,1411 44,106 40,124 26,181 -26,163 -194,582 -71,181 -40,181 84,110 13,84 -83,79 -97,111 97,97 97,176 -1544,-26 -71,-384 58,-331 136,-304 84,-168 375,-498 -110,-247 -874,-1588 z"
   id="path85"
   inkscape:connector-curvature="0"
   style="fill:#603000;stroke:none" />
        <path
   d="m 5525,17349 573,1411 44,106 40,124 26,181 -26,163 -194,582 -71,181 -40,181 84,110 13,84 -83,79 -97,111 97,97 97,176 -1544,-26 -71,-384 58,-331 136,-304 84,-168 375,-498 -110,-247 -874,-1588 z"
   id="path87"
   inkscape:connector-curvature="0"
   style="fill:none;stroke:#000000;stroke-width:35;stroke-linecap:round;stroke-linejoin:round" />
        <path
   d="m 2874,17292 198,679 53,167 62,146 61,132 89,164 70,101 71,93 137,145 136,155 111,66 -137,84 110,194 -220,304 -168,154 -66,71 -58,93 -52,97 -40,83 -35,75 -36,97 -26,128 -13,164 v 167 l 8,278 1650,-75 -93,-101 -17,-80 -9,-57 62,-234 -168,-17 194,-150 552,-803 35,-80 22,-88 13,-93 v -101 l -18,-88 -22,-88 -57,-128 -278,-605 -511,-1186 z"
   id="path89"
   inkscape:connector-curvature="0"
   style="fill:#603000;stroke:none" />
        <path
   d="m 2874,17292 198,679 53,167 62,146 61,132 89,164 70,101 71,93 137,145 136,155 111,66 -137,84 110,194 -220,304 -168,154 -66,71 -58,93 -52,97 -40,83 -35,75 -36,97 -26,128 -13,164 v 167 l 8,278 1650,-75 -93,-101 -17,-80 -9,-57 62,-234 -168,-17 194,-150 552,-803 35,-80 22,-88 13,-93 v -101 l -18,-88 -22,-88 -57,-128 -278,-605 -511,-1186 z"
   id="path91"
   inkscape:connector-curvature="0"
   style="fill:none;stroke:#000000;stroke-width:35;stroke-linecap:round;stroke-linejoin:round" />
        <path
   d="m 5520,13366 922,763 190,485 z"
   id="path93"
   inkscape:connector-curvature="0"
   style="fill:#e0e0e0;stroke:none" />
        <path
   d="m 5520,13366 922,763 190,485 z"
   id="path95"
   inkscape:connector-curvature="0"
   style="fill:none;stroke:#000000;stroke-width:35;stroke-linecap:round;stroke-linejoin:round" />
        <path
   d="m 6460,14341 53,79 61,97 53,115 44,128 27,123 13,137 9,137 -9,225 -18,167 -35,199 -31,123 -39,181 -45,154 -44,124 -44,115 -53,114 -57,106 -66,110 -66,89 -67,88 -88,97 -84,66 -163,124 v -3106 l 530,40 z"
   id="path97"
   inkscape:connector-curvature="0"
   style="fill:#ffffff;stroke:none" />
        <path
   d="m 6460,14341 53,79 61,97 53,115 44,128 27,123 13,137 9,137 -9,225 -18,167 -35,199 -31,123 -39,181 -45,154 -44,124 -44,115 -53,114 -57,106 -66,110 -66,89 -67,88 -88,97 -84,66 -163,124 v -3106 l 530,40 z"
   id="path99"
   inkscape:connector-curvature="0"
   style="fill:none;stroke:#000000;stroke-width:35;stroke-linecap:round;stroke-linejoin:round" />
        <path
   d="m 6367,14332 97,48 71,97 39,62 31,53 40,75 35,97 35,110 36,146 13,115 18,136 -5,172 -17,261 -31,225 -124,1115 -123,305 -84,-415 53,-441 39,-291 23,-229 17,-234 18,-238 4,-137 -4,-124 -13,-123 -31,-238 -14,-84 -17,-97 -18,-97 z"
   id="path101"
   inkscape:connector-curvature="0"
   style="fill:#0000ff;stroke:none" />
        <path
   d="m 6367,14332 97,48 71,97 39,62 31,53 40,75 35,97 35,110 36,146 13,115 18,136 -5,172 -17,261 -31,225 -124,1115 -123,305 -84,-415 53,-441 39,-291 23,-229 17,-234 18,-238 4,-137 -4,-124 -13,-123 -31,-238 -14,-84 -17,-97 -18,-97 z"
   id="path103"
   inkscape:connector-curvature="0"
   style="fill:none;stroke:#000000;stroke-width:35;stroke-linecap:round;stroke-linejoin:round" />
        <path
   d="m 6328,14314 147,89 3,-10 3,-11 2,-12 2,-11 1,-11 1,-12 1,-11 v -12 -12 l -1,-11 -1,-12 -1,-11 -2,-11 -3,-12 -2,-11 -3,-10 -4,-11 -4,-10 -4,-10 -4,-10 -5,-9 -5,-9 -6,-9 -5,-8 -6,-8 -7,-7 -6,-7 -7,-6 -7,-6 -7,-5 -8,-5 -7,-4 -8,-4 -8,-3 -8,-3 -8,-2 -8,-1 -8,-1 h -8 z"
   id="path105"
   inkscape:connector-curvature="0"
   style="fill:#0000e0;stroke:none" />
        <path
   d="m 6328,14314 147,89 3,-10 3,-11 2,-12 2,-11 1,-11 1,-12 1,-11 v -12 -12 l -1,-11 -1,-12 -1,-11 -2,-11 -3,-12 -2,-11 -3,-10 -4,-11 -4,-10 -4,-10 -4,-10 -5,-9 -5,-9 -6,-9 -5,-8 -6,-8 -7,-7 -6,-7 -7,-6 -7,-6 -7,-5 -8,-5 -7,-4 -8,-4 -8,-3 -8,-3 -8,-2 -8,-1 -8,-1 h -8 z"
   id="path107"
   inkscape:connector-curvature="0"
   style="fill:none;stroke:#000000;stroke-width:35;stroke-linecap:round;stroke-linejoin:round" />
        <path
   d="m 5542,13370 -92,-26 -93,8 -110,23 -97,39 -97,44 -75,49 -128,92 -93,80 -119,137 -454,547 -265,282 -304,269 -353,304 -305,221 -458,322 -344,234 -27,273 v 247 l 22,185 31,199 31,132 53,133 53,128 70,119 106,132 102,88 132,88 132,80 177,70 207,67 172,39 177,27 185,13 198,-9 141,-22 133,-26 172,-45 176,-70 428,-181 375,-176 366,-252 115,-128 110,-132 115,-163 110,-225 79,-199 49,-159 35,-172 22,-185 v -176 l 5,-168 -9,-190 -5,-207 -13,-141 -22,-199 -13,-145 -31,-110 -31,-106 -40,-97 -57,-102 -66,-101 -66,-102 -75,-101 z"
   id="path109"
   inkscape:connector-curvature="0"
   style="fill:#804000;stroke:none" />
        <path
   d="m 5542,13370 -92,-26 -93,8 -110,23 -97,39 -97,44 -75,49 -128,92 -93,80 -119,137 -454,547 -265,282 -304,269 -353,304 -305,221 -458,322 -344,234 -27,273 v 247 l 22,185 31,199 31,132 53,133 53,128 70,119 106,132 102,88 132,88 132,80 177,70 207,67 172,39 177,27 185,13 198,-9 141,-22 133,-26 172,-45 176,-70 428,-181 375,-176 366,-252 115,-128 110,-132 115,-163 110,-225 79,-199 49,-159 35,-172 22,-185 v -176 l 5,-168 -9,-190 -5,-207 -13,-141 -22,-199 -13,-145 -31,-110 -31,-106 -40,-97 -57,-102 -66,-101 -66,-102 -75,-101 z"
   id="path111"
   inkscape:connector-curvature="0"
   style="fill:none;stroke:#000000;stroke-width:35;stroke-linecap:round;stroke-linejoin:round" />
        <path
   d="m 5520,13352 922,790 -216,468 z"
   id="path113"
   inkscape:connector-curvature="0"
   style="fill:#ffffff;stroke:none" />
        <path
   d="m 5520,13352 922,790 -216,468 z"
   id="path115"
   inkscape:connector-curvature="0"
   style="fill:none;stroke:#000000;stroke-width:35;stroke-linecap:round;stroke-linejoin:round" />
        <path
   d="m 5520,13352 172,455 124,384 44,251 278,-57 -168,414 93,66 70,102 40,141 26,238 18,296 4,137 -4,154 -13,137 -27,225 -17,114 -27,124 -26,88 -40,119 -31,75 -44,84 -53,93 -57,75 -102,132 119,-88 93,-111 71,-92 61,-93 58,-101 57,-119 53,-133 35,-106 40,-132 26,-119 23,-168 13,-189 4,-221 -9,-198 -4,-115 -13,-207 -9,-124 -18,-132 -13,-97 -22,-111 -44,-132 -49,-101 -57,-89 -79,-105 -124,-172 -101,-133 z"
   id="path117"
   inkscape:connector-curvature="0"
   style="fill:#804000;stroke:none" />
        <path
   d="m 5520,13352 172,455 124,384 44,251 278,-57 -168,414 93,66 70,102 40,141 26,238 18,296 4,137 -4,154 -13,137 -27,225 -17,114 -27,124 -26,88 -40,119 -31,75 -44,84 -53,93 -57,75 -102,132 119,-88 93,-111 71,-92 61,-93 58,-101 57,-119 53,-133 35,-106 40,-132 26,-119 23,-168 13,-189 4,-221 -9,-198 -4,-115 -13,-207 -9,-124 -18,-132 -13,-97 -22,-111 -44,-132 -49,-101 -57,-89 -79,-105 -124,-172 -101,-133 z"
   id="path119"
   inkscape:connector-curvature="0"
   style="fill:none;stroke:#000000;stroke-width:35;stroke-linecap:round;stroke-linejoin:round" />
        <path
   d="m 4585,17900 -93,168 -35,62 -18,75 -17,105 v 98 l 13,97 40,88 84,62 -89,-53 -35,-5 -44,18 -22,26 -9,44 13,36 31,44 110,79 172,66 75,22 84,14 h 75 l 75,26 93,31 207,26 247,-52 h 159 l 40,-14 39,-39 14,-53 17,-208 v -172 l -9,-88 -8,-62 -14,-57 -13,-62 -79,-234 -80,-255 z"
   id="path121"
   inkscape:connector-curvature="0"
   style="fill:#ffe0c0;stroke:none" />
        <path
   d="m 4585,17900 -93,168 -35,62 -18,75 -17,105 v 98 l 13,97 40,88 84,62 -89,-53 -35,-5 -44,18 -22,26 -9,44 13,36 31,44 110,79 172,66 75,22 84,14 h 75 l 75,26 93,31 207,26 247,-52 h 159 l 40,-14 39,-39 14,-53 17,-208 v -172 l -9,-88 -8,-62 -14,-57 -13,-62 -79,-234 -80,-255 z"
   id="path123"
   inkscape:connector-curvature="0"
   style="fill:none;stroke:#000000;stroke-width:35;stroke-linecap:round;stroke-linejoin:round" />
        <path
   d="m 4611,18597 h -3 l -2,1 h -3 l -3,1 -2,1 -3,2 -2,2 -3,2 -2,2 -2,2 -3,3 -2,3 -2,3 -2,4 -2,3 -2,4 -2,4 -1,4 -2,5 -1,4 -2,5 -1,4 -1,5 -1,5 -1,5 v 5 l -1,6 v 5 l -1,5 v 6 5"
   id="path125"
   inkscape:connector-curvature="0"
   style="fill:none;stroke:#000000;stroke-width:35;stroke-linecap:round;stroke-linejoin:round" />
        <path
   d="m 4501,17689 h 1243 v 264 H 4501 Z"
   id="path127"
   inkscape:connector-curvature="0"
   style="fill:#ffffff;stroke:none" />
        <path
   d="m 4501,17689 h 1243 v 264 H 4501 Z"
   id="path129"
   inkscape:connector-curvature="0"
   style="fill:none;stroke:#000000;stroke-width:35;stroke-linecap:round;stroke-linejoin:round" />
        <path
   d="m 4501,15329 -31,1063 -39,1394 1380,13 18,-1487 -5,-692 45,-733 -14,-163 -13,-123 -26,-119 -27,-84 -48,-84 -49,-57 -79,-62 -102,-49 -110,-30 -124,-14 -101,-8 -123,26 -120,40 -70,44 -88,62 -62,75 -66,110 -44,123 -49,203 z"
   id="path131"
   inkscape:connector-curvature="0"
   style="fill:#804000;stroke:none" />
        <path
   d="m 4501,15329 -31,1063 -39,1394 1380,13 18,-1487 -5,-692 45,-733 -14,-163 -13,-123 -26,-119 -27,-84 -48,-84 -49,-57 -79,-62 -102,-49 -110,-30 -124,-14 -101,-8 -123,26 -120,40 -70,44 -88,62 -62,75 -66,110 -44,123 -49,203 z"
   id="path133"
   inkscape:connector-curvature="0"
   style="fill:none;stroke:#000000;stroke-width:35;stroke-linecap:round;stroke-linejoin:round" />
        <path
   d="m 7289,11773 -62,-35 -62,-13 -123,-13 h -119 l -111,17 256,22 z"
   id="path135"
   inkscape:connector-curvature="0"
   style="fill:#603000;stroke:none" />
        <path
   d="m 7413,11994 v -19 l -1,-20 -2,-19 -2,-19 -2,-19 -4,-19 -4,-18 -4,-18 -5,-18 -5,-17 -6,-17 -7,-16 -7,-16 -7,-15 -8,-15 -9,-13 -9,-13 -9,-13 -9,-11 -10,-11 -10,-10 -11,-9 -11,-8 -11,-7 -11,-6 -11,-6 -12,-4 -12,-4 -11,-2 -12,-2 h -12 v 0 h -12 l -12,2 -11,2 -12,4 -12,4 -11,6 -11,6 -11,7 -11,8 -11,9 -10,10 -10,11 -9,11 -9,13 -9,13 -9,13 -8,15 -7,15 -7,16 -7,16 -6,17 -5,17 -5,18 -4,18 -4,18 -4,19 -2,19 -2,19 -2,19 -1,20 v 19 0 19 l 1,20 2,19 2,19 2,19 4,19 4,18 4,18 5,18 5,17 6,17 7,16 7,16 7,15 8,15 9,13 9,13 9,13 9,11 10,11 10,10 11,9 11,8 11,7 11,6 11,6 12,4 12,4 11,2 12,2 h 12 v 0 h 12 l 12,-2 11,-2 12,-4 12,-4 11,-6 11,-6 11,-7 11,-8 11,-9 10,-10 10,-11 9,-11 9,-13 9,-13 9,-13 8,-15 7,-15 7,-16 7,-16 6,-17 5,-17 5,-18 4,-18 4,-18 4,-19 2,-19 2,-19 2,-19 1,-20 z"
   id="path137"
   inkscape:connector-curvature="0"
   style="fill:none;stroke:#000000;stroke-width:35;stroke-linecap:round;stroke-linejoin:round" />
        <defs
   id="defs142">
         <clipPath
   id="clip_path_1"
   clipPathUnits="userSpaceOnUse">
          <path
   d="m 5719,11310 h 1261 v 1446 H 5719 Z"
   id="path139"
   inkscape:connector-curvature="0" />
         </clipPath>
        </defs>
        <g
   clip-path="url(#clip_path_1)"
   id="g146">
         <path
   d="M 4492,12016 H 8171"
   id="path144"
   inkscape:connector-curvature="0"
   style="fill:none;stroke:#000000;stroke-width:35;stroke-linecap:round;stroke-linejoin:miter" />
        </g>
        <path
   d="m 7306,12062 c 0,22 -3,45 -9,64 -6,20 -15,36 -25,48 -10,11 -22,17 -34,17 -12,0 -24,-6 -34,-17 -10,-12 -19,-28 -25,-48 -6,-19 -9,-42 -9,-64 0,-23 3,-46 9,-65 6,-20 15,-36 25,-48 10,-11 22,-17 34,-17 12,0 24,6 34,17 10,12 19,28 25,48 6,19 9,42 9,65 z"
   id="path148"
   inkscape:connector-curvature="0"
   style="fill:#0000ff;stroke:none" />
        <path
   d="m 7288,12036 c 0,12 -2,25 -5,36 -3,11 -8,20 -13,26 -6,7 -13,10 -19,10 -6,0 -13,-3 -18,-10 -6,-6 -11,-15 -14,-26 -3,-11 -5,-24 -5,-36 0,-13 2,-26 5,-37 3,-11 8,-20 14,-26 5,-7 12,-10 18,-10 6,0 13,3 19,10 5,6 10,15 13,26 3,11 5,24 5,37 z"
   id="path150"
   inkscape:connector-curvature="0"
   style="fill:#ffffff;stroke:none" />
        <path
   d="m 15559,20662 v 489 124 l 97,57 102,40 101,35 119,31 150,40 159,26 88,-75 36,49 48,44 71,35 70,40 247,101 309,88 326,67 212,17 h 141 l 159,-22 97,-31 71,-31 57,-39 79,-62 14,-168 -5,-70 -13,-53 -31,-58 -48,-52 -62,-40 -313,-124 -300,-136 -247,-142 -199,-229 z"
   id="path152"
   inkscape:connector-curvature="0"
   style="fill:#000000;stroke:none" />
        <path
   d="m 12992,20675 -172,106 -198,119 -278,88 -260,75 -98,40 -79,48 -40,35 -26,36 -18,66 -9,44 9,53 9,71 27,75 39,39 71,36 198,75 190,39 176,18 177,-5 256,-39 291,-49 392,-101 384,-124 49,40 180,-9 150,-22 137,-13 141,-40 111,-44 83,-75 v -97 l -13,-260 -26,-274 -1632,-13 z"
   id="path154"
   inkscape:connector-curvature="0"
   style="fill:#000000;stroke:none" />
        <path
   d="m 13341,16237 -14,1002 v 763 l -66,728 -66,621 31,464 -124,502 -26,102 -22,97 -31,163 265,137 114,35 150,27 234,17 h 172 l 216,-22 230,-39 185,-40 150,-49 110,-61 207,-1871 120,-1508 194,961 57,561 115,1865 128,40 132,35 163,40 199,35 322,53 238,27 225,4 172,-22 225,-48 -172,-644 -27,-755 9,-763 -97,-1089 -66,-922 -128,-688 -31,-1350 -741,159 -842,154 h -1112 l -944,-154 z"
   id="path156"
   inkscape:connector-curvature="0"
   style="fill:#404040;stroke:none" />
        <path
   d="m 13341,16237 -14,1002 v 763 l -66,728 -66,621 31,464 -124,502 -26,102 -22,97 -31,163 265,137 114,35 150,27 234,17 h 172 l 216,-22 230,-39 185,-40 150,-49 110,-61 207,-1871 120,-1508 194,961 57,561 115,1865 128,40 132,35 163,40 199,35 322,53 238,27 225,4 172,-22 225,-48 -172,-644 -27,-755 9,-763 -97,-1089 -66,-922 -128,-688 -31,-1350 -741,159 -842,154 h -1112 l -944,-154 z"
   id="path158"
   inkscape:connector-curvature="0"
   style="fill:none;stroke:#000000;stroke-width:35;stroke-linecap:round;stroke-linejoin:round" />
        <path
   d="m 14055,10904 -410,-13 -251,40 -472,-27 -340,-39 -371,132 -251,132 -384,-13 31,1116 313,49 318,114 106,66 106,186 119,657 v 807 l 26,512 13,326 14,159 286,132 h 711 l 674,40 821,-40 803,-66 436,-35 313,-27 159,-158 v -658 l 106,-869 79,-533 67,26 172,318 304,-318 419,-617 -379,-552 -305,-384 -225,-198 -317,-132 -499,-53 h -489 l -80,13 -344,238 -485,278 z"
   id="path160"
   inkscape:connector-curvature="0"
   style="fill:#e0e0e0;stroke:none" />
        <path
   d="m 14873,11230 -262,204 8,19 8,18 8,18 10,17 9,16 11,16 11,15 11,14 12,13 12,13 13,11 13,10 14,10 14,8 14,8 14,6 15,5 14,5 15,3 15,2 15,1 h 15 l 15,-1 15,-3 15,-3 14,-5 15,-5 14,-7 14,-7 14,-9 13,-10 13,-10 13,-12 12,-12 12,-14 11,-14 11,-15 10,-16 10,-16 9,-17 9,-18 z"
   id="path162"
   inkscape:connector-curvature="0"
   style="fill:#c0c000;stroke:none" />
        <path
   d="m 14873,11230 -262,204 8,19 8,18 8,18 10,17 9,16 11,16 11,15 11,14 12,13 12,13 13,11 13,10 14,10 14,8 14,8 14,6 15,5 14,5 15,3 15,2 15,1 h 15 l 15,-1 15,-3 15,-3 14,-5 15,-5 14,-7 14,-7 14,-9 13,-10 13,-10 13,-12 12,-12 12,-14 11,-14 11,-15 10,-16 10,-16 9,-17 9,-18 z"
   id="path164"
   inkscape:connector-curvature="0"
   style="fill:none;stroke:#000000;stroke-width:35;stroke-linecap:round;stroke-linejoin:round" />
        <path
   d="m 14161,10794 -150,207 499,896 357,-684 428,635 388,-886 -137,-141 -679,401 z"
   id="path166"
   inkscape:connector-curvature="0"
   style="fill:#e0e0e0;stroke:none" />
        <path
   d="m 14161,10794 -150,207 499,896 357,-684 428,635 388,-886 -137,-141 -679,401 z"
   id="path168"
   inkscape:connector-curvature="0"
   style="fill:none;stroke:#000000;stroke-width:35;stroke-linecap:round;stroke-linejoin:round" />
        <path
   d="m 14752,11597 -123,957 -67,1213 5,1006 445,975 419,-949 -66,-1151 -154,-1120 -221,-931 z"
   id="path170"
   inkscape:connector-curvature="0"
   style="fill:#c0c000;stroke:none" />
        <path
   d="m 14752,11597 -123,957 -67,1213 5,1006 445,975 419,-949 -66,-1151 -154,-1120 -221,-931 z"
   id="path172"
   inkscape:connector-curvature="0"
   style="fill:none;stroke:#000000;stroke-width:35;stroke-linecap:round;stroke-linejoin:round" />
        <path
   d="m 15848,9633 -130,340 9,12 9,11 10,11 10,9 10,9 10,7 10,7 11,5 10,5 11,3 11,2 11,2 h 10 l 11,-1 11,-2 11,-2 11,-4 10,-5 11,-6 10,-7 10,-8 10,-9 9,-10 10,-10 9,-12 8,-13 9,-13 8,-14 8,-15 7,-15 7,-17 6,-17 6,-17 6,-18 5,-19 5,-19 4,-20 3,-19 3,-21 3,-20 2,-21 2,-21 1,-21 v -21 -21 l -1,-21 -1,-21 -2,-21 -2,-20 -3,-21 -3,-20 -4,-19 -4,-20 -5,-19 -5,-18 -6,-18 -6,-17 -7,-17 -7,-16 -7,-15 -8,-15 -8,-14 -9,-13 -9,-12 -9,-11 -10,-10 -9,-10 -10,-8 -10,-8 -11,-6 -10,-6 -11,-4 -11,-4 -10,-2 -11,-2 h -11 z"
   id="path174"
   inkscape:connector-curvature="0"
   style="fill:#ffc080;stroke:none" />
        <path
   d="m 15848,9633 -130,340 9,12 9,11 10,11 10,9 10,9 10,7 10,7 11,5 10,5 11,3 11,2 11,2 h 10 l 11,-1 11,-2 11,-2 11,-4 10,-5 11,-6 10,-7 10,-8 10,-9 9,-10 10,-10 9,-12 8,-13 9,-13 8,-14 8,-15 7,-15 7,-17 6,-17 6,-17 6,-18 5,-19 5,-19 4,-20 3,-19 3,-21 3,-20 2,-21 2,-21 1,-21 v -21 -21 l -1,-21 -1,-21 -2,-21 -2,-20 -3,-21 -3,-20 -4,-19 -4,-20 -5,-19 -5,-18 -6,-18 -6,-17 -7,-17 -7,-16 -7,-15 -8,-15 -8,-14 -9,-13 -9,-12 -9,-11 -10,-10 -9,-10 -10,-8 -10,-8 -11,-6 -10,-6 -11,-4 -11,-4 -10,-2 -11,-2 h -11 z"
   id="path176"
   inkscape:connector-curvature="0"
   style="fill:none;stroke:#201000;stroke-width:35;stroke-linecap:round;stroke-linejoin:round" />
        <path
   d="m 13872,9585 -2,-423 -11,1 -11,1 -10,3 -11,4 -11,5 -10,6 -10,7 -10,8 -10,8 -10,10 -9,11 -9,11 -9,13 -8,13 -9,14 -7,15 -8,16 -6,16 -7,17 -6,17 -6,18 -5,19 -4,19 -4,19 -4,20 -3,20 -3,21 -2,20 -1,21 -1,21 -1,21 v 21 l 1,21 1,21 2,21 2,21 3,20 3,20 4,20 4,19 5,19 5,19 6,17 6,18 6,17 7,16 8,15 8,15 8,13 8,13 9,13 9,11 10,10 9,10 10,9 10,7 11,7 10,5 11,5 10,4 11,2 11,2 h 11 l 11,-1 11,-1 10,-3 11,-4 11,-4 10,-6 10,-7 10,-8 10,-8 10,-10 9,-11 9,-11 9,-13 z"
   id="path178"
   inkscape:connector-curvature="0"
   style="fill:#ffc080;stroke:none" />
        <path
   d="m 13872,9585 -2,-423 -11,1 -11,1 -10,3 -11,4 -11,5 -10,6 -10,7 -10,8 -10,8 -10,10 -9,11 -9,11 -9,13 -8,13 -9,14 -7,15 -8,16 -6,16 -7,17 -6,17 -6,18 -5,19 -4,19 -4,19 -4,20 -3,20 -3,21 -2,20 -1,21 -1,21 -1,21 v 21 l 1,21 1,21 2,21 2,21 3,20 3,20 4,20 4,19 5,19 5,19 6,17 6,18 6,17 7,16 8,15 8,15 8,13 8,13 9,13 9,11 10,10 9,10 10,9 10,7 11,7 10,5 11,5 10,4 11,2 11,2 h 11 l 11,-1 11,-1 10,-3 11,-4 11,-4 10,-6 10,-7 10,-8 10,-8 10,-10 9,-11 9,-11 9,-13 z"
   id="path180"
   inkscape:connector-curvature="0"
   style="fill:none;stroke:#201000;stroke-width:35;stroke-linecap:round;stroke-linejoin:round" />
        <path
   d="m 15920,9705 c 0,270 -48,537 -141,771 -92,235 -224,430 -384,565 -159,136 -340,207 -524,207 -185,0 -366,-71 -525,-207 -160,-135 -292,-330 -384,-565 -93,-234 -141,-501 -141,-771 0,-271 48,-538 141,-772 92,-235 224,-430 384,-565 159,-136 340,-207 525,-207 184,0 365,71 524,207 160,135 292,330 384,565 93,234 141,501 141,771 z"
   id="path182"
   inkscape:connector-curvature="0"
   style="fill:#ffc080;stroke:none" />
        <path
   d="m 15917,9700 -1,-78 -4,-78 -7,-78 -9,-77 -13,-76 -14,-75 -17,-74 -20,-73 -22,-71 -25,-69 -27,-68 -29,-65 -32,-63 -33,-61 -36,-58 -38,-55 -39,-53 -41,-49 -43,-46 -45,-43 -45,-40 -48,-36 -48,-33 -49,-29 -51,-25 -51,-22 -52,-17 -52,-14 -53,-10 -53,-6 -53,-2 v 0 l -53,2 -53,6 -53,10 -52,14 -52,17 -51,22 -51,25 -49,29 -48,33 -48,36 -45,40 -45,43 -43,46 -41,49 -39,53 -38,55 -36,58 -33,61 -32,63 -29,65 -27,68 -25,69 -22,71 -20,73 -17,74 -14,75 -13,76 -9,77 -7,78 -4,78 -1,78 v 0 l 1,78 4,78 7,78 9,77 13,76 14,75 17,74 20,73 22,71 25,69 27,68 29,65 32,63 33,61 36,58 38,55 39,53 41,49 43,46 45,43 45,40 48,36 48,33 49,29 51,25 51,22 52,17 52,14 53,10 53,6 53,2 v 0 l 53,-2 53,-6 53,-10 52,-14 52,-17 51,-22 51,-25 49,-29 48,-33 48,-36 45,-40 45,-43 43,-46 41,-49 39,-53 38,-55 36,-58 33,-61 32,-63 29,-65 27,-68 25,-69 22,-71 20,-73 17,-74 14,-75 13,-76 9,-77 7,-78 4,-78 z"
   id="path184"
   inkscape:connector-curvature="0"
   style="fill:none;stroke:#201000;stroke-width:35;stroke-linecap:round;stroke-linejoin:round" />
        <path
   d="m 14884,9323 1023,-42 -3,-70 -6,-69 -8,-69 -10,-68 -13,-67 -16,-66 -18,-66 -20,-63 -23,-63 -24,-61 -28,-59 -29,-57 -31,-55 -34,-53 -35,-50 -37,-48 -39,-46 -40,-43 -42,-40 -44,-37 -44,-34 -46,-31 -47,-28 -48,-24 -49,-22 -50,-17 -50,-15 -50,-11 -51,-8 -52,-4 -51,-1 -51,3 -51,6 -51,10 -50,13 -50,17 -49,19 -49,24 -47,26 -47,30 -45,33 -44,35 -42,39 -42,42 -39,44 -38,47 -36,50 -34,52 -32,54 -30,56 -28,58 -26,60 -24,62 -21,63 -19,65 -17,66 -14,67 -11,68 -9,68 -7,69 -4,69 -1,70 z"
   id="path186"
   inkscape:connector-curvature="0"
   style="fill:#ffc080;stroke:none" />
        <path
   d="m 13861,9559 -48,-221 -27,-61 -18,-75 -8,-71 8,-79 18,-84 22,-146 v -92 -80 l 27,-247 13,-57 26,-84 36,-53 35,-53 53,-62 84,-70 57,-35 71,-36 97,-26 132,-31 238,-57 57,-14 h 36 84 l 189,22 h 49 l 66,-13 53,-4 150,17 220,89 36,22 31,31 30,30 142,71 35,31 22,31 31,53 22,137 17,176 18,119 v 344 l 27,269 -115,371 -49,-287 -83,-560 -40,-194 -49,-89 -26,-30 -35,-22 -40,-14 -44,-13 -212,13 -84,-4 -110,22 -62,13 -48,18 -40,13 -53,31 -57,26 9,-39 -27,-36 -26,-13 -75,-22 -62,-4 h -40 l -53,9 -172,35 -53,9 -154,-18 h -49 l -35,13 -40,44 -17,58 -9,97 -22,150 -13,189 -49,93 -26,71 -22,88 -14,75 z"
   id="path188"
   inkscape:connector-curvature="0"
   style="fill:#201000;stroke:none" />
        <path
   d="m 15043,9502 27,225 26,110 22,48 13,40 14,57 v 62 l -14,66 -22,40 -26,31 -57,31 -67,22 -57,4 -79,-4 -53,-18 -44,-26 -27,-22 -22,-36 -13,-44 9,-48 17,-66 14,-58"
   id="path190"
   inkscape:connector-curvature="0"
   style="fill:none;stroke:#201000;stroke-width:35;stroke-linecap:round;stroke-linejoin:round" />
        <path
   d="m 14443,10397 1,11 1,12 3,11 5,11 5,11 6,11 7,11 9,10 10,10 10,10 12,10 12,9 14,10 14,8 15,9 16,8 17,7 18,7 18,7 19,6 20,6 20,5 20,5 21,4 22,4 22,3 22,2 22,2 23,2 22,1 h 23 23 l 22,-1 23,-2 22,-2 22,-2 22,-3 22,-4 21,-4 20,-5 20,-5 20,-6 19,-6 18,-7 18,-7 17,-7 16,-8 15,-9 14,-8 14,-10 12,-9 12,-10 10,-10 10,-10 9,-10 7,-11 6,-11 5,-11 5,-11 3,-11 1,-12 1,-11"
   id="path192"
   inkscape:connector-curvature="0"
   style="fill:none;stroke:#201000;stroke-width:35;stroke-linecap:round;stroke-linejoin:round" />
        <path
   d="m 14607,8990 h -24 l -24,1 -24,2 -23,2 -23,3 -23,4 -23,4 -22,5 -22,6 -21,6 -20,7 -20,7 -19,8 -18,8 -18,9 -16,9 -16,10 -15,11 -13,10 -13,11 -11,12 -11,11 -9,12 -8,13 -7,12 -6,13 -4,12 -3,13 -2,13 -1,13"
   id="path194"
   inkscape:connector-curvature="0"
   style="fill:none;stroke:#201000;stroke-width:35;stroke-linecap:round;stroke-linejoin:round" />
        <path
   d="m 15628,9237 -1,-19 -2,-20 -3,-19 -5,-19 -6,-19 -7,-18 -9,-18 -10,-18 -11,-18 -13,-17 -13,-16 -15,-16 -16,-16 -17,-14 -18,-14 -19,-14 -20,-12 -21,-12 -21,-11 -23,-11 -23,-9 -24,-8 -24,-8 -25,-6 -25,-6 -25,-4 -26,-4 -26,-3 -27,-1 -26,-1"
   id="path196"
   inkscape:connector-curvature="0"
   style="fill:none;stroke:#201000;stroke-width:35;stroke-linecap:round;stroke-linejoin:round" />
        <defs
   id="defs201">
         <clipPath
   id="clip_path_2"
   clipPathUnits="userSpaceOnUse">
          <path
   d="m 15167,8602 h 440 v 1521 h -440 z"
   id="path198"
   inkscape:connector-curvature="0" />
         </clipPath>
        </defs>
        <g
   clip-path="url(#clip_path_2)"
   id="g205">
         <path
   d="m 14761,9233 1217,224"
   id="path203"
   inkscape:connector-curvature="0"
   style="fill:none;stroke:#201000;stroke-width:35;stroke-linecap:round;stroke-linejoin:miter" />
        </g>
        <defs
   id="defs210">
         <clipPath
   id="clip_path_3"
   clipPathUnits="userSpaceOnUse">
          <path
   d="m 14236,8602 h 445 v 1521 h -445 z"
   id="path207"
   inkscape:connector-curvature="0" />
         </clipPath>
        </defs>
        <g
   clip-path="url(#clip_path_3)"
   id="g214">
         <path
   d="m 15056,9233 -1230,224"
   id="path212"
   inkscape:connector-curvature="0"
   style="fill:none;stroke:#201000;stroke-width:35;stroke-linecap:round;stroke-linejoin:miter" />
        </g>
        <path
   d="m 16152,15796 -544,-498 -14,48 -12,50 -11,51 -10,51 -7,52 -7,53 -5,53 -3,54 -2,54 v 54 l 2,54 3,54 4,53 6,53 8,53 9,51 11,51 12,50 13,48 15,48 17,46 17,44 19,43 20,41 22,39 22,38 24,35 24,34 26,31 26,28 27,27 28,24 29,22 29,19 29,16 30,14 31,11 31,9 31,5 31,3 31,1 31,-3 31,-5 31,-8 30,-10 30,-13 30,-16 29,-19 29,-21 28,-23 27,-26 27,-28 26,-31 24,-33 24,-34 23,-37 21,-39 21,-41 19,-42 18,-45 17,-45 15,-47 14,-49 z"
   id="path216"
   inkscape:connector-curvature="0"
   style="fill:#404040;stroke:none" />
        <defs
   id="defs221">
         <clipPath
   id="clip_path_4"
   clipPathUnits="userSpaceOnUse">
          <path
   d="m 15590,15302 h 1243 v 1066 h -1243 z"
   id="path218"
   inkscape:connector-curvature="0" />
         </clipPath>
        </defs>
        <g
   clip-path="url(#clip_path_4)"
   id="g225">
         <path
   d="m 14382,14270 3625,3097"
   id="path223"
   inkscape:connector-curvature="0"
   style="fill:none;stroke:#000000;stroke-width:35;stroke-linecap:round;stroke-linejoin:miter" />
        </g>
        <path
   d="m 8202,11253 -260,-22 -115,-75 -71,-71 -145,-172 -80,-154 -211,-146 -199,-106 -114,-48 -155,-27 -66,18 -22,22 -13,35 v 31 l 9,31 52,18 75,39 71,45 137,127 225,314 119,278 v 198 l 40,225 -93,198 -132,173 -102,75 -88,35 -154,-5 -36,18 -22,26 -4,45 22,44 242,66 168,-27 168,-35 44,-18 44,-30 154,-115 137,-115 141,-137 31,-22 35,-13 155,-17 z"
   id="path227"
   inkscape:connector-curvature="0"
   style="fill:#ffc080;stroke:none" />
        <path
   d="m 8202,11253 -260,-22 -115,-75 -71,-71 -145,-172 -80,-154 -211,-146 -199,-106 -114,-48 -155,-27 -66,18 -22,22 -13,35 v 31 l 9,31 52,18 75,39 71,45 137,127 225,314 119,278 v 198 l 40,225 -93,198 -132,173 -102,75 -88,35 -154,-5 -36,18 -22,26 -4,45 22,44 242,66 168,-27 168,-35 44,-18 44,-30 154,-115 137,-115 141,-137 31,-22 35,-13 155,-17 z"
   id="path229"
   inkscape:connector-curvature="0"
   style="fill:none;stroke:#201000;stroke-width:35;stroke-linecap:round;stroke-linejoin:round" />
        <path
   d="m 7099,10494 230,181 88,106 97,123 66,80 26,75"
   id="path231"
   inkscape:connector-curvature="0"
   style="fill:none;stroke:#201000;stroke-width:35;stroke-linecap:round;stroke-linejoin:round" />
        <path
   d="m 8092,11226 h 237 v 819 h -237 z"
   id="path233"
   inkscape:connector-curvature="0"
   style="fill:#ffffff;stroke:none" />
        <path
   d="m 8092,11226 h 237 v 819 h -237 z"
   id="path235"
   inkscape:connector-curvature="0"
   style="fill:none;stroke:#000000;stroke-width:35;stroke-linecap:round;stroke-linejoin:round" />
        <path
   d="m 8268,11178 1390,-22 1340,-44 h 993 l 106,-62 106,-57 92,-49 93,-35 101,-27 119,-26 142,-5 105,9 521,53 684,-31 352,1288 53,256 40,322 31,309 26,287 5,278 -71,1257 -22,256 -35,202 -31,142 -57,163 -53,150 -58,128 -88,145 -370,631 -186,132 -397,-26 -264,-80 -313,-105 -212,-53 -318,-106 -238,-133 128,-348 102,-296 141,-255 106,-265 52,-238 53,-340 40,-269 40,-357 13,-358 -26,-344 -67,-485 -53,-159 -39,-105 -119,-93 -84,-57 -128,-36 -132,-31 -128,-22 -159,-26 -207,-22 -1112,-49 -1186,-66 h -830 z"
   id="path237"
   inkscape:connector-curvature="0"
   style="fill:#808080;stroke:none" />
        <path
   d="m 8268,11178 1390,-22 1340,-44 h 993 l 106,-62 106,-57 92,-49 93,-35 101,-27 119,-26 142,-5 105,9 521,53 684,-31 352,1288 53,256 40,322 31,309 26,287 5,278 -71,1257 -22,256 -35,202 -31,142 -57,163 -53,150 -58,128 -88,145 -370,631 -186,132 -397,-26 -264,-80 -313,-105 -212,-53 -318,-106 -238,-133 128,-348 102,-296 141,-255 106,-265 52,-238 53,-340 40,-269 40,-357 13,-358 -26,-344 -67,-485 -53,-159 -39,-105 -119,-93 -84,-57 -128,-36 -132,-31 -128,-22 -159,-26 -207,-22 -1112,-49 -1186,-66 h -830 z"
   id="path239"
   inkscape:connector-curvature="0"
   style="fill:none;stroke:#000000;stroke-width:35;stroke-linecap:round;stroke-linejoin:round" />
        <path
   d="m 13689,10918 -93,277 -119,252 -92,172 383,198 -211,411 159,251 145,278 265,498 119,292 132,330 80,278 53,305"
   id="path241"
   inkscape:connector-curvature="0"
   style="fill:none;stroke:#000000;stroke-width:35;stroke-linecap:round;stroke-linejoin:round" />
        <path
   d="m 17597,14817 472,591 27,198 -40,225 -93,278 -132,318 -119,212 -128,211 -609,-516 -317,-317 -292,-278 z"
   id="path243"
   inkscape:connector-curvature="0"
   style="fill:#808080;stroke:none" />
        <path
   d="m 17597,14817 472,591 27,198 -40,225 -93,278 -132,318 -119,212 -128,211 -609,-516 -317,-317 -292,-278 z"
   id="path245"
   inkscape:connector-curvature="0"
   style="fill:none;stroke:#000000;stroke-width:35;stroke-linecap:round;stroke-linejoin:round" />
        <path
   d="m 15670,10957 988,44 83,14 75,13 75,26 67,31 97,53 75,49 61,57 67,75 123,132 172,225 340,450 410,609 225,313 212,318 92,158 -26,133 -106,185 -212,238 -212,265 -198,225 -212,238 -119,115 -520,507 -755,-701 803,-1099 106,-211 -137,-164 -185,-317 v 331 l 18,273 31,327 -644,864 167,128 -556,604 -273,-220 -84,-133 -66,-145 -49,-163 -30,-168 -102,-560 -75,-446 v -520 l 27,-446 48,-445 75,-472 z"
   id="path247"
   inkscape:connector-curvature="0"
   style="fill:#808080;stroke:none" />
        <path
   d="m 15670,10957 988,44 83,14 75,13 75,26 67,31 97,53 75,49 61,57 67,75 123,132 172,225 340,450 410,609 225,313 212,318 92,158 -26,133 -106,185 -212,238 -212,265 -198,225 -212,238 -119,115 -520,507 -755,-701 803,-1099 106,-211 -137,-164 -185,-317 v 331 l 18,273 31,327 -644,864 167,128 -556,604 -273,-220 -84,-133 -66,-145 -49,-163 -30,-168 -102,-560 -75,-446 v -520 l 27,-446 48,-445 75,-472 z"
   id="path249"
   inkscape:connector-curvature="0"
   style="fill:none;stroke:#000000;stroke-width:35;stroke-linecap:round;stroke-linejoin:round" />
        <path
   d="m 16159,10970 265,530 -331,225 238,370 -225,490 -172,472 -145,463 -53,357 -53,318 -27,265 -26,405"
   id="path251"
   inkscape:connector-curvature="0"
   style="fill:none;stroke:#000000;stroke-width:35;stroke-linecap:round;stroke-linejoin:round" />
        <path
   d="m 16565,14817 -124,119 -110,18 -75,13 -101,40 -93,48 -92,66 -256,305 935,780 141,-154 62,-106 48,-132 53,-212 27,-128 128,-145 z"
   id="path253"
   inkscape:connector-curvature="0"
   style="fill:#ffc080;stroke:none" />
        <path
   d="m 16565,14817 -124,119 -110,18 -75,13 -101,40 -93,48 -92,66 -256,305 935,780 141,-154 62,-106 48,-132 53,-212 27,-128 128,-145 z"
   id="path255"
   inkscape:connector-curvature="0"
   style="fill:none;stroke:#000000;stroke-width:35;stroke-linecap:round;stroke-linejoin:round" />
        <path
   d="m 16530,14786 -84,75 688,635 62,-97 -322,-300 z"
   id="path257"
   inkscape:connector-curvature="0"
   style="fill:#e0e0e0;stroke:none" />
        <path
   d="m 16530,14786 -84,75 688,635 62,-97 -322,-300 z"
   id="path259"
   inkscape:connector-curvature="0"
   style="fill:none;stroke:#000000;stroke-width:35;stroke-linecap:round;stroke-linejoin:round" />
       </g>
      </g>
     </g>
    </g>
   </g>
  </g>
 </g>
</svg>