<?xml version="1.0" encoding="UTF-8" standalone="no"?>
<svg
   xmlns:ooo="http://xml.openoffice.org/svg/export"
   xmlns:dc="http://purl.org/dc/elements/1.1/"
   xmlns:cc="http://creativecommons.org/ns#"
   xmlns:rdf="http://www.w3.org/1999/02/22-rdf-syntax-ns#"
   xmlns:svg="http://www.w3.org/2000/svg"
   xmlns="http://www.w3.org/2000/svg"
   xmlns:sodipodi="http://sodipodi.sourceforge.net/DTD/sodipodi-0.dtd"
   xmlns:inkscape="http://www.inkscape.org/namespaces/inkscape"
   version="1.2"
   width="180.98mm"
   height="91.019997mm"
   viewBox="0 0 18098 9101.9997"
   preserveAspectRatio="xMidYMid"
   xml:space="preserve"
   id="svg79"
   sodipodi:docname="azrbaijf.svg"
   style="fill-rule:evenodd;stroke-width:28.22200012;stroke-linejoin:round"
   inkscape:version="0.92.5 (2060ec1f9f, 2020-04-08)"><metadata
   id="metadata83"><rdf:RDF><cc:Work
       rdf:about=""><dc:format>image/svg+xml</dc:format><dc:type
         rdf:resource="http://purl.org/dc/dcmitype/StillImage" /></cc:Work></rdf:RDF></metadata><sodipodi:namedview
   pagecolor="#ffffff"
   bordercolor="#666666"
   borderopacity="1"
   objecttolerance="10"
   gridtolerance="10"
   guidetolerance="10"
   inkscape:pageopacity="0"
   inkscape:pageshadow="2"
   inkscape:window-width="664"
   inkscape:window-height="487"
   id="namedview81"
   showgrid="false"
   inkscape:zoom="0.2102413"
   inkscape:cx="342.00945"
   inkscape:cy="172.0063"
   inkscape:window-x="0"
   inkscape:window-y="0"
   inkscape:window-maximized="0"
   inkscape:current-layer="svg79" />
 <defs
   class="ClipPathGroup"
   id="defs8">
  <clipPath
   id="presentation_clip_path"
   clipPathUnits="userSpaceOnUse">
   <rect
   x="0"
   y="0"
   width="21000"
   height="29700"
   id="rect2" />
  </clipPath>
  <clipPath
   id="presentation_clip_path_shrink"
   clipPathUnits="userSpaceOnUse">
   <rect
   x="21"
   y="29"
   width="20958"
   height="29641"
   id="rect5" />
  </clipPath>
 </defs>
 <defs
   class="TextShapeIndex"
   id="defs12">
  <g
   ooo:slide="id1"
   ooo:id-list="id3"
   id="g10" />
 </defs>
 <defs
   class="EmbeddedBulletChars"
   id="defs44">
  <g
   id="bullet-char-template-57356"
   transform="matrix(4.8828125e-4,0,0,-4.8828125e-4,0,0)">
   <path
   d="M 580,1141 1163,571 580,0 -4,571 Z"
   id="path14"
   inkscape:connector-curvature="0" />
  </g>
  <g
   id="bullet-char-template-57354"
   transform="matrix(4.8828125e-4,0,0,-4.8828125e-4,0,0)">
   <path
   d="M 8,1128 H 1137 V 0 H 8 Z"
   id="path17"
   inkscape:connector-curvature="0" />
  </g>
  <g
   id="bullet-char-template-10146"
   transform="matrix(4.8828125e-4,0,0,-4.8828125e-4,0,0)">
   <path
   d="M 174,0 602,739 174,1481 1456,739 Z M 1358,739 309,1346 659,739 Z"
   id="path20"
   inkscape:connector-curvature="0" />
  </g>
  <g
   id="bullet-char-template-10132"
   transform="matrix(4.8828125e-4,0,0,-4.8828125e-4,0,0)">
   <path
   d="M 2015,739 1276,0 H 717 l 543,543 H 174 v 393 h 1086 l -543,545 h 557 z"
   id="path23"
   inkscape:connector-curvature="0" />
  </g>
  <g
   id="bullet-char-template-10007"
   transform="matrix(4.8828125e-4,0,0,-4.8828125e-4,0,0)">
   <path
   d="m 0,-2 c -7,16 -16,29 -25,39 l 381,530 c -94,256 -141,385 -141,387 0,25 13,38 40,38 9,0 21,-2 34,-5 21,4 42,12 65,25 l 27,-13 111,-251 280,301 64,-25 24,25 c 21,-10 41,-24 62,-43 C 886,937 835,863 770,784 769,783 710,716 594,584 L 774,223 c 0,-27 -21,-55 -63,-84 l 16,-20 C 717,90 699,76 672,76 641,76 570,178 457,381 L 164,-76 c -22,-34 -53,-51 -92,-51 -42,0 -63,17 -64,51 -7,9 -10,24 -10,44 0,9 1,19 2,30 z"
   id="path26"
   inkscape:connector-curvature="0" />
  </g>
  <g
   id="bullet-char-template-10004"
   transform="matrix(4.8828125e-4,0,0,-4.8828125e-4,0,0)">
   <path
   d="M 285,-33 C 182,-33 111,30 74,156 52,228 41,333 41,471 c 0,78 14,145 41,201 34,71 87,106 158,106 53,0 88,-31 106,-94 l 23,-176 c 8,-64 28,-97 59,-98 l 735,706 c 11,11 33,17 66,17 42,0 63,-15 63,-46 V 965 c 0,-36 -10,-64 -30,-84 L 442,47 C 390,-6 338,-33 285,-33 Z"
   id="path29"
   inkscape:connector-curvature="0" />
  </g>
  <g
   id="bullet-char-template-9679"
   transform="matrix(4.8828125e-4,0,0,-4.8828125e-4,0,0)">
   <path
   d="M 813,0 C 632,0 489,54 383,161 276,268 223,411 223,592 c 0,181 53,324 160,431 106,107 249,161 430,161 179,0 323,-54 432,-161 108,-107 162,-251 162,-431 0,-180 -54,-324 -162,-431 C 1136,54 992,0 813,0 Z"
   id="path32"
   inkscape:connector-curvature="0" />
  </g>
  <g
   id="bullet-char-template-8226"
   transform="matrix(4.8828125e-4,0,0,-4.8828125e-4,0,0)">
   <path
   d="m 346,457 c -73,0 -137,26 -191,78 -54,51 -81,114 -81,188 0,73 27,136 81,188 54,52 118,78 191,78 73,0 134,-26 185,-79 51,-51 77,-114 77,-187 0,-75 -25,-137 -76,-188 -50,-52 -112,-78 -186,-78 z"
   id="path35"
   inkscape:connector-curvature="0" />
  </g>
  <g
   id="bullet-char-template-8211"
   transform="matrix(4.8828125e-4,0,0,-4.8828125e-4,0,0)">
   <path
   d="M -4,459 H 1135 V 606 H -4 Z"
   id="path38"
   inkscape:connector-curvature="0" />
  </g>
  <g
   id="bullet-char-template-61548"
   transform="matrix(4.8828125e-4,0,0,-4.8828125e-4,0,0)">
   <path
   d="m 173,740 c 0,163 58,303 173,419 116,115 255,173 419,173 163,0 302,-58 418,-173 116,-116 174,-256 174,-419 0,-163 -58,-303 -174,-418 C 1067,206 928,148 765,148 601,148 462,206 346,322 231,437 173,577 173,740 Z"
   id="path41"
   inkscape:connector-curvature="0" />
  </g>
 </defs>
 <g
   id="g49"
   transform="translate(-1451,-10299)">
  <g
   id="id2"
   class="Master_Slide">
   <g
   id="bg-id2"
   class="Background" />
   <g
   id="bo-id2"
   class="BackgroundObjects" />
  </g>
 </g>
 <g
   class="SlideGroup"
   id="g77"
   transform="translate(-1451,-10299)">
  <g
   id="g75">
   <g
   id="container-id1">
    <g
   id="id1"
   class="Slide"
   clip-path="url(#presentation_clip_path)">
     <g
   class="Page"
   id="g71">
      <g
   class="Graphic"
   id="g69">
       <g
   id="id3">
        <rect
   class="BoundingBox"
   x="1451"
   y="10299"
   width="18098"
   height="9102"
   id="rect51"
   style="fill:none;stroke:none" />
        <defs
   id="defs56">
         <clipPath
   id="clip_path_1"
   clipPathUnits="userSpaceOnUse">
          <path
   d="m 1451,10299 h 18097 v 9101 H 1451 Z"
   id="path53"
   inkscape:connector-curvature="0" />
         </clipPath>
        </defs>
        <g
   clip-path="url(#clip_path_1)"
   id="g66">
         <path
   d="m 1451,16386 h 2253 2254 2253 2258 2253 2254 2253 2258 v 3011 H 17229 14976 12722 10469 8211 5958 3704 1451 Z"
   id="path58"
   inkscape:connector-curvature="0"
   style="fill:#3da441;stroke:none" />
         <path
   d="m 1451,10365 h 2253 2254 2253 2258 2253 2254 2253 2258 v 3006 H 17229 14976 12722 10469 8211 5958 3704 1451 Z"
   id="path60"
   inkscape:connector-curvature="0"
   style="fill:#00708f;stroke:none" />
         <path
   d="m 1455,13376 v 3010 h 2254 2253 2254 2253 2253 2254 2253 2258 V 13376 H 17229 14976 12722 10469 8216 5962 3709 Z m 8568,2873 h -71 l -66,-4 -71,-9 -66,-14 -66,-17 -62,-18 -62,-22 -62,-22 -62,-27 -57,-31 -58,-31 -57,-35 -53,-40 -49,-40 -48,-44 -49,-44 -44,-49 -44,-49 -40,-49 -40,-53 -35,-57 -31,-58 -31,-57 -27,-62 -26,-62 -18,-62 -22,-67 -13,-62 -13,-71 -9,-66 -5,-71 v -66 -71 l 5,-71 9,-66 13,-67 13,-66 22,-66 18,-62 26,-62 27,-62 31,-58 31,-57 35,-54 40,-53 40,-53 44,-49 44,-48 49,-45 48,-44 49,-40 53,-35 57,-35 58,-36 57,-31 62,-26 62,-23 62,-22 62,-17 66,-18 66,-9 71,-9 66,-4 71,-5 h 48 49 l 49,5 48,4 44,9 45,4 44,14 44,9 40,13 44,13 79,31 76,40 70,44 67,45 30,26 31,27 58,53 57,57 49,62 26,31 22,31 45,67 39,71 -17,-18 -44,-40 -31,-22 -36,-31 -44,-31 -53,-36 -53,-31 -62,-31 -66,-31 -71,-26 -75,-22 -79,-14 -45,-8 -39,-5 -45,-4 h -44 -53 l -57,4 -53,9 -53,9 -53,13 -49,13 -53,18 -48,18 -49,22 -44,27 -44,22 -45,31 -44,31 -40,31 -39,35 -36,36 -35,35 -35,40 -31,40 -31,44 -27,44 -26,44 -27,45 -22,48 -18,49 -17,49 -13,53 -14,53 -9,53 -4,27 v 26 l -4,53 -5,58 5,58 4,53 4,53 9,53 14,53 13,53 17,49 18,49 22,48 27,45 26,44 27,44 31,44 31,40 35,40 35,35 36,40 39,31 40,31 44,31 45,31 44,22 44,27 49,22 48,18 53,17 49,14 53,13 53,9 26,4 27,5 57,4 h 53 53 l 53,-4 27,-5 26,-4 53,-9 49,-9 49,-13 48,-18 49,-18 48,-22 45,-22 44,-22 39,-26 45,-27 39,-31 40,-31 36,-35 4,4 -49,58 -48,62 -27,26 -26,27 -58,53 -57,48 -58,45 -61,40 -67,39 -66,36 -35,13 -36,13 -70,27 -71,22 -40,9 -35,9 -80,13 -79,9 h -40 z m 2019,-837 -362,-124 -168,346 -168,-346 -362,124 123,-363 -344,-168 344,-168 -123,-363 362,124 168,-346 168,346 362,-124 -128,363 349,168 -349,168 z"
   id="path62"
   inkscape:connector-curvature="0"
   style="fill:#fa012c;stroke:none" />
         <path
   d="m 1451,10365 h 2253 2254 2253 2258 2253 2254 2253 2258 v 2258 2258 2258 2262 H 17229 14976 12722 10469 8211 5958 3704 1451 v -2262 -2258 -2258 z"
   id="path64"
   inkscape:connector-curvature="0"
   style="fill:none;stroke:#000000;stroke-width:4;stroke-linecap:round;stroke-linejoin:round" />
        </g>
       </g>
      </g>
     </g>
    </g>
   </g>
  </g>
 </g>
</svg>