<?xml version="1.0" encoding="UTF-8" standalone="no"?>
<svg
   xmlns:ooo="http://xml.openoffice.org/svg/export"
   xmlns:dc="http://purl.org/dc/elements/1.1/"
   xmlns:cc="http://creativecommons.org/ns#"
   xmlns:rdf="http://www.w3.org/1999/02/22-rdf-syntax-ns#"
   xmlns:svg="http://www.w3.org/2000/svg"
   xmlns="http://www.w3.org/2000/svg"
   xmlns:sodipodi="http://sodipodi.sourceforge.net/DTD/sodipodi-0.dtd"
   xmlns:inkscape="http://www.inkscape.org/namespaces/inkscape"
   version="1.2"
   width="65.220001mm"
   height="88.279999mm"
   viewBox="0 0 6522.0001 8827.9999"
   preserveAspectRatio="xMidYMid"
   xml:space="preserve"
   id="svg104"
   sodipodi:docname="beaker2.svg"
   style="fill-rule:evenodd;stroke-width:28.22200012;stroke-linejoin:round"
   inkscape:version="0.92.5 (2060ec1f9f, 2020-04-08)"><metadata
   id="metadata108"><rdf:RDF><cc:Work
       rdf:about=""><dc:format>image/svg+xml</dc:format><dc:type
         rdf:resource="http://purl.org/dc/dcmitype/StillImage" /></cc:Work></rdf:RDF></metadata><sodipodi:namedview
   pagecolor="#ffffff"
   bordercolor="#666666"
   borderopacity="1"
   objecttolerance="10"
   gridtolerance="10"
   guidetolerance="10"
   inkscape:pageopacity="0"
   inkscape:pageshadow="2"
   inkscape:window-width="664"
   inkscape:window-height="487"
   id="namedview106"
   showgrid="false"
   inkscape:zoom="0.2102413"
   inkscape:cx="123.25039"
   inkscape:cy="166.82834"
   inkscape:window-x="0"
   inkscape:window-y="0"
   inkscape:window-maximized="0"
   inkscape:current-layer="svg104" />
 <defs
   class="ClipPathGroup"
   id="defs8">
  <clipPath
   id="presentation_clip_path"
   clipPathUnits="userSpaceOnUse">
   <rect
   x="0"
   y="0"
   width="21000"
   height="29700"
   id="rect2" />
  </clipPath>
  <clipPath
   id="presentation_clip_path_shrink"
   clipPathUnits="userSpaceOnUse">
   <rect
   x="21"
   y="29"
   width="20958"
   height="29641"
   id="rect5" />
  </clipPath>
 </defs>
 <defs
   class="TextShapeIndex"
   id="defs12">
  <g
   ooo:slide="id1"
   ooo:id-list="id3"
   id="g10" />
 </defs>
 <defs
   class="EmbeddedBulletChars"
   id="defs44">
  <g
   id="bullet-char-template-57356"
   transform="matrix(4.8828125e-4,0,0,-4.8828125e-4,0,0)">
   <path
   d="M 580,1141 1163,571 580,0 -4,571 Z"
   id="path14"
   inkscape:connector-curvature="0" />
  </g>
  <g
   id="bullet-char-template-57354"
   transform="matrix(4.8828125e-4,0,0,-4.8828125e-4,0,0)">
   <path
   d="M 8,1128 H 1137 V 0 H 8 Z"
   id="path17"
   inkscape:connector-curvature="0" />
  </g>
  <g
   id="bullet-char-template-10146"
   transform="matrix(4.8828125e-4,0,0,-4.8828125e-4,0,0)">
   <path
   d="M 174,0 602,739 174,1481 1456,739 Z M 1358,739 309,1346 659,739 Z"
   id="path20"
   inkscape:connector-curvature="0" />
  </g>
  <g
   id="bullet-char-template-10132"
   transform="matrix(4.8828125e-4,0,0,-4.8828125e-4,0,0)">
   <path
   d="M 2015,739 1276,0 H 717 l 543,543 H 174 v 393 h 1086 l -543,545 h 557 z"
   id="path23"
   inkscape:connector-curvature="0" />
  </g>
  <g
   id="bullet-char-template-10007"
   transform="matrix(4.8828125e-4,0,0,-4.8828125e-4,0,0)">
   <path
   d="m 0,-2 c -7,16 -16,29 -25,39 l 381,530 c -94,256 -141,385 -141,387 0,25 13,38 40,38 9,0 21,-2 34,-5 21,4 42,12 65,25 l 27,-13 111,-251 280,301 64,-25 24,25 c 21,-10 41,-24 62,-43 C 886,937 835,863 770,784 769,783 710,716 594,584 L 774,223 c 0,-27 -21,-55 -63,-84 l 16,-20 C 717,90 699,76 672,76 641,76 570,178 457,381 L 164,-76 c -22,-34 -53,-51 -92,-51 -42,0 -63,17 -64,51 -7,9 -10,24 -10,44 0,9 1,19 2,30 z"
   id="path26"
   inkscape:connector-curvature="0" />
  </g>
  <g
   id="bullet-char-template-10004"
   transform="matrix(4.8828125e-4,0,0,-4.8828125e-4,0,0)">
   <path
   d="M 285,-33 C 182,-33 111,30 74,156 52,228 41,333 41,471 c 0,78 14,145 41,201 34,71 87,106 158,106 53,0 88,-31 106,-94 l 23,-176 c 8,-64 28,-97 59,-98 l 735,706 c 11,11 33,17 66,17 42,0 63,-15 63,-46 V 965 c 0,-36 -10,-64 -30,-84 L 442,47 C 390,-6 338,-33 285,-33 Z"
   id="path29"
   inkscape:connector-curvature="0" />
  </g>
  <g
   id="bullet-char-template-9679"
   transform="matrix(4.8828125e-4,0,0,-4.8828125e-4,0,0)">
   <path
   d="M 813,0 C 632,0 489,54 383,161 276,268 223,411 223,592 c 0,181 53,324 160,431 106,107 249,161 430,161 179,0 323,-54 432,-161 108,-107 162,-251 162,-431 0,-180 -54,-324 -162,-431 C 1136,54 992,0 813,0 Z"
   id="path32"
   inkscape:connector-curvature="0" />
  </g>
  <g
   id="bullet-char-template-8226"
   transform="matrix(4.8828125e-4,0,0,-4.8828125e-4,0,0)">
   <path
   d="m 346,457 c -73,0 -137,26 -191,78 -54,51 -81,114 -81,188 0,73 27,136 81,188 54,52 118,78 191,78 73,0 134,-26 185,-79 51,-51 77,-114 77,-187 0,-75 -25,-137 -76,-188 -50,-52 -112,-78 -186,-78 z"
   id="path35"
   inkscape:connector-curvature="0" />
  </g>
  <g
   id="bullet-char-template-8211"
   transform="matrix(4.8828125e-4,0,0,-4.8828125e-4,0,0)">
   <path
   d="M -4,459 H 1135 V 606 H -4 Z"
   id="path38"
   inkscape:connector-curvature="0" />
  </g>
  <g
   id="bullet-char-template-61548"
   transform="matrix(4.8828125e-4,0,0,-4.8828125e-4,0,0)">
   <path
   d="m 173,740 c 0,163 58,303 173,419 116,115 255,173 419,173 163,0 302,-58 418,-173 116,-116 174,-256 174,-419 0,-163 -58,-303 -174,-418 C 1067,206 928,148 765,148 601,148 462,206 346,322 231,437 173,577 173,740 Z"
   id="path41"
   inkscape:connector-curvature="0" />
  </g>
 </defs>
 <g
   id="g49"
   transform="translate(-7239,-10436)">
  <g
   id="id2"
   class="Master_Slide">
   <g
   id="bg-id2"
   class="Background" />
   <g
   id="bo-id2"
   class="BackgroundObjects" />
  </g>
 </g>
 <g
   class="SlideGroup"
   id="g102"
   transform="translate(-7239,-10436)">
  <g
   id="g100">
   <g
   id="container-id1">
    <g
   id="id1"
   class="Slide"
   clip-path="url(#presentation_clip_path)">
     <g
   class="Page"
   id="g96">
      <g
   class="Graphic"
   id="g94">
       <g
   id="id3">
        <rect
   class="BoundingBox"
   x="7239"
   y="10436"
   width="6522"
   height="8828"
   id="rect51"
   style="fill:none;stroke:none" />
        <defs
   id="defs56">
         <clipPath
   id="clip_path_1"
   clipPathUnits="userSpaceOnUse">
          <path
   d="m 7239,10436 h 6521 v 8827 H 7239 Z"
   id="path53"
   inkscape:connector-curvature="0" />
         </clipPath>
        </defs>
        <g
   clip-path="url(#clip_path_1)"
   id="g70">
         <path
   d="m 9578,10785 v 1897 l -1743,3520 -318,816 -141,406 -124,441 -9,106 18,115 40,115 66,101 146,159 185,150 181,110 185,97 203,89 247,79 216,66 217,53 260,53 265,40 278,31 198,13 261,9 h 573 l 256,-9 243,-18 256,-35 238,-31 212,-40 212,-53 256,-66 225,-79 216,-88 225,-106 155,-97 145,-102 146,-132 88,-106 53,-84 35,-79 18,-102 4,-110 -61,-309 -97,-366 -159,-419 -340,-737 -1659,-3401 v -1906 z"
   id="path58"
   inkscape:connector-curvature="0"
   style="fill:#404040;stroke:none" />
         <path
   d="m 9207,14910 234,-755 172,-490 172,-463 62,-128 66,-106 9,-114 18,-119 44,-120 70,-105 22,105 -8,67 79,-111 -18,111 -119,194 150,-102 -17,115 -40,119 -75,132 -75,128 -88,239 -120,330 -79,265 -150,349 -163,388 z"
   id="path60"
   inkscape:connector-curvature="0"
   style="fill:#a0a0a0;stroke:none" />
         <path
   d="m 9860,12527 -1377,3080 -203,467 -53,80 -48,79 -27,80 -13,101 v 119 l -88,146 -97,97 -88,48 -45,27 -35,70 -92,27 -76,128 -57,172 71,-62 66,-26 150,-31 h 124 l 92,13 -31,-40 -26,-39 v -75 l 92,-45 102,-75 124,-136 101,-133 66,-114 66,-120 53,-132 40,-181 71,-185 92,-260 1033,-2780 26,-132 z"
   id="path62"
   inkscape:connector-curvature="0"
   style="fill:#a0a0a0;stroke:none" />
         <path
   d="m 10672,12620 124,-1425 31,-27 52,14 27,70 13,93 27,212 26,39 27,62 17,128 14,163 22,344 -5,296 53,172 93,340 -124,-190 -79,-128 -84,-141 h -124 l 31,-49 44,-17 -4,-380 -35,-300 -14,239 -35,282 -17,123 -36,49 z"
   id="path64"
   inkscape:connector-curvature="0"
   style="fill:#606060;stroke:none" />
         <path
   d="m 11356,11120 v 1584 l 2176,4698"
   id="path66"
   inkscape:connector-curvature="0"
   style="fill:none;stroke:#c0c0c0;stroke-width:71;stroke-linecap:round;stroke-linejoin:round" />
         <path
   d="m 11224,11155 v 1491 l 13,194 40,172 66,137 931,2047"
   id="path68"
   inkscape:connector-curvature="0"
   style="fill:none;stroke:#606060;stroke-width:71;stroke-linecap:round;stroke-linejoin:round" />
        </g>
        <defs
   id="defs75">
         <clipPath
   id="clip_path_2"
   clipPathUnits="userSpaceOnUse">
          <path
   d="m 11625,15338 h 2135 v 1777 h -2135 z"
   id="path72"
   inkscape:connector-curvature="0" />
         </clipPath>
        </defs>
        <g
   clip-path="url(#clip_path_2)"
   id="g79">
         <path
   d="m 11528,13595 2410,5228"
   id="path77"
   inkscape:connector-curvature="0"
   style="fill:none;stroke:#606060;stroke-width:35;stroke-linecap:round;stroke-linejoin:miter" />
        </g>
        <g
   clip-path="url(#clip_path_1)"
   id="g91">
         <path
   d="m 7731,18483 53,46 59,45 66,45 73,42 79,42 85,40 91,39 97,37 102,36 108,34 112,31 117,30 121,28 125,26 129,24 132,22 136,19 138,17 140,15 143,12 144,10 145,7 147,5 146,3 h 147 l 147,-3 147,-5 145,-7 144,-10 143,-12 140,-15 138,-17 136,-19 132,-21 129,-24 126,-26 121,-28 117,-30 112,-31 108,-34 102,-36 97,-37 91,-39 85,-40 80,-41 73,-43 66,-44 60,-45 53,-46 46,-47 39,-48"
   id="path81"
   inkscape:connector-curvature="0"
   style="fill:none;stroke:#a0a0a0;stroke-width:35;stroke-linecap:round;stroke-linejoin:round" />
         <path
   d="m 7376,17839 79,71 66,48 45,27 66,22 70,4 67,-9 44,-31 61,80 93,97 115,123 115,102 79,53 106,57 123,57 115,49 159,57 93,27 114,31 106,22 128,22 137,26 115,22 115,22 119,22 128,23 106,17 163,13 198,14 h 548 l 189,-14 168,-13 137,-9 145,-22 155,-35 185,-40 115,-26 106,-31 115,-53 119,-79 92,-58 45,27 35,35 53,-22 53,-13 75,9 66,-14 176,-136 177,-146 -27,71 -22,52 -30,49 -31,35 -62,36 -57,17 -62,31 -75,44 -49,36 -79,35 -102,31 -101,44 -93,40 -101,30 -102,31 -123,27 -106,22 -102,9 -128,13 -101,9 -159,17 -168,14 -198,4 -186,9 -216,13 -194,-13 -190,-13 -229,-14 -102,-13 -145,-9 -159,-9 -133,-13 -114,-13 -102,-18 -128,-22 -106,-22 -128,-31 -106,-31 -97,-30 -137,-40 -101,-44 -102,-36 -105,-44 -102,-44 -79,-57 -71,-66 -128,-106 -106,-88 -110,-84 -80,-58 -70,-92 -44,-71 z"
   id="path83"
   inkscape:connector-curvature="0"
   style="fill:#a0a0a0;stroke:none" />
         <path
   d="m 11523,10868 c 0,60 -46,118 -135,170 -88,51 -215,94 -368,124 -153,29 -326,45 -502,45 -177,0 -350,-16 -503,-45 -153,-30 -280,-73 -368,-124 -89,-52 -135,-110 -135,-170 0,-60 46,-118 135,-169 88,-52 215,-95 368,-125 153,-29 326,-45 503,-45 176,0 349,16 502,45 153,30 280,73 368,125 89,51 135,109 135,169 z"
   id="path85"
   inkscape:connector-curvature="0"
   style="fill:#808080;stroke:none" />
         <path
   d="m 11523,10784 c 0,61 -46,121 -135,174 -88,53 -215,97 -368,127 -153,31 -326,47 -502,47 -177,0 -350,-16 -503,-47 -153,-30 -280,-74 -368,-127 -89,-53 -135,-113 -135,-174 0,-61 46,-121 135,-174 88,-53 215,-97 368,-127 153,-31 326,-47 503,-47 176,0 349,16 502,47 153,30 280,74 368,127 89,53 135,113 135,174 z"
   id="path87"
   inkscape:connector-curvature="0"
   style="fill:#a0a0a0;stroke:none" />
         <path
   d="m 11219,10790 c 0,35 -32,70 -93,100 -61,30 -148,56 -253,73 -106,18 -225,27 -346,27 -122,0 -241,-9 -347,-27 -105,-17 -192,-43 -253,-73 -61,-30 -93,-65 -93,-100 0,-35 32,-70 93,-100 61,-30 148,-56 253,-73 106,-18 225,-27 347,-27 121,0 240,9 346,27 105,17 192,43 253,73 61,30 93,65 93,100 z"
   id="path89"
   inkscape:connector-curvature="0"
   style="fill:#202020;stroke:none" />
        </g>
       </g>
      </g>
     </g>
    </g>
   </g>
  </g>
 </g>
</svg>