<?xml version="1.0" encoding="UTF-8" standalone="no"?>
<svg
   xmlns:ooo="http://xml.openoffice.org/svg/export"
   xmlns:dc="http://purl.org/dc/elements/1.1/"
   xmlns:cc="http://creativecommons.org/ns#"
   xmlns:rdf="http://www.w3.org/1999/02/22-rdf-syntax-ns#"
   xmlns:svg="http://www.w3.org/2000/svg"
   xmlns="http://www.w3.org/2000/svg"
   xmlns:sodipodi="http://sodipodi.sourceforge.net/DTD/sodipodi-0.dtd"
   xmlns:inkscape="http://www.inkscape.org/namespaces/inkscape"
   version="1.2"
   width="97.190002mm"
   height="58.25mm"
   viewBox="0 0 9719.0002 5825"
   preserveAspectRatio="xMidYMid"
   xml:space="preserve"
   id="svg168"
   sodipodi:docname="book3.svg"
   style="fill-rule:evenodd;stroke-width:28.22200012;stroke-linejoin:round"
   inkscape:version="0.92.5 (2060ec1f9f, 2020-04-08)"><metadata
   id="metadata172"><rdf:RDF><cc:Work
       rdf:about=""><dc:format>image/svg+xml</dc:format><dc:type
         rdf:resource="http://purl.org/dc/dcmitype/StillImage" /></cc:Work></rdf:RDF></metadata><sodipodi:namedview
   pagecolor="#ffffff"
   bordercolor="#666666"
   borderopacity="1"
   objecttolerance="10"
   gridtolerance="10"
   guidetolerance="10"
   inkscape:pageopacity="0"
   inkscape:pageshadow="2"
   inkscape:window-width="664"
   inkscape:window-height="487"
   id="namedview170"
   showgrid="false"
   inkscape:zoom="0.2102413"
   inkscape:cx="183.68504"
   inkscape:cy="110.05984"
   inkscape:window-x="0"
   inkscape:window-y="0"
   inkscape:window-maximized="0"
   inkscape:current-layer="svg168" />
 <defs
   class="ClipPathGroup"
   id="defs8">
  <clipPath
   id="presentation_clip_path"
   clipPathUnits="userSpaceOnUse">
   <rect
   x="0"
   y="0"
   width="21000"
   height="29700"
   id="rect2" />
  </clipPath>
  <clipPath
   id="presentation_clip_path_shrink"
   clipPathUnits="userSpaceOnUse">
   <rect
   x="21"
   y="29"
   width="20958"
   height="29641"
   id="rect5" />
  </clipPath>
 </defs>
 <defs
   class="TextShapeIndex"
   id="defs12">
  <g
   ooo:slide="id1"
   ooo:id-list="id3"
   id="g10" />
 </defs>
 <defs
   class="EmbeddedBulletChars"
   id="defs44">
  <g
   id="bullet-char-template-57356"
   transform="matrix(4.8828125e-4,0,0,-4.8828125e-4,0,0)">
   <path
   d="M 580,1141 1163,571 580,0 -4,571 Z"
   id="path14"
   inkscape:connector-curvature="0" />
  </g>
  <g
   id="bullet-char-template-57354"
   transform="matrix(4.8828125e-4,0,0,-4.8828125e-4,0,0)">
   <path
   d="M 8,1128 H 1137 V 0 H 8 Z"
   id="path17"
   inkscape:connector-curvature="0" />
  </g>
  <g
   id="bullet-char-template-10146"
   transform="matrix(4.8828125e-4,0,0,-4.8828125e-4,0,0)">
   <path
   d="M 174,0 602,739 174,1481 1456,739 Z M 1358,739 309,1346 659,739 Z"
   id="path20"
   inkscape:connector-curvature="0" />
  </g>
  <g
   id="bullet-char-template-10132"
   transform="matrix(4.8828125e-4,0,0,-4.8828125e-4,0,0)">
   <path
   d="M 2015,739 1276,0 H 717 l 543,543 H 174 v 393 h 1086 l -543,545 h 557 z"
   id="path23"
   inkscape:connector-curvature="0" />
  </g>
  <g
   id="bullet-char-template-10007"
   transform="matrix(4.8828125e-4,0,0,-4.8828125e-4,0,0)">
   <path
   d="m 0,-2 c -7,16 -16,29 -25,39 l 381,530 c -94,256 -141,385 -141,387 0,25 13,38 40,38 9,0 21,-2 34,-5 21,4 42,12 65,25 l 27,-13 111,-251 280,301 64,-25 24,25 c 21,-10 41,-24 62,-43 C 886,937 835,863 770,784 769,783 710,716 594,584 L 774,223 c 0,-27 -21,-55 -63,-84 l 16,-20 C 717,90 699,76 672,76 641,76 570,178 457,381 L 164,-76 c -22,-34 -53,-51 -92,-51 -42,0 -63,17 -64,51 -7,9 -10,24 -10,44 0,9 1,19 2,30 z"
   id="path26"
   inkscape:connector-curvature="0" />
  </g>
  <g
   id="bullet-char-template-10004"
   transform="matrix(4.8828125e-4,0,0,-4.8828125e-4,0,0)">
   <path
   d="M 285,-33 C 182,-33 111,30 74,156 52,228 41,333 41,471 c 0,78 14,145 41,201 34,71 87,106 158,106 53,0 88,-31 106,-94 l 23,-176 c 8,-64 28,-97 59,-98 l 735,706 c 11,11 33,17 66,17 42,0 63,-15 63,-46 V 965 c 0,-36 -10,-64 -30,-84 L 442,47 C 390,-6 338,-33 285,-33 Z"
   id="path29"
   inkscape:connector-curvature="0" />
  </g>
  <g
   id="bullet-char-template-9679"
   transform="matrix(4.8828125e-4,0,0,-4.8828125e-4,0,0)">
   <path
   d="M 813,0 C 632,0 489,54 383,161 276,268 223,411 223,592 c 0,181 53,324 160,431 106,107 249,161 430,161 179,0 323,-54 432,-161 108,-107 162,-251 162,-431 0,-180 -54,-324 -162,-431 C 1136,54 992,0 813,0 Z"
   id="path32"
   inkscape:connector-curvature="0" />
  </g>
  <g
   id="bullet-char-template-8226"
   transform="matrix(4.8828125e-4,0,0,-4.8828125e-4,0,0)">
   <path
   d="m 346,457 c -73,0 -137,26 -191,78 -54,51 -81,114 -81,188 0,73 27,136 81,188 54,52 118,78 191,78 73,0 134,-26 185,-79 51,-51 77,-114 77,-187 0,-75 -25,-137 -76,-188 -50,-52 -112,-78 -186,-78 z"
   id="path35"
   inkscape:connector-curvature="0" />
  </g>
  <g
   id="bullet-char-template-8211"
   transform="matrix(4.8828125e-4,0,0,-4.8828125e-4,0,0)">
   <path
   d="M -4,459 H 1135 V 606 H -4 Z"
   id="path38"
   inkscape:connector-curvature="0" />
  </g>
  <g
   id="bullet-char-template-61548"
   transform="matrix(4.8828125e-4,0,0,-4.8828125e-4,0,0)">
   <path
   d="m 173,740 c 0,163 58,303 173,419 116,115 255,173 419,173 163,0 302,-58 418,-173 116,-116 174,-256 174,-419 0,-163 -58,-303 -174,-418 C 1067,206 928,148 765,148 601,148 462,206 346,322 231,437 173,577 173,740 Z"
   id="path41"
   inkscape:connector-curvature="0" />
  </g>
 </defs>
 <g
   id="g49"
   transform="translate(-5640,-11937)">
  <g
   id="id2"
   class="Master_Slide">
   <g
   id="bg-id2"
   class="Background" />
   <g
   id="bo-id2"
   class="BackgroundObjects" />
  </g>
 </g>
 <g
   class="SlideGroup"
   id="g166"
   transform="translate(-5640,-11937)">
  <g
   id="g164">
   <g
   id="container-id1">
    <g
   id="id1"
   class="Slide"
   clip-path="url(#presentation_clip_path)">
     <g
   class="Page"
   id="g160">
      <g
   class="Graphic"
   id="g158">
       <g
   id="id3">
        <rect
   class="BoundingBox"
   x="5640"
   y="11937"
   width="9719"
   height="5825"
   id="rect51"
   style="fill:none;stroke:none" />
        <defs
   id="defs56">
         <clipPath
   id="clip_path_1"
   clipPathUnits="userSpaceOnUse">
          <path
   d="m 5640,11937 h 9718 v 5824 H 5640 Z"
   id="path53"
   inkscape:connector-curvature="0" />
         </clipPath>
        </defs>
        <g
   clip-path="url(#clip_path_1)"
   id="g58" />
        <defs
   id="defs63">
         <clipPath
   id="clip_path_2"
   clipPathUnits="userSpaceOnUse">
          <path
   d="m 5640,11941 h 9713 v 5806 H 5640 Z"
   id="path60"
   inkscape:connector-curvature="0" />
         </clipPath>
        </defs>
        <g
   clip-path="url(#clip_path_2)"
   id="g153">
         <path
   d="m 5741,13989 5242,-2048 13,27 110,57 97,-4 4169,1474 v 62 l -247,128 -4,39 -18,106 -9,115 -17,128 -14,123 -4,93 -4,79 -5,71 -4,57 v 49 71 66 l 13,75 265,84 v 44 l -5127,2859 -4222,-2131 -101,-80 -133,5 z"
   id="path65"
   inkscape:connector-curvature="0"
   style="fill:#800000;stroke:none" />
         <path
   d="m 5886,14763 c 0,136 -6,269 -18,387 -11,118 -28,215 -48,283 -20,68 -43,104 -66,104 -23,0 -46,-36 -66,-104 -20,-68 -37,-165 -48,-283 -12,-118 -18,-251 -18,-387 0,-136 6,-269 18,-387 11,-118 28,-215 48,-283 20,-68 43,-104 66,-104 23,0 46,36 66,104 20,68 37,165 48,283 12,118 18,251 18,387 z"
   id="path67"
   inkscape:connector-curvature="0"
   style="fill:#800000;stroke:none" />
         <path
   d="m 5874,15511 145,-145 4403,-1960 4902,1435 -5118,2846 z"
   id="path69"
   inkscape:connector-curvature="0"
   style="fill:#ff0000;stroke:none" />
         <path
   d="m 10136,16240 48,1310 4879,-2731 -17,-203 4,-120 5,-128 4,-110 13,-154 13,-137 14,-102 17,-136 22,-80 z"
   id="path71"
   inkscape:connector-curvature="0"
   style="fill:#c0c0c0;stroke:none" />
         <path
   d="m 10240,16881 -82,-637 -7,18 -7,20 -7,21 -7,22 -6,24 -6,26 -6,27 -6,27 -5,29 -5,30 -4,32 -4,31 -4,33 -3,34 -3,34 -3,35 -2,35 -2,36 -1,36 -1,36 v 36 37 l 1,36 v 36 l 2,36 2,36 2,35 2,35 3,34 4,33 3,33 5,32 4,30 5,30 5,29 6,28 6,26 6,25 6,24 7,22 7,21 7,20 8,18 8,16 7,14 8,13 z"
   id="path73"
   inkscape:connector-curvature="0"
   style="fill:#c0c0c0;stroke:none" />
         <path
   d="m 10144,16235 -31,137 208,159 -93,75 119,-53 216,163 -344,177 371,-142 269,217 79,53 -242,150 269,-124 62,49 4058,-2264 -17,-22 -18,-84 -4,-93 4,-137 18,-344 13,-137 18,-136 17,-133 18,-88 z"
   id="path75"
   inkscape:connector-curvature="0"
   style="fill:#9f9f9f;stroke:none" />
         <path
   d="m 5786,14055 92,93 66,9 4200,2091 -31,137 -17,177 -13,278 8,247 31,225 44,198 22,58 -2038,-1006 -2131,-1064 -83,-44 -111,9 -22,-40 -17,-53 -14,-53 -13,-70 -9,-44 -9,-75 -8,-71 -5,-88 -4,-67 -5,-88 -4,-62 v -61 -80 -66 l 4,-57 5,-67 4,-57 9,-75 9,-53 13,-66 13,-62 z"
   id="path77"
   inkscape:connector-curvature="0"
   style="fill:#ffffff;stroke:none" />
         <path
   d="m 5905,14174 -31,-31 75,18 4191,2083 -31,137 -891,-477 -807,-423 -772,-398 -662,-357 z"
   id="path79"
   inkscape:connector-curvature="0"
   style="fill:#c0c0c0;stroke:none" />
         <path
   d="m 8971,15926 507,225 146,66 145,84 314,164 -393,-190 -269,-133 z"
   id="path81"
   inkscape:connector-curvature="0"
   style="fill:#c0c0c0;stroke:none" />
         <path
   d="m 9425,16473 305,124 128,62 220,110 v 18 l -282,-137 z"
   id="path83"
   inkscape:connector-curvature="0"
   style="fill:#c0c0c0;stroke:none" />
         <path
   d="m 8402,16284 847,414 467,226 371,185 9,40 -724,-380 -626,-304 z"
   id="path85"
   inkscape:connector-curvature="0"
   style="fill:#c0c0c0;stroke:none" />
         <path
   d="m 9527,16619 551,243 v 35 l -207,-106 z"
   id="path87"
   inkscape:connector-curvature="0"
   style="fill:#c0c0c0;stroke:none" />
         <path
   d="m 9571,17087 445,220 115,67 5,22 -159,-84 -318,-177 z"
   id="path89"
   inkscape:connector-curvature="0"
   style="fill:#c0c0c0;stroke:none" />
         <path
   d="m 13560,14939 202,-129 -5,-14 -5,-14 -6,-13 -7,-13 -6,-12 -8,-12 -7,-11 -8,-11 -9,-10 -8,-10 -9,-9 -10,-8 -10,-8 -10,-7 -10,-6 -10,-5 -11,-5 -10,-4 -11,-3 -11,-3 -11,-2 -11,-1 h -12 l -11,1 -11,1 -11,2 -11,3 -11,4 -10,4 -11,5 -10,6 -10,7 -10,7 -10,8 -9,9 -9,9 -8,10 -9,10 -7,11 -8,12 -7,12 -6,12 -7,13 -5,14 -5,14 -5,14 -4,14 -4,15 -3,15 -2,15 -2,15 -2,16 -1,15 v 16 15 l 1,16 1,15 2,15 3,16 3,15 3,14 z"
   id="path91"
   inkscape:connector-curvature="0"
   style="fill:#808080;stroke:none" />
         <path
   d="m 13571,14926 175,-126 -8,-7 -9,-6 -9,-7 -10,-5 -9,-6 -11,-5 -10,-4 -11,-4 -11,-4 -11,-3 -11,-3 -12,-2 -11,-2 -12,-2 h -12 l -12,-1 h -12 l -12,1 h -11 l -12,2 -12,2 -11,2 -12,3 -11,3 -11,4 -11,4 -10,4 -10,5 -10,5 -9,6 -9,6 -9,7 -8,6 -8,7 -8,8 -6,7 -7,8 -6,9 -5,8 -5,8 -4,9 -4,9 -3,9 -3,9 -2,10 -1,9 -1,9 v 10 9 l 1,9 2,10 2,9 3,9 3,9 4,9 5,9 5,8 5,8 6,8 7,8 7,8 z"
   id="path93"
   inkscape:connector-curvature="0"
   style="fill:#000000;stroke:none" />
         <path
   d="m 13139,15261 203,-131 -5,-14 -6,-14 -6,-13 -6,-13 -7,-12 -7,-12 -8,-11 -8,-11 -9,-10 -9,-9 -9,-9 -10,-8 -10,-8 -10,-7 -10,-6 -11,-5 -10,-5 -11,-4 -11,-3 -11,-2 -11,-2 -12,-1 h -11 l -11,1 -11,1 -11,3 -12,3 -10,3 -11,5 -11,5 -10,6 -10,7 -10,8 -10,8 -9,9 -9,9 -9,10 -8,11 -8,11 -7,11 -7,13 -7,12 -6,13 -5,14 -5,14 -5,14 -4,15 -3,14 -3,15 -3,16 -2,15 -1,15 -1,16 v 15 16 l 1,15 2,16 2,15 2,15 4,15 3,15 z"
   id="path95"
   inkscape:connector-curvature="0"
   style="fill:#808080;stroke:none" />
         <path
   d="m 13151,15248 179,-125 -9,-7 -8,-6 -9,-6 -10,-6 -10,-5 -10,-6 -10,-4 -11,-4 -11,-4 -11,-3 -12,-3 -12,-3 -11,-2 -12,-1 -12,-1 -12,-1 h -12 -12 l -12,1 -12,2 -12,1 -12,3 -11,2 -12,3 -11,4 -11,4 -10,4 -11,5 -10,5 -9,6 -10,6 -9,6 -8,7 -8,7 -8,7 -7,8 -6,8 -6,8 -6,8 -5,9 -4,9 -4,8 -3,9 -3,10 -2,9 -2,9 -1,10 v 9 9 l 1,10 2,9 2,9 3,9 3,9 4,9 4,9 5,9 6,8 6,8 6,8 7,8 z"
   id="path97"
   inkscape:connector-curvature="0"
   style="fill:#000000;stroke:none" />
         <path
   d="m 12715,15565 202,-133 -5,-14 -5,-13 -6,-13 -7,-13 -7,-12 -7,-12 -8,-11 -8,-11 -9,-10 -9,-9 -9,-9 -9,-8 -10,-7 -10,-7 -11,-6 -10,-6 -11,-4 -11,-4 -11,-3 -11,-3 -11,-1 -11,-1 h -11 l -11,1 -12,1 -11,3 -11,3 -10,4 -11,4 -11,5 -10,6 -10,7 -10,8 -10,8 -9,8 -9,10 -8,10 -8,10 -8,11 -8,12 -7,12 -6,13 -6,13 -6,13 -5,14 -5,14 -4,15 -3,14 -3,15 -3,15 -2,16 -1,15 -1,15 v 16 15 l 1,16 2,15 2,15 2,16 3,14 4,15 z"
   id="path99"
   inkscape:connector-curvature="0"
   style="fill:#808080;stroke:none" />
         <path
   d="m 12727,15553 177,-126 -9,-7 -8,-7 -10,-6 -9,-6 -10,-5 -11,-5 -10,-4 -11,-4 -11,-4 -12,-3 -12,-3 -11,-2 -12,-2 -12,-2 -12,-1 h -12 -13 l -12,1 -12,1 -12,1 -12,2 -11,3 -12,2 -11,4 -12,4 -10,4 -11,4 -10,5 -10,6 -10,6 -9,6 -9,7 -8,6 -8,8 -7,7 -7,8 -6,8 -6,8 -6,9 -4,9 -5,8 -3,10 -3,9 -2,9 -2,9 -1,10 -1,9 v 10 l 1,9 1,10 2,9 2,9 4,9 3,9 5,9 4,9 6,8 6,9 6,8 7,7 z"
   id="path101"
   inkscape:connector-curvature="0"
   style="fill:#000000;stroke:none" />
         <path
   d="m 12305,15870 219,-133 -6,-13 -6,-14 -6,-13 -7,-13 -8,-12 -8,-11 -8,-12 -9,-10 -9,-10 -10,-10 -10,-8 -10,-9 -10,-7 -11,-7 -11,-6 -12,-5 -11,-5 -12,-4 -12,-3 -12,-2 -12,-2 -12,-1 h -12 l -12,1 -12,1 -12,3 -12,3 -12,3 -11,5 -12,5 -11,6 -11,7 -11,7 -10,8 -10,9 -10,9 -9,10 -9,11 -8,11 -8,11 -8,13 -7,12 -6,13 -6,14 -6,13 -5,14 -4,15 -4,15 -4,14 -2,16 -2,15 -2,15 -1,16 v 15 16 l 1,15 2,16 2,15 3,15 3,15 4,15 z"
   id="path103"
   inkscape:connector-curvature="0"
   style="fill:#808080;stroke:none" />
         <path
   d="m 12319,15857 192,-126 -9,-7 -10,-7 -10,-6 -10,-5 -11,-6 -12,-5 -11,-4 -12,-4 -12,-4 -12,-3 -13,-3 -13,-2 -13,-2 -13,-2 -13,-1 h -13 -13 l -13,1 -14,1 -13,1 -12,2 -13,3 -13,2 -12,4 -12,4 -12,4 -11,5 -12,5 -10,5 -11,6 -10,6 -9,7 -9,7 -9,7 -8,7 -7,8 -7,8 -6,9 -6,8 -5,9 -5,9 -3,9 -4,9 -2,9 -2,10 -1,9 -1,10 v 9 l 1,10 1,9 2,9 3,10 4,9 4,9 4,9 6,8 5,9 7,8 7,8 8,8 z"
   id="path105"
   inkscape:connector-curvature="0"
   style="fill:#000000;stroke:none" />
         <path
   d="m 11904,16191 219,-133 -6,-14 -6,-14 -6,-14 -7,-13 -8,-12 -8,-12 -8,-11 -9,-11 -10,-10 -10,-10 -10,-9 -10,-8 -11,-8 -11,-7 -11,-6 -12,-5 -12,-5 -11,-4 -12,-3 -13,-2 -12,-1 -12,-1 h -12 l -13,1 -12,2 -12,2 -12,4 -12,4 -11,5 -12,5 -11,7 -11,7 -11,8 -10,8 -10,9 -10,10 -9,11 -9,11 -8,11 -8,12 -7,13 -7,13 -7,14 -6,14 -5,14 -5,15 -4,14 -3,16 -3,15 -3,16 -1,15 -1,16 -1,16 v 16 l 1,16 1,15 2,16 3,16 3,15 4,15 z"
   id="path107"
   inkscape:connector-curvature="0"
   style="fill:#808080;stroke:none" />
         <path
   d="m 11918,16177 191,-128 -9,-7 -9,-6 -10,-6 -11,-6 -11,-6 -11,-5 -11,-4 -12,-4 -12,-4 -12,-3 -13,-3 -13,-2 -13,-2 -13,-2 -13,-1 h -13 -13 l -13,1 -13,1 -13,1 -13,2 -12,2 -13,3 -12,4 -12,3 -12,5 -11,4 -11,5 -11,6 -11,6 -10,6 -9,6 -9,7 -9,8 -8,7 -7,8 -7,8 -6,8 -6,9 -5,9 -5,9 -4,9 -3,9 -3,9 -2,10 -1,9 -1,10 v 9 l 1,10 1,9 2,10 2,9 4,9 4,9 4,9 5,9 6,9 6,8 7,8 8,8 z"
   id="path109"
   inkscape:connector-curvature="0"
   style="fill:#000000;stroke:none" />
         <path
   d="m 11487,16508 229,-139 -5,-15 -6,-14 -7,-14 -7,-14 -8,-13 -8,-13 -9,-11 -9,-12 -10,-11 -10,-10 -10,-9 -11,-9 -11,-8 -12,-7 -11,-7 -12,-6 -12,-5 -12,-4 -13,-3 -12,-3 -13,-2 -12,-1 h -13 l -13,1 -12,1 -13,3 -12,3 -13,4 -12,4 -12,6 -11,6 -12,7 -11,8 -11,9 -10,9 -10,10 -10,10 -10,11 -8,12 -9,12 -8,13 -7,14 -7,14 -7,14 -5,14 -6,15 -4,16 -4,15 -4,16 -3,16 -2,17 -2,16 -1,17 v 16 17 l 1,16 2,16 2,17 3,16 3,16 4,15 z"
   id="path111"
   inkscape:connector-curvature="0"
   style="fill:#808080;stroke:none" />
         <path
   d="m 11501,16495 203,-134 -9,-7 -10,-7 -10,-7 -10,-6 -11,-6 -12,-5 -11,-5 -12,-5 -13,-4 -12,-4 -13,-3 -13,-3 -13,-2 -14,-2 -13,-1 -13,-1 h -14 -13 l -14,1 -13,1 -14,2 -13,2 -13,3 -13,3 -12,4 -13,4 -12,5 -11,5 -12,5 -11,6 -10,6 -10,7 -10,7 -9,7 -9,8 -8,8 -8,8 -7,9 -6,9 -6,9 -5,9 -5,10 -4,9 -3,10 -3,10 -2,10 -1,10 -1,10 v 10 l 1,10 1,10 2,10 3,10 3,10 4,10 5,9 5,9 6,9 6,9 8,9 7,8 z"
   id="path113"
   inkscape:connector-curvature="0"
   style="fill:#000000;stroke:none" />
         <path
   d="m 11074,16834 222,-152 -6,-16 -6,-16 -7,-15 -7,-14 -8,-14 -8,-13 -9,-13 -9,-12 -10,-11 -10,-11 -10,-10 -11,-9 -11,-9 -11,-7 -11,-7 -12,-6 -12,-5 -12,-4 -12,-3 -13,-3 -12,-1 -12,-1 h -13 l -12,1 -13,3 -12,2 -12,4 -12,5 -12,6 -12,6 -11,7 -11,8 -11,9 -10,10 -10,10 -10,11 -9,12 -9,13 -9,13 -8,13 -7,15 -7,14 -7,16 -6,15 -5,16 -5,17 -4,17 -3,17 -3,17 -3,17 -1,18 -2,18 v 18 17 l 1,18 1,18 2,17 3,18 3,17 4,17 z"
   id="path115"
   inkscape:connector-curvature="0"
   style="fill:#808080;stroke:none" />
         <path
   d="m 11088,16819 195,-143 -9,-8 -10,-7 -10,-7 -10,-7 -11,-6 -12,-6 -11,-5 -12,-5 -13,-4 -12,-4 -13,-3 -13,-3 -13,-2 -13,-1 -13,-1 -14,-1 h -13 l -13,1 -14,1 -13,1 -13,3 -13,2 -13,4 -12,3 -12,5 -12,4 -12,5 -11,6 -11,6 -11,7 -10,7 -10,7 -9,8 -9,8 -8,9 -7,9 -7,9 -7,9 -6,10 -5,10 -5,10 -4,10 -3,11 -3,10 -2,11 -1,11 -1,10 v 11 l 1,11 1,11 2,10 3,11 3,10 4,11 5,10 5,10 6,9 6,10 7,9 8,9 z"
   id="path117"
   inkscape:connector-curvature="0"
   style="fill:#000000;stroke:none" />
         <path
   d="m 10647,17126 219,-143 -6,-15 -6,-15 -6,-14 -7,-14 -8,-13 -8,-13 -9,-12 -9,-12 -9,-11 -10,-10 -10,-10 -10,-8 -11,-9 -11,-7 -12,-6 -11,-6 -12,-5 -12,-4 -12,-3 -12,-3 -12,-1 -13,-1 h -12 l -12,1 -12,2 -12,3 -12,4 -12,4 -12,5 -11,6 -12,7 -11,8 -10,8 -11,9 -10,10 -9,11 -9,11 -9,12 -8,12 -8,13 -8,14 -7,14 -6,15 -6,15 -5,15 -5,16 -4,16 -3,16 -3,16 -3,17 -1,17 -2,17 v 17 17 l 1,17 1,17 2,16 3,17 3,16 4,16 z"
   id="path119"
   inkscape:connector-curvature="0"
   style="fill:#808080;stroke:none" />
         <path
   d="m 10660,17112 192,-136 -9,-8 -10,-7 -10,-6 -10,-7 -11,-5 -11,-6 -12,-5 -12,-4 -12,-4 -12,-4 -13,-3 -13,-2 -13,-2 -13,-2 h -13 l -13,-1 h -13 l -13,1 -13,1 -13,1 -13,2 -13,3 -12,3 -13,4 -12,4 -11,4 -12,5 -11,6 -11,6 -10,6 -10,7 -10,7 -9,7 -8,8 -8,8 -8,9 -7,8 -6,9 -6,9 -5,10 -4,9 -4,10 -4,10 -2,10 -2,10 -1,10 -1,11 v 10 l 1,10 1,10 2,10 3,10 3,10 4,10 5,10 5,9 6,9 6,9 7,9 8,8 z"
   id="path121"
   inkscape:connector-curvature="0"
   style="fill:#000000;stroke:none" />
         <path
   d="m 13971,14634 201,-132 -5,-14 -5,-13 -6,-13 -7,-13 -7,-12 -7,-12 -8,-11 -8,-11 -8,-10 -9,-9 -9,-9 -10,-8 -9,-8 -10,-7 -10,-6 -11,-5 -10,-5 -11,-4 -11,-3 -11,-2 -11,-2 -11,-1 h -11 l -11,1 -11,1 -11,2 -11,3 -11,4 -11,5 -10,5 -11,6 -10,7 -9,7 -10,8 -9,9 -9,9 -8,10 -9,11 -7,11 -8,11 -7,12 -6,13 -6,13 -6,13 -5,14 -5,14 -4,15 -3,15 -3,14 -3,16 -2,15 -1,15 -1,16 v 15 16 l 1,15 2,16 1,15 3,15 3,15 4,15 z"
   id="path123"
   inkscape:connector-curvature="0"
   style="fill:#808080;stroke:none" />
         <path
   d="m 13981,14622 176,-125 -8,-7 -8,-6 -9,-6 -10,-6 -9,-5 -10,-5 -11,-5 -10,-4 -11,-4 -11,-3 -11,-3 -12,-3 -11,-2 -12,-1 -12,-1 -12,-1 h -11 -12 l -12,1 -12,1 -12,2 -11,2 -11,3 -12,3 -11,4 -10,3 -11,5 -10,5 -10,5 -9,5 -10,6 -8,7 -9,6 -8,7 -7,7 -7,8 -7,8 -6,8 -5,8 -5,8 -5,9 -4,9 -3,9 -3,9 -2,9 -2,9 -1,10 v 9 9 l 1,10 1,9 2,9 3,9 3,9 4,9 4,9 5,9 5,8 6,8 6,8 7,8 z"
   id="path125"
   inkscape:connector-curvature="0"
   style="fill:#000000;stroke:none" />
         <path
   d="m 14381,14317 201,-132 -5,-13 -5,-14 -6,-13 -7,-13 -7,-12 -7,-12 -8,-11 -8,-11 -8,-10 -9,-9 -9,-9 -9,-8 -10,-8 -10,-7 -10,-6 -11,-5 -10,-5 -11,-4 -11,-3 -11,-2 -11,-2 -11,-1 h -11 l -11,1 -11,1 -11,2 -11,3 -11,4 -11,5 -10,5 -10,6 -10,7 -10,7 -10,8 -9,9 -9,9 -8,10 -8,10 -8,11 -8,12 -7,12 -6,13 -6,13 -6,13 -5,14 -4,14 -4,15 -4,14 -3,15 -3,15 -1,16 -2,15 -1,15 v 16 15 l 1,16 1,15 2,16 3,15 3,15 3,14 z"
   id="path127"
   inkscape:connector-curvature="0"
   style="fill:#808080;stroke:none" />
         <path
   d="m 14392,14304 177,-125 -9,-7 -8,-6 -9,-6 -9,-6 -10,-5 -10,-5 -10,-5 -11,-4 -11,-4 -11,-3 -11,-3 -12,-3 -11,-2 -12,-1 -12,-1 -12,-1 h -12 -11 l -12,1 -12,1 -12,2 -11,2 -12,3 -11,3 -11,4 -11,4 -10,4 -10,5 -10,5 -10,6 -9,5 -9,7 -8,6 -8,7 -7,8 -7,7 -7,8 -6,8 -6,8 -5,9 -4,9 -4,8 -3,9 -3,9 -2,10 -2,9 -1,9 v 10 9 l 1,9 1,10 2,9 3,9 3,9 4,9 4,9 5,8 5,9 6,8 7,8 6,7 z"
   id="path129"
   inkscape:connector-curvature="0"
   style="fill:#000000;stroke:none" />
         <path
   d="m 14805,13999 201,-132 -5,-14 -5,-13 -6,-13 -7,-13 -7,-12 -7,-12 -8,-11 -8,-11 -8,-10 -9,-9 -9,-9 -10,-8 -9,-8 -10,-7 -10,-6 -11,-5 -10,-5 -11,-4 -11,-3 -11,-2 -11,-2 -11,-1 h -11 l -11,1 -11,1 -11,2 -11,3 -11,4 -11,5 -10,5 -11,6 -10,7 -9,7 -10,8 -9,9 -9,9 -8,10 -9,11 -7,11 -8,11 -7,12 -6,13 -6,13 -6,13 -5,14 -5,14 -4,15 -3,15 -3,14 -3,16 -2,15 -1,15 -1,16 v 15 16 l 1,15 2,16 1,15 3,15 3,15 4,15 z"
   id="path131"
   inkscape:connector-curvature="0"
   style="fill:#808080;stroke:none" />
         <path
   d="m 14815,13986 177,-124 -8,-7 -9,-7 -9,-6 -9,-6 -10,-5 -10,-5 -10,-5 -11,-4 -10,-4 -11,-3 -12,-3 -11,-3 -12,-2 -12,-1 -11,-1 -12,-1 h -12 -12 l -12,1 -12,1 -11,2 -12,2 -11,3 -11,3 -11,3 -11,4 -11,5 -10,5 -10,5 -9,5 -10,6 -8,7 -9,6 -8,7 -7,7 -7,8 -7,8 -6,8 -5,8 -5,9 -5,8 -4,9 -3,9 -3,9 -2,10 -2,9 -1,9 v 10 9 l 1,9 1,10 2,9 3,9 3,9 4,9 4,9 5,8 5,9 6,8 7,8 6,7 z"
   id="path133"
   inkscape:connector-curvature="0"
   style="fill:#000000;stroke:none" />
         <path
   d="m 10197,16213 v 62 l 5166,-2714 v -62 z"
   id="path135"
   inkscape:connector-curvature="0"
   style="fill:#800000;stroke:none" />
         <path
   d="m 5953,14095 5237,-2079 4182,1479 -5170,2714 z"
   id="path137"
   inkscape:connector-curvature="0"
   style="fill:#ff0000;stroke:none" />
         <path
   d="m 5874,14143 -146,-145 18,-13 132,128 75,-14 4244,2114 v 62 L 5936,14152 Z"
   id="path139"
   inkscape:connector-curvature="0"
   style="fill:#800000;stroke:none" />
         <path
   d="m 15324,14841 v 39 l -5127,2873 v -66 z"
   id="path141"
   inkscape:connector-curvature="0"
   style="fill:#800000;stroke:none" />
         <path
   d="m 5869,15511 -119,5 5,26 123,-4 80,71 4239,2135 v -57 z"
   id="path143"
   inkscape:connector-curvature="0"
   style="fill:#800000;stroke:none" />
         <path
   d="m 15041,14589 -2011,1139 2011,-1117 z"
   id="path145"
   inkscape:connector-curvature="0"
   style="fill:#3f3f3f;stroke:none" />
         <path
   d="m 14000,15291 1050,-583 5,31 z"
   id="path147"
   inkscape:connector-curvature="0"
   style="fill:#3f3f3f;stroke:none" />
         <path
   d="m 14075,14523 1010,-538 v 22 z"
   id="path149"
   inkscape:connector-curvature="0"
   style="fill:#3f3f3f;stroke:none" />
         <path
   d="m 5803,13998 5193,-2030 106,57 -5197,2070 z"
   id="path151"
   inkscape:connector-curvature="0"
   style="fill:#ff0000;stroke:none" />
        </g>
        <g
   clip-path="url(#clip_path_1)"
   id="g155" />
       </g>
      </g>
     </g>
    </g>
   </g>
  </g>
 </g>
</svg>