<?xml version="1.0" encoding="UTF-8" standalone="no"?>
<svg
   xmlns:ooo="http://xml.openoffice.org/svg/export"
   xmlns:dc="http://purl.org/dc/elements/1.1/"
   xmlns:cc="http://creativecommons.org/ns#"
   xmlns:rdf="http://www.w3.org/1999/02/22-rdf-syntax-ns#"
   xmlns:svg="http://www.w3.org/2000/svg"
   xmlns="http://www.w3.org/2000/svg"
   xmlns:sodipodi="http://sodipodi.sourceforge.net/DTD/sodipodi-0.dtd"
   xmlns:inkscape="http://www.inkscape.org/namespaces/inkscape"
   version="1.2"
   width="128.10001mm"
   height="93.620003mm"
   viewBox="0 0 12810.001 9362.0003"
   preserveAspectRatio="xMidYMid"
   xml:space="preserve"
   id="svg291"
   sodipodi:docname="boxradio.svg"
   style="fill-rule:evenodd;stroke-width:28.22200012;stroke-linejoin:round"
   inkscape:version="0.92.5 (2060ec1f9f, 2020-04-08)"><metadata
   id="metadata295"><rdf:RDF><cc:Work
       rdf:about=""><dc:format>image/svg+xml</dc:format><dc:type
         rdf:resource="http://purl.org/dc/dcmitype/StillImage" /></cc:Work></rdf:RDF></metadata><sodipodi:namedview
   pagecolor="#ffffff"
   bordercolor="#666666"
   borderopacity="1"
   objecttolerance="10"
   gridtolerance="10"
   guidetolerance="10"
   inkscape:pageopacity="0"
   inkscape:pageshadow="2"
   inkscape:window-width="664"
   inkscape:window-height="487"
   id="namedview293"
   showgrid="false"
   inkscape:zoom="0.2102413"
   inkscape:cx="242.07874"
   inkscape:cy="176.91968"
   inkscape:window-x="0"
   inkscape:window-y="0"
   inkscape:window-maximized="0"
   inkscape:current-layer="svg291" />
 <defs
   class="ClipPathGroup"
   id="defs8">
  <clipPath
   id="presentation_clip_path"
   clipPathUnits="userSpaceOnUse">
   <rect
   x="0"
   y="0"
   width="21000"
   height="29700"
   id="rect2" />
  </clipPath>
  <clipPath
   id="presentation_clip_path_shrink"
   clipPathUnits="userSpaceOnUse">
   <rect
   x="21"
   y="29"
   width="20958"
   height="29641"
   id="rect5" />
  </clipPath>
 </defs>
 <defs
   class="TextShapeIndex"
   id="defs12">
  <g
   ooo:slide="id1"
   ooo:id-list="id3"
   id="g10" />
 </defs>
 <defs
   class="EmbeddedBulletChars"
   id="defs44">
  <g
   id="bullet-char-template-57356"
   transform="matrix(4.8828125e-4,0,0,-4.8828125e-4,0,0)">
   <path
   d="M 580,1141 1163,571 580,0 -4,571 Z"
   id="path14"
   inkscape:connector-curvature="0" />
  </g>
  <g
   id="bullet-char-template-57354"
   transform="matrix(4.8828125e-4,0,0,-4.8828125e-4,0,0)">
   <path
   d="M 8,1128 H 1137 V 0 H 8 Z"
   id="path17"
   inkscape:connector-curvature="0" />
  </g>
  <g
   id="bullet-char-template-10146"
   transform="matrix(4.8828125e-4,0,0,-4.8828125e-4,0,0)">
   <path
   d="M 174,0 602,739 174,1481 1456,739 Z M 1358,739 309,1346 659,739 Z"
   id="path20"
   inkscape:connector-curvature="0" />
  </g>
  <g
   id="bullet-char-template-10132"
   transform="matrix(4.8828125e-4,0,0,-4.8828125e-4,0,0)">
   <path
   d="M 2015,739 1276,0 H 717 l 543,543 H 174 v 393 h 1086 l -543,545 h 557 z"
   id="path23"
   inkscape:connector-curvature="0" />
  </g>
  <g
   id="bullet-char-template-10007"
   transform="matrix(4.8828125e-4,0,0,-4.8828125e-4,0,0)">
   <path
   d="m 0,-2 c -7,16 -16,29 -25,39 l 381,530 c -94,256 -141,385 -141,387 0,25 13,38 40,38 9,0 21,-2 34,-5 21,4 42,12 65,25 l 27,-13 111,-251 280,301 64,-25 24,25 c 21,-10 41,-24 62,-43 C 886,937 835,863 770,784 769,783 710,716 594,584 L 774,223 c 0,-27 -21,-55 -63,-84 l 16,-20 C 717,90 699,76 672,76 641,76 570,178 457,381 L 164,-76 c -22,-34 -53,-51 -92,-51 -42,0 -63,17 -64,51 -7,9 -10,24 -10,44 0,9 1,19 2,30 z"
   id="path26"
   inkscape:connector-curvature="0" />
  </g>
  <g
   id="bullet-char-template-10004"
   transform="matrix(4.8828125e-4,0,0,-4.8828125e-4,0,0)">
   <path
   d="M 285,-33 C 182,-33 111,30 74,156 52,228 41,333 41,471 c 0,78 14,145 41,201 34,71 87,106 158,106 53,0 88,-31 106,-94 l 23,-176 c 8,-64 28,-97 59,-98 l 735,706 c 11,11 33,17 66,17 42,0 63,-15 63,-46 V 965 c 0,-36 -10,-64 -30,-84 L 442,47 C 390,-6 338,-33 285,-33 Z"
   id="path29"
   inkscape:connector-curvature="0" />
  </g>
  <g
   id="bullet-char-template-9679"
   transform="matrix(4.8828125e-4,0,0,-4.8828125e-4,0,0)">
   <path
   d="M 813,0 C 632,0 489,54 383,161 276,268 223,411 223,592 c 0,181 53,324 160,431 106,107 249,161 430,161 179,0 323,-54 432,-161 108,-107 162,-251 162,-431 0,-180 -54,-324 -162,-431 C 1136,54 992,0 813,0 Z"
   id="path32"
   inkscape:connector-curvature="0" />
  </g>
  <g
   id="bullet-char-template-8226"
   transform="matrix(4.8828125e-4,0,0,-4.8828125e-4,0,0)">
   <path
   d="m 346,457 c -73,0 -137,26 -191,78 -54,51 -81,114 -81,188 0,73 27,136 81,188 54,52 118,78 191,78 73,0 134,-26 185,-79 51,-51 77,-114 77,-187 0,-75 -25,-137 -76,-188 -50,-52 -112,-78 -186,-78 z"
   id="path35"
   inkscape:connector-curvature="0" />
  </g>
  <g
   id="bullet-char-template-8211"
   transform="matrix(4.8828125e-4,0,0,-4.8828125e-4,0,0)">
   <path
   d="M -4,459 H 1135 V 606 H -4 Z"
   id="path38"
   inkscape:connector-curvature="0" />
  </g>
  <g
   id="bullet-char-template-61548"
   transform="matrix(4.8828125e-4,0,0,-4.8828125e-4,0,0)">
   <path
   d="m 173,740 c 0,163 58,303 173,419 116,115 255,173 419,173 163,0 302,-58 418,-173 116,-116 174,-256 174,-419 0,-163 -58,-303 -174,-418 C 1067,206 928,148 765,148 601,148 462,206 346,322 231,437 173,577 173,740 Z"
   id="path41"
   inkscape:connector-curvature="0" />
  </g>
 </defs>
 <g
   id="g49"
   transform="translate(-4095,-10169)">
  <g
   id="id2"
   class="Master_Slide">
   <g
   id="bg-id2"
   class="Background" />
   <g
   id="bo-id2"
   class="BackgroundObjects" />
  </g>
 </g>
 <g
   class="SlideGroup"
   id="g289"
   transform="translate(-4095,-10169)">
  <g
   id="g287">
   <g
   id="container-id1">
    <g
   id="id1"
   class="Slide"
   clip-path="url(#presentation_clip_path)">
     <g
   class="Page"
   id="g283">
      <g
   class="Graphic"
   id="g281">
       <g
   id="id3">
        <rect
   class="BoundingBox"
   x="4095"
   y="10169"
   width="12810"
   height="9362"
   id="rect51"
   style="fill:none;stroke:none" />
        <defs
   id="defs56">
         <clipPath
   id="clip_path_1"
   clipPathUnits="userSpaceOnUse">
          <path
   d="m 4095,10178 h 12805 v 9352 H 4095 Z"
   id="path53"
   inkscape:connector-curvature="0" />
         </clipPath>
        </defs>
        <g
   clip-path="url(#clip_path_1)"
   id="g278">
         <path
   d="m 9781,10178 3282,1694 79,-40 3560,1844 h -379 l -3260,-1672 -40,-79 -3264,-1721 z"
   id="path58"
   inkscape:connector-curvature="0"
   style="fill:#a0a0a0;stroke:none" />
         <path
   d="m 16454,13553 c 0,32 -9,64 -27,93 -17,28 -42,51 -72,67 -30,16 -64,25 -99,25 -35,0 -69,-9 -99,-25 -30,-16 -55,-39 -72,-67 -18,-29 -27,-61 -27,-93 0,-32 9,-64 27,-92 17,-29 42,-52 72,-68 30,-16 64,-25 99,-25 35,0 69,9 99,25 30,16 55,39 72,68 18,28 27,60 27,92 z"
   id="path60"
   inkscape:connector-curvature="0"
   style="fill:#808080;stroke:none" />
         <path
   d="m 14616,13121 h 1358 v 515 h -1358 z"
   id="path62"
   inkscape:connector-curvature="0"
   style="fill:#c0c0c0;stroke:none" />
         <path
   d="m 13222,13323 h 458 v 286 h -458 z"
   id="path64"
   inkscape:connector-curvature="0"
   style="fill:#c0c0c0;stroke:none" />
         <path
   d="m 12176,13323 h 458 v 286 h -458 z"
   id="path66"
   inkscape:connector-curvature="0"
   style="fill:#c0c0c0;stroke:none" />
         <path
   d="m 11135,13323 h 453 v 286 h -453 z"
   id="path68"
   inkscape:connector-curvature="0"
   style="fill:#c0c0c0;stroke:none" />
         <path
   d="m 10094,13323 h 458 v 286 h -458 z"
   id="path70"
   inkscape:connector-curvature="0"
   style="fill:#c0c0c0;stroke:none" />
         <path
   d="m 9053,13323 h 453 v 286 h -453 z"
   id="path72"
   inkscape:connector-curvature="0"
   style="fill:#c0c0c0;stroke:none" />
         <path
   d="m 8003,13323 h 458 v 286 h -458 z"
   id="path74"
   inkscape:connector-curvature="0"
   style="fill:#c0c0c0;stroke:none" />
         <path
   d="m 6561,13323 h 458 v 286 h -458 z"
   id="path76"
   inkscape:connector-curvature="0"
   style="fill:#c0c0c0;stroke:none" />
         <path
   d="m 6005,13323 h 458 v 286 h -458 z"
   id="path78"
   inkscape:connector-curvature="0"
   style="fill:#c0c0c0;stroke:none" />
         <path
   d="m 4646,13323 h 458 v 286 h -458 z"
   id="path80"
   inkscape:connector-curvature="0"
   style="fill:#c0c0c0;stroke:none" />
         <path
   d="m 5154,13323 h 453 v 286 h -453 z"
   id="path82"
   inkscape:connector-curvature="0"
   style="fill:#c0c0c0;stroke:none" />
         <path
   d="m 4117,13548 h 12760 v 5959 H 4117 Z"
   id="path84"
   inkscape:connector-curvature="0"
   style="fill:#c0c0c0;stroke:none" />
         <path
   d="m 4117,13548 h 12760 v 5959 H 4117 Z"
   id="path86"
   inkscape:connector-curvature="0"
   style="fill:none;stroke:#000000;stroke-width:31;stroke-linecap:round;stroke-linejoin:round" />
         <path
   d="m 4117,15057 h 12760 v 4451 H 4117 Z"
   id="path88"
   inkscape:connector-curvature="0"
   style="fill:#a0a0a0;stroke:none" />
         <path
   d="m 4117,15057 h 12760 v 4451 H 4117 Z"
   id="path90"
   inkscape:connector-curvature="0"
   style="fill:none;stroke:#000000;stroke-width:31;stroke-linecap:round;stroke-linejoin:round" />
         <path
   d="m 4117,12048 h 12760 v 643 H 4117 Z"
   id="path92"
   inkscape:connector-curvature="0"
   style="fill:#808080;stroke:none" />
         <path
   d="m 4117,12048 h 12760 v 643 H 4117 Z"
   id="path94"
   inkscape:connector-curvature="0"
   style="fill:none;stroke:#000000;stroke-width:31;stroke-linecap:round;stroke-linejoin:round" />
         <path
   d="m 4117,12057 h 347 v 1526 h -347 z"
   id="path96"
   inkscape:connector-curvature="0"
   style="fill:#a0a0a0;stroke:none" />
         <path
   d="m 4117,12057 h 347 v 1526 h -347 z"
   id="path98"
   inkscape:connector-curvature="0"
   style="fill:none;stroke:#000000;stroke-width:31;stroke-linecap:round;stroke-linejoin:round" />
         <path
   d="m 16530,12062 h 343 v 1526 h -343 z"
   id="path100"
   inkscape:connector-curvature="0"
   style="fill:#a0a0a0;stroke:none" />
         <path
   d="m 16530,12062 h 343 v 1526 h -343 z"
   id="path102"
   inkscape:connector-curvature="0"
   style="fill:none;stroke:#000000;stroke-width:31;stroke-linecap:round;stroke-linejoin:round" />
         <path
   d="m 4492,13826 h 1287 v 965 H 4492 Z"
   id="path104"
   inkscape:connector-curvature="0"
   style="fill:#e0e0e0;stroke:none" />
         <path
   d="m 4598,14043 176,511"
   id="path106"
   inkscape:connector-curvature="0"
   style="fill:none;stroke:#000000;stroke-width:31;stroke-linecap:round;stroke-linejoin:round" />
         <path
   d="m 4699,14038 150,516"
   id="path108"
   inkscape:connector-curvature="0"
   style="fill:none;stroke:#000000;stroke-width:31;stroke-linecap:round;stroke-linejoin:round" />
         <path
   d="m 4810,14038 101,512"
   id="path110"
   inkscape:connector-curvature="0"
   style="fill:none;stroke:#000000;stroke-width:31;stroke-linecap:round;stroke-linejoin:round" />
         <path
   d="m 4915,14034 71,520"
   id="path112"
   inkscape:connector-curvature="0"
   style="fill:none;stroke:#000000;stroke-width:31;stroke-linecap:round;stroke-linejoin:round" />
         <path
   d="m 5021,14034 27,520"
   id="path114"
   inkscape:connector-curvature="0"
   style="fill:none;stroke:#000000;stroke-width:31;stroke-linecap:round;stroke-linejoin:round" />
         <path
   d="m 5123,14034 -5,520"
   id="path116"
   inkscape:connector-curvature="0"
   style="fill:none;stroke:#000000;stroke-width:31;stroke-linecap:round;stroke-linejoin:round" />
         <path
   d="m 5652,14043 -176,511"
   id="path118"
   inkscape:connector-curvature="0"
   style="fill:none;stroke:#000000;stroke-width:31;stroke-linecap:round;stroke-linejoin:round" />
         <path
   d="m 5551,14038 -150,516"
   id="path120"
   inkscape:connector-curvature="0"
   style="fill:none;stroke:#000000;stroke-width:31;stroke-linecap:round;stroke-linejoin:round" />
         <path
   d="m 5440,14038 -101,512"
   id="path122"
   inkscape:connector-curvature="0"
   style="fill:none;stroke:#000000;stroke-width:31;stroke-linecap:round;stroke-linejoin:round" />
         <path
   d="m 5335,14034 -71,520"
   id="path124"
   inkscape:connector-curvature="0"
   style="fill:none;stroke:#000000;stroke-width:31;stroke-linecap:round;stroke-linejoin:round" />
         <path
   d="m 5229,14034 -27,520"
   id="path126"
   inkscape:connector-curvature="0"
   style="fill:none;stroke:#000000;stroke-width:31;stroke-linecap:round;stroke-linejoin:round" />
         <path
   d="m 4858,13928 132,869"
   id="path128"
   inkscape:connector-curvature="0"
   style="fill:none;stroke:#ff0000;stroke-width:66;stroke-linecap:round;stroke-linejoin:round" />
         <path
   d="m 4474,13809 h 1318 v 996 H 4474 Z"
   id="path130"
   inkscape:connector-curvature="0"
   style="fill:none;stroke:#000000;stroke-width:31;stroke-linecap:round;stroke-linejoin:round" />
         <path
   d="m 5939,13826 h 1291 v 965 H 5939 Z"
   id="path132"
   inkscape:connector-curvature="0"
   style="fill:#e0e0e0;stroke:none" />
         <path
   d="m 6045,14043 176,511"
   id="path134"
   inkscape:connector-curvature="0"
   style="fill:none;stroke:#000000;stroke-width:31;stroke-linecap:round;stroke-linejoin:round" />
         <path
   d="m 6146,14038 150,516"
   id="path136"
   inkscape:connector-curvature="0"
   style="fill:none;stroke:#000000;stroke-width:31;stroke-linecap:round;stroke-linejoin:round" />
         <path
   d="m 6256,14038 102,512"
   id="path138"
   inkscape:connector-curvature="0"
   style="fill:none;stroke:#000000;stroke-width:31;stroke-linecap:round;stroke-linejoin:round" />
         <path
   d="m 6362,14034 71,520"
   id="path140"
   inkscape:connector-curvature="0"
   style="fill:none;stroke:#000000;stroke-width:31;stroke-linecap:round;stroke-linejoin:round" />
         <path
   d="m 6468,14034 27,520"
   id="path142"
   inkscape:connector-curvature="0"
   style="fill:none;stroke:#000000;stroke-width:31;stroke-linecap:round;stroke-linejoin:round" />
         <path
   d="m 6570,14034 -5,520"
   id="path144"
   inkscape:connector-curvature="0"
   style="fill:none;stroke:#000000;stroke-width:31;stroke-linecap:round;stroke-linejoin:round" />
         <path
   d="m 7103,14043 -176,511"
   id="path146"
   inkscape:connector-curvature="0"
   style="fill:none;stroke:#000000;stroke-width:31;stroke-linecap:round;stroke-linejoin:round" />
         <path
   d="m 7002,14038 -150,516"
   id="path148"
   inkscape:connector-curvature="0"
   style="fill:none;stroke:#000000;stroke-width:31;stroke-linecap:round;stroke-linejoin:round" />
         <path
   d="m 6892,14038 -102,512"
   id="path150"
   inkscape:connector-curvature="0"
   style="fill:none;stroke:#000000;stroke-width:31;stroke-linecap:round;stroke-linejoin:round" />
         <path
   d="m 6786,14034 -71,520"
   id="path152"
   inkscape:connector-curvature="0"
   style="fill:none;stroke:#000000;stroke-width:31;stroke-linecap:round;stroke-linejoin:round" />
         <path
   d="m 6680,14034 -27,520"
   id="path154"
   inkscape:connector-curvature="0"
   style="fill:none;stroke:#000000;stroke-width:31;stroke-linecap:round;stroke-linejoin:round" />
         <path
   d="m 6305,13928 132,869"
   id="path156"
   inkscape:connector-curvature="0"
   style="fill:none;stroke:#ff0000;stroke-width:66;stroke-linecap:round;stroke-linejoin:round" />
         <path
   d="m 5921,13809 h 1322 v 996 H 5921 Z"
   id="path158"
   inkscape:connector-curvature="0"
   style="fill:none;stroke:#000000;stroke-width:31;stroke-linecap:round;stroke-linejoin:round" />
         <path
   d="m 8497,15247 h 4031 v 3189 H 8497 Z"
   id="path160"
   inkscape:connector-curvature="0"
   style="fill:#606060;stroke:none" />
         <path
   d="m 8497,15247 h 4031 v 3189 H 8497 Z"
   id="path162"
   inkscape:connector-curvature="0"
   style="fill:none;stroke:#000000;stroke-width:31;stroke-linecap:round;stroke-linejoin:round" />
         <path
   d="m 8581,15371 h 3868 v 590 H 8581 Z"
   id="path164"
   inkscape:connector-curvature="0"
   style="fill:#404040;stroke:none" />
         <path
   d="m 10209,17841 h 304 v -97 l 291,181 -291,163 v -88 h -304 z"
   id="path166"
   inkscape:connector-curvature="0"
   style="fill:#606060;stroke:none" />
         <path
   d="m 10209,17841 h 304 v -97 l 291,181 -291,163 v -88 h -304 z"
   id="path168"
   inkscape:connector-curvature="0"
   style="fill:none;stroke:#e0e0e0;stroke-width:31;stroke-linecap:round;stroke-linejoin:round" />
         <path
   d="m 9084,16399 h 2862 v 1150 H 9084 Z"
   id="path170"
   inkscape:connector-curvature="0"
   style="fill:#404040;stroke:none" />
         <path
   d="m 9084,16399 h 2822 v 1102 H 9084 Z"
   id="path172"
   inkscape:connector-curvature="0"
   style="fill:#000000;stroke:none" />
         <path
   d="m 9992,16954 c 0,23 -6,46 -18,66 -11,20 -28,37 -48,48 -20,12 -43,18 -66,18 -23,0 -46,-6 -66,-18 -20,-11 -37,-28 -48,-48 -12,-20 -18,-43 -18,-66 0,-23 6,-46 18,-66 11,-20 28,-37 48,-48 20,-12 43,-18 66,-18 23,0 46,6 66,18 20,11 37,28 48,48 12,20 18,43 18,66 z"
   id="path174"
   inkscape:connector-curvature="0"
   style="fill:#a0a0a0;stroke:none" />
         <path
   d="m 11289,16954 c 0,23 -6,46 -18,66 -11,20 -28,37 -48,48 -20,12 -43,18 -66,18 -23,0 -46,-6 -66,-18 -20,-11 -37,-28 -48,-48 -12,-20 -18,-43 -18,-66 0,-23 6,-46 18,-66 11,-20 28,-37 48,-48 20,-12 43,-18 66,-18 23,0 46,6 66,18 20,11 37,28 48,48 12,20 18,43 18,66 z"
   id="path176"
   inkscape:connector-curvature="0"
   style="fill:#a0a0a0;stroke:none" />
         <path
   d="m 8568,18574 h 3898 v 683 H 8568 Z"
   id="path178"
   inkscape:connector-curvature="0"
   style="fill:#606060;stroke:none" />
         <path
   d="m 8568,18574 h 3898 v 683 H 8568 Z"
   id="path180"
   inkscape:connector-curvature="0"
   style="fill:none;stroke:#000000;stroke-width:31;stroke-linecap:round;stroke-linejoin:round" />
         <path
   d="m 8877,18693 h 352 v 445 h -352 z"
   id="path182"
   inkscape:connector-curvature="0"
   style="fill:#a0a0a0;stroke:none" />
         <path
   d="m 8877,18878 h 352 v 259 h -352 z"
   id="path184"
   inkscape:connector-curvature="0"
   style="fill:#404040;stroke:none" />
         <path
   d="m 9609,18693 h 352 v 445 h -352 z"
   id="path186"
   inkscape:connector-curvature="0"
   style="fill:#a0a0a0;stroke:none" />
         <path
   d="m 9609,18878 h 352 v 259 h -352 z"
   id="path188"
   inkscape:connector-curvature="0"
   style="fill:#404040;stroke:none" />
         <path
   d="m 10341,18693 h 352 v 445 h -352 z"
   id="path190"
   inkscape:connector-curvature="0"
   style="fill:#a0a0a0;stroke:none" />
         <path
   d="m 10341,18878 h 352 v 259 h -352 z"
   id="path192"
   inkscape:connector-curvature="0"
   style="fill:#404040;stroke:none" />
         <path
   d="m 11073,18693 h 352 v 445 h -352 z"
   id="path194"
   inkscape:connector-curvature="0"
   style="fill:#a0a0a0;stroke:none" />
         <path
   d="m 11073,18878 h 352 v 259 h -352 z"
   id="path196"
   inkscape:connector-curvature="0"
   style="fill:#404040;stroke:none" />
         <path
   d="m 11792,18693 h 352 v 445 h -352 z"
   id="path198"
   inkscape:connector-curvature="0"
   style="fill:#a0a0a0;stroke:none" />
         <path
   d="m 11792,18878 h 352 v 259 h -352 z"
   id="path200"
   inkscape:connector-curvature="0"
   style="fill:#404040;stroke:none" />
         <path
   d="m 12586,18622 h 330 v 595 h -330 z"
   id="path202"
   inkscape:connector-curvature="0"
   style="fill:#808080;stroke:none" />
         <path
   d="m 12586,18830 h 330 v 387 h -330 z"
   id="path204"
   inkscape:connector-curvature="0"
   style="fill:#404040;stroke:none" />
         <path
   d="m 8324,17307 c 0,351 -92,695 -266,999 -175,304 -426,556 -728,731 -303,176 -646,268 -995,268 -349,0 -692,-92 -994,-268 -303,-175 -554,-427 -729,-731 -174,-304 -266,-648 -266,-999 0,-351 92,-695 266,-999 175,-304 426,-556 728,-731 303,-176 646,-268 995,-268 349,0 692,92 994,268 303,175 554,427 729,731 174,304 266,648 266,999 z"
   id="path206"
   inkscape:connector-curvature="0"
   style="fill:#000000;stroke:none" />
         <path
   d="m 8320,17303 -3,-101 -7,-101 -13,-101 -18,-99 -22,-99 -28,-97 -33,-96 -37,-94 -42,-92 -47,-90 -51,-87 -56,-85 -59,-82 -64,-78 -67,-75 -72,-72 -74,-68 -79,-64 -81,-60 -84,-55 -87,-52 -89,-47 -92,-42 -93,-38 -96,-32 -96,-28 -99,-23 -99,-18 -100,-13 -100,-7 -101,-3 v 0 l -101,3 -100,7 -100,13 -99,18 -99,23 -96,28 -96,32 -93,38 -92,42 -89,47 -87,52 -84,55 -81,60 -79,64 -74,68 -72,72 -67,75 -64,78 -59,82 -56,85 -51,87 -47,90 -42,92 -37,94 -33,96 -28,97 -22,99 -18,99 -13,101 -7,101 -3,101 v 0 l 3,101 7,101 13,101 18,99 22,99 28,97 33,96 37,94 42,92 47,90 51,87 56,85 59,82 64,78 67,75 72,72 74,68 79,64 81,60 84,55 87,52 89,47 92,42 93,38 96,32 96,28 99,23 99,18 100,13 100,7 101,3 v 0 l 101,-3 100,-7 100,-13 99,-18 99,-23 96,-28 96,-32 93,-38 92,-42 89,-47 87,-52 84,-55 81,-60 79,-64 74,-68 72,-72 67,-75 64,-78 59,-82 56,-85 51,-87 47,-90 42,-92 37,-94 33,-96 28,-97 22,-99 18,-99 13,-101 7,-101 z"
   id="path208"
   inkscape:connector-curvature="0"
   style="fill:none;stroke:#a0a0a0;stroke-width:66;stroke-linecap:round;stroke-linejoin:round" />
         <path
   d="m 7813,17308 c 0,260 -68,517 -198,743 -129,226 -315,413 -539,544 -225,130 -479,199 -738,199 -259,0 -513,-69 -737,-199 -225,-131 -411,-318 -540,-544 -130,-226 -198,-483 -198,-743 0,-261 68,-518 198,-744 129,-226 315,-413 539,-544 225,-130 479,-199 738,-199 259,0 513,69 737,199 225,131 411,318 540,544 130,226 198,483 198,744 z"
   id="path210"
   inkscape:connector-curvature="0"
   style="fill:#606060;stroke:none" />
         <path
   d="m 7809,17303 -2,-75 -6,-75 -9,-75 -13,-74 -17,-74 -21,-72 -24,-71 -27,-70 -32,-69 -34,-67 -38,-65 -41,-62 -44,-61 -47,-59 -50,-55 -53,-54 -56,-50 -57,-48 -61,-44 -62,-42 -64,-38 -66,-35 -68,-31 -69,-28 -71,-25 -72,-21 -72,-17 -74,-13 -74,-9 -74,-6 -75,-2 v 0 l -75,2 -74,6 -74,9 -74,13 -72,17 -72,21 -71,25 -69,28 -68,31 -66,35 -64,38 -62,42 -61,44 -57,48 -56,50 -53,54 -50,55 -47,59 -44,61 -41,62 -38,65 -34,67 -32,69 -27,70 -24,71 -21,72 -17,74 -13,74 -9,75 -6,75 -2,75 v 0 l 2,75 6,75 9,75 13,74 17,74 21,72 24,71 27,70 32,69 34,67 38,65 41,62 44,61 47,59 50,55 53,54 56,50 57,48 61,44 62,42 64,38 66,35 68,31 69,28 71,25 72,21 72,17 74,13 74,9 74,6 75,2 v 0 l 75,-2 74,-6 74,-9 74,-13 72,-17 72,-21 71,-25 69,-28 68,-31 66,-35 64,-38 62,-42 61,-44 57,-48 56,-50 53,-54 50,-55 47,-59 44,-61 41,-62 38,-65 34,-67 32,-69 27,-70 24,-71 21,-72 17,-74 13,-74 9,-75 6,-75 z"
   id="path212"
   inkscape:connector-curvature="0"
   style="fill:none;stroke:#a0a0a0;stroke-width:66;stroke-linecap:round;stroke-linejoin:round" />
         <path
   d="m 16653,17307 c 0,351 -92,695 -266,999 -175,304 -426,556 -728,731 -303,176 -646,268 -995,268 -349,0 -692,-92 -994,-268 -303,-175 -554,-427 -729,-731 -174,-304 -266,-648 -266,-999 0,-351 92,-695 266,-999 175,-304 426,-556 728,-731 303,-176 646,-268 995,-268 349,0 692,92 994,268 303,175 554,427 729,731 174,304 266,648 266,999 z"
   id="path214"
   inkscape:connector-curvature="0"
   style="fill:#000000;stroke:none" />
         <path
   d="m 16649,17303 -3,-101 -7,-101 -13,-101 -18,-99 -22,-99 -28,-97 -33,-96 -37,-94 -42,-92 -47,-90 -51,-87 -56,-85 -59,-82 -64,-78 -67,-75 -72,-72 -74,-68 -79,-64 -81,-60 -84,-55 -87,-52 -89,-47 -92,-42 -93,-38 -96,-32 -96,-28 -99,-23 -99,-18 -100,-13 -100,-7 -101,-3 v 0 l -101,3 -100,7 -100,13 -99,18 -99,23 -96,28 -96,32 -93,38 -92,42 -89,47 -87,52 -84,55 -81,60 -79,64 -74,68 -72,72 -67,75 -64,78 -59,82 -56,85 -51,87 -47,90 -42,92 -37,94 -33,96 -28,97 -22,99 -18,99 -13,101 -7,101 -3,101 v 0 l 3,101 7,101 13,101 18,99 22,99 28,97 33,96 37,94 42,92 47,90 51,87 56,85 59,82 64,78 67,75 72,72 74,68 79,64 81,60 84,55 87,52 89,47 92,42 93,38 96,32 96,28 99,23 99,18 100,13 100,7 101,3 v 0 l 101,-3 100,-7 100,-13 99,-18 99,-23 96,-28 96,-32 93,-38 92,-42 89,-47 87,-52 84,-55 81,-60 79,-64 74,-68 72,-72 67,-75 64,-78 59,-82 56,-85 51,-87 47,-90 42,-92 37,-94 33,-96 28,-97 22,-99 18,-99 13,-101 7,-101 z"
   id="path216"
   inkscape:connector-curvature="0"
   style="fill:none;stroke:#a0a0a0;stroke-width:66;stroke-linecap:round;stroke-linejoin:round" />
         <path
   d="m 16141,17308 c 0,260 -68,517 -198,743 -129,226 -315,413 -539,544 -225,130 -479,199 -738,199 -259,0 -513,-69 -737,-199 -225,-131 -411,-318 -540,-544 -130,-226 -198,-483 -198,-743 0,-261 68,-518 198,-744 129,-226 315,-413 539,-544 225,-130 479,-199 738,-199 259,0 513,69 737,199 225,131 411,318 540,544 130,226 198,483 198,744 z"
   id="path218"
   inkscape:connector-curvature="0"
   style="fill:#606060;stroke:none" />
         <path
   d="m 16137,17303 -2,-75 -6,-75 -9,-75 -13,-74 -17,-74 -21,-72 -24,-71 -27,-70 -32,-69 -34,-67 -38,-65 -41,-62 -44,-61 -47,-59 -50,-55 -53,-54 -56,-50 -57,-48 -61,-44 -62,-42 -64,-38 -66,-35 -68,-31 -69,-28 -71,-25 -72,-21 -72,-17 -74,-13 -74,-9 -74,-6 -75,-2 v 0 l -75,2 -74,6 -74,9 -74,13 -72,17 -72,21 -71,25 -69,28 -68,31 -66,35 -64,38 -62,42 -61,44 -57,48 -56,50 -53,54 -50,55 -47,59 -44,61 -41,62 -38,65 -34,67 -32,69 -27,70 -24,71 -21,72 -17,74 -13,74 -9,75 -6,75 -2,75 v 0 l 2,75 6,75 9,75 13,74 17,74 21,72 24,71 27,70 32,69 34,67 38,65 41,62 44,61 47,59 50,55 53,54 56,50 57,48 61,44 62,42 64,38 66,35 68,31 69,28 71,25 72,21 72,17 74,13 74,9 74,6 75,2 v 0 l 75,-2 74,-6 74,-9 74,-13 72,-17 72,-21 71,-25 69,-28 68,-31 66,-35 64,-38 62,-42 61,-44 57,-48 56,-50 53,-54 50,-55 47,-59 44,-61 41,-62 38,-65 34,-67 32,-69 27,-70 24,-71 21,-72 17,-74 13,-74 9,-75 6,-75 z"
   id="path220"
   inkscape:connector-curvature="0"
   style="fill:none;stroke:#a0a0a0;stroke-width:66;stroke-linecap:round;stroke-linejoin:round" />
         <path
   d="m 4831,15510 c 0,50 -14,100 -39,144 -26,44 -63,80 -107,105 -45,26 -96,39 -147,39 -51,0 -102,-13 -146,-39 -45,-25 -82,-61 -108,-105 -25,-44 -39,-94 -39,-144 0,-51 14,-101 39,-145 26,-44 63,-80 108,-105 44,-26 95,-39 146,-39 51,0 102,13 147,39 44,25 81,61 107,105 25,44 39,94 39,145 z"
   id="path222"
   inkscape:connector-curvature="0"
   style="fill:#606060;stroke:none" />
         <path
   d="m 4827,15507 v -15 l -1,-14 -2,-14 -3,-15 -3,-14 -4,-14 -5,-14 -6,-13 -6,-13 -7,-13 -7,-13 -8,-12 -9,-12 -9,-11 -10,-11 -11,-10 -10,-10 -12,-9 -12,-9 -12,-8 -13,-7 -13,-7 -13,-6 -14,-5 -14,-5 -14,-4 -14,-3 -15,-3 -15,-2 -14,-1 h -15 v 0 h -15 l -14,1 -15,2 -15,3 -14,3 -14,4 -14,5 -14,5 -13,6 -13,7 -13,7 -12,8 -12,9 -12,9 -10,10 -11,10 -10,11 -9,11 -9,12 -8,12 -7,13 -7,13 -6,13 -6,13 -5,14 -4,14 -3,14 -3,15 -2,14 -1,14 v 15 0 15 l 1,14 2,14 3,15 3,14 4,14 5,14 6,13 6,13 7,13 7,13 8,12 9,12 9,11 10,11 11,10 10,10 12,9 12,9 12,8 13,7 13,7 13,6 14,5 14,5 14,4 14,3 15,3 15,2 14,1 h 15 v 0 h 15 l 14,-1 15,-2 15,-3 14,-3 14,-4 14,-5 14,-5 13,-6 13,-7 13,-7 12,-8 12,-9 12,-9 10,-10 11,-10 10,-11 9,-11 9,-12 8,-12 7,-13 7,-13 6,-13 6,-13 5,-14 4,-14 3,-14 3,-15 2,-14 1,-14 z"
   id="path224"
   inkscape:connector-curvature="0"
   style="fill:none;stroke:#c0c0c0;stroke-width:66;stroke-linecap:round;stroke-linejoin:round" />
         <path
   d="m 16754,15510 c 0,50 -13,100 -39,144 -25,44 -62,80 -106,105 -44,26 -95,39 -145,39 -51,0 -102,-13 -146,-39 -44,-25 -81,-61 -106,-105 -26,-44 -39,-94 -39,-144 0,-51 13,-101 39,-145 25,-44 62,-80 106,-105 44,-26 95,-39 146,-39 50,0 101,13 145,39 44,25 81,61 106,105 26,44 39,94 39,145 z"
   id="path226"
   inkscape:connector-curvature="0"
   style="fill:#606060;stroke:none" />
         <path
   d="m 16750,15507 v -15 l -1,-14 -2,-14 -3,-15 -3,-14 -4,-14 -5,-14 -6,-13 -6,-13 -7,-13 -7,-13 -8,-12 -9,-12 -9,-11 -10,-11 -11,-10 -10,-10 -12,-9 -12,-9 -12,-8 -13,-7 -13,-7 -13,-6 -14,-5 -14,-5 -14,-4 -14,-3 -15,-3 -15,-2 -14,-1 h -15 v 0 h -15 l -14,1 -15,2 -15,3 -14,3 -14,4 -14,5 -14,5 -13,6 -13,7 -13,7 -12,8 -12,9 -12,9 -10,10 -11,10 -10,11 -9,11 -9,12 -8,12 -7,13 -7,13 -6,13 -6,13 -5,14 -4,14 -3,14 -3,15 -2,14 -1,14 v 15 0 15 l 1,14 2,14 3,15 3,14 4,14 5,14 6,13 6,13 7,13 7,13 8,12 9,12 9,11 10,11 11,10 10,10 12,9 12,9 12,8 13,7 13,7 13,6 14,5 14,5 14,4 14,3 15,3 15,2 14,1 h 15 v 0 h 15 l 14,-1 15,-2 15,-3 14,-3 14,-4 14,-5 14,-5 13,-6 13,-7 13,-7 12,-8 12,-9 12,-9 10,-10 11,-10 10,-11 9,-11 9,-12 8,-12 7,-13 7,-13 6,-13 6,-13 5,-14 4,-14 3,-14 3,-15 2,-14 1,-14 z"
   id="path228"
   inkscape:connector-curvature="0"
   style="fill:none;stroke:#c0c0c0;stroke-width:66;stroke-linecap:round;stroke-linejoin:round" />
         <path
   d="m 4729,19114 c 0,29 -8,57 -22,83 -15,25 -35,45 -60,60 -26,14 -54,22 -83,22 -29,0 -57,-8 -82,-22 -26,-15 -46,-35 -61,-60 -14,-26 -22,-54 -22,-83 0,-29 8,-57 22,-82 15,-26 35,-46 61,-61 25,-14 53,-22 82,-22 29,0 57,8 83,22 25,15 45,35 60,61 14,25 22,53 22,82 z"
   id="path230"
   inkscape:connector-curvature="0"
   style="fill:#000000;stroke:none" />
         <path
   d="m 4726,19112 v -8 l -1,-8 -1,-9 -1,-8 -2,-8 -2,-8 -3,-8 -3,-7 -4,-8 -3,-7 -5,-7 -4,-7 -5,-7 -5,-6 -6,-6 -6,-6 -6,-6 -6,-5 -7,-5 -7,-4 -7,-5 -7,-3 -8,-4 -7,-3 -8,-3 -8,-2 -8,-2 -8,-1 -9,-1 -8,-1 h -8 v 0 h -8 l -8,1 -9,1 -8,1 -8,2 -8,2 -8,3 -7,3 -8,4 -7,3 -7,5 -7,4 -7,5 -6,5 -6,6 -6,6 -6,6 -5,6 -5,7 -4,7 -5,7 -3,7 -4,8 -3,7 -3,8 -2,8 -2,8 -1,8 -1,9 -1,8 v 8 0 8 l 1,8 1,9 1,8 2,8 2,8 3,8 3,7 4,8 3,7 5,7 4,7 5,7 5,6 6,6 6,6 6,6 6,5 7,5 7,4 7,5 7,3 8,4 7,3 8,3 8,2 8,2 8,1 9,1 8,1 h 8 v 0 h 8 l 8,-1 9,-1 8,-1 8,-2 8,-2 8,-3 7,-3 8,-4 7,-3 7,-5 7,-4 7,-5 6,-5 6,-6 6,-6 6,-6 5,-6 5,-7 4,-7 5,-7 3,-7 4,-8 3,-7 3,-8 2,-8 2,-8 1,-8 1,-9 1,-8 z"
   id="path232"
   inkscape:connector-curvature="0"
   style="fill:none;stroke:#606060;stroke-width:31;stroke-linecap:round;stroke-linejoin:round" />
         <path
   d="m 7769,13849 h 8557 v 939 H 7769 Z"
   id="path234"
   inkscape:connector-curvature="0"
   style="fill:#e0e0e0;stroke:none" />
         <path
   d="m 7769,13849 h 8557 v 939 H 7769 Z"
   id="path236"
   inkscape:connector-curvature="0"
   style="fill:none;stroke:#000000;stroke-width:31;stroke-linecap:round;stroke-linejoin:round" />
         <path
   d="m 8144,14034 h 78 v 573 h -78 z"
   id="path238"
   inkscape:connector-curvature="0"
   style="fill:#000000;stroke:none" />
         <path
   d="m 8661,14034 h 78 v 573 h -78 z"
   id="path240"
   inkscape:connector-curvature="0"
   style="fill:#000000;stroke:none" />
         <path
   d="m 9203,14034 h 78 v 573 h -78 z"
   id="path242"
   inkscape:connector-curvature="0"
   style="fill:#000000;stroke:none" />
         <path
   d="m 9741,14034 h 78 v 573 h -78 z"
   id="path244"
   inkscape:connector-curvature="0"
   style="fill:#000000;stroke:none" />
         <path
   d="m 10324,14034 h 78 v 573 h -78 z"
   id="path246"
   inkscape:connector-curvature="0"
   style="fill:#000000;stroke:none" />
         <path
   d="m 10893,14034 h 78 v 573 h -78 z"
   id="path248"
   inkscape:connector-curvature="0"
   style="fill:#000000;stroke:none" />
         <path
   d="m 11422,14034 h 78 v 573 h -78 z"
   id="path250"
   inkscape:connector-curvature="0"
   style="fill:#000000;stroke:none" />
         <path
   d="m 11934,14034 h 78 v 573 h -78 z"
   id="path252"
   inkscape:connector-curvature="0"
   style="fill:#000000;stroke:none" />
         <path
   d="m 12476,14034 h 78 v 573 h -78 z"
   id="path254"
   inkscape:connector-curvature="0"
   style="fill:#000000;stroke:none" />
         <path
   d="m 13019,14034 h 78 v 573 h -78 z"
   id="path256"
   inkscape:connector-curvature="0"
   style="fill:#000000;stroke:none" />
         <path
   d="m 13601,14034 h 78 v 573 h -78 z"
   id="path258"
   inkscape:connector-curvature="0"
   style="fill:#000000;stroke:none" />
         <path
   d="m 14174,14034 h 78 v 573 h -78 z"
   id="path260"
   inkscape:connector-curvature="0"
   style="fill:#000000;stroke:none" />
         <path
   d="m 14730,14034 h 78 v 573 h -78 z"
   id="path262"
   inkscape:connector-curvature="0"
   style="fill:#000000;stroke:none" />
         <path
   d="m 15313,14034 h 78 v 573 h -78 z"
   id="path264"
   inkscape:connector-curvature="0"
   style="fill:#000000;stroke:none" />
         <path
   d="m 15877,14034 h 78 v 573 h -78 z"
   id="path266"
   inkscape:connector-curvature="0"
   style="fill:#000000;stroke:none" />
         <path
   d="m 7814,14312 h 8495"
   id="path268"
   inkscape:connector-curvature="0"
   style="fill:none;stroke:#000000;stroke-width:31;stroke-linecap:round;stroke-linejoin:round" />
         <path
   d="m 12776,13835 h 131 v 970 h -131 z"
   id="path270"
   inkscape:connector-curvature="0"
   style="fill:#ff6080;stroke:none" />
         <path
   d="m 16723,14367 c 0,22 -6,45 -17,64 -11,20 -26,36 -45,48 -20,11 -41,17 -63,17 -22,0 -43,-6 -62,-17 -20,-12 -35,-28 -46,-48 -11,-19 -17,-42 -17,-64 0,-23 6,-46 17,-65 11,-20 26,-36 46,-48 19,-11 40,-17 62,-17 22,0 43,6 63,17 19,12 34,28 45,48 11,19 17,42 17,65 z"
   id="path272"
   inkscape:connector-curvature="0"
   style="fill:#ff0000;stroke:none" />
         <path
   d="m 16688,14351 c 0,19 -5,38 -14,55 -9,17 -23,31 -39,40 -16,10 -34,15 -52,15 -19,0 -37,-5 -53,-15 -16,-9 -30,-23 -39,-40 -9,-17 -14,-36 -14,-55 0,-19 5,-38 14,-55 9,-17 23,-31 39,-40 16,-10 34,-15 53,-15 18,0 36,5 52,15 16,9 30,23 39,40 9,17 14,36 14,55 z"
   id="path274"
   inkscape:connector-curvature="0"
   style="fill:#ffa0c0;stroke:none" />
         <path
   d="m 16653,14316 c 0,8 -2,17 -6,24 -5,7 -11,13 -18,18 -7,4 -16,6 -24,6 -8,0 -17,-2 -24,-6 -7,-5 -13,-11 -18,-18 -4,-7 -6,-16 -6,-24 0,-8 2,-17 6,-24 5,-7 11,-13 18,-18 7,-4 16,-6 24,-6 8,0 17,2 24,6 7,5 13,11 18,18 4,7 6,16 6,24 z"
   id="path276"
   inkscape:connector-curvature="0"
   style="fill:#ffffff;stroke:none" />
        </g>
       </g>
      </g>
     </g>
    </g>
   </g>
  </g>
 </g>
</svg>