<?xml version="1.0" encoding="UTF-8" standalone="no"?>
<svg
   xmlns:ooo="http://xml.openoffice.org/svg/export"
   xmlns:dc="http://purl.org/dc/elements/1.1/"
   xmlns:cc="http://creativecommons.org/ns#"
   xmlns:rdf="http://www.w3.org/1999/02/22-rdf-syntax-ns#"
   xmlns:svg="http://www.w3.org/2000/svg"
   xmlns="http://www.w3.org/2000/svg"
   xmlns:sodipodi="http://sodipodi.sourceforge.net/DTD/sodipodi-0.dtd"
   xmlns:inkscape="http://www.inkscape.org/namespaces/inkscape"
   version="1.2"
   width="188.42999mm"
   height="100.59mm"
   viewBox="0 0 18842.999 10059"
   preserveAspectRatio="xMidYMid"
   xml:space="preserve"
   id="svg222"
   sodipodi:docname="cadolr20.svg"
   style="fill-rule:evenodd;stroke-width:28.22200012;stroke-linejoin:round"
   inkscape:version="0.92.5 (2060ec1f9f, 2020-04-08)"><metadata
   id="metadata226"><rdf:RDF><cc:Work
       rdf:about=""><dc:format>image/svg+xml</dc:format><dc:type
         rdf:resource="http://purl.org/dc/dcmitype/StillImage" /></cc:Work></rdf:RDF></metadata><sodipodi:namedview
   pagecolor="#ffffff"
   bordercolor="#666666"
   borderopacity="1"
   objecttolerance="10"
   gridtolerance="10"
   guidetolerance="10"
   inkscape:pageopacity="0"
   inkscape:pageshadow="2"
   inkscape:window-width="664"
   inkscape:window-height="487"
   id="namedview224"
   showgrid="false"
   inkscape:zoom="0.2102413"
   inkscape:cx="356.10709"
   inkscape:cy="190.07244"
   inkscape:window-x="0"
   inkscape:window-y="0"
   inkscape:window-maximized="0"
   inkscape:current-layer="svg222" />
 <defs
   class="ClipPathGroup"
   id="defs8">
  <clipPath
   id="presentation_clip_path"
   clipPathUnits="userSpaceOnUse">
   <rect
   x="0"
   y="0"
   width="21000"
   height="29700"
   id="rect2" />
  </clipPath>
  <clipPath
   id="presentation_clip_path_shrink"
   clipPathUnits="userSpaceOnUse">
   <rect
   x="21"
   y="29"
   width="20958"
   height="29641"
   id="rect5" />
  </clipPath>
 </defs>
 <defs
   class="TextShapeIndex"
   id="defs12">
  <g
   ooo:slide="id1"
   ooo:id-list="id3"
   id="g10" />
 </defs>
 <defs
   class="EmbeddedBulletChars"
   id="defs44">
  <g
   id="bullet-char-template-57356"
   transform="matrix(4.8828125e-4,0,0,-4.8828125e-4,0,0)">
   <path
   d="M 580,1141 1163,571 580,0 -4,571 Z"
   id="path14"
   inkscape:connector-curvature="0" />
  </g>
  <g
   id="bullet-char-template-57354"
   transform="matrix(4.8828125e-4,0,0,-4.8828125e-4,0,0)">
   <path
   d="M 8,1128 H 1137 V 0 H 8 Z"
   id="path17"
   inkscape:connector-curvature="0" />
  </g>
  <g
   id="bullet-char-template-10146"
   transform="matrix(4.8828125e-4,0,0,-4.8828125e-4,0,0)">
   <path
   d="M 174,0 602,739 174,1481 1456,739 Z M 1358,739 309,1346 659,739 Z"
   id="path20"
   inkscape:connector-curvature="0" />
  </g>
  <g
   id="bullet-char-template-10132"
   transform="matrix(4.8828125e-4,0,0,-4.8828125e-4,0,0)">
   <path
   d="M 2015,739 1276,0 H 717 l 543,543 H 174 v 393 h 1086 l -543,545 h 557 z"
   id="path23"
   inkscape:connector-curvature="0" />
  </g>
  <g
   id="bullet-char-template-10007"
   transform="matrix(4.8828125e-4,0,0,-4.8828125e-4,0,0)">
   <path
   d="m 0,-2 c -7,16 -16,29 -25,39 l 381,530 c -94,256 -141,385 -141,387 0,25 13,38 40,38 9,0 21,-2 34,-5 21,4 42,12 65,25 l 27,-13 111,-251 280,301 64,-25 24,25 c 21,-10 41,-24 62,-43 C 886,937 835,863 770,784 769,783 710,716 594,584 L 774,223 c 0,-27 -21,-55 -63,-84 l 16,-20 C 717,90 699,76 672,76 641,76 570,178 457,381 L 164,-76 c -22,-34 -53,-51 -92,-51 -42,0 -63,17 -64,51 -7,9 -10,24 -10,44 0,9 1,19 2,30 z"
   id="path26"
   inkscape:connector-curvature="0" />
  </g>
  <g
   id="bullet-char-template-10004"
   transform="matrix(4.8828125e-4,0,0,-4.8828125e-4,0,0)">
   <path
   d="M 285,-33 C 182,-33 111,30 74,156 52,228 41,333 41,471 c 0,78 14,145 41,201 34,71 87,106 158,106 53,0 88,-31 106,-94 l 23,-176 c 8,-64 28,-97 59,-98 l 735,706 c 11,11 33,17 66,17 42,0 63,-15 63,-46 V 965 c 0,-36 -10,-64 -30,-84 L 442,47 C 390,-6 338,-33 285,-33 Z"
   id="path29"
   inkscape:connector-curvature="0" />
  </g>
  <g
   id="bullet-char-template-9679"
   transform="matrix(4.8828125e-4,0,0,-4.8828125e-4,0,0)">
   <path
   d="M 813,0 C 632,0 489,54 383,161 276,268 223,411 223,592 c 0,181 53,324 160,431 106,107 249,161 430,161 179,0 323,-54 432,-161 108,-107 162,-251 162,-431 0,-180 -54,-324 -162,-431 C 1136,54 992,0 813,0 Z"
   id="path32"
   inkscape:connector-curvature="0" />
  </g>
  <g
   id="bullet-char-template-8226"
   transform="matrix(4.8828125e-4,0,0,-4.8828125e-4,0,0)">
   <path
   d="m 346,457 c -73,0 -137,26 -191,78 -54,51 -81,114 -81,188 0,73 27,136 81,188 54,52 118,78 191,78 73,0 134,-26 185,-79 51,-51 77,-114 77,-187 0,-75 -25,-137 -76,-188 -50,-52 -112,-78 -186,-78 z"
   id="path35"
   inkscape:connector-curvature="0" />
  </g>
  <g
   id="bullet-char-template-8211"
   transform="matrix(4.8828125e-4,0,0,-4.8828125e-4,0,0)">
   <path
   d="M -4,459 H 1135 V 606 H -4 Z"
   id="path38"
   inkscape:connector-curvature="0" />
  </g>
  <g
   id="bullet-char-template-61548"
   transform="matrix(4.8828125e-4,0,0,-4.8828125e-4,0,0)">
   <path
   d="m 173,740 c 0,163 58,303 173,419 116,115 255,173 419,173 163,0 302,-58 418,-173 116,-116 174,-256 174,-419 0,-163 -58,-303 -174,-418 C 1067,206 928,148 765,148 601,148 462,206 346,322 231,437 173,577 173,740 Z"
   id="path41"
   inkscape:connector-curvature="0" />
  </g>
 </defs>
 <g
   id="g49"
   transform="translate(-1078,-9820)">
  <g
   id="id2"
   class="Master_Slide">
   <g
   id="bg-id2"
   class="Background" />
   <g
   id="bo-id2"
   class="BackgroundObjects" />
  </g>
 </g>
 <g
   class="SlideGroup"
   id="g220"
   transform="translate(-1078,-9820)">
  <g
   id="g218">
   <g
   id="container-id1">
    <g
   id="id1"
   class="Slide"
   clip-path="url(#presentation_clip_path)">
     <g
   class="Page"
   id="g214">
      <g
   class="Graphic"
   id="g212">
       <g
   id="id3">
        <rect
   class="BoundingBox"
   x="1078"
   y="9820"
   width="18843"
   height="10059"
   id="rect51"
   style="fill:none;stroke:none" />
        <defs
   id="defs56">
         <clipPath
   id="clip_path_1"
   clipPathUnits="userSpaceOnUse">
          <path
   d="M 1078,9820 H 19920 V 19878 H 1078 Z"
   id="path53"
   inkscape:connector-curvature="0" />
         </clipPath>
        </defs>
        <g
   clip-path="url(#clip_path_1)"
   id="g118">
         <path
   d="M 1069,9824 H 19924 V 19873 H 1069 Z"
   id="path58"
   inkscape:connector-curvature="0"
   style="fill:#c0ffc0;stroke:none" />
         <path
   d="m 15568,19460 -89,-349 -88,-282 -93,-256 -92,-238 -146,-291 -145,-305 -247,-428 -327,-450 -313,-379 -291,-291 -212,-203 -189,-168 -269,-203 -230,-167 -264,-177 -221,-128 278,-150 287,-181 225,-172 233,-185 239,-212 220,-225 256,-265 229,-282 199,-265 198,-286 133,-230 163,-300 136,-282 150,-380 89,-256 97,-313 61,-242 53,-239 49,-256 35,-260 18,-203 13,-137 H 3226 l 9,80 13,132 35,256 27,172 22,132 22,146 35,159 36,128 35,150 40,145 61,173 97,286 84,221 71,154 84,168 97,194 92,159 124,220 136,217 168,238 216,269 216,238 194,225 230,216 203,181 185,146 207,150 225,154 203,119 216,111 -198,101 -181,102 -159,106 -150,101 -181,146 -172,136 -242,208 -217,203 -224,234 -234,291 -230,300 -167,251 -163,274 -181,326 -146,300 -154,411 -128,392 -93,322 -53,256 -44,247 12359,5 z"
   id="path60"
   inkscape:connector-curvature="0"
   style="fill:#ffc0ff;stroke:none" />
         <path
   d="m 7240,11373 750,1376 1058,265 944,-1434 781,1456 1116,-185 1085,-1518 h -1112 l -392,750 -388,-750 H 8965 l -393,684 -335,-644 z"
   id="path62"
   inkscape:connector-curvature="0"
   style="fill:#004000;stroke:none" />
         <path
   d="m 8965,11333 h 2121 l -392,415 -309,176 -366,36 -358,-22 -282,-102 -194,-150 z"
   id="path64"
   inkscape:connector-curvature="0"
   style="fill:#00e000;stroke:none" />
         <path
   d="m 11470,12079 -675,957 1098,-185 z"
   id="path66"
   inkscape:connector-curvature="0"
   style="fill:#006000;stroke:none" />
         <path
   d="m 8576,12039 -586,706 1067,269 z"
   id="path68"
   inkscape:connector-curvature="0"
   style="fill:#006000;stroke:none" />
         <path
   d="m 9944,11510 -1103,1866 -2100,803 2263,1301 940,1924 997,-1924 2042,-1239 -2073,-927 z"
   id="path70"
   inkscape:connector-curvature="0"
   style="fill:#c0ffc0;stroke:none" />
         <path
   d="m 2295,16786 h 16266 v 1653 H 2295 Z"
   id="path72"
   inkscape:connector-curvature="0"
   style="fill:#ff80ff;stroke:none" />
         <path
   d="m 6921,14545 c 0,554 -117,1099 -338,1579 -222,480 -540,879 -924,1156 -384,277 -819,423 -1262,423 -444,0 -879,-146 -1263,-423 -384,-277 -702,-676 -924,-1156 -221,-480 -338,-1025 -338,-1579 0,-555 117,-1100 338,-1580 222,-480 540,-879 924,-1156 384,-277 819,-423 1262,-423 444,0 879,146 1263,423 384,277 702,676 924,1156 221,480 338,1025 338,1579 z"
   id="path74"
   inkscape:connector-curvature="0"
   style="fill:#e00000;stroke:none" />
         <path
   d="m 6441,14549 c 0,445 -94,884 -273,1270 -179,386 -436,707 -746,930 -309,223 -661,340 -1018,340 -358,0 -710,-117 -1019,-340 -310,-223 -567,-544 -746,-930 -179,-386 -273,-825 -273,-1270 0,-446 94,-885 273,-1271 179,-386 436,-707 746,-930 309,-223 661,-340 1018,-340 358,0 710,117 1019,340 310,223 567,544 746,930 179,386 273,825 273,1270 z"
   id="path76"
   inkscape:connector-curvature="0"
   style="fill:#ff8000;stroke:none" />
         <path
   d="m 17423,14545 c 0,511 -107,1013 -311,1455 -204,443 -498,810 -851,1066 -353,255 -754,390 -1162,390 -408,0 -809,-135 -1162,-390 -353,-256 -647,-623 -851,-1066 -204,-442 -311,-944 -311,-1455 0,-512 107,-1014 311,-1456 204,-443 498,-810 851,-1066 353,-255 754,-390 1162,-390 408,0 809,135 1162,390 353,256 647,623 851,1066 204,442 311,944 311,1455 z"
   id="path78"
   inkscape:connector-curvature="0"
   style="fill:#ff8080;stroke:none" />
         <path
   d="m 13825,12688 -75,529 -39,309 -111,260 40,194 13,349 v 318 l 40,229 97,296 110,379 75,172 75,252 133,88 176,22 9,123 v 658 l -922,322 -613,450 -362,759 4054,-9 489,-1408 -1094,-772 36,-820 44,-1553 -1001,-1293 -966,207 z"
   id="path80"
   inkscape:connector-curvature="0"
   style="fill:#c0ffc0;stroke:none" />
         <path
   d="m 14024,12185 -243,216 -150,185 -75,212 -31,128 -101,115 -27,273 111,75 39,309 -123,225 242,428 -83,154 -159,-132 v 406 l 159,150 128,4 -40,-198 22,-353 -9,-172 -75,-318 75,-256 97,-485 9,-172 247,18 154,-49 172,40 186,31 251,-31 146,9 273,247 -4,229 167,88 128,230 27,203 -36,110 -26,53 -18,300 62,132 172,80 207,26 49,102 -27,264 -26,62 -27,35 -30,18 -22,9 -27,163 -40,44 75,124 274,53 326,-177 150,-207 80,-358 -120,-454 58,-326 -58,-287 -88,-318 -110,-53 35,-265 -176,-388 -357,-406 -168,-97 -229,-48 -115,-9 -225,-163 h -53 -172 l -260,70 -287,80 z"
   id="path82"
   inkscape:connector-curvature="0"
   style="fill:#006000;stroke:none" />
         <path
   d="m 13627,13464 17,-225 -61,-79 -49,-71 13,-145 h 5 -5"
   id="path84"
   inkscape:connector-curvature="0"
   style="fill:none;stroke:#004000;stroke-width:71;stroke-linecap:round;stroke-linejoin:round" />
         <path
   d="m 13772,12524 9,274 71,146 17,8"
   id="path86"
   inkscape:connector-curvature="0"
   style="fill:none;stroke:#004000;stroke-width:71;stroke-linecap:round;stroke-linejoin:round" />
         <path
   d="m 14099,12463 66,203 -27,172 -4,128"
   id="path88"
   inkscape:connector-curvature="0"
   style="fill:none;stroke:#004000;stroke-width:71;stroke-linecap:round;stroke-linejoin:round" />
         <path
   d="m 14857,12348 -158,84 -49,70 13,305 -75,97 -83,88"
   id="path90"
   inkscape:connector-curvature="0"
   style="fill:none;stroke:#004000;stroke-width:71;stroke-linecap:round;stroke-linejoin:round" />
         <path
   d="m 14893,12974 88,-154 31,-216 53,-146 119,-39 110,44"
   id="path92"
   inkscape:connector-curvature="0"
   style="fill:none;stroke:#004000;stroke-width:71;stroke-linecap:round;stroke-linejoin:round" />
         <path
   d="m 15303,13438 242,172 75,203 v 216 l -75,123 v 172 l 98,84 132,40"
   id="path94"
   inkscape:connector-curvature="0"
   style="fill:none;stroke:#004000;stroke-width:71;stroke-linecap:round;stroke-linejoin:round" />
         <path
   d="m 15620,14479 155,13 167,9 133,40 110,123 v 168"
   id="path96"
   inkscape:connector-curvature="0"
   style="fill:none;stroke:#004000;stroke-width:71;stroke-linecap:round;stroke-linejoin:round" />
         <path
   d="m 15881,13795 123,-154 146,-14 70,36 150,123"
   id="path98"
   inkscape:connector-curvature="0"
   style="fill:none;stroke:#004000;stroke-width:71;stroke-linecap:round;stroke-linejoin:round" />
         <path
   d="m 14293,16800 75,613 97,401 207,234 128,71 154,-89 296,-167 300,-278 190,-318 189,-357 93,-305 79,-229"
   id="path100"
   inkscape:connector-curvature="0"
   style="fill:none;stroke:#006000;stroke-width:71;stroke-linecap:round;stroke-linejoin:round" />
         <path
   d="m 13719,17064 -255,-39 -137,39 -93,75 -110,88 -203,84 -146,150 -79,150 -75,164 -40,92 -110,133 -62,150 v 101 l 22,163 h 627 l -62,-79 -84,-44 -119,-49 -26,-62 70,-8 -84,-159 -22,-102 62,27 49,123 145,111 419,194 124,48 h 189 l -167,-101 -97,-40 -93,-185 -40,-159 -44,-163 h -128 l 49,145 44,89 v 61 l -146,-88 -101,-123 -26,-164 35,-145 92,-124 27,106 v 150 l 18,93 h 132 v -177 l 26,-172 44,-119 53,-88 84,-44 102,-58 z"
   id="path102"
   inkscape:connector-curvature="0"
   style="fill:#006000;stroke:none" />
         <path
   d="m 13921,14130 c 0,14 -4,27 -12,40 -8,12 -20,21 -34,28 -14,7 -30,11 -46,11 -16,0 -32,-4 -46,-11 -14,-7 -26,-16 -34,-28 -8,-13 -12,-26 -12,-40 0,-14 4,-27 12,-39 8,-13 20,-22 34,-29 14,-7 30,-11 46,-11 16,0 32,4 46,11 14,7 26,16 34,29 8,12 12,25 12,39 z"
   id="path104"
   inkscape:connector-curvature="0"
   style="fill:#00e000;stroke:none" />
         <path
   d="m 14707,14119 c 0,16 -4,31 -12,45 -8,14 -19,25 -33,33 -14,8 -29,12 -45,12 -16,0 -31,-4 -45,-12 -14,-8 -25,-19 -33,-33 -8,-14 -12,-29 -12,-45 0,-16 4,-31 12,-45 8,-14 19,-25 33,-33 14,-8 29,-12 45,-12 16,0 31,4 45,12 14,8 25,19 33,33 8,14 12,29 12,45 z"
   id="path106"
   inkscape:connector-curvature="0"
   style="fill:#00c000;stroke:none" />
         <path
   d="m 15875,15039 c 0,26 -6,52 -17,74 -11,23 -27,42 -47,55 -19,13 -41,20 -64,20 -22,0 -44,-7 -63,-20 -20,-13 -36,-32 -47,-55 -11,-22 -17,-48 -17,-74 0,-27 6,-53 17,-75 11,-23 27,-42 47,-55 19,-13 41,-20 63,-20 23,0 45,7 64,20 20,13 36,32 47,55 11,22 17,48 17,75 z"
   id="path108"
   inkscape:connector-curvature="0"
   style="fill:#006000;stroke:none" />
         <path
   d="m 13600,13883 137,-101 243,75"
   id="path110"
   inkscape:connector-curvature="0"
   style="fill:none;stroke:#40ff40;stroke-width:71;stroke-linecap:round;stroke-linejoin:round" />
         <path
   d="m 14394,13848 415,-137 238,133"
   id="path112"
   inkscape:connector-curvature="0"
   style="fill:none;stroke:#40ff40;stroke-width:71;stroke-linecap:round;stroke-linejoin:round" />
         <path
   d="m 13644,14113 102,-71 84,-31 97,31 119,124 -141,88"
   id="path114"
   inkscape:connector-curvature="0"
   style="fill:none;stroke:#40ff40;stroke-width:71;stroke-linecap:round;stroke-linejoin:round" />
         <path
   d="m 14019,13905 89,106 v 243 l -256,441 v 102 l 163,145"
   id="path116"
   inkscape:connector-curvature="0"
   style="fill:none;stroke:#40ff40;stroke-width:71;stroke-linecap:round;stroke-linejoin:round" />
        </g>
        <defs
   id="defs123">
         <clipPath
   id="clip_path_2"
   clipPathUnits="userSpaceOnUse">
          <path
   d="m 14055,13420 h 202 v 2858 h -202 z"
   id="path120"
   inkscape:connector-curvature="0" />
         </clipPath>
        </defs>
        <g
   clip-path="url(#clip_path_2)"
   id="g127">
         <path
   d="m 13887,14832 h 503"
   id="path125"
   inkscape:connector-curvature="0"
   style="fill:none;stroke:#40ff40;stroke-width:71;stroke-linecap:round;stroke-linejoin:miter" />
        </g>
        <g
   clip-path="url(#clip_path_1)"
   id="g209">
         <path
   d="m 14262,14655 57,80 v 106 l -75,61"
   id="path129"
   inkscape:connector-curvature="0"
   style="fill:none;stroke:#40ff40;stroke-width:71;stroke-linecap:round;stroke-linejoin:round" />
         <path
   d="m 13944,15339 119,106 146,40 137,-40 247,-145 h -291 z"
   id="path131"
   inkscape:connector-curvature="0"
   style="fill:#40ff40;stroke:none" />
         <path
   d="m 13944,15339 119,106 146,40 137,-40 247,-145 h -291 z"
   id="path133"
   inkscape:connector-curvature="0"
   style="fill:none;stroke:#00c000;stroke-width:71;stroke-linecap:round;stroke-linejoin:round" />
         <path
   d="m 13927,15339 119,-159 92,62 106,-92 402,150 h -344 l -137,44 z"
   id="path135"
   inkscape:connector-curvature="0"
   style="fill:#40ff40;stroke:none" />
         <path
   d="m 13927,15339 119,-159 92,62 106,-92 402,150 h -344 l -137,44 z"
   id="path137"
   inkscape:connector-curvature="0"
   style="fill:none;stroke:#00c000;stroke-width:71;stroke-linecap:round;stroke-linejoin:round" />
         <path
   d="m 14227,16080 h 282 l 216,-48 238,-84 208,-71 150,-97 145,-101 137,-340 v -172 l 44,-534 26,-17 -8,185 -27,234 -13,295 -75,217 -62,105 -79,89 -106,84 -110,39 -119,106 -111,110 -163,80 -154,35 -53,27 -137,-31 z"
   id="path139"
   inkscape:connector-curvature="0"
   style="fill:#40ff40;stroke:none" />
         <path
   d="m 14227,16080 h 282 l 216,-48 238,-84 208,-71 150,-97 145,-101 137,-340 v -172 l 44,-534 26,-17 -8,185 -27,234 -13,295 -75,217 -62,105 -79,89 -106,84 -110,39 -119,106 -111,110 -163,80 -154,35 -53,27 -137,-31 z"
   id="path141"
   inkscape:connector-curvature="0"
   style="fill:none;stroke:#40ff40;stroke-width:71;stroke-linecap:round;stroke-linejoin:round" />
         <path
   d="m 14469,14029 212,-49 212,150 -137,84 -137,22 -145,9"
   id="path143"
   inkscape:connector-curvature="0"
   style="fill:none;stroke:#40ff40;stroke-width:71;stroke-linecap:round;stroke-linejoin:round" />
         <path
   d="m 3402,10782 h 14211 v 740 H 3402 Z"
   id="path145"
   inkscape:connector-curvature="0"
   style="fill:#00a000;stroke:none" />
         <path
   d="m 3469,18357 h 13051 v 656 H 3469 Z"
   id="path147"
   inkscape:connector-curvature="0"
   style="fill:#00a000;stroke:none" />
         <path
   d="m 19568,11626 c 0,224 -56,444 -164,638 -107,194 -261,355 -447,467 -185,112 -396,171 -611,171 -214,0 -425,-59 -610,-171 -186,-112 -340,-273 -447,-467 -108,-194 -164,-414 -164,-638 0,-225 56,-445 164,-639 107,-194 261,-355 447,-467 185,-112 396,-171 610,-171 215,0 426,59 611,171 186,112 340,273 447,467 108,194 164,414 164,638 z"
   id="path149"
   inkscape:connector-curvature="0"
   style="fill:#40ff40;stroke:none" />
         <path
   d="m 17671,11947 389,-605 v -163 h -155 v 115 h -234 v -199 l 159,-172 h 305 l 172,163 v 318 l -353,543 h 353 v 247 h -636 z"
   id="path151"
   inkscape:connector-curvature="0"
   style="fill:#002000;stroke:none" />
         <path
   d="m 17671,11947 389,-605 v -163 h -155 v 115 h -234 v -199 l 159,-172 h 305 l 172,163 v 318 l -353,543 h 353 v 247 h -636 z"
   id="path153"
   inkscape:connector-curvature="0"
   style="fill:none;stroke:#000000;stroke-width:71;stroke-linecap:round;stroke-linejoin:round" />
         <path
   d="m 18554,10923 h 273 l 190,194 v 882 l -163,195 h -309 l -172,-172 v -896 l 181,-203 70,265 v 759 h 150 v -759 h -150 z"
   id="path155"
   inkscape:connector-curvature="0"
   style="fill:#002000;stroke:none" />
         <path
   d="m 18554,10923 h 273 l 190,194 v 882 l -163,195 h -309 l -172,-172 v -896 l 181,-203 70,265 v 759 h 150 v -759 h -150 z"
   id="path157"
   inkscape:connector-curvature="0"
   style="fill:none;stroke:#000000;stroke-width:71;stroke-linecap:round;stroke-linejoin:round" />
         <path
   d="m 3909,17993 c 0,224 -56,444 -163,638 -107,194 -261,355 -447,467 -185,112 -395,171 -609,171 -214,0 -424,-59 -609,-171 -186,-112 -340,-273 -447,-467 -107,-194 -163,-414 -163,-638 0,-225 56,-445 163,-639 107,-194 261,-355 446,-467 186,-112 396,-171 610,-171 214,0 424,59 609,171 186,112 340,273 447,467 107,194 163,414 163,639 z"
   id="path159"
   inkscape:connector-curvature="0"
   style="fill:#40ff40;stroke:none" />
         <path
   d="m 1916,18317 446,-697 v -185 h -177 v 132 h -269 v -234 l 181,-194 h 348 l 208,190 v 362 l -411,626 h 411 v 287 h -737 z"
   id="path161"
   inkscape:connector-curvature="0"
   style="fill:#002000;stroke:none" />
         <path
   d="m 1916,18317 446,-697 v -185 h -177 v 132 h -269 v -234 l 181,-194 h 348 l 208,190 v 362 l -411,626 h 411 v 287 h -737 z"
   id="path163"
   inkscape:connector-curvature="0"
   style="fill:none;stroke:#000000;stroke-width:71;stroke-linecap:round;stroke-linejoin:round" />
         <path
   d="m 2944,17139 h 313 l 216,221 v 1028 l -185,216 h -362 l -198,-194 v -1037 l 216,-234 75,305 v 873 h 181 v -873 h -181 z"
   id="path165"
   inkscape:connector-curvature="0"
   style="fill:#002000;stroke:none" />
         <path
   d="m 2944,17139 h 313 l 216,221 v 1028 l -185,216 h -362 l -198,-194 v -1037 l 216,-234 75,305 v 873 h 181 v -873 h -181 z"
   id="path167"
   inkscape:connector-curvature="0"
   style="fill:none;stroke:#000000;stroke-width:71;stroke-linecap:round;stroke-linejoin:round" />
         <path
   d="m 3953,11673 c 0,223 -56,443 -164,637 -107,193 -261,354 -447,466 -185,112 -396,171 -610,171 -215,0 -426,-59 -611,-171 -186,-112 -340,-273 -447,-466 -108,-194 -164,-414 -164,-637 0,-224 56,-444 164,-638 107,-193 261,-354 447,-466 185,-112 396,-171 610,-171 215,0 426,59 611,171 186,112 340,273 447,466 108,194 164,414 164,637 z"
   id="path169"
   inkscape:connector-curvature="0"
   style="fill:#40ff40;stroke:none" />
         <path
   d="m 1973,11947 384,-605 v -163 h -150 v 115 h -234 v -199 l 159,-172 h 305 l 172,163 v 318 l -353,543 h 353 v 247 h -636 z"
   id="path171"
   inkscape:connector-curvature="0"
   style="fill:#002000;stroke:none" />
         <path
   d="m 1973,11947 384,-605 v -163 h -150 v 115 h -234 v -199 l 159,-172 h 305 l 172,163 v 318 l -353,543 h 353 v 247 h -636 z"
   id="path173"
   inkscape:connector-curvature="0"
   style="fill:none;stroke:#000000;stroke-width:71;stroke-linecap:round;stroke-linejoin:round" />
         <path
   d="m 2856,10923 h 273 l 190,194 v 882 l -168,195 h -304 l -172,-172 v -896 l 181,-203 66,265 v 759 h 154 v -759 h -154 z"
   id="path175"
   inkscape:connector-curvature="0"
   style="fill:#002000;stroke:none" />
         <path
   d="m 2856,10923 h 273 l 190,194 v 882 l -168,195 h -304 l -172,-172 v -896 l 181,-203 66,265 v 759 h 154 v -759 h -154 z"
   id="path177"
   inkscape:connector-curvature="0"
   style="fill:none;stroke:#000000;stroke-width:71;stroke-linecap:round;stroke-linejoin:round" />
         <path
   d="m 17958,15869 -1738,1085 -225,357 -83,278 17,305 168,322 1283,957 1721,-1094 211,-194 115,-318 53,-238 -9,-252 -163,-322 -207,-189 z"
   id="path179"
   inkscape:connector-curvature="0"
   style="fill:#40ff40;stroke:none" />
         <path
   d="m 17067,17942 446,-697 v -185 h -181 v 132 h -265 v -234 l 177,-194 h 353 l 207,186 v 366 l -415,626 h 415 v 287 h -737 z"
   id="path181"
   inkscape:connector-curvature="0"
   style="fill:#002000;stroke:none" />
         <path
   d="m 17067,17942 446,-697 v -185 h -181 v 132 h -265 v -234 l 177,-194 h 353 l 207,186 v 366 l -415,626 h 415 v 287 h -737 z"
   id="path183"
   inkscape:connector-curvature="0"
   style="fill:none;stroke:#000000;stroke-width:71;stroke-linecap:round;stroke-linejoin:round" />
         <path
   d="m 18091,16764 h 317 l 216,216 v 1033 l -189,216 h -358 l -198,-194 v -1037 l 212,-234 79,305 v 873 h 176 v -873 h -176 z"
   id="path185"
   inkscape:connector-curvature="0"
   style="fill:#002000;stroke:none" />
         <path
   d="m 18091,16764 h 317 l 216,216 v 1033 l -189,216 h -358 l -198,-194 v -1037 l 212,-234 79,305 v 873 h 176 v -873 h -176 z"
   id="path187"
   inkscape:connector-curvature="0"
   style="fill:none;stroke:#000000;stroke-width:71;stroke-linecap:round;stroke-linejoin:round" />
         <path
   d="m 9009,13557 516,-816 v -217 h -208 v 155 h -308 v -269 l 207,-225 h 406 l 242,216 v 428 l -480,728 h 480 v 331 h -855 z"
   id="path189"
   inkscape:connector-curvature="0"
   style="fill:#002000;stroke:none" />
         <path
   d="m 9009,13557 516,-816 v -217 h -208 v 155 h -308 v -269 l 207,-225 h 406 l 242,216 v 428 l -480,728 h 480 v 331 h -855 z"
   id="path191"
   inkscape:connector-curvature="0"
   style="fill:none;stroke:#000000;stroke-width:71;stroke-linecap:round;stroke-linejoin:round" />
         <path
   d="m 10195,12185 h 371 l 238,247 v 1209 l -212,247 h -414 l -230,-225 v -1205 l 247,-273 88,348 v 1024 h 208 v -1024 h -208 z"
   id="path193"
   inkscape:connector-curvature="0"
   style="fill:#002000;stroke:none" />
         <path
   d="m 10195,12185 h 371 l 238,247 v 1209 l -212,247 h -414 l -230,-225 v -1205 l 247,-273 88,348 v 1024 h 208 v -1024 h -208 z"
   id="path195"
   inkscape:connector-curvature="0"
   style="fill:none;stroke:#000000;stroke-width:71;stroke-linecap:round;stroke-linejoin:round" />
         <path
   d="m 8091,14205 h 547 l 282,1730 h -383 l -44,-327 h -243 l -49,327 h -374 l 264,-1730 300,349 -106,750 h 194 l -88,-750 z"
   id="path197"
   inkscape:connector-curvature="0"
   style="fill:#ffffff;stroke:none" />
         <path
   d="m 7518,14205 242,234 v 437 h -348 v -335 h -238 v 1059 h 225 v -389 h 375 v 477 l -265,247 h -423 l -278,-265 v -1253 l 251,-212 z"
   id="path199"
   inkscape:connector-curvature="0"
   style="fill:#ffffff;stroke:none" />
         <path
   d="m 11223,14205 h 723 l 225,234 v 1253 l -282,243 h -666 v -1730 l 344,336 v 1059 h 225 v -1059 h -225 z"
   id="path201"
   inkscape:connector-curvature="0"
   style="fill:#ffffff;stroke:none" />
         <path
   d="m 9278,14205 308,852 v -852 h 336 v 1730 h -340 l -278,-781 v 781 h -339 v -1730 z"
   id="path203"
   inkscape:connector-curvature="0"
   style="fill:#ffffff;stroke:none" />
         <path
   d="m 10266,14205 h 542 l 287,1721 h -393 l -35,-318 h -251 l -40,318 h -375 l 265,-1721 300,340 -106,759 h 194 l -88,-759 z"
   id="path205"
   inkscape:connector-curvature="0"
   style="fill:#ffffff;stroke:none" />
         <path
   d="m 12476,14205 h 542 l 282,1721 h -383 l -36,-318 h -251 l -49,318 h -375 l 270,-1721 295,340 -106,759 h 194 l -88,-759 z"
   id="path207"
   inkscape:connector-curvature="0"
   style="fill:#ffffff;stroke:none" />
        </g>
       </g>
      </g>
     </g>
    </g>
   </g>
  </g>
 </g>
</svg>