<?xml version="1.0" encoding="UTF-8" standalone="no"?>
<svg
   xmlns:ooo="http://xml.openoffice.org/svg/export"
   xmlns:dc="http://purl.org/dc/elements/1.1/"
   xmlns:cc="http://creativecommons.org/ns#"
   xmlns:rdf="http://www.w3.org/1999/02/22-rdf-syntax-ns#"
   xmlns:svg="http://www.w3.org/2000/svg"
   xmlns="http://www.w3.org/2000/svg"
   xmlns:sodipodi="http://sodipodi.sourceforge.net/DTD/sodipodi-0.dtd"
   xmlns:inkscape="http://www.inkscape.org/namespaces/inkscape"
   version="1.2"
   width="169.99001mm"
   height="89.610001mm"
   viewBox="0 0 16999.001 8961.0001"
   preserveAspectRatio="xMidYMid"
   xml:space="preserve"
   id="svg326"
   sodipodi:docname="capsules.svg"
   style="fill-rule:evenodd;stroke-width:28.22200012;stroke-linejoin:round"
   inkscape:version="0.92.5 (2060ec1f9f, 2020-04-08)"><metadata
   id="metadata330"><rdf:RDF><cc:Work
       rdf:about=""><dc:format>image/svg+xml</dc:format><dc:type
         rdf:resource="http://purl.org/dc/dcmitype/StillImage" /></cc:Work></rdf:RDF></metadata><sodipodi:namedview
   pagecolor="#ffffff"
   bordercolor="#666666"
   borderopacity="1"
   objecttolerance="10"
   gridtolerance="10"
   guidetolerance="10"
   inkscape:pageopacity="0"
   inkscape:pageshadow="2"
   inkscape:window-width="664"
   inkscape:window-height="487"
   id="namedview328"
   showgrid="false"
   inkscape:zoom="0.2102413"
   inkscape:cx="321.25984"
   inkscape:cy="169.32283"
   inkscape:window-x="0"
   inkscape:window-y="0"
   inkscape:window-maximized="0"
   inkscape:current-layer="svg326" />
 <defs
   class="ClipPathGroup"
   id="defs8">
  <clipPath
   id="presentation_clip_path"
   clipPathUnits="userSpaceOnUse">
   <rect
   x="0"
   y="0"
   width="21000"
   height="29700"
   id="rect2" />
  </clipPath>
  <clipPath
   id="presentation_clip_path_shrink"
   clipPathUnits="userSpaceOnUse">
   <rect
   x="21"
   y="29"
   width="20958"
   height="29641"
   id="rect5" />
  </clipPath>
 </defs>
 <defs
   class="TextShapeIndex"
   id="defs12">
  <g
   ooo:slide="id1"
   ooo:id-list="id3"
   id="g10" />
 </defs>
 <defs
   class="EmbeddedBulletChars"
   id="defs44">
  <g
   id="bullet-char-template-57356"
   transform="matrix(4.8828125e-4,0,0,-4.8828125e-4,0,0)">
   <path
   d="M 580,1141 1163,571 580,0 -4,571 Z"
   id="path14"
   inkscape:connector-curvature="0" />
  </g>
  <g
   id="bullet-char-template-57354"
   transform="matrix(4.8828125e-4,0,0,-4.8828125e-4,0,0)">
   <path
   d="M 8,1128 H 1137 V 0 H 8 Z"
   id="path17"
   inkscape:connector-curvature="0" />
  </g>
  <g
   id="bullet-char-template-10146"
   transform="matrix(4.8828125e-4,0,0,-4.8828125e-4,0,0)">
   <path
   d="M 174,0 602,739 174,1481 1456,739 Z M 1358,739 309,1346 659,739 Z"
   id="path20"
   inkscape:connector-curvature="0" />
  </g>
  <g
   id="bullet-char-template-10132"
   transform="matrix(4.8828125e-4,0,0,-4.8828125e-4,0,0)">
   <path
   d="M 2015,739 1276,0 H 717 l 543,543 H 174 v 393 h 1086 l -543,545 h 557 z"
   id="path23"
   inkscape:connector-curvature="0" />
  </g>
  <g
   id="bullet-char-template-10007"
   transform="matrix(4.8828125e-4,0,0,-4.8828125e-4,0,0)">
   <path
   d="m 0,-2 c -7,16 -16,29 -25,39 l 381,530 c -94,256 -141,385 -141,387 0,25 13,38 40,38 9,0 21,-2 34,-5 21,4 42,12 65,25 l 27,-13 111,-251 280,301 64,-25 24,25 c 21,-10 41,-24 62,-43 C 886,937 835,863 770,784 769,783 710,716 594,584 L 774,223 c 0,-27 -21,-55 -63,-84 l 16,-20 C 717,90 699,76 672,76 641,76 570,178 457,381 L 164,-76 c -22,-34 -53,-51 -92,-51 -42,0 -63,17 -64,51 -7,9 -10,24 -10,44 0,9 1,19 2,30 z"
   id="path26"
   inkscape:connector-curvature="0" />
  </g>
  <g
   id="bullet-char-template-10004"
   transform="matrix(4.8828125e-4,0,0,-4.8828125e-4,0,0)">
   <path
   d="M 285,-33 C 182,-33 111,30 74,156 52,228 41,333 41,471 c 0,78 14,145 41,201 34,71 87,106 158,106 53,0 88,-31 106,-94 l 23,-176 c 8,-64 28,-97 59,-98 l 735,706 c 11,11 33,17 66,17 42,0 63,-15 63,-46 V 965 c 0,-36 -10,-64 -30,-84 L 442,47 C 390,-6 338,-33 285,-33 Z"
   id="path29"
   inkscape:connector-curvature="0" />
  </g>
  <g
   id="bullet-char-template-9679"
   transform="matrix(4.8828125e-4,0,0,-4.8828125e-4,0,0)">
   <path
   d="M 813,0 C 632,0 489,54 383,161 276,268 223,411 223,592 c 0,181 53,324 160,431 106,107 249,161 430,161 179,0 323,-54 432,-161 108,-107 162,-251 162,-431 0,-180 -54,-324 -162,-431 C 1136,54 992,0 813,0 Z"
   id="path32"
   inkscape:connector-curvature="0" />
  </g>
  <g
   id="bullet-char-template-8226"
   transform="matrix(4.8828125e-4,0,0,-4.8828125e-4,0,0)">
   <path
   d="m 346,457 c -73,0 -137,26 -191,78 -54,51 -81,114 -81,188 0,73 27,136 81,188 54,52 118,78 191,78 73,0 134,-26 185,-79 51,-51 77,-114 77,-187 0,-75 -25,-137 -76,-188 -50,-52 -112,-78 -186,-78 z"
   id="path35"
   inkscape:connector-curvature="0" />
  </g>
  <g
   id="bullet-char-template-8211"
   transform="matrix(4.8828125e-4,0,0,-4.8828125e-4,0,0)">
   <path
   d="M -4,459 H 1135 V 606 H -4 Z"
   id="path38"
   inkscape:connector-curvature="0" />
  </g>
  <g
   id="bullet-char-template-61548"
   transform="matrix(4.8828125e-4,0,0,-4.8828125e-4,0,0)">
   <path
   d="m 173,740 c 0,163 58,303 173,419 116,115 255,173 419,173 163,0 302,-58 418,-173 116,-116 174,-256 174,-419 0,-163 -58,-303 -174,-418 C 1067,206 928,148 765,148 601,148 462,206 346,322 231,437 173,577 173,740 Z"
   id="path41"
   inkscape:connector-curvature="0" />
  </g>
 </defs>
 <g
   id="g49"
   transform="translate(-2000,-10369)">
  <g
   id="id2"
   class="Master_Slide">
   <g
   id="bg-id2"
   class="Background" />
   <g
   id="bo-id2"
   class="BackgroundObjects" />
  </g>
 </g>
 <g
   class="SlideGroup"
   id="g324"
   transform="translate(-2000,-10369)">
  <g
   id="g322">
   <g
   id="container-id1">
    <g
   id="id1"
   class="Slide"
   clip-path="url(#presentation_clip_path)">
     <g
   class="Page"
   id="g318">
      <g
   class="Graphic"
   id="g316">
       <g
   id="id3">
        <rect
   class="BoundingBox"
   x="2000"
   y="10369"
   width="16999"
   height="8961"
   id="rect51"
   style="fill:none;stroke:none" />
        <path
   d="m 18827,14393 -57,101 -71,102 -53,70 -53,53 -84,71 -92,71 -3127,944 -199,35 -154,-18 -159,-39 -124,-53 -105,-66 -150,-93 -89,-88 -83,-133 -58,-110 -53,-124 -35,-145 -18,-150 v -119 l 5,-133 22,-114 35,-142 84,-136 71,-111 105,-114 146,-115 168,-71 2986,-895 150,-18 194,18 158,53 133,61 114,71 124,101 123,128 89,128 70,159 53,150 22,163 v 124 l -4,150 -36,146 z"
   id="path53"
   inkscape:connector-curvature="0"
   style="fill:#ffffff;stroke:none" />
        <path
   d="m 18827,14393 -57,101 -71,102 -53,70 -53,53 -84,71 -92,71 -3127,944 -199,35 -154,-18 -159,-39 -124,-53 -105,-66 -150,-93 -89,-88 -83,-133 -58,-110 -53,-124 -35,-145 -18,-150 v -119 l 5,-133 22,-114 35,-142 84,-136 71,-111 105,-114 146,-115 168,-71 2986,-895 150,-18 194,18 158,53 133,61 114,71 124,101 123,128 89,128 70,159 53,150 22,163 v 124 l -4,150 -36,146 z"
   id="path55"
   inkscape:connector-curvature="0"
   style="fill:none;stroke:#000000;stroke-width:35;stroke-linecap:round;stroke-linejoin:round" />
        <path
   d="m 15841,15289 -62,97 -66,105 -53,71 -53,53 -84,66 -88,71 -119,44 -106,22 -110,18 -119,-5 -106,-17 -119,-36 -132,-53 -111,-66 -114,-84 -111,-110 -79,-110 -71,-137 -53,-177 -30,-154 -5,-141 5,-137 35,-163 57,-168 71,-128 92,-119 115,-115 124,-79 158,-66 150,-18 194,18 155,53 128,66 119,66 119,106 123,123 84,124 71,159 53,154 26,159 v 124 l -13,128 -31,158 z"
   id="path57"
   inkscape:connector-curvature="0"
   style="fill:#808080;stroke:none" />
        <path
   d="m 15841,15289 -62,97 -66,105 -53,71 -53,53 -84,66 -88,71 -119,44 -106,22 -110,18 -119,-5 -106,-17 -119,-36 -132,-53 -111,-66 -114,-84 -111,-110 -79,-110 -71,-137 -53,-177 -30,-154 -5,-141 5,-137 35,-163 57,-168 71,-128 92,-119 115,-115 124,-79 158,-66 150,-18 194,18 155,53 128,66 119,66 119,106 123,123 84,124 71,159 53,154 26,159 v 124 l -13,128 -31,158 z"
   id="path59"
   inkscape:connector-curvature="0"
   style="fill:none;stroke:#000000;stroke-width:35;stroke-linecap:round;stroke-linejoin:round" />
        <path
   d="m 5749,10435 84,31 66,40 2770,1985 71,71 79,115 53,105 31,89 26,106 18,97 4,101 -13,119 -22,124 -31,101 -40,106 -52,110 -80,120 -106,123 -106,97 -119,75 -123,58 -172,52 -159,23 h -137 l -110,-14 -119,-31 -93,-35 -123,-57 -2792,-2092 -97,-158 -31,-186 -5,-128 14,-203 35,-163 53,-163 71,-155 74,-119 102,-97 101,-79 124,-71 137,-53 163,-48 167,-18 h 128 l 106,13 z"
   id="path61"
   inkscape:connector-curvature="0"
   style="fill:#ff0000;stroke:none" />
        <path
   d="m 5749,10435 84,31 66,40 2770,1985 71,71 79,115 53,105 31,89 26,106 18,97 4,101 -13,119 -22,124 -31,101 -40,106 -52,110 -80,120 -106,123 -106,97 -119,75 -123,58 -172,52 -159,23 h -137 l -110,-14 -119,-31 -93,-35 -123,-57 -2792,-2092 -97,-158 -31,-186 -5,-128 14,-203 35,-163 53,-163 71,-155 74,-119 102,-97 101,-79 124,-71 137,-53 163,-48 167,-18 h 128 l 106,13 z"
   id="path63"
   inkscape:connector-curvature="0"
   style="fill:none;stroke:#000000;stroke-width:35;stroke-linecap:round;stroke-linejoin:round" />
        <path
   d="m 8466,12381 75,31 66,40 75,66 53,53 75,92 53,102 35,84 36,123 17,110 5,115 -18,150 -35,146 -71,176 -53,115 -101,128 -93,101 -110,106 -115,53 -141,53 -128,35 -145,23 h -133 l -158,-9 -133,-49 -106,-53 -123,-84 -84,-132 -48,-132 -22,-164 v -180 l 17,-164 35,-163 53,-163 67,-150 83,-115 93,-101 106,-84 119,-66 137,-53 158,-40 168,-22 h 132 l 106,9 z"
   id="path65"
   inkscape:connector-curvature="0"
   style="fill:#400000;stroke:none" />
        <path
   d="m 8466,12381 75,31 66,40 75,66 53,53 75,92 53,102 35,84 36,123 17,110 5,115 -18,150 -35,146 -71,176 -53,115 -101,128 -93,101 -110,106 -115,53 -141,53 -128,35 -145,23 h -133 l -158,-9 -133,-49 -106,-53 -123,-84 -84,-132 -48,-132 -22,-164 v -180 l 17,-164 35,-163 53,-163 67,-150 83,-115 93,-101 106,-84 119,-66 137,-53 158,-40 168,-22 h 132 l 106,9 z"
   id="path67"
   inkscape:connector-curvature="0"
   style="fill:none;stroke:#000000;stroke-width:35;stroke-linecap:round;stroke-linejoin:round" />
        <path
   d="m 8747,14988 c 0,28 -8,56 -22,81 -14,24 -35,45 -59,59 -25,14 -53,22 -81,22 -29,0 -57,-8 -82,-22 -24,-14 -45,-35 -59,-59 -14,-25 -22,-53 -22,-81 0,-29 8,-57 22,-82 14,-24 35,-45 59,-59 25,-14 53,-22 82,-22 28,0 56,8 81,22 24,14 45,35 59,59 14,25 22,53 22,82 z"
   id="path69"
   inkscape:connector-curvature="0"
   style="fill:#008000;stroke:none" />
        <path
   d="m 13908,16541 c 0,28 -7,56 -22,81 -14,24 -34,45 -58,59 -25,14 -52,22 -80,22 -29,0 -56,-8 -81,-22 -24,-14 -44,-35 -58,-59 -15,-25 -22,-53 -22,-81 0,-29 7,-57 22,-82 14,-24 34,-45 58,-59 25,-14 52,-22 81,-22 28,0 55,8 80,22 24,14 44,35 58,59 15,25 22,53 22,82 z"
   id="path71"
   inkscape:connector-curvature="0"
   style="fill:#ffff00;stroke:none" />
        <path
   d="m 14865,15535 c 0,28 -8,56 -22,81 -14,24 -35,45 -59,59 -25,14 -53,22 -81,22 -29,0 -57,-8 -82,-22 -24,-14 -45,-35 -59,-59 -14,-25 -22,-53 -22,-81 0,-29 8,-57 22,-82 14,-24 35,-45 59,-59 25,-14 53,-22 82,-22 28,0 56,8 81,22 24,14 45,35 59,59 14,25 22,53 22,82 z"
   id="path73"
   inkscape:connector-curvature="0"
   style="fill:#00ffff;stroke:none" />
        <path
   d="m 7636,13786 c 0,28 -8,55 -22,80 -14,24 -35,44 -59,58 -25,15 -53,22 -81,22 -29,0 -57,-7 -82,-22 -24,-14 -45,-34 -59,-58 -14,-25 -22,-52 -22,-80 0,-29 8,-56 22,-81 14,-24 35,-44 59,-58 25,-15 53,-22 82,-22 28,0 56,7 81,22 24,14 45,34 59,58 14,25 22,52 22,81 z"
   id="path75"
   inkscape:connector-curvature="0"
   style="fill:#008000;stroke:none" />
        <path
   d="m 15518,15588 c 0,28 -8,56 -22,81 -14,24 -35,45 -59,59 -25,14 -53,22 -81,22 -29,0 -57,-8 -82,-22 -24,-14 -45,-35 -59,-59 -14,-25 -22,-53 -22,-81 0,-29 8,-57 22,-82 14,-24 35,-45 59,-59 25,-14 53,-22 82,-22 28,0 56,8 81,22 24,14 45,35 59,59 14,25 22,53 22,82 z"
   id="path77"
   inkscape:connector-curvature="0"
   style="fill:#00ffff;stroke:none" />
        <path
   d="m 15112,15588 c 0,28 -8,56 -22,81 -14,24 -35,45 -59,59 -25,14 -53,22 -81,22 -29,0 -57,-8 -82,-22 -24,-14 -45,-35 -59,-59 -14,-25 -22,-53 -22,-81 0,-29 8,-57 22,-82 14,-24 35,-45 59,-59 25,-14 53,-22 82,-22 28,0 56,8 81,22 24,14 45,35 59,59 14,25 22,53 22,82 z"
   id="path79"
   inkscape:connector-curvature="0"
   style="fill:#ffff00;stroke:none" />
        <path
   d="m 7543,13416 c 0,28 -7,55 -22,80 -14,24 -34,44 -58,58 -25,15 -52,22 -80,22 -29,0 -56,-7 -81,-22 -24,-14 -44,-34 -58,-58 -15,-25 -22,-52 -22,-80 0,-29 7,-56 22,-81 14,-24 34,-44 58,-58 25,-15 52,-22 81,-22 28,0 55,7 80,22 24,14 44,34 58,58 15,25 22,52 22,81 z"
   id="path81"
   inkscape:connector-curvature="0"
   style="fill:#ffff00;stroke:none" />
        <path
   d="m 8888,14635 c 0,28 -8,56 -22,81 -14,24 -35,45 -59,59 -25,14 -53,22 -81,22 -29,0 -57,-8 -82,-22 -24,-14 -45,-35 -59,-59 -14,-25 -22,-53 -22,-81 0,-29 8,-57 22,-82 14,-24 35,-45 59,-59 25,-14 53,-22 82,-22 28,0 56,8 81,22 24,14 45,35 59,59 14,25 22,53 22,82 z"
   id="path83"
   inkscape:connector-curvature="0"
   style="fill:#ff00ff;stroke:none" />
        <path
   d="m 9630,15888 c 0,28 -7,56 -22,81 -14,24 -34,45 -58,59 -25,14 -52,22 -80,22 -29,0 -56,-8 -81,-22 -24,-14 -44,-35 -58,-59 -15,-25 -22,-53 -22,-81 0,-29 7,-57 22,-82 14,-24 34,-45 58,-59 25,-14 52,-22 81,-22 28,0 55,8 80,22 24,14 44,35 58,59 15,25 22,53 22,82 z"
   id="path85"
   inkscape:connector-curvature="0"
   style="fill:#00ffff;stroke:none" />
        <path
   d="m 9986,16703 c 0,28 -8,55 -22,80 -14,24 -35,44 -59,58 -25,15 -53,22 -81,22 -29,0 -57,-7 -82,-22 -24,-14 -45,-34 -59,-58 -14,-25 -22,-52 -22,-80 0,-29 8,-56 22,-81 14,-24 35,-44 59,-58 25,-15 53,-22 82,-22 28,0 56,7 81,22 24,14 45,34 59,58 14,25 22,52 22,81 z"
   id="path87"
   inkscape:connector-curvature="0"
   style="fill:#ffff00;stroke:none" />
        <path
   d="m 7812,13627 c 0,28 -8,55 -22,80 -14,24 -35,44 -59,58 -25,15 -53,22 -81,22 -29,0 -57,-7 -82,-22 -24,-14 -45,-34 -59,-58 -14,-25 -22,-52 -22,-80 0,-29 8,-56 22,-81 14,-24 35,-44 59,-58 25,-15 53,-22 82,-22 28,0 56,7 81,22 24,14 45,34 59,58 14,25 22,52 22,81 z"
   id="path89"
   inkscape:connector-curvature="0"
   style="fill:#00ffff;stroke:none" />
        <path
   d="m 7971,13327 c 0,28 -8,55 -22,80 -14,24 -35,44 -59,58 -25,15 -53,22 -81,22 -29,0 -57,-7 -82,-22 -24,-14 -45,-34 -59,-58 -14,-25 -22,-52 -22,-80 0,-29 8,-56 22,-81 14,-24 35,-44 59,-58 25,-15 53,-22 82,-22 28,0 56,7 81,22 24,14 45,34 59,58 14,25 22,52 22,81 z"
   id="path91"
   inkscape:connector-curvature="0"
   style="fill:#008000;stroke:none" />
        <path
   d="m 8235,13257 c 0,28 -8,55 -22,80 -14,24 -35,44 -59,58 -25,15 -53,22 -81,22 -29,0 -57,-7 -82,-22 -24,-14 -45,-34 -59,-58 -14,-25 -22,-52 -22,-80 0,-29 8,-56 22,-81 14,-24 35,-44 59,-58 25,-15 53,-22 82,-22 28,0 56,7 81,22 24,14 45,34 59,58 14,25 22,52 22,81 z"
   id="path93"
   inkscape:connector-curvature="0"
   style="fill:#c0c0c0;stroke:none" />
        <path
   d="m 9986,15041 c 0,28 -8,56 -22,81 -14,24 -35,45 -59,59 -25,14 -53,22 -81,22 -29,0 -57,-8 -82,-22 -24,-14 -45,-35 -59,-59 -14,-25 -22,-53 -22,-81 0,-29 8,-57 22,-82 14,-24 35,-45 59,-59 25,-14 53,-22 82,-22 28,0 56,8 81,22 24,14 45,35 59,59 14,25 22,53 22,82 z"
   id="path95"
   inkscape:connector-curvature="0"
   style="fill:#ff8000;stroke:none" />
        <path
   d="m 8359,13806 c 0,28 -8,56 -22,81 -14,24 -35,45 -59,59 -25,14 -53,22 -81,22 -29,0 -57,-8 -82,-22 -24,-14 -45,-35 -59,-59 -14,-25 -22,-53 -22,-81 0,-29 8,-57 22,-82 14,-24 35,-45 59,-59 25,-14 53,-22 82,-22 28,0 56,8 81,22 24,14 45,35 59,59 14,25 22,53 22,82 z"
   id="path97"
   inkscape:connector-curvature="0"
   style="fill:#ffff00;stroke:none" />
        <path
   d="m 8262,13574 c 0,24 -8,47 -22,67 -14,20 -35,37 -59,49 -25,12 -53,18 -81,18 -29,0 -57,-6 -82,-18 -24,-12 -45,-29 -59,-49 -14,-20 -22,-43 -22,-67 0,-24 8,-47 22,-67 14,-20 35,-37 59,-49 25,-12 53,-18 82,-18 28,0 56,6 81,18 24,12 45,29 59,49 14,20 22,43 22,67 z"
   id="path99"
   inkscape:connector-curvature="0"
   style="fill:#008080;stroke:none" />
        <path
   d="m 8006,13991 c 0,28 -8,56 -22,81 -14,24 -35,45 -59,59 -25,14 -53,22 -81,22 -29,0 -57,-8 -82,-22 -24,-14 -45,-35 -59,-59 -14,-25 -22,-53 -22,-81 0,-29 8,-57 22,-82 14,-24 35,-45 59,-59 25,-14 53,-22 82,-22 28,0 56,8 81,22 24,14 45,35 59,59 14,25 22,53 22,82 z"
   id="path101"
   inkscape:connector-curvature="0"
   style="fill:#008000;stroke:none" />
        <path
   d="m 8588,13504 c 0,28 -8,55 -22,80 -14,24 -35,44 -59,58 -25,15 -53,22 -81,22 -29,0 -57,-7 -82,-22 -24,-14 -45,-34 -59,-58 -14,-25 -22,-52 -22,-80 0,-29 8,-56 22,-81 14,-24 35,-44 59,-58 25,-15 53,-22 82,-22 28,0 56,7 81,22 24,14 45,34 59,58 14,25 22,52 22,81 z"
   id="path103"
   inkscape:connector-curvature="0"
   style="fill:#008000;stroke:none" />
        <path
   d="m 7671,14033 c 0,28 -8,55 -22,80 -14,24 -35,44 -59,58 -25,15 -53,22 -81,22 -29,0 -57,-7 -82,-22 -24,-14 -45,-34 -59,-58 -14,-25 -22,-52 -22,-80 0,-29 8,-56 22,-81 14,-24 35,-44 59,-58 25,-15 53,-22 82,-22 28,0 56,7 81,22 24,14 45,34 59,58 14,25 22,52 22,81 z"
   id="path105"
   inkscape:connector-curvature="0"
   style="fill:#ffff00;stroke:none" />
        <path
   d="m 8015,14326 c 0,28 -8,56 -22,81 -14,24 -35,45 -59,59 -25,14 -53,22 -81,22 -29,0 -57,-8 -82,-22 -24,-14 -45,-35 -59,-59 -14,-25 -22,-53 -22,-81 0,-29 8,-57 22,-82 14,-24 35,-45 59,-59 25,-14 53,-22 82,-22 28,0 56,8 81,22 24,14 45,35 59,59 14,25 22,53 22,82 z"
   id="path107"
   inkscape:connector-curvature="0"
   style="fill:#ffff00;stroke:none" />
        <path
   d="m 8068,13726 c 0,28 -8,56 -22,81 -14,24 -35,45 -59,59 -25,14 -53,22 -81,22 -29,0 -57,-8 -82,-22 -24,-14 -45,-35 -59,-59 -14,-25 -22,-53 -22,-81 0,-29 8,-57 22,-82 14,-24 35,-45 59,-59 25,-14 53,-22 82,-22 28,0 56,8 81,22 24,14 45,35 59,59 14,25 22,53 22,82 z"
   id="path109"
   inkscape:connector-curvature="0"
   style="fill:#ff8000;stroke:none" />
        <path
   d="m 9400,15518 c 0,28 -7,56 -22,81 -14,24 -34,45 -58,59 -25,14 -52,22 -80,22 -29,0 -56,-8 -81,-22 -24,-14 -44,-35 -58,-59 -15,-25 -22,-53 -22,-81 0,-29 7,-57 22,-82 14,-24 34,-45 58,-59 25,-14 52,-22 81,-22 28,0 55,8 80,22 24,14 44,35 58,59 15,25 22,53 22,82 z"
   id="path111"
   inkscape:connector-curvature="0"
   style="fill:#c0c0c0;stroke:none" />
        <path
   d="m 9170,15253 c 0,28 -8,56 -22,81 -14,24 -35,45 -59,59 -25,14 -53,22 -81,22 -29,0 -57,-8 -82,-22 -24,-14 -45,-35 -59,-59 -14,-25 -22,-53 -22,-81 0,-29 8,-57 22,-82 14,-24 35,-45 59,-59 25,-14 53,-22 82,-22 28,0 56,8 81,22 24,14 45,35 59,59 14,25 22,53 22,82 z"
   id="path113"
   inkscape:connector-curvature="0"
   style="fill:#ffff00;stroke:none" />
        <path
   d="m 10075,15888 c 0,28 -8,56 -22,81 -14,24 -35,45 -59,59 -25,14 -53,22 -81,22 -29,0 -57,-8 -82,-22 -24,-14 -45,-35 -59,-59 -14,-25 -22,-53 -22,-81 0,-29 8,-57 22,-82 14,-24 35,-45 59,-59 25,-14 53,-22 82,-22 28,0 56,8 81,22 24,14 45,35 59,59 14,25 22,53 22,82 z"
   id="path115"
   inkscape:connector-curvature="0"
   style="fill:#ffff00;stroke:none" />
        <path
   d="m 10428,15571 c 0,28 -8,56 -22,81 -14,24 -35,45 -59,59 -25,14 -53,22 -81,22 -29,0 -57,-8 -82,-22 -24,-14 -45,-35 -59,-59 -14,-25 -22,-53 -22,-81 0,-29 8,-57 22,-82 14,-24 35,-45 59,-59 25,-14 53,-22 82,-22 28,0 56,8 81,22 24,14 45,35 59,59 14,25 22,53 22,82 z"
   id="path117"
   inkscape:connector-curvature="0"
   style="fill:#ff00ff;stroke:none" />
        <path
   d="m 10357,16082 c 0,28 -8,56 -22,81 -14,24 -35,45 -59,59 -25,14 -53,22 -81,22 -29,0 -57,-8 -82,-22 -24,-14 -45,-35 -59,-59 -14,-25 -22,-53 -22,-81 0,-29 8,-57 22,-82 14,-24 35,-45 59,-59 25,-14 53,-22 82,-22 28,0 56,8 81,22 24,14 45,35 59,59 14,25 22,53 22,82 z"
   id="path119"
   inkscape:connector-curvature="0"
   style="fill:#00ff00;stroke:none" />
        <path
   d="m 10833,16914 c 0,28 -8,55 -22,80 -14,24 -35,44 -59,58 -25,15 -53,22 -81,22 -29,0 -57,-7 -82,-22 -24,-14 -45,-34 -59,-58 -14,-25 -22,-52 -22,-80 0,-29 8,-56 22,-81 14,-24 35,-44 59,-58 25,-15 53,-22 82,-22 28,0 56,7 81,22 24,14 45,34 59,58 14,25 22,52 22,81 z"
   id="path121"
   inkscape:connector-curvature="0"
   style="fill:#ffff00;stroke:none" />
        <path
   d="m 12620,17993 c 0,28 -8,56 -22,81 -14,24 -35,45 -59,59 -25,14 -53,22 -81,22 -29,0 -57,-8 -82,-22 -24,-14 -45,-35 -59,-59 -14,-25 -22,-53 -22,-81 0,-29 8,-57 22,-82 14,-24 35,-45 59,-59 25,-14 53,-22 82,-22 28,0 56,8 81,22 24,14 45,35 59,59 14,25 22,53 22,82 z"
   id="path123"
   inkscape:connector-curvature="0"
   style="fill:#ffff00;stroke:none" />
        <path
   d="m 11027,16435 c 0,28 -8,56 -22,81 -14,24 -35,45 -59,59 -25,14 -53,22 -81,22 -29,0 -57,-8 -82,-22 -24,-14 -45,-35 -59,-59 -14,-25 -22,-53 -22,-81 0,-29 8,-57 22,-82 14,-24 35,-45 59,-59 25,-14 53,-22 82,-22 28,0 56,8 81,22 24,14 45,35 59,59 14,25 22,53 22,82 z"
   id="path125"
   inkscape:connector-curvature="0"
   style="fill:#008000;stroke:none" />
        <path
   d="m 11380,17091 c 0,28 -8,55 -22,80 -14,24 -35,44 -59,58 -25,15 -53,22 -81,22 -29,0 -57,-7 -82,-22 -24,-14 -45,-34 -59,-58 -14,-25 -22,-52 -22,-80 0,-29 8,-56 22,-81 14,-24 35,-44 59,-58 25,-15 53,-22 82,-22 28,0 56,7 81,22 24,14 45,34 59,58 14,25 22,52 22,81 z"
   id="path127"
   inkscape:connector-curvature="0"
   style="fill:#ff8000;stroke:none" />
        <path
   d="m 12814,17479 c 0,28 -8,55 -22,80 -14,24 -35,44 -59,58 -25,15 -53,22 -81,22 -29,0 -57,-7 -82,-22 -24,-14 -45,-34 -59,-58 -14,-25 -22,-52 -22,-80 0,-29 8,-56 22,-81 14,-24 35,-44 59,-58 25,-15 53,-22 82,-22 28,0 56,7 81,22 24,14 45,34 59,58 14,25 22,52 22,81 z"
   id="path129"
   inkscape:connector-curvature="0"
   style="fill:#ff00ff;stroke:none" />
        <path
   d="m 12320,17499 c 0,28 -8,56 -22,81 -14,24 -35,45 -59,59 -25,14 -53,22 -81,22 -29,0 -57,-8 -82,-22 -24,-14 -45,-35 -59,-59 -14,-25 -22,-53 -22,-81 0,-29 8,-57 22,-82 14,-24 35,-45 59,-59 25,-14 53,-22 82,-22 28,0 56,8 81,22 24,14 45,35 59,59 14,25 22,53 22,82 z"
   id="path131"
   inkscape:connector-curvature="0"
   style="fill:#ffff00;stroke:none" />
        <path
   d="m 11857,18434 c 0,28 -7,56 -22,81 -14,24 -34,45 -58,59 -25,14 -52,22 -80,22 -29,0 -56,-8 -81,-22 -24,-14 -44,-35 -58,-59 -15,-25 -22,-53 -22,-81 0,-29 7,-57 22,-82 14,-24 34,-45 58,-59 25,-14 52,-22 81,-22 28,0 55,8 80,22 24,14 44,35 58,59 15,25 22,53 22,82 z"
   id="path133"
   inkscape:connector-curvature="0"
   style="fill:#00ffff;stroke:none" />
        <path
   d="m 12196,18240 c 0,28 -8,56 -22,81 -14,24 -35,45 -59,59 -25,14 -53,22 -81,22 -29,0 -57,-8 -82,-22 -24,-14 -45,-35 -59,-59 -14,-25 -22,-53 -22,-81 0,-29 8,-57 22,-82 14,-24 35,-45 59,-59 25,-14 53,-22 82,-22 28,0 56,8 81,22 24,14 45,35 59,59 14,25 22,53 22,82 z"
   id="path135"
   inkscape:connector-curvature="0"
   style="fill:#008000;stroke:none" />
        <path
   d="m 11769,17763 c 0,28 -7,56 -22,81 -14,24 -34,45 -58,59 -25,14 -52,22 -80,22 -29,0 -56,-8 -81,-22 -24,-14 -44,-35 -58,-59 -15,-25 -22,-53 -22,-81 0,-29 7,-57 22,-82 14,-24 34,-45 58,-59 25,-14 52,-22 81,-22 28,0 55,8 80,22 24,14 44,35 58,59 15,25 22,53 22,82 z"
   id="path137"
   inkscape:connector-curvature="0"
   style="fill:#ff00ff;stroke:none" />
        <path
   d="m 12196,19158 c 0,28 -8,56 -22,81 -14,24 -35,45 -59,59 -25,14 -53,22 -81,22 -29,0 -57,-8 -82,-22 -24,-14 -45,-35 -59,-59 -14,-25 -22,-53 -22,-81 0,-29 8,-57 22,-82 14,-24 35,-45 59,-59 25,-14 53,-22 82,-22 28,0 56,8 81,22 24,14 45,35 59,59 14,25 22,53 22,82 z"
   id="path139"
   inkscape:connector-curvature="0"
   style="fill:#ff8000;stroke:none" />
        <path
   d="m 11734,16559 c 0,28 -7,56 -22,81 -14,24 -34,45 -58,59 -25,14 -52,22 -80,22 -29,0 -56,-8 -81,-22 -24,-14 -44,-35 -58,-59 -15,-25 -22,-53 -22,-81 0,-29 7,-57 22,-82 14,-24 34,-45 58,-59 25,-14 52,-22 81,-22 28,0 55,8 80,22 24,14 44,35 58,59 15,25 22,53 22,82 z"
   id="path141"
   inkscape:connector-curvature="0"
   style="fill:#ffff00;stroke:none" />
        <path
   d="m 12920,17056 c 0,28 -8,55 -22,80 -14,24 -35,44 -59,58 -25,15 -53,22 -81,22 -29,0 -57,-7 -82,-22 -24,-14 -45,-34 -59,-58 -14,-25 -22,-52 -22,-80 0,-29 8,-56 22,-81 14,-24 35,-44 59,-58 25,-15 53,-22 82,-22 28,0 56,7 81,22 24,14 45,34 59,58 14,25 22,52 22,81 z"
   id="path143"
   inkscape:connector-curvature="0"
   style="fill:#ffff00;stroke:none" />
        <path
   d="m 12037,16135 c 0,28 -8,56 -22,81 -14,24 -35,45 -59,59 -25,14 -53,22 -81,22 -29,0 -57,-8 -82,-22 -24,-14 -45,-35 -59,-59 -14,-25 -22,-53 -22,-81 0,-29 8,-57 22,-82 14,-24 35,-45 59,-59 25,-14 53,-22 82,-22 28,0 56,8 81,22 24,14 45,35 59,59 14,25 22,53 22,82 z"
   id="path145"
   inkscape:connector-curvature="0"
   style="fill:#008000;stroke:none" />
        <path
   d="m 12337,16755 c 0,28 -8,55 -22,80 -14,24 -35,44 -59,58 -25,15 -53,22 -81,22 -29,0 -57,-7 -82,-22 -24,-14 -45,-34 -59,-58 -14,-25 -22,-52 -22,-80 0,-29 8,-56 22,-81 14,-24 35,-44 59,-58 25,-15 53,-22 82,-22 28,0 56,7 81,22 24,14 45,34 59,58 14,25 22,52 22,81 z"
   id="path147"
   inkscape:connector-curvature="0"
   style="fill:#00ffff;stroke:none" />
        <path
   d="m 14671,16312 c 0,28 -8,56 -22,81 -14,24 -35,45 -59,59 -25,14 -53,22 -81,22 -29,0 -57,-8 -82,-22 -24,-14 -45,-35 -59,-59 -14,-25 -22,-53 -22,-81 0,-29 8,-57 22,-82 14,-24 35,-45 59,-59 25,-14 53,-22 82,-22 28,0 56,8 81,22 24,14 45,35 59,59 14,25 22,53 22,82 z"
   id="path149"
   inkscape:connector-curvature="0"
   style="fill:#c0c0c0;stroke:none" />
        <path
   d="m 14265,15924 c 0,28 -8,56 -22,81 -14,24 -35,45 -59,59 -25,14 -53,22 -81,22 -29,0 -57,-8 -82,-22 -24,-14 -45,-35 -59,-59 -14,-25 -22,-53 -22,-81 0,-29 8,-57 22,-82 14,-24 35,-45 59,-59 25,-14 53,-22 82,-22 28,0 56,8 81,22 24,14 45,35 59,59 14,25 22,53 22,82 z"
   id="path151"
   inkscape:connector-curvature="0"
   style="fill:#ffff00;stroke:none" />
        <path
   d="m 14102,16330 c 0,28 -7,56 -22,81 -14,24 -34,45 -58,59 -25,14 -52,22 -80,22 -29,0 -56,-8 -81,-22 -24,-14 -44,-35 -58,-59 -15,-25 -22,-53 -22,-81 0,-29 7,-57 22,-82 14,-24 34,-45 58,-59 25,-14 52,-22 81,-22 28,0 55,8 80,22 24,14 44,35 58,59 15,25 22,53 22,82 z"
   id="path153"
   inkscape:connector-curvature="0"
   style="fill:#00ffff;stroke:none" />
        <path
   d="m 13502,16241 c 0,28 -8,56 -22,81 -14,24 -35,45 -59,59 -25,14 -53,22 -81,22 -29,0 -57,-8 -82,-22 -24,-14 -45,-35 -59,-59 -14,-25 -22,-53 -22,-81 0,-29 8,-57 22,-82 14,-24 35,-45 59,-59 25,-14 53,-22 82,-22 28,0 56,8 81,22 24,14 45,35 59,59 14,25 22,53 22,82 z"
   id="path155"
   inkscape:connector-curvature="0"
   style="fill:#ff8000;stroke:none" />
        <path
   d="m 14918,16100 c 0,28 -8,56 -22,81 -14,24 -35,45 -59,59 -25,14 -53,22 -81,22 -29,0 -57,-8 -82,-22 -24,-14 -45,-35 -59,-59 -14,-25 -22,-53 -22,-81 0,-29 8,-57 22,-82 14,-24 35,-45 59,-59 25,-14 53,-22 82,-22 28,0 56,8 81,22 24,14 45,35 59,59 14,25 22,53 22,82 z"
   id="path157"
   inkscape:connector-curvature="0"
   style="fill:#ffff00;stroke:none" />
        <path
   d="m 13572,16630 c 0,28 -8,56 -22,81 -14,24 -35,45 -59,59 -25,14 -53,22 -81,22 -29,0 -57,-8 -82,-22 -24,-14 -45,-35 -59,-59 -14,-25 -22,-53 -22,-81 0,-29 8,-57 22,-82 14,-24 35,-45 59,-59 25,-14 53,-22 82,-22 28,0 56,8 81,22 24,14 45,35 59,59 14,25 22,53 22,82 z"
   id="path159"
   inkscape:connector-curvature="0"
   style="fill:#008000;stroke:none" />
        <path
   d="m 14618,15588 c 0,28 -8,56 -22,81 -14,24 -35,45 -59,59 -25,14 -53,22 -81,22 -29,0 -57,-8 -82,-22 -24,-14 -45,-35 -59,-59 -14,-25 -22,-53 -22,-81 0,-29 8,-57 22,-82 14,-24 35,-45 59,-59 25,-14 53,-22 82,-22 28,0 56,8 81,22 24,14 45,35 59,59 14,25 22,53 22,82 z"
   id="path161"
   inkscape:connector-curvature="0"
   style="fill:#ff8000;stroke:none" />
        <path
   d="m 14494,16118 c 0,28 -8,56 -22,81 -14,24 -35,45 -59,59 -25,14 -53,22 -81,22 -29,0 -57,-8 -82,-22 -24,-14 -45,-35 -59,-59 -14,-25 -22,-53 -22,-81 0,-29 8,-57 22,-82 14,-24 35,-45 59,-59 25,-14 53,-22 82,-22 28,0 56,8 81,22 24,14 45,35 59,59 14,25 22,53 22,82 z"
   id="path163"
   inkscape:connector-curvature="0"
   style="fill:#ff00ff;stroke:none" />
        <path
   d="m 15765,15465 c 0,28 -8,56 -22,81 -14,24 -35,45 -59,59 -25,14 -53,22 -81,22 -29,0 -57,-8 -82,-22 -24,-14 -45,-35 -59,-59 -14,-25 -22,-53 -22,-81 0,-29 8,-57 22,-82 14,-24 35,-45 59,-59 25,-14 53,-22 82,-22 28,0 56,8 81,22 24,14 45,35 59,59 14,25 22,53 22,82 z"
   id="path165"
   inkscape:connector-curvature="0"
   style="fill:#ffff00;stroke:none" />
        <path
   d="m 14918,15818 c 0,28 -8,56 -22,81 -14,24 -35,45 -59,59 -25,14 -53,22 -81,22 -29,0 -57,-8 -82,-22 -24,-14 -45,-35 -59,-59 -14,-25 -22,-53 -22,-81 0,-29 8,-57 22,-82 14,-24 35,-45 59,-59 25,-14 53,-22 82,-22 28,0 56,8 81,22 24,14 45,35 59,59 14,25 22,53 22,82 z"
   id="path167"
   inkscape:connector-curvature="0"
   style="fill:#008000;stroke:none" />
        <path
   d="m 15376,15800 c 0,28 -8,56 -22,81 -14,24 -35,45 -59,59 -25,14 -53,22 -81,22 -29,0 -57,-8 -82,-22 -24,-14 -45,-35 -59,-59 -14,-25 -22,-53 -22,-81 0,-29 8,-57 22,-82 14,-24 35,-45 59,-59 25,-14 53,-22 82,-22 28,0 56,8 81,22 24,14 45,35 59,59 14,25 22,53 22,82 z"
   id="path169"
   inkscape:connector-curvature="0"
   style="fill:#ff8000;stroke:none" />
        <path
   d="m 15535,15394 c 0,28 -8,56 -22,81 -14,24 -35,45 -59,59 -25,14 -53,22 -81,22 -29,0 -57,-8 -82,-22 -24,-14 -45,-35 -59,-59 -14,-25 -22,-53 -22,-81 0,-29 8,-57 22,-82 14,-24 35,-45 59,-59 25,-14 53,-22 82,-22 28,0 56,8 81,22 24,14 45,35 59,59 14,25 22,53 22,82 z"
   id="path171"
   inkscape:connector-curvature="0"
   style="fill:#c0c0c0;stroke:none" />
        <path
   d="m 15235,15376 c 0,28 -8,56 -22,81 -14,24 -35,45 -59,59 -25,14 -53,22 -81,22 -29,0 -57,-8 -82,-22 -24,-14 -45,-35 -59,-59 -14,-25 -22,-53 -22,-81 0,-29 8,-57 22,-82 14,-24 35,-45 59,-59 25,-14 53,-22 82,-22 28,0 56,8 81,22 24,14 45,35 59,59 14,25 22,53 22,82 z"
   id="path173"
   inkscape:connector-curvature="0"
   style="fill:#008000;stroke:none" />
        <path
   d="m 15606,15147 c 0,28 -8,56 -22,81 -14,24 -35,45 -59,59 -25,14 -53,22 -81,22 -29,0 -57,-8 -82,-22 -24,-14 -45,-35 -59,-59 -14,-25 -22,-53 -22,-81 0,-29 8,-57 22,-82 14,-24 35,-45 59,-59 25,-14 53,-22 82,-22 28,0 56,8 81,22 24,14 45,35 59,59 14,25 22,53 22,82 z"
   id="path175"
   inkscape:connector-curvature="0"
   style="fill:#ffff00;stroke:none" />
        <path
   d="m 15218,15765 c 0,28 -8,56 -22,81 -14,24 -35,45 -59,59 -25,14 -53,22 -81,22 -29,0 -57,-8 -82,-22 -24,-14 -45,-35 -59,-59 -14,-25 -22,-53 -22,-81 0,-29 8,-57 22,-82 14,-24 35,-45 59,-59 25,-14 53,-22 82,-22 28,0 56,8 81,22 24,14 45,35 59,59 14,25 22,53 22,82 z"
   id="path177"
   inkscape:connector-curvature="0"
   style="fill:#00c000;stroke:none" />
        <path
   d="m 15906,15129 c 0,28 -8,56 -22,81 -14,24 -35,45 -59,59 -25,14 -53,22 -81,22 -29,0 -57,-8 -82,-22 -24,-14 -45,-35 -59,-59 -14,-25 -22,-53 -22,-81 0,-29 8,-57 22,-82 14,-24 35,-45 59,-59 25,-14 53,-22 82,-22 28,0 56,8 81,22 24,14 45,35 59,59 14,25 22,53 22,82 z"
   id="path179"
   inkscape:connector-curvature="0"
   style="fill:#c0c0c0;stroke:none" />
        <path
   d="m 15853,15271 c 0,28 -8,56 -22,81 -14,24 -35,45 -59,59 -25,14 -53,22 -81,22 -29,0 -57,-8 -82,-22 -24,-14 -45,-35 -59,-59 -14,-25 -22,-53 -22,-81 0,-29 8,-57 22,-82 14,-24 35,-45 59,-59 25,-14 53,-22 82,-22 28,0 56,8 81,22 24,14 45,35 59,59 14,25 22,53 22,82 z"
   id="path181"
   inkscape:connector-curvature="0"
   style="fill:#008000;stroke:none" />
        <path
   d="m 8676,13841 c 0,28 -8,56 -22,81 -14,24 -35,45 -59,59 -25,14 -53,22 -81,22 -29,0 -57,-8 -82,-22 -24,-14 -45,-35 -59,-59 -14,-25 -22,-53 -22,-81 0,-29 8,-57 22,-82 14,-24 35,-45 59,-59 25,-14 53,-22 82,-22 28,0 56,8 81,22 24,14 45,35 59,59 14,25 22,53 22,82 z"
   id="path183"
   inkscape:connector-curvature="0"
   style="fill:#ff00ff;stroke:none" />
        <path
   d="m 8425,14221 c 0,28 -8,56 -22,81 -14,24 -35,45 -59,59 -25,14 -53,22 -81,22 -29,0 -57,-8 -82,-22 -24,-14 -45,-35 -59,-59 -14,-25 -22,-53 -22,-81 0,-29 8,-57 22,-82 14,-24 35,-45 59,-59 25,-14 53,-22 82,-22 28,0 56,8 81,22 24,14 45,35 59,59 14,25 22,53 22,82 z"
   id="path185"
   inkscape:connector-curvature="0"
   style="fill:#ff8000;stroke:none" />
        <path
   d="m 8209,14686 c 0,28 -8,55 -22,80 -14,24 -35,44 -59,58 -25,15 -53,22 -81,22 -29,0 -57,-7 -82,-22 -24,-14 -45,-34 -59,-58 -14,-25 -22,-52 -22,-80 0,-29 8,-56 22,-81 14,-24 35,-44 59,-58 25,-15 53,-22 82,-22 28,0 56,7 81,22 24,14 45,34 59,58 14,25 22,52 22,81 z"
   id="path187"
   inkscape:connector-curvature="0"
   style="fill:#c0c0c0;stroke:none" />
        <path
   d="m 8712,14141 c 0,28 -7,56 -22,81 -14,24 -34,45 -58,59 -25,14 -52,22 -80,22 -29,0 -56,-8 -81,-22 -24,-14 -44,-35 -58,-59 -15,-25 -22,-53 -22,-81 0,-29 7,-57 22,-82 14,-24 34,-45 58,-59 25,-14 52,-22 81,-22 28,0 55,8 80,22 24,14 44,35 58,59 15,25 22,53 22,82 z"
   id="path189"
   inkscape:connector-curvature="0"
   style="fill:#c0c0c0;stroke:none" />
        <path
   d="m 8310,14406 c 0,28 -8,56 -22,81 -14,24 -35,45 -59,59 -25,14 -53,22 -81,22 -29,0 -57,-8 -82,-22 -24,-14 -45,-35 -59,-59 -14,-25 -22,-53 -22,-81 0,-29 8,-57 22,-82 14,-24 35,-45 59,-59 25,-14 53,-22 82,-22 28,0 56,8 81,22 24,14 45,35 59,59 14,25 22,53 22,82 z"
   id="path191"
   inkscape:connector-curvature="0"
   style="fill:#ff00ff;stroke:none" />
        <path
   d="m 9056,14062 c 0,28 -7,56 -22,81 -14,24 -34,45 -58,59 -25,14 -52,22 -80,22 -29,0 -56,-8 -81,-22 -24,-14 -44,-35 -58,-59 -15,-25 -22,-53 -22,-81 0,-29 7,-57 22,-82 14,-24 34,-45 58,-59 25,-14 52,-22 81,-22 28,0 55,8 80,22 24,14 44,35 58,59 15,25 22,53 22,82 z"
   id="path193"
   inkscape:connector-curvature="0"
   style="fill:#c0c0c0;stroke:none" />
        <path
   d="m 8875,14362 c 0,28 -7,56 -22,81 -14,24 -34,45 -58,59 -25,14 -52,22 -80,22 -29,0 -56,-8 -81,-22 -24,-14 -44,-35 -58,-59 -15,-25 -22,-53 -22,-81 0,-29 7,-57 22,-82 14,-24 34,-45 58,-59 25,-14 52,-22 81,-22 28,0 55,8 80,22 24,14 44,35 58,59 15,25 22,53 22,82 z"
   id="path195"
   inkscape:connector-curvature="0"
   style="fill:#ffff00;stroke:none" />
        <path
   d="m 9338,14534 c 0,28 -8,56 -22,81 -14,24 -35,45 -59,59 -25,14 -53,22 -81,22 -29,0 -57,-8 -82,-22 -24,-14 -45,-35 -59,-59 -14,-25 -22,-53 -22,-81 0,-29 8,-57 22,-82 14,-24 35,-45 59,-59 25,-14 53,-22 82,-22 28,0 56,8 81,22 24,14 45,35 59,59 14,25 22,53 22,82 z"
   id="path197"
   inkscape:connector-curvature="0"
   style="fill:#008000;stroke:none" />
        <path
   d="m 14997,15244 c 0,28 -8,56 -22,81 -14,24 -35,45 -59,59 -25,14 -53,22 -81,22 -29,0 -57,-8 -82,-22 -24,-14 -45,-35 -59,-59 -14,-25 -22,-53 -22,-81 0,-29 8,-57 22,-82 14,-24 35,-45 59,-59 25,-14 53,-22 82,-22 28,0 56,8 81,22 24,14 45,35 59,59 14,25 22,53 22,82 z"
   id="path199"
   inkscape:connector-curvature="0"
   style="fill:#ff00ff;stroke:none" />
        <path
   d="m 15275,15035 c 0,28 -8,55 -22,80 -14,24 -35,44 -59,58 -25,15 -53,22 -81,22 -29,0 -57,-7 -82,-22 -24,-14 -45,-34 -59,-58 -14,-25 -22,-52 -22,-80 0,-29 8,-56 22,-81 14,-24 35,-44 59,-58 25,-15 53,-22 82,-22 28,0 56,7 81,22 24,14 45,34 59,58 14,25 22,52 22,81 z"
   id="path201"
   inkscape:connector-curvature="0"
   style="fill:#00ffff;stroke:none" />
        <path
   d="m 14675,15222 c 0,28 -8,56 -22,81 -14,24 -35,45 -59,59 -25,14 -53,22 -81,22 -29,0 -57,-8 -82,-22 -24,-14 -45,-35 -59,-59 -14,-25 -22,-53 -22,-81 0,-29 8,-57 22,-82 14,-24 35,-45 59,-59 25,-14 53,-22 82,-22 28,0 56,8 81,22 24,14 45,35 59,59 14,25 22,53 22,82 z"
   id="path203"
   inkscape:connector-curvature="0"
   style="fill:#ffff00;stroke:none" />
        <path
   d="m 14922,14984 c 0,28 -8,56 -22,81 -14,24 -35,45 -59,59 -25,14 -53,22 -81,22 -29,0 -57,-8 -82,-22 -24,-14 -45,-35 -59,-59 -14,-25 -22,-53 -22,-81 0,-29 8,-57 22,-82 14,-24 35,-45 59,-59 25,-14 53,-22 82,-22 28,0 56,8 81,22 24,14 45,35 59,59 14,25 22,53 22,82 z"
   id="path205"
   inkscape:connector-curvature="0"
   style="fill:#008000;stroke:none" />
        <path
   d="m 15742,14878 c 0,28 -8,56 -22,81 -14,24 -35,45 -59,59 -25,14 -53,22 -81,22 -29,0 -57,-8 -82,-22 -24,-14 -45,-35 -59,-59 -14,-25 -22,-53 -22,-81 0,-29 8,-57 22,-82 14,-24 35,-45 59,-59 25,-14 53,-22 82,-22 28,0 56,8 81,22 24,14 45,35 59,59 14,25 22,53 22,82 z"
   id="path207"
   inkscape:connector-curvature="0"
   style="fill:#008000;stroke:none" />
        <path
   d="m 7697,13157 c 0,28 -8,56 -22,81 -14,24 -35,45 -59,59 -25,14 -53,22 -81,22 -29,0 -57,-8 -82,-22 -24,-14 -45,-35 -59,-59 -14,-25 -22,-53 -22,-81 0,-29 8,-57 22,-82 14,-24 35,-45 59,-59 25,-14 53,-22 82,-22 28,0 56,8 81,22 24,14 45,35 59,59 14,25 22,53 22,82 z"
   id="path209"
   inkscape:connector-curvature="0"
   style="fill:#008000;stroke:none" />
        <path
   d="m 15474,14772 c 0,28 -7,56 -22,81 -14,24 -34,45 -58,59 -25,14 -52,22 -80,22 -29,0 -56,-8 -81,-22 -24,-14 -44,-35 -58,-59 -15,-25 -22,-53 -22,-81 0,-29 7,-57 22,-82 14,-24 34,-45 58,-59 25,-14 52,-22 81,-22 28,0 55,8 80,22 24,14 44,35 58,59 15,25 22,53 22,82 z"
   id="path211"
   inkscape:connector-curvature="0"
   style="fill:#ff00ff;stroke:none" />
        <path
   d="m 15169,14776 c 0,28 -7,56 -22,81 -14,24 -34,45 -58,59 -25,14 -52,22 -80,22 -29,0 -56,-8 -81,-22 -24,-14 -44,-35 -58,-59 -15,-25 -22,-53 -22,-81 0,-29 7,-57 22,-82 14,-24 34,-45 58,-59 25,-14 52,-22 81,-22 28,0 55,8 80,22 24,14 44,35 58,59 15,25 22,53 22,82 z"
   id="path213"
   inkscape:connector-curvature="0"
   style="fill:#c0c0c0;stroke:none" />
        <path
   d="m 15769,14600 c 0,28 -8,56 -22,81 -14,24 -35,45 -59,59 -25,14 -53,22 -81,22 -29,0 -57,-8 -82,-22 -24,-14 -45,-35 -59,-59 -14,-25 -22,-53 -22,-81 0,-29 8,-57 22,-82 14,-24 35,-45 59,-59 25,-14 53,-22 82,-22 28,0 56,8 81,22 24,14 45,35 59,59 14,25 22,53 22,82 z"
   id="path215"
   inkscape:connector-curvature="0"
   style="fill:#008000;stroke:none" />
        <path
   d="m 15914,14750 c 0,28 -8,56 -22,81 -14,24 -35,45 -59,59 -25,14 -53,22 -81,22 -29,0 -57,-8 -82,-22 -24,-14 -45,-35 -59,-59 -14,-25 -22,-53 -22,-81 0,-29 8,-57 22,-82 14,-24 35,-45 59,-59 25,-14 53,-22 82,-22 28,0 56,8 81,22 24,14 45,35 59,59 14,25 22,53 22,82 z"
   id="path217"
   inkscape:connector-curvature="0"
   style="fill:#ff8000;stroke:none" />
        <path
   d="m 4474,16202 h 2581 l 132,31 110,66 71,66 70,88 40,71 49,101 31,84 26,84 22,102 22,114 13,137 9,146 v 114 l -17,133 -14,110 -26,119 -40,132 -35,89 -44,84 -49,79 -62,79 -83,75 -80,40 -132,35 -4164,5 -137,-35 -132,-49 -137,-75 -101,-84 -79,-84 -67,-88 -61,-110 -53,-115 -49,-123 -31,-128 -13,-137 v -124 l 13,-132 22,-128 45,-137 61,-137 66,-110 67,-84 105,-114 102,-67 119,-61 101,-36 120,-26 132,-9 z"
   id="path219"
   inkscape:connector-curvature="0"
   style="fill:#ff0000;stroke:none" />
        <path
   d="m 4474,16202 h 2581 l 132,31 110,66 71,66 70,88 40,71 49,101 31,84 26,84 22,102 22,114 13,137 9,146 v 114 l -17,133 -14,110 -26,119 -40,132 -35,89 -44,84 -49,79 -62,79 -83,75 -80,40 -132,35 -4164,5 -137,-35 -132,-49 -137,-75 -101,-84 -79,-84 -67,-88 -61,-110 -53,-115 -49,-123 -31,-128 -13,-137 v -124 l 13,-132 22,-128 45,-137 61,-137 66,-110 67,-84 105,-114 102,-67 119,-61 101,-36 120,-26 132,-9 z"
   id="path221"
   inkscape:connector-curvature="0"
   style="fill:none;stroke:#000000;stroke-width:35;stroke-linecap:round;stroke-linejoin:round" />
        <path
   d="m 7680,17307 c 0,192 -28,381 -80,548 -53,167 -129,305 -220,401 -91,96 -194,147 -299,147 -106,0 -209,-51 -300,-147 -91,-96 -167,-234 -220,-401 -52,-167 -80,-356 -80,-548 0,-192 28,-381 80,-548 53,-167 129,-305 220,-401 91,-96 194,-147 299,-147 106,0 209,51 300,147 91,96 167,234 220,401 52,167 80,356 80,548 z"
   id="path223"
   inkscape:connector-curvature="0"
   style="fill:#400000;stroke:none" />
        <path
   d="m 7677,17305 -1,-55 -2,-56 -4,-55 -5,-54 -7,-54 -9,-54 -9,-52 -12,-51 -12,-51 -14,-49 -16,-48 -17,-46 -18,-45 -19,-43 -20,-41 -22,-39 -22,-37 -24,-35 -24,-33 -26,-30 -26,-29 -27,-25 -27,-23 -29,-21 -28,-18 -30,-15 -29,-13 -30,-9 -30,-7 -31,-5 -30,-1 v 0 l -30,1 -31,5 -30,7 -30,9 -29,13 -30,15 -28,18 -29,21 -27,23 -27,25 -26,29 -26,30 -24,33 -24,35 -22,37 -22,39 -20,41 -19,43 -18,45 -17,46 -16,48 -14,49 -12,51 -12,51 -9,52 -9,54 -7,54 -5,54 -4,55 -2,56 -1,55 v 0 l 1,55 2,56 4,55 5,54 7,54 9,54 9,52 12,51 12,51 14,49 16,48 17,46 18,45 19,43 20,41 22,39 22,37 24,35 24,33 26,30 26,29 27,25 27,23 29,21 28,18 30,15 29,13 30,9 30,7 31,5 30,1 v 0 l 30,-1 31,-5 30,-7 30,-9 29,-13 30,-15 28,-18 29,-21 27,-23 27,-25 26,-29 26,-30 24,-33 24,-35 22,-37 22,-39 20,-41 19,-43 18,-45 17,-46 16,-48 14,-49 12,-51 12,-51 9,-52 9,-54 7,-54 5,-54 4,-55 2,-56 z"
   id="path225"
   inkscape:connector-curvature="0"
   style="fill:none;stroke:#000000;stroke-width:35;stroke-linecap:round;stroke-linejoin:round" />
        <path
   d="m 6873,17737 c 0,28 -7,56 -22,81 -14,24 -34,45 -58,59 -25,14 -52,22 -80,22 -29,0 -56,-8 -81,-22 -24,-14 -44,-35 -58,-59 -15,-25 -22,-53 -22,-81 0,-29 7,-57 22,-82 14,-24 34,-45 58,-59 25,-14 52,-22 81,-22 28,0 55,8 80,22 24,14 44,35 58,59 15,25 22,53 22,82 z"
   id="path227"
   inkscape:connector-curvature="0"
   style="fill:#00ffff;stroke:none" />
        <path
   d="m 6802,17163 c 0,28 -7,56 -22,81 -14,24 -34,45 -58,59 -25,14 -52,22 -80,22 -29,0 -56,-8 -81,-22 -24,-14 -44,-35 -58,-59 -15,-25 -22,-53 -22,-81 0,-29 7,-57 22,-82 14,-24 34,-45 58,-59 25,-14 52,-22 81,-22 28,0 55,8 80,22 24,14 44,35 58,59 15,25 22,53 22,82 z"
   id="path229"
   inkscape:connector-curvature="0"
   style="fill:#c0c0c0;stroke:none" />
        <path
   d="m 7212,17746 c 0,28 -8,56 -22,81 -14,24 -35,45 -59,59 -25,14 -53,22 -81,22 -29,0 -57,-8 -82,-22 -24,-14 -45,-35 -59,-59 -14,-25 -22,-53 -22,-81 0,-29 8,-57 22,-82 14,-24 35,-45 59,-59 25,-14 53,-22 82,-22 28,0 56,8 81,22 24,14 45,35 59,59 14,25 22,53 22,82 z"
   id="path231"
   inkscape:connector-curvature="0"
   style="fill:#ffff00;stroke:none" />
        <path
   d="m 7565,17428 c 0,28 -8,56 -22,81 -14,24 -35,45 -59,59 -25,14 -53,22 -81,22 -29,0 -57,-8 -82,-22 -24,-14 -45,-35 -59,-59 -14,-25 -22,-53 -22,-81 0,-29 8,-57 22,-82 14,-24 35,-45 59,-59 25,-14 53,-22 82,-22 28,0 56,8 81,22 24,14 45,35 59,59 14,25 22,53 22,82 z"
   id="path233"
   inkscape:connector-curvature="0"
   style="fill:#ff00ff;stroke:none" />
        <path
   d="m 7494,17940 c 0,28 -8,56 -22,81 -14,24 -35,45 -59,59 -25,14 -53,22 -81,22 -29,0 -57,-8 -82,-22 -24,-14 -45,-35 -59,-59 -14,-25 -22,-53 -22,-81 0,-29 8,-57 22,-82 14,-24 35,-45 59,-59 25,-14 53,-22 82,-22 28,0 56,8 81,22 24,14 45,35 59,59 14,25 22,53 22,82 z"
   id="path235"
   inkscape:connector-curvature="0"
   style="fill:#00ff00;stroke:none" />
        <path
   d="m 7472,17069 c 0,28 -8,55 -22,80 -14,24 -35,44 -59,58 -25,15 -53,22 -81,22 -29,0 -57,-7 -82,-22 -24,-14 -45,-34 -59,-58 -14,-25 -22,-52 -22,-80 0,-29 8,-56 22,-81 14,-24 35,-44 59,-58 25,-15 53,-22 82,-22 28,0 56,7 81,22 24,14 45,34 59,58 14,25 22,52 22,81 z"
   id="path237"
   inkscape:connector-curvature="0"
   style="fill:#008000;stroke:none" />
        <path
   d="m 6952,17598 c 0,28 -8,55 -22,80 -14,24 -35,44 -59,58 -25,15 -53,22 -81,22 -29,0 -57,-7 -82,-22 -24,-14 -45,-34 -59,-58 -14,-25 -22,-52 -22,-80 0,-29 8,-56 22,-81 14,-24 35,-44 59,-58 25,-15 53,-22 82,-22 28,0 56,7 81,22 24,14 45,34 59,58 14,25 22,52 22,81 z"
   id="path239"
   inkscape:connector-curvature="0"
   style="fill:#ffff00;stroke:none" />
        <path
   d="m 6952,17291 c 0,28 -8,56 -22,81 -14,24 -35,45 -59,59 -25,14 -53,22 -81,22 -29,0 -57,-8 -82,-22 -24,-14 -45,-35 -59,-59 -14,-25 -22,-53 -22,-81 0,-29 8,-57 22,-82 14,-24 35,-45 59,-59 25,-14 53,-22 82,-22 28,0 56,8 81,22 24,14 45,35 59,59 14,25 22,53 22,82 z"
   id="path241"
   inkscape:connector-curvature="0"
   style="fill:#ff8000;stroke:none" />
        <path
   d="m 7309,17786 c 0,28 -8,56 -22,81 -14,24 -35,45 -59,59 -25,14 -53,22 -81,22 -29,0 -57,-8 -82,-22 -24,-14 -45,-35 -59,-59 -14,-25 -22,-53 -22,-81 0,-29 8,-57 22,-82 14,-24 35,-45 59,-59 25,-14 53,-22 82,-22 28,0 56,8 81,22 24,14 45,35 59,59 14,25 22,53 22,82 z"
   id="path243"
   inkscape:connector-curvature="0"
   style="fill:#ff8000;stroke:none" />
        <path
   d="m 7194,17971 c 0,28 -8,56 -22,81 -14,24 -35,45 -59,59 -25,14 -53,22 -81,22 -29,0 -57,-8 -82,-22 -24,-14 -45,-35 -59,-59 -14,-25 -22,-53 -22,-81 0,-29 8,-57 22,-82 14,-24 35,-45 59,-59 25,-14 53,-22 82,-22 28,0 56,8 81,22 24,14 45,35 59,59 14,25 22,53 22,82 z"
   id="path245"
   inkscape:connector-curvature="0"
   style="fill:#ff00ff;stroke:none" />
        <path
   d="m 7662,17547 c 0,28 -7,56 -22,81 -14,24 -34,45 -58,59 -25,14 -52,22 -80,22 -29,0 -56,-8 -81,-22 -24,-14 -44,-35 -58,-59 -15,-25 -22,-53 -22,-81 0,-29 7,-57 22,-82 14,-24 34,-45 58,-59 25,-14 52,-22 81,-22 28,0 55,8 80,22 24,14 44,35 58,59 15,25 22,53 22,82 z"
   id="path247"
   inkscape:connector-curvature="0"
   style="fill:#c0c0c0;stroke:none" />
        <path
   d="m 7437,18169 c 0,28 -8,56 -22,81 -14,24 -35,45 -59,59 -25,14 -53,22 -81,22 -29,0 -57,-8 -82,-22 -24,-14 -45,-35 -59,-59 -14,-25 -22,-53 -22,-81 0,-29 8,-57 22,-82 14,-24 35,-45 59,-59 25,-14 53,-22 82,-22 28,0 56,8 81,22 24,14 45,35 59,59 14,25 22,53 22,82 z"
   id="path249"
   inkscape:connector-curvature="0"
   style="fill:#00ffff;stroke:none" />
        <path
   d="m 7243,18240 c 0,28 -8,56 -22,81 -14,24 -35,45 -59,59 -25,14 -53,22 -81,22 -29,0 -57,-8 -82,-22 -24,-14 -45,-35 -59,-59 -14,-25 -22,-53 -22,-81 0,-29 8,-57 22,-82 14,-24 35,-45 59,-59 25,-14 53,-22 82,-22 28,0 56,8 81,22 24,14 45,35 59,59 14,25 22,53 22,82 z"
   id="path251"
   inkscape:connector-curvature="0"
   style="fill:#ff8000;stroke:none" />
        <path
   d="m 7014,16996 c 0,28 -8,56 -22,81 -14,24 -35,45 -59,59 -25,14 -53,22 -81,22 -29,0 -57,-8 -82,-22 -24,-14 -45,-35 -59,-59 -14,-25 -22,-53 -22,-81 0,-29 8,-57 22,-82 14,-24 35,-45 59,-59 25,-14 53,-22 82,-22 28,0 56,8 81,22 24,14 45,35 59,59 14,25 22,53 22,82 z"
   id="path253"
   inkscape:connector-curvature="0"
   style="fill:#008000;stroke:none" />
        <path
   d="m 6996,17384 c 0,28 -8,56 -22,81 -14,24 -35,45 -59,59 -25,14 -53,22 -81,22 -29,0 -57,-8 -82,-22 -24,-14 -45,-35 -59,-59 -14,-25 -22,-53 -22,-81 0,-29 8,-57 22,-82 14,-24 35,-45 59,-59 25,-14 53,-22 82,-22 28,0 56,8 81,22 24,14 45,35 59,59 14,25 22,53 22,82 z"
   id="path255"
   inkscape:connector-curvature="0"
   style="fill:#00c000;stroke:none" />
        <path
   d="m 6881,16846 c 0,28 -8,56 -22,81 -14,24 -35,45 -59,59 -25,14 -53,22 -81,22 -29,0 -57,-8 -82,-22 -24,-14 -45,-35 -59,-59 -14,-25 -22,-53 -22,-81 0,-29 8,-57 22,-82 14,-24 35,-45 59,-59 25,-14 53,-22 82,-22 28,0 56,8 81,22 24,14 45,35 59,59 14,25 22,53 22,82 z"
   id="path257"
   inkscape:connector-curvature="0"
   style="fill:#ff00ff;stroke:none" />
        <path
   d="m 7053,16654 c 0,28 -8,55 -22,80 -14,24 -35,44 -59,58 -25,15 -53,22 -81,22 -29,0 -57,-7 -82,-22 -24,-14 -45,-34 -59,-58 -14,-25 -22,-52 -22,-80 0,-29 8,-56 22,-81 14,-24 35,-44 59,-58 25,-15 53,-22 82,-22 28,0 56,7 81,22 24,14 45,34 59,58 14,25 22,52 22,81 z"
   id="path259"
   inkscape:connector-curvature="0"
   style="fill:#00ffff;stroke:none" />
        <path
   d="m 6824,17013 c 0,28 -8,56 -22,81 -14,24 -35,45 -59,59 -25,14 -53,22 -81,22 -29,0 -57,-8 -82,-22 -24,-14 -45,-35 -59,-59 -14,-25 -22,-53 -22,-81 0,-29 8,-57 22,-82 14,-24 35,-45 59,-59 25,-14 53,-22 82,-22 28,0 56,8 81,22 24,14 45,35 59,59 14,25 22,53 22,82 z"
   id="path261"
   inkscape:connector-curvature="0"
   style="fill:#ffff00;stroke:none" />
        <path
   d="m 7071,16510 c 0,28 -8,56 -22,81 -14,24 -35,45 -59,59 -25,14 -53,22 -81,22 -29,0 -57,-8 -82,-22 -24,-14 -45,-35 -59,-59 -14,-25 -22,-53 -22,-81 0,-29 8,-57 22,-82 14,-24 35,-45 59,-59 25,-14 53,-22 82,-22 28,0 56,8 81,22 24,14 45,35 59,59 14,25 22,53 22,82 z"
   id="path263"
   inkscape:connector-curvature="0"
   style="fill:#008000;stroke:none" />
        <path
   d="m 7040,18116 c 0,28 -7,56 -22,81 -14,24 -34,45 -58,59 -25,14 -52,22 -80,22 -29,0 -56,-8 -81,-22 -24,-14 -44,-35 -58,-59 -15,-25 -22,-53 -22,-81 0,-29 7,-57 22,-82 14,-24 34,-45 58,-59 25,-14 52,-22 81,-22 28,0 55,8 80,22 24,14 44,35 58,59 15,25 22,53 22,82 z"
   id="path265"
   inkscape:connector-curvature="0"
   style="fill:#ffff00;stroke:none" />
        <path
   d="m 7596,16678 c 0,28 -8,56 -22,81 -14,24 -35,45 -59,59 -25,14 -53,22 -81,22 -29,0 -57,-8 -82,-22 -24,-14 -45,-35 -59,-59 -14,-25 -22,-53 -22,-81 0,-29 8,-57 22,-82 14,-24 35,-45 59,-59 25,-14 53,-22 82,-22 28,0 56,8 81,22 24,14 45,35 59,59 14,25 22,53 22,82 z"
   id="path267"
   inkscape:connector-curvature="0"
   style="fill:#00ffff;stroke:none" />
        <path
   d="m 7578,16802 c 0,28 -8,56 -22,81 -14,24 -35,45 -59,59 -25,14 -53,22 -81,22 -29,0 -57,-8 -82,-22 -24,-14 -45,-35 -59,-59 -14,-25 -22,-53 -22,-81 0,-29 8,-57 22,-82 14,-24 35,-45 59,-59 25,-14 53,-22 82,-22 28,0 56,8 81,22 24,14 45,35 59,59 14,25 22,53 22,82 z"
   id="path269"
   inkscape:connector-curvature="0"
   style="fill:#ffff00;stroke:none" />
        <path
   d="m 7402,17455 c 0,28 -8,56 -22,81 -14,24 -35,45 -59,59 -25,14 -53,22 -81,22 -29,0 -57,-8 -82,-22 -24,-14 -45,-35 -59,-59 -14,-25 -22,-53 -22,-81 0,-29 8,-57 22,-82 14,-24 35,-45 59,-59 25,-14 53,-22 82,-22 28,0 56,8 81,22 24,14 45,35 59,59 14,25 22,53 22,82 z"
   id="path271"
   inkscape:connector-curvature="0"
   style="fill:#c0c0c0;stroke:none" />
        <path
   d="m 6996,17066 c 0,28 -8,56 -22,81 -14,24 -35,45 -59,59 -25,14 -53,22 -81,22 -29,0 -57,-8 -82,-22 -24,-14 -45,-35 -59,-59 -14,-25 -22,-53 -22,-81 0,-29 8,-57 22,-82 14,-24 35,-45 59,-59 25,-14 53,-22 82,-22 28,0 56,8 81,22 24,14 45,35 59,59 14,25 22,53 22,82 z"
   id="path273"
   inkscape:connector-curvature="0"
   style="fill:#ffff00;stroke:none" />
        <path
   d="m 6833,17472 c 0,28 -7,56 -22,81 -14,24 -34,45 -58,59 -25,14 -52,22 -80,22 -29,0 -56,-8 -81,-22 -24,-14 -44,-35 -58,-59 -15,-25 -22,-53 -22,-81 0,-29 7,-57 22,-82 14,-24 34,-45 58,-59 25,-14 52,-22 81,-22 28,0 55,8 80,22 24,14 44,35 58,59 15,25 22,53 22,82 z"
   id="path275"
   inkscape:connector-curvature="0"
   style="fill:#00ffff;stroke:none" />
        <path
   d="m 7649,17243 c 0,28 -8,56 -22,81 -14,24 -35,45 -59,59 -25,14 -53,22 -81,22 -29,0 -57,-8 -82,-22 -24,-14 -45,-35 -59,-59 -14,-25 -22,-53 -22,-81 0,-29 8,-57 22,-82 14,-24 35,-45 59,-59 25,-14 53,-22 82,-22 28,0 56,8 81,22 24,14 45,35 59,59 14,25 22,53 22,82 z"
   id="path277"
   inkscape:connector-curvature="0"
   style="fill:#ffff00;stroke:none" />
        <path
   d="m 7349,16731 c 0,28 -8,56 -22,81 -14,24 -35,45 -59,59 -25,14 -53,22 -81,22 -29,0 -57,-8 -82,-22 -24,-14 -45,-35 -59,-59 -14,-25 -22,-53 -22,-81 0,-29 8,-57 22,-82 14,-24 35,-45 59,-59 25,-14 53,-22 82,-22 28,0 56,8 81,22 24,14 45,35 59,59 14,25 22,53 22,82 z"
   id="path279"
   inkscape:connector-curvature="0"
   style="fill:#ff8000;stroke:none" />
        <path
   d="m 7225,17260 c 0,28 -8,56 -22,81 -14,24 -35,45 -59,59 -25,14 -53,22 -81,22 -29,0 -57,-8 -82,-22 -24,-14 -45,-35 -59,-59 -14,-25 -22,-53 -22,-81 0,-29 8,-57 22,-82 14,-24 35,-45 59,-59 25,-14 53,-22 82,-22 28,0 56,8 81,22 24,14 45,35 59,59 14,25 22,53 22,82 z"
   id="path281"
   inkscape:connector-curvature="0"
   style="fill:#ff00ff;stroke:none" />
        <path
   d="m 7649,16960 c 0,28 -8,56 -22,81 -14,24 -35,45 -59,59 -25,14 -53,22 -81,22 -29,0 -57,-8 -82,-22 -24,-14 -45,-35 -59,-59 -14,-25 -22,-53 -22,-81 0,-29 8,-57 22,-82 14,-24 35,-45 59,-59 25,-14 53,-22 82,-22 28,0 56,8 81,22 24,14 45,35 59,59 14,25 22,53 22,82 z"
   id="path283"
   inkscape:connector-curvature="0"
   style="fill:#008000;stroke:none" />
        <path
   d="m 7512,17883 c 0,28 -7,56 -22,81 -14,24 -34,45 -58,59 -25,14 -52,22 -80,22 -29,0 -56,-8 -81,-22 -24,-14 -44,-35 -58,-59 -15,-25 -22,-53 -22,-81 0,-29 7,-57 22,-82 14,-24 34,-45 58,-59 25,-14 52,-22 81,-22 28,0 55,8 80,22 24,14 44,35 58,59 15,25 22,53 22,82 z"
   id="path285"
   inkscape:connector-curvature="0"
   style="fill:#ffff00;stroke:none" />
        <path
   d="m 7548,17658 c 0,28 -7,56 -22,81 -14,24 -34,45 -58,59 -25,14 -52,22 -80,22 -29,0 -56,-8 -81,-22 -24,-14 -44,-35 -58,-59 -15,-25 -22,-53 -22,-81 0,-29 7,-57 22,-82 14,-24 34,-45 58,-59 25,-14 52,-22 81,-22 28,0 55,8 80,22 24,14 44,35 58,59 15,25 22,53 22,82 z"
   id="path287"
   inkscape:connector-curvature="0"
   style="fill:#00ffff;stroke:none" />
        <path
   d="m 7115,17534 c 0,28 -8,56 -22,81 -14,24 -35,45 -59,59 -25,14 -53,22 -81,22 -29,0 -57,-8 -82,-22 -24,-14 -45,-35 -59,-59 -14,-25 -22,-53 -22,-81 0,-29 8,-57 22,-82 14,-24 35,-45 59,-59 25,-14 53,-22 82,-22 28,0 56,8 81,22 24,14 45,35 59,59 14,25 22,53 22,82 z"
   id="path289"
   inkscape:connector-curvature="0"
   style="fill:#ff8000;stroke:none" />
        <path
   d="m 7124,18024 c 0,28 -8,56 -22,81 -14,24 -35,45 -59,59 -25,14 -53,22 -81,22 -29,0 -57,-8 -82,-22 -24,-14 -45,-35 -59,-59 -14,-25 -22,-53 -22,-81 0,-29 8,-57 22,-82 14,-24 35,-45 59,-59 25,-14 53,-22 82,-22 28,0 56,8 81,22 24,14 45,35 59,59 14,25 22,53 22,82 z"
   id="path291"
   inkscape:connector-curvature="0"
   style="fill:#008000;stroke:none" />
        <path
   d="m 6961,17907 c 0,28 -8,55 -22,80 -14,24 -35,44 -59,58 -25,15 -53,22 -81,22 -29,0 -57,-7 -82,-22 -24,-14 -45,-34 -59,-58 -14,-25 -22,-52 -22,-80 0,-29 8,-56 22,-81 14,-24 35,-44 59,-58 25,-15 53,-22 82,-22 28,0 56,7 81,22 24,14 45,34 59,58 14,25 22,52 22,81 z"
   id="path293"
   inkscape:connector-curvature="0"
   style="fill:#ff00ff;stroke:none" />
        <path
   d="m 7565,17044 c 0,28 -8,56 -22,81 -14,24 -35,45 -59,59 -25,14 -53,22 -81,22 -29,0 -57,-8 -82,-22 -24,-14 -45,-35 -59,-59 -14,-25 -22,-53 -22,-81 0,-29 8,-57 22,-82 14,-24 35,-45 59,-59 25,-14 53,-22 82,-22 28,0 56,8 81,22 24,14 45,35 59,59 14,25 22,53 22,82 z"
   id="path295"
   inkscape:connector-curvature="0"
   style="fill:#ff00ff;stroke:none" />
        <path
   d="m 7247,16912 c 0,28 -8,56 -22,81 -14,24 -35,45 -59,59 -25,14 -53,22 -81,22 -29,0 -57,-8 -82,-22 -24,-14 -45,-35 -59,-59 -14,-25 -22,-53 -22,-81 0,-29 8,-57 22,-82 14,-24 35,-45 59,-59 25,-14 53,-22 82,-22 28,0 56,8 81,22 24,14 45,35 59,59 14,25 22,53 22,82 z"
   id="path297"
   inkscape:connector-curvature="0"
   style="fill:#ff00ff;stroke:none" />
        <path
   d="m 7711,17303 c 0,28 -8,55 -22,80 -14,24 -35,44 -59,58 -25,15 -53,22 -81,22 -29,0 -57,-7 -82,-22 -24,-14 -45,-34 -59,-58 -14,-25 -22,-52 -22,-80 0,-29 8,-56 22,-81 14,-24 35,-44 59,-58 25,-15 53,-22 82,-22 28,0 56,7 81,22 24,14 45,34 59,58 14,25 22,52 22,81 z"
   id="path299"
   inkscape:connector-curvature="0"
   style="fill:#00ffff;stroke:none" />
        <path
   d="m 6979,16678 c 0,28 -7,56 -22,81 -14,24 -34,45 -58,59 -25,14 -52,22 -80,22 -29,0 -56,-8 -81,-22 -24,-14 -44,-35 -58,-59 -15,-25 -22,-53 -22,-81 0,-29 7,-57 22,-82 14,-24 34,-45 58,-59 25,-14 52,-22 81,-22 28,0 55,8 80,22 24,14 44,35 58,59 15,25 22,53 22,82 z"
   id="path301"
   inkscape:connector-curvature="0"
   style="fill:#ffff00;stroke:none" />
        <path
   d="m 7239,16484 c 0,28 -7,56 -22,81 -14,24 -34,45 -58,59 -25,14 -52,22 -80,22 -29,0 -56,-8 -81,-22 -24,-14 -44,-35 -58,-59 -15,-25 -22,-53 -22,-81 0,-29 7,-57 22,-82 14,-24 34,-45 58,-59 25,-14 52,-22 81,-22 28,0 55,8 80,22 24,14 44,35 58,59 15,25 22,53 22,82 z"
   id="path303"
   inkscape:connector-curvature="0"
   style="fill:#ff00ff;stroke:none" />
        <path
   d="m 7481,16510 c 0,28 -8,56 -22,81 -14,24 -35,45 -59,59 -25,14 -53,22 -81,22 -29,0 -57,-8 -82,-22 -24,-14 -45,-35 -59,-59 -14,-25 -22,-53 -22,-81 0,-29 8,-57 22,-82 14,-24 35,-45 59,-59 25,-14 53,-22 82,-22 28,0 56,8 81,22 24,14 45,35 59,59 14,25 22,53 22,82 z"
   id="path305"
   inkscape:connector-curvature="0"
   style="fill:#00ff00;stroke:none" />
        <path
   d="m 7614,17869 c 0,28 -7,56 -22,81 -14,24 -34,45 -58,59 -25,14 -52,22 -80,22 -29,0 -56,-8 -81,-22 -24,-14 -44,-35 -58,-59 -15,-25 -22,-53 -22,-81 0,-29 7,-57 22,-82 14,-24 34,-45 58,-59 25,-14 52,-22 81,-22 28,0 55,8 80,22 24,14 44,35 58,59 15,25 22,53 22,82 z"
   id="path307"
   inkscape:connector-curvature="0"
   style="fill:#c0c0c0;stroke:none" />
        <path
   d="m 7292,18024 c 0,28 -7,56 -22,81 -14,24 -34,45 -58,59 -25,14 -52,22 -80,22 -29,0 -56,-8 -81,-22 -24,-14 -44,-35 -58,-59 -15,-25 -22,-53 -22,-81 0,-29 7,-57 22,-82 14,-24 34,-45 58,-59 25,-14 52,-22 81,-22 28,0 55,8 80,22 24,14 44,35 58,59 15,25 22,53 22,82 z"
   id="path309"
   inkscape:connector-curvature="0"
   style="fill:#c0c0c0;stroke:none" />
        <path
   d="m 7161,16211 119,13 123,18 124,39 123,53 93,53 101,71 80,70 70,84 58,80 70,101 49,97 39,132 22,137 14,141 -14,142 -22,128 -53,154 -57,132 -79,119 -89,106 -123,106 -110,66 -124,71 -163,35 -154,36 H 7130 5304 l -155,-36 -159,-48 -167,-75 -124,-84 -88,-84 -75,-88 -70,-110 -71,-115 -53,-124 -35,-132 -18,-137 v -123 l 18,-128 22,-133 53,-132 70,-137 84,-115 75,-83 124,-111 123,-66 141,-66 124,-35 141,-22 150,-14 z"
   id="path311"
   inkscape:connector-curvature="0"
   style="fill:#ffffff;stroke:none" />
        <path
   d="m 7161,16211 119,13 123,18 124,39 123,53 93,53 101,71 80,70 70,84 58,80 70,101 49,97 39,132 22,137 14,141 -14,142 -22,128 -53,154 -57,132 -79,119 -89,106 -123,106 -110,66 -124,71 -163,35 -154,36 H 7130 5304 l -155,-36 -159,-48 -167,-75 -124,-84 -88,-84 -75,-88 -70,-110 -71,-115 -53,-124 -35,-132 -18,-137 v -123 l 18,-128 22,-133 53,-132 70,-137 84,-115 75,-83 124,-111 123,-66 141,-66 124,-35 141,-22 150,-14 z"
   id="path313"
   inkscape:connector-curvature="0"
   style="fill:none;stroke:#000000;stroke-width:35;stroke-linecap:round;stroke-linejoin:round" />
       </g>
      </g>
     </g>
    </g>
   </g>
  </g>
 </g>
</svg>