<?xml version="1.0" encoding="UTF-8" standalone="no"?>
<svg
   xmlns:ooo="http://xml.openoffice.org/svg/export"
   xmlns:dc="http://purl.org/dc/elements/1.1/"
   xmlns:cc="http://creativecommons.org/ns#"
   xmlns:rdf="http://www.w3.org/1999/02/22-rdf-syntax-ns#"
   xmlns:svg="http://www.w3.org/2000/svg"
   xmlns="http://www.w3.org/2000/svg"
   xmlns:sodipodi="http://sodipodi.sourceforge.net/DTD/sodipodi-0.dtd"
   xmlns:inkscape="http://www.inkscape.org/namespaces/inkscape"
   version="1.2"
   width="113.46mm"
   height="102.31mm"
   viewBox="0 0 11346 10231"
   preserveAspectRatio="xMidYMid"
   xml:space="preserve"
   id="svg84"
   sodipodi:docname="china.svg"
   style="fill-rule:evenodd;stroke-width:28.22200012;stroke-linejoin:round"
   inkscape:version="0.92.5 (2060ec1f9f, 2020-04-08)"><metadata
   id="metadata88"><rdf:RDF><cc:Work
       rdf:about=""><dc:format>image/svg+xml</dc:format><dc:type
         rdf:resource="http://purl.org/dc/dcmitype/StillImage" /></cc:Work></rdf:RDF></metadata><sodipodi:namedview
   pagecolor="#ffffff"
   bordercolor="#666666"
   borderopacity="1"
   objecttolerance="10"
   gridtolerance="10"
   guidetolerance="10"
   inkscape:pageopacity="0"
   inkscape:pageshadow="2"
   inkscape:window-width="664"
   inkscape:window-height="487"
   id="namedview86"
   showgrid="false"
   inkscape:zoom="0.2102413"
   inkscape:cx="214.4126"
   inkscape:cy="193.32283"
   inkscape:window-x="0"
   inkscape:window-y="0"
   inkscape:window-maximized="0"
   inkscape:current-layer="svg84" />
 <defs
   class="ClipPathGroup"
   id="defs8">
  <clipPath
   id="presentation_clip_path"
   clipPathUnits="userSpaceOnUse">
   <rect
   x="0"
   y="0"
   width="21000"
   height="29700"
   id="rect2" />
  </clipPath>
  <clipPath
   id="presentation_clip_path_shrink"
   clipPathUnits="userSpaceOnUse">
   <rect
   x="21"
   y="29"
   width="20958"
   height="29641"
   id="rect5" />
  </clipPath>
 </defs>
 <defs
   class="TextShapeIndex"
   id="defs12">
  <g
   ooo:slide="id1"
   ooo:id-list="id3"
   id="g10" />
 </defs>
 <defs
   class="EmbeddedBulletChars"
   id="defs44">
  <g
   id="bullet-char-template-57356"
   transform="matrix(4.8828125e-4,0,0,-4.8828125e-4,0,0)">
   <path
   d="M 580,1141 1163,571 580,0 -4,571 Z"
   id="path14"
   inkscape:connector-curvature="0" />
  </g>
  <g
   id="bullet-char-template-57354"
   transform="matrix(4.8828125e-4,0,0,-4.8828125e-4,0,0)">
   <path
   d="M 8,1128 H 1137 V 0 H 8 Z"
   id="path17"
   inkscape:connector-curvature="0" />
  </g>
  <g
   id="bullet-char-template-10146"
   transform="matrix(4.8828125e-4,0,0,-4.8828125e-4,0,0)">
   <path
   d="M 174,0 602,739 174,1481 1456,739 Z M 1358,739 309,1346 659,739 Z"
   id="path20"
   inkscape:connector-curvature="0" />
  </g>
  <g
   id="bullet-char-template-10132"
   transform="matrix(4.8828125e-4,0,0,-4.8828125e-4,0,0)">
   <path
   d="M 2015,739 1276,0 H 717 l 543,543 H 174 v 393 h 1086 l -543,545 h 557 z"
   id="path23"
   inkscape:connector-curvature="0" />
  </g>
  <g
   id="bullet-char-template-10007"
   transform="matrix(4.8828125e-4,0,0,-4.8828125e-4,0,0)">
   <path
   d="m 0,-2 c -7,16 -16,29 -25,39 l 381,530 c -94,256 -141,385 -141,387 0,25 13,38 40,38 9,0 21,-2 34,-5 21,4 42,12 65,25 l 27,-13 111,-251 280,301 64,-25 24,25 c 21,-10 41,-24 62,-43 C 886,937 835,863 770,784 769,783 710,716 594,584 L 774,223 c 0,-27 -21,-55 -63,-84 l 16,-20 C 717,90 699,76 672,76 641,76 570,178 457,381 L 164,-76 c -22,-34 -53,-51 -92,-51 -42,0 -63,17 -64,51 -7,9 -10,24 -10,44 0,9 1,19 2,30 z"
   id="path26"
   inkscape:connector-curvature="0" />
  </g>
  <g
   id="bullet-char-template-10004"
   transform="matrix(4.8828125e-4,0,0,-4.8828125e-4,0,0)">
   <path
   d="M 285,-33 C 182,-33 111,30 74,156 52,228 41,333 41,471 c 0,78 14,145 41,201 34,71 87,106 158,106 53,0 88,-31 106,-94 l 23,-176 c 8,-64 28,-97 59,-98 l 735,706 c 11,11 33,17 66,17 42,0 63,-15 63,-46 V 965 c 0,-36 -10,-64 -30,-84 L 442,47 C 390,-6 338,-33 285,-33 Z"
   id="path29"
   inkscape:connector-curvature="0" />
  </g>
  <g
   id="bullet-char-template-9679"
   transform="matrix(4.8828125e-4,0,0,-4.8828125e-4,0,0)">
   <path
   d="M 813,0 C 632,0 489,54 383,161 276,268 223,411 223,592 c 0,181 53,324 160,431 106,107 249,161 430,161 179,0 323,-54 432,-161 108,-107 162,-251 162,-431 0,-180 -54,-324 -162,-431 C 1136,54 992,0 813,0 Z"
   id="path32"
   inkscape:connector-curvature="0" />
  </g>
  <g
   id="bullet-char-template-8226"
   transform="matrix(4.8828125e-4,0,0,-4.8828125e-4,0,0)">
   <path
   d="m 346,457 c -73,0 -137,26 -191,78 -54,51 -81,114 -81,188 0,73 27,136 81,188 54,52 118,78 191,78 73,0 134,-26 185,-79 51,-51 77,-114 77,-187 0,-75 -25,-137 -76,-188 -50,-52 -112,-78 -186,-78 z"
   id="path35"
   inkscape:connector-curvature="0" />
  </g>
  <g
   id="bullet-char-template-8211"
   transform="matrix(4.8828125e-4,0,0,-4.8828125e-4,0,0)">
   <path
   d="M -4,459 H 1135 V 606 H -4 Z"
   id="path38"
   inkscape:connector-curvature="0" />
  </g>
  <g
   id="bullet-char-template-61548"
   transform="matrix(4.8828125e-4,0,0,-4.8828125e-4,0,0)">
   <path
   d="m 173,740 c 0,163 58,303 173,419 116,115 255,173 419,173 163,0 302,-58 418,-173 116,-116 174,-256 174,-419 0,-163 -58,-303 -174,-418 C 1067,206 928,148 765,148 601,148 462,206 346,322 231,437 173,577 173,740 Z"
   id="path41"
   inkscape:connector-curvature="0" />
  </g>
 </defs>
 <g
   id="g49"
   transform="translate(-4827,-9734)">
  <g
   id="id2"
   class="Master_Slide">
   <g
   id="bg-id2"
   class="Background" />
   <g
   id="bo-id2"
   class="BackgroundObjects" />
  </g>
 </g>
 <g
   class="SlideGroup"
   id="g82"
   transform="translate(-4827,-9734)">
  <g
   id="g80">
   <g
   id="container-id1">
    <g
   id="id1"
   class="Slide"
   clip-path="url(#presentation_clip_path)">
     <g
   class="Page"
   id="g76">
      <g
   class="Graphic"
   id="g74">
       <g
   id="id3">
        <rect
   class="BoundingBox"
   x="4827"
   y="9734"
   width="11346"
   height="10231"
   id="rect51"
   style="fill:none;stroke:none" />
        <defs
   id="defs56">
         <clipPath
   id="clip_path_1"
   clipPathUnits="userSpaceOnUse">
          <path
   d="M 4827,9734 H 16172 V 19964 H 4827 Z"
   id="path53"
   inkscape:connector-curvature="0" />
         </clipPath>
        </defs>
        <g
   clip-path="url(#clip_path_1)"
   id="g58" />
        <defs
   id="defs63">
         <clipPath
   id="clip_path_2"
   clipPathUnits="userSpaceOnUse">
          <path
   d="M 4836,9734 H 16172 V 19956 H 4836 Z"
   id="path60"
   inkscape:connector-curvature="0" />
         </clipPath>
        </defs>
        <g
   clip-path="url(#clip_path_2)"
   id="g69">
         <path
   d="m 7902,12169 -194,49 -84,22 -40,75 -84,-9 -57,71 13,75 -26,70 17,89 h -88 l -57,-18 h -97 l -84,13 h -75 l -79,35 -31,80 -22,57 v 93 l -71,79 22,75 -9,97 -101,49 -71,-66 -57,48 -62,-13 -88,4 -141,49 -18,22 49,71 75,-5 -14,155 -9,105 -30,133 30,106 -66,35 -22,106 -4,70 -84,27 35,93 -106,61 -167,-9 -88,36 -102,92 -79,14 -80,-18 -181,35 14,93 -18,97 -75,44 -128,-172 h -48 l -128,66 -71,40 -70,4 -45,80 -17,79 26,93 -48,70 9,75 48,120 40,-84 97,84 9,79 35,75 -35,137 -124,79 -70,57 30,71 9,106 80,18 79,-58 66,9 49,106 70,35 36,80 105,48 5,71 -44,101 97,36 150,-67 62,-13 75,-128 57,88 57,53 58,-79 75,53 97,48 4,142 -22,154 -35,75 h -199 l 53,234 -9,75 -53,84 -66,-14 -53,-79 -106,4 -17,75 22,89 70,79 -8,137 39,101 h 97 84 l 57,53 71,58 75,88 132,31 h 102 l 115,-36 h 35 l 62,40 66,97 97,93 88,26 71,40 53,40 57,66 18,22 35,71 106,57 57,79 62,62 66,93 h 75 l 71,-27 35,-4 40,18 189,88 111,35 88,-66 84,-22 61,-93 h 84 l 49,-13 h 53 l 154,48 h 79 l 93,27 75,71 13,70 -48,115 31,70 106,-17 70,-102 40,-92 106,-44 75,57 h 75 l 17,-62 -84,-18 49,-114 97,-66 71,-115 101,-57 119,-9 49,13 123,-18 128,-31 62,-8 71,66 92,194 66,-115 h 186 l 92,-13 18,62 62,106 26,57 57,194 40,124 -79,198 -53,172 -62,168 -66,79 -49,97 -61,93 -27,110 27,102 97,-49 35,-163 88,-4 84,61 26,-75 71,-35 40,84 35,185 75,13 53,93 18,62 -93,92 -88,45 92,39 53,-13 80,4 66,111 93,-62 114,-35 27,13 39,84 75,-27 31,-256 22,-70 18,-31 h 119 l 102,-44 97,-36 h 66 l 106,-39 83,-18 h 27 l 115,88 -5,-106 75,-22 71,-79 -18,-75 97,-35 88,17 58,71 -18,84 35,79 84,66 93,44 79,67 146,119 53,17 48,-92 75,-9 58,-146 h 75 l 75,84 101,-70 79,-31 23,84 -18,61 22,115 66,53 -13,-84 35,-79 -22,-66 75,-45 v 89 l 71,-18 57,-35 -13,-75 26,-84 80,-13 123,-40 h 93 l 62,-44 70,4 44,-70 -26,-115 66,-35 9,-102 66,-26 40,75 48,61 22,89 40,-89 84,-66 119,-48 97,-44 66,-49 44,13 44,18 58,-119 -27,-181 71,13 57,-88 22,-79 88,26 45,-71 13,-207 31,-66 75,48 128,-70 -84,-18 62,-132 39,-49 40,-92 -40,-58 44,-88 -4,-79 -57,4 -31,-88 57,-88 44,70 18,-150 26,-79 22,-13 62,-18 -9,-80 -70,-8 13,-62 v -49 l 13,-57 75,-79 75,-49 40,-62 -35,-101 -45,-71 58,-79 h -62 l 4,-66 -70,-27 -75,-35 -75,79 -57,-22 -80,5 -93,-44 58,-75 88,17 71,-84 70,-22 5,-66 31,-84 v -70 l -84,-53 -66,-36 -9,-75 -106,-127 -102,-102 -75,-26 -83,-75 -36,-67 -70,-53 -75,18 -9,-79 18,-89 h -80 l -79,-57 -53,-75 v -123 l 66,-89 79,36 5,-115 -22,-84 13,-75 62,53 75,-66 -44,-75 44,-93 26,-106 75,9 71,-137 -49,9 -48,9 -66,31 -89,4 -57,-17 -102,-36 -52,62 -5,84 -79,44 35,115 -88,-5 -75,5 -66,31 -18,-119 -22,-80 -71,22 -220,-110 -36,-110 23,-84 h 75 l 17,-80 71,18 v 79 l 75,-75 13,-110 -13,-92 35,-111 71,-35 83,35 23,-84 52,-110 53,-119 -44,-88 88,-106 84,4 58,27 4,57 v 44 l -22,66 97,31 -53,66 h -62 l 18,111 -9,106 66,31 18,-9 176,53 14,-102 61,-106 98,-84 101,-114 -27,-88 40,-80 71,-13 62,-88 -9,-111 9,-88 8,-79 36,-71 48,-57 44,-5 h 40 l 53,5 44,17 62,-35 -40,-66 -22,-84 13,-88 84,-13 18,-97 v -111 l 106,-17 -53,-159 88,-27 66,75 13,-163 40,-79 v -124 l -62,-18 -39,-123 -18,-88 -49,-80 -31,-114 98,-67 61,102 49,62 26,-71 -35,-168 40,-88 -5,-79 -39,-137 -22,-128 -27,-97 -62,-53 -66,22 -22,-97 71,-22 17,-106 -123,-128 -93,27 -110,97 -5,79 -44,57 14,124 h -80 l -70,40 -84,31 -71,-18 v -124 l -66,14 -71,-9 -88,-40 -62,-70 -48,-84 -57,39 -106,5 -89,-18 -88,-4 -66,-9 -70,-49 -84,-35 -22,-137 -62,-61 -35,-84 -53,-44 -89,-89 -83,-13 -49,-79 -79,-75 -14,-31 -88,18 -106,-27 -92,49 -119,-5 -62,22 h -88 l -159,62 -84,115 -79,242 75,44 79,-114 53,106 66,128 62,70 -71,22 -35,88 66,120 -106,30 -17,80 v 75 l 75,97 -18,71 -57,66 -27,22 -26,141 -75,40 -75,-58 -18,-79 -53,66 -35,243 -9,154 9,93 70,44 71,-5 75,-132 18,-44 48,119 80,-18 57,-123 70,-13 45,9 66,70 35,80 79,13 84,88 -123,75 -66,4 -155,22 -92,49 -89,40 v 88 l -53,88 -83,102 -49,92 -22,58 9,66 -62,40 -66,22 -62,88 v 84 l -84,9 -57,-5 -97,-22 -35,93 v 61 l -40,84 -13,150 -14,111 -4,70 -79,93 -18,70 -18,58 -61,75 h -168 l -93,35 h -88 l -75,18 -70,35 -102,115 -71,-14 -88,67 -128,66 -53,75 -110,4 -79,31 -305,5 -48,-80 -80,-66 -83,13 h -128 -67 l -83,22 -75,9 -71,40 h -106 l -75,9 -57,-36 h -97 l -71,-9 h -88 l -88,58 -97,-97 -102,-62 -17,-115 -49,-57 -18,-84 -83,-22 -9,-93 -115,-70 -203,-80 h -44 l -84,22 -97,-13 -128,-92 h -92 l -18,-75 -71,-106 40,-119 v -190 l -40,-75 -70,-53 -5,-62 -83,-31 -80,-44 -75,-75 -119,-176 z"
   id="path65"
   inkscape:connector-curvature="0"
   style="fill:#008000;stroke:none" />
         <path
   d="m 7902,12169 -194,49 -84,22 -40,75 -84,-9 -57,71 13,75 -26,70 17,89 h -88 l -57,-18 h -97 l -84,13 h -75 l -79,35 -31,80 -22,57 v 93 l -71,79 22,75 -9,97 -101,49 -71,-66 -57,48 -62,-13 -88,4 -141,49 -18,22 49,71 75,-5 -14,155 -9,105 -30,133 30,106 -66,35 -22,106 -4,70 -84,27 35,93 -106,61 -167,-9 -88,36 -102,92 -79,14 -80,-18 -181,35 14,93 -18,97 -75,44 -128,-172 h -48 l -128,66 -71,40 -70,4 -45,80 -17,79 26,93 -48,70 9,75 48,120 40,-84 97,84 9,79 35,75 -35,137 -124,79 -70,57 30,71 9,106 80,18 79,-58 66,9 49,106 70,35 36,80 105,48 5,71 -44,101 97,36 150,-67 62,-13 75,-128 57,88 57,53 58,-79 75,53 97,48 4,142 -22,154 -35,75 h -199 l 53,234 -9,75 -53,84 -66,-14 -53,-79 -106,4 -17,75 22,89 70,79 -8,137 39,101 h 97 84 l 57,53 71,58 75,88 132,31 h 102 l 115,-36 h 35 l 62,40 66,97 97,93 88,26 71,40 53,40 57,66 18,22 35,71 106,57 57,79 62,62 66,93 h 75 l 71,-27 35,-4 40,18 189,88 111,35 88,-66 84,-22 61,-93 h 84 l 49,-13 h 53 l 154,48 h 79 l 93,27 75,71 13,70 -48,115 31,70 106,-17 70,-102 40,-92 106,-44 75,57 h 75 l 17,-62 -84,-18 49,-114 97,-66 71,-115 101,-57 119,-9 49,13 123,-18 128,-31 62,-8 71,66 92,194 66,-115 h 186 l 92,-13 18,62 62,106 26,57 57,194 40,124 -79,198 -53,172 -62,168 -66,79 -49,97 -61,93 -27,110 27,102 97,-49 35,-163 88,-4 84,61 26,-75 71,-35 40,84 35,185 75,13 53,93 18,62 -93,92 -88,45 92,39 53,-13 80,4 66,111 93,-62 114,-35 27,13 39,84 75,-27 31,-256 22,-70 18,-31 h 119 l 102,-44 97,-36 h 66 l 106,-39 83,-18 h 27 l 115,88 -5,-106 75,-22 71,-79 -18,-75 97,-35 88,17 58,71 -18,84 35,79 84,66 93,44 79,67 146,119 53,17 48,-92 75,-9 58,-146 h 75 l 75,84 101,-70 79,-31 23,84 -18,61 22,115 66,53 -13,-84 35,-79 -22,-66 75,-45 v 89 l 71,-18 57,-35 -13,-75 26,-84 80,-13 123,-40 h 93 l 62,-44 70,4 44,-70 -26,-115 66,-35 9,-102 66,-26 40,75 48,61 22,89 40,-89 84,-66 119,-48 97,-44 66,-49 44,13 44,18 58,-119 -27,-181 71,13 57,-88 22,-79 88,26 45,-71 13,-207 31,-66 75,48 128,-70 -84,-18 62,-132 39,-49 40,-92 -40,-58 44,-88 -4,-79 -57,4 -31,-88 57,-88 44,70 18,-150 26,-79 22,-13 62,-18 -9,-80 -70,-8 13,-62 v -49 l 13,-57 75,-79 75,-49 40,-62 -35,-101 -45,-71 58,-79 h -62 l 4,-66 -70,-27 -75,-35 -75,79 -57,-22 -80,5 -93,-44 58,-75 88,17 71,-84 70,-22 5,-66 31,-84 v -70 l -84,-53 -66,-36 -9,-75 -106,-127 -102,-102 -75,-26 -83,-75 -36,-67 -70,-53 -75,18 -9,-79 18,-89 h -80 l -79,-57 -53,-75 v -123 l 66,-89 79,36 5,-115 -22,-84 13,-75 62,53 75,-66 -44,-75 44,-93 26,-106 75,9 71,-137 -49,9 -48,9 -66,31 -89,4 -57,-17 -102,-36 -52,62 -5,84 -79,44 35,115 -88,-5 -75,5 -66,31 -18,-119 -22,-80 -71,22 -220,-110 -36,-110 23,-84 h 75 l 17,-80 71,18 v 79 l 75,-75 13,-110 -13,-92 35,-111 71,-35 83,35 23,-84 52,-110 53,-119 -44,-88 88,-106 84,4 58,27 4,57 v 44 l -22,66 97,31 -53,66 h -62 l 18,111 -9,106 66,31 18,-9 176,53 14,-102 61,-106 98,-84 101,-114 -27,-88 40,-80 71,-13 62,-88 -9,-111 9,-88 8,-79 36,-71 48,-57 44,-5 h 40 l 53,5 44,17 62,-35 -40,-66 -22,-84 13,-88 84,-13 18,-97 v -111 l 106,-17 -53,-159 88,-27 66,75 13,-163 40,-79 v -124 l -62,-18 -39,-123 -18,-88 -49,-80 -31,-114 98,-67 61,102 49,62 26,-71 -35,-168 40,-88 -5,-79 -39,-137 -22,-128 -27,-97 -62,-53 -66,22 -22,-97 71,-22 17,-106 -123,-128 -93,27 -110,97 -5,79 -44,57 14,124 h -80 l -70,40 -84,31 -71,-18 v -124 l -66,14 -71,-9 -88,-40 -62,-70 -48,-84 -57,39 -106,5 -89,-18 -88,-4 -66,-9 -70,-49 -84,-35 -22,-137 -62,-61 -35,-84 -53,-44 -89,-89 -83,-13 -49,-79 -79,-75 -14,-31 -88,18 -106,-27 -92,49 -119,-5 -62,22 h -88 l -159,62 -84,115 -79,242 75,44 79,-114 53,106 66,128 62,70 -71,22 -35,88 66,120 -106,30 -17,80 v 75 l 75,97 -18,71 -57,66 -27,22 -26,141 -75,40 -75,-58 -18,-79 -53,66 -35,243 -9,154 9,93 70,44 71,-5 75,-132 18,-44 48,119 80,-18 57,-123 70,-13 45,9 66,70 35,80 79,13 84,88 -123,75 -66,4 -155,22 -92,49 -89,40 v 88 l -53,88 -83,102 -49,92 -22,58 9,66 -62,40 -66,22 -62,88 v 84 l -84,9 -57,-5 -97,-22 -35,93 v 61 l -40,84 -13,150 -14,111 -4,70 -79,93 -18,70 -18,58 -61,75 h -168 l -93,35 h -88 l -75,18 -70,35 -102,115 -71,-14 -88,67 -128,66 -53,75 -110,4 -79,31 -305,5 -48,-80 -80,-66 -83,13 h -128 -67 l -83,22 -75,9 -71,40 h -106 l -75,9 -57,-36 h -97 l -71,-9 h -88 l -88,58 -97,-97 -102,-62 -17,-115 -49,-57 -18,-84 -83,-22 -9,-93 -115,-70 -203,-80 h -44 l -84,22 -97,-13 -128,-92 h -92 l -18,-75 -71,-106 40,-119 v -190 l -40,-75 -70,-53 -5,-62 -83,-31 -80,-44 -75,-75 -119,-176 z"
   id="path67"
   inkscape:connector-curvature="0"
   style="fill:none;stroke:#000000;stroke-width:35;stroke-linecap:round;stroke-linejoin:round" />
        </g>
        <g
   clip-path="url(#clip_path_1)"
   id="g71" />
       </g>
      </g>
     </g>
    </g>
   </g>
  </g>
 </g>
</svg>