<?xml version="1.0" encoding="UTF-8" standalone="no"?>
<svg
   xmlns:ooo="http://xml.openoffice.org/svg/export"
   xmlns:dc="http://purl.org/dc/elements/1.1/"
   xmlns:cc="http://creativecommons.org/ns#"
   xmlns:rdf="http://www.w3.org/1999/02/22-rdf-syntax-ns#"
   xmlns:svg="http://www.w3.org/2000/svg"
   xmlns="http://www.w3.org/2000/svg"
   xmlns:sodipodi="http://sodipodi.sourceforge.net/DTD/sodipodi-0.dtd"
   xmlns:inkscape="http://www.inkscape.org/namespaces/inkscape"
   version="1.2"
   width="185.03mm"
   height="101.64mm"
   viewBox="0 0 18503 10164"
   preserveAspectRatio="xMidYMid"
   xml:space="preserve"
   id="svg287"
   sodipodi:docname="city3.svg"
   style="fill-rule:evenodd;stroke-width:28.22200012;stroke-linejoin:round"
   inkscape:version="0.92.5 (2060ec1f9f, 2020-04-08)"><metadata
   id="metadata291"><rdf:RDF><cc:Work
       rdf:about=""><dc:format>image/svg+xml</dc:format><dc:type
         rdf:resource="http://purl.org/dc/dcmitype/StillImage" /></cc:Work></rdf:RDF></metadata><sodipodi:namedview
   pagecolor="#ffffff"
   bordercolor="#666666"
   borderopacity="1"
   objecttolerance="10"
   gridtolerance="10"
   guidetolerance="10"
   inkscape:pageopacity="0"
   inkscape:pageshadow="2"
   inkscape:window-width="664"
   inkscape:window-height="487"
   id="namedview289"
   showgrid="false"
   inkscape:zoom="0.2102413"
   inkscape:cx="349.68189"
   inkscape:cy="192.07559"
   inkscape:window-x="0"
   inkscape:window-y="0"
   inkscape:window-maximized="0"
   inkscape:current-layer="svg287" />
 <defs
   class="ClipPathGroup"
   id="defs8">
  <clipPath
   id="presentation_clip_path"
   clipPathUnits="userSpaceOnUse">
   <rect
   x="0"
   y="0"
   width="21000"
   height="29700"
   id="rect2" />
  </clipPath>
  <clipPath
   id="presentation_clip_path_shrink"
   clipPathUnits="userSpaceOnUse">
   <rect
   x="21"
   y="29"
   width="20958"
   height="29641"
   id="rect5" />
  </clipPath>
 </defs>
 <defs
   class="TextShapeIndex"
   id="defs12">
  <g
   ooo:slide="id1"
   ooo:id-list="id3"
   id="g10" />
 </defs>
 <defs
   class="EmbeddedBulletChars"
   id="defs44">
  <g
   id="bullet-char-template-57356"
   transform="matrix(4.8828125e-4,0,0,-4.8828125e-4,0,0)">
   <path
   d="M 580,1141 1163,571 580,0 -4,571 Z"
   id="path14"
   inkscape:connector-curvature="0" />
  </g>
  <g
   id="bullet-char-template-57354"
   transform="matrix(4.8828125e-4,0,0,-4.8828125e-4,0,0)">
   <path
   d="M 8,1128 H 1137 V 0 H 8 Z"
   id="path17"
   inkscape:connector-curvature="0" />
  </g>
  <g
   id="bullet-char-template-10146"
   transform="matrix(4.8828125e-4,0,0,-4.8828125e-4,0,0)">
   <path
   d="M 174,0 602,739 174,1481 1456,739 Z M 1358,739 309,1346 659,739 Z"
   id="path20"
   inkscape:connector-curvature="0" />
  </g>
  <g
   id="bullet-char-template-10132"
   transform="matrix(4.8828125e-4,0,0,-4.8828125e-4,0,0)">
   <path
   d="M 2015,739 1276,0 H 717 l 543,543 H 174 v 393 h 1086 l -543,545 h 557 z"
   id="path23"
   inkscape:connector-curvature="0" />
  </g>
  <g
   id="bullet-char-template-10007"
   transform="matrix(4.8828125e-4,0,0,-4.8828125e-4,0,0)">
   <path
   d="m 0,-2 c -7,16 -16,29 -25,39 l 381,530 c -94,256 -141,385 -141,387 0,25 13,38 40,38 9,0 21,-2 34,-5 21,4 42,12 65,25 l 27,-13 111,-251 280,301 64,-25 24,25 c 21,-10 41,-24 62,-43 C 886,937 835,863 770,784 769,783 710,716 594,584 L 774,223 c 0,-27 -21,-55 -63,-84 l 16,-20 C 717,90 699,76 672,76 641,76 570,178 457,381 L 164,-76 c -22,-34 -53,-51 -92,-51 -42,0 -63,17 -64,51 -7,9 -10,24 -10,44 0,9 1,19 2,30 z"
   id="path26"
   inkscape:connector-curvature="0" />
  </g>
  <g
   id="bullet-char-template-10004"
   transform="matrix(4.8828125e-4,0,0,-4.8828125e-4,0,0)">
   <path
   d="M 285,-33 C 182,-33 111,30 74,156 52,228 41,333 41,471 c 0,78 14,145 41,201 34,71 87,106 158,106 53,0 88,-31 106,-94 l 23,-176 c 8,-64 28,-97 59,-98 l 735,706 c 11,11 33,17 66,17 42,0 63,-15 63,-46 V 965 c 0,-36 -10,-64 -30,-84 L 442,47 C 390,-6 338,-33 285,-33 Z"
   id="path29"
   inkscape:connector-curvature="0" />
  </g>
  <g
   id="bullet-char-template-9679"
   transform="matrix(4.8828125e-4,0,0,-4.8828125e-4,0,0)">
   <path
   d="M 813,0 C 632,0 489,54 383,161 276,268 223,411 223,592 c 0,181 53,324 160,431 106,107 249,161 430,161 179,0 323,-54 432,-161 108,-107 162,-251 162,-431 0,-180 -54,-324 -162,-431 C 1136,54 992,0 813,0 Z"
   id="path32"
   inkscape:connector-curvature="0" />
  </g>
  <g
   id="bullet-char-template-8226"
   transform="matrix(4.8828125e-4,0,0,-4.8828125e-4,0,0)">
   <path
   d="m 346,457 c -73,0 -137,26 -191,78 -54,51 -81,114 -81,188 0,73 27,136 81,188 54,52 118,78 191,78 73,0 134,-26 185,-79 51,-51 77,-114 77,-187 0,-75 -25,-137 -76,-188 -50,-52 -112,-78 -186,-78 z"
   id="path35"
   inkscape:connector-curvature="0" />
  </g>
  <g
   id="bullet-char-template-8211"
   transform="matrix(4.8828125e-4,0,0,-4.8828125e-4,0,0)">
   <path
   d="M -4,459 H 1135 V 606 H -4 Z"
   id="path38"
   inkscape:connector-curvature="0" />
  </g>
  <g
   id="bullet-char-template-61548"
   transform="matrix(4.8828125e-4,0,0,-4.8828125e-4,0,0)">
   <path
   d="m 173,740 c 0,163 58,303 173,419 116,115 255,173 419,173 163,0 302,-58 418,-173 116,-116 174,-256 174,-419 0,-163 -58,-303 -174,-418 C 1067,206 928,148 765,148 601,148 462,206 346,322 231,437 173,577 173,740 Z"
   id="path41"
   inkscape:connector-curvature="0" />
  </g>
 </defs>
 <g
   id="g49"
   transform="translate(-1248,-9768)">
  <g
   id="id2"
   class="Master_Slide">
   <g
   id="bg-id2"
   class="Background" />
   <g
   id="bo-id2"
   class="BackgroundObjects" />
  </g>
 </g>
 <g
   class="SlideGroup"
   id="g285"
   transform="translate(-1248,-9768)">
  <g
   id="g283">
   <g
   id="container-id1">
    <g
   id="id1"
   class="Slide"
   clip-path="url(#presentation_clip_path)">
     <g
   class="Page"
   id="g279">
      <g
   class="Graphic"
   id="g277">
       <g
   id="id3">
        <rect
   class="BoundingBox"
   x="1248"
   y="9768"
   width="18503"
   height="10164"
   id="rect51"
   style="fill:none;stroke:none" />
        <defs
   id="defs56">
         <clipPath
   id="clip_path_1"
   clipPathUnits="userSpaceOnUse">
          <path
   d="m 5376,9812 h 2857 v 1071 H 5376 Z"
   id="path53"
   inkscape:connector-curvature="0" />
         </clipPath>
        </defs>
        <g
   clip-path="url(#clip_path_1)"
   id="g60">
         <path
   d="m 6788,8775 v 3111"
   id="path58"
   inkscape:connector-curvature="0"
   style="fill:none;stroke:#000000;stroke-width:71;stroke-linecap:round;stroke-linejoin:miter" />
        </g>
        <path
   d="m 2633,18688 v -2828 h 913 v 2206 1235 h 6453 l -516,-1500 v -1544 h 516 l 317,1809 1460,622 v -2563 h 1231 v 3000 h 675 v -1941 h 948 v 2519 H 2554 Z"
   id="path62"
   inkscape:connector-curvature="0"
   style="fill:#202020;stroke:none" />
        <path
   d="m 1248,19923 v -2342 h 1032 v -1946 h 750 v 1240 h 675 v 617 h 317 v -2655 l 358,-397 392,441 v 3450 h 715 v -794 h 511 v -4866 h 278 v -706 l 159,88 v -887 l 198,45 v -442 h 318 v 397 h 194 v 799 h 80 v 706 h 317 v 5660 h 556 v -622 h 159 v -3269 h 1424 v 2744 h 1032 v 701 h 358 l 357,-3136 h 631 v 3224 h 357 v -1191 h 1072 v 1990 h 631 v -4469 h 436 v -618 l 357,-397 314,353 v 662 h 397 v 2572 h 635 v -3234 l 1424,-970 v 4155 h 715 v -2342 h 670 v 3053 h 675 v 2386 z"
   id="path64"
   inkscape:connector-curvature="0"
   style="fill:#404040;stroke:none" />
        <path
   d="m 4424,18811 v -132 h 70 v 132 z"
   id="path66"
   inkscape:connector-curvature="0"
   style="fill:#ffff00;stroke:none" />
        <path
   d="m 4609,18811 v -132 h 79 v 132 z"
   id="path68"
   inkscape:connector-curvature="0"
   style="fill:#ffff00;stroke:none" />
        <path
   d="m 4803,18811 v -132 h 75 v 132 z"
   id="path70"
   inkscape:connector-curvature="0"
   style="fill:#ffff00;stroke:none" />
        <path
   d="m 4997,18811 v -132 h 71 v 132 z"
   id="path72"
   inkscape:connector-curvature="0"
   style="fill:#ffff00;stroke:none" />
        <path
   d="m 5191,18811 v -132 h 75 v 132 z"
   id="path74"
   inkscape:connector-curvature="0"
   style="fill:#ffff00;stroke:none" />
        <path
   d="m 5712,18203 v -133 h 75 v 133 z"
   id="path76"
   inkscape:connector-curvature="0"
   style="fill:#ffff00;stroke:none" />
        <path
   d="m 5901,18203 v -133 h 80 v 133 z"
   id="path78"
   inkscape:connector-curvature="0"
   style="fill:#ffff00;stroke:none" />
        <path
   d="m 6095,18203 v -133 h 71 v 133 z"
   id="path80"
   inkscape:connector-curvature="0"
   style="fill:#ffff00;stroke:none" />
        <path
   d="m 6289,18203 v -133 h 75 v 133 z"
   id="path82"
   inkscape:connector-curvature="0"
   style="fill:#ffff00;stroke:none" />
        <path
   d="m 6484,18203 v -133 h 70 v 133 z"
   id="path84"
   inkscape:connector-curvature="0"
   style="fill:#ffff00;stroke:none" />
        <path
   d="m 4300,15653 v -132 h 71 v 132 z"
   id="path86"
   inkscape:connector-curvature="0"
   style="fill:#ffff00;stroke:none" />
        <path
   d="m 3008,17515 v -128 h 70 v 128 z"
   id="path88"
   inkscape:connector-curvature="0"
   style="fill:#ffff00;stroke:none" />
        <path
   d="m 3220,17515 v -128 h 70 v 128 z"
   id="path90"
   inkscape:connector-curvature="0"
   style="fill:#ffff00;stroke:none" />
        <path
   d="m 4508,17554 v -128 h 75 v 128 z"
   id="path92"
   inkscape:connector-curvature="0"
   style="fill:#ffff00;stroke:none" />
        <path
   d="m 2227,18009 v -128 h 71 v 128 z"
   id="path94"
   inkscape:connector-curvature="0"
   style="fill:#ffff00;stroke:none" />
        <path
   d="m 2421,18009 v -128 h 71 v 128 z"
   id="path96"
   inkscape:connector-curvature="0"
   style="fill:#ffff00;stroke:none" />
        <path
   d="m 2611,18009 v -128 h 75 v 128 z"
   id="path98"
   inkscape:connector-curvature="0"
   style="fill:#ffff00;stroke:none" />
        <path
   d="m 2809,18009 v -128 h 71 v 128 z"
   id="path100"
   inkscape:connector-curvature="0"
   style="fill:#ffff00;stroke:none" />
        <path
   d="m 2995,18009 v -128 h 75 v 128 z"
   id="path102"
   inkscape:connector-curvature="0"
   style="fill:#ffff00;stroke:none" />
        <path
   d="m 2783,16447 v -128 h 71 v 128 z"
   id="path104"
   inkscape:connector-curvature="0"
   style="fill:#ffff00;stroke:none" />
        <path
   d="m 4591,16407 v -128 h 71 v 128 z"
   id="path106"
   inkscape:connector-curvature="0"
   style="fill:#ffff00;stroke:none" />
        <path
   d="m 6572,18697 v -133 h 70 v 133 z"
   id="path108"
   inkscape:connector-curvature="0"
   style="fill:#ffff00;stroke:none" />
        <path
   d="m 6761,18679 v -115 h 58 v 115 z"
   id="path110"
   inkscape:connector-curvature="0"
   style="fill:#ffff00;stroke:none" />
        <path
   d="m 6960,18697 v -133 h 70 v 133 z"
   id="path112"
   inkscape:connector-curvature="0"
   style="fill:#ffff00;stroke:none" />
        <path
   d="m 7150,18697 v -133 h 70 v 133 z"
   id="path114"
   inkscape:connector-curvature="0"
   style="fill:#ffff00;stroke:none" />
        <path
   d="m 7344,18697 v -133 h 70 v 133 z"
   id="path116"
   inkscape:connector-curvature="0"
   style="fill:#ffff00;stroke:none" />
        <path
   d="m 7943,18851 v -132 h 71 v 132 z"
   id="path118"
   inkscape:connector-curvature="0"
   style="fill:#ffff00;stroke:none" />
        <path
   d="m 11437,18278 v -128 h 75 v 128 z"
   id="path120"
   inkscape:connector-curvature="0"
   style="fill:#ffff00;stroke:none" />
        <path
   d="m 12628,18617 v -123 h 75 v 123 z"
   id="path122"
   inkscape:connector-curvature="0"
   style="fill:#ffff00;stroke:none" />
        <path
   d="m 11812,17360 v -128 h 75 v 128 z"
   id="path124"
   inkscape:connector-curvature="0"
   style="fill:#ffff00;stroke:none" />
        <path
   d="m 11812,16068 v -133 h 75 v 133 z"
   id="path126"
   inkscape:connector-curvature="0"
   style="fill:#ffff00;stroke:none" />
        <path
   d="m 12932,17515 v -128 h 75 v 128 z"
   id="path128"
   inkscape:connector-curvature="0"
   style="fill:#ffff00;stroke:none" />
        <path
   d="m 11432,16372 v -132 h 71 v 132 z"
   id="path130"
   inkscape:connector-curvature="0"
   style="fill:#ffff00;stroke:none" />
        <path
   d="m 12672,17250 v -128 h 79 v 128 z"
   id="path132"
   inkscape:connector-curvature="0"
   style="fill:#ffff00;stroke:none" />
        <path
   d="m 9880,17634 v -137 h 70 v 137 z"
   id="path134"
   inkscape:connector-curvature="0"
   style="fill:#ffff00;stroke:none" />
        <path
   d="m 10140,17634 v -137 h 66 v 137 z"
   id="path136"
   inkscape:connector-curvature="0"
   style="fill:#ffff00;stroke:none" />
        <path
   d="m 10312,17634 v -137 h 71 v 137 z"
   id="path138"
   inkscape:connector-curvature="0"
   style="fill:#ffff00;stroke:none" />
        <path
   d="m 8984,16566 v -132 h 75 v 132 z"
   id="path140"
   inkscape:connector-curvature="0"
   style="fill:#ffff00;stroke:none" />
        <path
   d="m 9223,16566 v -132 h 70 v 132 z"
   id="path142"
   inkscape:connector-curvature="0"
   style="fill:#ffff00;stroke:none" />
        <path
   d="m 9456,16566 v -132 h 75 v 132 z"
   id="path144"
   inkscape:connector-curvature="0"
   style="fill:#ffff00;stroke:none" />
        <path
   d="m 8640,15229 v -128 h 80 v 128 z"
   id="path146"
   inkscape:connector-curvature="0"
   style="fill:#ffff00;stroke:none" />
        <path
   d="m 8874,15229 v -128 h 75 v 128 z"
   id="path148"
   inkscape:connector-curvature="0"
   style="fill:#ffff00;stroke:none" />
        <path
   d="m 9112,15229 v -128 h 71 v 128 z"
   id="path150"
   inkscape:connector-curvature="0"
   style="fill:#ffff00;stroke:none" />
        <path
   d="m 8640,17594 v -128 h 80 v 128 z"
   id="path152"
   inkscape:connector-curvature="0"
   style="fill:#ffff00;stroke:none" />
        <path
   d="m 8874,17594 v -128 h 75 v 128 z"
   id="path154"
   inkscape:connector-curvature="0"
   style="fill:#ffff00;stroke:none" />
        <path
   d="m 9112,17594 v -128 h 71 v 128 z"
   id="path156"
   inkscape:connector-curvature="0"
   style="fill:#ffff00;stroke:none" />
        <path
   d="m 7017,16394 v -93 h 53 v 93 z"
   id="path158"
   inkscape:connector-curvature="0"
   style="fill:#ffff00;stroke:none" />
        <path
   d="m 7185,16394 v -93 h 53 v 93 z"
   id="path160"
   inkscape:connector-curvature="0"
   style="fill:#ffff00;stroke:none" />
        <path
   d="m 7352,16394 v -93 h 53 v 93 z"
   id="path162"
   inkscape:connector-curvature="0"
   style="fill:#ffff00;stroke:none" />
        <path
   d="m 7127,16637 v -124 h 71 v 124 z"
   id="path164"
   inkscape:connector-curvature="0"
   style="fill:#ffff00;stroke:none" />
        <path
   d="m 6453,14246 v -124 h 75 v 124 z"
   id="path166"
   inkscape:connector-curvature="0"
   style="fill:#ffff00;stroke:none" />
        <path
   d="m 6241,13566 v -132 h 71 v 132 z"
   id="path168"
   inkscape:connector-curvature="0"
   style="fill:#ffff00;stroke:none" />
        <path
   d="m 6479,13566 v -132 h 71 v 132 z"
   id="path170"
   inkscape:connector-curvature="0"
   style="fill:#ffff00;stroke:none" />
        <path
   d="m 6713,13566 v -132 h 75 v 132 z"
   id="path172"
   inkscape:connector-curvature="0"
   style="fill:#ffff00;stroke:none" />
        <path
   d="m 7132,13752 v -128 h 75 v 128 z"
   id="path174"
   inkscape:connector-curvature="0"
   style="fill:#ffff00;stroke:none" />
        <path
   d="m 6704,12799 v -128 h 71 v 128 z"
   id="path176"
   inkscape:connector-curvature="0"
   style="fill:#ffff00;stroke:none" />
        <path
   d="m 6664,14744 v -123 h 75 v 123 z"
   id="path178"
   inkscape:connector-curvature="0"
   style="fill:#ffff00;stroke:none" />
        <path
   d="m 6903,14744 v -123 h 75 v 123 z"
   id="path180"
   inkscape:connector-curvature="0"
   style="fill:#ffff00;stroke:none" />
        <path
   d="m 7141,14744 v -123 h 70 v 123 z"
   id="path182"
   inkscape:connector-curvature="0"
   style="fill:#ffff00;stroke:none" />
        <path
   d="m 16928,18582 v -128 h 75 v 128 z"
   id="path184"
   inkscape:connector-curvature="0"
   style="fill:#ffff00;stroke:none" />
        <path
   d="m 14577,15529 v -123 h 75 v 123 z"
   id="path186"
   inkscape:connector-curvature="0"
   style="fill:#ffff00;stroke:none" />
        <path
   d="m 14577,16712 v -128 h 75 v 128 z"
   id="path188"
   inkscape:connector-curvature="0"
   style="fill:#ffff00;stroke:none" />
        <path
   d="m 17285,17290 v -137 h 75 v 137 z"
   id="path190"
   inkscape:connector-curvature="0"
   style="fill:#ffff00;stroke:none" />
        <path
   d="m 17457,17290 v -137 h 71 v 137 z"
   id="path192"
   inkscape:connector-curvature="0"
   style="fill:#ffff00;stroke:none" />
        <path
   d="m 18573,15653 v -137 h 75 v 137 z"
   id="path194"
   inkscape:connector-curvature="0"
   style="fill:#ffff00;stroke:none" />
        <path
   d="m 18781,14810 v -128 h 70 v 128 z"
   id="path196"
   inkscape:connector-curvature="0"
   style="fill:#ffff00;stroke:none" />
        <path
   d="m 14520,18582 v -128 h 75 v 128 z"
   id="path198"
   inkscape:connector-curvature="0"
   style="fill:#ffff00;stroke:none" />
        <path
   d="m 14639,18582 v -128 h 71 v 128 z"
   id="path200"
   inkscape:connector-curvature="0"
   style="fill:#ffff00;stroke:none" />
        <path
   d="m 14758,18582 v -128 h 71 v 128 z"
   id="path202"
   inkscape:connector-curvature="0"
   style="fill:#ffff00;stroke:none" />
        <path
   d="m 14873,18582 v -128 h 75 v 128 z"
   id="path204"
   inkscape:connector-curvature="0"
   style="fill:#ffff00;stroke:none" />
        <path
   d="m 14992,18582 v -128 h 75 v 128 z"
   id="path206"
   inkscape:connector-curvature="0"
   style="fill:#ffff00;stroke:none" />
        <path
   d="m 15212,18163 v -128 h 80 v 128 z"
   id="path208"
   inkscape:connector-curvature="0"
   style="fill:#ffff00;stroke:none" />
        <path
   d="m 15411,18163 v -128 h 70 v 128 z"
   id="path210"
   inkscape:connector-curvature="0"
   style="fill:#ffff00;stroke:none" />
        <path
   d="m 15601,18163 v -128 h 74 v 128 z"
   id="path212"
   inkscape:connector-curvature="0"
   style="fill:#ffff00;stroke:none" />
        <path
   d="m 15795,18163 v -128 h 75 v 128 z"
   id="path214"
   inkscape:connector-curvature="0"
   style="fill:#ffff00;stroke:none" />
        <path
   d="m 15989,18163 v -128 h 75 v 128 z"
   id="path216"
   inkscape:connector-curvature="0"
   style="fill:#ffff00;stroke:none" />
        <path
   d="m 17493,18163 v -128 h 75 v 128 z"
   id="path218"
   inkscape:connector-curvature="0"
   style="fill:#ffff00;stroke:none" />
        <path
   d="m 17687,18163 v -128 h 75 v 128 z"
   id="path220"
   inkscape:connector-curvature="0"
   style="fill:#ffff00;stroke:none" />
        <path
   d="m 17885,18163 v -128 h 71 v 128 z"
   id="path222"
   inkscape:connector-curvature="0"
   style="fill:#ffff00;stroke:none" />
        <path
   d="m 18071,18163 v -128 h 74 v 128 z"
   id="path224"
   inkscape:connector-curvature="0"
   style="fill:#ffff00;stroke:none" />
        <path
   d="m 18265,18163 v -128 h 75 v 128 z"
   id="path226"
   inkscape:connector-curvature="0"
   style="fill:#ffff00;stroke:none" />
        <path
   d="m 14361,14850 v -132 h 71 v 132 z"
   id="path228"
   inkscape:connector-curvature="0"
   style="fill:#ffff00;stroke:none" />
        <path
   d="m 14599,14850 v -132 h 71 v 132 z"
   id="path230"
   inkscape:connector-curvature="0"
   style="fill:#ffff00;stroke:none" />
        <path
   d="m 14833,14850 v -132 h 75 v 132 z"
   id="path232"
   inkscape:connector-curvature="0"
   style="fill:#ffff00;stroke:none" />
        <path
   d="m 18961,18013 v -128 h 71 v 128 z"
   id="path234"
   inkscape:connector-curvature="0"
   style="fill:#ffff00;stroke:none" />
        <path
   d="m 19195,18013 v -128 h 75 v 128 z"
   id="path236"
   inkscape:connector-curvature="0"
   style="fill:#ffff00;stroke:none" />
        <path
   d="m 19433,18013 v -128 h 71 v 128 z"
   id="path238"
   inkscape:connector-curvature="0"
   style="fill:#ffff00;stroke:none" />
        <path
   d="m 15252,15035 v -128 h 79 v 128 z"
   id="path240"
   inkscape:connector-curvature="0"
   style="fill:#ffff00;stroke:none" />
        <path
   d="m 14829,14087 v -133 h 70 v 133 z"
   id="path242"
   inkscape:connector-curvature="0"
   style="fill:#ffff00;stroke:none" />
        <path
   d="m 15989,17210 v -128 h 70 v 128 z"
   id="path244"
   inkscape:connector-curvature="0"
   style="fill:#ffff00;stroke:none" />
        <path
   d="m 14405,17479 v -128 h 71 v 128 z"
   id="path246"
   inkscape:connector-curvature="0"
   style="fill:#ffff00;stroke:none" />
        <path
   d="m 14639,17479 v -128 h 71 v 128 z"
   id="path248"
   inkscape:connector-curvature="0"
   style="fill:#ffff00;stroke:none" />
        <path
   d="m 14877,17479 v -128 h 71 v 128 z"
   id="path250"
   inkscape:connector-curvature="0"
   style="fill:#ffff00;stroke:none" />
        <path
   d="m 14789,16028 v -124 h 75 v 124 z"
   id="path252"
   inkscape:connector-curvature="0"
   style="fill:#ffff00;stroke:none" />
        <path
   d="m 15027,16028 v -124 h 75 v 124 z"
   id="path254"
   inkscape:connector-curvature="0"
   style="fill:#ffff00;stroke:none" />
        <path
   d="m 15265,16028 v -124 h 71 v 124 z"
   id="path256"
   inkscape:connector-curvature="0"
   style="fill:#ffff00;stroke:none" />
        <path
   d="m 16946,15503 v -132 h 79 v 132 z"
   id="path258"
   inkscape:connector-curvature="0"
   style="fill:#ffff00;stroke:none" />
        <path
   d="m 17184,15503 v -132 h 71 v 132 z"
   id="path260"
   inkscape:connector-curvature="0"
   style="fill:#ffff00;stroke:none" />
        <path
   d="m 17418,15503 v -132 h 75 v 132 z"
   id="path262"
   inkscape:connector-curvature="0"
   style="fill:#ffff00;stroke:none" />
        <path
   d="m 16606,14166 v -128 h 75 v 128 z"
   id="path264"
   inkscape:connector-curvature="0"
   style="fill:#ffff00;stroke:none" />
        <path
   d="m 16840,14166 v -128 h 75 v 128 z"
   id="path266"
   inkscape:connector-curvature="0"
   style="fill:#ffff00;stroke:none" />
        <path
   d="m 17078,14166 v -128 h 71 v 128 z"
   id="path268"
   inkscape:connector-curvature="0"
   style="fill:#ffff00;stroke:none" />
        <path
   d="m 16606,16531 v -128 h 75 v 128 z"
   id="path270"
   inkscape:connector-curvature="0"
   style="fill:#ffff00;stroke:none" />
        <path
   d="m 16840,16531 v -128 h 75 v 128 z"
   id="path272"
   inkscape:connector-curvature="0"
   style="fill:#ffff00;stroke:none" />
        <path
   d="m 17078,16531 v -128 h 71 v 128 z"
   id="path274"
   inkscape:connector-curvature="0"
   style="fill:#ffff00;stroke:none" />
       </g>
      </g>
     </g>
    </g>
   </g>
  </g>
 </g>
</svg>