<?xml version="1.0" encoding="UTF-8" standalone="no"?>
<svg
   xmlns:ooo="http://xml.openoffice.org/svg/export"
   xmlns:dc="http://purl.org/dc/elements/1.1/"
   xmlns:cc="http://creativecommons.org/ns#"
   xmlns:rdf="http://www.w3.org/1999/02/22-rdf-syntax-ns#"
   xmlns:svg="http://www.w3.org/2000/svg"
   xmlns="http://www.w3.org/2000/svg"
   xmlns:sodipodi="http://sodipodi.sourceforge.net/DTD/sodipodi-0.dtd"
   xmlns:inkscape="http://www.inkscape.org/namespaces/inkscape"
   version="1.2"
   width="128.10001mm"
   height="126.82mm"
   viewBox="0 0 12810.001 12682"
   preserveAspectRatio="xMidYMid"
   xml:space="preserve"
   id="svg148"
   sodipodi:docname="cloud.svg"
   style="fill-rule:evenodd;stroke-width:28.22200012;stroke-linejoin:round"
   inkscape:version="0.92.5 (2060ec1f9f, 2020-04-08)"><metadata
   id="metadata152"><rdf:RDF><cc:Work
       rdf:about=""><dc:format>image/svg+xml</dc:format><dc:type
         rdf:resource="http://purl.org/dc/dcmitype/StillImage" /></cc:Work></rdf:RDF></metadata><sodipodi:namedview
   pagecolor="#ffffff"
   bordercolor="#666666"
   borderopacity="1"
   objecttolerance="10"
   gridtolerance="10"
   guidetolerance="10"
   inkscape:pageopacity="0"
   inkscape:pageshadow="2"
   inkscape:window-width="664"
   inkscape:window-height="487"
   id="namedview150"
   showgrid="false"
   inkscape:zoom="0.2102413"
   inkscape:cx="242.07874"
   inkscape:cy="239.65984"
   inkscape:window-x="0"
   inkscape:window-y="0"
   inkscape:window-maximized="0"
   inkscape:current-layer="svg148" />
 <defs
   class="ClipPathGroup"
   id="defs8">
  <clipPath
   id="presentation_clip_path"
   clipPathUnits="userSpaceOnUse">
   <rect
   x="0"
   y="0"
   width="21000"
   height="29700"
   id="rect2" />
  </clipPath>
  <clipPath
   id="presentation_clip_path_shrink"
   clipPathUnits="userSpaceOnUse">
   <rect
   x="21"
   y="29"
   width="20958"
   height="29641"
   id="rect5" />
  </clipPath>
 </defs>
 <defs
   class="TextShapeIndex"
   id="defs12">
  <g
   ooo:slide="id1"
   ooo:id-list="id3"
   id="g10" />
 </defs>
 <defs
   class="EmbeddedBulletChars"
   id="defs44">
  <g
   id="bullet-char-template-57356"
   transform="matrix(4.8828125e-4,0,0,-4.8828125e-4,0,0)">
   <path
   d="M 580,1141 1163,571 580,0 -4,571 Z"
   id="path14"
   inkscape:connector-curvature="0" />
  </g>
  <g
   id="bullet-char-template-57354"
   transform="matrix(4.8828125e-4,0,0,-4.8828125e-4,0,0)">
   <path
   d="M 8,1128 H 1137 V 0 H 8 Z"
   id="path17"
   inkscape:connector-curvature="0" />
  </g>
  <g
   id="bullet-char-template-10146"
   transform="matrix(4.8828125e-4,0,0,-4.8828125e-4,0,0)">
   <path
   d="M 174,0 602,739 174,1481 1456,739 Z M 1358,739 309,1346 659,739 Z"
   id="path20"
   inkscape:connector-curvature="0" />
  </g>
  <g
   id="bullet-char-template-10132"
   transform="matrix(4.8828125e-4,0,0,-4.8828125e-4,0,0)">
   <path
   d="M 2015,739 1276,0 H 717 l 543,543 H 174 v 393 h 1086 l -543,545 h 557 z"
   id="path23"
   inkscape:connector-curvature="0" />
  </g>
  <g
   id="bullet-char-template-10007"
   transform="matrix(4.8828125e-4,0,0,-4.8828125e-4,0,0)">
   <path
   d="m 0,-2 c -7,16 -16,29 -25,39 l 381,530 c -94,256 -141,385 -141,387 0,25 13,38 40,38 9,0 21,-2 34,-5 21,4 42,12 65,25 l 27,-13 111,-251 280,301 64,-25 24,25 c 21,-10 41,-24 62,-43 C 886,937 835,863 770,784 769,783 710,716 594,584 L 774,223 c 0,-27 -21,-55 -63,-84 l 16,-20 C 717,90 699,76 672,76 641,76 570,178 457,381 L 164,-76 c -22,-34 -53,-51 -92,-51 -42,0 -63,17 -64,51 -7,9 -10,24 -10,44 0,9 1,19 2,30 z"
   id="path26"
   inkscape:connector-curvature="0" />
  </g>
  <g
   id="bullet-char-template-10004"
   transform="matrix(4.8828125e-4,0,0,-4.8828125e-4,0,0)">
   <path
   d="M 285,-33 C 182,-33 111,30 74,156 52,228 41,333 41,471 c 0,78 14,145 41,201 34,71 87,106 158,106 53,0 88,-31 106,-94 l 23,-176 c 8,-64 28,-97 59,-98 l 735,706 c 11,11 33,17 66,17 42,0 63,-15 63,-46 V 965 c 0,-36 -10,-64 -30,-84 L 442,47 C 390,-6 338,-33 285,-33 Z"
   id="path29"
   inkscape:connector-curvature="0" />
  </g>
  <g
   id="bullet-char-template-9679"
   transform="matrix(4.8828125e-4,0,0,-4.8828125e-4,0,0)">
   <path
   d="M 813,0 C 632,0 489,54 383,161 276,268 223,411 223,592 c 0,181 53,324 160,431 106,107 249,161 430,161 179,0 323,-54 432,-161 108,-107 162,-251 162,-431 0,-180 -54,-324 -162,-431 C 1136,54 992,0 813,0 Z"
   id="path32"
   inkscape:connector-curvature="0" />
  </g>
  <g
   id="bullet-char-template-8226"
   transform="matrix(4.8828125e-4,0,0,-4.8828125e-4,0,0)">
   <path
   d="m 346,457 c -73,0 -137,26 -191,78 -54,51 -81,114 -81,188 0,73 27,136 81,188 54,52 118,78 191,78 73,0 134,-26 185,-79 51,-51 77,-114 77,-187 0,-75 -25,-137 -76,-188 -50,-52 -112,-78 -186,-78 z"
   id="path35"
   inkscape:connector-curvature="0" />
  </g>
  <g
   id="bullet-char-template-8211"
   transform="matrix(4.8828125e-4,0,0,-4.8828125e-4,0,0)">
   <path
   d="M -4,459 H 1135 V 606 H -4 Z"
   id="path38"
   inkscape:connector-curvature="0" />
  </g>
  <g
   id="bullet-char-template-61548"
   transform="matrix(4.8828125e-4,0,0,-4.8828125e-4,0,0)">
   <path
   d="m 173,740 c 0,163 58,303 173,419 116,115 255,173 419,173 163,0 302,-58 418,-173 116,-116 174,-256 174,-419 0,-163 -58,-303 -174,-418 C 1067,206 928,148 765,148 601,148 462,206 346,322 231,437 173,577 173,740 Z"
   id="path41"
   inkscape:connector-curvature="0" />
  </g>
 </defs>
 <g
   id="g49"
   transform="translate(-4095,-8509)">
  <g
   id="id2"
   class="Master_Slide">
   <g
   id="bg-id2"
   class="Background" />
   <g
   id="bo-id2"
   class="BackgroundObjects" />
  </g>
 </g>
 <g
   class="SlideGroup"
   id="g146"
   transform="translate(-4095,-8509)">
  <g
   id="g144">
   <g
   id="container-id1">
    <g
   id="id1"
   class="Slide"
   clip-path="url(#presentation_clip_path)">
     <g
   class="Page"
   id="g140">
      <g
   class="Graphic"
   id="g138">
       <g
   id="id3">
        <rect
   class="BoundingBox"
   x="4095"
   y="8509"
   width="12810"
   height="12682"
   id="rect51"
   style="fill:none;stroke:none" />
        <path
   d="m 11059,17468 c 0,141 -37,280 -108,403 -70,122 -172,224 -294,295 -123,71 -261,108 -402,108 -142,0 -280,-37 -403,-108 -122,-71 -224,-173 -294,-295 -71,-123 -108,-262 -108,-403 0,-142 37,-281 108,-404 70,-122 172,-224 294,-295 123,-71 261,-108 403,-108 141,0 279,37 402,108 122,71 224,173 294,295 71,123 108,262 108,404 z"
   id="path53"
   inkscape:connector-curvature="0"
   style="fill:#ffffff;stroke:none" />
        <path
   d="m 11056,17464 -1,-41 -3,-41 -5,-40 -7,-40 -10,-40 -11,-40 -13,-38 -15,-38 -17,-37 -19,-37 -21,-35 -22,-34 -24,-33 -26,-32 -27,-30 -29,-29 -30,-27 -31,-26 -33,-24 -34,-23 -35,-21 -36,-19 -37,-17 -38,-15 -39,-13 -39,-11 -39,-9 -40,-8 -41,-5 -40,-3 -41,-1 v 0 l -41,1 -40,3 -41,5 -40,8 -39,9 -39,11 -39,13 -38,15 -37,17 -36,19 -35,21 -34,23 -33,24 -31,26 -30,27 -29,29 -27,30 -26,32 -24,33 -22,34 -21,35 -19,37 -17,37 -15,38 -13,38 -11,40 -10,40 -7,40 -5,40 -3,41 -1,41 v 0 l 1,41 3,41 5,40 7,40 10,40 11,40 13,38 15,38 17,37 19,37 21,35 22,34 24,33 26,32 27,30 29,29 30,27 31,26 33,24 34,23 35,21 36,19 37,17 38,15 39,13 39,11 39,9 40,8 41,5 40,3 41,1 v 0 l 41,-1 40,-3 41,-5 40,-8 39,-9 39,-11 39,-13 38,-15 37,-17 36,-19 35,-21 34,-23 33,-24 31,-26 30,-27 29,-29 27,-30 26,-32 24,-33 22,-34 21,-35 19,-37 17,-37 15,-38 13,-38 11,-40 10,-40 7,-40 5,-40 3,-41 z"
   id="path55"
   inkscape:connector-curvature="0"
   style="fill:none;stroke:#000000;stroke-width:71;stroke-linecap:round;stroke-linejoin:round" />
        <path
   d="m 11059,11506 c 0,141 -37,279 -108,402 -70,122 -172,224 -294,294 -123,71 -261,108 -402,108 -142,0 -280,-37 -403,-108 -122,-70 -224,-172 -294,-294 -71,-123 -108,-261 -108,-402 0,-142 37,-280 108,-403 70,-122 172,-224 294,-294 123,-71 261,-108 403,-108 141,0 279,37 402,108 122,70 224,172 294,294 71,123 108,261 108,403 z"
   id="path57"
   inkscape:connector-curvature="0"
   style="fill:#ffffff;stroke:none" />
        <path
   d="m 11056,11504 -1,-41 -3,-40 -5,-41 -7,-40 -10,-39 -11,-39 -13,-39 -15,-38 -17,-37 -19,-36 -21,-35 -22,-34 -24,-33 -26,-31 -27,-30 -29,-29 -30,-27 -31,-26 -33,-24 -34,-22 -35,-21 -36,-19 -37,-17 -38,-15 -39,-13 -39,-11 -39,-10 -40,-7 -41,-5 -40,-3 -41,-1 v 0 l -41,1 -40,3 -41,5 -40,7 -39,10 -39,11 -39,13 -38,15 -37,17 -36,19 -35,21 -34,22 -33,24 -31,26 -30,27 -29,29 -27,30 -26,31 -24,33 -22,34 -21,35 -19,36 -17,37 -15,38 -13,39 -11,39 -10,39 -7,40 -5,41 -3,40 -1,41 v 0 l 1,41 3,40 5,41 7,40 10,39 11,39 13,39 15,38 17,37 19,36 21,35 22,34 24,33 26,31 27,30 29,29 30,27 31,26 33,24 34,22 35,21 36,19 37,17 38,15 39,13 39,11 39,10 40,7 41,5 40,3 41,1 v 0 l 41,-1 40,-3 41,-5 40,-7 39,-10 39,-11 39,-13 38,-15 37,-17 36,-19 35,-21 34,-22 33,-24 31,-26 30,-27 29,-29 27,-30 26,-31 24,-33 22,-34 21,-35 19,-36 17,-37 15,-38 13,-39 11,-39 10,-39 7,-40 5,-41 3,-40 z"
   id="path59"
   inkscape:connector-curvature="0"
   style="fill:none;stroke:#000000;stroke-width:71;stroke-linecap:round;stroke-linejoin:round" />
        <path
   d="m 8241,11507 c 0,86 -23,171 -66,245 -43,75 -105,137 -180,180 -74,43 -159,66 -245,66 -87,0 -172,-23 -246,-66 -75,-43 -137,-105 -180,-180 -43,-74 -66,-159 -66,-245 0,-87 23,-172 66,-246 43,-75 105,-137 180,-180 74,-43 159,-66 246,-66 86,0 171,23 245,66 75,43 137,105 180,180 43,74 66,159 66,246 z"
   id="path61"
   inkscape:connector-curvature="0"
   style="fill:#ffffff;stroke:none" />
        <path
   d="m 8237,11504 -1,-25 -2,-25 -3,-24 -4,-25 -6,-24 -6,-24 -9,-23 -9,-23 -10,-23 -12,-22 -12,-21 -14,-21 -15,-20 -15,-19 -17,-19 -17,-17 -19,-17 -19,-15 -20,-15 -21,-14 -21,-12 -22,-12 -23,-10 -23,-9 -23,-9 -24,-6 -24,-6 -25,-4 -24,-3 -25,-2 -25,-1 v 0 l -25,1 -25,2 -24,3 -25,4 -24,6 -24,6 -23,9 -23,9 -23,10 -22,12 -21,12 -21,14 -20,15 -19,15 -19,17 -17,17 -17,19 -15,19 -15,20 -14,21 -12,21 -12,22 -10,23 -9,23 -9,23 -6,24 -6,24 -4,25 -3,24 -2,25 -1,25 v 0 l 1,25 2,25 3,24 4,25 6,24 6,24 9,23 9,23 10,23 12,22 12,21 14,21 15,20 15,19 17,19 17,17 19,17 19,15 20,15 21,14 21,12 22,12 23,10 23,9 23,9 24,6 24,6 25,4 24,3 25,2 25,1 v 0 l 25,-1 25,-2 24,-3 25,-4 24,-6 24,-6 23,-9 23,-9 23,-10 22,-12 21,-12 21,-14 20,-15 19,-15 19,-17 17,-17 17,-19 15,-19 15,-20 14,-21 12,-21 12,-22 10,-23 9,-23 9,-23 6,-24 6,-24 4,-25 3,-24 2,-25 z"
   id="path63"
   inkscape:connector-curvature="0"
   style="fill:none;stroke:#000000;stroke-width:71;stroke-linecap:round;stroke-linejoin:round" />
        <path
   d="m 7614,15274 c 0,86 -23,171 -66,245 -43,75 -105,137 -180,180 -74,43 -159,66 -245,66 -87,0 -172,-23 -246,-66 -75,-43 -137,-105 -180,-180 -43,-74 -66,-159 -66,-245 0,-87 23,-172 66,-246 43,-75 105,-137 180,-180 74,-43 159,-66 246,-66 86,0 171,23 245,66 75,43 137,105 180,180 43,74 66,159 66,246 z"
   id="path65"
   inkscape:connector-curvature="0"
   style="fill:#ffffff;stroke:none" />
        <path
   d="m 7611,15271 -1,-25 -2,-25 -3,-24 -4,-25 -6,-24 -6,-24 -9,-23 -9,-23 -10,-23 -12,-22 -12,-21 -14,-21 -15,-20 -15,-19 -17,-19 -17,-17 -19,-17 -19,-15 -20,-15 -21,-14 -21,-12 -22,-12 -23,-10 -23,-9 -23,-9 -24,-6 -24,-6 -25,-4 -24,-3 -25,-2 -25,-1 v 0 l -25,1 -25,2 -24,3 -25,4 -24,6 -24,6 -23,9 -23,9 -23,10 -22,12 -21,12 -21,14 -20,15 -19,15 -19,17 -17,17 -17,19 -15,19 -15,20 -14,21 -12,21 -12,22 -10,23 -9,23 -9,23 -6,24 -6,24 -4,25 -3,24 -2,25 -1,25 v 0 l 1,25 2,25 3,24 4,25 6,24 6,24 9,23 9,23 10,23 12,22 12,21 14,21 15,20 15,19 17,19 17,17 19,17 19,15 20,15 21,14 21,12 22,12 23,10 23,9 23,9 24,6 24,6 25,4 24,3 25,2 25,1 v 0 l 25,-1 25,-2 24,-3 25,-4 24,-6 24,-6 23,-9 23,-9 23,-10 22,-12 21,-12 21,-14 20,-15 19,-15 19,-17 17,-17 17,-19 15,-19 15,-20 14,-21 12,-21 12,-22 10,-23 9,-23 9,-23 6,-24 6,-24 4,-25 3,-24 2,-25 z"
   id="path67"
   inkscape:connector-curvature="0"
   style="fill:none;stroke:#000000;stroke-width:71;stroke-linecap:round;stroke-linejoin:round" />
        <path
   d="m 7614,14016 c 0,141 -37,279 -108,402 -70,122 -172,224 -294,294 -123,71 -261,108 -402,108 -142,0 -280,-37 -403,-108 -122,-70 -224,-172 -294,-294 -71,-123 -108,-261 -108,-402 0,-142 37,-280 108,-403 70,-122 172,-224 294,-294 123,-71 261,-108 403,-108 141,0 279,37 402,108 122,70 224,172 294,294 71,123 108,261 108,403 z"
   id="path69"
   inkscape:connector-curvature="0"
   style="fill:#ffffff;stroke:none" />
        <path
   d="m 7611,14014 -1,-41 -3,-40 -5,-41 -7,-40 -10,-39 -11,-39 -13,-39 -15,-38 -17,-37 -19,-36 -21,-35 -22,-34 -24,-33 -26,-31 -27,-30 -29,-29 -30,-27 -31,-26 -33,-24 -34,-22 -35,-21 -36,-19 -37,-17 -38,-15 -39,-13 -39,-11 -39,-10 -40,-7 -41,-5 -40,-3 -41,-1 v 0 l -41,1 -40,3 -41,5 -40,7 -39,10 -39,11 -39,13 -38,15 -37,17 -36,19 -35,21 -34,22 -33,24 -31,26 -30,27 -29,29 -27,30 -26,31 -24,33 -22,34 -21,35 -19,36 -17,37 -15,38 -13,39 -11,39 -10,39 -7,40 -5,41 -3,40 -1,41 v 0 l 1,41 3,40 5,41 7,40 10,39 11,39 13,39 15,38 17,37 19,36 21,35 22,34 24,33 26,31 27,30 29,29 30,27 31,26 33,24 34,22 35,21 36,19 37,17 38,15 39,13 39,11 39,10 40,7 41,5 40,3 41,1 v 0 l 41,-1 40,-3 41,-5 40,-7 39,-10 39,-11 39,-13 38,-15 37,-17 36,-19 35,-21 34,-22 33,-24 31,-26 30,-27 29,-29 27,-30 26,-31 24,-33 22,-34 21,-35 19,-36 17,-37 15,-38 13,-39 11,-39 10,-39 7,-40 5,-41 3,-40 z"
   id="path71"
   inkscape:connector-curvature="0"
   style="fill:none;stroke:#000000;stroke-width:71;stroke-linecap:round;stroke-linejoin:round" />
        <path
   d="m 9806,11506 c 0,141 -37,279 -108,402 -70,122 -172,224 -294,294 -123,71 -261,108 -402,108 -142,0 -280,-37 -403,-108 -122,-70 -224,-172 -294,-294 -71,-123 -108,-261 -108,-402 0,-142 37,-280 108,-403 70,-122 172,-224 294,-294 123,-71 261,-108 403,-108 141,0 279,37 402,108 122,70 224,172 294,294 71,123 108,261 108,403 z"
   id="path73"
   inkscape:connector-curvature="0"
   style="fill:#ffffff;stroke:none" />
        <path
   d="m 9803,11504 -1,-41 -3,-40 -5,-41 -7,-40 -10,-39 -11,-39 -13,-39 -15,-38 -17,-37 -19,-36 -21,-35 -22,-34 -24,-33 -26,-31 -27,-30 -29,-29 -30,-27 -31,-26 -33,-24 -34,-22 -35,-21 -36,-19 -37,-17 -38,-15 -39,-13 -39,-11 -39,-10 -40,-7 -41,-5 -40,-3 -41,-1 v 0 l -41,1 -40,3 -41,5 -40,7 -39,10 -39,11 -39,13 -38,15 -37,17 -36,19 -35,21 -34,22 -33,24 -31,26 -30,27 -29,29 -27,30 -26,31 -24,33 -22,34 -21,35 -19,36 -17,37 -15,38 -13,39 -11,39 -10,39 -7,40 -5,41 -3,40 -1,41 v 0 l 1,41 3,40 5,41 7,40 10,39 11,39 13,39 15,38 17,37 19,36 21,35 22,34 24,33 26,31 27,30 29,29 30,27 31,26 33,24 34,22 35,21 36,19 37,17 38,15 39,13 39,11 39,10 40,7 41,5 40,3 41,1 v 0 l 41,-1 40,-3 41,-5 40,-7 39,-10 39,-11 39,-13 38,-15 37,-17 36,-19 35,-21 34,-22 33,-24 31,-26 30,-27 29,-29 27,-30 26,-31 24,-33 22,-34 21,-35 19,-36 17,-37 15,-38 13,-39 11,-39 10,-39 7,-40 5,-41 3,-40 z"
   id="path75"
   inkscape:connector-curvature="0"
   style="fill:none;stroke:#000000;stroke-width:71;stroke-linecap:round;stroke-linejoin:round" />
        <path
   d="m 15131,17155 c 0,141 -37,280 -108,403 -70,122 -172,224 -294,295 -123,71 -261,108 -402,108 -142,0 -280,-37 -403,-108 -122,-71 -224,-173 -294,-295 -71,-123 -108,-262 -108,-403 0,-142 37,-281 108,-404 70,-122 172,-224 294,-295 123,-71 261,-108 403,-108 141,0 279,37 402,108 122,71 224,173 294,295 71,123 108,262 108,404 z"
   id="path77"
   inkscape:connector-curvature="0"
   style="fill:#ffffff;stroke:none" />
        <path
   d="m 15127,17150 -1,-41 -3,-41 -5,-40 -7,-40 -10,-40 -11,-40 -13,-38 -15,-38 -17,-37 -19,-37 -21,-35 -22,-34 -24,-33 -26,-32 -27,-30 -29,-29 -30,-27 -31,-26 -33,-24 -34,-23 -35,-21 -36,-19 -37,-17 -38,-15 -39,-13 -39,-11 -39,-9 -40,-8 -41,-5 -40,-3 -41,-1 v 0 l -41,1 -40,3 -41,5 -40,8 -39,9 -39,11 -39,13 -38,15 -37,17 -36,19 -35,21 -34,23 -33,24 -31,26 -30,27 -29,29 -27,30 -26,32 -24,33 -22,34 -21,35 -19,37 -17,37 -15,38 -13,38 -11,40 -10,40 -7,40 -5,40 -3,41 -1,41 v 0 l 1,41 3,41 5,40 7,40 10,40 11,40 13,38 15,38 17,37 19,37 21,35 22,34 24,33 26,32 27,30 29,29 30,27 31,26 33,24 34,23 35,21 36,19 37,17 38,15 39,13 39,11 39,9 40,8 41,5 40,3 41,1 v 0 l 41,-1 40,-3 41,-5 40,-8 39,-9 39,-11 39,-13 38,-15 37,-17 36,-19 35,-21 34,-23 33,-24 31,-26 30,-27 29,-29 27,-30 26,-32 24,-33 22,-34 21,-35 19,-37 17,-37 15,-38 13,-38 11,-40 10,-40 7,-40 5,-40 3,-41 z"
   id="path79"
   inkscape:connector-curvature="0"
   style="fill:none;stroke:#000000;stroke-width:71;stroke-linecap:round;stroke-linejoin:round" />
        <path
   d="m 13878,17468 c 0,141 -37,280 -108,403 -70,122 -172,224 -294,295 -123,71 -261,108 -402,108 -142,0 -280,-37 -403,-108 -122,-71 -224,-173 -294,-295 -71,-123 -108,-262 -108,-403 0,-142 37,-281 108,-404 70,-122 172,-224 294,-295 123,-71 261,-108 403,-108 141,0 279,37 402,108 122,71 224,173 294,295 71,123 108,262 108,404 z"
   id="path81"
   inkscape:connector-curvature="0"
   style="fill:#ffffff;stroke:none" />
        <path
   d="m 13875,17464 -1,-41 -3,-41 -5,-40 -7,-40 -10,-40 -11,-40 -13,-38 -15,-38 -17,-37 -19,-37 -21,-35 -22,-34 -24,-33 -26,-32 -27,-30 -29,-29 -30,-27 -31,-26 -33,-24 -34,-23 -35,-21 -36,-19 -37,-17 -38,-15 -39,-13 -39,-11 -39,-9 -40,-8 -41,-5 -40,-3 -41,-1 v 0 l -41,1 -40,3 -41,5 -40,8 -39,9 -39,11 -39,13 -38,15 -37,17 -36,19 -35,21 -34,23 -33,24 -31,26 -30,27 -29,29 -27,30 -26,32 -24,33 -22,34 -21,35 -19,37 -17,37 -15,38 -13,38 -11,40 -10,40 -7,40 -5,40 -3,41 -1,41 v 0 l 1,41 3,41 5,40 7,40 10,40 11,40 13,38 15,38 17,37 19,37 21,35 22,34 24,33 26,32 27,30 29,29 30,27 31,26 33,24 34,23 35,21 36,19 37,17 38,15 39,13 39,11 39,9 40,8 41,5 40,3 41,1 v 0 l 41,-1 40,-3 41,-5 40,-8 39,-9 39,-11 39,-13 38,-15 37,-17 36,-19 35,-21 34,-23 33,-24 31,-26 30,-27 29,-29 27,-30 26,-32 24,-33 22,-34 21,-35 19,-37 17,-37 15,-38 13,-38 11,-40 10,-40 7,-40 5,-40 3,-41 z"
   id="path83"
   inkscape:connector-curvature="0"
   style="fill:none;stroke:#000000;stroke-width:71;stroke-linecap:round;stroke-linejoin:round" />
        <path
   d="m 9397,11906 238,-3216 389,3683 1252,-507 1844,-3295 -1292,4155 820,432 1804,-1645 -1332,2232 781,159 1213,-1138 -1014,1451 626,2236 2073,1611 -3013,-1452 -39,900 780,2157 -1526,-2549 -1253,944 -705,3017 -468,-3450 -3370,-2510 H 4152 l 3132,-631 -79,-2509 -1368,-2078 2466,2316 z"
   id="path85"
   inkscape:connector-curvature="0"
   style="fill:#ffff00;stroke:none" />
        <path
   d="m 9397,11906 238,-3216 389,3683 1252,-507 1844,-3295 -1292,4155 820,432 1804,-1645 -1332,2232 781,159 1213,-1138 -1014,1451 626,2236 2073,1611 -3013,-1452 -39,900 780,2157 -1526,-2549 -1253,944 -705,3017 -468,-3450 -3370,-2510 H 4152 l 3132,-631 -79,-2509 -1368,-2078 2466,2316 z"
   id="path87"
   inkscape:connector-curvature="0"
   style="fill:none;stroke:#000000;stroke-width:71;stroke-linecap:round;stroke-linejoin:round" />
        <path
   d="m 8867,13074 c 0,252 -66,499 -192,717 -125,217 -306,398 -523,524 -218,126 -465,192 -716,192 -251,0 -498,-66 -715,-192 -218,-126 -399,-307 -524,-524 -126,-218 -192,-465 -192,-717 0,-252 66,-499 192,-716 125,-218 306,-399 523,-525 218,-126 465,-192 716,-192 251,0 498,66 715,192 218,126 399,307 524,524 126,218 192,465 192,717 z"
   id="path89"
   inkscape:connector-curvature="0"
   style="fill:#ffffff;stroke:none" />
        <path
   d="m 8863,13070 -2,-73 -5,-72 -9,-72 -13,-72 -17,-70 -20,-70 -23,-69 -27,-68 -30,-66 -34,-64 -36,-63 -40,-60 -43,-59 -46,-56 -48,-54 -51,-51 -54,-49 -56,-46 -59,-43 -60,-40 -63,-37 -64,-33 -65,-31 -68,-27 -68,-23 -70,-20 -70,-17 -72,-12 -71,-10 -73,-5 -72,-2 v 0 l -72,2 -73,5 -71,10 -72,12 -70,17 -70,20 -68,23 -68,27 -65,31 -64,33 -63,37 -60,40 -59,43 -56,46 -54,49 -51,51 -48,54 -46,56 -43,59 -40,60 -36,63 -34,64 -30,66 -27,68 -23,69 -20,70 -17,70 -13,72 -9,72 -5,72 -2,73 v 0 l 2,73 5,72 9,72 13,72 17,70 20,70 23,69 27,68 30,66 34,64 36,63 40,60 43,59 46,56 48,54 51,51 54,49 56,46 59,43 60,40 63,37 64,33 65,31 68,27 68,23 70,20 70,17 72,12 71,10 73,5 72,2 v 0 l 72,-2 73,-5 71,-10 72,-12 70,-17 70,-20 68,-23 68,-27 65,-31 64,-33 63,-37 60,-40 59,-43 56,-46 54,-49 51,-51 48,-54 46,-56 43,-59 40,-60 36,-63 34,-64 30,-66 27,-68 23,-69 20,-70 17,-70 13,-72 9,-72 5,-72 z"
   id="path91"
   inkscape:connector-curvature="0"
   style="fill:none;stroke:#000000;stroke-width:71;stroke-linecap:round;stroke-linejoin:round" />
        <path
   d="m 12312,14960 c 0,472 -124,935 -360,1344 -235,409 -574,748 -982,984 -408,236 -870,360 -1341,360 -472,0 -934,-124 -1342,-360 -408,-236 -747,-575 -982,-984 -236,-409 -360,-872 -360,-1344 0,-472 124,-935 360,-1344 235,-409 574,-748 982,-984 408,-236 870,-360 1341,-360 472,0 934,124 1342,360 408,236 747,575 982,984 236,409 360,872 360,1344 z"
   id="path93"
   inkscape:connector-curvature="0"
   style="fill:#ffffff;stroke:none" />
        <path
   d="m 12309,14958 -3,-136 -11,-136 -17,-135 -24,-134 -31,-132 -37,-131 -44,-129 -50,-126 -57,-124 -63,-121 -69,-117 -75,-113 -80,-110 -86,-106 -91,-101 -96,-96 -101,-91 -105,-86 -110,-81 -113,-74 -117,-69 -121,-64 -123,-56 -127,-51 -128,-44 -131,-37 -132,-31 -134,-24 -135,-17 -135,-11 -136,-3 v 0 l -136,3 -135,11 -135,17 -134,24 -132,31 -131,37 -128,44 -127,51 -123,56 -121,64 -117,69 -113,74 -110,81 -105,86 -101,91 -96,96 -91,101 -86,106 -80,110 -75,113 -69,117 -63,121 -57,124 -50,126 -44,129 -37,131 -31,132 -24,134 -17,135 -11,136 -3,136 v 0 l 3,136 11,136 17,135 24,134 31,132 37,131 44,129 50,126 57,124 63,121 69,117 75,113 80,110 86,106 91,101 96,96 101,91 105,86 110,81 113,74 117,69 121,64 123,56 127,51 128,44 131,37 132,31 134,24 135,17 135,11 136,3 v 0 l 136,-3 135,-11 135,-17 134,-24 132,-31 131,-37 128,-44 127,-51 123,-56 121,-64 117,-69 113,-74 110,-81 105,-86 101,-91 96,-96 91,-101 86,-106 80,-110 75,-113 69,-117 63,-121 57,-124 50,-126 44,-129 37,-131 31,-132 24,-134 17,-135 11,-136 z"
   id="path95"
   inkscape:connector-curvature="0"
   style="fill:none;stroke:#000000;stroke-width:71;stroke-linecap:round;stroke-linejoin:round" />
        <path
   d="m 7739,12929 -936,1235 464,177 630,-1289 z"
   id="path97"
   inkscape:connector-curvature="0"
   style="fill:#ffffff;stroke:none" />
        <path
   d="m 14191,15586 c 0,472 -124,935 -360,1344 -235,409 -574,748 -982,984 -408,236 -870,360 -1341,360 -472,0 -934,-124 -1342,-360 -408,-236 -747,-575 -982,-984 -236,-409 -360,-872 -360,-1344 0,-472 124,-935 360,-1344 235,-409 574,-748 982,-984 408,-236 870,-360 1341,-360 472,0 934,124 1342,360 408,236 747,575 982,984 236,409 360,872 360,1344 z"
   id="path99"
   inkscape:connector-curvature="0"
   style="fill:#ffffff;stroke:none" />
        <path
   d="m 14188,15584 -3,-136 -11,-136 -17,-135 -24,-134 -31,-132 -37,-131 -44,-129 -50,-126 -57,-124 -63,-121 -69,-117 -75,-113 -80,-110 -86,-106 -91,-101 -96,-96 -101,-91 -105,-86 -110,-81 -113,-74 -117,-69 -121,-64 -123,-56 -127,-51 -128,-44 -131,-37 -132,-31 -134,-24 -135,-17 -135,-11 -136,-3 v 0 l -136,3 -135,11 -135,17 -134,24 -132,31 -131,37 -128,44 -127,51 -123,56 -121,64 -117,69 -113,74 -110,81 -105,86 -101,91 -96,96 -91,101 -86,106 -80,110 -75,113 -69,117 -63,121 -57,124 -50,126 -44,129 -37,131 -31,132 -24,134 -17,135 -11,136 -3,136 v 0 l 3,136 11,136 17,135 24,134 31,132 37,131 44,129 50,126 57,124 63,121 69,117 75,113 80,110 86,106 91,101 96,96 101,91 105,86 110,81 113,74 117,69 121,64 123,56 127,51 128,44 131,37 132,31 134,24 135,17 135,11 136,3 v 0 l 136,-3 135,-11 135,-17 134,-24 132,-31 131,-37 128,-44 127,-51 123,-56 121,-64 117,-69 113,-74 110,-81 105,-86 101,-91 96,-96 91,-101 86,-106 80,-110 75,-113 69,-117 63,-121 57,-124 50,-126 44,-129 37,-131 31,-132 24,-134 17,-135 11,-136 z"
   id="path101"
   inkscape:connector-curvature="0"
   style="fill:none;stroke:#000000;stroke-width:71;stroke-linecap:round;stroke-linejoin:round" />
        <path
   d="m 15444,14802 c 0,169 -44,335 -129,481 -84,147 -205,268 -351,353 -147,84 -312,129 -481,129 -169,0 -334,-45 -480,-129 -147,-85 -268,-206 -352,-353 -85,-146 -129,-312 -129,-481 0,-170 44,-336 129,-482 84,-147 205,-268 352,-353 146,-84 311,-129 480,-129 169,0 334,45 481,129 146,85 267,206 351,353 85,146 129,312 129,482 z"
   id="path103"
   inkscape:connector-curvature="0"
   style="fill:#ffffff;stroke:none" />
        <path
   d="m 15441,14799 -1,-49 -4,-48 -6,-49 -9,-48 -11,-47 -13,-47 -16,-46 -18,-45 -20,-45 -23,-43 -25,-42 -26,-41 -29,-39 -31,-38 -33,-36 -34,-34 -36,-33 -38,-31 -39,-29 -41,-26 -42,-25 -43,-23 -45,-20 -45,-18 -46,-16 -47,-13 -47,-11 -48,-9 -49,-6 -48,-4 -49,-1 v 0 l -49,1 -48,4 -49,6 -48,9 -47,11 -47,13 -46,16 -45,18 -45,20 -43,23 -42,25 -41,26 -39,29 -38,31 -36,33 -34,34 -33,36 -31,38 -29,39 -26,41 -25,42 -23,43 -20,45 -18,45 -16,46 -13,47 -11,47 -9,48 -6,49 -4,48 -1,49 v 0 l 1,49 4,48 6,49 9,48 11,47 13,47 16,46 18,45 20,45 23,43 25,42 26,41 29,39 31,38 33,36 34,34 36,33 38,31 39,29 41,26 42,25 43,23 45,20 45,18 46,16 47,13 47,11 48,9 49,6 48,4 49,1 v 0 l 49,-1 48,-4 49,-6 48,-9 47,-11 47,-13 46,-16 45,-18 45,-20 43,-23 42,-25 41,-26 39,-29 38,-31 36,-33 34,-34 33,-36 31,-38 29,-39 26,-41 25,-42 23,-43 20,-45 18,-45 16,-46 13,-47 11,-47 9,-48 6,-49 4,-48 z"
   id="path105"
   inkscape:connector-curvature="0"
   style="fill:none;stroke:#000000;stroke-width:71;stroke-linecap:round;stroke-linejoin:round" />
        <path
   d="m 14191,17311 c 0,114 -30,226 -87,325 -57,99 -138,181 -237,238 -99,57 -210,87 -324,87 -114,0 -225,-30 -324,-87 -99,-57 -180,-139 -237,-238 -57,-99 -87,-211 -87,-325 0,-114 30,-226 87,-325 57,-99 138,-181 237,-238 99,-57 210,-87 324,-87 114,0 225,30 324,87 99,57 180,139 237,238 57,99 87,211 87,325 z"
   id="path107"
   inkscape:connector-curvature="0"
   style="fill:#ffffff;stroke:none" />
        <path
   d="m 14187,17309 -1,-33 -2,-33 -4,-32 -6,-32 -8,-32 -9,-32 -10,-31 -13,-31 -13,-29 -15,-29 -17,-29 -18,-27 -20,-27 -20,-25 -22,-24 -24,-24 -24,-22 -25,-20 -27,-20 -27,-18 -29,-17 -29,-15 -29,-13 -31,-13 -31,-10 -32,-9 -32,-8 -32,-6 -32,-4 -33,-2 -33,-1 v 0 l -33,1 -33,2 -32,4 -32,6 -32,8 -32,9 -31,10 -31,13 -29,13 -29,15 -29,17 -27,18 -27,20 -25,20 -24,22 -24,24 -22,24 -20,25 -20,27 -18,27 -17,29 -15,29 -13,29 -13,31 -10,31 -9,32 -8,32 -6,32 -4,32 -2,33 -1,33 v 0 l 1,33 2,33 4,32 6,32 8,32 9,32 10,31 13,31 13,29 15,29 17,29 18,27 20,27 20,25 22,24 24,24 24,22 25,20 27,20 27,18 29,17 29,15 29,13 31,13 31,10 32,9 32,8 32,6 32,4 33,2 33,1 v 0 l 33,-1 33,-2 32,-4 32,-6 32,-8 32,-9 31,-10 31,-13 29,-13 29,-15 29,-17 27,-18 27,-20 25,-20 24,-22 24,-24 22,-24 20,-25 20,-27 18,-27 17,-29 15,-29 13,-29 13,-31 10,-31 9,-32 8,-32 6,-32 4,-32 2,-33 z"
   id="path109"
   inkscape:connector-curvature="0"
   style="fill:none;stroke:#000000;stroke-width:71;stroke-linecap:round;stroke-linejoin:round" />
        <path
   d="m 14191,13859 c 0,114 -30,225 -87,324 -57,99 -138,180 -237,237 -99,57 -210,87 -324,87 -114,0 -225,-30 -324,-87 -99,-57 -180,-138 -237,-237 -57,-99 -87,-210 -87,-324 0,-114 30,-225 87,-324 57,-99 138,-180 237,-237 99,-57 210,-87 324,-87 114,0 225,30 324,87 99,57 180,138 237,237 57,99 87,210 87,324 z"
   id="path111"
   inkscape:connector-curvature="0"
   style="fill:#ffffff;stroke:none" />
        <path
   d="m 14187,13855 -1,-33 -2,-33 -4,-32 -6,-32 -8,-32 -9,-32 -10,-31 -13,-31 -13,-29 -15,-29 -17,-29 -18,-27 -20,-27 -20,-25 -22,-24 -24,-24 -24,-22 -25,-20 -27,-20 -27,-18 -29,-17 -29,-15 -29,-13 -31,-13 -31,-10 -32,-9 -32,-8 -32,-6 -32,-4 -33,-2 -33,-1 v 0 l -33,1 -33,2 -32,4 -32,6 -32,8 -32,9 -31,10 -31,13 -29,13 -29,15 -29,17 -27,18 -27,20 -25,20 -24,22 -24,24 -22,24 -20,25 -20,27 -18,27 -17,29 -15,29 -13,29 -13,31 -10,31 -9,32 -8,32 -6,32 -4,32 -2,33 -1,33 v 0 l 1,33 2,33 4,32 6,32 8,32 9,32 10,31 13,31 13,29 15,29 17,29 18,27 20,27 20,25 22,24 24,24 24,22 25,20 27,20 27,18 29,17 29,15 29,13 31,13 31,10 32,9 32,8 32,6 32,4 33,2 33,1 v 0 l 33,-1 33,-2 32,-4 32,-6 32,-8 32,-9 31,-10 31,-13 29,-13 29,-15 29,-17 27,-18 27,-20 25,-20 24,-22 24,-24 22,-24 20,-25 20,-27 18,-27 17,-29 15,-29 13,-29 13,-31 10,-31 9,-32 8,-32 6,-32 4,-32 2,-33 z"
   id="path113"
   inkscape:connector-curvature="0"
   style="fill:none;stroke:#000000;stroke-width:71;stroke-linecap:round;stroke-linejoin:round" />
        <path
   d="m 15130,16056 c 0,169 -44,334 -129,481 -84,146 -205,267 -351,351 -147,85 -312,129 -481,129 -169,0 -334,-44 -480,-129 -147,-84 -268,-205 -352,-351 -85,-147 -129,-312 -129,-481 0,-169 44,-334 129,-480 84,-147 205,-268 352,-352 146,-85 311,-129 480,-129 169,0 334,44 481,129 146,84 267,205 351,352 85,146 129,311 129,480 z"
   id="path115"
   inkscape:connector-curvature="0"
   style="fill:#ffffff;stroke:none" />
        <path
   d="m 15128,16052 -1,-49 -4,-48 -6,-49 -9,-48 -11,-47 -13,-47 -16,-46 -18,-45 -20,-45 -23,-43 -25,-42 -26,-41 -29,-39 -31,-38 -33,-36 -34,-34 -36,-33 -38,-31 -39,-29 -41,-26 -42,-25 -43,-23 -45,-20 -45,-18 -46,-16 -47,-13 -47,-11 -48,-9 -49,-6 -48,-4 -49,-1 v 0 l -49,1 -48,4 -49,6 -48,9 -47,11 -47,13 -46,16 -45,18 -45,20 -43,23 -42,25 -41,26 -39,29 -38,31 -36,33 -34,34 -33,36 -31,38 -29,39 -26,41 -25,42 -23,43 -20,45 -18,45 -16,46 -13,47 -11,47 -9,48 -6,49 -4,48 -1,49 v 0 l 1,49 4,48 6,49 9,48 11,47 13,47 16,46 18,45 20,45 23,43 25,42 26,41 29,39 31,38 33,36 34,34 36,33 38,31 39,29 41,26 42,25 43,23 45,20 45,18 46,16 47,13 47,11 48,9 49,6 48,4 49,1 v 0 l 49,-1 48,-4 49,-6 48,-9 47,-11 47,-13 46,-16 45,-18 45,-20 43,-23 42,-25 41,-26 39,-29 38,-31 36,-33 34,-34 33,-36 31,-38 29,-39 26,-41 25,-42 23,-43 20,-45 18,-45 16,-46 13,-47 11,-47 9,-48 6,-49 4,-48 z"
   id="path117"
   inkscape:connector-curvature="0"
   style="fill:none;stroke:#000000;stroke-width:71;stroke-linecap:round;stroke-linejoin:round" />
        <path
   d="m 10433,12448 c 0,252 -66,499 -192,717 -125,217 -306,398 -523,524 -218,126 -465,192 -716,192 -251,0 -498,-66 -715,-192 -218,-126 -399,-307 -524,-524 -126,-218 -192,-465 -192,-717 0,-252 66,-499 192,-716 125,-218 306,-399 524,-525 217,-126 464,-192 715,-192 251,0 498,66 716,192 217,126 398,307 523,524 126,218 192,465 192,717 z"
   id="path119"
   inkscape:connector-curvature="0"
   style="fill:#ffffff;stroke:none" />
        <path
   d="m 10429,12444 -2,-73 -5,-72 -9,-72 -13,-72 -17,-70 -20,-70 -23,-69 -27,-68 -30,-66 -34,-64 -36,-63 -40,-60 -43,-59 -46,-56 -48,-54 -51,-51 -54,-49 -56,-46 -59,-43 -60,-40 -63,-37 -64,-33 -65,-31 -68,-27 -68,-23 -70,-20 -70,-17 -72,-12 -71,-10 -73,-5 -72,-2 v 0 l -72,2 -73,5 -71,10 -72,12 -70,17 -70,20 -68,23 -68,27 -65,31 -64,33 -63,37 -60,40 -59,43 -56,46 -54,49 -51,51 -48,54 -46,56 -43,59 -40,60 -36,63 -34,64 -30,66 -27,68 -23,69 -20,70 -17,70 -13,72 -9,72 -5,72 -2,73 v 0 l 2,73 5,72 9,72 13,72 17,70 20,70 23,69 27,68 30,66 34,64 36,63 40,60 43,59 46,56 48,54 51,51 54,49 56,46 59,43 60,40 63,37 64,33 65,31 68,27 68,23 70,20 70,17 72,12 71,10 73,5 72,2 v 0 l 72,-2 73,-5 71,-10 72,-12 70,-17 70,-20 68,-23 68,-27 65,-31 64,-33 63,-37 60,-40 59,-43 56,-46 54,-49 51,-51 48,-54 46,-56 43,-59 40,-60 36,-63 34,-64 30,-66 27,-68 23,-69 20,-70 17,-70 13,-72 9,-72 5,-72 z"
   id="path121"
   inkscape:connector-curvature="0"
   style="fill:none;stroke:#000000;stroke-width:71;stroke-linecap:round;stroke-linejoin:round" />
        <path
   d="m 13252,13074 c 0,252 -66,499 -192,717 -125,217 -306,398 -523,524 -218,126 -465,192 -716,192 -251,0 -498,-66 -715,-192 -218,-126 -399,-307 -524,-524 -126,-218 -192,-465 -192,-717 0,-252 66,-499 192,-716 125,-218 306,-399 524,-525 217,-126 464,-192 715,-192 251,0 498,66 715,192 218,126 399,307 524,524 126,218 192,465 192,717 z"
   id="path123"
   inkscape:connector-curvature="0"
   style="fill:#ffffff;stroke:none" />
        <path
   d="m 13248,13070 -2,-73 -5,-72 -9,-72 -13,-72 -17,-70 -20,-70 -23,-69 -27,-68 -30,-66 -34,-64 -36,-63 -40,-60 -43,-59 -46,-56 -48,-54 -51,-51 -54,-49 -56,-46 -59,-43 -60,-40 -63,-37 -64,-33 -65,-31 -68,-27 -68,-23 -70,-20 -70,-17 -72,-12 -71,-10 -73,-5 -72,-2 v 0 l -72,2 -73,5 -71,10 -72,12 -70,17 -70,20 -68,23 -68,27 -65,31 -64,33 -63,37 -60,40 -59,43 -56,46 -54,49 -51,51 -48,54 -46,56 -43,59 -40,60 -36,63 -34,64 -30,66 -27,68 -23,69 -20,70 -17,70 -13,72 -9,72 -5,72 -2,73 v 0 l 2,73 5,72 9,72 13,72 17,70 20,70 23,69 27,68 30,66 34,64 36,63 40,60 43,59 46,56 48,54 51,51 54,49 56,46 59,43 60,40 63,37 64,33 65,31 68,27 68,23 70,20 70,17 72,12 71,10 73,5 72,2 v 0 l 72,-2 73,-5 71,-10 72,-12 70,-17 70,-20 68,-23 68,-27 65,-31 64,-33 63,-37 60,-40 59,-43 56,-46 54,-49 51,-51 48,-54 46,-56 43,-59 40,-60 36,-63 34,-64 30,-66 27,-68 23,-69 20,-70 17,-70 13,-72 9,-72 5,-72 z"
   id="path125"
   inkscape:connector-curvature="0"
   style="fill:none;stroke:#000000;stroke-width:71;stroke-linecap:round;stroke-linejoin:round" />
        <path
   d="m 11999,12448 c 0,252 -66,499 -192,717 -125,217 -306,398 -523,524 -218,126 -465,192 -716,192 -251,0 -498,-66 -715,-192 -218,-126 -399,-307 -524,-524 -126,-218 -192,-465 -192,-717 0,-252 66,-499 192,-716 125,-218 306,-399 524,-525 217,-126 464,-192 715,-192 251,0 498,66 716,192 217,126 398,307 523,524 126,218 192,465 192,717 z"
   id="path127"
   inkscape:connector-curvature="0"
   style="fill:#ffffff;stroke:none" />
        <path
   d="m 11995,12444 -2,-73 -5,-72 -9,-72 -13,-72 -17,-70 -20,-70 -23,-69 -27,-68 -30,-66 -34,-64 -36,-63 -40,-60 -43,-59 -46,-56 -48,-54 -51,-51 -54,-49 -56,-46 -59,-43 -60,-40 -63,-37 -64,-33 -65,-31 -68,-27 -68,-23 -70,-20 -70,-17 -72,-12 -71,-10 -73,-5 -72,-2 v 0 l -72,2 -73,5 -71,10 -72,12 -70,17 -70,20 -68,23 -68,27 -65,31 -64,33 -63,37 -60,40 -59,43 -56,46 -54,49 -51,51 -48,54 -46,56 -43,59 -40,60 -36,63 -34,64 -30,66 -27,68 -23,69 -20,70 -17,70 -13,72 -9,72 -5,72 -2,73 v 0 l 2,73 5,72 9,72 13,72 17,70 20,70 23,69 27,68 30,66 34,64 36,63 40,60 43,59 46,56 48,54 51,51 54,49 56,46 59,43 60,40 63,37 64,33 65,31 68,27 68,23 70,20 70,17 72,12 71,10 73,5 72,2 v 0 l 72,-2 73,-5 71,-10 72,-12 70,-17 70,-20 68,-23 68,-27 65,-31 64,-33 63,-37 60,-40 59,-43 56,-46 54,-49 51,-51 48,-54 46,-56 43,-59 40,-60 36,-63 34,-64 30,-66 27,-68 23,-69 20,-70 17,-70 13,-72 9,-72 5,-72 z"
   id="path129"
   inkscape:connector-curvature="0"
   style="fill:none;stroke:#000000;stroke-width:71;stroke-linecap:round;stroke-linejoin:round" />
        <path
   d="m 11059,15900 c 0,251 -66,499 -192,717 -125,218 -306,400 -523,526 -218,126 -465,192 -716,192 -251,0 -498,-66 -715,-192 -218,-126 -399,-308 -524,-526 -126,-218 -192,-466 -192,-717 0,-252 66,-500 192,-718 125,-218 306,-400 524,-526 217,-126 464,-192 715,-192 251,0 498,66 716,192 217,126 398,308 523,526 126,218 192,466 192,717 z"
   id="path131"
   inkscape:connector-curvature="0"
   style="fill:#ffffff;stroke:none" />
        <path
   d="m 11056,15898 -2,-73 -5,-72 -9,-72 -13,-72 -17,-70 -20,-70 -23,-69 -27,-68 -30,-66 -34,-64 -36,-63 -40,-60 -43,-59 -46,-56 -48,-54 -51,-51 -54,-49 -56,-46 -59,-43 -60,-40 -63,-37 -64,-33 -65,-31 -68,-27 -68,-23 -70,-20 -70,-17 -72,-12 -71,-10 -73,-5 -72,-2 v 0 l -72,2 -73,5 -71,10 -72,12 -70,17 -70,20 -68,23 -68,27 -65,31 -64,33 -63,37 -60,40 -59,43 -56,46 -54,49 -51,51 -48,54 -46,56 -43,59 -40,60 -36,63 -34,64 -30,66 -27,68 -23,69 -20,70 -17,70 -13,72 -9,72 -5,72 -2,73 v 0 l 2,73 5,72 9,72 13,72 17,70 20,70 23,69 27,68 30,66 34,64 36,63 40,60 43,59 46,56 48,54 51,51 54,49 56,46 59,43 60,40 63,37 64,33 65,31 68,27 68,23 70,20 70,17 72,12 71,10 73,5 72,2 v 0 l 72,-2 73,-5 71,-10 72,-12 70,-17 70,-20 68,-23 68,-27 65,-31 64,-33 63,-37 60,-40 59,-43 56,-46 54,-49 51,-51 48,-54 46,-56 43,-59 40,-60 36,-63 34,-64 30,-66 27,-68 23,-69 20,-70 17,-70 13,-72 9,-72 5,-72 z"
   id="path133"
   inkscape:connector-curvature="0"
   style="fill:none;stroke:#000000;stroke-width:71;stroke-linecap:round;stroke-linejoin:round" />
        <path
   d="m 9296,11531 1266,745 1526,-194 975,1447 256,115 683,454 177,370 450,667 -75,216 -1059,1958 -741,234 -2426,-216 -176,-313 -1602,-353 -295,137 -605,-3234 z"
   id="path135"
   inkscape:connector-curvature="0"
   style="fill:#ffffff;stroke:none" />
       </g>
      </g>
     </g>
    </g>
   </g>
  </g>
 </g>
</svg>