<?xml version="1.0" encoding="UTF-8" standalone="no"?>
<svg
   xmlns:ooo="http://xml.openoffice.org/svg/export"
   xmlns:dc="http://purl.org/dc/elements/1.1/"
   xmlns:cc="http://creativecommons.org/ns#"
   xmlns:rdf="http://www.w3.org/1999/02/22-rdf-syntax-ns#"
   xmlns:svg="http://www.w3.org/2000/svg"
   xmlns="http://www.w3.org/2000/svg"
   xmlns:sodipodi="http://sodipodi.sourceforge.net/DTD/sodipodi-0.dtd"
   xmlns:inkscape="http://www.inkscape.org/namespaces/inkscape"
   version="1.2"
   width="101.18mm"
   height="66.870003mm"
   viewBox="0 0 10118 6687.0003"
   preserveAspectRatio="xMidYMid"
   xml:space="preserve"
   id="svg123"
   sodipodi:docname="croatiaf.svg"
   style="fill-rule:evenodd;stroke-width:28.22200012;stroke-linejoin:round"
   inkscape:version="0.92.5 (2060ec1f9f, 2020-04-08)"><metadata
   id="metadata127"><rdf:RDF><cc:Work
       rdf:about=""><dc:format>image/svg+xml</dc:format><dc:type
         rdf:resource="http://purl.org/dc/dcmitype/StillImage" /></cc:Work></rdf:RDF></metadata><sodipodi:namedview
   pagecolor="#ffffff"
   bordercolor="#666666"
   borderopacity="1"
   objecttolerance="10"
   gridtolerance="10"
   guidetolerance="10"
   inkscape:pageopacity="0"
   inkscape:pageshadow="2"
   inkscape:window-width="664"
   inkscape:window-height="487"
   id="namedview125"
   showgrid="false"
   inkscape:zoom="0.2102413"
   inkscape:cx="191.2063"
   inkscape:cy="126.3496"
   inkscape:window-x="0"
   inkscape:window-y="0"
   inkscape:window-maximized="0"
   inkscape:current-layer="svg123" />
 <defs
   class="ClipPathGroup"
   id="defs8">
  <clipPath
   id="presentation_clip_path"
   clipPathUnits="userSpaceOnUse">
   <rect
   x="0"
   y="0"
   width="21000"
   height="29700"
   id="rect2" />
  </clipPath>
  <clipPath
   id="presentation_clip_path_shrink"
   clipPathUnits="userSpaceOnUse">
   <rect
   x="21"
   y="29"
   width="20958"
   height="29641"
   id="rect5" />
  </clipPath>
 </defs>
 <defs
   class="TextShapeIndex"
   id="defs12">
  <g
   ooo:slide="id1"
   ooo:id-list="id3"
   id="g10" />
 </defs>
 <defs
   class="EmbeddedBulletChars"
   id="defs44">
  <g
   id="bullet-char-template-57356"
   transform="matrix(4.8828125e-4,0,0,-4.8828125e-4,0,0)">
   <path
   d="M 580,1141 1163,571 580,0 -4,571 Z"
   id="path14"
   inkscape:connector-curvature="0" />
  </g>
  <g
   id="bullet-char-template-57354"
   transform="matrix(4.8828125e-4,0,0,-4.8828125e-4,0,0)">
   <path
   d="M 8,1128 H 1137 V 0 H 8 Z"
   id="path17"
   inkscape:connector-curvature="0" />
  </g>
  <g
   id="bullet-char-template-10146"
   transform="matrix(4.8828125e-4,0,0,-4.8828125e-4,0,0)">
   <path
   d="M 174,0 602,739 174,1481 1456,739 Z M 1358,739 309,1346 659,739 Z"
   id="path20"
   inkscape:connector-curvature="0" />
  </g>
  <g
   id="bullet-char-template-10132"
   transform="matrix(4.8828125e-4,0,0,-4.8828125e-4,0,0)">
   <path
   d="M 2015,739 1276,0 H 717 l 543,543 H 174 v 393 h 1086 l -543,545 h 557 z"
   id="path23"
   inkscape:connector-curvature="0" />
  </g>
  <g
   id="bullet-char-template-10007"
   transform="matrix(4.8828125e-4,0,0,-4.8828125e-4,0,0)">
   <path
   d="m 0,-2 c -7,16 -16,29 -25,39 l 381,530 c -94,256 -141,385 -141,387 0,25 13,38 40,38 9,0 21,-2 34,-5 21,4 42,12 65,25 l 27,-13 111,-251 280,301 64,-25 24,25 c 21,-10 41,-24 62,-43 C 886,937 835,863 770,784 769,783 710,716 594,584 L 774,223 c 0,-27 -21,-55 -63,-84 l 16,-20 C 717,90 699,76 672,76 641,76 570,178 457,381 L 164,-76 c -22,-34 -53,-51 -92,-51 -42,0 -63,17 -64,51 -7,9 -10,24 -10,44 0,9 1,19 2,30 z"
   id="path26"
   inkscape:connector-curvature="0" />
  </g>
  <g
   id="bullet-char-template-10004"
   transform="matrix(4.8828125e-4,0,0,-4.8828125e-4,0,0)">
   <path
   d="M 285,-33 C 182,-33 111,30 74,156 52,228 41,333 41,471 c 0,78 14,145 41,201 34,71 87,106 158,106 53,0 88,-31 106,-94 l 23,-176 c 8,-64 28,-97 59,-98 l 735,706 c 11,11 33,17 66,17 42,0 63,-15 63,-46 V 965 c 0,-36 -10,-64 -30,-84 L 442,47 C 390,-6 338,-33 285,-33 Z"
   id="path29"
   inkscape:connector-curvature="0" />
  </g>
  <g
   id="bullet-char-template-9679"
   transform="matrix(4.8828125e-4,0,0,-4.8828125e-4,0,0)">
   <path
   d="M 813,0 C 632,0 489,54 383,161 276,268 223,411 223,592 c 0,181 53,324 160,431 106,107 249,161 430,161 179,0 323,-54 432,-161 108,-107 162,-251 162,-431 0,-180 -54,-324 -162,-431 C 1136,54 992,0 813,0 Z"
   id="path32"
   inkscape:connector-curvature="0" />
  </g>
  <g
   id="bullet-char-template-8226"
   transform="matrix(4.8828125e-4,0,0,-4.8828125e-4,0,0)">
   <path
   d="m 346,457 c -73,0 -137,26 -191,78 -54,51 -81,114 -81,188 0,73 27,136 81,188 54,52 118,78 191,78 73,0 134,-26 185,-79 51,-51 77,-114 77,-187 0,-75 -25,-137 -76,-188 -50,-52 -112,-78 -186,-78 z"
   id="path35"
   inkscape:connector-curvature="0" />
  </g>
  <g
   id="bullet-char-template-8211"
   transform="matrix(4.8828125e-4,0,0,-4.8828125e-4,0,0)">
   <path
   d="M -4,459 H 1135 V 606 H -4 Z"
   id="path38"
   inkscape:connector-curvature="0" />
  </g>
  <g
   id="bullet-char-template-61548"
   transform="matrix(4.8828125e-4,0,0,-4.8828125e-4,0,0)">
   <path
   d="m 173,740 c 0,163 58,303 173,419 116,115 255,173 419,173 163,0 302,-58 418,-173 116,-116 174,-256 174,-419 0,-163 -58,-303 -174,-418 C 1067,206 928,148 765,148 601,148 462,206 346,322 231,437 173,577 173,740 Z"
   id="path41"
   inkscape:connector-curvature="0" />
  </g>
 </defs>
 <g
   id="g49"
   transform="translate(-5441,-11506)">
  <g
   id="id2"
   class="Master_Slide">
   <g
   id="bg-id2"
   class="Background" />
   <g
   id="bo-id2"
   class="BackgroundObjects" />
  </g>
 </g>
 <g
   class="SlideGroup"
   id="g121"
   transform="translate(-5441,-11506)">
  <g
   id="g119">
   <g
   id="container-id1">
    <g
   id="id1"
   class="Slide"
   clip-path="url(#presentation_clip_path)">
     <g
   class="Page"
   id="g115">
      <g
   class="Graphic"
   id="g113">
       <g
   id="id3">
        <rect
   class="BoundingBox"
   x="5441"
   y="11506"
   width="10118"
   height="6687"
   id="rect51"
   style="fill:none;stroke:none" />
        <defs
   id="defs56">
         <clipPath
   id="clip_path_1"
   clipPathUnits="userSpaceOnUse">
          <path
   d="m 5441,11506 h 10117 v 6686 H 5441 Z"
   id="path53"
   inkscape:connector-curvature="0" />
         </clipPath>
        </defs>
        <g
   clip-path="url(#clip_path_1)"
   id="g110">
         <path
   d="m 5441,11506 h 10121 v 2310 H 5441 Z"
   id="path58"
   inkscape:connector-curvature="0"
   style="fill:#ff0000;stroke:none" />
         <path
   d="m 5441,15864 h 10121 v 2332 H 5441 Z"
   id="path60"
   inkscape:connector-curvature="0"
   style="fill:#0000ff;stroke:none" />
         <path
   d="m 5441,13685 h 10121 v 2315 H 5441 Z"
   id="path62"
   inkscape:connector-curvature="0"
   style="fill:#ffffff;stroke:none" />
         <path
   d="m 11783,15211 v -1491 l -2571,5 v 1526 l 115,384 309,326 427,199 419,79 565,-132 384,-221 242,-313 z"
   id="path64"
   inkscape:connector-curvature="0"
   style="fill:#ffffff;stroke:none" />
         <path
   d="m 11783,15211 v -1491 l -2571,5 v 1526 l 115,384 309,326 427,199 419,79 565,-132 384,-221 242,-313 z"
   id="path66"
   inkscape:connector-curvature="0"
   style="fill:none;stroke:#ff0000;stroke-width:35;stroke-linecap:round;stroke-linejoin:round" />
         <path
   d="m 10244,13725 v 1027 H 9217 v 512 h 516 v 512 238 l -146,-101 -137,-133 794,-4 h 512 v 406 l -269,66 -243,-49 v -935 -512 h 512 v 512 h -512 -511 v -512 -1027 h -516 v 511 h 516 1534 512 v -511 h -512 v 511 1028 h -511 v 512 h 511 v 220 l 168,-106 88,-110 -256,-4 v -512 h 512 v -512 h -512 -511 v -1027 z"
   id="path68"
   inkscape:connector-curvature="0"
   style="fill:#ff0000;stroke:none" />
         <path
   d="m 10460,13451 h 194 l 239,-9 299,36 327,75 154,70 119,75 415,-816 -287,-331 -353,58 -269,-238 -383,158 -424,-273 -428,278 -370,-159 -269,247 -353,-66 -291,331 419,820 247,-145 339,-67 314,-44 z"
   id="path70"
   inkscape:connector-curvature="0"
   style="fill:#3333cc;stroke:none" />
         <path
   d="m 10460,13451 h 194 l 239,-9 299,36 327,75 154,70 119,75 415,-816 -287,-331 -353,58 -269,-238 -383,158 -424,-273 -428,278 -370,-159 -269,247 -353,-66 -291,331 419,820 247,-145 339,-67 314,-44 z"
   id="path72"
   inkscape:connector-curvature="0"
   style="fill:none;stroke:#ffffff;stroke-width:35;stroke-linecap:round;stroke-linejoin:round" />
         <path
   d="m 10068,12538 -371,-163 -269,247 221,887 278,-45 251,-22 z"
   id="path74"
   inkscape:connector-curvature="0"
   style="fill:#000080;stroke:none" />
         <path
   d="m 10068,12538 -371,-163 -269,247 221,887 278,-45 251,-22 z"
   id="path76"
   inkscape:connector-curvature="0"
   style="fill:none;stroke:#ffffff;stroke-width:35;stroke-linecap:round;stroke-linejoin:round" />
         <path
   d="m 10923,12529 375,-163 265,247 -216,887 -278,-44 -256,-22 z"
   id="path78"
   inkscape:connector-curvature="0"
   style="fill:#000080;stroke:none" />
         <path
   d="m 10923,12529 375,-163 265,247 -216,887 -278,-44 -256,-22 z"
   id="path80"
   inkscape:connector-curvature="0"
   style="fill:none;stroke:#ffffff;stroke-width:35;stroke-linecap:round;stroke-linejoin:round" />
         <path
   d="m 8965,12935 106,57 -31,115 115,-62 66,80 22,-110 119,-49 -97,-66 26,-110 -101,53 -93,-75 -8,119 z"
   id="path82"
   inkscape:connector-curvature="0"
   style="fill:#ffff00;stroke:none" />
         <path
   d="m 9102,13385 53,53 75,26 79,18 88,-18 62,-52 35,-71 14,-84 -22,-92 -45,136 -44,66 -70,36 -93,9 z"
   id="path84"
   inkscape:connector-curvature="0"
   style="fill:#ffffff;stroke:none" />
         <path
   d="m 10068,12569 -216,-4 -221,39 -176,75 57,230 176,-71 221,-44 185,9 z"
   id="path86"
   inkscape:connector-curvature="0"
   style="fill:#ff0000;stroke:none" />
         <path
   d="m 10116,13006 -167,-18 -221,40 -176,75 61,229 186,-62 207,-30 132,22 z"
   id="path88"
   inkscape:connector-curvature="0"
   style="fill:#ff0000;stroke:none" />
         <path
   d="m 11889,12648 -66,93 -110,-57 35,114 -101,58 110,53 18,114 83,-79 106,48 -26,-119 92,-53 -114,-52 z"
   id="path90"
   inkscape:connector-curvature="0"
   style="fill:#ffff00;stroke:none" />
         <path
   d="m 11479,13001 124,22 132,31 88,27 88,48 119,84 -194,393 -114,-75 -199,-75 -141,-44 z"
   id="path92"
   inkscape:connector-curvature="0"
   style="fill:#ffffff;stroke:none" />
         <path
   d="m 11462,13076 119,22 145,40 128,62 141,79 -132,269 -132,-75 -195,-70 -141,-44 z"
   id="path94"
   inkscape:connector-curvature="0"
   style="fill:#ff0000;stroke:none" />
         <path
   d="m 11854,13420 -13,-48 -9,-18 4,-9 h 27 l 48,9 5,-9 -5,-8 -53,-5 -30,-13 -84,-22 -75,-40 -49,-17 -39,-40 -62,-18 -22,13 -5,14 5,13 31,13 8,13 -30,9 -14,18 14,9 8,-18 22,-4 45,4 4,9 h -22 l -40,13 9,9 49,-9 66,9 48,13 36,22 22,44 22,18 8,-5 -17,-22 v -13 l 13,-4 40,17 9,9 13,44 z"
   id="path96"
   inkscape:connector-curvature="0"
   style="fill:#000000;stroke:none" />
         <path
   d="m 11312,13240 -14,-80 18,-31 31,-75 22,66 4,-8 -22,-97 -17,-31 -80,-31 -141,-9 -88,-44 9,-22 -22,-13 -31,-9 -13,4 -18,44 v 44 l 18,22 17,-8 18,-22 31,61 -14,84 9,141 9,-4 -4,-128 31,-53 -5,71 13,128 h 9 l -4,-98 31,-66 39,14 h 49 l 35,-5 9,22 4,124 14,-5 v -97 l 26,-62 9,53 -13,40 22,75 z"
   id="path98"
   inkscape:connector-curvature="0"
   style="fill:#ffffff;stroke:none" />
         <path
   d="m 11122,12869 h 13 l 13,-13 h -17 l -14,-5 -26,-26 -18,-9 -30,-4 -27,8 -18,14 -17,22 -9,22 22,4 4,-17 14,-14 17,-13 18,-9 22,5 18,4 17,22 z"
   id="path100"
   inkscape:connector-curvature="0"
   style="fill:#ff0000;stroke:none" />
         <path
   d="m 11025,12865 -9,22 18,8 9,-13 13,-9 13,9 22,22 35,9 36,-13 4,-18 -31,9 -26,-9 -27,-17 -22,-22 -17,4 z"
   id="path102"
   inkscape:connector-curvature="0"
   style="fill:#ff0000;stroke:none" />
         <path
   d="m 10412,12953 v 97 l 97,44 97,-44 v -97 l -31,-49 -35,49 -31,-49 -31,49 -35,-49 z"
   id="path104"
   inkscape:connector-curvature="0"
   style="fill:#ffd041;stroke:none" />
         <path
   d="m 10240,12715 v 97 l 97,44 97,-44 v -97 l -31,-49 -35,49 -31,-49 -31,49 -35,-49 z"
   id="path106"
   inkscape:connector-curvature="0"
   style="fill:#ffd041;stroke:none" />
         <path
   d="m 10584,12715 v 97 l 97,44 97,-44 v -97 l -31,-49 -35,49 -31,-49 -31,49 -35,-49 z"
   id="path108"
   inkscape:connector-curvature="0"
   style="fill:#ffd041;stroke:none" />
        </g>
       </g>
      </g>
     </g>
    </g>
   </g>
  </g>
 </g>
</svg>