<?xml version="1.0" encoding="UTF-8" standalone="no"?>
<svg
   xmlns:ooo="http://xml.openoffice.org/svg/export"
   xmlns:dc="http://purl.org/dc/elements/1.1/"
   xmlns:cc="http://creativecommons.org/ns#"
   xmlns:rdf="http://www.w3.org/1999/02/22-rdf-syntax-ns#"
   xmlns:svg="http://www.w3.org/2000/svg"
   xmlns="http://www.w3.org/2000/svg"
   xmlns:sodipodi="http://sodipodi.sourceforge.net/DTD/sodipodi-0.dtd"
   xmlns:inkscape="http://www.inkscape.org/namespaces/inkscape"
   version="1.2"
   width="151.39mm"
   height="54.02mm"
   viewBox="0 0 15139 5402"
   preserveAspectRatio="xMidYMid"
   xml:space="preserve"
   id="svg68"
   sodipodi:docname="cuba.svg"
   style="fill-rule:evenodd;stroke-width:28.22200012;stroke-linejoin:round"
   inkscape:version="0.92.5 (2060ec1f9f, 2020-04-08)"><metadata
   id="metadata72"><rdf:RDF><cc:Work
       rdf:about=""><dc:format>image/svg+xml</dc:format><dc:type
         rdf:resource="http://purl.org/dc/dcmitype/StillImage" /></cc:Work></rdf:RDF></metadata><sodipodi:namedview
   pagecolor="#ffffff"
   bordercolor="#666666"
   borderopacity="1"
   objecttolerance="10"
   gridtolerance="10"
   guidetolerance="10"
   inkscape:pageopacity="0"
   inkscape:pageshadow="2"
   inkscape:window-width="664"
   inkscape:window-height="487"
   id="namedview70"
   showgrid="false"
   inkscape:zoom="0.2102413"
   inkscape:cx="286.11024"
   inkscape:cy="102.08504"
   inkscape:window-x="0"
   inkscape:window-y="0"
   inkscape:window-maximized="0"
   inkscape:current-layer="svg68" />
 <defs
   class="ClipPathGroup"
   id="defs8">
  <clipPath
   id="presentation_clip_path"
   clipPathUnits="userSpaceOnUse">
   <rect
   x="0"
   y="0"
   width="21000"
   height="29700"
   id="rect2" />
  </clipPath>
  <clipPath
   id="presentation_clip_path_shrink"
   clipPathUnits="userSpaceOnUse">
   <rect
   x="21"
   y="29"
   width="20958"
   height="29641"
   id="rect5" />
  </clipPath>
 </defs>
 <defs
   class="TextShapeIndex"
   id="defs12">
  <g
   ooo:slide="id1"
   ooo:id-list="id3"
   id="g10" />
 </defs>
 <defs
   class="EmbeddedBulletChars"
   id="defs44">
  <g
   id="bullet-char-template-57356"
   transform="matrix(4.8828125e-4,0,0,-4.8828125e-4,0,0)">
   <path
   d="M 580,1141 1163,571 580,0 -4,571 Z"
   id="path14"
   inkscape:connector-curvature="0" />
  </g>
  <g
   id="bullet-char-template-57354"
   transform="matrix(4.8828125e-4,0,0,-4.8828125e-4,0,0)">
   <path
   d="M 8,1128 H 1137 V 0 H 8 Z"
   id="path17"
   inkscape:connector-curvature="0" />
  </g>
  <g
   id="bullet-char-template-10146"
   transform="matrix(4.8828125e-4,0,0,-4.8828125e-4,0,0)">
   <path
   d="M 174,0 602,739 174,1481 1456,739 Z M 1358,739 309,1346 659,739 Z"
   id="path20"
   inkscape:connector-curvature="0" />
  </g>
  <g
   id="bullet-char-template-10132"
   transform="matrix(4.8828125e-4,0,0,-4.8828125e-4,0,0)">
   <path
   d="M 2015,739 1276,0 H 717 l 543,543 H 174 v 393 h 1086 l -543,545 h 557 z"
   id="path23"
   inkscape:connector-curvature="0" />
  </g>
  <g
   id="bullet-char-template-10007"
   transform="matrix(4.8828125e-4,0,0,-4.8828125e-4,0,0)">
   <path
   d="m 0,-2 c -7,16 -16,29 -25,39 l 381,530 c -94,256 -141,385 -141,387 0,25 13,38 40,38 9,0 21,-2 34,-5 21,4 42,12 65,25 l 27,-13 111,-251 280,301 64,-25 24,25 c 21,-10 41,-24 62,-43 C 886,937 835,863 770,784 769,783 710,716 594,584 L 774,223 c 0,-27 -21,-55 -63,-84 l 16,-20 C 717,90 699,76 672,76 641,76 570,178 457,381 L 164,-76 c -22,-34 -53,-51 -92,-51 -42,0 -63,17 -64,51 -7,9 -10,24 -10,44 0,9 1,19 2,30 z"
   id="path26"
   inkscape:connector-curvature="0" />
  </g>
  <g
   id="bullet-char-template-10004"
   transform="matrix(4.8828125e-4,0,0,-4.8828125e-4,0,0)">
   <path
   d="M 285,-33 C 182,-33 111,30 74,156 52,228 41,333 41,471 c 0,78 14,145 41,201 34,71 87,106 158,106 53,0 88,-31 106,-94 l 23,-176 c 8,-64 28,-97 59,-98 l 735,706 c 11,11 33,17 66,17 42,0 63,-15 63,-46 V 965 c 0,-36 -10,-64 -30,-84 L 442,47 C 390,-6 338,-33 285,-33 Z"
   id="path29"
   inkscape:connector-curvature="0" />
  </g>
  <g
   id="bullet-char-template-9679"
   transform="matrix(4.8828125e-4,0,0,-4.8828125e-4,0,0)">
   <path
   d="M 813,0 C 632,0 489,54 383,161 276,268 223,411 223,592 c 0,181 53,324 160,431 106,107 249,161 430,161 179,0 323,-54 432,-161 108,-107 162,-251 162,-431 0,-180 -54,-324 -162,-431 C 1136,54 992,0 813,0 Z"
   id="path32"
   inkscape:connector-curvature="0" />
  </g>
  <g
   id="bullet-char-template-8226"
   transform="matrix(4.8828125e-4,0,0,-4.8828125e-4,0,0)">
   <path
   d="m 346,457 c -73,0 -137,26 -191,78 -54,51 -81,114 -81,188 0,73 27,136 81,188 54,52 118,78 191,78 73,0 134,-26 185,-79 51,-51 77,-114 77,-187 0,-75 -25,-137 -76,-188 -50,-52 -112,-78 -186,-78 z"
   id="path35"
   inkscape:connector-curvature="0" />
  </g>
  <g
   id="bullet-char-template-8211"
   transform="matrix(4.8828125e-4,0,0,-4.8828125e-4,0,0)">
   <path
   d="M -4,459 H 1135 V 606 H -4 Z"
   id="path38"
   inkscape:connector-curvature="0" />
  </g>
  <g
   id="bullet-char-template-61548"
   transform="matrix(4.8828125e-4,0,0,-4.8828125e-4,0,0)">
   <path
   d="m 173,740 c 0,163 58,303 173,419 116,115 255,173 419,173 163,0 302,-58 418,-173 116,-116 174,-256 174,-419 0,-163 -58,-303 -174,-418 C 1067,206 928,148 765,148 601,148 462,206 346,322 231,437 173,577 173,740 Z"
   id="path41"
   inkscape:connector-curvature="0" />
  </g>
 </defs>
 <g
   id="g49"
   transform="translate(-2930,-12149)">
  <g
   id="id2"
   class="Master_Slide">
   <g
   id="bg-id2"
   class="Background" />
   <g
   id="bo-id2"
   class="BackgroundObjects" />
  </g>
 </g>
 <g
   class="SlideGroup"
   id="g66"
   transform="translate(-2930,-12149)">
  <g
   id="g64">
   <g
   id="container-id1">
    <g
   id="id1"
   class="Slide"
   clip-path="url(#presentation_clip_path)">
     <g
   class="Page"
   id="g60">
      <g
   class="Graphic"
   id="g58">
       <g
   id="id3">
        <rect
   class="BoundingBox"
   x="2930"
   y="12149"
   width="15139"
   height="5402"
   id="rect51"
   style="fill:none;stroke:none" />
        <path
   d="m 3168,13875 -203,-208 203,-366 124,-40 v -163 l 163,-124 494,-79 203,-168 h 203 l 123,-159 287,159 79,-159 84,-79 84,-44 h 79 84 80 83 84 l 80,-40 84,-40 79,-44 84,-40 h 84 l 1018,-39 164,39 84,84 h 83 80 l 84,-44 79,-40 84,-39 84,-40 79,40 -79,79 v 84 l 39,84 84,-84 79,-40 h 84 l 80,40 v 84 l -40,79 -84,80 -40,79 v 84 84 79 84 l 40,80 h 84 84 79 l 44,-80 v -84 l -44,-79 -39,-84 -84,-84 v -79 l -40,-80 40,-79 h 84 83 l 40,-84 84,40 v 84 79 h 79 l 84,40 h 79 84 l 84,39 h 79 84 80 83 84 l 80,40 79,44 h 79 l 84,-44 40,84 v 84 l 84,40 79,39 h 84 84 79 84 l 84,-39 79,39 84,84 79,40 84,40 84,44 -44,79 -79,-40 -84,-39 -40,-84 h -84 -79 v 84 79 l 40,84 79,79 84,45 h 84 l 79,35 h 84 l 79,40 h 84 84 79 84 l 79,44 h 84 84 l 79,39 h 84 l 80,-39 83,39 h 84 l 80,40 84,40 79,44 79,40 84,40 80,44 h 83 l 84,39 80,40 83,40 40,84 84,39 79,45 h 84 l -9,-62 -4,-49 -49,-22 -61,-35 -14,-44 -8,-44 -5,-67 13,-61 141,-9 75,62 45,61 123,22 -22,36 40,101 v 66 l -53,-26 -102,13 -70,58 v 79 l 39,84 84,40 h 84 79 84 80 84 83 80 l 84,35 83,44 80,79 39,84 v 80 l 45,84 39,83 84,40 79,40 h 84 l 80,-40 44,84 v 79 h 79 l 44,-79 h 75 84 80 83 84 l 80,40 83,39 80,40 84,44 83,40 80,40 h 84 l 83,44 80,35 h 84 79 84 84 l 39,80 40,83 v 84 80 84 l -79,39 -84,84 v 80 l -40,83 v 80 l 80,44 h 83 l 80,40 84,-40 83,-44 80,-40 h 84 79 84 84 79 84 84 l 79,40 h 79 80 l 84,44 83,40 80,35 84,44 79,80 44,84 80,79 83,84 80,40 84,44 h 83 80 84 79 v 79 84 l -40,79 v 84 80 l -79,39 h -84 -84 -79 l -84,-39 h -79 -84 -84 -79 -84 l -80,39 h -83 l -84,80 -80,84 h -79 l -79,39 h -84 l -84,-39 -79,-40 -84,-44 -40,-80 -84,-79 h -79 79 l 84,40 40,79 84,84 v 79 l -84,45 h -84 -79 -84 -80 -83 -84 -80 -83 -80 -84 l -84,-45 h -79 l -84,-39 h -79 -84 -84 -79 -84 -79 -84 -84 -79 -84 -80 -83 -80 -79 -84 -79 -84 l -84,39 h -79 -84 -80 -83 l -84,45 -80,39 h -83 l -84,40 h -80 l -84,40 h -79 -84 l -39,-80 v -84 l 39,-79 84,-44 79,-80 84,-39 80,-40 h 84 l 83,-79 80,-45 84,-79 v -84 l 83,-40 80,-83 v -80 l -80,-44 h -83 l -40,-79 v -84 l -84,-80 h -84 -79 -84 -79 -84 -84 -79 -84 -80 -83 -84 l -80,-44 -83,-75 -80,-44 -84,-40 -123,-40 -84,-39 -79,-44 -40,-80 -40,-84 -39,-79 -84,-84 -80,-84 v -79 -84 -75 -84 -84 l -44,-79 v -84 l -79,-80 -84,-83 -79,-40 h -84 l -84,-44 h -79 -84 l -80,-40 h -83 -84 l -80,40 h -83 -80 l -84,44 -84,-44 -79,-40 -84,-79 h -79 -84 -84 -79 -84 l -84,-45 -79,-39 h -84 l -79,-40 -84,-44 -80,-35 -79,-80 -84,-44 -79,-40 -84,-84 -84,-39 -79,-40 -84,-44 h -79 -84 -84 -79 -84 -80 -83 -84 l -80,-80 -44,-83 v -80 l -40,-84 -79,-40 -44,80 v 84 l -40,84 h -84 -79 -84 -79 l -84,-84 -84,-40 -79,-44 h -84 -79 -84 l -84,-40 -75,-40 -84,-83 h -79 -84 -84 l -79,-40 -84,-80 40,-79 h 83 84 80 123 l 84,-44 h 75 l 84,-40 h 84 l 79,-40 v -83 l -40,-80 h -84 -79 -79 -84 -80 -83 -80 -84 -83 -80 l -84,-44 h -79 -84 l -84,-40 h -79 l -84,-39 h -79 l -84,39 h -84 -79 l -84,84 -40,80 h -84 l -79,44 -44,79 -79,84 -45,79 -79,45 h -84 l -79,35 -44,84 -80,39 h -84 -83 -80 -79 -80 -83 -84 -80 -83 -80 l -84,40 h -83 -80 l -84,40 v 84 84 l -79,39 h -84 z"
   id="path53"
   inkscape:connector-curvature="0"
   style="fill:#008000;stroke:none" />
        <path
   d="m 3168,13875 -203,-208 203,-366 124,-40 v -163 l 163,-124 494,-79 203,-168 h 203 l 123,-159 287,159 79,-159 84,-79 84,-44 h 79 84 80 83 84 l 80,-40 84,-40 79,-44 84,-40 h 84 l 1018,-39 164,39 84,84 h 83 80 l 84,-44 79,-40 84,-39 84,-40 79,40 -79,79 v 84 l 39,84 84,-84 79,-40 h 84 l 80,40 v 84 l -40,79 -84,80 -40,79 v 84 84 79 84 l 40,80 h 84 84 79 l 44,-80 v -84 l -44,-79 -39,-84 -84,-84 v -79 l -40,-80 40,-79 h 84 83 l 40,-84 84,40 v 84 79 h 79 l 84,40 h 79 84 l 84,39 h 79 84 80 83 84 l 80,40 79,44 h 79 l 84,-44 40,84 v 84 l 84,40 79,39 h 84 84 79 84 l 84,-39 79,39 84,84 79,40 84,40 84,44 -44,79 -79,-40 -84,-39 -40,-84 h -84 -79 v 84 79 l 40,84 79,79 84,45 h 84 l 79,35 h 84 l 79,40 h 84 84 79 84 l 79,44 h 84 84 l 79,39 h 84 l 80,-39 83,39 h 84 l 80,40 84,40 79,44 79,40 84,40 80,44 h 83 l 84,39 80,40 83,40 40,84 84,39 79,45 h 84 l -9,-62 -4,-49 -49,-22 -61,-35 -14,-44 -8,-44 -5,-67 13,-61 141,-9 75,62 45,61 123,22 -22,36 40,101 v 66 l -53,-26 -102,13 -70,58 v 79 l 39,84 84,40 h 84 79 84 80 84 83 80 l 84,35 83,44 80,79 39,84 v 80 l 45,84 39,83 84,40 79,40 h 84 l 80,-40 44,84 v 79 h 79 l 44,-79 h 75 84 80 83 84 l 80,40 83,39 80,40 84,44 83,40 80,40 h 84 l 83,44 80,35 h 84 79 84 84 l 39,80 40,83 v 84 80 84 l -79,39 -84,84 v 80 l -40,83 v 80 l 80,44 h 83 l 80,40 84,-40 83,-44 80,-40 h 84 79 84 84 79 84 84 l 79,40 h 79 80 l 84,44 83,40 80,35 84,44 79,80 44,84 80,79 83,84 80,40 84,44 h 83 80 84 79 v 79 84 l -40,79 v 84 80 l -79,39 h -84 -84 -79 l -84,-39 h -79 -84 -84 -79 -84 l -80,39 h -83 l -84,80 -80,84 h -79 l -79,39 h -84 l -84,-39 -79,-40 -84,-44 -40,-80 -84,-79 h -79 79 l 84,40 40,79 84,84 v 79 l -84,45 h -84 -79 -84 -80 -83 -84 -80 -83 -80 -84 l -84,-45 h -79 l -84,-39 h -79 -84 -84 -79 -84 -79 -84 -84 -79 -84 -80 -83 -80 -79 -84 -79 -84 l -84,39 h -79 -84 -80 -83 l -84,45 -80,39 h -83 l -84,40 h -80 l -84,40 h -79 -84 l -39,-80 v -84 l 39,-79 84,-44 79,-80 84,-39 80,-40 h 84 l 83,-79 80,-45 84,-79 v -84 l 83,-40 80,-83 v -80 l -80,-44 h -83 l -40,-79 v -84 l -84,-80 h -84 -79 -84 -79 -84 -84 -79 -84 -80 -83 -84 l -80,-44 -83,-75 -80,-44 -84,-40 -123,-40 -84,-39 -79,-44 -40,-80 -40,-84 -39,-79 -84,-84 -80,-84 v -79 -84 -75 -84 -84 l -44,-79 v -84 l -79,-80 -84,-83 -79,-40 h -84 l -84,-44 h -79 -84 l -80,-40 h -83 -84 l -80,40 h -83 -80 l -84,44 -84,-44 -79,-40 -84,-79 h -79 -84 -84 -79 -84 l -84,-45 -79,-39 h -84 l -79,-40 -84,-44 -80,-35 -79,-80 -84,-44 -79,-40 -84,-84 -84,-39 -79,-40 -84,-44 h -79 -84 -84 -79 -84 -80 -83 -84 l -80,-80 -44,-83 v -80 l -40,-84 -79,-40 -44,80 v 84 l -40,84 h -84 -79 -84 -79 l -84,-84 -84,-40 -79,-44 h -84 -79 -84 l -84,-40 -75,-40 -84,-83 h -79 -84 -84 l -79,-40 -84,-80 40,-79 h 83 84 80 123 l 84,-44 h 75 l 84,-40 h 84 l 79,-40 v -83 l -40,-80 h -84 -79 -79 -84 -80 -83 -80 -84 -83 -80 l -84,-44 h -79 -84 l -84,-40 h -79 l -84,-39 h -79 l -84,39 h -84 -79 l -84,84 -40,80 h -84 l -79,44 -44,79 -79,84 -45,79 -79,45 h -84 l -79,35 -44,84 -80,39 h -84 -83 -80 -79 -80 -83 -84 -80 -83 -80 l -84,40 h -83 -80 l -84,40 v 84 84 l -79,39 h -84 z"
   id="path55"
   inkscape:connector-curvature="0"
   style="fill:none;stroke:#000000;stroke-width:35;stroke-linecap:round;stroke-linejoin:round" />
       </g>
      </g>
     </g>
    </g>
   </g>
  </g>
 </g>
</svg>