<?xml version="1.0" encoding="UTF-8" standalone="no"?>
<svg
   xmlns:ooo="http://xml.openoffice.org/svg/export"
   xmlns:dc="http://purl.org/dc/elements/1.1/"
   xmlns:cc="http://creativecommons.org/ns#"
   xmlns:rdf="http://www.w3.org/1999/02/22-rdf-syntax-ns#"
   xmlns:svg="http://www.w3.org/2000/svg"
   xmlns="http://www.w3.org/2000/svg"
   xmlns:sodipodi="http://sodipodi.sourceforge.net/DTD/sodipodi-0.dtd"
   xmlns:inkscape="http://www.inkscape.org/namespaces/inkscape"
   version="1.2"
   width="121.75mm"
   height="147.14999mm"
   viewBox="0 0 12175 14714.999"
   preserveAspectRatio="xMidYMid"
   xml:space="preserve"
   id="svg220"
   sodipodi:docname="denmark2.svg"
   style="fill-rule:evenodd;stroke-width:28.22200012;stroke-linejoin:round"
   inkscape:version="0.92.5 (2060ec1f9f, 2020-04-08)"><metadata
   id="metadata224"><rdf:RDF><cc:Work
       rdf:about=""><dc:format>image/svg+xml</dc:format><dc:type
         rdf:resource="http://purl.org/dc/dcmitype/StillImage" /></cc:Work></rdf:RDF></metadata><sodipodi:namedview
   pagecolor="#ffffff"
   bordercolor="#666666"
   borderopacity="1"
   objecttolerance="10"
   gridtolerance="10"
   guidetolerance="10"
   inkscape:pageopacity="0"
   inkscape:pageshadow="2"
   inkscape:window-width="664"
   inkscape:window-height="487"
   id="namedview222"
   showgrid="false"
   inkscape:zoom="0.2102413"
   inkscape:cx="230.09764"
   inkscape:cy="278.05984"
   inkscape:window-x="0"
   inkscape:window-y="0"
   inkscape:window-maximized="0"
   inkscape:current-layer="svg220" />
 <defs
   class="ClipPathGroup"
   id="defs8">
  <clipPath
   id="presentation_clip_path"
   clipPathUnits="userSpaceOnUse">
   <rect
   x="0"
   y="0"
   width="21000"
   height="29700"
   id="rect2" />
  </clipPath>
  <clipPath
   id="presentation_clip_path_shrink"
   clipPathUnits="userSpaceOnUse">
   <rect
   x="21"
   y="29"
   width="20958"
   height="29641"
   id="rect5" />
  </clipPath>
 </defs>
 <defs
   class="TextShapeIndex"
   id="defs12">
  <g
   ooo:slide="id1"
   ooo:id-list="id3"
   id="g10" />
 </defs>
 <defs
   class="EmbeddedBulletChars"
   id="defs44">
  <g
   id="bullet-char-template-57356"
   transform="matrix(4.8828125e-4,0,0,-4.8828125e-4,0,0)">
   <path
   d="M 580,1141 1163,571 580,0 -4,571 Z"
   id="path14"
   inkscape:connector-curvature="0" />
  </g>
  <g
   id="bullet-char-template-57354"
   transform="matrix(4.8828125e-4,0,0,-4.8828125e-4,0,0)">
   <path
   d="M 8,1128 H 1137 V 0 H 8 Z"
   id="path17"
   inkscape:connector-curvature="0" />
  </g>
  <g
   id="bullet-char-template-10146"
   transform="matrix(4.8828125e-4,0,0,-4.8828125e-4,0,0)">
   <path
   d="M 174,0 602,739 174,1481 1456,739 Z M 1358,739 309,1346 659,739 Z"
   id="path20"
   inkscape:connector-curvature="0" />
  </g>
  <g
   id="bullet-char-template-10132"
   transform="matrix(4.8828125e-4,0,0,-4.8828125e-4,0,0)">
   <path
   d="M 2015,739 1276,0 H 717 l 543,543 H 174 v 393 h 1086 l -543,545 h 557 z"
   id="path23"
   inkscape:connector-curvature="0" />
  </g>
  <g
   id="bullet-char-template-10007"
   transform="matrix(4.8828125e-4,0,0,-4.8828125e-4,0,0)">
   <path
   d="m 0,-2 c -7,16 -16,29 -25,39 l 381,530 c -94,256 -141,385 -141,387 0,25 13,38 40,38 9,0 21,-2 34,-5 21,4 42,12 65,25 l 27,-13 111,-251 280,301 64,-25 24,25 c 21,-10 41,-24 62,-43 C 886,937 835,863 770,784 769,783 710,716 594,584 L 774,223 c 0,-27 -21,-55 -63,-84 l 16,-20 C 717,90 699,76 672,76 641,76 570,178 457,381 L 164,-76 c -22,-34 -53,-51 -92,-51 -42,0 -63,17 -64,51 -7,9 -10,24 -10,44 0,9 1,19 2,30 z"
   id="path26"
   inkscape:connector-curvature="0" />
  </g>
  <g
   id="bullet-char-template-10004"
   transform="matrix(4.8828125e-4,0,0,-4.8828125e-4,0,0)">
   <path
   d="M 285,-33 C 182,-33 111,30 74,156 52,228 41,333 41,471 c 0,78 14,145 41,201 34,71 87,106 158,106 53,0 88,-31 106,-94 l 23,-176 c 8,-64 28,-97 59,-98 l 735,706 c 11,11 33,17 66,17 42,0 63,-15 63,-46 V 965 c 0,-36 -10,-64 -30,-84 L 442,47 C 390,-6 338,-33 285,-33 Z"
   id="path29"
   inkscape:connector-curvature="0" />
  </g>
  <g
   id="bullet-char-template-9679"
   transform="matrix(4.8828125e-4,0,0,-4.8828125e-4,0,0)">
   <path
   d="M 813,0 C 632,0 489,54 383,161 276,268 223,411 223,592 c 0,181 53,324 160,431 106,107 249,161 430,161 179,0 323,-54 432,-161 108,-107 162,-251 162,-431 0,-180 -54,-324 -162,-431 C 1136,54 992,0 813,0 Z"
   id="path32"
   inkscape:connector-curvature="0" />
  </g>
  <g
   id="bullet-char-template-8226"
   transform="matrix(4.8828125e-4,0,0,-4.8828125e-4,0,0)">
   <path
   d="m 346,457 c -73,0 -137,26 -191,78 -54,51 -81,114 -81,188 0,73 27,136 81,188 54,52 118,78 191,78 73,0 134,-26 185,-79 51,-51 77,-114 77,-187 0,-75 -25,-137 -76,-188 -50,-52 -112,-78 -186,-78 z"
   id="path35"
   inkscape:connector-curvature="0" />
  </g>
  <g
   id="bullet-char-template-8211"
   transform="matrix(4.8828125e-4,0,0,-4.8828125e-4,0,0)">
   <path
   d="M -4,459 H 1135 V 606 H -4 Z"
   id="path38"
   inkscape:connector-curvature="0" />
  </g>
  <g
   id="bullet-char-template-61548"
   transform="matrix(4.8828125e-4,0,0,-4.8828125e-4,0,0)">
   <path
   d="m 173,740 c 0,163 58,303 173,419 116,115 255,173 419,173 163,0 302,-58 418,-173 116,-116 174,-256 174,-419 0,-163 -58,-303 -174,-418 C 1067,206 928,148 765,148 601,148 462,206 346,322 231,437 173,577 173,740 Z"
   id="path41"
   inkscape:connector-curvature="0" />
  </g>
 </defs>
 <g
   id="g49"
   transform="translate(-4412,-7492)">
  <g
   id="id2"
   class="Master_Slide">
   <g
   id="bg-id2"
   class="Background" />
   <g
   id="bo-id2"
   class="BackgroundObjects" />
  </g>
 </g>
 <g
   class="SlideGroup"
   id="g218"
   transform="translate(-4412,-7492)">
  <g
   id="g216">
   <g
   id="container-id1">
    <g
   id="id1"
   class="Slide"
   clip-path="url(#presentation_clip_path)">
     <g
   class="Page"
   id="g212">
      <g
   class="Graphic"
   id="g210">
       <g
   id="id3">
        <rect
   class="BoundingBox"
   x="4412"
   y="7492"
   width="12175"
   height="14715"
   id="rect51"
   style="fill:none;stroke:none" />
        <path
   d="m 6481,12856 -31,110 13,106 18,110 -93,124 -110,-49 -44,-44 -110,-62 -93,31 -31,-110 18,-106 -111,-62 -88,-17 -79,-14 -106,-79 -93,-62 -61,18 -62,93 -31,74 -49,-136 18,-141 -79,-14 -124,-79 v -62 l 62,-44 17,-123 v -111 l -92,-31 -155,450 14,137 -75,154 v 155 l -31,110 -18,106 -31,93 -13,185 124,-93 44,-106 48,75 31,186 168,172 31,123 -75,62 -62,-18 -110,-154 -106,62 -18,-75 -75,-93 31,185 13,106 -44,141 v 216 l -123,278 v 261 172 92 l 136,-247 v -48 l 62,123 110,18 124,-49 62,247 92,124 93,247 44,93 -31,92 -198,203 -62,93 -110,13 -14,-137 -61,31 -49,31 -31,-203 -13,-168 -62,-48 13,-75 -75,-93 -30,199 44,295 31,186 48,123 -18,137 111,-75 75,44 141,-13 106,-18 141,141 h 123 l 75,-62 142,31 105,14 14,-75 -27,-111 -17,-75 61,-31 106,45 141,-31 93,-14 v 45 l 13,110 80,75 105,-44 93,-18 49,-44 61,-110 -48,-62 31,-13 h 31 l 17,13 106,-13 80,-49 61,80 75,92 124,93 44,-62 62,-93 123,-30 49,-203 44,-75 62,-124 -75,-123 -93,-80 168,-167 -14,-49 31,-44 199,13 h 92 l -13,-61 h 155 l 105,-75 31,-93 v -141 l -31,-31 -44,48 -92,-92 -111,-111 -61,-13 -62,-141 -93,-93 -75,-61 -48,-31 -62,-124 18,-123 -18,-93 -106,-137 -62,-110 -48,-44 -75,-48 13,-93 -31,-106 -75,-62 -106,-48 -141,-31 -62,-62 v -106 l 18,-154 -49,-62 -74,-48 z"
   id="path53"
   inkscape:connector-curvature="0"
   style="fill:#00ff00;stroke:none" />
        <path
   d="m 6481,12856 -31,110 13,106 18,110 -93,124 -110,-49 -44,-44 -110,-62 -93,31 -31,-110 18,-106 -111,-62 -88,-17 -79,-14 -106,-79 -93,-62 -61,18 -62,93 -31,74 -49,-136 18,-141 -79,-14 -124,-79 v -62 l 62,-44 17,-123 v -111 l -92,-31 -155,450 14,137 -75,154 v 155 l -31,110 -18,106 -31,93 -13,185 124,-93 44,-106 48,75 31,186 168,172 31,123 -75,62 -62,-18 -110,-154 -106,62 -18,-75 -75,-93 31,185 13,106 -44,141 v 216 l -123,278 v 261 172 92 l 136,-247 v -48 l 62,123 110,18 124,-49 62,247 92,124 93,247 44,93 -31,92 -198,203 -62,93 -110,13 -14,-137 -61,31 -49,31 -31,-203 -13,-168 -62,-48 13,-75 -75,-93 -30,199 44,295 31,186 48,123 -18,137 111,-75 75,44 141,-13 106,-18 141,141 h 123 l 75,-62 142,31 105,14 14,-75 -27,-111 -17,-75 61,-31 106,45 141,-31 93,-14 v 45 l 13,110 80,75 105,-44 93,-18 49,-44 61,-110 -48,-62 31,-13 h 31 l 17,13 106,-13 80,-49 61,80 75,92 124,93 44,-62 62,-93 123,-30 49,-203 44,-75 62,-124 -75,-123 -93,-80 168,-167 -14,-49 31,-44 199,13 h 92 l -13,-61 h 155 l 105,-75 31,-93 v -141 l -31,-31 -44,48 -92,-92 -111,-111 -61,-13 -62,-141 -93,-93 -75,-61 -48,-31 -62,-124 18,-123 -18,-93 -106,-137 -62,-110 -48,-44 -75,-48 13,-93 -31,-106 -75,-62 -106,-48 -141,-31 -62,-62 v -106 l 18,-154 -49,-62 -74,-48 z"
   id="path55"
   inkscape:connector-curvature="0"
   style="fill:none;stroke:#000000;stroke-width:35;stroke-linecap:round;stroke-linejoin:round" />
        <path
   d="m 7451,10156 -61,-92 -62,30 -75,-48 -31,-13 -79,44 -155,110 -185,44 -185,18 h -62 l -93,-80 h -106 l -92,18 -44,75 -80,93 -31,92 -92,124 -261,278 -123,172 -110,88 -124,79 -31,137 -44,155 -48,92 -14,124 14,110 v 93 l 79,-93 31,-93 v -79 l 93,-75 61,-79 -31,172 v 185 l 62,185 93,31 154,13 124,31 44,-31 -75,-106 -49,-154 18,-79 44,-75 93,-62 79,-62 93,-123 v -80 -75 l 44,-48 123,-62 h 124 v -62 l 106,-106 154,-75 h 93 62 l 92,-92 110,-49 124,-13 123,31 106,44 -13,-93 62,-62 44,-30 -75,-124 13,-13 -75,-49 -79,-75 -44,-61 75,-111 z"
   id="path57"
   inkscape:connector-curvature="0"
   style="fill:#00ff00;stroke:none" />
        <path
   d="m 7451,10156 -61,-92 -62,30 -75,-48 -31,-13 -79,44 -155,110 -185,44 -185,18 h -62 l -93,-80 h -106 l -92,18 -44,75 -80,93 -31,92 -92,124 -261,278 -123,172 -110,88 -124,79 -31,137 -44,155 -48,92 -14,124 14,110 v 93 l 79,-93 31,-93 v -79 l 93,-75 61,-79 -31,172 v 185 l 62,185 93,31 154,13 124,31 44,-31 -75,-106 -49,-154 18,-79 44,-75 93,-62 79,-62 93,-123 v -80 -75 l 44,-48 123,-62 h 124 v -62 l 106,-106 154,-75 h 93 62 l 92,-92 110,-49 124,-13 123,31 106,44 -13,-93 62,-62 44,-30 -75,-124 13,-13 -75,-49 -79,-75 -44,-61 75,-111 z"
   id="path59"
   inkscape:connector-curvature="0"
   style="fill:none;stroke:#000000;stroke-width:35;stroke-linecap:round;stroke-linejoin:round" />
        <path
   d="m 6785,11405 44,-31 h 44 l 62,61 27,-70 -18,-62 9,-66 -62,-9 40,-62 62,-17 44,-75 -93,31 h -44 l -93,136 -79,49 -75,31 -93,-18 -106,-31 -30,62 -18,79 -31,62 -62,44 18,62 -31,31 13,79 -62,44 -61,18 -62,13 -44,93 13,92 93,18 v 62 l 48,44 31,31 v 93 l 62,61 44,-13 62,-31 167,-185 62,13 93,-62 62,-75 -14,-92 44,-80 62,-92 -62,-62 -61,-93 v -75 z"
   id="path61"
   inkscape:connector-curvature="0"
   style="fill:#00ff00;stroke:none" />
        <path
   d="m 6785,11405 44,-31 h 44 l 62,61 27,-70 -18,-62 9,-66 -62,-9 40,-62 62,-17 44,-75 -93,31 h -44 l -93,136 -79,49 -75,31 -93,-18 -106,-31 -30,62 -18,79 -31,62 -62,44 18,62 -31,31 13,79 -62,44 -61,18 -62,13 -44,93 13,92 93,18 v 62 l 48,44 31,31 v 93 l 62,61 44,-13 62,-31 167,-185 62,13 93,-62 62,-75 -14,-92 44,-80 62,-92 -62,-62 -61,-93 v -75"
   id="path63"
   inkscape:connector-curvature="0"
   style="fill:none;stroke:#000000;stroke-width:35;stroke-linecap:round;stroke-linejoin:round" />
        <path
   d="m 7090,11621 61,-14 53,22 18,23 31,-31 31,-5 84,13 h 30 l 22,23 v 30 l -44,40 -26,27 -75,-14 -40,31 -84,22 -48,-22 -22,-39 v -45 z"
   id="path65"
   inkscape:connector-curvature="0"
   style="fill:#00ff00;stroke:none" />
        <path
   d="m 7090,11621 61,-14 53,22 18,23 31,-31 31,-5 84,13 h 30 l 22,23 v 30 l -44,40 -26,27 -75,-14 -40,31 -84,22 -48,-22 -22,-39 v -45 z"
   id="path67"
   inkscape:connector-curvature="0"
   style="fill:none;stroke:#000000;stroke-width:35;stroke-linecap:round;stroke-linejoin:round" />
        <path
   d="m 6132,12216 31,71 22,44 v 40 l -39,13 -36,70 v 36 l 22,92 9,71 -48,44 -62,31 -53,-22 -9,-62 -9,-75 -13,-79 -31,-5 -39,13 -40,-13 -31,-48 -22,-44 48,-53 36,-31 61,44 49,-31 31,-31 13,-13 18,-9 13,-9 26,9 z"
   id="path69"
   inkscape:connector-curvature="0"
   style="fill:#00ff00;stroke:none" />
        <path
   d="m 6132,12216 31,71 22,44 v 40 l -39,13 -36,70 v 36 l 22,92 9,71 -48,44 -62,31 -53,-22 -9,-62 -9,-75 -13,-79 -31,-5 -39,13 -40,-13 -31,-48 -22,-44 48,-53 36,-31 61,44 49,-31 31,-31 13,-13 18,-9 13,-9 26,9 z"
   id="path71"
   inkscape:connector-curvature="0"
   style="fill:none;stroke:#000000;stroke-width:35;stroke-linecap:round;stroke-linejoin:round" />
        <path
   d="m 6485,12851 -75,-92 -31,-44 31,-80 93,-13 75,-93 31,-92 17,-93 45,-79 h 79 l 106,17 62,-61 17,-49 -62,-75 -48,-62 -13,-48 61,-93 106,-62 62,-30 62,48 92,44 75,-13 62,-31 49,62 13,62 79,75 45,110 v 92 93 l -45,93 -110,75 -106,48 -17,75 v 172 l 48,31 62,-48 13,-45 80,-61 v -111 l 30,-44 155,75 106,80 31,136 v 142 l 30,123 h 93 l 75,-48 49,-62 -31,-62 -62,-75 v -79 l 13,-75 49,-124 -18,-62 -13,-295 92,-93 106,49 124,13 141,31 106,31 75,31 48,31 31,79 31,198 -31,142 -17,61 v 62 l 79,13 h 106 l 48,18 137,106 31,48 -44,186 13,105 31,93 79,110 75,44 -30,93 -31,93 v 79 l 17,124 44,75 -30,61 -75,62 -62,110 -80,-30 -75,-62 -110,13 -123,93 -124,-14 -75,45 -75,79 -62,-18 -31,62 -110,-31 -44,18 -110,106 -62,-31 -13,-75 -93,44 -62,62 -105,61 -93,-136 -93,-80 -79,-92 -44,-44 v -111 l 13,-92 -44,-75 -93,-155 -62,-61 -48,-49 -44,-31 -13,-31 13,-44 -13,-79 -49,-62 -75,-62 -79,-31 -93,-13 -75,-48 -31,-14 -17,-110 v -93 l 17,-30 13,-45 -13,-30 -31,-31 -61,-49 z"
   id="path73"
   inkscape:connector-curvature="0"
   style="fill:#00ff00;stroke:none" />
        <path
   d="m 6485,12851 -75,-92 -31,-44 31,-80 93,-13 75,-93 31,-92 17,-93 45,-79 h 79 l 106,17 62,-61 17,-49 -62,-75 -48,-62 -13,-48 61,-93 106,-62 62,-30 62,48 92,44 75,-13 62,-31 49,62 13,62 79,75 45,110 v 92 93 l -45,93 -110,75 -106,48 -17,75 v 172 l 48,31 62,-48 13,-45 80,-61 v -111 l 30,-44 155,75 106,80 31,136 v 142 l 30,123 h 93 l 75,-48 49,-62 -31,-62 -62,-75 v -79 l 13,-75 49,-124 -18,-62 -13,-295 92,-93 106,49 124,13 141,31 106,31 75,31 48,31 31,79 31,198 -31,142 -17,61 v 62 l 79,13 h 106 l 48,18 137,106 31,48 -44,186 13,105 31,93 79,110 75,44 -30,93 -31,93 v 79 l 17,124 44,75 -30,61 -75,62 -62,110 -80,-30 -75,-62 -110,13 -123,93 -124,-14 -75,45 -75,79 -62,-18 -31,62 -110,-31 -44,18 -110,106 -62,-31 -13,-75 -93,44 -62,62 -105,61 -93,-136 -93,-80 -79,-92 -44,-44 v -111 l 13,-92 -44,-75 -93,-155 -62,-61 -48,-49 -44,-31 -13,-31 13,-44 -13,-79 -49,-62 -75,-62 -79,-31 -93,-13 -75,-48 -31,-14 -17,-110 v -93 l 17,-30 13,-45 -13,-30 -31,-31 -61,-49 z"
   id="path75"
   inkscape:connector-curvature="0"
   style="fill:none;stroke:#000000;stroke-width:35;stroke-linecap:round;stroke-linejoin:round" />
        <path
   d="m 4818,16345 -80,322 -44,141 -92,185 -62,155 -79,105 -14,111 31,62 h 124 l 154,105 31,31 75,18 79,106 93,141 62,93 92,44 31,110 31,137 75,79 62,62 62,-49 -31,-123 -44,-75 -31,-124 -31,-110 -93,-62 -31,62 -31,31 -17,-93 -44,-123 -62,-137 -49,-79 -13,-124 31,-62 124,155 167,185 80,62 106,203 185,92 172,62 62,199 v 154 l 13,309 v 185 141 l 203,-18 h 123 l 106,18 93,-62 123,-48 h 93 l 48,-75 v -110 l -48,-137 -62,-93 v -92 l 31,-80 93,-123 92,-155 31,-61 h 62 l 154,17 234,44 124,-31 136,-136 62,-141 v -186 l -13,-123 -62,-155 -110,-106 -62,-92 18,-124 v -141 l -62,-62 -49,-61 -30,-93 30,-123 18,-155 v -123 -124 l -79,18 -31,62 -75,92 h -49 l -106,-110 -61,-75 -31,-49 -31,-30 -79,92 -137,-13 -31,-31 v 44 l 13,31 v 49 l -62,61 -61,62 -44,13 -80,31 h -62 l -61,-62 -45,-44 14,-48 v -62 0 l -62,18 -124,13 h -61 l -31,-13 -44,-31 -80,31 62,216 -13,44 -49,18 -75,-18 -79,-13 -44,-18 -80,49 -75,13 -79,-13 -44,-49 -49,-62 -31,-13 -13,-18 -31,18 h -79 l -31,31 -75,-31 -79,-18 h -14 z"
   id="path77"
   inkscape:connector-curvature="0"
   style="fill:#00ff00;stroke:none" />
        <path
   d="m 4818,16345 -80,322 -44,141 -92,185 -62,155 -79,105 -14,111 31,62 h 124 l 154,105 31,31 75,18 79,106 93,141 62,93 92,44 31,110 31,137 75,79 62,62 62,-49 -31,-123 -44,-75 -31,-124 -31,-110 -93,-62 -31,62 -31,31 -17,-93 -44,-123 -62,-137 -49,-79 -13,-124 31,-62 124,155 167,185 80,62 106,203 185,92 172,62 62,199 v 154 l 13,309 v 185 141 l 203,-18 h 123 l 106,18 93,-62 123,-48 h 93 l 48,-75 v -110 l -48,-137 -62,-93 v -92 l 31,-80 93,-123 92,-155 31,-61 h 62 l 154,17 234,44 124,-31 136,-136 62,-141 v -186 l -13,-123 -62,-155 -110,-106 -62,-92 18,-124 v -141 l -62,-62 -49,-61 -30,-93 30,-123 18,-155 v -123 -124 l -79,18 -31,62 -75,92 h -49 l -106,-110 -61,-75 -31,-49 -31,-30 -79,92 -137,-13 -31,-31 v 44 l 13,31 v 49 l -62,61 -61,62 -44,13 -80,31 h -62 l -61,-62 -45,-44 14,-48 v -62 0 l -62,18 -124,13 h -61 l -31,-13 -44,-31 -80,31 62,216 -13,44 -49,18 -75,-18 -79,-13 -44,-18 -80,49 -75,13 -79,-13 -44,-49 -49,-62 -31,-13 -13,-18 -31,18 h -79 l -31,31 -75,-31 -79,-18 h -14 z"
   id="path79"
   inkscape:connector-curvature="0"
   style="fill:none;stroke:#000000;stroke-width:35;stroke-linecap:round;stroke-linejoin:round" />
        <path
   d="m 5638,18594 -48,49 48,44 -79,18 v 61 l 18,62 13,49 79,-49 44,-62 v -61 z"
   id="path81"
   inkscape:connector-curvature="0"
   style="fill:#00ff00;stroke:none" />
        <path
   d="m 5638,18594 -48,49 48,44 -79,18 v 61 l 18,62 13,49 79,-49 44,-62 v -61 z"
   id="path83"
   inkscape:connector-curvature="0"
   style="fill:none;stroke:#000000;stroke-width:35;stroke-linecap:round;stroke-linejoin:round" />
        <path
   d="m 5497,19088 -123,18 -44,75 44,62 48,79 v 31 31 l -17,18 -45,75 -17,61 48,80 62,31 75,-18 62,-93 v -75 l -18,-79 -31,-79 18,-45 44,-79 -31,-75 z"
   id="path85"
   inkscape:connector-curvature="0"
   style="fill:#00ff00;stroke:none" />
        <path
   d="m 5497,19088 -123,18 -44,75 44,62 48,79 v 31 31 l -17,18 -45,75 -17,61 48,80 62,31 75,-18 62,-93 v -75 l -18,-79 -31,-79 18,-45 44,-79 -31,-75 z"
   id="path87"
   inkscape:connector-curvature="0"
   style="fill:none;stroke:#000000;stroke-width:35;stroke-linecap:round;stroke-linejoin:round" />
        <path
   d="m 5894,19013 110,18 45,-31 233,13 31,31 93,-75 106,-31 110,-17 44,-62 31,-62 -13,-123 -49,-93 -44,-75 -17,-110 48,-93 62,-75 62,-123 61,-80 14,-30 17,-14 124,14 123,17 119,31 111,13 92,-13 -17,154 30,62 62,31 h 93 l 154,106 93,18 62,-80 92,-106 49,-61 h 154 l 137,61 31,93 -44,75 -80,79 49,62 154,-18 v 93 l -79,141 31,93 110,44 31,79 -49,168 -44,79 -79,62 -106,-31 -110,-17 -62,48 -44,62 -93,13 -79,31 48,79 75,62 31,106 -31,49 -61,44 -75,48 -124,13 13,49 62,93 79,44 106,-14 93,-30 110,44 106,79 110,75 124,49 62,105 13,142 -13,75 -111,17 18,44 31,93 13,79 -106,-31 -123,-110 -93,-92 -62,-45 -92,124 -111,93 -247,75 -92,79 -93,44 -62,-62 -92,-44 -124,-31 -57,-31 -141,-92 -168,-110 -172,-62 -185,-13 -186,13 -198,17 -141,-30 -93,-49 v -106 l -13,-264 -49,-137 -75,-110 93,-137 75,-216 -13,-111 -31,-136 -31,-49 z"
   id="path89"
   inkscape:connector-curvature="0"
   style="fill:#00ff00;stroke:none" />
        <path
   d="m 5894,19013 110,18 45,-31 233,13 31,31 93,-75 106,-31 110,-17 44,-62 31,-62 -13,-123 -49,-93 -44,-75 -17,-110 48,-93 62,-75 62,-123 61,-80 14,-30 17,-14 124,14 123,17 119,31 111,13 92,-13 -17,154 30,62 62,31 h 93 l 154,106 93,18 62,-80 92,-106 49,-61 h 154 l 137,61 31,93 -44,75 -80,79 49,62 154,-18 v 93 l -79,141 31,93 110,44 31,79 -49,168 -44,79 -79,62 -106,-31 -110,-17 -62,48 -44,62 -93,13 -79,31 48,79 75,62 31,106 -31,49 -61,44 -75,48 -124,13 13,49 62,93 79,44 106,-14 93,-30 110,44 106,79 110,75 124,49 62,105 13,142 -13,75 -111,17 18,44 31,93 13,79 -106,-31 -123,-110 -93,-92 -62,-45 -92,124 -111,93 -247,75 -92,79 -93,44 -62,-62 -92,-44 -124,-31 -57,-31 -141,-92 -168,-110 -172,-62 -185,-13 -186,13 -198,17 -141,-30 -93,-49 v -106 l -13,-264 -49,-137 -75,-110 93,-137 75,-216 -13,-111 -31,-136 -31,-49 z"
   id="path91"
   inkscape:connector-curvature="0"
   style="fill:none;stroke:#000000;stroke-width:35;stroke-linecap:round;stroke-linejoin:round" />
        <path
   d="m 8686,20257 -70,-44 -22,62 9,75 61,40 40,-14 13,62 111,62 h 123 l 75,-31 110,31 31,93 31,44 75,-14 93,-61 17,-80 -17,-123 -93,-106 -154,-110 -13,-31 v -93 l -62,-62 h -49 -123 l -75,-136 -31,-62 -124,-31 -61,13 -49,31 -93,-31 -92,18 17,106 75,48 62,-48 62,31 v 61 l -31,49 v 62 l 49,-18 92,-13 106,31 18,31 -31,30 75,62 48,44 -48,62 -75,-62 -80,-106 -44,45 44,79 z"
   id="path93"
   inkscape:connector-curvature="0"
   style="fill:#00ff00;stroke:none" />
        <path
   d="m 8686,20257 -70,-44 -22,62 9,75 61,40 40,-14 13,62 111,62 h 123 l 75,-31 110,31 31,93 31,44 75,-14 93,-61 17,-80 -17,-123 -93,-106 -154,-110 -13,-31 v -93 l -62,-62 h -49 -123 l -75,-136 -31,-62 -124,-31 -61,13 -49,31 -93,-31 -92,18 17,106 75,48 62,-48 62,31 v 61 l -31,49 v 62 l 49,-18 92,-13 106,31 18,31 -31,30 75,62 48,44 -48,62 -75,-62 -80,-106 -44,45 44,79"
   id="path95"
   inkscape:connector-curvature="0"
   style="fill:none;stroke:#000000;stroke-width:35;stroke-linecap:round;stroke-linejoin:round" />
        <path
   d="m 8951,20557 -75,18 -31,35 v 27 l 75,92 62,44 53,9 h 79 l 44,22 45,-31 8,-44 -53,-17 -44,-40 -48,-44 -31,-31 -22,-18 z"
   id="path97"
   inkscape:connector-curvature="0"
   style="fill:#00ff00;stroke:none" />
        <path
   d="m 8951,20557 -75,18 -31,35 v 27 l 75,92 62,44 53,9 h 79 l 44,22 45,-31 8,-44 -53,-17 -44,-40 -48,-44 -31,-31 -22,-18 z"
   id="path99"
   inkscape:connector-curvature="0"
   style="fill:none;stroke:#000000;stroke-width:35;stroke-linecap:round;stroke-linejoin:round" />
        <path
   d="m 9833,20107 -35,-8 -18,39 49,115 75,123 123,203 40,159 31,75 75,31 71,9 31,-31 30,-22 80,31 h 62 l 53,-27 30,-61 -8,-62 -45,-53 -79,-31 -75,-18 -79,-31 -71,-61 -53,-44 h -44 l -49,-27 -70,-101 -93,-106 9,-40 z"
   id="path101"
   inkscape:connector-curvature="0"
   style="fill:#00ff00;stroke:none" />
        <path
   d="m 9833,20107 -35,-8 -18,39 49,115 75,123 123,203 40,159 31,75 75,31 71,9 31,-31 30,-22 80,31 h 62 l 53,-27 30,-61 -8,-62 -45,-53 -79,-31 -75,-18 -79,-31 -71,-61 -53,-44 h -44 l -49,-27 -70,-101 -93,-106 9,-40 z"
   id="path103"
   inkscape:connector-curvature="0"
   style="fill:none;stroke:#000000;stroke-width:35;stroke-linecap:round;stroke-linejoin:round" />
        <path
   d="m 9291,19300 -40,-9 -13,31 31,71 31,39 -9,75 9,40 39,22 75,-9 22,-75 -30,-61 -45,-53 -48,-31 z"
   id="path105"
   inkscape:connector-curvature="0"
   style="fill:#00ff00;stroke:none" />
        <path
   d="m 9291,19300 -40,-9 -13,31 31,71 31,39 -9,75 9,40 39,22 75,-9 22,-75 -30,-61 -45,-53 -48,-31 z"
   id="path107"
   inkscape:connector-curvature="0"
   style="fill:none;stroke:#000000;stroke-width:35;stroke-linecap:round;stroke-linejoin:round" />
        <path
   d="m 10433,18136 -123,-93 62,-44 61,-49 80,-92 44,-44 31,-62 48,-62 v -79 l -62,17 -79,-61 -198,-172 -124,-14 -48,31 -62,75 -62,-31 v -92 h -106 l -62,79 h -141 l -185,31 -106,75 -48,124 -93,30 -75,49 -110,44 -31,-44 -13,-79 -93,-93 -93,93 -110,92 v 155 l 79,154 62,48 -17,75 -31,93 17,79 93,62 62,44 44,49 31,62 -31,92 -31,168 18,110 105,93 217,106 110,61 75,155 79,61 44,93 -61,31 -45,93 14,61 79,18 62,75 137,-13 61,-18 31,80 49,75 44,17 79,-48 93,31 137,48 h 110 l 93,-18 92,-30 124,17 -18,44 -123,49 -62,106 48,154 106,49 155,-62 48,-49 v -75 l -17,-79 79,-62 31,-106 -18,-48 62,-31 93,-62 48,-92 v -62 l 62,-93 13,-123 v -137 l -31,-155 -13,-154 v -110 l 31,-62 75,-13 48,75 14,-106 -31,-141 -75,-137 -93,-123 -123,-111 -111,-75 -13,-61 93,-31 106,-49 110,-44 -31,-110 -93,-155 v -136 l -31,-93 v -48 h -61 l -111,-75 -44,-18 -31,18 31,105 62,93 -31,124 -48,92 -75,31 -18,93 -31,92 -75,18 -110,62 z"
   id="path109"
   inkscape:connector-curvature="0"
   style="fill:#00ff00;stroke:none" />
        <path
   d="m 10433,18136 -123,-93 62,-44 61,-49 80,-92 44,-44 31,-62 48,-62 v -79 l -62,17 -79,-61 -198,-172 -124,-14 -48,31 -62,75 -62,-31 v -92 h -106 l -62,79 h -141 l -185,31 -106,75 -48,124 -93,30 -75,49 -110,44 -31,-44 -13,-79 -93,-93 -93,93 -110,92 v 155 l 79,154 62,48 -17,75 -31,93 17,79 93,62 62,44 44,49 31,62 -31,92 -31,168 18,110 105,93 217,106 110,61 75,155 79,61 44,93 -61,31 -45,93 14,61 79,18 62,75 137,-13 61,-18 31,80 49,75 44,17 79,-48 93,31 137,48 h 110 l 93,-18 92,-30 124,17 -18,44 -123,49 -62,106 48,154 106,49 155,-62 48,-49 v -75 l -17,-79 79,-62 31,-106 -18,-48 62,-31 93,-62 48,-92 v -62 l 62,-93 13,-123 v -137 l -31,-155 -13,-154 v -110 l 31,-62 75,-13 48,75 14,-106 -31,-141 -75,-137 -93,-123 -123,-111 -111,-75 -13,-61 93,-31 106,-49 110,-44 -31,-110 -93,-155 v -136 l -31,-93 v -48 h -61 l -111,-75 -44,-18 -31,18 31,105 62,93 -31,124 -48,92 -75,31 -18,93 -31,92 -75,18 -110,62 z"
   id="path111"
   inkscape:connector-curvature="0"
   style="fill:none;stroke:#000000;stroke-width:35;stroke-linecap:round;stroke-linejoin:round" />
        <path
   d="m 11682,19494 -31,450 -31,75 -79,80 -75,75 -31,172 -62,185 -110,247 -93,260 -31,141 -31,93 -31,93 -92,44 -31,-31 -44,-75 -31,-111 -49,-123 18,-62 31,-75 13,-154 49,-62 105,-93 v -92 l -74,-31 v -79 l 61,-62 13,-75 111,-31 106,-93 92,-123 18,-124 31,-154 75,-93 92,-92 z"
   id="path113"
   inkscape:connector-curvature="0"
   style="fill:#00ff00;stroke:none" />
        <path
   d="m 11682,19494 -31,450 -31,75 -79,80 -75,75 -31,172 -62,185 -110,247 -93,260 -31,141 -31,93 -31,93 -92,44 -31,-31 -44,-75 -31,-111 -49,-123 18,-62 31,-75 13,-154 49,-62 105,-93 v -92 l -74,-31 v -79 l 61,-62 13,-75 111,-31 106,-93 92,-123 18,-124 31,-154 75,-93 92,-92 z"
   id="path115"
   inkscape:connector-curvature="0"
   style="fill:none;stroke:#000000;stroke-width:35;stroke-linecap:round;stroke-linejoin:round" />
        <path
   d="m 13084,20235 80,89 h 79 l 31,-45 -31,-88 z"
   id="path117"
   inkscape:connector-curvature="0"
   style="fill:#00ff00;stroke:none" />
        <path
   d="m 13084,20235 80,89 h 79 l 31,-45 -31,-88 z"
   id="path119"
   inkscape:connector-curvature="0"
   style="fill:none;stroke:#000000;stroke-width:35;stroke-linecap:round;stroke-linejoin:round" />
        <path
   d="m 12683,20434 18,-93 44,-62 92,-13 111,13 44,62 -62,80 -123,44 z"
   id="path121"
   inkscape:connector-curvature="0"
   style="fill:#00ff00;stroke:none" />
        <path
   d="m 12683,20434 18,-93 44,-62 92,-13 111,13 44,62 -62,80 -123,44 z"
   id="path123"
   inkscape:connector-curvature="0"
   style="fill:none;stroke:#000000;stroke-width:35;stroke-linecap:round;stroke-linejoin:round" />
        <path
   d="m 12626,20390 -93,13 -110,-75 -155,-62 -154,13 -62,80 -75,-49 -79,93 -31,93 -31,123 110,124 124,30 31,93 -124,31 -141,18 -137,-18 -48,93 48,167 137,49 h 93 l 203,154 167,137 203,17 124,137 154,110 185,75 106,-13 93,-123 79,-93 124,13 123,62 93,-13 137,75 h 110 l 62,-75 44,-93 -75,-110 -18,-106 62,-31 79,-31 -92,-92 13,-141 -93,-75 -92,-14 17,-79 -92,-93 -141,-123 v -62 l -106,79 -124,93 h -92 l 136,106 49,93 -80,17 -105,-123 -80,-62 h -154 l -75,-49 -18,-154 -44,-75 h -79 z"
   id="path125"
   inkscape:connector-curvature="0"
   style="fill:#00ff00;stroke:none" />
        <path
   d="m 12626,20390 -93,13 -110,-75 -155,-62 -154,13 -62,80 -75,-49 -79,93 -31,93 -31,123 110,124 124,30 31,93 -124,31 -141,18 -137,-18 -48,93 48,167 137,49 h 93 l 203,154 167,137 203,17 124,137 154,110 185,75 106,-13 93,-123 79,-93 124,13 123,62 93,-13 137,75 h 110 l 62,-75 44,-93 -75,-110 -18,-106 62,-31 79,-31 -92,-92 13,-141 -93,-75 -92,-14 17,-79 -92,-93 -141,-123 v -62 l -106,79 -124,93 h -92 l 136,106 49,93 -80,17 -105,-123 -80,-62 h -154 l -75,-49 -18,-154 -44,-75 h -79 z"
   id="path127"
   inkscape:connector-curvature="0"
   style="fill:none;stroke:#000000;stroke-width:35;stroke-linecap:round;stroke-linejoin:round" />
        <path
   d="m 14253,20421 -75,13 -17,48 -93,-31 -106,-110 -61,18 -49,44 -93,-31 -105,-62 44,216 31,155 61,123 80,93 v 79 l 106,93 61,93 -31,167 -13,124 -48,48 48,137 62,247 13,124 49,92 44,31 79,-93 v -154 l -31,-124 14,-92 141,-185 92,-137 14,-93 79,-79 124,-185 136,-124 -13,-137 -31,-61 -79,44 -75,-124 -62,-31 -62,49 -79,-49 -75,-92 z"
   id="path129"
   inkscape:connector-curvature="0"
   style="fill:#00ff00;stroke:none" />
        <path
   d="m 14253,20421 -75,13 -17,48 -93,-31 -106,-110 -61,18 -49,44 -93,-31 -105,-62 44,216 31,155 61,123 80,93 v 79 l 106,93 61,93 -31,167 -13,124 -48,48 48,137 62,247 13,124 49,92 44,31 79,-93 v -154 l -31,-124 14,-92 141,-185 92,-137 14,-93 79,-79 124,-185 136,-124 -13,-137 -31,-61 -79,44 -75,-124 -62,-31 -62,49 -79,-49 -75,-92 z"
   id="path131"
   inkscape:connector-curvature="0"
   style="fill:none;stroke:#000000;stroke-width:35;stroke-linecap:round;stroke-linejoin:round" />
        <path
   d="m 15184,20006 -75,-18 -17,-61 -62,61 17,93 45,93 -31,92 -155,18 -75,44 -79,18 -75,75 13,92 62,93 93,48 110,-61 62,-93 44,-93 48,-48 199,-62 123,-13 106,44 93,79 79,44 62,-92 13,-106 -31,-110 -123,-62 -155,-62 -105,-31 z"
   id="path133"
   inkscape:connector-curvature="0"
   style="fill:#00ff00;stroke:none" />
        <path
   d="m 15184,20006 -75,-18 -17,-61 -62,61 17,93 45,93 -31,92 -155,18 -75,44 -79,18 -75,75 13,92 62,93 93,48 110,-61 62,-93 44,-93 48,-48 199,-62 123,-13 106,44 93,79 79,44 62,-92 13,-106 -31,-110 -123,-62 -155,-62 -105,-31 z"
   id="path135"
   inkscape:connector-curvature="0"
   style="fill:none;stroke:#000000;stroke-width:35;stroke-linecap:round;stroke-linejoin:round" />
        <path
   d="m 15378,18352 71,88 75,110 31,155 79,141 -92,88 -106,79 -80,128 -198,27 -186,48 -97,93 -154,75 -137,18 -61,105 105,80 137,-13 v 57 l 35,141 -92,124 -18,97 49,88 44,66 v 57 l -62,-13 -123,62 -155,93 -88,-31 -154,-80 -36,-13 -31,13 -44,-44 -97,-44 -75,-48 -92,-62 -106,13 -203,-154 -62,-62 110,-31 75,31 111,-31 -18,-75 -62,-97 49,-44 h 88 l 66,-44 -18,-49 -92,-62 h -93 l 13,-79 v -75 l -44,-31 -75,18 v 119 l -17,141 -75,-48 -172,-155 -53,-132 61,-84 -17,-163 9,-44 97,-31 136,-18 31,-123 -35,-27 -93,-48 -97,-49 -22,-114 58,-18 203,-13 145,-119 150,176 62,22 31,35 -14,75 349,269 79,36 97,4 58,-35 39,-35 159,-124 22,-53 106,-35 137,-13 h 110 l 66,26 111,-119 79,-84 z"
   id="path137"
   inkscape:connector-curvature="0"
   style="fill:#00ff00;stroke:none" />
        <path
   d="m 15378,18352 71,88 75,110 31,155 79,141 -92,88 -106,79 -80,128 -198,27 -186,48 -97,93 -154,75 -137,18 -61,105 105,80 137,-13 v 57 l 35,141 -92,124 -18,97 49,88 44,66 v 57 l -62,-13 -123,62 -155,93 -88,-31 -154,-80 -36,-13 -31,13 -44,-44 -97,-44 -75,-48 -92,-62 -106,13 -203,-154 -62,-62 110,-31 75,31 111,-31 -18,-75 -62,-97 49,-44 h 88 l 66,-44 -18,-49 -92,-62 h -93 l 13,-79 v -75 l -44,-31 -75,18 v 119 l -17,141 -75,-48 -172,-155 -53,-132 61,-84 -17,-163 9,-44 97,-31 136,-18 31,-123 -35,-27 -93,-48 -97,-49 -22,-114 58,-18 203,-13 145,-119 150,176 62,22 31,35 -14,75 349,269 79,36 97,4 58,-35 39,-35 159,-124 22,-53 106,-35 137,-13 h 110 l 66,26 111,-119 79,-84 z"
   id="path139"
   inkscape:connector-curvature="0"
   style="fill:none;stroke:#000000;stroke-width:35;stroke-linecap:round;stroke-linejoin:round" />
        <path
   d="m 12065,16005 -30,44 17,93 75,79 111,93 30,13 h 93 l 44,-31 -13,-61 -110,-93 -62,-44 -62,-31 z"
   id="path141"
   inkscape:connector-curvature="0"
   style="fill:#00ff00;stroke:none" />
        <path
   d="m 12065,16005 -30,44 17,93 75,79 111,93 30,13 h 93 l 44,-31 -13,-61 -110,-93 -62,-44 -62,-31 z"
   id="path143"
   inkscape:connector-curvature="0"
   style="fill:none;stroke:#000000;stroke-width:35;stroke-linecap:round;stroke-linejoin:round" />
        <path
   d="m 12357,18444 -14,-172 -48,-75 -13,-247 -80,-92 -137,-93 45,-48 h 92 l -13,-186 -62,-123 -123,-93 -203,-106 -62,-92 h 124 l 141,92 123,-48 -48,-75 h -62 l -31,-93 -154,-31 -137,-92 h -31 -31 l -31,-18 v -31 l 137,-62 110,18 124,62 123,31 62,-80 199,-13 h 79 l 199,13 141,-44 61,-123 -17,-93 -75,-93 -18,-92 62,-62 79,-18 137,49 h 137 l 62,-79 -14,-106 -48,-124 -106,-62 -106,-48 -123,-44 -93,-18 -93,-44 -17,-110 141,-13 106,61 216,44 137,62 110,62 106,31 141,-13 123,-31 93,-18 75,18 18,92 -124,14 -123,61 13,93 48,141 -48,124 -106,123 13,124 49,44 106,-31 48,92 v 93 l -79,49 -31,61 79,44 137,-44 49,106 -49,80 v 75 l 79,48 31,155 106,136 155,141 79,261 44,203 31,92 31,93 110,62 v 61 124 l 31,123 13,124 v 44 l -75,62 h -123 l -93,-62 -110,-75 -124,-110 -92,-62 17,-75 -31,-31 -61,-18 -31,-30 -93,-106 -31,-49 -61,62 -80,62 h -75 l -123,17 -62,14 v 30 l 31,80 62,31 74,44 80,48 v 44 l -18,49 -13,31 -93,13 -79,18 -62,13 -13,48 13,75 18,93 -62,62 -31,62 -17,61 -62,31 -137,-44 -137,-48 -154,17 -124,44 -61,-61 -31,-124 -18,-93 -13,-92 -49,-62 -75,-62 -30,-75 13,-61 h -137 l -62,-62 13,-49 62,-75 z"
   id="path145"
   inkscape:connector-curvature="0"
   style="fill:#00ff00;stroke:none" />
        <path
   d="m 12357,18444 -14,-172 -48,-75 -13,-247 -80,-92 -137,-93 45,-48 h 92 l -13,-186 -62,-123 -123,-93 -203,-106 -62,-92 h 124 l 141,92 123,-48 -48,-75 h -62 l -31,-93 -154,-31 -137,-92 h -31 -31 l -31,-18 v -31 l 137,-62 110,18 124,62 123,31 62,-80 199,-13 h 79 l 199,13 141,-44 61,-123 -17,-93 -75,-93 -18,-92 62,-62 79,-18 137,49 h 137 l 62,-79 -14,-106 -48,-124 -106,-62 -106,-48 -123,-44 -93,-18 -93,-44 -17,-110 141,-13 106,61 216,44 137,62 110,62 106,31 141,-13 123,-31 93,-18 75,18 18,92 -124,14 -123,61 13,93 48,141 -48,124 -106,123 13,124 49,44 106,-31 48,92 v 93 l -79,49 -31,61 79,44 137,-44 49,106 -49,80 v 75 l 79,48 31,155 106,136 155,141 79,261 44,203 31,92 31,93 110,62 v 61 124 l 31,123 13,124 v 44 l -75,62 h -123 l -93,-62 -110,-75 -124,-110 -92,-62 17,-75 -31,-31 -61,-18 -31,-30 -93,-106 -31,-49 -61,62 -80,62 h -75 l -123,17 -62,14 v 30 l 31,80 62,31 74,44 80,48 v 44 l -18,49 -13,31 -93,13 -79,18 -62,13 -13,48 13,75 18,93 -62,62 -31,62 -17,61 -62,31 -137,-44 -137,-48 -154,17 -124,44 -61,-61 -31,-124 -18,-93 -13,-92 -49,-62 -75,-62 -30,-75 13,-61 h -137 l -62,-62 13,-49 62,-75 z"
   id="path147"
   inkscape:connector-curvature="0"
   style="fill:none;stroke:#000000;stroke-width:35;stroke-linecap:round;stroke-linejoin:round" />
        <path
   d="m 13931,17280 18,-53 62,-154 84,-190 158,-66 106,35 84,9 97,22 35,-18 27,-57 22,-97 26,-75 62,22 111,40 145,66 119,9 h 110 l 71,22 v 39 l -110,128 -141,102 -58,84 -44,145 -18,106 120,75 101,40 102,84 -53,88 -75,79 -106,247 -36,80 18,75 93,61 110,18 88,93 111,30 v 45 44 l -111,141 -88,92 -66,-30 -230,13 -123,35 -27,57 -66,53 -97,75 -4,-150 -35,-114 v -216 l -67,-40 -53,-35 -52,-172 -31,-124 -44,-159 -49,-150 -22,-48 -93,-84 -75,-71 -70,-97 z"
   id="path149"
   inkscape:connector-curvature="0"
   style="fill:#00ff00;stroke:none" />
        <path
   d="m 13931,17280 18,-53 62,-154 84,-190 158,-66 106,35 84,9 97,22 35,-18 27,-57 22,-97 26,-75 62,22 111,40 145,66 119,9 h 110 l 71,22 v 39 l -110,128 -141,102 -58,84 -44,145 -18,106 120,75 101,40 102,84 -53,88 -75,79 -106,247 -36,80 18,75 93,61 110,18 88,93 111,30 v 45 44 l -111,141 -88,92 -66,-30 -230,13 -123,35 -27,57 -66,53 -97,75 -4,-150 -35,-114 v -216 l -67,-40 -53,-35 -52,-172 -31,-124 -44,-159 -49,-150 -22,-48 -93,-84 -75,-71 -70,-97 z"
   id="path151"
   inkscape:connector-curvature="0"
   style="fill:none;stroke:#000000;stroke-width:35;stroke-linecap:round;stroke-linejoin:round" />
        <path
   d="m 14086,16887 -44,-141 13,-123 79,-93 106,-75 49,-66 -18,-62 -62,-106 -13,-110 -18,-62 31,-31 h 80 l 62,49 -18,75 18,31 105,48 62,31 -13,62 -31,75 13,79 80,80 44,44 31,62 -31,123 -31,79 -31,31 -75,-17 -110,-14 -106,-30 -62,13 z"
   id="path153"
   inkscape:connector-curvature="0"
   style="fill:#00ff00;stroke:none" />
        <path
   d="m 14086,16887 -44,-141 13,-123 79,-93 106,-75 49,-66 -18,-62 -62,-106 -13,-110 -18,-62 31,-31 h 80 l 62,49 -18,75 18,31 105,48 62,31 -13,62 -31,75 13,79 80,80 44,44 31,62 -31,123 -31,79 -31,31 -75,-17 -110,-14 -106,-30 -62,13 z"
   id="path155"
   inkscape:connector-curvature="0"
   style="fill:none;stroke:#000000;stroke-width:35;stroke-linecap:round;stroke-linejoin:round" />
        <path
   d="m 14443,15820 62,62 -49,61 v 75 l 31,49 18,93 75,61 v 62 l 18,93 30,61 v 62 l 14,93 31,44 154,62 154,61 141,18 h 106 l 31,13 124,-75 92,-61 80,-111 75,-75 92,-48 93,-31 79,18 14,-142 -44,-154 -80,-106 -31,-79 v -62 l 31,-106 110,-110 62,-154 13,-75 -61,-62 -124,-111 -62,18 -136,-31 -203,-61 -106,-49 -185,18 -142,61 -185,106 -167,124 -155,141 -123,62 -93,31 -93,30 v 93 l -61,93 75,61 123,-48 80,-62 z"
   id="path157"
   inkscape:connector-curvature="0"
   style="fill:#00ff00;stroke:none" />
        <path
   d="m 14443,15820 62,62 -49,61 v 75 l 31,49 18,93 75,61 v 62 l 18,93 30,61 v 62 l 14,93 31,44 154,62 154,61 141,18 h 106 l 31,13 124,-75 92,-61 80,-111 75,-75 92,-48 93,-31 79,18 14,-142 -44,-154 -80,-106 -31,-79 v -62 l 31,-106 110,-110 62,-154 13,-75 -61,-62 -124,-111 -62,18 -136,-31 -203,-61 -106,-49 -185,18 -142,61 -185,106 -167,124 -155,141 -123,62 -93,31 -93,30 v 93 l -61,93 75,61 123,-48 80,-62 z"
   id="path159"
   inkscape:connector-curvature="0"
   style="fill:none;stroke:#000000;stroke-width:35;stroke-linecap:round;stroke-linejoin:round" />
        <path
   d="m 14734,15604 -75,62 -79,44 18,61 61,31 v 80 l 44,61 124,-30 93,-62 -31,-93 -62,-62 -106,-110 z"
   id="path161"
   inkscape:connector-curvature="0"
   style="fill:#8080ff;stroke:none" />
        <path
   d="m 14734,15604 -75,62 -79,44 18,61 61,31 v 80 l 44,61 124,-30 93,-62 -31,-93 -62,-62 -106,-110"
   id="path163"
   inkscape:connector-curvature="0"
   style="fill:none;stroke:#000000;stroke-width:35;stroke-linecap:round;stroke-linejoin:round" />
        <path
   d="m 10804,15604 -62,92 -31,93 -17,75 30,62 93,48 18,93 -62,62 -79,61 -31,186 31,198 92,124 49,31 123,-62 14,-62 -14,-198 31,-93 44,-93 93,-61 v -93 l -31,-62 -62,-17 -61,-14 v -92 l -45,-62 -48,-79 z"
   id="path165"
   inkscape:connector-curvature="0"
   style="fill:#00ff00;stroke:none" />
        <path
   d="m 10804,15604 -62,92 -31,93 -17,75 30,62 93,48 18,93 -62,62 -79,61 -31,186 31,198 92,124 49,31 123,-62 14,-62 -14,-198 31,-93 44,-93 93,-61 v -93 l -31,-62 -62,-17 -61,-14 v -92 l -45,-62 -48,-79 z"
   id="path167"
   inkscape:connector-curvature="0"
   style="fill:none;stroke:#000000;stroke-width:35;stroke-linecap:round;stroke-linejoin:round" />
        <path
   d="m 7747,15264 70,66 106,53 124,124 75,22 70,-18 49,-35 44,-62 79,-48 89,17 145,49 150,53 97,39 75,44 93,-17 75,-27 66,14 57,61 49,80 93,-36 75,18 30,62 27,101 35,102 13,70 -22,80 89,66 105,93 98,75 57,-31 48,-155 49,-154 88,-199 80,-123 30,-110 31,-89 -17,-128 -14,-154 -61,-168 -80,-110 -13,-88 75,-31 110,-93 93,-79 141,-106 13,-97 75,-101 93,31 106,13 -13,75 -31,62 31,75 v 97 l -120,13 -127,-13 -45,30 v 93 l 45,88 110,-13 92,-44 14,57 -14,62 -30,110 13,80 123,31 93,-49 v -123 l -18,-168 -13,-49 80,-17 75,-75 61,-44 62,31 31,88 13,123 31,97 53,44 75,-61 57,-80 v -136 l 66,-124 58,-75 154,-172 18,-106 92,-123 18,-62 v -124 l -31,-105 -17,-80 123,-62 80,-44 13,-66 -168,-167 -48,-124 -80,-93 -44,-13 h -216 l -137,44 -278,18 h -141 l -141,-18 -119,-92 -137,-155 -66,-106 -13,-92 26,-141 18,-97 -53,-36 -62,-35 -79,-13 -84,-18 -75,-31 h -75 l -66,44 -84,58 -97,66 -115,17 -48,18 -58,150 -26,71 -40,97 -92,84 h -159 -84 l -31,-18 -44,207 22,133 48,119 62,79 66,31 -22,62 -35,97 v 119 l 13,110 22,40 22,48 -30,49 -58,48 -48,75 -40,40 -75,-26 -57,-53 h -62 l -75,13 -53,48 -53,40 -75,-9 h -62 l -79,44 -53,67 -75,-5 -31,53 -66,-13 -62,-13 -62,53 -70,66 -62,-31 -18,-71 -97,53 -39,35 -128,71 35,71 66,35 44,48 66,71 75,75 45,-35 35,13 9,53 v 101 l -36,84 -92,80 h -168 l 13,57 -26,9 z"
   id="path169"
   inkscape:connector-curvature="0"
   style="fill:#00ff00;stroke:none" />
        <path
   d="m 7747,15264 70,66 106,53 124,124 75,22 70,-18 49,-35 44,-62 79,-48 89,17 145,49 150,53 97,39 75,44 93,-17 75,-27 66,14 57,61 49,80 93,-36 75,18 30,62 27,101 35,102 13,70 -22,80 89,66 105,93 98,75 57,-31 48,-155 49,-154 88,-199 80,-123 30,-110 31,-89 -17,-128 -14,-154 -61,-168 -80,-110 -13,-88 75,-31 110,-93 93,-79 141,-106 13,-97 75,-101 93,31 106,13 -13,75 -31,62 31,75 v 97 l -120,13 -127,-13 -45,30 v 93 l 45,88 110,-13 92,-44 14,57 -14,62 -30,110 13,80 123,31 93,-49 v -123 l -18,-168 -13,-49 80,-17 75,-75 61,-44 62,31 31,88 13,123 31,97 53,44 75,-61 57,-80 v -136 l 66,-124 58,-75 154,-172 18,-106 92,-123 18,-62 v -124 l -31,-105 -17,-80 123,-62 80,-44 13,-66 -168,-167 -48,-124 -80,-93 -44,-13 h -216 l -137,44 -278,18 h -141 l -141,-18 -119,-92 -137,-155 -66,-106 -13,-92 26,-141 18,-97 -53,-36 -62,-35 -79,-13 -84,-18 -75,-31 h -75 l -66,44 -84,58 -97,66 -115,17 -48,18 -58,150 -26,71 -40,97 -92,84 h -159 -84 l -31,-18 -44,207 22,133 48,119 62,79 66,31 -22,62 -35,97 v 119 l 13,110 22,40 22,48 -30,49 -58,48 -48,75 -40,40 -75,-26 -57,-53 h -62 l -75,13 -53,48 -53,40 -75,-9 h -62 l -79,44 -53,67 -75,-5 -31,53 -66,-13 -62,-13 -62,53 -70,66 -62,-31 -18,-71 -97,53 -39,35 -128,71 35,71 66,35 44,48 66,71 75,75 45,-35 35,13 9,53 v 101 l -36,84 -92,80 h -168 l 13,57 -26,9"
   id="path171"
   inkscape:connector-curvature="0"
   style="fill:none;stroke:#000000;stroke-width:35;stroke-linecap:round;stroke-linejoin:round" />
        <path
   d="m 10204,16574 31,62 -31,62 -49,31 -105,-14 -18,-61 79,-18 z"
   id="path173"
   inkscape:connector-curvature="0"
   style="fill:#00ff00;stroke:none" />
        <path
   d="m 10204,16574 31,62 -31,62 -49,31 -105,-14 -18,-61 79,-18 z"
   id="path175"
   inkscape:connector-curvature="0"
   style="fill:none;stroke:#000000;stroke-width:35;stroke-linecap:round;stroke-linejoin:round" />
        <path
   d="m 8192,18162 111,18 44,-49 97,18 57,-18 v -75 l -13,-136 -62,-98 -106,80 h -97 v -62 l 97,-62 124,-30 h 137 l 92,-80 13,-88 v -80 l 67,-30 106,30 75,-61 17,-62 31,-106 -31,-48 -110,30 h -44 l -18,-61 -13,-62 -80,-62 -88,-31 -66,14 -75,-45 -62,-44 -106,31 -66,-48 -119,-62 155,-31 185,-31 181,18 141,137 154,75 111,-27 57,-79 h 48 l 124,-31 110,-18 44,-57 -44,-80 44,-110 80,-88 13,-79 -13,-75 -49,-80 -62,-17 -79,30 h -62 l -57,-75 -49,-79 80,-13 h 106 l 136,-75 49,-18 31,-123 -31,-93 -31,-75 -26,-79 -14,-44 -53,-18 h -44 l -79,31 -44,-75 -31,-49 -66,-31 h -31 l -106,31 -62,13 -44,-30 -123,-58 -111,-31 -123,-48 -124,-31 h -48 l -58,44 -79,80 -75,30 -79,-13 -44,-48 -97,-93 -89,-44 -97,-97 h -75 l -123,-13 h -80 l -13,44 13,48 -44,18 -62,88 -48,35 79,89 62,97 13,44 -44,123 -44,75 -18,97 -48,44 -31,31 v 155 l -13,154 v 203 l 13,106 49,62 48,79 13,75 18,141 v 75 l 44,62 80,92 44,62 v 75 l 44,234 -14,110 -30,88 -31,80 -80,62 -57,31 13,61 -13,62 -18,62 18,75 93,31 75,-31 61,62 80,66 75,13 48,-13 44,-66 62,-62 93,-75 62,-18 z"
   id="path177"
   inkscape:connector-curvature="0"
   style="fill:#00ff00;stroke:none" />
        <path
   d="m 8192,18162 111,18 44,-49 97,18 57,-18 v -75 l -13,-136 -62,-98 -106,80 h -97 v -62 l 97,-62 124,-30 h 137 l 92,-80 13,-88 v -80 l 67,-30 106,30 75,-61 17,-62 31,-106 -31,-48 -110,30 h -44 l -18,-61 -13,-62 -80,-62 -88,-31 -66,14 -75,-45 -62,-44 -106,31 -66,-48 -119,-62 155,-31 185,-31 181,18 141,137 154,75 111,-27 57,-79 h 48 l 124,-31 110,-18 44,-57 -44,-80 44,-110 80,-88 13,-79 -13,-75 -49,-80 -62,-17 -79,30 h -62 l -57,-75 -49,-79 80,-13 h 106 l 136,-75 49,-18 31,-123 -31,-93 -31,-75 -26,-79 -14,-44 -53,-18 h -44 l -79,31 -44,-75 -31,-49 -66,-31 h -31 l -106,31 -62,13 -44,-30 -123,-58 -111,-31 -123,-48 -124,-31 h -48 l -58,44 -79,80 -75,30 -79,-13 -44,-48 -97,-93 -89,-44 -97,-97 h -75 l -123,-13 h -80 l -13,44 13,48 -44,18 -62,88 -48,35 79,89 62,97 13,44 -44,123 -44,75 -18,97 -48,44 -31,31 v 155 l -13,154 v 203 l 13,106 49,62 48,79 13,75 18,141 v 75 l 44,62 80,92 44,62 v 75 l 44,234 -14,110 -30,88 -31,80 -80,62 -57,31 13,61 -13,62 -18,62 18,75 93,31 75,-31 61,62 80,66 75,13 48,-13 44,-66 62,-62 93,-75 62,-18 z"
   id="path179"
   inkscape:connector-curvature="0"
   style="fill:none;stroke:#000000;stroke-width:35;stroke-linecap:round;stroke-linejoin:round" />
        <path
   d="m 7451,10174 278,13 433,-44 511,-512 155,-198 185,-278 168,-326 141,-247 167,-322 353,-62 h 141 l 309,-31 93,-18 445,-370 155,-106 123,-93 124,-48 92,17 31,62 -61,44 -508,494 44,216 80,247 136,371 -30,913 -31,62 -93,75 -62,48 -92,247 -124,230 -92,123 -75,172 -49,124 -168,-80 -79,-75 -185,-141 -137,-137 -110,-79 -62,18 -137,44 -141,48 h -106 l -75,-61 -48,-62 -93,-111 h -123 l -106,31 -93,62 -185,80 -216,123 -124,13 -93,62 -154,62 -110,48 h -93 l -106,-92 -79,-111 -62,-61 -13,-75 -110,-31 -31,-62 -44,-79 123,-137 z"
   id="path181"
   inkscape:connector-curvature="0"
   style="fill:#00ff00;stroke:none" />
        <path
   d="m 7451,10174 278,13 433,-44 511,-512 155,-198 185,-278 168,-326 141,-247 167,-322 353,-62 h 141 l 309,-31 93,-18 445,-370 155,-106 123,-93 124,-48 92,17 31,62 -61,44 -508,494 44,216 80,247 136,371 -30,913 -31,62 -93,75 -62,48 -92,247 -124,230 -92,123 -75,172 -49,124 -168,-80 -79,-75 -185,-141 -137,-137 -110,-79 -62,18 -137,44 -141,48 h -106 l -75,-61 -48,-62 -93,-111 h -123 l -106,31 -93,62 -185,80 -216,123 -124,13 -93,62 -154,62 -110,48 h -93 l -106,-92 -79,-111 -62,-61 -13,-75 -110,-31 -31,-62 -44,-79 123,-137"
   id="path183"
   inkscape:connector-curvature="0"
   style="fill:none;stroke:#000000;stroke-width:35;stroke-linecap:round;stroke-linejoin:round" />
        <path
   d="m 8192,10800 -194,177 -176,150 -106,57 -93,221 44,123 18,75 -18,110 -61,124 -14,92 31,62 h 62 l 62,106 -31,124 -79,127 -45,45 h 230 l 18,198 30,110 71,-31 44,-97 -22,-88 -13,-282 84,-75 128,35 207,31 265,88 26,58 49,260 -36,128 -13,119 154,4 75,18 172,141 h 137 124 l 110,-93 75,-216 44,-92 49,-18 105,-13 111,-75 92,-66 75,-31 155,48 141,18 110,75 44,-62 -61,-154 -62,-278 v -251 l -44,-199 92,-296 14,-105 22,-133 -119,-66 -177,-128 -190,-150 -88,-84 -106,-92 -163,70 -154,40 -128,9 -75,-31 -93,-106 -70,-92 h -128 l -106,79 -111,40 -136,61 -208,102 z"
   id="path185"
   inkscape:connector-curvature="0"
   style="fill:#00ff00;stroke:none" />
        <path
   d="m 8192,10800 -194,177 -176,150 -106,57 -93,221 44,123 18,75 -18,110 -61,124 -14,92 31,62 h 62 l 62,106 -31,124 -79,127 -45,45 h 230 l 18,198 30,110 71,-31 44,-97 -22,-88 -13,-282 84,-75 128,35 207,31 265,88 26,58 49,260 -36,128 -13,119 154,4 75,18 172,141 h 137 124 l 110,-93 75,-216 44,-92 49,-18 105,-13 111,-75 92,-66 75,-31 155,48 141,18 110,75 44,-62 -61,-154 -62,-278 v -251 l -44,-199 92,-296 14,-105 22,-133 -119,-66 -177,-128 -190,-150 -88,-84 -106,-92 -163,70 -154,40 -128,9 -75,-31 -93,-106 -70,-92 h -128 l -106,79 -111,40 -136,61 -208,102 z"
   id="path187"
   inkscape:connector-curvature="0"
   style="fill:none;stroke:#000000;stroke-width:35;stroke-linecap:round;stroke-linejoin:round" />
        <path
   d="m 12114,9750 h -124 l -92,80 v 106 l 106,110 110,13 93,-31 13,-123 18,-75 105,-49 h 93 l 124,-31 61,-61 -75,-62 h -154 l -49,-13 -136,44 z"
   id="path189"
   inkscape:connector-curvature="0"
   style="fill:#00ff00;stroke:none" />
        <path
   d="m 12114,9750 h -124 l -92,80 v 106 l 106,110 110,13 93,-31 13,-123 18,-75 105,-49 h 93 l 124,-31 61,-61 -75,-62 h -154 l -49,-13 -136,44 z"
   id="path191"
   inkscape:connector-curvature="0"
   style="fill:none;stroke:#000000;stroke-width:35;stroke-linecap:round;stroke-linejoin:round" />
        <path
   d="m 15983,17002 -93,-48 -101,-31 -67,26 -83,84 v 132 l 53,133 70,92 88,13 27,67 70,-58 102,-53 57,14 v -128 l -4,-133 z"
   id="path193"
   inkscape:connector-curvature="0"
   style="fill:#00ff00;stroke:none" />
        <path
   d="m 15983,17002 -93,-48 -101,-31 -67,26 -83,84 v 132 l 53,133 70,92 88,13 27,67 70,-58 102,-53 57,14 v -128 l -4,-133 z"
   id="path195"
   inkscape:connector-curvature="0"
   style="fill:none;stroke:#000000;stroke-width:35;stroke-linecap:round;stroke-linejoin:round" />
        <path
   d="m 15153,17703 124,-30 62,-142 -31,-61 31,-62 92,18 80,-18 106,-31 61,-79 -39,-120 -5,-145 97,-84 62,-26 97,39 110,44 18,-44 -18,-97 -44,-26 -31,-49 44,-61 49,-75 -31,-111 -75,-88 -31,-53 -48,-9 -49,9 -79,31 -88,35 -133,177 -88,66 -119,66 -5,66 -101,111 -154,119 -62,88 -35,145 -14,93 89,57 127,62 98,75 z"
   id="path197"
   inkscape:connector-curvature="0"
   style="fill:#00ff00;stroke:none" />
        <path
   d="m 15153,17703 124,-30 62,-142 -31,-61 31,-62 92,18 80,-18 106,-31 61,-79 -39,-120 -5,-145 97,-84 62,-26 97,39 110,44 18,-44 -18,-97 -44,-26 -31,-49 44,-61 49,-75 -31,-111 -75,-88 -31,-53 -48,-9 -49,9 -79,31 -88,35 -133,177 -88,66 -119,66 -5,66 -101,111 -154,119 -62,88 -35,145 -14,93 89,57 127,62 98,75 z"
   id="path199"
   inkscape:connector-curvature="0"
   style="fill:none;stroke:#000000;stroke-width:35;stroke-linecap:round;stroke-linejoin:round" />
        <path
   d="m 16388,17192 -70,48 -40,49 13,97 27,84 70,-18 53,48 53,-97 -26,-114 z"
   id="path201"
   inkscape:connector-curvature="0"
   style="fill:#00ff00;stroke:none" />
        <path
   d="m 16388,17192 -70,48 -40,49 13,97 27,84 70,-18 53,48 53,-97 -26,-114 z"
   id="path203"
   inkscape:connector-curvature="0"
   style="fill:none;stroke:#000000;stroke-width:35;stroke-linecap:round;stroke-linejoin:round" />
        <path
   d="m 15828,17492 119,-89 93,-44 66,18 9,194 -106,106 -132,57 -49,-17 z"
   id="path205"
   inkscape:connector-curvature="0"
   style="fill:#00ff00;stroke:none" />
        <path
   d="m 15828,17492 119,-89 93,-44 66,18 9,194 -106,106 -132,57 -49,-17 z"
   id="path207"
   inkscape:connector-curvature="0"
   style="fill:none;stroke:#000000;stroke-width:35;stroke-linecap:round;stroke-linejoin:round" />
       </g>
      </g>
     </g>
    </g>
   </g>
  </g>
 </g>
</svg>