<?xml version="1.0" encoding="UTF-8" standalone="no"?>
<svg
   xmlns:ooo="http://xml.openoffice.org/svg/export"
   xmlns:dc="http://purl.org/dc/elements/1.1/"
   xmlns:cc="http://creativecommons.org/ns#"
   xmlns:rdf="http://www.w3.org/1999/02/22-rdf-syntax-ns#"
   xmlns:svg="http://www.w3.org/2000/svg"
   xmlns="http://www.w3.org/2000/svg"
   xmlns:sodipodi="http://sodipodi.sourceforge.net/DTD/sodipodi-0.dtd"
   xmlns:inkscape="http://www.inkscape.org/namespaces/inkscape"
   version="1.2"
   width="135.95mm"
   height="86.610001mm"
   viewBox="0 0 13595 8661.0001"
   preserveAspectRatio="xMidYMid"
   xml:space="preserve"
   id="svg259"
   sodipodi:docname="dollars.svg"
   style="fill-rule:evenodd;stroke-width:28.22200012;stroke-linejoin:round"
   inkscape:version="0.92.5 (2060ec1f9f, 2020-04-08)"><metadata
   id="metadata263"><rdf:RDF><cc:Work
       rdf:about=""><dc:format>image/svg+xml</dc:format><dc:type
         rdf:resource="http://purl.org/dc/dcmitype/StillImage" /></cc:Work></rdf:RDF></metadata><sodipodi:namedview
   pagecolor="#ffffff"
   bordercolor="#666666"
   borderopacity="1"
   objecttolerance="10"
   gridtolerance="10"
   guidetolerance="10"
   inkscape:pageopacity="0"
   inkscape:pageshadow="2"
   inkscape:window-width="664"
   inkscape:window-height="487"
   id="namedview261"
   showgrid="false"
   inkscape:zoom="0.2102413"
   inkscape:cx="256.93228"
   inkscape:cy="163.65354"
   inkscape:window-x="0"
   inkscape:window-y="0"
   inkscape:window-maximized="0"
   inkscape:current-layer="svg259" />
 <defs
   class="ClipPathGroup"
   id="defs8">
  <clipPath
   id="presentation_clip_path"
   clipPathUnits="userSpaceOnUse">
   <rect
   x="0"
   y="0"
   width="21000"
   height="29700"
   id="rect2" />
  </clipPath>
  <clipPath
   id="presentation_clip_path_shrink"
   clipPathUnits="userSpaceOnUse">
   <rect
   x="21"
   y="29"
   width="20958"
   height="29641"
   id="rect5" />
  </clipPath>
 </defs>
 <defs
   class="TextShapeIndex"
   id="defs12">
  <g
   ooo:slide="id1"
   ooo:id-list="id3"
   id="g10" />
 </defs>
 <defs
   class="EmbeddedBulletChars"
   id="defs44">
  <g
   id="bullet-char-template-57356"
   transform="matrix(4.8828125e-4,0,0,-4.8828125e-4,0,0)">
   <path
   d="M 580,1141 1163,571 580,0 -4,571 Z"
   id="path14"
   inkscape:connector-curvature="0" />
  </g>
  <g
   id="bullet-char-template-57354"
   transform="matrix(4.8828125e-4,0,0,-4.8828125e-4,0,0)">
   <path
   d="M 8,1128 H 1137 V 0 H 8 Z"
   id="path17"
   inkscape:connector-curvature="0" />
  </g>
  <g
   id="bullet-char-template-10146"
   transform="matrix(4.8828125e-4,0,0,-4.8828125e-4,0,0)">
   <path
   d="M 174,0 602,739 174,1481 1456,739 Z M 1358,739 309,1346 659,739 Z"
   id="path20"
   inkscape:connector-curvature="0" />
  </g>
  <g
   id="bullet-char-template-10132"
   transform="matrix(4.8828125e-4,0,0,-4.8828125e-4,0,0)">
   <path
   d="M 2015,739 1276,0 H 717 l 543,543 H 174 v 393 h 1086 l -543,545 h 557 z"
   id="path23"
   inkscape:connector-curvature="0" />
  </g>
  <g
   id="bullet-char-template-10007"
   transform="matrix(4.8828125e-4,0,0,-4.8828125e-4,0,0)">
   <path
   d="m 0,-2 c -7,16 -16,29 -25,39 l 381,530 c -94,256 -141,385 -141,387 0,25 13,38 40,38 9,0 21,-2 34,-5 21,4 42,12 65,25 l 27,-13 111,-251 280,301 64,-25 24,25 c 21,-10 41,-24 62,-43 C 886,937 835,863 770,784 769,783 710,716 594,584 L 774,223 c 0,-27 -21,-55 -63,-84 l 16,-20 C 717,90 699,76 672,76 641,76 570,178 457,381 L 164,-76 c -22,-34 -53,-51 -92,-51 -42,0 -63,17 -64,51 -7,9 -10,24 -10,44 0,9 1,19 2,30 z"
   id="path26"
   inkscape:connector-curvature="0" />
  </g>
  <g
   id="bullet-char-template-10004"
   transform="matrix(4.8828125e-4,0,0,-4.8828125e-4,0,0)">
   <path
   d="M 285,-33 C 182,-33 111,30 74,156 52,228 41,333 41,471 c 0,78 14,145 41,201 34,71 87,106 158,106 53,0 88,-31 106,-94 l 23,-176 c 8,-64 28,-97 59,-98 l 735,706 c 11,11 33,17 66,17 42,0 63,-15 63,-46 V 965 c 0,-36 -10,-64 -30,-84 L 442,47 C 390,-6 338,-33 285,-33 Z"
   id="path29"
   inkscape:connector-curvature="0" />
  </g>
  <g
   id="bullet-char-template-9679"
   transform="matrix(4.8828125e-4,0,0,-4.8828125e-4,0,0)">
   <path
   d="M 813,0 C 632,0 489,54 383,161 276,268 223,411 223,592 c 0,181 53,324 160,431 106,107 249,161 430,161 179,0 323,-54 432,-161 108,-107 162,-251 162,-431 0,-180 -54,-324 -162,-431 C 1136,54 992,0 813,0 Z"
   id="path32"
   inkscape:connector-curvature="0" />
  </g>
  <g
   id="bullet-char-template-8226"
   transform="matrix(4.8828125e-4,0,0,-4.8828125e-4,0,0)">
   <path
   d="m 346,457 c -73,0 -137,26 -191,78 -54,51 -81,114 -81,188 0,73 27,136 81,188 54,52 118,78 191,78 73,0 134,-26 185,-79 51,-51 77,-114 77,-187 0,-75 -25,-137 -76,-188 -50,-52 -112,-78 -186,-78 z"
   id="path35"
   inkscape:connector-curvature="0" />
  </g>
  <g
   id="bullet-char-template-8211"
   transform="matrix(4.8828125e-4,0,0,-4.8828125e-4,0,0)">
   <path
   d="M -4,459 H 1135 V 606 H -4 Z"
   id="path38"
   inkscape:connector-curvature="0" />
  </g>
  <g
   id="bullet-char-template-61548"
   transform="matrix(4.8828125e-4,0,0,-4.8828125e-4,0,0)">
   <path
   d="m 173,740 c 0,163 58,303 173,419 116,115 255,173 419,173 163,0 302,-58 418,-173 116,-116 174,-256 174,-419 0,-163 -58,-303 -174,-418 C 1067,206 928,148 765,148 601,148 462,206 346,322 231,437 173,577 173,740 Z"
   id="path41"
   inkscape:connector-curvature="0" />
  </g>
 </defs>
 <g
   id="g49"
   transform="translate(-3702,-10519)">
  <g
   id="id2"
   class="Master_Slide">
   <g
   id="bg-id2"
   class="Background" />
   <g
   id="bo-id2"
   class="BackgroundObjects" />
  </g>
 </g>
 <g
   class="SlideGroup"
   id="g257"
   transform="translate(-3702,-10519)">
  <g
   id="g255">
   <g
   id="container-id1">
    <g
   id="id1"
   class="Slide"
   clip-path="url(#presentation_clip_path)">
     <g
   class="Page"
   id="g251">
      <g
   class="Graphic"
   id="g249">
       <g
   id="id3">
        <rect
   class="BoundingBox"
   x="3702"
   y="10519"
   width="13595"
   height="8661"
   id="rect51"
   style="fill:none;stroke:none" />
        <defs
   id="defs56">
         <clipPath
   id="clip_path_1"
   clipPathUnits="userSpaceOnUse">
          <path
   d="m 3715,10523 h 13581 v 8638 H 3715 Z"
   id="path53"
   inkscape:connector-curvature="0" />
         </clipPath>
        </defs>
        <g
   clip-path="url(#clip_path_1)"
   id="g246">
         <path
   d="m 3751,13113 h 13520 l -336,-2554 H 4081 Z"
   id="path58"
   inkscape:connector-curvature="0"
   style="fill:#bfffbf;stroke:none" />
         <path
   d="m 3751,13113 h 13520 l -336,-2554 H 4081 Z"
   id="path60"
   inkscape:connector-curvature="0"
   style="fill:none;stroke:#5fc000;stroke-width:35;stroke-linecap:round;stroke-linejoin:round" />
         <path
   d="m 4081,12963 h 12912 l -243,-2254 H 4346 Z"
   id="path62"
   inkscape:connector-curvature="0"
   style="fill:#008000;stroke:none" />
         <path
   d="m 4822,10828 h 11372 l 225,1954 H 4655 Z"
   id="path64"
   inkscape:connector-curvature="0"
   style="fill:#bfffbf;stroke:none" />
         <path
   d="m 4822,10828 h 11372 l 225,1954 H 4655 Z"
   id="path66"
   inkscape:connector-curvature="0"
   style="fill:none;stroke:#dfffbf;stroke-width:71;stroke-linecap:round;stroke-linejoin:round" />
         <path
   d="m 9313,12725 -207,-48 -212,-71 -146,-97 137,9 185,44 128,62 z"
   id="path68"
   inkscape:connector-curvature="0"
   style="fill:#3f5f00;stroke:none" />
         <path
   d="m 9339,12694 -185,-75 -115,-66 -61,-57 -71,-75 146,35 106,44 97,53 70,71 z"
   id="path70"
   inkscape:connector-curvature="0"
   style="fill:#3f5f00;stroke:none" />
         <path
   d="m 9269,12743 -199,-22 -203,-36 -145,-57 145,4 172,22 115,36 z"
   id="path72"
   inkscape:connector-curvature="0"
   style="fill:#3f5f00;stroke:none" />
         <path
   d="m 11695,12734 207,-44 212,-75 150,-102 -137,14 -189,39 -124,66 z"
   id="path74"
   inkscape:connector-curvature="0"
   style="fill:#3f5f00;stroke:none" />
         <path
   d="m 11673,12703 181,-79 119,-67 57,-57 71,-71 -141,36 -111,39 -97,58 -70,66 z"
   id="path76"
   inkscape:connector-curvature="0"
   style="fill:#3f5f00;stroke:none" />
         <path
   d="m 11743,12752 195,-27 207,-35 141,-58 -141,5 -172,17 -119,36 z"
   id="path78"
   inkscape:connector-curvature="0"
   style="fill:#3f5f00;stroke:none" />
         <path
   d="m 8934,11212 h 1513 v 348 H 9366 v -181 l -18,-31 -39,-13 -67,-9 h -308 z"
   id="path80"
   inkscape:connector-curvature="0"
   style="fill:#008000;stroke:none" />
         <path
   d="m 8934,11212 h 1513 v 348 H 9366 v -181 l -18,-31 -39,-13 -67,-9 h -308 z"
   id="path82"
   inkscape:connector-curvature="0"
   style="fill:none;stroke:#3f5f00;stroke-width:71;stroke-linecap:round;stroke-linejoin:round" />
         <path
   d="m 12039,11212 h -1513 v 348 h 1081 v -181 l 17,-31 40,-13 66,-9 h 309 z"
   id="path84"
   inkscape:connector-curvature="0"
   style="fill:#008000;stroke:none" />
         <path
   d="m 12039,11212 h -1513 v 348 h 1081 v -181 l 17,-31 40,-13 66,-9 h 309 z"
   id="path86"
   inkscape:connector-curvature="0"
   style="fill:none;stroke:#3f5f00;stroke-width:71;stroke-linecap:round;stroke-linejoin:round" />
         <path
   d="m 12029,12069 c 0,159 -71,315 -205,453 -134,138 -327,252 -560,332 -233,79 -496,121 -765,121 -269,0 -532,-42 -765,-121 -233,-80 -426,-194 -560,-332 -134,-138 -205,-294 -205,-453 0,-159 71,-315 205,-453 134,-138 327,-252 560,-332 233,-79 496,-121 765,-121 269,0 532,42 765,121 233,80 426,194 560,332 134,138 205,294 205,453 z"
   id="path88"
   inkscape:connector-curvature="0"
   style="fill:#3f5f00;stroke:none" />
         <path
   d="m 12026,12068 -2,-46 -6,-45 -10,-46 -13,-45 -18,-45 -21,-44 -25,-43 -29,-42 -32,-42 -36,-41 -40,-39 -42,-38 -46,-37 -49,-36 -52,-34 -55,-32 -58,-31 -60,-29 -62,-27 -65,-25 -67,-23 -69,-22 -70,-19 -72,-17 -74,-15 -74,-12 -76,-10 -76,-9 -77,-5 -77,-4 -78,-1 v 0 l -78,1 -77,4 -77,5 -76,9 -76,10 -74,12 -74,15 -72,17 -70,19 -69,22 -67,23 -65,25 -62,27 -60,29 -58,31 -55,32 -52,34 -49,36 -46,37 -42,38 -40,39 -36,41 -32,42 -29,42 -25,43 -21,44 -18,45 -13,45 -10,46 -6,45 -2,46 v 0 l 2,46 6,45 10,46 13,45 18,45 21,44 25,43 29,42 32,42 36,41 40,39 42,38 46,37 49,36 52,34 55,32 58,31 60,29 62,27 65,25 67,23 69,22 70,19 72,17 74,15 74,12 76,10 76,9 77,5 77,4 78,1 v 0 l 78,-1 77,-4 77,-5 76,-9 76,-10 74,-12 74,-15 72,-17 70,-19 69,-22 67,-23 65,-25 62,-27 60,-29 58,-31 55,-32 52,-34 49,-36 46,-37 42,-38 40,-39 36,-41 32,-42 29,-42 25,-43 21,-44 18,-45 13,-45 10,-46 6,-45 z"
   id="path90"
   inkscape:connector-curvature="0"
   style="fill:none;stroke:#dfffbf;stroke-width:71;stroke-linecap:round;stroke-linejoin:round" />
         <path
   d="m 10910,12169 203,31 13,88 251,49 313,31 173,35 -23,35 -48,53 -62,53 -48,49 -62,39 -66,58 -111,53 -97,53 -300,-459 -127,-58 z"
   id="path92"
   inkscape:connector-curvature="0"
   style="fill:#008000;stroke:none" />
         <path
   d="m 11355,12791 h -586 -261 v -137 l -110,-163 -132,-172 17,-97 -172,-53 -83,-84 163,49 167,35 186,18 92,13 h 80 l 123,-13 80,-18 8,110 124,71 181,265 z"
   id="path94"
   inkscape:connector-curvature="0"
   style="fill:#dfffbf;stroke:none" />
         <path
   d="m 9979,12015 -18,-102 -97,-114 -35,-173 176,-185 239,-70 300,-36 264,-9 208,58 167,145 49,115 -9,155 -27,114 -17,53 -40,44 -66,44 -79,22 -84,14 4,79 -70,18 -102,13 h -194 l -150,-31 -225,-44 -145,-40 z"
   id="path96"
   inkscape:connector-curvature="0"
   style="fill:#bfffbf;stroke:none" />
         <path
   d="m 10142,11684 75,119 40,84 53,75 88,70 31,14 62,22 61,13 84,18 58,4 48,4 h 66 l 66,-4 -66,31 -128,35 -83,40 -53,40 -62,26 -132,9 -177,4 -269,-88 -75,-75 106,-150 57,-154 z"
   id="path98"
   inkscape:connector-curvature="0"
   style="fill:#3f5f00;stroke:none" />
         <path
   d="m 10694,11913 30,-9 h 53 49 48 l 53,-4 40,4 h 40 l 31,9 -53,13 -93,9 h -106 l -57,-9 z"
   id="path100"
   inkscape:connector-curvature="0"
   style="fill:#3f5f00;stroke:none" />
         <path
   d="m 10760,11829 -44,-13 h -5 l -13,13 v 0 l 26,14 h 36 l 48,4 h 36 l 35,4 40,5 30,-9 22,-9 9,-9 h -26 l -22,5 -18,-5 h -31 -26 l -18,-8 -40,8 z"
   id="path102"
   inkscape:connector-curvature="0"
   style="fill:#3f5f00;stroke:none" />
         <path
   d="m 10407,11631 53,-18 70,-17 80,-5 84,5 61,17 53,22 22,62 22,49 18,61 -48,-8 -45,-14 -61,14 31,-62 30,-58 -8,-30 -58,-27 -137,-4 z"
   id="path104"
   inkscape:connector-curvature="0"
   style="fill:#3f5f00;stroke:none" />
         <path
   d="m 10852,11640 75,-27 67,-17 97,4 88,18 40,17 -9,5 -80,-14 -97,-8 -106,13 z"
   id="path106"
   inkscape:connector-curvature="0"
   style="fill:#3f5f00;stroke:none" />
         <path
   d="m 10508,11657 36,-8 h 53 39 l 53,4 31,9 -48,13 -62,4 -62,-4 z"
   id="path108"
   inkscape:connector-curvature="0"
   style="fill:#3f5f00;stroke:none" />
         <path
   d="m 11135,11657 -31,-8 -58,-5 h -39 l -58,5 -26,13 53,9 53,4 62,-4 z"
   id="path110"
   inkscape:connector-curvature="0"
   style="fill:#3f5f00;stroke:none" />
         <path
   d="m 10442,11291 -225,5 -189,48 -230,71 -141,114 -97,89 -119,61 -58,49 75,71 102,39 163,36 190,35 79,35 199,40 92,-18 -44,-212 53,-167 106,-115 176,-66 120,-22 132,9 132,22 133,48 53,35 52,49 14,49 -27,35 v 48 l 40,89 -27,53 v 61 l 159,9 106,-26 57,-49 -39,-97 -93,-88 -141,-102 -79,-83 -93,-67 -93,-35 -119,-31 -264,-40 z"
   id="path112"
   inkscape:connector-curvature="0"
   style="fill:#9fff9f;stroke:none" />
         <path
   d="m 9961,11922 18,110 88,102 124,66 114,40 -22,79 106,128 115,163 44,181 h -856 l -101,-35 -106,-62 -102,-70 -97,-80 -97,-92 -66,-102 -26,-75 -18,-44 h 199 l 150,-13 180,-67 146,-83 z"
   id="path114"
   inkscape:connector-curvature="0"
   style="fill:#008000;stroke:none" />
         <path
   d="m 7703,12663 h 5615 l 58,349 H 7650 Z"
   id="path116"
   inkscape:connector-curvature="0"
   style="fill:#008000;stroke:none" />
         <path
   d="m 7703,12663 h 5615 l 58,349 H 7650 Z"
   id="path118"
   inkscape:connector-curvature="0"
   style="fill:none;stroke:#bfffbf;stroke-width:35;stroke-linecap:round;stroke-linejoin:round" />
         <path
   d="m 6635,10898 h 7755 l 27,177 -7839,-31 z"
   id="path120"
   inkscape:connector-curvature="0"
   style="fill:#008000;stroke:none" />
         <path
   d="m 7504,10607 h 5989 v 268 H 7504 Z"
   id="path122"
   inkscape:connector-curvature="0"
   style="fill:#008000;stroke:none" />
         <path
   d="m 7504,10607 h 5989 v 268 H 7504 Z"
   id="path124"
   inkscape:connector-curvature="0"
   style="fill:none;stroke:#dfffbf;stroke-width:71;stroke-linecap:round;stroke-linejoin:round" />
         <path
   d="m 5603,11093 -35,-49 -31,-66 -18,-71 36,-79 70,-88 97,79 58,62 26,70 -18,84 -22,62 -30,35 61,-35 106,-49 106,-26 93,-26 123,-14 102,-4 -49,53 -44,62 -101,53 -89,26 -141,22 h -132 l 150,35 101,36 53,35 44,44 5,35 26,58 -176,-27 -106,-31 -62,-39 -84,-75 75,70 27,71 13,48 -22,67 -4,48 -155,-62 -75,-79 -26,-88 44,-89 4,-75 v -35 z"
   id="path126"
   inkscape:connector-curvature="0"
   style="fill:#008000;stroke:none" />
         <path
   d="m 5603,11093 -35,-49 -31,-66 -18,-71 36,-79 70,-88 97,79 58,62 26,70 -18,84 -22,62 -30,35 61,-35 106,-49 106,-26 93,-26 123,-14 102,-4 -49,53 -44,62 -101,53 -89,26 -141,22 h -132 l 150,35 101,36 53,35 44,44 5,35 26,58 -176,-27 -106,-31 -62,-39 -84,-75 75,70 27,71 13,48 -22,67 -4,48 -155,-62 -75,-79 -26,-88 44,-89 4,-75 v -35 z"
   id="path128"
   inkscape:connector-curvature="0"
   style="fill:none;stroke:#bfffbf;stroke-width:35;stroke-linecap:round;stroke-linejoin:round" />
         <path
   d="m 4408,11000 -102,-35 -53,-36 -44,-39 -9,-36 -22,-57 172,26 111,36 57,35 84,71 -71,-67 -26,-70 -13,-53 22,-66 4,-49 141,71 75,75 22,88 5,141 -177,9 z"
   id="path130"
   inkscape:connector-curvature="0"
   style="fill:#008000;stroke:none" />
         <path
   d="m 4408,11000 -102,-35 -53,-36 -44,-39 -9,-36 -22,-57 172,26 111,36 57,35 84,71 -71,-67 -26,-70 -13,-53 22,-66 4,-49 141,71 75,75 22,88 5,141 -177,9 z"
   id="path132"
   inkscape:connector-curvature="0"
   style="fill:none;stroke:#bfffbf;stroke-width:35;stroke-linecap:round;stroke-linejoin:round" />
         <path
   d="m 5624,11158 c 0,80 -30,158 -86,227 -56,69 -136,126 -233,166 -98,40 -208,61 -320,61 -112,0 -222,-21 -319,-61 -98,-40 -178,-97 -234,-166 -56,-69 -86,-147 -86,-227 0,-80 30,-158 86,-227 56,-69 136,-126 234,-166 97,-40 207,-61 319,-61 112,0 222,21 320,61 97,40 177,97 233,166 56,69 86,147 86,227 z"
   id="path134"
   inkscape:connector-curvature="0"
   style="fill:#008000;stroke:none" />
         <path
   d="m 5621,11154 -1,-23 -2,-23 -4,-23 -6,-22 -7,-23 -9,-22 -11,-22 -12,-21 -13,-21 -15,-20 -17,-20 -18,-19 -19,-19 -20,-18 -22,-17 -23,-16 -24,-15 -25,-15 -26,-14 -27,-12 -28,-12 -29,-11 -30,-9 -30,-9 -30,-7 -32,-7 -31,-5 -32,-4 -32,-3 -33,-1 -32,-1 v 0 l -32,1 -33,1 -32,3 -32,4 -31,5 -32,7 -30,7 -30,9 -30,9 -29,11 -28,12 -27,12 -26,14 -25,15 -24,15 -23,16 -22,17 -20,18 -19,19 -18,19 -17,20 -15,20 -13,21 -12,21 -11,22 -9,22 -7,23 -6,22 -4,23 -2,23 -1,23 v 0 l 1,23 2,23 4,23 6,22 7,23 9,22 11,22 12,21 13,21 15,20 17,20 18,19 19,19 20,18 22,17 23,16 24,15 25,15 26,14 27,12 28,12 29,11 30,9 30,9 30,7 32,7 31,5 32,4 32,3 33,1 32,1 v 0 l 32,-1 33,-1 32,-3 32,-4 31,-5 32,-7 30,-7 30,-9 30,-9 29,-11 28,-12 27,-12 26,-14 25,-15 24,-15 23,-16 22,-17 20,-18 19,-19 18,-19 17,-20 15,-20 13,-21 12,-21 11,-22 9,-22 7,-23 6,-22 4,-23 2,-23 z"
   id="path136"
   inkscape:connector-curvature="0"
   style="fill:none;stroke:#9fff9f;stroke-width:71;stroke-linecap:round;stroke-linejoin:round" />
         <path
   d="m 4668,10934 h 49 l 57,-9 44,-9 31,-13 31,-13 h 322 v 397 l 17,26 27,13 57,14 h 44 v 22 h -701 v -22 h 40 l 61,-14 27,-13 18,-26 v -300 l -18,-14 -27,-13 -44,-9 h -35 z"
   id="path138"
   inkscape:connector-curvature="0"
   style="fill:#bfffbf;stroke:none" />
         <path
   d="m 4668,10934 h 49 l 57,-9 44,-9 31,-13 31,-13 h 322 v 397 l 17,26 27,13 57,14 h 44 v 22 h -701 v -22 h 40 l 61,-14 27,-13 18,-26 v -300 l -18,-14 -27,-13 -44,-9 h -35 z"
   id="path140"
   inkscape:connector-curvature="0"
   style="fill:none;stroke:#3f5f00;stroke-width:71;stroke-linecap:round;stroke-linejoin:round" />
         <path
   d="m 15440,11093 40,-49 26,-66 18,-71 -40,-79 -71,-88 -97,79 -53,62 -22,70 9,84 27,62 35,35 -66,-35 -102,-49 -110,-26 -93,-26 -127,-14 -102,-4 49,53 48,62 102,53 83,26 150,22 h 128 l -150,35 -101,36 -49,35 -48,44 -9,35 -22,58 172,-27 110,-31 58,-39 83,-75 -70,70 -27,71 -8,48 17,67 v 48 l 155,-62 79,-79 26,-88 -39,-89 -5,-75 -4,-35 z"
   id="path142"
   inkscape:connector-curvature="0"
   style="fill:#008000;stroke:none" />
         <path
   d="m 15440,11093 40,-49 26,-66 18,-71 -40,-79 -71,-88 -97,79 -53,62 -22,70 9,84 27,62 35,35 -66,-35 -102,-49 -110,-26 -93,-26 -127,-14 -102,-4 49,53 48,62 102,53 83,26 150,22 h 128 l -150,35 -101,36 -49,35 -48,44 -9,35 -22,58 172,-27 110,-31 58,-39 83,-75 -70,70 -27,71 -8,48 17,67 v 48 l 155,-62 79,-79 26,-88 -39,-89 -5,-75 -4,-35 z"
   id="path144"
   inkscape:connector-curvature="0"
   style="fill:none;stroke:#bfffbf;stroke-width:35;stroke-linecap:round;stroke-linejoin:round" />
         <path
   d="m 16635,11000 102,-35 48,-36 49,-39 4,-36 27,-57 -172,26 -111,36 -57,35 -88,71 75,-67 22,-70 18,-53 -23,-66 -4,-49 -141,71 -79,75 -18,88 -5,141 177,9 z"
   id="path146"
   inkscape:connector-curvature="0"
   style="fill:#008000;stroke:none" />
         <path
   d="m 16635,11000 102,-35 48,-36 49,-39 4,-36 27,-57 -172,26 -111,36 -57,35 -88,71 75,-67 22,-70 18,-53 -23,-66 -4,-49 -141,71 -79,75 -18,88 -5,141 177,9 z"
   id="path148"
   inkscape:connector-curvature="0"
   style="fill:none;stroke:#bfffbf;stroke-width:35;stroke-linecap:round;stroke-linejoin:round" />
         <path
   d="m 16670,11158 c 0,80 -30,158 -86,227 -57,69 -138,126 -236,166 -98,40 -209,61 -321,61 -113,0 -224,-21 -322,-61 -98,-40 -179,-97 -236,-166 -56,-69 -86,-147 -86,-227 0,-80 30,-158 86,-227 57,-69 138,-126 236,-166 98,-40 209,-61 322,-61 112,0 223,21 321,61 98,40 179,97 236,166 56,69 86,147 86,227 z"
   id="path150"
   inkscape:connector-curvature="0"
   style="fill:#008000;stroke:none" />
         <path
   d="m 16666,11154 -1,-23 -2,-23 -4,-23 -6,-22 -8,-23 -9,-22 -10,-22 -12,-21 -14,-21 -15,-20 -16,-20 -18,-19 -20,-19 -20,-18 -22,-17 -23,-16 -25,-15 -25,-15 -26,-14 -27,-12 -28,-12 -29,-11 -30,-9 -30,-9 -31,-7 -32,-7 -31,-5 -32,-4 -33,-3 -32,-1 -33,-1 v 0 l -33,1 -32,1 -33,3 -32,4 -31,5 -32,7 -31,7 -30,9 -30,9 -29,11 -28,12 -27,12 -26,14 -25,15 -25,15 -23,16 -22,17 -20,18 -20,19 -18,19 -16,20 -15,20 -14,21 -12,21 -10,22 -9,22 -8,23 -6,22 -4,23 -2,23 -1,23 v 0 l 1,23 2,23 4,23 6,22 8,23 9,22 10,22 12,21 14,21 15,20 16,20 18,19 20,19 20,18 22,17 23,16 25,15 25,15 26,14 27,12 28,12 29,11 30,9 30,9 31,7 32,7 31,5 32,4 33,3 32,1 33,1 v 0 l 33,-1 32,-1 33,-3 32,-4 31,-5 32,-7 31,-7 30,-9 30,-9 29,-11 28,-12 27,-12 26,-14 25,-15 25,-15 23,-16 22,-17 20,-18 20,-19 18,-19 16,-20 15,-20 14,-21 12,-21 10,-22 9,-22 8,-23 6,-22 4,-23 2,-23 z"
   id="path152"
   inkscape:connector-curvature="0"
   style="fill:none;stroke:#9fff9f;stroke-width:71;stroke-linecap:round;stroke-linejoin:round" />
         <path
   d="m 15718,10934 h 48 l 58,-9 44,-9 31,-13 31,-13 h 322 v 397 l 13,26 31,13 57,14 h 44 v 22 h -701 v -22 h 39 l 62,-14 27,-13 17,-26 v -300 l -17,-14 -27,-13 -48,-9 h -31 z"
   id="path154"
   inkscape:connector-curvature="0"
   style="fill:#bfffbf;stroke:none" />
         <path
   d="m 15718,10934 h 48 l 58,-9 44,-9 31,-13 31,-13 h 322 v 397 l 13,26 31,13 57,14 h 44 v 22 h -701 v -22 h 39 l 62,-14 27,-13 17,-26 v -300 l -17,-14 -27,-13 -48,-9 h -31 z"
   id="path156"
   inkscape:connector-curvature="0"
   style="fill:none;stroke:#3f5f00;stroke-width:71;stroke-linecap:round;stroke-linejoin:round" />
         <path
   d="m 5377,12645 c 0,60 -28,119 -82,171 -53,52 -130,96 -223,126 -93,30 -198,46 -305,46 -108,0 -213,-16 -306,-46 -93,-30 -170,-74 -223,-126 -54,-52 -82,-111 -82,-171 0,-61 28,-120 82,-172 53,-52 130,-96 223,-126 93,-30 198,-46 306,-46 107,0 212,16 305,46 93,30 170,74 223,126 54,52 82,111 82,172 z"
   id="path158"
   inkscape:connector-curvature="0"
   style="fill:#008000;stroke:none" />
         <path
   d="m 5374,12641 -1,-17 -2,-18 -4,-17 -5,-17 -7,-17 -9,-17 -10,-16 -11,-17 -13,-15 -15,-16 -15,-15 -17,-15 -18,-14 -20,-13 -21,-13 -21,-12 -23,-12 -24,-11 -25,-10 -26,-10 -26,-9 -28,-8 -28,-7 -28,-7 -30,-5 -29,-5 -30,-4 -31,-3 -30,-2 -31,-2 h -31 v 0 h -31 l -31,2 -30,2 -31,3 -30,4 -29,5 -30,5 -28,7 -28,7 -28,8 -26,9 -26,10 -25,10 -24,11 -23,12 -21,12 -21,13 -20,13 -18,14 -17,15 -15,15 -15,16 -13,15 -11,17 -10,16 -9,17 -7,17 -5,17 -4,17 -2,18 -1,17 v 0 l 1,17 2,18 4,17 5,17 7,17 9,17 10,16 11,17 13,15 15,16 15,15 17,15 18,14 20,13 21,13 21,12 23,12 24,11 25,10 26,10 26,9 28,8 28,7 28,7 30,5 29,5 30,4 31,3 30,2 31,2 h 31 v 0 h 31 l 31,-2 30,-2 31,-3 30,-4 29,-5 30,-5 28,-7 28,-7 28,-8 26,-9 26,-10 25,-10 24,-11 23,-12 21,-12 21,-13 20,-13 18,-14 17,-15 15,-15 15,-16 13,-15 11,-17 10,-16 9,-17 7,-17 5,-17 4,-17 2,-18 z"
   id="path160"
   inkscape:connector-curvature="0"
   style="fill:none;stroke:#9fff9f;stroke-width:71;stroke-linecap:round;stroke-linejoin:round" />
         <path
   d="m 5240,12648 c 0,49 -22,97 -63,139 -42,43 -102,78 -174,103 -72,24 -153,37 -236,37 -84,0 -165,-13 -237,-37 -72,-25 -132,-60 -174,-103 -41,-42 -63,-90 -63,-139 0,-50 22,-98 63,-140 42,-43 102,-78 174,-103 72,-24 153,-37 237,-37 83,0 164,13 236,37 72,25 132,60 174,103 41,42 63,90 63,140 z"
   id="path162"
   inkscape:connector-curvature="0"
   style="fill:#008000;stroke:none" />
         <path
   d="m 5237,12646 -1,-14 -1,-14 -3,-14 -5,-14 -5,-14 -7,-13 -7,-14 -9,-13 -10,-12 -11,-13 -12,-12 -14,-12 -14,-11 -15,-11 -16,-11 -17,-9 -18,-10 -18,-9 -19,-8 -20,-8 -21,-7 -21,-7 -22,-5 -22,-6 -23,-4 -23,-4 -23,-3 -24,-3 -23,-2 -24,-1 h -24 v 0 h -24 l -24,1 -23,2 -24,3 -23,3 -23,4 -23,4 -22,6 -22,5 -21,7 -21,7 -20,8 -19,8 -18,9 -18,10 -17,9 -16,11 -15,11 -14,11 -14,12 -12,12 -11,13 -10,12 -9,13 -7,14 -7,13 -5,14 -5,14 -3,14 -1,14 -1,14 v 0 l 1,14 1,14 3,14 5,14 5,14 7,13 7,14 9,13 10,12 11,13 12,12 14,12 14,11 15,11 16,11 17,9 18,10 18,9 19,8 20,8 21,7 21,7 22,5 22,6 23,4 23,4 23,3 24,3 23,2 24,1 h 24 v 0 h 24 l 24,-1 23,-2 24,-3 23,-3 23,-4 23,-4 22,-6 22,-5 21,-7 21,-7 20,-8 19,-8 18,-9 18,-10 17,-9 16,-11 15,-11 14,-11 14,-12 12,-12 11,-13 10,-12 9,-13 7,-14 7,-13 5,-14 5,-14 3,-14 1,-14 z"
   id="path164"
   inkscape:connector-curvature="0"
   style="fill:none;stroke:#9fff9f;stroke-width:71;stroke-linecap:round;stroke-linejoin:round" />
         <path
   d="m 4567,12535 h 30 36 l 31,-13 17,-4 22,-14 h 203 v 261 l 13,17 18,9 35,9 h 27 v 9 h -446 v -9 h 27 l 40,-9 13,-9 13,-17 v -194 l -13,-9 -13,-9 -31,-4 h -22 z"
   id="path166"
   inkscape:connector-curvature="0"
   style="fill:#bfffbf;stroke:none" />
         <path
   d="m 4567,12535 h 30 36 l 31,-13 17,-4 22,-14 h 203 v 261 l 13,17 18,9 35,9 h 27 v 9 h -446 v -9 h 27 l 40,-9 13,-9 13,-17 v -194 l -13,-9 -13,-9 -31,-4 h -22 z"
   id="path168"
   inkscape:connector-curvature="0"
   style="fill:none;stroke:#3f5f00;stroke-width:71;stroke-linecap:round;stroke-linejoin:round" />
         <path
   d="m 16925,12661 c 0,61 -28,120 -82,173 -54,53 -131,96 -224,127 -93,30 -199,46 -306,46 -108,0 -214,-16 -307,-46 -93,-31 -170,-74 -224,-127 -54,-53 -82,-112 -82,-173 0,-61 28,-120 82,-173 54,-53 131,-96 224,-127 93,-30 199,-46 307,-46 107,0 213,16 306,46 93,31 170,74 224,127 54,53 82,112 82,173 z"
   id="path170"
   inkscape:connector-curvature="0"
   style="fill:#008000;stroke:none" />
         <path
   d="m 16922,12659 -1,-17 -2,-18 -4,-17 -6,-17 -7,-17 -8,-17 -10,-16 -12,-17 -13,-15 -14,-16 -16,-15 -17,-15 -18,-14 -20,-13 -21,-13 -22,-12 -23,-12 -24,-11 -25,-10 -26,-10 -27,-9 -27,-8 -28,-7 -29,-7 -29,-5 -30,-5 -31,-4 -30,-3 -31,-2 -31,-2 h -31 v 0 h -31 l -31,2 -31,2 -30,3 -31,4 -30,5 -29,5 -29,7 -28,7 -27,8 -27,9 -26,10 -25,10 -24,11 -23,12 -22,12 -21,13 -20,13 -18,14 -17,15 -16,15 -14,16 -13,15 -12,17 -10,16 -8,17 -7,17 -6,17 -4,17 -2,18 -1,17 v 0 l 1,17 2,18 4,17 6,17 7,17 8,17 10,16 12,17 13,15 14,16 16,15 17,15 18,14 20,13 21,13 22,12 23,12 24,11 25,10 26,10 27,9 27,8 28,7 29,7 29,5 30,5 31,4 30,3 31,2 31,2 h 31 v 0 h 31 l 31,-2 31,-2 30,-3 31,-4 30,-5 29,-5 29,-7 28,-7 27,-8 27,-9 26,-10 25,-10 24,-11 23,-12 22,-12 21,-13 20,-13 18,-14 17,-15 16,-15 14,-16 13,-15 12,-17 10,-16 8,-17 7,-17 6,-17 4,-17 2,-18 z"
   id="path172"
   inkscape:connector-curvature="0"
   style="fill:none;stroke:#9fff9f;stroke-width:71;stroke-linecap:round;stroke-linejoin:round" />
         <path
   d="m 16788,12658 c 0,48 -22,95 -63,137 -42,41 -102,75 -174,99 -72,24 -153,37 -236,37 -84,0 -165,-13 -237,-37 -72,-24 -132,-58 -174,-99 -41,-42 -63,-89 -63,-137 0,-48 22,-95 63,-136 42,-42 102,-76 174,-100 72,-24 153,-37 237,-37 83,0 164,13 236,37 72,24 132,58 174,100 41,41 63,88 63,136 z"
   id="path174"
   inkscape:connector-curvature="0"
   style="fill:#008000;stroke:none" />
         <path
   d="m 16785,12654 -1,-14 -1,-14 -3,-13 -5,-14 -5,-14 -7,-13 -7,-13 -9,-13 -10,-13 -11,-12 -12,-12 -14,-12 -14,-11 -15,-10 -16,-11 -17,-10 -18,-9 -18,-9 -19,-8 -20,-8 -21,-7 -21,-6 -22,-6 -22,-5 -23,-4 -23,-4 -23,-3 -24,-3 -23,-2 -24,-1 h -24 v 0 h -24 l -24,1 -23,2 -24,3 -23,3 -23,4 -23,4 -22,5 -22,6 -21,6 -21,7 -20,8 -19,8 -18,9 -18,9 -17,10 -16,11 -15,10 -14,11 -14,12 -12,12 -11,12 -10,13 -9,13 -7,13 -7,13 -5,14 -5,14 -3,13 -1,14 -1,14 v 0 l 1,14 1,14 3,13 5,14 5,14 7,13 7,13 9,13 10,13 11,12 12,12 14,12 14,11 15,10 16,11 17,10 18,9 18,9 19,8 20,8 21,7 21,6 22,6 22,5 23,4 23,4 23,3 24,3 23,2 24,1 h 24 v 0 h 24 l 24,-1 23,-2 24,-3 23,-3 23,-4 23,-4 22,-5 22,-6 21,-6 21,-7 20,-8 19,-8 18,-9 18,-9 17,-10 16,-11 15,-10 14,-11 14,-12 12,-12 11,-12 10,-13 9,-13 7,-13 7,-13 5,-14 5,-14 3,-13 1,-14 z"
   id="path176"
   inkscape:connector-curvature="0"
   style="fill:none;stroke:#9fff9f;stroke-width:71;stroke-linecap:round;stroke-linejoin:round" />
         <path
   d="m 16119,12549 h 31 l 35,-5 31,-9 14,-4 22,-13 h 207 v 256 l 9,17 17,13 40,5 h 27 v 18 h -450 v -18 h 26 l 40,-5 17,-13 9,-17 v -190 l -9,-13 -17,-5 -31,-9 h -18 z"
   id="path178"
   inkscape:connector-curvature="0"
   style="fill:#bfffbf;stroke:none" />
         <path
   d="m 16119,12549 h 31 l 35,-5 31,-9 14,-4 22,-13 h 207 v 256 l 9,17 17,13 40,5 h 27 v 18 h -450 v -18 h 26 l 40,-5 17,-13 9,-17 v -190 l -9,-13 -17,-5 -31,-9 h -18 z"
   id="path180"
   inkscape:connector-curvature="0"
   style="fill:none;stroke:#3f5f00;stroke-width:71;stroke-linecap:round;stroke-linejoin:round" />
         <path
   d="m 7843,11811 c 0,50 -28,98 -82,141 -53,43 -130,78 -223,103 -93,25 -198,38 -305,38 -108,0 -213,-13 -306,-38 -93,-25 -170,-60 -223,-103 -54,-43 -82,-91 -82,-141 0,-50 28,-98 82,-141 53,-43 130,-78 223,-103 93,-25 198,-38 306,-38 107,0 212,13 305,38 93,25 170,60 223,103 54,43 82,91 82,141 z"
   id="path182"
   inkscape:connector-curvature="0"
   style="fill:#3f5f00;stroke:none" />
         <path
   d="m 7614,11811 c 0,33 -18,66 -52,95 -33,28 -82,52 -141,69 -58,16 -125,25 -192,25 -68,0 -135,-9 -193,-25 -59,-17 -108,-41 -141,-69 -34,-29 -52,-62 -52,-95 0,-33 18,-66 52,-94 33,-29 82,-53 141,-70 58,-16 125,-25 193,-25 67,0 134,9 192,25 59,17 108,41 141,70 34,28 52,61 52,94 z"
   id="path184"
   inkscape:connector-curvature="0"
   style="fill:#9fff9f;stroke:none" />
         <path
   d="m 7610,11807 v -10 l -2,-9 -2,-10 -4,-9 -4,-10 -6,-9 -6,-9 -7,-9 -8,-9 -9,-8 -10,-9 -11,-8 -11,-7 -13,-8 -13,-7 -13,-7 -15,-6 -15,-6 -16,-6 -16,-5 -17,-5 -17,-5 -18,-4 -18,-3 -18,-3 -19,-3 -19,-2 -19,-2 -19,-1 -20,-1 h -19 v 0 h -19 l -20,1 -19,1 -19,2 -19,2 -19,3 -18,3 -18,3 -18,4 -17,5 -17,5 -16,5 -16,6 -15,6 -15,6 -13,7 -13,7 -13,8 -11,7 -11,8 -10,9 -9,8 -8,9 -7,9 -6,9 -6,9 -4,10 -4,9 -2,10 -2,9 v 10 0 10 l 2,9 2,10 4,9 4,10 6,9 6,9 7,9 8,9 9,8 10,9 11,8 11,7 13,8 13,7 13,7 15,6 15,6 16,6 16,5 17,5 17,5 18,4 18,3 18,3 19,3 19,2 19,2 19,1 20,1 h 19 v 0 h 19 l 20,-1 19,-1 19,-2 19,-2 19,-3 18,-3 18,-3 18,-4 17,-5 17,-5 16,-5 16,-6 15,-6 15,-6 13,-7 13,-7 13,-8 11,-7 11,-8 10,-9 9,-8 8,-9 7,-9 6,-9 6,-9 4,-10 4,-9 2,-10 2,-9 z"
   id="path186"
   inkscape:connector-curvature="0"
   style="fill:none;stroke:#008000;stroke-width:35;stroke-linecap:round;stroke-linejoin:round" />
         <path
   d="m 14371,11889 c 0,49 -28,97 -81,139 -54,43 -131,78 -223,103 -92,24 -197,37 -304,37 -107,0 -212,-13 -304,-37 -92,-25 -169,-60 -223,-103 -53,-42 -81,-90 -81,-139 0,-50 28,-98 81,-140 54,-43 131,-78 223,-103 92,-24 197,-37 304,-37 107,0 212,13 304,37 92,25 169,60 223,103 53,42 81,90 81,140 z"
   id="path188"
   inkscape:connector-curvature="0"
   style="fill:#008000;stroke:none" />
         <path
   d="m 14151,11886 c 0,33 -18,66 -51,95 -34,28 -82,52 -141,69 -58,16 -124,25 -191,25 -68,0 -134,-9 -192,-25 -59,-17 -107,-41 -141,-69 -33,-29 -51,-62 -51,-95 0,-33 18,-66 51,-94 34,-29 82,-53 141,-70 58,-16 124,-25 192,-25 67,0 133,9 191,25 59,17 107,41 141,70 33,28 51,61 51,94 z"
   id="path190"
   inkscape:connector-curvature="0"
   style="fill:#bfffbf;stroke:none" />
         <path
   d="m 14148,11882 v -10 l -2,-9 -2,-10 -4,-9 -4,-10 -6,-9 -6,-9 -7,-9 -8,-9 -9,-8 -10,-9 -11,-8 -11,-7 -13,-8 -13,-7 -13,-7 -15,-6 -15,-6 -16,-6 -16,-5 -17,-5 -17,-5 -18,-4 -18,-3 -18,-3 -19,-3 -19,-2 -19,-2 -19,-1 -20,-1 h -19 v 0 h -19 l -20,1 -19,1 -19,2 -19,2 -19,3 -18,3 -18,3 -18,4 -17,5 -17,5 -16,5 -16,6 -15,6 -15,6 -13,7 -13,7 -13,8 -11,7 -11,8 -10,9 -9,8 -8,9 -7,9 -6,9 -6,9 -4,10 -4,9 -2,10 -2,9 v 10 0 10 l 2,9 2,10 4,9 4,10 6,9 6,9 7,9 8,9 9,8 10,9 11,8 11,7 13,8 13,7 13,7 15,6 15,6 16,6 16,5 17,5 17,5 18,4 18,3 18,3 19,3 19,2 19,2 19,1 20,1 h 19 v 0 h 19 l 20,-1 19,-1 19,-2 19,-2 19,-3 18,-3 18,-3 18,-4 17,-5 17,-5 16,-5 16,-6 15,-6 15,-6 13,-7 13,-7 13,-8 11,-7 11,-8 10,-9 9,-8 8,-9 7,-9 6,-9 6,-9 4,-10 4,-9 2,-10 2,-9 z"
   id="path192"
   inkscape:connector-curvature="0"
   style="fill:none;stroke:#008000;stroke-width:35;stroke-linecap:round;stroke-linejoin:round" />
         <path
   d="m 12432,12729 h 335 l 53,9 35,14 18,22 v 35 l -22,31 -40,9 -44,4 44,9 40,13 22,22 17,22 9,18 h 31 v 17 h -198 v -17 h 35 l -9,-22 -22,-18 -27,-18 -26,-13 -49,-13 v 84 h 49 v 17 h -251 v -17 h 52 v -190 h -52 z"
   id="path194"
   inkscape:connector-curvature="0"
   style="fill:#bfffbf;stroke:none" />
         <path
   d="m 12634,12769 v 53 h 49 l 26,-9 18,-9 v -17 l -18,-13 -26,-5 z"
   id="path196"
   inkscape:connector-curvature="0"
   style="fill:#008000;stroke:none" />
         <path
   d="m 8201,12729 h 186 l 44,9 66,22 26,31 14,36 v 35 l -14,40 -26,26 -84,26 -35,9 h -177 l -39,-9 -71,-22 -22,-30 -13,-27 v -48 l 13,-36 22,-31 71,-22 z"
   id="path198"
   inkscape:connector-curvature="0"
   style="fill:#bfffbf;stroke:none" />
         <path
   d="m 8276,12756 -31,18 -13,13 v 123 l 13,18 31,9 h 44 l 27,-9 9,-18 v -123 l -9,-13 -27,-18 z"
   id="path200"
   inkscape:connector-curvature="0"
   style="fill:#008000;stroke:none" />
         <path
   d="m 8563,12963 h 132 v -22 h -44 v -159 l 238,181 h 155 v -207 h 57 v -18 h -154 v 18 h 53 v 132 l -212,-145 h -234 v 17 h 53 v 181 h -44 z"
   id="path202"
   inkscape:connector-curvature="0"
   style="fill:#bfffbf;stroke:none" />
         <path
   d="m 9101,12738 h 463 v 62 h -35 l -141,-44 h -79 v 88 h 66 l 83,-40 v 98 l -83,-45 h -66 v 75 h 79 l 163,-30 h 22 v 61 h -463 v -13 h 44 v -194 h -53 z"
   id="path204"
   inkscape:connector-curvature="0"
   style="fill:#bfffbf;stroke:none" />
         <path
   d="m 10544,12729 h 189 l 40,9 66,22 27,27 13,40 v 30 l -13,36 -27,31 -79,26 -40,9 h -176 l -36,-9 -66,-22 -26,-26 -9,-31 v -44 l 9,-40 26,-27 66,-22 z"
   id="path206"
   inkscape:connector-curvature="0"
   style="fill:#bfffbf;stroke:none" />
         <path
   d="m 10619,12756 -27,18 -18,8 v 124 l 18,18 27,8 h 44 l 31,-8 13,-18 v -124 l -13,-8 -31,-18 z"
   id="path208"
   inkscape:connector-curvature="0"
   style="fill:#008000;stroke:none" />
         <path
   d="m 10901,12729 h 282 v 18 h -70 v 181 h 70 l 119,-35 h 49 v 61 h -441 v -13 h 44 v -194 h -53 z"
   id="path210"
   inkscape:connector-curvature="0"
   style="fill:#bfffbf;stroke:none" />
         <path
   d="m 11351,12729 h 278 v 18 h -71 v 181 h 71 l 119,-35 h 44 v 61 h -437 v -13 h 44 v -194 h -48 z"
   id="path212"
   inkscape:connector-curvature="0"
   style="fill:#bfffbf;stroke:none" />
         <path
   d="m 12167,12734 216,203 h 49 v 22 h -349 v -22 h 44 l -53,-62 h -128 l -57,62 h 71 v 22 h -177 v -22 h 44 l 177,-203 z"
   id="path214"
   inkscape:connector-curvature="0"
   style="fill:#bfffbf;stroke:none" />
         <path
   d="m 12017,12791 -53,62 h 101 z"
   id="path216"
   inkscape:connector-curvature="0"
   style="fill:#008000;stroke:none" />
         <path
   d="m 10019,12738 h 185 l 40,9 70,22 27,22 13,36 v 35 l -13,35 -27,31 -79,22 -44,9 h -172 -221 l 9,-27 h 62 v -57 -48 -36 -31 h -71 v -22 z"
   id="path218"
   inkscape:connector-curvature="0"
   style="fill:#bfffbf;stroke:none" />
         <path
   d="m 10089,12765 h -48 v 167 h 48 49 l 26,-8 9,-14 v -119 l -9,-13 -26,-13 z"
   id="path220"
   inkscape:connector-curvature="0"
   style="fill:#008000;stroke:none" />
         <path
   d="m 3751,13113 h 13520 v 6041 H 3751 Z"
   id="path222"
   inkscape:connector-curvature="0"
   style="fill:#dfffbf;stroke:none" />
         <path
   d="M 3751,13621 H 17275"
   id="path224"
   inkscape:connector-curvature="0"
   style="fill:none;stroke:#008000;stroke-width:35;stroke-linecap:round;stroke-linejoin:round" />
         <path
   d="M 3751,14115 H 17275"
   id="path226"
   inkscape:connector-curvature="0"
   style="fill:none;stroke:#008000;stroke-width:35;stroke-linecap:round;stroke-linejoin:round" />
         <path
   d="M 3751,14622 H 17275"
   id="path228"
   inkscape:connector-curvature="0"
   style="fill:none;stroke:#008000;stroke-width:35;stroke-linecap:round;stroke-linejoin:round" />
         <path
   d="M 3751,15121 H 17275"
   id="path230"
   inkscape:connector-curvature="0"
   style="fill:none;stroke:#008000;stroke-width:35;stroke-linecap:round;stroke-linejoin:round" />
         <path
   d="M 3751,15628 H 17275"
   id="path232"
   inkscape:connector-curvature="0"
   style="fill:none;stroke:#008000;stroke-width:35;stroke-linecap:round;stroke-linejoin:round" />
         <path
   d="M 3751,16131 H 17275"
   id="path234"
   inkscape:connector-curvature="0"
   style="fill:none;stroke:#008000;stroke-width:35;stroke-linecap:round;stroke-linejoin:round" />
         <path
   d="M 3751,16630 H 17275"
   id="path236"
   inkscape:connector-curvature="0"
   style="fill:none;stroke:#008000;stroke-width:35;stroke-linecap:round;stroke-linejoin:round" />
         <path
   d="M 3751,17142 H 17275"
   id="path238"
   inkscape:connector-curvature="0"
   style="fill:none;stroke:#008000;stroke-width:35;stroke-linecap:round;stroke-linejoin:round" />
         <path
   d="M 3751,17645 H 17275"
   id="path240"
   inkscape:connector-curvature="0"
   style="fill:none;stroke:#008000;stroke-width:35;stroke-linecap:round;stroke-linejoin:round" />
         <path
   d="M 3751,18143 H 17275"
   id="path242"
   inkscape:connector-curvature="0"
   style="fill:none;stroke:#008000;stroke-width:35;stroke-linecap:round;stroke-linejoin:round" />
         <path
   d="M 3751,18651 H 17275"
   id="path244"
   inkscape:connector-curvature="0"
   style="fill:none;stroke:#008000;stroke-width:35;stroke-linecap:round;stroke-linejoin:round" />
        </g>
       </g>
      </g>
     </g>
    </g>
   </g>
  </g>
 </g>
</svg>