<?xml version="1.0" encoding="UTF-8" standalone="no"?>
<svg
   xmlns:ooo="http://xml.openoffice.org/svg/export"
   xmlns:dc="http://purl.org/dc/elements/1.1/"
   xmlns:cc="http://creativecommons.org/ns#"
   xmlns:rdf="http://www.w3.org/1999/02/22-rdf-syntax-ns#"
   xmlns:svg="http://www.w3.org/2000/svg"
   xmlns="http://www.w3.org/2000/svg"
   xmlns:sodipodi="http://sodipodi.sourceforge.net/DTD/sodipodi-0.dtd"
   xmlns:inkscape="http://www.inkscape.org/namespaces/inkscape"
   version="1.2"
   width="109.05mm"
   height="97.190002mm"
   viewBox="0 0 10905 9719.0002"
   preserveAspectRatio="xMidYMid"
   xml:space="preserve"
   id="svg163"
   sodipodi:docname="eagle.svg"
   style="fill-rule:evenodd;stroke-width:28.22200012;stroke-linejoin:round"
   inkscape:version="0.92.5 (2060ec1f9f, 2020-04-08)"><metadata
   id="metadata167"><rdf:RDF><cc:Work
       rdf:about=""><dc:format>image/svg+xml</dc:format><dc:type
         rdf:resource="http://purl.org/dc/dcmitype/StillImage" /></cc:Work></rdf:RDF></metadata><sodipodi:namedview
   pagecolor="#ffffff"
   bordercolor="#666666"
   borderopacity="1"
   objecttolerance="10"
   gridtolerance="10"
   guidetolerance="10"
   inkscape:pageopacity="0"
   inkscape:pageshadow="2"
   inkscape:window-width="664"
   inkscape:window-height="487"
   id="namedview165"
   showgrid="false"
   inkscape:zoom="0.2102413"
   inkscape:cx="206.09764"
   inkscape:cy="183.64724"
   inkscape:window-x="0"
   inkscape:window-y="0"
   inkscape:window-maximized="0"
   inkscape:current-layer="svg163" />
 <defs
   class="ClipPathGroup"
   id="defs8">
  <clipPath
   id="presentation_clip_path"
   clipPathUnits="userSpaceOnUse">
   <rect
   x="0"
   y="0"
   width="21000"
   height="29700"
   id="rect2" />
  </clipPath>
  <clipPath
   id="presentation_clip_path_shrink"
   clipPathUnits="userSpaceOnUse">
   <rect
   x="21"
   y="29"
   width="20958"
   height="29641"
   id="rect5" />
  </clipPath>
 </defs>
 <defs
   class="TextShapeIndex"
   id="defs12">
  <g
   ooo:slide="id1"
   ooo:id-list="id3"
   id="g10" />
 </defs>
 <defs
   class="EmbeddedBulletChars"
   id="defs44">
  <g
   id="bullet-char-template-57356"
   transform="matrix(4.8828125e-4,0,0,-4.8828125e-4,0,0)">
   <path
   d="M 580,1141 1163,571 580,0 -4,571 Z"
   id="path14"
   inkscape:connector-curvature="0" />
  </g>
  <g
   id="bullet-char-template-57354"
   transform="matrix(4.8828125e-4,0,0,-4.8828125e-4,0,0)">
   <path
   d="M 8,1128 H 1137 V 0 H 8 Z"
   id="path17"
   inkscape:connector-curvature="0" />
  </g>
  <g
   id="bullet-char-template-10146"
   transform="matrix(4.8828125e-4,0,0,-4.8828125e-4,0,0)">
   <path
   d="M 174,0 602,739 174,1481 1456,739 Z M 1358,739 309,1346 659,739 Z"
   id="path20"
   inkscape:connector-curvature="0" />
  </g>
  <g
   id="bullet-char-template-10132"
   transform="matrix(4.8828125e-4,0,0,-4.8828125e-4,0,0)">
   <path
   d="M 2015,739 1276,0 H 717 l 543,543 H 174 v 393 h 1086 l -543,545 h 557 z"
   id="path23"
   inkscape:connector-curvature="0" />
  </g>
  <g
   id="bullet-char-template-10007"
   transform="matrix(4.8828125e-4,0,0,-4.8828125e-4,0,0)">
   <path
   d="m 0,-2 c -7,16 -16,29 -25,39 l 381,530 c -94,256 -141,385 -141,387 0,25 13,38 40,38 9,0 21,-2 34,-5 21,4 42,12 65,25 l 27,-13 111,-251 280,301 64,-25 24,25 c 21,-10 41,-24 62,-43 C 886,937 835,863 770,784 769,783 710,716 594,584 L 774,223 c 0,-27 -21,-55 -63,-84 l 16,-20 C 717,90 699,76 672,76 641,76 570,178 457,381 L 164,-76 c -22,-34 -53,-51 -92,-51 -42,0 -63,17 -64,51 -7,9 -10,24 -10,44 0,9 1,19 2,30 z"
   id="path26"
   inkscape:connector-curvature="0" />
  </g>
  <g
   id="bullet-char-template-10004"
   transform="matrix(4.8828125e-4,0,0,-4.8828125e-4,0,0)">
   <path
   d="M 285,-33 C 182,-33 111,30 74,156 52,228 41,333 41,471 c 0,78 14,145 41,201 34,71 87,106 158,106 53,0 88,-31 106,-94 l 23,-176 c 8,-64 28,-97 59,-98 l 735,706 c 11,11 33,17 66,17 42,0 63,-15 63,-46 V 965 c 0,-36 -10,-64 -30,-84 L 442,47 C 390,-6 338,-33 285,-33 Z"
   id="path29"
   inkscape:connector-curvature="0" />
  </g>
  <g
   id="bullet-char-template-9679"
   transform="matrix(4.8828125e-4,0,0,-4.8828125e-4,0,0)">
   <path
   d="M 813,0 C 632,0 489,54 383,161 276,268 223,411 223,592 c 0,181 53,324 160,431 106,107 249,161 430,161 179,0 323,-54 432,-161 108,-107 162,-251 162,-431 0,-180 -54,-324 -162,-431 C 1136,54 992,0 813,0 Z"
   id="path32"
   inkscape:connector-curvature="0" />
  </g>
  <g
   id="bullet-char-template-8226"
   transform="matrix(4.8828125e-4,0,0,-4.8828125e-4,0,0)">
   <path
   d="m 346,457 c -73,0 -137,26 -191,78 -54,51 -81,114 -81,188 0,73 27,136 81,188 54,52 118,78 191,78 73,0 134,-26 185,-79 51,-51 77,-114 77,-187 0,-75 -25,-137 -76,-188 -50,-52 -112,-78 -186,-78 z"
   id="path35"
   inkscape:connector-curvature="0" />
  </g>
  <g
   id="bullet-char-template-8211"
   transform="matrix(4.8828125e-4,0,0,-4.8828125e-4,0,0)">
   <path
   d="M -4,459 H 1135 V 606 H -4 Z"
   id="path38"
   inkscape:connector-curvature="0" />
  </g>
  <g
   id="bullet-char-template-61548"
   transform="matrix(4.8828125e-4,0,0,-4.8828125e-4,0,0)">
   <path
   d="m 173,740 c 0,163 58,303 173,419 116,115 255,173 419,173 163,0 302,-58 418,-173 116,-116 174,-256 174,-419 0,-163 -58,-303 -174,-418 C 1067,206 928,148 765,148 601,148 462,206 346,322 231,437 173,577 173,740 Z"
   id="path41"
   inkscape:connector-curvature="0" />
  </g>
 </defs>
 <g
   id="g49"
   transform="translate(-5047,-9990)">
  <g
   id="id2"
   class="Master_Slide">
   <g
   id="bg-id2"
   class="Background" />
   <g
   id="bo-id2"
   class="BackgroundObjects" />
  </g>
 </g>
 <g
   class="SlideGroup"
   id="g161"
   transform="translate(-5047,-9990)">
  <g
   id="g159">
   <g
   id="container-id1">
    <g
   id="id1"
   class="Slide"
   clip-path="url(#presentation_clip_path)">
     <g
   class="Page"
   id="g155">
      <g
   class="Graphic"
   id="g153">
       <g
   id="id3">
        <rect
   class="BoundingBox"
   x="5047"
   y="9990"
   width="10905"
   height="9719"
   id="rect51"
   style="fill:none;stroke:none" />
        <defs
   id="defs56">
         <clipPath
   id="clip_path_1"
   clipPathUnits="userSpaceOnUse">
          <path
   d="m 5051,10008 h 10886 v 9682 H 5051 Z"
   id="path53"
   inkscape:connector-curvature="0" />
         </clipPath>
        </defs>
        <g
   clip-path="url(#clip_path_1)"
   id="g150">
         <path
   d="m 9564,18628 -79,124 44,92 57,133 27,150 44,154 -71,66 -26,27 -62,9 -40,39 31,49 111,-13 26,-62 62,-31 70,48 89,53 123,75 18,36 35,13 62,-49 -5,-39 -26,-14 -35,-35 -53,-4 114,9 84,30 88,45 67,57 61,-44 5,-49 -58,-9 -75,-13 40,-9 62,-4 53,22 4,-71 -66,9 -35,-4 -53,-9 -66,-13 h -44 l -84,-58 -66,-44 -75,-53 -49,-61 -57,-106 -40,-106 -84,-199 z"
   id="path58"
   inkscape:connector-curvature="0"
   style="fill:#ff5f00;stroke:none" />
         <path
   d="m 9520,19435 -31,23 -17,52 13,49 18,31 26,18 53,13 -22,-31 -18,-44 v -31 l 18,-40 31,-26 -18,-27 z"
   id="path60"
   inkscape:connector-curvature="0"
   style="fill:#ffffdf;stroke:none" />
         <path
   d="m 10063,19537 31,18 13,48 -9,40 -18,22 -26,18 -49,13 22,-31 14,-31 v -31 l -14,-31 -30,-22 17,-26 z"
   id="path62"
   inkscape:connector-curvature="0"
   style="fill:#ffffdf;stroke:none" />
         <path
   d="m 10367,19524 35,17 9,49 -4,40 -18,22 -31,17 -44,9 22,-26 14,-31 v -27 l -14,-31 -26,-26 13,-22 z"
   id="path64"
   inkscape:connector-curvature="0"
   style="fill:#ffffdf;stroke:none" />
         <path
   d="m 10433,19431 27,18 9,44 -5,31 -13,22 -26,22 -31,4 17,-26 9,-27 v -22 l -9,-35 -17,-18 8,-17 z"
   id="path66"
   inkscape:connector-curvature="0"
   style="fill:#ffffdf;stroke:none" />
         <path
   d="m 7632,17018 -644,-71 -397,-57 -485,-141 -419,-172 -225,-106 22,123 31,124 35,97 75,128 119,145 -62,14 159,39 -101,67 128,150 -5,127 84,75 -4,115 264,93 -66,123 265,-44 -14,84 1421,216 225,-260 z"
   id="path68"
   inkscape:connector-curvature="0"
   style="fill:#ffffdf;stroke:none" />
         <path
   d="m 6348,17931 971,-481 569,503 -79,256 -137,-57 -146,57 -137,-40 -35,27 -106,-88 -92,79 -119,40 -14,-106 -97,22 -136,31 22,-106 -146,57 -75,-106 -115,40 -22,-71 z"
   id="path70"
   inkscape:connector-curvature="0"
   style="fill:#c0c0c0;stroke:none" />
         <path
   d="m 5832,17062 547,-31 631,44"
   id="path72"
   inkscape:connector-curvature="0"
   style="fill:none;stroke:#5f5f5f;stroke-width:26;stroke-linecap:round;stroke-linejoin:round" />
         <path
   d="m 5868,17168 463,-27 569,18"
   id="path74"
   inkscape:connector-curvature="0"
   style="fill:none;stroke:#5f5f5f;stroke-width:26;stroke-linecap:round;stroke-linejoin:round" />
         <path
   d="m 5912,17362 873,-79"
   id="path76"
   inkscape:connector-curvature="0"
   style="fill:none;stroke:#5f5f5f;stroke-width:26;stroke-linecap:round;stroke-linejoin:round" />
         <path
   d="m 6031,17583 706,-177"
   id="path78"
   inkscape:connector-curvature="0"
   style="fill:none;stroke:#5f5f5f;stroke-width:26;stroke-linecap:round;stroke-linejoin:round" />
         <path
   d="m 6242,17759 786,-269"
   id="path80"
   inkscape:connector-curvature="0"
   style="fill:none;stroke:#5f5f5f;stroke-width:26;stroke-linecap:round;stroke-linejoin:round" />
         <path
   d="m 6459,17878 463,-238"
   id="path82"
   inkscape:connector-curvature="0"
   style="fill:none;stroke:#5f5f5f;stroke-width:26;stroke-linecap:round;stroke-linejoin:round" />
         <path
   d="m 7072,12399 -115,-393 -97,-366 -70,-344 -40,-397 -27,-397 31,-230 53,-220 -57,101 -58,150 -57,128 5,-128 -58,124 -44,163 -44,234 -13,185 v 172 l -84,-119 -57,-154 -45,-256 -26,-238 -18,-186 31,-220 -66,53 -71,119 -61,189 -27,150 -13,195 -35,-155 -36,-159 -39,-238 -44,141 -45,124 -26,176 -22,181 13,185 -75,-158 -57,-159 -53,-194 -57,238 -53,225 -18,203 26,181 58,141 -80,-88 -13,101 27,124 -84,-111 -5,58 -8,97 -172,-252 -27,172 -13,181 40,278 79,366 -62,-83 22,149 -238,-286 31,317 62,190 114,221 128,172 -167,-97 53,220 88,208 92,185 124,172 -154,-35 291,357 -115,-31 84,146 128,185 -115,-57 31,344 44,291 79,212 -136,-97 66,282 44,181 66,185 159,252 75,233 97,137 128,106 154,93 181,92 194,80 190,57 234,44 203,5 194,-18 181,-22 -649,-2744 z"
   id="path84"
   inkscape:connector-curvature="0"
   style="fill:#7f5f3f;stroke:none" />
         <path
   d="m 7500,11358 -146,110 -115,137 -105,176 -45,137 -17,168 31,141 39,101 -123,-110 -97,-119 57,154 71,177 22,88 -375,79 -256,230 -154,-27 -159,22 653,636 -199,-71 -229,-88 4,114 110,181 173,155 502,1967 -88,18 22,102 53,141 375,525 40,48 h -115 l -150,-17 -137,-31 -128,-44 -114,-40 -115,-40 -128,-44 -101,-53 -93,-70 -88,-80 -93,-70 22,105 27,84 35,80 49,66 66,75 75,48 106,67 105,57 111,53 106,40 101,39 115,22 h 48 v 111 l -92,180 8,75 -30,80 v 190 l 26,22 v 136 l 97,-8 18,110 48,-13 44,30 53,31 49,14 66,8 9,40 35,35 40,27 48,18 22,167 h 137 l -35,88 -35,102 4,115 35,114 613,-35 353,9 71,40 22,101 27,-9 8,106 -17,124 57,22 79,13 -17,48 9,58 39,35 53,4 44,-8 -22,48 -9,53 27,35 53,14 53,-5 66,-48 88,-49 9,-79 40,-40 44,-84 128,-547 -53,-582 -649,-366 -114,-75 -111,-40 -105,-9 -106,9 154,-772 -410,-627 -494,-529 -181,-1407 -357,-1169 v -746 l 136,-393 z"
   id="path86"
   inkscape:connector-curvature="0"
   style="fill:#3f1f00;stroke:none" />
         <path
   d="m 7531,11327 -106,123 -53,80 -44,119 -9,57 4,58 -53,83 -31,89 -13,158 -4,234 v 208 l 35,75 13,79 -17,75 97,238 150,384 79,207 44,119 18,111 22,79 v 208 l 26,251 31,238 71,534 53,53 57,79 75,124 93,172 260,274 110,154 336,-57 57,-40 75,-13 62,13 106,-62 128,-40 127,-97 128,-48 75,-40 75,-26 -13,-44 -35,-40 93,-27 132,-44 84,-22 17,13 216,-88 212,-84 230,-88 185,-62 243,-70 282,-58 309,-57 269,-44 247,-31 242,-35 124,-13 146,-27 101,-9 128,-44 181,-26 114,-36 106,-44 75,-62 106,-101 133,-93 70,-75 93,-128 75,-141 66,-114 48,-89 31,71 18,75 -9,88 -17,75 -53,88 -67,84 142,-75 163,-97 150,-110 176,-133 150,-101 172,-146 181,-123 -216,229 -62,102 -88,110 -194,225 -155,185 199,-150 251,-194 181,-150 190,-154 163,-137 163,-150 106,-137 71,-97 48,-66 -22,106 -53,141 -79,128 -97,106 101,-49 -79,102 -88,93 -93,66 53,22 -57,137 -102,141 -110,123 -93,88 -119,89 -172,132 230,-88 216,-93 269,-115 163,-88 190,-150 278,-251 -97,172 88,-18 -132,190 -133,159 -207,172 -234,163 -190,141 159,-35 115,-31 198,-75 181,-124 146,-119 145,-106 -88,150 -101,155 -115,163 106,-22 57,-66 49,-31 -115,150 -106,66 -31,49 -176,119 88,17 -48,58 114,-13 62,-22 75,-111 93,-31 -22,49 -31,57 -27,49 -35,48 -49,58 -61,75 -89,75 -92,70 -84,53 -119,58 -132,44 -124,39 -97,14 -93,4 71,31 62,9 70,-14 71,-17 -62,62 -40,48 -61,44 -80,71 -128,26 -136,31 -265,40 -128,4 97,18 119,9 137,-9 -75,31 -62,35 -62,5 -84,17 -74,35 -164,18 -154,22 h -141 l -662,-79 181,101 -119,49 -181,75 -75,26 -97,13 -97,9 -93,-13 -66,-13 -110,-62 48,79 -84,9 -75,9 -92,-18 -190,-123 -4,106 -62,9 -53,22 -207,-124 -146,194 -260,-128 -146,208 -123,-62 -111,163 -172,-62 -114,230 -84,-106 -93,132 -110,-70 -97,207 -622,874 18,154 57,181 13,132 -13,185 -115,468 -35,106 -53,35 -35,58 -67,-84 45,-22 39,-31 40,-57 35,-80 27,-115 -31,-128 -327,31 -75,-97 -414,-88 -49,221 -48,176 -530,-137 27,-83 48,-102 62,-115 66,-97 80,-106 -133,-61 31,-186 -185,186 -31,-49 35,-331 -136,71 -27,-49 71,-242 -190,154 -71,-26 71,-186 172,-128 88,-189 128,-221 44,-154 18,-111 -9,-114 -31,-36 -4,-70 -49,-71 -48,-62 -40,-75 -75,-97 -62,-66 -75,-70 71,291 57,304 -304,-35 -318,-27 -141,-30 -159,-40 -119,-13 40,-31 62,-22 75,-14 66,9 -119,-92 -89,-53 -105,-53 -71,-44 -62,-75 -39,-89 -22,-61 127,-36 111,5 119,35 110,49 146,61 4,-79 31,-75 -154,-115 -278,-198 -212,-150 -110,-84 -5,-40 -31,-35 -31,-22 142,-13 -58,-53 -84,-80 -52,-66 -36,-57 -22,-49 75,13 58,-4 -84,-62 -71,-44 -75,-62 -44,-66 -13,-48 -9,-58 88,22 106,40 119,57 -57,-70 -93,-102 -101,-123 -93,-106 -93,-110 -75,-93 -52,-71 110,40 154,62 128,40 -106,-75 -110,-80 -79,-48 -58,-67 -39,-70 110,-18 75,-4 106,40 88,44 -155,-168 -185,-238 -123,-163 -58,-80 -31,-79 -13,-93 -9,-71 67,9 92,36 137,97 203,189 141,146 119,88 93,35 92,18 71,-4 62,-22 -115,-97 -247,-234 -256,-221 -101,-88 -40,-62 -13,-70 88,17 168,27 167,26 -132,-238 -141,-260 -155,-305 168,203 150,181 110,119 -119,-317 -145,-362 -111,-309 -48,-159 70,62 75,97 150,199 133,172 -137,-393 -40,-137 -26,-115 9,-105 70,30 66,49 62,93 80,167 176,358 163,313 128,273 66,133 44,211 58,243 70,344 40,216 44,217 40,158 57,230 v -137 l -9,-137 -39,-66 -40,-115 -22,-132 -57,-247 -45,-199 -97,-511 -13,-141 18,-230 22,-282 48,-212 53,-168 44,-110 62,-88 44,-57 62,-40 z"
   id="path88"
   inkscape:connector-curvature="0"
   style="fill:#5f3f1f;stroke:none" />
         <path
   d="m 7385,13793 75,84 71,84 39,57 -4,154 -9,150 22,119 35,150 36,190 22,124 13,123 -57,-110 -14,53 -13,84 31,163 66,163 84,190 102,185 92,155 62,83 75,124 101,132 71,194 62,80 9,97 -9,88 39,-115 31,-70 -17,-146 -31,-79 9,-71 -27,-106 75,128 53,111 -35,110 62,-49 17,49 18,62 4,97 -9,106 45,-93 26,-62 -9,-79 62,57 40,-57 22,31 17,66 -8,92 -23,80 -44,92 v 53 l -70,120 -27,66 -48,61 -66,53 326,728 -168,605 -57,211 -494,-127 31,-84 70,-150 75,-119 106,-155 -163,-31 40,-194 -185,190 -5,-57 -13,-102 4,-93 31,-150 -53,36 -79,31 -53,22 13,-71 40,-106 48,-132 -119,92 -88,45 -79,13 66,-185 79,-67 75,-83 97,-150 115,-252 71,-216 8,-71 9,-97 -35,-22 9,-79 -62,-75 -49,-62 -39,-79 -49,-31 -22,-44 -97,-106 -62,-102 -132,-181 -53,-158 -44,-89 -35,-53 4,-83 -26,-53 -5,-309 -13,-331 13,-340 -31,-79 -9,-102 14,-128 -53,-57 -5,-44 -4,-40 z"
   id="path90"
   inkscape:connector-curvature="0"
   style="fill:#5f3f1f;stroke:none" />
         <path
   d="m 8664,15994 133,-97 44,-31 48,-17 67,-5 52,18 36,-35 88,-22 75,-22 44,-45 62,-48 79,-31 66,-22 22,-22 45,-27 53,-17 22,-5 -75,-92 352,-84 239,22 -84,57 -97,58 -102,39 -97,27 133,-5 97,14 66,97 -71,13 -128,-13 -61,-18 -49,9 -22,48 31,45 4,26 71,22 -154,49 -67,-31 -35,-36 -137,-8 119,31 62,70 -57,9 -75,-13 -66,-22 -44,-36 -31,-17 -58,22 75,44 71,18 -66,22 -31,-14 9,75 -119,-70 -14,84 -70,-9 -106,13 -66,31 -66,35 -62,-35 -75,-35 z"
   id="path92"
   inkscape:connector-curvature="0"
   style="fill:#9f7f5f;stroke:none" />
         <path
   d="m 10764,15416 -622,322 -265,195 -167,317 137,27 128,57 70,71 35,70 58,-31 62,-13 13,-70 4,-98 -4,-17 57,57 66,44 44,18 40,-57 27,-80 4,-92 -13,-89 57,89 62,66 84,22 4,-40 v -62 l 9,-61 84,88 66,-168 40,31 22,40 13,57 53,-40 44,-61 35,-71 199,75 v -132 l 101,39 62,-4 84,18 88,13 -18,-115 84,75 102,-13 132,22 115,-18 -27,-84 80,40 70,-9 75,22 88,-13 -44,-92 252,30 -163,-119 -36,-84 168,102 26,66 106,35 141,-30 -79,-62 -163,-62 -53,-124 132,-22 115,-13 97,93 137,88 163,-18 137,18 172,18 282,-89 -291,-119 -115,-119 115,-13 115,-26 114,-67 106,-70 -137,-18 -101,-70 -88,-106 141,-49 225,-93 251,-97 -414,-61 163,-89 97,-123 -141,9 -102,-97 -397,278 -348,97 -724,225 -454,110 z"
   id="path94"
   inkscape:connector-curvature="0"
   style="fill:#3f1f00;stroke:none" />
         <path
   d="m 9383,16263 75,-39 102,-22 13,-119 22,-67 84,-61 93,-58 132,-61 115,-53 31,-97 48,-80 115,-26 141,-14 150,-101 190,-124 70,-39 -53,-53 128,-31 260,4 190,-61 110,-40 195,-58 -62,-35 137,-17 163,-27 119,-31 123,-44 119,-22 -39,-49 132,-13 119,-13 80,-4 92,-27 102,-31 145,-62 89,36 110,-53 101,-49 75,-35 75,-49 75,-79 66,-57 106,-53 66,-71 84,-115 84,-145 106,-185 13,88 -22,79 -97,137 -18,88 -101,115 -66,106 -93,88 -132,84 -172,70 -203,58 -155,53 -114,39 -115,45 -70,13 -106,31 -150,39 -102,18 -141,40 -101,48 -137,18 -172,44 -137,44 -172,71 -185,57 -212,97 -97,49 -128,48 -57,53 -80,58 -123,52 -36,14 -48,35 -71,13 -17,44 -40,40 -62,31 -40,40 -35,53 -57,-22 -40,66 -9,39 -44,18 -40,53 -17,57 -5,75 -17,75 -9,124 -22,176 z"
   id="path96"
   inkscape:connector-curvature="0"
   style="fill:#9f3f00;stroke:none" />
         <path
   d="m 14646,14931 194,-40 225,-48 199,-62 150,-62 -31,67 -53,70 -79,49 -89,35 124,-13 -35,48 -45,49 106,-5 106,-17 -48,75 -71,57 -93,57 -123,40 -137,22 -132,9 128,-53 97,-53 62,-53 57,-75 -71,31 -83,22 -89,-4 -97,-27 141,-101 -97,17 -88,-4 z"
   id="path98"
   inkscape:connector-curvature="0"
   style="fill:#bf7f1f;stroke:none" />
         <path
   d="m 13437,15328 93,53 124,44 167,22 141,-4 106,-22 119,-22 106,-49 84,-44 -79,80 -93,75 -119,61 -124,31 -119,5 -128,-5 -128,-22 -119,-44 -132,-49 z"
   id="path100"
   inkscape:connector-curvature="0"
   style="fill:#bf7f1f;stroke:none" />
         <path
   d="m 13737,15606 93,53 128,44 163,18 141,-5 106,-17 119,-22 106,-49 84,-48 -79,83 -93,75 -119,58 -124,35 -119,5 -128,-5 -128,-22 -119,-44 -132,-53 z"
   id="path102"
   inkscape:connector-curvature="0"
   style="fill:#bf7f1f;stroke:none" />
         <path
   d="m 12626,15840 h 273 l 75,31 93,31 93,9 167,8 159,9 -472,9 z"
   id="path104"
   inkscape:connector-curvature="0"
   style="fill:#bf7f1f;stroke:none" />
         <path
   d="m 7451,17018 -84,75 -53,62 -26,75 -9,97 22,101 27,71 4,-84 18,-75 9,70 22,80 17,48 18,-136 18,-75 26,-75 53,-40 57,-26 75,-9 -53,-27 -79,-17 -93,17 9,-57 z"
   id="path106"
   inkscape:connector-curvature="0"
   style="fill:#bf7f1f;stroke:none" />
         <path
   d="m 9480,17622 -30,80 -40,61 -71,80 -70,66 44,31 13,22 4,44 62,-26 49,-40 -71,128 97,48 -70,80 123,17 -9,75 -39,159 -9,375 -66,93 -44,31 -53,35 70,71 44,-71 53,-35 97,-477 44,-84 14,-150 -5,-167 -70,-194 v -71 z"
   id="path108"
   inkscape:connector-curvature="0"
   style="fill:#bf7f1f;stroke:none" />
         <path
   d="m 8351,15941 128,-30 141,-14 159,18 177,44 141,49 132,79 115,106 136,159 -110,785 -423,234 -146,-88 -106,-58 -101,-17 -146,4 -317,26 z"
   id="path110"
   inkscape:connector-curvature="0"
   style="fill:#3f1f00;stroke:none" />
         <path
   d="m 8673,18288 172,22 322,49 216,40 164,9 167,13 243,39 -22,40 -49,58 -35,-27 -49,-18 40,27 35,26 -30,40 -18,75 -53,-4 -101,-31 -40,13 66,31 49,31 26,39 -18,80 -101,31 -40,-27 -44,-57 -57,-88 -58,-93 -92,-4 -84,-14 4,62 -22,84 18,137 -31,70 -71,5 -26,-18 -26,-40 26,-57 22,-71 9,-66 -5,-61 -22,-45 -53,-44 -79,-35 -145,-31 -150,-40 z"
   id="path112"
   inkscape:connector-curvature="0"
   style="fill:#ff5f1f;stroke:none" />
         <path
   d="m 9900,18483 66,-5 53,18 31,22 13,48 -5,58 -17,39 -9,-35 -22,-40 -27,-35 -53,-18 -53,-4 z"
   id="path114"
   inkscape:connector-curvature="0"
   style="fill:#ffffdf;stroke:none" />
         <path
   d="m 9807,18593 66,-5 49,22 35,23 13,48 -4,53 -18,44 -13,-40 -18,-35 -26,-40 -53,-17 -58,-5 z"
   id="path116"
   inkscape:connector-curvature="0"
   style="fill:#ffffdf;stroke:none" />
         <path
   d="m 9666,18827 31,17 26,36 5,39 -14,27 -17,26 -31,18 -53,9 53,13 44,-4 48,-36 18,-48 v -53 l -40,-75 z"
   id="path118"
   inkscape:connector-curvature="0"
   style="fill:#ffffdf;stroke:none" />
         <path
   d="m 9233,18915 -30,18 -27,39 -4,36 8,26 23,26 30,18 53,9 -53,13 -48,-4 -44,-36 -22,-48 v -53 l 44,-75 z"
   id="path120"
   inkscape:connector-curvature="0"
   style="fill:#ffffdf;stroke:none" />
         <path
   d="m 7817,17150 75,-92 97,-89 124,-83 57,-27 31,62 13,66 -13,66 -9,27 67,4 79,22 79,57 58,62 119,88 13,124 40,40 35,48 18,49 4,57 -9,44 31,31 35,53 58,-4 44,114 18,146 -49,79 -13,186 -58,176 -75,172 -88,150 -106,-48 141,-97 49,-190 -141,128 v -97 l 22,-221 -150,238 -44,-75 4,-83 137,-362 -185,207 128,-401 -172,119 88,-243 -221,146 49,-256 -150,115 -27,-146 -13,-146 27,-150 26,-101 -128,44 -75,9 z"
   id="path122"
   inkscape:connector-curvature="0"
   style="fill:#9f7f5f;stroke:none" />
         <path
   d="m 9238,16250 -53,-70 -75,-67 -71,-44 -92,-22 17,102 -66,-40 -66,-26 -75,-5 -66,5 26,48 9,53 141,71 h -154 l 119,123 -141,-26 31,92 53,80 176,137 -13,-120 h 141 l 9,-119 88,27 40,-71 z"
   id="path124"
   inkscape:connector-curvature="0"
   style="fill:#5f3f1f;stroke:none" />
         <path
   d="m 9467,16378 -75,-70 -75,-62 -150,-49 71,93 -88,-66 -75,-27 -93,-13 62,31 61,48 53,71 18,62 -71,-58 -92,-57 -141,40 75,40 79,57 44,93 -70,-53 -89,-31 -70,-9 -9,62 13,83 49,84 -163,-22 35,80 150,83 -124,-17 -110,17 379,234 468,-538 z"
   id="path126"
   inkscape:connector-curvature="0"
   style="fill:#9f7f5f;stroke:none" />
         <path
   d="m 9119,17305 -278,-75 -75,-62 150,-9 -141,-57 158,-18 -101,-123 -31,-115 71,88 123,57 -79,-114 123,35 -110,-172 154,48 -30,-141 -111,-75 h 137 l 75,53 -71,-154 146,4 -53,-62 115,-4 -9,-75 v -48 l 97,61 97,111 -26,-133 4,-66 84,71 48,53 36,-89 66,150 22,-88 40,159 119,159 22,-119 31,92 39,-84 14,186 75,137 8,-137 71,242 31,45 13,48 40,-9 17,80 71,8 26,45 -26,163 22,26 18,106 -44,9 22,97 -31,62 -58,70 -180,261 -292,-71 z"
   id="path128"
   inkscape:connector-curvature="0"
   style="fill:#ffffdf;stroke:none" />
         <path
   d="m 9308,17186 -339,-278 -31,26 -137,-119 62,141 106,150 -88,5 141,75 -186,-9 199,141 -234,-9 265,212 141,31 110,79 150,66 75,75 111,93 105,62 -35,-150 18,-71 264,225 45,-31 -433,-375 -62,-123 -110,-5 z"
   id="path130"
   inkscape:connector-curvature="0"
   style="fill:#c0c0c0;stroke:none" />
         <path
   d="m 9105,17093 58,70 92,53 177,234 57,-13 75,53 106,216 -128,-132 v 79 l -251,-181 -128,-159 -58,-101 z"
   id="path132"
   inkscape:connector-curvature="0"
   style="fill:#808080;stroke:none" />
         <path
   d="m 9675,17525 -18,-57 31,-62 53,79 17,-48 14,66 8,53 97,40 98,92 -98,-8 -22,22 -145,-128 z"
   id="path134"
   inkscape:connector-curvature="0"
   style="fill:#3f3f3f;stroke:none" />
         <path
   d="m 9361,16722 93,353 93,62 79,-31 115,185 -31,-145 88,-40 -123,-62 -36,-101 -53,88 -97,-163 -53,40 z"
   id="path136"
   inkscape:connector-curvature="0"
   style="fill:#9f9f9f;stroke:none" />
         <path
   d="m 9741,16625 181,190 150,265 53,-5 61,75 80,44 -31,137 -88,-137 -71,-22 -128,-189 -71,-14 -66,-181 z"
   id="path138"
   inkscape:connector-curvature="0"
   style="fill:#c0c0c0;stroke:none" />
         <path
   d="m 9719,17155 35,31 40,-40 44,150 39,-62 67,115 13,-53 40,88 35,-40 31,89 48,-36 -13,119 -35,-22 17,115 -48,-22 -13,22 -89,-13 -101,-62 40,-57 -36,-22 58,-71 -80,-13 -75,-49 36,-35 v -31 l -44,27 z"
   id="path140"
   inkscape:connector-curvature="0"
   style="fill:#3f1f00;stroke:none" />
         <path
   d="m 10049,17508 c 0,13 -3,25 -10,37 -7,11 -16,20 -27,27 -12,7 -24,10 -37,10 -14,0 -26,-3 -38,-10 -11,-7 -20,-16 -27,-27 -7,-12 -10,-24 -10,-37 0,-14 3,-26 10,-38 7,-11 16,-20 27,-27 12,-7 24,-10 38,-10 13,0 25,3 37,10 11,7 20,16 27,27 7,12 10,24 10,38 z"
   id="path142"
   inkscape:connector-curvature="0"
   style="fill:#ffffff;stroke:none" />
         <path
   d="m 10036,17529 c 0,8 -2,17 -6,24 -4,7 -10,13 -17,18 -7,4 -15,6 -23,6 -8,0 -16,-2 -23,-6 -7,-5 -13,-11 -17,-18 -4,-7 -6,-16 -6,-24 0,-8 2,-17 6,-24 4,-7 10,-13 17,-18 7,-4 15,-6 23,-6 8,0 16,2 23,6 7,5 13,11 17,18 4,7 6,16 6,24 z"
   id="path144"
   inkscape:connector-curvature="0"
   style="fill:#000000;stroke:none" />
         <path
   d="m 9657,17838 84,40 -44,-97 39,-101 115,83 154,159 58,-53 -9,-123 40,-5 39,-48 71,-13 44,39 49,128 57,190 44,84 -18,114 -92,40 -194,62 106,-79 -23,-31 -79,-53 -35,-80 -168,-92 155,247 22,57 -97,-44 -62,-44 -128,-150 z"
   id="path146"
   inkscape:connector-curvature="0"
   style="fill:#bf3f00;stroke:none" />
         <path
   d="m 9767,17781 -9,62 9,53 31,79 40,71 62,75 79,84 93,79 -49,-97 -57,-110 -80,-128 z"
   id="path148"
   inkscape:connector-curvature="0"
   style="fill:#ff0000;stroke:none" />
        </g>
       </g>
      </g>
     </g>
    </g>
   </g>
  </g>
 </g>
</svg>