<?xml version="1.0" encoding="UTF-8" standalone="no"?>
<svg
   xmlns:ooo="http://xml.openoffice.org/svg/export"
   xmlns:dc="http://purl.org/dc/elements/1.1/"
   xmlns:cc="http://creativecommons.org/ns#"
   xmlns:rdf="http://www.w3.org/1999/02/22-rdf-syntax-ns#"
   xmlns:svg="http://www.w3.org/2000/svg"
   xmlns="http://www.w3.org/2000/svg"
   xmlns:sodipodi="http://sodipodi.sourceforge.net/DTD/sodipodi-0.dtd"
   xmlns:inkscape="http://www.inkscape.org/namespaces/inkscape"
   version="1.2"
   width="127.26mm"
   height="64.209999mm"
   viewBox="0 0 12726 6420.9999"
   preserveAspectRatio="xMidYMid"
   xml:space="preserve"
   id="svg116"
   sodipodi:docname="eurasia.svg"
   style="fill-rule:evenodd;stroke-width:28.22200012;stroke-linejoin:round"
   inkscape:version="0.92.5 (2060ec1f9f, 2020-04-08)"><metadata
   id="metadata120"><rdf:RDF><cc:Work
       rdf:about=""><dc:format>image/svg+xml</dc:format><dc:type
         rdf:resource="http://purl.org/dc/dcmitype/StillImage" /></cc:Work></rdf:RDF></metadata><sodipodi:namedview
   pagecolor="#ffffff"
   bordercolor="#666666"
   borderopacity="1"
   objecttolerance="10"
   gridtolerance="10"
   guidetolerance="10"
   inkscape:pageopacity="0"
   inkscape:pageshadow="2"
   inkscape:window-width="664"
   inkscape:window-height="487"
   id="namedview118"
   showgrid="false"
   inkscape:zoom="0.2102413"
   inkscape:cx="240.49134"
   inkscape:cy="121.32283"
   inkscape:window-x="0"
   inkscape:window-y="0"
   inkscape:window-maximized="0"
   inkscape:current-layer="svg116" />
 <defs
   class="ClipPathGroup"
   id="defs8">
  <clipPath
   id="presentation_clip_path"
   clipPathUnits="userSpaceOnUse">
   <rect
   x="0"
   y="0"
   width="21000"
   height="29700"
   id="rect2" />
  </clipPath>
  <clipPath
   id="presentation_clip_path_shrink"
   clipPathUnits="userSpaceOnUse">
   <rect
   x="21"
   y="29"
   width="20958"
   height="29641"
   id="rect5" />
  </clipPath>
 </defs>
 <defs
   class="TextShapeIndex"
   id="defs12">
  <g
   ooo:slide="id1"
   ooo:id-list="id3"
   id="g10" />
 </defs>
 <defs
   class="EmbeddedBulletChars"
   id="defs44">
  <g
   id="bullet-char-template-57356"
   transform="matrix(4.8828125e-4,0,0,-4.8828125e-4,0,0)">
   <path
   d="M 580,1141 1163,571 580,0 -4,571 Z"
   id="path14"
   inkscape:connector-curvature="0" />
  </g>
  <g
   id="bullet-char-template-57354"
   transform="matrix(4.8828125e-4,0,0,-4.8828125e-4,0,0)">
   <path
   d="M 8,1128 H 1137 V 0 H 8 Z"
   id="path17"
   inkscape:connector-curvature="0" />
  </g>
  <g
   id="bullet-char-template-10146"
   transform="matrix(4.8828125e-4,0,0,-4.8828125e-4,0,0)">
   <path
   d="M 174,0 602,739 174,1481 1456,739 Z M 1358,739 309,1346 659,739 Z"
   id="path20"
   inkscape:connector-curvature="0" />
  </g>
  <g
   id="bullet-char-template-10132"
   transform="matrix(4.8828125e-4,0,0,-4.8828125e-4,0,0)">
   <path
   d="M 2015,739 1276,0 H 717 l 543,543 H 174 v 393 h 1086 l -543,545 h 557 z"
   id="path23"
   inkscape:connector-curvature="0" />
  </g>
  <g
   id="bullet-char-template-10007"
   transform="matrix(4.8828125e-4,0,0,-4.8828125e-4,0,0)">
   <path
   d="m 0,-2 c -7,16 -16,29 -25,39 l 381,530 c -94,256 -141,385 -141,387 0,25 13,38 40,38 9,0 21,-2 34,-5 21,4 42,12 65,25 l 27,-13 111,-251 280,301 64,-25 24,25 c 21,-10 41,-24 62,-43 C 886,937 835,863 770,784 769,783 710,716 594,584 L 774,223 c 0,-27 -21,-55 -63,-84 l 16,-20 C 717,90 699,76 672,76 641,76 570,178 457,381 L 164,-76 c -22,-34 -53,-51 -92,-51 -42,0 -63,17 -64,51 -7,9 -10,24 -10,44 0,9 1,19 2,30 z"
   id="path26"
   inkscape:connector-curvature="0" />
  </g>
  <g
   id="bullet-char-template-10004"
   transform="matrix(4.8828125e-4,0,0,-4.8828125e-4,0,0)">
   <path
   d="M 285,-33 C 182,-33 111,30 74,156 52,228 41,333 41,471 c 0,78 14,145 41,201 34,71 87,106 158,106 53,0 88,-31 106,-94 l 23,-176 c 8,-64 28,-97 59,-98 l 735,706 c 11,11 33,17 66,17 42,0 63,-15 63,-46 V 965 c 0,-36 -10,-64 -30,-84 L 442,47 C 390,-6 338,-33 285,-33 Z"
   id="path29"
   inkscape:connector-curvature="0" />
  </g>
  <g
   id="bullet-char-template-9679"
   transform="matrix(4.8828125e-4,0,0,-4.8828125e-4,0,0)">
   <path
   d="M 813,0 C 632,0 489,54 383,161 276,268 223,411 223,592 c 0,181 53,324 160,431 106,107 249,161 430,161 179,0 323,-54 432,-161 108,-107 162,-251 162,-431 0,-180 -54,-324 -162,-431 C 1136,54 992,0 813,0 Z"
   id="path32"
   inkscape:connector-curvature="0" />
  </g>
  <g
   id="bullet-char-template-8226"
   transform="matrix(4.8828125e-4,0,0,-4.8828125e-4,0,0)">
   <path
   d="m 346,457 c -73,0 -137,26 -191,78 -54,51 -81,114 -81,188 0,73 27,136 81,188 54,52 118,78 191,78 73,0 134,-26 185,-79 51,-51 77,-114 77,-187 0,-75 -25,-137 -76,-188 -50,-52 -112,-78 -186,-78 z"
   id="path35"
   inkscape:connector-curvature="0" />
  </g>
  <g
   id="bullet-char-template-8211"
   transform="matrix(4.8828125e-4,0,0,-4.8828125e-4,0,0)">
   <path
   d="M -4,459 H 1135 V 606 H -4 Z"
   id="path38"
   inkscape:connector-curvature="0" />
  </g>
  <g
   id="bullet-char-template-61548"
   transform="matrix(4.8828125e-4,0,0,-4.8828125e-4,0,0)">
   <path
   d="m 173,740 c 0,163 58,303 173,419 116,115 255,173 419,173 163,0 302,-58 418,-173 116,-116 174,-256 174,-419 0,-163 -58,-303 -174,-418 C 1067,206 928,148 765,148 601,148 462,206 346,322 231,437 173,577 173,740 Z"
   id="path41"
   inkscape:connector-curvature="0" />
  </g>
 </defs>
 <g
   id="g49"
   transform="translate(-4137,-11639)">
  <g
   id="id2"
   class="Master_Slide">
   <g
   id="bg-id2"
   class="Background" />
   <g
   id="bo-id2"
   class="BackgroundObjects" />
  </g>
 </g>
 <g
   class="SlideGroup"
   id="g114"
   transform="translate(-4137,-11639)">
  <g
   id="g112">
   <g
   id="container-id1">
    <g
   id="id1"
   class="Slide"
   clip-path="url(#presentation_clip_path)">
     <g
   class="Page"
   id="g108">
      <g
   class="Graphic"
   id="g106">
       <g
   id="id3">
        <rect
   class="BoundingBox"
   x="4137"
   y="11639"
   width="12726"
   height="6421"
   id="rect51"
   style="fill:none;stroke:none" />
        <defs
   id="defs56">
         <clipPath
   id="clip_path_1"
   clipPathUnits="userSpaceOnUse">
          <path
   d="m 4137,11639 h 12725 v 6420 H 4137 Z"
   id="path53"
   inkscape:connector-curvature="0" />
         </clipPath>
        </defs>
        <g
   clip-path="url(#clip_path_1)"
   id="g58" />
        <defs
   id="defs63">
         <clipPath
   id="clip_path_2"
   clipPathUnits="userSpaceOnUse">
          <path
   d="m 4146,11639 h 12703 v 6412 H 4146 Z"
   id="path60"
   inkscape:connector-curvature="0" />
         </clipPath>
        </defs>
        <g
   clip-path="url(#clip_path_2)"
   id="g101">
         <path
   d="m 13003,15906 53,45 44,-5 75,18 h 53 l 9,-80 -13,-48 -35,-58 h -49 l -22,-35 h -44 v 58 z"
   id="path65"
   inkscape:connector-curvature="0"
   style="fill:#008000;stroke:none" />
         <path
   d="m 13696,15359 106,5 31,83 39,31 -35,40 35,44 -13,49 -35,22 -71,-5 h -35 l -27,-39 -39,-40 v -35 l -5,-58 z"
   id="path67"
   inkscape:connector-curvature="0"
   style="fill:#008000;stroke:none" />
         <path
   d="m 13652,13819 66,31 48,-9 71,9 h 71 l 35,26 35,58 22,26 -84,18 -35,26 35,31 v 27 l -92,-27 -75,-26 -31,9 v 44 l -66,9 -18,-36 -4,-57 -27,-13 27,-40 31,-18 z"
   id="path69"
   inkscape:connector-curvature="0"
   style="fill:#008000;stroke:none" />
         <path
   d="m 5116,13157 27,-48 h 66 l 70,-71 40,48 h 31 l 13,23 -26,48 -18,13 v 31 l -13,13 -13,45 26,17 -40,40 -17,13 h -27 l -13,5 -9,39 -35,5 -13,-5 -36,14 -4,4 -44,26 h -13 l -9,-13 -13,-31 -5,-13 v -40 l 27,-17 31,-14 8,-26 h 22 l 23,4 26,-4 -26,-4 z"
   id="path71"
   inkscape:connector-curvature="0"
   style="fill:#008000;stroke:none" />
         <path
   d="m 5465,12879 26,-26 71,4 17,-18 14,-13 h 22 l 26,-4 13,-27 36,-22 48,9 -13,44 -22,13 -13,14 -18,4 -40,22 v 40 l 9,17 35,-17 49,-27 13,27 v 35 l -39,13 h -36 l -17,27 -5,13 v 31 l 13,26 22,27 23,26 4,40 9,22 26,49 v 61 l -26,31 -36,31 -4,22 18,18 13,40 h -49 -39 l -22,-14 h -31 l -31,14 -40,13 h -26 l -18,18 -31,13 -22,-5 -13,-26 -27,-9 -17,-4 v -40 l 17,-31 h 27 l 35,-9 h 22 v -17 l -22,-14 v -26 -18 l 22,-9 14,-4 22,-4 h 26 l 22,-14 9,-75 18,-53 v -26 l -58,-5 13,-35 -39,-26 -31,9 40,-67 z"
   id="path73"
   inkscape:connector-curvature="0"
   style="fill:#008000;stroke:none" />
         <path
   d="m 4146,12782 141,-18 40,-48 44,-36 13,-26 h 35 l 22,-26 h 53 27 26 27 l 31,-27 13,-31 31,-26 44,-9 26,-18 31,-4 22,-9 35,-27 36,-17 44,-27 40,14 61,13 h 71 l 70,-27 36,-4 26,-40 31,-44 57,-40 27,-22 v -35 l 44,-26 27,-27 13,-18 26,-8 75,-58 v 58 l -17,22 17,22 58,9 h 30 l 36,-27 31,-26 v -31 l 17,-27 v -26 l 27,-27 13,-22 h 53 84 l 57,-35 66,-40 58,-22 61,-40 40,-70 88,-71 66,-35 53,-35 62,-40 -97,-18 h -101 l -97,35 -58,23 -75,17 -92,5 -58,26 -110,35 -57,22 -71,27 -84,26 -75,14 -84,39 -61,40 -49,35 -44,40 -49,22 -88,49 -88,53 -110,57 -84,84 -71,53 -79,31 -75,70 -44,58 -71,44 -66,35 -66,35 z"
   id="path75"
   inkscape:connector-curvature="0"
   style="fill:#008000;stroke:none" />
         <path
   d="m 13286,17729 119,35 h 101 88 58 l 66,9 57,27 36,70 39,13 58,-8 h 66 l 70,35 53,18 h 31 l 13,-45 27,-13 97,5 h 79 75 l 58,26 35,13 62,-4 35,-22 26,-13 h 67 l 48,-5 53,-26 h 31 l -5,57 -22,27 -30,17 h -27 -18 l -39,13 -31,31 -31,-4 -35,-13 -36,13 -35,4 h -26 l -22,22 h -67 l -26,-26 -31,-40 -40,40 -26,26 h -31 l -57,-66 -18,13 h -35 l -27,31 -48,-4 h -44 l -40,-13 -22,-27 -49,13 -53,31 -30,-4 -58,-13 -53,-31 h -61 l -97,-27 -58,-13 -53,-13 -57,-5 -53,-35 -31,-4 -18,-13 -8,-14 z"
   id="path77"
   inkscape:connector-curvature="0"
   style="fill:#008000;stroke:none" />
         <path
   d="m 14313,17169 164,8 h 158 l 84,-8 115,44 -62,26 -53,22 -26,13 -18,23 v 13 26 l -44,18 h -49 l -8,4 h -49 l -13,-22 -35,-35 -36,-27 h -61 -23 l -13,49 9,35 v 27 l 4,26 40,-13 44,-18 h 36 l 22,14 v 17 l -9,31 -13,13 v 22 l -9,27 22,22 31,35 4,-9 v 31 l -13,27 -18,26 -4,40 -35,18 h -18 -31 v -36 l -9,-61 -26,-14 -14,-22 14,-53 -27,-13 -57,13 -22,-13 -27,27 27,17 35,13 13,14 27,31 v 26 l -27,44 -30,36 -18,4 v -27 -22 l 4,-35 -39,-26 -45,-18 -4,-27 -40,-13 5,-44 35,-26 22,-31 27,-53 8,-44 -8,-40 13,-18 22,-13 -27,-31 z"
   id="path79"
   inkscape:connector-curvature="0"
   style="fill:#008000;stroke:none" />
         <path
   d="m 13396,17177 150,-114 88,-49 31,-48 141,-36 66,89 71,-40 22,-27 62,-22 h 31 l 4,31 v 27 l -31,35 v 26 l 88,111 22,66 h 27 l 4,35 -31,36 -39,-23 -44,27 4,66 -75,44 v 111 70 l -22,31 -22,53 -35,-9 -49,-17 -48,-31 -36,-40 -123,4 -102,-22 -57,-66 -44,-53 -27,-44 v -75 z"
   id="path81"
   inkscape:connector-curvature="0"
   style="fill:#008000;stroke:none" />
         <path
   d="m 15041,17354 141,4 111,9 39,102 14,35 8,18 49,-27 h 44 l 31,27 26,-14 44,-39 h 9 l 49,-27 h 40 l 127,53 h 67 l 53,44 61,13 40,31 53,9 106,31 53,57 13,36 -9,17 53,31 31,9 13,13 49,5 61,53 v 31 l 45,35 8,18 58,61 -53,67 h -13 -49 l -22,-31 h -26 l -23,4 -132,-128 -62,9 -79,-9 -22,13 -35,27 -5,-13 -26,44 -53,53 -49,-27 -39,-13 h -44 l -40,-13 -27,13 -39,-84 -49,-75 -66,-93 -44,-53 -53,-44 h -75 l -84,22 -53,-35 -75,-26 -48,-18 v -102 l 8,-39 z"
   id="path83"
   inkscape:connector-curvature="0"
   style="fill:#008000;stroke:none" />
         <path
   d="m 16532,17597 -62,132 27,44 101,13 h 97 l 31,-53 27,-53 h 101 l -17,-70 v -71 l -102,-44 -22,84 71,44 h -102 l -26,35 z"
   id="path85"
   inkscape:connector-curvature="0"
   style="fill:#008000;stroke:none" />
         <path
   d="m 12298,16877 88,-26 101,40 22,44 v 17 l 31,9 v 18 l 27,9 v 31 l 110,101 h 13 l 18,26 26,23 h 13 l 71,35 146,9 8,123 27,18 -9,40 93,57 61,26 v 190 l 53,75 -26,22 -57,9 -9,-66 -84,66 -49,-97 -39,-66 -89,-88 h -39 l -93,-53 -9,-49 v -35 l -70,-133 -40,-83 -93,-75 -127,-115 z"
   id="path87"
   inkscape:connector-curvature="0"
   style="fill:#008000;stroke:none" />
         <path
   d="m 13956,15853 h 75 l 71,111 -5,97 49,31 26,70 58,31 66,9 101,53 66,62 h 14 l 83,53 v 128 l 22,57 27,31 44,31 22,48 18,49 79,40 -13,53 -71,4 -26,-40 h -53 v 106 h -35 l -53,-44 -31,-26 v -58 h -80 l -26,58 -27,-58 -4,-61 88,-23 53,5 5,-88 -44,-36 -36,-88 -22,-101 -97,-31 -35,-49 -80,-22 45,88 -84,53 -49,-110 -39,-27 v -57 l -71,-79 -57,-31 -40,-40 26,-44 49,26 13,-39 -13,-58 z"
   id="path89"
   inkscape:connector-curvature="0"
   style="fill:#008000;stroke:none" />
         <path
   d="m 13833,14128 123,49 75,66 53,70 h 35 l -17,53 66,27 31,57 84,102 57,114 -110,-13 -84,-9 57,71 v 57 44 l -31,-17 -44,-40 -70,-57 -45,-22 -66,22 -39,13 22,48 57,36 75,22 26,66 -4,79 v 23 h -26 l -45,-23 -26,-22 -13,-13 -27,53 -39,5 -36,-45 v -61 l -9,-53 -39,-22 -49,48 h -57 l -22,-40 22,-83 48,-45 -13,-128 v -48 l 53,-5 44,45 71,13 v -66 l -40,-22 -9,-27 h 18 26 14 17 l 27,-26 -9,-31 -22,-53 -62,-66 -57,-27 -22,-48 z"
   id="path91"
   inkscape:connector-curvature="0"
   style="fill:#008000;stroke:none" />
         <path
   d="m 12964,13078 h 57 l 35,57 84,66 49,88 61,5 58,22 31,35 h 57 l 53,40 57,44 44,35 -4,27 -27,4 h -30 l -27,27 75,57 53,44 62,58 -44,48 -44,18 4,40 h -62 l -26,-36 -58,-57 -44,-62 -66,-106 -84,-62 -84,-110 -44,-40 -39,-26 -18,-49 -71,-66 v -22 z"
   id="path93"
   inkscape:connector-curvature="0"
   style="fill:#008000;stroke:none" />
         <path
   d="m 4918,14141 84,-79 44,-53 h 110 l 115,13 83,-35 93,-9 5,-102 52,-57 -123,-84 -18,-48 14,-84 h 88 l 66,-13 4,13 58,-58 70,-26 h 27 l 48,-44 44,-13 58,-89 31,14 57,-58 h 22 l 71,-62 57,-4 h 57 53 l -48,-93 -14,-75 -17,-141 101,-4 62,-14 -35,45 44,53 39,44 23,31 114,-14 102,-119 84,-53 30,-44 62,-44 35,-71 53,18 v -40 l 27,-17 75,13 123,101 -26,-295 -110,136 -84,-13 -18,-79 v -44 l -40,-27 80,-66 31,-49 53,-8 31,-5 17,-53 40,-4 h 44 l -84,-80 -70,27 h -45 l -44,-31 v 44 l -53,53 -44,84 -70,31 h -31 l -13,57 v 27 l -44,26 48,97 27,58 -53,70 -58,44 -17,84 -31,53 h -40 l -44,5 -57,26 -14,-4 v -49 l -9,-62 h -39 l -31,-39 22,-58 4,-31 -4,-22 -49,22 h -13 l -17,-13 -14,-9 -53,31 -30,53 -45,31 -88,-4 -66,-14 -31,-31 v -35 l 13,-31 31,-17 40,-40 -71,26 -13,-53 v -26 l 84,-4 62,-9 -44,-18 -75,4 v -57 l 30,-31 71,-26 27,-40 30,-18 53,-4 58,4 26,18 31,-22 -31,-9 v -70 l 106,-67 49,-57 44,-4 -9,-27 48,-57 58,-67 57,-44 -40,-31 128,-79 66,13 -22,-44 124,-9 220,-132 31,-9 -44,93 49,-44 61,-22 -13,39 172,-44 89,35 -120,53 40,40 168,-9 238,84 -9,75 -106,75 -141,44 -31,93 5,84 44,13 9,49 17,8 35,18 5,44 53,66 v 18 h 48 l 14,22 48,18 18,-27 26,-44 18,-13 40,9 52,-62 v -44 l 23,-18 8,-39 102,-18 70,-27 111,-26 136,13 h 120 207 l 31,-207 119,13 79,154 22,-136 380,-358 h 145 l 137,71 172,-9 234,141 278,66 181,-13 255,84 h 208 l 101,-62 h 230 l 123,71 h 318 l 260,115 485,-23 772,53 379,155 318,106 198,88 -57,18 -141,-71 -326,-18 92,71 146,27 -40,110 -163,70 -40,111 203,88 141,141 71,186 -88,26 -203,-66 -208,-137 -92,-79 -44,-102 -58,-141 -84,-62 -61,-4 -80,13 84,115 -207,26 -88,-66 -172,35 -137,89 v 57 l 57,79 207,31 159,111 291,260 115,190 9,194 -13,146 h -80 l -61,-45 -111,67 -110,70 -27,115 124,128 -71,110 -26,186 141,119 150,22 177,123 132,177 4,243 -39,114 -159,97 -177,58 -114,70 -71,-35 -57,35 -18,190 49,111 176,114 75,137 66,71 -22,132 -119,102 h -123 l -199,-150 -141,-67 -57,-26 -62,84 13,123 62,89 22,141 132,53 -40,70 14,111 31,106 -84,-5 -88,-128 13,-128 -40,-53 -35,-141 -31,-40 -27,-216 -57,-128 -101,-132 -181,-58 -137,-101 -44,-84 -97,-93 -141,-216 -119,18 -177,97 -62,92 -163,159 -110,164 -31,61 31,195 -4,198 -124,133 -84,8 -145,-282 -133,-194 -256,-367 -4,-150 -53,-57 -44,93 -221,-208 -282,-167 -185,39 -265,-26 -128,-115 -141,27 -203,-49 -410,-397 13,159 128,225 150,150 146,84 167,-58 h 137 l 172,142 93,110 -9,62 -309,304 -194,124 -525,229 -485,-728 -309,-481 -159,-234 172,-101 71,-212 -168,-53 -233,26 -45,-22 h -39 -18 -26 l -14,-35 -13,-40 v -57 l -44,-44 -9,-36 -26,-4 -22,-40 -9,-39 -18,-27 -22,-22 h -44 -31 -26 l -5,44 v 44 53 44 40 l -35,18 -31,26 -53,-44 -31,-70 9,-80 -62,-110 -22,-58 -53,-53 -66,-35 -31,-57 -26,-40 -57,-13 -18,-13 h -44 l -36,30 -26,36 71,48 48,44 71,80 31,31 53,35 48,49 -57,66 -5,-27 v -39 l -22,83 -4,67 -53,17 22,-84 -13,-44 -58,-31 -26,-13 -22,-26 -58,-27 -26,-31 -44,-44 -40,-22 -17,-57 -5,-40 -48,-13 -31,-31 h -58 l -66,9 -62,-9 -114,9 -84,17 -26,14 -9,44 v 66 l -44,49 -40,22 -18,26 -26,44 -13,31 26,31 v 49 l -13,17 -13,44 -45,53 -26,-17 -26,4 -18,26 -57,5 -53,53 -53,4 h -49 -44 l -110,22 h -53 l -27,-53 -26,-70 -9,-75 -9,-62 v -84 z"
   id="path95"
   inkscape:connector-curvature="0"
   style="fill:#008000;stroke:none" />
         <path
   d="m 6418,14397 v 110 l -40,5 -84,-88 40,-31 z"
   id="path97"
   inkscape:connector-curvature="0"
   style="fill:#008000;stroke:none" />
         <path
   d="m 6166,14185 -101,40 13,141 62,-13 z"
   id="path99"
   inkscape:connector-curvature="0"
   style="fill:#008000;stroke:none" />
        </g>
        <g
   clip-path="url(#clip_path_1)"
   id="g103" />
       </g>
      </g>
     </g>
    </g>
   </g>
  </g>
 </g>
</svg>