<?xml version="1.0" encoding="UTF-8" standalone="no"?>
<svg
   xmlns:ooo="http://xml.openoffice.org/svg/export"
   xmlns:dc="http://purl.org/dc/elements/1.1/"
   xmlns:cc="http://creativecommons.org/ns#"
   xmlns:rdf="http://www.w3.org/1999/02/22-rdf-syntax-ns#"
   xmlns:svg="http://www.w3.org/2000/svg"
   xmlns="http://www.w3.org/2000/svg"
   xmlns:sodipodi="http://sodipodi.sourceforge.net/DTD/sodipodi-0.dtd"
   xmlns:inkscape="http://www.inkscape.org/namespaces/inkscape"
   version="1.2"
   width="164.09mm"
   height="102.75mm"
   viewBox="0 0 16409 10275"
   preserveAspectRatio="xMidYMid"
   xml:space="preserve"
   id="svg271"
   sodipodi:docname="factory1.svg"
   style="fill-rule:evenodd;stroke-width:28.22200012;stroke-linejoin:round"
   inkscape:version="0.92.5 (2060ec1f9f, 2020-04-08)"><metadata
   id="metadata275"><rdf:RDF><cc:Work
       rdf:about=""><dc:format>image/svg+xml</dc:format><dc:type
         rdf:resource="http://purl.org/dc/dcmitype/StillImage" /></cc:Work></rdf:RDF></metadata><sodipodi:namedview
   pagecolor="#ffffff"
   bordercolor="#666666"
   borderopacity="1"
   objecttolerance="10"
   gridtolerance="10"
   guidetolerance="10"
   inkscape:pageopacity="0"
   inkscape:pageshadow="2"
   inkscape:window-width="664"
   inkscape:window-height="487"
   id="namedview273"
   showgrid="false"
   inkscape:zoom="0.2102413"
   inkscape:cx="310.11024"
   inkscape:cy="194.15433"
   inkscape:window-x="0"
   inkscape:window-y="0"
   inkscape:window-maximized="0"
   inkscape:current-layer="svg271" />
 <defs
   class="ClipPathGroup"
   id="defs8">
  <clipPath
   id="presentation_clip_path"
   clipPathUnits="userSpaceOnUse">
   <rect
   x="0"
   y="0"
   width="21000"
   height="29700"
   id="rect2" />
  </clipPath>
  <clipPath
   id="presentation_clip_path_shrink"
   clipPathUnits="userSpaceOnUse">
   <rect
   x="21"
   y="29"
   width="20958"
   height="29641"
   id="rect5" />
  </clipPath>
 </defs>
 <defs
   class="TextShapeIndex"
   id="defs12">
  <g
   ooo:slide="id1"
   ooo:id-list="id3"
   id="g10" />
 </defs>
 <defs
   class="EmbeddedBulletChars"
   id="defs44">
  <g
   id="bullet-char-template-57356"
   transform="matrix(4.8828125e-4,0,0,-4.8828125e-4,0,0)">
   <path
   d="M 580,1141 1163,571 580,0 -4,571 Z"
   id="path14"
   inkscape:connector-curvature="0" />
  </g>
  <g
   id="bullet-char-template-57354"
   transform="matrix(4.8828125e-4,0,0,-4.8828125e-4,0,0)">
   <path
   d="M 8,1128 H 1137 V 0 H 8 Z"
   id="path17"
   inkscape:connector-curvature="0" />
  </g>
  <g
   id="bullet-char-template-10146"
   transform="matrix(4.8828125e-4,0,0,-4.8828125e-4,0,0)">
   <path
   d="M 174,0 602,739 174,1481 1456,739 Z M 1358,739 309,1346 659,739 Z"
   id="path20"
   inkscape:connector-curvature="0" />
  </g>
  <g
   id="bullet-char-template-10132"
   transform="matrix(4.8828125e-4,0,0,-4.8828125e-4,0,0)">
   <path
   d="M 2015,739 1276,0 H 717 l 543,543 H 174 v 393 h 1086 l -543,545 h 557 z"
   id="path23"
   inkscape:connector-curvature="0" />
  </g>
  <g
   id="bullet-char-template-10007"
   transform="matrix(4.8828125e-4,0,0,-4.8828125e-4,0,0)">
   <path
   d="m 0,-2 c -7,16 -16,29 -25,39 l 381,530 c -94,256 -141,385 -141,387 0,25 13,38 40,38 9,0 21,-2 34,-5 21,4 42,12 65,25 l 27,-13 111,-251 280,301 64,-25 24,25 c 21,-10 41,-24 62,-43 C 886,937 835,863 770,784 769,783 710,716 594,584 L 774,223 c 0,-27 -21,-55 -63,-84 l 16,-20 C 717,90 699,76 672,76 641,76 570,178 457,381 L 164,-76 c -22,-34 -53,-51 -92,-51 -42,0 -63,17 -64,51 -7,9 -10,24 -10,44 0,9 1,19 2,30 z"
   id="path26"
   inkscape:connector-curvature="0" />
  </g>
  <g
   id="bullet-char-template-10004"
   transform="matrix(4.8828125e-4,0,0,-4.8828125e-4,0,0)">
   <path
   d="M 285,-33 C 182,-33 111,30 74,156 52,228 41,333 41,471 c 0,78 14,145 41,201 34,71 87,106 158,106 53,0 88,-31 106,-94 l 23,-176 c 8,-64 28,-97 59,-98 l 735,706 c 11,11 33,17 66,17 42,0 63,-15 63,-46 V 965 c 0,-36 -10,-64 -30,-84 L 442,47 C 390,-6 338,-33 285,-33 Z"
   id="path29"
   inkscape:connector-curvature="0" />
  </g>
  <g
   id="bullet-char-template-9679"
   transform="matrix(4.8828125e-4,0,0,-4.8828125e-4,0,0)">
   <path
   d="M 813,0 C 632,0 489,54 383,161 276,268 223,411 223,592 c 0,181 53,324 160,431 106,107 249,161 430,161 179,0 323,-54 432,-161 108,-107 162,-251 162,-431 0,-180 -54,-324 -162,-431 C 1136,54 992,0 813,0 Z"
   id="path32"
   inkscape:connector-curvature="0" />
  </g>
  <g
   id="bullet-char-template-8226"
   transform="matrix(4.8828125e-4,0,0,-4.8828125e-4,0,0)">
   <path
   d="m 346,457 c -73,0 -137,26 -191,78 -54,51 -81,114 -81,188 0,73 27,136 81,188 54,52 118,78 191,78 73,0 134,-26 185,-79 51,-51 77,-114 77,-187 0,-75 -25,-137 -76,-188 -50,-52 -112,-78 -186,-78 z"
   id="path35"
   inkscape:connector-curvature="0" />
  </g>
  <g
   id="bullet-char-template-8211"
   transform="matrix(4.8828125e-4,0,0,-4.8828125e-4,0,0)">
   <path
   d="M -4,459 H 1135 V 606 H -4 Z"
   id="path38"
   inkscape:connector-curvature="0" />
  </g>
  <g
   id="bullet-char-template-61548"
   transform="matrix(4.8828125e-4,0,0,-4.8828125e-4,0,0)">
   <path
   d="m 173,740 c 0,163 58,303 173,419 116,115 255,173 419,173 163,0 302,-58 418,-173 116,-116 174,-256 174,-419 0,-163 -58,-303 -174,-418 C 1067,206 928,148 765,148 601,148 462,206 346,322 231,437 173,577 173,740 Z"
   id="path41"
   inkscape:connector-curvature="0" />
  </g>
 </defs>
 <g
   id="g49"
   transform="translate(-2295,-9712)">
  <g
   id="id2"
   class="Master_Slide">
   <g
   id="bg-id2"
   class="Background" />
   <g
   id="bo-id2"
   class="BackgroundObjects" />
  </g>
 </g>
 <g
   class="SlideGroup"
   id="g269"
   transform="translate(-2295,-9712)">
  <g
   id="g267">
   <g
   id="container-id1">
    <g
   id="id1"
   class="Slide"
   clip-path="url(#presentation_clip_path)">
     <g
   class="Page"
   id="g263">
      <g
   class="Graphic"
   id="g261">
       <g
   id="id3">
        <rect
   class="BoundingBox"
   x="2295"
   y="9712"
   width="16409"
   height="10275"
   id="rect51"
   style="fill:none;stroke:none" />
        <defs
   id="defs56">
         <clipPath
   id="clip_path_1"
   clipPathUnits="userSpaceOnUse">
          <path
   d="M 2295,9712 H 18703 V 19986 H 2295 Z"
   id="path53"
   inkscape:connector-curvature="0" />
         </clipPath>
        </defs>
        <g
   clip-path="url(#clip_path_1)"
   id="g258">
         <path
   d="m 7606,14631 v -569 l 2497,-406 v 693 z"
   id="path58"
   inkscape:connector-curvature="0"
   style="fill:#606060;stroke:none" />
         <path
   d="m 7606,14631 v -569 l 2497,-406 v 693 z"
   id="path60"
   inkscape:connector-curvature="0"
   style="fill:none;stroke:#606060;stroke-width:35;stroke-linecap:round;stroke-linejoin:round" />
         <path
   d="m 10103,13656 v 693 h 1190 v -508 z"
   id="path62"
   inkscape:connector-curvature="0"
   style="fill:#404040;stroke:none" />
         <path
   d="m 10826,15297 251,-5585 h 397 l 252,5585 z"
   id="path64"
   inkscape:connector-curvature="0"
   style="fill:#606060;stroke:none" />
         <path
   d="m 12326,15377 247,-5541 h 401 l 252,5541 z"
   id="path66"
   inkscape:connector-curvature="0"
   style="fill:#606060;stroke:none" />
         <path
   d="m 13975,15650 252,-5581 h 406 l 247,5581 z"
   id="path68"
   inkscape:connector-curvature="0"
   style="fill:#606060;stroke:none" />
         <path
   d="m 2930,16916 -529,27 -106,318 212,317 159,265 476,53 450,-80 556,27 264,26 503,239 291,185 265,265 291,291 238,238 662,238 370,53 159,27 h 80 53 52 53 80 185 450 344 53 53 53 53 53 l 53,26 h 53 53 52 l 53,27 583,105 211,80 292,159 158,106 1006,79 397,-132 265,-212 450,-212 264,-26 371,-53 529,-609 450,-80 h 159 79 l 80,27 h 105 80 79 l 80,26 h 53 l 53,27 h 52 l 53,26 53,27 318,53 609,-53 397,-371 370,-370 291,-159 477,79 423,-159 212,-344 688,-211 v -345 l -423,-185 z"
   id="path70"
   inkscape:connector-curvature="0"
   style="fill:#006000;stroke:none" />
         <path
   d="m 15837,17622 966,-234 304,75 -1028,230 z"
   id="path72"
   inkscape:connector-curvature="0"
   style="fill:#5b5b5b;stroke:none" />
         <path
   d="m 15837,17622 242,71 v 145 l -242,-92 z"
   id="path74"
   inkscape:connector-curvature="0"
   style="fill:#6c6c6c;stroke:none" />
         <path
   d="m 15837,16193 966,-53 -84,71 -882,48 z"
   id="path76"
   inkscape:connector-curvature="0"
   style="fill:#2f1d00;stroke:none" />
         <path
   d="m 15837,17622 966,-234 -84,-30 -882,203 z"
   id="path78"
   inkscape:connector-curvature="0"
   style="fill:#563500;stroke:none" />
         <path
   d="m 10561,14221 v 4795 L 2692,17049 v -1968 z"
   id="path80"
   inkscape:connector-curvature="0"
   style="fill:#600000;stroke:none" />
         <path
   d="m 2890,15275 v 1359 l 7155,1235 v -3097 z"
   id="path82"
   inkscape:connector-curvature="0"
   style="fill:#4040ff;stroke:none" />
         <path
   d="m 10045,15293 -7155,212"
   id="path84"
   inkscape:connector-curvature="0"
   style="fill:none;stroke:#404040;stroke-width:44;stroke-linecap:round;stroke-linejoin:round" />
         <path
   d="m 10045,15805 -7155,-75"
   id="path86"
   inkscape:connector-curvature="0"
   style="fill:none;stroke:#404040;stroke-width:44;stroke-linecap:round;stroke-linejoin:round" />
         <path
   d="M 10045,16325 2890,15963"
   id="path88"
   inkscape:connector-curvature="0"
   style="fill:none;stroke:#404040;stroke-width:44;stroke-linecap:round;stroke-linejoin:round" />
         <path
   d="M 10045,16837 2890,16188"
   id="path90"
   inkscape:connector-curvature="0"
   style="fill:none;stroke:#404040;stroke-width:44;stroke-linecap:round;stroke-linejoin:round" />
         <path
   d="M 10045,17353 2890,16413"
   id="path92"
   inkscape:connector-curvature="0"
   style="fill:none;stroke:#404040;stroke-width:44;stroke-linecap:round;stroke-linejoin:round" />
         <path
   d="m 9379,14838 v 2903"
   id="path94"
   inkscape:connector-curvature="0"
   style="fill:none;stroke:#404040;stroke-width:44;stroke-linecap:round;stroke-linejoin:round" />
         <path
   d="m 8792,14874 v 2784"
   id="path96"
   inkscape:connector-curvature="0"
   style="fill:none;stroke:#404040;stroke-width:44;stroke-linecap:round;stroke-linejoin:round" />
         <path
   d="m 8298,14905 v 2669"
   id="path98"
   inkscape:connector-curvature="0"
   style="fill:none;stroke:#404040;stroke-width:44;stroke-linecap:round;stroke-linejoin:round" />
         <path
   d="m 7804,14944 v 2542"
   id="path100"
   inkscape:connector-curvature="0"
   style="fill:none;stroke:#404040;stroke-width:44;stroke-linecap:round;stroke-linejoin:round" />
         <path
   d="m 7337,14966 v 2445"
   id="path102"
   inkscape:connector-curvature="0"
   style="fill:none;stroke:#404040;stroke-width:44;stroke-linecap:round;stroke-linejoin:round" />
         <path
   d="m 6966,14988 v 2348"
   id="path104"
   inkscape:connector-curvature="0"
   style="fill:none;stroke:#404040;stroke-width:44;stroke-linecap:round;stroke-linejoin:round" />
         <path
   d="m 6596,15015 v 2263"
   id="path106"
   inkscape:connector-curvature="0"
   style="fill:none;stroke:#404040;stroke-width:44;stroke-linecap:round;stroke-linejoin:round" />
         <path
   d="m 6269,15046 v 2175"
   id="path108"
   inkscape:connector-curvature="0"
   style="fill:none;stroke:#404040;stroke-width:44;stroke-linecap:round;stroke-linejoin:round" />
         <path
   d="m 5934,15063 v 2100"
   id="path110"
   inkscape:connector-curvature="0"
   style="fill:none;stroke:#404040;stroke-width:44;stroke-linecap:round;stroke-linejoin:round" />
         <path
   d="m 5603,15090 v 2016"
   id="path112"
   inkscape:connector-curvature="0"
   style="fill:none;stroke:#404040;stroke-width:44;stroke-linecap:round;stroke-linejoin:round" />
         <path
   d="m 5303,15108 v 1945"
   id="path114"
   inkscape:connector-curvature="0"
   style="fill:none;stroke:#404040;stroke-width:44;stroke-linecap:round;stroke-linejoin:round" />
         <path
   d="m 4990,15134 v 1866"
   id="path116"
   inkscape:connector-curvature="0"
   style="fill:none;stroke:#404040;stroke-width:44;stroke-linecap:round;stroke-linejoin:round" />
         <path
   d="m 4373,15178 v 1716"
   id="path118"
   inkscape:connector-curvature="0"
   style="fill:none;stroke:#404040;stroke-width:44;stroke-linecap:round;stroke-linejoin:round" />
         <path
   d="m 4126,15191 v 1659"
   id="path120"
   inkscape:connector-curvature="0"
   style="fill:none;stroke:#404040;stroke-width:44;stroke-linecap:round;stroke-linejoin:round" />
         <path
   d="m 3883,15209 v 1602"
   id="path122"
   inkscape:connector-curvature="0"
   style="fill:none;stroke:#404040;stroke-width:44;stroke-linecap:round;stroke-linejoin:round" />
         <path
   d="m 3632,15227 v 1535"
   id="path124"
   inkscape:connector-curvature="0"
   style="fill:none;stroke:#404040;stroke-width:44;stroke-linecap:round;stroke-linejoin:round" />
         <path
   d="m 3385,15240 v 1482"
   id="path126"
   inkscape:connector-curvature="0"
   style="fill:none;stroke:#404040;stroke-width:44;stroke-linecap:round;stroke-linejoin:round" />
         <path
   d="m 3142,15258 v 1429"
   id="path128"
   inkscape:connector-curvature="0"
   style="fill:none;stroke:#404040;stroke-width:44;stroke-linecap:round;stroke-linejoin:round" />
         <path
   d="m 2890,15275 v 1359 l 7155,1235 v -3097 z"
   id="path130"
   inkscape:connector-curvature="0"
   style="fill:none;stroke:#202020;stroke-width:44;stroke-linecap:round;stroke-linejoin:round" />
         <path
   d="m 3252,15937 243,-225"
   id="path132"
   inkscape:connector-curvature="0"
   style="fill:none;stroke:#c0c0ff;stroke-width:35;stroke-linecap:round;stroke-linejoin:round" />
         <path
   d="m 3561,15805 388,-362"
   id="path134"
   inkscape:connector-curvature="0"
   style="fill:none;stroke:#c0c0ff;stroke-width:35;stroke-linecap:round;stroke-linejoin:round" />
         <path
   d="m 3274,16303 287,-269"
   id="path136"
   inkscape:connector-curvature="0"
   style="fill:none;stroke:#c0c0ff;stroke-width:35;stroke-linecap:round;stroke-linejoin:round" />
         <path
   d="m 3596,16153 287,-256"
   id="path138"
   inkscape:connector-curvature="0"
   style="fill:none;stroke:#c0c0ff;stroke-width:35;stroke-linecap:round;stroke-linejoin:round" />
         <path
   d="m 4646,15849 626,-543"
   id="path140"
   inkscape:connector-curvature="0"
   style="fill:none;stroke:#c0c0ff;stroke-width:35;stroke-linecap:round;stroke-linejoin:round" />
         <path
   d="m 4249,16453 798,-723"
   id="path142"
   inkscape:connector-curvature="0"
   style="fill:none;stroke:#c0c0ff;stroke-width:35;stroke-linecap:round;stroke-linejoin:round" />
         <path
   d="m 4805,16078 595,-547"
   id="path144"
   inkscape:connector-curvature="0"
   style="fill:none;stroke:#c0c0ff;stroke-width:35;stroke-linecap:round;stroke-linejoin:round" />
         <path
   d="m 3923,16255 326,-300"
   id="path146"
   inkscape:connector-curvature="0"
   style="fill:none;stroke:#c0c0ff;stroke-width:35;stroke-linecap:round;stroke-linejoin:round" />
         <path
   d="m 5872,15588 547,-432"
   id="path148"
   inkscape:connector-curvature="0"
   style="fill:none;stroke:#c0c0ff;stroke-width:35;stroke-linecap:round;stroke-linejoin:round" />
         <path
   d="m 5206,16413 455,-441"
   id="path150"
   inkscape:connector-curvature="0"
   style="fill:none;stroke:#c0c0ff;stroke-width:35;stroke-linecap:round;stroke-linejoin:round" />
         <path
   d="m 5669,16153 689,-622"
   id="path152"
   inkscape:connector-curvature="0"
   style="fill:none;stroke:#c0c0ff;stroke-width:35;stroke-linecap:round;stroke-linejoin:round" />
         <path
   d="m 5771,16652 419,-358"
   id="path154"
   inkscape:connector-curvature="0"
   style="fill:none;stroke:#c0c0ff;stroke-width:35;stroke-linecap:round;stroke-linejoin:round" />
         <path
   d="m 6375,16330 684,-627"
   id="path156"
   inkscape:connector-curvature="0"
   style="fill:none;stroke:#c0c0ff;stroke-width:35;stroke-linecap:round;stroke-linejoin:round" />
         <path
   d="m 7059,15862 613,-587"
   id="path158"
   inkscape:connector-curvature="0"
   style="fill:none;stroke:#c0c0ff;stroke-width:35;stroke-linecap:round;stroke-linejoin:round" />
         <path
   d="m 6512,16034 604,-560"
   id="path160"
   inkscape:connector-curvature="0"
   style="fill:none;stroke:#c0c0ff;stroke-width:35;stroke-linecap:round;stroke-linejoin:round" />
         <path
   d="m 6159,16722 582,-494"
   id="path162"
   inkscape:connector-curvature="0"
   style="fill:none;stroke:#c0c0ff;stroke-width:35;stroke-linecap:round;stroke-linejoin:round" />
         <path
   d="m 7575,15862 710,-693"
   id="path164"
   inkscape:connector-curvature="0"
   style="fill:none;stroke:#c0c0ff;stroke-width:35;stroke-linecap:round;stroke-linejoin:round" />
         <path
   d="m 7257,16440 803,-803"
   id="path166"
   inkscape:connector-curvature="0"
   style="fill:none;stroke:#c0c0ff;stroke-width:35;stroke-linecap:round;stroke-linejoin:round" />
         <path
   d="m 7032,16965 706,-671"
   id="path168"
   inkscape:connector-curvature="0"
   style="fill:none;stroke:#c0c0ff;stroke-width:35;stroke-linecap:round;stroke-linejoin:round" />
         <path
   d="m 7690,16484 626,-587"
   id="path170"
   inkscape:connector-curvature="0"
   style="fill:none;stroke:#c0c0ff;stroke-width:35;stroke-linecap:round;stroke-linejoin:round" />
         <path
   d="m 8709,16016 533,-529"
   id="path172"
   inkscape:connector-curvature="0"
   style="fill:none;stroke:#c0c0ff;stroke-width:35;stroke-linecap:round;stroke-linejoin:round" />
         <path
   d="m 8528,16894 494,-467"
   id="path174"
   inkscape:connector-curvature="0"
   style="fill:none;stroke:#c0c0ff;stroke-width:35;stroke-linecap:round;stroke-linejoin:round" />
         <path
   d="m 9079,16563 574,-582"
   id="path176"
   inkscape:connector-curvature="0"
   style="fill:none;stroke:#c0c0ff;stroke-width:35;stroke-linecap:round;stroke-linejoin:round" />
         <path
   d="m 4690,15147 v 1805"
   id="path178"
   inkscape:connector-curvature="0"
   style="fill:none;stroke:#404040;stroke-width:44;stroke-linecap:round;stroke-linejoin:round" />
         <path
   d="m 10561,14221 v 4795 l 7865,-1967 v -1968 z"
   id="path180"
   inkscape:connector-curvature="0"
   style="fill:#400000;stroke:none" />
         <path
   d="m 15837,17622 v -1429 l 966,-53 v 1248 z"
   id="path182"
   inkscape:connector-curvature="0"
   style="fill:#472c00;stroke:none" />
         <path
   d="m 17129,15399 459,26 v 940 l -459,22 z"
   id="path184"
   inkscape:connector-curvature="0"
   style="fill:#4d556b;stroke:none" />
         <path
   d="m 17253,15986 159,-173"
   id="path186"
   inkscape:connector-curvature="0"
   style="fill:none;stroke:#7485a4;stroke-width:13;stroke-linecap:round;stroke-linejoin:round" />
         <path
   d="m 17213,16171 199,-212"
   id="path188"
   inkscape:connector-curvature="0"
   style="fill:none;stroke:#7485a4;stroke-width:13;stroke-linecap:round;stroke-linejoin:round" />
         <path
   d="m 17412,15906 110,-123"
   id="path190"
   inkscape:connector-curvature="0"
   style="fill:none;stroke:#7485a4;stroke-width:13;stroke-linecap:round;stroke-linejoin:round" />
         <path
   d="m 17129,15725 459,13"
   id="path192"
   inkscape:connector-curvature="0"
   style="fill:none;stroke:#272b36;stroke-width:31;stroke-linecap:round;stroke-linejoin:round" />
         <path
   d="m 17129,16052 459,-5"
   id="path194"
   inkscape:connector-curvature="0"
   style="fill:none;stroke:#272b36;stroke-width:31;stroke-linecap:round;stroke-linejoin:round" />
         <path
   d="m 17359,15412 v 962"
   id="path196"
   inkscape:connector-curvature="0"
   style="fill:none;stroke:#272b36;stroke-width:31;stroke-linecap:round;stroke-linejoin:round" />
         <path
   d="m 17129,15399 459,26 v 940 l -459,22 z"
   id="path198"
   inkscape:connector-curvature="0"
   style="fill:none;stroke:#212121;stroke-width:44;stroke-linecap:round;stroke-linejoin:round" />
         <path
   d="m 15290,15011 v 2091 l -4301,767 v -3097 z"
   id="path200"
   inkscape:connector-curvature="0"
   style="fill:#4040ff;stroke:none" />
         <path
   d="m 12740,14878 v 2709"
   id="path202"
   inkscape:connector-curvature="0"
   style="fill:none;stroke:#303543;stroke-width:44;stroke-linecap:round;stroke-linejoin:round" />
         <path
   d="m 13217,14913 v 2590"
   id="path204"
   inkscape:connector-curvature="0"
   style="fill:none;stroke:#303543;stroke-width:44;stroke-linecap:round;stroke-linejoin:round" />
         <path
   d="m 13680,14944 v 2480"
   id="path206"
   inkscape:connector-curvature="0"
   style="fill:none;stroke:#303543;stroke-width:44;stroke-linecap:round;stroke-linejoin:round" />
         <path
   d="m 11064,14772 v 3097 l 4226,-767 v -2091 z"
   id="path208"
   inkscape:connector-curvature="0"
   style="fill:none;stroke:#212121;stroke-width:44;stroke-linecap:round;stroke-linejoin:round" />
         <path
   d="m 11655,14838 v 2903"
   id="path210"
   inkscape:connector-curvature="0"
   style="fill:none;stroke:#404040;stroke-width:44;stroke-linecap:round;stroke-linejoin:round" />
         <path
   d="m 12736,14905 v 2669"
   id="path212"
   inkscape:connector-curvature="0"
   style="fill:none;stroke:#404040;stroke-width:44;stroke-linecap:round;stroke-linejoin:round" />
         <path
   d="m 13230,14944 v 2542"
   id="path214"
   inkscape:connector-curvature="0"
   style="fill:none;stroke:#404040;stroke-width:44;stroke-linecap:round;stroke-linejoin:round" />
         <path
   d="m 14068,14988 v 2348"
   id="path216"
   inkscape:connector-curvature="0"
   style="fill:none;stroke:#404040;stroke-width:44;stroke-linecap:round;stroke-linejoin:round" />
         <path
   d="m 14439,15015 v 2263"
   id="path218"
   inkscape:connector-curvature="0"
   style="fill:none;stroke:#404040;stroke-width:44;stroke-linecap:round;stroke-linejoin:round" />
         <path
   d="m 14765,15046 v 2175"
   id="path220"
   inkscape:connector-curvature="0"
   style="fill:none;stroke:#404040;stroke-width:44;stroke-linecap:round;stroke-linejoin:round" />
         <path
   d="m 15105,15063 v 2092"
   id="path222"
   inkscape:connector-curvature="0"
   style="fill:none;stroke:#404040;stroke-width:44;stroke-linecap:round;stroke-linejoin:round" />
         <path
   d="m 15162,15588 -547,-432"
   id="path224"
   inkscape:connector-curvature="0"
   style="fill:none;stroke:#e0e0e0;stroke-width:35;stroke-linecap:round;stroke-linejoin:round" />
         <path
   d="m 15263,16652 -419,-358"
   id="path226"
   inkscape:connector-curvature="0"
   style="fill:none;stroke:#e0e0e0;stroke-width:35;stroke-linecap:round;stroke-linejoin:round" />
         <path
   d="m 14659,16330 -684,-627"
   id="path228"
   inkscape:connector-curvature="0"
   style="fill:none;stroke:#e0e0e0;stroke-width:35;stroke-linecap:round;stroke-linejoin:round" />
         <path
   d="m 12043,15888 -613,-586"
   id="path230"
   inkscape:connector-curvature="0"
   style="fill:none;stroke:#e0e0e0;stroke-width:35;stroke-linecap:round;stroke-linejoin:round" />
         <path
   d="m 14522,16034 -604,-560"
   id="path232"
   inkscape:connector-curvature="0"
   style="fill:none;stroke:#e0e0e0;stroke-width:35;stroke-linecap:round;stroke-linejoin:round" />
         <path
   d="m 14875,16722 -582,-494"
   id="path234"
   inkscape:connector-curvature="0"
   style="fill:none;stroke:#e0e0e0;stroke-width:35;stroke-linecap:round;stroke-linejoin:round" />
         <path
   d="m 13459,15862 -710,-693"
   id="path236"
   inkscape:connector-curvature="0"
   style="fill:none;stroke:#e0e0e0;stroke-width:35;stroke-linecap:round;stroke-linejoin:round" />
         <path
   d="m 13777,16440 -803,-803"
   id="path238"
   inkscape:connector-curvature="0"
   style="fill:none;stroke:#e0e0e0;stroke-width:35;stroke-linecap:round;stroke-linejoin:round" />
         <path
   d="m 12864,16277 -706,-671"
   id="path240"
   inkscape:connector-curvature="0"
   style="fill:none;stroke:#e0e0e0;stroke-width:35;stroke-linecap:round;stroke-linejoin:round" />
         <path
   d="m 13080,17199 -626,-587"
   id="path242"
   inkscape:connector-curvature="0"
   style="fill:none;stroke:#e0e0e0;stroke-width:35;stroke-linecap:round;stroke-linejoin:round" />
         <path
   d="m 11955,16563 -573,-582"
   id="path244"
   inkscape:connector-curvature="0"
   style="fill:none;stroke:#e0e0e0;stroke-width:35;stroke-linecap:round;stroke-linejoin:round" />
         <path
   d="m 12180,14931 v 2669"
   id="path246"
   inkscape:connector-curvature="0"
   style="fill:none;stroke:#404040;stroke-width:44;stroke-linecap:round;stroke-linejoin:round" />
         <path
   d="m 11055,15249 4182,132"
   id="path248"
   inkscape:connector-curvature="0"
   style="fill:none;stroke:#404040;stroke-width:44;stroke-linecap:round;stroke-linejoin:round" />
         <path
   d="m 11082,15778 4181,-26"
   id="path250"
   inkscape:connector-curvature="0"
   style="fill:none;stroke:#404040;stroke-width:44;stroke-linecap:round;stroke-linejoin:round" />
         <path
   d="m 11108,16361 4129,-212"
   id="path252"
   inkscape:connector-curvature="0"
   style="fill:none;stroke:#404040;stroke-width:44;stroke-linecap:round;stroke-linejoin:round" />
         <path
   d="m 11082,17340 4208,-503"
   id="path254"
   inkscape:connector-curvature="0"
   style="fill:none;stroke:#404040;stroke-width:44;stroke-linecap:round;stroke-linejoin:round" />
         <path
   d="m 11108,16863 4182,-370"
   id="path256"
   inkscape:connector-curvature="0"
   style="fill:none;stroke:#404040;stroke-width:44;stroke-linecap:round;stroke-linejoin:round" />
        </g>
       </g>
      </g>
     </g>
    </g>
   </g>
  </g>
 </g>
</svg>