<?xml version="1.0" encoding="UTF-8" standalone="no"?>
<svg
   xmlns:ooo="http://xml.openoffice.org/svg/export"
   xmlns:dc="http://purl.org/dc/elements/1.1/"
   xmlns:cc="http://creativecommons.org/ns#"
   xmlns:rdf="http://www.w3.org/1999/02/22-rdf-syntax-ns#"
   xmlns:svg="http://www.w3.org/2000/svg"
   xmlns="http://www.w3.org/2000/svg"
   xmlns:sodipodi="http://sodipodi.sourceforge.net/DTD/sodipodi-0.dtd"
   xmlns:inkscape="http://www.inkscape.org/namespaces/inkscape"
   version="1.2"
   width="109.89mm"
   height="112.01mm"
   viewBox="0 0 10989 11201"
   preserveAspectRatio="xMidYMid"
   xml:space="preserve"
   id="svg159"
   sodipodi:docname="france2.svg"
   style="fill-rule:evenodd;stroke-width:28.22200012;stroke-linejoin:round"
   inkscape:version="0.92.5 (2060ec1f9f, 2020-04-08)"><metadata
   id="metadata163"><rdf:RDF><cc:Work
       rdf:about=""><dc:format>image/svg+xml</dc:format><dc:type
         rdf:resource="http://purl.org/dc/dcmitype/StillImage" /></cc:Work></rdf:RDF></metadata><sodipodi:namedview
   pagecolor="#ffffff"
   bordercolor="#666666"
   borderopacity="1"
   objecttolerance="10"
   gridtolerance="10"
   guidetolerance="10"
   inkscape:pageopacity="0"
   inkscape:pageshadow="2"
   inkscape:window-width="664"
   inkscape:window-height="487"
   id="namedview161"
   showgrid="false"
   inkscape:zoom="0.2102413"
   inkscape:cx="207.68504"
   inkscape:cy="211.65354"
   inkscape:window-x="0"
   inkscape:window-y="0"
   inkscape:window-maximized="0"
   inkscape:current-layer="svg159" />
 <defs
   class="ClipPathGroup"
   id="defs8">
  <clipPath
   id="presentation_clip_path"
   clipPathUnits="userSpaceOnUse">
   <rect
   x="0"
   y="0"
   width="21000"
   height="29700"
   id="rect2" />
  </clipPath>
  <clipPath
   id="presentation_clip_path_shrink"
   clipPathUnits="userSpaceOnUse">
   <rect
   x="21"
   y="29"
   width="20958"
   height="29641"
   id="rect5" />
  </clipPath>
 </defs>
 <defs
   class="TextShapeIndex"
   id="defs12">
  <g
   ooo:slide="id1"
   ooo:id-list="id3"
   id="g10" />
 </defs>
 <defs
   class="EmbeddedBulletChars"
   id="defs44">
  <g
   id="bullet-char-template-57356"
   transform="matrix(4.8828125e-4,0,0,-4.8828125e-4,0,0)">
   <path
   d="M 580,1141 1163,571 580,0 -4,571 Z"
   id="path14"
   inkscape:connector-curvature="0" />
  </g>
  <g
   id="bullet-char-template-57354"
   transform="matrix(4.8828125e-4,0,0,-4.8828125e-4,0,0)">
   <path
   d="M 8,1128 H 1137 V 0 H 8 Z"
   id="path17"
   inkscape:connector-curvature="0" />
  </g>
  <g
   id="bullet-char-template-10146"
   transform="matrix(4.8828125e-4,0,0,-4.8828125e-4,0,0)">
   <path
   d="M 174,0 602,739 174,1481 1456,739 Z M 1358,739 309,1346 659,739 Z"
   id="path20"
   inkscape:connector-curvature="0" />
  </g>
  <g
   id="bullet-char-template-10132"
   transform="matrix(4.8828125e-4,0,0,-4.8828125e-4,0,0)">
   <path
   d="M 2015,739 1276,0 H 717 l 543,543 H 174 v 393 h 1086 l -543,545 h 557 z"
   id="path23"
   inkscape:connector-curvature="0" />
  </g>
  <g
   id="bullet-char-template-10007"
   transform="matrix(4.8828125e-4,0,0,-4.8828125e-4,0,0)">
   <path
   d="m 0,-2 c -7,16 -16,29 -25,39 l 381,530 c -94,256 -141,385 -141,387 0,25 13,38 40,38 9,0 21,-2 34,-5 21,4 42,12 65,25 l 27,-13 111,-251 280,301 64,-25 24,25 c 21,-10 41,-24 62,-43 C 886,937 835,863 770,784 769,783 710,716 594,584 L 774,223 c 0,-27 -21,-55 -63,-84 l 16,-20 C 717,90 699,76 672,76 641,76 570,178 457,381 L 164,-76 c -22,-34 -53,-51 -92,-51 -42,0 -63,17 -64,51 -7,9 -10,24 -10,44 0,9 1,19 2,30 z"
   id="path26"
   inkscape:connector-curvature="0" />
  </g>
  <g
   id="bullet-char-template-10004"
   transform="matrix(4.8828125e-4,0,0,-4.8828125e-4,0,0)">
   <path
   d="M 285,-33 C 182,-33 111,30 74,156 52,228 41,333 41,471 c 0,78 14,145 41,201 34,71 87,106 158,106 53,0 88,-31 106,-94 l 23,-176 c 8,-64 28,-97 59,-98 l 735,706 c 11,11 33,17 66,17 42,0 63,-15 63,-46 V 965 c 0,-36 -10,-64 -30,-84 L 442,47 C 390,-6 338,-33 285,-33 Z"
   id="path29"
   inkscape:connector-curvature="0" />
  </g>
  <g
   id="bullet-char-template-9679"
   transform="matrix(4.8828125e-4,0,0,-4.8828125e-4,0,0)">
   <path
   d="M 813,0 C 632,0 489,54 383,161 276,268 223,411 223,592 c 0,181 53,324 160,431 106,107 249,161 430,161 179,0 323,-54 432,-161 108,-107 162,-251 162,-431 0,-180 -54,-324 -162,-431 C 1136,54 992,0 813,0 Z"
   id="path32"
   inkscape:connector-curvature="0" />
  </g>
  <g
   id="bullet-char-template-8226"
   transform="matrix(4.8828125e-4,0,0,-4.8828125e-4,0,0)">
   <path
   d="m 346,457 c -73,0 -137,26 -191,78 -54,51 -81,114 -81,188 0,73 27,136 81,188 54,52 118,78 191,78 73,0 134,-26 185,-79 51,-51 77,-114 77,-187 0,-75 -25,-137 -76,-188 -50,-52 -112,-78 -186,-78 z"
   id="path35"
   inkscape:connector-curvature="0" />
  </g>
  <g
   id="bullet-char-template-8211"
   transform="matrix(4.8828125e-4,0,0,-4.8828125e-4,0,0)">
   <path
   d="M -4,459 H 1135 V 606 H -4 Z"
   id="path38"
   inkscape:connector-curvature="0" />
  </g>
  <g
   id="bullet-char-template-61548"
   transform="matrix(4.8828125e-4,0,0,-4.8828125e-4,0,0)">
   <path
   d="m 173,740 c 0,163 58,303 173,419 116,115 255,173 419,173 163,0 302,-58 418,-173 116,-116 174,-256 174,-419 0,-163 -58,-303 -174,-418 C 1067,206 928,148 765,148 601,148 462,206 346,322 231,437 173,577 173,740 Z"
   id="path41"
   inkscape:connector-curvature="0" />
  </g>
 </defs>
 <g
   id="g49"
   transform="translate(-5005,-9249)">
  <g
   id="id2"
   class="Master_Slide">
   <g
   id="bg-id2"
   class="Background" />
   <g
   id="bo-id2"
   class="BackgroundObjects" />
  </g>
 </g>
 <g
   class="SlideGroup"
   id="g157"
   transform="translate(-5005,-9249)">
  <g
   id="g155">
   <g
   id="container-id1">
    <g
   id="id1"
   class="Slide"
   clip-path="url(#presentation_clip_path)">
     <g
   class="Page"
   id="g151">
      <g
   class="Graphic"
   id="g149">
       <g
   id="id3">
        <rect
   class="BoundingBox"
   x="5005"
   y="9249"
   width="10989"
   height="11201"
   id="rect51"
   style="fill:none;stroke:none" />
        <defs
   id="defs56">
         <clipPath
   id="clip_path_1"
   clipPathUnits="userSpaceOnUse">
          <path
   d="M 5009,9253 H 15975 V 20431 H 5009 Z"
   id="path53"
   inkscape:connector-curvature="0" />
         </clipPath>
        </defs>
        <g
   clip-path="url(#clip_path_1)"
   id="g146">
         <path
   d="m 10096,10255 -66,-199 v -158 l 53,-186 145,-185 172,-66 336,-80 132,-92 v 145 l 92,199 133,92 h 106 l 79,-39 13,-80 -26,-106 119,239 159,119 -27,159 93,39 106,-39 93,13 26,185 79,40 159,-93 80,53 26,212 106,185 -27,80 -225,-146 -119,-93 h -158 l -265,80 -238,79 h -133 l -79,-79 -93,-106 -132,13 -27,-93 -119,93 -145,-79 h -177 l -106,-53 z"
   id="path58"
   inkscape:connector-curvature="0"
   style="fill:#00ae00;stroke:none" />
         <path
   d="m 10096,10255 -66,-199 v -158 l 53,-186 145,-185 172,-66 336,-80 132,-92 v 145 l 92,199 133,92 h 106 l 79,-39 13,-80 -26,-106 119,239 159,119 -27,159 93,39 106,-39 93,13 26,185 79,40 159,-93 80,53 26,212 106,185 -27,80 -225,-146 -119,-93 h -158 l -265,80 -238,79 h -133 l -79,-79 -93,-106 -132,13 -27,-93 -119,93 -145,-79 h -177 l -106,-53 z"
   id="path60"
   inkscape:connector-curvature="0"
   style="fill:none;stroke:#000000;stroke-width:35;stroke-linecap:round;stroke-linejoin:round" />
         <path
   d="m 10096,10255 13,119 -66,106 -79,172 211,159 66,251 40,318 v 264 l 243,67 132,-93 185,106 225,53 146,-80 h 106 l 423,318 40,-79 106,26 13,-159 -26,-172 92,-172 159,-119 40,-225 79,-225 27,-106 -14,-92 -225,-146 -119,-93 h -158 l -265,80 -238,79 h -133 l -79,-79 -93,-106 -132,13 -27,-93 -119,93 -145,-79 h -177 l -106,-53 z"
   id="path62"
   inkscape:connector-curvature="0"
   style="fill:#00ae00;stroke:none" />
         <path
   d="m 10096,10255 13,119 -66,106 -79,172 211,159 66,251 40,318 v 264 l 243,67 132,-93 185,106 225,53 146,-80 h 106 l 423,318 40,-79 106,26 13,-159 -26,-172 92,-172 159,-119 40,-225 79,-225 27,-106 -14,-92 -225,-146 -119,-93 h -158 l -265,80 -238,79 h -133 l -79,-79 -93,-106 -132,13 -27,-93 -119,93 -145,-79 h -177 l -106,-53 z"
   id="path64"
   inkscape:connector-curvature="0"
   style="fill:none;stroke:#000000;stroke-width:35;stroke-linecap:round;stroke-linejoin:round" />
         <path
   d="m 13479,12474 -13,66 133,132 -40,159 132,-13 53,212 -225,304 -159,53 -256,-198 -172,-265 -79,-66 -93,158 -251,40 -199,-13 -264,-199 -252,-251 -13,-132 66,-106 106,53 -212,-375 80,-106 h 106 l -14,-146 -53,-150 93,-172 159,-119 40,-225 79,-225 26,-106 -13,-92 53,-93 238,53 278,-357 -13,463 344,119 110,145 -97,133 -132,-133 -66,67 13,291 -26,357 26,305 185,229 217,66 z"
   id="path66"
   inkscape:connector-curvature="0"
   style="fill:#00ae00;stroke:none" />
         <path
   d="m 13479,12474 -13,66 133,132 -40,159 132,-13 53,212 -225,304 -159,53 -256,-198 -172,-265 -79,-66 -93,158 -251,40 -199,-13 -264,-199 -252,-251 -13,-132 66,-106 106,53 -212,-375 80,-106 h 106 l -14,-146 -53,-150 93,-172 159,-119 40,-225 79,-225 26,-106 -13,-92 53,-93 238,53 278,-357 -13,463 344,119 110,145 -97,133 -132,-133 -66,67 13,291 -26,357 26,305 185,229 217,66 z"
   id="path68"
   inkscape:connector-curvature="0"
   style="fill:none;stroke:#000000;stroke-width:35;stroke-linecap:round;stroke-linejoin:round" />
         <path
   d="m 10281,11644 243,67 132,-93 185,106 225,53 146,-80 h 106 l 423,318 93,234 93,106 -146,92 13,172 h -251 l -80,186 -211,92 h -159 l -133,-79 -13,-146 -92,-26 -159,145 -534,-727 26,-111 -13,-145 27,-80 z"
   id="path70"
   inkscape:connector-curvature="0"
   style="fill:#00ae00;stroke:none" />
         <path
   d="m 10281,11644 243,67 132,-93 185,106 225,53 146,-80 h 106 l 423,318 93,234 93,106 -146,92 13,172 h -251 l -80,186 -211,92 h -159 l -133,-79 -13,-146 -92,-26 -159,145 -534,-727 26,-111 -13,-145 27,-80 z"
   id="path72"
   inkscape:connector-curvature="0"
   style="fill:none;stroke:#000000;stroke-width:35;stroke-linecap:round;stroke-linejoin:round" />
         <path
   d="m 10162,10784 66,252 40,317 v 265 l -93,150 -13,225 -93,124 -26,119 -252,26 -119,-40 -26,225 -93,-79 -39,-146 -265,-242 40,-212 -53,-304 -14,-133 h -211 l -80,-106 212,-145 331,-133 185,-132 132,-26 133,-133 z"
   id="path74"
   inkscape:connector-curvature="0"
   style="fill:#00ae00;stroke:none" />
         <path
   d="m 10162,10784 66,252 40,317 v 265 l -93,150 -13,225 -93,124 -26,119 -252,26 -119,-40 -26,225 -93,-79 -39,-146 -265,-242 40,-212 -53,-304 -14,-133 h -211 l -80,-106 212,-145 331,-133 185,-132 132,-26 133,-133 z"
   id="path76"
   inkscape:connector-curvature="0"
   style="fill:none;stroke:#000000;stroke-width:35;stroke-linecap:round;stroke-linejoin:round" />
         <path
   d="m 10881,14922 185,53 119,-159 159,-225 186,-53 39,-172 -79,-185 -66,-304 -53,-225 145,-199 -119,-119 119,-159 40,-198 -93,-172 -211,92 h -159 l -133,-79 -13,-146 -92,-26 -159,145 -560,-772 -67,217 -172,26 -225,13 -13,186 132,158 -26,53 -79,40 -80,119 -53,159 80,26 -27,146 27,172 v 66 l -146,66 -291,173 -93,264 -53,331 225,146 119,-67 278,212 146,331 172,27 212,198 159,-106 295,13 z"
   id="path78"
   inkscape:connector-curvature="0"
   style="fill:#00ae00;stroke:none" />
         <path
   d="m 10881,14922 185,53 119,-159 159,-225 186,-53 39,-172 -79,-185 -66,-304 -53,-225 145,-199 -119,-119 119,-159 40,-198 -93,-172 -211,92 h -159 l -133,-79 -13,-146 -92,-26 -159,145 -560,-772 -67,217 -172,26 -225,13 -13,186 132,158 -26,53 -79,40 -80,119 -53,159 80,26 -27,146 27,172 v 66 l -146,66 -291,173 -93,264 -53,331 225,146 119,-67 278,212 146,331 172,27 212,198 159,-106 295,13 z"
   id="path80"
   inkscape:connector-curvature="0"
   style="fill:none;stroke:#000000;stroke-width:35;stroke-linecap:round;stroke-linejoin:round" />
         <path
   d="m 5309,13202 106,225 252,-159 185,146 h 371 l 172,317 225,-172 105,212 173,-66 -27,251 212,106 172,-132 -35,-93 66,-225 172,-119 238,-79 216,-27 146,-344 13,-238 -84,-186 -172,-13 -70,-145 h -93 -172 l -53,-172 -132,39 39,159 -463,-119 -106,93 -423,-344 -186,66 h -172 v 211 l -172,-92 -92,13 -199,-40 -145,27 -265,159 -66,225 106,53 172,-67 79,93 -225,53 212,159 h -133 l -145,13 z"
   id="path82"
   inkscape:connector-curvature="0"
   style="fill:#00ae00;stroke:none" />
         <path
   d="m 5309,13202 106,225 252,-159 185,146 h 371 l 172,317 225,-172 105,212 173,-66 -27,251 212,106 172,-132 -35,-93 66,-225 172,-119 238,-79 216,-27 146,-344 13,-238 -84,-186 -172,-13 -70,-145 h -93 -172 l -53,-172 -132,39 39,159 -463,-119 -106,93 -423,-344 -186,66 h -172 v 211 l -172,-92 -92,13 -199,-40 -145,27 -265,159 -66,225 106,53 172,-67 79,93 -225,53 212,159 h -133 l -145,13 z"
   id="path84"
   inkscape:connector-curvature="0"
   style="fill:none;stroke:#000000;stroke-width:35;stroke-linecap:round;stroke-linejoin:round" />
         <path
   d="m 7740,11102 -238,53 -199,13 199,304 53,278 13,252 106,176 53,265 97,172 168,18 105,-66 172,26 80,93 106,-93 119,53 145,-119 93,26 93,199 132,-133 159,40 198,146 159,185 75,-247 159,-119 -172,-225 -106,-159 -265,-282 27,-291 -66,-345 -159,53 -212,186 -265,-67 -225,14 -291,-40 -172,-53 36,-194 26,-106 -132,-93 z"
   id="path86"
   inkscape:connector-curvature="0"
   style="fill:#00ae00;stroke:none" />
         <path
   d="m 7740,11102 -238,53 -199,13 199,304 53,278 13,252 106,176 53,265 97,172 168,18 105,-66 172,26 80,93 106,-93 119,53 145,-119 93,26 93,199 132,-133 159,40 198,146 159,185 75,-247 159,-119 -172,-225 -106,-159 -265,-282 27,-291 -66,-345 -159,53 -212,186 -265,-67 -225,14 -291,-40 -172,-53 36,-194 26,-106 -132,-93 z"
   id="path88"
   inkscape:connector-curvature="0"
   style="fill:none;stroke:#000000;stroke-width:35;stroke-linecap:round;stroke-linejoin:round" />
         <path
   d="m 8225,15191 -145,-53 -106,120 -199,-80 -189,-172 -212,-40 -119,-225 -93,-132 53,-132 40,-106 -66,-106 -14,-119 93,-132 66,13 -106,-172 27,-172 119,-146 251,-106 230,-26 145,-186 93,-225 -26,-185 -75,-176 105,-66 172,26 80,93 106,-93 119,53 145,-119 93,26 93,199 132,-133 159,40 198,146 159,185 75,62 -26,141 26,216 -344,172 -159,146 -79,370 -27,119 -198,53 -238,93 -172,-13 -133,79 66,185 93,120 -13,238 119,145 -119,93 -132,-110 z"
   id="path90"
   inkscape:connector-curvature="0"
   style="fill:#00ae00;stroke:none" />
         <path
   d="m 8225,15191 -145,-53 -106,120 -199,-80 -189,-172 -212,-40 -119,-225 -93,-132 53,-132 40,-106 -66,-106 -14,-119 93,-132 66,13 -106,-172 27,-172 119,-146 251,-106 230,-26 145,-186 93,-225 -26,-185 -75,-176 105,-66 172,26 80,93 106,-93 119,53 145,-119 93,26 93,199 132,-133 159,40 198,146 159,185 75,62 -26,141 26,216 -344,172 -159,146 -79,370 -27,119 -198,53 -238,93 -172,-13 -133,79 66,185 93,120 -13,238 119,145 -119,93 -132,-110 z"
   id="path92"
   inkscape:connector-curvature="0"
   style="fill:none;stroke:#000000;stroke-width:35;stroke-linecap:round;stroke-linejoin:round" />
         <path
   d="m 8225,15191 -145,-53 -106,120 v 145 l 106,185 -27,186 -92,106 79,119 225,159 119,251 66,-13 80,-53 132,106 159,145 93,80 105,-133 h 133 l 119,-158 198,-384 159,-172 53,-172 -79,-146 53,-185 198,-225 238,-93 -119,-132 h -185 l -119,-344 -265,-199 -119,53 -265,-168 -198,53 -238,93 -172,-13 -133,79 66,185 93,120 -13,238 119,145 -119,93 -132,-110 z"
   id="path94"
   inkscape:connector-curvature="0"
   style="fill:#00ae00;stroke:none" />
         <path
   d="m 8225,15191 -145,-53 -106,120 v 145 l 106,185 -27,186 -92,106 79,119 225,159 119,251 66,-13 80,-53 132,106 159,145 93,80 105,-133 h 133 l 119,-158 198,-384 159,-172 53,-172 -79,-146 53,-185 198,-225 238,-93 -119,-132 h -185 l -119,-344 -265,-199 -119,53 -265,-168 -198,53 -238,93 -172,-13 -133,79 66,185 93,120 -13,238 119,145 -119,93 -132,-110 z"
   id="path96"
   inkscape:connector-curvature="0"
   style="fill:none;stroke:#000000;stroke-width:35;stroke-linecap:round;stroke-linejoin:round" />
         <path
   d="m 10691,16780 -92,-14 -137,40 -132,-185 -106,-27 h -53 v -225 l -93,-119 -145,-212 -172,14 -133,66 -13,-185 66,-278 -79,-146 53,-185 198,-225 238,-93 106,53 186,-66 h 269 l 278,-66 145,119 172,278 -92,251 -27,159 66,291 v 159 l -79,106 -146,106 -66,132 13,146 -26,106 -66,-53 z"
   id="path98"
   inkscape:connector-curvature="0"
   style="fill:#00ae00;stroke:none" />
         <path
   d="m 10691,16780 -92,-14 -137,40 -132,-185 -106,-27 h -53 v -225 l -93,-119 -145,-212 -172,14 -133,66 -13,-185 66,-278 -79,-146 53,-185 198,-225 238,-93 106,53 186,-66 h 269 l 278,-66 145,119 172,278 -92,251 -27,159 66,291 v 159 l -79,106 -146,106 -66,132 13,146 -26,106 -66,-53 z"
   id="path100"
   inkscape:connector-curvature="0"
   style="fill:none;stroke:#000000;stroke-width:35;stroke-linecap:round;stroke-linejoin:round" />
         <path
   d="m 13479,12474 -13,66 133,132 -40,159 132,-13 53,212 146,-93 145,40 199,-93 h 172 l 212,66 92,-159 106,-251 -26,-146 26,-172 13,-145 27,-216 -106,-93 -132,-132 -14,-67 93,-66 h 238 l 53,-79 -66,-27 -476,-26 -133,-199 -251,-185 -172,93 -225,-13 -172,-120 -159,133 -80,-58 -97,133 -132,-133 -66,67 13,291 -26,357 26,305 185,229 217,66 z"
   id="path102"
   inkscape:connector-curvature="0"
   style="fill:#00ae00;stroke:none" />
         <path
   d="m 13479,12474 -13,66 133,132 -40,159 132,-13 53,212 146,-93 145,40 199,-93 h 172 l 212,66 92,-159 106,-251 -26,-146 26,-172 13,-145 27,-216 -106,-93 -132,-132 -14,-67 93,-66 h 238 l 53,-79 -66,-27 -476,-26 -133,-199 -251,-185 -172,93 -225,-13 -172,-120 -159,133 -80,-58 -97,133 -132,-133 -66,67 13,291 -26,357 26,305 185,229 217,66 z"
   id="path104"
   inkscape:connector-curvature="0"
   style="fill:none;stroke:#000000;stroke-width:35;stroke-linecap:round;stroke-linejoin:round" />
         <path
   d="m 15469,11755 -132,212 v 255 l -27,225 13,755 -105,119 -40,132 -185,13 -212,-172 -27,-132 -136,-212 92,-159 106,-251 -26,-146 26,-172 13,-145 27,-216 -106,-93 -132,-132 -14,-67 93,-66 h 238 l 53,-79 177,-27 145,14 252,79 13,132 z"
   id="path106"
   inkscape:connector-curvature="0"
   style="fill:#00ae00;stroke:none" />
         <path
   d="m 15469,11755 -132,212 v 255 l -27,225 13,755 -105,119 -40,132 -185,13 -212,-172 -27,-132 -136,-212 92,-159 106,-251 -26,-146 26,-172 13,-145 27,-216 -106,-93 -132,-132 -14,-67 93,-66 h 238 l 53,-79 177,-27 145,14 252,79 13,132 z"
   id="path108"
   inkscape:connector-curvature="0"
   style="fill:none;stroke:#000000;stroke-width:35;stroke-linecap:round;stroke-linejoin:round" />
         <path
   d="m 13563,14419 -26,-225 h -80 l -13,-225 106,-119 27,-211 -53,-265 -164,13 -256,-198 -172,-265 -79,-66 -93,158 -251,40 -199,-13 -264,-199 -252,-251 -229,4 -106,199 132,238 -66,119 -106,146 93,172 -146,185 80,305 119,357 -40,185 93,80 397,-40 92,132 159,53 133,146 -53,185 198,93 212,-80 172,-145 93,106 106,26 39,-172 111,-199 145,-26 146,79 53,-105 z"
   id="path110"
   inkscape:connector-curvature="0"
   style="fill:#00ae00;stroke:none" />
         <path
   d="m 13563,14419 -26,-225 h -80 l -13,-225 106,-119 27,-211 -53,-265 -164,13 -256,-198 -172,-265 -79,-66 -93,158 -251,40 -199,-13 -264,-199 -252,-251 -229,4 -106,199 132,238 -66,119 -106,146 93,172 -146,185 80,305 119,357 -40,185 93,80 397,-40 92,132 159,53 133,146 -53,185 198,93 212,-80 172,-145 93,106 106,26 39,-172 111,-199 145,-26 146,79 53,-105 z"
   id="path112"
   inkscape:connector-curvature="0"
   style="fill:none;stroke:#000000;stroke-width:35;stroke-linecap:round;stroke-linejoin:round" />
         <path
   d="m 13563,14419 -26,-225 h -80 l -13,-225 106,-119 27,-211 -53,-265 242,-353 133,-93 145,53 172,-66 185,-26 212,39 146,265 v 159 l 13,106 159,79 -291,384 -278,410 -106,252 -106,92 -172,252 -119,-66 h -66 l -80,-27 -79,-93 -13,-105 z"
   id="path114"
   inkscape:connector-curvature="0"
   style="fill:#00ae00;stroke:none" />
         <path
   d="m 13563,14419 -26,-225 h -80 l -13,-225 106,-119 27,-211 -53,-265 242,-353 133,-93 145,53 172,-66 185,-26 212,39 146,265 v 159 l 13,106 159,79 -291,384 -278,410 -106,252 -106,92 -172,252 -119,-66 h -66 l -80,-27 -79,-93 -13,-105 z"
   id="path116"
   inkscape:connector-curvature="0"
   style="fill:none;stroke:#000000;stroke-width:35;stroke-linecap:round;stroke-linejoin:round" />
         <path
   d="m 12597,16780 146,-80 h 159 v -145 l -80,-133 66,-92 -66,-120 -225,-79 -92,-53 -159,-291 -146,-106 53,-318 -26,-145 132,-146 -13,-264 -212,-146 -106,-93 -185,-13 h -252 l -225,27 -145,185 -146,278 172,278 -92,251 -27,159 66,291 v 159 l -79,106 -146,106 -66,132 13,146 14,145 105,238 120,14 198,-199 106,-92 119,39 172,291 v -185 l -13,-132 79,13 93,13 -66,-145 h 119 l 172,92 225,80 212,26 z"
   id="path118"
   inkscape:connector-curvature="0"
   style="fill:#00ae00;stroke:none" />
         <path
   d="m 12597,16780 146,-80 h 159 v -145 l -80,-133 66,-92 -66,-120 -225,-79 -92,-53 -159,-291 -146,-106 53,-318 -26,-145 132,-146 -13,-264 -212,-146 -106,-93 -185,-13 h -252 l -225,27 -145,185 -146,278 172,278 -92,251 -27,159 66,291 v 159 l -79,106 -146,106 -66,132 13,146 14,145 105,238 120,14 198,-199 106,-92 119,39 172,291 v -185 l -13,-132 79,13 93,13 -66,-145 h 119 l 172,92 225,80 212,26 z"
   id="path120"
   inkscape:connector-curvature="0"
   style="fill:none;stroke:#000000;stroke-width:35;stroke-linecap:round;stroke-linejoin:round" />
         <path
   d="m 12597,16780 146,-80 h 159 v -145 l -80,-133 66,-92 -66,-120 -225,-79 -92,-53 -159,-291 -146,-106 53,-318 -26,-145 132,-146 238,119 305,-238 198,119 177,-384 158,-13 159,40 119,119 278,66 199,-251 92,39 -39,120 -67,172 80,79 106,-53 66,-225 146,-93 264,93 66,199 -39,106 172,52 -27,477 212,145 -93,318 -79,119 h -106 l -212,146 -211,-93 132,331 -106,93 -146,-14 -476,450 13,106 159,186 -119,132 -146,-13 -278,-119 -92,-212 -119,92 39,120 -119,39 -123,-26 -318,-27 -212,-225 -79,-79 40,-212 z"
   id="path122"
   inkscape:connector-curvature="0"
   style="fill:#00ae00;stroke:none" />
         <path
   d="m 12597,16780 146,-80 h 159 v -145 l -80,-133 66,-92 -66,-120 -225,-79 -92,-53 -159,-291 -146,-106 53,-318 -26,-145 132,-146 238,119 305,-238 198,119 177,-384 158,-13 159,40 119,119 278,66 199,-251 92,39 -39,120 -67,172 80,79 106,-53 66,-225 146,-93 264,93 66,199 -39,106 172,52 -27,477 212,145 -93,318 -79,119 h -106 l -212,146 -211,-93 132,331 -106,93 -146,-14 -476,450 13,106 159,186 -119,132 -146,-13 -278,-119 -92,-212 -119,92 39,120 -119,39 -123,-26 -318,-27 -212,-225 -79,-79 40,-212 z"
   id="path124"
   inkscape:connector-curvature="0"
   style="fill:none;stroke:#000000;stroke-width:35;stroke-linecap:round;stroke-linejoin:round" />
         <path
   d="m 15143,18663 v -145 l 13,-172 132,-27 40,-264 h 185 l 27,-199 158,66 93,-159 -26,-163 132,-304 -146,-27 -211,93 -159,-13 -80,-133 -105,-132 13,-146 -93,-66 66,-225 -106,-119 -105,-26 -27,-146 106,-159 h -106 l -212,146 -211,-93 132,331 -106,93 -146,-14 -476,450 13,106 159,186 -119,132 -146,-13 -278,-119 -92,-212 -119,92 39,120 -176,66 123,176 -110,146 44,198 -110,212 -106,225 282,185 106,-119 186,-26 53,-119 79,66 -27,172 225,-53 93,238 172,-106 225,172 159,-66 146,80 132,-133 79,-13 z"
   id="path126"
   inkscape:connector-curvature="0"
   style="fill:#00ae00;stroke:none" />
         <path
   d="m 15143,18663 v -145 l 13,-172 132,-27 40,-264 h 185 l 27,-199 158,66 93,-159 -26,-163 132,-304 -146,-27 -211,93 -159,-13 -80,-133 -105,-132 13,-146 -93,-66 66,-225 -106,-119 -105,-26 -27,-146 106,-159 h -106 l -212,146 -211,-93 132,331 -106,93 -146,-14 -476,450 13,106 159,186 -119,132 -146,-13 -278,-119 -92,-212 -119,92 39,120 -176,66 123,176 -110,146 44,198 -110,212 -106,225 282,185 106,-119 186,-26 53,-119 79,66 -27,172 225,-53 93,238 172,-106 225,172 159,-66 146,80 132,-133 79,-13 z"
   id="path128"
   inkscape:connector-curvature="0"
   style="fill:none;stroke:#000000;stroke-width:35;stroke-linecap:round;stroke-linejoin:round" />
         <path
   d="m 15676,18663 v -185 l -53,-40 93,-79 53,-27 93,93 v 304 l 13,173 66,317 13,199 -39,238 -93,318 -93,172 14,79 v 93 l -106,79 -106,-93 -27,-132 -106,13 -105,-26 -27,-133 40,-79 -53,-26 -66,-53 53,-119 -40,-40 -93,-119 93,-133 -93,-119 v -66 l 14,-66 -14,-119 80,-106 53,-119 26,-119 h 146 z"
   id="path130"
   inkscape:connector-curvature="0"
   style="fill:#00ae00;stroke:none" />
         <path
   d="m 15676,18663 v -185 l -53,-40 93,-79 53,-27 93,93 v 304 l 13,173 66,317 13,199 -39,238 -93,318 -93,172 14,79 v 93 l -106,79 -106,-93 -27,-132 -106,13 -105,-26 -27,-133 40,-79 -53,-26 -66,-53 53,-119 -40,-40 -93,-119 93,-133 -93,-119 v -66 l 14,-66 -14,-119 80,-106 53,-119 26,-119 h 146 z"
   id="path132"
   inkscape:connector-curvature="0"
   style="fill:none;stroke:#000000;stroke-width:35;stroke-linecap:round;stroke-linejoin:round" />
         <path
   d="m 13316,17662 -66,-124 13,-97 -123,-26 -318,-27 -212,-225 -79,-79 40,-212 -291,-35 -292,-159 -145,-13 66,132 -40,40 -132,-27 -13,265 39,185 80,186 132,132 v 150 l 132,93 -39,119 -146,92 -119,199 -278,132 -13,186 -93,66 -198,-53 -119,132 -119,-13 h -186 l -53,172 225,318 -53,119 159,106 53,145 -198,40 -199,53 80,159 211,119 424,-53 225,53 198,-146 318,13 -212,-211 v -344 l 13,-305 146,-106 185,-132 133,-53 53,-106 277,-106 146,106 132,-93 190,-449 13,-186 z"
   id="path134"
   inkscape:connector-curvature="0"
   style="fill:#00ae00;stroke:none" />
         <path
   d="m 13316,17662 -66,-124 13,-97 -123,-26 -318,-27 -212,-225 -79,-79 40,-212 -291,-35 -292,-159 -145,-13 66,132 -40,40 -132,-27 -13,265 39,185 80,186 132,132 v 150 l 132,93 -39,119 -146,92 -119,199 -278,132 -13,186 -93,66 -198,-53 -119,132 -119,-13 h -186 l -53,172 225,318 -53,119 159,106 53,145 -198,40 -199,53 80,159 211,119 424,-53 225,53 198,-146 318,13 -212,-211 v -344 l 13,-305 146,-106 185,-132 133,-53 53,-106 277,-106 146,106 132,-93 190,-449 13,-186 z"
   id="path136"
   inkscape:connector-curvature="0"
   style="fill:none;stroke:#000000;stroke-width:35;stroke-linecap:round;stroke-linejoin:round" />
         <path
   d="m 9866,17388 93,-92 199,-133 13,-158 66,-212 -53,-185 146,26 189,146 212,-40 146,13 158,304 133,-26 238,-238 159,13 159,269 39,185 80,186 132,132 v 150 l 132,93 -39,119 -146,92 -119,199 -278,132 -13,186 -93,66 -198,-53 -119,132 -119,-13 h -186 l -53,172 225,318 -53,119 159,106 53,145 -198,40 -199,53 -212,88 -31,-159 -701,-145 -40,159 -92,-27 -186,27 -172,66 -145,-80 -146,-119 -172,-53 106,-331 172,-211 v -159 l -172,-212 -26,-159 -40,-185 198,-27 v -79 l 397,13 265,-132 66,-172 146,-190 z"
   id="path138"
   inkscape:connector-curvature="0"
   style="fill:#00ae00;stroke:none" />
         <path
   d="m 9866,17388 93,-92 199,-133 13,-158 66,-212 -53,-185 146,26 189,146 212,-40 146,13 158,304 133,-26 238,-238 159,13 159,269 39,185 80,186 132,132 v 150 l 132,93 -39,119 -146,92 -119,199 -278,132 -13,186 -93,66 -198,-53 -119,132 -119,-13 h -186 l -53,172 225,318 -53,119 159,106 53,145 -198,40 -199,53 -212,88 -31,-159 -701,-145 -40,159 -92,-27 -186,27 -172,66 -145,-80 -146,-119 -172,-53 106,-331 172,-211 v -159 l -172,-212 -26,-159 -40,-185 198,-27 v -79 l 397,13 265,-132 66,-172 146,-190 z"
   id="path140"
   inkscape:connector-curvature="0"
   style="fill:none;stroke:#000000;stroke-width:35;stroke-linecap:round;stroke-linejoin:round" />
         <path
   d="m 9866,17388 93,-92 199,-133 13,-158 66,-212 -53,-185 -26,-252 -225,-331 -212,13 -93,67 53,-397 -238,304 -252,490 -185,53 -119,105 -344,-304 -93,40 67,264 -225,-317 -225,-212 v 569 l -172,397 v 106 l 105,13 67,-39 -133,158 13,159 -79,283 -26,304 13,291 -137,252 -212,145 -119,53 238,27 137,92 66,238 225,-39 199,53 212,119 92,-27 186,119 92,-13 106,-331 172,-211 v -159 l -172,-212 -26,-159 -40,-185 198,-27 v -79 l 397,13 265,-132 66,-172 146,-190 z"
   id="path142"
   inkscape:connector-curvature="0"
   style="fill:#00ae00;stroke:none" />
         <path
   d="m 9866,17388 93,-92 199,-133 13,-158 66,-212 -53,-185 -26,-252 -225,-331 -212,13 -93,67 53,-397 -238,304 -252,490 -185,53 -119,105 -344,-304 -93,40 67,264 -225,-317 -225,-212 v 569 l -172,397 v 106 l 105,13 67,-39 -133,158 13,159 -79,283 -26,304 13,291 -137,252 -212,145 -119,53 238,27 137,92 66,238 225,-39 199,53 212,119 92,-27 186,119 92,-13 106,-331 172,-211 v -159 l -172,-212 -26,-159 -40,-185 198,-27 v -79 l 397,13 265,-132 66,-172 146,-190 z"
   id="path144"
   inkscape:connector-curvature="0"
   style="fill:none;stroke:#000000;stroke-width:35;stroke-linecap:round;stroke-linejoin:round" />
        </g>
       </g>
      </g>
     </g>
    </g>
   </g>
  </g>
 </g>
</svg>