<?xml version="1.0" encoding="UTF-8" standalone="no"?>
<svg
   xmlns:ooo="http://xml.openoffice.org/svg/export"
   xmlns:dc="http://purl.org/dc/elements/1.1/"
   xmlns:cc="http://creativecommons.org/ns#"
   xmlns:rdf="http://www.w3.org/1999/02/22-rdf-syntax-ns#"
   xmlns:svg="http://www.w3.org/2000/svg"
   xmlns="http://www.w3.org/2000/svg"
   xmlns:sodipodi="http://sodipodi.sourceforge.net/DTD/sodipodi-0.dtd"
   xmlns:inkscape="http://www.inkscape.org/namespaces/inkscape"
   version="1.2"
   width="55.740002mm"
   height="94.629997mm"
   viewBox="0 0 5574.0002 9462.9997"
   preserveAspectRatio="xMidYMid"
   xml:space="preserve"
   id="svg144"
   sodipodi:docname="grapes.svg"
   style="fill-rule:evenodd;stroke-width:28.22200012;stroke-linejoin:round"
   inkscape:version="0.92.5 (2060ec1f9f, 2020-04-08)"><metadata
   id="metadata148"><rdf:RDF><cc:Work
       rdf:about=""><dc:format>image/svg+xml</dc:format><dc:type
         rdf:resource="http://purl.org/dc/dcmitype/StillImage" /></cc:Work></rdf:RDF></metadata><sodipodi:namedview
   pagecolor="#ffffff"
   bordercolor="#666666"
   borderopacity="1"
   objecttolerance="10"
   gridtolerance="10"
   guidetolerance="10"
   inkscape:pageopacity="0"
   inkscape:pageshadow="2"
   inkscape:window-width="664"
   inkscape:window-height="487"
   id="namedview146"
   showgrid="false"
   inkscape:zoom="0.2102413"
   inkscape:cx="105.33543"
   inkscape:cy="178.80945"
   inkscape:window-x="0"
   inkscape:window-y="0"
   inkscape:window-maximized="0"
   inkscape:current-layer="svg144" />
 <defs
   class="ClipPathGroup"
   id="defs8">
  <clipPath
   id="presentation_clip_path"
   clipPathUnits="userSpaceOnUse">
   <rect
   x="0"
   y="0"
   width="21000"
   height="29700"
   id="rect2" />
  </clipPath>
  <clipPath
   id="presentation_clip_path_shrink"
   clipPathUnits="userSpaceOnUse">
   <rect
   x="21"
   y="29"
   width="20958"
   height="29641"
   id="rect5" />
  </clipPath>
 </defs>
 <defs
   class="TextShapeIndex"
   id="defs12">
  <g
   ooo:slide="id1"
   ooo:id-list="id3"
   id="g10" />
 </defs>
 <defs
   class="EmbeddedBulletChars"
   id="defs44">
  <g
   id="bullet-char-template-57356"
   transform="matrix(4.8828125e-4,0,0,-4.8828125e-4,0,0)">
   <path
   d="M 580,1141 1163,571 580,0 -4,571 Z"
   id="path14"
   inkscape:connector-curvature="0" />
  </g>
  <g
   id="bullet-char-template-57354"
   transform="matrix(4.8828125e-4,0,0,-4.8828125e-4,0,0)">
   <path
   d="M 8,1128 H 1137 V 0 H 8 Z"
   id="path17"
   inkscape:connector-curvature="0" />
  </g>
  <g
   id="bullet-char-template-10146"
   transform="matrix(4.8828125e-4,0,0,-4.8828125e-4,0,0)">
   <path
   d="M 174,0 602,739 174,1481 1456,739 Z M 1358,739 309,1346 659,739 Z"
   id="path20"
   inkscape:connector-curvature="0" />
  </g>
  <g
   id="bullet-char-template-10132"
   transform="matrix(4.8828125e-4,0,0,-4.8828125e-4,0,0)">
   <path
   d="M 2015,739 1276,0 H 717 l 543,543 H 174 v 393 h 1086 l -543,545 h 557 z"
   id="path23"
   inkscape:connector-curvature="0" />
  </g>
  <g
   id="bullet-char-template-10007"
   transform="matrix(4.8828125e-4,0,0,-4.8828125e-4,0,0)">
   <path
   d="m 0,-2 c -7,16 -16,29 -25,39 l 381,530 c -94,256 -141,385 -141,387 0,25 13,38 40,38 9,0 21,-2 34,-5 21,4 42,12 65,25 l 27,-13 111,-251 280,301 64,-25 24,25 c 21,-10 41,-24 62,-43 C 886,937 835,863 770,784 769,783 710,716 594,584 L 774,223 c 0,-27 -21,-55 -63,-84 l 16,-20 C 717,90 699,76 672,76 641,76 570,178 457,381 L 164,-76 c -22,-34 -53,-51 -92,-51 -42,0 -63,17 -64,51 -7,9 -10,24 -10,44 0,9 1,19 2,30 z"
   id="path26"
   inkscape:connector-curvature="0" />
  </g>
  <g
   id="bullet-char-template-10004"
   transform="matrix(4.8828125e-4,0,0,-4.8828125e-4,0,0)">
   <path
   d="M 285,-33 C 182,-33 111,30 74,156 52,228 41,333 41,471 c 0,78 14,145 41,201 34,71 87,106 158,106 53,0 88,-31 106,-94 l 23,-176 c 8,-64 28,-97 59,-98 l 735,706 c 11,11 33,17 66,17 42,0 63,-15 63,-46 V 965 c 0,-36 -10,-64 -30,-84 L 442,47 C 390,-6 338,-33 285,-33 Z"
   id="path29"
   inkscape:connector-curvature="0" />
  </g>
  <g
   id="bullet-char-template-9679"
   transform="matrix(4.8828125e-4,0,0,-4.8828125e-4,0,0)">
   <path
   d="M 813,0 C 632,0 489,54 383,161 276,268 223,411 223,592 c 0,181 53,324 160,431 106,107 249,161 430,161 179,0 323,-54 432,-161 108,-107 162,-251 162,-431 0,-180 -54,-324 -162,-431 C 1136,54 992,0 813,0 Z"
   id="path32"
   inkscape:connector-curvature="0" />
  </g>
  <g
   id="bullet-char-template-8226"
   transform="matrix(4.8828125e-4,0,0,-4.8828125e-4,0,0)">
   <path
   d="m 346,457 c -73,0 -137,26 -191,78 -54,51 -81,114 -81,188 0,73 27,136 81,188 54,52 118,78 191,78 73,0 134,-26 185,-79 51,-51 77,-114 77,-187 0,-75 -25,-137 -76,-188 -50,-52 -112,-78 -186,-78 z"
   id="path35"
   inkscape:connector-curvature="0" />
  </g>
  <g
   id="bullet-char-template-8211"
   transform="matrix(4.8828125e-4,0,0,-4.8828125e-4,0,0)">
   <path
   d="M -4,459 H 1135 V 606 H -4 Z"
   id="path38"
   inkscape:connector-curvature="0" />
  </g>
  <g
   id="bullet-char-template-61548"
   transform="matrix(4.8828125e-4,0,0,-4.8828125e-4,0,0)">
   <path
   d="m 173,740 c 0,163 58,303 173,419 116,115 255,173 419,173 163,0 302,-58 418,-173 116,-116 174,-256 174,-419 0,-163 -58,-303 -174,-418 C 1067,206 928,148 765,148 601,148 462,206 346,322 231,437 173,577 173,740 Z"
   id="path41"
   inkscape:connector-curvature="0" />
  </g>
 </defs>
 <g
   id="g49"
   transform="translate(-7713,-10118)">
  <g
   id="id2"
   class="Master_Slide">
   <g
   id="bg-id2"
   class="Background" />
   <g
   id="bo-id2"
   class="BackgroundObjects" />
  </g>
 </g>
 <g
   class="SlideGroup"
   id="g142"
   transform="translate(-7713,-10118)">
  <g
   id="g140">
   <g
   id="container-id1">
    <g
   id="id1"
   class="Slide"
   clip-path="url(#presentation_clip_path)">
     <g
   class="Page"
   id="g136">
      <g
   class="Graphic"
   id="g134">
       <g
   id="id3">
        <rect
   class="BoundingBox"
   x="7713"
   y="10118"
   width="5574"
   height="9463"
   id="rect51"
   style="fill:none;stroke:none" />
        <defs
   id="defs56">
         <clipPath
   id="clip_path_1"
   clipPathUnits="userSpaceOnUse">
          <path
   d="m 7713,10118 h 5573 v 9462 H 7713 Z"
   id="path53"
   inkscape:connector-curvature="0" />
         </clipPath>
        </defs>
        <g
   clip-path="url(#clip_path_1)"
   id="g58" />
        <defs
   id="defs63">
         <clipPath
   id="clip_path_2"
   clipPathUnits="userSpaceOnUse">
          <path
   d="m 7713,10118 h 5565 v 9454 H 7713 Z"
   id="path60"
   inkscape:connector-curvature="0" />
         </clipPath>
        </defs>
        <g
   clip-path="url(#clip_path_2)"
   id="g129">
         <path
   d="m 9805,10674 -44,-44 -71,-53 -84,-62 -137,-79 -57,-27 -62,-17 -61,-5 h -155 l -141,18 -238,88 216,-128 167,-40 h 190 l 84,14 66,26 89,49 92,53 106,83 71,58 40,35 z"
   id="path65"
   inkscape:connector-curvature="0"
   style="fill:#7f5f3f;stroke:none" />
         <path
   d="m 10643,10118 h 270 l -120,1844 -39,-670 -13,-181 -36,-106 -26,-58 -49,-61 -57,-58 -71,-57 -88,-53 -79,-35 -120,-27 -75,-9 h -75 l -88,18 -168,75 -75,40 -66,44 -79,62 -40,48 -35,58 -18,44 4,57 14,62 22,44 39,44 58,31 66,18 71,13 88,-13 44,-14 53,-44 22,-35 27,-62 4,-62 -4,-61 -9,-58 -5,-44 -31,-70 -31,-49 -79,-75 71,-31 48,40 40,48 40,62 22,62 9,62 4,53 v 61 l -9,75 -22,58 -26,44 -40,44 -22,26 -66,36 -40,17 -75,9 h -71 l -75,-22 -48,-18 -62,-39 -44,-40 -49,-71 -13,-52 -4,-53 13,-67 17,-53 40,-70 58,-62 75,-57 101,-71 256,-115 84,-17 97,-18 132,5 111,22 92,31 181,97 z"
   id="path67"
   inkscape:connector-curvature="0"
   style="fill:#7f5f3f;stroke:none" />
         <path
   d="m 9495,12893 c 0,115 -30,229 -88,329 -58,99 -141,182 -240,240 -100,58 -214,88 -329,88 -115,0 -229,-30 -328,-88 -100,-58 -183,-141 -241,-240 -58,-100 -88,-214 -88,-329 0,-115 30,-229 88,-328 58,-100 141,-183 241,-241 99,-58 213,-88 328,-88 115,0 229,30 329,88 99,58 182,141 240,241 58,99 88,213 88,328 z"
   id="path69"
   inkscape:connector-curvature="0"
   style="fill:#800080;stroke:none" />
         <path
   d="m 9492,12889 -1,-33 -2,-33 -5,-33 -5,-33 -8,-33 -9,-32 -11,-31 -12,-31 -14,-30 -16,-30 -17,-29 -18,-27 -20,-27 -21,-26 -22,-25 -24,-23 -24,-23 -26,-21 -27,-19 -28,-19 -29,-16 -29,-16 -31,-14 -30,-12 -32,-11 -32,-9 -33,-8 -32,-5 -33,-5 -34,-2 -33,-1 v 0 l -33,1 -34,2 -33,5 -32,5 -33,8 -32,9 -32,11 -30,12 -31,14 -29,16 -29,16 -28,19 -27,19 -26,21 -24,23 -24,23 -22,25 -21,26 -20,27 -18,27 -17,29 -16,30 -14,30 -12,31 -11,31 -9,32 -8,33 -5,33 -5,33 -2,33 -1,33 v 0 l 1,33 2,33 5,33 5,33 8,33 9,32 11,31 12,31 14,30 16,30 17,29 18,27 20,27 21,26 22,25 24,23 24,23 26,21 27,19 28,19 29,16 29,16 31,14 30,12 32,11 32,9 33,8 32,5 33,5 34,2 33,1 v 0 l 33,-1 34,-2 33,-5 32,-5 33,-8 32,-9 32,-11 30,-12 31,-14 29,-16 29,-16 28,-19 27,-19 26,-21 24,-23 24,-23 22,-25 21,-26 20,-27 18,-27 17,-29 16,-30 14,-30 12,-31 11,-31 9,-32 8,-33 5,-33 5,-33 2,-33 z"
   id="path71"
   inkscape:connector-curvature="0"
   style="fill:none;stroke:#000000;stroke-width:35;stroke-linecap:round;stroke-linejoin:round" />
         <path
   d="m 10912,12593 c 0,115 -30,229 -88,329 -57,99 -140,182 -239,240 -100,58 -213,88 -328,88 -115,0 -228,-30 -327,-88 -100,-58 -183,-141 -240,-240 -58,-100 -88,-214 -88,-329 0,-115 30,-229 88,-328 57,-100 140,-183 240,-241 99,-58 212,-88 327,-88 115,0 228,30 328,88 99,58 182,141 239,241 58,99 88,213 88,328 z"
   id="path73"
   inkscape:connector-curvature="0"
   style="fill:#800080;stroke:none" />
         <path
   d="m 10908,12589 -1,-33 -2,-33 -5,-33 -5,-33 -8,-33 -9,-32 -11,-31 -12,-31 -14,-30 -15,-30 -17,-29 -18,-27 -20,-27 -21,-26 -22,-25 -23,-23 -25,-23 -25,-21 -27,-19 -28,-19 -28,-16 -29,-16 -30,-14 -31,-12 -32,-11 -31,-9 -33,-8 -32,-5 -33,-5 -33,-2 -33,-1 v 0 l -33,1 -33,2 -33,5 -32,5 -33,8 -31,9 -32,11 -31,12 -30,14 -29,16 -28,16 -28,19 -27,19 -25,21 -25,23 -23,23 -22,25 -21,26 -20,27 -18,27 -17,29 -15,30 -14,30 -12,31 -11,31 -9,32 -8,33 -5,33 -5,33 -2,33 -1,33 v 0 l 1,33 2,33 5,33 5,33 8,33 9,32 11,31 12,31 14,30 15,30 17,29 18,27 20,27 21,26 22,25 23,23 25,23 25,21 27,19 28,19 28,16 29,16 30,14 31,12 32,11 31,9 33,8 32,5 33,5 33,2 33,1 v 0 l 33,-1 33,-2 33,-5 32,-5 33,-8 31,-9 32,-11 31,-12 30,-14 29,-16 28,-16 28,-19 27,-19 25,-21 25,-23 23,-23 22,-25 21,-26 20,-27 18,-27 17,-29 15,-30 14,-30 12,-31 11,-31 9,-32 8,-33 5,-33 5,-33 2,-33 z"
   id="path75"
   inkscape:connector-curvature="0"
   style="fill:none;stroke:#000000;stroke-width:35;stroke-linecap:round;stroke-linejoin:round" />
         <path
   d="m 12253,12054 c 0,115 -30,229 -88,329 -58,99 -141,182 -240,240 -100,58 -214,88 -329,88 -115,0 -229,-30 -328,-88 -100,-58 -183,-141 -241,-240 -58,-100 -88,-214 -88,-329 0,-115 30,-229 88,-328 58,-100 141,-183 241,-241 99,-58 213,-88 328,-88 115,0 229,30 329,88 99,58 182,141 240,241 58,99 88,213 88,328 z"
   id="path77"
   inkscape:connector-curvature="0"
   style="fill:#800080;stroke:none" />
         <path
   d="m 12250,12050 -1,-33 -2,-33 -5,-33 -5,-33 -8,-33 -9,-32 -11,-31 -12,-31 -14,-30 -16,-30 -17,-29 -18,-27 -20,-27 -21,-26 -22,-25 -24,-23 -24,-23 -26,-21 -27,-19 -28,-19 -29,-16 -29,-16 -31,-14 -30,-12 -32,-11 -32,-9 -33,-8 -32,-5 -33,-5 -34,-2 -33,-1 v 0 l -33,1 -34,2 -33,5 -32,5 -33,8 -32,9 -32,11 -30,12 -31,14 -29,16 -29,16 -28,19 -27,19 -26,21 -24,23 -24,23 -22,25 -21,26 -20,27 -18,27 -17,29 -16,30 -14,30 -12,31 -11,31 -9,32 -8,33 -5,33 -5,33 -2,33 -1,33 v 0 l 1,33 2,33 5,33 5,33 8,33 9,32 11,31 12,31 14,30 16,30 17,29 18,27 20,27 21,26 22,25 24,23 24,23 26,21 27,19 28,19 29,16 29,16 31,14 30,12 32,11 32,9 33,8 32,5 33,5 34,2 33,1 v 0 l 33,-1 34,-2 33,-5 32,-5 33,-8 32,-9 32,-11 30,-12 31,-14 29,-16 29,-16 28,-19 27,-19 26,-21 24,-23 24,-23 22,-25 21,-26 20,-27 18,-27 17,-29 16,-30 14,-30 12,-31 11,-31 9,-32 8,-33 5,-33 5,-33 2,-33 z"
   id="path79"
   inkscape:connector-curvature="0"
   style="fill:none;stroke:#000000;stroke-width:35;stroke-linecap:round;stroke-linejoin:round" />
         <path
   d="m 13273,13051 c 0,115 -30,229 -88,329 -58,99 -141,182 -240,240 -100,58 -214,88 -329,88 -115,0 -229,-30 -328,-88 -100,-58 -183,-141 -241,-240 -58,-100 -88,-214 -88,-329 0,-115 30,-229 88,-328 58,-100 141,-183 241,-241 99,-58 213,-88 328,-88 115,0 229,30 329,88 99,58 182,141 240,241 58,99 88,213 88,328 z"
   id="path81"
   inkscape:connector-curvature="0"
   style="fill:#800080;stroke:none" />
         <path
   d="m 13270,13047 -1,-33 -2,-33 -5,-33 -5,-33 -8,-33 -9,-32 -11,-31 -12,-31 -14,-30 -16,-30 -17,-29 -18,-27 -20,-27 -21,-26 -22,-25 -24,-23 -24,-23 -26,-21 -27,-19 -28,-19 -29,-16 -29,-16 -31,-14 -30,-12 -32,-11 -32,-9 -33,-8 -32,-5 -33,-5 -34,-2 -33,-1 v 0 l -33,1 -34,2 -33,5 -32,5 -33,8 -32,9 -32,11 -30,12 -31,14 -29,16 -29,16 -28,19 -27,19 -26,21 -24,23 -24,23 -22,25 -21,26 -20,27 -18,27 -17,29 -16,30 -14,30 -12,31 -11,31 -9,32 -8,33 -5,33 -5,33 -2,33 -1,33 v 0 l 1,33 2,33 5,33 5,33 8,33 9,32 11,31 12,31 14,30 16,30 17,29 18,27 20,27 21,26 22,25 24,23 24,23 26,21 27,19 28,19 29,16 29,16 31,14 30,12 32,11 32,9 33,8 32,5 33,5 34,2 33,1 v 0 l 33,-1 34,-2 33,-5 32,-5 33,-8 32,-9 32,-11 30,-12 31,-14 29,-16 29,-16 28,-19 27,-19 26,-21 24,-23 24,-23 22,-25 21,-26 20,-27 18,-27 17,-29 16,-30 14,-30 12,-31 11,-31 9,-32 8,-33 5,-33 5,-33 2,-33 z"
   id="path83"
   inkscape:connector-curvature="0"
   style="fill:none;stroke:#000000;stroke-width:35;stroke-linecap:round;stroke-linejoin:round" />
         <path
   d="m 11936,13594 c 0,115 -30,229 -88,329 -58,99 -141,182 -242,240 -100,58 -214,88 -329,88 -116,0 -230,-30 -330,-88 -101,-58 -184,-141 -242,-240 -58,-100 -88,-214 -88,-329 0,-115 30,-229 88,-328 58,-100 141,-183 242,-241 100,-58 214,-88 330,-88 115,0 229,30 329,88 101,58 184,141 242,241 58,99 88,213 88,328 z"
   id="path85"
   inkscape:connector-curvature="0"
   style="fill:#800080;stroke:none" />
         <path
   d="m 11933,13590 -1,-33 -2,-33 -5,-33 -5,-33 -8,-33 -9,-32 -11,-31 -12,-31 -14,-30 -16,-30 -17,-29 -18,-27 -20,-27 -21,-26 -22,-25 -24,-23 -24,-23 -26,-21 -27,-19 -28,-19 -29,-16 -29,-16 -31,-14 -30,-12 -32,-11 -32,-9 -33,-8 -32,-5 -33,-5 -34,-2 -33,-1 v 0 l -33,1 -34,2 -33,5 -32,5 -33,8 -32,9 -32,11 -30,12 -31,14 -29,16 -29,16 -28,19 -27,19 -26,21 -24,23 -24,23 -22,25 -21,26 -20,27 -18,27 -17,29 -16,30 -14,30 -12,31 -11,31 -9,32 -8,33 -5,33 -5,33 -2,33 -1,33 v 0 l 1,33 2,33 5,33 5,33 8,33 9,32 11,31 12,31 14,30 16,30 17,29 18,27 20,27 21,26 22,25 24,23 24,23 26,21 27,19 28,19 29,16 29,16 31,14 30,12 32,11 32,9 33,8 32,5 33,5 34,2 33,1 v 0 l 33,-1 34,-2 33,-5 32,-5 33,-8 32,-9 32,-11 30,-12 31,-14 29,-16 29,-16 28,-19 27,-19 26,-21 24,-23 24,-23 22,-25 21,-26 20,-27 18,-27 17,-29 16,-30 14,-30 12,-31 11,-31 9,-32 8,-33 5,-33 5,-33 2,-33 z"
   id="path87"
   inkscape:connector-curvature="0"
   style="fill:none;stroke:#000000;stroke-width:35;stroke-linecap:round;stroke-linejoin:round" />
         <path
   d="m 10493,13991 c 0,115 -30,229 -88,329 -57,99 -140,182 -239,240 -100,58 -213,88 -328,88 -115,0 -228,-30 -327,-88 -100,-58 -183,-141 -240,-240 -58,-100 -88,-214 -88,-329 0,-115 30,-229 88,-328 57,-100 140,-183 240,-241 99,-58 212,-88 327,-88 115,0 228,30 328,88 99,58 182,141 239,241 58,99 88,213 88,328 z"
   id="path89"
   inkscape:connector-curvature="0"
   style="fill:#800080;stroke:none" />
         <path
   d="m 10489,13987 -1,-33 -2,-33 -5,-33 -5,-33 -8,-33 -9,-32 -11,-31 -12,-31 -14,-30 -15,-30 -17,-29 -18,-27 -20,-27 -21,-26 -22,-25 -23,-23 -25,-23 -25,-21 -27,-19 -28,-19 -28,-16 -29,-16 -30,-14 -31,-12 -32,-11 -31,-9 -33,-8 -32,-5 -33,-5 -33,-2 -33,-1 v 0 l -33,1 -33,2 -33,5 -32,5 -33,8 -31,9 -32,11 -31,12 -30,14 -29,16 -28,16 -28,19 -27,19 -25,21 -25,23 -23,23 -22,25 -21,26 -20,27 -18,27 -17,29 -15,30 -14,30 -12,31 -11,31 -9,32 -8,33 -5,33 -5,33 -2,33 -1,33 v 0 l 1,33 2,33 5,33 5,33 8,33 9,32 11,31 12,31 14,30 15,30 17,29 18,27 20,27 21,26 22,25 23,23 25,23 25,21 27,19 28,19 28,16 29,16 30,14 31,12 32,11 31,9 33,8 32,5 33,5 33,2 33,1 v 0 l 33,-1 33,-2 33,-5 32,-5 33,-8 31,-9 32,-11 31,-12 30,-14 29,-16 28,-16 28,-19 27,-19 25,-21 25,-23 23,-23 22,-25 21,-26 20,-27 18,-27 17,-29 15,-30 14,-30 12,-31 11,-31 9,-32 8,-33 5,-33 5,-33 2,-33 z"
   id="path91"
   inkscape:connector-curvature="0"
   style="fill:none;stroke:#000000;stroke-width:35;stroke-linecap:round;stroke-linejoin:round" />
         <path
   d="m 9032,14353 c 0,115 -30,229 -88,329 -57,99 -140,182 -239,240 -100,58 -213,88 -328,88 -115,0 -228,-30 -327,-88 -100,-58 -183,-141 -240,-240 -58,-100 -88,-214 -88,-329 0,-115 30,-229 88,-328 57,-100 140,-183 240,-241 99,-58 212,-88 327,-88 115,0 228,30 328,88 99,58 182,141 239,241 58,99 88,213 88,328 z"
   id="path93"
   inkscape:connector-curvature="0"
   style="fill:#800080;stroke:none" />
         <path
   d="m 9028,14349 -1,-33 -2,-33 -5,-33 -5,-33 -8,-33 -9,-32 -11,-31 -12,-31 -14,-30 -15,-30 -17,-29 -18,-27 -20,-27 -21,-26 -22,-25 -23,-23 -25,-23 -25,-21 -27,-19 -28,-19 -28,-16 -29,-16 -30,-14 -31,-12 -32,-11 -31,-9 -33,-8 -32,-5 -33,-5 -33,-2 -33,-1 v 0 l -33,1 -33,2 -33,5 -32,5 -33,8 -31,9 -32,11 -31,12 -30,14 -29,16 -28,16 -28,19 -27,19 -25,21 -25,23 -23,23 -22,25 -21,26 -20,27 -18,27 -17,29 -15,30 -14,30 -12,31 -11,31 -9,32 -8,33 -5,33 -5,33 -2,33 -1,33 v 0 l 1,33 2,33 5,33 5,33 8,33 9,32 11,31 12,31 14,30 15,30 17,29 18,27 20,27 21,26 22,25 23,23 25,23 25,21 27,19 28,19 28,16 29,16 30,14 31,12 32,11 31,9 33,8 32,5 33,5 33,2 33,1 v 0 l 33,-1 33,-2 33,-5 32,-5 33,-8 31,-9 32,-11 31,-12 30,-14 29,-16 28,-16 28,-19 27,-19 25,-21 25,-23 23,-23 22,-25 21,-26 20,-27 18,-27 17,-29 15,-30 14,-30 12,-31 11,-31 9,-32 8,-33 5,-33 5,-33 2,-33 z"
   id="path95"
   inkscape:connector-curvature="0"
   style="fill:none;stroke:#000000;stroke-width:35;stroke-linecap:round;stroke-linejoin:round" />
         <path
   d="m 10175,15410 c 0,114 -30,227 -88,327 -58,99 -141,182 -242,239 -100,58 -214,88 -329,88 -116,0 -230,-30 -330,-88 -101,-57 -184,-140 -242,-239 -58,-100 -88,-213 -88,-327 0,-115 30,-228 88,-328 58,-99 141,-182 242,-239 100,-58 214,-88 330,-88 115,0 229,30 329,88 101,57 184,140 242,239 58,100 88,213 88,328 z"
   id="path97"
   inkscape:connector-curvature="0"
   style="fill:#800080;stroke:none" />
         <path
   d="m 10172,15408 -1,-33 -2,-33 -5,-33 -5,-32 -8,-33 -9,-31 -11,-32 -12,-31 -14,-30 -16,-29 -17,-28 -18,-28 -20,-27 -21,-25 -22,-25 -24,-23 -24,-22 -26,-21 -27,-20 -28,-18 -29,-17 -29,-15 -31,-14 -30,-12 -32,-11 -32,-9 -33,-8 -32,-5 -33,-5 -34,-2 -33,-1 v 0 l -33,1 -34,2 -33,5 -32,5 -33,8 -32,9 -32,11 -30,12 -31,14 -29,15 -29,17 -28,18 -27,20 -26,21 -24,22 -24,23 -22,25 -21,25 -20,27 -18,28 -17,28 -16,29 -14,30 -12,31 -11,32 -9,31 -8,33 -5,32 -5,33 -2,33 -1,33 v 0 l 1,33 2,33 5,33 5,32 8,33 9,31 11,32 12,31 14,30 16,29 17,28 18,28 20,27 21,25 22,25 24,23 24,22 26,21 27,20 28,18 29,17 29,15 31,14 30,12 32,11 32,9 33,8 32,5 33,5 34,2 33,1 v 0 l 33,-1 34,-2 33,-5 32,-5 33,-8 32,-9 32,-11 30,-12 31,-14 29,-15 29,-17 28,-18 27,-20 26,-21 24,-22 24,-23 22,-25 21,-25 20,-27 18,-28 17,-28 16,-29 14,-30 12,-31 11,-32 9,-31 8,-33 5,-32 5,-33 2,-33 z"
   id="path99"
   inkscape:connector-curvature="0"
   style="fill:none;stroke:#000000;stroke-width:35;stroke-linecap:round;stroke-linejoin:round" />
         <path
   d="m 11768,15030 c 0,114 -30,227 -88,327 -57,99 -140,182 -239,239 -100,58 -213,88 -328,88 -115,0 -228,-30 -327,-88 -100,-57 -183,-140 -240,-239 -58,-100 -88,-213 -88,-327 0,-115 30,-228 88,-328 57,-99 140,-182 240,-239 99,-58 212,-88 327,-88 115,0 228,30 328,88 99,57 182,140 239,239 58,100 88,213 88,328 z"
   id="path101"
   inkscape:connector-curvature="0"
   style="fill:#800080;stroke:none" />
         <path
   d="m 11764,15028 -1,-33 -2,-33 -5,-33 -5,-32 -8,-33 -9,-31 -11,-32 -12,-31 -14,-30 -15,-29 -17,-28 -18,-28 -20,-27 -21,-25 -22,-25 -23,-23 -25,-22 -25,-21 -27,-20 -28,-18 -28,-17 -29,-15 -30,-14 -31,-12 -32,-11 -31,-9 -33,-8 -32,-5 -33,-5 -33,-2 -33,-1 v 0 l -33,1 -33,2 -33,5 -32,5 -33,8 -31,9 -32,11 -31,12 -30,14 -29,15 -28,17 -28,18 -27,20 -25,21 -25,22 -23,23 -22,25 -21,25 -20,27 -18,28 -17,28 -15,29 -14,30 -12,31 -11,32 -9,31 -8,33 -5,32 -5,33 -2,33 -1,33 v 0 l 1,33 2,33 5,33 5,32 8,33 9,31 11,32 12,31 14,30 15,29 17,28 18,28 20,27 21,25 22,25 23,23 25,22 25,21 27,20 28,18 28,17 29,15 30,14 31,12 32,11 31,9 33,8 32,5 33,5 33,2 33,1 v 0 l 33,-1 33,-2 33,-5 32,-5 33,-8 31,-9 32,-11 31,-12 30,-14 29,-15 28,-17 28,-18 27,-20 25,-21 25,-22 23,-23 22,-25 21,-25 20,-27 18,-28 17,-28 15,-29 14,-30 12,-31 11,-32 9,-31 8,-33 5,-32 5,-33 2,-33 z"
   id="path103"
   inkscape:connector-curvature="0"
   style="fill:none;stroke:#000000;stroke-width:35;stroke-linecap:round;stroke-linejoin:round" />
         <path
   d="m 13070,14452 c 0,114 -30,227 -88,327 -58,99 -141,182 -240,239 -100,58 -214,88 -329,88 -115,0 -229,-30 -328,-88 -100,-57 -183,-140 -241,-239 -58,-100 -88,-213 -88,-327 0,-115 30,-228 88,-328 58,-99 141,-182 241,-239 99,-58 213,-88 328,-88 115,0 229,30 329,88 99,57 182,140 240,239 58,100 88,213 88,328 z"
   id="path105"
   inkscape:connector-curvature="0"
   style="fill:#800080;stroke:none" />
         <path
   d="m 13067,14450 -1,-33 -2,-33 -5,-33 -5,-32 -8,-33 -9,-31 -11,-32 -12,-31 -14,-30 -16,-29 -17,-28 -18,-28 -20,-27 -21,-25 -22,-25 -24,-23 -24,-22 -26,-21 -27,-20 -28,-18 -29,-17 -29,-15 -31,-14 -30,-12 -32,-11 -32,-9 -33,-8 -32,-5 -33,-5 -34,-2 -33,-1 v 0 l -33,1 -34,2 -33,5 -32,5 -33,8 -32,9 -32,11 -30,12 -31,14 -29,15 -29,17 -28,18 -27,20 -26,21 -24,22 -24,23 -22,25 -21,25 -20,27 -18,28 -17,28 -16,29 -14,30 -12,31 -11,32 -9,31 -8,33 -5,32 -5,33 -2,33 -1,33 v 0 l 1,33 2,33 5,33 5,32 8,33 9,31 11,32 12,31 14,30 16,29 17,28 18,28 20,27 21,25 22,25 24,23 24,22 26,21 27,20 28,18 29,17 29,15 31,14 30,12 32,11 32,9 33,8 32,5 33,5 34,2 33,1 v 0 l 33,-1 34,-2 33,-5 32,-5 33,-8 32,-9 32,-11 30,-12 31,-14 29,-15 29,-17 28,-18 27,-20 26,-21 24,-22 24,-23 22,-25 21,-25 20,-27 18,-28 17,-28 16,-29 14,-30 12,-31 11,-32 9,-31 8,-33 5,-32 5,-33 2,-33 z"
   id="path107"
   inkscape:connector-curvature="0"
   style="fill:none;stroke:#000000;stroke-width:35;stroke-linecap:round;stroke-linejoin:round" />
         <path
   d="m 11251,16367 c 0,114 -30,227 -88,327 -58,99 -141,182 -240,239 -100,58 -214,88 -329,88 -115,0 -229,-30 -328,-88 -100,-57 -183,-140 -241,-239 -58,-100 -88,-213 -88,-327 0,-115 30,-228 88,-328 58,-99 141,-182 241,-239 99,-58 213,-88 328,-88 115,0 229,30 329,88 99,57 182,140 240,239 58,100 88,213 88,328 z"
   id="path109"
   inkscape:connector-curvature="0"
   style="fill:#800080;stroke:none" />
         <path
   d="m 11248,16365 -1,-33 -2,-33 -5,-33 -5,-32 -8,-33 -9,-31 -11,-32 -12,-31 -14,-30 -16,-29 -17,-28 -18,-28 -20,-27 -21,-25 -22,-25 -24,-23 -24,-22 -26,-21 -27,-20 -28,-18 -29,-17 -29,-15 -31,-14 -30,-12 -32,-11 -32,-9 -33,-8 -32,-5 -33,-5 -34,-2 -33,-1 v 0 l -33,1 -34,2 -33,5 -32,5 -33,8 -32,9 -32,11 -30,12 -31,14 -29,15 -29,17 -28,18 -27,20 -26,21 -24,22 -24,23 -22,25 -21,25 -20,27 -18,28 -17,28 -16,29 -14,30 -12,31 -11,32 -9,31 -8,33 -5,32 -5,33 -2,33 -1,33 v 0 l 1,33 2,33 5,33 5,32 8,33 9,31 11,32 12,31 14,30 16,29 17,28 18,28 20,27 21,25 22,25 24,23 24,22 26,21 27,20 28,18 29,17 29,15 31,14 30,12 32,11 32,9 33,8 32,5 33,5 34,2 33,1 v 0 l 33,-1 34,-2 33,-5 32,-5 33,-8 32,-9 32,-11 30,-12 31,-14 29,-15 29,-17 28,-18 27,-20 26,-21 24,-22 24,-23 22,-25 21,-25 20,-27 18,-28 17,-28 16,-29 14,-30 12,-31 11,-32 9,-31 8,-33 5,-32 5,-33 2,-33 z"
   id="path111"
   inkscape:connector-curvature="0"
   style="fill:none;stroke:#000000;stroke-width:35;stroke-linecap:round;stroke-linejoin:round" />
         <path
   d="m 12814,15990 c 0,115 -30,229 -88,329 -58,99 -141,182 -242,240 -100,58 -214,88 -329,88 -116,0 -230,-30 -330,-88 -101,-58 -184,-141 -242,-240 -58,-100 -88,-214 -88,-329 0,-115 30,-229 88,-328 58,-100 141,-183 242,-241 100,-58 214,-88 330,-88 115,0 229,30 329,88 101,58 184,141 242,241 58,99 88,213 88,328 z"
   id="path113"
   inkscape:connector-curvature="0"
   style="fill:#800080;stroke:none" />
         <path
   d="m 12811,15986 -1,-33 -2,-33 -5,-33 -5,-33 -8,-33 -9,-32 -11,-31 -12,-31 -14,-30 -16,-30 -17,-29 -18,-27 -20,-27 -21,-26 -22,-25 -24,-23 -24,-23 -26,-21 -27,-19 -28,-19 -29,-16 -29,-16 -31,-14 -30,-12 -32,-11 -32,-9 -33,-8 -32,-5 -33,-5 -34,-2 -33,-1 v 0 l -33,1 -34,2 -33,5 -32,5 -33,8 -32,9 -32,11 -30,12 -31,14 -29,16 -29,16 -28,19 -27,19 -26,21 -24,23 -24,23 -22,25 -21,26 -20,27 -18,27 -17,29 -16,30 -14,30 -12,31 -11,31 -9,32 -8,33 -5,33 -5,33 -2,33 -1,33 v 0 l 1,33 2,33 5,33 5,33 8,33 9,32 11,31 12,31 14,30 16,30 17,29 18,27 20,27 21,26 22,25 24,23 24,23 26,21 27,19 28,19 29,16 29,16 31,14 30,12 32,11 32,9 33,8 32,5 33,5 34,2 33,1 v 0 l 33,-1 34,-2 33,-5 32,-5 33,-8 32,-9 32,-11 30,-12 31,-14 29,-16 29,-16 28,-19 27,-19 26,-21 24,-23 24,-23 22,-25 21,-26 20,-27 18,-27 17,-29 16,-30 14,-30 12,-31 11,-31 9,-32 8,-33 5,-33 5,-33 2,-33 z"
   id="path115"
   inkscape:connector-curvature="0"
   style="fill:none;stroke:#000000;stroke-width:35;stroke-linecap:round;stroke-linejoin:round" />
         <path
   d="m 12355,17348 c 0,115 -30,229 -88,329 -58,99 -141,182 -242,240 -100,58 -214,88 -329,88 -116,0 -230,-30 -330,-88 -101,-58 -184,-141 -242,-240 -58,-100 -88,-214 -88,-329 0,-115 30,-229 88,-328 58,-100 141,-183 242,-241 100,-58 214,-88 330,-88 115,0 229,30 329,88 101,58 184,141 242,241 58,99 88,213 88,328 z"
   id="path117"
   inkscape:connector-curvature="0"
   style="fill:#800080;stroke:none" />
         <path
   d="m 12352,17344 -1,-33 -2,-33 -5,-33 -5,-33 -8,-33 -9,-32 -11,-31 -12,-31 -14,-30 -16,-30 -17,-29 -18,-27 -20,-27 -21,-26 -22,-25 -24,-23 -24,-23 -26,-21 -27,-19 -28,-19 -29,-16 -29,-16 -31,-14 -30,-12 -32,-11 -32,-9 -33,-8 -32,-5 -33,-5 -34,-2 -33,-1 v 0 l -33,1 -34,2 -33,5 -32,5 -33,8 -32,9 -32,11 -30,12 -31,14 -29,16 -29,16 -28,19 -27,19 -26,21 -24,23 -24,23 -22,25 -21,26 -20,27 -18,27 -17,29 -16,30 -14,30 -12,31 -11,31 -9,32 -8,33 -5,33 -5,33 -2,33 -1,33 v 0 l 1,33 2,33 5,33 5,33 8,33 9,32 11,31 12,31 14,30 16,30 17,29 18,27 20,27 21,26 22,25 24,23 24,23 26,21 27,19 28,19 29,16 29,16 31,14 30,12 32,11 32,9 33,8 32,5 33,5 34,2 33,1 v 0 l 33,-1 34,-2 33,-5 32,-5 33,-8 32,-9 32,-11 30,-12 31,-14 29,-16 29,-16 28,-19 27,-19 26,-21 24,-23 24,-23 22,-25 21,-26 20,-27 18,-27 17,-29 16,-30 14,-30 12,-31 11,-31 9,-32 8,-33 5,-33 5,-33 2,-33 z"
   id="path119"
   inkscape:connector-curvature="0"
   style="fill:none;stroke:#000000;stroke-width:35;stroke-linecap:round;stroke-linejoin:round" />
         <path
   d="m 11071,18010 c 0,115 -30,229 -88,329 -57,99 -140,182 -239,240 -100,58 -213,88 -328,88 -115,0 -228,-30 -327,-88 -100,-58 -183,-141 -240,-240 -58,-100 -88,-214 -88,-329 0,-115 30,-229 88,-328 57,-100 140,-183 240,-241 99,-58 212,-88 327,-88 115,0 228,30 328,88 99,58 182,141 239,241 58,99 88,213 88,328 z"
   id="path121"
   inkscape:connector-curvature="0"
   style="fill:#800080;stroke:none" />
         <path
   d="m 11067,18006 -1,-33 -2,-33 -5,-33 -5,-33 -8,-33 -9,-32 -11,-31 -12,-31 -14,-30 -15,-30 -17,-29 -18,-27 -20,-27 -21,-26 -22,-25 -23,-23 -25,-23 -25,-21 -27,-19 -28,-19 -28,-16 -29,-16 -30,-14 -31,-12 -32,-11 -31,-9 -33,-8 -32,-5 -33,-5 -33,-2 -33,-1 v 0 l -33,1 -33,2 -33,5 -32,5 -33,8 -31,9 -32,11 -31,12 -30,14 -29,16 -28,16 -28,19 -27,19 -25,21 -25,23 -23,23 -22,25 -21,26 -20,27 -18,27 -17,29 -15,30 -14,30 -12,31 -11,31 -9,32 -8,33 -5,33 -5,33 -2,33 -1,33 v 0 l 1,33 2,33 5,33 5,33 8,33 9,32 11,31 12,31 14,30 15,30 17,29 18,27 20,27 21,26 22,25 23,23 25,23 25,21 27,19 28,19 28,16 29,16 30,14 31,12 32,11 31,9 33,8 32,5 33,5 33,2 33,1 v 0 l 33,-1 33,-2 33,-5 32,-5 33,-8 31,-9 32,-11 31,-12 30,-14 29,-16 28,-16 28,-19 27,-19 25,-21 25,-23 23,-23 22,-25 21,-26 20,-27 18,-27 17,-29 15,-30 14,-30 12,-31 11,-31 9,-32 8,-33 5,-33 5,-33 2,-33 z"
   id="path123"
   inkscape:connector-curvature="0"
   style="fill:none;stroke:#000000;stroke-width:35;stroke-linecap:round;stroke-linejoin:round" />
         <path
   d="m 12266,18910 c 0,115 -30,229 -88,329 -58,99 -141,182 -240,240 -100,58 -214,88 -329,88 -115,0 -229,-30 -328,-88 -100,-58 -183,-141 -241,-240 -58,-100 -88,-214 -88,-329 0,-115 30,-229 88,-328 58,-100 141,-183 241,-241 99,-58 213,-88 328,-88 115,0 229,30 329,88 99,58 182,141 240,241 58,99 88,213 88,328 z"
   id="path125"
   inkscape:connector-curvature="0"
   style="fill:#800080;stroke:none" />
         <path
   d="m 12264,18906 -1,-33 -2,-33 -5,-33 -5,-33 -8,-33 -9,-32 -11,-31 -12,-31 -14,-30 -16,-30 -17,-29 -18,-27 -20,-27 -21,-26 -22,-25 -24,-23 -24,-23 -26,-21 -27,-19 -28,-19 -29,-16 -29,-16 -31,-14 -30,-12 -32,-11 -32,-9 -33,-8 -32,-5 -33,-5 -34,-2 -33,-1 v 0 l -33,1 -34,2 -33,5 -32,5 -33,8 -32,9 -32,11 -30,12 -31,14 -29,16 -29,16 -28,19 -27,19 -26,21 -24,23 -24,23 -22,25 -21,26 -20,27 -18,27 -17,29 -16,30 -14,30 -12,31 -11,31 -9,32 -8,33 -5,33 -5,33 -2,33 -1,33 v 0 l 1,33 2,33 5,33 5,33 8,33 9,32 11,31 12,31 14,30 16,30 17,29 18,27 20,27 21,26 22,25 24,23 24,23 26,21 27,19 28,19 29,16 29,16 31,14 30,12 32,11 32,9 33,8 32,5 33,5 34,2 33,1 v 0 l 33,-1 34,-2 33,-5 32,-5 33,-8 32,-9 32,-11 30,-12 31,-14 29,-16 29,-16 28,-19 27,-19 26,-21 24,-23 24,-23 22,-25 21,-26 20,-27 18,-27 17,-29 16,-30 14,-30 12,-31 11,-31 9,-32 8,-33 5,-33 5,-33 2,-33 z"
   id="path127"
   inkscape:connector-curvature="0"
   style="fill:none;stroke:#000000;stroke-width:35;stroke-linecap:round;stroke-linejoin:round" />
        </g>
        <g
   clip-path="url(#clip_path_1)"
   id="g131" />
       </g>
      </g>
     </g>
    </g>
   </g>
  </g>
 </g>
</svg>