<?xml version="1.0" encoding="UTF-8" standalone="no"?>
<svg
   xmlns:ooo="http://xml.openoffice.org/svg/export"
   xmlns:dc="http://purl.org/dc/elements/1.1/"
   xmlns:cc="http://creativecommons.org/ns#"
   xmlns:rdf="http://www.w3.org/1999/02/22-rdf-syntax-ns#"
   xmlns:svg="http://www.w3.org/2000/svg"
   xmlns="http://www.w3.org/2000/svg"
   xmlns:sodipodi="http://sodipodi.sourceforge.net/DTD/sodipodi-0.dtd"
   xmlns:inkscape="http://www.inkscape.org/namespaces/inkscape"
   version="1.2"
   width="125.77mm"
   height="90.220001mm"
   viewBox="0 0 12577 9022.0001"
   preserveAspectRatio="xMidYMid"
   xml:space="preserve"
   id="svg101"
   sodipodi:docname="hockey.svg"
   style="fill-rule:evenodd;stroke-width:28.22200012;stroke-linejoin:round"
   inkscape:version="0.92.5 (2060ec1f9f, 2020-04-08)"><metadata
   id="metadata105"><rdf:RDF><cc:Work
       rdf:about=""><dc:format>image/svg+xml</dc:format><dc:type
         rdf:resource="http://purl.org/dc/dcmitype/StillImage" /></cc:Work></rdf:RDF></metadata><sodipodi:namedview
   pagecolor="#ffffff"
   bordercolor="#666666"
   borderopacity="1"
   objecttolerance="10"
   gridtolerance="10"
   guidetolerance="10"
   inkscape:pageopacity="0"
   inkscape:pageshadow="2"
   inkscape:window-width="664"
   inkscape:window-height="487"
   id="namedview103"
   showgrid="false"
   inkscape:zoom="0.2102413"
   inkscape:cx="237.69449"
   inkscape:cy="170.49449"
   inkscape:window-x="0"
   inkscape:window-y="0"
   inkscape:window-maximized="0"
   inkscape:current-layer="svg101" />
 <defs
   class="ClipPathGroup"
   id="defs8">
  <clipPath
   id="presentation_clip_path"
   clipPathUnits="userSpaceOnUse">
   <rect
   x="0"
   y="0"
   width="21000"
   height="29700"
   id="rect2" />
  </clipPath>
  <clipPath
   id="presentation_clip_path_shrink"
   clipPathUnits="userSpaceOnUse">
   <rect
   x="21"
   y="29"
   width="20958"
   height="29641"
   id="rect5" />
  </clipPath>
 </defs>
 <defs
   class="TextShapeIndex"
   id="defs12">
  <g
   ooo:slide="id1"
   ooo:id-list="id3"
   id="g10" />
 </defs>
 <defs
   class="EmbeddedBulletChars"
   id="defs44">
  <g
   id="bullet-char-template-57356"
   transform="matrix(4.8828125e-4,0,0,-4.8828125e-4,0,0)">
   <path
   d="M 580,1141 1163,571 580,0 -4,571 Z"
   id="path14"
   inkscape:connector-curvature="0" />
  </g>
  <g
   id="bullet-char-template-57354"
   transform="matrix(4.8828125e-4,0,0,-4.8828125e-4,0,0)">
   <path
   d="M 8,1128 H 1137 V 0 H 8 Z"
   id="path17"
   inkscape:connector-curvature="0" />
  </g>
  <g
   id="bullet-char-template-10146"
   transform="matrix(4.8828125e-4,0,0,-4.8828125e-4,0,0)">
   <path
   d="M 174,0 602,739 174,1481 1456,739 Z M 1358,739 309,1346 659,739 Z"
   id="path20"
   inkscape:connector-curvature="0" />
  </g>
  <g
   id="bullet-char-template-10132"
   transform="matrix(4.8828125e-4,0,0,-4.8828125e-4,0,0)">
   <path
   d="M 2015,739 1276,0 H 717 l 543,543 H 174 v 393 h 1086 l -543,545 h 557 z"
   id="path23"
   inkscape:connector-curvature="0" />
  </g>
  <g
   id="bullet-char-template-10007"
   transform="matrix(4.8828125e-4,0,0,-4.8828125e-4,0,0)">
   <path
   d="m 0,-2 c -7,16 -16,29 -25,39 l 381,530 c -94,256 -141,385 -141,387 0,25 13,38 40,38 9,0 21,-2 34,-5 21,4 42,12 65,25 l 27,-13 111,-251 280,301 64,-25 24,25 c 21,-10 41,-24 62,-43 C 886,937 835,863 770,784 769,783 710,716 594,584 L 774,223 c 0,-27 -21,-55 -63,-84 l 16,-20 C 717,90 699,76 672,76 641,76 570,178 457,381 L 164,-76 c -22,-34 -53,-51 -92,-51 -42,0 -63,17 -64,51 -7,9 -10,24 -10,44 0,9 1,19 2,30 z"
   id="path26"
   inkscape:connector-curvature="0" />
  </g>
  <g
   id="bullet-char-template-10004"
   transform="matrix(4.8828125e-4,0,0,-4.8828125e-4,0,0)">
   <path
   d="M 285,-33 C 182,-33 111,30 74,156 52,228 41,333 41,471 c 0,78 14,145 41,201 34,71 87,106 158,106 53,0 88,-31 106,-94 l 23,-176 c 8,-64 28,-97 59,-98 l 735,706 c 11,11 33,17 66,17 42,0 63,-15 63,-46 V 965 c 0,-36 -10,-64 -30,-84 L 442,47 C 390,-6 338,-33 285,-33 Z"
   id="path29"
   inkscape:connector-curvature="0" />
  </g>
  <g
   id="bullet-char-template-9679"
   transform="matrix(4.8828125e-4,0,0,-4.8828125e-4,0,0)">
   <path
   d="M 813,0 C 632,0 489,54 383,161 276,268 223,411 223,592 c 0,181 53,324 160,431 106,107 249,161 430,161 179,0 323,-54 432,-161 108,-107 162,-251 162,-431 0,-180 -54,-324 -162,-431 C 1136,54 992,0 813,0 Z"
   id="path32"
   inkscape:connector-curvature="0" />
  </g>
  <g
   id="bullet-char-template-8226"
   transform="matrix(4.8828125e-4,0,0,-4.8828125e-4,0,0)">
   <path
   d="m 346,457 c -73,0 -137,26 -191,78 -54,51 -81,114 -81,188 0,73 27,136 81,188 54,52 118,78 191,78 73,0 134,-26 185,-79 51,-51 77,-114 77,-187 0,-75 -25,-137 -76,-188 -50,-52 -112,-78 -186,-78 z"
   id="path35"
   inkscape:connector-curvature="0" />
  </g>
  <g
   id="bullet-char-template-8211"
   transform="matrix(4.8828125e-4,0,0,-4.8828125e-4,0,0)">
   <path
   d="M -4,459 H 1135 V 606 H -4 Z"
   id="path38"
   inkscape:connector-curvature="0" />
  </g>
  <g
   id="bullet-char-template-61548"
   transform="matrix(4.8828125e-4,0,0,-4.8828125e-4,0,0)">
   <path
   d="m 173,740 c 0,163 58,303 173,419 116,115 255,173 419,173 163,0 302,-58 418,-173 116,-116 174,-256 174,-419 0,-163 -58,-303 -174,-418 C 1067,206 928,148 765,148 601,148 462,206 346,322 231,437 173,577 173,740 Z"
   id="path41"
   inkscape:connector-curvature="0" />
  </g>
 </defs>
 <g
   id="g49"
   transform="translate(-4211,-10339)">
  <g
   id="id2"
   class="Master_Slide">
   <g
   id="bg-id2"
   class="Background" />
   <g
   id="bo-id2"
   class="BackgroundObjects" />
  </g>
 </g>
 <g
   class="SlideGroup"
   id="g99"
   transform="translate(-4211,-10339)">
  <g
   id="g97">
   <g
   id="container-id1">
    <g
   id="id1"
   class="Slide"
   clip-path="url(#presentation_clip_path)">
     <g
   class="Page"
   id="g93">
      <g
   class="Graphic"
   id="g91">
       <g
   id="id3">
        <rect
   class="BoundingBox"
   x="4211"
   y="10339"
   width="12577"
   height="9022"
   id="rect51"
   style="fill:none;stroke:none" />
        <defs
   id="defs56">
         <clipPath
   id="clip_path_1"
   clipPathUnits="userSpaceOnUse">
          <path
   d="m 4211,10339 h 12576 v 9021 H 4211 Z"
   id="path53"
   inkscape:connector-curvature="0" />
         </clipPath>
        </defs>
        <g
   clip-path="url(#clip_path_1)"
   id="g88">
         <path
   d="m 7921,17808 6569,-7473 h 608 l -7036,8947 -31,44 -35,26 -44,9 H 4317 l -44,-18 -27,-26 -17,-31 -18,-40 -4,-35 v -1226 l 13,-53 26,-53 31,-31 35,-22 40,-18 z"
   id="path58"
   inkscape:connector-curvature="0"
   style="fill:#bf3f00;stroke:none" />
         <path
   d="m 15094,10335 -7067,9000 123,-49 6944,-8837 z"
   id="path60"
   inkscape:connector-curvature="0"
   style="fill:#bf7f3f;stroke:none" />
         <path
   d="m 7921,17808 6569,-7473 h 145 L 7934,17985 H 4207 l 13,-53 26,-53 31,-31 35,-22 40,-18 z"
   id="path62"
   inkscape:connector-curvature="0"
   style="fill:#ff5f00;stroke:none" />
         <path
   d="m 14401,10440 h 614 v 111 l -225,287 v -115 l -636,-5 z"
   id="path64"
   inkscape:connector-curvature="0"
   style="fill:#000000;stroke:none" />
         <path
   d="m 14022,10868 h 653 v 111 l -225,286 v -119 h -671 z"
   id="path66"
   inkscape:connector-curvature="0"
   style="fill:#000000;stroke:none" />
         <path
   d="m 13651,11296 h 675 v 128 l -225,283 v -128 l -697,-5 z"
   id="path68"
   inkscape:connector-curvature="0"
   style="fill:#000000;stroke:none" />
         <path
   d="m 13254,11738 h 737 v 110 l -229,287 v -115 l -755,-5 z"
   id="path70"
   inkscape:connector-curvature="0"
   style="fill:#000000;stroke:none" />
         <path
   d="m 16782,16912 c 0,152 -102,302 -295,434 -193,132 -470,241 -804,318 -334,76 -714,116 -1099,116 -386,0 -766,-40 -1100,-116 -334,-77 -611,-186 -804,-318 -193,-132 -295,-282 -295,-434 0,-153 102,-303 295,-435 193,-132 470,-241 804,-318 334,-76 714,-116 1099,-116 386,0 766,40 1100,116 334,77 611,186 804,318 193,132 295,282 295,435 z"
   id="path72"
   inkscape:connector-curvature="0"
   style="fill:#5f5f5f;stroke:none" />
         <path
   d="m 16779,16908 -3,-44 -8,-44 -14,-44 -20,-43 -25,-43 -31,-42 -36,-42 -41,-41 -47,-40 -51,-39 -57,-38 -61,-36 -66,-36 -70,-34 -75,-33 -78,-31 -83,-29 -86,-28 -90,-26 -93,-24 -96,-23 -98,-20 -102,-19 -103,-16 -105,-14 -107,-12 -109,-10 -109,-8 -111,-6 -111,-3 -111,-1 v 0 l -111,1 -111,3 -111,6 -109,8 -109,10 -107,12 -105,14 -103,16 -102,19 -98,20 -96,23 -93,24 -90,26 -86,28 -83,29 -78,31 -75,33 -70,34 -66,36 -61,36 -57,38 -51,39 -47,40 -41,41 -36,42 -31,42 -25,43 -20,43 -14,44 -8,44 -3,44 v 0 l 3,44 8,44 14,44 20,43 25,43 31,42 36,42 41,41 47,40 51,39 57,38 61,36 66,36 70,34 75,33 78,31 83,29 86,28 90,26 93,24 96,23 98,20 102,19 103,16 105,14 107,12 109,10 109,8 111,6 111,3 111,1 v 0 l 111,-1 111,-3 111,-6 109,-8 109,-10 107,-12 105,-14 103,-16 102,-19 98,-20 96,-23 93,-24 90,-26 86,-28 83,-29 78,-31 75,-33 70,-34 66,-36 61,-36 57,-38 51,-39 47,-40 41,-41 36,-42 31,-42 25,-43 20,-43 14,-44 8,-44 z"
   id="path74"
   inkscape:connector-curvature="0"
   style="fill:none;stroke:#5f5f5f;stroke-width:35;stroke-linecap:round;stroke-linejoin:round" />
         <path
   d="m 12385,15796 h 4397 v 1128 h -4397 z"
   id="path76"
   inkscape:connector-curvature="0"
   style="fill:#5f5f5f;stroke:none" />
         <path
   d="m 12385,15796 h 4397 v 1128 h -4397 z"
   id="path78"
   inkscape:connector-curvature="0"
   style="fill:none;stroke:#5f5f5f;stroke-width:35;stroke-linecap:round;stroke-linejoin:round" />
         <path
   d="m 16782,15802 c 0,147 -102,292 -295,420 -193,128 -470,234 -804,307 -334,74 -714,113 -1099,113 -386,0 -766,-39 -1100,-113 -334,-73 -611,-179 -804,-307 -193,-128 -295,-273 -295,-420 0,-147 102,-292 295,-420 193,-128 470,-234 804,-307 334,-74 714,-113 1099,-113 386,0 766,39 1100,113 334,73 611,179 804,307 193,128 295,273 295,420 z"
   id="path80"
   inkscape:connector-curvature="0"
   style="fill:#7f7f7f;stroke:none" />
         <path
   d="m 16779,15801 -3,-42 -8,-43 -14,-42 -20,-42 -25,-41 -31,-41 -36,-40 -41,-39 -47,-39 -51,-38 -57,-36 -61,-36 -66,-34 -70,-33 -75,-31 -78,-30 -83,-29 -86,-27 -90,-25 -93,-23 -96,-22 -98,-19 -102,-18 -103,-16 -105,-14 -107,-11 -109,-10 -109,-7 -111,-6 -111,-3 -111,-1 v 0 l -111,1 -111,3 -111,6 -109,7 -109,10 -107,11 -105,14 -103,16 -102,18 -98,19 -96,22 -93,23 -90,25 -86,27 -83,29 -78,30 -75,31 -70,33 -66,34 -61,36 -57,36 -51,38 -47,39 -41,39 -36,40 -31,41 -25,41 -20,42 -14,42 -8,43 -3,42 v 0 l 3,42 8,43 14,42 20,42 25,41 31,41 36,40 41,39 47,39 51,38 57,36 61,36 66,34 70,33 75,31 78,30 83,29 86,27 90,25 93,23 96,22 98,19 102,18 103,16 105,14 107,11 109,10 109,7 111,6 111,3 111,1 v 0 l 111,-1 111,-3 111,-6 109,-7 109,-10 107,-11 105,-14 103,-16 102,-18 98,-19 96,-22 93,-23 90,-25 86,-27 83,-29 78,-30 75,-31 70,-33 66,-34 61,-36 57,-36 51,-38 47,-39 41,-39 36,-40 31,-41 25,-41 20,-42 14,-42 8,-43 z"
   id="path82"
   inkscape:connector-curvature="0"
   style="fill:none;stroke:#7f7f7f;stroke-width:35;stroke-linecap:round;stroke-linejoin:round" />
         <path
   d="m 13687,15262 84,-52 101,-49 93,-22 106,-27 119,-8 220,-9 208,13 136,13 141,27 120,31 132,39 84,40 48,62 18,44 -13,57 44,-17 35,-22 27,-36 8,-48 -8,-49 -31,-44 -49,-35 -101,-58 -124,-35 -128,-31 -114,-22 -80,-13 -194,-4 -168,4 -158,13 -142,27 -123,35 -97,35 -106,66 z"
   id="path84"
   inkscape:connector-curvature="0"
   style="fill:#9f9f9f;stroke:none" />
         <path
   d="m 12910,15779 -17,44 -5,57 9,44 18,53 26,35 40,49 101,75 199,97 185,75 155,44 172,27 198,31 265,35 291,22 296,-18 330,-13 270,-26 238,-36 229,-62 181,-52 132,-62 80,-40 62,-40 26,-39 13,-53 -9,-49 31,66 9,49 -13,44 -27,49 -48,35 -106,53 -146,66 -233,71 -221,61 -291,53 -291,22 -296,9 -472,13 -309,-22 -216,-26 -194,-35 -243,-53 -185,-62 -176,-71 -141,-70 -102,-80 -57,-62 -22,-66 v -70 l 22,-58 57,-39 75,-40 z"
   id="path86"
   inkscape:connector-curvature="0"
   style="fill:#3f3f3f;stroke:none" />
        </g>
       </g>
      </g>
     </g>
    </g>
   </g>
  </g>
 </g>
</svg>