<?xml version="1.0" encoding="UTF-8" standalone="no"?>
<svg
   xmlns:ooo="http://xml.openoffice.org/svg/export"
   xmlns:dc="http://purl.org/dc/elements/1.1/"
   xmlns:cc="http://creativecommons.org/ns#"
   xmlns:rdf="http://www.w3.org/1999/02/22-rdf-syntax-ns#"
   xmlns:svg="http://www.w3.org/2000/svg"
   xmlns="http://www.w3.org/2000/svg"
   xmlns:sodipodi="http://sodipodi.sourceforge.net/DTD/sodipodi-0.dtd"
   xmlns:inkscape="http://www.inkscape.org/namespaces/inkscape"
   version="1.2"
   width="190mm"
   height="135.19mm"
   viewBox="0 0 19000 13519"
   preserveAspectRatio="xMidYMid"
   xml:space="preserve"
   id="svg462"
   sodipodi:docname="japan2.svg"
   style="fill-rule:evenodd;stroke-width:28.22200012;stroke-linejoin:round"
   inkscape:version="0.92.5 (2060ec1f9f, 2020-04-08)"><metadata
   id="metadata466"><rdf:RDF><cc:Work
       rdf:about=""><dc:format>image/svg+xml</dc:format><dc:type
         rdf:resource="http://purl.org/dc/dcmitype/StillImage" /></cc:Work></rdf:RDF></metadata><sodipodi:namedview
   pagecolor="#ffffff"
   bordercolor="#666666"
   borderopacity="1"
   objecttolerance="10"
   gridtolerance="10"
   guidetolerance="10"
   inkscape:pageopacity="0"
   inkscape:pageshadow="2"
   inkscape:window-width="664"
   inkscape:window-height="487"
   id="namedview464"
   showgrid="false"
   inkscape:zoom="0.2102413"
   inkscape:cx="359.05512"
   inkscape:cy="255.45827"
   inkscape:window-x="0"
   inkscape:window-y="0"
   inkscape:window-maximized="0"
   inkscape:current-layer="svg462" />
 <defs
   class="ClipPathGroup"
   id="defs8">
  <clipPath
   id="presentation_clip_path"
   clipPathUnits="userSpaceOnUse">
   <rect
   x="0"
   y="0"
   width="21000"
   height="29700"
   id="rect2" />
  </clipPath>
  <clipPath
   id="presentation_clip_path_shrink"
   clipPathUnits="userSpaceOnUse">
   <rect
   x="21"
   y="29"
   width="20958"
   height="29641"
   id="rect5" />
  </clipPath>
 </defs>
 <defs
   class="TextShapeIndex"
   id="defs12">
  <g
   ooo:slide="id1"
   ooo:id-list="id3"
   id="g10" />
 </defs>
 <defs
   class="EmbeddedBulletChars"
   id="defs44">
  <g
   id="bullet-char-template-57356"
   transform="matrix(4.8828125e-4,0,0,-4.8828125e-4,0,0)">
   <path
   d="M 580,1141 1163,571 580,0 -4,571 Z"
   id="path14"
   inkscape:connector-curvature="0" />
  </g>
  <g
   id="bullet-char-template-57354"
   transform="matrix(4.8828125e-4,0,0,-4.8828125e-4,0,0)">
   <path
   d="M 8,1128 H 1137 V 0 H 8 Z"
   id="path17"
   inkscape:connector-curvature="0" />
  </g>
  <g
   id="bullet-char-template-10146"
   transform="matrix(4.8828125e-4,0,0,-4.8828125e-4,0,0)">
   <path
   d="M 174,0 602,739 174,1481 1456,739 Z M 1358,739 309,1346 659,739 Z"
   id="path20"
   inkscape:connector-curvature="0" />
  </g>
  <g
   id="bullet-char-template-10132"
   transform="matrix(4.8828125e-4,0,0,-4.8828125e-4,0,0)">
   <path
   d="M 2015,739 1276,0 H 717 l 543,543 H 174 v 393 h 1086 l -543,545 h 557 z"
   id="path23"
   inkscape:connector-curvature="0" />
  </g>
  <g
   id="bullet-char-template-10007"
   transform="matrix(4.8828125e-4,0,0,-4.8828125e-4,0,0)">
   <path
   d="m 0,-2 c -7,16 -16,29 -25,39 l 381,530 c -94,256 -141,385 -141,387 0,25 13,38 40,38 9,0 21,-2 34,-5 21,4 42,12 65,25 l 27,-13 111,-251 280,301 64,-25 24,25 c 21,-10 41,-24 62,-43 C 886,937 835,863 770,784 769,783 710,716 594,584 L 774,223 c 0,-27 -21,-55 -63,-84 l 16,-20 C 717,90 699,76 672,76 641,76 570,178 457,381 L 164,-76 c -22,-34 -53,-51 -92,-51 -42,0 -63,17 -64,51 -7,9 -10,24 -10,44 0,9 1,19 2,30 z"
   id="path26"
   inkscape:connector-curvature="0" />
  </g>
  <g
   id="bullet-char-template-10004"
   transform="matrix(4.8828125e-4,0,0,-4.8828125e-4,0,0)">
   <path
   d="M 285,-33 C 182,-33 111,30 74,156 52,228 41,333 41,471 c 0,78 14,145 41,201 34,71 87,106 158,106 53,0 88,-31 106,-94 l 23,-176 c 8,-64 28,-97 59,-98 l 735,706 c 11,11 33,17 66,17 42,0 63,-15 63,-46 V 965 c 0,-36 -10,-64 -30,-84 L 442,47 C 390,-6 338,-33 285,-33 Z"
   id="path29"
   inkscape:connector-curvature="0" />
  </g>
  <g
   id="bullet-char-template-9679"
   transform="matrix(4.8828125e-4,0,0,-4.8828125e-4,0,0)">
   <path
   d="M 813,0 C 632,0 489,54 383,161 276,268 223,411 223,592 c 0,181 53,324 160,431 106,107 249,161 430,161 179,0 323,-54 432,-161 108,-107 162,-251 162,-431 0,-180 -54,-324 -162,-431 C 1136,54 992,0 813,0 Z"
   id="path32"
   inkscape:connector-curvature="0" />
  </g>
  <g
   id="bullet-char-template-8226"
   transform="matrix(4.8828125e-4,0,0,-4.8828125e-4,0,0)">
   <path
   d="m 346,457 c -73,0 -137,26 -191,78 -54,51 -81,114 -81,188 0,73 27,136 81,188 54,52 118,78 191,78 73,0 134,-26 185,-79 51,-51 77,-114 77,-187 0,-75 -25,-137 -76,-188 -50,-52 -112,-78 -186,-78 z"
   id="path35"
   inkscape:connector-curvature="0" />
  </g>
  <g
   id="bullet-char-template-8211"
   transform="matrix(4.8828125e-4,0,0,-4.8828125e-4,0,0)">
   <path
   d="M -4,459 H 1135 V 606 H -4 Z"
   id="path38"
   inkscape:connector-curvature="0" />
  </g>
  <g
   id="bullet-char-template-61548"
   transform="matrix(4.8828125e-4,0,0,-4.8828125e-4,0,0)">
   <path
   d="m 173,740 c 0,163 58,303 173,419 116,115 255,173 419,173 163,0 302,-58 418,-173 116,-116 174,-256 174,-419 0,-163 -58,-303 -174,-418 C 1067,206 928,148 765,148 601,148 462,206 346,322 231,437 173,577 173,740 Z"
   id="path41"
   inkscape:connector-curvature="0" />
  </g>
 </defs>
 <g
   id="g49"
   transform="translate(-1000,-8090)">
  <g
   id="id2"
   class="Master_Slide">
   <g
   id="bg-id2"
   class="Background" />
   <g
   id="bo-id2"
   class="BackgroundObjects" />
  </g>
 </g>
 <g
   class="SlideGroup"
   id="g460"
   transform="translate(-1000,-8090)">
  <g
   id="g458">
   <g
   id="container-id1">
    <g
   id="id1"
   class="Slide"
   clip-path="url(#presentation_clip_path)">
     <g
   class="Page"
   id="g454">
      <g
   class="Graphic"
   id="g452">
       <g
   id="id3">
        <rect
   class="BoundingBox"
   x="1000"
   y="8090"
   width="19000"
   height="13519"
   id="rect51"
   style="fill:none;stroke:none" />
        <defs
   id="defs56">
         <clipPath
   id="clip_path_1"
   clipPathUnits="userSpaceOnUse">
          <path
   d="m 1493,12604 h 11871 v 8421 H 1493 Z"
   id="path53"
   inkscape:connector-curvature="0" />
         </clipPath>
        </defs>
        <g
   clip-path="url(#clip_path_1)"
   id="g60">
         <path
   d="M 25174,4213 -10347,29386"
   id="path58"
   inkscape:connector-curvature="0"
   style="fill:none;stroke:#000000;stroke-width:31;stroke-linecap:round;stroke-linejoin:miter" />
        </g>
        <defs
   id="defs65">
         <clipPath
   id="clip_path_2"
   clipPathUnits="userSpaceOnUse">
          <path
   d="m 8738,8654 h 1274 v 6801 H 8738 Z"
   id="path62"
   inkscape:connector-curvature="0" />
         </clipPath>
        </defs>
        <g
   clip-path="url(#clip_path_2)"
   id="g69">
         <path
   d="M 9360,22195 V 1882"
   id="path67"
   inkscape:connector-curvature="0"
   style="fill:none;stroke:#000000;stroke-width:31;stroke-linecap:round;stroke-linejoin:miter" />
        </g>
        <path
   d="m 10397,13047 -116,23 -24,94 70,46 94,-23 z"
   id="path71"
   inkscape:connector-curvature="0"
   style="fill:#00ff00;stroke:none" />
        <path
   d="m 10397,13047 -116,23 -24,94 70,46 94,-23 z"
   id="path73"
   inkscape:connector-curvature="0"
   style="fill:none;stroke:#000000;stroke-width:31;stroke-linecap:round;stroke-linejoin:round" />
        <path
   d="m 10199,12418 -47,11 -11,39 30,19 39,-11 z"
   id="path75"
   inkscape:connector-curvature="0"
   style="fill:#00ff00;stroke:none" />
        <path
   d="m 10199,12418 -47,11 -11,39 30,19 39,-11 z"
   id="path77"
   inkscape:connector-curvature="0"
   style="fill:none;stroke:#000000;stroke-width:31;stroke-linecap:round;stroke-linejoin:round" />
        <path
   d="m 11139,10483 -109,-35 20,125 35,97 105,-36 z"
   id="path79"
   inkscape:connector-curvature="0"
   style="fill:#00ff00;stroke:none" />
        <path
   d="m 11139,10483 -109,-35 20,125 35,97 105,-36 z"
   id="path81"
   inkscape:connector-curvature="0"
   style="fill:none;stroke:#000000;stroke-width:31;stroke-linecap:round;stroke-linejoin:round" />
        <path
   d="m 11322,9966 -102,-19 -50,74 47,66 74,-8 z"
   id="path83"
   inkscape:connector-curvature="0"
   style="fill:#00ff00;stroke:none" />
        <path
   d="m 11322,9966 -102,-19 -50,74 47,66 74,-8 z"
   id="path85"
   inkscape:connector-curvature="0"
   style="fill:none;stroke:#000000;stroke-width:31;stroke-linecap:round;stroke-linejoin:round" />
        <path
   d="m 11014,8991 -46,12 -12,39 32,19 39,-12 z"
   id="path87"
   inkscape:connector-curvature="0"
   style="fill:#00ff00;stroke:none" />
        <path
   d="m 11014,8991 -46,12 -12,39 32,19 39,-12 z"
   id="path89"
   inkscape:connector-curvature="0"
   style="fill:none;stroke:#000000;stroke-width:31;stroke-linecap:round;stroke-linejoin:round" />
        <path
   d="m 11154,9061 -46,12 -12,39 31,19 39,-11 z"
   id="path91"
   inkscape:connector-curvature="0"
   style="fill:#00ff00;stroke:none" />
        <path
   d="m 11154,9061 -46,12 -12,39 31,19 39,-11 z"
   id="path93"
   inkscape:connector-curvature="0"
   style="fill:none;stroke:#000000;stroke-width:31;stroke-linecap:round;stroke-linejoin:round" />
        <path
   d="m 11248,9155 -47,11 -11,39 30,19 39,-11 z"
   id="path95"
   inkscape:connector-curvature="0"
   style="fill:#00ff00;stroke:none" />
        <path
   d="m 11248,9155 -47,11 -11,39 30,19 39,-11 z"
   id="path97"
   inkscape:connector-curvature="0"
   style="fill:none;stroke:#000000;stroke-width:31;stroke-linecap:round;stroke-linejoin:round" />
        <path
   d="m 11291,9341 -86,12 -15,39 50,19 66,-12 z"
   id="path99"
   inkscape:connector-curvature="0"
   style="fill:#00ff00;stroke:none" />
        <path
   d="m 11291,9341 -86,12 -15,39 50,19 66,-12 z"
   id="path101"
   inkscape:connector-curvature="0"
   style="fill:none;stroke:#000000;stroke-width:31;stroke-linecap:round;stroke-linejoin:round" />
        <path
   d="m 11225,9877 -47,11 -12,39 32,20 38,-12 z"
   id="path103"
   inkscape:connector-curvature="0"
   style="fill:#00ff00;stroke:none" />
        <path
   d="m 11225,9877 -47,11 -12,39 32,20 38,-12 z"
   id="path105"
   inkscape:connector-curvature="0"
   style="fill:none;stroke:#000000;stroke-width:31;stroke-linecap:round;stroke-linejoin:round" />
        <path
   d="m 11201,9784 -47,11 -11,40 31,19 38,-12 z"
   id="path107"
   inkscape:connector-curvature="0"
   style="fill:#00ff00;stroke:none" />
        <path
   d="m 11201,9784 -47,11 -11,40 31,19 38,-12 z"
   id="path109"
   inkscape:connector-curvature="0"
   style="fill:none;stroke:#000000;stroke-width:31;stroke-linecap:round;stroke-linejoin:round" />
        <path
   d="m 10432,14026 -47,11 -11,39 31,20 39,-12 z"
   id="path111"
   inkscape:connector-curvature="0"
   style="fill:#00ff00;stroke:none" />
        <path
   d="m 10432,14026 -47,11 -11,39 31,20 39,-12 z"
   id="path113"
   inkscape:connector-curvature="0"
   style="fill:none;stroke:#000000;stroke-width:31;stroke-linecap:round;stroke-linejoin:round" />
        <path
   d="m 9663,9597 -46,12 -13,39 32,19 39,-11 z"
   id="path115"
   inkscape:connector-curvature="0"
   style="fill:#00ff00;stroke:none" />
        <path
   d="m 9663,9597 -46,12 -13,39 32,19 39,-11 z"
   id="path117"
   inkscape:connector-curvature="0"
   style="fill:none;stroke:#000000;stroke-width:31;stroke-linecap:round;stroke-linejoin:round" />
        <path
   d="m 1144,19410 -105,31 v 59 l 105,85 h 140 z"
   id="path119"
   inkscape:connector-curvature="0"
   style="fill:#00ff00;stroke:none" />
        <path
   d="m 1144,19410 -105,31 v 59 l 105,85 h 140 z"
   id="path121"
   inkscape:connector-curvature="0"
   style="fill:none;stroke:#000000;stroke-width:31;stroke-linecap:round;stroke-linejoin:round" />
        <path
   d="m 1785,19538 93,-46 h 116 l 94,-23 -70,-71 163,-23 93,117 v 93 l -93,70 -163,-70 z"
   id="path123"
   inkscape:connector-curvature="0"
   style="fill:#00ff00;stroke:none" />
        <path
   d="m 1785,19538 93,-46 h 116 l 94,-23 -70,-71 163,-23 93,117 v 93 l -93,70 -163,-70 z"
   id="path125"
   inkscape:connector-curvature="0"
   style="fill:none;stroke:#000000;stroke-width:31;stroke-linecap:round;stroke-linejoin:round" />
        <path
   d="m 2076,19748 105,82 -47,34 -70,-46 z"
   id="path127"
   inkscape:connector-curvature="0"
   style="fill:#00ff00;stroke:none" />
        <path
   d="m 2076,19748 105,82 -47,34 -70,-46 z"
   id="path129"
   inkscape:connector-curvature="0"
   style="fill:none;stroke:#000000;stroke-width:31;stroke-linecap:round;stroke-linejoin:round" />
        <path
   d="m 1971,19271 120,77 -53,31 -79,-42 z"
   id="path131"
   inkscape:connector-curvature="0"
   style="fill:#00ff00;stroke:none" />
        <path
   d="m 1971,19271 120,77 -53,31 -79,-42 z"
   id="path133"
   inkscape:connector-curvature="0"
   style="fill:none;stroke:#000000;stroke-width:31;stroke-linecap:round;stroke-linejoin:round" />
        <path
   d="m 2371,19558 94,69 -43,32 -59,-39 z"
   id="path135"
   inkscape:connector-curvature="0"
   style="fill:#00ff00;stroke:none" />
        <path
   d="m 2371,19558 94,69 -43,32 -59,-39 z"
   id="path137"
   inkscape:connector-curvature="0"
   style="fill:none;stroke:#000000;stroke-width:31;stroke-linecap:round;stroke-linejoin:round" />
        <path
   d="m 2348,19441 46,8 -19,70 -81,-31 z"
   id="path139"
   inkscape:connector-curvature="0"
   style="fill:#00ff00;stroke:none" />
        <path
   d="m 2348,19441 46,8 -19,70 -81,-31 z"
   id="path141"
   inkscape:connector-curvature="0"
   style="fill:none;stroke:#000000;stroke-width:31;stroke-linecap:round;stroke-linejoin:round" />
        <path
   d="m 2484,19189 19,46 86,47 19,47 43,23 v 70 l 186,-47 -23,-117 -38,-116 61,-116 20,-47 -144,93 -23,94 -39,23 z"
   id="path143"
   inkscape:connector-curvature="0"
   style="fill:#00ff00;stroke:none" />
        <path
   d="m 2484,19189 19,46 86,47 19,47 43,23 v 70 l 186,-47 -23,-117 -38,-116 61,-116 20,-47 -144,93 -23,94 -39,23 z"
   id="path145"
   inkscape:connector-curvature="0"
   style="fill:none;stroke:#000000;stroke-width:31;stroke-linecap:round;stroke-linejoin:round" />
        <path
   d="m 3028,18571 -54,20 v 34 l 54,51 h 74 z"
   id="path147"
   inkscape:connector-curvature="0"
   style="fill:#00ff00;stroke:none" />
        <path
   d="m 3028,18571 -54,20 v 34 l 54,51 h 74 z"
   id="path149"
   inkscape:connector-curvature="0"
   style="fill:none;stroke:#000000;stroke-width:31;stroke-linecap:round;stroke-linejoin:round" />
        <path
   d="m 3140,18710 35,21 v 34 l -35,51 h -50 z"
   id="path151"
   inkscape:connector-curvature="0"
   style="fill:#00ff00;stroke:none" />
        <path
   d="m 3140,18710 35,21 v 34 l -35,51 h -50 z"
   id="path153"
   inkscape:connector-curvature="0"
   style="fill:none;stroke:#000000;stroke-width:31;stroke-linecap:round;stroke-linejoin:round" />
        <path
   d="m 3556,18552 h 55 l 74,-55 -20,-54 h 54 l 19,90 36,69 155,55 -62,89 -109,-15 -73,-40 -36,16 v 24 -74 z"
   id="path155"
   inkscape:connector-curvature="0"
   style="fill:#00ff00;stroke:none" />
        <path
   d="m 3556,18552 h 55 l 74,-55 -20,-54 h 54 l 19,90 36,69 155,55 -62,89 -109,-15 -73,-40 -36,16 v 24 -74 z"
   id="path157"
   inkscape:connector-curvature="0"
   style="fill:none;stroke:#000000;stroke-width:31;stroke-linecap:round;stroke-linejoin:round" />
        <path
   d="m 3929,16508 -81,27 v 51 l 81,73 h 105 z"
   id="path159"
   inkscape:connector-curvature="0"
   style="fill:#00ff00;stroke:none" />
        <path
   d="m 3929,16508 -81,27 v 51 l 81,73 h 105 z"
   id="path161"
   inkscape:connector-curvature="0"
   style="fill:none;stroke:#000000;stroke-width:31;stroke-linecap:round;stroke-linejoin:round" />
        <path
   d="m 4247,16415 -74,12 v 19 l 74,31 h 102 z"
   id="path163"
   inkscape:connector-curvature="0"
   style="fill:#00ff00;stroke:none" />
        <path
   d="m 4247,16415 -74,12 v 19 l 74,31 h 102 z"
   id="path165"
   inkscape:connector-curvature="0"
   style="fill:none;stroke:#000000;stroke-width:31;stroke-linecap:round;stroke-linejoin:round" />
        <path
   d="m 4232,16554 -35,20 v 35 l 35,50 h 51 z"
   id="path167"
   inkscape:connector-curvature="0"
   style="fill:#00ff00;stroke:none" />
        <path
   d="m 4232,16554 -35,20 v 35 l 35,50 h 51 z"
   id="path169"
   inkscape:connector-curvature="0"
   style="fill:none;stroke:#000000;stroke-width:31;stroke-linecap:round;stroke-linejoin:round" />
        <path
   d="m 4476,16753 v 70 l -45,93 h -47 z"
   id="path171"
   inkscape:connector-curvature="0"
   style="fill:#00ff00;stroke:none" />
        <path
   d="m 4476,16753 v 70 l -45,93 h -47 z"
   id="path173"
   inkscape:connector-curvature="0"
   style="fill:none;stroke:#000000;stroke-width:31;stroke-linecap:round;stroke-linejoin:round" />
        <path
   d="m 4616,16730 v 82 l -58,104 h -58 z"
   id="path175"
   inkscape:connector-curvature="0"
   style="fill:#00ff00;stroke:none" />
        <path
   d="m 4616,16730 v 82 l -58,104 h -58 z"
   id="path177"
   inkscape:connector-curvature="0"
   style="fill:none;stroke:#000000;stroke-width:31;stroke-linecap:round;stroke-linejoin:round" />
        <path
   d="m 4734,16823 v 27 l -32,35 h -31 z"
   id="path179"
   inkscape:connector-curvature="0"
   style="fill:#00ff00;stroke:none" />
        <path
   d="m 4734,16823 v 27 l -32,35 h -31 z"
   id="path181"
   inkscape:connector-curvature="0"
   style="fill:none;stroke:#000000;stroke-width:31;stroke-linecap:round;stroke-linejoin:round" />
        <path
   d="m 5013,16939 113,-193 27,-168 81,-140 113,28 85,-86 -58,-124 85,-43 82,85 86,-42 221,-210 54,-125 86,-42 27,113 v 140 l -55,108 -127,58 -98,28 -70,70 -66,81 -30,113 -82,-43 -140,31 85,140 -112,28 -27,166 z"
   id="path183"
   inkscape:connector-curvature="0"
   style="fill:#00ff00;stroke:none" />
        <path
   d="m 5013,16939 113,-193 27,-168 81,-140 113,28 85,-86 -58,-124 85,-43 82,85 86,-42 221,-210 54,-125 86,-42 27,113 v 140 l -55,108 -127,58 -98,28 -70,70 -66,81 -30,113 -82,-43 -140,31 85,140 -112,28 -27,166 z"
   id="path185"
   inkscape:connector-curvature="0"
   style="fill:none;stroke:#000000;stroke-width:31;stroke-linecap:round;stroke-linejoin:round" />
        <path
   d="m 5304,16182 82,-47 -46,-46 z"
   id="path187"
   inkscape:connector-curvature="0"
   style="fill:#00ff00;stroke:none" />
        <path
   d="m 5304,16182 82,-47 -46,-46 z"
   id="path189"
   inkscape:connector-curvature="0"
   style="fill:none;stroke:#000000;stroke-width:31;stroke-linecap:round;stroke-linejoin:round" />
        <path
   d="m 5327,16066 -7,-74 -86,-8 8,54 z"
   id="path191"
   inkscape:connector-curvature="0"
   style="fill:#00ff00;stroke:none" />
        <path
   d="m 5327,16066 -7,-74 -86,-8 8,54 z"
   id="path193"
   inkscape:connector-curvature="0"
   style="fill:none;stroke:#000000;stroke-width:31;stroke-linecap:round;stroke-linejoin:round" />
        <path
   d="m 5584,15728 -46,35 -36,46 h 59 z"
   id="path195"
   inkscape:connector-curvature="0"
   style="fill:#00ff00;stroke:none" />
        <path
   d="m 5584,15728 -46,35 -36,46 h 59 z"
   id="path197"
   inkscape:connector-curvature="0"
   style="fill:none;stroke:#000000;stroke-width:31;stroke-linecap:round;stroke-linejoin:round" />
        <path
   d="m 5584,15634 v -69 l 35,-47 35,-58 35,-13 46,36 -46,93 -35,47 z"
   id="path199"
   inkscape:connector-curvature="0"
   style="fill:#00ff00;stroke:none" />
        <path
   d="m 5584,15634 v -69 l 35,-47 35,-58 35,-13 46,36 -46,93 -35,47 z"
   id="path201"
   inkscape:connector-curvature="0"
   style="fill:none;stroke:#000000;stroke-width:31;stroke-linecap:round;stroke-linejoin:round" />
        <path
   d="m 6144,15623 -36,34 23,71 47,11 93,-82 -46,-46 z"
   id="path203"
   inkscape:connector-curvature="0"
   style="fill:#00ff00;stroke:none" />
        <path
   d="m 6144,15623 -36,34 23,71 47,11 93,-82 -46,-46 z"
   id="path205"
   inkscape:connector-curvature="0"
   style="fill:none;stroke:#000000;stroke-width:31;stroke-linecap:round;stroke-linejoin:round" />
        <path
   d="m 6357,15168 -74,-43 -47,12 20,51 27,50 66,24 43,-44 31,-30 58,-51 -54,-51 z"
   id="path207"
   inkscape:connector-curvature="0"
   style="fill:#00ff00;stroke:none" />
        <path
   d="m 6357,15168 -74,-43 -47,12 20,51 27,50 66,24 43,-44 31,-30 58,-51 -54,-51 z"
   id="path209"
   inkscape:connector-curvature="0"
   style="fill:none;stroke:#000000;stroke-width:31;stroke-linecap:round;stroke-linejoin:round" />
        <path
   d="m 6679,14679 -69,-12 v 23 47 l 104,46 59,36 -23,34 -82,70 -12,-81 -11,-36 46,-34 z"
   id="path211"
   inkscape:connector-curvature="0"
   style="fill:#00ff00;stroke:none" />
        <path
   d="m 6679,14679 -69,-12 v 23 47 l 104,46 59,36 -23,34 -82,70 -12,-81 -11,-36 46,-34 z"
   id="path213"
   inkscape:connector-curvature="0"
   style="fill:none;stroke:#000000;stroke-width:31;stroke-linecap:round;stroke-linejoin:round" />
        <path
   d="m 6866,14131 -35,58 35,35 z"
   id="path215"
   inkscape:connector-curvature="0"
   style="fill:#00ff00;stroke:none" />
        <path
   d="m 6866,14131 -35,58 35,35 z"
   id="path217"
   inkscape:connector-curvature="0"
   style="fill:none;stroke:#000000;stroke-width:31;stroke-linecap:round;stroke-linejoin:round" />
        <path
   d="m 6877,14119 47,23 116,35 -23,-35 z"
   id="path219"
   inkscape:connector-curvature="0"
   style="fill:#00ff00;stroke:none" />
        <path
   d="m 6877,14119 47,23 116,35 -23,-35 z"
   id="path221"
   inkscape:connector-curvature="0"
   style="fill:none;stroke:#000000;stroke-width:31;stroke-linecap:round;stroke-linejoin:round" />
        <path
   d="m 6913,14037 66,86 155,31 -86,-101 z"
   id="path223"
   inkscape:connector-curvature="0"
   style="fill:#00ff00;stroke:none" />
        <path
   d="m 6913,14037 66,86 155,31 -86,-101 z"
   id="path225"
   inkscape:connector-curvature="0"
   style="fill:none;stroke:#000000;stroke-width:31;stroke-linecap:round;stroke-linejoin:round" />
        <path
   d="m 6819,13816 94,23 81,47 46,58 v 71 l 36,34 23,-23 70,-58 -47,-82 v -35 l 35,-47 163,-46 210,-82 93,-93 47,-152 -93,70 -94,35 -127,24 -140,58 -71,23 -69,24 -70,47 -82,22 v 0 59 z"
   id="path227"
   inkscape:connector-curvature="0"
   style="fill:#00ff00;stroke:none" />
        <path
   d="m 6819,13816 94,23 81,47 46,58 v 71 l 36,34 23,-23 70,-58 -47,-82 v -35 l 35,-47 163,-46 210,-82 93,-93 47,-152 -93,70 -94,35 -127,24 -140,58 -71,23 -69,24 -70,47 -82,22 v 0 59 z"
   id="path229"
   inkscape:connector-curvature="0"
   style="fill:none;stroke:#000000;stroke-width:31;stroke-linecap:round;stroke-linejoin:round" />
        <path
   d="m 7740,13859 43,-94 42,-85 179,-86 16,118 -160,89 -11,58 -31,27 z"
   id="path231"
   inkscape:connector-curvature="0"
   style="fill:#00ff00;stroke:none" />
        <path
   d="m 7740,13859 43,-94 42,-85 179,-86 16,118 -160,89 -11,58 -31,27 z"
   id="path233"
   inkscape:connector-curvature="0"
   style="fill:none;stroke:#000000;stroke-width:31;stroke-linecap:round;stroke-linejoin:round" />
        <path
   d="m 7332,12790 -47,12 -47,46 -81,105 -35,-105 116,-92 z"
   id="path235"
   inkscape:connector-curvature="0"
   style="fill:#00ff00;stroke:none" />
        <path
   d="m 7332,12790 -47,12 -47,46 -81,105 -35,-105 116,-92 z"
   id="path237"
   inkscape:connector-curvature="0"
   style="fill:none;stroke:#000000;stroke-width:31;stroke-linecap:round;stroke-linejoin:round" />
        <path
   d="m 7251,12686 69,35 47,-35 -35,-36 z"
   id="path239"
   inkscape:connector-curvature="0"
   style="fill:#00ff00;stroke:none" />
        <path
   d="m 7251,12686 69,35 47,-35 -35,-36 z"
   id="path241"
   inkscape:connector-curvature="0"
   style="fill:none;stroke:#000000;stroke-width:31;stroke-linecap:round;stroke-linejoin:round" />
        <path
   d="m 7600,12255 -46,58 v 70 l 69,-12 z"
   id="path243"
   inkscape:connector-curvature="0"
   style="fill:#00ff00;stroke:none" />
        <path
   d="m 7600,12255 -46,58 v 70 l 69,-12 z"
   id="path245"
   inkscape:connector-curvature="0"
   style="fill:none;stroke:#000000;stroke-width:31;stroke-linecap:round;stroke-linejoin:round" />
        <path
   d="m 7635,11812 -81,27 -35,101 46,46 z"
   id="path247"
   inkscape:connector-curvature="0"
   style="fill:#00ff00;stroke:none" />
        <path
   d="m 7635,11812 -81,27 -35,101 46,46 z"
   id="path249"
   inkscape:connector-curvature="0"
   style="fill:none;stroke:#000000;stroke-width:31;stroke-linecap:round;stroke-linejoin:round" />
        <path
   d="m 7806,11846 -113,24 35,58 8,93 74,-70 z"
   id="path251"
   inkscape:connector-curvature="0"
   style="fill:#00ff00;stroke:none" />
        <path
   d="m 7806,11846 -113,24 35,58 8,93 74,-70 z"
   id="path253"
   inkscape:connector-curvature="0"
   style="fill:none;stroke:#000000;stroke-width:31;stroke-linecap:round;stroke-linejoin:round" />
        <path
   d="m 7970,11543 -67,-8 -4,137 43,58 66,-50 z"
   id="path255"
   inkscape:connector-curvature="0"
   style="fill:#00ff00;stroke:none" />
        <path
   d="m 7970,11543 -67,-8 -4,137 43,58 66,-50 z"
   id="path257"
   inkscape:connector-curvature="0"
   style="fill:none;stroke:#000000;stroke-width:31;stroke-linecap:round;stroke-linejoin:round" />
        <path
   d="m 7573,11520 -101,15 -4,55 43,58 66,-50 z"
   id="path259"
   inkscape:connector-curvature="0"
   style="fill:#00ff00;stroke:none" />
        <path
   d="m 7573,11520 -101,15 -4,55 43,58 66,-50 z"
   id="path261"
   inkscape:connector-curvature="0"
   style="fill:none;stroke:#000000;stroke-width:31;stroke-linecap:round;stroke-linejoin:round" />
        <path
   d="m 8144,11252 -113,24 -3,77 69,109 86,-51 z"
   id="path263"
   inkscape:connector-curvature="0"
   style="fill:#00ff00;stroke:none" />
        <path
   d="m 8144,11252 -113,24 -3,77 69,109 86,-51 z"
   id="path265"
   inkscape:connector-curvature="0"
   style="fill:none;stroke:#000000;stroke-width:31;stroke-linecap:round;stroke-linejoin:round" />
        <path
   d="m 8113,10541 34,-81 v -82 -35 l -34,-23 h -82 l 12,35 58,35 -23,58 z"
   id="path267"
   inkscape:connector-curvature="0"
   style="fill:#00ff00;stroke:none" />
        <path
   d="m 8113,10541 34,-81 v -82 -35 l -34,-23 h -82 l 12,35 58,35 -23,58 z"
   id="path269"
   inkscape:connector-curvature="0"
   style="fill:none;stroke:#000000;stroke-width:31;stroke-linecap:round;stroke-linejoin:round" />
        <path
   d="m 8194,10530 h 58 l 47,-47 59,-47 h 34 l 13,94 22,93 23,93 36,81 -47,47 -116,-23 -82,-58 -47,-82 z"
   id="path271"
   inkscape:connector-curvature="0"
   style="fill:#00ff00;stroke:none" />
        <path
   d="m 8194,10530 h 58 l 47,-47 59,-47 h 34 l 13,94 22,93 23,93 36,81 -47,47 -116,-23 -82,-58 -47,-82 z"
   id="path273"
   inkscape:connector-curvature="0"
   style="fill:none;stroke:#000000;stroke-width:31;stroke-linecap:round;stroke-linejoin:round" />
        <path
   d="m 8614,10522 78,11 35,55 50,43 78,39 23,-39 27,-109 v -81 -121 l 24,-27 h 50 l 77,-125 v -93 l -61,-39 -16,-70 -12,-66 h -89 l -35,39 12,97 -28,147 -23,137 -51,66 -61,55 z"
   id="path275"
   inkscape:connector-curvature="0"
   style="fill:#00ff00;stroke:none" />
        <path
   d="m 8614,10522 78,11 35,55 50,43 78,39 23,-39 27,-109 v -81 -121 l 24,-27 h 50 l 77,-125 v -93 l -61,-39 -16,-70 -12,-66 h -89 l -35,39 12,97 -28,147 -23,137 -51,66 -61,55 z"
   id="path277"
   inkscape:connector-curvature="0"
   style="fill:none;stroke:#000000;stroke-width:31;stroke-linecap:round;stroke-linejoin:round" />
        <path
   d="m 7810,10017 h -35 l -94,-35 59,-23 z"
   id="path279"
   inkscape:connector-curvature="0"
   style="fill:#00ff00;stroke:none" />
        <path
   d="m 7810,10017 h -35 l -94,-35 59,-23 z"
   id="path281"
   inkscape:connector-curvature="0"
   style="fill:none;stroke:#000000;stroke-width:31;stroke-linecap:round;stroke-linejoin:round" />
        <path
   d="m 8043,9854 h 43 l 27,-59 -8,-50 -8,-89 -35,-12 -4,70 v 81 z"
   id="path283"
   inkscape:connector-curvature="0"
   style="fill:#00ff00;stroke:none" />
        <path
   d="m 8043,9854 h 43 l 27,-59 -8,-50 -8,-89 -35,-12 -4,70 v 81 z"
   id="path285"
   inkscape:connector-curvature="0"
   style="fill:none;stroke:#000000;stroke-width:31;stroke-linecap:round;stroke-linejoin:round" />
        <path
   d="m 8206,9656 31,47 v 100 l -16,66 78,8 -15,-93 34,-102 z"
   id="path287"
   inkscape:connector-curvature="0"
   style="fill:#00ff00;stroke:none" />
        <path
   d="m 8206,9656 31,47 v 100 l -16,66 78,8 -15,-93 34,-102 z"
   id="path289"
   inkscape:connector-curvature="0"
   style="fill:none;stroke:#000000;stroke-width:31;stroke-linecap:round;stroke-linejoin:round" />
        <path
   d="m 8450,9061 -11,152 -34,140 11,128 47,140 93,46 v -151 l 46,-93 117,-187 93,-175 z"
   id="path291"
   inkscape:connector-curvature="0"
   style="fill:#00ff00;stroke:none" />
        <path
   d="m 8450,9061 -11,152 -34,140 11,128 47,140 93,46 v -151 l 46,-93 117,-187 93,-175 z"
   id="path293"
   inkscape:connector-curvature="0"
   style="fill:none;stroke:#000000;stroke-width:31;stroke-linecap:round;stroke-linejoin:round" />
        <path
   d="m 8252,9061 v 47 l 35,47 24,46 -35,59 -70,11 h -81 l -36,-58 -34,-12 h -35 -140 -152 l -58,-23 -58,-47 -24,-70 z"
   id="path295"
   inkscape:connector-curvature="0"
   style="fill:#00ff00;stroke:none" />
        <path
   d="m 8252,9061 v 47 l 35,47 24,46 -35,59 -70,11 h -81 l -36,-58 -34,-12 h -35 -140 -152 l -58,-23 -58,-47 -24,-70 z"
   id="path297"
   inkscape:connector-curvature="0"
   style="fill:none;stroke:#000000;stroke-width:31;stroke-linecap:round;stroke-linejoin:round" />
        <path
   d="m 7755,17810 43,-89 59,-59 15,-59 46,-46 -15,-73 59,-105 30,-74 v -43 l -89,31 -46,59 -102,162 28,89 61,28 -89,-15 -46,46 v 74 z"
   id="path299"
   inkscape:connector-curvature="0"
   style="fill:#00ff00;stroke:none" />
        <path
   d="m 7755,17810 43,-89 59,-59 15,-59 46,-46 -15,-73 59,-105 30,-74 v -43 l -89,31 -46,59 -102,162 28,89 61,28 -89,-15 -46,46 v 74 z"
   id="path301"
   inkscape:connector-curvature="0"
   style="fill:none;stroke:#000000;stroke-width:31;stroke-linecap:round;stroke-linejoin:round" />
        <path
   d="m 8113,17972 12,-15 73,86 -15,58 -28,16 -58,-27 -16,-47 z"
   id="path303"
   inkscape:connector-curvature="0"
   style="fill:#00ff00;stroke:none" />
        <path
   d="m 8113,17972 12,-15 73,86 -15,58 -28,16 -58,-27 -16,-47 z"
   id="path305"
   inkscape:connector-curvature="0"
   style="fill:none;stroke:#000000;stroke-width:31;stroke-linecap:round;stroke-linejoin:round" />
        <path
   d="m 8183,18283 -28,43 -46,47 31,42 v 59 l -31,31 -86,-90 -74,16 -46,28 -59,61 32,58 58,16 28,43 15,47 74,42 58,16 31,42 -15,59 -16,46 h -43 l -58,-73 -31,-59 -43,59 -16,89 31,74 74,89 43,58 43,-58 120,-31 16,42 42,47 74,-31 74,-74 -15,-58 h -74 l -89,-89 30,-31 31,-27 13,-74 46,-58 h 43 l 58,58 90,74 v 89 l 15,89 59,74 -16,43 -43,31 -59,27 28,63 31,58 -15,27 -74,62 -28,27 v 74 l -46,74 -28,62 -61,58 h -44 l -30,-15 -44,42 -15,74 -43,74 -46,47 31,105 43,58 30,27 32,47 -32,27 -73,62 -31,43 -12,47 12,74 h 46 58 l 74,11 118,47 45,-58 -15,-106 31,-194 28,-58 58,-27 h 46 l 44,58 -16,74 -12,42 -74,16 v 47 l 12,27 31,105 -15,74 -44,27 -46,62 -28,58 v 90 l 28,58 120,-105 74,-58 102,-74 15,-31 -15,-85 15,-63 30,-27 28,-16 46,32 74,42 44,90 15,-74 v -47 l 58,-27 31,-58 v -78 l 28,-58 -13,-74 -15,-58 28,-59 89,-147 46,-31 175,-354 v -31 l 46,-90 h 86 l 47,-26 15,-63 -15,-43 -15,-31 15,-42 58,-74 -15,-31 -43,-43 -31,-16 v -89 l -16,-31 h -42 l -118,-12 -73,-47 -31,-26 v -74 l 15,-32 h 44 l 45,-30 74,-59 v -42 l -15,-62 -31,-44 -73,-15 -59,15 -59,44 -46,15 -116,-43 -74,-31 -15,-58 v -59 l 15,-45 v -102 l -43,-31 -31,31 -74,28 -31,-16 -43,-28 -30,-15 -44,59 -43,30 -73,44 -46,30 15,74 -43,43 h -46 l -74,-28 -43,-15 -31,31 -28,58 -61,28 z"
   id="path307"
   inkscape:connector-curvature="0"
   style="fill:#00ff00;stroke:none" />
        <path
   d="m 8183,18283 -28,43 -46,47 31,42 v 59 l -31,31 -86,-90 -74,16 -46,28 -59,61 32,58 58,16 28,43 15,47 74,42 58,16 31,42 -15,59 -16,46 h -43 l -58,-73 -31,-59 -43,59 -16,89 31,74 74,89 43,58 43,-58 120,-31 16,42 42,47 74,-31 74,-74 -15,-58 h -74 l -89,-89 30,-31 31,-27 13,-74 46,-58 h 43 l 58,58 90,74 v 89 l 15,89 59,74 -16,43 -43,31 -59,27 28,63 31,58 -15,27 -74,62 -28,27 v 74 l -46,74 -28,62 -61,58 h -44 l -30,-15 -44,42 -15,74 -43,74 -46,47 31,105 43,58 30,27 32,47 -32,27 -73,62 -31,43 -12,47 12,74 h 46 58 l 74,11 118,47 45,-58 -15,-106 31,-194 28,-58 58,-27 h 46 l 44,58 -16,74 -12,42 -74,16 v 47 l 12,27 31,105 -15,74 -44,27 -46,62 -28,58 v 90 l 28,58 120,-105 74,-58 102,-74 15,-31 -15,-85 15,-63 30,-27 28,-16 46,32 74,42 44,90 15,-74 v -47 l 58,-27 31,-58 v -78 l 28,-58 -13,-74 -15,-58 28,-59 89,-147 46,-31 175,-354 v -31 l 46,-90 h 86 l 47,-26 15,-63 -15,-43 -15,-31 15,-42 58,-74 -15,-31 -43,-43 -31,-16 v -89 l -16,-31 h -42 l -118,-12 -73,-47 -31,-26 v -74 l 15,-32 h 44 l 45,-30 74,-59 v -42 l -15,-62 -31,-44 -73,-15 -59,15 -59,44 -46,15 -116,-43 -74,-31 -15,-58 v -59 l 15,-45 v -102 l -43,-31 -31,31 -74,28 -31,-16 -43,-28 -30,-15 -44,59 -43,30 -73,44 -46,30 15,74 -43,43 h -46 l -74,-28 -43,-15 -31,31 -28,58 -61,28 z"
   id="path309"
   inkscape:connector-curvature="0"
   style="fill:none;stroke:#000000;stroke-width:31;stroke-linecap:round;stroke-linejoin:round" />
        <path
   d="m 10626,18148 h -89 l -31,46 -27,43 v 58 l -32,74 -31,58 -42,62 -117,102 -62,46 -43,43 16,74 16,58 11,90 v 104 l -27,43 -16,74 43,30 74,44 46,30 -15,59 -16,58 v 31 l 58,43 32,16 58,-59 47,-31 v -73 l 42,-74 90,-44 42,-30 32,-74 89,-175 85,-62 74,-58 78,-28 74,-16 h 100 l 59,28 31,46 v 59 l 58,89 58,59 63,-43 42,-62 v -86 l 105,-105 59,-73 73,-74 90,-31 42,-74 -31,-132 -74,-43 -27,-46 27,-74 -58,-43 -58,-31 -74,-43 -74,-74 -89,-15 -58,30 -148,74 -105,28 -101,-16 27,74 v 74 l -42,46 h -74 l -58,16 -74,12 -47,-28 z"
   id="path311"
   inkscape:connector-curvature="0"
   style="fill:#00ff00;stroke:none" />
        <path
   d="m 10626,18148 h -89 l -31,46 -27,43 v 58 l -32,74 -31,58 -42,62 -117,102 -62,46 -43,43 16,74 16,58 11,90 v 104 l -27,43 -16,74 43,30 74,44 46,30 -15,59 -16,58 v 31 l 58,43 32,16 58,-59 47,-31 v -73 l 42,-74 90,-44 42,-30 32,-74 89,-175 85,-62 74,-58 78,-28 74,-16 h 100 l 59,28 31,46 v 59 l 58,89 58,59 63,-43 42,-62 v -86 l 105,-105 59,-73 73,-74 90,-31 42,-74 -31,-132 -74,-43 -27,-46 27,-74 -58,-43 -58,-31 -74,-43 -74,-74 -89,-15 -58,30 -148,74 -105,28 -101,-16 27,74 v 74 l -42,46 h -74 l -58,16 -74,12 -47,-28 z"
   id="path313"
   inkscape:connector-curvature="0"
   style="fill:none;stroke:#000000;stroke-width:31;stroke-linecap:round;stroke-linejoin:round" />
        <path
   d="m 11628,17794 -58,16 -27,15 -15,43 15,43 27,15 58,-31 z"
   id="path315"
   inkscape:connector-curvature="0"
   style="fill:#00ff00;stroke:none" />
        <path
   d="m 11628,17794 -58,16 -27,15 -15,43 15,43 27,15 58,-31 z"
   id="path317"
   inkscape:connector-curvature="0"
   style="fill:none;stroke:#000000;stroke-width:31;stroke-linecap:round;stroke-linejoin:round" />
        <path
   d="m 12060,17899 -90,31 -89,27 -27,59 -16,58 43,74 63,16 85,-59 v -59 -46 z"
   id="path319"
   inkscape:connector-curvature="0"
   style="fill:#00ff00;stroke:none" />
        <path
   d="m 12060,17899 -90,31 -89,27 -27,59 -16,58 43,74 63,16 85,-59 v -59 -46 z"
   id="path321"
   inkscape:connector-curvature="0"
   style="fill:none;stroke:#000000;stroke-width:31;stroke-linecap:round;stroke-linejoin:round" />
        <path
   d="m 12972,16372 -58,47 -74,58 -15,90 31,116 43,47 v 42 l -43,59 -31,47 -74,15 -74,43 -42,58 -74,15 -58,-58 -47,-15 h -43 l -62,31 -27,-47 15,-58 43,-58 -43,-32 -62,16 -85,31 -47,12 -148,-12 -205,12 h -106 l -58,15 -58,47 -58,43 h -74 -147 -74 l -47,-32 -116,-11 -63,43 -101,15 -74,-31 v -27 l -58,-47 -62,16 -85,31 -105,27 -90,31 -42,43 -16,89 -47,90 -74,58 -85,58 -89,47 -74,31 -74,-47 -74,16 -89,74 -105,30 -132,86 -105,74 -101,31 h -47 l -74,-43 -116,12 -74,47 -15,74 v 42 l 58,47 89,221 44,-15 73,-44 89,44 89,15 59,-46 74,-28 89,-15 58,15 v 59 l 16,120 15,28 74,88 74,-43 105,-89 101,-58 120,-136 27,-15 63,89 74,31 85,-31 74,-43 78,15 h 27 l 73,28 90,-58 147,-59 59,-46 105,16 73,15 90,-15 58,-43 90,-89 15,-16 74,31 85,-47 121,-27 105,-15 100,15 106,59 26,42 63,47 74,-31 42,-43 74,-31 58,16 32,42 31,31 v 59 l -47,58 -74,89 -74,90 -58,30 -15,74 -32,43 32,89 v 59 l -32,89 16,74 58,58 63,31 73,-15 74,58 43,62 15,42 32,59 73,31 85,-16 74,-74 47,-104 58,-86 74,-135 58,-148 32,-132 h 89 l 132,-133 h 89 l 117,44 74,58 v -117 l -59,-74 v -58 l -116,-46 -74,-59 -62,-58 15,-74 74,-105 v -73 l 74,-74 47,-43 42,43 v 74 l -15,73 -27,74 -31,58 42,62 47,28 27,-58 -11,-74 11,-47 62,47 101,-16 h 74 l 16,31 -27,59 -63,58 v 58 l 90,-12 89,-46 31,-43 74,-47 11,-27 47,59 16,58 58,58 90,-12 h 163 l 74,28 100,-164 74,-89 47,-148 58,-116 h 132 l 74,104 -31,148 -12,133 27,104 74,28 31,-117 148,-89 -31,-90 -27,-105 27,-116 136,-121 101,-27 15,-15 43,58 v 74 l 74,62 47,-31 v -121 l -47,-100 62,-164 101,-58 47,-62 116,73 74,32 -16,132 -132,62 -42,101 v 121 l -90,116 74,120 58,-89 105,-59 101,-73 136,-31 -15,-148 42,-120 74,-132 121,-105 101,-59 -148,-116 -58,-148 -31,-178 89,-269 74,-248 105,-311 58,-221 -43,-358 -15,-326 105,-132 101,-105 73,31 32,89 h 89 v -163 l -31,-163 15,-117 106,-225 132,-221 58,-163 -32,-148 -73,-206 -85,-206 -47,-210 -74,-85 -90,-31 -42,-105 -47,-163 -27,-132 27,-106 63,-263 11,-121 -117,74 -89,-74 -116,31 -74,-74 -90,90 -15,132 v 120 l 58,27 89,-58 59,-89 73,-16 63,74 11,121 -27,132 -74,15 -105,-31 v -43 h -89 l 16,74 -16,74 -101,-42 -47,-79 16,-100 -43,-105 -89,-16 -89,16 15,89 43,89 -90,117 v 89 l -58,58 -58,-58 -74,31 -15,132 -27,148 73,148 -15,74 -31,120 -90,90 -148,11 74,136 h 121 l 116,43 47,179 -31,116 -105,163 v 132 l 16,121 -59,89 -120,175 -74,163 -43,225 -58,132 -105,89 -174,59 -152,58 v 105 l -74,163 -206,190 -264,164 -163,15 -206,163 -136,175 -101,-11 -62,-74 v -63 l 46,-85 v -74 l -105,-62 32,-89 163,-12 27,-74 47,-89 -121,-16 -206,74 -116,43 -16,532 -163,237 -105,121 z"
   id="path323"
   inkscape:connector-curvature="0"
   style="fill:#00ff00;stroke:none" />
        <path
   d="m 12972,16372 -58,47 -74,58 -15,90 31,116 43,47 v 42 l -43,59 -31,47 -74,15 -74,43 -42,58 -74,15 -58,-58 -47,-15 h -43 l -62,31 -27,-47 15,-58 43,-58 -43,-32 -62,16 -85,31 -47,12 -148,-12 -205,12 h -106 l -58,15 -58,47 -58,43 h -74 -147 -74 l -47,-32 -116,-11 -63,43 -101,15 -74,-31 v -27 l -58,-47 -62,16 -85,31 -105,27 -90,31 -42,43 -16,89 -47,90 -74,58 -85,58 -89,47 -74,31 -74,-47 -74,16 -89,74 -105,30 -132,86 -105,74 -101,31 h -47 l -74,-43 -116,12 -74,47 -15,74 v 42 l 58,47 89,221 44,-15 73,-44 89,44 89,15 59,-46 74,-28 89,-15 58,15 v 59 l 16,120 15,28 74,88 74,-43 105,-89 101,-58 120,-136 27,-15 63,89 74,31 85,-31 74,-43 78,15 h 27 l 73,28 90,-58 147,-59 59,-46 105,16 73,15 90,-15 58,-43 90,-89 15,-16 74,31 85,-47 121,-27 105,-15 100,15 106,59 26,42 63,47 74,-31 42,-43 74,-31 58,16 32,42 31,31 v 59 l -47,58 -74,89 -74,90 -58,30 -15,74 -32,43 32,89 v 59 l -32,89 16,74 58,58 63,31 73,-15 74,58 43,62 15,42 32,59 73,31 85,-16 74,-74 47,-104 58,-86 74,-135 58,-148 32,-132 h 89 l 132,-133 h 89 l 117,44 74,58 v -117 l -59,-74 v -58 l -116,-46 -74,-59 -62,-58 15,-74 74,-105 v -73 l 74,-74 47,-43 42,43 v 74 l -15,73 -27,74 -31,58 42,62 47,28 27,-58 -11,-74 11,-47 62,47 101,-16 h 74 l 16,31 -27,59 -63,58 v 58 l 90,-12 89,-46 31,-43 74,-47 11,-27 47,59 16,58 58,58 90,-12 h 163 l 74,28 100,-164 74,-89 47,-148 58,-116 h 132 l 74,104 -31,148 -12,133 27,104 74,28 31,-117 148,-89 -31,-90 -27,-105 27,-116 136,-121 101,-27 15,-15 43,58 v 74 l 74,62 47,-31 v -121 l -47,-100 62,-164 101,-58 47,-62 116,73 74,32 -16,132 -132,62 -42,101 v 121 l -90,116 74,120 58,-89 105,-59 101,-73 136,-31 -15,-148 42,-120 74,-132 121,-105 101,-59 -148,-116 -58,-148 -31,-178 89,-269 74,-248 105,-311 58,-221 -43,-358 -15,-326 105,-132 101,-105 73,31 32,89 h 89 v -163 l -31,-163 15,-117 106,-225 132,-221 58,-163 -32,-148 -73,-206 -85,-206 -47,-210 -74,-85 -90,-31 -42,-105 -47,-163 -27,-132 27,-106 63,-263 11,-121 -117,74 -89,-74 -116,31 -74,-74 -90,90 -15,132 v 120 l 58,27 89,-58 59,-89 73,-16 63,74 11,121 -27,132 -74,15 -105,-31 v -43 h -89 l 16,74 -16,74 -101,-42 -47,-79 16,-100 -43,-105 -89,-16 -89,16 15,89 43,89 -90,117 v 89 l -58,58 -58,-58 -74,31 -15,132 -27,148 73,148 -15,74 -31,120 -90,90 -148,11 74,136 h 121 l 116,43 47,179 -31,116 -105,163 v 132 l 16,121 -59,89 -120,175 -74,163 -43,225 -58,132 -105,89 -174,59 -152,58 v 105 l -74,163 -206,190 -264,164 -163,15 -206,163 -136,175 -101,-11 -62,-74 v -63 l 46,-85 v -74 l -105,-62 32,-89 163,-12 27,-74 47,-89 -121,-16 -206,74 -116,43 -16,532 -163,237 -105,121 z"
   id="path325"
   inkscape:connector-curvature="0"
   style="fill:none;stroke:#000000;stroke-width:31;stroke-linecap:round;stroke-linejoin:round" />
        <path
   d="m 14468,14791 -31,-74 105,-120 58,16 58,-74 59,15 -16,89 -27,28 v 74 l 58,30 v 74 l -74,44 -42,45 -16,44 -58,15 -47,-59 47,-89 v -43 z"
   id="path327"
   inkscape:connector-curvature="0"
   style="fill:#00ff00;stroke:none" />
        <path
   d="m 14468,14791 -31,-74 105,-120 58,16 58,-74 59,15 -16,89 -27,28 v 74 l 58,30 v 74 l -74,44 -42,45 -16,44 -58,15 -47,-59 47,-89 v -43 z"
   id="path329"
   inkscape:connector-curvature="0"
   style="fill:none;stroke:#000000;stroke-width:31;stroke-linecap:round;stroke-linejoin:round" />
        <path
   d="m 16612,8153 -43,73 -15,89 43,102 74,147 30,90 -15,326 -15,190 -59,148 v 151 l -132,116 16,179 12,132 -86,148 -62,105 h -73 l -44,-90 -43,43 -105,16 -89,-59 -88,-46 -59,15 -31,47 16,74 58,89 16,58 -44,59 h -30 l -28,31 -163,147 -164,74 59,58 -15,280 89,105 104,163 v 132 l -30,105 -28,132 58,132 74,32 102,-58 31,-59 v -105 l 120,-132 42,-47 16,59 43,46 74,-46 31,-43 73,31 74,12 44,-74 -28,-58 -90,-16 -89,-43 -74,-120 -116,15 -135,-42 -28,-90 -31,-73 v -90 l 31,-74 101,-31 74,-11 62,11 58,31 43,121 46,85 86,-74 16,-74 132,-89 104,-85 74,-16 105,43 86,58 135,16 90,31 74,74 42,74 133,58 162,47 148,85 74,89 74,-27 31,-74 v -136 l 12,-74 62,-132 58,-105 43,-85 104,-121 90,-89 117,-101 h 162 133 120 v -151 l 74,77 74,-46 89,-59 43,-58 58,-31 h 120 l 59,-31 15,-73 58,-59 59,-43 15,-46 58,-15 -14,-44 -44,-30 -46,15 16,59 h -59 l -74,61 -104,58 -59,32 -43,-16 -31,-46 -15,-44 15,-132 -27,-31 -62,-42 -27,-74 -16,-105 -15,-89 74,-89 58,-90 31,-58 -31,-147 -74,104 -58,117 -105,74 -74,74 h -58 l -28,46 -105,12 -73,-28 -89,-74 -74,-46 h -148 l -117,-43 -135,-58 -206,-136 -89,-101 -176,-194 -119,-132 -86,-16 -195,-190 -58,-62 -58,-101 -74,-16 -90,43 z"
   id="path331"
   inkscape:connector-curvature="0"
   style="fill:#00ff00;stroke:none" />
        <path
   d="m 16612,8153 -43,73 -15,89 43,102 74,147 30,90 -15,326 -15,190 -59,148 v 151 l -132,116 16,179 12,132 -86,148 -62,105 h -73 l -44,-90 -43,43 -105,16 -89,-59 -88,-46 -59,15 -31,47 16,74 58,89 16,58 -44,59 h -30 l -28,31 -163,147 -164,74 59,58 -15,280 89,105 104,163 v 132 l -30,105 -28,132 58,132 74,32 102,-58 31,-59 v -105 l 120,-132 42,-47 16,59 43,46 74,-46 31,-43 73,31 74,12 44,-74 -28,-58 -90,-16 -89,-43 -74,-120 -116,15 -135,-42 -28,-90 -31,-73 v -90 l 31,-74 101,-31 74,-11 62,11 58,31 43,121 46,85 86,-74 16,-74 132,-89 104,-85 74,-16 105,43 86,58 135,16 90,31 74,74 42,74 133,58 162,47 148,85 74,89 74,-27 31,-74 v -136 l 12,-74 62,-132 58,-105 43,-85 104,-121 90,-89 117,-101 h 162 133 120 v -151 l 74,77 74,-46 89,-59 43,-58 58,-31 h 120 l 59,-31 15,-73 58,-59 59,-43 15,-46 58,-15 -14,-44 -44,-30 -46,15 16,59 h -59 l -74,61 -104,58 -59,32 -43,-16 -31,-46 -15,-44 15,-132 -27,-31 -62,-42 -27,-74 -16,-105 -15,-89 74,-89 58,-90 31,-58 -31,-147 -74,104 -58,117 -105,74 -74,74 h -58 l -28,46 -105,12 -73,-28 -89,-74 -74,-46 h -148 l -117,-43 -135,-58 -206,-136 -89,-101 -176,-194 -119,-132 -86,-16 -195,-190 -58,-62 -58,-101 -74,-16 -90,43 z"
   id="path333"
   inkscape:connector-curvature="0"
   style="fill:none;stroke:#000000;stroke-width:31;stroke-linecap:round;stroke-linejoin:round" />
        <path
   d="m 16255,8195 -70,-74 -16,32 v 116 l 16,42 43,-31 z"
   id="path335"
   inkscape:connector-curvature="0"
   style="fill:#00ff00;stroke:none" />
        <path
   d="m 16255,8195 -70,-74 -16,32 v 116 l 16,42 43,-31 z"
   id="path337"
   inkscape:connector-curvature="0"
   style="fill:none;stroke:#000000;stroke-width:31;stroke-linecap:round;stroke-linejoin:round" />
        <path
   d="m 16255,8238 v 73 l 16,63 58,43 74,15 31,-74 -43,-47 z"
   id="path339"
   inkscape:connector-curvature="0"
   style="fill:#00ff00;stroke:none" />
        <path
   d="m 16255,8238 v 73 l 16,63 58,43 74,15 31,-74 -43,-47 z"
   id="path341"
   inkscape:connector-curvature="0"
   style="fill:none;stroke:#000000;stroke-width:31;stroke-linecap:round;stroke-linejoin:round" />
        <path
   d="m 15385,11159 v 70 l -23,69 -117,24 v -70 z"
   id="path343"
   inkscape:connector-curvature="0"
   style="fill:#00ff00;stroke:none" />
        <path
   d="m 15385,11159 v 70 l -23,69 -117,24 v -70 z"
   id="path345"
   inkscape:connector-curvature="0"
   style="fill:none;stroke:#000000;stroke-width:31;stroke-linecap:round;stroke-linejoin:round" />
        <path
   d="m 19537,9511 -30,32 16,42 14,44 31,15 90,-59 -47,-42 z"
   id="path347"
   inkscape:connector-curvature="0"
   style="fill:#00ff00;stroke:none" />
        <path
   d="m 19537,9511 -30,32 16,42 14,44 31,15 90,-59 -47,-42 z"
   id="path349"
   inkscape:connector-curvature="0"
   style="fill:none;stroke:#000000;stroke-width:31;stroke-linecap:round;stroke-linejoin:round" />
        <path
   d="m 19759,9379 -43,44 43,58 15,15 74,-58 z"
   id="path351"
   inkscape:connector-curvature="0"
   style="fill:#00ff00;stroke:none" />
        <path
   d="m 19759,9379 -43,44 43,58 15,15 74,-58 z"
   id="path353"
   inkscape:connector-curvature="0"
   style="fill:none;stroke:#000000;stroke-width:31;stroke-linecap:round;stroke-linejoin:round" />
        <path
   d="m 19627,9690 -117,47 -23,93 z"
   id="path355"
   inkscape:connector-curvature="0"
   style="fill:#00ff00;stroke:none" />
        <path
   d="m 19627,9690 -117,47 -23,93 z"
   id="path357"
   inkscape:connector-curvature="0"
   style="fill:none;stroke:#000000;stroke-width:31;stroke-linecap:round;stroke-linejoin:round" />
        <path
   d="m 19837,9318 v 46 h 93 z"
   id="path359"
   inkscape:connector-curvature="0"
   style="fill:#00ff00;stroke:none" />
        <path
   d="m 19837,9318 v 46 h 93 z"
   id="path361"
   inkscape:connector-curvature="0"
   style="fill:none;stroke:#000000;stroke-width:31;stroke-linecap:round;stroke-linejoin:round" />
        <path
   d="m 15346,17639 h 85 v 46 94 h -50 z"
   id="path363"
   inkscape:connector-curvature="0"
   style="fill:#00ff00;stroke:none" />
        <path
   d="m 15346,17639 h 85 v 46 94 h -50 z"
   id="path365"
   inkscape:connector-curvature="0"
   style="fill:none;stroke:#000000;stroke-width:31;stroke-linecap:round;stroke-linejoin:round" />
        <path
   d="m 15357,17942 -19,38 -70,20 36,82 h 104 z"
   id="path367"
   inkscape:connector-curvature="0"
   style="fill:#00ff00;stroke:none" />
        <path
   d="m 15357,17942 -19,38 -70,20 36,82 h 104 z"
   id="path369"
   inkscape:connector-curvature="0"
   style="fill:none;stroke:#000000;stroke-width:31;stroke-linecap:round;stroke-linejoin:round" />
        <path
   d="m 10700,16450 h -105 l -82,46 v 47 z"
   id="path371"
   inkscape:connector-curvature="0"
   style="fill:#00ff00;stroke:none" />
        <path
   d="m 10700,16450 h -105 l -82,46 v 47 z"
   id="path373"
   inkscape:connector-curvature="0"
   style="fill:none;stroke:#000000;stroke-width:31;stroke-linecap:round;stroke-linejoin:round" />
        <path
   d="m 10731,16496 132,24 v 47 l -120,-13 z"
   id="path375"
   inkscape:connector-curvature="0"
   style="fill:#00ff00;stroke:none" />
        <path
   d="m 10731,16496 132,24 v 47 l -120,-13 z"
   id="path377"
   inkscape:connector-curvature="0"
   style="fill:none;stroke:#000000;stroke-width:31;stroke-linecap:round;stroke-linejoin:round" />
        <path
   d="m 10898,16240 -82,90 66,73 79,19 66,-92 z"
   id="path379"
   inkscape:connector-curvature="0"
   style="fill:#00ff00;stroke:none" />
        <path
   d="m 10898,16240 -82,90 66,73 79,19 66,-92 z"
   id="path381"
   inkscape:connector-curvature="0"
   style="fill:none;stroke:#000000;stroke-width:31;stroke-linecap:round;stroke-linejoin:round" />
        <path
   d="m 10592,16543 85,19 v 44 l -78,-12 z"
   id="path383"
   inkscape:connector-curvature="0"
   style="fill:#00ff00;stroke:none" />
        <path
   d="m 10592,16543 85,19 v 44 l -78,-12 z"
   id="path385"
   inkscape:connector-curvature="0"
   style="fill:none;stroke:#000000;stroke-width:31;stroke-linecap:round;stroke-linejoin:round" />
        <path
   d="m 7546,18459 47,104 -16,59 -16,62 -58,42 -31,-31 16,-89 15,-58 z"
   id="path387"
   inkscape:connector-curvature="0"
   style="fill:#00ff00;stroke:none" />
        <path
   d="m 7546,18459 47,104 -16,59 -16,62 -58,42 -31,-31 16,-89 15,-58 z"
   id="path389"
   inkscape:connector-curvature="0"
   style="fill:none;stroke:#000000;stroke-width:31;stroke-linecap:round;stroke-linejoin:round" />
        <path
   d="m 7282,18874 h -74 l -28,43 -30,15 v 62 l 58,43 30,-43 v -31 l 44,-15 z"
   id="path391"
   inkscape:connector-curvature="0"
   style="fill:#00ff00;stroke:none" />
        <path
   d="m 7282,18874 h -74 l -28,43 -30,15 v 62 l 58,43 30,-43 v -31 l 44,-15 z"
   id="path393"
   inkscape:connector-curvature="0"
   style="fill:none;stroke:#000000;stroke-width:31;stroke-linecap:round;stroke-linejoin:round" />
        <path
   d="m 7460,18695 -58,43 15,46 -89,32 -31,27 v 46 l 46,-31 h 43 l 16,59 v 31 l 105,-43 58,-62 -31,-43 -43,-31 z"
   id="path395"
   inkscape:connector-curvature="0"
   style="fill:#00ff00;stroke:none" />
        <path
   d="m 7460,18695 -58,43 15,46 -89,32 -31,27 v 46 l 46,-31 h 43 l 16,59 v 31 l 105,-43 58,-62 -31,-43 -43,-31 z"
   id="path397"
   inkscape:connector-curvature="0"
   style="fill:none;stroke:#000000;stroke-width:31;stroke-linecap:round;stroke-linejoin:round" />
        <path
   d="m 7565,18754 -16,42 74,59 28,-27 v -74 z"
   id="path399"
   inkscape:connector-curvature="0"
   style="fill:#00ff00;stroke:none" />
        <path
   d="m 7565,18754 -16,42 74,59 28,-27 v -74 z"
   id="path401"
   inkscape:connector-curvature="0"
   style="fill:none;stroke:#000000;stroke-width:31;stroke-linecap:round;stroke-linejoin:round" />
        <path
   d="m 7705,18777 -16,43 74,58 28,-27 v -74 z"
   id="path403"
   inkscape:connector-curvature="0"
   style="fill:#00ff00;stroke:none" />
        <path
   d="m 7705,18777 -16,43 74,58 28,-27 v -74 z"
   id="path405"
   inkscape:connector-curvature="0"
   style="fill:none;stroke:#000000;stroke-width:31;stroke-linecap:round;stroke-linejoin:round" />
        <path
   d="m 8361,19406 59,-43 v -62 l 15,-27 31,-47 -16,-42 -58,42 -31,63 16,27 -31,15 z"
   id="path407"
   inkscape:connector-curvature="0"
   style="fill:#00ff00;stroke:none" />
        <path
   d="m 8361,19406 59,-43 v -62 l 15,-27 31,-47 -16,-42 -58,42 -31,63 16,27 -31,15 z"
   id="path409"
   inkscape:connector-curvature="0"
   style="fill:none;stroke:#000000;stroke-width:31;stroke-linecap:round;stroke-linejoin:round" />
        <path
   d="m 8276,19227 h -58 l -47,59 -90,89 -30,47 15,73 43,43 v -43 l 93,-61 27,15 31,-43 z"
   id="path411"
   inkscape:connector-curvature="0"
   style="fill:#00ff00;stroke:none" />
        <path
   d="m 8276,19227 h -58 l -47,59 -90,89 -30,47 15,73 43,43 v -43 l 93,-61 27,15 31,-43 z"
   id="path413"
   inkscape:connector-curvature="0"
   style="fill:none;stroke:#000000;stroke-width:31;stroke-linecap:round;stroke-linejoin:round" />
        <path
   d="m 7973,19643 47,93 v 94 l -71,-47 z"
   id="path415"
   inkscape:connector-curvature="0"
   style="fill:#00ff00;stroke:none" />
        <path
   d="m 7973,19643 47,93 v 94 l -71,-47 z"
   id="path417"
   inkscape:connector-curvature="0"
   style="fill:none;stroke:#000000;stroke-width:31;stroke-linecap:round;stroke-linejoin:round" />
        <path
   d="m 7786,19830 h -50 l -50,11 -86,43 v 39 h 51 l 101,-54 z"
   id="path419"
   inkscape:connector-curvature="0"
   style="fill:#00ff00;stroke:none" />
        <path
   d="m 7786,19830 h -50 l -50,11 -86,43 v 39 h 51 l 101,-54 z"
   id="path421"
   inkscape:connector-curvature="0"
   style="fill:none;stroke:#000000;stroke-width:31;stroke-linecap:round;stroke-linejoin:round" />
        <path
   d="m 7833,19779 v 35 l 55,19 22,-34 -11,-27 z"
   id="path423"
   inkscape:connector-curvature="0"
   style="fill:#00ff00;stroke:none" />
        <path
   d="m 7833,19779 v 35 l 55,19 22,-34 -11,-27 z"
   id="path425"
   inkscape:connector-curvature="0"
   style="fill:none;stroke:#000000;stroke-width:31;stroke-linecap:round;stroke-linejoin:round" />
        <path
   d="m 8354,21411 -4,-58 -11,-102 -90,28 -43,43 -15,58 v 58 l 104,105 74,-58 z"
   id="path427"
   inkscape:connector-curvature="0"
   style="fill:#00ff00;stroke:none" />
        <path
   d="m 8354,21411 -4,-58 -11,-102 -90,28 -43,43 -15,58 v 58 l 104,105 74,-58 z"
   id="path429"
   inkscape:connector-curvature="0"
   style="fill:none;stroke:#000000;stroke-width:31;stroke-linecap:round;stroke-linejoin:round" />
        <path
   d="m 8649,21380 89,-58 -11,-74 42,-90 105,-89 v -74 l -31,-55 16,-93 -74,16 -58,74 -32,116 v 63 l -105,116 -93,31 z"
   id="path431"
   inkscape:connector-curvature="0"
   style="fill:#00ff00;stroke:none" />
        <path
   d="m 8649,21380 89,-58 -11,-74 42,-90 105,-89 v -74 l -31,-55 16,-93 -74,16 -58,74 -32,116 v 63 l -105,116 -93,31 z"
   id="path433"
   inkscape:connector-curvature="0"
   style="fill:none;stroke:#000000;stroke-width:31;stroke-linecap:round;stroke-linejoin:round" />
        <path
   d="m 8140,21294 23,-58 v -54 -28 l -23,-15 h -59 l 8,23 43,28 -19,38 z"
   id="path435"
   inkscape:connector-curvature="0"
   style="fill:#00ff00;stroke:none" />
        <path
   d="m 8140,21294 23,-58 v -54 -28 l -23,-15 h -59 l 8,23 43,28 -19,38 z"
   id="path437"
   inkscape:connector-curvature="0"
   style="fill:none;stroke:#000000;stroke-width:31;stroke-linecap:round;stroke-linejoin:round" />
        <path
   d="m 7965,20863 h -23 l -66,-27 39,-15 z"
   id="path439"
   inkscape:connector-curvature="0"
   style="fill:#00ff00;stroke:none" />
        <path
   d="m 7965,20863 h -23 l -66,-27 39,-15 z"
   id="path441"
   inkscape:connector-curvature="0"
   style="fill:none;stroke:#000000;stroke-width:31;stroke-linecap:round;stroke-linejoin:round" />
        <path
   d="m 8175,20828 h 31 l 20,-43 -5,-35 -8,-61 -22,-8 -4,50 v 54 z"
   id="path443"
   inkscape:connector-curvature="0"
   style="fill:#00ff00;stroke:none" />
        <path
   d="m 8175,20828 h 31 l 20,-43 -5,-35 -8,-61 -22,-8 -4,50 v 54 z"
   id="path445"
   inkscape:connector-curvature="0"
   style="fill:none;stroke:#000000;stroke-width:31;stroke-linecap:round;stroke-linejoin:round" />
        <path
   d="m 8292,20719 23,31 v 74 l -12,47 55,3 -12,-66 27,-69 z"
   id="path447"
   inkscape:connector-curvature="0"
   style="fill:#00ff00;stroke:none" />
        <path
   d="m 8292,20719 23,31 v 74 l -12,47 55,3 -12,-66 27,-69 z"
   id="path449"
   inkscape:connector-curvature="0"
   style="fill:none;stroke:#000000;stroke-width:31;stroke-linecap:round;stroke-linejoin:round" />
       </g>
      </g>
     </g>
    </g>
   </g>
  </g>
 </g>
</svg>