<?xml version="1.0" encoding="UTF-8" standalone="no"?>
<svg
   xmlns:ooo="http://xml.openoffice.org/svg/export"
   xmlns:dc="http://purl.org/dc/elements/1.1/"
   xmlns:cc="http://creativecommons.org/ns#"
   xmlns:rdf="http://www.w3.org/1999/02/22-rdf-syntax-ns#"
   xmlns:svg="http://www.w3.org/2000/svg"
   xmlns="http://www.w3.org/2000/svg"
   xmlns:sodipodi="http://sodipodi.sourceforge.net/DTD/sodipodi-0.dtd"
   xmlns:inkscape="http://www.inkscape.org/namespaces/inkscape"
   version="1.2"
   width="134.06mm"
   height="134.45mm"
   viewBox="0 0 13406 13445"
   preserveAspectRatio="xMidYMid"
   xml:space="preserve"
   id="svg339"
   sodipodi:docname="judge.svg"
   style="fill-rule:evenodd;stroke-width:28.22200012;stroke-linejoin:round"
   inkscape:version="0.92.5 (2060ec1f9f, 2020-04-08)"><metadata
   id="metadata343"><rdf:RDF><cc:Work
       rdf:about=""><dc:format>image/svg+xml</dc:format><dc:type
         rdf:resource="http://purl.org/dc/dcmitype/StillImage" /></cc:Work></rdf:RDF></metadata><sodipodi:namedview
   pagecolor="#ffffff"
   bordercolor="#666666"
   borderopacity="1"
   objecttolerance="10"
   gridtolerance="10"
   guidetolerance="10"
   inkscape:pageopacity="0"
   inkscape:pageshadow="2"
   inkscape:window-width="664"
   inkscape:window-height="487"
   id="namedview341"
   showgrid="false"
   inkscape:zoom="0.2102413"
   inkscape:cx="253.34173"
   inkscape:cy="254.05984"
   inkscape:window-x="0"
   inkscape:window-y="0"
   inkscape:window-maximized="0"
   inkscape:current-layer="svg339" />
 <defs
   class="ClipPathGroup"
   id="defs8">
  <clipPath
   id="presentation_clip_path"
   clipPathUnits="userSpaceOnUse">
   <rect
   x="0"
   y="0"
   width="21000"
   height="29700"
   id="rect2" />
  </clipPath>
  <clipPath
   id="presentation_clip_path_shrink"
   clipPathUnits="userSpaceOnUse">
   <rect
   x="21"
   y="29"
   width="20958"
   height="29641"
   id="rect5" />
  </clipPath>
 </defs>
 <defs
   class="TextShapeIndex"
   id="defs12">
  <g
   ooo:slide="id1"
   ooo:id-list="id3"
   id="g10" />
 </defs>
 <defs
   class="EmbeddedBulletChars"
   id="defs44">
  <g
   id="bullet-char-template-57356"
   transform="matrix(4.8828125e-4,0,0,-4.8828125e-4,0,0)">
   <path
   d="M 580,1141 1163,571 580,0 -4,571 Z"
   id="path14"
   inkscape:connector-curvature="0" />
  </g>
  <g
   id="bullet-char-template-57354"
   transform="matrix(4.8828125e-4,0,0,-4.8828125e-4,0,0)">
   <path
   d="M 8,1128 H 1137 V 0 H 8 Z"
   id="path17"
   inkscape:connector-curvature="0" />
  </g>
  <g
   id="bullet-char-template-10146"
   transform="matrix(4.8828125e-4,0,0,-4.8828125e-4,0,0)">
   <path
   d="M 174,0 602,739 174,1481 1456,739 Z M 1358,739 309,1346 659,739 Z"
   id="path20"
   inkscape:connector-curvature="0" />
  </g>
  <g
   id="bullet-char-template-10132"
   transform="matrix(4.8828125e-4,0,0,-4.8828125e-4,0,0)">
   <path
   d="M 2015,739 1276,0 H 717 l 543,543 H 174 v 393 h 1086 l -543,545 h 557 z"
   id="path23"
   inkscape:connector-curvature="0" />
  </g>
  <g
   id="bullet-char-template-10007"
   transform="matrix(4.8828125e-4,0,0,-4.8828125e-4,0,0)">
   <path
   d="m 0,-2 c -7,16 -16,29 -25,39 l 381,530 c -94,256 -141,385 -141,387 0,25 13,38 40,38 9,0 21,-2 34,-5 21,4 42,12 65,25 l 27,-13 111,-251 280,301 64,-25 24,25 c 21,-10 41,-24 62,-43 C 886,937 835,863 770,784 769,783 710,716 594,584 L 774,223 c 0,-27 -21,-55 -63,-84 l 16,-20 C 717,90 699,76 672,76 641,76 570,178 457,381 L 164,-76 c -22,-34 -53,-51 -92,-51 -42,0 -63,17 -64,51 -7,9 -10,24 -10,44 0,9 1,19 2,30 z"
   id="path26"
   inkscape:connector-curvature="0" />
  </g>
  <g
   id="bullet-char-template-10004"
   transform="matrix(4.8828125e-4,0,0,-4.8828125e-4,0,0)">
   <path
   d="M 285,-33 C 182,-33 111,30 74,156 52,228 41,333 41,471 c 0,78 14,145 41,201 34,71 87,106 158,106 53,0 88,-31 106,-94 l 23,-176 c 8,-64 28,-97 59,-98 l 735,706 c 11,11 33,17 66,17 42,0 63,-15 63,-46 V 965 c 0,-36 -10,-64 -30,-84 L 442,47 C 390,-6 338,-33 285,-33 Z"
   id="path29"
   inkscape:connector-curvature="0" />
  </g>
  <g
   id="bullet-char-template-9679"
   transform="matrix(4.8828125e-4,0,0,-4.8828125e-4,0,0)">
   <path
   d="M 813,0 C 632,0 489,54 383,161 276,268 223,411 223,592 c 0,181 53,324 160,431 106,107 249,161 430,161 179,0 323,-54 432,-161 108,-107 162,-251 162,-431 0,-180 -54,-324 -162,-431 C 1136,54 992,0 813,0 Z"
   id="path32"
   inkscape:connector-curvature="0" />
  </g>
  <g
   id="bullet-char-template-8226"
   transform="matrix(4.8828125e-4,0,0,-4.8828125e-4,0,0)">
   <path
   d="m 346,457 c -73,0 -137,26 -191,78 -54,51 -81,114 -81,188 0,73 27,136 81,188 54,52 118,78 191,78 73,0 134,-26 185,-79 51,-51 77,-114 77,-187 0,-75 -25,-137 -76,-188 -50,-52 -112,-78 -186,-78 z"
   id="path35"
   inkscape:connector-curvature="0" />
  </g>
  <g
   id="bullet-char-template-8211"
   transform="matrix(4.8828125e-4,0,0,-4.8828125e-4,0,0)">
   <path
   d="M -4,459 H 1135 V 606 H -4 Z"
   id="path38"
   inkscape:connector-curvature="0" />
  </g>
  <g
   id="bullet-char-template-61548"
   transform="matrix(4.8828125e-4,0,0,-4.8828125e-4,0,0)">
   <path
   d="m 173,740 c 0,163 58,303 173,419 116,115 255,173 419,173 163,0 302,-58 418,-173 116,-116 174,-256 174,-419 0,-163 -58,-303 -174,-418 C 1067,206 928,148 765,148 601,148 462,206 346,322 231,437 173,577 173,740 Z"
   id="path41"
   inkscape:connector-curvature="0" />
  </g>
 </defs>
 <g
   id="g49"
   transform="translate(-3797,-8127)">
  <g
   id="id2"
   class="Master_Slide">
   <g
   id="bg-id2"
   class="Background" />
   <g
   id="bo-id2"
   class="BackgroundObjects" />
  </g>
 </g>
 <g
   class="SlideGroup"
   id="g337"
   transform="translate(-3797,-8127)">
  <g
   id="g335">
   <g
   id="container-id1">
    <g
   id="id1"
   class="Slide"
   clip-path="url(#presentation_clip_path)">
     <g
   class="Page"
   id="g331">
      <g
   class="Graphic"
   id="g329">
       <g
   id="id3">
        <rect
   class="BoundingBox"
   x="3797"
   y="8127"
   width="13406"
   height="13445"
   id="rect51"
   style="fill:none;stroke:none" />
        <defs
   id="defs56">
         <clipPath
   id="clip_path_1"
   clipPathUnits="userSpaceOnUse">
          <path
   d="M 3797,8127 H 17202 V 21571 H 3797 Z"
   id="path53"
   inkscape:connector-curvature="0" />
         </clipPath>
        </defs>
        <g
   clip-path="url(#clip_path_1)"
   id="g190">
         <path
   d="m 8145,15236 c 0,95 -15,189 -45,272 -29,83 -71,151 -121,199 -51,48 -108,73 -167,73 -58,0 -115,-25 -166,-73 -50,-48 -92,-116 -121,-199 -30,-83 -45,-177 -45,-272 0,-96 15,-190 45,-273 29,-83 71,-151 121,-199 51,-48 108,-73 166,-73 59,0 116,25 167,73 50,48 92,116 121,199 30,83 45,177 45,273 z"
   id="path58"
   inkscape:connector-curvature="0"
   style="fill:#cecece;stroke:none" />
         <path
   d="m 8142,15233 v -28 l -2,-27 -2,-27 -3,-27 -4,-27 -4,-27 -6,-26 -6,-25 -7,-25 -8,-25 -8,-23 -9,-23 -10,-22 -11,-22 -11,-20 -12,-20 -12,-18 -13,-17 -14,-17 -14,-15 -14,-14 -15,-13 -15,-11 -16,-10 -16,-9 -16,-8 -16,-6 -17,-5 -17,-3 -16,-2 -17,-1 v 0 l -17,1 -16,2 -17,3 -17,5 -16,6 -16,8 -16,9 -16,10 -15,11 -15,13 -14,14 -14,15 -14,17 -13,17 -12,18 -12,20 -11,20 -11,22 -10,22 -9,23 -8,23 -8,25 -7,25 -6,25 -6,26 -4,27 -4,27 -3,27 -2,27 -2,27 v 28 0 28 l 2,27 2,27 3,27 4,27 4,27 6,26 6,25 7,25 8,25 8,23 9,23 10,22 11,22 11,20 12,20 12,18 13,17 14,17 14,15 14,14 15,13 15,11 16,10 16,9 16,8 16,6 17,5 17,3 16,2 17,1 v 0 l 17,-1 16,-2 17,-3 17,-5 16,-6 16,-8 16,-9 16,-10 15,-11 15,-13 14,-14 14,-15 14,-17 13,-17 12,-18 12,-20 11,-20 11,-22 10,-22 9,-23 8,-23 8,-25 7,-25 6,-25 6,-26 4,-27 4,-27 3,-27 2,-27 2,-27 z"
   id="path60"
   inkscape:connector-curvature="0"
   style="fill:none;stroke:#000000;stroke-width:35;stroke-linecap:round;stroke-linejoin:round" />
         <path
   d="m 8447,14854 3873,185 970,375 512,150 600,503 414,565 1094,4221 H 3841 l 1747,-4221 401,-547 494,-402 z"
   id="path62"
   inkscape:connector-curvature="0"
   style="fill:#000000;stroke:none" />
         <path
   d="m 8447,14854 3873,185 970,375 512,150 600,503 414,565 1094,4221 H 3841 l 1747,-4221 401,-547 494,-402 z"
   id="path64"
   inkscape:connector-curvature="0"
   style="fill:none;stroke:#000000;stroke-width:35;stroke-linecap:round;stroke-linejoin:round" />
         <path
   d="m 7428,16195 357,476 238,715 119,1231 -40,833 -238,1403 h 6776 l 53,-2514 -79,-874 -120,-436 v 674 l -79,2263 -238,675 40,-1667 -358,-2065 80,2581 -146,1363 h -423 l -384,-4063 172,4063 h -1059 l -106,-1363 -106,1363 h -1270 l 26,-2594 -238,-1786 v 1707 l -119,1151 -119,-992 -185,2514 h -847 l 79,-1165 80,-1865 -159,-1033 -80,1668 -132,2395 h -635 l 172,-847 79,-1350 -119,-1429 -159,-595 -79,397 -199,-517 -317,-317 -318,-238 h -198 l -318,39 z"
   id="path66"
   inkscape:connector-curvature="0"
   style="fill:#333333;stroke:none" />
         <path
   d="m 7428,16195 357,476 238,715 119,1231 -40,833 -238,1403 h 6776 l 53,-2514 -79,-874 -120,-436 v 674 l -79,2263 -238,675 40,-1667 -358,-2065 80,2581 -146,1363 h -423 l -384,-4063 172,4063 h -1059 l -106,-1363 -106,1363 h -1270 l 26,-2594 -238,-1786 v 1707 l -119,1151 -119,-992 -185,2514 h -847 l 79,-1165 80,-1865 -159,-1033 -80,1668 -132,2395 h -635 l 172,-847 79,-1350 -119,-1429 -159,-595 -79,397 -199,-517 -317,-317 -318,-238 h -198 l -318,39 z"
   id="path68"
   inkscape:connector-curvature="0"
   style="fill:none;stroke:#000000;stroke-width:35;stroke-linecap:round;stroke-linejoin:round" />
         <path
   d="m 15408,18312 -27,-344 -53,-198 -110,-97 -150,-5 -93,93 -57,287 4,176 v 212 l -35,167 -71,199 -119,176 -158,137 -212,137 -141,167 -71,256 18,278 26,168 49,110 -36,256 -57,172 13,185 80,194 203,137 286,101 358,93 855,97 243,27 260,-84 89,-168 26,-167 -26,-80 v -84 l 57,-128 53,-83 26,-128 -26,-141 -18,-111 58,-101 83,-110 45,-111 -18,-128 -53,-110 -31,-101 v -93 l 44,-102 31,-110 -31,-154 -128,-128 -137,-71 -194,-53 -211,-26 -128,-31 h -168 l -295,-18 -9,-136 -18,-239 z"
   id="path70"
   inkscape:connector-curvature="0"
   style="fill:#ffc5cf;stroke:none" />
         <path
   d="m 15408,18312 -27,-344 -53,-198 -110,-97 -150,-5 -93,93 -57,287 4,176 v 212 l -35,167 -71,199 -119,176 -158,137 -212,137 -141,167 -71,256 18,278 26,168 49,110 -36,256 -57,172 13,185 80,194 203,137 286,101 358,93 855,97 243,27 260,-84 89,-168 26,-167 -26,-80 v -84 l 57,-128 53,-83 26,-128 -26,-141 -18,-111 58,-101 83,-110 45,-111 -18,-128 -53,-110 -31,-101 v -93 l 44,-102 31,-110 -31,-154 -128,-128 -137,-71 -194,-53 -211,-26 -128,-31 h -168 l -295,-18 -9,-136 -18,-239 z"
   id="path72"
   inkscape:connector-curvature="0"
   style="fill:none;stroke:#000000;stroke-width:35;stroke-linecap:round;stroke-linejoin:round" />
         <path
   d="m 15377,18497 -84,71 h -97"
   id="path74"
   inkscape:connector-curvature="0"
   style="fill:none;stroke:#000000;stroke-width:35;stroke-linecap:round;stroke-linejoin:round" />
         <path
   d="m 16078,19102 -88,84 v 66 l 13,97"
   id="path76"
   inkscape:connector-curvature="0"
   style="fill:none;stroke:#000000;stroke-width:35;stroke-linecap:round;stroke-linejoin:round" />
         <path
   d="m 15592,16016 c 0,159 -26,316 -76,455 -49,138 -120,253 -206,333 -86,80 -183,122 -282,122 -99,0 -196,-42 -282,-122 -86,-80 -157,-195 -206,-333 -50,-139 -76,-296 -76,-455 0,-160 26,-317 76,-456 49,-138 120,-253 206,-333 86,-80 183,-122 282,-122 99,0 196,42 282,122 86,80 157,195 206,333 50,139 76,296 76,456 z"
   id="path78"
   inkscape:connector-curvature="0"
   style="fill:#ad6900;stroke:none" />
         <path
   d="m 15589,16014 -1,-46 -2,-46 -4,-46 -5,-45 -6,-45 -8,-44 -9,-44 -11,-42 -12,-42 -13,-41 -15,-40 -15,-38 -17,-37 -18,-36 -19,-34 -21,-33 -21,-31 -22,-29 -23,-27 -24,-25 -25,-24 -25,-21 -26,-19 -27,-17 -27,-15 -27,-13 -28,-10 -28,-9 -29,-5 -28,-4 -29,-1 v 0 l -29,1 -28,4 -29,5 -28,9 -28,10 -27,13 -27,15 -27,17 -26,19 -25,21 -25,24 -24,25 -23,27 -22,29 -21,31 -21,33 -19,34 -18,36 -17,37 -15,38 -15,40 -13,41 -12,42 -11,42 -9,44 -8,44 -6,45 -5,45 -4,46 -2,46 -1,46 v 0 l 1,46 2,46 4,46 5,45 6,45 8,44 9,44 11,42 12,42 13,41 15,40 15,38 17,37 18,36 19,34 21,33 21,31 22,29 23,27 24,25 25,24 25,21 26,19 27,17 27,15 27,13 28,10 28,9 29,5 28,4 29,1 v 0 l 29,-1 28,-4 29,-5 28,-9 28,-10 27,-13 27,-15 27,-17 26,-19 25,-21 25,-24 24,-25 23,-27 22,-29 21,-31 21,-33 19,-34 18,-36 17,-37 15,-38 15,-40 13,-41 12,-42 11,-42 9,-44 8,-44 6,-45 5,-45 4,-46 2,-46 z"
   id="path80"
   inkscape:connector-curvature="0"
   style="fill:none;stroke:#000000;stroke-width:35;stroke-linecap:round;stroke-linejoin:round" />
         <path
   d="m 15046,15101 1548,18 v 1865 l -1597,-132 z"
   id="path82"
   inkscape:connector-curvature="0"
   style="fill:#ad6900;stroke:none" />
         <path
   d="m 15046,15101 1548,18 v 1865 l -1597,-132"
   id="path84"
   inkscape:connector-curvature="0"
   style="fill:none;stroke:#000000;stroke-width:35;stroke-linecap:round;stroke-linejoin:round" />
         <path
   d="m 17197,16069 c 0,169 -28,336 -81,483 -52,147 -128,269 -220,354 -91,85 -195,130 -301,130 -105,0 -209,-45 -300,-130 -92,-85 -168,-207 -220,-354 -53,-147 -81,-314 -81,-483 0,-170 28,-337 81,-484 52,-147 128,-269 220,-354 91,-85 195,-130 300,-130 106,0 210,45 301,130 92,85 168,207 220,354 53,147 81,314 81,484 z"
   id="path86"
   inkscape:connector-curvature="0"
   style="fill:#ad6900;stroke:none" />
         <path
   d="m 17194,16067 -1,-49 -2,-49 -4,-48 -5,-48 -7,-48 -9,-47 -9,-46 -12,-46 -12,-44 -14,-44 -16,-42 -17,-41 -18,-39 -19,-38 -20,-37 -22,-34 -22,-33 -24,-31 -24,-29 -26,-27 -26,-25 -27,-22 -27,-21 -29,-18 -28,-16 -30,-13 -29,-11 -30,-9 -30,-6 -31,-4 -30,-1 v 0 l -30,1 -31,4 -30,6 -30,9 -29,11 -30,13 -28,16 -29,18 -27,21 -27,22 -26,25 -26,27 -24,29 -24,31 -22,33 -22,34 -20,37 -19,38 -18,39 -17,41 -16,42 -14,44 -12,44 -12,46 -9,46 -9,47 -7,48 -5,48 -4,48 -2,49 -1,49 v 0 l 1,49 2,49 4,48 5,48 7,48 9,47 9,46 12,46 12,44 14,44 16,42 17,41 18,39 19,38 20,37 22,34 22,33 24,31 24,29 26,27 26,25 27,22 27,21 29,18 28,16 30,13 29,11 30,9 30,6 31,4 30,1 v 0 l 30,-1 31,-4 30,-6 30,-9 29,-11 30,-13 28,-16 29,-18 27,-21 27,-22 26,-25 26,-27 24,-29 24,-31 22,-33 22,-34 20,-37 19,-38 18,-39 17,-41 16,-42 14,-44 12,-44 12,-46 9,-46 9,-47 7,-48 5,-48 4,-48 2,-49 z"
   id="path88"
   inkscape:connector-curvature="0"
   style="fill:none;stroke:#000000;stroke-width:35;stroke-linecap:round;stroke-linejoin:round" />
         <path
   d="m 15461,16883 -234,4455 h 485 v -4437 l -101,-67 z"
   id="path90"
   inkscape:connector-curvature="0"
   style="fill:#ad6900;stroke:none" />
         <path
   d="m 15461,16883 -234,4455 h 485 v -4437 l -101,-67 z"
   id="path92"
   inkscape:connector-curvature="0"
   style="fill:none;stroke:#000000;stroke-width:35;stroke-linecap:round;stroke-linejoin:round" />
         <path
   d="m 16202,19186 -534,300 -102,17 -180,-35 -252,-49 -198,-35 -150,35 -128,102 -22,141 53,106 h -137 l -93,97 -13,163 62,124 176,105 -101,80 -31,137 48,154 164,124 -84,70 -5,163 75,115 141,119 128,84 433,150 401,26 z"
   id="path94"
   inkscape:connector-curvature="0"
   style="fill:#ffc5cf;stroke:none" />
         <path
   d="m 16202,19186 -534,300 -102,17 -180,-35 -252,-49 -198,-35 -150,35 -128,102 -22,141 53,106 h -137 l -93,97 -13,163 62,124 176,105 -101,80 -31,137 48,154 164,124 -84,70 -5,163 75,115 141,119 128,84 433,150 401,26"
   id="path96"
   inkscape:connector-curvature="0"
   style="fill:none;stroke:#000000;stroke-width:35;stroke-linecap:round;stroke-linejoin:round" />
         <path
   d="m 16396,19786 -534,220 -150,49 -234,-18 -401,-102"
   id="path98"
   inkscape:connector-curvature="0"
   style="fill:none;stroke:#000000;stroke-width:35;stroke-linecap:round;stroke-linejoin:round" />
         <path
   d="m 16312,20452 -450,119"
   id="path100"
   inkscape:connector-curvature="0"
   style="fill:none;stroke:#000000;stroke-width:35;stroke-linecap:round;stroke-linejoin:round" />
         <path
   d="m 16215,21003 -437,18"
   id="path102"
   inkscape:connector-curvature="0"
   style="fill:none;stroke:#000000;stroke-width:35;stroke-linecap:round;stroke-linejoin:round" />
         <path
   d="m 14777,20752 370,150"
   id="path104"
   inkscape:connector-curvature="0"
   style="fill:none;stroke:#000000;stroke-width:35;stroke-linecap:round;stroke-linejoin:round" />
         <path
   d="m 14680,20253 348,132"
   id="path106"
   inkscape:connector-curvature="0"
   style="fill:none;stroke:#000000;stroke-width:35;stroke-linecap:round;stroke-linejoin:round" />
         <path
   d="m 12677,9115 194,318 -53,242 53,208 84,2946 -163,1553 -80,1636 -3688,-1993 534,-4910 z"
   id="path108"
   inkscape:connector-curvature="0"
   style="fill:#919191;stroke:none" />
         <path
   d="m 11755,14951 97,110 212,247 150,261 225,224 154,137 274,141 -239,221 -2567,-746 132,-855 1289,-159 z"
   id="path110"
   inkscape:connector-curvature="0"
   style="fill:#000000;stroke:none" />
         <path
   d="m 13311,12366 c 0,95 -16,190 -45,273 -30,83 -73,152 -125,200 -51,48 -109,73 -169,73 -60,0 -118,-25 -170,-73 -51,-48 -94,-117 -124,-200 -29,-83 -45,-178 -45,-273 0,-96 16,-191 45,-274 30,-83 73,-152 124,-200 52,-48 110,-73 170,-73 60,0 118,25 169,73 52,48 95,117 125,200 29,83 45,178 45,274 z"
   id="path112"
   inkscape:connector-curvature="0"
   style="fill:#cecece;stroke:none" />
         <path
   d="m 13308,12362 v -28 l -2,-27 -2,-28 -3,-27 -4,-27 -5,-27 -5,-26 -7,-26 -7,-25 -8,-24 -8,-24 -10,-23 -10,-23 -11,-21 -12,-21 -12,-19 -13,-19 -13,-18 -14,-16 -14,-15 -15,-14 -15,-13 -16,-12 -16,-10 -16,-9 -17,-8 -17,-6 -17,-5 -17,-3 -17,-2 -17,-1 v 0 l -17,1 -17,2 -17,3 -17,5 -17,6 -17,8 -16,9 -16,10 -16,12 -15,13 -15,14 -14,15 -14,16 -13,18 -13,19 -12,19 -12,21 -11,21 -10,23 -10,23 -8,24 -8,24 -7,25 -7,26 -5,26 -5,27 -4,27 -3,27 -2,28 -2,27 v 28 0 28 l 2,27 2,28 3,27 4,27 5,27 5,26 7,26 7,25 8,24 8,24 10,23 10,23 11,21 12,21 12,19 13,19 13,18 14,16 14,15 15,14 15,13 16,12 16,10 16,9 17,8 17,6 17,5 17,3 17,2 17,1 v 0 l 17,-1 17,-2 17,-3 17,-5 17,-6 17,-8 16,-9 16,-10 16,-12 15,-13 15,-14 14,-15 14,-16 13,-18 13,-19 12,-19 12,-21 11,-21 10,-23 10,-23 8,-24 8,-24 7,-25 7,-26 5,-26 5,-27 4,-27 3,-27 2,-28 2,-27 z"
   id="path114"
   inkscape:connector-curvature="0"
   style="fill:none;stroke:#000000;stroke-width:35;stroke-linecap:round;stroke-linejoin:round" />
         <path
   d="m 13227,13403 c 0,95 -16,190 -45,273 -30,83 -72,152 -124,200 -51,48 -109,73 -168,73 -59,0 -117,-25 -169,-73 -51,-48 -93,-117 -123,-200 -29,-83 -45,-178 -45,-273 0,-96 16,-191 45,-274 30,-83 72,-152 123,-200 52,-48 110,-73 169,-73 59,0 117,25 168,73 52,48 94,117 124,200 29,83 45,178 45,274 z"
   id="path116"
   inkscape:connector-curvature="0"
   style="fill:#cecece;stroke:none" />
         <path
   d="m 13224,13398 v -28 l -2,-27 -2,-28 -3,-27 -4,-27 -4,-27 -6,-26 -6,-26 -7,-25 -8,-24 -9,-24 -9,-23 -10,-23 -11,-21 -11,-21 -12,-19 -13,-19 -13,-18 -14,-16 -14,-15 -14,-14 -15,-13 -16,-12 -16,-10 -16,-9 -16,-8 -17,-6 -16,-5 -17,-3 -17,-2 -17,-1 v 0 l -17,1 -17,2 -17,3 -16,5 -17,6 -16,8 -16,9 -16,10 -16,12 -15,13 -14,14 -14,15 -14,16 -13,18 -13,19 -12,19 -11,21 -11,21 -10,23 -9,23 -9,24 -8,24 -7,25 -6,26 -6,26 -4,27 -4,27 -3,27 -2,28 -2,27 v 28 0 28 l 2,27 2,28 3,27 4,27 4,27 6,26 6,26 7,25 8,24 9,24 9,23 10,23 11,21 11,21 12,19 13,19 13,18 14,16 14,15 14,14 15,13 16,12 16,10 16,9 16,8 17,6 16,5 17,3 17,2 17,1 v 0 l 17,-1 17,-2 17,-3 16,-5 17,-6 16,-8 16,-9 16,-10 16,-12 15,-13 14,-14 14,-15 14,-16 13,-18 13,-19 12,-19 11,-21 11,-21 10,-23 9,-23 9,-24 8,-24 7,-25 6,-26 6,-26 4,-27 4,-27 3,-27 2,-28 2,-27 z"
   id="path118"
   inkscape:connector-curvature="0"
   style="fill:none;stroke:#000000;stroke-width:35;stroke-linecap:round;stroke-linejoin:round" />
         <path
   d="m 13139,10282 c 0,95 -16,189 -45,272 -30,83 -72,151 -124,199 -51,48 -109,73 -168,73 -59,0 -117,-25 -169,-73 -51,-48 -93,-116 -123,-199 -29,-83 -45,-177 -45,-272 0,-96 16,-190 45,-273 30,-83 72,-151 123,-199 52,-48 110,-73 169,-73 59,0 117,25 168,73 52,48 94,116 124,199 29,83 45,177 45,273 z"
   id="path120"
   inkscape:connector-curvature="0"
   style="fill:#cecece;stroke:none" />
         <path
   d="m 13136,10280 v -28 l -2,-27 -2,-27 -3,-27 -4,-27 -4,-27 -6,-26 -6,-25 -7,-25 -8,-25 -9,-23 -9,-23 -10,-22 -11,-22 -11,-20 -12,-20 -13,-18 -13,-17 -14,-17 -14,-15 -14,-14 -15,-13 -16,-11 -16,-10 -16,-9 -16,-8 -17,-6 -16,-5 -17,-3 -17,-2 -17,-1 v 0 l -17,1 -17,2 -17,3 -16,5 -17,6 -16,8 -16,9 -16,10 -16,11 -15,13 -14,14 -14,15 -14,17 -13,17 -13,18 -12,20 -11,20 -11,22 -10,22 -9,23 -9,23 -8,25 -7,25 -6,25 -6,26 -4,27 -4,27 -3,27 -2,27 -2,27 v 28 0 28 l 2,27 2,27 3,27 4,27 4,27 6,26 6,25 7,25 8,25 9,23 9,23 10,22 11,22 11,20 12,20 13,18 13,17 14,17 14,15 14,14 15,13 16,11 16,10 16,9 16,8 17,6 16,5 17,3 17,2 17,1 v 0 l 17,-1 17,-2 17,-3 16,-5 17,-6 16,-8 16,-9 16,-10 16,-11 15,-13 14,-14 14,-15 14,-17 13,-17 13,-18 12,-20 11,-20 11,-22 10,-22 9,-23 9,-23 8,-25 7,-25 6,-25 6,-26 4,-27 4,-27 3,-27 2,-27 2,-27 z"
   id="path122"
   inkscape:connector-curvature="0"
   style="fill:none;stroke:#000000;stroke-width:35;stroke-linecap:round;stroke-linejoin:round" />
         <path
   d="m 13139,11329 c 0,95 -16,190 -45,273 -30,83 -72,152 -124,200 -51,48 -109,73 -168,73 -59,0 -117,-25 -169,-73 -51,-48 -93,-117 -123,-200 -29,-83 -45,-178 -45,-273 0,-96 16,-191 45,-274 30,-83 72,-152 123,-200 52,-48 110,-73 169,-73 59,0 117,25 168,73 52,48 94,117 124,200 29,83 45,178 45,274 z"
   id="path124"
   inkscape:connector-curvature="0"
   style="fill:#cecece;stroke:none" />
         <path
   d="m 13136,11325 v -28 l -2,-27 -2,-28 -3,-27 -4,-27 -4,-27 -6,-26 -6,-26 -7,-25 -8,-24 -9,-24 -9,-23 -10,-23 -11,-21 -11,-21 -12,-19 -13,-19 -13,-18 -14,-16 -14,-15 -14,-14 -15,-13 -16,-12 -16,-10 -16,-9 -16,-8 -17,-6 -16,-5 -17,-3 -17,-2 -17,-1 v 0 l -17,1 -17,2 -17,3 -16,5 -17,6 -16,8 -16,9 -16,10 -16,12 -15,13 -14,14 -14,15 -14,16 -13,18 -13,19 -12,19 -11,21 -11,21 -10,23 -9,23 -9,24 -8,24 -7,25 -6,26 -6,26 -4,27 -4,27 -3,27 -2,28 -2,27 v 28 0 28 l 2,27 2,28 3,27 4,27 4,27 6,26 6,26 7,25 8,24 9,24 9,23 10,23 11,21 11,21 12,19 13,19 13,18 14,16 14,15 14,14 15,13 16,12 16,10 16,9 16,8 17,6 16,5 17,3 17,2 17,1 v 0 l 17,-1 17,-2 17,-3 16,-5 17,-6 16,-8 16,-9 16,-10 16,-12 15,-13 14,-14 14,-15 14,-16 13,-18 13,-19 12,-19 11,-21 11,-21 10,-23 9,-23 9,-24 8,-24 7,-25 6,-26 6,-26 4,-27 4,-27 3,-27 2,-28 2,-27 z"
   id="path126"
   inkscape:connector-curvature="0"
   style="fill:none;stroke:#000000;stroke-width:35;stroke-linecap:round;stroke-linejoin:round" />
         <path
   d="m 13068,15463 c 0,95 -16,190 -45,273 -30,83 -73,152 -125,200 -51,48 -109,73 -169,73 -60,0 -118,-25 -170,-73 -51,-48 -94,-117 -124,-200 -29,-83 -45,-178 -45,-273 0,-96 16,-191 45,-274 30,-83 73,-152 124,-200 52,-48 110,-73 170,-73 60,0 118,25 169,73 52,48 95,117 125,200 29,83 45,178 45,274 z"
   id="path128"
   inkscape:connector-curvature="0"
   style="fill:#cecece;stroke:none" />
         <path
   d="m 13066,15458 v -28 l -2,-27 -2,-28 -3,-27 -4,-27 -5,-27 -5,-26 -7,-26 -7,-25 -8,-24 -8,-24 -10,-23 -10,-23 -11,-21 -12,-21 -12,-19 -13,-19 -13,-18 -14,-16 -14,-15 -15,-14 -15,-13 -16,-12 -16,-10 -16,-9 -17,-8 -17,-6 -17,-5 -17,-3 -17,-2 -17,-1 v 0 l -17,1 -17,2 -17,3 -17,5 -17,6 -17,8 -16,9 -16,10 -16,12 -15,13 -15,14 -14,15 -14,16 -13,18 -13,19 -12,19 -12,21 -11,21 -10,23 -10,23 -8,24 -8,24 -7,25 -7,26 -5,26 -5,27 -4,27 -3,27 -2,28 -2,27 v 28 0 28 l 2,27 2,28 3,27 4,27 5,27 5,26 7,26 7,25 8,24 8,24 10,23 10,23 11,21 12,21 12,19 13,19 13,18 14,16 14,15 15,14 15,13 16,12 16,10 16,9 17,8 17,6 17,5 17,3 17,2 17,1 v 0 l 17,-1 17,-2 17,-3 17,-5 17,-6 17,-8 16,-9 16,-10 16,-12 15,-13 15,-14 14,-15 14,-16 13,-18 13,-19 12,-19 12,-21 11,-21 10,-23 10,-23 8,-24 8,-24 7,-25 7,-26 5,-26 5,-27 4,-27 3,-27 2,-28 2,-27 z"
   id="path130"
   inkscape:connector-curvature="0"
   style="fill:none;stroke:#000000;stroke-width:35;stroke-linecap:round;stroke-linejoin:round" />
         <path
   d="m 13068,14417 c 0,95 -16,190 -45,273 -30,83 -73,152 -125,200 -51,48 -109,73 -169,73 -60,0 -118,-25 -170,-73 -51,-48 -94,-117 -124,-200 -29,-83 -45,-178 -45,-273 0,-96 16,-191 45,-274 30,-83 73,-152 124,-200 52,-48 110,-73 170,-73 60,0 118,25 169,73 52,48 95,117 125,200 29,83 45,178 45,274 z"
   id="path132"
   inkscape:connector-curvature="0"
   style="fill:#cecece;stroke:none" />
         <path
   d="m 13066,14413 v -28 l -2,-27 -2,-28 -3,-27 -4,-27 -5,-27 -5,-26 -7,-26 -7,-25 -8,-24 -8,-24 -10,-23 -10,-23 -11,-21 -12,-21 -12,-19 -13,-19 -13,-18 -14,-16 -14,-15 -15,-14 -15,-13 -16,-12 -16,-10 -16,-9 -17,-8 -17,-6 -17,-5 -17,-3 -17,-2 -17,-1 v 0 l -17,1 -17,2 -17,3 -17,5 -17,6 -17,8 -16,9 -16,10 -16,12 -15,13 -15,14 -14,15 -14,16 -13,18 -13,19 -12,19 -12,21 -11,21 -10,23 -10,23 -8,24 -8,24 -7,25 -7,26 -5,26 -5,27 -4,27 -3,27 -2,28 -2,27 v 28 0 28 l 2,27 2,28 3,27 4,27 5,27 5,26 7,26 7,25 8,24 8,24 10,23 10,23 11,21 12,21 12,19 13,19 13,18 14,16 14,15 15,14 15,13 16,12 16,10 16,9 17,8 17,6 17,5 17,3 17,2 17,1 v 0 l 17,-1 17,-2 17,-3 17,-5 17,-6 17,-8 16,-9 16,-10 16,-12 15,-13 15,-14 14,-15 14,-16 13,-18 13,-19 12,-19 12,-21 11,-21 10,-23 10,-23 8,-24 8,-24 7,-25 7,-26 5,-26 5,-27 4,-27 3,-27 2,-28 2,-27 z"
   id="path134"
   inkscape:connector-curvature="0"
   style="fill:none;stroke:#000000;stroke-width:35;stroke-linecap:round;stroke-linejoin:round" />
         <path
   d="m 11808,14250 -66,450 -150,83 -335,67 h -300 -314 l -383,-67 -371,-150 -763,-533 -35,-1584 2735,401 z"
   id="path136"
   inkscape:connector-curvature="0"
   style="fill:#ffc5cf;stroke:none" />
         <path
   d="m 11808,14250 -66,450 -150,83 -335,67 h -300 -314 l -383,-67 -371,-150 -763,-533 -35,-1584 2735,401 z"
   id="path138"
   inkscape:connector-curvature="0"
   style="fill:none;stroke:#000000;stroke-width:35;stroke-linecap:round;stroke-linejoin:round" />
         <path
   d="m 12359,9344 168,653 49,366 48,367 35,683 v 318 l 168,234 66,132 49,203 17,229 -48,168 -102,137 -83,31 -31,317 -53,265 -66,167 -67,119 -101,98 -49,17 36,150 -53,150 -66,132 -133,120 -150,83 -167,31 -318,36 -432,-36 -168,-66 -115,-97 -66,-168 v -101 l -348,-31 -287,-53 -234,-84 -150,-97 -300,-286 -414,-349 83,-3886 2797,-468 z"
   id="path140"
   inkscape:connector-curvature="0"
   style="fill:#ffc5cf;stroke:none" />
         <path
   d="m 12359,9344 168,653 49,366 48,367 35,683 v 318 l 168,234 66,132 49,203 17,229 -48,168 -102,137 -83,31 -31,317 -53,265 -66,167 -67,119 -101,98 -49,17 36,150 -53,150 -66,132 -133,120 -150,83 -167,31 -318,36 -432,-36 -168,-66 -115,-97 -66,-168 v -101 l -348,-31 -287,-53 -234,-84 -150,-97 -300,-286 -414,-349 83,-3886 2797,-468 z"
   id="path142"
   inkscape:connector-curvature="0"
   style="fill:none;stroke:#000000;stroke-width:35;stroke-linecap:round;stroke-linejoin:round" />
         <path
   d="m 10224,12931 -198,-18 -203,-84 -150,-132 -49,216 133,71 132,48 71,-18"
   id="path144"
   inkscape:connector-curvature="0"
   style="fill:none;stroke:#000000;stroke-width:35;stroke-linecap:round;stroke-linejoin:round" />
         <path
   d="m 11330,11294 c 0,80 -11,159 -31,229 -20,69 -49,127 -85,168 -35,40 -74,61 -115,61 -41,0 -80,-21 -116,-61 -35,-41 -64,-99 -84,-168 -20,-70 -31,-149 -31,-229 0,-81 11,-160 31,-230 20,-69 49,-127 84,-168 36,-40 75,-61 116,-61 41,0 80,21 115,61 36,41 65,99 85,168 20,70 31,149 31,230 z"
   id="path146"
   inkscape:connector-curvature="0"
   style="fill:#000000;stroke:none" />
         <path
   d="m 12517,11268 c 0,80 -11,159 -31,229 -20,69 -49,127 -85,168 -35,40 -74,61 -115,61 -41,0 -80,-21 -116,-61 -35,-41 -64,-99 -84,-168 -20,-70 -31,-149 -31,-229 0,-81 11,-160 31,-230 20,-69 49,-127 84,-168 36,-40 75,-61 116,-61 41,0 80,21 115,61 36,41 65,99 85,168 20,70 31,149 31,230 z"
   id="path148"
   inkscape:connector-curvature="0"
   style="fill:#000000;stroke:none" />
         <path
   d="m 11291,11296 c 0,67 -9,134 -26,192 -17,59 -41,108 -71,141 -29,34 -63,52 -97,52 -33,0 -67,-18 -96,-52 -30,-33 -54,-82 -71,-141 -17,-58 -26,-125 -26,-192 0,-68 9,-135 26,-193 17,-59 41,-108 71,-141 29,-34 63,-52 96,-52 34,0 68,18 97,52 30,33 54,82 71,141 17,58 26,125 26,193 z"
   id="path150"
   inkscape:connector-curvature="0"
   style="fill:#ffffff;stroke:none" />
         <path
   d="m 12478,11268 c 0,68 -9,134 -26,193 -17,59 -42,108 -72,142 -30,34 -64,52 -98,52 -34,0 -68,-18 -98,-52 -30,-34 -55,-83 -72,-142 -17,-59 -26,-125 -26,-193 0,-69 9,-135 26,-194 17,-59 42,-108 72,-142 30,-34 64,-52 98,-52 34,0 68,18 98,52 30,34 55,83 72,142 17,59 26,125 26,194 z"
   id="path152"
   inkscape:connector-curvature="0"
   style="fill:#ffffff;stroke:none" />
         <path
   d="m 11234,11293 c 0,46 -6,92 -18,132 -12,40 -29,73 -50,97 -21,23 -45,35 -69,35 -23,0 -47,-12 -68,-35 -21,-24 -38,-57 -50,-97 -12,-40 -18,-86 -18,-132 0,-46 6,-92 18,-132 12,-40 29,-73 50,-97 21,-23 45,-35 68,-35 24,0 48,12 69,35 21,24 38,57 50,97 12,40 18,86 18,132 z"
   id="path154"
   inkscape:connector-curvature="0"
   style="fill:#000000;stroke:none" />
         <path
   d="m 12416,11267 c 0,46 -6,92 -18,132 -12,40 -29,73 -50,97 -21,23 -45,35 -69,35 -23,0 -47,-12 -68,-35 -21,-24 -38,-57 -50,-97 -12,-40 -18,-86 -18,-132 0,-46 6,-92 18,-132 12,-40 29,-73 50,-97 21,-23 45,-35 68,-35 24,0 48,12 69,35 21,24 38,57 50,97 12,40 18,86 18,132 z"
   id="path156"
   inkscape:connector-curvature="0"
   style="fill:#000000;stroke:none" />
         <path
   d="m 11729,11091 v 133 l 44,202 92,261"
   id="path158"
   inkscape:connector-curvature="0"
   style="fill:none;stroke:#000000;stroke-width:35;stroke-linecap:round;stroke-linejoin:round" />
         <path
   d="m 11645,11740 132,-36 h 93 l 141,18 101,84 53,62 27,70 v 106 l -49,88 -75,44 -132,36 -181,-14 -172,-30 -110,-62 -155,-62 -66,4 -13,45 35,30 133,9"
   id="path160"
   inkscape:connector-curvature="0"
   style="fill:none;stroke:#000000;stroke-width:35;stroke-linecap:round;stroke-linejoin:round" />
         <path
   d="m 12355,13906 -35,-84 -115,-58"
   id="path162"
   inkscape:connector-curvature="0"
   style="fill:none;stroke:#000000;stroke-width:35;stroke-linecap:round;stroke-linejoin:round" />
         <path
   d="m 11843,14391 -35,-22 -71,70 -61,84 -44,9"
   id="path164"
   inkscape:connector-curvature="0"
   style="fill:none;stroke:#000000;stroke-width:35;stroke-linecap:round;stroke-linejoin:round" />
         <path
   d="m 10987,12220 -88,62 -62,102 -44,88 -22,115 -22,141 9,123"
   id="path166"
   inkscape:connector-curvature="0"
   style="fill:none;stroke:#000000;stroke-width:35;stroke-linecap:round;stroke-linejoin:round" />
         <path
   d="m 12395,12181 48,66 35,106 14,110 -14,115 -22,88 -17,57"
   id="path168"
   inkscape:connector-curvature="0"
   style="fill:none;stroke:#000000;stroke-width:35;stroke-linecap:round;stroke-linejoin:round" />
         <path
   d="m 12337,12825 -26,53 -40,13 -97,26 -119,-8 -128,-9 h -84 l -132,26 -137,36 -198,22 h -115 l -168,-5 -83,-35 -40,-35"
   id="path170"
   inkscape:connector-curvature="0"
   style="fill:none;stroke:#000000;stroke-width:35;stroke-linecap:round;stroke-linejoin:round" />
         <path
   d="m 12276,13037 17,79 -4,53 -44,53 -102,44 -57,-13 -225,26 -150,22 -102,31 -132,4 -123,-39 -168,-110 -49,-67"
   id="path172"
   inkscape:connector-curvature="0"
   style="fill:none;stroke:#000000;stroke-width:35;stroke-linecap:round;stroke-linejoin:round" />
         <path
   d="m 11437,10827 -30,-106 -31,-22 -93,-14 -194,22 -150,18 -216,75 -80,40 v 48 l 106,14 172,-22 h 203 l 128,-18 h 132 z"
   id="path174"
   inkscape:connector-curvature="0"
   style="fill:#000000;stroke:none" />
         <path
   d="m 11976,10853 22,-88 31,-13 75,-14 154,18 123,18 177,57 66,35 v 40 l -84,9 -145,-18 h -164 l -105,-13 h -106 z"
   id="path176"
   inkscape:connector-curvature="0"
   style="fill:#000000;stroke:none" />
         <path
   d="m 11742,14686 35,481 -66,102 -234,150 -384,66 -251,17 -384,-48 -247,-35 -437,-133 -397,-234 -61,-820 375,269 291,159 317,106 424,79 h 476 l 358,-79 167,-168 z"
   id="path178"
   inkscape:connector-curvature="0"
   style="fill:#ffffff;stroke:none" />
         <path
   d="m 11742,14686 35,481 -66,102 -234,150 -384,66 -251,17 -384,-48 -247,-35 -437,-133 -397,-234 -61,-820 375,269 291,159 317,106 424,79 h 476 l 358,-79 167,-168 z"
   id="path180"
   inkscape:connector-curvature="0"
   style="fill:none;stroke:#000000;stroke-width:35;stroke-linecap:round;stroke-linejoin:round" />
         <path
   d="m 11516,11561 c 0,50 -23,99 -66,142 -44,43 -107,79 -182,104 -75,25 -161,38 -248,38 -87,0 -173,-13 -248,-38 -75,-25 -138,-61 -182,-104 -43,-43 -66,-92 -66,-142 0,-50 23,-99 66,-142 44,-43 107,-79 182,-104 75,-25 161,-38 248,-38 87,0 173,13 248,38 75,25 138,61 182,104 43,43 66,92 66,142 z"
   id="path182"
   inkscape:connector-curvature="0"
   style="fill:#c1ceff;stroke:none" />
         <path
   d="m 11512,11559 -1,-14 -2,-15 -3,-14 -4,-14 -6,-14 -7,-13 -8,-14 -9,-13 -10,-13 -12,-13 -13,-12 -14,-12 -14,-12 -16,-11 -17,-10 -18,-10 -18,-10 -20,-9 -20,-8 -21,-8 -21,-8 -22,-6 -23,-6 -23,-5 -24,-5 -24,-4 -25,-3 -24,-3 -25,-2 -25,-1 h -25 v 0 h -25 l -25,1 -25,2 -24,3 -25,3 -24,4 -24,5 -23,5 -23,6 -22,6 -21,8 -21,8 -20,8 -20,9 -18,10 -18,10 -17,10 -16,11 -14,12 -14,12 -13,12 -12,13 -10,13 -9,13 -8,14 -7,13 -6,14 -4,14 -3,14 -2,15 -1,14 v 0 l 1,14 2,15 3,14 4,14 6,14 7,13 8,14 9,13 10,13 12,13 13,12 14,12 14,12 16,11 17,10 18,10 18,10 20,9 20,8 21,8 21,8 22,6 23,6 23,5 24,5 24,4 25,3 24,3 25,2 25,1 h 25 v 0 h 25 l 25,-1 25,-2 24,-3 25,-3 24,-4 24,-5 23,-5 23,-6 22,-6 21,-8 21,-8 20,-8 20,-9 18,-10 18,-10 17,-10 16,-11 14,-12 14,-12 13,-12 12,-13 10,-13 9,-13 8,-14 7,-13 6,-14 4,-14 3,-14 2,-15 z"
   id="path184"
   inkscape:connector-curvature="0"
   style="fill:none;stroke:#000000;stroke-width:35;stroke-linecap:round;stroke-linejoin:round" />
         <path
   d="m 12840,11525 c 0,50 -23,99 -66,142 -44,43 -107,79 -182,104 -75,25 -161,38 -248,38 -87,0 -173,-13 -248,-38 -75,-25 -138,-61 -182,-104 -43,-43 -66,-92 -66,-142 0,-50 23,-99 66,-142 44,-43 107,-79 182,-104 75,-25 161,-38 248,-38 87,0 173,13 248,38 75,25 138,61 182,104 43,43 66,92 66,142 z"
   id="path186"
   inkscape:connector-curvature="0"
   style="fill:#c1ceff;stroke:none" />
         <path
   d="m 12836,11524 -1,-14 -2,-15 -3,-14 -4,-14 -6,-14 -7,-13 -8,-14 -9,-13 -10,-13 -12,-13 -13,-12 -14,-12 -14,-12 -16,-11 -17,-10 -18,-10 -18,-10 -20,-9 -20,-8 -21,-8 -21,-8 -22,-6 -23,-6 -23,-5 -24,-5 -24,-4 -25,-3 -24,-3 -25,-2 -25,-1 h -25 v 0 h -25 l -25,1 -25,2 -24,3 -25,3 -24,4 -24,5 -23,5 -23,6 -22,6 -21,8 -21,8 -20,8 -20,9 -18,10 -18,10 -17,10 -16,11 -14,12 -14,12 -13,12 -12,13 -10,13 -9,13 -8,14 -7,13 -6,14 -4,14 -3,14 -2,15 -1,14 v 0 l 1,14 2,15 3,14 4,14 6,14 7,13 8,14 9,13 10,13 12,13 13,12 14,12 14,12 16,11 17,10 18,10 18,10 20,9 20,8 21,8 21,8 22,6 23,6 23,5 24,5 24,4 25,3 24,3 25,2 25,1 h 25 v 0 h 25 l 25,-1 25,-2 24,-3 25,-3 24,-4 24,-5 23,-5 23,-6 22,-6 21,-8 21,-8 20,-8 20,-9 18,-10 18,-10 17,-10 16,-11 14,-12 14,-12 13,-12 12,-13 10,-13 9,-13 8,-14 7,-13 6,-14 4,-14 3,-14 2,-15 z"
   id="path188"
   inkscape:connector-curvature="0"
   style="fill:none;stroke:#000000;stroke-width:35;stroke-linecap:round;stroke-linejoin:round" />
        </g>
        <defs
   id="defs195">
         <clipPath
   id="clip_path_2"
   clipPathUnits="userSpaceOnUse">
          <path
   d="m 9699,10827 h 855 v 1146 h -855 z"
   id="path192"
   inkscape:connector-curvature="0" />
         </clipPath>
        </defs>
        <g
   clip-path="url(#clip_path_2)"
   id="g199">
         <path
   d="M 11340,11832 8879,10932"
   id="path197"
   inkscape:connector-curvature="0"
   style="fill:none;stroke:#000000;stroke-width:35;stroke-linecap:round;stroke-linejoin:miter" />
        </g>
        <g
   clip-path="url(#clip_path_1)"
   id="g287">
         <path
   d="m 11861,11576 -80,-66 -92,-17 -124,17 -75,44 -35,40"
   id="path201"
   inkscape:connector-curvature="0"
   style="fill:none;stroke:#000000;stroke-width:35;stroke-linecap:round;stroke-linejoin:round" />
         <path
   d="m 9708,10465 35,-234 181,-282 203,-252 313,-203 318,-132 300,-18 318,-30 h 300 l 269,83 181,49 150,84 119,132 132,287 150,-618 18,-66 -18,-119 -66,-150 h -49 l -17,-150 -18,-101 -49,-133 -83,-84 -84,-13 -168,-17 -132,-120 -252,-114 -167,-36 -216,-13 -102,66 -66,-83 -150,-18 h -150 -168 l -114,35 -216,-17 -203,30 -133,36 -198,101 -35,66 -49,-53 -168,18 -150,35 -216,133 -101,101 h -181 l -221,150 -114,115 -168,185 -84,115 v 101 l -31,133 -35,185 18,48 251,966 715,300 z"
   id="path203"
   inkscape:connector-curvature="0"
   style="fill:#cecece;stroke:none" />
         <path
   d="m 9708,10465 35,-234 181,-282 203,-252 313,-203 318,-132 300,-18 318,-30 h 300 l 269,83 181,49 150,84 119,132 132,287 150,-618 18,-66 -18,-119 -66,-150 h -49 l -17,-150 -18,-101 -49,-133 -83,-84 -84,-13 -168,-17 -132,-120 -252,-114 -167,-36 -216,-13 -102,66 -66,-83 -150,-18 h -150 -168 l -114,35 -216,-17 -203,30 -133,36 -198,101 -35,66 -49,-53 -168,18 -150,35 -216,133 -101,101 h -181 l -221,150 -114,115 -168,185 -84,115 v 101 l -31,133 -35,185 18,48 251,966 715,300 z"
   id="path205"
   inkscape:connector-curvature="0"
   style="fill:none;stroke:#000000;stroke-width:35;stroke-linecap:round;stroke-linejoin:round" />
         <path
   d="m 12651,9159 224,335 -66,181 v 150 l -269,208 5,-89 -36,-101 z"
   id="path207"
   inkscape:connector-curvature="0"
   style="fill:#cecece;stroke:none" />
         <path
   d="m 12695,9199 145,265 -66,202 4,80"
   id="path209"
   inkscape:connector-curvature="0"
   style="fill:none;stroke:#000000;stroke-width:35;stroke-linecap:round;stroke-linejoin:round" />
         <path
   d="m 12770,9755 -84,26 -58,49 -39,57 -62,115"
   id="path211"
   inkscape:connector-curvature="0"
   style="fill:none;stroke:#000000;stroke-width:35;stroke-linecap:round;stroke-linejoin:round" />
         <path
   d="m 11689,9314 119,-84 66,-128 5,-181 -71,-190 -79,-66"
   id="path213"
   inkscape:connector-curvature="0"
   style="fill:none;stroke:#000000;stroke-width:35;stroke-linecap:round;stroke-linejoin:round" />
         <path
   d="m 12456,9768 89,18 83,-40 49,-110"
   id="path215"
   inkscape:connector-curvature="0"
   style="fill:none;stroke:#000000;stroke-width:35;stroke-linecap:round;stroke-linejoin:round" />
         <path
   d="m 12337,9596 106,-18 49,-66 17,-75"
   id="path217"
   inkscape:connector-curvature="0"
   style="fill:none;stroke:#000000;stroke-width:35;stroke-linecap:round;stroke-linejoin:round" />
         <path
   d="m 11089,9362 119,-93 66,-132 v -150 l -40,-106"
   id="path219"
   inkscape:connector-curvature="0"
   style="fill:none;stroke:#000000;stroke-width:35;stroke-linecap:round;stroke-linejoin:round" />
         <path
   d="m 10837,9349 67,-44 57,-66 26,-120 v -149 l -26,-150 -84,-124 h -40 l 23,-75 -49,-84 -106,-84"
   id="path221"
   inkscape:connector-curvature="0"
   style="fill:none;stroke:#000000;stroke-width:35;stroke-linecap:round;stroke-linejoin:round" />
         <path
   d="m 12112,9433 146,-18 97,-48 75,-111 26,-141 -26,-150 -40,-79"
   id="path223"
   inkscape:connector-curvature="0"
   style="fill:none;stroke:#000000;stroke-width:35;stroke-linecap:round;stroke-linejoin:round" />
         <path
   d="m 9166,8670 167,17 97,66"
   id="path225"
   inkscape:connector-curvature="0"
   style="fill:none;stroke:#000000;stroke-width:35;stroke-linecap:round;stroke-linejoin:round" />
         <path
   d="m 9858,8436 h 97 l 106,66"
   id="path227"
   inkscape:connector-curvature="0"
   style="fill:none;stroke:#000000;stroke-width:35;stroke-linecap:round;stroke-linejoin:round" />
         <path
   d="M 9514,10346 8341,9733"
   id="path229"
   inkscape:connector-curvature="0"
   style="fill:none;stroke:#000000;stroke-width:35;stroke-linecap:round;stroke-linejoin:round" />
         <path
   d="m 9726,10288 -44,-150 -141,-136"
   id="path231"
   inkscape:connector-curvature="0"
   style="fill:none;stroke:#000000;stroke-width:35;stroke-linecap:round;stroke-linejoin:round" />
         <path
   d="m 9854,10099 17,-146 -79,-132 -229,-159"
   id="path233"
   inkscape:connector-curvature="0"
   style="fill:none;stroke:#000000;stroke-width:35;stroke-linecap:round;stroke-linejoin:round" />
         <path
   d="m 10123,9702 17,-102 -66,-154 -114,-84 -84,-48 h -49 l -17,-62 -40,-40"
   id="path235"
   inkscape:connector-curvature="0"
   style="fill:none;stroke:#000000;stroke-width:35;stroke-linecap:round;stroke-linejoin:round" />
         <path
   d="m 10502,9468 40,-106 13,-110 -48,-97"
   id="path237"
   inkscape:connector-curvature="0"
   style="fill:none;stroke:#000000;stroke-width:35;stroke-linecap:round;stroke-linejoin:round" />
         <path
   d="m 8332,9569 62,-66 136,13 62,36"
   id="path239"
   inkscape:connector-curvature="0"
   style="fill:none;stroke:#000000;stroke-width:35;stroke-linecap:round;stroke-linejoin:round" />
         <path
   d="m 8243,12256 c 0,95 -15,190 -45,273 -29,83 -72,152 -123,200 -50,48 -108,73 -167,73 -59,0 -117,-25 -168,-73 -50,-48 -93,-117 -122,-200 -30,-83 -45,-178 -45,-273 0,-96 15,-191 45,-274 29,-83 72,-152 122,-200 51,-48 109,-73 168,-73 59,0 117,25 167,73 51,48 94,117 123,200 30,83 45,178 45,274 z"
   id="path241"
   inkscape:connector-curvature="0"
   style="fill:#cecece;stroke:none" />
         <path
   d="m 8239,12251 v -28 l -2,-27 -2,-28 -3,-27 -4,-27 -4,-27 -6,-26 -6,-26 -7,-25 -8,-24 -9,-24 -9,-23 -10,-23 -11,-21 -11,-21 -12,-19 -13,-19 -13,-18 -14,-16 -14,-15 -14,-14 -15,-13 -16,-12 -16,-10 -16,-9 -16,-8 -17,-6 -16,-5 -17,-3 -17,-2 -17,-1 v 0 l -17,1 -17,2 -17,3 -16,5 -17,6 -16,8 -16,9 -16,10 -16,12 -15,13 -14,14 -14,15 -14,16 -13,18 -13,19 -12,19 -11,21 -11,21 -10,23 -9,23 -9,24 -8,24 -7,25 -6,26 -6,26 -4,27 -4,27 -3,27 -2,28 -2,27 v 28 0 28 l 2,27 2,28 3,27 4,27 4,27 6,26 6,26 7,25 8,24 9,24 9,23 10,23 11,21 11,21 12,19 13,19 13,18 14,16 14,15 14,14 15,13 16,12 16,10 16,9 16,8 17,6 16,5 17,3 17,2 17,1 v 0 l 17,-1 17,-2 17,-3 16,-5 17,-6 16,-8 16,-9 16,-10 16,-12 15,-13 14,-14 14,-15 14,-16 13,-18 13,-19 12,-19 11,-21 11,-21 10,-23 9,-23 9,-24 8,-24 7,-25 6,-26 6,-26 4,-27 4,-27 3,-27 2,-28 2,-27 z"
   id="path243"
   inkscape:connector-curvature="0"
   style="fill:none;stroke:#000000;stroke-width:35;stroke-linecap:round;stroke-linejoin:round" />
         <path
   d="m 8367,14274 c 0,95 -15,189 -45,272 -29,83 -72,151 -122,199 -51,48 -109,73 -168,73 -59,0 -117,-25 -168,-73 -50,-48 -93,-116 -122,-199 -30,-83 -45,-177 -45,-272 0,-96 15,-190 45,-273 29,-83 72,-151 122,-199 51,-48 109,-73 168,-73 59,0 117,25 168,73 50,48 93,116 122,199 30,83 45,177 45,273 z"
   id="path245"
   inkscape:connector-curvature="0"
   style="fill:#cecece;stroke:none" />
         <path
   d="m 8362,14272 v -28 l -2,-27 -2,-27 -3,-27 -4,-27 -4,-27 -6,-26 -6,-25 -7,-25 -8,-25 -9,-23 -9,-23 -10,-22 -11,-22 -11,-20 -12,-20 -13,-18 -13,-17 -14,-17 -14,-15 -14,-14 -15,-13 -16,-11 -16,-10 -16,-9 -16,-8 -17,-6 -16,-5 -17,-3 -17,-2 -17,-1 v 0 l -17,1 -17,2 -17,3 -16,5 -17,6 -16,8 -16,9 -16,10 -16,11 -15,13 -14,14 -14,15 -14,17 -13,17 -13,18 -12,20 -11,20 -11,22 -10,22 -9,23 -9,23 -8,25 -7,25 -6,25 -6,26 -4,27 -4,27 -3,27 -2,27 -2,27 v 28 0 28 l 2,27 2,27 3,27 4,27 4,27 6,26 6,25 7,25 8,25 9,23 9,23 10,22 11,22 11,20 12,20 13,18 13,17 14,17 14,15 14,14 15,13 16,11 16,10 16,9 16,8 17,6 16,5 17,3 17,2 17,1 v 0 l 17,-1 17,-2 17,-3 16,-5 17,-6 16,-8 16,-9 16,-10 16,-11 15,-13 14,-14 14,-15 14,-17 13,-17 13,-18 12,-20 11,-20 11,-22 10,-22 9,-23 9,-23 8,-25 7,-25 6,-25 6,-26 4,-27 4,-27 3,-27 2,-27 2,-27 z"
   id="path247"
   inkscape:connector-curvature="0"
   style="fill:none;stroke:#000000;stroke-width:35;stroke-linecap:round;stroke-linejoin:round" />
         <path
   d="m 8291,13321 c 0,96 -15,190 -45,274 -29,83 -71,152 -121,201 -51,48 -108,73 -167,73 -58,0 -115,-25 -166,-73 -50,-49 -92,-118 -121,-201 -30,-84 -45,-178 -45,-274 0,-97 15,-191 45,-275 29,-83 71,-152 121,-201 51,-48 108,-73 166,-73 59,0 116,25 167,73 50,49 92,118 121,201 30,84 45,178 45,275 z"
   id="path249"
   inkscape:connector-curvature="0"
   style="fill:#cecece;stroke:none" />
         <path
   d="m 8288,13319 v -28 l -2,-27 -2,-28 -3,-27 -4,-27 -4,-27 -6,-26 -6,-26 -7,-25 -8,-24 -8,-24 -9,-23 -10,-23 -11,-21 -11,-21 -12,-19 -12,-19 -13,-18 -14,-16 -14,-15 -14,-14 -15,-13 -15,-12 -16,-10 -16,-9 -16,-8 -16,-6 -17,-5 -17,-3 -16,-2 -17,-1 v 0 l -17,1 -16,2 -17,3 -17,5 -16,6 -16,8 -16,9 -16,10 -15,12 -15,13 -14,14 -14,15 -14,16 -13,18 -12,19 -12,19 -11,21 -11,21 -10,23 -9,23 -8,24 -8,24 -7,25 -6,26 -6,26 -4,27 -4,27 -3,27 -2,28 -2,27 v 28 0 28 l 2,27 2,28 3,27 4,27 4,27 6,26 6,26 7,25 8,24 8,24 9,23 10,23 11,21 11,21 12,19 12,19 13,18 14,16 14,15 14,14 15,13 15,12 16,10 16,9 16,8 16,6 17,5 17,3 16,2 17,1 v 0 l 17,-1 16,-2 17,-3 17,-5 16,-6 16,-8 16,-9 16,-10 15,-12 15,-13 14,-14 14,-15 14,-16 13,-18 12,-19 12,-19 11,-21 11,-21 10,-23 9,-23 8,-24 8,-24 7,-25 6,-26 6,-26 4,-27 4,-27 3,-27 2,-28 2,-27 z"
   id="path251"
   inkscape:connector-curvature="0"
   style="fill:none;stroke:#000000;stroke-width:35;stroke-linecap:round;stroke-linejoin:round" />
         <path
   d="m 8657,10251 c 0,96 -15,190 -45,274 -29,83 -71,152 -121,201 -51,48 -108,73 -166,73 -59,0 -116,-25 -167,-73 -50,-49 -92,-118 -121,-201 -30,-84 -45,-178 -45,-274 0,-97 15,-191 45,-275 29,-83 71,-152 121,-201 51,-48 108,-73 167,-73 58,0 115,25 166,73 50,49 92,118 121,201 30,84 45,178 45,275 z"
   id="path253"
   inkscape:connector-curvature="0"
   style="fill:#cecece;stroke:none" />
         <path
   d="m 8654,10249 v -28 l -2,-27 -2,-28 -3,-27 -4,-27 -4,-27 -6,-26 -6,-26 -7,-25 -8,-24 -8,-24 -9,-23 -10,-23 -11,-21 -11,-21 -12,-19 -12,-19 -13,-18 -14,-16 -14,-15 -14,-14 -15,-13 -15,-12 -16,-10 -16,-9 -16,-8 -16,-6 -17,-5 -17,-3 -16,-2 -17,-1 v 0 l -17,1 -16,2 -17,3 -17,5 -16,6 -16,8 -16,9 -16,10 -15,12 -15,13 -14,14 -14,15 -14,16 -13,18 -12,19 -12,19 -11,21 -11,21 -10,23 -9,23 -8,24 -8,24 -7,25 -6,26 -6,26 -4,27 -4,27 -3,27 -2,28 -2,27 v 28 0 28 l 2,27 2,28 3,27 4,27 4,27 6,26 6,26 7,25 8,24 8,24 9,23 10,23 11,21 11,21 12,19 12,19 13,18 14,16 14,15 14,14 15,13 15,12 16,10 16,9 16,8 16,6 17,5 17,3 16,2 17,1 v 0 l 17,-1 16,-2 17,-3 17,-5 16,-6 16,-8 16,-9 16,-10 15,-12 15,-13 14,-14 14,-15 14,-16 13,-18 12,-19 12,-19 11,-21 11,-21 10,-23 9,-23 8,-24 8,-24 7,-25 6,-26 6,-26 4,-27 4,-27 3,-27 2,-28 2,-27 z"
   id="path255"
   inkscape:connector-curvature="0"
   style="fill:none;stroke:#000000;stroke-width:35;stroke-linecap:round;stroke-linejoin:round" />
         <path
   d="m 8441,11266 c 0,95 -15,189 -45,272 -29,83 -71,151 -121,199 -51,48 -108,73 -167,73 -58,0 -115,-25 -166,-73 -50,-48 -92,-116 -121,-199 -30,-83 -45,-177 -45,-272 0,-96 15,-190 45,-273 29,-83 71,-151 121,-199 51,-48 108,-73 166,-73 59,0 116,25 167,73 50,48 92,116 121,199 30,83 45,177 45,273 z"
   id="path257"
   inkscape:connector-curvature="0"
   style="fill:#cecece;stroke:none" />
         <path
   d="m 8438,11263 v -28 l -2,-27 -2,-27 -3,-27 -4,-27 -4,-27 -6,-26 -6,-25 -7,-25 -8,-25 -8,-23 -9,-23 -10,-22 -11,-22 -11,-20 -12,-20 -12,-18 -13,-17 -14,-17 -14,-15 -14,-14 -15,-13 -15,-11 -16,-10 -16,-9 -16,-8 -16,-6 -17,-5 -17,-3 -16,-2 -17,-1 v 0 l -17,1 -16,2 -17,3 -17,5 -16,6 -16,8 -16,9 -16,10 -15,11 -15,13 -14,14 -14,15 -14,17 -13,17 -12,18 -12,20 -11,20 -11,22 -10,22 -9,23 -8,23 -8,25 -7,25 -6,25 -6,26 -4,27 -4,27 -3,27 -2,27 -2,27 v 28 0 28 l 2,27 2,27 3,27 4,27 4,27 6,26 6,25 7,25 8,25 8,23 9,23 10,22 11,22 11,20 12,20 12,18 13,17 14,17 14,15 14,14 15,13 15,11 16,10 16,9 16,8 16,6 17,5 17,3 16,2 17,1 v 0 l 17,-1 16,-2 17,-3 17,-5 16,-6 16,-8 16,-9 16,-10 15,-11 15,-13 14,-14 14,-15 14,-17 13,-17 12,-18 12,-20 11,-20 11,-22 10,-22 9,-23 8,-23 8,-25 7,-25 6,-25 6,-26 4,-27 4,-27 3,-27 2,-27 2,-27 z"
   id="path259"
   inkscape:connector-curvature="0"
   style="fill:none;stroke:#000000;stroke-width:35;stroke-linecap:round;stroke-linejoin:round" />
         <path
   d="m 7758,15145 186,-35 189,84 168,185 190,317 220,353 185,252 190,150 340,119 17,-1024 -70,-988 -49,-233 -70,-1161 70,-886 203,-1240 18,-705 -935,-252 -459,688 -137,971 -84,1041 102,1089 119,838 -309,186 z"
   id="path261"
   inkscape:connector-curvature="0"
   style="fill:#cecece;stroke:none" />
         <path
   d="m 9553,12922 c 0,95 -15,190 -45,273 -29,83 -71,152 -121,200 -51,48 -108,73 -166,73 -59,0 -116,-25 -167,-73 -50,-48 -92,-117 -121,-200 -30,-83 -45,-178 -45,-273 0,-96 15,-191 45,-274 29,-83 71,-152 121,-200 51,-48 108,-73 167,-73 58,0 115,25 166,73 50,48 92,117 121,200 30,83 45,178 45,274 z"
   id="path263"
   inkscape:connector-curvature="0"
   style="fill:#cecece;stroke:none" />
         <path
   d="m 9550,12917 v -28 l -2,-27 -2,-28 -3,-27 -4,-27 -4,-27 -6,-26 -6,-26 -7,-25 -8,-24 -8,-24 -9,-23 -10,-23 -11,-21 -11,-21 -12,-19 -12,-19 -13,-18 -14,-16 -14,-15 -14,-14 -15,-13 -15,-12 -16,-10 -16,-9 -16,-8 -16,-6 -17,-5 -17,-3 -16,-2 -17,-1 v 0 l -17,1 -16,2 -17,3 -17,5 -16,6 -16,8 -16,9 -16,10 -15,12 -15,13 -14,14 -14,15 -14,16 -13,18 -12,19 -12,19 -11,21 -11,21 -10,23 -9,23 -8,24 -8,24 -7,25 -6,26 -6,26 -4,27 -4,27 -3,27 -2,28 -2,27 v 28 0 28 l 2,27 2,28 3,27 4,27 4,27 6,26 6,26 7,25 8,24 8,24 9,23 10,23 11,21 11,21 12,19 12,19 13,18 14,16 14,15 14,14 15,13 15,12 16,10 16,9 16,8 16,6 17,5 17,3 16,2 17,1 v 0 l 17,-1 16,-2 17,-3 17,-5 16,-6 16,-8 16,-9 16,-10 15,-12 15,-13 14,-14 14,-15 14,-16 13,-18 12,-19 12,-19 11,-21 11,-21 10,-23 9,-23 8,-24 8,-24 7,-25 6,-26 6,-26 4,-27 4,-27 3,-27 2,-28 2,-27 z"
   id="path265"
   inkscape:connector-curvature="0"
   style="fill:none;stroke:#000000;stroke-width:35;stroke-linecap:round;stroke-linejoin:round" />
         <path
   d="m 9588,13974 c 0,95 -16,189 -45,272 -30,83 -73,151 -124,199 -52,48 -110,73 -170,73 -60,0 -118,-25 -169,-73 -52,-48 -95,-116 -125,-199 -29,-83 -45,-177 -45,-272 0,-96 16,-190 45,-273 30,-83 73,-151 125,-199 51,-48 109,-73 169,-73 60,0 118,25 170,73 51,48 94,116 124,199 29,83 45,177 45,273 z"
   id="path267"
   inkscape:connector-curvature="0"
   style="fill:#cecece;stroke:none" />
         <path
   d="m 9585,13972 v -28 l -2,-27 -2,-27 -3,-27 -4,-27 -5,-27 -5,-26 -7,-25 -7,-25 -8,-25 -8,-23 -10,-23 -10,-22 -11,-22 -12,-20 -12,-20 -13,-18 -13,-17 -14,-17 -14,-15 -15,-14 -15,-13 -16,-11 -16,-10 -16,-9 -17,-8 -17,-6 -17,-5 -17,-3 -17,-2 -17,-1 v 0 l -17,1 -17,2 -17,3 -17,5 -17,6 -17,8 -16,9 -16,10 -16,11 -15,13 -15,14 -14,15 -14,17 -13,17 -13,18 -12,20 -12,20 -11,22 -10,22 -10,23 -8,23 -8,25 -7,25 -7,25 -5,26 -5,27 -4,27 -3,27 -2,27 -2,27 v 28 0 28 l 2,27 2,27 3,27 4,27 5,27 5,26 7,25 7,25 8,25 8,23 10,23 10,22 11,22 12,20 12,20 13,18 13,17 14,17 14,15 15,14 15,13 16,11 16,10 16,9 17,8 17,6 17,5 17,3 17,2 17,1 v 0 l 17,-1 17,-2 17,-3 17,-5 17,-6 17,-8 16,-9 16,-10 16,-11 15,-13 15,-14 14,-15 14,-17 13,-17 13,-18 12,-20 12,-20 11,-22 10,-22 10,-23 8,-23 8,-25 7,-25 7,-25 5,-26 5,-27 4,-27 3,-27 2,-27 2,-27 z"
   id="path269"
   inkscape:connector-curvature="0"
   style="fill:none;stroke:#000000;stroke-width:35;stroke-linecap:round;stroke-linejoin:round" />
         <path
   d="m 9844,10878 c 0,95 -16,189 -45,272 -30,83 -72,151 -123,199 -52,48 -110,73 -169,73 -59,0 -117,-25 -168,-73 -52,-48 -94,-116 -124,-199 -29,-83 -45,-177 -45,-272 0,-96 16,-190 45,-273 30,-83 72,-151 124,-199 51,-48 109,-73 168,-73 59,0 117,25 169,73 51,48 93,116 123,199 29,83 45,177 45,273 z"
   id="path271"
   inkscape:connector-curvature="0"
   style="fill:#cecece;stroke:none" />
         <path
   d="m 9840,10875 v -28 l -2,-27 -2,-27 -3,-27 -4,-27 -4,-27 -6,-26 -6,-25 -7,-25 -8,-25 -9,-23 -9,-23 -10,-22 -11,-22 -11,-20 -12,-20 -13,-18 -13,-17 -14,-17 -14,-15 -14,-14 -15,-13 -16,-11 -16,-10 -16,-9 -16,-8 -17,-6 -16,-5 -17,-3 -17,-2 -17,-1 v 0 l -17,1 -17,2 -17,3 -16,5 -17,6 -16,8 -16,9 -16,10 -16,11 -15,13 -14,14 -14,15 -14,17 -13,17 -13,18 -12,20 -11,20 -11,22 -10,22 -9,23 -9,23 -8,25 -7,25 -6,25 -6,26 -4,27 -4,27 -3,27 -2,27 -2,27 v 28 0 28 l 2,27 2,27 3,27 4,27 4,27 6,26 6,25 7,25 8,25 9,23 9,23 10,22 11,22 11,20 12,20 13,18 13,17 14,17 14,15 14,14 15,13 16,11 16,10 16,9 16,8 17,6 16,5 17,3 17,2 17,1 v 0 l 17,-1 17,-2 17,-3 16,-5 17,-6 16,-8 16,-9 16,-10 16,-11 15,-13 14,-14 14,-15 14,-17 13,-17 13,-18 12,-20 11,-20 11,-22 10,-22 9,-23 9,-23 8,-25 7,-25 6,-25 6,-26 4,-27 4,-27 3,-27 2,-27 2,-27 z"
   id="path273"
   inkscape:connector-curvature="0"
   style="fill:none;stroke:#000000;stroke-width:35;stroke-linecap:round;stroke-linejoin:round" />
         <path
   d="m 9725,11923 c 0,95 -16,189 -45,272 -30,83 -72,151 -123,199 -52,48 -110,73 -169,73 -59,0 -117,-25 -168,-73 -52,-48 -94,-116 -124,-199 -29,-83 -45,-177 -45,-272 0,-96 16,-190 45,-273 30,-83 72,-151 124,-199 51,-48 109,-73 168,-73 59,0 117,25 169,73 51,48 93,116 123,199 29,83 45,177 45,273 z"
   id="path275"
   inkscape:connector-curvature="0"
   style="fill:#cecece;stroke:none" />
         <path
   d="m 9721,11921 v -28 l -2,-27 -2,-27 -3,-27 -4,-27 -4,-27 -6,-26 -6,-25 -7,-25 -8,-25 -9,-23 -9,-23 -10,-22 -11,-22 -11,-20 -12,-20 -13,-18 -13,-17 -14,-17 -14,-15 -14,-14 -15,-13 -16,-11 -16,-10 -16,-9 -16,-8 -17,-6 -16,-5 -17,-3 -17,-2 -17,-1 v 0 l -17,1 -17,2 -17,3 -16,5 -17,6 -16,8 -16,9 -16,10 -16,11 -15,13 -14,14 -14,15 -14,17 -13,17 -13,18 -12,20 -11,20 -11,22 -10,22 -9,23 -9,23 -8,25 -7,25 -6,25 -6,26 -4,27 -4,27 -3,27 -2,27 -2,27 v 28 0 28 l 2,27 2,27 3,27 4,27 4,27 6,26 6,25 7,25 8,25 9,23 9,23 10,22 11,22 11,20 12,20 13,18 13,17 14,17 14,15 14,14 15,13 16,11 16,10 16,9 16,8 17,6 16,5 17,3 17,2 17,1 v 0 l 17,-1 17,-2 17,-3 16,-5 17,-6 16,-8 16,-9 16,-10 16,-11 15,-13 14,-14 14,-15 14,-17 13,-17 13,-18 12,-20 11,-20 11,-22 10,-22 9,-23 9,-23 8,-25 7,-25 6,-25 6,-26 4,-27 4,-27 3,-27 2,-27 2,-27 z"
   id="path277"
   inkscape:connector-curvature="0"
   style="fill:none;stroke:#000000;stroke-width:35;stroke-linecap:round;stroke-linejoin:round" />
         <path
   d="m 9765,16058 c 0,95 -16,190 -45,273 -30,83 -72,152 -123,200 -52,48 -110,73 -169,73 -59,0 -117,-25 -168,-73 -52,-48 -94,-117 -124,-200 -29,-83 -45,-178 -45,-273 0,-96 16,-191 45,-274 30,-83 72,-152 124,-200 51,-48 109,-73 168,-73 59,0 117,25 169,73 51,48 93,117 123,200 29,83 45,178 45,274 z"
   id="path279"
   inkscape:connector-curvature="0"
   style="fill:#cecece;stroke:none" />
         <path
   d="m 9761,16054 v -28 l -2,-27 -2,-28 -3,-27 -4,-27 -4,-27 -6,-26 -6,-26 -7,-25 -8,-24 -9,-24 -9,-23 -10,-23 -11,-21 -11,-21 -12,-19 -13,-19 -13,-18 -14,-16 -14,-15 -14,-14 -15,-13 -16,-12 -16,-10 -16,-9 -16,-8 -17,-6 -16,-5 -17,-3 -17,-2 -17,-1 v 0 l -17,1 -17,2 -17,3 -16,5 -17,6 -16,8 -16,9 -16,10 -16,12 -15,13 -14,14 -14,15 -14,16 -13,18 -13,19 -12,19 -11,21 -11,21 -10,23 -9,23 -9,24 -8,24 -7,25 -6,26 -6,26 -4,27 -4,27 -3,27 -2,28 -2,27 v 28 0 28 l 2,27 2,28 3,27 4,27 4,27 6,26 6,26 7,25 8,24 9,24 9,23 10,23 11,21 11,21 12,19 13,19 13,18 14,16 14,15 14,14 15,13 16,12 16,10 16,9 16,8 17,6 16,5 17,3 17,2 17,1 v 0 l 17,-1 17,-2 17,-3 16,-5 17,-6 16,-8 16,-9 16,-10 16,-12 15,-13 14,-14 14,-15 14,-16 13,-18 13,-19 12,-19 11,-21 11,-21 10,-23 9,-23 9,-24 8,-24 7,-25 6,-26 6,-26 4,-27 4,-27 3,-27 2,-28 2,-27 z"
   id="path281"
   inkscape:connector-curvature="0"
   style="fill:none;stroke:#000000;stroke-width:35;stroke-linecap:round;stroke-linejoin:round" />
         <path
   d="m 9765,15010 c 0,96 -16,190 -45,274 -30,83 -72,152 -123,201 -52,48 -110,73 -169,73 -59,0 -117,-25 -168,-73 -52,-49 -94,-118 -124,-201 -29,-84 -45,-178 -45,-274 0,-97 16,-191 45,-275 30,-83 72,-152 124,-201 51,-48 109,-73 168,-73 59,0 117,25 169,73 51,49 93,118 123,201 29,84 45,178 45,275 z"
   id="path283"
   inkscape:connector-curvature="0"
   style="fill:#cecece;stroke:none" />
         <path
   d="m 9761,15008 v -28 l -2,-27 -2,-28 -3,-27 -4,-27 -4,-27 -6,-26 -6,-26 -7,-25 -8,-24 -9,-24 -9,-23 -10,-23 -11,-21 -11,-21 -12,-19 -13,-19 -13,-18 -14,-16 -14,-15 -14,-14 -15,-13 -16,-12 -16,-10 -16,-9 -16,-8 -17,-6 -16,-5 -17,-3 -17,-2 -17,-1 v 0 l -17,1 -17,2 -17,3 -16,5 -17,6 -16,8 -16,9 -16,10 -16,12 -15,13 -14,14 -14,15 -14,16 -13,18 -13,19 -12,19 -11,21 -11,21 -10,23 -9,23 -9,24 -8,24 -7,25 -6,26 -6,26 -4,27 -4,27 -3,27 -2,28 -2,27 v 28 0 28 l 2,27 2,28 3,27 4,27 4,27 6,26 6,26 7,25 8,24 9,24 9,23 10,23 11,21 11,21 12,19 13,19 13,18 14,16 14,15 14,14 15,13 16,12 16,10 16,9 16,8 17,6 16,5 17,3 17,2 17,1 v 0 l 17,-1 17,-2 17,-3 16,-5 17,-6 16,-8 16,-9 16,-10 16,-12 15,-13 14,-14 14,-15 14,-16 13,-18 13,-19 12,-19 11,-21 11,-21 10,-23 9,-23 9,-24 8,-24 7,-25 6,-26 6,-26 4,-27 4,-27 3,-27 2,-28 2,-27 z"
   id="path285"
   inkscape:connector-curvature="0"
   style="fill:none;stroke:#000000;stroke-width:35;stroke-linecap:round;stroke-linejoin:round" />
        </g>
        <defs
   id="defs292">
         <clipPath
   id="clip_path_3"
   clipPathUnits="userSpaceOnUse">
          <path
   d="m 8147,10699 h 1331 v 700 H 8147 Z"
   id="path289"
   inkscape:connector-curvature="0" />
         </clipPath>
        </defs>
        <g
   clip-path="url(#clip_path_3)"
   id="g296">
         <path
   d="M 10740,12031 6850,10033"
   id="path294"
   inkscape:connector-curvature="0"
   style="fill:none;stroke:#000000;stroke-width:35;stroke-linecap:round;stroke-linejoin:miter" />
        </g>
        <g
   clip-path="url(#clip_path_1)"
   id="g298" />
        <defs
   id="defs303">
         <clipPath
   id="clip_path_4"
   clipPathUnits="userSpaceOnUse">
          <path
   d="m 7970,11753 h 1340 v 687 H 7970 Z"
   id="path300"
   inkscape:connector-curvature="0" />
         </clipPath>
        </defs>
        <g
   clip-path="url(#clip_path_4)"
   id="g307">
         <path
   d="M 10582,13059 6664,11100"
   id="path305"
   inkscape:connector-curvature="0"
   style="fill:none;stroke:#000000;stroke-width:35;stroke-linecap:round;stroke-linejoin:miter" />
        </g>
        <g
   clip-path="url(#clip_path_1)"
   id="g309" />
        <defs
   id="defs314">
         <clipPath
   id="clip_path_5"
   clipPathUnits="userSpaceOnUse">
          <path
   d="m 7886,12767 h 1318 v 700 H 7886 Z"
   id="path311"
   inkscape:connector-curvature="0" />
         </clipPath>
        </defs>
        <g
   clip-path="url(#clip_path_5)"
   id="g318">
         <path
   d="M 10454,14100 6603,12101"
   id="path316"
   inkscape:connector-curvature="0"
   style="fill:none;stroke:#000000;stroke-width:35;stroke-linecap:round;stroke-linejoin:miter" />
        </g>
        <g
   clip-path="url(#clip_path_1)"
   id="g326">
         <path
   d="m 8327,9768 142,-71 723,1165 -18,203 -983,-477 z"
   id="path320"
   inkscape:connector-curvature="0"
   style="fill:#cecece;stroke:none" />
         <path
   d="m 9377,15516 -167,-49 -133,-137 -216,-247 -185,-119 -203,-84 -318,-66 -114,-17 -84,-49"
   id="path322"
   inkscape:connector-curvature="0"
   style="fill:none;stroke:#000000;stroke-width:35;stroke-linecap:round;stroke-linejoin:round" />
         <path
   d="m 9210,14483 -269,-101 -164,-115 -220,-185 -133,-97 -282,-150 -167,-35"
   id="path324"
   inkscape:connector-curvature="0"
   style="fill:none;stroke:#000000;stroke-width:35;stroke-linecap:round;stroke-linejoin:round" />
        </g>
       </g>
      </g>
     </g>
    </g>
   </g>
  </g>
 </g>
</svg>