<?xml version="1.0" encoding="UTF-8" standalone="no"?>
<svg
   xmlns:ooo="http://xml.openoffice.org/svg/export"
   xmlns:dc="http://purl.org/dc/elements/1.1/"
   xmlns:cc="http://creativecommons.org/ns#"
   xmlns:rdf="http://www.w3.org/1999/02/22-rdf-syntax-ns#"
   xmlns:svg="http://www.w3.org/2000/svg"
   xmlns="http://www.w3.org/2000/svg"
   xmlns:sodipodi="http://sodipodi.sourceforge.net/DTD/sodipodi-0.dtd"
   xmlns:inkscape="http://www.inkscape.org/namespaces/inkscape"
   version="1.2"
   width="143.75999mm"
   height="78.540001mm"
   viewBox="0 0 14375.999 7854.0001"
   preserveAspectRatio="xMidYMid"
   xml:space="preserve"
   id="svg75"
   sodipodi:docname="kazakhsn.svg"
   style="fill-rule:evenodd;stroke-width:28.22200012;stroke-linejoin:round"
   inkscape:version="0.92.5 (2060ec1f9f, 2020-04-08)"><metadata
   id="metadata79"><rdf:RDF><cc:Work
       rdf:about=""><dc:format>image/svg+xml</dc:format><dc:type
         rdf:resource="http://purl.org/dc/dcmitype/StillImage" /></cc:Work></rdf:RDF></metadata><sodipodi:namedview
   pagecolor="#ffffff"
   bordercolor="#666666"
   borderopacity="1"
   objecttolerance="10"
   gridtolerance="10"
   guidetolerance="10"
   inkscape:pageopacity="0"
   inkscape:pageshadow="2"
   inkscape:window-width="664"
   inkscape:window-height="487"
   id="namedview77"
   showgrid="false"
   inkscape:zoom="0.2102413"
   inkscape:cx="271.67244"
   inkscape:cy="148.42205"
   inkscape:window-x="0"
   inkscape:window-y="0"
   inkscape:window-maximized="0"
   inkscape:current-layer="svg75" />
 <defs
   class="ClipPathGroup"
   id="defs8">
  <clipPath
   id="presentation_clip_path"
   clipPathUnits="userSpaceOnUse">
   <rect
   x="0"
   y="0"
   width="21000"
   height="29700"
   id="rect2" />
  </clipPath>
  <clipPath
   id="presentation_clip_path_shrink"
   clipPathUnits="userSpaceOnUse">
   <rect
   x="21"
   y="29"
   width="20958"
   height="29641"
   id="rect5" />
  </clipPath>
 </defs>
 <defs
   class="TextShapeIndex"
   id="defs12">
  <g
   ooo:slide="id1"
   ooo:id-list="id3"
   id="g10" />
 </defs>
 <defs
   class="EmbeddedBulletChars"
   id="defs44">
  <g
   id="bullet-char-template-57356"
   transform="matrix(4.8828125e-4,0,0,-4.8828125e-4,0,0)">
   <path
   d="M 580,1141 1163,571 580,0 -4,571 Z"
   id="path14"
   inkscape:connector-curvature="0" />
  </g>
  <g
   id="bullet-char-template-57354"
   transform="matrix(4.8828125e-4,0,0,-4.8828125e-4,0,0)">
   <path
   d="M 8,1128 H 1137 V 0 H 8 Z"
   id="path17"
   inkscape:connector-curvature="0" />
  </g>
  <g
   id="bullet-char-template-10146"
   transform="matrix(4.8828125e-4,0,0,-4.8828125e-4,0,0)">
   <path
   d="M 174,0 602,739 174,1481 1456,739 Z M 1358,739 309,1346 659,739 Z"
   id="path20"
   inkscape:connector-curvature="0" />
  </g>
  <g
   id="bullet-char-template-10132"
   transform="matrix(4.8828125e-4,0,0,-4.8828125e-4,0,0)">
   <path
   d="M 2015,739 1276,0 H 717 l 543,543 H 174 v 393 h 1086 l -543,545 h 557 z"
   id="path23"
   inkscape:connector-curvature="0" />
  </g>
  <g
   id="bullet-char-template-10007"
   transform="matrix(4.8828125e-4,0,0,-4.8828125e-4,0,0)">
   <path
   d="m 0,-2 c -7,16 -16,29 -25,39 l 381,530 c -94,256 -141,385 -141,387 0,25 13,38 40,38 9,0 21,-2 34,-5 21,4 42,12 65,25 l 27,-13 111,-251 280,301 64,-25 24,25 c 21,-10 41,-24 62,-43 C 886,937 835,863 770,784 769,783 710,716 594,584 L 774,223 c 0,-27 -21,-55 -63,-84 l 16,-20 C 717,90 699,76 672,76 641,76 570,178 457,381 L 164,-76 c -22,-34 -53,-51 -92,-51 -42,0 -63,17 -64,51 -7,9 -10,24 -10,44 0,9 1,19 2,30 z"
   id="path26"
   inkscape:connector-curvature="0" />
  </g>
  <g
   id="bullet-char-template-10004"
   transform="matrix(4.8828125e-4,0,0,-4.8828125e-4,0,0)">
   <path
   d="M 285,-33 C 182,-33 111,30 74,156 52,228 41,333 41,471 c 0,78 14,145 41,201 34,71 87,106 158,106 53,0 88,-31 106,-94 l 23,-176 c 8,-64 28,-97 59,-98 l 735,706 c 11,11 33,17 66,17 42,0 63,-15 63,-46 V 965 c 0,-36 -10,-64 -30,-84 L 442,47 C 390,-6 338,-33 285,-33 Z"
   id="path29"
   inkscape:connector-curvature="0" />
  </g>
  <g
   id="bullet-char-template-9679"
   transform="matrix(4.8828125e-4,0,0,-4.8828125e-4,0,0)">
   <path
   d="M 813,0 C 632,0 489,54 383,161 276,268 223,411 223,592 c 0,181 53,324 160,431 106,107 249,161 430,161 179,0 323,-54 432,-161 108,-107 162,-251 162,-431 0,-180 -54,-324 -162,-431 C 1136,54 992,0 813,0 Z"
   id="path32"
   inkscape:connector-curvature="0" />
  </g>
  <g
   id="bullet-char-template-8226"
   transform="matrix(4.8828125e-4,0,0,-4.8828125e-4,0,0)">
   <path
   d="m 346,457 c -73,0 -137,26 -191,78 -54,51 -81,114 -81,188 0,73 27,136 81,188 54,52 118,78 191,78 73,0 134,-26 185,-79 51,-51 77,-114 77,-187 0,-75 -25,-137 -76,-188 -50,-52 -112,-78 -186,-78 z"
   id="path35"
   inkscape:connector-curvature="0" />
  </g>
  <g
   id="bullet-char-template-8211"
   transform="matrix(4.8828125e-4,0,0,-4.8828125e-4,0,0)">
   <path
   d="M -4,459 H 1135 V 606 H -4 Z"
   id="path38"
   inkscape:connector-curvature="0" />
  </g>
  <g
   id="bullet-char-template-61548"
   transform="matrix(4.8828125e-4,0,0,-4.8828125e-4,0,0)">
   <path
   d="m 173,740 c 0,163 58,303 173,419 116,115 255,173 419,173 163,0 302,-58 418,-173 116,-116 174,-256 174,-419 0,-163 -58,-303 -174,-418 C 1067,206 928,148 765,148 601,148 462,206 346,322 231,437 173,577 173,740 Z"
   id="path41"
   inkscape:connector-curvature="0" />
  </g>
 </defs>
 <g
   id="g49"
   transform="translate(-3312,-10923)">
  <g
   id="id2"
   class="Master_Slide">
   <g
   id="bg-id2"
   class="Background" />
   <g
   id="bo-id2"
   class="BackgroundObjects" />
  </g>
 </g>
 <g
   class="SlideGroup"
   id="g73"
   transform="translate(-3312,-10923)">
  <g
   id="g71">
   <g
   id="container-id1">
    <g
   id="id1"
   class="Slide"
   clip-path="url(#presentation_clip_path)">
     <g
   class="Page"
   id="g67">
      <g
   class="Graphic"
   id="g65">
       <g
   id="id3">
        <rect
   class="BoundingBox"
   x="3312"
   y="10923"
   width="14376"
   height="7854"
   id="rect51"
   style="fill:none;stroke:none" />
        <defs
   id="defs56">
         <clipPath
   id="clip_path_1"
   clipPathUnits="userSpaceOnUse">
          <path
   d="m 3316,10932 h 14362 v 7844 H 3316 Z"
   id="path53"
   inkscape:connector-curvature="0" />
         </clipPath>
        </defs>
        <g
   clip-path="url(#clip_path_1)"
   id="g62">
         <path
   d="m 5950,18239 137,-653 286,-1280 1156,-185 856,1143 882,8 256,-17 66,31 119,101 66,207 62,168 124,-9 53,119 83,75 -39,45 -128,26 -44,84 44,93 185,75 62,83 92,212 124,146 172,26 128,-53 203,62 194,-53 159,-66 163,-203 159,-146 220,-158 291,-128 31,-111 146,-70 84,-14 154,-26 269,35 181,75 101,-17 23,-155 52,-167 128,-53 102,-14 119,58 203,101 128,18 119,-102 190,-66 110,75 348,-137 111,-17 h 66 l 101,79 168,22 212,-22 119,-79 101,-18 102,9 26,128 9,119 26,66 93,71 66,-146 88,-322 102,-221 -27,-251 -163,-335 -194,-155 -18,-137 212,-92 212,-49 212,22 172,-22 92,-110 v -119 l -66,-128 -35,-278 17,-283 9,-128 93,-167 119,-27 168,71 h 128 l 202,-44 203,-58 53,-163 -26,-145 -18,-111 -44,-176 -9,-137 111,-159 -14,-172 141,-141 155,-84 -75,-172 -97,-119 -84,-49 -168,75 -136,128 -146,-9 -141,-26 -119,-57 -119,-128 -111,-93 -66,-101 -88,-53 -110,-62 -124,-18 -128,18 -119,22 -110,93 -93,-18 -92,-75 -111,-49 -53,-44 h -83 l -75,44 -53,67 -84,105 -62,-30 -106,-93 -128,-159 -128,-176 -172,-239 -132,-181 -79,-114 -133,-111 -167,-128 -150,-83 -88,-27 -58,-75 -17,-97 61,-66 9,-66 -62,-80 -145,110 -221,146 -269,238 -322,137 -44,-53 44,-145 -35,-75 -194,-36 -177,-31 -128,18 -154,22 -49,-48 18,-212 -53,-119 -150,-146 -145,-57 -128,-53 -111,-27 -176,53 -163,194 -185,102 -150,44 -128,26 -203,22 -221,93 -145,80 -155,57 -132,53 -190,22 -141,18 -256,-9 -150,-111 -128,53 -44,128 62,128 93,66 132,27 35,84 -35,137 -159,66 -176,-9 -102,35 -44,75 44,84 -97,102 -123,-9 -53,53 26,101 93,110 84,36 180,154 31,128 44,84 -35,101 -84,89 -101,39 -185,-39 -292,-36 -361,-176 -221,-163 -163,-102 -132,27 -256,150 -234,-18 -128,62 -84,9 -66,-36 -44,-167 -57,-168 -111,-119 -88,-93 -92,-26 -111,-13 h -101 l -102,-45 -110,-92 -66,-62 -110,-40 -164,40 -110,62 -212,92 -176,18 -185,35 -146,75 -40,93 14,119 8,163 -66,53 -110,40 -93,-31 -176,-185 -128,9 -71,9 -92,88 -40,145 -18,75 -79,111 -123,53 -111,66 -79,101 17,62 71,141 75,89 137,92 75,84 137,163 92,168 40,137 -31,159 -9,92 -9,111 137,26 84,26 h 137 l 211,-61 212,-58 212,-26 84,18 150,145 198,66 124,168 61,128 -44,128 -119,110 -57,53 v 93 l 35,75 -53,92 -92,45 h -120 l -145,-62 -132,-58 -146,18 -66,168 9,137 -36,75 -83,17 -111,-35 -119,-150 -84,18 -44,66 84,167 53,89 57,194 44,194 27,150 40,93 220,48 119,84 44,97 -44,110 -110,142 9,220 119,-110 h 176 l 247,18 159,136 110,128 120,296 145,185 z"
   id="path58"
   inkscape:connector-curvature="0"
   style="fill:#037c03;stroke:none" />
         <path
   d="m 5950,18239 137,-653 286,-1280 1156,-185 856,1143 882,8 256,-17 66,31 119,101 66,207 62,168 124,-9 53,119 83,75 -39,45 -128,26 -44,84 44,93 185,75 62,83 92,212 124,146 172,26 128,-53 203,62 194,-53 159,-66 163,-203 159,-146 220,-158 291,-128 31,-111 146,-70 84,-14 154,-26 269,35 181,75 101,-17 23,-155 52,-167 128,-53 102,-14 119,58 203,101 128,18 119,-102 190,-66 110,75 348,-137 111,-17 h 66 l 101,79 168,22 212,-22 119,-79 101,-18 102,9 26,128 9,119 26,66 93,71 66,-146 88,-322 102,-221 -27,-251 -163,-335 -194,-155 -18,-137 212,-92 212,-49 212,22 172,-22 92,-110 v -119 l -66,-128 -35,-278 17,-283 9,-128 93,-167 119,-27 168,71 h 128 l 202,-44 203,-58 53,-163 -26,-145 -18,-111 -44,-176 -9,-137 111,-159 -14,-172 141,-141 155,-84 -75,-172 -97,-119 -84,-49 -168,75 -136,128 -146,-9 -141,-26 -119,-57 -119,-128 -111,-93 -66,-101 -88,-53 -110,-62 -124,-18 -128,18 -119,22 -110,93 -93,-18 -92,-75 -111,-49 -53,-44 h -83 l -75,44 -53,67 -84,105 -62,-30 -106,-93 -128,-159 -128,-176 -172,-239 -132,-181 -79,-114 -133,-111 -167,-128 -150,-83 -88,-27 -58,-75 -17,-97 61,-66 9,-66 -62,-80 -145,110 -221,146 -269,238 -322,137 -44,-53 44,-145 -35,-75 -194,-36 -177,-31 -128,18 -154,22 -49,-48 18,-212 -53,-119 -150,-146 -145,-57 -128,-53 -111,-27 -176,53 -163,194 -185,102 -150,44 -128,26 -203,22 -221,93 -145,80 -155,57 -132,53 -190,22 -141,18 -256,-9 -150,-111 -128,53 -44,128 62,128 93,66 132,27 35,84 -35,137 -159,66 -176,-9 -102,35 -44,75 44,84 -97,102 -123,-9 -53,53 26,101 93,110 84,36 180,154 31,128 44,84 -35,101 -84,89 -101,39 -185,-39 -292,-36 -361,-176 -221,-163 -163,-102 -132,27 -256,150 -234,-18 -128,62 -84,9 -66,-36 -44,-167 -57,-168 -111,-119 -88,-93 -92,-26 -111,-13 h -101 l -102,-45 -110,-92 -66,-62 -110,-40 -164,40 -110,62 -212,92 -176,18 -185,35 -146,75 -40,93 14,119 8,163 -66,53 -110,40 -93,-31 -176,-185 -128,9 -71,9 -92,88 -40,145 -18,75 -79,111 -123,53 -111,66 -79,101 17,62 71,141 75,89 137,92 75,84 137,163 92,168 40,137 -31,159 -9,92 -9,111 137,26 84,26 h 137 l 211,-61 212,-58 212,-26 84,18 150,145 198,66 124,168 61,128 -44,128 -119,110 -57,53 v 93 l 35,75 -53,92 -92,45 h -120 l -145,-62 -132,-58 -146,18 -66,168 9,137 -36,75 -83,17 -111,-35 -119,-150 -84,18 -44,66 84,167 53,89 57,194 44,194 27,150 40,93 220,48 119,84 44,97 -44,110 -110,142 9,220 119,-110 h 176 l 247,18 159,136 110,128 120,296 145,185 z"
   id="path60"
   inkscape:connector-curvature="0"
   style="fill:none;stroke:#000000;stroke-width:4;stroke-linecap:round;stroke-linejoin:round" />
        </g>
       </g>
      </g>
     </g>
    </g>
   </g>
  </g>
 </g>
</svg>