<?xml version="1.0" encoding="UTF-8" standalone="no"?>
<svg
   xmlns:ooo="http://xml.openoffice.org/svg/export"
   xmlns:dc="http://purl.org/dc/elements/1.1/"
   xmlns:cc="http://creativecommons.org/ns#"
   xmlns:rdf="http://www.w3.org/1999/02/22-rdf-syntax-ns#"
   xmlns:svg="http://www.w3.org/2000/svg"
   xmlns="http://www.w3.org/2000/svg"
   xmlns:sodipodi="http://sodipodi.sourceforge.net/DTD/sodipodi-0.dtd"
   xmlns:inkscape="http://www.inkscape.org/namespaces/inkscape"
   version="1.2"
   width="156.67999mm"
   height="69.669998mm"
   viewBox="0 0 15667.999 6966.9998"
   preserveAspectRatio="xMidYMid"
   xml:space="preserve"
   id="svg75"
   sodipodi:docname="kyrgyzst.svg"
   style="fill-rule:evenodd;stroke-width:28.22200012;stroke-linejoin:round"
   inkscape:version="0.92.5 (2060ec1f9f, 2020-04-08)"><metadata
   id="metadata79"><rdf:RDF><cc:Work
       rdf:about=""><dc:format>image/svg+xml</dc:format><dc:type
         rdf:resource="http://purl.org/dc/dcmitype/StillImage" /></cc:Work></rdf:RDF></metadata><sodipodi:namedview
   pagecolor="#ffffff"
   bordercolor="#666666"
   borderopacity="1"
   objecttolerance="10"
   gridtolerance="10"
   guidetolerance="10"
   inkscape:pageopacity="0"
   inkscape:pageshadow="2"
   inkscape:window-width="664"
   inkscape:window-height="487"
   id="namedview77"
   showgrid="false"
   inkscape:zoom="0.2102413"
   inkscape:cx="296.08819"
   inkscape:cy="131.64094"
   inkscape:window-x="0"
   inkscape:window-y="0"
   inkscape:window-maximized="0"
   inkscape:current-layer="svg75" />
 <defs
   class="ClipPathGroup"
   id="defs8">
  <clipPath
   id="presentation_clip_path"
   clipPathUnits="userSpaceOnUse">
   <rect
   x="0"
   y="0"
   width="21000"
   height="29700"
   id="rect2" />
  </clipPath>
  <clipPath
   id="presentation_clip_path_shrink"
   clipPathUnits="userSpaceOnUse">
   <rect
   x="21"
   y="29"
   width="20958"
   height="29641"
   id="rect5" />
  </clipPath>
 </defs>
 <defs
   class="TextShapeIndex"
   id="defs12">
  <g
   ooo:slide="id1"
   ooo:id-list="id3"
   id="g10" />
 </defs>
 <defs
   class="EmbeddedBulletChars"
   id="defs44">
  <g
   id="bullet-char-template-57356"
   transform="matrix(4.8828125e-4,0,0,-4.8828125e-4,0,0)">
   <path
   d="M 580,1141 1163,571 580,0 -4,571 Z"
   id="path14"
   inkscape:connector-curvature="0" />
  </g>
  <g
   id="bullet-char-template-57354"
   transform="matrix(4.8828125e-4,0,0,-4.8828125e-4,0,0)">
   <path
   d="M 8,1128 H 1137 V 0 H 8 Z"
   id="path17"
   inkscape:connector-curvature="0" />
  </g>
  <g
   id="bullet-char-template-10146"
   transform="matrix(4.8828125e-4,0,0,-4.8828125e-4,0,0)">
   <path
   d="M 174,0 602,739 174,1481 1456,739 Z M 1358,739 309,1346 659,739 Z"
   id="path20"
   inkscape:connector-curvature="0" />
  </g>
  <g
   id="bullet-char-template-10132"
   transform="matrix(4.8828125e-4,0,0,-4.8828125e-4,0,0)">
   <path
   d="M 2015,739 1276,0 H 717 l 543,543 H 174 v 393 h 1086 l -543,545 h 557 z"
   id="path23"
   inkscape:connector-curvature="0" />
  </g>
  <g
   id="bullet-char-template-10007"
   transform="matrix(4.8828125e-4,0,0,-4.8828125e-4,0,0)">
   <path
   d="m 0,-2 c -7,16 -16,29 -25,39 l 381,530 c -94,256 -141,385 -141,387 0,25 13,38 40,38 9,0 21,-2 34,-5 21,4 42,12 65,25 l 27,-13 111,-251 280,301 64,-25 24,25 c 21,-10 41,-24 62,-43 C 886,937 835,863 770,784 769,783 710,716 594,584 L 774,223 c 0,-27 -21,-55 -63,-84 l 16,-20 C 717,90 699,76 672,76 641,76 570,178 457,381 L 164,-76 c -22,-34 -53,-51 -92,-51 -42,0 -63,17 -64,51 -7,9 -10,24 -10,44 0,9 1,19 2,30 z"
   id="path26"
   inkscape:connector-curvature="0" />
  </g>
  <g
   id="bullet-char-template-10004"
   transform="matrix(4.8828125e-4,0,0,-4.8828125e-4,0,0)">
   <path
   d="M 285,-33 C 182,-33 111,30 74,156 52,228 41,333 41,471 c 0,78 14,145 41,201 34,71 87,106 158,106 53,0 88,-31 106,-94 l 23,-176 c 8,-64 28,-97 59,-98 l 735,706 c 11,11 33,17 66,17 42,0 63,-15 63,-46 V 965 c 0,-36 -10,-64 -30,-84 L 442,47 C 390,-6 338,-33 285,-33 Z"
   id="path29"
   inkscape:connector-curvature="0" />
  </g>
  <g
   id="bullet-char-template-9679"
   transform="matrix(4.8828125e-4,0,0,-4.8828125e-4,0,0)">
   <path
   d="M 813,0 C 632,0 489,54 383,161 276,268 223,411 223,592 c 0,181 53,324 160,431 106,107 249,161 430,161 179,0 323,-54 432,-161 108,-107 162,-251 162,-431 0,-180 -54,-324 -162,-431 C 1136,54 992,0 813,0 Z"
   id="path32"
   inkscape:connector-curvature="0" />
  </g>
  <g
   id="bullet-char-template-8226"
   transform="matrix(4.8828125e-4,0,0,-4.8828125e-4,0,0)">
   <path
   d="m 346,457 c -73,0 -137,26 -191,78 -54,51 -81,114 -81,188 0,73 27,136 81,188 54,52 118,78 191,78 73,0 134,-26 185,-79 51,-51 77,-114 77,-187 0,-75 -25,-137 -76,-188 -50,-52 -112,-78 -186,-78 z"
   id="path35"
   inkscape:connector-curvature="0" />
  </g>
  <g
   id="bullet-char-template-8211"
   transform="matrix(4.8828125e-4,0,0,-4.8828125e-4,0,0)">
   <path
   d="M -4,459 H 1135 V 606 H -4 Z"
   id="path38"
   inkscape:connector-curvature="0" />
  </g>
  <g
   id="bullet-char-template-61548"
   transform="matrix(4.8828125e-4,0,0,-4.8828125e-4,0,0)">
   <path
   d="m 173,740 c 0,163 58,303 173,419 116,115 255,173 419,173 163,0 302,-58 418,-173 116,-116 174,-256 174,-419 0,-163 -58,-303 -174,-418 C 1067,206 928,148 765,148 601,148 462,206 346,322 231,437 173,577 173,740 Z"
   id="path41"
   inkscape:connector-curvature="0" />
  </g>
 </defs>
 <g
   id="g49"
   transform="translate(-2666,-11366)">
  <g
   id="id2"
   class="Master_Slide">
   <g
   id="bg-id2"
   class="Background" />
   <g
   id="bo-id2"
   class="BackgroundObjects" />
  </g>
 </g>
 <g
   class="SlideGroup"
   id="g73"
   transform="translate(-2666,-11366)">
  <g
   id="g71">
   <g
   id="container-id1">
    <g
   id="id1"
   class="Slide"
   clip-path="url(#presentation_clip_path)">
     <g
   class="Page"
   id="g67">
      <g
   class="Graphic"
   id="g65">
       <g
   id="id3">
        <rect
   class="BoundingBox"
   x="2666"
   y="11366"
   width="15668"
   height="6967"
   id="rect51"
   style="fill:none;stroke:none" />
        <defs
   id="defs56">
         <clipPath
   id="clip_path_1"
   clipPathUnits="userSpaceOnUse">
          <path
   d="m 2675,11366 h 15640 v 6957 H 2675 Z"
   id="path53"
   inkscape:connector-curvature="0" />
         </clipPath>
        </defs>
        <g
   clip-path="url(#clip_path_1)"
   id="g62">
         <path
   d="m 3107,14658 163,150 340,39 h 159 l 247,53 141,53 251,75 h 194 l 89,155 247,163 h 480 l 142,57 300,256 198,238 265,186 h 106 l 211,-75 252,-199 123,53 89,203 70,-256 159,-22 198,150 230,-75 70,-220 -88,-367 -70,-132 -305,-234 199,-132 -18,-203 -251,57 -159,-185 v -274 l -35,-185 -124,-93 -106,53 -128,150 -35,93 -159,57 -353,-278 -304,-185 -247,-93 48,-353 177,-92 229,17 124,-167 -212,-111 h -194 l 22,-172 35,-242 199,-93 123,18 h 141 l 89,-164 211,-35 124,35 269,36 194,75 269,110 124,75 -481,-313 -274,-486 212,-313 300,-110 128,-18 229,35 124,128 176,40 283,128 251,168 176,163 194,128 124,203 216,132 71,216 220,256 141,203 164,146 211,57 53,-238 -88,-243 88,-238 159,-163 194,-168 h 181 l 229,-18 142,-132 282,115 176,-203 199,150 53,88 264,238 53,168 159,181 88,150 287,163 229,278 106,296 71,256 229,35 322,-35 335,-93 h 252 l 212,35 88,93 198,181 406,150 357,128 248,168 374,163 -17,128 -53,92 -234,-57 -123,-53 -159,-35 -106,-75 -146,110 -300,-128 -158,-75 -499,-17 -212,-111 -194,22 -158,-57 -146,75 -212,-93 -141,164 -106,57 177,128 300,145 233,186 106,128 212,110 371,221 180,53 142,-71 h 211 l 124,-75 145,-146 177,-17 159,-18 176,-75 181,-18 -234,-163 516,-97 181,35 194,190 h 212 l -106,128 159,71 141,-93 141,313 110,278 124,164 190,127 123,18 141,128 106,168 163,92 177,93 -18,238 -322,-17 -141,-203 -260,110 -177,185 -181,128 h -211 l -212,-110 -335,35 -340,18 -357,93 -300,35 -194,207 -252,164 -229,35 -304,-18 -336,-75 -176,-17 -230,-111 -233,-110 -194,-221 -142,128 -229,36 -141,242 -163,128 -106,238 -194,146 -141,115 -177,-278 -212,110 -127,-168 -124,146 -265,-53 -53,-110 124,-221 v -238 l -71,-168 h -176 l -177,128 -198,58 -229,-93 -283,-181 -22,331 -212,-35 -269,17 -194,164 -300,-181 -176,-40 -176,75 -164,185 -158,128 17,216 v 146 l -176,132 h -230 l -251,-132 -106,22 -123,-168 -195,93 -251,-35 -318,-186 -233,-70 -212,-40 -194,40 -194,-18 -163,-256 -212,-22 -234,-150 159,-163 -106,-181 -177,-57 71,-221 -269,22 -176,-79 -230,114 -322,-185 -159,-313 -229,128 35,-274 -286,-145 -265,79 -159,-35 -70,-203 -300,-238 -287,-168 35,-256 194,-309 146,-212 z"
   id="path58"
   inkscape:connector-curvature="0"
   style="fill:#037c03;stroke:none" />
         <path
   d="m 3107,14658 163,150 340,39 h 159 l 247,53 141,53 251,75 h 194 l 89,155 247,163 h 480 l 142,57 300,256 198,238 265,186 h 106 l 211,-75 252,-199 123,53 89,203 70,-256 159,-22 198,150 230,-75 70,-220 -88,-367 -70,-132 -305,-234 199,-132 -18,-203 -251,57 -159,-185 v -274 l -35,-185 -124,-93 -106,53 -128,150 -35,93 -159,57 -353,-278 -304,-185 -247,-93 48,-353 177,-92 229,17 124,-167 -212,-111 h -194 l 22,-172 35,-242 199,-93 123,18 h 141 l 89,-164 211,-35 124,35 269,36 194,75 269,110 124,75 -481,-313 -274,-486 212,-313 300,-110 128,-18 229,35 124,128 176,40 283,128 251,168 176,163 194,128 124,203 216,132 71,216 220,256 141,203 164,146 211,57 53,-238 -88,-243 88,-238 159,-163 194,-168 h 181 l 229,-18 142,-132 282,115 176,-203 199,150 53,88 264,238 53,168 159,181 88,150 287,163 229,278 106,296 71,256 229,35 322,-35 335,-93 h 252 l 212,35 88,93 198,181 406,150 357,128 248,168 374,163 -17,128 -53,92 -234,-57 -123,-53 -159,-35 -106,-75 -146,110 -300,-128 -158,-75 -499,-17 -212,-111 -194,22 -158,-57 -146,75 -212,-93 -141,164 -106,57 177,128 300,145 233,186 106,128 212,110 371,221 180,53 142,-71 h 211 l 124,-75 145,-146 177,-17 159,-18 176,-75 181,-18 -234,-163 516,-97 181,35 194,190 h 212 l -106,128 159,71 141,-93 141,313 110,278 124,164 190,127 123,18 141,128 106,168 163,92 177,93 -18,238 -322,-17 -141,-203 -260,110 -177,185 -181,128 h -211 l -212,-110 -335,35 -340,18 -357,93 -300,35 -194,207 -252,164 -229,35 -304,-18 -336,-75 -176,-17 -230,-111 -233,-110 -194,-221 -142,128 -229,36 -141,242 -163,128 -106,238 -194,146 -141,115 -177,-278 -212,110 -127,-168 -124,146 -265,-53 -53,-110 124,-221 v -238 l -71,-168 h -176 l -177,128 -198,58 -229,-93 -283,-181 -22,331 -212,-35 -269,17 -194,164 -300,-181 -176,-40 -176,75 -164,185 -158,128 17,216 v 146 l -176,132 h -230 l -251,-132 -106,22 -123,-168 -195,93 -251,-35 -318,-186 -233,-70 -212,-40 -194,40 -194,-18 -163,-256 -212,-22 -234,-150 159,-163 -106,-181 -177,-57 71,-221 -269,22 -176,-79 -230,114 -322,-185 -159,-313 -229,128 35,-274 -286,-145 -265,79 -159,-35 -70,-203 -300,-238 -287,-168 35,-256 194,-309 146,-212 z"
   id="path60"
   inkscape:connector-curvature="0"
   style="fill:none;stroke:#000000;stroke-width:18;stroke-linecap:round;stroke-linejoin:round" />
        </g>
       </g>
      </g>
     </g>
    </g>
   </g>
  </g>
 </g>
</svg>