<?xml version="1.0" encoding="UTF-8" standalone="no"?>
<svg
   xmlns:ooo="http://xml.openoffice.org/svg/export"
   xmlns:dc="http://purl.org/dc/elements/1.1/"
   xmlns:cc="http://creativecommons.org/ns#"
   xmlns:rdf="http://www.w3.org/1999/02/22-rdf-syntax-ns#"
   xmlns:svg="http://www.w3.org/2000/svg"
   xmlns="http://www.w3.org/2000/svg"
   xmlns:sodipodi="http://sodipodi.sourceforge.net/DTD/sodipodi-0.dtd"
   xmlns:inkscape="http://www.inkscape.org/namespaces/inkscape"
   version="1.2"
   width="96.75mm"
   height="96.529999mm"
   viewBox="0 0 9675 9652.9999"
   preserveAspectRatio="xMidYMid"
   xml:space="preserve"
   id="svg99"
   sodipodi:docname="lincomem.svg"
   style="fill-rule:evenodd;stroke-width:28.22200012;stroke-linejoin:round"
   inkscape:version="0.92.5 (2060ec1f9f, 2020-04-08)"><metadata
   id="metadata103"><rdf:RDF><cc:Work
       rdf:about=""><dc:format>image/svg+xml</dc:format><dc:type
         rdf:resource="http://purl.org/dc/dcmitype/StillImage" /></cc:Work></rdf:RDF></metadata><sodipodi:namedview
   pagecolor="#ffffff"
   bordercolor="#666666"
   borderopacity="1"
   objecttolerance="10"
   gridtolerance="10"
   guidetolerance="10"
   inkscape:pageopacity="0"
   inkscape:pageshadow="2"
   inkscape:window-width="664"
   inkscape:window-height="487"
   id="namedview101"
   showgrid="false"
   inkscape:zoom="0.2102413"
   inkscape:cx="182.85354"
   inkscape:cy="182.4"
   inkscape:window-x="0"
   inkscape:window-y="0"
   inkscape:window-maximized="0"
   inkscape:current-layer="svg99" />
 <defs
   class="ClipPathGroup"
   id="defs8">
  <clipPath
   id="presentation_clip_path"
   clipPathUnits="userSpaceOnUse">
   <rect
   x="0"
   y="0"
   width="21000"
   height="29700"
   id="rect2" />
  </clipPath>
  <clipPath
   id="presentation_clip_path_shrink"
   clipPathUnits="userSpaceOnUse">
   <rect
   x="21"
   y="29"
   width="20958"
   height="29641"
   id="rect5" />
  </clipPath>
 </defs>
 <defs
   class="TextShapeIndex"
   id="defs12">
  <g
   ooo:slide="id1"
   ooo:id-list="id3"
   id="g10" />
 </defs>
 <defs
   class="EmbeddedBulletChars"
   id="defs44">
  <g
   id="bullet-char-template-57356"
   transform="matrix(4.8828125e-4,0,0,-4.8828125e-4,0,0)">
   <path
   d="M 580,1141 1163,571 580,0 -4,571 Z"
   id="path14"
   inkscape:connector-curvature="0" />
  </g>
  <g
   id="bullet-char-template-57354"
   transform="matrix(4.8828125e-4,0,0,-4.8828125e-4,0,0)">
   <path
   d="M 8,1128 H 1137 V 0 H 8 Z"
   id="path17"
   inkscape:connector-curvature="0" />
  </g>
  <g
   id="bullet-char-template-10146"
   transform="matrix(4.8828125e-4,0,0,-4.8828125e-4,0,0)">
   <path
   d="M 174,0 602,739 174,1481 1456,739 Z M 1358,739 309,1346 659,739 Z"
   id="path20"
   inkscape:connector-curvature="0" />
  </g>
  <g
   id="bullet-char-template-10132"
   transform="matrix(4.8828125e-4,0,0,-4.8828125e-4,0,0)">
   <path
   d="M 2015,739 1276,0 H 717 l 543,543 H 174 v 393 h 1086 l -543,545 h 557 z"
   id="path23"
   inkscape:connector-curvature="0" />
  </g>
  <g
   id="bullet-char-template-10007"
   transform="matrix(4.8828125e-4,0,0,-4.8828125e-4,0,0)">
   <path
   d="m 0,-2 c -7,16 -16,29 -25,39 l 381,530 c -94,256 -141,385 -141,387 0,25 13,38 40,38 9,0 21,-2 34,-5 21,4 42,12 65,25 l 27,-13 111,-251 280,301 64,-25 24,25 c 21,-10 41,-24 62,-43 C 886,937 835,863 770,784 769,783 710,716 594,584 L 774,223 c 0,-27 -21,-55 -63,-84 l 16,-20 C 717,90 699,76 672,76 641,76 570,178 457,381 L 164,-76 c -22,-34 -53,-51 -92,-51 -42,0 -63,17 -64,51 -7,9 -10,24 -10,44 0,9 1,19 2,30 z"
   id="path26"
   inkscape:connector-curvature="0" />
  </g>
  <g
   id="bullet-char-template-10004"
   transform="matrix(4.8828125e-4,0,0,-4.8828125e-4,0,0)">
   <path
   d="M 285,-33 C 182,-33 111,30 74,156 52,228 41,333 41,471 c 0,78 14,145 41,201 34,71 87,106 158,106 53,0 88,-31 106,-94 l 23,-176 c 8,-64 28,-97 59,-98 l 735,706 c 11,11 33,17 66,17 42,0 63,-15 63,-46 V 965 c 0,-36 -10,-64 -30,-84 L 442,47 C 390,-6 338,-33 285,-33 Z"
   id="path29"
   inkscape:connector-curvature="0" />
  </g>
  <g
   id="bullet-char-template-9679"
   transform="matrix(4.8828125e-4,0,0,-4.8828125e-4,0,0)">
   <path
   d="M 813,0 C 632,0 489,54 383,161 276,268 223,411 223,592 c 0,181 53,324 160,431 106,107 249,161 430,161 179,0 323,-54 432,-161 108,-107 162,-251 162,-431 0,-180 -54,-324 -162,-431 C 1136,54 992,0 813,0 Z"
   id="path32"
   inkscape:connector-curvature="0" />
  </g>
  <g
   id="bullet-char-template-8226"
   transform="matrix(4.8828125e-4,0,0,-4.8828125e-4,0,0)">
   <path
   d="m 346,457 c -73,0 -137,26 -191,78 -54,51 -81,114 -81,188 0,73 27,136 81,188 54,52 118,78 191,78 73,0 134,-26 185,-79 51,-51 77,-114 77,-187 0,-75 -25,-137 -76,-188 -50,-52 -112,-78 -186,-78 z"
   id="path35"
   inkscape:connector-curvature="0" />
  </g>
  <g
   id="bullet-char-template-8211"
   transform="matrix(4.8828125e-4,0,0,-4.8828125e-4,0,0)">
   <path
   d="M -4,459 H 1135 V 606 H -4 Z"
   id="path38"
   inkscape:connector-curvature="0" />
  </g>
  <g
   id="bullet-char-template-61548"
   transform="matrix(4.8828125e-4,0,0,-4.8828125e-4,0,0)">
   <path
   d="m 173,740 c 0,163 58,303 173,419 116,115 255,173 419,173 163,0 302,-58 418,-173 116,-116 174,-256 174,-419 0,-163 -58,-303 -174,-418 C 1067,206 928,148 765,148 601,148 462,206 346,322 231,437 173,577 173,740 Z"
   id="path41"
   inkscape:connector-curvature="0" />
  </g>
 </defs>
 <g
   id="g49"
   transform="translate(-5662,-10023)">
  <g
   id="id2"
   class="Master_Slide">
   <g
   id="bg-id2"
   class="Background" />
   <g
   id="bo-id2"
   class="BackgroundObjects" />
  </g>
 </g>
 <g
   class="SlideGroup"
   id="g97"
   transform="translate(-5662,-10023)">
  <g
   id="g95">
   <g
   id="container-id1">
    <g
   id="id1"
   class="Slide"
   clip-path="url(#presentation_clip_path)">
     <g
   class="Page"
   id="g91">
      <g
   class="Graphic"
   id="g89">
       <g
   id="id3">
        <rect
   class="BoundingBox"
   x="5662"
   y="10023"
   width="9675"
   height="9653"
   id="rect51"
   style="fill:none;stroke:none" />
        <defs
   id="defs56">
         <clipPath
   id="clip_path_1"
   clipPathUnits="userSpaceOnUse">
          <path
   d="m 5666,10032 h 9662 v 9643 H 5666 Z"
   id="path53"
   inkscape:connector-curvature="0" />
         </clipPath>
        </defs>
        <g
   clip-path="url(#clip_path_1)"
   id="g86">
         <path
   d="m 5666,10032 h 9674 v 9648 H 5666 Z"
   id="path58"
   inkscape:connector-curvature="0"
   style="fill:#000000;stroke:none" />
         <path
   d="m 11066,13685 -586,-40 -119,159 -115,18 -18,132 -145,106 -27,141 -185,119 -13,190 -27,247 -40,251 -35,172 h -176 v 256 h -622 l -106,128 106,133 48,128 35,97 14,97 13,176 159,49 132,-62 163,-13 168,-80 53,-97 97,53 9,918 v 587 l 48,30 349,31 13,62 -521,-48 -8,1914 75,-1729 17,-58 49,-22 h 66 l 371,36 83,1853 v -1584 l -4,-494 h -53 l 9,-428 70,-3014 v -127 l 27,-120 44,-79 75,-53 97,-26 z"
   id="path60"
   inkscape:connector-curvature="0"
   style="fill:#ffffff;stroke:none" />
         <path
   d="m 9072,16191 -225,-353 -286,110 -190,-84 -110,-101 -84,-256 -40,-35 -57,-71 h -212 l -57,799 -292,136 -326,133 -124,128 -88,238 -75,123 -220,89 -309,194 -5,344 62,79 119,53 v -194 l 80,-128 110,75 -5,84 -180,609 h 70 l 93,-155 145,-503 93,-379 84,-101 22,88 -13,145 22,194 84,-339 198,-556 150,48 5,111 158,159 27,119 -18,167 5,146 26,35 79,-137 40,-92 h 40 l 172,114 -335,-450 v -92 l 26,-9 -185,-221 31,-30 220,-31 516,789 680,667 507,533 194,-247 40,-1910 -278,172 -785,-110 -728,-18 1019,-115 z"
   id="path62"
   inkscape:connector-curvature="0"
   style="fill:#ffffff;stroke:none" />
         <path
   d="m 12408,10297 -252,44 -212,83 -8,36 -102,-27 -132,40 -62,-53 -150,181 176,-44 -17,128 h -106 l -40,-9 -75,-13 -17,114 -75,40 35,57 128,9 -27,-44 89,-48 127,83 45,-260 h 66 v -48 h 48 v 39 h 36 l 53,-79 h 75 v 62 l 119,44 128,-27 17,18 v 124 h -172 l -13,-67 h -199 l -101,371 h -115 l -70,110 h -44 l -40,-123 -35,66 -18,53 -5,53 -4,70 -4,62 v 110 h -67 v 45 l 133,48 -62,371 9,44 18,22 26,17 26,9 36,5 159,-102 57,66 -84,128 27,18 123,-53 27,-9 203,44 -9,-61 -5,-40 -17,-40 -14,-22 -26,-13 -128,-5 -22,-61 71,-159 75,-44 39,-27 v -57 l 102,-102 h 35 l 35,67 -48,26 v 119 l 97,-88 4,-110 75,-106 -4,-27 -159,53 -124,-119 128,-101 102,-150 75,-89 75,-48 66,-4 128,-106 v -115 l -57,-115 v -220 l -97,31 -58,4 -4,71 57,8 -57,44 v 102 l 26,48 h -26 l -13,-22 17,-123 -4,-62 -80,-22 z"
   id="path64"
   inkscape:connector-curvature="0"
   style="fill:#ffffff;stroke:none" />
         <path
   d="m 12858,10363 22,4 88,62 31,75 9,48 -67,-53 -22,-48 -83,-66 z"
   id="path66"
   inkscape:connector-curvature="0"
   style="fill:#ffffff;stroke:none" />
         <path
   d="m 12791,10416 84,145 -97,88 58,124 -23,57 -88,142 -9,247 89,-22 17,-45 62,-26 22,-79 53,-27 v -225 l 71,75 v 154 l -62,53 -80,146 -101,66 -31,84 -53,190 -62,39 -79,62 -35,-26 -40,-18 93,265 -44,4 -67,-57 -136,62 -31,-36 -97,44 8,-110 181,-88 -8,-185 17,-49 93,-123 -9,194 31,13 97,-106 40,-128 -71,-132 40,-150 145,-199 -22,-110 -53,-110 40,-203 z"
   id="path68"
   inkscape:connector-curvature="0"
   style="fill:#ffffff;stroke:none" />
         <path
   d="m 11733,12172 163,-62 66,48 119,-48 -57,238 -75,31 -106,93 v 35 l 309,-102 75,-136 189,-172 18,-71 v -22 l -401,335 203,-282 35,-40 44,-35 44,-31 57,-31 124,-31 35,35 -35,164 -93,145 -181,119 31,36 402,-225 -44,-265 h 79 l 128,207 115,9 141,53 -282,185 v 102 l 35,-18 h 154 l 128,-66 -362,379 h -229 v 128 l 176,9 437,-278 516,-88 168,71 4,39 40,40 h -123 l -80,57 137,142 h -494 l 35,53 291,132 -573,-185 66,158 -181,-79 -220,-4 -159,158 754,190 -719,-75 v 22 l 719,238 -640,-48 v -53 l -388,-79 -260,-186 -300,80 -234,-62 -62,-22 -61,13 -402,-53 h -150 l -4,150 203,97 v 44 l -106,36 -14,101 h -269 v -106 l -145,-40 -93,159 -216,5 -124,211 -97,71 -61,40 13,31 9,35 -5,57 22,-17 22,-14 h 40 l 27,22 8,40 -66,93 -97,-5 -22,-8 -31,-67 -31,-66 -22,-66 -17,-57 30,-71 18,-40 22,-53 -75,142 13,123 49,97 26,128 -8,93 -14,66 -48,26 h -40 l -13,-30 -9,-67 -9,-57 -106,-185 -31,-80 -4,-39 -18,66 14,44 13,115 -5,88 -30,79 -45,-4 -35,-22 -26,-35 -14,-36 -13,-48 -26,-49 -31,-26 -40,-31 -17,-31 44,-349 4,-26 18,-27 472,-251 79,-35 75,-27 84,-13 93,4 304,27 154,-203 36,-35 48,-22 49,-18 300,-22 h 300 l 423,-93 93,-185 132,-9 -57,137 318,-84 75,-168 53,9 185,-123 -5,-40 -582,203 -141,22 -40,-35 -39,-31 -18,-35 -18,-40 -4,-40 v -48 -45 l 26,-39 44,-36 67,-61 22,-62 h -58 l -53,53 h -35 l -18,-13 -8,-18 z"
   id="path70"
   inkscape:connector-curvature="0"
   style="fill:#ffffff;stroke:none" />
         <path
   d="m 14093,12926 v 79 l -53,9 -40,5 31,57 -137,-22 -83,-9 225,168 -199,4 -53,9 -22,4 26,80 -114,13 4,26 -35,31 -260,-150 128,14 h 158 l -79,-53 154,-14 36,-97 -159,-101 172,-13 243,4 -18,-57 35,17 z"
   id="path72"
   inkscape:connector-curvature="0"
   style="fill:#ffffff;stroke:none" />
         <path
   d="m 12668,13760 141,-128 79,4 98,-97 180,-53 128,13 71,-13 132,9 318,-40 309,-26 247,44 256,221 17,211 -326,-286 -177,-84 -114,-49 -53,44 150,177 229,176 150,124 124,194 v 507 l -115,-423 -234,-296 159,309 4,349 27,295 -57,225 -164,305 -181,185 -211,9 -155,-14 -335,-141 168,-66 176,-40 -9,115 265,-22 190,-207 198,-658 -35,-344 -172,-287 -93,-75 -106,-97 31,133 9,181 -119,441 -163,304 h -146 l 97,494 53,22 -172,40 -49,-445 -57,-164 84,-39 132,-128 53,-287 v -115 l 80,-26 v -265 l -62,-335 -110,-49 -97,80 26,304 -110,-229 -97,163 189,503 -57,198 62,186 -93,35 -419,-1116 -26,-5 357,1337 -132,221 150,247 -380,75 13,-552 v -547 l -79,-463 -88,-225 z"
   id="path74"
   inkscape:connector-curvature="0"
   style="fill:#ffffff;stroke:none" />
         <path
   d="m 12981,15586 -9,155 128,322 88,128 93,1310 v -1381 l 353,88 -446,-158 -123,-221 -53,-247 z"
   id="path76"
   inkscape:connector-curvature="0"
   style="fill:#ffffff;stroke:none" />
         <path
   d="m 12258,13358 -1006,-70 88,39 v 71 l -88,49 -203,264 798,71 861,-44 -1350,-14 -53,-35 132,-344 z"
   id="path78"
   inkscape:connector-curvature="0"
   style="fill:#ffffff;stroke:none" />
         <path
   d="m 6659,15260 150,-150 596,-190 542,-13 212,225 185,419 -150,-84 -75,-203 -114,-220 -261,39 -110,243 -44,97 -79,88 -146,66 -172,27 -128,40 -66,31 h -58 l -53,-18 -17,-35 9,-45 44,-52 62,-31 92,-27 93,-17 79,-62 27,-88 -36,-23 -163,9 -106,18 -57,9 -44,4 -27,66 -44,58 -26,53 -18,57 -40,79 -26,14 h -44 l -18,-36 -9,-70 -4,-40 v -48 z"
   id="path80"
   inkscape:connector-curvature="0"
   style="fill:#ffffff;stroke:none" />
         <path
   d="m 7978,14876 658,-181 136,27 322,-93 h 142 l 92,-132 335,-31 v 714 l -44,111 -207,-71 -97,-115 -287,9 119,190 h -132 l -296,-318 -207,89 287,291 -141,84 -517,-574 z"
   id="path82"
   inkscape:connector-curvature="0"
   style="fill:#ffffff;stroke:none" />
         <path
   d="m 11565,11532 212,-80 119,14 66,8 h 57 l -79,14 115,26 -102,-13 -53,44 -31,40 -26,39 -49,36 -70,13 -53,-13 13,84 -26,-58 -22,-39 v -40 z"
   id="path84"
   inkscape:connector-curvature="0"
   style="fill:#000000;stroke:none" />
        </g>
       </g>
      </g>
     </g>
    </g>
   </g>
  </g>
 </g>
</svg>