<?xml version="1.0" encoding="UTF-8" standalone="no"?>
<svg
   xmlns:ooo="http://xml.openoffice.org/svg/export"
   xmlns:dc="http://purl.org/dc/elements/1.1/"
   xmlns:cc="http://creativecommons.org/ns#"
   xmlns:rdf="http://www.w3.org/1999/02/22-rdf-syntax-ns#"
   xmlns:svg="http://www.w3.org/2000/svg"
   xmlns="http://www.w3.org/2000/svg"
   xmlns:sodipodi="http://sodipodi.sourceforge.net/DTD/sodipodi-0.dtd"
   xmlns:inkscape="http://www.inkscape.org/namespaces/inkscape"
   version="1.2"
   width="98.909996mm"
   height="80.080002mm"
   viewBox="0 0 9890.9996 8008.0002"
   preserveAspectRatio="xMidYMid"
   xml:space="preserve"
   id="svg84"
   sodipodi:docname="lithuani.svg"
   style="fill-rule:evenodd;stroke-width:28.22200012;stroke-linejoin:round"
   inkscape:version="0.92.5 (2060ec1f9f, 2020-04-08)"><metadata
   id="metadata88"><rdf:RDF><cc:Work
       rdf:about=""><dc:format>image/svg+xml</dc:format><dc:type
         rdf:resource="http://purl.org/dc/dcmitype/StillImage" /></cc:Work></rdf:RDF></metadata><sodipodi:namedview
   pagecolor="#ffffff"
   bordercolor="#666666"
   borderopacity="1"
   objecttolerance="10"
   gridtolerance="10"
   guidetolerance="10"
   inkscape:pageopacity="0"
   inkscape:pageshadow="2"
   inkscape:window-width="664"
   inkscape:window-height="487"
   id="namedview86"
   showgrid="false"
   inkscape:zoom="0.2102413"
   inkscape:cx="186.93543"
   inkscape:cy="151.33228"
   inkscape:window-x="0"
   inkscape:window-y="0"
   inkscape:window-maximized="0"
   inkscape:current-layer="svg84" />
 <defs
   class="ClipPathGroup"
   id="defs8">
  <clipPath
   id="presentation_clip_path"
   clipPathUnits="userSpaceOnUse">
   <rect
   x="0"
   y="0"
   width="21000"
   height="29700"
   id="rect2" />
  </clipPath>
  <clipPath
   id="presentation_clip_path_shrink"
   clipPathUnits="userSpaceOnUse">
   <rect
   x="21"
   y="29"
   width="20958"
   height="29641"
   id="rect5" />
  </clipPath>
 </defs>
 <defs
   class="TextShapeIndex"
   id="defs12">
  <g
   ooo:slide="id1"
   ooo:id-list="id3"
   id="g10" />
 </defs>
 <defs
   class="EmbeddedBulletChars"
   id="defs44">
  <g
   id="bullet-char-template-57356"
   transform="matrix(4.8828125e-4,0,0,-4.8828125e-4,0,0)">
   <path
   d="M 580,1141 1163,571 580,0 -4,571 Z"
   id="path14"
   inkscape:connector-curvature="0" />
  </g>
  <g
   id="bullet-char-template-57354"
   transform="matrix(4.8828125e-4,0,0,-4.8828125e-4,0,0)">
   <path
   d="M 8,1128 H 1137 V 0 H 8 Z"
   id="path17"
   inkscape:connector-curvature="0" />
  </g>
  <g
   id="bullet-char-template-10146"
   transform="matrix(4.8828125e-4,0,0,-4.8828125e-4,0,0)">
   <path
   d="M 174,0 602,739 174,1481 1456,739 Z M 1358,739 309,1346 659,739 Z"
   id="path20"
   inkscape:connector-curvature="0" />
  </g>
  <g
   id="bullet-char-template-10132"
   transform="matrix(4.8828125e-4,0,0,-4.8828125e-4,0,0)">
   <path
   d="M 2015,739 1276,0 H 717 l 543,543 H 174 v 393 h 1086 l -543,545 h 557 z"
   id="path23"
   inkscape:connector-curvature="0" />
  </g>
  <g
   id="bullet-char-template-10007"
   transform="matrix(4.8828125e-4,0,0,-4.8828125e-4,0,0)">
   <path
   d="m 0,-2 c -7,16 -16,29 -25,39 l 381,530 c -94,256 -141,385 -141,387 0,25 13,38 40,38 9,0 21,-2 34,-5 21,4 42,12 65,25 l 27,-13 111,-251 280,301 64,-25 24,25 c 21,-10 41,-24 62,-43 C 886,937 835,863 770,784 769,783 710,716 594,584 L 774,223 c 0,-27 -21,-55 -63,-84 l 16,-20 C 717,90 699,76 672,76 641,76 570,178 457,381 L 164,-76 c -22,-34 -53,-51 -92,-51 -42,0 -63,17 -64,51 -7,9 -10,24 -10,44 0,9 1,19 2,30 z"
   id="path26"
   inkscape:connector-curvature="0" />
  </g>
  <g
   id="bullet-char-template-10004"
   transform="matrix(4.8828125e-4,0,0,-4.8828125e-4,0,0)">
   <path
   d="M 285,-33 C 182,-33 111,30 74,156 52,228 41,333 41,471 c 0,78 14,145 41,201 34,71 87,106 158,106 53,0 88,-31 106,-94 l 23,-176 c 8,-64 28,-97 59,-98 l 735,706 c 11,11 33,17 66,17 42,0 63,-15 63,-46 V 965 c 0,-36 -10,-64 -30,-84 L 442,47 C 390,-6 338,-33 285,-33 Z"
   id="path29"
   inkscape:connector-curvature="0" />
  </g>
  <g
   id="bullet-char-template-9679"
   transform="matrix(4.8828125e-4,0,0,-4.8828125e-4,0,0)">
   <path
   d="M 813,0 C 632,0 489,54 383,161 276,268 223,411 223,592 c 0,181 53,324 160,431 106,107 249,161 430,161 179,0 323,-54 432,-161 108,-107 162,-251 162,-431 0,-180 -54,-324 -162,-431 C 1136,54 992,0 813,0 Z"
   id="path32"
   inkscape:connector-curvature="0" />
  </g>
  <g
   id="bullet-char-template-8226"
   transform="matrix(4.8828125e-4,0,0,-4.8828125e-4,0,0)">
   <path
   d="m 346,457 c -73,0 -137,26 -191,78 -54,51 -81,114 -81,188 0,73 27,136 81,188 54,52 118,78 191,78 73,0 134,-26 185,-79 51,-51 77,-114 77,-187 0,-75 -25,-137 -76,-188 -50,-52 -112,-78 -186,-78 z"
   id="path35"
   inkscape:connector-curvature="0" />
  </g>
  <g
   id="bullet-char-template-8211"
   transform="matrix(4.8828125e-4,0,0,-4.8828125e-4,0,0)">
   <path
   d="M -4,459 H 1135 V 606 H -4 Z"
   id="path38"
   inkscape:connector-curvature="0" />
  </g>
  <g
   id="bullet-char-template-61548"
   transform="matrix(4.8828125e-4,0,0,-4.8828125e-4,0,0)">
   <path
   d="m 173,740 c 0,163 58,303 173,419 116,115 255,173 419,173 163,0 302,-58 418,-173 116,-116 174,-256 174,-419 0,-163 -58,-303 -174,-418 C 1067,206 928,148 765,148 601,148 462,206 346,322 231,437 173,577 173,740 Z"
   id="path41"
   inkscape:connector-curvature="0" />
  </g>
 </defs>
 <g
   id="g49"
   transform="translate(-5554,-10846)">
  <g
   id="id2"
   class="Master_Slide">
   <g
   id="bg-id2"
   class="Background" />
   <g
   id="bo-id2"
   class="BackgroundObjects" />
  </g>
 </g>
 <g
   class="SlideGroup"
   id="g82"
   transform="translate(-5554,-10846)">
  <g
   id="g80">
   <g
   id="container-id1">
    <g
   id="id1"
   class="Slide"
   clip-path="url(#presentation_clip_path)">
     <g
   class="Page"
   id="g76">
      <g
   class="Graphic"
   id="g74">
       <g
   id="id3">
        <rect
   class="BoundingBox"
   x="5554"
   y="10846"
   width="9891"
   height="8008"
   id="rect51"
   style="fill:none;stroke:none" />
        <defs
   id="defs56">
         <clipPath
   id="clip_path_1"
   clipPathUnits="userSpaceOnUse">
          <path
   d="m 5554,10846 h 9890 v 8007 H 5554 Z"
   id="path53"
   inkscape:connector-curvature="0" />
         </clipPath>
        </defs>
        <g
   clip-path="url(#clip_path_1)"
   id="g58" />
        <defs
   id="defs63">
         <clipPath
   id="clip_path_2"
   clipPathUnits="userSpaceOnUse">
          <path
   d="m 5563,10846 h 9881 v 7999 H 5563 Z"
   id="path60"
   inkscape:connector-curvature="0" />
         </clipPath>
        </defs>
        <g
   clip-path="url(#clip_path_2)"
   id="g69">
         <path
   d="m 6313,15174 -137,-39 -40,-190 49,-194 -102,-186 -101,-317 -159,-371 -110,-388 -119,-331 35,-384 101,-247 111,-185 335,-261 229,-57 212,-128 287,-159 379,-181 278,80 230,57 366,-44 282,9 296,17 269,-132 150,-110 176,22 80,44 234,-110 194,-75 406,-9 313,57 397,80 168,-172 119,-212 251,-168 155,-18 119,36 66,278 35,194 -18,93 323,52 269,-136 h 361 l 309,84 128,176 305,119 13,66 313,172 146,124 335,-115 273,-44 243,362 110,145 h 340 l 66,177 -62,225 -66,243 -167,203 128,176 105,163 18,115 -22,119 -190,9 -39,194 -155,203 -57,221 -57,110 -239,84 -167,75 -75,185 -9,238 48,168 155,335 -102,481 -92,340 150,344 176,437 -185,159 -238,119 -371,-102 -313,-57 -49,203 -57,216 -181,287 -185,71 -291,158 -84,195 -221,26 -472,-128 -397,146 -296,176 -185,-75 49,-415 -58,-127 -304,-203 -159,-75 49,-195 -305,-203 -260,-132 -424,-110 -317,66 -366,26 8,-61 -83,-344 101,-375 93,-331 -111,-270 -176,-145 -128,-185 -216,-177 -265,-66 -300,132 -194,119 -326,-83 -305,-111 -220,-92 -58,-102 -145,-123 z"
   id="path65"
   inkscape:connector-curvature="0"
   style="fill:#037c03;stroke:none" />
         <path
   d="m 6313,15174 -137,-39 -40,-190 49,-194 -102,-186 -101,-317 -159,-371 -110,-388 -119,-331 35,-384 101,-247 111,-185 335,-261 229,-57 212,-128 287,-159 379,-181 278,80 230,57 366,-44 282,9 296,17 269,-132 150,-110 176,22 80,44 234,-110 194,-75 406,-9 313,57 397,80 168,-172 119,-212 251,-168 155,-18 119,36 66,278 35,194 -18,93 323,52 269,-136 h 361 l 309,84 128,176 305,119 13,66 313,172 146,124 335,-115 273,-44 243,362 110,145 h 340 l 66,177 -62,225 -66,243 -167,203 128,176 105,163 18,115 -22,119 -190,9 -39,194 -155,203 -57,221 -57,110 -239,84 -167,75 -75,185 -9,238 48,168 155,335 -102,481 -92,340 150,344 176,437 -185,159 -238,119 -371,-102 -313,-57 -49,203 -57,216 -181,287 -185,71 -291,158 -84,195 -221,26 -472,-128 -397,146 -296,176 -185,-75 49,-415 -58,-127 -304,-203 -159,-75 49,-195 -305,-203 -260,-132 -424,-110 -317,66 -366,26 8,-61 -83,-344 101,-375 93,-331 -111,-270 -176,-145 -128,-185 -216,-177 -265,-66 -300,132 -194,119 -326,-83 -305,-111 -220,-92 -58,-102 -145,-123 z"
   id="path67"
   inkscape:connector-curvature="0"
   style="fill:none;stroke:#000000;stroke-width:35;stroke-linecap:round;stroke-linejoin:round" />
        </g>
        <g
   clip-path="url(#clip_path_1)"
   id="g71" />
       </g>
      </g>
     </g>
    </g>
   </g>
  </g>
 </g>
</svg>