<?xml version="1.0" encoding="UTF-8" standalone="no"?>
<svg
   xmlns:ooo="http://xml.openoffice.org/svg/export"
   xmlns:dc="http://purl.org/dc/elements/1.1/"
   xmlns:cc="http://creativecommons.org/ns#"
   xmlns:rdf="http://www.w3.org/1999/02/22-rdf-syntax-ns#"
   xmlns:svg="http://www.w3.org/2000/svg"
   xmlns="http://www.w3.org/2000/svg"
   xmlns:sodipodi="http://sodipodi.sourceforge.net/DTD/sodipodi-0.dtd"
   xmlns:inkscape="http://www.inkscape.org/namespaces/inkscape"
   version="1.2"
   width="139.08mm"
   height="71.349998mm"
   viewBox="0 0 13908 7134.9998"
   preserveAspectRatio="xMidYMid"
   xml:space="preserve"
   id="svg104"
   sodipodi:docname="mtrushmo.svg"
   style="fill-rule:evenodd;stroke-width:28.22200012;stroke-linejoin:round"
   inkscape:version="0.92.5 (2060ec1f9f, 2020-04-08)"><metadata
   id="metadata108"><rdf:RDF><cc:Work
       rdf:about=""><dc:format>image/svg+xml</dc:format><dc:type
         rdf:resource="http://purl.org/dc/dcmitype/StillImage" /></cc:Work></rdf:RDF></metadata><sodipodi:namedview
   pagecolor="#ffffff"
   bordercolor="#666666"
   borderopacity="1"
   objecttolerance="10"
   gridtolerance="10"
   guidetolerance="10"
   inkscape:pageopacity="0"
   inkscape:pageshadow="2"
   inkscape:window-width="664"
   inkscape:window-height="487"
   id="namedview106"
   showgrid="false"
   inkscape:zoom="0.2102413"
   inkscape:cx="262.82835"
   inkscape:cy="134.81575"
   inkscape:window-x="0"
   inkscape:window-y="0"
   inkscape:window-maximized="0"
   inkscape:current-layer="svg104" />
 <defs
   class="ClipPathGroup"
   id="defs8">
  <clipPath
   id="presentation_clip_path"
   clipPathUnits="userSpaceOnUse">
   <rect
   x="0"
   y="0"
   width="21000"
   height="29700"
   id="rect2" />
  </clipPath>
  <clipPath
   id="presentation_clip_path_shrink"
   clipPathUnits="userSpaceOnUse">
   <rect
   x="21"
   y="29"
   width="20958"
   height="29641"
   id="rect5" />
  </clipPath>
 </defs>
 <defs
   class="TextShapeIndex"
   id="defs12">
  <g
   ooo:slide="id1"
   ooo:id-list="id3"
   id="g10" />
 </defs>
 <defs
   class="EmbeddedBulletChars"
   id="defs44">
  <g
   id="bullet-char-template-57356"
   transform="matrix(4.8828125e-4,0,0,-4.8828125e-4,0,0)">
   <path
   d="M 580,1141 1163,571 580,0 -4,571 Z"
   id="path14"
   inkscape:connector-curvature="0" />
  </g>
  <g
   id="bullet-char-template-57354"
   transform="matrix(4.8828125e-4,0,0,-4.8828125e-4,0,0)">
   <path
   d="M 8,1128 H 1137 V 0 H 8 Z"
   id="path17"
   inkscape:connector-curvature="0" />
  </g>
  <g
   id="bullet-char-template-10146"
   transform="matrix(4.8828125e-4,0,0,-4.8828125e-4,0,0)">
   <path
   d="M 174,0 602,739 174,1481 1456,739 Z M 1358,739 309,1346 659,739 Z"
   id="path20"
   inkscape:connector-curvature="0" />
  </g>
  <g
   id="bullet-char-template-10132"
   transform="matrix(4.8828125e-4,0,0,-4.8828125e-4,0,0)">
   <path
   d="M 2015,739 1276,0 H 717 l 543,543 H 174 v 393 h 1086 l -543,545 h 557 z"
   id="path23"
   inkscape:connector-curvature="0" />
  </g>
  <g
   id="bullet-char-template-10007"
   transform="matrix(4.8828125e-4,0,0,-4.8828125e-4,0,0)">
   <path
   d="m 0,-2 c -7,16 -16,29 -25,39 l 381,530 c -94,256 -141,385 -141,387 0,25 13,38 40,38 9,0 21,-2 34,-5 21,4 42,12 65,25 l 27,-13 111,-251 280,301 64,-25 24,25 c 21,-10 41,-24 62,-43 C 886,937 835,863 770,784 769,783 710,716 594,584 L 774,223 c 0,-27 -21,-55 -63,-84 l 16,-20 C 717,90 699,76 672,76 641,76 570,178 457,381 L 164,-76 c -22,-34 -53,-51 -92,-51 -42,0 -63,17 -64,51 -7,9 -10,24 -10,44 0,9 1,19 2,30 z"
   id="path26"
   inkscape:connector-curvature="0" />
  </g>
  <g
   id="bullet-char-template-10004"
   transform="matrix(4.8828125e-4,0,0,-4.8828125e-4,0,0)">
   <path
   d="M 285,-33 C 182,-33 111,30 74,156 52,228 41,333 41,471 c 0,78 14,145 41,201 34,71 87,106 158,106 53,0 88,-31 106,-94 l 23,-176 c 8,-64 28,-97 59,-98 l 735,706 c 11,11 33,17 66,17 42,0 63,-15 63,-46 V 965 c 0,-36 -10,-64 -30,-84 L 442,47 C 390,-6 338,-33 285,-33 Z"
   id="path29"
   inkscape:connector-curvature="0" />
  </g>
  <g
   id="bullet-char-template-9679"
   transform="matrix(4.8828125e-4,0,0,-4.8828125e-4,0,0)">
   <path
   d="M 813,0 C 632,0 489,54 383,161 276,268 223,411 223,592 c 0,181 53,324 160,431 106,107 249,161 430,161 179,0 323,-54 432,-161 108,-107 162,-251 162,-431 0,-180 -54,-324 -162,-431 C 1136,54 992,0 813,0 Z"
   id="path32"
   inkscape:connector-curvature="0" />
  </g>
  <g
   id="bullet-char-template-8226"
   transform="matrix(4.8828125e-4,0,0,-4.8828125e-4,0,0)">
   <path
   d="m 346,457 c -73,0 -137,26 -191,78 -54,51 -81,114 -81,188 0,73 27,136 81,188 54,52 118,78 191,78 73,0 134,-26 185,-79 51,-51 77,-114 77,-187 0,-75 -25,-137 -76,-188 -50,-52 -112,-78 -186,-78 z"
   id="path35"
   inkscape:connector-curvature="0" />
  </g>
  <g
   id="bullet-char-template-8211"
   transform="matrix(4.8828125e-4,0,0,-4.8828125e-4,0,0)">
   <path
   d="M -4,459 H 1135 V 606 H -4 Z"
   id="path38"
   inkscape:connector-curvature="0" />
  </g>
  <g
   id="bullet-char-template-61548"
   transform="matrix(4.8828125e-4,0,0,-4.8828125e-4,0,0)">
   <path
   d="m 173,740 c 0,163 58,303 173,419 116,115 255,173 419,173 163,0 302,-58 418,-173 116,-116 174,-256 174,-419 0,-163 -58,-303 -174,-418 C 1067,206 928,148 765,148 601,148 462,206 346,322 231,437 173,577 173,740 Z"
   id="path41"
   inkscape:connector-curvature="0" />
  </g>
 </defs>
 <g
   id="g49"
   transform="translate(-3546,-11282)">
  <g
   id="id2"
   class="Master_Slide">
   <g
   id="bg-id2"
   class="Background" />
   <g
   id="bo-id2"
   class="BackgroundObjects" />
  </g>
 </g>
 <g
   class="SlideGroup"
   id="g102"
   transform="translate(-3546,-11282)">
  <g
   id="g100">
   <g
   id="container-id1">
    <g
   id="id1"
   class="Slide"
   clip-path="url(#presentation_clip_path)">
     <g
   class="Page"
   id="g96">
      <g
   class="Graphic"
   id="g94">
       <g
   id="id3">
        <rect
   class="BoundingBox"
   x="3546"
   y="11282"
   width="13908"
   height="7135"
   id="rect51"
   style="fill:none;stroke:none" />
        <defs
   id="defs56">
         <clipPath
   id="clip_path_1"
   clipPathUnits="userSpaceOnUse">
          <path
   d="m 3546,11282 h 13907 v 7134 H 3546 Z"
   id="path53"
   inkscape:connector-curvature="0" />
         </clipPath>
        </defs>
        <g
   clip-path="url(#clip_path_1)"
   id="g58" />
        <defs
   id="defs63">
         <clipPath
   id="clip_path_2"
   clipPathUnits="userSpaceOnUse">
          <path
   d="m 3546,11282 h 13899 v 7126 H 3546 Z"
   id="path60"
   inkscape:connector-curvature="0" />
         </clipPath>
        </defs>
        <g
   clip-path="url(#clip_path_2)"
   id="g89">
         <path
   d="m 3546,11273 v 7140 h 13904 l 8,-5935 -383,-49 -199,-22 -450,124 -291,79 -542,569 h -997 l -230,-8 -772,172 -233,163 8,269 -185,322 -256,84 -114,40 -128,44 -106,35 -58,-53 -127,-13 -84,-79 4,-120 -123,-158 -102,-111 -128,9 -123,-9 -93,-4 -70,4 -62,13 44,-79 -185,4 -234,9 -212,9 -168,5 -189,13 -75,-239 -31,-88 13,-22 18,-57 -97,-150 v -111 l -119,-88 -168,-128 -247,-198 -110,-89 -110,-88 -53,-40 -40,-17 h -71 -88 l -115,4 -132,5 -57,-9 -66,-18 h -208 l -62,-26 -127,26 -80,13 -88,22 -93,18 -97,22 -92,27 -84,-190 40,-62 -155,-185 -84,-84 -92,-101 -71,-89 -66,-79 -71,-75 -61,-35 -89,-53 -88,-49 -110,-66 -88,-58 -97,-57 -137,-18 -115,-4 -97,4 -84,18 -88,27 -88,22 -79,26 -89,22 -101,13 -31,36 -40,53 -44,70 -97,150 -84,62 -79,71 -97,84 -66,83 -97,137 -247,203 -128,22 -168,-79 -93,-75 -66,-49 -119,-79 -132,-93 -172,-154 -454,-283 -225,-141 z"
   id="path65"
   inkscape:connector-curvature="0"
   style="fill:#808080;stroke:none" />
         <path
   d="m 5800,12253 -35,88 -18,57 -18,49 5,66 4,62 9,141 115,-22 v -212 l 26,-40 40,-26 40,-18 h 48 l 44,9 18,13 26,22 -225,49 -4,119 137,-31 v -57 l 57,-13 97,79 66,-26 27,-93 17,-84 18,-88 22,-88 22,-97 -53,22 -79,-49 -49,-9 -92,44 -141,67 z"
   id="path67"
   inkscape:connector-curvature="0"
   style="fill:#000000;stroke:none" />
         <path
   d="m 6590,12125 154,-66 181,-18 62,31 119,101 331,119 17,111 -44,70 -119,75 -265,-22 53,-35 -39,-18 -80,-97 40,-17 119,8 26,-35 -66,-17 -57,-5 h -66 l -62,5 141,154 -203,57 -198,-189 -18,-133 z"
   id="path69"
   inkscape:connector-curvature="0"
   style="fill:#000000;stroke:none" />
         <path
   d="m 6351,13223 -88,-225 -4,-172 163,-26 101,31 h 120 l 92,137 -4,57 -119,18 -18,97 -132,66 167,-5 106,18 h 185 v 27 l -70,17 31,58 -159,-31 -79,-27 h -89 l -110,22 h -93 l -225,137 h -52 v -71 z"
   id="path71"
   inkscape:connector-curvature="0"
   style="fill:#000000;stroke:none" />
         <path
   d="m 7463,11878 115,225 61,-36 36,5 39,48 -79,31 4,75 h 89 l 22,75 -146,53 v 146 l 97,238 -75,455 234,-80 v 71 l -97,22 79,145 111,-105 -115,4 93,-49 180,-83 -13,-93 106,-97 291,-62 -57,-22 h -177 l -172,71 -31,70 -70,-57 -31,101 h -31 l 62,-211 v -133 l 163,-66 -4,35 -97,58 v 39 l 75,-22 13,40 -75,40 -66,57 145,-53 234,-62 -9,-53 88,-75 67,-13 -58,199 53,17 75,-70 h 62 l -40,-97 18,-93 h 57 l 14,194 70,-31 v -198 l 168,-124 h 150 l -283,163 31,115 62,40 88,-132 53,-36 163,-62 h -88 l 97,-17 124,26 -349,124 -62,101 124,-35 v 26 l -251,49 -159,128 v 22 l 194,31 -93,31 h -141 l -163,97 17,97 -163,344 49,27 -75,145 -9,181 44,-128 57,-40 49,45 57,-155 66,-194 98,-26 26,66 238,-133 234,-141 -40,-31 -414,141 238,-158 304,-45 80,27 123,93 -57,61 -93,177 -88,48 -27,75 h -44 l -4,-30 -40,-9 -123,4 39,-48 -141,35 -57,53 -9,-49 168,-84 158,-26 -4,-31 -207,31 -190,115 v 44 h -62 l -26,-66 h -40 l -172,384 -40,-67 -105,142 4,229 119,53 163,260 -282,-163 -79,-185 h -67 l -53,-44 -92,97 -177,335 -44,-31 106,-176 137,-221 -185,-4 -190,233 203,-163 -238,340 v -97 l -89,35 -52,80 75,17 -75,115 h -49 v -88 h -159 l -110,84 -93,-71 -216,-22 58,-57 h 136 l 128,75 66,-53 137,-5 106,-190 -397,128 -485,-70 -102,22 -234,-40 -141,-265 -207,-61 -132,-106 -14,-203 h 89 l 66,119 234,44 97,-88 419,31 379,-27 124,40 489,-102 66,-66 36,-163 -62,-79 -115,-40 -22,-40 190,-93 -155,-39 53,-481 -57,-239 -31,-357 -106,-282 z"
   id="path73"
   inkscape:connector-curvature="0"
   style="fill:#000000;stroke:none" />
         <path
   d="m 9391,12588 101,-22 49,-4 57,13 44,13 97,40 53,119 h 88 l 13,-71 106,67 -13,61 110,80 102,22 48,62 -57,22 v 75 l 101,-53 212,75 v 106 h -141 l -22,-58 h -128 l -53,93 -53,-35 -35,-115 -304,-287 -84,-119 z"
   id="path75"
   inkscape:connector-curvature="0"
   style="fill:#000000;stroke:none" />
         <path
   d="m 9616,13157 h 189 l 102,66 123,84 106,22 -4,164 h 75 l 185,-155 198,-9 -13,62 -48,80 13,286 h -212 l -13,-30 h -75 l -57,-80 -137,40 -110,-80 39,-17 5,-18 h -102 l 5,-18 -128,-44 97,-53 84,-4 h 53 l 39,13 -48,-48 -119,-14 -146,71 -31,-124 -75,-79 z"
   id="path77"
   inkscape:connector-curvature="0"
   style="fill:#000000;stroke:none" />
         <path
   d="m 9355,13863 208,-176 66,48 106,-13 9,-31 57,13 40,53 4,159 -66,133 97,22 -40,84 88,22 -75,66 5,39 154,84 v 36 l -163,61 -441,-70 106,-13 123,-18 128,18 132,-36 -114,-22 -137,-26 h -71 l -154,17 -141,18 -88,13 -5,-35 318,-119 119,57 84,-22 70,-13 -8,-35 -164,-89 v -70 l -92,-49 -155,22 z"
   id="path79"
   inkscape:connector-curvature="0"
   style="fill:#000000;stroke:none" />
         <path
   d="m 10718,13841 -216,194 58,80 v 106 h -190 l -190,137 5,432 -450,123 -53,-26 141,-75 -5,-40 -233,89 h -331 l -304,39 251,40 -27,48 181,93 459,88 287,9 97,44 v 71 l 247,274 150,44 198,260 9,-304 -35,-208 26,-278 71,-84 141,75 159,-26 97,18 -27,92 172,9 111,79 66,-26 84,-102 172,-101 -9,-13 -22,-18 -106,18 -22,-66 216,-120 h 110 l -35,22 150,336 106,119 9,62 -80,57 -66,49 -92,-44 -150,35 -186,57 18,66 190,62 66,13 4,22 -101,67 v 17 l 189,49 45,106 39,17 -53,102 -22,-66 h -84 l 120,-49 -45,-119 -132,110 -48,5 -27,-89 -265,53 -101,75 -62,45 -97,57 9,119 124,49 189,-22 5,-89 -89,5 27,-80 35,-9 97,-4 88,9 133,48 119,67 4,35 -66,4 -26,-44 -159,-35 h -163 l -5,97 432,75 62,57 53,49 44,123 -31,71 h -39 l -58,-71 -335,-66 -234,71 -176,-80 h -44 l 101,159 331,150 309,49 251,-44 106,-53 -75,-247 5,-89 97,-185 -58,-93 36,-75 -23,-70 h -145 l -22,-111 26,-75 h -79 l -53,-92 57,-13 5,-137 123,-53 84,62 40,-5 -49,-181 115,-35 71,31 101,-106 190,-27 v -101 l -358,110 -75,-61 -8,-181 -49,-106 -229,-106 17,-9 -26,-71 53,-39 128,-5 17,-79 75,-62 -9,-154 9,-71 -141,-124 -119,-57 -128,-207 -340,-58 -105,67 -93,26 -106,146 -176,-18 -146,62 h 371 l 92,-40 27,35 189,-79 120,13 185,133 128,92 -5,84 141,88 v 62 l -127,53 -84,124 -287,101 26,-75 h -383 l -463,106 -84,-44 128,-49 -5,-92 -70,-14 79,-123 -287,66 93,-424 -132,-26 v -102 z"
   id="path81"
   inkscape:connector-curvature="0"
   style="fill:#000000;stroke:none" />
         <path
   d="m 12800,15214 v 101 l 212,-84 h 163 l 71,-66 h 93 l 30,-66 106,-31 -88,229 26,230 -26,344 26,375 58,172 17,62 111,128 13,168 238,-120 -13,-61 -71,-44 -150,-5 -61,-44 13,-53 13,-53 172,-71 -9,-264 150,-84 44,22 -39,256 172,-31 26,-62 252,-88 101,-159 207,-101 225,-36 -154,-22 115,-123 110,-40 88,-124 177,36 4,92 221,36 39,114 84,89 102,-58 4,-406 -49,-31 49,-79 h -141 l -88,-26 v -225 l 17,-23 35,-35 36,-17 -44,-36 -36,27 -30,39 -36,53 -212,22 -141,62 -79,-31 -137,75 v 93 l 75,88 -84,89 -79,-76 -265,-132 -70,-123 -40,-9 -48,4 -102,27 141,39 80,124 141,35 194,159 97,4 40,58 -124,62 h -190 v 66 l -185,-18 -273,62 v 132 l 203,-101 260,26 -278,102 -265,66 80,-97 v -146 l 141,-242 35,-36 53,-119 h -93 l -128,-57 -264,31 75,79 -71,106 62,-18 49,36 -71,114 v 93 h 44 l 4,26 -211,199 88,-393 -150,-53 48,-233 111,-84 141,-393 75,-62 110,-35 35,159 89,35 22,75 h 123 l 146,-71 115,-61 h 158 l 53,4 119,-93 27,-92 40,-5 35,5 39,97 146,18 31,-23 -4,-79 -98,-18 -105,-31 -36,23 -44,4 -128,-124 v -61 l -57,-27 -62,5 -141,26 75,-79 -234,8 -339,120 -27,105 -163,36 v -66 l -154,-22 -190,44 -115,70 -53,-44 80,-137 119,-44 79,-216 -48,-31 -137,97 -5,-17 h -88 l -4,-53 -128,57 -4,132 -80,102 53,79 -71,88 186,40 4,31 -101,53 v 40 l 132,-27 -123,243 h -75 l -75,53 -84,53 -97,44 -159,66 9,-35 z"
   id="path83"
   inkscape:connector-curvature="0"
   style="fill:#000000;stroke:none" />
         <path
   d="m 15606,15836 -40,97 -176,75 -177,4 -66,66 4,45 97,4 58,40 -22,44 -159,57 -137,155 -110,70 -97,115 -225,79 -428,53 -101,-145 -111,-239 137,44 -4,49 158,163 181,-57 137,26 132,-79 120,-79 57,26 181,-75 -22,-49 -190,9 -185,-26 379,-150 4,-40 -92,-31 88,-92 256,-36 229,-53 80,-70 z"
   id="path85"
   inkscape:connector-curvature="0"
   style="fill:#000000;stroke:none" />
         <path
   d="m 13735,13837 62,-150 62,-62 75,-84 225,-48 75,22 -18,48 -167,49 61,53 -114,75 53,31 220,-106 44,-66 -48,-53 573,-155 97,75 -176,75 22,44 234,-13 -22,84 128,-27 v 36 l 127,-5 137,-31 18,58 h 194 l -229,115 194,22 -194,105 123,58 -172,-5 -84,36 -35,-53 -71,9 -66,48 27,-101 136,-40 h 133 l -9,-102 -190,-26 -520,-101 -322,22 -238,128 -168,127 -97,190 -35,-39 -5,-106 62,-97 z"
   id="path87"
   inkscape:connector-curvature="0"
   style="fill:#000000;stroke:none" />
        </g>
        <g
   clip-path="url(#clip_path_1)"
   id="g91" />
       </g>
      </g>
     </g>
    </g>
   </g>
  </g>
 </g>
</svg>