<?xml version="1.0" encoding="UTF-8" standalone="no"?>
<svg
   xmlns:ooo="http://xml.openoffice.org/svg/export"
   xmlns:dc="http://purl.org/dc/elements/1.1/"
   xmlns:cc="http://creativecommons.org/ns#"
   xmlns:rdf="http://www.w3.org/1999/02/22-rdf-syntax-ns#"
   xmlns:svg="http://www.w3.org/2000/svg"
   xmlns="http://www.w3.org/2000/svg"
   xmlns:sodipodi="http://sodipodi.sourceforge.net/DTD/sodipodi-0.dtd"
   xmlns:inkscape="http://www.inkscape.org/namespaces/inkscape"
   version="1.2"
   width="87.050003mm"
   height="137.19mm"
   viewBox="0 0 8705.0003 13719"
   preserveAspectRatio="xMidYMid"
   xml:space="preserve"
   id="svg530"
   sodipodi:docname="norway2.svg"
   style="fill-rule:evenodd;stroke-width:28.22200012;stroke-linejoin:round"
   inkscape:version="0.92.5 (2060ec1f9f, 2020-04-08)"><metadata
   id="metadata534"><rdf:RDF><cc:Work
       rdf:about=""><dc:format>image/svg+xml</dc:format><dc:type
         rdf:resource="http://purl.org/dc/dcmitype/StillImage" /></cc:Work></rdf:RDF></metadata><sodipodi:namedview
   pagecolor="#ffffff"
   bordercolor="#666666"
   borderopacity="1"
   objecttolerance="10"
   gridtolerance="10"
   guidetolerance="10"
   inkscape:pageopacity="0"
   inkscape:pageshadow="2"
   inkscape:window-width="664"
   inkscape:window-height="487"
   id="namedview532"
   showgrid="false"
   inkscape:zoom="0.2102413"
   inkscape:cx="164.52284"
   inkscape:cy="259.23779"
   inkscape:window-x="0"
   inkscape:window-y="0"
   inkscape:window-maximized="0"
   inkscape:current-layer="svg530" />
 <defs
   class="ClipPathGroup"
   id="defs8">
  <clipPath
   id="presentation_clip_path"
   clipPathUnits="userSpaceOnUse">
   <rect
   x="0"
   y="0"
   width="21000"
   height="29700"
   id="rect2" />
  </clipPath>
  <clipPath
   id="presentation_clip_path_shrink"
   clipPathUnits="userSpaceOnUse">
   <rect
   x="21"
   y="29"
   width="20958"
   height="29641"
   id="rect5" />
  </clipPath>
 </defs>
 <defs
   class="TextShapeIndex"
   id="defs12">
  <g
   ooo:slide="id1"
   ooo:id-list="id3"
   id="g10" />
 </defs>
 <defs
   class="EmbeddedBulletChars"
   id="defs44">
  <g
   id="bullet-char-template-57356"
   transform="matrix(4.8828125e-4,0,0,-4.8828125e-4,0,0)">
   <path
   d="M 580,1141 1163,571 580,0 -4,571 Z"
   id="path14"
   inkscape:connector-curvature="0" />
  </g>
  <g
   id="bullet-char-template-57354"
   transform="matrix(4.8828125e-4,0,0,-4.8828125e-4,0,0)">
   <path
   d="M 8,1128 H 1137 V 0 H 8 Z"
   id="path17"
   inkscape:connector-curvature="0" />
  </g>
  <g
   id="bullet-char-template-10146"
   transform="matrix(4.8828125e-4,0,0,-4.8828125e-4,0,0)">
   <path
   d="M 174,0 602,739 174,1481 1456,739 Z M 1358,739 309,1346 659,739 Z"
   id="path20"
   inkscape:connector-curvature="0" />
  </g>
  <g
   id="bullet-char-template-10132"
   transform="matrix(4.8828125e-4,0,0,-4.8828125e-4,0,0)">
   <path
   d="M 2015,739 1276,0 H 717 l 543,543 H 174 v 393 h 1086 l -543,545 h 557 z"
   id="path23"
   inkscape:connector-curvature="0" />
  </g>
  <g
   id="bullet-char-template-10007"
   transform="matrix(4.8828125e-4,0,0,-4.8828125e-4,0,0)">
   <path
   d="m 0,-2 c -7,16 -16,29 -25,39 l 381,530 c -94,256 -141,385 -141,387 0,25 13,38 40,38 9,0 21,-2 34,-5 21,4 42,12 65,25 l 27,-13 111,-251 280,301 64,-25 24,25 c 21,-10 41,-24 62,-43 C 886,937 835,863 770,784 769,783 710,716 594,584 L 774,223 c 0,-27 -21,-55 -63,-84 l 16,-20 C 717,90 699,76 672,76 641,76 570,178 457,381 L 164,-76 c -22,-34 -53,-51 -92,-51 -42,0 -63,17 -64,51 -7,9 -10,24 -10,44 0,9 1,19 2,30 z"
   id="path26"
   inkscape:connector-curvature="0" />
  </g>
  <g
   id="bullet-char-template-10004"
   transform="matrix(4.8828125e-4,0,0,-4.8828125e-4,0,0)">
   <path
   d="M 285,-33 C 182,-33 111,30 74,156 52,228 41,333 41,471 c 0,78 14,145 41,201 34,71 87,106 158,106 53,0 88,-31 106,-94 l 23,-176 c 8,-64 28,-97 59,-98 l 735,706 c 11,11 33,17 66,17 42,0 63,-15 63,-46 V 965 c 0,-36 -10,-64 -30,-84 L 442,47 C 390,-6 338,-33 285,-33 Z"
   id="path29"
   inkscape:connector-curvature="0" />
  </g>
  <g
   id="bullet-char-template-9679"
   transform="matrix(4.8828125e-4,0,0,-4.8828125e-4,0,0)">
   <path
   d="M 813,0 C 632,0 489,54 383,161 276,268 223,411 223,592 c 0,181 53,324 160,431 106,107 249,161 430,161 179,0 323,-54 432,-161 108,-107 162,-251 162,-431 0,-180 -54,-324 -162,-431 C 1136,54 992,0 813,0 Z"
   id="path32"
   inkscape:connector-curvature="0" />
  </g>
  <g
   id="bullet-char-template-8226"
   transform="matrix(4.8828125e-4,0,0,-4.8828125e-4,0,0)">
   <path
   d="m 346,457 c -73,0 -137,26 -191,78 -54,51 -81,114 -81,188 0,73 27,136 81,188 54,52 118,78 191,78 73,0 134,-26 185,-79 51,-51 77,-114 77,-187 0,-75 -25,-137 -76,-188 -50,-52 -112,-78 -186,-78 z"
   id="path35"
   inkscape:connector-curvature="0" />
  </g>
  <g
   id="bullet-char-template-8211"
   transform="matrix(4.8828125e-4,0,0,-4.8828125e-4,0,0)">
   <path
   d="M -4,459 H 1135 V 606 H -4 Z"
   id="path38"
   inkscape:connector-curvature="0" />
  </g>
  <g
   id="bullet-char-template-61548"
   transform="matrix(4.8828125e-4,0,0,-4.8828125e-4,0,0)">
   <path
   d="m 173,740 c 0,163 58,303 173,419 116,115 255,173 419,173 163,0 302,-58 418,-173 116,-116 174,-256 174,-419 0,-163 -58,-303 -174,-418 C 1067,206 928,148 765,148 601,148 462,206 346,322 231,437 173,577 173,740 Z"
   id="path41"
   inkscape:connector-curvature="0" />
  </g>
 </defs>
 <g
   id="g49"
   transform="translate(-6147,-7990)">
  <g
   id="id2"
   class="Master_Slide">
   <g
   id="bg-id2"
   class="Background" />
   <g
   id="bo-id2"
   class="BackgroundObjects" />
  </g>
 </g>
 <g
   class="SlideGroup"
   id="g528"
   transform="translate(-6147,-7990)">
  <g
   id="g526">
   <g
   id="container-id1">
    <g
   id="id1"
   class="Slide"
   clip-path="url(#presentation_clip_path)">
     <g
   class="Page"
   id="g522">
      <g
   class="Graphic"
   id="g520">
       <g
   id="id3">
        <rect
   class="BoundingBox"
   x="6147"
   y="7990"
   width="8705"
   height="13719"
   id="rect51"
   style="fill:none;stroke:none" />
        <path
   d="m 6482,20011 v 0 l 31,61 31,62 v 62 l 31,-31 v -31 l -31,-62 v -30 z"
   id="path53"
   inkscape:connector-curvature="0"
   style="fill:#00ff00;stroke:none" />
        <path
   d="m 6482,20011 v 0 l 31,61 31,62 v 62 l 31,-31 v -31 l -31,-62 v -30 z"
   id="path55"
   inkscape:connector-curvature="0"
   style="fill:none;stroke:#000000;stroke-width:35;stroke-linecap:round;stroke-linejoin:round" />
        <path
   d="m 6606,19975 v 31 l 31,36 v 30 31 h 62 v -61 l -31,-36 z"
   id="path57"
   inkscape:connector-curvature="0"
   style="fill:#00ff00;stroke:none" />
        <path
   d="m 6606,19975 v 31 l 31,36 v 30 31 h 62 v -61 l -31,-36 z"
   id="path59"
   inkscape:connector-curvature="0"
   style="fill:none;stroke:#000000;stroke-width:35;stroke-linecap:round;stroke-linejoin:round" />
        <path
   d="m 6354,19106 v 31 l 31,62 h 62 v -31 z"
   id="path61"
   inkscape:connector-curvature="0"
   style="fill:#00ff00;stroke:none" />
        <path
   d="m 6354,19106 v 31 l 31,62 h 62 v -31 z"
   id="path63"
   inkscape:connector-curvature="0"
   style="fill:none;stroke:#000000;stroke-width:35;stroke-linecap:round;stroke-linejoin:round" />
        <path
   d="m 6359,19230 -31,31 62,62 h 31 v -31 z"
   id="path65"
   inkscape:connector-curvature="0"
   style="fill:#00ff00;stroke:none" />
        <path
   d="m 6359,19230 -31,31 62,62 h 31 v -31 z"
   id="path67"
   inkscape:connector-curvature="0"
   style="fill:none;stroke:#000000;stroke-width:35;stroke-linecap:round;stroke-linejoin:round" />
        <path
   d="m 6385,19389 h -31 l 31,61 97,31 v -31 l -31,-30 z"
   id="path69"
   inkscape:connector-curvature="0"
   style="fill:#00ff00;stroke:none" />
        <path
   d="m 6385,19389 h -31 l 31,61 97,31 v -31 l -31,-30 z"
   id="path71"
   inkscape:connector-curvature="0"
   style="fill:none;stroke:#000000;stroke-width:35;stroke-linecap:round;stroke-linejoin:round" />
        <path
   d="m 6323,19075 31,-30 -31,-31 v -31 -31 h -30 l -31,-31 h -31 l -31,31 h 93 v 31 z"
   id="path73"
   inkscape:connector-curvature="0"
   style="fill:#00ff00;stroke:none" />
        <path
   d="m 6323,19075 31,-30 -31,-31 v -31 -31 h -30 l -31,-31 h -31 l -31,31 h 93 v 31 z"
   id="path75"
   inkscape:connector-curvature="0"
   style="fill:none;stroke:#000000;stroke-width:35;stroke-linecap:round;stroke-linejoin:round" />
        <path
   d="m 6359,18762 31,31 -31,31 31,62 26,-31 31,31 h -31 l -26,31 v 31 l -31,-31 v -62 l -31,-31 z"
   id="path77"
   inkscape:connector-curvature="0"
   style="fill:#00ff00;stroke:none" />
        <path
   d="m 6359,18762 31,31 -31,31 31,62 26,-31 31,31 h -31 l -26,31 v 31 l -31,-31 v -62 l -31,-31 z"
   id="path79"
   inkscape:connector-curvature="0"
   style="fill:none;stroke:#000000;stroke-width:35;stroke-linecap:round;stroke-linejoin:round" />
        <path
   d="M 6293,18886 Z"
   id="path81"
   inkscape:connector-curvature="0"
   style="fill:#00ff00;stroke:none" />
        <path
   d="m 6297,18855 -35,35 35,31 31,-31 z"
   id="path83"
   inkscape:connector-curvature="0"
   style="fill:#00ff00;stroke:none" />
        <path
   d="m 6297,18855 -35,35 35,31 31,-31 z"
   id="path85"
   inkscape:connector-curvature="0"
   style="fill:none;stroke:#000000;stroke-width:35;stroke-linecap:round;stroke-linejoin:round" />
        <path
   d="m 6447,17889 h -57 v -31 h -31 l -31,31 31,31 v 31 l 57,-31 z"
   id="path87"
   inkscape:connector-curvature="0"
   style="fill:#00ff00;stroke:none" />
        <path
   d="m 6447,17889 h -57 v -31 h -31 l -31,31 31,31 v 31 l 57,-31 z"
   id="path89"
   inkscape:connector-curvature="0"
   style="fill:none;stroke:#000000;stroke-width:35;stroke-linecap:round;stroke-linejoin:round" />
        <path
   d="m 7347,21453 -13,-44 44,-75 v -93 l -57,-26 -31,-93 -9,-84 9,-127 31,-93 26,-57 h 31 150 l 22,57 9,62 31,61 v -30 l 26,-9 97,-22 h 31 l 27,61 v 31 62 27 l 31,61 -31,27 v 31 l 39,-5 36,31 53,31 53,44 39,66 9,75 57,84 -17,71 h -88 l -89,26 h -123 -58 l -66,31 h -57 l -57,-31 -31,-26 h -31 l -31,26 h -62 v -57 h -26 l 26,-31 z"
   id="path91"
   inkscape:connector-curvature="0"
   style="fill:#00ff00;stroke:none" />
        <path
   d="m 7347,21453 -13,-44 44,-75 v -93 l -57,-26 -31,-93 -9,-84 9,-127 31,-93 26,-57 h 31 150 l 22,57 9,62 31,61 v -30 l 26,-9 97,-22 h 31 l 27,61 v 31 62 27 l 31,61 -31,27 v 31 l 39,-5 36,31 53,31 53,44 39,66 9,75 57,84 -17,71 h -88 l -89,26 h -123 -58 l -66,31 h -57 l -57,-31 -31,-26 h -31 l -31,26 h -62 v -57 h -26 l 26,-31 z"
   id="path93"
   inkscape:connector-curvature="0"
   style="fill:none;stroke:#000000;stroke-width:35;stroke-linecap:round;stroke-linejoin:round" />
        <path
   d="m 7382,20743 v -88 l 31,-66 -31,-31 -31,-27 31,-123 31,-58 v -31 -66 l 27,-88 v -31 l 97,-31 57,31 h 31 l 62,88 31,67 26,30 v 31 l -57,58 31,31 57,30 62,62 17,53 31,62 36,31 39,39 89,27 57,9 53,-40 48,44 58,18 9,-31 22,-27 v -30 l 57,-67 49,18 53,62 57,66 48,18 -22,110 -92,128 -62,57 -88,124 -31,88 -62,97 -31,57 -31,31 -92,31 -58,-88 v -62 l -31,-66 -61,-57 -62,-31 -31,-31 h -31 v -31 -62 -26 -31 -31 -66 l -57,-58 -31,27 h -31 -31 l -31,31 -26,-31 v -57 l -31,-93 h -35 -62 z"
   id="path95"
   inkscape:connector-curvature="0"
   style="fill:#00ff00;stroke:none" />
        <path
   d="m 7382,20743 v -88 l 31,-66 -31,-31 -31,-27 31,-123 31,-58 v -31 -66 l 27,-88 v -31 l 97,-31 57,31 h 31 l 62,88 31,67 26,30 v 31 l -57,58 31,31 57,30 62,62 17,53 31,62 36,31 39,39 89,27 57,9 53,-40 48,44 58,18 9,-31 22,-27 v -30 l 57,-67 49,18 53,62 57,66 48,18 -22,110 -92,128 -62,57 -88,124 -31,88 -62,97 -31,57 -31,31 -92,31 -58,-88 v -62 l -31,-66 -61,-57 -62,-31 -31,-31 h -31 v -31 -62 -26 -31 -31 -66 l -57,-58 -31,27 h -31 -31 l -31,31 -26,-31 v -57 l -31,-93 h -35 -62 z"
   id="path97"
   inkscape:connector-curvature="0"
   style="fill:none;stroke:#000000;stroke-width:35;stroke-linecap:round;stroke-linejoin:round" />
        <path
   d="m 7440,20112 -53,-75 -31,-31 -31,31 -35,44 -22,18 -22,-27 -27,-39 -31,-40 -66,-9 v 53 l -115,27 v 57 l -17,53 -36,26 -44,31 -70,5 -102,92 53,49 v 62 l 31,26 62,31 h 57 l 88,62 -88,61 v 62 l 58,212 h -31 -27 l -57,-31 -31,31 v 31 l -31,-62 -31,-31 h -31 v 155 l 31,123 62,57 57,128 119,58 93,31 h 88 l 115,30 57,-83 v -53 l -26,-49 -62,-62 -9,-57 v -53 -88 l 5,-84 17,-44 18,-40 18,-26 39,-40 v -18 l 9,-35 -9,-44 27,-57 -66,-44 v -49 l 22,-26 9,-53 35,-49 4,-70 5,-58 13,-39 z"
   id="path99"
   inkscape:connector-curvature="0"
   style="fill:#00ff00;stroke:none" />
        <path
   d="m 7440,20112 -53,-75 -31,-31 -31,31 -35,44 -22,18 -22,-27 -27,-39 -31,-40 -66,-9 v 53 l -115,27 v 57 l -17,53 -36,26 -44,31 -70,5 -102,92 53,49 v 62 l 31,26 62,31 h 57 l 88,62 -88,61 v 62 l 58,212 h -31 -27 l -57,-31 -31,31 v 31 l -31,-62 -31,-31 h -31 v 155 l 31,123 62,57 57,128 119,58 93,31 h 88 l 115,30 57,-83 v -53 l -26,-49 -62,-62 -9,-57 v -53 -88 l 5,-84 17,-44 18,-40 18,-26 39,-40 v -18 l 9,-35 -9,-44 27,-57 -66,-44 v -49 l 22,-26 9,-53 35,-49 4,-70 5,-58 13,-39 z"
   id="path101"
   inkscape:connector-curvature="0"
   style="fill:none;stroke:#000000;stroke-width:35;stroke-linecap:round;stroke-linejoin:round" />
        <path
   d="m 6796,20699 h -18 -18 v 13 l 18,13 18,-13 z"
   id="path103"
   inkscape:connector-curvature="0"
   style="fill:#00ff00;stroke:none" />
        <path
   d="m 6796,20699 h -18 -18 v 13 l 18,13 18,-13 z"
   id="path105"
   inkscape:connector-curvature="0"
   style="fill:none;stroke:#000000;stroke-width:35;stroke-linecap:round;stroke-linejoin:round" />
        <path
   d="m 6791,20664 h -31 v 30 31 h 62 z"
   id="path107"
   inkscape:connector-curvature="0"
   style="fill:#00ff00;stroke:none" />
        <path
   d="m 6791,20664 h -31 v 30 31 h 62 z"
   id="path109"
   inkscape:connector-curvature="0"
   style="fill:none;stroke:#000000;stroke-width:35;stroke-linecap:round;stroke-linejoin:round" />
        <path
   d="m 6606,20633 v 17 14 0 z"
   id="path111"
   inkscape:connector-curvature="0"
   style="fill:#00ff00;stroke:none" />
        <path
   d="m 6606,20633 v 17 14 0 z"
   id="path113"
   inkscape:connector-curvature="0"
   style="fill:none;stroke:#000000;stroke-width:35;stroke-linecap:round;stroke-linejoin:round" />
        <path
   d="m 6606,20633 v 0 35 31 z"
   id="path115"
   inkscape:connector-curvature="0"
   style="fill:#00ff00;stroke:none" />
        <path
   d="m 6606,20633 v 0 35 31 z"
   id="path117"
   inkscape:connector-curvature="0"
   style="fill:none;stroke:#000000;stroke-width:35;stroke-linecap:round;stroke-linejoin:round" />
        <path
   d="m 6654,20258 -26,26 -22,31 v 110 l 22,115 26,-26 45,-31 v -27 l -23,-57 v -57 z"
   id="path119"
   inkscape:connector-curvature="0"
   style="fill:#00ff00;stroke:none" />
        <path
   d="m 6654,20258 -26,26 -22,31 v 110 l 22,115 26,-26 45,-31 v -27 l -23,-57 v -57 z"
   id="path121"
   inkscape:connector-curvature="0"
   style="fill:none;stroke:#000000;stroke-width:35;stroke-linecap:round;stroke-linejoin:round" />
        <path
   d="m 6835,20103 v 27 26 l -110,84 -26,57 52,53 -26,-53 53,-30 57,-53 53,-58 z"
   id="path123"
   inkscape:connector-curvature="0"
   style="fill:#00ff00;stroke:none" />
        <path
   d="m 6835,20103 v 27 26 l -110,84 -26,57 52,53 -26,-53 53,-30 57,-53 53,-58 z"
   id="path125"
   inkscape:connector-curvature="0"
   style="fill:none;stroke:#000000;stroke-width:35;stroke-linecap:round;stroke-linejoin:round" />
        <path
   d="m 6857,20103 h -31 v 62 l -97,97 -30,62 61,62 -31,-62 67,-31 30,-97 62,-62 z"
   id="path127"
   inkscape:connector-curvature="0"
   style="fill:#00ff00;stroke:none" />
        <path
   d="m 6857,20103 h -31 v 62 l -97,97 -30,62 61,62 -31,-62 67,-31 30,-97 62,-62 z"
   id="path129"
   inkscape:connector-curvature="0"
   style="fill:none;stroke:#000000;stroke-width:35;stroke-linecap:round;stroke-linejoin:round" />
        <path
   d="m 6509,18978 -31,31 h -31 v 31 31 l 31,31 h 31 57 v 26 31 62 l -31,31 -26,62 h 26 l 66,31 v 30 62 l -35,31 -31,27 -26,61 v 31 h 26 l 31,58 v 35 h 66 l 31,-35 88,127 v 31 h -30 l -58,27 v 62 l 27,30 61,31 62,-123 v 31 l -31,31 -31,92 31,27 h 31 l 27,66 66,31 v 31 l -66,57 -27,31 -31,31 89,-31 h 66 l 31,-31 26,-27 v -92 l 44,-18 102,-22 -27,-26 31,-27 40,18 57,75 49,13 22,-48 39,-40 40,9 18,-58 35,-39 5,-31 v -22 l 30,-31 36,-27 31,-31 26,-61 v -31 l 31,-35 31,-58 31,-75 -31,-198 -31,-62 v -62 h -31 -26 l -31,-62 h -66 l -58,31 h -62 -61 l -27,-31 27,-57 v -31 l -93,-101 -62,-22 -26,-31 -31,31 h -31 v 31 l -31,4 -26,9 h -27 l -22,-31 -22,-27 -26,-17 v -35 l -58,-18 -62,84 -30,31 h -58 l -62,30 z"
   id="path131"
   inkscape:connector-curvature="0"
   style="fill:#00ff00;stroke:none" />
        <path
   d="m 6509,18978 -31,31 h -31 v 31 31 l 31,31 h 31 57 v 26 31 62 l -31,31 -26,62 h 26 l 66,31 v 30 62 l -35,31 -31,27 -26,61 v 31 h 26 l 31,58 v 35 h 66 l 31,-35 88,127 v 31 h -30 l -58,27 v 62 l 27,30 61,31 62,-123 v 31 l -31,31 -31,92 31,27 h 31 l 27,66 66,31 v 31 l -66,57 -27,31 -31,31 89,-31 h 66 l 31,-31 26,-27 v -92 l 44,-18 102,-22 -27,-26 31,-27 40,18 57,75 49,13 22,-48 39,-40 40,9 18,-58 35,-39 5,-31 v -22 l 30,-31 36,-27 31,-31 26,-61 v -31 l 31,-35 31,-58 31,-75 -31,-198 -31,-62 v -62 h -31 -26 l -31,-62 h -66 l -58,31 h -62 -61 l -27,-31 27,-57 v -31 l -93,-101 -62,-22 -26,-31 -31,31 h -31 v 31 l -31,4 -26,9 h -27 l -22,-31 -22,-27 -26,-17 v -35 l -58,-18 -62,84 -30,31 h -58 l -62,30 z"
   id="path133"
   inkscape:connector-curvature="0"
   style="fill:none;stroke:#000000;stroke-width:35;stroke-linecap:round;stroke-linejoin:round" />
        <path
   d="m 8574,20791 31,-30 92,-155 v -57 l 62,-31 22,-159 -31,-79 -31,-44 -9,-44 -88,-58 -48,18 v -31 -124 l -31,-61 -44,-36 -40,-48 -31,-22 -40,-75 -79,-71 -31,-62 -31,-44 h -115 -167 l -62,-35 -40,-18 -22,49 -75,9 -79,48 -106,31 -13,62 -27,53 -70,70 -27,62 -62,119 31,31 31,62 58,-18 79,9 48,9 89,181 h 31 v 31 l -62,66 31,26 92,62 31,62 31,88 31,35 88,58 124,31 35,-31 57,31 h 31 31 l 31,-31 v -27 l 57,-66 h 31 l 36,35 61,58 27,31 z"
   id="path135"
   inkscape:connector-curvature="0"
   style="fill:#00ff00;stroke:none" />
        <path
   d="m 8574,20791 31,-30 92,-155 v -57 l 62,-31 22,-159 -31,-79 -31,-44 -9,-44 -88,-58 -48,18 v -31 -124 l -31,-61 -44,-36 -40,-48 -31,-22 -40,-75 -79,-71 -31,-62 -31,-44 h -115 -167 l -62,-35 -40,-18 -22,49 -75,9 -79,48 -106,31 -13,62 -27,53 -70,70 -27,62 -62,119 31,31 31,62 58,-18 79,9 48,9 89,181 h 31 v 31 l -62,66 31,26 92,62 31,62 31,88 31,35 88,58 124,31 35,-31 57,31 h 31 31 l 31,-31 v -27 l 57,-66 h 31 l 36,35 61,58 27,31 z"
   id="path137"
   inkscape:connector-curvature="0"
   style="fill:none;stroke:#000000;stroke-width:35;stroke-linecap:round;stroke-linejoin:round" />
        <path
   d="m 8755,20540 h 114 115 v -31 l 57,-57 v -62 l 27,-31 v -26 -62 l -27,-31 -31,-57 -26,-93 -31,-26 31,-62 -31,-31 -26,-27 v -30 h -27 l -31,-31 -26,31 -31,57 v 31 31 l 31,88 v 62 h -58 l -57,31 27,57 30,62 z"
   id="path139"
   inkscape:connector-curvature="0"
   style="fill:#00ff00;stroke:none" />
        <path
   d="m 8755,20540 h 114 115 v -31 l 57,-57 v -62 l 27,-31 v -26 -62 l -27,-31 -31,-57 -26,-93 -31,-26 31,-62 -31,-31 -26,-27 v -30 h -27 l -31,-31 -26,31 -31,57 v 31 31 l 31,88 v 62 h -58 l -57,31 27,57 30,62 z"
   id="path141"
   inkscape:connector-curvature="0"
   style="fill:none;stroke:#000000;stroke-width:35;stroke-linecap:round;stroke-linejoin:round" />
        <path
   d="m 8759,20540 93,31 128,-31 h 30 l 31,-93 31,-66 31,-31 -31,-61 v -31 -31 l -62,-62 v -62 l -30,-31 v -35 l 30,-31 -30,-31 -31,-31 v -30 l -31,-31 h -36 -30 l -62,92 v 31 31 l 62,66 v 62 h -31 -31 l -31,31 h -31 v 62 l 62,92 z"
   id="path143"
   inkscape:connector-curvature="0"
   style="fill:#00ff00;stroke:none" />
        <path
   d="m 8759,20540 93,31 128,-31 h 30 l 31,-93 31,-66 31,-31 -31,-61 v -31 -31 l -62,-62 v -62 l -30,-31 v -35 l 30,-31 -30,-31 -31,-31 v -30 l -31,-31 h -36 -30 l -62,92 v 31 31 l 62,66 v 62 h -31 -31 l -31,31 h -31 v 62 l 62,92 z"
   id="path145"
   inkscape:connector-curvature="0"
   style="fill:none;stroke:#000000;stroke-width:35;stroke-linecap:round;stroke-linejoin:round" />
        <path
   d="m 7537,19128 31,-30 61,-62 v -58 l 62,-30 124,-97 v -89 l 26,31 h 128 l 58,9 70,4 71,53 61,40 115,115 106,84 53,39 h 102 l 8,-39 v -62 h 27 31 l 66,31 22,39 53,111 9,48 35,49 40,44 31,88 22,110 -22,36 22,119 v 57 62 l 92,62 62,30 v 58 66 h -31 l -31,-35 -61,-31 -45,-80 -39,-17 -40,-22 -31,61 -44,36 18,53 v 35 l 44,35 13,66 -57,18 h -31 l -66,31 -31,-31 -58,-31 h -31 v -57 -66 l -30,-89 h -31 l -31,-30 -31,-31 -62,-62 v -31 l -123,-123 v -31 l -31,-31 h -155 -88 -31 l -66,-27 -31,-31 -31,31 -57,27 -84,39 -101,23 61,-89 v -31 l -31,-247 -30,-61 -22,-18 -9,-9 z"
   id="path147"
   inkscape:connector-curvature="0"
   style="fill:#00ff00;stroke:none" />
        <path
   d="m 7537,19128 31,-30 61,-62 v -58 l 62,-30 124,-97 v -89 l 26,31 h 128 l 58,9 70,4 71,53 61,40 115,115 106,84 53,39 h 102 l 8,-39 v -62 h 27 31 l 66,31 22,39 53,111 9,48 35,49 40,44 31,88 22,110 -22,36 22,119 v 57 62 l 92,62 62,30 v 58 66 h -31 l -31,-35 -61,-31 -45,-80 -39,-17 -40,-22 -31,61 -44,36 18,53 v 35 l 44,35 13,66 -57,18 h -31 l -66,31 -31,-31 -58,-31 h -31 v -57 -66 l -30,-89 h -31 l -31,-30 -31,-31 -62,-62 v -31 l -123,-123 v -31 l -31,-31 h -155 -88 -31 l -66,-27 -31,-31 -31,31 -57,27 -84,39 -101,23 61,-89 v -31 l -31,-247 -30,-61 -22,-18 -9,-9 z"
   id="path149"
   inkscape:connector-curvature="0"
   style="fill:none;stroke:#000000;stroke-width:35;stroke-linecap:round;stroke-linejoin:round" />
        <path
   d="m 6504,18921 67,-57 h 30 62 v -31 l -62,-31 -66,31 -31,-88 h -26 l -31,-31 v -62 l -62,-93 62,-61 h 31 57 l 36,-31 -67,-27 -57,-31 -31,-92 -31,-27 62,-61 v -31 h 57 l 67,-31 v -31 l 30,-31 v -31 l 31,-31 h 58 l 216,-31 h 62 l 88,-57 31,-31 62,62 30,26 62,31 h 62 l 31,-31 62,31 26,31 31,93 h 62 l 31,31 h 61 l 93,61 31,71 119,137 v 31 l 9,57 -31,57 -97,40 44,4 22,71 27,53 -9,66 -133,93 -39,22 -9,70 -110,97 -71,-26 -31,31 -35,17 h -115 l -40,-48 40,-57 -9,-14 -31,-26 -39,-31 -75,-79 h -31 l -13,-9 -31,22 -22,35 -53,9 h -31 l -31,-31 -35,-26 v -31 l -27,-31 h -31 l -31,31 -13,31 -57,35 h -49 l -62,40 z"
   id="path151"
   inkscape:connector-curvature="0"
   style="fill:#00ff00;stroke:none" />
        <path
   d="m 6504,18921 67,-57 h 30 62 v -31 l -62,-31 -66,31 -31,-88 h -26 l -31,-31 v -62 l -62,-93 62,-61 h 31 57 l 36,-31 -67,-27 -57,-31 -31,-92 -31,-27 62,-61 v -31 h 57 l 67,-31 v -31 l 30,-31 v -31 l 31,-31 h 58 l 216,-31 h 62 l 88,-57 31,-31 62,62 30,26 62,31 h 62 l 31,-31 62,31 26,31 31,93 h 62 l 31,31 h 61 l 93,61 31,71 119,137 v 31 l 9,57 -31,57 -97,40 44,4 22,71 27,53 -9,66 -133,93 -39,22 -9,70 -110,97 -71,-26 -31,31 -35,17 h -115 l -40,-48 40,-57 -9,-14 -31,-26 -39,-31 -75,-79 h -31 l -13,-9 -31,22 -22,35 -53,9 h -31 l -31,-31 -35,-26 v -31 l -27,-31 h -31 l -31,31 -13,31 -57,35 h -49 l -62,40 z"
   id="path153"
   inkscape:connector-curvature="0"
   style="fill:none;stroke:#000000;stroke-width:35;stroke-linecap:round;stroke-linejoin:round" />
        <path
   d="m 7351,18008 18,-44 31,-71 44,-61 62,-40 h 62 61 l 31,-31 v -62 l 31,-26 58,-31 61,-62 h 36 l 61,-31 h 58 l 110,-40 75,40 h 84 l 101,31 18,62 -18,88 h 31 31 l 27,31 v 31 l 66,128 22,66 40,53 44,13 48,-13 h 88 67 l 31,31 61,79 44,53 -8,97 30,62 45,22 -31,88 -22,93 -22,79 8,35 14,36 61,62 186,277 v 62 h -93 -31 -31 l 31,62 31,57 v 66 l -31,93 v 31 l 31,62 124,181 31,61 -31,97 v 27 62 30 l -31,31 -58,-31 -35,-30 v -62 l 35,-88 -35,-36 v -61 h -31 -31 l -31,30 v 31 l 31,97 v 58 l -61,-58 -31,-30 v -31 l -31,-159 31,-62 v -26 l -58,-155 -31,-31 v -31 l -30,-30 -98,-217 -30,-30 h -58 -31 v 30 93 h -31 -61 -31 l -66,-62 -239,-211 -66,-31 -31,-36 h -92 l -89,-30 h -61 -36 l -31,-93 -30,-31 h 30 l 98,-88 -31,-62 31,-31 -67,-48 -83,-93 -9,-35 -31,-53 -58,-49 h -92 l -9,-31 -93,-13 -22,-110 z"
   id="path155"
   inkscape:connector-curvature="0"
   style="fill:#00ff00;stroke:none" />
        <path
   d="m 7351,18008 18,-44 31,-71 44,-61 62,-40 h 62 61 l 31,-31 v -62 l 31,-26 58,-31 61,-62 h 36 l 61,-31 h 58 l 110,-40 75,40 h 84 l 101,31 18,62 -18,88 h 31 31 l 27,31 v 31 l 66,128 22,66 40,53 44,13 48,-13 h 88 67 l 31,31 61,79 44,53 -8,97 30,62 45,22 -31,88 -22,93 -22,79 8,35 14,36 61,62 186,277 v 62 h -93 -31 -31 l 31,62 31,57 v 66 l -31,93 v 31 l 31,62 124,181 31,61 -31,97 v 27 62 30 l -31,31 -58,-31 -35,-30 v -62 l 35,-88 -35,-36 v -61 h -31 -31 l -31,30 v 31 l 31,97 v 58 l -61,-58 -31,-30 v -31 l -31,-159 31,-62 v -26 l -58,-155 -31,-31 v -31 l -30,-30 -98,-217 -30,-30 h -58 -31 v 30 93 h -31 -61 -31 l -66,-62 -239,-211 -66,-31 -31,-36 h -92 l -89,-30 h -61 -36 l -31,-93 -30,-31 h 30 l 98,-88 -31,-62 31,-31 -67,-48 -83,-93 -9,-35 -31,-53 -58,-49 h -92 l -9,-31 -93,-13 -22,-110 z"
   id="path157"
   inkscape:connector-curvature="0"
   style="fill:none;stroke:#000000;stroke-width:35;stroke-linecap:round;stroke-linejoin:round" />
        <path
   d="m 9196,20002 v 26 l 31,181 57,88 57,-30 31,61 58,58 114,31 v -58 l 31,-31 h 58 l 57,-31 v -150 l -31,-57 -26,-119 v -88 l -89,26 -88,-57 -26,-31 -31,31 -27,31 -31,57 -57,31 h -31 z"
   id="path159"
   inkscape:connector-curvature="0"
   style="fill:#00ff00;stroke:none" />
        <path
   d="m 9196,20002 v 26 l 31,181 57,88 57,-30 31,61 58,58 114,31 v -58 l 31,-31 h 58 l 57,-31 v -150 l -31,-57 -26,-119 v -88 l -89,26 -88,-57 -26,-31 -31,31 -27,31 -31,57 -57,31 h -31 z"
   id="path161"
   inkscape:connector-curvature="0"
   style="fill:none;stroke:#000000;stroke-width:35;stroke-linecap:round;stroke-linejoin:round" />
        <path
   d="m 9213,19075 208,243 150,146 57,97 31,57 v 31 26 h -31 v 31 l -26,31 v 124 l -58,31 -75,-40 -48,-22 h -27 l -22,31 -26,39 -18,40 -53,9 h -31 l -31,-88 18,-58 18,-66 -22,-70 -36,-36 -88,-141 -35,-97 13,-48 22,-45 9,-52 -13,-23 v -30 l -71,-75 62,-9 66,9 22,-18 z"
   id="path163"
   inkscape:connector-curvature="0"
   style="fill:#00ff00;stroke:none" />
        <path
   d="m 9213,19075 208,243 150,146 57,97 31,57 v 31 26 h -31 v 31 l -26,31 v 124 l -58,31 -75,-40 -48,-22 h -27 l -22,31 -26,39 -18,40 -53,9 h -31 l -31,-88 18,-58 18,-66 -22,-70 -36,-36 -88,-141 -35,-97 13,-48 22,-45 9,-52 -13,-23 v -30 l -71,-75 62,-9 66,9 22,-18 z"
   id="path165"
   inkscape:connector-curvature="0"
   style="fill:none;stroke:#000000;stroke-width:35;stroke-linecap:round;stroke-linejoin:round" />
        <path
   d="m 8353,17602 v 128 h 31 31 l 13,62 44,92 31,89 31,31 31,30 31,31 31,-31 h 30 62 31 31 l 57,31 v 31 l 31,35 31,31 31,31 v 88 62 l 31,31 31,31 -31,93 -31,123 v 62 l 62,62 132,207 203,256 155,150 92,92 31,67 27,57 30,31 31,31 -31,61 97,-61 31,-62 v -31 l 119,-185 v -62 l -30,-31 v -31 -57 l 30,-124 v -30 l -61,-36 -58,-92 -66,-150 v -62 l -31,-62 v -31 h 31 l 35,-31 58,-61 62,-93 30,-62 v -92 l -92,-89 -27,-66 -66,-62 h -31 -61 -27 l -31,-30 v -31 l -31,-58 v -185 l -31,-62 -30,-66 v -57 -62 l -31,-31 v -62 l -27,-22 -97,22 22,-26 -84,35 -31,22 -48,-44 22,13 -49,-61 -13,-31 -22,-44 -40,-31 -44,-18 h -39 l -58,-13 -17,-40 -58,-9 h -31 l -17,9 -27,-9 h -35 -27 l -30,9 -22,-9 h -23 l -30,-31 -31,-4 -22,-9 -31,-9 h -31 l -40,22 -44,27 -31,31 18,70 31,31 v 27 l 26,31 18,44 v 39 l -18,27 -9,22 -13,13 -26,18 -80,62 z"
   id="path167"
   inkscape:connector-curvature="0"
   style="fill:#00ff00;stroke:none" />
        <path
   d="m 8353,17602 v 128 h 31 31 l 13,62 44,92 31,89 31,31 31,30 31,31 31,-31 h 30 62 31 31 l 57,31 v 31 l 31,35 31,31 31,31 v 88 62 l 31,31 31,31 -31,93 -31,123 v 62 l 62,62 132,207 203,256 155,150 92,92 31,67 27,57 30,31 31,31 -31,61 97,-61 31,-62 v -31 l 119,-185 v -62 l -30,-31 v -31 -57 l 30,-124 v -30 l -61,-36 -58,-92 -66,-150 v -62 l -31,-62 v -31 h 31 l 35,-31 58,-61 62,-93 30,-62 v -92 l -92,-89 -27,-66 -66,-62 h -31 -61 -27 l -31,-30 v -31 l -31,-58 v -185 l -31,-62 -30,-66 v -57 -62 l -31,-31 v -62 l -27,-22 -97,22 22,-26 -84,35 -31,22 -48,-44 22,13 -49,-61 -13,-31 -22,-44 -40,-31 -44,-18 h -39 l -58,-13 -17,-40 -58,-9 h -31 l -17,9 -27,-9 h -35 -27 l -30,9 -22,-9 h -23 l -30,-31 -31,-4 -22,-9 -31,-9 h -31 l -40,22 -44,27 -31,31 18,70 31,31 v 27 l 26,31 18,44 v 39 l -18,27 -9,22 -13,13 -26,18 -80,62 z"
   id="path169"
   inkscape:connector-curvature="0"
   style="fill:none;stroke:#000000;stroke-width:35;stroke-linecap:round;stroke-linejoin:round" />
        <path
   d="m 8031,17514 62,-27 57,-30 v -62 l -119,-124 -35,-31 v -30 -27 h 35 31 l 62,-62 h 26 l 31,-61 -31,-27 v -66 -88 -62 l -26,-31 -31,-26 h -31 v 26 h -31 v 31 31 l -66,31 -62,31 h -26 l -62,26 h -62 -31 v -88 h 31 l 31,-31 v -31 -26 h -31 l -62,26 -62,31 h -30 l -31,31 -31,-31 31,-31 h 31 l 57,-26 h 66 l 62,-62 h 31 l 31,-62 57,-62 31,-31 h 31 66 l 31,31 v -31 l -31,-61 h 62 l 31,-27 h 26 v -31 h 62 v -31 l 62,31 66,58 v 31 30 62 l 26,31 31,-31 31,-31 93,-61 31,-31 44,-40 119,9 44,62 31,39 35,-9 31,-30 57,-36 102,75 66,66 40,9 44,9 h 31 l 62,-31 35,93 57,119 v 31 62 l -31,57 31,35 v 58 61 l 31,62 v 57 l 31,62 v 62 h -62 l -57,31 h -35 -62 l -31,-62 -31,-31 v -31 l -62,-61 h -57 -62 l -35,-58 h -31 -62 -57 -93 l -31,-31 -62,-31 h -61 -31 l -31,31 h -31 l -31,89 31,30 31,31 v 62 l 31,62 v 31 l -31,61 -62,27 -31,31 -26,31 h -36 l -92,-31 h -62 l -57,-31 z"
   id="path171"
   inkscape:connector-curvature="0"
   style="fill:#00ff00;stroke:none" />
        <path
   d="m 8031,17514 62,-27 57,-30 v -62 l -119,-124 -35,-31 v -30 -27 h 35 31 l 62,-62 h 26 l 31,-61 -31,-27 v -66 -88 -62 l -26,-31 -31,-26 h -31 v 26 h -31 v 31 31 l -66,31 -62,31 h -26 l -62,26 h -62 -31 v -88 h 31 l 31,-31 v -31 -26 h -31 l -62,26 -62,31 h -30 l -31,31 -31,-31 31,-31 h 31 l 57,-26 h 66 l 62,-62 h 31 l 31,-62 57,-62 31,-31 h 31 66 l 31,31 v -31 l -31,-61 h 62 l 31,-27 h 26 v -31 h 62 v -31 l 62,31 66,58 v 31 30 62 l 26,31 31,-31 31,-31 93,-61 31,-31 44,-40 119,9 44,62 31,39 35,-9 31,-30 57,-36 102,75 66,66 40,9 44,9 h 31 l 62,-31 35,93 57,119 v 31 62 l -31,57 31,35 v 58 61 l 31,62 v 57 l 31,62 v 62 h -62 l -57,31 h -35 -62 l -31,-62 -31,-31 v -31 l -62,-61 h -57 -62 l -35,-58 h -31 -62 -57 -93 l -31,-31 -62,-31 h -61 -31 l -31,31 h -31 l -31,89 31,30 31,31 v 62 l 31,62 v 31 l -31,61 -62,27 -31,31 -26,31 h -36 l -92,-31 h -62 l -57,-31 z"
   id="path173"
   inkscape:connector-curvature="0"
   style="fill:none;stroke:#000000;stroke-width:35;stroke-linecap:round;stroke-linejoin:round" />
        <path
   d="m 6597,18079 -62,-31 -31,-31 31,-27 v -61 l 31,-36 31,-61 h 88 l 97,30 h 31 v -57 -31 l 88,-92 h 31 l 62,30 31,31 v -88 l -31,-62 v -35 h 57 v -31 l -57,-88 88,-62 31,31 66,-62 62,-26 v -31 l -31,-66 -31,-31 v -57 -31 l 62,-31 88,31 h 31 l 89,-31 h 61 67 l 30,62 31,-31 -31,-62 -30,-27 v -61 h 61 l 27,31 62,30 30,58 v -31 -57 l -30,-31 61,-18 75,-31 84,-31 57,-22 31,-22 v -31 l 31,-31 h 27 l 61,62 v 27 97 61 l 31,27 v 31 l -22,48 h -61 l -62,49 -36,17 v 36 l 14,31 61,57 75,75 v 53 l -30,22 -137,84 h -84 l -40,31 -66,-9 -31,48 -62,40 -48,22 9,66 -13,40 -40,13 -84,-4 -49,13 -35,35 -35,49 -31,70 -49,58 -30,31 -98,-27 -22,-31 -30,-26 -40,-31 -27,-4 -57,30 -31,31 h -62 l -92,22 -89,18 h -39 -58 z"
   id="path175"
   inkscape:connector-curvature="0"
   style="fill:#00ff00;stroke:none" />
        <path
   d="m 6597,18079 -62,-31 -31,-31 31,-27 v -61 l 31,-36 31,-61 h 88 l 97,30 h 31 v -57 -31 l 88,-92 h 31 l 62,30 31,31 v -88 l -31,-62 v -35 h 57 v -31 l -57,-88 88,-62 31,31 66,-62 62,-26 v -31 l -31,-66 -31,-31 v -57 -31 l 62,-31 88,31 h 31 l 89,-31 h 61 67 l 30,62 31,-31 -31,-62 -30,-27 v -61 h 61 l 27,31 62,30 30,58 v -31 -57 l -30,-31 61,-18 75,-31 84,-31 57,-22 31,-22 v -31 l 31,-31 h 27 l 61,62 v 27 97 61 l 31,27 v 31 l -22,48 h -61 l -62,49 -36,17 v 36 l 14,31 61,57 75,75 v 53 l -30,22 -137,84 h -84 l -40,31 -66,-9 -31,48 -62,40 -48,22 9,66 -13,40 -40,13 -84,-4 -49,13 -35,35 -35,49 -31,70 -49,58 -30,31 -98,-27 -22,-31 -30,-26 -40,-31 -27,-4 -57,30 -31,31 h -62 l -92,22 -89,18 h -39 -58 z"
   id="path177"
   inkscape:connector-curvature="0"
   style="fill:none;stroke:#000000;stroke-width:35;stroke-linecap:round;stroke-linejoin:round" />
        <path
   d="m 6690,17642 -22,22 22,48 v 22 h 17 l 22,-22 v -48 z"
   id="path179"
   inkscape:connector-curvature="0"
   style="fill:#00ff00;stroke:none" />
        <path
   d="m 6690,17642 -22,22 22,48 v 22 h 17 l 22,-22 v -48 z"
   id="path181"
   inkscape:connector-curvature="0"
   style="fill:none;stroke:#000000;stroke-width:35;stroke-linecap:round;stroke-linejoin:round" />
        <path
   d="m 6840,17509 h -53 l -27,27 27,26 h 26 v 27 26 27 l 27,-27 31,-26 26,-27 h 27 l 26,-26 h -26 v -27 -26 -26 h -53 -31 z"
   id="path183"
   inkscape:connector-curvature="0"
   style="fill:#00ff00;stroke:none" />
        <path
   d="m 6840,17509 h -53 l -27,27 27,26 h 26 v 27 26 27 l 27,-27 31,-26 26,-27 h 27 l 26,-26 h -26 v -27 -26 -26 h -53 -31 z"
   id="path185"
   inkscape:connector-curvature="0"
   style="fill:none;stroke:#000000;stroke-width:35;stroke-linecap:round;stroke-linejoin:round" />
        <path
   d="m 6822,17514 h -31 l -31,-31 -31,66 h 31 31 l 31,31 -31,31 v 31 h 31 l 66,-31 v -31 h 62 v -31 -35 l -31,-31 31,-31 -31,-31 h -31 l -31,31 z"
   id="path187"
   inkscape:connector-curvature="0"
   style="fill:#00ff00;stroke:none" />
        <path
   d="m 6822,17514 h -31 l -31,-31 -31,66 h 31 31 l 31,31 -31,31 v 31 h 31 l 66,-31 v -31 h 62 v -31 -35 l -31,-31 31,-31 -31,-31 h -31 l -31,31 z"
   id="path189"
   inkscape:connector-curvature="0"
   style="fill:none;stroke:#000000;stroke-width:35;stroke-linecap:round;stroke-linejoin:round" />
        <path
   d="m 6950,17298 h 18 39 v 0 h -17 z"
   id="path191"
   inkscape:connector-curvature="0"
   style="fill:#00ff00;stroke:none" />
        <path
   d="m 6950,17298 h 18 39 v 0 h -17 z"
   id="path193"
   inkscape:connector-curvature="0"
   style="fill:none;stroke:#000000;stroke-width:35;stroke-linecap:round;stroke-linejoin:round" />
        <path
   d="m 6950,17329 h 31 31 l 31,-31 v -31 l -31,31 z"
   id="path195"
   inkscape:connector-curvature="0"
   style="fill:#00ff00;stroke:none" />
        <path
   d="m 6950,17329 h 31 31 l 31,-31 v -31 l -31,31 z"
   id="path197"
   inkscape:connector-curvature="0"
   style="fill:none;stroke:#000000;stroke-width:35;stroke-linecap:round;stroke-linejoin:round" />
        <path
   d="m 7043,17236 h 31 v 0 h -14 z"
   id="path199"
   inkscape:connector-curvature="0"
   style="fill:#00ff00;stroke:none" />
        <path
   d="m 7043,17236 h 31 v 0 h -14 z"
   id="path201"
   inkscape:connector-curvature="0"
   style="fill:none;stroke:#000000;stroke-width:35;stroke-linecap:round;stroke-linejoin:round" />
        <path
   d="m 7043,17236 31,31 30,-31 -30,-35 z"
   id="path203"
   inkscape:connector-curvature="0"
   style="fill:#00ff00;stroke:none" />
        <path
   d="m 7043,17236 31,31 30,-31 -30,-35 z"
   id="path205"
   inkscape:connector-curvature="0"
   style="fill:none;stroke:#000000;stroke-width:35;stroke-linecap:round;stroke-linejoin:round" />
        <path
   d="m 7290,17015 26,-26 h 27 l 75,-27 h 26 l -26,-48 h 26 v -53 h -75 v 53 26 h -26 l -27,22 h -26 z"
   id="path207"
   inkscape:connector-curvature="0"
   style="fill:#00ff00;stroke:none" />
        <path
   d="m 7290,17015 26,-26 h 27 l 75,-27 h 26 l -26,-48 h 26 v -53 h -75 v 53 26 h -26 l -27,22 h -26 z"
   id="path209"
   inkscape:connector-curvature="0"
   style="fill:none;stroke:#000000;stroke-width:35;stroke-linecap:round;stroke-linejoin:round" />
        <path
   d="m 7479,16707 75,-53 h 23 26 v -49 -26 h -49 l -48,26 -27,27 v 48 z"
   id="path211"
   inkscape:connector-curvature="0"
   style="fill:#00ff00;stroke:none" />
        <path
   d="m 7479,16707 75,-53 h 23 26 v -49 -26 h -49 l -48,26 -27,27 v 48 z"
   id="path213"
   inkscape:connector-curvature="0"
   style="fill:none;stroke:#000000;stroke-width:35;stroke-linecap:round;stroke-linejoin:round" />
        <path
   d="m 7634,16579 84,-27 114,-79 h 31 l 84,-27 v -26 h -26 l -58,-27 -31,27 h -83 l -31,26 -27,53 z"
   id="path215"
   inkscape:connector-curvature="0"
   style="fill:#00ff00;stroke:none" />
        <path
   d="m 7634,16579 84,-27 114,-79 h 31 l 84,-27 v -26 h -26 l -58,-27 -31,27 h -83 l -31,26 -27,53 z"
   id="path217"
   inkscape:connector-curvature="0"
   style="fill:none;stroke:#000000;stroke-width:35;stroke-linecap:round;stroke-linejoin:round" />
        <path
   d="m 7634,16393 79,-26 31,-26 h 53 l 53,-75 h -26 l -27,-27 -26,27 v 26 l -58,49 h -53 z"
   id="path219"
   inkscape:connector-curvature="0"
   style="fill:#00ff00;stroke:none" />
        <path
   d="m 7634,16393 79,-26 31,-26 h 53 l 53,-75 h -26 l -27,-27 -26,27 v 26 l -58,49 h -53 z"
   id="path221"
   inkscape:connector-curvature="0"
   style="fill:none;stroke:#000000;stroke-width:35;stroke-linecap:round;stroke-linejoin:round" />
        <path
   d="m 8516,15644 h -31 l -57,119 v 31 l -88,88 -27,61 v 120 l -57,30 h -31 v 62 88 h 57 31 v 31 62 l 58,27 v 30 l 57,31 31,-31 -31,-57 31,-181 115,-92 v -27 l 26,-93 v -119 l 31,-30 v -31 l -31,-31 -57,-58 z"
   id="path223"
   inkscape:connector-curvature="0"
   style="fill:#00ff00;stroke:none" />
        <path
   d="m 8516,15644 h -31 l -57,119 v 31 l -88,88 -27,61 v 120 l -57,30 h -31 v 62 88 h 57 31 v 31 62 l 58,27 v 30 l 57,31 31,-31 -31,-57 31,-181 115,-92 v -27 l 26,-93 v -119 l 31,-30 v -31 l -31,-31 -57,-58 z"
   id="path225"
   inkscape:connector-curvature="0"
   style="fill:none;stroke:#000000;stroke-width:35;stroke-linecap:round;stroke-linejoin:round" />
        <path
   d="m 8538,15613 -61,31 -31,92 -31,62 -97,97 -31,62 31,92 -62,31 -31,31 -31,31 v 128 h 62 l 31,-35 v 66 62 l 62,30 v 31 l 66,31 31,-31 v -92 l 31,-159 123,-93 v -62 -61 l 31,-159 v -31 l -31,-62 -31,-31 z"
   id="path227"
   inkscape:connector-curvature="0"
   style="fill:#00ff00;stroke:none" />
        <path
   d="m 8538,15613 -61,31 -31,92 -31,62 -97,97 -31,62 31,92 -62,31 -31,31 -31,31 v 128 h 62 l 31,-35 v 66 62 l 62,30 v 31 l 66,31 31,-31 v -92 l 31,-159 123,-93 v -62 -61 l 31,-159 v -31 l -31,-62 -31,-31 z"
   id="path229"
   inkscape:connector-curvature="0"
   style="fill:none;stroke:#000000;stroke-width:35;stroke-linecap:round;stroke-linejoin:round" />
        <path
   d="m 8631,16420 62,-31 v -123 l 31,-31 123,-62 -62,-62 v -62 h -30 v 93 l -31,31 -62,62 -216,136 31,-167 v -62 l 92,-62 31,-62 v -92 l 31,-155 v -35 l -44,-53 -31,-31 -18,-39 h -31 l 31,-62 31,-31 62,-31 h 62 31 l 61,31 62,-31 31,-93 62,-30 -31,-31 -31,-31 -31,-93 v -31 l -62,-31 v -30 l 31,-31 h 62 v -93 l 154,-159 31,-31 62,31 h 31 l 31,-31 -31,-61 -62,-31 h -31 l -31,-31 31,-31 31,-62 v -31 -61 -31 l 62,-97 -31,-58 v -92 l 62,-93 31,-31 v -97 l 123,-93 v -61 l 31,-31 62,31 62,-62 -62,-62 -62,31 v -62 l 31,-61 -62,30 -31,-30 -92,-62 -31,-66 62,-31 61,-27 -30,-123 30,-31 v -31 h 62 v -62 -31 l 62,-66 v -31 -31 l 62,-30 v -31 -31 l 62,-31 30,-31 31,-31 -31,-62 -30,-30 61,-62 31,-66 62,-62 v -27 l 31,-30 v -31 l 62,-31 h 61 l 62,62 v -31 l -62,-93 h -92 l -31,-62 v -159 l 62,-30 92,-31 62,-62 v -62 l -31,-92 31,-31 31,-31 v -31 l 62,-35 31,35 v 62 l 30,61 93,62 -31,-92 31,-62 -31,-159 -31,-26 v -31 l 93,-93 62,31 62,-31 61,-31 v -62 -31 l -31,31 h -61 -93 l -31,-31 v -66 l 62,-61 v -31 l 31,-31 123,-93 62,-123 -31,-62 v -35 -93 l 62,-31 31,-88 31,-124 31,-31 30,31 31,-31 -31,-97 -30,-30 92,-62 31,31 h 62 l 31,-31 -62,-155 62,-30 31,-62 31,-66 61,-31 31,31 31,66 31,-31 31,-97 31,-62 31,-88 v 212 l 31,97 v 216 l 61,31 31,-124 31,-154 -31,-66 31,-93 31,-62 93,-57 v -62 l -31,-62 h 61 l 93,62 93,62 -62,-190 -93,-31 -92,-61 v -62 l 61,-62 31,62 62,62 h 155 l 61,30 31,31 v 66 h 62 l 93,31 31,31 -31,62 v 62 l 31,57 92,31 -31,62 -31,31 -30,35 30,62 31,31 31,61 v 62 h -31 l -31,62 -30,92 v 31 l -93,-61 -124,-31 -92,-31 -31,-62 -62,31 v 62 l -31,61 31,97 -31,31 h -93 l -123,124 62,247 v 62 l -31,61 62,93 -31,93 h -124 -154 l -309,31 -62,30 v 62 l 93,252 -31,88 -62,159 -123,-62 -93,31 -154,216 30,221 v 61 l -154,93 v 62 l 185,181 31,66 -62,92 -154,186 v 61 l 31,128 -93,93 -31,62 62,150 -31,66 -216,216 -62,31 93,251 -31,62 -31,154 31,155 31,92 -31,186 -93,220 -61,309 61,27 93,97 62,61 v 124 93 l -62,92 -216,-31 -155,31 -123,128 -62,124 -154,339 61,124 -30,92 v 31 l -71,49 -128,-18 -93,-84 -79,-39 -31,31 -93,30 -30,-30 -31,-93 z"
   id="path231"
   inkscape:connector-curvature="0"
   style="fill:#00ff00;stroke:none" />
        <path
   d="m 8631,16420 62,-31 v -123 l 31,-31 123,-62 -62,-62 v -62 h -30 v 93 l -31,31 -62,62 -216,136 31,-167 v -62 l 92,-62 31,-62 v -92 l 31,-155 v -35 l -44,-53 -31,-31 -18,-39 h -31 l 31,-62 31,-31 62,-31 h 62 31 l 61,31 62,-31 31,-93 62,-30 -31,-31 -31,-31 -31,-93 v -31 l -62,-31 v -30 l 31,-31 h 62 v -93 l 154,-159 31,-31 62,31 h 31 l 31,-31 -31,-61 -62,-31 h -31 l -31,-31 31,-31 31,-62 v -31 -61 -31 l 62,-97 -31,-58 v -92 l 62,-93 31,-31 v -97 l 123,-93 v -61 l 31,-31 62,31 62,-62 -62,-62 -62,31 v -62 l 31,-61 -62,30 -31,-30 -92,-62 -31,-66 62,-31 61,-27 -30,-123 30,-31 v -31 h 62 v -62 -31 l 62,-66 v -31 -31 l 62,-30 v -31 -31 l 62,-31 30,-31 31,-31 -31,-62 -30,-30 61,-62 31,-66 62,-62 v -27 l 31,-30 v -31 l 62,-31 h 61 l 62,62 v -31 l -62,-93 h -92 l -31,-62 v -159 l 62,-30 92,-31 62,-62 v -62 l -31,-92 31,-31 31,-31 v -31 l 62,-35 31,35 v 62 l 30,61 93,62 -31,-92 31,-62 -31,-159 -31,-26 v -31 l 93,-93 62,31 62,-31 61,-31 v -62 -31 l -31,31 h -61 -93 l -31,-31 v -66 l 62,-61 v -31 l 31,-31 123,-93 62,-123 -31,-62 v -35 -93 l 62,-31 31,-88 31,-124 31,-31 30,31 31,-31 -31,-97 -30,-30 92,-62 31,31 h 62 l 31,-31 -62,-155 62,-30 31,-62 31,-66 61,-31 31,31 31,66 31,-31 31,-97 31,-62 31,-88 v 212 l 31,97 v 216 l 61,31 31,-124 31,-154 -31,-66 31,-93 31,-62 93,-57 v -62 l -31,-62 h 61 l 93,62 93,62 -62,-190 -93,-31 -92,-61 v -62 l 61,-62 31,62 62,62 h 155 l 61,30 31,31 v 66 h 62 l 93,31 31,31 -31,62 v 62 l 31,57 92,31 -31,62 -31,31 -30,35 30,62 31,31 31,61 v 62 h -31 l -31,62 -30,92 v 31 l -93,-61 -124,-31 -92,-31 -31,-62 -62,31 v 62 l -31,61 31,97 -31,31 h -93 l -123,124 62,247 v 62 l -31,61 62,93 -31,93 h -124 -154 l -309,31 -62,30 v 62 l 93,252 -31,88 -62,159 -123,-62 -93,31 -154,216 30,221 v 61 l -154,93 v 62 l 185,181 31,66 -62,92 -154,186 v 61 l 31,128 -93,93 -31,62 62,150 -31,66 -216,216 -62,31 93,251 -31,62 -31,154 31,155 31,92 -31,186 -93,220 -61,309 61,27 93,97 62,61 v 124 93 l -62,92 -216,-31 -155,31 -123,128 -62,124 -154,339 61,124 -30,92 v 31 l -71,49 -128,-18 -93,-84 -79,-39 -31,31 -93,30 -30,-30 -31,-93 z"
   id="path233"
   inkscape:connector-curvature="0"
   style="fill:none;stroke:#000000;stroke-width:35;stroke-linecap:round;stroke-linejoin:round" />
        <path
   d="m 11155,9530 v 26 l -27,53 v 26 l 53,27 h 27 26 27 l 53,26 v -26 h -27 l -26,-27 v -53 h -27 l -26,-26 z"
   id="path235"
   inkscape:connector-curvature="0"
   style="fill:#00ff00;stroke:none" />
        <path
   d="m 11155,9530 v 26 l -27,53 v 26 l 53,27 h 27 26 27 l 53,26 v -26 h -27 l -26,-27 v -53 h -27 l -26,-26 z"
   id="path237"
   inkscape:connector-curvature="0"
   style="fill:none;stroke:#000000;stroke-width:35;stroke-linecap:round;stroke-linejoin:round" />
        <path
   d="m 11124,9499 v 61 l -31,67 31,30 31,31 h 31 l 66,-31 31,31 61,31 v -31 l -30,-31 h -62 v -66 l -31,-31 -35,-30 z"
   id="path239"
   inkscape:connector-curvature="0"
   style="fill:#00ff00;stroke:none" />
        <path
   d="m 11124,9499 v 61 l -31,67 31,30 31,31 h 31 l 66,-31 31,31 61,31 v -31 l -30,-31 h -62 v -66 l -31,-31 -35,-30 z"
   id="path241"
   inkscape:connector-curvature="0"
   style="fill:none;stroke:#000000;stroke-width:35;stroke-linecap:round;stroke-linejoin:round" />
        <path
   d="m 11009,9613 27,75 h -27 -53 l -84,-48 -26,-27 v -22 l 26,-26 27,48 z"
   id="path243"
   inkscape:connector-curvature="0"
   style="fill:#00ff00;stroke:none" />
        <path
   d="m 11009,9613 27,75 h -27 -53 l -84,-48 -26,-27 v -22 l 26,-26 27,48 z"
   id="path245"
   inkscape:connector-curvature="0"
   style="fill:none;stroke:#000000;stroke-width:35;stroke-linecap:round;stroke-linejoin:round" />
        <path
   d="m 11005,9627 31,61 -31,31 -62,-31 -66,-31 -31,-30 v -31 l 31,-31 31,31 z"
   id="path247"
   inkscape:connector-curvature="0"
   style="fill:#00ff00;stroke:none" />
        <path
   d="m 11005,9627 31,61 -31,31 -62,-31 -66,-31 -31,-30 v -31 l 31,-31 31,31 z"
   id="path249"
   inkscape:connector-curvature="0"
   style="fill:none;stroke:#000000;stroke-width:35;stroke-linecap:round;stroke-linejoin:round" />
        <path
   d="m 11036,9499 v 35 l 30,31 27,-31 z"
   id="path251"
   inkscape:connector-curvature="0"
   style="fill:#00ff00;stroke:none" />
        <path
   d="m 11036,9499 v 35 l 30,31 27,-31"
   id="path253"
   inkscape:connector-curvature="0"
   style="fill:none;stroke:#000000;stroke-width:35;stroke-linecap:round;stroke-linejoin:round" />
        <path
   d="m 11503,9282 v 0 31 z"
   id="path255"
   inkscape:connector-curvature="0"
   style="fill:#00ff00;stroke:none" />
        <path
   d="m 11503,9282 v 0 31 z"
   id="path257"
   inkscape:connector-curvature="0"
   style="fill:none;stroke:#000000;stroke-width:35;stroke-linecap:round;stroke-linejoin:round" />
        <path
   d="m 11503,9252 v 30 31 z"
   id="path259"
   inkscape:connector-curvature="0"
   style="fill:#00ff00;stroke:none" />
        <path
   d="m 11503,9252 v 30 31 z"
   id="path261"
   inkscape:connector-curvature="0"
   style="fill:none;stroke:#000000;stroke-width:35;stroke-linecap:round;stroke-linejoin:round" />
        <path
   d="m 11247,9812 v 0 40 22 -22 z"
   id="path263"
   inkscape:connector-curvature="0"
   style="fill:#00ff00;stroke:none" />
        <path
   d="m 11247,9812 v 0 40 22 -22 z"
   id="path265"
   inkscape:connector-curvature="0"
   style="fill:none;stroke:#000000;stroke-width:35;stroke-linecap:round;stroke-linejoin:round" />
        <path
   d="m 11247,9781 v 31 31 31 l 36,-31 z"
   id="path267"
   inkscape:connector-curvature="0"
   style="fill:#00ff00;stroke:none" />
        <path
   d="m 11247,9781 v 31 31 31 l 36,-31 z"
   id="path269"
   inkscape:connector-curvature="0"
   style="fill:none;stroke:#000000;stroke-width:35;stroke-linecap:round;stroke-linejoin:round" />
        <path
   d="m 10969,9847 v 0 l -22,18 -17,22 h -22 l 22,17 h 39 z"
   id="path271"
   inkscape:connector-curvature="0"
   style="fill:#00ff00;stroke:none" />
        <path
   d="m 10969,9847 v 0 l -22,18 -17,22 h -22 l 22,17 h 39 z"
   id="path273"
   inkscape:connector-curvature="0"
   style="fill:none;stroke:#000000;stroke-width:35;stroke-linecap:round;stroke-linejoin:round" />
        <path
   d="m 11000,9812 h -31 l -30,31 -31,35 v 31 31 h 61 z"
   id="path275"
   inkscape:connector-curvature="0"
   style="fill:#00ff00;stroke:none" />
        <path
   d="m 11000,9812 h -31 l -30,31 -31,35 v 31 31 h 61 z"
   id="path277"
   inkscape:connector-curvature="0"
   style="fill:none;stroke:#000000;stroke-width:35;stroke-linecap:round;stroke-linejoin:round" />
        <path
   d="m 10877,9891 v -53 l -53,-26 -22,26 -53,84 -27,27 27,53 h 75 l 53,-53 z"
   id="path279"
   inkscape:connector-curvature="0"
   style="fill:#00ff00;stroke:none" />
        <path
   d="m 10877,9891 v -53 l -53,-26 -22,26 -53,84 -27,27 27,53 h 75 l 53,-53 z"
   id="path281"
   inkscape:connector-curvature="0"
   style="fill:none;stroke:#000000;stroke-width:35;stroke-linecap:round;stroke-linejoin:round" />
        <path
   d="m 10877,9874 v -31 l -62,-62 -31,62 -35,66 -62,31 31,62 97,30 62,-92 z"
   id="path283"
   inkscape:connector-curvature="0"
   style="fill:#00ff00;stroke:none" />
        <path
   d="m 10877,9874 v -31 l -62,-62 -31,62 -35,66 -62,31 31,62 97,30 62,-92 z"
   id="path285"
   inkscape:connector-curvature="0"
   style="fill:none;stroke:#000000;stroke-width:35;stroke-linecap:round;stroke-linejoin:round" />
        <path
   d="m 10753,9812 v -53 l -22,-27 22,-52 -22,-27 -44,-26 v 79 l 22,79 z"
   id="path287"
   inkscape:connector-curvature="0"
   style="fill:#00ff00;stroke:none" />
        <path
   d="m 10753,9812 v -53 l -22,-27 22,-52 -22,-27 -44,-26 v 79 l 22,79 z"
   id="path289"
   inkscape:connector-curvature="0"
   style="fill:none;stroke:#000000;stroke-width:35;stroke-linecap:round;stroke-linejoin:round" />
        <path
   d="m 10780,9812 v -62 l -31,-31 v -62 l -31,-30 h -31 v 61 l 31,93 z"
   id="path291"
   inkscape:connector-curvature="0"
   style="fill:#00ff00;stroke:none" />
        <path
   d="m 10780,9812 v -62 l -31,-31 v -62 l -31,-30 h -31 v 61 l 31,93 z"
   id="path293"
   inkscape:connector-curvature="0"
   style="fill:none;stroke:#000000;stroke-width:35;stroke-linecap:round;stroke-linejoin:round" />
        <path
   d="m 10722,9887 -26,-27 h -53 l -27,-31 27,-26 v -53 l -53,53 -27,57 27,53 79,27 z"
   id="path295"
   inkscape:connector-curvature="0"
   style="fill:#00ff00;stroke:none" />
        <path
   d="m 10722,9887 -26,-27 h -53 l -27,-31 27,-26 v -53 l -53,53 -27,57 27,53 79,27 z"
   id="path297"
   inkscape:connector-curvature="0"
   style="fill:none;stroke:#000000;stroke-width:35;stroke-linecap:round;stroke-linejoin:round" />
        <path
   d="m 10722,9878 h -31 l -66,-31 h -31 l 31,-35 v -62 l -62,62 v 66 l 31,62 h 67 z"
   id="path299"
   inkscape:connector-curvature="0"
   style="fill:#00ff00;stroke:none" />
        <path
   d="m 10722,9878 h -31 l -66,-31 h -31 l 31,-35 v -62 l -62,62 v 66 l 31,62 h 67 z"
   id="path301"
   inkscape:connector-curvature="0"
   style="fill:none;stroke:#000000;stroke-width:35;stroke-linecap:round;stroke-linejoin:round" />
        <path
   d="m 10696,10032 h -31 l -53,27 v 57 l -31,27 v -27 l -26,27 -27,31 27,57 -27,26 -57,58 26,26 h 31 l 137,-84 31,-57 26,-26 -26,-31 v -84 z"
   id="path303"
   inkscape:connector-curvature="0"
   style="fill:#00ff00;stroke:none" />
        <path
   d="m 10696,10032 h -31 l -53,27 v 57 l -31,27 v -27 l -26,27 -27,31 27,57 -27,26 -57,58 26,26 h 31 l 137,-84 31,-57 26,-26 -26,-31 v -84 z"
   id="path305"
   inkscape:connector-curvature="0"
   style="fill:none;stroke:#000000;stroke-width:35;stroke-linecap:round;stroke-linejoin:round" />
        <path
   d="m 10691,10002 h -30 l -31,30 v 62 l -31,62 -36,-31 -30,31 v 31 62 l -31,30 -31,31 v 31 h 62 l 128,-62 30,-61 31,-31 -31,-31 v -93 z"
   id="path307"
   inkscape:connector-curvature="0"
   style="fill:#00ff00;stroke:none" />
        <path
   d="m 10691,10002 h -30 l -31,30 v 62 l -31,62 -36,-31 -30,31 v 31 62 l -31,30 -31,31 v 31 h 62 l 128,-62 30,-61 31,-31 -31,-31 v -93 z"
   id="path309"
   inkscape:connector-curvature="0"
   style="fill:none;stroke:#000000;stroke-width:35;stroke-linecap:round;stroke-linejoin:round" />
        <path
   d="m 10444,10372 -57,31 h -31 v -31 l -57,31 v 26 l -27,31 h -57 v 31 l 26,27 -26,31 -57,30 -31,27 57,31 v 57 l -26,31 26,26 31,31 -31,58 57,31 h 31 l 27,-120 h 57 88 v -88 -57 l 27,-27 v -30 l -27,-58 z"
   id="path311"
   inkscape:connector-curvature="0"
   style="fill:#00ff00;stroke:none" />
        <path
   d="m 10444,10372 -57,31 h -31 v -31 l -57,31 v 26 l -27,31 h -57 v 31 l 26,27 -26,31 -57,30 -31,27 57,31 v 57 l -26,31 26,26 31,31 -31,58 57,31 h 31 l 27,-120 h 57 88 v -88 -57 l 27,-27 v -30 l -27,-58 z"
   id="path313"
   inkscape:connector-curvature="0"
   style="fill:none;stroke:#000000;stroke-width:35;stroke-linecap:round;stroke-linejoin:round" />
        <path
   d="m 10471,10372 -62,31 h -31 l -31,-31 -31,31 -35,31 v 31 l -93,-31 v 31 l 31,31 -31,61 h -30 l -31,31 31,66 v 31 62 l 30,31 v 31 62 l 31,30 62,-30 35,-93 h 31 l 93,-31 31,-62 -31,-66 31,-62 v -31 l -31,-61 z"
   id="path315"
   inkscape:connector-curvature="0"
   style="fill:#00ff00;stroke:none" />
        <path
   d="m 10471,10372 -62,31 h -31 l -31,-31 -31,31 -35,31 v 31 l -93,-31 v 31 l 31,31 -31,61 h -30 l -31,31 31,66 v 31 62 l 30,31 v 31 62 l 31,30 62,-30 35,-93 h 31 l 93,-31 31,-62 -31,-66 31,-62 v -31 l -31,-61 z"
   id="path317"
   inkscape:connector-curvature="0"
   style="fill:none;stroke:#000000;stroke-width:35;stroke-linecap:round;stroke-linejoin:round" />
        <path
   d="m 9725,11091 v -26 l 49,-89 22,-26 48,-57 v -58 -57 l -22,-31 -26,31 -22,57 v 27 l -49,88 v 26 z"
   id="path319"
   inkscape:connector-curvature="0"
   style="fill:#00ff00;stroke:none" />
        <path
   d="m 9725,11091 v -26 l 49,-89 22,-26 48,-57 v -58 -57 l -22,-31 -26,31 -22,57 v 27 l -49,88 v 26 z"
   id="path321"
   inkscape:connector-curvature="0"
   style="fill:none;stroke:#000000;stroke-width:35;stroke-linecap:round;stroke-linejoin:round" />
        <path
   d="m 9690,11122 31,-62 62,-62 v -30 l 61,-67 v -61 -93 h -61 v 62 62 l -62,66 v 31 l -31,30 z"
   id="path323"
   inkscape:connector-curvature="0"
   style="fill:#00ff00;stroke:none" />
        <path
   d="m 9690,11122 31,-62 62,-62 v -30 l 61,-67 v -61 -93 h -61 v 62 62 l -62,66 v 31 l -31,30 z"
   id="path325"
   inkscape:connector-curvature="0"
   style="fill:none;stroke:#000000;stroke-width:35;stroke-linecap:round;stroke-linejoin:round" />
        <path
   d="m 10021,10963 -49,27 v 48 l 71,27 v 26 l 22,-26 v -49 z"
   id="path327"
   inkscape:connector-curvature="0"
   style="fill:#00ff00;stroke:none" />
        <path
   d="m 10021,10963 -49,27 v 48 l 71,27 v 26 l 22,-26 v -49 z"
   id="path329"
   inkscape:connector-curvature="0"
   style="fill:none;stroke:#000000;stroke-width:35;stroke-linecap:round;stroke-linejoin:round" />
        <path
   d="m 10003,10963 h -31 v 62 l 62,66 v 31 l 62,-31 -31,-66 z"
   id="path331"
   inkscape:connector-curvature="0"
   style="fill:#00ff00;stroke:none" />
        <path
   d="m 10003,10963 h -31 v 62 l 62,66 v 31 l 62,-31 -31,-66 z"
   id="path333"
   inkscape:connector-curvature="0"
   style="fill:none;stroke:#000000;stroke-width:35;stroke-linecap:round;stroke-linejoin:round" />
        <path
   d="m 10294,11025 v 0 l -48,26 -27,49 v 53 h 27 l 26,-53 49,-22 26,-27 v -53 27 z"
   id="path335"
   inkscape:connector-curvature="0"
   style="fill:#00ff00;stroke:none" />
        <path
   d="m 10294,11025 v 0 l -48,26 -27,49 v 53 h 27 l 26,-53 49,-22 26,-27 v -53 27 z"
   id="path337"
   inkscape:connector-curvature="0"
   style="fill:none;stroke:#000000;stroke-width:35;stroke-linecap:round;stroke-linejoin:round" />
        <path
   d="m 10316,10998 -30,31 -62,31 v 31 l -31,62 31,31 62,-62 30,-62 62,-31 v -31 l -31,31 z"
   id="path339"
   inkscape:connector-curvature="0"
   style="fill:#00ff00;stroke:none" />
        <path
   d="m 10316,10998 -30,31 -62,31 v 31 l -31,62 31,31 62,-62 30,-62 62,-31 v -31 l -31,31 z"
   id="path341"
   inkscape:connector-curvature="0"
   style="fill:none;stroke:#000000;stroke-width:35;stroke-linecap:round;stroke-linejoin:round" />
        <path
   d="m 10038,11122 58,26 v 31 115 57 l -58,27 h -57 l -57,31 -31,57 -31,-31 -57,-57 h -27 v -27 l -31,-57 h -26 l -31,-31 31,-26 h 26 31 l 27,-58 -27,-31 27,-57 57,31 v 26 89 h 31 l 57,-31 h 31 v -27 z"
   id="path343"
   inkscape:connector-curvature="0"
   style="fill:#00ff00;stroke:none" />
        <path
   d="m 10038,11122 58,26 v 31 115 57 l -58,27 h -57 l -57,31 -31,57 -31,-31 -57,-57 h -27 v -27 l -31,-57 h -26 l -31,-31 31,-26 h 26 31 l 27,-58 -27,-31 27,-57 57,31 v 26 89 h 31 l 57,-31 h 31 v -27 z"
   id="path345"
   inkscape:connector-curvature="0"
   style="fill:none;stroke:#000000;stroke-width:35;stroke-linecap:round;stroke-linejoin:round" />
        <path
   d="m 10034,11091 93,62 v 31 l -31,97 v 92 h -62 -31 l -62,62 -66,31 -62,-93 -61,31 v -61 -31 l -31,-31 h -31 l 31,-35 31,-31 h 31 v -31 -62 l 30,-31 h 31 l 31,62 -31,62 h 66 l 62,-31 v 31 h 31 l -31,-62 z"
   id="path347"
   inkscape:connector-curvature="0"
   style="fill:#00ff00;stroke:none" />
        <path
   d="m 10034,11091 93,62 v 31 l -31,97 v 92 h -62 -31 l -62,62 -66,31 -62,-93 -61,31 v -61 -31 l -31,-31 h -31 l 31,-35 31,-31 h 31 v -31 -62 l 30,-31 h 31 l 31,62 -31,62 h 66 l 62,-31 v 31 h 31 l -31,-62 z"
   id="path349"
   inkscape:connector-curvature="0"
   style="fill:none;stroke:#000000;stroke-width:35;stroke-linecap:round;stroke-linejoin:round" />
        <path
   d="m 9659,11263 -26,-57 -27,-27 -26,-57 h -58 l -26,57 26,53 -53,58 -26,57 v 57 l 26,27 53,-58 v -26 -57 l 31,-27 27,27 h 53 z"
   id="path351"
   inkscape:connector-curvature="0"
   style="fill:#00ff00;stroke:none" />
        <path
   d="m 9659,11263 -26,-57 -27,-27 -26,-57 h -58 l -26,57 26,53 -53,58 -26,57 v 57 l 26,27 53,-58 v -26 -57 l 31,-27 27,27 h 53 z"
   id="path353"
   inkscape:connector-curvature="0"
   style="fill:none;stroke:#000000;stroke-width:35;stroke-linecap:round;stroke-linejoin:round" />
        <path
   d="m 9690,11246 -31,-31 -31,-31 -62,-62 -31,-31 -30,62 v 62 l -31,61 -62,62 31,62 v 31 l 92,-31 v -62 -31 l 31,-61 31,61 h 31 z"
   id="path355"
   inkscape:connector-curvature="0"
   style="fill:#00ff00;stroke:none" />
        <path
   d="m 9690,11246 -31,-31 -31,-31 -62,-62 -31,-31 -30,62 v 62 l -31,61 -62,62 31,62 v 31 l 92,-31 v -62 -31 l 31,-61 31,61 h 31 z"
   id="path357"
   inkscape:connector-curvature="0"
   style="fill:none;stroke:#000000;stroke-width:35;stroke-linecap:round;stroke-linejoin:round" />
        <path
   d="m 9690,11365 -27,-27 h -26 -53 v 27 l -53,26 -26,53 26,53 79,-53 53,-26 z"
   id="path359"
   inkscape:connector-curvature="0"
   style="fill:#00ff00;stroke:none" />
        <path
   d="m 9690,11365 -27,-27 h -26 -53 v 27 l -53,26 -26,53 26,53 79,-53 53,-26 z"
   id="path361"
   inkscape:connector-curvature="0"
   style="fill:none;stroke:#000000;stroke-width:35;stroke-linecap:round;stroke-linejoin:round" />
        <path
   d="m 9725,11343 -31,-31 h -61 -36 v 31 l -62,61 -30,27 30,92 62,-61 66,-31 z"
   id="path363"
   inkscape:connector-curvature="0"
   style="fill:#00ff00;stroke:none" />
        <path
   d="m 9725,11343 -31,-31 h -61 -36 v 31 l -62,61 -30,27 30,92 62,-61 66,-31 z"
   id="path365"
   inkscape:connector-curvature="0"
   style="fill:none;stroke:#000000;stroke-width:35;stroke-linecap:round;stroke-linejoin:round" />
        <path
   d="m 9769,11404 -53,53 -26,58 v 53 52 l 53,-26 v -53 h 26 v 27 l 31,52 h 53 l 27,-26 v -26 -53 -31 z"
   id="path367"
   inkscape:connector-curvature="0"
   style="fill:#00ff00;stroke:none" />
        <path
   d="m 9769,11404 -53,53 -26,58 v 53 52 l 53,-26 v -53 h 26 v 27 l 31,52 h 53 l 27,-26 v -26 -53 -31 z"
   id="path369"
   inkscape:connector-curvature="0"
   style="fill:none;stroke:#000000;stroke-width:35;stroke-linecap:round;stroke-linejoin:round" />
        <path
   d="m 9787,11404 -66,31 -62,62 v 93 l 31,30 h 31 l 31,-61 35,-31 v 62 l 31,30 31,31 61,-61 -30,-31 v -62 -31 z"
   id="path371"
   inkscape:connector-curvature="0"
   style="fill:#00ff00;stroke:none" />
        <path
   d="m 9787,11404 -66,31 -62,62 v 93 l 31,30 h 31 l 31,-61 35,-31 v 62 l 31,30 31,31 61,-61 -30,-31 v -62 -31 z"
   id="path373"
   inkscape:connector-curvature="0"
   style="fill:none;stroke:#000000;stroke-width:35;stroke-linecap:round;stroke-linejoin:round" />
        <path
   d="m 10074,11431 -18,26 -22,27 v 48 27 l 40,-27 22,-26 z"
   id="path375"
   inkscape:connector-curvature="0"
   style="fill:#00ff00;stroke:none" />
        <path
   d="m 10074,11431 -18,26 -22,27 v 48 27 l 40,-27 22,-26 z"
   id="path377"
   inkscape:connector-curvature="0"
   style="fill:none;stroke:#000000;stroke-width:35;stroke-linecap:round;stroke-linejoin:round" />
        <path
   d="m 10096,11431 -31,31 -31,35 v 31 31 l 31,-31 62,-31 z"
   id="path379"
   inkscape:connector-curvature="0"
   style="fill:#00ff00;stroke:none" />
        <path
   d="m 10096,11431 -31,31 -31,35 v 31 31 l 31,-31 62,-31 z"
   id="path381"
   inkscape:connector-curvature="0"
   style="fill:none;stroke:#000000;stroke-width:35;stroke-linecap:round;stroke-linejoin:round" />
        <path
   d="m 9725,11651 v 18 l -22,13 h -48 -27 l 27,-31 h 22 z"
   id="path383"
   inkscape:connector-curvature="0"
   style="fill:#00ff00;stroke:none" />
        <path
   d="m 9725,11651 v 18 l -22,13 h -48 -27 l 27,-31 h 22 z"
   id="path385"
   inkscape:connector-curvature="0"
   style="fill:none;stroke:#000000;stroke-width:35;stroke-linecap:round;stroke-linejoin:round" />
        <path
   d="m 9725,11620 v 62 31 h -66 l -31,-31 v -31 l 31,-31 z"
   id="path387"
   inkscape:connector-curvature="0"
   style="fill:#00ff00;stroke:none" />
        <path
   d="m 9725,11620 v 62 31 h -66 l -31,-31 v -31 l 31,-31 z"
   id="path389"
   inkscape:connector-curvature="0"
   style="fill:none;stroke:#000000;stroke-width:35;stroke-linecap:round;stroke-linejoin:round" />
        <path
   d="m 9659,11616 -26,-26 h -27 l -31,26 v 57 h -53 l -57,31 -27,27 -26,57 v 57 27 l 53,-27 84,-57 h 26 v -31 l 31,-53 z"
   id="path391"
   inkscape:connector-curvature="0"
   style="fill:#00ff00;stroke:none" />
        <path
   d="m 9659,11616 -26,-26 h -27 l -31,26 v 57 h -53 l -57,31 -27,27 -26,57 v 57 27 l 53,-27 84,-57 h 26 v -31 l 31,-53 z"
   id="path393"
   inkscape:connector-curvature="0"
   style="fill:none;stroke:#000000;stroke-width:35;stroke-linecap:round;stroke-linejoin:round" />
        <path
   d="m 9659,11620 v -61 l -31,31 h -31 l -31,61 h -61 l -31,62 -31,31 -31,31 v 92 l -31,31 62,-31 92,-92 h 31 l 31,-31 31,-31 z"
   id="path395"
   inkscape:connector-curvature="0"
   style="fill:#00ff00;stroke:none" />
        <path
   d="m 9659,11620 v -61 l -31,31 h -31 l -31,61 h -61 l -31,62 -31,31 -31,31 v 92 l -31,31 62,-31 92,-92 h 31 l 31,-31 31,-31 z"
   id="path397"
   inkscape:connector-curvature="0"
   style="fill:none;stroke:#000000;stroke-width:35;stroke-linecap:round;stroke-linejoin:round" />
        <path
   d="m 9880,11806 v 26 31 l -53,27 v 30 84 l -22,88 -27,27 -26,-57 v -84 h 26 l 27,-31 v -57 -27 l 22,-31 z"
   id="path399"
   inkscape:connector-curvature="0"
   style="fill:#00ff00;stroke:none" />
        <path
   d="m 9880,11806 v 26 31 l -53,27 v 30 84 l -22,88 -27,27 -26,-57 v -84 h 26 l 27,-31 v -57 -27 l 22,-31 z"
   id="path401"
   inkscape:connector-curvature="0"
   style="fill:none;stroke:#000000;stroke-width:35;stroke-linecap:round;stroke-linejoin:round" />
        <path
   d="m 9880,11779 v 62 31 l -31,31 -31,31 v 61 l -31,93 v 31 l -62,-31 31,-93 31,-30 h 31 l -31,-93 v -31 l 31,-31 z"
   id="path403"
   inkscape:connector-curvature="0"
   style="fill:#00ff00;stroke:none" />
        <path
   d="m 9880,11779 v 62 31 l -31,31 -31,31 v 61 l -31,93 v 31 l -62,-31 31,-93 31,-30 h 31 l -31,-93 v -31 l 31,-31 z"
   id="path405"
   inkscape:connector-curvature="0"
   style="fill:none;stroke:#000000;stroke-width:35;stroke-linecap:round;stroke-linejoin:round" />
        <path
   d="m 9381,11770 -26,-26 -58,26 v 31 l -79,-31 -31,31 v 53 l -27,27 v 31 26 l 84,27 27,-27 26,-57 h 31 l 27,31 26,-58 z"
   id="path407"
   inkscape:connector-curvature="0"
   style="fill:#00ff00;stroke:none" />
        <path
   d="m 9381,11770 -26,-26 -58,26 v 31 l -79,-31 -31,31 v 53 l -27,27 v 31 26 l 84,27 27,-27 26,-57 h 31 l 27,31 26,-58 z"
   id="path409"
   inkscape:connector-curvature="0"
   style="fill:none;stroke:#000000;stroke-width:35;stroke-linecap:round;stroke-linejoin:round" />
        <path
   d="m 9412,11775 -31,-31 -31,-31 -31,31 v 62 l -31,-31 h -66 l -62,31 v 35 62 h -30 v 62 h 92 l 31,-31 35,-31 h 31 62 l 31,-62 z"
   id="path411"
   inkscape:connector-curvature="0"
   style="fill:#00ff00;stroke:none" />
        <path
   d="m 9412,11775 -31,-31 -31,-31 -31,31 v 62 l -31,-31 h -66 l -62,31 v 35 62 h -30 v 62 h 92 l 31,-31 35,-31 h 31 62 l 31,-62 z"
   id="path413"
   inkscape:connector-curvature="0"
   style="fill:none;stroke:#000000;stroke-width:35;stroke-linecap:round;stroke-linejoin:round" />
        <path
   d="m 9134,11965 h -53 l -53,52 -26,58 -27,26 v 111 l 53,-27 v -26 l 79,-58 53,-84 z"
   id="path415"
   inkscape:connector-curvature="0"
   style="fill:#00ff00;stroke:none" />
        <path
   d="m 9134,11965 h -53 l -53,52 -26,58 -27,26 v 111 l 53,-27 v -26 l 79,-58 53,-84 z"
   id="path417"
   inkscape:connector-curvature="0"
   style="fill:none;stroke:#000000;stroke-width:35;stroke-linecap:round;stroke-linejoin:round" />
        <path
   d="m 9130,11934 -62,31 -31,61 -62,66 v 31 124 l 62,-31 v -62 l 62,-62 61,-66 z"
   id="path419"
   inkscape:connector-curvature="0"
   style="fill:#00ff00;stroke:none" />
        <path
   d="m 9130,11934 -62,31 -31,61 -62,66 v 31 124 l 62,-31 v -62 l 62,-62 61,-66 z"
   id="path421"
   inkscape:connector-curvature="0"
   style="fill:none;stroke:#000000;stroke-width:35;stroke-linecap:round;stroke-linejoin:round" />
        <path
   d="m 8913,12366 v 66 l 31,-22 v -22 -22 z"
   id="path423"
   inkscape:connector-curvature="0"
   style="fill:#00ff00;stroke:none" />
        <path
   d="m 8913,12366 v 66 l 31,-22 v -22 -22 z"
   id="path425"
   inkscape:connector-curvature="0"
   style="fill:none;stroke:#000000;stroke-width:35;stroke-linecap:round;stroke-linejoin:round" />
        <path
   d="m 8913,12366 v 66 h 31 l 31,-31 -31,-35 z"
   id="path427"
   inkscape:connector-curvature="0"
   style="fill:#00ff00;stroke:none" />
        <path
   d="m 8913,12366 v 66 h 31 l 31,-31 -31,-35 z"
   id="path429"
   inkscape:connector-curvature="0"
   style="fill:none;stroke:#000000;stroke-width:35;stroke-linecap:round;stroke-linejoin:round" />
        <path
   d="m 9205,13711 -27,31 v 27 l -57,57 h -27 -31 l 31,31 -31,26 -26,31 v 58 l 26,-27 58,-31 h 26 v 31 l -26,58 h -27 l -31,26 v 57 31 l 58,-31 v -26 l 26,-31 31,-57 27,-27 v -62 l 26,-26 h 57 l 27,-31 -27,-26 h -57 l -53,57 h -31 l 31,-57 h 27 z"
   id="path431"
   inkscape:connector-curvature="0"
   style="fill:#00ff00;stroke:none" />
        <path
   d="m 9205,13711 -27,31 v 27 l -57,57 h -27 -31 l 31,31 -31,26 -26,31 v 58 l 26,-27 58,-31 h 26 v 31 l -26,58 h -27 l -31,26 v 57 31 l 58,-31 v -26 l 26,-31 31,-57 27,-27 v -62 l 26,-26 h 57 l 27,-31 -27,-26 h -57 l -53,57 h -31 l 31,-57 h 27 z"
   id="path433"
   inkscape:connector-curvature="0"
   style="fill:none;stroke:#000000;stroke-width:35;stroke-linecap:round;stroke-linejoin:round" />
        <path
   d="m 9191,13711 v 0 l -31,31 v 31 l -30,31 h -31 l -31,31 v 31 l -31,31 v 35 62 l 31,-62 62,-35 h 30 v 66 l -61,31 h -31 v 61 l -31,62 31,31 31,-31 31,-62 30,-61 62,-31 v -66 l 31,-31 h 31 l 31,-31 -31,-62 -62,31 -31,31 -31,31 -30,-31 30,-31 h 62 z"
   id="path435"
   inkscape:connector-curvature="0"
   style="fill:#00ff00;stroke:none" />
        <path
   d="m 9191,13711 v 0 l -31,31 v 31 l -30,31 h -31 l -31,31 v 31 l -31,31 v 35 62 l 31,-62 62,-35 h 30 v 66 l -61,31 h -31 v 61 l -31,62 31,31 31,-31 31,-62 30,-61 62,-31 v -66 l 31,-31 h 31 l 31,-31 -31,-62 -62,31 -31,31 -31,31 -30,-31 30,-31 h 62 z"
   id="path437"
   inkscape:connector-curvature="0"
   style="fill:none;stroke:#000000;stroke-width:35;stroke-linecap:round;stroke-linejoin:round" />
        <path
   d="m 8975,14272 h -31 l -66,31 h -31 v 30 31 h 66 l 31,-61 z"
   id="path439"
   inkscape:connector-curvature="0"
   style="fill:#00ff00;stroke:none" />
        <path
   d="m 8975,14272 h -31 l -66,31 h -31 v 30 31 h 66 l 31,-61"
   id="path441"
   inkscape:connector-curvature="0"
   style="fill:none;stroke:#000000;stroke-width:35;stroke-linecap:round;stroke-linejoin:round" />
        <path
   d="m 8666,15074 -26,-26 h -22 l -27,26 h -26 l -27,23 v 26 h 27 l 26,-26 h 27 l 22,48 h 26 l 27,-22 z"
   id="path443"
   inkscape:connector-curvature="0"
   style="fill:#00ff00;stroke:none" />
        <path
   d="m 8666,15074 -26,-26 h -22 l -27,26 h -26 l -27,23 v 26 h 27 l 26,-26 h 27 l 22,48 h 26 l 27,-22 z"
   id="path445"
   inkscape:connector-curvature="0"
   style="fill:none;stroke:#000000;stroke-width:35;stroke-linecap:round;stroke-linejoin:round" />
        <path
   d="m 11499,9419 h 62 l 61,-31 31,-31 h 31 v 62 l 93,31 31,-62 31,-31 h 92 l 62,31 v 62 l 62,62 h 62 l 30,-31 v -62 l -30,-92 -31,-31 v -93 l 31,-26 92,-67 31,-92 31,-62 v -93 l -31,-57 31,-31 h 62 v -31 -66 l -62,-31 v -61 -89 l 62,-31 61,31 62,31 31,27 31,-27 v -62 h 62 92 31 v 89 l -92,123 -31,66 31,93 v 88 l 61,124 v 92 h 62 l 31,-31 v -92 -124 l 31,-57 62,-124 v -185 l 62,-185 30,-62 62,31 31,93 v 61 l 62,120 31,-31 31,-58 -31,-61 -62,-155 31,-66 31,-57 h 31 l 61,-62 93,-31 h 62 l 154,31 v 31 l -31,62 -61,61 -31,62 h 61 62 v 62 62 l 93,-31 v -93 -123 -62 l 62,-93 h 61 l 93,93 31,31 31,-62 h 31 l 31,31 61,-31 h 62 62 v 62 l 31,57 h 31 61 l 62,-57 h 93 l 62,57 31,97 v 62 l -62,62 -62,61 -31,119 -93,31 -123,31 -155,35 h -61 l 31,62 h 92 l 155,31 92,31 h 124 l 62,26 31,31 61,-57 62,-62 h 62 l 31,119 31,62 v 62 h -62 -93 -62 l -30,31 v 154 l -31,31 -93,62 h -62 v 92 l -31,62 31,31 v 57 l -31,97 -31,31 -30,-92 v -124 l 30,-154 v -119 l -30,-36 -93,-31 -216,-30 -62,-31 -31,-31 -62,-93 h -123 l -31,-31 -62,31 -31,93 -31,62 -61,61 h -93 -62 l -62,62 -61,62 -31,185 -31,155 v 123 l 123,124 31,119 -31,128 v 61 l -31,27 -30,62 30,251 -61,26 -31,31 -62,-57 -31,-66 h -62 l -61,31 h -124 l -31,-62 h -62 l -61,62 v 61 l -62,62 -62,31 -31,31 -62,31 -61,-31 -31,-31 -62,31 -62,-31 -61,-31 -62,-62 -62,-61 -40,-22 58,-172 h 44 v -62 l -31,-57 -71,-102 58,-48 13,-31 h 9 l 22,-31 -13,-5 -71,-31 -31,-35 -22,-48 22,-62 13,-40 -22,-22 -39,-31 -71,-9 -35,-22 -18,-70 -62,-27 -44,-26 -62,18 -70,-18 -62,-62 z"
   id="path447"
   inkscape:connector-curvature="0"
   style="fill:#00ff00;stroke:none" />
        <path
   d="m 11499,9419 h 62 l 61,-31 31,-31 h 31 v 62 l 93,31 31,-62 31,-31 h 92 l 62,31 v 62 l 62,62 h 62 l 30,-31 v -62 l -30,-92 -31,-31 v -93 l 31,-26 92,-67 31,-92 31,-62 v -93 l -31,-57 31,-31 h 62 v -31 -66 l -62,-31 v -61 -89 l 62,-31 61,31 62,31 31,27 31,-27 v -62 h 62 92 31 v 89 l -92,123 -31,66 31,93 v 88 l 61,124 v 92 h 62 l 31,-31 v -92 -124 l 31,-57 62,-124 v -185 l 62,-185 30,-62 62,31 31,93 v 61 l 62,120 31,-31 31,-58 -31,-61 -62,-155 31,-66 31,-57 h 31 l 61,-62 93,-31 h 62 l 154,31 v 31 l -31,62 -61,61 -31,62 h 61 62 v 62 62 l 93,-31 v -93 -123 -62 l 62,-93 h 61 l 93,93 31,31 31,-62 h 31 l 31,31 61,-31 h 62 62 v 62 l 31,57 h 31 61 l 62,-57 h 93 l 62,57 31,97 v 62 l -62,62 -62,61 -31,119 -93,31 -123,31 -155,35 h -61 l 31,62 h 92 l 155,31 92,31 h 124 l 62,26 31,31 61,-57 62,-62 h 62 l 31,119 31,62 v 62 h -62 -93 -62 l -30,31 v 154 l -31,31 -93,62 h -62 v 92 l -31,62 31,31 v 57 l -31,97 -31,31 -30,-92 v -124 l 30,-154 v -119 l -30,-36 -93,-31 -216,-30 -62,-31 -31,-31 -62,-93 h -123 l -31,-31 -62,31 -31,93 -31,62 -61,61 h -93 -62 l -62,62 -61,62 -31,185 -31,155 v 123 l 123,124 31,119 -31,128 v 61 l -31,27 -30,62 30,251 -61,26 -31,31 -62,-57 -31,-66 h -62 l -61,31 h -124 l -31,-62 h -62 l -61,62 v 61 l -62,62 -62,31 -31,31 -62,31 -61,-31 -31,-31 -62,31 -62,-31 -61,-31 -62,-62 -62,-61 -40,-22 58,-172 h 44 v -62 l -31,-57 -71,-102 58,-48 13,-31 h 9 l 22,-31 -13,-5 -71,-31 -31,-35 -22,-48 22,-62 13,-40 -22,-22 -39,-31 -71,-9 -35,-22 -18,-70 -62,-27 -44,-26 -62,18 -70,-18 -62,-62 z"
   id="path449"
   inkscape:connector-curvature="0"
   style="fill:none;stroke:#000000;stroke-width:35;stroke-linecap:round;stroke-linejoin:round" />
        <path
   d="m 12580,8374 h 26 v -53 h 58 v 26 l 57,-26 57,-53 v -27 l -26,27 -146,-27 -26,-52 h -31 l -57,52 -27,53 27,27 z"
   id="path451"
   inkscape:connector-curvature="0"
   style="fill:#00ff00;stroke:none" />
        <path
   d="m 12580,8374 h 26 v -53 h 58 v 26 l 57,-26 57,-53 v -27 l -26,27 -146,-27 -26,-52 h -31 l -57,52 -27,53 27,27 z"
   id="path453"
   inkscape:connector-curvature="0"
   style="fill:none;stroke:#000000;stroke-width:35;stroke-linecap:round;stroke-linejoin:round" />
        <path
   d="m 12558,8409 31,-31 35,-31 h 62 l 61,-31 31,-30 v -62 l -31,31 -123,-31 -35,-31 -31,-31 -31,31 -31,62 -31,61 v 31 z"
   id="path455"
   inkscape:connector-curvature="0"
   style="fill:#00ff00;stroke:none" />
        <path
   d="m 12558,8409 31,-31 35,-31 h 62 l 61,-31 31,-30 v -62 l -31,31 -123,-31 -35,-31 -31,-31 -31,31 -31,62 -31,61 v 31 z"
   id="path457"
   inkscape:connector-curvature="0"
   style="fill:none;stroke:#000000;stroke-width:35;stroke-linecap:round;stroke-linejoin:round" />
        <path
   d="m 12103,8533 22,-27 -22,-48 -22,-22 -22,-27 v 75 z"
   id="path459"
   inkscape:connector-curvature="0"
   style="fill:#00ff00;stroke:none" />
        <path
   d="m 12103,8533 22,-27 -22,-48 -22,-22 -22,-27 v 75 z"
   id="path461"
   inkscape:connector-curvature="0"
   style="fill:none;stroke:#000000;stroke-width:35;stroke-linecap:round;stroke-linejoin:round" />
        <path
   d="m 12125,8563 v -30 l -31,-62 -35,-62 h -31 v 62 z"
   id="path463"
   inkscape:connector-curvature="0"
   style="fill:#00ff00;stroke:none" />
        <path
   d="m 12125,8563 v -30 l -31,-62 -35,-62 h -31 v 62 z"
   id="path465"
   inkscape:connector-curvature="0"
   style="fill:none;stroke:#000000;stroke-width:35;stroke-linecap:round;stroke-linejoin:round" />
        <path
   d="m 12200,8594 -17,22 17,18 18,22 v -22 z"
   id="path467"
   inkscape:connector-curvature="0"
   style="fill:#00ff00;stroke:none" />
        <path
   d="m 12200,8594 -17,22 17,18 18,22 v -22 z"
   id="path469"
   inkscape:connector-curvature="0"
   style="fill:none;stroke:#000000;stroke-width:35;stroke-linecap:round;stroke-linejoin:round" />
        <path
   d="m 12218,8594 h -35 v 67 l 35,30 v -66 z"
   id="path471"
   inkscape:connector-curvature="0"
   style="fill:#00ff00;stroke:none" />
        <path
   d="m 12218,8594 h -35 v 67 l 35,30 v -66 z"
   id="path473"
   inkscape:connector-curvature="0"
   style="fill:none;stroke:#000000;stroke-width:35;stroke-linecap:round;stroke-linejoin:round" />
        <path
   d="m 11936,8749 h -31 l -84,57 -31,31 -26,-57 -31,26 -27,57 -57,89 h -31 l -84,26 -31,57 v 31 h 58 l 30,27 27,31 h 57 v -31 l 58,-27 57,-31 57,-57 31,-26 v -58 -31 z"
   id="path475"
   inkscape:connector-curvature="0"
   style="fill:#00ff00;stroke:none" />
        <path
   d="m 11936,8749 h -31 l -84,57 -31,31 -26,-57 -31,26 -27,57 -57,89 h -31 l -84,26 -31,57 v 31 h 58 l 30,27 27,31 h 57 v -31 l 58,-27 57,-31 57,-57 31,-26 v -58 -31 z"
   id="path477"
   inkscape:connector-curvature="0"
   style="fill:none;stroke:#000000;stroke-width:35;stroke-linecap:round;stroke-linejoin:round" />
        <path
   d="m 11936,8753 -31,-31 -93,93 h -31 v -62 l -62,62 -30,62 -62,66 -31,31 -93,31 v 61 31 l 31,-31 31,31 62,62 h 31 l 31,-62 61,-31 62,-31 62,-30 v -62 -66 l 31,-31 z"
   id="path479"
   inkscape:connector-curvature="0"
   style="fill:#00ff00;stroke:none" />
        <path
   d="m 11936,8753 -31,-31 -93,93 h -31 v -62 l -62,62 -30,62 -62,66 -31,31 -93,31 v 61 31 l 31,-31 31,31 62,62 h 31 l 31,-62 61,-31 62,-31 62,-30 v -62 -66 l 31,-31 z"
   id="path481"
   inkscape:connector-curvature="0"
   style="fill:none;stroke:#000000;stroke-width:35;stroke-linecap:round;stroke-linejoin:round" />
        <path
   d="m 12108,8784 h -22 -27 v 49 l 27,48 h 48 v 27 h 22 v -49 l 27,-26 z"
   id="path483"
   inkscape:connector-curvature="0"
   style="fill:#00ff00;stroke:none" />
        <path
   d="m 12108,8784 h -22 -27 v 49 l 27,48 h 48 v 27 h 22 v -49 l 27,-26 z"
   id="path485"
   inkscape:connector-curvature="0"
   style="fill:none;stroke:#000000;stroke-width:35;stroke-linecap:round;stroke-linejoin:round" />
        <path
   d="m 12090,8784 h -31 -31 l 31,31 v 62 l 62,31 h 31 v 30 -61 l 31,-31 v -31 z"
   id="path487"
   inkscape:connector-curvature="0"
   style="fill:#00ff00;stroke:none" />
        <path
   d="m 12090,8784 h -31 -31 l 31,31 v 62 l 62,31 h 31 v 30 -61 l 31,-31 v -31 z"
   id="path489"
   inkscape:connector-curvature="0"
   style="fill:none;stroke:#000000;stroke-width:35;stroke-linecap:round;stroke-linejoin:round" />
        <path
   d="m 11980,8938 v 0 58 l 26,26 -26,27 h -53 l -27,31 -26,53 v 30 l 53,-30 26,57 h 53 v -57 l 27,-53 26,-31 v -53 h -26 z"
   id="path491"
   inkscape:connector-curvature="0"
   style="fill:#00ff00;stroke:none" />
        <path
   d="m 11980,8938 v 0 58 l 26,26 -26,27 h -53 l -27,31 -26,53 v 30 l 53,-30 26,57 h 53 v -57 l 27,-53 26,-31 v -53 h -26 z"
   id="path493"
   inkscape:connector-curvature="0"
   style="fill:none;stroke:#000000;stroke-width:35;stroke-linecap:round;stroke-linejoin:round" />
        <path
   d="m 11997,8908 h -30 l 30,61 v 62 h -30 -31 l -31,62 -31,31 v 61 l 62,-30 31,61 h 61 v -61 l 31,-62 31,-31 -31,-62 -31,-31 z"
   id="path495"
   inkscape:connector-curvature="0"
   style="fill:#00ff00;stroke:none" />
        <path
   d="m 11997,8908 h -30 l 30,61 v 62 h -30 -31 l -31,62 -31,31 v 61 l 62,-30 31,61 h 61 v -61 l 31,-62 31,-31 -31,-62 -31,-31 z"
   id="path497"
   inkscape:connector-curvature="0"
   style="fill:none;stroke:#000000;stroke-width:35;stroke-linecap:round;stroke-linejoin:round" />
        <path
   d="m 11856,9238 -26,-22 h -53 v -26 48 l -27,27 v 22 l 27,26 26,-26 h 80 53 v -49 h -27 z"
   id="path499"
   inkscape:connector-curvature="0"
   style="fill:#00ff00;stroke:none" />
        <path
   d="m 11856,9238 -26,-22 h -53 v -26 48 l -27,27 v 22 l 27,26 26,-26 h 80 53 v -49 h -27 z"
   id="path501"
   inkscape:connector-curvature="0"
   style="fill:none;stroke:#000000;stroke-width:35;stroke-linecap:round;stroke-linejoin:round" />
        <path
   d="m 11843,9221 h -35 l -31,-31 -31,31 v 31 l -31,30 62,31 31,-31 97,31 31,-31 31,-30 -62,-31 z"
   id="path503"
   inkscape:connector-curvature="0"
   style="fill:#00ff00;stroke:none" />
        <path
   d="m 11843,9221 h -35 l -31,-31 -31,31 v 31 l -31,30 62,31 31,-31 97,31 31,-31 31,-30 -62,-31 z"
   id="path505"
   inkscape:connector-curvature="0"
   style="fill:none;stroke:#000000;stroke-width:35;stroke-linecap:round;stroke-linejoin:round" />
        <path
   d="m 6822,19856 53,-53 h 49 l 26,-53 v -26 h -26 l -27,-27 h -22 v 27 l -26,26 -27,53 z"
   id="path507"
   inkscape:connector-curvature="0"
   style="fill:#00ff00;stroke:none" />
        <path
   d="m 6822,19856 53,-53 h 49 l 26,-53 v -26 h -26 l -27,-27 h -22 v 27 l -26,26 -27,53 z"
   id="path509"
   inkscape:connector-curvature="0"
   style="fill:none;stroke:#000000;stroke-width:35;stroke-linecap:round;stroke-linejoin:round" />
        <path
   d="m 6946,19667 h -58 v -27 l 31,-57 27,-53 57,-58 h 62 l 84,-26 61,-57 h 58 l 57,26 v 31 h -57 l -31,26 -58,27 -57,31 h -57 l -62,53 z"
   id="path511"
   inkscape:connector-curvature="0"
   style="fill:#618ffd;stroke:none" />
        <path
   d="m 6946,19667 h -58 v -27 l 31,-57 27,-53 57,-58 h 62 l 84,-26 61,-57 h 58 l 57,26 v 31 h -57 l -31,26 -58,27 -57,31 h -57 l -62,53 z"
   id="path513"
   inkscape:connector-curvature="0"
   style="fill:none;stroke:#000000;stroke-width:35;stroke-linecap:round;stroke-linejoin:round" />
        <path
   d="m 8838,15957 -22,-53 -22,-18 115,-137 40,-61 35,-5 44,-128 35,-22 111,-35 84,-18 101,-31 71,31 -84,18 -22,31 -49,44 -44,62 -53,57 -44,31 -27,13 -30,-13 -27,13 -26,22 -102,80 -40,48 z"
   id="path515"
   inkscape:connector-curvature="0"
   style="fill:#618ffd;stroke:none" />
        <path
   d="m 8838,15957 -22,-53 -22,-18 115,-137 40,-61 35,-5 44,-128 35,-22 111,-35 84,-18 101,-31 71,31 -84,18 -22,31 -49,44 -44,62 -53,57 -44,31 -27,13 -30,-13 -27,13 -26,22 -102,80 -40,48 z"
   id="path517"
   inkscape:connector-curvature="0"
   style="fill:none;stroke:#000000;stroke-width:35;stroke-linecap:round;stroke-linejoin:round" />
       </g>
      </g>
     </g>
    </g>
   </g>
  </g>
 </g>
</svg>