<?xml version="1.0" encoding="UTF-8" standalone="no"?>
<svg
   xmlns:ooo="http://xml.openoffice.org/svg/export"
   xmlns:dc="http://purl.org/dc/elements/1.1/"
   xmlns:cc="http://creativecommons.org/ns#"
   xmlns:rdf="http://www.w3.org/1999/02/22-rdf-syntax-ns#"
   xmlns:svg="http://www.w3.org/2000/svg"
   xmlns="http://www.w3.org/2000/svg"
   xmlns:sodipodi="http://sodipodi.sourceforge.net/DTD/sodipodi-0.dtd"
   xmlns:inkscape="http://www.inkscape.org/namespaces/inkscape"
   version="1.2"
   width="127.89mm"
   height="101.47mm"
   viewBox="0 0 12789 10147"
   preserveAspectRatio="xMidYMid"
   xml:space="preserve"
   id="svg527"
   sodipodi:docname="notepc1.svg"
   style="fill-rule:evenodd;stroke-width:28.22200012;stroke-linejoin:round"
   inkscape:version="0.92.5 (2060ec1f9f, 2020-04-08)"><metadata
   id="metadata531"><rdf:RDF><cc:Work
       rdf:about=""><dc:format>image/svg+xml</dc:format><dc:type
         rdf:resource="http://purl.org/dc/dcmitype/StillImage" /></cc:Work></rdf:RDF></metadata><sodipodi:namedview
   pagecolor="#ffffff"
   bordercolor="#666666"
   borderopacity="1"
   objecttolerance="10"
   gridtolerance="10"
   guidetolerance="10"
   inkscape:pageopacity="0"
   inkscape:pageshadow="2"
   inkscape:window-width="664"
   inkscape:window-height="487"
   id="namedview529"
   showgrid="false"
   inkscape:zoom="0.2102413"
   inkscape:cx="241.70079"
   inkscape:cy="191.73543"
   inkscape:window-x="0"
   inkscape:window-y="0"
   inkscape:window-maximized="0"
   inkscape:current-layer="svg527" />
 <defs
   class="ClipPathGroup"
   id="defs8">
  <clipPath
   id="presentation_clip_path"
   clipPathUnits="userSpaceOnUse">
   <rect
   x="0"
   y="0"
   width="21000"
   height="29700"
   id="rect2" />
  </clipPath>
  <clipPath
   id="presentation_clip_path_shrink"
   clipPathUnits="userSpaceOnUse">
   <rect
   x="21"
   y="29"
   width="20958"
   height="29641"
   id="rect5" />
  </clipPath>
 </defs>
 <defs
   class="TextShapeIndex"
   id="defs12">
  <g
   ooo:slide="id1"
   ooo:id-list="id3"
   id="g10" />
 </defs>
 <defs
   class="EmbeddedBulletChars"
   id="defs44">
  <g
   id="bullet-char-template-57356"
   transform="matrix(4.8828125e-4,0,0,-4.8828125e-4,0,0)">
   <path
   d="M 580,1141 1163,571 580,0 -4,571 Z"
   id="path14"
   inkscape:connector-curvature="0" />
  </g>
  <g
   id="bullet-char-template-57354"
   transform="matrix(4.8828125e-4,0,0,-4.8828125e-4,0,0)">
   <path
   d="M 8,1128 H 1137 V 0 H 8 Z"
   id="path17"
   inkscape:connector-curvature="0" />
  </g>
  <g
   id="bullet-char-template-10146"
   transform="matrix(4.8828125e-4,0,0,-4.8828125e-4,0,0)">
   <path
   d="M 174,0 602,739 174,1481 1456,739 Z M 1358,739 309,1346 659,739 Z"
   id="path20"
   inkscape:connector-curvature="0" />
  </g>
  <g
   id="bullet-char-template-10132"
   transform="matrix(4.8828125e-4,0,0,-4.8828125e-4,0,0)">
   <path
   d="M 2015,739 1276,0 H 717 l 543,543 H 174 v 393 h 1086 l -543,545 h 557 z"
   id="path23"
   inkscape:connector-curvature="0" />
  </g>
  <g
   id="bullet-char-template-10007"
   transform="matrix(4.8828125e-4,0,0,-4.8828125e-4,0,0)">
   <path
   d="m 0,-2 c -7,16 -16,29 -25,39 l 381,530 c -94,256 -141,385 -141,387 0,25 13,38 40,38 9,0 21,-2 34,-5 21,4 42,12 65,25 l 27,-13 111,-251 280,301 64,-25 24,25 c 21,-10 41,-24 62,-43 C 886,937 835,863 770,784 769,783 710,716 594,584 L 774,223 c 0,-27 -21,-55 -63,-84 l 16,-20 C 717,90 699,76 672,76 641,76 570,178 457,381 L 164,-76 c -22,-34 -53,-51 -92,-51 -42,0 -63,17 -64,51 -7,9 -10,24 -10,44 0,9 1,19 2,30 z"
   id="path26"
   inkscape:connector-curvature="0" />
  </g>
  <g
   id="bullet-char-template-10004"
   transform="matrix(4.8828125e-4,0,0,-4.8828125e-4,0,0)">
   <path
   d="M 285,-33 C 182,-33 111,30 74,156 52,228 41,333 41,471 c 0,78 14,145 41,201 34,71 87,106 158,106 53,0 88,-31 106,-94 l 23,-176 c 8,-64 28,-97 59,-98 l 735,706 c 11,11 33,17 66,17 42,0 63,-15 63,-46 V 965 c 0,-36 -10,-64 -30,-84 L 442,47 C 390,-6 338,-33 285,-33 Z"
   id="path29"
   inkscape:connector-curvature="0" />
  </g>
  <g
   id="bullet-char-template-9679"
   transform="matrix(4.8828125e-4,0,0,-4.8828125e-4,0,0)">
   <path
   d="M 813,0 C 632,0 489,54 383,161 276,268 223,411 223,592 c 0,181 53,324 160,431 106,107 249,161 430,161 179,0 323,-54 432,-161 108,-107 162,-251 162,-431 0,-180 -54,-324 -162,-431 C 1136,54 992,0 813,0 Z"
   id="path32"
   inkscape:connector-curvature="0" />
  </g>
  <g
   id="bullet-char-template-8226"
   transform="matrix(4.8828125e-4,0,0,-4.8828125e-4,0,0)">
   <path
   d="m 346,457 c -73,0 -137,26 -191,78 -54,51 -81,114 -81,188 0,73 27,136 81,188 54,52 118,78 191,78 73,0 134,-26 185,-79 51,-51 77,-114 77,-187 0,-75 -25,-137 -76,-188 -50,-52 -112,-78 -186,-78 z"
   id="path35"
   inkscape:connector-curvature="0" />
  </g>
  <g
   id="bullet-char-template-8211"
   transform="matrix(4.8828125e-4,0,0,-4.8828125e-4,0,0)">
   <path
   d="M -4,459 H 1135 V 606 H -4 Z"
   id="path38"
   inkscape:connector-curvature="0" />
  </g>
  <g
   id="bullet-char-template-61548"
   transform="matrix(4.8828125e-4,0,0,-4.8828125e-4,0,0)">
   <path
   d="m 173,740 c 0,163 58,303 173,419 116,115 255,173 419,173 163,0 302,-58 418,-173 116,-116 174,-256 174,-419 0,-163 -58,-303 -174,-418 C 1067,206 928,148 765,148 601,148 462,206 346,322 231,437 173,577 173,740 Z"
   id="path41"
   inkscape:connector-curvature="0" />
  </g>
 </defs>
 <g
   id="g49"
   transform="translate(-4105,-9776)">
  <g
   id="id2"
   class="Master_Slide">
   <g
   id="bg-id2"
   class="Background" />
   <g
   id="bo-id2"
   class="BackgroundObjects" />
  </g>
 </g>
 <g
   class="SlideGroup"
   id="g525"
   transform="translate(-4105,-9776)">
  <g
   id="g523">
   <g
   id="container-id1">
    <g
   id="id1"
   class="Slide"
   clip-path="url(#presentation_clip_path)">
     <g
   class="Page"
   id="g519">
      <g
   class="Graphic"
   id="g517">
       <g
   id="id3">
        <rect
   class="BoundingBox"
   x="4105"
   y="9776"
   width="12789"
   height="10147"
   id="rect51"
   style="fill:none;stroke:none" />
        <defs
   id="defs56">
         <clipPath
   id="clip_path_1"
   clipPathUnits="userSpaceOnUse">
          <path
   d="M 4105,9776 H 16893 V 19922 H 4105 Z"
   id="path53"
   inkscape:connector-curvature="0" />
         </clipPath>
        </defs>
        <g
   clip-path="url(#clip_path_1)"
   id="g514">
         <path
   d="m 15890,15396 -1658,2068 -1568,1590 v 869 l 3796,-3575 v -1270 z"
   id="path58"
   inkscape:connector-curvature="0"
   style="fill:#828282;stroke:none" />
         <path
   d="m 15890,15396 -1658,2068 -1568,1590 v 869 l 3796,-3575 v -1270 z"
   id="path60"
   inkscape:connector-curvature="0"
   style="fill:none;stroke:#000000" />
         <path
   d="m 4105,16811 v 549 l 8559,2543 v -549 l -163,-137 -8170,-2475 z"
   id="path62"
   inkscape:connector-curvature="0"
   style="fill:#828282;stroke:none" />
         <path
   d="m 4105,16811 v 549 l 8559,2543 v -549 l -163,-137 -8170,-2475 z"
   id="path64"
   inkscape:connector-curvature="0"
   style="fill:none;stroke:#000000" />
         <path
   d="m 14620,17537 v 191 l 407,-368 h 106 l 511,-481 v -104 l 333,-338 v -190 l -455,442 h -74 l -457,422 v 106 z"
   id="path66"
   inkscape:connector-curvature="0"
   style="fill:#424242;stroke:none" />
         <path
   d="m 14620,17537 v 191 l 407,-368 h 106 l 511,-481 v -104 l 333,-338 v -190 l -455,442 h -74 l -457,422 v 106 z"
   id="path68"
   inkscape:connector-curvature="0"
   style="fill:none;stroke:#000000" />
         <path
   d="m 15027,17360 h -89"
   id="path70"
   inkscape:connector-curvature="0"
   style="fill:none;stroke:#000000" />
         <path
   d="m 15502,16742 h 142"
   id="path72"
   inkscape:connector-curvature="0"
   style="fill:none;stroke:#000000" />
         <path
   d="m 15644,16879 h -157"
   id="path74"
   inkscape:connector-curvature="0"
   style="fill:none;stroke:#000000" />
         <path
   d="m 14564,17484 v 368 l 89,-35 v -369 z"
   id="path76"
   inkscape:connector-curvature="0"
   style="fill:#bfbfbf;stroke:none" />
         <path
   d="m 14564,17484 v 368 l 89,-35 v -369 z"
   id="path78"
   inkscape:connector-curvature="0"
   style="fill:none;stroke:#000000" />
         <path
   d="m 6272,15078 8292,2175"
   id="path80"
   inkscape:connector-curvature="0"
   style="fill:none;stroke:#000000" />
         <path
   d="m 7088,14499 -829,579 v 163 l -2154,1534 8559,2564 1900,-1842 v -244 l 836,-795 191,-564 869,-816 -694,-157 -7660,-158 z"
   id="path82"
   inkscape:connector-curvature="0"
   style="fill:#bfbfbf;stroke:none" />
         <path
   d="m 7088,14499 -829,579 v 163 l -2154,1534 8559,2564 1900,-1842 v -244 l 836,-795 191,-564 869,-816 -694,-157 -7660,-158 z"
   id="path84"
   inkscape:connector-curvature="0"
   style="fill:none;stroke:#000000" />
         <path
   d="m 6767,14867 -284,196 462,137 280,-211 z"
   id="path86"
   inkscape:connector-curvature="0"
   style="fill:#828282;stroke:none" />
         <path
   d="m 6767,14867 -284,196 462,137 280,-211 z"
   id="path88"
   inkscape:connector-curvature="0"
   style="fill:none;stroke:#000000" />
         <path
   d="m 6346,15505 -427,333 -86,231 -458,531 6509,1923 353,-368 549,-902 -211,-89 z"
   id="path90"
   inkscape:connector-curvature="0"
   style="fill:#bfbfbf;stroke:none" />
         <path
   d="m 6346,15505 -427,333 -86,231 -458,531 6509,1923 353,-368 549,-902 -211,-89 z"
   id="path92"
   inkscape:connector-curvature="0"
   style="fill:none;stroke:#000000" />
         <path
   d="m 6203,15838 6141,1626"
   id="path94"
   inkscape:connector-curvature="0"
   style="fill:none;stroke:#000000" />
         <path
   d="m 5993,16069 6066,1679"
   id="path96"
   inkscape:connector-curvature="0"
   style="fill:none;stroke:#000000" />
         <path
   d="m 5777,16369 6234,1699"
   id="path98"
   inkscape:connector-curvature="0"
   style="fill:none;stroke:#000000" />
         <path
   d="m 6625,15962 -244,196"
   id="path100"
   inkscape:connector-curvature="0"
   style="fill:none;stroke:#000000" />
         <path
   d="m 7189,15784 -244,252"
   id="path102"
   inkscape:connector-curvature="0"
   style="fill:none;stroke:#000000" />
         <path
   d="m 6734,15683 -264,244"
   id="path104"
   inkscape:connector-curvature="0"
   style="fill:none;stroke:#000000" />
         <path
   d="m 7616,15927 -249,195"
   id="path106"
   inkscape:connector-curvature="0"
   style="fill:none;stroke:#000000" />
         <path
   d="m 8094,16049 -267,213"
   id="path108"
   inkscape:connector-curvature="0"
   style="fill:none;stroke:#000000" />
         <path
   d="m 8940,16900 -303,231"
   id="path110"
   inkscape:connector-curvature="0"
   style="fill:none;stroke:#000000" />
         <path
   d="m 9417,17022 -284,264"
   id="path112"
   inkscape:connector-curvature="0"
   style="fill:none;stroke:#000000" />
         <path
   d="m 9892,17164 -299,231"
   id="path114"
   inkscape:connector-curvature="0"
   style="fill:none;stroke:#000000" />
         <path
   d="m 10489,17306 -317,264"
   id="path116"
   inkscape:connector-curvature="0"
   style="fill:none;stroke:#000000" />
         <path
   d="m 11005,17464 -284,231"
   id="path118"
   inkscape:connector-curvature="0"
   style="fill:none;stroke:#000000" />
         <path
   d="m 11536,17626 -285,226"
   id="path120"
   inkscape:connector-curvature="0"
   style="fill:none;stroke:#000000" />
         <path
   d="m 11658,17253 -320,284"
   id="path122"
   inkscape:connector-curvature="0"
   style="fill:none;stroke:#000000" />
         <path
   d="m 11163,17131 -321,264"
   id="path124"
   inkscape:connector-curvature="0"
   style="fill:none;stroke:#000000" />
         <path
   d="m 10599,17006 -285,247"
   id="path126"
   inkscape:connector-curvature="0"
   style="fill:none;stroke:#000000" />
         <path
   d="m 10035,16864 -305,231"
   id="path128"
   inkscape:connector-curvature="0"
   style="fill:none;stroke:#000000" />
         <path
   d="m 9554,16722 -315,246"
   id="path130"
   inkscape:connector-curvature="0"
   style="fill:none;stroke:#000000" />
         <path
   d="m 9077,16600 -280,231"
   id="path132"
   inkscape:connector-curvature="0"
   style="fill:none;stroke:#000000" />
         <path
   d="m 8637,16173 -279,231"
   id="path134"
   inkscape:connector-curvature="0"
   style="fill:none;stroke:#000000" />
         <path
   d="m 9077,16315 -244,211"
   id="path136"
   inkscape:connector-curvature="0"
   style="fill:none;stroke:#000000" />
         <path
   d="m 9608,16458 -247,195"
   id="path138"
   inkscape:connector-curvature="0"
   style="fill:none;stroke:#000000" />
         <path
   d="m 10124,16580 -285,195"
   id="path140"
   inkscape:connector-curvature="0"
   style="fill:none;stroke:#000000" />
         <path
   d="m 10599,16689 -252,229"
   id="path142"
   inkscape:connector-curvature="0"
   style="fill:none;stroke:#000000" />
         <path
   d="m 11109,16864 -267,211"
   id="path144"
   inkscape:connector-curvature="0"
   style="fill:none;stroke:#000000" />
         <path
   d="m 11658,16989 -252,211"
   id="path146"
   inkscape:connector-curvature="0"
   style="fill:none;stroke:#000000" />
         <path
   d="m 8833,17217 -333,280"
   id="path148"
   inkscape:connector-curvature="0"
   style="fill:none;stroke:#000000" />
         <path
   d="m 9344,17360 -354,279"
   id="path150"
   inkscape:connector-curvature="0"
   style="fill:none;stroke:#000000" />
         <path
   d="m 9783,17484 -353,280"
   id="path152"
   inkscape:connector-curvature="0"
   style="fill:none;stroke:#000000" />
         <path
   d="m 10367,17639 -332,287"
   id="path154"
   inkscape:connector-curvature="0"
   style="fill:none;stroke:#000000" />
         <path
   d="m 10878,17764 -353,304"
   id="path156"
   inkscape:connector-curvature="0"
   style="fill:none;stroke:#000000" />
         <path
   d="m 11536,17939 -373,305"
   id="path158"
   inkscape:connector-curvature="0"
   style="fill:none;stroke:#000000" />
         <path
   d="m 7809,16918 -353,282"
   id="path160"
   inkscape:connector-curvature="0"
   style="fill:none;stroke:#000000" />
         <path
   d="m 8284,17057 -333,303"
   id="path162"
   inkscape:connector-curvature="0"
   style="fill:none;stroke:#000000" />
         <path
   d="m 12169,17131 -232,211"
   id="path164"
   inkscape:connector-curvature="0"
   style="fill:none;stroke:#000000" />
         <path
   d="m 6272,16511 -297,264"
   id="path166"
   inkscape:connector-curvature="0"
   style="fill:none;stroke:#000000" />
         <path
   d="m 6767,16653 -297,265"
   id="path168"
   inkscape:connector-curvature="0"
   style="fill:none;stroke:#000000" />
         <path
   d="m 7314,16811 -353,264"
   id="path170"
   inkscape:connector-curvature="0"
   style="fill:none;stroke:#000000" />
         <path
   d="m 7088,16069 -265,246"
   id="path172"
   inkscape:connector-curvature="0"
   style="fill:none;stroke:#000000" />
         <path
   d="m 7456,16491 -335,251"
   id="path174"
   inkscape:connector-curvature="0"
   style="fill:none;stroke:#000000" />
         <path
   d="m 8548,16458 -279,231"
   id="path176"
   inkscape:connector-curvature="0"
   style="fill:none;stroke:#000000" />
         <path
   d="m 8038,16315 -285,232"
   id="path178"
   inkscape:connector-curvature="0"
   style="fill:none;stroke:#000000" />
         <path
   d="m 7578,16211 -264,226"
   id="path180"
   inkscape:connector-curvature="0"
   style="fill:none;stroke:#000000" />
         <path
   d="m 6483,16211 -313,247"
   id="path182"
   inkscape:connector-curvature="0"
   style="fill:none;stroke:#000000" />
         <path
   d="m 6910,16315 -298,285"
   id="path184"
   inkscape:connector-curvature="0"
   style="fill:none;stroke:#000000" />
         <path
   d="m 7931,16600 -315,279"
   id="path186"
   inkscape:connector-curvature="0"
   style="fill:none;stroke:#000000" />
         <path
   d="m 8358,16722 -320,267"
   id="path188"
   inkscape:connector-curvature="0"
   style="fill:none;stroke:#000000" />
         <path
   d="m 13335,18117 -460,-138"
   id="path190"
   inkscape:connector-curvature="0"
   style="fill:none;stroke:#000000" />
         <path
   d="m 13335,18117 89,175"
   id="path192"
   inkscape:connector-curvature="0"
   style="fill:none;stroke:#000000" />
         <path
   d="m 12717,17253 -177,244 -196,-33 -300,300 211,53 -244,251 211,87 -353,300 632,210 196,-231 495,145 760,-795 -53,-214 z"
   id="path194"
   inkscape:connector-curvature="0"
   style="fill:#828282;stroke:none" />
         <path
   d="m 12717,17253 -177,244 -196,-33 -300,300 211,53 -244,251 211,87 -353,300 632,210 196,-231 495,145 760,-795 -53,-214 z"
   id="path196"
   inkscape:connector-curvature="0"
   style="fill:none;stroke:#000000" />
         <path
   d="m 12540,17497 1095,340"
   id="path198"
   inkscape:connector-curvature="0"
   style="fill:none;stroke:#000000" />
         <path
   d="m 13878,17586 -774,795"
   id="path200"
   inkscape:connector-curvature="0"
   style="fill:none;stroke:#000000" />
         <path
   d="m 13071,18381 -869,-264"
   id="path202"
   inkscape:connector-curvature="0"
   style="fill:none;stroke:#000000" />
         <path
   d="m 13104,18381 88,198"
   id="path204"
   inkscape:connector-curvature="0"
   style="fill:none;stroke:#000000" />
         <path
   d="m 13635,17837 68,175"
   id="path206"
   inkscape:connector-curvature="0"
   style="fill:none;stroke:#000000" />
         <path
   d="m 13403,17464 -1092,1079"
   id="path208"
   inkscape:connector-curvature="0"
   style="fill:none;stroke:#000000" />
         <path
   d="m 12628,18244 89,211"
   id="path210"
   inkscape:connector-curvature="0"
   style="fill:none;stroke:#000000" />
         <path
   d="m 6414,15274 -175,142 v 125 l 7850,2098 178,-155 -68,-198 z"
   id="path212"
   inkscape:connector-curvature="0"
   style="fill:#828282;stroke:none" />
         <path
   d="m 6414,15274 -175,142 v 125 l 7850,2098 178,-155 -68,-198 z"
   id="path214"
   inkscape:connector-curvature="0"
   style="fill:none;stroke:#000000" />
         <path
   d="m 10068,16211 -160,158"
   id="path216"
   inkscape:connector-curvature="0"
   style="fill:none;stroke:#000000" />
         <path
   d="m 9554,16084 -193,163"
   id="path218"
   inkscape:connector-curvature="0"
   style="fill:none;stroke:#000000" />
         <path
   d="m 9077,15962 -137,160"
   id="path220"
   inkscape:connector-curvature="0"
   style="fill:none;stroke:#000000" />
         <path
   d="m 8569,15838 -178,142"
   id="path222"
   inkscape:connector-curvature="0"
   style="fill:none;stroke:#000000" />
         <path
   d="m 8073,15716 -178,122"
   id="path224"
   inkscape:connector-curvature="0"
   style="fill:none;stroke:#000000" />
         <path
   d="m 7667,15594 -158,157"
   id="path226"
   inkscape:connector-curvature="0"
   style="fill:none;stroke:#000000" />
         <path
   d="m 7189,15485 -142,124"
   id="path228"
   inkscape:connector-curvature="0"
   style="fill:none;stroke:#000000" />
         <path
   d="m 6681,15363 -124,122"
   id="path230"
   inkscape:connector-curvature="0"
   style="fill:none;stroke:#000000" />
         <path
   d="m 6557,15505 v 122"
   id="path232"
   inkscape:connector-curvature="0"
   style="fill:none;stroke:#000000" />
         <path
   d="m 7047,15609 v 160"
   id="path234"
   inkscape:connector-curvature="0"
   style="fill:none;stroke:#000000" />
         <path
   d="m 7509,15751 v 143"
   id="path236"
   inkscape:connector-curvature="0"
   style="fill:none;stroke:#000000" />
         <path
   d="m 7895,15838 v 142"
   id="path238"
   inkscape:connector-curvature="0"
   style="fill:none;stroke:#000000" />
         <path
   d="m 8391,15980 v 125"
   id="path240"
   inkscape:connector-curvature="0"
   style="fill:none;stroke:#000000" />
         <path
   d="m 8940,16122 v 140"
   id="path242"
   inkscape:connector-curvature="0"
   style="fill:none;stroke:#000000" />
         <path
   d="m 9361,16247 v 157"
   id="path244"
   inkscape:connector-curvature="0"
   style="fill:none;stroke:#000000" />
         <path
   d="m 14041,17484 137,-198"
   id="path246"
   inkscape:connector-curvature="0"
   style="fill:none;stroke:#000000" />
         <path
   d="m 14041,17497 48,142"
   id="path248"
   inkscape:connector-curvature="0"
   style="fill:none;stroke:#000000" />
         <path
   d="m 13756,17200 -142,175"
   id="path250"
   inkscape:connector-curvature="0"
   style="fill:none;stroke:#000000" />
         <path
   d="m 12677,16900 -176,195"
   id="path252"
   inkscape:connector-curvature="0"
   style="fill:none;stroke:#000000" />
         <path
   d="m 13225,17057 -175,160"
   id="path254"
   inkscape:connector-curvature="0"
   style="fill:none;stroke:#000000" />
         <path
   d="m 11638,16633 -191,178"
   id="path256"
   inkscape:connector-curvature="0"
   style="fill:none;stroke:#000000" />
         <path
   d="m 12169,16775 -158,158"
   id="path258"
   inkscape:connector-curvature="0"
   style="fill:none;stroke:#000000" />
         <path
   d="m 11109,16511 -142,178"
   id="path260"
   inkscape:connector-curvature="0"
   style="fill:none;stroke:#000000" />
         <path
   d="m 10545,16348 -142,178"
   id="path262"
   inkscape:connector-curvature="0"
   style="fill:none;stroke:#000000" />
         <path
   d="m 9892,16404 v 122"
   id="path264"
   inkscape:connector-curvature="0"
   style="fill:none;stroke:#000000" />
         <path
   d="m 10403,16526 v 127"
   id="path266"
   inkscape:connector-curvature="0"
   style="fill:none;stroke:#000000" />
         <path
   d="m 10967,16689 v 122"
   id="path268"
   inkscape:connector-curvature="0"
   style="fill:none;stroke:#000000" />
         <path
   d="m 11447,16811 v 122"
   id="path270"
   inkscape:connector-curvature="0"
   style="fill:none;stroke:#000000" />
         <path
   d="m 12011,16968 v 127"
   id="path272"
   inkscape:connector-curvature="0"
   style="fill:none;stroke:#000000" />
         <path
   d="m 12486,17095 v 122"
   id="path274"
   inkscape:connector-curvature="0"
   style="fill:none;stroke:#000000" />
         <path
   d="m 13050,17217 v 158"
   id="path276"
   inkscape:connector-curvature="0"
   style="fill:none;stroke:#000000" />
         <path
   d="m 13614,17375 v 122"
   id="path278"
   inkscape:connector-curvature="0"
   style="fill:none;stroke:#000000" />
         <path
   d="m 6259,15416 7782,2068"
   id="path280"
   inkscape:connector-curvature="0"
   style="fill:none;stroke:#000000" />
         <path
   d="m 5833,15716 -674,495 v 89 l -244,191 529,198 333,-320 -138,-54 354,-246 -107,-20 317,-211 z"
   id="path282"
   inkscape:connector-curvature="0"
   style="fill:#828282;stroke:none" />
         <path
   d="m 5833,15716 -674,495 v 89 l -244,191 529,198 333,-320 -138,-54 354,-246 -107,-20 317,-211 z"
   id="path284"
   inkscape:connector-curvature="0"
   style="fill:none;stroke:#000000" />
         <path
   d="m 5886,16049 -333,-122"
   id="path286"
   inkscape:connector-curvature="0"
   style="fill:none;stroke:#000000" />
         <path
   d="m 5159,16211 480,104"
   id="path288"
   inkscape:connector-curvature="0"
   style="fill:none;stroke:#000000" />
         <path
   d="m 5159,16300 110,-89"
   id="path290"
   inkscape:connector-curvature="0"
   style="fill:none;stroke:#000000" />
         <path
   d="m 4880,16458 -264,195 v 158 l 2078,599 v -157 l 216,-178 z"
   id="path292"
   inkscape:connector-curvature="0"
   style="fill:#828282;stroke:none" />
         <path
   d="m 4880,16458 -264,195 v 158 l 2078,599 v -157 l 216,-178 z"
   id="path294"
   inkscape:connector-curvature="0"
   style="fill:none;stroke:#000000" />
         <path
   d="m 5037,16775 v 143"
   id="path296"
   inkscape:connector-curvature="0"
   style="fill:none;stroke:#000000" />
         <path
   d="m 5411,16900 v 122"
   id="path298"
   inkscape:connector-curvature="0"
   style="fill:none;stroke:#000000" />
         <path
   d="m 5975,17075 v 125"
   id="path300"
   inkscape:connector-curvature="0"
   style="fill:none;stroke:#000000" />
         <path
   d="m 5037,16775 232,-195"
   id="path302"
   inkscape:connector-curvature="0"
   style="fill:none;stroke:#000000" />
         <path
   d="m 5424,16900 231,-211"
   id="path304"
   inkscape:connector-curvature="0"
   style="fill:none;stroke:#000000" />
         <path
   d="m 5975,17057 244,-193"
   id="path306"
   inkscape:connector-curvature="0"
   style="fill:none;stroke:#000000" />
         <path
   d="m 4631,16653 2063,600"
   id="path308"
   inkscape:connector-curvature="0"
   style="fill:none;stroke:#000000" />
         <path
   d="m 9892,17906 -162,195 v 158 l 2934,884 279,-267 -88,-175 z"
   id="path310"
   inkscape:connector-curvature="0"
   style="fill:#828282;stroke:none" />
         <path
   d="m 9892,17906 -162,195 v 158 l 2934,884 279,-267 -88,-175 z"
   id="path312"
   inkscape:connector-curvature="0"
   style="fill:none;stroke:#000000" />
         <path
   d="m 12202,18808 231,-211"
   id="path314"
   inkscape:connector-curvature="0"
   style="fill:none;stroke:#000000" />
         <path
   d="m 11638,18632 231,-198"
   id="path316"
   inkscape:connector-curvature="0"
   style="fill:none;stroke:#000000" />
         <path
   d="m 11094,18455 191,-196"
   id="path318"
   inkscape:connector-curvature="0"
   style="fill:none;stroke:#000000" />
         <path
   d="m 10489,18312 198,-195"
   id="path320"
   inkscape:connector-curvature="0"
   style="fill:none;stroke:#000000" />
         <path
   d="m 10489,18333 v 175"
   id="path322"
   inkscape:connector-curvature="0"
   style="fill:none;stroke:#000000" />
         <path
   d="m 11074,18490 v 175"
   id="path324"
   inkscape:connector-curvature="0"
   style="fill:none;stroke:#000000" />
         <path
   d="m 11638,18665 v 158"
   id="path326"
   inkscape:connector-curvature="0"
   style="fill:none;stroke:#000000" />
         <path
   d="m 12202,18808 v 193"
   id="path328"
   inkscape:connector-curvature="0"
   style="fill:none;stroke:#000000" />
         <path
   d="m 9730,18101 2860,811"
   id="path330"
   inkscape:connector-curvature="0"
   style="fill:none;stroke:#000000" />
         <path
   d="m 12608,18912 211,-211"
   id="path332"
   inkscape:connector-curvature="0"
   style="fill:none;stroke:#000000" />
         <path
   d="m 12590,18912 74,231"
   id="path334"
   inkscape:connector-curvature="0"
   style="fill:none;stroke:#000000" />
         <path
   d="m 6892,17057 -246,196 v 142 l 3137,917 v -195 l 178,-191 z"
   id="path336"
   inkscape:connector-curvature="0"
   style="fill:#bfbfbf;stroke:none" />
         <path
   d="m 6892,17057 -246,196 v 142 l 3137,917 v -195 l 178,-191 z"
   id="path338"
   inkscape:connector-curvature="0"
   style="fill:none;stroke:#000000" />
         <path
   d="M 9750,18117 6646,17253"
   id="path340"
   inkscape:connector-curvature="0"
   style="fill:none;stroke:#000000" />
         <path
   d="m 14564,17448 v 707"
   id="path342"
   inkscape:connector-curvature="0"
   style="fill:none;stroke:#000000" />
         <path
   d="m 13914,15873 -300,338 142,193 443,-299 33,-511 z"
   id="path344"
   inkscape:connector-curvature="0"
   style="fill:#424242;stroke:none" />
         <path
   d="m 13914,15873 -300,338 142,193 443,-299 33,-511 z"
   id="path346"
   inkscape:connector-curvature="0"
   style="fill:none;stroke:#000000" />
         <path
   d="m 6978,14283 110,284 1128,285 284,-569 5767,1486 53,-460 -6140,-1504 -285,674 z"
   id="path348"
   inkscape:connector-curvature="0"
   style="fill:#828282;stroke:none" />
         <path
   d="m 6978,14283 110,284 1128,285 284,-569 5767,1486 53,-460 -6140,-1504 -285,674 z"
   id="path350"
   inkscape:connector-curvature="0"
   style="fill:none;stroke:#000000" />
         <path
   d="m 8269,13968 211,267"
   id="path352"
   inkscape:connector-curvature="0"
   style="fill:none;stroke:#000000" />
         <path
   d="m 8480,14235 -353,244 828,299 4870,1184 305,-266 z"
   id="path354"
   inkscape:connector-curvature="0"
   style="fill:#bfbfbf;stroke:none" />
         <path
   d="m 8480,14235 -353,244 828,299 4870,1184 305,-266 z"
   id="path356"
   inkscape:connector-curvature="0"
   style="fill:none;stroke:#000000" />
         <path
   d="m 8127,14479 -54,495 5683,1430 122,-510 z"
   id="path358"
   inkscape:connector-curvature="0"
   style="fill:#828282;stroke:none" />
         <path
   d="m 8127,14479 -54,495 5683,1430 122,-510 z"
   id="path360"
   inkscape:connector-curvature="0"
   style="fill:none;stroke:#000000" />
         <path
   d="m 10842,15185 v 35 h 36 l 38,54 h 267 l 13,-33 v -21 l 20,-20 v -48 l -20,-41 v -33 l -13,-15 -56,-20 h -18 l -35,-18 h -107 v 18 h -36 l -15,20 h -38 v 15 l -36,54 z"
   id="path362"
   inkscape:connector-curvature="0"
   style="fill:#4f4f4f;stroke:none" />
         <path
   d="m 10842,15185 v 35 h 36 l 38,54 h 267 l 13,-33 v -21 l 20,-20 v -48 l -20,-41 v -33 l -13,-15 -56,-20 h -18 l -35,-18 h -107 v 18 h -36 l -15,20 h -38 v 15 l -36,54 z"
   id="path364"
   inkscape:connector-curvature="0"
   style="fill:none;stroke:#000000" />
         <path
   d="m 8853,14479 -162,142 v 142 l 53,15 v -142 h 20 l 158,-157 z"
   id="path366"
   inkscape:connector-curvature="0"
   style="fill:none;stroke:#000000" />
         <path
   d="m 9044,14725 175,-158"
   id="path368"
   inkscape:connector-curvature="0"
   style="fill:none;stroke:#000000" />
         <path
   d="m 9219,14567 56,21"
   id="path370"
   inkscape:connector-curvature="0"
   style="fill:none;stroke:#000000" />
         <path
   d="m 9308,14588 -142,137"
   id="path372"
   inkscape:connector-curvature="0"
   style="fill:none;stroke:#000000" />
         <path
   d="m 9961,14936 163,-158"
   id="path374"
   inkscape:connector-curvature="0"
   style="fill:none;stroke:#000000" />
         <path
   d="m 10124,14778 86,21"
   id="path376"
   inkscape:connector-curvature="0"
   style="fill:none;stroke:#000000" />
         <path
   d="m 10210,14799 -142,137"
   id="path378"
   inkscape:connector-curvature="0"
   style="fill:none;stroke:#000000" />
         <path
   d="m 10210,15010 137,-158"
   id="path380"
   inkscape:connector-curvature="0"
   style="fill:none;stroke:#000000" />
         <path
   d="m 10347,14852 89,15"
   id="path382"
   inkscape:connector-curvature="0"
   style="fill:none;stroke:#000000" />
         <path
   d="m 10436,14867 -158,143"
   id="path384"
   inkscape:connector-curvature="0"
   style="fill:none;stroke:#000000" />
         <path
   d="m 9275,14778 191,-142"
   id="path386"
   inkscape:connector-curvature="0"
   style="fill:none;stroke:#000000" />
         <path
   d="m 9466,14636 53,20"
   id="path388"
   inkscape:connector-curvature="0"
   style="fill:none;stroke:#000000" />
         <path
   d="m 9519,14656 -122,122"
   id="path390"
   inkscape:connector-curvature="0"
   style="fill:none;stroke:#000000" />
         <path
   d="m 9466,14832 175,-158"
   id="path392"
   inkscape:connector-curvature="0"
   style="fill:none;stroke:#000000" />
         <path
   d="m 9641,14674 89,36"
   id="path394"
   inkscape:connector-curvature="0"
   style="fill:none;stroke:#000000" />
         <path
   d="m 9730,14710 -137,122"
   id="path396"
   inkscape:connector-curvature="0"
   style="fill:none;stroke:#000000" />
         <path
   d="m 9730,14867 142,-142"
   id="path398"
   inkscape:connector-curvature="0"
   style="fill:none;stroke:#000000" />
         <path
   d="m 9872,14725 89,38"
   id="path400"
   inkscape:connector-curvature="0"
   style="fill:none;stroke:#000000" />
         <path
   d="m 9961,14763 -158,137"
   id="path402"
   inkscape:connector-curvature="0"
   style="fill:none;stroke:#000000" />
         <path
   d="m 8569,14425 -158,142 v 196 h 69 v -175 l 157,-142 z"
   id="path404"
   inkscape:connector-curvature="0"
   style="fill:none;stroke:#000000" />
         <path
   d="m 14041,16247 h 15 v 15 h 87 l 56,38 h 33 l 35,15 h 196 l 53,33 h 48 l 41,21 h 48 l 74,35 h 122 l 35,33 h 107 l 36,21 h 68 l 21,33 h 33 l 177,-122 -335,-264 h -33 v -21 h -20 l -69,-48 h -20 l -33,-56 h -20 l -33,-18 -36,-35 h -53 l -54,-33 h -15 l -20,-21 h -33 l -21,-35 h -332 l -21,35 h -35 l -33,54 h -54 v 35 l -15,54 v 20 h -41 v 33 l -12,15 v 89 l 12,38 h 41 z"
   id="path406"
   inkscape:connector-curvature="0"
   style="fill:#828282;stroke:none" />
         <path
   d="m 14041,16247 h 15 v 15 h 87 l 56,38 h 33 l 35,15 h 196 l 53,33 h 48 l 41,21 h 48 l 74,35 h 122 l 35,33 h 107 l 36,21 h 68 l 21,33 h 33 l 177,-122 -335,-264 h -33 v -21 h -20 l -69,-48 h -20 l -33,-56 h -20 l -33,-18 -36,-35 h -53 l -54,-33 h -15 l -20,-21 h -33 l -21,-35 h -332 l -21,35 h -35 l -33,54 h -54 v 35 l -15,54 v 20 h -41 v 33 l -12,15 v 89 l 12,38 h 41 z"
   id="path408"
   inkscape:connector-curvature="0"
   style="fill:none;stroke:#000000" />
         <path
   d="m 16757,11455 -87,89 -1623,4718 v 53 h 33 v 54 h 15 v 35 l 21,33 v 21 h 17 v 33 h 16 l 20,-33 h 69 l 33,-21 h 55 l 34,-33 1534,-4806 z"
   id="path410"
   inkscape:connector-curvature="0"
   style="fill:#828282;stroke:none" />
         <path
   d="m 16757,11455 -87,89 -1623,4718 v 53 h 33 v 54 h 15 v 35 l 21,33 v 21 h 17 v 33 h 16 l 20,-33 h 69 l 33,-21 h 55 l 34,-33 1534,-4806 z"
   id="path412"
   inkscape:connector-curvature="0"
   style="fill:none;stroke:#000000" />
         <path
   d="m 8500,9776 -1026,2706 56,338 -552,1463 973,264 282,-597 6034,1466 -267,620 1080,226 1677,-4786 -917,-267 -6037,-1217 z"
   id="path414"
   inkscape:connector-curvature="0"
   style="fill:#bfbfbf;stroke:none" />
         <path
   d="m 8500,9776 -1026,2706 56,338 -552,1463 973,264 282,-597 6034,1466 -267,620 1080,226 1677,-4786 -917,-267 -6037,-1217 z"
   id="path416"
   inkscape:connector-curvature="0"
   style="fill:none;stroke:#000000" />
         <path
   d="m 7189,13683 1044,267"
   id="path418"
   inkscape:connector-curvature="0"
   style="fill:none;stroke:#000000" />
         <path
   d="m 14267,15396 1024,287"
   id="path420"
   inkscape:connector-curvature="0"
   style="fill:none;stroke:#000000" />
         <path
   d="m 9730,10043 -1182,-140 -970,2599 -104,-20 56,299 h 86 l 1039,-2753 1042,157 z"
   id="path422"
   inkscape:connector-curvature="0"
   style="fill:#424242;stroke:none" />
         <path
   d="m 9730,10043 -1182,-140 -970,2599 -104,-20 56,299 h 86 l 1039,-2753 1042,157 z"
   id="path424"
   inkscape:connector-curvature="0"
   style="fill:none;stroke:#000000" />
         <path
   d="m 7578,12482 20,299"
   id="path426"
   inkscape:connector-curvature="0"
   style="fill:none;stroke:#000000" />
         <path
   d="m 15786,11209 h -20 v 56 h -33 v 33 h 69 v 20 h 88 v 15 h 74 v 18 h 87 v 15 h 68 v 21 h 74 v 20 h 68 v 33 h 69 v 15 h 89 v 21 h 53 v 17 h 110 v 36 h 53 v 36 h -20 v 68 h -18 v 54 h -15 v 53 h -36 v 68 h -18 v 54 h -35 v 56 h -21 v 53 h -12 v 122 h -41 v 69 h -15 v 53 h -33 v 36 h -21 v 88 h -20 v 54 h -13 v 53 h -35 v 56 h -21 v 69 h -17 v 73 h -36 v 33 h -15 v 69 h -18 v 122 h -36 v 56 h -20 v 53 h -33 v 69 h -20 v 53 h -15 v 56 h -18 v 69 h -36 v 73 h -20 v 33 h -13 v 69 h -35 v 53 h -21 v 74 h -18 v 51 h -15 v 53 h -20 v 74 h -15 v 33 h -38 v 68 h -16 v 74 h -20 v 71 h -33 v 33 h -20 v 74 h -16 v 48 h -17 v 56 h -36 v 107 h 69 v 15 h 89 v -15 h 38 v -74 h 15 v -48 h 20 v -74 h 15 v -69 h 18 v -35 h 21 v -53 h 35 v -89 h 13 v -54 h 20 v -68 h 36 v -74 h 18 v -53 h 15 v -89 h 20 v -49 h 33 v -40 h 20 v -69 h 36 v -122 h 18 v -73 h 15 v -69 h 36 v -56 h 17 v -86 h 21 v -56 h 35 v -33 h 13 v -69 h 20 v -73 h 21 v -49 h 33 v -73 h 15 v -69 h 41 v -124 h 12 v -74 h 21 v -53 h 35 v -49 h 18 v -73 h 36 v -69 h 15 v -56 h 18 v -69 h 20 v -73 h 35 v -54 h 13 v -68 h 20 v -53 h 21 v -54 h 15 v -68 h 18 v -72 h 15 v -38 h -69 v -15 h -68 v -33 h -89 v -20 h -74 v -21 h -68 v -15 h -74 v -18 h -86 v -15 h -69 v -20 h -89 v -33 h -53 v -21 h -104 v -35 h -54 z"
   id="path428"
   inkscape:connector-curvature="0"
   style="fill:#bfbfbf;stroke:none" />
         <path
   d="m 15644,14235 991,-2706 -902,-264 53,-89 986,279 -970,2828 z"
   id="path430"
   inkscape:connector-curvature="0"
   style="fill:none;stroke:#000000" />
         <path
   d="m 15786,11244 -73,211 142,-48 760,191 55,-122 z"
   id="path432"
   inkscape:connector-curvature="0"
   style="fill:#424242;stroke:none" />
         <path
   d="m 15786,11244 -73,211 142,-48 760,191 55,-122 z"
   id="path434"
   inkscape:connector-curvature="0"
   style="fill:none;stroke:#000000" />
         <path
   d="m 15875,11407 -89,-163"
   id="path436"
   inkscape:connector-curvature="0"
   style="fill:none;stroke:#000000" />
         <path
   d="m 15644,14194 -69,320 69,53 142,-284 z"
   id="path438"
   inkscape:connector-curvature="0"
   style="fill:#424242;stroke:none" />
         <path
   d="m 15644,14194 -69,320 69,53 142,-284 z"
   id="path440"
   inkscape:connector-curvature="0"
   style="fill:none;stroke:#000000" />
         <path
   d="m 9730,9939 -89,264 6092,1252 122,-333 -3227,-762 z"
   id="path442"
   inkscape:connector-curvature="0"
   style="fill:#bfbfbf;stroke:none" />
         <path
   d="m 9730,9939 -89,264 6092,1252 122,-333 -3227,-762 z"
   id="path444"
   inkscape:connector-curvature="0"
   style="fill:none;stroke:#000000" />
         <path
   d="m 11638,10292 53,190 1606,341 106,-198 -211,-143 z"
   id="path446"
   inkscape:connector-curvature="0"
   style="fill:#828282;stroke:none" />
         <path
   d="m 11638,10292 53,190 1606,341 106,-198 -211,-143 z"
   id="path448"
   inkscape:connector-curvature="0"
   style="fill:none;stroke:#000000" />
         <path
   d="m 13104,10625 177,198"
   id="path450"
   inkscape:connector-curvature="0"
   style="fill:none;stroke:#000000" />
         <path
   d="m 11673,10116 -35,191 1466,318 88,-155 z"
   id="path452"
   inkscape:connector-curvature="0"
   style="fill:#bfbfbf;stroke:none" />
         <path
   d="m 11673,10116 -35,191 1466,318 88,-155 z"
   id="path454"
   inkscape:connector-curvature="0"
   style="fill:none;stroke:#000000" />
         <path
   d="m 9593,10482 -1271,3181 6031,1415 1222,-3270 z"
   id="path456"
   inkscape:connector-curvature="0"
   style="fill:#bfbfbf;stroke:none" />
         <path
   d="m 9593,10482 -1271,3181 6031,1415 1222,-3270 z"
   id="path458"
   inkscape:connector-curvature="0"
   style="fill:none;stroke:#000000" />
         <path
   d="m 9839,10556 v 69 h -20 v 73 h -16 v 71 h -20 v 54 h -33 v 53 h -20 v 122 h -33 v 56 h -16 v 48 h -40 v 107 h -33 v 89 h -15 v 53 h -39 v 104 h -35 v 74 h -15 v 69 h -38 v 89 h -36 v 88 h -13 v 54 h -20 v 33 h -36 v 73 h -17 v 69 h -16 v 56 h -20 v 53 h -33 v 49 h -20 v 89 h -16 v 38 h -20 v 71 h -33 v 122 h -20 v 53 h -33 v 53 h -16 v 56 h -40 v 49 h -13 v 73 h -20 v 69 h -15 v 74 h -39 v 15 h -15 v 86 h -20 v 56 h -15 v 69 h -18 v 38 h -20 v 68 h -36 v 69 h -13 v 41 h -20 v 68 h -36 v 69 h -17 v 53 h -16 v 53 h -20 v 69 h -33 v 56 h -20 v 53 h 89 v 21 h 86 v 12 h 89 v 21 h 89 v 35 h 122 v 18 h 73 v 36 h 178 v 35 h 102 v 18 h 89 v 15 h 89 v 20 h 86 v 16 h 89 v 38 h 109 v 15 h 87 v 20 h 89 v 13 h 88 v 41 h 102 v 15 h 89 v 18 h 89 v 15 h 74 v 41 h 190 v 33 h 89 v 15 h 89 v 20 h 107 v 33 h 109 v 21 h 86 v 15 h 89 v 18 h 89 v 35 h 102 v 21 h 89 v 33 h 177 v 20 h 69 v 15 h 127 v 33 h 89 v 20 h 69 v 21 h 86 v 33 h 124 v 15 h 74 v 20 h 87 v 18 h 88 v 36 h 105 v 15 h 86 v 38 h 178 v 15 h 107 v 21 h 88 v 33 h 89 v 20 h 102 v 15 h 89 v 33 h 89 v 21 h 107 v 15 h 88 v 38 h 69 v 15 h 127 v -15 h 15 v -107 h 21 v -68 h 12 v -36 h 41 v -107 h 15 v -68 h 33 v -41 h 21 v -68 h 20 v -33 h 13 v -89 h 35 v -54 h 21 v -68 h 33 v -130 h 35 v -33 h 18 v -69 h 20 v -35 h 15 v -53 h 33 v -54 h 21 v -56 h 15 v -86 h 38 v -56 h 15 v -86 h 21 v -51 h 15 v -38 h 38 v -69 h 15 v -35 h 21 v -87 h 12 v -56 h 21 v -33 h 20 v -73 h 15 v -69 h 33 v -56 h 21 v -53 h 33 v -33 h 20 v -69 h 15 v -74 h 21 v -88 h 33 v -49 h 20 v -73 h 15 v -36 h 18 v -89 h 20 v -53 h 15 v -54 h 33 v -50 h 21 v -74 h 20 v -53 h 33 v -69 h 15 v -69 h 21 v -53 h 20 v -53 h 33 v -56 h 15 v -54 h 21 v -88 h -110 v -33 h -190 v -36 h -89 v -18 h -122 v -35 h -178 v -33 h -107 v -21 h -88 v -15 h -102 v -36 h -89 v -17 h -89 v -21 h -127 v -15 h -69 v -33 h -121 v -20 h -89 v -21 h -110 v -15 h -86 v -18 h -104 v -15 h -89 v -20 h -107 v -33 h -89 v -21 h -106 v -35 h -191 v -33 h -89 v -20 h -89 v -34 h -107 v -20 h -88 v -15 h -122 v -20 h -69 v -13 h -130 v -20 h -86 v -36 h -104 v -18 h -89 v -15 h -107 v -41 h -89 v -12 h -101 v -21 h -89 v -15 h -109 v -38 h -87 v -15 h -193 v -36 h -127 v -18 h -68 v -20 h -122 v -36 h -74 v -15 h -122 v -18 h -89 v -35 h -104 v -20 h -86 v -13 h -89 v -20 h -110 v -36 z"
   id="path460"
   inkscape:connector-curvature="0"
   style="fill:#0000ff;stroke:none" />
         <path
   d="m 9839,10556 v 69 h -20 v 73 h -16 v 71 h -20 v 54 h -33 v 53 h -20 v 122 h -33 v 56 h -16 v 48 h -40 v 107 h -33 v 89 h -15 v 53 h -39 v 104 h -35 v 74 h -15 v 69 h -38 v 89 h -36 v 88 h -13 v 54 h -20 v 33 h -36 v 73 h -17 v 69 h -16 v 56 h -20 v 53 h -33 v 49 h -20 v 89 h -16 v 38 h -20 v 71 h -33 v 122 h -20 v 53 h -33 v 53 h -16 v 56 h -40 v 49 h -13 v 73 h -20 v 69 h -15 v 74 h -39 v 15 h -15 v 86 h -20 v 56 h -15 v 69 h -18 v 38 h -20 v 68 h -36 v 69 h -13 v 41 h -20 v 68 h -36 v 69 h -17 v 53 h -16 v 53 h -20 v 69 h -33 v 56 h -20 v 53 h 89 v 21 h 86 v 12 h 89 v 21 h 89 v 35 h 122 v 18 h 73 v 36 h 178 v 35 h 102 v 18 h 89 v 15 h 89 v 20 h 86 v 16 h 89 v 38 h 109 v 15 h 87 v 20 h 89 v 13 h 88 v 41 h 102 v 15 h 89 v 18 h 89 v 15 h 74 v 41 h 190 v 33 h 89 v 15 h 89 v 20 h 107 v 33 h 109 v 21 h 86 v 15 h 89 v 18 h 89 v 35 h 102 v 21 h 89 v 33 h 177 v 20 h 69 v 15 h 127 v 33 h 89 v 20 h 69 v 21 h 86 v 33 h 124 v 15 h 74 v 20 h 87 v 18 h 88 v 36 h 105 v 15 h 86 v 38 h 178 v 15 h 107 v 21 h 88 v 33 h 89 v 20 h 102 v 15 h 89 v 33 h 89 v 21 h 107 v 15 h 88 v 38 h 69 v 15 h 127 v -15 h 15 v -107 h 21 v -68 h 12 v -36 h 41 v -107 h 15 v -68 h 33 v -41 h 21 v -68 h 20 v -33 h 13 v -89 h 35 v -54 h 21 v -68 h 33 v -130 h 35 v -33 h 18 v -69 h 20 v -35 h 15 v -53 h 33 v -54 h 21 v -56 h 15 v -86 h 38 v -56 h 15 v -86 h 21 v -51 h 15 v -38 h 38 v -69 h 15 v -35 h 21 v -87 h 12 v -56 h 21 v -33 h 20 v -73 h 15 v -69 h 33 v -56 h 21 v -53 h 33 v -33 h 20 v -69 h 15 v -74 h 21 v -88 h 33 v -49 h 20 v -73 h 15 v -36 h 18 v -89 h 20 v -53 h 15 v -54 h 33 v -50 h 21 v -74 h 20 v -53 h 33 v -69 h 15 v -69 h 21 v -53 h 20 v -53 h 33 v -56 h 15 v -54 h 21 v -88 h -110 v -33 h -190 v -36 h -89 v -18 h -122 v -35 h -178 v -33 h -107 v -21 h -88 v -15 h -102 v -36 h -89 v -17 h -89 v -21 h -127 v -15 h -69 v -33 h -121 v -20 h -89 v -21 h -110 v -15 h -86 v -18 h -104 v -15 h -89 v -20 h -107 v -33 h -89 v -21 h -106 v -35 h -191 v -33 h -89 v -20 h -89 v -34 h -107 v -20 h -88 v -15 h -122 v -20 h -69 v -13 h -130 v -20 h -86 v -36 h -104 v -18 h -89 v -15 h -107 v -41 h -89 v -12 h -101 v -21 h -89 v -15 h -109 v -38 h -87 v -15 h -193 v -36 h -127 v -18 h -68 v -20 h -122 v -36 h -74 v -15 h -122 v -18 h -89 v -35 h -104 v -20 h -86 v -13 h -89 v -20 h -110 v -36 z"
   id="path462"
   inkscape:connector-curvature="0"
   style="fill:#0202f4;stroke:none" />
         <path
   d="m 9839,10556 v 69 h -20 v 73 h -16 v 71 h -20 v 54 h -33 v 53 h -20 v 122 h -33 v 56 h -16 v 48 h -40 v 107 h -33 v 89 h -15 v 53 h -39 v 104 h -35 v 74 h -15 v 69 h -38 v 89 h -36 v 88 h -13 v 54 h -20 v 33 h -36 v 73 h -17 v 69 h -16 v 56 h -20 v 53 h -33 v 49 h -20 v 89 h -16 v 38 h -20 v 71 h -33 v 122 h -20 v 53 h -33 v 53 h -16 v 56 h -40 v 49 h -13 v 73 h -20 v 69 h -15 v 74 h -39 v 15 h -15 v 86 h -20 v 56 h -15 v 69 h -18 v 38 h -20 v 68 h -36 v 69 h -13 v 483 h 13 v 12 h 89 v 21 h 89 v 35 h 122 v 18 h 73 v 36 h 178 v 35 h 102 v 18 h 89 v 15 h 89 v 20 h 86 v 16 h 89 v 38 h 109 v 15 h 87 v 20 h 89 v 13 h 88 v 41 h 102 v 15 h 89 v 18 h 89 v 15 h 74 v 41 h 190 v 33 h 89 v 15 h 89 v 20 h 107 v 33 h 109 v 21 h 86 v 15 h 89 v 18 h 89 v 35 h 102 v 21 h 89 v 33 h 177 v 20 h 69 v 15 h 127 v 33 h 89 v 20 h 69 v 21 h 86 v 33 h 124 v 15 h 74 v 20 h 87 v 18 h 88 v 36 h 105 v 15 h 86 v 38 h 178 v 15 h 107 v 21 h 88 v 33 h 89 v 20 h 102 v 15 h 89 v 33 h 89 v 21 h 107 v 15 h 88 v 38 h 69 v 15 h 127 v -15 h 15 v -107 h 21 v -68 h 12 v -36 h 41 v -107 h 15 v -68 h 33 v -41 h 21 v -68 h 20 v -33 h 13 v -89 h 35 v -54 h 21 v -68 h 33 v -130 h 35 v -33 h 18 v -69 h 20 v -35 h 15 v -53 h 33 v -54 h 21 v -56 h 15 v -86 h 38 v -56 h 15 v -86 h 21 v -51 h 15 v -38 h 38 v -69 h 15 v -35 h 21 v -87 h 12 v -56 h 21 v -33 h 20 v -73 h 15 v -69 h 33 v -56 h 21 v -53 h 33 v -33 h 20 v -69 h 15 v -74 h 21 v -88 h 33 v -49 h 20 v -73 h 15 v -36 h 18 v -89 h 20 v -53 h 15 v -54 h 33 v -50 h 21 v -74 h 20 v -53 h 33 v -475 h -175 v -36 h -89 v -18 h -122 v -35 h -178 v -33 h -107 v -21 h -88 v -15 h -102 v -36 h -89 v -17 h -89 v -21 h -127 v -15 h -69 v -33 h -121 v -20 h -89 v -21 h -110 v -15 h -86 v -18 h -104 v -15 h -89 v -20 h -107 v -33 h -89 v -21 h -106 v -35 h -191 v -33 h -89 v -20 h -89 v -34 h -107 v -20 h -88 v -15 h -122 v -20 h -69 v -13 h -130 v -20 h -86 v -36 h -104 v -18 h -89 v -15 h -107 v -41 h -89 v -12 h -101 v -21 h -89 v -15 h -109 v -38 h -87 v -15 h -193 v -36 h -127 v -18 h -68 v -20 h -122 v -36 h -74 v -15 h -122 v -18 h -89 v -35 h -104 v -20 h -86 v -13 h -89 v -20 h -110 v -36 z"
   id="path464"
   inkscape:connector-curvature="0"
   style="fill:#0202e5;stroke:none" />
         <path
   d="m 9839,10556 v 69 h -20 v 73 h -16 v 71 h -20 v 54 h -33 v 53 h -20 v 122 h -33 v 56 h -16 v 48 h -40 v 107 h -33 v 89 h -15 v 53 h -39 v 104 h -35 v 74 h -15 v 69 h -38 v 89 h -36 v 88 h -13 v 54 h -20 v 33 h -36 v 73 h -17 v 69 h -16 v 56 h -20 v 53 h -33 v 49 h -20 v 89 h -16 v 38 h -20 v 71 h -33 v 122 h -20 v 53 h -33 v 53 h -16 v 56 h -40 v 49 h -13 v 73 h -20 v 69 h -15 v 74 h -39 v 917 h 54 v 35 h 122 v 18 h 73 v 36 h 178 v 35 h 102 v 18 h 89 v 15 h 89 v 20 h 86 v 16 h 89 v 38 h 109 v 15 h 87 v 20 h 89 v 13 h 88 v 41 h 102 v 15 h 89 v 18 h 89 v 15 h 74 v 41 h 190 v 33 h 89 v 15 h 89 v 20 h 107 v 33 h 109 v 21 h 86 v 15 h 89 v 18 h 89 v 35 h 102 v 21 h 89 v 33 h 177 v 20 h 69 v 15 h 127 v 33 h 89 v 20 h 69 v 21 h 86 v 33 h 124 v 15 h 74 v 20 h 87 v 18 h 88 v 36 h 105 v 15 h 86 v 38 h 178 v 15 h 107 v 21 h 88 v 33 h 89 v 20 h 102 v 15 h 89 v 33 h 89 v 21 h 107 v 15 h 88 v 38 h 69 v 15 h 127 v -15 h 15 v -107 h 21 v -68 h 12 v -36 h 41 v -107 h 15 v -68 h 33 v -41 h 21 v -68 h 20 v -33 h 13 v -89 h 35 v -54 h 21 v -68 h 33 v -130 h 35 v -33 h 18 v -69 h 20 v -35 h 15 v -53 h 33 v -54 h 21 v -56 h 15 v -86 h 38 v -56 h 15 v -86 h 21 v -51 h 15 v -38 h 38 v -69 h 15 v -35 h 21 v -87 h 12 v -56 h 21 v -33 h 20 v -73 h 15 v -69 h 33 v -56 h 21 v -53 h 33 v -33 h 20 v -69 h 15 v -74 h 21 v -88 h 33 v -49 h 20 v -993 h -89 v -18 h -122 v -35 h -178 v -33 h -107 v -21 h -88 v -15 h -102 v -36 h -89 v -17 h -89 v -21 h -127 v -15 h -69 v -33 h -121 v -20 h -89 v -21 h -110 v -15 h -86 v -18 h -104 v -15 h -89 v -20 h -107 v -33 h -89 v -21 h -106 v -35 h -191 v -33 h -89 v -20 h -89 v -34 h -107 v -20 h -88 v -15 h -122 v -20 h -69 v -13 h -130 v -20 h -86 v -36 h -104 v -18 h -89 v -15 h -107 v -41 h -89 v -12 h -101 v -21 h -89 v -15 h -109 v -38 h -87 v -15 h -193 v -36 h -127 v -18 h -68 v -20 h -122 v -36 h -74 v -15 h -122 v -18 h -89 v -35 h -104 v -20 h -86 v -13 h -89 v -20 h -110 v -36 z"
   id="path466"
   inkscape:connector-curvature="0"
   style="fill:#0202d8;stroke:none" />
         <path
   d="m 9839,10556 v 69 h -20 v 73 h -16 v 71 h -20 v 54 h -33 v 53 h -20 v 122 h -33 v 56 h -16 v 48 h -40 v 107 h -33 v 89 h -15 v 53 h -39 v 104 h -35 v 74 h -15 v 69 h -38 v 89 h -36 v 88 h -13 v 54 h -20 v 33 h -36 v 73 h -17 v 69 h -16 v 56 h -20 v 53 h -33 v 49 h -20 v 89 h -16 v 38 h -20 v 71 h -33 v 1519 h 53 v 36 h 178 v 35 h 102 v 18 h 89 v 15 h 89 v 20 h 86 v 16 h 89 v 38 h 109 v 15 h 87 v 20 h 89 v 13 h 88 v 41 h 102 v 15 h 89 v 18 h 89 v 15 h 74 v 41 h 190 v 33 h 89 v 15 h 89 v 20 h 107 v 33 h 109 v 21 h 86 v 15 h 89 v 18 h 89 v 35 h 102 v 21 h 89 v 33 h 177 v 20 h 69 v 15 h 127 v 33 h 89 v 20 h 69 v 21 h 86 v 33 h 124 v 15 h 74 v 20 h 87 v 18 h 88 v 36 h 105 v 15 h 86 v 38 h 178 v 15 h 107 v 21 h 88 v 33 h 89 v 20 h 102 v 15 h 89 v 33 h 89 v 21 h 107 v 15 h 88 v 38 h 69 v 15 h 127 v -15 h 15 v -107 h 21 v -68 h 12 v -36 h 41 v -107 h 15 v -68 h 33 v -41 h 21 v -68 h 20 v -33 h 13 v -89 h 35 v -54 h 21 v -68 h 33 v -130 h 35 v -33 h 18 v -69 h 20 v -35 h 15 v -53 h 33 v -54 h 21 v -56 h 15 v -86 h 38 v -56 h 15 v -86 h 21 v -51 h 15 v -38 h 38 v -69 h 15 v -35 h 21 v -87 h 12 v -56 h 21 v -33 h 20 v -73 h 15 v -69 h 33 v -1433 h -48 v -35 h -178 v -33 h -107 v -21 h -88 v -15 h -102 v -36 h -89 v -17 h -89 v -21 h -127 v -15 h -69 v -33 h -121 v -20 h -89 v -21 h -110 v -15 h -86 v -18 h -104 v -15 h -89 v -20 h -107 v -33 h -89 v -21 h -106 v -35 h -191 v -33 h -89 v -20 h -89 v -34 h -107 v -20 h -88 v -15 h -122 v -20 h -69 v -13 h -130 v -20 h -86 v -36 h -104 v -18 h -89 v -15 h -107 v -41 h -89 v -12 h -101 v -21 h -89 v -15 h -109 v -38 h -87 v -15 h -193 v -36 h -127 v -18 h -68 v -20 h -122 v -36 h -74 v -15 h -122 v -18 h -89 v -35 h -104 v -20 h -86 v -13 h -89 v -20 h -110 v -36 z"
   id="path468"
   inkscape:connector-curvature="0"
   style="fill:#0202cc;stroke:none" />
         <path
   d="m 9839,10556 v 69 h -20 v 73 h -16 v 71 h -20 v 54 h -33 v 53 h -20 v 122 h -33 v 56 h -16 v 48 h -40 v 107 h -33 v 89 h -15 v 53 h -39 v 104 h -35 v 74 h -15 v 69 h -38 v 89 h -36 v 88 h -13 v 54 h -20 v 33 h -36 v 73 h -17 v 69 h -16 v 1911 h 89 v 35 h 102 v 18 h 89 v 15 h 89 v 20 h 86 v 16 h 89 v 38 h 109 v 15 h 87 v 20 h 89 v 13 h 88 v 41 h 102 v 15 h 89 v 18 h 89 v 15 h 74 v 41 h 190 v 33 h 89 v 15 h 89 v 20 h 107 v 33 h 109 v 21 h 86 v 15 h 89 v 18 h 89 v 35 h 102 v 21 h 89 v 33 h 177 v 20 h 69 v 15 h 127 v 33 h 89 v 20 h 69 v 21 h 86 v 33 h 124 v 15 h 74 v 20 h 87 v 18 h 88 v 36 h 105 v 15 h 86 v 38 h 178 v 15 h 107 v 21 h 88 v 33 h 89 v 20 h 102 v 15 h 89 v 33 h 89 v 21 h 107 v 15 h 88 v 38 h 69 v 15 h 127 v -15 h 15 v -107 h 21 v -68 h 12 v -36 h 41 v -107 h 15 v -68 h 33 v -41 h 21 v -68 h 20 v -33 h 13 v -89 h 35 v -54 h 21 v -68 h 33 v -130 h 35 v -33 h 18 v -69 h 20 v -35 h 15 v -53 h 33 v -54 h 21 v -56 h 15 v -86 h 38 v -56 h 15 v -86 h 21 v -51 h 15 v -1928 h -51 v -33 h -107 v -21 h -88 v -15 h -102 v -36 h -89 v -17 h -89 v -21 h -127 v -15 h -69 v -33 h -121 v -20 h -89 v -21 h -110 v -15 h -86 v -18 h -104 v -15 h -89 v -20 h -107 v -33 h -89 v -21 h -106 v -35 h -191 v -33 h -89 v -20 h -89 v -34 h -107 v -20 h -88 v -15 h -122 v -20 h -69 v -13 h -130 v -20 h -86 v -36 h -104 v -18 h -89 v -15 h -107 v -41 h -89 v -12 h -101 v -21 h -89 v -15 h -109 v -38 h -87 v -15 h -193 v -36 h -127 v -18 h -68 v -20 h -122 v -36 h -74 v -15 h -122 v -18 h -89 v -35 h -104 v -20 h -86 v -13 h -89 v -20 h -110 v -36 z"
   id="path470"
   inkscape:connector-curvature="0"
   style="fill:#0202bf;stroke:none" />
         <path
   d="m 9839,10556 v 69 h -20 v 73 h -16 v 71 h -20 v 54 h -33 v 53 h -20 v 122 h -33 v 56 h -16 v 48 h -40 v 107 h -33 v 89 h -15 v 53 h -39 v 104 h -35 v 74 h -15 v 2421 h 15 v 18 h 89 v 15 h 89 v 20 h 86 v 16 h 89 v 38 h 109 v 15 h 87 v 20 h 89 v 13 h 88 v 41 h 102 v 15 h 89 v 18 h 89 v 15 h 74 v 41 h 190 v 33 h 89 v 15 h 89 v 20 h 107 v 33 h 109 v 21 h 86 v 15 h 89 v 18 h 89 v 35 h 102 v 21 h 89 v 33 h 177 v 20 h 69 v 15 h 127 v 33 h 89 v 20 h 69 v 21 h 86 v 33 h 124 v 15 h 74 v 20 h 87 v 18 h 88 v 36 h 105 v 15 h 86 v 38 h 178 v 15 h 107 v 21 h 88 v 33 h 89 v 20 h 102 v 15 h 89 v 33 h 89 v 21 h 107 v 15 h 88 v 38 h 69 v 15 h 127 v -15 h 15 v -107 h 21 v -68 h 12 v -36 h 41 v -107 h 15 v -68 h 33 v -41 h 21 v -68 h 20 v -33 h 13 v -89 h 35 v -54 h 21 v -68 h 33 v -130 h 35 v -33 h 18 v -69 h 20 v -35 h 15 v -2424 h -88 v -15 h -102 v -36 h -89 v -17 h -89 v -21 h -127 v -15 h -69 v -33 h -121 v -20 h -89 v -21 h -110 v -15 h -86 v -18 h -104 v -15 h -89 v -20 h -107 v -33 h -89 v -21 h -106 v -35 h -191 v -33 h -89 v -20 h -89 v -34 h -107 v -20 h -88 v -15 h -122 v -20 h -69 v -13 h -130 v -20 h -86 v -36 h -104 v -18 h -89 v -15 h -107 v -41 h -89 v -12 h -101 v -21 h -89 v -15 h -109 v -38 h -87 v -15 h -193 v -36 h -127 v -18 h -68 v -20 h -122 v -36 h -74 v -15 h -122 v -18 h -89 v -35 h -104 v -20 h -86 v -13 h -89 v -20 h -110 v -36 z"
   id="path472"
   inkscape:connector-curvature="0"
   style="fill:#0202af;stroke:none" />
         <path
   d="m 9839,10556 v 69 h -20 v 73 h -16 v 71 h -20 v 54 h -33 v 53 h -20 v 122 h -33 v 56 h -16 v 48 h -40 v 2881 h 56 v 20 h 86 v 16 h 89 v 38 h 109 v 15 h 87 v 20 h 89 v 13 h 88 v 41 h 102 v 15 h 89 v 18 h 89 v 15 h 74 v 41 h 190 v 33 h 89 v 15 h 89 v 20 h 107 v 33 h 109 v 21 h 86 v 15 h 89 v 18 h 89 v 35 h 102 v 21 h 89 v 33 h 177 v 20 h 69 v 15 h 127 v 33 h 89 v 20 h 69 v 21 h 86 v 33 h 124 v 15 h 74 v 20 h 87 v 18 h 88 v 36 h 105 v 15 h 86 v 38 h 178 v 15 h 107 v 21 h 88 v 33 h 89 v 20 h 102 v 15 h 89 v 33 h 89 v 21 h 107 v 15 h 88 v 38 h 69 v 15 h 127 v -15 h 15 v -107 h 21 v -68 h 12 v -36 h 41 v -107 h 15 v -68 h 33 v -41 h 21 v -68 h 20 v -33 h 13 v -2917 h -13 v -36 h -89 v -17 h -89 v -21 h -127 v -15 h -69 v -33 h -121 v -20 h -89 v -21 h -110 v -15 h -86 v -18 h -104 v -15 h -89 v -20 h -107 v -33 h -89 v -21 h -106 v -35 h -191 v -33 h -89 v -20 h -89 v -34 h -107 v -20 h -88 v -15 h -122 v -20 h -69 v -13 h -130 v -20 h -86 v -36 h -104 v -18 h -89 v -15 h -107 v -41 h -89 v -12 h -101 v -21 h -89 v -15 h -109 v -38 h -87 v -15 h -193 v -36 h -127 v -18 h -68 v -20 h -122 v -36 h -74 v -15 h -122 v -18 h -89 v -35 h -104 v -20 h -86 v -13 h -89 v -20 h -110 v -36 z"
   id="path474"
   inkscape:connector-curvature="0"
   style="fill:#0202a3;stroke:none" />
         <path
   d="m 9819,10698 v 3321 h 53 v 38 h 109 v 15 h 87 v 20 h 89 v 13 h 88 v 41 h 102 v 15 h 89 v 18 h 89 v 15 h 74 v 41 h 190 v 33 h 89 v 15 h 89 v 20 h 107 v 33 h 109 v 21 h 86 v 15 h 89 v 18 h 89 v 35 h 102 v 21 h 89 v 33 h 177 v 20 h 69 v 15 h 127 v 33 h 89 v 20 h 69 v 21 h 86 v 33 h 124 v 15 h 74 v 20 h 87 v 18 h 88 v 36 h 105 v 15 h 86 v 38 h 178 v 15 h 107 v 21 h 88 v 33 h 89 v 20 h 102 v 15 h 605 v -68 h 12 v -3323 h -48 v -21 h -127 v -15 h -69 v -33 h -121 v -20 h -89 v -21 h -110 v -15 h -86 v -18 h -104 v -15 h -89 v -20 h -107 v -33 h -89 v -21 h -106 v -35 h -191 v -33 h -89 v -20 h -89 v -34 h -107 v -20 h -88 v -15 h -122 v -20 h -69 v -13 h -130 v -20 h -86 v -36 h -104 v -18 h -89 v -15 h -107 v -41 h -89 v -12 h -101 v -21 h -89 v -15 h -109 v -38 h -87 v -15 h -193 v -36 h -127 v -18 h -68 v -20 h -122 v -36 h -74 v -15 z"
   id="path476"
   inkscape:connector-curvature="0"
   style="fill:#020296;stroke:none" />
         <path
   d="m 9981,10838 v 3234 h 87 v 20 h 89 v 13 h 88 v 41 h 102 v 15 h 89 v 18 h 89 v 15 h 74 v 41 h 190 v 33 h 89 v 15 h 89 v 20 h 107 v 33 h 109 v 21 h 86 v 15 h 89 v 18 h 89 v 35 h 102 v 21 h 89 v 33 h 177 v 20 h 69 v 15 h 127 v 33 h 89 v 20 h 69 v 21 h 86 v 33 h 124 v 15 h 74 v 20 h 87 v 18 h 88 v 36 h 1197 v -3270 h -69 v -33 h -121 v -20 h -89 v -21 h -110 v -15 h -86 v -18 h -104 v -15 h -89 v -20 h -107 v -33 h -89 v -21 h -106 v -35 h -191 v -33 h -89 v -20 h -89 v -34 h -107 v -20 h -88 v -15 h -122 v -20 h -69 v -13 h -130 v -20 h -86 v -36 h -104 v -18 h -89 v -15 h -107 v -41 h -89 v -12 h -101 v -21 h -89 v -15 h -109 v -38 z"
   id="path478"
   inkscape:connector-curvature="0"
   style="fill:#020287;stroke:none" />
         <path
   d="m 10157,11034 v 3071 h 88 v 41 h 102 v 15 h 89 v 18 h 89 v 15 h 74 v 41 h 190 v 33 h 89 v 15 h 89 v 20 h 107 v 33 h 109 v 21 h 86 v 15 h 89 v 18 h 89 v 35 h 102 v 21 h 89 v 33 h 177 v 20 h 69 v 15 h 127 v 33 h 1657 v -3140 h -33 v -20 h -89 v -21 h -110 v -15 h -86 v -18 h -104 v -15 h -89 v -20 h -107 v -33 h -89 v -21 h -106 v -35 h -191 v -33 h -89 v -20 h -89 v -34 h -107 v -20 h -88 v -15 h -122 v -20 h -69 v -13 h -130 v -20 z"
   id="path480"
   inkscape:connector-curvature="0"
   style="fill:#02027a;stroke:none" />
         <path
   d="m 10299,11176 v 2970 h 48 v 15 h 89 v 18 h 89 v 15 h 74 v 41 h 190 v 33 h 89 v 15 h 89 v 20 h 107 v 33 h 109 v 21 h 86 v 15 h 2223 v -3006 h -56 v -15 h -86 v -18 h -104 v -15 h -89 v -20 h -107 v -33 h -89 v -21 h -106 v -35 h -191 v -33 z"
   id="path482"
   inkscape:connector-curvature="0"
   style="fill:#02026d;stroke:none" />
         <path
   d="m 10489,11351 v 2828 h 36 v 15 h 74 v 41 h 2751 v -2884 z"
   id="path484"
   inkscape:connector-curvature="0"
   style="fill:#020260;stroke:none" />
         <path
   d="m 10632,11493 v 2510 h 2507 v -2510 z"
   id="path486"
   inkscape:connector-curvature="0"
   style="fill:#020251;stroke:none" />
         <path
   d="m 10789,11687 v 2174 h 2193 v -2174 z"
   id="path488"
   inkscape:connector-curvature="0"
   style="fill:#020244;stroke:none" />
         <path
   d="m 10967,11829 v 1854 h 1852 v -1854 z"
   id="path490"
   inkscape:connector-curvature="0"
   style="fill:#020238;stroke:none" />
         <path
   d="m 11127,12004 v 1522 h 1537 v -1522 z"
   id="path492"
   inkscape:connector-curvature="0"
   style="fill:#02022b;stroke:none" />
         <path
   d="m 11285,12162 v 1189 h 1201 v -1189 z"
   id="path494"
   inkscape:connector-curvature="0"
   style="fill:#02021c;stroke:none" />
         <path
   d="m 11447,12339 v 869 h 897 v -869 z"
   id="path496"
   inkscape:connector-curvature="0"
   style="fill:#02020f;stroke:none" />
         <path
   d="m 11605,12482 v 528 h 543 v -528 z"
   id="path498"
   inkscape:connector-curvature="0"
   style="fill:#000000;stroke:none" />
         <path
   d="m 9839,10556 -1148,3181 5223,1237 38,-53 v -21 l 15,-68 21,-69 53,-89 v -86 l 48,-89 41,-127 48,-104 54,-122 35,-143 53,-124 54,-142 53,-143 51,-155 53,-129 54,-155 35,-145 87,-142 35,-137 54,-143 35,-142 38,-86 48,-145 41,-86 33,-105 36,-89 20,-73 33,-54 15,-33 v -55 z"
   id="path500"
   inkscape:connector-curvature="0"
   style="fill:none;stroke:#000000" />
         <path
   d="m 15238,13452 -585,1680 442,142 618,-1697 z"
   id="path502"
   inkscape:connector-curvature="0"
   style="fill:#828282;stroke:none" />
         <path
   d="m 15238,13452 -585,1680 442,142 618,-1697 z"
   id="path504"
   inkscape:connector-curvature="0"
   style="fill:none;stroke:#000000" />
         <path
   d="m 15291,14003 v 89 l 20,13 v 56 l 49,33 v 41 h 88 l 39,-41 v -33 l 15,-15 v -74 l 20,-15 v -38 l 33,-16 v -20 l 20,-15 v -18 l 16,-35 v -36 h 20 v -74 h -109 l -15,21 h -54 l -20,35 h -13 l -40,54 h -49 v 35 l -20,18 z"
   id="path506"
   inkscape:connector-curvature="0"
   style="fill:#bfbfbf;stroke:none" />
         <path
   d="m 15291,14003 v 89 l 20,13 v 56 l 49,33 v 41 h 88 l 39,-41 v -33 l 15,-15 v -74 l 20,-15 v -38 l 33,-16 v -20 l 20,-15 v -18 l 16,-35 v -36 h 20 v -74 h -109 l -15,21 h -54 l -20,35 h -13 l -40,54 h -49 v 35 l -20,18 z"
   id="path508"
   inkscape:connector-curvature="0"
   style="fill:none;stroke:#000000" />
         <path
   d="m 15006,14763 v 36 l 21,33 v 35 l 20,33 v 21 h 33 v 15 l 15,38 h 21 l 17,15 h 69 v -15 l 20,-38 v -36 l 16,-33 v -68 l 33,-21 v -15 l 20,-38 v -15 l 20,-36 v -38 l 15,-15 v -74 h -88 l -16,20 h -20 l -53,21 h -16 l -17,33 h -21 l -48,35 h -20 v 18 l -21,36 z"
   id="path510"
   inkscape:connector-curvature="0"
   style="fill:#bfbfbf;stroke:none" />
         <path
   d="m 15006,14763 v 36 l 21,33 v 35 l 20,33 v 21 h 33 v 15 l 15,38 h 21 l 17,15 h 69 v -15 l 20,-38 v -36 l 16,-33 v -68 l 33,-21 v -15 l 20,-38 v -15 l 20,-36 v -38 l 15,-15 v -74 h -88 l -16,20 h -20 l -53,21 h -16 l -17,33 h -21 l -48,35 h -20 v 18 l -21,36 z"
   id="path512"
   inkscape:connector-curvature="0"
   style="fill:none;stroke:#000000" />
        </g>
       </g>
      </g>
     </g>
    </g>
   </g>
  </g>
 </g>
</svg>