<?xml version="1.0" encoding="UTF-8" standalone="no"?>
<svg
   xmlns:ooo="http://xml.openoffice.org/svg/export"
   xmlns:dc="http://purl.org/dc/elements/1.1/"
   xmlns:cc="http://creativecommons.org/ns#"
   xmlns:rdf="http://www.w3.org/1999/02/22-rdf-syntax-ns#"
   xmlns:svg="http://www.w3.org/2000/svg"
   xmlns="http://www.w3.org/2000/svg"
   xmlns:sodipodi="http://sodipodi.sourceforge.net/DTD/sodipodi-0.dtd"
   xmlns:inkscape="http://www.inkscape.org/namespaces/inkscape"
   version="1.2"
   width="64.620003mm"
   height="66.720001mm"
   viewBox="0 0 6462.0003 6672.0001"
   preserveAspectRatio="xMidYMid"
   xml:space="preserve"
   id="svg145"
   sodipodi:docname="palette.svg"
   style="fill-rule:evenodd;stroke-width:28.22200012;stroke-linejoin:round"
   inkscape:version="0.92.5 (2060ec1f9f, 2020-04-08)"><metadata
   id="metadata149"><rdf:RDF><cc:Work
       rdf:about=""><dc:format>image/svg+xml</dc:format><dc:type
         rdf:resource="http://purl.org/dc/dcmitype/StillImage" /></cc:Work></rdf:RDF></metadata><sodipodi:namedview
   pagecolor="#ffffff"
   bordercolor="#666666"
   borderopacity="1"
   objecttolerance="10"
   gridtolerance="10"
   guidetolerance="10"
   inkscape:pageopacity="0"
   inkscape:pageshadow="2"
   inkscape:window-width="664"
   inkscape:window-height="487"
   id="namedview147"
   showgrid="false"
   inkscape:zoom="0.2102413"
   inkscape:cx="122.11654"
   inkscape:cy="126.08504"
   inkscape:window-x="0"
   inkscape:window-y="0"
   inkscape:window-maximized="0"
   inkscape:current-layer="svg145" />
 <defs
   class="ClipPathGroup"
   id="defs8">
  <clipPath
   id="presentation_clip_path"
   clipPathUnits="userSpaceOnUse">
   <rect
   x="0"
   y="0"
   width="21000"
   height="29700"
   id="rect2" />
  </clipPath>
  <clipPath
   id="presentation_clip_path_shrink"
   clipPathUnits="userSpaceOnUse">
   <rect
   x="21"
   y="29"
   width="20958"
   height="29641"
   id="rect5" />
  </clipPath>
 </defs>
 <defs
   class="TextShapeIndex"
   id="defs12">
  <g
   ooo:slide="id1"
   ooo:id-list="id3"
   id="g10" />
 </defs>
 <defs
   class="EmbeddedBulletChars"
   id="defs44">
  <g
   id="bullet-char-template-57356"
   transform="matrix(4.8828125e-4,0,0,-4.8828125e-4,0,0)">
   <path
   d="M 580,1141 1163,571 580,0 -4,571 Z"
   id="path14"
   inkscape:connector-curvature="0" />
  </g>
  <g
   id="bullet-char-template-57354"
   transform="matrix(4.8828125e-4,0,0,-4.8828125e-4,0,0)">
   <path
   d="M 8,1128 H 1137 V 0 H 8 Z"
   id="path17"
   inkscape:connector-curvature="0" />
  </g>
  <g
   id="bullet-char-template-10146"
   transform="matrix(4.8828125e-4,0,0,-4.8828125e-4,0,0)">
   <path
   d="M 174,0 602,739 174,1481 1456,739 Z M 1358,739 309,1346 659,739 Z"
   id="path20"
   inkscape:connector-curvature="0" />
  </g>
  <g
   id="bullet-char-template-10132"
   transform="matrix(4.8828125e-4,0,0,-4.8828125e-4,0,0)">
   <path
   d="M 2015,739 1276,0 H 717 l 543,543 H 174 v 393 h 1086 l -543,545 h 557 z"
   id="path23"
   inkscape:connector-curvature="0" />
  </g>
  <g
   id="bullet-char-template-10007"
   transform="matrix(4.8828125e-4,0,0,-4.8828125e-4,0,0)">
   <path
   d="m 0,-2 c -7,16 -16,29 -25,39 l 381,530 c -94,256 -141,385 -141,387 0,25 13,38 40,38 9,0 21,-2 34,-5 21,4 42,12 65,25 l 27,-13 111,-251 280,301 64,-25 24,25 c 21,-10 41,-24 62,-43 C 886,937 835,863 770,784 769,783 710,716 594,584 L 774,223 c 0,-27 -21,-55 -63,-84 l 16,-20 C 717,90 699,76 672,76 641,76 570,178 457,381 L 164,-76 c -22,-34 -53,-51 -92,-51 -42,0 -63,17 -64,51 -7,9 -10,24 -10,44 0,9 1,19 2,30 z"
   id="path26"
   inkscape:connector-curvature="0" />
  </g>
  <g
   id="bullet-char-template-10004"
   transform="matrix(4.8828125e-4,0,0,-4.8828125e-4,0,0)">
   <path
   d="M 285,-33 C 182,-33 111,30 74,156 52,228 41,333 41,471 c 0,78 14,145 41,201 34,71 87,106 158,106 53,0 88,-31 106,-94 l 23,-176 c 8,-64 28,-97 59,-98 l 735,706 c 11,11 33,17 66,17 42,0 63,-15 63,-46 V 965 c 0,-36 -10,-64 -30,-84 L 442,47 C 390,-6 338,-33 285,-33 Z"
   id="path29"
   inkscape:connector-curvature="0" />
  </g>
  <g
   id="bullet-char-template-9679"
   transform="matrix(4.8828125e-4,0,0,-4.8828125e-4,0,0)">
   <path
   d="M 813,0 C 632,0 489,54 383,161 276,268 223,411 223,592 c 0,181 53,324 160,431 106,107 249,161 430,161 179,0 323,-54 432,-161 108,-107 162,-251 162,-431 0,-180 -54,-324 -162,-431 C 1136,54 992,0 813,0 Z"
   id="path32"
   inkscape:connector-curvature="0" />
  </g>
  <g
   id="bullet-char-template-8226"
   transform="matrix(4.8828125e-4,0,0,-4.8828125e-4,0,0)">
   <path
   d="m 346,457 c -73,0 -137,26 -191,78 -54,51 -81,114 -81,188 0,73 27,136 81,188 54,52 118,78 191,78 73,0 134,-26 185,-79 51,-51 77,-114 77,-187 0,-75 -25,-137 -76,-188 -50,-52 -112,-78 -186,-78 z"
   id="path35"
   inkscape:connector-curvature="0" />
  </g>
  <g
   id="bullet-char-template-8211"
   transform="matrix(4.8828125e-4,0,0,-4.8828125e-4,0,0)">
   <path
   d="M -4,459 H 1135 V 606 H -4 Z"
   id="path38"
   inkscape:connector-curvature="0" />
  </g>
  <g
   id="bullet-char-template-61548"
   transform="matrix(4.8828125e-4,0,0,-4.8828125e-4,0,0)">
   <path
   d="m 173,740 c 0,163 58,303 173,419 116,115 255,173 419,173 163,0 302,-58 418,-173 116,-116 174,-256 174,-419 0,-163 -58,-303 -174,-418 C 1067,206 928,148 765,148 601,148 462,206 346,322 231,437 173,577 173,740 Z"
   id="path41"
   inkscape:connector-curvature="0" />
  </g>
 </defs>
 <g
   id="g49"
   transform="translate(-7269,-11514)">
  <g
   id="id2"
   class="Master_Slide">
   <g
   id="bg-id2"
   class="Background" />
   <g
   id="bo-id2"
   class="BackgroundObjects" />
  </g>
 </g>
 <g
   class="SlideGroup"
   id="g143"
   transform="translate(-7269,-11514)">
  <g
   id="g141">
   <g
   id="container-id1">
    <g
   id="id1"
   class="Slide"
   clip-path="url(#presentation_clip_path)">
     <g
   class="Page"
   id="g137">
      <g
   class="Graphic"
   id="g135">
       <g
   id="id3">
        <rect
   class="BoundingBox"
   x="7269"
   y="11514"
   width="6462"
   height="6672"
   id="rect51"
   style="fill:none;stroke:none" />
        <defs
   id="defs56">
         <clipPath
   id="clip_path_1"
   clipPathUnits="userSpaceOnUse">
          <path
   d="m 7269,11514 h 6461 v 6671 H 7269 Z"
   id="path53"
   inkscape:connector-curvature="0" />
         </clipPath>
        </defs>
        <g
   clip-path="url(#clip_path_1)"
   id="g132">
         <path
   d="m 7275,11521 h 6448 v 6658 H 7275 Z"
   id="path58"
   inkscape:connector-curvature="0"
   style="fill:#ffffff;stroke:none" />
         <path
   d="m 7275,11521 h 6448 v 6658 H 7275 Z"
   id="path60"
   inkscape:connector-curvature="0"
   style="fill:none;stroke:#ffffff" />
         <path
   d="m 13547,14916 -4687,-2959 1445,5449 z"
   id="path62"
   inkscape:connector-curvature="0"
   style="fill:#000000;stroke:none" />
         <path
   d="m 13671,14548 -4688,-2958 1446,5448 z"
   id="path64"
   inkscape:connector-curvature="0"
   style="fill:#ff1a00;stroke:none" />
         <path
   d="m 11163,11863 98,-27 99,-15 99,-3 97,10 92,22 85,36 77,48 66,62 54,74 40,89 24,103 4,117 -15,131 -37,145 -62,160 -87,176 -85,177 -52,168 -25,159 v 148 l 21,138 40,128 55,118 66,109 74,98 79,88 81,78 79,67 74,58 65,47 54,36 38,27 30,26 28,34 26,42 23,48 19,54 13,59 9,63 3,67 -4,69 -12,72 -19,73 -29,73 -38,73 -48,72 -60,70 -70,68 -123,85 -204,120 -273,142 -327,155 -368,159 -395,151 -408,135 -409,107 -395,71 -368,24 -327,-34 -272,-100 -204,-178 -123,-265 -27,-362 82,-469 159,-502 189,-454 215,-407 234,-365 249,-322 256,-284 259,-246 257,-211 247,-178 233,-147 212,-119 187,-93 155,-68 118,-46 75,-26 z"
   id="path66"
   inkscape:connector-curvature="0"
   style="fill:#000000;stroke:none" />
         <path
   d="m 11163,11710 98,-27 99,-15 99,-3 97,10 92,22 85,36 77,48 66,62 54,75 40,88 24,103 4,117 -15,131 -37,145 -62,161 -87,175 -85,177 -52,168 -25,159 v 148 l 21,138 40,129 55,118 66,108 74,98 79,88 81,78 79,67 74,58 65,47 54,36 38,27 30,26 28,34 26,42 23,48 19,54 13,59 9,64 3,66 -4,70 -12,71 -19,73 -29,73 -38,73 -48,72 -60,70 -70,68 -123,86 -204,119 -273,142 -327,156 -368,158 -395,152 -408,134 -409,108 -395,71 -368,23 -327,-33 -272,-101 -204,-178 -123,-265 -27,-362 82,-469 159,-502 189,-453 215,-408 234,-365 249,-322 256,-283 259,-246 257,-211 247,-179 233,-147 212,-119 187,-93 155,-68 118,-46 75,-26 z"
   id="path68"
   inkscape:connector-curvature="0"
   style="fill:#d0a560;stroke:none" />
         <path
   d="m 10644,13522 41,-24 42,-20 42,-18 41,-14 41,-10 41,-7 40,-4 39,-1 37,3 35,6 33,9 31,12 28,16 25,19 22,22 19,26"
   id="path70"
   inkscape:connector-curvature="0"
   style="fill:none;stroke:#000000;stroke-width:211;stroke-linecap:round;stroke-linejoin:round" />
         <path
   d="m 10700,13611 -112,-179 z"
   id="path72"
   inkscape:connector-curvature="0"
   style="fill:#000000;stroke:none" />
         <path
   d="m 10700,13611 -112,-179 z"
   id="path74"
   inkscape:connector-curvature="0"
   style="fill:none;stroke:#000000" />
         <path
   d="m 11291,13481 -180,111 z"
   id="path76"
   inkscape:connector-curvature="0"
   style="fill:#000000;stroke:none" />
         <path
   d="m 11291,13481 -180,111 z"
   id="path78"
   inkscape:connector-curvature="0"
   style="fill:none;stroke:#000000" />
         <path
   d="m 11201,13537 15,27 10,30 6,31 1,32 -2,33 -6,34 -10,34 -14,35 -18,34 -21,34 -24,33 -28,33 -31,31 -34,30 -36,29 -40,26"
   id="path80"
   inkscape:connector-curvature="0"
   style="fill:none;stroke:#000000;stroke-width:211;stroke-linecap:round;stroke-linejoin:round" />
         <path
   d="m 11112,13593 178,-112 z"
   id="path82"
   inkscape:connector-curvature="0"
   style="fill:#000000;stroke:none" />
         <path
   d="m 11112,13593 178,-112 z"
   id="path84"
   inkscape:connector-curvature="0"
   style="fill:none;stroke:#000000" />
         <path
   d="m 11025,14133 -112,-179 z"
   id="path86"
   inkscape:connector-curvature="0"
   style="fill:#000000;stroke:none" />
         <path
   d="m 11025,14133 -112,-179 z"
   id="path88"
   inkscape:connector-curvature="0"
   style="fill:none;stroke:#000000" />
         <path
   d="m 10969,14043 -41,24 -42,20 -42,18 -41,14 -41,10 -41,7 -40,4 -38,1 -38,-3 -35,-6 -33,-9 -31,-13 -28,-15 -25,-19 -22,-22 -19,-25"
   id="path90"
   inkscape:connector-curvature="0"
   style="fill:none;stroke:#000000;stroke-width:211;stroke-linecap:round;stroke-linejoin:round" />
         <path
   d="m 10914,13954 111,179 z"
   id="path92"
   inkscape:connector-curvature="0"
   style="fill:#000000;stroke:none" />
         <path
   d="m 10914,13954 111,179 z"
   id="path94"
   inkscape:connector-curvature="0"
   style="fill:none;stroke:#000000" />
         <path
   d="m 10323,14084 179,-111 z"
   id="path96"
   inkscape:connector-curvature="0"
   style="fill:#000000;stroke:none" />
         <path
   d="m 10323,14084 179,-111 z"
   id="path98"
   inkscape:connector-curvature="0"
   style="fill:none;stroke:#000000" />
         <path
   d="m 10412,14029 -15,-28 -10,-30 -5,-31 -2,-32 2,-33 6,-34 11,-34 13,-35 18,-34 21,-34 24,-33 28,-33 31,-31 34,-30 36,-29 40,-26"
   id="path100"
   inkscape:connector-curvature="0"
   style="fill:none;stroke:#000000;stroke-width:211;stroke-linecap:round;stroke-linejoin:round" />
         <path
   d="m 10502,13973 -179,112 z"
   id="path102"
   inkscape:connector-curvature="0"
   style="fill:#000000;stroke:none" />
         <path
   d="m 10502,13973 -179,112 z"
   id="path104"
   inkscape:connector-curvature="0"
   style="fill:none;stroke:#000000" />
         <path
   d="m 10588,13433 112,178 z"
   id="path106"
   inkscape:connector-curvature="0"
   style="fill:#000000;stroke:none" />
         <path
   d="m 10588,13433 112,178 z"
   id="path108"
   inkscape:connector-curvature="0"
   style="fill:none;stroke:#000000" />
         <path
   d="m 11005,12230 153,-23 58,164 2,1 h 7 l 9,2 13,3 15,4 17,4 18,5 19,6 18,6 18,7 17,8 16,9 12,9 10,9 6,10 3,11 -1,13 -3,14 -5,16 -6,19 -7,19 -8,19 -8,20 -9,19 -9,20 -8,17 -8,16 -7,14 -6,12 -5,10 -3,5 -1,2 h -118 l -1,1 -3,5 -5,7 -6,10 -8,11 -9,12 -10,13 -10,14 -12,15 -11,14 -12,14 -12,13 -11,12 -11,9 -10,8 -9,7 -10,5 -12,6 -12,8 -14,9 -15,9 -16,9 -16,9 -16,7 -16,7 -15,5 -15,3 h -14 l -12,-2 -12,-6 -10,-9 -7,-13 -7,-15 -9,-14 -9,-12 -10,-11 -10,-11 -11,-9 -11,-9 -11,-8 -10,-7 -10,-7 -8,-7 -8,-6 -6,-7 -5,-6 -3,-6 -1,-7 v -7 l -1,-8 v -10 l -1,-10 -1,-11 -1,-12 -1,-12 -1,-12 -1,-12 -1,-12 -1,-12 -1,-11 -1,-10 v -9 l -1,-9 v -7 l 1,-8 4,-9 5,-11 7,-12 8,-14 9,-14 9,-13 10,-15 10,-13 10,-13 9,-11 8,-10 6,-9 5,-7 4,-4 1,-1 z"
   id="path110"
   inkscape:connector-curvature="0"
   style="fill:#777777;stroke:none" />
         <path
   d="m 10230,12712 152,-24 59,164 2,1 7,1 9,2 13,3 15,3 17,5 18,4 19,7 18,6 18,7 17,8 16,8 12,9 10,10 6,10 3,11 -1,12 -3,15 -5,16 -6,18 -7,19 -8,20 -9,19 -8,20 -9,19 -9,18 -8,15 -7,15 -6,11 -5,10 -3,5 v 2 h -118 l -1,2 -3,4 -5,7 -6,10 -8,11 -9,12 -10,14 -11,14 -11,14 -11,15 -12,13 -12,13 -11,12 -11,10 -10,8 -9,6 -11,5 -11,7 -12,8 -15,9 -14,9 -16,9 -16,8 -16,8 -16,6 -15,5 -15,3 -14,1 -13,-3 -11,-6 -10,-9 -7,-13 -8,-15 -8,-13 -9,-13 -10,-11 -11,-10 -11,-10 -11,-8 -10,-8 -10,-8 -10,-7 -9,-6 -7,-7 -7,-6 -4,-6 -3,-7 -1,-6 -1,-7 v -9 -10 l -1,-10 -1,-11 -1,-11 -1,-12 -1,-12 -2,-13 v -11 l -2,-12 v -11 l -1,-10 -1,-10 v -8 -7 l 1,-8 3,-10 6,-11 6,-12 8,-13 9,-14 10,-14 10,-14 9,-13 10,-13 9,-12 8,-10 7,-9 5,-6 4,-4 1,-2 z"
   id="path112"
   inkscape:connector-curvature="0"
   style="fill:#777777;stroke:none" />
         <path
   d="m 9525,13428 153,-23 58,164 2,1 7,1 10,1 12,3 16,4 16,4 19,5 18,6 18,6 19,7 16,8 16,9 12,9 10,9 7,10 2,11 -1,12 -3,15 -5,16 -6,18 -7,19 -8,20 -8,20 -9,19 -9,19 -8,18 -8,16 -7,14 -6,12 -5,9 -3,6 -1,2 h -117 l -2,1 -3,5 -5,7 -6,9 -8,11 -9,13 -10,13 -10,14 -12,14 -11,15 -12,14 -11,13 -12,11 -11,10 -10,8 -9,7 -10,4 -12,7 -12,8 -14,9 -15,9 -15,9 -16,8 -17,8 -15,7 -16,4 -14,3 -15,1 -12,-3 -12,-5 -9,-10 -8,-13 -7,-15 -8,-13 -10,-12 -10,-12 -10,-10 -11,-9 -11,-9 -11,-8 -10,-8 -10,-6 -8,-7 -8,-6 -6,-7 -5,-6 -3,-6 -1,-7 v -7 l -1,-9 v -9 l -1,-11 -1,-11 -1,-11 -1,-12 -1,-12 -1,-12 -1,-12 -1,-12 -1,-11 -1,-10 v -9 l -1,-9 v -7 l 1,-8 4,-9 5,-11 6,-13 9,-13 8,-14 10,-14 10,-14 10,-13 9,-13 9,-12 8,-10 7,-8 5,-7 4,-4 1,-2 z"
   id="path114"
   inkscape:connector-curvature="0"
   style="fill:#777777;stroke:none" />
         <path
   d="m 9055,14203 153,-24 59,165 2,1 6,1 10,1 12,3 16,4 16,4 19,5 18,6 19,6 18,7 16,8 16,8 12,9 10,10 7,10 2,11 -1,12 -3,15 -5,17 -6,17 -7,20 -8,19 -8,20 -9,19 -9,19 -8,18 -8,16 -7,14 -6,12 -5,9 -3,6 -1,2 h -117 l -1,1 -4,5 -5,7 -6,9 -8,11 -9,13 -9,13 -11,14 -11,15 -12,14 -12,14 -11,13 -12,11 -11,10 -10,8 -9,6 -10,6 -12,6 -12,8 -14,9 -15,9 -15,9 -16,9 -16,7 -16,7 -16,5 -14,3 h -14 l -13,-3 -11,-5 -10,-10 -7,-13 -8,-15 -8,-13 -10,-12 -10,-11 -10,-11 -11,-9 -11,-9 -11,-8 -10,-7 -10,-8 -8,-6 -8,-7 -6,-6 -5,-6 -3,-6 -1,-7 v -7 l -1,-9 v -9 l -1,-10 -1,-11 -1,-12 -1,-12 -1,-12 -1,-12 -1,-12 -1,-11 -1,-12 -1,-10 v -10 l -1,-8 v -7 l 1,-8 4,-9 5,-11 7,-13 8,-13 9,-14 9,-14 10,-14 10,-13 9,-13 9,-11 8,-11 7,-9 5,-6 4,-4 1,-1 z"
   id="path116"
   inkscape:connector-curvature="0"
   style="fill:#777777;stroke:none" />
         <path
   d="m 8750,15225 153,-24 58,165 h 2 l 7,1 10,2 12,3 16,4 16,4 19,5 18,6 18,6 19,7 16,8 16,8 12,9 10,10 7,10 2,11 -1,12 -3,15 -5,16 -6,18 -7,19 -8,20 -9,19 -8,20 -9,19 -8,17 -9,17 -7,14 -6,12 -4,9 -3,6 -1,2 h -117 l -2,1 -3,5 -5,7 -6,9 -8,11 -9,12 -10,14 -11,14 -11,14 -12,14 -11,14 -12,13 -12,12 -11,10 -10,8 -9,6 -10,5 -11,7 -13,8 -14,9 -14,9 -16,9 -16,8 -16,8 -16,6 -15,5 -15,3 h -14 l -13,-2 -11,-6 -10,-9 -7,-13 -7,-15 -9,-13 -9,-13 -10,-11 -11,-10 -10,-9 -11,-9 -11,-8 -10,-7 -10,-8 -8,-6 -8,-7 -6,-6 -5,-6 -3,-6 -1,-7 v -7 l -1,-9 v -9 l -1,-10 -1,-12 -1,-11 -1,-12 -1,-12 -1,-12 -1,-12 -1,-12 -1,-11 -1,-10 v -10 l -1,-8 v -7 l 1,-8 4,-10 5,-10 6,-13 9,-13 9,-14 9,-14 10,-14 10,-13 9,-13 9,-12 8,-10 7,-9 5,-7 4,-4 1,-1 z"
   id="path118"
   inkscape:connector-curvature="0"
   style="fill:#777777;stroke:none" />
         <path
   d="m 10976,11955 153,-24 59,165 2,1 h 6 l 10,2 13,3 15,4 17,4 18,5 19,6 18,6 18,7 17,8 15,8 13,9 9,10 7,10 2,11 -1,12 -3,15 -5,16 -6,18 -7,19 -8,20 -8,20 -9,19 -9,19 -8,18 -8,16 -7,14 -6,12 -5,9 -3,6 v 2 h -118 l -1,1 -3,5 -5,7 -6,9 -9,11 -8,13 -10,13 -11,14 -11,14 -12,15 -12,13 -11,13 -11,12 -11,10 -10,8 -10,6 -10,5 -11,7 -13,8 -14,9 -15,9 -15,9 -16,8 -16,8 -16,6 -15,5 -15,3 -14,1 -13,-3 -11,-6 -10,-9 -7,-13 -8,-15 -8,-13 -10,-12 -10,-12 -10,-10 -11,-10 -11,-8 -11,-8 -10,-8 -9,-6 -9,-7 -8,-6 -6,-7 -5,-6 -3,-6 -1,-7 v -7 -8 l -1,-10 -1,-10 v -12 l -2,-11 -1,-12 -1,-12 -1,-12 -1,-12 -1,-12 -1,-11 -1,-10 v -10 -8 -7 -8 l 4,-10 5,-11 7,-12 8,-13 9,-14 9,-14 10,-14 10,-13 9,-13 9,-12 8,-10 7,-8 5,-7 4,-4 1,-2 z"
   id="path120"
   inkscape:connector-curvature="0"
   style="fill:#fed939;stroke:none" />
         <path
   d="m 10130,12484 153,-24 59,164 2,1 6,1 10,2 13,2 15,4 17,5 18,4 19,6 18,7 18,7 17,7 15,9 13,9 10,9 6,11 3,10 -1,13 -3,14 -5,17 -6,18 -7,19 -8,19 -9,20 -8,20 -9,19 -9,17 -8,16 -7,15 -6,11 -5,10 -3,5 v 2 h -118 l -1,2 -3,4 -5,7 -6,10 -8,11 -9,12 -10,14 -11,14 -11,14 -11,14 -12,14 -12,13 -11,12 -11,10 -10,8 -9,6 -11,5 -11,6 -13,9 -14,9 -15,8 -15,9 -16,9 -16,8 -16,6 -15,5 -15,3 h -14 l -13,-2 -11,-6 -9,-9 -8,-13 -8,-15 -8,-14 -9,-12 -10,-11 -11,-11 -11,-9 -11,-9 -10,-8 -10,-7 -10,-7 -9,-7 -7,-6 -7,-6 -4,-7 -3,-6 -1,-6 -1,-8 v -8 -10 l -1,-10 -1,-11 -1,-11 -1,-13 -1,-12 -2,-12 v -12 l -2,-11 v -11 l -1,-11 -1,-9 v -9 -7 l 1,-7 3,-10 5,-11 7,-12 8,-14 9,-13 10,-14 10,-14 9,-14 10,-12 9,-12 8,-10 7,-9 5,-7 3,-4 1,-1 z"
   id="path122"
   inkscape:connector-curvature="0"
   style="fill:#fc1821;stroke:none" />
         <path
   d="m 9426,13212 153,-24 58,165 h 2 l 7,1 10,2 12,3 16,3 16,5 19,5 18,5 18,7 19,7 16,7 16,9 12,9 10,9 7,10 2,11 -1,12 -3,15 -5,17 -6,18 -7,19 -8,19 -8,20 -9,19 -9,20 -8,17 -8,16 -7,14 -6,12 -5,9 -3,6 -1,2 h -117 l -2,1 -3,5 -5,7 -6,10 -8,10 -9,13 -10,13 -11,15 -11,14 -11,14 -12,14 -12,13 -11,12 -11,10 -10,8 -10,6 -9,5 -12,7 -13,8 -13,9 -15,9 -16,9 -16,8 -16,8 -16,6 -15,5 -15,3 h -14 l -13,-2 -11,-6 -10,-9 -7,-13 -7,-15 -9,-14 -9,-12 -10,-11 -11,-11 -10,-9 -11,-8 -11,-8 -10,-8 -10,-7 -8,-7 -8,-6 -7,-6 -4,-6 -3,-7 -1,-6 v -8 l -1,-8 v -9 l -1,-11 -1,-11 -1,-12 -1,-11 -1,-13 -1,-12 -1,-11 -1,-12 -1,-11 -1,-10 v -10 l -1,-9 v -7 l 1,-7 4,-10 5,-11 6,-12 9,-13 8,-14 10,-14 10,-14 10,-14 9,-12 9,-12 8,-10 7,-9 5,-7 3,-4 2,-1 z"
   id="path124"
   inkscape:connector-curvature="0"
   style="fill:#0c3d91;stroke:none" />
         <path
   d="m 8968,14046 152,-24 59,164 2,1 7,1 10,2 12,2 16,4 16,4 18,5 19,6 18,7 19,6 16,8 16,9 12,9 10,9 6,10 3,11 -1,13 -3,14 -5,16 -6,19 -7,19 -8,19 -9,20 -8,20 -9,19 -9,17 -8,16 -7,15 -6,11 -5,10 -2,5 -1,2 h -117 l -2,2 -3,4 -5,7 -6,10 -8,11 -9,12 -10,13 -11,14 -11,15 -11,14 -12,14 -12,13 -11,12 -11,9 -10,9 -10,6 -9,5 -12,6 -13,8 -14,9 -15,9 -15,9 -16,9 -16,7 -16,7 -15,5 -15,3 h -14 l -13,-2 -11,-6 -10,-9 -7,-13 -7,-15 -9,-14 -9,-12 -10,-11 -11,-10 -10,-10 -11,-9 -11,-8 -10,-7 -10,-7 -8,-7 -8,-6 -7,-6 -4,-7 -3,-6 -1,-7 -1,-7 v -8 -10 l -1,-10 -1,-11 -1,-12 -1,-12 -1,-12 -1,-12 -1,-12 -1,-11 -1,-11 -1,-11 v -9 l -1,-9 v -6 l 1,-9 4,-9 4,-11 7,-12 8,-14 9,-14 10,-13 10,-14 10,-14 9,-13 9,-11 8,-10 7,-9 5,-7 3,-4 2,-1 z"
   id="path126"
   inkscape:connector-curvature="0"
   style="fill:#18964c;stroke:none" />
         <path
   d="m 8698,15008 152,-23 59,164 2,1 7,1 9,2 13,2 15,4 17,5 18,4 19,6 19,7 18,7 16,7 15,9 13,9 10,9 7,10 2,11 -1,12 -3,15 -5,17 -6,18 -7,18 -8,20 -8,20 -9,20 -9,18 -9,18 -8,16 -7,15 -6,11 -4,9 -4,6 v 2 h -118 l -1,1 -3,5 -5,7 -7,9 -7,11 -9,13 -10,13 -11,14 -11,15 -12,14 -11,14 -12,13 -11,11 -11,11 -11,8 -9,6 -10,5 -11,6 -13,9 -14,8 -14,9 -16,9 -16,9 -16,8 -16,6 -15,5 -15,2 -14,1 -13,-3 -11,-5 -10,-10 -7,-13 -7,-15 -9,-13 -9,-12 -10,-12 -11,-10 -11,-9 -10,-9 -11,-8 -10,-7 -10,-7 -9,-7 -7,-6 -7,-6 -4,-7 -4,-6 v -6 l -1,-8 v -8 l -1,-10 v -10 l -1,-11 -1,-12 -1,-12 -1,-12 -2,-12 v -12 l -2,-11 v -11 l -1,-11 -1,-9 v -9 -7 l 1,-7 3,-10 6,-11 6,-13 8,-13 9,-13 10,-15 10,-13 9,-14 10,-13 9,-12 8,-10 7,-8 5,-7 4,-4 1,-1 z"
   id="path128"
   inkscape:connector-curvature="0"
   style="fill:#ffffff;stroke:none" />
         <path
   d="m 10663,13543 50,-31 51,-26 51,-21 51,-17 50,-14 49,-9 49,-5 47,-1 45,3 42,8 41,11 37,16 35,20 31,24 26,28 24,32 17,35 13,38 6,39 2,41 -2,41 -8,43 -13,43 -16,44 -22,43 -25,43 -30,42 -34,42 -37,40 -41,37 -45,36 -48,34 -50,30 -51,26 -51,21 -51,18 -50,13 -50,9 -48,5 -47,1 -45,-3 -43,-8 -40,-11 -37,-16 -35,-20 -31,-24 -27,-28 -22,-32 -18,-35 -13,-38 -7,-39 -2,-40 3,-42 8,-43 12,-43 17,-44 22,-43 25,-43 30,-42 33,-41 38,-40 41,-38 45,-36 z"
   id="path130"
   inkscape:connector-curvature="0"
   style="fill:#ff1a00;stroke:none" />
        </g>
       </g>
      </g>
     </g>
    </g>
   </g>
  </g>
 </g>
</svg>