<?xml version="1.0" encoding="UTF-8" standalone="no"?>
<svg
   xmlns:ooo="http://xml.openoffice.org/svg/export"
   xmlns:dc="http://purl.org/dc/elements/1.1/"
   xmlns:cc="http://creativecommons.org/ns#"
   xmlns:rdf="http://www.w3.org/1999/02/22-rdf-syntax-ns#"
   xmlns:svg="http://www.w3.org/2000/svg"
   xmlns="http://www.w3.org/2000/svg"
   xmlns:sodipodi="http://sodipodi.sourceforge.net/DTD/sodipodi-0.dtd"
   xmlns:inkscape="http://www.inkscape.org/namespaces/inkscape"
   version="1.2"
   width="142.52mm"
   height="47.669998mm"
   viewBox="0 0 14252 4766.9998"
   preserveAspectRatio="xMidYMid"
   xml:space="preserve"
   id="svg115"
   sodipodi:docname="pills.svg"
   style="fill-rule:evenodd;stroke-width:28.22200012;stroke-linejoin:round"
   inkscape:version="0.92.5 (2060ec1f9f, 2020-04-08)"><metadata
   id="metadata119"><rdf:RDF><cc:Work
       rdf:about=""><dc:format>image/svg+xml</dc:format><dc:type
         rdf:resource="http://purl.org/dc/dcmitype/StillImage" /></cc:Work></rdf:RDF></metadata><sodipodi:namedview
   pagecolor="#ffffff"
   bordercolor="#666666"
   borderopacity="1"
   objecttolerance="10"
   gridtolerance="10"
   guidetolerance="10"
   inkscape:pageopacity="0"
   inkscape:pageshadow="2"
   inkscape:window-width="664"
   inkscape:window-height="487"
   id="namedview117"
   showgrid="false"
   inkscape:zoom="0.2102413"
   inkscape:cx="269.32913"
   inkscape:cy="90.06614"
   inkscape:window-x="0"
   inkscape:window-y="0"
   inkscape:window-maximized="0"
   inkscape:current-layer="svg115" />
 <defs
   class="ClipPathGroup"
   id="defs8">
  <clipPath
   id="presentation_clip_path"
   clipPathUnits="userSpaceOnUse">
   <rect
   x="0"
   y="0"
   width="21000"
   height="29700"
   id="rect2" />
  </clipPath>
  <clipPath
   id="presentation_clip_path_shrink"
   clipPathUnits="userSpaceOnUse">
   <rect
   x="21"
   y="29"
   width="20958"
   height="29641"
   id="rect5" />
  </clipPath>
 </defs>
 <defs
   class="TextShapeIndex"
   id="defs12">
  <g
   ooo:slide="id1"
   ooo:id-list="id3"
   id="g10" />
 </defs>
 <defs
   class="EmbeddedBulletChars"
   id="defs44">
  <g
   id="bullet-char-template-57356"
   transform="matrix(4.8828125e-4,0,0,-4.8828125e-4,0,0)">
   <path
   d="M 580,1141 1163,571 580,0 -4,571 Z"
   id="path14"
   inkscape:connector-curvature="0" />
  </g>
  <g
   id="bullet-char-template-57354"
   transform="matrix(4.8828125e-4,0,0,-4.8828125e-4,0,0)">
   <path
   d="M 8,1128 H 1137 V 0 H 8 Z"
   id="path17"
   inkscape:connector-curvature="0" />
  </g>
  <g
   id="bullet-char-template-10146"
   transform="matrix(4.8828125e-4,0,0,-4.8828125e-4,0,0)">
   <path
   d="M 174,0 602,739 174,1481 1456,739 Z M 1358,739 309,1346 659,739 Z"
   id="path20"
   inkscape:connector-curvature="0" />
  </g>
  <g
   id="bullet-char-template-10132"
   transform="matrix(4.8828125e-4,0,0,-4.8828125e-4,0,0)">
   <path
   d="M 2015,739 1276,0 H 717 l 543,543 H 174 v 393 h 1086 l -543,545 h 557 z"
   id="path23"
   inkscape:connector-curvature="0" />
  </g>
  <g
   id="bullet-char-template-10007"
   transform="matrix(4.8828125e-4,0,0,-4.8828125e-4,0,0)">
   <path
   d="m 0,-2 c -7,16 -16,29 -25,39 l 381,530 c -94,256 -141,385 -141,387 0,25 13,38 40,38 9,0 21,-2 34,-5 21,4 42,12 65,25 l 27,-13 111,-251 280,301 64,-25 24,25 c 21,-10 41,-24 62,-43 C 886,937 835,863 770,784 769,783 710,716 594,584 L 774,223 c 0,-27 -21,-55 -63,-84 l 16,-20 C 717,90 699,76 672,76 641,76 570,178 457,381 L 164,-76 c -22,-34 -53,-51 -92,-51 -42,0 -63,17 -64,51 -7,9 -10,24 -10,44 0,9 1,19 2,30 z"
   id="path26"
   inkscape:connector-curvature="0" />
  </g>
  <g
   id="bullet-char-template-10004"
   transform="matrix(4.8828125e-4,0,0,-4.8828125e-4,0,0)">
   <path
   d="M 285,-33 C 182,-33 111,30 74,156 52,228 41,333 41,471 c 0,78 14,145 41,201 34,71 87,106 158,106 53,0 88,-31 106,-94 l 23,-176 c 8,-64 28,-97 59,-98 l 735,706 c 11,11 33,17 66,17 42,0 63,-15 63,-46 V 965 c 0,-36 -10,-64 -30,-84 L 442,47 C 390,-6 338,-33 285,-33 Z"
   id="path29"
   inkscape:connector-curvature="0" />
  </g>
  <g
   id="bullet-char-template-9679"
   transform="matrix(4.8828125e-4,0,0,-4.8828125e-4,0,0)">
   <path
   d="M 813,0 C 632,0 489,54 383,161 276,268 223,411 223,592 c 0,181 53,324 160,431 106,107 249,161 430,161 179,0 323,-54 432,-161 108,-107 162,-251 162,-431 0,-180 -54,-324 -162,-431 C 1136,54 992,0 813,0 Z"
   id="path32"
   inkscape:connector-curvature="0" />
  </g>
  <g
   id="bullet-char-template-8226"
   transform="matrix(4.8828125e-4,0,0,-4.8828125e-4,0,0)">
   <path
   d="m 346,457 c -73,0 -137,26 -191,78 -54,51 -81,114 -81,188 0,73 27,136 81,188 54,52 118,78 191,78 73,0 134,-26 185,-79 51,-51 77,-114 77,-187 0,-75 -25,-137 -76,-188 -50,-52 -112,-78 -186,-78 z"
   id="path35"
   inkscape:connector-curvature="0" />
  </g>
  <g
   id="bullet-char-template-8211"
   transform="matrix(4.8828125e-4,0,0,-4.8828125e-4,0,0)">
   <path
   d="M -4,459 H 1135 V 606 H -4 Z"
   id="path38"
   inkscape:connector-curvature="0" />
  </g>
  <g
   id="bullet-char-template-61548"
   transform="matrix(4.8828125e-4,0,0,-4.8828125e-4,0,0)">
   <path
   d="m 173,740 c 0,163 58,303 173,419 116,115 255,173 419,173 163,0 302,-58 418,-173 116,-116 174,-256 174,-419 0,-163 -58,-303 -174,-418 C 1067,206 928,148 765,148 601,148 462,206 346,322 231,437 173,577 173,740 Z"
   id="path41"
   inkscape:connector-curvature="0" />
  </g>
 </defs>
 <g
   id="g49"
   transform="translate(-3374,-12466)">
  <g
   id="id2"
   class="Master_Slide">
   <g
   id="bg-id2"
   class="Background" />
   <g
   id="bo-id2"
   class="BackgroundObjects" />
  </g>
 </g>
 <g
   class="SlideGroup"
   id="g113"
   transform="translate(-3374,-12466)">
  <g
   id="g111">
   <g
   id="container-id1">
    <g
   id="id1"
   class="Slide"
   clip-path="url(#presentation_clip_path)">
     <g
   class="Page"
   id="g107">
      <g
   class="Graphic"
   id="g105">
       <g
   id="id3">
        <rect
   class="BoundingBox"
   x="3374"
   y="12466"
   width="14252"
   height="4767"
   id="rect51"
   style="fill:none;stroke:none" />
        <defs
   id="defs56">
         <clipPath
   id="clip_path_1"
   clipPathUnits="userSpaceOnUse">
          <path
   d="m 3374,12466 h 14251 v 4766 H 3374 Z"
   id="path53"
   inkscape:connector-curvature="0" />
         </clipPath>
        </defs>
        <g
   clip-path="url(#clip_path_1)"
   id="g102">
         <path
   d="m 5619,13402 -1235,-782 -70,-44 -62,-35 -75,-26 -62,-18 -71,-9 h -97 l -66,9 -70,18 -62,22 -62,35 -57,35 -62,53 -48,49 -45,57 -35,49 -26,61 -27,67 -13,53 -4,57 v 84 l 8,71 18,75 22,61 31,58 40,62 53,53 44,44 53,39 66,45 1301,790 z"
   id="path58"
   inkscape:connector-curvature="0"
   style="fill:#40ff40;stroke:none" />
         <path
   d="m 4931,14390 1240,782 70,44 62,35 75,27 62,17 70,9 h 97 l 66,-9 71,-17 62,-22 62,-36 57,-35 57,-53 49,-49 44,-57 35,-53 27,-62 26,-66 13,-48 5,-58 v -84 l -9,-70 -18,-75 -22,-62 -31,-58 -39,-61 -53,-58 -44,-44 -49,-40 -66,-39 -1306,-790 z"
   id="path60"
   inkscape:connector-curvature="0"
   style="fill:#e0e000;stroke:none" />
         <path
   d="m 14388,13375 1240,-781 70,-44 62,-35 75,-27 62,-18 70,-8 h 97 l 67,8 70,18 62,22 62,35 57,36 57,53 49,48 44,58 35,53 27,57 26,66 14,53 4,58 v 83 l -9,71 -18,75 -22,62 -30,57 -40,62 -53,53 -40,44 -53,40 -66,44 -1306,790 z"
   id="path62"
   inkscape:connector-curvature="0"
   style="fill:#a0a0a0;stroke:none" />
         <path
   d="m 15076,14364 -1235,781 -70,44 -62,36 -75,26 -62,18 -70,9 h -97 l -67,-9 -70,-18 -62,-22 -62,-35 -57,-36 -62,-52 -48,-49 -44,-57 -36,-53 -26,-62 -27,-62 -13,-53 -4,-57 v -84 l 9,-71 17,-75 22,-62 31,-57 40,-62 53,-57 44,-44 53,-40 66,-40 1301,-790 z"
   id="path64"
   inkscape:connector-curvature="0"
   style="fill:#a000a0;stroke:none" />
         <path
   d="m 5893,14532 h -1721 -97 l -75,9 -70,17 -66,22 -62,36 -62,39 -66,53 -49,53 -44,58 -39,48 -27,62 -26,71 -14,61 -4,58 v 88 l 9,75 18,75 22,66 30,62 45,53 52,62 49,44 53,44 71,44 92,44 128,36 h 1853 z"
   id="path66"
   inkscape:connector-curvature="0"
   style="fill:#00a0a0;stroke:none" />
         <path
   d="m 5827,14532 h 1720 97 l 75,9 70,17 67,22 61,36 62,39 66,53 49,53 44,58 40,48 26,62 27,71 13,61 4,58 v 88 l -9,75 -17,75 -22,66 -31,62 -44,53 -53,62 -49,44 -53,44 -70,44 -93,44 -128,36 H 5827 Z"
   id="path68"
   inkscape:connector-curvature="0"
   style="fill:#800080;stroke:none" />
         <path
   d="m 5924,15728 -971,-614 -57,-35 -49,-26 -57,-23 -49,-13 -57,-4 h -75 l -48,4 -53,13 -49,18 -48,27 -45,31 -48,39 -40,40 -35,44 -26,40 -23,48 -17,53 -13,40 v 49 61 l 4,53 13,58 18,48 26,49 31,48 40,45 35,35 40,31 53,35 1019,618 z"
   id="path70"
   inkscape:connector-curvature="0"
   style="fill:#ff8080;stroke:none" />
         <path
   d="m 5385,16505 971,613 57,36 49,26 57,22 49,13 57,5 h 75 l 48,-5 58,-13 48,-18 49,-26 40,-31 48,-40 40,-39 35,-45 26,-39 23,-49 17,-48 13,-40 v -49 -66 l -4,-53 -13,-62 -18,-48 -26,-44 -31,-49 -40,-44 -35,-35 -40,-31 -48,-36 -1024,-617 z"
   id="path72"
   inkscape:connector-curvature="0"
   style="fill:#c06000;stroke:none" />
         <path
   d="m 7128,13397 v 614 l 17,88 36,66 57,67 62,57 88,66 84,49 110,48 110,44 111,36 114,35 115,31 115,26 114,22 120,23 141,22 150,17 145,13 106,5 110,4 124,9 h 273 l 146,-4 141,-9 128,-13 123,-14 111,-13 132,-17 110,-18 119,-27 115,-26 102,-22 110,-35 106,-36 114,-48 97,-44 102,-53 84,-58 79,-75 62,-75 31,-66 13,-80 v -604 z"
   id="path74"
   inkscape:connector-curvature="0"
   style="fill:#804000;stroke:none" />
         <path
   d="m 11468,13395 c 0,128 -100,255 -290,367 -190,111 -464,204 -793,269 -329,64 -702,98 -1082,98 -381,0 -754,-34 -1083,-98 -329,-65 -603,-158 -793,-269 -190,-112 -290,-239 -290,-367 0,-129 100,-256 290,-368 190,-111 464,-204 793,-269 329,-64 702,-98 1083,-98 380,0 753,34 1082,98 329,65 603,158 793,269 190,112 290,239 290,368 z"
   id="path76"
   inkscape:connector-curvature="0"
   style="fill:#a05000;stroke:none" />
         <path
   d="m 9492,12660 -785,1430 181,14 185,8 772,-1434 -190,-13 z"
   id="path78"
   inkscape:connector-curvature="0"
   style="fill:#804000;stroke:none" />
         <path
   d="m 9245,14161 v 613 l 18,84 35,71 53,66 62,58 88,66 84,48 110,49 110,44 111,35 114,36 115,31 115,26 114,22 119,22 142,22 150,18 145,13 106,5 110,4 124,9 h 278 l 141,-5 141,-8 128,-14 123,-13 111,-13 132,-18 110,-18 119,-26 115,-26 101,-23 111,-35 106,-35 114,-49 97,-44 102,-53 84,-57 79,-75 62,-80 31,-66 13,-75 v -605 z"
   id="path80"
   inkscape:connector-curvature="0"
   style="fill:#c0c0c0;stroke:none" />
         <path
   d="m 13580,14156 c 0,128 -100,255 -290,366 -190,111 -463,204 -791,268 -329,64 -702,98 -1082,98 -380,0 -753,-34 -1081,-98 -329,-64 -602,-157 -792,-268 -190,-111 -290,-238 -290,-366 0,-128 100,-255 290,-366 190,-111 463,-204 792,-268 328,-64 701,-98 1081,-98 380,0 753,34 1082,98 328,64 601,157 791,268 190,111 290,238 290,366 z"
   id="path82"
   inkscape:connector-curvature="0"
   style="fill:#e0e0e0;stroke:none" />
         <path
   d="m 11609,13424 -789,1426 181,13 185,9 772,-1431 -190,-13 z"
   id="path84"
   inkscape:connector-curvature="0"
   style="fill:#c0c0c0;stroke:none" />
         <path
   d="m 13136,16121 -1487,432 -75,27 -62,17 -70,9 h -93 l -70,-9 -71,-17 -62,-22 -62,-36 -57,-35 -62,-53 -48,-48 -44,-58 -36,-53 -26,-62 -26,-57 -14,-57 -4,-58 v -84 l 9,-70 17,-75 22,-62 31,-57 40,-62 53,-58 44,-44 53,-35 66,-44 1685,-486 z"
   id="path86"
   inkscape:connector-curvature="0"
   style="fill:#4040ff;stroke:none" />
         <path
   d="m 12734,14973 1487,-432 75,-27 61,-18 71,-8 h 93 l 70,8 71,18 62,22 61,35 58,36 61,53 49,48 44,58 35,53 27,57 26,62 13,57 5,58 v 83 l -9,71 -18,75 -22,62 -31,57 -39,62 -53,57 -44,40 -53,40 -66,44 -1685,486 z"
   id="path88"
   inkscape:connector-curvature="0"
   style="fill:#0000ff;stroke:none" />
         <path
   d="m 13947,15348 v 592 l 13,88 31,66 49,66 48,53 75,62 71,49 93,44 92,44 93,35 97,36 97,26 101,27 93,22 101,22 124,22 123,17 124,14 93,4 92,5 106,8 h 234 l 123,-4 119,-9 111,-13 106,-13 88,-14 110,-17 97,-18 97,-26 102,-27 83,-18 93,-35 93,-35 97,-49 79,-39 88,-53 71,-58 66,-66 53,-75 27,-66 13,-80 v -582 z"
   id="path90"
   inkscape:connector-curvature="0"
   style="fill:#e0e000;stroke:none" />
         <path
   d="m 17621,15346 c 0,125 -85,247 -246,356 -161,108 -392,198 -671,261 -279,62 -595,95 -917,95 -323,0 -639,-33 -918,-95 -279,-63 -510,-153 -671,-261 -161,-109 -246,-231 -246,-356 0,-126 85,-248 246,-357 161,-108 392,-198 671,-261 279,-62 595,-95 918,-95 322,0 638,33 917,95 279,63 510,153 671,261 161,109 246,231 246,357 z"
   id="path92"
   inkscape:connector-curvature="0"
   style="fill:#ffff40;stroke:none" />
         <path
   d="m 15950,14633 -671,1386 155,13 159,9 657,-1395 -163,-13 z"
   id="path94"
   inkscape:connector-curvature="0"
   style="fill:#e0e000;stroke:none" />
         <path
   d="m 7789,15635 v 490 l 9,71 27,48 44,53 44,49 62,53 61,35 80,40 79,35 80,27 83,31 80,22 84,22 83,17 84,18 102,18 110,13 101,9 80,4 79,5 88,8 h 195 l 105,-4 102,-9 93,-9 88,-13 79,-9 97,-13 80,-13 83,-22 84,-22 71,-18 84,-27 75,-30 83,-36 67,-35 75,-44 61,-44 58,-58 44,-66 22,-49 9,-61 v -481 z"
   id="path96"
   inkscape:connector-curvature="0"
   style="fill:#40ff40;stroke:none" />
         <path
   d="m 10912,15633 c 0,102 -72,202 -209,290 -137,88 -334,161 -570,212 -237,51 -506,78 -780,78 -274,0 -543,-27 -779,-78 -237,-51 -434,-124 -571,-212 -137,-88 -209,-188 -209,-290 0,-102 72,-202 209,-290 137,-88 334,-161 571,-212 236,-51 505,-78 779,-78 274,0 543,27 780,78 236,51 433,124 570,212 137,88 209,188 209,290 z"
   id="path98"
   inkscape:connector-curvature="0"
   style="fill:#80ff80;stroke:none" />
         <path
   d="m 9488,15053 -561,1134 128,9 133,4 556,-1134 -137,-13 z"
   id="path100"
   inkscape:connector-curvature="0"
   style="fill:#40ff40;stroke:none" />
        </g>
       </g>
      </g>
     </g>
    </g>
   </g>
  </g>
 </g>
</svg>