<?xml version="1.0" encoding="UTF-8" standalone="no"?>
<svg
   xmlns:ooo="http://xml.openoffice.org/svg/export"
   xmlns:dc="http://purl.org/dc/elements/1.1/"
   xmlns:cc="http://creativecommons.org/ns#"
   xmlns:rdf="http://www.w3.org/1999/02/22-rdf-syntax-ns#"
   xmlns:svg="http://www.w3.org/2000/svg"
   xmlns="http://www.w3.org/2000/svg"
   xmlns:sodipodi="http://sodipodi.sourceforge.net/DTD/sodipodi-0.dtd"
   xmlns:inkscape="http://www.inkscape.org/namespaces/inkscape"
   version="1.2"
   width="77.919998mm"
   height="77.480003mm"
   viewBox="0 0 7791.9998 7748.0003"
   preserveAspectRatio="xMidYMid"
   xml:space="preserve"
   id="svg106"
   sodipodi:docname="pineaple.svg"
   style="fill-rule:evenodd;stroke-width:28.22200012;stroke-linejoin:round"
   inkscape:version="0.92.5 (2060ec1f9f, 2020-04-08)"><metadata
   id="metadata110"><rdf:RDF><cc:Work
       rdf:about=""><dc:format>image/svg+xml</dc:format><dc:type
         rdf:resource="http://purl.org/dc/dcmitype/StillImage" /></cc:Work></rdf:RDF></metadata><sodipodi:namedview
   pagecolor="#ffffff"
   bordercolor="#666666"
   borderopacity="1"
   objecttolerance="10"
   gridtolerance="10"
   guidetolerance="10"
   inkscape:pageopacity="0"
   inkscape:pageshadow="2"
   inkscape:window-width="664"
   inkscape:window-height="487"
   id="namedview108"
   showgrid="false"
   inkscape:zoom="0.2102413"
   inkscape:cx="147.25039"
   inkscape:cy="146.4189"
   inkscape:window-x="0"
   inkscape:window-y="0"
   inkscape:window-maximized="0"
   inkscape:current-layer="svg106" />
 <defs
   class="ClipPathGroup"
   id="defs8">
  <clipPath
   id="presentation_clip_path"
   clipPathUnits="userSpaceOnUse">
   <rect
   x="0"
   y="0"
   width="21000"
   height="29700"
   id="rect2" />
  </clipPath>
  <clipPath
   id="presentation_clip_path_shrink"
   clipPathUnits="userSpaceOnUse">
   <rect
   x="21"
   y="29"
   width="20958"
   height="29641"
   id="rect5" />
  </clipPath>
 </defs>
 <defs
   class="TextShapeIndex"
   id="defs12">
  <g
   ooo:slide="id1"
   ooo:id-list="id3"
   id="g10" />
 </defs>
 <defs
   class="EmbeddedBulletChars"
   id="defs44">
  <g
   id="bullet-char-template-57356"
   transform="matrix(4.8828125e-4,0,0,-4.8828125e-4,0,0)">
   <path
   d="M 580,1141 1163,571 580,0 -4,571 Z"
   id="path14"
   inkscape:connector-curvature="0" />
  </g>
  <g
   id="bullet-char-template-57354"
   transform="matrix(4.8828125e-4,0,0,-4.8828125e-4,0,0)">
   <path
   d="M 8,1128 H 1137 V 0 H 8 Z"
   id="path17"
   inkscape:connector-curvature="0" />
  </g>
  <g
   id="bullet-char-template-10146"
   transform="matrix(4.8828125e-4,0,0,-4.8828125e-4,0,0)">
   <path
   d="M 174,0 602,739 174,1481 1456,739 Z M 1358,739 309,1346 659,739 Z"
   id="path20"
   inkscape:connector-curvature="0" />
  </g>
  <g
   id="bullet-char-template-10132"
   transform="matrix(4.8828125e-4,0,0,-4.8828125e-4,0,0)">
   <path
   d="M 2015,739 1276,0 H 717 l 543,543 H 174 v 393 h 1086 l -543,545 h 557 z"
   id="path23"
   inkscape:connector-curvature="0" />
  </g>
  <g
   id="bullet-char-template-10007"
   transform="matrix(4.8828125e-4,0,0,-4.8828125e-4,0,0)">
   <path
   d="m 0,-2 c -7,16 -16,29 -25,39 l 381,530 c -94,256 -141,385 -141,387 0,25 13,38 40,38 9,0 21,-2 34,-5 21,4 42,12 65,25 l 27,-13 111,-251 280,301 64,-25 24,25 c 21,-10 41,-24 62,-43 C 886,937 835,863 770,784 769,783 710,716 594,584 L 774,223 c 0,-27 -21,-55 -63,-84 l 16,-20 C 717,90 699,76 672,76 641,76 570,178 457,381 L 164,-76 c -22,-34 -53,-51 -92,-51 -42,0 -63,17 -64,51 -7,9 -10,24 -10,44 0,9 1,19 2,30 z"
   id="path26"
   inkscape:connector-curvature="0" />
  </g>
  <g
   id="bullet-char-template-10004"
   transform="matrix(4.8828125e-4,0,0,-4.8828125e-4,0,0)">
   <path
   d="M 285,-33 C 182,-33 111,30 74,156 52,228 41,333 41,471 c 0,78 14,145 41,201 34,71 87,106 158,106 53,0 88,-31 106,-94 l 23,-176 c 8,-64 28,-97 59,-98 l 735,706 c 11,11 33,17 66,17 42,0 63,-15 63,-46 V 965 c 0,-36 -10,-64 -30,-84 L 442,47 C 390,-6 338,-33 285,-33 Z"
   id="path29"
   inkscape:connector-curvature="0" />
  </g>
  <g
   id="bullet-char-template-9679"
   transform="matrix(4.8828125e-4,0,0,-4.8828125e-4,0,0)">
   <path
   d="M 813,0 C 632,0 489,54 383,161 276,268 223,411 223,592 c 0,181 53,324 160,431 106,107 249,161 430,161 179,0 323,-54 432,-161 108,-107 162,-251 162,-431 0,-180 -54,-324 -162,-431 C 1136,54 992,0 813,0 Z"
   id="path32"
   inkscape:connector-curvature="0" />
  </g>
  <g
   id="bullet-char-template-8226"
   transform="matrix(4.8828125e-4,0,0,-4.8828125e-4,0,0)">
   <path
   d="m 346,457 c -73,0 -137,26 -191,78 -54,51 -81,114 -81,188 0,73 27,136 81,188 54,52 118,78 191,78 73,0 134,-26 185,-79 51,-51 77,-114 77,-187 0,-75 -25,-137 -76,-188 -50,-52 -112,-78 -186,-78 z"
   id="path35"
   inkscape:connector-curvature="0" />
  </g>
  <g
   id="bullet-char-template-8211"
   transform="matrix(4.8828125e-4,0,0,-4.8828125e-4,0,0)">
   <path
   d="M -4,459 H 1135 V 606 H -4 Z"
   id="path38"
   inkscape:connector-curvature="0" />
  </g>
  <g
   id="bullet-char-template-61548"
   transform="matrix(4.8828125e-4,0,0,-4.8828125e-4,0,0)">
   <path
   d="m 173,740 c 0,163 58,303 173,419 116,115 255,173 419,173 163,0 302,-58 418,-173 116,-116 174,-256 174,-419 0,-163 -58,-303 -174,-418 C 1067,206 928,148 765,148 601,148 462,206 346,322 231,437 173,577 173,740 Z"
   id="path41"
   inkscape:connector-curvature="0" />
  </g>
 </defs>
 <g
   id="g49"
   transform="translate(-6604,-10976)">
  <g
   id="id2"
   class="Master_Slide">
   <g
   id="bg-id2"
   class="Background" />
   <g
   id="bo-id2"
   class="BackgroundObjects" />
  </g>
 </g>
 <g
   class="SlideGroup"
   id="g104"
   transform="translate(-6604,-10976)">
  <g
   id="g102">
   <g
   id="container-id1">
    <g
   id="id1"
   class="Slide"
   clip-path="url(#presentation_clip_path)">
     <g
   class="Page"
   id="g98">
      <g
   class="Graphic"
   id="g96">
       <g
   id="id3">
        <rect
   class="BoundingBox"
   x="6604"
   y="10976"
   width="7792"
   height="7748"
   id="rect51"
   style="fill:none;stroke:none" />
        <defs
   id="defs56">
         <clipPath
   id="clip_path_1"
   clipPathUnits="userSpaceOnUse">
          <path
   d="m 6604,10976 h 7791 v 7747 H 6604 Z"
   id="path53"
   inkscape:connector-curvature="0" />
         </clipPath>
        </defs>
        <g
   clip-path="url(#clip_path_1)"
   id="g58" />
        <defs
   id="defs63">
         <clipPath
   id="clip_path_2"
   clipPathUnits="userSpaceOnUse">
          <path
   d="m 6604,10985 h 7787 v 7738 H 6604 Z"
   id="path60"
   inkscape:connector-curvature="0" />
         </clipPath>
        </defs>
        <g
   clip-path="url(#clip_path_2)"
   id="g91">
         <path
   d="m 9891,12463 291,-397 181,-177 190,-154 168,-110 185,-115 207,-84 208,-75 286,-71 336,-61 322,-31 313,-22 h 609 238 l -132,582 -49,208 -75,229 -88,225 -93,238 -136,278 -141,261 -305,423 -344,318 -371,212 -582,185 z"
   id="path65"
   inkscape:connector-curvature="0"
   style="fill:#00ff00;stroke:none" />
         <path
   d="m 9891,12463 291,-397 181,-177 190,-154 168,-110 185,-115 207,-84 208,-75 286,-71 336,-61 322,-31 313,-22 h 609 238 l -132,582 -49,208 -75,229 -88,225 -93,238 -136,278 -141,261 -305,423 -344,318 -371,212 -582,185 z"
   id="path67"
   inkscape:connector-curvature="0"
   style="fill:none;stroke:#000000;stroke-width:31;stroke-linecap:round;stroke-linejoin:round" />
         <path
   d="m 8806,15706 -40,326 v 283 l 13,353 27,251 53,234 92,230 133,234 172,255 176,234 194,230 345,366 198,-499 93,-242 79,-278 53,-221 53,-282 27,-225 13,-230 13,-251 132,538 93,207 132,203 186,208 247,220 216,177 371,282 79,-322 79,-304 67,-252 39,-260 53,-269 40,-349 13,-847 z"
   id="path69"
   inkscape:connector-curvature="0"
   style="fill:#00ff00;stroke:none" />
         <path
   d="m 8806,15706 -40,326 v 283 l 13,353 27,251 53,234 92,230 133,234 172,255 176,234 194,230 345,366 198,-499 93,-242 79,-278 53,-221 53,-282 27,-225 13,-230 13,-251 132,538 93,207 132,203 186,208 247,220 216,177 371,282 79,-322 79,-304 67,-252 39,-260 53,-269 40,-349 13,-847 z"
   id="path71"
   inkscape:connector-curvature="0"
   style="fill:none;stroke:#000000;stroke-width:31;stroke-linecap:round;stroke-linejoin:round" />
         <path
   d="m 14403,15231 c 0,336 -88,665 -256,956 -168,291 -409,532 -700,700 -291,168 -620,256 -956,256 -336,0 -665,-88 -956,-256 -291,-168 -532,-409 -700,-700 -168,-291 -256,-620 -256,-956 0,-336 88,-665 256,-956 168,-291 409,-532 700,-700 291,-168 620,-256 956,-256 336,0 665,88 956,256 291,168 532,409 700,700 168,291 256,620 256,956 z"
   id="path73"
   inkscape:connector-curvature="0"
   style="fill:#000000;stroke:none" />
         <path
   d="m 12921,13529 c 0,298 -79,591 -228,850 -149,258 -364,473 -622,622 -259,149 -552,228 -850,228 -299,0 -592,-79 -851,-228 -258,-149 -473,-364 -622,-622 -149,-259 -228,-552 -228,-850 0,-299 79,-592 228,-851 149,-258 364,-473 622,-622 259,-149 552,-228 850,-228 299,0 592,79 851,228 258,149 473,364 622,622 149,259 228,552 228,850 z"
   id="path75"
   inkscape:connector-curvature="0"
   style="fill:#000000;stroke:none" />
         <path
   d="m 11637,15338 c 0,279 -74,554 -214,797 -140,242 -341,443 -583,583 -243,140 -518,214 -797,214 -280,0 -555,-74 -798,-214 -242,-140 -443,-341 -583,-583 -140,-243 -214,-518 -214,-797 0,-280 74,-555 214,-798 140,-242 341,-443 583,-583 243,-140 518,-214 797,-214 280,0 555,74 798,214 242,140 443,341 583,583 140,243 214,518 214,797 z"
   id="path77"
   inkscape:connector-curvature="0"
   style="fill:#000000;stroke:none" />
         <path
   d="m 12709,13528 c 0,261 -69,517 -199,744 -131,226 -319,414 -545,545 -227,130 -483,199 -744,199 -262,0 -518,-69 -745,-199 -226,-131 -414,-319 -545,-545 -130,-227 -199,-483 -199,-744 0,-262 69,-518 199,-745 131,-226 319,-414 545,-545 227,-130 483,-199 744,-199 262,0 518,69 745,199 226,131 414,319 545,545 130,227 199,483 199,744 z"
   id="path79"
   inkscape:connector-curvature="0"
   style="fill:#ffffff;stroke:none" />
         <path
   d="m 11439,15333 c 0,244 -64,484 -186,695 -122,212 -298,387 -509,510 -211,122 -451,186 -694,186 -244,0 -484,-64 -695,-186 -211,-123 -387,-298 -509,-510 -122,-211 -186,-451 -186,-695 0,-245 64,-485 186,-696 122,-212 298,-387 509,-510 211,-122 451,-186 694,-186 244,0 484,64 695,186 211,123 387,298 509,510 122,211 186,451 186,695 z"
   id="path81"
   inkscape:connector-curvature="0"
   style="fill:#ffffff;stroke:none" />
         <path
   d="m 14166,15231 c 0,294 -77,583 -224,837 -147,254 -359,466 -613,613 -254,147 -543,224 -837,224 -294,0 -583,-77 -837,-224 -254,-147 -466,-359 -613,-613 -147,-254 -224,-543 -224,-837 0,-294 77,-583 224,-837 147,-254 359,-466 613,-613 254,-147 543,-224 837,-224 294,0 583,77 837,224 254,147 466,359 613,613 147,254 224,543 224,837 z"
   id="path83"
   inkscape:connector-curvature="0"
   style="fill:#ffffff;stroke:none" />
         <path
   d="m 6595,14643 2422,-3663 265,212 -1231,1589 728,485 -106,106 -728,-450 z"
   id="path85"
   inkscape:connector-curvature="0"
   style="fill:#008000;stroke:none" />
         <path
   d="m 10598,14465 -1151,-1241 -53,47 -51,49 -49,51 -46,53 -44,54 -42,57 -40,58 -36,59 -34,61 -32,63 -29,63 -25,64 -24,66 -20,66 -17,67 z"
   id="path87"
   inkscape:connector-curvature="0"
   style="fill:#008000;stroke:none" />
         <path
   d="m 9455,13814 899,-590 -30,-47 -31,-45 -34,-43 -36,-42 -38,-40 -39,-37 -41,-35 -43,-34 -45,-30 -46,-29 -47,-26 -48,-24 -50,-20 -50,-19 -51,-15 -52,-13 -52,-10 -53,-8 -53,-4 -54,-2 -53,1 -53,4 -53,7 -52,9 -52,12 -52,15 -50,18 -50,20 -49,23 -47,26 -46,27 -45,31 -43,32 -42,35 -40,37 -38,39 -36,41 -35,43 -32,45 -30,46 -27,48 -26,49 -23,51 -20,51 -18,53 -16,54 -13,54 -10,55 -8,55 -5,56 -2,56 1,56 3,56 5,55 9,56 11,54 13,54 17,54 18,52 21,51 24,51 26,48 28,48 31,46 33,44 34,42 37,41 39,38 40,37 42,34 44,32 45,30 47,27 48,25 49,22 50,19 50,17 52,14 52,12 53,9 53,5 53,3 z"
   id="path89"
   inkscape:connector-curvature="0"
   style="fill:#008000;stroke:none" />
        </g>
        <g
   clip-path="url(#clip_path_1)"
   id="g93" />
       </g>
      </g>
     </g>
    </g>
   </g>
  </g>
 </g>
</svg>