<?xml version="1.0" encoding="UTF-8" standalone="no"?>
<svg
   xmlns:ooo="http://xml.openoffice.org/svg/export"
   xmlns:dc="http://purl.org/dc/elements/1.1/"
   xmlns:cc="http://creativecommons.org/ns#"
   xmlns:rdf="http://www.w3.org/1999/02/22-rdf-syntax-ns#"
   xmlns:svg="http://www.w3.org/2000/svg"
   xmlns="http://www.w3.org/2000/svg"
   xmlns:sodipodi="http://sodipodi.sourceforge.net/DTD/sodipodi-0.dtd"
   xmlns:inkscape="http://www.inkscape.org/namespaces/inkscape"
   version="1.2"
   width="122.19mm"
   height="64.779999mm"
   viewBox="0 0 12219 6477.9999"
   preserveAspectRatio="xMidYMid"
   xml:space="preserve"
   id="svg120"
   sodipodi:docname="plug5.svg"
   style="fill-rule:evenodd;stroke-width:28.22200012;stroke-linejoin:round"
   inkscape:version="0.92.5 (2060ec1f9f, 2020-04-08)"><metadata
   id="metadata124"><rdf:RDF><cc:Work
       rdf:about=""><dc:format>image/svg+xml</dc:format><dc:type
         rdf:resource="http://purl.org/dc/dcmitype/StillImage" /></cc:Work></rdf:RDF></metadata><sodipodi:namedview
   pagecolor="#ffffff"
   bordercolor="#666666"
   borderopacity="1"
   objecttolerance="10"
   gridtolerance="10"
   guidetolerance="10"
   inkscape:pageopacity="0"
   inkscape:pageshadow="2"
   inkscape:window-width="664"
   inkscape:window-height="487"
   id="namedview122"
   showgrid="false"
   inkscape:zoom="0.2102413"
   inkscape:cx="230.92913"
   inkscape:cy="122.4189"
   inkscape:window-x="0"
   inkscape:window-y="0"
   inkscape:window-maximized="0"
   inkscape:current-layer="svg120" />
 <defs
   class="ClipPathGroup"
   id="defs8">
  <clipPath
   id="presentation_clip_path"
   clipPathUnits="userSpaceOnUse">
   <rect
   x="0"
   y="0"
   width="21000"
   height="29700"
   id="rect2" />
  </clipPath>
  <clipPath
   id="presentation_clip_path_shrink"
   clipPathUnits="userSpaceOnUse">
   <rect
   x="21"
   y="29"
   width="20958"
   height="29641"
   id="rect5" />
  </clipPath>
 </defs>
 <defs
   class="TextShapeIndex"
   id="defs12">
  <g
   ooo:slide="id1"
   ooo:id-list="id3"
   id="g10" />
 </defs>
 <defs
   class="EmbeddedBulletChars"
   id="defs44">
  <g
   id="bullet-char-template-57356"
   transform="matrix(4.8828125e-4,0,0,-4.8828125e-4,0,0)">
   <path
   d="M 580,1141 1163,571 580,0 -4,571 Z"
   id="path14"
   inkscape:connector-curvature="0" />
  </g>
  <g
   id="bullet-char-template-57354"
   transform="matrix(4.8828125e-4,0,0,-4.8828125e-4,0,0)">
   <path
   d="M 8,1128 H 1137 V 0 H 8 Z"
   id="path17"
   inkscape:connector-curvature="0" />
  </g>
  <g
   id="bullet-char-template-10146"
   transform="matrix(4.8828125e-4,0,0,-4.8828125e-4,0,0)">
   <path
   d="M 174,0 602,739 174,1481 1456,739 Z M 1358,739 309,1346 659,739 Z"
   id="path20"
   inkscape:connector-curvature="0" />
  </g>
  <g
   id="bullet-char-template-10132"
   transform="matrix(4.8828125e-4,0,0,-4.8828125e-4,0,0)">
   <path
   d="M 2015,739 1276,0 H 717 l 543,543 H 174 v 393 h 1086 l -543,545 h 557 z"
   id="path23"
   inkscape:connector-curvature="0" />
  </g>
  <g
   id="bullet-char-template-10007"
   transform="matrix(4.8828125e-4,0,0,-4.8828125e-4,0,0)">
   <path
   d="m 0,-2 c -7,16 -16,29 -25,39 l 381,530 c -94,256 -141,385 -141,387 0,25 13,38 40,38 9,0 21,-2 34,-5 21,4 42,12 65,25 l 27,-13 111,-251 280,301 64,-25 24,25 c 21,-10 41,-24 62,-43 C 886,937 835,863 770,784 769,783 710,716 594,584 L 774,223 c 0,-27 -21,-55 -63,-84 l 16,-20 C 717,90 699,76 672,76 641,76 570,178 457,381 L 164,-76 c -22,-34 -53,-51 -92,-51 -42,0 -63,17 -64,51 -7,9 -10,24 -10,44 0,9 1,19 2,30 z"
   id="path26"
   inkscape:connector-curvature="0" />
  </g>
  <g
   id="bullet-char-template-10004"
   transform="matrix(4.8828125e-4,0,0,-4.8828125e-4,0,0)">
   <path
   d="M 285,-33 C 182,-33 111,30 74,156 52,228 41,333 41,471 c 0,78 14,145 41,201 34,71 87,106 158,106 53,0 88,-31 106,-94 l 23,-176 c 8,-64 28,-97 59,-98 l 735,706 c 11,11 33,17 66,17 42,0 63,-15 63,-46 V 965 c 0,-36 -10,-64 -30,-84 L 442,47 C 390,-6 338,-33 285,-33 Z"
   id="path29"
   inkscape:connector-curvature="0" />
  </g>
  <g
   id="bullet-char-template-9679"
   transform="matrix(4.8828125e-4,0,0,-4.8828125e-4,0,0)">
   <path
   d="M 813,0 C 632,0 489,54 383,161 276,268 223,411 223,592 c 0,181 53,324 160,431 106,107 249,161 430,161 179,0 323,-54 432,-161 108,-107 162,-251 162,-431 0,-180 -54,-324 -162,-431 C 1136,54 992,0 813,0 Z"
   id="path32"
   inkscape:connector-curvature="0" />
  </g>
  <g
   id="bullet-char-template-8226"
   transform="matrix(4.8828125e-4,0,0,-4.8828125e-4,0,0)">
   <path
   d="m 346,457 c -73,0 -137,26 -191,78 -54,51 -81,114 -81,188 0,73 27,136 81,188 54,52 118,78 191,78 73,0 134,-26 185,-79 51,-51 77,-114 77,-187 0,-75 -25,-137 -76,-188 -50,-52 -112,-78 -186,-78 z"
   id="path35"
   inkscape:connector-curvature="0" />
  </g>
  <g
   id="bullet-char-template-8211"
   transform="matrix(4.8828125e-4,0,0,-4.8828125e-4,0,0)">
   <path
   d="M -4,459 H 1135 V 606 H -4 Z"
   id="path38"
   inkscape:connector-curvature="0" />
  </g>
  <g
   id="bullet-char-template-61548"
   transform="matrix(4.8828125e-4,0,0,-4.8828125e-4,0,0)">
   <path
   d="m 173,740 c 0,163 58,303 173,419 116,115 255,173 419,173 163,0 302,-58 418,-173 116,-116 174,-256 174,-419 0,-163 -58,-303 -174,-418 C 1067,206 928,148 765,148 601,148 462,206 346,322 231,437 173,577 173,740 Z"
   id="path41"
   inkscape:connector-curvature="0" />
  </g>
 </defs>
 <g
   id="g49"
   transform="translate(-4390,-11611)">
  <g
   id="id2"
   class="Master_Slide">
   <g
   id="bg-id2"
   class="Background" />
   <g
   id="bo-id2"
   class="BackgroundObjects" />
  </g>
 </g>
 <g
   class="SlideGroup"
   id="g118"
   transform="translate(-4390,-11611)">
  <g
   id="g116">
   <g
   id="container-id1">
    <g
   id="id1"
   class="Slide"
   clip-path="url(#presentation_clip_path)">
     <g
   class="Page"
   id="g112">
      <g
   class="Graphic"
   id="g110">
       <g
   id="id3">
        <rect
   class="BoundingBox"
   x="4390"
   y="11611"
   width="12219"
   height="6478"
   id="rect51"
   style="fill:none;stroke:none" />
        <path
   d="m 10085,14378 -4800,-2101 -66,-79 -31,-146 9,-128 62,-106 75,-88 137,-62 159,-17 145,31 5920,2577 z"
   id="path53"
   inkscape:connector-curvature="0"
   style="fill:#606060;stroke:none" />
        <path
   d="m 10085,14378 -4800,-2101 -66,-79 -31,-146 9,-128 62,-106 75,-88 137,-62 159,-17 145,31 5920,2577 z"
   id="path55"
   inkscape:connector-curvature="0"
   style="fill:none;stroke:#000000;stroke-width:35;stroke-linecap:round;stroke-linejoin:round" />
        <path
   d="m 9322,14554 -4800,-2096 -66,-79 -31,-146 9,-128 62,-106 75,-88 137,-62 158,-17 146,31 5924,2572 z"
   id="path57"
   inkscape:connector-curvature="0"
   style="fill:#606060;stroke:none" />
        <path
   d="m 9322,14554 -4800,-2096 -66,-79 -31,-146 9,-128 62,-106 75,-88 137,-62 158,-17 146,31 5924,2572 z"
   id="path59"
   inkscape:connector-curvature="0"
   style="fill:none;stroke:#000000;stroke-width:35;stroke-linecap:round;stroke-linejoin:round" />
        <path
   d="m 7615,13328 4874,-658 150,-4 128,8 119,27 128,44 2620,1037 128,66 137,93 150,119 88,97 75,97 75,106 66,119 71,168 57,216 31,194 4,203 v 172 l -17,137 -31,141 -58,181 -70,173 -181,211 -216,142 -247,119 -415,136 -5134,1108 -261,22 -141,-17 -128,-18 -123,-44 -111,-53 -158,-84 -172,-110 -181,-128 -1994,-1461 -119,-124 -97,-158 -49,-195 -44,-220 -31,-216 -9,-195 14,-198 31,-199 57,-225 88,-190 93,-150 128,-136 123,-102 141,-93 190,-92 z"
   id="path61"
   inkscape:connector-curvature="0"
   style="fill:#a0a0a0;stroke:none" />
        <path
   d="m 7615,13328 4874,-658 150,-4 128,8 119,27 128,44 2620,1037 128,66 137,93 150,119 88,97 75,97 75,106 66,119 71,168 57,216 31,194 4,203 v 172 l -17,137 -31,141 -58,181 -70,173 -181,211 -216,142 -247,119 -415,136 -5134,1108 -261,22 -141,-17 -128,-18 -123,-44 -111,-53 -158,-84 -172,-110 -181,-128 -1994,-1461 -119,-124 -97,-158 -49,-195 -44,-220 -31,-216 -9,-195 14,-198 31,-199 57,-225 88,-190 93,-150 128,-136 123,-102 141,-93 190,-92 z"
   id="path63"
   inkscape:connector-curvature="0"
   style="fill:none;stroke:#000000;stroke-width:35;stroke-linecap:round;stroke-linejoin:round" />
        <path
   d="m 10111,14762 4782,-870 216,-13 190,5 198,39 168,53 163,80 137,92 128,124 101,137 84,141 62,123 26,93 40,141 40,181 17,155 5,132 -18,150 -22,141 -35,195 -71,238 -101,282 -516,371 273,-146 -551,217 -4826,970 -172,18 -172,4 -141,-4 -155,-18 -172,-39 -150,-67 -128,-79 -101,-66 -97,-75 -97,-84 -71,-84 -84,-115 -61,-132 -40,-115 -35,-119 -36,-203 -17,-168 4,-242 27,-221 39,-225 84,-251 80,-155 110,-141 137,-124 150,-106 154,-75 221,-79 z"
   id="path65"
   inkscape:connector-curvature="0"
   style="fill:#c0c0c0;stroke:none" />
        <path
   d="m 10111,14762 4782,-870 216,-13 190,5 198,39 168,53 163,80 137,92 128,124 101,137 84,141 62,123 26,93 40,141 40,181 17,155 5,132 -18,150 -22,141 -35,195 -71,238 -101,282 -516,371 273,-146 -551,217 -4826,970 -172,18 -172,4 -141,-4 -155,-18 -172,-39 -150,-67 -128,-79 -101,-66 -97,-75 -97,-84 -71,-84 -84,-115 -61,-132 -40,-115 -35,-119 -36,-203 -17,-168 4,-242 27,-221 39,-225 84,-251 80,-155 110,-141 137,-124 150,-106 154,-75 221,-79 z"
   id="path67"
   inkscape:connector-curvature="0"
   style="fill:none;stroke:#000000;stroke-width:35;stroke-linecap:round;stroke-linejoin:round" />
        <path
   d="m 10601,15287 v 1800 l 1791,914 132,-274 v -1452 l -154,-260 z"
   id="path69"
   inkscape:connector-curvature="0"
   style="fill:#a0a0a0;stroke:none" />
        <path
   d="m 10601,15287 v 1800 l 1791,914 132,-274 v -1452 l -154,-260 z"
   id="path71"
   inkscape:connector-curvature="0"
   style="fill:none;stroke:#000000;stroke-width:35;stroke-linecap:round;stroke-linejoin:round" />
        <path
   d="m 10601,15269 428,-79 1786,723 -467,102 z"
   id="path73"
   inkscape:connector-curvature="0"
   style="fill:#a0a0a0;stroke:none" />
        <path
   d="m 10601,15269 428,-79 1786,723 -467,102 z"
   id="path75"
   inkscape:connector-curvature="0"
   style="fill:none;stroke:#000000;stroke-width:35;stroke-linecap:round;stroke-linejoin:round" />
        <path
   d="m 12357,16006 436,-97 172,269 v 1448 l -132,260 -432,97 110,-269 4,-1439 z"
   id="path77"
   inkscape:connector-curvature="0"
   style="fill:#c0c0c0;stroke:none" />
        <path
   d="m 12357,16006 436,-97 172,269 v 1448 l -132,260 -432,97 110,-269 4,-1439 z"
   id="path79"
   inkscape:connector-curvature="0"
   style="fill:none;stroke:#000000;stroke-width:35;stroke-linecap:round;stroke-linejoin:round" />
        <path
   d="m 12321,16847 c 0,101 -15,200 -44,287 -29,88 -71,160 -121,211 -50,50 -107,77 -165,77 -59,0 -116,-27 -166,-77 -50,-51 -92,-123 -121,-211 -29,-87 -44,-186 -44,-287 0,-102 15,-201 44,-288 29,-88 71,-160 121,-211 50,-50 107,-77 166,-77 58,0 115,27 165,77 50,51 92,123 121,211 29,87 44,186 44,288 z"
   id="path81"
   inkscape:connector-curvature="0"
   style="fill:#606060;stroke:none" />
        <path
   d="m 12317,16845 v -29 l -2,-29 -2,-29 -3,-29 -4,-28 -4,-28 -6,-27 -6,-27 -7,-27 -8,-26 -8,-25 -9,-24 -10,-23 -11,-23 -11,-21 -12,-21 -12,-20 -13,-18 -14,-17 -14,-16 -14,-15 -15,-13 -15,-12 -16,-11 -16,-10 -16,-8 -16,-6 -17,-5 -17,-4 -16,-2 -17,-1 v 0 l -17,1 -16,2 -17,4 -17,5 -16,6 -16,8 -16,10 -16,11 -15,12 -15,13 -14,15 -14,16 -14,17 -13,18 -12,20 -12,21 -11,21 -11,23 -10,23 -9,24 -8,25 -8,26 -7,27 -6,27 -6,27 -4,28 -4,28 -3,29 -2,29 -2,29 v 29 0 29 l 2,29 2,29 3,29 4,28 4,28 6,27 6,27 7,27 8,26 8,25 9,24 10,23 11,23 11,21 12,21 12,20 13,18 14,17 14,16 14,15 15,13 15,12 16,11 16,10 16,8 16,6 17,5 17,4 16,2 17,1 v 0 l 17,-1 16,-2 17,-4 17,-5 16,-6 16,-8 16,-10 16,-11 15,-12 15,-13 14,-15 14,-16 14,-17 13,-18 12,-20 12,-21 11,-21 11,-23 10,-23 9,-24 8,-25 8,-26 7,-27 6,-27 6,-27 4,-28 4,-28 3,-29 2,-29 2,-29 z"
   id="path83"
   inkscape:connector-curvature="0"
   style="fill:none;stroke:#000000;stroke-width:71;stroke-linecap:round;stroke-linejoin:round" />
        <path
   d="m 12320,16853 c 0,60 -4,119 -12,171 -8,52 -19,96 -33,126 -14,30 -29,46 -45,46 -16,0 -31,-16 -45,-46 -14,-30 -25,-74 -33,-126 -8,-52 -12,-111 -12,-171 0,-61 4,-120 12,-172 8,-52 19,-96 33,-126 14,-30 29,-46 45,-46 16,0 31,16 45,46 14,30 25,74 33,126 8,52 12,111 12,172 z"
   id="path85"
   inkscape:connector-curvature="0"
   style="fill:#c0c0c0;stroke:none" />
        <path
   d="m 12317,16849 v -17 -18 l -1,-17 -1,-17 -1,-17 -1,-17 -1,-16 -2,-17 -2,-15 -2,-16 -2,-15 -3,-15 -2,-14 -3,-13 -3,-13 -3,-12 -4,-12 -3,-11 -4,-10 -3,-10 -4,-9 -4,-8 -4,-7 -4,-7 -5,-5 -4,-5 -4,-4 -5,-3 -4,-2 -5,-2 h -4 v 0 h -4 l -5,2 -4,2 -5,3 -4,4 -4,5 -5,5 -4,7 -4,7 -4,8 -4,9 -3,10 -4,10 -3,11 -4,12 -3,12 -3,13 -3,13 -2,14 -3,15 -2,15 -2,16 -2,15 -2,17 -1,16 -1,17 -1,17 -1,17 -1,17 v 18 17 0 17 18 l 1,17 1,17 1,17 1,17 1,16 2,17 2,15 2,16 2,15 3,15 2,14 3,13 3,13 3,12 4,12 3,11 4,10 3,10 4,9 4,8 4,7 4,7 5,5 4,5 4,4 5,3 4,2 5,2 h 4 v 0 h 4 l 5,-2 4,-2 5,-3 4,-4 4,-5 5,-5 4,-7 4,-7 4,-8 4,-9 3,-10 4,-10 3,-11 4,-12 3,-12 3,-13 3,-13 2,-14 3,-15 2,-15 2,-16 2,-15 2,-17 1,-16 1,-17 1,-17 1,-17 1,-17 v -18 z"
   id="path87"
   inkscape:connector-curvature="0"
   style="fill:none;stroke:#000000;stroke-width:35;stroke-linecap:round;stroke-linejoin:round" />
        <path
   d="m 13923,14700 v 1730 l 1786,878 132,-265 v -1394 l -154,-247 z"
   id="path89"
   inkscape:connector-curvature="0"
   style="fill:#a0a0a0;stroke:none" />
        <path
   d="m 13923,14700 v 1730 l 1786,878 132,-265 v -1394 l -154,-247 z"
   id="path91"
   inkscape:connector-curvature="0"
   style="fill:none;stroke:#000000;stroke-width:35;stroke-linecap:round;stroke-linejoin:round" />
        <path
   d="m 13914,14687 445,-89 1778,702 -476,102 z"
   id="path93"
   inkscape:connector-curvature="0"
   style="fill:#a0a0a0;stroke:none" />
        <path
   d="m 13914,14687 445,-89 1778,702 -476,102 z"
   id="path95"
   inkscape:connector-curvature="0"
   style="fill:none;stroke:#000000;stroke-width:35;stroke-linecap:round;stroke-linejoin:round" />
        <path
   d="m 15683,15388 454,-92 159,256 v 1394 l -137,252 -441,106 137,-270 -5,-1390 z"
   id="path97"
   inkscape:connector-curvature="0"
   style="fill:#c0c0c0;stroke:none" />
        <path
   d="m 15683,15388 454,-92 159,256 v 1394 l -137,252 -441,106 137,-270 -5,-1390 z"
   id="path99"
   inkscape:connector-curvature="0"
   style="fill:none;stroke:#000000;stroke-width:35;stroke-linecap:round;stroke-linejoin:round" />
        <path
   d="m 15638,16200 c 0,97 -15,192 -44,276 -28,83 -69,153 -119,201 -50,49 -106,74 -163,74 -57,0 -113,-25 -163,-74 -50,-48 -91,-118 -119,-201 -29,-84 -44,-179 -44,-276 0,-97 15,-192 44,-275 28,-84 69,-154 119,-202 50,-49 106,-74 163,-74 57,0 113,25 163,74 50,48 91,118 119,202 29,83 44,178 44,275 z"
   id="path101"
   inkscape:connector-curvature="0"
   style="fill:#606060;stroke:none" />
        <path
   d="m 15634,16196 v -28 l -2,-28 -2,-28 -3,-27 -3,-27 -5,-27 -5,-27 -6,-26 -7,-25 -8,-25 -8,-24 -9,-23 -10,-23 -11,-22 -11,-20 -11,-20 -13,-19 -12,-18 -14,-16 -14,-15 -14,-15 -14,-13 -15,-11 -16,-11 -15,-9 -16,-7 -16,-7 -17,-5 -16,-3 -16,-2 -17,-1 v 0 l -17,1 -16,2 -16,3 -17,5 -16,7 -16,7 -15,9 -16,11 -15,11 -14,13 -14,15 -14,15 -14,16 -12,18 -13,19 -11,20 -11,20 -11,22 -10,23 -9,23 -8,24 -8,25 -7,25 -6,26 -5,27 -5,27 -3,27 -3,27 -2,28 -2,28 v 28 0 28 l 2,28 2,28 3,27 3,27 5,27 5,27 6,26 7,25 8,25 8,24 9,23 10,23 11,22 11,20 11,20 13,19 12,18 14,16 14,15 14,15 14,13 15,11 16,11 15,9 16,7 16,7 17,5 16,3 16,2 17,1 v 0 l 17,-1 16,-2 16,-3 17,-5 16,-7 16,-7 15,-9 16,-11 15,-11 14,-13 14,-15 14,-15 14,-16 12,-18 13,-19 11,-20 11,-20 11,-22 10,-23 9,-23 8,-24 8,-25 7,-25 6,-26 5,-27 5,-27 3,-27 3,-27 2,-28 2,-28 z"
   id="path103"
   inkscape:connector-curvature="0"
   style="fill:none;stroke:#000000;stroke-width:71;stroke-linecap:round;stroke-linejoin:round" />
        <path
   d="m 15642,16209 c 0,58 -4,115 -12,165 -7,50 -18,92 -32,121 -13,29 -28,44 -44,44 -15,0 -30,-15 -43,-44 -14,-29 -25,-71 -32,-121 -8,-50 -12,-107 -12,-165 0,-59 4,-116 12,-166 7,-50 18,-92 32,-121 13,-29 28,-44 43,-44 16,0 31,15 44,44 14,29 25,71 32,121 8,50 12,107 12,166 z"
   id="path105"
   inkscape:connector-curvature="0"
   style="fill:#c0c0c0;stroke:none" />
        <path
   d="m 15638,16205 v -17 -16 l -1,-17 -1,-17 -1,-16 -1,-16 -1,-16 -2,-16 -2,-15 -2,-15 -2,-14 -3,-14 -2,-14 -3,-13 -3,-12 -3,-12 -4,-11 -3,-11 -4,-10 -3,-9 -4,-8 -4,-8 -4,-7 -4,-6 -5,-6 -4,-4 -4,-4 -5,-3 -4,-2 -5,-2 h -4 v 0 h -4 l -5,2 -4,2 -5,3 -4,4 -4,4 -5,6 -4,6 -4,7 -4,8 -4,8 -3,9 -4,10 -3,11 -4,11 -3,12 -3,12 -3,13 -2,14 -3,14 -2,14 -2,15 -2,15 -2,16 -1,16 -1,16 -1,16 -1,17 -1,17 v 16 17 0 17 16 l 1,17 1,17 1,16 1,16 1,16 2,16 2,15 2,15 2,14 3,14 2,14 3,13 3,12 3,12 4,11 3,11 4,10 3,9 4,8 4,8 4,7 4,6 5,6 4,4 4,4 5,3 4,2 5,2 h 4 v 0 h 4 l 5,-2 4,-2 5,-3 4,-4 4,-4 5,-6 4,-6 4,-7 4,-8 4,-8 3,-9 4,-10 3,-11 4,-11 3,-12 3,-12 3,-13 2,-14 3,-14 2,-14 2,-15 2,-15 2,-16 1,-16 1,-16 1,-16 1,-17 1,-17 v -16 z"
   id="path107"
   inkscape:connector-curvature="0"
   style="fill:none;stroke:#000000;stroke-width:35;stroke-linecap:round;stroke-linejoin:round" />
       </g>
      </g>
     </g>
    </g>
   </g>
  </g>
 </g>
</svg>