<?xml version="1.0" encoding="UTF-8" standalone="no"?>
<svg
   xmlns:ooo="http://xml.openoffice.org/svg/export"
   xmlns:dc="http://purl.org/dc/elements/1.1/"
   xmlns:cc="http://creativecommons.org/ns#"
   xmlns:rdf="http://www.w3.org/1999/02/22-rdf-syntax-ns#"
   xmlns:svg="http://www.w3.org/2000/svg"
   xmlns="http://www.w3.org/2000/svg"
   xmlns:sodipodi="http://sodipodi.sourceforge.net/DTD/sodipodi-0.dtd"
   xmlns:inkscape="http://www.inkscape.org/namespaces/inkscape"
   version="1.2"
   width="185.25mm"
   height="103.98mm"
   viewBox="0 0 18525 10398"
   preserveAspectRatio="xMidYMid"
   xml:space="preserve"
   id="svg277"
   sodipodi:docname="pntout1.svg"
   style="fill-rule:evenodd;stroke-width:28.22200012;stroke-linejoin:round"
   inkscape:version="0.92.5 (2060ec1f9f, 2020-04-08)"><metadata
   id="metadata281"><rdf:RDF><cc:Work
       rdf:about=""><dc:format>image/svg+xml</dc:format><dc:type
         rdf:resource="http://purl.org/dc/dcmitype/StillImage" /></cc:Work></rdf:RDF></metadata><sodipodi:namedview
   pagecolor="#ffffff"
   bordercolor="#666666"
   borderopacity="1"
   objecttolerance="10"
   gridtolerance="10"
   guidetolerance="10"
   inkscape:pageopacity="0"
   inkscape:pageshadow="2"
   inkscape:window-width="664"
   inkscape:window-height="487"
   id="namedview279"
   showgrid="false"
   inkscape:zoom="0.2102413"
   inkscape:cx="350.09764"
   inkscape:cy="196.49764"
   inkscape:window-x="0"
   inkscape:window-y="0"
   inkscape:window-maximized="0"
   inkscape:current-layer="svg277" />
 <defs
   class="ClipPathGroup"
   id="defs8">
  <clipPath
   id="presentation_clip_path"
   clipPathUnits="userSpaceOnUse">
   <rect
   x="0"
   y="0"
   width="21000"
   height="29700"
   id="rect2" />
  </clipPath>
  <clipPath
   id="presentation_clip_path_shrink"
   clipPathUnits="userSpaceOnUse">
   <rect
   x="21"
   y="29"
   width="20958"
   height="29641"
   id="rect5" />
  </clipPath>
 </defs>
 <defs
   class="TextShapeIndex"
   id="defs12">
  <g
   ooo:slide="id1"
   ooo:id-list="id3"
   id="g10" />
 </defs>
 <defs
   class="EmbeddedBulletChars"
   id="defs44">
  <g
   id="bullet-char-template-57356"
   transform="matrix(4.8828125e-4,0,0,-4.8828125e-4,0,0)">
   <path
   d="M 580,1141 1163,571 580,0 -4,571 Z"
   id="path14"
   inkscape:connector-curvature="0" />
  </g>
  <g
   id="bullet-char-template-57354"
   transform="matrix(4.8828125e-4,0,0,-4.8828125e-4,0,0)">
   <path
   d="M 8,1128 H 1137 V 0 H 8 Z"
   id="path17"
   inkscape:connector-curvature="0" />
  </g>
  <g
   id="bullet-char-template-10146"
   transform="matrix(4.8828125e-4,0,0,-4.8828125e-4,0,0)">
   <path
   d="M 174,0 602,739 174,1481 1456,739 Z M 1358,739 309,1346 659,739 Z"
   id="path20"
   inkscape:connector-curvature="0" />
  </g>
  <g
   id="bullet-char-template-10132"
   transform="matrix(4.8828125e-4,0,0,-4.8828125e-4,0,0)">
   <path
   d="M 2015,739 1276,0 H 717 l 543,543 H 174 v 393 h 1086 l -543,545 h 557 z"
   id="path23"
   inkscape:connector-curvature="0" />
  </g>
  <g
   id="bullet-char-template-10007"
   transform="matrix(4.8828125e-4,0,0,-4.8828125e-4,0,0)">
   <path
   d="m 0,-2 c -7,16 -16,29 -25,39 l 381,530 c -94,256 -141,385 -141,387 0,25 13,38 40,38 9,0 21,-2 34,-5 21,4 42,12 65,25 l 27,-13 111,-251 280,301 64,-25 24,25 c 21,-10 41,-24 62,-43 C 886,937 835,863 770,784 769,783 710,716 594,584 L 774,223 c 0,-27 -21,-55 -63,-84 l 16,-20 C 717,90 699,76 672,76 641,76 570,178 457,381 L 164,-76 c -22,-34 -53,-51 -92,-51 -42,0 -63,17 -64,51 -7,9 -10,24 -10,44 0,9 1,19 2,30 z"
   id="path26"
   inkscape:connector-curvature="0" />
  </g>
  <g
   id="bullet-char-template-10004"
   transform="matrix(4.8828125e-4,0,0,-4.8828125e-4,0,0)">
   <path
   d="M 285,-33 C 182,-33 111,30 74,156 52,228 41,333 41,471 c 0,78 14,145 41,201 34,71 87,106 158,106 53,0 88,-31 106,-94 l 23,-176 c 8,-64 28,-97 59,-98 l 735,706 c 11,11 33,17 66,17 42,0 63,-15 63,-46 V 965 c 0,-36 -10,-64 -30,-84 L 442,47 C 390,-6 338,-33 285,-33 Z"
   id="path29"
   inkscape:connector-curvature="0" />
  </g>
  <g
   id="bullet-char-template-9679"
   transform="matrix(4.8828125e-4,0,0,-4.8828125e-4,0,0)">
   <path
   d="M 813,0 C 632,0 489,54 383,161 276,268 223,411 223,592 c 0,181 53,324 160,431 106,107 249,161 430,161 179,0 323,-54 432,-161 108,-107 162,-251 162,-431 0,-180 -54,-324 -162,-431 C 1136,54 992,0 813,0 Z"
   id="path32"
   inkscape:connector-curvature="0" />
  </g>
  <g
   id="bullet-char-template-8226"
   transform="matrix(4.8828125e-4,0,0,-4.8828125e-4,0,0)">
   <path
   d="m 346,457 c -73,0 -137,26 -191,78 -54,51 -81,114 -81,188 0,73 27,136 81,188 54,52 118,78 191,78 73,0 134,-26 185,-79 51,-51 77,-114 77,-187 0,-75 -25,-137 -76,-188 -50,-52 -112,-78 -186,-78 z"
   id="path35"
   inkscape:connector-curvature="0" />
  </g>
  <g
   id="bullet-char-template-8211"
   transform="matrix(4.8828125e-4,0,0,-4.8828125e-4,0,0)">
   <path
   d="M -4,459 H 1135 V 606 H -4 Z"
   id="path38"
   inkscape:connector-curvature="0" />
  </g>
  <g
   id="bullet-char-template-61548"
   transform="matrix(4.8828125e-4,0,0,-4.8828125e-4,0,0)">
   <path
   d="m 173,740 c 0,163 58,303 173,419 116,115 255,173 419,173 163,0 302,-58 418,-173 116,-116 174,-256 174,-419 0,-163 -58,-303 -174,-418 C 1067,206 928,148 765,148 601,148 462,206 346,322 231,437 173,577 173,740 Z"
   id="path41"
   inkscape:connector-curvature="0" />
  </g>
 </defs>
 <g
   id="g49"
   transform="translate(-1237,-9651)">
  <g
   id="id2"
   class="Master_Slide">
   <g
   id="bg-id2"
   class="Background" />
   <g
   id="bo-id2"
   class="BackgroundObjects" />
  </g>
 </g>
 <g
   class="SlideGroup"
   id="g275"
   transform="translate(-1237,-9651)">
  <g
   id="g273">
   <g
   id="container-id1">
    <g
   id="id1"
   class="Slide"
   clip-path="url(#presentation_clip_path)">
     <g
   class="Page"
   id="g269">
      <g
   class="Graphic"
   id="g267">
       <g
   id="id3">
        <rect
   class="BoundingBox"
   x="1237"
   y="9651"
   width="18525"
   height="10398"
   id="rect51"
   style="fill:none;stroke:none" />
        <defs
   id="defs56">
         <clipPath
   id="clip_path_1"
   clipPathUnits="userSpaceOnUse">
          <path
   d="M 1255,9651 H 19744 V 20030 H 1255 Z"
   id="path53"
   inkscape:connector-curvature="0" />
         </clipPath>
        </defs>
        <g
   clip-path="url(#clip_path_1)"
   id="g264">
         <path
   d="m 3284,18593 h 16024 l 436,1346 H 2340 Z"
   id="path58"
   inkscape:connector-curvature="0"
   style="fill:#5f3f1f;stroke:none" />
         <path
   d="m 13494,19374 186,-40 145,-53 150,-48 216,-27 243,-48 190,-84 172,-84 304,-203 291,-194 h -1897 z"
   id="path60"
   inkscape:connector-curvature="0"
   style="fill:#3f1f00;stroke:none" />
         <path
   d="m 11624,19114 274,-27 220,-84 221,-163 189,-247 h -904 z"
   id="path62"
   inkscape:connector-curvature="0"
   style="fill:#3f1f00;stroke:none" />
         <path
   d="m 11708,13118 -66,53 -35,49 -31,62 -31,48 -13,66 13,67 13,35 132,62 89,-18 61,-40 137,-114 -48,-340 z"
   id="path64"
   inkscape:connector-curvature="0"
   style="fill:#000000;stroke:none" />
         <path
   d="m 11902,13449 -66,-441 -31,-234 v -53 l -48,-119 -31,-114 v -84 l -75,-110 -14,-67 v -26 l -30,-27 -49,-88 v -123 l 75,-168 62,-141 v -234 l 48,-40 93,-8 137,35 61,39 31,71 -35,62 -62,-22 88,35 23,62 13,62 -110,-9 97,13 61,62 5,70 -5,18 -44,22 -53,-4 102,13 61,53 9,84 -70,53 -66,13 97,-13 79,44 40,88 22,119 -5,150 -31,110 -13,124 9,234 -53,154 -212,216 z"
   id="path66"
   inkscape:connector-curvature="0"
   style="fill:#ffbfbf;stroke:none" />
         <path
   d="m 11805,11398 v 57 l -31,40 -17,35 h 17 31 l 27,53 13,71 -27,66 -48,26 -9,71 -35,53 -80,71 186,-137 -14,40 -13,83 -48,89 -75,70 123,-97 40,22 35,66 v 71 l -48,48 48,45 18,53 -18,30 4,106 45,62 101,49 115,35 88,-40 v -1129 z"
   id="path68"
   inkscape:connector-curvature="0"
   style="fill:#ff7f7f;stroke:none" />
         <path
   d="m 11682,13021 88,84 79,27 h 119 l 115,-40 57,-35 62,-53 49,-62 26,-49 v 137 l -71,88 -79,98 -110,123 -110,88 -62,62 -58,22 z"
   id="path70"
   inkscape:connector-curvature="0"
   style="fill:#dfdfff;stroke:none" />
         <path
   d="m 11664,13008 35,-101 71,-75 39,-36 36,212 4,119 -66,-17 -71,-44 z"
   id="path72"
   inkscape:connector-curvature="0"
   style="fill:#808080;stroke:none" />
         <path
   d="m 13212,17654 -13,644 -18,300 h 3035 l 57,-371 v -371 l -40,-551 -17,-468 h -3004 z"
   id="path74"
   inkscape:connector-curvature="0"
   style="fill:#000080;stroke:none" />
         <path
   d="m 13212,17654 -13,644 -18,300 h 3035 l 57,-371 v -371 l -40,-551 -17,-468 h -3004 z"
   id="path76"
   inkscape:connector-curvature="0"
   style="fill:none;stroke:#000000;stroke-width:26;stroke-linecap:round;stroke-linejoin:round" />
         <path
   d="m 13194,18068 256,53 h 309 l 512,18 639,-71 481,-110 459,-146 361,-167 58,-53 17,256 -308,220 -494,181 -481,93 h -604 l -605,-36 -383,-75 -217,-35 z"
   id="path78"
   inkscape:connector-curvature="0"
   style="fill:#000000;stroke:none" />
         <path
   d="m 13927,18439 -58,22 -57,9 -154,-5 h -102 -53 l -70,13 -49,49 -53,40 -97,48 -57,27 -22,26 -66,44 -137,62 -53,31 4,31 9,26 49,27 -58,35 -75,66 -70,71 -13,48 17,62 49,27 31,-14 48,-48 -57,48 v 36 l 13,48 57,40 h 49 l 48,-13 40,-27 4,40 45,35 57,9 88,-9 66,-26 44,-22 -4,17 4,31 18,27 49,22 75,-18 101,-53 97,-48 88,-53 62,-14 79,-8 119,-27 168,-57 177,-58 75,-75 30,-48 9,-75 5,-62 13,-53 57,-128 -547,-287 z"
   id="path80"
   inkscape:connector-curvature="0"
   style="fill:#ffbfbf;stroke:none" />
         <path
   d="m 13031,19281 v -26 l 5,-18 150,-88 119,-75 48,-35 84,-44 124,-58 61,-39 36,-22 13,-31 26,-31 h -39 l -58,4 9,49 -26,31 -53,26 -80,27 h -66 l -22,48 -40,35 -66,49 h -31 l -26,-27 -27,40 -8,49 -49,26 -40,13 h -39 l -44,-22 13,36 -13,44 -31,26 -27,27 31,4 z"
   id="path82"
   inkscape:connector-curvature="0"
   style="fill:#ff7f7f;stroke:none" />
         <path
   d="m 13574,18686 -9,40 -53,22 -128,53 -62,17 -44,22 -62,58 -119,75 -119,75 -48,48 -80,75 -13,13 -9,-22 97,-101 40,-58 5,-39 52,-18 53,-9 80,-26 57,-35 49,-75 26,-18 49,4 61,-13 115,-48 z"
   id="path84"
   inkscape:connector-curvature="0"
   style="fill:#ff7f7f;stroke:none" />
         <path
   d="m 12974,18871 119,-79 62,-40 128,-53 128,-66 97,-31 57,-22 h 66 l -40,-27 -48,-8 -66,8 -31,31 -110,62 -106,40 -49,-5 -22,45 -57,26 -80,57 -44,5 -39,-5 h -22 l 4,40 18,18 z"
   id="path86"
   inkscape:connector-curvature="0"
   style="fill:#ff7f7f;stroke:none" />
         <path
   d="m 13340,19321 18,-40 35,-35 97,-48 79,-49 62,-40 49,-17 57,-49 79,-57 27,-18 -40,-9 h -35 l -49,31 -26,36 -71,22 -22,39 -53,44 -92,49 -93,40 -40,35 -53,48 -53,18 -48,13 -18,9 53,9 71,-9 z"
   id="path88"
   inkscape:connector-curvature="0"
   style="fill:#ff7f7f;stroke:none" />
         <path
   d="m 13927,18452 -93,26 h -119 l -115,-13 h -57 l -18,36 58,39 48,22 -35,14 h -58 l -48,26 -4,9 39,9 22,8 31,27 v 48 l -26,31 -18,22 -4,18 39,22 44,-9 67,-13 h 26 l 18,13 13,18 35,53 36,13 48,5 h 62 l 106,-23 83,-8 18,4 -48,31 -27,57 -22,49 v 35 l -9,27 9,13 71,13 53,-4 92,-18 110,-18 67,-39 31,-44 17,-62 9,-66 v -36 l 9,-26 110,-216 -573,-252 z"
   id="path90"
   inkscape:connector-curvature="0"
   style="fill:#ff9f9f;stroke:none" />
         <path
   d="m 13980,18214 -58,220 110,97 150,93 168,84 137,70 97,14 40,-44 97,-234 z"
   id="path92"
   inkscape:connector-curvature="0"
   style="fill:#dfdfff;stroke:none" />
         <path
   d="m 13212,14199 -366,-31 -115,49 -185,159 -75,75 -137,48 -180,-26 -137,-97 -93,-111 -110,-136 -57,-97 -14,-177 -39,-163 -111,-137 -26,-57 123,48 89,-13 105,-88 124,-106 137,-137 106,-163 v -446 -419 l 1177,-39 z"
   id="path94"
   inkscape:connector-curvature="0"
   style="fill:#000080;stroke:none" />
         <path
   d="m 13922,11208 168,137 273,181 494,273 415,331 247,415 163,384 110,547 v 494 468 l 194,410 v 278 l 190,326 194,662 163,741 146,503 -119,106 -163,132 -247,-737 128,728 -292,150 -520,190 -529,137 -658,84 h -436 -415 l -216,-53 -304,-111 -80,-167 -57,-441 110,-1262 v -825 l -53,-631 v -410 l -110,-688 -110,-494 v -495 l 84,-220 26,-278 410,-547 z"
   id="path96"
   inkscape:connector-curvature="0"
   style="fill:#000080;stroke:none" />
         <path
   d="m 11951,11998 -14,163 -35,49 v 335 l 13,53 18,44 40,31 39,35 62,13 128,27 128,31 53,-36 62,-52 39,-49 -4,-371 v -295 l 9,-124 -543,-22 z"
   id="path98"
   inkscape:connector-curvature="0"
   style="fill:#7f7f9f;stroke:none" />
         <path
   d="m 12048,12157 8,203 5,159 84,101 238,48 75,-70 -5,-335 z"
   id="path100"
   inkscape:connector-curvature="0"
   style="fill:#5f5f7f;stroke:none" />
         <path
   d="m 11937,12346 -4,98 -18,79 v 84 l 49,66 70,35 -39,-66 -31,-75 -13,-84 z"
   id="path102"
   inkscape:connector-curvature="0"
   style="fill:#5f5f7f;stroke:none" />
         <path
   d="m 12087,12629 -4,75 225,48 75,-57 z"
   id="path104"
   inkscape:connector-curvature="0"
   style="fill:#5f5f7f;stroke:none" />
         <path
   d="m 12286,11605 35,49 35,40 49,35 40,17 61,9 58,-35 39,-66 40,-71 z"
   id="path106"
   inkscape:connector-curvature="0"
   style="fill:#ffbfbf;stroke:none" />
         <path
   d="m 11761,10899 -22,137 -9,88 5,93 13,71 39,79 36,49 26,39 5,53 30,40 5,88 22,44 v 97 58 l 26,123 58,88 39,98 36,75 17,13 14,44 -5,44 40,18 13,35 13,71 31,39 27,40 53,35 92,-9 150,-66 124,-57 247,-106 66,-22 57,48 62,5 62,-31 114,-101 111,-133 110,-159 101,-176 71,-115 31,-123 13,-71 44,-123 18,-159 9,-186 v -189 l -40,-133 -119,-194 -141,-97 -155,-84 -216,-61 -194,-22 -265,-5 -233,44 -212,58 -168,123 -123,128 -75,172 z"
   id="path108"
   inkscape:connector-curvature="0"
   style="fill:#ffbfbf;stroke:none" />
         <path
   d="m 11995,12033 35,22 4,102 40,75 27,53 -5,13 40,66 26,71 58,53 75,17 145,-17 80,-75 57,-142 53,-52 123,-27 62,-84 9,-62 -57,-35 -102,-13 -57,-13 -9,-66 26,-58 36,-57 48,-40 49,-35 53,-27 136,-22 62,-39 -17,-102 -45,-35 -123,13 -62,9 -88,-22 -62,-22 -44,-27 -31,-17 -17,-36 v -53 l 13,-70 48,-71 44,-35 18,-53 v -71 l -4,-30 -40,-18 -31,18 -75,30 -141,31 -110,5 -146,-5 -101,-57 -58,-35 -83,-66 -75,-36 -31,22 -9,93 -13,141 22,88 17,67 44,48 80,71 48,48 27,40 13,62 -22,83 -40,97 -31,120 -22,79 -8,35 22,27 61,26 z"
   id="path110"
   inkscape:connector-curvature="0"
   style="fill:#ff9f9f;stroke:none" />
         <path
   d="m 13547,11477 -53,111 -13,101 53,84 62,-93 44,-88 26,-123 -44,-40 z"
   id="path112"
   inkscape:connector-curvature="0"
   style="fill:#ff7f7f;stroke:none" />
         <path
   d="m 12939,12302 97,67 35,-9 66,-58 75,-53 119,-101 80,-124 22,-39 -9,-27 -93,-22 -35,27 -88,110 -119,119 z"
   id="path114"
   inkscape:connector-curvature="0"
   style="fill:#ff7f7f;stroke:none" />
         <path
   d="m 12206,11601 -44,-31 -53,18 -48,31 -40,57 -22,84 13,92 14,44 57,14 53,-22 h 48 l 22,22 27,35 -27,40 -48,22 -49,13 -70,-9 -27,-22 h -66 l 62,49 31,35 22,22 h 22 l 26,-9 9,-26 49,-9 39,-5 62,-35 18,-62 4,-48 -4,-35 -31,-36 -49,-9 -57,-17 -48,-5 4,-57 18,-40 44,-53 z"
   id="path116"
   inkscape:connector-curvature="0"
   style="fill:#ff7f7f;stroke:none" />
         <path
   d="m 12039,12161 70,13 49,-17 53,13 48,22 106,-9 -48,27 h -62 l -75,9 -62,-9 h -62 z"
   id="path118"
   inkscape:connector-curvature="0"
   style="fill:#ff5f7f;stroke:none" />
         <path
   d="m 12123,12285 h 70 l 53,4 71,22 39,22 -26,13 -62,5 h -44 l -88,-5 z"
   id="path120"
   inkscape:connector-curvature="0"
   style="fill:#ff7f7f;stroke:none" />
         <path
   d="m 12061,11451 75,-9 h 93 l 88,9 75,9 79,13 93,22 75,35 61,27 -92,35 -62,13 -53,14 -57,13 -58,4 -57,-13 -40,-13 -39,-9 -18,-13 -4,-22 v -36 l -89,-4 -70,-9 -5,9 h -30 l -5,-44 z"
   id="path122"
   inkscape:connector-curvature="0"
   style="fill:#bf3f00;stroke:none" />
         <path
   d="m 11757,11257 35,70 62,53 48,36 35,39 31,36 18,44 v 44 l -18,57 -17,53 -22,40 -18,44 -9,-40 5,-35 17,-35 5,-22 13,-36 -13,-48 -27,-44 -31,-40 -48,-53 -40,-53 -22,-48 z"
   id="path124"
   inkscape:connector-curvature="0"
   style="fill:#bf3f00;stroke:none" />
         <path
   d="m 12396,11566 97,26 -97,22 z"
   id="path126"
   inkscape:connector-curvature="0"
   style="fill:#ffffff;stroke:none" />
         <path
   d="m 13331,11451 v 75 l 31,-40 57,-35 49,9 48,-9 14,-62 -9,-101 -35,-58 -45,-31 -48,27 4,48 27,31 -18,93 z"
   id="path128"
   inkscape:connector-curvature="0"
   style="fill:#ff7f7f;stroke:none" />
         <path
   d="m 13543,11513 -62,61 -101,27 -62,13 h -44 l -18,57 75,-8 75,8 75,-57 z"
   id="path130"
   inkscape:connector-curvature="0"
   style="fill:#ff7f7f;stroke:none" />
         <path
   d="m 11823,10913 -84,13 -84,4 h -66 l -44,-35 -18,-35 -22,-115 9,-106 35,-75 62,-145 79,-106 164,-221 220,-185 247,-159 256,-88 313,-9 256,31 300,141 207,159 115,159 101,225 71,233 9,230 -9,163 -27,172 -44,141 -114,106 -75,40 -58,26 h -26 l -27,-48 14,-66 -5,-71 -9,-79 -4,-58 -44,-53 -62,-17 -79,17 -49,40 -35,62 -13,84 -22,123 -5,27 -203,83 -75,-61 -92,-49 -84,-62 -40,-26 -44,-44 -40,-66 -13,-58 22,-75 5,-75 8,-35 -22,-35 -39,48 -80,40 -88,35 -93,22 -136,9 h -141 l -93,-40 -106,-57 z"
   id="path132"
   inkscape:connector-curvature="0"
   style="fill:#9f9f9f;stroke:none" />
         <path
   d="m 12855,10533 106,-84 110,-132 62,-128 13,-145 13,-67 62,115 75,-172 53,110 -80,181 190,-22 -300,137 203,9 -238,62 -35,75 136,48 -211,27 -177,39 -181,88 z"
   id="path134"
   inkscape:connector-curvature="0"
   style="fill:#5f5f5f;stroke:none" />
         <path
   d="m 11823,10908 141,-53 123,27 106,22 115,4 48,-4 62,-31 75,-31 13,-44 -22,-53 58,4 75,36 97,35 123,13 h 49 l -216,102 -102,62 h -62 l -61,-14 -49,58 -66,17 h -57 l -80,-17 -57,-27 -53,-17 h -110 l -58,-5 z"
   id="path136"
   inkscape:connector-curvature="0"
   style="fill:#5f5f5f;stroke:none" />
         <path
   d="m 12740,10952 -40,137 5,88 75,102 97,106 88,39 71,49 h 39 l 186,-119 -274,44 146,-106 -111,9 -97,22 h -48 l -62,-79 124,-40 -27,-53 h -137 l -26,-31 z"
   id="path138"
   inkscape:connector-curvature="0"
   style="fill:#5f5f5f;stroke:none" />
         <path
   d="m 13874,11297 -89,97 -119,66 -26,110 -75,163 -124,230 -88,150 -84,83 -127,106 -111,62 27,124 35,53 62,61 61,93 111,-282 176,-322 172,-300 137,-318 z"
   id="path140"
   inkscape:connector-curvature="0"
   style="fill:#dfdfff;stroke:none" />
         <path
   d="m 12987,12338 -13,75 -13,39 -5,75 -9,71 -101,-274 88,-35 z"
   id="path142"
   inkscape:connector-curvature="0"
   style="fill:#dfdfff;stroke:none" />
         <path
   d="m 12987,12338 49,39 13,89 44,70 40,40 57,70 31,27 -35,79 -27,80 -13,53 44,136 -31,106 -88,287 -35,124 v 158 l -66,-154 -23,-115 9,-309 18,-176 31,-49 4,-30 v -31 l -26,-31 -13,-80 -23,-132 v -70 l 14,-71 z"
   id="path144"
   inkscape:connector-curvature="0"
   style="fill:#ff001f;stroke:none" />
         <path
   d="m 14072,14508 110,494 36,494 -18,583 -75,661 -53,565 -53,207 -128,309 71,-772 35,-785 -17,-185 -146,-199 93,-313 70,-238 40,-419 z"
   id="path146"
   inkscape:connector-curvature="0"
   style="fill:#000000;stroke:none" />
         <path
   d="m 14116,11473 -79,476 -159,481 -128,450 -106,221 -185,-137 159,388 -132,477 -314,926 -154,644 -62,-785 36,-560 75,-336 132,-727 132,-420 313,-595 186,-419 53,-159 48,-124 97,71 z"
   id="path148"
   inkscape:connector-curvature="0"
   style="fill:#000000;stroke:none" />
         <path
   d="m 14116,11389 -84,463 -163,472 -136,442 -111,216 -194,-137 168,384 -137,467 -331,905 -163,635 -66,-772 40,-547 79,-331 137,-710 136,-415 331,-578 190,-414 62,-159 48,-115 102,66 z"
   id="path150"
   inkscape:connector-curvature="0"
   style="fill:#000080;stroke:none" />
         <path
   d="m 13922,17984 -26,190 84,110 163,124 163,97 154,66 150,44 h 221 l 137,-26 136,-468 115,-631 137,-913 79,-684 31,-410 -31,-741 -110,-741 -27,-605 -44,-335 -92,-326 -115,-261 -154,-167 -203,-106 -216,-18 -159,36 -146,105 -163,247 -84,274 -44,393 53,595 110,503 102,406 57,600 v 357 358 l -84,935 z"
   id="path152"
   inkscape:connector-curvature="0"
   style="fill:#000000;stroke:none" />
         <path
   d="m 13869,17954 -26,194 79,110 168,119 163,101 150,67 150,44 h 220 l 137,-31 137,-463 115,-636 136,-908 84,-684 27,-415 -27,-741 -110,-741 -27,-600 -48,-340 -93,-322 -110,-260 -154,-168 -203,-106 -221,-17 -154,35 -146,106 -163,247 -84,273 -44,393 53,596 110,503 102,401 53,604 v 358 357 l -84,931 z"
   id="path154"
   inkscape:connector-curvature="0"
   style="fill:#000080;stroke:none" />
         <path
   d="m 8700,15567 137,79 106,62 132,9 26,9 89,-80 105,-92 115,-84 124,-133 132,-136 75,-150 35,-124 18,62 -27,150 -61,291 -27,141 -44,186 -44,194 -22,185 -62,225 -110,318 -110,278 -128,277 -106,243 -163,9 -84,-128 -31,-44 -35,-163 -9,-261 -27,-136 9,-221 -9,-221 v -238 l -4,-167 v -115 l -9,-115 z"
   id="path156"
   inkscape:connector-curvature="0"
   style="fill:#bfbfdf;stroke:none" />
         <path
   d="m 9750,14755 35,62 v 110 l -13,163 -49,208 -62,317 -52,203 -58,168 -79,101 -124,89 -145,-274 -62,-128 -75,-57 101,-53 89,-62 154,-123 106,-119 101,-124 53,-75 49,-84 26,-75 5,-88 -5,-84 z"
   id="path158"
   inkscape:connector-curvature="0"
   style="fill:#dfdfff;stroke:none" />
         <path
   d="m 8982,15726 -53,31 -70,75 -27,61 -39,119 -45,97 -44,75 v -123 l -17,-185 -5,-208 v -66 l 49,-17 101,61 75,44 z"
   id="path160"
   inkscape:connector-curvature="0"
   style="fill:#dfdfff;stroke:none" />
         <path
   d="m 8969,15717 40,-9 48,9 49,35 26,13 35,67 36,83 13,27 -13,62 -36,44 -61,53 22,61 22,133 26,167 5,186 v 167 l -5,375 -198,433 -110,-111 -89,-176 -22,-212 -13,-207 35,-243 22,-194 31,-71 36,-185 61,-145 -35,-49 -35,-62 -18,-53 4,-39 49,-84 z"
   id="path162"
   inkscape:connector-curvature="0"
   style="fill:#5f009f;stroke:none" />
         <path
   d="m 8673,15655 45,260 -14,331 14,274 v 300 l 39,278 27,176 70,168 137,123 110,-207 40,-110 124,-261 123,-344 124,-317 39,-111 -79,481 -58,525 -13,455 -39,494 v 454 h -799 l -39,-287 -27,-401 v -437 l 40,-419 44,-463 40,-481 z"
   id="path164"
   inkscape:connector-curvature="0"
   style="fill:#7f7f9f;stroke:none" />
         <path
   d="m 8038,14296 9,49 v 35 l -4,40 17,35 v 44 l -4,36 -4,53 8,48 14,62 48,145 40,58 22,-644 z"
   id="path166"
   inkscape:connector-curvature="0"
   style="fill:#ff9f9f;stroke:none" />
         <path
   d="m 7924,14288 83,-40"
   id="path168"
   inkscape:connector-curvature="0"
   style="fill:none;stroke:#000000;stroke-width:26;stroke-linecap:round;stroke-linejoin:round" />
         <path
   d="m 7999,14257 -75,26 -27,31 -4,31 v 53 l 9,70 17,58 27,66 26,35 35,36 31,22 31,13 40,-5 22,-39 13,-62 v -66 l -13,-40 -13,-44 -22,-44 -49,-35 -48,-36 -44,-26 -40,-9"
   id="path170"
   inkscape:connector-curvature="0"
   style="fill:none;stroke:#000000;stroke-width:26;stroke-linecap:round;stroke-linejoin:round" />
         <path
   d="m 7932,14473 36,-44 48,92 40,71 13,48 -26,18 -22,-9 -27,-22 -22,-31 -26,-39 -14,-44 z"
   id="path172"
   inkscape:connector-curvature="0"
   style="fill:#dfdfff;stroke:none" />
         <path
   d="m 3151,16207 v 3096 l -1861,689 v -3622 z"
   id="path174"
   inkscape:connector-curvature="0"
   style="fill:#ffffff;stroke:none" />
         <path
   d="m 3151,16207 v 3096 l -1861,689 v -3622 z"
   id="path176"
   inkscape:connector-curvature="0"
   style="fill:none;stroke:#000000;stroke-width:26;stroke-linecap:round;stroke-linejoin:round" />
         <path
   d="m 4020,18037 -278,9 -154,-84 -185,-106 -102,-105 -159,-14 -158,-61 -93,61 -123,40 -146,18 13,97 49,48 61,27 128,-13 133,-45 150,128 v 741 l 357,-44 145,-35 331,-93 z"
   id="path178"
   inkscape:connector-curvature="0"
   style="fill:#ffbfbf;stroke:none" />
         <path
   d="m 4245,17931 -348,-17 75,198 v 256 l -40,203 -18,110 331,18 z"
   id="path180"
   inkscape:connector-curvature="0"
   style="fill:#dfdfff;stroke:none" />
         <path
   d="m 7452,15090 383,-105 344,-93 442,-40 163,22 -53,494 -110,1059 -75,953 -18,424 18,661 v 163 h -711 l -127,-604 -128,-529 -22,-225 -181,225 -128,198 -221,150 -128,128 -255,163 -181,71 -313,150 -569,181 -512,92 -291,53 -366,58 h -313 l 17,-256 18,-331 -18,-181 -53,-150 384,-35 565,-146 313,-17 220,-58 146,-110 220,-93 168,-39 110,-18 128,-238 216,-309 203,-349 181,-308 212,-203 79,-128 9,-124 93,-92 66,-177 z"
   id="path182"
   inkscape:connector-curvature="0"
   style="fill:#5f5f5f;stroke:none" />
         <path
   d="m 8135,15064 -357,97 -190,71 -57,79 v 110 164 l -13,207 26,317 97,353 40,195 18,194 53,150 53,97 57,66 66,70 -13,150 -27,168 v 194 l 27,110 70,137 53,177 71,97 26,194 40,137 h 318 v -3547 z"
   id="path184"
   inkscape:connector-curvature="0"
   style="fill:#3f3f3f;stroke:none" />
         <path
   d="m 8493,14817 -256,238 -93,146 -53,238 -39,93 v 163 l 383,128 -383,75 39,348 53,384 18,494 57,424 110,401 181,534 53,163 -53,-640 v -458 l 75,-591 36,-600 52,-645 58,-419 53,-401 z"
   id="path186"
   inkscape:connector-curvature="0"
   style="fill:#5f5f5f;stroke:none" />
         <path
   d="m 8087,13913 -18,136 -22,97 v 62 l 22,44 27,40 31,57 35,80 9,79 -22,62 -89,137 -88,154 -13,53 13,53 110,57 31,13 -4,49 13,53 27,35 -14,49 14,35 26,27 13,52 9,71 v 62 l 27,62 22,39 66,49 110,26 132,-13 146,-26 h 66 l 49,48 75,27 75,35 88,-13 92,-27 93,-44 110,-88 137,-128 132,-172 89,-137 22,-93 17,-75 -17,-75 17,-123 49,-115 123,-172 49,-291 -27,-229 -44,-234 -176,-168 -225,-101 -296,-49 -295,9 -300,40 -199,84 -180,172 -102,150 z"
   id="path188"
   inkscape:connector-curvature="0"
   style="fill:#ffbfbf;stroke:none" />
         <path
   d="m 8140,14495 h 26 l 13,4 23,14 13,22 9,22"
   id="path190"
   inkscape:connector-curvature="0"
   style="fill:none;stroke:#000000;stroke-width:26;stroke-linecap:round;stroke-linejoin:round" />
         <path
   d="m 8471,15637 172,-26 119,-31 119,-48 106,-53 70,-44 53,-31 27,4 35,18 13,31 -13,48 18,31 v 9 l 30,26 31,14 h 9 l 62,-27 84,-62 88,-114 88,-93 62,-102 79,-97 27,-101 v -93 -70 l 9,-80 61,-238 -66,-185 -194,22 -282,119 -177,106 -57,93 -71,119 -26,31 -22,8 -31,9 -40,9 h -53 l -26,-13 -27,-18 -13,-35 -9,-27 14,-17 13,-22 35,-14 13,-13 v -44 l -13,-18 -48,-17 -84,17 -35,14 -27,13 -26,40 -14,17 v 22 l 31,18 h 58 l 22,9 22,22 35,57 13,66 v 58 l -9,39 -13,9 h -22 -13 l -13,-13 -36,-18 -39,-13 h -44 -22 l -18,9 9,22 22,26 31,18 44,18 53,17 h 35 l 44,5 31,4 26,31 9,13 27,44 v 22 l -22,14 -27,13 -40,13 -48,9 h -31 l -31,-9 -22,-9 -18,-4 -17,22 26,18 5,53 v 8 l -22,9 h -22 l -9,18 -5,48 22,53 31,18 h 31 35 l 31,-4 h 9 l 18,17 22,-13 26,-9 14,22 -22,22 -58,18 -35,-9 -13,18 -22,31 -45,13 -44,13 -35,9 -53,13 -48,5 -27,-5 18,18 z"
   id="path192"
   inkscape:connector-curvature="0"
   style="fill:#ff9f9f;stroke:none" />
         <path
   d="m 8210,14552 -48,102 -35,84 -40,88 -13,48 13,27 26,35 27,4 31,-13 v -40 l 13,-26 31,-9 35,-4 9,-110 v -120 -53 -26 z"
   id="path194"
   inkscape:connector-curvature="0"
   style="fill:#ff9f9f;stroke:none" />
         <path
   d="m 8210,14561 -35,9 -26,53 -40,101 -27,93 -30,35 -18,31 4,22 18,5 22,-45 31,-75 35,-83 35,-80 z"
   id="path196"
   inkscape:connector-curvature="0"
   style="fill:#ffffff;stroke:none" />
         <path
   d="m 8175,14905 22,-18 h 40 l 22,18 13,31 -13,26 -18,27 -31,13 -48,5 -22,-9 -27,17 14,22 26,14 13,4 h 44 l 27,-9 35,-13 22,-4 44,-22 9,-22 9,-36 -13,-39 -31,-58 -9,-39 -4,-45 v -66 l 8,-70 v -62 l -22,-27 -35,-4 -4,93 -9,101 v 49 44 l -13,22 -22,4 -23,13 z"
   id="path198"
   inkscape:connector-curvature="0"
   style="fill:#ff7f7f;stroke:none" />
         <path
   d="m 8052,14182 h -27 l -22,22 -18,35 14,44 26,35 35,27 36,26 31,67 26,39 13,22 5,-31 -9,-39 -18,-44 -17,-45 -18,-39 -35,-49 z"
   id="path200"
   inkscape:connector-curvature="0"
   style="fill:#5f3f1f;stroke:none" />
         <path
   d="m 8241,14482 -26,53 4,57 27,66 44,35 53,-61 26,-97 44,-5 40,35 57,31 93,36 150,22 9,-9 v -31 l -71,-31 -75,-31 -79,-44 -71,-26 -88,-14 h -40 l -75,-48 z"
   id="path202"
   inkscape:connector-curvature="0"
   style="fill:#5f3f1f;stroke:none" />
         <path
   d="m 9269,15585 -62,-27 -22,-35 v -18 -44 l -9,-31 -17,-22 -40,-9 -27,18 -48,26 -88,53 -115,49 -53,13 -53,13 49,53 66,40 66,31 57,31 62,-5 62,-13 79,-44 z"
   id="path204"
   inkscape:connector-curvature="0"
   style="fill:#ff7f7f;stroke:none" />
         <path
   d="m 8140,15139 39,18 h 40 l 22,4 31,22 22,13 h 35 40 l 40,-4 h 26 l 18,9 18,26 8,13 9,22 -44,-4 -40,-9 -61,-9 -49,-4 h -35 l -31,-4 -22,-9 -27,-13 -17,-18 z"
   id="path206"
   inkscape:connector-curvature="0"
   style="fill:#ff7f9f;stroke:none" />
         <path
   d="m 8184,15285 53,22 31,-5 48,22 35,9 40,-22 h 22 l 18,4 18,14 v 31 l -23,13 -48,9 -49,4 -35,-4 -35,-9 -27,-18 -26,-18 z"
   id="path208"
   inkscape:connector-curvature="0"
   style="fill:#ff7f7f;stroke:none" />
         <path
   d="m 8422,14592 66,35 71,31 39,9 45,9 h 26 l -40,22 -48,4 -49,-4 -61,-13 -27,-36 z"
   id="path210"
   inkscape:connector-curvature="0"
   style="fill:#808080;stroke:none" />
         <path
   d="m 9388,14596 v 80 l 13,66 22,31 v 35 l -17,35 -5,27 9,31 18,9 31,13 30,4 40,-17 31,-14 31,-26 35,-35 49,-58 44,-79 31,-93 13,-106 -9,-79 -53,-44 -75,-27 -88,36 -75,61 -49,75 z"
   id="path212"
   inkscape:connector-curvature="0"
   style="fill:#ffbfbf;stroke:none" />
         <path
   d="m 9494,14729 35,-27 13,5 14,13 v 22 l -5,22 -4,9 17,17 14,-8 17,-31 18,-36 18,-30 17,-27 13,-31 5,-22 4,-26 9,-49 v -31 -26 l -13,-22 -18,-13 h -22 l -9,-5 h -48 l -13,18 -27,13 v 18 l 31,8 13,-17 h 40 l 18,22 v 53 44 l -18,40 -31,4 -31,-9 -26,9 -36,18 -22,26 -4,31 9,18 z"
   id="path214"
   inkscape:connector-curvature="0"
   style="fill:#ff7f7f;stroke:none" />
         <path
   d="m 1466,16718 1535,-185"
   id="path216"
   inkscape:connector-curvature="0"
   style="fill:none;stroke:#000000;stroke-width:26;stroke-linecap:round;stroke-linejoin:round" />
         <path
   d="m 1502,17009 1513,-220"
   id="path218"
   inkscape:connector-curvature="0"
   style="fill:none;stroke:#000000;stroke-width:26;stroke-linecap:round;stroke-linejoin:round" />
         <path
   d="m 1537,17583 710,-132"
   id="path220"
   inkscape:connector-curvature="0"
   style="fill:none;stroke:#000000;stroke-width:26;stroke-linecap:round;stroke-linejoin:round" />
         <path
   d="m 1577,19502 1385,-441"
   id="path222"
   inkscape:connector-curvature="0"
   style="fill:none;stroke:#000000;stroke-width:26;stroke-linecap:round;stroke-linejoin:round" />
         <path
   d="m 1590,19171 1301,-344"
   id="path224"
   inkscape:connector-curvature="0"
   style="fill:none;stroke:#000000;stroke-width:26;stroke-linecap:round;stroke-linejoin:round" />
         <path
   d="m 1630,18368 1296,-273"
   id="path226"
   inkscape:connector-curvature="0"
   style="fill:none;stroke:#000000;stroke-width:26;stroke-linecap:round;stroke-linejoin:round" />
         <path
   d="m 1555,17799 679,-110"
   id="path228"
   inkscape:connector-curvature="0"
   style="fill:none;stroke:#000000;stroke-width:26;stroke-linecap:round;stroke-linejoin:round" />
         <path
   d="m 1555,18055 692,-124"
   id="path230"
   inkscape:connector-curvature="0"
   style="fill:none;stroke:#000000;stroke-width:26;stroke-linecap:round;stroke-linejoin:round" />
         <path
   d="m 9313,18651 -181,17 -123,9 -66,-9 -62,-17 -172,-49 -159,-84 -128,-62 -119,-39 -75,-22 h -216 l -216,8 -102,45 -101,44 -97,53 -97,57 -18,31 v 35 l 5,44 -84,40 -31,35 -22,18 -9,44 18,27 31,39 35,13 35,-13 40,-17 84,-36 101,-35 172,-53 132,-57 75,-5 49,14 -84,13 -110,39 -159,62 -110,40 -88,57 -75,66 -23,45 v 26 l 18,35 53,27 h 62 l 62,-35 61,-49 22,-18 93,-31 110,-26 88,-35 h 49 l 106,17 h 88 l -163,27 -97,13 -97,27 -84,35 -44,13 -44,27 -18,22 -9,22 14,31 48,22 h 84 l 62,-14 92,-13 75,-13 62,-13 97,-9 62,13 84,13 75,9 52,5 71,22 84,22 66,31 75,35 57,22 66,22 89,-9 57,-22 66,-18 49,-13 110,-17 146,-5 123,-13 h 225 v -618 z"
   id="path232"
   inkscape:connector-curvature="0"
   style="fill:#ffbfbf;stroke:none" />
         <path
   d="m 8338,18443 13,49 -26,39 9,58 44,31 71,35 -23,22 -13,26 -17,23 13,52 31,62 31,22 4,18 26,31 23,13 -27,35 -26,14 13,48 48,31 31,22 62,27 48,22 84,26 71,13 66,9 h 62 l 53,-35 35,-40 -4,-70 -22,-115 -14,-97 -57,-119 -53,-31 -128,-71 -216,-88 -110,-35 z"
   id="path234"
   inkscape:connector-curvature="0"
   style="fill:#ff9f9f;stroke:none" />
         <path
   d="m 7386,18699 163,-62 141,-53 88,-48 75,-22 79,-5 106,5"
   id="path236"
   inkscape:connector-curvature="0"
   style="fill:none;stroke:#ff7f7f;stroke-width:26;stroke-linecap:round;stroke-linejoin:round" />
         <path
   d="m 9366,18602 -141,26 79,124 49,128 61,243 v 110 l 9,115 h 150 l 177,-27 207,-22 v -741 z"
   id="path238"
   inkscape:connector-curvature="0"
   style="fill:#dfdfff;stroke:none" />
         <path
   d="m 10041,14985 441,136 260,80 300,154 221,124 66,79 31,97 39,274 -13,180 -26,53 53,97 83,137 27,124 v 39 l -40,71 40,150 110,97 v 190 l 27,84 52,53 71,57 66,150 v 128 l -13,57 44,137 93,287 31,176 -14,181 -17,274 -14,180 -79,120 -194,123 -247,71 -437,83 -507,53 -578,58 -233,26 -53,-194 -71,-176 -93,-221 -83,-123 -14,-27 27,-534 -13,-467 26,-433 71,-520 66,-494 70,-437 124,-538 53,-216 z"
   id="path240"
   inkscape:connector-curvature="0"
   style="fill:#5f5f5f;stroke:none" />
         <path
   d="m 10080,15064 168,194 66,150 58,150 26,150 v 124 l -194,70 194,53 27,168 -27,176 -71,194 -79,190 -44,168 -40,229 -13,194 -97,265 -97,317 -40,177 14,110 70,13 247,-123 27,-150 83,-287 27,-282 97,-137 79,-234 97,-176 53,-221 71,-189 39,-181 111,-247 97,-124 -13,247 -84,207 -66,234 -31,124 17,203 -17,167 -14,137 247,-397 -149,353 194,-163 -168,247 -93,97 -31,53 -66,70 137,-39 110,-71 h 53 181 l 66,40 h -189 l -111,44 -123,84 -44,44 -14,26 v 150 l 45,150 13,124 53,84 h 57 l 137,-71 123,-13 93,13 97,44 84,53 53,71 57,79 -13,31 -84,-57 -137,-80 -207,-57 -110,13 -53,84 84,53 79,71 26,66 v 83 l -79,-39 -71,-110 -149,-27 h -150 -97 l -221,53 -300,40 -137,97 -150,57 -207,53 -234,71 -26,13 -40,13 v -247 l 27,-604 39,-596 84,-591 97,-574 80,-441 97,-423 z"
   id="path242"
   inkscape:connector-curvature="0"
   style="fill:#3f3f3f;stroke:none" />
         <path
   d="m 9838,14804 190,141 127,238 75,221 18,238 v 145 l -459,181 477,22 -93,309 -145,331 -111,366 -128,402 -48,278 -93,366 -119,282 -159,282 -53,-330 9,-389 36,-251 44,-494 44,-388 57,-397 84,-442 106,-401 39,-238 53,-274 v -150 l -26,-97 z"
   id="path244"
   inkscape:connector-curvature="0"
   style="fill:#5f5f5f;stroke:none" />
         <path
   d="m 11510,16489 13,44 -13,31 -14,31 -22,26 -97,36 -35,26 -44,18 -18,-40 93,-75 62,-53 z"
   id="path246"
   inkscape:connector-curvature="0"
   style="fill:#3f3f3f;stroke:none" />
         <path
   d="m 11390,15942 9,88 -9,84 -26,31 -53,31 -57,13 -18,-44 62,-44 53,-62 z"
   id="path248"
   inkscape:connector-curvature="0"
   style="fill:#3f3f3f;stroke:none" />
         <path
   d="m 8007,13930 5,62 13,35 62,49 119,13 101,40 111,9 136,-31 159,-53 155,-71 44,-31 v 124 l -22,114 -9,98 70,145 49,80 62,48 83,119 230,-48 9,-75 22,-36 17,-44 27,-31 35,-31 53,-30 31,-14 66,-13 57,27 36,26 17,44 9,58 -18,88 5,84 18,61 44,36 35,4 44,-79 49,-106 48,-155 62,-198 22,-208 v -172 l -35,-189 -49,-159 -53,-119 -106,-137 -185,-110 -128,-66 -181,-45 -92,-17 -84,13 h -115 l -106,27 -203,70 -194,75 -79,49 -124,79 -141,110 -92,133 -58,97 -17,119 z"
   id="path250"
   inkscape:connector-curvature="0"
   style="fill:#5f3f1f;stroke:none" />
         <path
   d="m 8096,13696 53,-97 61,-92 97,-93 172,-106 172,-79 142,-93 75,-22 105,9 31,13 9,-22 40,-26 35,-9 27,-49 97,13 132,23 66,61 49,9 35,-13 35,44 44,31 36,-13 -5,44 40,22 62,26 -102,9 -119,-26 -75,-22 -66,-22 115,83 -221,-35 75,62 -203,44 110,40 -70,48 -163,-9 88,89 -62,70 -176,13 101,89 -35,83 -66,40 h -62 l -137,-62 -97,-61 102,167 -53,40 h -71 l -145,-49 48,89 -176,-40 -49,-132 97,-27 -22,-79 124,13 198,-181 -26,-48 88,13 v -44 l -97,-93 -53,124 -75,-31 -88,66 4,88 -62,-48 -39,44 26,75 -62,-36 -35,27 z"
   id="path252"
   inkscape:connector-curvature="0"
   style="fill:#bf7f1f;stroke:none" />
         <path
   d="m 9591,13582 26,-212 67,163 97,-88 75,48 57,115 -93,163 -123,-79 -44,190 -80,150 -66,44 -22,-278 -79,269 -106,-225 -80,406 -97,-221 -26,115 -31,-128 -40,141 62,137 62,84 70,57 102,66 -124,40 -101,-18 -124,-123 -35,-181 -9,-154 -31,-84 h 89 l 48,-199 18,141 48,-211 71,-53 v 185 l 101,-207 9,97 102,-14 83,-185 31,110 z"
   id="path254"
   inkscape:connector-curvature="0"
   style="fill:#bf7f1f;stroke:none" />
         <path
   d="m 8307,14905 27,27 31,17 53,31 48,9 h 44 l 22,-4 27,-27 22,-31 9,-22 -36,22 -53,22 -52,-13 -62,-44 -58,-27 -26,9 z"
   id="path256"
   inkscape:connector-curvature="0"
   style="fill:#bfbfdf;stroke:none" />
         <path
   d="m 8453,14693 57,40 36,40 13,26 -22,22 -18,-31 -35,-26 -49,-26 z"
   id="path258"
   inkscape:connector-curvature="0"
   style="fill:#ffffff;stroke:none" />
         <path
   d="m 8237,14579 35,4 18,44 13,49 4,39 -4,27 -22,35 -22,-4 -18,-18 -17,-48 v -53 l 4,-53 z"
   id="path260"
   inkscape:connector-curvature="0"
   style="fill:#9f9fbf;stroke:none" />
         <path
   d="m 9097,14583 -481,260 -13,71 -22,44 -18,22 -26,22 -31,9 h -35 l -31,-4 -36,-14 -44,-26 -57,-40 -40,-53 -31,-48 -13,-49 -9,-53 -4,-66 4,-57 5,-31 13,-35 22,-14 h 27 l 66,36 119,75 88,61 48,45 18,48 5,62"
   id="path262"
   inkscape:connector-curvature="0"
   style="fill:none;stroke:#000000;stroke-width:26;stroke-linecap:round;stroke-linejoin:round" />
        </g>
       </g>
      </g>
     </g>
    </g>
   </g>
  </g>
 </g>
</svg>