<?xml version="1.0" encoding="UTF-8" standalone="no"?>
<svg
   xmlns:ooo="http://xml.openoffice.org/svg/export"
   xmlns:dc="http://purl.org/dc/elements/1.1/"
   xmlns:cc="http://creativecommons.org/ns#"
   xmlns:rdf="http://www.w3.org/1999/02/22-rdf-syntax-ns#"
   xmlns:svg="http://www.w3.org/2000/svg"
   xmlns="http://www.w3.org/2000/svg"
   xmlns:sodipodi="http://sodipodi.sourceforge.net/DTD/sodipodi-0.dtd"
   xmlns:inkscape="http://www.inkscape.org/namespaces/inkscape"
   version="1.2"
   width="122.37mm"
   height="99.089996mm"
   viewBox="0 0 12237 9908.9996"
   preserveAspectRatio="xMidYMid"
   xml:space="preserve"
   id="svg208"
   sodipodi:docname="printer2.svg"
   style="fill-rule:evenodd;stroke-width:28.22200012;stroke-linejoin:round"
   inkscape:version="0.92.5 (2060ec1f9f, 2020-04-08)"><metadata
   id="metadata212"><rdf:RDF><cc:Work
       rdf:about=""><dc:format>image/svg+xml</dc:format><dc:type
         rdf:resource="http://purl.org/dc/dcmitype/StillImage" /></cc:Work></rdf:RDF></metadata><sodipodi:namedview
   pagecolor="#ffffff"
   bordercolor="#666666"
   borderopacity="1"
   objecttolerance="10"
   gridtolerance="10"
   guidetolerance="10"
   inkscape:pageopacity="0"
   inkscape:pageshadow="2"
   inkscape:window-width="664"
   inkscape:window-height="487"
   id="namedview210"
   showgrid="false"
   inkscape:zoom="0.2102413"
   inkscape:cx="231.26929"
   inkscape:cy="187.23779"
   inkscape:window-x="0"
   inkscape:window-y="0"
   inkscape:window-maximized="0"
   inkscape:current-layer="svg208" />
 <defs
   class="ClipPathGroup"
   id="defs8">
  <clipPath
   id="presentation_clip_path"
   clipPathUnits="userSpaceOnUse">
   <rect
   x="0"
   y="0"
   width="21000"
   height="29700"
   id="rect2" />
  </clipPath>
  <clipPath
   id="presentation_clip_path_shrink"
   clipPathUnits="userSpaceOnUse">
   <rect
   x="21"
   y="29"
   width="20958"
   height="29641"
   id="rect5" />
  </clipPath>
 </defs>
 <defs
   class="TextShapeIndex"
   id="defs12">
  <g
   ooo:slide="id1"
   ooo:id-list="id3"
   id="g10" />
 </defs>
 <defs
   class="EmbeddedBulletChars"
   id="defs44">
  <g
   id="bullet-char-template-57356"
   transform="matrix(4.8828125e-4,0,0,-4.8828125e-4,0,0)">
   <path
   d="M 580,1141 1163,571 580,0 -4,571 Z"
   id="path14"
   inkscape:connector-curvature="0" />
  </g>
  <g
   id="bullet-char-template-57354"
   transform="matrix(4.8828125e-4,0,0,-4.8828125e-4,0,0)">
   <path
   d="M 8,1128 H 1137 V 0 H 8 Z"
   id="path17"
   inkscape:connector-curvature="0" />
  </g>
  <g
   id="bullet-char-template-10146"
   transform="matrix(4.8828125e-4,0,0,-4.8828125e-4,0,0)">
   <path
   d="M 174,0 602,739 174,1481 1456,739 Z M 1358,739 309,1346 659,739 Z"
   id="path20"
   inkscape:connector-curvature="0" />
  </g>
  <g
   id="bullet-char-template-10132"
   transform="matrix(4.8828125e-4,0,0,-4.8828125e-4,0,0)">
   <path
   d="M 2015,739 1276,0 H 717 l 543,543 H 174 v 393 h 1086 l -543,545 h 557 z"
   id="path23"
   inkscape:connector-curvature="0" />
  </g>
  <g
   id="bullet-char-template-10007"
   transform="matrix(4.8828125e-4,0,0,-4.8828125e-4,0,0)">
   <path
   d="m 0,-2 c -7,16 -16,29 -25,39 l 381,530 c -94,256 -141,385 -141,387 0,25 13,38 40,38 9,0 21,-2 34,-5 21,4 42,12 65,25 l 27,-13 111,-251 280,301 64,-25 24,25 c 21,-10 41,-24 62,-43 C 886,937 835,863 770,784 769,783 710,716 594,584 L 774,223 c 0,-27 -21,-55 -63,-84 l 16,-20 C 717,90 699,76 672,76 641,76 570,178 457,381 L 164,-76 c -22,-34 -53,-51 -92,-51 -42,0 -63,17 -64,51 -7,9 -10,24 -10,44 0,9 1,19 2,30 z"
   id="path26"
   inkscape:connector-curvature="0" />
  </g>
  <g
   id="bullet-char-template-10004"
   transform="matrix(4.8828125e-4,0,0,-4.8828125e-4,0,0)">
   <path
   d="M 285,-33 C 182,-33 111,30 74,156 52,228 41,333 41,471 c 0,78 14,145 41,201 34,71 87,106 158,106 53,0 88,-31 106,-94 l 23,-176 c 8,-64 28,-97 59,-98 l 735,706 c 11,11 33,17 66,17 42,0 63,-15 63,-46 V 965 c 0,-36 -10,-64 -30,-84 L 442,47 C 390,-6 338,-33 285,-33 Z"
   id="path29"
   inkscape:connector-curvature="0" />
  </g>
  <g
   id="bullet-char-template-9679"
   transform="matrix(4.8828125e-4,0,0,-4.8828125e-4,0,0)">
   <path
   d="M 813,0 C 632,0 489,54 383,161 276,268 223,411 223,592 c 0,181 53,324 160,431 106,107 249,161 430,161 179,0 323,-54 432,-161 108,-107 162,-251 162,-431 0,-180 -54,-324 -162,-431 C 1136,54 992,0 813,0 Z"
   id="path32"
   inkscape:connector-curvature="0" />
  </g>
  <g
   id="bullet-char-template-8226"
   transform="matrix(4.8828125e-4,0,0,-4.8828125e-4,0,0)">
   <path
   d="m 346,457 c -73,0 -137,26 -191,78 -54,51 -81,114 -81,188 0,73 27,136 81,188 54,52 118,78 191,78 73,0 134,-26 185,-79 51,-51 77,-114 77,-187 0,-75 -25,-137 -76,-188 -50,-52 -112,-78 -186,-78 z"
   id="path35"
   inkscape:connector-curvature="0" />
  </g>
  <g
   id="bullet-char-template-8211"
   transform="matrix(4.8828125e-4,0,0,-4.8828125e-4,0,0)">
   <path
   d="M -4,459 H 1135 V 606 H -4 Z"
   id="path38"
   inkscape:connector-curvature="0" />
  </g>
  <g
   id="bullet-char-template-61548"
   transform="matrix(4.8828125e-4,0,0,-4.8828125e-4,0,0)">
   <path
   d="m 173,740 c 0,163 58,303 173,419 116,115 255,173 419,173 163,0 302,-58 418,-173 116,-116 174,-256 174,-419 0,-163 -58,-303 -174,-418 C 1067,206 928,148 765,148 601,148 462,206 346,322 231,437 173,577 173,740 Z"
   id="path41"
   inkscape:connector-curvature="0" />
  </g>
 </defs>
 <g
   id="g49"
   transform="translate(-4381,-9895)">
  <g
   id="id2"
   class="Master_Slide">
   <g
   id="bg-id2"
   class="Background" />
   <g
   id="bo-id2"
   class="BackgroundObjects" />
  </g>
 </g>
 <g
   class="SlideGroup"
   id="g206"
   transform="translate(-4381,-9895)">
  <g
   id="g204">
   <g
   id="container-id1">
    <g
   id="id1"
   class="Slide"
   clip-path="url(#presentation_clip_path)">
     <g
   class="Page"
   id="g200">
      <g
   class="Graphic"
   id="g198">
       <g
   id="id3">
        <rect
   class="BoundingBox"
   x="4381"
   y="9895"
   width="12237"
   height="9909"
   id="rect51"
   style="fill:none;stroke:none" />
        <defs
   id="defs56">
         <clipPath
   id="clip_path_1"
   clipPathUnits="userSpaceOnUse">
          <path
   d="m 4381,9895 h 12236 v 9908 H 4381 Z"
   id="path53"
   inkscape:connector-curvature="0" />
         </clipPath>
        </defs>
        <g
   clip-path="url(#clip_path_1)"
   id="g164">
         <path
   d="m 4756,9886 h 11332 v 603 H 4756 Z"
   id="path58"
   inkscape:connector-curvature="0"
   style="fill:#c0c0c0;stroke:none" />
         <path
   d="m 4756,9886 h 11332 v 603 H 4756 Z"
   id="path60"
   inkscape:connector-curvature="0"
   style="fill:none;stroke:#808080;stroke-width:71;stroke-linecap:round;stroke-linejoin:round" />
         <path
   d="m 4447,18622 h 12070 l -402,538 v 543 H 4866 v -543 z"
   id="path62"
   inkscape:connector-curvature="0"
   style="fill:#a0a0a0;stroke:none" />
         <path
   d="m 4447,18622 h 12070 l -402,538 v 543 H 4866 v -543 z"
   id="path64"
   inkscape:connector-curvature="0"
   style="fill:none;stroke:#808080;stroke-width:71;stroke-linecap:round;stroke-linejoin:round" />
         <path
   d="m 4478,10442 h 11989 v 5408 H 4478 Z"
   id="path66"
   inkscape:connector-curvature="0"
   style="fill:#a0a0a0;stroke:none" />
         <path
   d="m 4478,10442 h 11989 v 5408 H 4478 Z"
   id="path68"
   inkscape:connector-curvature="0"
   style="fill:none;stroke:#808080;stroke-width:71;stroke-linecap:round;stroke-linejoin:round" />
         <path
   d="m 4412,15520 h 12148 v 3118 H 4412 Z"
   id="path70"
   inkscape:connector-curvature="0"
   style="fill:#c0c0c0;stroke:none" />
         <path
   d="m 4412,15520 h 12148 v 3118 H 4412 Z"
   id="path72"
   inkscape:connector-curvature="0"
   style="fill:none;stroke:#808080;stroke-width:71;stroke-linecap:round;stroke-linejoin:round" />
         <path
   d="m 4412,10729 h 12148 v 4574 H 4412 Z"
   id="path74"
   inkscape:connector-curvature="0"
   style="fill:#c0c0c0;stroke:none" />
         <path
   d="m 4412,10729 h 12148 v 4574 H 4412 Z"
   id="path76"
   inkscape:connector-curvature="0"
   style="fill:none;stroke:#808080;stroke-width:71;stroke-linecap:round;stroke-linejoin:round" />
         <path
   d="m 4412,10301 h 12148 v 290 H 4412 Z"
   id="path78"
   inkscape:connector-curvature="0"
   style="fill:#c0c0c0;stroke:none" />
         <path
   d="m 4412,10301 h 12148 v 290 H 4412 Z"
   id="path80"
   inkscape:connector-curvature="0"
   style="fill:none;stroke:#808080;stroke-width:71;stroke-linecap:round;stroke-linejoin:round" />
         <path
   d="m 14368,15710 h -384 v -446 H 7213 v 446 h -344 v 2545 h 7499 z"
   id="path82"
   inkscape:connector-curvature="0"
   style="fill:#606060;stroke:none" />
         <path
   d="m 14368,15710 h -384 v -446 H 7213 v 446 h -344 v 2545 h 7499 z"
   id="path84"
   inkscape:connector-curvature="0"
   style="fill:none;stroke:#a0a0a0;stroke-width:71;stroke-linecap:round;stroke-linejoin:round" />
         <path
   d="M 14368,15277 H 6869 v -2003 h 7499 z"
   id="path86"
   inkscape:connector-curvature="0"
   style="fill:#c0c0c0;stroke:none" />
         <path
   d="M 14368,15277 H 6869 v -2003 h 7499 z"
   id="path88"
   inkscape:connector-curvature="0"
   style="fill:none;stroke:#a0a0a0;stroke-width:71;stroke-linecap:round;stroke-linejoin:round" />
         <path
   d="m 6935,17360 h 162 v 484 h -162 z"
   id="path90"
   inkscape:connector-curvature="0"
   style="fill:#c0c0c0;stroke:none" />
         <path
   d="m 7319,16716 h 6554 v 930 H 7319 Z"
   id="path92"
   inkscape:connector-curvature="0"
   style="fill:#808080;stroke:none" />
         <path
   d="m 7800,17095 h 2831 v 511 H 7800 Z"
   id="path94"
   inkscape:connector-curvature="0"
   style="fill:#808080;stroke:none" />
         <path
   d="m 7800,17095 h 2831 v 511 H 7800 Z"
   id="path96"
   inkscape:connector-curvature="0"
   style="fill:none;stroke:#606060;stroke-width:71;stroke-linecap:round;stroke-linejoin:round" />
         <path
   d="m 6975,16054 h 7282 v 850 H 6975 Z"
   id="path98"
   inkscape:connector-curvature="0"
   style="fill:#c0c0c0;stroke:none" />
         <path
   d="m 7125,16822 h 61 v 317 h -61 z"
   id="path100"
   inkscape:connector-curvature="0"
   style="fill:#c0c0c0;stroke:none" />
         <path
   d="m 14068,16830 h 61 v 317 h -61 z"
   id="path102"
   inkscape:connector-curvature="0"
   style="fill:#c0c0c0;stroke:none" />
         <path
   d="m 7297,15454 h 6612 v 458 H 7297 Z"
   id="path104"
   inkscape:connector-curvature="0"
   style="fill:#808080;stroke:none" />
         <path
   d="m 7076,15926 h 7035 v 74 H 7076 Z"
   id="path106"
   inkscape:connector-curvature="0"
   style="fill:#c0c0c0;stroke:none" />
         <path
   d="m 7773,14342 h 5685 v 378 H 7773 Z"
   id="path108"
   inkscape:connector-curvature="0"
   style="fill:#606060;stroke:none" />
         <path
   d="m 7125,13473 h 273 v 656 h -273 z"
   id="path110"
   inkscape:connector-curvature="0"
   style="fill:#606060;stroke:none" />
         <path
   d="m 13896,13473 h 273 v 656 h -273 z"
   id="path112"
   inkscape:connector-curvature="0"
   style="fill:#606060;stroke:none" />
         <path
   d="m 7482,13416 h 6298 v 731 H 7482 Z"
   id="path114"
   inkscape:connector-curvature="0"
   style="fill:#c0c0c0;stroke:none" />
         <path
   d="m 7482,13416 h 6298 v 731 H 7482 Z"
   id="path116"
   inkscape:connector-curvature="0"
   style="fill:none;stroke:#a0a0a0;stroke-width:71;stroke-linecap:round;stroke-linejoin:round" />
         <path
   d="m 7482,14108 h 6298 v 246 H 7482 Z"
   id="path118"
   inkscape:connector-curvature="0"
   style="fill:#a0a0a0;stroke:none" />
         <path
   d="m 7482,14108 h 6298 v 246 H 7482 Z"
   id="path120"
   inkscape:connector-curvature="0"
   style="fill:none;stroke:#a0a0a0;stroke-width:71;stroke-linecap:round;stroke-linejoin:round" />
         <path
   d="m 7032,14166 h 409 v 533 h -409 z"
   id="path122"
   inkscape:connector-curvature="0"
   style="fill:#a0a0a0;stroke:none" />
         <path
   d="m 7032,14166 h 409 v 533 h -409 z"
   id="path124"
   inkscape:connector-curvature="0"
   style="fill:none;stroke:#a0a0a0;stroke-width:71;stroke-linecap:round;stroke-linejoin:round" />
         <path
   d="m 6970,14130 h 409 v 528 h -409 z"
   id="path126"
   inkscape:connector-curvature="0"
   style="fill:#c0c0c0;stroke:none" />
         <path
   d="m 6970,14130 h 409 v 528 h -409 z"
   id="path128"
   inkscape:connector-curvature="0"
   style="fill:none;stroke:#a0a0a0;stroke-width:71;stroke-linecap:round;stroke-linejoin:round" />
         <path
   d="m 13870,14166 h 409 v 533 h -409 z"
   id="path130"
   inkscape:connector-curvature="0"
   style="fill:#a0a0a0;stroke:none" />
         <path
   d="m 13870,14166 h 409 v 533 h -409 z"
   id="path132"
   inkscape:connector-curvature="0"
   style="fill:none;stroke:#a0a0a0;stroke-width:71;stroke-linecap:round;stroke-linejoin:round" />
         <path
   d="m 13808,14130 h 405 v 528 h -405 z"
   id="path134"
   inkscape:connector-curvature="0"
   style="fill:#c0c0c0;stroke:none" />
         <path
   d="m 13808,14130 h 405 v 528 h -405 z"
   id="path136"
   inkscape:connector-curvature="0"
   style="fill:none;stroke:#a0a0a0;stroke-width:71;stroke-linecap:round;stroke-linejoin:round" />
         <path
   d="m 5082,12719 212,233 h 10627 l -150,-242 z"
   id="path138"
   inkscape:connector-curvature="0"
   style="fill:#a0a0a0;stroke:none" />
         <path
   d="m 5082,12719 212,233 h 10627 l -150,-242 z"
   id="path140"
   inkscape:connector-curvature="0"
   style="fill:none;stroke:#808080;stroke-width:71;stroke-linecap:round;stroke-linejoin:round" />
         <path
   d="m 15771,11121 -4,1589 150,229 z"
   id="path142"
   inkscape:connector-curvature="0"
   style="fill:#a0a0a0;stroke:none" />
         <path
   d="m 15771,11121 -4,1589 150,229 z"
   id="path144"
   inkscape:connector-curvature="0"
   style="fill:none;stroke:#808080;stroke-width:71;stroke-linecap:round;stroke-linejoin:round" />
         <path
   d="m 5052,11073 h 10741 v 1671 H 5052 Z"
   id="path146"
   inkscape:connector-curvature="0"
   style="fill:#c0c0c0;stroke:none" />
         <path
   d="m 5052,11073 h 10741 v 1671 H 5052 Z"
   id="path148"
   inkscape:connector-curvature="0"
   style="fill:none;stroke:#808080;stroke-width:71;stroke-linecap:round;stroke-linejoin:round" />
         <path
   d="m 5660,19292 c 0,23 -7,47 -20,68 -13,21 -31,38 -54,50 -22,12 -48,18 -73,18 -26,0 -52,-6 -74,-18 -23,-12 -41,-29 -54,-50 -13,-21 -20,-45 -20,-68 0,-24 7,-48 20,-69 13,-21 31,-38 54,-50 22,-12 48,-18 74,-18 25,0 51,6 73,18 23,12 41,29 54,50 13,21 20,45 20,69 z"
   id="path150"
   inkscape:connector-curvature="0"
   style="fill:#606060;stroke:none" />
         <path
   d="m 5615,19334 c 0,15 -5,29 -14,42 -9,13 -22,24 -37,32 -16,7 -34,11 -52,11 -18,0 -36,-4 -51,-11 -16,-8 -29,-19 -38,-32 -9,-13 -14,-27 -14,-42 0,-16 5,-30 14,-43 9,-13 22,-24 38,-32 15,-7 33,-11 51,-11 18,0 36,4 52,11 15,8 28,19 37,32 9,13 14,27 14,43 z"
   id="path152"
   inkscape:connector-curvature="0"
   style="fill:#808080;stroke:none" />
         <path
   d="m 15567,19292 c 0,23 -7,47 -19,68 -13,21 -31,38 -54,50 -22,12 -47,18 -72,18 -25,0 -50,-6 -73,-18 -22,-12 -40,-29 -53,-50 -12,-21 -19,-45 -19,-68 0,-24 7,-48 19,-69 13,-21 31,-38 53,-50 23,-12 48,-18 73,-18 25,0 50,6 72,18 23,12 41,29 54,50 12,21 19,45 19,69 z"
   id="path154"
   inkscape:connector-curvature="0"
   style="fill:#606060;stroke:none" />
         <path
   d="m 15528,19334 c 0,15 -5,29 -14,42 -9,13 -23,24 -39,32 -16,7 -34,11 -53,11 -18,0 -36,-4 -52,-11 -16,-8 -30,-19 -39,-32 -9,-13 -14,-27 -14,-42 0,-16 5,-30 14,-43 9,-13 23,-24 39,-32 16,-7 34,-11 52,-11 19,0 37,4 53,11 16,8 30,19 39,32 9,13 14,27 14,43 z"
   id="path156"
   inkscape:connector-curvature="0"
   style="fill:#808080;stroke:none" />
         <path
   d="m 5329,11271 h 10163 v 1221 H 5329 Z"
   id="path158"
   inkscape:connector-curvature="0"
   style="fill:#a0a0a0;stroke:none" />
         <path
   d="m 5329,11271 h 10163 v 1221 H 5329 Z"
   id="path160"
   inkscape:connector-curvature="0"
   style="fill:none;stroke:#808080;stroke-width:71;stroke-linecap:round;stroke-linejoin:round" />
         <path
   d="m 9326,11814 h 2394 v 308 H 9326 Z"
   id="path162"
   inkscape:connector-curvature="0"
   style="fill:#404040;stroke:none" />
        </g>
        <defs
   id="defs169">
         <clipPath
   id="clip_path_2"
   clipPathUnits="userSpaceOnUse">
          <path
   d="m 7310,11108 h 2858 v 1636 H 7310 Z"
   id="path166"
   inkscape:connector-curvature="0" />
         </clipPath>
        </defs>
        <g
   clip-path="url(#clip_path_2)"
   id="g173">
         <path
   d="m 8722,9507 v 4804"
   id="path171"
   inkscape:connector-curvature="0"
   style="fill:none;stroke:#808080;stroke-width:71;stroke-linecap:round;stroke-linejoin:miter" />
        </g>
        <g
   clip-path="url(#clip_path_1)"
   id="g195">
         <path
   d="m 5356,11276 h 10092 v 180 H 5356 Z"
   id="path175"
   inkscape:connector-curvature="0"
   style="fill:#808080;stroke:none" />
         <path
   d="m 5484,11598 h 842 v 696 h -842 z"
   id="path177"
   inkscape:connector-curvature="0"
   style="fill:#4040ff;stroke:none" />
         <path
   d="m 12621,11611 h 506 v 273 h -506 z"
   id="path179"
   inkscape:connector-curvature="0"
   style="fill:#808080;stroke:none" />
         <path
   d="m 13217,11611 h 506 v 273 h -506 z"
   id="path181"
   inkscape:connector-curvature="0"
   style="fill:#808080;stroke:none" />
         <path
   d="m 14046,11611 h 506 v 273 h -506 z"
   id="path183"
   inkscape:connector-curvature="0"
   style="fill:#808080;stroke:none" />
         <path
   d="m 14624,11611 h 502 v 273 h -502 z"
   id="path185"
   inkscape:connector-curvature="0"
   style="fill:#004040;stroke:none" />
         <path
   d="m 12621,12039 h 506 v 273 h -506 z"
   id="path187"
   inkscape:connector-curvature="0"
   style="fill:#808080;stroke:none" />
         <path
   d="m 13217,12039 h 506 v 273 h -506 z"
   id="path189"
   inkscape:connector-curvature="0"
   style="fill:#808080;stroke:none" />
         <path
   d="m 14046,12039 h 506 v 273 h -506 z"
   id="path191"
   inkscape:connector-curvature="0"
   style="fill:#808080;stroke:none" />
         <path
   d="m 14624,12039 h 502 v 273 h -502 z"
   id="path193"
   inkscape:connector-curvature="0"
   style="fill:#004040;stroke:none" />
        </g>
       </g>
      </g>
     </g>
    </g>
   </g>
  </g>
 </g>
</svg>