<?xml version="1.0" encoding="UTF-8" standalone="no"?>
<svg
   xmlns:ooo="http://xml.openoffice.org/svg/export"
   xmlns:dc="http://purl.org/dc/elements/1.1/"
   xmlns:cc="http://creativecommons.org/ns#"
   xmlns:rdf="http://www.w3.org/1999/02/22-rdf-syntax-ns#"
   xmlns:svg="http://www.w3.org/2000/svg"
   xmlns="http://www.w3.org/2000/svg"
   xmlns:sodipodi="http://sodipodi.sourceforge.net/DTD/sodipodi-0.dtd"
   xmlns:inkscape="http://www.inkscape.org/namespaces/inkscape"
   version="1.2"
   width="86.269997mm"
   height="66.080002mm"
   viewBox="0 0 8626.9997 6608.0002"
   preserveAspectRatio="xMidYMid"
   xml:space="preserve"
   id="svg70"
   sodipodi:docname="real.svg"
   style="fill-rule:evenodd;stroke-width:28.22200012;stroke-linejoin:round"
   inkscape:version="0.92.5 (2060ec1f9f, 2020-04-08)"><metadata
   id="metadata74"><rdf:RDF><cc:Work
       rdf:about=""><dc:format>image/svg+xml</dc:format><dc:type
         rdf:resource="http://purl.org/dc/dcmitype/StillImage" /></cc:Work></rdf:RDF></metadata><sodipodi:namedview
   pagecolor="#ffffff"
   bordercolor="#666666"
   borderopacity="1"
   objecttolerance="10"
   gridtolerance="10"
   guidetolerance="10"
   inkscape:pageopacity="0"
   inkscape:pageshadow="2"
   inkscape:window-width="664"
   inkscape:window-height="487"
   id="namedview72"
   showgrid="false"
   inkscape:zoom="0.2102413"
   inkscape:cx="163.04882"
   inkscape:cy="124.87559"
   inkscape:window-x="0"
   inkscape:window-y="0"
   inkscape:window-maximized="0"
   inkscape:current-layer="svg70" />
 <defs
   class="ClipPathGroup"
   id="defs8">
  <clipPath
   id="presentation_clip_path"
   clipPathUnits="userSpaceOnUse">
   <rect
   x="0"
   y="0"
   width="21000"
   height="29700"
   id="rect2" />
  </clipPath>
  <clipPath
   id="presentation_clip_path_shrink"
   clipPathUnits="userSpaceOnUse">
   <rect
   x="21"
   y="29"
   width="20958"
   height="29641"
   id="rect5" />
  </clipPath>
 </defs>
 <defs
   class="TextShapeIndex"
   id="defs12">
  <g
   ooo:slide="id1"
   ooo:id-list="id3"
   id="g10" />
 </defs>
 <defs
   class="EmbeddedBulletChars"
   id="defs44">
  <g
   id="bullet-char-template-57356"
   transform="matrix(4.8828125e-4,0,0,-4.8828125e-4,0,0)">
   <path
   d="M 580,1141 1163,571 580,0 -4,571 Z"
   id="path14"
   inkscape:connector-curvature="0" />
  </g>
  <g
   id="bullet-char-template-57354"
   transform="matrix(4.8828125e-4,0,0,-4.8828125e-4,0,0)">
   <path
   d="M 8,1128 H 1137 V 0 H 8 Z"
   id="path17"
   inkscape:connector-curvature="0" />
  </g>
  <g
   id="bullet-char-template-10146"
   transform="matrix(4.8828125e-4,0,0,-4.8828125e-4,0,0)">
   <path
   d="M 174,0 602,739 174,1481 1456,739 Z M 1358,739 309,1346 659,739 Z"
   id="path20"
   inkscape:connector-curvature="0" />
  </g>
  <g
   id="bullet-char-template-10132"
   transform="matrix(4.8828125e-4,0,0,-4.8828125e-4,0,0)">
   <path
   d="M 2015,739 1276,0 H 717 l 543,543 H 174 v 393 h 1086 l -543,545 h 557 z"
   id="path23"
   inkscape:connector-curvature="0" />
  </g>
  <g
   id="bullet-char-template-10007"
   transform="matrix(4.8828125e-4,0,0,-4.8828125e-4,0,0)">
   <path
   d="m 0,-2 c -7,16 -16,29 -25,39 l 381,530 c -94,256 -141,385 -141,387 0,25 13,38 40,38 9,0 21,-2 34,-5 21,4 42,12 65,25 l 27,-13 111,-251 280,301 64,-25 24,25 c 21,-10 41,-24 62,-43 C 886,937 835,863 770,784 769,783 710,716 594,584 L 774,223 c 0,-27 -21,-55 -63,-84 l 16,-20 C 717,90 699,76 672,76 641,76 570,178 457,381 L 164,-76 c -22,-34 -53,-51 -92,-51 -42,0 -63,17 -64,51 -7,9 -10,24 -10,44 0,9 1,19 2,30 z"
   id="path26"
   inkscape:connector-curvature="0" />
  </g>
  <g
   id="bullet-char-template-10004"
   transform="matrix(4.8828125e-4,0,0,-4.8828125e-4,0,0)">
   <path
   d="M 285,-33 C 182,-33 111,30 74,156 52,228 41,333 41,471 c 0,78 14,145 41,201 34,71 87,106 158,106 53,0 88,-31 106,-94 l 23,-176 c 8,-64 28,-97 59,-98 l 735,706 c 11,11 33,17 66,17 42,0 63,-15 63,-46 V 965 c 0,-36 -10,-64 -30,-84 L 442,47 C 390,-6 338,-33 285,-33 Z"
   id="path29"
   inkscape:connector-curvature="0" />
  </g>
  <g
   id="bullet-char-template-9679"
   transform="matrix(4.8828125e-4,0,0,-4.8828125e-4,0,0)">
   <path
   d="M 813,0 C 632,0 489,54 383,161 276,268 223,411 223,592 c 0,181 53,324 160,431 106,107 249,161 430,161 179,0 323,-54 432,-161 108,-107 162,-251 162,-431 0,-180 -54,-324 -162,-431 C 1136,54 992,0 813,0 Z"
   id="path32"
   inkscape:connector-curvature="0" />
  </g>
  <g
   id="bullet-char-template-8226"
   transform="matrix(4.8828125e-4,0,0,-4.8828125e-4,0,0)">
   <path
   d="m 346,457 c -73,0 -137,26 -191,78 -54,51 -81,114 -81,188 0,73 27,136 81,188 54,52 118,78 191,78 73,0 134,-26 185,-79 51,-51 77,-114 77,-187 0,-75 -25,-137 -76,-188 -50,-52 -112,-78 -186,-78 z"
   id="path35"
   inkscape:connector-curvature="0" />
  </g>
  <g
   id="bullet-char-template-8211"
   transform="matrix(4.8828125e-4,0,0,-4.8828125e-4,0,0)">
   <path
   d="M -4,459 H 1135 V 606 H -4 Z"
   id="path38"
   inkscape:connector-curvature="0" />
  </g>
  <g
   id="bullet-char-template-61548"
   transform="matrix(4.8828125e-4,0,0,-4.8828125e-4,0,0)">
   <path
   d="m 173,740 c 0,163 58,303 173,419 116,115 255,173 419,173 163,0 302,-58 418,-173 116,-116 174,-256 174,-419 0,-163 -58,-303 -174,-418 C 1067,206 928,148 765,148 601,148 462,206 346,322 231,437 173,577 173,740 Z"
   id="path41"
   inkscape:connector-curvature="0" />
  </g>
 </defs>
 <g
   id="g49"
   transform="translate(-6186,-11546)">
  <g
   id="id2"
   class="Master_Slide">
   <g
   id="bg-id2"
   class="Background" />
   <g
   id="bo-id2"
   class="BackgroundObjects" />
  </g>
 </g>
 <g
   class="SlideGroup"
   id="g68"
   transform="translate(-6186,-11546)">
  <g
   id="g66">
   <g
   id="container-id1">
    <g
   id="id1"
   class="Slide"
   clip-path="url(#presentation_clip_path)">
     <g
   class="Page"
   id="g62">
      <g
   class="Graphic"
   id="g60">
       <g
   id="id3">
        <rect
   class="BoundingBox"
   x="6186"
   y="11546"
   width="8627"
   height="6608"
   id="rect51"
   style="fill:none;stroke:none" />
        <path
   d="m 6186,17382 v -5342 h 2373 172 l 163,9 154,9 146,17 123,22 124,22 110,27 97,35 88,40 84,48 84,49 79,62 71,66 66,75 66,79 58,93 48,88 49,97 39,97 31,102 22,101 18,102 13,105 5,111 -9,137 -18,136 -31,128 -35,124 -53,114 -66,115 -75,102 -84,101 -101,93 -111,83 -123,75 -132,71 -150,57 -164,44 -172,45 -185,30 133,67 114,66 97,66 84,66 150,150 146,168 145,185 141,207 935,1456 h -891 l -710,-1112 -282,-427 -229,-309 -97,-119 -97,-97 -89,-80 -79,-57 -79,-53 -80,-35 -84,-36 -79,-22 -154,-22 -111,-4 h -128 -824 v 2373 h -706 l 706,-2986 h 1526 l 225,-9 207,-18 176,-31 150,-39 128,-58 115,-75 97,-88 79,-101 31,-58 31,-57 40,-115 26,-128 13,-123 -8,-93 -14,-93 -22,-79 -22,-79 -39,-75 -49,-71 -57,-70 -62,-62 -75,-58 -88,-48 -93,-44 -101,-35 -115,-27 -128,-18 -132,-13 -146,-4 H 6892 v 1769 z"
   id="path53"
   inkscape:connector-curvature="0"
   style="fill:#000000;stroke:none" />
        <path
   d="m 12864,18150 v -653 l -234,-40 -216,-48 -190,-62 -163,-71 -150,-97 -71,-53 -70,-57 -62,-71 -62,-75 -66,-79 -57,-84 -53,-88 -49,-97 -39,-97 -36,-106 -26,-115 -22,-115 -18,-119 -9,-123 658,-128 17,128 27,119 26,110 35,106 31,93 44,84 40,75 49,61 70,84 75,71 75,66 84,53 84,44 92,31 89,26 97,18 v -2091 l -203,-49 -208,-66 -211,-88 -208,-110 -79,-44 -71,-53 -66,-58 -66,-53 -57,-61 -53,-66 -49,-71 -44,-75 -44,-84 -31,-79 -31,-84 -26,-88 -18,-88 -13,-93 -9,-97 v -93 l 9,-167 22,-164 40,-158 53,-146 70,-137 84,-128 102,-123 119,-110 88,-75 97,-58 110,-53 115,-48 132,-40 137,-35 150,-27 159,-17 v -318 h 383 v 318 l 141,13 133,26 123,31 119,40 111,40 101,57 93,53 92,70 102,93 92,102 80,110 70,119 62,128 49,137 35,141 26,154 -679,97 -18,-92 -17,-84 -27,-84 -26,-79 -31,-71 -40,-66 -39,-62 -45,-53 -48,-48 -53,-45 -57,-39 -58,-36 -70,-35 -66,-26 -80,-22 -75,-18 v 1888 l 230,57 185,53 247,84 145,71 133,79 119,84 101,93 88,101 84,115 66,119 58,128 44,132 35,141 18,150 9,150 -9,168 -18,163 -35,150 -49,146 -61,136 -71,133 -88,123 -102,119 -114,106 -119,97 -133,80 -132,70 -150,49 -150,44 -163,26 -168,18 v 662 h -383 v -5744 l -97,18 -89,22 -79,31 -79,35 -75,40 -67,48 -61,53 -62,62 -49,62 -44,66 -39,70 -31,71 -27,75 -17,79 -9,75 -5,84 5,84 9,75 13,79 22,71 26,71 31,61 40,67 44,52 53,58 57,53 66,48 75,49 89,44 88,40 101,39 111,36 v -1818 l 383,4535 97,-18 89,-26 83,-27 84,-35 75,-48 71,-53 70,-62 66,-66 62,-75 49,-71 44,-84 31,-88 30,-88 23,-93 8,-101 5,-102 -5,-88 -8,-84 -14,-79 -22,-71 -22,-70 -31,-66 -35,-58 -40,-57 -110,-102 -75,-53 -84,-48 -92,-49 -106,-48 -115,-44 -128,-44 v 1998 z"
   id="path55"
   inkscape:connector-curvature="0"
   style="fill:#000000;stroke:none" />
        <path
   d="m 12859,11572 v 6578 h 388 v -6578 z"
   id="path57"
   inkscape:connector-curvature="0"
   style="fill:#000000;stroke:none" />
       </g>
      </g>
     </g>
    </g>
   </g>
  </g>
 </g>
</svg>