<?xml version="1.0" encoding="UTF-8" standalone="no"?>
<svg
   xmlns:ooo="http://xml.openoffice.org/svg/export"
   xmlns:dc="http://purl.org/dc/elements/1.1/"
   xmlns:cc="http://creativecommons.org/ns#"
   xmlns:rdf="http://www.w3.org/1999/02/22-rdf-syntax-ns#"
   xmlns:svg="http://www.w3.org/2000/svg"
   xmlns="http://www.w3.org/2000/svg"
   xmlns:sodipodi="http://sodipodi.sourceforge.net/DTD/sodipodi-0.dtd"
   xmlns:inkscape="http://www.inkscape.org/namespaces/inkscape"
   version="1.2"
   width="89.209999mm"
   height="95.779999mm"
   viewBox="0 0 8920.9999 9577.9999"
   preserveAspectRatio="xMidYMid"
   xml:space="preserve"
   id="svg265"
   sodipodi:docname="redsquar.svg"
   style="fill-rule:evenodd;stroke-width:28.22200012;stroke-linejoin:round"
   inkscape:version="0.92.5 (2060ec1f9f, 2020-04-08)"><metadata
   id="metadata269"><rdf:RDF><cc:Work
       rdf:about=""><dc:format>image/svg+xml</dc:format><dc:type
         rdf:resource="http://purl.org/dc/dcmitype/StillImage" /></cc:Work></rdf:RDF></metadata><sodipodi:namedview
   pagecolor="#ffffff"
   bordercolor="#666666"
   borderopacity="1"
   objecttolerance="10"
   gridtolerance="10"
   guidetolerance="10"
   inkscape:pageopacity="0"
   inkscape:pageshadow="2"
   inkscape:window-width="664"
   inkscape:window-height="487"
   id="namedview267"
   showgrid="false"
   inkscape:zoom="0.2102413"
   inkscape:cx="168.60473"
   inkscape:cy="181.00157"
   inkscape:window-x="0"
   inkscape:window-y="0"
   inkscape:window-maximized="0"
   inkscape:current-layer="svg265" />
 <defs
   class="ClipPathGroup"
   id="defs8">
  <clipPath
   id="presentation_clip_path"
   clipPathUnits="userSpaceOnUse">
   <rect
   x="0"
   y="0"
   width="21000"
   height="29700"
   id="rect2" />
  </clipPath>
  <clipPath
   id="presentation_clip_path_shrink"
   clipPathUnits="userSpaceOnUse">
   <rect
   x="21"
   y="29"
   width="20958"
   height="29641"
   id="rect5" />
  </clipPath>
 </defs>
 <defs
   class="TextShapeIndex"
   id="defs12">
  <g
   ooo:slide="id1"
   ooo:id-list="id3"
   id="g10" />
 </defs>
 <defs
   class="EmbeddedBulletChars"
   id="defs44">
  <g
   id="bullet-char-template-57356"
   transform="matrix(4.8828125e-4,0,0,-4.8828125e-4,0,0)">
   <path
   d="M 580,1141 1163,571 580,0 -4,571 Z"
   id="path14"
   inkscape:connector-curvature="0" />
  </g>
  <g
   id="bullet-char-template-57354"
   transform="matrix(4.8828125e-4,0,0,-4.8828125e-4,0,0)">
   <path
   d="M 8,1128 H 1137 V 0 H 8 Z"
   id="path17"
   inkscape:connector-curvature="0" />
  </g>
  <g
   id="bullet-char-template-10146"
   transform="matrix(4.8828125e-4,0,0,-4.8828125e-4,0,0)">
   <path
   d="M 174,0 602,739 174,1481 1456,739 Z M 1358,739 309,1346 659,739 Z"
   id="path20"
   inkscape:connector-curvature="0" />
  </g>
  <g
   id="bullet-char-template-10132"
   transform="matrix(4.8828125e-4,0,0,-4.8828125e-4,0,0)">
   <path
   d="M 2015,739 1276,0 H 717 l 543,543 H 174 v 393 h 1086 l -543,545 h 557 z"
   id="path23"
   inkscape:connector-curvature="0" />
  </g>
  <g
   id="bullet-char-template-10007"
   transform="matrix(4.8828125e-4,0,0,-4.8828125e-4,0,0)">
   <path
   d="m 0,-2 c -7,16 -16,29 -25,39 l 381,530 c -94,256 -141,385 -141,387 0,25 13,38 40,38 9,0 21,-2 34,-5 21,4 42,12 65,25 l 27,-13 111,-251 280,301 64,-25 24,25 c 21,-10 41,-24 62,-43 C 886,937 835,863 770,784 769,783 710,716 594,584 L 774,223 c 0,-27 -21,-55 -63,-84 l 16,-20 C 717,90 699,76 672,76 641,76 570,178 457,381 L 164,-76 c -22,-34 -53,-51 -92,-51 -42,0 -63,17 -64,51 -7,9 -10,24 -10,44 0,9 1,19 2,30 z"
   id="path26"
   inkscape:connector-curvature="0" />
  </g>
  <g
   id="bullet-char-template-10004"
   transform="matrix(4.8828125e-4,0,0,-4.8828125e-4,0,0)">
   <path
   d="M 285,-33 C 182,-33 111,30 74,156 52,228 41,333 41,471 c 0,78 14,145 41,201 34,71 87,106 158,106 53,0 88,-31 106,-94 l 23,-176 c 8,-64 28,-97 59,-98 l 735,706 c 11,11 33,17 66,17 42,0 63,-15 63,-46 V 965 c 0,-36 -10,-64 -30,-84 L 442,47 C 390,-6 338,-33 285,-33 Z"
   id="path29"
   inkscape:connector-curvature="0" />
  </g>
  <g
   id="bullet-char-template-9679"
   transform="matrix(4.8828125e-4,0,0,-4.8828125e-4,0,0)">
   <path
   d="M 813,0 C 632,0 489,54 383,161 276,268 223,411 223,592 c 0,181 53,324 160,431 106,107 249,161 430,161 179,0 323,-54 432,-161 108,-107 162,-251 162,-431 0,-180 -54,-324 -162,-431 C 1136,54 992,0 813,0 Z"
   id="path32"
   inkscape:connector-curvature="0" />
  </g>
  <g
   id="bullet-char-template-8226"
   transform="matrix(4.8828125e-4,0,0,-4.8828125e-4,0,0)">
   <path
   d="m 346,457 c -73,0 -137,26 -191,78 -54,51 -81,114 -81,188 0,73 27,136 81,188 54,52 118,78 191,78 73,0 134,-26 185,-79 51,-51 77,-114 77,-187 0,-75 -25,-137 -76,-188 -50,-52 -112,-78 -186,-78 z"
   id="path35"
   inkscape:connector-curvature="0" />
  </g>
  <g
   id="bullet-char-template-8211"
   transform="matrix(4.8828125e-4,0,0,-4.8828125e-4,0,0)">
   <path
   d="M -4,459 H 1135 V 606 H -4 Z"
   id="path38"
   inkscape:connector-curvature="0" />
  </g>
  <g
   id="bullet-char-template-61548"
   transform="matrix(4.8828125e-4,0,0,-4.8828125e-4,0,0)">
   <path
   d="m 173,740 c 0,163 58,303 173,419 116,115 255,173 419,173 163,0 302,-58 418,-173 116,-116 174,-256 174,-419 0,-163 -58,-303 -174,-418 C 1067,206 928,148 765,148 601,148 462,206 346,322 231,437 173,577 173,740 Z"
   id="path41"
   inkscape:connector-curvature="0" />
  </g>
 </defs>
 <g
   id="g49"
   transform="translate(-6039,-10061)">
  <g
   id="id2"
   class="Master_Slide">
   <g
   id="bg-id2"
   class="Background" />
   <g
   id="bo-id2"
   class="BackgroundObjects" />
  </g>
 </g>
 <g
   class="SlideGroup"
   id="g263"
   transform="translate(-6039,-10061)">
  <g
   id="g261">
   <g
   id="container-id1">
    <g
   id="id1"
   class="Slide"
   clip-path="url(#presentation_clip_path)">
     <g
   class="Page"
   id="g257">
      <g
   class="Graphic"
   id="g255">
       <g
   id="id3">
        <rect
   class="BoundingBox"
   x="6039"
   y="10061"
   width="8921"
   height="9578"
   id="rect51"
   style="fill:none;stroke:none" />
        <defs
   id="defs56">
         <clipPath
   id="clip_path_1"
   clipPathUnits="userSpaceOnUse">
          <path
   d="m 6039,10061 h 8920 v 9577 H 6039 Z"
   id="path53"
   inkscape:connector-curvature="0" />
         </clipPath>
        </defs>
        <g
   clip-path="url(#clip_path_1)"
   id="g252">
         <path
   d="m 12180,18527 v -2197 l 1933,-317 v 2647 z"
   id="path58"
   inkscape:connector-curvature="0"
   style="fill:#200000;stroke:none" />
         <path
   d="m 11289,13127 914,9 v 715 h -914 z"
   id="path60"
   inkscape:connector-curvature="0"
   style="fill:#c0c0c0;stroke:none" />
         <path
   d="m 11166,13162 v -547 h -225 v 592 z"
   id="path62"
   inkscape:connector-curvature="0"
   style="fill:#202020;stroke:none" />
         <path
   d="m 10694,13771 h 1781 v 290 h -1781 z"
   id="path64"
   inkscape:connector-curvature="0"
   style="fill:#606060;stroke:none" />
         <path
   d="m 10235,14901 101,-622 164,-58 v -172 h 1822 348 l 155,238 4,398 -1628,-93 z"
   id="path66"
   inkscape:connector-curvature="0"
   style="fill:#404040;stroke:none" />
         <path
   d="m 11302,13154 14,900 -437,-40 v -754 l 132,-106 z"
   id="path68"
   inkscape:connector-curvature="0"
   style="fill:#202020;stroke:none" />
         <path
   d="m 11973,13154 v -543 h -459 v 543 z"
   id="path70"
   inkscape:connector-curvature="0"
   style="fill:#a0a0a0;stroke:none" />
         <path
   d="m 11514,12615 v 539 h -348 v -539 z"
   id="path72"
   inkscape:connector-curvature="0"
   style="fill:#606060;stroke:none" />
         <path
   d="m 11510,12492 h 462 v 131 h -462 z"
   id="path74"
   inkscape:connector-curvature="0"
   style="fill:#c0c0c0;stroke:none" />
         <path
   d="m 11510,12492 v 128 h -574 v -128 z"
   id="path76"
   inkscape:connector-curvature="0"
   style="fill:#808080;stroke:none" />
         <path
   d="m 11973,12364 v 128 h -1037 v -128 z"
   id="path78"
   inkscape:connector-curvature="0"
   style="fill:#606060;stroke:none" />
         <path
   d="m 11532,13154 9,-84 31,-75 75,-84 70,-71 35,-132 45,132 70,71 66,71 40,79 v 88 z"
   id="path80"
   inkscape:connector-curvature="0"
   style="fill:#c0c0c0;stroke:none" />
         <path
   d="m 11827,12712 c 0,11 -3,22 -10,32 -6,10 -15,18 -26,24 -11,6 -24,9 -36,9 -13,0 -26,-3 -37,-9 -11,-6 -20,-14 -26,-24 -7,-10 -10,-21 -10,-32 0,-12 3,-23 10,-33 6,-10 15,-18 26,-24 11,-6 24,-9 37,-9 12,0 25,3 36,9 11,6 20,14 26,24 7,10 10,21 10,33 z"
   id="path82"
   inkscape:connector-curvature="0"
   style="fill:#e0e0e0;stroke:none" />
         <path
   d="m 11125,12778 c 0,11 -3,22 -10,32 -6,10 -15,18 -26,24 -11,6 -24,9 -36,9 -13,0 -26,-3 -37,-9 -11,-6 -20,-14 -26,-24 -7,-10 -10,-21 -10,-32 0,-12 3,-23 10,-33 6,-10 15,-18 26,-24 11,-6 24,-9 37,-9 12,0 25,3 36,9 11,6 20,14 26,24 7,10 10,21 10,33 z"
   id="path84"
   inkscape:connector-curvature="0"
   style="fill:#404040;stroke:none" />
         <path
   d="m 11095,11689 291,-1628 397,1628 z"
   id="path86"
   inkscape:connector-curvature="0"
   style="fill:#c0c0c0;stroke:none" />
         <path
   d="m 11126,11662 251,-1416 -145,1416 z"
   id="path88"
   inkscape:connector-curvature="0"
   style="fill:#404040;stroke:none" />
         <path
   d="m 11272,11662 105,-1482 67,1482 z"
   id="path90"
   inkscape:connector-curvature="0"
   style="fill:#808080;stroke:none" />
         <path
   d="m 11488,11649 -97,-1456 242,1456 z"
   id="path92"
   inkscape:connector-curvature="0"
   style="fill:#e0e0e0;stroke:none" />
         <path
   d="m 10958,12373 v -543 l 106,-145 h 755 l 119,136 v 552 z"
   id="path94"
   inkscape:connector-curvature="0"
   style="fill:#202020;stroke:none" />
         <path
   d="m 11576,11865 h 303 v 502 h -303 z"
   id="path96"
   inkscape:connector-curvature="0"
   style="fill:#404040;stroke:none" />
         <path
   d="m 11197,11874 h 281 v 498 h -281 z"
   id="path98"
   inkscape:connector-curvature="0"
   style="fill:#404040;stroke:none" />
         <path
   d="m 11576,11848 4,-93 89,-84 44,-106 66,120 79,79 9,84 z"
   id="path100"
   inkscape:connector-curvature="0"
   style="fill:#808080;stroke:none" />
         <path
   d="m 11192,11835 5,-93 88,-84 44,-106 66,119 80,80 8,84 z"
   id="path102"
   inkscape:connector-curvature="0"
   style="fill:#606060;stroke:none" />
         <path
   d="m 10958,11830 v -93 l 53,-83 22,-106 40,119 44,79 5,84 z"
   id="path104"
   inkscape:connector-curvature="0"
   style="fill:#404040;stroke:none" />
         <path
   d="m 11792,13012 -75,-4 -75,22 -62,35 -79,71 -35,84 -14,97 v 97 l 14,88 31,88 39,75 66,62 75,44 98,27 128,-5 88,-39 57,-58 44,-84 22,-101 v -119 l -17,-106 -36,-88 -39,-62 -62,-57 -75,-44 z"
   id="path106"
   inkscape:connector-curvature="0"
   style="fill:#e0e0e0;stroke:none" />
         <path
   d="m 12061,13396 h -110 l 4,58 115,4 -4,49 -18,61 -225,-181 9,-101 -49,-9 -4,80 -53,-49 -31,31 84,62 -22,331 -80,-36 40,-84 -44,-39 -66,75 -44,-62 79,-53 -44,-75 -71,35 -13,-35 -4,-40 163,-4 -9,-35 -97,-18 -57,-13 4,-53 9,-40 71,44 39,-53 -75,-48 36,-53 61,62 53,-5 -8,-62 -27,-35 35,-22 h 22 v 115 h 89 v 31 l 39,-53 9,26 -17,31 48,40 44,-36 -4,-61 26,13 40,26 26,58 h -97 l 5,57 h 88 22 z"
   id="path108"
   inkscape:connector-curvature="0"
   style="fill:#404040;stroke:none" />
         <path
   d="m 12022,13621 -49,62 -84,-79 h -22 l 9,128 h -66 l 9,-283 z"
   id="path110"
   inkscape:connector-curvature="0"
   style="fill:#404040;stroke:none" />
         <path
   d="m 11038,13193 -106,22 -80,89 -39,123 -13,110 v 128 l 26,84 53,88 106,49 79,-22 80,-124 26,-150 v -176 l -66,-150 z"
   id="path112"
   inkscape:connector-curvature="0"
   style="fill:#404040;stroke:none" />
         <path
   d="m 10208,14914 874,-282 -5,-128 -869,291 z"
   id="path114"
   inkscape:connector-curvature="0"
   style="fill:#c0c0c0;stroke:none" />
         <path
   d="m 10473,14393 -115,-644 -26,644 z"
   id="path116"
   inkscape:connector-curvature="0"
   style="fill:#ffffff;stroke:none" />
         <path
   d="m 10336,14389 27,-635 -128,675 z"
   id="path118"
   inkscape:connector-curvature="0"
   style="fill:#808080;stroke:none" />
         <path
   d="m 10314,14398 v 481 l -101,31 v -477 z"
   id="path120"
   inkscape:connector-curvature="0"
   style="fill:#808080;stroke:none" />
         <path
   d="m 10314,14874 v -481 h 181 v 305 l -66,22 -40,132 z"
   id="path122"
   inkscape:connector-curvature="0"
   style="fill:#e0e0e0;stroke:none" />
         <path
   d="m 10314,14526 172,-9"
   id="path124"
   inkscape:connector-curvature="0"
   style="fill:none;stroke:#808080;stroke-width:35;stroke-linecap:round;stroke-linejoin:round" />
         <path
   d="m 10698,14173 h 384 v 331 l -93,26 -97,159 -17,-93 -31,-84 -40,-88 -40,-57 -39,-66 -18,-49 z"
   id="path126"
   inkscape:connector-curvature="0"
   style="fill:#606060;stroke:none" />
         <path
   d="m 10513,14817 26,-119 49,-168 44,-97 35,-93 31,-172 22,106 40,80 53,79 44,97 22,75 13,93 z"
   id="path128"
   inkscape:connector-curvature="0"
   style="fill:#202020;stroke:none" />
         <path
   d="m 11227,14495 v 106 l 1624,92 v -106 z"
   id="path130"
   inkscape:connector-curvature="0"
   style="fill:#e0e0e0;stroke:none" />
         <path
   d="m 11633,14151 v 472 l 172,9 v -468 z"
   id="path132"
   inkscape:connector-curvature="0"
   style="fill:#e0e0e0;stroke:none" />
         <path
   d="m 11664,14332 v 260 h 111 v -256 z"
   id="path134"
   inkscape:connector-curvature="0"
   style="fill:#a0a0a0;stroke:none" />
         <path
   d="m 11633,14151 v 441 l -75,-75 v -322 z"
   id="path136"
   inkscape:connector-curvature="0"
   style="fill:#808080;stroke:none" />
         <path
   d="m 11633,14274 159,9"
   id="path138"
   inkscape:connector-curvature="0"
   style="fill:none;stroke:#808080;stroke-width:35;stroke-linecap:round;stroke-linejoin:round" />
         <path
   d="m 11770,14160 -66,-309 -44,304 z"
   id="path140"
   inkscape:connector-curvature="0"
   style="fill:#ffffff;stroke:none" />
         <path
   d="m 11704,13846 -106,327 62,-22 z"
   id="path142"
   inkscape:connector-curvature="0"
   style="fill:#808080;stroke:none" />
         <path
   d="m 11964,14177 v 463 l 168,9 v -467 z"
   id="path144"
   inkscape:connector-curvature="0"
   style="fill:#e0e0e0;stroke:none" />
         <path
   d="m 11991,14358 v 252 h 123 v -248 z"
   id="path146"
   inkscape:connector-curvature="0"
   style="fill:#a0a0a0;stroke:none" />
         <path
   d="m 11964,14182 -61,35 v 313 l 61,80 z"
   id="path148"
   inkscape:connector-curvature="0"
   style="fill:#808080;stroke:none" />
         <path
   d="m 11964,14305 155,5"
   id="path150"
   inkscape:connector-curvature="0"
   style="fill:none;stroke:#808080;stroke-width:35;stroke-linecap:round;stroke-linejoin:round" />
         <path
   d="m 12114,14182 -84,-300 -48,300 z"
   id="path152"
   inkscape:connector-curvature="0"
   style="fill:#ffffff;stroke:none" />
         <path
   d="m 12030,13917 -101,282 53,-22 z"
   id="path154"
   inkscape:connector-curvature="0"
   style="fill:#808080;stroke:none" />
         <path
   d="m 12308,14199 v 455 l 164,13 v -463 z"
   id="path156"
   inkscape:connector-curvature="0"
   style="fill:#e0e0e0;stroke:none" />
         <path
   d="m 12339,14385 v 251 h 111 v -247 z"
   id="path158"
   inkscape:connector-curvature="0"
   style="fill:#a0a0a0;stroke:none" />
         <path
   d="m 12313,14204 -75,26 v 322 l 75,84 z"
   id="path160"
   inkscape:connector-curvature="0"
   style="fill:#808080;stroke:none" />
         <path
   d="m 12313,14336 h 145"
   id="path162"
   inkscape:connector-curvature="0"
   style="fill:none;stroke:#808080;stroke-width:35;stroke-linecap:round;stroke-linejoin:round" />
         <path
   d="m 12445,14204 -75,-309 -44,309 z"
   id="path164"
   inkscape:connector-curvature="0"
   style="fill:#ffffff;stroke:none" />
         <path
   d="m 12370,13895 -97,326 57,-26 z"
   id="path166"
   inkscape:connector-curvature="0"
   style="fill:#808080;stroke:none" />
         <path
   d="m 12666,14235 v 445 l 185,9 v -446 z"
   id="path168"
   inkscape:connector-curvature="0"
   style="fill:#e0e0e0;stroke:none" />
         <path
   d="m 12697,14415 v 239 h 128 l -5,-234 z"
   id="path170"
   inkscape:connector-curvature="0"
   style="fill:#a0a0a0;stroke:none" />
         <path
   d="m 12666,14230 -62,22 v 318 l 62,84 z"
   id="path172"
   inkscape:connector-curvature="0"
   style="fill:#808080;stroke:none" />
         <path
   d="m 12675,14358 163,4"
   id="path174"
   inkscape:connector-curvature="0"
   style="fill:none;stroke:#808080;stroke-width:35;stroke-linecap:round;stroke-linejoin:round" />
         <path
   d="m 12820,14239 -97,-662 -22,662 z"
   id="path176"
   inkscape:connector-curvature="0"
   style="fill:#ffffff;stroke:none" />
         <path
   d="m 12705,14235 18,-636 -93,644 z"
   id="path178"
   inkscape:connector-curvature="0"
   style="fill:#808080;stroke:none" />
         <path
   d="m 11188,14601 v -481 h 181 v 490 z"
   id="path180"
   inkscape:connector-curvature="0"
   style="fill:#e0e0e0;stroke:none" />
         <path
   d="m 11219,14305 v 256 h 123 v -251 z"
   id="path182"
   inkscape:connector-curvature="0"
   style="fill:#a0a0a0;stroke:none" />
         <path
   d="m 11188,14111 v 490 l -111,31 v -459 z"
   id="path184"
   inkscape:connector-curvature="0"
   style="fill:#808080;stroke:none" />
         <path
   d="m 11188,14257 h 167"
   id="path186"
   inkscape:connector-curvature="0"
   style="fill:none;stroke:#808080;stroke-width:35;stroke-linecap:round;stroke-linejoin:round" />
         <path
   d="m 11342,14120 -92,-662 -49,662 z"
   id="path188"
   inkscape:connector-curvature="0"
   style="fill:#ffffff;stroke:none" />
         <path
   d="m 11201,14115 49,-630 -128,661 z"
   id="path190"
   inkscape:connector-curvature="0"
   style="fill:#808080;stroke:none" />
         <path
   d="m 11422,13868 -93,-1098 -79,1098 z"
   id="path192"
   inkscape:connector-curvature="0"
   style="fill:#e0e0e0;stroke:none" />
         <path
   d="m 10239,14901 944,-309 9,3948 h -953 z"
   id="path194"
   inkscape:connector-curvature="0"
   style="fill:#400000;stroke:none" />
         <path
   d="m 11188,14632 v 53 l -949,300 v -45 z"
   id="path196"
   inkscape:connector-curvature="0"
   style="fill:#606060;stroke:none" />
         <path
   d="m 10517,14812 v 631 l 375,-92 v -658 z"
   id="path198"
   inkscape:connector-curvature="0"
   style="fill:#200000;stroke:none" />
         <path
   d="m 11183,15426 -944,220 v 58 l 944,-212 z"
   id="path200"
   inkscape:connector-curvature="0"
   style="fill:#808080;stroke:none" />
         <path
   d="m 11183,14601 1664,75 v 1588 l -662,93 v 2170 h -1006 z"
   id="path202"
   inkscape:connector-curvature="0"
   style="fill:#600000;stroke:none" />
         <path
   d="m 11391,14676 1270,92 v 1509 l -476,66 v 2184 h -794 z"
   id="path204"
   inkscape:connector-curvature="0"
   style="fill:#400000;stroke:none" />
         <path
   d="m 11188,15496 1667,62 v -66 l -1667,-66 z"
   id="path206"
   inkscape:connector-curvature="0"
   style="fill:#a0a0a0;stroke:none" />
         <path
   d="m 11395,14967 110,13 -26,-273 z"
   id="path208"
   inkscape:connector-curvature="0"
   style="fill:#200000;stroke:none" />
         <path
   d="m 11607,14967 110,13 -26,-273 z"
   id="path210"
   inkscape:connector-curvature="0"
   style="fill:#200000;stroke:none" />
         <path
   d="m 11810,14976 110,13 -26,-274 z"
   id="path212"
   inkscape:connector-curvature="0"
   style="fill:#200000;stroke:none" />
         <path
   d="m 12533,15020 111,13 -27,-273 z"
   id="path214"
   inkscape:connector-curvature="0"
   style="fill:#200000;stroke:none" />
         <path
   d="m 12366,15007 110,13 -26,-274 z"
   id="path216"
   inkscape:connector-curvature="0"
   style="fill:#200000;stroke:none" />
         <path
   d="m 12004,14989 110,13 -26,-273 z"
   id="path218"
   inkscape:connector-curvature="0"
   style="fill:#200000;stroke:none" />
         <path
   d="m 12189,15002 111,13 -27,-273 z"
   id="path220"
   inkscape:connector-curvature="0"
   style="fill:#200000;stroke:none" />
         <path
   d="m 11188,14676 1659,97 v -58 l -1659,-88 z"
   id="path222"
   inkscape:connector-curvature="0"
   style="fill:#a0a0a0;stroke:none" />
         <path
   d="m 9194,18514 v -2224 l 741,-158 v 2422 z"
   id="path224"
   inkscape:connector-curvature="0"
   style="fill:#400000;stroke:none" />
         <path
   d="m 9922,16132 v 2435 h 1138 v -2409 z"
   id="path226"
   inkscape:connector-curvature="0"
   style="fill:#600000;stroke:none" />
         <path
   d="m 10041,16140 h 78 v 361 h -78 z"
   id="path228"
   inkscape:connector-curvature="0"
   style="fill:#400000;stroke:none" />
         <path
   d="m 10239,16132 h 74 v 370 h -74 z"
   id="path230"
   inkscape:connector-curvature="0"
   style="fill:#400000;stroke:none" />
         <path
   d="m 10442,16140 h 78 v 361 h -78 z"
   id="path232"
   inkscape:connector-curvature="0"
   style="fill:#400000;stroke:none" />
         <path
   d="m 10663,16154 h 70 v 348 h -70 z"
   id="path234"
   inkscape:connector-curvature="0"
   style="fill:#400000;stroke:none" />
         <path
   d="m 10852,16154 h 78 v 348 h -78 z"
   id="path236"
   inkscape:connector-curvature="0"
   style="fill:#400000;stroke:none" />
         <path
   d="m 9264,16273 v 309 l 62,-5 v -317 z"
   id="path238"
   inkscape:connector-curvature="0"
   style="fill:#200000;stroke:none" />
         <path
   d="m 9383,16246 v 318 l 66,-13 v -318 z"
   id="path240"
   inkscape:connector-curvature="0"
   style="fill:#200000;stroke:none" />
         <path
   d="m 9524,16215 v 327 l 71,-13 v -327 z"
   id="path242"
   inkscape:connector-curvature="0"
   style="fill:#200000;stroke:none" />
         <path
   d="m 9670,16185 v 339 l 66,-22 v -322 z"
   id="path244"
   inkscape:connector-curvature="0"
   style="fill:#200000;stroke:none" />
         <path
   d="m 9807,16158 v 340 l 62,-13 v -340 z"
   id="path246"
   inkscape:connector-curvature="0"
   style="fill:#200000;stroke:none" />
         <path
   d="m 9136,18395 -1615,26 H 6039 l 132,221 397,159 742,17 1085,80 -132,344 185,132 -291,186 h 1270 l 1668,79 -318,-159 3283,-53 900,27 -79,-371 -556,-291 -265,-79 -1906,-186 H 9904 Z"
   id="path248"
   inkscape:connector-curvature="0"
   style="fill:#a0a0a0;stroke:none" />
         <path
   d="m 14086,18183 h -2144 v 132 h -979 v 212 h -794 l 2011,212 2224,79 z"
   id="path250"
   inkscape:connector-curvature="0"
   style="fill:#404040;stroke:none" />
        </g>
       </g>
      </g>
     </g>
    </g>
   </g>
  </g>
 </g>
</svg>