<?xml version="1.0" encoding="UTF-8" standalone="no"?>
<svg
   xmlns:ooo="http://xml.openoffice.org/svg/export"
   xmlns:dc="http://purl.org/dc/elements/1.1/"
   xmlns:cc="http://creativecommons.org/ns#"
   xmlns:rdf="http://www.w3.org/1999/02/22-rdf-syntax-ns#"
   xmlns:svg="http://www.w3.org/2000/svg"
   xmlns="http://www.w3.org/2000/svg"
   xmlns:sodipodi="http://sodipodi.sourceforge.net/DTD/sodipodi-0.dtd"
   xmlns:inkscape="http://www.inkscape.org/namespaces/inkscape"
   version="1.2"
   width="190mm"
   height="73.529999mm"
   viewBox="0 0 19000 7352.9999"
   preserveAspectRatio="xMidYMid"
   xml:space="preserve"
   id="svg289"
   sodipodi:docname="schoolbs.svg"
   style="fill-rule:evenodd;stroke-width:28.22200012;stroke-linejoin:round"
   inkscape:version="0.92.5 (2060ec1f9f, 2020-04-08)"><metadata
   id="metadata293"><rdf:RDF><cc:Work
       rdf:about=""><dc:format>image/svg+xml</dc:format><dc:type
         rdf:resource="http://purl.org/dc/dcmitype/StillImage" /></cc:Work></rdf:RDF></metadata><sodipodi:namedview
   pagecolor="#ffffff"
   bordercolor="#666666"
   borderopacity="1"
   objecttolerance="10"
   gridtolerance="10"
   guidetolerance="10"
   inkscape:pageopacity="0"
   inkscape:pageshadow="2"
   inkscape:window-width="664"
   inkscape:window-height="487"
   id="namedview291"
   showgrid="false"
   inkscape:zoom="0.2102413"
   inkscape:cx="359.05512"
   inkscape:cy="138.93543"
   inkscape:window-x="0"
   inkscape:window-y="0"
   inkscape:window-maximized="0"
   inkscape:current-layer="svg289" />
 <defs
   class="ClipPathGroup"
   id="defs8">
  <clipPath
   id="presentation_clip_path"
   clipPathUnits="userSpaceOnUse">
   <rect
   x="0"
   y="0"
   width="21000"
   height="29700"
   id="rect2" />
  </clipPath>
  <clipPath
   id="presentation_clip_path_shrink"
   clipPathUnits="userSpaceOnUse">
   <rect
   x="21"
   y="29"
   width="20958"
   height="29641"
   id="rect5" />
  </clipPath>
 </defs>
 <defs
   class="TextShapeIndex"
   id="defs12">
  <g
   ooo:slide="id1"
   ooo:id-list="id3"
   id="g10" />
 </defs>
 <defs
   class="EmbeddedBulletChars"
   id="defs44">
  <g
   id="bullet-char-template-57356"
   transform="matrix(4.8828125e-4,0,0,-4.8828125e-4,0,0)">
   <path
   d="M 580,1141 1163,571 580,0 -4,571 Z"
   id="path14"
   inkscape:connector-curvature="0" />
  </g>
  <g
   id="bullet-char-template-57354"
   transform="matrix(4.8828125e-4,0,0,-4.8828125e-4,0,0)">
   <path
   d="M 8,1128 H 1137 V 0 H 8 Z"
   id="path17"
   inkscape:connector-curvature="0" />
  </g>
  <g
   id="bullet-char-template-10146"
   transform="matrix(4.8828125e-4,0,0,-4.8828125e-4,0,0)">
   <path
   d="M 174,0 602,739 174,1481 1456,739 Z M 1358,739 309,1346 659,739 Z"
   id="path20"
   inkscape:connector-curvature="0" />
  </g>
  <g
   id="bullet-char-template-10132"
   transform="matrix(4.8828125e-4,0,0,-4.8828125e-4,0,0)">
   <path
   d="M 2015,739 1276,0 H 717 l 543,543 H 174 v 393 h 1086 l -543,545 h 557 z"
   id="path23"
   inkscape:connector-curvature="0" />
  </g>
  <g
   id="bullet-char-template-10007"
   transform="matrix(4.8828125e-4,0,0,-4.8828125e-4,0,0)">
   <path
   d="m 0,-2 c -7,16 -16,29 -25,39 l 381,530 c -94,256 -141,385 -141,387 0,25 13,38 40,38 9,0 21,-2 34,-5 21,4 42,12 65,25 l 27,-13 111,-251 280,301 64,-25 24,25 c 21,-10 41,-24 62,-43 C 886,937 835,863 770,784 769,783 710,716 594,584 L 774,223 c 0,-27 -21,-55 -63,-84 l 16,-20 C 717,90 699,76 672,76 641,76 570,178 457,381 L 164,-76 c -22,-34 -53,-51 -92,-51 -42,0 -63,17 -64,51 -7,9 -10,24 -10,44 0,9 1,19 2,30 z"
   id="path26"
   inkscape:connector-curvature="0" />
  </g>
  <g
   id="bullet-char-template-10004"
   transform="matrix(4.8828125e-4,0,0,-4.8828125e-4,0,0)">
   <path
   d="M 285,-33 C 182,-33 111,30 74,156 52,228 41,333 41,471 c 0,78 14,145 41,201 34,71 87,106 158,106 53,0 88,-31 106,-94 l 23,-176 c 8,-64 28,-97 59,-98 l 735,706 c 11,11 33,17 66,17 42,0 63,-15 63,-46 V 965 c 0,-36 -10,-64 -30,-84 L 442,47 C 390,-6 338,-33 285,-33 Z"
   id="path29"
   inkscape:connector-curvature="0" />
  </g>
  <g
   id="bullet-char-template-9679"
   transform="matrix(4.8828125e-4,0,0,-4.8828125e-4,0,0)">
   <path
   d="M 813,0 C 632,0 489,54 383,161 276,268 223,411 223,592 c 0,181 53,324 160,431 106,107 249,161 430,161 179,0 323,-54 432,-161 108,-107 162,-251 162,-431 0,-180 -54,-324 -162,-431 C 1136,54 992,0 813,0 Z"
   id="path32"
   inkscape:connector-curvature="0" />
  </g>
  <g
   id="bullet-char-template-8226"
   transform="matrix(4.8828125e-4,0,0,-4.8828125e-4,0,0)">
   <path
   d="m 346,457 c -73,0 -137,26 -191,78 -54,51 -81,114 -81,188 0,73 27,136 81,188 54,52 118,78 191,78 73,0 134,-26 185,-79 51,-51 77,-114 77,-187 0,-75 -25,-137 -76,-188 -50,-52 -112,-78 -186,-78 z"
   id="path35"
   inkscape:connector-curvature="0" />
  </g>
  <g
   id="bullet-char-template-8211"
   transform="matrix(4.8828125e-4,0,0,-4.8828125e-4,0,0)">
   <path
   d="M -4,459 H 1135 V 606 H -4 Z"
   id="path38"
   inkscape:connector-curvature="0" />
  </g>
  <g
   id="bullet-char-template-61548"
   transform="matrix(4.8828125e-4,0,0,-4.8828125e-4,0,0)">
   <path
   d="m 173,740 c 0,163 58,303 173,419 116,115 255,173 419,173 163,0 302,-58 418,-173 116,-116 174,-256 174,-419 0,-163 -58,-303 -174,-418 C 1067,206 928,148 765,148 601,148 462,206 346,322 231,437 173,577 173,740 Z"
   id="path41"
   inkscape:connector-curvature="0" />
  </g>
 </defs>
 <g
   id="g49"
   transform="translate(-1000,-11173)">
  <g
   id="id2"
   class="Master_Slide">
   <g
   id="bg-id2"
   class="Background" />
   <g
   id="bo-id2"
   class="BackgroundObjects" />
  </g>
 </g>
 <g
   class="SlideGroup"
   id="g287"
   transform="translate(-1000,-11173)">
  <g
   id="g285">
   <g
   id="container-id1">
    <g
   id="id1"
   class="Slide"
   clip-path="url(#presentation_clip_path)">
     <g
   class="Page"
   id="g281">
      <g
   class="Graphic"
   id="g279">
       <g
   id="id3">
        <rect
   class="BoundingBox"
   x="1000"
   y="11173"
   width="19000"
   height="7353"
   id="rect51"
   style="fill:none;stroke:none" />
        <defs
   id="defs56">
         <clipPath
   id="clip_path_1"
   clipPathUnits="userSpaceOnUse">
          <path
   d="m 1000,11173 h 18999 v 7352 H 1000 Z"
   id="path53"
   inkscape:connector-curvature="0" />
         </clipPath>
        </defs>
        <g
   clip-path="url(#clip_path_1)"
   id="g112">
         <path
   d="m 2819,17037 -711,710 h -894 v 184 h 984 l 890,-894 z"
   id="path58"
   inkscape:connector-curvature="0"
   style="fill:#404040;stroke:none" />
         <path
   d="m 2383,17259 2156,90 h 2602 l 2336,-445 h 3060 l 269,355 h 719 2602 2517 633 v -1695 h -2157 l -1172,801 H 2399 Z"
   id="path60"
   inkscape:connector-curvature="0"
   style="fill:#404040;stroke:none" />
         <path
   d="m 7016,17306 c 0,215 -56,426 -164,612 -107,186 -262,340 -448,448 -186,107 -397,164 -611,164 -215,0 -426,-57 -612,-164 -186,-108 -340,-262 -448,-448 -107,-186 -164,-397 -164,-612 0,-215 57,-426 164,-612 108,-186 262,-340 448,-448 186,-107 397,-164 612,-164 214,0 425,57 611,164 186,108 341,262 448,448 108,186 164,397 164,612 z"
   id="path62"
   inkscape:connector-curvature="0"
   style="fill:#202020;stroke:none" />
         <path
   d="m 7012,17302 -2,-62 -4,-62 -8,-62 -11,-61 -14,-60 -17,-60 -19,-58 -24,-58 -26,-57 -28,-54 -32,-54 -34,-52 -37,-49 -39,-49 -41,-45 -44,-45 -47,-42 -47,-38 -51,-37 -51,-34 -53,-31 -56,-29 -56,-26 -57,-23 -59,-20 -60,-18 -60,-13 -61,-11 -61,-9 -62,-3 -62,-2 v 0 l -62,2 -62,3 -62,9 -61,11 -60,13 -59,18 -59,20 -57,23 -57,26 -55,29 -53,31 -52,34 -50,37 -48,38 -46,42 -44,45 -42,45 -38,49 -37,49 -34,52 -32,54 -28,54 -27,57 -23,58 -19,58 -18,60 -13,60 -11,61 -9,62 -4,62 -2,62 v 0 l 2,62 4,62 9,61 11,61 13,60 18,60 19,59 23,58 27,56 28,54 32,55 34,51 37,50 38,48 42,46 44,44 46,42 48,39 50,37 52,34 53,31 55,29 57,26 57,22 59,21 59,17 60,14 61,10 62,9 62,4 62,2 v 0 l 62,-2 62,-4 61,-9 61,-10 60,-14 60,-17 59,-21 57,-22 56,-26 56,-29 53,-31 51,-34 51,-37 47,-39 47,-42 44,-44 41,-46 39,-48 37,-50 34,-51 32,-55 28,-54 26,-56 24,-58 19,-59 17,-60 14,-60 11,-61 8,-61 4,-62 z"
   id="path64"
   inkscape:connector-curvature="0"
   style="fill:none;stroke:#000000;stroke-width:34;stroke-linecap:round;stroke-linejoin:round" />
         <path
   d="m 6793,17306 c 0,175 -46,348 -134,500 -88,152 -214,279 -366,367 -153,87 -325,134 -501,134 -175,0 -348,-47 -500,-134 -152,-88 -279,-215 -366,-367 -88,-152 -135,-325 -135,-500 0,-176 47,-349 135,-501 87,-152 214,-278 366,-366 152,-88 325,-134 500,-134 176,0 348,46 501,134 152,88 278,214 366,366 88,152 134,325 134,501 z"
   id="path66"
   inkscape:connector-curvature="0"
   style="fill:#202020;stroke:none" />
         <path
   d="m 6790,17302 -1,-51 -4,-50 -7,-51 -8,-50 -12,-49 -14,-49 -16,-48 -19,-47 -21,-46 -24,-45 -25,-44 -28,-43 -31,-40 -32,-39 -34,-38 -35,-36 -38,-34 -39,-32 -41,-30 -42,-28 -44,-25 -46,-24 -45,-21 -48,-19 -47,-17 -49,-13 -49,-12 -51,-9 -50,-6 -51,-4 -50,-1 v 0 l -51,1 -50,4 -51,6 -50,9 -49,12 -49,13 -48,17 -47,19 -46,21 -45,24 -44,25 -43,28 -40,30 -39,32 -38,34 -36,36 -34,38 -32,39 -30,40 -28,43 -25,44 -25,45 -20,46 -19,47 -17,48 -13,49 -12,49 -9,50 -7,51 -3,50 -1,51 v 0 l 1,50 3,51 7,50 9,51 12,49 13,49 17,47 19,48 20,45 25,46 25,43 28,43 30,41 32,39 34,37 36,36 38,34 39,32 40,30 43,29 44,25 45,24 46,20 47,20 48,16 49,14 49,11 50,9 51,7 50,4 51,1 v 0 l 50,-1 51,-4 50,-7 51,-9 49,-11 49,-14 47,-16 48,-20 45,-20 46,-24 44,-25 42,-29 41,-30 39,-32 38,-34 35,-36 34,-37 32,-39 31,-41 28,-43 25,-43 24,-46 21,-45 19,-48 16,-47 14,-49 12,-49 8,-51 7,-50 4,-51 z"
   id="path68"
   inkscape:connector-curvature="0"
   style="fill:none;stroke:#c0c0c0;stroke-width:34;stroke-linecap:round;stroke-linejoin:round" />
         <path
   d="m 6344,17308 c 0,97 -26,192 -74,277 -49,84 -119,154 -203,202 -84,49 -180,74 -277,74 -97,0 -192,-25 -276,-74 -85,-48 -154,-118 -203,-202 -49,-85 -74,-180 -74,-277 0,-98 25,-193 74,-277 49,-85 118,-154 203,-203 84,-49 179,-74 276,-74 97,0 193,25 277,74 84,49 154,118 203,203 48,84 74,179 74,277 z"
   id="path70"
   inkscape:connector-curvature="0"
   style="fill:#808080;stroke:none" />
         <path
   d="m 6341,17307 -1,-29 -2,-28 -4,-27 -5,-28 -6,-27 -7,-26 -9,-27 -11,-26 -11,-26 -13,-24 -15,-24 -15,-24 -17,-22 -17,-22 -19,-21 -20,-19 -20,-19 -23,-18 -22,-16 -23,-16 -24,-14 -25,-13 -26,-12 -25,-10 -27,-9 -26,-8 -28,-6 -28,-5 -27,-3 -28,-2 -28,-1 v 0 l -28,1 -28,2 -28,3 -28,5 -27,6 -26,8 -27,9 -26,10 -26,12 -24,13 -24,14 -24,16 -22,16 -22,18 -21,19 -19,19 -19,21 -18,22 -16,22 -16,24 -14,24 -13,24 -12,26 -10,26 -9,27 -8,26 -6,27 -4,28 -4,27 -2,28 -1,29 v 0 l 1,28 2,28 4,27 4,28 6,27 8,27 9,27 10,25 12,26 13,24 14,25 16,23 16,22 18,23 19,20 19,19 21,20 22,17 22,17 24,15 24,15 24,12 26,12 26,11 27,8 26,8 27,6 28,5 28,4 28,2 28,1 v 0 l 28,-1 28,-2 27,-4 28,-5 28,-6 26,-8 27,-8 25,-11 26,-12 25,-12 24,-15 23,-15 22,-17 23,-17 20,-20 20,-19 19,-20 17,-23 17,-22 15,-23 15,-25 13,-24 11,-26 11,-25 9,-27 7,-27 6,-27 5,-28 4,-27 2,-28 z"
   id="path72"
   inkscape:connector-curvature="0"
   style="fill:none;stroke:#c0c0c0;stroke-width:34;stroke-linecap:round;stroke-linejoin:round" />
         <path
   d="m 6164,17306 c 0,66 -17,131 -50,188 -33,57 -80,105 -137,138 -57,33 -121,50 -187,50 -65,0 -130,-17 -187,-50 -57,-33 -104,-81 -137,-138 -32,-57 -50,-122 -50,-188 0,-66 18,-131 50,-189 33,-57 80,-104 137,-137 57,-33 122,-51 187,-51 66,0 130,18 187,51 57,33 104,80 137,137 33,58 50,123 50,189 z"
   id="path74"
   inkscape:connector-curvature="0"
   style="fill:#404040;stroke:none" />
         <path
   d="m 6161,17302 v -20 l -2,-18 -2,-19 -3,-19 -4,-18 -6,-19 -6,-18 -7,-18 -7,-17 -9,-17 -10,-16 -11,-17 -10,-14 -13,-16 -12,-13 -13,-14 -15,-12 -14,-13 -16,-11 -15,-10 -17,-10 -16,-9 -18,-9 -17,-6 -18,-6 -18,-6 -18,-4 -19,-4 -18,-2 -20,-2 h -18 v 0 h -19 l -19,2 -18,2 -19,4 -18,4 -19,6 -17,6 -18,6 -17,9 -17,9 -16,10 -16,10 -15,11 -15,13 -14,12 -13,14 -13,13 -12,16 -11,14 -10,17 -10,16 -9,17 -8,17 -6,18 -6,18 -6,19 -4,18 -4,19 -2,19 -2,18 v 20 0 19 l 2,19 2,19 4,18 4,19 6,18 6,19 6,17 8,18 9,16 10,17 10,16 11,15 12,15 13,14 13,13 14,13 15,13 15,10 16,11 16,10 17,8 17,9 18,7 17,6 19,6 18,3 19,4 18,2 19,2 h 19 v 0 h 18 l 20,-2 18,-2 19,-4 18,-3 18,-6 18,-6 17,-7 18,-9 16,-8 17,-10 15,-11 16,-10 14,-13 15,-13 13,-13 12,-14 13,-15 10,-15 11,-16 10,-17 9,-16 7,-18 7,-17 6,-19 6,-18 4,-19 3,-18 2,-19 2,-19 z"
   id="path76"
   inkscape:connector-curvature="0"
   style="fill:none;stroke:#a0a0a0;stroke-width:34;stroke-linecap:round;stroke-linejoin:round" />
         <path
   d="m 6070,17304 c 0,50 -13,99 -38,142 -24,43 -60,79 -103,104 -43,25 -91,38 -141,38 -49,0 -98,-13 -141,-38 -42,-25 -78,-61 -103,-104 -24,-43 -38,-92 -38,-142 0,-50 14,-99 38,-142 25,-44 61,-79 103,-104 43,-25 92,-39 141,-39 50,0 98,14 141,39 43,25 79,60 103,104 25,43 38,92 38,142 z"
   id="path78"
   inkscape:connector-curvature="0"
   style="fill:#606060;stroke:none" />
         <path
   d="m 6066,17302 v -15 l -1,-13 -2,-15 -3,-14 -2,-14 -4,-14 -5,-13 -6,-14 -6,-12 -7,-13 -6,-13 -8,-11 -9,-12 -9,-12 -9,-9 -11,-11 -10,-10 -11,-8 -12,-9 -12,-8 -12,-7 -13,-6 -12,-6 -14,-6 -14,-5 -13,-4 -14,-3 -14,-3 -15,-2 -13,-1 h -15 v 0 h -15 l -13,1 -15,2 -14,3 -14,3 -13,4 -14,5 -14,6 -12,6 -13,6 -12,7 -12,8 -12,9 -11,8 -10,10 -11,11 -9,9 -9,12 -9,12 -8,11 -6,13 -7,13 -6,12 -6,14 -5,13 -4,14 -3,14 -2,14 -2,15 -1,13 v 15 0 14 l 1,14 2,14 2,15 3,14 4,13 5,14 6,13 6,13 7,13 6,12 8,12 9,11 9,12 9,10 11,10 10,10 11,9 12,9 12,7 12,7 13,7 12,6 14,6 14,4 13,4 14,3 14,3 15,2 13,1 h 15 v 0 h 15 l 13,-1 15,-2 14,-3 14,-3 13,-4 14,-4 14,-6 12,-6 13,-7 12,-7 12,-7 12,-9 11,-9 10,-10 11,-10 9,-10 9,-12 9,-11 8,-12 6,-12 7,-13 6,-13 6,-13 5,-14 4,-13 2,-14 3,-15 2,-14 1,-14 z"
   id="path80"
   inkscape:connector-curvature="0"
   style="fill:none;stroke:#a0a0a0;stroke-width:34;stroke-linecap:round;stroke-linejoin:round" />
         <path
   d="m 5891,17303 c 0,19 -5,37 -14,52 -9,16 -22,29 -38,39 -15,9 -33,14 -51,14 -18,0 -35,-5 -51,-14 -15,-10 -28,-23 -37,-39 -9,-15 -14,-33 -14,-52 0,-18 5,-36 14,-52 9,-16 22,-29 37,-38 16,-9 33,-14 51,-14 18,0 36,5 51,14 16,9 29,22 38,38 9,16 14,34 14,52 z"
   id="path82"
   inkscape:connector-curvature="0"
   style="fill:#202020;stroke:none" />
         <path
   d="m 5887,17302 v -5 l -1,-6 v -5 l -1,-5 -1,-5 -2,-5 -2,-5 -2,-5 -2,-5 -2,-4 -3,-5 -3,-4 -3,-4 -3,-4 -3,-4 -4,-4 -4,-3 -4,-4 -4,-3 -5,-3 -5,-2 -3,-2 -5,-2 -5,-2 -5,-2 -5,-2 -6,-1 -5,-1 h -4 l -6,-1 h -5 v 0 h -5 l -6,1 h -5 l -4,1 -6,1 -5,2 -5,2 -5,2 -5,2 -4,2 -4,2 -5,3 -4,3 -4,4 -4,3 -4,4 -3,4 -4,4 -2,4 -3,4 -3,5 -2,4 -2,5 -2,5 -2,5 -2,5 -1,5 -1,5 v 5 l -1,6 v 5 0 5 l 1,5 v 5 l 1,5 1,6 2,5 2,5 2,5 2,4 2,4 3,5 3,5 2,4 4,4 3,4 4,3 4,3 4,4 4,3 5,3 4,3 4,2 5,2 5,2 5,2 5,2 6,1 4,1 h 5 l 6,1 h 5 v 0 h 5 l 6,-1 h 4 l 5,-1 6,-1 5,-2 5,-2 5,-2 5,-2 3,-2 5,-3 5,-3 4,-3 4,-4 4,-3 4,-3 3,-4 3,-4 3,-4 3,-5 3,-5 2,-4 2,-4 2,-5 2,-5 2,-5 1,-6 1,-5 v -5 l 1,-5 z"
   id="path84"
   inkscape:connector-curvature="0"
   style="fill:none;stroke:#808080;stroke-width:34;stroke-linecap:round;stroke-linejoin:round" />
         <path
   d="m 18613,17216 c 0,215 -57,426 -164,612 -108,186 -262,340 -448,448 -186,107 -397,164 -612,164 -215,0 -425,-57 -611,-164 -186,-108 -341,-262 -448,-448 -108,-186 -164,-397 -164,-612 0,-215 56,-426 164,-612 107,-186 262,-340 448,-448 186,-107 396,-164 611,-164 215,0 426,57 612,164 186,108 340,262 448,448 107,186 164,397 164,612 z"
   id="path86"
   inkscape:connector-curvature="0"
   style="fill:#202020;stroke:none" />
         <path
   d="m 18609,17212 -2,-63 -4,-62 -9,-61 -10,-61 -14,-60 -18,-60 -19,-58 -23,-59 -26,-56 -29,-54 -32,-54 -34,-52 -36,-49 -39,-49 -42,-45 -44,-45 -46,-42 -48,-39 -50,-36 -52,-34 -53,-31 -55,-30 -56,-26 -58,-22 -59,-20 -59,-18 -60,-13 -61,-11 -61,-9 -63,-4 -62,-2 v 0 l -62,2 -62,4 -61,9 -61,11 -60,13 -59,18 -60,20 -57,22 -56,26 -55,30 -54,31 -51,34 -51,36 -47,39 -47,42 -43,45 -42,45 -39,49 -37,49 -34,52 -32,54 -28,54 -26,56 -23,59 -20,58 -17,60 -14,60 -11,61 -8,61 -4,62 -2,63 v 0 l 2,62 4,62 8,61 11,61 14,60 17,60 20,58 23,59 26,56 28,54 32,55 34,51 37,49 39,49 42,46 43,44 47,42 47,39 51,37 51,33 54,32 55,29 56,26 57,22 60,20 59,18 60,14 61,10 61,9 62,4 62,2 v 0 l 62,-2 63,-4 61,-9 61,-10 60,-14 59,-18 59,-20 58,-22 56,-26 55,-29 53,-32 52,-33 50,-37 48,-39 46,-42 44,-44 42,-46 39,-49 36,-49 34,-51 32,-55 29,-54 26,-56 23,-59 19,-58 18,-60 14,-60 10,-61 9,-61 4,-62 z"
   id="path88"
   inkscape:connector-curvature="0"
   style="fill:none;stroke:#000000;stroke-width:34;stroke-linecap:round;stroke-linejoin:round" />
         <path
   d="m 18389,17215 c 0,176 -46,349 -134,501 -87,152 -214,279 -366,366 -152,88 -325,135 -500,135 -176,0 -349,-47 -501,-135 -152,-87 -278,-214 -366,-366 -88,-152 -134,-325 -134,-501 0,-175 46,-348 134,-500 88,-152 214,-279 366,-367 152,-87 325,-134 501,-134 175,0 348,47 500,134 152,88 279,215 366,367 88,152 134,325 134,500 z"
   id="path90"
   inkscape:connector-curvature="0"
   style="fill:#202020;stroke:none" />
         <path
   d="m 18387,17212 -1,-51 -4,-50 -7,-51 -9,-50 -11,-50 -14,-48 -17,-48 -19,-47 -20,-46 -25,-45 -25,-44 -28,-43 -30,-41 -32,-38 -34,-38 -36,-36 -38,-34 -39,-32 -40,-30 -43,-28 -44,-25 -45,-25 -46,-20 -47,-19 -48,-17 -48,-14 -50,-11 -50,-9 -51,-7 -50,-4 -51,-1 v 0 l -50,1 -51,4 -50,7 -50,9 -50,11 -48,14 -48,17 -48,19 -45,20 -46,25 -43,25 -43,28 -41,30 -39,32 -37,34 -36,36 -34,38 -32,38 -30,41 -29,43 -25,44 -24,45 -20,46 -20,47 -16,48 -14,48 -12,50 -8,50 -7,51 -4,50 -1,51 v 0 l 1,50 4,50 7,51 8,50 12,50 14,48 16,48 20,47 20,46 24,46 25,43 29,43 30,41 32,38 34,38 36,36 37,34 39,32 41,30 43,28 43,26 46,24 45,20 48,20 48,16 48,14 50,11 50,9 50,7 51,4 50,1 v 0 l 51,-1 50,-4 51,-7 50,-9 50,-11 48,-14 48,-16 47,-20 46,-20 45,-24 44,-26 43,-28 40,-30 39,-32 38,-34 36,-36 34,-38 32,-38 30,-41 28,-43 25,-43 25,-46 20,-46 19,-47 17,-48 14,-48 11,-50 9,-50 7,-51 4,-50 z"
   id="path92"
   inkscape:connector-curvature="0"
   style="fill:none;stroke:#c0c0c0;stroke-width:34;stroke-linecap:round;stroke-linejoin:round" />
         <path
   d="m 17945,17218 c 0,98 -26,193 -74,277 -49,84 -119,154 -204,203 -84,49 -180,74 -278,74 -97,0 -193,-25 -278,-74 -84,-49 -154,-119 -203,-203 -49,-84 -75,-179 -75,-277 0,-97 26,-192 75,-277 49,-84 119,-154 203,-202 85,-49 181,-75 278,-75 98,0 194,26 278,75 85,48 155,118 204,202 48,85 74,180 74,277 z"
   id="path94"
   inkscape:connector-curvature="0"
   style="fill:#808080;stroke:none" />
         <path
   d="m 17941,17216 -1,-28 -2,-28 -4,-27 -4,-28 -6,-27 -8,-27 -10,-27 -9,-25 -13,-26 -13,-24 -14,-25 -16,-23 -16,-22 -18,-22 -19,-21 -19,-19 -22,-20 -21,-17 -23,-17 -24,-15 -24,-15 -25,-12 -25,-12 -27,-11 -26,-8 -27,-8 -28,-6 -27,-5 -28,-4 -29,-2 -28,-1 v 0 l -28,1 -28,2 -28,4 -27,5 -28,6 -28,8 -26,8 -26,11 -25,12 -25,12 -25,15 -23,15 -23,17 -22,17 -21,20 -19,19 -20,21 -17,22 -17,22 -15,23 -15,25 -12,24 -13,26 -10,25 -9,27 -8,27 -6,27 -5,28 -4,27 -2,28 -1,28 v 0 l 1,29 2,28 4,27 5,28 6,27 8,26 9,27 10,26 13,26 12,24 15,24 15,24 17,22 17,22 20,21 19,19 21,19 22,18 23,16 23,16 25,14 25,13 25,12 26,10 26,9 28,8 28,6 27,5 28,3 28,2 28,1 v 0 l 28,-1 29,-2 28,-3 27,-5 28,-6 27,-8 26,-9 27,-10 25,-12 25,-13 24,-14 24,-16 23,-16 21,-18 22,-19 19,-19 19,-21 18,-22 16,-22 16,-24 14,-24 13,-24 13,-26 9,-26 10,-27 8,-26 6,-27 4,-28 4,-27 2,-28 z"
   id="path96"
   inkscape:connector-curvature="0"
   style="fill:none;stroke:#c0c0c0;stroke-width:34;stroke-linecap:round;stroke-linejoin:round" />
         <path
   d="m 17765,17216 c 0,66 -18,131 -51,189 -33,57 -80,104 -137,137 -57,33 -122,51 -188,51 -66,0 -131,-18 -188,-51 -57,-33 -105,-80 -138,-137 -33,-58 -50,-123 -50,-189 0,-66 17,-131 50,-188 33,-57 81,-105 138,-138 57,-33 122,-50 188,-50 66,0 131,17 188,50 57,33 104,81 137,138 33,57 51,122 51,188 z"
   id="path98"
   inkscape:connector-curvature="0"
   style="fill:#404040;stroke:none" />
         <path
   d="m 17762,17212 v -20 l -2,-18 -2,-20 -4,-18 -4,-19 -6,-18 -6,-18 -6,-18 -9,-17 -9,-17 -9,-16 -11,-17 -11,-14 -12,-16 -13,-13 -14,-14 -13,-13 -16,-12 -14,-11 -17,-11 -16,-9 -17,-9 -17,-9 -18,-7 -18,-5 -19,-6 -18,-4 -18,-4 -20,-2 -18,-2 h -20 v 0 h -19 l -18,2 -20,2 -18,4 -19,4 -18,6 -19,5 -17,7 -18,9 -16,9 -17,9 -16,11 -15,11 -15,12 -14,13 -13,14 -13,13 -13,16 -10,14 -11,17 -10,16 -8,17 -9,17 -7,18 -6,18 -5,18 -4,19 -4,18 -2,20 -2,18 v 20 0 19 l 2,18 2,20 4,18 4,19 5,18 6,19 7,17 9,17 8,17 10,16 11,17 10,14 13,16 13,14 13,13 14,13 15,12 15,11 16,11 17,9 16,9 18,9 17,7 19,5 18,6 19,4 18,4 20,2 18,2 h 19 v 0 h 20 l 18,-2 20,-2 18,-4 18,-4 19,-6 18,-5 18,-7 17,-9 17,-9 16,-9 17,-11 14,-11 16,-12 13,-13 14,-13 13,-14 12,-16 11,-14 11,-17 9,-16 9,-17 9,-17 6,-17 6,-19 6,-18 4,-19 4,-18 2,-20 2,-18 z"
   id="path100"
   inkscape:connector-curvature="0"
   style="fill:none;stroke:#a0a0a0;stroke-width:34;stroke-linecap:round;stroke-linejoin:round" />
         <path
   d="m 17675,17216 c 0,49 -13,98 -38,141 -25,43 -61,78 -105,103 -43,25 -93,38 -143,38 -50,0 -99,-13 -143,-38 -43,-25 -80,-60 -105,-103 -25,-43 -38,-92 -38,-141 0,-50 13,-98 38,-141 25,-43 62,-78 105,-103 44,-25 93,-38 143,-38 50,0 100,13 143,38 44,25 80,60 105,103 25,43 38,91 38,141 z"
   id="path102"
   inkscape:connector-curvature="0"
   style="fill:#606060;stroke:none" />
         <path
   d="m 17673,17212 v -15 l -2,-14 -1,-14 -3,-15 -3,-13 -5,-14 -4,-13 -6,-14 -6,-13 -6,-12 -8,-13 -8,-11 -9,-12 -8,-12 -10,-9 -11,-11 -10,-10 -12,-9 -12,-8 -11,-8 -13,-7 -14,-7 -12,-5 -14,-6 -13,-5 -15,-4 -13,-3 -15,-3 -15,-2 -14,-1 h -15 v 0 h -14 l -15,1 -14,2 -15,3 -13,3 -15,4 -14,5 -13,6 -13,5 -13,7 -13,7 -12,8 -11,8 -12,9 -11,10 -10,11 -10,9 -9,12 -8,12 -8,11 -8,13 -7,12 -6,13 -5,14 -4,13 -5,14 -3,13 -3,15 -1,14 -2,14 v 15 0 14 l 2,14 1,14 3,15 3,13 5,14 4,14 5,13 6,13 7,12 8,13 8,12 8,11 9,12 10,10 10,10 11,10 12,9 11,8 12,8 13,7 13,7 13,6 13,5 14,5 15,4 13,3 15,3 14,2 15,1 h 14 v 0 h 15 l 14,-1 15,-2 15,-3 13,-3 15,-4 13,-5 14,-5 12,-6 14,-7 13,-7 11,-8 12,-8 12,-9 10,-10 11,-10 10,-10 8,-12 9,-11 8,-12 8,-13 6,-12 6,-13 6,-13 4,-14 5,-14 3,-13 3,-15 1,-14 2,-14 z"
   id="path104"
   inkscape:connector-curvature="0"
   style="fill:none;stroke:#a0a0a0;stroke-width:34;stroke-linecap:round;stroke-linejoin:round" />
         <path
   d="m 17491,17214 c 0,18 -5,36 -14,52 -9,16 -22,29 -38,38 -16,9 -34,14 -52,14 -19,0 -36,-5 -52,-14 -16,-9 -29,-22 -39,-38 -9,-16 -13,-34 -13,-52 0,-18 4,-36 13,-52 10,-16 23,-29 39,-38 16,-9 33,-14 52,-14 18,0 36,5 52,14 16,9 29,22 38,38 9,16 14,34 14,52 z"
   id="path106"
   inkscape:connector-curvature="0"
   style="fill:#202020;stroke:none" />
         <path
   d="m 17488,17212 v -5 l -1,-6 v -5 l -1,-5 -1,-6 -2,-4 -2,-5 -2,-5 -1,-5 -2,-4 -3,-5 -3,-5 -3,-3 -4,-4 -3,-4 -4,-4 -4,-3 -4,-4 -3,-3 -5,-3 -5,-3 -4,-2 -5,-2 -5,-1 -5,-2 -4,-2 -6,-1 -5,-1 h -5 l -6,-1 h -5 v 0 h -5 l -5,1 h -5 l -5,1 -6,1 -5,2 -5,2 -4,1 -5,2 -4,2 -5,3 -5,3 -4,3 -4,4 -3,3 -4,4 -3,4 -4,4 -3,3 -3,5 -3,5 -2,4 -2,5 -2,5 -2,5 -2,4 -1,6 -1,5 v 5 6 5 0 4 6 5 l 1,5 1,6 2,5 2,4 2,5 2,5 2,4 3,5 3,5 3,4 4,3 3,4 4,4 3,3 4,4 4,3 5,3 5,3 4,2 5,2 4,2 5,2 5,1 6,1 5,1 h 5 l 5,1 h 5 v 0 h 5 l 6,-1 h 5 l 5,-1 6,-1 4,-1 5,-2 5,-2 5,-2 4,-2 5,-3 5,-3 3,-3 4,-4 4,-3 4,-4 3,-4 4,-3 3,-4 3,-5 3,-5 2,-4 1,-5 2,-5 2,-4 2,-5 1,-6 1,-5 v -5 l 1,-6 z"
   id="path108"
   inkscape:connector-curvature="0"
   style="fill:none;stroke:#808080;stroke-width:34;stroke-linecap:round;stroke-linejoin:round" />
         <path
   d="m 2292,11164 h 12042 l 86,9 72,17 69,22 55,25 61,34 51,22 55,34 69,43 43,34 43,35 47,38 43,51 46,48 30,46 43,60 43,73 129,214 843,1489 h 2610 l 419,334 180,509 v 2243 h -180 v 360 l -184,176 -363,-9 v -296 l -43,-197 -78,-149 -59,-103 -90,-124 -85,-133 -82,-77 -94,-81 -154,-73 -133,-55 -162,-48 h -181 -167 l -131,26 -151,30 -153,60 -151,72 -111,78 -1031,1079 h -535 l 90,-176 h -355 l -90,265 h -1711 v -265 H 7410 l -449,-364 H 4359 l -449,449 -2516,9 4,-4665 h 90 v 1519 h 629 v -1519 h 1797 1708 265 1528 270 1437 270 1442 269 l 1524,-5 v 531 h 539 l 17,-38 26,-30 21,-30 34,-21 21,-18 30,-12 35,-13 34,-14 43,5 48,18 42,25 29,17 27,22 17,30 16,34 9,25 h 449 v 903 l 9,26 13,25 8,22 27,26 25,25 30,22 30,17 30,13 h 52 42 l 43,-13 30,-17 17,-13 30,-25 26,-35 25,-34 17,-39 v -903 l 540,5 v -891 h 175 l 890,1549 -214,330 h -851 v -988 l -540,-5 -17,-38 -25,-39 -26,-34 -30,-17 -26,-21 -30,-13 -39,-14 h -37 l -35,5 -30,9 -30,16 -30,22 -30,17 -21,30 -21,34 -14,18 -13,25 h -449 v 903 l -12,39 -18,30 -34,25 -21,21 -34,27 -26,8 -43,17 -39,9 h -38 l -30,-9 -21,-8 -30,-17 -34,-30 -22,-22 -17,-21 -21,-30 -9,-39 v -903 h -539 v 989 l -1524,4 v -1519 h -269 v 1519 H 9392 v -1519 h -270 v 1519 H 7685 v -1519 h -270 v 1519 H 5887 v -1519 h -265 v 1519 H 4184 v -1519 h -270 v 1519 H 2386 v -1519 h -269 -629 -90 v -274 l 12,-90 27,-72 38,-103 43,-78 59,-80 60,-87 73,-76 86,-82 77,-55 89,-51 87,-43 76,-35 77,-30 z"
   id="path110"
   inkscape:connector-curvature="0"
   style="fill:#ffa040;stroke:none" />
        </g>
        <defs
   id="defs117">
         <clipPath
   id="clip_path_2"
   clipPathUnits="userSpaceOnUse">
          <path
   d="m 2383,12452 h 1561 v 1403 H 2383 Z"
   id="path114"
   inkscape:connector-curvature="0" />
         </clipPath>
        </defs>
        <g
   clip-path="url(#clip_path_2)"
   id="g121">
         <path
   d="M 854,13137 H 5438"
   id="path119"
   inkscape:connector-curvature="0"
   style="fill:none;stroke:#808080;stroke-width:34;stroke-linecap:round;stroke-linejoin:miter" />
        </g>
        <g
   clip-path="url(#clip_path_1)"
   id="g123" />
        <defs
   id="defs128">
         <clipPath
   id="clip_path_3"
   clipPathUnits="userSpaceOnUse">
          <path
   d="m 4179,12452 h 1476 v 1403 H 4179 Z"
   id="path125"
   inkscape:connector-curvature="0" />
         </clipPath>
        </defs>
        <g
   clip-path="url(#clip_path_3)"
   id="g132">
         <path
   d="M 2738,13137 H 7064"
   id="path130"
   inkscape:connector-curvature="0"
   style="fill:none;stroke:#808080;stroke-width:34;stroke-linecap:round;stroke-linejoin:miter" />
        </g>
        <g
   clip-path="url(#clip_path_1)"
   id="g134" />
        <defs
   id="defs139">
         <clipPath
   id="clip_path_4"
   clipPathUnits="userSpaceOnUse">
          <path
   d="m 5887,12452 h 1561 v 1403 H 5887 Z"
   id="path136"
   inkscape:connector-curvature="0" />
         </clipPath>
        </defs>
        <g
   clip-path="url(#clip_path_4)"
   id="g143">
         <path
   d="M 4359,13137 H 8942"
   id="path141"
   inkscape:connector-curvature="0"
   style="fill:none;stroke:#808080;stroke-width:34;stroke-linecap:round;stroke-linejoin:miter" />
        </g>
        <g
   clip-path="url(#clip_path_1)"
   id="g145" />
        <defs
   id="defs150">
         <clipPath
   id="clip_path_5"
   clipPathUnits="userSpaceOnUse">
          <path
   d="m 7685,12452 h 1470 v 1403 H 7685 Z"
   id="path147"
   inkscape:connector-curvature="0" />
         </clipPath>
        </defs>
        <g
   clip-path="url(#clip_path_5)"
   id="g154">
         <path
   d="m 6247,13137 h 4313"
   id="path152"
   inkscape:connector-curvature="0"
   style="fill:none;stroke:#808080;stroke-width:34;stroke-linecap:round;stroke-linejoin:miter" />
        </g>
        <g
   clip-path="url(#clip_path_1)"
   id="g156" />
        <defs
   id="defs161">
         <clipPath
   id="clip_path_6"
   clipPathUnits="userSpaceOnUse">
          <path
   d="m 9392,12452 h 1476 v 1403 H 9392 Z"
   id="path158"
   inkscape:connector-curvature="0" />
         </clipPath>
        </defs>
        <g
   clip-path="url(#clip_path_6)"
   id="g165">
         <path
   d="m 7949,13137 h 4326"
   id="path163"
   inkscape:connector-curvature="0"
   style="fill:none;stroke:#808080;stroke-width:34;stroke-linecap:round;stroke-linejoin:miter" />
        </g>
        <g
   clip-path="url(#clip_path_1)"
   id="g167" />
        <defs
   id="defs172">
         <clipPath
   id="clip_path_7"
   clipPathUnits="userSpaceOnUse">
          <path
   d="m 11103,12457 h 1561 v 1399 h -1561 z"
   id="path169"
   inkscape:connector-curvature="0" />
         </clipPath>
        </defs>
        <g
   clip-path="url(#clip_path_7)"
   id="g176">
         <path
   d="m 9575,13146 4584,-13"
   id="path174"
   inkscape:connector-curvature="0"
   style="fill:none;stroke:#808080;stroke-width:34;stroke-linecap:round;stroke-linejoin:miter" />
        </g>
        <g
   clip-path="url(#clip_path_1)"
   id="g198">
         <path
   d="m 2383,12328 h 1527 v 1524 H 2383 Z"
   id="path178"
   inkscape:connector-curvature="0"
   style="fill:none;stroke:#808080;stroke-width:34;stroke-linecap:round;stroke-linejoin:round" />
         <path
   d="m 1483,12328 h 630 v 1524 h -630 z"
   id="path180"
   inkscape:connector-curvature="0"
   style="fill:none;stroke:#808080;stroke-width:34;stroke-linecap:round;stroke-linejoin:round" />
         <path
   d="m 4179,12328 h 1443 v 1524 H 4179 Z"
   id="path182"
   inkscape:connector-curvature="0"
   style="fill:none;stroke:#808080;stroke-width:34;stroke-linecap:round;stroke-linejoin:round" />
         <path
   d="m 5887,12328 h 1528 v 1524 H 5887 Z"
   id="path184"
   inkscape:connector-curvature="0"
   style="fill:none;stroke:#808080;stroke-width:34;stroke-linecap:round;stroke-linejoin:round" />
         <path
   d="m 9392,12328 h 1442 v 1524 H 9392 Z"
   id="path186"
   inkscape:connector-curvature="0"
   style="fill:none;stroke:#808080;stroke-width:34;stroke-linecap:round;stroke-linejoin:round" />
         <path
   d="m 7685,12328 h 1437 v 1524 H 7685 Z"
   id="path188"
   inkscape:connector-curvature="0"
   style="fill:none;stroke:#808080;stroke-width:34;stroke-linecap:round;stroke-linejoin:round" />
         <path
   d="m 11103,12328 h 1528 v 1524 h -1528 z"
   id="path190"
   inkscape:connector-curvature="0"
   style="fill:none;stroke:#808080;stroke-width:34;stroke-linecap:round;stroke-linejoin:round" />
         <path
   d="m 15062,11969 h 175 l 895,1562 -215,321 h -855 z"
   id="path192"
   inkscape:connector-curvature="0"
   style="fill:none;stroke:#808080;stroke-width:34;stroke-linecap:round;stroke-linejoin:round" />
         <path
   d="m 14069,12868 v 899 l 4,30 13,21 12,22 23,25 25,30 30,21 34,18 30,8 48,4 h 46 l 39,-12 34,-18 17,-16 26,-26 30,-30 26,-39 12,-38 v -899 l -12,-39 -26,-43 -26,-30 -30,-21 -26,-22 -30,-12 -43,-9 h -34 l -34,5 -30,9 -34,12 -30,22 -26,21 -25,30 -21,30 -9,21 z"
   id="path194"
   inkscape:connector-curvature="0"
   style="fill:none;stroke:#808080;stroke-width:34;stroke-linecap:round;stroke-linejoin:round" />
         <path
   d="m 13166,12868 21,-39 22,-34 26,-30 29,-17 26,-21 25,-14 35,-12 38,-9 h 43 l 44,18 42,25 29,17 30,26 18,30 17,30 8,30 v 899 l -13,43 -21,25 -30,30 -25,21 -34,22 -26,13 -39,17 -43,8 -38,-4 -30,-4 -21,-13 -26,-17 -34,-26 -26,-26 -13,-16 -21,-35 -13,-38 z"
   id="path196"
   inkscape:connector-curvature="0"
   style="fill:none;stroke:#808080;stroke-width:34;stroke-linecap:round;stroke-linejoin:round" />
        </g>
        <defs
   id="defs203">
         <clipPath
   id="clip_path_8"
   clipPathUnits="userSpaceOnUse">
          <path
   d="m 1573,11173 h 13612 v 1245 H 1573 Z"
   id="path200"
   inkscape:connector-curvature="0" />
         </clipPath>
        </defs>
        <g
   clip-path="url(#clip_path_8)"
   id="g207">
         <path
   d="M 28730,11700 H -12004"
   id="path205"
   inkscape:connector-curvature="0"
   style="fill:none;stroke:#000000;stroke-width:34;stroke-linecap:round;stroke-linejoin:miter" />
        </g>
        <g
   clip-path="url(#clip_path_1)"
   id="g209" />
        <defs
   id="defs214">
         <clipPath
   id="clip_path_9"
   clipPathUnits="userSpaceOnUse">
          <path
   d="m 2292,13724 h 9743 v 1403 H 2292 Z"
   id="path211"
   inkscape:connector-curvature="0" />
         </clipPath>
        </defs>
        <g
   clip-path="url(#clip_path_9)"
   id="g218">
         <path
   d="M 21711,14409 H -7417"
   id="path216"
   inkscape:connector-curvature="0"
   style="fill:none;stroke:#000000;stroke-width:34;stroke-linecap:round;stroke-linejoin:miter" />
        </g>
        <g
   clip-path="url(#clip_path_1)"
   id="g220" />
        <defs
   id="defs225">
         <clipPath
   id="clip_path_10"
   clipPathUnits="userSpaceOnUse">
          <path
   d="m 2310,14995 h 9742 v 1403 H 2310 Z"
   id="path222"
   inkscape:connector-curvature="0" />
         </clipPath>
        </defs>
        <g
   clip-path="url(#clip_path_10)"
   id="g229">
         <path
   d="M 21729,15680 H -7400"
   id="path227"
   inkscape:connector-curvature="0"
   style="fill:none;stroke:#000000;stroke-width:34;stroke-linecap:round;stroke-linejoin:miter" />
        </g>
        <g
   clip-path="url(#clip_path_1)"
   id="g251">
         <path
   d="m 2732,15048 c 0,63 -17,125 -48,179 -31,54 -76,99 -130,130 -53,32 -115,48 -177,48 -62,0 -123,-16 -177,-48 -54,-31 -99,-76 -130,-130 -31,-54 -47,-116 -47,-179 0,-62 16,-124 47,-178 31,-54 76,-99 130,-131 54,-31 115,-48 177,-48 62,0 124,17 177,48 54,32 99,77 130,131 31,54 48,116 48,178 z"
   id="path231"
   inkscape:connector-curvature="0"
   style="fill:#e07000;stroke:none" />
         <path
   d="m 12267,15048 c 0,63 -17,125 -48,179 -31,54 -77,99 -131,130 -54,32 -116,48 -178,48 -63,0 -125,-16 -179,-48 -54,-31 -99,-76 -131,-130 -31,-54 -47,-116 -47,-179 0,-62 16,-124 47,-178 32,-54 77,-99 131,-131 54,-31 116,-48 179,-48 62,0 124,17 178,48 54,32 100,77 131,131 31,54 48,116 48,178 z"
   id="path233"
   inkscape:connector-curvature="0"
   style="fill:#e07000;stroke:none" />
         <path
   d="m 2383,14691 h 9521 v 710 H 2383 Z"
   id="path235"
   inkscape:connector-curvature="0"
   style="fill:#e07000;stroke:none" />
         <path
   d="m 16294,13476 -256,432 v 441 h 3333"
   id="path237"
   inkscape:connector-curvature="0"
   style="fill:none;stroke:#000000;stroke-width:34;stroke-linecap:round;stroke-linejoin:round" />
         <path
   d="m 19204,17028 v -2063 l -35,-154 -3,-38 -9,-35 -13,-38 -12,-26 -18,-30 -17,-17 -17,-21 -21,-17 -21,-18 -22,-13 -26,-17 -39,-21 -51,-17 -38,-9 -43,-8 h -65 -1467 l -51,4 -43,8 -35,13 -30,14 -25,12 -30,21 -25,22 -23,21 -25,30 -17,22 -13,21 -1874,2298"
   id="path239"
   inkscape:connector-curvature="0"
   style="fill:none;stroke:#000000;stroke-width:34;stroke-linecap:round;stroke-linejoin:round" />
         <path
   d="m 14116,14661 v 2003 31 l 5,30 4,34 8,21 9,30 17,16 12,18 22,17 30,17 34,17 31,9 46,9 h 48 l 38,-14 30,-16 30,-18 21,-25 21,-17 13,-26 17,-26 13,-34 v -35 -2041 l -13,-39 -25,-42 -26,-30 -30,-25 -25,-22 -30,-13 -43,-8 h -35 l -34,4 -30,8 -34,13 -30,21 -25,27 -26,29 -22,30 -12,21 z"
   id="path241"
   inkscape:connector-curvature="0"
   style="fill:#8080ff;stroke:none" />
         <path
   d="m 14116,14661 v 2003 31 l 5,30 4,34 8,21 9,30 17,16 12,18 22,17 30,17 34,17 31,9 46,9 h 48 l 38,-14 30,-16 30,-18 21,-25 21,-17 13,-26 17,-26 13,-34 v -35 -2041 l -13,-39 -25,-42 -26,-30 -30,-25 -25,-22 -30,-13 -43,-8 h -35 l -34,4 -30,8 -34,13 -30,21 -25,27 -26,29 -22,30 -12,21 z"
   id="path243"
   inkscape:connector-curvature="0"
   style="fill:none;stroke:#808080;stroke-width:34;stroke-linecap:round;stroke-linejoin:round" />
         <path
   d="m 13213,14665 22,-43 21,-30 25,-30 31,-21 25,-21 26,-13 34,-13 39,-8 h 42 l 43,17 43,25 30,22 30,26 17,30 17,29 9,30 v 2076 l -4,21 -9,18 -9,21 -8,18 -13,12 -13,13 -13,13 -17,17 -17,9 -22,8 -25,13 -26,4 -21,5 -30,4 h -22 -21 -30 l -21,-4 -31,-14 -30,-12 -21,-17 -16,-13 -13,-17 -9,-17 -9,-34 -4,-39 z"
   id="path245"
   inkscape:connector-curvature="0"
   style="fill:#8080ff;stroke:none" />
         <path
   d="m 13213,14665 22,-43 21,-30 25,-30 31,-21 25,-21 26,-13 34,-13 39,-8 h 42 l 43,17 43,25 30,22 30,26 17,30 17,29 9,30 v 2076 l -4,21 -9,18 -9,21 -8,18 -13,12 -13,13 -13,13 -17,17 -17,9 -22,8 -25,13 -26,4 -21,5 -30,4 h -22 -21 -30 l -21,-4 -31,-14 -30,-12 -21,-17 -16,-13 -13,-17 -9,-17 -9,-34 -4,-39 z"
   id="path247"
   inkscape:connector-curvature="0"
   style="fill:none;stroke:#808080;stroke-width:34;stroke-linecap:round;stroke-linejoin:round" />
         <path
   d="m 12990,17178 h 1712 v -4759 h -1712 z"
   id="path249"
   inkscape:connector-curvature="0"
   style="fill:none;stroke:#000000;stroke-width:34;stroke-linecap:round;stroke-linejoin:round" />
        </g>
        <defs
   id="defs256">
         <clipPath
   id="clip_path_11"
   clipPathUnits="userSpaceOnUse">
          <path
   d="m 13205,12419 h 1403 v 4796 h -1403 z"
   id="path253"
   inkscape:connector-curvature="0" />
         </clipPath>
        </defs>
        <g
   clip-path="url(#clip_path_11)"
   id="g260">
         <path
   d="M 13889,7655 V 21945"
   id="path258"
   inkscape:connector-curvature="0"
   style="fill:none;stroke:#000000;stroke-width:34;stroke-linecap:round;stroke-linejoin:miter" />
        </g>
        <g
   clip-path="url(#clip_path_1)"
   id="g276">
         <path
   d="m 19191,13792 266,334 v 2414 h -86 v -2234 z"
   id="path262"
   inkscape:connector-curvature="0"
   style="fill:#606060;stroke:none" />
         <path
   d="m 19204,14918 180,146 v 877 l -180,133 z"
   id="path264"
   inkscape:connector-curvature="0"
   style="fill:#e0e000;stroke:none" />
         <path
   d="m 19204,14918 180,146 v 877 l -180,133 z"
   id="path266"
   inkscape:connector-curvature="0"
   style="fill:none;stroke:#606060;stroke-width:34;stroke-linecap:round;stroke-linejoin:round" />
         <path
   d="m 1394,16549 h -360 v 183 l 90,91 v 355 h -90 v 359 h 1349 v -988 z"
   id="path268"
   inkscape:connector-curvature="0"
   style="fill:#606060;stroke:none" />
         <path
   d="m 1394,16549 h -360 v 183 l 90,91 v 355 h -90 v 359 h 1349 v -988 z"
   id="path270"
   inkscape:connector-curvature="0"
   style="fill:none;stroke:#404040;stroke-width:34;stroke-linecap:round;stroke-linejoin:round" />
         <path
   d="m 19105,16544 h 822 v 163 l -149,90 v 480 l 149,-91 v 343 h -1031 l -197,-479 z"
   id="path272"
   inkscape:connector-curvature="0"
   style="fill:#606060;stroke:none" />
         <path
   d="m 19105,16544 h 822 v 163 l -149,90 v 480 l 149,-91 v 343 h -1031 l -197,-479 z"
   id="path274"
   inkscape:connector-curvature="0"
   style="fill:none;stroke:#404040;stroke-width:34;stroke-linecap:round;stroke-linejoin:round" />
        </g>
       </g>
      </g>
     </g>
    </g>
   </g>
  </g>
 </g>
</svg>