<?xml version="1.0" encoding="UTF-8" standalone="no"?>
<svg
   xmlns:ooo="http://xml.openoffice.org/svg/export"
   xmlns:dc="http://purl.org/dc/elements/1.1/"
   xmlns:cc="http://creativecommons.org/ns#"
   xmlns:rdf="http://www.w3.org/1999/02/22-rdf-syntax-ns#"
   xmlns:svg="http://www.w3.org/2000/svg"
   xmlns="http://www.w3.org/2000/svg"
   xmlns:sodipodi="http://sodipodi.sourceforge.net/DTD/sodipodi-0.dtd"
   xmlns:inkscape="http://www.inkscape.org/namespaces/inkscape"
   version="1.2"
   width="148.64999mm"
   height="48.290001mm"
   viewBox="0 0 14864.999 4829.0001"
   preserveAspectRatio="xMidYMid"
   xml:space="preserve"
   id="svg408"
   sodipodi:docname="sedan.svg"
   style="fill-rule:evenodd;stroke-width:28.22200012;stroke-linejoin:round"
   inkscape:version="0.92.5 (2060ec1f9f, 2020-04-08)"><metadata
   id="metadata412"><rdf:RDF><cc:Work
       rdf:about=""><dc:format>image/svg+xml</dc:format><dc:type
         rdf:resource="http://purl.org/dc/dcmitype/StillImage" /></cc:Work></rdf:RDF></metadata><sodipodi:namedview
   pagecolor="#ffffff"
   bordercolor="#666666"
   borderopacity="1"
   objecttolerance="10"
   gridtolerance="10"
   guidetolerance="10"
   inkscape:pageopacity="0"
   inkscape:pageshadow="2"
   inkscape:window-width="664"
   inkscape:window-height="487"
   id="namedview410"
   showgrid="false"
   inkscape:zoom="0.2102413"
   inkscape:cx="280.93228"
   inkscape:cy="91.237794"
   inkscape:window-x="0"
   inkscape:window-y="0"
   inkscape:window-maximized="0"
   inkscape:current-layer="svg408" />
 <defs
   class="ClipPathGroup"
   id="defs8">
  <clipPath
   id="presentation_clip_path"
   clipPathUnits="userSpaceOnUse">
   <rect
   x="0"
   y="0"
   width="21000"
   height="29700"
   id="rect2" />
  </clipPath>
  <clipPath
   id="presentation_clip_path_shrink"
   clipPathUnits="userSpaceOnUse">
   <rect
   x="21"
   y="29"
   width="20958"
   height="29641"
   id="rect5" />
  </clipPath>
 </defs>
 <defs
   class="TextShapeIndex"
   id="defs12">
  <g
   ooo:slide="id1"
   ooo:id-list="id3"
   id="g10" />
 </defs>
 <defs
   class="EmbeddedBulletChars"
   id="defs44">
  <g
   id="bullet-char-template-57356"
   transform="matrix(4.8828125e-4,0,0,-4.8828125e-4,0,0)">
   <path
   d="M 580,1141 1163,571 580,0 -4,571 Z"
   id="path14"
   inkscape:connector-curvature="0" />
  </g>
  <g
   id="bullet-char-template-57354"
   transform="matrix(4.8828125e-4,0,0,-4.8828125e-4,0,0)">
   <path
   d="M 8,1128 H 1137 V 0 H 8 Z"
   id="path17"
   inkscape:connector-curvature="0" />
  </g>
  <g
   id="bullet-char-template-10146"
   transform="matrix(4.8828125e-4,0,0,-4.8828125e-4,0,0)">
   <path
   d="M 174,0 602,739 174,1481 1456,739 Z M 1358,739 309,1346 659,739 Z"
   id="path20"
   inkscape:connector-curvature="0" />
  </g>
  <g
   id="bullet-char-template-10132"
   transform="matrix(4.8828125e-4,0,0,-4.8828125e-4,0,0)">
   <path
   d="M 2015,739 1276,0 H 717 l 543,543 H 174 v 393 h 1086 l -543,545 h 557 z"
   id="path23"
   inkscape:connector-curvature="0" />
  </g>
  <g
   id="bullet-char-template-10007"
   transform="matrix(4.8828125e-4,0,0,-4.8828125e-4,0,0)">
   <path
   d="m 0,-2 c -7,16 -16,29 -25,39 l 381,530 c -94,256 -141,385 -141,387 0,25 13,38 40,38 9,0 21,-2 34,-5 21,4 42,12 65,25 l 27,-13 111,-251 280,301 64,-25 24,25 c 21,-10 41,-24 62,-43 C 886,937 835,863 770,784 769,783 710,716 594,584 L 774,223 c 0,-27 -21,-55 -63,-84 l 16,-20 C 717,90 699,76 672,76 641,76 570,178 457,381 L 164,-76 c -22,-34 -53,-51 -92,-51 -42,0 -63,17 -64,51 -7,9 -10,24 -10,44 0,9 1,19 2,30 z"
   id="path26"
   inkscape:connector-curvature="0" />
  </g>
  <g
   id="bullet-char-template-10004"
   transform="matrix(4.8828125e-4,0,0,-4.8828125e-4,0,0)">
   <path
   d="M 285,-33 C 182,-33 111,30 74,156 52,228 41,333 41,471 c 0,78 14,145 41,201 34,71 87,106 158,106 53,0 88,-31 106,-94 l 23,-176 c 8,-64 28,-97 59,-98 l 735,706 c 11,11 33,17 66,17 42,0 63,-15 63,-46 V 965 c 0,-36 -10,-64 -30,-84 L 442,47 C 390,-6 338,-33 285,-33 Z"
   id="path29"
   inkscape:connector-curvature="0" />
  </g>
  <g
   id="bullet-char-template-9679"
   transform="matrix(4.8828125e-4,0,0,-4.8828125e-4,0,0)">
   <path
   d="M 813,0 C 632,0 489,54 383,161 276,268 223,411 223,592 c 0,181 53,324 160,431 106,107 249,161 430,161 179,0 323,-54 432,-161 108,-107 162,-251 162,-431 0,-180 -54,-324 -162,-431 C 1136,54 992,0 813,0 Z"
   id="path32"
   inkscape:connector-curvature="0" />
  </g>
  <g
   id="bullet-char-template-8226"
   transform="matrix(4.8828125e-4,0,0,-4.8828125e-4,0,0)">
   <path
   d="m 346,457 c -73,0 -137,26 -191,78 -54,51 -81,114 -81,188 0,73 27,136 81,188 54,52 118,78 191,78 73,0 134,-26 185,-79 51,-51 77,-114 77,-187 0,-75 -25,-137 -76,-188 -50,-52 -112,-78 -186,-78 z"
   id="path35"
   inkscape:connector-curvature="0" />
  </g>
  <g
   id="bullet-char-template-8211"
   transform="matrix(4.8828125e-4,0,0,-4.8828125e-4,0,0)">
   <path
   d="M -4,459 H 1135 V 606 H -4 Z"
   id="path38"
   inkscape:connector-curvature="0" />
  </g>
  <g
   id="bullet-char-template-61548"
   transform="matrix(4.8828125e-4,0,0,-4.8828125e-4,0,0)">
   <path
   d="m 173,740 c 0,163 58,303 173,419 116,115 255,173 419,173 163,0 302,-58 418,-173 116,-116 174,-256 174,-419 0,-163 -58,-303 -174,-418 C 1067,206 928,148 765,148 601,148 462,206 346,322 231,437 173,577 173,740 Z"
   id="path41"
   inkscape:connector-curvature="0" />
  </g>
 </defs>
 <g
   id="g49"
   transform="translate(-3067,-12435)">
  <g
   id="id2"
   class="Master_Slide">
   <g
   id="bg-id2"
   class="Background" />
   <g
   id="bo-id2"
   class="BackgroundObjects" />
  </g>
 </g>
 <g
   class="SlideGroup"
   id="g406"
   transform="translate(-3067,-12435)">
  <g
   id="g404">
   <g
   id="container-id1">
    <g
   id="id1"
   class="Slide"
   clip-path="url(#presentation_clip_path)">
     <g
   class="Page"
   id="g400">
      <g
   class="Graphic"
   id="g398">
       <g
   id="id3">
        <rect
   class="BoundingBox"
   x="3067"
   y="12435"
   width="14865"
   height="4829"
   id="rect51"
   style="fill:none;stroke:none" />
        <defs
   id="defs56">
         <clipPath
   id="clip_path_1"
   clipPathUnits="userSpaceOnUse">
          <path
   d="m 3067,12435 h 14864 v 4828 H 3067 Z"
   id="path53"
   inkscape:connector-curvature="0" />
         </clipPath>
        </defs>
        <g
   clip-path="url(#clip_path_1)"
   id="g98">
         <path
   d="m 5523,15214 c 0,143 -39,284 -112,409 -74,124 -179,228 -307,299 -127,72 -271,110 -418,110 -148,0 -292,-38 -419,-110 -128,-71 -233,-175 -307,-299 -73,-125 -112,-266 -112,-409 0,-144 39,-285 112,-410 74,-124 179,-228 307,-299 127,-72 271,-110 418,-110 148,0 292,38 419,110 128,71 233,175 307,299 73,125 112,266 112,409 z"
   id="path58"
   inkscape:connector-curvature="0"
   style="fill:#000000;stroke:none" />
         <path
   d="m 10063,14598 h 2813 v 1637 h -2813 z"
   id="path60"
   inkscape:connector-curvature="0"
   style="fill:#000000;stroke:none" />
         <path
   d="m 12474,16052 c 0,206 -46,409 -134,588 -87,179 -213,327 -365,430 -152,104 -324,158 -500,158 -175,0 -347,-54 -499,-158 -152,-103 -278,-251 -365,-430 -88,-179 -134,-382 -134,-588 0,-206 46,-409 134,-588 87,-179 213,-327 365,-430 152,-104 324,-158 499,-158 176,0 348,54 500,158 152,103 278,251 365,430 88,179 134,382 134,588 z"
   id="path62"
   inkscape:connector-curvature="0"
   style="fill:#000000;stroke:none" />
         <path
   d="m 11652,15827 -192,1388 57,11 56,7 57,4 57,-1 56,-4 57,-8 56,-11 56,-16 54,-19 54,-22 53,-27 52,-29 51,-33 49,-37 48,-39 46,-43 44,-45 43,-49 40,-51 38,-54 36,-56 34,-59 31,-61 29,-63 26,-64 24,-66 21,-68 18,-69 15,-70 13,-71 10,-72 6,-73 4,-72 1,-73 z"
   id="path64"
   inkscape:connector-curvature="0"
   style="fill:#000000;stroke:none" />
         <path
   d="m 11475,15878 h 1298 l -2,-53 -5,-52 -9,-52 -12,-52 -16,-51 -19,-50 -23,-50 -26,-48 -29,-48 -32,-46 -36,-45 -38,-43 -41,-42 -44,-40 -47,-38 -49,-36 -51,-35 -54,-32 -56,-30 -58,-27 -59,-25 -61,-23 -63,-20 -64,-18 -65,-15 -66,-12 -66,-10 -68,-7 -67,-4 -68,-2 z"
   id="path66"
   inkscape:connector-curvature="0"
   style="fill:#000000;stroke:none" />
         <path
   d="m 12060,16043 c 0,132 -29,263 -83,378 -54,115 -132,210 -226,277 -93,66 -200,101 -308,101 -108,0 -215,-35 -308,-101 -94,-67 -172,-162 -226,-277 -54,-115 -83,-246 -83,-378 0,-133 29,-264 83,-379 54,-115 132,-210 226,-277 93,-66 200,-101 308,-101 108,0 215,35 308,101 94,67 172,162 226,277 54,115 83,246 83,378 z"
   id="path68"
   inkscape:connector-curvature="0"
   style="fill:#000000;stroke:none" />
         <path
   d="m 12057,16041 -1,-38 -2,-38 -4,-38 -6,-38 -7,-37 -8,-37 -10,-36 -12,-36 -13,-34 -15,-34 -16,-33 -17,-32 -18,-31 -20,-30 -21,-28 -22,-27 -23,-26 -25,-24 -25,-23 -26,-21 -27,-19 -28,-18 -28,-16 -29,-14 -30,-12 -30,-11 -31,-9 -30,-6 -31,-5 -32,-3 -31,-1 v 0 l -31,1 -32,3 -31,5 -30,6 -31,9 -30,11 -30,12 -29,14 -28,16 -28,18 -27,19 -26,21 -25,23 -25,24 -23,26 -22,27 -21,28 -20,30 -18,31 -17,32 -16,33 -15,34 -13,34 -12,36 -10,36 -8,37 -7,37 -6,38 -4,38 -2,38 -1,38 v 0 l 1,38 2,38 4,38 6,38 7,37 8,37 10,36 12,36 13,34 15,34 16,33 17,32 18,31 20,30 21,28 22,27 23,26 25,24 25,23 26,21 27,19 28,18 28,16 29,14 30,12 30,11 31,9 30,6 31,5 32,3 31,1 v 0 l 31,-1 32,-3 31,-5 30,-6 31,-9 30,-11 30,-12 29,-14 28,-16 28,-18 27,-19 26,-21 25,-23 25,-24 23,-26 22,-27 21,-28 20,-30 18,-31 17,-32 16,-33 15,-34 13,-34 12,-36 10,-36 8,-37 7,-37 6,-38 4,-38 2,-38 z"
   id="path70"
   inkscape:connector-curvature="0"
   style="fill:none;stroke:#c0c0c0;stroke-width:71;stroke-linecap:round;stroke-linejoin:round" />
         <path
   d="m 11298,15362 -35,520 -344,-61 -18,79 -5,71 287,167 -110,429 66,53 44,53 194,-446 327,428 61,-49 58,-75 -256,-410 397,-256 -35,-124 -40,-31 -379,164 -58,-526 z"
   id="path72"
   inkscape:connector-curvature="0"
   style="fill:#000000;stroke:none" />
         <path
   d="m 11298,15362 -35,520 -344,-61 -18,79 -5,71 287,167 -110,429 66,53 44,53 194,-446 327,428 61,-49 58,-75 -256,-410 397,-256 -35,-124 -40,-31 -379,164 -58,-526 z"
   id="path74"
   inkscape:connector-curvature="0"
   style="fill:none;stroke:#c0c0c0;stroke-width:71;stroke-linecap:round;stroke-linejoin:round" />
         <path
   d="m 11306,16002 c 0,10 -3,21 -9,30 -5,10 -13,17 -23,23 -9,5 -20,8 -31,8 -12,0 -23,-3 -32,-8 -10,-6 -18,-13 -23,-23 -6,-9 -9,-20 -9,-30 0,-11 3,-22 9,-31 5,-10 13,-17 23,-23 9,-5 20,-8 32,-8 11,0 22,3 31,8 10,6 18,13 23,23 6,9 9,20 9,31 z"
   id="path76"
   inkscape:connector-curvature="0"
   style="fill:#000000;stroke:none" />
         <path
   d="m 11275,16004 c 0,5 -2,11 -5,16 -3,5 -7,9 -12,12 -6,2 -12,4 -18,4 -6,0 -12,-2 -17,-4 -6,-3 -10,-7 -13,-12 -3,-5 -5,-11 -5,-16 0,-6 2,-12 5,-17 3,-5 7,-9 13,-12 5,-2 11,-4 17,-4 6,0 12,2 18,4 5,3 9,7 12,12 3,5 5,11 5,17 z"
   id="path78"
   inkscape:connector-curvature="0"
   style="fill:#ffffff;stroke:none" />
         <path
   d="m 11624,15984 c 0,10 -3,21 -8,30 -6,10 -13,17 -23,23 -9,5 -20,8 -31,8 -10,0 -21,-3 -30,-8 -10,-6 -17,-13 -23,-23 -5,-9 -8,-20 -8,-30 0,-11 3,-22 8,-31 6,-10 13,-17 23,-23 9,-5 20,-8 30,-8 11,0 22,3 31,8 10,6 17,13 23,23 5,9 8,20 8,31 z"
   id="path80"
   inkscape:connector-curvature="0"
   style="fill:#000000;stroke:none" />
         <path
   d="m 11597,15988 c 0,6 -2,12 -5,18 -3,5 -7,9 -13,12 -5,3 -11,5 -17,5 -6,0 -12,-2 -18,-5 -5,-3 -9,-7 -12,-12 -3,-6 -5,-12 -5,-18 0,-6 2,-12 5,-17 3,-6 7,-10 12,-13 6,-3 12,-5 18,-5 6,0 12,2 17,5 6,3 10,7 13,13 3,5 5,11 5,17 z"
   id="path82"
   inkscape:connector-curvature="0"
   style="fill:#ffffff;stroke:none" />
         <path
   d="m 11447,15871 c 0,11 -3,22 -9,31 -5,10 -13,18 -23,23 -9,6 -20,9 -32,9 -11,0 -22,-3 -31,-9 -10,-5 -18,-13 -23,-23 -6,-9 -9,-20 -9,-31 0,-12 3,-23 9,-32 5,-10 13,-18 23,-23 9,-6 20,-9 31,-9 12,0 23,3 32,9 10,5 18,13 23,23 6,9 9,20 9,32 z"
   id="path84"
   inkscape:connector-curvature="0"
   style="fill:#000000;stroke:none" />
         <path
   d="m 11421,15873 c 0,6 -2,12 -5,18 -3,5 -7,9 -13,12 -5,3 -11,5 -17,5 -6,0 -12,-2 -18,-5 -5,-3 -9,-7 -12,-12 -3,-6 -5,-12 -5,-18 0,-6 2,-12 5,-17 3,-6 7,-10 12,-13 6,-3 12,-5 18,-5 6,0 12,2 17,5 6,3 10,7 13,13 3,5 5,11 5,17 z"
   id="path86"
   inkscape:connector-curvature="0"
   style="fill:#ffffff;stroke:none" />
         <path
   d="m 11579,16202 c 0,11 -3,22 -9,31 -5,10 -13,18 -23,23 -9,6 -20,9 -32,9 -11,0 -22,-3 -31,-9 -10,-5 -18,-13 -23,-23 -6,-9 -9,-20 -9,-31 0,-12 3,-23 9,-32 5,-10 13,-18 23,-23 9,-6 20,-9 31,-9 12,0 23,3 32,9 10,5 18,13 23,23 6,9 9,20 9,32 z"
   id="path88"
   inkscape:connector-curvature="0"
   style="fill:#000000;stroke:none" />
         <path
   d="m 11553,16200 c 0,6 -2,12 -5,18 -3,5 -7,9 -13,12 -5,3 -11,5 -17,5 -6,0 -12,-2 -18,-5 -5,-3 -9,-7 -12,-12 -3,-6 -5,-12 -5,-18 0,-6 2,-12 5,-17 3,-6 7,-10 12,-13 6,-3 12,-5 18,-5 6,0 12,2 17,5 6,3 10,7 13,13 3,5 5,11 5,17 z"
   id="path90"
   inkscape:connector-curvature="0"
   style="fill:#ffffff;stroke:none" />
         <path
   d="m 11518,16052 c 0,20 -5,39 -16,56 -10,17 -25,31 -42,41 -18,10 -38,15 -59,15 -20,0 -40,-5 -58,-15 -17,-10 -32,-24 -42,-41 -11,-17 -16,-36 -16,-56 0,-20 5,-39 16,-56 10,-17 25,-31 42,-41 18,-10 38,-15 58,-15 21,0 41,5 59,15 17,10 32,24 42,41 11,17 16,36 16,56 z"
   id="path92"
   inkscape:connector-curvature="0"
   style="fill:#ffffff;stroke:none" />
         <path
   d="m 11345,16202 c 0,11 -3,22 -9,31 -5,10 -13,18 -23,23 -9,6 -20,9 -32,9 -11,0 -22,-3 -31,-9 -10,-5 -18,-13 -23,-23 -6,-9 -9,-20 -9,-31 0,-12 3,-23 9,-32 5,-10 13,-18 23,-23 9,-6 20,-9 31,-9 12,0 23,3 32,9 10,5 18,13 23,23 6,9 9,20 9,32 z"
   id="path94"
   inkscape:connector-curvature="0"
   style="fill:#000000;stroke:none" />
         <path
   d="m 11315,16200 c 0,6 -2,12 -5,18 -3,5 -7,9 -13,12 -5,3 -11,5 -17,5 -6,0 -12,-2 -18,-5 -5,-3 -9,-7 -12,-12 -3,-6 -5,-12 -5,-18 0,-6 2,-12 5,-17 3,-6 7,-10 12,-13 6,-3 12,-5 18,-5 6,0 12,2 17,5 6,3 10,7 13,13 3,5 5,11 5,17 z"
   id="path96"
   inkscape:connector-curvature="0"
   style="fill:#ffffff;stroke:none" />
        </g>
        <defs
   id="defs103">
         <clipPath
   id="clip_path_2"
   clipPathUnits="userSpaceOnUse">
          <path
   d="m 11280,15922 h 105 v 105 h -105 z"
   id="path100"
   inkscape:connector-curvature="0" />
         </clipPath>
        </defs>
        <g
   clip-path="url(#clip_path_2)"
   id="g107">
         <path
   d="m 11210,15851 211,212"
   id="path105"
   inkscape:connector-curvature="0"
   style="fill:none;stroke:#c0c0c0;stroke-width:71;stroke-linecap:round;stroke-linejoin:miter" />
        </g>
        <g
   clip-path="url(#clip_path_1)"
   id="g109" />
        <defs
   id="defs114">
         <clipPath
   id="clip_path_3"
   clipPathUnits="userSpaceOnUse">
          <path
   d="m 11417,15896 h 109 v 131 h -109 z"
   id="path111"
   inkscape:connector-curvature="0" />
         </clipPath>
        </defs>
        <g
   clip-path="url(#clip_path_3)"
   id="g118">
         <path
   d="m 11567,15799 -225,291"
   id="path116"
   inkscape:connector-curvature="0"
   style="fill:none;stroke:#c0c0c0;stroke-width:71;stroke-linecap:round;stroke-linejoin:miter" />
        </g>
        <g
   clip-path="url(#clip_path_1)"
   id="g120" />
        <defs
   id="defs125">
         <clipPath
   id="clip_path_4"
   clipPathUnits="userSpaceOnUse">
          <path
   d="m 11205,14708 h 180 v 2555 h -180 z"
   id="path122"
   inkscape:connector-curvature="0" />
         </clipPath>
        </defs>
        <g
   clip-path="url(#clip_path_4)"
   id="g129">
         <path
   d="m 11060,16178 436,-172"
   id="path127"
   inkscape:connector-curvature="0"
   style="fill:none;stroke:#c0c0c0;stroke-width:71;stroke-linecap:round;stroke-linejoin:miter" />
        </g>
        <g
   clip-path="url(#clip_path_1)"
   id="g131" />
        <defs
   id="defs136">
         <clipPath
   id="clip_path_5"
   clipPathUnits="userSpaceOnUse">
          <path
   d="m 11443,14677 h 158 v 2586 h -158 z"
   id="path133"
   inkscape:connector-curvature="0" />
         </clipPath>
        </defs>
        <g
   clip-path="url(#clip_path_5)"
   id="g140">
         <path
   d="m 11690,16116 -370,-79"
   id="path138"
   inkscape:connector-curvature="0"
   style="fill:none;stroke:#c0c0c0;stroke-width:71;stroke-linecap:round;stroke-linejoin:miter" />
        </g>
        <g
   clip-path="url(#clip_path_1)"
   id="g142" />
        <defs
   id="defs147">
         <clipPath
   id="clip_path_6"
   clipPathUnits="userSpaceOnUse">
          <path
   d="m 9970,16130 h 2866 v 140 H 9970 Z"
   id="path144"
   inkscape:connector-curvature="0" />
         </clipPath>
        </defs>
        <g
   clip-path="url(#clip_path_6)"
   id="g151">
         <path
   d="m 11373,16024 26,317"
   id="path149"
   inkscape:connector-curvature="0"
   style="fill:none;stroke:#c0c0c0;stroke-width:71;stroke-linecap:round;stroke-linejoin:miter" />
        </g>
        <g
   clip-path="url(#clip_path_1)"
   id="g187">
         <path
   d="m 5770,15734 c 0,177 -40,352 -117,506 -76,154 -186,281 -318,370 -133,89 -283,136 -435,136 -153,0 -303,-47 -436,-136 -132,-89 -242,-216 -318,-370 -77,-154 -117,-329 -117,-506 0,-178 40,-353 117,-507 76,-154 186,-281 318,-370 133,-89 283,-136 435,-136 153,0 303,47 436,136 132,89 242,216 318,370 77,154 117,329 117,506 z"
   id="path153"
   inkscape:connector-curvature="0"
   style="fill:#000000;stroke:none" />
         <path
   d="m 4956,15923 -6,822 53,-1 53,-3 53,-5 53,-7 52,-9 51,-12 51,-13 49,-15 49,-18 47,-19 46,-21 44,-23 44,-25 41,-26 40,-28 37,-29 36,-31 34,-33 31,-33 30,-35 27,-36 25,-37 22,-38 20,-39 17,-40 15,-40 12,-41 9,-41 7,-41 4,-42 1,-42 z"
   id="path155"
   inkscape:connector-curvature="0"
   style="fill:#000000;stroke:none" />
         <path
   d="m 5585,15747 c 0,113 -30,225 -86,323 -56,98 -137,180 -235,236 -97,57 -208,87 -320,87 -113,0 -224,-30 -321,-87 -98,-56 -179,-138 -235,-236 -56,-98 -86,-210 -86,-323 0,-113 30,-225 86,-323 56,-98 137,-180 235,-236 97,-57 208,-87 320,-87 113,0 224,30 321,87 98,56 179,138 235,236 56,98 86,210 86,323 z"
   id="path157"
   inkscape:connector-curvature="0"
   style="fill:#000000;stroke:none" />
         <path
   d="m 5582,15746 -1,-33 -2,-32 -4,-33 -6,-32 -7,-31 -9,-32 -11,-31 -12,-30 -13,-30 -15,-29 -17,-28 -18,-27 -19,-26 -20,-25 -22,-25 -23,-23 -24,-22 -25,-20 -26,-20 -27,-18 -28,-16 -29,-15 -30,-14 -30,-12 -30,-10 -32,-9 -31,-8 -32,-6 -32,-4 -33,-2 -32,-1 v 0 l -32,1 -33,2 -32,4 -32,6 -31,8 -32,9 -30,10 -30,12 -30,14 -29,15 -28,16 -27,18 -26,20 -25,20 -24,22 -23,23 -22,25 -20,25 -19,26 -18,27 -17,28 -15,29 -13,30 -12,30 -11,31 -9,32 -7,31 -6,32 -4,33 -2,32 -1,33 v 0 l 1,33 2,32 4,33 6,32 7,31 9,32 11,31 12,30 13,30 15,29 17,28 18,27 19,26 20,25 22,25 23,23 24,22 25,20 26,20 27,18 28,16 29,15 30,14 30,12 30,10 32,9 31,8 32,6 32,4 33,2 32,1 v 0 l 32,-1 33,-2 32,-4 32,-6 31,-8 32,-9 30,-10 30,-12 30,-14 29,-15 28,-16 27,-18 26,-20 25,-20 24,-22 23,-23 22,-25 20,-25 19,-26 18,-27 17,-28 15,-29 13,-30 12,-30 11,-31 9,-32 7,-31 6,-32 4,-33 2,-32 z"
   id="path159"
   inkscape:connector-curvature="0"
   style="fill:none;stroke:#c0c0c0;stroke-width:71;stroke-linecap:round;stroke-linejoin:round" />
         <path
   d="m 4809,15141 -8,494 -420,-79 -30,57 -9,88 410,142 -198,370 79,58 75,31 225,-305 291,278 75,-35 62,-75 -269,-340 379,-190 71,-22 -31,-101 -22,-36 -499,155 -17,-495 h -89 z"
   id="path161"
   inkscape:connector-curvature="0"
   style="fill:#000000;stroke:none" />
         <path
   d="m 4809,15141 -8,494 -420,-79 -30,57 -9,88 410,142 -198,370 79,58 75,31 225,-305 291,278 75,-35 62,-75 -269,-340 379,-190 71,-22 -31,-101 -22,-36 -499,155 -17,-495 h -89 z"
   id="path163"
   inkscape:connector-curvature="0"
   style="fill:none;stroke:#c0c0c0;stroke-width:71;stroke-linecap:round;stroke-linejoin:round" />
         <path
   d="m 4817,15735 c 0,11 -3,22 -9,31 -5,10 -13,18 -23,23 -9,6 -20,9 -31,9 -12,0 -23,-3 -32,-9 -10,-5 -18,-13 -23,-23 -6,-9 -9,-20 -9,-31 0,-12 3,-23 9,-32 5,-10 13,-18 23,-23 9,-6 20,-9 32,-9 11,0 22,3 31,9 10,5 18,13 23,23 6,9 9,20 9,32 z"
   id="path165"
   inkscape:connector-curvature="0"
   style="fill:#000000;stroke:none" />
         <path
   d="m 4791,15734 c 0,5 -2,11 -5,16 -3,5 -7,9 -12,12 -6,2 -12,4 -18,4 -6,0 -12,-2 -17,-4 -6,-3 -10,-7 -13,-12 -3,-5 -5,-11 -5,-16 0,-6 2,-12 5,-17 3,-5 7,-9 13,-12 5,-2 11,-4 17,-4 6,0 12,2 18,4 5,3 9,7 12,12 3,5 5,11 5,17 z"
   id="path167"
   inkscape:connector-curvature="0"
   style="fill:#ffffff;stroke:none" />
         <path
   d="m 5139,15717 c 0,11 -3,22 -9,31 -5,10 -13,18 -23,23 -9,6 -20,9 -31,9 -12,0 -23,-3 -32,-9 -10,-5 -18,-13 -23,-23 -6,-9 -9,-20 -9,-31 0,-12 3,-23 9,-32 5,-10 13,-18 23,-23 9,-6 20,-9 32,-9 11,0 22,3 31,9 10,5 18,13 23,23 6,9 9,20 9,32 z"
   id="path169"
   inkscape:connector-curvature="0"
   style="fill:#000000;stroke:none" />
         <path
   d="m 5109,15719 c 0,6 -2,12 -5,18 -3,5 -7,9 -12,12 -6,3 -12,5 -18,5 -6,0 -12,-2 -17,-5 -6,-3 -10,-7 -13,-12 -3,-6 -5,-12 -5,-18 0,-6 2,-12 5,-17 3,-6 7,-10 13,-13 5,-3 11,-5 17,-5 6,0 12,2 18,5 5,3 9,7 12,13 3,5 5,11 5,17 z"
   id="path171"
   inkscape:connector-curvature="0"
   style="fill:#ffffff;stroke:none" />
         <path
   d="m 4963,15602 c 0,11 -3,22 -9,31 -5,10 -13,18 -23,23 -9,6 -20,9 -31,9 -12,0 -23,-3 -32,-9 -10,-5 -18,-13 -23,-23 -6,-9 -9,-20 -9,-31 0,-12 3,-23 9,-32 5,-10 13,-18 23,-23 9,-6 20,-9 32,-9 11,0 22,3 31,9 10,5 18,13 23,23 6,9 9,20 9,32 z"
   id="path173"
   inkscape:connector-curvature="0"
   style="fill:#000000;stroke:none" />
         <path
   d="m 4932,15604 c 0,6 -2,12 -5,18 -3,5 -7,9 -12,12 -6,3 -12,5 -18,5 -6,0 -12,-2 -17,-5 -6,-3 -10,-7 -13,-12 -3,-6 -5,-12 -5,-18 0,-6 2,-12 5,-17 3,-6 7,-10 13,-13 5,-3 11,-5 17,-5 6,0 12,2 18,5 5,3 9,7 12,13 3,5 5,11 5,17 z"
   id="path175"
   inkscape:connector-curvature="0"
   style="fill:#ffffff;stroke:none" />
         <path
   d="m 5095,15936 c 0,10 -3,21 -9,30 -5,10 -13,17 -23,23 -9,5 -20,8 -31,8 -12,0 -23,-3 -32,-8 -10,-6 -18,-13 -23,-23 -6,-9 -9,-20 -9,-30 0,-11 3,-22 9,-31 5,-10 13,-17 23,-23 9,-5 20,-8 32,-8 11,0 22,3 31,8 10,6 18,13 23,23 6,9 9,20 9,31 z"
   id="path177"
   inkscape:connector-curvature="0"
   style="fill:#000000;stroke:none" />
         <path
   d="m 5065,15935 c 0,6 -2,12 -5,18 -3,5 -7,9 -12,12 -6,3 -12,5 -18,5 -6,0 -12,-2 -17,-5 -6,-3 -10,-7 -13,-12 -3,-6 -5,-12 -5,-18 0,-6 2,-12 5,-17 3,-6 7,-10 13,-13 5,-3 11,-5 17,-5 6,0 12,2 18,5 5,3 9,7 12,13 3,5 5,11 5,17 z"
   id="path179"
   inkscape:connector-curvature="0"
   style="fill:#ffffff;stroke:none" />
         <path
   d="m 4892,15951 c 0,11 -3,22 -9,31 -5,10 -13,18 -23,23 -9,6 -20,9 -31,9 -12,0 -23,-3 -32,-9 -10,-5 -18,-13 -23,-23 -6,-9 -9,-20 -9,-31 0,-12 3,-23 9,-32 5,-10 13,-18 23,-23 9,-6 20,-9 32,-9 11,0 22,3 31,9 10,5 18,13 23,23 6,9 9,20 9,32 z"
   id="path181"
   inkscape:connector-curvature="0"
   style="fill:#000000;stroke:none" />
         <path
   d="m 4861,15953 c 0,6 -2,12 -4,18 -3,5 -7,9 -12,12 -5,3 -11,5 -16,5 -6,0 -12,-2 -17,-5 -5,-3 -9,-7 -12,-12 -2,-6 -4,-12 -4,-18 0,-6 2,-12 4,-17 3,-6 7,-10 12,-13 5,-3 11,-5 17,-5 5,0 11,2 16,5 5,3 9,7 12,13 2,5 4,11 4,17 z"
   id="path183"
   inkscape:connector-curvature="0"
   style="fill:#ffffff;stroke:none" />
         <path
   d="m 5029,15786 c 0,20 -5,39 -15,57 -10,17 -25,32 -42,42 -17,10 -37,15 -57,15 -20,0 -40,-5 -57,-15 -17,-10 -32,-25 -42,-42 -10,-18 -15,-37 -15,-57 0,-21 5,-40 15,-58 10,-17 25,-32 42,-42 17,-10 37,-15 57,-15 20,0 40,5 57,15 17,10 32,25 42,42 10,18 15,37 15,58 z"
   id="path185"
   inkscape:connector-curvature="0"
   style="fill:#ffffff;stroke:none" />
        </g>
        <defs
   id="defs192">
         <clipPath
   id="clip_path_7"
   clipPathUnits="userSpaceOnUse">
          <path
   d="m 4796,15653 h 100 v 105 h -100 z"
   id="path189"
   inkscape:connector-curvature="0" />
         </clipPath>
        </defs>
        <g
   clip-path="url(#clip_path_7)"
   id="g196">
         <path
   d="m 4730,15582 198,212"
   id="path194"
   inkscape:connector-curvature="0"
   style="fill:none;stroke:#c0c0c0;stroke-width:71;stroke-linecap:round;stroke-linejoin:miter" />
        </g>
        <g
   clip-path="url(#clip_path_1)"
   id="g198" />
        <defs
   id="defs203">
         <clipPath
   id="clip_path_8"
   clipPathUnits="userSpaceOnUse">
          <path
   d="m 4933,15626 h 109 v 131 h -109 z"
   id="path200"
   inkscape:connector-curvature="0" />
         </clipPath>
        </defs>
        <g
   clip-path="url(#clip_path_8)"
   id="g207">
         <path
   d="m 5083,15529 -225,292"
   id="path205"
   inkscape:connector-curvature="0"
   style="fill:none;stroke:#c0c0c0;stroke-width:71;stroke-linecap:round;stroke-linejoin:miter" />
        </g>
        <g
   clip-path="url(#clip_path_1)"
   id="g209" />
        <defs
   id="defs214">
         <clipPath
   id="clip_path_9"
   clipPathUnits="userSpaceOnUse">
          <path
   d="m 4778,15799 h 118 v 78 h -118 z"
   id="path211"
   inkscape:connector-curvature="0" />
         </clipPath>
        </defs>
        <g
   clip-path="url(#clip_path_9)"
   id="g218">
         <path
   d="m 4695,15887 251,-133"
   id="path216"
   inkscape:connector-curvature="0"
   style="fill:none;stroke:#c0c0c0;stroke-width:71;stroke-linecap:round;stroke-linejoin:miter" />
        </g>
        <g
   clip-path="url(#clip_path_1)"
   id="g220" />
        <defs
   id="defs225">
         <clipPath
   id="clip_path_10"
   clipPathUnits="userSpaceOnUse">
          <path
   d="m 4955,14413 h 162 v 2833 h -162 z"
   id="path222"
   inkscape:connector-curvature="0" />
         </clipPath>
        </defs>
        <g
   clip-path="url(#clip_path_10)"
   id="g229">
         <path
   d="m 5211,15851 -384,-79"
   id="path227"
   inkscape:connector-curvature="0"
   style="fill:none;stroke:#c0c0c0;stroke-width:71;stroke-linecap:round;stroke-linejoin:miter" />
        </g>
        <g
   clip-path="url(#clip_path_1)"
   id="g231" />
        <defs
   id="defs236">
         <clipPath
   id="clip_path_11"
   clipPathUnits="userSpaceOnUse">
          <path
   d="m 3504,15874 h 2875 v 162 H 3504 Z"
   id="path233"
   inkscape:connector-curvature="0" />
         </clipPath>
        </defs>
        <g
   clip-path="url(#clip_path_11)"
   id="g240">
         <path
   d="m 4898,15746 52,384"
   id="path238"
   inkscape:connector-curvature="0"
   style="fill:none;stroke:#c0c0c0;stroke-width:71;stroke-linecap:round;stroke-linejoin:miter" />
        </g>
        <g
   clip-path="url(#clip_path_1)"
   id="g262">
         <path
   d="m 16088,15675 c 0,205 -46,408 -134,586 -88,179 -214,327 -367,430 -152,103 -324,157 -500,157 -176,0 -348,-54 -501,-157 -152,-103 -278,-251 -366,-430 -88,-178 -134,-381 -134,-586 0,-206 46,-409 134,-587 88,-179 214,-327 366,-430 153,-103 325,-157 501,-157 176,0 348,54 500,157 153,103 279,251 367,430 88,178 134,381 134,586 z"
   id="path242"
   inkscape:connector-curvature="0"
   style="fill:#000000;stroke:none" />
         <path
   d="m 9104,15849 c 0,126 -43,250 -125,359 -82,108 -200,199 -342,262 -142,63 -303,96 -468,96 -164,0 -325,-33 -467,-96 -142,-63 -260,-154 -342,-262 -82,-109 -125,-233 -125,-359 0,-126 43,-250 125,-358 82,-109 200,-200 342,-263 142,-63 303,-96 467,-96 165,0 326,33 468,96 142,63 260,154 342,263 82,108 125,232 125,358 z"
   id="path244"
   inkscape:connector-curvature="0"
   style="fill:#000000;stroke:none" />
         <path
   d="m 5771,16160 1980,36 v -397 l -2051,101 z"
   id="path246"
   inkscape:connector-curvature="0"
   style="fill:#000000;stroke:none" />
         <path
   d="m 12573,16439 3083,-203 207,-371 -3427,198 z"
   id="path248"
   inkscape:connector-curvature="0"
   style="fill:#000000;stroke:none" />
         <path
   d="m 6618,13852 264,-181 283,-177 282,-176 225,-146 269,-168 146,-83 101,-53 102,-36 70,-17 71,-18 176,-35 591,-53 362,-22 410,-18 h 247 110 l 71,9 57,22 53,40 31,39 31,84 27,84 26,110 97,587 18,71 13,44 9,53 -5,36 -13,35 -40,40 -83,8 -843,14 -1186,35 -1880,22 336,-128 2360,-62 35,-128 26,-97 44,-115 40,-92 357,57 h 234 l 384,-397 -110,-9 -344,9 -44,92 -53,120 -36,92 -39,93 -349,-57 49,-120 70,-132 49,-106 -1112,35 -300,18 -101,18 -150,75 -207,132 -221,155 -203,141 -221,146 -158,128 -353,132 -252,9 z"
   id="path250"
   inkscape:connector-curvature="0"
   style="fill:#000000;stroke:none" />
         <path
   d="m 11858,12585 -57,4 -58,23 -39,30 -22,40 -5,62 13,57 31,102 31,101 75,-26 110,-4 h 133 220 l 49,39 40,66 35,67 26,61 36,80 30,88 23,66 4,58 22,145 322,14 h 159 l -44,-199 -27,-97 -35,-110 -35,-98 -67,-150 102,18 110,35 102,45 106,66 114,84 97,79 84,102 163,229 860,5 852,-9 -777,-481 -414,-252 -252,-141 -203,-89 -101,-30 -146,-18 -498,-27 -763,-48 h -335 z"
   id="path252"
   inkscape:connector-curvature="0"
   style="fill:#000000;stroke:none" />
         <path
   d="m 3318,15039 186,-432 48,-75 84,-71 97,-53 366,-115 565,-128 617,-128 569,-114 547,-102 115,159 176,31 h 221 l 737,-18 1124,-13 1478,-40 h 388 l 75,-9 40,-39 13,-44 v -45 l -4,-39 -13,-36 -9,-57 -111,-627 -53,-190 -35,-88 -62,-62 -61,-26 -89,-9 -198,-4 -512,17 -432,27 -520,48 -142,22 -123,22 -110,31 -111,40 -123,62 -490,313 -1067,676 -62,-84 635,-411 402,-251 586,-358 128,-62 106,-39 101,-31 80,-18 163,-27 247,-35 790,-84 741,-39 h 705 649 l 397,4 609,40 388,26 163,18 146,31 123,26 97,36 -128,-18 -123,-5 -164,-13 -269,-17 -361,-23 -561,-22 -163,5 -110,17 -57,18 -40,22 -27,36 -13,35 v 53 l 13,57 217,596 66,102 26,35 36,40 44,31 57,22 57,13 89,4 141,9 h 300 l 445,9 357,4 450,-4 499,4 538,-4 h 282 l 133,-4 264,17 331,27 278,22 256,31 467,70 133,31 48,18 66,48 58,67 39,66 36,79 26,102 22,110 h -44 l -4,287 -9,163 -13,49 83,71 v 79 l -35,44 -40,31 -4,27 168,35 97,35 97,40 84,48 22,168 -142,411 -39,75 -49,62 -57,35 -88,22 -437,26 -309,9 -414,44 -358,49 -242,53 -349,26 -366,27 -437,22 -732,9 -1050,53 -154,-667 -119,-229 -137,-230 -141,-146 -172,-114 -256,-93 -291,-44 -273,13 -225,57 -190,80 -97,79 -75,93 -102,190 -88,225 -48,234 v 260 l 48,362 -4631,-278 -80,-172 -61,-172 -36,-137 -35,-150 -22,-154 -53,-142 -53,-123 -48,-89 -84,-83 -71,-89 -75,-57 -115,-44 -163,-22 h -167 l -164,22 -105,44 -97,84 -75,84 -75,114 -53,137 -22,102 -9,190 -13,128 13,167 -9,203 -626,-17 -49,-31 -35,-44 -31,-128 -66,-49 -75,-53 -88,-106 -9,-203 -62,-35 22,-164 z"
   id="path254"
   inkscape:connector-curvature="0"
   style="fill:#0000ff;stroke:none" />
         <path
   d="m 3318,15039 186,-432 48,-75 84,-71 97,-53 366,-115 565,-128 617,-128 569,-114 547,-102 115,159 176,31 h 221 l 737,-18 1124,-13 1478,-40 h 388 l 75,-9 40,-39 13,-44 v -45 l -4,-39 -13,-36 -9,-57 -111,-627 -53,-190 -35,-88 -62,-62 -61,-26 -89,-9 -198,-4 -512,17 -432,27 -520,48 -142,22 -123,22 -110,31 -111,40 -123,62 -490,313 -1067,676 -62,-84 635,-411 402,-251 586,-358 128,-62 106,-39 101,-31 80,-18 163,-27 247,-35 790,-84 741,-39 h 705 649 l 397,4 609,40 388,26 163,18 146,31 123,26 97,36 -128,-18 -123,-5 -164,-13 -269,-17 -361,-23 -561,-22 -163,5 -110,17 -57,18 -40,22 -27,36 -13,35 v 53 l 13,57 217,596 66,102 26,35 36,40 44,31 57,22 57,13 89,4 141,9 h 300 l 445,9 357,4 450,-4 499,4 538,-4 h 282 l 133,-4 264,17 331,27 278,22 256,31 467,70 133,31 48,18 66,48 58,67 39,66 36,79 26,102 22,110 h -44 l -4,287 -9,163 -13,49 83,71 v 79 l -35,44 -40,31 -4,27 168,35 97,35 97,40 84,48 22,168 -142,411 -39,75 -49,62 -57,35 -88,22 -437,26 -309,9 -414,44 -358,49 -242,53 -349,26 -366,27 -437,22 -732,9 -1050,53 -154,-667 -119,-229 -137,-230 -141,-146 -172,-114 -256,-93 -291,-44 -273,13 -225,57 -190,80 -97,79 -75,93 -102,190 -88,225 -48,234 v 260 l 48,362 -4631,-278 -80,-172 -61,-172 -36,-137 -35,-150 -22,-154 -53,-142 -53,-123 -48,-89 -84,-83 -71,-89 -75,-57 -115,-44 -163,-22 h -167 l -164,22 -105,44 -97,84 -75,84 -75,114 -53,137 -22,102 -9,190 -13,128 13,167 -9,203 -626,-17 -49,-31 -35,-44 -31,-128 -66,-49 -75,-53 -88,-106 -9,-203 -62,-35 22,-164 z"
   id="path256"
   inkscape:connector-curvature="0"
   style="fill:none;stroke:#000000;stroke-width:35;stroke-linecap:round;stroke-linejoin:round" />
         <path
   d="m 3146,15154 -17,80 -9,79 71,40 974,4 18,-93 22,-101 -397,9 h -507 z"
   id="path258"
   inkscape:connector-curvature="0"
   style="fill:#000000;stroke:none" />
         <path
   d="m 3526,14580 313,-57 322,-53 318,-31 882,-66 1314,-53 3833,-71 h 1372 l 2029,35 305,71"
   id="path260"
   inkscape:connector-curvature="0"
   style="fill:none;stroke:#000000;stroke-width:35;stroke-linecap:round;stroke-linejoin:round" />
        </g>
        <defs
   id="defs267">
         <clipPath
   id="clip_path_12"
   clipPathUnits="userSpaceOnUse">
          <path
   d="m 3204,14708 h 1005 v 1447 H 3204 Z"
   id="path264"
   inkscape:connector-curvature="0" />
         </clipPath>
        </defs>
        <g
   clip-path="url(#clip_path_12)"
   id="g271">
         <path
   d="M 2233,15415 H 5145"
   id="path269"
   inkscape:connector-curvature="0"
   style="fill:none;stroke:#000000;stroke-width:35;stroke-linecap:round;stroke-linejoin:miter" />
        </g>
        <g
   clip-path="url(#clip_path_1)"
   id="g279">
         <path
   d="m 13393,12603 -379,-31 -437,-27 -459,-22 -189,-9 -115,14 -88,22 -62,35 -40,53 -17,71 v 70 l 225,627 30,62 40,71 40,57 57,53 75,40 84,30 124,9 1186,-9 622,-8 587,-5 966,-22"
   id="path273"
   inkscape:connector-curvature="0"
   style="fill:none;stroke:#000000;stroke-width:35;stroke-linecap:round;stroke-linejoin:round" />
         <path
   d="m 6437,13834 -146,137 -79,84 -62,75 -53,75 -53,79 -26,71 -49,247 -26,248 -22,207 v 119 l 4,208 22,167 31,159 27,128 39,111 58,114 600,36 3012,154 -79,-485 -49,-508 -26,-962 13,-89 27,-97 31,-97 61,-44"
   id="path275"
   inkscape:connector-curvature="0"
   style="fill:none;stroke:#000000;stroke-width:35;stroke-linecap:round;stroke-linejoin:round" />
         <path
   d="m 8281,12793 -225,110 -212,119 -212,141 -207,128 -207,133 -212,132 -225,137 -198,146 -142,119 -136,137 719,13 2589,-31 1010,-22 88,-4 71,-23 57,-52 27,-71 v -62 l -5,-57 -17,-62 -177,-817 -22,-70 -22,-53 -35,-62 -36,-35 -44,-36 -48,-13 -75,-18 h -115 -212"
   id="path277"
   inkscape:connector-curvature="0"
   style="fill:none;stroke:#000000;stroke-width:35;stroke-linecap:round;stroke-linejoin:round" />
        </g>
        <defs
   id="defs284">
         <clipPath
   id="clip_path_13"
   clipPathUnits="userSpaceOnUse">
          <path
   d="m 5625,14739 h 4882 v 1540 H 5625 Z"
   id="path281"
   inkscape:connector-curvature="0" />
         </clipPath>
        </defs>
        <g
   clip-path="url(#clip_path_13)"
   id="g288">
         <path
   d="m 778,15353 14543,278"
   id="path286"
   inkscape:connector-curvature="0"
   style="fill:none;stroke:#000000;stroke-width:35;stroke-linecap:round;stroke-linejoin:miter" />
        </g>
        <g
   clip-path="url(#clip_path_1)"
   id="g310">
         <path
   d="m 12317,13728 979,36 401,22 287,17 247,18 256,22 106,22 84,53 57,58 49,57 39,79 31,58 22,92 18,128"
   id="path290"
   inkscape:connector-curvature="0"
   style="fill:none;stroke:#000000;stroke-width:35;stroke-linecap:round;stroke-linejoin:round" />
         <path
   d="m 13843,15551 4,177 14,110 13,119 18,102 48,88 57,75 97,66"
   id="path292"
   inkscape:connector-curvature="0"
   style="fill:none;stroke:#000000;stroke-width:35;stroke-linecap:round;stroke-linejoin:round" />
         <path
   d="m 16040,15547 -5,79 -4,115 -27,102 -26,114 -71,93 -57,75 -57,53 -75,44"
   id="path294"
   inkscape:connector-curvature="0"
   style="fill:none;stroke:#000000;stroke-width:35;stroke-linecap:round;stroke-linejoin:round" />
         <path
   d="m 14584,13861 1112,13 h 1142 110 111 l 97,4"
   id="path296"
   inkscape:connector-curvature="0"
   style="fill:none;stroke:#000000;stroke-width:35;stroke-linecap:round;stroke-linejoin:round" />
         <path
   d="m 12564,15604 706,14 255,8 h 270 l 299,9 265,9 234,9 h 207 l 1253,-75"
   id="path298"
   inkscape:connector-curvature="0"
   style="fill:none;stroke:#000000;stroke-width:35;stroke-linecap:round;stroke-linejoin:round" />
         <path
   d="m 13808,15207 h 1270 l 2303,-88"
   id="path300"
   inkscape:connector-curvature="0"
   style="fill:none;stroke:#000000;stroke-width:35;stroke-linecap:round;stroke-linejoin:round" />
         <path
   d="m 5546,15181 2475,35 2558,48 -53,111 -40,97 -2258,-35 -2607,-53 z"
   id="path302"
   inkscape:connector-curvature="0"
   style="fill:#000000;stroke:none" />
         <path
   d="m 12396,15269 1315,48 705,22 h 1377 l 1698,-88 40,-4 35,-9 35,-22 -26,-35 -80,-45 49,5 198,75 75,40 14,61 -49,67 -53,35 -66,22 -88,13 -2744,155 -2263,-66 z"
   id="path304"
   inkscape:connector-curvature="0"
   style="fill:#000000;stroke:none" />
         <path
   d="m 13874,15106 172,-446 71,-305 h 3290 l -13,397 -5,58 v 57 l 71,53 v 106 l -1522,71 -1063,35 z"
   id="path306"
   inkscape:connector-curvature="0"
   style="fill:#800000;stroke:none" />
         <path
   d="m 13874,15106 172,-446 71,-305 h 3290 l -13,397 -5,58 v 57 l 71,53 v 106 l -1522,71 -1063,35 z"
   id="path308"
   inkscape:connector-curvature="0"
   style="fill:none;stroke:#000000;stroke-width:35;stroke-linecap:round;stroke-linejoin:round" />
        </g>
        <defs
   id="defs315">
         <clipPath
   id="clip_path_14"
   clipPathUnits="userSpaceOnUse">
          <path
   d="m 14103,13702 h 3351 v 1447 h -3351 z"
   id="path312"
   inkscape:connector-curvature="0" />
         </clipPath>
        </defs>
        <g
   clip-path="url(#clip_path_14)"
   id="g319">
         <path
   d="m 10786,14408 h 9951"
   id="path317"
   inkscape:connector-curvature="0"
   style="fill:none;stroke:#000000;stroke-width:35;stroke-linecap:round;stroke-linejoin:miter" />
        </g>
        <g
   clip-path="url(#clip_path_1)"
   id="g321" />
        <defs
   id="defs326">
         <clipPath
   id="clip_path_15"
   clipPathUnits="userSpaceOnUse">
          <path
   d="m 14094,13746 h 3334 v 1447 h -3334 z"
   id="path323"
   inkscape:connector-curvature="0" />
         </clipPath>
        </defs>
        <g
   clip-path="url(#clip_path_15)"
   id="g330">
         <path
   d="m 10795,14452 h 9898"
   id="path328"
   inkscape:connector-curvature="0"
   style="fill:none;stroke:#000000;stroke-width:35;stroke-linecap:round;stroke-linejoin:miter" />
        </g>
        <g
   clip-path="url(#clip_path_1)"
   id="g332" />
        <defs
   id="defs337">
         <clipPath
   id="clip_path_16"
   clipPathUnits="userSpaceOnUse">
          <path
   d="m 14090,13812 h 3347 v 1447 h -3347 z"
   id="path334"
   inkscape:connector-curvature="0" />
         </clipPath>
        </defs>
        <g
   clip-path="url(#clip_path_16)"
   id="g341">
         <path
   d="m 10777,14518 h 9938"
   id="path339"
   inkscape:connector-curvature="0"
   style="fill:none;stroke:#000000;stroke-width:35;stroke-linecap:round;stroke-linejoin:miter" />
        </g>
        <g
   clip-path="url(#clip_path_1)"
   id="g343" />
        <defs
   id="defs348">
         <clipPath
   id="clip_path_17"
   clipPathUnits="userSpaceOnUse">
          <path
   d="m 14077,13874 h 3347 v 1434 h -3347 z"
   id="path345"
   inkscape:connector-curvature="0" />
         </clipPath>
        </defs>
        <g
   clip-path="url(#clip_path_17)"
   id="g352">
         <path
   d="m 10764,14593 9938,-39"
   id="path350"
   inkscape:connector-curvature="0"
   style="fill:none;stroke:#000000;stroke-width:35;stroke-linecap:round;stroke-linejoin:miter" />
        </g>
        <g
   clip-path="url(#clip_path_1)"
   id="g354" />
        <defs
   id="defs359">
         <clipPath
   id="clip_path_18"
   clipPathUnits="userSpaceOnUse">
          <path
   d="m 14059,13936 h 3378 v 1447 h -3378 z"
   id="path356"
   inkscape:connector-curvature="0" />
         </clipPath>
        </defs>
        <g
   clip-path="url(#clip_path_18)"
   id="g363">
         <path
   d="M 10716,14642 H 20746"
   id="path361"
   inkscape:connector-curvature="0"
   style="fill:none;stroke:#000000;stroke-width:35;stroke-linecap:round;stroke-linejoin:miter" />
        </g>
        <g
   clip-path="url(#clip_path_1)"
   id="g395">
         <path
   d="m 14033,14695 617,26 h 212 l 2532,-26"
   id="path365"
   inkscape:connector-curvature="0"
   style="fill:none;stroke:#000000;stroke-width:35;stroke-linecap:round;stroke-linejoin:round" />
         <path
   d="m 14002,14774 569,36 h 317 l 2515,-53"
   id="path367"
   inkscape:connector-curvature="0"
   style="fill:none;stroke:#000000;stroke-width:35;stroke-linecap:round;stroke-linejoin:round" />
         <path
   d="m 17072,15476 9,102 -22,145 -40,115 -35,84 -71,84 -93,57 v -569 z"
   id="path369"
   inkscape:connector-curvature="0"
   style="fill:#3f3f3f;stroke:none" />
         <path
   d="m 15541,15653 -4,101 -18,80 -40,79 -48,89 393,-36 48,-44 27,-71 17,-88 v -53 -75 z"
   id="path371"
   inkscape:connector-curvature="0"
   style="fill:#ff9f1f;stroke:none" />
         <path
   d="m 17164,15547 v 57 l 9,67 -31,83 -39,75 278,-22 39,-53 22,-57 9,-84 v -84 z"
   id="path373"
   inkscape:connector-curvature="0"
   style="fill:#ff9f1f;stroke:none" />
         <path
   d="m 16401,14139 c 0,20 -6,41 -17,59 -11,18 -27,33 -47,43 -19,11 -41,16 -64,16 -22,0 -44,-5 -63,-16 -20,-10 -36,-25 -47,-43 -11,-18 -17,-39 -17,-59 0,-21 6,-42 17,-60 11,-18 27,-33 47,-43 19,-11 41,-16 63,-16 23,0 45,5 64,16 20,10 36,25 47,43 11,18 17,39 17,60 z"
   id="path375"
   inkscape:connector-curvature="0"
   style="fill:#9f9f9f;stroke:none" />
         <path
   d="m 9930,12669 -88,154 -88,159 -79,155 -89,168 -70,158 -35,80 -36,101 -48,173 -31,145 216,-4 172,-9 35,-172 58,-194 57,-142 75,-185 101,-221 190,-366 z"
   id="path377"
   inkscape:connector-curvature="0"
   style="fill:#5f5f5f;stroke:none" />
         <path
   d="m 9930,12669 -88,154 -88,159 -79,155 -89,168 -70,158 -35,80 -36,101 -48,173 -31,145 216,-4 172,-9 35,-172 58,-194 57,-142 75,-185 101,-221 190,-366 z"
   id="path379"
   inkscape:connector-curvature="0"
   style="fill:none;stroke:#000000;stroke-width:35;stroke-linecap:round;stroke-linejoin:round" />
         <path
   d="m 9935,12744 -106,207 -66,142 -80,167 -52,106 -45,115 -30,97 -27,84 -9,93 -4,101 4,89 62,-5 -26,-110 v -75 l 8,-115 31,-110 36,-124 150,-331 132,-260 z"
   id="path381"
   inkscape:connector-curvature="0"
   style="fill:#c0c0c0;stroke:none" />
         <path
   d="m 9101,14408 -13,53 4,49 h 327 l -5,-67 5,-44 z"
   id="path383"
   inkscape:connector-curvature="0"
   style="fill:#808080;stroke:none" />
         <path
   d="m 9092,14408 v 22 l -4,27 h 331 l -5,-27 5,-22 z"
   id="path385"
   inkscape:connector-curvature="0"
   style="fill:#9f9f9f;stroke:none" />
         <path
   d="m 6371,13874 154,-155 44,-30 66,-22 177,-23 57,9 27,415 -53,58 -80,35 -150,9 -110,-36 -163,-154 -18,-44 z"
   id="path387"
   inkscape:connector-curvature="0"
   style="fill:#c0c0c0;stroke:none" />
         <path
   d="m 6371,13874 154,-155 44,-30 66,-22 177,-23 57,9 27,415 -53,58 -80,35 -150,9 -110,-36 -163,-154 -18,-44 z"
   id="path389"
   inkscape:connector-curvature="0"
   style="fill:none;stroke:#000000;stroke-width:35;stroke-linecap:round;stroke-linejoin:round" />
         <path
   d="m 6322,13936 124,35 114,40 h 89 l 119,17 84,-30 30,-58 14,133 -44,53 -89,35 -145,9 -119,-36 -146,-128 -22,-30 z"
   id="path391"
   inkscape:connector-curvature="0"
   style="fill:#9f9f9f;stroke:none" />
         <path
   d="m 6322,13936 124,35 114,40 h 89 l 119,17 84,-30 30,-58 14,133 -44,53 -89,35 -145,9 -119,-36 -146,-128 -22,-30 z"
   id="path393"
   inkscape:connector-curvature="0"
   style="fill:none;stroke:#000000;stroke-width:35;stroke-linecap:round;stroke-linejoin:round" />
        </g>
       </g>
      </g>
     </g>
    </g>
   </g>
  </g>
 </g>
</svg>