<?xml version="1.0" encoding="UTF-8" standalone="no"?>
<svg
   xmlns:ooo="http://xml.openoffice.org/svg/export"
   xmlns:dc="http://purl.org/dc/elements/1.1/"
   xmlns:cc="http://creativecommons.org/ns#"
   xmlns:rdf="http://www.w3.org/1999/02/22-rdf-syntax-ns#"
   xmlns:svg="http://www.w3.org/2000/svg"
   xmlns="http://www.w3.org/2000/svg"
   xmlns:sodipodi="http://sodipodi.sourceforge.net/DTD/sodipodi-0.dtd"
   xmlns:inkscape="http://www.inkscape.org/namespaces/inkscape"
   version="1.2"
   width="90mm"
   height="90mm"
   viewBox="0 0 9000 9000"
   preserveAspectRatio="xMidYMid"
   xml:space="preserve"
   id="svg95"
   sodipodi:docname="ship.svg"
   style="fill-rule:evenodd;stroke-width:28.22200012;stroke-linejoin:round"
   inkscape:version="0.92.5 (2060ec1f9f, 2020-04-08)"><metadata
   id="metadata99"><rdf:RDF><cc:Work
       rdf:about=""><dc:format>image/svg+xml</dc:format><dc:type
         rdf:resource="http://purl.org/dc/dcmitype/StillImage" /></cc:Work></rdf:RDF></metadata><sodipodi:namedview
   pagecolor="#ffffff"
   bordercolor="#666666"
   borderopacity="1"
   objecttolerance="10"
   gridtolerance="10"
   guidetolerance="10"
   inkscape:pageopacity="0"
   inkscape:pageshadow="2"
   inkscape:window-width="664"
   inkscape:window-height="487"
   id="namedview97"
   showgrid="false"
   inkscape:zoom="0.2102413"
   inkscape:cx="170.07874"
   inkscape:cy="170.07874"
   inkscape:window-x="0"
   inkscape:window-y="0"
   inkscape:window-maximized="0"
   inkscape:current-layer="svg95" />
 <defs
   class="ClipPathGroup"
   id="defs8">
  <clipPath
   id="presentation_clip_path"
   clipPathUnits="userSpaceOnUse">
   <rect
   x="0"
   y="0"
   width="21000"
   height="29700"
   id="rect2" />
  </clipPath>
  <clipPath
   id="presentation_clip_path_shrink"
   clipPathUnits="userSpaceOnUse">
   <rect
   x="21"
   y="29"
   width="20958"
   height="29641"
   id="rect5" />
  </clipPath>
 </defs>
 <defs
   class="TextShapeIndex"
   id="defs12">
  <g
   ooo:slide="id1"
   ooo:id-list="id3"
   id="g10" />
 </defs>
 <defs
   class="EmbeddedBulletChars"
   id="defs44">
  <g
   id="bullet-char-template-57356"
   transform="matrix(4.8828125e-4,0,0,-4.8828125e-4,0,0)">
   <path
   d="M 580,1141 1163,571 580,0 -4,571 Z"
   id="path14"
   inkscape:connector-curvature="0" />
  </g>
  <g
   id="bullet-char-template-57354"
   transform="matrix(4.8828125e-4,0,0,-4.8828125e-4,0,0)">
   <path
   d="M 8,1128 H 1137 V 0 H 8 Z"
   id="path17"
   inkscape:connector-curvature="0" />
  </g>
  <g
   id="bullet-char-template-10146"
   transform="matrix(4.8828125e-4,0,0,-4.8828125e-4,0,0)">
   <path
   d="M 174,0 602,739 174,1481 1456,739 Z M 1358,739 309,1346 659,739 Z"
   id="path20"
   inkscape:connector-curvature="0" />
  </g>
  <g
   id="bullet-char-template-10132"
   transform="matrix(4.8828125e-4,0,0,-4.8828125e-4,0,0)">
   <path
   d="M 2015,739 1276,0 H 717 l 543,543 H 174 v 393 h 1086 l -543,545 h 557 z"
   id="path23"
   inkscape:connector-curvature="0" />
  </g>
  <g
   id="bullet-char-template-10007"
   transform="matrix(4.8828125e-4,0,0,-4.8828125e-4,0,0)">
   <path
   d="m 0,-2 c -7,16 -16,29 -25,39 l 381,530 c -94,256 -141,385 -141,387 0,25 13,38 40,38 9,0 21,-2 34,-5 21,4 42,12 65,25 l 27,-13 111,-251 280,301 64,-25 24,25 c 21,-10 41,-24 62,-43 C 886,937 835,863 770,784 769,783 710,716 594,584 L 774,223 c 0,-27 -21,-55 -63,-84 l 16,-20 C 717,90 699,76 672,76 641,76 570,178 457,381 L 164,-76 c -22,-34 -53,-51 -92,-51 -42,0 -63,17 -64,51 -7,9 -10,24 -10,44 0,9 1,19 2,30 z"
   id="path26"
   inkscape:connector-curvature="0" />
  </g>
  <g
   id="bullet-char-template-10004"
   transform="matrix(4.8828125e-4,0,0,-4.8828125e-4,0,0)">
   <path
   d="M 285,-33 C 182,-33 111,30 74,156 52,228 41,333 41,471 c 0,78 14,145 41,201 34,71 87,106 158,106 53,0 88,-31 106,-94 l 23,-176 c 8,-64 28,-97 59,-98 l 735,706 c 11,11 33,17 66,17 42,0 63,-15 63,-46 V 965 c 0,-36 -10,-64 -30,-84 L 442,47 C 390,-6 338,-33 285,-33 Z"
   id="path29"
   inkscape:connector-curvature="0" />
  </g>
  <g
   id="bullet-char-template-9679"
   transform="matrix(4.8828125e-4,0,0,-4.8828125e-4,0,0)">
   <path
   d="M 813,0 C 632,0 489,54 383,161 276,268 223,411 223,592 c 0,181 53,324 160,431 106,107 249,161 430,161 179,0 323,-54 432,-161 108,-107 162,-251 162,-431 0,-180 -54,-324 -162,-431 C 1136,54 992,0 813,0 Z"
   id="path32"
   inkscape:connector-curvature="0" />
  </g>
  <g
   id="bullet-char-template-8226"
   transform="matrix(4.8828125e-4,0,0,-4.8828125e-4,0,0)">
   <path
   d="m 346,457 c -73,0 -137,26 -191,78 -54,51 -81,114 -81,188 0,73 27,136 81,188 54,52 118,78 191,78 73,0 134,-26 185,-79 51,-51 77,-114 77,-187 0,-75 -25,-137 -76,-188 -50,-52 -112,-78 -186,-78 z"
   id="path35"
   inkscape:connector-curvature="0" />
  </g>
  <g
   id="bullet-char-template-8211"
   transform="matrix(4.8828125e-4,0,0,-4.8828125e-4,0,0)">
   <path
   d="M -4,459 H 1135 V 606 H -4 Z"
   id="path38"
   inkscape:connector-curvature="0" />
  </g>
  <g
   id="bullet-char-template-61548"
   transform="matrix(4.8828125e-4,0,0,-4.8828125e-4,0,0)">
   <path
   d="m 173,740 c 0,163 58,303 173,419 116,115 255,173 419,173 163,0 302,-58 418,-173 116,-116 174,-256 174,-419 0,-163 -58,-303 -174,-418 C 1067,206 928,148 765,148 601,148 462,206 346,322 231,437 173,577 173,740 Z"
   id="path41"
   inkscape:connector-curvature="0" />
  </g>
 </defs>
 <g
   id="g49"
   transform="translate(-6000,-10350)">
  <g
   id="id2"
   class="Master_Slide">
   <g
   id="bg-id2"
   class="Background" />
   <g
   id="bo-id2"
   class="BackgroundObjects" />
  </g>
 </g>
 <g
   class="SlideGroup"
   id="g93"
   transform="translate(-6000,-10350)">
  <g
   id="g91">
   <g
   id="container-id1">
    <g
   id="id1"
   class="Slide"
   clip-path="url(#presentation_clip_path)">
     <g
   class="Page"
   id="g87">
      <g
   class="Graphic"
   id="g85">
       <g
   id="id3">
        <rect
   class="BoundingBox"
   x="6000"
   y="10350"
   width="9000"
   height="9000"
   id="rect51"
   style="fill:none;stroke:none" />
        <defs
   id="defs56">
         <clipPath
   id="clip_path_1"
   clipPathUnits="userSpaceOnUse">
          <path
   d="m 6013,10359 h 8972 v 8976 H 6013 Z"
   id="path53"
   inkscape:connector-curvature="0" />
         </clipPath>
        </defs>
        <g
   clip-path="url(#clip_path_1)"
   id="g82">
         <path
   d="m 10498,19309 h 3359 c 611,0 1107,-496 1107,-1107 v -6719 c 0,-611 -496,-1107 -1107,-1107 H 7138 c -611,0 -1107,496 -1107,1107 v 6719 c 0,611 496,1107 1107,1107 z"
   id="path58"
   inkscape:connector-curvature="0"
   style="fill:#ffffff;stroke:none" />
         <path
   d="m 10498,19309 h 3359 c 611,0 1107,-496 1107,-1107 v -6719 c 0,-611 -496,-1107 -1107,-1107 H 7138 c -611,0 -1107,496 -1107,1107 v 6719 c 0,611 496,1107 1107,1107 z"
   id="path60"
   inkscape:connector-curvature="0"
   style="fill:none;stroke:#000000" />
         <path
   d="m 10496,12587 -2224,953 -57,26 -62,27 -44,22 -35,31 -27,39 -9,49 v 48 l 5,49 560,1266 v 1778 h 3772 v -1778 l 565,-1257 13,-49 4,-44 -4,-40 -18,-26 -26,-31 -27,-26 -35,-23 -35,-22 -44,-17 -58,-22 z"
   id="path62"
   inkscape:connector-curvature="0"
   style="fill:#000000;stroke:none" />
         <path
   d="m 9940,11113 h 1111 v 666 h 777 v 556 h 666 v 1116 l -445,-194 v -476 h -667 v -560 H 9609 v 560 h -666 v 476 l -446,194 v -1116 h 666 v -556 h 777 z"
   id="path64"
   inkscape:connector-curvature="0"
   style="fill:#000000;stroke:none" />
         <path
   d="m 6900,17696 101,-14 80,-8 79,-23 97,-35 84,-40 71,-35 57,-31 75,-31 53,-22 75,-22 62,-13 62,-4 66,4 62,18 66,22 70,26 75,40 71,40 88,35 75,35 75,18 75,18 97,17 80,5 v 635 l -75,-9 -89,-13 -75,-9 -83,-26 -62,-18 -66,-27 -80,-48 -57,-31 -53,-31 -71,-26 -57,-18 -57,-13 -62,-9 -58,4 -61,9 -71,18 -44,17 -62,31 -53,27 -57,26 -62,36 -75,35 -75,22 -57,18 -62,13 -71,9 -61,4 h -40 z"
   id="path66"
   inkscape:connector-curvature="0"
   style="fill:#000000;stroke:none" />
         <path
   d="m 8696,17696 105,-14 80,-8 84,-23 97,-35 79,-40 71,-35 57,-31 75,-31 57,-22 75,-22 58,-13 62,-4 66,4 66,18 66,22 71,26 75,40 70,40 80,35 79,35 75,18 71,18 97,17 84,5 v 635 l -84,-9 -80,-13 -79,-9 -79,-26 -67,-18 -61,-27 -80,-48 -53,-31 -62,-31 -66,-26 -53,-18 -61,-13 -58,-9 -62,4 -61,9 -66,18 -45,17 -66,31 -53,27 -61,26 -58,36 -75,35 -75,22 -53,18 -62,13 -75,9 -61,4 h -44 z"
   id="path68"
   inkscape:connector-curvature="0"
   style="fill:#000000;stroke:none" />
         <path
   d="m 10496,17696 101,-14 84,-8 75,-23 101,-35 80,-40 70,-35 62,-31 71,-31 57,-22 75,-22 57,-13 67,-4 66,4 57,18 71,22 70,26 75,40 71,40 79,35 80,35 75,18 75,18 97,17 79,5 v 635 l -79,-9 -84,-13 -79,-9 -80,-26 -62,-18 -66,-27 -75,-48 -57,-31 -58,-31 -66,-26 -57,-18 -57,-13 -62,-9 -58,4 -66,9 -66,18 -44,17 -66,31 -53,27 -57,26 -62,36 -71,35 -75,22 -57,18 -62,13 -75,9 -57,4 h -44 z"
   id="path70"
   inkscape:connector-curvature="0"
   style="fill:#000000;stroke:none" />
         <path
   d="m 12291,17696 106,-14 79,-8 80,-23 97,-35 79,-40 80,-35 57,-31 71,-31 61,-22 71,-22 62,-13 62,-4 66,4 62,18 70,22 71,26 70,40 71,40 84,35 79,35 71,18 70,18 102,17 79,5 v 635 l -79,-9 -84,-13 -75,-9 -84,-26 -62,-18 -66,-27 -75,-48 -53,-31 -62,-31 -66,-26 -57,-18 -57,-13 -58,-9 -62,4 -61,9 -66,18 -45,17 -70,31 -49,27 -61,26 -62,36 -80,35 -70,22 -53,18 -66,13 -71,9 -66,4 h -40 z"
   id="path72"
   inkscape:connector-curvature="0"
   style="fill:#000000;stroke:none" />
         <path
   d="m 6900,16676 101,-13 80,-13 79,-22 97,-31 84,-40 71,-35 57,-31 75,-31 53,-22 75,-22 62,-9 62,-13 66,9 62,13 66,27 70,31 75,35 71,40 88,35 75,35 75,18 75,17 97,18 80,4 v 645 l -75,-18 -89,-9 -75,-13 -83,-18 -62,-22 -66,-31 -80,-39 -57,-36 -53,-26 -71,-35 -57,-18 -57,-13 -62,-5 h -58 l -61,9 -71,18 -44,22 -62,31 -53,26 -57,31 -62,35 -75,31 -75,27 -57,13 -62,13 -71,9 -61,9 h -40 z"
   id="path74"
   inkscape:connector-curvature="0"
   style="fill:#000000;stroke:none" />
         <path
   d="m 8696,16676 105,-13 80,-13 84,-22 97,-31 79,-40 71,-35 57,-31 75,-31 57,-22 75,-22 58,-9 62,-13 66,9 66,13 66,27 71,31 75,35 70,40 80,35 79,35 75,18 71,17 97,18 84,4 v 645 l -84,-18 -80,-9 -79,-13 -79,-18 -67,-22 -61,-31 -80,-39 -53,-36 -62,-26 -66,-35 -53,-18 -61,-13 -58,-5 h -62 l -61,9 -66,18 -45,22 -66,31 -53,26 -61,31 -58,35 -75,31 -75,27 -53,13 -62,13 -75,9 -61,9 h -44 z"
   id="path76"
   inkscape:connector-curvature="0"
   style="fill:#000000;stroke:none" />
         <path
   d="m 10496,16676 101,-13 84,-13 75,-22 101,-31 80,-40 70,-35 62,-31 71,-31 57,-22 75,-22 57,-9 67,-13 66,9 57,13 71,27 70,31 75,35 71,40 79,35 80,35 75,18 75,17 97,18 79,4 v 645 l -79,-18 -84,-9 -79,-13 -80,-18 -62,-22 -66,-31 -75,-39 -57,-36 -58,-26 -66,-35 -57,-18 -57,-13 -62,-5 h -58 l -66,9 -66,18 -44,22 -66,31 -53,26 -57,31 -62,35 -71,31 -75,27 -57,13 -62,13 -75,9 -57,9 h -44 z"
   id="path78"
   inkscape:connector-curvature="0"
   style="fill:#000000;stroke:none" />
         <path
   d="m 12291,16676 106,-13 79,-13 80,-22 97,-31 79,-40 80,-35 57,-31 71,-31 61,-22 71,-22 62,-9 62,-13 66,9 62,13 70,27 71,31 70,35 71,40 84,35 79,35 71,18 70,17 102,18 79,4 v 645 l -79,-18 -84,-9 -75,-13 -84,-18 -62,-22 -66,-31 -75,-39 -53,-36 -62,-26 -66,-35 -57,-18 -57,-13 -58,-5 h -62 l -61,9 -66,18 -45,22 -70,31 -49,26 -61,31 -62,35 -80,31 -70,27 -53,13 -66,13 -71,9 -66,9 h -40 z"
   id="path80"
   inkscape:connector-curvature="0"
   style="fill:#000000;stroke:none" />
        </g>
       </g>
      </g>
     </g>
    </g>
   </g>
  </g>
 </g>
</svg>