<?xml version="1.0" encoding="UTF-8" standalone="no"?>
<svg
   xmlns:ooo="http://xml.openoffice.org/svg/export"
   xmlns:dc="http://purl.org/dc/elements/1.1/"
   xmlns:cc="http://creativecommons.org/ns#"
   xmlns:rdf="http://www.w3.org/1999/02/22-rdf-syntax-ns#"
   xmlns:svg="http://www.w3.org/2000/svg"
   xmlns="http://www.w3.org/2000/svg"
   xmlns:sodipodi="http://sodipodi.sourceforge.net/DTD/sodipodi-0.dtd"
   xmlns:inkscape="http://www.inkscape.org/namespaces/inkscape"
   version="1.2"
   width="49.57mm"
   height="114.34mm"
   viewBox="0 0 4957 11434"
   preserveAspectRatio="xMidYMid"
   xml:space="preserve"
   id="svg751"
   sodipodi:docname="spcsht.svg"
   style="fill-rule:evenodd;stroke-width:28.22200012;stroke-linejoin:round"
   inkscape:version="0.92.5 (2060ec1f9f, 2020-04-08)"><metadata
   id="metadata755"><rdf:RDF><cc:Work
       rdf:about=""><dc:format>image/svg+xml</dc:format><dc:type
         rdf:resource="http://purl.org/dc/dcmitype/StillImage" /></cc:Work></rdf:RDF></metadata><sodipodi:namedview
   pagecolor="#ffffff"
   bordercolor="#666666"
   borderopacity="1"
   objecttolerance="10"
   gridtolerance="10"
   guidetolerance="10"
   inkscape:pageopacity="0"
   inkscape:pageshadow="2"
   inkscape:window-width="664"
   inkscape:window-height="487"
   id="namedview753"
   showgrid="false"
   inkscape:zoom="0.2102413"
   inkscape:cx="93.694489"
   inkscape:cy="216.07559"
   inkscape:window-x="0"
   inkscape:window-y="0"
   inkscape:window-maximized="0"
   inkscape:current-layer="svg751" />
 <defs
   class="ClipPathGroup"
   id="defs8">
  <clipPath
   id="presentation_clip_path"
   clipPathUnits="userSpaceOnUse">
   <rect
   x="0"
   y="0"
   width="21000"
   height="29700"
   id="rect2" />
  </clipPath>
  <clipPath
   id="presentation_clip_path_shrink"
   clipPathUnits="userSpaceOnUse">
   <rect
   x="21"
   y="29"
   width="20958"
   height="29641"
   id="rect5" />
  </clipPath>
 </defs>
 <defs
   class="TextShapeIndex"
   id="defs12">
  <g
   ooo:slide="id1"
   ooo:id-list="id3"
   id="g10" />
 </defs>
 <defs
   class="EmbeddedBulletChars"
   id="defs44">
  <g
   id="bullet-char-template-57356"
   transform="matrix(4.8828125e-4,0,0,-4.8828125e-4,0,0)">
   <path
   d="M 580,1141 1163,571 580,0 -4,571 Z"
   id="path14"
   inkscape:connector-curvature="0" />
  </g>
  <g
   id="bullet-char-template-57354"
   transform="matrix(4.8828125e-4,0,0,-4.8828125e-4,0,0)">
   <path
   d="M 8,1128 H 1137 V 0 H 8 Z"
   id="path17"
   inkscape:connector-curvature="0" />
  </g>
  <g
   id="bullet-char-template-10146"
   transform="matrix(4.8828125e-4,0,0,-4.8828125e-4,0,0)">
   <path
   d="M 174,0 602,739 174,1481 1456,739 Z M 1358,739 309,1346 659,739 Z"
   id="path20"
   inkscape:connector-curvature="0" />
  </g>
  <g
   id="bullet-char-template-10132"
   transform="matrix(4.8828125e-4,0,0,-4.8828125e-4,0,0)">
   <path
   d="M 2015,739 1276,0 H 717 l 543,543 H 174 v 393 h 1086 l -543,545 h 557 z"
   id="path23"
   inkscape:connector-curvature="0" />
  </g>
  <g
   id="bullet-char-template-10007"
   transform="matrix(4.8828125e-4,0,0,-4.8828125e-4,0,0)">
   <path
   d="m 0,-2 c -7,16 -16,29 -25,39 l 381,530 c -94,256 -141,385 -141,387 0,25 13,38 40,38 9,0 21,-2 34,-5 21,4 42,12 65,25 l 27,-13 111,-251 280,301 64,-25 24,25 c 21,-10 41,-24 62,-43 C 886,937 835,863 770,784 769,783 710,716 594,584 L 774,223 c 0,-27 -21,-55 -63,-84 l 16,-20 C 717,90 699,76 672,76 641,76 570,178 457,381 L 164,-76 c -22,-34 -53,-51 -92,-51 -42,0 -63,17 -64,51 -7,9 -10,24 -10,44 0,9 1,19 2,30 z"
   id="path26"
   inkscape:connector-curvature="0" />
  </g>
  <g
   id="bullet-char-template-10004"
   transform="matrix(4.8828125e-4,0,0,-4.8828125e-4,0,0)">
   <path
   d="M 285,-33 C 182,-33 111,30 74,156 52,228 41,333 41,471 c 0,78 14,145 41,201 34,71 87,106 158,106 53,0 88,-31 106,-94 l 23,-176 c 8,-64 28,-97 59,-98 l 735,706 c 11,11 33,17 66,17 42,0 63,-15 63,-46 V 965 c 0,-36 -10,-64 -30,-84 L 442,47 C 390,-6 338,-33 285,-33 Z"
   id="path29"
   inkscape:connector-curvature="0" />
  </g>
  <g
   id="bullet-char-template-9679"
   transform="matrix(4.8828125e-4,0,0,-4.8828125e-4,0,0)">
   <path
   d="M 813,0 C 632,0 489,54 383,161 276,268 223,411 223,592 c 0,181 53,324 160,431 106,107 249,161 430,161 179,0 323,-54 432,-161 108,-107 162,-251 162,-431 0,-180 -54,-324 -162,-431 C 1136,54 992,0 813,0 Z"
   id="path32"
   inkscape:connector-curvature="0" />
  </g>
  <g
   id="bullet-char-template-8226"
   transform="matrix(4.8828125e-4,0,0,-4.8828125e-4,0,0)">
   <path
   d="m 346,457 c -73,0 -137,26 -191,78 -54,51 -81,114 -81,188 0,73 27,136 81,188 54,52 118,78 191,78 73,0 134,-26 185,-79 51,-51 77,-114 77,-187 0,-75 -25,-137 -76,-188 -50,-52 -112,-78 -186,-78 z"
   id="path35"
   inkscape:connector-curvature="0" />
  </g>
  <g
   id="bullet-char-template-8211"
   transform="matrix(4.8828125e-4,0,0,-4.8828125e-4,0,0)">
   <path
   d="M -4,459 H 1135 V 606 H -4 Z"
   id="path38"
   inkscape:connector-curvature="0" />
  </g>
  <g
   id="bullet-char-template-61548"
   transform="matrix(4.8828125e-4,0,0,-4.8828125e-4,0,0)">
   <path
   d="m 173,740 c 0,163 58,303 173,419 116,115 255,173 419,173 163,0 302,-58 418,-173 116,-116 174,-256 174,-419 0,-163 -58,-303 -174,-418 C 1067,206 928,148 765,148 601,148 462,206 346,322 231,437 173,577 173,740 Z"
   id="path41"
   inkscape:connector-curvature="0" />
  </g>
 </defs>
 <g
   id="g49"
   transform="translate(-8021,-9133)">
  <g
   id="id2"
   class="Master_Slide">
   <g
   id="bg-id2"
   class="Background" />
   <g
   id="bo-id2"
   class="BackgroundObjects" />
  </g>
 </g>
 <g
   class="SlideGroup"
   id="g749"
   transform="translate(-8021,-9133)">
  <g
   id="g747">
   <g
   id="container-id1">
    <g
   id="id1"
   class="Slide"
   clip-path="url(#presentation_clip_path)">
     <g
   class="Page"
   id="g743">
      <g
   class="Graphic"
   id="g741">
       <g
   id="id3">
        <rect
   class="BoundingBox"
   x="8021"
   y="9133"
   width="4957"
   height="11434"
   id="rect51"
   style="fill:none;stroke:none" />
        <path
   d="m 8846,12411 261,-909 31,-57 48,-27 40,18 31,39 371,936 z"
   id="path53"
   inkscape:connector-curvature="0"
   style="fill:#dfdfff;stroke:none" />
        <path
   d="m 8846,12411 261,-909 31,-57 48,-27 40,18 31,39 371,936 z"
   id="path55"
   inkscape:connector-curvature="0"
   style="fill:none;stroke:#000000;stroke-width:35;stroke-linecap:round;stroke-linejoin:round" />
        <path
   d="m 8842,12406 252,-900 31,-57 48,-27 -66,984 z"
   id="path57"
   inkscape:connector-curvature="0"
   style="fill:#bfbfdf;stroke:none" />
        <path
   d="m 8842,12415 260,-909 31,-57 49,-27 40,18 31,40 370,935 z"
   id="path59"
   inkscape:connector-curvature="0"
   style="fill:none;stroke:#000000;stroke-width:35;stroke-linecap:round;stroke-linejoin:round" />
        <path
   d="m 9301,12040 -13,-75 62,-13 31,88 z"
   id="path61"
   inkscape:connector-curvature="0"
   style="fill:#ffffff;stroke:none" />
        <path
   d="m 9301,12040 -13,-75 62,-13 31,88 z"
   id="path63"
   inkscape:connector-curvature="0"
   style="fill:none;stroke:#000000;stroke-width:35;stroke-linecap:round;stroke-linejoin:round" />
        <path
   d="m 8842,18860 v -6445 h 790 v 6445 z"
   id="path65"
   inkscape:connector-curvature="0"
   style="fill:#dfdfff;stroke:none" />
        <path
   d="m 8842,18860 v -6445 h 790 v 6445 z"
   id="path67"
   inkscape:connector-curvature="0"
   style="fill:none;stroke:#000000;stroke-width:35;stroke-linecap:round;stroke-linejoin:round" />
        <path
   d="m 8842,18851 v -6436 h 256 v 6436 z"
   id="path69"
   inkscape:connector-curvature="0"
   style="fill:#bfbfdf;stroke:none" />
        <defs
   id="defs74">
         <clipPath
   id="clip_path_1"
   clipPathUnits="userSpaceOnUse">
          <path
   d="m 8869,17492 h 798 v 1446 h -798 z"
   id="path71"
   inkscape:connector-curvature="0" />
         </clipPath>
        </defs>
        <g
   clip-path="url(#clip_path_1)"
   id="g78">
         <path
   d="M 10396,18198 H 8105"
   id="path76"
   inkscape:connector-curvature="0"
   style="fill:none;stroke:#000000;stroke-width:35;stroke-linecap:round;stroke-linejoin:miter" />
        </g>
        <defs
   id="defs83">
         <clipPath
   id="clip_path_2"
   clipPathUnits="userSpaceOnUse">
          <path
   d="m 8869,16862 h 798 v 1446 h -798 z"
   id="path80"
   inkscape:connector-curvature="0" />
         </clipPath>
        </defs>
        <g
   clip-path="url(#clip_path_2)"
   id="g87">
         <path
   d="M 10396,17567 H 8105"
   id="path85"
   inkscape:connector-curvature="0"
   style="fill:none;stroke:#000000;stroke-width:35;stroke-linecap:round;stroke-linejoin:miter" />
        </g>
        <defs
   id="defs92">
         <clipPath
   id="clip_path_3"
   clipPathUnits="userSpaceOnUse">
          <path
   d="m 8869,16226 h 798 v 1446 h -798 z"
   id="path89"
   inkscape:connector-curvature="0" />
         </clipPath>
        </defs>
        <g
   clip-path="url(#clip_path_3)"
   id="g96">
         <path
   d="M 10396,16932 H 8105"
   id="path94"
   inkscape:connector-curvature="0"
   style="fill:none;stroke:#000000;stroke-width:35;stroke-linecap:round;stroke-linejoin:miter" />
        </g>
        <defs
   id="defs101">
         <clipPath
   id="clip_path_4"
   clipPathUnits="userSpaceOnUse">
          <path
   d="m 8869,15591 h 798 v 1446 h -798 z"
   id="path98"
   inkscape:connector-curvature="0" />
         </clipPath>
        </defs>
        <g
   clip-path="url(#clip_path_4)"
   id="g105">
         <path
   d="M 10396,16297 H 8105"
   id="path103"
   inkscape:connector-curvature="0"
   style="fill:none;stroke:#000000;stroke-width:35;stroke-linecap:round;stroke-linejoin:miter" />
        </g>
        <defs
   id="defs110">
         <clipPath
   id="clip_path_5"
   clipPathUnits="userSpaceOnUse">
          <path
   d="m 8869,14960 h 798 v 1446 h -798 z"
   id="path107"
   inkscape:connector-curvature="0" />
         </clipPath>
        </defs>
        <g
   clip-path="url(#clip_path_5)"
   id="g114">
         <path
   d="M 10396,15666 H 8105"
   id="path112"
   inkscape:connector-curvature="0"
   style="fill:none;stroke:#000000;stroke-width:35;stroke-linecap:round;stroke-linejoin:miter" />
        </g>
        <defs
   id="defs119">
         <clipPath
   id="clip_path_6"
   clipPathUnits="userSpaceOnUse">
          <path
   d="m 8869,14325 h 798 v 1446 h -798 z"
   id="path116"
   inkscape:connector-curvature="0" />
         </clipPath>
        </defs>
        <g
   clip-path="url(#clip_path_6)"
   id="g123">
         <path
   d="M 10396,15031 H 8105"
   id="path121"
   inkscape:connector-curvature="0"
   style="fill:none;stroke:#000000;stroke-width:35;stroke-linecap:round;stroke-linejoin:miter" />
        </g>
        <defs
   id="defs128">
         <clipPath
   id="clip_path_7"
   clipPathUnits="userSpaceOnUse">
          <path
   d="m 8869,13690 h 798 v 1446 h -798 z"
   id="path125"
   inkscape:connector-curvature="0" />
         </clipPath>
        </defs>
        <g
   clip-path="url(#clip_path_7)"
   id="g132">
         <path
   d="M 10396,14396 H 8105"
   id="path130"
   inkscape:connector-curvature="0"
   style="fill:none;stroke:#000000;stroke-width:35;stroke-linecap:round;stroke-linejoin:miter" />
        </g>
        <defs
   id="defs137">
         <clipPath
   id="clip_path_8"
   clipPathUnits="userSpaceOnUse">
          <path
   d="m 8869,13059 h 798 v 1446 h -798 z"
   id="path134"
   inkscape:connector-curvature="0" />
         </clipPath>
        </defs>
        <g
   clip-path="url(#clip_path_8)"
   id="g141">
         <path
   d="M 10396,13765 H 8105"
   id="path139"
   inkscape:connector-curvature="0"
   style="fill:none;stroke:#000000;stroke-width:35;stroke-linecap:round;stroke-linejoin:miter" />
        </g>
        <defs
   id="defs146">
         <clipPath
   id="clip_path_9"
   clipPathUnits="userSpaceOnUse">
          <path
   d="m 8869,12424 h 798 v 1446 h -798 z"
   id="path143"
   inkscape:connector-curvature="0" />
         </clipPath>
        </defs>
        <g
   clip-path="url(#clip_path_9)"
   id="g150">
         <path
   d="M 10396,13130 H 8105"
   id="path148"
   inkscape:connector-curvature="0"
   style="fill:none;stroke:#000000;stroke-width:35;stroke-linecap:round;stroke-linejoin:miter" />
        </g>
        <path
   d="m 8842,18860 v -6445 h 790 v 6445 z"
   id="path152"
   inkscape:connector-curvature="0"
   style="fill:none;stroke:#000000;stroke-width:35;stroke-linecap:round;stroke-linejoin:round" />
        <path
   d="m 12108,12415 -260,-909 -31,-57 -48,-27 -40,18 -35,40 -367,935 z"
   id="path154"
   inkscape:connector-curvature="0"
   style="fill:#dfdfff;stroke:none" />
        <path
   d="m 12108,12415 -260,-909 -31,-57 -48,-27 -40,18 -35,40 -367,935 z"
   id="path156"
   inkscape:connector-curvature="0"
   style="fill:none;stroke:#000000;stroke-width:35;stroke-linecap:round;stroke-linejoin:round" />
        <path
   d="m 12100,12406 -252,-900 -31,-57 -48,-27 66,984 z"
   id="path158"
   inkscape:connector-curvature="0"
   style="fill:#bfbfdf;stroke:none" />
        <path
   d="m 12108,12415 -260,-909 -31,-57 -48,-27 -40,18 -35,40 -367,935 z"
   id="path160"
   inkscape:connector-curvature="0"
   style="fill:none;stroke:#000000;stroke-width:35;stroke-linecap:round;stroke-linejoin:round" />
        <path
   d="m 11654,11996 13,-75 -62,-13 -31,88 z"
   id="path162"
   inkscape:connector-curvature="0"
   style="fill:#ffffff;stroke:none" />
        <path
   d="m 11654,11996 13,-75 -62,-13 -31,88 z"
   id="path164"
   inkscape:connector-curvature="0"
   style="fill:none;stroke:#000000;stroke-width:35;stroke-linecap:round;stroke-linejoin:round" />
        <path
   d="m 12108,18860 v -6445 h -790 v 6445 z"
   id="path166"
   inkscape:connector-curvature="0"
   style="fill:#dfdfff;stroke:none" />
        <path
   d="m 12108,18860 v -6445 h -790 v 6445 z"
   id="path168"
   inkscape:connector-curvature="0"
   style="fill:none;stroke:#000000;stroke-width:35;stroke-linecap:round;stroke-linejoin:round" />
        <path
   d="m 12100,18851 v -6436 h -256 v 6436 z"
   id="path170"
   inkscape:connector-curvature="0"
   style="fill:#bfbfdf;stroke:none" />
        <path
   d="m 12108,18860 v -6445 h -790 v 6445 z"
   id="path172"
   inkscape:connector-curvature="0"
   style="fill:none;stroke:#000000;stroke-width:35;stroke-linecap:round;stroke-linejoin:round" />
        <defs
   id="defs177">
         <clipPath
   id="clip_path_10"
   clipPathUnits="userSpaceOnUse">
          <path
   d="m 11323,17448 h 798 v 1446 h -798 z"
   id="path174"
   inkscape:connector-curvature="0" />
         </clipPath>
        </defs>
        <g
   clip-path="url(#clip_path_10)"
   id="g181">
         <path
   d="M 12850,18154 H 10559"
   id="path179"
   inkscape:connector-curvature="0"
   style="fill:none;stroke:#000000;stroke-width:35;stroke-linecap:round;stroke-linejoin:miter" />
        </g>
        <defs
   id="defs186">
         <clipPath
   id="clip_path_11"
   clipPathUnits="userSpaceOnUse">
          <path
   d="m 11323,16817 h 798 v 1446 h -798 z"
   id="path183"
   inkscape:connector-curvature="0" />
         </clipPath>
        </defs>
        <g
   clip-path="url(#clip_path_11)"
   id="g190">
         <path
   d="M 12850,17523 H 10559"
   id="path188"
   inkscape:connector-curvature="0"
   style="fill:none;stroke:#000000;stroke-width:35;stroke-linecap:round;stroke-linejoin:miter" />
        </g>
        <defs
   id="defs195">
         <clipPath
   id="clip_path_12"
   clipPathUnits="userSpaceOnUse">
          <path
   d="m 11323,16182 h 798 v 1446 h -798 z"
   id="path192"
   inkscape:connector-curvature="0" />
         </clipPath>
        </defs>
        <g
   clip-path="url(#clip_path_12)"
   id="g199">
         <path
   d="M 12850,16888 H 10559"
   id="path197"
   inkscape:connector-curvature="0"
   style="fill:none;stroke:#000000;stroke-width:35;stroke-linecap:round;stroke-linejoin:miter" />
        </g>
        <defs
   id="defs204">
         <clipPath
   id="clip_path_13"
   clipPathUnits="userSpaceOnUse">
          <path
   d="m 11323,15547 h 798 v 1446 h -798 z"
   id="path201"
   inkscape:connector-curvature="0" />
         </clipPath>
        </defs>
        <g
   clip-path="url(#clip_path_13)"
   id="g208">
         <path
   d="M 12850,16253 H 10559"
   id="path206"
   inkscape:connector-curvature="0"
   style="fill:none;stroke:#000000;stroke-width:35;stroke-linecap:round;stroke-linejoin:miter" />
        </g>
        <defs
   id="defs213">
         <clipPath
   id="clip_path_14"
   clipPathUnits="userSpaceOnUse">
          <path
   d="m 11323,14916 h 798 v 1446 h -798 z"
   id="path210"
   inkscape:connector-curvature="0" />
         </clipPath>
        </defs>
        <g
   clip-path="url(#clip_path_14)"
   id="g217">
         <path
   d="M 12850,15622 H 10559"
   id="path215"
   inkscape:connector-curvature="0"
   style="fill:none;stroke:#000000;stroke-width:35;stroke-linecap:round;stroke-linejoin:miter" />
        </g>
        <defs
   id="defs222">
         <clipPath
   id="clip_path_15"
   clipPathUnits="userSpaceOnUse">
          <path
   d="m 11323,14281 h 798 v 1446 h -798 z"
   id="path219"
   inkscape:connector-curvature="0" />
         </clipPath>
        </defs>
        <g
   clip-path="url(#clip_path_15)"
   id="g226">
         <path
   d="M 12850,14987 H 10559"
   id="path224"
   inkscape:connector-curvature="0"
   style="fill:none;stroke:#000000;stroke-width:35;stroke-linecap:round;stroke-linejoin:miter" />
        </g>
        <defs
   id="defs231">
         <clipPath
   id="clip_path_16"
   clipPathUnits="userSpaceOnUse">
          <path
   d="m 11323,13646 h 798 v 1446 h -798 z"
   id="path228"
   inkscape:connector-curvature="0" />
         </clipPath>
        </defs>
        <g
   clip-path="url(#clip_path_16)"
   id="g235">
         <path
   d="M 12850,14352 H 10559"
   id="path233"
   inkscape:connector-curvature="0"
   style="fill:none;stroke:#000000;stroke-width:35;stroke-linecap:round;stroke-linejoin:miter" />
        </g>
        <defs
   id="defs240">
         <clipPath
   id="clip_path_17"
   clipPathUnits="userSpaceOnUse">
          <path
   d="m 11323,13015 h 798 v 1446 h -798 z"
   id="path237"
   inkscape:connector-curvature="0" />
         </clipPath>
        </defs>
        <g
   clip-path="url(#clip_path_17)"
   id="g244">
         <path
   d="M 12850,13721 H 10559"
   id="path242"
   inkscape:connector-curvature="0"
   style="fill:none;stroke:#000000;stroke-width:35;stroke-linecap:round;stroke-linejoin:miter" />
        </g>
        <defs
   id="defs249">
         <clipPath
   id="clip_path_18"
   clipPathUnits="userSpaceOnUse">
          <path
   d="m 11323,12380 h 798 v 1446 h -798 z"
   id="path246"
   inkscape:connector-curvature="0" />
         </clipPath>
        </defs>
        <g
   clip-path="url(#clip_path_18)"
   id="g253">
         <path
   d="M 12850,13085 H 10559"
   id="path251"
   inkscape:connector-curvature="0"
   style="fill:none;stroke:#000000;stroke-width:35;stroke-linecap:round;stroke-linejoin:miter" />
        </g>
        <path
   d="M 11371,11894 H 9606 v -370 l 13,-181 18,-190 22,-181 26,-176 35,-190 36,-172 39,-181 45,-154 53,-146 39,-110 62,-145 66,-137 71,-102 75,-88 88,-70 111,-75 83,-49 128,62 111,101 101,106 80,124 70,123 75,181 80,216 44,159 35,137 40,176 35,234 27,238 26,247 22,261 z"
   id="path255"
   inkscape:connector-curvature="0"
   style="fill:#dfdfff;stroke:none" />
        <path
   d="M 11371,11894 H 9606 v -370 l 13,-181 18,-190 22,-181 26,-176 35,-190 36,-172 39,-181 45,-154 53,-146 39,-110 62,-145 66,-137 71,-102 75,-88 88,-70 111,-75 83,-49 128,62 111,101 101,106 80,124 70,123 75,181 80,216 44,159 35,137 40,176 35,234 27,238 26,247 22,261 z"
   id="path257"
   inkscape:connector-curvature="0"
   style="fill:none;stroke:#000000;stroke-width:35;stroke-linecap:round;stroke-linejoin:round" />
        <path
   d="M 11371,18798 V 11886 H 9601 v 6912 z"
   id="path259"
   inkscape:connector-curvature="0"
   style="fill:#dfdfff;stroke:none" />
        <path
   d="M 11371,18798 V 11886 H 9601 v 6912 z"
   id="path261"
   inkscape:connector-curvature="0"
   style="fill:none;stroke:#000000;stroke-width:35;stroke-linecap:round;stroke-linejoin:round" />
        <path
   d="m 10480,11837 -879,49 v -371 l 13,-181 18,-185 27,-181 22,-176 35,-190 35,-172 40,-181 44,-154 49,-146 39,-106 62,-145 71,-137 71,-102 70,-88 84,-70 110,-75 84,-49 z"
   id="path263"
   inkscape:connector-curvature="0"
   style="fill:#bfbfdf;stroke:none" />
        <path
   d="m 10480,18811 v -6947 l -879,22 v 6903 z"
   id="path265"
   inkscape:connector-curvature="0"
   style="fill:#bfbfdf;stroke:none" />
        <path
   d="M 11058,11886 H 9910 v -371 l 9,-181 13,-185 18,-181 13,-176 22,-190 27,-172 22,-181 31,-154 26,-146 31,-106 40,-145 40,-137 48,-102 53,-88 53,-70 71,-75 57,-49 84,62 75,101 66,106 53,124 44,123 44,177 49,216 31,159 22,136 26,177 27,234 13,238 18,242 17,261 z"
   id="path267"
   inkscape:connector-curvature="0"
   style="fill:#ffffff;stroke:none" />
        <path
   d="M 11058,18789 V 11886 H 9910 v 6903 z"
   id="path269"
   inkscape:connector-curvature="0"
   style="fill:#ffffff;stroke:none" />
        <path
   d="M 11371,11894 H 9601 v -370 l 13,-181 18,-190 27,-181 22,-176 35,-190 35,-172 40,-181 49,-154 48,-146 40,-110 62,-145 70,-137 71,-102 71,-88 88,-70 110,-75 84,-49 128,62 110,101 102,106 79,124 71,123 75,181 80,216 44,159 35,137 40,176 35,234 31,238 22,247 22,261 z"
   id="path271"
   inkscape:connector-curvature="0"
   style="fill:none;stroke:#000000;stroke-width:35;stroke-linecap:round;stroke-linejoin:round" />
        <path
   d="M 11367,18798 V 11886 H 9601 v 6912 z"
   id="path273"
   inkscape:connector-curvature="0"
   style="fill:none;stroke:#000000;stroke-width:35;stroke-linecap:round;stroke-linejoin:round" />
        <defs
   id="defs278">
         <clipPath
   id="clip_path_19"
   clipPathUnits="userSpaceOnUse">
          <path
   d="m 9606,16712 h 1800 v 1446 H 9606 Z"
   id="path275"
   inkscape:connector-curvature="0" />
         </clipPath>
        </defs>
        <g
   clip-path="url(#clip_path_19)"
   id="g282">
         <path
   d="M 13137,17417 H 7840"
   id="path280"
   inkscape:connector-curvature="0"
   style="fill:none;stroke:#000000;stroke-width:35;stroke-linecap:round;stroke-linejoin:miter" />
        </g>
        <defs
   id="defs287">
         <clipPath
   id="clip_path_20"
   clipPathUnits="userSpaceOnUse">
          <path
   d="m 9606,15322 h 1800 v 1446 H 9606 Z"
   id="path284"
   inkscape:connector-curvature="0" />
         </clipPath>
        </defs>
        <g
   clip-path="url(#clip_path_20)"
   id="g291">
         <path
   d="M 13137,16028 H 7840"
   id="path289"
   inkscape:connector-curvature="0"
   style="fill:none;stroke:#000000;stroke-width:35;stroke-linecap:round;stroke-linejoin:miter" />
        </g>
        <defs
   id="defs296">
         <clipPath
   id="clip_path_21"
   clipPathUnits="userSpaceOnUse">
          <path
   d="m 9606,13941 h 1800 v 1446 H 9606 Z"
   id="path293"
   inkscape:connector-curvature="0" />
         </clipPath>
        </defs>
        <g
   clip-path="url(#clip_path_21)"
   id="g300">
         <path
   d="M 13137,14647 H 7840"
   id="path298"
   inkscape:connector-curvature="0"
   style="fill:none;stroke:#000000;stroke-width:35;stroke-linecap:round;stroke-linejoin:miter" />
        </g>
        <defs
   id="defs305">
         <clipPath
   id="clip_path_22"
   clipPathUnits="userSpaceOnUse">
          <path
   d="m 9606,12556 h 1800 v 1446 H 9606 Z"
   id="path302"
   inkscape:connector-curvature="0" />
         </clipPath>
        </defs>
        <g
   clip-path="url(#clip_path_22)"
   id="g309">
         <path
   d="M 13137,13262 H 7840"
   id="path307"
   inkscape:connector-curvature="0"
   style="fill:none;stroke:#000000;stroke-width:35;stroke-linecap:round;stroke-linejoin:miter" />
        </g>
        <path
   d="m 8824,19672 h 835 l 238,397 H 8568 Z"
   id="path311"
   inkscape:connector-curvature="0"
   style="fill:#dfdfff;stroke:none" />
        <path
   d="m 8824,19672 h 835 l 238,397 H 8568 Z"
   id="path313"
   inkscape:connector-curvature="0"
   style="fill:none;stroke:#000000;stroke-width:35;stroke-linecap:round;stroke-linejoin:round" />
        <path
   d="m 8824,19672 420,-5 v 402 h -676 z"
   id="path315"
   inkscape:connector-curvature="0"
   style="fill:#bfbfdf;stroke:none" />
        <path
   d="m 8824,19672 420,-5 v 402 h -676 z"
   id="path317"
   inkscape:connector-curvature="0"
   style="fill:none;stroke:#000000;stroke-width:35;stroke-linecap:round;stroke-linejoin:round" />
        <path
   d="m 8824,19672 133,-5 -5,402 h -384 z"
   id="path319"
   inkscape:connector-curvature="0"
   style="fill:#9f9fbf;stroke:none" />
        <path
   d="m 8824,19672 133,-5 -5,402 h -384 z"
   id="path321"
   inkscape:connector-curvature="0"
   style="fill:none;stroke:#000000;stroke-width:35;stroke-linecap:round;stroke-linejoin:round" />
        <path
   d="m 9522,19672 h 137 l 238,397 h -375 z"
   id="path323"
   inkscape:connector-curvature="0"
   style="fill:#9f9fbf;stroke:none" />
        <path
   d="m 9522,19672 h 137 l 238,397 h -375 z"
   id="path325"
   inkscape:connector-curvature="0"
   style="fill:none;stroke:#000000;stroke-width:35;stroke-linecap:round;stroke-linejoin:round" />
        <path
   d="m 9429,19949 v -158 h 141 v 158 z"
   id="path327"
   inkscape:connector-curvature="0"
   style="fill:#5f5f7f;stroke:none" />
        <path
   d="m 9429,19949 v -158 h 141 v 158 z"
   id="path329"
   inkscape:connector-curvature="0"
   style="fill:none;stroke:#000000;stroke-width:35;stroke-linecap:round;stroke-linejoin:round" />
        <path
   d="m 8789,19954 102,-181 h 97 l -89,181 z"
   id="path331"
   inkscape:connector-curvature="0"
   style="fill:#5f5f7f;stroke:none" />
        <path
   d="m 8789,19954 102,-181 h 97 l -89,181 z"
   id="path333"
   inkscape:connector-curvature="0"
   style="fill:none;stroke:#000000;stroke-width:35;stroke-linecap:round;stroke-linejoin:round" />
        <path
   d="m 9588,20069 159,423 h -993 l 132,-423 z"
   id="path335"
   inkscape:connector-curvature="0"
   style="fill:#9f9fbf;stroke:none" />
        <path
   d="m 9588,20069 159,423 h -993 l 132,-423 z"
   id="path337"
   inkscape:connector-curvature="0"
   style="fill:none;stroke:#000000;stroke-width:35;stroke-linecap:round;stroke-linejoin:round" />
        <path
   d="m 8811,18847 h 869 v 286 h -869 z"
   id="path339"
   inkscape:connector-curvature="0"
   style="fill:#9f9fbf;stroke:none" />
        <path
   d="m 8811,18847 h 869 v 286 h -869 z"
   id="path341"
   inkscape:connector-curvature="0"
   style="fill:none;stroke:#000000;stroke-width:35;stroke-linecap:round;stroke-linejoin:round" />
        <path
   d="m 8811,19107 h 869 v 290 h -869 z"
   id="path343"
   inkscape:connector-curvature="0"
   style="fill:#9f9fbf;stroke:none" />
        <path
   d="m 8811,19107 h 869 v 290 h -869 z"
   id="path345"
   inkscape:connector-curvature="0"
   style="fill:none;stroke:#000000;stroke-width:35;stroke-linecap:round;stroke-linejoin:round" />
        <path
   d="m 8811,19372 h 869 v 303 h -869 z"
   id="path347"
   inkscape:connector-curvature="0"
   style="fill:#9f9fbf;stroke:none" />
        <path
   d="m 8811,19372 h 869 v 303 h -869 z"
   id="path349"
   inkscape:connector-curvature="0"
   style="fill:none;stroke:#000000;stroke-width:35;stroke-linecap:round;stroke-linejoin:round" />
        <path
   d="m 8913,18860 h 661 v 259 h -661 z"
   id="path351"
   inkscape:connector-curvature="0"
   style="fill:#bfbfdf;stroke:none" />
        <path
   d="m 8913,19125 h 661 v 264 h -661 z"
   id="path353"
   inkscape:connector-curvature="0"
   style="fill:#bfbfdf;stroke:none" />
        <path
   d="m 8913,19394 h 661 v 277 h -661 z"
   id="path355"
   inkscape:connector-curvature="0"
   style="fill:#bfbfdf;stroke:none" />
        <path
   d="m 9244,18860 h 277 v 259 h -277 z"
   id="path357"
   inkscape:connector-curvature="0"
   style="fill:#dfdfff;stroke:none" />
        <path
   d="m 9244,19125 h 277 v 264 h -277 z"
   id="path359"
   inkscape:connector-curvature="0"
   style="fill:#dfdfff;stroke:none" />
        <path
   d="m 9244,19394 h 277 v 277 h -277 z"
   id="path361"
   inkscape:connector-curvature="0"
   style="fill:#dfdfff;stroke:none" />
        <path
   d="m 8807,18842 h 869 v 286 h -869 z"
   id="path363"
   inkscape:connector-curvature="0"
   style="fill:none;stroke:#000000;stroke-width:35;stroke-linecap:round;stroke-linejoin:round" />
        <path
   d="m 8807,19102 h 869 v 290 h -869 z"
   id="path365"
   inkscape:connector-curvature="0"
   style="fill:none;stroke:#000000;stroke-width:35;stroke-linecap:round;stroke-linejoin:round" />
        <path
   d="m 8807,19367 h 869 v 303 h -869 z"
   id="path367"
   inkscape:connector-curvature="0"
   style="fill:none;stroke:#000000;stroke-width:35;stroke-linecap:round;stroke-linejoin:round" />
        <path
   d="m 9963,18869 h 521 v -4989 l -521,-225 -53,326 -53,318 -44,344 -40,291 -44,379 -31,296 -26,167 -40,186 -40,145 -44,124 -48,88 -44,84 -49,75 -93,119 -101,119 -159,159 -212,225 -225,225 -159,145 -49,66 -88,93 -84,115 -48,97 -44,128 -40,185 -27,251 -13,225 z"
   id="path369"
   inkscape:connector-curvature="0"
   style="fill:#ffffff;stroke:none" />
        <path
   d="m 9963,18869 h 521 v -4989 l -521,-225 -53,326 -53,318 -44,344 -40,291 -44,379 -31,296 -26,167 -40,186 -40,145 -44,124 -48,88 -44,84 -49,75 -93,119 -101,119 -159,159 -212,225 -225,225 -159,145 -49,66 -88,93 -84,115 -48,97 -44,128 -40,185 -27,251 -13,225 z"
   id="path371"
   inkscape:connector-curvature="0"
   style="fill:none;stroke:#000000;stroke-width:35;stroke-linecap:round;stroke-linejoin:round" />
        <defs
   id="defs376">
         <clipPath
   id="clip_path_23"
   clipPathUnits="userSpaceOnUse">
          <path
   d="m 8131,17514 h 1826 v 1446 H 8131 Z"
   id="path373"
   inkscape:connector-curvature="0" />
         </clipPath>
        </defs>
        <g
   clip-path="url(#clip_path_23)"
   id="g380">
         <path
   d="M 11716,18220 H 6339"
   id="path378"
   inkscape:connector-curvature="0"
   style="fill:none;stroke:#000000;stroke-width:35;stroke-linecap:round;stroke-linejoin:miter" />
        </g>
        <defs
   id="defs385">
         <clipPath
   id="clip_path_24"
   clipPathUnits="userSpaceOnUse">
          <path
   d="m 8118,17461 h 1826 v 1446 H 8118 Z"
   id="path382"
   inkscape:connector-curvature="0" />
         </clipPath>
        </defs>
        <g
   clip-path="url(#clip_path_24)"
   id="g389">
         <path
   d="M 11702,18167 H 6326"
   id="path387"
   inkscape:connector-curvature="0"
   style="fill:none;stroke:#000000;stroke-width:35;stroke-linecap:round;stroke-linejoin:miter" />
        </g>
        <defs
   id="defs394">
         <clipPath
   id="clip_path_25"
   clipPathUnits="userSpaceOnUse">
          <path
   d="m 8118,17409 h 1826 v 1446 H 8118 Z"
   id="path391"
   inkscape:connector-curvature="0" />
         </clipPath>
        </defs>
        <g
   clip-path="url(#clip_path_25)"
   id="g398">
         <path
   d="M 11702,18114 H 6326"
   id="path396"
   inkscape:connector-curvature="0"
   style="fill:none;stroke:#000000;stroke-width:35;stroke-linecap:round;stroke-linejoin:miter" />
        </g>
        <path
   d="m 8246,18106 27,-120 31,-101 35,-79 44,-80 49,-75 75,-79 92,-106 111,-106 119,-110 141,-141 137,-146 115,-119 101,-106 84,-93 49,-66 57,-66 40,-62 48,-84 49,-92 40,-102 35,-114 31,-119 22,-133 17,-128 18,-128 13,-119 -4,-61"
   id="path400"
   inkscape:connector-curvature="0"
   style="fill:none;stroke:#000000;stroke-width:35;stroke-linecap:round;stroke-linejoin:round" />
        <path
   d="m 8087,18233 v 93 h 1845"
   id="path402"
   inkscape:connector-curvature="0"
   style="fill:none;stroke:#000000;stroke-width:35;stroke-linecap:round;stroke-linejoin:round" />
        <path
   d="m 8851,18723 v -490 h 62 v 503 z"
   id="path404"
   inkscape:connector-curvature="0"
   style="fill:#ffffff;stroke:none" />
        <path
   d="m 8851,18723 v -490 h 62 v 503 z"
   id="path406"
   inkscape:connector-curvature="0"
   style="fill:none;stroke:#000000;stroke-width:35;stroke-linecap:round;stroke-linejoin:round" />
        <defs
   id="defs411">
         <clipPath
   id="clip_path_26"
   clipPathUnits="userSpaceOnUse">
          <path
   d="m 9751,14656 h 211 v 1446 h -211 z"
   id="path408"
   inkscape:connector-curvature="0" />
         </clipPath>
        </defs>
        <g
   clip-path="url(#clip_path_26)"
   id="g415">
         <path
   d="M 10104,15362 H 9575"
   id="path413"
   inkscape:connector-curvature="0"
   style="fill:none;stroke:#000000;stroke-width:35;stroke-linecap:round;stroke-linejoin:miter" />
        </g>
        <path
   d="m 9857,19257 80,-375 h 247 l 79,375 z"
   id="path417"
   inkscape:connector-curvature="0"
   style="fill:#9f9fbf;stroke:none" />
        <path
   d="m 9857,19257 80,-375 h 247 l 79,375 z"
   id="path419"
   inkscape:connector-curvature="0"
   style="fill:none;stroke:#000000;stroke-width:35;stroke-linecap:round;stroke-linejoin:round" />
        <path
   d="m 10276,19257 c 0,13 -10,25 -29,37 -19,11 -47,20 -80,27 -33,7 -71,10 -109,10 -38,0 -76,-3 -109,-10 -33,-7 -61,-16 -80,-27 -19,-12 -29,-24 -29,-37 0,-14 10,-26 29,-38 19,-11 47,-20 80,-27 33,-7 71,-10 109,-10 38,0 76,3 109,10 33,7 61,16 80,27 19,12 29,24 29,38 z"
   id="path421"
   inkscape:connector-curvature="0"
   style="fill:#7f7f9f;stroke:none" />
        <path
   d="m 10272,19252 v -4 l -1,-4 -1,-3 -2,-4 -3,-4 -3,-3 -3,-4 -5,-4 -4,-3 -5,-3 -6,-4 -6,-3 -6,-3 -7,-3 -7,-3 -8,-2 -8,-3 -9,-2 -9,-3 -9,-2 -9,-2 -10,-1 -10,-2 -10,-1 -10,-2 -11,-1 h -11 l -10,-1 -11,-1 h -11 -11 v 0 h -11 -11 l -11,1 -10,1 h -11 l -11,1 -10,2 -10,1 -10,2 -10,1 -9,2 -9,2 -9,3 -9,2 -8,3 -8,2 -7,3 -7,3 -6,3 -6,3 -6,4 -5,3 -4,3 -5,4 -3,4 -3,3 -3,4 -2,4 -1,3 -1,4 v 4 0 4 l 1,4 1,3 2,4 3,4 3,3 3,4 5,4 4,3 5,3 6,4 6,3 6,3 7,3 7,3 8,2 8,3 9,2 9,3 9,2 9,2 10,1 10,2 10,1 10,2 11,1 h 11 l 10,1 11,1 h 11 11 v 0 h 11 11 l 11,-1 10,-1 h 11 l 11,-1 10,-2 10,-1 10,-2 10,-1 9,-2 9,-2 9,-3 9,-2 8,-3 8,-2 7,-3 7,-3 6,-3 6,-3 6,-4 5,-3 4,-3 5,-4 3,-4 3,-3 3,-4 2,-4 1,-3 1,-4 z"
   id="path423"
   inkscape:connector-curvature="0"
   style="fill:none;stroke:#000000;stroke-width:35;stroke-linecap:round;stroke-linejoin:round" />
        <path
   d="m 10034,18833 h 295 v 334 h -295 z"
   id="path425"
   inkscape:connector-curvature="0"
   style="fill:#dfdfff;stroke:none" />
        <path
   d="m 10034,18833 h 295 v 334 h -295 z"
   id="path427"
   inkscape:connector-curvature="0"
   style="fill:none;stroke:#000000;stroke-width:35;stroke-linecap:round;stroke-linejoin:round" />
        <path
   d="m 10329,18952 c 0,8 -7,17 -20,24 -13,7 -31,13 -54,18 -22,4 -48,6 -73,6 -26,0 -52,-2 -74,-6 -23,-5 -41,-11 -54,-18 -13,-7 -20,-16 -20,-24 0,-8 7,-17 20,-24 13,-7 31,-13 54,-18 22,-4 48,-6 74,-6 25,0 51,2 73,6 23,5 41,11 54,18 13,7 20,16 20,24 z"
   id="path429"
   inkscape:connector-curvature="0"
   style="fill:#dfdfff;stroke:none" />
        <path
   d="m 10325,18948 v -2 l -1,-3 -1,-2 -1,-3 -2,-2 -2,-3 -2,-2 -3,-2 -3,-3 -3,-2 -4,-2 -4,-2 -5,-2 -4,-2 -5,-2 -5,-2 -6,-1 -6,-2 -6,-1 -6,-2 -6,-1 -7,-1 -6,-1 -7,-1 -7,-1 h -7 l -8,-1 h -7 l -7,-1 h -8 -7 v 0 h -7 -8 l -7,1 h -7 l -8,1 h -7 l -7,1 -7,1 -6,1 -7,1 -6,1 -6,2 -6,1 -6,2 -6,1 -5,2 -5,2 -4,2 -5,2 -4,2 -4,2 -3,2 -3,3 -3,2 -2,2 -2,3 -2,2 -1,3 -1,2 -1,3 v 2 0 2 l 1,3 1,2 1,3 2,2 2,3 2,2 3,2 3,3 3,2 4,2 4,2 5,2 4,2 5,2 5,2 6,1 6,2 6,1 6,2 6,1 7,1 6,1 7,1 7,1 h 7 l 8,1 h 7 l 7,1 h 8 7 v 0 h 7 8 l 7,-1 h 7 l 8,-1 h 7 l 7,-1 7,-1 6,-1 7,-1 6,-1 6,-2 6,-1 6,-2 6,-1 5,-2 5,-2 4,-2 5,-2 4,-2 4,-2 3,-2 3,-3 3,-2 2,-2 2,-3 2,-2 1,-3 1,-2 1,-3 z"
   id="path431"
   inkscape:connector-curvature="0"
   style="fill:none;stroke:#000000;stroke-width:35;stroke-linecap:round;stroke-linejoin:round" />
        <path
   d="m 10329,19009 c 0,8 -7,17 -20,24 -13,7 -31,13 -54,18 -22,4 -48,6 -73,6 -26,0 -52,-2 -74,-6 -23,-5 -41,-11 -54,-18 -13,-7 -20,-16 -20,-24 0,-8 7,-17 20,-24 13,-7 31,-13 54,-18 22,-4 48,-6 74,-6 25,0 51,2 73,6 23,5 41,11 54,18 13,7 20,16 20,24 z"
   id="path433"
   inkscape:connector-curvature="0"
   style="fill:#bfbfdf;stroke:none" />
        <path
   d="m 10325,19005 v -2 l -1,-3 -1,-2 -1,-3 -2,-2 -2,-3 -2,-2 -3,-2 -3,-3 -3,-2 -4,-2 -4,-2 -5,-2 -4,-2 -5,-2 -5,-2 -6,-1 -6,-2 -6,-1 -6,-2 -6,-1 -7,-1 -6,-1 -7,-1 -7,-1 h -7 l -8,-1 h -7 l -7,-1 h -8 -7 v 0 h -7 -8 l -7,1 h -7 l -8,1 h -7 l -7,1 -7,1 -6,1 -7,1 -6,1 -6,2 -6,1 -6,2 -6,1 -5,2 -5,2 -4,2 -5,2 -4,2 -4,2 -3,2 -3,3 -3,2 -2,2 -2,3 -2,2 -1,3 -1,2 -1,3 v 2 0 2 l 1,3 1,2 1,3 2,2 2,3 2,2 3,2 3,3 3,2 4,2 4,2 5,2 4,2 5,2 5,2 6,1 6,2 6,1 6,2 6,1 7,1 6,1 7,1 7,1 h 7 l 8,1 h 7 l 7,1 h 8 7 v 0 h 7 8 l 7,-1 h 7 l 8,-1 h 7 l 7,-1 7,-1 6,-1 7,-1 6,-1 6,-2 6,-1 6,-2 6,-1 5,-2 5,-2 4,-2 5,-2 4,-2 4,-2 3,-2 3,-3 3,-2 2,-2 2,-3 2,-2 1,-3 1,-2 1,-3 z"
   id="path435"
   inkscape:connector-curvature="0"
   style="fill:none;stroke:#000000;stroke-width:35;stroke-linecap:round;stroke-linejoin:round" />
        <path
   d="m 10329,19067 c 0,8 -7,17 -20,24 -13,7 -31,13 -54,18 -22,4 -48,6 -73,6 -26,0 -52,-2 -74,-6 -23,-5 -41,-11 -54,-18 -13,-7 -20,-16 -20,-24 0,-8 7,-17 20,-24 13,-7 31,-13 54,-18 22,-4 48,-6 74,-6 25,0 51,2 73,6 23,5 41,11 54,18 13,7 20,16 20,24 z"
   id="path437"
   inkscape:connector-curvature="0"
   style="fill:#dfdfff;stroke:none" />
        <path
   d="m 10325,19063 v -2 l -1,-3 -1,-2 -1,-3 -2,-2 -2,-3 -2,-2 -3,-2 -3,-3 -3,-2 -4,-2 -4,-2 -5,-2 -4,-2 -5,-2 -5,-2 -6,-1 -6,-2 -6,-1 -6,-2 -6,-1 -7,-1 -6,-1 -7,-1 -7,-1 h -7 l -8,-1 h -7 l -7,-1 h -8 -7 v 0 h -7 -8 l -7,1 h -7 l -8,1 h -7 l -7,1 -7,1 -6,1 -7,1 -6,1 -6,2 -6,1 -6,2 -6,1 -5,2 -5,2 -4,2 -5,2 -4,2 -4,2 -3,2 -3,3 -3,2 -2,2 -2,3 -2,2 -1,3 -1,2 -1,3 v 2 0 2 l 1,3 1,2 1,3 2,2 2,3 2,2 3,2 3,3 3,2 4,2 4,2 5,2 4,2 5,2 5,2 6,1 6,2 6,1 6,2 6,1 7,1 6,1 7,1 7,1 h 7 l 8,1 h 7 l 7,1 h 8 7 v 0 h 7 8 l 7,-1 h 7 l 8,-1 h 7 l 7,-1 7,-1 6,-1 7,-1 6,-1 6,-2 6,-1 6,-2 6,-1 5,-2 5,-2 4,-2 5,-2 4,-2 4,-2 3,-2 3,-3 3,-2 2,-2 2,-3 2,-2 1,-3 1,-2 1,-3 z"
   id="path439"
   inkscape:connector-curvature="0"
   style="fill:none;stroke:#000000;stroke-width:35;stroke-linecap:round;stroke-linejoin:round" />
        <path
   d="m 10329,19120 c 0,8 -7,17 -20,24 -13,7 -31,13 -54,18 -22,4 -48,6 -73,6 -26,0 -52,-2 -74,-6 -23,-5 -41,-11 -54,-18 -13,-7 -20,-16 -20,-24 0,-8 7,-17 20,-24 13,-7 31,-13 54,-18 22,-4 48,-6 74,-6 25,0 51,2 73,6 23,5 41,11 54,18 13,7 20,16 20,24 z"
   id="path441"
   inkscape:connector-curvature="0"
   style="fill:#bfbfdf;stroke:none" />
        <path
   d="m 10325,19116 v -2 l -1,-3 -1,-2 -1,-3 -2,-2 -2,-3 -2,-2 -3,-2 -3,-3 -3,-2 -4,-2 -4,-2 -5,-2 -4,-2 -5,-2 -5,-2 -6,-1 -6,-2 -6,-1 -6,-2 -6,-1 -7,-1 -6,-1 -7,-1 -7,-1 h -7 l -8,-1 h -7 l -7,-1 h -8 -7 v 0 h -7 -8 l -7,1 h -7 l -8,1 h -7 l -7,1 -7,1 -6,1 -7,1 -6,1 -6,2 -6,1 -6,2 -6,1 -5,2 -5,2 -4,2 -5,2 -4,2 -4,2 -3,2 -3,3 -3,2 -2,2 -2,3 -2,2 -1,3 -1,2 -1,3 v 2 0 2 l 1,3 1,2 1,3 2,2 2,3 2,2 3,2 3,3 3,2 4,2 4,2 5,2 4,2 5,2 5,2 6,1 6,2 6,1 6,2 6,1 7,1 6,1 7,1 7,1 h 7 l 8,1 h 7 l 7,1 h 8 7 v 0 h 7 8 l 7,-1 h 7 l 8,-1 h 7 l 7,-1 7,-1 6,-1 7,-1 6,-1 6,-2 6,-1 6,-2 6,-1 5,-2 5,-2 4,-2 5,-2 4,-2 4,-2 3,-2 3,-3 3,-2 2,-2 2,-3 2,-2 1,-3 1,-2 1,-3 z"
   id="path443"
   inkscape:connector-curvature="0"
   style="fill:none;stroke:#000000;stroke-width:35;stroke-linecap:round;stroke-linejoin:round" />
        <path
   d="m 10329,19181 c 0,8 -7,17 -20,24 -13,7 -31,13 -54,18 -22,4 -48,6 -73,6 -26,0 -52,-2 -74,-6 -23,-5 -41,-11 -54,-18 -13,-7 -20,-16 -20,-24 0,-8 7,-17 20,-24 13,-7 31,-13 54,-18 22,-4 48,-6 74,-6 25,0 51,2 73,6 23,5 41,11 54,18 13,7 20,16 20,24 z"
   id="path445"
   inkscape:connector-curvature="0"
   style="fill:#5f5f7f;stroke:none" />
        <path
   d="m 10325,19177 v -2 l -1,-3 -1,-2 -1,-3 -2,-2 -2,-3 -2,-2 -3,-2 -3,-3 -3,-2 -4,-2 -4,-2 -5,-2 -4,-2 -5,-2 -5,-2 -6,-1 -6,-2 -6,-1 -6,-2 -6,-1 -7,-1 -6,-1 -7,-1 -7,-1 h -7 l -8,-1 h -7 l -7,-1 h -8 -7 v 0 h -7 -8 l -7,1 h -7 l -8,1 h -7 l -7,1 -7,1 -6,1 -7,1 -6,1 -6,2 -6,1 -6,2 -6,1 -5,2 -5,2 -4,2 -5,2 -4,2 -4,2 -3,2 -3,3 -3,2 -2,2 -2,3 -2,2 -1,3 -1,2 -1,3 v 2 0 2 l 1,3 1,2 1,3 2,2 2,3 2,2 3,2 3,3 3,2 4,2 4,2 5,2 4,2 5,2 5,2 6,1 6,2 6,1 6,2 6,1 7,1 6,1 7,1 7,1 h 7 l 8,1 h 7 l 7,1 h 8 7 v 0 h 7 8 l 7,-1 h 7 l 8,-1 h 7 l 7,-1 7,-1 6,-1 7,-1 6,-1 6,-2 6,-1 6,-2 6,-1 5,-2 5,-2 4,-2 5,-2 4,-2 4,-2 3,-2 3,-3 3,-2 2,-2 2,-3 2,-2 1,-3 1,-2 1,-3 z"
   id="path447"
   inkscape:connector-curvature="0"
   style="fill:none;stroke:#000000;stroke-width:35;stroke-linecap:round;stroke-linejoin:round" />
        <path
   d="m 9698,18833 h 299 v 334 h -299 z"
   id="path449"
   inkscape:connector-curvature="0"
   style="fill:#dfdfff;stroke:none" />
        <path
   d="m 9698,18833 h 299 v 334 h -299 z"
   id="path451"
   inkscape:connector-curvature="0"
   style="fill:none;stroke:#000000;stroke-width:35;stroke-linecap:round;stroke-linejoin:round" />
        <path
   d="m 9997,18952 c 0,8 -7,17 -20,24 -13,7 -32,13 -55,18 -22,4 -48,6 -74,6 -27,0 -53,-2 -75,-6 -23,-5 -42,-11 -55,-18 -13,-7 -20,-16 -20,-24 0,-8 7,-17 20,-24 13,-7 32,-13 55,-18 22,-4 48,-6 75,-6 26,0 52,2 74,6 23,5 42,11 55,18 13,7 20,16 20,24 z"
   id="path453"
   inkscape:connector-curvature="0"
   style="fill:#dfdfff;stroke:none" />
        <path
   d="m 9994,18948 v -2 l -1,-3 -1,-2 -1,-3 -2,-2 -2,-3 -2,-2 -3,-2 -3,-3 -4,-2 -4,-2 -4,-2 -4,-2 -5,-2 -5,-2 -6,-2 -5,-1 -6,-2 -6,-1 -7,-2 -6,-1 -7,-1 -7,-1 -7,-1 -7,-1 h -7 l -8,-1 h -7 l -8,-1 h -7 -8 v 0 h -8 -7 l -8,1 h -7 l -8,1 h -7 l -7,1 -7,1 -7,1 -7,1 -6,1 -7,2 -6,1 -6,2 -5,1 -6,2 -5,2 -5,2 -4,2 -4,2 -4,2 -4,2 -3,3 -3,2 -2,2 -2,3 -2,2 -1,3 -1,2 -1,3 v 2 0 2 l 1,3 1,2 1,3 2,2 2,3 2,2 3,2 3,3 4,2 4,2 4,2 4,2 5,2 5,2 6,2 5,1 6,2 6,1 7,2 6,1 7,1 7,1 7,1 7,1 h 7 l 8,1 h 7 l 8,1 h 7 8 v 0 h 8 7 l 8,-1 h 7 l 8,-1 h 7 l 7,-1 7,-1 7,-1 7,-1 6,-1 7,-2 6,-1 6,-2 5,-1 6,-2 5,-2 5,-2 4,-2 4,-2 4,-2 4,-2 3,-3 3,-2 2,-2 2,-3 2,-2 1,-3 1,-2 1,-3 z"
   id="path455"
   inkscape:connector-curvature="0"
   style="fill:none;stroke:#000000;stroke-width:35;stroke-linecap:round;stroke-linejoin:round" />
        <path
   d="m 9997,19009 c 0,8 -7,17 -20,24 -13,7 -32,13 -55,18 -22,4 -48,6 -74,6 -27,0 -53,-2 -75,-6 -23,-5 -42,-11 -55,-18 -13,-7 -20,-16 -20,-24 0,-8 7,-17 20,-24 13,-7 32,-13 55,-18 22,-4 48,-6 75,-6 26,0 52,2 74,6 23,5 42,11 55,18 13,7 20,16 20,24 z"
   id="path457"
   inkscape:connector-curvature="0"
   style="fill:#bfbfdf;stroke:none" />
        <path
   d="m 9994,19005 v -2 l -1,-3 -1,-2 -1,-3 -2,-2 -2,-3 -2,-2 -3,-2 -3,-3 -4,-2 -4,-2 -4,-2 -4,-2 -5,-2 -5,-2 -6,-2 -5,-1 -6,-2 -6,-1 -7,-2 -6,-1 -7,-1 -7,-1 -7,-1 -7,-1 h -7 l -8,-1 h -7 l -8,-1 h -7 -8 v 0 h -8 -7 l -8,1 h -7 l -8,1 h -7 l -7,1 -7,1 -7,1 -7,1 -6,1 -7,2 -6,1 -6,2 -5,1 -6,2 -5,2 -5,2 -4,2 -4,2 -4,2 -4,2 -3,3 -3,2 -2,2 -2,3 -2,2 -1,3 -1,2 -1,3 v 2 0 2 l 1,3 1,2 1,3 2,2 2,3 2,2 3,2 3,3 4,2 4,2 4,2 4,2 5,2 5,2 6,2 5,1 6,2 6,1 7,2 6,1 7,1 7,1 7,1 7,1 h 7 l 8,1 h 7 l 8,1 h 7 8 v 0 h 8 7 l 8,-1 h 7 l 8,-1 h 7 l 7,-1 7,-1 7,-1 7,-1 6,-1 7,-2 6,-1 6,-2 5,-1 6,-2 5,-2 5,-2 4,-2 4,-2 4,-2 4,-2 3,-3 3,-2 2,-2 2,-3 2,-2 1,-3 1,-2 1,-3 z"
   id="path459"
   inkscape:connector-curvature="0"
   style="fill:none;stroke:#000000;stroke-width:35;stroke-linecap:round;stroke-linejoin:round" />
        <path
   d="m 9997,19067 c 0,8 -7,17 -20,24 -13,7 -32,13 -55,18 -22,4 -48,6 -74,6 -27,0 -53,-2 -75,-6 -23,-5 -42,-11 -55,-18 -13,-7 -20,-16 -20,-24 0,-8 7,-17 20,-24 13,-7 32,-13 55,-18 22,-4 48,-6 75,-6 26,0 52,2 74,6 23,5 42,11 55,18 13,7 20,16 20,24 z"
   id="path461"
   inkscape:connector-curvature="0"
   style="fill:#dfdfff;stroke:none" />
        <path
   d="m 9994,19063 v -2 l -1,-3 -1,-2 -1,-3 -2,-2 -2,-3 -2,-2 -3,-2 -3,-3 -4,-2 -4,-2 -4,-2 -4,-2 -5,-2 -5,-2 -6,-2 -5,-1 -6,-2 -6,-1 -7,-2 -6,-1 -7,-1 -7,-1 -7,-1 -7,-1 h -7 l -8,-1 h -7 l -8,-1 h -7 -8 v 0 h -8 -7 l -8,1 h -7 l -8,1 h -7 l -7,1 -7,1 -7,1 -7,1 -6,1 -7,2 -6,1 -6,2 -5,1 -6,2 -5,2 -5,2 -4,2 -4,2 -4,2 -4,2 -3,3 -3,2 -2,2 -2,3 -2,2 -1,3 -1,2 -1,3 v 2 0 2 l 1,3 1,2 1,3 2,2 2,3 2,2 3,2 3,3 4,2 4,2 4,2 4,2 5,2 5,2 6,2 5,1 6,2 6,1 7,2 6,1 7,1 7,1 7,1 7,1 h 7 l 8,1 h 7 l 8,1 h 7 8 v 0 h 8 7 l 8,-1 h 7 l 8,-1 h 7 l 7,-1 7,-1 7,-1 7,-1 6,-1 7,-2 6,-1 6,-2 5,-1 6,-2 5,-2 5,-2 4,-2 4,-2 4,-2 4,-2 3,-3 3,-2 2,-2 2,-3 2,-2 1,-3 1,-2 1,-3 z"
   id="path463"
   inkscape:connector-curvature="0"
   style="fill:none;stroke:#000000;stroke-width:35;stroke-linecap:round;stroke-linejoin:round" />
        <path
   d="m 9997,19120 c 0,8 -7,17 -20,24 -13,7 -32,13 -55,18 -22,4 -48,6 -74,6 -27,0 -53,-2 -75,-6 -23,-5 -42,-11 -55,-18 -13,-7 -20,-16 -20,-24 0,-8 7,-17 20,-24 13,-7 32,-13 55,-18 22,-4 48,-6 75,-6 26,0 52,2 74,6 23,5 42,11 55,18 13,7 20,16 20,24 z"
   id="path465"
   inkscape:connector-curvature="0"
   style="fill:#bfbfdf;stroke:none" />
        <path
   d="m 9994,19116 v -2 l -1,-3 -1,-2 -1,-3 -2,-2 -2,-3 -2,-2 -3,-2 -3,-3 -4,-2 -4,-2 -4,-2 -4,-2 -5,-2 -5,-2 -6,-2 -5,-1 -6,-2 -6,-1 -7,-2 -6,-1 -7,-1 -7,-1 -7,-1 -7,-1 h -7 l -8,-1 h -7 l -8,-1 h -7 -8 v 0 h -8 -7 l -8,1 h -7 l -8,1 h -7 l -7,1 -7,1 -7,1 -7,1 -6,1 -7,2 -6,1 -6,2 -5,1 -6,2 -5,2 -5,2 -4,2 -4,2 -4,2 -4,2 -3,3 -3,2 -2,2 -2,3 -2,2 -1,3 -1,2 -1,3 v 2 0 2 l 1,3 1,2 1,3 2,2 2,3 2,2 3,2 3,3 4,2 4,2 4,2 4,2 5,2 5,2 6,2 5,1 6,2 6,1 7,2 6,1 7,1 7,1 7,1 7,1 h 7 l 8,1 h 7 l 8,1 h 7 8 v 0 h 8 7 l 8,-1 h 7 l 8,-1 h 7 l 7,-1 7,-1 7,-1 7,-1 6,-1 7,-2 6,-1 6,-2 5,-1 6,-2 5,-2 5,-2 4,-2 4,-2 4,-2 4,-2 3,-3 3,-2 2,-2 2,-3 2,-2 1,-3 1,-2 1,-3 z"
   id="path467"
   inkscape:connector-curvature="0"
   style="fill:none;stroke:#000000;stroke-width:35;stroke-linecap:round;stroke-linejoin:round" />
        <path
   d="m 9997,19181 c 0,8 -7,17 -20,24 -13,7 -32,13 -55,18 -22,4 -48,6 -74,6 -27,0 -53,-2 -75,-6 -23,-5 -42,-11 -55,-18 -13,-7 -20,-16 -20,-24 0,-8 7,-17 20,-24 13,-7 32,-13 55,-18 22,-4 48,-6 75,-6 26,0 52,2 74,6 23,5 42,11 55,18 13,7 20,16 20,24 z"
   id="path469"
   inkscape:connector-curvature="0"
   style="fill:#5f5f7f;stroke:none" />
        <path
   d="m 9994,19177 v -2 l -1,-3 -1,-2 -1,-3 -2,-2 -2,-3 -2,-2 -3,-2 -3,-3 -4,-2 -4,-2 -4,-2 -4,-2 -5,-2 -5,-2 -6,-2 -5,-1 -6,-2 -6,-1 -7,-2 -6,-1 -7,-1 -7,-1 -7,-1 -7,-1 h -7 l -8,-1 h -7 l -8,-1 h -7 -8 v 0 h -8 -7 l -8,1 h -7 l -8,1 h -7 l -7,1 -7,1 -7,1 -7,1 -6,1 -7,2 -6,1 -6,2 -5,1 -6,2 -5,2 -5,2 -4,2 -4,2 -4,2 -4,2 -3,3 -3,2 -2,2 -2,3 -2,2 -1,3 -1,2 -1,3 v 2 0 2 l 1,3 1,2 1,3 2,2 2,3 2,2 3,2 3,3 4,2 4,2 4,2 4,2 5,2 5,2 6,2 5,1 6,2 6,1 7,2 6,1 7,1 7,1 7,1 7,1 h 7 l 8,1 h 7 l 8,1 h 7 8 v 0 h 8 7 l 8,-1 h 7 l 8,-1 h 7 l 7,-1 7,-1 7,-1 7,-1 6,-1 7,-2 6,-1 6,-2 5,-1 6,-2 5,-2 5,-2 4,-2 4,-2 4,-2 4,-2 3,-3 3,-2 2,-2 2,-3 2,-2 1,-3 1,-2 1,-3 z"
   id="path471"
   inkscape:connector-curvature="0"
   style="fill:none;stroke:#000000;stroke-width:35;stroke-linecap:round;stroke-linejoin:round" />
        <path
   d="m 9672,18891 h 680 v -80 -92 l -5,-71 -4,-70 -9,-75 -13,-89 -18,-75 -18,-70 -22,-66 -17,-58 -31,-66 -27,-44 -26,-31 -31,-31 -27,-22 -30,-18 -14,-8 -31,-5 -30,5 -36,8 -44,27 -44,40 -35,44 -31,48 -31,62 -22,53 -18,53 -22,79 -18,75 -13,75 -9,62 -4,75 -5,97 z"
   id="path473"
   inkscape:connector-curvature="0"
   style="fill:#dfdfff;stroke:none" />
        <path
   d="m 9672,18891 h 680 v -80 -92 l -5,-71 -4,-70 -9,-75 -13,-89 -18,-75 -18,-70 -22,-66 -17,-58 -31,-66 -27,-44 -26,-31 -31,-31 -27,-22 -30,-18 -14,-8 -31,-5 -30,5 -36,8 -44,27 -44,40 -35,44 -31,48 -31,62 -22,53 -18,53 -22,79 -18,75 -13,75 -9,62 -4,75 -5,97 z"
   id="path475"
   inkscape:connector-curvature="0"
   style="fill:none;stroke:#000000;stroke-width:35;stroke-linecap:round;stroke-linejoin:round" />
        <path
   d="m 9888,18882 h 327 v -80 -92 -66 l -5,-71 -4,-75 -4,-88 -9,-75 -9,-71 -13,-66 -9,-53 -13,-66 -14,-44 -8,-31 -18,-31 -13,-22 -14,-18 -8,-8 -18,-5 -9,5 -18,8 -22,27 -22,40 -13,44 -18,48 -13,62 -13,49 -9,52 -9,80 -9,75 -8,75 -5,62 v 75 92 z"
   id="path477"
   inkscape:connector-curvature="0"
   style="fill:#ffffff;stroke:none" />
        <path
   d="m 9676,18891 h 680 v -80 -92 l -4,-71 -5,-70 -9,-75 -13,-89 -18,-75 -17,-70 -22,-66 -18,-58 -31,-66 -26,-44 -27,-31 -31,-31 -26,-22 -31,-18 -18,-8 -26,-5 -31,5 -35,8 -45,27 -44,40 -35,44 -31,48 -31,62 -22,53 -18,53 -22,79 -17,75 -13,75 -9,62 -5,75 -4,97 z"
   id="path479"
   inkscape:connector-curvature="0"
   style="fill:none;stroke:#000000;stroke-width:35;stroke-linecap:round;stroke-linejoin:round" />
        <path
   d="m 12130,19627 h -834 l -238,397 h 1329 z"
   id="path481"
   inkscape:connector-curvature="0"
   style="fill:#dfdfff;stroke:none" />
        <path
   d="m 12130,19627 h -834 l -238,397 h 1329 z"
   id="path483"
   inkscape:connector-curvature="0"
   style="fill:none;stroke:#000000;stroke-width:35;stroke-linecap:round;stroke-linejoin:round" />
        <path
   d="m 12130,19627 -419,-4 -4,401 h 680 z"
   id="path485"
   inkscape:connector-curvature="0"
   style="fill:#bfbfdf;stroke:none" />
        <path
   d="m 12130,19627 -419,-4 -4,401 h 680 z"
   id="path487"
   inkscape:connector-curvature="0"
   style="fill:none;stroke:#000000;stroke-width:35;stroke-linecap:round;stroke-linejoin:round" />
        <path
   d="m 12130,19627 -132,-4 4,401 h 385 z"
   id="path489"
   inkscape:connector-curvature="0"
   style="fill:#9f9fbf;stroke:none" />
        <path
   d="m 12130,19627 -132,-4 4,401 h 385 z"
   id="path491"
   inkscape:connector-curvature="0"
   style="fill:none;stroke:#000000;stroke-width:35;stroke-linecap:round;stroke-linejoin:round" />
        <path
   d="m 11433,19627 h -137 l -238,397 h 375 z"
   id="path493"
   inkscape:connector-curvature="0"
   style="fill:#9f9fbf;stroke:none" />
        <path
   d="m 11433,19627 h -137 l -238,397 h 375 z"
   id="path495"
   inkscape:connector-curvature="0"
   style="fill:none;stroke:#000000;stroke-width:35;stroke-linecap:round;stroke-linejoin:round" />
        <path
   d="m 11526,19905 v -158 h -141 v 158 z"
   id="path497"
   inkscape:connector-curvature="0"
   style="fill:#5f5f7f;stroke:none" />
        <path
   d="m 11526,19905 v -158 h -141 v 158 z"
   id="path499"
   inkscape:connector-curvature="0"
   style="fill:none;stroke:#000000;stroke-width:35;stroke-linecap:round;stroke-linejoin:round" />
        <path
   d="m 12166,19910 -102,-181 h -97 l 88,181 z"
   id="path501"
   inkscape:connector-curvature="0"
   style="fill:#5f5f7f;stroke:none" />
        <path
   d="m 12166,19910 -102,-181 h -97 l 88,181 z"
   id="path503"
   inkscape:connector-curvature="0"
   style="fill:none;stroke:#000000;stroke-width:35;stroke-linecap:round;stroke-linejoin:round" />
        <path
   d="m 11367,20024 -159,424 h 993 l -132,-424 z"
   id="path505"
   inkscape:connector-curvature="0"
   style="fill:#9f9fbf;stroke:none" />
        <path
   d="m 11367,20024 -159,424 h 993 l -132,-424 z"
   id="path507"
   inkscape:connector-curvature="0"
   style="fill:none;stroke:#000000;stroke-width:35;stroke-linecap:round;stroke-linejoin:round" />
        <path
   d="m 11265,18802 h 869 v 286 h -869 z"
   id="path509"
   inkscape:connector-curvature="0"
   style="fill:#9f9fbf;stroke:none" />
        <path
   d="m 11265,18802 h 869 v 286 h -869 z"
   id="path511"
   inkscape:connector-curvature="0"
   style="fill:none;stroke:#000000;stroke-width:35;stroke-linecap:round;stroke-linejoin:round" />
        <path
   d="m 11265,19063 h 869 v 290 h -869 z"
   id="path513"
   inkscape:connector-curvature="0"
   style="fill:#9f9fbf;stroke:none" />
        <path
   d="m 11265,19063 h 869 v 290 h -869 z"
   id="path515"
   inkscape:connector-curvature="0"
   style="fill:none;stroke:#000000;stroke-width:35;stroke-linecap:round;stroke-linejoin:round" />
        <path
   d="m 11265,19327 h 869 v 303 h -869 z"
   id="path517"
   inkscape:connector-curvature="0"
   style="fill:#9f9fbf;stroke:none" />
        <path
   d="m 11265,19327 h 869 v 303 h -869 z"
   id="path519"
   inkscape:connector-curvature="0"
   style="fill:none;stroke:#000000;stroke-width:35;stroke-linecap:round;stroke-linejoin:round" />
        <path
   d="m 11376,18816 h 661 v 259 h -661 z"
   id="path521"
   inkscape:connector-curvature="0"
   style="fill:#bfbfdf;stroke:none" />
        <path
   d="m 11376,19080 h 661 v 264 h -661 z"
   id="path523"
   inkscape:connector-curvature="0"
   style="fill:#bfbfdf;stroke:none" />
        <path
   d="m 11376,19349 h 661 v 277 h -661 z"
   id="path525"
   inkscape:connector-curvature="0"
   style="fill:#bfbfdf;stroke:none" />
        <path
   d="m 11429,18816 h 273 v 259 h -273 z"
   id="path527"
   inkscape:connector-curvature="0"
   style="fill:#dfdfff;stroke:none" />
        <path
   d="m 11429,19080 h 273 v 264 h -273 z"
   id="path529"
   inkscape:connector-curvature="0"
   style="fill:#dfdfff;stroke:none" />
        <path
   d="m 11429,19349 h 273 v 277 h -273 z"
   id="path531"
   inkscape:connector-curvature="0"
   style="fill:#dfdfff;stroke:none" />
        <path
   d="m 11270,18798 h 869 v 286 h -869 z"
   id="path533"
   inkscape:connector-curvature="0"
   style="fill:none;stroke:#000000;stroke-width:35;stroke-linecap:round;stroke-linejoin:round" />
        <path
   d="m 11270,19058 h 869 v 290 h -869 z"
   id="path535"
   inkscape:connector-curvature="0"
   style="fill:none;stroke:#000000;stroke-width:35;stroke-linecap:round;stroke-linejoin:round" />
        <path
   d="m 11270,19323 h 869 v 303 h -869 z"
   id="path537"
   inkscape:connector-curvature="0"
   style="fill:none;stroke:#000000;stroke-width:35;stroke-linecap:round;stroke-linejoin:round" />
        <path
   d="m 10992,18825 h -521 v -4990 l 521,-225 53,327 53,317 44,345 39,291 45,379 31,296 26,167 40,186 39,145 45,124 48,88 44,84 49,75 93,119 101,119 159,159 212,225 225,225 159,145 48,66 89,93 84,115 48,97 44,128 40,185 26,251 14,225 z"
   id="path539"
   inkscape:connector-curvature="0"
   style="fill:#ffffff;stroke:none" />
        <path
   d="m 10992,18825 h -521 v -4990 l 521,-225 53,327 53,317 44,345 39,291 45,379 31,296 26,167 40,186 39,145 45,124 48,88 44,84 49,75 93,119 101,119 159,159 212,225 225,225 159,145 48,66 89,93 84,115 48,97 44,128 40,185 26,251 14,225 z"
   id="path541"
   inkscape:connector-curvature="0"
   style="fill:none;stroke:#000000;stroke-width:35;stroke-linecap:round;stroke-linejoin:round" />
        <defs
   id="defs546">
         <clipPath
   id="clip_path_27"
   clipPathUnits="userSpaceOnUse">
          <path
   d="m 11031,17470 h 1826 v 1446 h -1826 z"
   id="path543"
   inkscape:connector-curvature="0" />
         </clipPath>
        </defs>
        <g
   clip-path="url(#clip_path_27)"
   id="g550">
         <path
   d="M 14616,18176 H 9239"
   id="path548"
   inkscape:connector-curvature="0"
   style="fill:none;stroke:#000000;stroke-width:35;stroke-linecap:round;stroke-linejoin:miter" />
        </g>
        <defs
   id="defs555">
         <clipPath
   id="clip_path_28"
   clipPathUnits="userSpaceOnUse">
          <path
   d="m 11045,17417 h 1826 v 1446 h -1826 z"
   id="path552"
   inkscape:connector-curvature="0" />
         </clipPath>
        </defs>
        <g
   clip-path="url(#clip_path_28)"
   id="g559">
         <path
   d="M 14629,18123 H 9253"
   id="path557"
   inkscape:connector-curvature="0"
   style="fill:none;stroke:#000000;stroke-width:35;stroke-linecap:round;stroke-linejoin:miter" />
        </g>
        <defs
   id="defs564">
         <clipPath
   id="clip_path_29"
   clipPathUnits="userSpaceOnUse">
          <path
   d="m 11045,17364 h 1826 v 1446 h -1826 z"
   id="path561"
   inkscape:connector-curvature="0" />
         </clipPath>
        </defs>
        <g
   clip-path="url(#clip_path_29)"
   id="g568">
         <path
   d="M 14629,18070 H 9253"
   id="path566"
   inkscape:connector-curvature="0"
   style="fill:none;stroke:#000000;stroke-width:35;stroke-linecap:round;stroke-linejoin:miter" />
        </g>
        <path
   d="m 12709,18061 -27,-119 -31,-101 -35,-80 -44,-79 -53,-75 -71,-79 -92,-106 -111,-106 -119,-110 -141,-142 -137,-145 -115,-119 -101,-106 -84,-93 -49,-66 -57,-66 -40,-62 -48,-84 -49,-92 -40,-102 -35,-114 -31,-120 -22,-127 -18,-133 -17,-128 -13,-119 4,-62"
   id="path570"
   inkscape:connector-curvature="0"
   style="fill:none;stroke:#000000;stroke-width:35;stroke-linecap:round;stroke-linejoin:round" />
        <path
   d="m 12868,18189 v 93 h -1845"
   id="path572"
   inkscape:connector-curvature="0"
   style="fill:none;stroke:#000000;stroke-width:35;stroke-linecap:round;stroke-linejoin:round" />
        <path
   d="m 12104,18679 v -490 h -62 v 503 z"
   id="path574"
   inkscape:connector-curvature="0"
   style="fill:#ffffff;stroke:none" />
        <path
   d="m 12104,18679 v -490 h -62 v 503 z"
   id="path576"
   inkscape:connector-curvature="0"
   style="fill:none;stroke:#000000;stroke-width:35;stroke-linecap:round;stroke-linejoin:round" />
        <defs
   id="defs581">
         <clipPath
   id="clip_path_30"
   clipPathUnits="userSpaceOnUse">
          <path
   d="m 11027,14612 h 211 v 1446 h -211 z"
   id="path578"
   inkscape:connector-curvature="0" />
         </clipPath>
        </defs>
        <g
   clip-path="url(#clip_path_30)"
   id="g585">
         <path
   d="m 11380,15318 h -530"
   id="path583"
   inkscape:connector-curvature="0"
   style="fill:none;stroke:#000000;stroke-width:35;stroke-linecap:round;stroke-linejoin:miter" />
        </g>
        <path
   d="m 11098,19213 -80,-375 h -247 l -79,375 z"
   id="path587"
   inkscape:connector-curvature="0"
   style="fill:#9f9fbf;stroke:none" />
        <path
   d="m 11098,19213 -80,-375 h -247 l -79,375 z"
   id="path589"
   inkscape:connector-curvature="0"
   style="fill:none;stroke:#000000;stroke-width:35;stroke-linecap:round;stroke-linejoin:round" />
        <path
   d="m 11105,19213 c 0,13 -10,25 -29,37 -19,11 -47,20 -80,27 -33,7 -71,10 -109,10 -38,0 -76,-3 -109,-10 -33,-7 -61,-16 -80,-27 -19,-12 -29,-24 -29,-37 0,-14 10,-26 29,-38 19,-11 47,-20 80,-27 33,-7 71,-10 109,-10 38,0 76,3 109,10 33,7 61,16 80,27 19,12 29,24 29,38 z"
   id="path591"
   inkscape:connector-curvature="0"
   style="fill:#7f7f9f;stroke:none" />
        <path
   d="m 11102,19208 v -4 l -1,-4 -1,-3 -2,-4 -3,-4 -3,-3 -3,-4 -5,-4 -4,-3 -5,-3 -6,-4 -6,-3 -6,-3 -7,-3 -7,-3 -8,-2 -8,-3 -9,-2 -9,-3 -9,-2 -9,-2 -10,-1 -10,-2 -10,-1 -10,-2 -11,-1 h -11 l -10,-1 -11,-1 h -11 -11 v 0 h -11 -11 l -11,1 -10,1 h -11 l -11,1 -10,2 -10,1 -10,2 -10,1 -9,2 -9,2 -9,3 -9,2 -8,3 -8,2 -7,3 -7,3 -6,3 -6,3 -6,4 -5,3 -4,3 -5,4 -3,4 -3,3 -3,4 -2,4 -1,3 -1,4 v 4 0 4 l 1,4 1,3 2,4 3,4 3,3 3,4 5,4 4,3 5,3 6,4 6,3 6,3 7,3 7,3 8,2 8,3 9,2 9,3 9,2 9,2 10,1 10,2 10,1 10,2 11,1 h 11 l 10,1 11,1 h 11 11 v 0 h 11 11 l 11,-1 10,-1 h 11 l 11,-1 10,-2 10,-1 10,-2 10,-1 9,-2 9,-2 9,-3 9,-2 8,-3 8,-2 7,-3 7,-3 6,-3 6,-3 6,-4 5,-3 4,-3 5,-4 3,-4 3,-3 3,-4 2,-4 1,-3 1,-4 z"
   id="path593"
   inkscape:connector-curvature="0"
   style="fill:none;stroke:#000000;stroke-width:35;stroke-linecap:round;stroke-linejoin:round" />
        <path
   d="m 10616,18789 h 295 v 334 h -295 z"
   id="path595"
   inkscape:connector-curvature="0"
   style="fill:#dfdfff;stroke:none" />
        <path
   d="m 10616,18789 h 295 v 334 h -295 z"
   id="path597"
   inkscape:connector-curvature="0"
   style="fill:none;stroke:#000000;stroke-width:35;stroke-linecap:round;stroke-linejoin:round" />
        <path
   d="m 10911,18908 c 0,8 -7,17 -20,24 -13,7 -31,13 -54,18 -22,4 -48,6 -73,6 -26,0 -52,-2 -74,-6 -23,-5 -41,-11 -54,-18 -13,-7 -20,-16 -20,-24 0,-8 7,-17 20,-24 13,-7 31,-13 54,-18 22,-4 48,-6 74,-6 25,0 51,2 73,6 23,5 41,11 54,18 13,7 20,16 20,24 z"
   id="path599"
   inkscape:connector-curvature="0"
   style="fill:#dfdfff;stroke:none" />
        <path
   d="m 10908,18904 v -2 l -1,-3 -1,-2 -1,-3 -2,-2 -2,-3 -2,-2 -3,-2 -3,-3 -3,-2 -4,-2 -4,-2 -5,-2 -4,-2 -5,-2 -5,-2 -6,-1 -6,-2 -6,-1 -6,-2 -6,-1 -7,-1 -6,-1 -7,-1 -7,-1 h -7 l -8,-1 h -7 l -7,-1 h -8 -7 v 0 h -7 -8 l -7,1 h -7 l -8,1 h -7 l -7,1 -7,1 -6,1 -7,1 -6,1 -6,2 -6,1 -6,2 -6,1 -5,2 -5,2 -4,2 -5,2 -4,2 -4,2 -3,2 -3,3 -3,2 -2,2 -2,3 -2,2 -1,3 -1,2 -1,3 v 2 0 2 l 1,3 1,2 1,3 2,2 2,3 2,2 3,2 3,3 3,2 4,2 4,2 5,2 4,2 5,2 5,2 6,1 6,2 6,1 6,2 6,1 7,1 6,1 7,1 7,1 h 7 l 8,1 h 7 l 7,1 h 8 7 v 0 h 7 8 l 7,-1 h 7 l 8,-1 h 7 l 7,-1 7,-1 6,-1 7,-1 6,-1 6,-2 6,-1 6,-2 6,-1 5,-2 5,-2 4,-2 5,-2 4,-2 4,-2 3,-2 3,-3 3,-2 2,-2 2,-3 2,-2 1,-3 1,-2 1,-3 z"
   id="path601"
   inkscape:connector-curvature="0"
   style="fill:none;stroke:#000000;stroke-width:35;stroke-linecap:round;stroke-linejoin:round" />
        <path
   d="m 10911,18965 c 0,8 -7,17 -20,24 -13,7 -31,13 -54,18 -22,4 -48,6 -73,6 -26,0 -52,-2 -74,-6 -23,-5 -41,-11 -54,-18 -13,-7 -20,-16 -20,-24 0,-8 7,-17 20,-24 13,-7 31,-13 54,-18 22,-4 48,-6 74,-6 25,0 51,2 73,6 23,5 41,11 54,18 13,7 20,16 20,24 z"
   id="path603"
   inkscape:connector-curvature="0"
   style="fill:#bfbfdf;stroke:none" />
        <path
   d="m 10908,18961 v -2 l -1,-3 -1,-2 -1,-3 -2,-2 -2,-3 -2,-2 -3,-2 -3,-3 -3,-2 -4,-2 -4,-2 -5,-2 -4,-2 -5,-2 -5,-2 -6,-1 -6,-2 -6,-1 -6,-2 -6,-1 -7,-1 -6,-1 -7,-1 -7,-1 h -7 l -8,-1 h -7 l -7,-1 h -8 -7 v 0 h -7 -8 l -7,1 h -7 l -8,1 h -7 l -7,1 -7,1 -6,1 -7,1 -6,1 -6,2 -6,1 -6,2 -6,1 -5,2 -5,2 -4,2 -5,2 -4,2 -4,2 -3,2 -3,3 -3,2 -2,2 -2,3 -2,2 -1,3 -1,2 -1,3 v 2 0 2 l 1,3 1,2 1,3 2,2 2,3 2,2 3,2 3,3 3,2 4,2 4,2 5,2 4,2 5,2 5,2 6,1 6,2 6,1 6,2 6,1 7,1 6,1 7,1 7,1 h 7 l 8,1 h 7 l 7,1 h 8 7 v 0 h 7 8 l 7,-1 h 7 l 8,-1 h 7 l 7,-1 7,-1 6,-1 7,-1 6,-1 6,-2 6,-1 6,-2 6,-1 5,-2 5,-2 4,-2 5,-2 4,-2 4,-2 3,-2 3,-3 3,-2 2,-2 2,-3 2,-2 1,-3 1,-2 1,-3 z"
   id="path605"
   inkscape:connector-curvature="0"
   style="fill:none;stroke:#000000;stroke-width:35;stroke-linecap:round;stroke-linejoin:round" />
        <path
   d="m 10911,19023 c 0,8 -7,17 -20,24 -13,7 -31,13 -54,18 -22,4 -48,6 -73,6 -26,0 -52,-2 -74,-6 -23,-5 -41,-11 -54,-18 -13,-7 -20,-16 -20,-24 0,-8 7,-17 20,-24 13,-7 31,-13 54,-18 22,-4 48,-6 74,-6 25,0 51,2 73,6 23,5 41,11 54,18 13,7 20,16 20,24 z"
   id="path607"
   inkscape:connector-curvature="0"
   style="fill:#dfdfff;stroke:none" />
        <path
   d="m 10908,19019 v -2 l -1,-3 -1,-2 -1,-3 -2,-2 -2,-3 -2,-2 -3,-2 -3,-3 -3,-2 -4,-2 -4,-2 -5,-2 -4,-2 -5,-2 -5,-2 -6,-1 -6,-2 -6,-1 -6,-2 -6,-1 -7,-1 -6,-1 -7,-1 -7,-1 h -7 l -8,-1 h -7 l -7,-1 h -8 -7 v 0 h -7 -8 l -7,1 h -7 l -8,1 h -7 l -7,1 -7,1 -6,1 -7,1 -6,1 -6,2 -6,1 -6,2 -6,1 -5,2 -5,2 -4,2 -5,2 -4,2 -4,2 -3,2 -3,3 -3,2 -2,2 -2,3 -2,2 -1,3 -1,2 -1,3 v 2 0 2 l 1,3 1,2 1,3 2,2 2,3 2,2 3,2 3,3 3,2 4,2 4,2 5,2 4,2 5,2 5,2 6,1 6,2 6,1 6,2 6,1 7,1 6,1 7,1 7,1 h 7 l 8,1 h 7 l 7,1 h 8 7 v 0 h 7 8 l 7,-1 h 7 l 8,-1 h 7 l 7,-1 7,-1 6,-1 7,-1 6,-1 6,-2 6,-1 6,-2 6,-1 5,-2 5,-2 4,-2 5,-2 4,-2 4,-2 3,-2 3,-3 3,-2 2,-2 2,-3 2,-2 1,-3 1,-2 1,-3 z"
   id="path609"
   inkscape:connector-curvature="0"
   style="fill:none;stroke:#000000;stroke-width:35;stroke-linecap:round;stroke-linejoin:round" />
        <path
   d="m 10911,19075 c 0,8 -7,17 -20,24 -13,7 -31,13 -54,18 -22,4 -48,6 -73,6 -26,0 -52,-2 -74,-6 -23,-5 -41,-11 -54,-18 -13,-7 -20,-16 -20,-24 0,-8 7,-17 20,-24 13,-7 31,-13 54,-18 22,-4 48,-6 74,-6 25,0 51,2 73,6 23,5 41,11 54,18 13,7 20,16 20,24 z"
   id="path611"
   inkscape:connector-curvature="0"
   style="fill:#bfbfdf;stroke:none" />
        <path
   d="m 10908,19072 v -2 l -1,-3 -1,-2 -1,-3 -2,-2 -2,-3 -2,-2 -3,-2 -3,-3 -3,-2 -4,-2 -4,-2 -5,-2 -4,-2 -5,-2 -5,-2 -6,-1 -6,-2 -6,-1 -6,-2 -6,-1 -7,-1 -6,-1 -7,-1 -7,-1 h -7 l -8,-1 h -7 l -7,-1 h -8 -7 v 0 h -7 -8 l -7,1 h -7 l -8,1 h -7 l -7,1 -7,1 -6,1 -7,1 -6,1 -6,2 -6,1 -6,2 -6,1 -5,2 -5,2 -4,2 -5,2 -4,2 -4,2 -3,2 -3,3 -3,2 -2,2 -2,3 -2,2 -1,3 -1,2 -1,3 v 2 0 2 l 1,3 1,2 1,3 2,2 2,3 2,2 3,2 3,3 3,2 4,2 4,2 5,2 4,2 5,2 5,2 6,1 6,2 6,1 6,2 6,1 7,1 6,1 7,1 7,1 h 7 l 8,1 h 7 l 7,1 h 8 7 v 0 h 7 8 l 7,-1 h 7 l 8,-1 h 7 l 7,-1 7,-1 6,-1 7,-1 6,-1 6,-2 6,-1 6,-2 6,-1 5,-2 5,-2 4,-2 5,-2 4,-2 4,-2 3,-2 3,-3 3,-2 2,-2 2,-3 2,-2 1,-3 1,-2 1,-3 z"
   id="path613"
   inkscape:connector-curvature="0"
   style="fill:none;stroke:#000000;stroke-width:35;stroke-linecap:round;stroke-linejoin:round" />
        <path
   d="m 10911,19137 c 0,8 -7,17 -20,24 -13,7 -31,13 -54,18 -22,4 -48,6 -73,6 -26,0 -52,-2 -74,-6 -23,-5 -41,-11 -54,-18 -13,-7 -20,-16 -20,-24 0,-8 7,-17 20,-24 13,-7 31,-13 54,-18 22,-4 48,-6 74,-6 25,0 51,2 73,6 23,5 41,11 54,18 13,7 20,16 20,24 z"
   id="path615"
   inkscape:connector-curvature="0"
   style="fill:#5f5f7f;stroke:none" />
        <path
   d="m 10908,19133 v -2 l -1,-3 -1,-2 -1,-3 -2,-2 -2,-3 -2,-2 -3,-2 -3,-3 -3,-2 -4,-2 -4,-2 -5,-2 -4,-2 -5,-2 -5,-2 -6,-1 -6,-2 -6,-1 -6,-2 -6,-1 -7,-1 -6,-1 -7,-1 -7,-1 h -7 l -8,-1 h -7 l -7,-1 h -8 -7 v 0 h -7 -8 l -7,1 h -7 l -8,1 h -7 l -7,1 -7,1 -6,1 -7,1 -6,1 -6,2 -6,1 -6,2 -6,1 -5,2 -5,2 -4,2 -5,2 -4,2 -4,2 -3,2 -3,3 -3,2 -2,2 -2,3 -2,2 -1,3 -1,2 -1,3 v 2 0 2 l 1,3 1,2 1,3 2,2 2,3 2,2 3,2 3,3 3,2 4,2 4,2 5,2 4,2 5,2 5,2 6,1 6,2 6,1 6,2 6,1 7,1 6,1 7,1 7,1 h 7 l 8,1 h 7 l 7,1 h 8 7 v 0 h 7 8 l 7,-1 h 7 l 8,-1 h 7 l 7,-1 7,-1 6,-1 7,-1 6,-1 6,-2 6,-1 6,-2 6,-1 5,-2 5,-2 4,-2 5,-2 4,-2 4,-2 3,-2 3,-3 3,-2 2,-2 2,-3 2,-2 1,-3 1,-2 1,-3 z"
   id="path617"
   inkscape:connector-curvature="0"
   style="fill:none;stroke:#000000;stroke-width:35;stroke-linecap:round;stroke-linejoin:round" />
        <path
   d="m 10948,18789 h 299 v 334 h -299 z"
   id="path619"
   inkscape:connector-curvature="0"
   style="fill:#dfdfff;stroke:none" />
        <path
   d="m 10948,18789 h 299 v 334 h -299 z"
   id="path621"
   inkscape:connector-curvature="0"
   style="fill:none;stroke:#000000;stroke-width:35;stroke-linecap:round;stroke-linejoin:round" />
        <path
   d="m 11247,18908 c 0,8 -7,17 -20,24 -13,7 -32,13 -55,18 -22,4 -48,6 -74,6 -27,0 -53,-2 -75,-6 -23,-5 -42,-11 -55,-18 -13,-7 -20,-16 -20,-24 0,-8 7,-17 20,-24 13,-7 32,-13 55,-18 22,-4 48,-6 75,-6 26,0 52,2 74,6 23,5 42,11 55,18 13,7 20,16 20,24 z"
   id="path623"
   inkscape:connector-curvature="0"
   style="fill:#dfdfff;stroke:none" />
        <path
   d="m 11243,18904 v -2 l -1,-3 -1,-2 -1,-3 -2,-2 -2,-3 -2,-2 -3,-2 -3,-3 -4,-2 -4,-2 -4,-2 -4,-2 -5,-2 -5,-2 -6,-2 -5,-1 -6,-2 -6,-1 -7,-2 -6,-1 -7,-1 -7,-1 -7,-1 -7,-1 h -7 l -8,-1 h -7 l -8,-1 h -7 -8 v 0 h -8 -7 l -8,1 h -7 l -8,1 h -7 l -7,1 -7,1 -7,1 -7,1 -6,1 -7,2 -6,1 -6,2 -5,1 -6,2 -5,2 -5,2 -4,2 -4,2 -4,2 -4,2 -3,3 -3,2 -2,2 -2,3 -2,2 -1,3 -1,2 -1,3 v 2 0 2 l 1,3 1,2 1,3 2,2 2,3 2,2 3,2 3,3 4,2 4,2 4,2 4,2 5,2 5,2 6,2 5,1 6,2 6,1 7,2 6,1 7,1 7,1 7,1 7,1 h 7 l 8,1 h 7 l 8,1 h 7 8 v 0 h 8 7 l 8,-1 h 7 l 8,-1 h 7 l 7,-1 7,-1 7,-1 7,-1 6,-1 7,-2 6,-1 6,-2 5,-1 6,-2 5,-2 5,-2 4,-2 4,-2 4,-2 4,-2 3,-3 3,-2 2,-2 2,-3 2,-2 1,-3 1,-2 1,-3 z"
   id="path625"
   inkscape:connector-curvature="0"
   style="fill:none;stroke:#000000;stroke-width:35;stroke-linecap:round;stroke-linejoin:round" />
        <path
   d="m 11247,18965 c 0,8 -7,17 -20,24 -13,7 -32,13 -55,18 -22,4 -48,6 -74,6 -27,0 -53,-2 -75,-6 -23,-5 -42,-11 -55,-18 -13,-7 -20,-16 -20,-24 0,-8 7,-17 20,-24 13,-7 32,-13 55,-18 22,-4 48,-6 75,-6 26,0 52,2 74,6 23,5 42,11 55,18 13,7 20,16 20,24 z"
   id="path627"
   inkscape:connector-curvature="0"
   style="fill:#bfbfdf;stroke:none" />
        <path
   d="m 11243,18961 v -2 l -1,-3 -1,-2 -1,-3 -2,-2 -2,-3 -2,-2 -3,-2 -3,-3 -4,-2 -4,-2 -4,-2 -4,-2 -5,-2 -5,-2 -6,-2 -5,-1 -6,-2 -6,-1 -7,-2 -6,-1 -7,-1 -7,-1 -7,-1 -7,-1 h -7 l -8,-1 h -7 l -8,-1 h -7 -8 v 0 h -8 -7 l -8,1 h -7 l -8,1 h -7 l -7,1 -7,1 -7,1 -7,1 -6,1 -7,2 -6,1 -6,2 -5,1 -6,2 -5,2 -5,2 -4,2 -4,2 -4,2 -4,2 -3,3 -3,2 -2,2 -2,3 -2,2 -1,3 -1,2 -1,3 v 2 0 2 l 1,3 1,2 1,3 2,2 2,3 2,2 3,2 3,3 4,2 4,2 4,2 4,2 5,2 5,2 6,2 5,1 6,2 6,1 7,2 6,1 7,1 7,1 7,1 7,1 h 7 l 8,1 h 7 l 8,1 h 7 8 v 0 h 8 7 l 8,-1 h 7 l 8,-1 h 7 l 7,-1 7,-1 7,-1 7,-1 6,-1 7,-2 6,-1 6,-2 5,-1 6,-2 5,-2 5,-2 4,-2 4,-2 4,-2 4,-2 3,-3 3,-2 2,-2 2,-3 2,-2 1,-3 1,-2 1,-3 z"
   id="path629"
   inkscape:connector-curvature="0"
   style="fill:none;stroke:#000000;stroke-width:35;stroke-linecap:round;stroke-linejoin:round" />
        <path
   d="m 11247,19023 c 0,8 -7,17 -20,24 -13,7 -32,13 -55,18 -22,4 -48,6 -74,6 -27,0 -53,-2 -75,-6 -23,-5 -42,-11 -55,-18 -13,-7 -20,-16 -20,-24 0,-8 7,-17 20,-24 13,-7 32,-13 55,-18 22,-4 48,-6 75,-6 26,0 52,2 74,6 23,5 42,11 55,18 13,7 20,16 20,24 z"
   id="path631"
   inkscape:connector-curvature="0"
   style="fill:#dfdfff;stroke:none" />
        <path
   d="m 11243,19019 v -2 l -1,-3 -1,-2 -1,-3 -2,-2 -2,-3 -2,-2 -3,-2 -3,-3 -4,-2 -4,-2 -4,-2 -4,-2 -5,-2 -5,-2 -6,-2 -5,-1 -6,-2 -6,-1 -7,-2 -6,-1 -7,-1 -7,-1 -7,-1 -7,-1 h -7 l -8,-1 h -7 l -8,-1 h -7 -8 v 0 h -8 -7 l -8,1 h -7 l -8,1 h -7 l -7,1 -7,1 -7,1 -7,1 -6,1 -7,2 -6,1 -6,2 -5,1 -6,2 -5,2 -5,2 -4,2 -4,2 -4,2 -4,2 -3,3 -3,2 -2,2 -2,3 -2,2 -1,3 -1,2 -1,3 v 2 0 2 l 1,3 1,2 1,3 2,2 2,3 2,2 3,2 3,3 4,2 4,2 4,2 4,2 5,2 5,2 6,2 5,1 6,2 6,1 7,2 6,1 7,1 7,1 7,1 7,1 h 7 l 8,1 h 7 l 8,1 h 7 8 v 0 h 8 7 l 8,-1 h 7 l 8,-1 h 7 l 7,-1 7,-1 7,-1 7,-1 6,-1 7,-2 6,-1 6,-2 5,-1 6,-2 5,-2 5,-2 4,-2 4,-2 4,-2 4,-2 3,-3 3,-2 2,-2 2,-3 2,-2 1,-3 1,-2 1,-3 z"
   id="path633"
   inkscape:connector-curvature="0"
   style="fill:none;stroke:#000000;stroke-width:35;stroke-linecap:round;stroke-linejoin:round" />
        <path
   d="m 11247,19075 c 0,8 -7,17 -20,24 -13,7 -32,13 -55,18 -22,4 -48,6 -74,6 -27,0 -53,-2 -75,-6 -23,-5 -42,-11 -55,-18 -13,-7 -20,-16 -20,-24 0,-8 7,-17 20,-24 13,-7 32,-13 55,-18 22,-4 48,-6 75,-6 26,0 52,2 74,6 23,5 42,11 55,18 13,7 20,16 20,24 z"
   id="path635"
   inkscape:connector-curvature="0"
   style="fill:#bfbfdf;stroke:none" />
        <path
   d="m 11243,19072 v -2 l -1,-3 -1,-2 -1,-3 -2,-2 -2,-3 -2,-2 -3,-2 -3,-3 -4,-2 -4,-2 -4,-2 -4,-2 -5,-2 -5,-2 -6,-2 -5,-1 -6,-2 -6,-1 -7,-2 -6,-1 -7,-1 -7,-1 -7,-1 -7,-1 h -7 l -8,-1 h -7 l -8,-1 h -7 -8 v 0 h -8 -7 l -8,1 h -7 l -8,1 h -7 l -7,1 -7,1 -7,1 -7,1 -6,1 -7,2 -6,1 -6,2 -5,1 -6,2 -5,2 -5,2 -4,2 -4,2 -4,2 -4,2 -3,3 -3,2 -2,2 -2,3 -2,2 -1,3 -1,2 -1,3 v 2 0 2 l 1,3 1,2 1,3 2,2 2,3 2,2 3,2 3,3 4,2 4,2 4,2 4,2 5,2 5,2 6,2 5,1 6,2 6,1 7,2 6,1 7,1 7,1 7,1 7,1 h 7 l 8,1 h 7 l 8,1 h 7 8 v 0 h 8 7 l 8,-1 h 7 l 8,-1 h 7 l 7,-1 7,-1 7,-1 7,-1 6,-1 7,-2 6,-1 6,-2 5,-1 6,-2 5,-2 5,-2 4,-2 4,-2 4,-2 4,-2 3,-3 3,-2 2,-2 2,-3 2,-2 1,-3 1,-2 1,-3 z"
   id="path637"
   inkscape:connector-curvature="0"
   style="fill:none;stroke:#000000;stroke-width:35;stroke-linecap:round;stroke-linejoin:round" />
        <path
   d="m 11247,19137 c 0,8 -7,17 -20,24 -13,7 -32,13 -55,18 -22,4 -48,6 -74,6 -27,0 -53,-2 -75,-6 -23,-5 -42,-11 -55,-18 -13,-7 -20,-16 -20,-24 0,-8 7,-17 20,-24 13,-7 32,-13 55,-18 22,-4 48,-6 75,-6 26,0 52,2 74,6 23,5 42,11 55,18 13,7 20,16 20,24 z"
   id="path639"
   inkscape:connector-curvature="0"
   style="fill:#5f5f7f;stroke:none" />
        <path
   d="m 11243,19133 v -2 l -1,-3 -1,-2 -1,-3 -2,-2 -2,-3 -2,-2 -3,-2 -3,-3 -4,-2 -4,-2 -4,-2 -4,-2 -5,-2 -5,-2 -6,-2 -5,-1 -6,-2 -6,-1 -7,-2 -6,-1 -7,-1 -7,-1 -7,-1 -7,-1 h -7 l -8,-1 h -7 l -8,-1 h -7 -8 v 0 h -8 -7 l -8,1 h -7 l -8,1 h -7 l -7,1 -7,1 -7,1 -7,1 -6,1 -7,2 -6,1 -6,2 -5,1 -6,2 -5,2 -5,2 -4,2 -4,2 -4,2 -4,2 -3,3 -3,2 -2,2 -2,3 -2,2 -1,3 -1,2 -1,3 v 2 0 2 l 1,3 1,2 1,3 2,2 2,3 2,2 3,2 3,3 4,2 4,2 4,2 4,2 5,2 5,2 6,2 5,1 6,2 6,1 7,2 6,1 7,1 7,1 7,1 7,1 h 7 l 8,1 h 7 l 8,1 h 7 8 v 0 h 8 7 l 8,-1 h 7 l 8,-1 h 7 l 7,-1 7,-1 7,-1 7,-1 6,-1 7,-2 6,-1 6,-2 5,-1 6,-2 5,-2 5,-2 4,-2 4,-2 4,-2 4,-2 3,-3 3,-2 2,-2 2,-3 2,-2 1,-3 1,-2 1,-3 z"
   id="path641"
   inkscape:connector-curvature="0"
   style="fill:none;stroke:#000000;stroke-width:35;stroke-linecap:round;stroke-linejoin:round" />
        <path
   d="m 11283,18847 h -680 v -80 -92 l 5,-71 4,-71 9,-75 13,-88 18,-75 17,-70 23,-67 17,-57 31,-66 27,-44 26,-31 31,-31 26,-22 27,-18 18,-8 30,-5 31,5 36,8 44,27 44,40 35,44 31,48 31,62 22,53 18,53 22,79 18,75 13,75 9,62 4,75 4,97 z"
   id="path643"
   inkscape:connector-curvature="0"
   style="fill:#dfdfff;stroke:none" />
        <path
   d="m 11283,18847 h -680 v -80 -92 l 5,-71 4,-71 9,-75 13,-88 18,-75 17,-70 23,-67 17,-57 31,-66 27,-44 26,-31 31,-31 26,-22 27,-18 18,-8 30,-5 31,5 36,8 44,27 44,40 35,44 31,48 31,62 22,53 18,53 22,79 18,75 13,75 9,62 4,75 4,97 z"
   id="path645"
   inkscape:connector-curvature="0"
   style="fill:none;stroke:#000000;stroke-width:35;stroke-linecap:round;stroke-linejoin:round" />
        <path
   d="m 11058,18838 h -327 v -80 -92 -66 l 5,-71 4,-75 4,-88 9,-75 9,-71 13,-66 9,-53 13,-66 14,-44 9,-31 17,-31 13,-22 14,-18 8,-8 14,-5 13,5 18,8 22,27 22,40 17,44 14,48 13,62 13,48 9,53 9,80 9,75 8,75 5,62 v 75 92 z"
   id="path647"
   inkscape:connector-curvature="0"
   style="fill:#ffffff;stroke:none" />
        <path
   d="m 11279,18847 h -680 v -80 -92 l 4,-71 5,-71 8,-75 14,-88 17,-75 18,-70 22,-67 18,-57 31,-66 26,-44 27,-31 31,-31 26,-22 31,-18 13,-8 31,-5 31,5 35,8 44,27 45,40 35,44 31,48 31,62 22,53 17,53 22,79 18,75 13,75 9,62 5,75 4,97 z"
   id="path649"
   inkscape:connector-curvature="0"
   style="fill:none;stroke:#000000;stroke-width:35;stroke-linecap:round;stroke-linejoin:round" />
        <path
   d="m 10581,18723 c 0,148 -5,294 -15,423 -10,128 -25,235 -42,310 -18,74 -37,113 -57,113 -21,0 -40,-39 -58,-113 -17,-75 -32,-182 -42,-310 -10,-129 -15,-275 -15,-423 0,-149 5,-295 15,-424 10,-128 25,-235 42,-310 18,-74 37,-113 58,-113 20,0 39,39 57,113 17,75 32,182 42,310 10,129 15,275 15,423 z"
   id="path651"
   inkscape:connector-curvature="0"
   style="fill:#ffffff;stroke:none" />
        <path
   d="m 10577,18719 v -43 l -1,-43 v -42 l -1,-42 -2,-42 -1,-42 -2,-40 -2,-40 -3,-39 -2,-38 -3,-37 -4,-36 -3,-34 -4,-34 -4,-32 -4,-30 -4,-29 -5,-27 -4,-25 -5,-24 -5,-22 -5,-19 -6,-18 -5,-16 -6,-14 -5,-12 -6,-10 -6,-7 -5,-6 -6,-3 -6,-1 v 0 l -6,1 -6,3 -5,6 -6,7 -6,10 -5,12 -6,14 -5,16 -6,18 -5,19 -5,22 -5,24 -4,25 -5,27 -4,29 -4,30 -4,32 -4,34 -3,34 -4,36 -3,37 -2,38 -3,39 -2,40 -2,40 -1,42 -2,42 -1,42 v 42 l -1,43 v 43 0 43 l 1,43 v 42 l 1,42 2,42 1,42 2,40 2,40 3,39 2,38 3,37 4,36 3,34 4,34 4,32 4,30 4,29 5,27 4,25 5,24 5,22 5,19 6,18 5,16 6,14 5,12 6,10 6,7 5,6 6,3 6,1 v 0 l 6,-1 6,-3 5,-6 6,-7 6,-10 5,-12 6,-14 5,-16 6,-18 5,-19 5,-22 5,-24 4,-25 5,-27 4,-29 4,-30 4,-32 4,-34 3,-34 4,-36 3,-37 2,-38 3,-39 2,-40 2,-40 1,-42 2,-42 1,-42 v -42 l 1,-43 z"
   id="path653"
   inkscape:connector-curvature="0"
   style="fill:none;stroke:#000000;stroke-width:35;stroke-linecap:round;stroke-linejoin:round" />
        <path
   d="M 11023,17845 V 14179 H 9919 v 3666 z"
   id="path655"
   inkscape:connector-curvature="0"
   style="fill:#ffffff;stroke:none" />
        <path
   d="M 11023,17845 V 14179 H 9919 v 3666 z"
   id="path657"
   inkscape:connector-curvature="0"
   style="fill:none;stroke:#000000;stroke-width:35;stroke-linecap:round;stroke-linejoin:round" />
        <defs
   id="defs662">
         <clipPath
   id="clip_path_31"
   clipPathUnits="userSpaceOnUse">
          <path
   d="m 9765,14188 h 1447 v 3691 H 9765 Z"
   id="path659"
   inkscape:connector-curvature="0" />
         </clipPath>
        </defs>
        <g
   clip-path="url(#clip_path_31)"
   id="g666">
         <path
   d="M 10471,21502 V 10531"
   id="path664"
   inkscape:connector-curvature="0"
   style="fill:none;stroke:#000000;stroke-width:35;stroke-linecap:round;stroke-linejoin:miter" />
        </g>
        <defs
   id="defs671">
         <clipPath
   id="clip_path_32"
   clipPathUnits="userSpaceOnUse">
          <path
   d="m 9932,16284 h 1111 v 1446 H 9932 Z"
   id="path668"
   inkscape:connector-curvature="0" />
         </clipPath>
        </defs>
        <g
   clip-path="url(#clip_path_32)"
   id="g675">
         <path
   d="M 12086,16989 H 8855"
   id="path673"
   inkscape:connector-curvature="0"
   style="fill:none;stroke:#000000;stroke-width:35;stroke-linecap:round;stroke-linejoin:miter" />
        </g>
        <defs
   id="defs680">
         <clipPath
   id="clip_path_33"
   clipPathUnits="userSpaceOnUse">
          <path
   d="m 9946,15348 h 1111 v 1446 H 9946 Z"
   id="path677"
   inkscape:connector-curvature="0" />
         </clipPath>
        </defs>
        <g
   clip-path="url(#clip_path_33)"
   id="g684">
         <path
   d="M 12100,16054 H 8869"
   id="path682"
   inkscape:connector-curvature="0"
   style="fill:none;stroke:#000000;stroke-width:35;stroke-linecap:round;stroke-linejoin:miter" />
        </g>
        <defs
   id="defs689">
         <clipPath
   id="clip_path_34"
   clipPathUnits="userSpaceOnUse">
          <path
   d="m 9919,14444 h 1111 v 1446 H 9919 Z"
   id="path686"
   inkscape:connector-curvature="0" />
         </clipPath>
        </defs>
        <g
   clip-path="url(#clip_path_34)"
   id="g693">
         <path
   d="M 12073,15150 H 8842"
   id="path691"
   inkscape:connector-curvature="0"
   style="fill:none;stroke:#000000;stroke-width:35;stroke-linecap:round;stroke-linejoin:miter" />
        </g>
        <defs
   id="defs698">
         <clipPath
   id="clip_path_35"
   clipPathUnits="userSpaceOnUse">
          <path
   d="m 9919,17029 h 1111 v 1446 H 9919 Z"
   id="path695"
   inkscape:connector-curvature="0" />
         </clipPath>
        </defs>
        <g
   clip-path="url(#clip_path_35)"
   id="g702">
         <path
   d="M 12073,17735 H 8842"
   id="path700"
   inkscape:connector-curvature="0"
   style="fill:none;stroke:#000000;stroke-width:35;stroke-linecap:round;stroke-linejoin:miter" />
        </g>
        <path
   d="m 11023,14188 v -211 l -31,-309 -31,-230 -36,-216 -44,-172 -44,-154 -57,-137 -53,-88 -66,-93 -62,-62 -40,-22 -31,-13 -62,-9 -57,18 -62,31 -57,48 -71,97 -35,62 -66,150 -53,163 -44,199 -45,212 -30,251 -27,282 v 203 z"
   id="path704"
   inkscape:connector-curvature="0"
   style="fill:#ffffff;stroke:none" />
        <path
   d="m 11023,14188 v -211 l -31,-309 -31,-230 -36,-216 -44,-172 -44,-154 -57,-137 -53,-88 -66,-93 -62,-62 -40,-22 -31,-13 -62,-9 -57,18 -62,31 -57,48 -71,97 -35,62 -66,150 -53,163 -44,199 -45,212 -30,251 -27,282 v 203 z"
   id="path706"
   inkscape:connector-curvature="0"
   style="fill:none;stroke:#000000;stroke-width:35;stroke-linecap:round;stroke-linejoin:round" />
        <path
   d="m 10758,12724 -93,-31 -93,-27 -106,-13 -75,9 -53,13 -53,18 -92,31 -62,128 97,-49 119,-44 80,-13 h 57 66 l 66,13 84,27 49,17 57,40 z"
   id="path708"
   inkscape:connector-curvature="0"
   style="fill:#ffffff;stroke:none" />
        <path
   d="m 10758,12724 -93,-31 -93,-27 -106,-13 -75,9 -53,13 -53,18 -92,31 -62,128 97,-49 119,-44 80,-13 h 57 66 l 66,13 84,27 49,17 57,40 z"
   id="path710"
   inkscape:connector-curvature="0"
   style="fill:none;stroke:#000000;stroke-width:35;stroke-linecap:round;stroke-linejoin:round" />
        <path
   d="m 10599,13474 -102,-22 v 150 l 106,22 z"
   id="path712"
   inkscape:connector-curvature="0"
   style="fill:#0000ff;stroke:none" />
        <path
   d="m 10652,13650 v -145 l 132,119 -70,79 z"
   id="path714"
   inkscape:connector-curvature="0"
   style="fill:#0000ff;stroke:none" />
        <path
   d="m 10811,13668 -71,62 27,83 110,-17 -27,-49 z"
   id="path716"
   inkscape:connector-curvature="0"
   style="fill:#0000ff;stroke:none" />
        <path
   d="m 10334,13469 101,-26 v 154 l -105,22 z"
   id="path718"
   inkscape:connector-curvature="0"
   style="fill:#0000ff;stroke:none" />
        <path
   d="m 10281,13646 v -146 l -132,119 70,80 z"
   id="path720"
   inkscape:connector-curvature="0"
   style="fill:#0000ff;stroke:none" />
        <path
   d="m 10122,13659 71,66 -27,80 -110,-14 26,-48 z"
   id="path722"
   inkscape:connector-curvature="0"
   style="fill:#0000ff;stroke:none" />
        <path
   d="m 10934,13306 -79,-71 -88,-48 -84,-35 -115,-31 h -80 l -110,9 -106,22 -84,31 -79,44 -80,61"
   id="path724"
   inkscape:connector-curvature="0"
   style="fill:none;stroke:#000000;stroke-width:35;stroke-linecap:round;stroke-linejoin:round" />
        <path
   d="m 10594,14118 v -88 h -92 v 88 z"
   id="path726"
   inkscape:connector-curvature="0"
   style="fill:#ffffff;stroke:none" />
        <path
   d="m 10594,14118 v -88 h -92 v 88 z"
   id="path728"
   inkscape:connector-curvature="0"
   style="fill:none;stroke:#000000;stroke-width:35;stroke-linecap:round;stroke-linejoin:round" />
        <path
   d="m 10435,14118 v -88 h -92 v 88 z"
   id="path730"
   inkscape:connector-curvature="0"
   style="fill:#ffffff;stroke:none" />
        <path
   d="m 10435,14118 v -88 h -92 v 88 z"
   id="path732"
   inkscape:connector-curvature="0"
   style="fill:none;stroke:#000000;stroke-width:35;stroke-linecap:round;stroke-linejoin:round" />
        <path
   d="m 10669,13019 -8,-106 -58,-22 -66,-17 h -62 l -84,4 -75,22 -4,119 66,-26 66,-13 67,-9 57,13 62,22 z"
   id="path734"
   inkscape:connector-curvature="0"
   style="fill:#dfdfff;stroke:none" />
        <path
   d="m 10669,13019 -8,-106 -58,-22 -66,-17 h -62 l -84,4 -75,22 -4,119 66,-26 66,-13 67,-9 57,13 62,22 z"
   id="path736"
   inkscape:connector-curvature="0"
   style="fill:none;stroke:#000000;stroke-width:35;stroke-linecap:round;stroke-linejoin:round" />
        <path
   d="m 11023,14188 v -97 l -31,-141 -31,-101 -36,-102 -44,-79 -44,-71 -57,-62 -53,-44 -66,-39 -62,-31 -40,-9 -31,-9 h -62 l -57,5 -62,17 -57,22 -71,44 -35,27 -66,70 -53,75 -44,93 -45,97 -30,110 -27,133 v 92 z"
   id="path738"
   inkscape:connector-curvature="0"
   style="fill:none;stroke:#000000;stroke-width:35;stroke-linecap:round;stroke-linejoin:round" />
       </g>
      </g>
     </g>
    </g>
   </g>
  </g>
 </g>
</svg>