<?xml version="1.0" encoding="UTF-8" standalone="no"?>
<svg
   xmlns:ooo="http://xml.openoffice.org/svg/export"
   xmlns:dc="http://purl.org/dc/elements/1.1/"
   xmlns:cc="http://creativecommons.org/ns#"
   xmlns:rdf="http://www.w3.org/1999/02/22-rdf-syntax-ns#"
   xmlns:svg="http://www.w3.org/2000/svg"
   xmlns="http://www.w3.org/2000/svg"
   xmlns:sodipodi="http://sodipodi.sourceforge.net/DTD/sodipodi-0.dtd"
   xmlns:inkscape="http://www.inkscape.org/namespaces/inkscape"
   version="1.2"
   width="71.529999mm"
   height="145.12mm"
   viewBox="0 0 7152.9999 14512"
   preserveAspectRatio="xMidYMid"
   xml:space="preserve"
   id="svg222"
   sodipodi:docname="speaker2.svg"
   style="fill-rule:evenodd;stroke-width:28.22200012;stroke-linejoin:round"
   inkscape:version="0.92.5 (2060ec1f9f, 2020-04-08)"><metadata
   id="metadata226"><rdf:RDF><cc:Work
       rdf:about=""><dc:format>image/svg+xml</dc:format><dc:type
         rdf:resource="http://purl.org/dc/dcmitype/StillImage" /></cc:Work></rdf:RDF></metadata><sodipodi:namedview
   pagecolor="#ffffff"
   bordercolor="#666666"
   borderopacity="1"
   objecttolerance="10"
   gridtolerance="10"
   guidetolerance="10"
   inkscape:pageopacity="0"
   inkscape:pageshadow="2"
   inkscape:window-width="664"
   inkscape:window-height="487"
   id="namedview224"
   showgrid="false"
   inkscape:zoom="0.2102413"
   inkscape:cx="135.1937"
   inkscape:cy="274.24252"
   inkscape:window-x="0"
   inkscape:window-y="0"
   inkscape:window-maximized="0"
   inkscape:current-layer="svg222" />
 <defs
   class="ClipPathGroup"
   id="defs8">
  <clipPath
   id="presentation_clip_path"
   clipPathUnits="userSpaceOnUse">
   <rect
   x="0"
   y="0"
   width="21000"
   height="29700"
   id="rect2" />
  </clipPath>
  <clipPath
   id="presentation_clip_path_shrink"
   clipPathUnits="userSpaceOnUse">
   <rect
   x="21"
   y="29"
   width="20958"
   height="29641"
   id="rect5" />
  </clipPath>
 </defs>
 <defs
   class="TextShapeIndex"
   id="defs12">
  <g
   ooo:slide="id1"
   ooo:id-list="id3"
   id="g10" />
 </defs>
 <defs
   class="EmbeddedBulletChars"
   id="defs44">
  <g
   id="bullet-char-template-57356"
   transform="matrix(4.8828125e-4,0,0,-4.8828125e-4,0,0)">
   <path
   d="M 580,1141 1163,571 580,0 -4,571 Z"
   id="path14"
   inkscape:connector-curvature="0" />
  </g>
  <g
   id="bullet-char-template-57354"
   transform="matrix(4.8828125e-4,0,0,-4.8828125e-4,0,0)">
   <path
   d="M 8,1128 H 1137 V 0 H 8 Z"
   id="path17"
   inkscape:connector-curvature="0" />
  </g>
  <g
   id="bullet-char-template-10146"
   transform="matrix(4.8828125e-4,0,0,-4.8828125e-4,0,0)">
   <path
   d="M 174,0 602,739 174,1481 1456,739 Z M 1358,739 309,1346 659,739 Z"
   id="path20"
   inkscape:connector-curvature="0" />
  </g>
  <g
   id="bullet-char-template-10132"
   transform="matrix(4.8828125e-4,0,0,-4.8828125e-4,0,0)">
   <path
   d="M 2015,739 1276,0 H 717 l 543,543 H 174 v 393 h 1086 l -543,545 h 557 z"
   id="path23"
   inkscape:connector-curvature="0" />
  </g>
  <g
   id="bullet-char-template-10007"
   transform="matrix(4.8828125e-4,0,0,-4.8828125e-4,0,0)">
   <path
   d="m 0,-2 c -7,16 -16,29 -25,39 l 381,530 c -94,256 -141,385 -141,387 0,25 13,38 40,38 9,0 21,-2 34,-5 21,4 42,12 65,25 l 27,-13 111,-251 280,301 64,-25 24,25 c 21,-10 41,-24 62,-43 C 886,937 835,863 770,784 769,783 710,716 594,584 L 774,223 c 0,-27 -21,-55 -63,-84 l 16,-20 C 717,90 699,76 672,76 641,76 570,178 457,381 L 164,-76 c -22,-34 -53,-51 -92,-51 -42,0 -63,17 -64,51 -7,9 -10,24 -10,44 0,9 1,19 2,30 z"
   id="path26"
   inkscape:connector-curvature="0" />
  </g>
  <g
   id="bullet-char-template-10004"
   transform="matrix(4.8828125e-4,0,0,-4.8828125e-4,0,0)">
   <path
   d="M 285,-33 C 182,-33 111,30 74,156 52,228 41,333 41,471 c 0,78 14,145 41,201 34,71 87,106 158,106 53,0 88,-31 106,-94 l 23,-176 c 8,-64 28,-97 59,-98 l 735,706 c 11,11 33,17 66,17 42,0 63,-15 63,-46 V 965 c 0,-36 -10,-64 -30,-84 L 442,47 C 390,-6 338,-33 285,-33 Z"
   id="path29"
   inkscape:connector-curvature="0" />
  </g>
  <g
   id="bullet-char-template-9679"
   transform="matrix(4.8828125e-4,0,0,-4.8828125e-4,0,0)">
   <path
   d="M 813,0 C 632,0 489,54 383,161 276,268 223,411 223,592 c 0,181 53,324 160,431 106,107 249,161 430,161 179,0 323,-54 432,-161 108,-107 162,-251 162,-431 0,-180 -54,-324 -162,-431 C 1136,54 992,0 813,0 Z"
   id="path32"
   inkscape:connector-curvature="0" />
  </g>
  <g
   id="bullet-char-template-8226"
   transform="matrix(4.8828125e-4,0,0,-4.8828125e-4,0,0)">
   <path
   d="m 346,457 c -73,0 -137,26 -191,78 -54,51 -81,114 -81,188 0,73 27,136 81,188 54,52 118,78 191,78 73,0 134,-26 185,-79 51,-51 77,-114 77,-187 0,-75 -25,-137 -76,-188 -50,-52 -112,-78 -186,-78 z"
   id="path35"
   inkscape:connector-curvature="0" />
  </g>
  <g
   id="bullet-char-template-8211"
   transform="matrix(4.8828125e-4,0,0,-4.8828125e-4,0,0)">
   <path
   d="M -4,459 H 1135 V 606 H -4 Z"
   id="path38"
   inkscape:connector-curvature="0" />
  </g>
  <g
   id="bullet-char-template-61548"
   transform="matrix(4.8828125e-4,0,0,-4.8828125e-4,0,0)">
   <path
   d="m 173,740 c 0,163 58,303 173,419 116,115 255,173 419,173 163,0 302,-58 418,-173 116,-116 174,-256 174,-419 0,-163 -58,-303 -174,-418 C 1067,206 928,148 765,148 601,148 462,206 346,322 231,437 173,577 173,740 Z"
   id="path41"
   inkscape:connector-curvature="0" />
  </g>
 </defs>
 <g
   id="g49"
   transform="translate(-6923,-7594)">
  <g
   id="id2"
   class="Master_Slide">
   <g
   id="bg-id2"
   class="Background" />
   <g
   id="bo-id2"
   class="BackgroundObjects" />
  </g>
 </g>
 <g
   class="SlideGroup"
   id="g220"
   transform="translate(-6923,-7594)">
  <g
   id="g218">
   <g
   id="container-id1">
    <g
   id="id1"
   class="Slide"
   clip-path="url(#presentation_clip_path)">
     <g
   class="Page"
   id="g214">
      <g
   class="Graphic"
   id="g212">
       <g
   id="id3">
        <rect
   class="BoundingBox"
   x="6923"
   y="7594"
   width="7153"
   height="14512"
   id="rect51"
   style="fill:none;stroke:none" />
        <path
   d="m 11190,20068 -371,291 -582,265 v 185 l 318,106 529,-26 556,-106 371,-80 -80,397 -79,186 26,132 424,106 450,-238 106,-239 v -211 l 106,-159 -53,-794 z"
   id="path53"
   inkscape:connector-curvature="0"
   style="fill:#404040;stroke:none" />
        <path
   d="m 11190,20068 -371,291 -582,265 v 185 l 318,106 529,-26 556,-106 371,-80 -80,397 -79,186 26,132 424,106 450,-238 106,-239 v -211 l 106,-159 -53,-794 z"
   id="path55"
   inkscape:connector-curvature="0"
   style="fill:none;stroke:#000000;stroke-width:35;stroke-linecap:round;stroke-linejoin:round" />
        <path
   d="m 10308,20646 445,22 411,-106 -327,-167 z"
   id="path57"
   inkscape:connector-curvature="0"
   style="fill:#606060;stroke:none" />
        <path
   d="m 11071,20223 -194,154 278,145 220,-39 243,-66 194,-53 -432,-36 z"
   id="path59"
   inkscape:connector-curvature="0"
   style="fill:#606060;stroke:none" />
        <path
   d="m 12042,20964 -27,145 -92,159 238,66 225,9 207,-102 97,-119 49,-264 -234,53 -243,-5 -198,-92 z"
   id="path61"
   inkscape:connector-curvature="0"
   style="fill:#606060;stroke:none" />
        <path
   d="m 12077,20787 172,84 283,13 198,-44 -18,-194 v -150 l -127,66 -389,58 -66,-40 z"
   id="path63"
   inkscape:connector-curvature="0"
   style="fill:#606060;stroke:none" />
        <path
   d="m 8009,10607 -14,-62 133,-4 159,-120 101,-172 v -114 l -18,-49 71,-26 980,719 53,-14 132,40 v -66 h 119 l 13,-53 172,-198 292,-344 75,-80 119,-212 92,-132 120,-79 225,-80 198,-26 212,-133 1262,-132 57,146 371,185 410,119 181,119 71,119 49,437 97,445 141,490 132,503 27,423 -53,556 -27,503 -145,719 -292,-53 27,900 -238,190 -111,2324 -123,1350 -80,820 27,344 -27,384 -450,238 -357,53 -159,-278 h -212 l -450,-26 -331,-119 -66,-358 13,-304 -300,-2157 4,-2298 -291,-370 265,-1941 -40,-446 14,-900 -662,437 -217,66 -238,-13 -410,-185 -340,-344 z"
   id="path65"
   inkscape:connector-curvature="0"
   style="fill:#606060;stroke:none" />
        <path
   d="m 8009,10607 -14,-62 133,-4 159,-120 101,-172 v -114 l -18,-49 71,-26 980,719 53,-14 132,40 v -66 h 119 l 13,-53 172,-198 292,-344 75,-80 119,-212 92,-132 120,-79 225,-80 198,-26 212,-133 1262,-132 57,146 371,185 410,119 181,119 71,119 49,437 97,445 141,490 132,503 27,423 -53,556 -27,503 -145,719 -292,-53 27,900 -238,190 -111,2324 -123,1350 -80,820 27,344 -27,384 -450,238 -357,53 -159,-278 h -212 l -450,-26 -331,-119 -66,-358 13,-304 -300,-2157 4,-2298 -291,-370 265,-1941 -40,-446 14,-900 -662,437 -217,66 -238,-13 -410,-185 -340,-344 z"
   id="path67"
   inkscape:connector-curvature="0"
   style="fill:none;stroke:#000000;stroke-width:35;stroke-linecap:round;stroke-linejoin:round" />
        <path
   d="m 11380,9654 v 516 l 26,820 172,715 67,238 79,-661 119,-675 172,-437 159,-344 80,-119 225,-384 -62,-243 -1024,217 z"
   id="path69"
   inkscape:connector-curvature="0"
   style="fill:#c0c0c0;stroke:none" />
        <path
   d="m 11380,9654 v 516 l 26,820 172,715 67,238 79,-661 119,-675 172,-437 159,-344 80,-119 225,-384 -62,-243 -1024,217 z"
   id="path71"
   inkscape:connector-curvature="0"
   style="fill:none;stroke:#000000;stroke-width:35;stroke-linecap:round;stroke-linejoin:round" />
        <path
   d="m 11671,9826 -48,141 22,150 -106,304 -75,261 -14,238 36,203 145,661 80,-635 53,-317 v -384 -344 l 106,-58 -36,-198 -70,-49 z"
   id="path73"
   inkscape:connector-curvature="0"
   style="fill:#800000;stroke:none" />
        <path
   d="m 11671,9826 -48,141 22,150 -106,304 -75,261 -14,238 36,203 145,661 80,-635 53,-317 v -384 -344 l 106,-58 -36,-198 -70,-49 z"
   id="path75"
   inkscape:connector-curvature="0"
   style="fill:none;stroke:#000000;stroke-width:35;stroke-linecap:round;stroke-linejoin:round" />
        <path
   d="m 11221,9469 -229,132 -67,132 -88,278 185,106 -132,146 53,330 66,318 80,437 66,251 53,318 304,1027 159,-383 -198,-856 -106,-490 -40,-450 -13,-555 -14,-331 40,-132 -66,-120 -27,-66 z"
   id="path77"
   inkscape:connector-curvature="0"
   style="fill:#808080;stroke:none" />
        <path
   d="m 12518,9376 14,66 198,106 -79,212 -40,251 -212,-13 186,212 -159,132 -186,304 -119,371 -92,410 -80,424 -198,974 -212,-397 198,-648 40,-379 66,-411 66,-344 120,-370 145,-291 185,-305 z"
   id="path79"
   inkscape:connector-curvature="0"
   style="fill:#808080;stroke:none" />
        <path
   d="m 12757,9561 -53,238 v 225 l -53,40 -159,-26 79,79 53,79 -13,53 -79,27 -146,238 -93,146 -79,264 -80,318 -66,384 -119,260 -146,278 -264,622 -14,516 40,1142 141,763 481,-4 795,-66 489,-283 -66,-1023 -498,-97 26,-256 128,-723 40,-543 v -185 l -80,-132 53,-66 -53,-186 -92,-384 -66,-282 -106,-198 106,66 v -252 l 52,-277 106,-225 120,-159 92,-106 80,-66 -146,-53 -185,-53 z"
   id="path81"
   inkscape:connector-curvature="0"
   style="fill:#808080;stroke:none" />
        <path
   d="m 13352,9773 -185,198 -132,199 -93,172 -27,172 -13,159 13,172 40,110 53,304 53,278 80,247 344,84 -344,27 39,66 212,53 225,106 -318,-27 -145,-13 26,132 -26,265 -40,410 -176,821 233,4 296,22 168,79 145,133 102,-662 13,-556 93,-595 -40,-304 -106,-411 -132,-463 -66,-317 -40,-230 -40,-251 -13,-172 -53,-106 z"
   id="path83"
   inkscape:connector-curvature="0"
   style="fill:#808080;stroke:none" />
        <path
   d="m 10766,9636 -88,243 -53,344 v 291 l -13,384 27,159 v 238 l -662,463 -327,84 -212,-80 -291,-132 -441,-441 -353,-313 -89,-93 -220,-198 88,-9 110,-44 111,-115 88,-194 -18,-128 865,644 27,132 26,252 40,-252 40,-39 h 158 l 27,145 146,172 -80,-159 -13,-185 66,-26 93,79 159,93 -67,-106 -106,-106 120,-146 92,-26 186,-304 66,-67 172,80 -66,-106 -40,-106 66,-119 66,40 14,-119 79,-146 z"
   id="path85"
   inkscape:connector-curvature="0"
   style="fill:#808080;stroke:none" />
        <path
   d="m 10943,9597 -93,202 -106,225 186,93 -133,199 53,92 93,543 106,476 119,437 424,895 -252,2409 -587,-146 -273,-362 251,-1927 -66,-909 13,-357 27,-410 -53,-265 v -384 l 13,-251 26,-265 -4,-198 84,-80 z"
   id="path87"
   inkscape:connector-curvature="0"
   style="fill:#808080;stroke:none" />
        <path
   d="m 11768,9742 119,97 9,106 13,115 67,70 79,-132 79,-176 71,-133 128,-185 79,-128 31,-53 -48,-163 -124,212 -106,150 -114,114 -111,58 z"
   id="path89"
   inkscape:connector-curvature="0"
   style="fill:#e0e0e0;stroke:none" />
        <path
   d="m 11720,9742 -89,66 -39,93 -22,70 -14,120 -70,-71 -62,-79 v -146 -159 l 71,-9 h 114 z"
   id="path91"
   inkscape:connector-curvature="0"
   style="fill:#e0e0e0;stroke:none" />
        <path
   d="m 11962,10166 -66,-80 -101,44 v 181 l -5,203 v 199 l 18,-146 62,-159 z"
   id="path93"
   inkscape:connector-curvature="0"
   style="fill:#e0e0e0;stroke:none" />
        <path
   d="m 11420,9967 83,119 49,31 31,13 -40,119 -44,168 -62,238 -4,-75 -13,-185 -9,-212 z"
   id="path95"
   inkscape:connector-curvature="0"
   style="fill:#e0e0e0;stroke:none" />
        <path
   d="m 13621,10717 -185,384 -185,211 132,-251 66,-106 z"
   id="path97"
   inkscape:connector-curvature="0"
   style="fill:#606060;stroke:none" />
        <path
   d="m 11670,12626 c 0,14 -3,27 -9,40 -6,12 -14,21 -24,28 -10,7 -21,11 -32,11 -12,0 -23,-4 -33,-11 -10,-7 -18,-16 -24,-28 -6,-13 -9,-26 -9,-40 0,-14 3,-27 9,-39 6,-13 14,-22 24,-29 10,-7 21,-11 33,-11 11,0 22,4 32,11 10,7 18,16 24,29 6,12 9,25 9,39 z"
   id="path99"
   inkscape:connector-curvature="0"
   style="fill:#606060;stroke:none" />
        <path
   d="m 11670,13156 c 0,14 -3,27 -9,40 -6,12 -14,21 -24,28 -10,7 -21,11 -32,11 -12,0 -23,-4 -33,-11 -10,-7 -18,-16 -24,-28 -6,-13 -9,-26 -9,-40 0,-14 3,-27 9,-39 6,-13 14,-22 24,-29 10,-7 21,-11 33,-11 11,0 22,4 32,11 10,7 18,16 24,29 6,12 9,25 9,39 z"
   id="path101"
   inkscape:connector-curvature="0"
   style="fill:#606060;stroke:none" />
        <path
   d="m 11556,16059 239,1720 79,741 212,1270 -27,344 133,344 h 265 l 450,-185 79,-503 h -212 l -317,-79 h 344 l 159,-53 53,-1165 105,-1005 45,-596 13,-710 75,-1023 -380,35 -723,44 h -495 l -128,-785 -26,-556 -26,415 -98,909 -622,-159 -22,661 58,1050 -53,609 105,582 239,1482 265,159 -239,26 v 371 l 265,212 556,26 26,-238 53,-106 -185,-1164 -106,-794 -79,-688 z"
   id="path103"
   inkscape:connector-curvature="0"
   style="fill:#808080;stroke:none" />
        <path
   d="m 11865,15313 -278,159 -48,269 79,-216 z"
   id="path105"
   inkscape:connector-curvature="0"
   style="fill:#606060;stroke:none" />
        <path
   d="m 11989,16570 106,1747 119,834 v 529 l -66,-556 -93,-807 -93,-940 z"
   id="path107"
   inkscape:connector-curvature="0"
   style="fill:#606060;stroke:none" />
        <path
   d="m 8212,10051 -49,-102 -66,-61 -172,-106 -208,-80 -128,-22 h -92 l -137,-22 -110,9 -124,5 -75,26 -71,31 -22,31 9,44 27,18 70,4 75,-18 150,5 84,22 66,44 -88,53 -22,39 18,53 17,22 -26,58 31,62 -14,57 36,62 44,106 106,17 h 128 l 53,-44 70,66 133,5 66,22 88,13 93,-71 70,-70 49,-137 -57,-62 z"
   id="path109"
   inkscape:connector-curvature="0"
   style="fill:#ffa040;stroke:none" />
        <path
   d="m 8212,10051 -49,-102 -66,-61 -172,-106 -208,-80 -128,-22 h -92 l -137,-22 -110,9 -124,5 -75,26 -71,31 -22,31 9,44 27,18 70,4 75,-18 150,5 84,22 66,44 -88,53 -22,39 18,53 17,22 -26,58 31,62 -14,57 36,62 44,106 106,17 h 128 l 53,-44 70,66 133,5 66,22 88,13 93,-71 70,-70 49,-137 -57,-62 z"
   id="path111"
   inkscape:connector-curvature="0"
   style="fill:none;stroke:#402000;stroke-width:35;stroke-linecap:round;stroke-linejoin:round" />
        <path
   d="m 7920,9892 -216,13 -44,-13 -80,9 -13,57 -75,111 22,48 97,-4 40,-53 49,-31 83,17 14,62 -102,-48 -66,44 -71,26 -61,-9 -14,-30 -4,-40 40,-44 35,-49 4,-26 14,-53 h 57 l 106,13 -22,-79 -13,-58 17,44 40,84 h 53 62 z"
   id="path113"
   inkscape:connector-curvature="0"
   style="fill:#402000;stroke:none" />
        <path
   d="m 7704,10091 44,26 9,31 -4,31 30,9 18,22 v 35 l -13,18 -71,22 14,17 v 27 l -27,31 40,8 v -44 l 31,-35 35,-22 13,-48 -17,-27 -36,-18 v -35 l -9,-35 z"
   id="path115"
   inkscape:connector-curvature="0"
   style="fill:#402000;stroke:none" />
        <path
   d="m 7660,10117 -4,22 4,27 35,13 -62,-9 z"
   id="path117"
   inkscape:connector-curvature="0"
   style="fill:#402000;stroke:none" />
        <path
   d="m 7704,10210 -13,22 26,26 h 14 35 l -31,-9 z"
   id="path119"
   inkscape:connector-curvature="0"
   style="fill:#402000;stroke:none" />
        <path
   d="m 7686,10307 -8,22 8,48 14,-22 z"
   id="path121"
   inkscape:connector-curvature="0"
   style="fill:#402000;stroke:none" />
        <path
   d="m 7660,10289 h -75 l -132,-18 61,18 93,22 z"
   id="path123"
   inkscape:connector-curvature="0"
   style="fill:#402000;stroke:none" />
        <path
   d="m 7735,10192 -71,18 -66,4 -88,-26 -97,-18 115,40 79,13 h 66 z"
   id="path125"
   inkscape:connector-curvature="0"
   style="fill:#402000;stroke:none" />
        <path
   d="m 7572,10007 22,44 -36,31 -39,13 39,-4 40,-18 9,-27 z"
   id="path127"
   inkscape:connector-curvature="0"
   style="fill:#402000;stroke:none" />
        <path
   d="m 8013,10532 53,44 260,-124 97,-181 -17,-123 -102,-62 -57,5 22,75 -5,66 -35,66 -84,79 -79,75 -84,14 9,35 z"
   id="path129"
   inkscape:connector-curvature="0"
   style="fill:#e0e0e0;stroke:none" />
        <path
   d="m 8013,10532 53,44 260,-124 97,-181 -17,-123 -102,-62 -57,5 22,75 -5,66 -35,66 -84,79 -79,75 -84,14 9,35 z"
   id="path131"
   inkscape:connector-curvature="0"
   style="fill:none;stroke:#000000;stroke-width:35;stroke-linecap:round;stroke-linejoin:round" />
        <path
   d="m 11764,7832 -141,71 -164,62 -150,44 -163,88 -115,79 -9,88 9,124 -9,106 v 123 l 9,36 13,26 36,22 13,40 4,123 27,80 31,48 17,111 23,57 39,84 13,66 27,57 22,31 13,49 22,75 44,53 49,22 h 71 53 l 22,-9 61,-5 40,40 49,44 66,18 141,-44 119,-66 106,-120 124,-185 48,-79 49,-102 17,-57 v -35 -53 l -53,-80 27,-48 35,-88 13,-89 v -75 l -22,-101 -26,-71 -40,-30 h -48 l -40,13 -35,31 -27,70 -13,40 v 48 l -9,67 v 48 l -40,88 -75,14 -39,-53 13,-111 -27,-79 -75,-115 -35,-88 -75,-106 -35,-53 -40,-150 v -61 l 9,-62 -71,35 z"
   id="path133"
   inkscape:connector-curvature="0"
   style="fill:#ffa040;stroke:none" />
        <path
   d="m 11764,7832 -141,71 -164,62 -150,44 -163,88 -115,79 -9,88 9,124 -9,106 v 123 l 9,36 13,26 36,22 13,40 4,123 27,80 31,48 17,111 23,57 39,84 13,66 27,57 22,31 13,49 22,75 44,53 49,22 h 71 53 l 22,-9 61,-5 40,40 49,44 66,18 141,-44 119,-66 106,-120 124,-185 48,-79 49,-102 17,-57 v -35 -53 l -53,-80 27,-48 35,-88 13,-89 v -75 l -22,-101 -26,-71 -40,-30 h -48 l -40,13 -35,31 -27,70 -13,40 v 48 l -9,67 v 48 l -40,88 -75,14 -39,-53 13,-111 -27,-79 -75,-115 -35,-88 -75,-106 -35,-53 -40,-150 v -61 l 9,-62 -71,35 z"
   id="path135"
   inkscape:connector-curvature="0"
   style="fill:none;stroke:#402000;stroke-width:35;stroke-linecap:round;stroke-linejoin:round" />
        <path
   d="m 11331,9447 40,-40 40,-5 75,5 17,4 h 22 l 31,36 22,48 -4,18 -31,22 -31,-18 -57,13 -31,31 -40,-4 -39,-44 z"
   id="path137"
   inkscape:connector-curvature="0"
   style="fill:#ffc080;stroke:none" />
        <path
   d="m 11309,9389 27,-9 -31,-52 26,-9 49,4 31,-9 26,-13 53,-18 22,-22 44,-13 h -53 -44 l -22,9 -62,4 -26,31 -22,-31 -27,-13 -26,13 -9,22 9,36 4,26 z"
   id="path139"
   inkscape:connector-curvature="0"
   style="fill:#ffc080;stroke:none" />
        <path
   d="m 11217,9023 v -17 l 66,-5 44,-22 18,-53 -27,-26 13,-36 v -48 -119 l -75,-31 -13,84 -13,35 9,62 -14,17 -26,-17 22,-9 -9,-40 h -53 l -9,-26 -26,-49 h -22 l 4,106 5,53 39,79 18,31 9,88 22,71 44,84 18,13 44,-18 53,-13 70,13 58,5 h 35 l 40,-40 -27,-53 62,-17 27,-31 -40,-36 -49,-8 75,-18 40,35 h 53 l -84,-57 53,-35 v -22 l -57,-27 -14,-13 14,-13 75,-9 176,-53 71,-159 -80,-9 -114,-4 -58,70 -84,67 -57,22 -26,-14 -40,-39 v -36 l -27,-57 -53,53 9,22 -22,44 9,27 18,39 53,40 17,31 22,62 -8,31 -75,22 -80,13 -79,-13 z"
   id="path141"
   inkscape:connector-curvature="0"
   style="fill:#ffc080;stroke:none" />
        <path
   d="m 11481,8772 14,17 26,18 27,4 35,-8 40,-31 39,-36 31,-39 22,22 -53,39 -35,45 -27,26 -30,4 h -27 l -48,-17 z"
   id="path143"
   inkscape:connector-curvature="0"
   style="fill:#804000;stroke:none" />
        <path
   d="m 11044,8631 49,-14 h 40 l 53,-8 26,-40 31,17 27,-66 4,-26 40,4 4,49 h 49 l 4,26 57,-9 9,-26 40,26 -13,-57 -22,-44 v -57 l 17,-75 14,-44 v -80 l -23,-53 -53,-13 -61,-40 -22,-22 8,-62 -88,31 -119,66 -57,49 -31,9 13,70 v 67 l 4,66 v 57 l -4,62 v 70 z"
   id="path145"
   inkscape:connector-curvature="0"
   style="fill:#ffc080;stroke:none" />
        <path
   d="m 11539,8666 17,62 -44,-9 -31,-40 -35,22 h -26 l 4,31 -49,-13 -17,-27 -40,-4 27,-35 -9,-14 h 110 l 35,-35 44,-4 h 106 l 67,26 35,27 40,4 -62,18 -66,-9 53,-13 -27,-22 -57,-18 -133,18 z"
   id="path147"
   inkscape:connector-curvature="0"
   style="fill:#603000;stroke:none" />
        <path
   d="m 11097,8701 27,40 h 35 l 22,-22 31,-5 22,27 h 22 v -40 l -13,-44 -62,-18 h -97 l 75,36 z"
   id="path149"
   inkscape:connector-curvature="0"
   style="fill:#603000;stroke:none" />
        <path
   d="m 11221,9028 35,17 75,-4 18,-22 48,-9 36,9 4,9 40,-5 18,-17 -5,-40 -13,-40 -4,-9 30,27 9,22 5,31 31,31 h -31 l -53,22 -49,35 -57,4 -18,9 -31,-26 -35,-5 z"
   id="path151"
   inkscape:connector-curvature="0"
   style="fill:#603000;stroke:none" />
        <path
   d="m 11247,9217 18,27 40,-36 26,9 31,-13 22,4 18,14 62,8 53,9 48,-9 5,-4 8,13 -48,5 h -57 l -49,13 -35,13 -31,22 -31,-22 -22,-17 z"
   id="path153"
   inkscape:connector-curvature="0"
   style="fill:#603000;stroke:none" />
        <path
   d="m 11468,8714 35,18 h 45 l 48,-22 13,-26 -26,-18 -53,-9 v -22 -18 l 79,-17 v -9 l 53,-5 -17,-17 -9,-22 26,-13 58,8 8,-13 58,-4 -44,-18 h -53 l -18,-4 22,-27 31,-13 4,-9 -53,-48 h -39 l 4,-9 35,-18 -44,-44 9,-62 80,-17 -67,-58 -4,-110 4,-137 67,-22 8,115 40,132 93,124 26,79 93,146 26,75 -4,92 -9,31 40,53 66,-13 53,-93 4,-101 v -66 l 40,-102 62,-39 53,-9 57,35 18,66 31,119 -9,111 -31,123 -26,40 -14,35 -22,22 -44,57 -22,22 h -48 l -18,-17 -22,-9 v 53 l -9,26 13,27 40,-9 v 49 h 4 l -4,35 v 26 l 40,5 17,-44 v 57 l 9,48 -137,212 -88,102 -93,-9 128,-155 53,-101 5,-79 -13,-84 -49,-13 -66,17 -44,44 -31,84 -49,93 -13,35 -31,18 -101,13 -18,-44 -35,-35 v -49 l 9,-13 53,-5 -36,-26 13,-40 -13,-35 36,-35 30,-5 31,9 -17,-40 4,-35 v -40 l 49,-17 -67,-27 -13,-44 -26,-35 -44,13 -53,-9 57,-17 49,-45 48,-13 h 49 l -27,-48 44,-22 -13,-49 44,-31 -13,-84 -18,-57 -39,40 -31,66 -40,44 -40,40 -53,-27 -13,-13 -22,49 -31,39 -75,9 -53,-4 z"
   id="path155"
   inkscape:connector-curvature="0"
   style="fill:#804000;stroke:none" />
        <path
   d="m 11137,8767 27,5 35,-5 18,-13 8,-22 31,4 -17,49 v 22 44 l -14,22 h -13 l -13,-17 -18,-14 31,-13 -9,-22 h -48 z"
   id="path157"
   inkscape:connector-curvature="0"
   style="fill:#804000;stroke:none" />
        <path
   d="m 11309,9323 49,-9 39,5 36,-18 57,-26 18,-22 48,-5 h 31 l 5,27 -36,4 -39,44 -36,27 -13,26 -18,13 -66,5 h -39 l -14,-27 z"
   id="path159"
   inkscape:connector-curvature="0"
   style="fill:#804000;stroke:none" />
        <path
   d="m 12227,8538 -13,48 4,49 31,35 h 27 l 8,40 -13,57 40,-4 9,-49 -5,-57 -31,-31 h -22 l -22,-17 z"
   id="path161"
   inkscape:connector-curvature="0"
   style="fill:#603000;stroke:none" />
        <path
   d="m 12262,8476 27,-35 26,4 18,18 35,62 14,97 -5,66 -18,70 -66,40 44,-40 22,-74 -8,-80 -9,-79 -22,-27 z"
   id="path163"
   inkscape:connector-curvature="0"
   style="fill:#603000;stroke:none" />
        <path
   d="m 11018,8212 88,-80 177,-84 92,-48 168,-53 132,-57 84,-53 -119,105 h 75 l -9,93 40,110 44,93 66,75 9,57 36,53 57,84 26,66 9,66 v 71 l -9,22 53,53 75,-18 40,-88 9,-106 13,-97 49,-79 70,-31 66,26 23,62 13,71 13,57 v 79 l -13,75 -22,71 -36,66 45,115 66,-119 9,-106 -9,-185 26,-115 v -190 l -26,-185 -27,-146 -70,-105 -89,-80 -136,-62 -102,-17 -71,4 -92,-44 -133,-9 -233,53 -164,49 -132,53 -93,83 -79,102 -40,137 z"
   id="path165"
   inkscape:connector-curvature="0"
   style="fill:#404040;stroke:none" />
        <path
   d="m 11018,8212 88,-80 177,-84 92,-48 168,-53 132,-57 84,-53 -119,105 h 75 l -9,93 40,110 44,93 66,75 9,57 36,53 57,84 26,66 9,66 v 71 l -9,22 53,53 75,-18 40,-88 9,-106 13,-97 49,-79 70,-31 66,26 23,62 13,71 13,57 v 79 l -13,75 -22,71 -36,66 45,115 66,-119 9,-106 -9,-185 26,-115 v -190 l -26,-185 -27,-146 -70,-105 -89,-80 -136,-62 -102,-17 -71,4 -92,-44 -133,-9 -233,53 -164,49 -132,53 -93,83 -79,102 -40,137 z"
   id="path167"
   inkscape:connector-curvature="0"
   style="fill:none;stroke:#000000;stroke-width:35;stroke-linecap:round;stroke-linejoin:round" />
        <path
   d="m 11848,7682 -93,88 -102,84 -203,66 -211,22 -146,53 -53,45 93,-93 106,-57 123,-53 h -53 l -119,26 -66,31 132,-79 106,-45 146,-39 -5,-22 124,-14 -13,-17 75,-22 66,-5 z"
   id="path169"
   inkscape:connector-curvature="0"
   style="fill:#808080;stroke:none" />
        <path
   d="m 11953,7704 -127,106 -93,84 40,-13 -27,48 -4,53 17,80 27,97 75,53 79,105 -39,-136 105,31 27,75 18,158 22,-128 v -92 l 66,88 v 119 l 57,-132 v -141 l 49,53 v 101 l 31,-207 -18,-97 66,26 13,66 14,-88 -9,-57 48,4 -26,-57 -62,-62 -71,-57 -105,-49 -89,-26 z"
   id="path171"
   inkscape:connector-curvature="0"
   style="fill:#808080;stroke:none" />
        <path
   d="m 12214,8860 48,-9 58,-40 -22,80 -49,40 -53,-9 v -40 z"
   id="path173"
   inkscape:connector-curvature="0"
   style="fill:#ffa040;stroke:none" />
        <path
   d="m 13193,13858 -114,207 -93,106 -48,84 -53,66 -36,88 -17,84 -40,110 31,97 v 132 l 44,5 53,-36 35,-66 v -83 l 27,-89 39,71 9,106 -44,97 -48,75 -45,53 -13,57 27,35 26,-4 -13,40 22,30 h 44 l 62,-26 57,-4 75,-40 71,-22 40,-44 75,-97 119,-137 13,-172 26,-159 -13,-141 -9,-106 27,-251 -110,-58 z"
   id="path175"
   inkscape:connector-curvature="0"
   style="fill:#ffa040;stroke:none" />
        <path
   d="m 13193,13858 -114,207 -93,106 -48,84 -53,66 -36,88 -17,84 -40,110 31,97 v 132 l 44,5 53,-36 35,-66 v -83 l 27,-89 39,71 9,106 -44,97 -48,75 -45,53 -13,57 27,35 26,-4 -13,40 22,30 h 44 l 62,-26 57,-4 75,-40 71,-22 40,-44 75,-97 119,-137 13,-172 26,-159 -13,-141 -9,-106 27,-251 -110,-58 z"
   id="path177"
   inkscape:connector-curvature="0"
   style="fill:none;stroke:#402000;stroke-width:35;stroke-linecap:round;stroke-linejoin:round" />
        <path
   d="m 13211,14726 -44,115 -40,53 -39,53 -89,62 115,-58 66,-97 z"
   id="path179"
   inkscape:connector-curvature="0"
   style="fill:#402000;stroke:none" />
        <path
   d="m 13370,14731 -53,101 -40,62 -44,93 102,-146 z"
   id="path181"
   inkscape:connector-curvature="0"
   style="fill:#402000;stroke:none" />
        <path
   d="m 12960,14409 4,75 -4,84 35,-5 -22,-61 z"
   id="path183"
   inkscape:connector-curvature="0"
   style="fill:#402000;stroke:none" />
        <path
   d="m 13224,14577 -13,52 v 115 l 18,-48 35,-128 z"
   id="path185"
   inkscape:connector-curvature="0"
   style="fill:#402000;stroke:none" />
        <path
   d="m 13401,14585 -31,31 -4,124 z"
   id="path187"
   inkscape:connector-curvature="0"
   style="fill:#402000;stroke:none" />
        <path
   d="m 12858,14704 22,14 5,48 17,-66 z"
   id="path189"
   inkscape:connector-curvature="0"
   style="fill:#402000;stroke:none" />
        <path
   d="m 13079,13981 70,-13 97,4 80,13 132,40 88,49 27,17 44,-194 -79,-75 -106,-53 -106,-31 h -93 l -92,9 z"
   id="path191"
   inkscape:connector-curvature="0"
   style="fill:#ffffff;stroke:none" />
        <path
   d="m 13079,13981 70,-13 97,4 80,13 132,40 88,49 27,17 44,-194 -79,-75 -106,-53 -106,-31 h -93 l -92,9 z"
   id="path193"
   inkscape:connector-curvature="0"
   style="fill:none;stroke:#000000;stroke-width:35;stroke-linecap:round;stroke-linejoin:round" />
        <path
   d="m 7872,12852 -905,-1306 2926,366 1262,1606 z"
   id="path195"
   inkscape:connector-curvature="0"
   style="fill:#603000;stroke:none" />
        <path
   d="m 7872,12852 -905,-1306 2926,366 1262,1606 z"
   id="path197"
   inkscape:connector-curvature="0"
   style="fill:none;stroke:#000000;stroke-width:35;stroke-linecap:round;stroke-linejoin:round" />
        <path
   d="m 9906,11912 1249,1606 1619,-234 z"
   id="path199"
   inkscape:connector-curvature="0"
   style="fill:#402000;stroke:none" />
        <path
   d="m 9906,11912 1249,1606 1619,-234 z"
   id="path201"
   inkscape:connector-curvature="0"
   style="fill:none;stroke:#000000;stroke-width:35;stroke-linecap:round;stroke-linejoin:round" />
        <path
   d="m 7863,12843 3296,675 v 8553 L 7872,20844 Z"
   id="path203"
   inkscape:connector-curvature="0"
   style="fill:#804000;stroke:none" />
        <path
   d="m 7863,12843 3296,675 v 8553 L 7872,20844 Z"
   id="path205"
   inkscape:connector-curvature="0"
   style="fill:none;stroke:#000000;stroke-width:35;stroke-linecap:round;stroke-linejoin:round" />
        <path
   d="m 11159,22066 v -8548 l 1620,-234 v 8050 z"
   id="path207"
   inkscape:connector-curvature="0"
   style="fill:#201000;stroke:none" />
        <path
   d="m 11159,22066 v -8548 l 1620,-234 v 8050 z"
   id="path209"
   inkscape:connector-curvature="0"
   style="fill:none;stroke:#000000;stroke-width:35;stroke-linecap:round;stroke-linejoin:round" />
       </g>
      </g>
     </g>
    </g>
   </g>
  </g>
 </g>
</svg>