<?xml version="1.0" encoding="UTF-8" standalone="no"?>
<svg
   xmlns:ooo="http://xml.openoffice.org/svg/export"
   xmlns:dc="http://purl.org/dc/elements/1.1/"
   xmlns:cc="http://creativecommons.org/ns#"
   xmlns:rdf="http://www.w3.org/1999/02/22-rdf-syntax-ns#"
   xmlns:svg="http://www.w3.org/2000/svg"
   xmlns="http://www.w3.org/2000/svg"
   xmlns:sodipodi="http://sodipodi.sourceforge.net/DTD/sodipodi-0.dtd"
   xmlns:inkscape="http://www.inkscape.org/namespaces/inkscape"
   version="1.2"
   width="33.470001mm"
   height="92.339996mm"
   viewBox="0 0 3347.0001 9233.9996"
   preserveAspectRatio="xMidYMid"
   xml:space="preserve"
   id="svg277"
   sodipodi:docname="talk2.svg"
   style="fill-rule:evenodd;stroke-width:28.22200012;stroke-linejoin:round"
   inkscape:version="0.92.5 (2060ec1f9f, 2020-04-08)"><metadata
   id="metadata281"><rdf:RDF><cc:Work
       rdf:about=""><dc:format>image/svg+xml</dc:format><dc:type
         rdf:resource="http://purl.org/dc/dcmitype/StillImage" /></cc:Work></rdf:RDF></metadata><sodipodi:namedview
   pagecolor="#ffffff"
   bordercolor="#666666"
   borderopacity="1"
   objecttolerance="10"
   gridtolerance="10"
   guidetolerance="10"
   inkscape:pageopacity="0"
   inkscape:pageshadow="2"
   inkscape:window-width="664"
   inkscape:window-height="487"
   id="namedview279"
   showgrid="false"
   inkscape:zoom="0.2102413"
   inkscape:cx="63.269292"
   inkscape:cy="174.50079"
   inkscape:window-x="0"
   inkscape:window-y="0"
   inkscape:window-maximized="0"
   inkscape:current-layer="svg277" />
 <defs
   class="ClipPathGroup"
   id="defs8">
  <clipPath
   id="presentation_clip_path"
   clipPathUnits="userSpaceOnUse">
   <rect
   x="0"
   y="0"
   width="21000"
   height="29700"
   id="rect2" />
  </clipPath>
  <clipPath
   id="presentation_clip_path_shrink"
   clipPathUnits="userSpaceOnUse">
   <rect
   x="21"
   y="29"
   width="20958"
   height="29641"
   id="rect5" />
  </clipPath>
 </defs>
 <defs
   class="TextShapeIndex"
   id="defs12">
  <g
   ooo:slide="id1"
   ooo:id-list="id3"
   id="g10" />
 </defs>
 <defs
   class="EmbeddedBulletChars"
   id="defs44">
  <g
   id="bullet-char-template-57356"
   transform="matrix(4.8828125e-4,0,0,-4.8828125e-4,0,0)">
   <path
   d="M 580,1141 1163,571 580,0 -4,571 Z"
   id="path14"
   inkscape:connector-curvature="0" />
  </g>
  <g
   id="bullet-char-template-57354"
   transform="matrix(4.8828125e-4,0,0,-4.8828125e-4,0,0)">
   <path
   d="M 8,1128 H 1137 V 0 H 8 Z"
   id="path17"
   inkscape:connector-curvature="0" />
  </g>
  <g
   id="bullet-char-template-10146"
   transform="matrix(4.8828125e-4,0,0,-4.8828125e-4,0,0)">
   <path
   d="M 174,0 602,739 174,1481 1456,739 Z M 1358,739 309,1346 659,739 Z"
   id="path20"
   inkscape:connector-curvature="0" />
  </g>
  <g
   id="bullet-char-template-10132"
   transform="matrix(4.8828125e-4,0,0,-4.8828125e-4,0,0)">
   <path
   d="M 2015,739 1276,0 H 717 l 543,543 H 174 v 393 h 1086 l -543,545 h 557 z"
   id="path23"
   inkscape:connector-curvature="0" />
  </g>
  <g
   id="bullet-char-template-10007"
   transform="matrix(4.8828125e-4,0,0,-4.8828125e-4,0,0)">
   <path
   d="m 0,-2 c -7,16 -16,29 -25,39 l 381,530 c -94,256 -141,385 -141,387 0,25 13,38 40,38 9,0 21,-2 34,-5 21,4 42,12 65,25 l 27,-13 111,-251 280,301 64,-25 24,25 c 21,-10 41,-24 62,-43 C 886,937 835,863 770,784 769,783 710,716 594,584 L 774,223 c 0,-27 -21,-55 -63,-84 l 16,-20 C 717,90 699,76 672,76 641,76 570,178 457,381 L 164,-76 c -22,-34 -53,-51 -92,-51 -42,0 -63,17 -64,51 -7,9 -10,24 -10,44 0,9 1,19 2,30 z"
   id="path26"
   inkscape:connector-curvature="0" />
  </g>
  <g
   id="bullet-char-template-10004"
   transform="matrix(4.8828125e-4,0,0,-4.8828125e-4,0,0)">
   <path
   d="M 285,-33 C 182,-33 111,30 74,156 52,228 41,333 41,471 c 0,78 14,145 41,201 34,71 87,106 158,106 53,0 88,-31 106,-94 l 23,-176 c 8,-64 28,-97 59,-98 l 735,706 c 11,11 33,17 66,17 42,0 63,-15 63,-46 V 965 c 0,-36 -10,-64 -30,-84 L 442,47 C 390,-6 338,-33 285,-33 Z"
   id="path29"
   inkscape:connector-curvature="0" />
  </g>
  <g
   id="bullet-char-template-9679"
   transform="matrix(4.8828125e-4,0,0,-4.8828125e-4,0,0)">
   <path
   d="M 813,0 C 632,0 489,54 383,161 276,268 223,411 223,592 c 0,181 53,324 160,431 106,107 249,161 430,161 179,0 323,-54 432,-161 108,-107 162,-251 162,-431 0,-180 -54,-324 -162,-431 C 1136,54 992,0 813,0 Z"
   id="path32"
   inkscape:connector-curvature="0" />
  </g>
  <g
   id="bullet-char-template-8226"
   transform="matrix(4.8828125e-4,0,0,-4.8828125e-4,0,0)">
   <path
   d="m 346,457 c -73,0 -137,26 -191,78 -54,51 -81,114 -81,188 0,73 27,136 81,188 54,52 118,78 191,78 73,0 134,-26 185,-79 51,-51 77,-114 77,-187 0,-75 -25,-137 -76,-188 -50,-52 -112,-78 -186,-78 z"
   id="path35"
   inkscape:connector-curvature="0" />
  </g>
  <g
   id="bullet-char-template-8211"
   transform="matrix(4.8828125e-4,0,0,-4.8828125e-4,0,0)">
   <path
   d="M -4,459 H 1135 V 606 H -4 Z"
   id="path38"
   inkscape:connector-curvature="0" />
  </g>
  <g
   id="bullet-char-template-61548"
   transform="matrix(4.8828125e-4,0,0,-4.8828125e-4,0,0)">
   <path
   d="m 173,740 c 0,163 58,303 173,419 116,115 255,173 419,173 163,0 302,-58 418,-173 116,-116 174,-256 174,-419 0,-163 -58,-303 -174,-418 C 1067,206 928,148 765,148 601,148 462,206 346,322 231,437 173,577 173,740 Z"
   id="path41"
   inkscape:connector-curvature="0" />
  </g>
 </defs>
 <g
   id="g49"
   transform="translate(-8826,-10233)">
  <g
   id="id2"
   class="Master_Slide">
   <g
   id="bg-id2"
   class="Background" />
   <g
   id="bo-id2"
   class="BackgroundObjects" />
  </g>
 </g>
 <g
   class="SlideGroup"
   id="g275"
   transform="translate(-8826,-10233)">
  <g
   id="g273">
   <g
   id="container-id1">
    <g
   id="id1"
   class="Slide"
   clip-path="url(#presentation_clip_path)">
     <g
   class="Page"
   id="g269">
      <g
   class="Graphic"
   id="g267">
       <g
   id="id3">
        <rect
   class="BoundingBox"
   x="8826"
   y="10233"
   width="3347"
   height="9234"
   id="rect51"
   style="fill:none;stroke:none" />
        <defs
   id="defs56">
         <clipPath
   id="clip_path_1"
   clipPathUnits="userSpaceOnUse">
          <path
   d="m 8826,10246 h 3337 v 9207 H 8826 Z"
   id="path53"
   inkscape:connector-curvature="0" />
         </clipPath>
        </defs>
        <g
   clip-path="url(#clip_path_1)"
   id="g264">
         <path
   d="m 10689,18796 199,31 137,53 168,75 106,49 88,44 110,75 124,79 97,36 150,26 67,18 22,39 -45,53 -163,44 h -282 l -274,-83 -221,-71 -150,-26 v 35 l -270,-71 -13,-123 36,-106 z"
   id="path58"
   inkscape:connector-curvature="0"
   style="fill:#404040;stroke:none" />
         <path
   d="m 10689,18796 199,31 137,53 168,75 106,49 88,44 110,75 124,79 97,36 150,26 67,18 22,39 -45,53 -163,44 h -282 l -274,-83 -221,-71 -150,-26 v 35 l -270,-71 -13,-123 36,-106 z"
   id="path60"
   inkscape:connector-curvature="0"
   style="fill:none;stroke:#000000;stroke-width:31;stroke-linecap:round;stroke-linejoin:round" />
         <path
   d="m 10111,18761 -194,35 -137,49 -177,75 -106,53 -84,44 -106,71 -128,83 -97,31 -150,31 -66,22 -5,40 27,44 163,44 h 287 l 265,-84 230,-66 145,-31 v 40 l 270,-71 13,-128 -35,-105 z"
   id="path62"
   inkscape:connector-curvature="0"
   style="fill:#404040;stroke:none" />
         <path
   d="m 10111,18761 -194,35 -137,49 -177,75 -106,53 -84,44 -106,71 -128,83 -97,31 -150,31 -66,22 -5,40 27,44 163,44 h 287 l 265,-84 230,-66 145,-31 v 40 l 270,-71 13,-128 -35,-105 z"
   id="path64"
   inkscape:connector-curvature="0"
   style="fill:none;stroke:#000000;stroke-width:31;stroke-linecap:round;stroke-linejoin:round" />
         <path
   d="m 10204,16251 -111,150 -22,88 -22,132 -35,150 -44,155 -27,198 -44,159 -44,177 -31,119 -35,88 -22,88 -9,119 -14,106 23,111 -9,132 -31,110 -44,97 -49,119 -44,155 -58,119 -30,110 -22,66 52,67 67,8 115,-61 88,-45 110,9 146,-53 57,-35 89,-44 75,-252 44,-335 44,-203 44,-203 31,-220 44,-128 71,-199 75,-269 v 150 l 44,194 31,168 22,163 -9,150 -22,172 v 168 141 l 31,221 -31,198 -22,75 -9,44 53,53 111,35 150,23 79,-23 146,62 88,44 h 71 l 35,-61 -57,-133 -35,-163 -23,-199 v -198 l 31,-309 40,-234 -22,-198 -26,-239 -23,-167 23,-269 48,-199 31,-194 -168,-181 -110,-132 -150,66 -283,22 -225,-35 z"
   id="path66"
   inkscape:connector-curvature="0"
   style="fill:#808080;stroke:none" />
         <path
   d="m 10204,16251 -111,150 -22,88 -22,132 -35,150 -44,155 -27,198 -44,159 -44,177 -31,119 -35,88 -22,88 -9,119 -14,106 23,111 -9,132 -31,110 -44,97 -49,119 -44,155 -58,119 -30,110 -22,66 52,67 67,8 115,-61 88,-45 110,9 146,-53 57,-35 89,-44 75,-252 44,-335 44,-203 44,-203 31,-220 44,-128 71,-199 75,-269 v 150 l 44,194 31,168 22,163 -9,150 -22,172 v 168 141 l 31,221 -31,198 -22,75 -9,44 53,53 111,35 150,23 79,-23 146,62 88,44 h 71 l 35,-61 -57,-133 -35,-163 -23,-199 v -198 l 31,-309 40,-234 -22,-198 -26,-239 -23,-167 23,-269 48,-199 31,-194 -168,-181 -110,-132 -150,66 -283,22 -225,-35 z"
   id="path68"
   inkscape:connector-curvature="0"
   style="fill:none;stroke:#000000;stroke-width:31;stroke-linecap:round;stroke-linejoin:round" />
         <path
   d="m 9245,15492 376,-212 150,-145 88,-181 97,-172 58,-89 75,-66 84,-48 97,-27 88,-92 203,30 106,-13 v 2047 l -278,36 -252,-45 -225,27 44,-207 14,-120 35,-176 v -119 l -18,-177 -44,-97 -101,44 h -40 l -49,53 -48,49 -49,35 -53,27 -66,26 -66,-4 -62,-22 -58,-27 -106,-79 -30,-137 z"
   id="path70"
   inkscape:connector-curvature="0"
   style="fill:#a0a0a0;stroke:none" />
         <path
   d="m 9245,15492 376,-212 150,-145 88,-181 97,-172 58,-89 75,-66 84,-48 97,-27 88,-92 203,30 106,-13 v 2047 l -278,36 -252,-45 -225,27 44,-207 14,-120 35,-176 v -119 l -18,-177 -44,-97 -101,44 h -40 l -49,53 -48,49 -49,35 -53,27 -66,26 -66,-4 -62,-22 -58,-27 -106,-79 -30,-137 z"
   id="path72"
   inkscape:connector-curvature="0"
   style="fill:none;stroke:#000000;stroke-width:31;stroke-linecap:round;stroke-linejoin:round" />
         <path
   d="m 9978,15439 36,62 v 70 l -49,58 h -40 l -83,39 83,-17 18,35 13,53 5,26 17,-22 v -26 l -22,-53 36,-31 35,-35 13,-44 -4,-58 z"
   id="path74"
   inkscape:connector-curvature="0"
   style="fill:#808080;stroke:none" />
         <path
   d="m 9978,15439 36,62 v 70 l -49,58 h -40 l -83,39 83,-17 18,35 13,53 5,26 17,-22 v -26 l -22,-53 36,-31 35,-35 13,-44 -4,-58 z"
   id="path76"
   inkscape:connector-curvature="0"
   style="fill:none;stroke:#000000;stroke-width:31;stroke-linecap:round;stroke-linejoin:round" />
         <path
   d="m 9833,15673 -9,-49 -62,-70 22,13 40,40 22,26 18,-18 8,-48 36,-35 -18,44 -4,39 -14,45 z"
   id="path78"
   inkscape:connector-curvature="0"
   style="fill:#808080;stroke:none" />
         <path
   d="m 9833,15673 -9,-49 -62,-70 22,13 40,40 22,26 18,-18 8,-48 36,-35 -18,44 -4,39 -14,45 z"
   id="path80"
   inkscape:connector-curvature="0"
   style="fill:none;stroke:#000000;stroke-width:31;stroke-linecap:round;stroke-linejoin:round" />
         <path
   d="m 9749,15135 h 35 l 18,17 v 22 14 l 13,-18 v -27 l -18,-13 -13,-4 31,9 22,22 9,13 v 48 27 l 13,-27 v -35 l -4,-40 -27,-26 -26,-4 48,-5 27,9 35,13 -13,-17 -35,-14 -58,-4 h -13 -22 z"
   id="path82"
   inkscape:connector-curvature="0"
   style="fill:#808080;stroke:none" />
         <path
   d="m 9749,15135 h 35 l 18,17 v 22 14 l 13,-18 v -27 l -18,-13 -13,-4 31,9 22,22 9,13 v 48 27 l 13,-27 v -35 l -4,-40 -27,-26 -26,-4 48,-5 27,9 35,13 -13,-17 -35,-14 -58,-4 h -13 -22 z"
   id="path84"
   inkscape:connector-curvature="0"
   style="fill:none;stroke:#000000;stroke-width:31;stroke-linecap:round;stroke-linejoin:round" />
         <path
   d="m 12102,15492 -379,-212 -142,-145 -88,-181 -93,-172 -66,-89 -79,-66 -84,-48 -97,-27 -84,-92 -199,30 -102,-13 v 2047 l 270,36 247,-45 234,27 -44,-207 -18,-120 -35,-176 v -119 l 18,-177 48,-97 102,44 h 39 l 49,53 44,49 44,35 53,27 67,26 70,-4 62,-22 57,-27 111,-79 26,-137 z"
   id="path86"
   inkscape:connector-curvature="0"
   style="fill:#a0a0a0;stroke:none" />
         <path
   d="m 12102,15492 -379,-212 -142,-145 -88,-181 -93,-172 -66,-89 -79,-66 -84,-48 -97,-27 -84,-92 -199,30 -102,-13 v 2047 l 270,36 247,-45 234,27 -44,-207 -18,-120 -35,-176 v -119 l 18,-177 48,-97 102,44 h 39 l 49,53 44,49 44,35 53,27 67,26 70,-4 62,-22 57,-27 111,-79 26,-137 z"
   id="path88"
   inkscape:connector-curvature="0"
   style="fill:none;stroke:#000000;stroke-width:31;stroke-linecap:round;stroke-linejoin:round" />
         <path
   d="m 11343,15439 -40,62 5,70 48,58 h 49 l 79,39 -84,-17 -17,35 -18,53 -4,26 -18,-22 v -26 l 22,-53 -31,-31 -44,-35 -13,-44 4,-58 z"
   id="path90"
   inkscape:connector-curvature="0"
   style="fill:#808080;stroke:none" />
         <path
   d="m 11343,15439 -40,62 5,70 48,58 h 49 l 79,39 -84,-17 -17,35 -18,53 -4,26 -18,-22 v -26 l 22,-53 -31,-31 -44,-35 -13,-44 4,-58 z"
   id="path92"
   inkscape:connector-curvature="0"
   style="fill:none;stroke:#000000;stroke-width:31;stroke-linecap:round;stroke-linejoin:round" />
         <path
   d="m 11493,15673 9,-49 62,-70 -22,13 -40,40 -22,26 -18,-18 -9,-48 -35,-35 18,44 4,39 13,45 z"
   id="path94"
   inkscape:connector-curvature="0"
   style="fill:#808080;stroke:none" />
         <path
   d="m 11493,15673 9,-49 62,-70 -22,13 -40,40 -22,26 -18,-18 -9,-48 -35,-35 18,44 4,39 13,45 z"
   id="path96"
   inkscape:connector-curvature="0"
   style="fill:none;stroke:#000000;stroke-width:31;stroke-linecap:round;stroke-linejoin:round" />
         <path
   d="m 11577,15135 h -35 l -14,17 -4,22 v 14 l -13,-18 v -27 l 17,-13 14,-4 -31,9 -18,22 -13,13 v 48 27 l -13,-27 v -35 l 8,-40 22,-26 27,-4 -49,-5 -26,9 -35,13 13,-17 35,-14 57,-4 h 14 22 z"
   id="path98"
   inkscape:connector-curvature="0"
   style="fill:#808080;stroke:none" />
         <path
   d="m 11577,15135 h -35 l -14,17 -4,22 v 14 l -13,-18 v -27 l 17,-13 14,-4 -31,9 -18,22 -13,13 v 48 27 l -13,-27 v -35 l 8,-40 22,-26 27,-4 -49,-5 -26,9 -35,13 13,-17 35,-14 57,-4 h 14 22 z"
   id="path100"
   inkscape:connector-curvature="0"
   style="fill:none;stroke:#000000;stroke-width:31;stroke-linecap:round;stroke-linejoin:round" />
         <path
   d="m 10354,14579 -150,154 123,71 -123,66 362,640"
   id="path102"
   inkscape:connector-curvature="0"
   style="fill:none;stroke:#000000;stroke-width:31;stroke-linecap:round;stroke-linejoin:round" />
         <path
   d="m 10972,14557 132,229 -97,62 93,97 -318,573"
   id="path104"
   inkscape:connector-curvature="0"
   style="fill:none;stroke:#000000;stroke-width:31;stroke-linecap:round;stroke-linejoin:round" />
         <path
   d="m 10327,14446 133,327 4,216 88,428 36,84 70,106 98,-71 53,-123 66,-420 9,-220 88,-296 -119,-4 -119,13 h -102 l -221,-40 z"
   id="path106"
   inkscape:connector-curvature="0"
   style="fill:#e0ffff;stroke:none" />
         <path
   d="m 10327,14446 133,327 4,216 88,428 36,84 70,106 98,-71 53,-123 66,-420 9,-220 88,-296 -119,-4 -119,13 h -102 l -221,-40 z"
   id="path108"
   inkscape:connector-curvature="0"
   style="fill:none;stroke:#000000;stroke-width:31;stroke-linecap:round;stroke-linejoin:round" />
         <path
   d="m 10658,14460 -75,114 49,172 -22,212 -44,234 -9,229 132,336 106,-340 -8,-229 -27,-225 -35,-208 48,-181 -48,-97 z"
   id="path110"
   inkscape:connector-curvature="0"
   style="fill:#008080;stroke:none" />
         <path
   d="m 10658,14460 -75,114 49,172 -22,212 -44,234 -9,229 132,336 106,-340 -8,-229 -27,-225 -35,-208 48,-181 -48,-97 z"
   id="path112"
   inkscape:connector-curvature="0"
   style="fill:none;stroke:#000000;stroke-width:31;stroke-linecap:round;stroke-linejoin:round" />
         <path
   d="m 10451,14746 101,-128 -30,102 z"
   id="path114"
   inkscape:connector-curvature="0"
   style="fill:#c0ffff;stroke:none" />
         <path
   d="m 10451,14746 101,-128 -30,102 z"
   id="path116"
   inkscape:connector-curvature="0"
   style="fill:none;stroke:#000000;stroke-width:31;stroke-linecap:round;stroke-linejoin:round" />
         <path
   d="m 10870,14742 -97,-128 36,119 z"
   id="path118"
   inkscape:connector-curvature="0"
   style="fill:#c0ffff;stroke:none" />
         <path
   d="m 10870,14742 -97,-128 36,119 z"
   id="path120"
   inkscape:connector-curvature="0"
   style="fill:none;stroke:#000000;stroke-width:31;stroke-linecap:round;stroke-linejoin:round" />
         <path
   d="m 10623,14755 27,5 h 26 l 35,-5 -22,5 h -48 z"
   id="path122"
   inkscape:connector-curvature="0"
   style="fill:#006060;stroke:none" />
         <path
   d="m 10623,14755 27,5 h 26 l 35,-5 -22,5 h -48 z"
   id="path124"
   inkscape:connector-curvature="0"
   style="fill:none;stroke:#000000;stroke-width:31;stroke-linecap:round;stroke-linejoin:round" />
         <path
   d="m 10732,16163 c 0,5 -2,10 -6,15 -4,4 -9,8 -16,11 -6,3 -14,4 -21,4 -8,0 -16,-1 -22,-4 -7,-3 -12,-7 -16,-11 -4,-5 -6,-10 -6,-15 0,-6 2,-11 6,-16 4,-4 9,-8 16,-11 6,-3 14,-4 22,-4 7,0 15,1 21,4 7,3 12,7 16,11 4,5 6,10 6,16 z"
   id="path126"
   inkscape:connector-curvature="0"
   style="fill:#808080;stroke:none" />
         <path
   d="m 10729,16158 v -1 -1 0 -1 -1 l -1,-1 v -1 -1 0 l -1,-1 v -1 -1 l -1,-1 v 0 -1 l -1,-1 v -1 h -1 l -1,-1 v -1 h -1 v -1 l -1,-1 h -1 v -1 l -1,-1 h -1 l -1,-1 v -1 h -1 l -1,-1 h -1 l -1,-1 h -1 l -1,-1 h -1 l -1,-1 h -1 l -1,-1 h -1 l -1,-1 h -1 -1 l -1,-1 h -1 -1 -1 l -1,-1 h -1 -2 -1 -1 l -1,-1 h -1 -1 -1 -2 -1 -1 v 0 h -1 -1 -2 -1 -1 -1 l -1,1 h -1 -1 -2 -1 l -1,1 h -1 -1 -1 l -1,1 h -1 -1 l -1,1 h -1 l -1,1 h -1 l -1,1 h -1 l -1,1 h -1 l -1,1 h -1 l -1,1 h -1 v 1 l -1,1 h -1 l -1,1 v 1 h -1 l -1,1 v 1 h -1 v 1 l -1,1 h -1 v 1 l -1,1 v 1 0 l -1,1 v 1 1 l -1,1 v 0 1 1 l -1,1 v 1 1 0 1 1 0 1 1 0 1 1 l 1,1 v 1 1 0 l 1,1 v 1 1 l 1,1 v 0 1 l 1,1 v 1 h 1 l 1,1 v 1 h 1 v 1 l 1,1 h 1 v 1 l 1,1 h 1 l 1,1 v 1 h 1 l 1,1 h 1 l 1,1 h 1 l 1,1 h 1 l 1,1 h 1 l 1,1 h 1 l 1,1 h 1 1 l 1,1 h 1 1 1 l 1,1 h 1 2 1 1 l 1,1 h 1 1 1 2 1 1 v 0 h 1 1 2 1 1 1 l 1,-1 h 1 1 2 1 l 1,-1 h 1 1 1 l 1,-1 h 1 1 l 1,-1 h 1 l 1,-1 h 1 l 1,-1 h 1 l 1,-1 h 1 l 1,-1 h 1 l 1,-1 h 1 v -1 l 1,-1 h 1 l 1,-1 v -1 h 1 l 1,-1 v -1 h 1 v -1 l 1,-1 h 1 v -1 l 1,-1 v -1 0 l 1,-1 v -1 -1 l 1,-1 v 0 -1 -1 l 1,-1 v -1 -1 0 -1 z"
   id="path128"
   inkscape:connector-curvature="0"
   style="fill:none;stroke:#000000;stroke-width:31;stroke-linecap:round;stroke-linejoin:round" />
         <path
   d="m 10732,16407 c 0,5 -2,10 -6,14 -4,4 -9,8 -16,10 -6,3 -14,4 -21,4 -8,0 -16,-1 -22,-4 -7,-2 -12,-6 -16,-10 -4,-4 -6,-9 -6,-14 0,-5 2,-10 6,-14 4,-4 9,-8 16,-10 6,-3 14,-4 22,-4 7,0 15,1 21,4 7,2 12,6 16,10 4,4 6,9 6,14 z"
   id="path130"
   inkscape:connector-curvature="0"
   style="fill:#808080;stroke:none" />
         <path
   d="m 10729,16405 v -1 0 -1 -1 -1 h -1 v -1 -1 -1 h -1 v -1 l -1,-1 v 0 -1 l -1,-1 h -1 v -1 l -1,-1 v 0 l -1,-1 -1,-1 v 0 l -1,-1 h -1 l -1,-1 -1,-1 v 0 l -1,-1 h -1 l -1,-1 h -1 l -1,-1 h -1 -1 l -1,-1 h -1 l -1,-1 h -1 -2 l -1,-1 h -1 -1 -1 l -1,-1 h -2 -1 -1 -1 l -1,-1 h -2 -1 -1 -1 -2 -1 v 0 h -1 -2 -1 -1 -1 -2 l -1,1 h -1 -1 -1 -2 l -1,1 h -1 -1 -1 l -1,1 h -2 -1 l -1,1 h -1 l -1,1 h -1 -1 l -1,1 h -1 l -1,1 h -1 l -1,1 v 0 l -1,1 -1,1 h -1 l -1,1 v 0 l -1,1 -1,1 v 0 l -1,1 v 1 h -1 l -1,1 v 1 0 l -1,1 v 1 h -1 v 1 1 1 h -1 v 1 1 1 0 1 0 1 0 1 1 1 h 1 v 1 1 1 h 1 v 1 l 1,1 v 0 1 l 1,1 h 1 v 1 l 1,1 v 0 l 1,1 1,1 v 0 l 1,1 h 1 l 1,1 1,1 v 0 l 1,1 h 1 l 1,1 h 1 l 1,1 h 1 1 l 1,1 h 1 l 1,1 h 1 2 l 1,1 h 1 1 1 l 1,1 h 2 1 1 1 l 1,1 h 2 1 1 1 2 1 v 0 h 1 2 1 1 1 2 l 1,-1 h 1 1 1 2 l 1,-1 h 1 1 1 l 1,-1 h 2 1 l 1,-1 h 1 l 1,-1 h 1 1 l 1,-1 h 1 l 1,-1 h 1 l 1,-1 v 0 l 1,-1 1,-1 h 1 l 1,-1 v 0 l 1,-1 1,-1 v 0 l 1,-1 v -1 h 1 l 1,-1 v -1 0 l 1,-1 v -1 h 1 v -1 -1 -1 h 1 v -1 -1 -1 0 z"
   id="path132"
   inkscape:connector-curvature="0"
   style="fill:none;stroke:#000000;stroke-width:31;stroke-linecap:round;stroke-linejoin:round" />
         <path
   d="m 10732,15899 c 0,5 -2,10 -6,14 -4,4 -9,8 -16,10 -6,3 -14,4 -21,4 -8,0 -16,-1 -22,-4 -7,-2 -12,-6 -16,-10 -4,-4 -6,-9 -6,-14 0,-5 2,-10 6,-14 4,-4 9,-8 16,-10 6,-3 14,-4 22,-4 7,0 15,1 21,4 7,2 12,6 16,10 4,4 6,9 6,14 z"
   id="path134"
   inkscape:connector-curvature="0"
   style="fill:#808080;stroke:none" />
         <path
   d="m 10729,15898 v -1 0 -1 -1 -1 h -1 v -1 -1 -1 h -1 v -1 l -1,-1 v 0 -1 l -1,-1 h -1 v -1 l -1,-1 v 0 l -1,-1 -1,-1 v 0 l -1,-1 h -1 l -1,-1 -1,-1 v 0 l -1,-1 h -1 l -1,-1 h -1 l -1,-1 h -1 -1 l -1,-1 h -1 l -1,-1 h -1 -2 l -1,-1 h -1 -1 -1 l -1,-1 h -2 -1 -1 -1 l -1,-1 h -2 -1 -1 -1 -2 -1 v 0 h -1 -2 -1 -1 -1 -2 l -1,1 h -1 -1 -1 -2 l -1,1 h -1 -1 -1 l -1,1 h -2 -1 l -1,1 h -1 l -1,1 h -1 -1 l -1,1 h -1 l -1,1 h -1 l -1,1 v 0 l -1,1 -1,1 h -1 l -1,1 v 0 l -1,1 -1,1 v 0 l -1,1 v 1 h -1 l -1,1 v 1 0 l -1,1 v 1 h -1 v 1 1 1 h -1 v 1 1 1 0 1 0 1 0 1 1 1 h 1 v 1 1 1 h 1 v 1 l 1,1 v 0 1 l 1,1 h 1 v 1 l 1,1 v 0 l 1,1 1,1 v 0 l 1,1 h 1 l 1,1 1,1 v 0 l 1,1 h 1 l 1,1 h 1 l 1,1 h 1 1 l 1,1 h 1 l 1,1 h 1 2 l 1,1 h 1 1 1 l 1,1 h 2 1 1 1 l 1,1 h 2 1 1 1 2 1 v 0 h 1 2 1 1 1 2 l 1,-1 h 1 1 1 2 l 1,-1 h 1 1 1 l 1,-1 h 2 1 l 1,-1 h 1 l 1,-1 h 1 1 l 1,-1 h 1 l 1,-1 h 1 l 1,-1 v 0 l 1,-1 1,-1 h 1 l 1,-1 v 0 l 1,-1 1,-1 v 0 l 1,-1 v -1 h 1 l 1,-1 v -1 0 l 1,-1 v -1 h 1 v -1 -1 -1 h 1 v -1 -1 -1 0 z"
   id="path136"
   inkscape:connector-curvature="0"
   style="fill:none;stroke:#000000;stroke-width:31;stroke-linecap:round;stroke-linejoin:round" />
         <path
   d="m 10049,16101 h 414 v 118 h -414 z"
   id="path138"
   inkscape:connector-curvature="0"
   style="fill:#a0a0a0;stroke:none" />
         <path
   d="m 10049,16101 h 414 v 118 h -414 z"
   id="path140"
   inkscape:connector-curvature="0"
   style="fill:none;stroke:#000000;stroke-width:31;stroke-linecap:round;stroke-linejoin:round" />
         <path
   d="m 10897,16101 h 410 v 118 h -410 z"
   id="path142"
   inkscape:connector-curvature="0"
   style="fill:#a0a0a0;stroke:none" />
         <path
   d="m 10897,16101 h 410 v 118 h -410 z"
   id="path144"
   inkscape:connector-curvature="0"
   style="fill:none;stroke:#000000;stroke-width:31;stroke-linecap:round;stroke-linejoin:round" />
         <path
   d="m 9259,15448 -27,31 -17,26 -14,31 -4,31 4,35 5,44 92,-53 z"
   id="path146"
   inkscape:connector-curvature="0"
   style="fill:#e0a080;stroke:none" />
         <path
   d="m 9259,15448 -27,31 -17,26 -14,31 -4,31 4,35 5,44 92,-53 z"
   id="path148"
   inkscape:connector-curvature="0"
   style="fill:none;stroke:#000000;stroke-width:31;stroke-linecap:round;stroke-linejoin:round" />
         <path
   d="m 9652,15390 -243,252 22,18 22,-5 13,-4 5,-13 h 13 l 26,-14 18,-13 13,-18 v -35 -9 h 18 l 18,-4 17,-22 22,-27 v -26 l 5,-13 v -9 h 13 l 18,-5 4,-17 z"
   id="path150"
   inkscape:connector-curvature="0"
   style="fill:#808080;stroke:none" />
         <path
   d="m 9652,15390 -243,252 22,18 22,-5 13,-4 5,-13 h 13 l 26,-14 18,-13 13,-18 v -35 -9 h 18 l 18,-4 17,-22 22,-27 v -26 l 5,-13 v -9 h 13 l 18,-5 4,-17 z"
   id="path152"
   inkscape:connector-curvature="0"
   style="fill:none;stroke:#000000;stroke-width:31;stroke-linecap:round;stroke-linejoin:round" />
         <path
   d="m 9555,15218 101,40 49,53 4,40 -18,48 -26,22 -49,-8 -26,-9 18,35 v 44 l -23,31 -30,22 h -40 l -13,4 22,27 -14,35 -22,22 -31,5 -22,-14 9,40 -22,13 -31,9 -35,-9 -35,-13 -23,-17 -8,-9 -22,-31 -5,-40 -4,-31 v -44 l 4,-44 13,-53 18,-44 35,-40 40,-39 53,-36 62,-13 z"
   id="path154"
   inkscape:connector-curvature="0"
   style="fill:#e0a080;stroke:none" />
         <path
   d="m 9555,15218 101,40 49,53 4,40 -18,48 -26,22 -49,-8 -26,-9 18,35 v 44 l -23,31 -30,22 h -40 l -13,4 22,27 -14,35 -22,22 -31,5 -22,-14 9,40 -22,13 -31,9 -35,-9 -35,-13 -23,-17 -8,-9 -22,-31 -5,-40 -4,-31 v -44 l 4,-44 13,-53 18,-44 35,-40 40,-39 53,-36 62,-13 z"
   id="path156"
   inkscape:connector-curvature="0"
   style="fill:none;stroke:#000000;stroke-width:31;stroke-linecap:round;stroke-linejoin:round" />
         <path
   d="m 9546,15355 9,27 17,26 22,13 22,9"
   id="path158"
   inkscape:connector-curvature="0"
   style="fill:none;stroke:#000000;stroke-width:31;stroke-linecap:round;stroke-linejoin:round" />
         <path
   d="m 9435,15452 9,27 9,31 18,17 22,18 26,4"
   id="path160"
   inkscape:connector-curvature="0"
   style="fill:none;stroke:#000000;stroke-width:31;stroke-linecap:round;stroke-linejoin:round" />
         <path
   d="m 9360,15545 9,31 9,22 18,17 22,18 31,9"
   id="path162"
   inkscape:connector-curvature="0"
   style="fill:none;stroke:#000000;stroke-width:31;stroke-linecap:round;stroke-linejoin:round" />
         <path
   d="m 9272,15633 -9,-13 h -4 l -18,13 9,-35 -9,-5 v -22 l -4,-26 v -31 l 4,-35 v 39 36 l 9,31 9,13 z"
   id="path164"
   inkscape:connector-curvature="0"
   style="fill:#c08040;stroke:none" />
         <path
   d="m 9272,15633 -9,-13 h -4 l -18,13 9,-35 -9,-5 v -22 l -4,-26 v -31 l 4,-35 v 39 36 l 9,31 9,13 z"
   id="path166"
   inkscape:connector-curvature="0"
   style="fill:none;stroke:#000000;stroke-width:31;stroke-linecap:round;stroke-linejoin:round" />
         <path
   d="m 9652,15682 39,-5 23,-4 35,-9 22,13 h 18 17 l 22,-9 -22,5 -31,-5 -26,-17 -35,13 -45,4 -61,-22 -18,-4 44,22 z"
   id="path168"
   inkscape:connector-curvature="0"
   style="fill:#808080;stroke:none" />
         <path
   d="m 9652,15682 39,-5 23,-4 35,-9 22,13 h 18 17 l 22,-9 -22,5 -31,-5 -26,-17 -35,13 -45,4 -61,-22 -18,-4 44,22 z"
   id="path170"
   inkscape:connector-curvature="0"
   style="fill:none;stroke:#000000;stroke-width:31;stroke-linecap:round;stroke-linejoin:round" />
         <path
   d="m 9210,15651 18,-5 h 9 l 13,-8 h 9 13 l 9,8 13,9 27,5 h -18 -13 l -14,-5 -13,-13 -9,4 -4,5 -13,4 z"
   id="path172"
   inkscape:connector-curvature="0"
   style="fill:#808080;stroke:none" />
         <path
   d="m 9210,15651 18,-5 h 9 l 13,-8 h 9 13 l 9,8 13,9 27,5 h -18 -13 l -14,-5 -13,-13 -9,4 -4,5 -13,4 z"
   id="path174"
   inkscape:connector-curvature="0"
   style="fill:none;stroke:#000000;stroke-width:31;stroke-linecap:round;stroke-linejoin:round" />
         <path
   d="m 12058,15448 31,31 18,26 4,31 5,31 v 35 l -9,44 -84,-53 z"
   id="path176"
   inkscape:connector-curvature="0"
   style="fill:#e0a080;stroke:none" />
         <path
   d="m 12058,15448 31,31 18,26 4,31 5,31 v 35 l -9,44 -84,-53 z"
   id="path178"
   inkscape:connector-curvature="0"
   style="fill:none;stroke:#000000;stroke-width:31;stroke-linecap:round;stroke-linejoin:round" />
         <path
   d="m 11665,15390 239,252 -22,18 -23,-5 -8,-4 -9,-13 h -13 l -27,-14 -18,-13 -8,-18 -5,-35 v -9 h -17 l -18,-4 -18,-22 -17,-27 -5,-26 -4,-13 v -9 h -14 l -13,-5 -9,-17 z"
   id="path180"
   inkscape:connector-curvature="0"
   style="fill:#808080;stroke:none" />
         <path
   d="m 11665,15390 239,252 -22,18 -23,-5 -8,-4 -9,-13 h -13 l -27,-14 -18,-13 -8,-18 -5,-35 v -9 h -17 l -18,-4 -18,-22 -17,-27 -5,-26 -4,-13 v -9 h -14 l -13,-5 -9,-17 z"
   id="path182"
   inkscape:connector-curvature="0"
   style="fill:none;stroke:#000000;stroke-width:31;stroke-linecap:round;stroke-linejoin:round" />
         <path
   d="m 11789,15218 -102,40 -44,53 -9,40 18,48 26,22 45,-8 26,-9 -18,35 v 44 l 23,31 30,22 h 40 l 13,4 -22,27 14,35 26,22 27,5 22,-14 -5,40 18,13 35,9 36,-9 35,-13 22,-17 9,-9 22,-31 4,-40 5,-31 v -44 l -5,-44 -13,-53 -18,-44 -31,-40 -39,-39 -62,-36 -62,-13 z"
   id="path184"
   inkscape:connector-curvature="0"
   style="fill:#e0a080;stroke:none" />
         <path
   d="m 11789,15218 -102,40 -44,53 -9,40 18,48 26,22 45,-8 26,-9 -18,35 v 44 l 23,31 30,22 h 40 l 13,4 -22,27 14,35 26,22 27,5 22,-14 -5,40 18,13 35,9 36,-9 35,-13 22,-17 9,-9 22,-31 4,-40 5,-31 v -44 l -5,-44 -13,-53 -18,-44 -31,-40 -39,-39 -62,-36 -62,-13 z"
   id="path186"
   inkscape:connector-curvature="0"
   style="fill:none;stroke:#000000;stroke-width:31;stroke-linecap:round;stroke-linejoin:round" />
         <path
   d="m 11793,15355 -4,27 -22,26 -22,13 -22,9"
   id="path188"
   inkscape:connector-curvature="0"
   style="fill:none;stroke:#000000;stroke-width:31;stroke-linecap:round;stroke-linejoin:round" />
         <path
   d="m 11904,15452 -5,27 -13,31 -18,17 -22,18 -26,4"
   id="path190"
   inkscape:connector-curvature="0"
   style="fill:none;stroke:#000000;stroke-width:31;stroke-linecap:round;stroke-linejoin:round" />
         <path
   d="m 11983,15545 -4,31 -14,22 -17,17 -27,18 -26,9"
   id="path192"
   inkscape:connector-curvature="0"
   style="fill:none;stroke:#000000;stroke-width:31;stroke-linecap:round;stroke-linejoin:round" />
         <path
   d="m 12045,15633 9,-13 h 4 l 18,13 -9,-35 9,-5 4,-22 v -26 -31 l -4,-35 v 39 36 l -9,31 -9,13 z"
   id="path194"
   inkscape:connector-curvature="0"
   style="fill:#c08040;stroke:none" />
         <path
   d="m 12045,15633 9,-13 h 4 l 18,13 -9,-35 9,-5 4,-22 v -26 -31 l -4,-35 v 39 36 l -9,31 -9,13 z"
   id="path196"
   inkscape:connector-curvature="0"
   style="fill:none;stroke:#000000;stroke-width:31;stroke-linecap:round;stroke-linejoin:round" />
         <path
   d="m 11661,15682 -31,-5 -27,-4 -31,-9 -22,13 h -17 -18 l -22,-9 26,5 27,-5 26,-17 31,13 45,4 57,-22 18,-4 -40,22 z"
   id="path198"
   inkscape:connector-curvature="0"
   style="fill:#808080;stroke:none" />
         <path
   d="m 11661,15682 -31,-5 -27,-4 -31,-9 -22,13 h -17 -18 l -22,-9 26,5 27,-5 26,-17 31,13 45,4 57,-22 18,-4 -40,22 z"
   id="path200"
   inkscape:connector-curvature="0"
   style="fill:none;stroke:#000000;stroke-width:31;stroke-linecap:round;stroke-linejoin:round" />
         <path
   d="m 12107,15651 -18,-5 h -9 l -13,-8 h -9 -13 l -9,8 -13,9 -22,5 h 17 9 l 14,-5 13,-13 9,4 4,5 18,4 z"
   id="path202"
   inkscape:connector-curvature="0"
   style="fill:#808080;stroke:none" />
         <path
   d="m 12107,15651 -18,-5 h -9 l -13,-8 h -9 -13 l -9,8 -13,9 -22,5 h 17 9 l 14,-5 13,-13 9,4 4,5 18,4 z"
   id="path204"
   inkscape:connector-curvature="0"
   style="fill:none;stroke:#000000;stroke-width:31;stroke-linecap:round;stroke-linejoin:round" />
         <path
   d="m 9828,12390 44,336 23,304 22,256 39,238 49,313 88,283 44,123 98,159 110,88 93,49 114,31 142,13 137,-13 141,-40 102,-84 88,-132 79,-177 75,-158 111,-300 110,-367 71,-282 48,-340 36,-304 17,-119 75,-40 49,-44 62,-57 40,-71 -9,-70 -62,-53 -66,-45 -67,-17 v -84 l 18,-234 13,-287 -88,-300 -124,-154 -291,-177 -371,-26 -340,44 -419,141 -230,274 -18,269 18,185 -18,141 -17,102 -71,62 -88,44 -93,57 -31,66 -9,62 36,80 101,57 62,35 z"
   id="path206"
   inkscape:connector-curvature="0"
   style="fill:#e0a080;stroke:none" />
         <path
   d="m 9828,12390 44,336 23,304 22,256 39,238 49,313 88,283 44,123 98,159 110,88 93,49 114,31 142,13 137,-13 141,-40 102,-84 88,-132 79,-177 75,-158 111,-300 110,-367 71,-282 48,-340 36,-304 17,-119 75,-40 49,-44 62,-57 40,-71 -9,-70 -62,-53 -66,-45 -67,-17 v -84 l 18,-234 13,-287 -88,-300 -124,-154 -291,-177 -371,-26 -340,44 -419,141 -230,274 -18,269 18,185 -18,141 -17,102 -71,62 -88,44 -93,57 -31,66 -9,62 36,80 101,57 62,35 z"
   id="path208"
   inkscape:connector-curvature="0"
   style="fill:none;stroke:#000000;stroke-width:31;stroke-linecap:round;stroke-linejoin:round" />
         <path
   d="m 11497,11579 71,132 75,110 88,71 40,-57 44,-98 36,-114 70,-44 40,-80 9,-97 -35,-79 -36,-53 84,-75 71,-80 31,-79 -22,-84 -111,-66 -115,-40 -123,-26 -102,-36 -70,-48 -58,-66 -40,-53 -61,-66 -75,-36 -89,-22 -101,14 -31,-80 9,-44 -22,-57 -76,-27 h -75 l -101,27 -150,39 -133,-22 -172,-22 -141,-31 -106,-8 -80,57 -53,88 -62,80 -88,79 -101,71 -120,66 -8,88 48,93 18,61 -31,75 -31,75 -22,62 -9,93 44,97 40,62 9,75 22,105 44,98 31,79 57,84 36,62 35,-80 62,-84 97,-61 84,-80 48,-70 18,-62 -18,-58 14,-53 13,-39 -9,-53 -35,-62 -53,-26 -53,-18 9,-44 26,-49 35,-53 18,-17 9,-36 18,-35 57,-31 h 79 71 53 l 75,-13 h 66 l 75,22 40,35 36,27 39,22 71,-5 88,-39 71,-31 71,-35 44,-45 53,-57 26,-40 49,-17 57,9 88,8 23,53 26,58 35,57 36,40 13,44 -35,48 -18,58 v 39 l 18,62 26,44 53,44 -53,115 z"
   id="path210"
   inkscape:connector-curvature="0"
   style="fill:#a04000;stroke:none" />
         <path
   d="m 11497,11579 71,132 75,110 88,71 40,-57 44,-98 36,-114 70,-44 40,-80 9,-97 -35,-79 -36,-53 84,-75 71,-80 31,-79 -22,-84 -111,-66 -115,-40 -123,-26 -102,-36 -70,-48 -58,-66 -40,-53 -61,-66 -75,-36 -89,-22 -101,14 -31,-80 9,-44 -22,-57 -76,-27 h -75 l -101,27 -150,39 -133,-22 -172,-22 -141,-31 -106,-8 -80,57 -53,88 -62,80 -88,79 -101,71 -120,66 -8,88 48,93 18,61 -31,75 -31,75 -22,62 -9,93 44,97 40,62 9,75 22,105 44,98 31,79 57,84 36,62 35,-80 62,-84 97,-61 84,-80 48,-70 18,-62 -18,-58 14,-53 13,-39 -9,-53 -35,-62 -53,-26 -53,-18 9,-44 26,-49 35,-53 18,-17 9,-36 18,-35 57,-31 h 79 71 53 l 75,-13 h 66 l 75,22 40,35 36,27 39,22 71,-5 88,-39 71,-31 71,-35 44,-45 53,-57 26,-40 49,-17 57,9 88,8 23,53 26,58 35,57 36,40 13,44 -35,48 -18,58 v 39 l 18,62 26,44 53,44 -53,115 z"
   id="path212"
   inkscape:connector-curvature="0"
   style="fill:none;stroke:#000000;stroke-width:31;stroke-linecap:round;stroke-linejoin:round" />
         <path
   d="m 10605,10908 -83,-35 -45,-84 14,-49 66,-70 -40,22 -40,22 -44,40 v 48 l 27,27 v 26 l -49,9 -44,-40 -13,-53 -44,44 57,58 v 31 l 84,-5 71,-9 z"
   id="path214"
   inkscape:connector-curvature="0"
   style="fill:#604020;stroke:none" />
         <path
   d="m 10605,10908 -83,-35 -45,-84 14,-49 66,-70 -40,22 -40,22 -44,40 v 48 l 27,27 v 26 l -49,9 -44,-40 -13,-53 -44,44 57,58 v 31 l 84,-5 71,-9 z"
   id="path216"
   inkscape:connector-curvature="0"
   style="fill:none;stroke:#000000;stroke-width:31;stroke-linecap:round;stroke-linejoin:round" />
         <path
   d="m 11184,10754 26,-71 -8,-35 -71,-18 h -57 l 44,-26 66,4 57,40 14,39 z"
   id="path218"
   inkscape:connector-curvature="0"
   style="fill:#604020;stroke:none" />
         <path
   d="m 11184,10754 26,-71 -8,-35 -71,-18 h -57 l 44,-26 66,4 57,40 14,39 z"
   id="path220"
   inkscape:connector-curvature="0"
   style="fill:none;stroke:#000000;stroke-width:31;stroke-linecap:round;stroke-linejoin:round" />
         <path
   d="m 10049,11159 -75,-4 -13,-18 -31,-70 v -40 l -9,62 9,48 22,36 z"
   id="path222"
   inkscape:connector-curvature="0"
   style="fill:#604020;stroke:none" />
         <path
   d="m 10049,11159 -75,-4 -13,-18 -31,-70 v -40 l -9,62 9,48 22,36 z"
   id="path224"
   inkscape:connector-curvature="0"
   style="fill:none;stroke:#000000;stroke-width:31;stroke-linecap:round;stroke-linejoin:round" />
         <path
   d="m 10067,11155 -89,44 -22,44 5,44 48,31 -31,-53 5,-26 35,-31 z"
   id="path226"
   inkscape:connector-curvature="0"
   style="fill:#604020;stroke:none" />
         <path
   d="m 10067,11155 -89,44 -22,44 5,44 48,31 -31,-53 5,-26 35,-31 z"
   id="path228"
   inkscape:connector-curvature="0"
   style="fill:none;stroke:#000000;stroke-width:31;stroke-linecap:round;stroke-linejoin:round" />
         <path
   d="m 11546,11314 93,31 h 57 l 40,-31 -40,31 -48,31 26,26 49,18 -75,9 -23,-22 -22,-31 -48,13 -22,48 -27,-48 13,-40 z"
   id="path230"
   inkscape:connector-curvature="0"
   style="fill:#604020;stroke:none" />
         <path
   d="m 11546,11314 93,31 h 57 l 40,-31 -40,31 -48,31 26,26 49,18 -75,9 -23,-22 -22,-31 -48,13 -22,48 -27,-48 13,-40 z"
   id="path232"
   inkscape:connector-curvature="0"
   style="fill:none;stroke:#000000;stroke-width:31;stroke-linecap:round;stroke-linejoin:round" />
         <path
   d="m 10998,11879 186,39 132,44 93,53 35,53 31,93 -22,84 -31,88 -66,79 -97,62 -97,36 -119,39 -146,13 h -159 l -163,-22 -164,-39 -93,-62 -53,-75 v -79 l 14,-80 53,-84 48,-66 93,-57 -44,-36"
   id="path234"
   inkscape:connector-curvature="0"
   style="fill:none;stroke:#000000;stroke-width:31;stroke-linecap:round;stroke-linejoin:round" />
         <path
   d="m 11258,13240 c 0,28 -25,55 -71,80 -47,24 -114,44 -195,58 -81,15 -172,22 -265,22 -94,0 -185,-7 -266,-22 -81,-14 -148,-34 -195,-58 -46,-25 -71,-52 -71,-80 0,-29 25,-56 71,-81 47,-24 114,-44 195,-58 81,-15 172,-22 266,-22 93,0 184,7 265,22 81,14 148,34 195,58 46,25 71,52 71,81 z"
   id="path236"
   inkscape:connector-curvature="0"
   style="fill:#000000;stroke:none" />
         <path
   d="m 11255,13237 -1,-8 -2,-8 -3,-8 -5,-8 -6,-8 -7,-8 -9,-7 -10,-8 -11,-7 -13,-7 -13,-7 -15,-7 -16,-6 -17,-7 -18,-6 -19,-5 -20,-6 -21,-5 -21,-5 -23,-4 -23,-4 -24,-4 -24,-3 -25,-3 -25,-3 -26,-2 -26,-2 -27,-1 -26,-1 -27,-1 h -27 v 0 h -27 l -27,1 -26,1 -27,1 -26,2 -26,2 -25,3 -25,3 -24,3 -24,4 -23,4 -23,4 -21,5 -21,5 -20,6 -19,5 -18,6 -17,7 -16,6 -15,7 -13,7 -13,7 -11,7 -10,8 -9,7 -7,8 -6,8 -5,8 -3,8 -2,8 -1,8 v 0 l 1,8 2,8 3,8 5,8 6,8 7,8 9,7 10,8 11,7 13,7 13,7 15,7 16,6 17,7 18,6 19,5 20,6 21,5 21,5 23,4 23,4 24,4 24,3 25,3 25,3 26,2 26,2 27,1 26,1 27,1 h 27 v 0 h 27 l 27,-1 26,-1 27,-1 26,-2 26,-2 25,-3 25,-3 24,-3 24,-4 23,-4 23,-4 21,-5 21,-5 20,-6 19,-5 18,-6 17,-7 16,-6 15,-7 13,-7 13,-7 11,-7 10,-8 9,-7 7,-8 6,-8 5,-8 3,-8 2,-8 z"
   id="path238"
   inkscape:connector-curvature="0"
   style="fill:none;stroke:#000000;stroke-width:31;stroke-linecap:round;stroke-linejoin:round" />
         <path
   d="m 11152,13283 c 0,16 -20,31 -58,45 -37,14 -92,25 -157,33 -65,8 -140,12 -215,12 -75,0 -150,-4 -215,-12 -65,-8 -120,-19 -157,-33 -38,-14 -58,-29 -58,-45 0,-16 20,-31 58,-45 37,-14 92,-25 157,-33 65,-8 140,-12 215,-12 75,0 150,4 215,12 65,8 120,19 157,33 38,14 58,29 58,45 z"
   id="path240"
   inkscape:connector-curvature="0"
   style="fill:#ff0000;stroke:none" />
         <path
   d="m 11148,13282 -1,-4 -1,-5 -3,-4 -4,-5 -5,-4 -6,-4 -7,-5 -8,-4 -9,-4 -10,-4 -11,-4 -12,-3 -13,-4 -13,-3 -15,-4 -15,-3 -16,-3 -17,-3 -17,-2 -19,-3 -18,-2 -20,-2 -19,-2 -20,-2 -21,-1 -21,-1 -21,-1 -21,-1 -22,-1 h -21 -22 v 0 h -22 -21 l -22,1 -21,1 -21,1 -21,1 -21,1 -20,2 -19,2 -20,2 -18,2 -19,3 -17,2 -17,3 -16,3 -15,3 -15,4 -13,3 -13,4 -12,3 -11,4 -10,4 -9,4 -8,4 -7,5 -6,4 -5,4 -4,5 -3,4 -1,5 -1,4 v 0 l 1,4 1,5 3,4 4,5 5,4 6,4 7,5 8,4 9,4 10,4 11,4 12,3 13,4 13,3 15,4 15,3 16,3 17,3 17,2 19,3 18,2 20,2 19,2 20,2 21,1 21,1 21,1 21,1 22,1 h 21 22 v 0 h 22 21 l 22,-1 21,-1 21,-1 21,-1 21,-1 20,-2 19,-2 20,-2 18,-2 19,-3 17,-2 17,-3 16,-3 15,-3 15,-4 13,-3 13,-4 12,-3 11,-4 10,-4 9,-4 8,-4 7,-5 6,-4 5,-4 4,-5 3,-4 1,-5 z"
   id="path242"
   inkscape:connector-curvature="0"
   style="fill:none;stroke:#ff0000;stroke-width:31;stroke-linecap:round;stroke-linejoin:round" />
         <path
   d="m 10274,13162 h 882 v 96 h -882 z"
   id="path244"
   inkscape:connector-curvature="0"
   style="fill:#000000;stroke:none" />
         <path
   d="m 10274,13162 h 882 v 96 h -882 z"
   id="path246"
   inkscape:connector-curvature="0"
   style="fill:none;stroke:#000000;stroke-width:31;stroke-linecap:round;stroke-linejoin:round" />
         <path
   d="m 10217,13048 181,13 207,9 h 243 l 217,-9 172,-13 9,132 h -1034 z"
   id="path248"
   inkscape:connector-curvature="0"
   style="fill:#ffffff;stroke:none" />
         <path
   d="m 10217,13048 181,13 207,9 h 243 l 217,-9 172,-13 9,132 h -1034 z"
   id="path250"
   inkscape:connector-curvature="0"
   style="fill:none;stroke:#000000;stroke-width:31;stroke-linecap:round;stroke-linejoin:round" />
         <path
   d="m 10163,13409 7,-7 6,-7 6,-8 6,-8 6,-9 6,-10 5,-10 5,-11 5,-11 4,-12 4,-12 4,-12 3,-13 4,-13 2,-14 3,-13 2,-14 2,-14 1,-15 1,-14 1,-14 v -15 -14 l -1,-15 v -14 l -2,-15 -1,-14 -2,-14 -3,-14 -2,-13 -3,-13 -4,-13 -3,-13 -4,-12 -4,-12 -5,-11 -5,-11 -5,-11 -6,-10 -5,-9 -6,-9 -6,-8 -6,-7 -7,-7 -7,-7 -6,-5 -7,-5 -8,-4 -7,-4"
   id="path252"
   inkscape:connector-curvature="0"
   style="fill:none;stroke:#000000;stroke-width:31;stroke-linecap:round;stroke-linejoin:round" />
         <path
   d="m 11350,12880 -7,3 -8,4 -7,4 -7,5 -8,5 -6,7 -7,7 -7,8 -6,8 -6,9 -6,9 -6,10 -5,11 -5,11 -5,12 -5,12 -4,12 -3,13 -4,13 -3,13 -3,14 -2,14 -2,14 -2,15 -1,14 -1,15 v 14 15 15 l 1,14 1,15 2,14 2,14 2,14 3,14 3,13 3,14 4,12 4,13 5,12 4,11 5,11 6,11 5,10 6,10 6,9 7,8 6,8 7,7 7,6"
   id="path254"
   inkscape:connector-curvature="0"
   style="fill:none;stroke:#000000;stroke-width:31;stroke-linecap:round;stroke-linejoin:round" />
         <path
   d="m 11361,11243 -124,-66 -110,-35 -84,-9 -120,26"
   id="path256"
   inkscape:connector-curvature="0"
   style="fill:none;stroke:#a04000;stroke-width:137;stroke-linecap:round;stroke-linejoin:round" />
         <path
   d="m 10310,11257 66,-80 115,-40 h 119 l 115,36"
   id="path258"
   inkscape:connector-curvature="0"
   style="fill:none;stroke:#a04000;stroke-width:137;stroke-linecap:round;stroke-linejoin:round" />
         <path
   d="m 10701,11535 c 0,48 -4,96 -13,138 -8,42 -21,77 -35,102 -15,24 -32,37 -48,37 -17,0 -34,-13 -49,-37 -14,-25 -27,-60 -35,-102 -9,-42 -13,-90 -13,-138 0,-49 4,-97 13,-139 8,-42 21,-77 35,-102 15,-24 32,-37 49,-37 16,0 33,13 48,37 14,25 27,60 35,102 9,42 13,90 13,139 z"
   id="path260"
   inkscape:connector-curvature="0"
   style="fill:#000000;stroke:none" />
         <path
   d="m 11178,11543 c 0,48 -4,96 -13,138 -8,42 -21,77 -35,102 -15,24 -32,37 -48,37 -17,0 -34,-13 -49,-37 -14,-25 -27,-60 -35,-102 -9,-42 -13,-90 -13,-138 0,-49 4,-97 13,-139 8,-42 21,-77 35,-102 15,-24 32,-37 49,-37 16,0 33,13 48,37 14,25 27,60 35,102 9,42 13,90 13,139 z"
   id="path262"
   inkscape:connector-curvature="0"
   style="fill:#000000;stroke:none" />
        </g>
       </g>
      </g>
     </g>
    </g>
   </g>
  </g>
 </g>
</svg>