<?xml version="1.0" encoding="UTF-8" standalone="no"?>
<svg
   xmlns:ooo="http://xml.openoffice.org/svg/export"
   xmlns:dc="http://purl.org/dc/elements/1.1/"
   xmlns:cc="http://creativecommons.org/ns#"
   xmlns:rdf="http://www.w3.org/1999/02/22-rdf-syntax-ns#"
   xmlns:svg="http://www.w3.org/2000/svg"
   xmlns="http://www.w3.org/2000/svg"
   xmlns:sodipodi="http://sodipodi.sourceforge.net/DTD/sodipodi-0.dtd"
   xmlns:inkscape="http://www.inkscape.org/namespaces/inkscape"
   version="1.2"
   width="92.959999mm"
   height="91.5mm"
   viewBox="0 0 9295.9999 9150"
   preserveAspectRatio="xMidYMid"
   xml:space="preserve"
   id="svg109"
   sodipodi:docname="taxibus.svg"
   style="fill-rule:evenodd;stroke-width:28.22200012;stroke-linejoin:round"
   inkscape:version="0.92.5 (2060ec1f9f, 2020-04-08)"><metadata
   id="metadata113"><rdf:RDF><cc:Work
       rdf:about=""><dc:format>image/svg+xml</dc:format><dc:type
         rdf:resource="http://purl.org/dc/dcmitype/StillImage" /></cc:Work></rdf:RDF></metadata><sodipodi:namedview
   pagecolor="#ffffff"
   bordercolor="#666666"
   borderopacity="1"
   objecttolerance="10"
   gridtolerance="10"
   guidetolerance="10"
   inkscape:pageopacity="0"
   inkscape:pageshadow="2"
   inkscape:window-width="664"
   inkscape:window-height="487"
   id="namedview111"
   showgrid="false"
   inkscape:zoom="0.2102413"
   inkscape:cx="175.67244"
   inkscape:cy="172.91338"
   inkscape:window-x="0"
   inkscape:window-y="0"
   inkscape:window-maximized="0"
   inkscape:current-layer="svg109" />
 <defs
   class="ClipPathGroup"
   id="defs8">
  <clipPath
   id="presentation_clip_path"
   clipPathUnits="userSpaceOnUse">
   <rect
   x="0"
   y="0"
   width="21000"
   height="29700"
   id="rect2" />
  </clipPath>
  <clipPath
   id="presentation_clip_path_shrink"
   clipPathUnits="userSpaceOnUse">
   <rect
   x="21"
   y="29"
   width="20958"
   height="29641"
   id="rect5" />
  </clipPath>
 </defs>
 <defs
   class="TextShapeIndex"
   id="defs12">
  <g
   ooo:slide="id1"
   ooo:id-list="id3"
   id="g10" />
 </defs>
 <defs
   class="EmbeddedBulletChars"
   id="defs44">
  <g
   id="bullet-char-template-57356"
   transform="matrix(4.8828125e-4,0,0,-4.8828125e-4,0,0)">
   <path
   d="M 580,1141 1163,571 580,0 -4,571 Z"
   id="path14"
   inkscape:connector-curvature="0" />
  </g>
  <g
   id="bullet-char-template-57354"
   transform="matrix(4.8828125e-4,0,0,-4.8828125e-4,0,0)">
   <path
   d="M 8,1128 H 1137 V 0 H 8 Z"
   id="path17"
   inkscape:connector-curvature="0" />
  </g>
  <g
   id="bullet-char-template-10146"
   transform="matrix(4.8828125e-4,0,0,-4.8828125e-4,0,0)">
   <path
   d="M 174,0 602,739 174,1481 1456,739 Z M 1358,739 309,1346 659,739 Z"
   id="path20"
   inkscape:connector-curvature="0" />
  </g>
  <g
   id="bullet-char-template-10132"
   transform="matrix(4.8828125e-4,0,0,-4.8828125e-4,0,0)">
   <path
   d="M 2015,739 1276,0 H 717 l 543,543 H 174 v 393 h 1086 l -543,545 h 557 z"
   id="path23"
   inkscape:connector-curvature="0" />
  </g>
  <g
   id="bullet-char-template-10007"
   transform="matrix(4.8828125e-4,0,0,-4.8828125e-4,0,0)">
   <path
   d="m 0,-2 c -7,16 -16,29 -25,39 l 381,530 c -94,256 -141,385 -141,387 0,25 13,38 40,38 9,0 21,-2 34,-5 21,4 42,12 65,25 l 27,-13 111,-251 280,301 64,-25 24,25 c 21,-10 41,-24 62,-43 C 886,937 835,863 770,784 769,783 710,716 594,584 L 774,223 c 0,-27 -21,-55 -63,-84 l 16,-20 C 717,90 699,76 672,76 641,76 570,178 457,381 L 164,-76 c -22,-34 -53,-51 -92,-51 -42,0 -63,17 -64,51 -7,9 -10,24 -10,44 0,9 1,19 2,30 z"
   id="path26"
   inkscape:connector-curvature="0" />
  </g>
  <g
   id="bullet-char-template-10004"
   transform="matrix(4.8828125e-4,0,0,-4.8828125e-4,0,0)">
   <path
   d="M 285,-33 C 182,-33 111,30 74,156 52,228 41,333 41,471 c 0,78 14,145 41,201 34,71 87,106 158,106 53,0 88,-31 106,-94 l 23,-176 c 8,-64 28,-97 59,-98 l 735,706 c 11,11 33,17 66,17 42,0 63,-15 63,-46 V 965 c 0,-36 -10,-64 -30,-84 L 442,47 C 390,-6 338,-33 285,-33 Z"
   id="path29"
   inkscape:connector-curvature="0" />
  </g>
  <g
   id="bullet-char-template-9679"
   transform="matrix(4.8828125e-4,0,0,-4.8828125e-4,0,0)">
   <path
   d="M 813,0 C 632,0 489,54 383,161 276,268 223,411 223,592 c 0,181 53,324 160,431 106,107 249,161 430,161 179,0 323,-54 432,-161 108,-107 162,-251 162,-431 0,-180 -54,-324 -162,-431 C 1136,54 992,0 813,0 Z"
   id="path32"
   inkscape:connector-curvature="0" />
  </g>
  <g
   id="bullet-char-template-8226"
   transform="matrix(4.8828125e-4,0,0,-4.8828125e-4,0,0)">
   <path
   d="m 346,457 c -73,0 -137,26 -191,78 -54,51 -81,114 -81,188 0,73 27,136 81,188 54,52 118,78 191,78 73,0 134,-26 185,-79 51,-51 77,-114 77,-187 0,-75 -25,-137 -76,-188 -50,-52 -112,-78 -186,-78 z"
   id="path35"
   inkscape:connector-curvature="0" />
  </g>
  <g
   id="bullet-char-template-8211"
   transform="matrix(4.8828125e-4,0,0,-4.8828125e-4,0,0)">
   <path
   d="M -4,459 H 1135 V 606 H -4 Z"
   id="path38"
   inkscape:connector-curvature="0" />
  </g>
  <g
   id="bullet-char-template-61548"
   transform="matrix(4.8828125e-4,0,0,-4.8828125e-4,0,0)">
   <path
   d="m 173,740 c 0,163 58,303 173,419 116,115 255,173 419,173 163,0 302,-58 418,-173 116,-116 174,-256 174,-419 0,-163 -58,-303 -174,-418 C 1067,206 928,148 765,148 601,148 462,206 346,322 231,437 173,577 173,740 Z"
   id="path41"
   inkscape:connector-curvature="0" />
  </g>
 </defs>
 <g
   id="g49"
   transform="translate(-5852,-10275)">
  <g
   id="id2"
   class="Master_Slide">
   <g
   id="bg-id2"
   class="Background" />
   <g
   id="bo-id2"
   class="BackgroundObjects" />
  </g>
 </g>
 <g
   class="SlideGroup"
   id="g107"
   transform="translate(-5852,-10275)">
  <g
   id="g105">
   <g
   id="container-id1">
    <g
   id="id1"
   class="Slide"
   clip-path="url(#presentation_clip_path)">
     <g
   class="Page"
   id="g101">
      <g
   class="Graphic"
   id="g99">
       <g
   id="id3">
        <rect
   class="BoundingBox"
   x="5852"
   y="10275"
   width="9296"
   height="9150"
   id="rect51"
   style="fill:none;stroke:none" />
        <defs
   id="defs56">
         <clipPath
   id="clip_path_1"
   clipPathUnits="userSpaceOnUse">
          <path
   d="m 5856,10284 h 9282 v 9140 H 5856 Z"
   id="path53"
   inkscape:connector-curvature="0" />
         </clipPath>
        </defs>
        <g
   clip-path="url(#clip_path_1)"
   id="g96">
         <path
   d="m 10493,19411 h 3476 c 631,0 1143,-505 1143,-1129 v -6860 c 0,-624 -512,-1129 -1143,-1129 H 7017 c -631,0 -1143,505 -1143,1129 v 6860 c 0,624 512,1129 1143,1129 z"
   id="path58"
   inkscape:connector-curvature="0"
   style="fill:#ffffff;stroke:none" />
         <path
   d="m 10493,19411 h 3476 c 631,0 1143,-505 1143,-1129 v -6860 c 0,-624 -512,-1129 -1143,-1129 H 7017 c -631,0 -1143,505 -1143,1129 v 6860 c 0,624 512,1129 1143,1129 z"
   id="path60"
   inkscape:connector-curvature="0"
   style="fill:none;stroke:#000000" />
         <path
   d="m 10767,16685 h 4094 v -1910 l -278,-1915 -13,-44 -22,-35 -40,-44 -53,-31 -61,-40 -71,-35 -66,-18 -97,-35 -102,-31 -128,-31 -136,-26 -150,-18 -80,-9 -128,-17 -115,-14 -141,-8 -172,-5 h -145 -164 l -172,5 -172,4 -181,18 -123,17 -133,13 -119,18 -132,27 -185,53 -119,39 -80,27 -75,35 -70,40 -53,53 -31,44 -14,48 -273,1783 z"
   id="path62"
   inkscape:connector-curvature="0"
   style="fill:#000000;stroke:none" />
         <path
   d="m 11728,15752 c 0,50 -13,100 -38,144 -25,44 -61,80 -104,105 -43,26 -92,39 -142,39 -50,0 -99,-13 -142,-39 -43,-25 -79,-61 -104,-105 -25,-44 -38,-94 -38,-144 0,-51 13,-101 38,-145 25,-44 61,-80 104,-105 43,-26 92,-39 142,-39 50,0 99,13 142,39 43,25 79,61 104,105 25,44 38,94 38,145 z"
   id="path64"
   inkscape:connector-curvature="0"
   style="fill:#ffffff;stroke:none" />
         <path
   d="m 14472,15752 c 0,50 -13,100 -38,144 -25,44 -60,80 -103,105 -43,26 -91,39 -141,39 -50,0 -98,-13 -141,-39 -43,-25 -78,-61 -103,-105 -25,-44 -38,-94 -38,-144 0,-51 13,-101 38,-145 25,-44 60,-80 103,-105 43,-26 91,-39 141,-39 50,0 98,13 141,39 43,25 78,61 103,105 25,44 38,94 38,145 z"
   id="path66"
   inkscape:connector-curvature="0"
   style="fill:#ffffff;stroke:none" />
         <path
   d="m 11402,13284 h -22 l -26,9 -27,17 -26,14 -18,17 -18,18 -13,26 -9,22 -8,22 -137,1165 4,35 9,31 13,40 18,31 26,31 27,31 35,17 27,18 39,13 67,9 h 2929 27 l 26,-9 26,-9 23,-13 35,-18 26,-26 27,-31 17,-18 9,-26 14,-40 8,-35 v -31 l -154,-1165 -13,-39 -14,-27 -22,-17 -22,-22 -17,-14 -36,-17 -31,-9 h -26 z"
   id="path68"
   inkscape:connector-curvature="0"
   style="fill:#ffffff;stroke:none" />
         <path
   d="m 11693,12715 h 2209 v 330 h -2209 z"
   id="path70"
   inkscape:connector-curvature="0"
   style="fill:#ffffff;stroke:none" />
         <path
   d="m 11701,17153 c 0,46 -12,90 -36,130 -24,40 -57,72 -98,95 -41,23 -87,35 -134,35 -48,0 -94,-12 -135,-35 -41,-23 -74,-55 -98,-95 -24,-40 -36,-84 -36,-130 0,-46 12,-90 36,-130 24,-40 57,-72 98,-95 41,-23 87,-35 135,-35 47,0 93,12 134,35 41,23 74,55 98,95 24,40 36,84 36,130 z"
   id="path72"
   inkscape:connector-curvature="0"
   style="fill:#000000;stroke:none" />
         <path
   d="m 11164,16628 h 537 v 528 h -537 z"
   id="path74"
   inkscape:connector-curvature="0"
   style="fill:#000000;stroke:none" />
         <path
   d="m 14415,17153 c 0,46 -12,90 -36,130 -23,40 -57,72 -97,95 -41,23 -87,35 -133,35 -47,0 -93,-12 -134,-35 -40,-23 -74,-55 -97,-95 -24,-40 -36,-84 -36,-130 0,-46 12,-90 36,-130 23,-40 57,-72 97,-95 41,-23 87,-35 134,-35 46,0 92,12 133,35 40,23 74,55 97,95 24,40 36,84 36,130 z"
   id="path76"
   inkscape:connector-curvature="0"
   style="fill:#000000;stroke:none" />
         <path
   d="m 13882,16628 h 542 v 528 h -542 z"
   id="path78"
   inkscape:connector-curvature="0"
   style="fill:#000000;stroke:none" />
         <path
   d="m 6562,15084 h -31 -30 -40 l -49,13 -35,13 -35,14 -36,22 -26,26 -27,22 -17,27 -18,22 -17,26 -14,27 -13,35 -9,26 -9,36 v 35 1257 h 393 657 2233 657 397 v -1257 -27 l -8,-30 -9,-40 -14,-31 -13,-31 -22,-31 -26,-31 -27,-31 -35,-30 -31,-14 -31,-17 -26,-14 -36,-8 -39,-9 h -31 -27 -35 l -490,-1112 -26,-40 -27,-22 -30,-13 -36,-13 -39,-13 -45,-9 h -39 l -40,-5 h -525 v -375 h -931 v 375 h -516 l -71,5 -35,9 -35,8 -36,9 -35,22 -22,14 -22,22 -18,26 z"
   id="path80"
   inkscape:connector-curvature="0"
   style="fill:#000000;stroke:none" />
         <path
   d="m 7126,15805 c 0,57 -15,113 -43,162 -28,49 -69,90 -118,119 -49,28 -104,43 -160,43 -57,0 -112,-15 -161,-43 -49,-29 -90,-70 -118,-119 -28,-49 -43,-105 -43,-162 0,-57 15,-113 43,-162 28,-49 69,-90 118,-119 49,-28 104,-43 161,-43 56,0 111,15 160,43 49,29 90,70 118,119 28,49 43,105 43,162 z"
   id="path82"
   inkscape:connector-curvature="0"
   style="fill:#ffffff;stroke:none" />
         <path
   d="m 10091,15805 c 0,57 -15,113 -44,162 -28,49 -69,90 -119,119 -50,28 -106,43 -163,43 -57,0 -113,-15 -163,-43 -50,-29 -91,-70 -119,-119 -29,-49 -44,-105 -44,-162 0,-57 15,-113 44,-162 28,-49 69,-90 119,-119 50,-28 106,-43 163,-43 57,0 113,15 163,43 50,29 91,70 119,119 29,49 44,105 44,162 z"
   id="path84"
   inkscape:connector-curvature="0"
   style="fill:#ffffff;stroke:none" />
         <path
   d="m 7259,14153 h 2140 l 375,922 H 6889 Z"
   id="path86"
   inkscape:connector-curvature="0"
   style="fill:#ffffff;stroke:none" />
         <path
   d="m 7219,17157 c 0,46 -13,90 -36,130 -24,40 -58,72 -99,95 -42,23 -88,35 -136,35 -48,0 -94,-12 -135,-35 -42,-23 -76,-55 -100,-95 -23,-40 -36,-84 -36,-130 0,-46 13,-90 36,-130 24,-40 58,-72 100,-95 41,-23 87,-35 135,-35 48,0 94,12 136,35 41,23 75,55 99,95 23,40 36,84 36,130 z"
   id="path88"
   inkscape:connector-curvature="0"
   style="fill:#000000;stroke:none" />
         <path
   d="m 6677,16632 h 546 v 528 h -546 z"
   id="path90"
   inkscape:connector-curvature="0"
   style="fill:#000000;stroke:none" />
         <path
   d="m 9927,17157 c 0,46 -12,90 -36,130 -24,40 -57,72 -98,95 -41,23 -87,35 -134,35 -48,0 -94,-12 -135,-35 -41,-23 -74,-55 -98,-95 -24,-40 -36,-84 -36,-130 0,-46 12,-90 36,-130 24,-40 57,-72 98,-95 41,-23 87,-35 135,-35 47,0 93,12 134,35 41,23 74,55 98,95 24,40 36,84 36,130 z"
   id="path92"
   inkscape:connector-curvature="0"
   style="fill:#000000;stroke:none" />
         <path
   d="m 9390,16632 h 542 v 528 h -542 z"
   id="path94"
   inkscape:connector-curvature="0"
   style="fill:#000000;stroke:none" />
        </g>
       </g>
      </g>
     </g>
    </g>
   </g>
  </g>
 </g>
</svg>