<?xml version="1.0" encoding="UTF-8" standalone="no"?>
<svg
   xmlns:ooo="http://xml.openoffice.org/svg/export"
   xmlns:dc="http://purl.org/dc/elements/1.1/"
   xmlns:cc="http://creativecommons.org/ns#"
   xmlns:rdf="http://www.w3.org/1999/02/22-rdf-syntax-ns#"
   xmlns:svg="http://www.w3.org/2000/svg"
   xmlns="http://www.w3.org/2000/svg"
   xmlns:sodipodi="http://sodipodi.sourceforge.net/DTD/sodipodi-0.dtd"
   xmlns:inkscape="http://www.inkscape.org/namespaces/inkscape"
   version="1.2"
   width="54.860001mm"
   height="102.09mm"
   viewBox="0 0 5486.0001 10209"
   preserveAspectRatio="xMidYMid"
   xml:space="preserve"
   id="svg75"
   sodipodi:docname="thailnd.svg"
   style="fill-rule:evenodd;stroke-width:28.22200012;stroke-linejoin:round"
   inkscape:version="0.92.5 (2060ec1f9f, 2020-04-08)"><metadata
   id="metadata79"><rdf:RDF><cc:Work
       rdf:about=""><dc:format>image/svg+xml</dc:format><dc:type
         rdf:resource="http://purl.org/dc/dcmitype/StillImage" /></cc:Work></rdf:RDF></metadata><sodipodi:namedview
   pagecolor="#ffffff"
   bordercolor="#666666"
   borderopacity="1"
   objecttolerance="10"
   gridtolerance="10"
   guidetolerance="10"
   inkscape:pageopacity="0"
   inkscape:pageshadow="2"
   inkscape:window-width="664"
   inkscape:window-height="487"
   id="namedview77"
   showgrid="false"
   inkscape:zoom="0.2102413"
   inkscape:cx="103.67244"
   inkscape:cy="192.90708"
   inkscape:window-x="0"
   inkscape:window-y="0"
   inkscape:window-maximized="0"
   inkscape:current-layer="svg75" />
 <defs
   class="ClipPathGroup"
   id="defs8">
  <clipPath
   id="presentation_clip_path"
   clipPathUnits="userSpaceOnUse">
   <rect
   x="0"
   y="0"
   width="21000"
   height="29700"
   id="rect2" />
  </clipPath>
  <clipPath
   id="presentation_clip_path_shrink"
   clipPathUnits="userSpaceOnUse">
   <rect
   x="21"
   y="29"
   width="20958"
   height="29641"
   id="rect5" />
  </clipPath>
 </defs>
 <defs
   class="TextShapeIndex"
   id="defs12">
  <g
   ooo:slide="id1"
   ooo:id-list="id3"
   id="g10" />
 </defs>
 <defs
   class="EmbeddedBulletChars"
   id="defs44">
  <g
   id="bullet-char-template-57356"
   transform="matrix(4.8828125e-4,0,0,-4.8828125e-4,0,0)">
   <path
   d="M 580,1141 1163,571 580,0 -4,571 Z"
   id="path14"
   inkscape:connector-curvature="0" />
  </g>
  <g
   id="bullet-char-template-57354"
   transform="matrix(4.8828125e-4,0,0,-4.8828125e-4,0,0)">
   <path
   d="M 8,1128 H 1137 V 0 H 8 Z"
   id="path17"
   inkscape:connector-curvature="0" />
  </g>
  <g
   id="bullet-char-template-10146"
   transform="matrix(4.8828125e-4,0,0,-4.8828125e-4,0,0)">
   <path
   d="M 174,0 602,739 174,1481 1456,739 Z M 1358,739 309,1346 659,739 Z"
   id="path20"
   inkscape:connector-curvature="0" />
  </g>
  <g
   id="bullet-char-template-10132"
   transform="matrix(4.8828125e-4,0,0,-4.8828125e-4,0,0)">
   <path
   d="M 2015,739 1276,0 H 717 l 543,543 H 174 v 393 h 1086 l -543,545 h 557 z"
   id="path23"
   inkscape:connector-curvature="0" />
  </g>
  <g
   id="bullet-char-template-10007"
   transform="matrix(4.8828125e-4,0,0,-4.8828125e-4,0,0)">
   <path
   d="m 0,-2 c -7,16 -16,29 -25,39 l 381,530 c -94,256 -141,385 -141,387 0,25 13,38 40,38 9,0 21,-2 34,-5 21,4 42,12 65,25 l 27,-13 111,-251 280,301 64,-25 24,25 c 21,-10 41,-24 62,-43 C 886,937 835,863 770,784 769,783 710,716 594,584 L 774,223 c 0,-27 -21,-55 -63,-84 l 16,-20 C 717,90 699,76 672,76 641,76 570,178 457,381 L 164,-76 c -22,-34 -53,-51 -92,-51 -42,0 -63,17 -64,51 -7,9 -10,24 -10,44 0,9 1,19 2,30 z"
   id="path26"
   inkscape:connector-curvature="0" />
  </g>
  <g
   id="bullet-char-template-10004"
   transform="matrix(4.8828125e-4,0,0,-4.8828125e-4,0,0)">
   <path
   d="M 285,-33 C 182,-33 111,30 74,156 52,228 41,333 41,471 c 0,78 14,145 41,201 34,71 87,106 158,106 53,0 88,-31 106,-94 l 23,-176 c 8,-64 28,-97 59,-98 l 735,706 c 11,11 33,17 66,17 42,0 63,-15 63,-46 V 965 c 0,-36 -10,-64 -30,-84 L 442,47 C 390,-6 338,-33 285,-33 Z"
   id="path29"
   inkscape:connector-curvature="0" />
  </g>
  <g
   id="bullet-char-template-9679"
   transform="matrix(4.8828125e-4,0,0,-4.8828125e-4,0,0)">
   <path
   d="M 813,0 C 632,0 489,54 383,161 276,268 223,411 223,592 c 0,181 53,324 160,431 106,107 249,161 430,161 179,0 323,-54 432,-161 108,-107 162,-251 162,-431 0,-180 -54,-324 -162,-431 C 1136,54 992,0 813,0 Z"
   id="path32"
   inkscape:connector-curvature="0" />
  </g>
  <g
   id="bullet-char-template-8226"
   transform="matrix(4.8828125e-4,0,0,-4.8828125e-4,0,0)">
   <path
   d="m 346,457 c -73,0 -137,26 -191,78 -54,51 -81,114 -81,188 0,73 27,136 81,188 54,52 118,78 191,78 73,0 134,-26 185,-79 51,-51 77,-114 77,-187 0,-75 -25,-137 -76,-188 -50,-52 -112,-78 -186,-78 z"
   id="path35"
   inkscape:connector-curvature="0" />
  </g>
  <g
   id="bullet-char-template-8211"
   transform="matrix(4.8828125e-4,0,0,-4.8828125e-4,0,0)">
   <path
   d="M -4,459 H 1135 V 606 H -4 Z"
   id="path38"
   inkscape:connector-curvature="0" />
  </g>
  <g
   id="bullet-char-template-61548"
   transform="matrix(4.8828125e-4,0,0,-4.8828125e-4,0,0)">
   <path
   d="m 173,740 c 0,163 58,303 173,419 116,115 255,173 419,173 163,0 302,-58 418,-173 116,-116 174,-256 174,-419 0,-163 -58,-303 -174,-418 C 1067,206 928,148 765,148 601,148 462,206 346,322 231,437 173,577 173,740 Z"
   id="path41"
   inkscape:connector-curvature="0" />
  </g>
 </defs>
 <g
   id="g49"
   transform="translate(-7757,-9745)">
  <g
   id="id2"
   class="Master_Slide">
   <g
   id="bg-id2"
   class="Background" />
   <g
   id="bo-id2"
   class="BackgroundObjects" />
  </g>
 </g>
 <g
   class="SlideGroup"
   id="g73"
   transform="translate(-7757,-9745)">
  <g
   id="g71">
   <g
   id="container-id1">
    <g
   id="id1"
   class="Slide"
   clip-path="url(#presentation_clip_path)">
     <g
   class="Page"
   id="g67">
      <g
   class="Graphic"
   id="g65">
       <g
   id="id3">
        <rect
   class="BoundingBox"
   x="7757"
   y="9745"
   width="5486"
   height="10209"
   id="rect51"
   style="fill:none;stroke:none" />
        <defs
   id="defs56">
         <clipPath
   id="clip_path_1"
   clipPathUnits="userSpaceOnUse">
          <path
   d="m 7761,9754 h 5476 V 19953 H 7761 Z"
   id="path53"
   inkscape:connector-curvature="0" />
         </clipPath>
        </defs>
        <g
   clip-path="url(#clip_path_1)"
   id="g62">
         <path
   d="m 8485,10283 -110,-92 -124,26 -145,146 v 176 l -22,238 -80,230 -62,26 h -181 l 31,44 36,159 79,-26 49,97 44,167 31,150 110,75 88,208 172,141 128,190 106,194 62,176 62,-22 -62,88 -53,53 -70,62 -53,208 -36,264 -88,88 -115,53 -31,177 80,207 119,234 44,79 177,93 132,106 93,247 -31,150 -13,88 -18,80 79,159 124,247 v 220 l 110,177 97,181 -141,75 -168,291 -163,212 -141,145 -177,428 -26,181 -93,203 -57,326 v 181 l -27,194 67,146 h 163 l 150,141 132,49 309,410 44,57 40,217 80,141 26,70 71,75 163,80 35,-168 58,-26 158,61 217,164 145,61 89,181 -58,141 80,89 66,-89 110,-66 h 150 l 106,155 150,-115 93,-146 -40,-106 -106,-176 -145,-124 -186,-123 -176,-53 h -221 l -110,-172 -150,-150 -9,-49 -27,-136 -17,-225 -58,-164 -154,-123 -22,-119 -27,-291 -75,-31 -269,-106 -119,-53 -71,-247 -26,-177 88,-194 88,-300 150,-295 v -195 l 168,-339 49,-53 44,-49 v -44 l 31,-141 v -190 l -13,-84 -5,-88 -18,-123 -22,-141 27,-146 243,-27 154,-26 h 141 l 36,88 v 150 l -27,102 -53,128 199,194 h 163 l 185,26 376,230 264,123 124,146 75,84 h 110 l -53,-172 -225,-459 -154,-411 -22,-150 176,-273 84,-163 110,-168 151,-93 322,-26 h 807 l 168,150 h 124 l 145,-203 58,-300 84,-221 -22,-229 -89,-238 -318,-318 -123,-260 4,-203 27,-234 -309,-322 -296,-300 -181,-53 -176,-62 -115,84 -27,115 -57,92 -229,58 -151,-27 -180,-97 -164,-48 -106,57 -97,-35 -57,211 -168,89 -181,44 v -119 l 93,-252 -93,-145 88,-58 115,-176 27,-313 8,-89 v -203 l -119,-92 -207,61 -234,23 -31,-111 -22,-150 v -176 l -53,-44 -88,-9 -58,-150 h -132 l -247,92 35,111 -123,62 -181,26 -22,119 -133,57 h -212 z"
   id="path58"
   inkscape:connector-curvature="0"
   style="fill:#008000;stroke:none" />
         <path
   d="m 8485,10283 -110,-92 -124,26 -145,146 v 176 l -22,238 -80,230 -62,26 h -181 l 31,44 36,159 79,-26 49,97 44,167 31,150 110,75 88,208 172,141 128,190 106,194 62,176 62,-22 -62,88 -53,53 -70,62 -53,208 -36,264 -88,88 -115,53 -31,177 80,207 119,234 44,79 177,93 132,106 93,247 -31,150 -13,88 -18,80 79,159 124,247 v 220 l 110,177 97,181 -141,75 -168,291 -163,212 -141,145 -177,428 -26,181 -93,203 -57,326 v 181 l -27,194 67,146 h 163 l 150,141 132,49 309,410 44,57 40,217 80,141 26,70 71,75 163,80 35,-168 58,-26 158,61 217,164 145,61 89,181 -58,141 80,89 66,-89 110,-66 h 150 l 106,155 150,-115 93,-146 -40,-106 -106,-176 -145,-124 -186,-123 -176,-53 h -221 l -110,-172 -150,-150 -9,-49 -27,-136 -17,-225 -58,-164 -154,-123 -22,-119 -27,-291 -75,-31 -269,-106 -119,-53 -71,-247 -26,-177 88,-194 88,-300 150,-295 v -195 l 168,-339 49,-53 44,-49 v -44 l 31,-141 v -190 l -13,-84 -5,-88 -18,-123 -22,-141 27,-146 243,-27 154,-26 h 141 l 36,88 v 150 l -27,102 -53,128 199,194 h 163 l 185,26 376,230 264,123 124,146 75,84 h 110 l -53,-172 -225,-459 -154,-411 -22,-150 176,-273 84,-163 110,-168 151,-93 322,-26 h 807 l 168,150 h 124 l 145,-203 58,-300 84,-221 -22,-229 -89,-238 -318,-318 -123,-260 4,-203 27,-234 -309,-322 -296,-300 -181,-53 -176,-62 -115,84 -27,115 -57,92 -229,58 -151,-27 -180,-97 -164,-48 -106,57 -97,-35 -57,211 -168,89 -181,44 v -119 l 93,-252 -93,-145 88,-58 115,-176 27,-313 8,-89 v -203 l -119,-92 -207,61 -234,23 -31,-111 -22,-150 v -176 l -53,-44 -88,-9 -58,-150 h -132 l -247,92 35,111 -123,62 -181,26 -22,119 -133,57 h -212 z"
   id="path60"
   inkscape:connector-curvature="0"
   style="fill:none;stroke:#000000;stroke-width:40;stroke-linecap:round;stroke-linejoin:round" />
        </g>
       </g>
      </g>
     </g>
    </g>
   </g>
  </g>
 </g>
</svg>