<?xml version="1.0" encoding="UTF-8" standalone="no"?>
<svg
   xmlns:ooo="http://xml.openoffice.org/svg/export"
   xmlns:dc="http://purl.org/dc/elements/1.1/"
   xmlns:cc="http://creativecommons.org/ns#"
   xmlns:rdf="http://www.w3.org/1999/02/22-rdf-syntax-ns#"
   xmlns:svg="http://www.w3.org/2000/svg"
   xmlns="http://www.w3.org/2000/svg"
   xmlns:sodipodi="http://sodipodi.sourceforge.net/DTD/sodipodi-0.dtd"
   xmlns:inkscape="http://www.inkscape.org/namespaces/inkscape"
   version="1.2"
   width="113.46mm"
   height="95.510002mm"
   viewBox="0 0 11346 9551.0002"
   preserveAspectRatio="xMidYMid"
   xml:space="preserve"
   id="svg83"
   sodipodi:docname="tree3.svg"
   style="fill-rule:evenodd;stroke-width:28.22200012;stroke-linejoin:round"
   inkscape:version="0.92.5 (2060ec1f9f, 2020-04-08)"><metadata
   id="metadata87"><rdf:RDF><cc:Work
       rdf:about=""><dc:format>image/svg+xml</dc:format><dc:type
         rdf:resource="http://purl.org/dc/dcmitype/StillImage" /></cc:Work></rdf:RDF></metadata><sodipodi:namedview
   pagecolor="#ffffff"
   bordercolor="#666666"
   borderopacity="1"
   objecttolerance="10"
   gridtolerance="10"
   guidetolerance="10"
   inkscape:pageopacity="0"
   inkscape:pageshadow="2"
   inkscape:window-width="664"
   inkscape:window-height="487"
   id="namedview85"
   showgrid="false"
   inkscape:zoom="0.2102413"
   inkscape:cx="214.4126"
   inkscape:cy="180.47244"
   inkscape:window-x="0"
   inkscape:window-y="0"
   inkscape:window-maximized="0"
   inkscape:current-layer="svg83" />
 <defs
   class="ClipPathGroup"
   id="defs8">
  <clipPath
   id="presentation_clip_path"
   clipPathUnits="userSpaceOnUse">
   <rect
   x="0"
   y="0"
   width="21000"
   height="29700"
   id="rect2" />
  </clipPath>
  <clipPath
   id="presentation_clip_path_shrink"
   clipPathUnits="userSpaceOnUse">
   <rect
   x="21"
   y="29"
   width="20958"
   height="29641"
   id="rect5" />
  </clipPath>
 </defs>
 <defs
   class="TextShapeIndex"
   id="defs12">
  <g
   ooo:slide="id1"
   ooo:id-list="id3"
   id="g10" />
 </defs>
 <defs
   class="EmbeddedBulletChars"
   id="defs44">
  <g
   id="bullet-char-template-57356"
   transform="matrix(4.8828125e-4,0,0,-4.8828125e-4,0,0)">
   <path
   d="M 580,1141 1163,571 580,0 -4,571 Z"
   id="path14"
   inkscape:connector-curvature="0" />
  </g>
  <g
   id="bullet-char-template-57354"
   transform="matrix(4.8828125e-4,0,0,-4.8828125e-4,0,0)">
   <path
   d="M 8,1128 H 1137 V 0 H 8 Z"
   id="path17"
   inkscape:connector-curvature="0" />
  </g>
  <g
   id="bullet-char-template-10146"
   transform="matrix(4.8828125e-4,0,0,-4.8828125e-4,0,0)">
   <path
   d="M 174,0 602,739 174,1481 1456,739 Z M 1358,739 309,1346 659,739 Z"
   id="path20"
   inkscape:connector-curvature="0" />
  </g>
  <g
   id="bullet-char-template-10132"
   transform="matrix(4.8828125e-4,0,0,-4.8828125e-4,0,0)">
   <path
   d="M 2015,739 1276,0 H 717 l 543,543 H 174 v 393 h 1086 l -543,545 h 557 z"
   id="path23"
   inkscape:connector-curvature="0" />
  </g>
  <g
   id="bullet-char-template-10007"
   transform="matrix(4.8828125e-4,0,0,-4.8828125e-4,0,0)">
   <path
   d="m 0,-2 c -7,16 -16,29 -25,39 l 381,530 c -94,256 -141,385 -141,387 0,25 13,38 40,38 9,0 21,-2 34,-5 21,4 42,12 65,25 l 27,-13 111,-251 280,301 64,-25 24,25 c 21,-10 41,-24 62,-43 C 886,937 835,863 770,784 769,783 710,716 594,584 L 774,223 c 0,-27 -21,-55 -63,-84 l 16,-20 C 717,90 699,76 672,76 641,76 570,178 457,381 L 164,-76 c -22,-34 -53,-51 -92,-51 -42,0 -63,17 -64,51 -7,9 -10,24 -10,44 0,9 1,19 2,30 z"
   id="path26"
   inkscape:connector-curvature="0" />
  </g>
  <g
   id="bullet-char-template-10004"
   transform="matrix(4.8828125e-4,0,0,-4.8828125e-4,0,0)">
   <path
   d="M 285,-33 C 182,-33 111,30 74,156 52,228 41,333 41,471 c 0,78 14,145 41,201 34,71 87,106 158,106 53,0 88,-31 106,-94 l 23,-176 c 8,-64 28,-97 59,-98 l 735,706 c 11,11 33,17 66,17 42,0 63,-15 63,-46 V 965 c 0,-36 -10,-64 -30,-84 L 442,47 C 390,-6 338,-33 285,-33 Z"
   id="path29"
   inkscape:connector-curvature="0" />
  </g>
  <g
   id="bullet-char-template-9679"
   transform="matrix(4.8828125e-4,0,0,-4.8828125e-4,0,0)">
   <path
   d="M 813,0 C 632,0 489,54 383,161 276,268 223,411 223,592 c 0,181 53,324 160,431 106,107 249,161 430,161 179,0 323,-54 432,-161 108,-107 162,-251 162,-431 0,-180 -54,-324 -162,-431 C 1136,54 992,0 813,0 Z"
   id="path32"
   inkscape:connector-curvature="0" />
  </g>
  <g
   id="bullet-char-template-8226"
   transform="matrix(4.8828125e-4,0,0,-4.8828125e-4,0,0)">
   <path
   d="m 346,457 c -73,0 -137,26 -191,78 -54,51 -81,114 -81,188 0,73 27,136 81,188 54,52 118,78 191,78 73,0 134,-26 185,-79 51,-51 77,-114 77,-187 0,-75 -25,-137 -76,-188 -50,-52 -112,-78 -186,-78 z"
   id="path35"
   inkscape:connector-curvature="0" />
  </g>
  <g
   id="bullet-char-template-8211"
   transform="matrix(4.8828125e-4,0,0,-4.8828125e-4,0,0)">
   <path
   d="M -4,459 H 1135 V 606 H -4 Z"
   id="path38"
   inkscape:connector-curvature="0" />
  </g>
  <g
   id="bullet-char-template-61548"
   transform="matrix(4.8828125e-4,0,0,-4.8828125e-4,0,0)">
   <path
   d="m 173,740 c 0,163 58,303 173,419 116,115 255,173 419,173 163,0 302,-58 418,-173 116,-116 174,-256 174,-419 0,-163 -58,-303 -174,-418 C 1067,206 928,148 765,148 601,148 462,206 346,322 231,437 173,577 173,740 Z"
   id="path41"
   inkscape:connector-curvature="0" />
  </g>
 </defs>
 <g
   id="g49"
   transform="translate(-4827,-10074)">
  <g
   id="id2"
   class="Master_Slide">
   <g
   id="bg-id2"
   class="Background" />
   <g
   id="bo-id2"
   class="BackgroundObjects" />
  </g>
 </g>
 <g
   class="SlideGroup"
   id="g81"
   transform="translate(-4827,-10074)">
  <g
   id="g79">
   <g
   id="container-id1">
    <g
   id="id1"
   class="Slide"
   clip-path="url(#presentation_clip_path)">
     <g
   class="Page"
   id="g75">
      <g
   class="Graphic"
   id="g73">
       <g
   id="id3">
        <rect
   class="BoundingBox"
   x="4827"
   y="10074"
   width="11346"
   height="9551"
   id="rect51"
   style="fill:none;stroke:none" />
        <defs
   id="defs56">
         <clipPath
   id="clip_path_1"
   clipPathUnits="userSpaceOnUse">
          <path
   d="m 4836,10074 h 11332 v 9537 H 4836 Z"
   id="path53"
   inkscape:connector-curvature="0" />
         </clipPath>
        </defs>
        <g
   clip-path="url(#clip_path_1)"
   id="g70">
         <path
   d="m 8113,12077 -264,291 v 296 l -296,132 -317,53 -159,132 -265,185 h -132 l -133,133 -53,212 -158,26 -159,79 -159,186 v 212 l -185,105 -133,186 53,370 -688,424 -238,159 212,26 -133,212 h 212 l 159,132 397,53 132,185 186,53 185,106 185,-159 h 238 l 159,-79 159,-185 265,26 211,-132 212,-53 137,159 132,-80 27,-238 106,-132 211,132 212,79 265,-79 -133,-238 -238,-159 -291,-53 -640,159 -608,-265 370,-106 344,-106 402,133 264,-159 265,-106 265,106 159,318 502,-27 318,106 397,-53 159,-556 344,-53 185,-185 503,185 291,-132 159,-265 159,80 185,132 503,212 688,-27 27,291 h 322 l -772,821 344,185 190,-238 185,238 53,-79 185,159 344,106 159,-106 291,158 291,53 318,-132 556,-794 79,-265 27,-238 26,-265 -185,-53 -238,133 -900,-106 -53,-238 158,-159 -132,-159 -397,-450 159,-159 -79,-106 -159,-560 211,-291 -26,-265 -212,-159 -79,-450 -185,-79 158,-185 -291,-53 -322,-212 -132,106 -344,-106 -291,159 877,768 -322,502 -370,292 -318,26 -238,79 -265,-52 h -185 l -79,295 -27,212 -238,265 -344,26 -53,-185 -26,-212 -345,-454 -26,-265 -318,-53 -79,-185 -318,132 -317,371 h -318 l -397,158 -820,-847 -239,53 -163,159 216,27 27,238 z"
   id="path58"
   inkscape:connector-curvature="0"
   style="fill:#5fdf00;stroke:none" />
         <path
   d="m 8855,19497 423,-265 185,-238 106,-238 53,-291 53,-291 27,-318 26,-344 53,-640 26,-529 v -371 l -26,-238 -159,-238 -159,-53 -238,-106 h -317 l -477,-106 h -53 l -291,-106 -534,-79 -397,-53 -423,-132 h -477 l -556,52 794,-92 133,-66 66,-93 40,-225 -106,-476 -27,-345 186,795 26,211 93,93 119,66 132,53 424,53 h 375 l -186,-172 -216,-304 -159,-318 -238,-556 371,635 203,265 198,199 212,172 344,158 318,27 344,26 370,-53 -313,-79 -141,-66 -154,-115 -150,-154 -371,-102 -256,-97 -181,-75 -123,-57 -89,-53 -83,-62 -58,-57 102,66 88,53 97,40 154,44 146,48 163,40 128,26 84,5 66,9 -115,-155 -83,-136 -133,-221 -101,-185 -80,-199 -105,-132 -318,-212 -269,-132 534,185 -159,-463 -216,-494 269,507 66,159 66,106 132,198 186,278 141,256 79,141 256,344 -106,-900 -106,-344 -132,-264 -185,-323 238,270 -106,-1249 53,-370 27,529 158,-278 424,-331 -397,384 -159,304 79,741 80,402 132,423 106,636 53,370 79,159 124,106 137,71 128,30 141,-22 -212,-529 -146,-278 -53,-198 -26,-173 -13,-198 -133,-318 225,318 14,-132 -133,-693 -13,-225 13,-185 66,-278 159,-437 172,-437 -291,953 582,-926 -436,807 -106,318 -27,211 120,680 13,397 13,238 79,252 106,198 119,238 80,199 128,265 -31,-159 -27,-177 22,-869 -79,-119 -40,-119 -53,-185 -79,-305 -119,-322 225,455 66,198 93,132 v -891 l -14,-569 -66,-503 106,344 119,-370 80,-225 278,-609 -172,477 -106,304 -67,251 -52,212 13,490 198,-371 80,-225 79,-264 79,-265 53,-265 93,-437 -66,530 -27,198 -79,292 -93,317 -92,265 -119,278 -27,587 53,688 v 953 l 106,450 53,-468 40,-318 39,-260 66,-375 80,-273 119,-322 -212,-653 106,198 80,190 79,145 265,-423 92,-216 -39,-565 132,529 688,-1085 212,-397 -238,635 -556,1006 1310,-860 -1310,966 -238,428 -186,344 -106,450 -105,662 -67,609 133,-468 106,-198 145,-208 199,-242 119,-146 106,-154 13,-190 13,-591 40,419 40,159 79,57 172,-296 159,-251 119,-199 159,-229 264,-274 278,-238 -13,-785 79,728 490,-234 507,-225 -679,406 441,278 -520,-238 -186,132 -211,216 -199,212 -145,194 -120,190 -105,238 -53,176 185,-30 212,-67 238,-75 278,-123 238,-88 172,-71 190,-110 106,-133 79,-145 -26,145 -67,124 -119,106 -295,172 -265,145 -251,111 -186,75 -198,84 -252,79 -211,132 -186,159 -211,265 -252,326 -119,216 -79,142 -53,172 -40,242 291,-211 146,-111 79,-92 66,-146 80,-265 66,-278 119,-185 -66,172 -53,199 -27,185 -26,185 v 80 l 26,79 159,18 344,-133 371,-132 582,-198 146,-71 159,-93 97,-207 145,-675 -93,860 67,22 92,-53 199,-450 -53,239 -40,132 80,26 119,-53 92,-132 291,-273 -211,233 -66,133 -27,119 146,119 -199,-53 -119,31 -212,62 66,66 93,145 119,345 -185,-318 -93,-106 -92,-53 -119,5 -389,132 -357,132 -331,102 -278,110 -225,115 -251,136 -238,155 -146,123 -132,133 569,26 489,-40 715,-92 529,-80 270,-44 145,-53 159,-61 159,-84 264,-212 331,-340 -304,380 -185,172 -172,137 344,-18 238,-66 185,-93 185,-79 239,-106 225,-53 -225,106 -186,106 -185,92 -146,80 -172,66 252,26 159,-26 185,-40 185,-53 -211,137 -225,35 h -252 l -423,31 -133,22 159,66 252,40 211,13 450,18 -503,35 h -225 l -198,-26 -146,-40 -211,-62 -521,106 -781,159 119,141 225,309 -463,-410 40,194 -27,185 -26,132 -53,186 -119,264 -305,481 199,-414 106,-265 79,-252 -13,-132 -13,-212 -40,-92 -66,-62 -357,26 -331,89 -186,97 -132,88 -93,110 -79,172 v 291 424 l -26,370 v 349 397 318 l 79,317 106,291 185,371 185,212 186,106 317,132 -423,-53 -397,-132 -238,-53 h -186 l -132,132 -106,-53 -212,-26 -185,53 -185,106 -133,52 v -132 l -79,-53 h -185 l -159,53 h -53 z"
   id="path60"
   inkscape:connector-curvature="0"
   style="fill:#7f5f3f;stroke:none" />
         <path
   d="m 8855,19497 423,-265 185,-238 106,-238 53,-291 53,-291 27,-318 26,-344 53,-640 26,-529 v -371 l -26,-238 -159,-238 -159,-53 -238,-106 h -317 l -477,-106 h -53 l -291,-106 -534,-79 -397,-53 -423,-132 h -477 l -556,52 794,-92 133,-66 66,-93 40,-225 -106,-476 -27,-345 186,795 26,211 93,93 119,66 132,53 424,53 h 375 l -186,-172 -216,-304 -159,-318 -238,-556 371,635 203,265 198,199 212,172 344,158 318,27 344,26 370,-53 -313,-79 -141,-66 -154,-115 -150,-154 -371,-102 -256,-97 -181,-75 -123,-57 -89,-53 -83,-62 -58,-57 102,66 88,53 97,40 154,44 146,48 163,40 128,26 84,5 66,9 -115,-155 -83,-136 -133,-221 -101,-185 -80,-199 -105,-132 -318,-212 -269,-132 534,185 -159,-463 -216,-494 269,507 66,159 66,106 132,198 186,278 141,256 79,141 256,344 -106,-900 -106,-344 -132,-264 -185,-323 238,270 -106,-1249 53,-370 27,529 158,-278 424,-331 -397,384 -159,304 79,741 80,402 132,423 106,636 53,370 79,159 124,106 137,71 128,30 141,-22 -212,-529 -146,-278 -53,-198 -26,-173 -13,-198 -133,-318 225,318 14,-132 -133,-693 -13,-225 13,-185 66,-278 159,-437 172,-437 -291,953 582,-926 -436,807 -106,318 -27,211 120,680 13,397 13,238 79,252 106,198 119,238 80,199 128,265 -31,-159 -27,-177 22,-869 -79,-119 -40,-119 -53,-185 -79,-305 -119,-322 225,455 66,198 93,132 v -891 l -14,-569 -66,-503 106,344 119,-370 80,-225 278,-609 -172,477 -106,304 -67,251 -52,212 13,490 198,-371 80,-225 79,-264 79,-265 53,-265 93,-437 -66,530 -27,198 -79,292 -93,317 -92,265 -119,278 -27,587 53,688 v 953 l 106,450 53,-468 40,-318 39,-260 66,-375 80,-273 119,-322 -212,-653 106,198 80,190 79,145 265,-423 92,-216 -39,-565 132,529 688,-1085 212,-397 -238,635 -556,1006 1310,-860 -1310,966 -238,428 -186,344 -106,450 -105,662 -67,609 133,-468 106,-198 145,-208 199,-242 119,-146 106,-154 13,-190 13,-591 40,419 40,159 79,57 172,-296 159,-251 119,-199 159,-229 264,-274 278,-238 -13,-785 79,728 490,-234 507,-225 -679,406 441,278 -520,-238 -186,132 -211,216 -199,212 -145,194 -120,190 -105,238 -53,176 185,-30 212,-67 238,-75 278,-123 238,-88 172,-71 190,-110 106,-133 79,-145 -26,145 -67,124 -119,106 -295,172 -265,145 -251,111 -186,75 -198,84 -252,79 -211,132 -186,159 -211,265 -252,326 -119,216 -79,142 -53,172 -40,242 291,-211 146,-111 79,-92 66,-146 80,-265 66,-278 119,-185 -66,172 -53,199 -27,185 -26,185 v 80 l 26,79 159,18 344,-133 371,-132 582,-198 146,-71 159,-93 97,-207 145,-675 -93,860 67,22 92,-53 199,-450 -53,239 -40,132 80,26 119,-53 92,-132 291,-273 -211,233 -66,133 -27,119 146,119 -199,-53 -119,31 -212,62 66,66 93,145 119,345 -185,-318 -93,-106 -92,-53 -119,5 -389,132 -357,132 -331,102 -278,110 -225,115 -251,136 -238,155 -146,123 -132,133 569,26 489,-40 715,-92 529,-80 270,-44 145,-53 159,-61 159,-84 264,-212 331,-340 -304,380 -185,172 -172,137 344,-18 238,-66 185,-93 185,-79 239,-106 225,-53 -225,106 -186,106 -185,92 -146,80 -172,66 252,26 159,-26 185,-40 185,-53 -211,137 -225,35 h -252 l -423,31 -133,22 159,66 252,40 211,13 450,18 -503,35 h -225 l -198,-26 -146,-40 -211,-62 -521,106 -781,159 119,141 225,309 -463,-410 40,194 -27,185 -26,132 -53,186 -119,264 -305,481 199,-414 106,-265 79,-252 -13,-132 -13,-212 -40,-92 -66,-62 -357,26 -331,89 -186,97 -132,88 -93,110 -79,172 v 291 424 l -26,370 v 349 397 318 l 79,317 106,291 185,371 185,212 186,106 317,132 -423,-53 -397,-132 -238,-53 h -186 l -132,132 -106,-53 -212,-26 -185,53 -185,106 -133,52 v -132 l -79,-53 h -185 l -159,53 h -53 z"
   id="path62"
   inkscape:connector-curvature="0"
   style="fill:none;stroke:#000000;stroke-width:35;stroke-linecap:round;stroke-linejoin:round" />
         <path
   d="m 9516,15152 159,106 132,158 80,265 79,609 -26,741 v 693 450 l -53,370 -133,397 -264,344 317,-370 159,-371 53,-53 -26,424 -53,344 53,-185 79,-477 v -344 -185 l 80,-424 v -370 l -27,-296 -26,-397 -53,-371 v -317 l 132,-397 26,556 v 238 l 27,370 26,186 27,370 v 428 397 l -27,318 -53,344 v 265 l 27,211 53,-317 26,212 106,185 106,79 -26,-238 -53,-423 -27,-583 -53,-450 v -317 l -26,-375 v -397 -318 l 79,-344 371,-715 -133,450 -105,238 -53,239 v 158 186 238 185 291 l 26,402 27,291 52,291 27,291 26,265 106,185 133,159 185,106 265,79 -345,-238 -158,-265 -106,-238 -27,-291 -53,-423 -26,-397 -27,-402 53,-397 v -291 l 80,-265 106,-291 79,-265 238,-185 -344,159 185,-503 -291,212 -185,211 -106,292 -79,132 -53,-344 106,-424 v -264 -239 l -106,556 -53,239 -79,132 -133,106 -79,-186 z"
   id="path64"
   inkscape:connector-curvature="0"
   style="fill:#5f3f1f;stroke:none" />
         <path
   d="m 9940,10330 -159,-132 -212,-80 h -185 l 79,53 -79,27 -212,132 v 106 l 27,106 -159,79 -53,106 -132,53 -159,-80 h -186 l -105,133 -186,-27 -106,53 -52,133 -186,26 -106,106 v 185 l 53,212 133,106 291,370 -80,212 -132,185 212,190 -344,106 -428,-269 -133,229 -264,67 -27,185 80,238 -238,132 -186,27 -159,185 -53,80 -185,132 -26,212 v 185 l -133,132 -53,133 -317,-53 -265,132 -238,79 -106,133 -159,132 -53,185 106,80 133,106 v 159 l 158,105 80,239 159,238 211,-80 186,-185 h 132 l 132,53 133,185 211,-158 186,-212 185,-27 265,27 238,-133 132,-185 349,-212 -186,-278 -326,-13 -84,-53 v -79 l -13,-80 -207,-57 48,-53 53,-62 190,62 150,177 114,-164 208,-35 114,-92 v -80 l -53,-70 128,79 115,9 71,-88 181,-67 83,-61 -8,128 176,-124 115,57 57,137 -146,124 120,35 141,35 110,-22 251,66 292,186 -239,158 -317,-53 -58,-79 -105,-84 -84,27 -159,-9 -168,-18 -145,13 -22,84 -75,-17 -49,66 -35,84 53,264 106,133 -53,264 -212,53 h -265 l -163,106 -26,133 -239,264 h -238 l -159,159 53,212 186,212 -80,105 v 106 l 265,159 26,185 296,80 238,-133 h 185 l 186,106 344,-106 106,-211 -133,-238 -211,-239 26,-238 106,-212 212,27 53,291 185,238 212,-79 211,53 159,-186 -79,-317 v -212 h 185 l 212,-159 26,-344 -26,-212 185,-158 79,79 -52,212 52,317 -26,344 53,239 159,-80 106,53 79,212 185,26 27,186 106,264 317,-53 159,212 238,291 159,-132 h 159 l 238,132 291,-158 53,-265 v -212 h 291 l 265,-79 h 185 l 190,-27 53,-317 159,-212 -106,-291 -185,-27 v -264 l -190,-53 401,-53 212,158 318,-79 317,132 318,27 106,476 212,27 291,132 291,53 264,-185 270,-238 -164,-424 -238,-212 106,-185 -159,-424 -53,-264 -211,-291 -371,-53 -397,238 -397,-106 159,-291 370,-185 -79,-318 -371,-106 -264,-26 79,-239 132,-238 -26,-401 -238,-186 h -212 l -26,-317 26,-265 -185,-397 -159,-238 h -163 -265 l -318,-318 -317,-212 -212,80 -265,-106 -132,-159 h -291 -238 l -344,371 -80,1231 238,185 133,238 26,212 -185,-27 -371,27 -79,216 238,-53 80,212 291,-106 106,238 105,265 212,35 v -167 l 119,88 278,-168 -106,-212 -132,-185 -265,-31 -53,-238 212,-424 106,450 265,212 -27,-265 397,-291 80,477 370,53 -450,189 931,265 -587,27 -476,66 -93,154 53,110 -185,-57 -238,79 -133,93 -39,93 291,-80 132,44 -225,75 53,120 172,-40 80,137 -159,397 -238,-133 -159,89 v 172 l 39,163 225,234 -79,176 199,-97 132,84 106,-110 225,4 344,-26 h 291 l 132,52 -79,186 -344,26 26,186 -384,-186 -92,106 -133,27 -66,119 -79,22 -132,79 13,-119 -146,-119 -159,31 v -71 l -119,-48 -106,-212 186,-212 -119,-132 -67,-106 53,-212 -238,-159 212,-317 -371,79 133,-185 53,-212 -80,-212 -159,-79 h -264 l -265,79 v -264 l -26,-239 -186,-110 -106,269 -132,-295 80,-186 211,-79 133,-185 26,-212 -212,-79 -238,79 -212,106 -211,53 -80,-80 53,-158 106,-133 132,-132 212,-80 159,106 212,159 423,80 80,-1205 -53,-344 -530,-53 -106,133 z"
   id="path66"
   inkscape:connector-curvature="0"
   style="fill:#008300;stroke:none" />
         <path
   d="m 9238,10859 -158,-66 -120,27 -119,39 -53,106 -145,53 -146,106 -79,106 53,79 198,27 -132,211 -132,53 -80,67 -79,172 v 211 l -53,278 26,256 -344,106 -428,-269 -132,229 -265,67 -26,185 79,238 -238,132 -185,27 -159,185 -53,80 -185,132 -27,212 v 185 l -132,132 -53,133 -318,-53 -264,132 -239,79 -105,133 -159,132 -53,185 106,80 132,106 v 159 l 159,105 79,239 159,238 212,-80 185,-185 h 132 l 133,53 132,185 212,-158 185,-212 185,-27 265,27 238,-133 133,-185 348,-212 137,-17 h 93 l -75,-115 -45,27 -13,-53 13,-93 -61,-31 -93,-13 -141,17 -327,-70 -123,-102 -88,-57 -75,31 -155,-13 -110,92 -123,49 -62,137 -124,-58 18,-128 53,-106 101,-110 137,5 159,-146 154,-44 137,31 185,79 89,88 -36,164 146,-199 h 176 l -26,-304 344,53 212,26 -27,-450 212,-225 212,53 291,-79 106,185 h 291 l 185,212 132,238 v 159 l -264,-238 -344,-106 -265,53 -79,251 -318,291 291,-132 291,-27 212,106 291,186 -238,158 -318,-53 -450,-105 -211,79 -186,132 -83,-66 -31,53 53,172 167,199 -53,264 -211,53 h -265 l -163,106 -27,133 -238,264 h -238 l -159,159 53,212 185,212 -79,105 v 106 l 264,159 27,185 295,80 239,-133 h 185 l 185,106 344,-106 106,-211 -132,-238 -212,-239 27,-238 105,-212 212,27 53,291 185,238 212,-79 212,53 159,-186 -80,-317 v -212 h 186 l 211,-159 27,-344 -27,-212 186,-158 79,79 -53,212 53,317 -26,344 52,239 159,-80 106,53 80,212 185,26 26,186 106,264 318,-53 159,212 238,291 159,-132 h 158 l 239,132 291,-158 53,-265 v -212 h 291 l 265,-79 h 185 l 189,-27 53,-317 159,-212 -106,-291 -189,-27 v -264 l -186,-53 402,-53 212,158 317,-79 318,132 317,27 106,476 212,27 291,132 291,53 265,-185 265,-238 -159,-424 -238,-212 106,-185 -159,-424 -53,-264 -212,-291 -370,-53 -398,238 -397,-106 -476,53 79,-132 -185,-186 344,-53 212,-158 159,-159 -80,-159 -264,-79 -186,105 -211,186 -133,-27 -242,-79 110,-291 212,-106 159,-159 185,-159 79,-216 -291,-53 291,-318 h -211 l -27,-317 27,-265 -186,-397 -159,-238 h -163 -264 l -318,-318 -371,27 -238,-53 -212,-80 -185,80 -159,53 -158,172 -133,159 -53,185 318,132 53,106 53,159 -318,79 -212,159 -26,212 132,238 27,212 -186,-27 -370,27 -80,216 239,-53 79,212 291,-106 106,238 106,265 212,-132 397,-80 -106,-212 -132,-185 -265,-31 -53,-238 212,-424 106,450 264,212 -26,-265 397,-291 79,477 371,53 -450,189 -133,186 424,-27 -291,212 26,344 -370,79 79,292 -159,397 -238,-133 -53,292 159,344 450,-53 132,132 344,-26 h 291 l 133,52 -80,186 -344,26 27,186 -291,-27 -212,79 -159,159 -185,133 -238,-133 -239,-185 -503,-159 371,-79 132,-186 -79,-238 -79,-185 132,-212 -238,-159 211,-317 -370,79 132,-185 53,-212 -79,-212 -159,-79 h -265 l -264,79 v -264 l -27,-239 -185,-110 -106,269 -132,-295 79,-186 212,-79 132,-185 27,-212 -212,-79 -238,79 -212,106 -212,53 -79,-80 53,-158 106,-133 132,-132 370,26 212,159 133,-212 185,-158 172,-40 92,-172 -26,-265 -132,-185 -186,-212 -211,-132 -239,159 -105,26 -106,185 -186,-158 -264,-14 -119,106 -40,159 -106,13 z"
   id="path68"
   inkscape:connector-curvature="0"
   style="fill:#5fbf00;stroke:none" />
        </g>
       </g>
      </g>
     </g>
    </g>
   </g>
  </g>
 </g>
</svg>