<?xml version="1.0" encoding="UTF-8" standalone="no"?>
<svg
   xmlns:ooo="http://xml.openoffice.org/svg/export"
   xmlns:dc="http://purl.org/dc/elements/1.1/"
   xmlns:cc="http://creativecommons.org/ns#"
   xmlns:rdf="http://www.w3.org/1999/02/22-rdf-syntax-ns#"
   xmlns:svg="http://www.w3.org/2000/svg"
   xmlns="http://www.w3.org/2000/svg"
   xmlns:sodipodi="http://sodipodi.sourceforge.net/DTD/sodipodi-0.dtd"
   xmlns:inkscape="http://www.inkscape.org/namespaces/inkscape"
   version="1.2"
   width="85.919998mm"
   height="69.489998mm"
   viewBox="0 0 8591.9998 6948.9998"
   preserveAspectRatio="xMidYMid"
   xml:space="preserve"
   id="svg135"
   sodipodi:docname="twomice.svg"
   style="fill-rule:evenodd;stroke-width:28.22200012;stroke-linejoin:round"
   inkscape:version="0.92.5 (2060ec1f9f, 2020-04-08)"><metadata
   id="metadata139"><rdf:RDF><cc:Work
       rdf:about=""><dc:format>image/svg+xml</dc:format><dc:type
         rdf:resource="http://purl.org/dc/dcmitype/StillImage" /></cc:Work></rdf:RDF></metadata><sodipodi:namedview
   pagecolor="#ffffff"
   bordercolor="#666666"
   borderopacity="1"
   objecttolerance="10"
   gridtolerance="10"
   guidetolerance="10"
   inkscape:pageopacity="0"
   inkscape:pageshadow="2"
   inkscape:window-width="664"
   inkscape:window-height="487"
   id="namedview137"
   showgrid="false"
   inkscape:zoom="0.2102413"
   inkscape:cx="162.3685"
   inkscape:cy="131.30079"
   inkscape:window-x="0"
   inkscape:window-y="0"
   inkscape:window-maximized="0"
   inkscape:current-layer="svg135" />
 <defs
   class="ClipPathGroup"
   id="defs8">
  <clipPath
   id="presentation_clip_path"
   clipPathUnits="userSpaceOnUse">
   <rect
   x="0"
   y="0"
   width="21000"
   height="29700"
   id="rect2" />
  </clipPath>
  <clipPath
   id="presentation_clip_path_shrink"
   clipPathUnits="userSpaceOnUse">
   <rect
   x="21"
   y="29"
   width="20958"
   height="29641"
   id="rect5" />
  </clipPath>
 </defs>
 <defs
   class="TextShapeIndex"
   id="defs12">
  <g
   ooo:slide="id1"
   ooo:id-list="id3"
   id="g10" />
 </defs>
 <defs
   class="EmbeddedBulletChars"
   id="defs44">
  <g
   id="bullet-char-template-57356"
   transform="matrix(4.8828125e-4,0,0,-4.8828125e-4,0,0)">
   <path
   d="M 580,1141 1163,571 580,0 -4,571 Z"
   id="path14"
   inkscape:connector-curvature="0" />
  </g>
  <g
   id="bullet-char-template-57354"
   transform="matrix(4.8828125e-4,0,0,-4.8828125e-4,0,0)">
   <path
   d="M 8,1128 H 1137 V 0 H 8 Z"
   id="path17"
   inkscape:connector-curvature="0" />
  </g>
  <g
   id="bullet-char-template-10146"
   transform="matrix(4.8828125e-4,0,0,-4.8828125e-4,0,0)">
   <path
   d="M 174,0 602,739 174,1481 1456,739 Z M 1358,739 309,1346 659,739 Z"
   id="path20"
   inkscape:connector-curvature="0" />
  </g>
  <g
   id="bullet-char-template-10132"
   transform="matrix(4.8828125e-4,0,0,-4.8828125e-4,0,0)">
   <path
   d="M 2015,739 1276,0 H 717 l 543,543 H 174 v 393 h 1086 l -543,545 h 557 z"
   id="path23"
   inkscape:connector-curvature="0" />
  </g>
  <g
   id="bullet-char-template-10007"
   transform="matrix(4.8828125e-4,0,0,-4.8828125e-4,0,0)">
   <path
   d="m 0,-2 c -7,16 -16,29 -25,39 l 381,530 c -94,256 -141,385 -141,387 0,25 13,38 40,38 9,0 21,-2 34,-5 21,4 42,12 65,25 l 27,-13 111,-251 280,301 64,-25 24,25 c 21,-10 41,-24 62,-43 C 886,937 835,863 770,784 769,783 710,716 594,584 L 774,223 c 0,-27 -21,-55 -63,-84 l 16,-20 C 717,90 699,76 672,76 641,76 570,178 457,381 L 164,-76 c -22,-34 -53,-51 -92,-51 -42,0 -63,17 -64,51 -7,9 -10,24 -10,44 0,9 1,19 2,30 z"
   id="path26"
   inkscape:connector-curvature="0" />
  </g>
  <g
   id="bullet-char-template-10004"
   transform="matrix(4.8828125e-4,0,0,-4.8828125e-4,0,0)">
   <path
   d="M 285,-33 C 182,-33 111,30 74,156 52,228 41,333 41,471 c 0,78 14,145 41,201 34,71 87,106 158,106 53,0 88,-31 106,-94 l 23,-176 c 8,-64 28,-97 59,-98 l 735,706 c 11,11 33,17 66,17 42,0 63,-15 63,-46 V 965 c 0,-36 -10,-64 -30,-84 L 442,47 C 390,-6 338,-33 285,-33 Z"
   id="path29"
   inkscape:connector-curvature="0" />
  </g>
  <g
   id="bullet-char-template-9679"
   transform="matrix(4.8828125e-4,0,0,-4.8828125e-4,0,0)">
   <path
   d="M 813,0 C 632,0 489,54 383,161 276,268 223,411 223,592 c 0,181 53,324 160,431 106,107 249,161 430,161 179,0 323,-54 432,-161 108,-107 162,-251 162,-431 0,-180 -54,-324 -162,-431 C 1136,54 992,0 813,0 Z"
   id="path32"
   inkscape:connector-curvature="0" />
  </g>
  <g
   id="bullet-char-template-8226"
   transform="matrix(4.8828125e-4,0,0,-4.8828125e-4,0,0)">
   <path
   d="m 346,457 c -73,0 -137,26 -191,78 -54,51 -81,114 -81,188 0,73 27,136 81,188 54,52 118,78 191,78 73,0 134,-26 185,-79 51,-51 77,-114 77,-187 0,-75 -25,-137 -76,-188 -50,-52 -112,-78 -186,-78 z"
   id="path35"
   inkscape:connector-curvature="0" />
  </g>
  <g
   id="bullet-char-template-8211"
   transform="matrix(4.8828125e-4,0,0,-4.8828125e-4,0,0)">
   <path
   d="M -4,459 H 1135 V 606 H -4 Z"
   id="path38"
   inkscape:connector-curvature="0" />
  </g>
  <g
   id="bullet-char-template-61548"
   transform="matrix(4.8828125e-4,0,0,-4.8828125e-4,0,0)">
   <path
   d="m 173,740 c 0,163 58,303 173,419 116,115 255,173 419,173 163,0 302,-58 418,-173 116,-116 174,-256 174,-419 0,-163 -58,-303 -174,-418 C 1067,206 928,148 765,148 601,148 462,206 346,322 231,437 173,577 173,740 Z"
   id="path41"
   inkscape:connector-curvature="0" />
  </g>
 </defs>
 <g
   id="g49"
   transform="translate(-6204,-11375)">
  <g
   id="id2"
   class="Master_Slide">
   <g
   id="bg-id2"
   class="Background" />
   <g
   id="bo-id2"
   class="BackgroundObjects" />
  </g>
 </g>
 <g
   class="SlideGroup"
   id="g133"
   transform="translate(-6204,-11375)">
  <g
   id="g131">
   <g
   id="container-id1">
    <g
   id="id1"
   class="Slide"
   clip-path="url(#presentation_clip_path)">
     <g
   class="Page"
   id="g127">
      <g
   class="Graphic"
   id="g125">
       <g
   id="id3">
        <rect
   class="BoundingBox"
   x="6204"
   y="11375"
   width="8592"
   height="6949"
   id="rect51"
   style="fill:none;stroke:none" />
        <defs
   id="defs56">
         <clipPath
   id="clip_path_1"
   clipPathUnits="userSpaceOnUse">
          <path
   d="m 6217,11384 h 8551 v 6917 H 6217 Z"
   id="path53"
   inkscape:connector-curvature="0" />
         </clipPath>
        </defs>
        <g
   clip-path="url(#clip_path_1)"
   id="g122">
         <path
   d="m 10182,14858 70,146 31,67 27,57 22,53 71,27 84,48 62,31 75,27 88,26 89,18 97,4 66,9 53,18 27,22 22,44 17,66 -4,93 -119,137 -111,128 -88,146 -67,159 -128,222 -39,145 -40,71 -75,66 -120,53 -132,27 h -111 -115 l -106,-44 -66,-62 -18,-62 5,-88 39,-53 67,-53 212,-40 124,-53 75,-102 79,-186 120,-172 62,-133 -5,-101 -22,-71 -49,-35 -75,-23 -93,-13 -92,5 -71,17 -88,22 -89,36 -79,40 -84,31 -93,30 -62,23 -221,-266 -66,-225 z"
   id="path58"
   inkscape:connector-curvature="0"
   style="fill:#5f3f1f;stroke:none" />
         <path
   d="m 10182,14858 70,146 31,67 27,57 22,53 71,27 -212,274 -71,17 -88,22 -89,36 -79,40 -84,31 -93,30 -62,23 -221,-266 -66,-225 z"
   id="path60"
   inkscape:connector-curvature="0"
   style="fill:#3f1f00;stroke:none" />
         <path
   d="m 9651,15650 9,-124 18,-97 22,-67 27,-57 44,-58 57,-53 62,-44 49,-35 57,-31 84,-31 53,-27 44,-26 58,-62 -336,93 -234,93 -106,92 -14,111 22,106 z"
   id="path62"
   inkscape:connector-curvature="0"
   style="fill:#3f3f3f;stroke:none" />
         <path
   d="m 11349,16450 137,4 119,18 115,31 119,44 142,84 154,115 133,106 146,93 212,106 216,66 239,53 464,53 h 252 l 234,14 186,26 141,31 98,31 92,44 71,36 67,53 48,57 27,75 17,97 -31,102 -66,66 -106,67 -119,35 -71,13 -84,14 -88,4 h -76 l -132,27 -97,70 -93,27 101,-111 84,-62 98,-31 97,-4 97,-4 84,-14 89,-31 75,-44 48,-48 18,-58 -4,-48 -18,-49 -36,-44 -79,-45 -80,-39 -70,-31 -164,-49 -234,-22 -208,-9 h -221 l -278,9 -221,-18 -204,-31 -221,-53 -207,-66 -115,-44 -106,-58 -128,-88 -124,-102 -120,-75 -119,-53 -119,-26 -173,-18 z"
   id="path64"
   inkscape:connector-curvature="0"
   style="fill:#7f5f3f;stroke:none" />
         <path
   d="m 11322,16746 177,4 146,36 53,-80 62,-35 119,-31 h 106 l -128,-84 -164,-62 -154,-31 -159,-13 z"
   id="path66"
   inkscape:connector-curvature="0"
   style="fill:#5f3f1f;stroke:none" />
         <path
   d="m 9448,15570 97,-75 67,-40 70,-40 67,-35 75,-27 88,-17 102,-9 h 84 l 79,9 106,17 53,23 58,-89 49,-93 30,-66 27,-84 31,-111 18,-106 -36,-44 -75,-31 -88,5 57,-53 93,-22 97,4 44,-40 9,-57 v -80 l -17,-119 -9,-75 62,66 39,133 h 36 l 26,-40 14,-53 4,-44 -4,-49 v -49 l 8,-17 18,-5 31,31 22,66 13,160 -22,101 -31,62 -48,62 4,62 v 119 l -22,133 -26,132 -36,115 -40,124 -31,75 36,53 48,76 49,88 35,84 18,84 44,4 44,22 40,31 49,49 22,31 62,-13 88,9 71,22 53,26 62,53 48,66 36,89 18,150 v 142 l -5,190 -22,137 -18,97 -48,71 48,13 40,35 v 53 l 97,76 89,53 132,35 111,44 97,58 84,79 75,75 44,89 -13,101 -31,71 -75,58 -75,39 -84,14 h -80 l -92,-22 -98,-31 -93,-49 -167,-133 -111,-106 -88,-119 -67,-71 -119,-71 -155,-39 -79,53 -71,48 -80,31 -119,22 -132,36 -107,62 -101,53 -97,22 h -93 l -89,18 -128,48 -163,53 -451,-1096 -80,-336 45,-261 83,-159 93,-141 98,-120 z"
   id="path68"
   inkscape:connector-curvature="0"
   style="fill:#5f3f1f;stroke:none" />
         <path
   d="m 9475,15614 13,235 177,464 185,84 -79,-71 -49,-62 -31,-62 -22,-71 -13,-84 v -61 l 31,-76 22,-35 31,-31 79,-57 40,-22 58,-14 31,14 8,35 -48,53 -36,84 45,13 97,-84 88,-79 75,-106 93,-124 75,-93 75,-124 58,-97 35,-93 31,-124 31,-115 v -75 l -13,-62 -58,-13 h -61 l -53,9 -40,9 -18,-13 4,-27 27,-31 40,-22 53,-13 h 62 l 53,9 53,-18 9,-53 v -58 -66 l -5,-57 -18,-36 -30,-48 -5,-36 13,-22 31,5 36,48 26,49 9,62 18,62 44,26 31,-40 22,-53 9,-53 v -62 l -9,-35 -13,-27 17,-26 36,18 17,48 9,124 v 93 l -22,93 -79,132 4,84 -9,120 -53,141 -48,133 -31,79 -67,142 -79,305 -18,128 -4,93 17,75 31,137 27,49 44,35 35,-9 9,-40 -4,-35 -27,-53 -26,-44 -18,-62 -13,-67 4,-66 9,-155 13,-145 53,-18 80,115 26,150 5,173 57,-67 58,-17 53,22 57,39 36,62 -27,98 75,-45 89,-31 h 75 l 84,40 70,66 27,67 22,106 4,88 14,146 4,128 -13,155 -22,93 -40,71 -53,35 -57,35 -31,49 -36,80 58,-45 53,-35 66,-18 53,9 44,22 -17,49 -40,35 -36,62 -17,58 53,-71 44,-35 57,-14 49,22 111,67 128,48 70,31 58,27 75,44 71,66 53,67 13,106 -13,31 -40,-67 -40,-44 27,66 4,62 v 53 l -35,40 -27,-40 -13,-31 -26,-57 -31,-27 -27,-17 18,75 9,44 -23,84 -48,18 -93,-18 -110,-31 -89,-49 -216,-190 -53,-53 -53,-75 -45,-66 -44,-58 -48,-39 -71,-40 -106,-18 -44,-22 -23,-40 -8,-75 8,-71 23,-101 17,-137 -35,88 -36,62 -39,66 -36,62 -31,67 -35,48 -35,53 -62,53 -53,31 -89,9 -79,4 -66,14 -62,26 -53,36 -53,13 31,-71 -49,31 -35,40 -23,40 -39,57 -45,22 -66,5 -57,-14 -40,-48 -18,-71 -203,296 -451,-1096 -79,-336 44,-261 84,-159 93,-119 97,-98 z"
   id="path70"
   inkscape:connector-curvature="0"
   style="fill:#7f5f3f;stroke:none" />
         <path
   d="m 8869,18099 13,66 36,53 44,40 26,9 -17,-80 48,80 45,22 70,17 -26,-35 -9,-53 9,-62 -168,-35 z"
   id="path72"
   inkscape:connector-curvature="0"
   style="fill:#bebebe;stroke:none" />
         <path
   d="m 9872,16414 -92,-70 -120,-49 -137,-4 -154,13 -107,4 -44,-70 -66,-155 -80,-80 -48,-26 -53,-14 -67,5 -70,35 -53,31 -49,40 -57,53 -71,80 -44,57 -40,71 -35,93 8,66 14,53 31,31 53,49 115,57 141,62 57,31 40,35 9,80 -9,84 -13,93 22,88 18,57 9,102 -9,80 -13,70 -31,67 -40,75 -40,75 -22,71 -13,75 -5,137 27,93 40,53 92,48 120,14 h 92 l 67,-27 88,-48 71,-67 172,-132 67,-98 70,-119 36,-110 70,-111 53,-62 76,-26 159,-40 110,-93 40,-111 v -119 l -44,-115 79,22 h 98 l 123,-39 80,-54 57,-114 36,-142 -9,-106 -71,-115 -110,-106 -106,-75 -124,-62 -168,-27 -102,18 -115,31 -48,53 -14,84 z"
   id="path74"
   inkscape:connector-curvature="0"
   style="fill:#5f3f1f;stroke:none" />
         <path
   d="m 9912,16489 -79,-48 -67,-35 -92,-23 -40,27 -14,62 -17,53 -5,53 9,31 40,4 53,-13 -44,49 -44,39 -49,5 -9,31 18,48 31,31 40,9 44,-26 35,-67 31,-57 31,-35 35,-36 53,-13 31,13 9,27 -40,4 -35,5 -31,26 -26,40 -9,40 -27,31 -31,31 -26,39 -44,5 h -31 l -22,26 13,31 31,13 h 57 l 66,-13 58,-22 44,-18 40,5 44,13 35,27 23,44 8,26 -39,-13 -40,-9 -49,-4 -44,-5 h -44 l -40,14 -35,22 44,9 49,13 22,13 8,27 -53,-9 -53,-18 -57,-22 -53,-27 -31,5 -88,35 v -654 l -53,-31 -89,-13 -106,4 -44,-70 -66,-155 -58,-40 -75,-35 -57,9 -62,17 -67,31 -31,44 -31,31 -48,44 -49,58 -40,49 -48,70 -18,67 -4,57 35,49 84,44 93,53 84,35 79,31 67,31 -62,84 9,80 -9,84 -13,93 22,88 17,57 9,102 -9,80 -13,70 -31,67 -40,75 -39,75 -23,71 -13,75 5,110 17,36 45,31 75,31 88,4 62,-22 49,-49 57,-31 71,9 66,-4 80,-40 92,-62 71,-57 35,-53 27,-62 9,-44 -111,-36 -53,-4 h -53 -48 l -36,17 -53,36 -57,22 66,-66 44,-45 58,-44 44,-57 31,-53 18,-36 17,-44 v -93 l 49,111 13,66 -49,13 -26,22 -13,31 -9,40 35,80 133,40 48,-40 31,-44 36,-115 26,-71 5,-40 -31,-53 h 26 44 l 45,-22 62,-31 75,-35 62,-36 26,-48 18,-62 v -49 l -14,-53 -26,-48 -27,-45 -22,-39 -22,-76 40,14 44,35 58,27 57,17 106,-4 102,-27 62,-26 44,-31 40,-49 26,-57 -4,-62 -13,-44 -49,-67 -49,-66 -79,-84 -80,-57 -71,-18 -88,-22 -84,-5 -57,9 -49,9 -57,22 -40,27 -18,39 z"
   id="path76"
   inkscape:connector-curvature="0"
   style="fill:#7f5f3f;stroke:none" />
         <path
   d="m 9195,17935 c 0,22 -9,44 -25,63 -17,20 -41,36 -70,47 -29,11 -61,17 -94,17 -34,0 -66,-6 -95,-17 -29,-11 -53,-27 -70,-47 -16,-19 -25,-41 -25,-63 0,-23 9,-45 25,-64 17,-20 41,-36 70,-47 29,-11 61,-17 95,-17 33,0 65,6 94,17 29,11 53,27 70,47 16,19 25,41 25,64 z"
   id="path78"
   inkscape:connector-curvature="0"
   style="fill:#5f5f5f;stroke:none" />
         <path
   d="m 9084,17877 c 0,12 -5,23 -14,33 -8,10 -21,18 -36,24 -16,6 -33,9 -51,9 -18,0 -35,-3 -50,-9 -16,-6 -29,-14 -37,-24 -9,-10 -14,-21 -14,-33 0,-12 5,-23 14,-33 8,-10 21,-18 37,-24 15,-6 32,-9 50,-9 18,0 35,3 51,9 15,6 28,14 36,24 9,10 14,21 14,33 z"
   id="path80"
   inkscape:connector-curvature="0"
   style="fill:#7f7f7f;stroke:none" />
         <path
   d="m 9067,17952 c 0,3 -2,6 -5,9 -4,2 -9,4 -15,6 -6,1 -13,2 -19,2 -7,0 -14,-1 -20,-2 -6,-2 -11,-4 -15,-6 -3,-3 -5,-6 -5,-9 0,-3 2,-6 5,-8 4,-3 9,-5 15,-7 6,-1 13,-2 20,-2 6,0 13,1 19,2 6,2 11,4 15,7 3,2 5,5 5,8 z"
   id="path82"
   inkscape:connector-curvature="0"
   style="fill:#7f7f7f;stroke:none" />
         <path
   d="m 9956,16428 -84,-146 27,-31 57,-27 71,-17 58,-5 88,13 93,27 93,53 79,57 62,71 57,71 27,62 9,40 -18,53 -22,-62 -62,-98 -66,-70 -80,-62 -84,-49 -92,-40 -71,-13 -71,9 -49,13 -26,49 z"
   id="path84"
   inkscape:connector-curvature="0"
   style="fill:#9f7f5f;stroke:none" />
         <path
   d="m 8750,16516 -27,-80 -13,-66 v -53 l 18,-40 48,-62 67,-57 53,-27 44,-8 57,26 40,31 53,40 -9,-44 -31,-89 -35,-44 -57,-13 -40,9 -53,22 -49,39 -35,40 -40,53 -40,45 -31,53 -22,39 -18,62 v 44 l 9,27 18,22 44,18 z"
   id="path86"
   inkscape:connector-curvature="0"
   style="fill:#9f7f5f;stroke:none" />
         <path
   d="m 10058,16932 27,61 -5,40 -4,44 -27,40 -26,18 -58,13 -35,13 -36,9 -35,18 -26,18 -31,26 -31,22 v 14 l -31,79 -36,88 -13,58 -22,44 -26,49 -14,26 -22,49 -26,53 -31,31 -36,31 -35,31 -44,31 -44,17 -49,14 -57,4 -23,5 -4,-62 22,-49 31,-49 44,-31 53,-39 58,-22 66,-23 58,-17 17,-13 5,-27 v -35 l -14,-45 -17,-26 -14,-18 40,-13 36,-22 26,-36 9,-35 v -44 l -4,-44 -14,-49 -22,-53 -13,-35 53,26 49,18 h 57 44 l 44,-9 36,-22 4,-40 -13,-35 -5,-27 27,27 40,31 48,4 40,-13 5,-31 z"
   id="path88"
   inkscape:connector-curvature="0"
   style="fill:#9f7f5f;stroke:none" />
         <path
   d="m 9899,16728 -62,62 h 53 l 44,13 53,27 31,26 18,27 -4,-40 -45,-62 -35,-31 z"
   id="path90"
   inkscape:connector-curvature="0"
   style="fill:#9f7f5f;stroke:none" />
         <path
   d="m 9072,12591 -114,57 -328,128 -119,-132 -676,415 106,84 -181,177 -5,97 9,62 22,22 22,27 137,110 -159,142 -172,-49 -150,-57 -102,-45 -49,9 -62,22 -57,18 -44,27 -36,31 -48,44 -49,57 -22,44 -13,45 -9,44 -4,35 128,31 53,5 h 53 l 44,-9 58,-18 57,-9 h 35 l 80,9 84,13 278,49 49,18 172,132 102,18 88,-5 67,-13 48,-66 22,-71 14,-93 97,84 75,58 66,40 58,35 97,62 115,-44 13,62 31,101 9,62 v 75 l 4,75 v 62 53 l -35,71 -13,40 -14,40 -4,39 -4,45 8,48 27,58 35,53 133,216 71,142 97,181 93,164 13,92 v 45 l -4,44 -14,48 -66,137 -53,84 -49,111 -44,93 -31,119 -22,120 -31,137 -31,128 -22,79 -40,40 -75,13 -71,14 -44,39 -22,53 -31,67 -26,97 -5,102 22,75 27,53 110,49 115,39 93,-4 93,-18 97,-17 106,-62 53,-45 53,-39 62,-67 31,-44 36,-66 v -66 -138 -97 l 4,-115 -4,-141 -5,-146 v -155 l 93,-88 49,-80 48,-93 -9,-88 -39,-49 -71,-79 v -71 -97 -133 l -9,-97 -13,-97 -31,-177 22,-49 18,-35 26,-35 22,-31 40,-27 44,-18 124,-39 137,-49 186,-93 216,-106 111,-57 137,-76 84,-57 57,-53 58,-84 53,-84 44,-111 26,-92 -9,-80 -22,-119 -39,-159 -71,-133 -102,-71 -93,-70 -115,-67 -88,-31 -150,-35 h -208 l -155,4 -141,-9 -115,-66 -119,-75 39,-53 45,-40 44,-44 35,-53 13,-49 -13,-39 -26,-31 -53,-14 -49,5 -71,26 -48,27 -71,31 -172,4 -36,-124 -17,-106 -27,-93 -40,-92 z"
   id="path92"
   inkscape:connector-curvature="0"
   style="fill:#5f3f1f;stroke:none" />
         <path
   d="m 8056,11671 18,-97 17,-62 27,-53 40,-44 61,-31 h 40 l 62,13 88,53 89,80 62,79 53,98 44,114 22,76 31,141 4,111 v 115 l -26,92 -44,58 -62,48 -44,27 -36,18 14,146 212,265 -394,-137 -274,-986 z"
   id="path94"
   inkscape:connector-curvature="0"
   style="fill:#5f3f1f;stroke:none" />
         <path
   d="m 6425,12078 -141,44 -45,58 -22,70 -4,67 4,44 14,48 22,31 35,40 44,27 252,44 252,106 190,75 -4,35 22,49 40,44 61,27 76,17 79,14 115,-9 420,137 225,159 623,-362 -229,-266 -5,-212 13,-208 -4,-75 -18,-62 -26,-61 -40,-58 -49,-49 -53,-39 -84,-40 -123,-53 -146,-31 -164,18 -101,35 -111,62 -168,-9 58,66 -115,111 -226,150 -123,62 -403,-119 z"
   id="path96"
   inkscape:connector-curvature="0"
   style="fill:#5f3f1f;stroke:none" />
         <path
   d="m 6566,12087 h -84 l -75,22 -44,35 -31,31 -26,58 -5,53 9,53 18,48 48,58 62,35 142,27 459,176 58,-4 53,13 40,18 13,9 9,18 v 30 l -40,5 -49,-5 -62,-13 v 31 l 18,31 53,27 137,22 111,4 106,9 110,31 150,53 133,53 49,44 415,-106 168,-305 -62,-79 v -213 l 13,-185 -4,-89 -22,-66 -31,-66 -31,-49 -44,-44 -62,-44 -71,-40 -172,-66 -97,-18 -98,9 -75,9 -57,17 -71,31 -88,49 -62,-5 -106,-4 88,71 -22,48 -66,58 -58,53 -84,44 -88,49 -62,44 -71,48 -44,40 -35,53 -36,62 14,-150 -22,-40 h -36 l -35,13 -49,27 -62,35 18,-44 9,-35 -13,-31 -18,-22 z"
   id="path98"
   inkscape:connector-curvature="0"
   style="fill:#7f5f3f;stroke:none" />
         <path
   d="m 6385,11985 -53,9 -35,13 -27,22 -17,31 -5,36 18,39 18,27 48,35 75,22 80,-4 57,-27 36,-35 22,-44 13,-49 -40,-48 -84,-23 -62,-4 z"
   id="path100"
   inkscape:connector-curvature="0"
   style="fill:#5f5f5f;stroke:none" />
         <path
   d="m 6390,12020 -27,14 -13,22 v 26 l 13,27 27,31 39,26 40,22 40,-17 40,-27 4,-40 -4,-35 -22,-22 -31,-18 -36,-9 z"
   id="path102"
   inkscape:connector-curvature="0"
   style="fill:#7f7f7f;stroke:none" />
         <path
   d="m 7361,12281 c 0,17 -7,34 -19,49 -12,14 -30,26 -51,35 -22,9 -46,13 -71,13 -25,0 -49,-4 -70,-13 -22,-9 -40,-21 -52,-35 -12,-15 -19,-32 -19,-49 0,-17 7,-34 19,-48 12,-15 30,-27 52,-36 21,-9 45,-13 70,-13 25,0 49,4 71,13 21,9 39,21 51,36 12,14 19,31 19,48 z"
   id="path104"
   inkscape:connector-curvature="0"
   style="fill:#000000;stroke:none" />
         <path
   d="m 7206,12170 -16,-184 -9,1 -8,1 -9,2 -9,3 -8,3 -8,3 -8,4 -8,4 -8,5 -8,5 -7,5 -7,6 -6,6 -7,7 -6,6 -5,8 -6,7 -5,8 -4,8 -5,8 -4,8 -3,9 -3,9 -3,8 -2,9 -1,10 -2,9 -1,9 v 9 10 l 1,9 1,9 1,9 2,10 2,9 3,8 3,9 3,9 4,8 5,8 4,8 5,8 6,7 6,7 6,7 6,6 7,6 7,6 7,5 8,5 7,5 8,4 8,4 9,3 8,3 9,2 8,2 9,1 9,1 9,1 h 9 9 l 8,-1 9,-2 9,-2 9,-2 8,-3 8,-3 8,-3 8,-4 8,-5 8,-5 7,-5 7,-6 7,-6 6,-6 z"
   id="path106"
   inkscape:connector-curvature="0"
   style="fill:#ffffff;stroke:none" />
         <path
   d="m 7111,12121 12,-60 h -3 l -3,-1 h -4 -3 -3 -3 l -3,1 h -3 l -3,1 -3,1 -3,1 -3,1 -3,1 -3,2 -2,1 -3,2 -3,2 -2,2 -2,2 -3,2 -2,2 -2,3 -2,2 -1,3 -2,2 -1,3 -2,3 -1,2 -1,3 -1,3 -1,3 v 3 l -1,3 v 3 3 3 3 l 1,3 v 3 l 1,3 1,3 1,3 1,3 1,3 1,3 2,2 2,3 1,2 2,3 2,2 2,2 3,2 2,2 3,2 2,2 3,1 3,2 2,1 3,2 3,1 3,1 h 3 l 3,1 h 3 l 4,1 h 3 3 3 3 l 3,-1 h 3 l 3,-1 3,-1 3,-1 3,-1 3,-1 3,-2 3,-1 2,-2 3,-2 2,-2 2,-2 3,-2 2,-2 2,-3 2,-2 1,-3 2,-2 1,-3 2,-3 1,-2 1,-3 1,-3 1,-3 v -3 l 1,-3 v -3 -3 -3 -3 l -1,-3 v -3 z"
   id="path108"
   inkscape:connector-curvature="0"
   style="fill:#000000;stroke:none" />
         <path
   d="m 7196,12194 111,170 8,-6 7,-7 7,-7 7,-7 7,-8 6,-8 5,-9 5,-8 5,-9 5,-10 4,-9 3,-10 3,-10 3,-10 2,-10 2,-11 1,-10 1,-10 v -11 -10 l -1,-11 -1,-10 -2,-11 -2,-10 -3,-10 -3,-10 -3,-10 -4,-9 -5,-9 -4,-9 -6,-9 -5,-9 -6,-8 -7,-8 -6,-7 -8,-7 -7,-7 -8,-6 -8,-6 -8,-6 -8,-5 -9,-4 -9,-4 -9,-4 -9,-3 -10,-2 -9,-2 -10,-2 -9,-1 h -10 -9 l -10,1 -10,1 -9,2 -9,2 -10,2 -9,4 -9,3 -9,4 -8,5 -9,5 z"
   id="path110"
   inkscape:connector-curvature="0"
   style="fill:#7f5f3f;stroke:none" />
         <path
   d="m 7782,11764 22,-225 31,-67 62,-26 66,26 53,53 172,319 54,150 30,230 -13,190 -40,159 -150,106 -102,22 -57,-75 -35,-106 -45,-97 z"
   id="path112"
   inkscape:connector-curvature="0"
   style="fill:#7f5f3f;stroke:none" />
         <path
   d="m 7791,12020 -14,-190 -4,-97 v -80 l 4,-92 9,-45 22,-57 36,-27 66,-13 57,18 49,44 84,124 93,177 66,154 36,93 17,97 5,138 -9,163 -62,142 -106,92 -84,53 -115,14 -44,-84 -49,-177 115,124 35,4 40,-26 31,-36 13,-57 5,-49 4,-110 5,-98 -5,-79 -13,-106 -22,-102 -27,-93 -35,-97 -44,-53 -27,-13 -35,4 -22,18 -27,31 -35,101 18,-181 22,-22 31,-22 35,-13 49,13 35,22 40,40 40,57 26,67 13,61 14,71 13,93 -5,141 -4,107 -31,229 -75,190 106,-66 44,-40 27,-39 17,-45 v -62 l 14,-75 v -97 l -5,-93 -13,-106 -31,-128 -49,-128 -66,-133 -35,-79 -22,-36 -22,-22 -36,-22 -53,-9 -40,13 -26,49 -13,80 z"
   id="path114"
   inkscape:connector-curvature="0"
   style="fill:#5f3f1f;stroke:none" />
         <path
   d="m 8847,12918 102,-9 79,9 49,13 35,31 27,53 17,-102 5,-62 -18,-53 -48,-53 -54,-26 -44,-18 -62,-13 -61,-5 -76,31 -53,58 -48,53 h -89 -57 l -44,4 -40,31 -75,67 57,48 -40,-4 -44,4 -70,13 -80,27 -71,31 -66,22 -71,31 -53,35 -35,45 -66,114 -5,31 -4,62 v 53 40 l 26,53 49,49 48,22 49,22 44,35 -48,14 -71,26 -44,27 13,39 13,40 22,31 27,53 -106,-70 -89,-36 -84,-26 -110,-18 -124,-13 -88,-71 -75,26 -5,80 -53,-22 h -53 l -44,22 -22,27 -44,44 -71,71 4,26 5,22 17,31 40,13 44,5 49,9 44,-18 40,-22 58,-27 44,-4 62,13 75,13 97,14 115,17 102,14 128,31 88,84 49,39 53,22 79,18 67,-13 31,-53 8,-89 -8,-79 8,-62 36,-80 44,-75 22,-79 9,-98 18,-70 13,115 66,-22 53,-62 18,-58 -31,-66 84,62 v 31 l -13,53 -27,48 -71,62 -66,80 -35,35 -22,36 -5,26 9,31 40,44 66,40 84,62 53,35 71,53 57,36 84,35 62,18 53,26 36,49 22,57 -5,67 9,84 18,84 84,-80 101,-84 102,-66 -18,31 -53,66 -35,44 -44,53 -49,58 -44,53 -27,40 -22,48 -17,66 -5,45 -4,66 -9,71 18,70 39,93 71,155 80,141 93,173 70,115 53,88 -22,75 -9,71 5,58 -36,70 -35,44 -62,58 -44,79 -22,71 -18,80 -22,88 -31,137 -31,124 -62,146 -44,141 -40,40 -75,13 -53,14 -53,39 -31,53 -17,62 -14,89 5,97 17,62 36,44 31,31 44,9 h 40 l 31,-13 -5,-257 h 53 l -17,80 8,79 18,71 31,40 53,4 49,5 39,-27 31,-40 5,-53 v -48 l 31,-49 4,58 22,57 27,18 44,-31 35,-9 40,-18 49,-35 53,-62 17,-53 -17,-53 -40,-35 -44,-36 -53,-31 -49,-13 -71,-9 89,128 -53,-8 -40,-27 -40,-22 -31,-31 -35,-27 -44,-31 -49,-13 h -35 l -49,13 -26,-13 57,-26 35,-36 31,-123 22,92 31,49 53,35 80,5 71,-18 h 62 l 70,18 75,53 -22,-212 53,-84 v -93 l 5,-137 -5,-155 27,-128 31,-49 31,-44 13,-40 -4,-35 -36,-49 -40,-88 40,-31 22,-44 -4,-44 -27,-58 -22,-66 -4,-124 v -124 -115 -128 l 18,-66 30,-71 27,-35 35,-31 53,-53 49,-36 66,-9 71,-17 71,-31 101,-49 226,-101 115,-62 -22,-45 -199,49 66,-71 53,-62 71,-26 88,-40 84,-53 27,-49 v -83 l -27,-80 -57,-66 -58,-67 -44,-62 53,-4 49,4 53,14 57,17 44,40 62,62 36,58 22,-80 9,-66 4,-80 62,53 44,80 44,84 -4,-93 -5,-93 -35,-66 -150,-288 -75,-84 -27,-22 -62,-44 -84,-53 -75,-31 -79,-18 h -49 l -71,27 -75,18 -66,4 -58,-4 -75,-5 h -88 l -53,-4 -120,-9 -70,-22 -53,-27 -75,-39 -53,-62 -67,-71 -40,-66 -35,-49 -40,-35 -53,-53 -44,-49 -44,-35 -75,-18 -67,-22 -61,-27 z"
   id="path116"
   inkscape:connector-curvature="0"
   style="fill:#7f5f3f;stroke:none" />
         <path
   d="m 10641,13709 98,18 70,-5 76,-17 57,-27 44,-26 53,-45 40,-39 49,-62 48,-58 49,-66 40,-84 53,-97 53,-84 75,-115 71,-80 79,-75 88,-71 58,-44 53,-44 110,-80 93,-57 75,-40 58,-26 75,-31 88,-31 93,-22 97,-14 120,-4 84,9 75,13 97,26 111,40 84,44 75,45 110,75 80,71 93,101 53,75 48,80 27,66 22,62 13,71 5,53 -5,57 -13,111 -13,88 -27,84 -35,89 -44,79 -58,98 -93,110 -79,84 -93,88 -93,107 -75,114 -49,98 -57,123 -27,80 -22,88 v 76 l 9,66 13,57 27,71 35,62 31,44 49,36 62,31 75,17 132,13 -79,14 -66,4 -67,-9 -66,-26 -57,-36 -49,-39 -40,-45 -31,-53 -22,-53 -26,-70 -18,-76 -9,-70 9,-62 22,-75 22,-67 31,-75 35,-88 31,-71 53,-97 62,-102 71,-88 110,-115 84,-97 93,-124 53,-102 27,-79 9,-40 8,-80 5,-75 -13,-79 -22,-54 -49,-106 -49,-75 -62,-71 -88,-79 -88,-71 -102,-57 -93,-40 -115,-40 -141,-22 h -89 l -119,18 -110,35 -67,31 -119,62 -137,88 -115,93 -119,106 -89,84 -39,49 -49,71 -58,110 -30,80 -36,66 -44,71 -66,97 -62,75 -71,75 -88,75 -199,155 -58,35 -115,27 -97,-9 -66,-31 -27,-57 -8,-44 -5,-67 13,-57 18,-44 40,-53 z"
   id="path118"
   inkscape:connector-curvature="0"
   style="fill:#7f5f3f;stroke:none" />
         <path
   d="m 10319,14686 -27,31 -9,31 27,13 57,-26 71,-27 66,9 62,66 67,-31 61,-35 54,-35 66,-58 35,-40 31,-79 18,-111 v -124 l -27,-88 -35,-57 -31,13 v 57 l 4,49 v 71 l -13,53 -26,9 -31,-89 -49,-71 -71,-53 -66,-35 -53,-13 h -27 l -4,22 22,31 44,26 49,40 26,49 23,66 4,93 -13,57 -27,44 -53,31 -53,18 -88,35 z"
   id="path120"
   inkscape:connector-curvature="0"
   style="fill:#7f5f3f;stroke:none" />
        </g>
       </g>
      </g>
     </g>
    </g>
   </g>
  </g>
 </g>
</svg>