<?xml version="1.0" encoding="UTF-8" standalone="no"?>
<svg
   xmlns:ooo="http://xml.openoffice.org/svg/export"
   xmlns:dc="http://purl.org/dc/elements/1.1/"
   xmlns:cc="http://creativecommons.org/ns#"
   xmlns:rdf="http://www.w3.org/1999/02/22-rdf-syntax-ns#"
   xmlns:svg="http://www.w3.org/2000/svg"
   xmlns="http://www.w3.org/2000/svg"
   xmlns:sodipodi="http://sodipodi.sourceforge.net/DTD/sodipodi-0.dtd"
   xmlns:inkscape="http://www.inkscape.org/namespaces/inkscape"
   version="1.2"
   width="156.02mm"
   height="85.769997mm"
   viewBox="0 0 15602 8576.9997"
   preserveAspectRatio="xMidYMid"
   xml:space="preserve"
   id="svg153"
   sodipodi:docname="usa.svg"
   style="fill-rule:evenodd;stroke-width:28.22200012;stroke-linejoin:round"
   inkscape:version="0.92.5 (2060ec1f9f, 2020-04-08)"><metadata
   id="metadata157"><rdf:RDF><cc:Work
       rdf:about=""><dc:format>image/svg+xml</dc:format><dc:type
         rdf:resource="http://purl.org/dc/dcmitype/StillImage" /></cc:Work></rdf:RDF></metadata><sodipodi:namedview
   pagecolor="#ffffff"
   bordercolor="#666666"
   borderopacity="1"
   objecttolerance="10"
   gridtolerance="10"
   guidetolerance="10"
   inkscape:pageopacity="0"
   inkscape:pageshadow="2"
   inkscape:window-width="664"
   inkscape:window-height="487"
   id="namedview155"
   showgrid="false"
   inkscape:zoom="0.2102413"
   inkscape:cx="294.84095"
   inkscape:cy="162.06614"
   inkscape:window-x="0"
   inkscape:window-y="0"
   inkscape:window-maximized="0"
   inkscape:current-layer="svg153" />
 <defs
   class="ClipPathGroup"
   id="defs8">
  <clipPath
   id="presentation_clip_path"
   clipPathUnits="userSpaceOnUse">
   <rect
   x="0"
   y="0"
   width="21000"
   height="29700"
   id="rect2" />
  </clipPath>
  <clipPath
   id="presentation_clip_path_shrink"
   clipPathUnits="userSpaceOnUse">
   <rect
   x="21"
   y="29"
   width="20958"
   height="29641"
   id="rect5" />
  </clipPath>
 </defs>
 <defs
   class="TextShapeIndex"
   id="defs12">
  <g
   ooo:slide="id1"
   ooo:id-list="id3"
   id="g10" />
 </defs>
 <defs
   class="EmbeddedBulletChars"
   id="defs44">
  <g
   id="bullet-char-template-57356"
   transform="matrix(4.8828125e-4,0,0,-4.8828125e-4,0,0)">
   <path
   d="M 580,1141 1163,571 580,0 -4,571 Z"
   id="path14"
   inkscape:connector-curvature="0" />
  </g>
  <g
   id="bullet-char-template-57354"
   transform="matrix(4.8828125e-4,0,0,-4.8828125e-4,0,0)">
   <path
   d="M 8,1128 H 1137 V 0 H 8 Z"
   id="path17"
   inkscape:connector-curvature="0" />
  </g>
  <g
   id="bullet-char-template-10146"
   transform="matrix(4.8828125e-4,0,0,-4.8828125e-4,0,0)">
   <path
   d="M 174,0 602,739 174,1481 1456,739 Z M 1358,739 309,1346 659,739 Z"
   id="path20"
   inkscape:connector-curvature="0" />
  </g>
  <g
   id="bullet-char-template-10132"
   transform="matrix(4.8828125e-4,0,0,-4.8828125e-4,0,0)">
   <path
   d="M 2015,739 1276,0 H 717 l 543,543 H 174 v 393 h 1086 l -543,545 h 557 z"
   id="path23"
   inkscape:connector-curvature="0" />
  </g>
  <g
   id="bullet-char-template-10007"
   transform="matrix(4.8828125e-4,0,0,-4.8828125e-4,0,0)">
   <path
   d="m 0,-2 c -7,16 -16,29 -25,39 l 381,530 c -94,256 -141,385 -141,387 0,25 13,38 40,38 9,0 21,-2 34,-5 21,4 42,12 65,25 l 27,-13 111,-251 280,301 64,-25 24,25 c 21,-10 41,-24 62,-43 C 886,937 835,863 770,784 769,783 710,716 594,584 L 774,223 c 0,-27 -21,-55 -63,-84 l 16,-20 C 717,90 699,76 672,76 641,76 570,178 457,381 L 164,-76 c -22,-34 -53,-51 -92,-51 -42,0 -63,17 -64,51 -7,9 -10,24 -10,44 0,9 1,19 2,30 z"
   id="path26"
   inkscape:connector-curvature="0" />
  </g>
  <g
   id="bullet-char-template-10004"
   transform="matrix(4.8828125e-4,0,0,-4.8828125e-4,0,0)">
   <path
   d="M 285,-33 C 182,-33 111,30 74,156 52,228 41,333 41,471 c 0,78 14,145 41,201 34,71 87,106 158,106 53,0 88,-31 106,-94 l 23,-176 c 8,-64 28,-97 59,-98 l 735,706 c 11,11 33,17 66,17 42,0 63,-15 63,-46 V 965 c 0,-36 -10,-64 -30,-84 L 442,47 C 390,-6 338,-33 285,-33 Z"
   id="path29"
   inkscape:connector-curvature="0" />
  </g>
  <g
   id="bullet-char-template-9679"
   transform="matrix(4.8828125e-4,0,0,-4.8828125e-4,0,0)">
   <path
   d="M 813,0 C 632,0 489,54 383,161 276,268 223,411 223,592 c 0,181 53,324 160,431 106,107 249,161 430,161 179,0 323,-54 432,-161 108,-107 162,-251 162,-431 0,-180 -54,-324 -162,-431 C 1136,54 992,0 813,0 Z"
   id="path32"
   inkscape:connector-curvature="0" />
  </g>
  <g
   id="bullet-char-template-8226"
   transform="matrix(4.8828125e-4,0,0,-4.8828125e-4,0,0)">
   <path
   d="m 346,457 c -73,0 -137,26 -191,78 -54,51 -81,114 -81,188 0,73 27,136 81,188 54,52 118,78 191,78 73,0 134,-26 185,-79 51,-51 77,-114 77,-187 0,-75 -25,-137 -76,-188 -50,-52 -112,-78 -186,-78 z"
   id="path35"
   inkscape:connector-curvature="0" />
  </g>
  <g
   id="bullet-char-template-8211"
   transform="matrix(4.8828125e-4,0,0,-4.8828125e-4,0,0)">
   <path
   d="M -4,459 H 1135 V 606 H -4 Z"
   id="path38"
   inkscape:connector-curvature="0" />
  </g>
  <g
   id="bullet-char-template-61548"
   transform="matrix(4.8828125e-4,0,0,-4.8828125e-4,0,0)">
   <path
   d="m 173,740 c 0,163 58,303 173,419 116,115 255,173 419,173 163,0 302,-58 418,-173 116,-116 174,-256 174,-419 0,-163 -58,-303 -174,-418 C 1067,206 928,148 765,148 601,148 462,206 346,322 231,437 173,577 173,740 Z"
   id="path41"
   inkscape:connector-curvature="0" />
  </g>
 </defs>
 <g
   id="g49"
   transform="translate(-2699,-10561)">
  <g
   id="id2"
   class="Master_Slide">
   <g
   id="bg-id2"
   class="Background" />
   <g
   id="bo-id2"
   class="BackgroundObjects" />
  </g>
 </g>
 <g
   class="SlideGroup"
   id="g151"
   transform="translate(-2699,-10561)">
  <g
   id="g149">
   <g
   id="container-id1">
    <g
   id="id1"
   class="Slide"
   clip-path="url(#presentation_clip_path)">
     <g
   class="Page"
   id="g145">
      <g
   class="Graphic"
   id="g143">
       <g
   id="id3">
        <rect
   class="BoundingBox"
   x="2699"
   y="10561"
   width="15602"
   height="8577"
   id="rect51"
   style="fill:none;stroke:none" />
        <defs
   id="defs56">
         <clipPath
   id="clip_path_1"
   clipPathUnits="userSpaceOnUse">
          <path
   d="m 2699,10561 h 15601 v 8576 H 2699 Z"
   id="path53"
   inkscape:connector-curvature="0" />
         </clipPath>
        </defs>
        <g
   clip-path="url(#clip_path_1)"
   id="g58" />
        <defs
   id="defs63">
         <clipPath
   id="clip_path_2"
   clipPathUnits="userSpaceOnUse">
          <path
   d="m 2699,10565 h 15593 v 8558 H 2699 Z"
   id="path60"
   inkscape:connector-curvature="0" />
         </clipPath>
        </defs>
        <g
   clip-path="url(#clip_path_2)"
   id="g105">
         <path
   d="m 17847,10640 -58,-39 h -61 l -40,4 -27,49 -48,-14 -35,14 -27,66 -79,150 39,92 -30,111 26,48 -4,89 -14,79 -48,13 -40,-44 -75,177 -145,35 -190,57 -137,36 -106,92 -75,102 -61,4 -71,110 31,40 17,88 -35,31 -48,66 -53,18 -18,44 -93,13 -127,5 -102,62 13,97 -31,83 -83,111 -106,101 -106,40 -31,79 -216,89 -119,-27 -22,-26 53,-53 4,-71 -40,-62 44,-31 62,14 -9,-133 -13,-106 -35,-97 -57,-48 -80,-22 -62,44 -57,79 -62,-17 22,-40 31,-22 40,-27 57,-70 -44,-137 -13,-110 -93,-18 -167,-101 -97,44 -18,48 22,40 -48,22 -5,80 h -44 l -71,66 -26,48 -22,53 -4,128 -14,141 36,80 48,132 v 163 l -44,181 -79,13 -53,-30 -44,-67 -49,-97 9,-128 v -83 l -40,-80 9,-159 18,-128 8,-66 80,-110 -44,-49 -40,22 -26,62 -93,97 53,-79 4,-58 -17,-66 13,-62 40,-57 8,-84 18,-44 18,75 79,5 49,-49 79,-35 88,-9 35,31 67,-13 101,-22 53,-5 9,-44 h 9 l -44,-49 -58,-26 -97,-31 h -84 l -53,-9 -26,-35 -97,-13 -88,17 -62,9 -71,62 -88,-40 -70,-31 -84,40 -58,-26 62,-89 -17,-30 -36,13 -84,101 -66,80 -66,88 -93,-9 -39,-101 -36,4 -30,75 -111,4 119,-150 278,-172 18,-44 -154,9 -159,-57 -58,75 -123,-44 -79,30 -53,-88 -137,5 -40,39 -154,-97 -22,-92 -177,-36 80,128 -2612,-84 -159,-39 -277,-36 -353,-53 -441,-39 -168,-31 -238,-40 -172,-40 -459,-132 -31,13 13,62 27,71 -22,31 -31,30 18,49 66,110 -53,75 -31,93 h -75 l 62,-44 22,-49 -14,-48 -39,-13 17,-36 53,14 v -27 l -35,-84 -40,-4 -83,-13 -67,-62 -44,-31 -53,-22 -35,57 22,93 13,75 -8,93 -5,83 13,31 31,62 -31,44 5,40 4,66 -48,22 -36,150 -35,132 -53,137 -66,106 -62,137 -62,84 v 207 185 l -26,71 -62,119 -79,128 79,163 -22,133 -22,92 66,164 49,105 70,45 67,-75 22,48 17,40 -66,9 5,48 -62,-31 9,102 26,88 13,66 84,-13 -13,31 -71,48 v 106 l 97,106 40,35 -26,45 30,61 18,75 27,49 13,57 4,58 -17,39 66,18 61,4 53,-13 67,9 17,53 13,44 67,71 30,30 31,58 5,35 62,35 52,49 58,88 9,106 -5,57 58,9 61,-13 62,-4 93,4 88,4 h 119 l 79,9 14,49 -18,48 97,62 97,49 185,97 137,75 150,57 154,53 102,9 88,-13 137,17 88,13 97,-8 93,22 79,-5 9,-110 141,18 168,4 132,154 159,133 93,101 4,89 31,97 62,66 66,62 194,119 66,-18 40,-35 22,-71 17,-57 75,-5 84,5 106,22 62,44 79,35 27,58 39,92 40,88 44,71 80,49 66,70 26,102 27,84 53,136 75,14 83,35 84,22 111,4 61,44 150,-8 9,-106 -84,-75 -13,-115 57,-79 -4,-84 22,-22 9,-62 53,-35 97,-67 h 53 l 119,-75 75,-70 119,-71 -31,-92 27,-22 35,97 163,-142 132,5 181,40 141,-23 67,-8 -36,-62 62,9 40,48 v 44 l 132,9 66,5 27,-27 57,49 44,13 53,-13 -40,-75 62,-5 40,22 57,44 40,-13 40,-44 -27,-57 -57,-22 -36,-31 27,-62 -4,-57 h -58 l -53,57 -9,-79 -70,44 -66,22 -22,-40 53,-66 185,35 40,-70 92,-27 106,27 40,-27 v -88 l 53,110 17,40 80,-44 61,-71 31,44 53,18 84,-35 177,-31 35,39 44,49 70,13 71,9 84,-31 53,-53 48,-17 31,22 44,48 66,58 62,17 53,9 58,57 35,67 44,44 -18,92 5,75 v 53 l 17,40 27,9 17,-80 40,44 -31,62 -9,53 36,27 70,70 58,13 31,89 35,17 53,97 70,36 66,26 49,80 97,-18 132,-31 36,-145 -22,-93 v -163 l -36,-49 -66,-79 -57,-89 -53,-110 -53,-128 -79,-119 -67,-84 -79,-119 -57,-101 -22,-89 -9,-66 13,-57 13,-22 5,-141 75,-128 -18,-80 115,-31 145,-141 75,-229 185,-80 111,-211 181,-67 88,-163 v -115 l 4,-101 -44,4 v 168 l -110,124 -150,30 145,-75 -83,-35 83,-18 53,5 27,-97 -9,-88 h -79 l -119,44 4,-84 66,35 102,-48 13,-44 -71,-27 9,-101 -79,-40 -27,35 -26,-70 9,-80 13,-79 -141,-58 39,-17 -35,-172 -4,-102 26,-26 4,141 53,97 80,93 v 176 l 88,13 71,-176 -5,-256 -92,-71 8,-53 111,58 57,-133 4,-110 v -190 l -52,-61 26,-49 40,53 229,-119 159,-128 -119,-13 -172,101 -111,44 80,-97 75,-48 44,17 123,-66 27,-62 h 35 l 49,-30 53,-62 92,35 49,-44 40,-62 -40,-79 -58,-49 -35,-4 -44,22 44,66 22,40 -53,-5 -57,-75 -57,14 13,-58 26,-62 -48,-8 39,-120 -13,-70 58,-53 -31,-75 53,-35 61,-44 58,-23 22,-119 h 62 l 83,-57 44,-62 71,-57 -9,-80 -97,-39 -57,-80 h -106 l -44,-92 -13,-102 -31,-92 z"
   id="path65"
   inkscape:connector-curvature="0"
   style="fill:#008000;stroke:none" />
         <path
   d="m 17847,10640 -58,-39 h -61 l -40,4 -27,49 -48,-14 -35,14 -27,66 -79,150 39,92 -30,111 26,48 -4,89 -14,79 -48,13 -40,-44 -75,177 -145,35 -190,57 -137,36 -106,92 -75,102 -61,4 -71,110 31,40 17,88 -35,31 -48,66 -53,18 -18,44 -93,13 -127,5 -102,62 13,97 -31,83 -83,111 -106,101 -106,40 -31,79 -216,89 -119,-27 -22,-26 53,-53 4,-71 -40,-62 44,-31 62,14 -9,-133 -13,-106 -35,-97 -57,-48 -80,-22 -62,44 -57,79 -62,-17 22,-40 31,-22 40,-27 57,-70 -44,-137 -13,-110 -93,-18 -167,-101 -97,44 -18,48 22,40 -48,22 -5,80 h -44 l -71,66 -26,48 -22,53 -4,128 -14,141 36,80 48,132 v 163 l -44,181 -79,13 -53,-30 -44,-67 -49,-97 9,-128 v -83 l -40,-80 9,-159 18,-128 8,-66 80,-110 -44,-49 -40,22 -26,62 -93,97 53,-79 4,-58 -17,-66 13,-62 40,-57 8,-84 18,-44 18,75 79,5 49,-49 79,-35 88,-9 35,31 67,-13 101,-22 53,-5 9,-44 h 9 l -44,-49 -58,-26 -97,-31 h -84 l -53,-9 -26,-35 -97,-13 -88,17 -62,9 -71,62 -88,-40 -70,-31 -84,40 -58,-26 62,-89 -17,-30 -36,13 -84,101 -66,80 -66,88 -93,-9 -39,-101 -36,4 -30,75 -111,4 119,-150 278,-172 18,-44 -154,9 -159,-57 -58,75 -123,-44 -79,30 -53,-88 -137,5 -40,39 -154,-97 -22,-92 -177,-36 80,128 -2612,-84 -159,-39 -277,-36 -353,-53 -441,-39 -168,-31 -238,-40 -172,-40 -459,-132 -31,13 13,62 27,71 -22,31 -31,30 18,49 66,110 -53,75 -31,93 h -75 l 62,-44 22,-49 -14,-48 -39,-13 17,-36 53,14 v -27 l -35,-84 -40,-4 -83,-13 -67,-62 -44,-31 -53,-22 -35,57 22,93 13,75 -8,93 -5,83 13,31 31,62 -31,44 5,40 4,66 -48,22 -36,150 -35,132 -53,137 -66,106 -62,137 -62,84 v 207 185 l -26,71 -62,119 -79,128 79,163 -22,133 -22,92 66,164 49,105 70,45 67,-75 22,48 17,40 -66,9 5,48 -62,-31 9,102 26,88 13,66 84,-13 -13,31 -71,48 v 106 l 97,106 40,35 -26,45 30,61 18,75 27,49 13,57 4,58 -17,39 66,18 61,4 53,-13 67,9 17,53 13,44 67,71 30,30 31,58 5,35 62,35 52,49 58,88 9,106 -5,57 58,9 61,-13 62,-4 93,4 88,4 h 119 l 79,9 14,49 -18,48 97,62 97,49 185,97 137,75 150,57 154,53 102,9 88,-13 137,17 88,13 97,-8 93,22 79,-5 9,-110 141,18 168,4 132,154 159,133 93,101 4,89 31,97 62,66 66,62 194,119 66,-18 40,-35 22,-71 17,-57 75,-5 84,5 106,22 62,44 79,35 27,58 39,92 40,88 44,71 80,49 66,70 26,102 27,84 53,136 75,14 83,35 84,22 111,4 61,44 150,-8 9,-106 -84,-75 -13,-115 57,-79 -4,-84 22,-22 9,-62 53,-35 97,-67 h 53 l 119,-75 75,-70 119,-71 -31,-92 27,-22 35,97 163,-142 132,5 181,40 141,-23 67,-8 -36,-62 62,9 40,48 v 44 l 132,9 66,5 27,-27 57,49 44,13 53,-13 -40,-75 62,-5 40,22 57,44 40,-13 40,-44 -27,-57 -57,-22 -36,-31 27,-62 -4,-57 h -58 l -53,57 -9,-79 -70,44 -66,22 -22,-40 53,-66 185,35 40,-70 92,-27 106,27 40,-27 v -88 l 53,110 17,40 80,-44 61,-71 31,44 53,18 84,-35 177,-31 35,39 44,49 70,13 71,9 84,-31 53,-53 48,-17 31,22 44,48 66,58 62,17 53,9 58,57 35,67 44,44 -18,92 5,75 v 53 l 17,40 27,9 17,-80 40,44 -31,62 -9,53 36,27 70,70 58,13 31,89 35,17 53,97 70,36 66,26 49,80 97,-18 132,-31 36,-145 -22,-93 v -163 l -36,-49 -66,-79 -57,-89 -53,-110 -53,-128 -79,-119 -67,-84 -79,-119 -57,-101 -22,-89 -9,-66 13,-57 13,-22 5,-141 75,-128 -18,-80 115,-31 145,-141 75,-229 185,-80 111,-211 181,-67 88,-163 v -115 l 4,-101 -44,4 v 168 l -110,124 -150,30 145,-75 -83,-35 83,-18 53,5 27,-97 -9,-88 h -79 l -119,44 4,-84 66,35 102,-48 13,-44 -71,-27 9,-101 -79,-40 -27,35 -26,-70 9,-80 13,-79 -141,-58 39,-17 -35,-172 -4,-102 26,-26 4,141 53,97 80,93 v 176 l 88,13 71,-176 -5,-256 -92,-71 8,-53 111,58 57,-133 4,-110 v -190 l -52,-61 26,-49 40,53 229,-119 159,-128 -119,-13 -172,101 -111,44 80,-97 75,-48 44,17 123,-66 27,-62 h 35 l 49,-30 53,-62 92,35 49,-44 40,-62 -40,-79 -58,-49 -35,-4 -44,22 44,66 22,40 -53,-5 -57,-75 -57,14 13,-58 26,-62 -48,-8 39,-120 -13,-70 58,-53 -31,-75 53,-35 61,-44 58,-23 22,-119 h 62 l 83,-57 44,-62 71,-57 -9,-80 -97,-39 -57,-80 h -106 l -44,-92 -13,-102 -31,-92 z"
   id="path67"
   inkscape:connector-curvature="0"
   style="fill:none;stroke:#000000;stroke-width:35;stroke-linecap:round;stroke-linejoin:round" />
         <path
   d="m 6898,17823 v -75 l 97,-176 75,53 -79,198 z"
   id="path69"
   inkscape:connector-curvature="0"
   style="fill:#008000;stroke:none" />
         <path
   d="m 6898,17823 v -75 l 97,-176 75,53 -79,198 z"
   id="path71"
   inkscape:connector-curvature="0"
   style="fill:none;stroke:#000000;stroke-width:35;stroke-linecap:round;stroke-linejoin:round" />
         <path
   d="m 7216,17391 -71,150 124,101 141,27 57,-124 -35,-189 z"
   id="path73"
   inkscape:connector-curvature="0"
   style="fill:#008000;stroke:none" />
         <path
   d="m 7216,17391 -71,150 124,101 141,27 57,-124 -35,-189 z"
   id="path75"
   inkscape:connector-curvature="0"
   style="fill:none;stroke:#000000;stroke-width:35;stroke-linecap:round;stroke-linejoin:round" />
         <path
   d="m 7445,17700 327,-128 57,154 62,35 31,120 -159,17 -119,22 z"
   id="path77"
   inkscape:connector-curvature="0"
   style="fill:#008000;stroke:none" />
         <path
   d="m 7445,17700 327,-128 57,154 62,35 31,120 -159,17 -119,22 z"
   id="path79"
   inkscape:connector-curvature="0"
   style="fill:none;stroke:#000000;stroke-width:35;stroke-linecap:round;stroke-linejoin:round" />
         <path
   d="m 7992,17845 -57,168 101,9 62,-40 115,4 101,-70 -66,-27 -48,-53 z"
   id="path81"
   inkscape:connector-curvature="0"
   style="fill:#008000;stroke:none" />
         <path
   d="m 7992,17845 -57,168 101,9 62,-40 115,4 101,-70 -66,-27 -48,-53 z"
   id="path83"
   inkscape:connector-curvature="0"
   style="fill:none;stroke:#000000;stroke-width:35;stroke-linecap:round;stroke-linejoin:round" />
         <path
   d="m 8182,18101 -132,9 22,128 132,-31 z"
   id="path85"
   inkscape:connector-curvature="0"
   style="fill:#008000;stroke:none" />
         <path
   d="m 8182,18101 -132,9 22,128 132,-31 z"
   id="path87"
   inkscape:connector-curvature="0"
   style="fill:none;stroke:#000000;stroke-width:35;stroke-linecap:round;stroke-linejoin:round" />
         <path
   d="m 8217,18300 106,-53 v 119 l -70,13 z"
   id="path89"
   inkscape:connector-curvature="0"
   style="fill:#008000;stroke:none" />
         <path
   d="m 8217,18300 106,-53 v 119 l -70,13 z"
   id="path91"
   inkscape:connector-curvature="0"
   style="fill:none;stroke:#000000;stroke-width:35;stroke-linecap:round;stroke-linejoin:round" />
         <path
   d="m 8597,18309 -111,291 80,145 v 256 l 154,71 71,-150 194,-35 150,-168 -155,-256 z"
   id="path93"
   inkscape:connector-curvature="0"
   style="fill:#008000;stroke:none" />
         <path
   d="m 8597,18309 -111,291 80,145 v 256 l 154,71 71,-150 194,-35 150,-168 -155,-256 z"
   id="path95"
   inkscape:connector-curvature="0"
   style="fill:none;stroke:#000000;stroke-width:35;stroke-linecap:round;stroke-linejoin:round" />
         <path
   d="m 8332,17951 -75,93 31,66 66,26 71,115 185,-44 4,-128 -136,-101 z"
   id="path97"
   inkscape:connector-curvature="0"
   style="fill:#008000;stroke:none" />
         <path
   d="m 8332,17951 -75,93 31,66 66,26 71,115 185,-44 4,-128 -136,-101 z"
   id="path99"
   inkscape:connector-curvature="0"
   style="fill:none;stroke:#000000;stroke-width:35;stroke-linecap:round;stroke-linejoin:round" />
         <path
   d="m 3317,14298 745,-538 357,97 172,167 697,71 22,1787 230,53 106,212 163,-71 331,481 286,225 -4,194 -366,31 -163,-600 -1147,-582 31,185 -261,234 -44,-89 h -75 l -207,499 -644,490 -635,234 -186,-31 733,-424 h 88 l 269,-322 119,-13 181,-243 -62,-110 -392,48 -265,-608 150,-278 243,-102 -84,-243 -261,115 -189,-348 212,-89 194,97 92,-53 -163,-304 -287,-22 z"
   id="path101"
   inkscape:connector-curvature="0"
   style="fill:#008000;stroke:none" />
         <path
   d="m 3317,14298 745,-538 357,97 172,167 697,71 22,1787 230,53 106,212 163,-71 331,481 286,225 -4,194 -366,31 -163,-600 -1147,-582 31,185 -261,234 -44,-89 h -75 l -207,499 -644,490 -635,234 -186,-31 733,-424 h 88 l 269,-322 119,-13 181,-243 -62,-110 -392,48 -265,-608 150,-278 243,-102 -84,-243 -261,115 -189,-348 212,-89 194,97 92,-53 -163,-304 -287,-22 z"
   id="path103"
   inkscape:connector-curvature="0"
   style="fill:none;stroke:#000000;stroke-width:35;stroke-linecap:round;stroke-linejoin:round" />
        </g>
        <g
   clip-path="url(#clip_path_1)"
   id="g107" />
        <defs
   id="defs112">
         <clipPath
   id="clip_path_3"
   clipPathUnits="userSpaceOnUse">
          <path
   d="m 5579,13376 h 1944 v 3211 H 5579 Z"
   id="path109"
   inkscape:connector-curvature="0" />
         </clipPath>
        </defs>
        <g
   clip-path="url(#clip_path_3)"
   id="g116">
         <path
   d="m 3674,10195 5721,9539"
   id="path114"
   inkscape:connector-curvature="0"
   style="fill:none;stroke:#000000;stroke-width:71;stroke-linecap:round;stroke-linejoin:miter" />
        </g>
        <g
   clip-path="url(#clip_path_1)"
   id="g118" />
        <defs
   id="defs123">
         <clipPath
   id="clip_path_4"
   clipPathUnits="userSpaceOnUse">
          <path
   d="m 7489,16553 h 3210 v 2156 H 7489 Z"
   id="path120"
   inkscape:connector-curvature="0" />
         </clipPath>
        </defs>
        <g
   clip-path="url(#clip_path_4)"
   id="g127">
         <path
   d="m 4309,14435 9532,6358"
   id="path125"
   inkscape:connector-curvature="0"
   style="fill:none;stroke:#000000;stroke-width:71;stroke-linecap:round;stroke-linejoin:miter" />
        </g>
        <g
   clip-path="url(#clip_path_1)"
   id="g129" />
        <defs
   id="defs134">
         <clipPath
   id="clip_path_5"
   clipPathUnits="userSpaceOnUse">
          <path
   d="m 5156,16553 h 2368 v 1733 H 5156 Z"
   id="path131"
   inkscape:connector-curvature="0" />
         </clipPath>
        </defs>
        <g
   clip-path="url(#clip_path_5)"
   id="g138">
         <path
   d="M 9818,14858 2827,19945"
   id="path136"
   inkscape:connector-curvature="0"
   style="fill:none;stroke:#000000;stroke-width:71;stroke-linecap:round;stroke-linejoin:miter" />
        </g>
        <g
   clip-path="url(#clip_path_1)"
   id="g140" />
       </g>
      </g>
     </g>
    </g>
   </g>
  </g>
 </g>
</svg>