<?xml version="1.0" encoding="UTF-8" standalone="no"?>
<svg
   xmlns:ooo="http://xml.openoffice.org/svg/export"
   xmlns:dc="http://purl.org/dc/elements/1.1/"
   xmlns:cc="http://creativecommons.org/ns#"
   xmlns:rdf="http://www.w3.org/1999/02/22-rdf-syntax-ns#"
   xmlns:svg="http://www.w3.org/2000/svg"
   xmlns="http://www.w3.org/2000/svg"
   xmlns:sodipodi="http://sodipodi.sourceforge.net/DTD/sodipodi-0.dtd"
   xmlns:inkscape="http://www.inkscape.org/namespaces/inkscape"
   version="1.2"
   width="61.439999mm"
   height="60.380001mm"
   viewBox="0 0 6143.9999 6038.0001"
   preserveAspectRatio="xMidYMid"
   xml:space="preserve"
   id="svg487"
   sodipodi:docname="vines.svg"
   style="fill-rule:evenodd;stroke-width:28.22200012;stroke-linejoin:round"
   inkscape:version="0.92.5 (2060ec1f9f, 2020-04-08)"><metadata
   id="metadata491"><rdf:RDF><cc:Work
       rdf:about=""><dc:format>image/svg+xml</dc:format><dc:type
         rdf:resource="http://purl.org/dc/dcmitype/StillImage" /></cc:Work></rdf:RDF></metadata><sodipodi:namedview
   pagecolor="#ffffff"
   bordercolor="#666666"
   borderopacity="1"
   objecttolerance="10"
   gridtolerance="10"
   guidetolerance="10"
   inkscape:pageopacity="0"
   inkscape:pageshadow="2"
   inkscape:window-width="664"
   inkscape:window-height="487"
   id="namedview489"
   showgrid="false"
   inkscape:zoom="0.2102413"
   inkscape:cx="116.10709"
   inkscape:cy="114.10394"
   inkscape:window-x="0"
   inkscape:window-y="0"
   inkscape:window-maximized="0"
   inkscape:current-layer="svg487" />
 <defs
   class="ClipPathGroup"
   id="defs8">
  <clipPath
   id="presentation_clip_path"
   clipPathUnits="userSpaceOnUse">
   <rect
   x="0"
   y="0"
   width="21000"
   height="29700"
   id="rect2" />
  </clipPath>
  <clipPath
   id="presentation_clip_path_shrink"
   clipPathUnits="userSpaceOnUse">
   <rect
   x="21"
   y="29"
   width="20958"
   height="29641"
   id="rect5" />
  </clipPath>
 </defs>
 <defs
   class="TextShapeIndex"
   id="defs12">
  <g
   ooo:slide="id1"
   ooo:id-list="id3"
   id="g10" />
 </defs>
 <defs
   class="EmbeddedBulletChars"
   id="defs44">
  <g
   id="bullet-char-template-57356"
   transform="matrix(4.8828125e-4,0,0,-4.8828125e-4,0,0)">
   <path
   d="M 580,1141 1163,571 580,0 -4,571 Z"
   id="path14"
   inkscape:connector-curvature="0" />
  </g>
  <g
   id="bullet-char-template-57354"
   transform="matrix(4.8828125e-4,0,0,-4.8828125e-4,0,0)">
   <path
   d="M 8,1128 H 1137 V 0 H 8 Z"
   id="path17"
   inkscape:connector-curvature="0" />
  </g>
  <g
   id="bullet-char-template-10146"
   transform="matrix(4.8828125e-4,0,0,-4.8828125e-4,0,0)">
   <path
   d="M 174,0 602,739 174,1481 1456,739 Z M 1358,739 309,1346 659,739 Z"
   id="path20"
   inkscape:connector-curvature="0" />
  </g>
  <g
   id="bullet-char-template-10132"
   transform="matrix(4.8828125e-4,0,0,-4.8828125e-4,0,0)">
   <path
   d="M 2015,739 1276,0 H 717 l 543,543 H 174 v 393 h 1086 l -543,545 h 557 z"
   id="path23"
   inkscape:connector-curvature="0" />
  </g>
  <g
   id="bullet-char-template-10007"
   transform="matrix(4.8828125e-4,0,0,-4.8828125e-4,0,0)">
   <path
   d="m 0,-2 c -7,16 -16,29 -25,39 l 381,530 c -94,256 -141,385 -141,387 0,25 13,38 40,38 9,0 21,-2 34,-5 21,4 42,12 65,25 l 27,-13 111,-251 280,301 64,-25 24,25 c 21,-10 41,-24 62,-43 C 886,937 835,863 770,784 769,783 710,716 594,584 L 774,223 c 0,-27 -21,-55 -63,-84 l 16,-20 C 717,90 699,76 672,76 641,76 570,178 457,381 L 164,-76 c -22,-34 -53,-51 -92,-51 -42,0 -63,17 -64,51 -7,9 -10,24 -10,44 0,9 1,19 2,30 z"
   id="path26"
   inkscape:connector-curvature="0" />
  </g>
  <g
   id="bullet-char-template-10004"
   transform="matrix(4.8828125e-4,0,0,-4.8828125e-4,0,0)">
   <path
   d="M 285,-33 C 182,-33 111,30 74,156 52,228 41,333 41,471 c 0,78 14,145 41,201 34,71 87,106 158,106 53,0 88,-31 106,-94 l 23,-176 c 8,-64 28,-97 59,-98 l 735,706 c 11,11 33,17 66,17 42,0 63,-15 63,-46 V 965 c 0,-36 -10,-64 -30,-84 L 442,47 C 390,-6 338,-33 285,-33 Z"
   id="path29"
   inkscape:connector-curvature="0" />
  </g>
  <g
   id="bullet-char-template-9679"
   transform="matrix(4.8828125e-4,0,0,-4.8828125e-4,0,0)">
   <path
   d="M 813,0 C 632,0 489,54 383,161 276,268 223,411 223,592 c 0,181 53,324 160,431 106,107 249,161 430,161 179,0 323,-54 432,-161 108,-107 162,-251 162,-431 0,-180 -54,-324 -162,-431 C 1136,54 992,0 813,0 Z"
   id="path32"
   inkscape:connector-curvature="0" />
  </g>
  <g
   id="bullet-char-template-8226"
   transform="matrix(4.8828125e-4,0,0,-4.8828125e-4,0,0)">
   <path
   d="m 346,457 c -73,0 -137,26 -191,78 -54,51 -81,114 -81,188 0,73 27,136 81,188 54,52 118,78 191,78 73,0 134,-26 185,-79 51,-51 77,-114 77,-187 0,-75 -25,-137 -76,-188 -50,-52 -112,-78 -186,-78 z"
   id="path35"
   inkscape:connector-curvature="0" />
  </g>
  <g
   id="bullet-char-template-8211"
   transform="matrix(4.8828125e-4,0,0,-4.8828125e-4,0,0)">
   <path
   d="M -4,459 H 1135 V 606 H -4 Z"
   id="path38"
   inkscape:connector-curvature="0" />
  </g>
  <g
   id="bullet-char-template-61548"
   transform="matrix(4.8828125e-4,0,0,-4.8828125e-4,0,0)">
   <path
   d="m 173,740 c 0,163 58,303 173,419 116,115 255,173 419,173 163,0 302,-58 418,-173 116,-116 174,-256 174,-419 0,-163 -58,-303 -174,-418 C 1067,206 928,148 765,148 601,148 462,206 346,322 231,437 173,577 173,740 Z"
   id="path41"
   inkscape:connector-curvature="0" />
  </g>
 </defs>
 <g
   id="g49"
   transform="translate(-7428,-11831)">
  <g
   id="id2"
   class="Master_Slide">
   <g
   id="bg-id2"
   class="Background" />
   <g
   id="bo-id2"
   class="BackgroundObjects" />
  </g>
 </g>
 <g
   class="SlideGroup"
   id="g485"
   transform="translate(-7428,-11831)">
  <g
   id="g483">
   <g
   id="container-id1">
    <g
   id="id1"
   class="Slide"
   clip-path="url(#presentation_clip_path)">
     <g
   class="Page"
   id="g479">
      <g
   class="Graphic"
   id="g477">
       <g
   id="id3">
        <rect
   class="BoundingBox"
   x="7428"
   y="11831"
   width="6144"
   height="6038"
   id="rect51"
   style="fill:none;stroke:none" />
        <defs
   id="defs56">
         <clipPath
   id="clip_path_1"
   clipPathUnits="userSpaceOnUse">
          <path
   d="m 7428,11831 h 6143 v 6037 H 7428 Z"
   id="path53"
   inkscape:connector-curvature="0" />
         </clipPath>
        </defs>
        <g
   clip-path="url(#clip_path_1)"
   id="g474">
         <path
   d="m 7434,11837 h 6131 v 6025 H 7434 Z"
   id="path58"
   inkscape:connector-curvature="0"
   style="fill:#ffffff;stroke:none" />
         <path
   d="m 7434,11837 h 6131 v 6025 H 7434 Z"
   id="path60"
   inkscape:connector-curvature="0"
   style="fill:none;stroke:#ffffff" />
         <path
   d="M 12969,17334 V 12401 H 8018 v 4933 z"
   id="path62"
   inkscape:connector-curvature="0"
   style="fill:#0c2d83;stroke:none" />
         <path
   d="M 12969,17334 V 12401 H 8018 v 4933 z"
   id="path64"
   inkscape:connector-curvature="0"
   style="fill:none;stroke:#ec161f;stroke-width:282;stroke-linecap:round;stroke-linejoin:round" />
         <path
   d="M 12415,16765 V 12952 H 8569 v 3813 z"
   id="path66"
   inkscape:connector-curvature="0"
   style="fill:#0c3d91;stroke:none" />
         <path
   d="M 12415,16765 V 12952 H 8569 v 3813 z"
   id="path68"
   inkscape:connector-curvature="0"
   style="fill:none;stroke:#ffffff;stroke-width:211;stroke-linecap:round;stroke-linejoin:round" />
         <path
   d="m 11534,15487 h 6 20 l 31,2 39,5 47,7 52,11 57,16 57,22 58,28 56,35 52,43 47,53 40,62 30,73 20,84 7,96"
   id="path70"
   inkscape:connector-curvature="0"
   style="fill:none;stroke:#bbe4bc;stroke-width:35;stroke-linecap:round;stroke-linejoin:round" />
         <path
   d="m 11534,15504 v -34 z"
   id="path72"
   inkscape:connector-curvature="0"
   style="fill:#bbe4bc;stroke:none" />
         <path
   d="m 11534,15504 v -34 z"
   id="path74"
   inkscape:connector-curvature="0"
   style="fill:none;stroke:#bbe4bc" />
         <path
   d="m 12170,16024 h -34 z"
   id="path76"
   inkscape:connector-curvature="0"
   style="fill:#bbe4bc;stroke:none" />
         <path
   d="m 12170,16024 h -34 z"
   id="path78"
   inkscape:connector-curvature="0"
   style="fill:none;stroke:#bbe4bc" />
         <path
   d="m 12153,16024 -5,86 -15,76 -22,65 -29,55 -35,46 -38,39 -41,31 -42,24 -43,18 -41,14 -39,10 -34,6 -29,3 -22,1 h -15 -5"
   id="path80"
   inkscape:connector-curvature="0"
   style="fill:none;stroke:#bbe4bc;stroke-width:35;stroke-linecap:round;stroke-linejoin:round" />
         <path
   d="m 12136,16024 h 34 z"
   id="path82"
   inkscape:connector-curvature="0"
   style="fill:#bbe4bc;stroke:none" />
         <path
   d="m 12136,16024 h 34 z"
   id="path84"
   inkscape:connector-curvature="0"
   style="fill:none;stroke:#bbe4bc" />
         <path
   d="m 11698,16516 v -35 z"
   id="path86"
   inkscape:connector-curvature="0"
   style="fill:#bbe4bc;stroke:none" />
         <path
   d="m 11698,16516 v -35 z"
   id="path88"
   inkscape:connector-curvature="0"
   style="fill:none;stroke:#bbe4bc" />
         <path
   d="m 11698,16498 h -7 -18 l -29,-2 -39,-6 -47,-10 -53,-16 -59,-25 -63,-32 -66,-44 -68,-55 -68,-68 -67,-83 -64,-99 -62,-116 -55,-136 -50,-155"
   id="path90"
   inkscape:connector-curvature="0"
   style="fill:none;stroke:#bbe4bc;stroke-width:35;stroke-linecap:round;stroke-linejoin:round" />
         <path
   d="m 11697,16481 2,35 z"
   id="path92"
   inkscape:connector-curvature="0"
   style="fill:#bbe4bc;stroke:none" />
         <path
   d="m 11697,16481 2,35 z"
   id="path94"
   inkscape:connector-curvature="0"
   style="fill:none;stroke:#bbe4bc" />
         <path
   d="m 10866,15656 34,-9 z"
   id="path96"
   inkscape:connector-curvature="0"
   style="fill:#bbe4bc;stroke:none" />
         <path
   d="m 10866,15656 34,-9 z"
   id="path98"
   inkscape:connector-curvature="0"
   style="fill:none;stroke:#bbe4bc" />
         <path
   d="m 10883,15651 -51,-159 -58,-143 -66,-130 -72,-117 -78,-103 -83,-91 -87,-79 -91,-67 -93,-56 -96,-46 -96,-35 -97,-26 -97,-16 -96,-8 h -94 l -91,8"
   id="path100"
   inkscape:connector-curvature="0"
   style="fill:none;stroke:#bbe4bc;stroke-width:35;stroke-linecap:round;stroke-linejoin:round" />
         <path
   d="m 10900,15647 -34,9 z"
   id="path102"
   inkscape:connector-curvature="0"
   style="fill:#bbe4bc;stroke:none" />
         <path
   d="m 10900,15647 -34,9 z"
   id="path104"
   inkscape:connector-curvature="0"
   style="fill:none;stroke:#bbe4bc" />
         <path
   d="m 9539,14600 -5,-34 z"
   id="path106"
   inkscape:connector-curvature="0"
   style="fill:#bbe4bc;stroke:none" />
         <path
   d="m 9539,14600 -5,-34 z"
   id="path108"
   inkscape:connector-curvature="0"
   style="fill:none;stroke:#bbe4bc" />
         <path
   d="m 9537,14583 -86,14 -77,18 -69,21 -60,23 -54,26 -47,27 -40,29 -35,29 -30,28 -24,29 -20,27 -17,26 -13,24 -9,21 -8,17 -5,14"
   id="path110"
   inkscape:connector-curvature="0"
   style="fill:none;stroke:#bbe4bc;stroke-width:35;stroke-linecap:round;stroke-linejoin:round" />
         <path
   d="m 9534,14566 5,34 z"
   id="path112"
   inkscape:connector-curvature="0"
   style="fill:#bbe4bc;stroke:none" />
         <path
   d="m 9534,14566 5,34 z"
   id="path114"
   inkscape:connector-curvature="0"
   style="fill:none;stroke:#bbe4bc" />
         <path
   d="m 8959,14963 -33,-13 z"
   id="path116"
   inkscape:connector-curvature="0"
   style="fill:#bbe4bc;stroke:none" />
         <path
   d="m 8959,14963 -33,-13 z"
   id="path118"
   inkscape:connector-curvature="0"
   style="fill:none;stroke:#bbe4bc" />
         <path
   d="m 8943,14956 -6,16 -8,24 -8,30 -8,37 -6,41 -4,47 -2,50 3,53 9,55 13,56 21,58 29,56 38,56 47,54 58,52 70,48"
   id="path120"
   inkscape:connector-curvature="0"
   style="fill:none;stroke:#bbe4bc;stroke-width:35;stroke-linecap:round;stroke-linejoin:round" />
         <path
   d="m 8926,14950 33,13 z"
   id="path122"
   inkscape:connector-curvature="0"
   style="fill:#bbe4bc;stroke:none" />
         <path
   d="m 8926,14950 33,13 z"
   id="path124"
   inkscape:connector-curvature="0"
   style="fill:none;stroke:#bbe4bc" />
         <path
   d="m 9198,15674 -18,30 z"
   id="path126"
   inkscape:connector-curvature="0"
   style="fill:#bbe4bc;stroke:none" />
         <path
   d="m 9198,15674 -18,30 z"
   id="path128"
   inkscape:connector-curvature="0"
   style="fill:none;stroke:#bbe4bc" />
         <path
   d="m 9189,15689 75,39 75,25 72,13 69,1 67,-8 63,-17 60,-24 54,-31 50,-34 43,-38 38,-40 30,-40 24,-40 15,-38 7,-35 -3,-30"
   id="path130"
   inkscape:connector-curvature="0"
   style="fill:none;stroke:#bbe4bc;stroke-width:35;stroke-linecap:round;stroke-linejoin:round" />
         <path
   d="m 9180,15704 18,-30 z"
   id="path132"
   inkscape:connector-curvature="0"
   style="fill:#bbe4bc;stroke:none" />
         <path
   d="m 9180,15704 18,-30 z"
   id="path134"
   inkscape:connector-curvature="0"
   style="fill:none;stroke:#bbe4bc" />
         <path
   d="m 9912,15396 33,-8 z"
   id="path136"
   inkscape:connector-curvature="0"
   style="fill:#bbe4bc;stroke:none" />
         <path
   d="m 9912,15396 33,-8 z"
   id="path138"
   inkscape:connector-curvature="0"
   style="fill:none;stroke:#bbe4bc" />
         <path
   d="m 10883,15651 -2,-11 -5,-31 -6,-50 -5,-64 -4,-78 1,-88 7,-97 14,-102 24,-106 35,-106 47,-105 62,-100 77,-94 96,-85 116,-74 137,-60"
   id="path140"
   inkscape:connector-curvature="0"
   style="fill:none;stroke:#bbe4bc;stroke-width:35;stroke-linecap:round;stroke-linejoin:round" />
         <path
   d="m 10900,15648 -34,7 z"
   id="path142"
   inkscape:connector-curvature="0"
   style="fill:#bbe4bc;stroke:none" />
         <path
   d="m 10900,15648 -34,7 z"
   id="path144"
   inkscape:connector-curvature="0"
   style="fill:none;stroke:#bbe4bc" />
         <path
   d="m 11471,14384 12,33 z"
   id="path146"
   inkscape:connector-curvature="0"
   style="fill:#bbe4bc;stroke:none" />
         <path
   d="m 11471,14384 12,33 z"
   id="path148"
   inkscape:connector-curvature="0"
   style="fill:none;stroke:#bbe4bc" />
         <path
   d="m 11477,14400 137,-54 116,-56 97,-58 78,-59 64,-59 48,-60 36,-58 26,-56 15,-54 9,-51 3,-47 -2,-43 -4,-37 -5,-31 -4,-25 -1,-17"
   id="path150"
   inkscape:connector-curvature="0"
   style="fill:none;stroke:#bbe4bc;stroke-width:35;stroke-linecap:round;stroke-linejoin:round" />
         <path
   d="m 11483,14417 -12,-33 z"
   id="path152"
   inkscape:connector-curvature="0"
   style="fill:#bbe4bc;stroke:none" />
         <path
   d="m 11483,14417 -12,-33 z"
   id="path154"
   inkscape:connector-curvature="0"
   style="fill:none;stroke:#bbe4bc" />
         <path
   d="m 12073,13635 34,1 z"
   id="path156"
   inkscape:connector-curvature="0"
   style="fill:#bbe4bc;stroke:none" />
         <path
   d="m 12073,13635 34,1 z"
   id="path158"
   inkscape:connector-curvature="0"
   style="fill:none;stroke:#bbe4bc" />
         <path
   d="m 12090,13635 -2,-34 -7,-40 -14,-44 -20,-47 -25,-49 -32,-48 -38,-47 -44,-43 -50,-40 -57,-33 -63,-26 -69,-16 -76,-7 -83,5 -89,19 -96,33"
   id="path160"
   inkscape:connector-curvature="0"
   style="fill:none;stroke:#bbe4bc;stroke-width:35;stroke-linecap:round;stroke-linejoin:round" />
         <path
   d="m 12107,13636 -34,-1 z"
   id="path162"
   inkscape:connector-curvature="0"
   style="fill:#bbe4bc;stroke:none" />
         <path
   d="m 12107,13636 -34,-1 z"
   id="path164"
   inkscape:connector-curvature="0"
   style="fill:none;stroke:#bbe4bc" />
         <path
   d="m 11332,13234 -13,-32 z"
   id="path166"
   inkscape:connector-curvature="0"
   style="fill:#bbe4bc;stroke:none" />
         <path
   d="m 11332,13234 -13,-32 z"
   id="path168"
   inkscape:connector-curvature="0"
   style="fill:none;stroke:#bbe4bc" />
         <path
   d="m 11325,13218 -71,35 -60,39 -49,44 -40,47 -30,50 -22,52 -14,52 -7,53 -1,53 5,52 9,49 14,47 17,44 20,40 22,35 24,29"
   id="path170"
   inkscape:connector-curvature="0"
   style="fill:none;stroke:#bbe4bc;stroke-width:35;stroke-linecap:round;stroke-linejoin:round" />
         <path
   d="m 11319,13202 13,32 z"
   id="path172"
   inkscape:connector-curvature="0"
   style="fill:#bbe4bc;stroke:none" />
         <path
   d="m 11319,13202 13,32 z"
   id="path174"
   inkscape:connector-curvature="0"
   style="fill:none;stroke:#bbe4bc" />
         <path
   d="m 11155,13927 -26,24 z"
   id="path176"
   inkscape:connector-curvature="0"
   style="fill:#bbe4bc;stroke:none" />
         <path
   d="m 11155,13927 -26,24 z"
   id="path178"
   inkscape:connector-curvature="0"
   style="fill:none;stroke:#bbe4bc" />
         <path
   d="m 10080,14653 -11,-4 -30,-12 -48,-18 -62,-25 -74,-30 -83,-37 -90,-41 -94,-47 -94,-50 -94,-55 -90,-57 -83,-61 -74,-64 -63,-65 -47,-67 -31,-68"
   id="path180"
   inkscape:connector-curvature="0"
   style="fill:none;stroke:#bbe4bc;stroke-width:35;stroke-linecap:round;stroke-linejoin:round" />
         <path
   d="m 10086,14636 -12,33 z"
   id="path182"
   inkscape:connector-curvature="0"
   style="fill:#bbe4bc;stroke:none" />
         <path
   d="m 10086,14636 -12,33 z"
   id="path184"
   inkscape:connector-curvature="0"
   style="fill:none;stroke:#bbe4bc" />
         <path
   d="m 8996,13956 33,-9 z"
   id="path186"
   inkscape:connector-curvature="0"
   style="fill:#bbe4bc;stroke:none" />
         <path
   d="m 8996,13956 33,-9 z"
   id="path188"
   inkscape:connector-curvature="0"
   style="fill:none;stroke:#bbe4bc" />
         <path
   d="m 9012,13952 -19,-74 -13,-71 -6,-67 v -63 l 6,-60 11,-56 15,-53 20,-49 24,-45 27,-41 29,-38 32,-34 33,-30 35,-25 35,-22 37,-18"
   id="path190"
   inkscape:connector-curvature="0"
   style="fill:none;stroke:#bbe4bc;stroke-width:35;stroke-linecap:round;stroke-linejoin:round" />
         <path
   d="m 9029,13947 -33,9 z"
   id="path192"
   inkscape:connector-curvature="0"
   style="fill:#bbe4bc;stroke:none" />
         <path
   d="m 9029,13947 -33,9 z"
   id="path194"
   inkscape:connector-curvature="0"
   style="fill:none;stroke:#bbe4bc" />
         <path
   d="m 9271,13190 14,31 z"
   id="path196"
   inkscape:connector-curvature="0"
   style="fill:#bbe4bc;stroke:none" />
         <path
   d="m 9271,13190 14,31 z"
   id="path198"
   inkscape:connector-curvature="0"
   style="fill:none;stroke:#bbe4bc" />
         <path
   d="m 9278,13206 44,-17 55,-13 64,-10 70,-6 76,-1 79,2 82,8 83,13 82,20 80,25 76,32 71,39 64,47 55,55 46,63 34,71"
   id="path200"
   inkscape:connector-curvature="0"
   style="fill:none;stroke:#bbe4bc;stroke-width:35;stroke-linecap:round;stroke-linejoin:round" />
         <path
   d="m 9285,13221 -14,-31 z"
   id="path202"
   inkscape:connector-curvature="0"
   style="fill:#bbe4bc;stroke:none" />
         <path
   d="m 9285,13221 -14,-31 z"
   id="path204"
   inkscape:connector-curvature="0"
   style="fill:none;stroke:#bbe4bc" />
         <path
   d="m 10356,13528 -33,12 z"
   id="path206"
   inkscape:connector-curvature="0"
   style="fill:#bbe4bc;stroke:none" />
         <path
   d="m 10356,13528 -33,12 z"
   id="path208"
   inkscape:connector-curvature="0"
   style="fill:none;stroke:#bbe4bc" />
         <path
   d="m 10339,13534 29,91 17,83 7,77 -1,69 -10,63 -15,56 -20,50 -23,44 -25,39 -27,32 -26,27 -24,21 -21,17 -17,11 -11,7 -3,2"
   id="path210"
   inkscape:connector-curvature="0"
   style="fill:none;stroke:#bbe4bc;stroke-width:35;stroke-linecap:round;stroke-linejoin:round" />
         <path
   d="m 10323,13540 33,-12 z"
   id="path212"
   inkscape:connector-curvature="0"
   style="fill:#bbe4bc;stroke:none" />
         <path
   d="m 10323,13540 33,-12 z"
   id="path214"
   inkscape:connector-curvature="0"
   style="fill:none;stroke:#bbe4bc" />
         <path
   d="m 10176,14239 -15,-31 z"
   id="path216"
   inkscape:connector-curvature="0"
   style="fill:#bbe4bc;stroke:none" />
         <path
   d="m 10176,14239 -15,-31 z"
   id="path218"
   inkscape:connector-curvature="0"
   style="fill:none;stroke:#bbe4bc" />
         <path
   d="m 11085,16126 -3,-6 -8,-16 -14,-24 -19,-30 -24,-36 -31,-40 -36,-42 -42,-42 -48,-42 -54,-38 -60,-35 -67,-28 -72,-22 -79,-12 -85,-2 -91,10"
   id="path220"
   inkscape:connector-curvature="0"
   style="fill:none;stroke:#bbe4bc;stroke-width:35;stroke-linecap:round;stroke-linejoin:round" />
         <path
   d="m 11101,16119 -32,14 z"
   id="path222"
   inkscape:connector-curvature="0"
   style="fill:#bbe4bc;stroke:none" />
         <path
   d="m 11101,16119 -32,14 z"
   id="path224"
   inkscape:connector-curvature="0"
   style="fill:none;stroke:#bbe4bc" />
         <path
   d="m 10355,15738 -6,-34 z"
   id="path226"
   inkscape:connector-curvature="0"
   style="fill:#bbe4bc;stroke:none" />
         <path
   d="m 10355,15738 -6,-34 z"
   id="path228"
   inkscape:connector-curvature="0"
   style="fill:none;stroke:#bbe4bc" />
         <path
   d="m 10352,15721 -75,18 -62,25 -50,31 -41,37 -32,39 -23,42 -17,44 -11,44 -5,42 -2,40 1,37 3,33 4,26 4,20 2,12 1,3"
   id="path230"
   inkscape:connector-curvature="0"
   style="fill:none;stroke:#bbe4bc;stroke-width:35;stroke-linecap:round;stroke-linejoin:round" />
         <path
   d="m 10349,15704 6,34 z"
   id="path232"
   inkscape:connector-curvature="0"
   style="fill:#bbe4bc;stroke:none" />
         <path
   d="m 10349,15704 6,34 z"
   id="path234"
   inkscape:connector-curvature="0"
   style="fill:none;stroke:#bbe4bc" />
         <path
   d="m 10033,16222 31,-16 z"
   id="path236"
   inkscape:connector-curvature="0"
   style="fill:#bbe4bc;stroke:none" />
         <path
   d="m 10033,16222 31,-16 z"
   id="path238"
   inkscape:connector-curvature="0"
   style="fill:none;stroke:#bbe4bc" />
         <path
   d="m 10049,16214 v 2 l 3,10 8,16 11,22 15,25 20,28 24,29 30,28 35,26 41,23 47,19 53,12 59,5 67,-3 74,-15 82,-25"
   id="path240"
   inkscape:connector-curvature="0"
   style="fill:none;stroke:#bbe4bc;stroke-width:35;stroke-linecap:round;stroke-linejoin:round" />
         <path
   d="m 10064,16206 -31,16 z"
   id="path242"
   inkscape:connector-curvature="0"
   style="fill:#bbe4bc;stroke:none" />
         <path
   d="m 10064,16206 -31,16 z"
   id="path244"
   inkscape:connector-curvature="0"
   style="fill:none;stroke:#bbe4bc" />
         <path
   d="m 10612,16399 12,33 z"
   id="path246"
   inkscape:connector-curvature="0"
   style="fill:#bbe4bc;stroke:none" />
         <path
   d="m 10612,16399 12,33 z"
   id="path248"
   inkscape:connector-curvature="0"
   style="fill:none;stroke:#bbe4bc" />
         <path
   d="m 11343,13946 159,10 -74,90 10,121 -111,-5 -67,124 -88,-56 -86,97 -26,-110 -144,31 84,-135 v -2 -4 l 1,-6 1,-9 2,-10 3,-12 4,-13 5,-14 6,-15 7,-16 9,-15 10,-16 11,-15 14,-15 15,-14 18,-12 16,-10 15,-7 14,-7 14,-6 13,-4 14,-2 13,-1 h 13 l 13,2 13,3 13,4 14,6 13,8 14,8 15,10 15,12 z"
   id="path250"
   inkscape:connector-curvature="0"
   style="fill:#851d1c;stroke:none" />
         <path
   d="m 11218,13943 60,4 -28,34 4,45 -42,-1 -25,47 -33,-22 -32,36 -10,-41 -54,12 31,-51 v -1 -1 l 1,-2 v -4 l 1,-3 1,-5 1,-5 2,-5 2,-6 3,-6 3,-6 4,-5 4,-6 5,-5 6,-6 7,-4 6,-4 5,-3 6,-2 5,-2 5,-2 5,-1 h 5 5 5 l 5,2 5,1 5,2 5,3 6,3 5,4 6,5 z"
   id="path252"
   inkscape:connector-curvature="0"
   style="fill:#f91821;stroke:none" />
         <path
   d="m 9798,15263 -93,-129 117,1 87,-85 66,88 139,-26 12,103 130,6 -69,89 115,92 -158,21 h -2 l -3,3 -5,3 -8,4 -9,5 -11,6 -12,5 -14,5 -15,5 -17,4 -17,4 -19,2 h -19 l -20,-1 -21,-4 -20,-5 -17,-6 -16,-7 -14,-7 -13,-7 -12,-8 -10,-9 -9,-9 -9,-10 -6,-11 -6,-12 -5,-13 -4,-14 -3,-16 -2,-16 -2,-18 v -18 z"
   id="path254"
   inkscape:connector-curvature="0"
   style="fill:#851d1c;stroke:none" />
         <path
   d="m 9875,15361 -35,-49 44,1 33,-32 24,33 54,-10 4,39 48,2 -26,34 44,34 -60,8 v 0 l -1,1 -3,1 -2,2 -4,2 -4,2 -5,2 -5,2 -6,2 -6,1 -7,2 h -6 -8 -7 l -8,-2 -8,-1 -6,-3 -6,-2 -6,-3 -4,-2 -5,-3 -4,-4 -3,-3 -3,-4 -3,-4 -2,-5 -2,-5 -1,-5 -1,-6 -1,-6 -1,-6 v -7 z"
   id="path256"
   inkscape:connector-curvature="0"
   style="fill:#f91821;stroke:none" />
         <path
   d="m 10237,14392 59,148 -114,-29 -105,61 -42,-102 -142,-8 13,-104 -123,-35 88,-71 -90,-117 158,18 1,-1 4,-1 6,-2 9,-2 10,-3 12,-3 13,-2 15,-2 16,-1 h 17 l 18,1 18,3 19,4 19,6 19,8 19,11 15,10 14,10 12,10 11,10 9,11 9,11 6,11 6,12 3,13 3,13 2,13 v 15 l -1,16 -2,16 -3,17 -3,19 z"
   id="path258"
   inkscape:connector-curvature="0"
   style="fill:#851d1c;stroke:none" />
         <path
   d="m 10185,14278 23,56 -43,-11 -39,23 -16,-39 -54,-3 5,-39 -46,-13 33,-27 -34,-44 60,7 v 0 l 2,-1 h 2 l 3,-2 h 4 l 4,-1 5,-1 6,-1 h 6 6 7 l 7,1 7,2 7,2 7,3 7,4 6,4 5,4 5,4 4,3 3,4 4,4 2,5 2,4 2,5 1,5 v 5 5 6 l -1,6 -1,7 -1,7 z"
   id="path260"
   inkscape:connector-curvature="0"
   style="fill:#f91821;stroke:none" />
         <path
   d="m 10627,16188 -7,-159 97,64 119,-24 8,110 131,54 -46,94 106,74 -106,38 47,139 -145,-68 h -1 -4 -7 -8 l -11,-1 -12,-2 -13,-2 -15,-3 -15,-4 -16,-6 -17,-7 -17,-8 -16,-10 -16,-12 -15,-14 -15,-16 -11,-14 -10,-14 -8,-14 -7,-13 -5,-13 -4,-13 -3,-13 -1,-13 v -13 l 2,-13 3,-14 4,-14 6,-14 7,-15 8,-16 10,-16 z"
   id="path262"
   inkscape:connector-curvature="0"
   style="fill:#851d1c;stroke:none" />
         <path
   d="m 10639,16312 -3,-60 37,24 44,-9 3,42 50,20 -18,35 40,28 -40,15 18,52 -54,-26 h -1 -2 -2 -3 -4 l -5,-1 h -5 l -5,-2 -6,-1 -6,-2 -6,-3 -7,-3 -6,-4 -6,-4 -6,-6 -5,-6 -4,-5 -4,-5 -3,-5 -3,-6 -1,-4 -2,-5 -1,-5 v -5 -5 -5 l 1,-5 2,-5 2,-6 3,-5 3,-6 4,-6 z"
   id="path264"
   inkscape:connector-curvature="0"
   style="fill:#f91821;stroke:none" />
         <path
   d="m 11458,15642 -96,128 -34,-112 -107,-58 65,-89 -67,-125 95,-43 -34,-124 106,38 53,-137 67,144 1,1 4,2 4,4 7,6 7,7 9,9 8,10 10,12 9,14 9,14 8,16 8,17 6,18 5,19 3,21 1,22 -1,17 -2,17 -2,16 -3,15 -4,13 -5,13 -7,11 -7,11 -9,10 -9,9 -11,9 -12,8 -14,7 -15,7 -16,7 -18,6 z"
   id="path266"
   inkscape:connector-curvature="0"
   style="fill:#851d1c;stroke:none" />
         <path
   d="m 11528,15539 -36,48 -13,-42 -40,-21 24,-34 -25,-48 36,-15 -13,-47 40,14 20,-51 25,54 h 1 l 1,1 2,1 2,3 3,2 3,4 3,4 4,4 3,5 4,5 3,6 2,7 3,6 2,8 1,8 v 8 7 l -1,6 v 6 l -2,6 -1,4 -2,5 -3,5 -2,4 -4,3 -3,4 -4,3 -5,3 -5,3 -6,3 -6,2 -6,2 z"
   id="path268"
   inkscape:connector-curvature="0"
   style="fill:#f91821;stroke:none" />
         <path
   d="m 10673,15751 -2,1 -4,3 -7,5 -9,6 -11,6 -14,7 -16,6 -18,4 -20,4 -22,1 -23,-1 -26,-4 -27,-7 -28,-12 -30,-16 -31,-21 49,-29 -2,-1 -4,-2 -7,-4 -10,-5 -11,-7 -13,-8 -14,-10 -15,-11 -15,-12 -15,-14 -15,-15 -14,-17 -13,-18 -11,-20 -10,-20 -7,-22 1,-1 4,-1 6,-2 8,-2 10,-1 12,-2 15,-1 h 15 l 18,1 19,1 20,3 22,5 23,7 23,9 25,11 26,14 -4,-58 2,1 6,3 10,5 13,8 14,9 16,11 18,14 17,15 17,17 16,19 15,20 12,22 10,24 6,26 2,27 z"
   id="path270"
   inkscape:connector-curvature="0"
   style="fill:#9fd8a1;stroke:none" />
         <path
   d="m 10053,16191 1,-1 3,-5 4,-6 8,-9 8,-9 12,-10 14,-10 15,-10 19,-9 20,-8 23,-6 25,-3 28,-1 31,3 33,7 36,12 -38,41 h 1 l 5,1 8,1 11,3 13,3 14,4 16,5 17,7 19,7 18,9 19,11 18,12 18,13 16,15 15,17 14,20 -1,1 -3,1 -6,4 -7,4 -9,4 -12,5 -13,6 -15,4 -16,5 -19,4 -21,3 -22,1 h -23 l -26,-1 -26,-4 -29,-5 20,54 -2,-1 -7,-1 -11,-2 -14,-3 -17,-5 -19,-6 -20,-8 -21,-9 -21,-12 -21,-13 -20,-16 -18,-17 -16,-20 -13,-23 -11,-26 z"
   id="path272"
   inkscape:connector-curvature="0"
   style="fill:#d9f0d3;stroke:none" />
         <path
   d="m 9438,15769 1,-1 3,-4 6,-6 8,-7 11,-7 12,-9 15,-8 18,-7 19,-6 22,-5 23,-2 26,1 28,4 29,7 32,12 34,17 -45,35 2,1 5,1 8,3 10,4 12,5 13,7 15,7 17,9 16,11 17,11 17,13 16,15 15,16 14,18 13,19 10,21 -1,1 -4,1 -5,3 -8,3 -10,3 -12,3 -14,3 -16,3 -17,1 -19,1 -20,-1 -22,-1 -24,-4 -25,-6 -26,-7 -27,-10 11,57 -2,-1 -7,-3 -10,-3 -13,-6 -16,-7 -18,-9 -18,-11 -20,-12 -19,-15 -18,-17 -18,-18 -15,-20 -13,-23 -9,-24 -6,-27 z"
   id="path274"
   inkscape:connector-curvature="0"
   style="fill:#9fd8a1;stroke:none" />
         <path
   d="m 8983,16364 h -2 -5 -8 l -11,-1 -13,-2 -15,-3 -16,-5 -18,-7 -17,-9 -19,-12 -18,-15 -18,-18 -17,-23 -16,-26 -14,-31 -12,-36 57,7 -1,-2 -3,-5 -3,-7 -4,-10 -6,-12 -5,-14 -6,-16 -4,-18 -5,-19 -4,-20 -2,-21 -2,-22 1,-22 3,-22 4,-23 8,-22 h 1 l 3,2 6,2 8,4 9,4 11,6 12,8 13,9 13,11 14,13 15,15 14,17 14,19 13,21 13,24 13,27 32,-49 1,2 3,6 5,10 6,13 5,17 6,19 6,20 5,23 4,24 1,24 -1,26 -3,25 -7,25 -10,24 -15,23 z"
   id="path276"
   inkscape:connector-curvature="0"
   style="fill:#9fd8a1;stroke:none" />
         <path
   d="m 8917,15337 h 2 5 l 8,1 11,1 13,3 14,4 16,6 17,8 17,11 18,13 17,17 16,19 16,24 14,27 12,32 9,37 -55,-11 v 2 l 2,4 3,8 4,10 4,12 4,15 4,16 4,18 3,20 3,20 1,21 -1,22 -2,22 -4,22 -6,23 -9,21 h -1 l -4,-2 -5,-3 -8,-4 -9,-5 -10,-7 -11,-9 -13,-10 -12,-12 -13,-13 -13,-16 -13,-18 -13,-20 -12,-22 -12,-25 -10,-27 -36,46 -1,-2 -2,-7 -4,-10 -5,-14 -5,-16 -4,-20 -5,-21 -3,-23 -2,-24 1,-25 2,-25 5,-25 9,-24 12,-23 16,-22 z"
   id="path278"
   inkscape:connector-curvature="0"
   style="fill:#d9f0d3;stroke:none" />
         <path
   d="m 9299,14665 v 2 l 3,4 3,8 4,10 3,13 3,15 3,16 1,19 -1,21 -4,21 -6,23 -9,24 -14,25 -17,25 -23,25 -27,26 -18,-54 -1,1 -3,4 -5,6 -8,8 -8,10 -11,11 -13,11 -14,12 -15,12 -17,12 -18,11 -20,10 -20,9 -22,6 -22,5 -23,3 v -2 l -1,-3 v -7 -8 l 1,-10 1,-13 2,-14 3,-15 5,-17 6,-18 7,-19 10,-20 11,-21 14,-21 16,-22 19,-22 -57,-9 1,-2 5,-6 7,-8 10,-11 12,-12 15,-13 17,-14 18,-13 21,-13 21,-12 24,-10 24,-7 25,-4 27,-1 27,5 z"
   id="path280"
   inkscape:connector-curvature="0"
   style="fill:#d9f0d3;stroke:none" />
         <path
   d="m 9370,15752 -1,-1 -3,-4 -4,-8 -4,-10 -5,-12 -5,-14 -4,-17 -2,-18 -2,-20 2,-23 4,-23 7,-25 11,-25 15,-27 20,-28 25,-28 22,53 1,-2 3,-4 5,-7 6,-8 8,-11 10,-12 11,-12 13,-13 14,-14 16,-13 17,-13 18,-12 20,-10 21,-10 21,-7 23,-4 v 1 l 1,4 1,6 1,8 v 11 12 l -1,14 -1,16 -3,17 -4,19 -6,20 -7,21 -10,21 -12,23 -13,23 -17,24 58,4 -1,1 -5,6 -6,9 -9,12 -11,13 -13,15 -16,15 -17,15 -19,15 -21,14 -22,12 -24,9 -25,7 -26,3 -27,-2 z"
   id="path282"
   inkscape:connector-curvature="0"
   style="fill:#d9f0d3;stroke:none" />
         <path
   d="m 9445,14590 -2,1 -3,4 -6,6 -8,7 -10,9 -12,8 -15,9 -16,9 -20,7 -21,5 -23,3 -26,1 -28,-2 -30,-6 -33,-11 -34,-15 43,-37 -1,-1 -5,-1 -8,-2 -11,-4 -12,-4 -14,-6 -15,-7 -17,-8 -17,-9 -18,-11 -17,-12 -17,-14 -16,-15 -15,-18 -13,-18 -11,-20 1,-1 3,-2 6,-3 7,-3 10,-4 12,-3 13,-4 16,-3 17,-3 19,-2 h 21 22 l 23,3 25,4 27,6 28,9 -15,-56 h 3 l 6,3 11,3 14,5 16,6 18,8 19,10 20,12 20,13 20,16 17,17 17,20 14,21 11,24 7,27 z"
   id="path284"
   inkscape:connector-curvature="0"
   style="fill:#9fd8a1;stroke:none" />
         <path
   d="m 10545,14957 -2,-1 -5,-2 -7,-3 -10,-5 -11,-7 -12,-9 -13,-11 -14,-13 -12,-15 -13,-19 -11,-21 -9,-23 -7,-28 -4,-30 -1,-34 3,-38 50,29 v -2 l -1,-5 v -9 -10 -13 l 1,-15 1,-18 2,-18 3,-19 5,-20 6,-21 7,-20 9,-20 12,-20 13,-19 15,-17 1,1 3,2 4,5 6,6 7,8 7,10 8,12 8,13 9,15 7,18 8,19 6,21 6,23 4,25 3,27 1,30 48,-33 v 3 l 1,7 v 11 14 l -1,18 -2,19 -3,22 -4,23 -6,23 -9,23 -10,23 -13,22 -16,20 -19,18 -23,16 z"
   id="path286"
   inkscape:connector-curvature="0"
   style="fill:#9fd8a1;stroke:none" />
         <path
   d="m 10014,14651 v 1 6 8 11 l -2,13 -2,15 -5,16 -6,18 -8,18 -12,19 -14,19 -18,18 -22,18 -25,17 -31,15 -35,14 5,-57 h -2 l -5,3 -7,4 -9,4 -12,6 -14,6 -16,6 -18,5 -18,6 -21,5 -21,3 -21,2 h -23 l -22,-1 -22,-4 -23,-7 v -1 l 2,-4 1,-6 4,-7 4,-10 6,-11 7,-12 9,-13 10,-14 13,-14 14,-15 16,-15 19,-15 20,-15 23,-14 27,-13 -50,-30 2,-1 6,-4 10,-5 13,-6 16,-6 19,-7 21,-7 22,-5 23,-5 25,-2 26,-1 25,3 25,6 25,9 23,14 z"
   id="path288"
   inkscape:connector-curvature="0"
   style="fill:#d9f0d3;stroke:none" />
         <path
   d="m 11981,15637 v 1 5 9 10 l -1,14 -3,14 -4,17 -6,17 -9,19 -11,19 -15,19 -18,18 -21,18 -26,17 -30,15 -35,13 4,-56 h -2 l -4,3 -7,4 -10,4 -12,6 -14,6 -16,6 -17,5 -19,6 -20,4 -21,4 -22,2 h -22 l -23,-2 -22,-4 -23,-6 v -1 l 2,-4 2,-6 3,-8 5,-9 5,-11 8,-12 8,-13 11,-14 12,-15 14,-15 17,-15 18,-14 21,-15 23,-14 26,-13 -49,-30 1,-2 7,-3 9,-5 14,-6 16,-7 18,-6 21,-7 23,-5 23,-5 25,-2 25,-1 25,3 26,6 24,9 23,14 z"
   id="path290"
   inkscape:connector-curvature="0"
   style="fill:#d9f0d3;stroke:none" />
         <path
   d="m 11698,16503 -1,-1 -5,-4 -5,-5 -8,-8 -8,-10 -8,-13 -9,-15 -7,-17 -7,-19 -5,-22 -3,-23 v -26 l 3,-28 7,-30 11,-32 16,-34 36,44 1,-2 1,-5 2,-8 4,-10 5,-12 6,-14 7,-15 9,-17 9,-17 11,-17 13,-17 14,-16 16,-16 17,-15 19,-13 21,-11 1,2 1,3 3,6 3,7 3,10 4,12 3,14 3,16 2,17 2,19 v 20 l -1,22 -3,24 -5,25 -7,26 -9,28 57,-13 -1,2 -2,7 -4,10 -5,14 -7,16 -9,18 -10,19 -12,19 -14,20 -16,19 -17,18 -21,16 -22,13 -24,10 -26,7 z"
   id="path292"
   inkscape:connector-curvature="0"
   style="fill:#d9f0d3;stroke:none" />
         <path
   d="m 12046,15721 h -2 l -5,-1 -8,-2 -11,-2 -12,-5 -14,-6 -15,-8 -15,-11 -16,-12 -16,-16 -15,-18 -13,-22 -12,-25 -10,-30 -8,-33 -4,-37 54,18 -1,-2 -1,-5 -2,-7 -3,-11 -2,-13 -2,-15 -2,-17 -2,-18 v -20 -20 l 2,-22 3,-21 5,-22 7,-21 10,-21 12,-20 h 1 l 3,2 5,4 7,5 8,6 9,8 10,11 11,11 11,14 11,15 11,17 11,20 10,21 9,24 7,26 7,28 42,-40 v 2 l 2,6 2,11 3,14 2,18 3,19 1,22 v 23 l -1,24 -4,24 -6,25 -8,24 -12,23 -15,22 -19,19 z"
   id="path294"
   inkscape:connector-curvature="0"
   style="fill:#9fd8a1;stroke:none" />
         <path
   d="m 10919,14937 h -2 l -5,-1 -8,-2 -10,-3 -13,-4 -14,-6 -15,-8 -15,-11 -16,-12 -15,-16 -15,-18 -14,-22 -12,-25 -10,-30 -8,-32 -4,-38 54,18 -1,-2 -1,-5 -2,-7 -2,-11 -3,-13 -2,-15 -2,-17 -1,-18 -1,-20 v -20 l 2,-22 4,-21 5,-22 7,-21 9,-21 12,-20 h 1 l 3,2 6,4 6,4 9,7 9,8 10,10 10,12 11,13 11,16 11,17 11,20 10,21 9,24 8,26 6,28 42,-41 v 3 l 2,6 2,11 3,14 3,18 2,19 1,22 v 23 l -1,24 -4,24 -5,25 -9,24 -12,23 -15,22 -19,19 z"
   id="path296"
   inkscape:connector-curvature="0"
   style="fill:#d9f0d3;stroke:none" />
         <path
   d="m 11052,16029 1,-2 3,-4 5,-6 7,-9 9,-9 11,-10 14,-11 16,-10 18,-9 20,-7 23,-6 26,-3 28,-1 30,3 33,7 37,11 -39,42 h 1 l 6,1 7,1 11,2 13,4 15,4 16,5 17,6 18,8 18,9 19,10 18,12 18,13 16,16 16,17 14,19 -2,1 -3,2 -5,3 -8,4 -9,5 -11,5 -13,5 -15,5 -17,4 -19,4 -20,3 -22,2 h -24 l -26,-2 -26,-3 -29,-6 21,55 -3,-1 -7,-1 -11,-2 -14,-4 -17,-5 -18,-6 -20,-7 -22,-10 -21,-11 -21,-13 -20,-16 -18,-18 -16,-20 -14,-23 -9,-25 z"
   id="path298"
   inkscape:connector-curvature="0"
   style="fill:#d9f0d3;stroke:none" />
         <path
   d="m 10993,14823 v -1 l 1,-6 2,-7 3,-11 4,-12 6,-14 8,-15 10,-16 13,-16 15,-15 19,-16 21,-14 26,-12 29,-10 33,-8 37,-5 -18,54 h 2 l 5,-2 8,-2 10,-2 13,-3 15,-2 17,-2 19,-2 19,-1 20,1 22,1 21,3 22,5 22,7 21,9 20,12 v 1 l -3,3 -3,5 -5,7 -7,8 -8,10 -10,10 -11,11 -14,11 -15,11 -17,11 -20,11 -21,10 -23,10 -26,7 -28,7 41,42 h -3 l -6,2 -11,2 -14,3 -18,3 -19,2 -22,2 h -23 l -24,-1 -24,-3 -25,-6 -24,-8 -23,-12 -22,-15 -20,-19 z"
   id="path300"
   inkscape:connector-curvature="0"
   style="fill:#9fd8a1;stroke:none" />
         <path
   d="m 11753,14281 -1,-1 -5,-2 -7,-4 -9,-6 -11,-8 -11,-10 -12,-12 -12,-14 -12,-17 -10,-19 -9,-22 -7,-25 -4,-28 -1,-30 2,-34 7,-37 46,33 v -2 -5 l 1,-9 v -11 l 2,-13 2,-15 3,-16 4,-18 5,-19 7,-20 7,-20 10,-19 11,-19 13,-19 15,-17 17,-16 v 1 l 3,3 4,5 5,6 6,9 6,10 7,13 7,14 7,16 6,18 6,20 4,21 3,24 2,25 1,27 -2,29 51,-27 v 3 l -1,7 -1,11 -1,14 -2,17 -4,20 -5,21 -7,22 -8,23 -10,22 -13,22 -15,20 -18,19 -21,16 -24,13 z"
   id="path302"
   inkscape:connector-curvature="0"
   style="fill:#d9f0d3;stroke:none" />
         <path
   d="m 11590,14367 1,-1 2,-5 5,-7 6,-9 8,-10 10,-11 13,-12 15,-11 17,-11 20,-10 22,-8 25,-5 28,-3 h 31 l 34,3 37,8 -35,46 h 1 6 l 8,1 10,1 13,2 15,3 17,4 18,4 18,6 19,7 20,8 19,10 19,12 18,14 17,15 15,18 -1,1 -3,2 -5,4 -7,5 -9,6 -11,6 -12,6 -14,6 -17,6 -18,5 -20,5 -22,4 -24,2 -25,1 -27,-1 -29,-3 26,53 h -3 l -7,-1 -11,-1 -14,-2 -17,-3 -20,-5 -20,-5 -22,-8 -23,-9 -22,-11 -21,-14 -20,-16 -18,-18 -15,-22 -13,-24 z"
   id="path304"
   inkscape:connector-curvature="0"
   style="fill:#d9f0d3;stroke:none" />
         <path
   d="m 12104,13758 h -2 l -5,-1 -8,-2 -10,-3 -13,-5 -13,-6 -15,-9 -16,-10 -15,-13 -15,-16 -15,-19 -13,-22 -12,-25 -9,-30 -7,-33 -4,-37 54,19 -1,-2 -1,-5 -2,-8 -2,-10 -2,-14 -2,-14 -2,-17 -1,-19 v -19 -21 l 3,-21 3,-22 6,-21 7,-21 10,-21 12,-20 h 1 l 3,2 5,4 7,5 8,7 9,8 10,10 11,12 10,14 11,16 11,17 10,20 9,22 9,23 8,27 6,28 42,-40 1,2 1,7 2,10 3,15 2,17 2,20 1,21 v 23 l -2,25 -4,24 -6,25 -9,23 -13,23 -15,22 -19,19 z"
   id="path306"
   inkscape:connector-curvature="0"
   style="fill:#9fd8a1;stroke:none" />
         <path
   d="m 11139,13320 v 1 l 1,5 v 9 10 l -1,13 -2,16 -4,16 -6,18 -8,19 -10,19 -14,19 -17,19 -21,19 -26,18 -29,16 -35,15 3,-58 -2,1 -4,3 -7,4 -10,5 -12,6 -14,6 -15,7 -17,6 -19,6 -20,5 -21,4 -22,3 -22,1 -22,-1 -23,-3 -23,-6 v -1 l 2,-4 1,-6 3,-8 5,-9 5,-12 7,-12 8,-13 10,-15 12,-15 14,-15 16,-15 18,-16 20,-15 23,-15 25,-13 -50,-29 2,-2 6,-3 10,-5 12,-7 17,-7 18,-8 20,-7 22,-6 24,-5 24,-4 26,-1 25,2 25,5 25,9 24,13 z"
   id="path308"
   inkscape:connector-curvature="0"
   style="fill:#9fd8a1;stroke:none" />
         <path
   d="m 11292,13229 h 1 l 5,2 7,3 10,5 11,7 13,9 13,10 13,14 13,15 13,18 10,21 9,25 8,27 4,30 1,34 -3,38 -50,-28 v 1 l 1,5 v 8 l 1,11 -1,13 v 16 l -2,17 -2,18 -3,19 -4,20 -6,21 -8,20 -9,21 -11,19 -13,19 -15,18 -2,-1 -3,-3 -4,-5 -5,-5 -7,-9 -7,-9 -8,-12 -8,-13 -9,-16 -8,-17 -7,-19 -7,-22 -5,-23 -5,-25 -2,-27 -1,-29 -49,33 v -3 l -1,-7 v -11 -14 l 1,-18 1,-19 3,-22 5,-23 6,-23 8,-24 10,-22 14,-22 16,-21 19,-18 22,-15 z"
   id="path310"
   inkscape:connector-curvature="0"
   style="fill:#d9f0d3;stroke:none" />
         <path
   d="m 9995,13232 h 1 l 5,1 8,1 11,2 13,3 14,5 16,7 16,9 16,12 17,14 16,17 16,21 13,24 13,28 10,33 8,37 -56,-14 1,2 2,4 2,8 3,10 4,13 3,15 4,16 2,19 3,19 1,21 v 21 l -2,22 -3,22 -6,21 -7,22 -10,21 h -2 l -3,-2 -5,-3 -8,-5 -8,-6 -10,-7 -11,-9 -11,-11 -13,-12 -12,-15 -12,-16 -12,-19 -12,-21 -11,-23 -10,-25 -8,-27 -38,44 -2,-3 -2,-6 -3,-11 -4,-14 -4,-16 -3,-20 -3,-22 -2,-22 -1,-25 2,-24 4,-25 6,-25 10,-23 14,-23 17,-21 z"
   id="path312"
   inkscape:connector-curvature="0"
   style="fill:#9fd8a1;stroke:none" />
         <path
   d="m 9092,14064 h -2 l -6,2 -7,1 -11,2 -13,1 h -15 -17 l -19,-3 -19,-5 -21,-8 -21,-10 -22,-14 -21,-18 -21,-23 -21,-27 -20,-31 57,-7 -2,-1 -3,-4 -5,-7 -6,-8 -8,-11 -8,-13 -9,-14 -9,-16 -9,-18 -8,-19 -7,-20 -6,-21 -5,-21 -2,-23 -1,-23 3,-23 h 1 4 l 6,1 8,2 10,3 12,3 13,5 15,6 15,8 17,9 17,11 18,14 18,15 18,18 19,20 17,23 21,-54 1,2 5,5 6,9 9,12 9,14 10,17 10,19 11,21 8,22 7,24 5,25 2,25 v 26 l -5,26 -10,26 z"
   id="path314"
   inkscape:connector-curvature="0"
   style="fill:#9fd8a1;stroke:none" />
         <path
   d="m 9461,14359 -2,-1 -4,-3 -6,-5 -8,-7 -10,-10 -10,-11 -10,-14 -10,-16 -9,-18 -7,-21 -6,-23 -3,-25 v -28 l 3,-31 7,-33 12,-36 41,40 v -2 l 2,-5 1,-8 2,-11 4,-12 4,-15 5,-16 6,-18 8,-17 9,-19 11,-18 12,-19 13,-17 16,-17 17,-15 19,-13 1,1 2,3 3,5 4,8 5,9 5,12 5,13 4,15 5,17 3,18 3,21 1,22 v 24 l -1,25 -4,27 -6,29 55,-20 -1,2 -1,7 -2,11 -4,14 -5,17 -6,18 -8,20 -10,21 -11,22 -14,20 -15,20 -18,18 -20,16 -23,13 -26,10 z"
   id="path316"
   inkscape:connector-curvature="0"
   style="fill:#d9f0d3;stroke:none" />
         <path
   d="m 9117,13340 1,-2 3,-4 6,-6 8,-8 10,-9 12,-9 14,-9 17,-9 18,-7 21,-7 24,-4 26,-1 27,1 31,5 32,10 35,14 -42,39 2,1 5,1 8,2 10,3 13,4 14,5 15,6 17,8 18,9 17,10 18,12 17,13 17,15 16,16 13,18 13,21 h -2 l -3,2 -5,3 -8,3 -10,4 -11,4 -14,5 -15,3 -17,4 -19,2 -21,1 h -22 l -24,-2 -25,-3 -27,-5 -27,-8 16,56 -3,-1 -6,-2 -11,-3 -14,-4 -16,-6 -18,-8 -20,-9 -20,-11 -21,-13 -20,-15 -18,-17 -17,-19 -15,-21 -11,-24 -8,-26 z"
   id="path318"
   inkscape:connector-curvature="0"
   style="fill:#d9f0d3;stroke:none" />
         <path
   d="m 10126,13261 1,-2 3,-4 5,-6 8,-8 9,-9 12,-10 14,-9 16,-9 19,-8 21,-7 23,-5 26,-2 28,1 31,4 32,9 36,13 -41,40 h 1 l 6,1 7,2 11,3 13,3 14,5 16,6 17,7 17,8 19,10 17,11 18,13 17,15 16,16 14,18 13,19 -1,1 -3,2 -6,3 -7,4 -10,4 -11,4 -14,4 -15,5 -17,3 -19,3 -20,2 -23,1 -23,-1 -25,-3 -27,-5 -28,-7 17,56 -2,-1 -7,-1 -11,-3 -14,-4 -16,-6 -19,-7 -20,-8 -20,-11 -21,-12 -20,-15 -19,-16 -18,-18 -15,-21 -12,-24 -9,-26 z"
   id="path320"
   inkscape:connector-curvature="0"
   style="fill:#d9f0d3;stroke:none" />
         <path
   d="m 10400,13809 2,-1 5,-1 8,-2 10,-2 13,-1 h 16 l 16,1 19,3 20,5 21,7 20,11 22,14 22,17 21,23 21,27 20,32 -57,6 1,1 3,4 6,7 6,8 8,11 9,13 8,14 9,16 9,17 8,19 8,20 6,21 4,22 3,23 v 22 l -2,24 h -1 l -4,-1 -6,-1 -9,-1 -10,-3 -11,-4 -14,-5 -14,-6 -16,-7 -17,-9 -17,-12 -18,-13 -18,-15 -18,-18 -18,-20 -18,-23 -20,55 -2,-3 -4,-5 -7,-9 -8,-11 -10,-15 -10,-17 -11,-19 -9,-20 -9,-23 -7,-24 -5,-24 -3,-26 1,-25 5,-26 9,-26 z"
   id="path322"
   inkscape:connector-curvature="0"
   style="fill:#d9f0d3;stroke:none" />
         <path
   d="m 9179,15684 6,3 19,11 28,18 36,24 42,30 44,36 45,41 43,47 40,51 34,56 25,60 15,63 2,67 -13,70 -30,73 -50,75"
   id="path324"
   inkscape:connector-curvature="0"
   style="fill:none;stroke:#bbe4bc;stroke-width:35;stroke-linecap:round;stroke-linejoin:round" />
         <path
   d="m 9171,15699 15,-31 z"
   id="path326"
   inkscape:connector-curvature="0"
   style="fill:#bbe4bc;stroke:none" />
         <path
   d="m 9171,15699 15,-31 z"
   id="path328"
   inkscape:connector-curvature="0"
   style="fill:none;stroke:#bbe4bc" />
         <path
   d="m 9479,16420 -27,-22 z"
   id="path330"
   inkscape:connector-curvature="0"
   style="fill:#bbe4bc;stroke:none" />
         <path
   d="m 9479,16420 -27,-22 z"
   id="path332"
   inkscape:connector-curvature="0"
   style="fill:none;stroke:#bbe4bc" />
         <path
   d="m 9465,16409 12,-16 5,-6 -2,2 -10,8 -15,12 -22,15 -28,17 -33,16 -38,13 -41,10 -47,5 -50,-3 -53,-12 -56,-22 -59,-34 -60,-47"
   id="path334"
   inkscape:connector-curvature="0"
   style="fill:none;stroke:#bbe4bc;stroke-width:35;stroke-linecap:round;stroke-linejoin:round" />
         <path
   d="m 9479,16420 -27,-22 z"
   id="path336"
   inkscape:connector-curvature="0"
   style="fill:#bbe4bc;stroke:none" />
         <path
   d="m 9479,16420 -27,-22 z"
   id="path338"
   inkscape:connector-curvature="0"
   style="fill:none;stroke:#bbe4bc" />
         <path
   d="m 8956,16379 24,-25 z"
   id="path340"
   inkscape:connector-curvature="0"
   style="fill:#bbe4bc;stroke:none" />
         <path
   d="m 8956,16379 24,-25 z"
   id="path342"
   inkscape:connector-curvature="0"
   style="fill:none;stroke:#bbe4bc" />
         <path
   d="m 9067,15179 h 3 4 l 3,-1 4,-2 3,-1 3,-2 2,-2 3,-2 2,-3 2,-2 2,-3 1,-3 2,-4 1,-3 v -4 -3 -4 -3 l -1,-4 -2,-3 -1,-3 -2,-3 -2,-3 -2,-2 -3,-3 -2,-2 -3,-2 -3,-1 -4,-1 -3,-2 h -4 -3 -4 -4 l -3,2 -3,1 -3,1 -3,2 -3,2 -2,3 -3,2 -2,3 -2,3 -1,3 -1,3 -2,4 v 3 4 3 4 l 2,3 1,4 1,3 2,3 2,2 3,3 2,2 3,2 3,2 3,1 3,2 3,1 h 4 z"
   id="path344"
   inkscape:connector-curvature="0"
   style="fill:#fee88b;stroke:none" />
         <path
   d="m 9289,15239 h 4 l 3,-1 4,-1 3,-1 3,-1 3,-2 3,-2 2,-3 2,-2 2,-3 2,-3 2,-3 1,-3 1,-4 v -3 l 1,-4 -1,-3 v -4 l -1,-3 -1,-3 -2,-4 -2,-2 -2,-3 -2,-3 -2,-2 -3,-2 -3,-2 -3,-1 -3,-2 -4,-1 h -3 -4 -4 -3 l -4,1 -3,2 -3,1 -3,2 -3,2 -2,2 -3,3 -2,3 -2,2 -1,4 -1,3 -1,3 -1,4 v 3 4 l 1,3 1,4 1,3 1,3 2,3 2,3 3,2 2,3 3,2 3,2 3,1 3,1 4,1 3,1 z"
   id="path346"
   inkscape:connector-curvature="0"
   style="fill:#fee88b;stroke:none" />
         <path
   d="m 9408,15018 3,-1 h 4 l 3,-1 3,-1 3,-2 3,-2 3,-1 3,-3 2,-2 2,-3 2,-3 2,-3 1,-3 1,-4 v -3 -4 -4 -3 l -1,-4 -1,-3 -2,-3 -2,-3 -2,-3 -2,-2 -3,-3 -3,-2 -3,-2 -3,-1 -3,-1 -3,-1 -4,-1 h -3 -4 l -4,1 -3,1 -3,1 -4,1 -3,2 -2,2 -3,3 -2,2 -2,3 -2,3 -2,3 -1,3 -1,4 v 3 4 4 3 l 1,4 1,3 2,3 2,3 2,3 2,2 3,3 2,1 3,2 4,2 3,1 3,1 h 4 z"
   id="path348"
   inkscape:connector-curvature="0"
   style="fill:#fee88b;stroke:none" />
         <path
   d="m 9518,15318 h 4 3 l 4,-1 3,-2 3,-1 3,-2 3,-2 2,-2 3,-3 2,-3 2,-3 1,-3 1,-3 1,-3 1,-4 v -3 -4 l -1,-4 -1,-3 -1,-4 -1,-3 -2,-3 -2,-3 -3,-2 -2,-2 -3,-2 -3,-2 -3,-2 -3,-1 -4,-1 h -3 -4 -4 -3 l -4,1 -3,1 -3,2 -3,2 -3,2 -2,2 -2,2 -2,3 -2,3 -2,3 -1,4 -1,3 v 4 4 3 4 l 1,3 1,3 2,3 2,3 2,3 2,3 2,2 3,2 3,2 3,1 3,2 4,1 h 3 z"
   id="path350"
   inkscape:connector-curvature="0"
   style="fill:#fee88b;stroke:none" />
         <path
   d="m 9257,15524 h 4 l 4,-1 3,-1 3,-1 3,-2 3,-1 3,-2 2,-3 3,-2 2,-3 2,-3 1,-3 1,-4 2,-3 v -4 -3 -4 -3 l -2,-4 -1,-3 -1,-3 -2,-3 -2,-3 -3,-2 -2,-3 -3,-2 -3,-2 -3,-1 -3,-1 -3,-1 -4,-1 h -4 -3 l -4,1 -3,1 -4,1 -3,1 -3,2 -2,2 -3,3 -2,2 -2,3 -2,3 -1,3 -2,3 -1,4 v 3 4 3 4 l 1,3 2,4 1,3 2,3 2,3 2,2 3,3 2,2 3,1 3,2 4,1 3,1 4,1 z"
   id="path352"
   inkscape:connector-curvature="0"
   style="fill:#fee88b;stroke:none" />
         <path
   d="m 8941,15928 3,-1 h 4 l 3,-1 4,-1 3,-2 3,-2 3,-2 2,-2 3,-2 2,-3 2,-3 1,-3 1,-4 2,-3 v -4 -3 -4 -4 l -2,-3 -1,-3 -1,-4 -2,-3 -2,-2 -3,-3 -2,-2 -3,-2 -3,-2 -3,-1 -4,-2 -3,-1 h -4 -3 -4 -3 l -4,1 -3,2 -3,1 -3,2 -3,2 -2,2 -3,3 -1,2 -2,3 -2,4 -1,3 -1,3 v 4 4 3 4 l 1,3 1,4 2,3 2,3 1,3 3,2 2,2 3,2 3,2 3,2 3,1 4,1 h 3 z"
   id="path354"
   inkscape:connector-curvature="0"
   style="fill:#fee88b;stroke:none" />
         <path
   d="m 9333,16036 h 3 l 4,-1 3,-1 3,-1 3,-1 3,-2 3,-2 3,-2 2,-3 2,-3 2,-3 1,-3 1,-3 1,-3 1,-4 v -3 -4 l -1,-4 -1,-3 -1,-4 -1,-3 -2,-3 -2,-3 -2,-2 -3,-2 -3,-2 -3,-2 -3,-2 -3,-1 -3,-1 h -4 -3 -4 -4 l -3,1 -4,1 -3,2 -3,2 -3,2 -2,2 -2,2 -2,3 -2,3 -2,3 -1,4 -1,3 v 4 4 3 4 l 1,3 1,3 2,3 2,3 2,3 2,3 2,2 3,2 3,2 3,1 4,1 3,1 4,1 z"
   id="path356"
   inkscape:connector-curvature="0"
   style="fill:#fee88b;stroke:none" />
         <path
   d="m 9246,16366 h 3 l 4,-1 3,-1 4,-1 3,-1 3,-2 2,-2 3,-3 2,-2 2,-3 2,-3 1,-3 1,-3 2,-4 v -3 -4 -3 -4 l -2,-3 -1,-4 -1,-3 -2,-3 -2,-2 -2,-3 -3,-2 -2,-2 -3,-2 -3,-2 -4,-1 -3,-1 h -4 -3 -4 -4 l -3,1 -3,1 -3,2 -3,2 -3,2 -3,2 -2,3 -2,2 -2,3 -1,3 -1,4 -2,3 v 4 3 4 3 l 2,4 1,3 1,3 2,3 2,3 2,2 3,3 3,2 3,2 3,1 3,1 3,1 4,1 z"
   id="path358"
   inkscape:connector-curvature="0"
   style="fill:#fee88b;stroke:none" />
         <path
   d="m 9376,16243 h 4 3 l 4,-2 3,-1 3,-1 3,-2 3,-2 2,-3 3,-2 1,-3 2,-3 2,-3 1,-3 1,-3 v -4 l 1,-4 -1,-3 v -4 l -1,-3 -1,-3 -2,-4 -2,-2 -1,-3 -3,-3 -2,-2 -3,-2 -3,-2 -3,-1 -3,-2 -4,-1 h -3 -4 -3 -4 l -4,1 -3,2 -3,1 -3,2 -3,2 -3,2 -2,3 -2,3 -2,2 -1,4 -1,3 -2,3 v 4 3 4 4 l 2,3 1,3 1,3 2,3 2,3 2,2 3,3 3,2 3,2 3,1 3,1 4,2 h 4 z"
   id="path360"
   inkscape:connector-curvature="0"
   style="fill:#fee88b;stroke:none" />
         <path
   d="m 9692,16165 4,-1 h 3 l 4,-1 3,-1 3,-2 3,-2 3,-2 2,-2 3,-3 1,-3 2,-3 2,-3 1,-3 1,-3 v -4 l 1,-3 -1,-4 v -4 l -1,-3 -1,-4 -2,-3 -2,-3 -1,-3 -3,-2 -2,-2 -3,-2 -3,-2 -3,-2 -3,-1 -4,-1 h -3 -4 -3 -4 l -4,1 -3,1 -3,2 -3,2 -3,2 -2,2 -3,2 -2,3 -1,3 -2,3 -1,4 -1,3 -1,4 v 4 3 l 1,4 1,3 1,3 2,3 1,3 2,3 3,3 2,2 3,2 3,2 3,2 3,1 4,1 h 4 z"
   id="path362"
   inkscape:connector-curvature="0"
   style="fill:#fee88b;stroke:none" />
         <path
   d="m 9815,16382 h 3 l 4,-1 3,-1 4,-1 3,-2 3,-1 2,-2 3,-3 2,-2 2,-3 2,-3 1,-3 1,-3 2,-4 v -4 -3 -4 -3 l -2,-4 -1,-3 -1,-3 -2,-3 -2,-3 -2,-2 -3,-3 -2,-1 -3,-2 -3,-2 -4,-1 -3,-1 h -4 -3 -4 -4 l -3,1 -3,1 -3,2 -3,2 -3,1 -3,3 -2,2 -2,3 -2,3 -2,3 -1,3 -1,4 v 3 4 3 4 l 1,4 1,3 2,3 2,3 2,3 2,2 3,3 3,2 3,1 3,2 3,1 3,1 4,1 z"
   id="path364"
   inkscape:connector-curvature="0"
   style="fill:#fee88b;stroke:none" />
         <path
   d="m 9898,16196 h 3 l 4,-1 3,-1 4,-1 3,-2 3,-1 3,-2 2,-3 2,-2 2,-3 2,-3 2,-3 1,-3 1,-4 v -3 l 1,-4 -1,-3 v -4 l -1,-3 -1,-4 -2,-3 -2,-3 -2,-3 -2,-2 -2,-3 -3,-1 -3,-2 -3,-2 -4,-1 -3,-1 h -4 -3 -4 -4 l -3,1 -3,1 -3,2 -3,2 -3,1 -3,3 -2,2 -2,3 -2,3 -1,3 -1,4 -1,3 -1,4 v 3 4 l 1,3 1,4 1,3 1,3 2,3 2,3 2,2 3,3 3,2 3,1 3,2 3,1 3,1 4,1 z"
   id="path366"
   inkscape:connector-curvature="0"
   style="fill:#fee88b;stroke:none" />
         <path
   d="m 9882,15793 h 3 l 4,-1 4,-1 3,-1 3,-1 3,-2 3,-2 2,-3 2,-2 2,-3 2,-3 2,-3 1,-3 1,-4 v -3 l 1,-4 -1,-3 v -4 l -1,-3 -1,-4 -2,-3 -2,-3 -2,-2 -2,-3 -2,-2 -3,-2 -3,-2 -3,-2 -3,-1 -4,-1 h -4 -3 -4 -3 l -4,1 -3,1 -3,2 -3,2 -3,2 -2,2 -3,3 -2,2 -2,3 -1,3 -1,4 -1,3 -1,4 v 3 4 l 1,3 1,4 1,3 1,3 2,3 2,3 3,2 2,3 3,2 3,2 3,1 3,1 4,1 3,1 z"
   id="path368"
   inkscape:connector-curvature="0"
   style="fill:#fee88b;stroke:none" />
         <path
   d="m 10107,15702 h 4 l 3,-1 4,-1 3,-1 3,-1 3,-2 3,-3 2,-2 3,-2 2,-3 1,-3 2,-3 1,-3 1,-4 v -3 l 1,-4 -1,-4 v -3 l -1,-4 -1,-3 -2,-3 -1,-3 -2,-3 -3,-2 -2,-3 -3,-2 -3,-2 -3,-1 -3,-1 -4,-1 -3,-1 h -4 -3 l -4,1 -3,1 -4,1 -3,1 -3,2 -3,2 -2,3 -3,2 -2,3 -1,3 -2,3 -1,3 -1,4 -1,3 v 4 4 l 1,3 1,4 1,3 2,3 1,3 2,3 3,2 2,2 3,3 3,2 3,1 4,1 3,1 4,1 z"
   id="path370"
   inkscape:connector-curvature="0"
   style="fill:#fee88b;stroke:none" />
         <path
   d="m 10095,15026 h 4 l 4,-1 3,-1 3,-1 3,-2 3,-1 3,-2 2,-3 3,-2 2,-3 2,-3 1,-3 1,-3 2,-3 v -4 -4 -3 -4 l -2,-3 -1,-4 -1,-3 -2,-3 -2,-3 -3,-2 -2,-3 -3,-1 -3,-2 -3,-2 -3,-1 -3,-1 h -4 -4 -3 -4 l -3,1 -3,1 -4,2 -2,2 -3,1 -3,3 -2,2 -2,3 -2,3 -1,3 -2,4 -1,3 v 4 3 4 4 l 1,3 2,3 1,3 2,3 2,3 2,2 3,3 3,2 2,1 4,2 3,1 3,1 4,1 z"
   id="path372"
   inkscape:connector-curvature="0"
   style="fill:#fee88b;stroke:none" />
         <path
   d="m 10333,15042 3,-1 h 4 l 3,-1 3,-1 3,-2 3,-2 3,-2 3,-2 2,-2 2,-3 2,-3 2,-3 1,-4 1,-3 v -4 -3 -4 -4 l -1,-3 -1,-3 -2,-3 -2,-3 -2,-3 -2,-3 -3,-2 -3,-2 -3,-2 -3,-1 -3,-1 -3,-1 -4,-1 h -3 -4 l -4,1 -3,1 -4,1 -3,1 -3,2 -2,2 -3,2 -2,3 -2,3 -2,3 -1,3 -1,3 -1,3 -1,4 v 4 3 l 1,4 1,3 1,4 1,3 2,3 2,3 2,2 3,2 2,2 3,2 3,2 4,1 3,1 h 4 z"
   id="path374"
   inkscape:connector-curvature="0"
   style="fill:#fee88b;stroke:none" />
         <path
   d="m 10364,14473 4,-1 h 3 l 4,-1 3,-1 3,-2 3,-2 3,-1 2,-3 3,-2 2,-3 2,-3 1,-3 1,-4 2,-3 v -4 -3 -4 -4 l -2,-3 -1,-3 -1,-3 -2,-3 -2,-3 -3,-3 -2,-2 -3,-2 -3,-2 -3,-1 -3,-1 -4,-1 -3,-1 h -4 -3 l -4,1 -3,1 -4,1 -3,1 -3,2 -3,2 -2,2 -3,3 -1,3 -2,3 -2,3 -1,3 -1,3 v 4 4 3 4 l 1,3 1,4 2,3 2,3 1,3 3,2 2,3 3,1 3,2 3,2 4,1 3,1 h 4 z"
   id="path376"
   inkscape:connector-curvature="0"
   style="fill:#fee88b;stroke:none" />
         <path
   d="m 10404,14251 3,-1 h 4 l 3,-1 4,-1 3,-2 3,-2 3,-1 2,-3 3,-2 2,-3 1,-3 2,-3 1,-3 1,-4 v -3 l 1,-4 -1,-3 v -4 l -1,-3 -1,-4 -2,-3 -1,-3 -2,-3 -3,-2 -2,-3 -3,-2 -3,-1 -3,-2 -4,-1 -3,-1 -4,-1 h -3 -4 l -3,1 -4,1 -3,1 -4,2 -3,1 -2,2 -3,3 -2,2 -2,3 -2,3 -1,3 -1,4 -2,3 v 4 3 4 3 l 2,4 1,3 1,3 2,3 2,3 2,2 3,3 2,1 3,2 4,2 3,1 4,1 h 3 z"
   id="path378"
   inkscape:connector-curvature="0"
   style="fill:#fee88b;stroke:none" />
         <path
   d="m 10641,14409 h 4 l 3,-1 4,-1 3,-1 3,-1 3,-2 3,-2 2,-3 2,-2 2,-3 2,-3 2,-3 1,-3 1,-4 v -3 l 1,-4 -1,-3 v -4 l -1,-3 -1,-4 -2,-3 -2,-3 -2,-2 -2,-3 -2,-2 -3,-2 -3,-2 -3,-2 -3,-1 -4,-1 h -3 -4 -4 -3 l -4,1 -3,1 -3,2 -3,2 -3,2 -2,2 -3,3 -2,2 -2,3 -1,3 -1,4 -1,3 -1,4 v 3 4 l 1,3 1,4 1,3 1,3 2,3 2,3 3,2 2,3 3,2 3,2 3,1 3,1 4,1 3,1 z"
   id="path380"
   inkscape:connector-curvature="0"
   style="fill:#fee88b;stroke:none" />
         <path
   d="m 10744,15026 h 3 l 4,-1 3,-1 3,-1 4,-2 2,-1 3,-2 3,-3 2,-2 2,-3 2,-3 1,-3 2,-3 1,-4 v -4 -3 -4 -3 l -1,-4 -2,-3 -1,-3 -2,-3 -2,-3 -2,-2 -3,-3 -3,-2 -2,-2 -4,-1 -3,-1 -3,-1 -4,-1 h -3 -4 l -4,1 -3,1 -3,1 -3,1 -3,2 -3,2 -2,3 -3,2 -2,3 -2,3 -1,3 -1,3 -2,4 v 3 4 3 4 l 2,4 1,3 1,3 2,3 2,3 3,2 2,3 3,2 3,1 3,2 3,1 3,1 4,1 z"
   id="path382"
   inkscape:connector-curvature="0"
   style="fill:#fee88b;stroke:none" />
         <path
   d="m 10052,13994 h 3 l 4,-1 4,-1 3,-1 3,-1 2,-2 3,-2 3,-2 2,-3 2,-3 2,-2 2,-4 1,-3 1,-3 v -4 l 1,-3 -1,-4 v -4 l -1,-3 -1,-3 -2,-3 -2,-3 -2,-3 -2,-3 -3,-2 -3,-2 -2,-2 -3,-2 -3,-1 -4,-1 h -4 -3 -4 -3 l -4,1 -3,1 -3,2 -3,2 -3,2 -2,2 -3,3 -2,3 -2,3 -1,3 -1,3 -1,3 -1,4 v 4 3 l 1,4 1,3 1,3 1,4 2,2 2,3 3,3 2,2 3,2 3,2 3,1 3,1 4,1 3,1 z"
   id="path384"
   inkscape:connector-curvature="0"
   style="fill:#fee88b;stroke:none" />
         <path
   d="m 10230,13848 3,-1 h 4 l 3,-1 4,-1 3,-2 3,-2 3,-1 2,-3 3,-2 1,-3 2,-3 2,-3 1,-4 1,-3 v -4 l 1,-3 -1,-4 v -4 l -1,-3 -1,-3 -2,-3 -2,-3 -1,-3 -3,-2 -2,-3 -3,-2 -3,-1 -3,-2 -4,-1 -3,-1 -4,-1 h -3 -4 l -4,1 -3,1 -3,1 -3,2 -3,1 -3,2 -2,3 -3,2 -2,3 -1,3 -2,3 -1,3 -1,3 -1,4 v 4 3 l 1,4 1,3 1,4 2,3 1,3 2,3 3,2 2,3 3,1 3,2 3,2 3,1 3,1 h 4 z"
   id="path386"
   inkscape:connector-curvature="0"
   style="fill:#fee88b;stroke:none" />
         <path
   d="m 9850,13801 4,-1 h 3 l 4,-1 3,-1 3,-2 3,-2 3,-2 2,-2 3,-2 2,-3 2,-3 1,-3 1,-3 1,-4 1,-3 v -4 -4 l -1,-3 -1,-4 -1,-3 -1,-3 -2,-3 -2,-3 -3,-2 -2,-3 -3,-2 -3,-2 -3,-1 -3,-1 -4,-1 -3,-1 h -4 -3 l -4,1 -4,1 -2,1 -4,1 -2,2 -3,2 -3,3 -2,2 -2,3 -2,3 -2,3 -1,3 -1,4 v 3 4 4 3 l 1,4 1,3 2,3 2,3 2,3 2,2 3,2 3,2 2,2 4,2 2,1 4,1 h 4 z"
   id="path388"
   inkscape:connector-curvature="0"
   style="fill:#fee88b;stroke:none" />
         <path
   d="m 9767,13425 h 3 l 4,-1 4,-1 3,-1 3,-2 3,-1 3,-2 2,-3 3,-2 2,-3 2,-3 1,-3 1,-3 2,-3 v -4 -4 -3 -4 l -2,-3 -1,-4 -1,-3 -2,-3 -2,-3 -3,-2 -2,-3 -3,-1 -3,-2 -3,-2 -3,-1 -4,-1 h -4 -3 -4 -3 l -4,1 -3,1 -3,2 -3,2 -3,1 -2,3 -3,2 -1,3 -2,3 -2,3 -1,4 -1,3 v 4 3 4 4 l 1,3 1,3 2,3 2,3 1,3 3,2 2,3 3,2 3,1 3,2 3,1 4,1 3,1 z"
   id="path390"
   inkscape:connector-curvature="0"
   style="fill:#fee88b;stroke:none" />
         <path
   d="m 9538,13710 3,-1 h 4 l 3,-1 3,-1 4,-2 2,-2 3,-2 3,-2 2,-3 2,-2 2,-3 2,-3 1,-4 1,-3 v -4 l 1,-3 -1,-4 v -4 l -1,-3 -1,-3 -2,-3 -2,-3 -2,-3 -2,-3 -3,-2 -3,-2 -2,-2 -4,-1 -3,-1 -3,-1 -4,-1 h -3 -4 l -3,1 -4,1 -3,1 -3,1 -3,2 -3,2 -2,2 -3,3 -2,3 -2,3 -1,3 -1,3 -1,3 -1,4 v 4 3 l 1,4 1,3 1,4 1,3 2,3 2,2 3,3 2,2 3,2 3,2 3,2 3,1 4,1 h 3 z"
   id="path392"
   inkscape:connector-curvature="0"
   style="fill:#fee88b;stroke:none" />
         <path
   d="m 9289,13761 4,-1 h 3 l 4,-1 3,-1 3,-2 3,-2 3,-1 2,-3 2,-2 2,-3 2,-3 2,-3 1,-3 1,-4 v -3 l 1,-4 -1,-3 v -4 l -1,-4 -1,-3 -2,-3 -2,-3 -2,-3 -2,-3 -2,-2 -3,-2 -3,-2 -3,-1 -3,-1 -4,-2 h -3 -4 -4 -3 l -4,2 -3,1 -3,1 -3,2 -3,2 -2,2 -3,3 -2,3 -2,3 -1,3 -1,3 -1,4 -1,4 v 3 4 l 1,3 1,4 1,3 1,3 2,3 2,3 3,2 2,3 3,1 3,2 3,2 3,1 4,1 h 3 z"
   id="path394"
   inkscape:connector-curvature="0"
   style="fill:#fee88b;stroke:none" />
         <path
   d="m 8965,13350 3,-1 h 4 l 3,-1 4,-1 3,-2 3,-2 3,-2 2,-2 3,-3 1,-2 2,-3 2,-4 1,-3 1,-3 v -4 l 1,-3 -1,-4 v -4 l -1,-3 -1,-3 -2,-4 -2,-2 -1,-3 -3,-2 -2,-3 -3,-2 -3,-2 -3,-1 -4,-1 -3,-2 h -4 -3 -4 -4 l -3,2 -3,1 -3,1 -3,2 -3,2 -2,3 -3,2 -2,3 -2,2 -1,4 -1,3 -2,3 v 4 4 3 4 l 2,3 1,3 1,4 2,3 2,2 3,3 2,2 3,2 3,2 3,2 3,1 3,1 h 4 z"
   id="path396"
   inkscape:connector-curvature="0"
   style="fill:#fee88b;stroke:none" />
         <path
   d="m 10673,13335 3,-1 h 4 l 3,-1 3,-1 3,-2 3,-2 3,-2 3,-2 2,-3 2,-3 2,-3 1,-3 2,-3 1,-4 v -3 -4 -3 -4 l -1,-4 -2,-3 -1,-3 -2,-3 -2,-2 -2,-3 -3,-2 -3,-2 -3,-2 -3,-2 -3,-1 -3,-1 h -4 -3 -4 -4 l -3,1 -3,1 -4,2 -2,2 -3,2 -2,2 -3,3 -2,2 -2,3 -1,3 -1,3 -2,4 v 4 3 4 3 l 2,4 1,3 1,3 2,3 2,3 3,3 2,2 3,2 2,2 4,2 3,1 3,1 h 4 z"
   id="path398"
   inkscape:connector-curvature="0"
   style="fill:#fee88b;stroke:none" />
         <path
   d="m 10534,13646 h 3 4 l 3,-1 4,-2 3,-1 3,-2 3,-2 2,-2 3,-3 2,-3 1,-3 2,-3 1,-3 1,-3 v -4 l 1,-3 -1,-4 v -4 l -1,-3 -1,-4 -2,-3 -1,-3 -2,-2 -3,-3 -2,-2 -3,-2 -3,-2 -3,-1 -4,-1 -3,-2 h -4 -3 -4 -3 l -4,2 -3,1 -3,1 -3,2 -3,2 -2,2 -3,3 -2,2 -1,3 -2,3 -1,4 -1,3 v 4 4 3 4 l 1,3 1,3 2,3 1,3 2,3 3,3 2,2 3,2 3,2 3,1 3,2 4,1 h 3 z"
   id="path400"
   inkscape:connector-curvature="0"
   style="fill:#fee88b;stroke:none" />
         <path
   d="m 10847,13840 h 3 l 4,-1 3,-1 4,-1 2,-2 3,-1 3,-2 3,-3 2,-2 2,-3 2,-3 2,-3 1,-3 1,-4 v -4 l 1,-3 -1,-4 v -3 l -1,-4 -1,-3 -2,-3 -2,-3 -2,-3 -2,-2 -3,-3 -3,-1 -3,-2 -2,-2 -4,-1 -3,-1 h -4 -3 -4 -4 l -3,1 -4,1 -2,2 -3,2 -3,1 -3,3 -2,2 -2,3 -2,3 -1,3 -1,3 -1,4 -1,3 v 4 3 l 1,4 1,4 1,3 1,3 2,3 2,3 2,2 3,3 3,2 3,1 2,2 4,1 3,1 4,1 z"
   id="path402"
   inkscape:connector-curvature="0"
   style="fill:#fee88b;stroke:none" />
         <path
   d="m 10823,14172 h 4 l 3,-1 4,-1 3,-1 3,-1 3,-2 3,-2 2,-3 2,-2 2,-3 2,-3 2,-3 1,-3 1,-4 v -3 l 1,-4 -1,-4 v -3 l -1,-4 -1,-3 -2,-3 -2,-3 -2,-3 -2,-2 -2,-2 -3,-3 -3,-2 -3,-1 -3,-1 -4,-1 -3,-1 h -4 -4 l -3,1 -4,1 -3,1 -3,1 -3,2 -3,3 -3,2 -2,2 -2,3 -2,3 -1,3 -2,3 -1,4 v 3 4 4 3 l 1,4 2,3 1,3 2,3 2,3 2,2 3,3 3,2 3,2 3,1 3,1 4,1 3,1 z"
   id="path404"
   inkscape:connector-curvature="0"
   style="fill:#fee88b;stroke:none" />
         <path
   d="m 11005,14488 h 3 l 4,-1 4,-1 3,-1 3,-1 3,-2 3,-2 2,-3 2,-2 2,-3 2,-3 2,-3 1,-3 1,-4 v -3 l 1,-4 -1,-4 v -3 l -1,-4 -1,-3 -2,-3 -2,-3 -2,-3 -2,-2 -2,-2 -3,-2 -3,-2 -3,-2 -3,-1 -4,-1 h -4 -3 -4 -3 l -4,1 -3,1 -3,2 -3,2 -3,2 -3,2 -2,2 -2,3 -2,3 -2,3 -1,3 -1,4 v 3 4 4 3 l 1,4 1,3 2,3 2,3 2,3 2,2 3,3 3,2 3,2 3,1 3,1 4,1 3,1 z"
   id="path406"
   inkscape:connector-curvature="0"
   style="fill:#fee88b;stroke:none" />
         <path
   d="m 11329,14346 h 3 l 4,-1 3,-1 4,-1 3,-1 3,-2 2,-2 3,-3 2,-2 2,-3 2,-3 1,-3 2,-3 1,-4 v -3 -4 -4 -3 l -1,-4 -2,-3 -1,-3 -2,-3 -2,-3 -2,-3 -3,-2 -2,-2 -3,-2 -3,-1 -4,-1 -3,-1 -4,-1 h -3 -4 l -3,1 -4,1 -3,1 -3,1 -3,2 -3,2 -2,2 -3,3 -2,3 -2,3 -1,3 -1,3 -2,4 v 3 4 4 3 l 2,4 1,3 1,3 2,3 2,3 3,2 2,3 3,2 3,2 3,1 3,1 4,1 3,1 z"
   id="path408"
   inkscape:connector-curvature="0"
   style="fill:#fee88b;stroke:none" />
         <path
   d="m 11368,13880 4,-1 h 3 l 4,-1 3,-1 3,-2 3,-2 3,-2 2,-2 3,-3 2,-2 2,-3 1,-3 1,-4 1,-3 1,-4 v -3 -4 l -1,-3 -1,-4 -1,-3 -1,-3 -2,-3 -2,-3 -3,-2 -2,-3 -3,-2 -3,-2 -3,-1 -3,-1 -4,-1 -3,-1 h -4 -4 l -3,1 -4,1 -3,1 -3,1 -3,2 -3,2 -2,3 -2,2 -2,3 -2,3 -2,3 -1,3 -1,4 v 3 4 3 4 l 1,3 1,4 2,3 2,3 2,2 2,3 2,2 3,2 3,2 3,2 3,1 4,1 h 3 z"
   id="path410"
   inkscape:connector-curvature="0"
   style="fill:#fee88b;stroke:none" />
         <path
   d="m 11542,14141 4,-1 h 3 l 4,-1 3,-1 3,-2 3,-2 3,-2 2,-2 3,-3 2,-2 2,-3 1,-4 1,-3 1,-4 1,-3 v -4 -3 l -1,-4 -1,-3 -1,-4 -1,-3 -2,-3 -2,-3 -3,-2 -2,-3 -3,-1 -3,-2 -3,-2 -3,-1 -4,-1 h -3 -4 -3 -4 l -4,1 -3,1 -3,2 -3,2 -2,1 -3,3 -2,2 -2,3 -2,3 -2,3 -1,4 -1,3 v 4 3 4 3 l 1,4 1,3 2,4 2,3 2,2 2,3 3,2 2,2 3,2 3,2 3,1 4,1 h 4 z"
   id="path412"
   inkscape:connector-curvature="0"
   style="fill:#fee88b;stroke:none" />
         <path
   d="m 11605,13848 4,-1 h 4 l 3,-1 3,-1 4,-2 3,-2 2,-1 3,-3 2,-2 2,-3 2,-3 2,-3 1,-4 1,-3 v -4 l 1,-3 -1,-4 v -4 l -1,-3 -1,-3 -2,-3 -2,-3 -2,-3 -2,-2 -3,-3 -2,-2 -3,-1 -4,-2 -3,-1 -3,-1 -4,-1 h -4 -3 l -4,1 -3,1 -4,1 -3,2 -3,1 -2,2 -3,3 -2,2 -2,3 -2,3 -1,3 -2,3 -1,3 v 4 4 3 4 l 1,3 2,4 1,3 2,3 2,3 2,2 3,3 2,1 3,2 3,2 4,1 3,1 h 4 z"
   id="path414"
   inkscape:connector-curvature="0"
   style="fill:#fee88b;stroke:none" />
         <path
   d="m 11550,13634 h 4 l 3,-1 4,-1 3,-1 3,-1 3,-2 3,-2 2,-2 3,-3 2,-3 2,-3 1,-3 1,-3 1,-3 1,-4 v -3 -4 l -1,-4 -1,-3 -1,-4 -1,-3 -2,-3 -2,-3 -3,-2 -2,-2 -3,-2 -3,-2 -3,-2 -3,-1 -4,-1 h -3 -4 -4 -3 l -4,1 -3,1 -3,2 -3,2 -3,2 -2,2 -2,2 -2,3 -2,3 -2,3 -1,4 -1,3 v 4 4 3 4 l 1,3 1,3 2,3 2,3 2,3 2,3 2,2 3,2 3,2 3,1 3,1 4,1 3,1 z"
   id="path416"
   inkscape:connector-curvature="0"
   style="fill:#fee88b;stroke:none" />
         <path
   d="m 11574,13389 h 3 4 l 4,-1 3,-2 3,-1 2,-2 3,-2 3,-2 2,-3 2,-3 2,-3 2,-3 1,-3 1,-3 v -4 l 1,-3 -1,-4 v -4 l -1,-3 -1,-4 -2,-3 -2,-3 -2,-3 -2,-2 -3,-2 -3,-2 -2,-2 -3,-2 -3,-1 -4,-1 h -4 -3 -4 -3 l -4,1 -3,1 -3,2 -3,2 -3,2 -2,2 -3,2 -2,3 -2,3 -1,3 -1,4 -1,3 -1,4 v 4 3 l 1,4 1,3 1,3 1,3 2,3 2,3 3,3 2,2 3,2 3,2 3,1 3,2 4,1 h 3 z"
   id="path418"
   inkscape:connector-curvature="0"
   style="fill:#fee88b;stroke:none" />
         <path
   d="m 11740,13540 3,-1 h 4 l 3,-1 4,-1 3,-2 3,-2 3,-2 2,-2 3,-3 1,-2 2,-3 2,-4 1,-3 1,-4 v -3 l 1,-4 -1,-3 v -4 l -1,-3 -1,-3 -2,-4 -2,-2 -1,-3 -3,-3 -2,-2 -3,-2 -3,-2 -3,-2 -4,-1 -3,-1 h -4 -3 -4 -4 l -3,1 -3,1 -3,2 -3,2 -3,2 -2,2 -3,3 -2,3 -1,2 -2,4 -1,3 -1,3 -1,4 v 3 4 l 1,3 1,4 1,3 2,4 1,3 2,2 3,3 2,2 3,2 3,2 3,2 3,1 3,1 h 4 z"
   id="path420"
   inkscape:connector-curvature="0"
   style="fill:#fee88b;stroke:none" />
         <path
   d="m 11930,13769 h 3 l 4,-1 3,-1 4,-1 3,-2 3,-1 3,-2 2,-3 2,-2 2,-3 2,-3 2,-3 1,-3 1,-4 v -4 l 1,-3 -1,-4 v -3 l -1,-4 -1,-3 -2,-3 -2,-3 -2,-3 -2,-3 -2,-2 -3,-2 -3,-2 -3,-1 -4,-1 -3,-1 -4,-1 h -3 -4 l -4,1 -3,1 -3,1 -3,1 -3,2 -3,2 -2,2 -3,3 -2,3 -2,3 -1,3 -1,3 -1,4 -1,3 v 4 3 l 1,4 1,4 1,3 1,3 2,3 2,3 3,2 2,3 3,2 3,1 3,2 3,1 3,1 4,1 z"
   id="path422"
   inkscape:connector-curvature="0"
   style="fill:#fee88b;stroke:none" />
         <path
   d="m 12064,14275 4,-1 h 3 l 4,-1 3,-1 3,-2 3,-2 3,-1 2,-3 3,-2 2,-3 2,-3 1,-3 1,-4 1,-3 1,-4 v -3 -4 l -1,-4 -1,-3 -1,-3 -1,-3 -2,-3 -2,-3 -3,-3 -2,-2 -3,-2 -3,-1 -3,-2 -3,-1 -4,-1 -3,-1 h -4 -4 l -3,1 -4,1 -3,1 -3,2 -3,1 -3,2 -2,2 -2,3 -2,3 -2,3 -2,3 -1,3 -1,3 v 4 4 3 4 l 1,3 1,4 2,3 2,3 2,3 2,2 2,3 3,1 3,2 3,2 3,1 4,1 h 3 z"
   id="path424"
   inkscape:connector-curvature="0"
   style="fill:#fee88b;stroke:none" />
         <path
   d="m 12096,14670 h 3 l 4,-1 3,-1 4,-1 3,-2 3,-1 3,-2 2,-3 3,-2 1,-3 2,-3 2,-3 1,-3 1,-4 v -4 l 1,-3 -1,-4 v -3 l -1,-4 -1,-3 -2,-3 -2,-3 -1,-3 -3,-2 -2,-3 -3,-1 -3,-2 -3,-2 -4,-1 -3,-1 h -4 -3 -4 -4 l -3,1 -3,1 -3,2 -3,2 -3,1 -2,3 -3,2 -2,3 -2,3 -1,3 -1,3 -2,4 v 3 4 3 4 l 2,4 1,3 1,3 2,3 2,3 3,2 2,3 3,2 3,1 3,2 3,1 3,1 4,1 z"
   id="path426"
   inkscape:connector-curvature="0"
   style="fill:#fee88b;stroke:none" />
         <path
   d="m 11835,14726 4,-1 h 3 l 4,-1 3,-1 3,-2 3,-2 3,-2 2,-2 2,-3 2,-2 2,-3 2,-4 1,-3 1,-4 v -3 l 1,-4 -1,-3 v -4 l -1,-3 -1,-4 -2,-3 -2,-3 -2,-2 -2,-3 -2,-2 -3,-2 -3,-2 -3,-1 -3,-2 -4,-1 h -3 -4 -4 -3 l -4,1 -3,2 -3,1 -3,2 -3,2 -3,2 -2,3 -2,2 -2,3 -1,3 -2,4 -1,3 v 4 3 4 3 l 1,4 2,3 1,4 2,3 2,2 2,3 3,2 3,2 3,2 3,2 3,1 4,1 h 3 z"
   id="path428"
   inkscape:connector-curvature="0"
   style="fill:#fee88b;stroke:none" />
         <path
   d="m 11566,14623 4,-1 h 3 l 4,-1 3,-1 3,-2 3,-2 3,-2 2,-2 2,-3 2,-3 2,-2 2,-4 1,-3 1,-3 v -4 l 1,-3 -1,-4 v -3 l -1,-4 -1,-3 -2,-3 -2,-3 -2,-3 -2,-2 -2,-3 -3,-2 -3,-2 -3,-1 -3,-1 -4,-1 -3,-1 h -4 -4 l -3,1 -4,1 -3,1 -3,1 -3,2 -3,2 -2,3 -3,2 -2,3 -2,3 -1,3 -1,3 -1,4 -1,3 v 4 3 l 1,4 1,3 1,3 1,4 2,2 2,3 3,3 2,2 3,2 3,2 3,2 3,1 4,1 h 3 z"
   id="path430"
   inkscape:connector-curvature="0"
   style="fill:#fee88b;stroke:none" />
         <path
   d="m 11566,14915 h 4 3 l 4,-1 3,-2 3,-1 3,-2 3,-2 2,-2 2,-3 2,-3 2,-3 2,-3 1,-3 1,-4 v -4 l 1,-3 -1,-4 v -3 l -1,-4 -1,-3 -2,-3 -2,-3 -2,-3 -2,-2 -2,-3 -3,-1 -3,-2 -3,-2 -3,-1 -4,-1 h -3 -4 -4 -3 l -4,1 -3,1 -3,2 -3,2 -3,1 -2,3 -3,2 -2,3 -2,3 -1,3 -1,3 -1,4 -1,3 v 4 3 l 1,4 1,4 1,3 1,3 2,3 2,3 3,3 2,2 3,2 3,2 3,1 3,2 4,1 h 3 z"
   id="path432"
   inkscape:connector-curvature="0"
   style="fill:#fee88b;stroke:none" />
         <path
   d="m 11337,15065 h 3 l 4,-1 3,-1 4,-1 3,-1 3,-2 2,-2 3,-2 2,-3 2,-3 2,-3 1,-3 1,-3 2,-3 v -4 -3 -4 -4 l -2,-3 -1,-4 -1,-3 -2,-2 -2,-3 -2,-3 -3,-2 -2,-2 -3,-2 -3,-2 -4,-1 -3,-1 h -4 -3 -4 -4 l -3,1 -3,1 -3,2 -3,2 -3,2 -3,2 -2,3 -2,3 -2,2 -1,3 -2,4 -1,3 v 4 4 3 4 l 1,3 2,3 1,3 2,3 2,3 2,3 3,2 3,2 3,2 3,1 3,1 3,1 4,1 z"
   id="path434"
   inkscape:connector-curvature="0"
   style="fill:#fee88b;stroke:none" />
         <path
   d="m 11107,15397 h 4 l 4,-1 3,-1 3,-1 3,-1 3,-2 3,-2 2,-2 3,-3 2,-2 2,-3 1,-3 1,-4 2,-3 v -4 -3 -4 -4 l -2,-3 -1,-3 -1,-3 -2,-3 -2,-3 -3,-3 -2,-2 -3,-2 -3,-2 -3,-1 -3,-2 -3,-1 h -4 -4 -3 -4 l -3,1 -3,2 -4,1 -2,2 -3,2 -3,2 -2,3 -2,3 -2,3 -1,3 -2,3 -1,3 v 4 4 3 4 l 1,3 2,4 1,3 2,3 2,2 2,3 3,2 3,2 2,2 4,1 3,1 3,1 4,1 z"
   id="path436"
   inkscape:connector-curvature="0"
   style="fill:#fee88b;stroke:none" />
         <path
   d="m 11107,15137 4,-1 h 4 l 3,-1 3,-1 3,-2 3,-2 3,-2 2,-2 3,-3 2,-2 2,-3 1,-3 1,-4 2,-3 v -4 -3 -4 -3 l -2,-4 -1,-3 -1,-4 -2,-3 -2,-2 -3,-3 -2,-2 -3,-2 -3,-2 -3,-2 -3,-1 -3,-1 h -4 -4 -3 -4 l -3,1 -3,1 -4,2 -2,2 -3,2 -3,2 -2,3 -2,2 -2,3 -1,4 -2,3 -1,4 v 3 4 3 4 l 1,3 2,4 1,3 2,3 2,2 2,3 3,2 3,2 2,2 4,2 3,1 3,1 h 4 z"
   id="path438"
   inkscape:connector-curvature="0"
   style="fill:#fee88b;stroke:none" />
         <path
   d="m 11036,15666 h 4 l 4,-1 3,-1 3,-1 3,-1 3,-2 3,-2 3,-3 2,-2 2,-3 2,-3 1,-3 1,-3 2,-4 v -3 -4 -3 -4 l -2,-3 -1,-4 -1,-3 -2,-3 -2,-2 -2,-3 -3,-2 -3,-2 -3,-2 -3,-2 -3,-1 -3,-1 h -4 -4 -3 -4 l -3,1 -4,1 -3,2 -3,2 -3,2 -2,2 -3,3 -1,2 -2,3 -2,3 -1,4 -1,3 v 4 3 4 3 l 1,4 1,3 2,3 2,3 1,3 3,2 2,3 3,2 3,2 3,1 4,1 3,1 4,1 z"
   id="path440"
   inkscape:connector-curvature="0"
   style="fill:#fee88b;stroke:none" />
         <path
   d="m 11503,15777 3,-1 h 4 l 4,-1 3,-1 3,-2 3,-2 2,-1 3,-3 2,-2 2,-3 2,-3 2,-3 1,-3 1,-4 v -3 l 1,-4 -1,-3 v -4 l -1,-4 -1,-3 -2,-3 -2,-3 -2,-3 -2,-2 -3,-3 -2,-2 -3,-1 -3,-2 -3,-1 -4,-1 -4,-1 h -3 -4 l -3,1 -4,1 -3,1 -3,2 -3,1 -3,2 -2,3 -3,2 -2,3 -2,3 -1,3 -1,3 -1,4 -1,4 v 3 4 l 1,3 1,4 1,3 1,3 2,3 2,3 3,2 2,3 3,1 3,2 3,2 3,1 4,1 h 3 z"
   id="path442"
   inkscape:connector-curvature="0"
   style="fill:#fee88b;stroke:none" />
         <path
   d="m 11448,16307 3,-1 h 4 l 3,-1 3,-1 4,-2 2,-2 3,-2 3,-2 2,-3 2,-2 2,-3 1,-4 1,-3 2,-3 v -4 -3 -4 -4 l -2,-3 -1,-3 -1,-4 -2,-2 -2,-3 -2,-2 -3,-3 -3,-2 -2,-2 -4,-1 -3,-1 -3,-2 h -4 -3 -4 -4 l -3,2 -3,1 -3,1 -3,2 -3,2 -3,3 -2,2 -2,3 -2,2 -2,4 -1,3 -1,3 v 4 4 3 4 l 1,3 1,3 2,4 2,3 2,2 2,3 3,2 3,2 3,2 3,2 3,1 3,1 h 4 z"
   id="path444"
   inkscape:connector-curvature="0"
   style="fill:#fee88b;stroke:none" />
         <path
   d="m 11645,16061 h 4 4 l 3,-1 3,-2 3,-1 3,-2 3,-2 2,-2 3,-3 2,-3 1,-3 2,-3 1,-3 1,-3 1,-4 v -3 -4 l -1,-4 -1,-3 -1,-3 -2,-4 -1,-2 -2,-3 -3,-2 -2,-3 -3,-2 -3,-2 -3,-1 -3,-1 -3,-2 h -4 -4 -3 -4 l -3,2 -4,1 -3,1 -3,2 -3,2 -2,3 -3,2 -2,3 -2,2 -1,4 -1,3 -1,3 -1,4 v 4 3 l 1,4 1,3 1,3 1,3 2,3 2,3 3,3 2,2 3,2 3,2 3,1 4,2 3,1 h 4 z"
   id="path446"
   inkscape:connector-curvature="0"
   style="fill:#fee88b;stroke:none" />
         <path
   d="m 11977,15935 h 4 l 3,-1 4,-1 3,-1 3,-1 3,-2 3,-2 2,-3 3,-2 2,-3 2,-3 1,-3 1,-3 1,-4 1,-3 v -4 -3 l -1,-4 -1,-4 -1,-3 -1,-3 -2,-3 -2,-3 -3,-2 -2,-3 -3,-2 -3,-1 -3,-2 -3,-1 -4,-1 -3,-1 h -4 -4 l -3,1 -4,1 -3,1 -3,2 -3,1 -3,2 -2,3 -2,2 -2,3 -2,3 -2,3 -1,3 -1,4 v 4 3 4 3 l 1,4 1,3 2,3 2,3 2,3 2,2 2,3 3,2 3,2 3,1 3,1 4,1 3,1 z"
   id="path448"
   inkscape:connector-curvature="0"
   style="fill:#fee88b;stroke:none" />
         <path
   d="m 12056,16149 4,-1 h 3 l 4,-1 3,-1 3,-2 3,-2 3,-1 2,-3 3,-2 2,-3 2,-3 1,-3 1,-3 1,-4 1,-3 v -4 -3 l -1,-4 -1,-3 -1,-4 -1,-3 -2,-3 -2,-3 -3,-2 -2,-3 -3,-2 -3,-2 -3,-1 -3,-1 -4,-2 h -3 -4 -3 -4 l -3,2 -3,1 -4,1 -3,2 -2,2 -3,3 -2,2 -3,3 -1,3 -2,3 -1,4 -1,3 -1,4 v 3 4 l 1,3 1,4 1,3 2,3 1,3 3,3 2,2 3,3 2,1 3,2 4,2 3,1 3,1 h 4 z"
   id="path450"
   inkscape:connector-curvature="0"
   style="fill:#fee88b;stroke:none" />
         <path
   d="m 11107,16417 h 4 4 l 3,-1 3,-2 3,-1 3,-2 3,-2 2,-2 3,-3 2,-3 2,-3 1,-3 1,-3 2,-3 v -4 -3 -4 -4 l -2,-3 -1,-4 -1,-3 -2,-3 -2,-3 -3,-2 -2,-2 -3,-2 -3,-2 -3,-2 -3,-1 -3,-1 h -4 -4 -3 -4 l -3,1 -3,1 -4,2 -2,2 -3,2 -3,2 -2,2 -2,3 -2,3 -1,3 -2,4 -1,3 v 4 4 3 4 l 1,3 2,3 1,3 2,3 2,3 2,3 3,2 3,2 2,2 4,1 3,2 3,1 h 4 z"
   id="path452"
   inkscape:connector-curvature="0"
   style="fill:#fee88b;stroke:none" />
         <path
   d="m 11716,15350 h 4 l 3,-1 4,-1 3,-1 3,-1 3,-2 3,-2 2,-3 3,-2 2,-3 1,-3 2,-3 1,-3 1,-4 1,-3 v -4 -3 l -1,-4 -1,-4 -1,-3 -2,-3 -1,-3 -2,-3 -3,-2 -2,-3 -3,-2 -3,-1 -3,-2 -3,-1 -4,-1 -3,-1 h -4 -3 l -4,1 -3,1 -4,1 -3,2 -3,1 -3,2 -2,3 -3,2 -1,3 -2,3 -2,3 -1,3 -1,4 v 4 3 4 3 l 1,4 1,3 2,3 2,3 1,3 3,2 2,3 3,2 3,2 3,1 4,1 3,1 4,1 z"
   id="path454"
   inkscape:connector-curvature="0"
   style="fill:#fee88b;stroke:none" />
         <path
   d="m 11772,15089 h 3 l 4,-1 3,-1 4,-1 2,-1 3,-2 3,-2 3,-2 2,-3 2,-3 2,-3 1,-3 1,-3 1,-3 1,-4 v -3 -4 l -1,-4 -1,-3 -1,-4 -1,-3 -2,-3 -2,-3 -2,-2 -3,-2 -3,-2 -3,-2 -2,-2 -4,-1 -3,-1 h -4 -3 -4 -4 l -3,1 -4,1 -2,2 -3,2 -3,2 -3,2 -2,2 -2,3 -2,3 -2,3 -1,4 -1,3 v 4 4 3 4 l 1,3 1,3 2,3 2,3 2,3 2,3 3,2 3,2 3,2 2,1 4,1 3,1 4,1 z"
   id="path456"
   inkscape:connector-curvature="0"
   style="fill:#fee88b;stroke:none" />
         <path
   d="m 11977,14939 h 4 l 3,-1 4,-1 3,-1 3,-2 3,-1 3,-2 2,-3 3,-2 2,-3 2,-3 1,-3 1,-3 1,-3 1,-4 v -4 -3 l -1,-4 -1,-4 -1,-3 -1,-3 -2,-3 -2,-3 -3,-2 -2,-3 -3,-2 -3,-2 -3,-1 -3,-1 -4,-1 -3,-1 h -4 -4 l -3,1 -4,1 -3,1 -3,1 -3,2 -3,2 -2,3 -2,2 -2,3 -2,3 -2,3 -1,3 -1,4 v 4 3 4 4 l 1,3 1,3 2,3 2,3 2,3 2,2 2,3 3,2 3,1 3,2 3,1 4,1 3,1 z"
   id="path458"
   inkscape:connector-curvature="0"
   style="fill:#fee88b;stroke:none" />
         <path
   d="m 12088,15216 3,-1 h 4 l 4,-1 3,-1 3,-2 3,-2 3,-2 2,-2 2,-2 2,-3 2,-3 2,-3 1,-4 1,-3 v -4 l 1,-3 -1,-4 v -4 l -1,-3 -1,-3 -2,-3 -2,-3 -2,-3 -2,-3 -2,-2 -3,-2 -3,-2 -3,-1 -3,-2 -4,-1 h -4 -3 -4 -3 l -4,1 -3,2 -3,1 -3,2 -3,2 -2,2 -3,3 -2,3 -2,3 -1,3 -1,3 -1,3 -1,4 v 4 3 l 1,4 1,3 1,4 1,3 2,3 2,3 3,2 2,2 3,2 3,2 3,2 3,1 4,1 h 3 z"
   id="path460"
   inkscape:connector-curvature="0"
   style="fill:#fee88b;stroke:none" />
         <path
   d="m 10522,15350 h 4 l 4,-1 3,-1 3,-1 3,-1 3,-2 3,-2 2,-3 3,-2 2,-3 2,-3 1,-3 1,-3 2,-4 v -3 -4 -3 -4 l -2,-4 -1,-3 -1,-3 -2,-3 -2,-3 -3,-2 -2,-3 -3,-2 -3,-1 -3,-2 -3,-1 -3,-1 -4,-1 h -4 -3 l -4,1 -3,1 -4,1 -3,2 -3,1 -2,2 -3,3 -2,2 -2,3 -2,3 -1,3 -2,3 -1,4 v 4 3 4 3 l 1,4 2,3 1,3 2,3 2,3 2,2 3,3 2,2 3,2 3,1 4,1 3,1 4,1 z"
   id="path462"
   inkscape:connector-curvature="0"
   style="fill:#fee88b;stroke:none" />
         <path
   d="m 10716,15615 h 3 l 4,-1 3,-1 4,-1 3,-1 3,-2 3,-2 2,-3 3,-2 1,-3 2,-3 2,-3 1,-3 1,-4 v -3 l 1,-4 -1,-4 v -3 l -1,-4 -1,-3 -2,-3 -2,-3 -1,-3 -3,-2 -2,-2 -3,-2 -3,-2 -3,-2 -4,-1 -3,-1 h -4 -3 -4 -4 l -3,1 -3,1 -3,2 -3,2 -3,2 -2,2 -3,2 -2,3 -1,3 -2,3 -1,3 -1,4 -1,3 v 4 4 l 1,3 1,4 1,3 2,3 1,3 2,3 3,2 2,3 3,2 3,2 3,1 3,1 3,1 4,1 z"
   id="path464"
   inkscape:connector-curvature="0"
   style="fill:#fee88b;stroke:none" />
         <path
   d="m 10609,15975 4,-1 h 4 l 3,-1 3,-1 3,-2 3,-2 3,-1 2,-3 3,-2 2,-3 2,-3 1,-3 1,-4 2,-3 v -4 -3 -4 -4 l -2,-3 -1,-3 -1,-3 -2,-3 -2,-3 -3,-3 -2,-2 -3,-2 -3,-2 -3,-1 -3,-1 -3,-2 h -4 -4 -3 -4 l -3,2 -4,1 -3,1 -3,2 -3,2 -2,2 -3,3 -1,3 -2,3 -2,3 -1,3 -1,3 v 4 4 3 4 l 1,3 1,4 2,3 2,3 1,3 3,2 2,3 3,1 3,2 3,2 4,1 3,1 h 4 z"
   id="path466"
   inkscape:connector-curvature="0"
   style="fill:#fee88b;stroke:none" />
         <path
   d="m 10333,15983 h 3 l 4,-1 3,-1 3,-1 3,-2 3,-1 3,-2 3,-3 2,-2 2,-3 2,-3 2,-3 1,-3 1,-4 v -4 -3 -4 -3 l -1,-4 -1,-3 -2,-3 -2,-3 -2,-3 -2,-2 -3,-3 -3,-1 -3,-2 -3,-2 -3,-1 -3,-1 h -4 -3 -4 -4 l -3,1 -4,1 -3,2 -3,2 -2,1 -3,3 -2,2 -2,3 -2,3 -1,3 -1,3 -1,4 -1,3 v 4 3 l 1,4 1,4 1,3 1,3 2,3 2,3 2,2 3,3 2,2 3,1 3,2 4,1 3,1 4,1 z"
   id="path468"
   inkscape:connector-curvature="0"
   style="fill:#fee88b;stroke:none" />
         <path
   d="m 9020,14275 h 4 l 3,-1 4,-1 3,-1 3,-1 3,-2 3,-2 2,-3 3,-2 2,-3 2,-3 1,-3 1,-3 1,-4 1,-3 v -4 -3 l -1,-4 -1,-4 -1,-3 -1,-3 -2,-3 -2,-3 -3,-2 -2,-2 -3,-2 -3,-2 -3,-2 -3,-1 -4,-1 h -3 -4 -4 -3 l -4,1 -3,1 -3,2 -3,2 -3,2 -2,2 -2,2 -2,3 -2,3 -2,3 -1,3 -1,4 v 4 3 4 3 l 1,4 1,3 2,3 2,3 2,3 2,2 2,3 3,2 3,2 3,1 3,1 4,1 3,1 z"
   id="path470"
   inkscape:connector-curvature="0"
   style="fill:#fee88b;stroke:none" />
         <path
   d="m 8965,14694 3,-1 h 4 l 3,-1 4,-1 3,-2 3,-1 3,-2 2,-3 3,-2 1,-3 2,-3 2,-3 1,-3 1,-4 v -3 l 1,-4 -1,-3 v -4 l -1,-3 -1,-4 -2,-3 -2,-3 -1,-3 -3,-2 -2,-3 -3,-2 -3,-1 -3,-2 -4,-1 -3,-1 h -4 -3 -4 -4 l -3,1 -3,1 -3,2 -3,1 -3,2 -2,3 -3,2 -2,3 -2,3 -1,3 -1,4 -2,3 v 4 3 4 3 l 2,4 1,3 1,3 2,3 2,3 3,2 2,3 3,2 3,1 3,2 3,1 3,1 h 4 z"
   id="path472"
   inkscape:connector-curvature="0"
   style="fill:#fee88b;stroke:none" />
        </g>
       </g>
      </g>
     </g>
    </g>
   </g>
  </g>
 </g>
</svg>