<?xml version="1.0" encoding="UTF-8" standalone="no"?>
<svg
   xmlns:ooo="http://xml.openoffice.org/svg/export"
   xmlns:dc="http://purl.org/dc/elements/1.1/"
   xmlns:cc="http://creativecommons.org/ns#"
   xmlns:rdf="http://www.w3.org/1999/02/22-rdf-syntax-ns#"
   xmlns:svg="http://www.w3.org/2000/svg"
   xmlns="http://www.w3.org/2000/svg"
   xmlns:sodipodi="http://sodipodi.sourceforge.net/DTD/sodipodi-0.dtd"
   xmlns:inkscape="http://www.inkscape.org/namespaces/inkscape"
   version="1.2"
   width="137.91mm"
   height="81.279999mm"
   viewBox="0 0 13791 8127.9999"
   preserveAspectRatio="xMidYMid"
   xml:space="preserve"
   id="svg109"
   sodipodi:docname="amcommun.svg"
   style="fill-rule:evenodd;stroke-width:28.22200012;stroke-linejoin:round"
   inkscape:version="0.92.5 (2060ec1f9f, 2020-04-08)"><metadata
   id="metadata113"><rdf:RDF><cc:Work
       rdf:about=""><dc:format>image/svg+xml</dc:format><dc:type
         rdf:resource="http://purl.org/dc/dcmitype/StillImage" /></cc:Work></rdf:RDF></metadata><sodipodi:namedview
   pagecolor="#ffffff"
   bordercolor="#666666"
   borderopacity="1"
   objecttolerance="10"
   gridtolerance="10"
   guidetolerance="10"
   inkscape:pageopacity="0"
   inkscape:pageshadow="2"
   inkscape:window-width="664"
   inkscape:window-height="487"
   id="namedview111"
   showgrid="false"
   inkscape:zoom="0.2102413"
   inkscape:cx="260.63622"
   inkscape:cy="153.6"
   inkscape:window-x="0"
   inkscape:window-y="0"
   inkscape:window-maximized="0"
   inkscape:current-layer="svg109" />
 <defs
   class="ClipPathGroup"
   id="defs8">
  <clipPath
   id="presentation_clip_path"
   clipPathUnits="userSpaceOnUse">
   <rect
   x="0"
   y="0"
   width="21000"
   height="29700"
   id="rect2" />
  </clipPath>
  <clipPath
   id="presentation_clip_path_shrink"
   clipPathUnits="userSpaceOnUse">
   <rect
   x="21"
   y="29"
   width="20958"
   height="29641"
   id="rect5" />
  </clipPath>
 </defs>
 <defs
   class="TextShapeIndex"
   id="defs12">
  <g
   ooo:slide="id1"
   ooo:id-list="id3"
   id="g10" />
 </defs>
 <defs
   class="EmbeddedBulletChars"
   id="defs44">
  <g
   id="bullet-char-template-57356"
   transform="matrix(4.8828125e-4,0,0,-4.8828125e-4,0,0)">
   <path
   d="M 580,1141 1163,571 580,0 -4,571 Z"
   id="path14"
   inkscape:connector-curvature="0" />
  </g>
  <g
   id="bullet-char-template-57354"
   transform="matrix(4.8828125e-4,0,0,-4.8828125e-4,0,0)">
   <path
   d="M 8,1128 H 1137 V 0 H 8 Z"
   id="path17"
   inkscape:connector-curvature="0" />
  </g>
  <g
   id="bullet-char-template-10146"
   transform="matrix(4.8828125e-4,0,0,-4.8828125e-4,0,0)">
   <path
   d="M 174,0 602,739 174,1481 1456,739 Z M 1358,739 309,1346 659,739 Z"
   id="path20"
   inkscape:connector-curvature="0" />
  </g>
  <g
   id="bullet-char-template-10132"
   transform="matrix(4.8828125e-4,0,0,-4.8828125e-4,0,0)">
   <path
   d="M 2015,739 1276,0 H 717 l 543,543 H 174 v 393 h 1086 l -543,545 h 557 z"
   id="path23"
   inkscape:connector-curvature="0" />
  </g>
  <g
   id="bullet-char-template-10007"
   transform="matrix(4.8828125e-4,0,0,-4.8828125e-4,0,0)">
   <path
   d="m 0,-2 c -7,16 -16,29 -25,39 l 381,530 c -94,256 -141,385 -141,387 0,25 13,38 40,38 9,0 21,-2 34,-5 21,4 42,12 65,25 l 27,-13 111,-251 280,301 64,-25 24,25 c 21,-10 41,-24 62,-43 C 886,937 835,863 770,784 769,783 710,716 594,584 L 774,223 c 0,-27 -21,-55 -63,-84 l 16,-20 C 717,90 699,76 672,76 641,76 570,178 457,381 L 164,-76 c -22,-34 -53,-51 -92,-51 -42,0 -63,17 -64,51 -7,9 -10,24 -10,44 0,9 1,19 2,30 z"
   id="path26"
   inkscape:connector-curvature="0" />
  </g>
  <g
   id="bullet-char-template-10004"
   transform="matrix(4.8828125e-4,0,0,-4.8828125e-4,0,0)">
   <path
   d="M 285,-33 C 182,-33 111,30 74,156 52,228 41,333 41,471 c 0,78 14,145 41,201 34,71 87,106 158,106 53,0 88,-31 106,-94 l 23,-176 c 8,-64 28,-97 59,-98 l 735,706 c 11,11 33,17 66,17 42,0 63,-15 63,-46 V 965 c 0,-36 -10,-64 -30,-84 L 442,47 C 390,-6 338,-33 285,-33 Z"
   id="path29"
   inkscape:connector-curvature="0" />
  </g>
  <g
   id="bullet-char-template-9679"
   transform="matrix(4.8828125e-4,0,0,-4.8828125e-4,0,0)">
   <path
   d="M 813,0 C 632,0 489,54 383,161 276,268 223,411 223,592 c 0,181 53,324 160,431 106,107 249,161 430,161 179,0 323,-54 432,-161 108,-107 162,-251 162,-431 0,-180 -54,-324 -162,-431 C 1136,54 992,0 813,0 Z"
   id="path32"
   inkscape:connector-curvature="0" />
  </g>
  <g
   id="bullet-char-template-8226"
   transform="matrix(4.8828125e-4,0,0,-4.8828125e-4,0,0)">
   <path
   d="m 346,457 c -73,0 -137,26 -191,78 -54,51 -81,114 -81,188 0,73 27,136 81,188 54,52 118,78 191,78 73,0 134,-26 185,-79 51,-51 77,-114 77,-187 0,-75 -25,-137 -76,-188 -50,-52 -112,-78 -186,-78 z"
   id="path35"
   inkscape:connector-curvature="0" />
  </g>
  <g
   id="bullet-char-template-8211"
   transform="matrix(4.8828125e-4,0,0,-4.8828125e-4,0,0)">
   <path
   d="M -4,459 H 1135 V 606 H -4 Z"
   id="path38"
   inkscape:connector-curvature="0" />
  </g>
  <g
   id="bullet-char-template-61548"
   transform="matrix(4.8828125e-4,0,0,-4.8828125e-4,0,0)">
   <path
   d="m 173,740 c 0,163 58,303 173,419 116,115 255,173 419,173 163,0 302,-58 418,-173 116,-116 174,-256 174,-419 0,-163 -58,-303 -174,-418 C 1067,206 928,148 765,148 601,148 462,206 346,322 231,437 173,577 173,740 Z"
   id="path41"
   inkscape:connector-curvature="0" />
  </g>
 </defs>
 <g
   id="g49"
   transform="translate(-3604,-10786)">
  <g
   id="id2"
   class="Master_Slide">
   <g
   id="bg-id2"
   class="Background" />
   <g
   id="bo-id2"
   class="BackgroundObjects" />
  </g>
 </g>
 <g
   class="SlideGroup"
   id="g107"
   transform="translate(-3604,-10786)">
  <g
   id="g105">
   <g
   id="container-id1">
    <g
   id="id1"
   class="Slide"
   clip-path="url(#presentation_clip_path)">
     <g
   class="Page"
   id="g101">
      <g
   class="Graphic"
   id="g99">
       <g
   id="id3">
        <rect
   class="BoundingBox"
   x="3604"
   y="10786"
   width="13791"
   height="8128"
   id="rect51"
   style="fill:none;stroke:none" />
        <defs
   id="defs56">
         <clipPath
   id="clip_path_1"
   clipPathUnits="userSpaceOnUse">
          <path
   d="m 3604,10786 h 13790 v 8127 H 3604 Z"
   id="path53"
   inkscape:connector-curvature="0" />
         </clipPath>
        </defs>
        <g
   clip-path="url(#clip_path_1)"
   id="g96">
         <path
   d="m 4766,12841 243,-230 292,-84 207,14 36,199 -13,251 -230,301 -142,451 -13,451 106,420 142,380 251,322 v 106 l -35,230 -185,106 -208,9 -349,-79 -265,-266 -142,-464 -101,-300 -49,-394 35,-521 115,-438 142,-291 z"
   id="path58"
   inkscape:connector-curvature="0"
   style="fill:#000000;stroke:none" />
         <path
   d="m 5239,12669 71,-159 h 137 l 172,172 115,416 93,486 70,508 221,385 v 8 71 l 301,-44 309,-199 141,-186 244,-508 v -186 l -93,-172 -106,-243 -36,-93 128,-48 151,13 92,93 107,207 -58,385 -49,208 -229,428 -208,310 -384,141 -310,71 -243,-119 -115,-403 -128,-499 -106,-371 -137,-208 -141,-208 z"
   id="path60"
   inkscape:connector-curvature="0"
   style="fill:#000000;stroke:none" />
         <path
   d="m 5729,13195 v -208 l 84,-172 137,-142 208,-101 141,-58 230,22 1087,1052 36,208 -36,177 -137,230 -243,172 -256,71 h -172 l -1079,-1145 -22,-208 v 31 z"
   id="path62"
   inkscape:connector-curvature="0"
   style="fill:#b2b2b2;stroke:none" />
         <path
   d="m 5729,13195 v -208 l 84,-172 137,-142 208,-101 141,-58 230,22 1087,1052 36,208 -36,177 -137,230 -243,172 -256,71 h -172 l -1079,-1145 -22,-208 v 31"
   id="path64"
   inkscape:connector-curvature="0"
   style="fill:none;stroke:#000000;stroke-width:35;stroke-linecap:round;stroke-linejoin:round" />
         <path
   d="m 5734,13226 212,35 172,-62 115,-66 142,-106 92,-115 45,-195 v -119 l -9,-31"
   id="path66"
   inkscape:connector-curvature="0"
   style="fill:none;stroke:#000000;stroke-width:35;stroke-linecap:round;stroke-linejoin:round" />
         <path
   d="m 4678,12563 265,-93 141,102 v 243 l -234,265 -393,141 -309,252 -199,301 -106,243 v 208 l 128,221 313,101 257,27 380,-27 486,-137 309,-287 199,-234 -57,-217 22,-141 207,84 h 221 l 164,-142 101,-101 71,22 9,70 -66,208 v 186 l -84,137 -195,101 h -172 l -186,27 -371,309 -278,173 -429,119 -451,22 -335,-71 -252,-92 -173,-186 -61,-208 v -309 l 106,-208 128,-208 172,-234 256,-181 159,-199 120,-172 z"
   id="path68"
   inkscape:connector-curvature="0"
   style="fill:#000000;stroke:none" />
         <path
   d="m 5367,15325 243,142 243,402 164,278 115,327 128,310 101,371 v 256 l -159,208 -106,208 -185,163 -71,151 84,92 128,9 287,36 199,92 102,80 -67,106 -176,22 -230,-93 -142,-79 -287,-71 -70,-22 -36,-106 49,-150 230,-266 114,-172 142,-323 35,-163 -141,-416 -252,-428 -247,-279 -124,-208 -142,-128 -35,-185 z"
   id="path70"
   inkscape:connector-curvature="0"
   style="fill:#000000;stroke:none" />
         <path
   d="m 4519,15599 252,-252 278,-35 22,221 -163,159 -239,119 -186,208 -35,278 35,403 102,707 115,437 128,314 -22,150 -137,23 -243,-67 h -278 l -151,80 -137,-36 -35,-172 137,-35 h 278 l 416,93 13,-36 -35,-137 -151,-521 -70,-416 -102,-512 v -358 l 9,-279 57,-194 z"
   id="path72"
   inkscape:connector-curvature="0"
   style="fill:#000000;stroke:none" />
         <path
   d="m 5053,12249 v -362 l 71,-403 172,-322 221,-199 243,-150 208,-23 230,58 106,137 66,177 -22,181 -35,212 -115,172 322,403 -44,106 -371,-314 -208,243 -221,172 -229,84 h -186 l -137,-70 z"
   id="path74"
   inkscape:connector-curvature="0"
   style="fill:#000000;stroke:none" />
         <path
   d="m 16237,12943 -243,-243 -291,-84 -208,13 -35,203 13,266 230,313 141,473 9,469 -102,433 -141,398 -252,340 v 106 l 35,243 186,106 208,14 344,-84 265,-279 142,-482 101,-313 49,-412 -35,-539 -115,-459 -142,-301 z"
   id="path76"
   inkscape:connector-curvature="0"
   style="fill:#000000;stroke:none" />
         <path
   d="m 15764,12748 -70,-168 h -137 l -177,182 -115,437 -93,508 -66,531 -221,402 v 9 75 l -300,-49 -314,-207 -137,-190 -243,-535 v -195 l 93,-181 101,-252 36,-97 -128,-49 -151,9 -92,97 -102,221 57,398 45,217 234,451 207,327 380,146 314,70 243,-119 115,-424 128,-522 102,-389 141,-216 137,-217 z"
   id="path78"
   inkscape:connector-curvature="0"
   style="fill:#000000;stroke:none" />
         <path
   d="m 15256,13301 v -217 l -79,-181 -137,-146 -208,-110 -141,-62 -230,26 -1087,1101 -31,221 31,181 141,243 243,181 252,71 h 173 l 1073,-1198 27,-221 v 40 z"
   id="path80"
   inkscape:connector-curvature="0"
   style="fill:#b2b2b2;stroke:none" />
         <path
   d="m 15256,13301 v -217 l -79,-181 -137,-146 -208,-110 -141,-62 -230,26 -1087,1101 -31,221 31,181 141,243 243,181 252,71 h 173 l 1073,-1198 27,-221 v 40"
   id="path82"
   inkscape:connector-curvature="0"
   style="fill:none;stroke:#000000;stroke-width:35;stroke-linecap:round;stroke-linejoin:round" />
         <path
   d="m 15265,13332 -208,35 -172,-62 -119,-70 -137,-107 -93,-119 -44,-203 v -119 l 9,-36"
   id="path84"
   inkscape:connector-curvature="0"
   style="fill:none;stroke:#000000;stroke-width:35;stroke-linecap:round;stroke-linejoin:round" />
         <path
   d="m 16312,12633 -265,-97 -141,111 v 256 l 234,279 393,145 310,266 198,313 107,257 v 216 l -129,230 -313,111 -257,22 -380,-22 -486,-146 -309,-305 -199,-239 58,-234 -23,-142 -207,84 h -221 l -164,-145 -101,-111 -71,27 -9,70 66,217 v 194 l 84,146 195,111 h 172 l 186,22 371,327 278,181 429,124 451,22 336,-71 251,-97 173,-194 62,-217 v -327 l -106,-221 -129,-217 -172,-243 -256,-194 -159,-204 -120,-181 z"
   id="path86"
   inkscape:connector-curvature="0"
   style="fill:#000000;stroke:none" />
         <path
   d="m 15632,15524 -243,146 -239,420 -163,291 -115,336 -128,327 -102,385 v 265 l 159,217 106,216 181,173 71,154 -79,98 -129,13 -287,35 -199,97 -101,84 66,106 177,27 230,-97 137,-84 291,-71 66,-26 36,-107 -44,-159 -235,-278 -114,-181 -137,-336 -36,-168 137,-438 256,-446 243,-287 129,-217 137,-133 35,-194 z"
   id="path88"
   inkscape:connector-curvature="0"
   style="fill:#000000;stroke:none" />
         <path
   d="m 16471,15807 -251,-265 -279,-40 -22,230 159,172 243,119 186,217 35,287 -35,425 -102,733 -119,460 -124,327 22,155 137,26 243,-75 h 279 l 150,88 141,-39 36,-181 -142,-36 h -278 l -416,97 -13,-35 36,-146 150,-543 71,-434 101,-530 v -376 l -9,-287 -57,-208 z"
   id="path90"
   inkscape:connector-curvature="0"
   style="fill:#000000;stroke:none" />
         <path
   d="m 15950,12311 v -376 l -71,-420 -172,-340 -221,-203 -243,-159 -208,-23 -234,62 -101,142 -71,181 22,194 35,217 115,181 -322,424 44,107 371,-327 208,256 221,181 234,84 h 185 l 137,-75 z"
   id="path92"
   inkscape:connector-curvature="0"
   style="fill:#000000;stroke:none" />
         <path
   d="m 7331,14134 60,106 63,105 64,102 66,100 68,98 70,95 72,93 74,91 75,88 76,86 79,83 80,81 81,78 83,75 85,72 85,70 87,67 88,64 90,60 90,58 92,55 92,52 94,49 94,45 95,43 96,39 97,36 97,33 98,29 99,27 99,23 99,20 100,16 100,13 100,10 100,6 101,4 100,-1 101,-3 100,-7 100,-10 100,-13 100,-17 99,-20 99,-24 98,-26 98,-30 97,-33 97,-37 96,-39 95,-43 94,-46 94,-49 92,-52 92,-55 90,-58 89,-62 88,-64 87,-67 86,-69 84,-73 83,-76 81,-78 80,-80 78,-84 77,-86 75,-88 73,-91 72,-94 69,-96 68,-98 66,-100 64,-102"
   id="path94"
   inkscape:connector-curvature="0"
   style="fill:none;stroke:#000000;stroke-width:35;stroke-linecap:round;stroke-linejoin:round" />
        </g>
       </g>
      </g>
     </g>
    </g>
   </g>
  </g>
 </g>
</svg>