<?xml version="1.0" encoding="UTF-8" standalone="no"?>
<svg
   xmlns:ooo="http://xml.openoffice.org/svg/export"
   xmlns:dc="http://purl.org/dc/elements/1.1/"
   xmlns:cc="http://creativecommons.org/ns#"
   xmlns:rdf="http://www.w3.org/1999/02/22-rdf-syntax-ns#"
   xmlns:svg="http://www.w3.org/2000/svg"
   xmlns="http://www.w3.org/2000/svg"
   xmlns:sodipodi="http://sodipodi.sourceforge.net/DTD/sodipodi-0.dtd"
   xmlns:inkscape="http://www.inkscape.org/namespaces/inkscape"
   version="1.2"
   width="110.11mm"
   height="74.919998mm"
   viewBox="0 0 11011 7491.9998"
   preserveAspectRatio="xMidYMid"
   xml:space="preserve"
   id="svg175"
   sodipodi:docname="bidders.svg"
   style="fill-rule:evenodd;stroke-width:28.22200012;stroke-linejoin:round"
   inkscape:version="0.92.5 (2060ec1f9f, 2020-04-08)"><metadata
   id="metadata179"><rdf:RDF><cc:Work
       rdf:about=""><dc:format>image/svg+xml</dc:format><dc:type
         rdf:resource="http://purl.org/dc/dcmitype/StillImage" /></cc:Work></rdf:RDF></metadata><sodipodi:namedview
   pagecolor="#ffffff"
   bordercolor="#666666"
   borderopacity="1"
   objecttolerance="10"
   gridtolerance="10"
   guidetolerance="10"
   inkscape:pageopacity="0"
   inkscape:pageshadow="2"
   inkscape:window-width="664"
   inkscape:window-height="487"
   id="namedview177"
   showgrid="false"
   inkscape:zoom="0.2102413"
   inkscape:cx="208.10079"
   inkscape:cy="141.5811"
   inkscape:window-x="0"
   inkscape:window-y="0"
   inkscape:window-maximized="0"
   inkscape:current-layer="svg175" />
 <defs
   class="ClipPathGroup"
   id="defs8">
  <clipPath
   id="presentation_clip_path"
   clipPathUnits="userSpaceOnUse">
   <rect
   x="0"
   y="0"
   width="21000"
   height="29700"
   id="rect2" />
  </clipPath>
  <clipPath
   id="presentation_clip_path_shrink"
   clipPathUnits="userSpaceOnUse">
   <rect
   x="21"
   y="29"
   width="20958"
   height="29641"
   id="rect5" />
  </clipPath>
 </defs>
 <defs
   class="TextShapeIndex"
   id="defs12">
  <g
   ooo:slide="id1"
   ooo:id-list="id3"
   id="g10" />
 </defs>
 <defs
   class="EmbeddedBulletChars"
   id="defs44">
  <g
   id="bullet-char-template-57356"
   transform="matrix(4.8828125e-4,0,0,-4.8828125e-4,0,0)">
   <path
   d="M 580,1141 1163,571 580,0 -4,571 Z"
   id="path14"
   inkscape:connector-curvature="0" />
  </g>
  <g
   id="bullet-char-template-57354"
   transform="matrix(4.8828125e-4,0,0,-4.8828125e-4,0,0)">
   <path
   d="M 8,1128 H 1137 V 0 H 8 Z"
   id="path17"
   inkscape:connector-curvature="0" />
  </g>
  <g
   id="bullet-char-template-10146"
   transform="matrix(4.8828125e-4,0,0,-4.8828125e-4,0,0)">
   <path
   d="M 174,0 602,739 174,1481 1456,739 Z M 1358,739 309,1346 659,739 Z"
   id="path20"
   inkscape:connector-curvature="0" />
  </g>
  <g
   id="bullet-char-template-10132"
   transform="matrix(4.8828125e-4,0,0,-4.8828125e-4,0,0)">
   <path
   d="M 2015,739 1276,0 H 717 l 543,543 H 174 v 393 h 1086 l -543,545 h 557 z"
   id="path23"
   inkscape:connector-curvature="0" />
  </g>
  <g
   id="bullet-char-template-10007"
   transform="matrix(4.8828125e-4,0,0,-4.8828125e-4,0,0)">
   <path
   d="m 0,-2 c -7,16 -16,29 -25,39 l 381,530 c -94,256 -141,385 -141,387 0,25 13,38 40,38 9,0 21,-2 34,-5 21,4 42,12 65,25 l 27,-13 111,-251 280,301 64,-25 24,25 c 21,-10 41,-24 62,-43 C 886,937 835,863 770,784 769,783 710,716 594,584 L 774,223 c 0,-27 -21,-55 -63,-84 l 16,-20 C 717,90 699,76 672,76 641,76 570,178 457,381 L 164,-76 c -22,-34 -53,-51 -92,-51 -42,0 -63,17 -64,51 -7,9 -10,24 -10,44 0,9 1,19 2,30 z"
   id="path26"
   inkscape:connector-curvature="0" />
  </g>
  <g
   id="bullet-char-template-10004"
   transform="matrix(4.8828125e-4,0,0,-4.8828125e-4,0,0)">
   <path
   d="M 285,-33 C 182,-33 111,30 74,156 52,228 41,333 41,471 c 0,78 14,145 41,201 34,71 87,106 158,106 53,0 88,-31 106,-94 l 23,-176 c 8,-64 28,-97 59,-98 l 735,706 c 11,11 33,17 66,17 42,0 63,-15 63,-46 V 965 c 0,-36 -10,-64 -30,-84 L 442,47 C 390,-6 338,-33 285,-33 Z"
   id="path29"
   inkscape:connector-curvature="0" />
  </g>
  <g
   id="bullet-char-template-9679"
   transform="matrix(4.8828125e-4,0,0,-4.8828125e-4,0,0)">
   <path
   d="M 813,0 C 632,0 489,54 383,161 276,268 223,411 223,592 c 0,181 53,324 160,431 106,107 249,161 430,161 179,0 323,-54 432,-161 108,-107 162,-251 162,-431 0,-180 -54,-324 -162,-431 C 1136,54 992,0 813,0 Z"
   id="path32"
   inkscape:connector-curvature="0" />
  </g>
  <g
   id="bullet-char-template-8226"
   transform="matrix(4.8828125e-4,0,0,-4.8828125e-4,0,0)">
   <path
   d="m 346,457 c -73,0 -137,26 -191,78 -54,51 -81,114 -81,188 0,73 27,136 81,188 54,52 118,78 191,78 73,0 134,-26 185,-79 51,-51 77,-114 77,-187 0,-75 -25,-137 -76,-188 -50,-52 -112,-78 -186,-78 z"
   id="path35"
   inkscape:connector-curvature="0" />
  </g>
  <g
   id="bullet-char-template-8211"
   transform="matrix(4.8828125e-4,0,0,-4.8828125e-4,0,0)">
   <path
   d="M -4,459 H 1135 V 606 H -4 Z"
   id="path38"
   inkscape:connector-curvature="0" />
  </g>
  <g
   id="bullet-char-template-61548"
   transform="matrix(4.8828125e-4,0,0,-4.8828125e-4,0,0)">
   <path
   d="m 173,740 c 0,163 58,303 173,419 116,115 255,173 419,173 163,0 302,-58 418,-173 116,-116 174,-256 174,-419 0,-163 -58,-303 -174,-418 C 1067,206 928,148 765,148 601,148 462,206 346,322 231,437 173,577 173,740 Z"
   id="path41"
   inkscape:connector-curvature="0" />
  </g>
 </defs>
 <g
   id="g49"
   transform="translate(-4994,-11104)">
  <g
   id="id2"
   class="Master_Slide">
   <g
   id="bg-id2"
   class="Background" />
   <g
   id="bo-id2"
   class="BackgroundObjects" />
  </g>
 </g>
 <g
   class="SlideGroup"
   id="g173"
   transform="translate(-4994,-11104)">
  <g
   id="g171">
   <g
   id="container-id1">
    <g
   id="id1"
   class="Slide"
   clip-path="url(#presentation_clip_path)">
     <g
   class="Page"
   id="g167">
      <g
   class="Graphic"
   id="g165">
       <g
   id="id3">
        <rect
   class="BoundingBox"
   x="4994"
   y="11104"
   width="11011"
   height="7492"
   id="rect51"
   style="fill:none;stroke:none" />
        <defs
   id="defs56">
         <clipPath
   id="clip_path_1"
   clipPathUnits="userSpaceOnUse">
          <path
   d="m 4994,11104 h 11010 v 7491 H 4994 Z"
   id="path53"
   inkscape:connector-curvature="0" />
         </clipPath>
        </defs>
        <g
   clip-path="url(#clip_path_1)"
   id="g162">
         <path
   d="m 12926,13160 -31,-234 -53,-141 -88,-106 -80,-62 -110,-17 -123,22 -155,75 -97,137 -57,141 -31,159 9,181 22,163 62,150 61,128 80,48 92,31 75,9 106,-31 84,-31 93,-123 79,-159 49,-119 v -97 l 154,22 172,26 31,-13 31,-93 -36,-114 -79,8 -137,31 z"
   id="path58"
   inkscape:connector-curvature="0"
   style="fill:#000000;stroke:none" />
         <path
   d="m 12432,14096 88,13 141,48 128,62 75,75 110,132 66,137 62,119 36,261 -5,189 -44,172 -49,146 -92,137 -106,97 -176,119 -155,35 -115,9 -136,-40 -93,-123 -71,-124 -8,-189 31,-128 61,-97 49,-80 31,-75 17,-62 -9,-123 -22,-93 -52,-88 -18,-115 -13,-137 35,-123 57,-71 84,-61 z"
   id="path60"
   inkscape:connector-curvature="0"
   style="fill:#000000;stroke:none" />
         <path
   d="m 12044,14387 154,-133 128,-22 53,137 v 110 l -84,62 -168,75 -181,84 -136,106 -62,75 18,79 30,62 62,88 106,106 93,106 66,75 4,66 -4,106 -93,49 -128,48 -75,62 -48,93 26,92 -48,71 -80,4 -70,-92 v -97 l 62,-133 127,-97 168,-79 53,-31 -31,-71 -110,-88 -132,-128 -98,-106 -61,-106 v -92 -93 l 84,-93 136,-110 141,-119 z"
   id="path62"
   inkscape:connector-curvature="0"
   style="fill:#000000;stroke:none" />
         <path
   d="m 12970,14201 -247,5 -119,44 39,154 115,62 106,27 168,-31 233,-71 248,-141 185,-128 44,-102 31,-75 9,-158 53,-278 92,-371 106,-194 57,-31 252,-66 26,-31 -13,-62 h -62 l -110,49 -101,17 -5,-61 80,-84 17,-93 -53,-62 -44,40 -31,106 -75,71 -44,-31 -53,-106 -53,-93 -53,31 -26,62 71,92 61,111 18,123 -31,168 -93,243 -88,207 -48,212 -62,150 -93,141 -154,75 -185,49 z"
   id="path64"
   inkscape:connector-curvature="0"
   style="fill:#000000;stroke:none" />
         <path
   d="m 14893,13879 14,-114 -14,-124 -39,-123 -45,-84 -44,-31 -92,-27 -93,-4 -115,48 -75,49 -83,106 -62,97 -44,141 -31,159 -18,124 5,119 48,114 62,62 79,44 102,5 110,-18 79,-35 93,-93 62,-141 53,-106 123,-49 137,-44 93,-44 17,-70 -48,-40 h -88 l -62,88 -115,35 z"
   id="path66"
   inkscape:connector-curvature="0"
   style="fill:#000000;stroke:none" />
         <path
   d="m 14280,14550 h 150 l 132,53 93,101 49,115 39,137 18,181 v 212 l -31,189 -31,155 -62,137 -57,110 -84,101 -75,75 -79,53 -110,31 h -93 l -110,-44 -62,-40 -49,-75 -35,-123 v -124 l 18,-101 44,-111 97,-105 62,-67 13,-88 -9,-123 -22,-111 -31,-106 -9,-150 14,-128 57,-79 84,-62 z"
   id="path68"
   inkscape:connector-curvature="0"
   style="fill:#000000;stroke:none" />
         <path
   d="m 14051,14647 106,-62 h 105 l 62,137 -62,124 -110,30 -141,18 -185,88 -88,106 -80,208 -66,286 -27,274 -4,176 66,93 -31,93 -97,62 -92,13 -128,-155 31,-106 92,-70 53,-137 44,-304 44,-274 80,-221 145,-194 168,-110 z"
   id="path70"
   inkscape:connector-curvature="0"
   style="fill:#000000;stroke:none" />
         <path
   d="m 14505,14700 -93,53 v 106 l 5,75 110,44 115,-31 145,-88 274,-185 344,-309 119,-142 115,-150 53,-83 h 62 l 61,48 84,-13 71,-66 53,-106 -36,-141 -70,-89 -9,-79 62,-124 -22,-88 -80,-31 -44,119 v 124 l -53,141 -70,137 -111,141 -106,141 -141,137 -167,150 -208,159 -181,75 -136,44 z"
   id="path72"
   inkscape:connector-curvature="0"
   style="fill:#000000;stroke:none" />
         <path
   d="m 14412,16363 -17,-229 -58,-154 -101,-71 -110,71 -49,123 80,93 66,203 62,286 17,345 13,256 -26,233 -22,287 -31,159 -13,75 35,62 62,44 110,-13 137,-14 132,45 110,44 128,13 9,-40 -44,-123 -62,-62 h -172 l -145,-4 -111,-9 -61,-71 v -146 l 48,-229 31,-238 18,-274 v -256 l -18,-247 z"
   id="path74"
   inkscape:connector-curvature="0"
   style="fill:#000000;stroke:none" />
         <path
   d="m 13896,16090 36,-216 97,4 136,57 31,137 -31,137 -57,309 -31,340 -17,348 8,358 27,361 31,115 v 75 l 53,62 132,101 75,97 -49,62 -110,40 -97,-27 -35,-44 -27,-123 -66,-111 -66,-79 -31,-75 31,-137 26,-150 v -260 l -13,-283 -31,-238 -22,-234 -8,-229 v -243 z"
   id="path76"
   inkscape:connector-curvature="0"
   style="fill:#000000;stroke:none" />
         <path
   d="m 12511,15635 v -154 l 216,-31 115,97 v 185 l 31,605 -44,384 -18,534 v 247 l 5,185 57,119 v 80 l 101,106 146,123 62,31 v 57 l -53,49 -159,35 -75,-62 -18,-44 -53,-141 -123,-106 -93,-66 -4,-57 17,-111 49,-163 v -185 l -31,-366 -35,-340 -36,-247 -26,-256 -13,-216 z"
   id="path78"
   inkscape:connector-curvature="0"
   style="fill:#000000;stroke:none" />
         <path
   d="m 12123,15746 40,-247 119,4 167,66 40,159 -40,154 -66,353 -40,389 -22,397 9,406 31,415 40,127 v 89 l 70,70 159,115 93,115 -62,66 -132,48 -119,-30 -49,-53 -31,-137 -79,-128 -80,-88 -39,-89 39,-158 31,-168 v -296 l -17,-322 -36,-273 -26,-270 -13,-260 v -278 z"
   id="path80"
   inkscape:connector-curvature="0"
   style="fill:#000000;stroke:none" />
         <path
   d="m 12798,16156 415,141 423,247 379,212 22,384 -22,349 -26,154 -216,-31 -450,-282 -327,-168 -308,-44 -5,-441 18,-380 z"
   id="path82"
   inkscape:connector-curvature="0"
   style="fill:#c1995c;stroke:none" />
         <path
   d="m 13923,16756 -322,-181 -283,-137 -247,-128 -260,-119 -62,-110 31,-31 133,80 233,105 31,-141 22,-106 44,-13 80,9 203,93 163,79 40,62 -9,75 -31,141 -26,66 -106,-48 39,-106 v -115 l -70,-75 -238,-88 -45,57 -4,155 582,322 216,97 31,48 -4,305 v 326 l -44,181 -44,-40 26,-114 -13,-199 -13,-304 -53,278 -31,278 v 101 h 110 l 35,22 -30,102 -155,-27 -163,-44 -296,-207 -194,-106 -185,-93 -203,-31 -145,-48 v -93 -256 -450 l 52,-221 62,84 -48,119 v 234 340 l 13,199 137,44 176,22 168,92 251,120 199,128 123,70 31,-40 5,-344 57,-264 z"
   id="path84"
   inkscape:connector-curvature="0"
   style="fill:#000000;stroke:none" />
         <path
   d="m 12895,16394 335,133 463,242 133,75 -5,102 -172,-102 -388,-225 -335,-145 z"
   id="path86"
   inkscape:connector-curvature="0"
   style="fill:#000000;stroke:none" />
         <path
   d="m 10883,16443 305,-168 251,278 282,208 380,251 172,119 -9,1355 -331,61 -313,-370 -247,-216 -216,-155 -305,-256 31,-238 18,-269 -9,-265 -9,-260 z"
   id="path88"
   inkscape:connector-curvature="0"
   style="fill:#8e5233;stroke:none" />
         <path
   d="m 10989,16460 216,-127 v -53 l -44,-53 -154,106 -172,83 53,393 -5,419 -44,349 75,92 384,261 300,264 243,309 97,75 388,-75 9,-1403 -71,-13 -31,150 v 1183 l -300,61 22,-1178 -101,31 -13,1041 -186,-229 -181,-172 -172,-132 -233,-159 -168,-164 44,-326 4,-322 -4,-261 -26,-132 z"
   id="path90"
   inkscape:connector-curvature="0"
   style="fill:#000000;stroke:none" />
         <path
   d="m 11832,17255 -424,-322 -247,-234 -203,-252 h -92 l 22,97 441,428 340,252 233,185 402,-234 -18,-70 -423,-287 -349,-274 -304,-344 -75,31 9,88 233,234 344,247 287,190 186,146 -256,136 z"
   id="path92"
   inkscape:connector-curvature="0"
   style="fill:#000000;stroke:none" />
         <path
   d="m 11241,16646 70,39 66,14 40,-5 22,-123 84,13 123,53 80,62 18,84 -49,92 -75,27 40,66 106,48 48,-105 9,-150 -18,-111 -136,-141 -146,-40 -132,18 -150,84 z"
   id="path94"
   inkscape:connector-curvature="0"
   style="fill:#000000;stroke:none" />
         <path
   d="m 9004,16897 441,146 455,251 405,221 22,397 -22,357 -26,159 -234,-31 -476,-291 -349,-172 -331,-48 -4,-450 18,-393 z"
   id="path96"
   inkscape:connector-curvature="0"
   style="fill:#be7f3e;stroke:none" />
         <path
   d="m 10204,17515 -340,-185 -304,-142 -265,-132 -273,-123 -67,-111 31,-31 146,80 247,110 31,-145 22,-106 53,-18 79,9 216,97 177,79 40,62 -9,79 -31,146 -27,66 -114,-48 44,-111 v -114 l -80,-80 -251,-88 -44,57 -9,159 618,331 233,102 31,48 -4,313 v 336 l -44,185 -49,-40 27,-119 -13,-203 -14,-313 -57,287 -31,282 v 106 h 115 l 39,22 -35,106 -163,-26 -172,-49 -313,-212 -212,-110 -194,-93 -216,-35 -155,-44 v -97 -265 -459 l 53,-229 66,84 -48,123 v 243 348 l 13,203 146,49 189,18 177,97 269,119 207,132 133,75 35,-40 4,-357 62,-269 z"
   id="path98"
   inkscape:connector-curvature="0"
   style="fill:#000000;stroke:none" />
         <path
   d="m 9110,17144 357,137 494,252 141,75 -4,106 -185,-106 -415,-230 -353,-150 z"
   id="path100"
   inkscape:connector-curvature="0"
   style="fill:#000000;stroke:none" />
         <path
   d="m 8880,11250 -4,242 -79,225 -93,194 -79,173 -5,154 36,172 92,84 163,-247 239,-265 176,-269 -198,-199 z"
   id="path102"
   inkscape:connector-curvature="0"
   style="fill:#fc0128;stroke:none" />
         <path
   d="m 10072,12454 300,296 -84,75 -1513,-1624 61,-93 z"
   id="path104"
   inkscape:connector-curvature="0"
   style="fill:#000000;stroke:none" />
         <path
   d="m 8845,11250 -17,167 -49,203 -62,168 -75,154 -53,142 v 105 l 18,142 62,145 84,93 66,-115 88,-119 79,-128 128,-141 97,-119 133,-137 -5,-79 -66,-36 -106,216 -141,173 -119,105 -106,115 -62,93 -79,-80 -9,-150 53,-158 84,-168 70,-172 40,-146 31,-163 -18,-93 z"
   id="path106"
   inkscape:connector-curvature="0"
   style="fill:#000000;stroke:none" />
         <path
   d="m 10963,13712 -22,-128 -36,-75 -39,-84 -58,-49 -61,-26 -98,-5 -88,22 -92,58 -71,75 -57,101 -36,111 -26,154 -4,168 22,145 57,106 48,58 75,22 115,26 80,-9 88,-53 84,-79 61,-119 49,-115 35,-119 49,-49 88,-61 128,-18 97,-13 26,-44 v -71 l -57,-31 -53,5 -75,30 -79,49 -80,49 z"
   id="path108"
   inkscape:connector-curvature="0"
   style="fill:#000000;stroke:none" />
         <path
   d="m 10544,14554 92,-8 124,13 92,48 67,89 57,79 22,79 26,137 14,141 17,168 5,177 -18,189 -31,168 -44,141 -79,106 -62,101 -57,80 -80,62 -79,31 -84,4 h -119 l -97,-31 -93,-62 -62,-66 -30,-119 -23,-137 18,-159 66,-110 75,-88 44,-137 5,-115 -18,-132 -44,-137 -4,-185 35,-155 57,-105 97,-67 z"
   id="path110"
   inkscape:connector-curvature="0"
   style="fill:#000000;stroke:none" />
         <path
   d="m 9895,12604 v -92 l -35,-98 -71,-79 -66,-40 v -106 l 88,-66 111,5 101,88 31,141 40,40 97,-44 66,75 -53,154 -110,97 -142,124 -105,189 -97,217 -62,172 -62,137 -9,92 v 150 l 71,168 66,123 93,164 123,141 141,137 84,79 88,71 97,83 18,225 -93,45 -53,-27 -189,-181 -186,-220 -238,-393 -101,-247 -71,-225 -9,-185 58,-173 84,-167 136,-216 111,-177 35,-97 z"
   id="path112"
   inkscape:connector-curvature="0"
   style="fill:#000000;stroke:none" />
         <path
   d="m 10729,14599 132,4 124,79 150,150 110,128 128,164 88,132 22,97 -4,62 -49,35 -110,57 -128,84 -62,31 -44,40 18,62 57,53 115,61 128,40 h 62 l 44,71 -49,39 h -92 l -155,-57 -110,-62 -97,-53 -35,-92 -14,-120 62,-66 93,-57 119,-66 70,-49 22,-70 -22,-89 -123,-92 -146,-97 -136,-89 -133,-97 -66,-57 -18,-66 z"
   id="path114"
   inkscape:connector-curvature="0"
   style="fill:#000000;stroke:none" />
         <path
   d="m 10504,15993 75,-62 88,71 75,92 49,221 48,269 -9,278 -8,251 -23,274 -35,225 -17,110 26,75 18,67 39,44 133,79 79,57 5,31 -18,49 -62,57 -70,5 -75,-22 -49,-84 -66,-84 -97,-71 -58,-53 -30,-83 48,-93 88,-93 18,-123 18,-247 -45,-340 -4,-185 -66,-177 -62,-172 -62,-141 -4,-124 z"
   id="path116"
   inkscape:connector-curvature="0"
   style="fill:#000000;stroke:none" />
         <path
   d="m 10275,16090 114,-40 133,71 26,154 -48,260 -27,261 -22,388 -13,216 13,322 v 111 l 18,61 114,89 102,119 44,53 -9,53 -115,53 -114,-22 -18,-106 -40,-58 -79,-110 -66,-48 -18,-106 40,-89 31,-110 v -212 l -49,-282 -40,-269 -8,-283 8,-260 v -137 z"
   id="path118"
   inkscape:connector-curvature="0"
   style="fill:#000000;stroke:none" />
         <path
   d="m 8320,16032 -79,-70 -88,79 -75,102 -49,247 -53,300 9,309 9,282 22,305 40,251 17,119 -31,88 -13,75 -44,49 -132,88 -84,62 -5,35 18,53 66,66 71,5 75,-22 48,-97 66,-93 102,-79 57,-58 36,-97 -49,-101 -93,-102 -17,-137 -18,-273 44,-384 5,-207 66,-199 66,-185 62,-163 4,-137 z"
   id="path120"
   inkscape:connector-curvature="0"
   style="fill:#000000;stroke:none" />
         <path
   d="m 8642,13963 -44,-194 -62,-132 -61,-84 -62,-75 -97,-53 -75,-9 -84,9 -88,40 -84,70 -49,80 -26,75 -22,114 -9,137 27,141 22,115 75,101 75,84 101,62 75,49 h 97 l 93,-18 75,-62 62,-66 35,-106 31,-137 110,40 88,18 h 62 l 40,-58 8,-97 -61,-17 h -119 z"
   id="path122"
   inkscape:connector-curvature="0"
   style="fill:#000000;stroke:none" />
         <path
   d="m 8236,14625 146,-31 137,18 101,44 80,48 44,93 48,110 49,142 26,150 5,203 v 198 l -36,238 -17,128 -49,159 -62,80 -92,53 -97,35 -111,9 -119,-27 -79,-79 -53,-84 -57,-124 -22,-128 22,-101 31,-137 61,-128 14,-110 -36,-141 -57,-128 -31,-111 -4,-123 22,-97 44,-66 z"
   id="path124"
   inkscape:connector-curvature="0"
   style="fill:#000000;stroke:none" />
         <path
   d="m 7888,15146 97,-256 75,-124 97,-92 79,-36 71,44 22,225 -110,133 -124,137 -128,198 -79,172 -57,181 -49,190 -66,167 -88,142 -36,92 31,71 -26,84 -53,101 -185,-62 -111,-13 -57,-75 -5,-110 128,-75 172,-5 89,-154 61,-216 53,-216 62,-225 88,-186 z"
   id="path126"
   inkscape:connector-curvature="0"
   style="fill:#000000;stroke:none" />
         <path
   d="m 8510,14643 154,44 186,44 172,18 185,13 137,-31 70,-106 53,-185 58,-384 v -322 l -40,-97 -80,-75 -83,-62 -22,-80 61,-30 62,35 124,93 h 53 l 70,-111 53,-106 62,9 40,31 -40,93 -53,110 31,31 92,-75 62,-75 44,-5 58,36 -27,75 -106,106 -114,75 -124,66 -40,123 9,305 -9,313 -30,194 -49,128 -53,88 -84,31 -176,22 -265,9 -185,-31 -216,-26 -102,-44 -62,-124 9,-79 53,-31 z"
   id="path128"
   inkscape:connector-curvature="0"
   style="fill:#000000;stroke:none" />
         <path
   d="m 8545,15843 115,97 75,132 48,234 31,265 -17,340 -62,277 -49,248 -48,233 -35,195 39,105 9,84 97,89 132,101 53,57 v 53 l -66,44 -150,36 -79,-31 -13,-40 -5,-88 -48,-84 -75,-75 -66,-66 -23,-35 v -106 l 67,-84 39,-159 62,-216 18,-300 -5,-261 -35,-207 -75,-198 -35,-190 -36,-177 -8,-141 48,-110 z"
   id="path130"
   inkscape:connector-curvature="0"
   style="fill:#000000;stroke:none" />
         <path
   d="m 5069,16787 326,-234 380,-212 772,556 745,494 190,164 -1019,529 -490,-578 -322,-273 -353,-265 -255,-132 z"
   id="path132"
   inkscape:connector-curvature="0"
   style="fill:#712000;stroke:none" />
         <path
   d="m 5025,17166 44,-339 340,211 397,292 322,317 370,411 441,-234 565,-278 22,101 -13,287 -375,230 -362,172 -322,128 -322,-309 -490,-424 -414,-379 z"
   id="path134"
   inkscape:connector-curvature="0"
   style="fill:#cf0e30;stroke:none" />
         <path
   d="m 6516,18384 516,-234 490,-260 31,66 -278,168 -305,168 -498,216 -238,-199 -367,-340 -379,-339 -326,-278 -168,-137 22,-243 v -198 l 313,-208 261,-194 207,-106 322,269 423,327 322,216 340,203 305,194 17,49 -79,31 -133,-111 -216,-141 -353,-207 -251,-185 -282,-190 -239,-199 -198,-137 -212,93 -185,150 -194,115 -84,88 -9,212 -13,115 212,194 273,247 287,234 265,229 229,216 128,124 z"
   id="path136"
   inkscape:connector-curvature="0"
   style="fill:#000000;stroke:none" />
         <path
   d="m 5065,17661 4,-199 62,-154 84,-80 150,18 110,93 110,172 -26,132 -40,176 -97,111 h -172 l -84,-53 z"
   id="path138"
   inkscape:connector-curvature="0"
   style="fill:#dadada;stroke:none" />
         <path
   d="m 5135,17480 35,-106 93,-66 115,35 79,79 44,111 22,119 -39,145 -80,84 -97,27 66,31 142,-80 70,-88 49,-110 -5,-120 -44,-123 -62,-124 -101,-83 -115,-27 h -106 l -101,62 -66,110 -31,172 17,115 53,97 80,13 -49,-128 z"
   id="path140"
   inkscape:connector-curvature="0"
   style="fill:#000000;stroke:none" />
         <path
   d="m 5038,17453 -18,119 23,155 26,84 62,101 97,57 88,23 h 106 l 79,-40 66,-80 18,-106 18,-136 -49,-111 -17,181 -62,97 -71,62 -88,13 -66,-44 -62,-66 -66,-93 -35,-114 z"
   id="path142"
   inkscape:connector-curvature="0"
   style="fill:#000000;stroke:none" />
         <path
   d="m 5810,18274 5,-194 61,-155 84,-79 150,18 110,92 111,168 -27,132 -39,177 -98,110 h -172 l -83,-53 z"
   id="path144"
   inkscape:connector-curvature="0"
   style="fill:#dadada;stroke:none" />
         <path
   d="m 5881,18093 35,-106 93,-66 114,35 80,80 44,110 22,123 -40,146 -79,84 -97,26 66,31 141,-79 71,-88 48,-115 -4,-115 -44,-128 -62,-123 -102,-84 -114,-27 h -106 l -102,62 -66,115 -31,168 18,119 53,92 79,18 -48,-128 z"
   id="path146"
   inkscape:connector-curvature="0"
   style="fill:#000000;stroke:none" />
         <path
   d="m 5784,18067 -18,119 22,154 27,84 61,101 97,58 89,22 h 105 l 80,-40 66,-79 18,-106 17,-137 -48,-110 -18,181 -62,97 -70,61 -88,14 -67,-44 -61,-67 -67,-92 -35,-115 z"
   id="path148"
   inkscape:connector-curvature="0"
   style="fill:#000000;stroke:none" />
         <path
   d="m 5453,17038 -31,-803 1067,826 587,-300 40,953 -604,335 -433,-441 -423,-384 z"
   id="path150"
   inkscape:connector-curvature="0"
   style="fill:#be7f3e;stroke:none" />
         <path
   d="m 5881,15988 -463,234 1071,865 583,-326 z"
   id="path152"
   inkscape:connector-curvature="0"
   style="fill:#d3b78c;stroke:none" />
         <path
   d="m 5440,16986 -67,-781 499,-261 1257,777 35,944 -114,44 v -948 l -1178,-733 -406,207 53,856 -93,-61 z"
   id="path154"
   inkscape:connector-curvature="0"
   style="fill:#000000;stroke:none" />
         <path
   d="m 6582,17974 -48,-891 551,-296 -26,-75 -570,296 -1023,-821 -57,44 9,49 1019,789 61,967 z"
   id="path156"
   inkscape:connector-curvature="0"
   style="fill:#000000;stroke:none" />
         <path
   d="m 5960,16346 22,-141 115,-5 366,234 31,141 -27,115 -128,-66 27,-80 -18,-97 -242,-163 -44,53 -22,75 z"
   id="path158"
   inkscape:connector-curvature="0"
   style="fill:#000000;stroke:none" />
         <path
   d="m 6807,17833 -31,-186 v -110 l 521,-737 62,-119 -217,-216 27,-93 92,-4 230,22 -13,84 -172,-14 -31,23 145,105 h 89 l 105,-61 -75,-62 14,-75 203,44 -5,88 -62,66 -211,106 -556,847 62,186 427,-208 115,-30 31,30 31,80 -31,353 -93,48 14,-401 -552,282 -401,230 22,291 -93,31 -35,-66 13,-309 -582,-609 -406,-340 -331,-198 -13,-98 93,31 427,278 358,305 366,392 168,181 z"
   id="path160"
   inkscape:connector-curvature="0"
   style="fill:#000000;stroke:none" />
        </g>
       </g>
      </g>
     </g>
    </g>
   </g>
  </g>
 </g>
</svg>