<?xml version="1.0" encoding="UTF-8" standalone="no"?>
<svg
   xmlns:ooo="http://xml.openoffice.org/svg/export"
   xmlns:dc="http://purl.org/dc/elements/1.1/"
   xmlns:cc="http://creativecommons.org/ns#"
   xmlns:rdf="http://www.w3.org/1999/02/22-rdf-syntax-ns#"
   xmlns:svg="http://www.w3.org/2000/svg"
   xmlns="http://www.w3.org/2000/svg"
   xmlns:sodipodi="http://sodipodi.sourceforge.net/DTD/sodipodi-0.dtd"
   xmlns:inkscape="http://www.inkscape.org/namespaces/inkscape"
   version="1.2"
   width="82.909996mm"
   height="68.029999mm"
   viewBox="0 0 8290.9996 6802.9999"
   preserveAspectRatio="xMidYMid"
   xml:space="preserve"
   id="svg142"
   sodipodi:docname="carolers.svg"
   style="fill-rule:evenodd;stroke-width:28.22200012;stroke-linejoin:round"
   inkscape:version="0.92.5 (2060ec1f9f, 2020-04-08)"><metadata
   id="metadata146"><rdf:RDF><cc:Work
       rdf:about=""><dc:format>image/svg+xml</dc:format><dc:type
         rdf:resource="http://purl.org/dc/dcmitype/StillImage" /></cc:Work></rdf:RDF></metadata><sodipodi:namedview
   pagecolor="#ffffff"
   bordercolor="#666666"
   borderopacity="1"
   objecttolerance="10"
   gridtolerance="10"
   guidetolerance="10"
   inkscape:pageopacity="0"
   inkscape:pageshadow="2"
   inkscape:window-width="664"
   inkscape:window-height="487"
   id="namedview144"
   showgrid="false"
   inkscape:zoom="0.2102413"
   inkscape:cx="156.69921"
   inkscape:cy="128.54173"
   inkscape:window-x="0"
   inkscape:window-y="0"
   inkscape:window-maximized="0"
   inkscape:current-layer="svg142" />
 <defs
   class="ClipPathGroup"
   id="defs8">
  <clipPath
   id="presentation_clip_path"
   clipPathUnits="userSpaceOnUse">
   <rect
   x="0"
   y="0"
   width="21000"
   height="29700"
   id="rect2" />
  </clipPath>
  <clipPath
   id="presentation_clip_path_shrink"
   clipPathUnits="userSpaceOnUse">
   <rect
   x="21"
   y="29"
   width="20958"
   height="29641"
   id="rect5" />
  </clipPath>
 </defs>
 <defs
   class="TextShapeIndex"
   id="defs12">
  <g
   ooo:slide="id1"
   ooo:id-list="id3"
   id="g10" />
 </defs>
 <defs
   class="EmbeddedBulletChars"
   id="defs44">
  <g
   id="bullet-char-template-57356"
   transform="matrix(4.8828125e-4,0,0,-4.8828125e-4,0,0)">
   <path
   d="M 580,1141 1163,571 580,0 -4,571 Z"
   id="path14"
   inkscape:connector-curvature="0" />
  </g>
  <g
   id="bullet-char-template-57354"
   transform="matrix(4.8828125e-4,0,0,-4.8828125e-4,0,0)">
   <path
   d="M 8,1128 H 1137 V 0 H 8 Z"
   id="path17"
   inkscape:connector-curvature="0" />
  </g>
  <g
   id="bullet-char-template-10146"
   transform="matrix(4.8828125e-4,0,0,-4.8828125e-4,0,0)">
   <path
   d="M 174,0 602,739 174,1481 1456,739 Z M 1358,739 309,1346 659,739 Z"
   id="path20"
   inkscape:connector-curvature="0" />
  </g>
  <g
   id="bullet-char-template-10132"
   transform="matrix(4.8828125e-4,0,0,-4.8828125e-4,0,0)">
   <path
   d="M 2015,739 1276,0 H 717 l 543,543 H 174 v 393 h 1086 l -543,545 h 557 z"
   id="path23"
   inkscape:connector-curvature="0" />
  </g>
  <g
   id="bullet-char-template-10007"
   transform="matrix(4.8828125e-4,0,0,-4.8828125e-4,0,0)">
   <path
   d="m 0,-2 c -7,16 -16,29 -25,39 l 381,530 c -94,256 -141,385 -141,387 0,25 13,38 40,38 9,0 21,-2 34,-5 21,4 42,12 65,25 l 27,-13 111,-251 280,301 64,-25 24,25 c 21,-10 41,-24 62,-43 C 886,937 835,863 770,784 769,783 710,716 594,584 L 774,223 c 0,-27 -21,-55 -63,-84 l 16,-20 C 717,90 699,76 672,76 641,76 570,178 457,381 L 164,-76 c -22,-34 -53,-51 -92,-51 -42,0 -63,17 -64,51 -7,9 -10,24 -10,44 0,9 1,19 2,30 z"
   id="path26"
   inkscape:connector-curvature="0" />
  </g>
  <g
   id="bullet-char-template-10004"
   transform="matrix(4.8828125e-4,0,0,-4.8828125e-4,0,0)">
   <path
   d="M 285,-33 C 182,-33 111,30 74,156 52,228 41,333 41,471 c 0,78 14,145 41,201 34,71 87,106 158,106 53,0 88,-31 106,-94 l 23,-176 c 8,-64 28,-97 59,-98 l 735,706 c 11,11 33,17 66,17 42,0 63,-15 63,-46 V 965 c 0,-36 -10,-64 -30,-84 L 442,47 C 390,-6 338,-33 285,-33 Z"
   id="path29"
   inkscape:connector-curvature="0" />
  </g>
  <g
   id="bullet-char-template-9679"
   transform="matrix(4.8828125e-4,0,0,-4.8828125e-4,0,0)">
   <path
   d="M 813,0 C 632,0 489,54 383,161 276,268 223,411 223,592 c 0,181 53,324 160,431 106,107 249,161 430,161 179,0 323,-54 432,-161 108,-107 162,-251 162,-431 0,-180 -54,-324 -162,-431 C 1136,54 992,0 813,0 Z"
   id="path32"
   inkscape:connector-curvature="0" />
  </g>
  <g
   id="bullet-char-template-8226"
   transform="matrix(4.8828125e-4,0,0,-4.8828125e-4,0,0)">
   <path
   d="m 346,457 c -73,0 -137,26 -191,78 -54,51 -81,114 -81,188 0,73 27,136 81,188 54,52 118,78 191,78 73,0 134,-26 185,-79 51,-51 77,-114 77,-187 0,-75 -25,-137 -76,-188 -50,-52 -112,-78 -186,-78 z"
   id="path35"
   inkscape:connector-curvature="0" />
  </g>
  <g
   id="bullet-char-template-8211"
   transform="matrix(4.8828125e-4,0,0,-4.8828125e-4,0,0)">
   <path
   d="M -4,459 H 1135 V 606 H -4 Z"
   id="path38"
   inkscape:connector-curvature="0" />
  </g>
  <g
   id="bullet-char-template-61548"
   transform="matrix(4.8828125e-4,0,0,-4.8828125e-4,0,0)">
   <path
   d="m 173,740 c 0,163 58,303 173,419 116,115 255,173 419,173 163,0 302,-58 418,-173 116,-116 174,-256 174,-419 0,-163 -58,-303 -174,-418 C 1067,206 928,148 765,148 601,148 462,206 346,322 231,437 173,577 173,740 Z"
   id="path41"
   inkscape:connector-curvature="0" />
  </g>
 </defs>
 <g
   id="g49"
   transform="translate(-6354,-11448)">
  <g
   id="id2"
   class="Master_Slide">
   <g
   id="bg-id2"
   class="Background" />
   <g
   id="bo-id2"
   class="BackgroundObjects" />
  </g>
 </g>
 <g
   class="SlideGroup"
   id="g140"
   transform="translate(-6354,-11448)">
  <g
   id="g138">
   <g
   id="container-id1">
    <g
   id="id1"
   class="Slide"
   clip-path="url(#presentation_clip_path)">
     <g
   class="Page"
   id="g134">
      <g
   class="Graphic"
   id="g132">
       <g
   id="id3">
        <rect
   class="BoundingBox"
   x="6354"
   y="11448"
   width="8291"
   height="6803"
   id="rect51"
   style="fill:none;stroke:none" />
        <path
   d="m 9386,14547 93,-40 119,-5 115,31 124,76 106,141 119,155 124,203 101,265 45,204 22,172 -36,155 -57,106 -89,71 -128,31 h -154 l -142,-27 -88,-66 -89,-133 -26,-124 -5,-146 5,-132 -13,-137 -27,-120 -62,-106 -93,-110 -61,-93 -27,-128 13,-120 49,-84 z"
   id="path53"
   inkscape:connector-curvature="0"
   style="fill:#000000;stroke:none" />
        <path
   d="m 9514,13707 -97,-115 -124,-80 -80,-35 h -88 l -102,31 -84,71 -53,97 -35,150 40,204 53,114 75,93 106,106 128,58 106,26 111,-22 84,-53 53,-53 40,-124 -9,-97 -18,-137 -40,-115 27,-93 146,-119 39,-80 -13,-75 -79,-35 -93,49 -27,132 z"
   id="path55"
   inkscape:connector-curvature="0"
   style="fill:#000000;stroke:none" />
        <path
   d="m 10181,15740 120,80 79,119 80,168 75,190 35,168 v 173 l -22,176 -35,160 -93,194 -40,159 -53,190 -13,115 18,53 57,49 146,31 274,75 62,40 -9,39 -31,36 -141,66 -93,-22 -84,-71 -124,-75 -155,-13 -79,-27 -22,-62 v -88 l 48,-133 53,-159 53,-176 53,-213 22,-168 -8,-168 -40,-176 -75,-186 -106,-168 -102,-128 -26,-142 22,-88 57,-53 z"
   id="path57"
   inkscape:connector-curvature="0"
   style="fill:#000000;stroke:none" />
        <path
   d="m 9704,16032 35,-168 58,-57 88,-14 89,27 57,97 -13,150 -58,168 -84,252 -66,243 -4,190 26,186 62,155 66,181 67,190 8,53 -8,66 -40,49 -93,84 -75,142 -27,106 -53,22 -75,-27 -110,-101 9,-62 48,-53 106,-93 115,-75 40,-84 9,-115 -49,-137 -101,-159 -80,-168 -49,-146 -13,-142 22,-216 31,-208 27,-230 z"
   id="path59"
   inkscape:connector-curvature="0"
   style="fill:#000000;stroke:none" />
        <path
   d="m 9978,15391 367,-553 h 40 l 48,27 106,460 208,477 -296,447 -146,168 -141,61 -115,-22 -310,-44 -287,-9 -203,-636 -234,-495 61,-49 195,88 340,76 279,31 84,8 z"
   id="path61"
   inkscape:connector-curvature="0"
   style="fill:#ff0033;stroke:none" />
        <path
   d="m 9916,15475 -252,-27 -216,-30 -217,-62 -132,-62 -23,26 80,151 102,194 79,226 93,256 57,216 297,14 269,31 142,31 159,-137 146,-199 203,-270 -27,-62 -154,-362 -49,-146 -40,-164 -40,-190 -44,-13 -97,159 -133,234 -106,159 84,332 v 18 l 155,486 -31,71 h -53 l -49,-186 -106,-318 -70,-310 -18,-159 168,-216 128,-248 111,-128 48,-13 53,26 27,102 62,261 75,229 93,204 101,181 -22,57 -93,164 -283,380 -66,62 -119,53 -49,13 -88,-26 -159,-31 h -235 l -212,18 -48,-27 -18,-49 -62,-265 -88,-238 -106,-252 -106,-217 -49,-133 v -62 l 40,-17 h 57 l 137,57 217,53 367,53 119,9 z"
   id="path63"
   inkscape:connector-curvature="0"
   style="fill:#800000;stroke:none" />
        <path
   d="m 9554,14520 128,-18 h 181 l 155,5 154,35 182,67 168,88 159,106 115,128 39,128 -35,155 -80,93 -66,57 -13,18 -13,22 v 18 22 l 4,18 9,22 v 18 l 4,22 14,17 8,18 5,18 v 22 17 l -18,23 h -22 -18 -26 l -27,-14 -13,-22 -13,-18 v -22 -17 -18 -18 -26 l 4,-22 14,-18 v -22 l -14,-18 -17,-9 h -22 l -27,14 -22,13 -27,13 h -17 l -27,-4 -26,-13 -9,-27 -5,-22 v -18 l 5,-17 22,-14 26,-4 18,-9 h 22 l 27,9 17,-9 14,-18 v -22 l -5,-17 -9,-23 -17,-26 -22,-18 -5,-22 h -22 l -4,-22 v -18 -22 l 4,-17 13,-27 14,-22 22,-9 17,-4 h 23 13 l 22,13 4,22 v 18 22 l -4,18 -9,26 -4,22 v 13 l 13,23 18,4 61,-4 80,-36 35,-88 -31,-115 -137,-115 -168,-75 -168,-58 -181,-26 -132,13 -151,31 -128,-44 -88,-89 z"
   id="path65"
   inkscape:connector-curvature="0"
   style="fill:#000000;stroke:none" />
        <path
   d="m 9346,14582 -110,75 -124,124 -115,110 -84,133 -84,177 -62,181 -40,186 5,168 62,119 137,89 119,8 h 93 l 22,5 22,4 9,13 17,18 9,13 9,23 13,13 9,13 5,22 8,22 9,18 18,18 9,8 31,5 13,-13 13,-14 22,-17 9,-27 -9,-26 v -18 l -17,-18 -9,-13 -18,-13 -13,-14 -18,-17 -17,-13 -23,-5 -13,-18 -4,-22 4,-17 22,-18 27,-9 h 26 l 27,-9 13,-13 18,-22 9,-27 -14,-26 -13,-18 -9,-13 -22,-13 -22,4 -22,18 -18,4 -17,13 -14,27 -17,4 h -22 l -18,-17 -9,-18 -4,-22 -5,-31 5,-27 -14,-13 14,-17 -14,-23 -13,-13 -13,-13 -18,-9 -26,-13 -27,-5 -22,9 -13,9 -18,13 -13,14 -5,26 14,18 9,9 17,17 13,9 27,13 18,14 13,9 4,26 -8,18 -49,40 -80,26 -88,-35 -57,-111 17,-177 71,-172 79,-155 115,-146 98,-79 132,-84 62,-124 v -119 z"
   id="path67"
   inkscape:connector-curvature="0"
   style="fill:#000000;stroke:none" />
        <path
   d="m 7534,15771 80,-66 88,-53 93,-13 101,13 102,31 66,53 40,97 -9,93 -31,88 -62,106 -26,93 v 80 l 53,97 75,71 35,75 v 75 l -22,71 -35,57 -71,44 -119,40 -124,-4 -119,-27 -102,-62 -53,-79 -66,-102 -53,-132 v -151 l 13,-159 40,-141 26,-102 36,-57 z"
   id="path69"
   inkscape:connector-curvature="0"
   style="fill:#000000;stroke:none" />
        <path
   d="m 7927,15678 115,53 106,102 146,195 119,185 102,75 102,40 141,27 84,-5 18,5 18,-14 8,-17 14,-22 17,-18 18,-9 18,-9 17,-17 18,-9 h 27 l 22,9 13,4 13,22 5,13 -5,27 -13,22 -13,18 -27,8 h -18 l -22,5 -22,13 h -17 l -18,22 v 18 22 l 18,13 17,9 h 18 22 18 l 22,5 9,22 22,13 v 18 l 4,22 -4,26 -22,5 -27,22 -18,4 -22,9 h -22 -26 l -14,-9 -22,-4 -13,-22 v -18 -27 -26 l -9,-22 -13,-5 -22,-8 -9,26 -18,22 v 27 l -4,17 v 23 26 22 l -4,18 -14,22 -17,18 -18,13 h -18 -17 -18 l -22,-18 -27,-35 v -18 -22 -22 -27 l 27,-26 18,-18 17,-9 18,-4 13,-22 v -18 -18 l -106,-30 -172,-49 -115,-93 -159,-155 -133,-101 -132,-89 -89,-110 27,-115 z"
   id="path71"
   inkscape:connector-curvature="0"
   style="fill:#000000;stroke:none" />
        <path
   d="m 7561,15656 203,22 35,45 -13,79 -75,62 -97,9 -177,-44 -243,-58 -173,-48 -123,-45 -115,-141 -89,-89 -53,-44 -17,9 h -18 -18 -17 l -18,5 -18,4 -13,13 -18,5 -22,17 -13,5 -18,9 h -13 -18 l -22,-9 -22,-9 -13,-18 -9,-17 4,-18 18,-9 18,-9 22,-4 13,-9 h 18 l 17,-5 18,-4 h 22 18 13 18 18 17 v -18 -17 l -17,-18 -23,-4 -22,-14 -22,-13 h -13 l -18,-13 -22,-13 -13,-9 -18,-14 v -30 l 9,-14 22,-9 h 22 18 13 18 l 22,9 22,14 13,13 22,17 18,18 13,18 9,13 9,27 5,17 17,5 22,-18 18,-18 18,-22 8,-22 18,-4 13,-9 31,-13 h 18 18 l 9,13 8,18 v 26 22 l -22,22 -17,14 -22,22 h -23 -13 l -18,4 84,97 84,98 107,57 141,22 190,13 163,9 z"
   id="path73"
   inkscape:connector-curvature="0"
   style="fill:#000000;stroke:none" />
        <path
   d="m 8002,16531 115,80 115,128 80,120 26,79 -4,75 -49,53 -115,93 -97,115 -84,119 -13,80 v 75 l 44,49 133,17 221,62 62,53 -18,62 -93,31 -97,-4 -62,-62 -164,-66 -119,-22 -79,-31 v -67 l 8,-75 45,-79 101,-137 67,-164 66,-150 22,-40 -97,-106 -133,-62 -57,-84 53,-124 97,-13 z"
   id="path75"
   inkscape:connector-curvature="0"
   style="fill:#000000;stroke:none" />
        <path
   d="m 7432,16788 129,-177 92,-53 h 71 l 84,93 v 22 l -13,79 -106,62 -128,120 -40,62 -9,106 v 17 l 35,102 27,150 v 173 l -36,128 -92,115 -173,137 -123,-18 -58,-79 53,-76 119,-53 129,-92 66,-76 35,-119 -35,-155 -80,-154 -17,-164 26,-93 53,-57 z"
   id="path77"
   inkscape:connector-curvature="0"
   style="fill:#000000;stroke:none" />
        <path
   d="m 7892,14900 88,-70 89,-27 h 79 l 93,13 62,40 53,75 40,80 13,97 -18,115 -48,106 -75,89 -93,66 -89,48 -106,31 -79,14 -66,-14 -67,-53 -31,-79 -26,-102 v -93 l 26,-106 22,-66 36,-44 -71,-49 -57,-53 -9,-49 22,-44 40,-13 17,4 71,14 z"
   id="path79"
   inkscape:connector-curvature="0"
   style="fill:#000000;stroke:none" />
        <path
   d="m 6973,13755 66,98 97,39 93,31 53,45 27,48 -18,49 -53,31 22,-62 -35,-53 -80,-27 -71,-31 -13,9 -57,-26 h -18 l -13,-5 190,323 -155,102 217,221 13,70 -13,53 -40,58 -89,53 h -79 l -53,-22 -27,-62 v -57 l 62,-71 115,-40 -203,-212 181,-111 -194,-349 -27,-93 40,-35 31,13 z"
   id="path81"
   inkscape:connector-curvature="0"
   style="fill:#000000;stroke:none" />
        <path
   d="m 7561,14644 -107,-371 -84,-5 9,93 z"
   id="path83"
   inkscape:connector-curvature="0"
   style="fill:#000000;stroke:none" />
        <path
   d="m 7388,15068 -398,-75 -39,40 26,53 z"
   id="path85"
   inkscape:connector-curvature="0"
   style="fill:#000000;stroke:none" />
        <path
   d="m 10027,11691 31,-13 48,18 93,313 115,283 44,168 v 93 l -40,75 -70,36 -53,-9 -67,-53 -22,-67 v -22 l -13,-79 49,-75 97,-45 -128,-336 -5,18 -185,128 -115,80 168,632 4,75 -31,71 -66,40 -111,9 -66,-40 -18,-93 14,-84 53,-71 97,-62 -97,-380 -120,-309 14,-49 53,-13 132,-62 119,-111 z"
   id="path87"
   inkscape:connector-curvature="0"
   style="fill:#000000;stroke:none" />
        <path
   d="m 11286,12354 -71,-31 h -88 l -75,44 -18,93 40,71 71,31 123,-18 107,-40 -49,-808 75,114 106,49 49,-13 v -62 l -93,-62 -88,-133 -80,-101 -62,-40 -40,53 z"
   id="path89"
   inkscape:connector-curvature="0"
   style="fill:#000000;stroke:none" />
        <path
   d="m 12174,12796 -57,-44 -88,-27 -80,27 -40,80 18,84 62,48 124,9 106,-4 163,-805 49,137 84,71 h 53 l 13,-58 -71,-88 -53,-146 -48,-124 -49,-53 -53,40 z"
   id="path91"
   inkscape:connector-curvature="0"
   style="fill:#000000;stroke:none" />
        <path
   d="m 12895,12279 128,-84 155,-128 146,-217 26,14 22,79 -163,190 -212,190 48,164 146,-150 18,-23 190,-194 26,79 -353,398 137,434 8,128 -48,101 -53,49 -80,18 -53,-14 -62,-70 -4,-75 26,-89 45,-75 101,-71 z"
   id="path93"
   inkscape:connector-curvature="0"
   style="fill:#000000;stroke:none" />
        <path
   d="m 13346,11886 75,221 93,309 88,239 44,97 -4,53 -53,106 -89,66 -79,-4 -62,-62 4,-93 49,-101 88,-75 -203,-677 z"
   id="path95"
   inkscape:connector-curvature="0"
   style="fill:#000000;stroke:none" />
        <path
   d="m 11520,16081 18,-93 53,-67 84,-26 106,31 36,75 17,159 -17,226 -18,159 v 181 l 35,199 22,265 -22,248 -66,172 31,88 115,168 35,186 -13,155 -93,40 -115,-40 -35,-67 22,-114 13,-115 -53,-111 -71,-75 -31,-66 5,-89 35,-62 49,-70 40,-98 4,-110 -13,-177 -53,-199 -67,-216 -39,-221 -27,-213 z"
   id="path97"
   inkscape:connector-curvature="0"
   style="fill:#000000;stroke:none" />
        <path
   d="m 11295,14684 93,-40 119,-4 111,30 128,76 106,141 119,155 124,203 106,265 44,204 18,172 -31,155 -58,106 -92,71 -128,31 h -155 l -142,-27 -88,-66 -88,-133 -27,-124 -4,-146 4,-132 -13,-137 -31,-120 -58,-106 -97,-110 -62,-93 -26,-128 13,-119 49,-84 z"
   id="path99"
   inkscape:connector-curvature="0"
   style="fill:#000000;stroke:none" />
        <path
   d="m 11423,13844 -93,-115 -128,-80 -84,-35 h -84 l -106,31 -79,71 -53,97 -36,150 40,204 53,114 71,93 110,106 128,58 106,26 111,-22 84,-53 53,-53 44,-124 -9,-97 -17,-137 -45,-115 27,-93 146,-119 44,-80 -18,-75 -79,-35 -93,49 -27,132 z"
   id="path101"
   inkscape:connector-curvature="0"
   style="fill:#000000;stroke:none" />
        <path
   d="m 12091,15877 119,80 79,119 80,168 75,190 35,168 v 173 l -22,176 -35,160 -93,194 -40,159 -53,190 -13,115 18,53 57,49 146,31 274,75 62,40 -9,40 -31,35 -141,66 -93,-22 -84,-71 -124,-75 -154,-13 -80,-27 -22,-61 v -89 l 49,-132 53,-160 53,-176 53,-213 22,-168 -9,-168 -40,-176 -75,-186 -106,-168 -102,-128 -26,-142 22,-88 57,-53 z"
   id="path103"
   inkscape:connector-curvature="0"
   style="fill:#000000;stroke:none" />
        <path
   d="m 11839,15550 362,-552 44,-5 49,31 101,460 213,477 -297,447 -145,168 -146,62 -111,-23 -309,-44 -287,-9 -199,-636 -234,-495 61,-49 195,89 340,75 274,31 80,8 z"
   id="path105"
   inkscape:connector-curvature="0"
   style="fill:#ff0033;stroke:none" />
        <path
   d="m 11781,15625 -252,-26 -216,-31 -221,-62 -128,-62 -23,27 80,150 97,194 84,226 89,256 61,217 297,13 269,31 142,35 163,-137 142,-199 203,-274 -27,-62 -154,-362 -49,-146 -40,-163 -40,-191 -39,-13 -102,159 -133,235 -106,159 84,331 v 18 l 155,491 -31,66 h -49 l -53,-186 -106,-318 -70,-309 -18,-160 168,-221 128,-243 111,-132 53,-14 48,27 27,106 66,256 71,235 93,203 106,181 -22,58 -98,163 -283,380 -66,67 -119,53 -49,13 -88,-26 -159,-31 h -234 l -213,17 -53,-26 -17,-53 -58,-265 -93,-239 -101,-252 -111,-217 -48,-132 v -62 l 39,-18 h 62 l 133,58 221,53 367,48 119,13 z"
   id="path107"
   inkscape:connector-curvature="0"
   style="fill:#800000;stroke:none" />
        <path
   d="m 11459,14657 132,-17 h 177 l 155,4 154,35 181,67 168,88 155,106 119,128 40,129 -35,154 -84,93 -66,58 -9,17 -14,22 v 18 22 l 5,18 9,22 v 18 l 4,22 9,17 9,18 4,18 v 22 17 l -17,23 h -18 -18 -26 l -27,-14 -13,-22 -13,-17 v -23 -17 -18 -18 -26 l 4,-22 13,-18 v -22 l -13,-18 -18,-9 h -26 l -27,14 -17,13 -27,13 h -18 l -26,-4 -27,-13 -8,-27 -5,-22 v -18 l 5,-17 22,-14 26,-4 18,-9 h 22 l 27,9 13,-9 13,-18 v -22 l -4,-17 -9,-23 -13,-26 -23,-18 -4,-22 h -22 l -5,-22 v -18 -22 l 5,-17 13,-27 13,-22 23,-9 13,-4 h 22 18 l 22,13 4,22 v 18 22 l -4,18 -9,26 -5,22 v 13 l 14,23 17,4 62,-4 75,-36 40,-88 -35,-115 -133,-115 -168,-75 -168,-58 -181,-26 -128,13 -155,31 -128,-44 -84,-89 z"
   id="path109"
   inkscape:connector-curvature="0"
   style="fill:#000000;stroke:none" />
        <path
   d="m 11255,14719 -110,75 -124,124 -115,115 -84,128 -84,177 -62,181 -39,186 4,168 62,119 137,89 119,8 h 93 l 22,5 22,4 9,9 18,18 8,13 9,22 14,13 8,18 5,22 9,22 9,18 17,18 9,9 31,4 13,-13 13,-14 23,-17 8,-27 -8,-26 v -22 l -18,-18 -9,-13 -18,-14 -13,-13 -18,-13 -17,-13 -22,-5 -14,-18 -4,-22 4,-17 23,-18 26,-9 27,-4 26,-9 13,-13 18,-22 9,-23 -13,-26 -14,-18 -9,-13 -22,-13 -22,4 -22,18 -17,4 -18,14 -13,26 -18,4 h -22 l -18,-17 -9,-18 -4,-22 -5,-31 5,-26 -13,-18 13,-18 -13,-18 -14,-13 -13,-13 -18,-9 -26,-13 -27,-5 -22,9 -13,9 -18,13 -13,14 -4,22 13,17 9,14 17,17 14,9 26,13 18,14 13,9 5,26 -9,18 -49,35 -79,27 -89,-31 -57,-111 17,-177 71,-172 80,-155 115,-146 97,-79 132,-84 62,-120 v -123 z"
   id="path111"
   inkscape:connector-curvature="0"
   style="fill:#000000;stroke:none" />
        <path
   d="m 13673,14140 141,-137 133,-71 h 22 l 106,-13 110,27 67,53 44,75 35,110 -13,137 -40,120 -66,132 -89,97 -114,71 -146,49 h -142 l -106,-36 -57,-70 -31,-102 13,-119 13,-22 14,-93 39,-102 -141,-190 -40,-106 27,-53 75,-27 57,49 14,84 z"
   id="path113"
   inkscape:connector-curvature="0"
   style="fill:#000000;stroke:none" />
        <path
   d="m 13399,15148 75,-128 93,-75 101,-27 h 93 l 106,13 71,53 26,71 40,119 v 111 l -13,119 -49,133 -13,102 13,101 49,89 66,150 27,110 -14,129 -35,106 -71,75 -115,40 -141,31 -155,-27 -119,-66 -88,-93 -62,-142 -27,-176 v -239 l 22,-203 18,-195 49,-119 z"
   id="path115"
   inkscape:connector-curvature="0"
   style="fill:#000000;stroke:none" />
        <path
   d="m 13355,14980 167,-44 h 151 l 35,88 -106,124 -177,66 -159,62 -168,102 -141,106 -49,124 -44,159 4,314 -84,-18 -35,-190 49,-195 110,-207 128,-182 137,-159 120,-110 z"
   id="path117"
   inkscape:connector-curvature="0"
   style="fill:#000000;stroke:none" />
        <path
   d="m 13929,16081 75,66 58,106 8,141 -13,235 -40,305 14,115 75,221 26,225 -22,150 27,80 35,62 -13,57 -40,49 -49,13 -154,31 -133,97 -115,133 h -57 l -71,-88 13,-120 93,-115 243,-88 80,-44 40,-80 -18,-208 -62,-207 -75,-177 -31,-159 v -305 l -40,-292 5,-137 101,-40 z"
   id="path119"
   inkscape:connector-curvature="0"
   style="fill:#000000;stroke:none" />
        <path
   d="m 13328,16169 40,-133 93,-44 h 79 l 89,44 44,142 -40,177 -80,176 -66,275 -4,216 17,168 36,208 44,115 13,93 -31,48 -88,40 -146,97 -53,84 -58,111 -83,-18 -58,-79 v -84 -80 l 97,-84 248,-115 26,-66 -39,-164 -80,-309 -27,-195 -22,-274 v -190 z"
   id="path121"
   inkscape:connector-curvature="0"
   style="fill:#000000;stroke:none" />
        <path
   d="m 13642,15974 -429,-318 -318,-212 -18,115 v 729 l 433,350 208,137 102,13 349,-217 384,-234 -35,-270 -4,-504 -266,151 -291,225 -89,75 z"
   id="path123"
   inkscape:connector-curvature="0"
   style="fill:#ff0033;stroke:none" />
        <path
   d="m 13695,15939 269,-194 199,-151 177,-115 44,18 -4,88 -36,443 -39,-67 -5,-340 -75,13 -327,261 -203,133 -93,724 -75,-13 -18,-48 84,-668 -40,-71 -141,-119 -221,-146 -265,-190 -5,455 v 332 l 111,110 300,239 177,97 80,27 106,-66 283,-168 247,-129 93,-84 -27,-331 49,84 40,292 -66,57 -323,186 -323,185 -66,36 -97,-13 -97,-54 -270,-194 -301,-256 -13,-53 27,-208 -14,-327 14,-274 26,-49 h 53 l 120,93 384,269 186,142 z"
   id="path125"
   inkscape:connector-curvature="0"
   style="fill:#800000;stroke:none" />
        <path
   d="m 12802,15877 71,9 17,-22 v -27 l 18,-26 13,-18 14,-22 22,-4 17,-9 h 23 l 17,9 22,13 14,18 v 26 l -9,22 -18,27 -26,4 -23,9 -17,5 -14,22 v 22 l 18,4 h 22 27 26 22 l 27,9 18,4 22,14 13,22 v 17 27 22 l -22,13 -18,5 h -22 -22 -27 l -39,-14 -18,-17 -22,-13 -18,4 v 22 l 13,27 18,13 22,22 40,31 18,22 13,18 4,26 v 27 l -22,22 h -26 -27 l -22,-9 -18,-4 -22,-9 -17,-14 -14,-17 -4,-22 v -18 -22 l -13,-18 v -22 -13 l -5,-27 -26,5 -36,-31 z"
   id="path127"
   inkscape:connector-curvature="0"
   style="fill:#000000;stroke:none" />
        <path
   d="m 13867,14953 181,62 248,128 181,160 115,110 49,119 -5,93 -18,102 -61,119 -98,115 -35,89 -13,26 v 27 13 26 27 l 13,22 v 18 22 18 l -13,22 -22,13 -18,13 -27,13 h -22 l -17,-8 -22,-14 -5,-17 -4,-22 4,-27 13,-18 14,-26 4,-27 13,-22 14,-13 v -22 l -18,-5 h -27 l -17,27 -18,13 -13,27 -27,22 -26,4 h -22 -18 l -27,-4 -22,-13 -13,-23 -13,-17 4,-18 22,-4 27,-27 22,-22 18,-18 22,-8 26,-18 31,-9 h 22 l 14,-4 22,-14 v -22 -17 l -27,-9 h -22 -26 l -27,-5 -26,-9 -14,-22 -9,-17 -4,-22 13,-18 27,-13 26,-9 27,-13 h 18 l 22,13 h 22 l 17,13 22,9 80,-9 62,-71 40,-123 4,-107 -31,-66 -84,-106 -154,-102 -146,-48 -142,-18 -101,-35 -98,-53 -35,-89 53,-62 z"
   id="path129"
   inkscape:connector-curvature="0"
   style="fill:#000000;stroke:none" />
       </g>
      </g>
     </g>
    </g>
   </g>
  </g>
 </g>
</svg>