<?xml version="1.0" encoding="UTF-8" standalone="no"?>
<svg
   xmlns:ooo="http://xml.openoffice.org/svg/export"
   xmlns:dc="http://purl.org/dc/elements/1.1/"
   xmlns:cc="http://creativecommons.org/ns#"
   xmlns:rdf="http://www.w3.org/1999/02/22-rdf-syntax-ns#"
   xmlns:svg="http://www.w3.org/2000/svg"
   xmlns="http://www.w3.org/2000/svg"
   xmlns:sodipodi="http://sodipodi.sourceforge.net/DTD/sodipodi-0.dtd"
   xmlns:inkscape="http://www.inkscape.org/namespaces/inkscape"
   version="1.2"
   width="71.879997mm"
   height="52.119999mm"
   viewBox="0 0 7187.9997 5211.9999"
   preserveAspectRatio="xMidYMid"
   xml:space="preserve"
   id="svg124"
   sodipodi:docname="dreidel.svg"
   style="fill-rule:evenodd;stroke-width:28.22200012;stroke-linejoin:round"
   inkscape:version="0.92.5 (2060ec1f9f, 2020-04-08)"><metadata
   id="metadata128"><rdf:RDF><cc:Work
       rdf:about=""><dc:format>image/svg+xml</dc:format><dc:type
         rdf:resource="http://purl.org/dc/dcmitype/StillImage" /></cc:Work></rdf:RDF></metadata><sodipodi:namedview
   pagecolor="#ffffff"
   bordercolor="#666666"
   borderopacity="1"
   objecttolerance="10"
   gridtolerance="10"
   guidetolerance="10"
   inkscape:pageopacity="0"
   inkscape:pageshadow="2"
   inkscape:window-width="664"
   inkscape:window-height="487"
   id="namedview126"
   showgrid="false"
   inkscape:zoom="0.2102413"
   inkscape:cx="135.83622"
   inkscape:cy="98.494486"
   inkscape:window-x="0"
   inkscape:window-y="0"
   inkscape:window-maximized="0"
   inkscape:current-layer="svg124" />
 <defs
   class="ClipPathGroup"
   id="defs8">
  <clipPath
   id="presentation_clip_path"
   clipPathUnits="userSpaceOnUse">
   <rect
   x="0"
   y="0"
   width="21000"
   height="29700"
   id="rect2" />
  </clipPath>
  <clipPath
   id="presentation_clip_path_shrink"
   clipPathUnits="userSpaceOnUse">
   <rect
   x="21"
   y="29"
   width="20958"
   height="29641"
   id="rect5" />
  </clipPath>
 </defs>
 <defs
   class="TextShapeIndex"
   id="defs12">
  <g
   ooo:slide="id1"
   ooo:id-list="id3"
   id="g10" />
 </defs>
 <defs
   class="EmbeddedBulletChars"
   id="defs44">
  <g
   id="bullet-char-template-57356"
   transform="matrix(4.8828125e-4,0,0,-4.8828125e-4,0,0)">
   <path
   d="M 580,1141 1163,571 580,0 -4,571 Z"
   id="path14"
   inkscape:connector-curvature="0" />
  </g>
  <g
   id="bullet-char-template-57354"
   transform="matrix(4.8828125e-4,0,0,-4.8828125e-4,0,0)">
   <path
   d="M 8,1128 H 1137 V 0 H 8 Z"
   id="path17"
   inkscape:connector-curvature="0" />
  </g>
  <g
   id="bullet-char-template-10146"
   transform="matrix(4.8828125e-4,0,0,-4.8828125e-4,0,0)">
   <path
   d="M 174,0 602,739 174,1481 1456,739 Z M 1358,739 309,1346 659,739 Z"
   id="path20"
   inkscape:connector-curvature="0" />
  </g>
  <g
   id="bullet-char-template-10132"
   transform="matrix(4.8828125e-4,0,0,-4.8828125e-4,0,0)">
   <path
   d="M 2015,739 1276,0 H 717 l 543,543 H 174 v 393 h 1086 l -543,545 h 557 z"
   id="path23"
   inkscape:connector-curvature="0" />
  </g>
  <g
   id="bullet-char-template-10007"
   transform="matrix(4.8828125e-4,0,0,-4.8828125e-4,0,0)">
   <path
   d="m 0,-2 c -7,16 -16,29 -25,39 l 381,530 c -94,256 -141,385 -141,387 0,25 13,38 40,38 9,0 21,-2 34,-5 21,4 42,12 65,25 l 27,-13 111,-251 280,301 64,-25 24,25 c 21,-10 41,-24 62,-43 C 886,937 835,863 770,784 769,783 710,716 594,584 L 774,223 c 0,-27 -21,-55 -63,-84 l 16,-20 C 717,90 699,76 672,76 641,76 570,178 457,381 L 164,-76 c -22,-34 -53,-51 -92,-51 -42,0 -63,17 -64,51 -7,9 -10,24 -10,44 0,9 1,19 2,30 z"
   id="path26"
   inkscape:connector-curvature="0" />
  </g>
  <g
   id="bullet-char-template-10004"
   transform="matrix(4.8828125e-4,0,0,-4.8828125e-4,0,0)">
   <path
   d="M 285,-33 C 182,-33 111,30 74,156 52,228 41,333 41,471 c 0,78 14,145 41,201 34,71 87,106 158,106 53,0 88,-31 106,-94 l 23,-176 c 8,-64 28,-97 59,-98 l 735,706 c 11,11 33,17 66,17 42,0 63,-15 63,-46 V 965 c 0,-36 -10,-64 -30,-84 L 442,47 C 390,-6 338,-33 285,-33 Z"
   id="path29"
   inkscape:connector-curvature="0" />
  </g>
  <g
   id="bullet-char-template-9679"
   transform="matrix(4.8828125e-4,0,0,-4.8828125e-4,0,0)">
   <path
   d="M 813,0 C 632,0 489,54 383,161 276,268 223,411 223,592 c 0,181 53,324 160,431 106,107 249,161 430,161 179,0 323,-54 432,-161 108,-107 162,-251 162,-431 0,-180 -54,-324 -162,-431 C 1136,54 992,0 813,0 Z"
   id="path32"
   inkscape:connector-curvature="0" />
  </g>
  <g
   id="bullet-char-template-8226"
   transform="matrix(4.8828125e-4,0,0,-4.8828125e-4,0,0)">
   <path
   d="m 346,457 c -73,0 -137,26 -191,78 -54,51 -81,114 -81,188 0,73 27,136 81,188 54,52 118,78 191,78 73,0 134,-26 185,-79 51,-51 77,-114 77,-187 0,-75 -25,-137 -76,-188 -50,-52 -112,-78 -186,-78 z"
   id="path35"
   inkscape:connector-curvature="0" />
  </g>
  <g
   id="bullet-char-template-8211"
   transform="matrix(4.8828125e-4,0,0,-4.8828125e-4,0,0)">
   <path
   d="M -4,459 H 1135 V 606 H -4 Z"
   id="path38"
   inkscape:connector-curvature="0" />
  </g>
  <g
   id="bullet-char-template-61548"
   transform="matrix(4.8828125e-4,0,0,-4.8828125e-4,0,0)">
   <path
   d="m 173,740 c 0,163 58,303 173,419 116,115 255,173 419,173 163,0 302,-58 418,-173 116,-116 174,-256 174,-419 0,-163 -58,-303 -174,-418 C 1067,206 928,148 765,148 601,148 462,206 346,322 231,437 173,577 173,740 Z"
   id="path41"
   inkscape:connector-curvature="0" />
  </g>
 </defs>
 <g
   id="g49"
   transform="translate(-6906,-12244)">
  <g
   id="id2"
   class="Master_Slide">
   <g
   id="bg-id2"
   class="Background" />
   <g
   id="bo-id2"
   class="BackgroundObjects" />
  </g>
 </g>
 <g
   class="SlideGroup"
   id="g122"
   transform="translate(-6906,-12244)">
  <g
   id="g120">
   <g
   id="container-id1">
    <g
   id="id1"
   class="Slide"
   clip-path="url(#presentation_clip_path)">
     <g
   class="Page"
   id="g116">
      <g
   class="Graphic"
   id="g114">
       <g
   id="id3">
        <rect
   class="BoundingBox"
   x="6906"
   y="12244"
   width="7188"
   height="5212"
   id="rect51"
   style="fill:none;stroke:none" />
        <path
   d="m 11742,16256 -569,251 -71,190 v 13 l -70,296 17,57 433,367 v 8 l 167,-450 499,-238 z"
   id="path53"
   inkscape:connector-curvature="0"
   style="fill:#da253f;stroke:none" />
        <path
   d="m 12135,16759 -481,251 -177,415 649,-62 z"
   id="path55"
   inkscape:connector-curvature="0"
   style="fill:#cc9900;stroke:none" />
        <path
   d="m 11380,16388 -516,-512 -62,18 -62,57 -26,44 -13,84 485,419 z"
   id="path57"
   inkscape:connector-curvature="0"
   style="fill:#cc9900;stroke:none" />
        <path
   d="m 11226,16485 463,486 44,53 402,300 35,53 h -9 l -9,13 -639,62 -22,-53 75,-9 494,-49 -402,-304 -114,331 -31,26 h -49 l 163,-410 -445,-464 z"
   id="path59"
   inkscape:connector-curvature="0"
   style="fill:#000000;stroke:none" />
        <path
   d="m 11411,16370 -520,-516 -76,9 -70,40 -40,53 -26,75 9,66 480,419 40,-35 -481,-420 v -61 l 31,-36 40,-44 35,-17 40,-5 485,508 z"
   id="path61"
   inkscape:connector-curvature="0"
   style="fill:#000000;stroke:none" />
        <path
   d="m 11191,16463 295,-141 247,-93 31,5 415,503 4,31 -17,613 -89,-57 45,-539 -428,234 -58,-18 9,-39 h 13 l 442,-217 -367,-472 -467,212 -58,31 -35,44 -106,428 4,53 415,349 58,4 -9,58 -44,-5 h -9 l -450,-379 -18,-40 -4,-75 136,-468 z"
   id="path63"
   inkscape:connector-curvature="0"
   style="fill:#000000;stroke:none" />
        <path
   d="m 11694,16406 -80,39 -97,45 -9,22 13,22 31,17 62,-26 58,-35 70,97 75,79 -9,27 -57,26 9,22 35,27 66,-18 71,-31 v -31 l -35,-40 -45,-26 -75,-84 -44,-71 v -26 l -22,-27 z"
   id="path65"
   inkscape:connector-curvature="0"
   style="fill:#000000;stroke:none" />
        <path
   d="m 11155,17010 36,-62 13,-61 4,-102 13,-9 49,9 110,88 119,120 5,35 -9,40 h -9 l -31,-18 -110,-97 -88,-75 v 44 l -9,57 -31,36 -53,17 z"
   id="path67"
   inkscape:connector-curvature="0"
   style="fill:#000000;stroke:none" />
        <path
   d="m 11257,17076 44,-26 h 22 l 115,79 26,36 -18,39 -26,9 -119,-101 z"
   id="path69"
   inkscape:connector-curvature="0"
   style="fill:#000000;stroke:none" />
        <path
   d="m 9509,15850 67,-45 110,-22 h 137 75 l 35,-481 110,-39 142,22 26,35 v 9 l -66,472 101,31 89,40 30,75 v 26 l -22,371 9,225 -441,402 -40,-9 -388,-503 18,-508 v 5 z"
   id="path71"
   inkscape:connector-curvature="0"
   style="fill:#cc9900;stroke:none" />
        <path
   d="m 9501,15845 -14,627 40,35 110,53 119,40 120,22 136,-5 133,-22 203,-44 9,-591 -9,-53 -159,49 -203,22 -159,-5 -146,-31 h -8 l -106,-48 z"
   id="path73"
   inkscape:connector-curvature="0"
   style="fill:#3366ff;stroke:none" />
        <path
   d="m 9929,15872 26,-530 h 9 l 48,27 62,13 66,-5 40,-13 -66,446 9,22 h 9 l 35,-4 13,-27 57,-490 -22,-48 -39,-27 -84,-13 -9,4 -97,5 -66,31 -27,44 -22,538 13,27 27,8 z"
   id="path75"
   inkscape:connector-curvature="0"
   style="fill:#000000;stroke:none" />
        <path
   d="m 9456,16459 18,-623 31,-13 26,18 -30,609 388,485 h 31 l 17,-13 389,-375 v -591 l 9,-18 35,9 h 4 l 18,17 -22,133 -9,167 9,301 -9,26 -256,234 -181,172 h -26 l -27,-9 -31,-26 -132,-194 -168,-208 -70,-70 -14,-18 z"
   id="path77"
   inkscape:connector-curvature="0"
   style="fill:#000000;stroke:none" />
        <path
   d="m 10339,15660 44,26 35,49 5,44 -13,75 -31,53 -9,4 -58,45 -97,39 -70,13 h -88 l -14,-17 58,-13 97,-18 70,-31 62,-44 40,-57 9,-67 -22,-48 -53,-36 h -9 l -13,-22 8,-8 z"
   id="path79"
   inkscape:connector-curvature="0"
   style="fill:#5f5f5f;stroke:none" />
        <path
   d="m 9576,15563 75,-44 66,-22 h 26 l 13,22 -57,13 -70,53 -58,57 -4,5 -31,57 -9,4 -9,84 v 66 l 27,75 44,53 62,45 75,35 70,13 88,4 89,-13 22,9 -31,13 -102,22 h -88 l -84,-17 -84,-31 -57,-49 -57,-66 -22,-62 -9,-75 v -75 l 22,-66 35,-57 31,-31 z"
   id="path81"
   inkscape:connector-curvature="0"
   style="fill:#5f5f5f;stroke:none" />
        <path
   d="m 9320,15995 35,-57 53,-44 22,4 -18,22 -48,66 -18,62 v 58 l 22,48 35,53 53,53 67,49 61,30 80,18 70,5 49,-5 22,5 v 30 l -18,18 h -8 l -40,4 -106,-4 -66,-18 -66,-26 -53,-35 -49,-49 -35,-57 -40,-71 -13,-62 4,-53 z"
   id="path83"
   inkscape:connector-curvature="0"
   style="fill:#5f5f5f;stroke:none" />
        <path
   d="m 10458,16141 h 27 l 4,48 -13,71 -31,53 -9,9 -57,40 -97,35 -71,17 h -88 l -14,-17 58,-13 97,-18 71,-31 61,-40 40,-61 9,-62 z"
   id="path85"
   inkscape:connector-curvature="0"
   style="fill:#5f5f5f;stroke:none" />
        <path
   d="m 9924,16560 93,31 88,18 h 110 l 93,-14 93,-26 61,-22 40,-27 13,-22 -8,-26 -36,-18 40,-4 27,13 26,31 v 35 l -4,5 -36,31 -92,44 -93,26 -124,13 h -8 l -67,-8 h -8 l -98,-18 -83,-31 -67,-44 53,13 z"
   id="path87"
   inkscape:connector-curvature="0"
   style="fill:#5f5f5f;stroke:none" />
        <path
   d="m 8036,13846 61,-49 80,-13 h 101 l 111,22 79,40 62,71 57,70 62,124 40,123 v 146 l -14,146 -26,141 -40,137 -57,97 -80,119 -83,101 -89,80 -79,57 -150,71 -146,48 -114,9 -14,5 -88,-22 -71,-53 -61,-84 -22,-106 13,-159 48,-106 93,-101 106,-67 71,-84 44,-110 17,-115 -8,-123 -14,-137 5,-115 v 18 l 48,-119 z"
   id="path89"
   inkscape:connector-curvature="0"
   style="fill:#000000;stroke:none" />
        <path
   d="m 8331,13811 128,9 128,70 106,88 13,9 155,84 110,53 141,40 146,13 194,13 119,-9 h 18 22 l 13,-8 27,-9 8,-13 14,-9 17,-9 14,-13 17,-18 13,-13 14,-9 13,-18 18,-13 8,-18 14,-13 17,-4 22,-14 18,-13 22,-4 18,-5 26,5 18,4 9,13 13,18 9,22 v 18 l -9,13 -13,18 -22,13 -18,18 -18,4 -13,4 -18,9 -13,5 -17,17 -14,5 -17,9 -18,8 -13,9 -22,18 -18,13 v 18 l 9,13 13,9 18,9 h 13 18 17 l 22,-9 h 31 l 13,-9 h 18 22 l 27,9 13,13 13,13 13,14 9,17 v 13 l -9,27 -8,22 -9,22 h -14 l -17,18 h -13 -27 l -13,4 h -18 l -17,-13 -14,-5 -17,-13 -14,-13 -17,-9 -13,-9 -18,-4 -13,-18 h -18 l -22,-9 -9,18 v 13 l 9,18 4,18 9,22 9,13 13,18 18,26 9,13 4,27 5,31 v 22 17 l -9,14 v 17 l -9,22 -13,14 -18,8 -26,5 -27,-9 -13,-4 -22,-5 -13,-22 -5,-26 v -22 -18 -13 -18 l -4,-18 v -22 -17 -22 -18 l -9,-27 -9,-17 -4,-22 -14,-13 -17,-14 -5,-17 -13,-5 -101,-17 -247,-23 -203,-39 -199,-58 -291,-70 -190,-111 -40,-97 31,-66 z"
   id="path91"
   inkscape:connector-curvature="0"
   style="fill:#000000;stroke:none" />
        <path
   d="m 7780,13731 172,49 216,40 88,57 -35,123 -4,14 -84,57 h -137 l -207,-132 -159,-80 -212,-70 -212,-58 -115,-39 -61,-62 -18,-27 -9,-53 27,-101 61,-111 71,-136 26,-177 9,-150 -9,-123 -39,-115 -18,-18 -9,-13 -13,-18 -9,-13 -13,-13 -18,-13 -13,-5 -9,-13 -9,-13 -22,-9 -17,-13 -18,-5 -13,-4 -22,-9 -14,-9 -13,-13 -9,-18 -4,-13 v -18 -13 l 13,-13 18,-13 22,-9 18,-5 h 22 l 13,14 9,17 9,13 17,18 13,9 9,13 14,22 13,18 13,13 13,13 18,14 h 18 l 13,-14 v -13 l 9,-13 v -18 -22 -17 l -9,-23 -9,-17 -4,-22 -18,-18 v -13 -22 -22 -14 l 18,-13 13,-13 h 17 l 14,13 h 17 l 9,18 9,13 4,18 9,22 9,13 v 13 14 17 22 18 l -9,13 v 22 18 l 9,18 v 13 17 14 17 14 l 9,17 h 13 18 l 13,9 18,-9 h 13 l 13,-22 13,-9 18,-17 13,-9 18,-13 h 22 18 l 22,8 22,5 17,18 v 17 22 l -8,13 v 18 l -14,9 -9,18 -22,13 -17,9 -22,8 -18,5 -18,4 h -13 -18 -13 -17 -14 l -17,14 -9,13 -9,115 -4,225 -27,207 -31,159 -26,132 26,40 97,31 142,40 158,31 z"
   id="path93"
   inkscape:connector-curvature="0"
   style="fill:#000000;stroke:none" />
        <path
   d="m 8918,13290 18,-159 -18,-124 -13,-88 -35,-62 -45,-70 -70,-49 -80,-39 -79,-18 h -101 l -76,31 -70,57 -71,97 -39,93 -40,141 -22,141 -5,133 18,92 40,80 62,71 79,39 79,22 75,-4 80,-18 75,-39 75,-67 53,-75 53,-48 h 57 l 71,48 97,89 39,26 49,-13 44,-40 -9,-53 -61,-48 -137,-62 -66,-36 z"
   id="path95"
   inkscape:connector-curvature="0"
   style="fill:#000000;stroke:none" />
        <path
   d="m 7965,15086 221,57 172,62 132,80 115,92 92,97 40,75 13,49 v 66 l -30,53 -40,53 -84,88 -79,120 -40,101 -27,93 -4,92 22,75 40,67 57,53 102,26 158,22 142,22 83,49 18,39 -31,40 -53,31 -84,31 -52,-18 -58,-39 -101,-67 -150,-44 -124,-4 -79,-5 -49,-44 -9,-48 v -53 l 18,-88 48,-120 40,-181 31,-141 35,-110 49,-80 31,-48 -5,-49 -48,-35 -88,-57 -142,-53 -150,-49 -163,-40 -106,-52 -31,-98 18,-57 71,-35 35,-18 z"
   id="path97"
   inkscape:connector-curvature="0"
   style="fill:#000000;stroke:none" />
        <path
   d="m 7608,15042 -36,110 18,93 53,110 66,80 93,84 97,110 31,44 v 40 l -27,57 -70,35 -111,31 -132,62 -115,71 -79,79 -58,97 -30,89 -27,114 -26,102 -27,79 13,49 27,31 62,8 79,-22 124,22 136,58 53,70 58,23 92,-23 97,-48 9,-35 -17,-36 -111,-70 -163,-36 -168,-13 -70,-26 -31,-31 -22,-53 13,-80 27,-92 61,-80 106,-75 124,-62 145,-61 146,-58 62,-44 35,-62 13,-66 -17,-62 -49,-88 -62,-119 -61,-172 -71,-155 -88,-106 h -18 l -62,-8 z"
   id="path99"
   inkscape:connector-curvature="0"
   style="fill:#000000;stroke:none" />
        <path
   d="m 12179,13956 -53,-159 -26,-128 -14,-119 14,-114 39,-84 80,-66 97,-40 92,-22 120,9 114,44 58,61 79,98 66,114 49,119 40,164 -9,137 -18,114 -53,75 -53,53 -79,27 -102,4 -106,-13 -92,-44 -67,-40 -105,-93 -150,159 -58,93 -75,13 -53,-35 -13,-44 13,-75 49,-44 123,-84 z"
   id="path101"
   inkscape:connector-curvature="0"
   style="fill:#000000;stroke:none" />
        <path
   d="m 12713,14384 88,-53 110,-26 128,18 142,48 119,84 79,88 97,128 66,155 40,159 13,181 -22,180 -44,159 -62,133 -75,101 -97,40 -114,22 -128,-18 -128,-26 -93,-80 -66,-92 -27,-88 v -106 l 18,-93 49,-93 26,-101 9,-80 -35,-79 -67,-62 -66,-57 -48,-75 -18,-102 -9,-115 40,-83 40,-53 z"
   id="path103"
   inkscape:connector-curvature="0"
   style="fill:#000000;stroke:none" />
        <path
   d="m 12391,14583 154,-102 102,-57 119,-31 88,36 35,105 -70,102 -97,79 -181,67 -256,119 -234,163 -141,185 -106,248 -13,17 -40,230 v 79 22 l 9,18 4,22 22,18 18,8 35,14 h 18 26 l 27,4 22,9 22,13 h 26 18 l 22,13 18,5 22,22 4,17 v 23 l -13,17 -4,22 -22,18 -18,9 h -27 -22 -22 l -17,-14 -22,-13 -14,-22 -17,-13 -22,-18 -27,-13 -26,-9 -18,-13 -22,-4 -18,4 h -22 l -26,9 -27,13 -26,18 -27,9 -22,13 -17,17 -22,9 -27,27 -26,13 -22,4 -18,18 h -22 l -18,-18 -22,-13 -18,-18 -8,-22 v -26 l 13,-18 9,-22 13,-17 18,-9 22,-5 h 17 22 22 18 l 22,-8 18,-5 22,-13 13,-22 v -18 h -22 l -26,-13 -18,-9 h -22 -18 l -22,9 -22,4 -26,9 -27,5 -40,8 h -17 l -22,5 h -18 l -22,-5 -13,-26 -5,-27 v -22 l 5,-26 22,-13 17,-22 23,-14 30,-4 27,-9 22,13 h 18 22 l 17,9 31,13 18,5 35,9 18,4 22,9 h 18 l 52,-106 53,-221 58,-207 84,-185 123,-164 124,-119 141,-119 79,-62 z"
   id="path105"
   inkscape:connector-curvature="0"
   style="fill:#000000;stroke:none" />
        <path
   d="m 13141,15611 79,-194 84,-53 22,9 75,-13 58,66 26,106 -66,132 -80,80 -145,128 -230,242 155,-61 159,-67 251,-61 119,-45 67,-57 61,-106 27,-17 44,-9 53,9 26,17 18,36 -18,57 -53,123 -13,18 -13,22 v 18 l -5,22 v 18 l -8,22 -5,22 -9,17 -4,22 v 18 22 18 22 17 l -9,23 -4,17 -22,13 -18,14 -22,8 -26,5 -23,9 h -17 -27 l -26,9 -22,-9 h -18 l -26,-9 -14,-18 -22,-9 -13,-17 -9,-22 v -18 l 14,-22 30,-4 18,-22 22,-14 13,-17 18,-14 22,-22 53,-114 -146,88 -176,88 -238,80 -177,44 -119,22 -75,-22 -44,-31 -27,-66 14,-75 26,-80 66,-66 97,-102 115,-114 80,-71 z"
   id="path107"
   inkscape:connector-curvature="0"
   style="fill:#000000;stroke:none" />
        <path
   d="m 12761,15510 80,-194 84,-53 22,8 75,-13 57,66 27,106 -67,133 -79,79 -146,128 -229,243 154,-62 159,-66 247,-62 124,-44 66,-57 57,-106 27,-18 48,-9 53,9 27,18 13,35 -13,57 -53,124 -13,18 -14,22 v 17 l -8,22 v 18 l -5,22 -9,22 -4,18 -9,22 v 18 22 17 22 18 l -4,22 -9,18 -18,13 -22,13 -17,9 -27,4 -22,9 h -18 -26 l -31,9 -18,-9 h -22 l -26,-9 -13,-17 -18,-9 -13,-18 -9,-22 v -17 l 13,-23 27,-4 22,-22 17,-13 13,-18 23,-13 22,-22 53,-115 -150,88 -173,89 -238,79 -176,44 -119,22 -71,-22 -49,-31 -26,-66 13,-75 27,-79 66,-67 101,-101 115,-115 79,-70 z"
   id="path109"
   inkscape:connector-curvature="0"
   style="fill:#000000;stroke:none" />
        <path
   d="m 13026,14345 -106,17 -44,53 5,106 61,53 93,27 194,-18 177,-22 181,-40 154,-53 128,-79 71,-53 53,-93 22,-115 4,-167 -53,-146 -53,-154 -26,-172 v -142 l 8,-17 5,-22 13,-22 22,-5 13,-22 18,-4 22,-9 18,-5 22,-13 h 17 l 14,-22 13,-18 9,-22 9,-17 v -22 l -22,-14 -23,-4 -17,-9 h -22 l -18,9 -22,13 -18,13 -22,18 -17,9 -22,18 -14,22 -13,17 -18,9 -22,-9 -4,-17 -9,-22 13,-18 14,-27 13,-26 v -22 l -18,-13 -9,-18 -17,-22 -22,-9 h -27 l -22,9 -13,22 -13,18 -5,22 v 17 22 l 5,18 13,22 9,18 v 22 l 4,18 9,22 v 17 l 13,22 -13,22 -22,5 -18,9 h -26 -27 l -26,-9 -22,-5 h -18 -22 -18 -26 l -22,5 -13,22 -14,18 -8,22 v 17 l 30,22 18,5 22,9 18,13 h 22 18 l 22,-9 26,-4 18,-9 22,-5 h 17 l 23,-13 57,31 18,203 30,185 14,142 -14,119 -48,119 -84,66 -168,49 -194,13 h -198 z"
   id="path111"
   inkscape:connector-curvature="0"
   style="fill:#000000;stroke:none" />
       </g>
      </g>
     </g>
    </g>
   </g>
  </g>
 </g>
</svg>