<?xml version="1.0" encoding="UTF-8" standalone="no"?>
<svg
   xmlns:ooo="http://xml.openoffice.org/svg/export"
   xmlns:dc="http://purl.org/dc/elements/1.1/"
   xmlns:cc="http://creativecommons.org/ns#"
   xmlns:rdf="http://www.w3.org/1999/02/22-rdf-syntax-ns#"
   xmlns:svg="http://www.w3.org/2000/svg"
   xmlns="http://www.w3.org/2000/svg"
   xmlns:sodipodi="http://sodipodi.sourceforge.net/DTD/sodipodi-0.dtd"
   xmlns:inkscape="http://www.inkscape.org/namespaces/inkscape"
   version="1.2"
   width="84.449997mm"
   height="67.25mm"
   viewBox="0 0 8444.9997 6725"
   preserveAspectRatio="xMidYMid"
   xml:space="preserve"
   id="svg113"
   sodipodi:docname="frustrat.svg"
   style="fill-rule:evenodd;stroke-width:28.22200012;stroke-linejoin:round"
   inkscape:version="0.92.5 (2060ec1f9f, 2020-04-08)"><metadata
   id="metadata117"><rdf:RDF><cc:Work
       rdf:about=""><dc:format>image/svg+xml</dc:format><dc:type
         rdf:resource="http://purl.org/dc/dcmitype/StillImage" /></cc:Work></rdf:RDF></metadata><sodipodi:namedview
   pagecolor="#ffffff"
   bordercolor="#666666"
   borderopacity="1"
   objecttolerance="10"
   gridtolerance="10"
   guidetolerance="10"
   inkscape:pageopacity="0"
   inkscape:pageshadow="2"
   inkscape:window-width="664"
   inkscape:window-height="487"
   id="namedview115"
   showgrid="false"
   inkscape:zoom="0.2102413"
   inkscape:cx="159.60945"
   inkscape:cy="127.06771"
   inkscape:window-x="0"
   inkscape:window-y="0"
   inkscape:window-maximized="0"
   inkscape:current-layer="svg113" />
 <defs
   class="ClipPathGroup"
   id="defs8">
  <clipPath
   id="presentation_clip_path"
   clipPathUnits="userSpaceOnUse">
   <rect
   x="0"
   y="0"
   width="21000"
   height="29700"
   id="rect2" />
  </clipPath>
  <clipPath
   id="presentation_clip_path_shrink"
   clipPathUnits="userSpaceOnUse">
   <rect
   x="21"
   y="29"
   width="20958"
   height="29641"
   id="rect5" />
  </clipPath>
 </defs>
 <defs
   class="TextShapeIndex"
   id="defs12">
  <g
   ooo:slide="id1"
   ooo:id-list="id3"
   id="g10" />
 </defs>
 <defs
   class="EmbeddedBulletChars"
   id="defs44">
  <g
   id="bullet-char-template-57356"
   transform="matrix(4.8828125e-4,0,0,-4.8828125e-4,0,0)">
   <path
   d="M 580,1141 1163,571 580,0 -4,571 Z"
   id="path14"
   inkscape:connector-curvature="0" />
  </g>
  <g
   id="bullet-char-template-57354"
   transform="matrix(4.8828125e-4,0,0,-4.8828125e-4,0,0)">
   <path
   d="M 8,1128 H 1137 V 0 H 8 Z"
   id="path17"
   inkscape:connector-curvature="0" />
  </g>
  <g
   id="bullet-char-template-10146"
   transform="matrix(4.8828125e-4,0,0,-4.8828125e-4,0,0)">
   <path
   d="M 174,0 602,739 174,1481 1456,739 Z M 1358,739 309,1346 659,739 Z"
   id="path20"
   inkscape:connector-curvature="0" />
  </g>
  <g
   id="bullet-char-template-10132"
   transform="matrix(4.8828125e-4,0,0,-4.8828125e-4,0,0)">
   <path
   d="M 2015,739 1276,0 H 717 l 543,543 H 174 v 393 h 1086 l -543,545 h 557 z"
   id="path23"
   inkscape:connector-curvature="0" />
  </g>
  <g
   id="bullet-char-template-10007"
   transform="matrix(4.8828125e-4,0,0,-4.8828125e-4,0,0)">
   <path
   d="m 0,-2 c -7,16 -16,29 -25,39 l 381,530 c -94,256 -141,385 -141,387 0,25 13,38 40,38 9,0 21,-2 34,-5 21,4 42,12 65,25 l 27,-13 111,-251 280,301 64,-25 24,25 c 21,-10 41,-24 62,-43 C 886,937 835,863 770,784 769,783 710,716 594,584 L 774,223 c 0,-27 -21,-55 -63,-84 l 16,-20 C 717,90 699,76 672,76 641,76 570,178 457,381 L 164,-76 c -22,-34 -53,-51 -92,-51 -42,0 -63,17 -64,51 -7,9 -10,24 -10,44 0,9 1,19 2,30 z"
   id="path26"
   inkscape:connector-curvature="0" />
  </g>
  <g
   id="bullet-char-template-10004"
   transform="matrix(4.8828125e-4,0,0,-4.8828125e-4,0,0)">
   <path
   d="M 285,-33 C 182,-33 111,30 74,156 52,228 41,333 41,471 c 0,78 14,145 41,201 34,71 87,106 158,106 53,0 88,-31 106,-94 l 23,-176 c 8,-64 28,-97 59,-98 l 735,706 c 11,11 33,17 66,17 42,0 63,-15 63,-46 V 965 c 0,-36 -10,-64 -30,-84 L 442,47 C 390,-6 338,-33 285,-33 Z"
   id="path29"
   inkscape:connector-curvature="0" />
  </g>
  <g
   id="bullet-char-template-9679"
   transform="matrix(4.8828125e-4,0,0,-4.8828125e-4,0,0)">
   <path
   d="M 813,0 C 632,0 489,54 383,161 276,268 223,411 223,592 c 0,181 53,324 160,431 106,107 249,161 430,161 179,0 323,-54 432,-161 108,-107 162,-251 162,-431 0,-180 -54,-324 -162,-431 C 1136,54 992,0 813,0 Z"
   id="path32"
   inkscape:connector-curvature="0" />
  </g>
  <g
   id="bullet-char-template-8226"
   transform="matrix(4.8828125e-4,0,0,-4.8828125e-4,0,0)">
   <path
   d="m 346,457 c -73,0 -137,26 -191,78 -54,51 -81,114 -81,188 0,73 27,136 81,188 54,52 118,78 191,78 73,0 134,-26 185,-79 51,-51 77,-114 77,-187 0,-75 -25,-137 -76,-188 -50,-52 -112,-78 -186,-78 z"
   id="path35"
   inkscape:connector-curvature="0" />
  </g>
  <g
   id="bullet-char-template-8211"
   transform="matrix(4.8828125e-4,0,0,-4.8828125e-4,0,0)">
   <path
   d="M -4,459 H 1135 V 606 H -4 Z"
   id="path38"
   inkscape:connector-curvature="0" />
  </g>
  <g
   id="bullet-char-template-61548"
   transform="matrix(4.8828125e-4,0,0,-4.8828125e-4,0,0)">
   <path
   d="m 173,740 c 0,163 58,303 173,419 116,115 255,173 419,173 163,0 302,-58 418,-173 116,-116 174,-256 174,-419 0,-163 -58,-303 -174,-418 C 1067,206 928,148 765,148 601,148 462,206 346,322 231,437 173,577 173,740 Z"
   id="path41"
   inkscape:connector-curvature="0" />
  </g>
 </defs>
 <g
   id="g49"
   transform="translate(-6277,-11487)">
  <g
   id="id2"
   class="Master_Slide">
   <g
   id="bg-id2"
   class="Background" />
   <g
   id="bo-id2"
   class="BackgroundObjects" />
  </g>
 </g>
 <g
   class="SlideGroup"
   id="g111"
   transform="translate(-6277,-11487)">
  <g
   id="g109">
   <g
   id="container-id1">
    <g
   id="id1"
   class="Slide"
   clip-path="url(#presentation_clip_path)">
     <g
   class="Page"
   id="g105">
      <g
   class="Graphic"
   id="g103">
       <g
   id="id3">
        <rect
   class="BoundingBox"
   x="6277"
   y="11487"
   width="8445"
   height="6725"
   id="rect51"
   style="fill:none;stroke:none" />
        <defs
   id="defs56">
         <clipPath
   id="clip_path_1"
   clipPathUnits="userSpaceOnUse">
          <path
   d="m 6277,11487 h 8444 v 6724 H 6277 Z"
   id="path53"
   inkscape:connector-curvature="0" />
         </clipPath>
        </defs>
        <g
   clip-path="url(#clip_path_1)"
   id="g100">
         <path
   d="m 7049,16778 -300,269 -375,327 v 278 l 62,511 631,-22 706,-75 1050,-22 790,22 273,-507 327,-989 -62,-300 -119,-119 -353,22 163,-750 22,-234 -84,-582 -84,-433 -145,-185 h -110 l -287,49 -459,22 -300,-45 -327,-17 -123,31 -278,128 -410,110 -521,181 -199,115 -181,194 -39,287 v 476 l 22,565 39,331 80,194 123,97 146,40 z"
   id="path58"
   inkscape:connector-curvature="0"
   style="fill:#dadada;stroke:none" />
         <path
   d="m 6705,15216 22,-318 49,-93 141,-35 565,-18 692,-8 406,8 97,62 71,119 106,512 97,565 22,357 -35,62 -124,44 -596,-13 -917,-44 -450,-40 -75,-92 -40,-181 -44,-446 z"
   id="path60"
   inkscape:connector-curvature="0"
   style="fill:#bfbfbf;stroke:none" />
         <path
   d="m 6312,17374 486,-420 13,97 -331,301 582,-27 1231,4 653,-48 411,-75 101,-27 481,-966 -225,-62 335,-57 124,106 57,357 -97,291 -313,945 -146,291 -132,35 -993,-17 -1041,26 -988,75 -146,9 -13,-278 -22,-274 -5,-145 84,88 18,225 31,238 282,40 649,-62 547,-44 h 459 688 l 437,-4 13,-128 -40,-269 -35,-296 62,71 62,326 57,168 66,-84 119,-327 177,-463 123,-375 22,-115 -61,-264 -67,-18 -132,313 -229,411 -164,317 -167,49 -600,75 -706,44 h -697 l -790,4 z"
   id="path62"
   inkscape:connector-curvature="0"
   style="fill:#000000;stroke:none" />
         <path
   d="m 7084,16897 142,-84 70,22 -44,106 -106,66 203,97 305,14 264,-22 190,-22 357,-36 230,-22 150,-44 146,-93 -14,-66 84,22 -22,225 -216,106 -477,27 -485,48 -278,36 -335,-84 -164,-49 -48,-128 z"
   id="path64"
   inkscape:connector-curvature="0"
   style="fill:#000000;stroke:none" />
         <path
   d="m 6731,17603 195,-9 8,186 h -211 z"
   id="path66"
   inkscape:connector-curvature="0"
   style="fill:#000000;stroke:none" />
         <path
   d="m 7124,17581 194,-9 9,185 h -212 z"
   id="path68"
   inkscape:connector-curvature="0"
   style="fill:#000000;stroke:none" />
         <path
   d="m 8399,17581 839,-66 22,141 -861,75 z"
   id="path70"
   inkscape:connector-curvature="0"
   style="fill:#000000;stroke:none" />
         <path
   d="m 6581,16654 -101,-106 -62,-181 -22,-401 v -666 l 22,-503 62,-115 110,-146 269,-106 477,-141 393,-101 176,-106 313,-27 556,49 459,-27 194,-44 159,44 106,278 66,508 66,401 -30,186 -124,454 -159,459 -106,172 -70,84 106,62 110,-194 168,-411 123,-437 44,-216 13,-203 -39,-340 -66,-507 -98,-278 -88,-124 -145,-35 -190,57 -282,18 h -362 l -375,-53 -252,13 -128,49 -282,137 -543,150 -521,172 -145,181 -93,242 -13,486 22,459 18,472 84,274 83,145 146,49 84,-27 z"
   id="path72"
   inkscape:connector-curvature="0"
   style="fill:#000000;stroke:none" />
         <path
   d="m 6568,16685 521,35 728,18 h 582 l 521,-62 344,-53 97,-48 v -252 l -128,-670 -145,-812 -75,-296 -71,-110 -896,97 -878,22 -481,13 -167,22 92,-119 208,22 600,-22 569,-35 503,-40 481,-44 375,-172 207,-190 84,93 -194,114 -287,190 -88,62 101,432 84,420 71,384 62,366 57,273 26,234 -39,128 -397,97 -697,49 -733,-27 h -534 l -441,-13 z"
   id="path74"
   inkscape:connector-curvature="0"
   style="fill:#000000;stroke:none" />
         <path
   d="m 6868,14752 715,-26 490,-22 547,9 84,61 66,98 119,511 88,583 44,401 -44,128 -110,27 -631,-71 657,-57 36,-18 -13,-273 -49,-389 -106,-525 -84,-331 -84,-48 -392,-22 -534,22 -441,-13 z"
   id="path76"
   inkscape:connector-curvature="0"
   style="fill:#000000;stroke:none" />
         <path
   d="m 7636,14730 h -693 l -198,22 -36,75 -39,155 -22,415 22,406 53,401 88,163 40,40 441,44 569,22 424,5 503,22 -23,-62 -392,-31 -512,-35 -710,-5 -256,-79 -80,-62 -26,-114 -35,-336 -9,-419 31,-424 39,-97 464,-62 z"
   id="path78"
   inkscape:connector-curvature="0"
   style="fill:#000000;stroke:none" />
         <path
   d="m 13597,12339 -596,379 -547,283 -269,203 -216,242 -58,159 97,150 190,71 261,-318 255,-238 371,-225 322,-172 402,-212 -62,-172 z"
   id="path80"
   inkscape:connector-curvature="0"
   style="fill:#d8c899;stroke:none" />
         <path
   d="m 13998,12961 -467,-649 -93,-150 22,-101 -150,-22 -84,-80 93,-229 168,-128 207,-62 132,35 36,212 114,27 269,308 261,380 145,238 45,291 -71,248 -106,176 -57,35 -128,-66 57,-287 -181,225 -128,155 -92,-44 70,-300 z"
   id="path82"
   inkscape:connector-curvature="0"
   style="fill:#bfbfbf;stroke:none" />
         <path
   d="m 13650,11919 119,-105 48,-106 -22,-62 -61,-71 -128,44 -146,49 -84,123 -39,102 v 101 l 75,31 83,-8 22,70 v 62 l 106,212 -348,220 -406,261 -494,242 -239,239 -141,167 -4,124 110,84 97,35 106,-141 216,-252 265,-194 322,-167 327,-181 273,-146 -84,-154 40,-84 190,238 154,225 84,150 31,163 -62,252 128,-119 146,-199 4,-229 -4,-137 84,159 26,189 -40,234 84,58 40,-40 97,-252 9,-211 -44,-168 -62,-146 -168,-207 -154,-234 -159,-146 -93,-97 -39,-70 39,-84 283,296 220,291 168,260 84,203 22,186 -13,198 -111,269 -141,128 -176,-128 44,-207 -230,371 -181,-102 62,-216 13,-208 -57,-158 -168,-199 -353,190 -251,123 -274,155 -251,163 -155,194 -158,168 -124,181 -190,-75 -128,-115 -39,-137 83,-167 265,-274 278,-190 309,-194 419,-207 291,-225 -75,-133 14,-84 -168,-13 -57,-128 44,-145 84,-133 158,-119 168,-49 128,-13 88,75 58,84 -44,106 -76,110 -127,119 -133,9 z"
   id="path84"
   inkscape:connector-curvature="0"
   style="fill:#000000;stroke:none" />
         <path
   d="m 14025,12092 115,79 101,115 13,106 -106,8 -158,-136 -71,-164 z"
   id="path86"
   inkscape:connector-curvature="0"
   style="fill:#000000;stroke:none" />
         <path
   d="m 11148,14099 128,-150 168,-110 167,-26 h 177 l 119,48 66,88 40,119 9,128 -27,128 -106,137 -141,119 -172,93 -154,66 -146,-9 -79,-35 -62,-40 -71,-75 -44,-163 27,-132 -111,61 -141,49 h -79 l -49,-49 v -61 l 97,-22 115,-36 150,-66 z"
   id="path88"
   inkscape:connector-curvature="0"
   style="fill:#000000;stroke:none" />
         <path
   d="m 10760,14902 115,-101 150,-49 128,9 141,36 88,70 26,106 -66,132 -110,128 -57,155 v 141 l 57,106 71,62 57,84 4,105 -26,128 -58,84 -127,71 -137,35 -124,-22 -132,-40 -110,-105 -75,-128 -53,-168 -14,-194 22,-208 58,-163 70,-172 z"
   id="path90"
   inkscape:connector-curvature="0"
   style="fill:#000000;stroke:none" />
         <path
   d="m 11069,16372 -71,-252 9,-167 97,-44 128,22 66,83 22,287 62,278 71,247 101,195 115,119 84,176 79,128 66,62 49,84 -22,84 -49,22 -106,35 -145,26 -177,120 -57,48 -71,-22 -57,-84 22,-70 106,-75 229,-71 71,-22 35,-75 -35,-44 -106,-146 -110,-167 -128,-177 -93,-190 -97,-203 z"
   id="path92"
   inkscape:connector-curvature="0"
   style="fill:#000000;stroke:none" />
         <path
   d="m 10597,16429 44,-291 92,-216 177,-62 79,93 -22,185 -145,247 -71,300 -22,234 4,97 80,168 44,154 v 181 l -13,84 22,71 -9,75 -80,8 h -150 l -167,36 -88,48 -45,-70 36,-106 110,-53 h 124 l 110,-22 26,-62 -22,-150 -48,-216 -88,-159 -14,-168 14,-154 z"
   id="path94"
   inkscape:connector-curvature="0"
   style="fill:#000000;stroke:none" />
         <path
   d="m 11528,14850 h -217 l -185,61 35,164 128,30 252,-17 278,40 384,92 123,13 62,-75 48,-185 36,-675 v -287 l -13,-221 83,-97 84,-123 13,-93 9,-168 -317,301 -49,163 84,123 v 380 l -40,278 -35,247 -53,168 -62,106 -168,-67 -233,-83 z"
   id="path96"
   inkscape:connector-curvature="0"
   style="fill:#000000;stroke:none" />
         <path
   d="m 11007,14894 48,97 -48,101 -190,27 -40,-168 -119,-309 -106,-340 -83,-273 -22,-230 57,-141 146,-128 485,-154 445,-75 318,-71 203,-62 110,-62 142,-57 106,57 -23,124 -97,115 -128,53 -132,-53 -106,-31 -265,70 -419,98 -339,105 -256,93 -67,84 -13,101 58,226 123,335 150,300 z"
   id="path98"
   inkscape:connector-curvature="0"
   style="fill:#000000;stroke:none" />
        </g>
       </g>
      </g>
     </g>
    </g>
   </g>
  </g>
 </g>
</svg>