<?xml version="1.0" encoding="UTF-8" standalone="no"?>
<svg
   xmlns:ooo="http://xml.openoffice.org/svg/export"
   xmlns:dc="http://purl.org/dc/elements/1.1/"
   xmlns:cc="http://creativecommons.org/ns#"
   xmlns:rdf="http://www.w3.org/1999/02/22-rdf-syntax-ns#"
   xmlns:svg="http://www.w3.org/2000/svg"
   xmlns="http://www.w3.org/2000/svg"
   xmlns:sodipodi="http://sodipodi.sourceforge.net/DTD/sodipodi-0.dtd"
   xmlns:inkscape="http://www.inkscape.org/namespaces/inkscape"
   version="1.2"
   width="25.969999mm"
   height="54.200001mm"
   viewBox="0 0 2596.9999 5420.0001"
   preserveAspectRatio="xMidYMid"
   xml:space="preserve"
   id="svg106"
   sodipodi:docname="giftpile.svg"
   style="fill-rule:evenodd;stroke-width:28.22200012;stroke-linejoin:round"
   inkscape:version="0.92.5 (2060ec1f9f, 2020-04-08)"><metadata
   id="metadata110"><rdf:RDF><cc:Work
       rdf:about=""><dc:format>image/svg+xml</dc:format><dc:type
         rdf:resource="http://purl.org/dc/dcmitype/StillImage" /></cc:Work></rdf:RDF></metadata><sodipodi:namedview
   pagecolor="#ffffff"
   bordercolor="#666666"
   borderopacity="1"
   objecttolerance="10"
   gridtolerance="10"
   guidetolerance="10"
   inkscape:pageopacity="0"
   inkscape:pageshadow="2"
   inkscape:window-width="664"
   inkscape:window-height="487"
   id="namedview108"
   showgrid="false"
   inkscape:zoom="0.2102413"
   inkscape:cx="49.096064"
   inkscape:cy="102.4252"
   inkscape:window-x="0"
   inkscape:window-y="0"
   inkscape:window-maximized="0"
   inkscape:current-layer="svg106" />
 <defs
   class="ClipPathGroup"
   id="defs8">
  <clipPath
   id="presentation_clip_path"
   clipPathUnits="userSpaceOnUse">
   <rect
   x="0"
   y="0"
   width="21000"
   height="29700"
   id="rect2" />
  </clipPath>
  <clipPath
   id="presentation_clip_path_shrink"
   clipPathUnits="userSpaceOnUse">
   <rect
   x="21"
   y="29"
   width="20958"
   height="29641"
   id="rect5" />
  </clipPath>
 </defs>
 <defs
   class="TextShapeIndex"
   id="defs12">
  <g
   ooo:slide="id1"
   ooo:id-list="id3"
   id="g10" />
 </defs>
 <defs
   class="EmbeddedBulletChars"
   id="defs44">
  <g
   id="bullet-char-template-57356"
   transform="matrix(4.8828125e-4,0,0,-4.8828125e-4,0,0)">
   <path
   d="M 580,1141 1163,571 580,0 -4,571 Z"
   id="path14"
   inkscape:connector-curvature="0" />
  </g>
  <g
   id="bullet-char-template-57354"
   transform="matrix(4.8828125e-4,0,0,-4.8828125e-4,0,0)">
   <path
   d="M 8,1128 H 1137 V 0 H 8 Z"
   id="path17"
   inkscape:connector-curvature="0" />
  </g>
  <g
   id="bullet-char-template-10146"
   transform="matrix(4.8828125e-4,0,0,-4.8828125e-4,0,0)">
   <path
   d="M 174,0 602,739 174,1481 1456,739 Z M 1358,739 309,1346 659,739 Z"
   id="path20"
   inkscape:connector-curvature="0" />
  </g>
  <g
   id="bullet-char-template-10132"
   transform="matrix(4.8828125e-4,0,0,-4.8828125e-4,0,0)">
   <path
   d="M 2015,739 1276,0 H 717 l 543,543 H 174 v 393 h 1086 l -543,545 h 557 z"
   id="path23"
   inkscape:connector-curvature="0" />
  </g>
  <g
   id="bullet-char-template-10007"
   transform="matrix(4.8828125e-4,0,0,-4.8828125e-4,0,0)">
   <path
   d="m 0,-2 c -7,16 -16,29 -25,39 l 381,530 c -94,256 -141,385 -141,387 0,25 13,38 40,38 9,0 21,-2 34,-5 21,4 42,12 65,25 l 27,-13 111,-251 280,301 64,-25 24,25 c 21,-10 41,-24 62,-43 C 886,937 835,863 770,784 769,783 710,716 594,584 L 774,223 c 0,-27 -21,-55 -63,-84 l 16,-20 C 717,90 699,76 672,76 641,76 570,178 457,381 L 164,-76 c -22,-34 -53,-51 -92,-51 -42,0 -63,17 -64,51 -7,9 -10,24 -10,44 0,9 1,19 2,30 z"
   id="path26"
   inkscape:connector-curvature="0" />
  </g>
  <g
   id="bullet-char-template-10004"
   transform="matrix(4.8828125e-4,0,0,-4.8828125e-4,0,0)">
   <path
   d="M 285,-33 C 182,-33 111,30 74,156 52,228 41,333 41,471 c 0,78 14,145 41,201 34,71 87,106 158,106 53,0 88,-31 106,-94 l 23,-176 c 8,-64 28,-97 59,-98 l 735,706 c 11,11 33,17 66,17 42,0 63,-15 63,-46 V 965 c 0,-36 -10,-64 -30,-84 L 442,47 C 390,-6 338,-33 285,-33 Z"
   id="path29"
   inkscape:connector-curvature="0" />
  </g>
  <g
   id="bullet-char-template-9679"
   transform="matrix(4.8828125e-4,0,0,-4.8828125e-4,0,0)">
   <path
   d="M 813,0 C 632,0 489,54 383,161 276,268 223,411 223,592 c 0,181 53,324 160,431 106,107 249,161 430,161 179,0 323,-54 432,-161 108,-107 162,-251 162,-431 0,-180 -54,-324 -162,-431 C 1136,54 992,0 813,0 Z"
   id="path32"
   inkscape:connector-curvature="0" />
  </g>
  <g
   id="bullet-char-template-8226"
   transform="matrix(4.8828125e-4,0,0,-4.8828125e-4,0,0)">
   <path
   d="m 346,457 c -73,0 -137,26 -191,78 -54,51 -81,114 -81,188 0,73 27,136 81,188 54,52 118,78 191,78 73,0 134,-26 185,-79 51,-51 77,-114 77,-187 0,-75 -25,-137 -76,-188 -50,-52 -112,-78 -186,-78 z"
   id="path35"
   inkscape:connector-curvature="0" />
  </g>
  <g
   id="bullet-char-template-8211"
   transform="matrix(4.8828125e-4,0,0,-4.8828125e-4,0,0)">
   <path
   d="M -4,459 H 1135 V 606 H -4 Z"
   id="path38"
   inkscape:connector-curvature="0" />
  </g>
  <g
   id="bullet-char-template-61548"
   transform="matrix(4.8828125e-4,0,0,-4.8828125e-4,0,0)">
   <path
   d="m 173,740 c 0,163 58,303 173,419 116,115 255,173 419,173 163,0 302,-58 418,-173 116,-116 174,-256 174,-419 0,-163 -58,-303 -174,-418 C 1067,206 928,148 765,148 601,148 462,206 346,322 231,437 173,577 173,740 Z"
   id="path41"
   inkscape:connector-curvature="0" />
  </g>
 </defs>
 <g
   id="g49"
   transform="translate(-9201,-12140)">
  <g
   id="id2"
   class="Master_Slide">
   <g
   id="bg-id2"
   class="Background" />
   <g
   id="bo-id2"
   class="BackgroundObjects" />
  </g>
 </g>
 <g
   class="SlideGroup"
   id="g104"
   transform="translate(-9201,-12140)">
  <g
   id="g102">
   <g
   id="container-id1">
    <g
   id="id1"
   class="Slide"
   clip-path="url(#presentation_clip_path)">
     <g
   class="Page"
   id="g98">
      <g
   class="Graphic"
   id="g96">
       <g
   id="id3">
        <rect
   class="BoundingBox"
   x="9201"
   y="12140"
   width="2597"
   height="5420"
   id="rect51"
   style="fill:none;stroke:none" />
        <path
   d="m 9931,14810 -62,-97 18,-66 110,-5 71,53 71,58 75,70 58,58 66,53 35,31 23,26 h 31 l 61,-17 76,-58 93,-93 53,-92 35,-120 -27,-84 -48,-62 -67,-26 -84,-36 -48,-48 13,-44 44,-14 44,22 23,9 8,45 40,39 40,-39 -22,-71 9,-58 57,-22 49,22 v 14 l 4,44 -35,53 v 18 l -9,35 31,-18 36,-75 26,-44 44,-13 18,13 27,13 8,49 5,17 -75,53 -71,67 26,79 23,93 -18,111 -44,93 -71,110 -155,133 -66,26 -84,-13 -177,-84 -151,-88 -75,-53 z"
   id="path53"
   inkscape:connector-curvature="0"
   style="fill:#000000;stroke:none" />
        <path
   d="m 10524,14541 -75,-686 991,-13 106,676 -36,84 -508,-17 -469,13 z"
   id="path55"
   inkscape:connector-curvature="0"
   style="fill:#ffccff;stroke:none" />
        <path
   d="m 10484,14571 -71,-632 -13,-115 57,-4 496,-27 491,-4 31,35 119,703 -26,71 h -93 l 22,-111 -88,-583 -18,-35 -363,8 53,681 -97,9 -44,-676 h -412 l -40,13 62,557 27,110 z"
   id="path57"
   inkscape:connector-curvature="0"
   style="fill:#a551a8;stroke:none" />
        <path
   d="m 10537,13776 -13,-451 22,-146 150,-13 350,13 248,57 -58,310 -93,243 -256,13 -182,31 -115,-26 z"
   id="path59"
   inkscape:connector-curvature="0"
   style="fill:#6699ff;stroke:none" />
        <path
   d="m 10811,13824 -212,-31 -35,-39 8,-540 27,-22 341,22 h 97 l -177,-70 -102,-23 -186,14 -70,22 -18,212 v 354 l 18,84 88,44 177,-9 z"
   id="path61"
   inkscape:connector-curvature="0"
   style="fill:#3333cc;stroke:none" />
        <path
   d="m 10811,13144 244,4 194,31 67,31 -14,230 -84,318 -31,58 -278,8 -208,22 -49,-22 204,-31 146,-31 101,9 71,-168 62,-221 9,-124 -128,-39 h -62 l -67,459 -35,98 -62,17 49,-238 31,-248 -5,-97 -110,-22 z"
   id="path63"
   inkscape:connector-curvature="0"
   style="fill:#3333cc;stroke:none" />
        <path
   d="m 10506,12706 177,-84 111,-18 h 168 l 141,18 76,53 -40,438 -49,44 -150,31 -270,-14 z"
   id="path65"
   inkscape:connector-curvature="0"
   style="fill:#ffff99;stroke:none" />
        <path
   d="m 10754,12560 -53,-27 -67,-88 -4,-97 35,-62 67,13 44,93 31,-150 44,-71 106,13 23,62 -36,58 -75,110 97,-26 102,-14 v 62 l -58,97 -75,31 9,31 h -146 l -44,-13 z"
   id="path67"
   inkscape:connector-curvature="0"
   style="fill:#ffcc00;stroke:none" />
        <path
   d="m 10701,13161 -129,-455 124,-58 h 93 l 102,133 -18,340 -88,53 102,14 75,-14 18,-44 -5,-375 -133,-124 253,17 48,62 -48,407 -120,53 -26,22 163,-18 67,-57 31,-477 -40,-31 -93,-31 -182,-14 -177,9 -146,44 -92,76 79,234 71,247 146,5 z"
   id="path69"
   inkscape:connector-curvature="0"
   style="fill:#cc9900;stroke:none" />
        <path
   d="m 10767,12578 -102,-22 -31,-67 -31,-79 v -80 l 40,-66 49,-40 66,31 18,57 4,-88 40,-53 71,-31 80,9 48,57 v 75 l -53,58 -62,35 76,-22 84,-22 48,40 14,62 -54,79 -44,45 -106,31 -53,-98 80,40 35,-13 44,-49 13,-66 -35,-5 -97,31 -62,27 -13,-53 30,-49 54,-53 31,-48 -14,-45 h -57 l -53,58 -14,93 -4,70 -40,14 -35,-98 -31,-31 -40,18 4,71 23,71 48,57 84,-18 v 80 z"
   id="path71"
   inkscape:connector-curvature="0"
   style="fill:#cc9900;stroke:none" />
        <path
   d="m 10250,15093 84,-530 48,-14 651,49 522,9 172,22 18,66 -279,637 -491,-102 -172,-13 -509,-84 z"
   id="path73"
   inkscape:connector-curvature="0"
   style="fill:#dec2d1;stroke:none" />
        <path
   d="m 10210,15098 44,-319 31,-221 40,-48 243,26 230,27 500,17 345,-13 106,22 45,27 v 17 l -5,76 -186,450 -93,182 -84,-27 14,-79 124,-182 92,-225 45,-111 v -53 l -45,-26 -429,13 h -62 l -163,584 -58,-9 151,-575 -89,-18 -133,584 -84,-13 142,-579 -345,-9 -204,-27 -26,18 -71,517 h -66 z"
   id="path75"
   inkscape:connector-curvature="0"
   style="fill:#99396a;stroke:none" />
        <path
   d="m 10864,14567 h -22 l -88,-84 -22,-115 40,-84 62,-44 53,9 93,194 26,-163 44,-31 98,17 17,5 9,110 120,-13 31,84 v 18 l -18,62 -97,53 -133,17 z"
   id="path77"
   inkscape:connector-curvature="0"
   style="fill:#dec2d1;stroke:none" />
        <path
   d="m 10847,14585 -98,-40 -35,-88 v -89 l 22,-79 44,-67 58,-31 71,27 26,57 v 18 l 14,40 22,-89 70,-39 102,13 75,62 9,22 -13,44 h 44 l 67,4 39,58 v 18 l 9,57 -9,18 -48,70 -22,9 -67,31 -22,5 -93,-14 -13,-57 44,-18 h 58 l 48,-13 40,-31 -17,-71 -58,-4 -40,62 -62,-5 -22,-53 27,-35 26,-44 -17,-53 -71,-18 -31,44 v 97 l 4,89 -4,18 -44,17 -54,-48 -13,-84 -22,-58 -27,-48 h -26 l -27,17 -22,44 -9,18 v 40 18 l 9,53 58,48 79,31 14,36 -71,4 z"
   id="path79"
   inkscape:connector-curvature="0"
   style="fill:#99396a;stroke:none" />
        <path
   d="m 10112,15257 58,-128 956,128 371,93 93,70 -71,199 -110,173 -341,-221 -248,-111 -221,-62 -420,-84 z"
   id="path81"
   inkscape:connector-curvature="0"
   style="fill:#c6c7da;stroke:none" />
        <path
   d="m 10192,15084 319,45 349,57 345,53 310,75 106,49 27,71 -36,97 -9,17 -70,115 -80,137 -58,23 -22,4 -62,-62 -208,-128 -216,-115 -261,-93 -18,13 -243,-53 -164,-17 -97,-45 -5,-39 62,-31 257,62 300,79 244,75 155,80 168,97 128,84 58,-84 57,-150 v -80 l -97,-57 -297,-62 -274,-44 -292,-44 -261,-31 -115,-23 -4,23 -14,57 -84,31 40,-141 18,-36 z"
   id="path83"
   inkscape:connector-curvature="0"
   style="fill:#7175a2;stroke:none" />
        <path
   d="m 9701,13957 -75,-88 -71,-40 -49,-13 -71,-14 -75,22 -66,36 -35,53 -36,79 -18,84 -4,76 4,83 27,89 44,75 58,58 57,57 84,31 67,26 93,5 88,-13 49,-22 53,-54 18,-70 17,-89 -22,-106 -26,-84 -18,-62 -22,-39 66,-76 80,-57 66,-44 -9,-44 -31,-45 h -44 l -44,27 -31,48 -58,54 z"
   id="path85"
   inkscape:connector-curvature="0"
   style="fill:#000000;stroke:none" />
        <path
   d="m 9652,14722 58,-75 79,-36 89,-4 111,31 101,75 80,110 22,18 49,124 57,124 49,146 26,128 5,128 -5,128 -31,120 -53,115 -66,106 -66,79 -80,67 -102,35 -17,4 -102,-13 -89,-31 -70,-57 -40,-106 -5,-115 27,-129 48,-97 40,-79 31,-84 5,-102 -27,-89 -18,-84 -44,-75 -35,-70 -22,-84 -18,-80 -9,-71 z"
   id="path87"
   inkscape:connector-curvature="0"
   style="fill:#000000;stroke:none" />
        <path
   d="m 9568,14934 71,-119 80,-45 66,80 -18,97 -17,93 -31,111 -31,92 -18,89 -18,53 -9,35 9,27 58,31 106,9 h 146 l 133,-36 146,-70 70,-89 40,-84 -9,-71 -8,-88 26,-80 53,-22 40,22 v 53 l 4,18 -44,44 -17,62 h 61 l 62,-75 71,-40 53,27 5,48 -18,18 -44,35 -75,18 -14,13 -48,23 35,8 102,-35 62,-13 40,22 -5,22 5,31 -49,44 -18,18 -102,-13 h -110 l -62,79 -89,93 -128,75 -124,40 -159,40 -226,-14 -66,-26 -35,-71 -5,-199 9,-181 9,-102 z"
   id="path89"
   inkscape:connector-curvature="0"
   style="fill:#000000;stroke:none" />
        <path
   d="m 9586,16154 124,-172 93,-49 88,18 75,75 -4,88 -44,67 -142,132 -172,146 -67,75 -9,67 27,70 75,89 102,119 71,155 26,79 49,84 26,45 9,57 -35,58 -58,17 -101,14 -146,79 -18,5 -53,70 -36,14 -44,-27 -57,-88 -22,-76 39,-35 89,-22 133,-40 115,-26 26,-45 -31,-92 -84,-137 -106,-133 -102,-93 -44,-97 v -111 l 31,-101 49,-93 66,-89 z"
   id="path91"
   inkscape:connector-curvature="0"
   style="fill:#000000;stroke:none" />
        <path
   d="m 10329,16048 -124,-172 -88,-49 -80,22 -71,84 14,89 44,66 137,132 168,146 67,76 13,66 -22,75 -62,97 -89,128 -57,164 -18,88 -44,89 -22,48 v 58 l 31,57 57,18 93,9 137,71 22,9 49,70 35,14 45,-31 44,-98 13,-79 -35,-31 -84,-22 -129,-36 -106,-17 -26,-45 22,-106 75,-141 89,-142 88,-106 35,-101 -4,-111 -35,-106 -54,-97 -61,-89 z"
   id="path93"
   inkscape:connector-curvature="0"
   style="fill:#000000;stroke:none" />
       </g>
      </g>
     </g>
    </g>
   </g>
  </g>
 </g>
</svg>