<?xml version="1.0" encoding="UTF-8" standalone="no"?>
<svg
   xmlns:ooo="http://xml.openoffice.org/svg/export"
   xmlns:dc="http://purl.org/dc/elements/1.1/"
   xmlns:cc="http://creativecommons.org/ns#"
   xmlns:rdf="http://www.w3.org/1999/02/22-rdf-syntax-ns#"
   xmlns:svg="http://www.w3.org/2000/svg"
   xmlns="http://www.w3.org/2000/svg"
   xmlns:sodipodi="http://sodipodi.sourceforge.net/DTD/sodipodi-0.dtd"
   xmlns:inkscape="http://www.inkscape.org/namespaces/inkscape"
   version="1.2"
   width="67.099998mm"
   height="51.549999mm"
   viewBox="0 0 6709.9998 5154.9999"
   preserveAspectRatio="xMidYMid"
   xml:space="preserve"
   id="svg104"
   sodipodi:docname="gift.svg"
   style="fill-rule:evenodd;stroke-width:28.22200012;stroke-linejoin:round"
   inkscape:version="0.92.5 (2060ec1f9f, 2020-04-08)"><metadata
   id="metadata108"><rdf:RDF><cc:Work
       rdf:about=""><dc:format>image/svg+xml</dc:format><dc:type
         rdf:resource="http://purl.org/dc/dcmitype/StillImage" /></cc:Work></rdf:RDF></metadata><sodipodi:namedview
   pagecolor="#ffffff"
   bordercolor="#666666"
   borderopacity="1"
   objecttolerance="10"
   gridtolerance="10"
   guidetolerance="10"
   inkscape:pageopacity="0"
   inkscape:pageshadow="2"
   inkscape:window-width="664"
   inkscape:window-height="487"
   id="namedview106"
   showgrid="false"
   inkscape:zoom="0.2102413"
   inkscape:cx="126.80315"
   inkscape:cy="97.398423"
   inkscape:window-x="0"
   inkscape:window-y="0"
   inkscape:window-maximized="0"
   inkscape:current-layer="svg104" />
 <defs
   class="ClipPathGroup"
   id="defs8">
  <clipPath
   id="presentation_clip_path"
   clipPathUnits="userSpaceOnUse">
   <rect
   x="0"
   y="0"
   width="21000"
   height="29700"
   id="rect2" />
  </clipPath>
  <clipPath
   id="presentation_clip_path_shrink"
   clipPathUnits="userSpaceOnUse">
   <rect
   x="21"
   y="29"
   width="20958"
   height="29641"
   id="rect5" />
  </clipPath>
 </defs>
 <defs
   class="TextShapeIndex"
   id="defs12">
  <g
   ooo:slide="id1"
   ooo:id-list="id3"
   id="g10" />
 </defs>
 <defs
   class="EmbeddedBulletChars"
   id="defs44">
  <g
   id="bullet-char-template-57356"
   transform="matrix(4.8828125e-4,0,0,-4.8828125e-4,0,0)">
   <path
   d="M 580,1141 1163,571 580,0 -4,571 Z"
   id="path14"
   inkscape:connector-curvature="0" />
  </g>
  <g
   id="bullet-char-template-57354"
   transform="matrix(4.8828125e-4,0,0,-4.8828125e-4,0,0)">
   <path
   d="M 8,1128 H 1137 V 0 H 8 Z"
   id="path17"
   inkscape:connector-curvature="0" />
  </g>
  <g
   id="bullet-char-template-10146"
   transform="matrix(4.8828125e-4,0,0,-4.8828125e-4,0,0)">
   <path
   d="M 174,0 602,739 174,1481 1456,739 Z M 1358,739 309,1346 659,739 Z"
   id="path20"
   inkscape:connector-curvature="0" />
  </g>
  <g
   id="bullet-char-template-10132"
   transform="matrix(4.8828125e-4,0,0,-4.8828125e-4,0,0)">
   <path
   d="M 2015,739 1276,0 H 717 l 543,543 H 174 v 393 h 1086 l -543,545 h 557 z"
   id="path23"
   inkscape:connector-curvature="0" />
  </g>
  <g
   id="bullet-char-template-10007"
   transform="matrix(4.8828125e-4,0,0,-4.8828125e-4,0,0)">
   <path
   d="m 0,-2 c -7,16 -16,29 -25,39 l 381,530 c -94,256 -141,385 -141,387 0,25 13,38 40,38 9,0 21,-2 34,-5 21,4 42,12 65,25 l 27,-13 111,-251 280,301 64,-25 24,25 c 21,-10 41,-24 62,-43 C 886,937 835,863 770,784 769,783 710,716 594,584 L 774,223 c 0,-27 -21,-55 -63,-84 l 16,-20 C 717,90 699,76 672,76 641,76 570,178 457,381 L 164,-76 c -22,-34 -53,-51 -92,-51 -42,0 -63,17 -64,51 -7,9 -10,24 -10,44 0,9 1,19 2,30 z"
   id="path26"
   inkscape:connector-curvature="0" />
  </g>
  <g
   id="bullet-char-template-10004"
   transform="matrix(4.8828125e-4,0,0,-4.8828125e-4,0,0)">
   <path
   d="M 285,-33 C 182,-33 111,30 74,156 52,228 41,333 41,471 c 0,78 14,145 41,201 34,71 87,106 158,106 53,0 88,-31 106,-94 l 23,-176 c 8,-64 28,-97 59,-98 l 735,706 c 11,11 33,17 66,17 42,0 63,-15 63,-46 V 965 c 0,-36 -10,-64 -30,-84 L 442,47 C 390,-6 338,-33 285,-33 Z"
   id="path29"
   inkscape:connector-curvature="0" />
  </g>
  <g
   id="bullet-char-template-9679"
   transform="matrix(4.8828125e-4,0,0,-4.8828125e-4,0,0)">
   <path
   d="M 813,0 C 632,0 489,54 383,161 276,268 223,411 223,592 c 0,181 53,324 160,431 106,107 249,161 430,161 179,0 323,-54 432,-161 108,-107 162,-251 162,-431 0,-180 -54,-324 -162,-431 C 1136,54 992,0 813,0 Z"
   id="path32"
   inkscape:connector-curvature="0" />
  </g>
  <g
   id="bullet-char-template-8226"
   transform="matrix(4.8828125e-4,0,0,-4.8828125e-4,0,0)">
   <path
   d="m 346,457 c -73,0 -137,26 -191,78 -54,51 -81,114 -81,188 0,73 27,136 81,188 54,52 118,78 191,78 73,0 134,-26 185,-79 51,-51 77,-114 77,-187 0,-75 -25,-137 -76,-188 -50,-52 -112,-78 -186,-78 z"
   id="path35"
   inkscape:connector-curvature="0" />
  </g>
  <g
   id="bullet-char-template-8211"
   transform="matrix(4.8828125e-4,0,0,-4.8828125e-4,0,0)">
   <path
   d="M -4,459 H 1135 V 606 H -4 Z"
   id="path38"
   inkscape:connector-curvature="0" />
  </g>
  <g
   id="bullet-char-template-61548"
   transform="matrix(4.8828125e-4,0,0,-4.8828125e-4,0,0)">
   <path
   d="m 173,740 c 0,163 58,303 173,419 116,115 255,173 419,173 163,0 302,-58 418,-173 116,-116 174,-256 174,-419 0,-163 -58,-303 -174,-418 C 1067,206 928,148 765,148 601,148 462,206 346,322 231,437 173,577 173,740 Z"
   id="path41"
   inkscape:connector-curvature="0" />
  </g>
 </defs>
 <g
   id="g49"
   transform="translate(-7145,-12272)">
  <g
   id="id2"
   class="Master_Slide">
   <g
   id="bg-id2"
   class="Background" />
   <g
   id="bo-id2"
   class="BackgroundObjects" />
  </g>
 </g>
 <g
   class="SlideGroup"
   id="g102"
   transform="translate(-7145,-12272)">
  <g
   id="g100">
   <g
   id="container-id1">
    <g
   id="id1"
   class="Slide"
   clip-path="url(#presentation_clip_path)">
     <g
   class="Page"
   id="g96">
      <g
   class="Graphic"
   id="g94">
       <g
   id="id3">
        <rect
   class="BoundingBox"
   x="7145"
   y="12272"
   width="6710"
   height="5155"
   id="rect51"
   style="fill:none;stroke:none" />
        <path
   d="m 11587,14540 182,-150 132,-67 44,84 5,115 -89,75 -70,54 -257,137 -216,101 -151,22 -53,-17 -106,-106 -137,-129 -150,-75 h -102 l -75,49 -17,18 -40,75 -49,44 -57,-13 4,-49 31,-62 80,-71 22,-26 -27,-40 -137,44 -53,-17 -31,-49 36,-62 75,-4 150,17 49,-13 57,-49 4,-115 40,-75 53,-9 22,31 -4,62 -49,98 -4,92 57,31 129,45 75,39 84,53 88,67 49,26 97,-13 119,-44 124,-75 z"
   id="path53"
   inkscape:connector-curvature="0"
   style="fill:#000000;stroke:none" />
        <path
   d="m 12228,14394 120,27 88,84 128,154 128,164 120,106 93,40 75,26 230,-4 221,-44 123,-40 80,-57 49,-76 70,-17 58,17 4,76 -57,57 -137,62 -40,44 9,49 57,40 155,35 31,35 18,53 -53,45 -54,-14 -92,-40 -84,-70 -62,-27 -22,31 4,22 97,102 40,93 -18,62 -39,17 -49,-35 -35,-57 -49,-89 -40,-106 -44,-57 -79,-9 -173,13 -168,13 -110,-13 -80,-35 -115,-98 -128,-106 -106,-93 -106,-84 -89,-115 -17,-97 22,-53 z"
   id="path55"
   inkscape:connector-curvature="0"
   style="fill:#000000;stroke:none" />
        <path
   d="m 12007,13616 62,-177 67,-88 83,-71 107,-49 88,-8 119,22 67,57 62,80 48,137 v 88 l -22,137 -40,97 -75,80 -102,97 -106,67 -101,31 -84,8 -84,-22 -58,-75 -40,-97 -17,-137 -142,66 -137,97 -75,-8 -22,-49 22,-80 75,-48 151,-67 106,-39 z"
   id="path57"
   inkscape:connector-curvature="0"
   style="fill:#000000;stroke:none" />
        <path
   d="m 11910,14284 119,-40 107,-9 110,18 97,48 49,80 40,66 v 89 97 l -22,71 -49,88 -66,71 -80,57 -62,71 -40,84 -26,80 9,79 31,80 48,84 49,93 9,84 -18,92 -49,76 -53,48 -97,49 -115,13 -119,-9 -119,-44 -76,-75 -61,-97 -40,-120 -27,-119 9,-164 9,-159 57,-177 62,-154 75,-120 93,-155 75,-101 40,-36 z"
   id="path59"
   inkscape:connector-curvature="0"
   style="fill:#000000;stroke:none" />
        <path
   d="m 11358,15888 145,-185 129,-146 h 176 l 49,97 v 22 l -9,106 -155,106 -238,230 -80,89 -9,79 53,98 98,274 26,168 -9,26 9,98 v 128 l -66,70 -89,-8 -128,-49 -115,-22 -132,22 -137,49 -58,-31 v -89 l 128,-137 h 129 l 146,22 145,45 40,-49 9,-115 -49,-150 -57,-155 -58,-119 -30,-115 -18,-71 18,-89 57,-88 31,-66 z"
   id="path61"
   inkscape:connector-curvature="0"
   style="fill:#000000;stroke:none" />
        <path
   d="m 11910,15495 128,-57 120,39 57,89 4,97 -39,137 v 22 l -89,133 -4,22 -97,159 -89,124 -26,57 26,53 62,67 168,97 164,128 128,168 53,137 18,115 -18,58 -22,13 -67,18 h -22 l -106,-27 -128,35 -84,71 -106,66 -159,-79 v -106 l 137,-67 159,-30 h 22 l 186,-27 48,-40 -8,-53 -49,-75 -80,-88 -97,-62 -79,-58 -102,-57 -128,-58 -44,-57 -23,-62 9,-75 14,-102 44,-115 40,-243 22,-137 22,-142 z"
   id="path63"
   inkscape:connector-curvature="0"
   style="fill:#000000;stroke:none" />
        <path
   d="m 12052,12922 -305,-296 -80,-58 -9,-48 27,-62 75,4 75,53 84,120 75,172 z"
   id="path65"
   inkscape:connector-curvature="0"
   style="fill:#393939;stroke:none" />
        <path
   d="m 12529,12838 66,-420 v -97 l 36,-36 66,-13 44,62 v 88 l -53,142 -93,159 z"
   id="path67"
   inkscape:connector-curvature="0"
   style="fill:#393939;stroke:none" />
        <path
   d="m 12962,13081 336,-252 66,-71 49,-4 57,40 -13,66 -62,66 -132,67 -182,48 z"
   id="path69"
   inkscape:connector-curvature="0"
   style="fill:#393939;stroke:none" />
        <path
   d="m 13024,13607 424,-13 93,-22 44,26 22,62 -48,49 -89,22 -145,-22 -177,-62 z"
   id="path71"
   inkscape:connector-curvature="0"
   style="fill:#393939;stroke:none" />
        <path
   d="m 9545,14354 -97,155 -57,119 -58,168 -40,129 v 26 l -48,89 v 26 l -9,89 57,70 67,-31 8,-84 9,-119 44,-119 27,-129 40,-97 40,-106 30,-57 27,114 88,54 115,66 31,-71 18,-124 -49,-101 -48,-67 -84,-48 -89,9 z"
   id="path73"
   inkscape:connector-curvature="0"
   style="fill:#009966;stroke:none" />
        <path
   d="m 9488,13784 -49,-119 18,-98 71,-66 137,9 106,40 22,88 57,-53 106,-18 93,22 35,76 -17,88 -22,62 88,18 62,70 9,89 -18,88 -53,31 h -75 l 26,89 -17,84 -49,53 -79,39 -98,-22 -22,-22 -66,62 -80,22 -88,-22 -88,-62 -9,-57 -111,-18 -48,-71 -18,-79 40,-67 -80,-39 -31,-71 18,-97 62,-67 97,-4 z"
   id="path75"
   inkscape:connector-curvature="0"
   style="fill:#ff66ff;stroke:none" />
        <path
   d="m 9576,13890 -18,-88 -22,-75 -35,-80 9,-40 40,-48 h 75 l 88,22 22,66 -9,66 -39,89 9,22 h 39 l 31,-31 27,-66 22,-62 79,-36 84,9 31,49 v 70 l -48,67 -89,31 -48,35 17,22 53,-17 76,-23 110,9 49,49 17,49 -26,53 -49,17 -93,-9 -84,-22 -70,-17 17,48 71,22 71,45 26,61 9,58 -40,62 -66,9 -22,9 -44,-40 -31,-58 -22,-62 -27,-35 h -40 l 9,35 18,53 31,58 v 26 l -27,40 -70,22 -22,9 -67,-40 -31,-39 22,-76 36,-61 v -40 l -44,9 -31,53 -62,39 -84,-31 -22,-48 22,-40 44,-40 44,-9 h 49 l 48,-13 -13,-26 h -66 l -22,8 h -97 l -76,-48 -13,-66 49,-45 62,-26 57,17 49,14 z"
   id="path77"
   inkscape:connector-curvature="0"
   style="fill:#ffccff;stroke:none" />
        <path
   d="m 9836,13959 c 0,18 -6,36 -17,51 -12,16 -28,29 -48,38 -20,9 -42,14 -65,14 -23,0 -45,-5 -65,-14 -20,-9 -36,-22 -48,-38 -11,-15 -17,-33 -17,-51 0,-19 6,-37 17,-52 12,-16 28,-29 48,-38 20,-9 42,-14 65,-14 23,0 45,5 65,14 20,9 36,22 48,38 11,15 17,33 17,52 z"
   id="path79"
   inkscape:connector-curvature="0"
   style="fill:#ffcc00;stroke:none" />
        <path
   d="m 8051,13616 -57,-141 -58,-98 -70,-70 -98,-67 -70,-31 -80,-26 -106,17 -89,40 -53,40 -48,66 -27,71 -13,111 v 123 l 40,102 48,115 62,93 71,75 84,62 80,31 88,9 71,-9 62,-31 48,-40 49,-62 31,-84 26,-84 14,-88 176,40 168,61 58,9 48,-48 -17,-71 -40,-49 -88,-26 -98,-5 -110,-17 z"
   id="path81"
   inkscape:connector-curvature="0"
   style="fill:#000000;stroke:none" />
        <path
   d="m 7675,14266 71,-49 h 106 l 102,36 88,44 75,66 89,128 48,120 23,128 17,115 v 137 l -17,119 -23,120 -35,128 -48,97 -54,71 -97,57 -106,40 h -97 l -93,-9 -84,-53 -53,-66 -44,-71 -13,-106 v -141 l 31,-84 48,-62 58,-49 8,-79 v -58 l -44,-80 -44,-88 -26,-97 -18,-111 26,-88 22,-58 40,-31 z"
   id="path83"
   inkscape:connector-curvature="0"
   style="fill:#000000;stroke:none" />
        <path
   d="m 7521,14434 115,-97 132,-14 84,49 5,128 -5,22 -66,98 -18,26 -119,40 -142,44 -114,75 -89,89 27,40 79,57 128,62 120,57 88,22 71,-30 35,-49 14,-58 26,-31 62,-22 31,40 18,49 -40,40 -58,22 -39,39 8,40 67,18 h 92 l 49,40 9,57 -40,18 h -66 l -44,-35 -45,-23 -53,-31 -17,31 48,40 49,49 22,57 -22,31 h -66 l -45,-48 -26,-80 -31,-57 -80,-23 -106,-35 -146,-40 -132,-57 -97,-71 -31,-62 -18,-57 18,-58 62,-71 79,-97 89,-97 66,-62 z"
   id="path85"
   inkscape:connector-curvature="0"
   style="fill:#000000;stroke:none" />
        <path
   d="m 7932,14323 163,58 71,88 159,102 217,115 185,88 107,22 h 145 l 129,-22 79,-26 89,-31 31,-49 -9,-119 26,-80 40,-26 57,17 5,62 -22,67 -22,88 -18,58 31,13 57,-13 58,-27 88,9 14,48 -23,49 -48,5 -80,-5 -57,5 -40,35 62,31 h 97 l 9,31 v 48 l -49,49 -79,-18 -67,-22 -88,-26 -93,-53 -194,22 h -106 l -137,-13 -160,-58 -198,-80 -164,-66 -225,-102 -129,-88 -8,-137 17,-40 z"
   id="path87"
   inkscape:connector-curvature="0"
   style="fill:#000000;stroke:none" />
        <path
   d="m 7835,15774 v 291 l 17,270 -17,186 -40,203 -40,168 -9,93 31,97 66,58 137,57 191,53 70,27 18,57 -49,44 -97,18 -119,27 -89,-36 -53,-71 -115,-79 -110,-27 -89,-22 -48,-97 22,-80 75,-57 53,-111 -13,-115 13,-216 18,-89 31,-61 -14,-129 -57,-185 -57,-208 -31,-186 8,-208 58,-137 71,-26 185,97 14,27 -9,119 -22,146 z"
   id="path89"
   inkscape:connector-curvature="0"
   style="fill:#000000;stroke:none" />
        <path
   d="m 7949,15318 129,58 62,88 84,177 48,194 22,191 9,119 -31,133 -26,150 -58,203 -40,177 v 53 l 36,49 141,57 168,62 66,27 27,57 -44,93 -40,49 -88,-9 -80,-71 -62,-62 -84,-49 -93,-8 -75,-9 -57,-40 -22,-80 17,-57 40,-58 31,-70 40,-146 40,-199 17,-203 -31,-177 -75,-151 -97,-137 -62,-137 -31,-128 22,-119 z"
   id="path91"
   inkscape:connector-curvature="0"
   style="fill:#000000;stroke:none" />
       </g>
      </g>
     </g>
    </g>
   </g>
  </g>
 </g>
</svg>