<?xml version="1.0" encoding="UTF-8" standalone="no"?>
<svg
   xmlns:ooo="http://xml.openoffice.org/svg/export"
   xmlns:dc="http://purl.org/dc/elements/1.1/"
   xmlns:cc="http://creativecommons.org/ns#"
   xmlns:rdf="http://www.w3.org/1999/02/22-rdf-syntax-ns#"
   xmlns:svg="http://www.w3.org/2000/svg"
   xmlns="http://www.w3.org/2000/svg"
   xmlns:sodipodi="http://sodipodi.sourceforge.net/DTD/sodipodi-0.dtd"
   xmlns:inkscape="http://www.inkscape.org/namespaces/inkscape"
   version="1.2"
   width="26.629999mm"
   height="52.259998mm"
   viewBox="0 0 2662.9999 5225.9998"
   preserveAspectRatio="xMidYMid"
   xml:space="preserve"
   id="svg89"
   sodipodi:docname="holdbaby.svg"
   style="fill-rule:evenodd;stroke-width:28.22200012;stroke-linejoin:round"
   inkscape:version="0.92.5 (2060ec1f9f, 2020-04-08)"><metadata
   id="metadata93"><rdf:RDF><cc:Work
       rdf:about=""><dc:format>image/svg+xml</dc:format><dc:type
         rdf:resource="http://purl.org/dc/dcmitype/StillImage" /></cc:Work></rdf:RDF></metadata><sodipodi:namedview
   pagecolor="#ffffff"
   bordercolor="#666666"
   borderopacity="1"
   objecttolerance="10"
   gridtolerance="10"
   guidetolerance="10"
   inkscape:pageopacity="0"
   inkscape:pageshadow="2"
   inkscape:window-width="664"
   inkscape:window-height="487"
   id="namedview91"
   showgrid="false"
   inkscape:zoom="0.2102413"
   inkscape:cx="50.343308"
   inkscape:cy="98.759053"
   inkscape:window-x="0"
   inkscape:window-y="0"
   inkscape:window-maximized="0"
   inkscape:current-layer="svg89" />
 <defs
   class="ClipPathGroup"
   id="defs8">
  <clipPath
   id="presentation_clip_path"
   clipPathUnits="userSpaceOnUse">
   <rect
   x="0"
   y="0"
   width="21000"
   height="29700"
   id="rect2" />
  </clipPath>
  <clipPath
   id="presentation_clip_path_shrink"
   clipPathUnits="userSpaceOnUse">
   <rect
   x="21"
   y="29"
   width="20958"
   height="29641"
   id="rect5" />
  </clipPath>
 </defs>
 <defs
   class="TextShapeIndex"
   id="defs12">
  <g
   ooo:slide="id1"
   ooo:id-list="id3"
   id="g10" />
 </defs>
 <defs
   class="EmbeddedBulletChars"
   id="defs44">
  <g
   id="bullet-char-template-57356"
   transform="matrix(4.8828125e-4,0,0,-4.8828125e-4,0,0)">
   <path
   d="M 580,1141 1163,571 580,0 -4,571 Z"
   id="path14"
   inkscape:connector-curvature="0" />
  </g>
  <g
   id="bullet-char-template-57354"
   transform="matrix(4.8828125e-4,0,0,-4.8828125e-4,0,0)">
   <path
   d="M 8,1128 H 1137 V 0 H 8 Z"
   id="path17"
   inkscape:connector-curvature="0" />
  </g>
  <g
   id="bullet-char-template-10146"
   transform="matrix(4.8828125e-4,0,0,-4.8828125e-4,0,0)">
   <path
   d="M 174,0 602,739 174,1481 1456,739 Z M 1358,739 309,1346 659,739 Z"
   id="path20"
   inkscape:connector-curvature="0" />
  </g>
  <g
   id="bullet-char-template-10132"
   transform="matrix(4.8828125e-4,0,0,-4.8828125e-4,0,0)">
   <path
   d="M 2015,739 1276,0 H 717 l 543,543 H 174 v 393 h 1086 l -543,545 h 557 z"
   id="path23"
   inkscape:connector-curvature="0" />
  </g>
  <g
   id="bullet-char-template-10007"
   transform="matrix(4.8828125e-4,0,0,-4.8828125e-4,0,0)">
   <path
   d="m 0,-2 c -7,16 -16,29 -25,39 l 381,530 c -94,256 -141,385 -141,387 0,25 13,38 40,38 9,0 21,-2 34,-5 21,4 42,12 65,25 l 27,-13 111,-251 280,301 64,-25 24,25 c 21,-10 41,-24 62,-43 C 886,937 835,863 770,784 769,783 710,716 594,584 L 774,223 c 0,-27 -21,-55 -63,-84 l 16,-20 C 717,90 699,76 672,76 641,76 570,178 457,381 L 164,-76 c -22,-34 -53,-51 -92,-51 -42,0 -63,17 -64,51 -7,9 -10,24 -10,44 0,9 1,19 2,30 z"
   id="path26"
   inkscape:connector-curvature="0" />
  </g>
  <g
   id="bullet-char-template-10004"
   transform="matrix(4.8828125e-4,0,0,-4.8828125e-4,0,0)">
   <path
   d="M 285,-33 C 182,-33 111,30 74,156 52,228 41,333 41,471 c 0,78 14,145 41,201 34,71 87,106 158,106 53,0 88,-31 106,-94 l 23,-176 c 8,-64 28,-97 59,-98 l 735,706 c 11,11 33,17 66,17 42,0 63,-15 63,-46 V 965 c 0,-36 -10,-64 -30,-84 L 442,47 C 390,-6 338,-33 285,-33 Z"
   id="path29"
   inkscape:connector-curvature="0" />
  </g>
  <g
   id="bullet-char-template-9679"
   transform="matrix(4.8828125e-4,0,0,-4.8828125e-4,0,0)">
   <path
   d="M 813,0 C 632,0 489,54 383,161 276,268 223,411 223,592 c 0,181 53,324 160,431 106,107 249,161 430,161 179,0 323,-54 432,-161 108,-107 162,-251 162,-431 0,-180 -54,-324 -162,-431 C 1136,54 992,0 813,0 Z"
   id="path32"
   inkscape:connector-curvature="0" />
  </g>
  <g
   id="bullet-char-template-8226"
   transform="matrix(4.8828125e-4,0,0,-4.8828125e-4,0,0)">
   <path
   d="m 346,457 c -73,0 -137,26 -191,78 -54,51 -81,114 -81,188 0,73 27,136 81,188 54,52 118,78 191,78 73,0 134,-26 185,-79 51,-51 77,-114 77,-187 0,-75 -25,-137 -76,-188 -50,-52 -112,-78 -186,-78 z"
   id="path35"
   inkscape:connector-curvature="0" />
  </g>
  <g
   id="bullet-char-template-8211"
   transform="matrix(4.8828125e-4,0,0,-4.8828125e-4,0,0)">
   <path
   d="M -4,459 H 1135 V 606 H -4 Z"
   id="path38"
   inkscape:connector-curvature="0" />
  </g>
  <g
   id="bullet-char-template-61548"
   transform="matrix(4.8828125e-4,0,0,-4.8828125e-4,0,0)">
   <path
   d="m 173,740 c 0,163 58,303 173,419 116,115 255,173 419,173 163,0 302,-58 418,-173 116,-116 174,-256 174,-419 0,-163 -58,-303 -174,-418 C 1067,206 928,148 765,148 601,148 462,206 346,322 231,437 173,577 173,740 Z"
   id="path41"
   inkscape:connector-curvature="0" />
  </g>
 </defs>
 <g
   id="g49"
   transform="translate(-9168,-12237)">
  <g
   id="id2"
   class="Master_Slide">
   <g
   id="bg-id2"
   class="Background" />
   <g
   id="bo-id2"
   class="BackgroundObjects" />
  </g>
 </g>
 <g
   class="SlideGroup"
   id="g87"
   transform="translate(-9168,-12237)">
  <g
   id="g85">
   <g
   id="container-id1">
    <g
   id="id1"
   class="Slide"
   clip-path="url(#presentation_clip_path)">
     <g
   class="Page"
   id="g81">
      <g
   class="Graphic"
   id="g79">
       <g
   id="id3">
        <rect
   class="BoundingBox"
   x="9168"
   y="12237"
   width="2663"
   height="5226"
   id="rect51"
   style="fill:none;stroke:none" />
        <defs
   id="defs56">
         <clipPath
   id="clip_path_1"
   clipPathUnits="userSpaceOnUse">
          <path
   d="m 9168,12237 h 2662 v 5225 H 9168 Z"
   id="path53"
   inkscape:connector-curvature="0" />
         </clipPath>
        </defs>
        <g
   clip-path="url(#clip_path_1)"
   id="g76">
         <path
   d="m 9830,14272 -30,-168 v -159 l 30,-137 67,-106 92,-92 102,-49 79,-9 106,22 89,40 97,80 57,97 67,154 44,146 35,119 35,168 v 176 l -17,172 -18,150 -9,146 -17,128 -27,124 -35,119 -44,88 -62,66 -66,18 -93,18 -97,-31 -80,-27 -71,-53 -57,-57 -57,-115 -53,-150 -14,-207 31,-128 9,-93 v -119 l -48,-168 z"
   id="path58"
   inkscape:connector-curvature="0"
   style="fill:#000000;stroke:none" />
         <path
   d="m 10965,13698 67,-53 66,-22 84,-18 h 79 l 62,27 49,44 31,57 31,80 13,62 -9,88 -18,110 -35,80 -49,61 -53,49 -70,35 -62,22 -66,22 h -71 l -71,-4 -66,-31 -48,-35 -36,-66 -17,-80 v -88 l 17,-84 18,-62 31,-44 -62,-35 -57,-49 -27,-53 9,-48 35,-31 53,-5 84,31 z"
   id="path60"
   inkscape:connector-curvature="0"
   style="fill:#000000;stroke:none" />
         <path
   d="m 9720,14409 163,-102 -13,9 172,-88 164,-49 168,-35 154,9 186,48 119,84 75,97 18,159 -5,84 -57,53 -208,70 h -22 l -154,49 -14,4 -97,89 -93,101 -145,71 -111,57 -145,40 -173,4 -154,-26 -93,-80 -62,-79 9,-110 27,-115 79,-106 71,-88 92,-80 z"
   id="path62"
   inkscape:connector-curvature="0"
   style="fill:#ccecff;stroke:none" />
         <path
   d="m 11001,14510 -14,-115 -26,-66 -40,-62 -66,-53 -53,-44 -97,-48 -159,-36 h -133 l -141,9 -141,36 -155,53 -101,57 -98,71 -83,48 -93,80 -84,75 -53,70 -53,71 -31,79 -22,66 -9,89 -9,88 22,93 49,70 75,58 97,31 102,13 106,-5 75,5 119,-18 93,-26 75,-36 110,-61 80,-58 62,-48 57,-58 53,-70 71,-53 97,-36 70,-13 84,-40 124,-92 -128,13 -124,35 -150,22 -110,53 -124,89 -93,106 -101,61 -80,31 -79,40 -66,22 -62,9 h -84 -97 l -75,-22 -58,-27 -40,-53 -22,-61 -4,-62 22,-62 22,-75 35,-62 58,-75 57,-62 84,-75 80,-70 88,-49 84,-44 84,-44 88,-27 97,-22 102,-13 110,-4 102,17 13,5 88,31 75,53 58,52 40,62 4,75 v 62 l -13,44 -13,22 132,-4 26,-57 z"
   id="path64"
   inkscape:connector-curvature="0"
   style="fill:#6699ff;stroke:none" />
         <path
   d="m 10307,13142 5,-93 -18,-101 -40,-164 -57,-128 -66,-132 -62,-106 -57,-79 -80,-76 -53,-22 -71,-4 -75,9 -75,17 -79,40 -75,66 -67,67 -53,92 -31,97 -13,102 9,79 18,75 44,89 66,79 71,88 123,93 80,71 93,62 97,17 h 101 l 80,-13 71,-40 66,-62 101,111 75,110 58,44 53,5 44,-18 22,-44 9,-35 -9,-36 -9,-39 -22,-36 -57,-35 -75,-49 -58,-31 -44,-26 z"
   id="path66"
   inkscape:connector-curvature="0"
   style="fill:#000000;stroke:none" />
         <path
   d="m 10665,13230 13,-57 36,-44 62,-36 h 61 l 93,22 128,40 102,49 110,61 119,89 120,88 106,119 84,97 66,111 44,114 18,97 -9,84 -13,111 -31,88 -53,88 -89,93 -70,71 -93,79 -128,75 -111,62 -163,79 -115,36 -132,22 -115,4 -106,-4 -80,-5 -70,-17 -71,-5 -88,27 -75,31 -75,17 -53,13 -67,-8 -44,-22 -26,-62 9,-31 39,-27 53,-4 53,9 h 80 l 44,-18 v -26 l -53,-31 -66,-22 -49,-27 -26,-40 -5,-39 31,-49 49,-4 53,4 53,36 35,52 22,45 18,8 44,-8 53,-14 40,-39 39,-75 22,-45 40,-22 36,14 26,44 v 57 l -35,49 -44,35 -45,22 -13,22 18,27 44,8 159,-8 124,-27 119,-53 75,-31 106,-61 163,-128 124,-89 124,-101 84,-106 39,-84 5,-49 4,-57 -22,-57 -35,-58 -102,-123 -115,-89 -106,-66 -92,-48 -106,-53 -102,-27 -97,-18 -84,-17 -71,-27 -44,-48 -13,-53 z"
   id="path68"
   inkscape:connector-curvature="0"
   style="fill:#000000;stroke:none" />
         <path
   d="m 9349,13698 66,-128 71,-71 97,-39 h 88 l 40,26 18,40 9,75 -18,84 -53,75 -88,106 -67,114 -53,106 -48,124 -31,102 -18,92 -17,119 -5,124 -4,13 4,102 18,106 31,75 48,66 75,26 76,22 70,-22 44,-48 14,-71 -5,-75 36,-57 35,-22 62,22 4,44 -13,75 -27,75 -35,49 44,26 h 71 l 75,-18 49,-26 h 39 l 27,22 -9,53 -49,48 -66,18 h -57 l -58,-9 -26,5 13,22 57,9 h 53 l 62,4 27,22 -5,49 -26,39 -13,5 -62,4 -89,-17 -70,-49 -75,-40 -89,-17 -137,-22 -106,-53 -70,-67 -44,-79 -40,-110 -35,-177 v -141 l 17,-141 27,-137 31,-164 35,-141 35,-141 z"
   id="path70"
   inkscape:connector-curvature="0"
   style="fill:#000000;stroke:none" />
         <path
   d="m 10400,15305 115,48 102,115 101,168 53,141 22,181 13,146 v 123 l -13,106 -35,168 -49,145 -26,142 -66,150 -18,84 4,48 67,53 141,27 154,48 137,75 27,44 -9,49 -44,40 -164,53 -53,-27 -35,-44 -71,-62 -101,-62 h -111 l -83,-4 -84,-35 -31,-40 4,-75 35,-57 40,-58 49,-44 17,-62 -4,-101 4,-146 27,-97 35,-119 53,-80 v -75 l -17,-75 -45,-123 -66,-150 -66,-115 -35,-119 -18,-89 -22,-119 -5,-110 27,-53 z"
   id="path72"
   inkscape:connector-curvature="0"
   style="fill:#000000;stroke:none" />
         <path
   d="m 10135,15305 -101,83 -89,142 -92,190 -40,198 -22,137 9,159 4,115 35,132 53,137 49,119 31,106 26,84 -4,66 -49,31 -119,26 -119,45 -75,13 -106,66 -75,53 -36,62 31,53 53,66 97,22 71,-31 40,-66 44,-71 88,-61 102,-36 106,-4 79,13 36,-22 31,-44 -5,-71 -53,-106 -62,-145 -39,-155 -14,-207 -13,-137 -13,-146 26,-101 89,-159 57,-102 62,-123 31,-120 -5,-145 -61,-62 z"
   id="path74"
   inkscape:connector-curvature="0"
   style="fill:#000000;stroke:none" />
        </g>
       </g>
      </g>
     </g>
    </g>
   </g>
  </g>
 </g>
</svg>