<?xml version="1.0" encoding="UTF-8" standalone="no"?>
<svg
   xmlns:ooo="http://xml.openoffice.org/svg/export"
   xmlns:dc="http://purl.org/dc/elements/1.1/"
   xmlns:cc="http://creativecommons.org/ns#"
   xmlns:rdf="http://www.w3.org/1999/02/22-rdf-syntax-ns#"
   xmlns:svg="http://www.w3.org/2000/svg"
   xmlns="http://www.w3.org/2000/svg"
   xmlns:sodipodi="http://sodipodi.sourceforge.net/DTD/sodipodi-0.dtd"
   xmlns:inkscape="http://www.inkscape.org/namespaces/inkscape"
   version="1.2"
   width="79.779999mm"
   height="71.389999mm"
   viewBox="0 0 7977.9999 7138.9999"
   preserveAspectRatio="xMidYMid"
   xml:space="preserve"
   id="svg90"
   sodipodi:docname="kickball.svg"
   style="fill-rule:evenodd;stroke-width:28.22200012;stroke-linejoin:round"
   inkscape:version="0.92.5 (2060ec1f9f, 2020-04-08)"><metadata
   id="metadata94"><rdf:RDF><cc:Work
       rdf:about=""><dc:format>image/svg+xml</dc:format><dc:type
         rdf:resource="http://purl.org/dc/dcmitype/StillImage" /></cc:Work></rdf:RDF></metadata><sodipodi:namedview
   pagecolor="#ffffff"
   bordercolor="#666666"
   borderopacity="1"
   objecttolerance="10"
   gridtolerance="10"
   guidetolerance="10"
   inkscape:pageopacity="0"
   inkscape:pageshadow="2"
   inkscape:window-width="664"
   inkscape:window-height="487"
   id="namedview92"
   showgrid="false"
   inkscape:zoom="0.2102413"
   inkscape:cx="150.76535"
   inkscape:cy="134.89134"
   inkscape:window-x="0"
   inkscape:window-y="0"
   inkscape:window-maximized="0"
   inkscape:current-layer="svg90" />
 <defs
   class="ClipPathGroup"
   id="defs8">
  <clipPath
   id="presentation_clip_path"
   clipPathUnits="userSpaceOnUse">
   <rect
   x="0"
   y="0"
   width="21000"
   height="29700"
   id="rect2" />
  </clipPath>
  <clipPath
   id="presentation_clip_path_shrink"
   clipPathUnits="userSpaceOnUse">
   <rect
   x="21"
   y="29"
   width="20958"
   height="29641"
   id="rect5" />
  </clipPath>
 </defs>
 <defs
   class="TextShapeIndex"
   id="defs12">
  <g
   ooo:slide="id1"
   ooo:id-list="id3"
   id="g10" />
 </defs>
 <defs
   class="EmbeddedBulletChars"
   id="defs44">
  <g
   id="bullet-char-template-57356"
   transform="matrix(4.8828125e-4,0,0,-4.8828125e-4,0,0)">
   <path
   d="M 580,1141 1163,571 580,0 -4,571 Z"
   id="path14"
   inkscape:connector-curvature="0" />
  </g>
  <g
   id="bullet-char-template-57354"
   transform="matrix(4.8828125e-4,0,0,-4.8828125e-4,0,0)">
   <path
   d="M 8,1128 H 1137 V 0 H 8 Z"
   id="path17"
   inkscape:connector-curvature="0" />
  </g>
  <g
   id="bullet-char-template-10146"
   transform="matrix(4.8828125e-4,0,0,-4.8828125e-4,0,0)">
   <path
   d="M 174,0 602,739 174,1481 1456,739 Z M 1358,739 309,1346 659,739 Z"
   id="path20"
   inkscape:connector-curvature="0" />
  </g>
  <g
   id="bullet-char-template-10132"
   transform="matrix(4.8828125e-4,0,0,-4.8828125e-4,0,0)">
   <path
   d="M 2015,739 1276,0 H 717 l 543,543 H 174 v 393 h 1086 l -543,545 h 557 z"
   id="path23"
   inkscape:connector-curvature="0" />
  </g>
  <g
   id="bullet-char-template-10007"
   transform="matrix(4.8828125e-4,0,0,-4.8828125e-4,0,0)">
   <path
   d="m 0,-2 c -7,16 -16,29 -25,39 l 381,530 c -94,256 -141,385 -141,387 0,25 13,38 40,38 9,0 21,-2 34,-5 21,4 42,12 65,25 l 27,-13 111,-251 280,301 64,-25 24,25 c 21,-10 41,-24 62,-43 C 886,937 835,863 770,784 769,783 710,716 594,584 L 774,223 c 0,-27 -21,-55 -63,-84 l 16,-20 C 717,90 699,76 672,76 641,76 570,178 457,381 L 164,-76 c -22,-34 -53,-51 -92,-51 -42,0 -63,17 -64,51 -7,9 -10,24 -10,44 0,9 1,19 2,30 z"
   id="path26"
   inkscape:connector-curvature="0" />
  </g>
  <g
   id="bullet-char-template-10004"
   transform="matrix(4.8828125e-4,0,0,-4.8828125e-4,0,0)">
   <path
   d="M 285,-33 C 182,-33 111,30 74,156 52,228 41,333 41,471 c 0,78 14,145 41,201 34,71 87,106 158,106 53,0 88,-31 106,-94 l 23,-176 c 8,-64 28,-97 59,-98 l 735,706 c 11,11 33,17 66,17 42,0 63,-15 63,-46 V 965 c 0,-36 -10,-64 -30,-84 L 442,47 C 390,-6 338,-33 285,-33 Z"
   id="path29"
   inkscape:connector-curvature="0" />
  </g>
  <g
   id="bullet-char-template-9679"
   transform="matrix(4.8828125e-4,0,0,-4.8828125e-4,0,0)">
   <path
   d="M 813,0 C 632,0 489,54 383,161 276,268 223,411 223,592 c 0,181 53,324 160,431 106,107 249,161 430,161 179,0 323,-54 432,-161 108,-107 162,-251 162,-431 0,-180 -54,-324 -162,-431 C 1136,54 992,0 813,0 Z"
   id="path32"
   inkscape:connector-curvature="0" />
  </g>
  <g
   id="bullet-char-template-8226"
   transform="matrix(4.8828125e-4,0,0,-4.8828125e-4,0,0)">
   <path
   d="m 346,457 c -73,0 -137,26 -191,78 -54,51 -81,114 -81,188 0,73 27,136 81,188 54,52 118,78 191,78 73,0 134,-26 185,-79 51,-51 77,-114 77,-187 0,-75 -25,-137 -76,-188 -50,-52 -112,-78 -186,-78 z"
   id="path35"
   inkscape:connector-curvature="0" />
  </g>
  <g
   id="bullet-char-template-8211"
   transform="matrix(4.8828125e-4,0,0,-4.8828125e-4,0,0)">
   <path
   d="M -4,459 H 1135 V 606 H -4 Z"
   id="path38"
   inkscape:connector-curvature="0" />
  </g>
  <g
   id="bullet-char-template-61548"
   transform="matrix(4.8828125e-4,0,0,-4.8828125e-4,0,0)">
   <path
   d="m 173,740 c 0,163 58,303 173,419 116,115 255,173 419,173 163,0 302,-58 418,-173 116,-116 174,-256 174,-419 0,-163 -58,-303 -174,-418 C 1067,206 928,148 765,148 601,148 462,206 346,322 231,437 173,577 173,740 Z"
   id="path41"
   inkscape:connector-curvature="0" />
  </g>
 </defs>
 <g
   id="g49"
   transform="translate(-6511,-11280)">
  <g
   id="id2"
   class="Master_Slide">
   <g
   id="bg-id2"
   class="Background" />
   <g
   id="bo-id2"
   class="BackgroundObjects" />
  </g>
 </g>
 <g
   class="SlideGroup"
   id="g88"
   transform="translate(-6511,-11280)">
  <g
   id="g86">
   <g
   id="container-id1">
    <g
   id="id1"
   class="Slide"
   clip-path="url(#presentation_clip_path)">
     <g
   class="Page"
   id="g82">
      <g
   class="Graphic"
   id="g80">
       <g
   id="id3">
        <rect
   class="BoundingBox"
   x="6511"
   y="11280"
   width="7978"
   height="7139"
   id="rect51"
   style="fill:none;stroke:none" />
        <path
   d="m 6807,12425 93,-75 119,-67 133,-22 150,-22 168,-9 137,9 133,22 128,36 110,62 111,92 88,107 80,101 53,102 35,110 22,142 v 172 l -31,137 -48,137 -66,133 -67,88 -66,80 -84,75 -102,66 -101,45 -133,48 -133,31 -141,9 -159,4 -133,-22 -110,-44 -128,-80 -98,-79 -88,-106 -84,-146 -62,-181 -22,-133 v -150 l 22,-146 31,-137 57,-128 67,-115 62,-84 z"
   id="path53"
   inkscape:connector-curvature="0"
   style="fill:#000000;stroke:none" />
        <path
   d="m 6869,12474 115,-80 137,-58 106,-22 -128,266 155,269 358,-13 119,-274 -155,-265 58,22 137,31 119,44 115,75 97,128 102,120 44,141 22,168 5,164 -23,123 -53,146 -66,111 -79,119 -129,89 -137,66 -17,13 -151,58 -185,44 -177,9 h -13 l -146,-31 -146,-75 -124,-111 -101,-115 -62,-124 -49,-141 -44,-181 26,-177 45,-173 66,-154 66,-106 z"
   id="path55"
   inkscape:connector-curvature="0"
   style="fill:#ffffff;stroke:none" />
        <path
   d="m 7112,13097 -318,-84 -173,190 80,300 279,49 216,-168 z"
   id="path57"
   inkscape:connector-curvature="0"
   style="fill:#000000;stroke:none" />
        <path
   d="m 7660,13159 -163,243 75,234 322,71 199,-234 -97,-310 z"
   id="path59"
   inkscape:connector-curvature="0"
   style="fill:#000000;stroke:none" />
        <path
   d="m 11399,12867 80,-71 119,-48 151,-31 h 145 l 120,13 128,53 141,97 124,124 150,168 93,150 106,181 102,235 57,199 31,185 5,208 -18,181 -44,168 -57,159 -89,133 -97,124 -102,75 -17,13 -84,36 -107,31 -92,8 h -93 l -75,-31 -84,-39 -93,-45 -80,-61 -39,-58 -49,-79 -40,-93 -18,-106 14,-102 4,-119 44,-133 71,-141 49,-107 31,-114 -22,-133 -40,-111 -62,-106 -137,-106 -159,-84 -75,-62 -76,-110 -30,-128 13,-137 48,-137 z"
   id="path61"
   inkscape:connector-curvature="0"
   style="fill:#000000;stroke:none" />
        <path
   d="m 11806,12858 150,-53 133,18 155,66 234,159 345,243 230,199 265,234 256,239 199,124 181,75 75,18 27,9 h 22 22 l 22,-9 27,-13 17,-5 27,-26 18,-18 26,-13 18,-5 31,-13 31,-13 h 31 26 l 27,17 22,14 26,8 18,23 18,31 v 22 l -9,22 -22,13 -31,18 -31,13 -18,9 -26,4 h -31 -18 -27 -22 -22 -22 -26 l -18,18 -27,13 -4,27 -13,17 -14,27 v 22 22 22 27 17 27 l 18,31 9,26 4,22 v 27 l 18,27 9,22 13,31 5,22 v 22 l 13,31 v 40 17 l -27,27 -17,13 -31,4 -27,-4 -31,-13 -17,-9 -27,-22 -13,-27 v -17 l -5,-31 -17,-31 v -22 -23 -26 -27 l -9,-22 -5,-26 v -18 l -13,-26 v -14 l -4,-22 -13,-22 h -27 v 22 l -13,22 -18,31 -13,22 v 22 l -44,129 -23,17 -22,14 h -22 -26 -18 l -26,-14 -14,-26 -31,-18 -4,-26 v -22 l 4,-23 -4,-22 v -26 l 13,-18 22,-9 14,-22 26,-26 5,-18 26,-13 13,-27 22,-4 9,-27 13,-17 v -27 -22 l -13,-71 -88,-62 -208,-101 -181,-106 -243,-182 -221,-123 -336,-146 -358,-212 -270,-208 -132,-155 26,-115 z"
   id="path63"
   inkscape:connector-curvature="0"
   style="fill:#000000;stroke:none" />
        <path
   d="m 11643,12924 -27,133 27,102 66,123 155,182 238,265 186,172 221,199 225,204 124,145 84,137 22,67 5,17 4,14 4,17 -13,27 -4,22 -5,13 -22,22 -9,18 -9,27 -4,13 -13,26 v 27 l -5,26 v 23 l 27,22 9,4 9,22 22,18 22,9 h 22 l 22,-9 9,-18 13,-26 5,-27 4,-22 v -13 l -4,-27 13,-13 v -27 l -13,-8 v -22 l -5,-18 5,-22 13,-14 9,-26 17,-4 14,-14 22,-9 h 17 l 22,-4 14,-4 22,4 17,-4 h 18 l 36,8 26,14 13,4 22,-4 27,4 22,13 27,5 h 17 22 l 27,13 31,-4 h 17 l 23,-27 4,-22 9,-22 -9,-22 -18,-18 -9,-22 -13,-13 -26,-9 -18,-5 h -22 l -27,-8 h -26 l -9,4 h -27 -26 l -18,-4 -26,-5 h -13 l -18,-4 h -18 l -18,-5 h -26 l 4,-22 18,-4 13,-9 27,-27 22,-8 22,4 106,-49 5,-22 17,-22 -4,-13 -5,-18 -4,-17 -18,-18 -13,-13 -22,-31 h -18 -13 l -27,13 -17,-4 -22,4 -27,13 -4,18 -5,9 -26,17 -9,14 -9,17 -31,18 v 13 l -26,14 -5,13 -31,4 h -13 l -62,-9 -62,-70 -101,-159 -106,-142 -173,-186 -128,-172 -155,-265 -212,-274 -194,-212 -142,-98 -97,31 z"
   id="path65"
   inkscape:connector-curvature="0"
   style="fill:#000000;stroke:none" />
        <path
   d="m 10622,12239 -76,-194 -44,-177 -4,-168 31,-124 48,-119 75,-75 102,-58 119,-35 142,-9 150,27 128,35 142,75 115,84 88,106 75,119 62,124 44,164 31,163 5,137 -31,106 -44,76 -67,66 -84,44 -110,44 -146,27 -164,13 -150,-40 -150,-88 -119,-66 -138,-31 -110,31 -75,48 -71,40 h -75 l -84,-40 -35,-66 v -88 l 88,-58 115,-31 128,-31 z"
   id="path67"
   inkscape:connector-curvature="0"
   style="fill:#000000;stroke:none" />
        <path
   d="m 12575,14763 40,93 -9,106 -62,93 -137,80 h -22 l -225,48 -230,31 -270,-13 -230,-31 -287,-57 -265,-71 -243,-80 -120,-17 h -97 l -75,35 -146,102 -168,168 -185,176 -177,142 -168,101 -168,76 -137,92 -22,5 -40,71 -35,92 -27,14 -44,17 -93,5 -88,-44 -49,-80 -44,-106 -66,-111 -93,-92 -133,-53 -106,8 -119,31 -22,5 -58,-31 -13,-44 40,-93 203,-93 186,-44 88,26 124,80 137,155 75,53 106,17 133,-70 168,-146 141,-182 168,-203 155,-168 119,-93 212,-123 133,-31 230,-49 349,-13 h 340 l 301,13 318,-9 274,18 261,44 124,75 26,49 z"
   id="path69"
   inkscape:connector-curvature="0"
   style="fill:#000000;stroke:none" />
        <path
   d="m 11678,15197 71,-173 123,-239 151,-137 159,-62 185,-30 146,44 93,48 35,93 14,124 -31,97 -44,111 -102,154 -137,173 -155,168 -177,172 -128,146 -106,111 -35,79 9,62 31,137 212,226 110,150 111,208 79,185 93,195 84,119 111,66 88,89 31,79 4,93 -17,97 -45,80 -114,80 -93,123 -49,129 31,137 -18,61 -57,23 -296,-5 -22,5 -62,-62 -31,-80 22,-110 h 172 l 62,-67 40,-190 31,-199 -31,-185 -57,-151 -160,-230 -229,-238 -190,-248 -5,-22 -88,-141 -71,-186 -31,-168 -9,-146 18,-141 88,-252 93,-186 z"
   id="path71"
   inkscape:connector-curvature="0"
   style="fill:#000000;stroke:none" />
        <path
   d="m 8252,14900 36,-17 35,-9 36,9 17,26 27,18 9,26 17,36 v 26 l -26,27 -9,26 h -27 l -26,9 h -27 -26 l -36,-9 -17,-26 -9,-27 -18,-26 9,-27 9,-26 z"
   id="path73"
   inkscape:connector-curvature="0"
   style="fill:#000000;stroke:none" />
        <path
   d="m 8085,14502 35,-17 35,-9 36,9 17,26 27,18 9,27 17,35 v 26 l -26,27 -9,26 h -27 l -26,9 h -27 -26 l -35,-9 -18,-26 -9,-27 -18,-26 9,-27 9,-26 z"
   id="path75"
   inkscape:connector-curvature="0"
   style="fill:#000000;stroke:none" />
        <path
   d="m 7899,14158 35,-18 36,-9 35,9 18,27 26,17 9,27 18,35 v 27 l -27,26 -9,27 h -26 l -27,9 h -26 -27 l -35,-9 -18,-27 -9,-26 -17,-27 9,-26 8,-27 z"
   id="path77"
   inkscape:connector-curvature="0"
   style="fill:#000000;stroke:none" />
       </g>
      </g>
     </g>
    </g>
   </g>
  </g>
 </g>
</svg>