<?xml version="1.0" encoding="UTF-8" standalone="no"?>
<svg
   xmlns:ooo="http://xml.openoffice.org/svg/export"
   xmlns:dc="http://purl.org/dc/elements/1.1/"
   xmlns:cc="http://creativecommons.org/ns#"
   xmlns:rdf="http://www.w3.org/1999/02/22-rdf-syntax-ns#"
   xmlns:svg="http://www.w3.org/2000/svg"
   xmlns="http://www.w3.org/2000/svg"
   xmlns:sodipodi="http://sodipodi.sourceforge.net/DTD/sodipodi-0.dtd"
   xmlns:inkscape="http://www.inkscape.org/namespaces/inkscape"
   version="1.2"
   width="75.190002mm"
   height="68.040001mm"
   viewBox="0 0 7519.0002 6804.0001"
   preserveAspectRatio="xMidYMid"
   xml:space="preserve"
   id="svg125"
   sodipodi:docname="lookout.svg"
   style="fill-rule:evenodd;stroke-width:28.22200012;stroke-linejoin:round"
   inkscape:version="0.92.5 (2060ec1f9f, 2020-04-08)"><metadata
   id="metadata129"><rdf:RDF><cc:Work
       rdf:about=""><dc:format>image/svg+xml</dc:format><dc:type
         rdf:resource="http://purl.org/dc/dcmitype/StillImage" /></cc:Work></rdf:RDF></metadata><sodipodi:namedview
   pagecolor="#ffffff"
   bordercolor="#666666"
   borderopacity="1"
   objecttolerance="10"
   gridtolerance="10"
   guidetolerance="10"
   inkscape:pageopacity="0"
   inkscape:pageshadow="2"
   inkscape:window-width="664"
   inkscape:window-height="487"
   id="namedview127"
   showgrid="false"
   inkscape:zoom="0.2102413"
   inkscape:cx="142.11024"
   inkscape:cy="128.57953"
   inkscape:window-x="0"
   inkscape:window-y="0"
   inkscape:window-maximized="0"
   inkscape:current-layer="svg125" />
 <defs
   class="ClipPathGroup"
   id="defs8">
  <clipPath
   id="presentation_clip_path"
   clipPathUnits="userSpaceOnUse">
   <rect
   x="0"
   y="0"
   width="21000"
   height="29700"
   id="rect2" />
  </clipPath>
  <clipPath
   id="presentation_clip_path_shrink"
   clipPathUnits="userSpaceOnUse">
   <rect
   x="21"
   y="29"
   width="20958"
   height="29641"
   id="rect5" />
  </clipPath>
 </defs>
 <defs
   class="TextShapeIndex"
   id="defs12">
  <g
   ooo:slide="id1"
   ooo:id-list="id3"
   id="g10" />
 </defs>
 <defs
   class="EmbeddedBulletChars"
   id="defs44">
  <g
   id="bullet-char-template-57356"
   transform="matrix(4.8828125e-4,0,0,-4.8828125e-4,0,0)">
   <path
   d="M 580,1141 1163,571 580,0 -4,571 Z"
   id="path14"
   inkscape:connector-curvature="0" />
  </g>
  <g
   id="bullet-char-template-57354"
   transform="matrix(4.8828125e-4,0,0,-4.8828125e-4,0,0)">
   <path
   d="M 8,1128 H 1137 V 0 H 8 Z"
   id="path17"
   inkscape:connector-curvature="0" />
  </g>
  <g
   id="bullet-char-template-10146"
   transform="matrix(4.8828125e-4,0,0,-4.8828125e-4,0,0)">
   <path
   d="M 174,0 602,739 174,1481 1456,739 Z M 1358,739 309,1346 659,739 Z"
   id="path20"
   inkscape:connector-curvature="0" />
  </g>
  <g
   id="bullet-char-template-10132"
   transform="matrix(4.8828125e-4,0,0,-4.8828125e-4,0,0)">
   <path
   d="M 2015,739 1276,0 H 717 l 543,543 H 174 v 393 h 1086 l -543,545 h 557 z"
   id="path23"
   inkscape:connector-curvature="0" />
  </g>
  <g
   id="bullet-char-template-10007"
   transform="matrix(4.8828125e-4,0,0,-4.8828125e-4,0,0)">
   <path
   d="m 0,-2 c -7,16 -16,29 -25,39 l 381,530 c -94,256 -141,385 -141,387 0,25 13,38 40,38 9,0 21,-2 34,-5 21,4 42,12 65,25 l 27,-13 111,-251 280,301 64,-25 24,25 c 21,-10 41,-24 62,-43 C 886,937 835,863 770,784 769,783 710,716 594,584 L 774,223 c 0,-27 -21,-55 -63,-84 l 16,-20 C 717,90 699,76 672,76 641,76 570,178 457,381 L 164,-76 c -22,-34 -53,-51 -92,-51 -42,0 -63,17 -64,51 -7,9 -10,24 -10,44 0,9 1,19 2,30 z"
   id="path26"
   inkscape:connector-curvature="0" />
  </g>
  <g
   id="bullet-char-template-10004"
   transform="matrix(4.8828125e-4,0,0,-4.8828125e-4,0,0)">
   <path
   d="M 285,-33 C 182,-33 111,30 74,156 52,228 41,333 41,471 c 0,78 14,145 41,201 34,71 87,106 158,106 53,0 88,-31 106,-94 l 23,-176 c 8,-64 28,-97 59,-98 l 735,706 c 11,11 33,17 66,17 42,0 63,-15 63,-46 V 965 c 0,-36 -10,-64 -30,-84 L 442,47 C 390,-6 338,-33 285,-33 Z"
   id="path29"
   inkscape:connector-curvature="0" />
  </g>
  <g
   id="bullet-char-template-9679"
   transform="matrix(4.8828125e-4,0,0,-4.8828125e-4,0,0)">
   <path
   d="M 813,0 C 632,0 489,54 383,161 276,268 223,411 223,592 c 0,181 53,324 160,431 106,107 249,161 430,161 179,0 323,-54 432,-161 108,-107 162,-251 162,-431 0,-180 -54,-324 -162,-431 C 1136,54 992,0 813,0 Z"
   id="path32"
   inkscape:connector-curvature="0" />
  </g>
  <g
   id="bullet-char-template-8226"
   transform="matrix(4.8828125e-4,0,0,-4.8828125e-4,0,0)">
   <path
   d="m 346,457 c -73,0 -137,26 -191,78 -54,51 -81,114 -81,188 0,73 27,136 81,188 54,52 118,78 191,78 73,0 134,-26 185,-79 51,-51 77,-114 77,-187 0,-75 -25,-137 -76,-188 -50,-52 -112,-78 -186,-78 z"
   id="path35"
   inkscape:connector-curvature="0" />
  </g>
  <g
   id="bullet-char-template-8211"
   transform="matrix(4.8828125e-4,0,0,-4.8828125e-4,0,0)">
   <path
   d="M -4,459 H 1135 V 606 H -4 Z"
   id="path38"
   inkscape:connector-curvature="0" />
  </g>
  <g
   id="bullet-char-template-61548"
   transform="matrix(4.8828125e-4,0,0,-4.8828125e-4,0,0)">
   <path
   d="m 173,740 c 0,163 58,303 173,419 116,115 255,173 419,173 163,0 302,-58 418,-173 116,-116 174,-256 174,-419 0,-163 -58,-303 -174,-418 C 1067,206 928,148 765,148 601,148 462,206 346,322 231,437 173,577 173,740 Z"
   id="path41"
   inkscape:connector-curvature="0" />
  </g>
 </defs>
 <g
   id="g49"
   transform="translate(-6740,-11448)">
  <g
   id="id2"
   class="Master_Slide">
   <g
   id="bg-id2"
   class="Background" />
   <g
   id="bo-id2"
   class="BackgroundObjects" />
  </g>
 </g>
 <g
   class="SlideGroup"
   id="g123"
   transform="translate(-6740,-11448)">
  <g
   id="g121">
   <g
   id="container-id1">
    <g
   id="id1"
   class="Slide"
   clip-path="url(#presentation_clip_path)">
     <g
   class="Page"
   id="g117">
      <g
   class="Graphic"
   id="g115">
       <g
   id="id3">
        <rect
   class="BoundingBox"
   x="6740"
   y="11448"
   width="7519"
   height="6804"
   id="rect51"
   style="fill:none;stroke:none" />
        <defs
   id="defs56">
         <clipPath
   id="clip_path_1"
   clipPathUnits="userSpaceOnUse">
          <path
   d="m 6740,11448 h 7518 v 6803 H 6740 Z"
   id="path53"
   inkscape:connector-curvature="0" />
         </clipPath>
        </defs>
        <g
   clip-path="url(#clip_path_1)"
   id="g112">
         <path
   d="m 7750,12066 89,-97 h 154 l 35,141 -8,419 -106,57 -155,-83 -9,-287 z"
   id="path58"
   inkscape:connector-curvature="0"
   style="fill:#f9cf66;stroke:none" />
         <path
   d="m 9520,12026 9,-172 101,-71 155,22 92,93 -44,706 -176,66 -181,-88 z"
   id="path60"
   inkscape:connector-curvature="0"
   style="fill:#f9cf66;stroke:none" />
         <path
   d="m 11281,11850 92,-98 h 181 l 84,106 -9,790 -203,66 -154,-88 z"
   id="path62"
   inkscape:connector-curvature="0"
   style="fill:#f9cf66;stroke:none" />
         <path
   d="m 13871,11647 101,-102 h 181 l 62,172 -35,1086 -146,128 -190,-150 z"
   id="path64"
   inkscape:connector-curvature="0"
   style="fill:#f9cf66;stroke:none" />
         <path
   d="m 8006,12070 1523,-75 -22,534 H 8006 Z"
   id="path66"
   inkscape:connector-curvature="0"
   style="fill:#00279f;stroke:none" />
         <path
   d="m 9886,11942 1421,-66 -22,732 -1461,-26 z"
   id="path68"
   inkscape:connector-curvature="0"
   style="fill:#00279f;stroke:none" />
         <path
   d="m 11651,11836 2229,-176 -40,1174 -2220,-208 z"
   id="path70"
   inkscape:connector-curvature="0"
   style="fill:#00279f;stroke:none" />
         <path
   d="m 7834,12119 -26,-71 79,-35 53,26 27,49 v 370 l -36,67 -97,-18 -35,-49 v 89 l 53,48 79,27 89,-27 44,-88 26,-79 -17,-358 -27,-70 -62,-75 h -79 l -80,17 -44,58 z"
   id="path72"
   inkscape:connector-curvature="0"
   style="fill:#000000;stroke:none" />
         <path
   d="m 7843,11947 -101,48 -36,97 27,274 9,145 44,49 84,26 h 88 l -115,-83 -31,-115 9,-296 z"
   id="path74"
   inkscape:connector-curvature="0"
   style="fill:#000000;stroke:none" />
         <path
   d="m 9555,11832 40,-57 101,-23 102,23 97,48 26,106 -17,600 -31,146 -119,48 h -133 l -92,-48 -75,-80 v -66 l 92,49 102,39 79,-39 71,-49 9,-150 v -481 l -62,-48 -93,8 z"
   id="path76"
   inkscape:connector-curvature="0"
   style="fill:#000000;stroke:none" />
         <path
   d="m 9480,11880 53,-70 106,-49 97,40 -132,79 -27,75 -17,570 26,70 97,58 -185,-31 -44,-75 z"
   id="path78"
   inkscape:connector-curvature="0"
   style="fill:#000000;stroke:none" />
         <path
   d="m 11325,11775 39,-62 102,-27 101,27 97,53 27,119 -18,675 -31,163 -119,53 h -132 l -93,-53 -75,-92 v -71 l 93,53 101,44 80,-44 70,-53 9,-172 v -538 l -62,-58 -92,13 z"
   id="path80"
   inkscape:connector-curvature="0"
   style="fill:#000000;stroke:none" />
         <path
   d="m 11250,11827 53,-83 105,-53 98,44 -133,92 -26,84 -18,645 27,83 97,62 -186,-35 -44,-84 z"
   id="path82"
   inkscape:connector-curvature="0"
   style="fill:#000000;stroke:none" />
         <path
   d="m 13902,11580 39,-88 102,-40 101,40 97,75 27,168 -18,957 -31,234 -119,75 h -132 l -93,-75 -75,-128 v -106 l 93,80 101,62 80,-62 70,-80 9,-242 v -768 l -62,-75 -92,13 z"
   id="path84"
   inkscape:connector-curvature="0"
   style="fill:#000000;stroke:none" />
         <path
   d="m 13827,11655 53,-114 105,-80 97,66 -132,128 -26,115 -18,918 26,119 98,88 -186,-53 -44,-114 z"
   id="path86"
   inkscape:connector-curvature="0"
   style="fill:#000000;stroke:none" />
         <path
   d="m 11581,11801 2347,-225 -48,150 -2260,181 z"
   id="path88"
   inkscape:connector-curvature="0"
   style="fill:#000000;stroke:none" />
         <path
   d="m 11594,12564 2294,181 49,133 -2343,-208 z"
   id="path90"
   inkscape:connector-curvature="0"
   style="fill:#000000;stroke:none" />
         <path
   d="m 9873,11894 1438,-84 18,159 -1487,35 z"
   id="path92"
   inkscape:connector-curvature="0"
   style="fill:#000000;stroke:none" />
         <path
   d="m 9842,12503 1443,30 22,137 -1505,-31 z"
   id="path94"
   inkscape:connector-curvature="0"
   style="fill:#000000;stroke:none" />
         <path
   d="m 8037,12030 1514,-83 -40,132 -1496,57 z"
   id="path96"
   inkscape:connector-curvature="0"
   style="fill:#000000;stroke:none" />
         <path
   d="m 8015,12454 1509,-22 9,146 -1588,-22 z"
   id="path98"
   inkscape:connector-curvature="0"
   style="fill:#000000;stroke:none" />
         <path
   d="m 7755,12291 -66,-168 -71,-163 -97,-177 -93,-110 -97,-57 -123,-22 h -137 l -119,30 -102,98 -70,132 -49,146 v 163 l 49,220 92,208 97,141 128,119 164,106 159,22 h 119 l 97,-31 53,-70 70,-97 27,-168 13,-132 168,88 211,44 58,-71 -9,-92 -181,-67 -190,-30 z"
   id="path100"
   inkscape:connector-curvature="0"
   style="fill:#000000;stroke:none" />
         <path
   d="m 7420,13200 216,-49 167,18 93,44 168,141 110,168 80,163 88,221 79,234 49,300 -9,211 -22,221 -66,181 -71,141 -128,133 -163,97 -186,44 -189,9 -177,-49 -92,-71 -97,-114 -40,-141 -9,-151 9,-172 88,-145 93,-163 48,-102 -22,-159 -66,-115 -93,-119 -97,-163 -31,-168 22,-163 58,-128 88,-84 z"
   id="path102"
   inkscape:connector-curvature="0"
   style="fill:#000000;stroke:none" />
         <path
   d="m 7614,13288 -93,31 -88,119 48,119 177,93 331,70 291,18 419,-40 353,-48 h 119 l 84,-44 80,-128 141,-216 181,-155 194,-190 159,-119 172,-97 203,-48 110,-45 93,-79 -40,-110 -141,-31 -110,-49 -31,-136 -84,-102 -102,49 5,172 97,136 -49,80 -163,132 -260,150 -283,190 -194,181 -132,168 -93,30 -199,18 -366,9 h -304 l -261,-49 z"
   id="path104"
   inkscape:connector-curvature="0"
   style="fill:#000000;stroke:none" />
         <path
   d="m 7693,13217 -123,31 -18,111 93,150 189,110 217,101 322,71 h 388 l 93,-9 26,-212 40,-282 9,-322 13,-177 31,-141 88,-70 150,-40 -9,-80 h -251 l -58,-154 -70,-97 -14,-124 62,-110 102,-26 26,-75 -128,-71 -167,-18 -93,49 -71,141 -48,93 31,141 48,141 119,137 111,79 8,164 -26,308 -31,234 -88,230 -44,22 -247,-22 -230,-62 -141,-97 -150,-71 z"
   id="path106"
   inkscape:connector-curvature="0"
   style="fill:#000000;stroke:none" />
         <path
   d="m 7389,15353 -31,-172 31,-163 119,-111 137,40 128,141 39,234 31,375 -4,336 -44,326 -45,353 -75,274 -30,163 -14,287 40,189 71,133 97,70 189,93 265,53 128,26 62,62 -22,44 -75,49 -168,93 -167,8 -89,-30 -79,-93 -141,-97 -234,-84 -80,-9 -88,-22 -22,-71 v -110 l 49,-101 70,-111 27,-278 -9,-331 22,-238 31,-229 -5,-208 -39,-291 -36,-225 9,-234 z"
   id="path108"
   inkscape:connector-curvature="0"
   style="fill:#000000;stroke:none" />
         <path
   d="m 8002,14947 190,194 110,203 93,234 75,282 31,292 -27,273 -31,283 -39,278 -71,269 -9,163 27,84 141,31 216,26 243,71 39,62 49,141 -22,44 -97,9 -208,-49 -198,-92 -203,-22 -119,-9 -128,-49 -22,-84 22,-101 79,-141 71,-164 40,-366 v -260 -194 l -14,-203 -48,-172 -58,-203 -132,-199 -106,-154 -132,-195 -49,-132 49,-128 92,-22 z"
   id="path110"
   inkscape:connector-curvature="0"
   style="fill:#000000;stroke:none" />
        </g>
       </g>
      </g>
     </g>
    </g>
   </g>
  </g>
 </g>
</svg>