<?xml version="1.0" encoding="UTF-8" standalone="no"?>
<svg
   xmlns:ooo="http://xml.openoffice.org/svg/export"
   xmlns:dc="http://purl.org/dc/elements/1.1/"
   xmlns:cc="http://creativecommons.org/ns#"
   xmlns:rdf="http://www.w3.org/1999/02/22-rdf-syntax-ns#"
   xmlns:svg="http://www.w3.org/2000/svg"
   xmlns="http://www.w3.org/2000/svg"
   xmlns:sodipodi="http://sodipodi.sourceforge.net/DTD/sodipodi-0.dtd"
   xmlns:inkscape="http://www.inkscape.org/namespaces/inkscape"
   version="1.2"
   width="60.02mm"
   height="52.779999mm"
   viewBox="0 0 6002 5277.9999"
   preserveAspectRatio="xMidYMid"
   xml:space="preserve"
   id="svg116"
   sodipodi:docname="mailpkg.svg"
   style="fill-rule:evenodd;stroke-width:28.22200012;stroke-linejoin:round"
   inkscape:version="0.92.5 (2060ec1f9f, 2020-04-08)"><metadata
   id="metadata120"><rdf:RDF><cc:Work
       rdf:about=""><dc:format>image/svg+xml</dc:format><dc:type
         rdf:resource="http://purl.org/dc/dcmitype/StillImage" /></cc:Work></rdf:RDF></metadata><sodipodi:namedview
   pagecolor="#ffffff"
   bordercolor="#666666"
   borderopacity="1"
   objecttolerance="10"
   gridtolerance="10"
   guidetolerance="10"
   inkscape:pageopacity="0"
   inkscape:pageshadow="2"
   inkscape:window-width="664"
   inkscape:window-height="487"
   id="namedview118"
   showgrid="false"
   inkscape:zoom="0.2102413"
   inkscape:cx="113.42362"
   inkscape:cy="99.741731"
   inkscape:window-x="0"
   inkscape:window-y="0"
   inkscape:window-maximized="0"
   inkscape:current-layer="svg116" />
 <defs
   class="ClipPathGroup"
   id="defs8">
  <clipPath
   id="presentation_clip_path"
   clipPathUnits="userSpaceOnUse">
   <rect
   x="0"
   y="0"
   width="21000"
   height="29700"
   id="rect2" />
  </clipPath>
  <clipPath
   id="presentation_clip_path_shrink"
   clipPathUnits="userSpaceOnUse">
   <rect
   x="21"
   y="29"
   width="20958"
   height="29641"
   id="rect5" />
  </clipPath>
 </defs>
 <defs
   class="TextShapeIndex"
   id="defs12">
  <g
   ooo:slide="id1"
   ooo:id-list="id3"
   id="g10" />
 </defs>
 <defs
   class="EmbeddedBulletChars"
   id="defs44">
  <g
   id="bullet-char-template-57356"
   transform="matrix(4.8828125e-4,0,0,-4.8828125e-4,0,0)">
   <path
   d="M 580,1141 1163,571 580,0 -4,571 Z"
   id="path14"
   inkscape:connector-curvature="0" />
  </g>
  <g
   id="bullet-char-template-57354"
   transform="matrix(4.8828125e-4,0,0,-4.8828125e-4,0,0)">
   <path
   d="M 8,1128 H 1137 V 0 H 8 Z"
   id="path17"
   inkscape:connector-curvature="0" />
  </g>
  <g
   id="bullet-char-template-10146"
   transform="matrix(4.8828125e-4,0,0,-4.8828125e-4,0,0)">
   <path
   d="M 174,0 602,739 174,1481 1456,739 Z M 1358,739 309,1346 659,739 Z"
   id="path20"
   inkscape:connector-curvature="0" />
  </g>
  <g
   id="bullet-char-template-10132"
   transform="matrix(4.8828125e-4,0,0,-4.8828125e-4,0,0)">
   <path
   d="M 2015,739 1276,0 H 717 l 543,543 H 174 v 393 h 1086 l -543,545 h 557 z"
   id="path23"
   inkscape:connector-curvature="0" />
  </g>
  <g
   id="bullet-char-template-10007"
   transform="matrix(4.8828125e-4,0,0,-4.8828125e-4,0,0)">
   <path
   d="m 0,-2 c -7,16 -16,29 -25,39 l 381,530 c -94,256 -141,385 -141,387 0,25 13,38 40,38 9,0 21,-2 34,-5 21,4 42,12 65,25 l 27,-13 111,-251 280,301 64,-25 24,25 c 21,-10 41,-24 62,-43 C 886,937 835,863 770,784 769,783 710,716 594,584 L 774,223 c 0,-27 -21,-55 -63,-84 l 16,-20 C 717,90 699,76 672,76 641,76 570,178 457,381 L 164,-76 c -22,-34 -53,-51 -92,-51 -42,0 -63,17 -64,51 -7,9 -10,24 -10,44 0,9 1,19 2,30 z"
   id="path26"
   inkscape:connector-curvature="0" />
  </g>
  <g
   id="bullet-char-template-10004"
   transform="matrix(4.8828125e-4,0,0,-4.8828125e-4,0,0)">
   <path
   d="M 285,-33 C 182,-33 111,30 74,156 52,228 41,333 41,471 c 0,78 14,145 41,201 34,71 87,106 158,106 53,0 88,-31 106,-94 l 23,-176 c 8,-64 28,-97 59,-98 l 735,706 c 11,11 33,17 66,17 42,0 63,-15 63,-46 V 965 c 0,-36 -10,-64 -30,-84 L 442,47 C 390,-6 338,-33 285,-33 Z"
   id="path29"
   inkscape:connector-curvature="0" />
  </g>
  <g
   id="bullet-char-template-9679"
   transform="matrix(4.8828125e-4,0,0,-4.8828125e-4,0,0)">
   <path
   d="M 813,0 C 632,0 489,54 383,161 276,268 223,411 223,592 c 0,181 53,324 160,431 106,107 249,161 430,161 179,0 323,-54 432,-161 108,-107 162,-251 162,-431 0,-180 -54,-324 -162,-431 C 1136,54 992,0 813,0 Z"
   id="path32"
   inkscape:connector-curvature="0" />
  </g>
  <g
   id="bullet-char-template-8226"
   transform="matrix(4.8828125e-4,0,0,-4.8828125e-4,0,0)">
   <path
   d="m 346,457 c -73,0 -137,26 -191,78 -54,51 -81,114 -81,188 0,73 27,136 81,188 54,52 118,78 191,78 73,0 134,-26 185,-79 51,-51 77,-114 77,-187 0,-75 -25,-137 -76,-188 -50,-52 -112,-78 -186,-78 z"
   id="path35"
   inkscape:connector-curvature="0" />
  </g>
  <g
   id="bullet-char-template-8211"
   transform="matrix(4.8828125e-4,0,0,-4.8828125e-4,0,0)">
   <path
   d="M -4,459 H 1135 V 606 H -4 Z"
   id="path38"
   inkscape:connector-curvature="0" />
  </g>
  <g
   id="bullet-char-template-61548"
   transform="matrix(4.8828125e-4,0,0,-4.8828125e-4,0,0)">
   <path
   d="m 173,740 c 0,163 58,303 173,419 116,115 255,173 419,173 163,0 302,-58 418,-173 116,-116 174,-256 174,-419 0,-163 -58,-303 -174,-418 C 1067,206 928,148 765,148 601,148 462,206 346,322 231,437 173,577 173,740 Z"
   id="path41"
   inkscape:connector-curvature="0" />
  </g>
 </defs>
 <g
   id="g49"
   transform="translate(-7499,-12211)">
  <g
   id="id2"
   class="Master_Slide">
   <g
   id="bg-id2"
   class="Background" />
   <g
   id="bo-id2"
   class="BackgroundObjects" />
  </g>
 </g>
 <g
   class="SlideGroup"
   id="g114"
   transform="translate(-7499,-12211)">
  <g
   id="g112">
   <g
   id="container-id1">
    <g
   id="id1"
   class="Slide"
   clip-path="url(#presentation_clip_path)">
     <g
   class="Page"
   id="g108">
      <g
   class="Graphic"
   id="g106">
       <g
   id="id3">
        <rect
   class="BoundingBox"
   x="7499"
   y="12211"
   width="6002"
   height="5278"
   id="rect51"
   style="fill:none;stroke:none" />
        <path
   d="m 9463,14113 521,-256 335,-132 309,-97 256,-115 88,18 278,211 450,300 336,212 353,159 529,247 534,247 -26,9 -18,106 -53,172 -35,742 27,282 8,380 -26,132 -234,106 -318,88 -362,106 -432,234 -274,168 -79,-80 -265,-220 -384,-305 -432,-291 -415,-291 -212,-168 -388,-274 -177,-150 35,-578 9,-512 18,-176 z"
   id="path53"
   inkscape:connector-curvature="0"
   style="fill:#996633;stroke:none" />
        <path
   d="m 9798,14563 371,212 331,207 432,256 459,265 265,168 -26,62 -71,-9 -282,-203 -450,-256 -464,-300 -406,-252 -26,9 z"
   id="path55"
   inkscape:connector-curvature="0"
   style="fill:#663300;stroke:none" />
        <path
   d="m 11837,15556 539,-194 432,-150 397,-115 -17,53 -203,88 -36,-8 -618,220 h -26 l -432,186 -53,-45 z"
   id="path57"
   inkscape:connector-curvature="0"
   style="fill:#663300;stroke:none" />
        <path
   d="m 11895,15856 211,163 203,221 80,88 -35,53 -212,-203 -239,-291 z"
   id="path59"
   inkscape:connector-curvature="0"
   style="fill:#663300;stroke:none" />
        <path
   d="m 12870,15997 -124,195 -26,-27 18,-79 123,-195 141,-176 124,-185 18,53 -98,167 -132,177 106,141 97,168 44,141 -132,-177 -97,-150 z"
   id="path61"
   inkscape:connector-curvature="0"
   style="fill:#663300;stroke:none" />
        <path
   d="m 12133,16249 35,44 -159,344 -106,318 h -44 v -53 l 106,-300 124,-238 z"
   id="path63"
   inkscape:connector-curvature="0"
   style="fill:#663300;stroke:none" />
        <path
   d="m 11665,15856 35,27 -35,264 v 27 l -26,472 8,441 -26,45 -53,-27 v -282 l 26,-486 27,-366 z"
   id="path65"
   inkscape:connector-curvature="0"
   style="fill:#663300;stroke:none" />
        <path
   d="m 9410,14325 35,26 -17,671 -9,27 26,622 71,70 247,203 291,177 186,150 278,212 264,185 389,256 326,234 142,141 70,62 80,-9 185,-115 291,-154 190,-115 168,-53 238,-44 132,-44 203,-71 106,-61 36,-212 -18,-203 -26,-309 v -300 l 8,-256 v -230 l 53,-154 v -97 l -53,-62 -948,-415 -336,-176 -432,-274 -362,-238 -283,-186 -53,-17 -97,35 -203,80 -212,79 -198,53 -212,115 -35,-36 9,-53 255,-97 261,-79 212,-88 203,-115 70,9 124,79 291,230 327,203 379,256 327,158 349,142 406,185 326,159 27,53 -9,26 -80,190 -35,327 -18,441 53,424 -9,300 -17,123 -35,27 -239,88 -300,88 -300,62 -207,88 -318,208 -221,132 -79,27 -80,-71 -150,-177 -220,-189 -274,-186 -247,-150 -238,-185 -234,-168 -186,-159 -203,-123 -282,-186 -194,-158 -53,-62 26,-168 18,-507 -9,-389 z"
   id="path67"
   inkscape:connector-curvature="0"
   style="fill:#000000;stroke:none" />
        <path
   d="m 11021,14325 h 35 27 l 8,26 18,27 -9,26 27,18 26,9 27,9 h 26 27 26 l 27,8 26,9 18,36 v 26 l -36,18 v 26 l -8,22 26,9 h 31 26 27 26 36 35 26 l 27,18 26,26 9,27 -17,26 -9,27 v 26 l 35,9 27,18 h 44 35 35 27 26 36 l 26,8 27,9 17,27 v 26 l -26,27 9,26 h 35 35 35 l 45,9 35,18 26,17 18,27 9,26 v 27 l -27,17 -35,18 h -26 l -27,-18 v -26 -27 l -26,-17 h -27 l -26,-9 h -27 -26 -27 -26 -27 l -26,-18 -27,-9 v -35 l 9,-26 27,-18 -36,-18 h -26 -27 -26 -27 -35 -35 l -27,-17 -26,-9 -18,-27 -9,-26 v -27 -26 -27 l 9,-26 -35,-18 -27,-8 -26,8 h -27 -30 -27 -26 l -45,-17 -26,-18 -9,-31 v -26 -27 l 9,-26 -27,-9 -26,-18 h -26 l -45,-9 h -26 -27 l -26,-26 -27,-9 -26,-35 v -27 z"
   id="path69"
   inkscape:connector-curvature="0"
   style="fill:#000000;stroke:none" />
        <path
   d="m 10827,14440 h 35 26 l 9,26 18,27 -9,26 26,18 27,9 26,8 h 27 26 27 l 26,9 27,9 18,35 v 27 l -36,17 v 27 l -9,22 27,9 h 31 26 27 26 35 36 26 l 27,17 26,27 9,26 -18,27 -8,26 v 27 l 35,9 26,17 h 44 36 35 27 26 35 l 27,9 26,9 18,26 v 27 l -26,26 8,27 h 36 35 35 l 44,9 36,17 26,18 18,26 9,27 v 26 l -27,18 -35,18 h -27 l -26,-18 v -26 -27 l -27,-18 h -26 l -27,-8 h -26 -26 -27 -26 -27 l -26,-18 -27,-9 v -35 l 9,-27 26,-17 -35,-18 h -26 -27 -26 -27 -35 -35 l -27,-18 -26,-8 -18,-27 -9,-26 v -27 -26 -27 l 9,-26 -35,-18 -27,-9 -26,9 h -27 -31 -26 -27 l -44,-18 -26,-17 -9,-31 v -27 -26 l 9,-27 -27,-8 -26,-18 h -27 l -44,-9 h -26 -27 l -26,-26 -27,-9 -26,-35 v -27 z"
   id="path71"
   inkscape:connector-curvature="0"
   style="fill:#000000;stroke:none" />
        <path
   d="m 10791,14660 44,13 18,27 9,26 v 27 l 18,26 26,18 26,9 36,9 26,9 h 36 l 26,17 27,9 17,26 9,27 v 26 l -26,27 -27,18 h -26 -27 l -26,-27 v -26 l -18,-27 -27,-9 h -26 -26 l -27,-9 -26,-8 -27,-9 -26,-18 -9,-26 -9,-27 -27,-9 -17,-26 -27,-18 27,-17 17,-27 27,-9 z"
   id="path73"
   inkscape:connector-curvature="0"
   style="fill:#000000;stroke:none" />
        <path
   d="m 12720,14718 326,176 -17,35 -44,53 -362,71 -27,-53 318,-97 -274,-132 18,-36 z"
   id="path75"
   inkscape:connector-curvature="0"
   style="fill:#000000;stroke:none" />
        <path
   d="m 12720,14740 -194,39 -89,27 18,44 150,185 80,-26 -124,-177 221,-44 z"
   id="path77"
   inkscape:connector-curvature="0"
   style="fill:#000000;stroke:none" />
        <path
   d="m 10849,13654 h 22 17 l 5,18 9,17 -5,18 18,13 13,5 18,4 h 17 18 13 l 18,4 18,9 8,22 v 18 l -22,9 v 18 l -4,17 18,9 h 22 13 18 17 22 22 14 l 17,9 18,17 4,18 -9,18 -8,17 v 18 l 22,5 17,13 h 27 22 22 18 13 22 l 18,4 17,5 9,17 v 18 l -13,18 4,17 h 22 22 22 l 27,5 22,13 13,9 13,17 5,18 v 18 l -18,13 -17,9 h -18 l -18,-9 v -18 -17 l -17,-14 h -14 l -17,-4 h -18 -13 -18 -17 -18 l -13,-13 -18,-5 v -22 l 4,-17 18,-14 -22,-9 h -18 -13 -18 -17 -22 -22 l -14,-13 -17,-4 -13,-18 -5,-17 v -18 -18 -17 l 5,-18 -23,-9 -13,-9 -17,9 h -18 -22 -13 -18 l -27,-13 -17,-9 -5,-26 v -18 -13 l 5,-18 -18,-9 -13,-9 h -18 l -26,-9 h -18 -18 l -13,-13 -17,-9 -18,-22 v -17 z"
   id="path79"
   inkscape:connector-curvature="0"
   style="fill:#000000;stroke:none" />
        <path
   d="m 10699,13725 26,13 13,18 9,22 v 17 l 9,22 18,14 22,4 22,9 17,4 h 27 l 18,13 17,9 13,18 5,22 v 18 l -18,22 -17,13 h -18 -18 l -22,-22 v -18 l -9,-22 -17,-4 h -22 -18 l -18,-9 -17,-4 -18,-9 -18,-14 -8,-17 -5,-22 -18,-5 -13,-22 -17,-13 17,-13 13,-18 18,-9 z"
   id="path81"
   inkscape:connector-curvature="0"
   style="fill:#000000;stroke:none" />
        <path
   d="m 10050,13610 48,-124 22,-145 v -128 l -44,-133 -44,-75 -79,-57 -115,-22 -146,13 -101,62 -62,110 -40,128 -22,150 9,159 31,97 62,97 70,62 89,27 101,-9 71,-18 53,-57 22,-18 84,75 79,62 57,-18 31,-66 -8,-53 -106,-57 z"
   id="path83"
   inkscape:connector-curvature="0"
   style="fill:#000000;stroke:none" />
        <path
   d="m 9613,13875 -194,-40 -128,53 -133,79 -110,137 -79,163 -93,230 -40,243 v 216 l 62,185 97,150 97,40 137,4 124,-22 97,-39 66,-80 40,-110 -5,-106 -22,-97 -40,-141 v -106 l 27,-97 62,-62 101,-119 93,-75 17,-111 9,-88 -61,-88 -62,-84 z"
   id="path85"
   inkscape:connector-curvature="0"
   style="fill:#000000;stroke:none" />
        <path
   d="m 9247,15388 -44,-216 -84,-154 -128,-27 -75,80 22,136 75,181 79,164 62,212 22,110 v 97 l -57,137 -62,106 -57,123 -45,172 18,150 18,67 61,13 84,-36 84,-79 97,-79 106,-22 -13,-71 -124,-40 -83,13 -67,67 -79,39 57,-119 71,-137 97,-150 57,-136 9,-137 -22,-124 -26,-159 z"
   id="path87"
   inkscape:connector-curvature="0"
   style="fill:#000000;stroke:none" />
        <path
   d="m 9534,15340 -27,-212 -62,-132 -115,-22 -83,114 13,133 84,176 62,269 22,186 8,167 -53,159 -53,212 -26,203 v 106 l 49,40 61,9 97,-67 128,-88 177,-66 22,-40 -106,-62 -176,-8 -120,136 v -105 l 71,-208 84,-256 18,-181 -18,-247 z"
   id="path89"
   inkscape:connector-curvature="0"
   style="fill:#000000;stroke:none" />
        <path
   d="m 10319,14162 -424,-296 -388,-265 -296,-234 -401,-370 -336,-292 -260,-207 13,256 -75,88 -141,115 216,154 190,115 234,256 287,234 322,238 251,186 265,163 375,238 106,44 v -172 h 217 z"
   id="path91"
   inkscape:connector-curvature="0"
   style="fill:#fef22c;stroke:none" />
        <path
   d="m 10663,14682 -344,-485 -13,132 -84,62 -9,185 393,137 z"
   id="path93"
   inkscape:connector-curvature="0"
   style="fill:#fde3ba;stroke:none" />
        <path
   d="m 8046,12952 172,-97 53,-106 5,-216 -322,-234 -181,-39 -142,83 -110,168 v 137 l 27,106 220,92 z"
   id="path95"
   inkscape:connector-curvature="0"
   style="fill:#fda4b5;stroke:none" />
        <path
   d="m 10328,14135 -13,49 -309,-195 -490,-326 -508,-441 -335,-323 -344,-286 -274,-208 -53,-40 v 195 l -93,150 -136,39 -164,5 v -58 l 221,-22 79,-114 31,-172 -31,-142 93,14 296,242 207,172 234,195 247,229 221,216 282,230 261,176 309,221 z"
   id="path97"
   inkscape:connector-curvature="0"
   style="fill:#000000;stroke:none" />
        <path
   d="m 10204,14519 -520,-313 -614,-437 -371,-305 -238,-234 -318,-247 -353,-176 -172,-75 -48,-62 -14,-71 36,-154 66,-49 57,-70 150,-18 80,35 35,-75 -137,-57 -119,40 -106,57 -62,75 -57,119 v 128 l 40,115 79,40 225,114 216,102 142,119 247,177 225,225 243,207 225,177 260,172 322,234 269,141 217,168 556,154 -13,-66 -195,-230 -229,-339 -80,-14 150,221 181,234 -61,75 -230,-97 v -115 l 97,-13 -22,-44 -154,-36 z"
   id="path99"
   inkscape:connector-curvature="0"
   style="fill:#000000;stroke:none" />
        <path
   d="m 8258,12630 -53,164 -150,119 -119,31 93,57 158,-79 115,-137 z"
   id="path101"
   inkscape:connector-curvature="0"
   style="fill:#000000;stroke:none" />
        <path
   d="m 9759,14197 -27,-133 -97,-61 -212,-22 h -176 l 326,375 75,256 111,229 114,177 93,66 97,22 106,-66 75,-141 79,-111 75,-62 124,-26 53,-49 v -119 l -79,-101 -84,57 -53,115 -124,-49 -31,97 53,75 -110,155 -115,44 -66,-22 -57,-141 -62,-181 -49,-203 z"
   id="path103"
   inkscape:connector-curvature="0"
   style="fill:#000000;stroke:none" />
       </g>
      </g>
     </g>
    </g>
   </g>
  </g>
 </g>
</svg>