<?xml version="1.0" encoding="UTF-8" standalone="no"?>
<svg
   xmlns:ooo="http://xml.openoffice.org/svg/export"
   xmlns:dc="http://purl.org/dc/elements/1.1/"
   xmlns:cc="http://creativecommons.org/ns#"
   xmlns:rdf="http://www.w3.org/1999/02/22-rdf-syntax-ns#"
   xmlns:svg="http://www.w3.org/2000/svg"
   xmlns="http://www.w3.org/2000/svg"
   xmlns:sodipodi="http://sodipodi.sourceforge.net/DTD/sodipodi-0.dtd"
   xmlns:inkscape="http://www.inkscape.org/namespaces/inkscape"
   version="1.2"
   width="61.43mm"
   height="73.07mm"
   viewBox="0 0 6143 7307"
   preserveAspectRatio="xMidYMid"
   xml:space="preserve"
   id="svg125"
   sodipodi:docname="newplan.svg"
   style="fill-rule:evenodd;stroke-width:28.22200012;stroke-linejoin:round"
   inkscape:version="0.92.5 (2060ec1f9f, 2020-04-08)"><metadata
   id="metadata129"><rdf:RDF><cc:Work
       rdf:about=""><dc:format>image/svg+xml</dc:format><dc:type
         rdf:resource="http://purl.org/dc/dcmitype/StillImage" /></cc:Work></rdf:RDF></metadata><sodipodi:namedview
   pagecolor="#ffffff"
   bordercolor="#666666"
   borderopacity="1"
   objecttolerance="10"
   gridtolerance="10"
   guidetolerance="10"
   inkscape:pageopacity="0"
   inkscape:pageshadow="2"
   inkscape:window-width="664"
   inkscape:window-height="487"
   id="namedview127"
   showgrid="false"
   inkscape:zoom="0.2102413"
   inkscape:cx="116.10709"
   inkscape:cy="138.06614"
   inkscape:window-x="0"
   inkscape:window-y="0"
   inkscape:window-maximized="0"
   inkscape:current-layer="svg125" />
 <defs
   class="ClipPathGroup"
   id="defs8">
  <clipPath
   id="presentation_clip_path"
   clipPathUnits="userSpaceOnUse">
   <rect
   x="0"
   y="0"
   width="21000"
   height="29700"
   id="rect2" />
  </clipPath>
  <clipPath
   id="presentation_clip_path_shrink"
   clipPathUnits="userSpaceOnUse">
   <rect
   x="21"
   y="29"
   width="20958"
   height="29641"
   id="rect5" />
  </clipPath>
 </defs>
 <defs
   class="TextShapeIndex"
   id="defs12">
  <g
   ooo:slide="id1"
   ooo:id-list="id3"
   id="g10" />
 </defs>
 <defs
   class="EmbeddedBulletChars"
   id="defs44">
  <g
   id="bullet-char-template-57356"
   transform="matrix(4.8828125e-4,0,0,-4.8828125e-4,0,0)">
   <path
   d="M 580,1141 1163,571 580,0 -4,571 Z"
   id="path14"
   inkscape:connector-curvature="0" />
  </g>
  <g
   id="bullet-char-template-57354"
   transform="matrix(4.8828125e-4,0,0,-4.8828125e-4,0,0)">
   <path
   d="M 8,1128 H 1137 V 0 H 8 Z"
   id="path17"
   inkscape:connector-curvature="0" />
  </g>
  <g
   id="bullet-char-template-10146"
   transform="matrix(4.8828125e-4,0,0,-4.8828125e-4,0,0)">
   <path
   d="M 174,0 602,739 174,1481 1456,739 Z M 1358,739 309,1346 659,739 Z"
   id="path20"
   inkscape:connector-curvature="0" />
  </g>
  <g
   id="bullet-char-template-10132"
   transform="matrix(4.8828125e-4,0,0,-4.8828125e-4,0,0)">
   <path
   d="M 2015,739 1276,0 H 717 l 543,543 H 174 v 393 h 1086 l -543,545 h 557 z"
   id="path23"
   inkscape:connector-curvature="0" />
  </g>
  <g
   id="bullet-char-template-10007"
   transform="matrix(4.8828125e-4,0,0,-4.8828125e-4,0,0)">
   <path
   d="m 0,-2 c -7,16 -16,29 -25,39 l 381,530 c -94,256 -141,385 -141,387 0,25 13,38 40,38 9,0 21,-2 34,-5 21,4 42,12 65,25 l 27,-13 111,-251 280,301 64,-25 24,25 c 21,-10 41,-24 62,-43 C 886,937 835,863 770,784 769,783 710,716 594,584 L 774,223 c 0,-27 -21,-55 -63,-84 l 16,-20 C 717,90 699,76 672,76 641,76 570,178 457,381 L 164,-76 c -22,-34 -53,-51 -92,-51 -42,0 -63,17 -64,51 -7,9 -10,24 -10,44 0,9 1,19 2,30 z"
   id="path26"
   inkscape:connector-curvature="0" />
  </g>
  <g
   id="bullet-char-template-10004"
   transform="matrix(4.8828125e-4,0,0,-4.8828125e-4,0,0)">
   <path
   d="M 285,-33 C 182,-33 111,30 74,156 52,228 41,333 41,471 c 0,78 14,145 41,201 34,71 87,106 158,106 53,0 88,-31 106,-94 l 23,-176 c 8,-64 28,-97 59,-98 l 735,706 c 11,11 33,17 66,17 42,0 63,-15 63,-46 V 965 c 0,-36 -10,-64 -30,-84 L 442,47 C 390,-6 338,-33 285,-33 Z"
   id="path29"
   inkscape:connector-curvature="0" />
  </g>
  <g
   id="bullet-char-template-9679"
   transform="matrix(4.8828125e-4,0,0,-4.8828125e-4,0,0)">
   <path
   d="M 813,0 C 632,0 489,54 383,161 276,268 223,411 223,592 c 0,181 53,324 160,431 106,107 249,161 430,161 179,0 323,-54 432,-161 108,-107 162,-251 162,-431 0,-180 -54,-324 -162,-431 C 1136,54 992,0 813,0 Z"
   id="path32"
   inkscape:connector-curvature="0" />
  </g>
  <g
   id="bullet-char-template-8226"
   transform="matrix(4.8828125e-4,0,0,-4.8828125e-4,0,0)">
   <path
   d="m 346,457 c -73,0 -137,26 -191,78 -54,51 -81,114 -81,188 0,73 27,136 81,188 54,52 118,78 191,78 73,0 134,-26 185,-79 51,-51 77,-114 77,-187 0,-75 -25,-137 -76,-188 -50,-52 -112,-78 -186,-78 z"
   id="path35"
   inkscape:connector-curvature="0" />
  </g>
  <g
   id="bullet-char-template-8211"
   transform="matrix(4.8828125e-4,0,0,-4.8828125e-4,0,0)">
   <path
   d="M -4,459 H 1135 V 606 H -4 Z"
   id="path38"
   inkscape:connector-curvature="0" />
  </g>
  <g
   id="bullet-char-template-61548"
   transform="matrix(4.8828125e-4,0,0,-4.8828125e-4,0,0)">
   <path
   d="m 173,740 c 0,163 58,303 173,419 116,115 255,173 419,173 163,0 302,-58 418,-173 116,-116 174,-256 174,-419 0,-163 -58,-303 -174,-418 C 1067,206 928,148 765,148 601,148 462,206 346,322 231,437 173,577 173,740 Z"
   id="path41"
   inkscape:connector-curvature="0" />
  </g>
 </defs>
 <g
   id="g49"
   transform="translate(-7428,-11196)">
  <g
   id="id2"
   class="Master_Slide">
   <g
   id="bg-id2"
   class="Background" />
   <g
   id="bo-id2"
   class="BackgroundObjects" />
  </g>
 </g>
 <g
   class="SlideGroup"
   id="g123"
   transform="translate(-7428,-11196)">
  <g
   id="g121">
   <g
   id="container-id1">
    <g
   id="id1"
   class="Slide"
   clip-path="url(#presentation_clip_path)">
     <g
   class="Page"
   id="g117">
      <g
   class="Graphic"
   id="g115">
       <g
   id="id3">
        <rect
   class="BoundingBox"
   x="7428"
   y="11196"
   width="6143"
   height="7307"
   id="rect51"
   style="fill:none;stroke:none" />
        <defs
   id="defs56">
         <clipPath
   id="clip_path_1"
   clipPathUnits="userSpaceOnUse">
          <path
   d="m 7428,11196 h 6142 v 7306 H 7428 Z"
   id="path53"
   inkscape:connector-curvature="0" />
         </clipPath>
        </defs>
        <g
   clip-path="url(#clip_path_1)"
   id="g112">
         <path
   d="m 7556,11236 543,31 481,4 587,35 865,31 904,9 618,-9 640,-17 543,-14 331,-9 48,181 -92,556 -5,389 14,573 39,552 80,525 75,485 4,389 -22,101 -203,-71 -746,-8 -798,-22 -556,-18 h -830 l -909,-9 -839,-4 -723,13 -9,-627 -71,-737 -26,-767 -49,-618 9,-525 v -300 z"
   id="path58"
   inkscape:connector-curvature="0"
   style="fill:#ffffff;stroke:none" />
         <path
   d="m 12468,12749 415,896 h -989 l -62,-66 265,-367 z"
   id="path60"
   inkscape:connector-curvature="0"
   style="fill:#f1ebda;stroke:none" />
         <path
   d="m 9273,11598 -18,463 1518,26 1426,18 -23,-472 -944,-13 -1019,-18 z"
   id="path62"
   inkscape:connector-curvature="0"
   style="fill:#f1ebda;stroke:none" />
         <path
   d="m 7799,12705 -49,172 -17,283 17,163 1523,4 776,18 44,-455 v -181 l -1200,14 z"
   id="path64"
   inkscape:connector-curvature="0"
   style="fill:#f1ebda;stroke:none" />
         <path
   d="m 12944,17065 265,357 212,238 -31,66 -869,45 -252,-27 -26,-40 26,-83 530,-428 z"
   id="path66"
   inkscape:connector-curvature="0"
   style="fill:#f1ebda;stroke:none" />
         <path
   d="m 10597,17095 -574,-401 -591,-260 -411,-203 -309,-71 -128,31 -265,145 -119,18 -57,66 57,124 389,168 512,176 -433,88 -128,53 62,49 543,225 22,-5 110,-335 441,199 18,507 -349,13 -384,5 -61,31 -102,308 22,75 190,-13 512,-48 671,-36 569,-17 h 305 l 366,39 26,-114 287,176 247,203 314,194 260,-97 88,-97 -26,-92 -340,-203 -344,-243 -371,-238 -366,-146 114,-79 442,-120 388,-158 269,-62 305,-115 335,-110 234,-53 159,9 49,-71 -9,-115 -9,-39 -172,-120 -128,-8 -106,13 -137,79 -172,49 -291,106 -296,106 -304,110 -349,146 -216,30 -208,45 -295,48 z"
   id="path68"
   inkscape:connector-curvature="0"
   style="fill:#f1ebda;stroke:none" />
         <path
   d="m 12296,16614 379,-127 216,-53 208,-128 159,-31 123,61 18,36 -115,-18 -119,-4 -102,66 -189,71 -225,57 -305,119 -229,84 -353,141 -208,79 -300,49 -419,57 -203,40 -93,40 75,79 252,128 132,84 203,-84 168,-97 256,-79 287,-84 291,-128 251,-53 305,-106 190,-66 304,-84 194,-18 67,-44 v -35 l -18,-102 -13,-48 79,88 18,124 -84,70 -190,14 -278,79 -265,71 -176,61 -128,62 -243,49 -150,53 -190,75 -189,57 -195,62 -114,35 -142,97 -158,49 -102,48 -31,-4 -62,-62 -163,-101 -185,-80 -75,-101 44,-31 79,-49 217,-48 278,-31 238,-44 225,-49 229,-84 283,-101 z"
   id="path70"
   inkscape:connector-curvature="0"
   style="fill:#000000;stroke:none" />
         <path
   d="m 10654,17087 -309,-217 -309,-189 -379,-181 -327,-159 -291,-132 -247,-75 -195,26 -229,146 -177,30 -75,84 58,150 498,203 565,199 411,172 340,207 397,296 101,66 115,-31 282,-291 -66,-40 -234,265 -101,31 -216,-163 -305,-208 -260,-159 -190,-88 -309,-128 -366,-123 -305,-119 -220,-97 -97,-75 -31,-62 57,-49 128,-17 79,-36 208,-110 70,-22 106,22 195,44 308,150 380,177 353,163 278,194 256,185 z"
   id="path72"
   inkscape:connector-curvature="0"
   style="fill:#000000;stroke:none" />
         <path
   d="m 9101,16875 -539,84 -84,70 93,62 583,247 66,-22 114,-340 -61,-31 -115,353 -552,-256 49,-17 499,-97 z"
   id="path74"
   inkscape:connector-curvature="0"
   style="fill:#000000;stroke:none" />
         <path
   d="m 9679,17135 22,530 h 92 l -39,-495 z"
   id="path76"
   inkscape:connector-curvature="0"
   style="fill:#000000;stroke:none" />
         <path
   d="m 10363,17572 -495,44 -348,18 -517,4 -83,44 -124,353 18,71 92,13 759,-66 715,-44 477,-18 441,31 217,31 17,-110 h -75 l -4,57 -450,-44 h -442 l -388,13 -415,31 -454,35 -305,18 -110,22 -36,-57 49,-177 71,-137 75,-31 344,9 h 393 l 357,-31 269,-13 z"
   id="path78"
   inkscape:connector-curvature="0"
   style="fill:#000000;stroke:none" />
         <path
   d="m 10707,17532 499,212 309,146 260,154 300,230 238,154 89,18 238,-146 v -93 l -163,-106 -402,-255 -349,-234 -322,-177 -194,-35 75,-75 177,75 216,119 300,194 247,177 282,185 195,110 31,97 -67,89 -300,145 -66,-17 -163,-115 -287,-225 -212,-137 -185,-93 -256,-119 -234,-114 -331,-128 z"
   id="path80"
   inkscape:connector-curvature="0"
   style="fill:#000000;stroke:none" />
         <path
   d="m 12278,17788 -66,-62 26,-105 261,-230 375,-344 75,-5 9,58 -146,123 -353,265 -155,141 -8,75 79,36 962,-53 13,-49 -198,-243 -155,-220 v -31 l 62,53 388,441 -8,115 -137,18 -834,17 z"
   id="path82"
   inkscape:connector-curvature="0"
   style="fill:#000000;stroke:none" />
         <path
   d="m 12388,12736 437,891 97,18 -468,-936 z"
   id="path84"
   inkscape:connector-curvature="0"
   style="fill:#000000;stroke:none" />
         <path
   d="m 12450,12692 -640,847 5,84 79,40 1028,8 -17,-61 -993,-5 -31,-44 225,-326 357,-428 z"
   id="path86"
   inkscape:connector-curvature="0"
   style="fill:#000000;stroke:none" />
         <path
   d="m 10014,13160 31,-221 13,-234 80,-13 -58,613 -114,58 -2247,-18 9,-84 2202,44 97,-75 z"
   id="path88"
   inkscape:connector-curvature="0"
   style="fill:#000000;stroke:none" />
         <path
   d="m 7785,13292 -17,-305 48,-260 2273,35 49,-66 -530,-9 h -865 l -975,-26 -49,168 v 247 278 z"
   id="path90"
   inkscape:connector-curvature="0"
   style="fill:#000000;stroke:none" />
         <path
   d="m 9224,12083 27,-525 2965,53 -31,66 -2868,-40 -36,441 z"
   id="path92"
   inkscape:connector-curvature="0"
   style="fill:#000000;stroke:none" />
         <path
   d="m 9233,12092 2996,35 -17,-507 -75,44 35,406 -2935,-44 z"
   id="path94"
   inkscape:connector-curvature="0"
   style="fill:#000000;stroke:none" />
         <path
   d="m 13063,11324 -820,35 -1033,18 -1134,-9 -1161,-44 -732,-40 -596,9 -84,66 -13,199 v 662 l 66,719 9,618 66,595 31,596 31,137 13,75 -163,-9 13,-141 9,-349 -40,-565 -44,-635 -31,-543 -13,-587 -9,-582 22,-256 31,-97 128,-9 362,53 490,-9 701,40 817,31 1125,22 755,-22 821,-18 445,-35 z"
   id="path96"
   inkscape:connector-curvature="0"
   style="fill:#919191;stroke:none" />
         <path
   d="m 7649,14863 1297,22 1342,9 h 829 l 795,13 1116,31 172,31 -13,-508 -106,-648 -84,-578 -22,-861 22,-454 75,-468 -35,-150 44,-22 53,190 -31,278 -66,370 -9,406 44,640 40,424 53,361 53,406 35,287 9,393 -53,31 -181,-53 -529,-22 -861,-22 -609,-22 h -529 l -733,-18 h -733 -812 l -635,18 z"
   id="path98"
   inkscape:connector-curvature="0"
   style="fill:#919191;stroke:none" />
         <path
   d="m 11033,13751 -88,-93 -119,-53 -66,-13 -93,35 -53,58 -31,101 -26,106 18,176 39,102 49,71 88,44 75,22 88,-5 62,-35 53,-62 22,-88 27,-97 17,-119 -13,-66 79,-67 102,-48 35,-49 -4,-31 -62,-22 -57,22 -49,84 z"
   id="path100"
   inkscape:connector-curvature="0"
   style="fill:#000000;stroke:none" />
         <path
   d="m 10888,14382 132,-22 119,22 102,48 75,75 53,89 35,110 31,110 4,128 -22,146 -35,114 -44,102 -49,79 -75,49 -97,18 -84,-9 -66,-40 -35,-48 -26,-93 8,-115 36,-70 31,-93 v -66 l -27,-53 -40,-84 -61,-80 -49,-92 v -84 l 18,-66 z"
   id="path102"
   inkscape:connector-curvature="0"
   style="fill:#000000;stroke:none" />
         <path
   d="m 10716,14466 123,-9 93,9 31,61 -27,62 -66,31 -185,-26 -238,-67 -199,-158 -115,-252 -110,-371 -49,-256 -13,-83 -88,-49 -66,-97 17,-75 h 71 l 57,97 40,-9 -49,-128 49,-48 75,101 -13,97 70,-167 58,17 17,71 -61,75 -62,88 -18,75 27,159 53,212 83,212 111,194 70,114 93,71 115,27 z"
   id="path104"
   inkscape:connector-curvature="0"
   style="fill:#000000;stroke:none" />
         <path
   d="m 11131,14461 150,-13 194,-31 260,-84 159,-97 71,-101 75,-181 48,-181 5,-97 -14,-49 -119,-17 -44,-49 27,-44 h 53 l 75,35 39,13 49,-22 57,-48 40,-75 44,-22 49,4 -14,66 -70,75 -49,36 9,13 h 57 l 71,-9 62,-22 22,-48 48,17 9,62 -66,53 -97,13 -106,-9 -40,27 -26,101 -18,115 -31,141 -31,102 -39,84 -62,83 -53,31 -97,62 -128,66 -181,49 -146,35 -163,62 -79,-18 -45,-79 z"
   id="path106"
   inkscape:connector-curvature="0"
   style="fill:#000000;stroke:none" />
         <path
   d="m 10945,15255 88,-17 45,44 13,88 9,163 -18,265 -31,256 -44,265 -35,225 -5,48 22,22 75,-30 53,-89 40,-35 79,-26 31,17 14,80 -97,44 -106,92 -93,93 -62,27 -48,-18 -45,-35 v -31 l 40,-93 40,-62 18,-150 v -194 l -5,-273 31,-203 -22,-217 v -167 z"
   id="path108"
   inkscape:connector-curvature="0"
   style="fill:#000000;stroke:none" />
         <path
   d="m 11122,15282 79,-27 53,31 27,93 17,163 18,265 -4,256 -14,278 -13,225 9,48 22,23 62,-45 53,-97 26,-35 80,-40 35,22 22,75 -97,58 -97,106 -80,101 -48,27 -58,-5 -48,-40 v -30 l 31,-93 26,-71 5,-150 -22,-194 -40,-265 13,-216 -44,-203 -13,-167 z"
   id="path110"
   inkscape:connector-curvature="0"
   style="fill:#000000;stroke:none" />
        </g>
       </g>
      </g>
     </g>
    </g>
   </g>
  </g>
 </g>
</svg>