<?xml version="1.0" encoding="UTF-8" standalone="no"?>
<svg
   xmlns:ooo="http://xml.openoffice.org/svg/export"
   xmlns:dc="http://purl.org/dc/elements/1.1/"
   xmlns:cc="http://creativecommons.org/ns#"
   xmlns:rdf="http://www.w3.org/1999/02/22-rdf-syntax-ns#"
   xmlns:svg="http://www.w3.org/2000/svg"
   xmlns="http://www.w3.org/2000/svg"
   xmlns:sodipodi="http://sodipodi.sourceforge.net/DTD/sodipodi-0.dtd"
   xmlns:inkscape="http://www.inkscape.org/namespaces/inkscape"
   version="1.2"
   width="41.279999mm"
   height="36.98mm"
   viewBox="0 0 4127.9999 3698"
   preserveAspectRatio="xMidYMid"
   xml:space="preserve"
   id="svg137"
   sodipodi:docname="a.svg"
   style="fill-rule:evenodd;stroke-width:28.22200012;stroke-linejoin:round"
   inkscape:version="0.92.5 (2060ec1f9f, 2020-04-08)"><metadata
   id="metadata141"><rdf:RDF><cc:Work
       rdf:about=""><dc:format>image/svg+xml</dc:format><dc:type
         rdf:resource="http://purl.org/dc/dcmitype/StillImage" /></cc:Work></rdf:RDF></metadata><sodipodi:namedview
   pagecolor="#ffffff"
   bordercolor="#666666"
   borderopacity="1"
   objecttolerance="10"
   gridtolerance="10"
   guidetolerance="10"
   inkscape:pageopacity="0"
   inkscape:pageshadow="2"
   inkscape:window-width="664"
   inkscape:window-height="487"
   id="namedview139"
   showgrid="false"
   inkscape:zoom="0.2102413"
   inkscape:cx="78.00945"
   inkscape:cy="69.883463"
   inkscape:window-x="0"
   inkscape:window-y="0"
   inkscape:window-maximized="0"
   inkscape:current-layer="svg137" />
 <defs
   class="ClipPathGroup"
   id="defs8">
  <clipPath
   id="presentation_clip_path"
   clipPathUnits="userSpaceOnUse">
   <rect
   x="0"
   y="0"
   width="21000"
   height="29700"
   id="rect2" />
  </clipPath>
  <clipPath
   id="presentation_clip_path_shrink"
   clipPathUnits="userSpaceOnUse">
   <rect
   x="21"
   y="29"
   width="20958"
   height="29641"
   id="rect5" />
  </clipPath>
 </defs>
 <defs
   class="TextShapeIndex"
   id="defs12">
  <g
   ooo:slide="id1"
   ooo:id-list="id3"
   id="g10" />
 </defs>
 <defs
   class="EmbeddedBulletChars"
   id="defs44">
  <g
   id="bullet-char-template-57356"
   transform="matrix(4.8828125e-4,0,0,-4.8828125e-4,0,0)">
   <path
   d="M 580,1141 1163,571 580,0 -4,571 Z"
   id="path14"
   inkscape:connector-curvature="0" />
  </g>
  <g
   id="bullet-char-template-57354"
   transform="matrix(4.8828125e-4,0,0,-4.8828125e-4,0,0)">
   <path
   d="M 8,1128 H 1137 V 0 H 8 Z"
   id="path17"
   inkscape:connector-curvature="0" />
  </g>
  <g
   id="bullet-char-template-10146"
   transform="matrix(4.8828125e-4,0,0,-4.8828125e-4,0,0)">
   <path
   d="M 174,0 602,739 174,1481 1456,739 Z M 1358,739 309,1346 659,739 Z"
   id="path20"
   inkscape:connector-curvature="0" />
  </g>
  <g
   id="bullet-char-template-10132"
   transform="matrix(4.8828125e-4,0,0,-4.8828125e-4,0,0)">
   <path
   d="M 2015,739 1276,0 H 717 l 543,543 H 174 v 393 h 1086 l -543,545 h 557 z"
   id="path23"
   inkscape:connector-curvature="0" />
  </g>
  <g
   id="bullet-char-template-10007"
   transform="matrix(4.8828125e-4,0,0,-4.8828125e-4,0,0)">
   <path
   d="m 0,-2 c -7,16 -16,29 -25,39 l 381,530 c -94,256 -141,385 -141,387 0,25 13,38 40,38 9,0 21,-2 34,-5 21,4 42,12 65,25 l 27,-13 111,-251 280,301 64,-25 24,25 c 21,-10 41,-24 62,-43 C 886,937 835,863 770,784 769,783 710,716 594,584 L 774,223 c 0,-27 -21,-55 -63,-84 l 16,-20 C 717,90 699,76 672,76 641,76 570,178 457,381 L 164,-76 c -22,-34 -53,-51 -92,-51 -42,0 -63,17 -64,51 -7,9 -10,24 -10,44 0,9 1,19 2,30 z"
   id="path26"
   inkscape:connector-curvature="0" />
  </g>
  <g
   id="bullet-char-template-10004"
   transform="matrix(4.8828125e-4,0,0,-4.8828125e-4,0,0)">
   <path
   d="M 285,-33 C 182,-33 111,30 74,156 52,228 41,333 41,471 c 0,78 14,145 41,201 34,71 87,106 158,106 53,0 88,-31 106,-94 l 23,-176 c 8,-64 28,-97 59,-98 l 735,706 c 11,11 33,17 66,17 42,0 63,-15 63,-46 V 965 c 0,-36 -10,-64 -30,-84 L 442,47 C 390,-6 338,-33 285,-33 Z"
   id="path29"
   inkscape:connector-curvature="0" />
  </g>
  <g
   id="bullet-char-template-9679"
   transform="matrix(4.8828125e-4,0,0,-4.8828125e-4,0,0)">
   <path
   d="M 813,0 C 632,0 489,54 383,161 276,268 223,411 223,592 c 0,181 53,324 160,431 106,107 249,161 430,161 179,0 323,-54 432,-161 108,-107 162,-251 162,-431 0,-180 -54,-324 -162,-431 C 1136,54 992,0 813,0 Z"
   id="path32"
   inkscape:connector-curvature="0" />
  </g>
  <g
   id="bullet-char-template-8226"
   transform="matrix(4.8828125e-4,0,0,-4.8828125e-4,0,0)">
   <path
   d="m 346,457 c -73,0 -137,26 -191,78 -54,51 -81,114 -81,188 0,73 27,136 81,188 54,52 118,78 191,78 73,0 134,-26 185,-79 51,-51 77,-114 77,-187 0,-75 -25,-137 -76,-188 -50,-52 -112,-78 -186,-78 z"
   id="path35"
   inkscape:connector-curvature="0" />
  </g>
  <g
   id="bullet-char-template-8211"
   transform="matrix(4.8828125e-4,0,0,-4.8828125e-4,0,0)">
   <path
   d="M -4,459 H 1135 V 606 H -4 Z"
   id="path38"
   inkscape:connector-curvature="0" />
  </g>
  <g
   id="bullet-char-template-61548"
   transform="matrix(4.8828125e-4,0,0,-4.8828125e-4,0,0)">
   <path
   d="m 173,740 c 0,163 58,303 173,419 116,115 255,173 419,173 163,0 302,-58 418,-173 116,-116 174,-256 174,-419 0,-163 -58,-303 -174,-418 C 1067,206 928,148 765,148 601,148 462,206 346,322 231,437 173,577 173,740 Z"
   id="path41"
   inkscape:connector-curvature="0" />
  </g>
 </defs>
 <g
   id="g49"
   transform="translate(-8436,-13001)">
  <g
   id="id2"
   class="Master_Slide">
   <g
   id="bg-id2"
   class="Background" />
   <g
   id="bo-id2"
   class="BackgroundObjects" />
  </g>
 </g>
 <g
   class="SlideGroup"
   id="g135"
   transform="translate(-8436,-13001)">
  <g
   id="g133">
   <g
   id="container-id1">
    <g
   id="id1"
   class="Slide"
   clip-path="url(#presentation_clip_path)">
     <g
   class="Page"
   id="g129">
      <g
   class="Graphic"
   id="g127">
       <g
   id="id3">
        <rect
   class="BoundingBox"
   x="8436"
   y="13001"
   width="4128"
   height="3698"
   id="rect51"
   style="fill:none;stroke:none" />
        <defs
   id="defs56">
         <clipPath
   id="clip_path_1"
   clipPathUnits="userSpaceOnUse">
          <path
   d="m 8436,13001 h 4127 v 3697 H 8436 Z"
   id="path53"
   inkscape:connector-curvature="0" />
         </clipPath>
        </defs>
        <g
   clip-path="url(#clip_path_1)"
   id="g124">
         <path
   d="m 11692,14523 v -5 l -2,-12 5,-18 10,-26 18,-25 33,-28 51,-25 68,-23 41,-13 38,-15 41,-21 38,-22 35,-26 36,-28 33,-28 30,-28 28,-30 26,-31 20,-30 15,-28 13,-28 8,-26 2,-25 -2,-20 -8,-21 -10,-25 -13,-25 -15,-28 -18,-31 -20,-30 -26,-33 -27,-36 -31,-33 -36,-36 -40,-35 -43,-36 -46,-33 -51,-33 -56,-33 -61,-33 -64,-28 -71,-28 -73,-28 -79,-23 -87,-20 -89,-18 -96,-15 -102,-10 -107,-8 -111,-2 -120,2 -124,5 -133,10 -137,18 -145,20 -150,28 -124,36 -120,41 -112,43 -106,48 -102,51 -94,56 -92,58 -84,61 -78,64 -74,66 -71,66 -64,71 -61,71 -56,72 -51,71 -45,73 -43,74 -41,74 -36,74 -30,71 -28,71 -26,71 -20,69 -20,68 -16,64 -12,63 -10,61 -8,56 -5,56 -3,51 v 46 43 l 41,140 46,122 48,112 53,96 59,84 61,74 66,66 71,58 74,51 81,43 87,44 91,35 97,38 101,36 110,35 114,39 66,17 71,16 72,10 73,10 77,5 76,5 h 79 l 78,-2 82,-6 81,-7 84,-10 81,-13 84,-15 84,-21 81,-20 84,-23 31,-10 48,-18 59,-20 63,-23 64,-23 56,-20 48,-18 30,-10 -2,-84 -5,-188 -8,-196 -10,-107 -99,-10 -82,-28 -68,-40 -54,-46 -40,-48 -23,-41 -10,-31 5,-15 5,-48 7,-43 8,-41 15,-36 21,-33 28,-33 40,-35 54,-36 18,-10 25,-10 33,-15 36,-16 35,-15 38,-13 31,-7 25,-3 8,-2 13,-3 17,-2 h 21 28 l 28,2 30,5 36,8 33,10 35,13 36,18 33,20 33,25 30,31 28,38 26,41 7,22 -2,39 -10,45 -15,51 -28,56 -36,51 -43,46 -54,38 -28,15 -33,18 -38,15 -43,15 -43,13 -41,13 -41,7 -35,5 8,115 7,190 5,181 3,79 12,2 23,-5 33,-15 41,-20 48,-23 54,-31 56,-30 58,-36 56,-33 56,-33 53,-33 46,-28 38,-23 31,-20 20,-13 8,-5 12,-10 13,-10 13,-8 13,-10 12,-10 13,-10 10,-8 13,-10 63,-54 56,-53 54,-53 48,-54 41,-56 35,-53 31,-53 23,-51 17,-115 v -116 l -17,-117 -33,-112 -49,-97 -61,-81 -73,-54 -82,-25 -84,-10 -76,-13 -69,-18 -58,-17 -46,-16 -35,-15 -23,-10 z"
   id="path58"
   inkscape:connector-curvature="0"
   style="fill:#000000;stroke:none" />
         <path
   d="m 11232,15626 97,-7 35,554 -114,46 z"
   id="path60"
   inkscape:connector-curvature="0"
   style="fill:#000000;stroke:none" />
         <path
   d="m 8614,15375 -23,-153 -2,-155 17,-152 36,-153 51,-147 68,-145 84,-140 97,-134 107,-130 122,-120 129,-109 140,-101 147,-89 153,-79 160,-66 163,-51 79,-20 81,-21 81,-18 82,-17 83,-16 87,-15 84,-10 84,-8 84,-7 h 86 84 l 81,5 82,10 81,15 79,18 78,25 74,21 69,20 63,23 64,23 58,25 56,28 51,31 51,30 46,33 45,36 41,35 38,39 36,43 35,43 31,43 30,48 21,79 v 69 l -15,56 -33,48 -41,38 -54,33 -58,28 -61,26 -64,22 -61,23 -58,23 -51,23 -41,31 -30,33 -13,38 3,48 20,43 28,31 41,23 48,15 56,13 58,10 61,10 64,13 64,17 61,26 58,35 51,49 46,61 38,78 25,97 15,120 -17,53 -21,51 -28,51 -28,53 -33,48 -38,51 -40,48 -44,49 -45,45 -49,46 -51,46 -56,43 -55,43 -56,41 -61,41 -61,38 -16,10 -43,23 -58,33 -66,35 -69,36 -58,30 -44,21 -20,5 8,-79 17,-170 13,-170 3,-74 h 2 8 l 15,-3 20,-2 26,-5 28,-11 33,-10 33,-12 35,-16 36,-20 36,-20 35,-26 33,-30 28,-33 28,-38 21,-41 v -8 l 10,-30 12,-46 3,-56 -13,-61 -38,-63 -71,-59 -112,-48 h -5 -8 l -10,-3 -15,-2 -15,-5 -21,-3 -23,-2 -22,-3 h -28 -31 l -33,3 -33,7 -38,8 -38,15 -43,15 -44,23 -15,8 -28,18 -35,28 -41,38 -38,48 -33,61 -23,74 -5,86 30,51 33,41 33,33 28,23 26,17 18,13 10,8 v 5 l 5,2 20,5 33,5 38,8 38,5 33,5 21,5 5,5 -13,82 v 173 l -2,172 -13,82 -31,12 -30,16 -33,12 -31,13 -30,10 -31,13 -30,13 -31,10 -30,10 -31,10 -30,10 -31,11 -30,7 -28,10 -31,8 -28,8 -83,15 -84,15 -84,10 -84,8 -87,5 h -83 -87 l -84,-5 -86,-5 -84,-10 -81,-13 -84,-18 -82,-18 -78,-20 -79,-25 -74,-28 -76,-31 -71,-33 -71,-38 -67,-38 -66,-43 -61,-46 -58,-48 -56,-51 -51,-54 -48,-58 -46,-59 -41,-63 -35,-66 -33,-69 -28,-71 z"
   id="path62"
   inkscape:connector-curvature="0"
   style="fill:#7f7f7f;stroke:none" />
         <path
   d="m 8614,15375 v 0 l -23,-153 -2,-155 17,-152 36,-153 51,-147 68,-145 84,-140 97,-134 107,-130 122,-120 129,-109 140,-101 147,-89 153,-79 160,-66 163,-51 v 0 l 79,-20 81,-21 81,-18 82,-17 83,-16 87,-15 84,-10 84,-8 84,-7 h 86 84 l 81,5 82,10 81,15 79,18 78,25 v 0 l 74,21 69,20 63,23 64,23 58,25 56,28 51,31 51,30 46,33 45,36 41,35 38,39 36,43 35,43 31,43 30,48 v 0 l 21,79 v 69 l -15,56 -33,48 -41,38 -54,33 -58,28 -61,26 -64,22 -61,23 -58,23 -51,23 -41,31 -30,33 -13,38 3,48 v 0 l 20,43 28,31 41,23 48,15 56,13 58,10 61,10 64,13 64,17 61,26 58,35 51,49 46,61 38,78 25,97 15,120 v 0 l -17,53 -21,51 -28,51 -28,53 -33,48 -38,51 -40,48 -44,49 -45,45 -49,46 -51,46 -56,43 -55,43 -56,41 -61,41 -61,38 v 0 l -16,10 -43,23 -58,33 -66,35 -69,36 -58,30 -44,21 -20,5 v 0 l 8,-79 17,-170 13,-170 3,-74 v 0 h 2 8 l 15,-3 20,-2 26,-5 28,-11 33,-10 33,-12 35,-16 36,-20 36,-20 35,-26 33,-30 28,-33 28,-38 21,-41 v 0 -8 l 10,-30 12,-46 3,-56 -13,-61 -38,-63 -71,-59 -112,-48 v 0 h -5 -8 l -10,-3 -15,-2 -15,-5 -21,-3 -23,-2 -22,-3 h -28 -31 l -33,3 -33,7 -38,8 -38,15 -43,15 -44,23 v 0 l -15,8 -28,18 -35,28 -41,38 -38,48 -33,61 -23,74 -5,86 v 0 l 30,51 33,41 33,33 28,23 26,17 18,13 10,8 v 5 0 l 5,2 20,5 33,5 38,8 38,5 33,5 21,5 5,5 v 0 l -13,82 v 173 l -2,172 -13,82 v 0 l -31,12 -30,16 -33,12 -31,13 -30,10 -31,13 -30,13 -31,10 -30,10 -31,10 -30,10 -31,11 -30,7 -28,10 -31,8 -28,8 v 0 l -83,15 -84,15 -84,10 -84,8 -87,5 h -83 -87 l -84,-5 -86,-5 -84,-10 -81,-13 -84,-18 -82,-18 -78,-20 -79,-25 -74,-28 -76,-31 -71,-33 -71,-38 -67,-38 -66,-43 -61,-46 -58,-48 -56,-51 -51,-54 -48,-58 -46,-59 -41,-63 -35,-66 -33,-69 -28,-71 z"
   id="path64"
   inkscape:connector-curvature="0"
   style="fill:none;stroke:#000000" />
         <path
   d="m 11232,15644 125,-10 -36,458 -114,55 z"
   id="path66"
   inkscape:connector-curvature="0"
   style="fill:#7f7f7f;stroke:none" />
         <path
   d="m 8550,15390 -12,-152 5,-155 23,-153 38,-152 56,-148 66,-145 81,-140 97,-134 104,-127 117,-120 127,-112 135,-101 145,-89 150,-79 157,-66 163,-51 79,-20 78,-21 82,-17 84,-18 83,-15 84,-13 84,-13 84,-7 87,-6 83,-2 84,2 82,6 81,10 81,15 79,18 79,25 74,21 68,20 64,23 63,23 59,25 56,28 53,30 48,31 49,33 43,36 41,35 40,38 36,44 35,43 31,43 30,48 21,79 v 69 l -18,56 -30,45 -44,41 -51,33 -58,28 -64,25 -63,23 -61,21 -59,22 -50,26 -41,28 -28,33 -15,41 2,48 21,40 30,34 41,20 48,15 56,13 61,10 64,8 63,12 64,21 63,25 59,33 53,48 46,61 38,79 25,97 16,119 -13,41 -15,41 -21,43 -20,46 -25,43 -26,40 -28,41 -28,38 -15,18 -23,23 -25,25 -28,26 -31,25 -25,23 -21,18 -15,12 -7,6 -16,10 -25,17 -31,23 -38,26 -43,28 -46,30 -51,33 -50,33 -54,33 -53,33 -54,31 -48,30 -48,23 -43,23 -38,15 2,-17 10,-44 15,-66 13,-76 13,-81 10,-79 5,-66 -5,-46 28,-8 36,-7 40,-10 38,-13 36,-10 28,-13 20,-10 5,-10 87,-71 56,-72 30,-68 13,-64 -3,-56 -10,-40 -10,-28 -10,-5 -26,-28 -27,-26 -28,-23 -28,-20 -28,-18 -28,-15 -28,-13 -28,-10 h -18 -25 -28 l -33,3 -39,2 -40,8 -41,8 -43,12 -46,15 -46,21 -45,25 -44,31 -40,38 -41,43 -36,53 -33,59 -10,10 -5,18 -2,20 2,23 8,28 12,28 16,30 23,31 25,30 31,28 35,26 41,23 46,17 50,13 56,8 h 61 v 71 l -5,155 -15,163 -31,84 -17,7 -28,13 -31,15 -35,15 -36,18 -30,13 -28,13 -18,7 -21,8 -33,15 -43,20 -48,21 -51,20 -51,20 -43,18 -36,10 -83,16 -84,12 -84,8 -84,8 -87,2 -83,3 -87,-3 -84,-5 -86,-5 -84,-10 -81,-13 -84,-18 -82,-17 -78,-21 -79,-25 -76,-28 -74,-31 -71,-33 -71,-35 -67,-38 -66,-44 -61,-43 -58,-48 -56,-51 -53,-53 -49,-59 -45,-58 -41,-64 -36,-66 -33,-69 -28,-71 z"
   id="path68"
   inkscape:connector-curvature="0"
   style="fill:#b2b2b2;stroke:none" />
         <path
   d="m 11283,15642 94,-10 -43,432 -102,38 z"
   id="path70"
   inkscape:connector-curvature="0"
   style="fill:#b2b2b2;stroke:none" />
         <path
   d="m 10330,14071 -8,-28 5,-28 13,-28 7,-33 3,-66 -3,-58 3,-56 25,-56 18,-21 18,-17 20,-13 21,-13 20,-10 23,-8 23,-7 25,-10 23,-8 23,-5 20,-3 h 21 l 20,-2 h 20 l 21,-3 23,-5 38,-13 35,-17 33,-18 31,-20 30,-18 31,-15 35,-8 h 41 l 23,5 18,8 18,10 15,12 18,11 17,10 23,5 28,-3 84,-7 69,7 48,18 33,28 20,36 11,38 -3,43 -10,46 -18,43 -25,38 -26,36 -30,25 -31,18 -28,5 -25,-10 -23,-26 -15,-12 -18,7 -20,26 -23,35 -23,44 -28,45 -31,38 -33,31 -38,28 -33,25 -33,21 -30,17 -39,13 -43,5 -53,-2 -66,-13 -13,-10 -13,-15 -15,-21 -18,-18 -28,-12 -30,-3 -28,5 -31,8 -30,7 -28,6 -31,-6 -28,-12 -15,-10 -10,-11 -13,-10 z"
   id="path72"
   inkscape:connector-curvature="0"
   style="fill:#333333;stroke:none" />
         <path
   d="m 10414,13766 15,-20 15,-18 15,-18 16,-15 15,-15 18,-13 17,-13 23,-13 18,-7 15,-3 16,-2 h 15 l 15,-3 15,-2 16,-5 15,-11 20,-7 26,-5 28,-3 h 33 l 30,-5 28,-8 23,-15 15,-23 18,-23 28,-12 36,-8 40,3 38,10 33,20 21,26 7,35 v 38 l 8,8 13,-13 25,-20 33,-23 48,-8 59,13 76,46 33,63 10,97 -12,99 -28,71 -23,26 -28,28 -31,23 -28,15 -25,-5 -13,-23 -2,-54 18,-86 -3,-18 -18,-7 h -28 l -33,5 -35,12 -33,18 -26,23 -13,25 -28,67 -48,61 -61,48 -68,33 -67,15 -58,-5 -38,-30 -15,-59 -8,-35 -23,-13 -33,5 -38,10 -43,15 -46,13 h -41 l -33,-15 -18,-15 -15,-16 -15,-18 -10,-15 -10,-20 -5,-20 -6,-21 v -25 l 3,-23 8,-20 10,-18 12,-15 16,-16 15,-15 18,-15 z"
   id="path74"
   inkscape:connector-curvature="0"
   style="fill:#4c4c4c;stroke:none" />
         <path
   d="m 10487,13741 16,-16 17,-12 16,-11 17,-7 21,-5 18,-8 20,-7 23,-8 12,-5 13,-8 10,-7 10,-6 13,-5 13,-5 h 13 15 l 13,3 h 17 l 18,2 h 20 l 18,-5 18,-5 13,-12 10,-18 13,-18 23,-10 27,-5 28,2 31,8 23,15 18,20 5,26 v 28 l 5,2 10,-15 15,-20 26,-18 33,-5 43,18 53,48 16,28 v 30 l -11,33 -17,28 -21,23 -23,13 h -17 l -16,-15 -10,-10 -18,-3 -20,8 -23,12 -23,18 -20,18 -15,23 -8,20 -20,51 -38,43 -49,36 -51,25 -50,13 -44,-5 -30,-23 -10,-43 -5,-26 -18,-10 -23,3 -31,10 -33,10 -30,8 h -31 l -25,-10 -25,-23 -16,-26 -12,-28 -5,-33 v -38 l 7,-30 15,-31 z"
   id="path76"
   inkscape:connector-curvature="0"
   style="fill:#666666;stroke:none" />
         <path
   d="m 10553,13763 11,-10 10,-7 10,-8 8,-8 10,-5 10,-5 10,-5 13,-7 12,-8 13,-8 10,-5 13,-5 10,-5 13,-2 10,-3 h 13 l 18,-5 35,-13 48,-15 56,-15 59,-8 61,5 56,18 51,41 10,20 v 23 l -8,23 -13,23 -15,15 -15,10 h -15 l -10,-10 -8,-8 -15,-2 -16,5 -17,10 -16,13 -15,15 -13,15 -5,15 -18,38 -30,36 -41,31 -45,20 -44,13 h -38 l -28,-16 -10,-30 -5,-20 -13,-6 h -17 l -21,8 -25,8 -23,7 h -23 l -20,-7 -18,-18 -15,-20 -8,-21 -3,-25 8,-26 13,-20 18,-15 z"
   id="path78"
   inkscape:connector-curvature="0"
   style="fill:#7f7f7f;stroke:none" />
         <path
   d="m 10546,13756 5,-8 13,-23 22,-30 31,-36 8,-7 7,-8 8,-8 10,-5 48,-33 46,-23 43,-10 41,-5 41,5 38,10 40,13 41,18 28,15 13,18 2,18 -5,15 -13,18 -15,18 -15,15 -15,15 -71,79 -67,48 -58,23 -51,5 -43,-8 -38,-12 -28,-13 -20,-5 -26,-15 -13,-33 -7,-36 z"
   id="path80"
   inkscape:connector-curvature="0"
   style="fill:#999999;stroke:none" />
         <path
   d="m 10747,13766 61,-25 45,-28 28,-28 16,-28 7,-23 v -20 l -2,-13 v -5 l -5,-3 -13,-2 -23,-3 -28,-2 -33,5 -36,7 -38,16 -38,25 -33,33 -5,18 18,10 30,2 31,6 25,7 10,18 z"
   id="path82"
   inkscape:connector-curvature="0"
   style="fill:#b2b2b2;stroke:none" />
         <path
   d="m 11194,13669 2,-5 8,-7 13,-13 13,-13 17,-7 18,-3 18,8 18,20 28,59 15,58 8,53 -3,46 -8,18 -10,18 -15,18 -15,12 -18,13 -13,10 -10,5 -3,3 11,-13 17,-33 11,-36 -21,-28 -20,-10 -23,-7 -20,-8 -21,-5 -17,-5 -16,-5 -10,-3 h -2 z"
   id="path84"
   inkscape:connector-curvature="0"
   style="fill:#4c4c4c;stroke:none" />
         <path
   d="m 8929,15060 5,7 15,21 23,30 31,33 33,31 33,28 36,15 h 33 l 28,-10 20,-16 20,-17 15,-18 16,-20 15,-16 18,-15 23,-8 22,-5 18,-2 h 16 17 18 l 20,-3 28,-2 39,-8 40,-13 36,-25 35,-33 31,-36 23,-40 20,-41 13,-36 7,-33 11,-61 15,-58 15,-41 5,-18 -2,-2 -5,-10 -8,-13 -5,-15 -3,-18 3,-15 15,-13 23,-8 89,-22 63,-26 41,-25 20,-26 11,-23 v -17 l -3,-13 -2,-5 -407,-48 z"
   id="path86"
   inkscape:connector-curvature="0"
   style="fill:#000000;stroke:none" />
         <path
   d="m 8988,15172 -23,-23 -10,-31 -6,-33 -7,-35 -15,-34 -18,-30 -21,-25 -17,-28 -16,-26 -10,-30 -7,-31 v -35 l 5,-31 7,-25 10,-23 13,-23 15,-20 16,-21 17,-20 21,-23 18,-20 17,-16 18,-15 21,-12 17,-13 21,-13 17,-15 21,-18 30,-33 23,-36 21,-35 20,-36 18,-33 25,-30 28,-28 38,-23 23,-8 23,-2 h 23 l 23,2 20,3 23,-3 23,-10 25,-15 76,-53 69,-31 56,-8 48,8 38,20 31,36 23,41 15,48 5,51 v 51 l -8,48 -12,40 -21,34 -25,20 -30,5 -36,-13 -23,-5 -10,18 -5,36 v 48 53 l -3,56 -7,56 -16,46 -20,48 -18,43 -18,38 -20,33 -28,33 -38,28 -53,26 -72,25 h -10 l -7,-2 -13,-3 -10,-5 -13,-5 -13,-5 -12,-5 -16,-3 -33,5 -30,13 -26,20 -22,23 -23,26 -26,18 -30,15 -33,2 -21,-2 -17,-3 -18,-5 z"
   id="path88"
   inkscape:connector-curvature="0"
   style="fill:#333333;stroke:none" />
         <path
   d="m 8899,14833 10,-53 10,-46 15,-45 26,-46 12,-15 13,-13 15,-10 16,-10 12,-11 13,-12 13,-13 10,-20 13,-18 22,-18 28,-18 28,-18 28,-20 23,-23 13,-25 v -31 l 5,-30 20,-31 31,-25 38,-20 43,-11 h 41 l 35,13 26,31 23,35 10,5 8,-20 10,-36 20,-40 41,-33 63,-21 97,3 33,13 35,30 31,38 30,49 23,50 18,51 10,43 3,39 -8,38 -10,40 -15,41 -21,28 -25,10 -25,-18 -31,-48 -30,-91 -13,-16 -20,3 -28,15 -28,25 -26,31 -23,36 -10,35 v 31 l 10,78 -12,82 -36,81 -46,69 -56,53 -56,26 -55,-8 -46,-46 -26,-28 h -28 l -30,21 -31,33 -33,38 -35,35 -38,23 -41,5 -25,-5 -26,-7 -20,-8 -23,-10 -18,-13 -18,-15 -15,-18 -13,-23 -12,-48 2,-43 13,-49 z"
   id="path90"
   inkscape:connector-curvature="0"
   style="fill:#4c4c4c;stroke:none" />
         <path
   d="m 8957,14770 5,-23 8,-23 13,-18 12,-15 13,-18 15,-15 18,-18 15,-20 10,-15 8,-13 8,-13 7,-12 8,-11 10,-10 10,-10 15,-8 13,-5 18,-7 18,-10 20,-11 15,-12 13,-16 8,-20 v -23 l 2,-23 15,-22 23,-18 28,-16 33,-10 h 31 l 25,10 21,23 15,26 h 5 l 2,-18 6,-28 12,-30 28,-23 51,-8 79,15 28,21 18,28 7,38 v 35 l -7,33 -13,26 -20,10 -21,-8 -15,-5 -18,10 -18,18 -12,23 -13,31 -8,27 -5,31 5,23 8,58 -10,64 -26,58 -35,54 -41,38 -43,20 -41,-5 -35,-36 -21,-20 h -20 l -23,15 -23,26 -25,28 -26,28 -30,18 -31,2 -17,-5 -18,-5 -15,-5 -16,-10 -12,-8 -13,-13 -13,-12 -12,-16 -21,-35 -7,-36 -3,-35 z"
   id="path92"
   inkscape:connector-curvature="0"
   style="fill:#666666;stroke:none" />
         <path
   d="m 9033,14755 8,-28 10,-23 13,-20 15,-26 15,-28 18,-25 18,-21 20,-15 16,-15 25,-31 38,-40 46,-43 51,-41 61,-31 63,-12 69,10 23,13 12,22 6,28 v 28 l -6,23 -10,21 -15,7 -15,-5 -13,-2 -13,5 -12,12 -11,18 -7,23 -8,20 -2,23 2,18 5,46 -10,51 -23,50 -30,46 -36,36 -35,23 h -33 l -28,-26 -16,-15 h -15 l -18,10 -18,20 -17,21 -21,20 -20,13 -23,2 -15,-2 -13,-5 -13,-3 -12,-5 -10,-8 -11,-7 -7,-10 -8,-13 -7,-28 v -25 l 7,-28 z"
   id="path94"
   inkscape:connector-curvature="0"
   style="fill:#7f7f7f;stroke:none" />
         <path
   d="m 9018,14750 v -11 l 3,-28 5,-40 10,-48 2,-13 3,-10 5,-13 5,-10 28,-59 33,-45 33,-36 38,-28 41,-18 43,-12 46,-8 48,-5 h 36 l 23,10 12,15 3,18 -3,23 -2,25 -8,23 -2,23 -26,114 -38,82 -43,53 -48,33 -49,18 -40,8 -36,5 -23,7 -15,5 -15,-5 -18,-12 -15,-16 -16,-15 -10,-15 -7,-10 z"
   id="path96"
   inkscape:connector-curvature="0"
   style="fill:#999999;stroke:none" />
         <path
   d="m 9219,14650 46,-58 28,-51 10,-43 v -33 l -8,-28 -10,-20 -8,-11 -5,-5 -5,3 -15,2 -23,11 -25,15 -31,20 -28,28 -28,36 -23,46 -15,50 5,21 23,-3 31,-13 33,-12 28,-8 17,13 z"
   id="path98"
   inkscape:connector-curvature="0"
   style="fill:#b2b2b2;stroke:none" />
         <path
   d="m 9593,14312 v -5 l 2,-12 5,-21 8,-17 10,-18 15,-10 21,-3 28,10 30,18 28,20 28,23 23,23 20,25 15,23 16,23 7,21 3,45 -13,46 -18,36 -7,15 2,-18 v -41 l -10,-38 -36,-15 -25,3 -25,5 -23,5 -23,5 -20,5 -16,2 -12,6 h -3 z"
   id="path100"
   inkscape:connector-curvature="0"
   style="fill:#4c4c4c;stroke:none" />
         <path
   d="m 10505,15476 5,8 13,20 20,28 18,36 18,38 13,41 2,35 -10,28 -18,21 -20,15 -23,10 -20,8 -21,7 -20,10 -18,11 -15,17 -18,33 -10,28 -15,33 -28,54 -26,30 -33,26 -40,20 -44,13 -43,10 -41,5 h -35 l -31,-5 -28,-5 -28,-3 -28,-5 h -28 l -22,-2 h -18 -13 -5 l -3,-3 -5,-7 -10,-11 -10,-10 -15,-7 -13,-3 -15,8 -15,17 -56,61 -59,26 -58,-8 -56,-25 -51,-38 -38,-38 -26,-28 -10,-13 232,-168 z"
   id="path102"
   inkscape:connector-curvature="0"
   style="fill:#000000;stroke:none" />
         <path
   d="m 10584,15563 -5,-15 -8,-13 -10,-8 -13,-7 -12,-8 -16,-8 -12,-7 -16,-10 -23,-26 -20,-23 -18,-25 -17,-25 -21,-21 -20,-20 -26,-15 -33,-11 -25,-5 -25,-2 -23,2 -23,3 -23,8 -23,7 -25,8 -26,10 -23,10 -20,10 -18,10 -18,13 -17,13 -18,13 -18,10 -23,12 -38,16 -38,10 -38,5 -36,5 -35,8 -36,10 -33,18 -30,25 -16,18 -10,18 -5,20 -5,20 -8,21 -7,17 -16,18 -22,18 -72,51 -45,48 -28,48 -8,44 8,40 20,38 31,31 35,28 43,23 44,15 45,8 41,2 33,-7 25,-16 16,-25 v -36 l 2,-20 21,-5 33,7 40,16 46,18 51,15 48,10 46,2 48,-2 43,-3 41,-2 36,-8 35,-15 38,-25 41,-39 43,-53 5,-18 v -20 -25 l 3,-26 13,-28 22,-23 26,-15 28,-13 28,-12 25,-16 21,-23 12,-27 5,-18 5,-18 v -15 z"
   id="path104"
   inkscape:connector-curvature="0"
   style="fill:#333333;stroke:none" />
         <path
   d="m 10317,15380 -25,-5 -23,-3 -23,-2 -23,-3 -20,-2 h -23 l -23,2 -26,5 -17,5 -16,8 -12,10 -13,8 -13,10 -15,8 -18,5 -20,2 -20,8 -23,13 -23,20 -26,18 -25,17 -28,13 -25,3 -28,-8 -28,-8 -33,8 -33,20 -28,26 -23,35 -13,36 v 36 l 18,33 25,30 v 10 h -20 l -33,-2 -43,5 -44,23 -38,51 -28,83 3,36 15,38 26,41 30,40 38,39 38,30 36,25 30,13 33,5 41,3 h 41 l 30,-10 18,-18 -5,-28 -36,-41 -68,-56 -10,-15 10,-20 20,-18 31,-18 35,-13 38,-7 33,2 28,11 31,20 35,13 36,10 41,5 h 40 l 38,-5 41,-8 36,-10 33,-13 30,-18 23,-20 18,-23 10,-23 3,-25 -11,-28 -17,-28 -16,-33 11,-23 25,-20 41,-18 43,-18 43,-18 31,-28 17,-33 6,-45 -3,-44 -13,-40 -25,-38 -18,-16 -20,-12 -21,-5 -20,-5 -23,-3 h -23 l -23,-3 z"
   id="path106"
   inkscape:connector-curvature="0"
   style="fill:#4c4c4c;stroke:none" />
         <path
   d="m 10243,15410 -23,-2 h -20 l -20,2 -18,8 -18,5 -20,10 -21,8 -22,8 -16,5 -12,2 -16,3 -12,2 -13,3 -13,5 -10,7 -13,11 -10,10 -10,13 -15,12 -15,13 -18,10 -18,5 h -18 l -20,-7 -21,-6 -25,8 -23,15 -23,21 -17,25 -8,26 v 27 l 13,23 17,21 -2,5 -18,-5 -25,-5 -31,2 -28,18 -20,43 -10,74 5,30 20,26 28,18 33,10 31,5 25,-5 15,-13 v -20 l 3,-16 13,-12 20,-8 25,-8 h 31 l 28,3 25,8 20,10 49,25 58,10 61,-2 56,-15 46,-23 33,-31 8,-38 -21,-41 -12,-25 7,-18 21,-15 30,-13 33,-12 31,-16 25,-17 13,-26 2,-35 -2,-34 -10,-27 -18,-31 -13,-15 -10,-13 -15,-10 -13,-8 -15,-7 -16,-5 -17,-5 z"
   id="path108"
   inkscape:connector-curvature="0"
   style="fill:#666666;stroke:none" />
         <path
   d="m 10205,15471 -13,-2 h -12 -13 l -10,2 h -13 l -13,3 -12,2 -13,3 -15,3 -15,5 -13,2 -13,3 -13,5 -12,5 -10,5 -11,8 -17,7 -34,15 -45,18 -54,26 -50,33 -46,43 -33,51 -13,63 5,23 15,21 21,12 25,8 23,5 20,-5 13,-10 v -16 -10 l 10,-10 15,-5 18,-5 h 23 l 20,2 21,6 15,7 38,18 48,8 51,-5 51,-13 41,-18 30,-25 10,-31 -12,-30 -8,-18 5,-15 15,-11 21,-10 25,-7 23,-13 18,-13 10,-20 5,-26 -2,-25 -5,-23 -16,-23 -10,-7 -10,-5 -13,-6 -12,-2 h -13 l -13,-3 h -13 z"
   id="path110"
   inkscape:connector-curvature="0"
   style="fill:#7f7f7f;stroke:none" />
         <path
   d="m 10208,15459 h -3 l -7,-3 -11,-5 -15,-5 -18,-5 -20,-3 -23,-5 -23,-2 h -10 -10 -13 -10 l -61,7 -51,13 -41,18 -35,25 -28,31 -25,33 -21,35 -20,41 -10,31 v 22 l 7,16 16,10 20,5 23,2 25,3 21,3 106,15 84,-5 61,-23 43,-31 31,-35 20,-33 15,-28 13,-18 10,-28 -12,-38 -18,-31 z"
   id="path112"
   inkscape:connector-curvature="0"
   style="fill:#999999;stroke:none" />
         <path
   d="m 10055,15601 -66,20 -51,8 -43,-3 -28,-12 -23,-16 -13,-15 -7,-10 -3,-5 3,-5 10,-10 13,-18 23,-18 25,-20 36,-18 38,-13 48,-5 48,3 16,12 -8,18 -20,23 -23,26 -13,22 5,21 z"
   id="path114"
   inkscape:connector-curvature="0"
   style="fill:#b2b2b2;stroke:none" />
         <path
   d="m 9641,15820 h -5 l -13,-5 h -18 -18 l -20,2 -15,10 -8,18 v 28 l 8,33 10,31 10,30 15,25 16,26 15,23 15,18 15,15 18,10 21,5 22,5 h 23 18 l 18,-2 10,-3 h 5 -5 l -13,-3 -15,-5 -20,-7 -15,-10 -13,-13 -8,-15 5,-21 23,-40 23,-38 18,-31 7,-10 z"
   id="path116"
   inkscape:connector-curvature="0"
   style="fill:#4c4c4c;stroke:none" />
         <path
   d="m 11278,14961 43,-8 43,-5 43,-3 41,-2 h 43 l 44,7 40,11 43,15 46,25 46,33 41,46 35,53 21,61 5,69 -16,76 -43,82 -30,40 -36,36 -38,30 -41,26 -43,23 -46,20 -45,15 -44,10 -45,11 -44,5 -40,2 -38,3 h -36 l -31,-3 -22,-5 -21,-5 -35,-13 -38,-20 -41,-23 -38,-30 -36,-36 -30,-38 -21,-43 -10,-49 v -50 l 10,-54 18,-56 33,-53 48,-53 67,-54 83,-48 107,-48 15,43 -17,5 -44,15 -61,28 -71,41 -66,53 -53,71 -31,84 3,102 15,38 25,35 36,34 41,27 43,26 46,18 40,10 36,5 h 23 25 l 28,-3 31,-2 30,-5 33,-5 33,-5 33,-11 33,-10 33,-10 31,-15 30,-15 28,-21 28,-23 26,-22 20,-28 38,-64 21,-61 7,-58 -5,-54 -20,-48 -31,-43 -43,-36 -51,-30 -66,-26 -61,-15 -56,-5 -46,2 -40,6 -28,7 -18,5 -8,3 z"
   id="path118"
   inkscape:connector-curvature="0"
   style="fill:#000000;stroke:none" />
         <path
   d="m 10485,15291 v 196 h 696 l 216,521 26,61 20,58 20,51 16,48 10,46 7,41 5,35 3,31 v 20 l -5,23 -5,20 -8,18 -12,18 -13,18 -15,17 -18,16 -21,15 -25,13 -30,10 -34,10 -38,8 -43,7 -48,5 -51,3 v 99 h 1426 v -99 l -53,-5 -51,-8 -49,-10 -43,-13 -43,-17 -38,-21 -36,-23 -33,-25 -30,-31 -33,-38 -33,-48 -33,-53 -36,-64 -36,-71 -35,-79 -38,-86 -1261,-3007 h -91 l -107,249 v 597 l 7,-17 613,1461 z"
   id="path120"
   inkscape:connector-curvature="0"
   style="fill:#000000;stroke:none" />
         <path
   d="m 10485,13847 v -597 l -1167,2727 -41,94 -40,84 -38,79 -39,69 -38,61 -35,53 -36,43 -33,36 -20,15 -23,15 -31,15 -33,13 -40,13 -44,13 -50,10 -54,10 v 99 h 1139 v -99 l -61,-5 -58,-8 -49,-7 -46,-11 -40,-10 -33,-12 -31,-13 -23,-15 -17,-16 -16,-17 -12,-16 -11,-18 -10,-20 -5,-18 -5,-20 v -20 l 3,-28 2,-31 8,-35 10,-38 10,-41 15,-43 21,-49 20,-50 247,-570 704,-2 v -196 h -623 z"
   id="path122"
   inkscape:connector-curvature="0"
   style="fill:#000000;stroke:none" />
        </g>
       </g>
      </g>
     </g>
    </g>
   </g>
  </g>
 </g>
</svg>