<?xml version="1.0" encoding="UTF-8" standalone="no"?>
<svg
   xmlns:ooo="http://xml.openoffice.org/svg/export"
   xmlns:dc="http://purl.org/dc/elements/1.1/"
   xmlns:cc="http://creativecommons.org/ns#"
   xmlns:rdf="http://www.w3.org/1999/02/22-rdf-syntax-ns#"
   xmlns:svg="http://www.w3.org/2000/svg"
   xmlns="http://www.w3.org/2000/svg"
   xmlns:sodipodi="http://sodipodi.sourceforge.net/DTD/sodipodi-0.dtd"
   xmlns:inkscape="http://www.inkscape.org/namespaces/inkscape"
   version="1.2"
   width="20.450001mm"
   height="28.5mm"
   viewBox="0 0 2045.0001 2850"
   preserveAspectRatio="xMidYMid"
   xml:space="preserve"
   id="svg230"
   sodipodi:docname="angelfsh.svg"
   style="fill-rule:evenodd;stroke-width:28.22200012;stroke-linejoin:round"
   inkscape:version="0.92.5 (2060ec1f9f, 2020-04-08)"><metadata
   id="metadata234"><rdf:RDF><cc:Work
       rdf:about=""><dc:format>image/svg+xml</dc:format><dc:type
         rdf:resource="http://purl.org/dc/dcmitype/StillImage" /></cc:Work></rdf:RDF></metadata><sodipodi:namedview
   pagecolor="#ffffff"
   bordercolor="#666666"
   borderopacity="1"
   objecttolerance="10"
   gridtolerance="10"
   guidetolerance="10"
   inkscape:pageopacity="0"
   inkscape:pageshadow="2"
   inkscape:window-width="664"
   inkscape:window-height="487"
   id="namedview232"
   showgrid="false"
   inkscape:zoom="0.2102413"
   inkscape:cx="38.664568"
   inkscape:cy="53.858266"
   inkscape:window-x="0"
   inkscape:window-y="0"
   inkscape:window-maximized="0"
   inkscape:current-layer="svg230" />
 <defs
   class="ClipPathGroup"
   id="defs8">
  <clipPath
   id="presentation_clip_path"
   clipPathUnits="userSpaceOnUse">
   <rect
   x="0"
   y="0"
   width="21000"
   height="29700"
   id="rect2" />
  </clipPath>
  <clipPath
   id="presentation_clip_path_shrink"
   clipPathUnits="userSpaceOnUse">
   <rect
   x="21"
   y="29"
   width="20958"
   height="29641"
   id="rect5" />
  </clipPath>
 </defs>
 <defs
   class="TextShapeIndex"
   id="defs12">
  <g
   ooo:slide="id1"
   ooo:id-list="id3"
   id="g10" />
 </defs>
 <defs
   class="EmbeddedBulletChars"
   id="defs44">
  <g
   id="bullet-char-template-57356"
   transform="matrix(4.8828125e-4,0,0,-4.8828125e-4,0,0)">
   <path
   d="M 580,1141 1163,571 580,0 -4,571 Z"
   id="path14"
   inkscape:connector-curvature="0" />
  </g>
  <g
   id="bullet-char-template-57354"
   transform="matrix(4.8828125e-4,0,0,-4.8828125e-4,0,0)">
   <path
   d="M 8,1128 H 1137 V 0 H 8 Z"
   id="path17"
   inkscape:connector-curvature="0" />
  </g>
  <g
   id="bullet-char-template-10146"
   transform="matrix(4.8828125e-4,0,0,-4.8828125e-4,0,0)">
   <path
   d="M 174,0 602,739 174,1481 1456,739 Z M 1358,739 309,1346 659,739 Z"
   id="path20"
   inkscape:connector-curvature="0" />
  </g>
  <g
   id="bullet-char-template-10132"
   transform="matrix(4.8828125e-4,0,0,-4.8828125e-4,0,0)">
   <path
   d="M 2015,739 1276,0 H 717 l 543,543 H 174 v 393 h 1086 l -543,545 h 557 z"
   id="path23"
   inkscape:connector-curvature="0" />
  </g>
  <g
   id="bullet-char-template-10007"
   transform="matrix(4.8828125e-4,0,0,-4.8828125e-4,0,0)">
   <path
   d="m 0,-2 c -7,16 -16,29 -25,39 l 381,530 c -94,256 -141,385 -141,387 0,25 13,38 40,38 9,0 21,-2 34,-5 21,4 42,12 65,25 l 27,-13 111,-251 280,301 64,-25 24,25 c 21,-10 41,-24 62,-43 C 886,937 835,863 770,784 769,783 710,716 594,584 L 774,223 c 0,-27 -21,-55 -63,-84 l 16,-20 C 717,90 699,76 672,76 641,76 570,178 457,381 L 164,-76 c -22,-34 -53,-51 -92,-51 -42,0 -63,17 -64,51 -7,9 -10,24 -10,44 0,9 1,19 2,30 z"
   id="path26"
   inkscape:connector-curvature="0" />
  </g>
  <g
   id="bullet-char-template-10004"
   transform="matrix(4.8828125e-4,0,0,-4.8828125e-4,0,0)">
   <path
   d="M 285,-33 C 182,-33 111,30 74,156 52,228 41,333 41,471 c 0,78 14,145 41,201 34,71 87,106 158,106 53,0 88,-31 106,-94 l 23,-176 c 8,-64 28,-97 59,-98 l 735,706 c 11,11 33,17 66,17 42,0 63,-15 63,-46 V 965 c 0,-36 -10,-64 -30,-84 L 442,47 C 390,-6 338,-33 285,-33 Z"
   id="path29"
   inkscape:connector-curvature="0" />
  </g>
  <g
   id="bullet-char-template-9679"
   transform="matrix(4.8828125e-4,0,0,-4.8828125e-4,0,0)">
   <path
   d="M 813,0 C 632,0 489,54 383,161 276,268 223,411 223,592 c 0,181 53,324 160,431 106,107 249,161 430,161 179,0 323,-54 432,-161 108,-107 162,-251 162,-431 0,-180 -54,-324 -162,-431 C 1136,54 992,0 813,0 Z"
   id="path32"
   inkscape:connector-curvature="0" />
  </g>
  <g
   id="bullet-char-template-8226"
   transform="matrix(4.8828125e-4,0,0,-4.8828125e-4,0,0)">
   <path
   d="m 346,457 c -73,0 -137,26 -191,78 -54,51 -81,114 -81,188 0,73 27,136 81,188 54,52 118,78 191,78 73,0 134,-26 185,-79 51,-51 77,-114 77,-187 0,-75 -25,-137 -76,-188 -50,-52 -112,-78 -186,-78 z"
   id="path35"
   inkscape:connector-curvature="0" />
  </g>
  <g
   id="bullet-char-template-8211"
   transform="matrix(4.8828125e-4,0,0,-4.8828125e-4,0,0)">
   <path
   d="M -4,459 H 1135 V 606 H -4 Z"
   id="path38"
   inkscape:connector-curvature="0" />
  </g>
  <g
   id="bullet-char-template-61548"
   transform="matrix(4.8828125e-4,0,0,-4.8828125e-4,0,0)">
   <path
   d="m 173,740 c 0,163 58,303 173,419 116,115 255,173 419,173 163,0 302,-58 418,-173 116,-116 174,-256 174,-419 0,-163 -58,-303 -174,-418 C 1067,206 928,148 765,148 601,148 462,206 346,322 231,437 173,577 173,740 Z"
   id="path41"
   inkscape:connector-curvature="0" />
  </g>
 </defs>
 <g
   id="g49"
   transform="translate(-9477,-13425)">
  <g
   id="id2"
   class="Master_Slide">
   <g
   id="bg-id2"
   class="Background" />
   <g
   id="bo-id2"
   class="BackgroundObjects" />
  </g>
 </g>
 <g
   class="SlideGroup"
   id="g228"
   transform="translate(-9477,-13425)">
  <g
   id="g226">
   <g
   id="container-id1">
    <g
   id="id1"
   class="Slide"
   clip-path="url(#presentation_clip_path)">
     <g
   class="Page"
   id="g222">
      <g
   class="Graphic"
   id="g220">
       <g
   id="id3">
        <rect
   class="BoundingBox"
   x="9477"
   y="13425"
   width="2045"
   height="2850"
   id="rect51"
   style="fill:none;stroke:none" />
        <path
   d="m 10291,14574 8,5 7,8 3,13 2,20 8,13 15,17 18,23 25,23 28,26 33,25 39,28 40,25 44,23 45,21 49,17 48,13 51,8 h 51 l 51,-5 50,-16 13,-5 18,-7 18,-8 18,-10 15,-8 13,-10 7,-7 5,-8 8,-13 15,-15 21,-10 22,-8 18,-8 15,-12 13,-15 13,-13 15,-8 h 13 13 7 l 8,-5 10,-10 13,-8 10,-12 13,-11 10,-10 10,-10 8,-10 15,-23 15,-25 15,-28 11,-21 5,-15 2,-13 5,-12 3,-13 15,-15 13,-18 10,-18 5,-18 3,-18 10,-15 10,-15 13,-15 12,-16 16,-12 12,-16 11,-17 5,-21 7,-23 10,-20 11,-13 10,-10 5,-12 v -11 l -5,-5 h -10 l -13,5 -10,5 -8,11 v -13 l 8,-8 10,-10 10,-10 -2,-8 -3,-5 h -5 l -8,-2 -10,-5 -13,-5 -17,-11 -21,-7 -12,-5 -18,-11 -18,-12 -23,-13 -20,-15 -21,-15 -17,-16 -13,-12 -13,-13 -18,-10 -18,-10 -20,-11 -18,-7 -20,-8 -15,-5 -16,-5 -15,-5 -23,-5 -25,-8 -26,-5 -25,-8 -25,-5 -18,-5 -10,-2 -13,-3 -23,-5 -31,-2 -38,-6 -40,-2 -44,-3 h -40 l -38,5 -34,6 -30,7 -28,5 -23,8 -23,8 -18,7 -17,8 -18,7 -18,11 -15,12 -18,18 -15,15 -16,18 -12,18 -11,15 -7,13 -5,18 -10,28 -11,33 -12,38 -16,38 -12,36 -16,28 -15,20 -10,10 -10,13 -13,7 -10,8 -8,28 v 38 l 3,36 2,28 5,28 8,33 8,33 z"
   id="path53"
   inkscape:connector-curvature="0"
   style="fill:#000000;stroke:none" />
        <path
   d="m 10316,14564 8,3 5,7 3,13 2,18 8,12 13,18 17,21 23,22 28,23 33,26 33,25 38,23 41,23 46,18 43,17 49,11 45,7 h 49 l 48,-5 48,-15 13,-5 15,-5 18,-8 15,-7 16,-11 12,-7 8,-8 5,-8 8,-12 15,-13 18,-10 20,-8 18,-7 15,-13 13,-13 13,-13 12,-7 h 13 13 7 l 8,-5 8,-8 12,-10 11,-10 10,-10 12,-11 8,-10 8,-7 12,-21 18,-25 13,-26 10,-20 3,-13 5,-12 2,-13 3,-13 13,-15 15,-15 7,-15 5,-18 3,-16 10,-15 10,-15 11,-15 15,-13 18,-10 15,-13 10,-15 5,-20 8,-18 7,-18 11,-10 10,-10 5,-8 2,-5 -5,-3 h -10 l -10,3 -10,5 -8,8 v -16 l 5,-15 8,-18 10,-12 -3,-8 -2,-5 -5,-3 -8,-2 -10,-3 -15,-5 -21,-5 -20,-8 -13,-5 -15,-10 -18,-10 -20,-13 -18,-15 -20,-13 -15,-15 -13,-13 -13,-10 -15,-10 -18,-10 -18,-10 -20,-5 -18,-8 -15,-5 -13,-5 -15,-5 -20,-5 -26,-5 -25,-8 -26,-5 -20,-5 -18,-5 -10,-3 -13,-2 -20,-3 -31,-5 -35,-5 -38,-3 h -39 -40 l -36,3 -33,5 -28,8 -25,5 -23,5 -21,7 -17,8 -18,8 -16,7 -15,10 -15,13 -18,15 -15,16 -13,15 -13,18 -7,12 -8,13 -5,18 -10,25 -10,33 -13,36 -13,38 -15,33 -15,28 -13,18 -10,10 -8,8 -10,10 -10,8 -8,28 -2,33 2,33 3,28 5,25 8,31 7,33 z"
   id="path55"
   inkscape:connector-curvature="0"
   style="fill:#ffffff;stroke:none" />
        <path
   d="m 10306,14287 15,-20 16,-28 12,-36 16,-38 12,-38 11,-33 10,-28 5,-18 7,-13 11,-15 12,-18 16,-18 15,-15 18,-18 15,-12 18,-11 18,-7 17,-8 18,-7 23,-8 23,-8 28,-5 30,-7 34,-6 38,-5 h 40 l 44,3 40,2 38,6 31,2 23,5 13,3 -8,-13 -18,-13 -20,-12 -26,-13 -28,-10 -30,-10 -31,-8 -30,-8 -33,-7 -38,-8 -44,-8 -43,-10 -43,-10 -38,-8 -36,-7 -25,-8 -36,-10 -46,-10 -53,-15 -54,-16 -53,-12 -46,-13 -40,-10 -26,-5 -13,-3 -20,-5 -23,-5 -28,-8 -33,-10 -35,-10 -39,-10 -35,-13 -38,-13 -39,-15 -35,-15 -33,-15 -31,-16 -25,-17 -21,-16 -15,-17 -10,-13 -8,5 -2,18 13,28 15,17 23,18 30,21 33,17 33,18 31,15 25,13 18,8 v 5 l 10,7 16,13 22,13 23,13 21,15 20,10 13,8 v 2 l 7,8 16,13 23,12 22,16 23,12 21,13 15,10 3,10 7,10 8,11 10,10 -3,7 3,11 8,10 10,7 -5,5 2,11 5,15 13,13 -3,7 3,13 10,13 10,12 -2,11 2,12 5,13 11,13 -8,10 -3,13 3,12 8,13 -5,10 -3,10 5,13 8,10 -5,8 v 10 l 2,10 5,8 v 7 l 8,16 15,17 15,16 -5,2 v 10 l 5,16 13,15 -2,8 5,15 12,18 z"
   id="path57"
   inkscape:connector-curvature="0"
   style="fill:#000000;stroke:none" />
        <path
   d="m 10441,15390 -5,18 -3,25 3,34 5,27 -8,18 -5,21 v 23 l 3,25 -13,23 -10,23 -8,25 v 20 l -5,21 -5,28 v 25 l 5,15 -10,36 -15,46 -18,53 -20,56 -21,59 -23,56 -20,50 -18,41 -25,59 -5,33 5,7 15,-13 25,-35 28,-48 36,-61 38,-67 41,-76 41,-79 43,-84 43,-83 41,-84 41,-82 38,-78 33,-72 28,-66 25,-56 15,-43 11,-30 10,-44 12,-35 11,-28 10,-26 13,-20 10,-18 12,-18 13,-20 23,-38 15,-31 8,-28 2,-33 -50,16 -51,5 h -51 l -51,-8 -48,-13 -49,-17 -45,-21 -44,-23 -40,-25 -39,-28 -33,-25 -28,-26 -25,-23 -18,-23 -15,-17 -8,-13 -15,5 -13,15 -10,21 -2,17 -3,26 v 20 l 5,15 5,11 v 20 l 8,23 7,23 8,12 -5,18 v 21 l 3,17 10,8 2,13 3,7 5,5 h 5 v 26 l 5,18 5,10 8,2 v 23 l 2,21 5,15 8,5 v 25 l 5,23 5,15 10,6 v 22 l 3,18 5,10 10,3 -2,28 5,28 7,23 11,2 -8,21 v 15 l 5,7 10,3 -5,20 v 18 l 8,13 10,2 -5,13 -3,15 5,16 z"
   id="path59"
   inkscape:connector-curvature="0"
   style="fill:#000000;stroke:none" />
        <path
   d="m 11110,15019 -13,20 -12,21 -16,20 -18,20 -15,21 -15,20 -15,15 -11,16 -12,28 -3,33 v 35 l -2,36 10,-36 2,-33 3,-33 13,-25 10,-13 15,-20 15,-21 18,-23 15,-22 16,-21 15,-20 10,-18 3,-5 v -3 h -5 z"
   id="path61"
   inkscape:connector-curvature="0"
   style="fill:#000000;stroke:none" />
        <path
   d="m 11138,14704 15,-8 h 13 13 7 l -2,33 -5,41 -11,43 -12,43 -13,46 -13,38 -15,36 -13,25 -17,23 -21,26 -25,30 -26,31 -25,30 -18,33 -13,31 -2,30 -3,41 -10,43 -20,48 -28,49 -33,53 -38,51 -41,53 -46,54 -15,17 -21,21 -22,25 -28,26 -28,28 -31,28 -36,28 -35,30 -41,31 -41,28 -43,30 -46,28 -45,25 -49,23 -51,23 -50,18 22,-13 28,-15 31,-18 33,-20 36,-23 38,-25 40,-26 41,-28 38,-28 41,-30 38,-31 38,-30 36,-33 36,-33 28,-33 28,-33 45,-61 38,-56 34,-46 25,-41 20,-35 16,-31 7,-28 5,-25 5,-28 8,-28 10,-33 13,-31 15,-30 15,-28 16,-26 12,-18 23,-30 26,-38 28,-43 23,-51 20,-51 18,-51 10,-53 z"
   id="path63"
   inkscape:connector-curvature="0"
   style="fill:#000000;stroke:none" />
        <path
   d="m 11125,14734 -7,36 -11,46 -12,45 -16,36 -10,15 -10,16 -10,17 -13,16 -13,17 -12,16 -10,17 -13,16 -20,28 -18,23 -16,20 -7,20 5,-33 15,-28 18,-23 15,-17 8,-11 10,-12 13,-18 15,-18 13,-18 12,-20 13,-18 8,-15 13,-38 15,-41 7,-38 3,-23 z"
   id="path65"
   inkscape:connector-curvature="0"
   style="fill:#000000;stroke:none" />
        <path
   d="m 10291,14574 -10,-25 -8,-33 -8,-33 -5,-28 -2,-28 -3,-36 v -38 l 8,-28 -8,5 -7,5 -10,3 h -11 -10 l -13,-3 -12,-2 -16,-8 -22,-13 -23,-15 -26,-15 -25,-18 -26,-18 -25,-18 -25,-15 -23,-15 -23,-13 -28,-13 -26,-12 -30,-13 -33,-10 -33,-10 -38,-8 -39,-5 -38,-5 -33,-8 -28,-7 -28,-11 -25,-10 -23,-10 -23,-13 -20,-10 -11,-7 -7,-3 -5,8 10,12 13,11 17,10 26,10 25,10 26,13 25,10 23,10 15,10 21,16 15,12 8,13 v 13 l 2,10 10,8 8,5 2,12 -2,16 -5,10 -5,10 2,13 8,10 8,5 5,7 2,11 -5,12 -5,13 -3,15 3,18 8,13 7,5 5,2 3,11 -5,15 -8,13 -7,15 v 15 l 10,15 10,13 10,10 3,10 -3,11 -5,7 -5,8 v 10 l 5,10 10,5 10,5 5,11 -2,12 -5,10 -8,13 v 13 l 8,10 7,10 11,8 2,7 -5,8 -8,8 -7,10 v 15 l 7,13 8,7 8,6 5,5 v 10 l -5,10 -3,15 3,15 10,11 10,5 h 10 l 8,5 2,10 -2,13 -3,17 5,23 8,13 10,3 10,2 5,5 v 13 l -5,10 v 15 l 3,16 5,15 5,13 v 7 l -5,8 -5,5 -8,13 -10,12 -13,18 -15,18 -18,18 -18,15 -20,13 -10,5 3,2 h 12 l 10,-2 8,-5 15,-10 18,-16 20,-18 23,-17 23,-21 21,-20 17,-18 18,-23 26,-33 30,-38 31,-43 30,-41 28,-38 23,-33 18,-23 13,-18 12,-15 13,-15 13,-13 12,-13 11,-10 12,-10 11,-8 12,-7 15,-8 13,-5 z"
   id="path67"
   inkscape:connector-curvature="0"
   style="fill:#000000;stroke:none" />
        <path
   d="m 11036,14546 -18,-15 -17,-25 -11,-34 5,-33 h -30 -41 l -40,-2 -46,-5 -43,-5 -39,-3 -30,-5 -20,-2 -34,15 -22,25 -16,28 -10,28 -2,33 2,28 10,26 13,20 18,15 20,18 23,15 23,15 23,13 23,10 23,11 17,5 26,-11 23,-7 23,-10 25,-16 28,-20 28,-25 31,-39 z"
   id="path69"
   inkscape:connector-curvature="0"
   style="fill:#000000;stroke:none" />
        <path
   d="m 9790,13550 10,12 18,13 18,15 23,13 22,13 21,10 18,7 15,6 -5,5 7,10 16,10 20,10 23,13 23,10 18,10 12,5 -5,8 8,8 13,10 17,12 21,13 23,13 17,10 13,8 v 10 l 8,10 12,8 8,10 -5,7 5,8 10,8 10,7 -7,8 2,8 5,10 13,10 -5,10 v 10 l 8,10 10,11 -3,10 3,12 5,11 8,10 -5,10 v 15 l 2,15 5,11 -10,2 3,10 5,16 7,10 -5,7 v 8 l 5,10 10,8 -7,7 10,18 15,18 13,15 -10,3 v 10 l 5,15 13,8 v 15 l 7,8 8,-3 7,-12 18,-49 21,-61 20,-53 13,-36 5,-10 10,-13 10,-15 13,-13 15,-15 15,-13 16,-10 12,-7 13,-8 18,-8 15,-5 20,-7 21,-8 23,-8 25,-5 28,-5 31,-2 33,-3 33,3 h 33 l 28,5 25,2 18,3 10,2 -7,-10 -13,-10 -18,-8 -20,-7 -26,-5 -25,-8 -26,-5 -22,-5 -28,-5 -31,-8 -36,-7 -35,-8 -33,-5 -33,-8 -28,-7 -21,-5 -28,-8 -38,-10 -40,-10 -44,-13 -43,-10 -41,-11 -30,-7 -23,-5 -26,-5 -40,-10 -54,-13 -61,-18 -61,-18 -58,-23 -49,-23 z"
   id="path71"
   inkscape:connector-curvature="0"
   style="fill:#ffffff;stroke:none" />
        <path
   d="m 10334,16051 21,-30 22,-38 28,-49 28,-56 31,-61 33,-66 33,-68 33,-69 33,-69 31,-66 28,-63 25,-61 23,-51 18,-46 13,-36 7,-25 18,-66 18,-46 15,-33 20,-33 23,-33 23,-30 18,-34 5,-30 -41,10 -45,5 -44,-2 -45,-11 -46,-12 -46,-18 -43,-20 -44,-23 -40,-23 -36,-26 -35,-25 -28,-23 -26,-23 -20,-20 -13,-15 -8,-10 -12,5 -10,12 -8,16 -3,12 v 21 l 8,17 8,11 5,7 v 18 l 5,23 7,23 6,12 -6,18 3,18 10,15 21,5 -6,23 v 21 l 8,12 18,5 -10,21 2,18 5,12 8,3 v 18 12 l 8,10 17,6 -7,17 v 21 l 5,18 10,5 v 17 16 l 5,7 8,3 v 23 l 2,23 5,17 11,3 -6,18 -2,10 5,8 h 8 l -3,17 v 16 l 3,7 10,3 -3,10 3,13 7,10 8,5 -8,13 -7,15 v 18 l 13,15 -11,20 -2,28 7,28 16,20 -16,11 -7,25 -3,28 3,23 -10,15 -13,21 -3,20 21,10 -23,31 -13,30 -2,28 7,23 -5,33 -8,36 -10,40 -12,41 -13,38 -15,41 -13,33 z"
   id="path73"
   inkscape:connector-curvature="0"
   style="fill:#ffffff;stroke:none" />
        <path
   d="m 9780,14144 38,8 33,10 30,10 28,13 26,13 23,13 23,12 20,13 20,13 23,15 23,15 23,15 23,16 23,15 23,13 20,12 23,11 20,2 16,-2 15,-11 -5,23 v 28 l 2,28 3,23 2,26 5,28 8,25 8,23 h -11 l -12,5 -13,5 -13,8 -10,7 -10,8 -10,10 -10,10 -11,13 -12,13 -10,15 -13,15 -15,20 -23,31 -26,36 -25,35 -28,38 -26,36 -22,30 -18,21 -23,20 -13,8 -5,-5 -3,-11 6,-5 v -10 l -3,-10 -5,-13 -5,-15 2,-13 3,-10 v -13 l -5,-5 -8,-2 -7,-3 -8,-10 -5,-20 2,-15 3,-13 -3,-8 -7,-5 -10,-2 -11,-3 -7,-10 -3,-15 5,-13 3,-10 v -8 l -5,-5 -5,-3 -8,-5 -8,-12 v -13 l 8,-10 8,-8 5,-7 -3,-8 -10,-5 -8,-8 -5,-10 v -10 l 5,-13 6,-10 2,-10 -5,-10 -8,-5 -10,-6 -5,-7 v -10 l 5,-8 5,-5 3,-10 -3,-10 -7,-8 -11,-13 -10,-12 v -16 l 5,-10 8,-13 5,-12 -2,-8 -3,-2 -8,-6 -7,-12 -3,-15 5,-13 5,-13 3,-13 -3,-10 -5,-5 -7,-5 -5,-8 -3,-10 3,-10 5,-10 2,-13 -2,-10 -8,-8 -8,-5 -2,-10 v -13 l -8,-10 -10,-12 -20,-16 -5,-12 7,-8 21,-3 z"
   id="path75"
   inkscape:connector-curvature="0"
   style="fill:#ffffff;stroke:none" />
        <path
   d="m 11018,14546 -15,-13 -15,-22 -10,-28 5,-33 h -28 -36 l -38,-3 -38,-5 -41,-3 -33,-5 -28,-2 -18,-3 -28,15 -23,21 -15,25 -7,28 -3,28 3,26 7,22 13,18 15,16 18,12 20,16 23,12 21,13 20,10 18,8 18,5 22,-8 21,-10 23,-8 20,-12 25,-18 26,-26 28,-33 z"
   id="path77"
   inkscape:connector-curvature="0"
   style="fill:#ffffff;stroke:none" />
        <path
   d="m 10970,14467 -10,-2 -28,-3 -41,-2 -48,-3 -46,-5 -41,-2 -30,-3 h -10 l -18,10 h 13 l 30,3 43,2 49,3 51,2 h 43 30 z"
   id="path79"
   inkscape:connector-curvature="0"
   style="fill:#000000;stroke:none" />
        <path
   d="m 10965,14483 -10,-3 h -33 l -46,-2 h -51 -53 -46 -31 -12 l -11,12 h 13 33 46 l 53,-2 h 54 l 48,-3 h 33 z"
   id="path81"
   inkscape:connector-curvature="0"
   style="fill:#000000;stroke:none" />
        <path
   d="m 10962,14498 h -12 -33 l -49,2 -53,3 -56,5 -48,3 -33,2 h -13 l -5,18 h 12 l 34,-5 48,-5 56,-5 56,-5 48,-5 36,-6 z"
   id="path83"
   inkscape:connector-curvature="0"
   style="fill:#000000;stroke:none" />
        <path
   d="m 10970,14511 h -13 l -35,5 -49,5 -56,10 -56,10 -48,8 -35,5 -13,2 -3,16 13,-3 36,-5 48,-10 56,-10 56,-11 51,-10 35,-7 z"
   id="path85"
   inkscape:connector-curvature="0"
   style="fill:#000000;stroke:none" />
        <path
   d="m 10973,14523 -13,3 -33,7 -49,11 -53,15 -53,13 -46,12 -33,10 -13,3 8,15 12,-2 34,-10 43,-16 53,-15 54,-15 45,-15 31,-11 z"
   id="path87"
   inkscape:connector-curvature="0"
   style="fill:#000000;stroke:none" />
        <path
   d="m 10988,14531 -13,2 -30,11 -44,15 -50,20 -49,21 -43,15 -31,13 -12,5 12,12 11,-5 30,-12 43,-18 46,-21 48,-20 41,-18 31,-12 z"
   id="path89"
   inkscape:connector-curvature="0"
   style="fill:#000000;stroke:none" />
        <path
   d="m 10995,14541 -10,3 -28,12 -38,21 -46,20 -43,23 -38,20 -28,16 -10,5 23,10 10,-5 23,-16 35,-20 41,-23 41,-23 35,-20 23,-15 z"
   id="path91"
   inkscape:connector-curvature="0"
   style="fill:#000000;stroke:none" />
        <path
   d="m 10993,14559 -8,5 -23,13 -28,20 -33,23 -33,23 -30,20 -21,15 -7,5 15,8 8,-5 18,-15 27,-21 31,-22 31,-26 28,-20 17,-15 z"
   id="path93"
   inkscape:connector-curvature="0"
   style="fill:#000000;stroke:none" />
        <path
   d="m 10716,13870 v -3 l -8,-7 -10,-10 -13,-11 -13,-12 -12,-13 -10,-8 -8,-5 -13,-2 3,2 10,10 13,11 15,12 15,16 15,10 11,7 z"
   id="path95"
   inkscape:connector-curvature="0"
   style="fill:#000000;stroke:none" />
        <path
   d="m 10672,13875 -2,-5 -8,-10 -12,-13 -18,-15 -15,-18 -16,-13 -10,-10 -5,-2 -23,-6 5,6 10,10 18,12 18,18 20,18 18,13 13,10 z"
   id="path97"
   inkscape:connector-curvature="0"
   style="fill:#000000;stroke:none" />
        <path
   d="m 10642,13878 -3,-6 -12,-10 -16,-18 -20,-17 -20,-18 -18,-18 -13,-10 -5,-5 -25,-3 5,5 15,13 20,15 23,21 23,17 23,18 15,13 z"
   id="path99"
   inkscape:connector-curvature="0"
   style="fill:#000000;stroke:none" />
        <path
   d="m 10617,13885 -3,-5 -15,-15 -21,-18 -25,-20 -26,-23 -22,-18 -18,-13 -5,-5 -26,-7 8,5 15,15 26,20 28,23 30,23 26,20 17,13 z"
   id="path101"
   inkscape:connector-curvature="0"
   style="fill:#000000;stroke:none" />
        <path
   d="m 10576,13895 -5,-7 -16,-16 -25,-22 -30,-26 -31,-28 -25,-20 -18,-18 -8,-5 -28,-5 8,8 20,15 28,25 33,26 36,28 28,22 23,18 z"
   id="path103"
   inkscape:connector-curvature="0"
   style="fill:#000000;stroke:none" />
        <path
   d="m 10759,13862 -5,-7 -18,-16 -18,-15 -7,-7 -18,-6 10,8 20,18 23,18 z"
   id="path105"
   inkscape:connector-curvature="0"
   style="fill:#000000;stroke:none" />
        <path
   d="m 10802,13865 -2,-5 -13,-13 -13,-13 -7,-5 -16,-2 8,5 15,12 18,16 z"
   id="path107"
   inkscape:connector-curvature="0"
   style="fill:#000000;stroke:none" />
        <path
   d="m 10548,13903 -5,-8 -23,-20 -31,-25 -35,-31 -36,-30 -33,-26 -23,-18 -7,-7 -36,-13 10,8 26,20 35,30 41,34 43,33 36,28 28,20 z"
   id="path109"
   inkscape:connector-curvature="0"
   style="fill:#000000;stroke:none" />
        <path
   d="m 10515,13911 -8,-11 -25,-20 -36,-30 -43,-36 -41,-36 -38,-28 -25,-22 -11,-8 -25,-5 10,7 28,23 41,33 43,36 46,36 41,30 30,23 z"
   id="path111"
   inkscape:connector-curvature="0"
   style="fill:#000000;stroke:none" />
        <path
   d="m 10497,13928 -10,-10 -28,-25 -41,-36 -48,-40 -51,-39 -41,-35 -30,-23 -13,-10 -23,-5 13,10 30,25 46,36 51,43 53,41 46,35 33,26 z"
   id="path113"
   inkscape:connector-curvature="0"
   style="fill:#000000;stroke:none" />
        <path
   d="m 10479,13939 -13,-11 -33,-30 -51,-38 -55,-46 -59,-46 -51,-40 -35,-28 -13,-11 -21,-5 16,10 35,31 54,41 58,48 61,46 54,40 38,28 z"
   id="path115"
   inkscape:connector-curvature="0"
   style="fill:#000000;stroke:none" />
        <path
   d="m 10459,13956 -15,-12 -39,-33 -56,-44 -63,-50 -64,-51 -56,-44 -40,-30 -16,-13 -23,-7 16,12 43,33 58,46 67,54 68,50 59,46 43,33 z"
   id="path117"
   inkscape:connector-curvature="0"
   style="fill:#000000;stroke:none" />
        <path
   d="m 10433,13977 -5,-5 -12,-11 -21,-17 -28,-21 -33,-25 -38,-28 -38,-31 -41,-30 -41,-31 -40,-28 -38,-28 -33,-25 -28,-20 -23,-16 -13,-12 -5,-3 -23,-5 5,5 15,10 23,16 28,22 36,26 38,28 41,30 43,33 43,31 41,30 38,28 36,26 30,23 23,15 15,10 z"
   id="path119"
   inkscape:connector-curvature="0"
   style="fill:#000000;stroke:none" />
        <path
   d="m 10416,14005 -8,-8 -23,-18 -33,-23 -36,-25 -38,-25 -33,-23 -23,-16 -7,-5 -5,8 7,5 26,18 30,20 38,26 38,25 33,23 23,13 z"
   id="path121"
   inkscape:connector-curvature="0"
   style="fill:#000000;stroke:none" />
        <path
   d="m 10408,14028 -8,-6 -18,-10 -25,-15 -33,-18 -31,-18 -28,-12 -17,-10 -8,-6 -2,11 7,2 18,10 28,16 33,15 31,15 27,15 18,8 z"
   id="path123"
   inkscape:connector-curvature="0"
   style="fill:#000000;stroke:none" />
        <path
   d="m 10395,14053 -5,-5 -15,-8 -23,-7 -28,-13 -25,-10 -26,-10 -15,-6 -8,-2 v 10 l 5,3 18,5 23,10 25,8 28,10 23,7 16,5 z"
   id="path125"
   inkscape:connector-curvature="0"
   style="fill:#000000;stroke:none" />
        <path
   d="m 10388,14071 -6,-3 -15,-5 -23,-5 -25,-5 -26,-8 -20,-5 -18,-2 -5,-3 -2,8 5,2 18,3 20,5 28,5 25,5 21,5 17,3 z"
   id="path127"
   inkscape:connector-curvature="0"
   style="fill:#000000;stroke:none" />
        <path
   d="m 10375,14101 -5,-2 -13,-5 -18,-3 -20,-5 -20,-5 -21,-5 -13,-3 h -5 v 10 h 5 l 13,3 18,3 23,5 20,2 18,3 13,2 z"
   id="path129"
   inkscape:connector-curvature="0"
   style="fill:#000000;stroke:none" />
        <path
   d="m 10372,14124 -5,-2 h -10 l -18,-3 h -18 l -17,-2 h -18 -10 -5 l 2,10 h 5 10 16 20 18 15 l 10,-3 z"
   id="path131"
   inkscape:connector-curvature="0"
   style="fill:#000000;stroke:none" />
        <path
   d="m 10357,14160 -8,-3 h -17 l -21,3 -10,2 -2,8 h 7 l 21,-3 20,-5 z"
   id="path133"
   inkscape:connector-curvature="0"
   style="fill:#000000;stroke:none" />
        <path
   d="m 10365,14694 -10,5 -16,18 -15,20 -8,7 8,6 8,-8 15,-18 13,-20 z"
   id="path135"
   inkscape:connector-curvature="0"
   style="fill:#000000;stroke:none" />
        <path
   d="m 10388,14717 -11,10 -22,28 -21,30 -10,15 3,13 10,-15 23,-31 20,-33 z"
   id="path137"
   inkscape:connector-curvature="0"
   style="fill:#000000;stroke:none" />
        <path
   d="m 10408,14734 -13,21 -25,45 -26,49 -10,23 10,10 11,-23 25,-51 20,-51 z"
   id="path139"
   inkscape:connector-curvature="0"
   style="fill:#000000;stroke:none" />
        <path
   d="m 10438,14757 -5,5 -10,21 -13,28 -15,30 -13,33 -12,28 -10,20 -3,8 10,5 3,-7 10,-21 10,-28 15,-33 13,-30 10,-31 8,-20 z"
   id="path141"
   inkscape:connector-curvature="0"
   style="fill:#000000;stroke:none" />
        <path
   d="m 10466,14775 -7,8 -10,25 -16,33 -17,38 -16,38 -15,36 -10,23 -3,10 8,10 5,-10 10,-23 15,-35 18,-41 16,-41 15,-35 7,-26 z"
   id="path143"
   inkscape:connector-curvature="0"
   style="fill:#000000;stroke:none" />
        <path
   d="m 10492,14795 -5,8 -13,28 -18,38 -18,43 -17,46 -16,38 -10,28 -5,10 10,8 5,-10 11,-28 15,-38 18,-44 17,-45 16,-41 7,-28 z"
   id="path145"
   inkscape:connector-curvature="0"
   style="fill:#000000;stroke:none" />
        <path
   d="m 10520,14811 -8,10 -15,33 -18,43 -18,53 -20,51 -18,46 -10,31 -5,12 2,13 6,-13 12,-33 21,-46 20,-53 20,-53 18,-46 10,-33 z"
   id="path147"
   inkscape:connector-curvature="0"
   style="fill:#000000;stroke:none" />
        <path
   d="m 10545,14826 -7,13 -16,33 -20,48 -23,58 -23,56 -18,51 -12,36 -5,12 2,13 5,-13 16,-38 20,-51 25,-58 23,-58 18,-51 13,-36 z"
   id="path149"
   inkscape:connector-curvature="0"
   style="fill:#000000;stroke:none" />
        <path
   d="m 10573,14836 -10,13 -18,40 -23,59 -22,66 -26,66 -20,59 -16,40 -5,15 5,11 6,-16 17,-40 23,-59 26,-68 25,-66 20,-62 16,-40 z"
   id="path151"
   inkscape:connector-curvature="0"
   style="fill:#000000;stroke:none" />
        <path
   d="m 10606,14856 -10,16 -18,43 -25,61 -28,71 -28,71 -25,61 -16,43 -7,18 7,8 8,-18 18,-43 25,-61 28,-71 28,-72 23,-63 18,-46 z"
   id="path153"
   inkscape:connector-curvature="0"
   style="fill:#000000;stroke:none" />
        <path
   d="m 10634,14872 -10,17 -20,46 -28,66 -31,79 -30,76 -26,69 -17,48 -8,18 8,10 7,-18 18,-48 28,-68 30,-79 31,-79 25,-69 18,-48 z"
   id="path155"
   inkscape:connector-curvature="0"
   style="fill:#000000;stroke:none" />
        <path
   d="m 10660,14882 -10,20 -23,54 -31,78 -33,89 -36,89 -27,79 -21,56 -7,20 v 23 l 7,-23 23,-56 31,-81 38,-91 33,-95 30,-81 21,-58 z"
   id="path157"
   inkscape:connector-curvature="0"
   style="fill:#000000;stroke:none" />
        <path
   d="m 10690,14892 -12,23 -26,66 -35,91 -39,107 -35,107 -33,92 -23,66 -8,25 8,13 10,-26 23,-66 35,-94 39,-109 38,-107 33,-94 20,-69 z"
   id="path159"
   inkscape:connector-curvature="0"
   style="fill:#000000;stroke:none" />
        <path
   d="m 10723,14900 -15,28 -30,81 -44,112 -45,132 -49,130 -40,114 -28,81 -11,31 5,25 13,-30 28,-84 43,-117 49,-135 48,-135 41,-116 28,-84 z"
   id="path161"
   inkscape:connector-curvature="0"
   style="fill:#000000;stroke:none" />
        <path
   d="m 10759,14905 -15,35 -38,99 -54,138 -58,160 -59,160 -51,140 -35,99 -13,38 5,26 15,-39 36,-101 53,-143 59,-165 58,-163 51,-145 36,-101 z"
   id="path163"
   inkscape:connector-curvature="0"
   style="fill:#000000;stroke:none" />
        <path
   d="m 10795,14902 -16,31 -33,86 -43,125 -48,139 -49,143 -40,124 -31,87 -10,33 15,-18 13,-33 28,-84 43,-119 48,-138 49,-137 38,-119 28,-87 z"
   id="path165"
   inkscape:connector-curvature="0"
   style="fill:#000000;stroke:none" />
        <path
   d="m 10825,14900 -13,25 -17,58 -16,59 -7,25 23,-35 5,-21 12,-45 11,-44 z"
   id="path167"
   inkscape:connector-curvature="0"
   style="fill:#000000;stroke:none" />
        <path
   d="m 10853,14892 -5,10 -5,23 -3,25 v 11 l 13,-16 v -7 l 3,-18 v -18 z"
   id="path169"
   inkscape:connector-curvature="0"
   style="fill:#000000;stroke:none" />
        <path
   d="m 10204,14475 h -15 l -41,5 -58,10 -66,13 -69,13 -58,12 -41,8 -15,3 7,20 16,-3 40,-10 56,-13 66,-12 67,-15 55,-16 41,-10 z"
   id="path171"
   inkscape:connector-curvature="0"
   style="fill:#000000;stroke:none" />
        <path
   d="m 10212,14498 -15,2 -43,13 -56,18 -67,20 -66,21 -58,20 -41,13 -15,5 15,20 15,-5 39,-15 56,-18 63,-25 64,-23 56,-21 38,-17 z"
   id="path173"
   inkscape:connector-curvature="0"
   style="fill:#000000;stroke:none" />
        <path
   d="m 10225,14521 -18,5 -41,15 -56,26 -63,30 -66,33 -56,26 -38,20 -16,7 3,18 15,-7 41,-21 56,-25 63,-33 66,-33 56,-28 39,-23 z"
   id="path175"
   inkscape:connector-curvature="0"
   style="fill:#000000;stroke:none" />
        <path
   d="m 10227,14546 -15,5 -38,21 -53,30 -62,38 -61,36 -53,33 -38,23 -15,10 5,20 15,-7 36,-26 53,-33 61,-38 61,-38 53,-36 36,-25 z"
   id="path177"
   inkscape:connector-curvature="0"
   style="fill:#000000;stroke:none" />
        <path
   d="m 10166,14620 -10,5 -28,20 -41,33 -45,39 -46,38 -41,33 -28,23 -10,10 10,15 10,-8 28,-25 36,-33 46,-38 43,-38 38,-36 28,-25 z"
   id="path179"
   inkscape:connector-curvature="0"
   style="fill:#000000;stroke:none" />
        <path
   d="m 10199,14452 -17,5 -41,5 -59,3 -68,5 -66,2 -59,3 -43,3 h -15 l -13,-18 h 15 l 43,-3 61,-5 72,-2 71,-3 h 61 43 z"
   id="path181"
   inkscape:connector-curvature="0"
   style="fill:#000000;stroke:none" />
        <path
   d="m 10202,14429 -18,3 h -43 l -61,-3 -71,-5 -69,-2 -64,-5 -43,-3 -15,-3 -3,-20 h 18 l 43,5 61,5 72,5 71,5 61,8 43,5 z"
   id="path183"
   inkscape:connector-curvature="0"
   style="fill:#000000;stroke:none" />
        <path
   d="m 10202,14411 h -18 l -46,-7 -63,-13 -71,-15 -74,-15 -64,-13 -43,-10 -18,-5 v -18 l 18,2 43,11 64,15 74,15 73,18 64,15 43,13 z"
   id="path185"
   inkscape:connector-curvature="0"
   style="fill:#000000;stroke:none" />
        <path
   d="m 10199,14394 -17,-3 -46,-13 -64,-20 -74,-25 -73,-26 -64,-23 -46,-17 -18,-6 v -17 l 18,5 46,18 64,22 73,26 74,28 64,23 46,17 z"
   id="path187"
   inkscape:connector-curvature="0"
   style="fill:#000000;stroke:none" />
        <path
   d="m 10194,14371 h -5 l -15,-5 -23,-8 -28,-13 -33,-12 -36,-18 -38,-18 -40,-18 -41,-18 -38,-20 -38,-15 -34,-15 -25,-16 -23,-10 -13,-5 -5,-2 -7,-21 5,3 15,5 20,10 28,15 36,16 36,17 40,18 41,18 43,20 38,21 39,17 33,16 28,15 22,10 13,8 z"
   id="path189"
   inkscape:connector-curvature="0"
   style="fill:#000000;stroke:none" />
        <path
   d="m 10706,13872 38,-5 h 40 l 44,3 40,2 38,6 31,2 23,5 13,3 10,2 18,5 25,5 25,8 26,5 25,8 23,5 15,5 13,10 15,13 13,13 15,12 13,13 8,13 7,10 v 10 13 l 8,7 13,5 12,8 8,8 3,7 v 10 l 2,11 3,12 -3,11 3,10 10,10 -10,-3 h -16 l -12,-2 h -13 -13 -12 l -8,2 -8,5 v -12 l -5,-8 -10,-8 -10,-5 -8,-7 v -5 l 5,-11 3,-10 -3,-7 -7,-3 -10,-2 -11,-11 -7,-20 -5,-18 -5,-15 -13,-5 h -10 l -13,-3 -15,-5 -16,-7 -12,-8 -16,-10 -10,-8 -7,-7 -18,-13 -20,-8 -18,3 -8,13 3,15 2,13 5,10 8,12 2,11 -5,5 -10,-3 -10,-13 -5,-17 -8,-21 -7,-18 -16,-10 -10,-2 -13,-3 h -12 l -13,3 -13,2 -7,8 -3,10 v 13 l 10,35 16,44 7,43 -5,35 -15,33 -10,41 -8,48 3,49 12,53 16,59 12,53 8,43 v 33 l 2,28 6,26 12,23 13,25 3,31 v 30 28 l 5,20 10,16 10,10 10,5 h -10 l -13,-3 -12,-7 -13,-8 -10,-10 -11,-13 -5,-13 -2,-15 2,-28 3,-23 v -23 l -5,-22 -13,-26 -20,-25 -18,-28 -10,-28 -5,-36 -8,-51 -13,-53 -10,-48 -10,-41 -5,-43 2,-38 6,-36 10,-41 10,-50 5,-51 -8,-41 -7,-15 -8,-16 -8,-15 -10,-15 -10,-10 -13,-10 -10,-8 z"
   id="path191"
   inkscape:connector-curvature="0"
   style="fill:#000000;stroke:none" />
        <path
   d="m 11268,14620 15,-23 15,-25 15,-28 11,-21 5,-15 2,-13 5,-12 3,-13 -5,-13 -5,-15 -5,-15 v -13 l 2,-13 5,-15 v -15 l -2,-15 -10,-16 -11,-15 -10,-13 -2,-7 -16,7 -15,8 -18,2 h -10 l -2,16 2,15 8,13 7,10 11,13 7,12 3,16 -3,12 -5,21 -5,33 -3,33 3,23 5,17 5,23 v 23 z"
   id="path193"
   inkscape:connector-curvature="0"
   style="fill:#000000;stroke:none" />
        <path
   d="m 10515,13928 -18,11 -15,12 -18,18 -15,15 -16,18 -12,18 -11,15 -7,13 -5,18 -10,28 -11,33 -12,38 -16,38 -12,36 -16,28 -15,20 v 13 10 l 5,5 13,-8 13,-15 15,-15 13,-5 10,5 5,12 5,18 v 23 26 86 l 10,102 18,96 28,64 15,20 18,23 15,23 18,23 13,23 13,25 7,23 8,23 13,71 12,112 3,135 -21,142 -15,66 -15,59 -15,53 -10,43 -11,38 -10,31 -7,20 -6,15 -10,26 -12,23 -8,25 -3,18 -2,18 -5,23 -5,23 v 17 l 25,-58 33,-74 36,-81 35,-87 33,-84 31,-76 23,-63 13,-44 10,-40 10,-54 10,-63 5,-69 v -69 l -7,-66 -16,-61 -28,-50 -33,-46 -28,-43 -25,-46 -18,-43 -18,-46 -10,-41 -8,-43 -2,-41 -5,-63 5,-74 8,-81 10,-82 10,-79 5,-66 v -51 z"
   id="path195"
   inkscape:connector-curvature="0"
   style="fill:#000000;stroke:none" />
        <path
   d="m 10403,14048 7,-13 11,-15 12,-18 16,-18 15,-15 18,-18 15,-12 18,-11 -10,-17 -13,-16 -15,-17 -18,-18 -18,-16 -20,-15 -18,-10 -18,-10 -38,-18 -48,-20 -56,-23 -54,-23 -53,-20 -43,-21 -34,-12 -15,-11 28,26 36,25 40,31 44,30 43,31 43,28 36,28 30,23 28,35 18,43 10,46 z"
   id="path197"
   inkscape:connector-curvature="0"
   style="fill:#000000;stroke:none" />
        <path
   d="m 11237,14167 23,5 20,13 13,18 5,23 -5,23 -13,20 -20,13 -23,5 -23,-5 -18,-13 -12,-20 -5,-23 5,-23 12,-18 18,-13 23,-5 v -15 l -28,5 -23,15 -18,26 -5,28 5,28 18,25 23,18 28,5 15,-2 13,-3 15,-8 11,-10 10,-10 7,-15 3,-13 2,-15 -2,-15 -3,-13 -7,-13 -10,-13 -11,-7 -15,-8 -13,-2 -15,-3 z"
   id="path199"
   inkscape:connector-curvature="0"
   style="fill:#000000;stroke:none" />
        <path
   d="m 11240,14498 h -11 l -15,-3 -18,-2 -22,-3 -26,-5 -23,-7 -25,-11 -26,-15 -30,-35 -21,-34 -10,-35 -2,-33 5,-33 13,-31 12,-30 18,-26 8,-2 5,2 v 8 l -8,10 -15,23 -13,25 -10,28 -3,31 v 30 l 11,31 17,30 28,31 23,13 23,10 23,5 23,5 18,3 18,2 12,3 h 10 l 13,2 5,5 -2,5 z"
   id="path201"
   inkscape:connector-curvature="0"
   style="fill:#000000;stroke:none" />
        <path
   d="m 11364,14361 h -12 l -13,2 -10,8 -10,5 -13,7 -13,8 -15,3 h -15 l -13,-3 -15,-8 -16,-10 -15,-12 -15,-16 -13,-15 -10,-18 -8,-15 -5,-3 h -2 l -3,6 5,10 8,15 10,18 13,15 15,15 15,13 15,10 16,8 12,2 h 16 l 15,-2 13,-8 12,-7 11,-6 10,-7 12,-3 h 13 l 10,-2 5,-3 -2,-2 z"
   id="path203"
   inkscape:connector-curvature="0"
   style="fill:#000000;stroke:none" />
        <path
   d="m 11441,14137 h -8 l -10,5 -10,8 -11,10 -5,18 v 22 l -2,23 -5,18 -10,18 -13,20 -8,21 3,22 5,13 5,5 5,-2 -3,-10 -2,-23 8,-21 12,-20 10,-18 6,-18 2,-22 v -23 l 5,-18 10,-10 11,-8 10,-5 h 7 l 8,-3 h -3 l -7,-2 z"
   id="path205"
   inkscape:connector-curvature="0"
   style="fill:#000000;stroke:none" />
        <path
   d="m 10527,14211 13,-13 18,-15 18,-16 20,-17 23,-18 25,-18 28,-15 34,-13 33,-10 35,-8 38,-2 41,2 43,8 46,13 48,22 51,28 13,8 3,10 -3,5 -13,-2 -51,-28 -48,-23 -46,-13 -43,-7 -41,-3 -38,3 -35,7 -33,10 -34,13 -28,15 -25,18 -23,18 -20,18 -18,15 -18,15 -13,13 -7,8 -5,-3 v -10 z"
   id="path207"
   inkscape:connector-curvature="0"
   style="fill:#000000;stroke:none" />
        <path
   d="m 11090,14528 v 3 h -3 -2 l -6,-3 -33,-30 -15,-31 3,-20 17,-3 3,3 v 3 h -3 -2 l -5,-3 h -3 l -2,8 -3,7 5,16 10,17 16,16 z"
   id="path209"
   inkscape:connector-curvature="0"
   style="fill:#000000;stroke:none" />
        <path
   d="m 11085,14554 -23,-10 -18,-11 -15,-15 -8,-12 -5,-13 -5,-15 -3,-11 v -10 -18 l 3,-12 7,-8 11,-2 h 5 l 2,2 v 0 l -2,3 -11,2 -7,8 -3,12 v 16 l 3,20 10,23 18,23 38,20 5,3 v 2 3 z"
   id="path211"
   inkscape:connector-curvature="0"
   style="fill:#000000;stroke:none" />
        <path
   d="m 10245,14554 3,-15 v -18 l -8,-18 -8,-13 -7,-12 -5,-13 v -15 l 2,-13 5,-15 v -18 l -5,-18 -7,-15 -3,-3 -2,-2 -3,2 v 3 l 8,15 5,18 v 18 l -5,15 -3,13 v 15 l 5,13 8,12 7,13 8,18 v 18 l -2,15 v 5 h 2 l 3,-3 z"
   id="path213"
   inkscape:connector-curvature="0"
   style="fill:#000000;stroke:none" />
        <path
   d="m 11247,14267 16,-3 12,-10 10,-13 3,-15 -3,-15 -10,-13 -12,-8 -16,-2 -15,2 -10,8 -10,13 -3,15 3,15 10,13 10,10 z"
   id="path215"
   inkscape:connector-curvature="0"
   style="fill:#000000;stroke:none" />
        <path
   d="m 11237,14167 -23,5 -18,13 -12,18 -5,23 5,23 12,20 18,13 23,5 23,-5 20,-13 13,-20 5,-23 -5,-23 -13,-18 -20,-13 -23,-5 v 11 l 20,5 16,10 10,15 5,18 -5,20 -10,15 -16,11 -20,5 -18,-5 -15,-11 -10,-15 -5,-20 5,-18 10,-15 15,-10 18,-5 z"
   id="path217"
   inkscape:connector-curvature="0"
   style="fill:#ffffff;stroke:none" />
       </g>
      </g>
     </g>
    </g>
   </g>
  </g>
 </g>
</svg>