<?xml version="1.0" encoding="UTF-8" standalone="no"?>
<svg
   xmlns:ooo="http://xml.openoffice.org/svg/export"
   xmlns:dc="http://purl.org/dc/elements/1.1/"
   xmlns:cc="http://creativecommons.org/ns#"
   xmlns:rdf="http://www.w3.org/1999/02/22-rdf-syntax-ns#"
   xmlns:svg="http://www.w3.org/2000/svg"
   xmlns="http://www.w3.org/2000/svg"
   xmlns:sodipodi="http://sodipodi.sourceforge.net/DTD/sodipodi-0.dtd"
   xmlns:inkscape="http://www.inkscape.org/namespaces/inkscape"
   version="1.2"
   width="28.27mm"
   height="29.459999mm"
   viewBox="0 0 2827 2945.9999"
   preserveAspectRatio="xMidYMid"
   xml:space="preserve"
   id="svg121"
   sodipodi:docname="arch_urn.svg"
   style="fill-rule:evenodd;stroke-width:28.22200012;stroke-linejoin:round"
   inkscape:version="0.92.5 (2060ec1f9f, 2020-04-08)"><metadata
   id="metadata125"><rdf:RDF><cc:Work
       rdf:about=""><dc:format>image/svg+xml</dc:format><dc:type
         rdf:resource="http://purl.org/dc/dcmitype/StillImage" /></cc:Work></rdf:RDF></metadata><sodipodi:namedview
   pagecolor="#ffffff"
   bordercolor="#666666"
   borderopacity="1"
   objecttolerance="10"
   gridtolerance="10"
   guidetolerance="10"
   inkscape:pageopacity="0"
   inkscape:pageshadow="2"
   inkscape:window-width="664"
   inkscape:window-height="487"
   id="namedview123"
   showgrid="false"
   inkscape:zoom="0.2102413"
   inkscape:cx="53.442521"
   inkscape:cy="55.672439"
   inkscape:window-x="0"
   inkscape:window-y="0"
   inkscape:window-maximized="0"
   inkscape:current-layer="svg121" />
 <defs
   class="ClipPathGroup"
   id="defs8">
  <clipPath
   id="presentation_clip_path"
   clipPathUnits="userSpaceOnUse">
   <rect
   x="0"
   y="0"
   width="21000"
   height="29700"
   id="rect2" />
  </clipPath>
  <clipPath
   id="presentation_clip_path_shrink"
   clipPathUnits="userSpaceOnUse">
   <rect
   x="21"
   y="29"
   width="20958"
   height="29641"
   id="rect5" />
  </clipPath>
 </defs>
 <defs
   class="TextShapeIndex"
   id="defs12">
  <g
   ooo:slide="id1"
   ooo:id-list="id3"
   id="g10" />
 </defs>
 <defs
   class="EmbeddedBulletChars"
   id="defs44">
  <g
   id="bullet-char-template-57356"
   transform="matrix(4.8828125e-4,0,0,-4.8828125e-4,0,0)">
   <path
   d="M 580,1141 1163,571 580,0 -4,571 Z"
   id="path14"
   inkscape:connector-curvature="0" />
  </g>
  <g
   id="bullet-char-template-57354"
   transform="matrix(4.8828125e-4,0,0,-4.8828125e-4,0,0)">
   <path
   d="M 8,1128 H 1137 V 0 H 8 Z"
   id="path17"
   inkscape:connector-curvature="0" />
  </g>
  <g
   id="bullet-char-template-10146"
   transform="matrix(4.8828125e-4,0,0,-4.8828125e-4,0,0)">
   <path
   d="M 174,0 602,739 174,1481 1456,739 Z M 1358,739 309,1346 659,739 Z"
   id="path20"
   inkscape:connector-curvature="0" />
  </g>
  <g
   id="bullet-char-template-10132"
   transform="matrix(4.8828125e-4,0,0,-4.8828125e-4,0,0)">
   <path
   d="M 2015,739 1276,0 H 717 l 543,543 H 174 v 393 h 1086 l -543,545 h 557 z"
   id="path23"
   inkscape:connector-curvature="0" />
  </g>
  <g
   id="bullet-char-template-10007"
   transform="matrix(4.8828125e-4,0,0,-4.8828125e-4,0,0)">
   <path
   d="m 0,-2 c -7,16 -16,29 -25,39 l 381,530 c -94,256 -141,385 -141,387 0,25 13,38 40,38 9,0 21,-2 34,-5 21,4 42,12 65,25 l 27,-13 111,-251 280,301 64,-25 24,25 c 21,-10 41,-24 62,-43 C 886,937 835,863 770,784 769,783 710,716 594,584 L 774,223 c 0,-27 -21,-55 -63,-84 l 16,-20 C 717,90 699,76 672,76 641,76 570,178 457,381 L 164,-76 c -22,-34 -53,-51 -92,-51 -42,0 -63,17 -64,51 -7,9 -10,24 -10,44 0,9 1,19 2,30 z"
   id="path26"
   inkscape:connector-curvature="0" />
  </g>
  <g
   id="bullet-char-template-10004"
   transform="matrix(4.8828125e-4,0,0,-4.8828125e-4,0,0)">
   <path
   d="M 285,-33 C 182,-33 111,30 74,156 52,228 41,333 41,471 c 0,78 14,145 41,201 34,71 87,106 158,106 53,0 88,-31 106,-94 l 23,-176 c 8,-64 28,-97 59,-98 l 735,706 c 11,11 33,17 66,17 42,0 63,-15 63,-46 V 965 c 0,-36 -10,-64 -30,-84 L 442,47 C 390,-6 338,-33 285,-33 Z"
   id="path29"
   inkscape:connector-curvature="0" />
  </g>
  <g
   id="bullet-char-template-9679"
   transform="matrix(4.8828125e-4,0,0,-4.8828125e-4,0,0)">
   <path
   d="M 813,0 C 632,0 489,54 383,161 276,268 223,411 223,592 c 0,181 53,324 160,431 106,107 249,161 430,161 179,0 323,-54 432,-161 108,-107 162,-251 162,-431 0,-180 -54,-324 -162,-431 C 1136,54 992,0 813,0 Z"
   id="path32"
   inkscape:connector-curvature="0" />
  </g>
  <g
   id="bullet-char-template-8226"
   transform="matrix(4.8828125e-4,0,0,-4.8828125e-4,0,0)">
   <path
   d="m 346,457 c -73,0 -137,26 -191,78 -54,51 -81,114 -81,188 0,73 27,136 81,188 54,52 118,78 191,78 73,0 134,-26 185,-79 51,-51 77,-114 77,-187 0,-75 -25,-137 -76,-188 -50,-52 -112,-78 -186,-78 z"
   id="path35"
   inkscape:connector-curvature="0" />
  </g>
  <g
   id="bullet-char-template-8211"
   transform="matrix(4.8828125e-4,0,0,-4.8828125e-4,0,0)">
   <path
   d="M -4,459 H 1135 V 606 H -4 Z"
   id="path38"
   inkscape:connector-curvature="0" />
  </g>
  <g
   id="bullet-char-template-61548"
   transform="matrix(4.8828125e-4,0,0,-4.8828125e-4,0,0)">
   <path
   d="m 173,740 c 0,163 58,303 173,419 116,115 255,173 419,173 163,0 302,-58 418,-173 116,-116 174,-256 174,-419 0,-163 -58,-303 -174,-418 C 1067,206 928,148 765,148 601,148 462,206 346,322 231,437 173,577 173,740 Z"
   id="path41"
   inkscape:connector-curvature="0" />
  </g>
 </defs>
 <g
   id="g49"
   transform="translate(-9086,-13377)">
  <g
   id="id2"
   class="Master_Slide">
   <g
   id="bg-id2"
   class="Background" />
   <g
   id="bo-id2"
   class="BackgroundObjects" />
  </g>
 </g>
 <g
   class="SlideGroup"
   id="g119"
   transform="translate(-9086,-13377)">
  <g
   id="g117">
   <g
   id="container-id1">
    <g
   id="id1"
   class="Slide"
   clip-path="url(#presentation_clip_path)">
     <g
   class="Page"
   id="g113">
      <g
   class="Graphic"
   id="g111">
       <g
   id="id3">
        <rect
   class="BoundingBox"
   x="9086"
   y="13377"
   width="2827"
   height="2946"
   id="rect51"
   style="fill:none;stroke:none" />
        <defs
   id="defs56">
         <clipPath
   id="clip_path_1"
   clipPathUnits="userSpaceOnUse">
          <path
   d="m 9086,13377 h 2826 v 2945 H 9086 Z"
   id="path53"
   inkscape:connector-curvature="0" />
         </clipPath>
        </defs>
        <g
   clip-path="url(#clip_path_1)"
   id="g108">
         <path
   d="m 11542,13415 292,176 -30,30 -28,31 -31,30 -28,31 -28,33 -28,33 -25,33 -26,33 -25,35 -25,36 -26,35 -23,36 -23,36 -22,38 -21,38 -20,38 20,-23 23,-18 26,-17 27,-13 28,-10 31,-8 30,-5 31,-3 -3,143 -28,2 -25,5 -23,13 -18,15 -17,21 -13,23 -10,22 -3,28 3,28 7,26 13,23 15,17 21,18 23,13 22,10 28,3 28,-3 26,-5 23,-13 17,-15 18,-20 13,-23 8,-23 2,-28 -2,-28 -6,-25 -12,-23 -16,-21 -20,-15 -23,-13 -23,-10 -28,-2 3,-143 56,8 51,18 46,25 40,36 33,41 23,48 15,51 5,56 -5,55 -15,54 -23,48 -30,46 -36,43 -41,43 -45,44 -51,43 -54,46 -53,48 -56,53 -58,59 -56,61 -54,71 -53,76 -51,87 -30,-186 25,-48 41,-56 51,-61 58,-64 59,-61 55,-56 54,-45 41,-36 -46,-13 -43,-23 -39,-28 -33,-33 -28,-40 -17,-44 -13,-48 -3,-48 v -5 -5 -5 -5 l -38,96 -33,89 -25,84 -23,81 -18,84 -13,89 -7,94 -5,107 30,186 -20,33 -23,30 -28,31 -28,28 -33,25 -36,25 -35,23 -38,23 -41,20 -41,18 -40,15 -39,16 -40,12 -38,11 -38,7 -36,5 38,16 36,15 30,20 31,20 30,23 26,23 25,26 23,28 -23,2 -25,5 -23,8 -23,13 -21,15 -15,20 -12,23 -8,28 15,8 13,12 7,11 3,5 -3,5 -7,7 -13,13 -23,8 13,38 15,40 23,41 28,41 36,38 40,38 49,33 53,28 66,3 18,147 H 9953 l 13,-147 68,-6 54,-30 45,-33 41,-38 33,-41 28,-41 20,-40 18,-41 10,-38 -22,-8 -13,-10 -8,-10 -2,-5 2,-5 8,-10 10,-10 15,-11 -7,-28 -13,-22 -15,-21 -21,-15 -25,-10 -23,-8 -25,-5 -23,-2 23,-28 22,-26 28,-23 28,-23 31,-22 30,-21 36,-18 38,-15 -35,-5 -39,-8 -38,-7 -40,-13 -41,-13 -41,-15 -40,-18 -39,-17 -38,-21 -38,-23 -35,-23 -33,-27 -31,-26 -28,-30 -25,-31 -21,-30 26,-189 -8,-106 -10,-94 -15,-89 -18,-82 -26,-81 -28,-84 -35,-89 -41,-94 3,5 v 5 5 5 l -3,49 -10,48 -18,43 -25,41 -33,33 -36,31 -43,20 -46,15 41,36 53,45 59,54 58,58 59,61 53,61 41,56 28,48 -26,189 -53,-84 -53,-77 -56,-68 -59,-64 -58,-56 -56,-50 -56,-49 -54,-43 -50,-43 -49,-41 -43,-43 -36,-43 -30,-44 -25,-48 -16,-53 -7,-56 2,-56 13,-53 23,-49 33,-40 38,-36 46,-28 51,-18 55,-7 8,139 -28,6 -23,7 -23,15 -20,16 -15,20 -10,23 -8,25 v 28 l 3,28 10,23 12,23 18,18 21,15 22,13 26,5 25,2 28,-2 23,-10 23,-13 20,-18 16,-20 10,-23 7,-25 v -28 l -5,-33 -12,-28 -21,-26 -25,-20 -15,-8 -21,-7 -18,-3 -20,-3 -8,-139 h 34 l 30,2 31,8 28,10 27,13 23,18 26,17 20,21 -20,-38 -23,-39 -23,-35 -23,-36 -25,-35 -26,-36 -25,-36 -26,-33 -28,-33 -25,-33 -28,-33 -28,-30 -30,-31 -28,-30 -31,-31 -30,-28 264,-170 20,-13 49,-5 53,-2 56,-3 61,-5 61,-2 64,-3 68,-3 69,-2 71,-3 h 71 l 74,-2 76,-3 h 74 l 76,-2 h 76 77 76 76 77 73 71 l 74,2 h 69 l 68,3 67,2 h 61 l 61,3 58,2 53,3 51,3 49,5 z"
   id="path58"
   inkscape:connector-curvature="0"
   style="fill:#000000;stroke:none" />
         <path
   d="m 9284,13598 -12,3 h -13 -15 l -13,2 239,-152 46,-3 h 48 l 56,-2 63,-3 h 67 l 71,-2 76,-3 h 81 l 84,-3 h 89 92 96 99 102 104 l 107,3 -13,15 -12,16 -10,15 -11,15 -7,15 -10,16 -8,12 -8,13 h -101 l -99,2 h -102 l -99,3 -99,3 -100,2 -94,3 -94,2 -89,3 -86,2 -84,5 -79,3 -74,5 -68,3 -64,5 z"
   id="path60"
   inkscape:connector-curvature="0"
   style="fill:#ffffff;stroke:none" />
         <path
   d="m 9912,14981 -20,13 -18,15 -15,18 -10,17 5,16 5,17 7,18 8,18 20,38 23,36 26,35 33,33 33,28 38,23 43,13 46,5 -25,-23 -26,-30 -20,-38 -15,-46 -16,-51 -7,-56 -5,-58 -3,-61 -13,-3 h -12 l -13,3 -15,2 -13,3 -15,5 -13,5 z"
   id="path62"
   inkscape:connector-curvature="0"
   style="fill:#ffffff;stroke:none" />
         <path
   d="m 10624,15548 28,7 28,13 28,15 28,18 23,18 23,18 17,17 16,16 -10,2 -16,3 h -15 l -15,2 h -15 -13 l -13,-2 -7,-3 -8,-18 -10,-17 -10,-18 -11,-18 -12,-15 -13,-15 -10,-13 z"
   id="path64"
   inkscape:connector-curvature="0"
   style="fill:#ffffff;stroke:none" />
         <path
   d="m 10805,16173 h 12 21 23 27 28 23 21 l 12,3 11,7 7,13 3,15 2,10 h -15 -23 -28 l -30,-2 h -28 -26 -23 -12 z"
   id="path66"
   inkscape:connector-curvature="0"
   style="fill:#ffffff;stroke:none" />
         <path
   d="m 10685,15804 h -23 -23 -25 l -28,-2 h -28 -31 -30 -28 -31 -27 -28 -28 l -23,-3 h -23 -21 -15 l -15,11 -10,10 -8,10 -2,5 2,5 8,10 13,10 22,8 h 31 43 54 l 55,3 h 59 l 53,2 h 49 33 l 17,-13 13,-17 3,-21 z"
   id="path68"
   inkscape:connector-curvature="0"
   style="fill:#ffffff;stroke:none" />
         <path
   d="m 10164,15151 -10,-40 -5,-39 -8,-35 -3,-31 13,-17 15,-16 18,-10 18,-8 18,-7 h 23 20 l 20,2 -5,49 -2,61 5,66 13,68 17,67 28,58 36,43 43,26 -38,-8 -38,-18 -38,-23 -38,-33 -36,-33 -28,-40 -23,-41 z"
   id="path70"
   inkscape:connector-curvature="0"
   style="fill:#ffffff;stroke:none" />
         <path
   d="m 10375,15200 -3,-54 v -51 -48 l 3,-38 18,-20 23,-16 22,-10 28,-10 26,-5 h 30 l 28,2 28,5 5,51 -2,59 -8,61 -12,61 -16,61 -18,58 -22,51 -23,43 -18,-15 -20,-20 -18,-26 -15,-25 -13,-28 -10,-28 -8,-31 z"
   id="path72"
   inkscape:connector-curvature="0"
   style="fill:#ffffff;stroke:none" />
         <path
   d="m 10655,15121 2,-33 3,-31 v -30 l -3,-26 13,-15 18,-10 17,-10 16,-8 7,-3 10,-2 11,-3 10,-2 10,51 v 56 l -8,63 -15,64 -25,63 -31,59 -41,53 -48,46 23,-74 15,-84 10,-76 z"
   id="path74"
   inkscape:connector-curvature="0"
   style="fill:#ffffff;stroke:none" />
         <path
   d="m 11458,13801 -79,112 -69,110 -61,109 -53,109 -46,110 -38,109 -33,112 -25,114 -77,114 21,-144 25,-138 36,-132 38,-127 43,-119 48,-110 51,-104 54,-97 z"
   id="path76"
   inkscape:connector-curvature="0"
   style="fill:#c91616;stroke:none" />
         <path
   d="m 11178,13616 -12,23 -13,25 -15,28 -16,31 -12,30 -16,31 -15,28 -13,28 -43,-3 h -63 -84 -97 -109 -120 -127 -129 -130 l -130,3 h -124 l -120,2 -107,3 h -96 l -82,2 -61,3 -22,-26 -26,-28 -25,-28 -28,-30 -31,-28 -28,-31 -30,-27 -28,-31 h 33 l 38,-3 h 41 l 45,-2 h 51 l 51,-3 h 56 l 59,-2 h 61 l 63,-3 64,-2 h 68 l 66,-3 h 72 l 71,-2 h 71 71 l 71,-3 h 74 71 71 72 71 68 l 67,3 h 66 l 63,2 h 61 l 59,3 56,2 50,5 z"
   id="path78"
   inkscape:connector-curvature="0"
   style="fill:#c91616;stroke:none" />
         <path
   d="m 9849,15044 5,16 5,17 7,18 8,18 -13,-10 -20,-18 -25,-23 -28,-30 -36,-36 -38,-38 -41,-43 -43,-43 -43,-44 -46,-45 -46,-44 -45,-43 -46,-38 -43,-35 -44,-31 -38,-25 104,2 84,-20 66,-41 49,-56 28,-63 12,-72 -2,-68 -20,-66 15,25 13,28 7,31 5,30 3,5 v 5 5 5 l -3,49 -10,48 -18,43 -25,41 -33,33 -36,31 -43,20 -46,15 41,36 53,45 59,54 58,58 59,61 53,61 41,56 28,48 z"
   id="path80"
   inkscape:connector-curvature="0"
   style="fill:#c91616;stroke:none" />
         <path
   d="m 10283,14950 -20,-2 h -20 -23 l -18,7 -18,8 -18,10 -15,16 -13,17 -12,-7 -13,-8 -15,-8 -18,-7 -15,-5 -15,-5 -16,-3 -15,-2 -13,-3 h -12 l -13,3 -15,2 -13,3 -15,5 -13,5 -13,5 -5,-94 -10,-97 -18,-91 -25,-92 -28,-89 -31,-86 -35,-84 -38,-79 -39,-74 -38,-68 -40,-64 -39,-58 -35,-51 -33,-43 -28,-33 -26,-28 61,-3 82,-2 h 96 l 107,-3 120,-2 h 124 l 130,-3 h 130 129 127 120 109 97 84 63 l 43,3 -45,111 -51,133 -54,145 -50,155 -49,155 -40,152 -33,142 -23,125 -16,8 -17,10 -18,10 -13,15 -8,-7 -10,-8 -7,-8 -10,-5 -11,-5 -10,-5 -13,-5 -10,-3 -28,-5 -28,-2 h -30 l -26,5 -28,10 -22,10 -23,16 -18,20 -10,-10 -10,-10 -11,-11 -10,-7 -12,-8 -13,-5 -13,-5 z"
   id="path82"
   inkscape:connector-curvature="0"
   style="fill:#d85959;stroke:none" />
         <path
   d="m 10283,15868 -10,38 -18,41 -20,40 -28,41 -33,41 -41,38 -45,33 -54,30 h 21 30 38 46 53 56 59 61 l 58,3 h 59 56 48 46 35 28 16 l -13,-20 -15,-33 -13,-38 -13,-44 -10,-45 -10,-44 -5,-40 -5,-36 h -33 -49 l -53,-2 h -59 l -55,-3 h -54 -43 z"
   id="path84"
   inkscape:connector-curvature="0"
   style="fill:#d85959;stroke:none" />
         <path
   d="m 11463,14145 28,-26 28,-18 30,-15 34,-7 35,-6 h 33 l 36,8 33,10 30,16 31,17 25,23 26,28 17,31 18,35 10,38 5,44 -2,43 -10,46 -18,40 -23,41 -28,35 -30,34 -33,30 -33,25 40,-50 33,-46 26,-38 17,-38 13,-33 8,-34 2,-30 v -33 l -12,-59 -26,-50 -38,-44 -46,-33 -53,-17 -51,-5 -51,10 -46,28 -12,-3 -13,-2 h -15 z"
   id="path86"
   inkscape:connector-curvature="0"
   style="fill:#d85959;stroke:none" />
         <path
   d="m 9437,14216 -15,-8 -21,-7 -18,-3 -20,-3 -28,6 -23,7 -23,15 -20,16 -15,20 -10,23 -8,25 v 28 l 3,28 10,23 12,23 18,18 21,15 22,13 26,5 25,2 -33,3 -30,-3 -28,-10 -23,-13 -23,-20 -15,-23 -13,-30 -5,-36 5,-38 15,-36 26,-33 33,-22 35,-16 41,-5 41,10 z"
   id="path88"
   inkscape:connector-curvature="0"
   style="fill:#d85959;stroke:none" />
         <path
   d="m 10019,14961 3,61 5,58 7,56 16,51 15,46 20,38 26,30 25,23 h 10 10 l 10,-2 11,-3 10,-3 10,-2 13,-3 10,-5 -15,-25 -16,-38 -12,-43 -13,-49 -10,-40 -5,-39 -8,-35 -3,-31 -12,-7 -13,-8 -15,-8 -18,-7 -15,-5 -15,-5 -16,-3 z"
   id="path90"
   inkscape:connector-curvature="0"
   style="fill:#b20000;stroke:none" />
         <path
   d="m 10764,15807 8,-28 12,-23 15,-20 21,-15 23,-13 23,-8 25,-5 23,-2 -41,2 -46,3 h -48 l -51,2 h -51 -53 -56 -53 l -56,-2 h -54 l -53,-3 h -51 l -48,-2 -48,-3 h -44 l -40,-2 23,2 25,5 23,8 25,10 21,15 15,21 13,22 7,28 h 15 21 23 l 23,3 h 28 28 27 31 28 30 31 28 l 28,2 h 25 23 23 10 10 11 10 10 8 l 10,3 z"
   id="path92"
   inkscape:connector-curvature="0"
   style="fill:#b20000;stroke:none" />
         <path
   d="m 10375,15200 5,53 10,51 13,45 15,39 -43,-26 -36,-43 -28,-58 -17,-67 -13,-68 -5,-66 2,-61 5,-49 13,3 13,5 13,5 12,8 10,7 11,11 10,10 10,10 -3,38 v 48 51 z"
   id="path94"
   inkscape:connector-curvature="0"
   style="fill:#b20000;stroke:none" />
         <path
   d="m 10482,15400 23,-43 22,-51 18,-58 16,-61 12,-61 8,-61 2,-59 -5,-51 10,3 13,5 10,5 11,5 10,5 7,8 10,8 8,7 3,26 v 30 l -3,31 -2,33 -8,40 -10,44 -10,40 -18,41 -18,38 -25,36 -26,33 -33,25 -7,-5 -8,-5 -8,-5 z"
   id="path96"
   inkscape:connector-curvature="0"
   style="fill:#b20000;stroke:none" />
         <path
   d="m 10601,15403 48,-46 41,-53 31,-59 25,-63 15,-64 8,-63 v -56 l -10,-51 h 18 20 l 18,2 20,5 20,11 18,12 15,16 16,17 25,-20 31,-18 35,-12 38,-8 44,2 40,8 41,20 41,31 -13,28 -15,28 -18,25 -18,28 -18,26 -23,25 -22,26 -26,22 -28,23 -30,23 -31,20 -35,18 -36,18 -41,13 -43,15 -46,10 18,-20 18,-23 20,-28 21,-33 17,-38 16,-41 10,-46 7,-48 -33,64 -30,53 -31,48 -30,38 -33,34 -38,30 -41,25 z"
   id="path98"
   inkscape:connector-curvature="0"
   style="fill:#b20000;stroke:none" />
         <path
   d="m 9526,13568 v -18 l -3,-31 -5,-28 v -12 h 102 z"
   id="path100"
   inkscape:connector-curvature="0"
   style="fill:#b20000;stroke:none" />
         <path
   d="m 9785,13560 59,-79 68,-2 -53,78 z"
   id="path102"
   inkscape:connector-curvature="0"
   style="fill:#b20000;stroke:none" />
         <path
   d="m 10093,13557 58,-88 87,-3 -56,89 z"
   id="path104"
   inkscape:connector-curvature="0"
   style="fill:#b20000;stroke:none" />
         <path
   d="m 10367,13547 59,-84 86,-2 -56,84 z"
   id="path106"
   inkscape:connector-curvature="0"
   style="fill:#b20000;stroke:none" />
        </g>
       </g>
      </g>
     </g>
    </g>
   </g>
  </g>
 </g>
</svg>