<?xml version="1.0" encoding="UTF-8" standalone="no"?>
<svg
   xmlns:ooo="http://xml.openoffice.org/svg/export"
   xmlns:dc="http://purl.org/dc/elements/1.1/"
   xmlns:cc="http://creativecommons.org/ns#"
   xmlns:rdf="http://www.w3.org/1999/02/22-rdf-syntax-ns#"
   xmlns:svg="http://www.w3.org/2000/svg"
   xmlns="http://www.w3.org/2000/svg"
   xmlns:sodipodi="http://sodipodi.sourceforge.net/DTD/sodipodi-0.dtd"
   xmlns:inkscape="http://www.inkscape.org/namespaces/inkscape"
   version="1.2"
   width="168.78mm"
   height="163.39999mm"
   viewBox="0 0 16878 16339.999"
   preserveAspectRatio="xMidYMid"
   xml:space="preserve"
   id="svg107"
   sodipodi:docname="b.svg"
   style="fill-rule:evenodd;stroke-width:28.22200012;stroke-linejoin:round"
   inkscape:version="0.92.5 (2060ec1f9f, 2020-04-08)"><metadata
   id="metadata111"><rdf:RDF><cc:Work
       rdf:about=""><dc:format>image/svg+xml</dc:format><dc:type
         rdf:resource="http://purl.org/dc/dcmitype/StillImage" /></cc:Work></rdf:RDF></metadata><sodipodi:namedview
   pagecolor="#ffffff"
   bordercolor="#666666"
   borderopacity="1"
   objecttolerance="10"
   gridtolerance="10"
   guidetolerance="10"
   inkscape:pageopacity="0"
   inkscape:pageshadow="2"
   inkscape:window-width="664"
   inkscape:window-height="487"
   id="namedview109"
   showgrid="false"
   inkscape:zoom="0.2102413"
   inkscape:cx="318.95433"
   inkscape:cy="308.7874"
   inkscape:window-x="0"
   inkscape:window-y="0"
   inkscape:window-maximized="0"
   inkscape:current-layer="svg107" />
 <defs
   class="ClipPathGroup"
   id="defs8">
  <clipPath
   id="presentation_clip_path"
   clipPathUnits="userSpaceOnUse">
   <rect
   x="0"
   y="0"
   width="21000"
   height="29700"
   id="rect2" />
  </clipPath>
  <clipPath
   id="presentation_clip_path_shrink"
   clipPathUnits="userSpaceOnUse">
   <rect
   x="21"
   y="29"
   width="20958"
   height="29641"
   id="rect5" />
  </clipPath>
 </defs>
 <defs
   class="TextShapeIndex"
   id="defs12">
  <g
   ooo:slide="id1"
   ooo:id-list="id3"
   id="g10" />
 </defs>
 <defs
   class="EmbeddedBulletChars"
   id="defs44">
  <g
   id="bullet-char-template-57356"
   transform="matrix(4.8828125e-4,0,0,-4.8828125e-4,0,0)">
   <path
   d="M 580,1141 1163,571 580,0 -4,571 Z"
   id="path14"
   inkscape:connector-curvature="0" />
  </g>
  <g
   id="bullet-char-template-57354"
   transform="matrix(4.8828125e-4,0,0,-4.8828125e-4,0,0)">
   <path
   d="M 8,1128 H 1137 V 0 H 8 Z"
   id="path17"
   inkscape:connector-curvature="0" />
  </g>
  <g
   id="bullet-char-template-10146"
   transform="matrix(4.8828125e-4,0,0,-4.8828125e-4,0,0)">
   <path
   d="M 174,0 602,739 174,1481 1456,739 Z M 1358,739 309,1346 659,739 Z"
   id="path20"
   inkscape:connector-curvature="0" />
  </g>
  <g
   id="bullet-char-template-10132"
   transform="matrix(4.8828125e-4,0,0,-4.8828125e-4,0,0)">
   <path
   d="M 2015,739 1276,0 H 717 l 543,543 H 174 v 393 h 1086 l -543,545 h 557 z"
   id="path23"
   inkscape:connector-curvature="0" />
  </g>
  <g
   id="bullet-char-template-10007"
   transform="matrix(4.8828125e-4,0,0,-4.8828125e-4,0,0)">
   <path
   d="m 0,-2 c -7,16 -16,29 -25,39 l 381,530 c -94,256 -141,385 -141,387 0,25 13,38 40,38 9,0 21,-2 34,-5 21,4 42,12 65,25 l 27,-13 111,-251 280,301 64,-25 24,25 c 21,-10 41,-24 62,-43 C 886,937 835,863 770,784 769,783 710,716 594,584 L 774,223 c 0,-27 -21,-55 -63,-84 l 16,-20 C 717,90 699,76 672,76 641,76 570,178 457,381 L 164,-76 c -22,-34 -53,-51 -92,-51 -42,0 -63,17 -64,51 -7,9 -10,24 -10,44 0,9 1,19 2,30 z"
   id="path26"
   inkscape:connector-curvature="0" />
  </g>
  <g
   id="bullet-char-template-10004"
   transform="matrix(4.8828125e-4,0,0,-4.8828125e-4,0,0)">
   <path
   d="M 285,-33 C 182,-33 111,30 74,156 52,228 41,333 41,471 c 0,78 14,145 41,201 34,71 87,106 158,106 53,0 88,-31 106,-94 l 23,-176 c 8,-64 28,-97 59,-98 l 735,706 c 11,11 33,17 66,17 42,0 63,-15 63,-46 V 965 c 0,-36 -10,-64 -30,-84 L 442,47 C 390,-6 338,-33 285,-33 Z"
   id="path29"
   inkscape:connector-curvature="0" />
  </g>
  <g
   id="bullet-char-template-9679"
   transform="matrix(4.8828125e-4,0,0,-4.8828125e-4,0,0)">
   <path
   d="M 813,0 C 632,0 489,54 383,161 276,268 223,411 223,592 c 0,181 53,324 160,431 106,107 249,161 430,161 179,0 323,-54 432,-161 108,-107 162,-251 162,-431 0,-180 -54,-324 -162,-431 C 1136,54 992,0 813,0 Z"
   id="path32"
   inkscape:connector-curvature="0" />
  </g>
  <g
   id="bullet-char-template-8226"
   transform="matrix(4.8828125e-4,0,0,-4.8828125e-4,0,0)">
   <path
   d="m 346,457 c -73,0 -137,26 -191,78 -54,51 -81,114 -81,188 0,73 27,136 81,188 54,52 118,78 191,78 73,0 134,-26 185,-79 51,-51 77,-114 77,-187 0,-75 -25,-137 -76,-188 -50,-52 -112,-78 -186,-78 z"
   id="path35"
   inkscape:connector-curvature="0" />
  </g>
  <g
   id="bullet-char-template-8211"
   transform="matrix(4.8828125e-4,0,0,-4.8828125e-4,0,0)">
   <path
   d="M -4,459 H 1135 V 606 H -4 Z"
   id="path38"
   inkscape:connector-curvature="0" />
  </g>
  <g
   id="bullet-char-template-61548"
   transform="matrix(4.8828125e-4,0,0,-4.8828125e-4,0,0)">
   <path
   d="m 173,740 c 0,163 58,303 173,419 116,115 255,173 419,173 163,0 302,-58 418,-173 116,-116 174,-256 174,-419 0,-163 -58,-303 -174,-418 C 1067,206 928,148 765,148 601,148 462,206 346,322 231,437 173,577 173,740 Z"
   id="path41"
   inkscape:connector-curvature="0" />
  </g>
 </defs>
 <g
   id="g49"
   transform="translate(-2061,-6680)">
  <g
   id="id2"
   class="Master_Slide">
   <g
   id="bg-id2"
   class="Background" />
   <g
   id="bo-id2"
   class="BackgroundObjects" />
  </g>
 </g>
 <g
   class="SlideGroup"
   id="g105"
   transform="translate(-2061,-6680)">
  <g
   id="g103">
   <g
   id="container-id1">
    <g
   id="id1"
   class="Slide"
   clip-path="url(#presentation_clip_path)">
     <g
   class="Page"
   id="g99">
      <g
   class="Graphic"
   id="g97">
       <g
   id="id3">
        <rect
   class="BoundingBox"
   x="2061"
   y="6680"
   width="16878"
   height="16340"
   id="rect51"
   style="fill:none;stroke:none" />
        <defs
   id="defs56">
         <clipPath
   id="clip_path_1"
   clipPathUnits="userSpaceOnUse">
          <path
   d="M 2061,6680 H 18938 V 23019 H 2061 Z"
   id="path53"
   inkscape:connector-curvature="0" />
         </clipPath>
        </defs>
        <g
   clip-path="url(#clip_path_1)"
   id="g94">
         <path
   d="m 9420,13493 -1039,-185 -4521,-2261 -381,-23 -415,84 -414,213 -332,399 -204,404 -40,478 23,12 58,-12 206,-89 607,-333 620,-333 119,-56 94,-35 66,-15 21,2 10,10 978,381 1166,613 571,546 94,411 -414,658 236,760 392,-183 104,-59 660,257 318,-23 2091,623 4984,1430 3399,894 462,-74 -145,-416 -4229,-2091 -3326,-1326 z"
   id="path58"
   inkscape:connector-curvature="0"
   style="fill:#000000;stroke:none" />
         <path
   d="m 18647,17901 7,-8 11,-10 7,-23 v -10 -18 l -5,-17 -2,-23 -5,-13 -3,-10 -5,-15 -3,-16 -7,-15 -8,-15 -7,-18 -6,-20 -15,-13 -23,-18 -35,-22 -43,-31 -56,-28 -66,-38 -77,-38 -81,-46 -94,-43 -101,-51 -107,-53 -117,-59 -124,-56 -133,-63 -137,-64 -139,-68 -153,-66 -155,-71 -160,-71 -162,-77 -171,-76 -172,-76 -178,-79 -178,-81 -186,-79 -182,-84 -188,-81 -188,-84 -191,-84 -190,-84 -191,-83 -190,-87 -194,-81 -193,-81 -190,-82 -188,-83 -191,-79 -185,-81 -183,-79 -180,-82 -181,-73 -172,-76 -173,-72 -165,-73 -163,-64 -157,-68 -153,-66 -142,-64 -142,-58 -130,-56 -129,-54 -120,-53 -114,-46 -104,-45 -97,-41 -86,-41 -82,-30 -68,-31 -56,-25 -48,-23 -41,-15 -28,-13 -15,-7 -5,-6 -2347,-452 -244,1281 z"
   id="path60"
   inkscape:connector-curvature="0"
   style="fill:#d1d1d1;stroke:none" />
         <path
   d="m 8120,8636 15,229 51,246 84,249 114,252 135,236 152,218 168,188 172,153 5,5 h 3 l 305,1748 195,233 -195,2670 4837,7398 731,401 -231,-952 -3422,-7139 71,-2733 310,-135 -101,-1654 251,-307 290,-409 -600,-287 -221,183 -251,160 -214,109 -365,132 -341,13 -371,-74 -259,-152 -223,-165 -145,-254 -125,-285 -23,-358 79,-295 209,-274 348,-346 442,-147 414,30 851,206 195,-10 295,-58 142,-44 112,-48 66,-48 10,-26 -10,-22 -124,-150 -125,-130 -130,-107 -132,-94 -132,-81 -137,-63 -137,-51 -142,-41 -143,-30 -144,-23 -148,-15 -145,-5 -307,-3 -315,5 -165,41 -165,58 -158,71 -155,82 -147,94 -140,106 -129,117 -125,125 -109,132 -102,142 -86,150 -74,157 -58,160 -46,168 -25,173 z"
   id="path62"
   inkscape:connector-curvature="0"
   style="fill:#000000;stroke:none" />
         <path
   d="m 7881,14715 -269,178 -671,-348 -8,5 -12,13 -13,10 -391,236 -219,135 -178,99 79,-470 333,-277 175,-300 v -327 l -124,-402 -656,-536 -1117,-622 -912,-343 -26,-28 -35,-20 -84,-18 -107,7 -124,28 -135,44 -145,56 -294,129 -275,125 -223,86 -77,20 -58,-2 -15,-10 -5,-18 7,-59 64,-117 84,-121 101,-122 115,-120 124,-109 127,-97 127,-76 120,-51 60,-15 72,-5 167,10 203,38 232,61 254,84 274,102 582,246 297,135 297,142 572,287 508,269 401,232 402,210 284,161 107,68 81,69 61,66 41,76 23,81 7,94 -30,237 z"
   id="path64"
   inkscape:connector-curvature="0"
   style="fill:#494949;stroke:none" />
         <path
   d="m 10749,14654 -13,-15 -12,-18 -13,-15 -13,-18 -15,-12 -13,-16 -15,-12 -13,-16 -18,-10 -15,-12 -18,-11 -15,-12 -20,-8 -15,-8 -21,-7 -12,-10 -18,-3 -20,-5 -21,-2 -18,-6 h -20 l -18,-2 h -20 l -18,-3 -23,3 -17,2 -21,6 -18,2 -20,8 -18,5 -20,7 -15,5 -21,13 -17,13 -18,13 -15,12 -16,16 -15,12 -13,15 -12,13 -15,18 -11,15 -12,18 -8,15 -10,21 -8,15 -7,20 -5,15 -8,16 -5,20 -3,20 -5,18 -2,20 v 18 20 l 2,18 v 21 l 5,17 v 21 l 5,17 5,21 8,18 8,20 10,15 7,23 13,18 10,18 16,15 12,18 16,15 15,13 15,12 15,15 16,11 17,12 18,8 15,10 21,8 17,7 21,5 15,8 23,5 15,5 h 20 l 18,3 h 21 20 l 20,-3 h 18 l 20,-2 18,-3 20,-7 16,-6 17,-7 21,-8 20,-10 18,-8 18,-12 15,-10 18,-13 15,-13 18,-15 12,-15 16,-16 10,-15 10,-15 10,-18 13,-18 7,-15 8,-20 8,-18 10,-20 2,-16 5,-20 3,-18 5,-20 v -18 l 3,-20 v -20 -21 l -5,-18 -3,-20 -3,-18 -2,-20 -8,-13 -7,-20 -8,-20 z"
   id="path66"
   inkscape:connector-curvature="0"
   style="fill:#b2b2b2;stroke:none" />
         <path
   d="m 11115,12038 -97,2685 3656,7860 -452,-427 -4667,-7115 173,-2833 z"
   id="path68"
   inkscape:connector-curvature="0"
   style="fill:#e8e8e8;stroke:none" />
         <path
   d="m 13513,21066 757,1273 490,282 -208,-538 -734,-1408 z"
   id="path70"
   inkscape:connector-curvature="0"
   style="fill:#e8e8e8;stroke:none" />
         <path
   d="m 5559,11243 v 233 l 381,21 168,28 152,35 142,48 125,61 117,72 104,83 94,94 84,110 73,122 64,134 58,148 49,162 73,366 13,81 h 3 l -3,7959 v 8 13 l -8,175 -20,168 -33,157 -51,150 -61,140 -76,129 -86,117 -102,109 -112,97 -124,86 -135,71 -147,61 -158,49 -167,35 -181,21 -188,7 -23,3 h -12 -10 -3 v 256 l 1133,23 1085,54 1057,55 523,23 518,13 518,-3 516,-15 523,-35 529,-56 533,-84 544,-112 277,-68 277,-74 564,-180 -674,-994 -208,186 -226,160 -239,132 -254,109 -262,86 -271,66 -277,49 -282,30 -285,13 -287,2 -564,-27 -548,-61 -521,-77 -31,-2 -25,-8 -26,-2 -22,-8 -26,-3 -23,-2 -20,-3 -18,-5 -20,-2 -15,-3 -16,-2 -10,-5 -23,-3 -15,-5 -10,-3 v -2 -9946 l 196,-56 221,-43 241,-35 249,-28 251,-21 244,-10 h 425 l 195,25 203,34 206,45 206,56 206,69 203,78 198,89 191,105 182,114 171,129 157,140 142,158 127,167 105,181 81,195 58,211 26,114 17,117 23,257 5,254 -15,246 -35,237 -56,228 -74,221 -41,104 -50,102 -115,193 -132,175 -155,163 -170,140 -196,122 -213,99 -234,76 -256,51 -277,28 -59,696 6,2 17,3 13,5 254,48 252,69 251,86 246,102 239,117 229,134 218,153 201,167 185,183 163,198 74,105 66,109 114,226 86,246 56,260 21,271 -5,143 -13,144 -8,125 -20,119 -53,237 683,1562 305,-292 274,-290 125,-147 116,-150 110,-153 94,-157 86,-163 71,-170 61,-178 46,-183 33,-195 18,-206 2,-216 -15,-229 -38,-231 -53,-218 -74,-208 -89,-194 -104,-185 -120,-173 -132,-160 -150,-150 -160,-139 -172,-127 -183,-117 -196,-107 -206,-97 -213,-83 -226,-77 -234,-63 -277,-59 -5,-2 h 5 l 137,-51 135,-58 208,-104 199,-117 188,-127 177,-135 168,-150 152,-157 140,-171 122,-177 109,-193 94,-201 77,-214 55,-223 23,-117 16,-112 20,-246 -3,-257 -25,-264 -20,-135 -49,-180 -58,-170 -69,-163 -78,-155 -89,-150 -97,-139 -104,-135 -112,-127 -119,-122 -127,-112 -132,-109 -140,-102 -142,-96 -150,-86 -153,-84 -157,-77 -160,-73 -165,-64 -165,-61 -171,-53 -345,-97 -348,-73 -348,-56 -346,-38 -332,-23 -333,-8 -2650,8 z"
   id="path72"
   inkscape:connector-curvature="0"
   style="fill:#000000;stroke:none" />
         <path
   d="m 8872,16471 5,2 10,3 8,5 15,2 12,3 21,3 15,5 23,5 23,5 28,2 12,5 h 16 l 15,6 h 15 l 15,2 16,3 17,2 h 21 l 15,5 20,3 16,5 h 20 l 18,5 20,2 20,6 h 23 l 20,5 23,2 23,3 26,2 20,3 23,2 25,3 h 28 l 23,5 25,2 26,3 28,3 25,5 h 28 l 28,5 h 30 l 28,2 31,3 30,2 h 31 l 30,3 31,2 h 33 33 l 30,3 31,3 33,2 h 35 28 36 30 36 31 35 31 38 30 33 33 36 25 33 31 33 30 33 28 l 33,-2 h 31 30 33 l 28,-3 h 28 l 28,-3 h 28 l 30,-2 h 26 25 26 l 28,-3 h 22 l 26,-2 h 23 l 25,-3 h 20 23 21 l 20,-2 h 18 l 20,-3 h 18 l 20,-2 h 13 15 15 16 22 l 23,-3 h 13 l 15,-2 h 5 l 5,-3 v 722 h -7 -18 -15 l -15,-3 -18,-3 -18,-2 h -23 l -28,-5 h -15 -10 l -18,-3 -13,-2 h -18 l -15,-3 h -18 l -15,-2 h -18 l -17,-3 -18,-2 -18,-3 h -20 -21 l -20,-3 -20,-2 h -23 -20 l -21,-3 -20,-2 h -23 -23 l -23,-3 -20,-2 h -25 -23 l -23,-3 -23,-2 h -25 -26 -25 l -23,-3 h -25 -26 -25 l -23,-2 h -25 -28 -26 l -20,-3 h -28 -23 -28 l -23,-2 -28,2 h -28 -28 -28 l -27,3 h -31 -30 -28 l -33,2 -31,3 h -30 -28 l -36,2 -30,3 h -31 -30 l -31,2 -35,3 -33,2 h -31 l -33,3 -30,2 -33,3 h -31 l -33,3 -30,2 -33,3 h -31 l -30,2 h -31 l -28,3 h -28 l -30,5 -31,2 -28,3 h -23 l -33,2 -25,3 -25,3 h -21 l -28,2 -25,3 -23,2 h -23 l -23,3 -20,2 h -20 -16 l -20,3 -15,2 -18,3 h -15 l -28,2 h -20 l -21,3 h -12 -8 z"
   id="path74"
   inkscape:connector-curvature="0"
   style="fill:#000000;stroke:none" />
         <path
   d="m 10358,14426 81,7 71,23 69,38 58,49 48,58 39,69 22,71 8,81 -8,79 -22,76 -39,69 -48,61 -58,48 -69,35 -71,23 -81,10 -79,-10 -76,-23 -69,-35 -61,-48 -48,-61 -36,-69 -22,-76 -11,-79 11,-81 22,-71 36,-69 48,-58 61,-49 69,-38 76,-23 z"
   id="path76"
   inkscape:connector-curvature="0"
   style="fill:#7f7f7f;stroke:none" />
         <path
   d="m 3898,11730 -280,112 -142,66 -137,79 -122,94 -107,112 -40,63 -36,71 -25,74 -21,84 -10,168 20,175 51,162 41,69 46,64 190,172 211,155 213,145 193,152 181,143 188,124 203,109 218,100 277,101 275,79 284,51 290,17 178,-22 144,-61 122,-94 105,-115 91,-129 81,-137 153,-262 7,91 18,97 43,198 13,94 -5,86 -23,74 -53,59 -300,195 -160,81 -168,66 -134,34 -140,25 -142,10 -143,-5 -213,-33 -216,-41 -422,-137 -203,-86 -196,-99 -386,-221 -335,-209 -323,-236 -284,-239 -127,-132 -107,-147 -66,-140 -43,-152 -28,-158 -13,-157 v -125 l 13,-124 30,-122 46,-112 69,-104 81,-89 97,-79 99,-71 76,-48 81,-38 87,-23 h 83 z"
   id="path78"
   inkscape:connector-curvature="0"
   style="fill:#000000;stroke:none" />
         <path
   d="m 2061,12553 147,516 282,506 343,503 491,454 477,341 628,307 144,56 145,64 148,53 73,15 76,8 529,13 564,-87 490,-183 -25,-333 -613,272 -625,74 -502,-25 -529,-221 -747,-514 -515,-404 -442,-553 -221,-394 -122,-516 z"
   id="path80"
   inkscape:connector-curvature="0"
   style="fill:#000000;stroke:none" />
         <path
   d="m 3029,11911 -81,76 -66,79 -54,81 -43,84 -30,84 -23,86 -16,89 -7,89 5,155 30,157 54,153 73,137 110,135 132,122 284,221 336,251 350,229 363,193 191,84 185,68 379,137 203,51 102,10 99,-2 480,-61 462,-234 -48,475 -310,137 -165,64 -150,48 -178,33 -221,23 -226,10 -190,-5 -130,-20 -130,-31 -127,-40 -121,-46 -153,-74 -155,-86 -295,-181 -320,-226 -304,-241 -282,-239 -135,-129 -122,-135 -107,-145 -101,-152 -173,-318 -53,-119 -51,-142 -33,-148 -10,-132 38,-493 z"
   id="path82"
   inkscape:connector-curvature="0"
   style="fill:#4c4c4c;stroke:none" />
         <path
   d="m 12057,7483 148,244 96,482 10,541 -106,554 -199,275 -353,-138 325,-492 -30,-768 -312,-541 z"
   id="path84"
   inkscape:connector-curvature="0"
   style="fill:#000000;stroke:none" />
         <path
   d="m 11984,7864 -719,-122 -277,-112 -259,-43 -460,-94 -407,51 -386,206 -315,289 -190,346 -18,487 114,341 181,272 348,231 358,104 399,15 381,-137 294,-135 341,-233 28,124 38,290 33,294 10,143 -43,310 -51,528 -18,513 10,178 31,89 v 8 h 2 l -294,231 -1387,170 -209,-74 -360,-1887 -160,-122 -160,-148 -153,-172 -137,-188 -117,-201 -91,-208 -59,-209 -23,-200 6,-198 25,-191 48,-185 69,-178 89,-168 104,-160 122,-147 134,-135 150,-124 158,-110 167,-96 176,-79 183,-63 185,-49 188,-28 191,-12 195,17 181,26 170,35 162,44 153,53 139,66 133,74 116,83 112,97 104,112 97,122 86,129 z"
   id="path86"
   inkscape:connector-curvature="0"
   style="fill:#494949;stroke:none" />
         <path
   d="m 11366,7783 -251,-107 -264,-94 -135,-38 -137,-33 -132,-18 -140,-10 h -137 l -135,18 -142,30 -137,51 -135,66 -132,89 -132,112 -130,134 -91,112 -71,112 -54,112 -38,114 -20,117 -8,124 8,135 20,142 61,196 51,94 58,94 143,165 167,132 145,79 150,58 155,41 158,20 160,3 160,-18 152,-36 155,-53 208,-91 183,-94 173,-117 170,-150 -46,101 -63,110 -137,190 -122,112 -170,119 -181,102 -155,66 -244,56 -228,18 -226,-28 -247,-76 -165,-72 -155,-94 -142,-114 -130,-132 -114,-142 -99,-155 -81,-165 -64,-173 -40,-170 -18,-168 7,-165 28,-158 51,-155 71,-149 89,-148 107,-142 117,-130 129,-111 137,-97 148,-74 155,-58 162,-38 171,-21 170,-2 188,8 185,20 97,20 96,28 97,41 96,56 264,175 z"
   id="path88"
   inkscape:connector-curvature="0"
   style="fill:#000000;stroke:none" />
         <path
   d="m 9763,12160 1380,-171 10,341 -668,-109 -831,183 z"
   id="path90"
   inkscape:connector-curvature="0"
   style="fill:#000000;stroke:none" />
         <path
   d="m 11232,7719 264,333 89,411 -21,397 -223,561 109,777 386,-612 211,-500 58,-551 -38,-432 -147,-366 z"
   id="path92"
   inkscape:connector-curvature="0"
   style="fill:#4c4c4c;stroke:none" />
        </g>
       </g>
      </g>
     </g>
    </g>
   </g>
  </g>
 </g>
</svg>