<?xml version="1.0" encoding="UTF-8" standalone="no"?>
<svg
   xmlns:ooo="http://xml.openoffice.org/svg/export"
   xmlns:dc="http://purl.org/dc/elements/1.1/"
   xmlns:cc="http://creativecommons.org/ns#"
   xmlns:rdf="http://www.w3.org/1999/02/22-rdf-syntax-ns#"
   xmlns:svg="http://www.w3.org/2000/svg"
   xmlns="http://www.w3.org/2000/svg"
   xmlns:sodipodi="http://sodipodi.sourceforge.net/DTD/sodipodi-0.dtd"
   xmlns:inkscape="http://www.inkscape.org/namespaces/inkscape"
   version="1.2"
   width="29.41mm"
   height="23.01mm"
   viewBox="0 0 2941 2301"
   preserveAspectRatio="xMidYMid"
   xml:space="preserve"
   id="svg101"
   sodipodi:docname="baby4.svg"
   style="fill-rule:evenodd;stroke-width:28.22200012;stroke-linejoin:round"
   inkscape:version="0.92.5 (2060ec1f9f, 2020-04-08)"><metadata
   id="metadata105"><rdf:RDF><cc:Work
       rdf:about=""><dc:format>image/svg+xml</dc:format><dc:type
         rdf:resource="http://purl.org/dc/dcmitype/StillImage" /></cc:Work></rdf:RDF></metadata><sodipodi:namedview
   pagecolor="#ffffff"
   bordercolor="#666666"
   borderopacity="1"
   objecttolerance="10"
   gridtolerance="10"
   guidetolerance="10"
   inkscape:pageopacity="0"
   inkscape:pageshadow="2"
   inkscape:window-width="664"
   inkscape:window-height="487"
   id="namedview103"
   showgrid="false"
   inkscape:zoom="0.2102413"
   inkscape:cx="55.596851"
   inkscape:cy="43.464565"
   inkscape:window-x="0"
   inkscape:window-y="0"
   inkscape:window-maximized="0"
   inkscape:current-layer="svg101" />
 <defs
   class="ClipPathGroup"
   id="defs8">
  <clipPath
   id="presentation_clip_path"
   clipPathUnits="userSpaceOnUse">
   <rect
   x="0"
   y="0"
   width="21000"
   height="29700"
   id="rect2" />
  </clipPath>
  <clipPath
   id="presentation_clip_path_shrink"
   clipPathUnits="userSpaceOnUse">
   <rect
   x="21"
   y="29"
   width="20958"
   height="29641"
   id="rect5" />
  </clipPath>
 </defs>
 <defs
   class="TextShapeIndex"
   id="defs12">
  <g
   ooo:slide="id1"
   ooo:id-list="id3"
   id="g10" />
 </defs>
 <defs
   class="EmbeddedBulletChars"
   id="defs44">
  <g
   id="bullet-char-template-57356"
   transform="matrix(4.8828125e-4,0,0,-4.8828125e-4,0,0)">
   <path
   d="M 580,1141 1163,571 580,0 -4,571 Z"
   id="path14"
   inkscape:connector-curvature="0" />
  </g>
  <g
   id="bullet-char-template-57354"
   transform="matrix(4.8828125e-4,0,0,-4.8828125e-4,0,0)">
   <path
   d="M 8,1128 H 1137 V 0 H 8 Z"
   id="path17"
   inkscape:connector-curvature="0" />
  </g>
  <g
   id="bullet-char-template-10146"
   transform="matrix(4.8828125e-4,0,0,-4.8828125e-4,0,0)">
   <path
   d="M 174,0 602,739 174,1481 1456,739 Z M 1358,739 309,1346 659,739 Z"
   id="path20"
   inkscape:connector-curvature="0" />
  </g>
  <g
   id="bullet-char-template-10132"
   transform="matrix(4.8828125e-4,0,0,-4.8828125e-4,0,0)">
   <path
   d="M 2015,739 1276,0 H 717 l 543,543 H 174 v 393 h 1086 l -543,545 h 557 z"
   id="path23"
   inkscape:connector-curvature="0" />
  </g>
  <g
   id="bullet-char-template-10007"
   transform="matrix(4.8828125e-4,0,0,-4.8828125e-4,0,0)">
   <path
   d="m 0,-2 c -7,16 -16,29 -25,39 l 381,530 c -94,256 -141,385 -141,387 0,25 13,38 40,38 9,0 21,-2 34,-5 21,4 42,12 65,25 l 27,-13 111,-251 280,301 64,-25 24,25 c 21,-10 41,-24 62,-43 C 886,937 835,863 770,784 769,783 710,716 594,584 L 774,223 c 0,-27 -21,-55 -63,-84 l 16,-20 C 717,90 699,76 672,76 641,76 570,178 457,381 L 164,-76 c -22,-34 -53,-51 -92,-51 -42,0 -63,17 -64,51 -7,9 -10,24 -10,44 0,9 1,19 2,30 z"
   id="path26"
   inkscape:connector-curvature="0" />
  </g>
  <g
   id="bullet-char-template-10004"
   transform="matrix(4.8828125e-4,0,0,-4.8828125e-4,0,0)">
   <path
   d="M 285,-33 C 182,-33 111,30 74,156 52,228 41,333 41,471 c 0,78 14,145 41,201 34,71 87,106 158,106 53,0 88,-31 106,-94 l 23,-176 c 8,-64 28,-97 59,-98 l 735,706 c 11,11 33,17 66,17 42,0 63,-15 63,-46 V 965 c 0,-36 -10,-64 -30,-84 L 442,47 C 390,-6 338,-33 285,-33 Z"
   id="path29"
   inkscape:connector-curvature="0" />
  </g>
  <g
   id="bullet-char-template-9679"
   transform="matrix(4.8828125e-4,0,0,-4.8828125e-4,0,0)">
   <path
   d="M 813,0 C 632,0 489,54 383,161 276,268 223,411 223,592 c 0,181 53,324 160,431 106,107 249,161 430,161 179,0 323,-54 432,-161 108,-107 162,-251 162,-431 0,-180 -54,-324 -162,-431 C 1136,54 992,0 813,0 Z"
   id="path32"
   inkscape:connector-curvature="0" />
  </g>
  <g
   id="bullet-char-template-8226"
   transform="matrix(4.8828125e-4,0,0,-4.8828125e-4,0,0)">
   <path
   d="m 346,457 c -73,0 -137,26 -191,78 -54,51 -81,114 -81,188 0,73 27,136 81,188 54,52 118,78 191,78 73,0 134,-26 185,-79 51,-51 77,-114 77,-187 0,-75 -25,-137 -76,-188 -50,-52 -112,-78 -186,-78 z"
   id="path35"
   inkscape:connector-curvature="0" />
  </g>
  <g
   id="bullet-char-template-8211"
   transform="matrix(4.8828125e-4,0,0,-4.8828125e-4,0,0)">
   <path
   d="M -4,459 H 1135 V 606 H -4 Z"
   id="path38"
   inkscape:connector-curvature="0" />
  </g>
  <g
   id="bullet-char-template-61548"
   transform="matrix(4.8828125e-4,0,0,-4.8828125e-4,0,0)">
   <path
   d="m 173,740 c 0,163 58,303 173,419 116,115 255,173 419,173 163,0 302,-58 418,-173 116,-116 174,-256 174,-419 0,-163 -58,-303 -174,-418 C 1067,206 928,148 765,148 601,148 462,206 346,322 231,437 173,577 173,740 Z"
   id="path41"
   inkscape:connector-curvature="0" />
  </g>
 </defs>
 <g
   id="g49"
   transform="translate(-9029,-13699)">
  <g
   id="id2"
   class="Master_Slide">
   <g
   id="bg-id2"
   class="Background" />
   <g
   id="bo-id2"
   class="BackgroundObjects" />
  </g>
 </g>
 <g
   class="SlideGroup"
   id="g99"
   transform="translate(-9029,-13699)">
  <g
   id="g97">
   <g
   id="container-id1">
    <g
   id="id1"
   class="Slide"
   clip-path="url(#presentation_clip_path)">
     <g
   class="Page"
   id="g93">
      <g
   class="Graphic"
   id="g91">
       <g
   id="id3">
        <rect
   class="BoundingBox"
   x="9029"
   y="13699"
   width="2941"
   height="2301"
   id="rect51"
   style="fill:none;stroke:none" />
        <defs
   id="defs56">
         <clipPath
   id="clip_path_1"
   clipPathUnits="userSpaceOnUse">
          <path
   d="m 9029,13699 h 2940 v 2300 H 9029 Z"
   id="path53"
   inkscape:connector-curvature="0" />
         </clipPath>
        </defs>
        <g
   clip-path="url(#clip_path_1)"
   id="g88">
         <path
   d="m 11642,14235 -15,-45 -15,-41 -18,-33 -13,-20 -20,-21 -18,-18 -13,-15 -2,-28 v -43 l -5,-58 -13,-56 -18,-51 -10,-21 -10,-17 -10,-21 -11,-15 -12,-13 -13,-10 -13,-7 -12,-3 -26,5 -23,10 -12,18 -5,15 v 10 8 l -8,3 -13,-3 -15,-5 -10,-5 -10,2 -13,8 -13,13 -13,7 -7,6 -3,2 -5,3 -10,2 -13,3 h -12 l -13,-3 -10,3 -13,5 -13,5 -10,-3 -7,-12 -8,-18 -10,-13 -18,-10 -23,-8 h -23 l -10,5 -8,11 -12,5 -13,5 -10,-3 -10,-5 -16,-5 h -15 l -13,5 -12,5 -16,3 -12,2 -13,3 -13,13 -10,17 -7,18 5,13 12,7 16,8 12,8 3,5 -8,5 h -12 l -16,2 -15,6 -10,5 -5,7 -3,8 v 10 l 3,13 2,15 8,10 13,3 12,-3 11,3 5,5 2,7 -5,6 h -10 l -13,-3 -18,-5 -10,-3 -10,-5 -13,-2 h -12 l -13,-3 -10,3 -8,5 -5,7 -5,23 v 28 l 5,23 20,15 16,3 15,2 h 18 17 18 18 13 l 10,3 10,8 3,10 2,13 18,17 18,21 -5,20 -13,20 -10,13 -10,13 -21,25 -28,38 -33,41 -33,43 -30,38 -23,28 -13,18 -10,13 -13,10 -15,10 -23,10 -13,8 -12,8 -10,12 -13,13 -13,13 -7,12 -11,13 -5,10 -12,31 -13,41 -10,35 -5,15 -36,56 -3,-33 -5,-71 -5,-76 -2,-46 -3,-28 -2,-41 -3,-40 v -23 l 5,-13 5,-18 8,-23 8,-20 10,-33 2,-48 v -46 l -7,-33 -11,-25 -10,-23 -12,-21 -16,-10 -15,-2 -15,2 -10,3 -5,2 -5,-5 -8,-13 -8,-15 -5,-15 -2,-15 -8,-16 -13,-12 -12,-8 -21,-2 -20,2 -15,13 -5,30 -5,28 -8,5 -10,-7 -5,-16 -3,-12 -8,-10 -12,-8 -13,-5 -18,2 -12,5 -11,8 -5,3 h -7 l -18,2 -15,5 -11,10 v 18 21 l 3,17 v 13 l 3,13 10,23 7,20 5,15 3,10 -3,11 -2,15 -5,15 -5,15 -5,11 -8,10 -13,2 h -10 l -8,-2 -10,-3 -10,-5 h -10 l -10,-2 h -8 l -10,2 -13,13 -7,18 -3,20 5,13 8,10 13,13 12,10 21,10 22,10 18,5 13,3 13,5 10,10 10,18 5,23 5,20 3,38 5,61 v 61 l -3,38 -5,21 -5,15 -10,18 -15,20 -21,23 -15,20 -10,15 -3,6 h -5 l -10,-3 -13,-5 -10,-8 -7,-15 -11,-20 -15,-23 -18,-13 -12,-2 -16,-3 -17,-2 -21,-3 h -17 l -18,-3 h -15 -13 l -8,-5 -2,-12 -3,-11 v -5 h -5 -10 -13 l -13,-5 -10,-10 -10,-13 -15,-15 -15,-18 -16,-17 -17,-18 -18,-13 -18,-10 -23,-5 -33,-8 -41,-2 -43,-3 -46,3 -45,2 -44,8 -40,12 -38,16 -36,20 -36,18 -33,20 -30,23 -26,23 -22,23 -18,23 -26,35 -15,18 -5,8 -2,2 -21,23 -13,21 -7,17 -8,18 -12,41 -13,71 -8,71 3,49 7,38 5,56 18,66 38,73 31,41 35,41 39,40 43,41 40,36 44,28 38,23 35,10 33,5 31,2 33,3 33,2 h 33 31 28 l 27,-2 26,-5 23,-5 20,-8 20,-7 18,-8 18,-5 18,-5 15,-3 h 15 l 13,5 13,10 12,11 11,12 10,16 13,15 12,13 21,17 28,26 38,30 43,33 43,31 43,30 41,26 33,15 18,5 20,8 23,7 25,11 31,7 28,10 33,11 30,10 31,7 30,10 31,8 25,8 26,5 23,5 17,2 h 16 30 43 49 51 50 l 46,-2 h 38 l 23,-3 28,3 20,10 13,10 5,5 102,41 84,-114 2,-3 5,-10 8,-8 13,-2 h 10 13 15 l 18,-3 h 17 13 10 3 8 l 22,-2 33,-5 41,-8 43,-8 41,-7 36,-11 28,-12 17,-8 26,-15 30,-15 38,-23 41,-28 41,-31 40,-38 39,-43 27,-43 26,-46 20,-48 18,-46 13,-41 7,-35 5,-26 v -15 l -2,-26 -5,-35 -10,-41 -11,-46 -15,-43 -12,-40 -18,-34 -16,-22 -17,-18 -18,-15 -15,-18 -18,-16 -15,-12 -11,-10 -7,-8 -3,-3 23,-167 -58,-102 -64,-28 3,-20 5,-54 5,-61 -3,-53 -2,-23 -8,-38 -13,-51 -17,-66 z"
   id="path58"
   inkscape:connector-curvature="0"
   style="fill:#000000;stroke:none" />
         <path
   d="m 11256,14299 -10,38 -23,84 -26,92 -15,48 -10,20 -15,26 -16,23 -7,12 -8,13 -10,18 -5,20 5,18 10,8 13,7 15,5 15,5 13,5 13,3 h 10 8 l 12,-3 18,-5 10,-7 3,-13 -8,-30 -10,-49 -13,-48 -5,-28 8,-31 12,-53 16,-48 5,-21 -3,-96 z"
   id="path60"
   inkscape:connector-curvature="0"
   style="fill:#ffffff;stroke:none" />
         <path
   d="m 11190,14764 h 76 l 5,5 8,13 12,15 8,16 8,7 15,10 20,13 26,13 22,13 26,10 18,7 h 12 l 13,-2 23,-8 30,-13 33,-12 31,-15 31,-13 22,-13 13,-10 15,-31 11,-43 7,-40 3,-18 5,2 10,5 13,11 15,12 18,26 17,40 16,41 v 25 l -8,13 -8,18 -10,15 -15,10 -15,8 -8,8 -5,5 v 2 l 8,5 20,16 20,15 16,10 7,5 13,13 18,15 15,15 18,18 15,18 10,15 8,13 13,33 20,56 18,58 7,49 -7,51 -16,66 -17,68 -21,54 -15,25 -20,28 -28,33 -28,31 -31,33 -28,28 -25,23 -23,17 -23,13 -30,15 -36,16 -38,12 -38,13 -36,10 -30,5 -26,3 h -17 -18 l -13,2 h -15 -13 l -13,-2 -15,-5 -18,-5 -20,-13 -28,-15 -33,-21 -31,-23 -27,-20 -26,-18 -13,-15 -2,-8 v -10 l -13,-5 -13,-2 h -7 l 10,45 5,5 15,13 21,18 23,20 22,21 23,17 18,13 10,5 v 5 l -10,10 -13,11 -7,5 -79,94 -135,-31 3,-53 -74,-214 -33,-17 89,221 -8,-8 -17,-18 -21,-20 -15,-15 -15,-28 -23,-49 -21,-53 -7,-41 v -28 l -5,-22 v -21 l 7,-7 h 13 l 10,2 10,3 13,-3 10,-8 5,-12 v -13 -15 l -7,-15 -13,-11 -15,-5 -8,5 -2,8 -8,8 -8,5 h -10 l -7,-3 -8,-5 -13,-8 -10,-7 -13,-10 -12,-11 -13,-7 -10,-10 -21,-21 -17,-25 -13,-28 -5,-25 2,-36 5,-48 3,-41 3,-18 h 2 l 8,3 10,7 10,10 8,11 12,15 16,18 20,20 18,18 20,15 20,8 18,2 18,-2 h 25 l 28,-3 h 31 28 l 28,-2 23,-3 18,-2 17,-6 21,-10 25,-10 28,-13 25,-12 23,-13 21,-10 12,-10 18,-18 15,-26 13,-28 8,-25 2,-36 v -53 l -2,-51 v -35 l -3,-26 -5,-28 -7,-28 -13,-18 -18,-17 -25,-23 -21,-18 z"
   id="path62"
   inkscape:connector-curvature="0"
   style="fill:#ffffff;stroke:none" />
         <path
   d="m 10935,15446 28,2 8,-66 33,13 -10,76 20,10 8,-89 20,11 3,-8 5,-20 5,-26 2,-18 -2,-7 -8,-8 -10,-5 -13,-8 -12,-2 h -16 l -10,2 -10,5 -15,21 -8,23 -5,15 -2,8 5,10 z"
   id="path64"
   inkscape:connector-curvature="0"
   style="fill:#000000;stroke:none" />
         <path
   d="m 10930,15489 26,8 -8,45 33,3 3,-61 18,18 -3,43 20,15 v 5 10 l -2,16 -3,15 -5,10 -7,8 -8,5 h -13 -13 l -10,-3 -10,-5 -13,-10 -12,-13 -5,-7 -3,-11 5,-10 5,-20 3,-25 2,-26 z"
   id="path66"
   inkscape:connector-curvature="0"
   style="fill:#000000;stroke:none" />
         <path
   d="m 11045,13783 12,-5 11,-3 h 10 l 7,10 5,18 3,21 v 15 7 6 l 5,10 8,12 15,8 8,3 7,5 10,5 11,5 10,7 10,6 13,7 12,5 13,5 13,5 10,6 10,5 10,5 10,7 11,5 7,8 13,23 8,28 2,33 v 30 l -8,36 -20,41 -23,35 -12,26 -6,15 -10,28 -10,38 -15,43 -13,44 -15,38 -10,33 -8,20 -7,31 -11,33 -7,30 -13,26 -15,15 -16,13 -20,7 -18,5 -20,3 -20,-3 -16,-2 h -5 l 8,-5 18,-11 18,-12 15,-13 13,-13 10,-17 7,-18 v -16 l -5,-5 -7,-2 -11,-3 h -10 -12 l -13,3 -10,2 -8,3 -8,2 -10,3 -10,5 -13,3 -12,2 -10,3 h -11 l -7,-3 -5,-7 5,-11 10,-10 5,-5 8,-5 15,-13 20,-15 18,-13 10,-15 5,-15 -2,-18 -10,-13 h -13 l -26,5 -33,13 -35,18 -33,15 -31,15 -20,11 -8,5 -10,5 -20,7 -26,8 -15,5 v -2 l 13,-11 18,-12 10,-18 v -18 l -3,-13 -7,-10 -3,-2 8,-10 23,-26 33,-35 38,-41 35,-41 33,-38 23,-25 8,-13 7,-18 13,-25 13,-26 -3,-20 -7,-18 -3,-15 -5,-13 -10,-5 -15,-5 -21,-8 -20,-7 -15,-5 h -8 l -10,2 h -15 l -16,3 h -17 -13 l -10,-3 -8,-2 -5,-11 -2,-12 v -13 l 7,-10 10,-3 16,-2 h 20 23 l 23,-3 20,-2 15,-3 10,-5 v -5 l -5,-8 -10,-5 -10,-5 -15,-5 -13,-5 -10,-3 -5,-2 -5,-5 -3,-10 3,-11 5,-10 13,-10 17,-5 16,-5 7,-3 v -2 -8 l -5,-12 -5,-13 -8,-15 -2,-13 2,-10 8,-5 h 10 l 10,-3 13,3 10,7 10,10 8,8 5,5 3,3 -3,-5 -2,-11 -3,-12 8,-8 12,-5 18,-3 15,3 8,5 z"
   id="path68"
   inkscape:connector-curvature="0"
   style="fill:#661900;stroke:none" />
         <path
   d="m 11238,13821 h -13 l -12,3 -8,5 -3,7 v 10 l -7,11 -8,10 -5,5 25,25 11,5 20,13 25,13 18,5 10,2 10,8 8,13 8,15 5,20 2,23 3,21 v 7 8 l 2,20 3,21 8,10 5,7 -3,13 -5,15 -10,10 -10,8 -13,5 -10,10 -5,13 -3,20 v 21 20 l 10,18 8,8 8,7 7,8 10,7 11,8 10,5 12,5 13,5 23,8 15,5 16,-3 20,-10 20,-5 h 13 l 10,-13 10,-45 8,-69 2,-74 -5,-68 -7,-61 -5,-51 -3,-41 -2,-33 -13,-25 -15,-28 -21,-31 -18,-23 -17,-7 h -18 l -18,2 -13,8 v 18 l 8,25 5,20 10,13 21,5 h 20 l 13,3 5,5 h 2 v 2 8 l -2,8 -10,5 h -16 -17 -16 -5 l -23,-23 -17,2 -6,3 -10,2 h -7 l -3,-5 8,-10 7,-13 5,-10 -5,-7 -12,-5 -16,-5 -15,2 -7,8 -8,10 -10,7 -13,3 z"
   id="path70"
   inkscape:connector-curvature="0"
   style="fill:#661900;stroke:none" />
         <path
   d="m 11322,14319 -10,39 -23,89 -21,99 -2,68 5,23 5,28 5,28 5,31 10,28 13,28 18,20 23,13 23,7 17,8 16,2 15,3 h 13 l 15,-3 18,-5 23,-7 25,-8 20,-8 18,-5 15,-7 13,-8 13,-10 13,-10 10,-15 20,-36 10,-38 5,-41 5,-43 v -56 l -5,-76 -7,-74 -11,-59 -15,-50 -20,-59 -20,-48 -8,-21 -36,-53 3,15 2,36 3,38 v 26 l -3,15 -2,15 -3,18 -2,15 -5,15 -8,21 -10,17 -10,16 -5,5 -8,7 -10,8 -10,5 -10,5 -13,5 -13,3 -13,-3 -15,-5 -18,-7 -15,-8 -15,-10 -13,-10 -10,-8 -8,-5 z"
   id="path72"
   inkscape:connector-curvature="0"
   style="fill:#661900;stroke:none" />
         <path
   d="m 10994,14754 h 15 l 18,-2 18,-3 15,-5 15,-3 h 15 l 13,3 h 5 l 5,5 13,10 15,15 21,18 20,21 20,17 16,13 10,10 7,18 8,31 3,33 5,33 2,20 v 33 l -2,38 -8,43 -13,41 -20,38 -31,31 -38,20 -43,10 -41,10 -38,8 -35,5 -31,3 h -25 l -21,-3 -15,-5 -15,-8 -23,-15 -25,-20 -28,-23 -26,-23 -23,-23 -15,-23 -5,-17 5,-54 15,-76 23,-69 18,-38 8,-5 12,-5 13,-3 15,-5 16,-2 15,-3 13,-2 12,-3 10,-2 13,-3 10,-5 13,-5 10,-5 10,-5 11,-3 10,-5 12,-10 8,-13 3,-10 v -5 z"
   id="path74"
   inkscape:connector-curvature="0"
   style="fill:#661900;stroke:none" />
         <path
   d="m 10618,14571 2,-8 5,-12 8,-18 10,-10 8,-8 10,-13 15,-15 10,-10 16,-10 15,-8 15,-2 13,7 2,13 -15,13 -15,18 v 17 l 10,5 h 15 l 21,-2 20,-8 23,-7 20,-8 15,-8 8,-2 8,-5 12,-5 18,-11 15,-10 18,-10 13,-7 10,-6 3,-2 5,-5 15,-8 15,-2 13,10 v 10 l -10,15 -16,18 -17,15 -18,18 -18,13 -10,10 -5,2 -3,6 -2,7 v 10 l 7,5 h 18 18 l 18,-2 12,-3 18,-5 23,-7 20,-5 11,-3 h 5 l 10,5 5,8 v 12 l -8,8 -10,8 -15,10 -18,10 -15,8 -15,7 -13,8 -5,2 -8,6 -2,7 2,10 10,5 11,3 h 12 l 16,3 17,2 18,3 h 13 l 13,2 7,3 8,5 5,7 -3,11 -5,10 -5,5 -10,2 h -13 -12 -16 -12 -13 l -10,3 -10,2 h -13 l -13,3 h -13 l -10,3 -5,2 -2,5 2,5 18,8 20,8 16,7 5,8 -5,10 -11,10 -17,8 -16,5 -12,5 -16,5 -15,5 -18,5 -10,3 -13,2 -15,3 -15,-3 h -18 l -15,-2 -13,-5 -10,-8 -18,-10 -12,-5 -11,-3 h -2 l 5,10 8,21 12,20 13,10 5,3 -5,10 -10,15 -10,15 -11,34 -15,55 -15,56 -10,39 -8,25 -10,30 -10,34 -10,25 -8,13 -8,17 -10,18 -10,23 -13,23 -15,23 -18,20 -17,21 -21,17 -20,21 -20,18 -23,20 -21,15 -20,15 -18,13 -18,10 -17,8 -21,10 -23,8 -25,10 -23,7 -23,6 h -20 l -15,-3 -26,-3 -20,6 -10,7 -5,5 2,5 8,13 10,15 18,5 h 10 13 l 15,-2 18,-3 15,-2 13,-5 12,-5 8,-5 10,-11 20,-12 28,-13 28,-15 31,-16 25,-15 21,-10 12,-10 13,-10 20,-21 23,-23 28,-25 26,-25 25,-23 15,-18 10,-13 11,-20 12,-28 11,-23 5,-10 -18,178 5,2 10,11 13,12 20,13 18,15 18,13 15,10 10,5 10,10 3,16 v 12 8 l 2,10 8,31 10,40 13,49 15,50 15,44 16,35 17,18 28,18 18,18 10,15 v 20 l -2,10 -8,8 -10,8 -13,5 -15,2 -18,3 -18,2 h -20 -28 l -40,-2 -49,-5 -51,-5 -53,-5 -46,-5 -38,-6 -25,-5 -23,-5 -31,-10 -40,-10 -41,-15 -43,-13 -38,-13 -33,-10 -23,-10 -21,-10 -28,-18 -33,-20 -35,-26 -36,-23 -30,-23 -26,-20 -15,-13 -13,-10 -17,-18 -18,-17 -21,-23 -20,-23 -18,-23 -15,-20 -8,-18 -7,-49 -5,-68 2,-66 15,-46 11,-13 7,-12 8,-13 8,-13 7,-13 10,-7 10,-8 16,-5 12,-2 11,-6 7,-2 8,-3 7,-2 h 11 17 23 l 26,2 h 28 l 25,3 28,-3 25,-5 26,-7 25,-16 26,-17 28,-28 33,-41 35,-46 36,-51 36,-48 27,-43 26,-36 13,-20 10,-15 12,-16 16,-17 15,-21 15,-20 13,-20 10,-18 5,-16 10,-28 11,-27 7,-18 z"
   id="path76"
   inkscape:connector-curvature="0"
   style="fill:#661900;stroke:none" />
         <path
   d="m 10150,14286 -13,-2 -15,-5 -15,-8 -13,-2 -13,2 -10,5 -5,8 3,10 12,13 18,17 20,16 21,7 10,3 13,2 12,3 16,3 12,2 h 13 l 10,-2 10,-3 16,-13 15,-10 10,-5 5,3 5,7 3,10 v 8 l -8,5 -15,8 -20,12 -21,13 -10,10 v 49 l 5,89 5,89 8,45 5,11 2,5 -2,7 -10,10 -8,8 -13,8 -10,10 -12,13 -13,12 -13,10 -7,11 -6,7 -5,8 -2,10 v 10 l 5,18 5,18 3,18 5,12 10,16 7,17 v 21 l 5,15 18,8 h 13 15 l 10,-3 13,-3 13,-2 13,-5 15,-3 15,-2 h 15 16 l 12,-3 h 13 l 10,-5 10,-5 5,-10 5,-13 11,-33 20,-35 23,-34 20,-22 13,-21 10,-28 3,-30 -3,-28 -8,-41 -7,-58 -8,-59 -7,-41 -6,-25 v -25 -23 l 3,-16 -3,-12 -7,-8 -10,-5 -16,-2 -15,-3 -13,-3 -5,-5 5,-7 8,-3 10,-5 13,-2 13,-3 12,-3 h 11 10 5 l 5,-2 v -10 -16 l 2,-15 8,-23 5,-40 5,-41 v -28 l -2,-18 v -18 l -3,-15 -10,-7 -13,-6 -12,-2 -11,2 -2,8 v 13 l -3,13 -2,10 v 10 l 2,7 -2,11 -3,7 v 3 l -2,2 -8,5 h -8 v -12 -28 l -5,-28 -7,-26 -10,-12 -6,-11 v -17 l -5,-18 -7,-15 -15,-8 -18,-5 -16,2 -5,11 v 20 30 l -2,28 2,18 5,13 v 13 10 5 l -5,2 -7,6 -8,2 -2,-5 -3,-18 -10,-28 -10,-25 -5,-10 -3,-11 -8,-25 -12,-23 -13,-5 -10,8 -8,7 -5,8 v 13 l 5,20 8,31 7,25 3,10 8,28 -26,8 v -3 -5 -8 -15 l -5,-25 -5,-33 -8,-31 -10,-12 -12,2 -13,10 -8,13 v 13 l 8,25 13,43 7,46 v 33 l -10,23 -15,23 -13,18 z"
   id="path78"
   inkscape:connector-curvature="0"
   style="fill:#661900;stroke:none" />
         <path
   d="m 9626,14535 8,3 h 13 15 20 l 18,3 18,2 15,3 10,7 10,13 13,18 18,20 18,23 18,23 17,20 13,13 10,8 8,2 13,3 h 12 l 16,2 h 12 15 11 10 15 l 15,3 13,7 15,13 16,20 17,23 13,21 10,12 10,8 11,5 7,8 5,7 3,18 5,28 v 23 l -5,15 -10,5 -13,8 -13,5 -5,3 5,2 10,3 13,2 h 10 l 8,-5 10,-7 h 10 l 8,7 7,18 8,20 3,18 -3,20 -13,21 -17,20 -21,18 -20,10 -15,5 -21,5 -28,8 -30,10 -31,10 -28,10 -22,11 -16,12 -10,16 -13,17 -15,23 -10,26 -13,25 -7,25 -5,23 v 23 l 5,43 5,46 v 38 l -10,26 -13,7 -15,8 -21,10 -23,8 -25,7 -23,6 -25,7 -21,3 -23,2 -30,3 h -36 -35 l -36,-3 -33,-2 -30,-5 -23,-5 -23,-11 -26,-17 -30,-21 -31,-25 -30,-26 -28,-22 -20,-21 -16,-15 -15,-15 -18,-23 -23,-28 -20,-31 -20,-35 -18,-36 -13,-33 -2,-36 2,-71 3,-73 7,-67 16,-50 10,-18 -5,10 -10,13 5,-16 12,-22 16,-26 20,-30 20,-28 21,-28 17,-23 16,-18 10,-8 10,-7 15,-13 21,-15 25,-21 31,-17 33,-18 40,-15 44,-8 43,-5 35,-5 31,-3 23,-5 17,-2 13,-3 8,-3 z"
   id="path80"
   inkscape:connector-curvature="0"
   style="fill:#661900;stroke:none" />
         <path
   d="m 10069,15102 h 2 l 10,-5 13,-5 15,-5 18,-7 15,-5 13,-8 8,-8 7,-20 8,-28 2,-25 3,-11 h 5 18 20 l 26,-2 12,-3 16,-2 15,-3 18,-2 12,-3 h 13 l 8,-2 h 2 l -2,2 -8,10 -10,16 -13,15 -12,18 -13,15 -10,10 -8,8 -13,12 -20,16 -20,15 -16,10 -5,5 -10,5 -8,5 -12,8 -10,5 -13,3 -13,2 -10,-2 -20,-11 -18,-10 -10,-10 z"
   id="path82"
   inkscape:connector-curvature="0"
   style="fill:#661900;stroke:none" />
         <path
   d="m 9639,14886 h -15 l -21,-2 -17,5 -13,15 -5,28 2,38 13,36 20,25 16,8 18,10 17,8 18,10 20,8 16,5 15,5 10,2 10,3 h 16 l 17,-3 21,-2 17,-3 18,-5 10,-5 8,-5 3,-18 v -23 l -3,-18 v -7 l -28,-15 v 5 l 3,10 2,15 3,10 2,5 3,5 -3,5 -7,3 -11,5 -7,5 -13,3 -15,2 h -18 -20 l -18,-5 -18,-10 -10,-5 -13,-8 -12,-2 -16,-5 -12,-5 -11,-3 -7,-5 -5,-3 -10,-12 -11,-21 -5,-25 10,-23 18,-15 h 18 l 10,5 5,2 z"
   id="path84"
   inkscape:connector-curvature="0"
   style="fill:#000000;stroke:none" />
         <path
   d="m 9700,14937 h -15 -15 l -13,3 v 7 l 2,13 3,13 5,10 h 15 l 18,-3 15,-2 10,2 h 3 l -3,6 v 10 10 l 11,5 17,2 h 18 l 15,-2 8,-5 v -10 l -2,-8 -3,-5 -3,-3 -40,-5 v -5 -7 -8 l 7,-5 -2,-3 -18,-5 -23,-2 z"
   id="path86"
   inkscape:connector-curvature="0"
   style="fill:#000000;stroke:none" />
        </g>
       </g>
      </g>
     </g>
    </g>
   </g>
  </g>
 </g>
</svg>