<?xml version="1.0" encoding="UTF-8" standalone="no"?>
<svg
   xmlns:ooo="http://xml.openoffice.org/svg/export"
   xmlns:dc="http://purl.org/dc/elements/1.1/"
   xmlns:cc="http://creativecommons.org/ns#"
   xmlns:rdf="http://www.w3.org/1999/02/22-rdf-syntax-ns#"
   xmlns:svg="http://www.w3.org/2000/svg"
   xmlns="http://www.w3.org/2000/svg"
   xmlns:sodipodi="http://sodipodi.sourceforge.net/DTD/sodipodi-0.dtd"
   xmlns:inkscape="http://www.inkscape.org/namespaces/inkscape"
   version="1.2"
   width="9.04mm"
   height="20.07mm"
   viewBox="0 0 904 2007"
   preserveAspectRatio="xMidYMid"
   xml:space="preserve"
   id="svg103"
   sodipodi:docname="balloon5.svg"
   style="fill-rule:evenodd;stroke-width:28.22200012;stroke-linejoin:round"
   inkscape:version="0.92.5 (2060ec1f9f, 2020-04-08)"><metadata
   id="metadata107"><rdf:RDF><cc:Work
       rdf:about=""><dc:format>image/svg+xml</dc:format><dc:type
         rdf:resource="http://purl.org/dc/dcmitype/StillImage" /></cc:Work></rdf:RDF></metadata><sodipodi:namedview
   pagecolor="#ffffff"
   bordercolor="#666666"
   borderopacity="1"
   objecttolerance="10"
   gridtolerance="10"
   guidetolerance="10"
   inkscape:pageopacity="0"
   inkscape:pageshadow="2"
   inkscape:window-width="664"
   inkscape:window-height="487"
   id="namedview105"
   showgrid="false"
   inkscape:zoom="0.2102413"
   inkscape:cx="17.083466"
   inkscape:cy="37.90866"
   inkscape:window-x="0"
   inkscape:window-y="0"
   inkscape:window-maximized="0"
   inkscape:current-layer="svg103" />
 <defs
   class="ClipPathGroup"
   id="defs8">
  <clipPath
   id="presentation_clip_path"
   clipPathUnits="userSpaceOnUse">
   <rect
   x="0"
   y="0"
   width="21000"
   height="29700"
   id="rect2" />
  </clipPath>
  <clipPath
   id="presentation_clip_path_shrink"
   clipPathUnits="userSpaceOnUse">
   <rect
   x="21"
   y="29"
   width="20958"
   height="29641"
   id="rect5" />
  </clipPath>
 </defs>
 <defs
   class="TextShapeIndex"
   id="defs12">
  <g
   ooo:slide="id1"
   ooo:id-list="id3"
   id="g10" />
 </defs>
 <defs
   class="EmbeddedBulletChars"
   id="defs44">
  <g
   id="bullet-char-template-57356"
   transform="matrix(4.8828125e-4,0,0,-4.8828125e-4,0,0)">
   <path
   d="M 580,1141 1163,571 580,0 -4,571 Z"
   id="path14"
   inkscape:connector-curvature="0" />
  </g>
  <g
   id="bullet-char-template-57354"
   transform="matrix(4.8828125e-4,0,0,-4.8828125e-4,0,0)">
   <path
   d="M 8,1128 H 1137 V 0 H 8 Z"
   id="path17"
   inkscape:connector-curvature="0" />
  </g>
  <g
   id="bullet-char-template-10146"
   transform="matrix(4.8828125e-4,0,0,-4.8828125e-4,0,0)">
   <path
   d="M 174,0 602,739 174,1481 1456,739 Z M 1358,739 309,1346 659,739 Z"
   id="path20"
   inkscape:connector-curvature="0" />
  </g>
  <g
   id="bullet-char-template-10132"
   transform="matrix(4.8828125e-4,0,0,-4.8828125e-4,0,0)">
   <path
   d="M 2015,739 1276,0 H 717 l 543,543 H 174 v 393 h 1086 l -543,545 h 557 z"
   id="path23"
   inkscape:connector-curvature="0" />
  </g>
  <g
   id="bullet-char-template-10007"
   transform="matrix(4.8828125e-4,0,0,-4.8828125e-4,0,0)">
   <path
   d="m 0,-2 c -7,16 -16,29 -25,39 l 381,530 c -94,256 -141,385 -141,387 0,25 13,38 40,38 9,0 21,-2 34,-5 21,4 42,12 65,25 l 27,-13 111,-251 280,301 64,-25 24,25 c 21,-10 41,-24 62,-43 C 886,937 835,863 770,784 769,783 710,716 594,584 L 774,223 c 0,-27 -21,-55 -63,-84 l 16,-20 C 717,90 699,76 672,76 641,76 570,178 457,381 L 164,-76 c -22,-34 -53,-51 -92,-51 -42,0 -63,17 -64,51 -7,9 -10,24 -10,44 0,9 1,19 2,30 z"
   id="path26"
   inkscape:connector-curvature="0" />
  </g>
  <g
   id="bullet-char-template-10004"
   transform="matrix(4.8828125e-4,0,0,-4.8828125e-4,0,0)">
   <path
   d="M 285,-33 C 182,-33 111,30 74,156 52,228 41,333 41,471 c 0,78 14,145 41,201 34,71 87,106 158,106 53,0 88,-31 106,-94 l 23,-176 c 8,-64 28,-97 59,-98 l 735,706 c 11,11 33,17 66,17 42,0 63,-15 63,-46 V 965 c 0,-36 -10,-64 -30,-84 L 442,47 C 390,-6 338,-33 285,-33 Z"
   id="path29"
   inkscape:connector-curvature="0" />
  </g>
  <g
   id="bullet-char-template-9679"
   transform="matrix(4.8828125e-4,0,0,-4.8828125e-4,0,0)">
   <path
   d="M 813,0 C 632,0 489,54 383,161 276,268 223,411 223,592 c 0,181 53,324 160,431 106,107 249,161 430,161 179,0 323,-54 432,-161 108,-107 162,-251 162,-431 0,-180 -54,-324 -162,-431 C 1136,54 992,0 813,0 Z"
   id="path32"
   inkscape:connector-curvature="0" />
  </g>
  <g
   id="bullet-char-template-8226"
   transform="matrix(4.8828125e-4,0,0,-4.8828125e-4,0,0)">
   <path
   d="m 346,457 c -73,0 -137,26 -191,78 -54,51 -81,114 -81,188 0,73 27,136 81,188 54,52 118,78 191,78 73,0 134,-26 185,-79 51,-51 77,-114 77,-187 0,-75 -25,-137 -76,-188 -50,-52 -112,-78 -186,-78 z"
   id="path35"
   inkscape:connector-curvature="0" />
  </g>
  <g
   id="bullet-char-template-8211"
   transform="matrix(4.8828125e-4,0,0,-4.8828125e-4,0,0)">
   <path
   d="M -4,459 H 1135 V 606 H -4 Z"
   id="path38"
   inkscape:connector-curvature="0" />
  </g>
  <g
   id="bullet-char-template-61548"
   transform="matrix(4.8828125e-4,0,0,-4.8828125e-4,0,0)">
   <path
   d="m 173,740 c 0,163 58,303 173,419 116,115 255,173 419,173 163,0 302,-58 418,-173 116,-116 174,-256 174,-419 0,-163 -58,-303 -174,-418 C 1067,206 928,148 765,148 601,148 462,206 346,322 231,437 173,577 173,740 Z"
   id="path41"
   inkscape:connector-curvature="0" />
  </g>
 </defs>
 <g
   id="g49"
   transform="translate(-10048,-13846)">
  <g
   id="id2"
   class="Master_Slide">
   <g
   id="bg-id2"
   class="Background" />
   <g
   id="bo-id2"
   class="BackgroundObjects" />
  </g>
 </g>
 <g
   class="SlideGroup"
   id="g101"
   transform="translate(-10048,-13846)">
  <g
   id="g99">
   <g
   id="container-id1">
    <g
   id="id1"
   class="Slide"
   clip-path="url(#presentation_clip_path)">
     <g
   class="Page"
   id="g95">
      <g
   class="Graphic"
   id="g93">
       <g
   id="id3">
        <rect
   class="BoundingBox"
   x="10048"
   y="13846"
   width="904"
   height="2007"
   id="rect51"
   style="fill:none;stroke:none" />
        <defs
   id="defs56">
         <clipPath
   id="clip_path_1"
   clipPathUnits="userSpaceOnUse">
          <path
   d="m 10048,13846 h 903 v 2006 h -903 z"
   id="path53"
   inkscape:connector-curvature="0" />
         </clipPath>
        </defs>
        <g
   clip-path="url(#clip_path_1)"
   id="g90">
         <path
   d="m 10552,15215 -7,30 -11,36 -15,38 -18,43 -23,43 -25,46 -28,48 -31,46 -33,49 -35,45 -36,44 -36,43 -35,38 -39,33 -38,31 -35,25 h -36 l 41,-25 38,-31 41,-36 38,-40 38,-41 36,-43 35,-46 33,-48 31,-46 28,-48 25,-46 23,-43 18,-41 15,-38 11,-36 7,-30 z"
   id="path58"
   inkscape:connector-curvature="0"
   style="fill:#72bff2;stroke:none" />
         <path
   d="m 10601,14777 12,-15 16,-18 15,-15 20,-16 18,-15 23,-13 25,-12 26,-13 43,-36 36,-43 36,-46 28,-48 22,-51 16,-51 12,-56 3,-53 -3,-43 -7,-44 -10,-43 -16,-38 -20,-38 -20,-36 -28,-33 -28,-30 -34,-28 -35,-23 -36,-23 -41,-18 -40,-13 -44,-12 -45,-5 -46,-3 -46,3 -46,5 -43,12 -41,13 -38,18 -38,23 -36,23 -31,28 -30,30 -26,33 -23,36 -17,38 -16,38 -10,43 -7,44 -3,43 5,58 10,56 18,56 26,54 33,51 35,45 44,44 45,35 8,5 13,8 15,10 15,13 21,15 20,18 20,20 21,23 h 13 l 20,-2 h 28 l 28,-3 31,-2 h 30 l 28,-3 z"
   id="path60"
   inkscape:connector-curvature="0"
   style="fill:#ba19ff;stroke:none" />
         <path
   d="m 10397,14787 15,21 15,20 13,23 13,25 13,26 10,28 7,28 6,30 h 50 l 3,-41 8,-53 17,-56 34,-61 h -26 l -28,3 h -30 l -31,2 -28,3 h -28 l -20,2 z"
   id="path62"
   inkscape:connector-curvature="0"
   style="fill:#72bff2;stroke:none" />
         <path
   d="m 10618,15049 v 28 h -213 v -28 z"
   id="path64"
   inkscape:connector-curvature="0"
   style="fill:#e099ff;stroke:none" />
         <path
   d="m 10499,13846 20,8 20,25 21,41 20,51 18,63 13,74 10,81 3,87 -8,112 -18,104 -23,97 -18,76 -12,33 -11,31 -10,28 -7,25 43,-2 7,-16 11,-15 12,-13 13,-15 13,-13 18,-15 15,-15 20,-15 26,-36 28,-43 25,-46 26,-48 23,-51 15,-54 10,-53 5,-56 -7,-87 -23,-81 -33,-74 -44,-63 -51,-51 -56,-41 -58,-25 z"
   id="path66"
   inkscape:connector-curvature="0"
   style="fill:#0000ff;stroke:none" />
         <path
   d="m 10499,13846 -56,8 -59,25 -56,41 -51,53 -43,64 -36,74 -23,81 -7,86 5,56 13,56 20,56 25,51 28,51 31,46 33,41 31,38 7,7 10,11 11,12 12,15 13,16 13,18 10,15 5,18 h 41 v -26 -25 l -5,-31 -13,-35 -13,-36 -15,-41 -13,-45 -15,-51 -13,-51 -10,-54 -8,-56 -2,-56 2,-86 11,-81 15,-74 18,-64 20,-53 23,-41 20,-25 z"
   id="path68"
   inkscape:connector-curvature="0"
   style="fill:#0000ff;stroke:none" />
         <path
   d="m 10608,15423 28,-211 h -249 l 30,211 z"
   id="path70"
   inkscape:connector-curvature="0"
   style="fill:#0000ff;stroke:none" />
         <path
   d="m 10427,15049 -249,-481 h -26 l 253,481 z"
   id="path72"
   inkscape:connector-curvature="0"
   style="fill:#0000ff;stroke:none" />
         <path
   d="m 10593,15049 227,-481 h 25 l -227,481 z"
   id="path74"
   inkscape:connector-curvature="0"
   style="fill:#0000ff;stroke:none" />
         <path
   d="m 10427,15077 -17,138 h -23 l 18,-138 z"
   id="path76"
   inkscape:connector-curvature="0"
   style="fill:#0000ff;stroke:none" />
         <path
   d="m 10593,15077 18,138 h 25 l -18,-138 z"
   id="path78"
   inkscape:connector-curvature="0"
   style="fill:#0000ff;stroke:none" />
         <path
   d="m 10081,14113 -5,13 -5,15 -5,15 -5,16 878,5 -5,-13 -2,-15 -5,-16 -6,-12 z"
   id="path80"
   inkscape:connector-curvature="0"
   style="fill:#72bff2;stroke:none" />
         <path
   d="m 10152,14568 -10,-12 -10,-16 -10,-15 -10,-15 771,5 -10,15 -10,13 -10,15 -10,13 z"
   id="path82"
   inkscape:connector-curvature="0"
   style="fill:#72bff2;stroke:none" />
         <path
   d="m 10399,15243 8,22 -8,13 -12,31 -3,30 28,13 26,-13 v -33 l -13,-30 -8,-13 3,-23 z"
   id="path84"
   inkscape:connector-curvature="0"
   style="fill:#ffffff;stroke:none" />
         <path
   d="m 10494,15243 7,22 -7,13 -16,31 v 30 l 28,13 26,-13 -3,-33 -12,-30 -8,-13 5,-23 z"
   id="path86"
   inkscape:connector-curvature="0"
   style="fill:#ffffff;stroke:none" />
         <path
   d="m 10598,15243 8,22 -8,13 -13,31 -2,30 28,13 25,-13 -2,-33 -13,-30 -8,-13 5,-23 z"
   id="path88"
   inkscape:connector-curvature="0"
   style="fill:#ffffff;stroke:none" />
        </g>
       </g>
      </g>
     </g>
    </g>
   </g>
  </g>
 </g>
</svg>