<?xml version="1.0" encoding="UTF-8" standalone="no"?>
<svg
   xmlns:ooo="http://xml.openoffice.org/svg/export"
   xmlns:dc="http://purl.org/dc/elements/1.1/"
   xmlns:cc="http://creativecommons.org/ns#"
   xmlns:rdf="http://www.w3.org/1999/02/22-rdf-syntax-ns#"
   xmlns:svg="http://www.w3.org/2000/svg"
   xmlns="http://www.w3.org/2000/svg"
   xmlns:sodipodi="http://sodipodi.sourceforge.net/DTD/sodipodi-0.dtd"
   xmlns:inkscape="http://www.inkscape.org/namespaces/inkscape"
   version="1.2"
   width="15.82mm"
   height="11.3mm"
   viewBox="0 0 1582 1130"
   preserveAspectRatio="xMidYMid"
   xml:space="preserve"
   id="svg149"
   sodipodi:docname="ballcap.svg"
   style="fill-rule:evenodd;stroke-width:28.22200012;stroke-linejoin:round"
   inkscape:version="0.92.5 (2060ec1f9f, 2020-04-08)"><metadata
   id="metadata153"><rdf:RDF><cc:Work
       rdf:about=""><dc:format>image/svg+xml</dc:format><dc:type
         rdf:resource="http://purl.org/dc/dcmitype/StillImage" /></cc:Work></rdf:RDF></metadata><sodipodi:namedview
   pagecolor="#ffffff"
   bordercolor="#666666"
   borderopacity="1"
   objecttolerance="10"
   gridtolerance="10"
   guidetolerance="10"
   inkscape:pageopacity="0"
   inkscape:pageshadow="2"
   inkscape:window-width="664"
   inkscape:window-height="487"
   id="namedview151"
   showgrid="false"
   inkscape:zoom="0.2102413"
   inkscape:cx="29.896064"
   inkscape:cy="21.354329"
   inkscape:window-x="0"
   inkscape:window-y="0"
   inkscape:window-maximized="0"
   inkscape:current-layer="svg149" />
 <defs
   class="ClipPathGroup"
   id="defs8">
  <clipPath
   id="presentation_clip_path"
   clipPathUnits="userSpaceOnUse">
   <rect
   x="0"
   y="0"
   width="21000"
   height="29700"
   id="rect2" />
  </clipPath>
  <clipPath
   id="presentation_clip_path_shrink"
   clipPathUnits="userSpaceOnUse">
   <rect
   x="21"
   y="29"
   width="20958"
   height="29641"
   id="rect5" />
  </clipPath>
 </defs>
 <defs
   class="TextShapeIndex"
   id="defs12">
  <g
   ooo:slide="id1"
   ooo:id-list="id3"
   id="g10" />
 </defs>
 <defs
   class="EmbeddedBulletChars"
   id="defs44">
  <g
   id="bullet-char-template-57356"
   transform="matrix(4.8828125e-4,0,0,-4.8828125e-4,0,0)">
   <path
   d="M 580,1141 1163,571 580,0 -4,571 Z"
   id="path14"
   inkscape:connector-curvature="0" />
  </g>
  <g
   id="bullet-char-template-57354"
   transform="matrix(4.8828125e-4,0,0,-4.8828125e-4,0,0)">
   <path
   d="M 8,1128 H 1137 V 0 H 8 Z"
   id="path17"
   inkscape:connector-curvature="0" />
  </g>
  <g
   id="bullet-char-template-10146"
   transform="matrix(4.8828125e-4,0,0,-4.8828125e-4,0,0)">
   <path
   d="M 174,0 602,739 174,1481 1456,739 Z M 1358,739 309,1346 659,739 Z"
   id="path20"
   inkscape:connector-curvature="0" />
  </g>
  <g
   id="bullet-char-template-10132"
   transform="matrix(4.8828125e-4,0,0,-4.8828125e-4,0,0)">
   <path
   d="M 2015,739 1276,0 H 717 l 543,543 H 174 v 393 h 1086 l -543,545 h 557 z"
   id="path23"
   inkscape:connector-curvature="0" />
  </g>
  <g
   id="bullet-char-template-10007"
   transform="matrix(4.8828125e-4,0,0,-4.8828125e-4,0,0)">
   <path
   d="m 0,-2 c -7,16 -16,29 -25,39 l 381,530 c -94,256 -141,385 -141,387 0,25 13,38 40,38 9,0 21,-2 34,-5 21,4 42,12 65,25 l 27,-13 111,-251 280,301 64,-25 24,25 c 21,-10 41,-24 62,-43 C 886,937 835,863 770,784 769,783 710,716 594,584 L 774,223 c 0,-27 -21,-55 -63,-84 l 16,-20 C 717,90 699,76 672,76 641,76 570,178 457,381 L 164,-76 c -22,-34 -53,-51 -92,-51 -42,0 -63,17 -64,51 -7,9 -10,24 -10,44 0,9 1,19 2,30 z"
   id="path26"
   inkscape:connector-curvature="0" />
  </g>
  <g
   id="bullet-char-template-10004"
   transform="matrix(4.8828125e-4,0,0,-4.8828125e-4,0,0)">
   <path
   d="M 285,-33 C 182,-33 111,30 74,156 52,228 41,333 41,471 c 0,78 14,145 41,201 34,71 87,106 158,106 53,0 88,-31 106,-94 l 23,-176 c 8,-64 28,-97 59,-98 l 735,706 c 11,11 33,17 66,17 42,0 63,-15 63,-46 V 965 c 0,-36 -10,-64 -30,-84 L 442,47 C 390,-6 338,-33 285,-33 Z"
   id="path29"
   inkscape:connector-curvature="0" />
  </g>
  <g
   id="bullet-char-template-9679"
   transform="matrix(4.8828125e-4,0,0,-4.8828125e-4,0,0)">
   <path
   d="M 813,0 C 632,0 489,54 383,161 276,268 223,411 223,592 c 0,181 53,324 160,431 106,107 249,161 430,161 179,0 323,-54 432,-161 108,-107 162,-251 162,-431 0,-180 -54,-324 -162,-431 C 1136,54 992,0 813,0 Z"
   id="path32"
   inkscape:connector-curvature="0" />
  </g>
  <g
   id="bullet-char-template-8226"
   transform="matrix(4.8828125e-4,0,0,-4.8828125e-4,0,0)">
   <path
   d="m 346,457 c -73,0 -137,26 -191,78 -54,51 -81,114 -81,188 0,73 27,136 81,188 54,52 118,78 191,78 73,0 134,-26 185,-79 51,-51 77,-114 77,-187 0,-75 -25,-137 -76,-188 -50,-52 -112,-78 -186,-78 z"
   id="path35"
   inkscape:connector-curvature="0" />
  </g>
  <g
   id="bullet-char-template-8211"
   transform="matrix(4.8828125e-4,0,0,-4.8828125e-4,0,0)">
   <path
   d="M -4,459 H 1135 V 606 H -4 Z"
   id="path38"
   inkscape:connector-curvature="0" />
  </g>
  <g
   id="bullet-char-template-61548"
   transform="matrix(4.8828125e-4,0,0,-4.8828125e-4,0,0)">
   <path
   d="m 173,740 c 0,163 58,303 173,419 116,115 255,173 419,173 163,0 302,-58 418,-173 116,-116 174,-256 174,-419 0,-163 -58,-303 -174,-418 C 1067,206 928,148 765,148 601,148 462,206 346,322 231,437 173,577 173,740 Z"
   id="path41"
   inkscape:connector-curvature="0" />
  </g>
 </defs>
 <g
   id="g49"
   transform="translate(-9709,-14285)">
  <g
   id="id2"
   class="Master_Slide">
   <g
   id="bg-id2"
   class="Background" />
   <g
   id="bo-id2"
   class="BackgroundObjects" />
  </g>
 </g>
 <g
   class="SlideGroup"
   id="g147"
   transform="translate(-9709,-14285)">
  <g
   id="g145">
   <g
   id="container-id1">
    <g
   id="id1"
   class="Slide"
   clip-path="url(#presentation_clip_path)">
     <g
   class="Page"
   id="g141">
      <g
   class="Graphic"
   id="g139">
       <g
   id="id3">
        <rect
   class="BoundingBox"
   x="9709"
   y="14285"
   width="1582"
   height="1130"
   id="rect51"
   style="fill:none;stroke:none" />
        <defs
   id="defs56">
         <clipPath
   id="clip_path_1"
   clipPathUnits="userSpaceOnUse">
          <path
   d="m 9709,14285 h 1581 v 1129 H 9709 Z"
   id="path53"
   inkscape:connector-curvature="0" />
         </clipPath>
        </defs>
        <g
   clip-path="url(#clip_path_1)"
   id="g136">
         <path
   d="m 9877,15227 2,58 21,-18 20,-23 20,-25 18,-31 16,-28 12,-25 8,-23 5,-15 z"
   id="path58"
   inkscape:connector-curvature="0"
   style="fill:#ffffff;stroke:none" />
         <path
   d="m 9874,15275 16,10 -3,-58 h -20 l 2,58 15,10 -17,-10 5,8 7,2 8,-2 5,-8 z"
   id="path60"
   inkscape:connector-curvature="0"
   style="fill:#000000;stroke:none" />
         <path
   d="m 10007,15105 -18,-8 -5,13 -8,23 -13,22 -15,28 -18,31 -18,23 -20,23 -18,15 10,20 23,-20 21,-23 23,-28 17,-30 16,-28 12,-28 8,-23 5,-18 -18,-8 18,8 -2,-8 -8,-2 -8,2 -2,8 z"
   id="path62"
   inkscape:connector-curvature="0"
   style="fill:#000000;stroke:none" />
         <path
   d="m 9887,15227 -3,7 123,-129 -16,-16 -122,130 -2,8 2,-8 -2,8 2,7 8,3 7,-3 z"
   id="path64"
   inkscape:connector-curvature="0"
   style="fill:#000000;stroke:none" />
         <path
   d="m 11146,14957 -13,-28 -10,-26 -10,-22 -8,-23 18,-8 15,-13 16,-18 10,-17 5,-18 2,-15 -7,-16 -13,-10 23,13 23,18 18,25 10,31 2,33 -10,33 -28,30 z"
   id="path66"
   inkscape:connector-curvature="0"
   style="fill:#ffffff;stroke:none" />
         <path
   d="m 11103,14847 -8,13 8,23 10,23 10,25 13,31 20,-10 -13,-26 -10,-25 -10,-23 -7,-23 -8,13 8,-13 -6,-8 h -7 l -5,6 -3,7 z"
   id="path68"
   inkscape:connector-curvature="0"
   style="fill:#000000;stroke:none" />
         <path
   d="m 11154,14733 -5,20 7,8 5,8 -2,12 -5,18 -11,15 -12,16 -13,10 -15,7 5,21 20,-8 18,-15 18,-20 10,-21 5,-18 3,-17 -11,-23 -17,-13 -5,20 5,-20 -8,2 -5,6 2,7 6,5 z"
   id="path70"
   inkscape:connector-curvature="0"
   style="fill:#000000;stroke:none" />
         <path
   d="m 11136,14962 15,5 46,-33 30,-33 11,-38 -3,-33 -10,-36 -20,-28 -26,-20 -25,-13 -5,20 20,13 20,15 16,23 10,26 2,33 -10,28 -25,28 -41,28 15,5 -15,-5 -5,5 v 7 l 7,8 h 8 z"
   id="path72"
   inkscape:connector-curvature="0"
   style="fill:#000000;stroke:none" />
         <path
   d="m 10754,15125 11,-69 v -97 l -11,-109 -20,-117 -36,-115 -53,-96 -74,-77 -91,-40 20,-8 28,-10 36,-8 40,-5 49,-5 h 50 54 l 56,8 56,10 53,18 51,23 48,30 44,38 35,49 31,56 20,66 -18,10 -17,18 -13,23 -10,30 -3,38 8,49 18,56 30,66 -15,25 -26,28 -35,28 -46,26 -56,25 -64,18 -71,13 z"
   id="path74"
   inkscape:connector-curvature="0"
   style="fill:#0772ba;stroke:none" />
         <path
   d="m 10475,14394 5,21 86,41 69,71 53,94 36,114 20,115 10,109 v 97 l -10,66 21,5 10,-71 v -97 l -10,-109 -21,-120 -35,-114 -54,-99 -79,-82 -96,-41 5,21 -5,-21 -8,3 -3,8 3,7 8,3 z"
   id="path76"
   inkscape:connector-curvature="0"
   style="fill:#000000;stroke:none" />
         <path
   d="m 11156,14677 5,-13 -20,-66 -31,-58 -38,-51 -46,-39 -48,-33 -53,-23 -54,-17 -58,-11 -56,-7 -54,-3 -50,3 -49,5 -40,5 -39,8 -28,10 -22,7 10,21 18,-8 28,-10 33,-8 40,-5 49,-5 50,3 54,-3 56,8 53,10 54,18 48,23 48,28 41,38 33,46 31,53 20,66 5,-12 -5,12 5,5 8,3 5,-5 2,-8 z"
   id="path78"
   inkscape:connector-curvature="0"
   style="fill:#000000;stroke:none" />
         <path
   d="m 11156,14959 v -7 l -30,-64 -18,-56 -8,-46 3,-38 10,-28 10,-20 18,-15 15,-8 -10,-20 -20,12 -18,21 -15,25 -11,33 -2,38 8,51 17,56 31,69 v -8 8 l 5,5 h 10 l 5,-8 v -7 z"
   id="path80"
   inkscape:connector-curvature="0"
   style="fill:#000000;stroke:none" />
         <path
   d="m 10744,15122 10,16 79,-8 74,-13 64,-18 58,-25 46,-25 38,-31 25,-28 18,-31 -20,-5 -13,21 -25,28 -33,25 -46,26 -54,25 -63,18 -69,13 -79,2 11,15 -11,-15 -7,5 -3,8 3,8 7,5 z"
   id="path82"
   inkscape:connector-curvature="0"
   style="fill:#000000;stroke:none" />
         <path
   d="m 11105,14858 18,-8 15,-13 16,-18 10,-17 5,-18 2,-15 -7,-16 -13,-10 -58,-8 -5,31 v 25 l 7,28 13,31 z"
   id="path84"
   inkscape:connector-curvature="0"
   style="fill:#3893d1;stroke:none" />
         <path
   d="m 11151,14753 h -2 l 7,8 5,8 -2,12 -5,18 -11,15 -12,16 -13,10 -15,7 5,21 20,-8 18,-15 18,-20 10,-21 5,-18 3,-17 -11,-23 -17,-13 h -3 3 l -8,2 -5,6 2,7 6,5 z"
   id="path86"
   inkscape:connector-curvature="0"
   style="fill:#000000;stroke:none" />
         <path
   d="m 11103,14738 -10,8 58,7 v -20 l -58,-8 -11,8 11,-8 -8,3 -3,7 3,8 8,3 z"
   id="path88"
   inkscape:connector-curvature="0"
   style="fill:#000000;stroke:none" />
         <path
   d="m 11118,14853 v -8 l -13,-28 -7,-26 v -25 l 5,-28 -21,-5 -5,33 v 25 l 8,31 13,33 v -8 8 l 5,5 h 10 l 5,-7 v -8 z"
   id="path90"
   inkscape:connector-curvature="0"
   style="fill:#000000;stroke:none" />
         <path
   d="m 11103,14847 13,13 2,-7 -20,-6 -3,8 13,13 -13,-13 3,8 5,5 7,-3 6,-5 z"
   id="path92"
   inkscape:connector-curvature="0"
   style="fill:#000000;stroke:none" />
         <path
   d="m 11103,14847 -5,6 -3,7 5,5 8,3 z"
   id="path94"
   inkscape:connector-curvature="0"
   style="fill:#000000;stroke:none" />
         <path
   d="m 11151,14753 h -2 l 7,8 5,8 -2,12 -5,18 -11,15 -12,16 -13,10 -15,7 5,21 20,-8 18,-15 18,-20 10,-21 5,-18 3,-17 -11,-23 -17,-13 h -3 3 l -8,2 -5,6 2,7 6,5 z"
   id="path96"
   inkscape:connector-curvature="0"
   style="fill:#000000;stroke:none" />
         <path
   d="m 11103,14738 -10,8 58,7 v -20 l -58,-8 -11,8 11,-8 -8,3 -3,7 3,8 8,3 z"
   id="path98"
   inkscape:connector-curvature="0"
   style="fill:#000000;stroke:none" />
         <path
   d="m 11118,14845 -13,-28 -7,-26 v -25 l 5,-28 -21,-5 -5,33 v 25 l 8,31 13,33 z"
   id="path100"
   inkscape:connector-curvature="0"
   style="fill:#000000;stroke:none" />
         <path
   d="m 11098,14855 5,5 h 10 l 5,-7 v -8 z"
   id="path102"
   inkscape:connector-curvature="0"
   style="fill:#000000;stroke:none" />
         <path
   d="m 10480,14405 h -26 l -33,5 -38,7 -41,16 -43,17 -46,23 -43,31 -43,33 -41,41 -38,45 -31,54 -25,56 -18,64 -10,71 3,76 12,84 23,-2 28,-3 38,-2 41,-3 48,-3 51,-2 h 54 56 l 56,5 55,5 56,8 54,10 51,15 45,18 44,23 35,28 11,-69 v -97 l -11,-109 -20,-117 -36,-115 -53,-96 -74,-77 z"
   id="path104"
   inkscape:connector-curvature="0"
   style="fill:#6bafdd;stroke:none" />
         <path
   d="m 10019,15018 10,8 -12,-82 -3,-76 10,-69 18,-64 26,-53 30,-53 36,-44 40,-40 41,-31 43,-30 46,-23 41,-18 41,-15 35,-8 33,-5 h 26 v -21 h -26 l -33,6 -41,7 -40,15 -46,18 -46,23 -43,31 -46,35 -41,41 -40,48 -31,54 -25,58 -18,64 -10,74 2,76 13,87 10,7 -10,-7 5,5 8,2 5,-5 2,-7 z"
   id="path106"
   inkscape:connector-curvature="0"
   style="fill:#000000;stroke:none" />
         <path
   d="m 10744,15122 18,-5 -38,-30 -43,-23 -49,-18 -51,-15 -56,-10 -56,-8 -55,-5 -56,-5 -56,-3 h -54 l -51,5 -48,3 -41,2 -38,3 -28,2 -23,3 v 20 l 23,-2 28,-3 38,-2 41,-3 48,-2 h 51 54 l 56,-3 56,5 55,5 56,8 51,10 51,15 43,18 44,23 33,26 18,-6 -18,6 7,2 8,-2 3,-8 -3,-8 z"
   id="path108"
   inkscape:connector-curvature="0"
   style="fill:#000000;stroke:none" />
         <path
   d="m 10480,14415 v 0 l 86,41 69,71 53,94 36,114 20,115 10,109 v 97 l -10,66 21,5 10,-71 v -97 l -10,-109 -21,-120 -35,-114 -54,-99 -79,-82 -96,-41 v 0 0 l -8,3 -3,8 3,7 z"
   id="path110"
   inkscape:connector-curvature="0"
   style="fill:#000000;stroke:none" />
         <path
   d="m 10754,15125 -35,-28 -44,-23 -45,-18 -51,-15 -54,-10 -56,-8 -55,-5 -56,-5 h -56 -54 l -51,2 -48,3 -41,3 -38,2 -28,3 -23,2 -45,26 -46,28 -46,30 -43,31 -41,33 -36,30 -28,33 -17,33 v 13 l 5,10 10,11 13,7 15,5 h 18 l 20,-5 20,-10 26,-13 33,-5 h 43 l 48,5 54,10 61,16 61,23 64,25 43,10 h 46 l 45,-12 49,-21 40,-23 38,-23 28,-20 21,-13 13,-10 20,-13 25,-15 31,-18 35,-20 36,-20 38,-21 z"
   id="path112"
   inkscape:connector-curvature="0"
   style="fill:#6bafdd;stroke:none" />
         <path
   d="m 10024,15038 h -5 l 23,-2 28,-3 38,-2 41,-3 48,-2 h 51 54 l 56,-3 56,5 55,5 56,8 51,10 51,15 43,18 44,23 33,26 15,-16 -38,-30 -43,-23 -49,-18 -51,-15 -56,-10 -56,-8 -55,-5 -56,-5 -56,-3 h -54 l -51,5 -48,3 -41,2 -38,3 -28,2 -23,3 h -5 5 l -7,3 -3,7 3,8 7,2 z"
   id="path114"
   inkscape:connector-curvature="0"
   style="fill:#000000;stroke:none" />
         <path
   d="m 9727,15275 v 0 l 18,-31 25,-30 36,-31 40,-33 41,-28 46,-30 46,-28 45,-26 -10,-20 -46,25 -45,28 -46,31 -46,33 -41,33 -35,31 -31,35 -18,36 v 0 z"
   id="path116"
   inkscape:connector-curvature="0"
   style="fill:#000000;stroke:none" />
         <path
   d="m 9811,15295 2,-2 -18,10 -17,5 h -18 l -10,-5 -10,-5 -11,-8 -2,-7 v -8 l -21,-5 v 18 l 8,12 10,13 16,10 20,5 h 18 l 23,-5 22,-10 3,-2 z"
   id="path118"
   inkscape:connector-curvature="0"
   style="fill:#000000;stroke:none" />
         <path
   d="m 10213,15354 v 0 l -67,-26 -61,-22 -61,-16 -56,-10 -48,-5 h -43 l -36,5 -30,15 15,16 20,-11 31,-5 h 43 l 48,5 51,11 61,15 61,23 61,25 v 0 z"
   id="path120"
   inkscape:connector-curvature="0"
   style="fill:#000000;stroke:none" />
         <path
   d="m 10510,15255 3,-3 -21,13 -28,20 -38,23 -40,23 -46,20 -43,13 h -46 l -38,-10 -11,20 49,10 h 46 l 48,-12 51,-21 40,-23 39,-22 28,-21 20,-13 2,-2 z"
   id="path122"
   inkscape:connector-curvature="0"
   style="fill:#000000;stroke:none" />
         <path
   d="m 10747,15133 2,-18 -38,20 -38,20 -36,21 -35,20 -31,18 -25,15 -21,13 -15,13 15,15 11,-8 20,-12 25,-16 31,-18 36,-20 35,-20 38,-21 38,-20 3,-18 -3,18 6,-5 v -10 l -8,-5 h -8 z"
   id="path124"
   inkscape:connector-curvature="0"
   style="fill:#000000;stroke:none" />
         <path
   d="m 10497,14450 31,-7 23,-13 13,-15 7,-18 v -13 l -5,-12 -8,-8 -10,-8 -15,-5 -15,-2 h -15 l -16,2 -18,3 -15,2 -15,8 -13,8 -10,10 -5,10 -3,10 6,13 5,7 7,8 8,8 10,5 13,2 12,3 13,2 z"
   id="path126"
   inkscape:connector-curvature="0"
   style="fill:#0772ba;stroke:none" />
         <path
   d="m 10561,14397 v -3 l -8,16 -10,12 -18,11 -28,7 v 21 l 34,-8 27,-15 16,-18 7,-20 v -3 z"
   id="path128"
   inkscape:connector-curvature="0"
   style="fill:#000000;stroke:none" />
         <path
   d="m 10487,14361 v 0 l 16,-2 h 15 l 13,2 12,5 8,6 5,5 5,7 v 13 h 20 v -13 l -5,-18 -10,-10 -13,-10 -17,-5 -18,-3 h -15 l -16,3 v 0 z"
   id="path130"
   inkscape:connector-curvature="0"
   style="fill:#000000;stroke:none" />
         <path
   d="m 10424,14410 v 0 l -5,-8 2,-8 3,-7 10,-8 10,-5 13,-8 12,-2 18,-3 v -20 l -18,3 -17,2 -18,8 -15,10 -11,13 -7,12 -3,13 5,18 v 0 z"
   id="path132"
   inkscape:connector-curvature="0"
   style="fill:#000000;stroke:none" />
         <path
   d="m 10497,14440 v 0 h -15 l -13,-2 -12,-3 -10,-2 -8,-5 -5,-6 -8,-7 -2,-5 -21,10 8,10 8,8 10,10 13,5 15,3 12,2 13,3 h 15 v 0 z"
   id="path134"
   inkscape:connector-curvature="0"
   style="fill:#000000;stroke:none" />
        </g>
       </g>
      </g>
     </g>
    </g>
   </g>
  </g>
 </g>
</svg>