<?xml version="1.0" encoding="UTF-8" standalone="no"?>
<svg
   xmlns:ooo="http://xml.openoffice.org/svg/export"
   xmlns:dc="http://purl.org/dc/elements/1.1/"
   xmlns:cc="http://creativecommons.org/ns#"
   xmlns:rdf="http://www.w3.org/1999/02/22-rdf-syntax-ns#"
   xmlns:svg="http://www.w3.org/2000/svg"
   xmlns="http://www.w3.org/2000/svg"
   xmlns:sodipodi="http://sodipodi.sourceforge.net/DTD/sodipodi-0.dtd"
   xmlns:inkscape="http://www.inkscape.org/namespaces/inkscape"
   version="1.2"
   width="27.360001mm"
   height="23.83mm"
   viewBox="0 0 2736.0001 2383"
   preserveAspectRatio="xMidYMid"
   xml:space="preserve"
   id="svg99"
   sodipodi:docname="barnsilo.svg"
   style="fill-rule:evenodd;stroke-width:28.22200012;stroke-linejoin:round"
   inkscape:version="0.92.5 (2060ec1f9f, 2020-04-08)"><metadata
   id="metadata103"><rdf:RDF><cc:Work
       rdf:about=""><dc:format>image/svg+xml</dc:format><dc:type
         rdf:resource="http://purl.org/dc/dcmitype/StillImage" /></cc:Work></rdf:RDF></metadata><sodipodi:namedview
   pagecolor="#ffffff"
   bordercolor="#666666"
   borderopacity="1"
   objecttolerance="10"
   gridtolerance="10"
   guidetolerance="10"
   inkscape:pageopacity="0"
   inkscape:pageshadow="2"
   inkscape:window-width="664"
   inkscape:window-height="487"
   id="namedview101"
   showgrid="false"
   inkscape:zoom="0.2102413"
   inkscape:cx="51.703938"
   inkscape:cy="45.014172"
   inkscape:window-x="0"
   inkscape:window-y="0"
   inkscape:window-maximized="0"
   inkscape:current-layer="svg99" />
 <defs
   class="ClipPathGroup"
   id="defs8">
  <clipPath
   id="presentation_clip_path"
   clipPathUnits="userSpaceOnUse">
   <rect
   x="0"
   y="0"
   width="21000"
   height="29700"
   id="rect2" />
  </clipPath>
  <clipPath
   id="presentation_clip_path_shrink"
   clipPathUnits="userSpaceOnUse">
   <rect
   x="21"
   y="29"
   width="20958"
   height="29641"
   id="rect5" />
  </clipPath>
 </defs>
 <defs
   class="TextShapeIndex"
   id="defs12">
  <g
   ooo:slide="id1"
   ooo:id-list="id3"
   id="g10" />
 </defs>
 <defs
   class="EmbeddedBulletChars"
   id="defs44">
  <g
   id="bullet-char-template-57356"
   transform="matrix(4.8828125e-4,0,0,-4.8828125e-4,0,0)">
   <path
   d="M 580,1141 1163,571 580,0 -4,571 Z"
   id="path14"
   inkscape:connector-curvature="0" />
  </g>
  <g
   id="bullet-char-template-57354"
   transform="matrix(4.8828125e-4,0,0,-4.8828125e-4,0,0)">
   <path
   d="M 8,1128 H 1137 V 0 H 8 Z"
   id="path17"
   inkscape:connector-curvature="0" />
  </g>
  <g
   id="bullet-char-template-10146"
   transform="matrix(4.8828125e-4,0,0,-4.8828125e-4,0,0)">
   <path
   d="M 174,0 602,739 174,1481 1456,739 Z M 1358,739 309,1346 659,739 Z"
   id="path20"
   inkscape:connector-curvature="0" />
  </g>
  <g
   id="bullet-char-template-10132"
   transform="matrix(4.8828125e-4,0,0,-4.8828125e-4,0,0)">
   <path
   d="M 2015,739 1276,0 H 717 l 543,543 H 174 v 393 h 1086 l -543,545 h 557 z"
   id="path23"
   inkscape:connector-curvature="0" />
  </g>
  <g
   id="bullet-char-template-10007"
   transform="matrix(4.8828125e-4,0,0,-4.8828125e-4,0,0)">
   <path
   d="m 0,-2 c -7,16 -16,29 -25,39 l 381,530 c -94,256 -141,385 -141,387 0,25 13,38 40,38 9,0 21,-2 34,-5 21,4 42,12 65,25 l 27,-13 111,-251 280,301 64,-25 24,25 c 21,-10 41,-24 62,-43 C 886,937 835,863 770,784 769,783 710,716 594,584 L 774,223 c 0,-27 -21,-55 -63,-84 l 16,-20 C 717,90 699,76 672,76 641,76 570,178 457,381 L 164,-76 c -22,-34 -53,-51 -92,-51 -42,0 -63,17 -64,51 -7,9 -10,24 -10,44 0,9 1,19 2,30 z"
   id="path26"
   inkscape:connector-curvature="0" />
  </g>
  <g
   id="bullet-char-template-10004"
   transform="matrix(4.8828125e-4,0,0,-4.8828125e-4,0,0)">
   <path
   d="M 285,-33 C 182,-33 111,30 74,156 52,228 41,333 41,471 c 0,78 14,145 41,201 34,71 87,106 158,106 53,0 88,-31 106,-94 l 23,-176 c 8,-64 28,-97 59,-98 l 735,706 c 11,11 33,17 66,17 42,0 63,-15 63,-46 V 965 c 0,-36 -10,-64 -30,-84 L 442,47 C 390,-6 338,-33 285,-33 Z"
   id="path29"
   inkscape:connector-curvature="0" />
  </g>
  <g
   id="bullet-char-template-9679"
   transform="matrix(4.8828125e-4,0,0,-4.8828125e-4,0,0)">
   <path
   d="M 813,0 C 632,0 489,54 383,161 276,268 223,411 223,592 c 0,181 53,324 160,431 106,107 249,161 430,161 179,0 323,-54 432,-161 108,-107 162,-251 162,-431 0,-180 -54,-324 -162,-431 C 1136,54 992,0 813,0 Z"
   id="path32"
   inkscape:connector-curvature="0" />
  </g>
  <g
   id="bullet-char-template-8226"
   transform="matrix(4.8828125e-4,0,0,-4.8828125e-4,0,0)">
   <path
   d="m 346,457 c -73,0 -137,26 -191,78 -54,51 -81,114 -81,188 0,73 27,136 81,188 54,52 118,78 191,78 73,0 134,-26 185,-79 51,-51 77,-114 77,-187 0,-75 -25,-137 -76,-188 -50,-52 -112,-78 -186,-78 z"
   id="path35"
   inkscape:connector-curvature="0" />
  </g>
  <g
   id="bullet-char-template-8211"
   transform="matrix(4.8828125e-4,0,0,-4.8828125e-4,0,0)">
   <path
   d="M -4,459 H 1135 V 606 H -4 Z"
   id="path38"
   inkscape:connector-curvature="0" />
  </g>
  <g
   id="bullet-char-template-61548"
   transform="matrix(4.8828125e-4,0,0,-4.8828125e-4,0,0)">
   <path
   d="m 173,740 c 0,163 58,303 173,419 116,115 255,173 419,173 163,0 302,-58 418,-173 116,-116 174,-256 174,-419 0,-163 -58,-303 -174,-418 C 1067,206 928,148 765,148 601,148 462,206 346,322 231,437 173,577 173,740 Z"
   id="path41"
   inkscape:connector-curvature="0" />
  </g>
 </defs>
 <g
   id="g49"
   transform="translate(-9132,-13658)">
  <g
   id="id2"
   class="Master_Slide">
   <g
   id="bg-id2"
   class="Background" />
   <g
   id="bo-id2"
   class="BackgroundObjects" />
  </g>
 </g>
 <g
   class="SlideGroup"
   id="g97"
   transform="translate(-9132,-13658)">
  <g
   id="g95">
   <g
   id="container-id1">
    <g
   id="id1"
   class="Slide"
   clip-path="url(#presentation_clip_path)">
     <g
   class="Page"
   id="g91">
      <g
   class="Graphic"
   id="g89">
       <g
   id="id3">
        <rect
   class="BoundingBox"
   x="9132"
   y="13658"
   width="2736"
   height="2383"
   id="rect51"
   style="fill:none;stroke:none" />
        <defs
   id="defs56">
         <clipPath
   id="clip_path_1"
   clipPathUnits="userSpaceOnUse">
          <path
   d="m 9132,13658 h 2735 v 2382 H 9132 Z"
   id="path53"
   inkscape:connector-curvature="0" />
         </clipPath>
        </defs>
        <g
   clip-path="url(#clip_path_1)"
   id="g86">
         <path
   d="m 9930,15794 186,-173 v 346 z"
   id="path58"
   inkscape:connector-curvature="0"
   style="fill:#005172;stroke:none" />
         <path
   d="m 9508,16041 h -94 -63 -36 -18 -5 v 0 0 h -7 v -303 -404 -399 -285 l 20,-33 25,-46 33,-56 36,-64 36,-66 38,-66 35,-63 33,-56 39,-23 40,-23 43,-26 44,-25 45,-25 46,-26 49,-25 45,-26 46,-25 43,-26 41,-22 41,-21 35,-23 33,-17 28,-18 26,-16 25,16 28,18 33,17 38,23 38,21 41,22 43,26 46,25 46,26 46,25 45,26 46,25 46,25 41,26 40,23 38,23 34,56 38,63 38,66 35,66 36,64 31,56 25,46 20,33 v 259 466 450 216 h -33 -25 -23 -23 -25 -31 -41 -53 V 14825 H 9508 Z"
   id="path60"
   inkscape:connector-curvature="0"
   style="fill:#c60754;stroke:none" />
         <path
   d="m 11171,16041 h 51 54 50 49 51 45 49 43 43 43 38 39 33 33 30 26 v -404 -613 -575 -282 h -21 -30 -36 -46 -48 -56 -56 -56 -58 -54 -53 -46 -43 -33 -25 -16 v 386 611 579 z"
   id="path62"
   inkscape:connector-curvature="0"
   style="fill:#c60754;stroke:none" />
         <path
   d="m 10185,13729 25,15 33,21 36,20 40,23 44,25 45,26 49,28 51,28 50,28 51,28 51,30 51,28 48,28 49,26 43,25 41,26 22,35 23,41 23,43 26,43 25,46 26,46 22,43 23,41 v -23 -33 -36 -28 l -20,-33 -18,-35 -20,-36 -21,-36 -17,-33 -18,-33 -18,-30 -18,-28 -43,-26 -46,-28 -48,-28 -51,-30 -53,-31 -56,-30 -54,-31 -53,-30 -53,-28 -54,-31 -48,-25 -46,-28 -43,-23 -38,-23 -33,-20 -28,-18 -28,18 -33,20 -38,20 -44,23 -45,26 -51,25 -51,28 -54,28 -53,28 -56,31 -53,28 -54,30 -51,28 -50,28 -46,26 -43,25 -39,66 -43,71 -43,79 -46,79 -40,74 -39,66 -30,53 -23,36 h 20 18 18 15 l 21,-33 28,-51 35,-59 36,-66 40,-71 39,-71 40,-66 36,-61 40,-23 44,-26 45,-28 49,-25 51,-28 51,-25 50,-28 54,-28 48,-26 51,-25 46,-26 43,-22 41,-23 35,-21 33,-18 z"
   id="path64"
   inkscape:connector-curvature="0"
   style="fill:#005172;stroke:none" />
         <path
   d="m 11471,13727 -35,45 -28,51 -23,56 -15,56 -11,54 -7,45 -5,36 v 20 h 20 41 51 58 56 48 33 13 v -20 l -2,-33 -6,-46 -10,-51 -17,-56 -23,-56 -31,-53 -41,-48 61,12 51,31 41,46 33,56 25,61 18,58 13,56 8,43 h 81 l -8,-84 -20,-76 -30,-66 -44,-56 -53,-46 -61,-33 -69,-20 -76,-8 -76,8 -72,20 -61,33 -50,46 -44,56 -33,66 -18,76 -7,84 h 81 l 13,-51 15,-58 21,-61 25,-59 30,-53 39,-43 45,-28 z"
   id="path66"
   inkscape:connector-curvature="0"
   style="fill:#005172;stroke:none" />
         <path
   d="m 10126,15454 v -507 h -511 v 507 z"
   id="path68"
   inkscape:connector-curvature="0"
   style="fill:#005172;stroke:none" />
         <path
   d="m 10243,15454 v -507 h 491 v 507 z"
   id="path70"
   inkscape:connector-curvature="0"
   style="fill:#005172;stroke:none" />
         <path
   d="m 9864,15718 181,-165 h -361 z"
   id="path72"
   inkscape:connector-curvature="0"
   style="fill:#005172;stroke:none" />
         <path
   d="m 9803,15794 -188,-173 v 346 z"
   id="path74"
   inkscape:connector-curvature="0"
   style="fill:#005172;stroke:none" />
         <path
   d="m 9864,15866 181,165 h -361 z"
   id="path76"
   inkscape:connector-curvature="0"
   style="fill:#005172;stroke:none" />
         <path
   d="m 10492,15726 -178,-166 h 359 z"
   id="path78"
   inkscape:connector-curvature="0"
   style="fill:#005172;stroke:none" />
         <path
   d="m 10556,15804 186,-175 v 348 z"
   id="path80"
   inkscape:connector-curvature="0"
   style="fill:#005172;stroke:none" />
         <path
   d="m 10492,15873 -178,168 h 359 z"
   id="path82"
   inkscape:connector-curvature="0"
   style="fill:#005172;stroke:none" />
         <path
   d="m 10429,15804 -188,-175 v 348 z"
   id="path84"
   inkscape:connector-curvature="0"
   style="fill:#005172;stroke:none" />
        </g>
       </g>
      </g>
     </g>
    </g>
   </g>
  </g>
 </g>
</svg>