<?xml version="1.0" encoding="UTF-8" standalone="no"?>
<svg
   xmlns:ooo="http://xml.openoffice.org/svg/export"
   xmlns:dc="http://purl.org/dc/elements/1.1/"
   xmlns:cc="http://creativecommons.org/ns#"
   xmlns:rdf="http://www.w3.org/1999/02/22-rdf-syntax-ns#"
   xmlns:svg="http://www.w3.org/2000/svg"
   xmlns="http://www.w3.org/2000/svg"
   xmlns:sodipodi="http://sodipodi.sourceforge.net/DTD/sodipodi-0.dtd"
   xmlns:inkscape="http://www.inkscape.org/namespaces/inkscape"
   version="1.2"
   width="20.57mm"
   height="29.969999mm"
   viewBox="0 0 2057 2996.9999"
   preserveAspectRatio="xMidYMid"
   xml:space="preserve"
   id="svg591"
   sodipodi:docname="basket1.svg"
   style="fill-rule:evenodd;stroke-width:28.22200012;stroke-linejoin:round"
   inkscape:version="0.92.5 (2060ec1f9f, 2020-04-08)"><metadata
   id="metadata595"><rdf:RDF><cc:Work
       rdf:about=""><dc:format>image/svg+xml</dc:format><dc:type
         rdf:resource="http://purl.org/dc/dcmitype/StillImage" /></cc:Work></rdf:RDF></metadata><sodipodi:namedview
   pagecolor="#ffffff"
   bordercolor="#666666"
   borderopacity="1"
   objecttolerance="10"
   gridtolerance="10"
   guidetolerance="10"
   inkscape:pageopacity="0"
   inkscape:pageshadow="2"
   inkscape:window-width="664"
   inkscape:window-height="487"
   id="namedview593"
   showgrid="false"
   inkscape:zoom="0.2102413"
   inkscape:cx="38.89134"
   inkscape:cy="56.617321"
   inkscape:window-x="0"
   inkscape:window-y="0"
   inkscape:window-maximized="0"
   inkscape:current-layer="svg591" />
 <defs
   class="ClipPathGroup"
   id="defs8">
  <clipPath
   id="presentation_clip_path"
   clipPathUnits="userSpaceOnUse">
   <rect
   x="0"
   y="0"
   width="21000"
   height="29700"
   id="rect2" />
  </clipPath>
  <clipPath
   id="presentation_clip_path_shrink"
   clipPathUnits="userSpaceOnUse">
   <rect
   x="21"
   y="29"
   width="20958"
   height="29641"
   id="rect5" />
  </clipPath>
 </defs>
 <defs
   class="TextShapeIndex"
   id="defs12">
  <g
   ooo:slide="id1"
   ooo:id-list="id3"
   id="g10" />
 </defs>
 <defs
   class="EmbeddedBulletChars"
   id="defs44">
  <g
   id="bullet-char-template-57356"
   transform="matrix(4.8828125e-4,0,0,-4.8828125e-4,0,0)">
   <path
   d="M 580,1141 1163,571 580,0 -4,571 Z"
   id="path14"
   inkscape:connector-curvature="0" />
  </g>
  <g
   id="bullet-char-template-57354"
   transform="matrix(4.8828125e-4,0,0,-4.8828125e-4,0,0)">
   <path
   d="M 8,1128 H 1137 V 0 H 8 Z"
   id="path17"
   inkscape:connector-curvature="0" />
  </g>
  <g
   id="bullet-char-template-10146"
   transform="matrix(4.8828125e-4,0,0,-4.8828125e-4,0,0)">
   <path
   d="M 174,0 602,739 174,1481 1456,739 Z M 1358,739 309,1346 659,739 Z"
   id="path20"
   inkscape:connector-curvature="0" />
  </g>
  <g
   id="bullet-char-template-10132"
   transform="matrix(4.8828125e-4,0,0,-4.8828125e-4,0,0)">
   <path
   d="M 2015,739 1276,0 H 717 l 543,543 H 174 v 393 h 1086 l -543,545 h 557 z"
   id="path23"
   inkscape:connector-curvature="0" />
  </g>
  <g
   id="bullet-char-template-10007"
   transform="matrix(4.8828125e-4,0,0,-4.8828125e-4,0,0)">
   <path
   d="m 0,-2 c -7,16 -16,29 -25,39 l 381,530 c -94,256 -141,385 -141,387 0,25 13,38 40,38 9,0 21,-2 34,-5 21,4 42,12 65,25 l 27,-13 111,-251 280,301 64,-25 24,25 c 21,-10 41,-24 62,-43 C 886,937 835,863 770,784 769,783 710,716 594,584 L 774,223 c 0,-27 -21,-55 -63,-84 l 16,-20 C 717,90 699,76 672,76 641,76 570,178 457,381 L 164,-76 c -22,-34 -53,-51 -92,-51 -42,0 -63,17 -64,51 -7,9 -10,24 -10,44 0,9 1,19 2,30 z"
   id="path26"
   inkscape:connector-curvature="0" />
  </g>
  <g
   id="bullet-char-template-10004"
   transform="matrix(4.8828125e-4,0,0,-4.8828125e-4,0,0)">
   <path
   d="M 285,-33 C 182,-33 111,30 74,156 52,228 41,333 41,471 c 0,78 14,145 41,201 34,71 87,106 158,106 53,0 88,-31 106,-94 l 23,-176 c 8,-64 28,-97 59,-98 l 735,706 c 11,11 33,17 66,17 42,0 63,-15 63,-46 V 965 c 0,-36 -10,-64 -30,-84 L 442,47 C 390,-6 338,-33 285,-33 Z"
   id="path29"
   inkscape:connector-curvature="0" />
  </g>
  <g
   id="bullet-char-template-9679"
   transform="matrix(4.8828125e-4,0,0,-4.8828125e-4,0,0)">
   <path
   d="M 813,0 C 632,0 489,54 383,161 276,268 223,411 223,592 c 0,181 53,324 160,431 106,107 249,161 430,161 179,0 323,-54 432,-161 108,-107 162,-251 162,-431 0,-180 -54,-324 -162,-431 C 1136,54 992,0 813,0 Z"
   id="path32"
   inkscape:connector-curvature="0" />
  </g>
  <g
   id="bullet-char-template-8226"
   transform="matrix(4.8828125e-4,0,0,-4.8828125e-4,0,0)">
   <path
   d="m 346,457 c -73,0 -137,26 -191,78 -54,51 -81,114 -81,188 0,73 27,136 81,188 54,52 118,78 191,78 73,0 134,-26 185,-79 51,-51 77,-114 77,-187 0,-75 -25,-137 -76,-188 -50,-52 -112,-78 -186,-78 z"
   id="path35"
   inkscape:connector-curvature="0" />
  </g>
  <g
   id="bullet-char-template-8211"
   transform="matrix(4.8828125e-4,0,0,-4.8828125e-4,0,0)">
   <path
   d="M -4,459 H 1135 V 606 H -4 Z"
   id="path38"
   inkscape:connector-curvature="0" />
  </g>
  <g
   id="bullet-char-template-61548"
   transform="matrix(4.8828125e-4,0,0,-4.8828125e-4,0,0)">
   <path
   d="m 173,740 c 0,163 58,303 173,419 116,115 255,173 419,173 163,0 302,-58 418,-173 116,-116 174,-256 174,-419 0,-163 -58,-303 -174,-418 C 1067,206 928,148 765,148 601,148 462,206 346,322 231,437 173,577 173,740 Z"
   id="path41"
   inkscape:connector-curvature="0" />
  </g>
 </defs>
 <g
   id="g49"
   transform="translate(-9471,-13351)">
  <g
   id="id2"
   class="Master_Slide">
   <g
   id="bg-id2"
   class="Background" />
   <g
   id="bo-id2"
   class="BackgroundObjects" />
  </g>
 </g>
 <g
   class="SlideGroup"
   id="g589"
   transform="translate(-9471,-13351)">
  <g
   id="g587">
   <g
   id="container-id1">
    <g
   id="id1"
   class="Slide"
   clip-path="url(#presentation_clip_path)">
     <g
   class="Page"
   id="g583">
      <g
   class="Graphic"
   id="g581">
       <g
   id="id3">
        <rect
   class="BoundingBox"
   x="9471"
   y="13351"
   width="2057"
   height="2997"
   id="rect51"
   style="fill:none;stroke:none" />
        <defs
   id="defs56">
         <clipPath
   id="clip_path_1"
   clipPathUnits="userSpaceOnUse">
          <path
   d="m 9471,13351 h 2056 v 2996 H 9471 Z"
   id="path53"
   inkscape:connector-curvature="0" />
         </clipPath>
        </defs>
        <g
   clip-path="url(#clip_path_1)"
   id="g578">
         <path
   d="m 10638,15293 -13,3 -12,5 -13,2 -13,3 h -10 l -13,2 -10,3 h -10 v 20 21 15 15 l -3,8 -10,12 -15,16 -18,17 -18,16 -17,15 -16,13 -12,10 h 33 43 51 51 51 43 35 23 l -20,-8 -20,-7 -21,-6 -18,-5 -17,-5 -16,-2 -12,-3 -11,-2 16,-3 15,-5 18,-2 15,-6 18,-5 13,-2 10,-3 h 7 -25 -20 l -18,-2 h -18 l -13,-3 -10,-2 h -10 l -10,-3 2,-23 5,-30 11,-36 12,-35 z"
   id="path58"
   inkscape:connector-curvature="0"
   style="fill:#ffbf7f;stroke:none" />
         <path
   d="m 10641,15303 7,-5 v -7 l -5,-6 -7,-2 z"
   id="path60"
   inkscape:connector-curvature="0"
   style="fill:#000000;stroke:none" />
         <path
   d="m 10554,15311 -10,10 h 10 l 10,-3 13,-2 h 10 l 13,-3 15,-2 13,-5 13,-3 -5,-20 -13,2 -13,6 -10,2 -13,3 h -10 l -13,2 -10,3 h -10 l -10,10 10,-10 -8,2 -2,8 2,7 8,3 z"
   id="path62"
   inkscape:connector-curvature="0"
   style="fill:#000000;stroke:none" />
         <path
   d="m 10554,15382 v 0 -15 -15 -21 -20 h -20 v 20 21 15 15 0 z"
   id="path64"
   inkscape:connector-curvature="0"
   style="fill:#000000;stroke:none" />
         <path
   d="m 10435,15479 5,17 12,-10 16,-12 18,-16 20,-15 18,-18 15,-15 10,-15 5,-13 h -20 v 3 l -10,10 -16,15 -17,18 -16,15 -17,15 -16,13 -12,10 5,18 -5,-18 -6,5 3,5 5,5 h 8 z"
   id="path66"
   inkscape:connector-curvature="0"
   style="fill:#000000;stroke:none" />
         <path
   d="m 10763,15499 2,-20 h -23 -35 -43 -51 -51 -51 -43 -33 v 20 h 33 43 51 51 51 43 35 23 l 3,-20 -3,20 8,-3 2,-7 -2,-8 -8,-2 z"
   id="path68"
   inkscape:connector-curvature="0"
   style="fill:#000000;stroke:none" />
         <path
   d="m 10630,15441 -2,20 13,2 12,3 13,2 18,6 18,5 20,5 20,7 21,8 5,-20 -21,-8 -20,-8 -20,-5 -18,-5 -18,-5 -18,-2 -12,-3 -8,-2 -3,20 3,-20 -8,2 -5,5 3,8 5,5 z"
   id="path70"
   inkscape:connector-curvature="0"
   style="fill:#000000;stroke:none" />
         <path
   d="m 10742,15435 v -20 h -7 l -10,3 -16,2 -18,5 -15,5 -18,3 -15,5 -13,3 v 20 l 18,-3 16,-5 17,-2 16,-5 17,-5 11,-3 10,-3 h 7 v -20 20 l 8,-2 2,-8 -2,-7 -8,-3 z"
   id="path72"
   inkscape:connector-curvature="0"
   style="fill:#000000;stroke:none" />
         <path
   d="m 10608,15415 10,10 10,3 h 10 l 10,2 13,3 h 18 l 18,2 h 20 25 v -20 h -25 -20 l -18,-2 h -18 l -13,-3 -10,-3 h -10 l -10,-2 10,10 -10,-10 -8,2 -2,8 2,8 8,2 z"
   id="path74"
   inkscape:connector-curvature="0"
   style="fill:#000000;stroke:none" />
         <path
   d="m 10638,15288 -13,36 -10,35 -5,33 -2,23 h 20 l 2,-23 6,-28 10,-35 12,-36 z"
   id="path76"
   inkscape:connector-curvature="0"
   style="fill:#000000;stroke:none" />
         <path
   d="m 10658,15293 -2,-8 -5,-5 h -8 l -5,8 z"
   id="path78"
   inkscape:connector-curvature="0"
   style="fill:#000000;stroke:none" />
         <path
   d="m 11457,15273 5,-3 5,-2 3,-5 v -6 -122 -5 l -3,-5 -5,-2 -5,-3 H 9654 l -5,3 -5,2 -3,5 -2,5 v 122 l 2,6 3,5 5,2 5,3 z"
   id="path80"
   inkscape:connector-curvature="0"
   style="fill:#7f0000;stroke:none" />
         <path
   d="m 11459,15257 v 0 3 0 3 h -2 v 20 l 7,-5 11,-3 5,-10 v -8 0 0 l -3,-7 -7,-3 -8,3 z"
   id="path82"
   inkscape:connector-curvature="0"
   style="fill:#7f0000;stroke:none" />
         <path
   d="m 11459,15135 v 0 122 h 21 v -122 0 0 l -3,-7 -7,-3 -8,3 z"
   id="path84"
   inkscape:connector-curvature="0"
   style="fill:#7f0000;stroke:none" />
         <path
   d="m 11457,15130 v 0 h 2 v 3 0 2 h 21 v -7 l -5,-10 -11,-3 -7,-5 v 0 0 l -8,3 -2,7 2,8 z"
   id="path86"
   inkscape:connector-curvature="0"
   style="fill:#7f0000;stroke:none" />
         <path
   d="m 9654,15130 v 0 h 1803 v -20 H 9654 v 0 0 l -8,3 -2,7 2,8 z"
   id="path88"
   inkscape:connector-curvature="0"
   style="fill:#7f0000;stroke:none" />
         <path
   d="m 9649,15135 v 0 -2 h 3 v -3 h 2 v -20 l -8,5 -10,3 -2,10 -5,7 v 0 0 l 2,8 8,3 7,-3 z"
   id="path90"
   inkscape:connector-curvature="0"
   style="fill:#7f0000;stroke:none" />
         <path
   d="m 9649,15257 v 0 -122 h -20 v 122 0 0 l 2,8 8,3 7,-3 z"
   id="path92"
   inkscape:connector-curvature="0"
   style="fill:#7f0000;stroke:none" />
         <path
   d="m 9654,15263 v 0 h -2 v -3 h -3 v -3 h -20 l 5,8 2,10 10,3 8,5 v 0 0 l 8,-3 2,-7 -2,-8 z"
   id="path94"
   inkscape:connector-curvature="0"
   style="fill:#7f0000;stroke:none" />
         <path
   d="m 11457,15263 v 0 H 9654 v 20 h 1803 v 0 0 l 7,-3 3,-7 -3,-8 z"
   id="path96"
   inkscape:connector-curvature="0"
   style="fill:#7f0000;stroke:none" />
         <path
   d="m 11281,16246 105,-935 H 9753 l 115,935 z"
   id="path98"
   inkscape:connector-curvature="0"
   style="fill:#b25619;stroke:none" />
         <path
   d="m 11386,15321 -11,-10 -104,935 h 21 l 104,-935 -10,-10 10,10 -3,-8 -7,-2 -8,2 -3,8 z"
   id="path100"
   inkscape:connector-curvature="0"
   style="fill:#7f0000;stroke:none" />
         <path
   d="m 9763,15311 -10,10 h 1633 v -20 H 9753 l -10,10 10,-10 -7,2 -3,8 3,7 7,3 z"
   id="path102"
   inkscape:connector-curvature="0"
   style="fill:#7f0000;stroke:none" />
         <path
   d="m 9868,16236 10,10 -115,-935 h -20 l 114,935 11,10 -11,-10 3,8 8,2 7,-2 3,-8 z"
   id="path104"
   inkscape:connector-curvature="0"
   style="fill:#7f0000;stroke:none" />
         <path
   d="m 11271,16246 10,-10 H 9868 v 20 h 1413 l 11,-10 -11,10 8,-2 3,-8 -3,-7 -8,-3 z"
   id="path106"
   inkscape:connector-curvature="0"
   style="fill:#7f0000;stroke:none" />
         <path
   d="m 11358,16348 v -66 H 9830 v 66 z"
   id="path108"
   inkscape:connector-curvature="0"
   style="fill:#7f0000;stroke:none" />
         <path
   d="m 11358,16292 -11,-10 v 66 h 21 v -66 l -10,-10 10,10 -3,-8 -7,-2 -8,2 -3,8 z"
   id="path110"
   inkscape:connector-curvature="0"
   style="fill:#7f0000;stroke:none" />
         <path
   d="m 9840,16282 -10,10 h 1528 v -20 H 9830 l -11,10 11,-10 -8,2 -3,8 3,8 8,2 z"
   id="path112"
   inkscape:connector-curvature="0"
   style="fill:#7f0000;stroke:none" />
         <path
   d="m 9830,16338 10,10 v -66 h -21 v 66 l 11,10 -11,-10 3,8 8,2 7,-2 3,-8 z"
   id="path114"
   inkscape:connector-curvature="0"
   style="fill:#7f0000;stroke:none" />
         <path
   d="m 11347,16348 11,-10 H 9830 v 20 h 1528 l 10,-10 -10,10 7,-2 3,-8 -3,-8 -7,-2 z"
   id="path116"
   inkscape:connector-curvature="0"
   style="fill:#7f0000;stroke:none" />
         <path
   d="m 11330,15120 51,-119 40,-148 31,-160 18,-168 2,-167 -10,-155 -26,-135 -40,-107 -26,-36 -30,-35 -38,-33 -44,-33 -48,-31 -53,-30 -56,-26 -61,-25 -61,-23 -66,-20 -64,-18 -66,-18 -66,-10 -64,-10 -63,-8 -61,-2 -61,2 -64,8 -66,10 -66,10 -66,18 -66,18 -64,20 -61,23 -61,25 -56,26 -53,30 -49,31 -43,33 -38,33 -30,35 -26,36 -41,107 -25,135 -8,155 6,167 17,168 33,160 41,148 53,119 h 16 15 15 15 l 16,3 h 15 18 20 l -43,-104 -33,-138 -26,-152 -12,-165 -5,-161 7,-150 23,-127 33,-94 21,-28 25,-28 30,-25 39,-26 38,-22 45,-21 46,-18 51,-17 51,-16 53,-12 54,-13 53,-10 54,-8 55,-5 51,-5 51,-2 51,2 53,5 54,10 56,10 56,13 56,18 53,18 53,18 51,22 49,23 45,26 41,25 38,28 33,28 26,28 20,31 33,91 20,122 6,142 -8,153 -18,155 -28,145 -35,130 -44,104 h 16 17 18 l 20,-3 h 21 18 17 z"
   id="path118"
   inkscape:connector-curvature="0"
   style="fill:#b25619;stroke:none" />
         <path
   d="m 11388,13966 v 0 l 38,104 26,133 10,155 -3,167 -17,168 -31,158 -41,147 -48,117 15,10 54,-122 40,-147 31,-163 18,-168 2,-167 -10,-155 -25,-138 -44,-109 v 0 z"
   id="path120"
   inkscape:connector-curvature="0"
   style="fill:#7f0000;stroke:none" />
         <path
   d="m 10529,13613 v 0 l 61,2 63,8 64,10 66,10 64,18 63,18 66,20 61,23 61,26 54,22 53,31 48,30 44,33 35,34 31,33 25,35 15,-10 -25,-36 -31,-38 -40,-33 -43,-33 -49,-30 -53,-31 -59,-28 -61,-25 -61,-23 -66,-20 -63,-18 -69,-18 -66,-10 -64,-10 -63,-8 -61,-3 v 0 0 l -8,3 -2,8 2,7 z"
   id="path122"
   inkscape:connector-curvature="0"
   style="fill:#7f0000;stroke:none" />
         <path
   d="m 9667,13966 v 0 l 25,-35 31,-33 35,-34 44,-33 48,-30 53,-31 54,-22 61,-26 61,-23 63,-20 66,-18 64,-18 66,-10 66,-10 64,-8 61,-2 v -21 l -61,3 -64,8 -66,10 -66,10 -69,18 -66,18 -63,20 -61,23 -61,25 -59,28 -53,31 -49,30 -43,33 -41,33 -30,38 -25,36 v 0 z"
   id="path124"
   inkscape:connector-curvature="0"
   style="fill:#7f0000;stroke:none" />
         <path
   d="m 9735,15110 8,5 -51,-117 -40,-147 -34,-158 -17,-168 -5,-167 7,-155 26,-133 38,-104 -15,-10 -44,109 -25,138 -8,155 5,167 18,168 33,163 41,147 56,122 7,5 -7,-5 5,5 8,-2 2,-5 v -8 z"
   id="path126"
   inkscape:connector-curvature="0"
   style="fill:#7f0000;stroke:none" />
         <path
   d="m 9857,15128 8,-15 h -20 -18 -15 l -16,-3 h -15 -15 -15 -16 v 20 h 16 15 15 15 l 16,3 h 15 18 20 l 8,-15 -8,15 8,-3 2,-7 -2,-8 -8,-2 z"
   id="path128"
   inkscape:connector-curvature="0"
   style="fill:#7f0000;stroke:none" />
         <path
   d="m 9802,14027 v 0 l -36,97 -23,129 -8,150 6,161 12,165 26,152 33,140 45,107 16,-10 -41,-102 -33,-135 -25,-152 -13,-165 -5,-161 7,-150 23,-124 31,-92 v 0 z"
   id="path130"
   inkscape:connector-curvature="0"
   style="fill:#7f0000;stroke:none" />
         <path
   d="m 10526,13765 v 0 l -51,3 -51,5 -55,5 -54,8 -53,10 -56,13 -54,12 -50,16 -51,17 -46,18 -48,23 -38,23 -39,25 -33,26 -25,30 -20,28 15,10 20,-28 26,-25 28,-25 38,-26 38,-23 43,-18 46,-17 51,-18 51,-15 53,-13 51,-13 53,-10 54,-8 55,-5 51,-5 51,-2 v 0 0 l 8,-3 2,-7 -2,-8 z"
   id="path132"
   inkscape:connector-curvature="0"
   style="fill:#7f0000;stroke:none" />
         <path
   d="m 11269,14075 v 0 l -21,-30 -25,-31 -36,-28 -38,-27 -41,-26 -45,-25 -51,-26 -51,-23 -53,-17 -54,-18 -56,-18 -58,-13 -56,-10 -54,-10 -53,-5 -51,-3 v 21 l 51,2 53,5 54,10 56,11 53,12 56,18 54,18 53,18 51,23 46,20 45,25 41,26 38,28 31,28 25,25 20,31 v 0 z"
   id="path134"
   inkscape:connector-curvature="0"
   style="fill:#7f0000;stroke:none" />
         <path
   d="m 11187,15113 8,15 46,-107 35,-130 28,-147 18,-155 8,-153 -5,-142 -21,-124 -35,-95 -16,11 31,89 20,119 5,142 -7,153 -18,155 -28,142 -36,130 -40,102 7,15 -7,-15 v 7 l 5,5 5,3 5,-5 z"
   id="path136"
   inkscape:connector-curvature="0"
   style="fill:#7f0000;stroke:none" />
         <path
   d="m 11322,15115 8,-5 h -16 -17 -18 -21 l -20,3 h -18 -17 -16 v 20 h 16 17 18 l 20,-3 h 21 18 17 16 l 7,-5 -7,5 7,-2 3,-8 -3,-7 -7,-3 z"
   id="path138"
   inkscape:connector-curvature="0"
   style="fill:#7f0000;stroke:none" />
         <path
   d="m 10391,13605 -12,3 -8,7 v 13 l 10,8 z"
   id="path140"
   inkscape:connector-curvature="0"
   style="fill:#ffffff;stroke:none" />
         <path
   d="m 10585,13773 -8,-25 -15,-26 -26,-25 -25,-23 -31,-23 -30,-20 -31,-16 -28,-10 -10,31 28,10 26,15 30,15 26,23 25,23 20,20 11,16 2,15 z"
   id="path142"
   inkscape:connector-curvature="0"
   style="fill:#ffffff;stroke:none" />
         <path
   d="m 10549,13773 5,13 13,5 13,-5 5,-13 z"
   id="path144"
   inkscape:connector-curvature="0"
   style="fill:#ffffff;stroke:none" />
         <path
   d="m 10801,13628 -13,-2 -8,5 -5,12 5,10 z"
   id="path146"
   inkscape:connector-curvature="0"
   style="fill:#ffffff;stroke:none" />
         <path
   d="m 10948,13872 v -30 l -10,-31 -20,-35 -23,-36 -26,-36 -25,-30 -23,-26 -20,-20 -21,25 16,16 23,25 25,31 25,35 23,31 16,30 10,26 v 15 z"
   id="path148"
   inkscape:connector-curvature="0"
   style="fill:#ffffff;stroke:none" />
         <path
   d="m 10918,13862 2,13 10,7 h 11 l 7,-10 z"
   id="path150"
   inkscape:connector-curvature="0"
   style="fill:#ffffff;stroke:none" />
         <path
   d="m 11172,13763 -10,-5 -13,2 -5,10 3,13 z"
   id="path152"
   inkscape:connector-curvature="0"
   style="fill:#ffffff;stroke:none" />
         <path
   d="m 11238,14027 8,-30 v -28 l -5,-38 -13,-41 -13,-38 -15,-36 -13,-30 -15,-23 -25,20 10,18 12,25 16,36 12,38 13,36 5,33 v 28 l -2,10 z"
   id="path154"
   inkscape:connector-curvature="0"
   style="fill:#ffffff;stroke:none" />
         <path
   d="m 11213,14007 -3,13 5,7 13,5 10,-5 z"
   id="path156"
   inkscape:connector-curvature="0"
   style="fill:#ffffff;stroke:none" />
         <path
   d="m 11457,14111 v -13 l -8,-10 -13,-2 -10,10 z"
   id="path158"
   inkscape:connector-curvature="0"
   style="fill:#ffffff;stroke:none" />
         <path
   d="m 11325,14317 28,-18 22,-23 18,-28 18,-28 13,-33 12,-28 11,-28 10,-20 -31,-15 -10,25 -10,28 -13,28 -12,28 -13,28 -18,23 -18,18 -18,12 z"
   id="path160"
   inkscape:connector-curvature="0"
   style="fill:#ffffff;stroke:none" />
         <path
   d="m 11314,14286 -10,8 v 10 l 8,10 13,3 z"
   id="path162"
   inkscape:connector-curvature="0"
   style="fill:#ffffff;stroke:none" />
         <path
   d="m 11495,14452 v -13 l -8,-10 -12,-3 -11,10 z"
   id="path164"
   inkscape:connector-curvature="0"
   style="fill:#ffffff;stroke:none" />
         <path
   d="m 11320,14602 22,-5 23,-16 26,-15 23,-18 22,-25 26,-23 18,-25 15,-23 -31,-16 -10,23 -18,21 -20,23 -23,20 -23,18 -20,15 -18,10 h -12 z"
   id="path166"
   inkscape:connector-curvature="0"
   style="fill:#ffffff;stroke:none" />
         <path
   d="m 11320,14566 -13,5 -5,13 5,13 13,5 z"
   id="path168"
   inkscape:connector-curvature="0"
   style="fill:#ffffff;stroke:none" />
         <path
   d="m 11454,14775 3,-13 -5,-10 -13,-3 -10,5 z"
   id="path170"
   inkscape:connector-curvature="0"
   style="fill:#ffffff;stroke:none" />
         <path
   d="m 11271,14866 31,-5 30,-5 28,-8 26,-12 22,-16 18,-15 16,-15 12,-15 -25,-21 -13,15 -10,11 -18,15 -18,10 -20,13 -23,7 -25,5 h -31 z"
   id="path172"
   inkscape:connector-curvature="0"
   style="fill:#ffffff;stroke:none" />
         <path
   d="m 11271,14830 -13,6 -5,12 5,13 13,5 z"
   id="path174"
   inkscape:connector-curvature="0"
   style="fill:#ffffff;stroke:none" />
         <path
   d="m 10000,13720 -10,5 -5,10 5,10 10,5 z"
   id="path176"
   inkscape:connector-curvature="0"
   style="fill:#ffffff;stroke:none" />
         <path
   d="m 10229,13809 -23,-26 -26,-18 -28,-15 -25,-10 -33,-8 -28,-5 -36,-5 -30,-2 v 30 l 30,3 31,5 28,5 28,7 25,11 23,10 20,18 18,20 z"
   id="path178"
   inkscape:connector-curvature="0"
   style="fill:#ffffff;stroke:none" />
         <path
   d="m 10203,13829 10,5 13,-5 5,-8 -2,-12 z"
   id="path180"
   inkscape:connector-curvature="0"
   style="fill:#ffffff;stroke:none" />
         <path
   d="m 9913,13941 13,-5 5,-13 -5,-13 -13,-5 z"
   id="path182"
   inkscape:connector-curvature="0"
   style="fill:#ffffff;stroke:none" />
         <path
   d="m 9646,14025 18,-26 31,-20 38,-18 43,-10 41,-8 40,-2 h 34 22 v -36 h -22 l -34,5 -40,3 -46,7 -48,11 -44,17 -35,26 -28,35 z"
   id="path184"
   inkscape:connector-curvature="0"
   style="fill:#ffffff;stroke:none" />
         <path
   d="m 9616,14009 v 13 l 8,10 12,3 10,-10 z"
   id="path186"
   inkscape:connector-curvature="0"
   style="fill:#ffffff;stroke:none" />
         <path
   d="m 9768,14175 11,-8 v -13 l -8,-7 -13,-3 z"
   id="path188"
   inkscape:connector-curvature="0"
   style="fill:#ffffff;stroke:none" />
         <path
   d="m 9601,14312 2,-23 10,-18 21,-20 25,-20 26,-16 30,-15 26,-13 27,-12 -10,-31 -28,13 -30,13 -31,15 -30,20 -26,20 -25,26 -15,28 -8,33 z"
   id="path190"
   inkscape:connector-curvature="0"
   style="fill:#ffffff;stroke:none" />
         <path
   d="m 9565,14312 5,13 13,5 13,-5 5,-13 z"
   id="path192"
   inkscape:connector-curvature="0"
   style="fill:#ffffff;stroke:none" />
         <path
   d="m 9758,14401 10,-8 v -12 l -7,-8 -13,-3 z"
   id="path194"
   inkscape:connector-curvature="0"
   style="fill:#ffffff;stroke:none" />
         <path
   d="m 9608,14558 10,-25 11,-25 17,-21 21,-25 20,-18 23,-18 25,-12 23,-13 -10,-31 -28,13 -25,18 -28,18 -26,23 -20,25 -18,25 -15,31 -10,30 z"
   id="path196"
   inkscape:connector-curvature="0"
   style="fill:#ffffff;stroke:none" />
         <path
   d="m 9578,14553 2,13 11,5 12,-2 5,-11 z"
   id="path198"
   inkscape:connector-curvature="0"
   style="fill:#ffffff;stroke:none" />
         <path
   d="m 9763,14711 5,-10 -2,-13 -10,-5 -13,3 z"
   id="path200"
   inkscape:connector-curvature="0"
   style="fill:#ffffff;stroke:none" />
         <path
   d="m 9664,14871 5,-20 10,-23 13,-23 13,-25 13,-21 17,-20 13,-18 15,-10 -20,-25 -15,15 -18,18 -18,20 -18,25 -12,26 -13,28 -10,23 -5,25 z"
   id="path202"
   inkscape:connector-curvature="0"
   style="fill:#ffffff;stroke:none" />
         <path
   d="m 9634,14866 2,13 10,5 13,-3 5,-10 z"
   id="path204"
   inkscape:connector-curvature="0"
   style="fill:#ffffff;stroke:none" />
         <path
   d="m 9852,15196 v 0 l -2,18 -8,16 -15,7 -18,3 v 35 l 28,-7 26,-18 17,-26 8,-28 v 0 z"
   id="path206"
   inkscape:connector-curvature="0"
   style="fill:#000000;stroke:none" />
         <path
   d="m 9809,15153 v 0 l 18,3 15,7 8,16 2,17 h 36 l -8,-27 -17,-26 -26,-18 -28,-7 v 0 z"
   id="path208"
   inkscape:connector-curvature="0"
   style="fill:#000000;stroke:none" />
         <path
   d="m 9768,15196 v 0 l 3,-17 10,-16 10,-7 18,-3 v -35 l -28,7 -25,18 -15,26 -8,27 v 0 z"
   id="path210"
   inkscape:connector-curvature="0"
   style="fill:#000000;stroke:none" />
         <path
   d="m 9809,15240 v 0 l -18,-3 -10,-7 -10,-16 -3,-18 h -35 l 8,28 15,26 25,18 28,7 v 0 z"
   id="path212"
   inkscape:connector-curvature="0"
   style="fill:#000000;stroke:none" />
         <path
   d="m 10155,15196 v 0 l -3,18 -7,16 -15,7 -18,3 v 35 l 28,-7 25,-18 18,-26 8,-28 v 0 z"
   id="path214"
   inkscape:connector-curvature="0"
   style="fill:#000000;stroke:none" />
         <path
   d="m 10112,15153 v 0 l 18,3 15,7 7,16 3,17 h 36 l -8,-27 -18,-26 -25,-18 -28,-7 v 0 z"
   id="path216"
   inkscape:connector-curvature="0"
   style="fill:#000000;stroke:none" />
         <path
   d="m 10071,15196 v 0 l 3,-17 10,-16 10,-7 18,-3 v -35 l -28,7 -26,18 -15,26 -8,27 v 0 z"
   id="path218"
   inkscape:connector-curvature="0"
   style="fill:#000000;stroke:none" />
         <path
   d="m 10112,15240 v 0 l -18,-3 -10,-7 -10,-16 -3,-18 h -36 l 8,28 15,26 26,18 28,7 v 0 z"
   id="path220"
   inkscape:connector-curvature="0"
   style="fill:#000000;stroke:none" />
         <path
   d="m 10437,15196 v 0 l -2,18 -11,16 -10,7 -17,3 v 35 l 27,-7 26,-18 15,-26 8,-28 v 0 z"
   id="path222"
   inkscape:connector-curvature="0"
   style="fill:#000000;stroke:none" />
         <path
   d="m 10397,15153 v 0 l 17,3 10,7 11,16 2,17 h 36 l -8,-27 -15,-26 -26,-18 -27,-7 v 0 z"
   id="path224"
   inkscape:connector-curvature="0"
   style="fill:#000000;stroke:none" />
         <path
   d="m 10353,15196 v 0 l 3,-17 7,-16 16,-7 18,-3 v -35 l -28,7 -26,18 -18,26 -7,27 v 0 z"
   id="path226"
   inkscape:connector-curvature="0"
   style="fill:#000000;stroke:none" />
         <path
   d="m 10397,15240 v 0 l -18,-3 -16,-7 -7,-16 -3,-18 h -35 l 7,28 18,26 26,18 28,7 v 0 z"
   id="path228"
   inkscape:connector-curvature="0"
   style="fill:#000000;stroke:none" />
         <path
   d="m 10747,15196 v 0 l -2,18 -8,16 -15,7 -18,3 v 35 l 28,-7 26,-18 17,-26 8,-28 v 0 z"
   id="path230"
   inkscape:connector-curvature="0"
   style="fill:#000000;stroke:none" />
         <path
   d="m 10704,15153 v 0 l 18,3 15,7 8,16 2,17 h 36 l -8,-27 -17,-26 -26,-18 -28,-7 v 0 z"
   id="path232"
   inkscape:connector-curvature="0"
   style="fill:#000000;stroke:none" />
         <path
   d="m 10664,15196 v 0 l 2,-17 10,-16 10,-7 18,-3 v -35 l -28,7 -25,18 -15,26 -8,27 v 0 z"
   id="path234"
   inkscape:connector-curvature="0"
   style="fill:#000000;stroke:none" />
         <path
   d="m 10704,15240 v 0 l -18,-3 -10,-7 -10,-16 -2,-18 h -36 l 8,28 15,26 25,18 28,7 v 0 z"
   id="path236"
   inkscape:connector-curvature="0"
   style="fill:#000000;stroke:none" />
         <path
   d="m 11050,15196 v 0 l -3,18 -7,16 -15,7 -18,3 v 35 l 28,-7 25,-18 18,-26 8,-28 v 0 z"
   id="path238"
   inkscape:connector-curvature="0"
   style="fill:#000000;stroke:none" />
         <path
   d="m 11007,15153 v 0 l 18,3 15,7 7,16 3,17 h 36 l -8,-27 -18,-26 -25,-18 -28,-7 v 0 z"
   id="path240"
   inkscape:connector-curvature="0"
   style="fill:#000000;stroke:none" />
         <path
   d="m 10966,15196 v 0 l 3,-17 10,-16 10,-7 18,-3 v -35 l -28,7 -26,18 -15,26 -8,27 v 0 z"
   id="path242"
   inkscape:connector-curvature="0"
   style="fill:#000000;stroke:none" />
         <path
   d="m 11007,15240 v 0 l -18,-3 -10,-7 -10,-16 -3,-18 h -36 l 8,28 15,26 26,18 28,7 v 0 z"
   id="path244"
   inkscape:connector-curvature="0"
   style="fill:#000000;stroke:none" />
         <path
   d="m 11332,15196 v 0 l -2,18 -10,16 -11,7 -17,3 v 35 l 28,-7 25,-18 15,-26 8,-28 v 0 z"
   id="path246"
   inkscape:connector-curvature="0"
   style="fill:#000000;stroke:none" />
         <path
   d="m 11292,15153 v 0 l 17,3 11,7 10,16 2,17 h 36 l -8,-27 -15,-26 -25,-18 -28,-7 v 0 z"
   id="path248"
   inkscape:connector-curvature="0"
   style="fill:#000000;stroke:none" />
         <path
   d="m 11248,15196 v 0 l 3,-17 7,-16 16,-7 18,-3 v -35 l -28,7 -26,18 -18,26 -7,27 v 0 z"
   id="path250"
   inkscape:connector-curvature="0"
   style="fill:#000000;stroke:none" />
         <path
   d="m 11292,15240 v 0 l -18,-3 -16,-7 -7,-16 -3,-18 h -35 l 7,28 18,26 26,18 28,7 v 0 z"
   id="path252"
   inkscape:connector-curvature="0"
   style="fill:#000000;stroke:none" />
         <path
   d="m 10005,15311 -5,-13 -10,-2 -10,2 -6,13 z"
   id="path254"
   inkscape:connector-curvature="0"
   style="fill:#ffffff;stroke:none" />
         <path
   d="m 10035,16254 h 16 l -46,-943 h -31 l 46,943 z"
   id="path256"
   inkscape:connector-curvature="0"
   style="fill:#ffffff;stroke:none" />
         <path
   d="m 10020,16254 5,10 10,5 11,-5 5,-10 z"
   id="path258"
   inkscape:connector-curvature="0"
   style="fill:#ffffff;stroke:none" />
         <path
   d="m 10628,15311 -5,-13 -13,-5 -13,5 -5,13 z"
   id="path260"
   inkscape:connector-curvature="0"
   style="fill:#ffffff;stroke:none" />
         <path
   d="m 10600,16254 h 18 l 10,-943 h -36 l -10,943 z"
   id="path262"
   inkscape:connector-curvature="0"
   style="fill:#ffffff;stroke:none" />
         <path
   d="m 10582,16254 5,13 13,5 13,-5 5,-13 z"
   id="path264"
   inkscape:connector-curvature="0"
   style="fill:#ffffff;stroke:none" />
         <path
   d="m 10308,15311 -6,-13 -10,-2 -10,2 -5,13 z"
   id="path266"
   inkscape:connector-curvature="0"
   style="fill:#ffffff;stroke:none" />
         <path
   d="m 10310,16254 h 15 l -17,-943 h -31 l 18,943 z"
   id="path268"
   inkscape:connector-curvature="0"
   style="fill:#ffffff;stroke:none" />
         <path
   d="m 10295,16254 5,10 10,5 10,-5 5,-10 z"
   id="path270"
   inkscape:connector-curvature="0"
   style="fill:#ffffff;stroke:none" />
         <path
   d="m 10948,15318 -5,-12 -10,-3 -10,3 -5,12 z"
   id="path272"
   inkscape:connector-curvature="0"
   style="fill:#ffffff;stroke:none" />
         <path
   d="m 10903,16246 h 15 l 30,-928 h -30 l -31,928 z"
   id="path274"
   inkscape:connector-curvature="0"
   style="fill:#ffffff;stroke:none" />
         <path
   d="m 10887,16246 5,10 11,6 10,-6 5,-10 z"
   id="path276"
   inkscape:connector-curvature="0"
   style="fill:#ffffff;stroke:none" />
         <path
   d="m 11231,15318 -6,-12 -10,-3 -10,3 -5,12 z"
   id="path278"
   inkscape:connector-curvature="0"
   style="fill:#ffffff;stroke:none" />
         <path
   d="m 11159,16246 h 16 l 56,-928 h -31 l -56,928 z"
   id="path280"
   inkscape:connector-curvature="0"
   style="fill:#ffffff;stroke:none" />
         <path
   d="m 11144,16246 5,10 10,6 10,-6 6,-10 z"
   id="path282"
   inkscape:connector-curvature="0"
   style="fill:#ffffff;stroke:none" />
         <path
   d="m 9791,15593 -12,5 -5,13 5,13 12,5 z"
   id="path284"
   inkscape:connector-curvature="0"
   style="fill:#ffffff;stroke:none" />
         <path
   d="m 11347,15611 v -18 H 9791 v 36 h 1556 z"
   id="path286"
   inkscape:connector-curvature="0"
   style="fill:#ffffff;stroke:none" />
         <path
   d="m 11347,15629 13,-5 5,-13 -5,-13 -13,-5 z"
   id="path288"
   inkscape:connector-curvature="0"
   style="fill:#ffffff;stroke:none" />
         <path
   d="m 9830,15916 -13,5 -5,13 5,12 13,5 z"
   id="path290"
   inkscape:connector-curvature="0"
   style="fill:#ffffff;stroke:none" />
         <path
   d="m 11320,15916 h -31 -56 -79 -96 -112 -122 -130 -135 -132 -127 -122 -107 -94 -74 -51 -22 v 35 h 22 51 74 94 107 122 127 132 135 130 122 112 96 79 56 31 z"
   id="path292"
   inkscape:connector-curvature="0"
   style="fill:#ffffff;stroke:none" />
         <path
   d="m 11320,15951 12,-5 5,-12 -5,-13 -12,-5 z"
   id="path294"
   inkscape:connector-curvature="0"
   style="fill:#ffffff;stroke:none" />
         <path
   d="m 10297,13603 11,-3 h 12 18 l 18,-2 h 7 8 8 7 13 15 13 13 12 16 l 10,2 h 13 15 15 l 10,3 h 10 l 16,15 18,25 15,36 10,38 2,43 -10,49 -23,48 -43,51 -18,7 -20,8 -18,5 -18,3 -15,2 h -15 -15 l -13,-2 -25,-8 -26,-13 -25,-23 -21,-33 -15,-45 -8,-56 6,-69 z"
   id="path296"
   inkscape:connector-curvature="0"
   style="fill:#ffffff;stroke:none" />
         <path
   d="m 10356,13587 v 0 l -18,3 h -18 -12 l -13,2 5,21 8,-3 h 12 18 l 18,-2 v 0 0 l 7,-3 3,-7 -3,-8 z"
   id="path298"
   inkscape:connector-curvature="0"
   style="fill:#000000;stroke:none" />
         <path
   d="m 10386,13587 v 0 h -7 -8 -8 -7 v 21 h 7 8 8 7 v 0 0 l 8,-3 3,-7 -3,-8 z"
   id="path300"
   inkscape:connector-curvature="0"
   style="fill:#000000;stroke:none" />
         <path
   d="m 10491,13590 v 0 h -13 l -10,-3 h -16 -12 -13 -13 -15 -13 v 21 h 13 15 13 13 12 16 l 10,2 h 13 v 0 0 l 7,-2 3,-8 -3,-8 z"
   id="path302"
   inkscape:connector-curvature="0"
   style="fill:#000000;stroke:none" />
         <path
   d="m 10547,13595 -6,-3 h -10 l -10,-2 h -15 -15 v 20 h 15 15 l 10,3 h 10 l -5,-3 5,3 8,-3 3,-7 -3,-8 -8,-3 z"
   id="path304"
   inkscape:connector-curvature="0"
   style="fill:#000000;stroke:none" />
         <path
   d="m 10531,13918 3,-3 43,-53 25,-51 11,-51 -3,-43 -10,-41 -18,-38 -18,-25 -17,-18 -11,15 13,13 18,25 13,33 10,36 2,43 -10,46 -20,46 -43,48 2,-2 -2,2 -3,8 3,7 7,3 8,-3 z"
   id="path306"
   inkscape:connector-curvature="0"
   style="fill:#000000;stroke:none" />
         <path
   d="m 10452,13941 v 0 l 18,-3 21,-5 20,-8 20,-7 -10,-20 -15,7 -20,8 -16,5 -18,2 v 0 z"
   id="path308"
   inkscape:connector-curvature="0"
   style="fill:#000000;stroke:none" />
         <path
   d="m 10394,13941 v 0 l 13,2 h 15 15 l 15,-2 v -21 l -15,3 h -15 -15 l -13,-3 v 0 z"
   id="path310"
   inkscape:connector-curvature="0"
   style="fill:#000000;stroke:none" />
         <path
   d="m 10295,13592 -8,8 -18,84 -5,69 8,56 15,48 23,35 28,26 28,15 28,8 v -21 l -23,-7 -23,-10 -23,-21 -17,-30 -16,-43 -7,-56 5,-69 18,-79 -8,8 8,-8 -3,-7 -5,-6 h -8 l -5,8 z"
   id="path312"
   inkscape:connector-curvature="0"
   style="fill:#000000;stroke:none" />
         <path
   d="m 10394,13931 -25,-8 -26,-13 -25,-23 -21,-33 -15,-45 -8,-56 6,-69 17,-81 11,-3 h 12 18 l 18,-2 -10,86 7,97 16,89 z"
   id="path314"
   inkscape:connector-curvature="0"
   style="fill:#004cb2;stroke:none" />
         <path
   d="m 10295,13592 -8,8 -18,84 -5,69 8,56 15,48 23,35 28,26 28,15 28,8 v -21 l -23,-7 -23,-10 -23,-21 -17,-30 -16,-43 -7,-56 5,-69 18,-79 -8,8 8,-8 -3,-7 -5,-6 h -8 l -5,8 z"
   id="path316"
   inkscape:connector-curvature="0"
   style="fill:#000000;stroke:none" />
         <path
   d="m 10366,13600 -10,-13 -18,3 h -18 -12 l -13,2 5,21 8,-3 h 12 18 l 18,-2 -10,-13 10,13 7,-3 3,-7 -3,-8 -7,-3 z"
   id="path318"
   inkscape:connector-curvature="0"
   style="fill:#000000;stroke:none" />
         <path
   d="m 10394,13941 8,-16 -23,-58 -16,-86 -7,-97 10,-84 -20,-5 -11,89 8,97 15,91 28,64 8,-16 -8,16 5,5 8,-3 3,-5 v -8 z"
   id="path320"
   inkscape:connector-curvature="0"
   style="fill:#000000;stroke:none" />
         <path
   d="m 10452,13931 18,-3 18,-5 20,-8 18,-7 -7,-66 -3,-82 -8,-84 -17,-76 h -13 l -10,-2 h -16 -12 -13 -13 -15 -13 l 5,83 13,95 20,86 z"
   id="path322"
   inkscape:connector-curvature="0"
   style="fill:#004cb2;stroke:none" />
         <path
   d="m 10516,13908 5,-10 -15,7 -20,8 -16,5 -18,2 v 21 l 18,-3 21,-5 20,-8 20,-7 5,-10 -5,10 5,-5 v -10 l -7,-5 h -8 z"
   id="path324"
   inkscape:connector-curvature="0"
   style="fill:#000000;stroke:none" />
         <path
   d="m 10491,13610 -11,-7 18,73 8,84 2,82 8,66 h 20 l -7,-66 -3,-82 -7,-84 -18,-78 -10,-8 10,8 -5,-8 h -8 l -5,5 -3,8 z"
   id="path326"
   inkscape:connector-curvature="0"
   style="fill:#000000;stroke:none" />
         <path
   d="m 10397,13598 -11,10 h 13 15 13 13 12 16 l 10,2 h 13 v -20 h -13 l -10,-3 h -16 -12 -13 -13 -15 -13 l -10,11 10,-11 -7,3 -3,8 3,7 7,3 z"
   id="path328"
   inkscape:connector-curvature="0"
   style="fill:#000000;stroke:none" />
         <path
   d="m 10452,13920 8,5 -25,-66 -21,-83 -12,-95 -5,-83 h -21 l 5,83 13,95 20,88 31,72 7,5 -7,-5 5,5 8,-3 2,-5 v -8 z"
   id="path330"
   inkscape:connector-curvature="0"
   style="fill:#000000;stroke:none" />
         <path
   d="m 10541,13603 16,15 18,25 15,36 10,38 2,43 -10,49 -23,48 -43,51 21,-82 10,-84 v -78 z"
   id="path332"
   inkscape:connector-curvature="0"
   style="fill:#004cb2;stroke:none" />
         <path
   d="m 10516,13905 18,10 43,-53 25,-51 11,-51 -3,-43 -10,-41 -18,-38 -18,-25 -17,-18 -11,15 13,13 18,25 13,33 10,36 2,43 -10,46 -20,46 -43,48 17,10 -17,-10 -3,8 3,7 7,3 8,-3 z"
   id="path334"
   inkscape:connector-curvature="0"
   style="fill:#000000;stroke:none" />
         <path
   d="m 10547,13595 -16,10 16,59 v 78 l -11,84 -20,79 20,5 21,-84 10,-84 v -78 l -15,-64 -16,10 16,-10 -5,-8 h -8 l -5,6 -3,7 z"
   id="path336"
   inkscape:connector-curvature="0"
   style="fill:#000000;stroke:none" />
         <path
   d="m 11058,14086 40,-3 44,-10 43,-18 43,-23 38,-30 33,-38 21,-44 10,-48 v -23 l -3,-25 -5,-23 -5,-25 -8,-28 -7,-26 -10,-28 -11,-25 -15,-26 -13,-25 -15,-26 -18,-22 -10,-13 -10,-13 -10,-10 -10,-13 -11,-10 -10,-10 -12,-8 -11,-7 -12,-8 -10,-5 -13,-5 -10,-5 -26,-5 -28,-3 -33,3 -33,7 -33,11 -38,15 -36,15 -35,18 -38,18 -36,20 -33,20 -33,21 -31,20 -28,18 -22,18 -21,15 8,28 5,43 v 48 l -18,41 h 18 l 23,3 28,5 28,5 30,5 33,7 31,8 28,8 43,17 36,18 28,23 25,26 25,27 28,31 33,33 z"
   id="path338"
   inkscape:connector-curvature="0"
   style="fill:#ffffff;stroke:none" />
         <path
   d="m 11320,13872 v 0 l -11,46 -17,41 -34,35 -35,31 -41,20 -43,18 -41,10 -40,2 v 21 l 40,-3 46,-10 43,-18 46,-25 41,-31 33,-40 23,-46 10,-51 v 0 z"
   id="path340"
   inkscape:connector-curvature="0"
   style="fill:#000000;stroke:none" />
         <path
   d="m 11307,13776 v 2 l 5,23 5,23 3,25 v 23 h 20 v -23 l -3,-25 -5,-23 -5,-28 v 3 z"
   id="path342"
   inkscape:connector-curvature="0"
   style="fill:#000000;stroke:none" />
         <path
   d="m 11213,13575 v 0 l 18,23 15,25 12,25 13,26 10,23 11,28 7,25 8,26 h 20 l -7,-31 -8,-25 -10,-28 -10,-28 -18,-26 -13,-25 -15,-26 -18,-22 v 0 z"
   id="path344"
   inkscape:connector-curvature="0"
   style="fill:#000000;stroke:none" />
         <path
   d="m 11172,13529 v 0 l 10,10 10,10 11,13 10,13 15,-10 -10,-13 -10,-13 -11,-10 -10,-15 v 0 z"
   id="path346"
   inkscape:connector-curvature="0"
   style="fill:#000000;stroke:none" />
         <path
   d="m 11088,13473 v 0 l 10,5 13,5 8,3 12,7 11,8 12,8 8,10 10,10 15,-15 -10,-10 -13,-11 -12,-7 -10,-8 -13,-8 -13,-7 -13,-5 -10,-5 v 0 z"
   id="path348"
   inkscape:connector-curvature="0"
   style="fill:#000000;stroke:none" />
         <path
   d="m 10597,13671 -5,10 21,-15 23,-18 28,-17 30,-21 33,-20 33,-20 36,-21 35,-15 36,-18 36,-15 38,-15 33,-10 30,-8 33,-3 28,3 23,5 5,-20 -28,-5 -28,-3 -33,3 -35,7 -33,10 -39,16 -35,15 -36,18 -40,20 -36,20 -33,21 -33,20 -31,20 -28,18 -23,18 -20,15 -5,10 5,-10 -5,5 3,5 5,5 h 7 z"
   id="path350"
   inkscape:connector-curvature="0"
   style="fill:#000000;stroke:none" />
         <path
   d="m 10582,13824 8,15 20,-46 v -48 l -5,-43 -8,-31 -20,5 8,26 5,43 v 48 l -15,36 7,15 -7,-15 v 8 l 5,5 5,2 5,-5 z"
   id="path352"
   inkscape:connector-curvature="0"
   style="fill:#000000;stroke:none" />
         <path
   d="m 10803,13864 v 0 l -28,-7 -30,-8 -36,-7 -30,-5 -28,-6 -28,-5 -23,-2 h -18 v 20 h 18 l 23,3 28,5 28,5 30,5 31,8 30,7 28,8 v 0 z"
   id="path354"
   inkscape:connector-curvature="0"
   style="fill:#000000;stroke:none" />
         <path
   d="m 11058,14075 5,3 -36,-36 -33,-33 -28,-30 -25,-28 -26,-26 -30,-22 -38,-21 -44,-18 -5,21 43,18 34,15 25,23 25,25 26,28 28,31 33,33 41,35 5,3 -5,-3 h 7 l 5,-5 3,-5 -5,-5 z"
   id="path356"
   inkscape:connector-curvature="0"
   style="fill:#000000;stroke:none" />
         <path
   d="m 11058,14086 40,-3 44,-10 43,-18 43,-23 38,-30 33,-38 21,-44 10,-48 -16,-20 -15,-21 -20,-15 -23,-10 -25,-8 -31,-5 h -38 l -41,3 -53,7 -46,13 -41,10 -38,13 -33,15 -28,10 -25,13 -23,8 5,5 10,5 10,5 13,8 13,7 12,8 8,5 5,5 28,-15 43,-18 51,-20 59,-18 56,-13 50,-7 h 39 l 25,15 15,35 -12,36 -28,33 -41,31 -48,25 -46,20 -41,13 -28,8 5,7 8,8 8,8 z"
   id="path358"
   inkscape:connector-curvature="0"
   style="fill:#004cb2;stroke:none" />
         <path
   d="m 11322,13877 -2,-5 -11,46 -17,41 -34,35 -35,31 -41,20 -43,18 -41,10 -40,2 v 21 l 40,-3 46,-10 43,-18 46,-25 41,-31 33,-40 23,-46 10,-51 -3,-5 3,5 -3,-8 -7,-2 -8,2 -2,8 z"
   id="path360"
   inkscape:connector-curvature="0"
   style="fill:#000000;stroke:none" />
         <path
   d="m 11121,13806 v 0 l 41,-3 h 38 l 31,6 22,7 21,8 18,15 15,18 15,20 15,-10 -15,-20 -15,-23 -23,-15 -26,-13 -27,-8 -31,-5 h -38 l -41,3 v 0 z"
   id="path362"
   inkscape:connector-curvature="0"
   style="fill:#000000;stroke:none" />
         <path
   d="m 10839,13877 -3,18 23,-8 26,-12 28,-11 33,-15 38,-12 41,-11 43,-12 53,-8 v -20 l -53,7 -49,13 -40,10 -38,13 -33,15 -28,10 -26,13 -23,8 -2,17 2,-17 -5,5 -2,7 5,5 7,3 z"
   id="path364"
   inkscape:connector-curvature="0"
   style="fill:#000000;stroke:none" />
         <path
   d="m 10905,13925 13,3 -8,-8 -7,-5 -13,-7 -13,-8 -13,-8 -10,-7 -10,-3 -5,-5 -10,15 5,6 10,7 10,3 13,7 13,8 12,8 8,5 3,2 12,3 -12,-3 5,5 7,-2 3,-5 v -8 z"
   id="path366"
   inkscape:connector-curvature="0"
   style="fill:#000000;stroke:none" />
         <path
   d="m 11269,13852 v 0 l -31,-21 h -41 l -50,8 -59,13 -58,18 -51,20 -43,18 -31,17 10,16 26,-13 43,-18 51,-20 58,-18 54,-13 50,-7 h 36 l 20,10 v 0 z"
   id="path368"
   inkscape:connector-curvature="0"
   style="fill:#000000;stroke:none" />
         <path
   d="m 11040,14053 -8,15 31,-8 40,-12 46,-21 51,-28 43,-30 28,-36 15,-41 -17,-40 -16,10 13,30 -10,31 -28,30 -38,31 -46,23 -46,20 -40,13 -26,8 -7,15 7,-15 -7,2 -3,8 3,7 7,3 z"
   id="path370"
   inkscape:connector-curvature="0"
   style="fill:#000000;stroke:none" />
         <path
   d="m 11058,14075 7,3 -5,-5 -7,-8 -8,-5 -5,-7 -15,10 5,7 7,11 8,7 5,5 8,3 -8,-3 8,3 7,-3 3,-7 -3,-8 z"
   id="path372"
   inkscape:connector-curvature="0"
   style="fill:#000000;stroke:none" />
         <path
   d="m 10602,13740 36,-15 38,-16 41,-15 46,-15 45,-15 49,-16 48,-12 46,-13 46,-10 45,-13 41,-8 38,-7 33,-8 28,-5 23,-2 h 15 l 18,22 15,26 13,25 15,26 11,25 10,28 7,26 8,28 -15,-11 -21,-7 -25,-8 -31,-2 h -30 -38 l -38,2 -39,5 -43,8 -43,10 -43,10 -43,13 -44,13 -43,15 -41,18 -38,17 -10,-2 -18,-5 -23,-5 -25,-5 -28,-5 -23,-3 -20,-3 -13,3 10,-18 5,-23 3,-28 z"
   id="path374"
   inkscape:connector-curvature="0"
   style="fill:#004cb2;stroke:none" />
         <path
   d="m 11228,13565 -8,-6 h -15 l -23,3 -28,5 -33,8 -38,7 -43,8 -46,13 -46,10 -45,13 -49,12 -48,15 -46,16 -46,15 -40,15 -38,16 -36,15 5,20 36,-15 38,-15 40,-16 46,-15 46,-15 48,-15 49,-13 45,-13 46,-10 46,-13 38,-7 38,-8 33,-8 28,-5 23,-2 h 15 l -7,-5 7,5 8,-3 3,-7 -3,-8 -8,-3 z"
   id="path376"
   inkscape:connector-curvature="0"
   style="fill:#000000;stroke:none" />
         <path
   d="m 11309,13783 18,-7 -7,-31 -8,-25 -10,-28 -10,-28 -18,-26 -13,-25 -15,-26 -18,-22 -15,10 18,23 15,25 12,25 13,26 10,23 11,28 7,25 8,26 18,-8 -18,8 2,7 8,3 8,-3 2,-7 z"
   id="path378"
   inkscape:connector-curvature="0"
   style="fill:#000000;stroke:none" />
         <path
   d="m 10740,13870 h 5 l 38,-18 41,-18 43,-15 43,-13 43,-13 44,-10 40,-10 43,-8 39,-5 38,-2 h 38 30 l 31,2 23,8 18,8 12,7 16,-15 -18,-13 -23,-7 -28,-8 -31,-3 h -30 -38 l -38,3 -39,5 -43,8 -45,10 -44,10 -43,13 -43,12 -43,16 -41,17 -38,18 h 5 -5 l -5,5 -3,8 5,5 8,3 z"
   id="path380"
   inkscape:connector-curvature="0"
   style="fill:#000000;stroke:none" />
         <path
   d="m 10575,13829 10,15 10,-2 20,2 23,3 28,5 25,5 21,5 18,5 10,3 5,-21 -10,-2 -18,-5 -26,-5 -25,-6 -28,-5 -23,-2 -20,-3 -15,3 10,15 -10,-15 -5,5 -3,8 5,5 8,2 z"
   id="path382"
   inkscape:connector-curvature="0"
   style="fill:#000000;stroke:none" />
         <path
   d="m 10600,13730 -8,10 -2,25 -3,28 -5,21 -7,15 15,10 12,-20 6,-26 2,-28 3,-25 -8,10 8,-10 -3,-8 -8,-2 -7,2 -3,8 z"
   id="path384"
   inkscape:connector-curvature="0"
   style="fill:#000000;stroke:none" />
         <path
   d="m 10587,13674 21,-15 22,-18 28,-18 31,-20 33,-21 33,-20 36,-20 38,-18 35,-18 36,-15 38,-15 33,-11 33,-7 33,-3 28,3 26,5 10,5 13,5 10,5 12,8 11,7 12,8 10,10 11,10 -28,-2 -33,2 -36,3 -36,7 -40,8 -38,10 -44,13 -40,13 -41,15 -41,18 -40,18 -36,17 -38,18 -33,20 -28,18 -28,21 -3,-11 -2,-12 -3,-10 z"
   id="path386"
   inkscape:connector-curvature="0"
   style="fill:#004cb2;stroke:none" />
         <path
   d="m 11093,13453 v 0 l -28,-5 -28,-3 -33,3 -35,7 -33,10 -39,16 -35,15 -36,18 -40,20 -36,20 -33,21 -33,20 -31,20 -28,18 -23,18 -20,15 10,15 21,-15 23,-18 28,-17 30,-21 33,-20 33,-20 36,-21 35,-15 36,-18 36,-15 38,-15 33,-10 30,-8 33,-3 28,3 23,5 v 0 z"
   id="path388"
   inkscape:connector-curvature="0"
   style="fill:#000000;stroke:none" />
         <path
   d="m 11180,13531 7,-17 -10,-10 -13,-11 -12,-7 -10,-8 -13,-8 -13,-7 -13,-5 -10,-5 -5,20 10,5 13,5 8,3 12,7 11,8 12,8 8,10 10,10 8,-18 -8,18 8,2 7,-2 3,-8 -3,-7 z"
   id="path390"
   inkscape:connector-curvature="0"
   style="fill:#000000;stroke:none" />
         <path
   d="m 10590,13722 15,5 28,-20 28,-18 33,-20 36,-16 35,-17 41,-18 41,-18 40,-15 41,-13 43,-13 36,-10 40,-7 36,-8 36,-3 33,-2 28,2 v -20 l -28,-2 -33,2 -36,3 -36,7 -40,8 -41,10 -43,13 -41,13 -41,15 -40,18 -41,17 -35,18 -41,20 -33,21 -28,18 -28,20 15,5 -15,-5 -5,5 2,5 5,5 h 8 z"
   id="path392"
   inkscape:connector-curvature="0"
   style="fill:#000000;stroke:none" />
         <path
   d="m 10582,13666 -5,13 5,10 3,8 2,12 3,13 20,-5 -2,-8 -3,-12 -3,-13 -5,-15 -5,12 5,-12 -5,-5 h -7 l -8,7 v 8 z"
   id="path394"
   inkscape:connector-curvature="0"
   style="fill:#000000;stroke:none" />
         <path
   d="m 10486,13920 7,33 13,36 18,38 23,38 25,38 30,41 34,41 35,40 38,41 41,38 38,38 41,39 40,35 41,33 38,33 38,28 11,-2 7,-5 13,-3 10,-5 13,-5 13,-5 12,-5 15,-8 13,-5 15,-8 16,-7 12,-8 16,-8 15,-7 15,-8 15,-10 16,-8 15,-7 15,-10 15,-8 18,-10 16,-13 15,-10 15,-10 15,-10 13,-11 13,-10 10,-10 -23,-5 -28,-8 -30,-15 -31,-20 -33,-21 -36,-25 -33,-28 -35,-30 -33,-28 -33,-31 -31,-28 -28,-28 -25,-25 -23,-23 -18,-18 -13,-15 -28,-23 -35,-23 -41,-18 -46,-18 -48,-12 -48,-10 -46,-5 -41,-3 -7,10 -8,13 -10,13 -10,12 -11,13 -15,10 -18,10 z"
   id="path396"
   inkscape:connector-curvature="0"
   style="fill:#ffffff;stroke:none" />
         <path
   d="m 10984,14500 8,3 -39,-28 -38,-33 -40,-34 -39,-35 -40,-38 -38,-38 -41,-39 -38,-40 -36,-38 -33,-41 -30,-41 -26,-38 -23,-38 -15,-36 -13,-35 -7,-31 h -21 l 8,36 13,36 20,40 23,38 25,39 31,40 33,41 36,43 38,41 40,38 38,38 41,38 43,36 41,33 38,33 38,28 8,2 -8,-2 h 8 l 5,-5 3,-5 -5,-5 z"
   id="path398"
   inkscape:connector-curvature="0"
   style="fill:#000000;stroke:none" />
         <path
   d="m 11078,14462 v 0 l -15,7 -13,6 -13,5 -12,5 -11,5 -12,2 -8,5 -10,3 5,20 10,-2 8,-5 12,-3 11,-5 12,-5 13,-5 13,-5 15,-8 v 0 0 l 8,-5 v -8 l -5,-5 z"
   id="path400"
   inkscape:connector-curvature="0"
   style="fill:#000000;stroke:none" />
         <path
   d="m 11131,14434 v 2 l -12,8 -16,5 -12,8 -13,5 5,20 13,-5 18,-8 15,-10 13,-7 v 2 -2 l 5,-5 -3,-8 -5,-3 h -8 z"
   id="path402"
   inkscape:connector-curvature="0"
   style="fill:#000000;stroke:none" />
         <path
   d="m 11253,14370 v 0 l -15,8 -15,10 -15,5 -16,10 -15,11 -15,5 -15,7 -16,8 11,20 15,-7 15,-8 15,-10 16,-10 15,-5 15,-11 15,-10 16,-7 v 0 0 l 5,-5 -3,-8 -5,-3 z"
   id="path404"
   inkscape:connector-curvature="0"
   style="fill:#000000;stroke:none" />
         <path
   d="m 11317,14327 v 0 l -15,10 -16,10 -15,13 -18,10 11,16 17,-11 16,-12 15,-10 15,-11 v 0 0 l 5,-5 -2,-7 -5,-3 z"
   id="path406"
   inkscape:connector-curvature="0"
   style="fill:#000000;stroke:none" />
         <path
   d="m 11373,14304 -8,-18 -7,11 -13,10 -13,10 -15,10 10,15 15,-10 13,-10 13,-10 13,-10 -8,-18 8,18 2,-8 -2,-8 -8,-2 -8,2 z"
   id="path408"
   inkscape:connector-curvature="0"
   style="fill:#000000;stroke:none" />
         <path
   d="m 10913,13953 v -2 l 12,18 18,17 23,23 26,26 27,28 31,28 36,30 33,28 35,31 33,28 36,25 33,20 30,21 34,18 27,7 26,5 v -20 l -20,-5 -28,-8 -28,-13 -31,-20 -33,-20 -36,-26 -33,-28 -35,-30 -33,-28 -31,-31 -30,-27 -28,-28 -26,-26 -23,-23 -17,-18 -13,-12 v -3 z"
   id="path410"
   inkscape:connector-curvature="0"
   style="fill:#000000;stroke:none" />
         <path
   d="m 10595,13839 -8,5 41,3 46,5 45,10 49,13 46,17 38,16 35,23 26,22 15,-15 -31,-23 -35,-23 -43,-20 -46,-18 -48,-12 -51,-11 -46,-5 -41,-2 -7,5 7,-5 -7,2 -3,8 3,8 7,2 z"
   id="path412"
   inkscape:connector-curvature="0"
   style="fill:#000000;stroke:none" />
         <path
   d="m 10496,13920 -10,11 25,-6 20,-12 18,-10 10,-16 10,-12 11,-13 7,-13 8,-10 -15,-10 -8,10 -8,13 -10,12 -10,13 -10,10 -13,11 -15,7 -20,5 -11,10 11,-10 -8,3 -3,7 3,8 8,3 z"
   id="path414"
   inkscape:connector-curvature="0"
   style="fill:#000000;stroke:none" />
         <path
   d="m 10486,13920 7,33 13,36 18,38 23,38 25,38 30,41 34,41 35,40 38,41 41,38 38,38 41,39 40,35 41,33 38,33 38,28 11,-2 7,-5 13,-3 10,-5 13,-5 13,-5 12,-5 15,-8 -15,-13 -25,-17 -28,-23 -33,-26 -38,-30 -41,-33 -43,-36 -46,-38 -43,-41 -46,-40 -41,-44 -40,-43 -39,-46 -33,-43 -28,-43 -22,-43 h -8 l -8,2 -10,5 z"
   id="path416"
   inkscape:connector-curvature="0"
   style="fill:#004cb2;stroke:none" />
         <path
   d="m 10984,14500 8,3 -39,-28 -38,-33 -40,-34 -39,-35 -40,-38 -38,-38 -41,-39 -38,-40 -36,-38 -33,-41 -30,-41 -26,-38 -23,-38 -15,-36 -13,-35 -7,-31 h -21 l 8,36 13,36 20,40 23,38 25,39 31,40 33,41 36,43 38,41 40,38 38,38 41,38 43,36 41,33 38,33 38,28 8,2 -8,-2 h 8 l 5,-5 3,-5 -5,-5 z"
   id="path418"
   inkscape:connector-curvature="0"
   style="fill:#000000;stroke:none" />
         <path
   d="m 11075,14480 3,-18 -15,7 -13,6 -13,5 -12,5 -11,5 -12,2 -8,5 -10,3 5,20 10,-2 8,-5 12,-3 11,-5 12,-5 13,-5 13,-5 15,-8 3,-18 -3,18 8,-5 v -8 l -5,-5 -8,-2 z"
   id="path420"
   inkscape:connector-curvature="0"
   style="fill:#000000;stroke:none" />
         <path
   d="m 10519,13923 -11,-8 26,46 28,43 33,44 38,45 41,46 40,43 46,41 46,41 46,38 43,35 41,33 38,31 33,25 28,23 25,18 15,13 11,-16 -16,-12 -25,-18 -28,-23 -33,-25 -38,-31 -41,-33 -43,-36 -46,-38 -41,-40 -45,-41 -41,-43 -41,-41 -38,-46 -33,-43 -28,-43 -20,-41 -10,-7 10,7 -5,-7 h -8 l -5,5 -3,7 z"
   id="path422"
   inkscape:connector-curvature="0"
   style="fill:#000000;stroke:none" />
         <path
   d="m 10496,13920 -10,11 h 10 l 10,-6 5,-2 h 8 v -20 h -8 l -10,2 -10,5 h -5 l -11,10 11,-10 -8,3 -3,7 3,8 8,3 z"
   id="path424"
   inkscape:connector-curvature="0"
   style="fill:#000000;stroke:none" />
         <path
   d="m 11136,14444 16,-8 15,-7 15,-8 15,-10 16,-8 15,-7 15,-10 15,-8 -17,-10 -23,-13 -28,-15 -31,-21 -30,-20 -31,-20 -30,-23 -26,-20 -25,-23 -28,-26 -28,-25 -31,-28 -25,-25 -25,-23 -23,-21 -16,-15 -20,-18 -33,-23 -41,-28 -45,-28 -46,-28 -43,-22 -38,-16 -26,-5 v 5 l -2,5 -6,6 -2,2 10,13 18,20 23,23 23,25 23,26 17,20 16,18 7,10 13,13 25,28 38,33 41,41 43,40 39,36 33,28 17,15 16,10 20,18 25,23 31,23 30,25 31,23 30,18 z"
   id="path426"
   inkscape:connector-curvature="0"
   style="fill:#004cb2;stroke:none" />
         <path
   d="m 11253,14386 v -16 l -15,8 -15,10 -15,5 -16,10 -15,11 -15,5 -15,7 -16,8 11,20 15,-7 15,-8 15,-10 16,-10 15,-5 15,-11 15,-10 16,-7 v -16 16 l 5,-5 -3,-8 -5,-3 h -8 z"
   id="path428"
   inkscape:connector-curvature="0"
   style="fill:#000000;stroke:none" />
         <path
   d="m 11037,14243 v 0 l 26,21 30,22 31,21 30,20 31,20 28,16 23,12 17,11 11,-16 -18,-10 -23,-13 -28,-15 -31,-20 -30,-20 -31,-21 -30,-23 -26,-20 v 0 z"
   id="path430"
   inkscape:connector-curvature="0"
   style="fill:#000000;stroke:none" />
         <path
   d="m 10836,14058 h -2 l 15,15 26,20 22,23 26,26 30,28 28,25 28,25 28,23 10,-15 -22,-23 -28,-25 -28,-26 -31,-28 -25,-25 -28,-23 -21,-20 -15,-16 h -2 z"
   id="path432"
   inkscape:connector-curvature="0"
   style="fill:#000000;stroke:none" />
         <path
   d="m 10559,13882 -10,10 23,6 38,15 41,20 46,28 45,28 41,28 33,23 20,18 11,-16 -21,-17 -33,-23 -41,-28 -45,-28 -46,-28 -46,-26 -38,-15 -28,-5 -10,10 10,-10 -8,3 -2,7 2,8 8,2 z"
   id="path434"
   inkscape:connector-curvature="0"
   style="fill:#000000;stroke:none" />
         <path
   d="m 10547,13895 -3,15 5,-5 5,-7 5,-8 v -8 h -20 v 3 2 l -5,3 v 0 l -3,15 5,-13 -5,3 v 8 l 3,5 h 7 z"
   id="path436"
   inkscape:connector-curvature="0"
   style="fill:#000000;stroke:none" />
         <path
   d="m 10684,14050 h 2 l -10,-10 -15,-18 -18,-20 -23,-28 -23,-26 -22,-23 -18,-17 -10,-13 -16,10 10,13 18,23 23,23 23,25 23,23 18,20 15,18 5,10 h 3 z"
   id="path438"
   inkscape:connector-curvature="0"
   style="fill:#000000;stroke:none" />
         <path
   d="m 10930,14281 v 0 l -17,-15 -33,-28 -36,-35 -43,-41 -41,-41 -38,-33 -25,-28 -13,-10 -15,10 12,15 26,28 38,33 41,41 43,41 40,35 34,28 17,16 v 0 z"
   id="path440"
   inkscape:connector-curvature="0"
   style="fill:#000000;stroke:none" />
         <path
   d="m 11131,14434 h 8 l -25,-13 -31,-18 -30,-22 -31,-26 -30,-23 -26,-23 -20,-17 -16,-11 -10,16 16,10 20,18 25,22 31,23 30,26 31,23 30,17 31,18 h 8 -8 l 8,-2 5,-5 v -8 l -8,-5 z"
   id="path442"
   inkscape:connector-curvature="0"
   style="fill:#000000;stroke:none" />
         <path
   d="m 10587,13834 41,3 46,5 48,10 48,12 46,18 41,18 35,23 28,23 13,15 18,18 23,23 25,25 28,28 31,28 33,31 33,28 35,30 33,28 36,25 33,21 31,20 30,15 28,8 23,5 -10,10 -13,10 -13,11 -15,10 -38,-13 -38,-13 -41,-20 -38,-20 -38,-23 -36,-23 -33,-28 -28,-25 -25,-26 -26,-25 -23,-26 -22,-23 -23,-22 -21,-21 -20,-18 -20,-15 -26,-18 -33,-20 -41,-20 -43,-23 -45,-18 -41,-18 -33,-7 -26,-3 8,-8 8,-12 5,-8 z"
   id="path444"
   inkscape:connector-curvature="0"
   style="fill:#004cb2;stroke:none" />
         <path
   d="m 10928,13941 v -3 l -31,-23 -35,-23 -43,-20 -46,-18 -48,-12 -51,-11 -46,-5 -41,-2 v 20 l 41,3 46,5 45,10 49,13 46,17 38,16 35,23 26,22 v -2 z"
   id="path446"
   inkscape:connector-curvature="0"
   style="fill:#000000;stroke:none" />
         <path
   d="m 11381,14302 -8,-18 -20,-5 -28,-8 -28,-13 -31,-20 -33,-20 -36,-26 -33,-28 -35,-30 -33,-28 -31,-31 -30,-27 -28,-28 -26,-26 -23,-23 -17,-18 -13,-12 -15,10 12,18 18,17 23,23 26,26 27,28 31,28 36,30 33,28 35,31 33,28 36,25 33,20 30,21 34,18 27,7 26,5 -8,-18 8,18 8,-2 2,-8 -2,-8 -8,-2 z"
   id="path448"
   inkscape:connector-curvature="0"
   style="fill:#000000;stroke:none" />
         <path
   d="m 11320,14345 7,-3 15,-10 13,-10 13,-10 13,-10 -16,-16 -7,11 -13,10 -13,10 -15,10 8,-2 -8,2 -5,5 2,5 6,5 h 7 z"
   id="path450"
   inkscape:connector-curvature="0"
   style="fill:#000000;stroke:none" />
         <path
   d="m 11025,14177 v 0 l 30,26 33,28 36,22 38,23 38,21 43,22 38,13 39,13 5,-20 -39,-13 -38,-13 -38,-18 -38,-20 -38,-23 -36,-23 -33,-28 -25,-25 v 0 z"
   id="path452"
   inkscape:connector-curvature="0"
   style="fill:#000000;stroke:none" />
         <path
   d="m 10847,14002 v 0 l 20,15 18,18 20,20 23,23 23,23 23,25 25,26 26,25 15,-15 -26,-26 -25,-25 -23,-25 -23,-23 -23,-23 -20,-20 -23,-18 -20,-16 v 0 z"
   id="path454"
   inkscape:connector-curvature="0"
   style="fill:#000000;stroke:none" />
         <path
   d="m 10557,13859 7,18 26,3 30,7 41,18 46,18 40,20 41,21 33,20 26,18 10,-16 -26,-17 -33,-21 -40,-20 -46,-25 -46,-18 -41,-18 -35,-8 -26,-2 8,18 -8,-18 -7,2 -3,8 3,8 7,2 z"
   id="path456"
   inkscape:connector-curvature="0"
   style="fill:#000000;stroke:none" />
         <path
   d="m 10587,13824 -7,5 -3,5 -5,8 -8,12 -7,5 15,16 8,-11 7,-12 5,-8 3,-5 -8,5 8,-5 v -8 l -3,-5 -7,-2 -5,5 z"
   id="path458"
   inkscape:connector-curvature="0"
   style="fill:#000000;stroke:none" />
         <path
   d="m 10274,13776 h -22 l -28,7 -31,10 -33,16 -36,20 -33,20 -33,21 -30,22 -15,13 -23,15 -26,18 -30,21 -33,20 -36,20 -38,23 -38,20 -41,23 -43,21 -41,20 -40,20 -41,16 -41,15 -35,13 -36,7 8,8 10,7 10,8 10,8 13,10 13,10 12,10 16,10 10,10 12,8 11,8 12,10 18,13 20,15 18,13 21,12 17,16 21,12 18,16 20,12 13,10 15,8 13,8 12,10 18,10 15,13 18,10 15,13 39,-11 43,-17 43,-26 43,-33 46,-35 43,-41 43,-43 44,-46 40,-46 36,-46 33,-43 30,-40 23,-36 18,-33 13,-26 5,-20 -18,-2 -20,-3 -23,-8 -20,-10 -18,-20 -21,-26 -15,-38 z"
   id="path460"
   inkscape:connector-curvature="0"
   style="fill:#ffffff;stroke:none" />
         <path
   d="m 10033,13900 v 0 l 30,-23 33,-20 34,-20 35,-21 31,-13 30,-10 26,-7 h 22 v -21 h -22 l -31,8 -30,10 -36,18 -36,20 -33,21 -33,20 -30,23 v 0 z"
   id="path462"
   inkscape:connector-curvature="0"
   style="fill:#000000;stroke:none" />
         <path
   d="m 9476,14170 -5,17 38,-7 36,-13 40,-15 41,-16 43,-20 38,-20 46,-23 41,-23 38,-20 38,-23 36,-21 33,-20 30,-20 26,-18 23,-15 15,-13 -10,-15 -16,13 -22,15 -26,18 -30,20 -33,20 -36,21 -38,22 -38,21 -41,23 -41,17 -43,21 -38,20 -41,15 -40,16 -36,12 -33,8 -5,18 5,-18 -8,3 -2,7 2,8 8,2 z"
   id="path464"
   inkscape:connector-curvature="0"
   style="fill:#000000;stroke:none" />
         <path
   d="m 9570,14241 h -2 l -16,-10 -12,-11 -13,-10 -13,-10 -10,-8 -10,-7 -10,-8 -8,-7 -10,15 8,7 10,8 10,8 10,7 13,10 12,11 13,10 15,10 h -2 2 8 l 5,-5 3,-5 -5,-5 z"
   id="path466"
   inkscape:connector-curvature="0"
   style="fill:#000000;stroke:none" />
         <path
   d="m 9613,14276 v 0 l -12,-10 -10,-8 -13,-7 -8,-10 -15,15 13,10 12,8 11,7 12,11 v 0 0 h 8 l 5,-6 2,-5 z"
   id="path468"
   inkscape:connector-curvature="0"
   style="fill:#000000;stroke:none" />
         <path
   d="m 9766,14386 v 0 l -20,-13 -18,-15 -21,-13 -17,-15 -21,-13 -17,-13 -21,-15 -18,-13 -10,16 18,12 20,15 18,13 20,13 18,15 21,13 17,15 21,13 v 0 0 h 7 l 5,-5 3,-5 z"
   id="path470"
   inkscape:connector-curvature="0"
   style="fill:#000000;stroke:none" />
         <path
   d="m 9819,14421 v 0 l -12,-10 -13,-8 -15,-7 -13,-10 -10,15 12,10 16,8 12,7 13,10 v 0 0 h 8 l 5,-5 2,-5 z"
   id="path472"
   inkscape:connector-curvature="0"
   style="fill:#000000;stroke:none" />
         <path
   d="m 9880,14464 5,3 -15,-13 -18,-10 -15,-13 -18,-10 -10,15 18,11 15,12 18,10 15,13 5,3 -5,-3 h 8 l 5,-5 3,-5 -6,-5 z"
   id="path474"
   inkscape:connector-curvature="0"
   style="fill:#000000;stroke:none" />
         <path
   d="m 10422,13943 -10,-10 -5,18 -10,23 -18,33 -23,35 -31,41 -33,43 -35,46 -41,43 -43,46 -43,43 -41,41 -46,36 -43,33 -43,22 -41,18 -36,10 v 21 l 41,-10 46,-18 43,-28 43,-33 46,-36 46,-41 43,-43 43,-45 41,-49 36,-46 33,-43 30,-40 23,-36 18,-33 15,-28 5,-23 -10,-10 10,10 -2,-8 -8,-2 -8,2 -2,8 z"
   id="path476"
   inkscape:connector-curvature="0"
   style="fill:#000000;stroke:none" />
         <path
   d="m 10274,13786 -10,-10 13,53 18,41 20,25 20,23 23,13 23,7 23,3 18,2 v -20 l -18,-3 -18,-2 -23,-8 -17,-7 -16,-18 -20,-26 -13,-35 -12,-48 -11,-11 11,11 -3,-8 -8,-3 -7,3 -3,8 z"
   id="path478"
   inkscape:connector-curvature="0"
   style="fill:#000000;stroke:none" />
         <path
   d="m 10274,13776 h -22 l -28,7 -31,10 -33,16 -36,20 -33,20 -33,21 -30,22 -15,13 -23,15 -26,18 -30,21 -33,20 -36,20 -38,23 -38,20 -41,23 -43,21 -41,20 -40,20 -41,16 -41,15 -35,13 -36,7 8,8 10,7 10,8 10,8 13,10 13,10 12,10 16,10 35,-10 48,-25 56,-31 61,-35 59,-38 51,-34 40,-27 23,-16 23,-18 41,-28 51,-35 56,-38 58,-38 51,-28 41,-21 25,-2 -2,-10 -3,-16 -3,-12 z"
   id="path480"
   inkscape:connector-curvature="0"
   style="fill:#004cb2;stroke:none" />
         <path
   d="m 10033,13900 v 0 l 30,-23 33,-20 34,-20 35,-21 31,-13 30,-10 26,-7 h 22 v -21 h -22 l -31,8 -30,10 -36,18 -36,20 -33,21 -33,20 -30,23 v 0 z"
   id="path482"
   inkscape:connector-curvature="0"
   style="fill:#000000;stroke:none" />
         <path
   d="m 9476,14170 -5,17 38,-7 36,-13 40,-15 41,-16 43,-20 38,-20 46,-23 41,-23 38,-20 38,-23 36,-21 33,-20 30,-20 26,-18 23,-15 15,-13 -10,-15 -16,13 -22,15 -26,18 -30,20 -33,20 -36,21 -38,22 -38,21 -41,23 -41,17 -43,21 -38,20 -41,15 -40,16 -36,12 -33,8 -5,18 5,-18 -8,3 -2,7 2,8 8,2 z"
   id="path484"
   inkscape:connector-curvature="0"
   style="fill:#000000;stroke:none" />
         <path
   d="m 9563,14238 5,3 -16,-10 -12,-11 -13,-10 -13,-10 -10,-8 -10,-7 -10,-8 -8,-7 -10,15 8,7 10,8 10,8 10,7 13,10 12,11 13,10 15,10 6,2 -6,-2 h 8 l 5,-5 3,-5 -5,-5 z"
   id="path486"
   inkscape:connector-curvature="0"
   style="fill:#000000;stroke:none" />
         <path
   d="m 9931,14025 v 0 l -23,15 -40,28 -51,33 -59,38 -61,36 -56,30 -45,23 -33,10 v 20 l 38,-10 51,-28 55,-30 61,-36 59,-38 51,-33 41,-28 22,-15 v 0 z"
   id="path488"
   inkscape:connector-curvature="0"
   style="fill:#000000;stroke:none" />
         <path
   d="m 10272,13826 13,-12 -31,2 -43,23 -51,28 -58,38 -56,38 -51,36 -41,28 -23,18 10,15 23,-18 41,-28 51,-35 56,-39 58,-38 51,-28 38,-17 21,-3 12,-13 -12,13 7,-3 5,-5 v -7 l -7,-5 z"
   id="path490"
   inkscape:connector-curvature="0"
   style="fill:#000000;stroke:none" />
         <path
   d="m 10274,13786 -10,-10 v 10 l 3,12 2,16 3,12 20,-5 -2,-7 -3,-16 -2,-12 v -10 l -11,-11 11,11 -3,-8 -8,-3 -7,3 -3,8 z"
   id="path492"
   inkscape:connector-curvature="0"
   style="fill:#000000;stroke:none" />
         <path
   d="m 9761,14393 -20,-12 -18,-16 -21,-12 -17,-16 -21,-12 -18,-13 -20,-15 -18,-13 18,-5 31,-13 35,-18 38,-17 38,-21 36,-18 26,-15 17,-13 18,-15 33,-25 46,-33 48,-36 51,-35 46,-34 41,-27 25,-21 18,-15 20,-15 20,-16 18,-12 18,-13 18,-10 13,-8 12,-5 13,18 13,20 15,21 13,10 -18,20 -28,28 -33,31 -36,35 -35,33 -36,31 -30,28 -23,17 -26,21 -40,28 -46,35 -54,41 -53,41 -51,38 -43,30 z"
   id="path494"
   inkscape:connector-curvature="0"
   style="fill:#004cb2;stroke:none" />
         <path
   d="m 9606,14274 -3,18 18,12 20,15 18,13 20,13 18,15 21,13 17,15 21,13 10,-15 -20,-13 -18,-15 -21,-13 -17,-15 -21,-13 -17,-13 -21,-15 -18,-13 -2,18 2,-18 h -7 l -5,3 -3,7 5,6 z"
   id="path496"
   inkscape:connector-curvature="0"
   style="fill:#000000;stroke:none" />
         <path
   d="m 9840,14157 v 0 l -16,13 -25,15 -36,18 -38,17 -35,18 -36,18 -30,13 -18,5 5,20 18,-5 30,-13 36,-18 40,-17 39,-23 35,-18 26,-15 20,-13 v 0 z"
   id="path498"
   inkscape:connector-curvature="0"
   style="fill:#000000;stroke:none" />
         <path
   d="m 10150,13931 v 0 l -26,20 -40,28 -46,33 -51,36 -48,35 -46,33 -33,26 -20,15 15,15 15,-15 33,-26 46,-33 48,-35 51,-36 46,-33 41,-28 25,-20 v 0 z"
   id="path500"
   inkscape:connector-curvature="0"
   style="fill:#000000;stroke:none" />
         <path
   d="m 10300,13839 -10,-5 -16,5 -12,10 -18,10 -18,13 -18,13 -20,15 -20,15 -18,16 10,15 18,-15 20,-16 21,-15 17,-13 18,-12 18,-11 13,-5 10,-5 -10,-5 10,5 7,-5 v -7 l -5,-5 -7,-3 z"
   id="path502"
   inkscape:connector-curvature="0"
   style="fill:#000000;stroke:none" />
         <path
   d="m 10353,13918 -2,-15 -10,-8 -16,-18 -12,-20 -13,-18 -15,10 12,18 13,20 15,23 16,13 -3,-15 3,15 h 7 l 8,-8 v -7 l -5,-5 z"
   id="path504"
   inkscape:connector-curvature="0"
   style="fill:#000000;stroke:none" />
         <path
   d="m 10112,14144 v 0 l 23,-18 30,-28 36,-30 38,-33 35,-36 34,-30 27,-28 18,-23 -15,-10 -18,17 -28,28 -33,31 -35,36 -33,33 -36,30 -31,28 -22,18 v 0 z"
   id="path506"
   inkscape:connector-curvature="0"
   style="fill:#000000;stroke:none" />
         <path
   d="m 9756,14401 h 10 l 33,-23 43,-31 51,-38 53,-40 54,-41 46,-36 40,-28 26,-20 -10,-15 -26,20 -41,28 -45,36 -54,40 -53,41 -51,38 -43,31 -33,23 h 10 -10 l -5,5 2,5 5,5 h 8 z"
   id="path508"
   inkscape:connector-curvature="0"
   style="fill:#000000;stroke:none" />
         <path
   d="m 10422,13933 -5,20 -13,26 -18,33 -23,36 -30,40 -33,43 -36,46 -40,46 -44,46 -43,43 -43,41 -46,35 -43,33 -43,26 -43,17 -39,11 -15,-13 -18,-10 -15,-13 -18,-10 16,-8 20,-10 28,-18 30,-18 36,-25 41,-25 40,-31 44,-33 45,-36 44,-38 43,-38 40,-43 39,-41 35,-45 33,-44 26,-45 10,2 15,3 h 13 z"
   id="path510"
   inkscape:connector-curvature="0"
   style="fill:#004cb2;stroke:none" />
         <path
   d="m 9875,14482 5,3 41,-10 46,-18 43,-28 43,-33 46,-36 46,-41 43,-43 43,-45 41,-49 36,-46 33,-43 30,-40 23,-36 18,-33 15,-28 5,-23 h -20 l -5,18 -10,23 -18,33 -23,35 -31,41 -33,43 -35,46 -41,43 -43,46 -43,43 -41,41 -46,36 -43,33 -43,22 -41,18 -36,10 5,3 -5,-3 -7,3 -3,8 3,7 7,3 z"
   id="path512"
   inkscape:connector-curvature="0"
   style="fill:#000000;stroke:none" />
         <path
   d="m 9812,14419 -3,17 18,11 15,12 18,10 15,13 10,-15 -15,-13 -18,-10 -15,-13 -18,-10 -2,18 2,-18 h -7 l -5,3 -3,7 5,5 z"
   id="path514"
   inkscape:connector-curvature="0"
   style="fill:#000000;stroke:none" />
         <path
   d="m 10376,13920 -10,5 -25,46 -33,43 -36,46 -38,38 -41,44 -41,38 -43,38 -46,35 -43,33 -40,31 -41,25 -36,26 -30,18 -28,17 -21,8 -12,8 5,20 18,-8 20,-12 28,-18 30,-18 36,-25 41,-26 40,-30 44,-33 45,-36 44,-38 45,-38 41,-43 38,-44 36,-45 33,-44 25,-45 -10,5 10,-5 v -8 l -2,-5 -8,-3 -5,5 z"
   id="path516"
   inkscape:connector-curvature="0"
   style="fill:#000000;stroke:none" />
         <path
   d="m 10432,13933 -15,-8 h -5 -13 l -15,-2 -8,-3 -5,21 13,2 15,3 h 13 l 15,-5 -15,-8 15,8 5,-5 -2,-8 -6,-3 h -7 z"
   id="path518"
   inkscape:connector-curvature="0"
   style="fill:#000000;stroke:none" />
         <path
   d="m 9832,14017 -28,-8 -33,-10 -36,-13 -38,-20 -35,-23 -31,-30 -23,-38 -10,-49 -2,-28 2,-28 5,-30 8,-28 7,-23 11,-25 12,-23 13,-26 13,-23 15,-22 15,-23 18,-21 13,-12 13,-16 12,-12 13,-13 10,-8 10,-7 8,-8 10,-7 10,-8 10,-5 8,-8 10,-5 26,-10 28,-3 28,3 33,8 30,12 33,16 33,17 33,23 33,21 31,22 28,26 28,23 25,20 21,20 17,18 16,15 -5,33 -6,34 -2,33 2,22 -20,3 -20,8 -26,7 -28,10 -28,13 -25,15 -25,16 -26,17 -25,21 -33,23 -38,25 -39,25 -38,23 -30,18 -26,15 z"
   id="path520"
   inkscape:connector-curvature="0"
   style="fill:#ffffff;stroke:none" />
         <path
   d="m 9588,13826 v 0 l 10,51 26,41 33,33 35,23 41,23 35,12 34,11 28,7 5,-20 -28,-8 -33,-10 -36,-13 -36,-17 -35,-23 -28,-28 -21,-36 -10,-46 v 0 z"
   id="path522"
   inkscape:connector-curvature="0"
   style="fill:#000000;stroke:none" />
         <path
   d="m 9601,13709 v 0 l -8,31 -5,30 -3,28 3,28 h 20 l -2,-28 2,-28 5,-30 8,-25 v 0 z"
   id="path524"
   inkscape:connector-curvature="0"
   style="fill:#000000;stroke:none" />
         <path
   d="m 9707,13521 v 0 l -17,21 -16,23 -15,22 -13,23 -12,26 -16,25 -10,26 -7,22 20,6 8,-23 10,-26 10,-20 13,-26 12,-22 16,-23 15,-23 18,-21 v 0 z"
   id="path526"
   inkscape:connector-curvature="0"
   style="fill:#000000;stroke:none" />
         <path
   d="m 9758,13465 v 0 l -12,13 -13,13 -13,15 -13,15 16,10 12,-10 13,-15 13,-13 13,-12 v 0 z"
   id="path528"
   inkscape:connector-curvature="0"
   style="fill:#000000;stroke:none" />
         <path
   d="m 9837,13409 v 0 l -10,6 -8,7 -10,5 -10,8 -10,8 -8,7 -10,8 -13,7 16,16 7,-8 10,-8 8,-7 10,-8 10,-7 11,-6 7,-7 10,-5 v 0 z"
   id="path530"
   inkscape:connector-curvature="0"
   style="fill:#000000;stroke:none" />
         <path
   d="m 10295,13648 -3,-7 -15,-15 -18,-18 -23,-21 -25,-20 -28,-23 -28,-25 -31,-23 -33,-20 -33,-23 -33,-21 -35,-15 -31,-13 -35,-7 -28,-3 -31,3 -28,12 10,16 23,-8 26,-2 28,2 30,8 31,12 30,16 33,15 33,23 33,20 31,23 28,25 28,23 25,21 18,20 18,18 15,15 -3,-8 3,8 8,3 7,-3 3,-8 -3,-7 z"
   id="path532"
   inkscape:connector-curvature="0"
   style="fill:#000000;stroke:none" />
         <path
   d="m 10274,13781 11,-11 -3,-22 3,-33 5,-34 5,-33 h -21 l -5,33 -5,34 -2,33 2,22 10,-10 -10,10 3,8 7,3 8,-3 3,-8 z"
   id="path534"
   inkscape:connector-curvature="0"
   style="fill:#000000;stroke:none" />
         <path
   d="m 10081,13867 v 0 l 26,-18 25,-15 26,-15 25,-10 28,-11 25,-7 21,-8 17,-2 v -21 l -22,3 -21,7 -25,8 -28,10 -31,15 -25,16 -26,15 -25,18 v 0 z"
   id="path536"
   inkscape:connector-curvature="0"
   style="fill:#000000;stroke:none" />
         <path
   d="m 9830,14027 h 5 l 17,-10 26,-15 30,-18 38,-23 39,-25 38,-26 33,-23 25,-20 -10,-15 -25,20 -33,23 -39,25 -38,26 -38,23 -30,17 -26,16 -12,5 h 5 -5 l -6,5 -2,8 5,5 8,2 z"
   id="path538"
   inkscape:connector-curvature="0"
   style="fill:#000000;stroke:none" />
         <path
   d="m 10285,13648 -16,-15 -17,-18 -21,-20 -25,-20 -28,-23 -28,-26 -31,-22 -33,-21 -33,-23 -33,-17 -33,-16 -30,-12 -33,-8 -28,-3 -28,3 -26,10 -10,5 -8,8 -10,5 -10,8 -10,7 -8,8 -10,7 -10,8 28,-5 h 33 l 33,2 33,8 36,10 38,13 35,13 39,17 35,18 36,18 33,20 33,18 30,21 28,17 23,18 23,18 v -8 -7 -8 z"
   id="path540"
   inkscape:connector-curvature="0"
   style="fill:#004cb2;stroke:none" />
         <path
   d="m 9847,13425 v 0 l 23,-8 26,-2 28,2 30,8 31,12 30,16 33,15 33,23 33,20 31,23 28,25 28,23 25,21 18,20 18,18 15,15 15,-15 -15,-15 -18,-18 -23,-21 -25,-20 -28,-23 -28,-25 -31,-23 -33,-20 -33,-23 -33,-21 -35,-15 -31,-13 -35,-7 -28,-3 -31,3 -28,12 v 0 z"
   id="path542"
   inkscape:connector-curvature="0"
   style="fill:#000000;stroke:none" />
         <path
   d="m 9763,13463 11,18 7,-8 10,-8 8,-7 10,-8 10,-7 11,-6 7,-7 10,-5 -10,-16 -10,6 -8,7 -10,5 -10,8 -10,8 -8,7 -10,8 -13,7 10,18 -10,-18 -2,8 2,8 8,2 8,-2 z"
   id="path544"
   inkscape:connector-curvature="0"
   style="fill:#000000;stroke:none" />
         <path
   d="m 10272,13676 15,-5 -23,-18 -23,-17 -28,-18 -30,-20 -33,-18 -33,-21 -36,-20 -38,-18 -38,-17 -36,-13 -38,-13 -35,-10 -36,-8 -33,-2 h -33 l -31,5 5,20 26,-5 h 33 l 33,3 31,7 35,10 38,13 36,13 38,18 33,17 36,16 33,20 33,18 30,20 28,18 23,18 23,18 15,-6 -15,6 h 8 l 5,-6 2,-5 -5,-5 z"
   id="path546"
   inkscape:connector-curvature="0"
   style="fill:#000000;stroke:none" />
         <path
   d="m 10277,13656 v -13 l -5,13 v 8 7 5 l 20,5 v -10 -7 -8 -3 -12 12 -7 l -2,-5 -8,-3 -5,5 z"
   id="path548"
   inkscape:connector-curvature="0"
   style="fill:#000000;stroke:none" />
         <path
   d="m 9715,13526 -18,21 -15,23 -15,22 -13,23 -13,26 -12,23 -11,25 -7,23 25,-13 28,-7 28,-8 31,-3 33,-2 30,2 33,6 33,5 36,10 33,10 36,15 33,15 35,18 33,21 33,22 33,26 11,-5 15,-10 18,-11 20,-10 23,-7 20,-8 23,-2 h 20 v -13 -18 -15 l 3,-13 -33,-23 -36,-20 -35,-23 -38,-23 -39,-20 -38,-21 -40,-17 -38,-18 -39,-13 -38,-13 -35,-10 -36,-5 -33,-2 -31,2 -27,5 z"
   id="path550"
   inkscape:connector-curvature="0"
   style="fill:#004cb2;stroke:none" />
         <path
   d="m 9606,13704 15,11 8,-23 10,-26 10,-20 13,-26 12,-22 16,-23 15,-23 18,-21 -16,-10 -17,21 -16,23 -15,22 -13,23 -12,26 -16,25 -10,26 -7,22 15,11 -15,-11 2,8 5,5 8,-2 5,-5 z"
   id="path552"
   inkscape:connector-curvature="0"
   style="fill:#000000;stroke:none" />
         <path
   d="m 10119,13821 h 11 l -34,-25 -33,-23 -33,-20 -38,-21 -33,-15 -35,-15 -33,-10 -39,-11 -33,-5 -33,-5 -30,-2 -33,2 -31,3 -30,7 -28,8 -28,15 10,16 23,-11 28,-7 25,-8 31,-2 33,-3 30,3 33,5 33,5 33,10 34,10 35,15 33,16 33,15 33,20 33,23 33,26 h 11 -11 8 l 5,-6 3,-5 -5,-5 z"
   id="path554"
   inkscape:connector-curvature="0"
   style="fill:#000000;stroke:none" />
         <path
   d="m 10264,13776 10,-11 h -20 l -25,3 -21,8 -23,7 -22,13 -18,10 -15,10 -11,5 11,16 10,-6 15,-10 18,-10 18,-8 22,-7 21,-8 20,-2 h 20 l 11,-10 -11,10 8,-3 3,-7 -3,-8 -8,-3 z"
   id="path556"
   inkscape:connector-curvature="0"
   style="fill:#000000;stroke:none" />
         <path
   d="m 10272,13725 -5,-10 -3,15 v 15 18 13 h 21 v -13 -18 -15 l 2,-10 -5,-11 5,11 -2,-8 -5,-5 h -8 l -5,8 z"
   id="path558"
   inkscape:connector-curvature="0"
   style="fill:#000000;stroke:none" />
         <path
   d="m 9723,13531 -3,3 23,-8 25,-5 31,-2 33,2 36,5 33,11 38,12 38,13 38,18 41,18 35,17 39,21 38,23 35,22 36,21 33,23 10,-16 -33,-22 -36,-21 -35,-23 -38,-23 -38,-20 -41,-23 -41,-18 -38,-17 -38,-13 -38,-13 -38,-10 -36,-5 -33,-3 -31,3 -30,5 -28,13 -3,2 3,-2 -5,5 2,5 6,5 h 7 z"
   id="path560"
   inkscape:connector-curvature="0"
   style="fill:#000000;stroke:none" />
         <path
   d="m 9832,14017 -28,-8 -33,-10 -36,-13 -38,-20 -35,-23 -31,-30 -23,-38 -10,-49 8,-23 10,-20 15,-15 18,-15 20,-11 26,-5 25,-5 h 31 l 43,5 46,8 51,13 48,18 48,17 43,18 36,20 25,18 -12,8 -13,10 -13,10 -10,8 -48,-28 -56,-23 -56,-15 -59,-13 -53,-3 -46,3 -38,10 -23,18 -7,23 10,23 25,25 33,23 41,20 41,21 38,15 33,10 -10,5 -16,8 -15,7 z"
   id="path562"
   inkscape:connector-curvature="0"
   style="fill:#004cb2;stroke:none" />
         <path
   d="m 9588,13826 v 0 l 10,51 26,41 33,33 35,23 41,23 35,12 34,11 28,7 5,-20 -28,-8 -33,-10 -36,-13 -36,-17 -35,-23 -28,-28 -21,-36 -10,-46 v 0 0 l -2,-7 -8,-3 -7,3 z"
   id="path564"
   inkscape:connector-curvature="0"
   style="fill:#000000;stroke:none" />
         <path
   d="m 9751,13722 v 0 h -31 l -25,5 -28,5 -23,13 -20,15 -16,18 -12,23 -8,25 h 20 l 8,-20 8,-18 15,-12 15,-16 18,-7 23,-5 25,-6 h 31 v 0 z"
   id="path566"
   inkscape:connector-curvature="0"
   style="fill:#000000;stroke:none" />
         <path
   d="m 10096,13857 v -15 l -25,-18 -38,-23 -43,-18 -49,-18 -48,-17 -53,-13 -46,-8 -43,-5 v 20 l 43,6 46,7 48,13 48,18 49,17 43,18 33,18 25,18 v -15 15 h 8 l 5,-5 3,-5 -6,-5 z"
   id="path568"
   inkscape:connector-curvature="0"
   style="fill:#000000;stroke:none" />
         <path
   d="m 10038,13892 h 10 l 10,-7 13,-10 13,-11 12,-7 -10,-15 -12,7 -13,10 -13,11 -10,7 h 10 -10 l -5,5 2,5 6,5 h 7 z"
   id="path570"
   inkscape:connector-curvature="0"
   style="fill:#000000;stroke:none" />
         <path
   d="m 9672,13839 v 0 l 18,-13 35,-10 46,-2 53,2 56,13 56,15 56,23 46,25 10,-15 -51,-30 -56,-23 -56,-15 -61,-13 -53,-3 -46,3 -40,10 -28,23 v 0 z"
   id="path572"
   inkscape:connector-curvature="0"
   style="fill:#000000;stroke:none" />
         <path
   d="m 9883,14004 -3,-20 -33,-10 -38,-15 -38,-21 -41,-18 -33,-22 -23,-23 -7,-18 5,-18 -15,-10 -11,28 13,28 28,28 33,23 41,23 43,20 38,15 33,10 -2,-20 2,20 8,-2 5,-5 v -8 l -8,-5 z"
   id="path574"
   inkscape:connector-curvature="0"
   style="fill:#000000;stroke:none" />
         <path
   d="m 9830,14027 h 7 l 5,-2 15,-8 16,-8 10,-5 -10,-20 -10,5 -16,8 -15,7 -5,3 h 8 -8 l -5,5 v 8 l 8,7 h 7 z"
   id="path576"
   inkscape:connector-curvature="0"
   style="fill:#000000;stroke:none" />
        </g>
       </g>
      </g>
     </g>
    </g>
   </g>
  </g>
 </g>
</svg>