<?xml version="1.0" encoding="UTF-8" standalone="no"?>
<svg
   xmlns:ooo="http://xml.openoffice.org/svg/export"
   xmlns:dc="http://purl.org/dc/elements/1.1/"
   xmlns:cc="http://creativecommons.org/ns#"
   xmlns:rdf="http://www.w3.org/1999/02/22-rdf-syntax-ns#"
   xmlns:svg="http://www.w3.org/2000/svg"
   xmlns="http://www.w3.org/2000/svg"
   xmlns:sodipodi="http://sodipodi.sourceforge.net/DTD/sodipodi-0.dtd"
   xmlns:inkscape="http://www.inkscape.org/namespaces/inkscape"
   version="1.2"
   width="56.82mm"
   height="17.68mm"
   viewBox="0 0 5682 1768"
   preserveAspectRatio="xMidYMid"
   xml:space="preserve"
   id="svg151"
   sodipodi:docname="bcity2.svg"
   style="fill-rule:evenodd;stroke-width:28.22200012;stroke-linejoin:round"
   inkscape:version="0.92.5 (2060ec1f9f, 2020-04-08)"><metadata
   id="metadata155"><rdf:RDF><cc:Work
       rdf:about=""><dc:format>image/svg+xml</dc:format><dc:type
         rdf:resource="http://purl.org/dc/dcmitype/StillImage" /></cc:Work></rdf:RDF></metadata><sodipodi:namedview
   pagecolor="#ffffff"
   bordercolor="#666666"
   borderopacity="1"
   objecttolerance="10"
   gridtolerance="10"
   guidetolerance="10"
   inkscape:pageopacity="0"
   inkscape:pageshadow="2"
   inkscape:window-width="664"
   inkscape:window-height="487"
   id="namedview153"
   showgrid="false"
   inkscape:zoom="0.2102413"
   inkscape:cx="107.37638"
   inkscape:cy="33.411022"
   inkscape:window-x="0"
   inkscape:window-y="0"
   inkscape:window-maximized="0"
   inkscape:current-layer="svg151" />
 <defs
   class="ClipPathGroup"
   id="defs8">
  <clipPath
   id="presentation_clip_path"
   clipPathUnits="userSpaceOnUse">
   <rect
   x="0"
   y="0"
   width="21000"
   height="29700"
   id="rect2" />
  </clipPath>
  <clipPath
   id="presentation_clip_path_shrink"
   clipPathUnits="userSpaceOnUse">
   <rect
   x="21"
   y="29"
   width="20958"
   height="29641"
   id="rect5" />
  </clipPath>
 </defs>
 <defs
   class="TextShapeIndex"
   id="defs12">
  <g
   ooo:slide="id1"
   ooo:id-list="id3"
   id="g10" />
 </defs>
 <defs
   class="EmbeddedBulletChars"
   id="defs44">
  <g
   id="bullet-char-template-57356"
   transform="matrix(4.8828125e-4,0,0,-4.8828125e-4,0,0)">
   <path
   d="M 580,1141 1163,571 580,0 -4,571 Z"
   id="path14"
   inkscape:connector-curvature="0" />
  </g>
  <g
   id="bullet-char-template-57354"
   transform="matrix(4.8828125e-4,0,0,-4.8828125e-4,0,0)">
   <path
   d="M 8,1128 H 1137 V 0 H 8 Z"
   id="path17"
   inkscape:connector-curvature="0" />
  </g>
  <g
   id="bullet-char-template-10146"
   transform="matrix(4.8828125e-4,0,0,-4.8828125e-4,0,0)">
   <path
   d="M 174,0 602,739 174,1481 1456,739 Z M 1358,739 309,1346 659,739 Z"
   id="path20"
   inkscape:connector-curvature="0" />
  </g>
  <g
   id="bullet-char-template-10132"
   transform="matrix(4.8828125e-4,0,0,-4.8828125e-4,0,0)">
   <path
   d="M 2015,739 1276,0 H 717 l 543,543 H 174 v 393 h 1086 l -543,545 h 557 z"
   id="path23"
   inkscape:connector-curvature="0" />
  </g>
  <g
   id="bullet-char-template-10007"
   transform="matrix(4.8828125e-4,0,0,-4.8828125e-4,0,0)">
   <path
   d="m 0,-2 c -7,16 -16,29 -25,39 l 381,530 c -94,256 -141,385 -141,387 0,25 13,38 40,38 9,0 21,-2 34,-5 21,4 42,12 65,25 l 27,-13 111,-251 280,301 64,-25 24,25 c 21,-10 41,-24 62,-43 C 886,937 835,863 770,784 769,783 710,716 594,584 L 774,223 c 0,-27 -21,-55 -63,-84 l 16,-20 C 717,90 699,76 672,76 641,76 570,178 457,381 L 164,-76 c -22,-34 -53,-51 -92,-51 -42,0 -63,17 -64,51 -7,9 -10,24 -10,44 0,9 1,19 2,30 z"
   id="path26"
   inkscape:connector-curvature="0" />
  </g>
  <g
   id="bullet-char-template-10004"
   transform="matrix(4.8828125e-4,0,0,-4.8828125e-4,0,0)">
   <path
   d="M 285,-33 C 182,-33 111,30 74,156 52,228 41,333 41,471 c 0,78 14,145 41,201 34,71 87,106 158,106 53,0 88,-31 106,-94 l 23,-176 c 8,-64 28,-97 59,-98 l 735,706 c 11,11 33,17 66,17 42,0 63,-15 63,-46 V 965 c 0,-36 -10,-64 -30,-84 L 442,47 C 390,-6 338,-33 285,-33 Z"
   id="path29"
   inkscape:connector-curvature="0" />
  </g>
  <g
   id="bullet-char-template-9679"
   transform="matrix(4.8828125e-4,0,0,-4.8828125e-4,0,0)">
   <path
   d="M 813,0 C 632,0 489,54 383,161 276,268 223,411 223,592 c 0,181 53,324 160,431 106,107 249,161 430,161 179,0 323,-54 432,-161 108,-107 162,-251 162,-431 0,-180 -54,-324 -162,-431 C 1136,54 992,0 813,0 Z"
   id="path32"
   inkscape:connector-curvature="0" />
  </g>
  <g
   id="bullet-char-template-8226"
   transform="matrix(4.8828125e-4,0,0,-4.8828125e-4,0,0)">
   <path
   d="m 346,457 c -73,0 -137,26 -191,78 -54,51 -81,114 -81,188 0,73 27,136 81,188 54,52 118,78 191,78 73,0 134,-26 185,-79 51,-51 77,-114 77,-187 0,-75 -25,-137 -76,-188 -50,-52 -112,-78 -186,-78 z"
   id="path35"
   inkscape:connector-curvature="0" />
  </g>
  <g
   id="bullet-char-template-8211"
   transform="matrix(4.8828125e-4,0,0,-4.8828125e-4,0,0)">
   <path
   d="M -4,459 H 1135 V 606 H -4 Z"
   id="path38"
   inkscape:connector-curvature="0" />
  </g>
  <g
   id="bullet-char-template-61548"
   transform="matrix(4.8828125e-4,0,0,-4.8828125e-4,0,0)">
   <path
   d="m 173,740 c 0,163 58,303 173,419 116,115 255,173 419,173 163,0 302,-58 418,-173 116,-116 174,-256 174,-419 0,-163 -58,-303 -174,-418 C 1067,206 928,148 765,148 601,148 462,206 346,322 231,437 173,577 173,740 Z"
   id="path41"
   inkscape:connector-curvature="0" />
  </g>
 </defs>
 <g
   id="g49"
   transform="translate(-7659,-13966)">
  <g
   id="id2"
   class="Master_Slide">
   <g
   id="bg-id2"
   class="Background" />
   <g
   id="bo-id2"
   class="BackgroundObjects" />
  </g>
 </g>
 <g
   class="SlideGroup"
   id="g149"
   transform="translate(-7659,-13966)">
  <g
   id="g147">
   <g
   id="container-id1">
    <g
   id="id1"
   class="Slide"
   clip-path="url(#presentation_clip_path)">
     <g
   class="Page"
   id="g143">
      <g
   class="Graphic"
   id="g141">
       <g
   id="id3">
        <rect
   class="BoundingBox"
   x="7659"
   y="13966"
   width="5682"
   height="1768"
   id="rect51"
   style="fill:none;stroke:none" />
        <defs
   id="defs56">
         <clipPath
   id="clip_path_1"
   clipPathUnits="userSpaceOnUse">
          <path
   d="m 7659,13966 h 5681 v 1767 H 7659 Z"
   id="path53"
   inkscape:connector-curvature="0" />
         </clipPath>
        </defs>
        <g
   clip-path="url(#clip_path_1)"
   id="g138">
         <path
   d="m 13338,15703 3,-1737 H 7659 v 1737 z"
   id="path58"
   inkscape:connector-curvature="0"
   style="fill:#0000ff;stroke:none" />
         <path
   d="m 7659,15734 v -173 h 140 v 114 h 48 v -81 h 89 v -69 h 140 v 69 h 96 v -91 h 104 v 147 l 125,3 v -229 h 114 v -245 h 44 v -61 h 78 v -33 h 41 v -86 h 43 v 81 h 38 v 36 h 79 v 58 h 46 v 323 h 277 v -246 h 165 v 81 h 109 v -287 h 28 v -44 h -25 v -43 h 226 v 48 h -31 v 39 h 31 v 485 h 198 v -272 h 127 v 196 h 193 v 194 h 150 l -2,-138 h 76 v 99 h 188 v -127 h 152 v 252 z"
   id="path60"
   inkscape:connector-curvature="0"
   style="fill:#c199ff;stroke:none" />
         <path
   d="m 11799,15169 h 160 v 64 h 40 v 346 h 51 v -130 h 173 v 130 h 132 v -285 h 53 v -87 h 49 v -45 h 30 v -79 h 36 v 76 h 28 v 48 h 48 v 84 h 48 v 196 h 171 v -203 h 160 v 163 h 144 v 150 h 219 v 134 h -2676 v -142 h 196 v -79 h 160 v -178 h 140 v 277 h 81 v -173 h 150 v -132 h 267 v 165 h 101 v -239 h 39 z"
   id="path62"
   inkscape:connector-curvature="0"
   style="fill:#c199ff;stroke:none" />
         <path
   d="m 8678,14391 41,-26 -11,-33 21,28 38,-30 -23,43 48,23 h -50 l 10,36 -23,-31 -21,41 8,-54 z"
   id="path64"
   inkscape:connector-curvature="0"
   style="fill:#ffffff;stroke:none" />
         <path
   d="m 9288,14477 81,-53 -20,-69 43,56 79,-66 -46,92 99,48 h -104 l 20,71 -48,-63 -41,86 16,-109 z"
   id="path66"
   inkscape:connector-curvature="0"
   style="fill:#ffffff;stroke:none" />
         <path
   d="m 9237,14159 38,-23 -7,-35 20,28 38,-31 -23,44 48,22 h -50 l 10,36 -23,-30 -20,40 7,-53 z"
   id="path68"
   inkscape:connector-curvature="0"
   style="fill:#ffffff;stroke:none" />
         <path
   d="m 9219,14821 41,-26 -10,-33 20,28 38,-30 -23,43 49,23 h -51 l 10,35 -23,-30 -20,41 7,-54 z"
   id="path70"
   inkscape:connector-curvature="0"
   style="fill:#ffffff;stroke:none" />
         <path
   d="m 7931,15151 41,-25 -11,-33 21,28 40,-33 -22,46 45,23 h -51 l 11,33 -21,-28 -20,40 8,-53 z"
   id="path72"
   inkscape:connector-curvature="0"
   style="fill:#ffffff;stroke:none" />
         <path
   d="m 7778,14582 39,-26 -8,-33 20,28 38,-30 -22,43 48,23 h -51 l 10,35 -23,-30 -20,40 8,-53 z"
   id="path74"
   inkscape:connector-curvature="0"
   style="fill:#ffffff;stroke:none" />
         <path
   d="m 8538,14592 41,-26 -10,-33 20,28 38,-30 -23,43 49,23 h -51 l 10,35 -23,-30 -20,41 7,-54 z"
   id="path76"
   inkscape:connector-curvature="0"
   style="fill:#ffffff;stroke:none" />
         <path
   d="m 8594,14103 41,-25 -10,-33 20,28 38,-31 -23,44 48,22 h -50 l 10,36 -23,-30 -20,40 7,-53 z"
   id="path78"
   inkscape:connector-curvature="0"
   style="fill:#ffffff;stroke:none" />
         <path
   d="m 7723,14928 38,-26 -11,-33 23,28 38,-30 -22,43 48,23 h -51 l 10,33 -23,-28 -20,38 8,-51 z"
   id="path80"
   inkscape:connector-curvature="0"
   style="fill:#ffffff;stroke:none" />
         <path
   d="m 9900,14350 82,-53 -21,-69 43,56 82,-64 -48,92 99,46 h -105 l 21,74 -46,-64 -43,84 15,-110 z"
   id="path82"
   inkscape:connector-curvature="0"
   style="fill:#ffffff;stroke:none" />
         <path
   d="m 7768,14208 82,-54 -18,-68 43,56 79,-64 -49,89 102,48 h -107 l 23,72 -48,-62 -43,84 18,-109 z"
   id="path84"
   inkscape:connector-curvature="0"
   style="fill:#ffffff;stroke:none" />
         <path
   d="m 9237,14162 41,-26 -10,-33 20,26 38,-31 -23,44 48,22 h -50 l 10,36 -23,-30 -20,40 7,-53 z"
   id="path86"
   inkscape:connector-curvature="0"
   style="fill:#ffffff;stroke:none" />
         <path
   d="m 9219,14821 41,-26 -10,-33 20,28 38,-30 -23,43 49,23 h -51 l 10,35 -23,-30 -20,41 7,-54 z"
   id="path88"
   inkscape:connector-curvature="0"
   style="fill:#ffffff;stroke:none" />
         <path
   d="m 8027,14447 41,-26 -10,-33 20,26 38,-31 -22,43 48,23 h -51 l 10,36 -23,-31 -20,41 8,-53 z"
   id="path90"
   inkscape:connector-curvature="0"
   style="fill:#ffffff;stroke:none" />
         <path
   d="m 10523,14391 38,-26 -8,-33 21,28 38,-30 -23,43 48,23 h -51 l 11,36 -23,-31 -21,41 8,-54 z"
   id="path92"
   inkscape:connector-curvature="0"
   style="fill:#ffffff;stroke:none" />
         <path
   d="m 10693,15004 81,-54 -20,-66 43,54 79,-61 -46,89 99,46 h -106 l 23,73 -49,-63 -40,84 15,-110 z"
   id="path94"
   inkscape:connector-curvature="0"
   style="fill:#ffffff;stroke:none" />
         <path
   d="m 10106,14615 38,-26 -7,-33 20,28 38,-30 -23,43 48,23 h -50 l 10,35 -23,-30 -20,41 7,-54 z"
   id="path96"
   inkscape:connector-curvature="0"
   style="fill:#ffffff;stroke:none" />
         <path
   d="m 11168,14220 38,-25 -7,-33 20,28 38,-31 -23,44 49,22 h -51 l 10,36 -23,-30 -20,40 7,-53 z"
   id="path98"
   inkscape:connector-curvature="0"
   style="fill:#ffffff;stroke:none" />
         <path
   d="m 10614,15251 38,-26 -10,-33 23,28 38,-30 -23,43 49,23 h -51 l 10,35 -23,-30 -20,41 7,-54 z"
   id="path100"
   inkscape:connector-curvature="0"
   style="fill:#ffffff;stroke:none" />
         <path
   d="m 10439,14103 38,-25 -7,-33 20,28 38,-31 -23,44 48,22 h -50 l 10,36 -23,-30 -20,40 7,-53 z"
   id="path102"
   inkscape:connector-curvature="0"
   style="fill:#ffffff;stroke:none" />
         <path
   d="m 9883,14902 38,-25 -8,-33 20,28 38,-31 -22,43 48,23 h -51 l 10,33 -23,-28 -20,38 8,-50 z"
   id="path104"
   inkscape:connector-curvature="0"
   style="fill:#ffffff;stroke:none" />
         <path
   d="m 10040,15106 38,-26 -10,-33 23,28 38,-30 -23,43 48,23 h -50 l 10,35 -23,-30 -20,41 7,-54 z"
   id="path106"
   inkscape:connector-curvature="0"
   style="fill:#ffffff;stroke:none" />
         <path
   d="m 10807,14370 41,-25 -10,-33 20,28 41,-33 -23,46 46,23 h -51 l 10,33 -20,-31 -20,41 7,-51 z"
   id="path108"
   inkscape:connector-curvature="0"
   style="fill:#ffffff;stroke:none" />
         <path
   d="m 11260,14526 81,-54 -18,-68 44,56 78,-67 -48,92 102,48 h -107 l 23,72 -48,-64 -44,86 18,-109 z"
   id="path110"
   inkscape:connector-curvature="0"
   style="fill:#ffffff;stroke:none" />
         <path
   d="m 11196,14935 38,-25 -10,-33 23,28 38,-31 -23,43 49,21 h -51 l 10,35 -23,-30 -20,41 7,-51 z"
   id="path112"
   inkscape:connector-curvature="0"
   style="fill:#ffffff;stroke:none" />
         <path
   d="m 11394,15207 39,-25 -8,-33 20,28 38,-31 -22,44 48,23 h -51 l 10,35 -23,-30 -20,40 8,-53 z"
   id="path114"
   inkscape:connector-curvature="0"
   style="fill:#ffffff;stroke:none" />
         <path
   d="m 11918,14266 41,-25 -11,-33 21,25 38,-30 -23,43 48,23 h -51 l 11,35 -23,-30 -21,41 8,-54 z"
   id="path116"
   inkscape:connector-curvature="0"
   style="fill:#ffffff;stroke:none" />
         <path
   d="m 12106,14477 38,-25 -10,-33 23,25 38,-30 -23,46 48,22 -50,-2 10,35 -23,-30 -21,41 8,-54 z"
   id="path118"
   inkscape:connector-curvature="0"
   style="fill:#ffffff;stroke:none" />
         <path
   d="m 11943,14607 38,-25 -10,-33 23,25 38,-31 -23,44 49,23 h -51 l 10,35 -23,-30 -20,40 7,-53 z"
   id="path120"
   inkscape:connector-curvature="0"
   style="fill:#ffffff;stroke:none" />
         <path
   d="m 12012,14978 81,-50 -17,-69 43,56 78,-66 -48,89 99,48 h -104 l 20,71 -45,-63 -43,86 15,-109 z"
   id="path122"
   inkscape:connector-curvature="0"
   style="fill:#ffffff;stroke:none" />
         <path
   d="m 11626,14872 40,-26 -10,-35 21,28 38,-31 -23,43 48,23 h -51 l 10,36 -22,-31 -21,41 8,-53 z"
   id="path124"
   inkscape:connector-curvature="0"
   style="fill:#ffffff;stroke:none" />
         <path
   d="m 12624,14231 39,-26 -8,-33 20,28 38,-33 -23,46 49,23 h -51 l 10,33 -23,-31 -20,41 8,-51 z"
   id="path126"
   inkscape:connector-curvature="0"
   style="fill:#ffffff;stroke:none" />
         <path
   d="m 12716,14533 81,-53 -18,-69 44,56 78,-63 -48,91 102,48 -107,-2 20,74 -45,-64 -44,84 16,-109 z"
   id="path128"
   inkscape:connector-curvature="0"
   style="fill:#ffffff;stroke:none" />
         <path
   d="m 12650,14943 40,-23 -10,-33 21,28 40,-33 -25,46 48,20 h -51 l 11,33 -21,-31 -23,41 8,-51 z"
   id="path130"
   inkscape:connector-curvature="0"
   style="fill:#ffffff;stroke:none" />
         <path
   d="m 12851,15218 38,-26 -8,-33 20,26 38,-31 -22,46 48,23 -51,-3 10,36 -23,-31 -20,41 8,-53 z"
   id="path132"
   inkscape:connector-curvature="0"
   style="fill:#ffffff;stroke:none" />
         <path
   d="m 13082,14243 40,-25 -10,-33 21,28 40,-61 -25,73 48,23 h -51 l 10,36 -20,-31 -23,41 8,-53 z"
   id="path134"
   inkscape:connector-curvature="0"
   style="fill:#ffffff;stroke:none" />
         <path
   d="m 13082,14879 40,-25 -10,-33 21,28 38,-33 -23,45 48,23 h -51 l 10,33 -22,-30 -21,41 8,-51 z"
   id="path136"
   inkscape:connector-curvature="0"
   style="fill:#ffffff;stroke:none" />
        </g>
       </g>
      </g>
     </g>
    </g>
   </g>
  </g>
 </g>
</svg>