<?xml version="1.0" encoding="UTF-8" standalone="no"?>
<svg
   xmlns:ooo="http://xml.openoffice.org/svg/export"
   xmlns:dc="http://purl.org/dc/elements/1.1/"
   xmlns:cc="http://creativecommons.org/ns#"
   xmlns:rdf="http://www.w3.org/1999/02/22-rdf-syntax-ns#"
   xmlns:svg="http://www.w3.org/2000/svg"
   xmlns="http://www.w3.org/2000/svg"
   xmlns:sodipodi="http://sodipodi.sourceforge.net/DTD/sodipodi-0.dtd"
   xmlns:inkscape="http://www.inkscape.org/namespaces/inkscape"
   version="1.2"
   width="85.650002mm"
   height="76.449997mm"
   viewBox="0 0 8565.0002 7644.9997"
   preserveAspectRatio="xMidYMid"
   xml:space="preserve"
   id="svg175"
   sodipodi:docname="bells.svg"
   style="fill-rule:evenodd;stroke-width:28.22200012;stroke-linejoin:round"
   inkscape:version="0.92.5 (2060ec1f9f, 2020-04-08)"><metadata
   id="metadata179"><rdf:RDF><cc:Work
       rdf:about=""><dc:format>image/svg+xml</dc:format><dc:type
         rdf:resource="http://purl.org/dc/dcmitype/StillImage" /></cc:Work></rdf:RDF></metadata><sodipodi:namedview
   pagecolor="#ffffff"
   bordercolor="#666666"
   borderopacity="1"
   objecttolerance="10"
   gridtolerance="10"
   guidetolerance="10"
   inkscape:pageopacity="0"
   inkscape:pageshadow="2"
   inkscape:window-width="664"
   inkscape:window-height="487"
   id="namedview177"
   showgrid="false"
   inkscape:zoom="0.2102413"
   inkscape:cx="161.87717"
   inkscape:cy="144.45354"
   inkscape:window-x="0"
   inkscape:window-y="0"
   inkscape:window-maximized="0"
   inkscape:current-layer="svg175" />
 <defs
   class="ClipPathGroup"
   id="defs8">
  <clipPath
   id="presentation_clip_path"
   clipPathUnits="userSpaceOnUse">
   <rect
   x="0"
   y="0"
   width="21000"
   height="29700"
   id="rect2" />
  </clipPath>
  <clipPath
   id="presentation_clip_path_shrink"
   clipPathUnits="userSpaceOnUse">
   <rect
   x="21"
   y="29"
   width="20958"
   height="29641"
   id="rect5" />
  </clipPath>
 </defs>
 <defs
   class="TextShapeIndex"
   id="defs12">
  <g
   ooo:slide="id1"
   ooo:id-list="id3"
   id="g10" />
 </defs>
 <defs
   class="EmbeddedBulletChars"
   id="defs44">
  <g
   id="bullet-char-template-57356"
   transform="matrix(4.8828125e-4,0,0,-4.8828125e-4,0,0)">
   <path
   d="M 580,1141 1163,571 580,0 -4,571 Z"
   id="path14"
   inkscape:connector-curvature="0" />
  </g>
  <g
   id="bullet-char-template-57354"
   transform="matrix(4.8828125e-4,0,0,-4.8828125e-4,0,0)">
   <path
   d="M 8,1128 H 1137 V 0 H 8 Z"
   id="path17"
   inkscape:connector-curvature="0" />
  </g>
  <g
   id="bullet-char-template-10146"
   transform="matrix(4.8828125e-4,0,0,-4.8828125e-4,0,0)">
   <path
   d="M 174,0 602,739 174,1481 1456,739 Z M 1358,739 309,1346 659,739 Z"
   id="path20"
   inkscape:connector-curvature="0" />
  </g>
  <g
   id="bullet-char-template-10132"
   transform="matrix(4.8828125e-4,0,0,-4.8828125e-4,0,0)">
   <path
   d="M 2015,739 1276,0 H 717 l 543,543 H 174 v 393 h 1086 l -543,545 h 557 z"
   id="path23"
   inkscape:connector-curvature="0" />
  </g>
  <g
   id="bullet-char-template-10007"
   transform="matrix(4.8828125e-4,0,0,-4.8828125e-4,0,0)">
   <path
   d="m 0,-2 c -7,16 -16,29 -25,39 l 381,530 c -94,256 -141,385 -141,387 0,25 13,38 40,38 9,0 21,-2 34,-5 21,4 42,12 65,25 l 27,-13 111,-251 280,301 64,-25 24,25 c 21,-10 41,-24 62,-43 C 886,937 835,863 770,784 769,783 710,716 594,584 L 774,223 c 0,-27 -21,-55 -63,-84 l 16,-20 C 717,90 699,76 672,76 641,76 570,178 457,381 L 164,-76 c -22,-34 -53,-51 -92,-51 -42,0 -63,17 -64,51 -7,9 -10,24 -10,44 0,9 1,19 2,30 z"
   id="path26"
   inkscape:connector-curvature="0" />
  </g>
  <g
   id="bullet-char-template-10004"
   transform="matrix(4.8828125e-4,0,0,-4.8828125e-4,0,0)">
   <path
   d="M 285,-33 C 182,-33 111,30 74,156 52,228 41,333 41,471 c 0,78 14,145 41,201 34,71 87,106 158,106 53,0 88,-31 106,-94 l 23,-176 c 8,-64 28,-97 59,-98 l 735,706 c 11,11 33,17 66,17 42,0 63,-15 63,-46 V 965 c 0,-36 -10,-64 -30,-84 L 442,47 C 390,-6 338,-33 285,-33 Z"
   id="path29"
   inkscape:connector-curvature="0" />
  </g>
  <g
   id="bullet-char-template-9679"
   transform="matrix(4.8828125e-4,0,0,-4.8828125e-4,0,0)">
   <path
   d="M 813,0 C 632,0 489,54 383,161 276,268 223,411 223,592 c 0,181 53,324 160,431 106,107 249,161 430,161 179,0 323,-54 432,-161 108,-107 162,-251 162,-431 0,-180 -54,-324 -162,-431 C 1136,54 992,0 813,0 Z"
   id="path32"
   inkscape:connector-curvature="0" />
  </g>
  <g
   id="bullet-char-template-8226"
   transform="matrix(4.8828125e-4,0,0,-4.8828125e-4,0,0)">
   <path
   d="m 346,457 c -73,0 -137,26 -191,78 -54,51 -81,114 -81,188 0,73 27,136 81,188 54,52 118,78 191,78 73,0 134,-26 185,-79 51,-51 77,-114 77,-187 0,-75 -25,-137 -76,-188 -50,-52 -112,-78 -186,-78 z"
   id="path35"
   inkscape:connector-curvature="0" />
  </g>
  <g
   id="bullet-char-template-8211"
   transform="matrix(4.8828125e-4,0,0,-4.8828125e-4,0,0)">
   <path
   d="M -4,459 H 1135 V 606 H -4 Z"
   id="path38"
   inkscape:connector-curvature="0" />
  </g>
  <g
   id="bullet-char-template-61548"
   transform="matrix(4.8828125e-4,0,0,-4.8828125e-4,0,0)">
   <path
   d="m 173,740 c 0,163 58,303 173,419 116,115 255,173 419,173 163,0 302,-58 418,-173 116,-116 174,-256 174,-419 0,-163 -58,-303 -174,-418 C 1067,206 928,148 765,148 601,148 462,206 346,322 231,437 173,577 173,740 Z"
   id="path41"
   inkscape:connector-curvature="0" />
  </g>
 </defs>
 <g
   id="g49"
   transform="translate(-6217,-11027)">
  <g
   id="id2"
   class="Master_Slide">
   <g
   id="bg-id2"
   class="Background" />
   <g
   id="bo-id2"
   class="BackgroundObjects" />
  </g>
 </g>
 <g
   class="SlideGroup"
   id="g173"
   transform="translate(-6217,-11027)">
  <g
   id="g171">
   <g
   id="container-id1">
    <g
   id="id1"
   class="Slide"
   clip-path="url(#presentation_clip_path)">
     <g
   class="Page"
   id="g167">
      <g
   class="Graphic"
   id="g165">
       <g
   id="id3">
        <rect
   class="BoundingBox"
   x="6217"
   y="11027"
   width="8565"
   height="7645"
   id="rect51"
   style="fill:none;stroke:none" />
        <defs
   id="defs56">
         <clipPath
   id="clip_path_1"
   clipPathUnits="userSpaceOnUse">
          <path
   d="m 6217,11027 h 8564 v 7644 H 6217 Z"
   id="path53"
   inkscape:connector-curvature="0" />
         </clipPath>
        </defs>
        <g
   clip-path="url(#clip_path_1)"
   id="g162">
         <path
   d="m 10125,13761 -74,28 -66,28 -58,33 -56,33 -49,35 -50,38 -44,41 -40,41 -41,45 -36,46 -38,48 -35,49 -38,53 -38,53 -39,54 -43,58 -28,38 -25,33 -25,36 -21,33 -23,33 -17,36 -26,38 -20,43 -46,99 -41,107 -35,109 -31,112 -28,117 -25,122 -25,122 -23,124 -23,122 -26,124 -22,122 -31,120 -33,117 -36,111 -40,110 -46,101 -35,44 -33,43 -36,38 -33,41 -33,38 -36,35 -30,38 -33,38 -31,39 -30,40 -28,41 -28,46 -28,45 -23,51 -23,53 -20,59 -5,147 -8,104 5,87 38,94 v 15 l -10,10 h -15 l -10,-10 -28,-53 -23,-49 -20,-45 -18,-49 -15,-53 -11,-61 -5,-71 -2,-86 23,-61 23,-56 25,-54 25,-50 31,-49 30,-43 28,-43 33,-43 33,-41 33,-41 36,-40 33,-41 36,-41 35,-43 36,-45 35,-46 46,-102 46,-107 33,-111 33,-115 30,-117 31,-119 28,-122 23,-122 28,-122 25,-119 28,-120 28,-111 33,-112 35,-109 41,-107 46,-99 23,-46 20,-41 23,-38 23,-35 23,-36 23,-35 27,-39 28,-40 44,-59 43,-56 43,-53 41,-51 40,-48 41,-48 43,-44 43,-40 49,-41 48,-38 53,-35 56,-36 61,-31 66,-33 66,-28 76,-27 21,2 13,13 -3,20 z"
   id="path58"
   inkscape:connector-curvature="0"
   style="fill:#000000;stroke:none" />
         <path
   d="m 10125,13761 -74,28 -66,28 -58,33 -56,33 -49,35 -50,38 -44,41 -40,41 -41,45 -36,46 -38,48 -35,49 -38,53 -38,53 -39,54 -43,58 -28,38 -25,33 -25,36 -21,33 -23,33 -17,36 -26,38 -20,43 -46,99 -41,107 -35,109 -31,112 -28,117 -25,122 -25,122 -23,124 -23,122 -26,124 -22,122 -31,120 -33,117 -36,111 -40,110 -46,101 -35,44 -33,43 -36,38 -33,41 -33,38 -36,35 -30,38 -33,38 -31,39 -30,40 -28,41 -28,46 -28,45 -23,51 -23,53 -20,59 -5,147 -8,104 5,87 38,94 v 15 l -10,10 h -15 l -10,-10 -28,-53 -23,-49 -20,-45 -18,-49 -15,-53 -11,-61 -5,-71 -2,-86 23,-61 23,-56 25,-54 25,-50 31,-49 30,-43 28,-43 33,-43 33,-41 33,-41 36,-40 33,-41 36,-41 35,-43 36,-45 35,-46 46,-102 46,-107 33,-111 33,-115 30,-117 31,-119 28,-122 23,-122 28,-122 25,-119 28,-120 28,-111 33,-112 35,-109 41,-107 46,-99 23,-46 20,-41 23,-38 23,-35 23,-36 23,-35 27,-39 28,-40 44,-59 43,-56 43,-53 41,-51 40,-48 41,-48 43,-44 43,-40 49,-41 48,-38 53,-35 56,-36 61,-31 66,-33 66,-28 76,-27 21,2 13,13 -3,20 z"
   id="path60"
   inkscape:connector-curvature="0"
   style="fill:none;stroke:#000000" />
         <path
   d="m 10529,13644 117,-5 h 111 l 105,10 99,18 94,23 89,30 78,38 77,46 71,51 63,58 61,66 54,71 50,77 44,84 40,88 36,97 15,89 15,84 10,79 13,76 10,76 13,74 15,73 18,79 41,86 35,84 33,89 31,92 28,91 28,92 28,91 28,89 30,89 31,89 35,84 38,81 41,79 48,76 54,71 61,66 124,137 99,140 79,142 53,143 36,142 13,142 -6,140 -22,135 -44,132 -58,129 -76,122 -92,115 -104,109 -119,99 -132,89 -145,81 -77,31 -73,28 -71,25 -71,23 -72,23 -68,20 -71,18 -72,15 -73,15 -74,16 -79,12 -78,10 -89,11 -92,7 -96,8 -102,8 -86,12 -89,8 -89,7 -92,3 h -91 l -94,-3 -97,-5 -94,-5 -91,-7 -97,-10 -99,-11 -96,-10 -99,-10 -97,-10 -97,-10 -96,-10 -13,-8 -2,-13 5,-12 15,-6 94,8 94,8 97,5 h 96 97 94 96 l 89,-3 97,-5 94,-7 91,-8 92,-8 91,-10 86,-13 89,-12 84,-13 99,-5 92,-8 86,-7 84,-11 79,-10 76,-12 71,-13 74,-15 66,-16 68,-17 67,-21 68,-20 66,-23 69,-23 71,-28 74,-28 134,-73 125,-84 112,-92 101,-96 92,-107 73,-112 61,-114 46,-122 28,-124 13,-125 -8,-130 -25,-129 -49,-132 -68,-130 -89,-127 -114,-127 -61,-66 -59,-71 -51,-74 -48,-78 -46,-82 -43,-81 -41,-86 -38,-87 -35,-89 -38,-89 -36,-89 -35,-91 -36,-89 -38,-89 -41,-89 -40,-81 -18,-79 -15,-76 -13,-76 -13,-77 -13,-78 -12,-82 -13,-84 -18,-91 -30,-89 -36,-84 -40,-81 -44,-74 -45,-71 -51,-63 -56,-59 -61,-53 -69,-46 -71,-41 -76,-33 -84,-25 -89,-18 -94,-12 -101,-3 -110,5 -15,-5 -5,-13 5,-12 z"
   id="path62"
   inkscape:connector-curvature="0"
   style="fill:#000000;stroke:none" />
         <path
   d="m 10529,13644 117,-5 h 111 l 105,10 99,18 94,23 89,30 78,38 77,46 71,51 63,58 61,66 54,71 50,77 44,84 40,88 36,97 15,89 15,84 10,79 13,76 10,76 13,74 15,73 18,79 41,86 35,84 33,89 31,92 28,91 28,92 28,91 28,89 30,89 31,89 35,84 38,81 41,79 48,76 54,71 61,66 124,137 99,140 79,142 53,143 36,142 13,142 -6,140 -22,135 -44,132 -58,129 -76,122 -92,115 -104,109 -119,99 -132,89 -145,81 -77,31 -73,28 -71,25 -71,23 -72,23 -68,20 -71,18 -72,15 -73,15 -74,16 -79,12 -78,10 -89,11 -92,7 -96,8 -102,8 -86,12 -89,8 -89,7 -92,3 h -91 l -94,-3 -97,-5 -94,-5 -91,-7 -97,-10 -99,-11 -96,-10 -99,-10 -97,-10 -97,-10 -96,-10 -13,-8 -2,-13 5,-12 15,-6 94,8 94,8 97,5 h 96 97 94 96 l 89,-3 97,-5 94,-7 91,-8 92,-8 91,-10 86,-13 89,-12 84,-13 99,-5 92,-8 86,-7 84,-11 79,-10 76,-12 71,-13 74,-15 66,-16 68,-17 67,-21 68,-20 66,-23 69,-23 71,-28 74,-28 134,-73 125,-84 112,-92 101,-96 92,-107 73,-112 61,-114 46,-122 28,-124 13,-125 -8,-130 -25,-129 -49,-132 -68,-130 -89,-127 -114,-127 -61,-66 -59,-71 -51,-74 -48,-78 -46,-82 -43,-81 -41,-86 -38,-87 -35,-89 -38,-89 -36,-89 -35,-91 -36,-89 -38,-89 -41,-89 -40,-81 -18,-79 -15,-76 -13,-76 -13,-77 -13,-78 -12,-82 -13,-84 -18,-91 -30,-89 -36,-84 -40,-81 -44,-74 -45,-71 -51,-63 -56,-59 -61,-53 -69,-46 -71,-41 -76,-33 -84,-25 -89,-18 -94,-12 -101,-3 -110,5 -15,-5 -5,-13 5,-12 z"
   id="path64"
   inkscape:connector-curvature="0"
   style="fill:none;stroke:#000000" />
         <path
   d="m 8194,17691 43,51 35,48 39,44 40,40 38,38 41,38 41,33 40,33 44,34 40,30 43,33 46,28 46,36 48,33 48,35 51,38 48,18 46,15 46,16 41,15 40,15 41,15 41,16 40,12 41,15 41,13 43,13 45,10 49,13 53,12 56,11 58,10 33,2 33,3 28,2 28,5 26,6 23,5 23,7 25,5 20,5 23,8 20,5 23,5 23,8 26,5 20,2 28,6 13,7 5,13 -8,13 -15,5 -26,-5 h -22 -26 l -23,-3 -23,3 h -23 -22 -23 l -23,5 -26,2 h -25 l -23,3 h -30 -28 -33 l -33,-3 -61,-10 -59,-13 -53,-10 -53,-13 -49,-15 -45,-12 -46,-16 -41,-12 -46,-16 -43,-15 -43,-15 -43,-18 -43,-15 -46,-18 -48,-18 -51,-15 -51,-38 -51,-41 -46,-38 -43,-38 -43,-38 -43,-38 -38,-38 -41,-38 -38,-41 -38,-43 -36,-43 -38,-44 -38,-45 -38,-49 -38,-50 -41,-54 -2,-15 7,-13 13,-2 z"
   id="path66"
   inkscape:connector-curvature="0"
   style="fill:#000000;stroke:none" />
         <path
   d="m 8194,17691 43,51 35,48 39,44 40,40 38,38 41,38 41,33 40,33 44,34 40,30 43,33 46,28 46,36 48,33 48,35 51,38 48,18 46,15 46,16 41,15 40,15 41,15 41,16 40,12 41,15 41,13 43,13 45,10 49,13 53,12 56,11 58,10 33,2 33,3 28,2 28,5 26,6 23,5 23,7 25,5 20,5 23,8 20,5 23,5 23,8 26,5 20,2 28,6 13,7 5,13 -8,13 -15,5 -26,-5 h -22 -26 l -23,-3 -23,3 h -23 -22 -23 l -23,5 -26,2 h -25 l -23,3 h -30 -28 -33 l -33,-3 -61,-10 -59,-13 -53,-10 -53,-13 -49,-15 -45,-12 -46,-16 -41,-12 -46,-16 -43,-15 -43,-15 -43,-18 -43,-15 -46,-18 -48,-18 -51,-15 -51,-38 -51,-41 -46,-38 -43,-38 -43,-38 -43,-38 -38,-38 -41,-38 -38,-41 -38,-43 -36,-43 -38,-44 -38,-45 -38,-49 -38,-50 -41,-54 -2,-15 7,-13 13,-2 z"
   id="path68"
   inkscape:connector-curvature="0"
   style="fill:none;stroke:#000000" />
         <path
   d="m 8651,17465 56,-68 66,-69 71,-66 79,-61 84,-61 89,-56 96,-56 102,-51 107,-48 106,-46 115,-40 117,-41 119,-36 119,-30 122,-28 127,-25 127,-21 130,-17 130,-13 129,-10 130,-5 h 127 l 129,2 127,8 125,12 122,18 119,21 117,27 114,31 110,36 104,43 102,45 99,59 81,61 63,68 46,72 33,73 15,77 3,78 -10,79 -23,76 -31,79 -40,76 -51,74 -56,69 -61,68 -66,59 -71,58 -43,18 -41,15 -38,15 -41,13 -38,15 -38,13 -38,10 -41,13 -38,10 -40,10 -39,10 -43,10 -43,13 -43,10 -46,10 -48,11 -92,7 -96,8 -99,10 -102,8 -102,10 -106,7 -107,11 -109,7 -109,8 -112,5 -109,5 -112,5 h -110 -104 l -109,-2 -107,-3 -106,-8 -102,-10 -102,-12 -96,-16 -97,-17 -94,-23 -86,-28 -87,-31 -78,-35 -77,-38 -66,-44 -68,-48 -59,-56 -53,-58 -46,-64 -38,-71 v -15 l 8,-8 12,-2 11,10 38,68 46,59 53,61 58,51 64,43 68,40 74,36 79,31 84,25 86,20 89,18 94,15 97,10 99,8 101,5 h 104 110 l 101,-2 105,-5 109,-8 107,-8 109,-10 109,-13 107,-10 106,-10 107,-13 102,-10 101,-12 105,-11 94,-10 91,-10 92,-8 45,-10 43,-10 41,-10 41,-8 38,-10 38,-7 36,-11 35,-10 33,-10 36,-10 35,-10 36,-13 35,-13 39,-15 38,-15 40,-15 59,-46 53,-51 51,-51 48,-56 41,-58 35,-61 28,-61 21,-64 10,-61 v -61 l -10,-61 -23,-58 -36,-58 -48,-54 -64,-51 -81,-45 -99,-46 -102,-41 -106,-35 -112,-33 -114,-28 -117,-23 -120,-18 -119,-15 -125,-10 -124,-5 -127,-3 -127,3 -125,5 -127,10 -127,13 -124,17 -125,21 -117,25 -119,28 -117,31 -114,35 -110,38 -106,41 -104,46 -99,45 -95,51 -86,54 -84,58 -73,58 -72,64 -63,63 -56,69 -13,8 -12,-5 -8,-11 z"
   id="path70"
   inkscape:connector-curvature="0"
   style="fill:#000000;stroke:none" />
         <path
   d="m 8651,17465 56,-68 66,-69 71,-66 79,-61 84,-61 89,-56 96,-56 102,-51 107,-48 106,-46 115,-40 117,-41 119,-36 119,-30 122,-28 127,-25 127,-21 130,-17 130,-13 129,-10 130,-5 h 127 l 129,2 127,8 125,12 122,18 119,21 117,27 114,31 110,36 104,43 102,45 99,59 81,61 63,68 46,72 33,73 15,77 3,78 -10,79 -23,76 -31,79 -40,76 -51,74 -56,69 -61,68 -66,59 -71,58 -43,18 -41,15 -38,15 -41,13 -38,15 -38,13 -38,10 -41,13 -38,10 -40,10 -39,10 -43,10 -43,13 -43,10 -46,10 -48,11 -92,7 -96,8 -99,10 -102,8 -102,10 -106,7 -107,11 -109,7 -109,8 -112,5 -109,5 -112,5 h -110 -104 l -109,-2 -107,-3 -106,-8 -102,-10 -102,-12 -96,-16 -97,-17 -94,-23 -86,-28 -87,-31 -78,-35 -77,-38 -66,-44 -68,-48 -59,-56 -53,-58 -46,-64 -38,-71 v -15 l 8,-8 12,-2 11,10 38,68 46,59 53,61 58,51 64,43 68,40 74,36 79,31 84,25 86,20 89,18 94,15 97,10 99,8 101,5 h 104 110 l 101,-2 105,-5 109,-8 107,-8 109,-10 109,-13 107,-10 106,-10 107,-13 102,-10 101,-12 105,-11 94,-10 91,-10 92,-8 45,-10 43,-10 41,-10 41,-8 38,-10 38,-7 36,-11 35,-10 33,-10 36,-10 35,-10 36,-13 35,-13 39,-15 38,-15 40,-15 59,-46 53,-51 51,-51 48,-56 41,-58 35,-61 28,-61 21,-64 10,-61 v -61 l -10,-61 -23,-58 -36,-58 -48,-54 -64,-51 -81,-45 -99,-46 -102,-41 -106,-35 -112,-33 -114,-28 -117,-23 -120,-18 -119,-15 -125,-10 -124,-5 -127,-3 -127,3 -125,5 -127,10 -127,13 -124,17 -125,21 -117,25 -119,28 -117,31 -114,35 -110,38 -106,41 -104,46 -99,45 -95,51 -86,54 -84,58 -73,58 -72,64 -63,63 -56,69 -13,8 -12,-5 -8,-11 z"
   id="path72"
   inkscape:connector-curvature="0"
   style="fill:none;stroke:#000000" />
         <path
   d="m 9538,17275 -71,40 -61,43 -51,46 -38,48 -31,51 -20,54 -10,50 -3,51 8,51 18,51 28,46 35,45 43,41 54,36 61,33 68,28 120,-31 99,-41 76,-53 56,-61 41,-66 17,-71 3,-71 -5,-71 -20,-66 -36,-59 -43,-53 -54,-38 -66,-28 -68,-10 -74,7 -79,28 -15,3 -10,-11 -3,-12 10,-13 94,-33 89,-10 84,13 74,30 66,48 53,61 38,71 28,82 11,84 -5,86 -26,84 -46,79 -63,73 -89,64 -119,51 -145,33 -84,-31 -74,-38 -63,-46 -54,-51 -43,-53 -33,-56 -20,-61 -10,-61 v -61 l 12,-63 23,-61 36,-61 48,-59 58,-55 74,-54 84,-48 20,-3 16,13 v 20 z"
   id="path74"
   inkscape:connector-curvature="0"
   style="fill:#000000;stroke:none" />
         <path
   d="m 9538,17275 -71,40 -61,43 -51,46 -38,48 -31,51 -20,54 -10,50 -3,51 8,51 18,51 28,46 35,45 43,41 54,36 61,33 68,28 120,-31 99,-41 76,-53 56,-61 41,-66 17,-71 3,-71 -5,-71 -20,-66 -36,-59 -43,-53 -54,-38 -66,-28 -68,-10 -74,7 -79,28 -15,3 -10,-11 -3,-12 10,-13 94,-33 89,-10 84,13 74,30 66,48 53,61 38,71 28,82 11,84 -5,86 -26,84 -46,79 -63,73 -89,64 -119,51 -145,33 -84,-31 -74,-38 -63,-46 -54,-51 -43,-53 -33,-56 -20,-61 -10,-61 v -61 l 12,-63 23,-61 36,-61 48,-59 58,-55 74,-54 84,-48 20,-3 16,13 v 20 z"
   id="path76"
   inkscape:connector-curvature="0"
   style="fill:none;stroke:#000000" />
         <path
   d="m 8379,17389 38,-69 44,-63 45,-61 54,-56 53,-53 58,-49 61,-45 64,-46 66,-41 66,-40 71,-36 69,-38 71,-36 74,-35 71,-36 71,-35 46,-21 40,-18 46,-17 46,-18 48,-15 48,-18 49,-15 50,-18 49,-18 48,-18 51,-20 43,-20 43,-23 38,-23 43,-26 39,-27 -6,-125 -12,-84 -26,-53 -30,-33 -38,-26 -49,-25 -61,-36 -66,-58 -76,-86 -58,-89 -41,-89 -23,-94 -10,-97 5,-104 18,-112 25,-114 26,-61 25,-58 33,-54 26,-53 33,-51 33,-48 33,-46 38,-43 35,-43 41,-41 36,-38 40,-38 46,-38 46,-33 45,-36 49,-33 15,-3 13,8 2,15 -7,13 -46,33 -46,33 -43,36 -38,35 -36,38 -38,38 -30,41 -31,43 -33,46 -25,46 -31,48 -28,51 -25,51 -26,53 -25,56 -23,53 -25,107 -15,99 -3,94 5,86 20,84 36,79 51,79 68,76 77,66 56,46 53,35 41,36 33,46 22,66 11,99 5,142 -41,28 -43,28 -43,25 -49,26 -43,23 -51,23 -50,22 -51,21 -51,20 -51,23 -51,20 -51,18 -48,20 -46,21 -45,20 -43,20 -69,33 -71,36 -69,33 -74,30 -68,36 -69,33 -68,36 -66,38 -64,38 -61,43 -58,43 -54,49 -50,53 -49,56 -40,63 -39,66 -17,13 -18,-2 -15,-13 z"
   id="path78"
   inkscape:connector-curvature="0"
   style="fill:#000000;stroke:none" />
         <path
   d="m 8379,17389 38,-69 44,-63 45,-61 54,-56 53,-53 58,-49 61,-45 64,-46 66,-41 66,-40 71,-36 69,-38 71,-36 74,-35 71,-36 71,-35 46,-21 40,-18 46,-17 46,-18 48,-15 48,-18 49,-15 50,-18 49,-18 48,-18 51,-20 43,-20 43,-23 38,-23 43,-26 39,-27 -6,-125 -12,-84 -26,-53 -30,-33 -38,-26 -49,-25 -61,-36 -66,-58 -76,-86 -58,-89 -41,-89 -23,-94 -10,-97 5,-104 18,-112 25,-114 26,-61 25,-58 33,-54 26,-53 33,-51 33,-48 33,-46 38,-43 35,-43 41,-41 36,-38 40,-38 46,-38 46,-33 45,-36 49,-33 15,-3 13,8 2,15 -7,13 -46,33 -46,33 -43,36 -38,35 -36,38 -38,38 -30,41 -31,43 -33,46 -25,46 -31,48 -28,51 -25,51 -26,53 -25,56 -23,53 -25,107 -15,99 -3,94 5,86 20,84 36,79 51,79 68,76 77,66 56,46 53,35 41,36 33,46 22,66 11,99 5,142 -41,28 -43,28 -43,25 -49,26 -43,23 -51,23 -50,22 -51,21 -51,20 -51,23 -51,20 -51,18 -48,20 -46,21 -45,20 -43,20 -69,33 -71,36 -69,33 -74,30 -68,36 -69,33 -68,36 -66,38 -64,38 -61,43 -58,43 -54,49 -50,53 -49,56 -40,63 -39,66 -17,13 -18,-2 -15,-13 z"
   id="path80"
   inkscape:connector-curvature="0"
   style="fill:none;stroke:#000000" />
         <path
   d="m 9919,13664 -147,-68 -36,-8 -36,-8 -33,-7 -38,-5 -35,-8 -36,-5 -38,-5 -38,-8 -38,-2 -38,-5 -41,-3 -41,-5 -40,-2 h -41 l -43,-3 h -43 l -41,10 -38,8 -36,5 -35,5 -33,5 -36,5 -38,5 -41,10 -40,16 -46,15 -41,15 -40,15 -38,16 -38,15 -39,18 -35,17 -36,18 -35,18 -36,20 -33,21 -35,22 -34,23 -35,23 -33,26 -74,43 -68,51 -64,58 -58,66 -59,71 -53,76 -51,79 -51,82 -48,81 -48,84 -49,81 -50,79 -49,76 -51,74 -53,66 -56,61 -46,53 -45,53 -51,46 -48,48 -51,49 -48,50 -49,54 -43,53 -33,18 -30,15 -31,18 -28,15 -28,15 -28,16 -25,15 -26,15 -28,15 -25,16 -28,17 -28,16 -28,15 -30,15 -31,18 -33,15 -89,79 -66,89 -51,96 -33,105 -15,106 -2,110 10,111 23,112 33,112 45,109 51,104 59,97 63,91 69,84 71,74 74,61 68,33 71,36 77,38 78,35 82,38 83,38 89,33 87,39 91,33 92,33 91,28 94,25 94,23 94,20 92,13 94,10 12,5 v 10 l -10,13 -15,3 -97,-8 -94,-13 -99,-15 -96,-18 -97,-20 -96,-23 -94,-25 -94,-28 -94,-26 -89,-30 -89,-31 -84,-33 -81,-33 -79,-33 -74,-35 -71,-33 -79,-67 -76,-78 -71,-92 -66,-99 -59,-109 -50,-114 -44,-120 -30,-122 -20,-122 -8,-122 8,-122 22,-117 39,-111 58,-107 74,-97 96,-86 33,-18 31,-15 28,-18 28,-18 25,-15 26,-18 25,-17 23,-16 25,-17 23,-18 25,-15 28,-18 26,-15 30,-18 31,-15 33,-18 43,-54 46,-50 48,-49 48,-48 46,-43 48,-48 46,-51 43,-56 56,-61 56,-69 51,-71 53,-76 51,-79 51,-81 51,-81 53,-82 51,-81 56,-76 56,-76 61,-72 61,-63 66,-59 71,-50 73,-44 36,-25 33,-25 38,-23 33,-21 33,-22 38,-21 33,-18 38,-20 36,-18 38,-15 38,-18 41,-15 41,-18 43,-15 43,-15 46,-15 40,-11 38,-12 36,-13 36,-13 35,-12 33,-13 38,-13 41,-10 h 46 l 43,3 h 46 l 43,2 43,5 43,3 46,5 41,5 40,5 41,5 41,8 38,5 38,7 38,8 41,8 33,7 152,81 15,13 5,15 v 16 l -2,15 -8,13 -15,7 -15,5 z"
   id="path82"
   inkscape:connector-curvature="0"
   style="fill:#000000;stroke:none" />
         <path
   d="m 9919,13664 -147,-68 -36,-8 -36,-8 -33,-7 -38,-5 -35,-8 -36,-5 -38,-5 -38,-8 -38,-2 -38,-5 -41,-3 -41,-5 -40,-2 h -41 l -43,-3 h -43 l -41,10 -38,8 -36,5 -35,5 -33,5 -36,5 -38,5 -41,10 -40,16 -46,15 -41,15 -40,15 -38,16 -38,15 -39,18 -35,17 -36,18 -35,18 -36,20 -33,21 -35,22 -34,23 -35,23 -33,26 -74,43 -68,51 -64,58 -58,66 -59,71 -53,76 -51,79 -51,82 -48,81 -48,84 -49,81 -50,79 -49,76 -51,74 -53,66 -56,61 -46,53 -45,53 -51,46 -48,48 -51,49 -48,50 -49,54 -43,53 -33,18 -30,15 -31,18 -28,15 -28,15 -28,16 -25,15 -26,15 -28,15 -25,16 -28,17 -28,16 -28,15 -30,15 -31,18 -33,15 -89,79 -66,89 -51,96 -33,105 -15,106 -2,110 10,111 23,112 33,112 45,109 51,104 59,97 63,91 69,84 71,74 74,61 68,33 71,36 77,38 78,35 82,38 83,38 89,33 87,39 91,33 92,33 91,28 94,25 94,23 94,20 92,13 94,10 12,5 v 10 l -10,13 -15,3 -97,-8 -94,-13 -99,-15 -96,-18 -97,-20 -96,-23 -94,-25 -94,-28 -94,-26 -89,-30 -89,-31 -84,-33 -81,-33 -79,-33 -74,-35 -71,-33 -79,-67 -76,-78 -71,-92 -66,-99 -59,-109 -50,-114 -44,-120 -30,-122 -20,-122 -8,-122 8,-122 22,-117 39,-111 58,-107 74,-97 96,-86 33,-18 31,-15 28,-18 28,-18 25,-15 26,-18 25,-17 23,-16 25,-17 23,-18 25,-15 28,-18 26,-15 30,-18 31,-15 33,-18 43,-54 46,-50 48,-49 48,-48 46,-43 48,-48 46,-51 43,-56 56,-61 56,-69 51,-71 53,-76 51,-79 51,-81 51,-81 53,-82 51,-81 56,-76 56,-76 61,-72 61,-63 66,-59 71,-50 73,-44 36,-25 33,-25 38,-23 33,-21 33,-22 38,-21 33,-18 38,-20 36,-18 38,-15 38,-18 41,-15 41,-18 43,-15 43,-15 46,-15 40,-11 38,-12 36,-13 36,-13 35,-12 33,-13 38,-13 41,-10 h 46 l 43,3 h 46 l 43,2 43,5 43,3 46,5 41,5 40,5 41,5 41,8 38,5 38,7 38,8 41,8 33,7 152,81 15,13 5,15 v 16 l -2,15 -8,13 -15,7 -15,5 z"
   id="path84"
   inkscape:connector-curvature="0"
   style="fill:none;stroke:#000000" />
         <path
   d="m 7985,17503 -45,-7 -41,-3 -36,-5 -33,-3 -35,-7 -36,-8 -40,-12 -46,-21 -38,-20 -38,-18 -38,-20 -36,-18 -38,-20 -36,-18 -35,-20 -38,-18 -36,-21 -38,-17 -36,-21 -38,-20 -35,-20 -38,-18 -41,-20 -38,-21 -54,-40 -50,-44 -49,-45 -45,-46 -46,-48 -38,-51 -38,-54 -36,-53 -30,-56 -28,-58 -23,-61 -21,-64 -15,-63 -10,-66 -8,-71 -2,-72 41,-81 33,-61 30,-46 31,-35 35,-31 46,-28 58,-30 77,-41 109,-25 109,-20 107,-18 104,-13 104,-8 104,-5 h 102 l 102,5 99,11 99,12 96,18 97,23 94,28 94,33 96,38 89,43 18,15 10,18 3,21 -8,17 -7,16 -21,12 -20,3 -23,-8 -89,-43 -89,-38 -91,-33 -92,-31 -91,-28 -94,-22 -94,-18 -94,-15 -97,-8 -99,-8 h -99 l -99,5 -102,8 -101,13 -105,20 -106,23 -71,38 -54,28 -43,25 -33,26 -28,30 -28,44 -30,55 -38,77 2,68 8,66 10,61 15,61 20,59 23,56 28,53 31,53 33,51 38,43 41,51 40,43 46,43 48,44 48,40 51,38 38,21 41,18 38,20 38,18 36,17 38,18 38,18 36,18 38,18 35,15 38,18 36,17 38,18 38,18 38,20 38,18 36,13 28,12 20,11 21,7 25,10 36,8 50,10 72,13 17,13 3,17 -10,18 z"
   id="path86"
   inkscape:connector-curvature="0"
   style="fill:#000000;stroke:none" />
         <path
   d="m 7985,17503 -45,-7 -41,-3 -36,-5 -33,-3 -35,-7 -36,-8 -40,-12 -46,-21 -38,-20 -38,-18 -38,-20 -36,-18 -38,-20 -36,-18 -35,-20 -38,-18 -36,-21 -38,-17 -36,-21 -38,-20 -35,-20 -38,-18 -41,-20 -38,-21 -54,-40 -50,-44 -49,-45 -45,-46 -46,-48 -38,-51 -38,-54 -36,-53 -30,-56 -28,-58 -23,-61 -21,-64 -15,-63 -10,-66 -8,-71 -2,-72 41,-81 33,-61 30,-46 31,-35 35,-31 46,-28 58,-30 77,-41 109,-25 109,-20 107,-18 104,-13 104,-8 104,-5 h 102 l 102,5 99,11 99,12 96,18 97,23 94,28 94,33 96,38 89,43 18,15 10,18 3,21 -8,17 -7,16 -21,12 -20,3 -23,-8 -89,-43 -89,-38 -91,-33 -92,-31 -91,-28 -94,-22 -94,-18 -94,-15 -97,-8 -99,-8 h -99 l -99,5 -102,8 -101,13 -105,20 -106,23 -71,38 -54,28 -43,25 -33,26 -28,30 -28,44 -30,55 -38,77 2,68 8,66 10,61 15,61 20,59 23,56 28,53 31,53 33,51 38,43 41,51 40,43 46,43 48,44 48,40 51,38 38,21 41,18 38,20 38,18 36,17 38,18 38,18 36,18 38,18 35,15 38,18 36,17 38,18 38,18 38,20 38,18 36,13 28,12 20,11 21,7 25,10 36,8 50,10 72,13 17,13 3,17 -10,18 z"
   id="path88"
   inkscape:connector-curvature="0"
   style="fill:none;stroke:#000000" />
         <path
   d="m 11080,13588 147,-69 36,-7 36,-8 35,-7 36,-6 38,-7 33,-5 38,-5 38,-8 38,-2 38,-6 41,-2 41,-5 40,-3 h 41 l 43,-2 h 43 l 41,10 38,8 36,5 35,5 33,5 36,5 38,5 41,10 43,15 43,13 41,15 40,16 38,17 38,16 39,17 35,16 36,17 35,21 36,20 33,20 35,21 34,23 35,22 33,26 74,43 68,51 64,58 58,66 59,71 53,77 51,78 51,82 48,84 48,83 49,82 50,79 49,76 51,73 53,66 56,61 43,56 48,51 49,51 50,46 49,48 50,48 46,54 46,53 33,18 30,15 31,15 28,15 28,18 28,16 25,15 28,15 26,15 25,15 28,16 28,18 28,15 30,15 31,15 33,18 89,79 66,89 51,96 33,104 15,107 2,109 -10,112 -23,112 -33,112 -45,109 -51,104 -59,97 -63,91 -69,84 -71,74 -74,61 -68,33 -71,35 -77,38 -78,36 -82,38 -83,38 -89,36 -87,35 -91,33 -92,33 -91,26 -94,30 -94,21 -94,20 -92,13 -94,10 -12,5 v 10 l 10,13 15,2 97,-7 94,-13 99,-15 96,-18 97,-20 96,-23 94,-28 94,-23 94,-31 89,-27 89,-31 84,-33 81,-33 79,-33 74,-36 71,-33 79,-66 76,-78 71,-92 66,-99 59,-109 50,-115 44,-119 30,-122 20,-122 8,-122 -8,-122 -22,-117 -39,-112 -58,-106 -74,-97 -96,-86 -33,-18 -31,-15 -28,-18 -28,-18 -25,-15 -26,-18 -25,-18 -23,-15 -25,-18 -23,-17 -25,-16 -28,-17 -26,-16 -30,-17 -31,-16 -33,-17 -43,-54 -46,-51 -48,-43 -46,-48 -48,-48 -48,-49 -46,-53 -43,-53 -56,-61 -56,-69 -53,-71 -51,-76 -51,-79 -51,-81 -51,-82 -53,-81 -53,-81 -54,-76 -58,-77 -59,-71 -63,-63 -66,-59 -69,-51 -73,-43 -36,-25 -33,-26 -36,-22 -33,-21 -35,-23 -36,-20 -35,-18 -36,-20 -38,-18 -38,-15 -38,-18 -41,-15 -41,-18 -43,-15 -40,-15 -49,-16 -40,-10 -38,-13 -36,-12 -33,-13 -36,-13 -35,-12 -38,-13 -41,-10 h -46 l -43,2 h -46 l -43,3 -43,5 -43,2 -43,6 -41,5 -43,5 -41,5 -41,7 -38,5 -38,8 -38,8 -38,7 -36,8 -152,81 -15,13 -8,15 v 15 l 5,16 8,12 12,8 18,5 z"
   id="path90"
   inkscape:connector-curvature="0"
   style="fill:#000000;stroke:none" />
         <path
   d="m 11080,13588 147,-69 36,-7 36,-8 35,-7 36,-6 38,-7 33,-5 38,-5 38,-8 38,-2 38,-6 41,-2 41,-5 40,-3 h 41 l 43,-2 h 43 l 41,10 38,8 36,5 35,5 33,5 36,5 38,5 41,10 43,15 43,13 41,15 40,16 38,17 38,16 39,17 35,16 36,17 35,21 36,20 33,20 35,21 34,23 35,22 33,26 74,43 68,51 64,58 58,66 59,71 53,77 51,78 51,82 48,84 48,83 49,82 50,79 49,76 51,73 53,66 56,61 43,56 48,51 49,51 50,46 49,48 50,48 46,54 46,53 33,18 30,15 31,15 28,15 28,18 28,16 25,15 28,15 26,15 25,15 28,16 28,18 28,15 30,15 31,15 33,18 89,79 66,89 51,96 33,104 15,107 2,109 -10,112 -23,112 -33,112 -45,109 -51,104 -59,97 -63,91 -69,84 -71,74 -74,61 -68,33 -71,35 -77,38 -78,36 -82,38 -83,38 -89,36 -87,35 -91,33 -92,33 -91,26 -94,30 -94,21 -94,20 -92,13 -94,10 -12,5 v 10 l 10,13 15,2 97,-7 94,-13 99,-15 96,-18 97,-20 96,-23 94,-28 94,-23 94,-31 89,-27 89,-31 84,-33 81,-33 79,-33 74,-36 71,-33 79,-66 76,-78 71,-92 66,-99 59,-109 50,-115 44,-119 30,-122 20,-122 8,-122 -8,-122 -22,-117 -39,-112 -58,-106 -74,-97 -96,-86 -33,-18 -31,-15 -28,-18 -28,-18 -25,-15 -26,-18 -25,-18 -23,-15 -25,-18 -23,-17 -25,-16 -28,-17 -26,-16 -30,-17 -31,-16 -33,-17 -43,-54 -46,-51 -48,-43 -46,-48 -48,-48 -48,-49 -46,-53 -43,-53 -56,-61 -56,-69 -53,-71 -51,-76 -51,-79 -51,-81 -51,-82 -53,-81 -53,-81 -54,-76 -58,-77 -59,-71 -63,-63 -66,-59 -69,-51 -73,-43 -36,-25 -33,-26 -36,-22 -33,-21 -35,-23 -36,-20 -35,-18 -36,-20 -38,-18 -38,-15 -38,-18 -41,-15 -41,-18 -43,-15 -40,-15 -49,-16 -40,-10 -38,-13 -36,-12 -33,-13 -36,-13 -35,-12 -38,-13 -41,-10 h -46 l -43,2 h -46 l -43,3 -43,5 -43,2 -43,6 -41,5 -43,5 -41,5 -41,7 -38,5 -38,8 -38,8 -38,7 -36,8 -152,81 -15,13 -8,15 v 15 l 5,16 8,12 12,8 18,5 z"
   id="path92"
   inkscape:connector-curvature="0"
   style="fill:none;stroke:#000000" />
         <path
   d="m 13014,17427 45,-8 41,-2 36,-5 35,-3 33,-7 36,-8 40,-13 46,-20 38,-20 38,-18 38,-20 36,-18 38,-21 36,-17 35,-21 38,-17 36,-21 38,-18 36,-20 38,-20 35,-21 38,-17 41,-21 38,-20 54,-41 50,-43 49,-46 45,-45 46,-49 38,-50 38,-54 36,-53 30,-56 28,-61 23,-58 21,-64 15,-63 10,-66 8,-72 2,-71 -41,-81 -33,-61 -30,-46 -31,-35 -35,-31 -46,-28 -58,-30 -77,-41 -109,-25 -109,-21 -107,-17 -104,-13 -104,-8 -104,-5 h -102 l -102,5 -99,10 -99,13 -96,18 -97,23 -94,28 -94,33 -94,38 -91,43 -18,15 -10,18 -3,18 8,20 10,15 18,11 20,5 23,-8 89,-43 89,-38 91,-33 89,-31 94,-28 92,-23 94,-17 96,-16 97,-7 96,-8 h 99 l 102,5 102,8 101,13 105,20 106,23 71,38 54,28 43,25 33,26 28,30 28,41 30,56 38,76 -2,68 -8,67 -10,63 -15,61 -20,58 -23,56 -28,54 -31,53 -33,48 -38,49 -41,48 -40,43 -46,43 -48,43 -48,41 -51,38 -38,21 -41,17 -38,21 -38,17 -36,18 -38,18 -38,18 -36,18 -38,17 -35,16 -38,17 -36,18 -38,18 -38,18 -38,20 -38,18 -36,13 -28,12 -20,10 -21,8 -25,10 -36,8 -50,10 -72,13 -17,10 -3,20 10,18 z"
   id="path94"
   inkscape:connector-curvature="0"
   style="fill:#000000;stroke:none" />
         <path
   d="m 13014,17427 45,-8 41,-2 36,-5 35,-3 33,-7 36,-8 40,-13 46,-20 38,-20 38,-18 38,-20 36,-18 38,-21 36,-17 35,-21 38,-17 36,-21 38,-18 36,-20 38,-20 35,-21 38,-17 41,-21 38,-20 54,-41 50,-43 49,-46 45,-45 46,-49 38,-50 38,-54 36,-53 30,-56 28,-61 23,-58 21,-64 15,-63 10,-66 8,-72 2,-71 -41,-81 -33,-61 -30,-46 -31,-35 -35,-31 -46,-28 -58,-30 -77,-41 -109,-25 -109,-21 -107,-17 -104,-13 -104,-8 -104,-5 h -102 l -102,5 -99,10 -99,13 -96,18 -97,23 -94,28 -94,33 -94,38 -91,43 -18,15 -10,18 -3,18 8,20 10,15 18,11 20,5 23,-8 89,-43 89,-38 91,-33 89,-31 94,-28 92,-23 94,-17 96,-16 97,-7 96,-8 h 99 l 102,5 102,8 101,13 105,20 106,23 71,38 54,28 43,25 33,26 28,30 28,41 30,56 38,76 -2,68 -8,67 -10,63 -15,61 -20,58 -23,56 -28,54 -31,53 -33,48 -38,49 -41,48 -40,43 -46,43 -48,43 -48,41 -51,38 -38,21 -41,17 -38,21 -38,17 -36,18 -38,18 -38,18 -36,18 -38,17 -35,16 -38,17 -36,18 -38,18 -38,18 -38,20 -38,18 -36,13 -28,12 -20,10 -21,8 -25,10 -36,8 -50,10 -72,13 -17,10 -3,20 10,18 z"
   id="path96"
   inkscape:connector-curvature="0"
   style="fill:none;stroke:#000000" />
         <path
   d="m 7467,16360 -71,41 -61,43 -51,46 -41,48 -30,51 -20,53 -11,51 v 51 l 8,50 18,51 25,46 36,46 43,40 53,38 61,31 69,28 122,-31 97,-40 78,-54 56,-61 38,-66 23,-71 5,-71 -10,-71 -23,-66 -33,-59 -46,-53 -55,-38 -64,-28 -69,-10 -73,7 -79,28 -15,3 -8,-10 -2,-15 10,-11 94,-33 89,-10 84,13 76,30 66,49 53,61 43,73 26,79 12,84 -7,86 -26,82 -45,81 -69,74 -91,63 -120,51 -145,36 -83,-34 -72,-38 -63,-45 -53,-51 -44,-54 -33,-55 -23,-61 -10,-61 v -61 l 13,-64 23,-61 35,-61 49,-58 61,-56 71,-54 86,-48 21,-2 12,12 3,21 z"
   id="path98"
   inkscape:connector-curvature="0"
   style="fill:#000000;stroke:none" />
         <path
   d="m 7467,16360 -71,41 -61,43 -51,46 -41,48 -30,51 -20,53 -11,51 v 51 l 8,50 18,51 25,46 36,46 43,40 53,38 61,31 69,28 122,-31 97,-40 78,-54 56,-61 38,-66 23,-71 5,-71 -10,-71 -23,-66 -33,-59 -46,-53 -55,-38 -64,-28 -69,-10 -73,7 -79,28 -15,3 -8,-10 -2,-15 10,-11 94,-33 89,-10 84,13 76,30 66,49 53,61 43,73 26,79 12,84 -7,86 -26,82 -45,81 -69,74 -91,63 -120,51 -145,36 -83,-34 -72,-38 -63,-45 -53,-51 -44,-54 -33,-55 -23,-61 -10,-61 v -61 l 13,-64 23,-61 35,-61 49,-58 61,-56 71,-54 86,-48 21,-2 12,12 3,21 z"
   id="path100"
   inkscape:connector-curvature="0"
   style="fill:none;stroke:#000000" />
         <path
   d="m 13639,16172 -71,41 -61,43 -51,46 -38,48 -31,51 -20,53 -10,51 -3,48 8,53 17,51 28,46 36,46 43,40 54,38 61,31 68,28 122,-28 97,-43 78,-54 56,-61 38,-66 23,-71 5,-71 -10,-69 -23,-66 -33,-61 -45,-50 -56,-41 -64,-25 -68,-11 -74,8 -79,28 h -15 l -10,-10 v -13 l 10,-13 94,-33 89,-10 84,13 76,30 66,49 53,61 43,73 26,79 13,84 -8,86 -25,84 -46,79 -69,74 -91,63 -120,51 -144,36 -84,-34 -71,-38 -64,-45 -53,-54 -44,-51 -33,-55 -22,-61 -11,-61 v -61 l 13,-64 23,-61 36,-61 48,-58 61,-56 71,-54 86,-48 21,-2 12,12 v 21 z"
   id="path102"
   inkscape:connector-curvature="0"
   style="fill:#000000;stroke:none" />
         <path
   d="m 13639,16172 -71,41 -61,43 -51,46 -38,48 -31,51 -20,53 -10,51 -3,48 8,53 17,51 28,46 36,46 43,40 54,38 61,31 68,28 122,-28 97,-43 78,-54 56,-61 38,-66 23,-71 5,-71 -10,-69 -23,-66 -33,-61 -45,-50 -56,-41 -64,-25 -68,-11 -74,8 -79,28 h -15 l -10,-10 v -13 l 10,-13 94,-33 89,-10 84,13 76,30 66,49 53,61 43,73 26,79 13,84 -8,86 -25,84 -46,79 -69,74 -91,63 -120,51 -144,36 -84,-34 -71,-38 -64,-45 -53,-54 -44,-51 -33,-55 -22,-61 -11,-61 v -61 l 13,-64 23,-61 36,-61 48,-58 61,-56 71,-54 86,-48 21,-2 12,12 v 21 z"
   id="path104"
   inkscape:connector-curvature="0"
   style="fill:none;stroke:#000000" />
         <path
   d="m 10503,13243 26,-95 33,-96 38,-92 41,-94 48,-91 53,-89 56,-86 64,-87 68,-81 66,-81 76,-77 77,-73 81,-69 84,-66 89,-63 91,-56 92,-54 96,-48 99,-43 102,-36 99,-30 104,-26 107,-20 107,-13 106,-5 110,3 109,8 112,17 109,26 112,33 112,40 109,51 20,15 10,21 v 23 l -5,20 -13,15 -20,13 -20,5 -26,-8 -106,-48 -104,-41 -107,-33 -107,-22 -104,-18 -104,-10 -107,-3 -102,5 -104,10 -101,18 -99,23 -97,28 -99,35 -94,39 -92,45 -89,49 -88,53 -84,58 -82,61 -78,66 -74,69 -71,71 -69,76 -63,79 -59,79 -56,84 -50,84 -46,86 -41,89 -35,89 -31,89 -25,91 -13,18 -20,3 -16,-11 z"
   id="path106"
   inkscape:connector-curvature="0"
   style="fill:#000000;stroke:none" />
         <path
   d="m 10503,13243 26,-95 33,-96 38,-92 41,-94 48,-91 53,-89 56,-86 64,-87 68,-81 66,-81 76,-77 77,-73 81,-69 84,-66 89,-63 91,-56 92,-54 96,-48 99,-43 102,-36 99,-30 104,-26 107,-20 107,-13 106,-5 110,3 109,8 112,17 109,26 112,33 112,40 109,51 20,15 10,21 v 23 l -5,20 -13,15 -20,13 -20,5 -26,-8 -106,-48 -104,-41 -107,-33 -107,-22 -104,-18 -104,-10 -107,-3 -102,5 -104,10 -101,18 -99,23 -97,28 -99,35 -94,39 -92,45 -89,49 -88,53 -84,58 -82,61 -78,66 -74,69 -71,71 -69,76 -63,79 -59,79 -56,84 -50,84 -46,86 -41,89 -35,89 -31,89 -25,91 -13,18 -20,3 -16,-11 z"
   id="path108"
   inkscape:connector-curvature="0"
   style="fill:none;stroke:#000000" />
         <path
   d="m 13263,11957 -33,63 -26,54 -20,46 -18,43 -15,43 -15,51 -18,61 -18,76 -5,76 v 66 l 5,69 5,76 23,46 18,38 15,35 15,33 15,33 18,34 18,38 20,43 5,76 v 66 l -5,61 -7,53 -13,49 -15,43 -23,35 -25,33 -31,28 -33,23 -41,23 -43,18 -51,15 -53,13 -61,13 -64,10 -27,-3 -23,-10 -16,-20 -7,-23 v -23 l 7,-23 18,-18 28,-10 56,-7 51,-8 48,-10 46,-10 41,-11 38,-12 33,-15 30,-18 26,-23 22,-26 18,-33 15,-35 11,-41 5,-48 2,-56 -2,-63 -23,-44 -18,-38 -20,-33 -18,-33 -18,-30 -18,-36 -20,-38 -23,-46 -5,-81 v -74 l 5,-73 5,-82 18,-78 15,-64 10,-53 13,-49 13,-48 15,-48 23,-56 30,-66 11,-15 12,-8 h 16 l 15,5 10,8 10,12 3,13 z"
   id="path110"
   inkscape:connector-curvature="0"
   style="fill:#000000;stroke:none" />
         <path
   d="m 13263,11957 -33,63 -26,54 -20,46 -18,43 -15,43 -15,51 -18,61 -18,76 -5,76 v 66 l 5,69 5,76 23,46 18,38 15,35 15,33 15,33 18,34 18,38 20,43 5,76 v 66 l -5,61 -7,53 -13,49 -15,43 -23,35 -25,33 -31,28 -33,23 -41,23 -43,18 -51,15 -53,13 -61,13 -64,10 -27,-3 -23,-10 -16,-20 -7,-23 v -23 l 7,-23 18,-18 28,-10 56,-7 51,-8 48,-10 46,-10 41,-11 38,-12 33,-15 30,-18 26,-23 22,-26 18,-33 15,-35 11,-41 5,-48 2,-56 -2,-63 -23,-44 -18,-38 -20,-33 -18,-33 -18,-30 -18,-36 -20,-38 -23,-46 -5,-81 v -74 l 5,-73 5,-82 18,-78 15,-64 10,-53 13,-49 13,-48 15,-48 23,-56 30,-66 11,-15 12,-8 h 16 l 15,5 10,8 10,12 3,13 z"
   id="path112"
   inkscape:connector-curvature="0"
   style="fill:none;stroke:#000000" />
         <path
   d="m 10689,13324 28,-21 28,-17 28,-16 28,-12 28,-13 27,-10 26,-10 28,-10 28,-11 28,-7 30,-10 28,-8 31,-10 28,-13 33,-13 30,-15 38,-15 41,-13 43,-12 46,-13 48,-13 48,-13 51,-10 51,-10 53,-10 56,-8 56,-7 56,-8 58,-8 59,-5 58,-5 59,-5 58,-5 59,-2 61,-3 h 58 l 59,-3 h 55 l 56,3 56,3 56,2 53,3 54,5 48,5 51,5 46,8 45,7 44,10 119,209 -196,68 -33,10 -33,11 -30,10 -31,10 -30,8 -28,7 -28,10 -28,8 -30,8 -28,7 -28,8 -31,7 -30,8 -33,10 -33,8 -36,10 -23,-3 -13,-17 3,-21 18,-15 35,-10 33,-10 33,-10 31,-8 28,-10 30,-10 28,-11 28,-7 28,-10 28,-10 28,-11 28,-10 30,-10 31,-10 33,-13 33,-10 180,-8 -104,-165 -86,-15 -94,-13 -99,-5 -104,-2 -107,2 -112,8 -112,10 -114,13 -112,15 -112,20 -106,21 -105,22 -99,26 -91,25 -86,28 -77,28 -30,15 -31,11 -28,12 -30,8 -28,10 -28,8 -25,7 -28,8 -28,8 -26,7 -28,10 -25,11 -28,12 -25,15 -28,16 -28,20 -21,10 h -17 l -16,-7 -12,-13 -8,-15 -3,-18 6,-18 z"
   id="path114"
   inkscape:connector-curvature="0"
   style="fill:#000000;stroke:none" />
         <path
   d="m 10689,13324 28,-21 28,-17 28,-16 28,-12 28,-13 27,-10 26,-10 28,-10 28,-11 28,-7 30,-10 28,-8 31,-10 28,-13 33,-13 30,-15 38,-15 41,-13 43,-12 46,-13 48,-13 48,-13 51,-10 51,-10 53,-10 56,-8 56,-7 56,-8 58,-8 59,-5 58,-5 59,-5 58,-5 59,-2 61,-3 h 58 l 59,-3 h 55 l 56,3 56,3 56,2 53,3 54,5 48,5 51,5 46,8 45,7 44,10 119,209 -196,68 -33,10 -33,11 -30,10 -31,10 -30,8 -28,7 -28,10 -28,8 -30,8 -28,7 -28,8 -31,7 -30,8 -33,10 -33,8 -36,10 -23,-3 -13,-17 3,-21 18,-15 35,-10 33,-10 33,-10 31,-8 28,-10 30,-10 28,-11 28,-7 28,-10 28,-10 28,-11 28,-10 30,-10 31,-10 33,-13 33,-10 180,-8 -104,-165 -86,-15 -94,-13 -99,-5 -104,-2 -107,2 -112,8 -112,10 -114,13 -112,15 -112,20 -106,21 -105,22 -99,26 -91,25 -86,28 -77,28 -30,15 -31,11 -28,12 -30,8 -28,10 -28,8 -25,7 -28,8 -28,8 -26,7 -28,10 -25,11 -28,12 -25,15 -28,16 -28,20 -21,10 h -17 l -16,-7 -12,-13 -8,-15 -3,-18 6,-18 z"
   id="path116"
   inkscape:connector-curvature="0"
   style="fill:none;stroke:#000000" />
         <path
   d="m 10592,13342 -25,-94 -33,-97 -38,-91 -38,-94 -51,-92 -54,-89 -55,-86 -64,-87 -66,-81 -69,-81 -73,-76 -74,-74 -81,-71 -84,-66 -89,-61 -89,-59 -94,-51 -94,-48 -99,-43 -102,-38 -101,-31 -105,-25 -104,-18 -106,-12 -110,-6 -106,3 -112,8 -109,17 -110,26 -112,33 -111,40 -110,51 -20,16 -8,20 -2,20 8,20 12,18 18,10 20,6 26,-8 106,-48 105,-41 106,-31 105,-25 106,-15 104,-10 105,-3 104,3 104,12 99,16 102,22 96,31 97,33 94,41 96,43 87,48 86,53 86,59 82,63 76,64 71,71 71,71 66,76 66,77 59,81 56,84 51,84 45,86 41,89 36,89 30,89 25,91 13,18 18,3 18,-11 z"
   id="path118"
   inkscape:connector-curvature="0"
   style="fill:#000000;stroke:none" />
         <path
   d="m 10592,13342 -25,-94 -33,-97 -38,-91 -38,-94 -51,-92 -54,-89 -55,-86 -64,-87 -66,-81 -69,-81 -73,-76 -74,-74 -81,-71 -84,-66 -89,-61 -89,-59 -94,-51 -94,-48 -99,-43 -102,-38 -101,-31 -105,-25 -104,-18 -106,-12 -110,-6 -106,3 -112,8 -109,17 -110,26 -112,33 -111,40 -110,51 -20,16 -8,20 -2,20 8,20 12,18 18,10 20,6 26,-8 106,-48 105,-41 106,-31 105,-25 106,-15 104,-10 105,-3 104,3 104,12 99,16 102,22 96,31 97,33 94,41 96,43 87,48 86,53 86,59 82,63 76,64 71,71 71,71 66,76 66,77 59,81 56,84 51,84 45,86 41,89 36,89 30,89 25,91 13,18 18,3 18,-11 z"
   id="path120"
   inkscape:connector-curvature="0"
   style="fill:none;stroke:#000000" />
         <path
   d="m 7841,12056 33,64 25,53 20,46 18,43 18,43 15,51 15,61 21,73 2,79 v 66 l -5,69 -5,76 -23,46 -18,38 -15,36 -15,33 -15,33 -18,33 -18,38 -20,43 -3,76 v 66 l 3,61 7,54 13,48 18,43 20,36 26,33 30,28 36,22 38,21 46,17 48,16 53,12 61,13 64,10 h 30 l 21,-12 15,-18 10,-23 -3,-23 -7,-23 -18,-18 -28,-10 -56,-7 -51,-11 -48,-7 -46,-10 -40,-10 -38,-16 -33,-15 -31,-18 -25,-23 -23,-25 -18,-33 -15,-36 -10,-40 -6,-49 -2,-55 2,-64 23,-43 21,-38 17,-33 18,-31 18,-33 18,-33 20,-38 23,-46 5,-81 v -74 l -5,-73 -5,-82 -18,-78 -13,-64 -12,-53 -10,-49 -13,-48 -18,-51 -23,-56 -30,-66 -10,-12 -13,-8 h -15 l -16,3 -10,7 -10,13 -3,15 z"
   id="path122"
   inkscape:connector-curvature="0"
   style="fill:#000000;stroke:none" />
         <path
   d="m 7841,12056 33,64 25,53 20,46 18,43 18,43 15,51 15,61 21,73 2,79 v 66 l -5,69 -5,76 -23,46 -18,38 -15,36 -15,33 -15,33 -18,33 -18,38 -20,43 -3,76 v 66 l 3,61 7,54 13,48 18,43 20,36 26,33 30,28 36,22 38,21 46,17 48,16 53,12 61,13 64,10 h 30 l 21,-12 15,-18 10,-23 -3,-23 -7,-23 -18,-18 -28,-10 -56,-7 -51,-11 -48,-7 -46,-10 -40,-10 -38,-16 -33,-15 -31,-18 -25,-23 -23,-25 -18,-33 -15,-36 -10,-40 -6,-49 -2,-55 2,-64 23,-43 21,-38 17,-33 18,-31 18,-33 18,-33 20,-38 23,-46 5,-81 v -74 l -5,-73 -5,-82 -18,-78 -13,-64 -12,-53 -10,-49 -13,-48 -18,-51 -23,-56 -30,-66 -10,-12 -13,-8 h -15 l -16,3 -10,7 -10,13 -3,15 z"
   id="path124"
   inkscape:connector-curvature="0"
   style="fill:none;stroke:#000000" />
         <path
   d="m 10407,13423 -28,-20 -28,-18 -28,-15 -28,-13 -28,-13 -28,-10 -25,-10 -28,-10 -28,-11 -28,-7 -28,-10 -31,-10 -28,-11 -30,-12 -31,-13 -25,-15 -38,-16 -41,-12 -43,-13 -46,-13 -45,-12 -49,-11 -50,-10 -54,-10 -53,-10 -56,-10 -56,-8 -56,-7 -56,-5 -58,-8 -59,-5 -61,-5 -58,-3 -59,-2 -58,-3 -58,-2 h -59 -58 -56 l -56,2 -56,3 -53,5 -51,2 -51,5 -51,8 -45,5 -46,10 -43,8 -120,211 196,66 33,12 33,11 30,10 31,7 30,11 28,7 28,8 28,7 31,11 28,7 28,8 33,7 28,8 33,10 33,8 35,10 26,-2 10,-21 v -20 l -21,-15 -35,-11 -33,-10 -31,-7 -30,-10 -31,-11 -28,-10 -30,-7 -28,-11 -28,-10 -28,-7 -28,-11 -28,-10 -30,-10 -31,-10 -33,-13 -33,-10 -180,-8 104,-167 86,-15 94,-11 99,-7 h 105 l 106,2 112,8 112,10 114,13 115,15 109,20 107,21 104,23 99,25 91,25 87,28 76,28 30,16 28,10 26,12 28,8 28,10 28,8 27,7 28,5 26,11 28,7 25,10 26,11 28,12 25,16 28,15 28,20 20,10 h 18 l 15,-7 13,-13 8,-15 2,-18 -5,-18 z"
   id="path126"
   inkscape:connector-curvature="0"
   style="fill:#000000;stroke:none" />
         <path
   d="m 10407,13423 -28,-20 -28,-18 -28,-15 -28,-13 -28,-13 -28,-10 -25,-10 -28,-10 -28,-11 -28,-7 -28,-10 -31,-10 -28,-11 -30,-12 -31,-13 -25,-15 -38,-16 -41,-12 -43,-13 -46,-13 -45,-12 -49,-11 -50,-10 -54,-10 -53,-10 -56,-10 -56,-8 -56,-7 -56,-5 -58,-8 -59,-5 -61,-5 -58,-3 -59,-2 -58,-3 -58,-2 h -59 -58 -56 l -56,2 -56,3 -53,5 -51,2 -51,5 -51,8 -45,5 -46,10 -43,8 -120,211 196,66 33,12 33,11 30,10 31,7 30,11 28,7 28,8 28,7 31,11 28,7 28,8 33,7 28,8 33,10 33,8 35,10 26,-2 10,-21 v -20 l -21,-15 -35,-11 -33,-10 -31,-7 -30,-10 -31,-11 -28,-10 -30,-7 -28,-11 -28,-10 -28,-7 -28,-11 -28,-10 -30,-10 -31,-10 -33,-13 -33,-10 -180,-8 104,-167 86,-15 94,-11 99,-7 h 105 l 106,2 112,8 112,10 114,13 115,15 109,20 107,21 104,23 99,25 91,25 87,28 76,28 30,16 28,10 26,12 28,8 28,10 28,8 27,7 28,5 26,11 28,7 25,10 26,11 28,12 25,16 28,15 28,20 20,10 h 18 l 15,-7 13,-13 8,-15 2,-18 -5,-18 z"
   id="path128"
   inkscape:connector-curvature="0"
   style="fill:none;stroke:#000000" />
         <path
   d="m 10587,12795 43,-134 51,-143 54,-144 61,-150 66,-148 73,-147 79,-142 84,-138 91,-129 97,-117 104,-107 109,-91 117,-74 125,-56 129,-35 137,-13 -15,46 -12,45 -11,44 -12,43 -11,41 -17,40 -18,41 -28,40 -25,51 -18,38 -13,28 -8,23 -7,26 -8,28 -13,40 -17,54 -10,17 -16,13 -17,3 -18,-3 -16,-8 -12,-15 -5,-18 2,-20 18,-58 13,-41 7,-33 8,-25 10,-26 13,-33 18,-38 28,-56 28,-35 22,-33 26,-28 23,-31 20,-28 20,-33 18,-33 18,-41 -132,13 -127,36 -117,56 -112,76 -104,91 -99,104 -92,120 -86,129 -79,135 -74,142 -68,148 -61,145 -59,147 -50,142 -49,140 -40,129 -10,11 -13,2 -10,-7 z"
   id="path130"
   inkscape:connector-curvature="0"
   style="fill:#000000;stroke:none" />
         <path
   d="m 10587,12795 43,-134 51,-143 54,-144 61,-150 66,-148 73,-147 79,-142 84,-138 91,-129 97,-117 104,-107 109,-91 117,-74 125,-56 129,-35 137,-13 -15,46 -12,45 -11,44 -12,43 -11,41 -17,40 -18,41 -28,40 -25,51 -18,38 -13,28 -8,23 -7,26 -8,28 -13,40 -17,54 -10,17 -16,13 -17,3 -18,-3 -16,-8 -12,-15 -5,-18 2,-20 18,-58 13,-41 7,-33 8,-25 10,-26 13,-33 18,-38 28,-56 28,-35 22,-33 26,-28 23,-31 20,-28 20,-33 18,-33 18,-41 -132,13 -127,36 -117,56 -112,76 -104,91 -99,104 -92,120 -86,129 -79,135 -74,142 -68,148 -61,145 -59,147 -50,142 -49,140 -40,129 -10,11 -13,2 -10,-7 z"
   id="path132"
   inkscape:connector-curvature="0"
   style="fill:none;stroke:#000000" />
         <path
   d="m 10595,12902 -43,-135 -49,-142 -56,-145 -58,-150 -66,-147 -74,-147 -79,-143 -83,-137 -92,-129 -91,-117 -104,-107 -110,-91 -117,-74 -124,-56 -130,-36 -137,-12 18,45 13,46 10,43 10,44 13,40 15,41 20,41 26,40 25,51 18,38 12,28 11,23 7,25 8,28 15,41 15,53 11,18 15,13 15,2 18,-2 15,-8 15,-15 3,-18 -3,-20 -17,-59 -13,-40 -8,-33 -7,-26 -8,-25 -15,-33 -18,-38 -28,-56 -28,-36 -23,-33 -25,-28 -21,-30 -20,-28 -20,-33 -21,-33 -17,-41 132,13 124,35 120,56 112,77 104,91 96,104 89,120 84,129 79,135 73,142 69,147 61,145 58,148 51,142 49,140 40,129 10,10 13,3 13,-8 z"
   id="path134"
   inkscape:connector-curvature="0"
   style="fill:#000000;stroke:none" />
         <path
   d="m 10595,12902 -43,-135 -49,-142 -56,-145 -58,-150 -66,-147 -74,-147 -79,-143 -83,-137 -92,-129 -91,-117 -104,-107 -110,-91 -117,-74 -124,-56 -130,-36 -137,-12 18,45 13,46 10,43 10,44 13,40 15,41 20,41 26,40 25,51 18,38 12,28 11,23 7,25 8,28 15,41 15,53 11,18 15,13 15,2 18,-2 15,-8 15,-15 3,-18 -3,-20 -17,-59 -13,-40 -8,-33 -7,-26 -8,-25 -15,-33 -18,-38 -28,-56 -28,-36 -23,-33 -25,-28 -21,-30 -20,-28 -20,-33 -21,-33 -17,-41 132,13 124,35 120,56 112,77 104,91 96,104 89,120 84,129 79,135 73,142 69,147 61,145 58,148 51,142 49,140 40,129 10,10 13,3 13,-8 z"
   id="path136"
   inkscape:connector-curvature="0"
   style="fill:none;stroke:#000000" />
         <path
   d="m 9309,13829 -56,31 -53,33 -48,35 -46,39 -43,40 -38,43 -36,44 -33,48 -33,51 -28,53 -23,53 -28,59 -20,58 -20,64 -18,63 -18,66 -36,74 -38,76 -38,82 -38,83 -38,84 -38,84 -38,76 -38,77 -26,33 -23,30 -25,28 -23,28 -23,23 -25,25 -26,23 -25,23 -25,20 -26,21 -28,23 -28,20 -28,23 -30,20 -31,23 -33,25 -40,10 -41,8 -36,10 -35,8 -38,8 -36,7 -40,8 -41,10 -20,-3 -11,-15 v -20 l 18,-13 41,-10 38,-10 33,-8 36,-10 33,-10 33,-10 38,-11 40,-10 61,-45 56,-41 51,-38 48,-38 49,-41 43,-43 46,-53 48,-59 38,-79 35,-73 39,-82 38,-81 35,-81 38,-79 36,-76 36,-74 17,-69 21,-66 20,-63 25,-61 26,-59 28,-55 33,-54 33,-51 35,-45 41,-46 43,-43 46,-41 48,-38 51,-36 56,-35 58,-31 16,-2 10,10 2,15 z"
   id="path138"
   inkscape:connector-curvature="0"
   style="fill:#000000;stroke:none" />
         <path
   d="m 9309,13829 -56,31 -53,33 -48,35 -46,39 -43,40 -38,43 -36,44 -33,48 -33,51 -28,53 -23,53 -28,59 -20,58 -20,64 -18,63 -18,66 -36,74 -38,76 -38,82 -38,83 -38,84 -38,84 -38,76 -38,77 -26,33 -23,30 -25,28 -23,28 -23,23 -25,25 -26,23 -25,23 -25,20 -26,21 -28,23 -28,20 -28,23 -30,20 -31,23 -33,25 -40,10 -41,8 -36,10 -35,8 -38,8 -36,7 -40,8 -41,10 -20,-3 -11,-15 v -20 l 18,-13 41,-10 38,-10 33,-8 36,-10 33,-10 33,-10 38,-11 40,-10 61,-45 56,-41 51,-38 48,-38 49,-41 43,-43 46,-53 48,-59 38,-79 35,-73 39,-82 38,-81 35,-81 38,-79 36,-76 36,-74 17,-69 21,-66 20,-63 25,-61 26,-59 28,-55 33,-54 33,-51 35,-45 41,-46 43,-43 46,-41 48,-38 51,-36 56,-35 58,-31 16,-2 10,10 2,15 z"
   id="path140"
   inkscape:connector-curvature="0"
   style="fill:none;stroke:#000000" />
         <path
   d="m 11515,13677 33,18 33,18 33,15 30,18 31,17 28,18 28,18 27,18 28,17 28,18 28,21 26,17 28,21 28,20 28,20 28,21 53,81 46,89 43,96 38,100 41,101 33,102 40,99 43,96 21,49 23,48 22,43 26,41 25,40 28,39 28,35 31,36 30,33 33,28 31,30 35,31 36,30 35,28 39,31 38,28 40,15 38,15 36,15 33,16 36,15 33,15 33,13 35,15 33,13 36,12 38,13 41,10 43,10 43,11 48,7 54,8 12,7 5,13 -7,13 -15,5 -54,-8 -51,-7 -45,-5 -46,-11 -43,-7 -38,-8 -41,-10 -36,-10 -38,-10 -35,-10 -38,-13 -36,-13 -36,-13 -38,-12 -40,-16 -41,-15 -41,-30 -38,-31 -38,-33 -35,-33 -36,-33 -36,-33 -30,-35 -33,-33 -31,-39 -28,-38 -28,-40 -27,-44 -26,-45 -23,-49 -23,-48 -22,-53 -44,-92 -38,-96 -38,-99 -38,-97 -38,-94 -43,-91 -46,-87 -51,-78 -28,-21 -25,-20 -28,-20 -26,-21 -25,-20 -23,-20 -25,-21 -26,-17 -25,-21 -25,-18 -28,-20 -28,-18 -28,-17 -31,-18 -30,-16 -33,-17 -13,-16 3,-20 12,-13 z"
   id="path142"
   inkscape:connector-curvature="0"
   style="fill:#000000;stroke:none" />
         <path
   d="m 11515,13677 33,18 33,18 33,15 30,18 31,17 28,18 28,18 27,18 28,17 28,18 28,21 26,17 28,21 28,20 28,20 28,21 53,81 46,89 43,96 38,100 41,101 33,102 40,99 43,96 21,49 23,48 22,43 26,41 25,40 28,39 28,35 31,36 30,33 33,28 31,30 35,31 36,30 35,28 39,31 38,28 40,15 38,15 36,15 33,16 36,15 33,15 33,13 35,15 33,13 36,12 38,13 41,10 43,10 43,11 48,7 54,8 12,7 5,13 -7,13 -15,5 -54,-8 -51,-7 -45,-5 -46,-11 -43,-7 -38,-8 -41,-10 -36,-10 -38,-10 -35,-10 -38,-13 -36,-13 -36,-13 -38,-12 -40,-16 -41,-15 -41,-30 -38,-31 -38,-33 -35,-33 -36,-33 -36,-33 -30,-35 -33,-33 -31,-39 -28,-38 -28,-40 -27,-44 -26,-45 -23,-49 -23,-48 -22,-53 -44,-92 -38,-96 -38,-99 -38,-97 -38,-94 -43,-91 -46,-87 -51,-78 -28,-21 -25,-20 -28,-20 -26,-21 -25,-20 -23,-20 -25,-21 -26,-17 -25,-21 -25,-18 -28,-20 -28,-18 -28,-17 -31,-18 -30,-16 -33,-17 -13,-16 3,-20 12,-13 z"
   id="path144"
   inkscape:connector-curvature="0"
   style="fill:none;stroke:#000000" />
         <path
   d="m 12945,12066 -28,41 -23,46 -15,45 -10,54 -8,58 -5,66 -2,76 v 87 l 7,132 -7,10 -3,15 23,137 -5,18 -13,8 -15,-3 -10,-15 -28,-140 -10,-12 -6,-13 -10,-135 3,-91 5,-82 10,-71 15,-61 18,-56 23,-50 28,-46 30,-46 16,-7 15,5 10,12 z"
   id="path146"
   inkscape:connector-curvature="0"
   style="fill:#000000;stroke:none" />
         <path
   d="m 12945,12066 -28,41 -23,46 -15,45 -10,54 -8,58 -5,66 -2,76 v 87 l 7,132 -7,10 -3,15 23,137 -5,18 -13,8 -15,-3 -10,-15 -28,-140 -10,-12 -6,-13 -10,-135 3,-91 5,-82 10,-71 15,-61 18,-56 23,-50 28,-46 30,-46 16,-7 15,5 10,12 z"
   id="path148"
   inkscape:connector-curvature="0"
   style="fill:none;stroke:#000000" />
         <path
   d="m 8247,12191 20,48 21,46 15,43 18,40 20,41 18,41 20,43 23,43 -13,48 -10,41 -10,36 -10,33 -10,30 -10,36 -11,38 -12,46 -13,17 h -15 l -21,-10 -2,-20 18,-81 12,-59 13,-61 20,-86 -20,-43 -20,-41 -18,-38 -15,-36 -18,-38 -15,-40 -18,-44 -20,-48 -3,-15 3,-15 7,-11 13,-7 h 13 12 l 10,10 z"
   id="path150"
   inkscape:connector-curvature="0"
   style="fill:#000000;stroke:none" />
         <path
   d="m 8247,12191 20,48 21,46 15,43 18,40 20,41 18,41 20,43 23,43 -13,48 -10,41 -10,36 -10,33 -10,30 -10,36 -11,38 -12,46 -13,17 h -15 l -21,-10 -2,-20 18,-81 12,-59 13,-61 20,-86 -20,-43 -20,-41 -18,-38 -15,-36 -18,-38 -15,-40 -18,-44 -20,-48 -3,-15 3,-15 7,-11 13,-7 h 13 12 l 10,10 z"
   id="path152"
   inkscape:connector-curvature="0"
   style="fill:none;stroke:#000000" />
         <path
   d="m 12808,12854 -59,-23 -56,-20 -58,-18 -58,-15 -59,-16 -58,-12 -59,-11 -58,-10 -56,-7 -58,-5 -59,-3 -58,-3 h -56 -59 l -56,3 -58,5 -56,5 -56,8 -56,10 -56,13 -56,10 -53,15 -56,15 -53,18 -53,18 -54,20 -53,23 -51,23 -53,25 -51,26 -48,28 -51,28 -16,2 -10,-10 -2,-13 10,-12 51,-31 51,-28 50,-25 54,-26 53,-22 53,-23 54,-21 56,-17 56,-18 53,-15 56,-16 58,-12 56,-11 56,-10 59,-7 58,-8 56,-3 58,-2 59,-3 h 58 l 59,3 58,5 61,5 58,8 59,10 58,10 61,13 59,15 58,18 61,18 59,20 58,23 10,10 v 13 l -10,10 z"
   id="path154"
   inkscape:connector-curvature="0"
   style="fill:#000000;stroke:none" />
         <path
   d="m 12808,12854 -59,-23 -56,-20 -58,-18 -58,-15 -59,-16 -58,-12 -59,-11 -58,-10 -56,-7 -58,-5 -59,-3 -58,-3 h -56 -59 l -56,3 -58,5 -56,5 -56,8 -56,10 -56,13 -56,10 -53,15 -56,15 -53,18 -53,18 -54,20 -53,23 -51,23 -53,25 -51,26 -48,28 -51,28 -16,2 -10,-10 -2,-13 10,-12 51,-31 51,-28 50,-25 54,-26 53,-22 53,-23 54,-21 56,-17 56,-18 53,-15 56,-16 58,-12 56,-11 56,-10 59,-7 58,-8 56,-3 58,-2 59,-3 h 58 l 59,3 58,5 61,5 58,8 59,10 58,10 61,13 59,15 58,18 61,18 59,20 58,23 10,10 v 13 l -10,10 z"
   id="path156"
   inkscape:connector-curvature="0"
   style="fill:none;stroke:#000000" />
         <path
   d="m 8290,12856 h 49 48 l 46,-2 h 48 46 l 48,-3 h 46 l 48,-2 46,-3 h 45 l 46,-2 h 46 48 l 46,-3 h 46 45 76 l 74,5 64,5 61,5 58,8 53,10 51,13 49,13 45,15 46,15 46,18 46,18 48,17 48,21 51,20 53,20 13,10 v 16 l -10,10 h -15 l -54,-20 -48,-21 -48,-18 -46,-15 -46,-15 -46,-15 -45,-13 -46,-10 -48,-10 -51,-10 -51,-8 -58,-5 -59,-5 -66,-3 -69,-2 h -76 -45 -46 l -46,-3 h -48 -46 l -46,-2 h -45 l -46,-3 -48,-2 h -46 l -48,-3 h -46 -48 l -46,-3 h -48 -49 l -15,-5 -3,-15 3,-13 z"
   id="path158"
   inkscape:connector-curvature="0"
   style="fill:#000000;stroke:none" />
         <path
   d="m 8290,12856 h 49 48 l 46,-2 h 48 46 l 48,-3 h 46 l 48,-2 46,-3 h 45 l 46,-2 h 46 48 l 46,-3 h 46 45 76 l 74,5 64,5 61,5 58,8 53,10 51,13 49,13 45,15 46,15 46,18 46,18 48,17 48,21 51,20 53,20 13,10 v 16 l -10,10 h -15 l -54,-20 -48,-21 -48,-18 -46,-15 -46,-15 -46,-15 -45,-13 -46,-10 -48,-10 -51,-10 -51,-8 -58,-5 -59,-5 -66,-3 -69,-2 h -76 -45 -46 l -46,-3 h -48 -46 l -46,-2 h -45 l -46,-3 -48,-2 h -46 l -48,-3 h -46 -48 l -46,-3 h -48 -49 l -15,-5 -3,-15 3,-13 z"
   id="path160"
   inkscape:connector-curvature="0"
   style="fill:none;stroke:#000000" />
        </g>
       </g>
      </g>
     </g>
    </g>
   </g>
  </g>
 </g>
</svg>