<?xml version="1.0" encoding="UTF-8" standalone="no"?>
<svg
   xmlns:ooo="http://xml.openoffice.org/svg/export"
   xmlns:dc="http://purl.org/dc/elements/1.1/"
   xmlns:cc="http://creativecommons.org/ns#"
   xmlns:rdf="http://www.w3.org/1999/02/22-rdf-syntax-ns#"
   xmlns:svg="http://www.w3.org/2000/svg"
   xmlns="http://www.w3.org/2000/svg"
   xmlns:sodipodi="http://sodipodi.sourceforge.net/DTD/sodipodi-0.dtd"
   xmlns:inkscape="http://www.inkscape.org/namespaces/inkscape"
   version="1.2"
   width="45.689999mm"
   height="35.759998mm"
   viewBox="0 0 4568.9999 3575.9998"
   preserveAspectRatio="xMidYMid"
   xml:space="preserve"
   id="svg301"
   sodipodi:docname="berries.svg"
   style="fill-rule:evenodd;stroke-width:28.22200012;stroke-linejoin:round"
   inkscape:version="0.92.5 (2060ec1f9f, 2020-04-08)"><metadata
   id="metadata305"><rdf:RDF><cc:Work
       rdf:about=""><dc:format>image/svg+xml</dc:format><dc:type
         rdf:resource="http://purl.org/dc/dcmitype/StillImage" /></cc:Work></rdf:RDF></metadata><sodipodi:namedview
   pagecolor="#ffffff"
   bordercolor="#666666"
   borderopacity="1"
   objecttolerance="10"
   gridtolerance="10"
   guidetolerance="10"
   inkscape:pageopacity="0"
   inkscape:pageshadow="2"
   inkscape:window-width="664"
   inkscape:window-height="487"
   id="namedview303"
   showgrid="false"
   inkscape:zoom="0.2102413"
   inkscape:cx="86.362206"
   inkscape:cy="67.577951"
   inkscape:window-x="0"
   inkscape:window-y="0"
   inkscape:window-maximized="0"
   inkscape:current-layer="svg301" />
 <defs
   class="ClipPathGroup"
   id="defs8">
  <clipPath
   id="presentation_clip_path"
   clipPathUnits="userSpaceOnUse">
   <rect
   x="0"
   y="0"
   width="21000"
   height="29700"
   id="rect2" />
  </clipPath>
  <clipPath
   id="presentation_clip_path_shrink"
   clipPathUnits="userSpaceOnUse">
   <rect
   x="21"
   y="29"
   width="20958"
   height="29641"
   id="rect5" />
  </clipPath>
 </defs>
 <defs
   class="TextShapeIndex"
   id="defs12">
  <g
   ooo:slide="id1"
   ooo:id-list="id3"
   id="g10" />
 </defs>
 <defs
   class="EmbeddedBulletChars"
   id="defs44">
  <g
   id="bullet-char-template-57356"
   transform="matrix(4.8828125e-4,0,0,-4.8828125e-4,0,0)">
   <path
   d="M 580,1141 1163,571 580,0 -4,571 Z"
   id="path14"
   inkscape:connector-curvature="0" />
  </g>
  <g
   id="bullet-char-template-57354"
   transform="matrix(4.8828125e-4,0,0,-4.8828125e-4,0,0)">
   <path
   d="M 8,1128 H 1137 V 0 H 8 Z"
   id="path17"
   inkscape:connector-curvature="0" />
  </g>
  <g
   id="bullet-char-template-10146"
   transform="matrix(4.8828125e-4,0,0,-4.8828125e-4,0,0)">
   <path
   d="M 174,0 602,739 174,1481 1456,739 Z M 1358,739 309,1346 659,739 Z"
   id="path20"
   inkscape:connector-curvature="0" />
  </g>
  <g
   id="bullet-char-template-10132"
   transform="matrix(4.8828125e-4,0,0,-4.8828125e-4,0,0)">
   <path
   d="M 2015,739 1276,0 H 717 l 543,543 H 174 v 393 h 1086 l -543,545 h 557 z"
   id="path23"
   inkscape:connector-curvature="0" />
  </g>
  <g
   id="bullet-char-template-10007"
   transform="matrix(4.8828125e-4,0,0,-4.8828125e-4,0,0)">
   <path
   d="m 0,-2 c -7,16 -16,29 -25,39 l 381,530 c -94,256 -141,385 -141,387 0,25 13,38 40,38 9,0 21,-2 34,-5 21,4 42,12 65,25 l 27,-13 111,-251 280,301 64,-25 24,25 c 21,-10 41,-24 62,-43 C 886,937 835,863 770,784 769,783 710,716 594,584 L 774,223 c 0,-27 -21,-55 -63,-84 l 16,-20 C 717,90 699,76 672,76 641,76 570,178 457,381 L 164,-76 c -22,-34 -53,-51 -92,-51 -42,0 -63,17 -64,51 -7,9 -10,24 -10,44 0,9 1,19 2,30 z"
   id="path26"
   inkscape:connector-curvature="0" />
  </g>
  <g
   id="bullet-char-template-10004"
   transform="matrix(4.8828125e-4,0,0,-4.8828125e-4,0,0)">
   <path
   d="M 285,-33 C 182,-33 111,30 74,156 52,228 41,333 41,471 c 0,78 14,145 41,201 34,71 87,106 158,106 53,0 88,-31 106,-94 l 23,-176 c 8,-64 28,-97 59,-98 l 735,706 c 11,11 33,17 66,17 42,0 63,-15 63,-46 V 965 c 0,-36 -10,-64 -30,-84 L 442,47 C 390,-6 338,-33 285,-33 Z"
   id="path29"
   inkscape:connector-curvature="0" />
  </g>
  <g
   id="bullet-char-template-9679"
   transform="matrix(4.8828125e-4,0,0,-4.8828125e-4,0,0)">
   <path
   d="M 813,0 C 632,0 489,54 383,161 276,268 223,411 223,592 c 0,181 53,324 160,431 106,107 249,161 430,161 179,0 323,-54 432,-161 108,-107 162,-251 162,-431 0,-180 -54,-324 -162,-431 C 1136,54 992,0 813,0 Z"
   id="path32"
   inkscape:connector-curvature="0" />
  </g>
  <g
   id="bullet-char-template-8226"
   transform="matrix(4.8828125e-4,0,0,-4.8828125e-4,0,0)">
   <path
   d="m 346,457 c -73,0 -137,26 -191,78 -54,51 -81,114 -81,188 0,73 27,136 81,188 54,52 118,78 191,78 73,0 134,-26 185,-79 51,-51 77,-114 77,-187 0,-75 -25,-137 -76,-188 -50,-52 -112,-78 -186,-78 z"
   id="path35"
   inkscape:connector-curvature="0" />
  </g>
  <g
   id="bullet-char-template-8211"
   transform="matrix(4.8828125e-4,0,0,-4.8828125e-4,0,0)">
   <path
   d="M -4,459 H 1135 V 606 H -4 Z"
   id="path38"
   inkscape:connector-curvature="0" />
  </g>
  <g
   id="bullet-char-template-61548"
   transform="matrix(4.8828125e-4,0,0,-4.8828125e-4,0,0)">
   <path
   d="m 173,740 c 0,163 58,303 173,419 116,115 255,173 419,173 163,0 302,-58 418,-173 116,-116 174,-256 174,-419 0,-163 -58,-303 -174,-418 C 1067,206 928,148 765,148 601,148 462,206 346,322 231,437 173,577 173,740 Z"
   id="path41"
   inkscape:connector-curvature="0" />
  </g>
 </defs>
 <g
   id="g49"
   transform="translate(-8215,-13062)">
  <g
   id="id2"
   class="Master_Slide">
   <g
   id="bg-id2"
   class="Background" />
   <g
   id="bo-id2"
   class="BackgroundObjects" />
  </g>
 </g>
 <g
   class="SlideGroup"
   id="g299"
   transform="translate(-8215,-13062)">
  <g
   id="g297">
   <g
   id="container-id1">
    <g
   id="id1"
   class="Slide"
   clip-path="url(#presentation_clip_path)">
     <g
   class="Page"
   id="g293">
      <g
   class="Graphic"
   id="g291">
       <g
   id="id3">
        <rect
   class="BoundingBox"
   x="8215"
   y="13062"
   width="4569"
   height="3576"
   id="rect51"
   style="fill:none;stroke:none" />
        <defs
   id="defs56">
         <clipPath
   id="clip_path_1"
   clipPathUnits="userSpaceOnUse">
          <path
   d="m 8215,13062 h 4568 v 3575 H 8215 Z"
   id="path53"
   inkscape:connector-curvature="0" />
         </clipPath>
        </defs>
        <g
   clip-path="url(#clip_path_1)"
   id="g288">
         <path
   d="m 12784,13497 -15,-8 -13,-5 -15,-5 -18,-5 -18,-3 h -20 l -20,3 -23,2 -26,8 -25,8 -31,12 -33,15 -35,21 -38,23 -41,28 -46,30 8,-23 13,-20 17,-20 18,-21 20,-20 23,-18 23,-18 23,-17 -18,-3 -17,3 -23,7 -23,10 -26,13 -25,15 -28,18 -28,20 -28,21 -28,20 -30,20 -28,21 -28,18 -28,17 -26,13 -25,13 15,-23 21,-26 25,-27 25,-31 26,-28 28,-30 28,-28 25,-26 h -20 l -23,3 -26,2 -25,8 -28,8 -25,10 -28,10 -28,13 -28,12 -31,16 -25,12 -28,15 -28,16 -25,15 -23,13 -23,15 10,-23 13,-20 15,-21 15,-17 18,-21 18,-18 18,-17 17,-18 -55,5 -54,15 -53,26 -49,33 -48,43 -46,53 -43,59 -43,66 41,-191 -43,28 -36,31 -31,35 -25,36 -18,38 -12,38 -6,36 v 30 h -10 l -12,-2 h -16 l -15,-5 -13,-8 -10,-15 -5,-21 v -33 l -43,56 -33,56 -25,53 -18,56 -8,51 v 51 l 8,46 12,43 21,41 25,33 31,28 35,20 41,15 43,5 46,-2 48,-10 -18,28 -17,33 -18,35 -15,38 -13,41 -8,38 v 41 l 3,38 12,38 23,36 31,30 40,28 56,20 66,18 84,8 97,2 -13,-28 -20,-33 -21,-33 -12,-28 30,3 33,5 33,5 33,3 h 33 l 31,-3 28,-5 25,-13 -119,-84 38,-10 38,-12 36,-13 35,-13 31,-15 30,-15 28,-16 28,-15 26,-15 22,-18 21,-15 20,-18 18,-18 18,-15 12,-18 13,-18 -20,8 -23,8 -23,10 -20,7 -23,8 -21,5 -20,3 -20,-3 43,-33 48,-38 51,-41 48,-45 46,-46 41,-46 33,-46 25,-43 -30,13 -36,13 -33,12 -35,10 -34,11 -30,10 -28,5 -25,5 43,-43 53,-49 56,-53 59,-56 53,-53 46,-54 33,-48 20,-41 -23,16 -25,17 -26,18 -23,16 -25,12 -23,10 -20,5 h -20 l 61,-71 48,-63 40,-56 33,-46 28,-38 31,-28 30,-18 z"
   id="path58"
   inkscape:connector-curvature="0"
   style="fill:#00a519;stroke:none" />
         <path
   d="m 12548,16516 -5,-30 -11,-34 -15,-33 -28,-35 -40,-36 -59,-38 -74,-41 -96,-43 23,-2 25,-3 26,5 28,5 25,8 28,8 28,10 28,10 -8,-15 -13,-16 -17,-15 -21,-15 -25,-13 -28,-15 -28,-13 -33,-12 -31,-13 -33,-15 -33,-13 -33,-13 -30,-15 -28,-13 -25,-15 -23,-15 28,2 33,3 35,5 38,5 41,8 38,7 38,8 36,7 -26,-35 -35,-38 -46,-36 -48,-35 -54,-33 -53,-33 -51,-28 -48,-23 23,-5 h 23 l 25,2 26,5 25,5 25,5 23,5 26,6 -16,-23 -17,-23 -21,-18 -23,-18 -22,-18 -26,-12 -28,-13 -28,-13 -30,-7 -33,-8 -33,-8 -33,-5 -39,-2 -35,-3 -38,-2 h -41 l 183,-64 -46,-23 -45,-15 -46,-8 h -46 l -41,6 -38,10 -33,12 -25,18 -5,-10 -8,-13 -5,-12 -5,-16 v -15 l 8,-18 15,-15 28,-15 -71,-8 h -64 l -61,10 -53,16 -48,20 -44,28 -35,30 -31,33 -23,39 -15,40 -5,41 v 41 l 10,40 15,38 28,38 36,36 h -33 l -38,3 -38,2 -41,8 -41,12 -38,16 -33,18 -30,25 -26,30 -20,36 -8,43 -2,51 10,59 23,66 35,73 51,84 18,-25 18,-36 15,-33 18,-25 13,28 15,28 13,30 15,31 18,28 17,22 23,23 23,16 5,-148 31,28 30,26 28,22 31,23 28,21 28,17 28,16 27,15 28,13 26,10 25,7 26,8 25,8 23,2 23,5 h 20 l -18,-12 -20,-16 -18,-12 -20,-16 -18,-12 -15,-18 -13,-15 -7,-18 25,10 25,10 31,10 28,11 30,10 31,7 33,10 30,8 33,8 31,7 30,5 31,6 30,2 28,3 h 26 l 25,-3 -28,-20 -30,-21 -28,-22 -28,-23 -28,-23 -23,-23 -20,-20 -18,-21 28,8 33,7 33,8 35,10 39,10 38,11 38,10 38,7 38,11 36,7 35,5 33,5 31,5 h 28 25 l 20,-5 -25,-12 -28,-13 -28,-10 -25,-13 -26,-13 -20,-12 -15,-16 -10,-17 48,7 46,5 40,5 38,3 36,2 h 33 l 28,3 28,3 25,2 23,3 20,2 18,8 18,7 15,8 13,13 z"
   id="path60"
   inkscape:connector-curvature="0"
   style="fill:#00a519;stroke:none" />
         <path
   d="m 8238,13715 -8,31 -2,33 5,38 15,41 25,48 41,56 56,63 74,74 -23,-5 -26,-8 -22,-10 -23,-15 -23,-15 -23,-18 -20,-18 -23,-20 7,35 26,41 38,43 48,46 51,48 51,48 46,49 35,43 -25,-10 -31,-15 -30,-18 -33,-18 -36,-20 -33,-21 -33,-20 -30,-20 10,43 20,46 28,48 36,51 35,51 41,48 38,43 38,41 -23,-5 -23,-8 -23,-10 -22,-13 -23,-13 -21,-15 -20,-13 -20,-12 15,53 25,48 33,46 46,43 51,38 61,34 66,33 74,28 -196,-3 36,36 38,30 40,23 41,15 41,13 40,2 h 36 l 30,-7 v 10 l 3,15 v 15 16 l -8,15 -10,13 -23,10 -30,5 63,30 61,23 59,13 56,3 53,-3 48,-10 46,-15 41,-23 33,-28 28,-31 20,-35 15,-38 5,-41 v -43 l -12,-46 -21,-46 31,13 35,10 39,10 40,8 41,2 h 41 l 40,-5 36,-12 35,-21 31,-28 23,-35 17,-46 13,-58 3,-69 -8,-81 -18,-97 -12,8 -13,10 -15,12 -13,13 -15,13 -13,13 -13,10 -12,7 -5,-63 -8,-66 -15,-61 -28,-51 -56,137 -38,-71 -41,-63 -41,-56 -40,-49 -44,-40 -40,-33 -41,-28 -38,-18 10,20 13,18 15,20 13,21 10,20 10,20 5,18 3,20 -41,-38 -48,-38 -48,-40 -54,-39 -53,-35 -53,-31 -54,-25 -48,-15 18,28 20,30 18,33 20,31 15,30 16,31 12,25 8,23 -23,-15 -28,-21 -28,-20 -30,-20 -31,-23 -33,-23 -30,-23 -33,-20 -33,-23 -31,-20 -33,-18 -28,-16 -28,-15 -25,-10 -26,-8 -20,-2 20,20 23,21 21,22 20,21 20,20 13,20 10,18 3,21 -84,-46 -71,-33 -64,-28 -51,-23 -43,-23 -33,-23 -23,-28 z"
   id="path62"
   inkscape:connector-curvature="0"
   style="fill:#00a519;stroke:none" />
         <path
   d="m 11613,14302 15,-12 12,-16 13,-12 10,-13 11,-13 12,-12 13,-8 15,-5 18,15 18,43 18,64 22,73 31,72 33,58 43,36 h 54 l -36,-16 -31,-38 -25,-51 -25,-61 -21,-63 -18,-64 -17,-58 -13,-48 10,-8 10,-8 10,-10 11,-7 10,-8 10,-8 10,-7 8,-5 20,28 26,48 33,58 40,61 48,51 59,31 66,5 74,-36 -79,8 -64,-13 -50,-35 -41,-44 -33,-53 -23,-51 -20,-46 -18,-33 15,-12 15,-11 13,-7 10,-10 10,-8 11,-8 10,-7 10,-8 15,18 23,33 28,38 38,41 48,28 64,12 76,-15 94,-48 -30,13 -41,15 -48,13 -51,2 -51,-10 -48,-31 -43,-55 -33,-84 7,-5 h 13 l 18,-3 h 20 23 25 l 28,-2 31,-3 33,-5 33,-5 35,-10 39,-11 35,-17 38,-18 38,-26 38,-27 -35,17 -48,21 -56,25 -61,20 -61,18 -56,8 -46,-3 -36,-15 11,-8 17,-12 26,-18 30,-23 33,-25 38,-28 41,-31 43,-30 44,-33 43,-33 40,-33 41,-31 36,-30 30,-28 26,-26 20,-20 -26,15 -30,20 -33,26 -38,25 -38,28 -41,28 -41,31 -40,30 -41,31 -38,28 -36,25 -30,23 -28,20 -23,18 -18,13 -10,7 3,-25 20,-36 30,-43 39,-46 40,-48 41,-43 33,-38 28,-28 -69,46 -58,53 -48,58 -41,59 -33,53 -28,46 -20,36 -16,17 -25,-53 -3,-56 13,-56 28,-56 33,-51 33,-45 31,-36 22,-28 -88,81 -56,74 -36,66 -13,56 -2,46 7,41 11,28 5,20 -10,7 -11,8 -10,8 -10,7 -10,11 -13,7 -15,10 -15,13 -21,-28 -23,-41 -17,-48 -16,-58 -5,-64 5,-71 21,-74 35,-76 -61,66 -30,71 -8,76 10,74 18,69 26,58 20,49 15,28 -7,5 -11,7 -10,8 -10,10 -10,8 -10,7 -10,8 -11,8 -35,-28 -31,-36 -30,-43 -26,-46 -20,-46 -15,-48 -5,-43 v -41 l -21,53 3,56 18,56 30,54 33,51 28,43 18,33 3,23 -11,15 -10,13 -10,10 -13,10 -12,10 -13,10 -15,10 -18,13 v -2 l 5,-6 3,3 z"
   id="path64"
   inkscape:connector-curvature="0"
   style="fill:#006600;stroke:none" />
         <path
   d="m 11234,15939 18,8 20,5 15,2 18,3 15,2 16,5 15,8 12,10 -5,23 -30,36 -46,51 -51,55 -48,59 -36,58 -7,56 25,46 -2,-38 18,-46 30,-48 41,-51 45,-51 46,-48 43,-41 36,-35 10,5 13,5 13,5 10,5 12,5 11,8 10,2 10,5 -15,31 -28,46 -33,58 -33,64 -21,68 v 64 l 31,61 66,48 -46,-66 -20,-64 5,-61 20,-55 28,-54 33,-46 31,-40 20,-31 18,8 15,5 15,8 13,5 13,5 10,5 13,5 12,5 -7,23 -18,35 -20,44 -16,53 -2,56 20,61 51,58 89,59 -26,-20 -35,-28 -33,-36 -28,-43 -15,-51 2,-56 26,-64 58,-71 15,16 21,30 25,41 33,51 41,50 53,54 66,48 84,41 -33,-23 -41,-31 -48,-38 -48,-43 -43,-43 -36,-46 -23,-41 -2,-38 12,5 18,11 28,12 36,15 38,18 43,18 46,20 48,23 51,21 48,22 48,18 49,21 43,15 38,13 35,10 28,7 -28,-15 -30,-15 -38,-18 -41,-20 -43,-18 -46,-23 -45,-20 -46,-21 -46,-20 -43,-18 -41,-18 -35,-17 -33,-13 -26,-13 -18,-7 -12,-5 23,-11 h 40 l 54,5 58,8 61,13 58,15 51,13 38,10 -35,-20 -38,-18 -38,-13 -39,-10 -38,-10 -35,-5 -36,-5 -35,-3 -33,-2 h -31 -28 -25 -21 -17 l -16,-3 -10,-3 33,-48 48,-30 56,-16 61,-5 61,5 56,8 49,8 33,5 -61,-21 -54,-15 -48,-10 -43,-5 h -38 l -36,5 -30,5 -26,10 -23,10 -17,13 -18,10 -13,13 -13,13 -7,10 -10,10 -6,5 -12,-5 -13,-5 -10,-5 -13,-5 -13,-5 -15,-8 -15,-5 -18,-8 15,-33 23,-38 33,-43 44,-41 53,-35 63,-31 74,-18 87,-7 -46,-13 -41,-8 -41,3 -38,8 -35,12 -36,18 -30,20 -28,23 -28,26 -23,25 -20,26 -21,25 -15,23 -15,18 -10,17 -8,11 -10,-5 -10,-3 -11,-5 -12,-8 -13,-5 -13,-5 -10,-2 -13,-5 8,-46 15,-46 23,-46 28,-45 31,-41 33,-36 35,-28 36,-17 -56,7 -48,28 -38,46 -33,51 -28,53 -23,48 -21,33 -17,13 h -18 l -15,-2 -16,-6 -15,-5 -15,-7 -15,-8 -18,-7 -18,-8 h 3 5 v 2 z"
   id="path66"
   inkscape:connector-curvature="0"
   style="fill:#006600;stroke:none" />
         <path
   d="m 9351,14732 -15,-13 -18,-8 -15,-7 -16,-8 -15,-7 -15,-11 -10,-10 -10,-15 v -8 l 10,-12 15,-13 23,-13 28,-18 30,-15 33,-20 33,-20 33,-21 31,-23 28,-23 20,-22 15,-26 11,-25 -3,-26 -10,-25 -8,38 -28,38 -43,36 -53,38 -59,35 -58,34 -54,27 -43,26 -10,-8 -8,-7 -12,-11 -10,-7 -11,-10 -10,-8 -7,-8 -8,-5 23,-25 41,-36 48,-45 51,-56 38,-59 18,-63 -13,-64 -51,-66 25,76 v 66 l -20,59 -35,48 -44,43 -43,36 -41,28 -27,25 -16,-12 -12,-11 -13,-10 -10,-10 -10,-8 -11,-7 -10,-8 -10,-10 13,-20 28,-28 33,-38 30,-46 15,-53 -2,-64 -33,-71 -69,-79 21,28 22,36 23,43 16,48 2,53 -18,54 -43,53 -76,54 -10,-21 -10,-33 -13,-48 -18,-56 -25,-61 -38,-66 -51,-66 -69,-61 26,30 30,41 36,51 35,53 31,56 20,53 10,46 -7,38 -11,-7 -17,-16 -23,-20 -28,-25 -31,-28 -38,-31 -38,-33 -41,-33 -40,-35 -43,-33 -41,-33 -38,-31 -38,-28 -33,-25 -31,-18 -25,-15 23,20 25,25 30,28 34,31 38,30 35,33 41,33 38,33 38,31 36,30 33,31 30,25 28,21 23,20 15,13 10,7 -25,3 -41,-10 -48,-21 -56,-25 -56,-28 -51,-30 -45,-26 -33,-20 30,30 31,26 33,25 33,20 33,18 35,18 33,13 33,12 31,11 28,10 28,7 23,8 23,5 15,5 15,5 8,5 -46,38 -53,16 h -59 l -58,-13 -59,-20 -53,-23 -43,-23 -31,-15 51,38 48,30 46,23 41,15 35,13 33,5 31,3 h 28 l 25,-5 20,-5 21,-8 18,-8 12,-10 13,-7 10,-6 8,-5 10,8 10,10 10,8 10,7 11,11 12,10 13,10 15,13 -10,12 -13,16 -15,15 -18,15 -20,15 -23,13 -25,15 -28,13 -28,10 -33,10 -33,5 -36,6 h -38 l -38,-3 -41,-8 -43,-10 38,26 38,17 41,11 38,5 38,-3 36,-8 35,-10 36,-15 30,-18 31,-18 28,-17 25,-18 23,-18 18,-15 15,-13 10,-7 8,5 8,7 10,8 10,10 10,8 13,7 7,8 11,8 -21,40 -25,41 -36,38 -38,36 -40,30 -44,25 -40,18 -38,8 55,8 54,-16 51,-30 45,-41 41,-46 36,-38 28,-25 20,-8 15,5 15,8 16,8 12,10 13,10 13,13 15,12 15,13 h -2 l -5,-3 v -2 z"
   id="path68"
   inkscape:connector-curvature="0"
   style="fill:#006600;stroke:none" />
         <path
   d="m 10477,13763 -21,13 -20,15 -23,18 -25,15 -21,16 -23,15 -17,15 -13,10 -15,3 -23,5 -23,8 -30,12 -31,16 -33,17 -33,18 -33,23 -36,23 -33,23 -30,25 -26,28 -25,28 -20,26 -13,28 -10,27 -13,72 -8,86 v 97 l 16,101 33,104 58,105 89,101 120,92 71,43 66,38 58,33 54,31 48,25 46,20 40,21 38,18 33,15 33,15 28,13 28,13 28,15 26,15 25,15 26,18 33,23 38,23 45,20 49,15 51,11 53,2 56,-10 53,-20 51,-33 43,-39 36,-45 28,-46 20,-48 13,-49 5,-43 -3,-38 -2,-38 2,-41 10,-48 13,-64 15,-78 21,-102 25,-127 28,-158 10,-81 v -74 l -7,-71 -16,-66 -20,-61 -25,-53 -31,-54 -33,-45 -35,-44 -39,-38 -35,-33 -38,-30 -36,-26 -33,-23 -30,-20 -26,-15 -25,-13 -28,-8 -33,-5 h -33 l -36,3 -35,2 -36,8 -35,8 -36,10 -33,13 -31,12 -28,10 -25,13 -23,13 -15,13 -13,10 -18,2 -20,3 -25,2 -28,5 -28,8 -26,5 -25,10 z"
   id="path70"
   inkscape:connector-curvature="0"
   style="fill:#ff1966;stroke:none" />
         <path
   d="m 10439,13814 -21,71 3,74 18,76 22,77 16,76 -3,74 -30,68 -66,66 h 55 l 54,-12 46,-26 43,-35 35,-41 31,-48 23,-54 20,-56 13,-58 5,-56 v -56 l -5,-51 -13,-45 -18,-39 -25,-28 -33,-20 -33,-13 -28,-7 -28,-3 h -23 l -18,8 -18,13 -12,20 z"
   id="path72"
   inkscape:connector-curvature="0"
   style="fill:#006600;stroke:none" />
         <path
   d="m 10512,13730 -51,3 -56,15 -61,31 -55,40 -54,49 -46,53 -30,53 -13,56 -10,51 -18,48 -23,41 -27,33 -34,26 -33,15 -33,7 -30,-5 33,11 33,5 h 33 l 36,-5 33,-11 33,-12 30,-18 33,-18 28,-20 28,-23 23,-23 23,-23 18,-23 17,-23 11,-20 7,-18 13,-38 15,-43 15,-43 21,-46 20,-43 23,-36 23,-28 z"
   id="path74"
   inkscape:connector-curvature="0"
   style="fill:#006600;stroke:none" />
         <path
   d="m 10456,13789 10,-23 13,-23 18,-20 23,-23 25,-20 26,-21 30,-20 31,-15 33,-16 33,-12 33,-10 33,-8 30,-5 h 31 l 30,2 26,8 50,15 51,5 46,-5 43,-12 36,-18 30,-23 21,-26 7,-30 -15,66 -33,59 -48,48 -59,43 -63,33 -61,23 -56,13 h -43 l -41,-5 -43,-6 -48,-2 -49,-3 h -46 l -40,5 -36,11 z"
   id="path76"
   inkscape:connector-curvature="0"
   style="fill:#006600;stroke:none" />
         <path
   d="m 10527,13753 49,5 45,-28 39,-50 33,-69 30,-79 26,-79 25,-76 23,-61 25,-48 26,-38 28,-28 33,-21 30,-12 33,-5 36,2 33,5 -33,-18 -36,-10 -38,-7 h -38 l -38,2 -38,10 -41,13 -36,15 -38,21 -35,23 -33,28 -31,27 -28,34 -25,33 -23,35 -18,36 -28,68 -23,61 -12,51 -3,43 5,39 15,30 26,25 z"
   id="path78"
   inkscape:connector-curvature="0"
   style="fill:#006600;stroke:none" />
         <path
   d="m 10497,13702 -15,-22 -21,-13 -25,-8 h -28 l -30,5 -31,8 -36,15 -35,15 -38,21 -36,20 -38,20 -36,21 -33,23 -33,17 -30,18 -28,16 -48,20 -46,13 -41,2 -35,-5 -33,-10 -28,-18 -26,-23 -23,-28 16,36 20,33 23,28 28,25 33,23 35,18 39,15 38,13 43,10 41,5 h 43 43 l 43,-5 41,-10 38,-13 38,-15 66,-33 56,-33 43,-31 33,-30 18,-31 10,-35 -2,-36 z"
   id="path80"
   inkscape:connector-curvature="0"
   style="fill:#006600;stroke:none" />
         <path
   d="m 10507,13738 -43,10 -56,-15 -61,-38 -63,-54 -59,-63 -48,-69 -36,-66 -13,-63 21,2 h 15 l 13,3 h 10 10 10 l 13,2 h 15 l 21,46 20,48 25,51 28,48 33,49 41,43 48,38 z"
   id="path82"
   inkscape:connector-curvature="0"
   style="fill:#006600;stroke:none" />
         <path
   d="m 10357,14536 -10,3 -10,-3 -13,-8 -13,-10 -12,-12 -13,-16 -10,-17 -10,-21 -16,-40 -5,-39 5,-28 13,-15 10,-2 11,2 12,8 13,7 13,13 12,18 10,18 11,20 15,41 5,35 -5,28 z"
   id="path84"
   inkscape:connector-curvature="0"
   style="fill:#000000;stroke:none" />
         <path
   d="m 10070,14470 -10,3 -10,-3 -10,-8 -13,-7 -13,-13 -13,-15 -10,-18 -10,-20 -15,-44 -5,-35 5,-28 13,-15 10,-3 10,3 10,5 13,10 12,13 13,15 10,18 11,20 15,41 5,38 -5,28 z"
   id="path86"
   inkscape:connector-curvature="0"
   style="fill:#000000;stroke:none" />
         <path
   d="m 10245,14831 -10,2 -10,-2 -10,-5 -13,-10 -13,-13 -12,-15 -10,-18 -11,-20 -15,-41 -5,-38 3,-28 15,-15 10,-3 10,3 10,7 13,8 13,13 13,15 10,18 10,20 15,43 5,36 -5,28 z"
   id="path88"
   inkscape:connector-curvature="0"
   style="fill:#000000;stroke:none" />
         <path
   d="m 10588,15004 -10,2 -10,-2 -10,-8 -13,-7 -12,-13 -13,-15 -10,-18 -10,-21 -16,-43 -5,-35 5,-28 13,-18 10,-3 10,3 13,8 13,10 12,12 13,16 10,17 10,21 13,40 5,39 -5,28 z"
   id="path90"
   inkscape:connector-curvature="0"
   style="fill:#000000;stroke:none" />
         <path
   d="m 10649,14729 -10,3 -10,-3 -13,-5 -10,-10 -12,-13 -13,-15 -10,-18 -11,-20 -15,-41 -5,-38 5,-28 13,-15 10,-3 10,3 10,5 13,10 10,13 13,15 10,18 10,20 16,41 7,38 -5,28 z"
   id="path92"
   inkscape:connector-curvature="0"
   style="fill:#000000;stroke:none" />
         <path
   d="m 10738,14432 -10,2 -10,-2 -10,-5 -13,-10 -13,-13 -12,-15 -10,-18 -11,-20 -15,-41 -5,-38 3,-28 12,-15 11,-3 10,3 12,5 13,10 13,13 12,15 11,18 10,20 15,41 5,38 -5,28 z"
   id="path94"
   inkscape:connector-curvature="0"
   style="fill:#000000;stroke:none" />
         <path
   d="m 10949,15093 -10,2 -10,-2 -13,-5 -12,-11 -13,-12 -13,-15 -10,-16 -10,-20 -15,-41 -6,-38 6,-28 12,-15 10,-3 11,3 10,8 12,7 13,13 13,15 10,18 10,20 15,41 8,36 -5,27 z"
   id="path96"
   inkscape:connector-curvature="0"
   style="fill:#000000;stroke:none" />
         <path
   d="m 11097,14701 -10,3 -11,-3 -12,-7 -13,-8 -13,-13 -12,-17 -11,-18 -10,-21 -15,-40 -5,-36 5,-28 13,-18 10,-2 10,2 13,8 12,8 13,12 13,18 10,18 10,20 15,41 5,36 -5,28 z"
   id="path98"
   inkscape:connector-curvature="0"
   style="fill:#000000;stroke:none" />
         <path
   d="m 11267,15184 -10,3 -10,-3 -13,-5 -13,-10 -13,-13 -12,-15 -10,-18 -11,-20 -15,-41 -5,-35 5,-28 13,-16 10,-2 10,2 13,8 13,8 12,12 13,16 10,15 10,20 16,41 5,38 -5,28 z"
   id="path100"
   inkscape:connector-curvature="0"
   style="fill:#000000;stroke:none" />
         <path
   d="m 11074,14272 -10,2 -11,-2 -10,-8 -12,-10 -13,-13 -13,-15 -10,-18 -10,-20 -15,-41 -5,-38 5,-28 12,-15 10,-3 11,3 10,8 13,7 12,13 13,15 10,18 10,20 16,43 5,36 -5,28 z"
   id="path102"
   inkscape:connector-curvature="0"
   style="fill:#000000;stroke:none" />
         <path
   d="m 11399,14544 -10,2 -10,-2 -13,-5 -13,-11 -12,-12 -13,-15 -10,-18 -10,-21 -16,-40 -5,-38 5,-28 13,-16 10,-2 10,2 13,5 13,11 12,12 13,16 10,17 11,21 15,40 5,39 -5,27 z"
   id="path104"
   inkscape:connector-curvature="0"
   style="fill:#000000;stroke:none" />
         <path
   d="m 11323,14874 -10,3 -10,-3 -11,-7 -12,-8 -13,-13 -13,-15 -10,-18 -10,-20 -15,-41 -5,-38 5,-28 12,-15 11,-3 10,3 10,5 13,10 12,13 13,15 10,18 10,20 16,41 5,38 -5,28 z"
   id="path106"
   inkscape:connector-curvature="0"
   style="fill:#000000;stroke:none" />
         <path
   d="m 11343,14135 -10,2 -10,-2 -13,-8 -13,-10 -12,-13 -13,-15 -10,-18 -10,-20 -16,-41 -5,-38 5,-28 13,-15 10,-3 10,3 13,7 13,8 13,13 12,17 10,18 11,21 15,40 5,36 -5,28 z"
   id="path108"
   inkscape:connector-curvature="0"
   style="fill:#000000;stroke:none" />
         <path
   d="m 11130,13959 -10,3 -11,-3 -10,-7 -12,-8 -13,-13 -13,-15 -10,-18 -10,-20 -15,-43 -6,-36 6,-28 12,-15 10,-3 11,3 10,5 12,10 13,13 13,15 10,18 10,20 15,41 5,38 -5,28 z"
   id="path110"
   inkscape:connector-curvature="0"
   style="fill:#000000;stroke:none" />
         <path
   d="m 10812,14010 -10,3 -10,-3 -10,-8 -13,-10 -13,-12 -13,-16 -10,-18 -10,-20 -15,-41 -5,-38 5,-28 13,-15 10,-2 10,2 10,8 13,7 12,13 13,18 10,18 11,20 15,41 5,35 -3,28 z"
   id="path112"
   inkscape:connector-curvature="0"
   style="fill:#000000;stroke:none" />
         <path
   d="m 10339,14495 h -12 l -16,-10 -15,-18 -12,-22 -8,-26 -3,-20 3,-18 8,-8 h 12 l 13,8 15,18 13,23 7,25 6,20 -3,18 z"
   id="path114"
   inkscape:connector-curvature="0"
   style="fill:#ffffff;stroke:none" />
         <path
   d="m 10052,14429 h -12 l -13,-10 -15,-15 -13,-23 -8,-25 -5,-21 3,-17 7,-11 h 13 l 15,11 13,17 13,23 10,26 2,20 -2,18 z"
   id="path116"
   inkscape:connector-curvature="0"
   style="fill:#ffffff;stroke:none" />
         <path
   d="m 10228,14790 h -13 l -13,-10 -15,-15 -13,-23 -10,-25 -2,-21 2,-18 8,-7 h 12 l 16,7 12,18 13,23 8,26 5,20 -3,18 z"
   id="path118"
   inkscape:connector-curvature="0"
   style="fill:#ffffff;stroke:none" />
         <path
   d="m 10571,14963 h -13 l -13,-10 -15,-15 -13,-23 -7,-26 -3,-22 3,-16 7,-10 h 13 l 13,8 15,18 13,22 7,26 5,23 -5,15 z"
   id="path120"
   inkscape:connector-curvature="0"
   style="fill:#ffffff;stroke:none" />
         <path
   d="m 10629,14689 h -13 l -12,-11 -16,-15 -10,-23 -7,-25 -5,-20 2,-18 8,-10 h 10 l 15,10 13,18 15,22 8,26 5,20 -5,18 z"
   id="path122"
   inkscape:connector-curvature="0"
   style="fill:#ffffff;stroke:none" />
         <path
   d="m 10721,14391 h -13 l -13,-10 -15,-15 -13,-23 -10,-25 -2,-21 2,-18 8,-10 h 12 l 16,10 12,18 13,23 8,25 5,21 -3,18 z"
   id="path124"
   inkscape:connector-curvature="0"
   style="fill:#ffffff;stroke:none" />
         <path
   d="m 10929,15052 h -13 l -12,-8 -16,-17 -12,-21 -8,-25 -5,-20 2,-18 8,-8 h 13 l 15,8 13,18 15,22 8,23 5,23 -5,15 z"
   id="path126"
   inkscape:connector-curvature="0"
   style="fill:#ffffff;stroke:none" />
         <path
   d="m 11079,14661 h -13 l -15,-11 -15,-17 -13,-23 -8,-26 -2,-20 2,-18 8,-7 h 13 l 12,7 16,18 12,23 8,25 5,21 -2,17 z"
   id="path128"
   inkscape:connector-curvature="0"
   style="fill:#ffffff;stroke:none" />
         <path
   d="m 11247,15144 h -13 l -13,-11 -15,-15 -13,-23 -7,-25 -3,-20 3,-18 7,-8 h 13 l 13,10 15,16 13,22 7,26 5,20 -5,18 z"
   id="path130"
   inkscape:connector-curvature="0"
   style="fill:#ffffff;stroke:none" />
         <path
   d="m 11056,14229 h -13 l -12,-11 -16,-15 -12,-23 -8,-25 -5,-20 2,-18 8,-8 h 13 l 15,8 13,18 12,22 11,26 2,20 -2,18 z"
   id="path132"
   inkscape:connector-curvature="0"
   style="fill:#ffffff;stroke:none" />
         <path
   d="m 11379,14503 h -13 l -13,-10 -15,-15 -13,-23 -7,-26 -3,-20 3,-18 7,-10 h 13 l 13,10 15,18 13,23 7,25 5,21 -5,17 z"
   id="path134"
   inkscape:connector-curvature="0"
   style="fill:#ffffff;stroke:none" />
         <path
   d="m 11305,14833 h -13 l -12,-10 -16,-15 -12,-23 -8,-25 -5,-21 3,-17 7,-11 h 13 l 15,11 13,17 13,23 10,26 2,20 -2,18 z"
   id="path136"
   inkscape:connector-curvature="0"
   style="fill:#ffffff;stroke:none" />
         <path
   d="m 11323,14094 h -13 l -13,-10 -15,-18 -13,-23 -7,-25 -3,-21 3,-17 7,-8 h 13 l 13,8 15,17 13,23 7,26 6,20 -6,18 z"
   id="path138"
   inkscape:connector-curvature="0"
   style="fill:#ffffff;stroke:none" />
         <path
   d="m 11112,13919 h -13 l -12,-11 -16,-15 -12,-23 -8,-25 -5,-21 2,-17 8,-10 h 13 l 15,10 13,15 12,23 11,25 2,23 -2,15 z"
   id="path140"
   inkscape:connector-curvature="0"
   style="fill:#ffffff;stroke:none" />
         <path
   d="m 10794,13969 h -12 l -13,-10 -15,-18 -13,-22 -8,-26 -5,-20 3,-18 7,-8 h 13 l 15,8 13,18 13,23 10,25 2,20 -2,18 z"
   id="path142"
   inkscape:connector-curvature="0"
   style="fill:#ffffff;stroke:none" />
         <path
   d="m 9414,14722 -22,-3 -26,-5 -28,-3 -30,-2 -28,-5 -26,-3 h -20 l -18,-2 -12,-10 -21,-8 -23,-10 -30,-10 -33,-11 -36,-10 -38,-7 -41,-5 -40,-5 -38,-6 h -41 -38 l -36,6 -33,7 -28,10 -25,16 -28,20 -31,25 -30,26 -33,30 -31,36 -33,38 -30,41 -28,43 -23,51 -23,50 -15,56 -10,61 -5,64 2,69 10,71 18,76 48,152 44,125 38,99 33,79 30,66 26,58 20,59 15,58 10,38 13,46 18,46 25,46 33,43 39,36 45,27 54,16 61,5 61,-3 56,-10 50,-15 49,-20 38,-26 33,-28 25,-30 10,-16 13,-12 15,-16 16,-12 17,-16 23,-17 23,-18 28,-20 31,-21 35,-25 38,-31 43,-33 49,-35 56,-41 58,-48 66,-51 112,-109 74,-117 43,-117 18,-117 v -107 l -13,-99 -20,-81 -18,-64 -28,-51 -43,-45 -56,-44 -64,-35 -66,-31 -61,-20 -51,-13 -35,-2 -15,-10 -18,-13 -23,-13 -23,-15 -25,-15 -26,-13 -23,-10 z"
   id="path144"
   inkscape:connector-curvature="0"
   style="fill:#ff1966;stroke:none" />
         <path
   d="m 8812,15212 -15,-13 -8,-27 v -36 l 10,-43 8,-23 8,-18 10,-18 10,-12 13,-11 10,-7 10,-3 h 10 l 15,13 8,28 v 35 l -10,44 -8,20 -7,20 -10,18 -11,13 -12,10 -10,8 -11,5 z"
   id="path146"
   inkscape:connector-curvature="0"
   style="fill:#000000;stroke:none" />
         <path
   d="m 8642,14976 -15,-13 -8,-28 v -35 l 10,-44 8,-23 7,-17 11,-18 10,-15 12,-11 11,-7 10,-3 h 10 l 15,16 8,25 v 38 l -10,43 -8,21 -8,20 -10,18 -10,12 -13,11 -10,7 -10,5 z"
   id="path148"
   inkscape:connector-curvature="0"
   style="fill:#000000;stroke:none" />
         <path
   d="m 8530,15360 -15,-13 -8,-28 v -38 l 10,-43 8,-21 10,-20 10,-15 11,-16 12,-10 10,-7 11,-3 h 10 l 15,13 8,28 -3,38 -10,43 -8,20 -7,21 -11,15 -10,15 -12,10 -11,8 -10,3 z"
   id="path150"
   inkscape:connector-curvature="0"
   style="fill:#000000;stroke:none" />
         <path
   d="m 8672,15718 -15,-15 -7,-28 v -36 l 10,-43 7,-20 10,-21 11,-15 10,-15 13,-10 10,-8 10,-3 h 10 l 15,13 8,28 -3,38 -10,43 -7,21 -8,20 -10,15 -10,16 -13,10 -10,7 -10,3 z"
   id="path152"
   inkscape:connector-curvature="0"
   style="fill:#000000;stroke:none" />
         <path
   d="m 8901,15555 -15,-15 -8,-28 v -36 l 10,-43 8,-20 8,-20 10,-18 10,-13 13,-13 10,-7 10,-3 h 10 l 15,16 8,25 v 38 l -10,43 -8,21 -7,20 -11,18 -10,12 -12,13 -11,8 -10,2 z"
   id="path154"
   inkscape:connector-curvature="0"
   style="fill:#000000;stroke:none" />
         <path
   d="m 9165,15393 -15,-13 -7,-28 v -38 l 10,-43 7,-21 10,-20 11,-15 10,-16 13,-10 10,-7 10,-3 h 10 l 15,13 8,28 v 38 l -10,43 -8,20 -10,21 -10,15 -10,15 -13,10 -10,8 -10,3 z"
   id="path156"
   inkscape:connector-curvature="0"
   style="fill:#000000;stroke:none" />
         <path
   d="m 8878,16028 -15,-15 -8,-28 v -36 l 11,-43 7,-20 10,-21 10,-17 11,-13 12,-13 11,-7 10,-3 h 10 l 15,15 8,28 v 36 l -10,43 -8,23 -10,18 -10,17 -11,16 -12,10 -10,7 -11,3 z"
   id="path158"
   inkscape:connector-curvature="0"
   style="fill:#000000;stroke:none" />
         <path
   d="m 9254,15832 -15,-15 -8,-28 v -35 l 11,-44 7,-20 8,-20 10,-18 10,-13 13,-13 10,-7 10,-3 h 10 l 16,16 7,25 v 38 l -10,43 -8,23 -7,18 -10,18 -10,15 -13,10 -10,8 -11,2 z"
   id="path160"
   inkscape:connector-curvature="0"
   style="fill:#000000;stroke:none" />
         <path
   d="m 9056,16308 -15,-13 -8,-28 v -38 l 10,-43 8,-21 8,-20 10,-15 10,-16 13,-10 10,-7 10,-3 h 10 l 15,13 8,28 v 38 l -10,43 -8,20 -7,21 -11,15 -10,15 -12,10 -11,8 -10,3 z"
   id="path162"
   inkscape:connector-curvature="0"
   style="fill:#000000;stroke:none" />
         <path
   d="m 9445,15276 -15,-16 -8,-27 3,-36 10,-43 7,-23 8,-18 10,-18 10,-15 13,-10 10,-8 10,-2 h 11 l 15,15 7,25 v 38 l -10,44 -7,20 -11,20 -10,18 -10,13 -13,13 -10,7 -10,3 z"
   id="path164"
   inkscape:connector-curvature="0"
   style="fill:#000000;stroke:none" />
         <path
   d="m 9727,15131 -15,-13 -8,-28 v -35 l 10,-44 8,-20 8,-20 10,-16 10,-15 13,-10 10,-8 10,-2 h 10 l 15,13 8,28 v 35 l -10,43 -8,21 -7,20 -11,15 -10,16 -13,10 -10,7 -10,3 z"
   id="path166"
   inkscape:connector-curvature="0"
   style="fill:#000000;stroke:none" />
         <path
   d="m 9775,15461 -15,-12 -8,-28 v -39 l 11,-43 7,-20 10,-20 11,-16 10,-15 12,-10 11,-8 10,-2 h 10 l 15,12 8,28 v 39 l -10,43 -8,20 -10,20 -10,16 -11,15 -12,10 -10,8 -11,2 z"
   id="path168"
   inkscape:connector-curvature="0"
   style="fill:#000000;stroke:none" />
         <path
   d="m 9445,15548 -15,-13 -8,-28 3,-36 10,-43 7,-23 8,-17 10,-18 10,-15 13,-11 10,-7 10,-3 h 11 l 15,15 7,26 v 38 l -10,43 -7,20 -11,21 -10,18 -10,12 -13,10 -10,8 -10,5 z"
   id="path170"
   inkscape:connector-curvature="0"
   style="fill:#000000;stroke:none" />
         <path
   d="m 9582,15830 -15,-15 -8,-28 v -36 l 10,-43 8,-21 10,-20 10,-18 11,-12 12,-13 10,-8 11,-2 h 10 l 15,15 8,25 v 39 l -11,43 -7,20 -10,20 -10,18 -11,13 -12,13 -11,7 -10,3 z"
   id="path172"
   inkscape:connector-curvature="0"
   style="fill:#000000;stroke:none" />
         <path
   d="m 9384,16066 -15,-15 -8,-28 v -36 l 10,-43 8,-20 7,-21 11,-17 10,-13 13,-13 10,-7 10,-3 h 10 l 15,15 8,28 v 36 l -10,43 -8,23 -8,18 -10,18 -10,15 -13,10 -10,8 -10,2 z"
   id="path174"
   inkscape:connector-curvature="0"
   style="fill:#000000;stroke:none" />
         <path
   d="m 8825,15172 -10,-8 -3,-18 v -23 l 5,-25 10,-23 13,-20 13,-11 13,-2 7,8 5,17 v 23 l -7,26 -11,22 -10,21 -12,10 z"
   id="path176"
   inkscape:connector-curvature="0"
   style="fill:#ffffff;stroke:none" />
         <path
   d="m 8655,14935 -11,-7 -2,-18 v -23 l 5,-26 10,-22 13,-21 13,-10 12,-2 10,7 3,18 v 23 l -5,25 -10,23 -13,20 -13,11 z"
   id="path178"
   inkscape:connector-curvature="0"
   style="fill:#ffffff;stroke:none" />
         <path
   d="m 8543,15316 -10,-7 -3,-15 v -23 l 5,-26 10,-25 13,-18 13,-10 12,-3 11,8 2,18 v 23 l -5,25 -10,23 -13,18 -12,12 z"
   id="path180"
   inkscape:connector-curvature="0"
   style="fill:#ffffff;stroke:none" />
         <path
   d="m 8685,15675 -10,-8 -3,-18 v -20 l 5,-25 11,-26 12,-18 13,-10 13,-2 10,7 2,18 v 20 l -5,26 -10,25 -12,18 -13,10 z"
   id="path182"
   inkscape:connector-curvature="0"
   style="fill:#ffffff;stroke:none" />
         <path
   d="m 8914,15512 -10,-8 -3,-17 v -23 l 5,-26 10,-22 13,-18 13,-10 12,-3 8,8 5,15 v 23 l -7,25 -11,26 -10,17 -12,11 z"
   id="path184"
   inkscape:connector-curvature="0"
   style="fill:#ffffff;stroke:none" />
         <path
   d="m 9178,15349 -10,-7 -3,-18 v -20 l 8,-26 10,-25 10,-18 13,-10 13,-3 10,8 2,18 v 23 l -5,25 -10,23 -12,18 -13,10 z"
   id="path186"
   inkscape:connector-curvature="0"
   style="fill:#ffffff;stroke:none" />
         <path
   d="m 8893,15985 -10,-8 -5,-18 3,-22 5,-26 10,-23 10,-18 13,-10 13,-2 10,7 2,16 v 22 l -5,26 -10,25 -13,18 -12,10 z"
   id="path188"
   inkscape:connector-curvature="0"
   style="fill:#ffffff;stroke:none" />
         <path
   d="m 9267,15789 -10,-8 -3,-17 v -23 l 5,-26 11,-22 12,-18 13,-10 13,-3 10,8 2,15 v 23 l -7,25 -10,26 -11,17 -12,11 z"
   id="path190"
   inkscape:connector-curvature="0"
   style="fill:#ffffff;stroke:none" />
         <path
   d="m 9069,16264 -10,-7 -3,-18 v -20 l 5,-26 10,-25 13,-18 13,-10 12,-3 11,8 2,18 v 23 l -5,25 -10,23 -13,18 -12,10 z"
   id="path192"
   inkscape:connector-curvature="0"
   style="fill:#ffffff;stroke:none" />
         <path
   d="m 9460,15233 -10,-8 -5,-18 2,-23 6,-25 10,-23 10,-20 13,-11 h 12 l 10,8 6,15 -3,23 -5,26 -10,25 -10,18 -13,10 z"
   id="path194"
   inkscape:connector-curvature="0"
   style="fill:#ffffff;stroke:none" />
         <path
   d="m 9740,15088 -10,-8 -3,-15 v -21 l 5,-25 10,-25 13,-18 13,-10 12,-3 11,8 2,18 v 20 l -8,25 -10,23 -10,18 -13,13 z"
   id="path196"
   inkscape:connector-curvature="0"
   style="fill:#ffffff;stroke:none" />
         <path
   d="m 9788,15418 -8,-8 -5,-17 3,-21 5,-25 10,-26 10,-17 13,-10 13,-3 10,8 2,17 v 23 l -5,26 -10,23 -13,17 -12,11 z"
   id="path198"
   inkscape:connector-curvature="0"
   style="fill:#ffffff;stroke:none" />
         <path
   d="m 9460,15507 -10,-8 -5,-17 2,-23 6,-26 10,-23 10,-20 13,-10 12,-3 10,8 6,18 -3,23 -5,25 -10,23 -10,20 -13,10 z"
   id="path200"
   inkscape:connector-curvature="0"
   style="fill:#ffffff;stroke:none" />
         <path
   d="m 9597,15787 -10,-8 -5,-18 3,-23 5,-25 10,-23 10,-18 13,-10 13,-3 10,8 2,15 v 23 l -5,26 -10,25 -13,18 -12,10 z"
   id="path202"
   inkscape:connector-curvature="0"
   style="fill:#ffffff;stroke:none" />
         <path
   d="m 9397,16023 -11,-8 -2,-17 v -23 l 5,-26 10,-23 13,-17 13,-11 12,-2 10,7 3,16 v 23 l -5,25 -10,25 -13,18 -13,10 z"
   id="path204"
   inkscape:connector-curvature="0"
   style="fill:#ffffff;stroke:none" />
         <path
   d="m 9353,14734 -33,16 -28,22 -25,26 -23,30 -18,33 -17,36 -18,36 -18,35 -20,36 -21,30 -23,31 -27,23 -31,20 -38,13 -43,5 -51,-3 43,38 48,26 51,12 54,3 55,-8 56,-15 54,-23 51,-28 48,-35 43,-36 36,-41 30,-43 23,-40 10,-44 v -38 l -10,-35 -18,-31 -15,-25 -18,-21 -20,-15 -18,-7 h -20 l -23,5 z"
   id="path206"
   inkscape:connector-curvature="0"
   style="fill:#006600;stroke:none" />
         <path
   d="m 9463,14722 -18,-18 -20,-15 -26,-13 -28,-13 -30,-10 -33,-8 -36,-5 -35,-5 h -36 -36 l -33,5 -35,5 -31,11 -28,10 -25,15 -23,18 -41,33 -43,23 -46,15 -43,5 -40,-3 -39,-10 -27,-15 -21,-25 18,30 20,26 26,20 30,20 31,15 35,13 33,8 36,7 35,3 36,3 h 33 l 33,-3 31,-5 25,-5 23,-8 18,-10 35,-20 38,-21 44,-23 43,-20 43,-18 41,-10 35,-5 z"
   id="path208"
   inkscape:connector-curvature="0"
   style="fill:#006600;stroke:none" />
         <path
   d="m 9458,14747 15,23 20,13 23,7 28,3 31,-3 33,-10 35,-13 38,-15 36,-18 38,-20 38,-20 36,-21 35,-20 33,-20 31,-16 28,-15 51,-20 43,-10 40,-3 36,8 33,12 28,18 25,23 21,28 -13,-35 -20,-34 -23,-27 -28,-28 -33,-23 -33,-18 -38,-18 -38,-13 -44,-10 -40,-5 -44,-2 h -43 l -43,5 -41,7 -40,10 -38,16 -66,33 -56,30 -44,31 -33,30 -20,31 -10,33 v 35 z"
   id="path210"
   inkscape:connector-curvature="0"
   style="fill:#006600;stroke:none" />
         <path
   d="m 9470,14689 3,-26 -5,-25 -13,-21 -20,-17 -26,-18 -30,-15 -36,-13 -35,-13 -41,-10 -41,-10 -43,-8 -40,-7 -41,-8 -36,-8 -35,-7 -31,-8 -51,-18 -40,-20 -33,-23 -23,-28 -15,-30 -11,-33 -5,-33 3,-36 -20,74 2,73 23,77 41,73 50,66 67,56 71,46 76,31 74,20 61,13 53,5 43,-3 36,-10 28,-18 23,-30 z"
   id="path212"
   inkscape:connector-curvature="0"
   style="fill:#006600;stroke:none" />
         <path
   d="m 9455,14722 -38,-21 -31,-51 -22,-68 -11,-81 -2,-87 8,-81 20,-74 33,-56 23,26 18,15 12,15 21,20 -16,46 -15,51 -15,53 -13,56 -7,59 v 61 l 12,58 z"
   id="path214"
   inkscape:connector-curvature="0"
   style="fill:#006600;stroke:none" />
         <path
   d="m 9384,14727 20,-10 26,-8 28,-5 30,-3 33,3 36,2 33,5 35,8 33,13 33,13 33,12 28,18 28,18 23,20 21,23 15,23 28,46 33,35 38,28 41,18 38,13 38,2 33,-7 25,-16 -25,23 -28,15 -33,13 -33,8 -33,5 h -36 l -35,-3 -36,-5 -36,-7 -33,-11 -33,-10 -28,-12 -28,-13 -22,-15 -18,-13 -15,-15 -26,-31 -30,-33 -33,-35 -36,-33 -36,-31 -33,-25 -33,-16 z"
   id="path216"
   inkscape:connector-curvature="0"
   style="fill:#006600;stroke:none" />
         <path
   d="m 9839,15675 -10,40 -13,46 -13,43 -7,33 -21,26 -23,43 -22,56 -23,63 -18,67 -8,66 v 61 l 15,48 16,25 15,28 20,28 23,31 26,30 28,28 30,31 36,25 38,26 40,22 46,21 48,12 54,13 58,5 h 64 l 66,-7 68,-11 64,-10 58,-10 51,-10 46,-8 41,-10 38,-7 33,-8 30,-8 28,-7 28,-5 26,-5 25,-6 25,-5 26,-2 25,-3 33,-2 38,-8 41,-10 41,-18 38,-20 35,-28 33,-36 23,-43 16,-48 5,-51 v -46 l -11,-46 -12,-43 -18,-38 -20,-30 -23,-26 -21,-23 -22,-28 -21,-38 -25,-48 -33,-61 -43,-76 -54,-97 -68,-117 -38,-58 -41,-49 -43,-40 -44,-36 -48,-28 -46,-23 -48,-15 -46,-13 -45,-7 -46,-5 -43,-3 h -41 l -38,3 -33,5 -31,2 -25,5 -46,18 -45,31 -41,43 -38,48 -33,51 -26,48 -15,41 -8,30 -10,11 -12,15 -16,18 -15,17 -18,21 -12,18 -11,20 z"
   id="path218"
   inkscape:connector-curvature="0"
   style="fill:#ff1966;stroke:none" />
         <path
   d="m 9844,15728 23,56 43,46 53,40 56,39 51,40 41,49 17,63 -7,79 38,-31 25,-38 18,-43 8,-43 v -48 l -5,-49 -13,-48 -20,-46 -23,-46 -26,-40 -30,-36 -33,-30 -33,-23 -33,-15 -33,-6 -31,6 -28,12 -23,10 -20,13 -13,15 -10,16 -2,15 2,20 z"
   id="path220"
   inkscape:connector-curvature="0"
   style="fill:#006600;stroke:none" />
         <path
   d="m 9844,15634 -31,28 -28,43 -22,51 -16,59 -10,61 v 55 l 10,54 23,43 23,38 13,41 7,40 v 39 l -7,33 -13,28 -18,22 -23,13 51,-25 41,-41 30,-53 23,-56 13,-59 5,-56 -3,-48 -7,-35 -13,-31 -13,-36 -15,-40 -10,-38 -10,-38 -5,-36 v -31 z"
   id="path222"
   inkscape:connector-curvature="0"
   style="fill:#006600;stroke:none" />
         <path
   d="m 9841,15703 -10,-44 3,-50 10,-56 20,-56 28,-54 33,-48 38,-38 44,-23 40,-18 36,-25 28,-28 20,-30 15,-34 5,-30 -2,-28 -10,-23 28,51 7,56 -2,58 -16,61 -22,54 -28,51 -31,35 -28,26 -28,17 -30,23 -33,23 -33,25 -31,28 -23,26 -17,25 z"
   id="path224"
   inkscape:connector-curvature="0"
   style="fill:#006600;stroke:none" />
         <path
   d="m 9818,15624 -43,-3 -35,23 -36,43 -28,56 -28,66 -23,69 -23,64 -20,53 -20,41 -23,30 -25,26 -26,15 -28,10 -28,5 -28,-2 -30,-6 28,16 30,10 33,5 33,2 33,-5 33,-5 33,-10 33,-15 31,-18 30,-18 31,-23 25,-25 26,-25 20,-28 20,-31 16,-30 25,-59 18,-51 13,-43 2,-38 -5,-30 -13,-26 -20,-23 z"
   id="path226"
   inkscape:connector-curvature="0"
   style="fill:#006600;stroke:none" />
         <path
   d="m 9844,15642 -8,15 -15,15 -20,10 -23,11 -31,5 -30,2 -36,3 -35,-3 -36,-2 -35,-5 -36,-8 -33,-10 -33,-13 -28,-15 -23,-15 -20,-18 25,-18 15,-10 16,-10 17,-13 39,18 40,20 43,18 46,18 48,12 49,8 51,-3 z"
   id="path228"
   inkscape:connector-curvature="0"
   style="fill:#006600;stroke:none" />
         <path
   d="m 9867,15642 35,-26 13,-43 -3,-53 -15,-64 -23,-68 -25,-67 -25,-63 -18,-53 -10,-44 -5,-38 2,-35 10,-28 13,-26 20,-20 23,-18 26,-15 -61,20 -54,36 -43,51 -36,58 -22,69 -11,71 v 74 l 13,68 18,61 20,48 21,41 20,31 23,23 28,10 30,5 z"
   id="path230"
   inkscape:connector-curvature="0"
   style="fill:#006600;stroke:none" />
         <path
   d="m 10184,16242 -5,7 -10,3 -10,2 h -13 -15 l -18,-5 -15,-5 -18,-8 -18,-7 -15,-10 -13,-11 -10,-10 -7,-10 -5,-10 -3,-10 3,-8 5,-7 7,-3 13,-5 h 13 l 15,2 15,3 18,5 18,8 15,10 15,10 13,10 10,10 10,11 5,10 v 10 z"
   id="path232"
   inkscape:connector-curvature="0"
   style="fill:#000000;stroke:none" />
         <path
   d="m 9961,16356 -5,8 -8,2 -13,3 h -12 -16 l -15,-5 -18,-6 -17,-7 -16,-10 -15,-8 -13,-10 -10,-10 -10,-10 -5,-11 v -10 -7 l 5,-8 10,-3 10,-5 h 13 l 15,3 18,2 15,5 18,8 18,10 15,10 13,11 10,10 8,10 5,10 2,10 z"
   id="path234"
   inkscape:connector-curvature="0"
   style="fill:#000000;stroke:none" />
         <path
   d="m 10273,16496 -5,7 -7,3 -13,2 h -13 -15 l -15,-5 -18,-5 -18,-7 -18,-11 -15,-7 -13,-10 -10,-11 -7,-10 -5,-10 -3,-10 3,-8 5,-7 7,-3 13,-5 h 13 l 15,3 15,2 18,5 18,8 18,10 15,10 12,10 11,11 7,10 5,10 3,10 z"
   id="path236"
   inkscape:connector-curvature="0"
   style="fill:#000000;stroke:none" />
         <path
   d="m 10588,16419 -5,8 -7,3 -10,2 h -13 -15 l -16,-5 -17,-5 -18,-8 -18,-10 -15,-10 -13,-10 -10,-10 -8,-10 -5,-11 -2,-10 2,-7 5,-8 8,-3 13,-2 h 12 16 l 15,5 18,5 17,8 18,10 15,10 13,10 10,10 8,10 2,11 3,10 z"
   id="path238"
   inkscape:connector-curvature="0"
   style="fill:#000000;stroke:none" />
         <path
   d="m 10482,16208 -5,8 -11,3 -10,2 h -12 -16 l -17,-5 -16,-5 -17,-8 -18,-10 -16,-10 -12,-10 -10,-10 -8,-10 -5,-11 -3,-10 3,-7 5,-8 8,-3 12,-2 h 13 15 l 16,5 17,5 18,8 15,10 16,10 12,10 10,10 11,11 5,10 v 10 z"
   id="path240"
   inkscape:connector-curvature="0"
   style="fill:#000000;stroke:none" />
         <path
   d="m 10378,15964 -6,8 -7,3 -13,2 h -13 -15 l -15,-5 -18,-5 -18,-8 -17,-7 -16,-10 -12,-11 -11,-10 -7,-10 -5,-10 -3,-10 3,-8 5,-7 7,-3 13,-5 h 13 l 15,2 15,3 18,5 18,8 15,10 15,10 16,10 10,10 7,11 6,10 2,10 z"
   id="path242"
   inkscape:connector-curvature="0"
   style="fill:#000000;stroke:none" />
         <path
   d="m 10873,16282 -5,8 -8,2 -12,3 h -13 -15 l -16,-5 -17,-5 -18,-8 -15,-10 -16,-8 -12,-10 -11,-10 -10,-10 -5,-10 v -11 -7 l 5,-8 10,-2 11,-5 h 12 l 16,2 17,3 16,5 17,7 18,11 15,10 13,10 10,10 8,10 5,10 3,11 z"
   id="path244"
   inkscape:connector-curvature="0"
   style="fill:#000000;stroke:none" />
         <path
   d="m 10754,15944 -5,8 -8,2 -13,3 h -13 -15 l -15,-5 -18,-5 -18,-8 -17,-10 -16,-10 -12,-10 -10,-11 -8,-10 -3,-10 -2,-10 2,-8 5,-7 8,-3 10,-2 h 13 15 l 15,5 18,5 18,7 18,11 15,10 13,10 10,10 8,10 5,10 2,11 z"
   id="path246"
   inkscape:connector-curvature="0"
   style="fill:#000000;stroke:none" />
         <path
   d="m 11130,16168 -5,7 -8,3 -10,3 h -13 -15 l -18,-6 -15,-5 -18,-7 -18,-10 -15,-8 -13,-10 -10,-13 -7,-10 -6,-10 -2,-8 2,-10 6,-8 7,-2 10,-3 h 13 15 l 18,5 15,5 18,8 18,10 15,10 13,11 10,10 8,10 5,10 2,10 z"
   id="path248"
   inkscape:connector-curvature="0"
   style="fill:#000000;stroke:none" />
         <path
   d="m 10500,15728 -6,8 -7,2 -13,5 h -13 l -15,-2 -15,-3 -18,-5 -18,-7 -17,-11 -16,-10 -12,-10 -11,-10 -7,-10 -5,-10 -3,-11 3,-7 5,-8 7,-2 13,-3 h 13 15 l 15,5 18,5 18,8 18,10 15,8 13,10 10,10 7,10 6,10 2,10 z"
   id="path250"
   inkscape:connector-curvature="0"
   style="fill:#000000;stroke:none" />
         <path
   d="m 10863,15728 -5,8 -8,2 -10,3 h -13 -15 l -18,-5 -15,-5 -18,-8 -18,-10 -15,-10 -13,-10 -10,-11 -7,-10 -5,-10 -3,-10 3,-8 5,-7 7,-3 10,-2 h 13 15 l 18,5 15,5 18,7 18,10 15,11 13,10 10,10 8,10 5,10 2,10 z"
   id="path252"
   inkscape:connector-curvature="0"
   style="fill:#000000;stroke:none" />
         <path
   d="m 10591,15459 -5,7 -5,3 -10,2 h -13 -15 l -18,-5 -15,-5 -18,-7 -18,-11 -15,-10 -13,-10 -10,-10 -8,-10 -5,-10 -2,-11 2,-7 5,-8 8,-2 10,-3 h 13 15 l 18,5 15,5 18,8 18,10 15,10 13,10 10,11 7,10 3,10 3,10 z"
   id="path254"
   inkscape:connector-curvature="0"
   style="fill:#000000;stroke:none" />
         <path
   d="m 10339,15449 -5,7 -7,3 -13,2 h -13 -15 l -15,-5 -18,-5 -18,-8 -18,-10 -15,-7 -13,-10 -10,-11 -7,-10 -5,-10 -3,-10 3,-8 5,-7 7,-3 13,-5 h 13 l 15,3 15,2 18,5 18,8 18,10 15,10 13,10 10,10 7,11 5,10 3,10 z"
   id="path256"
   inkscape:connector-curvature="0"
   style="fill:#000000;stroke:none" />
         <path
   d="m 10266,15626 -5,8 -11,3 -10,2 h -12 -16 l -17,-5 -16,-5 -17,-8 -18,-10 -16,-10 -12,-10 -10,-10 -8,-10 -5,-11 -3,-10 3,-7 5,-8 8,-3 12,-2 h 13 15 l 16,5 17,5 18,8 15,10 16,10 12,10 10,10 11,10 5,11 v 10 z"
   id="path258"
   inkscape:connector-curvature="0"
   style="fill:#000000;stroke:none" />
         <path
   d="m 10149,16226 -8,5 -15,3 -18,-3 -20,-7 -20,-13 -13,-13 -8,-12 v -11 l 8,-5 15,-2 18,2 20,8 18,13 15,12 8,13 z"
   id="path260"
   inkscape:connector-curvature="0"
   style="fill:#ffffff;stroke:none" />
         <path
   d="m 9928,16341 -8,5 -15,2 -18,-2 -23,-8 -18,-13 -15,-12 -7,-13 v -10 l 10,-5 15,-3 18,3 20,7 18,13 15,13 8,12 z"
   id="path262"
   inkscape:connector-curvature="0"
   style="fill:#ffffff;stroke:none" />
         <path
   d="m 10238,16480 -8,6 -15,2 -18,-2 -20,-8 -18,-13 -15,-13 -8,-12 v -10 l 8,-5 15,-3 18,3 20,7 20,13 13,13 8,12 z"
   id="path264"
   inkscape:connector-curvature="0"
   style="fill:#ffffff;stroke:none" />
         <path
   d="m 10555,16402 -7,7 -15,3 -18,-5 -21,-8 -17,-10 -16,-13 -7,-12 v -11 l 7,-7 h 16 l 17,2 21,8 20,10 15,13 5,12 z"
   id="path266"
   inkscape:connector-curvature="0"
   style="fill:#ffffff;stroke:none" />
         <path
   d="m 10446,16191 -7,7 -16,3 -18,-5 -20,-8 -20,-10 -13,-13 -8,-12 v -11 l 8,-7 h 15 l 18,2 20,8 18,10 16,13 7,13 z"
   id="path268"
   inkscape:connector-curvature="0"
   style="fill:#ffffff;stroke:none" />
         <path
   d="m 10342,15949 -8,8 h -15 l -18,-3 -20,-7 -18,-13 -15,-13 -8,-12 v -11 l 8,-5 15,-2 18,2 20,8 18,13 15,12 8,13 z"
   id="path270"
   inkscape:connector-curvature="0"
   style="fill:#ffffff;stroke:none" />
         <path
   d="m 10840,16267 -8,5 -15,3 -18,-3 -23,-8 -17,-12 -16,-13 -7,-13 v -10 l 7,-5 16,-3 17,3 23,8 18,12 15,13 8,13 z"
   id="path272"
   inkscape:connector-curvature="0"
   style="fill:#ffffff;stroke:none" />
         <path
   d="m 10718,15926 -8,8 -15,3 -18,-6 -20,-7 -18,-10 -15,-13 -8,-13 v -10 l 8,-8 h 15 l 18,3 20,8 21,10 15,12 5,13 z"
   id="path274"
   inkscape:connector-curvature="0"
   style="fill:#ffffff;stroke:none" />
         <path
   d="m 11097,16150 -8,8 -15,2 -18,-5 -20,-8 -21,-10 -15,-12 -8,-13 v -10 l 11,-8 h 15 l 18,3 20,7 18,13 15,13 8,10 z"
   id="path276"
   inkscape:connector-curvature="0"
   style="fill:#ffffff;stroke:none" />
         <path
   d="m 10464,15713 -8,7 h -15 l -18,-2 -20,-8 -18,-10 -15,-13 -8,-12 v -10 l 8,-8 15,-3 18,5 20,8 21,10 12,13 8,13 z"
   id="path278"
   inkscape:connector-curvature="0"
   style="fill:#ffffff;stroke:none" />
         <path
   d="m 10830,15710 -8,8 -15,2 -18,-5 -20,-7 -20,-10 -16,-13 -5,-13 v -10 l 8,-8 h 15 l 18,3 20,8 18,10 15,12 8,13 z"
   id="path280"
   inkscape:connector-curvature="0"
   style="fill:#ffffff;stroke:none" />
         <path
   d="m 10560,15441 -7,8 h -15 l -18,-3 -20,-8 -21,-10 -15,-12 -5,-13 v -10 l 7,-8 h 16 l 18,3 20,7 18,10 15,13 7,13 z"
   id="path282"
   inkscape:connector-curvature="0"
   style="fill:#ffffff;stroke:none" />
         <path
   d="m 10304,15433 -8,5 -15,3 -18,-3 -20,-7 -18,-13 -15,-13 -8,-12 v -11 l 8,-5 15,-2 18,2 20,8 18,13 15,12 8,13 z"
   id="path284"
   inkscape:connector-curvature="0"
   style="fill:#ffffff;stroke:none" />
         <path
   d="m 10230,15609 -7,7 -16,3 -18,-5 -20,-8 -20,-10 -13,-13 -8,-12 v -11 l 8,-7 h 15 l 18,2 20,8 18,10 16,13 7,12 z"
   id="path286"
   inkscape:connector-curvature="0"
   style="fill:#ffffff;stroke:none" />
        </g>
       </g>
      </g>
     </g>
    </g>
   </g>
  </g>
 </g>
</svg>