<?xml version="1.0" encoding="UTF-8" standalone="no"?>
<svg
   xmlns:ooo="http://xml.openoffice.org/svg/export"
   xmlns:dc="http://purl.org/dc/elements/1.1/"
   xmlns:cc="http://creativecommons.org/ns#"
   xmlns:rdf="http://www.w3.org/1999/02/22-rdf-syntax-ns#"
   xmlns:svg="http://www.w3.org/2000/svg"
   xmlns="http://www.w3.org/2000/svg"
   xmlns:sodipodi="http://sodipodi.sourceforge.net/DTD/sodipodi-0.dtd"
   xmlns:inkscape="http://www.inkscape.org/namespaces/inkscape"
   version="1.2"
   width="36.860001mm"
   height="33.27mm"
   viewBox="0 0 3686.0001 3327"
   preserveAspectRatio="xMidYMid"
   xml:space="preserve"
   id="svg68"
   sodipodi:docname="blkcat1.svg"
   style="fill-rule:evenodd;stroke-width:28.22200012;stroke-linejoin:round"
   inkscape:version="0.92.5 (2060ec1f9f, 2020-04-08)"><metadata
   id="metadata72"><rdf:RDF><cc:Work
       rdf:about=""><dc:format>image/svg+xml</dc:format><dc:type
         rdf:resource="http://purl.org/dc/dcmitype/StillImage" /></cc:Work></rdf:RDF></metadata><sodipodi:namedview
   pagecolor="#ffffff"
   bordercolor="#666666"
   borderopacity="1"
   objecttolerance="10"
   gridtolerance="10"
   guidetolerance="10"
   inkscape:pageopacity="0"
   inkscape:pageshadow="2"
   inkscape:window-width="664"
   inkscape:window-height="487"
   id="namedview70"
   showgrid="false"
   inkscape:zoom="0.2102413"
   inkscape:cx="69.656694"
   inkscape:cy="62.853542"
   inkscape:window-x="0"
   inkscape:window-y="0"
   inkscape:window-maximized="0"
   inkscape:current-layer="svg68" />
 <defs
   class="ClipPathGroup"
   id="defs8">
  <clipPath
   id="presentation_clip_path"
   clipPathUnits="userSpaceOnUse">
   <rect
   x="0"
   y="0"
   width="21000"
   height="29700"
   id="rect2" />
  </clipPath>
  <clipPath
   id="presentation_clip_path_shrink"
   clipPathUnits="userSpaceOnUse">
   <rect
   x="21"
   y="29"
   width="20958"
   height="29641"
   id="rect5" />
  </clipPath>
 </defs>
 <defs
   class="TextShapeIndex"
   id="defs12">
  <g
   ooo:slide="id1"
   ooo:id-list="id3"
   id="g10" />
 </defs>
 <defs
   class="EmbeddedBulletChars"
   id="defs44">
  <g
   id="bullet-char-template-57356"
   transform="matrix(4.8828125e-4,0,0,-4.8828125e-4,0,0)">
   <path
   d="M 580,1141 1163,571 580,0 -4,571 Z"
   id="path14"
   inkscape:connector-curvature="0" />
  </g>
  <g
   id="bullet-char-template-57354"
   transform="matrix(4.8828125e-4,0,0,-4.8828125e-4,0,0)">
   <path
   d="M 8,1128 H 1137 V 0 H 8 Z"
   id="path17"
   inkscape:connector-curvature="0" />
  </g>
  <g
   id="bullet-char-template-10146"
   transform="matrix(4.8828125e-4,0,0,-4.8828125e-4,0,0)">
   <path
   d="M 174,0 602,739 174,1481 1456,739 Z M 1358,739 309,1346 659,739 Z"
   id="path20"
   inkscape:connector-curvature="0" />
  </g>
  <g
   id="bullet-char-template-10132"
   transform="matrix(4.8828125e-4,0,0,-4.8828125e-4,0,0)">
   <path
   d="M 2015,739 1276,0 H 717 l 543,543 H 174 v 393 h 1086 l -543,545 h 557 z"
   id="path23"
   inkscape:connector-curvature="0" />
  </g>
  <g
   id="bullet-char-template-10007"
   transform="matrix(4.8828125e-4,0,0,-4.8828125e-4,0,0)">
   <path
   d="m 0,-2 c -7,16 -16,29 -25,39 l 381,530 c -94,256 -141,385 -141,387 0,25 13,38 40,38 9,0 21,-2 34,-5 21,4 42,12 65,25 l 27,-13 111,-251 280,301 64,-25 24,25 c 21,-10 41,-24 62,-43 C 886,937 835,863 770,784 769,783 710,716 594,584 L 774,223 c 0,-27 -21,-55 -63,-84 l 16,-20 C 717,90 699,76 672,76 641,76 570,178 457,381 L 164,-76 c -22,-34 -53,-51 -92,-51 -42,0 -63,17 -64,51 -7,9 -10,24 -10,44 0,9 1,19 2,30 z"
   id="path26"
   inkscape:connector-curvature="0" />
  </g>
  <g
   id="bullet-char-template-10004"
   transform="matrix(4.8828125e-4,0,0,-4.8828125e-4,0,0)">
   <path
   d="M 285,-33 C 182,-33 111,30 74,156 52,228 41,333 41,471 c 0,78 14,145 41,201 34,71 87,106 158,106 53,0 88,-31 106,-94 l 23,-176 c 8,-64 28,-97 59,-98 l 735,706 c 11,11 33,17 66,17 42,0 63,-15 63,-46 V 965 c 0,-36 -10,-64 -30,-84 L 442,47 C 390,-6 338,-33 285,-33 Z"
   id="path29"
   inkscape:connector-curvature="0" />
  </g>
  <g
   id="bullet-char-template-9679"
   transform="matrix(4.8828125e-4,0,0,-4.8828125e-4,0,0)">
   <path
   d="M 813,0 C 632,0 489,54 383,161 276,268 223,411 223,592 c 0,181 53,324 160,431 106,107 249,161 430,161 179,0 323,-54 432,-161 108,-107 162,-251 162,-431 0,-180 -54,-324 -162,-431 C 1136,54 992,0 813,0 Z"
   id="path32"
   inkscape:connector-curvature="0" />
  </g>
  <g
   id="bullet-char-template-8226"
   transform="matrix(4.8828125e-4,0,0,-4.8828125e-4,0,0)">
   <path
   d="m 346,457 c -73,0 -137,26 -191,78 -54,51 -81,114 -81,188 0,73 27,136 81,188 54,52 118,78 191,78 73,0 134,-26 185,-79 51,-51 77,-114 77,-187 0,-75 -25,-137 -76,-188 -50,-52 -112,-78 -186,-78 z"
   id="path35"
   inkscape:connector-curvature="0" />
  </g>
  <g
   id="bullet-char-template-8211"
   transform="matrix(4.8828125e-4,0,0,-4.8828125e-4,0,0)">
   <path
   d="M -4,459 H 1135 V 606 H -4 Z"
   id="path38"
   inkscape:connector-curvature="0" />
  </g>
  <g
   id="bullet-char-template-61548"
   transform="matrix(4.8828125e-4,0,0,-4.8828125e-4,0,0)">
   <path
   d="m 173,740 c 0,163 58,303 173,419 116,115 255,173 419,173 163,0 302,-58 418,-173 116,-116 174,-256 174,-419 0,-163 -58,-303 -174,-418 C 1067,206 928,148 765,148 601,148 462,206 346,322 231,437 173,577 173,740 Z"
   id="path41"
   inkscape:connector-curvature="0" />
  </g>
 </defs>
 <g
   id="g49"
   transform="translate(-8657,-13186)">
  <g
   id="id2"
   class="Master_Slide">
   <g
   id="bg-id2"
   class="Background" />
   <g
   id="bo-id2"
   class="BackgroundObjects" />
  </g>
 </g>
 <g
   class="SlideGroup"
   id="g66"
   transform="translate(-8657,-13186)">
  <g
   id="g64">
   <g
   id="container-id1">
    <g
   id="id1"
   class="Slide"
   clip-path="url(#presentation_clip_path)">
     <g
   class="Page"
   id="g60">
      <g
   class="Graphic"
   id="g58">
       <g
   id="id3">
        <rect
   class="BoundingBox"
   x="8657"
   y="13186"
   width="3686"
   height="3327"
   id="rect51"
   style="fill:none;stroke:none" />
        <path
   d="m 11402,14965 23,48 18,46 15,43 13,41 10,38 10,38 8,36 10,35 13,209 8,269 7,239 8,120 -8,17 -28,23 -38,26 -46,25 -48,23 -38,20 -31,13 -10,5 -135,5 -12,-23 -13,-22 -13,-26 -10,-23 -7,-23 v -23 l 2,-20 13,-18 18,-15 25,-18 28,-17 28,-18 25,-16 23,-15 15,-12 6,-11 -3,-56 -5,-99 -8,-94 -2,-40 -21,43 -25,53 -25,54 -23,53 -23,56 -23,56 -20,56 -21,58 -20,56 -8,18 -7,18 -8,15 -8,15 -10,15 -12,16 -11,15 -15,15 -10,18 -13,30 -12,28 -13,18 -31,23 -30,15 -33,10 -33,6 -31,2 -25,-2 -18,-3 -13,-5 -23,10 -17,5 h -13 -13 l -7,-2 -5,-3 -6,-5 v 0 l -28,-18 -17,-35 -5,-46 2,-48 10,-46 16,-31 20,-25 25,-23 28,-20 28,-21 28,-20 26,-23 20,-28 28,-51 23,-53 18,-53 15,-54 7,-53 8,-56 3,-53 2,-56 -7,-110 -21,-101 -30,-99 -33,-100 -36,-96 -30,-102 -26,-104 -13,-109 -35,48 -31,51 -28,51 -28,48 -28,51 -33,43 -40,41 -51,35 -3,33 -5,82 -10,111 -13,117 -5,153 -2,206 -8,218 -25,188 -16,31 -12,30 -15,26 -16,23 -15,18 -18,17 -20,13 -23,13 -25,7 -28,5 -33,6 h -39 l -40,-3 -46,-3 -51,-7 -58,-8 -16,-23 -7,-25 v -28 l 7,-25 13,-26 13,-23 15,-18 15,-12 16,-8 17,-8 21,-7 23,-8 20,-7 20,-8 16,-10 12,-10 13,-38 3,-67 -6,-91 -12,-122 -10,-112 -11,-71 -12,-56 -23,-64 -21,59 -20,53 -25,54 -26,51 -25,50 -28,49 -28,48 -31,46 -28,48 -30,48 -28,51 -28,48 -28,54 -28,53 -25,56 -23,59 -10,7 -21,8 -17,5 -13,-3 -41,23 -46,13 -43,5 -46,-3 -45,-7 -49,-13 -45,-13 -46,-15 2,-10 -2,-8 -10,-7 -13,-8 h -3 l -7,-2 -10,-8 -8,-8 -8,-15 v -18 l 5,-18 11,-17 12,-18 16,-18 20,-13 25,-12 28,-8 h 10 28 l 18,-10 13,-13 13,-10 86,-76 71,-87 56,-94 41,-99 30,-104 23,-109 10,-110 8,-111 -3,-56 -10,-56 -15,-54 -20,-56 -21,-55 -22,-56 -21,-56 -18,-61 -7,-26 -8,-25 -10,-23 -10,-23 -15,-20 -16,-15 -18,-13 -20,-3 -30,3 -33,7 -36,11 -36,10 -35,12 -38,13 -36,13 -35,10 -36,8 -36,5 -33,2 -30,-5 -28,-10 -26,-18 -22,-25 -18,-33 -3,-31 8,-40 2,-41 -7,-36 -28,-66 -21,-66 -10,-66 -5,-66 -2,-66 2,-66 3,-69 v -66 l -8,-28 -18,-25 -28,-21 -33,-20 -35,-23 -31,-28 -28,-30 -15,-41 20,-2 16,-3 h 15 l 10,5 10,5 10,10 8,13 8,15 17,-40 11,-46 7,-41 21,-23 25,-7 25,-5 26,-5 25,-3 h 28 26 25 l 28,5 25,3 26,7 25,8 26,8 25,10 25,12 26,13 23,15 28,-12 30,-10 28,-6 31,-5 28,-2 30,2 31,3 28,2 30,6 28,5 31,7 30,5 28,8 31,5 28,5 30,3 26,-64 30,-63 31,-61 33,-59 38,-58 38,-54 43,-53 46,-48 46,-46 53,-43 53,-36 59,-33 61,-28 66,-23 69,-18 73,-10 31,-2 28,-3 h 30 31 28 30 l 31,3 30,2 28,3 31,2 28,5 30,5 28,8 28,8 28,7 28,8 33,10 33,13 33,15 31,15 30,16 31,17 30,18 28,21 28,20 28,23 28,23 25,22 28,23 26,26 28,25 25,26 10,10 13,7 13,8 12,5 13,3 h 13 l 10,-3 13,-5 28,-18 30,-18 31,-17 28,-18 30,-15 31,-16 30,-15 31,-13 30,-10 31,-10 33,-8 30,-7 31,-5 30,-3 h 33 l 31,3 46,7 45,18 44,23 38,28 38,36 38,35 33,41 33,43 18,41 5,38 -3,38 8,41 13,53 7,64 v 63 l -10,61 -10,48 -8,49 -10,45 -15,46 -23,56 -25,56 -31,51 -33,51 -35,48 -36,48 -41,49 -38,45 -41,46 -40,43 -41,46 -41,46 -38,45 -38,49 -38,48 -33,51 -43,-20 -33,-28 -21,-36 -12,-41 -8,-40 3,-44 10,-40 13,-36 27,-51 34,-48 35,-46 41,-45 40,-46 41,-46 41,-46 38,-45 36,-46 27,-46 26,-48 15,-51 10,-53 -2,-54 -13,-56 -23,-61 -10,-15 -10,-15 -10,-15 -13,-13 -15,-13 -16,-10 -17,-5 -18,-5 h -10 l -10,-3 -13,-2 h -13 -13 -10 l -10,2 -10,5 -36,23 -30,21 -31,20 -25,20 -23,26 -18,28 -15,33 -10,38 -13,81 -5,84 -5,84 -5,84 -8,81 -10,79 -15,76 -23,74 -13,35 -15,33 -13,33 -15,34 -18,33 -15,33 -15,33 z"
   id="path53"
   inkscape:connector-curvature="0"
   style="fill:#000000;stroke:none" />
        <path
   d="m 8993,14543 17,5 h 16 l 10,-2 5,-5 v -5 l -8,-5 -12,-6 -16,-5 -15,-7 -15,-5 -10,-3 -5,3 v 7 l 5,10 12,11 z"
   id="path55"
   inkscape:connector-curvature="0"
   style="fill:#ffffff;stroke:none" />
       </g>
      </g>
     </g>
    </g>
   </g>
  </g>
 </g>
</svg>