<?xml version="1.0" encoding="UTF-8" standalone="no"?>
<svg
   xmlns:ooo="http://xml.openoffice.org/svg/export"
   xmlns:dc="http://purl.org/dc/elements/1.1/"
   xmlns:cc="http://creativecommons.org/ns#"
   xmlns:rdf="http://www.w3.org/1999/02/22-rdf-syntax-ns#"
   xmlns:svg="http://www.w3.org/2000/svg"
   xmlns="http://www.w3.org/2000/svg"
   xmlns:sodipodi="http://sodipodi.sourceforge.net/DTD/sodipodi-0.dtd"
   xmlns:inkscape="http://www.inkscape.org/namespaces/inkscape"
   version="1.2"
   width="113.44mm"
   height="25.15mm"
   viewBox="0 0 11344 2515"
   preserveAspectRatio="xMidYMid"
   xml:space="preserve"
   id="svg667"
   sodipodi:docname="bnnrplne.svg"
   style="fill-rule:evenodd;stroke-width:28.22200012;stroke-linejoin:round"
   inkscape:version="0.92.5 (2060ec1f9f, 2020-04-08)"><metadata
   id="metadata671"><rdf:RDF><cc:Work
       rdf:about=""><dc:format>image/svg+xml</dc:format><dc:type
         rdf:resource="http://purl.org/dc/dcmitype/StillImage" /></cc:Work></rdf:RDF></metadata><sodipodi:namedview
   pagecolor="#ffffff"
   bordercolor="#666666"
   borderopacity="1"
   objecttolerance="10"
   gridtolerance="10"
   guidetolerance="10"
   inkscape:pageopacity="0"
   inkscape:pageshadow="2"
   inkscape:window-width="664"
   inkscape:window-height="487"
   id="namedview669"
   showgrid="false"
   inkscape:zoom="0.2102413"
   inkscape:cx="214.3748"
   inkscape:cy="47.50866"
   inkscape:window-x="0"
   inkscape:window-y="0"
   inkscape:window-maximized="0"
   inkscape:current-layer="svg667" />
 <defs
   class="ClipPathGroup"
   id="defs8">
  <clipPath
   id="presentation_clip_path"
   clipPathUnits="userSpaceOnUse">
   <rect
   x="0"
   y="0"
   width="21000"
   height="29700"
   id="rect2" />
  </clipPath>
  <clipPath
   id="presentation_clip_path_shrink"
   clipPathUnits="userSpaceOnUse">
   <rect
   x="21"
   y="29"
   width="20958"
   height="29641"
   id="rect5" />
  </clipPath>
 </defs>
 <defs
   class="TextShapeIndex"
   id="defs12">
  <g
   ooo:slide="id1"
   ooo:id-list="id3"
   id="g10" />
 </defs>
 <defs
   class="EmbeddedBulletChars"
   id="defs44">
  <g
   id="bullet-char-template-57356"
   transform="matrix(4.8828125e-4,0,0,-4.8828125e-4,0,0)">
   <path
   d="M 580,1141 1163,571 580,0 -4,571 Z"
   id="path14"
   inkscape:connector-curvature="0" />
  </g>
  <g
   id="bullet-char-template-57354"
   transform="matrix(4.8828125e-4,0,0,-4.8828125e-4,0,0)">
   <path
   d="M 8,1128 H 1137 V 0 H 8 Z"
   id="path17"
   inkscape:connector-curvature="0" />
  </g>
  <g
   id="bullet-char-template-10146"
   transform="matrix(4.8828125e-4,0,0,-4.8828125e-4,0,0)">
   <path
   d="M 174,0 602,739 174,1481 1456,739 Z M 1358,739 309,1346 659,739 Z"
   id="path20"
   inkscape:connector-curvature="0" />
  </g>
  <g
   id="bullet-char-template-10132"
   transform="matrix(4.8828125e-4,0,0,-4.8828125e-4,0,0)">
   <path
   d="M 2015,739 1276,0 H 717 l 543,543 H 174 v 393 h 1086 l -543,545 h 557 z"
   id="path23"
   inkscape:connector-curvature="0" />
  </g>
  <g
   id="bullet-char-template-10007"
   transform="matrix(4.8828125e-4,0,0,-4.8828125e-4,0,0)">
   <path
   d="m 0,-2 c -7,16 -16,29 -25,39 l 381,530 c -94,256 -141,385 -141,387 0,25 13,38 40,38 9,0 21,-2 34,-5 21,4 42,12 65,25 l 27,-13 111,-251 280,301 64,-25 24,25 c 21,-10 41,-24 62,-43 C 886,937 835,863 770,784 769,783 710,716 594,584 L 774,223 c 0,-27 -21,-55 -63,-84 l 16,-20 C 717,90 699,76 672,76 641,76 570,178 457,381 L 164,-76 c -22,-34 -53,-51 -92,-51 -42,0 -63,17 -64,51 -7,9 -10,24 -10,44 0,9 1,19 2,30 z"
   id="path26"
   inkscape:connector-curvature="0" />
  </g>
  <g
   id="bullet-char-template-10004"
   transform="matrix(4.8828125e-4,0,0,-4.8828125e-4,0,0)">
   <path
   d="M 285,-33 C 182,-33 111,30 74,156 52,228 41,333 41,471 c 0,78 14,145 41,201 34,71 87,106 158,106 53,0 88,-31 106,-94 l 23,-176 c 8,-64 28,-97 59,-98 l 735,706 c 11,11 33,17 66,17 42,0 63,-15 63,-46 V 965 c 0,-36 -10,-64 -30,-84 L 442,47 C 390,-6 338,-33 285,-33 Z"
   id="path29"
   inkscape:connector-curvature="0" />
  </g>
  <g
   id="bullet-char-template-9679"
   transform="matrix(4.8828125e-4,0,0,-4.8828125e-4,0,0)">
   <path
   d="M 813,0 C 632,0 489,54 383,161 276,268 223,411 223,592 c 0,181 53,324 160,431 106,107 249,161 430,161 179,0 323,-54 432,-161 108,-107 162,-251 162,-431 0,-180 -54,-324 -162,-431 C 1136,54 992,0 813,0 Z"
   id="path32"
   inkscape:connector-curvature="0" />
  </g>
  <g
   id="bullet-char-template-8226"
   transform="matrix(4.8828125e-4,0,0,-4.8828125e-4,0,0)">
   <path
   d="m 346,457 c -73,0 -137,26 -191,78 -54,51 -81,114 -81,188 0,73 27,136 81,188 54,52 118,78 191,78 73,0 134,-26 185,-79 51,-51 77,-114 77,-187 0,-75 -25,-137 -76,-188 -50,-52 -112,-78 -186,-78 z"
   id="path35"
   inkscape:connector-curvature="0" />
  </g>
  <g
   id="bullet-char-template-8211"
   transform="matrix(4.8828125e-4,0,0,-4.8828125e-4,0,0)">
   <path
   d="M -4,459 H 1135 V 606 H -4 Z"
   id="path38"
   inkscape:connector-curvature="0" />
  </g>
  <g
   id="bullet-char-template-61548"
   transform="matrix(4.8828125e-4,0,0,-4.8828125e-4,0,0)">
   <path
   d="m 173,740 c 0,163 58,303 173,419 116,115 255,173 419,173 163,0 302,-58 418,-173 116,-116 174,-256 174,-419 0,-163 -58,-303 -174,-418 C 1067,206 928,148 765,148 601,148 462,206 346,322 231,437 173,577 173,740 Z"
   id="path41"
   inkscape:connector-curvature="0" />
  </g>
 </defs>
 <g
   id="g49"
   transform="translate(-4828,-13592)">
  <g
   id="id2"
   class="Master_Slide">
   <g
   id="bg-id2"
   class="Background" />
   <g
   id="bo-id2"
   class="BackgroundObjects" />
  </g>
 </g>
 <g
   class="SlideGroup"
   id="g665"
   transform="translate(-4828,-13592)">
  <g
   id="g663">
   <g
   id="container-id1">
    <g
   id="id1"
   class="Slide"
   clip-path="url(#presentation_clip_path)">
     <g
   class="Page"
   id="g659">
      <g
   class="Graphic"
   id="g657">
       <g
   id="id3">
        <rect
   class="BoundingBox"
   x="4828"
   y="13592"
   width="11344"
   height="2515"
   id="rect51"
   style="fill:none;stroke:none" />
        <defs
   id="defs56">
         <clipPath
   id="clip_path_1"
   clipPathUnits="userSpaceOnUse">
          <path
   d="m 4828,13592 h 11343 v 2514 H 4828 Z"
   id="path53"
   inkscape:connector-curvature="0" />
         </clipPath>
        </defs>
        <g
   clip-path="url(#clip_path_1)"
   id="g654">
         <path
   d="m 4848,15639 h 6654 l -2,31 10,20 18,10 23,5 22,-2 18,-13 10,-18 -2,-23 v -1762 l -5,-20 -13,-13 -20,-8 h -21 l -22,5 -21,11 -12,20 -6,25 H 4828 l 434,832 z"
   id="path58"
   inkscape:connector-curvature="0"
   style="fill:#ffffff;stroke:none" />
         <path
   d="m 11523,15644 -21,-25 H 4848 v 40 h 6654 l -20,-25 41,10 5,-25 h -26 z"
   id="path60"
   inkscape:connector-curvature="0"
   style="fill:#000000;stroke:none" />
         <path
   d="m 11579,15649 v 5 l 2,16 -5,7 -8,8 h -17 l -18,-3 -8,-5 -5,-10 3,-23 -41,-10 -3,38 16,31 28,15 28,8 28,-6 27,-17 16,-28 -3,-31 v 5 z"
   id="path62"
   inkscape:connector-curvature="0"
   style="fill:#000000;stroke:none" />
         <path
   d="m 11579,13887 v 0 1762 h 40 v -1762 0 z"
   id="path64"
   inkscape:connector-curvature="0"
   style="fill:#000000;stroke:none" />
         <path
   d="m 11479,13928 21,-21 2,-17 8,-13 13,-5 17,-5 h 18 l 13,5 5,5 3,10 h 40 l -7,-31 -21,-20 -28,-10 h -23 l -28,5 -27,15 -18,28 -8,33 20,-20 z"
   id="path66"
   inkscape:connector-curvature="0"
   style="fill:#000000;stroke:none" />
         <path
   d="m 4846,13900 -18,28 h 6651 v -41 H 4828 l -18,28 18,-28 h -33 l 15,28 z"
   id="path68"
   inkscape:connector-curvature="0"
   style="fill:#000000;stroke:none" />
         <path
   d="m 5280,14747 v -16 l -434,-831 -36,15 435,832 v -16 l 35,16 5,-8 -5,-8 z"
   id="path70"
   inkscape:connector-curvature="0"
   style="fill:#000000;stroke:none" />
         <path
   d="m 4848,15619 18,28 414,-900 -35,-16 -414,900 17,28 -17,-28 -16,28 h 33 z"
   id="path72"
   inkscape:connector-curvature="0"
   style="fill:#000000;stroke:none" />
         <path
   d="m 12836,14752 15,-8 5,-13 -5,-15 -15,-5 z"
   id="path74"
   inkscape:connector-curvature="0"
   style="fill:#000000;stroke:none" />
         <path
   d="m 12150,14744 15,8 h 671 v -41 h -671 l 16,8 -31,25 8,8 h 7 z"
   id="path76"
   inkscape:connector-curvature="0"
   style="fill:#000000;stroke:none" />
         <path
   d="m 11617,14073 -16,12 549,659 31,-25 -549,-659 z"
   id="path78"
   inkscape:connector-curvature="0"
   style="fill:#000000;stroke:none" />
         <path
   d="m 11632,14060 -13,-8 -13,5 -7,13 2,15 z"
   id="path80"
   inkscape:connector-curvature="0"
   style="fill:#000000;stroke:none" />
         <path
   d="m 12181,14741 2,-15 -7,-10 -13,-3 -13,8 z"
   id="path82"
   inkscape:connector-curvature="0"
   style="fill:#000000;stroke:none" />
         <path
   d="m 11627,15474 15,10 539,-743 -31,-20 -538,743 z"
   id="path84"
   inkscape:connector-curvature="0"
   style="fill:#000000;stroke:none" />
         <path
   d="m 11612,15464 -3,15 8,10 12,3 13,-8 z"
   id="path86"
   inkscape:connector-curvature="0"
   style="fill:#000000;stroke:none" />
         <path
   d="m 11502,13968 -2,-7 -8,-3 -7,3 -3,7 z"
   id="path88"
   inkscape:connector-curvature="0"
   style="fill:#000000;stroke:none" />
         <path
   d="m 11492,15570 h 10 v -1602 h -20 v 1602 z"
   id="path90"
   inkscape:connector-curvature="0"
   style="fill:#000000;stroke:none" />
         <path
   d="m 11482,15570 3,8 7,3 8,-3 2,-8 z"
   id="path92"
   inkscape:connector-curvature="0"
   style="fill:#000000;stroke:none" />
         <path
   d="m 12900,14477 -13,-25 -10,-28 -13,-28 -10,-28 -10,-26 -8,-25 -7,-26 -8,-23 -8,-25 -10,-36 -8,-45 -2,-54 5,-58 20,-59 33,-58 56,-56 66,-46 66,-28 64,-15 h 61 l 61,10 58,20 56,31 56,38 51,43 48,46 48,51 44,53 40,51 38,51 33,48 31,44 15,30 23,43 20,41 13,25 5,8 8,8 2,2 3,3 v 0 l 20,-5 23,-5 18,-6 20,-5 20,-5 18,-5 21,-2 17,-5 16,-3 17,-5 18,-3 15,-5 h 16 12 16 12 l 10,3 13,2 8,3 10,5 10,8 13,5 10,5 10,5 20,28 23,20 28,18 31,13 38,7 h 41 l 48,-7 51,-16 22,-10 23,-7 18,-10 15,-11 16,-7 12,-8 10,-8 11,-7 v 0 l 7,-5 8,-5 8,-3 7,-5 8,-81 18,-87 20,-74 20,-43 31,10 25,11 25,10 23,7 18,11 15,7 13,8 10,7 3,3 25,-122 -10,-3 -28,3 h -13 l -20,-8 -28,-12 -33,-16 -33,-20 -36,-23 -33,-23 -30,-25 v -15 l 23,-16 28,-20 33,-20 38,-26 43,-25 46,-26 51,-25 53,-28 56,-23 56,-23 61,-20 61,-18 63,-13 64,-10 66,-5 63,3 23,7 18,15 15,23 13,28 8,33 7,36 8,36 5,33 5,15 -41,30 -50,28 -61,26 -61,23 -59,17 -48,16 -33,7 h -15 v 8 l -66,239 -3,8 h 38 38 l 41,2 38,5 36,5 33,11 28,12 22,18 h 21 17 18 5 v -51 l 64,8 58,2 54,3 50,2 h 46 l 41,3 38,5 33,8 28,12 25,16 18,23 15,28 13,38 8,45 2,56 -2,67 h 15 18 10 5 l 69,5 48,10 33,23 18,33 5,35 -10,38 -26,31 -35,23 -46,7 h -48 -46 -28 v 237 l 15,8 -2,15 -5,13 -11,12 -15,10 -18,13 -23,8 -27,7 -31,8 -33,5 -38,5 -43,5 -46,3 -48,2 h -51 -56 -58 v -30 l -21,2 h -23 -22 -23 -23 -21 -15 -12 v 6 l -3,7 -3,8 -2,7 -5,5 7,168 h 13 l 26,-2 h 30 l 33,5 38,8 36,12 38,15 35,21 39,23 33,28 27,33 26,38 20,43 15,48 8,56 v 59 l -10,66 -742,-252 -277,-241 -13,-3 -66,3 h -68 l -66,-3 -59,-2 -51,-3 -38,-8 -20,-10 v -12 l 13,-16 18,-18 20,-20 18,-18 15,-15 10,-15 v -10 l -8,-8 -33,-3 -40,-7 -46,-10 -51,-11 -56,-12 -61,-16 -61,-17 -63,-18 -66,-20 -64,-21 -63,-23 -64,-20 -61,-23 -56,-23 -53,-23 -48,-23 -16,11 -10,7 -17,15 -23,21 -26,25 -28,28 -30,28 -28,28 -26,28 -27,20 -36,11 h -38 l -38,-8 -33,-18 -26,-25 -12,-33 5,-38 17,-33 21,-23 25,-13 28,-3 23,5 20,11 16,12 5,16 7,-8 13,-10 15,-13 18,-15 18,-15 18,-18 20,-21 18,-22 -3,-3 -10,-5 -15,-8 -18,-10 -15,-2 h -18 l -20,2 h -23 -21 -22 -23 -23 -23 l -102,-5 -68,-10 -41,-15 -10,-18 15,-15 41,-16 61,-10 84,-5 -8,-5 -23,-15 -23,-18 -23,-26 -20,-25 -18,-25 -17,-26 -13,-23 z"
   id="path94"
   inkscape:connector-curvature="0"
   style="fill:#e50019;stroke:none" />
         <path
   d="m 12801,14274 v 0 l 7,22 8,26 7,25 13,28 10,28 13,28 10,28 13,26 35,-16 -12,-25 -10,-28 -13,-28 -10,-28 -8,-23 -8,-25 -7,-26 -8,-23 v 0 z"
   id="path96"
   inkscape:connector-curvature="0"
   style="fill:#000000;stroke:none" />
         <path
   d="m 12895,13862 v 0 l -59,58 -35,64 -23,63 -5,61 2,54 8,48 10,38 8,26 40,-11 -7,-25 -11,-33 -7,-43 -3,-54 5,-56 18,-53 31,-54 53,-53 v 0 z"
   id="path98"
   inkscape:connector-curvature="0"
   style="fill:#000000;stroke:none" />
         <path
   d="m 13746,14263 h -3 l -30,-43 -33,-48 -38,-54 -41,-50 -43,-54 -51,-51 -48,-48 -51,-43 -59,-41 -58,-30 -61,-23 -66,-11 h -64 l -66,16 -71,30 -68,49 25,30 63,-43 61,-26 61,-15 h 59 l 56,10 56,18 53,31 53,35 51,43 48,44 46,51 43,53 41,51 38,48 33,48 31,44 h -3 3 l 12,7 13,-2 8,-10 -3,-16 z"
   id="path100"
   inkscape:connector-curvature="0"
   style="fill:#000000;stroke:none" />
         <path
   d="m 13817,14403 v 0 l -13,-23 -20,-40 -23,-44 -15,-33 -36,21 15,28 23,43 21,41 12,28 v 0 0 l 13,10 15,-3 10,-13 z"
   id="path102"
   inkscape:connector-curvature="0"
   style="fill:#000000;stroke:none" />
         <path
   d="m 13812,14413 18,5 v -2 h -6 l -5,-8 -2,-5 -36,21 8,10 10,7 v 5 l 5,3 18,5 -18,-5 15,3 13,-8 5,-13 -7,-13 z"
   id="path104"
   inkscape:connector-curvature="0"
   style="fill:#000000;stroke:none" />
         <path
   d="m 13812,14413 5,21 v 0 0 0 l 5,20 -18,-5 15,3 13,-8 5,-13 -7,-13 z"
   id="path106"
   inkscape:connector-curvature="0"
   style="fill:#000000;stroke:none" />
         <path
   d="m 13972,14375 v 0 l -18,5 -20,3 -21,5 -20,5 -20,5 -18,5 -20,5 -23,5 10,41 18,-5 25,-5 18,-5 20,-5 21,-5 15,-5 20,-3 18,-5 v 0 0 l 13,-8 5,-15 -8,-13 z"
   id="path108"
   inkscape:connector-curvature="0"
   style="fill:#000000;stroke:none" />
         <path
   d="m 14040,14360 h -5 l -12,5 -18,3 -18,5 -15,2 5,41 15,-3 18,-5 18,-2 17,-5 h -5 5 l 13,-11 3,-15 -10,-12 -16,-3 z"
   id="path110"
   inkscape:connector-curvature="0"
   style="fill:#000000;stroke:none" />
         <path
   d="m 14147,14375 v 0 l -13,-5 -10,-5 -15,-2 -13,-3 h -12 -16 -12 -16 v 41 h 16 12 16 12 l 8,2 10,3 h 5 l 8,5 v 0 z"
   id="path112"
   inkscape:connector-curvature="0"
   style="fill:#000000;stroke:none" />
         <path
   d="m 14198,14406 -13,-10 -7,-3 -11,-5 -10,-5 -10,-8 -20,36 10,7 15,6 10,5 13,7 -13,-10 13,10 15,-2 10,-16 -2,-12 -13,-10 z"
   id="path114"
   inkscape:connector-curvature="0"
   style="fill:#000000;stroke:none" />
         <path
   d="m 14455,14462 v -3 l -49,15 -45,8 h -41 l -33,-8 -28,-10 -23,-15 -20,-18 -18,-25 -36,20 23,31 26,22 33,21 33,15 43,8 h 41 l 50,-8 54,-15 v -3 z"
   id="path116"
   inkscape:connector-curvature="0"
   style="fill:#000000;stroke:none" />
         <path
   d="m 14574,14396 h 2 l -12,7 -8,5 -13,8 -15,8 -15,10 -15,10 -23,8 -20,10 10,35 25,-10 23,-8 20,-10 16,-10 15,-7 12,-8 13,-10 8,-8 h 2 -2 l 7,-13 -2,-12 -10,-8 -16,3 z"
   id="path118"
   inkscape:connector-curvature="0"
   style="fill:#000000;stroke:none" />
         <path
   d="m 14574,14396 13,15 v 0 0 0 l 12,15 h -2 l 7,-13 -2,-12 -10,-8 -16,3 z"
   id="path120"
   inkscape:connector-curvature="0"
   style="fill:#000000;stroke:none" />
         <path
   d="m 14597,14393 13,-18 -8,5 -8,3 -10,5 -10,8 25,30 5,-2 6,-6 7,-2 8,-5 12,-18 -12,18 10,-10 v -16 l -10,-10 h -15 z"
   id="path122"
   inkscape:connector-curvature="0"
   style="fill:#000000;stroke:none" />
         <path
   d="m 14688,14088 -20,8 -25,50 -21,77 -18,86 -7,84 h 40 l 8,-79 18,-86 20,-71 15,-36 -20,8 20,-8 6,-15 -8,-13 -15,-5 -13,8 z"
   id="path124"
   inkscape:connector-curvature="0"
   style="fill:#000000;stroke:none" />
         <path
   d="m 14858,14164 h -2 l -13,-10 -12,-8 -16,-7 -20,-10 -25,-8 -23,-10 -28,-10 -31,-13 -10,41 31,7 22,10 28,11 21,7 15,10 15,8 13,8 8,5 h -3 3 l 15,2 12,-7 6,-13 -8,-13 z"
   id="path126"
   inkscape:connector-curvature="0"
   style="fill:#000000;stroke:none" />
         <path
   d="m 14825,14179 36,-12 -3,-3 -30,31 3,2 35,-12 -33,10 13,5 12,-8 6,-10 -6,-13 z"
   id="path128"
   inkscape:connector-curvature="0"
   style="fill:#000000;stroke:none" />
         <path
   d="m 14866,14080 -15,-23 -26,122 41,6 26,-123 -16,-22 16,22 -6,-15 -12,-7 -16,5 -7,12 z"
   id="path130"
   inkscape:connector-curvature="0"
   style="fill:#000000;stroke:none" />
         <path
   d="m 14861,14078 h -5 l 10,2 10,-40 -10,-3 h -5 5 l -15,3 -8,12 v 16 l 13,10 z"
   id="path132"
   inkscape:connector-curvature="0"
   style="fill:#000000;stroke:none" />
         <path
   d="m 14838,14080 h -5 l 28,-2 v -41 l -28,3 h -5 5 l -15,5 -3,15 3,13 15,7 z"
   id="path134"
   inkscape:connector-curvature="0"
   style="fill:#000000;stroke:none" />
         <path
   d="m 14587,13933 7,15 31,25 35,26 36,23 33,20 35,15 28,13 26,10 h 20 l -10,-40 h -5 l -15,-6 -28,-12 -31,-15 -33,-21 -35,-23 -31,-20 -30,-25 7,15 -7,-15 -16,-6 -12,8 -5,15 7,13 z"
   id="path136"
   inkscape:connector-curvature="0"
   style="fill:#000000;stroke:none" />
         <path
   d="m 14597,13902 -10,16 v 15 h 40 v -15 l -10,15 10,-15 -5,-16 -15,-5 -13,5 -7,16 z"
   id="path138"
   inkscape:connector-curvature="0"
   style="fill:#000000;stroke:none" />
         <path
   d="m 15412,13602 v 0 l -63,-2 -66,5 -66,10 -64,13 -63,17 -61,23 -59,23 -56,23 -53,28 -51,25 -48,26 -43,25 -38,26 -33,20 -28,23 -23,15 20,31 23,-15 28,-18 33,-21 38,-25 43,-26 43,-25 51,-25 54,-28 56,-23 53,-23 61,-18 58,-18 64,-12 61,-11 66,-5 63,3 v 0 0 l 16,-8 5,-12 -5,-16 z"
   id="path140"
   inkscape:connector-curvature="0"
   style="fill:#000000;stroke:none" />
         <path
   d="m 15529,13828 v 3 l -5,-33 -7,-36 -8,-35 -8,-36 -15,-33 -18,-25 -23,-21 -33,-10 v 41 l 13,5 13,10 12,20 11,23 7,31 8,35 7,36 6,33 v 3 -3 l 7,13 15,2 13,-5 5,-15 z"
   id="path142"
   inkscape:connector-curvature="0"
   style="fill:#000000;stroke:none" />
         <path
   d="m 15527,13864 7,-20 -5,-16 -40,11 5,15 7,-20 -7,20 10,13 h 15 l 13,-8 2,-15 z"
   id="path144"
   inkscape:connector-curvature="0"
   style="fill:#000000;stroke:none" />
         <path
   d="m 15166,13996 -36,16 33,5 36,-8 48,-15 59,-18 63,-25 61,-26 53,-28 44,-33 -26,-30 -38,28 -48,28 -61,25 -59,20 -58,18 -48,15 -31,8 3,5 -36,15 33,-12 -12,-5 -11,5 -7,12 5,13 z"
   id="path146"
   inkscape:connector-curvature="0"
   style="fill:#000000;stroke:none" />
         <path
   d="m 15166,14009 v -5 -8 h -41 v 8 -5 5 l 8,15 13,3 15,-3 5,-15 z"
   id="path148"
   inkscape:connector-curvature="0"
   style="fill:#000000;stroke:none" />
         <path
   d="m 15100,14248 v 0 l 66,-239 -41,-10 -66,239 v 0 0 l 3,15 15,8 h 13 z"
   id="path150"
   inkscape:connector-curvature="0"
   style="fill:#000000;stroke:none" />
         <path
   d="m 15077,14230 20,26 3,-8 -41,-10 -2,8 20,25 -18,-25 3,15 12,7 13,-2 8,-10 z"
   id="path152"
   inkscape:connector-curvature="0"
   style="fill:#000000;stroke:none" />
         <path
   d="m 15351,14284 13,5 -25,-21 -33,-12 -36,-13 -35,-5 -41,-5 -41,-3 h -38 -38 v 41 h 38 38 l 41,3 35,5 36,5 30,7 23,13 21,15 12,5 -12,-5 15,3 13,-8 5,-13 -8,-12 z"
   id="path154"
   inkscape:connector-curvature="0"
   style="fill:#000000;stroke:none" />
         <path
   d="m 15392,14304 20,-20 h -5 -18 -17 -21 v 40 h 21 17 18 5 l 21,-20 -21,20 16,-7 5,-13 -5,-15 -16,-5 z"
   id="path156"
   inkscape:connector-curvature="0"
   style="fill:#000000;stroke:none" />
         <path
   d="m 15415,14233 -23,20 v 51 h 41 v -51 l -23,21 23,-21 -5,-15 -16,-5 -12,5 -8,15 z"
   id="path158"
   inkscape:connector-curvature="0"
   style="fill:#000000;stroke:none" />
         <path
   d="m 15903,14548 20,21 3,-67 -3,-56 -8,-48 -15,-43 -15,-31 -23,-28 -30,-17 -31,-16 -36,-7 -40,-5 -41,-3 h -46 l -50,-2 -54,-3 -58,-3 -61,-7 -5,41 66,7 58,3 54,2 50,3 h 46 l 41,2 35,5 31,8 25,10 21,13 12,18 16,25 10,33 7,43 3,56 -3,67 21,20 -21,-20 8,15 13,2 15,-2 5,-15 z"
   id="path160"
   inkscape:connector-curvature="0"
   style="fill:#000000;stroke:none" />
         <path
   d="m 15951,14548 v 0 h -5 -10 -18 -15 v 41 h 15 18 10 5 v 0 0 l 15,-8 5,-12 -5,-16 z"
   id="path162"
   inkscape:connector-curvature="0"
   style="fill:#000000;stroke:none" />
         <path
   d="m 16020,14553 v 0 l -69,-5 v 41 l 69,5 v 0 0 l 15,-8 5,-12 -5,-16 z"
   id="path164"
   inkscape:connector-curvature="0"
   style="fill:#000000;stroke:none" />
         <path
   d="m 16007,14795 v 0 l 51,-10 43,-26 30,-38 13,-46 -5,-40 -23,-41 -41,-28 -55,-13 v 41 l 40,8 26,17 12,26 5,30 -7,31 -21,23 -27,20 -41,5 v 0 0 l -15,5 -3,15 3,13 z"
   id="path166"
   inkscape:connector-curvature="0"
   style="fill:#000000;stroke:none" />
         <path
   d="m 15959,14795 v 0 h 48 v -41 h -48 v 0 0 l -16,5 -2,15 2,13 z"
   id="path168"
   inkscape:connector-curvature="0"
   style="fill:#000000;stroke:none" />
         <path
   d="m 15913,14795 v 0 h 46 v -41 h -46 v 0 0 l -15,5 -3,15 3,13 z"
   id="path170"
   inkscape:connector-curvature="0"
   style="fill:#000000;stroke:none" />
         <path
   d="m 15905,14774 -20,21 h 28 v -41 h -28 l -20,20 20,-20 -15,5 -3,15 3,13 15,8 z"
   id="path172"
   inkscape:connector-curvature="0"
   style="fill:#000000;stroke:none" />
         <path
   d="m 15893,14993 12,18 v -237 h -40 v 237 l 12,18 -12,-18 7,15 13,3 15,-3 5,-15 z"
   id="path174"
   inkscape:connector-curvature="0"
   style="fill:#000000;stroke:none" />
         <path
   d="m 15920,15019 -12,-18 -15,-8 -16,36 16,7 -13,-17 13,17 h 15 l 10,-10 v -15 l -10,-10 z"
   id="path176"
   inkscape:connector-curvature="0"
   style="fill:#000000;stroke:none" />
         <path
   d="m 15374,15125 21,21 h 58 56 51 l 48,-3 46,-2 45,-5 39,-6 33,-5 33,-7 28,-8 25,-10 20,-15 18,-10 15,-18 8,-18 2,-20 h -40 l -3,10 -2,7 -5,8 -13,10 -15,10 -21,5 -28,8 -28,8 -33,5 -38,5 -40,5 -46,3 -48,2 h -51 -56 -58 l 20,20 z"
   id="path178"
   inkscape:connector-curvature="0"
   style="fill:#000000;stroke:none" />
         <path
   d="m 15395,15115 -21,-20 v 30 h 41 v -30 l -20,-20 20,20 -5,-15 -15,-5 -13,5 -8,15 z"
   id="path180"
   inkscape:connector-curvature="0"
   style="fill:#000000;stroke:none" />
         <path
   d="m 15255,15097 -20,21 h 12 15 21 23 23 22 23 l 21,-3 v -40 l -21,2 h -23 -22 -23 -23 -21 -15 -12 l -21,20 21,-20 -16,5 -2,15 2,13 16,8 z"
   id="path182"
   inkscape:connector-curvature="0"
   style="fill:#000000;stroke:none" />
         <path
   d="m 15242,15141 3,-8 5,-10 2,-8 3,-10 v -8 h -41 v 3 l -2,5 -3,8 v 5 l 3,-8 -3,8 v 15 l 10,10 h 16 l 10,-10 z"
   id="path184"
   inkscape:connector-curvature="0"
   style="fill:#000000;stroke:none" />
         <path
   d="m 15242,15130 -5,16 5,-5 -30,-31 -5,5 -6,15 6,-15 -8,15 8,16 15,7 15,-7 z"
   id="path186"
   inkscape:connector-curvature="0"
   style="fill:#000000;stroke:none" />
         <path
   d="m 15229,15278 21,20 -8,-168 h -41 l 8,168 20,21 -20,-21 8,16 12,2 16,-2 5,-16 z"
   id="path188"
   inkscape:connector-curvature="0"
   style="fill:#000000;stroke:none" />
         <path
   d="m 15240,15278 h 2 -13 v 41 h 13 3 -3 l 15,-8 5,-13 -5,-15 -15,-5 z"
   id="path190"
   inkscape:connector-curvature="0"
   style="fill:#000000;stroke:none" />
         <path
   d="m 15631,15771 25,-17 10,-69 v -59 l -7,-58 -18,-54 -20,-45 -28,-41 -28,-36 -38,-28 -38,-25 -39,-20 -40,-16 -36,-15 -40,-7 -36,-6 h -30 l -28,3 5,41 23,-3 h 30 l 31,5 35,8 36,10 35,15 33,21 38,20 28,28 28,30 23,36 20,41 13,43 8,53 v 59 l -10,63 25,-17 -25,17 5,16 12,5 16,-3 7,-12 z"
   id="path192"
   inkscape:connector-curvature="0"
   style="fill:#000000;stroke:none" />
         <path
   d="m 14881,15514 8,6 742,251 10,-40 -742,-252 8,5 -8,-5 -15,2 -8,13 v 15 l 13,11 z"
   id="path194"
   inkscape:connector-curvature="0"
   style="fill:#000000;stroke:none" />
         <path
   d="m 14615,15278 -11,-5 277,241 26,-30 -277,-242 -10,-5 10,5 -15,-5 -13,8 -5,15 7,13 z"
   id="path196"
   inkscape:connector-curvature="0"
   style="fill:#000000;stroke:none" />
         <path
   d="m 14604,15275 h -2 l 13,3 5,-41 -13,-2 h -3 3 l -15,5 -5,13 2,15 13,7 z"
   id="path198"
   inkscape:connector-curvature="0"
   style="fill:#000000;stroke:none" />
         <path
   d="m 14218,15209 3,-2 v 38 l 30,18 43,7 51,3 59,2 66,3 h 68 l 66,-3 v -40 l -66,2 h -68 l -66,-2 -59,-3 -51,-2 -33,-8 -10,-2 v 12 l 3,-2 z"
   id="path200"
   inkscape:connector-curvature="0"
   style="fill:#000000;stroke:none" />
         <path
   d="m 14322,15120 h -5 l -5,-5 v -5 l -7,10 -16,13 -17,18 -21,20 -18,21 -15,17 36,21 10,-13 18,-15 20,-21 18,-17 15,-18 13,-21 v -25 l -21,-20 h -5 5 l -15,2 -7,13 v 15 l 12,10 z"
   id="path202"
   inkscape:connector-curvature="0"
   style="fill:#000000;stroke:none" />
         <path
   d="m 13446,14848 h -18 l 48,23 54,23 56,23 63,25 64,21 63,23 64,20 66,20 63,18 61,18 64,15 56,13 50,10 46,10 41,8 35,2 v -40 l -30,-3 -41,-8 -45,-10 -51,-10 -56,-13 -59,-15 -61,-18 -63,-17 -66,-21 -64,-20 -63,-23 -64,-20 -58,-21 -56,-23 -53,-22 -49,-23 h -17 17 -15 l -10,10 v 15 l 10,10 z"
   id="path204"
   inkscape:connector-curvature="0"
   style="fill:#000000;stroke:none" />
         <path
   d="m 13431,14856 v 2 l 15,-10 -20,-35 -16,10 v 2 -2 l -10,13 3,15 12,10 16,-3 z"
   id="path206"
   inkscape:connector-curvature="0"
   style="fill:#000000;stroke:none" />
         <path
   d="m 13248,15034 v 0 l 25,-28 26,-26 30,-28 31,-27 22,-26 23,-20 18,-16 8,-7 -21,-31 -12,8 -18,15 -23,21 -28,25 -25,28 -31,28 -30,30 -26,28 v 0 z"
   id="path208"
   inkscape:connector-curvature="0"
   style="fill:#000000;stroke:none" />
         <path
   d="m 13006,14925 v 0 l -5,43 16,43 30,30 41,21 43,10 h 40 l 41,-13 36,-25 -31,-26 -20,16 -31,7 h -35 l -33,-5 -26,-15 -20,-20 -10,-23 5,-33 v 0 z"
   id="path210"
   inkscape:connector-curvature="0"
   style="fill:#000000;stroke:none" />
         <path
   d="m 13166,14889 36,13 -10,-26 -21,-20 -25,-13 -28,-5 -33,3 -33,17 -25,28 -21,39 41,10 15,-28 15,-18 18,-8 23,-2 18,5 15,7 10,6 v 5 l 36,12 -36,-12 8,15 13,2 15,-2 5,-15 z"
   id="path212"
   inkscape:connector-curvature="0"
   style="fill:#000000;stroke:none" />
         <path
   d="m 13301,14797 -8,-30 -17,23 -21,18 -15,17 -18,16 -17,15 -16,13 -12,10 -11,10 31,25 5,-5 13,-10 15,-13 18,-15 17,-15 21,-18 20,-23 18,-23 -8,-30 8,30 5,-15 -8,-13 -15,-5 -13,8 z"
   id="path214"
   inkscape:connector-curvature="0"
   style="fill:#000000;stroke:none" />
         <path
   d="m 13260,14774 -7,-2 18,10 17,8 8,5 5,2 15,-35 v -3 l -12,-5 -13,-7 -18,-11 -8,-2 8,2 -15,-2 -13,10 -2,15 10,13 z"
   id="path216"
   inkscape:connector-curvature="0"
   style="fill:#000000;stroke:none" />
         <path
   d="m 13248,14772 h -3 l 15,2 5,-40 -15,-3 h -2 2 l -15,5 -5,13 2,15 13,8 z"
   id="path218"
   inkscape:connector-curvature="0"
   style="fill:#000000;stroke:none" />
         <path
   d="m 13075,14774 v 0 h 23 23 23 22 21 23 l 20,-2 h 18 v -41 h -18 l -20,3 h -23 -21 -22 -23 -23 -23 v 0 z"
   id="path220"
   inkscape:connector-curvature="0"
   style="fill:#000000;stroke:none" />
         <path
   d="m 13044,14678 11,-38 -84,5 -66,10 -46,18 -25,30 20,38 48,18 71,10 102,5 v -40 l -102,-5 -66,-10 -33,-13 v 2 h 5 l 36,-12 56,-11 84,-5 10,-38 -10,38 15,-7 5,-13 -5,-15 -15,-5 z"
   id="path222"
   inkscape:connector-curvature="0"
   style="fill:#000000;stroke:none" />
         <path
   d="m 13039,14673 h -2 l 7,5 21,-36 -8,-5 h -2 2 l -15,-2 -13,10 -2,15 10,13 z"
   id="path224"
   inkscape:connector-curvature="0"
   style="fill:#000000;stroke:none" />
         <path
   d="m 12882,14485 v 0 l 10,20 13,25 20,26 18,28 20,25 26,28 25,18 25,18 16,-36 -21,-13 -20,-17 -20,-23 -21,-26 -17,-23 -16,-25 -12,-20 -11,-21 v 0 z"
   id="path226"
   inkscape:connector-curvature="0"
   style="fill:#000000;stroke:none" />
         <path
   d="m 13248,14731 -16,5 -2,16 2,12 16,8 z"
   id="path228"
   inkscape:connector-curvature="0"
   style="fill:#000000;stroke:none" />
         <path
   d="m 13710,14645 -13,7 -17,11 -23,5 -28,10 -28,7 -36,8 -35,5 -36,8 -35,5 -39,5 -33,5 -33,3 -33,2 -28,3 -25,2 h -20 v 41 h 20 l 25,-3 28,-2 33,-3 33,-2 39,-5 38,-5 35,-5 36,-8 35,-5 36,-8 33,-7 28,-11 28,-10 23,-10 18,-13 z"
   id="path230"
   inkscape:connector-curvature="0"
   style="fill:#000000;stroke:none" />
         <path
   d="m 13736,14675 7,-12 -5,-16 -13,-7 -15,5 z"
   id="path232"
   inkscape:connector-curvature="0"
   style="fill:#000000;stroke:none" />
         <path
   d="m 13207,14635 h -5 -10 l -15,2 h -23 -23 l -26,3 h -25 -25 v 40 h 25 25 l 26,-2 h 23 23 l 15,-3 h 10 5 z"
   id="path234"
   inkscape:connector-curvature="0"
   style="fill:#000000;stroke:none" />
         <path
   d="m 14960,14233 -15,5 -3,15 3,13 15,8 z"
   id="path236"
   inkscape:connector-curvature="0"
   style="fill:#000000;stroke:none" />
         <path
   d="m 15077,14230 h -18 -15 -18 -15 l -13,3 h -15 -13 -10 v 41 h 10 13 15 l 13,-3 h 15 18 15 18 z"
   id="path238"
   inkscape:connector-curvature="0"
   style="fill:#000000;stroke:none" />
         <path
   d="m 15077,14271 15,-8 5,-12 -5,-16 -15,-5 z"
   id="path240"
   inkscape:connector-curvature="0"
   style="fill:#000000;stroke:none" />
         <path
   d="m 15974,13798 -5,1747 v 0 3 l 2,5 5,2 h 3 2 l 3,-2 3,-5 v -3 0 l 7,-1747 v 0 -3 l -2,-5 -5,-2 h -3 -3 l -5,2 -2,5 z"
   id="path242"
   inkscape:connector-curvature="0"
   style="fill:#000000;stroke:none" />
         <path
   d="m 15397,15085 8,15 12,3 16,-3 5,-15 z"
   id="path244"
   inkscape:connector-curvature="0"
   style="fill:#000000;stroke:none" />
         <path
   d="m 15417,14390 h -20 v 695 h 41 v -695 z"
   id="path246"
   inkscape:connector-curvature="0"
   style="fill:#000000;stroke:none" />
         <path
   d="m 15438,14390 -5,-15 -16,-5 -12,5 -8,15 z"
   id="path248"
   inkscape:connector-curvature="0"
   style="fill:#000000;stroke:none" />
         <path
   d="m 15885,14665 v 109 z"
   id="path250"
   inkscape:connector-curvature="0"
   style="fill:#000000;stroke:none" />
         <path
   d="m 15905,14665 -5,-15 -15,-5 -13,5 -7,15 z"
   id="path252"
   inkscape:connector-curvature="0"
   style="fill:#000000;stroke:none" />
         <path
   d="m 15885,14774 h 20 v -109 h -40 v 109 z"
   id="path254"
   inkscape:connector-curvature="0"
   style="fill:#000000;stroke:none" />
         <path
   d="m 15865,14774 7,16 13,2 15,-2 5,-16 z"
   id="path256"
   inkscape:connector-curvature="0"
   style="fill:#000000;stroke:none" />
         <path
   d="m 15235,15034 2,7 5,6 8,-3 5,-5 z"
   id="path258"
   inkscape:connector-curvature="0"
   style="fill:#000000;stroke:none" />
         <path
   d="m 15003,14902 v 0 l 79,-8 64,5 38,15 30,23 15,26 11,25 v 28 l -5,18 20,5 5,-23 v -28 l -10,-30 -21,-36 -35,-23 -48,-20 -64,-5 -79,7 v 0 z"
   id="path260"
   inkscape:connector-curvature="0"
   style="fill:#000000;stroke:none" />
         <path
   d="m 14823,14935 h 5 l 13,-3 17,-5 23,-2 28,-6 31,-5 30,-7 33,-5 v -21 l -33,5 -30,8 -31,5 -28,5 -23,3 -22,5 -8,2 h -5 z"
   id="path262"
   inkscape:connector-curvature="0"
   style="fill:#000000;stroke:none" />
         <path
   d="m 14823,14914 -8,3 -2,8 2,7 8,3 z"
   id="path264"
   inkscape:connector-curvature="0"
   style="fill:#000000;stroke:none" />
         <path
   d="m 14350,15036 23,-2 33,-5 38,-8 44,-7 40,-8 43,-8 39,-10 30,-8 -5,-20 -31,8 -33,10 -43,8 -40,7 -44,8 -38,7 -33,6 -23,2 z"
   id="path266"
   inkscape:connector-curvature="0"
   style="fill:#000000;stroke:none" />
         <path
   d="m 14752,14647 -3,-7 -5,-5 h -7 l -6,7 z"
   id="path268"
   inkscape:connector-curvature="0"
   style="fill:#000000;stroke:none" />
         <path
   d="m 14632,15036 11,13 109,-402 -21,-5 -109,402 10,13 -10,-13 -2,13 h 12 z"
   id="path270"
   inkscape:connector-curvature="0"
   style="fill:#000000;stroke:none" />
         <path
   d="m 14744,15031 -13,3 -17,2 h -21 -17 -18 -13 -10 -3 v 21 h 3 10 13 18 17 21 l 17,-3 18,-2 z"
   id="path272"
   inkscape:connector-curvature="0"
   style="fill:#000000;stroke:none" />
         <path
   d="m 14749,15052 8,-5 v -8 l -5,-5 -8,-3 z"
   id="path274"
   inkscape:connector-curvature="0"
   style="fill:#000000;stroke:none" />
         <path
   d="m 14414,15153 -5,5 -3,8 5,5 8,3 z"
   id="path276"
   inkscape:connector-curvature="0"
   style="fill:#000000;stroke:none" />
         <path
   d="m 15156,15054 -21,-13 -33,-5 -35,-2 h -46 l -48,5 -56,5 -59,8 -58,7 -61,13 -58,10 -59,13 -56,13 -48,12 -43,13 -36,10 -25,10 5,21 25,-10 36,-11 43,-12 48,-13 51,-13 59,-12 58,-11 61,-12 58,-8 59,-8 56,-5 48,-5 h 46 l 35,3 28,5 16,7 z"
   id="path278"
   inkscape:connector-curvature="0"
   style="fill:#000000;stroke:none" />
         <path
   d="m 15146,15069 h 7 l 5,-5 3,-5 -5,-5 z"
   id="path280"
   inkscape:connector-curvature="0"
   style="fill:#000000;stroke:none" />
         <path
   d="m 14894,14619 -2,-7 -6,-5 h -7 l -5,7 z"
   id="path282"
   inkscape:connector-curvature="0"
   style="fill:#000000;stroke:none" />
         <path
   d="m 14785,15026 10,3 99,-410 -20,-5 -99,410 z"
   id="path284"
   inkscape:connector-curvature="0"
   style="fill:#000000;stroke:none" />
         <path
   d="m 14775,15024 2,7 5,5 8,-2 5,-5 z"
   id="path286"
   inkscape:connector-curvature="0"
   style="fill:#000000;stroke:none" />
         <path
   d="m 15240,14408 2,8 8,2 7,-2 3,-8 z"
   id="path288"
   inkscape:connector-curvature="0"
   style="fill:#000000;stroke:none" />
         <path
   d="m 14947,14365 v 0 l 69,-20 61,-8 51,-2 40,7 31,10 20,18 13,18 8,20 h 20 l -8,-30 -17,-23 -26,-18 -35,-15 -46,-8 -51,3 -61,7 -74,21 v 0 z"
   id="path290"
   inkscape:connector-curvature="0"
   style="fill:#000000;stroke:none" />
         <path
   d="m 14363,14637 v 0 l 8,-7 15,-18 30,-18 36,-20 41,-23 45,-21 51,-23 51,-22 53,-23 51,-21 51,-20 46,-18 43,-15 35,-13 28,-10 -5,-20 -28,10 -35,13 -43,15 -46,18 -51,20 -51,20 -53,23 -51,23 -51,23 -51,25 -40,23 -36,21 -30,17 -21,18 -12,18 5,20 z"
   id="path292"
   inkscape:connector-curvature="0"
   style="fill:#000000;stroke:none" />
         <path
   d="m 14348,14652 7,3 8,-3 3,-7 -3,-8 z"
   id="path294"
   inkscape:connector-curvature="0"
   style="fill:#000000;stroke:none" />
         <path
   d="m 14792,14398 3,8 8,2 7,-2 3,-8 z"
   id="path296"
   inkscape:connector-curvature="0"
   style="fill:#000000;stroke:none" />
         <path
   d="m 14846,14182 h -10 l -44,216 h 21 l 43,-216 z"
   id="path298"
   inkscape:connector-curvature="0"
   style="fill:#000000;stroke:none" />
         <path
   d="m 14856,14182 -3,-8 -7,-2 -8,2 -2,8 z"
   id="path300"
   inkscape:connector-curvature="0"
   style="fill:#000000;stroke:none" />
         <path
   d="m 15024,13958 -3,-7 -8,-3 -7,3 -3,7 z"
   id="path302"
   inkscape:connector-curvature="0"
   style="fill:#000000;stroke:none" />
         <path
   d="m 14932,14360 h 10 l 82,-402 h -21 l -81,402 z"
   id="path304"
   inkscape:connector-curvature="0"
   style="fill:#000000;stroke:none" />
         <path
   d="m 14922,14360 3,8 7,2 8,-2 2,-8 z"
   id="path306"
   inkscape:connector-curvature="0"
   style="fill:#000000;stroke:none" />
         <path
   d="m 15069,14240 3,8 5,5 8,-2 5,-5 z"
   id="path308"
   inkscape:connector-curvature="0"
   style="fill:#000000;stroke:none" />
         <path
   d="m 15146,14004 -11,-3 -66,239 21,6 66,-239 z"
   id="path310"
   inkscape:connector-curvature="0"
   style="fill:#000000;stroke:none" />
         <path
   d="m 15156,14007 -3,-8 -5,-5 h -8 l -5,7 z"
   id="path312"
   inkscape:connector-curvature="0"
   style="fill:#000000;stroke:none" />
         <path
   d="m 15438,13633 -3,-8 -5,-5 h -7 l -6,8 z"
   id="path314"
   inkscape:connector-curvature="0"
   style="fill:#000000;stroke:none" />
         <path
   d="m 15417,13678 8,-7 3,-13 5,-13 5,-12 -21,-5 -5,12 -5,13 -2,8 -3,2 z"
   id="path316"
   inkscape:connector-curvature="0"
   style="fill:#000000;stroke:none" />
         <path
   d="m 15402,13663 -2,8 2,7 8,3 7,-3 z"
   id="path318"
   inkscape:connector-curvature="0"
   style="fill:#000000;stroke:none" />
         <path
   d="m 14831,14212 -110,-43 -45,209 137,-59 z"
   id="path320"
   inkscape:connector-curvature="0"
   style="fill:#f2f4f7;stroke:none" />
         <path
   d="m 14828,14223 8,-3 5,-5 v -8 l -8,-5 z"
   id="path322"
   inkscape:connector-curvature="0"
   style="fill:#000000;stroke:none" />
         <path
   d="m 14731,14169 -12,10 109,44 5,-21 -109,-43 -13,10 13,-10 -10,-5 -3,15 z"
   id="path324"
   inkscape:connector-curvature="0"
   style="fill:#000000;stroke:none" />
         <path
   d="m 14673,14368 13,10 45,-209 h -20 l -46,209 13,10 -13,-10 -5,18 18,-8 z"
   id="path326"
   inkscape:connector-curvature="0"
   style="fill:#000000;stroke:none" />
         <path
   d="m 14813,14319 -3,-10 -137,59 5,20 137,-59 z"
   id="path328"
   inkscape:connector-curvature="0"
   style="fill:#000000;stroke:none" />
         <path
   d="m 14815,14329 8,-5 v -7 l -5,-5 -8,-3 z"
   id="path330"
   inkscape:connector-curvature="0"
   style="fill:#000000;stroke:none" />
         <path
   d="m 13179,13872 -2,-8 -8,-2 -8,2 -2,8 z"
   id="path332"
   inkscape:connector-curvature="0"
   style="fill:#000000;stroke:none" />
         <path
   d="m 13169,13935 h 10 v -63 h -20 v 63 z"
   id="path334"
   inkscape:connector-curvature="0"
   style="fill:#000000;stroke:none" />
         <path
   d="m 13159,13935 2,8 8,2 8,-2 2,-8 z"
   id="path336"
   inkscape:connector-curvature="0"
   style="fill:#000000;stroke:none" />
         <path
   d="m 13184,13991 -2,-7 -8,-3 -8,3 -2,7 z"
   id="path338"
   inkscape:connector-curvature="0"
   style="fill:#000000;stroke:none" />
         <path
   d="m 13174,14253 h 10 v -262 h -20 v 262 z"
   id="path340"
   inkscape:connector-curvature="0"
   style="fill:#000000;stroke:none" />
         <path
   d="m 13164,14253 2,8 8,2 8,-2 2,-8 z"
   id="path342"
   inkscape:connector-curvature="0"
   style="fill:#000000;stroke:none" />
         <path
   d="m 13184,14454 -2,-8 -8,-2 -8,2 -2,8 z"
   id="path344"
   inkscape:connector-curvature="0"
   style="fill:#000000;stroke:none" />
         <path
   d="m 13174,14490 h 10 v -36 h -20 v 36 z"
   id="path346"
   inkscape:connector-curvature="0"
   style="fill:#000000;stroke:none" />
         <path
   d="m 13164,14490 2,7 8,3 8,-3 2,-7 z"
   id="path348"
   inkscape:connector-curvature="0"
   style="fill:#000000;stroke:none" />
         <path
   d="m 13184,14541 -2,-8 -8,-3 -8,3 -2,8 z"
   id="path350"
   inkscape:connector-curvature="0"
   style="fill:#000000;stroke:none" />
         <path
   d="m 13174,14640 h 10 v -99 h -20 v 99 z"
   id="path352"
   inkscape:connector-curvature="0"
   style="fill:#000000;stroke:none" />
         <path
   d="m 13164,14640 2,7 8,3 8,-3 2,-7 z"
   id="path354"
   inkscape:connector-curvature="0"
   style="fill:#000000;stroke:none" />
         <path
   d="m 13103,13956 -8,2 -2,8 2,7 8,3 z"
   id="path356"
   inkscape:connector-curvature="0"
   style="fill:#000000;stroke:none" />
         <path
   d="m 13260,13966 v -10 h -157 v 20 h 157 z"
   id="path358"
   inkscape:connector-curvature="0"
   style="fill:#000000;stroke:none" />
         <path
   d="m 13260,13976 8,-3 3,-7 -3,-8 -8,-2 z"
   id="path360"
   inkscape:connector-curvature="0"
   style="fill:#000000;stroke:none" />
         <path
   d="m 13116,14505 -8,2 -3,8 3,8 8,2 z"
   id="path362"
   inkscape:connector-curvature="0"
   style="fill:#000000;stroke:none" />
         <path
   d="m 13253,14515 v -10 h -137 v 20 h 137 z"
   id="path364"
   inkscape:connector-curvature="0"
   style="fill:#000000;stroke:none" />
         <path
   d="m 13253,14525 7,-2 3,-8 -3,-8 -7,-2 z"
   id="path366"
   inkscape:connector-curvature="0"
   style="fill:#000000;stroke:none" />
         <path
   d="m 13271,14635 -8,2 -3,8 3,7 8,3 z"
   id="path368"
   inkscape:connector-curvature="0"
   style="fill:#000000;stroke:none" />
         <path
   d="m 13408,14619 -10,3 h -13 l -10,2 -15,3 h -18 l -21,3 -22,2 -28,3 v 20 l 28,-3 22,-2 21,-3 h 18 l 15,-2 10,-3 h 13 l 10,-2 z"
   id="path370"
   inkscape:connector-curvature="0"
   style="fill:#000000;stroke:none" />
         <path
   d="m 13408,14640 7,-3 3,-7 -3,-8 -7,-3 z"
   id="path372"
   inkscape:connector-curvature="0"
   style="fill:#000000;stroke:none" />
         <path
   d="m 13456,14614 -8,3 -2,7 2,8 8,3 z"
   id="path374"
   inkscape:connector-curvature="0"
   style="fill:#000000;stroke:none" />
         <path
   d="m 13647,14609 h -11 -17 -23 -26 -28 l -30,3 h -28 l -28,2 v 21 l 28,-3 h 28 l 30,-2 h 28 26 23 17 11 z"
   id="path376"
   inkscape:connector-curvature="0"
   style="fill:#000000;stroke:none" />
         <path
   d="m 13647,14630 7,-3 3,-8 -3,-7 -7,-3 z"
   id="path378"
   inkscape:connector-curvature="0"
   style="fill:#000000;stroke:none" />
         <path
   d="m 13436,14607 -5,5 2,5 5,5 h 8 z"
   id="path380"
   inkscape:connector-curvature="0"
   style="fill:#000000;stroke:none" />
         <path
   d="m 13781,14449 -35,15 -44,18 -45,18 -51,20 -48,23 -49,20 -40,23 -33,21 10,15 33,-20 35,-18 49,-21 48,-22 51,-21 46,-18 43,-17 35,-16 z"
   id="path382"
   inkscape:connector-curvature="0"
   style="fill:#000000;stroke:none" />
         <path
   d="m 13786,14469 8,-5 v -7 l -5,-5 -8,-3 z"
   id="path384"
   inkscape:connector-curvature="0"
   style="fill:#000000;stroke:none" />
         <path
   d="m 14630,15242 -15,-5 -13,8 -5,15 7,13 z"
   id="path386"
   inkscape:connector-curvature="0"
   style="fill:#000000;stroke:none" />
         <path
   d="m 14874,15479 12,-15 -256,-222 -26,31 257,221 z"
   id="path388"
   inkscape:connector-curvature="0"
   style="fill:#000000;stroke:none" />
         <path
   d="m 14861,15494 15,3 13,-8 5,-13 -8,-12 z"
   id="path390"
   inkscape:connector-curvature="0"
   style="fill:#000000;stroke:none" />
         <path
   d="m 15257,15044 h 21 l 23,-3 h 25 l 23,-2 23,-3 17,-2 h 13 l 8,-3 v 36 h 13 38 35 38 36 l 35,-3 h 33 l 33,-2 31,-5 30,-3 28,-5 26,-5 23,-8 20,-5 18,-7 15,-8 13,-10 25,13 -2,15 -5,13 -11,12 -15,10 -18,13 -23,8 -27,7 -31,8 -33,5 -38,5 -43,5 -46,3 -48,2 h -51 -56 -58 v -30 l -21,2 h -23 -22 -23 -23 -21 -15 -12 v 6 l -3,7 -3,8 -2,7 -18,18 -25,18 -33,13 -38,15 -41,10 -48,10 -49,11 -50,7 -51,5 -51,8 -48,2 -46,5 -43,3 -38,3 -33,2 h -26 l -66,3 h -66 l -63,-3 -56,-2 -49,-3 -33,-8 -20,-10 v -12 l 13,-16 18,-18 20,-20 18,-18 15,-15 10,-15 v -10 l -8,-8 -33,-5 -40,-5 -49,-10 -50,-13 -59,-13 -61,-15 -63,-18 -64,-20 -66,-21 -68,-20 -64,-23 -66,-20 -61,-23 -58,-23 -54,-23 -48,-23 10,-15 46,18 53,20 59,21 63,22 66,23 69,21 71,23 71,17 71,21 71,15 71,13 67,12 63,5 58,3 h 54 l 46,-8 -16,21 -17,23 -21,25 -23,23 -23,23 -20,23 -20,20 -18,15 v 3 l 5,5 10,3 16,2 h 22 l 26,3 h 28 33 33 38 38 l 38,-3 41,-2 38,-3 41,-3 38,-5 28,-2 33,-3 35,-2 36,-3 40,-2 41,-5 41,-6 43,-5 38,-10 38,-10 36,-10 33,-15 28,-18 23,-21 17,-22 13,-28 z"
   id="path392"
   inkscape:connector-curvature="0"
   style="fill:#000000;stroke:none" />
         <path
   d="m 14355,14645 49,2 53,3 h 56 58 l 54,-3 h 51 l 40,-5 31,-2 10,-10 7,-8 8,-10 10,-8 16,-5 20,-3 28,-2 38,2 -5,21 43,-3 51,-7 53,-8 56,-13 53,-17 49,-18 43,-26 30,-28 3,-12 -8,-3 h -17 l -18,8 -16,5 -7,-5 -3,-11 3,-10 -3,-2 -12,2 -18,5 -23,8 -28,10 -28,10 -28,13 -25,8 -16,5 -17,5 -23,8 -28,7 -31,10 -33,8 -38,10 -40,8 -46,10 -46,8 -51,7 -53,8 -56,2 -58,5 h -59 -63 z"
   id="path394"
   inkscape:connector-curvature="0"
   style="fill:#000000;stroke:none" />
         <path
   d="m 14607,13933 30,25 33,23 36,23 33,20 33,16 28,12 20,8 h 13 l 28,-3 15,-61 13,-10 15,-10 18,-8 18,-10 20,-7 20,-3 23,-3 21,6 -8,76 5,-5 18,-8 20,-13 26,-12 25,-10 20,-3 13,5 3,15 h 15 l 33,-7 48,-16 59,-17 61,-23 61,-26 50,-28 41,-30 -8,-13 -17,-10 -21,-13 -10,-12 -2,-18 -3,-16 -10,-12 -15,-10 -21,-11 -10,-12 v -16 l 8,-15 2,-7 -7,-6 -11,6 -17,20 -13,15 -23,15 -28,18 -33,15 -38,16 -46,15 -48,15 -51,15 -56,16 -58,15 -61,13 -61,12 -61,13 -64,13 -63,13 z"
   id="path396"
   inkscape:connector-curvature="0"
   style="fill:#000000;stroke:none" />
         <path
   d="m 14744,15247 216,171 5,-10 8,-10 7,-8 13,-10 -20,-13 -21,-18 -20,-20 -20,-23 -20,-20 -18,-21 -16,-15 -10,-13 -7,-2 h -13 -15 l -18,2 -18,3 -15,5 -13,2 z"
   id="path398"
   inkscape:connector-curvature="0"
   style="fill:#000000;stroke:none" />
         <path
   d="m 14932,15212 -13,-8 -12,5 -8,13 3,15 z"
   id="path400"
   inkscape:connector-curvature="0"
   style="fill:#000000;stroke:none" />
         <path
   d="m 15019,15291 -11,-8 -12,-8 -8,-5 -13,-7 -10,-13 -10,-10 -10,-15 -13,-13 -30,25 12,13 11,15 15,10 10,13 13,13 12,10 13,8 15,7 z"
   id="path402"
   inkscape:connector-curvature="0"
   style="fill:#000000;stroke:none" />
         <path
   d="m 15003,15326 h 16 l 10,-10 v -15 l -10,-10 z"
   id="path404"
   inkscape:connector-curvature="0"
   style="fill:#000000;stroke:none" />
         <path
   d="m 15021,15214 -8,-12 -15,-5 -12,7 -6,16 z"
   id="path406"
   inkscape:connector-curvature="0"
   style="fill:#000000;stroke:none" />
         <path
   d="m 15039,15370 7,-18 -25,-138 -41,6 26,137 7,-18 26,31 10,-8 -3,-10 z"
   id="path408"
   inkscape:connector-curvature="0"
   style="fill:#000000;stroke:none" />
         <path
   d="m 14993,15380 13,15 33,-25 -26,-31 -33,25 z"
   id="path410"
   inkscape:connector-curvature="0"
   style="fill:#000000;stroke:none" />
         <path
   d="m 14980,15364 -7,13 5,13 13,8 15,-3 z"
   id="path412"
   inkscape:connector-curvature="0"
   style="fill:#000000;stroke:none" />
         <path
   d="m 15156,15181 -8,-12 -15,-5 -13,7 -5,15 z"
   id="path414"
   inkscape:connector-curvature="0"
   style="fill:#000000;stroke:none" />
         <path
   d="m 15156,15334 20,-3 -20,-150 -41,5 20,150 z"
   id="path416"
   inkscape:connector-curvature="0"
   style="fill:#000000;stroke:none" />
         <path
   d="m 15135,15336 8,13 15,3 13,-5 5,-16 z"
   id="path418"
   inkscape:connector-curvature="0"
   style="fill:#000000;stroke:none" />
         <path
   d="m 15242,15130 -5,-15 -15,-5 -13,5 -8,15 z"
   id="path420"
   inkscape:connector-curvature="0"
   style="fill:#000000;stroke:none" />
         <path
   d="m 15250,15298 v 0 l -8,-168 h -41 l 8,168 v 0 z"
   id="path422"
   inkscape:connector-curvature="0"
   style="fill:#000000;stroke:none" />
         <path
   d="m 15229,15326 h 21 v -28 h -41 v 28 z"
   id="path424"
   inkscape:connector-curvature="0"
   style="fill:#000000;stroke:none" />
         <path
   d="m 15209,15326 8,16 12,2 16,-2 5,-16 z"
   id="path426"
   inkscape:connector-curvature="0"
   style="fill:#000000;stroke:none" />
         <path
   d="m 15217,16107 40,-3 44,-5 38,-10 38,-13 35,-15 33,-20 33,-20 28,-26 28,-25 23,-31 20,-30 18,-33 16,-36 10,-36 5,-38 2,-38 -2,-38 -5,-38 -10,-38 -16,-33 -18,-33 -20,-34 -23,-27 -28,-28 -28,-23 -33,-23 -33,-18 -35,-15 -38,-13 -38,-10 -44,-5 -40,-3 -43,3 -41,5 -38,10 -38,13 -36,15 -35,18 -31,23 -30,23 -26,28 -23,27 -23,34 -15,33 -15,33 -10,38 -5,38 -3,38 3,38 5,38 10,36 15,36 15,33 23,30 23,31 26,25 30,26 31,20 35,20 36,15 38,13 38,10 41,5 z"
   id="path428"
   inkscape:connector-curvature="0"
   style="fill:#000000;stroke:none" />
         <path
   d="m 15608,15728 v 0 l -3,38 -5,36 -7,33 -16,33 -17,30 -18,31 -23,28 -25,23 -28,25 -31,18 -30,20 -33,16 -38,10 -36,10 -41,5 -40,3 v 40 l 40,-2 46,-5 41,-10 38,-16 38,-15 36,-20 35,-23 28,-26 31,-28 22,-33 23,-30 18,-36 15,-38 13,-38 5,-41 3,-38 v 0 z"
   id="path430"
   inkscape:connector-curvature="0"
   style="fill:#000000;stroke:none" />
         <path
   d="m 15217,15370 v 0 l 40,2 41,5 36,10 38,11 33,15 30,18 31,20 28,23 25,25 23,26 18,33 17,30 16,31 7,35 5,36 3,38 h 41 l -3,-38 -5,-41 -13,-40 -15,-36 -18,-36 -23,-33 -22,-30 -31,-31 -28,-23 -35,-25 -36,-18 -38,-15 -38,-15 -41,-11 -46,-5 -40,-2 v 0 z"
   id="path432"
   inkscape:connector-curvature="0"
   style="fill:#000000;stroke:none" />
         <path
   d="m 14825,15728 v 0 l 3,-38 5,-36 8,-35 15,-31 15,-30 21,-31 22,-28 23,-25 31,-23 28,-20 33,-18 33,-15 38,-11 35,-10 39,-5 43,-2 v -41 l -43,2 -44,5 -40,11 -38,15 -39,15 -38,18 -33,25 -30,23 -28,31 -23,28 -25,35 -16,36 -15,36 -13,40 -5,41 -2,38 v 0 z"
   id="path434"
   inkscape:connector-curvature="0"
   style="fill:#000000;stroke:none" />
         <path
   d="m 15217,16087 v 0 l -43,-3 -39,-5 -35,-10 -38,-10 -33,-16 -33,-20 -28,-18 -31,-25 -23,-23 -22,-31 -21,-28 -15,-30 -15,-33 -8,-33 -5,-36 -3,-38 h -40 l 2,38 5,41 13,38 15,38 16,36 25,33 23,30 28,28 30,26 33,23 38,20 39,15 38,16 40,10 44,5 43,2 v 0 z"
   id="path436"
   inkscape:connector-curvature="0"
   style="fill:#000000;stroke:none" />
         <path
   d="m 15240,15278 -13,8 -3,15 5,13 16,5 z"
   id="path438"
   inkscape:connector-curvature="0"
   style="fill:#000000;stroke:none" />
         <path
   d="m 15656,15754 10,-69 v -59 l -7,-58 -18,-54 -20,-45 -28,-41 -28,-36 -38,-28 -38,-25 -39,-20 -40,-16 -36,-15 -40,-7 -36,-6 h -30 l -28,3 5,41 23,-3 h 30 l 31,5 35,8 36,10 35,15 33,21 38,20 28,28 28,30 23,36 20,41 13,43 8,53 v 59 l -10,63 z"
   id="path440"
   inkscape:connector-curvature="0"
   style="fill:#000000;stroke:none" />
         <path
   d="m 15616,15748 5,16 12,5 16,-3 7,-12 z"
   id="path442"
   inkscape:connector-curvature="0"
   style="fill:#000000;stroke:none" />
         <path
   d="m 15214,15947 48,-5 46,-13 41,-20 35,-28 31,-33 20,-39 15,-40 6,-46 -6,-46 -15,-40 -20,-39 -31,-33 -35,-28 -41,-20 -46,-13 -48,-5 -48,5 -46,13 -43,20 -36,28 -30,33 -20,39 -16,40 -5,46 5,46 16,40 20,39 30,33 36,28 43,20 46,13 z"
   id="path444"
   inkscape:connector-curvature="0"
   style="fill:#e50019;stroke:none" />
         <path
   d="m 15423,15723 v 0 l -3,41 -13,33 -18,33 -25,28 -30,25 -36,15 -41,13 -43,3 v 66 l 54,-8 50,-12 46,-26 41,-30 35,-39 23,-43 18,-48 8,-51 v 0 z"
   id="path446"
   inkscape:connector-curvature="0"
   style="fill:#000000;stroke:none" />
         <path
   d="m 15214,15532 v 0 l 43,3 41,13 36,15 30,25 25,28 18,33 13,33 3,41 h 66 l -8,-51 -18,-48 -23,-43 -35,-39 -41,-30 -46,-25 -50,-13 -54,-8 v 0 z"
   id="path448"
   inkscape:connector-curvature="0"
   style="fill:#000000;stroke:none" />
         <path
   d="m 15003,15723 v 0 l 3,-41 13,-33 17,-33 26,-28 30,-23 38,-17 41,-13 43,-3 v -66 l -53,8 -51,13 -48,22 -41,33 -35,39 -23,43 -18,48 -8,51 v 0 z"
   id="path450"
   inkscape:connector-curvature="0"
   style="fill:#000000;stroke:none" />
         <path
   d="m 15214,15914 v 0 l -43,-3 -41,-13 -38,-17 -30,-23 -26,-28 -17,-33 -13,-33 -3,-41 h -66 l 8,51 18,48 23,43 35,39 41,33 48,23 51,12 53,8 v 0 z"
   id="path452"
   inkscape:connector-curvature="0"
   style="fill:#000000;stroke:none" />
         <path
   d="m 14236,14159 -5,23 -3,23 5,18 11,15 17,10 23,8 h 31 l 40,-8 13,-2 h 15 l 13,-3 h 15 l 16,3 h 15 l 13,2 h 15 5 7 6 5 20 l 23,-2 25,-6 26,-10 17,-15 8,-23 -2,-33 -21,-41 v 23 l -5,18 -8,10 -12,5 h -13 l -10,-10 -10,-15 -8,-20 -5,-18 -10,-10 h -10 l -10,2 -3,3 -3,5 v 5 l 3,7 5,11 -2,15 -6,13 -12,10 -15,7 -21,3 -25,-8 -31,-15 h -12 l -16,10 -20,16 -23,15 -20,12 h -20 l -18,-17 z"
   id="path454"
   inkscape:connector-curvature="0"
   style="fill:#000000;stroke:none" />
         <path
   d="m 14165,13979 v -21 l 8,-20 10,-20 17,-21 21,-18 23,-15 28,-15 30,-13 31,-8 33,-5 h 33 l 33,3 33,10 33,13 30,20 28,28 -18,-48 -30,-46 -41,-38 -46,-33 -53,-20 -58,-8 -61,8 -61,25 -54,43 -38,56 -25,64 -15,66 -5,68 2,64 10,56 10,46 v 5 l 3,2 v 5 l 3,6 15,22 20,21 23,18 25,15 28,13 28,10 28,7 28,5 -25,-22 -23,-28 -18,-31 -15,-33 -13,-33 -7,-36 -6,-35 -2,-33 -10,-26 -3,-28 5,-28 z"
   id="path456"
   inkscape:connector-curvature="0"
   style="fill:#009393;stroke:none" />
         <path
   d="m 14546,13900 18,-8 -31,-30 -30,-21 -36,-15 -35,-10 -33,-3 h -33 l -33,5 -33,8 -31,13 -30,17 -23,16 -23,18 -18,22 -13,23 -7,23 v 21 h 20 v -21 l 8,-18 7,-17 18,-18 18,-18 23,-15 25,-13 31,-13 28,-7 33,-5 h 33 l 33,2 30,10 31,10 30,21 26,25 17,-7 -17,7 27,36 -10,-43 z"
   id="path458"
   inkscape:connector-curvature="0"
   style="fill:#000000;stroke:none" />
         <path
   d="m 14193,13745 v 0 l 58,-23 59,-8 56,8 50,17 46,34 38,35 31,46 15,46 20,-5 -20,-51 -31,-46 -43,-41 -45,-33 -56,-23 -61,-7 -64,7 -63,28 v 0 z"
   id="path460"
   inkscape:connector-curvature="0"
   style="fill:#000000;stroke:none" />
         <path
   d="m 14084,14200 v -3 l -11,-43 -10,-56 -2,-64 5,-68 15,-64 23,-61 38,-53 51,-43 -10,-16 -56,44 -38,58 -28,66 -16,69 -5,68 3,64 10,56 10,48 v -2 z"
   id="path462"
   inkscape:connector-curvature="0"
   style="fill:#000000;stroke:none" />
         <path
   d="m 14086,14212 3,3 -3,-5 v -5 l -2,-3 v -2 h -21 v 7 l 3,3 v 5 l 2,5 3,3 z"
   id="path464"
   inkscape:connector-curvature="0"
   style="fill:#000000;stroke:none" />
         <path
   d="m 14269,14337 5,-18 -28,-5 -25,-7 -28,-11 -26,-10 -25,-15 -23,-18 -18,-18 -15,-23 -15,11 15,23 23,22 23,18 25,15 31,16 28,10 30,8 28,5 5,-18 -5,18 41,7 -36,-25 z"
   id="path466"
   inkscape:connector-curvature="0"
   style="fill:#000000;stroke:none" />
         <path
   d="m 14157,14083 -2,-5 2,33 5,35 8,39 13,33 17,35 18,31 23,30 28,23 10,-15 -23,-23 -23,-25 -17,-31 -13,-31 -13,-33 -7,-33 -5,-35 -3,-33 -2,-5 2,5 v -3 l -2,-2 z"
   id="path468"
   inkscape:connector-curvature="0"
   style="fill:#000000;stroke:none" />
         <path
   d="m 14155,13979 2,-6 -10,21 -5,30 3,31 12,28 16,-10 -8,-23 -3,-26 5,-25 6,-15 2,-5 -2,5 2,-3 v -2 z"
   id="path470"
   inkscape:connector-curvature="0"
   style="fill:#000000;stroke:none" />
         <path
   d="m 14150,13907 v 0 l 5,-23 7,-25 13,-28 15,-28 16,-25 17,-21 16,-18 12,-7"
   id="path472"
   inkscape:connector-curvature="0"
   style="fill:none;stroke:#000000" />
         <path
   d="m 14302,13717 v 0 l 13,2 18,8 20,10 20,10 18,13 20,13 16,12 10,13"
   id="path474"
   inkscape:connector-curvature="0"
   style="fill:none;stroke:#000000" />
         <path
   d="m 14269,13727 v 0 l 15,18 18,25 13,20 7,16"
   id="path476"
   inkscape:connector-curvature="0"
   style="fill:none;stroke:#000000" />
         <path
   d="m 14165,14078 15,10 18,10 20,13 21,7 20,8 20,3 21,-3 17,-8 31,-22 20,-21 13,-18 7,-15 8,-8 8,3 10,8 13,12 7,11 15,12 18,13 21,10 17,5 21,-2 17,-8 18,-15 26,-49 7,-55 -7,-49 -31,-33 -5,-2 h -8 l -7,-3 h -5 -28 l -23,3 -18,2 -15,3 -10,5 -8,5 -8,5 -5,8 -7,5 -10,2 h -11 l -12,-5 -13,-2 -15,-5 -13,-6 -13,-5 -15,-2 h -20 l -20,2 -26,5 -23,11 -20,12 -20,21 -13,23 -8,17 -5,28 3,28 z"
   id="path478"
   inkscape:connector-curvature="0"
   style="fill:#009393;stroke:none" />
         <path
   d="m 14312,14111 v 0 l -15,5 -18,2 -18,-2 -20,-8 -18,-7 -20,-11 -18,-10 -15,-10 -10,15 15,11 18,10 20,15 23,8 20,7 23,3 23,-3 20,-10 v 0 z"
   id="path480"
   inkscape:connector-curvature="0"
   style="fill:#000000;stroke:none" />
         <path
   d="m 14381,14037 v 0 l -8,15 -12,18 -18,18 -31,23 10,15 31,-23 23,-23 12,-18 8,-15 v 0 z"
   id="path482"
   inkscape:connector-curvature="0"
   style="fill:#000000;stroke:none" />
         <path
   d="m 14434,14052 v 0 l -15,-15 -10,-8 -15,-5 -13,13 15,10 3,-2 v 0 l 10,7 10,10 v 0 z"
   id="path484"
   inkscape:connector-curvature="0"
   style="fill:#000000;stroke:none" />
         <path
   d="m 14490,14093 v 0 l -18,-8 -17,-12 -13,-13 -8,-8 -15,10 8,13 17,13 18,13 23,12 v 0 z"
   id="path486"
   inkscape:connector-curvature="0"
   style="fill:#000000;stroke:none" />
         <path
   d="m 14554,14078 v 0 l -16,12 -15,6 -18,2 -15,-5 -5,20 20,5 23,-2 21,-10 20,-18 v 0 z"
   id="path488"
   inkscape:connector-curvature="0"
   style="fill:#000000;stroke:none" />
         <path
   d="m 14554,13907 v 0 l 22,26 8,46 -8,53 -22,46 15,10 28,-51 7,-58 -7,-51 -38,-41 v 0 z"
   id="path490"
   inkscape:connector-curvature="0"
   style="fill:#000000;stroke:none" />
         <path
   d="m 14531,13902 v 0 h 5 l 7,3 h 8 l 3,2 5,-20 -8,-3 h -8 l -7,-2 h -5 v 0 z"
   id="path492"
   inkscape:connector-curvature="0"
   style="fill:#000000;stroke:none" />
         <path
   d="m 14424,13928 v 0 l 5,-5 5,-5 8,-6 7,-2 13,-3 18,-2 23,-3 h 28 v -20 h -28 l -23,2 -18,3 -18,3 -12,7 -8,5 -10,5 -5,11 v 0 z"
   id="path494"
   inkscape:connector-curvature="0"
   style="fill:#000000;stroke:none" />
         <path
   d="m 14320,13918 v 0 l 13,5 12,5 16,5 12,2 15,5 h 11 l 12,-2 13,-10 -15,-10 h -3 l -7,2 h -11 l -10,-5 -12,-3 -16,-5 -12,-5 -13,-5 v 0 z"
   id="path496"
   inkscape:connector-curvature="0"
   style="fill:#000000;stroke:none" />
         <path
   d="m 14173,13984 2,-3 10,-20 18,-18 20,-13 21,-7 23,-5 20,-3 h 20 l 13,3 5,-21 -18,-2 h -20 l -20,2 -28,5 -26,13 -20,13 -23,23 -15,25 2,-3 16,11 v 0 l 2,-3 z"
   id="path498"
   inkscape:connector-curvature="0"
   style="fill:#000000;stroke:none" />
         <path
   d="m 14170,14070 3,3 -8,-23 -3,-26 5,-25 6,-15 -16,-11 -10,21 -5,30 3,31 12,28 3,2 -3,-2 v 2 h 3 z"
   id="path500"
   inkscape:connector-curvature="0"
   style="fill:#000000;stroke:none" />
         <path
   d="m 14368,13973 -18,-12 -15,-10 -18,-8 -20,-5 -18,2 -18,3 -17,10 -18,13 -15,18 -8,20 -3,23 6,18 10,17 15,8 23,3 25,-11 13,-7 13,-10 12,-11 13,-12 10,-10 10,-13 11,-13 z"
   id="path502"
   inkscape:connector-curvature="0"
   style="fill:#f2ccbf;stroke:none" />
         <path
   d="m 14421,14001 3,16 10,15 15,10 18,3 13,-3 15,-8 13,-7 13,-10 10,-13 10,-13 5,-15 v -15 l -10,-10 -15,-8 -18,-3 -21,3 -20,8 -18,10 -15,18 z"
   id="path504"
   inkscape:connector-curvature="0"
   style="fill:#f2ccbf;stroke:none" />
         <path
   d="m 14256,14050 18,-3 15,-10 11,-15 2,-15 -2,-18 -11,-13 -15,-10 -18,-3 -20,3 -15,10 -10,13 -3,18 3,15 10,15 15,10 z"
   id="path506"
   inkscape:connector-curvature="0"
   style="fill:#000000;stroke:none" />
         <path
   d="m 14467,14045 18,-3 15,-10 10,-15 5,-16 -5,-17 -10,-13 -15,-10 -18,-3 -18,3 -15,10 -10,13 -3,17 3,16 10,15 15,10 z"
   id="path508"
   inkscape:connector-curvature="0"
   style="fill:#000000;stroke:none" />
         <path
   d="m 14228,13994 8,-5 8,-3 h 5 l 5,3 2,7 v 11 l -2,7 -8,5 -7,-5 -6,-7 -5,-8 z"
   id="path510"
   inkscape:connector-curvature="0"
   style="fill:#ffffff;stroke:none" />
         <path
   d="m 14444,13991 8,-5 8,-5 h 5 l 2,3 3,7 v 8 l -3,10 -7,5 -8,-2 -5,-11 -3,-7 z"
   id="path512"
   inkscape:connector-curvature="0"
   style="fill:#ffffff;stroke:none" />
         <path
   d="m 14361,13981 7,3 8,-3 2,-8 -2,-7 z"
   id="path514"
   inkscape:connector-curvature="0"
   style="fill:#000000;stroke:none" />
         <path
   d="m 14231,13973 v 0 l 18,-12 15,-8 15,-2 18,-3 18,5 15,5 15,10 16,13 15,-15 -21,-13 -15,-10 -20,-10 -23,-5 -18,2 -20,3 -20,12 -18,13 v 0 z"
   id="path516"
   inkscape:connector-curvature="0"
   style="fill:#000000;stroke:none" />
         <path
   d="m 14274,14055 -20,7 -21,-2 -10,-5 -7,-13 -5,-15 2,-20 5,-18 13,-16 -10,-15 -18,21 -10,22 -3,26 5,20 13,23 20,10 26,3 30,-13 z"
   id="path518"
   inkscape:connector-curvature="0"
   style="fill:#000000;stroke:none" />
         <path
   d="m 14284,14070 5,-5 -2,-8 -5,-2 h -8 z"
   id="path520"
   inkscape:connector-curvature="0"
   style="fill:#000000;stroke:none" />
         <path
   d="m 14536,13963 5,5 8,3 5,-5 2,-8 z"
   id="path522"
   inkscape:connector-curvature="0"
   style="fill:#000000;stroke:none" />
         <path
   d="m 14432,14001 5,-17 12,-16 16,-7 20,-8 18,-2 15,2 13,5 5,5 20,-5 -15,-15 -18,-10 -20,-3 -23,3 -20,7 -21,13 -18,20 -10,28 z"
   id="path524"
   inkscape:connector-curvature="0"
   style="fill:#000000;stroke:none" />
         <path
   d="m 14411,14001 3,8 7,3 8,-3 3,-8 z"
   id="path526"
   inkscape:connector-curvature="0"
   style="fill:#000000;stroke:none" />
         <path
   d="m 14274,14329 -25,-22 -23,-28 -18,-31 -15,-33 -13,-33 -7,-36 -6,-35 -2,-33 15,10 18,10 20,13 21,7 20,8 20,3 21,-3 17,-8 31,-22 20,-21 13,-18 7,-15 8,-8 8,3 10,8 13,12 7,11 15,12 18,13 21,10 -3,3 -3,5 v 5 l 3,7 5,11 -2,15 -6,13 -12,10 -15,7 -21,3 -25,-8 -31,-15 h -12 l -16,10 -20,16 -23,15 -20,12 h -20 l -18,-17 -13,-36 -5,23 -3,23 5,18 11,15 17,10 23,8 h 31 l 40,-8 13,-2 h 15 l 13,-3 h 15 l 16,3 h 15 l 13,2 h 15 l -5,20 -8,18 -13,15 -15,13 -18,10 -23,5 -25,6 h -30 -13 l -15,-3 h -16 z"
   id="path528"
   inkscape:connector-curvature="0"
   style="fill:#f2ccbf;stroke:none" />
         <path
   d="m 14269,14337 h 8 l 5,-5 2,-5 -5,-5 z"
   id="path530"
   inkscape:connector-curvature="0"
   style="fill:#000000;stroke:none" />
         <path
   d="m 14170,14070 -15,8 2,33 5,35 8,39 13,33 17,35 18,31 23,30 28,23 10,-15 -23,-23 -23,-25 -17,-31 -13,-31 -13,-33 -7,-33 -5,-35 -3,-33 -15,7 10,-15 -15,-13 v 21 z"
   id="path532"
   inkscape:connector-curvature="0"
   style="fill:#000000;stroke:none" />
         <path
   d="m 14312,14111 v 0 l -15,5 -18,2 -18,-2 -20,-8 -18,-7 -20,-11 -18,-10 -15,-10 -10,15 15,11 18,10 20,15 23,8 20,7 23,3 23,-3 20,-10 v 0 z"
   id="path534"
   inkscape:connector-curvature="0"
   style="fill:#000000;stroke:none" />
         <path
   d="m 14381,14037 v 0 l -8,15 -12,18 -18,18 -31,23 10,15 31,-23 23,-23 12,-18 8,-15 v 0 z"
   id="path536"
   inkscape:connector-curvature="0"
   style="fill:#000000;stroke:none" />
         <path
   d="m 14434,14052 v 0 l -15,-15 -10,-8 -15,-5 -13,13 15,10 3,-2 v 0 l 10,7 10,10 v 0 z"
   id="path538"
   inkscape:connector-curvature="0"
   style="fill:#000000;stroke:none" />
         <path
   d="m 14493,14113 -3,-20 -18,-8 -17,-12 -13,-13 -8,-8 -15,10 8,13 17,13 18,13 23,12 -3,-20 8,18 25,-8 -25,-10 z"
   id="path540"
   inkscape:connector-curvature="0"
   style="fill:#000000;stroke:none" />
         <path
   d="m 14493,14118 h 2 l -2,-2 v -3 -2 2 l -11,-20 -5,8 -5,7 v 8 l 3,13 h 2 z"
   id="path542"
   inkscape:connector-curvature="0"
   style="fill:#000000;stroke:none" />
         <path
   d="m 14373,14167 v 0 l 33,18 28,7 23,-2 18,-11 15,-12 8,-16 2,-17 -7,-16 -16,11 3,5 -3,12 -2,11 -10,7 -13,5 -18,3 -23,-8 -28,-13 v 0 z"
   id="path544"
   inkscape:connector-curvature="0"
   style="fill:#000000;stroke:none" />
         <path
   d="m 14246,14162 -20,-3 15,41 23,23 h 25 l 23,-16 23,-15 20,-15 13,-8 5,-2 10,-16 -20,-2 -18,13 -20,15 -23,15 -18,10 h -15 l -13,-12 -10,-31 -20,-2 20,2 -7,-38 -13,36 z"
   id="path546"
   inkscape:connector-curvature="0"
   style="fill:#000000;stroke:none" />
         <path
   d="m 14355,14238 h -2 l -38,8 h -31 l -20,-8 -13,-8 -7,-10 -5,-15 2,-23 5,-20 -20,-5 -5,25 -3,23 5,20 13,21 23,12 25,8 h 31 l 43,-8 h -3 z"
   id="path548"
   inkscape:connector-curvature="0"
   style="fill:#000000;stroke:none" />
         <path
   d="m 14480,14248 -10,-10 h -15 l -13,-3 h -15 l -16,-2 h -15 l -13,2 h -15 l -13,3 v 20 l 13,-2 h 15 l 13,-3 h 15 l 16,3 h 15 l 13,2 h 15 l -10,-10 h 20 l 2,-10 h -12 z"
   id="path550"
   inkscape:connector-curvature="0"
   style="fill:#000000;stroke:none" />
         <path
   d="m 14333,14345 v 0 h 30 l 25,-5 26,-5 20,-13 18,-13 13,-18 10,-20 5,-23 h -20 l -5,18 -6,15 -12,13 -13,13 -15,7 -21,5 -25,5 h -30 v 0 z"
   id="path552"
   inkscape:connector-curvature="0"
   style="fill:#000000;stroke:none" />
         <path
   d="m 14274,14340 15,2 h 16 l 15,3 h 13 v -21 h -13 l -15,-2 h -16 l -15,-3 z"
   id="path554"
   inkscape:connector-curvature="0"
   style="fill:#000000;stroke:none" />
         <path
   d="m 14274,14319 -7,3 -3,7 3,8 7,3 z"
   id="path556"
   inkscape:connector-curvature="0"
   style="fill:#000000;stroke:none" />
         <path
   d="m 14165,13979 13,-23 20,-21 20,-12 23,-11 26,-5 20,-2 h 20 l 15,2 13,5 13,6 15,5 13,2 12,5 h 11 l 10,-2 7,-5 5,-8 8,-5 8,-5 10,-5 15,-3 18,-2 23,-3 h 28 5 l 7,3 h 8 l 5,2 -28,-28 -30,-20 -33,-13 -33,-10 -33,-3 h -33 l -33,5 -31,8 -30,13 -28,15 -23,15 -21,18 -17,21 -10,20 -8,20 z"
   id="path558"
   inkscape:connector-curvature="0"
   style="fill:#f2ccbf;stroke:none" />
         <path
   d="m 14325,13897 v 0 l -18,-2 h -20 l -20,2 -28,5 -26,13 -20,13 -23,23 -15,25 20,5 10,-20 18,-18 20,-13 21,-7 23,-5 20,-3 h 20 l 13,3 v 0 z"
   id="path560"
   inkscape:connector-curvature="0"
   style="fill:#000000;stroke:none" />
         <path
   d="m 14409,13918 v 0 h -3 l -7,2 h -11 l -10,-5 -12,-3 -16,-5 -12,-5 -13,-5 -5,21 13,5 12,5 16,5 12,2 15,5 h 11 l 12,-2 13,-10 v 0 z"
   id="path562"
   inkscape:connector-curvature="0"
   style="fill:#000000;stroke:none" />
         <path
   d="m 14531,13882 v 0 h -28 l -23,2 -18,3 -18,3 -12,7 -8,5 -10,5 -5,11 15,10 5,-5 5,-5 8,-6 7,-2 13,-3 18,-2 23,-3 h 28 v 0 z"
   id="path564"
   inkscape:connector-curvature="0"
   style="fill:#000000;stroke:none" />
         <path
   d="m 14549,13902 10,-15 -8,-3 h -8 l -7,-2 h -5 v 20 h 5 l 7,3 h 8 l 3,2 10,-15 -10,15 35,11 -25,-26 z"
   id="path566"
   inkscape:connector-curvature="0"
   style="fill:#000000;stroke:none" />
         <path
   d="m 14155,13976 20,3 v -21 l 8,-18 7,-17 18,-18 18,-18 23,-15 25,-13 31,-13 28,-7 33,-5 h 33 l 33,2 30,10 31,10 30,21 26,25 15,-10 -31,-30 -30,-21 -36,-15 -35,-10 -33,-3 h -33 l -33,5 -33,8 -31,13 -30,17 -23,16 -23,18 -18,22 -13,23 -7,23 v 21 l 20,2 -20,-2 7,43 13,-41 z"
   id="path568"
   inkscape:connector-curvature="0"
   style="fill:#000000;stroke:none" />
         <path
   d="m 14587,14411 -11,-8 -10,-10 -10,-8 -10,-10 -10,-7 -10,-11 -8,-5 -8,-7 -2,18 -3,17 -7,16 -13,12 -15,13 -21,10 -22,8 -28,5 -38,2 -34,3 h -30 l -28,-5 -25,-3 -23,-7 -21,-8 -20,-10 20,28 23,20 28,18 31,13 38,7 h 41 l 48,-7 51,-16 22,-10 23,-7 18,-10 15,-11 16,-7 12,-8 10,-8 z"
   id="path570"
   inkscape:connector-curvature="0"
   style="fill:#000000;stroke:none" />
         <path
   d="m 14521,14345 -18,7 10,8 8,5 10,10 10,8 10,10 10,8 10,10 11,7 10,-15 -10,-7 -11,-11 -10,-7 -10,-10 -10,-8 -10,-10 -8,-5 -5,-8 -18,8 18,-8 -18,-18 v 26 z"
   id="path572"
   inkscape:connector-curvature="0"
   style="fill:#000000;stroke:none" />
         <path
   d="m 14399,14454 v 0 l 30,-5 23,-8 23,-12 18,-13 12,-15 10,-18 3,-20 3,-18 h -21 l -2,18 -3,15 -5,12 -13,11 -12,12 -18,8 -23,8 -25,5 v 0 z"
   id="path574"
   inkscape:connector-curvature="0"
   style="fill:#000000;stroke:none" />
         <path
   d="m 14188,14411 -13,13 23,12 20,8 26,8 25,2 28,5 h 30 l 34,-2 38,-3 v -20 l -38,2 -34,3 h -30 l -28,-5 -25,-3 -21,-7 -20,-8 -18,-8 -12,13 12,-13 -33,-18 21,31 z"
   id="path576"
   inkscape:connector-curvature="0"
   style="fill:#000000;stroke:none" />
         <path
   d="m 14457,14469 v 0 l -51,16 -45,7 h -41 l -36,-7 -28,-11 -28,-17 -20,-18 -20,-28 -15,10 20,28 25,23 28,18 33,15 41,8 h 41 l 50,-8 51,-15 v 0 z"
   id="path578"
   inkscape:connector-curvature="0"
   style="fill:#000000;stroke:none" />
         <path
   d="m 14582,14418 v -15 l -11,8 -10,7 -12,8 -16,8 -15,10 -15,8 -23,7 -23,10 5,21 23,-11 23,-7 20,-13 15,-10 16,-8 12,-7 11,-8 10,-8 v -15 15 l 12,-7 -12,-8 z"
   id="path580"
   inkscape:connector-curvature="0"
   style="fill:#000000;stroke:none" />
         <path
   d="m 13728,14274 -23,-44 -18,-38 -5,-33 10,-25 18,2 h 20 21 20 l 20,3 18,2 15,5 13,8 15,10 18,10 20,13 23,8 26,10 25,5 h 26 l 28,-3 20,-2 h 18 l 12,5 11,8 15,22 20,21 23,18 25,15 28,13 28,10 28,7 28,5 15,3 h 16 l 15,3 h 13 30 l 25,-6 23,-5 18,-10 15,-13 13,-15 8,-18 5,-20 18,20 12,26 8,25 2,26 -2,18 -3,17 -7,16 -13,12 -15,13 -21,10 -22,8 -28,5 -38,2 -34,3 h -30 l -28,-5 -25,-3 -23,-7 -21,-8 -20,-10 -10,-5 -10,-5 -13,-5 -10,-8 -10,-5 -10,-3 -11,-2 -12,-3 h -13 -13 -12 -16 l -30,3 -33,5 -33,2 -36,6 -33,5 -33,2 h -33 -30 l -31,-2 h -35 l -44,2 h -45 l -49,3 -50,2 -54,3 -56,5 -53,2 -53,6 -54,5 -50,5 -49,5 -45,5 -39,5 -35,5 -15,3 -18,2 -15,3 -18,2 -21,5 -17,3 -21,2 -20,3 -33,2 -33,6 -33,2 -33,3 -33,2 -33,3 h -31 l -30,2 h -31 -28 -28 -22 -23 l -21,-2 -15,-3 -15,-2 5,-49 v -51 l -8,-48 -7,-43 h 25 36 l 45,-3 h 49 l 56,-2 h 58 l 59,-3 h 58 36 33 30 l 31,-2 h 25 25 21 15 15 23 25 l 33,-3 h 36 l 41,-2 h 45 l 46,-3 h 51 l 51,-2 h 53 l 53,-3 h 54 53 l 54,-2 z"
   id="path582"
   inkscape:connector-curvature="0"
   style="fill:#59d8d8;stroke:none" />
         <path
   d="m 13692,14123 -7,3 -13,33 5,36 18,40 25,44 16,-11 -21,-43 -18,-35 -5,-31 8,-18 -8,3 v -21 h -2 l -5,3 z"
   id="path584"
   inkscape:connector-curvature="0"
   style="fill:#000000;stroke:none" />
         <path
   d="m 13842,14146 v 0 l -15,-10 -15,-5 -21,-2 -20,-3 h -20 -21 -20 l -18,-3 v 21 l 18,2 h 20 21 20 l 20,3 16,2 15,6 10,5 v 0 z"
   id="path586"
   inkscape:connector-curvature="0"
   style="fill:#000000;stroke:none" />
         <path
   d="m 14018,14197 v 0 l -28,3 h -26 l -23,-5 -25,-10 -23,-8 -18,-10 -18,-10 -15,-11 -10,16 15,10 18,10 23,15 23,8 25,10 28,5 h 26 l 28,-2 v 0 z"
   id="path588"
   inkscape:connector-curvature="0"
   style="fill:#000000;stroke:none" />
         <path
   d="m 14086,14212 v 0 l -13,-10 -17,-7 h -18 l -20,2 v 21 l 20,-3 h 18 l 7,3 8,5 v 0 z"
   id="path590"
   inkscape:connector-curvature="0"
   style="fill:#000000;stroke:none" />
         <path
   d="m 14274,14319 v 0 l -28,-5 -25,-7 -28,-11 -26,-10 -25,-15 -23,-18 -18,-18 -15,-23 -15,11 15,23 23,22 23,18 25,15 31,16 28,10 30,8 28,5 v 0 z"
   id="path592"
   inkscape:connector-curvature="0"
   style="fill:#000000;stroke:none" />
         <path
   d="m 14333,14324 v 0 h -13 l -15,-2 h -16 l -15,-3 v 21 l 15,2 h 16 l 15,3 h 13 v 0 z"
   id="path594"
   inkscape:connector-curvature="0"
   style="fill:#000000;stroke:none" />
         <path
   d="m 14477,14240 -17,8 -5,18 -6,15 -12,13 -13,13 -15,7 -21,5 -25,5 h -30 v 21 h 30 l 25,-5 26,-5 20,-13 18,-13 13,-18 10,-20 5,-23 -18,8 15,-16 -12,-15 -5,23 z"
   id="path596"
   inkscape:connector-curvature="0"
   style="fill:#000000;stroke:none" />
         <path
   d="m 14521,14345 v 0 l -3,-26 -8,-28 -15,-28 -18,-23 -15,16 18,18 10,22 8,23 2,26 v 0 z"
   id="path598"
   inkscape:connector-curvature="0"
   style="fill:#000000;stroke:none" />
         <path
   d="m 14399,14454 v 0 l 30,-5 23,-8 23,-12 18,-13 12,-15 10,-18 3,-20 3,-18 h -21 l -2,18 -3,15 -5,12 -13,11 -12,12 -18,8 -23,8 -25,5 v 0 z"
   id="path600"
   inkscape:connector-curvature="0"
   style="fill:#000000;stroke:none" />
         <path
   d="m 14178,14426 -3,-2 23,12 20,8 26,8 25,2 28,5 h 30 l 34,-2 38,-3 v -20 l -38,2 -34,3 h -30 l -28,-5 -25,-3 -21,-7 -20,-8 -18,-8 -2,-2 z"
   id="path602"
   inkscape:connector-curvature="0"
   style="fill:#000000;stroke:none" />
         <path
   d="m 14132,14401 v 0 l 10,7 15,8 8,5 13,5 5,-20 -8,-5 -13,-5 -10,-3 -10,-8 v 0 z"
   id="path604"
   inkscape:connector-curvature="0"
   style="fill:#000000;stroke:none" />
         <path
   d="m 14040,14390 v 0 h 16 12 13 13 l 12,3 8,3 10,2 8,3 10,-16 -13,-7 -10,-3 -13,-2 -12,-3 h -13 -13 -12 -16 v 0 z"
   id="path606"
   inkscape:connector-curvature="0"
   style="fill:#000000;stroke:none" />
         <path
   d="m 13779,14413 v 0 h 30 33 l 33,-2 33,-5 36,-5 33,-3 33,-5 30,-3 v -20 l -30,3 -33,5 -33,2 -36,5 -33,5 -33,3 h -33 -30 v 0 z"
   id="path608"
   inkscape:connector-curvature="0"
   style="fill:#000000;stroke:none" />
         <path
   d="m 13037,14464 v 0 l 35,-5 39,-5 45,-5 49,-5 50,-5 54,-5 53,-5 53,-3 56,-5 54,-3 50,-2 49,-3 h 45 l 44,-2 h 35 l 31,2 v -20 l -31,-3 h -35 l -44,3 h -45 l -49,3 -50,2 -54,3 -56,5 -53,2 -53,5 -54,5 -50,6 -49,5 -45,5 -39,5 -35,5 v 0 z"
   id="path610"
   inkscape:connector-curvature="0"
   style="fill:#000000;stroke:none" />
         <path
   d="m 12892,14487 v 0 l 20,-2 21,-3 17,-3 21,-5 18,-2 15,-3 18,-2 15,-3 v -20 l -15,2 -18,3 -15,3 -18,2 -21,5 -17,3 -21,2 -20,3 v 0 z"
   id="path612"
   inkscape:connector-curvature="0"
   style="fill:#000000;stroke:none" />
         <path
   d="m 12440,14490 7,10 18,2 15,3 21,2 h 23 22 28 28 31 l 30,-2 h 31 l 33,-3 33,-2 33,-3 33,-2 33,-5 33,-3 v -20 l -33,2 -33,5 -33,3 -33,2 -33,3 -33,3 h -31 l -30,2 h -31 -28 -28 -22 -23 l -21,-2 -15,-3 -13,-3 8,11 h -20 l -3,7 10,3 z"
   id="path614"
   inkscape:connector-curvature="0"
   style="fill:#000000;stroke:none" />
         <path
   d="m 12440,14289 -10,12 7,41 8,48 v 51 l -5,49 h 20 l 5,-49 v -51 l -7,-48 -8,-46 -10,13 v -20 h -13 l 3,12 z"
   id="path616"
   inkscape:connector-curvature="0"
   style="fill:#000000;stroke:none" />
         <path
   d="m 12826,14281 v 0 h -58 l -59,3 h -58 l -56,2 h -49 l -45,3 h -36 -25 v 20 h 25 36 l 45,-2 h 49 l 56,-3 h 58 l 59,-3 h 58 v 0 z"
   id="path618"
   inkscape:connector-curvature="0"
   style="fill:#000000;stroke:none" />
         <path
   d="m 13042,14279 v 0 h -15 -21 -25 -25 l -31,2 h -30 -33 -36 v 20 h 36 33 30 l 31,-2 h 25 25 21 15 v 0 z"
   id="path620"
   inkscape:connector-curvature="0"
   style="fill:#000000;stroke:none" />
         <path
   d="m 13720,14279 8,-16 h -53 l -54,3 h -53 -54 l -53,2 h -53 l -51,3 h -51 l -46,3 h -45 l -41,2 h -36 l -33,3 h -25 -23 -15 v 20 h 15 23 25 l 33,-3 h 36 l 41,-2 h 45 l 46,-3 h 51 l 51,-2 h 53 l 53,-3 h 54 53 l 54,-2 h 53 l 8,-16 -8,16 h 18 l -10,-16 z"
   id="path622"
   inkscape:connector-curvature="0"
   style="fill:#000000;stroke:none" />
         <path
   d="m 12460,14413 -8,3 -2,8 2,7 8,3 z"
   id="path624"
   inkscape:connector-curvature="0"
   style="fill:#000000;stroke:none" />
         <path
   d="m 12592,14424 -15,-3 h -15 l -21,-3 -17,-2 h -21 l -17,-3 h -16 -10 v 21 h 10 16 l 17,2 h 21 l 17,3 21,2 h 15 l 15,3 z"
   id="path626"
   inkscape:connector-curvature="0"
   style="fill:#000000;stroke:none" />
         <path
   d="m 12592,14444 8,-3 2,-7 -2,-8 -8,-2 z"
   id="path628"
   inkscape:connector-curvature="0"
   style="fill:#000000;stroke:none" />
         <path
   d="m 12450,14340 -8,2 -2,8 2,7 8,3 z"
   id="path630"
   inkscape:connector-curvature="0"
   style="fill:#000000;stroke:none" />
         <path
   d="m 12564,14355 h -10 l -13,-3 -15,-2 -18,-3 -15,-2 -18,-3 -12,-2 h -13 v 20 h 13 l 12,3 18,2 15,3 18,2 15,3 13,2 h 10 z"
   id="path632"
   inkscape:connector-curvature="0"
   style="fill:#000000;stroke:none" />
         <path
   d="m 12564,14375 8,-2 2,-8 -2,-8 -8,-2 z"
   id="path634"
   inkscape:connector-curvature="0"
   style="fill:#000000;stroke:none" />
         <path
   d="m 13685,14154 -8,3 -5,5 3,7 5,5 z"
   id="path636"
   inkscape:connector-curvature="0"
   style="fill:#000000;stroke:none" />
         <path
   d="m 13814,14187 -10,-2 -15,-6 -20,-2 -18,-5 -21,-5 -17,-5 -16,-3 -12,-5 -5,20 12,5 16,3 17,5 21,5 23,5 15,3 15,5 10,2 z"
   id="path638"
   inkscape:connector-curvature="0"
   style="fill:#000000;stroke:none" />
         <path
   d="m 13809,14207 8,-2 5,-5 v -8 l -8,-5 z"
   id="path640"
   inkscape:connector-curvature="0"
   style="fill:#000000;stroke:none" />
         <path
   d="m 13700,14207 -8,3 -2,8 2,7 8,3 z"
   id="path642"
   inkscape:connector-curvature="0"
   style="fill:#000000;stroke:none" />
         <path
   d="m 13807,14218 h -11 l -12,-3 h -13 l -13,-3 h -15 l -15,-2 h -15 l -13,-3 v 21 l 13,2 h 15 l 15,3 h 15 l 13,2 h 13 l 12,3 h 11 z"
   id="path644"
   inkscape:connector-curvature="0"
   style="fill:#000000;stroke:none" />
         <path
   d="m 13807,14238 7,-3 3,-7 -3,-8 -7,-2 z"
   id="path646"
   inkscape:connector-curvature="0"
   style="fill:#000000;stroke:none" />
         <path
   d="m 14063,14294 8,-3 5,-5 v -7 l -8,-5 z"
   id="path648"
   inkscape:connector-curvature="0"
   style="fill:#000000;stroke:none" />
         <path
   d="m 13728,14284 h 58 59 51 48 l 41,2 35,3 28,2 15,3 5,-20 -20,-3 -28,-3 -35,-2 -41,-3 h -48 -51 -59 -58 z"
   id="path650"
   inkscape:connector-curvature="0"
   style="fill:#000000;stroke:none" />
         <path
   d="m 13728,14263 -8,3 -2,8 2,7 8,3 z"
   id="path652"
   inkscape:connector-curvature="0"
   style="fill:#000000;stroke:none" />
        </g>
       </g>
      </g>
     </g>
    </g>
   </g>
  </g>
 </g>
</svg>