<?xml version="1.0" encoding="UTF-8" standalone="no"?>
<svg
   xmlns:ooo="http://xml.openoffice.org/svg/export"
   xmlns:dc="http://purl.org/dc/elements/1.1/"
   xmlns:cc="http://creativecommons.org/ns#"
   xmlns:rdf="http://www.w3.org/1999/02/22-rdf-syntax-ns#"
   xmlns:svg="http://www.w3.org/2000/svg"
   xmlns="http://www.w3.org/2000/svg"
   xmlns:sodipodi="http://sodipodi.sourceforge.net/DTD/sodipodi-0.dtd"
   xmlns:inkscape="http://www.inkscape.org/namespaces/inkscape"
   version="1.2"
   width="17.530001mm"
   height="17.91mm"
   viewBox="0 0 1753.0001 1791"
   preserveAspectRatio="xMidYMid"
   xml:space="preserve"
   id="svg104"
   sodipodi:docname="books1.svg"
   style="fill-rule:evenodd;stroke-width:28.22200012;stroke-linejoin:round"
   inkscape:version="0.92.5 (2060ec1f9f, 2020-04-08)"><metadata
   id="metadata108"><rdf:RDF><cc:Work
       rdf:about=""><dc:format>image/svg+xml</dc:format><dc:type
         rdf:resource="http://purl.org/dc/dcmitype/StillImage" /></cc:Work></rdf:RDF></metadata><sodipodi:namedview
   pagecolor="#ffffff"
   bordercolor="#666666"
   borderopacity="1"
   objecttolerance="10"
   gridtolerance="10"
   guidetolerance="10"
   inkscape:pageopacity="0"
   inkscape:pageshadow="2"
   inkscape:window-width="664"
   inkscape:window-height="487"
   id="namedview106"
   showgrid="false"
   inkscape:zoom="0.2102413"
   inkscape:cx="33.146458"
   inkscape:cy="33.82677"
   inkscape:window-x="0"
   inkscape:window-y="0"
   inkscape:window-maximized="0"
   inkscape:current-layer="svg104" />
 <defs
   class="ClipPathGroup"
   id="defs8">
  <clipPath
   id="presentation_clip_path"
   clipPathUnits="userSpaceOnUse">
   <rect
   x="0"
   y="0"
   width="21000"
   height="29700"
   id="rect2" />
  </clipPath>
  <clipPath
   id="presentation_clip_path_shrink"
   clipPathUnits="userSpaceOnUse">
   <rect
   x="21"
   y="29"
   width="20958"
   height="29641"
   id="rect5" />
  </clipPath>
 </defs>
 <defs
   class="TextShapeIndex"
   id="defs12">
  <g
   ooo:slide="id1"
   ooo:id-list="id3"
   id="g10" />
 </defs>
 <defs
   class="EmbeddedBulletChars"
   id="defs44">
  <g
   id="bullet-char-template-57356"
   transform="matrix(4.8828125e-4,0,0,-4.8828125e-4,0,0)">
   <path
   d="M 580,1141 1163,571 580,0 -4,571 Z"
   id="path14"
   inkscape:connector-curvature="0" />
  </g>
  <g
   id="bullet-char-template-57354"
   transform="matrix(4.8828125e-4,0,0,-4.8828125e-4,0,0)">
   <path
   d="M 8,1128 H 1137 V 0 H 8 Z"
   id="path17"
   inkscape:connector-curvature="0" />
  </g>
  <g
   id="bullet-char-template-10146"
   transform="matrix(4.8828125e-4,0,0,-4.8828125e-4,0,0)">
   <path
   d="M 174,0 602,739 174,1481 1456,739 Z M 1358,739 309,1346 659,739 Z"
   id="path20"
   inkscape:connector-curvature="0" />
  </g>
  <g
   id="bullet-char-template-10132"
   transform="matrix(4.8828125e-4,0,0,-4.8828125e-4,0,0)">
   <path
   d="M 2015,739 1276,0 H 717 l 543,543 H 174 v 393 h 1086 l -543,545 h 557 z"
   id="path23"
   inkscape:connector-curvature="0" />
  </g>
  <g
   id="bullet-char-template-10007"
   transform="matrix(4.8828125e-4,0,0,-4.8828125e-4,0,0)">
   <path
   d="m 0,-2 c -7,16 -16,29 -25,39 l 381,530 c -94,256 -141,385 -141,387 0,25 13,38 40,38 9,0 21,-2 34,-5 21,4 42,12 65,25 l 27,-13 111,-251 280,301 64,-25 24,25 c 21,-10 41,-24 62,-43 C 886,937 835,863 770,784 769,783 710,716 594,584 L 774,223 c 0,-27 -21,-55 -63,-84 l 16,-20 C 717,90 699,76 672,76 641,76 570,178 457,381 L 164,-76 c -22,-34 -53,-51 -92,-51 -42,0 -63,17 -64,51 -7,9 -10,24 -10,44 0,9 1,19 2,30 z"
   id="path26"
   inkscape:connector-curvature="0" />
  </g>
  <g
   id="bullet-char-template-10004"
   transform="matrix(4.8828125e-4,0,0,-4.8828125e-4,0,0)">
   <path
   d="M 285,-33 C 182,-33 111,30 74,156 52,228 41,333 41,471 c 0,78 14,145 41,201 34,71 87,106 158,106 53,0 88,-31 106,-94 l 23,-176 c 8,-64 28,-97 59,-98 l 735,706 c 11,11 33,17 66,17 42,0 63,-15 63,-46 V 965 c 0,-36 -10,-64 -30,-84 L 442,47 C 390,-6 338,-33 285,-33 Z"
   id="path29"
   inkscape:connector-curvature="0" />
  </g>
  <g
   id="bullet-char-template-9679"
   transform="matrix(4.8828125e-4,0,0,-4.8828125e-4,0,0)">
   <path
   d="M 813,0 C 632,0 489,54 383,161 276,268 223,411 223,592 c 0,181 53,324 160,431 106,107 249,161 430,161 179,0 323,-54 432,-161 108,-107 162,-251 162,-431 0,-180 -54,-324 -162,-431 C 1136,54 992,0 813,0 Z"
   id="path32"
   inkscape:connector-curvature="0" />
  </g>
  <g
   id="bullet-char-template-8226"
   transform="matrix(4.8828125e-4,0,0,-4.8828125e-4,0,0)">
   <path
   d="m 346,457 c -73,0 -137,26 -191,78 -54,51 -81,114 -81,188 0,73 27,136 81,188 54,52 118,78 191,78 73,0 134,-26 185,-79 51,-51 77,-114 77,-187 0,-75 -25,-137 -76,-188 -50,-52 -112,-78 -186,-78 z"
   id="path35"
   inkscape:connector-curvature="0" />
  </g>
  <g
   id="bullet-char-template-8211"
   transform="matrix(4.8828125e-4,0,0,-4.8828125e-4,0,0)">
   <path
   d="M -4,459 H 1135 V 606 H -4 Z"
   id="path38"
   inkscape:connector-curvature="0" />
  </g>
  <g
   id="bullet-char-template-61548"
   transform="matrix(4.8828125e-4,0,0,-4.8828125e-4,0,0)">
   <path
   d="m 173,740 c 0,163 58,303 173,419 116,115 255,173 419,173 163,0 302,-58 418,-173 116,-116 174,-256 174,-419 0,-163 -58,-303 -174,-418 C 1067,206 928,148 765,148 601,148 462,206 346,322 231,437 173,577 173,740 Z"
   id="path41"
   inkscape:connector-curvature="0" />
  </g>
 </defs>
 <g
   id="g49"
   transform="translate(-9623,-13954)">
  <g
   id="id2"
   class="Master_Slide">
   <g
   id="bg-id2"
   class="Background" />
   <g
   id="bo-id2"
   class="BackgroundObjects" />
  </g>
 </g>
 <g
   class="SlideGroup"
   id="g102"
   transform="translate(-9623,-13954)">
  <g
   id="g100">
   <g
   id="container-id1">
    <g
   id="id1"
   class="Slide"
   clip-path="url(#presentation_clip_path)">
     <g
   class="Page"
   id="g96">
      <g
   class="Graphic"
   id="g94">
       <g
   id="id3">
        <rect
   class="BoundingBox"
   x="9623"
   y="13954"
   width="1753"
   height="1791"
   id="rect51"
   style="fill:none;stroke:none" />
        <path
   d="m 10687,15254 7,3 5,2 5,5 3,5 v 8 l -3,10 -7,5 -10,5 v 247 3 l -3,5 -5,10 -8,10 -10,13 -13,10 -17,10 -23,10 -33,8 -44,10 -51,8 -56,5 -56,2 -50,-2 -46,-8 -36,-13 -10,18 -23,21 -36,17 -45,18 -56,13 -66,8 h -72 l -81,-8 -224,-288 v -1305 h 28 l 31,18 h 15 l 20,3 h 23 l 25,-3 h 26 l 20,-2 18,-3 10,-2 v -39 h 21 l 99,23 v -132 l 28,3 35,2 39,3 h 38 38 l 36,-3 28,-2 20,-3 v -28 l 473,114 v 67 l 36,-13 -3,-5 v -15 -13 l 5,-3 13,5 25,8 36,8 38,12 38,11 33,10 23,5 8,2 5,-2 13,-3 h 13 l 7,3 5,18 16,43 20,66 25,87 h 8 8 l 5,5 2,2 3,8 v 7 l -5,8 -10,5 25,87 28,91 30,99 31,100 31,99 28,99 28,92 25,86 h 8 7 l 8,5 2,3 3,7 v 8 l -5,8 -10,5 25,86 20,66 13,44 5,15 3,5 v 15 l -3,21 -15,17 -15,8 -23,10 -28,10 -33,11 -33,10 -33,7 -33,5 h -28 l -23,-2 -16,-8 -15,-12 -15,-16 -201,-188 -140,-445 -25,8 z"
   id="path53"
   inkscape:connector-curvature="0"
   style="fill:#000000;stroke:none" />
        <path
   d="m 11030,14361 -59,-191 -20,13 -28,13 -30,12 -33,13 -36,10 -38,10 -36,6 -38,2 56,191 h 36 l 40,-3 38,-7 41,-10 36,-16 30,-12 26,-16 z"
   id="path55"
   inkscape:connector-curvature="0"
   style="fill:#b20000;stroke:none" />
        <path
   d="m 11279,15203 -23,18 -30,15 -33,13 -36,13 -38,10 -36,7 -33,3 -28,3 51,175 18,13 33,7 46,-2 48,-10 49,-13 38,-20 23,-23 5,-26 z"
   id="path57"
   inkscape:connector-curvature="0"
   style="fill:#b20000;stroke:none" />
        <path
   d="m 11262,15142 -16,15 -25,13 -31,15 -35,13 -41,10 -38,8 -38,2 h -36 l -214,-712 28,-2 36,-3 36,-8 38,-10 35,-13 33,-12 31,-16 23,-17 z"
   id="path59"
   inkscape:connector-curvature="0"
   style="fill:#b20000;stroke:none" />
        <path
   d="m 10208,14504 v -308 l -28,12 -35,13 -46,8 -51,5 -54,2 -48,3 h -43 l -36,-3 v 288 l 31,5 40,2 49,-2 h 51 l 48,-5 48,-5 41,-8 z"
   id="path61"
   inkscape:connector-curvature="0"
   style="fill:#007200;stroke:none" />
        <path
   d="m 9867,14814 h 36 l 43,-3 48,-2 49,-5 48,-5 46,-11 41,-7 30,-13 v -229 l -33,10 -41,5 -48,8 -48,3 -51,2 h -49 l -40,-2 -31,-6 z"
   id="path63"
   inkscape:connector-curvature="0"
   style="fill:#007200;stroke:none" />
        <path
   d="m 9867,15081 h 36 43 l 48,-3 49,-5 48,-7 46,-8 41,-10 30,-10 v -229 l -30,10 -41,10 -46,8 -48,7 -49,6 -48,2 h -43 -36 z"
   id="path65"
   inkscape:connector-curvature="0"
   style="fill:#007200;stroke:none" />
        <path
   d="m 9867,15343 44,5 h 45 l 49,-2 48,-8 46,-8 43,-12 36,-13 30,-13 v -214 l -30,11 -41,10 -46,7 -48,6 -49,5 -48,2 h -43 -36 z"
   id="path67"
   inkscape:connector-curvature="0"
   style="fill:#007200;stroke:none" />
        <path
   d="m 9867,15379 44,5 h 45 l 49,-3 48,-5 46,-10 43,-10 36,-13 30,-13 v 285 l -23,21 -35,17 -44,16 -50,10 -54,7 -51,6 h -46 l -38,-6 z"
   id="path69"
   inkscape:connector-curvature="0"
   style="fill:#007200;stroke:none" />
        <path
   d="m 9710,14150 127,66 33,3 35,2 h 39 38 l 38,-2 33,-3 31,-3 20,-5 -229,-66 -10,3 -16,2 -20,3 h -23 l -23,2 h -25 -26 z"
   id="path71"
   inkscape:connector-curvature="0"
   style="fill:#ffe5b7;stroke:none" />
        <path
   d="m 10709,14216 v -74 l 51,-20 158,41 -18,10 -25,10 -31,10 -33,10 -30,8 -31,5 h -25 z"
   id="path73"
   inkscape:connector-curvature="0"
   style="fill:#ffe5b7;stroke:none" />
        <path
   d="m 10786,14491 33,-3 35,-5 41,-7 38,-13 36,-13 30,-13 26,-15 18,-18 -10,-25 -21,18 -25,15 -28,13 -36,12 -35,8 -39,8 -35,5 h -38 l -6,2 -5,3 -2,5 v 5 l 2,8 3,5 8,2 z"
   id="path75"
   inkscape:connector-curvature="0"
   style="fill:#ffe5b7;stroke:none" />
        <path
   d="m 11017,15269 33,-2 38,-8 39,-8 38,-10 35,-12 31,-13 25,-15 18,-16 -7,-28 -21,18 -25,15 -31,13 -33,13 -38,7 -38,8 -36,5 h -38 l -5,3 -5,5 -3,5 v 5 l 3,5 5,5 8,3 z"
   id="path77"
   inkscape:connector-curvature="0"
   style="fill:#ffe5b7;stroke:none" />
        <path
   d="m 10091,14018 20,2 h 23 26 28 l 25,-2 26,-3 20,-5 13,-5 297,71 -33,3 -43,2 h -48 l -51,3 h -48 -44 l -33,-3 -18,-2 z"
   id="path79"
   inkscape:connector-curvature="0"
   style="fill:#ffe5b7;stroke:none" />
        <path
   d="m 10236,14366 h 51 59 56 l 58,-5 56,-2 48,-6 41,-5 31,-7 25,-3 13,3 5,5 2,2 v 3 l -2,8 -8,10 -18,10 -10,2 -12,3 -21,2 -23,3 -28,3 -28,2 -33,3 -33,2 h -33 l -33,3 -33,2 h -31 l -30,3 h -26 l -25,-3 h -18 z"
   id="path81"
   inkscape:connector-curvature="0"
   style="fill:#ffe5b7;stroke:none" />
        <path
   d="m 10236,14844 h 51 59 56 l 58,-5 56,-2 48,-5 41,-5 31,-8 25,-3 h 13 l 5,6 2,2 v 3 l -2,10 -8,10 -18,10 -10,3 -12,2 -21,3 -23,2 -28,3 -28,2 -33,3 -33,2 h -33 l -33,3 -33,3 h -31 l -30,2 h -26 l -25,-2 h -18 z"
   id="path83"
   inkscape:connector-curvature="0"
   style="fill:#ffe5b7;stroke:none" />
        <path
   d="m 10236,15300 51,2 56,-2 59,-3 58,-2 56,-5 48,-5 41,-8 31,-5 23,-3 h 10 l 2,5 v 3 2 8 l -7,8 -18,10 -8,2 -13,3 -15,3 -20,2 -23,5 -23,3 -28,2 -28,3 -30,2 -31,3 -33,2 -33,3 h -31 -33 -30 l -31,-3 z"
   id="path85"
   inkscape:connector-curvature="0"
   style="fill:#ffe5b7;stroke:none" />
        <path
   d="m 9954,14325 h 23 25 31 l 28,-2 30,-3 26,-2 20,-5 13,-3 v 166 l -21,5 -25,5 -28,5 h -31 l -30,2 h -26 -20 -15 z"
   id="path87"
   inkscape:connector-curvature="0"
   style="fill:#ffdda5;stroke:none" />
        <path
   d="m 9954,14885 h 23 25 l 31,-2 28,-3 30,-5 26,-5 20,-3 13,-5 v 158 l -21,5 -25,5 -28,5 -31,5 -30,3 -26,2 h -20 -15 z"
   id="path89"
   inkscape:connector-curvature="0"
   style="fill:#ffdda5;stroke:none" />
        <path
   d="m 9954,15430 h 23 l 25,-3 31,-5 28,-5 30,-5 26,-5 20,-5 13,-6 v 194 l -26,7 -23,8 -25,8 -23,5 -25,2 -23,5 h -26 l -25,3 z"
   id="path91"
   inkscape:connector-curvature="0"
   style="fill:#ffdda5;stroke:none" />
       </g>
      </g>
     </g>
    </g>
   </g>
  </g>
 </g>
</svg>