<?xml version="1.0" encoding="UTF-8" standalone="no"?>
<svg
   xmlns:ooo="http://xml.openoffice.org/svg/export"
   xmlns:dc="http://purl.org/dc/elements/1.1/"
   xmlns:cc="http://creativecommons.org/ns#"
   xmlns:rdf="http://www.w3.org/1999/02/22-rdf-syntax-ns#"
   xmlns:svg="http://www.w3.org/2000/svg"
   xmlns="http://www.w3.org/2000/svg"
   xmlns:sodipodi="http://sodipodi.sourceforge.net/DTD/sodipodi-0.dtd"
   xmlns:inkscape="http://www.inkscape.org/namespaces/inkscape"
   version="1.2"
   width="57.18mm"
   height="50.290001mm"
   viewBox="0 0 5718 5029.0001"
   preserveAspectRatio="xMidYMid"
   xml:space="preserve"
   id="svg115"
   sodipodi:docname="bow1.svg"
   style="fill-rule:evenodd;stroke-width:28.22200012;stroke-linejoin:round"
   inkscape:version="0.92.5 (2060ec1f9f, 2020-04-08)"><metadata
   id="metadata119"><rdf:RDF><cc:Work
       rdf:about=""><dc:format>image/svg+xml</dc:format><dc:type
         rdf:resource="http://purl.org/dc/dcmitype/StillImage" /></cc:Work></rdf:RDF></metadata><sodipodi:namedview
   pagecolor="#ffffff"
   bordercolor="#666666"
   borderopacity="1"
   objecttolerance="10"
   gridtolerance="10"
   guidetolerance="10"
   inkscape:pageopacity="0"
   inkscape:pageshadow="2"
   inkscape:window-width="664"
   inkscape:window-height="487"
   id="namedview117"
   showgrid="false"
   inkscape:zoom="0.2102413"
   inkscape:cx="108.05669"
   inkscape:cy="95.017321"
   inkscape:window-x="0"
   inkscape:window-y="0"
   inkscape:window-maximized="0"
   inkscape:current-layer="svg115" />
 <defs
   class="ClipPathGroup"
   id="defs8">
  <clipPath
   id="presentation_clip_path"
   clipPathUnits="userSpaceOnUse">
   <rect
   x="0"
   y="0"
   width="21000"
   height="29700"
   id="rect2" />
  </clipPath>
  <clipPath
   id="presentation_clip_path_shrink"
   clipPathUnits="userSpaceOnUse">
   <rect
   x="21"
   y="29"
   width="20958"
   height="29641"
   id="rect5" />
  </clipPath>
 </defs>
 <defs
   class="TextShapeIndex"
   id="defs12">
  <g
   ooo:slide="id1"
   ooo:id-list="id3"
   id="g10" />
 </defs>
 <defs
   class="EmbeddedBulletChars"
   id="defs44">
  <g
   id="bullet-char-template-57356"
   transform="matrix(4.8828125e-4,0,0,-4.8828125e-4,0,0)">
   <path
   d="M 580,1141 1163,571 580,0 -4,571 Z"
   id="path14"
   inkscape:connector-curvature="0" />
  </g>
  <g
   id="bullet-char-template-57354"
   transform="matrix(4.8828125e-4,0,0,-4.8828125e-4,0,0)">
   <path
   d="M 8,1128 H 1137 V 0 H 8 Z"
   id="path17"
   inkscape:connector-curvature="0" />
  </g>
  <g
   id="bullet-char-template-10146"
   transform="matrix(4.8828125e-4,0,0,-4.8828125e-4,0,0)">
   <path
   d="M 174,0 602,739 174,1481 1456,739 Z M 1358,739 309,1346 659,739 Z"
   id="path20"
   inkscape:connector-curvature="0" />
  </g>
  <g
   id="bullet-char-template-10132"
   transform="matrix(4.8828125e-4,0,0,-4.8828125e-4,0,0)">
   <path
   d="M 2015,739 1276,0 H 717 l 543,543 H 174 v 393 h 1086 l -543,545 h 557 z"
   id="path23"
   inkscape:connector-curvature="0" />
  </g>
  <g
   id="bullet-char-template-10007"
   transform="matrix(4.8828125e-4,0,0,-4.8828125e-4,0,0)">
   <path
   d="m 0,-2 c -7,16 -16,29 -25,39 l 381,530 c -94,256 -141,385 -141,387 0,25 13,38 40,38 9,0 21,-2 34,-5 21,4 42,12 65,25 l 27,-13 111,-251 280,301 64,-25 24,25 c 21,-10 41,-24 62,-43 C 886,937 835,863 770,784 769,783 710,716 594,584 L 774,223 c 0,-27 -21,-55 -63,-84 l 16,-20 C 717,90 699,76 672,76 641,76 570,178 457,381 L 164,-76 c -22,-34 -53,-51 -92,-51 -42,0 -63,17 -64,51 -7,9 -10,24 -10,44 0,9 1,19 2,30 z"
   id="path26"
   inkscape:connector-curvature="0" />
  </g>
  <g
   id="bullet-char-template-10004"
   transform="matrix(4.8828125e-4,0,0,-4.8828125e-4,0,0)">
   <path
   d="M 285,-33 C 182,-33 111,30 74,156 52,228 41,333 41,471 c 0,78 14,145 41,201 34,71 87,106 158,106 53,0 88,-31 106,-94 l 23,-176 c 8,-64 28,-97 59,-98 l 735,706 c 11,11 33,17 66,17 42,0 63,-15 63,-46 V 965 c 0,-36 -10,-64 -30,-84 L 442,47 C 390,-6 338,-33 285,-33 Z"
   id="path29"
   inkscape:connector-curvature="0" />
  </g>
  <g
   id="bullet-char-template-9679"
   transform="matrix(4.8828125e-4,0,0,-4.8828125e-4,0,0)">
   <path
   d="M 813,0 C 632,0 489,54 383,161 276,268 223,411 223,592 c 0,181 53,324 160,431 106,107 249,161 430,161 179,0 323,-54 432,-161 108,-107 162,-251 162,-431 0,-180 -54,-324 -162,-431 C 1136,54 992,0 813,0 Z"
   id="path32"
   inkscape:connector-curvature="0" />
  </g>
  <g
   id="bullet-char-template-8226"
   transform="matrix(4.8828125e-4,0,0,-4.8828125e-4,0,0)">
   <path
   d="m 346,457 c -73,0 -137,26 -191,78 -54,51 -81,114 -81,188 0,73 27,136 81,188 54,52 118,78 191,78 73,0 134,-26 185,-79 51,-51 77,-114 77,-187 0,-75 -25,-137 -76,-188 -50,-52 -112,-78 -186,-78 z"
   id="path35"
   inkscape:connector-curvature="0" />
  </g>
  <g
   id="bullet-char-template-8211"
   transform="matrix(4.8828125e-4,0,0,-4.8828125e-4,0,0)">
   <path
   d="M -4,459 H 1135 V 606 H -4 Z"
   id="path38"
   inkscape:connector-curvature="0" />
  </g>
  <g
   id="bullet-char-template-61548"
   transform="matrix(4.8828125e-4,0,0,-4.8828125e-4,0,0)">
   <path
   d="m 173,740 c 0,163 58,303 173,419 116,115 255,173 419,173 163,0 302,-58 418,-173 116,-116 174,-256 174,-419 0,-163 -58,-303 -174,-418 C 1067,206 928,148 765,148 601,148 462,206 346,322 231,437 173,577 173,740 Z"
   id="path41"
   inkscape:connector-curvature="0" />
  </g>
 </defs>
 <g
   id="g49"
   transform="translate(-7641,-12335)">
  <g
   id="id2"
   class="Master_Slide">
   <g
   id="bg-id2"
   class="Background" />
   <g
   id="bo-id2"
   class="BackgroundObjects" />
  </g>
 </g>
 <g
   class="SlideGroup"
   id="g113"
   transform="translate(-7641,-12335)">
  <g
   id="g111">
   <g
   id="container-id1">
    <g
   id="id1"
   class="Slide"
   clip-path="url(#presentation_clip_path)">
     <g
   class="Page"
   id="g107">
      <g
   class="Graphic"
   id="g105">
       <g
   id="id3">
        <rect
   class="BoundingBox"
   x="7641"
   y="12335"
   width="5718"
   height="5029"
   id="rect51"
   style="fill:none;stroke:none" />
        <defs
   id="defs56">
         <clipPath
   id="clip_path_1"
   clipPathUnits="userSpaceOnUse">
          <path
   d="m 7641,12335 h 5717 v 5028 H 7641 Z"
   id="path53"
   inkscape:connector-curvature="0" />
         </clipPath>
        </defs>
        <g
   clip-path="url(#clip_path_1)"
   id="g102">
         <path
   d="m 11621,14673 -38,-41 -41,-51 -43,-58 -43,-61 -41,-66 -38,-64 -33,-63 -26,-59 v 44 l 5,50 11,61 12,66 10,46 13,46 10,48 16,49 12,45 16,46 15,46 15,43 10,30 13,28 10,28 10,23 10,23 11,23 10,18 7,15 18,28 18,28 23,28 25,30 28,28 31,31 30,25 36,28 33,23 38,23 35,18 41,15 38,13 41,7 38,3 41,-3 43,-5 43,-5 41,-2 38,-3 35,-3 h 36 33 l 33,3 31,5 28,3 27,7 28,8 26,8 23,10 25,12 23,13 -51,-51 -48,-45 -48,-44 -46,-38 -51,-33 -48,-30 -51,-26 -53,-25 -28,-10 -26,-10 -28,-11 -25,-10 -28,-10 -26,-15 -30,-13 -28,-18 -33,-23 -33,-22 -36,-31 -38,-33 -40,-38 -46,-46 -48,-51 z"
   id="path58"
   inkscape:connector-curvature="0"
   style="fill:#c94c93;stroke:none" />
         <path
   d="m 11481,13250 -43,2 -38,3 h -38 l -36,-3 -36,-2 -35,-5 -38,-8 -38,-10 53,-33 51,-41 48,-48 46,-53 43,-61 43,-66 43,-72 44,-76 25,-40 28,-39 33,-40 38,-38 41,-36 43,-36 46,-33 51,-30 50,-25 51,-23 54,-21 53,-15 53,-8 54,-5 53,3 51,10 63,53 46,54 28,58 15,59 v 58 l -15,59 -25,58 -38,58 5,-25 -5,-23 -13,-25 -20,-23 -28,-20 -31,-18 -38,-18 -41,-10 -43,-8 -46,-2 -48,5 -48,12 -51,18 -48,26 -46,35 -46,46 -61,74 -48,71 -43,63 -36,59 -33,51 -30,43 -33,35 z"
   id="path60"
   inkscape:connector-curvature="0"
   style="fill:#c94c93;stroke:none" />
         <path
   d="m 9839,12963 -84,7 -71,13 -58,20 -49,23 -35,26 -28,30 -18,28 -10,28 v 36 l 5,43 10,48 13,51 18,51 23,43 25,38 28,28 18,-13 23,-12 28,-13 30,-13 33,-13 36,-10 38,-10 38,-10 38,-8 41,-7 38,-5 38,-3 36,-2 33,2 30,3 28,7 -33,-20 -36,-23 -35,-28 -38,-25 -36,-31 -33,-28 -30,-30 -28,-31 -26,-30 -20,-28 -15,-28 -8,-26 v -22 l 5,-23 15,-18 z"
   id="path62"
   inkscape:connector-curvature="0"
   style="fill:#c94c93;stroke:none" />
         <path
   d="m 9321,14744 46,-51 43,-40 46,-31 48,-25 48,-21 53,-20 56,-20 61,-23 -68,-3 -71,-2 -72,-3 h -68 l -74,3 -71,10 -74,18 -73,25 -77,38 -78,48 -79,61 -79,79 -84,94 -84,115 -86,132 -89,155 -31,46 -38,40 -45,36 -49,30 -53,28 -51,21 -53,17 -51,13 58,-3 h 59 l 58,-2 h 61 l 61,-8 61,-10 66,-18 69,-25 71,-36 76,-48 79,-58 84,-77 89,-91 96,-112 100,-129 z"
   id="path64"
   inkscape:connector-curvature="0"
   style="fill:#c94c93;stroke:none" />
         <path
   d="m 10863,13329 -10,-16 -10,-15 -10,-15 -10,-13 -10,-15 -11,-13 -10,-13 -10,-10 15,-10 16,-7 15,-3 13,-3 15,-2 12,2 h 13 l 10,3 26,13 23,20 20,20 20,26 16,25 15,23 10,20 8,13 12,18 13,5 8,-13 v -33 l -5,-23 -11,-23 -12,-22 -13,-23 -13,-21 -15,-17 -10,-13 -10,-10 28,-8 30,-5 31,-2 30,2 28,3 23,10 18,12 12,18 21,43 23,36 23,28 22,23 18,23 13,23 5,25 -5,30 -5,18 -5,21 -8,17 -10,21 -8,30 -17,28 -26,26 -33,22 -38,18 -41,15 -40,11 -44,7 -43,5 h -38 l -35,-2 -31,-10 -23,-11 -13,-15 -2,-20 8,-25 27,-67 16,-63 5,-53 -3,-39 -5,-12 -5,-13 -5,-13 z"
   id="path66"
   inkscape:connector-curvature="0"
   style="fill:#c94c93;stroke:none" />
         <path
   d="m 11293,13445 -5,18 -5,21 -8,17 -10,21 53,20 54,33 56,41 53,43 51,46 43,43 38,38 28,31 25,30 26,30 28,34 30,30 33,31 36,30 38,31 41,27 43,26 46,23 51,20 53,18 56,15 63,8 64,5 h 71 l 53,-38 46,-44 36,-45 25,-51 18,-51 8,-48 -3,-48 -13,-46 -86,25 -84,8 -79,-3 -79,-12 -76,-23 -76,-31 -74,-35 -73,-38 -72,-44 -73,-40 -74,-41 -71,-38 -74,-33 -76,-26 -76,-20 z"
   id="path68"
   inkscape:connector-curvature="0"
   style="fill:#c94c93;stroke:none" />
         <path
   d="m 12055,16004 -15,-43 -15,-43 -18,-43 -20,-46 -21,-46 -25,-45 -25,-46 -31,-46 -30,-48 -34,-48 -38,-49 -38,-48 -43,-48 -43,-49 -48,-50 -51,-49 -49,-33 -48,-33 -46,-33 -43,-30 -40,-33 -36,-36 -31,-38 -22,-41 7,51 8,59 10,66 10,66 13,63 13,59 10,53 12,38 23,49 28,45 31,46 33,43 35,43 36,44 38,40 41,38 38,39 38,35 36,36 38,33 33,33 33,30 28,28 25,26 46,55 46,64 40,71 36,79 25,86 18,94 5,99 -10,105 15,-51 13,-64 10,-73 8,-87 v -91 l -10,-102 -18,-109 z"
   id="path70"
   inkscape:connector-curvature="0"
   style="fill:#c94c93;stroke:none" />
         <path
   d="m 10497,13646 67,-63 61,-56 53,-48 51,-39 45,-30 41,-23 38,-10 33,2 -5,-12 -5,-13 -5,-13 -8,-12 -30,7 -43,10 -51,8 -51,8 -53,7 -46,3 -38,2 h -23 l -46,3 h -46 l -48,2 h -48 -51 l -51,-2 -53,-3 -51,-5 -28,-7 -30,-3 -33,-2 -36,2 -38,3 -38,5 -41,7 -38,8 -38,10 -38,10 -36,10 -33,13 -30,13 -28,13 -23,12 -18,13 -46,33 -40,33 -36,36 -28,38 -23,38 -15,43 -8,43 3,49 13,48 25,43 33,38 43,33 51,26 58,17 64,8 71,-3 -15,-33 -8,-35 v -36 l 8,-35 15,-36 21,-33 30,-30 41,-31 45,-25 56,-23 66,-21 74,-15 84,-7 91,-5 105,2 z"
   id="path72"
   inkscape:connector-curvature="0"
   style="fill:#c94c93;stroke:none" />
         <path
   d="m 10416,15087 28,-119 15,-135 3,-152 -10,-171 -10,-94 -16,-99 -17,-104 -23,-109 35,-31 33,-35 31,-39 33,-40 30,-41 31,-43 28,-43 30,-41 26,-38 28,-36 25,-33 28,-28 25,-25 23,-18 26,-10 23,-2 -54,78 -43,89 -31,97 -17,109 -8,125 8,142 23,160 38,180 15,97 5,94 -5,97 -15,91 -26,89 -33,86 -43,79 -48,74 -56,68 -61,59 -69,51 -71,38 -74,30 -78,16 -82,5 -81,-10 63,-34 59,-40 56,-46 51,-51 45,-58 44,-69 35,-76 z"
   id="path74"
   inkscape:connector-curvature="0"
   style="fill:#c94c93;stroke:none" />
         <path
   d="m 9250,15555 12,-77 23,-71 31,-63 40,-59 54,-53 61,-46 71,-40 81,-33 -86,-3 -87,13 -83,20 -84,36 -77,45 -73,56 -64,66 -56,79 -45,89 -33,99 -21,109 -5,117 13,130 33,137 51,148 73,155 16,-34 15,-30 15,-28 13,-25 13,-23 10,-21 10,-17 8,-13 27,8 31,10 30,7 33,11 34,10 33,7 33,10 30,8 -63,-86 -49,-89 -35,-87 -23,-91 -13,-92 -5,-94 3,-96 z"
   id="path76"
   inkscape:connector-curvature="0"
   style="fill:#c94c93;stroke:none" />
         <path
   d="m 11265,13522 53,20 54,33 56,41 53,43 51,46 43,43 38,38 28,31 69,137 25,132 -8,124 -25,115 -36,104 -30,94 -20,81 5,69 -38,-41 -41,-51 -43,-58 -43,-61 -41,-66 -38,-64 -33,-63 -26,-59 8,-68 13,-79 12,-86 11,-89 v -94 l -13,-94 -31,-92 z"
   id="path78"
   inkscape:connector-curvature="0"
   style="fill:#e099c1;stroke:none" />
         <path
   d="m 12561,15364 -51,-51 -48,-45 -48,-44 -46,-38 -51,-33 -48,-30 -51,-26 -53,-25 78,-8 h 84 l 87,8 91,15 92,26 94,33 91,40 89,48 86,54 82,63 76,72 69,76 58,86 51,89 38,99 28,104 -28,-10 -28,-7 -28,-5 -23,-3 -25,-3 -20,-2 -21,-3 -18,-2 -22,40 -18,46 -13,61 v 74 l -15,-46 -23,-48 -26,-48 -27,-49 -33,-50 -39,-49 -38,-51 -38,-48 -43,-46 -41,-45 -40,-44 -44,-40 -38,-38 -40,-36 -36,-33 z"
   id="path80"
   inkscape:connector-curvature="0"
   style="fill:#e099c1;stroke:none" />
         <path
   d="m 11293,13445 5,-27 -5,-26 -13,-20 -15,-21 -20,-22 -23,-28 -23,-33 -20,-41 38,10 38,8 35,5 36,2 36,3 h 38 l 38,-3 43,-2 63,-8 64,-10 64,-13 63,-15 64,-18 63,-20 61,-23 59,-25 58,-28 53,-28 54,-31 48,-33 43,-33 41,-33 38,-38 31,-36 38,-58 25,-58 15,-59 v -58 l -15,-59 -28,-58 -46,-54 -63,-53 h 25 l 28,5 26,15 28,18 25,26 28,28 25,30 26,33 28,36 25,35 26,33 28,33 25,31 25,28 28,23 26,17 7,77 -5,76 -20,71 -31,71 -40,66 -51,61 -59,56 -66,54 -35,22 -36,23 -35,23 -38,18 -39,20 -40,15 -38,16 -41,12 -41,11 -40,10 -41,7 -41,5 -40,3 -41,3 -41,-3 -38,-3 -35,-5 -33,-2 -36,-5 -36,-5 -33,-5 -35,-5 -33,-6 -33,-5 -33,-5 -33,-5 -31,-2 -30,-3 -31,-2 -28,-3 -28,-3 z"
   id="path82"
   inkscape:connector-curvature="0"
   style="fill:#e099c1;stroke:none" />
         <path
   d="m 10782,13219 10,10 10,13 11,13 10,15 10,13 10,15 10,15 10,16 -30,7 -43,10 -51,8 -51,8 -53,7 -46,3 -38,2 h -23 l -18,-25 -25,-31 -31,-30 -33,-33 -40,-36 -44,-35 -45,-33 -49,-36 -51,-30 -50,-31 -51,-25 -54,-26 -50,-17 -51,-13 -51,-8 -46,-2 -84,7 -71,13 -58,20 -49,23 -35,26 -28,30 -18,28 -10,28 13,-76 15,-79 13,-81 15,-82 10,-76 10,-68 3,-59 -3,-46 49,-15 50,-13 54,-7 58,-5 59,-3 63,5 61,8 61,13 64,15 58,23 61,28 56,33 53,40 51,46 46,51 41,58 35,54 41,53 41,48 43,46 45,46 44,43 43,41 z"
   id="path84"
   inkscape:connector-curvature="0"
   style="fill:#e099c1;stroke:none" />
         <path
   d="m 10452,14510 -10,-94 -16,-99 -17,-104 -23,-109 -26,38 -30,35 -36,36 -38,30 -43,33 -46,28 -46,28 -48,26 -48,25 -49,23 -48,23 -48,18 -43,20 -41,15 -41,16 -33,15 -61,23 -56,20 -53,20 -48,21 -48,25 -46,31 -43,40 -46,51 53,5 61,3 66,2 69,-5 74,-5 76,-8 79,-10 78,-12 79,-18 79,-18 79,-20 76,-26 71,-25 69,-31 63,-30 z"
   id="path86"
   inkscape:connector-curvature="0"
   style="fill:#e099c1;stroke:none" />
         <path
   d="m 8124,15514 51,-13 53,-17 51,-21 53,-28 49,-30 45,-36 38,-40 31,-46 -46,5 -43,5 -43,2 h -41 -41 l -40,-2 -38,-3 -38,-7 -39,-8 -35,-13 -36,-12 -35,-18 -33,-20 -33,-23 -31,-26 -30,-30 7,61 v 53 l -10,46 -8,41 -25,20 -30,20 -31,21 -33,17 -36,18 -30,15 -31,11 -25,7 30,3 28,2 31,5 28,3 28,5 28,5 28,5 30,5 28,5 31,3 28,5 33,2 30,3 h 33 33 z"
   id="path88"
   inkscape:connector-curvature="0"
   style="fill:#e099c1;stroke:none" />
         <path
   d="m 11453,14800 -15,-43 -15,-46 -16,-46 -12,-45 -16,-49 -10,-48 -13,-46 -10,-46 -33,51 -30,66 -26,74 -17,79 -11,81 -5,74 5,68 16,56 22,41 31,38 36,36 40,33 43,30 46,33 48,33 49,33 -41,-63 -28,-61 -23,-61 -12,-56 -8,-56 -3,-53 3,-54 z"
   id="path90"
   inkscape:connector-curvature="0"
   style="fill:#e099c1;stroke:none" />
         <path
   d="m 12068,16696 15,-51 13,-64 10,-73 8,-87 v -91 l -10,-102 -18,-109 -31,-115 64,112 58,132 49,150 35,166 18,180 -10,193 -41,208 -74,219 -7,-33 -8,-38 -13,-41 -10,-40 -10,-39 -13,-33 -7,-28 -8,-20 h -20 l -23,-2 -23,-3 -23,-3 -23,-2 h -20 -18 l -15,5 33,-51 28,-53 23,-51 20,-53 18,-51 13,-48 12,-44 z"
   id="path92"
   inkscape:connector-curvature="0"
   style="fill:#e099c1;stroke:none" />
         <path
   d="m 12431,13324 -35,22 -36,23 -35,23 -38,18 -39,20 -40,15 -38,16 -41,12 -41,11 -40,10 -41,7 -41,5 -40,3 -41,3 -41,-3 -38,-3 66,3 64,3 63,5 56,5 56,7 54,11 48,12 48,15 43,18 38,23 39,23 33,28 30,30 28,33 23,39 20,43 13,46 3,48 -8,48 -18,51 -25,51 -36,45 -46,44 -53,38 74,-38 63,-36 56,-28 51,-28 43,-20 41,-15 33,-11 30,-5 26,-20 25,-28 23,-33 23,-41 18,-43 12,-46 8,-50 v -51 l -8,-51 -20,-53 -30,-49 -44,-48 -58,-43 -74,-41 -89,-33 -109,-28 z"
   id="path94"
   inkscape:connector-curvature="0"
   style="fill:#e099c1;stroke:none" />
         <path
   d="m 10841,13601 27,-67 16,-63 5,-53 -3,-39 -33,-2 -38,10 -41,23 -45,30 -51,39 -53,48 -61,56 -67,63 -30,23 -31,23 -33,25 -33,26 -38,25 -38,26 -41,28 -43,22 -45,26 -49,23 -51,23 -53,20 -56,20 -58,18 -61,13 -64,12 -71,3 -64,-8 -58,-17 -51,-26 -43,-33 -33,-38 -25,-43 -13,-48 -8,129 10,99 16,82 17,71 31,30 36,26 43,25 48,20 53,16 56,12 61,8 64,2 66,-2 68,-8 69,-15 69,-20 68,-31 69,-35 69,-44 66,-50 35,-31 33,-35 31,-39 33,-40 30,-43 31,-41 28,-43 30,-41 26,-38 28,-38 25,-31 28,-30 25,-23 23,-18 26,-10 z"
   id="path96"
   inkscape:connector-curvature="0"
   style="fill:#e099c1;stroke:none" />
         <path
   d="m 10035,15545 63,-34 59,-40 56,-46 51,-51 45,-58 44,-69 35,-76 28,-84 -46,23 -43,20 -43,13 -43,8 -43,5 h -44 l -43,-3 -46,-2 -48,-5 -48,-8 -51,-8 -53,-5 -56,-7 -59,-3 -61,-2 h -66 l -81,33 -71,40 -61,46 -54,53 -40,59 -31,63 -23,71 -12,77 38,-31 40,-23 41,-20 43,-15 46,-10 46,-8 48,-3 h 48 l 51,3 51,8 53,7 54,13 56,15 56,15 55,18 z"
   id="path98"
   inkscape:connector-curvature="0"
   style="fill:#e099c1;stroke:none" />
         <path
   d="m 10973,13184 10,10 10,13 15,17 13,21 13,23 12,22 11,23 5,23 v 33 l -8,13 -13,-5 -12,-18 -8,-13 -10,-20 -15,-23 -16,-25 -20,-26 -20,-20 -23,-20 -26,-13 16,-3 12,-2 h 10 l 11,-3 10,-2 7,-3 h 8 z"
   id="path100"
   inkscape:connector-curvature="0"
   style="fill:#e099c1;stroke:none" />
        </g>
       </g>
      </g>
     </g>
    </g>
   </g>
  </g>
 </g>
</svg>