<?xml version="1.0" encoding="UTF-8" standalone="no"?>
<svg
   xmlns:ooo="http://xml.openoffice.org/svg/export"
   xmlns:dc="http://purl.org/dc/elements/1.1/"
   xmlns:cc="http://creativecommons.org/ns#"
   xmlns:rdf="http://www.w3.org/1999/02/22-rdf-syntax-ns#"
   xmlns:svg="http://www.w3.org/2000/svg"
   xmlns="http://www.w3.org/2000/svg"
   xmlns:sodipodi="http://sodipodi.sourceforge.net/DTD/sodipodi-0.dtd"
   xmlns:inkscape="http://www.inkscape.org/namespaces/inkscape"
   version="1.2"
   width="30.48mm"
   height="25.5mm"
   viewBox="0 0 3048 2550"
   preserveAspectRatio="xMidYMid"
   xml:space="preserve"
   id="svg125"
   sodipodi:docname="bowling6.svg"
   style="fill-rule:evenodd;stroke-width:28.22200012;stroke-linejoin:round"
   inkscape:version="0.92.5 (2060ec1f9f, 2020-04-08)"><metadata
   id="metadata129"><rdf:RDF><cc:Work
       rdf:about=""><dc:format>image/svg+xml</dc:format><dc:type
         rdf:resource="http://purl.org/dc/dcmitype/StillImage" /></cc:Work></rdf:RDF></metadata><sodipodi:namedview
   pagecolor="#ffffff"
   bordercolor="#666666"
   borderopacity="1"
   objecttolerance="10"
   gridtolerance="10"
   guidetolerance="10"
   inkscape:pageopacity="0"
   inkscape:pageshadow="2"
   inkscape:window-width="664"
   inkscape:window-height="487"
   id="namedview127"
   showgrid="false"
   inkscape:zoom="0.2102413"
   inkscape:cx="57.600001"
   inkscape:cy="48.188975"
   inkscape:window-x="0"
   inkscape:window-y="0"
   inkscape:window-maximized="0"
   inkscape:current-layer="svg125" />
 <defs
   class="ClipPathGroup"
   id="defs8">
  <clipPath
   id="presentation_clip_path"
   clipPathUnits="userSpaceOnUse">
   <rect
   x="0"
   y="0"
   width="21000"
   height="29700"
   id="rect2" />
  </clipPath>
  <clipPath
   id="presentation_clip_path_shrink"
   clipPathUnits="userSpaceOnUse">
   <rect
   x="21"
   y="29"
   width="20958"
   height="29641"
   id="rect5" />
  </clipPath>
 </defs>
 <defs
   class="TextShapeIndex"
   id="defs12">
  <g
   ooo:slide="id1"
   ooo:id-list="id3"
   id="g10" />
 </defs>
 <defs
   class="EmbeddedBulletChars"
   id="defs44">
  <g
   id="bullet-char-template-57356"
   transform="matrix(4.8828125e-4,0,0,-4.8828125e-4,0,0)">
   <path
   d="M 580,1141 1163,571 580,0 -4,571 Z"
   id="path14"
   inkscape:connector-curvature="0" />
  </g>
  <g
   id="bullet-char-template-57354"
   transform="matrix(4.8828125e-4,0,0,-4.8828125e-4,0,0)">
   <path
   d="M 8,1128 H 1137 V 0 H 8 Z"
   id="path17"
   inkscape:connector-curvature="0" />
  </g>
  <g
   id="bullet-char-template-10146"
   transform="matrix(4.8828125e-4,0,0,-4.8828125e-4,0,0)">
   <path
   d="M 174,0 602,739 174,1481 1456,739 Z M 1358,739 309,1346 659,739 Z"
   id="path20"
   inkscape:connector-curvature="0" />
  </g>
  <g
   id="bullet-char-template-10132"
   transform="matrix(4.8828125e-4,0,0,-4.8828125e-4,0,0)">
   <path
   d="M 2015,739 1276,0 H 717 l 543,543 H 174 v 393 h 1086 l -543,545 h 557 z"
   id="path23"
   inkscape:connector-curvature="0" />
  </g>
  <g
   id="bullet-char-template-10007"
   transform="matrix(4.8828125e-4,0,0,-4.8828125e-4,0,0)">
   <path
   d="m 0,-2 c -7,16 -16,29 -25,39 l 381,530 c -94,256 -141,385 -141,387 0,25 13,38 40,38 9,0 21,-2 34,-5 21,4 42,12 65,25 l 27,-13 111,-251 280,301 64,-25 24,25 c 21,-10 41,-24 62,-43 C 886,937 835,863 770,784 769,783 710,716 594,584 L 774,223 c 0,-27 -21,-55 -63,-84 l 16,-20 C 717,90 699,76 672,76 641,76 570,178 457,381 L 164,-76 c -22,-34 -53,-51 -92,-51 -42,0 -63,17 -64,51 -7,9 -10,24 -10,44 0,9 1,19 2,30 z"
   id="path26"
   inkscape:connector-curvature="0" />
  </g>
  <g
   id="bullet-char-template-10004"
   transform="matrix(4.8828125e-4,0,0,-4.8828125e-4,0,0)">
   <path
   d="M 285,-33 C 182,-33 111,30 74,156 52,228 41,333 41,471 c 0,78 14,145 41,201 34,71 87,106 158,106 53,0 88,-31 106,-94 l 23,-176 c 8,-64 28,-97 59,-98 l 735,706 c 11,11 33,17 66,17 42,0 63,-15 63,-46 V 965 c 0,-36 -10,-64 -30,-84 L 442,47 C 390,-6 338,-33 285,-33 Z"
   id="path29"
   inkscape:connector-curvature="0" />
  </g>
  <g
   id="bullet-char-template-9679"
   transform="matrix(4.8828125e-4,0,0,-4.8828125e-4,0,0)">
   <path
   d="M 813,0 C 632,0 489,54 383,161 276,268 223,411 223,592 c 0,181 53,324 160,431 106,107 249,161 430,161 179,0 323,-54 432,-161 108,-107 162,-251 162,-431 0,-180 -54,-324 -162,-431 C 1136,54 992,0 813,0 Z"
   id="path32"
   inkscape:connector-curvature="0" />
  </g>
  <g
   id="bullet-char-template-8226"
   transform="matrix(4.8828125e-4,0,0,-4.8828125e-4,0,0)">
   <path
   d="m 346,457 c -73,0 -137,26 -191,78 -54,51 -81,114 -81,188 0,73 27,136 81,188 54,52 118,78 191,78 73,0 134,-26 185,-79 51,-51 77,-114 77,-187 0,-75 -25,-137 -76,-188 -50,-52 -112,-78 -186,-78 z"
   id="path35"
   inkscape:connector-curvature="0" />
  </g>
  <g
   id="bullet-char-template-8211"
   transform="matrix(4.8828125e-4,0,0,-4.8828125e-4,0,0)">
   <path
   d="M -4,459 H 1135 V 606 H -4 Z"
   id="path38"
   inkscape:connector-curvature="0" />
  </g>
  <g
   id="bullet-char-template-61548"
   transform="matrix(4.8828125e-4,0,0,-4.8828125e-4,0,0)">
   <path
   d="m 173,740 c 0,163 58,303 173,419 116,115 255,173 419,173 163,0 302,-58 418,-173 116,-116 174,-256 174,-419 0,-163 -58,-303 -174,-418 C 1067,206 928,148 765,148 601,148 462,206 346,322 231,437 173,577 173,740 Z"
   id="path41"
   inkscape:connector-curvature="0" />
  </g>
 </defs>
 <g
   id="g49"
   transform="translate(-8976,-13575)">
  <g
   id="id2"
   class="Master_Slide">
   <g
   id="bg-id2"
   class="Background" />
   <g
   id="bo-id2"
   class="BackgroundObjects" />
  </g>
 </g>
 <g
   class="SlideGroup"
   id="g123"
   transform="translate(-8976,-13575)">
  <g
   id="g121">
   <g
   id="container-id1">
    <g
   id="id1"
   class="Slide"
   clip-path="url(#presentation_clip_path)">
     <g
   class="Page"
   id="g117">
      <g
   class="Graphic"
   id="g115">
       <g
   id="id3">
        <rect
   class="BoundingBox"
   x="8976"
   y="13575"
   width="3048"
   height="2550"
   id="rect51"
   style="fill:none;stroke:none" />
        <defs
   id="defs56">
         <clipPath
   id="clip_path_1"
   clipPathUnits="userSpaceOnUse">
          <path
   d="m 8976,13575 h 3047 v 2549 H 8976 Z"
   id="path53"
   inkscape:connector-curvature="0" />
         </clipPath>
        </defs>
        <g
   clip-path="url(#clip_path_1)"
   id="g112">
         <path
   d="m 9957,13791 138,-183 83,158 84,-79 26,66 132,-178 51,163 84,-110 -26,112 153,-150 -43,199 116,-92 44,84 165,-79 -99,168 203,-74 -66,158 130,7 -38,64 213,-48 -119,157 203,13 -127,86 76,28 -58,59 206,102 -143,109 94,71 -61,36 199,96 -150,79 119,66 -112,-7 173,127 -201,-8 54,66 -61,28 147,209 -183,-69 69,173 -130,-26 56,87 -147,53 94,140 -166,-41 -2,95 -69,10 43,165 -150,-127 -25,203 -76,-135 -36,77 -61,-46 -107,186 -96,-128 -49,82 -61,-74 -106,191 -72,-155 -71,117 13,-112 -135,165 18,-198 -71,51 -26,-64 -216,137 77,-180 -176,58 115,-104 -183,-5 15,-102 -196,66 48,-162 -94,-8 -5,-69 -167,33 134,-142 -201,-36 138,-71 -74,-35 64,-51 -194,-125 153,-91 -84,-79 64,-31 -186,-117 158,-63 -112,-76 109,17 -158,-145 199,31 -46,-74 63,-20 -124,-226 175,89 -48,-181 102,74 -31,-158 112,79 -25,-234 160,59 15,-94 h 66 l -20,-171 132,148 48,-201 61,142 46,-94 z"
   id="path58"
   inkscape:connector-curvature="0"
   style="fill:#ffe500;stroke:none" />
         <path
   d="m 9873,15212 77,-381 109,-361 409,-282 148,-382 203,-84 206,31 48,361 -234,229 -162,724 -562,305 z"
   id="path60"
   inkscape:connector-curvature="0"
   style="fill:#ffffff;stroke:none" />
         <path
   d="m 10420,14284 -336,247 -91,302 -36,372 148,119 511,-297 137,-499 48,-218 211,-219 -23,-295 -145,-23 -157,54 -115,264 -71,125 z"
   id="path62"
   inkscape:connector-curvature="0"
   style="fill:#000000;stroke:none" />
         <path
   d="m 10717,14305 -23,71 -122,-102 39,-46 z"
   id="path64"
   inkscape:connector-curvature="0"
   style="fill:#ffffff;stroke:none" />
         <path
   d="m 10654,14134 112,-244 81,-58 71,18 5,223 -122,140 z"
   id="path66"
   inkscape:connector-curvature="0"
   style="fill:#ffffff;stroke:none" />
         <path
   d="m 10481,14343 196,165 -127,470 -410,255 -117,-79 49,-346 84,-231 z"
   id="path68"
   inkscape:connector-curvature="0"
   style="fill:#ffffff;stroke:none" />
         <path
   d="m 9126,14470 53,-300 120,-53 259,61 41,58 117,338 203,216 224,173 61,547 -270,173 -455,-354 -150,-640 z"
   id="path70"
   inkscape:connector-curvature="0"
   style="fill:#ffffff;stroke:none" />
         <path
   d="m 9540,15329 -145,-610 -231,-287 74,-257 272,38 48,41 79,307 79,110 193,155 186,157 58,494 -183,137 z"
   id="path72"
   inkscape:connector-curvature="0"
   style="fill:#000000;stroke:none" />
         <path
   d="m 9451,14683 122,-58 -33,-61 -119,89 z"
   id="path74"
   inkscape:connector-curvature="0"
   style="fill:#ffffff;stroke:none" />
         <path
   d="m 9256,14411 114,150 145,-106 -53,-188 h -166 z"
   id="path76"
   inkscape:connector-curvature="0"
   style="fill:#ffffff;stroke:none" />
         <path
   d="m 9589,15238 343,262 102,-79 -31,-412 -320,-308 -183,99 z"
   id="path78"
   inkscape:connector-curvature="0"
   style="fill:#ffffff;stroke:none" />
         <path
   d="m 10356,14767 222,-190 231,-49 224,21 172,56 125,71 122,48 92,204 111,442 -142,320 -254,209 -364,15 -312,-92 -290,-269 -41,-163 -20,-264 z"
   id="path80"
   inkscape:connector-curvature="0"
   style="fill:#ffffff;stroke:none" />
         <path
   d="m 10433,14747 183,-119 124,-39 272,-12 41,12 53,21 64,25 66,26 61,30 56,26 41,25 20,18 15,30 23,51 31,69 30,79 28,81 23,79 13,71 2,53 -7,49 -13,56 -13,55 -15,56 -13,51 -13,43 -10,34 -7,15 -13,15 -26,25 -33,34 -38,38 -40,35 -33,33 -26,21 -13,10 -15,2 -30,5 -41,3 -46,5 -45,5 -39,5 -28,3 h -10 l -15,-3 -38,-5 -54,-7 -66,-11 -66,-12 -61,-13 -48,-15 -31,-13 -25,-23 -41,-38 -53,-48 -53,-54 -54,-53 -46,-46 -33,-36 -15,-17 -10,-56 -15,-102 -10,-109 2,-74 10,-33 21,-53 25,-64 25,-66 28,-66 21,-54 18,-38 z"
   id="path82"
   inkscape:connector-curvature="0"
   style="fill:#000000;stroke:none" />
         <path
   d="m 10603,14734 2,-2 11,-5 15,-8 20,-10 21,-10 20,-8 23,-8 18,-5 -77,64 z"
   id="path84"
   inkscape:connector-curvature="0"
   style="fill:#ffffff;stroke:none" />
         <path
   d="m 10860,14935 h 2 8 13 12 l 16,3 12,2 13,3 8,2 2,66 -66,39 -43,-49 z"
   id="path86"
   inkscape:connector-curvature="0"
   style="fill:#ffffff;stroke:none" />
         <path
   d="m 11061,14846 53,-7 38,55 -23,41 -56,10 -23,-33 z"
   id="path88"
   inkscape:connector-curvature="0"
   style="fill:#ffffff;stroke:none" />
         <path
   d="m 11076,15024 86,-5 38,53 -33,51 -71,8 -33,-41 z"
   id="path90"
   inkscape:connector-curvature="0"
   style="fill:#ffffff;stroke:none" />
         <path
   d="m 10916,15545 28,-10 40,-18 46,-20 48,-23 46,-20 43,-21 33,-17 23,-10 -28,27 -25,31 -26,25 -25,26 -28,23 -36,23 -43,17 -53,18 z"
   id="path92"
   inkscape:connector-curvature="0"
   style="fill:#ffffff;stroke:none" />
         <path
   d="m 11338,15589 28,-74 22,-79 18,-69 5,-40 49,-21 -3,31 -5,35 -10,39 -13,40 -18,41 -20,36 -25,33 z"
   id="path94"
   inkscape:connector-curvature="0"
   style="fill:#ffffff;stroke:none" />
         <path
   d="m 10544,15433 11,21 15,25 18,28 20,31 20,28 23,25 21,23 17,15 -53,61 -15,-23 -16,-28 -15,-33 -12,-33 -11,-38 -10,-35 -7,-33 z"
   id="path96"
   inkscape:connector-curvature="0"
   style="fill:#ffffff;stroke:none" />
         <path
   d="m 10509,13794 84,25 -82,239 z"
   id="path98"
   inkscape:connector-curvature="0"
   style="fill:#000000;stroke:none" />
         <path
   d="m 8996,14233 74,41 -18,92 10,78 69,133 -48,-36 -107,-127 z"
   id="path100"
   inkscape:connector-curvature="0"
   style="fill:#000000;stroke:none" />
         <path
   d="m 9927,14340 112,102 -44,43 z"
   id="path102"
   inkscape:connector-curvature="0"
   style="fill:#000000;stroke:none" />
         <path
   d="m 11584,14867 226,33 -218,78 z"
   id="path104"
   inkscape:connector-curvature="0"
   style="fill:#000000;stroke:none" />
         <path
   d="m 11645,15065 201,56 178,35 -186,5 -193,31 z"
   id="path106"
   inkscape:connector-curvature="0"
   style="fill:#000000;stroke:none" />
         <path
   d="m 10044,14404 -59,-188 110,155 z"
   id="path108"
   inkscape:connector-curvature="0"
   style="fill:#000000;stroke:none" />
         <path
   d="m 10875,14325 315,-236 21,22 z"
   id="path110"
   inkscape:connector-curvature="0"
   style="fill:#000000;stroke:none" />
        </g>
       </g>
      </g>
     </g>
    </g>
   </g>
  </g>
 </g>
</svg>