<?xml version="1.0" encoding="UTF-8" standalone="no"?>
<svg
   xmlns:ooo="http://xml.openoffice.org/svg/export"
   xmlns:dc="http://purl.org/dc/elements/1.1/"
   xmlns:cc="http://creativecommons.org/ns#"
   xmlns:rdf="http://www.w3.org/1999/02/22-rdf-syntax-ns#"
   xmlns:svg="http://www.w3.org/2000/svg"
   xmlns="http://www.w3.org/2000/svg"
   xmlns:sodipodi="http://sodipodi.sourceforge.net/DTD/sodipodi-0.dtd"
   xmlns:inkscape="http://www.inkscape.org/namespaces/inkscape"
   version="1.2"
   width="28.65mm"
   height="31.059999mm"
   viewBox="0 0 2865 3105.9999"
   preserveAspectRatio="xMidYMid"
   xml:space="preserve"
   id="svg203"
   sodipodi:docname="boxmove.svg"
   style="fill-rule:evenodd;stroke-width:28.22200012;stroke-linejoin:round"
   inkscape:version="0.92.5 (2060ec1f9f, 2020-04-08)"><metadata
   id="metadata207"><rdf:RDF><cc:Work
       rdf:about=""><dc:format>image/svg+xml</dc:format><dc:type
         rdf:resource="http://purl.org/dc/dcmitype/StillImage" /></cc:Work></rdf:RDF></metadata><sodipodi:namedview
   pagecolor="#ffffff"
   bordercolor="#666666"
   borderopacity="1"
   objecttolerance="10"
   gridtolerance="10"
   guidetolerance="10"
   inkscape:pageopacity="0"
   inkscape:pageshadow="2"
   inkscape:window-width="664"
   inkscape:window-height="487"
   id="namedview205"
   showgrid="false"
   inkscape:zoom="0.2102413"
   inkscape:cx="54.160631"
   inkscape:cy="58.696061"
   inkscape:window-x="0"
   inkscape:window-y="0"
   inkscape:window-maximized="0"
   inkscape:current-layer="svg203" />
 <defs
   class="ClipPathGroup"
   id="defs8">
  <clipPath
   id="presentation_clip_path"
   clipPathUnits="userSpaceOnUse">
   <rect
   x="0"
   y="0"
   width="21000"
   height="29700"
   id="rect2" />
  </clipPath>
  <clipPath
   id="presentation_clip_path_shrink"
   clipPathUnits="userSpaceOnUse">
   <rect
   x="21"
   y="29"
   width="20958"
   height="29641"
   id="rect5" />
  </clipPath>
 </defs>
 <defs
   class="TextShapeIndex"
   id="defs12">
  <g
   ooo:slide="id1"
   ooo:id-list="id3"
   id="g10" />
 </defs>
 <defs
   class="EmbeddedBulletChars"
   id="defs44">
  <g
   id="bullet-char-template-57356"
   transform="matrix(4.8828125e-4,0,0,-4.8828125e-4,0,0)">
   <path
   d="M 580,1141 1163,571 580,0 -4,571 Z"
   id="path14"
   inkscape:connector-curvature="0" />
  </g>
  <g
   id="bullet-char-template-57354"
   transform="matrix(4.8828125e-4,0,0,-4.8828125e-4,0,0)">
   <path
   d="M 8,1128 H 1137 V 0 H 8 Z"
   id="path17"
   inkscape:connector-curvature="0" />
  </g>
  <g
   id="bullet-char-template-10146"
   transform="matrix(4.8828125e-4,0,0,-4.8828125e-4,0,0)">
   <path
   d="M 174,0 602,739 174,1481 1456,739 Z M 1358,739 309,1346 659,739 Z"
   id="path20"
   inkscape:connector-curvature="0" />
  </g>
  <g
   id="bullet-char-template-10132"
   transform="matrix(4.8828125e-4,0,0,-4.8828125e-4,0,0)">
   <path
   d="M 2015,739 1276,0 H 717 l 543,543 H 174 v 393 h 1086 l -543,545 h 557 z"
   id="path23"
   inkscape:connector-curvature="0" />
  </g>
  <g
   id="bullet-char-template-10007"
   transform="matrix(4.8828125e-4,0,0,-4.8828125e-4,0,0)">
   <path
   d="m 0,-2 c -7,16 -16,29 -25,39 l 381,530 c -94,256 -141,385 -141,387 0,25 13,38 40,38 9,0 21,-2 34,-5 21,4 42,12 65,25 l 27,-13 111,-251 280,301 64,-25 24,25 c 21,-10 41,-24 62,-43 C 886,937 835,863 770,784 769,783 710,716 594,584 L 774,223 c 0,-27 -21,-55 -63,-84 l 16,-20 C 717,90 699,76 672,76 641,76 570,178 457,381 L 164,-76 c -22,-34 -53,-51 -92,-51 -42,0 -63,17 -64,51 -7,9 -10,24 -10,44 0,9 1,19 2,30 z"
   id="path26"
   inkscape:connector-curvature="0" />
  </g>
  <g
   id="bullet-char-template-10004"
   transform="matrix(4.8828125e-4,0,0,-4.8828125e-4,0,0)">
   <path
   d="M 285,-33 C 182,-33 111,30 74,156 52,228 41,333 41,471 c 0,78 14,145 41,201 34,71 87,106 158,106 53,0 88,-31 106,-94 l 23,-176 c 8,-64 28,-97 59,-98 l 735,706 c 11,11 33,17 66,17 42,0 63,-15 63,-46 V 965 c 0,-36 -10,-64 -30,-84 L 442,47 C 390,-6 338,-33 285,-33 Z"
   id="path29"
   inkscape:connector-curvature="0" />
  </g>
  <g
   id="bullet-char-template-9679"
   transform="matrix(4.8828125e-4,0,0,-4.8828125e-4,0,0)">
   <path
   d="M 813,0 C 632,0 489,54 383,161 276,268 223,411 223,592 c 0,181 53,324 160,431 106,107 249,161 430,161 179,0 323,-54 432,-161 108,-107 162,-251 162,-431 0,-180 -54,-324 -162,-431 C 1136,54 992,0 813,0 Z"
   id="path32"
   inkscape:connector-curvature="0" />
  </g>
  <g
   id="bullet-char-template-8226"
   transform="matrix(4.8828125e-4,0,0,-4.8828125e-4,0,0)">
   <path
   d="m 346,457 c -73,0 -137,26 -191,78 -54,51 -81,114 -81,188 0,73 27,136 81,188 54,52 118,78 191,78 73,0 134,-26 185,-79 51,-51 77,-114 77,-187 0,-75 -25,-137 -76,-188 -50,-52 -112,-78 -186,-78 z"
   id="path35"
   inkscape:connector-curvature="0" />
  </g>
  <g
   id="bullet-char-template-8211"
   transform="matrix(4.8828125e-4,0,0,-4.8828125e-4,0,0)">
   <path
   d="M -4,459 H 1135 V 606 H -4 Z"
   id="path38"
   inkscape:connector-curvature="0" />
  </g>
  <g
   id="bullet-char-template-61548"
   transform="matrix(4.8828125e-4,0,0,-4.8828125e-4,0,0)">
   <path
   d="m 173,740 c 0,163 58,303 173,419 116,115 255,173 419,173 163,0 302,-58 418,-173 116,-116 174,-256 174,-419 0,-163 -58,-303 -174,-418 C 1067,206 928,148 765,148 601,148 462,206 346,322 231,437 173,577 173,740 Z"
   id="path41"
   inkscape:connector-curvature="0" />
  </g>
 </defs>
 <g
   id="g49"
   transform="translate(-9067,-13297)">
  <g
   id="id2"
   class="Master_Slide">
   <g
   id="bg-id2"
   class="Background" />
   <g
   id="bo-id2"
   class="BackgroundObjects" />
  </g>
 </g>
 <g
   class="SlideGroup"
   id="g201"
   transform="translate(-9067,-13297)">
  <g
   id="g199">
   <g
   id="container-id1">
    <g
   id="id1"
   class="Slide"
   clip-path="url(#presentation_clip_path)">
     <g
   class="Page"
   id="g195">
      <g
   class="Graphic"
   id="g193">
       <g
   id="id3">
        <rect
   class="BoundingBox"
   x="9067"
   y="13297"
   width="2865"
   height="3106"
   id="rect51"
   style="fill:none;stroke:none" />
        <defs
   id="defs56">
         <clipPath
   id="clip_path_1"
   clipPathUnits="userSpaceOnUse">
          <path
   d="m 9067,13297 h 2864 v 3105 H 9067 Z"
   id="path53"
   inkscape:connector-curvature="0" />
         </clipPath>
        </defs>
        <g
   clip-path="url(#clip_path_1)"
   id="g190">
         <path
   d="m 11749,15544 183,424 -816,354 -186,-427 z"
   id="path58"
   inkscape:connector-curvature="0"
   style="fill:#99594c;stroke:none" />
         <path
   d="m 11528,15923 56,43 145,-193 -66,-41 z"
   id="path60"
   inkscape:connector-curvature="0"
   style="fill:#b20019;stroke:none" />
         <path
   d="m 11424,15038 233,544 -727,313 -233,-544 z"
   id="path62"
   inkscape:connector-curvature="0"
   style="fill:#d8aa8c;stroke:none" />
         <path
   d="m 11195,15463 66,152 -282,122 -66,-152 z"
   id="path64"
   inkscape:connector-curvature="0"
   style="fill:#006600;stroke:none" />
         <path
   d="m 11180,15503 43,97 -229,96 -43,-94 z"
   id="path66"
   inkscape:connector-curvature="0"
   style="fill:#ffffff;stroke:none" />
         <path
   d="m 11312,15524 -402,-87 25,-122 402,89 z"
   id="path68"
   inkscape:connector-curvature="0"
   style="fill:#c10a00;stroke:none" />
         <path
   d="m 11436,14842 69,163 -778,333 -71,-163 z"
   id="path70"
   inkscape:connector-curvature="0"
   style="fill:#991e00;stroke:none" />
         <path
   d="m 10447,14771 178,417 354,-150 -183,-419 z"
   id="path72"
   inkscape:connector-curvature="0"
   style="fill:#cc8e66;stroke:none" />
         <path
   d="m 10719,14926 49,110 -97,40 -48,-109 z"
   id="path74"
   inkscape:connector-curvature="0"
   style="fill:#007fe5;stroke:none" />
         <path
   d="m 10755,14756 84,196 -142,63 -87,-198 z"
   id="path76"
   inkscape:connector-curvature="0"
   style="fill:#ffffff;stroke:none" />
         <path
   d="m 11009,14304 265,607 -295,127 -267,-607 z"
   id="path78"
   inkscape:connector-curvature="0"
   style="fill:#995933;stroke:none" />
         <path
   d="m 11004,14789 99,-84 117,140 -99,84 z"
   id="path80"
   inkscape:connector-curvature="0"
   style="fill:#e0ad7a;stroke:none" />
         <path
   d="m 11665,16116 -8,2 -17,8 -31,13 -35,17 -46,18 -49,21 -50,22 -54,23 -53,23 -54,23 -48,20 -43,21 -36,15 -28,13 -17,7 -8,3 -8,-15 -20,-49 -30,-71 -39,-91 -48,-112 -53,-122 -59,-135 -58,-137 -59,-137 -58,-138 -56,-127 -51,-114 -43,-102 -36,-81 -23,-56 -12,-28 -23,-38 -23,-20 -28,-8 h -28 l -25,10 -26,13 -20,10 -18,10 -25,3 -13,-13 v -18 l 18,-15 15,-8 20,-7 23,-11 23,-7 23,-8 23,-7 18,-3 12,3 18,7 15,10 16,8 10,13 10,12 8,13 10,18 7,18 641,1487 539,-234 15,-3 5,8 v 13 z"
   id="path82"
   inkscape:connector-curvature="0"
   style="fill:#bfccd8;stroke:none" />
         <path
   d="m 11111,16365 -33,10 -36,5 -35,-5 -31,-8 -33,-17 -25,-21 -23,-25 -18,-33 -10,-33 -5,-36 5,-35 7,-33 18,-31 21,-25 25,-23 33,-18 33,-10 36,-5 33,5 33,7 30,18 28,21 23,25 18,33 10,33 5,36 -5,33 -8,33 -17,30 -21,28 -25,23 z"
   id="path84"
   inkscape:connector-curvature="0"
   style="fill:#000000;stroke:none" />
         <path
   d="m 11085,16306 -22,8 -23,3 -21,-3 -20,-8 -20,-10 -18,-12 -15,-18 -11,-21 -7,-22 -3,-23 3,-21 5,-20 10,-20 13,-18 18,-15 20,-11 23,-7 23,-3 20,3 23,5 20,10 18,13 13,18 12,20 8,23 3,23 -3,20 -8,23 -10,20 -12,18 -18,13 z"
   id="path86"
   inkscape:connector-curvature="0"
   style="fill:#7f99b2;stroke:none" />
         <path
   d="m 10636,14461 -11,3 -7,-3 -8,-5 -2,-8 -3,-7 3,-8 5,-7 7,-6 8,-5 15,-7 18,-13 23,-15 20,-13 18,-13 15,-10 8,-2 h 15 l 23,-3 h 20 l 16,-2 h 5 7 l 8,2 5,5 13,8 15,13 15,12 3,10 -5,5 -8,3 -5,-3 h -8 l -10,-2 -10,-3 -10,-5 h -8 l -10,3 -18,5 -18,8 -15,5 -15,10 -20,13 -21,12 -15,8 -13,5 -20,2 -15,6 z"
   id="path88"
   inkscape:connector-curvature="0"
   style="fill:#cc998c;stroke:none" />
         <path
   d="m 10648,14433 -2,-7 -8,-3 -8,-3 h -7 l -8,6 -5,5 -2,7 v 10 l 5,8 7,3 8,2 h 8 l 7,-5 5,-5 3,-8 z"
   id="path90"
   inkscape:connector-curvature="0"
   style="fill:#cc998c;stroke:none" />
         <path
   d="m 10625,14461 h 5 6 l 5,-2 5,-3 5,-8 v -7 l -3,-8 -5,-7 -10,-8 -10,-8 -10,-7 -13,-8 -13,-8 -13,-7 -12,-8 -15,-10 -16,-10 -18,-13 -17,-13 -18,-12 -18,-13 -15,-13 -15,-12 -13,-11 -23,-17 -23,-13 -23,-13 -20,-10 -20,-8 -16,-5 -10,-7 -7,-5 -16,-21 -15,-25 -20,-26 -23,-30 -26,-31 -30,-30 -33,-33 -36,-33 -12,-15 -21,-23 -18,-26 -15,-15 -38,-23 -36,-5 -30,8 -23,18 -18,27 -2,31 10,33 25,31 21,17 22,23 23,23 26,25 25,26 21,23 17,18 16,12 12,13 18,13 20,17 21,16 20,18 20,15 13,10 10,8 13,10 18,10 15,13 20,10 13,7 15,8 18,10 21,10 22,11 23,12 23,10 21,11 22,12 26,10 28,11 25,10 28,10 26,5 25,5 z"
   id="path92"
   inkscape:connector-curvature="0"
   style="fill:#cc998c;stroke:none" />
         <path
   d="m 10646,14456 5,-8 v -7 l -3,-8 -5,-7 -7,-6 h -8 l -8,3 -7,5 -5,8 v 5 l 2,7 5,8 8,5 h 7 8 z"
   id="path94"
   inkscape:connector-curvature="0"
   style="fill:#cc998c;stroke:none" />
         <path
   d="m 9967,13960 5,-7 v -8 l -3,-7 -5,-8 -7,-5 h -5 l -8,2 -8,5 -5,8 v 8 7 l 5,8 8,5 h 8 l 7,-3 z"
   id="path96"
   inkscape:connector-curvature="0"
   style="fill:#cc998c;stroke:none" />
         <path
   d="m 9962,13846 13,3 12,2 16,8 12,7 15,11 16,15 15,15 15,20 15,21 16,20 15,18 13,15 12,13 11,12 7,11 5,5 13,15 20,20 18,23 13,21 7,12 11,10 12,8 11,5 5,13 -11,20 -17,28 -18,23 -15,15 -13,15 -13,13 -23,18 -28,-23 -28,-20 -23,-21 -22,-20 -18,-18 -15,-15 -13,-13 -10,-12 -13,-13 -23,-20 -28,-26 -30,-30 -28,-36 -23,-35 -13,-41 -2,-41 5,-23 7,-15 10,-15 13,-10 15,-5 18,-3 18,-3 z"
   id="path98"
   inkscape:connector-curvature="0"
   style="fill:#3893d1;stroke:none" />
         <path
   d="m 9944,13343 28,-13 25,-8 28,-2 26,5 23,13 23,15 20,23 18,28 7,18 8,17 2,13 3,10 v 8 l 3,10 5,10 2,8 v 10 8 l -2,10 -3,7 -2,3 v 5 3 5 l 2,7 5,10 v 16 l -2,17 -8,18 -5,21 -8,17 -5,13 -2,8 -5,7 -3,8 v 8 l -5,7 -8,13 -17,10 -26,3 -5,15 -5,18 -8,17 -7,21 -10,18 -13,15 -13,15 -18,10 -10,3 -13,2 -12,-2 -10,-5 -13,-8 -8,-10 -7,-13 -3,-15 3,-33 5,-36 7,-33 v -30 l -10,-38 -13,-38 -12,-39 -8,-45 v -49 l 8,-50 18,-46 z"
   id="path100"
   inkscape:connector-curvature="0"
   style="fill:#cc998c;stroke:none" />
         <path
   d="m 9995,13422 10,-3 5,-5 5,-5 3,-8 -3,-10 -5,-5 -5,-5 -10,-3 -8,3 -5,5 -5,5 -2,10 2,8 5,5 5,5 z"
   id="path102"
   inkscape:connector-curvature="0"
   style="fill:#cc998c;stroke:none" />
         <path
   d="m 9980,13828 7,-2 8,-5 2,-5 3,-11 -3,-7 -2,-8 -8,-2 -7,-3 -11,3 -5,2 -5,8 -2,7 2,11 5,5 5,5 z"
   id="path104"
   inkscape:connector-curvature="0"
   style="fill:#cc998c;stroke:none" />
         <path
   d="m 10071,13732 -10,-3 -15,-2 -10,-6 -8,-2 -3,-3 h -2 v 0 l 2,3 8,2 10,6 15,5 11,2 h 2 z"
   id="path106"
   inkscape:connector-curvature="0"
   style="fill:#000000;stroke:none" />
         <path
   d="m 10061,13638 10,-3 10,-5 8,-3 10,-2 10,-3 h 8 5 l 3,3 h 5 l 2,5 v 3 l -2,2 -3,3 v 2 3 5 l -2,7 -6,11 -5,10 -10,2 h -10 l -10,-5 -8,-7 -5,-6 -2,-5 -5,-5 -3,-2 -3,-3 -2,-2 v -3 -2 z"
   id="path108"
   inkscape:connector-curvature="0"
   style="fill:#b20000;stroke:none" />
         <path
   d="m 10066,13640 8,-2 10,-3 h 10 10 8 5 5 v 3 5 5 l -5,7 -5,3 -5,2 h -8 l -8,-2 -7,-3 -5,-2 -5,-3 -5,-5 h -3 -2 v -2 0 z"
   id="path110"
   inkscape:connector-curvature="0"
   style="fill:#ffffff;stroke:none" />
         <path
   d="m 10094,13597 h 3 5 2 l 5,2 h 5 5 l 6,-2 2,-3 3,-2 2,-3 h 3 l -3,5 v 3 l -2,2 -5,3 h -3 -5 l -5,-3 h -5 -3 -2 v 0 h -3 v 3 h -2 v -3 h -3 z"
   id="path112"
   inkscape:connector-curvature="0"
   style="fill:#000000;stroke:none" />
         <path
   d="m 10084,13541 -5,-3 -8,-5 h -10 l -10,3 -8,2 h -5 l -8,3 h -2 v 0 h -3 v 3 h 3 8 7 l 5,2 5,3 3,2 h 5 3 l 5,-2 5,-3 h 2 5 l 5,3 h 3 v 0 -3 z"
   id="path114"
   inkscape:connector-curvature="0"
   style="fill:#000000;stroke:none" />
         <path
   d="m 10150,13536 h 2 6 2 v 0 l -2,2 v 3 3 2 h -3 -3 -2 -3 l -5,3 h -2 l -5,2 h -3 l -5,-2 -2,-3 v -5 l 5,-3 5,-2 5,-3 h 5 z"
   id="path116"
   inkscape:connector-curvature="0"
   style="fill:#000000;stroke:none" />
         <path
   d="m 10135,13511 5,-8 10,-3 8,-2 h 7 l 3,5 v 2 6 l -3,2 -2,-2 -5,-6 h -8 -5 l -3,3 h -2 l -3,3 -2,2 v 0 h -3 v 0 z"
   id="path118"
   inkscape:connector-curvature="0"
   style="fill:#000000;stroke:none" />
         <path
   d="m 10028,13513 -8,5 -2,3 v 0 l 2,-5 5,-3 5,-8 8,-5 5,-2 8,-3 h 13 12 l 8,5 2,3 3,2 v 3 0 h -3 v 0 h -2 l -3,-3 -10,-2 h -13 l -15,2 z"
   id="path120"
   inkscape:connector-curvature="0"
   style="fill:#000000;stroke:none" />
         <path
   d="m 9992,13422 11,-3 7,-3 5,-7 3,-8 -3,-7 -2,-8 -8,-5 -8,-3 -10,3 -5,2 -5,8 -2,8 v 7 l 5,8 5,5 z"
   id="path122"
   inkscape:connector-curvature="0"
   style="fill:#c13300;stroke:none" />
         <path
   d="m 10165,13500 8,-7 10,-13 8,-13 5,-10 2,-10 v -15 l -5,-16 -7,-15 -8,-12 -5,-13 -3,-10 -2,-11 -5,-5 -11,-5 -12,-7 -15,-8 -18,-8 -16,-5 -12,-5 -8,-5 -7,-2 h -11 l -10,-3 -13,3 h -15 l -12,2 h -13 l -10,3 -11,2 h -12 l -13,3 -13,2 -12,5 -11,11 -12,12 -8,18 -8,26 -10,20 -7,15 -10,15 -8,18 -5,23 v 20 l 5,16 8,10 7,10 5,13 5,17 5,21 5,18 6,12 7,10 8,8 7,13 3,12 3,11 2,7 3,3 5,-3 5,-12 2,-18 v -13 l -2,-8 -5,-5 -5,-7 -8,-16 -5,-20 -3,-23 5,-15 11,-8 10,-2 5,5 2,5 5,3 3,-3 3,-10 7,-15 13,-16 15,-12 15,-11 13,-5 13,-5 10,-2 13,-3 10,-2 8,-3 10,-2 7,-5 5,-3 h 3 l -3,5 -5,3 -10,7 -7,5 -11,5 -7,3 -8,2 v 0 l 3,3 5,3 12,2 18,5 21,3 17,-3 16,-5 15,-5 15,-5 10,-8 -2,10 -3,11 -2,7 -3,5 -2,3 v 2 h 2 z"
   id="path124"
   inkscape:connector-curvature="0"
   style="fill:#c13300;stroke:none" />
         <path
   d="m 9792,14662 -34,15 -22,23 -18,31 -10,38 -5,40 v 41 l 2,41 8,38 20,66 28,79 38,89 41,86 38,84 36,74 22,56 13,33 -2,10 -8,18 -13,28 -12,33 -13,38 -13,38 -10,40 -5,41 -3,26 v 25 l 3,28 5,30 8,56 12,84 8,82 v 48 l -8,41 v 40 l 3,33 5,21 13,12 17,10 21,6 12,2 8,-10 5,-26 v -30 -33 l 3,-71 5,-87 10,-91 13,-92 15,-86 13,-76 10,-59 7,-38 18,-28 15,-30 8,-28 v -28 l -5,-26 -5,-28 -8,-33 -5,-35 -5,-61 -7,-92 -11,-101 -15,-92 -30,-117 -33,-86 -34,-64 -33,-41 -33,-25 -30,-10 -28,-3 z"
   id="path126"
   inkscape:connector-curvature="0"
   style="fill:#cc998c;stroke:none" />
         <path
   d="m 9819,14822 8,-3 5,-5 3,-7 v -10 l -3,-8 -5,-5 -8,-3 h -10 l -7,3 -5,8 -3,7 v 8 l 3,7 7,5 5,3 z"
   id="path128"
   inkscape:connector-curvature="0"
   style="fill:#cc998c;stroke:none" />
         <path
   d="m 9944,16243 8,-3 7,-7 3,-8 v -8 l -3,-7 -7,-8 -8,-2 h -8 l -7,2 -8,8 -2,7 v 8 l 2,8 8,7 7,3 z"
   id="path130"
   inkscape:connector-curvature="0"
   style="fill:#cc998c;stroke:none" />
         <path
   d="m 9924,16184 -18,16 -15,30 -11,36 -2,25 2,8 3,10 5,5 8,8 10,5 13,2 15,3 20,-3 26,-2 h 28 28 l 28,2 27,3 26,2 h 23 18 l 22,-5 21,-7 15,-8 3,-8 -8,-7 -15,-5 -21,-3 -17,-2 -11,-3 -12,-5 -18,-8 -18,-10 -18,-10 -17,-8 -16,-7 -10,-5 -10,-5 -13,-11 -15,-7 -15,-10 -16,-8 -15,-5 -15,-3 z"
   id="path132"
   inkscape:connector-curvature="0"
   style="fill:#cc998c;stroke:none" />
         <path
   d="m 9941,16243 8,-3 8,-5 2,-7 3,-8 -3,-8 -5,-7 -7,-3 -8,-2 -8,2 -7,5 -3,8 -2,10 2,8 5,5 8,5 z"
   id="path134"
   inkscape:connector-curvature="0"
   style="fill:#cc998c;stroke:none" />
         <path
   d="m 10028,16220 13,8 15,7 18,8 15,7 18,11 15,5 15,5 13,5 13,2 12,3 13,3 13,5 10,5 8,5 5,7 2,11 -2,10 -5,5 -8,5 -10,5 h -13 l -15,3 h -13 -15 -15 l -21,-3 h -20 l -23,-3 -23,-2 h -25 l -21,-3 h -20 -18 -15 -18 -12 l -16,-2 -10,-3 -10,-5 -8,-5 -5,-20 3,-31 5,-25 5,-15 18,5 18,5 15,7 18,5 15,6 18,2 15,5 13,3 7,-18 5,-15 5,-10 z"
   id="path136"
   inkscape:connector-curvature="0"
   style="fill:#4c0000;stroke:none" />
         <path
   d="m 10214,16337 -13,5 -18,3 h -18 -20 -15 l -21,-3 h -20 l -23,-3 -23,-2 h -25 l -21,-3 h -20 -18 -15 -18 -12 l -16,-2 -10,-3 -10,-5 -8,-5 v 10 l 3,10 v 8 3 l 2,2 h 11 l 12,3 h 16 l 15,2 h 15 18 13 l 2,-7 v -5 l 3,-3 v 0 l 12,3 h 18 l 23,2 23,3 h 25 l 23,2 h 23 18 25 18 l 13,-2 10,-3 h 3 l 2,-2 v -6 z"
   id="path138"
   inkscape:connector-curvature="0"
   style="fill:#000000;stroke:none" />
         <path
   d="m 10036,16223 -6,5 -7,5 -8,7 -10,5 -10,5 -13,6 -13,5 h -12 l -18,-3 -20,-2 -23,-6 -23,-5 -23,-7 -18,-5 -15,-5 -10,-3 10,-142 15,-176 21,-157 12,-89 10,-36 5,-28 6,-20 2,-13 3,-7 2,-8 8,-3 5,-2 5,-3 3,-7 v -8 l -3,-8 -5,-5 -8,-10 -7,-10 -5,-18 -8,-23 -13,-40 -18,-54 -20,-63 -23,-66 -23,-64 -20,-56 -18,-43 -33,-91 -20,-82 -8,-71 5,-61 13,-48 25,-36 33,-20 41,-8 46,5 38,13 31,20 20,23 18,26 12,22 8,21 5,15 8,8 7,7 5,8 v 8 12 l 3,16 5,15 5,13 18,53 15,61 13,69 10,68 8,64 7,58 5,46 3,30 2,39 6,30 2,23 3,18 2,15 3,20 v 21 l -5,25 -16,99 -22,198 -23,224 z"
   id="path140"
   inkscape:connector-curvature="0"
   style="fill:#004cb2;stroke:none" />
         <path
   d="m 9868,14672 -33,-5 -33,8 -31,17 -28,26 -28,33 -20,35 -20,36 -13,36 -18,66 -18,84 -12,94 -13,96 -10,92 -10,79 -8,61 -5,35 -8,8 -18,10 -22,18 -31,20 -31,25 -33,26 -28,30 -25,31 -15,20 -13,23 -15,25 -10,28 -8,21 -13,30 -15,38 -18,41 -20,38 -15,36 -16,28 -10,15 -28,30 -23,34 -15,30 -5,20 5,16 10,20 13,15 10,8 13,-5 15,-18 18,-25 18,-28 38,-61 51,-69 56,-74 58,-71 59,-69 50,-58 41,-43 26,-28 15,-8 13,-7 15,-8 12,-10 13,-10 10,-11 11,-10 5,-12 7,-26 10,-28 11,-30 15,-33 13,-23 15,-31 20,-40 23,-44 23,-45 20,-46 21,-46 15,-41 35,-114 16,-91 5,-72 -8,-53 -15,-38 -20,-26 -23,-15 z"
   id="path142"
   inkscape:connector-curvature="0"
   style="fill:#cc998c;stroke:none" />
         <path
   d="m 9807,14822 7,3 8,-3 8,-5 5,-8 v -7 l -3,-8 -2,-8 -8,-5 h -10 l -8,3 -7,5 -3,8 -2,7 2,8 5,7 z"
   id="path144"
   inkscape:connector-curvature="0"
   style="fill:#cc998c;stroke:none" />
         <path
   d="m 9174,16098 7,3 8,-3 8,-5 5,-8 v -7 l -3,-8 -5,-8 -8,-2 -7,-3 -8,3 -7,5 -3,8 -2,7 2,8 5,7 z"
   id="path146"
   inkscape:connector-curvature="0"
   style="fill:#cc998c;stroke:none" />
         <path
   d="m 9184,16037 h -10 l -13,5 -15,10 -13,10 -15,11 -10,12 -10,10 -6,11 -5,17 5,18 13,18 31,18 23,10 25,15 23,15 23,18 23,18 20,15 20,13 16,8 20,7 20,5 h 18 l 8,-5 -3,-10 -13,-13 -15,-12 -13,-11 -15,-17 -23,-36 -20,-33 -15,-25 -13,-23 -15,-33 -21,-28 z"
   id="path148"
   inkscape:connector-curvature="0"
   style="fill:#cc998c;stroke:none" />
         <path
   d="m 9171,16098 8,3 7,-3 8,-3 5,-7 3,-8 -3,-7 -2,-8 -8,-5 -8,-3 -7,3 -8,2 -5,8 -2,8 2,7 3,8 z"
   id="path150"
   inkscape:connector-curvature="0"
   style="fill:#cc998c;stroke:none" />
         <path
   d="m 9263,16123 7,13 11,15 10,16 12,15 11,15 10,15 10,11 10,10 18,17 20,18 10,21 v 17 l -5,8 -10,3 h -10 l -10,-3 -13,-5 -13,-5 -12,-5 -13,-8 -13,-7 -15,-11 -18,-12 -20,-13 -20,-13 -18,-12 -21,-11 -15,-10 -15,-7 -15,-11 -16,-7 -12,-8 -10,-7 -11,-8 -7,-10 -3,-8 5,-23 18,-23 18,-20 13,-10 12,13 10,15 13,13 13,12 13,10 10,13 12,10 11,8 15,-13 13,-10 7,-5 z"
   id="path152"
   inkscape:connector-curvature="0"
   style="fill:#4c0000;stroke:none" />
         <path
   d="m 9372,16317 -15,-3 -15,-5 -18,-8 -18,-10 -13,-7 -15,-11 -18,-12 -20,-13 -20,-13 -18,-12 -21,-11 -15,-10 -15,-7 -15,-11 -16,-7 -12,-8 -10,-7 -11,-8 -7,-10 -3,-8 -2,10 -5,8 -3,8 v 2 l 3,3 5,5 10,7 13,8 12,8 15,10 13,7 13,8 5,-5 5,-5 3,-3 v 0 l 10,8 15,13 18,12 20,13 20,13 21,12 20,11 15,10 39,20 20,8 8,-3 z"
   id="path154"
   inkscape:connector-curvature="0"
   style="fill:#000000;stroke:none" />
         <path
   d="m 9291,16162 h -16 l -22,-8 -28,-10 -28,-16 -28,-15 -23,-18 -15,-17 -6,-18 16,-23 18,-25 17,-28 18,-28 18,-28 18,-28 12,-28 13,-28 13,-31 15,-33 18,-35 18,-36 17,-35 18,-31 16,-23 12,-18 13,-12 18,-16 20,-17 20,-16 21,-15 18,-15 12,-10 5,-8 5,-10 6,-8 5,-2 7,2 5,3 5,-3 v -7 -13 -10 l 3,-10 2,-8 6,-10 7,-15 5,-26 3,-30 v -31 l 7,-79 18,-139 23,-140 23,-92 13,-28 17,-33 21,-38 25,-38 28,-36 36,-22 38,-13 41,2 38,16 30,20 21,25 12,26 8,28 2,28 3,25 -3,26 -2,28 -5,38 -8,48 -10,58 -20,66 -26,79 -35,89 -46,97 -10,23 -13,28 -13,33 -15,35 -15,33 -13,31 -13,23 -7,12 -21,23 -40,51 -54,66 -61,74 -61,76 -50,66 -39,51 -15,25 -5,13 -8,21 -12,22 -13,23 -15,26 -13,20 -10,18 z"
   id="path156"
   inkscape:connector-curvature="0"
   style="fill:#004cb2;stroke:none" />
         <path
   d="m 9992,13755 h -28 l -30,10 -31,20 -33,28 -30,38 -26,43 -22,51 -18,59 -10,109 7,119 10,107 v 64 l -10,30 -15,33 -20,38 -23,38 -26,39 -20,35 -15,31 -10,28 -6,43 v 40 l 8,36 13,33 20,28 26,23 30,18 38,12 21,3 22,3 26,-3 23,-3 20,-5 18,-5 13,-7 7,-8 5,-13 10,-20 11,-23 12,-28 13,-25 13,-26 7,-23 8,-15 10,-33 15,-46 11,-50 7,-49 3,-56 10,-61 10,-61 15,-56 5,-20 3,-18 v -15 l 2,-5 21,-18 20,-23 15,-23 5,-17 -7,-23 -15,-28 -21,-36 -18,-48 -5,-31 -7,-38 -5,-43 -8,-43 -10,-41 -15,-33 -21,-28 z"
   id="path158"
   inkscape:connector-curvature="0"
   style="fill:#cc998c;stroke:none" />
         <path
   d="m 9947,13968 h 10 l 7,-3 5,-7 3,-8 v -7 l -3,-8 -5,-8 -7,-2 h -10 l -6,2 -7,5 -3,8 v 10 l 3,8 5,7 z"
   id="path160"
   inkscape:connector-curvature="0"
   style="fill:#cc998c;stroke:none" />
         <path
   d="m 9975,13828 h 7 l 8,-2 7,-8 3,-8 v -7 l -3,-8 -5,-7 -7,-3 h -10 l -6,3 -7,7 -3,8 v 7 l 3,8 5,8 z"
   id="path162"
   inkscape:connector-curvature="0"
   style="fill:#cc998c;stroke:none" />
         <path
   d="m 9809,14822 8,3 8,-3 7,-8 3,-7 v -8 l -3,-7 -5,-8 -8,-3 h -10 l -5,3 -7,5 -3,8 v 10 l 3,5 5,7 z"
   id="path164"
   inkscape:connector-curvature="0"
   style="fill:#cc998c;stroke:none" />
         <path
   d="m 10043,14573 -2,28 -11,48 -15,51 -12,33 -3,10 -3,13 -2,13 -5,7 -8,21 -15,38 -20,40 -28,26 -21,7 -25,6 -31,7 -33,3 h -33 l -35,-3 -31,-13 -28,-17 -23,-23 -17,-23 -13,-23 -10,-20 -8,-18 -5,-18 v -15 -15 l 2,-23 3,-18 3,-13 2,-12 3,-11 7,-15 13,-13 13,-17 15,-23 15,-28 15,-31 8,-20 3,-15 2,-13 10,-10 16,-3 5,-5 5,-7 5,-8 2,-8 h 13 l 13,3 10,2 13,3 10,2 10,6 8,5 10,5 10,7 13,5 12,8 16,8 15,7 15,5 13,5 10,3 10,3 10,2 13,3 h 13 l 13,2 12,3 10,2 11,3 5,2 7,5 3,3 v 5 l -3,5 -2,8 -3,7 z"
   id="path166"
   inkscape:connector-curvature="0"
   style="fill:#004cb2;stroke:none" />
         <path
   d="m 9736,14471 5,-5 5,-7 5,-8 2,-8 h 16 l 15,3 15,5 15,5 -5,10 -5,10 -2,11 -3,2 -18,-8 -17,-5 -16,-2 z"
   id="path168"
   inkscape:connector-curvature="0"
   style="fill:#000000;stroke:none" />
         <path
   d="m 9840,14469 10,7 13,5 12,8 16,8 15,7 15,5 13,5 10,3 8,3 h 7 l 8,2 10,3 -5,23 -20,-3 -21,-5 -20,-5 -20,-8 -21,-7 -17,-8 -16,-8 -12,-5 2,-5 3,-7 5,-11 z"
   id="path170"
   inkscape:connector-curvature="0"
   style="fill:#000000;stroke:none" />
         <path
   d="m 10043,14573 v -3 l 3,-7 2,-8 3,-5 v -5 l -3,-3 -7,-5 -5,-2 -8,-3 -10,-2 h -8 l -10,-3 -3,8 v 5 8 l -2,7 15,3 13,5 13,5 z"
   id="path172"
   inkscape:connector-curvature="0"
   style="fill:#000000;stroke:none" />
         <path
   d="m 10051,14550 v -5 l -3,-3 -7,-5 -5,-2 -11,-3 -10,-2 -12,-3 -13,-2 h -13 l -13,-3 -10,-2 -10,-3 -10,-3 -13,-5 -15,-5 -15,-7 -16,-8 -12,-8 -13,-5 -10,-7 -10,-5 -8,-5 -10,-6 -10,-2 -13,-3 -10,-2 -13,-3 h -13 l -7,-2 -8,-8 -7,-10 -6,-8 -5,-7 -7,-10 -5,-8 v -8 l 5,-17 7,-23 8,-26 5,-23 v -48 -84 -79 l 3,-40 12,-26 21,-43 17,-43 11,-28 5,-18 7,-20 13,-21 18,-15 18,-10 12,-13 8,-10 5,-10 3,-8 5,-5 5,-2 h 2 l 3,-15 v -16 l 2,-12 8,-6 h 8 l 10,3 12,3 18,5 16,5 17,5 16,7 12,11 13,10 15,12 13,13 15,13 13,10 10,10 5,5 3,3 -8,13 -5,10 -5,7 v 3 l 10,8 8,10 2,10 -2,7 -5,39 5,58 18,71 33,71 7,18 5,23 -2,28 -13,28 -13,25 -15,41 -18,38 -12,23 -8,8 -5,15 v 15 15 31 l -5,46 -10,38 z"
   id="path174"
   inkscape:connector-curvature="0"
   style="fill:#3893d1;stroke:none" />
         <path
   d="m 10191,14708 -3,-3 -2,-5 -3,-3 -3,-5 v -7 l 3,-8 3,-7 7,-6 h 5 5 l 5,3 h 6 l 10,3 17,5 18,7 18,8 10,5 13,5 13,5 12,5 13,5 10,3 8,5 2,2 3,8 v 5 5 l -5,8 -8,10 -10,15 -13,16 -7,12 -8,10 -8,5 -10,3 -10,-3 -15,-10 -20,-10 -18,-10 -13,-5 -2,-5 5,-8 12,-5 16,3 -23,-21 -16,-15 -10,-15 z"
   id="path176"
   inkscape:connector-curvature="0"
   style="fill:#cc998c;stroke:none" />
         <path
   d="m 10211,14703 8,-3 2,-8 3,-7 -3,-10 -5,-8 -8,-3 -7,-2 -8,2 -7,6 -3,7 -3,8 v 7 l 6,8 7,3 8,2 z"
   id="path178"
   inkscape:connector-curvature="0"
   style="fill:#cc998c;stroke:none" />
         <path
   d="m 9972,14520 -10,-13 -13,-18 -13,-18 -12,-20 -16,-20 -12,-18 -8,-13 -8,-8 -10,-10 -7,-10 -3,-10 v -13 -28 -45 -49 -35 l 3,-51 10,-81 7,-82 3,-43 8,-38 20,-28 25,-15 31,-3 28,8 25,18 18,27 5,39 -2,38 -11,38 -7,43 -8,48 -7,61 -11,64 -10,51 -5,28 -2,10 2,10 3,8 5,5 10,10 18,20 20,28 23,38 13,21 12,23 16,25 17,23 18,23 15,23 16,22 15,18 10,13 10,13 11,12 7,8 3,5 v 3 5 5 l -3,10 -2,5 -8,5 -8,3 h -2 l -5,-3 -3,-2 -5,-3 -8,-5 -15,-10 -25,-18 -28,-20 -33,-26 -36,-30 -35,-33 z"
   id="path180"
   inkscape:connector-curvature="0"
   style="fill:#cc998c;stroke:none" />
         <path
   d="m 10201,14705 10,-2 5,-6 5,-5 3,-7 -3,-10 -2,-5 -8,-6 -8,-2 -10,2 -5,3 -5,8 -3,7 3,10 5,5 5,6 z"
   id="path182"
   inkscape:connector-curvature="0"
   style="fill:#cc998c;stroke:none" />
         <path
   d="m 9952,13968 7,-3 8,-5 2,-5 3,-7 v -10 l -5,-6 -5,-5 -10,-2 -8,2 -5,3 -5,8 -3,7 3,10 2,5 8,5 z"
   id="path184"
   inkscape:connector-curvature="0"
   style="fill:#cc998c;stroke:none" />
         <path
   d="m 9964,13846 16,3 15,5 18,5 15,12 13,16 10,20 2,31 -2,35 -15,84 -11,76 -7,66 -3,44 -18,5 -22,2 -23,3 -23,2 -26,-2 h -20 l -18,-3 -15,-5 5,-97 5,-99 5,-81 8,-48 2,-13 5,-15 6,-13 7,-13 10,-10 16,-7 20,-3 z"
   id="path186"
   inkscape:connector-curvature="0"
   style="fill:#3893d1;stroke:none" />
         <path
   d="m 9947,14080 -11,-3 -7,-5 -5,-5 -5,-7 7,-16 33,3 18,-21 13,-2 2,5 v 5 5 5 l -5,16 -10,12 -15,5 -15,3 v 15 l 20,-2 18,-11 15,-15 8,-20 -3,-23 -10,-18 -15,-13 -21,-7 h -23 l -17,10 -13,15 -8,21 16,2 5,-15 10,-10 12,-8 h 16 7 l 5,3 6,2 5,3 -21,2 -5,23 -33,3 -7,15 v -5 -3 -5 -5 l -16,-2 3,22 10,18 15,15 21,8 z"
   id="path188"
   inkscape:connector-curvature="0"
   style="fill:#ffffff;stroke:none" />
        </g>
       </g>
      </g>
     </g>
    </g>
   </g>
  </g>
 </g>
</svg>