<?xml version="1.0" encoding="UTF-8" standalone="no"?>
<svg
   xmlns:ooo="http://xml.openoffice.org/svg/export"
   xmlns:dc="http://purl.org/dc/elements/1.1/"
   xmlns:cc="http://creativecommons.org/ns#"
   xmlns:rdf="http://www.w3.org/1999/02/22-rdf-syntax-ns#"
   xmlns:svg="http://www.w3.org/2000/svg"
   xmlns="http://www.w3.org/2000/svg"
   xmlns:sodipodi="http://sodipodi.sourceforge.net/DTD/sodipodi-0.dtd"
   xmlns:inkscape="http://www.inkscape.org/namespaces/inkscape"
   version="1.2"
   width="32.029999mm"
   height="7.04mm"
   viewBox="0 0 3202.9999 704"
   preserveAspectRatio="xMidYMid"
   xml:space="preserve"
   id="svg141"
   sodipodi:docname="bridge.svg"
   style="fill-rule:evenodd;stroke-width:28.22200012;stroke-linejoin:round"
   inkscape:version="0.92.5 (2060ec1f9f, 2020-04-08)"><metadata
   id="metadata145"><rdf:RDF><cc:Work
       rdf:about=""><dc:format>image/svg+xml</dc:format><dc:type
         rdf:resource="http://purl.org/dc/dcmitype/StillImage" /></cc:Work></rdf:RDF></metadata><sodipodi:namedview
   pagecolor="#ffffff"
   bordercolor="#666666"
   borderopacity="1"
   objecttolerance="10"
   gridtolerance="10"
   guidetolerance="10"
   inkscape:pageopacity="0"
   inkscape:pageshadow="2"
   inkscape:window-width="664"
   inkscape:window-height="487"
   id="namedview143"
   showgrid="false"
   inkscape:zoom="0.2102413"
   inkscape:cx="60.548032"
   inkscape:cy="13.303936"
   inkscape:window-x="0"
   inkscape:window-y="0"
   inkscape:window-maximized="0"
   inkscape:current-layer="svg141" />
 <defs
   class="ClipPathGroup"
   id="defs8">
  <clipPath
   id="presentation_clip_path"
   clipPathUnits="userSpaceOnUse">
   <rect
   x="0"
   y="0"
   width="21000"
   height="29700"
   id="rect2" />
  </clipPath>
  <clipPath
   id="presentation_clip_path_shrink"
   clipPathUnits="userSpaceOnUse">
   <rect
   x="21"
   y="29"
   width="20958"
   height="29641"
   id="rect5" />
  </clipPath>
 </defs>
 <defs
   class="TextShapeIndex"
   id="defs12">
  <g
   ooo:slide="id1"
   ooo:id-list="id3"
   id="g10" />
 </defs>
 <defs
   class="EmbeddedBulletChars"
   id="defs44">
  <g
   id="bullet-char-template-57356"
   transform="matrix(4.8828125e-4,0,0,-4.8828125e-4,0,0)">
   <path
   d="M 580,1141 1163,571 580,0 -4,571 Z"
   id="path14"
   inkscape:connector-curvature="0" />
  </g>
  <g
   id="bullet-char-template-57354"
   transform="matrix(4.8828125e-4,0,0,-4.8828125e-4,0,0)">
   <path
   d="M 8,1128 H 1137 V 0 H 8 Z"
   id="path17"
   inkscape:connector-curvature="0" />
  </g>
  <g
   id="bullet-char-template-10146"
   transform="matrix(4.8828125e-4,0,0,-4.8828125e-4,0,0)">
   <path
   d="M 174,0 602,739 174,1481 1456,739 Z M 1358,739 309,1346 659,739 Z"
   id="path20"
   inkscape:connector-curvature="0" />
  </g>
  <g
   id="bullet-char-template-10132"
   transform="matrix(4.8828125e-4,0,0,-4.8828125e-4,0,0)">
   <path
   d="M 2015,739 1276,0 H 717 l 543,543 H 174 v 393 h 1086 l -543,545 h 557 z"
   id="path23"
   inkscape:connector-curvature="0" />
  </g>
  <g
   id="bullet-char-template-10007"
   transform="matrix(4.8828125e-4,0,0,-4.8828125e-4,0,0)">
   <path
   d="m 0,-2 c -7,16 -16,29 -25,39 l 381,530 c -94,256 -141,385 -141,387 0,25 13,38 40,38 9,0 21,-2 34,-5 21,4 42,12 65,25 l 27,-13 111,-251 280,301 64,-25 24,25 c 21,-10 41,-24 62,-43 C 886,937 835,863 770,784 769,783 710,716 594,584 L 774,223 c 0,-27 -21,-55 -63,-84 l 16,-20 C 717,90 699,76 672,76 641,76 570,178 457,381 L 164,-76 c -22,-34 -53,-51 -92,-51 -42,0 -63,17 -64,51 -7,9 -10,24 -10,44 0,9 1,19 2,30 z"
   id="path26"
   inkscape:connector-curvature="0" />
  </g>
  <g
   id="bullet-char-template-10004"
   transform="matrix(4.8828125e-4,0,0,-4.8828125e-4,0,0)">
   <path
   d="M 285,-33 C 182,-33 111,30 74,156 52,228 41,333 41,471 c 0,78 14,145 41,201 34,71 87,106 158,106 53,0 88,-31 106,-94 l 23,-176 c 8,-64 28,-97 59,-98 l 735,706 c 11,11 33,17 66,17 42,0 63,-15 63,-46 V 965 c 0,-36 -10,-64 -30,-84 L 442,47 C 390,-6 338,-33 285,-33 Z"
   id="path29"
   inkscape:connector-curvature="0" />
  </g>
  <g
   id="bullet-char-template-9679"
   transform="matrix(4.8828125e-4,0,0,-4.8828125e-4,0,0)">
   <path
   d="M 813,0 C 632,0 489,54 383,161 276,268 223,411 223,592 c 0,181 53,324 160,431 106,107 249,161 430,161 179,0 323,-54 432,-161 108,-107 162,-251 162,-431 0,-180 -54,-324 -162,-431 C 1136,54 992,0 813,0 Z"
   id="path32"
   inkscape:connector-curvature="0" />
  </g>
  <g
   id="bullet-char-template-8226"
   transform="matrix(4.8828125e-4,0,0,-4.8828125e-4,0,0)">
   <path
   d="m 346,457 c -73,0 -137,26 -191,78 -54,51 -81,114 -81,188 0,73 27,136 81,188 54,52 118,78 191,78 73,0 134,-26 185,-79 51,-51 77,-114 77,-187 0,-75 -25,-137 -76,-188 -50,-52 -112,-78 -186,-78 z"
   id="path35"
   inkscape:connector-curvature="0" />
  </g>
  <g
   id="bullet-char-template-8211"
   transform="matrix(4.8828125e-4,0,0,-4.8828125e-4,0,0)">
   <path
   d="M -4,459 H 1135 V 606 H -4 Z"
   id="path38"
   inkscape:connector-curvature="0" />
  </g>
  <g
   id="bullet-char-template-61548"
   transform="matrix(4.8828125e-4,0,0,-4.8828125e-4,0,0)">
   <path
   d="m 173,740 c 0,163 58,303 173,419 116,115 255,173 419,173 163,0 302,-58 418,-173 116,-116 174,-256 174,-419 0,-163 -58,-303 -174,-418 C 1067,206 928,148 765,148 601,148 462,206 346,322 231,437 173,577 173,740 Z"
   id="path41"
   inkscape:connector-curvature="0" />
  </g>
 </defs>
 <g
   id="g49"
   transform="translate(-8898,-14498)">
  <g
   id="id2"
   class="Master_Slide">
   <g
   id="bg-id2"
   class="Background" />
   <g
   id="bo-id2"
   class="BackgroundObjects" />
  </g>
 </g>
 <g
   class="SlideGroup"
   id="g139"
   transform="translate(-8898,-14498)">
  <g
   id="g137">
   <g
   id="container-id1">
    <g
   id="id1"
   class="Slide"
   clip-path="url(#presentation_clip_path)">
     <g
   class="Page"
   id="g133">
      <g
   class="Graphic"
   id="g131">
       <g
   id="id3">
        <rect
   class="BoundingBox"
   x="8898"
   y="14498"
   width="3203"
   height="704"
   id="rect51"
   style="fill:none;stroke:none" />
        <defs
   id="defs56">
         <clipPath
   id="clip_path_1"
   clipPathUnits="userSpaceOnUse">
          <path
   d="m 8898,14498 h 3202 v 703 H 8898 Z"
   id="path53"
   inkscape:connector-curvature="0" />
         </clipPath>
        </defs>
        <g
   clip-path="url(#clip_path_1)"
   id="g128">
         <path
   d="m 12091,14796 v -12 H 8898 v 25 h 3193 z"
   id="path58"
   inkscape:connector-curvature="0"
   style="fill:#000000;stroke:none" />
         <path
   d="m 11326,15202 v -681 h -102 v 681 z"
   id="path60"
   inkscape:connector-curvature="0"
   style="fill:#000000;stroke:none" />
         <path
   d="m 11308,14521 v -23 h -61 v 23 z"
   id="path62"
   inkscape:connector-curvature="0"
   style="fill:#000000;stroke:none" />
         <path
   d="m 11310,14656 v -74 h -68 v 74 z"
   id="path64"
   inkscape:connector-curvature="0"
   style="fill:#ffffff;stroke:none" />
         <path
   d="m 12101,14932 v -79 H 8903 v 79 z"
   id="path66"
   inkscape:connector-curvature="0"
   style="fill:#000000;stroke:none" />
         <path
   d="m 12091,14796 v -12 H 8898 v 25 h 3193 z"
   id="path68"
   inkscape:connector-curvature="0"
   style="fill:#000000;stroke:none" />
         <path
   d="m 11326,14809 v -25 h -102 v 25 z"
   id="path70"
   inkscape:connector-curvature="0"
   style="fill:#ffffff;stroke:none" />
         <path
   d="m 11758,14853 v -108 h -43 v 108 z"
   id="path72"
   inkscape:connector-curvature="0"
   style="fill:#000000;stroke:none" />
         <path
   d="m 11760,14809 v -25 h -45 v 25 z"
   id="path74"
   inkscape:connector-curvature="0"
   style="fill:#ffffff;stroke:none" />
         <path
   d="m 9673,15202 v -681 h -99 v 681 z"
   id="path76"
   inkscape:connector-curvature="0"
   style="fill:#000000;stroke:none" />
         <path
   d="m 9658,14521 v -23 h -63 v 23 z"
   id="path78"
   inkscape:connector-curvature="0"
   style="fill:#000000;stroke:none" />
         <path
   d="m 9661,14656 v -74 h -72 v 74 z"
   id="path80"
   inkscape:connector-curvature="0"
   style="fill:#ffffff;stroke:none" />
         <path
   d="m 9673,14809 v -25 h -99 v 25 z"
   id="path82"
   inkscape:connector-curvature="0"
   style="fill:#ffffff;stroke:none" />
         <path
   d="m 10909,14853 v -110 h -43 v 110 z"
   id="path84"
   inkscape:connector-curvature="0"
   style="fill:#000000;stroke:none" />
         <path
   d="m 10909,14812 v -28 h -46 v 28 z"
   id="path86"
   inkscape:connector-curvature="0"
   style="fill:#ffffff;stroke:none" />
         <path
   d="m 10060,14853 v -110 h -41 v 110 z"
   id="path88"
   inkscape:connector-curvature="0"
   style="fill:#000000;stroke:none" />
         <path
   d="m 10060,14812 v -23 h -41 v 23 z"
   id="path90"
   inkscape:connector-curvature="0"
   style="fill:#ffffff;stroke:none" />
         <path
   d="m 9099,14853 v -108 h -43 v 108 z"
   id="path92"
   inkscape:connector-curvature="0"
   style="fill:#000000;stroke:none" />
         <path
   d="m 9099,14812 v -23 h -43 v 23 z"
   id="path94"
   inkscape:connector-curvature="0"
   style="fill:#ffffff;stroke:none" />
         <path
   d="m 9251,14924 11,3 27,5 39,10 50,15 54,23 56,28 51,38 45,44 v -26 -28 -20 -10 l -5,-3 -12,-10 -21,-13 -25,-13 -33,-15 -36,-13 -41,-10 -43,-5 h -12 -16 -20 -18 -20 -15 -11 z"
   id="path96"
   inkscape:connector-curvature="0"
   style="fill:#000000;stroke:none" />
         <path
   d="m 10914,14921 10,3 28,5 38,10 51,16 53,23 56,28 51,38 46,43 v -25 -28 -21 -10 l -5,-3 -13,-10 -20,-12 -26,-13 -33,-16 -35,-12 -41,-10 -43,-6 h -13 -15 -21 -17 -21 -15 -10 z"
   id="path98"
   inkscape:connector-curvature="0"
   style="fill:#000000;stroke:none" />
         <path
   d="m 11638,14924 -10,3 -25,5 -41,10 -48,18 -54,23 -56,28 -50,38 -46,43 v -25 -28 -21 -10 l 5,-2 13,-11 17,-12 28,-13 31,-15 36,-16 40,-10 43,-5 h 13 15 21 18 20 15 10 z"
   id="path100"
   inkscape:connector-curvature="0"
   style="fill:#000000;stroke:none" />
         <path
   d="m 9991,14924 -10,3 -28,5 -38,10 -51,18 -53,23 -54,28 -53,38 -43,43 -3,-25 v -28 -21 -10 l 5,-2 13,-11 20,-12 26,-13 33,-15 35,-16 41,-10 43,-5 h 13 15 20 18 21 15 10 z"
   id="path102"
   inkscape:connector-curvature="0"
   style="fill:#000000;stroke:none" />
         <path
   d="m 9112,15164 h 2 l -25,-3 h -26 l -23,-2 -25,-11 -25,-10 -26,-13 -23,-15 -28,-23 -30,36 28,23 28,20 30,18 31,10 30,11 33,2 26,5 25,-2 h 3 z"
   id="path104"
   inkscape:connector-curvature="0"
   style="fill:#000000;stroke:none" />
         <path
   d="m 9391,15049 -38,3 -23,28 -30,23 -31,20 -33,13 -33,12 -30,8 -34,5 -27,3 5,46 28,-3 33,-5 35,-8 38,-12 38,-18 36,-21 36,-28 33,-38 -38,3 35,-31 -18,-26 -20,29 z"
   id="path106"
   inkscape:connector-curvature="0"
   style="fill:#000000;stroke:none" />
         <path
   d="m 9617,15171 v 0 l -50,-2 -41,-10 -36,-16 -30,-20 -23,-20 -18,-18 -15,-21 -13,-15 -35,31 12,15 16,20 22,23 28,26 36,20 41,21 50,10 56,7 v 0 z"
   id="path108"
   inkscape:connector-curvature="0"
   style="fill:#000000;stroke:none" />
         <path
   d="m 9925,15044 -41,5 -7,15 -18,18 -23,21 -33,22 -38,18 -43,16 -51,10 -54,2 v 51 l 59,-7 56,-10 48,-16 43,-23 38,-23 33,-25 18,-28 18,-21 -41,5 36,-30 -23,-33 -18,38 z"
   id="path110"
   inkscape:connector-curvature="0"
   style="fill:#000000;stroke:none" />
         <path
   d="m 10166,15161 v 0 h -58 l -46,-10 -35,-15 -31,-16 -23,-17 -18,-21 -15,-20 -15,-18 -36,30 16,18 15,21 23,25 28,23 35,21 46,15 51,10 63,5 v 0 z"
   id="path112"
   inkscape:connector-curvature="0"
   style="fill:#000000;stroke:none" />
         <path
   d="m 10469,15039 -36,-3 -12,13 -16,18 -22,20 -31,21 -36,23 -40,15 -51,13 -59,2 v 51 l 64,-7 56,-13 51,-21 40,-23 36,-25 23,-20 20,-18 13,-13 -36,-3 36,-30 -18,-21 -18,18 z"
   id="path114"
   inkscape:connector-curvature="0"
   style="fill:#000000;stroke:none" />
         <path
   d="m 10738,15161 v 0 h -61 l -50,-10 -41,-15 -31,-16 -25,-17 -25,-23 -18,-18 -18,-23 -36,30 18,23 23,23 26,23 30,23 41,21 45,15 56,10 66,5 v 0 z"
   id="path116"
   inkscape:connector-curvature="0"
   style="fill:#000000;stroke:none" />
         <path
   d="m 11013,15039 -38,5 -3,2 -7,13 -18,21 -23,23 -30,22 -44,18 -48,16 -64,2 v 51 l 69,-7 59,-16 48,-23 41,-28 27,-28 18,-20 13,-18 3,-8 -39,5 36,-30 -20,-31 -18,36 z"
   id="path118"
   inkscape:connector-curvature="0"
   style="fill:#000000;stroke:none" />
         <path
   d="m 11275,15176 v 0 l -59,-2 -45,-13 -41,-15 -36,-23 -25,-20 -23,-23 -18,-23 -15,-18 -36,30 16,18 17,23 28,28 31,26 41,23 45,20 56,13 64,8 v 0 z"
   id="path120"
   inkscape:connector-curvature="0"
   style="fill:#000000;stroke:none" />
         <path
   d="m 11549,15049 -38,3 -2,5 -10,12 -21,21 -25,25 -33,23 -41,21 -46,15 -58,2 v 52 l 63,-8 56,-15 51,-26 38,-28 31,-26 20,-25 10,-18 8,-5 -38,3 35,-31 -20,-28 -18,31 z"
   id="path122"
   inkscape:connector-curvature="0"
   style="fill:#000000;stroke:none" />
         <path
   d="m 11806,15176 v 0 l -58,-2 -49,-10 -38,-16 -33,-20 -25,-20 -21,-21 -17,-20 -16,-18 -35,31 15,17 18,21 25,25 31,26 38,20 48,21 54,10 63,8 v 0 z"
   id="path124"
   inkscape:connector-curvature="0"
   style="fill:#000000;stroke:none" />
         <path
   d="m 12048,15052 -3,2 -13,15 -20,21 -25,25 -36,23 -38,21 -48,15 -59,2 v 52 l 64,-8 58,-15 48,-26 41,-28 31,-26 20,-25 13,-15 7,-8 z"
   id="path126"
   inkscape:connector-curvature="0"
   style="fill:#000000;stroke:none" />
        </g>
       </g>
      </g>
     </g>
    </g>
   </g>
  </g>
 </g>
</svg>