<?xml version="1.0" encoding="UTF-8" standalone="no"?>
<svg
   xmlns:ooo="http://xml.openoffice.org/svg/export"
   xmlns:dc="http://purl.org/dc/elements/1.1/"
   xmlns:cc="http://creativecommons.org/ns#"
   xmlns:rdf="http://www.w3.org/1999/02/22-rdf-syntax-ns#"
   xmlns:svg="http://www.w3.org/2000/svg"
   xmlns="http://www.w3.org/2000/svg"
   xmlns:sodipodi="http://sodipodi.sourceforge.net/DTD/sodipodi-0.dtd"
   xmlns:inkscape="http://www.inkscape.org/namespaces/inkscape"
   version="1.2"
   width="20.68mm"
   height="18.57mm"
   viewBox="0 0 2068 1857"
   preserveAspectRatio="xMidYMid"
   xml:space="preserve"
   id="svg158"
   sodipodi:docname="brocoli2.svg"
   style="fill-rule:evenodd;stroke-width:28.22200012;stroke-linejoin:round"
   inkscape:version="0.92.5 (2060ec1f9f, 2020-04-08)"><metadata
   id="metadata162"><rdf:RDF><cc:Work
       rdf:about=""><dc:format>image/svg+xml</dc:format><dc:type
         rdf:resource="http://purl.org/dc/dcmitype/StillImage" /></cc:Work></rdf:RDF></metadata><sodipodi:namedview
   pagecolor="#ffffff"
   bordercolor="#666666"
   borderopacity="1"
   objecttolerance="10"
   gridtolerance="10"
   guidetolerance="10"
   inkscape:pageopacity="0"
   inkscape:pageshadow="2"
   inkscape:window-width="664"
   inkscape:window-height="487"
   id="namedview160"
   showgrid="false"
   inkscape:zoom="0.2102413"
   inkscape:cx="39.080316"
   inkscape:cy="35.074014"
   inkscape:window-x="0"
   inkscape:window-y="0"
   inkscape:window-maximized="0"
   inkscape:current-layer="svg158" />
 <defs
   class="ClipPathGroup"
   id="defs8">
  <clipPath
   id="presentation_clip_path"
   clipPathUnits="userSpaceOnUse">
   <rect
   x="0"
   y="0"
   width="21000"
   height="29700"
   id="rect2" />
  </clipPath>
  <clipPath
   id="presentation_clip_path_shrink"
   clipPathUnits="userSpaceOnUse">
   <rect
   x="21"
   y="29"
   width="20958"
   height="29641"
   id="rect5" />
  </clipPath>
 </defs>
 <defs
   class="TextShapeIndex"
   id="defs12">
  <g
   ooo:slide="id1"
   ooo:id-list="id3"
   id="g10" />
 </defs>
 <defs
   class="EmbeddedBulletChars"
   id="defs44">
  <g
   id="bullet-char-template-57356"
   transform="matrix(4.8828125e-4,0,0,-4.8828125e-4,0,0)">
   <path
   d="M 580,1141 1163,571 580,0 -4,571 Z"
   id="path14"
   inkscape:connector-curvature="0" />
  </g>
  <g
   id="bullet-char-template-57354"
   transform="matrix(4.8828125e-4,0,0,-4.8828125e-4,0,0)">
   <path
   d="M 8,1128 H 1137 V 0 H 8 Z"
   id="path17"
   inkscape:connector-curvature="0" />
  </g>
  <g
   id="bullet-char-template-10146"
   transform="matrix(4.8828125e-4,0,0,-4.8828125e-4,0,0)">
   <path
   d="M 174,0 602,739 174,1481 1456,739 Z M 1358,739 309,1346 659,739 Z"
   id="path20"
   inkscape:connector-curvature="0" />
  </g>
  <g
   id="bullet-char-template-10132"
   transform="matrix(4.8828125e-4,0,0,-4.8828125e-4,0,0)">
   <path
   d="M 2015,739 1276,0 H 717 l 543,543 H 174 v 393 h 1086 l -543,545 h 557 z"
   id="path23"
   inkscape:connector-curvature="0" />
  </g>
  <g
   id="bullet-char-template-10007"
   transform="matrix(4.8828125e-4,0,0,-4.8828125e-4,0,0)">
   <path
   d="m 0,-2 c -7,16 -16,29 -25,39 l 381,530 c -94,256 -141,385 -141,387 0,25 13,38 40,38 9,0 21,-2 34,-5 21,4 42,12 65,25 l 27,-13 111,-251 280,301 64,-25 24,25 c 21,-10 41,-24 62,-43 C 886,937 835,863 770,784 769,783 710,716 594,584 L 774,223 c 0,-27 -21,-55 -63,-84 l 16,-20 C 717,90 699,76 672,76 641,76 570,178 457,381 L 164,-76 c -22,-34 -53,-51 -92,-51 -42,0 -63,17 -64,51 -7,9 -10,24 -10,44 0,9 1,19 2,30 z"
   id="path26"
   inkscape:connector-curvature="0" />
  </g>
  <g
   id="bullet-char-template-10004"
   transform="matrix(4.8828125e-4,0,0,-4.8828125e-4,0,0)">
   <path
   d="M 285,-33 C 182,-33 111,30 74,156 52,228 41,333 41,471 c 0,78 14,145 41,201 34,71 87,106 158,106 53,0 88,-31 106,-94 l 23,-176 c 8,-64 28,-97 59,-98 l 735,706 c 11,11 33,17 66,17 42,0 63,-15 63,-46 V 965 c 0,-36 -10,-64 -30,-84 L 442,47 C 390,-6 338,-33 285,-33 Z"
   id="path29"
   inkscape:connector-curvature="0" />
  </g>
  <g
   id="bullet-char-template-9679"
   transform="matrix(4.8828125e-4,0,0,-4.8828125e-4,0,0)">
   <path
   d="M 813,0 C 632,0 489,54 383,161 276,268 223,411 223,592 c 0,181 53,324 160,431 106,107 249,161 430,161 179,0 323,-54 432,-161 108,-107 162,-251 162,-431 0,-180 -54,-324 -162,-431 C 1136,54 992,0 813,0 Z"
   id="path32"
   inkscape:connector-curvature="0" />
  </g>
  <g
   id="bullet-char-template-8226"
   transform="matrix(4.8828125e-4,0,0,-4.8828125e-4,0,0)">
   <path
   d="m 346,457 c -73,0 -137,26 -191,78 -54,51 -81,114 -81,188 0,73 27,136 81,188 54,52 118,78 191,78 73,0 134,-26 185,-79 51,-51 77,-114 77,-187 0,-75 -25,-137 -76,-188 -50,-52 -112,-78 -186,-78 z"
   id="path35"
   inkscape:connector-curvature="0" />
  </g>
  <g
   id="bullet-char-template-8211"
   transform="matrix(4.8828125e-4,0,0,-4.8828125e-4,0,0)">
   <path
   d="M -4,459 H 1135 V 606 H -4 Z"
   id="path38"
   inkscape:connector-curvature="0" />
  </g>
  <g
   id="bullet-char-template-61548"
   transform="matrix(4.8828125e-4,0,0,-4.8828125e-4,0,0)">
   <path
   d="m 173,740 c 0,163 58,303 173,419 116,115 255,173 419,173 163,0 302,-58 418,-173 116,-116 174,-256 174,-419 0,-163 -58,-303 -174,-418 C 1067,206 928,148 765,148 601,148 462,206 346,322 231,437 173,577 173,740 Z"
   id="path41"
   inkscape:connector-curvature="0" />
  </g>
 </defs>
 <g
   id="g49"
   transform="translate(-9466,-13921)">
  <g
   id="id2"
   class="Master_Slide">
   <g
   id="bg-id2"
   class="Background" />
   <g
   id="bo-id2"
   class="BackgroundObjects" />
  </g>
 </g>
 <g
   class="SlideGroup"
   id="g156"
   transform="translate(-9466,-13921)">
  <g
   id="g154">
   <g
   id="container-id1">
    <g
   id="id1"
   class="Slide"
   clip-path="url(#presentation_clip_path)">
     <g
   class="Page"
   id="g150">
      <g
   class="Graphic"
   id="g148">
       <g
   id="id3">
        <rect
   class="BoundingBox"
   x="9466"
   y="13921"
   width="2068"
   height="1857"
   id="rect51"
   style="fill:none;stroke:none" />
        <path
   d="m 11458,15468 10,-31 7,-35 -5,-31 -25,-18 h -5 l -8,-2 -7,-3 -11,-2 -10,-3 -12,-3 -11,-2 -12,-3 23,-30 22,-31 16,-30 2,-21 -7,-22 -5,-21 v -20 l 5,-23 10,-31 5,-35 -5,-33 -23,-16 -23,-7 -33,-10 -43,-13 -44,-18 -45,-15 -44,-18 -33,-18 -25,-18 -5,-10 -8,-12 -10,-13 -10,-15 -13,-13 -13,-13 -12,-10 -10,-8 -21,-15 -15,-18 -10,-20 -10,-20 -8,-23 -8,-21 -10,-17 -18,-13 -20,-13 -15,-18 -10,-20 v -15 l -3,-21 -8,-30 -15,-31 -15,-23 -15,-17 -11,-28 -7,-28 2,-26 v -15 l -5,-8 -10,-2 -8,5 -15,13 -15,20 -15,23 -8,20 5,-23 -2,-25 -8,-18 -15,-10 5,-15 v -18 l -10,-16 -18,-7 5,-13 v -15 l -5,-10 -15,-8 v -18 l -3,-23 -8,-25 -10,-26 -15,-25 -20,-18 -21,-10 h -25 l -3,-20 -5,-21 -13,-23 -15,-22 -20,-18 -28,-18 -33,-15 -41,-10 -43,-6 -41,-2 h -41 l -38,8 -33,12 -28,18 -20,23 -13,30 -7,-22 -16,-18 -20,-13 -23,-5 h -28 l -23,5 -23,13 -18,20 -10,-2 h -12 l -13,2 -15,5 -13,8 -10,10 -8,15 v 18 l -13,-5 h -12 l -13,5 -10,10 -13,10 -5,11 -5,10 2,10 -20,2 -18,11 -18,17 -12,21 -10,23 -3,20 v 20 l 8,16 -21,10 -18,20 -7,26 7,28 -20,15 -10,25 2,33 26,26 -18,5 -18,10 -18,13 -15,15 -13,18 -7,20 v 21 l 5,20 -20,10 -16,26 -7,33 7,30 -7,10 -3,13 v 13 l 8,12 -21,13 -12,28 2,31 28,23 -18,5 -20,10 -20,13 -16,12 -15,18 -7,18 v 18 l 7,20 -25,13 -18,30 -3,36 18,25 -10,23 5,33 21,28 35,10 -8,11 -2,12 2,13 6,13 7,13 13,10 18,7 20,3 -10,20 -5,23 2,26 8,25 13,25 18,21 22,15 26,5 -5,26 12,30 28,31 39,28 45,20 49,13 48,2 46,-12 5,7 10,8 13,2 h 15 l 13,-2 13,-5 10,-8 5,-13 12,13 18,8 23,2 h 26 l 25,-2 23,-8 20,-8 13,-12 13,7 15,3 20,-3 18,-2 18,-8 15,-7 8,-11 2,-10 13,5 h 15 l 21,-2 18,-5 17,-11 13,-10 8,-12 v -13 h 23 l 17,-5 16,-10 10,-11 23,8 25,10 31,8 30,7 33,8 31,8 30,7 26,8 12,5 18,3 18,5 20,5 23,7 26,11 28,10 28,10 30,15 33,18 36,20 36,23 38,26 40,30 41,33 43,38 8,8 13,8 15,5 15,5 18,2 18,-5 18,-12 15,-21 18,-20 18,-8 h 17 l 16,-2 12,-8 16,-13 17,-17 18,-21 18,-20 13,-20 7,-18 v -15 l -7,-21 -5,-18 v -17 z"
   id="path53"
   inkscape:connector-curvature="0"
   style="fill:#000000;stroke:none" />
        <path
   d="m 10214,14025 -8,-23 -15,-17 -23,-13 -23,-5 -28,-3 -23,8 -23,10 -17,20 -11,-2 h -10 l -15,2 -15,5 -13,8 -10,13 -5,13 v 17 l -13,-2 h -13 l -12,5 -13,8 -10,12 -8,10 -2,11 2,10 -20,2 -18,11 -18,15 -13,20 -10,23 -5,23 v 20 l 8,16 -21,10 -17,20 -8,25 8,28 -18,13 -13,28 3,31 25,25 -18,5 -18,10 -17,13 -16,18 -12,18 -5,18 -3,20 8,20 -23,13 -16,33 -5,38 18,28 -10,26 5,33 18,28 33,12 -8,26 5,28 21,23 33,10 -10,20 -3,23 3,28 7,28 11,26 17,22 21,16 23,7 -6,28 13,31 26,30 33,28 43,23 43,13 46,2 41,-15 5,10 10,5 10,3 h 13 l 13,-3 12,-5 10,-7 6,-13 10,13 15,7 20,5 h 23 l 23,-2 23,-8 18,-10 12,-13 11,8 15,3 18,-3 18,-3 17,-7 13,-8 8,-10 2,-10 10,2 16,3 15,-5 18,-5 15,-8 13,-13 7,-12 v -13 h 21 l 18,-8 10,-10 10,-10 20,8 26,10 25,7 31,8 28,10 30,8 26,8 25,7 13,5 12,3 18,5 18,8 23,7 23,8 23,12 28,13 28,15 30,18 33,21 33,25 36,28 36,31 38,35 38,41 7,8 11,7 12,5 16,5 h 15 l 18,-5 15,-12 15,-21 16,-20 17,-8 h 16 l 15,-2 10,-8 15,-13 16,-20 17,-20 16,-23 12,-23 8,-18 v -15 l -8,-21 -5,-20 v -20 l 5,-23 10,-31 6,-35 -6,-33 -22,-18 -23,-8 -33,-10 -44,-13 -45,-15 -46,-18 -41,-18 -35,-15 -26,-18 -2,-10 -8,-13 -10,-12 -10,-16 -13,-12 -13,-13 -13,-10 -10,-8 -20,-15 -15,-20 -13,-21 -10,-20 -5,-20 -8,-21 -13,-18 -18,-12 -20,-13 -13,-18 -10,-20 -2,-15 v -21 l -8,-30 -15,-31 -15,-23 -16,-20 -12,-26 -8,-28 2,-25 3,-15 -5,-8 -10,-2 -10,2 -13,15 -18,21 -13,23 -10,17 5,-22 v -23 l -7,-21 -16,-7 5,-16 -2,-17 -8,-18 -18,-8 6,-10 v -15 l -6,-10 -15,-8 v -18 l -2,-23 -8,-25 -10,-28 -15,-23 -21,-18 -23,-13 h -25 l -3,-20 -5,-20 -12,-23 -16,-21 -20,-20 -25,-18 -34,-15 -40,-10 -43,-5 -44,-3 -40,3 -36,5 -33,13 -28,17 -20,26 z"
   id="path55"
   inkscape:connector-curvature="0"
   style="fill:#000000;stroke:none" />
        <path
   d="m 9919,14651 5,15 10,16 13,10 18,5 2,20 13,21 18,15 25,10 -10,18 -5,28 2,28 18,25 -2,26 5,30 20,28 36,18 5,10 5,10 5,8 2,2 -12,16 -21,5 -15,-3 -10,-15 -13,3 -12,-3 -16,-5 -15,-10 -10,-13 -5,-15 v -18 l 12,-18 -17,-5 -16,-15 -5,-23 8,-23 h -8 l -10,-2 -8,-3 h -2 l -10,25 -13,18 -15,8 h -15 l -13,-5 -10,-10 -3,-13 3,-15 -21,7 -20,-2 -13,-10 v -21 l -12,-5 -11,-2 -12,-8 -13,-8 -8,-7 -2,-13 v -18 l 7,-20 -12,-5 -16,-8 -12,-10 -11,-13 -7,-13 -3,-15 3,-15 13,-15 -11,-23 -5,-28 10,-26 34,-17 -6,-16 -2,-15 2,-18 6,-18 10,-17 15,-16 23,-12 28,-8 h 13 12 l 10,2 h 3 l 3,8 2,5 v 5 l 3,5 -21,13 -20,15 -15,21 -10,23 -6,23 3,20 10,20 23,15 -23,31 -5,38 13,36 28,12 v 11 l 5,12 7,11 11,7 15,3 18,-3 23,-13 28,-22 -21,-11 -12,-17 -3,-28 z"
   id="path57"
   inkscape:connector-curvature="0"
   style="fill:#07c607;stroke:none" />
        <path
   d="m 10166,15005 10,15 15,10 20,3 21,-3 5,20 -5,21 -13,15 h -23 l -3,18 -10,10 -12,8 h -13 l -10,15 -16,13 h -17 l -18,-18 -15,5 -18,5 -18,3 -18,2 h -18 l -17,-5 -21,-5 -20,-13 -21,-12 -15,-11 -15,-12 -13,-11 -10,-15 -8,-18 -2,-20 v -28 l -13,-5 -15,-8 -15,-12 -16,-16 -12,-20 -8,-20 -2,-23 7,-26 8,8 10,5 10,3 13,-3 5,10 5,10 10,11 10,7 13,3 h 18 l 18,-8 20,-15 5,10 5,10 5,8 10,2 v 18 l 3,18 5,18 8,15 -10,15 v 26 l 10,23 25,7 3,8 10,8 10,7 15,5 16,3 h 15 l 15,-3 13,-7 -3,-18 13,-15 15,-13 18,2 v -12 l 5,-13 8,-10 z"
   id="path59"
   inkscape:connector-curvature="0"
   style="fill:#07c607;stroke:none" />
        <path
   d="m 10252,15028 v 20 l -3,25 -10,23 -25,8 -8,10 -5,10 -8,8 -7,2 7,5 13,6 13,5 h 18 l 18,-3 17,-8 18,-12 15,-21 11,8 10,5 12,5 h 16 l 15,-2 13,-8 12,-13 11,-17 10,2 15,3 15,-3 16,-5 12,-8 13,-10 5,-13 3,-15 h 15 l 15,-2 15,-8 8,-10 -10,-5 -15,-8 -18,-5 -18,-10 -18,-5 -15,-8 -10,-2 -3,-3 -10,8 -13,2 h -12 -11 l -7,10 -10,8 -16,10 -17,8 -18,7 -16,3 -12,-3 -10,-5 -8,5 -13,3 -10,3 z"
   id="path61"
   inkscape:connector-curvature="0"
   style="fill:#07c607;stroke:none" />
        <path
   d="m 10468,14872 v 13 15 16 5 l 33,10 44,18 53,18 56,17 58,18 56,13 51,7 41,-2 -38,-18 -49,-25 -56,-26 -61,-25 -58,-21 -53,-20 -46,-10 z"
   id="path63"
   inkscape:connector-curvature="0"
   style="fill:#07c607;stroke:none" />
        <path
   d="m 10934,14727 -38,-35 -34,-33 -22,-31 -21,-28 -12,-25 -11,-23 -10,-20 -5,-21 5,-33 15,-41 18,-38 21,-30 -8,23 -5,30 v 41 l 5,46 10,51 20,53 31,58 z"
   id="path65"
   inkscape:connector-curvature="0"
   style="fill:#07c607;stroke:none" />
        <path
   d="m 10524,14504 10,22 13,23 10,23 13,23 10,18 10,18 10,15 8,10 -10,-7 -15,-13 -21,-15 -23,-21 -22,-18 -21,-17 -18,-16 -10,-10 v -5 -8 l -2,-5 -3,-5 8,-5 5,-7 2,-8 v -3 l 13,8 15,3 h 13 z"
   id="path67"
   inkscape:connector-curvature="0"
   style="fill:#07c607;stroke:none" />
        <path
   d="m 10865,14768 -61,-38 -51,-41 -43,-46 -36,-45 -28,-41 -20,-36 -13,-28 -7,-17 15,12 h 23 l 20,-10 8,-15 5,23 10,30 18,38 23,46 28,46 33,43 35,43 z"
   id="path69"
   inkscape:connector-curvature="0"
   style="fill:#07c607;stroke:none" />
        <path
   d="m 10438,14944 -10,10 -11,7 -15,3 -18,-3 -10,13 -13,10 -15,10 -15,6 -15,5 -13,-3 -13,-5 -10,-13 -10,13 -15,10 -16,8 -15,2 -18,-2 -15,-5 -10,-13 -8,-18 -7,8 -11,2 -12,3 -13,-3 -10,-5 -8,-10 -5,-13 3,-17 -18,-3 -16,-5 -15,-10 -10,-13 -8,-13 -2,-15 2,-13 11,-12 -18,-18 -8,-26 3,-25 15,-23 h 15 l 13,-5 13,-8 7,-10 10,5 h 11 l 15,-2 13,-5 15,-5 10,-11 10,-10 8,-10 5,8 10,7 13,8 15,5 -18,13 -7,15 2,18 18,20 -31,18 -12,25 5,28 30,16 v 23 l 11,20 20,13 30,-5 18,12 21,5 20,-7 15,-16 -23,-7 -18,-18 -5,-23 11,-23 -6,-10 -5,-15 -2,-15 v -16 l 7,-12 11,-11 20,-7 25,-3 -12,26 -3,28 15,25 36,5 -18,20 -2,31 18,28 z"
   id="path71"
   inkscape:connector-curvature="0"
   style="fill:#07c607;stroke:none" />
        <path
   d="m 10369,14656 3,13 -6,10 -10,10 -10,8 -15,5 -13,3 h -13 l -7,-6 -13,13 -15,8 h -18 l -15,-3 -13,-7 -13,-11 -5,-12 -2,-13 -8,5 -10,3 h -10 l -10,-5 -6,17 -7,13 -10,10 -11,8 -12,2 h -13 l -13,-5 -10,-10 -8,23 -15,13 -20,2 -18,-5 -18,-10 -15,-15 -5,-18 5,-18 -31,-7 -17,-26 -3,-33 13,-28 -26,-13 -17,-15 -11,-20 -2,-21 2,-20 11,-18 10,-15 15,-10 -18,-18 -5,-25 8,-23 28,-13 -13,-20 -3,-21 6,-20 12,-15 18,-16 18,-10 18,-5 12,-2 3,-23 10,-16 15,-12 18,-8 21,-5 h 17 l 16,2 12,6 h -12 l -16,5 -15,10 -18,13 -12,15 -8,15 -3,20 8,18 h -15 l -15,5 -16,10 -12,13 -11,15 -5,16 3,18 10,15 -18,20 -10,31 3,28 25,17 -15,18 -5,26 5,20 25,15 -2,13 2,18 5,15 10,13 11,13 15,7 h 15 l 18,-5 18,5 18,-5 12,-10 13,-15 -23,-8 -20,-23 -8,-28 8,-18 -18,-23 -8,-30 5,-28 23,-15 v -11 l 3,-15 5,-12 10,-13 10,-10 13,-8 13,-3 15,6 -10,10 -8,12 -2,11 5,12 -10,16 2,17 10,16 26,2 -18,28 5,33 18,21 25,2 v 26 l 8,25 18,15 28,-2 12,15 18,8 18,-3 10,-15 10,13 13,10 15,2 z"
   id="path73"
   inkscape:connector-curvature="0"
   style="fill:#07c607;stroke:none" />
        <path
   d="m 9929,14300 -10,15 -5,18 2,20 5,18 -17,16 -11,20 v 25 l 16,28 -26,3 -18,-8 -7,-15 v -15 h -10 -13 l -15,-5 -13,-5 -10,-8 -10,-8 -6,-10 v -13 l 6,-20 7,-13 8,-7 10,-3 -3,-20 3,-26 13,-23 30,-20 -5,-18 -2,-18 2,-17 5,-21 10,-15 13,-15 18,-10 23,-5 5,-23 15,-21 20,-7 28,7 6,-28 15,-20 20,-10 28,7 -18,11 -7,17 5,21 18,12 -21,6 -18,7 -10,10 -2,16 -16,-3 -15,3 -15,7 -13,10 -10,11 -5,12 v 10 l 5,11 -30,25 -11,36 11,33 z"
   id="path75"
   inkscape:connector-curvature="0"
   style="fill:#07c607;stroke:none" />
        <path
   d="m 10600,14287 -2,10 -3,6 -7,7 -8,3 -5,25 -13,15 -17,6 -23,-11 -5,11 -8,10 -10,7 -10,5 -11,3 -12,-3 -11,-5 -10,-10 -15,15 -13,8 -12,5 -13,3 -3,-31 -12,-25 -21,-16 h -25 l -3,-12 -7,-16 -11,-12 -10,-10 -12,-11 -11,-5 -12,-2 -10,5 -6,-10 -7,-10 -8,-13 -7,-13 -11,-10 -12,-10 -13,-8 -15,-5 h -10 l -11,3 -12,5 -13,5 8,-26 17,-25 23,-18 26,-2 2,-11 5,-15 10,-18 11,-18 15,-12 18,-10 20,-3 20,5 -10,5 -12,13 -11,15 -7,15 -5,18 v 16 l 7,12 16,8 -8,23 5,25 15,21 33,5 3,12 5,13 10,13 10,13 16,7 15,5 15,-2 18,-5 -18,-21 -13,-35 5,-39 31,-20 -3,-13 3,-15 8,-15 12,-13 13,-10 18,-5 18,2 20,11 -15,10 -13,20 -3,18 16,15 -16,5 -15,13 -13,15 -5,18 -2,18 7,13 16,7 28,-2 -13,28 v 23 l 8,12 17,8 h 18 l 16,-8 10,-12 2,-16 10,10 16,3 10,-3 z"
   id="path77"
   inkscape:connector-curvature="0"
   style="fill:#07c607;stroke:none" />
        <path
   d="m 10725,14290 18,7 8,18 v 18 l -6,18 26,18 5,33 -8,38 -10,30 -2,-10 -8,-20 -5,-25 -5,-18 -13,18 -15,17 -20,13 h -23 l -13,20 -18,5 -23,-5 -18,-7 -2,-16 -8,-25 -5,-28 -5,-20 3,-5 5,-3 2,-5 3,-5 5,20 15,13 18,5 13,-10 15,13 18,2 18,-7 7,-16 20,-10 18,-23 5,-28 z"
   id="path79"
   inkscape:connector-curvature="0"
   style="fill:#07c607;stroke:none" />
        <path
   d="m 10369,14656 15,-7 8,-16 v -15 l -8,-13 23,-5 21,-18 15,-22 5,-21 -5,-18 -8,-12 -13,-11 -15,3 10,-25 -2,-31 -18,-25 -31,-3 6,-25 -8,-28 -18,-18 -30,2 -6,-17 -7,-16 -8,-12 -7,-11 -11,-7 -12,-3 h -16 l -15,3 -2,-13 -8,-15 -8,-18 -12,-15 -16,-13 -17,-8 h -21 l -23,11 h -12 l -16,5 -15,10 -18,13 -12,15 -8,15 -3,20 8,18 h -15 l -15,5 -16,10 -12,13 -11,15 -5,16 3,18 10,15 -18,20 -10,31 3,28 25,17 -15,18 -5,26 5,20 25,15 -2,13 2,18 5,15 10,13 11,13 15,7 h 15 l 18,-5 18,5 18,-5 12,-10 13,-15 -23,-8 -20,-23 -8,-28 8,-18 -18,-23 -8,-30 5,-28 23,-15 v -11 l 3,-15 5,-12 10,-13 10,-10 13,-8 13,-3 15,6 -10,10 -8,12 -2,11 5,12 -10,16 2,17 10,16 26,2 -18,28 5,33 18,21 25,2 v 26 l 8,25 18,15 28,-2 12,15 18,8 18,-3 10,-15 10,13 13,10 15,2 z"
   id="path81"
   inkscape:connector-curvature="0"
   style="fill:#66ff00;stroke:none" />
        <path
   d="m 10600,14287 -2,-10 -3,-10 -7,-10 -8,-8 13,-7 2,-18 -2,-21 -13,-17 18,-8 18,-20 5,-28 -15,-23 -3,-36 -8,-30 -12,-26 -21,-20 -28,-15 -35,-13 -41,-8 -51,-7 -48,-3 -41,5 -30,13 -23,15 -18,18 -13,18 -13,17 -10,18 -20,-33 -20,-20 -21,-13 h -23 l -20,5 -20,10 -18,13 -13,15 -18,11 -7,17 5,21 18,12 -21,6 -18,7 -10,10 -2,16 -16,-3 -15,3 -15,7 -13,10 -10,11 -5,12 v 10 l 5,11 -30,25 -11,36 11,33 25,15 18,-18 20,-12 18,-11 18,-5 5,-20 13,-15 17,-13 21,-10 23,-5 20,-3 18,3 10,5 8,-26 17,-25 23,-18 26,-2 2,-11 5,-15 10,-18 11,-18 15,-12 18,-10 20,-3 20,5 -10,5 -12,13 -11,15 -7,15 -5,18 v 16 l 7,12 16,8 -8,23 5,25 15,21 33,5 3,12 5,13 10,13 10,13 16,7 15,5 15,-2 18,-5 -18,-21 -13,-35 5,-39 31,-20 -3,-13 3,-15 8,-15 12,-13 13,-10 18,-5 18,2 20,11 -15,10 -13,20 -3,18 16,15 -16,5 -15,13 -13,15 -5,18 -2,18 7,13 16,7 28,-2 -13,28 v 23 l 8,12 17,8 h 18 l 16,-8 10,-12 2,-16 10,10 16,3 10,-3 z"
   id="path83"
   inkscape:connector-curvature="0"
   style="fill:#66ff00;stroke:none" />
        <path
   d="m 10438,14944 7,-23 3,-28 -5,-26 -13,-20 18,-10 5,-15 -3,-18 -5,-18 18,-5 13,-8 13,-13 10,-15 h 15 l 18,-5 13,-10 5,-13 -11,-7 -12,-13 -18,-15 -18,-16 -18,-17 -18,-16 -15,-15 -10,-10 h -2 l -6,2 -5,5 h -7 l 2,13 -2,15 -10,13 -13,10 v 16 l -5,15 -10,10 -13,10 -13,5 -15,5 h -13 l -13,-2 -7,7 -10,3 -8,5 h -10 -10 -11 l -10,-2 -10,-3 -18,13 -7,15 2,18 18,20 -31,18 -12,25 5,28 30,16 v 23 l 11,20 20,13 30,-5 18,12 21,5 20,-7 15,-16 -23,-7 -18,-18 -5,-23 11,-23 -6,-10 -5,-15 -2,-15 v -16 l 7,-12 11,-11 20,-7 25,-3 -12,26 -3,28 15,25 36,5 -18,20 -2,31 18,28 z"
   id="path85"
   inkscape:connector-curvature="0"
   style="fill:#66ff00;stroke:none" />
        <path
   d="m 10466,14941 -16,15 23,8 28,13 36,15 35,15 36,15 36,13 25,8 21,5 17,5 31,8 38,10 43,13 43,15 41,15 36,15 25,16 21,12 20,13 23,13 23,18 30,22 36,31 43,38 53,51 6,-15 7,-16 10,-20 13,-18 8,-20 7,-15 -2,-16 -8,-12 -25,-16 -41,-22 -53,-26 -56,-28 -59,-28 -51,-25 -40,-21 -23,-10 -36,5 h -36 l -35,-2 -33,-5 -31,-5 -28,-8 -28,-8 -23,-7 -25,-8 -28,-10 -33,-10 -31,-13 -28,-8 -25,-7 -15,-5 z"
   id="path87"
   inkscape:connector-curvature="0"
   style="fill:#66ff00;stroke:none" />
        <path
   d="m 11389,15048 8,-20 12,-21 18,-10 26,10 7,18 v 20 l -5,23 -7,16 -8,20 v 25 l 2,26 8,18 3,12 -8,21 -10,23 -13,20 -13,18 -15,17 -18,16 -18,2 -17,3 -21,7 -15,13 -10,18 -8,13 -10,10 -13,8 -10,2 -13,-2 -5,-8 -2,-15 7,-23 23,-49 16,-35 5,-28 -13,-21 -18,-22 -2,-26 10,-28 18,-30 12,-16 13,-15 15,-10 16,-10 12,-5 h 16 l 12,5 z"
   id="path89"
   inkscape:connector-curvature="0"
   style="fill:#66ff00;stroke:none" />
        <path
   d="m 10934,14727 15,13 15,13 18,13 18,15 20,13 23,15 23,13 23,15 7,20 -33,-18 -45,-28 -56,-40 -61,-49 -59,-58 -51,-66 -38,-74 -20,-79 -13,8 -18,10 -15,5 -15,-5 5,23 10,30 18,38 23,46 28,46 33,43 35,43 41,36 5,18 -28,-13 -33,-20 -43,-28 -43,-38 -46,-54 -46,-66 -41,-81 -35,-102 -10,-3 -6,-2 -5,-5 h -2 l -10,7 -11,8 -7,3 -3,2 8,26 15,35 18,43 23,49 23,46 23,40 23,33 17,21 16,25 -18,-10 -26,-18 -30,-20 -33,-26 -33,-25 -28,-23 -23,-20 -10,-13 -3,13 -8,12 -10,11 -2,2 25,23 33,31 38,35 44,36 43,35 38,31 33,25 26,16 5,20 -21,-10 -25,-13 -31,-13 -33,-12 -33,-11 -30,-10 -26,-7 -15,-5 -13,10 -15,10 -10,8 -5,2 2,15 -2,18 -3,15 v 6 l 18,5 20,5 21,5 25,7 26,8 28,10 28,10 30,11 31,10 30,12 33,13 31,13 30,13 28,12 28,13 28,13 56,25 56,28 56,28 51,26 46,20 35,18 23,10 8,5 v -23 l 10,-28 15,-30 18,-31 26,-25 25,-18 25,-8 28,8 8,-10 10,-8 5,-5 3,-3 -31,-10 -35,-12 -38,-16 -41,-12 -38,-16 -33,-15 -26,-15 -18,-13 -5,-13 -7,-12 -11,-13 -10,-15 -12,-13 -13,-10 -10,-10 -10,-6 -18,-15 -18,-20 -15,-26 -11,-25 -7,-23 -10,-20 -18,-16 -23,-15 -23,-20 -13,-33 -5,-33 v -23 l -5,-18 -10,-13 -10,-15 -13,-18 -13,-20 -12,-20 -8,-23 3,-23 -8,23 -5,30 v 41 l 5,46 10,51 20,53 31,58 z"
   id="path91"
   inkscape:connector-curvature="0"
   style="fill:#66ff00;stroke:none" />
        <path
   d="m 10725,14290 5,-15 v -16 l -5,-12 h -15 v -18 -21 l -8,-25 -7,-23 -11,-23 -15,-15 -15,-10 h -18 l 3,20 -5,23 -11,20 -17,16 7,15 3,18 -3,15 -5,10 10,21 v 22 l -7,21 -16,12 v 6 7 l -5,8 -2,5 5,20 15,13 18,5 13,-10 15,13 18,2 18,-7 7,-16 20,-10 18,-23 5,-28 z"
   id="path93"
   inkscape:connector-curvature="0"
   style="fill:#66ff00;stroke:none" />
        <path
   d="m 10166,15005 h -6 l -10,2 h -15 -15 l -10,10 -13,8 -10,5 h -13 -10 l -10,-2 -11,-6 -7,-5 -21,3 -15,-3 -15,-7 -10,-13 -10,15 v 26 l 10,23 25,7 3,8 10,8 10,7 15,5 16,3 h 15 l 15,-3 13,-7 -3,-18 13,-15 15,-13 18,2 v -12 l 5,-13 8,-10 z"
   id="path95"
   inkscape:connector-curvature="0"
   style="fill:#66ff00;stroke:none" />
        <path
   d="m 9919,14651 -3,-15 v -15 l 3,-13 2,-10 -28,-18 -12,-31 -3,-33 8,-30 -10,-3 -8,-2 -8,-8 -7,-8 -21,13 -20,15 -15,21 -10,23 -6,23 3,20 10,20 23,15 -23,31 -5,38 13,36 28,12 v 11 l 5,12 7,11 11,7 15,3 18,-3 23,-13 28,-22 -21,-11 -12,-17 -3,-28 z"
   id="path97"
   inkscape:connector-curvature="0"
   style="fill:#66ff00;stroke:none" />
        <path
   d="m 10463,14516 -8,-10 -7,-8 -8,-7 -7,-8 2,-18 -2,-23 -5,-20 -11,-13 3,-2 10,-3 10,-5 8,-7 5,2 8,5 12,5 13,3 5,18 8,23 10,28 15,28 h -5 -13 l -15,-3 -13,-8 v 3 l -2,8 -5,7 z"
   id="path99"
   inkscape:connector-curvature="0"
   style="fill:#66ff00;stroke:none" />
        <path
   d="m 10130,14409 -8,-20 -18,-18 -22,-12 -26,-6 h -30 l -26,6 -25,12 -18,18 -10,-2 h -13 l -15,2 -18,5 -13,8 -12,10 -8,13 v 17 l -13,-5 -13,3 -15,5 -13,8 -12,10 -8,10 -5,10 3,10 -21,3 -20,8 -18,15 -15,20 -10,21 -5,22 v 18 l 7,15 -23,11 -18,17 -7,26 7,25 -20,13 -13,25 3,34 28,22 -18,6 -20,10 -21,12 -17,13 -13,18 -8,18 -2,18 7,20 -23,13 -17,30 -5,36 17,28 -7,20 5,31 20,28 36,10 -8,10 -2,13 2,15 5,13 8,12 13,11 17,7 21,3 -10,18 -5,22 2,26 8,28 12,23 18,23 23,12 26,8 -6,25 13,31 28,30 38,26 44,23 48,13 h 51 l 46,-13 5,7 10,8 13,3 h 12 l 15,-3 13,-5 10,-8 5,-10 13,13 18,8 20,2 h 26 l 25,-2 23,-8 20,-10 13,-13 13,8 18,2 h 18 l 20,-5 18,-5 15,-10 8,-8 2,-10 13,3 15,2 18,-5 20,-5 18,-8 13,-10 7,-13 v -12 h 23 l 18,-8 15,-10 11,-10 22,10 26,8 30,10 31,7 33,8 31,8 30,7 25,8 13,2 15,5 21,6 20,5 23,7 23,8 28,10 30,13 31,13 33,17 33,21 38,23 38,28 39,28 40,35 43,38 8,8 13,8 15,5 15,5 h 18 l 18,-5 18,-10 15,-21 18,-20 18,-8 20,-2 15,-3 10,-5 16,-13 18,-18 20,-20 18,-20 12,-21 8,-17 v -16 l -8,-20 -7,-20 v -18 l 7,-23 11,-31 7,-33 -5,-30 -25,-18 -26,-5 -38,-10 -46,-13 -48,-15 -51,-15 -46,-18 -38,-18 -28,-15 -5,-11 -5,-10 -10,-12 -13,-16 -13,-12 -15,-11 -13,-10 -12,-7 -23,-16 -18,-17 -13,-18 -10,-21 -8,-17 -7,-21 -13,-18 -18,-10 -20,-12 -18,-18 -10,-18 -3,-15 v -21 l -10,-28 -15,-28 -18,-23 -18,-17 -12,-26 -8,-25 3,-23 2,-15 -8,-8 -10,-3 -10,3 -15,13 -18,20 -15,23 -8,18 5,-23 -2,-23 -10,-18 -16,-7 5,-16 v -18 l -10,-15 -18,-7 5,-11 v -12 l -7,-13 -15,-5 v -15 l -3,-23 -8,-26 -12,-25 -18,-23 -20,-18 -23,-10 h -28 l -3,-18 -8,-20 -12,-21 -15,-20 -23,-20 -31,-18 -36,-13 -45,-10 -46,-5 -48,-3 -44,3 -40,8 -36,10 -30,18 -23,22 z"
   id="path101"
   inkscape:connector-curvature="0"
   style="fill:#000000;stroke:none" />
        <path
   d="m 9807,15002 5,15 10,13 15,10 21,5 2,18 13,18 20,18 28,7 -10,18 -7,26 5,28 17,23 -2,25 7,28 21,28 38,18 5,7 8,11 5,7 2,3 -15,12 -18,6 -20,-3 -10,-15 -13,5 -15,-3 -18,-5 -15,-10 -13,-10 -5,-15 2,-16 13,-17 -20,-6 -15,-15 -8,-23 8,-20 -8,-3 h -10 l -8,-2 h -2 l -11,23 -15,15 -15,10 h -18 l -15,-5 -10,-10 -5,-13 5,-15 -23,8 h -21 l -12,-13 v -18 l -13,-3 -15,-5 -13,-5 -13,-7 -10,-8 -5,-13 3,-15 7,-20 -15,-5 -15,-8 -13,-8 -13,-12 -7,-13 -3,-13 5,-15 13,-13 -13,-23 -2,-25 10,-26 33,-17 -5,-13 -3,-15 3,-16 7,-17 11,-18 17,-15 26,-11 30,-7 h 13 13 l 10,2 h 2 l 3,5 3,5 2,8 3,5 -23,10 -21,16 -17,20 -13,20 -5,21 2,20 13,20 25,16 -28,28 -5,35 16,31 33,12 v 11 l 5,12 7,11 11,7 17,3 18,-5 26,-11 30,-22 -23,-11 -12,-17 -3,-26 z"
   id="path103"
   inkscape:connector-curvature="0"
   style="fill:#07c607;stroke:none" />
        <path
   d="m 10076,15335 13,18 18,10 20,3 21,-3 5,18 -3,21 -12,12 -26,3 -5,15 -10,10 -13,8 h -15 l -13,15 -15,10 h -20 l -21,-15 -18,5 -17,3 -18,2 -21,3 h -20 l -20,-3 -21,-7 -23,-11 -20,-12 -18,-11 -17,-10 -13,-10 -10,-15 -8,-18 -3,-20 v -28 l -15,-3 -18,-7 -17,-13 -16,-15 -15,-18 -8,-21 v -22 l 8,-23 8,7 10,5 13,3 15,-3 2,11 8,10 10,7 10,8 16,5 17,-2 21,-6 23,-15 5,10 5,8 5,8 10,2 v 18 l 3,18 7,15 10,15 -12,16 v 25 l 12,20 26,8 5,8 8,7 12,8 18,5 15,2 h 18 l 15,-2 16,-8 -3,-17 13,-16 18,-10 20,3 -3,-13 6,-13 10,-10 z"
   id="path105"
   inkscape:connector-curvature="0"
   style="fill:#07c607;stroke:none" />
        <path
   d="m 10173,15361 v 20 l -2,23 -13,23 -28,8 -8,10 -7,7 -8,8 -8,3 8,5 13,5 15,2 h 18 20 l 20,-7 18,-13 18,-18 10,5 13,5 15,5 h 16 l 15,-2 15,-8 15,-13 10,-17 13,5 h 15 16 l 18,-5 15,-8 13,-8 7,-12 v -16 h 18 l 18,-5 15,-7 8,-10 -13,-6 -15,-5 -21,-7 -17,-8 -18,-5 -16,-8 -10,-2 -5,-3 -13,8 -15,2 h -13 -10 l -7,8 -13,10 -15,8 -18,8 -20,7 -18,3 -16,-3 -10,-5 -10,5 -13,5 -10,3 z"
   id="path107"
   inkscape:connector-curvature="0"
   style="fill:#07c607;stroke:none" />
        <path
   d="m 10410,15211 v 12 16 12 6 l 15,5 20,5 21,7 25,8 28,10 31,10 30,8 33,10 31,8 33,7 30,8 31,5 28,5 h 25 26 l 20,-2 -18,-8 -23,-10 -25,-10 -28,-13 -31,-10 -30,-13 -33,-13 -33,-10 -33,-13 -31,-10 -30,-7 -31,-11 -25,-5 -23,-5 -18,-2 z"
   id="path109"
   inkscape:connector-curvature="0"
   style="fill:#07c607;stroke:none" />
        <path
   d="m 10916,15073 -41,-33 -33,-30 -28,-28 -20,-26 -15,-25 -13,-23 -8,-20 -7,-18 5,-31 15,-38 20,-35 23,-28 -7,20 -6,28 v 38 l 6,43 12,49 21,51 30,53 z"
   id="path111"
   inkscape:connector-curvature="0"
   style="fill:#07c607;stroke:none" />
        <path
   d="m 10468,14865 13,23 13,20 15,23 13,20 12,18 13,18 10,13 8,10 -10,-8 -18,-13 -26,-15 -22,-18 -26,-17 -23,-18 -20,-13 -10,-10 v -5 l -3,-8 -2,-5 -3,-5 10,-5 5,-8 3,-5 v -2 l 15,5 15,2 13,3 z"
   id="path113"
   inkscape:connector-curvature="0"
   style="fill:#07c607;stroke:none" />
        <path
   d="m 10845,15112 -66,-36 -59,-41 -48,-41 -38,-40 -28,-41 -23,-33 -16,-25 -7,-18 18,13 h 22 l 23,-11 11,-12 5,20 10,28 20,38 26,41 30,40 36,44 40,40 z"
   id="path115"
   inkscape:connector-curvature="0"
   style="fill:#07c607;stroke:none" />
        <path
   d="m 10374,15277 -10,10 -10,8 -18,5 -20,-3 -11,10 -15,11 -15,10 -15,5 -16,2 h -15 l -15,-7 -10,-10 -13,12 -15,10 -16,6 -17,2 h -18 l -18,-8 -13,-10 -7,-18 -8,6 -13,5 h -15 l -13,-3 -12,-5 -8,-8 -5,-12 2,-16 -17,-2 -18,-5 -15,-10 -13,-13 -8,-13 -2,-13 2,-12 10,-13 -17,-15 -8,-26 v -25 l 18,-20 h 18 l 15,-6 10,-7 8,-10 10,5 h 13 l 15,-3 18,-2 15,-8 13,-8 10,-10 7,-10 8,8 10,7 15,8 16,5 -18,13 -13,12 3,18 20,18 -33,15 -13,28 8,26 30,15 -2,13 2,10 6,10 7,10 10,5 13,5 h 15 l 18,-5 10,8 10,5 11,3 h 10 l 10,-3 10,-3 10,-7 8,-8 -25,-7 -18,-18 -5,-21 10,-20 -8,-10 -5,-15 -2,-13 2,-15 8,-13 12,-13 21,-5 28,-2 -15,22 -3,28 18,23 38,5 -18,21 -2,28 17,25 z"
   id="path117"
   inkscape:connector-curvature="0"
   style="fill:#07c607;stroke:none" />
        <path
   d="m 10298,15010 2,10 -5,10 -10,10 -13,5 -12,5 -16,3 h -12 l -11,-5 -15,13 -15,5 -18,2 -18,-5 -15,-5 -10,-10 -8,-10 -2,-13 -10,5 -11,3 -10,-3 -10,-5 -5,15 -8,13 -12,10 -13,8 -15,2 h -13 l -13,-5 -10,-10 -10,23 -18,10 -20,5 -21,-5 -20,-10 -13,-15 -7,-16 5,-17 -33,-8 -21,-23 -2,-30 12,-26 -28,-13 -20,-15 -10,-18 v -20 l 3,-18 10,-18 12,-15 16,-10 -21,-18 -5,-23 10,-20 28,-13 -15,-20 -2,-18 7,-18 15,-15 18,-13 21,-10 17,-8 h 16 l 5,-20 10,-18 15,-10 21,-8 20,-5 h 20 18 l 15,5 h -12 l -18,6 -21,10 -17,12 -16,13 -7,18 -3,18 8,18 h -15 l -18,5 -15,7 -16,13 -10,13 -5,18 3,15 10,15 -21,20 -10,26 3,28 25,18 -13,17 -7,23 7,21 28,12 -2,13 v 15 l 8,16 7,12 13,13 15,5 18,3 20,-5 21,2 17,-2 16,-11 12,-15 -25,-7 -20,-23 -8,-23 8,-18 -21,-23 -10,-30 5,-26 26,-13 v -10 l 2,-12 8,-16 10,-12 10,-11 15,-5 16,-2 15,5 -13,10 -7,10 -3,13 8,10 -11,15 v 16 l 16,15 25,2 -13,13 -5,15 v 16 l 5,12 8,13 13,8 13,5 12,-3 v 26 l 8,23 20,15 31,-3 12,16 21,7 18,-2 12,-16 11,13 15,10 15,3 z"
   id="path119"
   inkscape:connector-curvature="0"
   style="fill:#07c607;stroke:none" />
        <path
   d="m 9820,14671 -11,16 -5,15 v 18 l 8,18 -20,15 -11,18 -2,25 15,26 -25,5 -18,-8 -10,-15 v -16 h -13 -13 l -15,-2 -13,-5 -12,-8 -11,-7 -7,-11 v -12 l 5,-21 10,-12 10,-5 10,-3 -5,-20 3,-21 15,-23 33,-20 -5,-15 -2,-18 v -18 l 7,-18 10,-15 16,-15 20,-10 25,-5 5,-23 16,-18 23,-8 28,8 2,-13 5,-13 8,-10 8,-10 10,-8 12,-2 h 16 l 17,8 -17,10 -11,17 3,18 20,13 -23,5 -17,8 -13,10 -3,13 -15,-3 -18,3 -15,7 -15,10 -10,11 -8,10 v 13 l 8,7 -36,23 -8,33 11,33 z"
   id="path121"
   inkscape:connector-curvature="0"
   style="fill:#07c607;stroke:none" />
        <path
   d="m 10555,14659 -3,10 -2,5 -8,8 -10,2 -5,23 -13,15 -20,3 -26,-10 -7,10 -8,10 -10,8 -13,5 h -13 -10 l -13,-5 -10,-8 -18,13 -15,7 -13,5 -15,3 -2,-28 -13,-25 -23,-16 h -28 l -2,-12 -8,-13 -10,-13 -13,-10 -13,-8 -12,-7 h -13 l -13,2 -5,-7 -8,-11 -7,-12 -10,-10 -11,-13 -12,-8 -16,-7 -15,-5 h -13 l -12,2 -13,5 -13,5 3,-12 5,-13 8,-13 10,-10 12,-10 16,-5 12,-5 h 16 l 2,-11 5,-12 11,-16 12,-17 16,-13 20,-10 23,-3 23,5 -13,5 -13,10 -13,16 -10,15 -5,15 v 16 l 8,12 18,8 -8,20 5,26 20,20 36,5 3,13 5,10 10,13 13,10 15,8 15,2 h 20 l 18,-5 -20,-18 -13,-35 5,-33 33,-21 -2,-13 5,-12 8,-16 12,-12 16,-10 17,-6 21,3 23,10 -21,10 -12,18 -3,18 18,13 -18,5 -18,10 -13,15 -7,18 v 15 l 5,16 18,5 h 30 l -12,25 v 20 l 10,16 17,7 21,-2 15,-8 10,-10 5,-15 13,10 15,2 13,-2 z"
   id="path123"
   inkscape:connector-curvature="0"
   style="fill:#07c607;stroke:none" />
        <path
   d="m 10690,14661 20,8 7,15 v 18 l -5,15 28,18 5,33 -7,36 -13,28 -2,-8 -8,-20 -8,-26 -5,-18 -5,11 -7,10 -8,7 -10,8 -10,8 -11,5 h -12 -13 l -5,13 -10,7 -8,3 -10,2 -13,-2 -10,-3 -10,-2 -10,-5 -5,-16 -6,-25 -7,-26 -8,-20 5,-3 5,-5 3,-2 5,-5 8,18 15,12 18,5 10,-10 18,10 20,5 18,-5 7,-15 26,-10 18,-23 5,-25 z"
   id="path125"
   inkscape:connector-curvature="0"
   style="fill:#07c607;stroke:none" />
        <path
   d="m 10298,15010 15,-8 10,-13 3,-15 -8,-13 26,-7 22,-15 16,-21 2,-20 -5,-18 -7,-13 -13,-7 h -15 l 10,-23 -5,-28 -18,-23 -33,-5 5,-26 -8,-25 -20,-15 h -33 l -5,-18 -8,-13 -8,-13 -10,-7 -10,-8 -15,-2 h -15 l -18,5 -3,-13 -7,-15 -11,-16 -12,-15 -18,-13 -20,-7 h -21 l -23,7 h -12 l -18,6 -21,10 -17,12 -16,13 -7,18 -3,18 8,18 h -15 l -18,5 -15,7 -16,13 -10,13 -5,18 3,15 10,15 -21,20 -10,26 3,28 25,18 -13,17 -7,23 7,21 28,12 -2,13 v 15 l 8,16 7,12 13,13 15,5 18,3 20,-5 21,2 17,-2 16,-11 12,-15 -25,-7 -20,-23 -8,-23 8,-18 -21,-23 -10,-30 5,-26 26,-13 v -10 l 2,-12 8,-16 10,-12 10,-11 15,-5 16,-2 15,5 -13,10 -7,10 -3,13 8,10 -11,15 v 16 l 16,15 25,2 -13,13 -5,15 v 16 l 5,12 8,13 13,8 13,5 12,-3 v 26 l 8,23 20,15 31,-3 12,16 21,7 18,-2 12,-16 11,13 15,10 15,3 z"
   id="path127"
   inkscape:connector-curvature="0"
   style="fill:#66ff00;stroke:none" />
        <path
   d="m 10555,14659 -3,-10 -2,-8 -8,-10 -13,-8 16,-8 5,-15 -3,-20 -15,-18 20,-8 18,-20 5,-25 -15,-21 -3,-35 -7,-28 -16,-23 -23,-21 -30,-15 -38,-10 -46,-8 -56,-7 -53,-3 -44,5 -33,10 -25,16 -20,18 -16,17 -12,18 -11,15 -20,-30 -23,-20 -25,-11 -23,-2 -23,5 -20,8 -18,12 -16,16 -17,10 -11,17 3,18 20,13 -23,5 -17,8 -13,10 -3,13 -15,-3 -18,3 -15,7 -15,10 -10,11 -8,10 v 13 l 8,7 -36,23 -8,33 11,33 28,15 10,-10 10,-7 10,-8 10,-5 10,-5 11,-3 10,-2 10,-3 5,-20 13,-15 20,-13 23,-8 23,-5 23,-2 18,2 12,5 3,-12 5,-13 8,-13 10,-10 12,-10 16,-5 12,-5 h 16 l 2,-11 5,-12 11,-16 12,-17 16,-13 20,-10 23,-3 23,5 -13,5 -13,10 -13,16 -10,15 -5,15 v 16 l 8,12 18,8 -8,20 5,26 20,20 36,5 3,13 5,10 10,13 13,10 15,8 15,2 h 20 l 18,-5 -20,-18 -13,-35 5,-33 33,-21 -2,-13 5,-12 8,-16 12,-12 16,-10 17,-6 21,3 23,10 -21,10 -12,18 -3,18 18,13 -18,5 -18,10 -13,15 -7,18 v 15 l 5,16 18,5 h 30 l -12,25 v 20 l 10,16 17,7 21,-2 15,-8 10,-10 5,-15 13,10 15,2 13,-2 z"
   id="path129"
   inkscape:connector-curvature="0"
   style="fill:#66ff00;stroke:none" />
        <path
   d="m 10374,15277 10,-23 v -23 l -5,-25 -13,-18 18,-10 8,-16 -3,-15 -5,-18 18,-5 15,-7 16,-11 10,-15 h 18 l 15,-5 15,-10 8,-10 -10,-8 -16,-13 -18,-12 -20,-16 -20,-15 -21,-15 -15,-15 -13,-11 h -2 l -5,3 -5,5 h -8 v 13 l -2,15 -11,13 -15,7 v 16 l -5,12 -10,11 -13,7 -18,8 -15,2 h -15 l -13,-2 -10,5 -8,5 -10,3 -10,2 h -10 -13 l -10,-2 -10,-3 -18,13 -13,12 3,18 20,18 -33,15 -13,28 8,26 30,15 -2,13 2,10 6,10 7,10 10,5 13,5 h 15 l 18,-5 10,8 10,5 11,3 h 10 l 10,-3 10,-3 10,-7 8,-8 -25,-7 -18,-18 -5,-21 10,-20 -8,-10 -5,-15 -2,-13 2,-15 8,-13 12,-13 21,-5 28,-2 -15,22 -3,28 18,23 38,5 -18,21 -2,28 17,25 z"
   id="path131"
   inkscape:connector-curvature="0"
   style="fill:#66ff00;stroke:none" />
        <path
   d="m 10405,15277 -16,13 23,7 33,13 38,15 41,15 38,16 38,12 31,8 20,5 21,3 33,7 40,11 46,12 46,13 46,15 38,15 31,13 22,13 23,10 23,13 26,18 33,20 38,30 46,36 58,48 5,-12 10,-16 13,-17 13,-18 10,-18 5,-18 v -12 l -10,-13 -26,-13 -45,-23 -56,-23 -64,-28 -63,-25 -56,-26 -44,-17 -25,-11 -41,6 h -38 l -38,-3 -36,-5 -35,-5 -31,-8 -28,-7 -25,-8 -26,-10 -33,-10 -35,-11 -33,-7 -34,-10 -25,-8 -18,-3 z"
   id="path133"
   inkscape:connector-curvature="0"
   style="fill:#66ff00;stroke:none" />
        <path
   d="m 11414,15379 8,-21 15,-20 21,-8 28,8 10,18 -3,20 -7,23 -8,15 -8,18 v 23 l 3,25 10,18 v 13 l -8,20 -10,21 -12,17 -16,18 -15,18 -20,13 -21,5 h -20 l -20,7 -18,13 -10,18 -8,13 -10,7 -13,8 h -15 -10 l -8,-10 -2,-13 7,-23 23,-43 20,-33 6,-26 -16,-20 -18,-20 -2,-26 10,-28 20,-30 13,-15 13,-13 15,-10 18,-11 18,-5 h 15 l 13,5 z"
   id="path135"
   inkscape:connector-curvature="0"
   style="fill:#66ff00;stroke:none" />
        <path
   d="m 10916,15073 18,13 18,13 17,13 21,12 23,13 22,15 26,13 25,13 8,20 -36,-15 -51,-28 -61,-38 -66,-49 -61,-53 -56,-64 -43,-68 -23,-74 -13,7 -17,8 -18,5 -15,-2 5,20 10,28 20,38 26,41 30,40 36,44 40,40 44,34 2,17 -28,-12 -38,-18 -46,-28 -48,-36 -51,-51 -48,-61 -46,-79 -38,-94 -10,-2 -8,-3 -5,-5 h -3 l -10,8 -10,7 -10,3 -3,2 8,26 18,33 20,41 26,45 25,44 25,38 23,30 18,18 15,23 -17,-10 -28,-15 -36,-21 -36,-23 -35,-22 -31,-21 -23,-18 -12,-12 -3,12 -10,11 -8,10 -5,2 28,23 38,28 44,31 45,33 46,33 43,30 36,23 28,15 5,21 -20,-10 -31,-11 -33,-12 -36,-13 -38,-13 -33,-10 -25,-5 -18,-5 -13,10 -17,10 -13,8 -5,2 2,16 v 15 l -2,15 v 5 l 18,3 22,5 23,8 28,5 28,7 31,11 33,7 33,10 33,13 33,10 33,13 36,10 33,13 30,13 31,12 30,13 61,25 61,26 62,25 55,26 49,20 40,15 23,11 11,5 v -23 l 10,-26 15,-30 23,-28 25,-23 28,-18 31,-8 28,6 7,-11 11,-5 7,-5 3,-2 -33,-11 -41,-12 -41,-13 -43,-13 -41,-15 -38,-15 -28,-13 -18,-13 -5,-10 -10,-13 -10,-12 -13,-13 -12,-13 -13,-12 -15,-8 -11,-8 -20,-12 -18,-21 -18,-23 -10,-25 -7,-20 -13,-18 -15,-16 -28,-12 -23,-21 -15,-30 -6,-31 -2,-23 -3,-15 -10,-12 -13,-13 -12,-18 -13,-18 -15,-23 -10,-20 2,-20 -7,20 -6,28 v 38 l 6,43 12,49 21,51 30,53 z"
   id="path137"
   inkscape:connector-curvature="0"
   style="fill:#66ff00;stroke:none" />
        <path
   d="m 10690,14661 5,-15 2,-15 -7,-10 h -18 v -16 l -3,-23 -5,-22 -8,-23 -12,-21 -16,-15 -17,-8 h -18 l 2,18 -5,23 -10,18 -18,15 8,15 2,16 -2,15 -8,10 10,18 6,23 -8,18 -18,12 v 5 l -2,8 -3,8 -5,5 8,18 15,12 18,5 10,-10 18,10 20,5 18,-5 7,-15 26,-10 18,-23 5,-25 z"
   id="path139"
   inkscape:connector-curvature="0"
   style="fill:#66ff00;stroke:none" />
        <path
   d="m 10076,15335 h -5 l -12,3 -16,2 h -17 l -11,11 -12,7 -13,5 h -13 -12 l -13,-5 -10,-5 -8,-5 -20,3 -18,-3 -15,-8 -11,-10 -12,16 v 25 l 12,20 26,8 5,8 8,7 12,8 18,5 15,2 h 18 l 15,-2 16,-8 -3,-17 13,-16 18,-10 20,3 -3,-13 6,-13 10,-10 z"
   id="path141"
   inkscape:connector-curvature="0"
   style="fill:#66ff00;stroke:none" />
        <path
   d="m 9807,15002 v -13 -12 -13 l 2,-13 -30,-15 -13,-28 v -33 l 8,-28 -13,-3 -10,-2 -8,-5 -7,-8 -23,10 -21,16 -17,20 -13,20 -5,21 2,20 13,20 25,16 -28,28 -5,35 16,31 33,12 v 11 l 5,12 7,11 11,7 17,3 18,-5 26,-11 30,-22 -23,-11 -12,-17 -3,-26 z"
   id="path143"
   inkscape:connector-curvature="0"
   style="fill:#66ff00;stroke:none" />
        <path
   d="m 10402,14875 -8,-10 -7,-8 -10,-7 -8,-6 3,-15 -3,-23 -5,-20 -10,-13 5,-2 7,-3 11,-5 7,-5 5,2 11,6 12,5 16,2 5,18 7,20 13,26 15,28 h -5 l -13,-3 -15,-2 -15,-5 v 2 l -3,5 -5,8 z"
   id="path145"
   inkscape:connector-curvature="0"
   style="fill:#66ff00;stroke:none" />
       </g>
      </g>
     </g>
    </g>
   </g>
  </g>
 </g>
</svg>