<?xml version="1.0" encoding="UTF-8" standalone="no"?>
<svg
   xmlns:ooo="http://xml.openoffice.org/svg/export"
   xmlns:dc="http://purl.org/dc/elements/1.1/"
   xmlns:cc="http://creativecommons.org/ns#"
   xmlns:rdf="http://www.w3.org/1999/02/22-rdf-syntax-ns#"
   xmlns:svg="http://www.w3.org/2000/svg"
   xmlns="http://www.w3.org/2000/svg"
   xmlns:sodipodi="http://sodipodi.sourceforge.net/DTD/sodipodi-0.dtd"
   xmlns:inkscape="http://www.inkscape.org/namespaces/inkscape"
   version="1.2"
   width="14.1mm"
   height="49.279999mm"
   viewBox="0 0 1410 4927.9999"
   preserveAspectRatio="xMidYMid"
   xml:space="preserve"
   id="svg587"
   sodipodi:docname="broom.svg"
   style="fill-rule:evenodd;stroke-width:28.22200012;stroke-linejoin:round"
   inkscape:version="0.92.5 (2060ec1f9f, 2020-04-08)"><metadata
   id="metadata591"><rdf:RDF><cc:Work
       rdf:about=""><dc:format>image/svg+xml</dc:format><dc:type
         rdf:resource="http://purl.org/dc/dcmitype/StillImage" /></cc:Work></rdf:RDF></metadata><sodipodi:namedview
   pagecolor="#ffffff"
   bordercolor="#666666"
   borderopacity="1"
   objecttolerance="10"
   gridtolerance="10"
   guidetolerance="10"
   inkscape:pageopacity="0"
   inkscape:pageshadow="2"
   inkscape:window-width="664"
   inkscape:window-height="487"
   id="namedview589"
   showgrid="false"
   inkscape:zoom="0.2102413"
   inkscape:cx="26.64567"
   inkscape:cy="93.127557"
   inkscape:window-x="0"
   inkscape:window-y="0"
   inkscape:window-maximized="0"
   inkscape:current-layer="svg587" />
 <defs
   class="ClipPathGroup"
   id="defs8">
  <clipPath
   id="presentation_clip_path"
   clipPathUnits="userSpaceOnUse">
   <rect
   x="0"
   y="0"
   width="21000"
   height="29700"
   id="rect2" />
  </clipPath>
  <clipPath
   id="presentation_clip_path_shrink"
   clipPathUnits="userSpaceOnUse">
   <rect
   x="21"
   y="29"
   width="20958"
   height="29641"
   id="rect5" />
  </clipPath>
 </defs>
 <defs
   class="TextShapeIndex"
   id="defs12">
  <g
   ooo:slide="id1"
   ooo:id-list="id3"
   id="g10" />
 </defs>
 <defs
   class="EmbeddedBulletChars"
   id="defs44">
  <g
   id="bullet-char-template-57356"
   transform="matrix(4.8828125e-4,0,0,-4.8828125e-4,0,0)">
   <path
   d="M 580,1141 1163,571 580,0 -4,571 Z"
   id="path14"
   inkscape:connector-curvature="0" />
  </g>
  <g
   id="bullet-char-template-57354"
   transform="matrix(4.8828125e-4,0,0,-4.8828125e-4,0,0)">
   <path
   d="M 8,1128 H 1137 V 0 H 8 Z"
   id="path17"
   inkscape:connector-curvature="0" />
  </g>
  <g
   id="bullet-char-template-10146"
   transform="matrix(4.8828125e-4,0,0,-4.8828125e-4,0,0)">
   <path
   d="M 174,0 602,739 174,1481 1456,739 Z M 1358,739 309,1346 659,739 Z"
   id="path20"
   inkscape:connector-curvature="0" />
  </g>
  <g
   id="bullet-char-template-10132"
   transform="matrix(4.8828125e-4,0,0,-4.8828125e-4,0,0)">
   <path
   d="M 2015,739 1276,0 H 717 l 543,543 H 174 v 393 h 1086 l -543,545 h 557 z"
   id="path23"
   inkscape:connector-curvature="0" />
  </g>
  <g
   id="bullet-char-template-10007"
   transform="matrix(4.8828125e-4,0,0,-4.8828125e-4,0,0)">
   <path
   d="m 0,-2 c -7,16 -16,29 -25,39 l 381,530 c -94,256 -141,385 -141,387 0,25 13,38 40,38 9,0 21,-2 34,-5 21,4 42,12 65,25 l 27,-13 111,-251 280,301 64,-25 24,25 c 21,-10 41,-24 62,-43 C 886,937 835,863 770,784 769,783 710,716 594,584 L 774,223 c 0,-27 -21,-55 -63,-84 l 16,-20 C 717,90 699,76 672,76 641,76 570,178 457,381 L 164,-76 c -22,-34 -53,-51 -92,-51 -42,0 -63,17 -64,51 -7,9 -10,24 -10,44 0,9 1,19 2,30 z"
   id="path26"
   inkscape:connector-curvature="0" />
  </g>
  <g
   id="bullet-char-template-10004"
   transform="matrix(4.8828125e-4,0,0,-4.8828125e-4,0,0)">
   <path
   d="M 285,-33 C 182,-33 111,30 74,156 52,228 41,333 41,471 c 0,78 14,145 41,201 34,71 87,106 158,106 53,0 88,-31 106,-94 l 23,-176 c 8,-64 28,-97 59,-98 l 735,706 c 11,11 33,17 66,17 42,0 63,-15 63,-46 V 965 c 0,-36 -10,-64 -30,-84 L 442,47 C 390,-6 338,-33 285,-33 Z"
   id="path29"
   inkscape:connector-curvature="0" />
  </g>
  <g
   id="bullet-char-template-9679"
   transform="matrix(4.8828125e-4,0,0,-4.8828125e-4,0,0)">
   <path
   d="M 813,0 C 632,0 489,54 383,161 276,268 223,411 223,592 c 0,181 53,324 160,431 106,107 249,161 430,161 179,0 323,-54 432,-161 108,-107 162,-251 162,-431 0,-180 -54,-324 -162,-431 C 1136,54 992,0 813,0 Z"
   id="path32"
   inkscape:connector-curvature="0" />
  </g>
  <g
   id="bullet-char-template-8226"
   transform="matrix(4.8828125e-4,0,0,-4.8828125e-4,0,0)">
   <path
   d="m 346,457 c -73,0 -137,26 -191,78 -54,51 -81,114 -81,188 0,73 27,136 81,188 54,52 118,78 191,78 73,0 134,-26 185,-79 51,-51 77,-114 77,-187 0,-75 -25,-137 -76,-188 -50,-52 -112,-78 -186,-78 z"
   id="path35"
   inkscape:connector-curvature="0" />
  </g>
  <g
   id="bullet-char-template-8211"
   transform="matrix(4.8828125e-4,0,0,-4.8828125e-4,0,0)">
   <path
   d="M -4,459 H 1135 V 606 H -4 Z"
   id="path38"
   inkscape:connector-curvature="0" />
  </g>
  <g
   id="bullet-char-template-61548"
   transform="matrix(4.8828125e-4,0,0,-4.8828125e-4,0,0)">
   <path
   d="m 173,740 c 0,163 58,303 173,419 116,115 255,173 419,173 163,0 302,-58 418,-173 116,-116 174,-256 174,-419 0,-163 -58,-303 -174,-418 C 1067,206 928,148 765,148 601,148 462,206 346,322 231,437 173,577 173,740 Z"
   id="path41"
   inkscape:connector-curvature="0" />
  </g>
 </defs>
 <g
   id="g49"
   transform="translate(-9795,-12386)">
  <g
   id="id2"
   class="Master_Slide">
   <g
   id="bg-id2"
   class="Background" />
   <g
   id="bo-id2"
   class="BackgroundObjects" />
  </g>
 </g>
 <g
   class="SlideGroup"
   id="g585"
   transform="translate(-9795,-12386)">
  <g
   id="g583">
   <g
   id="container-id1">
    <g
   id="id1"
   class="Slide"
   clip-path="url(#presentation_clip_path)">
     <g
   class="Page"
   id="g579">
      <g
   class="Graphic"
   id="g577">
       <g
   id="id3">
        <rect
   class="BoundingBox"
   x="9795"
   y="12386"
   width="1410"
   height="4928"
   id="rect51"
   style="fill:none;stroke:none" />
        <defs
   id="defs56">
         <clipPath
   id="clip_path_1"
   clipPathUnits="userSpaceOnUse">
          <path
   d="m 9795,12386 h 1409 v 4927 H 9795 Z"
   id="path53"
   inkscape:connector-curvature="0" />
         </clipPath>
        </defs>
        <g
   clip-path="url(#clip_path_1)"
   id="g574">
         <path
   d="m 10421,16173 10,10 13,5 13,3 h 12 16 l 15,-3 13,-2 12,-6 11,-81 -8,-84 -13,-81 -5,-84 v -10 l -5,-8 -5,-7 -3,-10 v -31 -30 -31 l -2,-30 -3,-28 -2,-31 -3,-28 -2,-28 -3,-23 -10,-35 -8,-38 -5,-21 -12,-91 -16,-112 -15,-99 -13,-64 -12,-51 -11,-38 -10,-38 -13,-51 -10,-45 -7,-64 -5,-66 v -48 l -3,-36 -5,-53 -5,-54 -5,-35 -8,-46 v -38 -38 l -2,-46 -6,-48 -5,-49 -5,-48 -5,-48 v -5 l 3,-8 2,-7 v -6 -22 -13 l -5,-10 -13,-21 -5,-48 -10,-104 -13,-102 -5,-51 -12,-40 -8,-33 -5,-31 -5,-43 -8,-76 -10,-74 -15,-74 -21,-76 -5,-20 -5,-36 -7,-35 -5,-21 -13,-51 -15,-50 -13,-51 -5,-54 -3,-71 -10,-68 -15,-66 -18,-69 -5,-18 v -15 l -3,-18 v -15 l -5,-23 -7,-20 -8,-23 -5,-21 -3,-40 v -41 l -7,-38 -26,-31 -15,-10 -18,-5 -20,-5 -18,-2 -20,2 -18,5 -18,8 -18,10 -18,20 -10,21 -2,25 v 26 l 5,35 10,36 10,33 10,35 5,38 3,36 2,38 8,38 13,38 10,39 10,35 8,38 10,38 10,36 10,38 10,38 8,38 3,38 v 41 l 2,38 5,26 10,25 8,23 5,25 5,59 5,58 5,59 11,58 12,56 16,53 15,56 18,56 12,46 8,46 5,48 3,51 2,33 3,30 5,33 8,33 12,31 10,30 8,31 5,33 3,46 -3,43 -2,43 2,41 8,41 10,43 10,40 8,44 2,25 v 23 l 3,25 2,23 v 5 l 3,3 2,5 3,5 5,79 8,79 7,78 16,79 5,10 7,10 8,11 5,10 13,53 15,51 13,51 5,56 2,23 3,20 5,20 3,21 12,71 8,71 5,71 8,71 5,26 5,28 5,25 3,28 v 18 l 2,15 v 18 18 l 3,10 2,7 5,11 v 7 79 l 5,79 11,76 20,74 z"
   id="path58"
   inkscape:connector-curvature="0"
   style="fill:#7f3300;stroke:none" />
         <path
   d="m 10518,16178 5,-5 -13,5 -10,2 -15,3 -16,-3 -12,3 -10,-3 -11,-5 -7,-7 -16,10 13,13 15,5 16,2 12,3 16,-3 15,-2 15,-3 13,-5 5,-5 -5,5 5,-5 v -5 l -2,-5 h -8 z"
   id="path60"
   inkscape:connector-curvature="0"
   style="fill:#000000;stroke:none" />
         <path
   d="m 10503,15850 v 0 l 5,84 12,81 5,84 -7,79 15,5 13,-84 -10,-84 -13,-81 -5,-84 v 0 z"
   id="path62"
   inkscape:connector-curvature="0"
   style="fill:#000000;stroke:none" />
         <path
   d="m 10487,15815 v 0 l 5,12 5,10 6,5 v 8 h 15 v -13 l -5,-10 -5,-5 v -7 0 z"
   id="path64"
   inkscape:connector-curvature="0"
   style="fill:#000000;stroke:none" />
         <path
   d="m 10487,15693 v 0 30 31 30 31 h 21 v -31 -30 -31 l -5,-30 v 0 z"
   id="path66"
   inkscape:connector-curvature="0"
   style="fill:#000000;stroke:none" />
         <path
   d="m 10475,15578 h 2 l 3,28 2,28 3,31 2,28 h 16 l -3,-28 -3,-31 -2,-28 -3,-28 h 3 z"
   id="path68"
   inkscape:connector-curvature="0"
   style="fill:#000000;stroke:none" />
         <path
   d="m 10452,15461 v 0 l 5,21 7,38 11,35 v 23 h 20 l -5,-23 -10,-35 -8,-38 -5,-21 v 0 z"
   id="path70"
   inkscape:connector-curvature="0"
   style="fill:#000000;stroke:none" />
         <path
   d="m 10396,15098 v 0 l 12,61 16,99 15,112 13,91 h 15 l -13,-91 -15,-112 -15,-99 -13,-66 v 0 z"
   id="path72"
   inkscape:connector-curvature="0"
   style="fill:#000000;stroke:none" />
         <path
   d="m 10350,14920 v 0 l 13,48 10,41 10,35 13,54 15,-5 -13,-49 -10,-40 -10,-36 -13,-53 v 0 z"
   id="path74"
   inkscape:connector-curvature="0"
   style="fill:#000000;stroke:none" />
         <path
   d="m 10324,14694 h 3 v 48 l 5,66 8,64 10,48 15,-5 -10,-43 -8,-64 -5,-66 v -48 h 3 z"
   id="path76"
   inkscape:connector-curvature="0"
   style="fill:#000000;stroke:none" />
         <path
   d="m 10309,14516 v 0 l 5,35 5,54 5,53 v 36 h 21 l -5,-36 -5,-53 -6,-54 -5,-35 v 0 z"
   id="path78"
   inkscape:connector-curvature="0"
   style="fill:#000000;stroke:none" />
         <path
   d="m 10299,14348 v 0 46 38 l 2,38 8,46 h 15 l -7,-46 2,-38 v -38 l -5,-46 v 0 z"
   id="path80"
   inkscape:connector-curvature="0"
   style="fill:#000000;stroke:none" />
         <path
   d="m 10276,14155 h 3 l 5,48 5,48 5,49 5,48 h 15 l -5,-48 -5,-49 -5,-48 -5,-48 h 2 z"
   id="path82"
   inkscape:connector-curvature="0"
   style="fill:#000000;stroke:none" />
         <path
   d="m 10284,14129 h -3 l 3,6 -3,5 -2,10 -3,5 h 20 l -2,-5 2,-5 3,-10 2,-6 h -2 z"
   id="path84"
   inkscape:connector-curvature="0"
   style="fill:#000000;stroke:none" />
         <path
   d="m 10266,14066 v 2 l 13,21 5,5 -3,13 3,22 h 15 l 2,-22 -2,-13 -5,-15 -13,-21 v 3 z"
   id="path86"
   inkscape:connector-curvature="0"
   style="fill:#000000;stroke:none" />
         <path
   d="m 10233,13761 v 0 l 5,48 13,102 10,104 5,51 15,-5 -5,-46 -10,-104 -13,-102 -5,-53 v 0 z"
   id="path88"
   inkscape:connector-curvature="0"
   style="fill:#000000;stroke:none" />
         <path
   d="m 10202,13611 v 0 l 5,43 5,31 8,35 13,41 15,-5 -13,-41 -7,-30 -5,-31 -6,-43 v 0 z"
   id="path90"
   inkscape:connector-curvature="0"
   style="fill:#000000;stroke:none" />
         <path
   d="m 10149,13314 v 0 l 20,73 15,74 11,74 7,76 h 15 l -7,-76 -10,-74 -16,-74 -20,-78 v 0 z"
   id="path92"
   inkscape:connector-curvature="0"
   style="fill:#000000;stroke:none" />
         <path
   d="m 10126,13199 v 3 l 5,18 8,35 5,36 5,23 15,-5 -5,-18 -5,-36 -8,-35 -5,-23 v 2 z"
   id="path94"
   inkscape:connector-curvature="0"
   style="fill:#000000;stroke:none" />
         <path
   d="m 10078,12993 h 2 l 5,54 13,53 15,51 13,48 h 15 l -13,-53 -15,-51 -13,-48 -5,-54 h 3 z"
   id="path96"
   inkscape:connector-curvature="0"
   style="fill:#000000;stroke:none" />
         <path
   d="m 10034,12721 v 0 l 18,67 15,66 11,68 v 71 h 20 l -5,-71 -10,-68 -16,-66 -17,-72 v 0 z"
   id="path98"
   inkscape:connector-curvature="0"
   style="fill:#000000;stroke:none" />
         <path
   d="m 10027,12653 v 0 15 l 2,18 v 15 l 5,20 16,-5 -6,-15 v -15 l -2,-18 v -15 0 z"
   id="path100"
   inkscape:connector-curvature="0"
   style="fill:#000000;stroke:none" />
         <path
   d="m 10001,12566 v 0 l 5,23 8,23 8,21 5,20 h 15 l -5,-26 -8,-20 -7,-23 -6,-18 v 0 z"
   id="path102"
   inkscape:connector-curvature="0"
   style="fill:#000000;stroke:none" />
         <path
   d="m 9968,12424 v 0 l 23,26 8,35 -3,41 5,40 h 15 v -40 l -2,-41 -8,-41 -28,-35 v 0 z"
   id="path104"
   inkscape:connector-curvature="0"
   style="fill:#000000;stroke:none" />
         <path
   d="m 9833,12427 v 0 l 15,-11 18,-7 16,-5 h 20 18 l 18,5 17,5 13,10 10,-15 -18,-10 -17,-5 -23,-5 -18,-6 -20,6 -21,5 -18,7 -20,10 v 0 z"
   id="path106"
   inkscape:connector-curvature="0"
   style="fill:#000000;stroke:none" />
         <path
   d="m 9805,12511 h 3 v -26 -23 l 10,-18 15,-17 -10,-16 -20,23 -11,23 -5,28 v 26 h 3 z"
   id="path108"
   inkscape:connector-curvature="0"
   style="fill:#000000;stroke:none" />
         <path
   d="m 9841,12648 v 0 l -10,-36 -11,-33 -10,-33 -5,-35 h -15 l 5,35 10,38 10,33 11,36 v 0 z"
   id="path110"
   inkscape:connector-curvature="0"
   style="fill:#000000;stroke:none" />
         <path
   d="m 9859,12798 v 0 l -8,-36 -3,-38 -2,-36 -5,-40 -15,5 5,35 2,36 3,38 7,41 v 0 z"
   id="path112"
   inkscape:connector-curvature="0"
   style="fill:#000000;stroke:none" />
         <path
   d="m 9940,13100 v -2 l -10,-38 -10,-39 -10,-35 -11,-36 -7,-38 -10,-38 -11,-38 -12,-38 -16,5 13,38 10,38 10,33 8,38 10,41 10,35 11,39 10,38 v -3 z"
   id="path114"
   inkscape:connector-curvature="0"
   style="fill:#000000;stroke:none" />
         <path
   d="m 9953,13255 v 0 -38 -41 l -5,-38 -8,-38 h -15 l 7,38 v 38 41 l 6,38 v 0 z"
   id="path116"
   inkscape:connector-curvature="0"
   style="fill:#000000;stroke:none" />
         <path
   d="m 9981,13354 v 0 l -5,-28 -8,-23 -10,-25 -5,-23 h -15 l 5,28 10,26 7,22 6,23 v 0 z"
   id="path118"
   inkscape:connector-curvature="0"
   style="fill:#000000;stroke:none" />
         <path
   d="m 10006,13588 v -2 l -10,-56 -5,-59 -5,-58 -5,-59 h -15 l 5,59 5,58 5,59 10,61 v -3 z"
   id="path120"
   inkscape:connector-curvature="0"
   style="fill:#000000;stroke:none" />
         <path
   d="m 10067,13807 v 0 l -17,-56 -16,-56 -15,-51 -13,-56 h -15 l 13,56 15,56 15,56 18,56 v 0 z"
   id="path122"
   inkscape:connector-curvature="0"
   style="fill:#000000;stroke:none" />
         <path
   d="m 10095,14000 v 0 l -2,-51 -5,-48 -8,-46 -13,-48 -15,5 13,43 7,46 6,48 2,51 v 0 z"
   id="path124"
   inkscape:connector-curvature="0"
   style="fill:#000000;stroke:none" />
         <path
   d="m 10113,14127 v 0 l -7,-31 -6,-33 -2,-30 -3,-33 h -15 l 3,33 2,30 5,33 8,36 v 0 z"
   id="path126"
   inkscape:connector-curvature="0"
   style="fill:#000000;stroke:none" />
         <path
   d="m 10149,14254 v 0 l -5,-33 -8,-33 -10,-31 -13,-30 -15,5 13,31 10,30 7,28 6,33 v 0 z"
   id="path128"
   inkscape:connector-curvature="0"
   style="fill:#000000;stroke:none" />
         <path
   d="m 10149,14427 v 0 -41 -43 l 5,-43 -5,-46 h -15 v 46 43 l -6,43 6,41 v 0 z"
   id="path130"
   inkscape:connector-curvature="0"
   style="fill:#000000;stroke:none" />
         <path
   d="m 10184,14595 v 0 l -7,-44 -10,-40 -11,-43 -7,-41 h -15 l 7,41 10,43 10,40 8,44 v 0 z"
   id="path132"
   inkscape:connector-curvature="0"
   style="fill:#000000;stroke:none" />
         <path
   d="m 10195,14691 h -3 l -3,-23 v -25 -23 l -5,-25 h -15 v 25 23 l 5,25 3,23 h -3 z"
   id="path134"
   inkscape:connector-curvature="0"
   style="fill:#000000;stroke:none" />
         <path
   d="m 10200,14709 v -3 l -3,-5 -2,-7 h -3 l 3,-3 h -21 l 3,8 2,5 3,2 2,5 v -2 z"
   id="path136"
   inkscape:connector-curvature="0"
   style="fill:#000000;stroke:none" />
         <path
   d="m 10235,15024 v 0 l -15,-79 -8,-78 -7,-79 -5,-79 h -16 l 5,79 8,79 8,78 15,79 v 0 z"
   id="path138"
   inkscape:connector-curvature="0"
   style="fill:#000000;stroke:none" />
         <path
   d="m 10261,15065 v -3 l -5,-12 -8,-11 -8,-10 -5,-5 h -15 l 5,15 8,11 7,10 5,7 v -2 z"
   id="path140"
   inkscape:connector-curvature="0"
   style="fill:#000000;stroke:none" />
         <path
   d="m 10307,15276 h 2 l -8,-56 -12,-54 -16,-50 -12,-51 h -16 l 13,56 15,51 13,48 3,56 h 2 z"
   id="path142"
   inkscape:connector-curvature="0"
   style="fill:#000000;stroke:none" />
         <path
   d="m 10319,15357 v 3 l -2,-21 -5,-20 -3,-20 -2,-23 h -16 l 3,23 2,20 5,20 3,21 v 2 z"
   id="path144"
   inkscape:connector-curvature="0"
   style="fill:#000000;stroke:none" />
         <path
   d="m 10352,15644 v 0 l -7,-71 -5,-71 -8,-71 -13,-74 -15,5 13,69 7,71 5,71 8,71 v 0 z"
   id="path146"
   inkscape:connector-curvature="0"
   style="fill:#000000;stroke:none" />
         <path
   d="m 10370,15751 v 0 l -2,-28 -5,-25 -6,-28 -5,-26 h -15 l 5,26 5,28 5,25 3,28 v 0 z"
   id="path148"
   inkscape:connector-curvature="0"
   style="fill:#000000;stroke:none" />
         <path
   d="m 10373,15820 v 0 l 2,-18 -2,-18 -3,-15 v -18 h -15 v 18 l 2,15 -2,18 2,18 v 0 z"
   id="path150"
   inkscape:connector-curvature="0"
   style="fill:#000000;stroke:none" />
         <path
   d="m 10383,15855 h 2 l -2,-10 -5,-10 -3,-8 -2,-7 h -16 l 3,12 3,8 5,10 -3,5 h 3 z"
   id="path152"
   inkscape:connector-curvature="0"
   style="fill:#000000;stroke:none" />
         <path
   d="m 10416,16158 3,2 -21,-71 -10,-76 -5,-79 v -79 h -15 v 79 l 5,79 10,76 20,76 3,3 -3,-3 5,5 h 5 l 6,-2 v -8 z"
   id="path154"
   inkscape:connector-curvature="0"
   style="fill:#000000;stroke:none" />
         <path
   d="m 10429,16168 h -3 l -10,-10 -10,10 10,10 h -3 3 5 l 5,-3 3,-2 -3,-5 z"
   id="path156"
   inkscape:connector-curvature="0"
   style="fill:#000000;stroke:none" />
         <path
   d="m 10335,15642 -13,-21 -13,-23 -13,-22 -15,-23 -15,-21 -18,-20 -18,-18 -20,-15 -10,-5 -11,-3 h -12 l -10,8 -16,15 -12,16 -3,15 18,12 30,13 26,21 23,20 20,25 18,28 15,28 13,31 13,28 -18,-8 -13,-15 -10,-15 -15,-13 -11,-5 -10,-5 -10,-5 -10,-3 -10,-5 -10,-3 -11,-5 -10,-2 -15,-8 -15,-10 -13,-13 -15,-12 -13,-11 -13,-10 -15,-7 -18,-3 -15,3 -13,10 -7,12 v 13 l 7,15 10,11 11,10 15,10 15,5 15,8 18,5 15,5 21,5 18,8 17,10 18,10 15,13 16,12 15,16 15,15 21,20 17,23 16,23 15,25 10,26 10,28 5,28 3,28 3,53 v 51 51 l -3,50 -8,49 -7,48 -10,48 -6,51 -5,53 -10,54 -15,51 -18,51 -13,30 -12,33 -11,31 -10,33 -10,30 -13,33 -12,31 -13,30 -13,20 -13,21 -15,15 -15,18 -13,15 -10,15 -8,16 -10,15 -7,18 -11,15 -12,15 -13,15 -8,23 5,21 13,15 18,-3 20,-15 18,-20 13,-21 15,-20 10,-23 13,-25 13,-21 15,-22 10,-13 15,-13 13,-10 15,-10 16,-13 10,-15 13,-15 12,-16 -10,49 v 50 l 5,49 5,51 v 43 l -7,43 -10,46 -8,43 -3,18 v 15 l 5,15 16,13 15,5 h 18 l 13,-5 5,-13 v -38 l 5,-35 7,-34 11,-35 10,-33 15,-33 15,-31 16,-33 -3,49 3,45 2,46 v 48 l 3,11 5,7 5,8 v 10 l -3,25 -5,23 -2,26 5,23 5,2 5,-2 5,-3 5,-3 15,-28 13,-30 13,-31 7,-33 13,36 15,36 21,33 23,30 12,10 16,3 h 15 l 13,-8 15,-28 -5,-30 -18,-33 -18,-28 -12,-26 -11,-25 -10,-25 -2,-28 v -16 -15 -15 -15 l 20,22 18,23 18,26 15,25 18,36 15,35 15,36 18,35 8,11 7,10 11,10 10,8 12,5 13,2 13,-2 15,-8 -13,-36 -15,-35 -13,-36 -12,-35 18,15 17,13 16,15 17,13 18,12 21,13 17,13 21,12 15,6 15,2 13,-2 15,-8 5,-8 -2,-7 -5,-8 -3,-8 -10,-22 -10,-23 -10,-23 -5,-26 15,8 10,13 8,15 10,15 10,8 8,10 7,13 10,7 13,8 13,5 13,5 12,5 h 13 13 l 15,-2 13,-8 -3,-5 3,-3 2,-5 -5,-2 10,2 h 8 l 8,-2 7,-8 5,-10 v -10 l -2,-10 -5,-10 -5,-11 -8,-7 -8,-8 -5,-10 -10,-20 -10,-18 -15,-15 -13,-16 -15,-15 -16,-15 -10,-15 -10,-21 23,13 25,15 23,15 26,13 25,10 26,8 25,5 h 26 l 7,-3 5,-10 v -12 l -5,-11 -15,-15 -15,-15 -16,-13 -15,-15 -15,-13 -15,-12 -16,-16 -15,-15 -10,-10 -8,-8 -10,-7 -8,-11 -20,-22 -23,-21 -20,-23 -21,-20 -20,-20 -18,-23 -20,-20 -20,-23 20,10 15,15 18,18 18,13 15,10 18,7 18,8 15,8 18,5 18,7 17,5 18,8 13,5 h 13 12 l 11,-2 15,-11 v -17 l -10,-16 -16,-10 -28,-10 -25,-13 -25,-12 -26,-13 -25,-13 -23,-15 -23,-15 -23,-18 -20,-18 -21,-18 -18,-20 -15,-25 -15,-28 -15,-26 -16,-25 -17,-23 -16,-23 -15,-25 -15,-26 -13,-28 -18,-45 -18,-44 -17,-45 -18,-44 -18,-45 -13,-44 -13,-48 -10,-46 v -2 l -2,-3 -3,-2 v -3 l -5,-35 -5,-36 -3,-33 -2,-36 v -28 -27 l 2,-28 8,-28 8,-21 10,-18 10,-17 13,-16 13,-17 10,-16 12,-17 11,-18 12,-21 8,-25 -5,-20 -20,-5 -23,10 -16,20 -15,23 -20,20 h -3 -2 l -3,-2 v -3 l 3,-30 10,-26 13,-25 12,-23 18,-23 13,-23 13,-25 10,-26 -3,-15 -10,-12 -15,-8 -16,8 -12,15 -10,18 -13,15 -10,15 -11,15 -10,18 -10,15 -8,18 -10,23 -10,25 -8,26 -5,25 3,-48 2,-48 -2,-51 -3,-48 -7,-13 -13,-10 -15,-3 h -18 l -5,3 -3,5 -2,5 v 5 l -3,43 v 43 l -2,46 -11,43 -7,13 -8,15 -5,13 -2,15 -8,-23 -8,-23 -10,-22 -10,-21 -10,-33 -3,-33 v -35 l -2,-33 -11,-18 -17,-13 -23,-2 -21,5 -7,7 v 10 l 2,11 5,10 11,20 7,20 v 23 23 33 l 3,33 7,31 z"
   id="path158"
   inkscape:connector-curvature="0"
   style="fill:#edd172;stroke:none" />
         <path
   d="m 10205,15487 v 0 l 20,15 18,15 15,20 15,21 16,23 12,20 13,25 13,18 15,-5 -13,-23 -12,-20 -13,-25 -15,-23 -16,-21 -20,-20 -18,-20 -20,-16 v 0 z"
   id="path160"
   inkscape:connector-curvature="0"
   style="fill:#000000;stroke:none" />
         <path
   d="m 10172,15487 v -3 l 7,-5 h 10 l 8,3 8,5 10,-16 -13,-5 -13,-2 h -15 l -13,10 v -3 z"
   id="path162"
   inkscape:connector-curvature="0"
   style="fill:#000000;stroke:none" />
         <path
   d="m 10156,15530 v 0 l -12,-8 2,-10 10,-13 16,-12 -11,-16 -15,18 -15,18 -3,20 23,18 v 0 z"
   id="path164"
   inkscape:connector-curvature="0"
   style="fill:#000000;stroke:none" />
         <path
   d="m 10312,15738 7,-10 -12,-28 -13,-30 -15,-31 -18,-28 -23,-25 -23,-23 -26,-20 -33,-13 -5,15 28,13 26,20 23,18 17,25 18,28 16,26 12,30 13,28 8,-10 -8,10 5,5 h 5 l 5,-2 v -8 z"
   id="path166"
   inkscape:connector-curvature="0"
   style="fill:#000000;stroke:none" />
         <path
   d="m 10251,15687 h 2 l 13,11 7,15 16,18 23,7 v -15 l -13,-8 -10,-12 -13,-16 -18,-15 h 3 z"
   id="path168"
   inkscape:connector-curvature="0"
   style="fill:#000000;stroke:none" />
         <path
   d="m 10172,15654 v 0 l 10,3 10,5 10,3 10,5 11,2 10,5 10,5 8,5 10,-15 -13,-5 -10,-5 -10,-5 -11,-3 -10,-5 -10,-2 -10,-5 -10,-3 v 0 z"
   id="path170"
   inkscape:connector-curvature="0"
   style="fill:#000000;stroke:none" />
         <path
   d="m 10057,15581 v 0 l 15,2 13,8 13,10 13,10 15,10 13,16 15,10 18,7 5,-15 -13,-7 -15,-11 -13,-10 -15,-15 -13,-10 -13,-10 -17,-8 -21,-3 v 0 z"
   id="path172"
   inkscape:connector-curvature="0"
   style="fill:#000000;stroke:none" />
         <path
   d="m 10029,15609 v 0 -8 l 5,-10 10,-8 13,-2 v -16 l -18,3 -15,13 -10,15 v 18 0 z"
   id="path174"
   inkscape:connector-curvature="0"
   style="fill:#000000;stroke:none" />
         <path
   d="m 10128,15672 h 3 l -15,-5 -18,-5 -15,-8 -16,-5 -12,-10 -11,-7 -7,-11 -8,-12 -15,5 8,18 12,10 10,12 18,11 16,5 15,7 18,5 15,5 h 2 z"
   id="path176"
   inkscape:connector-curvature="0"
   style="fill:#000000;stroke:none" />
         <path
   d="m 10268,15764 v 0 l -15,-16 -15,-15 -15,-15 -16,-13 -20,-10 -18,-10 -18,-8 -23,-5 v 15 l 18,6 18,7 18,10 15,10 15,13 16,10 15,16 15,15 v 0 z"
   id="path178"
   inkscape:connector-curvature="0"
   style="fill:#000000;stroke:none" />
         <path
   d="m 10368,15970 v 0 l -3,-28 -5,-31 -10,-28 -10,-25 -16,-28 -15,-23 -20,-23 -21,-20 -10,10 21,20 15,23 15,23 15,23 11,25 10,28 5,26 2,28 v 0 z"
   id="path180"
   inkscape:connector-curvature="0"
   style="fill:#000000;stroke:none" />
         <path
   d="m 10368,16175 v 0 l 5,-50 v -51 -51 l -5,-53 h -16 v 53 51 51 50 0 z"
   id="path182"
   inkscape:connector-curvature="0"
   style="fill:#000000;stroke:none" />
         <path
   d="m 10337,16371 v 0 l 5,-51 10,-48 8,-48 8,-49 h -16 l -7,49 -8,48 -10,48 -5,51 v 0 z"
   id="path184"
   inkscape:connector-curvature="0"
   style="fill:#000000;stroke:none" />
         <path
   d="m 10289,16582 v 0 l 18,-51 15,-53 10,-54 5,-53 h -15 l -5,53 -10,54 -16,48 -18,51 v 0 z"
   id="path186"
   inkscape:connector-curvature="0"
   style="fill:#000000;stroke:none" />
         <path
   d="m 10195,16834 v 0 l 12,-31 13,-30 13,-33 10,-31 10,-33 10,-30 13,-33 13,-31 -16,-5 -12,30 -13,33 -10,31 -10,33 -11,31 -12,33 -13,30 -13,31 v 0 z"
   id="path188"
   inkscape:connector-curvature="0"
   style="fill:#000000;stroke:none" />
         <path
   d="m 10139,16910 h -3 l 15,-18 18,-15 13,-20 13,-23 -16,-5 -12,17 -13,21 -13,15 -15,18 h -3 z"
   id="path190"
   inkscape:connector-curvature="0"
   style="fill:#000000;stroke:none" />
         <path
   d="m 10055,17034 h -3 l 15,-15 13,-15 10,-18 8,-18 10,-12 8,-16 10,-15 13,-15 -16,-10 -12,15 -11,15 -7,15 -10,18 -8,18 -10,13 -13,15 -10,15 h -3 z"
   id="path192"
   inkscape:connector-curvature="0"
   style="fill:#000000;stroke:none" />
         <path
   d="m 10070,17078 v 0 l -10,2 -8,-10 -2,-18 5,-18 -16,-10 -10,28 8,23 18,20 25,-2 v 0 z"
   id="path194"
   inkscape:connector-curvature="0"
   style="fill:#000000;stroke:none" />
         <path
   d="m 10184,16912 v 0 l -15,23 -13,23 -12,26 -10,20 -16,20 -12,21 -16,20 -20,13 10,15 20,-18 21,-20 13,-21 15,-20 10,-25 13,-26 12,-18 16,-22 v 0 z"
   id="path196"
   inkscape:connector-curvature="0"
   style="fill:#000000;stroke:none" />
         <path
   d="m 10240,16864 v 0 l -15,10 -13,10 -15,16 -13,12 16,11 7,-13 16,-10 12,-10 16,-11 v 0 z"
   id="path198"
   inkscape:connector-curvature="0"
   style="fill:#000000;stroke:none" />
         <path
   d="m 10304,16816 -13,-8 -15,15 -13,16 -7,15 -16,10 11,15 15,-15 13,-15 12,-15 10,-16 -12,-7 12,7 3,-5 -3,-5 -5,-2 -5,2 z"
   id="path200"
   inkscape:connector-curvature="0"
   style="fill:#000000;stroke:none" />
         <path
   d="m 10304,17012 v 0 l -5,-51 -5,-49 v -50 l 10,-46 -15,-5 -10,51 v 50 l 5,49 5,51 v 0 z"
   id="path202"
   inkscape:connector-curvature="0"
   style="fill:#000000;stroke:none" />
         <path
   d="m 10279,17187 v 0 l 7,-43 10,-46 8,-43 v -43 h -15 v 43 l -8,43 -10,46 -8,43 v 0 z"
   id="path204"
   inkscape:connector-curvature="0"
   style="fill:#000000;stroke:none" />
         <path
   d="m 10291,17240 v 0 l -10,-10 -5,-10 v -15 l 3,-18 h -16 l -2,18 v 15 l 5,20 20,16 v 0 z"
   id="path206"
   inkscape:connector-curvature="0"
   style="fill:#000000;stroke:none" />
         <path
   d="m 10332,17235 h -3 v 8 l -7,2 h -18 l -13,-5 -5,16 18,5 h 18 l 18,-8 10,-18 h -3 z"
   id="path208"
   inkscape:connector-curvature="0"
   style="fill:#000000;stroke:none" />
         <path
   d="m 10426,16963 -15,-2 -15,33 -16,30 -15,33 -10,33 -10,36 -8,36 -5,35 v 38 h 15 v -38 l 5,-35 8,-31 10,-36 10,-33 16,-33 15,-30 15,-33 -15,-3 15,3 v -8 l -5,-2 h -5 l -5,5 z"
   id="path210"
   inkscape:connector-curvature="0"
   style="fill:#000000;stroke:none" />
         <path
   d="m 10431,17151 h -2 l 2,-48 -5,-46 v -45 -49 h -15 l -5,49 5,45 v 46 l 2,48 h -2 z"
   id="path212"
   inkscape:connector-curvature="0"
   style="fill:#000000;stroke:none" />
         <path
   d="m 10441,17187 v 0 -13 l -5,-10 -5,-5 v -8 h -20 l 5,13 5,10 5,5 v 8 0 z"
   id="path214"
   inkscape:connector-curvature="0"
   style="fill:#000000;stroke:none" />
         <path
   d="m 10436,17281 v 0 l -2,-20 v -26 l 5,-23 2,-25 h -15 l -2,25 -5,23 -6,26 8,25 v 0 z"
   id="path216"
   inkscape:connector-curvature="0"
   style="fill:#000000;stroke:none" />
         <path
   d="m 10441,17273 h 3 -3 l -5,3 h -2 l 2,5 -15,5 13,10 7,-5 6,-2 7,-5 h 3 z"
   id="path218"
   inkscape:connector-curvature="0"
   style="fill:#000000;stroke:none" />
         <path
   d="m 10505,17154 -15,2 -8,31 -13,30 -12,31 -16,25 16,11 15,-31 13,-30 12,-31 8,-36 -15,3 15,-3 -2,-5 -6,-2 -5,2 -2,5 z"
   id="path220"
   inkscape:connector-curvature="0"
   style="fill:#000000;stroke:none" />
         <path
   d="m 10576,17286 v 0 l -23,-30 -20,-31 -15,-36 -13,-35 -15,5 13,36 15,35 20,36 23,30 v 0 z"
   id="path222"
   inkscape:connector-curvature="0"
   style="fill:#000000;stroke:none" />
         <path
   d="m 10620,17291 v 0 l -11,5 h -12 l -13,-2 -8,-8 -15,10 18,13 18,2 h 18 l 15,-10 v 0 z"
   id="path224"
   inkscape:connector-curvature="0"
   style="fill:#000000;stroke:none" />
         <path
   d="m 10592,17179 v 3 l 17,28 18,30 5,28 -12,23 10,10 18,-33 -5,-33 -18,-35 -18,-28 v 2 z"
   id="path226"
   inkscape:connector-curvature="0"
   style="fill:#000000;stroke:none" />
         <path
   d="m 10553,17073 v 0 l 6,28 10,27 10,26 13,25 15,-5 -13,-25 -10,-26 -10,-22 v -28 0 z"
   id="path228"
   inkscape:connector-curvature="0"
   style="fill:#000000;stroke:none" />
         <path
   d="m 10569,17006 -13,6 -3,15 v 15 15 16 h 21 v -16 -15 -15 l -3,-15 -12,5 12,-5 -2,-6 -5,-2 -5,2 -3,6 z"
   id="path230"
   inkscape:connector-curvature="0"
   style="fill:#000000;stroke:none" />
         <path
   d="m 10643,17106 v 0 l -16,-28 -18,-26 -17,-23 -23,-23 -10,11 17,23 18,22 18,26 15,23 v 0 z"
   id="path232"
   inkscape:connector-curvature="0"
   style="fill:#000000;stroke:none" />
         <path
   d="m 10709,17245 v 0 l -18,-33 -15,-35 -16,-36 -17,-35 -16,5 18,35 15,36 16,35 17,39 v 0 z"
   id="path234"
   inkscape:connector-curvature="0"
   style="fill:#000000;stroke:none" />
         <path
   d="m 10783,17289 2,-11 -13,8 h -10 -10 l -13,-5 -7,-8 -8,-7 -8,-10 -7,-11 -16,11 8,10 8,10 12,13 13,7 13,5 15,5 15,-5 18,-7 3,-10 -3,10 5,-5 -2,-8 -5,-3 h -8 z"
   id="path236"
   inkscape:connector-curvature="0"
   style="fill:#000000;stroke:none" />
         <path
   d="m 10742,17136 -13,10 13,36 13,35 15,36 13,36 15,-5 -13,-36 -15,-36 -13,-35 -13,-36 -12,10 12,-10 -2,-5 h -8 l -5,3 v 7 z"
   id="path238"
   inkscape:connector-curvature="0"
   style="fill:#000000;stroke:none" />
         <path
   d="m 10884,17243 v 0 l -18,-13 -17,-13 -21,-12 -17,-13 -18,-13 -16,-15 -17,-13 -18,-15 -10,15 17,16 18,12 16,16 17,12 18,13 21,13 17,12 23,13 v 0 z"
   id="path240"
   inkscape:connector-curvature="0"
   style="fill:#000000;stroke:none" />
         <path
   d="m 10935,17240 v 0 l -13,8 h -10 -15 l -13,-5 -5,15 18,5 15,5 16,-5 17,-7 v 0 z"
   id="path242"
   inkscape:connector-curvature="0"
   style="fill:#000000;stroke:none" />
         <path
   d="m 10928,17220 v 0 l 2,8 5,7 3,5 h -3 l 10,16 8,-16 -3,-10 -5,-7 -2,-8 v 0 z"
   id="path244"
   inkscape:connector-curvature="0"
   style="fill:#000000;stroke:none" />
         <path
   d="m 10902,17116 -10,7 5,28 10,23 10,23 11,23 15,-5 -10,-23 -11,-23 -10,-23 -5,-23 -10,8 10,-8 -2,-5 -5,-2 -6,2 -2,5 z"
   id="path246"
   inkscape:connector-curvature="0"
   style="fill:#000000;stroke:none" />
         <path
   d="m 10948,17167 2,2 -10,-15 -7,-15 -13,-16 -18,-7 -5,15 13,8 7,10 8,15 10,15 3,3 z"
   id="path248"
   inkscape:connector-curvature="0"
   style="fill:#000000;stroke:none" />
         <path
   d="m 10984,17205 v 0 l -8,-5 -8,-13 -10,-10 -10,-10 -10,15 10,5 5,10 8,13 12,10 v 0 z"
   id="path250"
   inkscape:connector-curvature="0"
   style="fill:#000000;stroke:none" />
         <path
   d="m 11078,17233 v -16 l -10,8 -13,3 -13,-3 -13,3 -10,-5 -13,-6 -12,-5 -10,-7 -11,15 16,8 12,5 13,5 15,5 13,2 13,-2 18,-3 15,-7 v -16 16 l 5,-5 -3,-8 -5,-3 h -7 z"
   id="path252"
   inkscape:connector-curvature="0"
   style="fill:#000000;stroke:none" />
         <path
   d="m 11085,17202 -5,15 -2,-2 -3,-3 -5,8 8,13 10,-16 2,3 v 3 l 3,-13 -13,-8 -5,15 5,-15 -5,3 -2,5 2,5 5,2 z"
   id="path254"
   inkscape:connector-curvature="0"
   style="fill:#000000;stroke:none" />
         <path
   d="m 11106,17197 v 0 l -5,5 -3,3 h -8 l -5,-3 -10,15 15,3 h 8 l 13,-3 10,-10 v 0 z"
   id="path256"
   inkscape:connector-curvature="0"
   style="fill:#000000;stroke:none" />
         <path
   d="m 11103,17164 v 3 l 5,7 3,8 v 10 l -5,5 15,10 5,-15 v -10 l -2,-13 -6,-13 v 3 z"
   id="path258"
   inkscape:connector-curvature="0"
   style="fill:#000000;stroke:none" />
         <path
   d="m 11078,17128 v 0 l 5,13 10,8 5,7 5,8 15,-5 -5,-13 -10,-7 -5,-8 -5,-8 v 0 z"
   id="path260"
   inkscape:connector-curvature="0"
   style="fill:#000000;stroke:none" />
         <path
   d="m 10989,16984 -11,10 11,20 10,18 18,15 15,15 13,16 12,15 11,15 10,20 15,-5 -10,-20 -10,-20 -18,-16 -13,-15 -15,-15 -13,-15 -10,-13 -10,-20 -10,10 10,-10 -3,-5 h -7 l -6,2 v 8 z"
   id="path262"
   inkscape:connector-curvature="0"
   style="fill:#000000;stroke:none" />
         <path
   d="m 11185,17060 v 2 h -26 l -25,-5 -23,-7 -26,-10 -23,-13 -22,-15 -26,-16 -25,-12 -5,15 20,13 25,15 23,15 28,13 26,10 28,8 25,5 h 26 v 2 z"
   id="path264"
   inkscape:connector-curvature="0"
   style="fill:#000000;stroke:none" />
         <path
   d="m 11187,17040 v 0 l 3,5 v 12 l -3,5 -2,-2 v 20 l 12,-7 8,-16 v -12 l -8,-16 v 0 z"
   id="path266"
   inkscape:connector-curvature="0"
   style="fill:#000000;stroke:none" />
         <path
   d="m 11065,16925 v 0 l 15,15 16,16 15,15 15,10 15,15 16,13 15,15 15,16 10,-11 -15,-15 -15,-15 -15,-13 -16,-15 -15,-15 -15,-11 -16,-15 -15,-15 v 0 z"
   id="path268"
   inkscape:connector-curvature="0"
   style="fill:#000000;stroke:none" />
         <path
   d="m 11029,16890 h -2 l 10,10 10,10 8,5 10,10 10,-10 -10,-10 -8,-10 -10,-5 -5,-11 h -2 z"
   id="path270"
   inkscape:connector-curvature="0"
   style="fill:#000000;stroke:none" />
         <path
   d="m 10874,16704 -8,13 21,23 20,20 18,23 20,20 21,20 20,23 23,21 20,23 11,-11 -21,-22 -23,-21 -20,-23 -20,-20 -21,-20 -18,-23 -20,-21 -20,-22 -8,12 8,-12 -5,-3 -3,3 -3,5 v 5 z"
   id="path272"
   inkscape:connector-curvature="0"
   style="fill:#000000;stroke:none" />
         <path
   d="m 10948,16760 h -3 l -15,-13 -18,-15 -15,-18 -23,-10 -5,15 18,10 15,13 18,20 20,13 h -2 z"
   id="path274"
   inkscape:connector-curvature="0"
   style="fill:#000000;stroke:none" />
         <path
   d="m 11083,16818 v 0 l -18,-7 -18,-5 -18,-8 -17,-5 -16,-8 -18,-7 -17,-8 -13,-10 -10,15 18,10 17,8 18,8 15,7 18,5 18,8 18,5 18,8 v 0 z"
   id="path276"
   inkscape:connector-curvature="0"
   style="fill:#000000;stroke:none" />
         <path
   d="m 11129,16821 v 0 l -11,2 -12,-2 -13,2 -10,-5 -5,16 15,5 13,2 12,-2 11,-3 v 0 z"
   id="path278"
   inkscape:connector-curvature="0"
   style="fill:#000000;stroke:none" />
         <path
   d="m 11116,16783 v 0 l 13,7 7,13 v 13 l -7,5 v 15 l 23,-15 v -23 l -13,-18 -18,-12 v 0 z"
   id="path280"
   inkscape:connector-curvature="0"
   style="fill:#000000;stroke:none" />
         <path
   d="m 10915,16674 v 0 l 23,17 23,16 23,15 28,13 25,12 25,13 26,13 28,10 5,-15 -28,-11 -25,-12 -26,-13 -25,-13 -23,-12 -23,-16 -23,-15 -23,-18 v 0 z"
   id="path282"
   inkscape:connector-curvature="0"
   style="fill:#000000;stroke:none" />
         <path
   d="m 10839,16587 v 0 l 15,28 20,20 20,21 21,18 10,-16 -20,-18 -21,-15 -15,-20 -15,-23 v 0 z"
   id="path284"
   inkscape:connector-curvature="0"
   style="fill:#000000;stroke:none" />
         <path
   d="m 10716,16384 v 0 l 13,28 15,28 16,25 15,23 18,23 15,25 15,23 16,28 15,-5 -15,-28 -16,-28 -15,-25 -18,-23 -15,-23 -15,-25 -16,-23 -12,-28 v 0 z"
   id="path286"
   inkscape:connector-curvature="0"
   style="fill:#000000;stroke:none" />
         <path
   d="m 10589,16020 h 3 l 10,46 13,51 12,43 18,46 18,43 18,46 18,43 17,46 16,-5 -18,-46 -18,-43 -18,-46 -18,-43 -17,-46 -13,-43 -13,-46 -10,-46 h 2 z"
   id="path288"
   inkscape:connector-curvature="0"
   style="fill:#000000;stroke:none" />
         <path
   d="m 10587,16010 h -3 l 3,5 5,5 v 0 h -3 20 l -2,-5 -5,-5 v 0 h 2 -2 z"
   id="path290"
   inkscape:connector-curvature="0"
   style="fill:#000000;stroke:none" />
         <path
   d="m 10571,15870 h -2 l 5,36 2,33 5,36 6,35 h 15 l -5,-35 -5,-36 -3,-33 v -36 h -2 z"
   id="path292"
   inkscape:connector-curvature="0"
   style="fill:#000000;stroke:none" />
         <path
   d="m 10581,15756 v 0 l -7,31 -5,28 v 27 l 2,28 h 16 l 2,-28 v -27 -28 l 8,-26 v 0 z"
   id="path294"
   inkscape:connector-curvature="0"
   style="fill:#000000;stroke:none" />
         <path
   d="m 10668,15614 v 0 l -10,18 -13,17 -10,16 -13,17 -13,16 -10,20 -10,18 -8,20 16,5 7,-20 11,-18 10,-15 12,-15 13,-18 10,-16 13,-17 10,-18 v 0 z"
   id="path296"
   inkscape:connector-curvature="0"
   style="fill:#000000;stroke:none" />
         <path
   d="m 10671,15555 v 0 l 15,3 v 15 l -5,23 -13,18 15,10 13,-23 10,-28 -10,-25 -25,-8 v 0 z"
   id="path298"
   inkscape:connector-curvature="0"
   style="fill:#000000;stroke:none" />
         <path
   d="m 10602,15626 v 3 l 23,-23 15,-23 13,-18 18,-10 v -15 l -28,10 -18,23 -16,23 -17,18 v 2 z"
   id="path300"
   inkscape:connector-curvature="0"
   style="fill:#000000;stroke:none" />
         <path
   d="m 10579,15616 v 0 l 2,5 8,8 5,3 8,-6 -10,-10 2,-5 v 3 l 3,2 h 2 v 0 z"
   id="path302"
   inkscape:connector-curvature="0"
   style="fill:#000000;stroke:none" />
         <path
   d="m 10673,15415 v 0 l -10,23 -13,26 -13,20 -17,23 -13,25 -13,26 -10,28 -5,30 h 20 v -30 l 10,-23 13,-26 13,-20 18,-23 12,-25 13,-26 10,-28 v 0 z"
   id="path304"
   inkscape:connector-curvature="0"
   style="fill:#000000;stroke:none" />
         <path
   d="m 10645,15393 v 0 l 8,-3 10,5 8,8 2,12 h 15 l -2,-17 -13,-18 -20,-10 -23,12 v 0 z"
   id="path306"
   inkscape:connector-curvature="0"
   style="fill:#000000;stroke:none" />
         <path
   d="m 10561,15520 v 0 l 8,-18 10,-13 10,-18 10,-15 10,-15 13,-15 10,-18 13,-15 -15,-11 -13,16 -10,17 -13,16 -10,15 -10,15 -10,18 -11,18 -7,18 v 0 z"
   id="path308"
   inkscape:connector-curvature="0"
   style="fill:#000000;stroke:none" />
         <path
   d="m 10513,15616 h 15 l 5,-25 8,-23 10,-25 10,-23 -15,-5 -10,22 -11,26 -7,28 -5,25 h 15 -15 l 2,5 5,3 5,-3 3,-5 z"
   id="path310"
   inkscape:connector-curvature="0"
   style="fill:#000000;stroke:none" />
         <path
   d="m 10513,15421 v 0 l 2,48 v 51 48 l -2,48 h 15 l 3,-48 5,-48 -5,-51 -3,-48 v 0 z"
   id="path312"
   inkscape:connector-curvature="0"
   style="fill:#000000;stroke:none" />
         <path
   d="m 10469,15403 h -2 18 l 12,2 11,8 5,8 h 15 l -10,-18 -15,-13 -18,-2 h -18 -3 z"
   id="path314"
   inkscape:connector-curvature="0"
   style="fill:#000000;stroke:none" />
         <path
   d="m 10464,15413 h 3 l -3,-5 3,-3 v -2 h 2 l -5,-15 -7,5 -5,7 -3,8 -2,5 h 2 z"
   id="path316"
   inkscape:connector-curvature="0"
   style="fill:#000000;stroke:none" />
         <path
   d="m 10449,15591 v 0 l 10,-46 5,-46 v -43 -43 h -15 l -5,43 v 43 46 l -10,41 v 0 z"
   id="path318"
   inkscape:connector-curvature="0"
   style="fill:#000000;stroke:none" />
         <path
   d="m 10411,15644 h 18 v -12 l 5,-13 7,-15 8,-13 -15,-5 -8,12 -7,16 -6,12 -5,18 h 18 -18 l 3,8 8,2 7,-2 3,-8 z"
   id="path320"
   inkscape:connector-curvature="0"
   style="fill:#000000;stroke:none" />
         <path
   d="m 10375,15558 v 0 l 10,20 11,23 7,23 8,20 h 15 l -7,-25 -8,-23 -10,-23 -10,-20 v 0 z"
   id="path322"
   inkscape:connector-curvature="0"
   style="fill:#000000;stroke:none" />
         <path
   d="m 10360,15421 v 0 33 35 l 5,33 10,36 16,-5 -11,-31 v -33 -35 l -5,-33 v 0 z"
   id="path324"
   inkscape:connector-curvature="0"
   style="fill:#000000;stroke:none" />
         <path
   d="m 10301,15400 h -2 l 18,-2 h 20 l 15,10 8,13 h 15 l -12,-23 -21,-16 -25,-5 -23,8 h -3 z"
   id="path326"
   inkscape:connector-curvature="0"
   style="fill:#000000;stroke:none" />
         <path
   d="m 10304,15426 v 0 l -5,-8 -3,-8 v -7 l 5,-3 -10,-15 -10,13 v 12 l 3,13 5,13 v 0 z"
   id="path328"
   inkscape:connector-curvature="0"
   style="fill:#000000;stroke:none" />
         <path
   d="m 10322,15517 v 0 l 2,-23 -2,-23 -8,-22 -10,-23 -15,10 10,18 8,17 -3,23 3,23 v 0 z"
   id="path330"
   inkscape:connector-curvature="0"
   style="fill:#000000;stroke:none" />
         <path
   d="m 10327,15644 15,-5 -10,-28 -8,-28 v -33 l -2,-33 h -15 l -3,33 5,33 8,33 10,28 15,-5 z"
   id="path332"
   inkscape:connector-curvature="0"
   style="fill:#000000;stroke:none" />
         <path
   d="m 10352,15652 -2,-5 h -8 l -5,2 v 8 z"
   id="path334"
   inkscape:connector-curvature="0"
   style="fill:#000000;stroke:none" />
         <path
   d="m 10388,15761 v -2 l -8,-28 -7,-26 -10,-28 -11,-25 -15,5 10,25 10,28 8,26 8,28 v -3 z"
   id="path336"
   inkscape:connector-curvature="0"
   style="fill:#000000;stroke:none" />
         <path
   d="m 10459,15975 v 0 l -15,-56 -20,-54 -21,-53 -15,-51 h -15 l 15,56 20,53 21,54 15,51 v 0 z"
   id="path338"
   inkscape:connector-curvature="0"
   style="fill:#000000;stroke:none" />
         <path
   d="m 10525,16488 v 0 l -15,-130 -10,-127 -15,-129 -26,-127 h -15 l 25,127 16,129 10,127 15,130 v 0 z"
   id="path340"
   inkscape:connector-curvature="0"
   style="fill:#000000;stroke:none" />
         <path
   d="m 10528,16562 v 0 -18 -20 -18 l -3,-18 h -15 l -2,18 v 18 20 18 0 z"
   id="path342"
   inkscape:connector-curvature="0"
   style="fill:#000000;stroke:none" />
         <path
   d="m 10546,16679 v -3 l -8,-28 -7,-28 -3,-28 v -30 h -20 l 5,30 2,28 8,33 8,28 v -2 z"
   id="path344"
   inkscape:connector-curvature="0"
   style="fill:#000000;stroke:none" />
         <path
   d="m 10541,16714 v 0 -7 l 2,-11 3,-10 v -7 h -15 v 7 l -3,10 -3,11 v 7 0 z"
   id="path346"
   inkscape:connector-curvature="0"
   style="fill:#000000;stroke:none" />
         <path
   d="m 10574,16956 v 0 l -5,-61 -8,-61 -8,-59 -12,-61 h -16 l 13,61 8,59 7,61 6,61 v 0 z"
   id="path348"
   inkscape:connector-curvature="0"
   style="fill:#000000;stroke:none" />
         <path
   d="m 10571,17017 3,-16 2,-15 v -15 l -2,-15 h -15 l -3,15 v 15 l 3,15 -3,16 z"
   id="path350"
   inkscape:connector-curvature="0"
   style="fill:#000000;stroke:none" />
         <path
   d="m 10556,17017 3,5 5,2 5,-2 2,-5 z"
   id="path352"
   inkscape:connector-curvature="0"
   style="fill:#000000;stroke:none" />
         <path
   d="m 10207,16892 v 8 l 5,5 5,2 6,-5 z"
   id="path354"
   inkscape:connector-curvature="0"
   style="fill:#000000;stroke:none" />
         <path
   d="m 10276,16773 v 0 l -13,33 -18,28 -17,30 -21,28 16,10 20,-28 18,-30 18,-33 12,-33 v 0 z"
   id="path356"
   inkscape:connector-curvature="0"
   style="fill:#000000;stroke:none" />
         <path
   d="m 10370,16437 v 0 l -10,43 -10,41 -10,41 -13,40 -10,44 -13,43 -15,40 -13,44 15,5 13,-43 15,-41 13,-43 10,-44 13,-40 10,-46 10,-41 10,-43 v 0 z"
   id="path358"
   inkscape:connector-curvature="0"
   style="fill:#000000;stroke:none" />
         <path
   d="m 10416,15982 v 0 l 3,117 -6,115 -17,111 -26,112 h 15 l 26,-112 18,-111 10,-115 -8,-117 v 0 z"
   id="path360"
   inkscape:connector-curvature="0"
   style="fill:#000000;stroke:none" />
         <path
   d="m 10411,15883 2,26 v 22 26 l 3,25 h 15 l 3,-25 v -26 l -5,-22 -3,-26 z"
   id="path362"
   inkscape:connector-curvature="0"
   style="fill:#000000;stroke:none" />
         <path
   d="m 10426,15883 -2,-5 -5,-2 -6,2 -2,5 z"
   id="path364"
   inkscape:connector-curvature="0"
   style="fill:#000000;stroke:none" />
         <path
   d="m 10492,16163 -2,-5 -5,-3 -5,3 -3,5 z"
   id="path366"
   inkscape:connector-curvature="0"
   style="fill:#000000;stroke:none" />
         <path
   d="m 10495,16193 v 0 l 2,-7 -2,-8 -3,-8 v -7 h -15 v 7 l 3,8 -3,8 3,2 v 0 z"
   id="path368"
   inkscape:connector-curvature="0"
   style="fill:#000000;stroke:none" />
         <path
   d="m 10431,16412 v 0 l 16,-56 17,-54 16,-53 15,-56 -15,-5 -16,56 -15,53 -18,54 -15,56 v 0 z"
   id="path370"
   inkscape:connector-curvature="0"
   style="fill:#000000;stroke:none" />
         <path
   d="m 10314,16813 8,-7 23,-46 18,-48 12,-54 10,-48 11,-51 10,-51 10,-50 15,-46 -15,-5 -15,51 -10,50 -11,51 -10,51 -10,48 -13,49 -18,48 -22,46 7,-8 z"
   id="path372"
   inkscape:connector-curvature="0"
   style="fill:#000000;stroke:none" />
         <path
   d="m 10296,16826 13,-3 8,-7 2,-5 -5,2 v -20 l -10,8 -3,5 -2,2 -3,3 z"
   id="path374"
   inkscape:connector-curvature="0"
   style="fill:#000000;stroke:none" />
         <path
   d="m 10296,16811 -5,2 -2,5 2,5 5,3 z"
   id="path376"
   inkscape:connector-curvature="0"
   style="fill:#000000;stroke:none" />
         <path
   d="m 10464,16308 -2,-6 -5,-2 -5,2 -3,6 z"
   id="path378"
   inkscape:connector-curvature="0"
   style="fill:#000000;stroke:none" />
         <path
   d="m 10424,16648 h 2 l 5,-89 16,-86 12,-82 5,-83 h -15 l -5,83 -13,82 -15,86 -10,89 h 2 z"
   id="path380"
   inkscape:connector-curvature="0"
   style="fill:#000000;stroke:none" />
         <path
   d="m 10378,16869 v 0 l 20,-56 15,-56 8,-53 3,-56 h -16 l -2,56 -8,53 -15,51 -20,56 v 0 z"
   id="path382"
   inkscape:connector-curvature="0"
   style="fill:#000000;stroke:none" />
         <path
   d="m 10360,16984 v 0 -31 -28 l 8,-28 10,-28 -15,-5 -11,28 -7,33 -5,28 5,31 v 0 z"
   id="path384"
   inkscape:connector-curvature="0"
   style="fill:#000000;stroke:none" />
         <path
   d="m 10375,17090 -2,-28 -5,-25 -3,-28 -5,-25 h -15 l 5,25 2,28 5,25 -2,28 z"
   id="path386"
   inkscape:connector-curvature="0"
   style="fill:#000000;stroke:none" />
         <path
   d="m 10355,17090 2,8 8,3 8,-3 2,-8 z"
   id="path388"
   inkscape:connector-curvature="0"
   style="fill:#000000;stroke:none" />
         <path
   d="m 10408,16968 3,5 5,3 5,-3 3,-5 z"
   id="path390"
   inkscape:connector-curvature="0"
   style="fill:#000000;stroke:none" />
         <path
   d="m 10436,16618 v 0 l 3,89 -5,86 -10,89 -16,86 h 16 l 15,-86 10,-89 10,-86 -7,-89 v 0 z"
   id="path392"
   inkscape:connector-curvature="0"
   style="fill:#000000;stroke:none" />
         <path
   d="m 10429,16508 v 28 26 l 5,28 2,28 h 16 l -3,-28 v -28 -26 l -5,-28 z"
   id="path394"
   inkscape:connector-curvature="0"
   style="fill:#000000;stroke:none" />
         <path
   d="m 10444,16508 -3,-5 -5,-2 -5,2 -2,5 z"
   id="path396"
   inkscape:connector-curvature="0"
   style="fill:#000000;stroke:none" />
         <path
   d="m 10464,16353 -2,-5 -5,-2 -5,2 -3,5 z"
   id="path398"
   inkscape:connector-curvature="0"
   style="fill:#000000;stroke:none" />
         <path
   d="m 10472,16640 h 3 l 2,-73 v -71 l -5,-72 -8,-71 h -15 l 8,71 v 72 71 l -3,73 h 3 z"
   id="path400"
   inkscape:connector-curvature="0"
   style="fill:#000000;stroke:none" />
         <path
   d="m 10508,16948 v 0 l -11,-76 -10,-76 -10,-77 -5,-79 h -15 l 5,79 10,77 10,76 10,76 v 0 z"
   id="path402"
   inkscape:connector-curvature="0"
   style="fill:#000000;stroke:none" />
         <path
   d="m 10513,17169 v -56 -56 l 2,-53 -7,-56 h -16 l 3,56 -3,53 v 56 l 5,56 z"
   id="path404"
   inkscape:connector-curvature="0"
   style="fill:#000000;stroke:none" />
         <path
   d="m 10497,17169 3,5 5,3 5,-3 3,-5 z"
   id="path406"
   inkscape:connector-curvature="0"
   style="fill:#000000;stroke:none" />
         <path
   d="m 10648,17154 5,5 h 5 l 5,-3 v -7 z"
   id="path408"
   inkscape:connector-curvature="0"
   style="fill:#000000;stroke:none" />
         <path
   d="m 10637,17085 h 3 v 18 l 3,15 v 18 l 5,18 15,-5 -5,-13 v -18 l -3,-15 v -18 h 3 z"
   id="path410"
   inkscape:connector-curvature="0"
   style="fill:#000000;stroke:none" />
         <path
   d="m 10627,17078 h -2 l 10,10 h 5 v 0 l -3,-3 h 21 l -8,-7 -5,-5 h -5 l 5,5 h -2 z"
   id="path412"
   inkscape:connector-curvature="0"
   style="fill:#000000;stroke:none" />
         <path
   d="m 10615,16943 v 0 l -3,33 5,33 5,36 5,33 h 16 l -6,-33 -5,-36 v -33 l -2,-33 v 0 z"
   id="path414"
   inkscape:connector-curvature="0"
   style="fill:#000000;stroke:none" />
         <path
   d="m 10584,16752 v 0 l 20,44 11,48 v 48 51 h 15 l 5,-51 -5,-48 -10,-54 -21,-48 v 0 z"
   id="path416"
   inkscape:connector-curvature="0"
   style="fill:#000000;stroke:none" />
         <path
   d="m 10515,16602 18,38 15,36 16,36 20,40 15,-10 -20,-35 -15,-36 -16,-36 -17,-38 z"
   id="path418"
   inkscape:connector-curvature="0"
   style="fill:#000000;stroke:none" />
         <path
   d="m 10531,16597 -3,-5 h -8 l -5,3 v 7 z"
   id="path420"
   inkscape:connector-curvature="0"
   style="fill:#000000;stroke:none" />
         <path
   d="m 10724,17146 5,5 h 5 l 5,-2 v -8 z"
   id="path422"
   inkscape:connector-curvature="0"
   style="fill:#000000;stroke:none" />
         <path
   d="m 10696,17057 v 0 l 5,21 5,25 8,23 10,20 15,-5 -10,-20 -8,-23 -5,-20 -5,-21 v 0 z"
   id="path424"
   inkscape:connector-curvature="0"
   style="fill:#000000;stroke:none" />
         <path
   d="m 10668,16790 v 0 l 10,67 5,66 5,68 8,66 h 15 l -7,-66 -5,-68 -6,-66 -10,-67 v 0 z"
   id="path426"
   inkscape:connector-curvature="0"
   style="fill:#000000;stroke:none" />
         <path
   d="m 10564,16552 v 0 l 12,35 16,31 15,28 13,25 15,28 13,28 10,30 10,33 h 15 l -10,-38 -10,-30 -13,-28 -15,-28 -13,-26 -15,-27 -15,-31 -13,-36 v 0 z"
   id="path428"
   inkscape:connector-curvature="0"
   style="fill:#000000;stroke:none" />
         <path
   d="m 10548,16407 v 0 l 3,30 2,41 6,41 5,33 15,-6 -5,-27 -5,-41 -3,-41 -2,-30 v 0 z"
   id="path430"
   inkscape:connector-curvature="0"
   style="fill:#000000;stroke:none" />
         <path
   d="m 10485,15921 v 0 l 18,117 17,125 18,122 10,122 h 16 l -11,-122 -17,-122 -18,-125 -18,-117 v 0 z"
   id="path432"
   inkscape:connector-curvature="0"
   style="fill:#000000;stroke:none" />
         <path
   d="m 10413,15654 13,72 23,63 20,66 16,66 h 15 l -15,-71 -21,-66 -23,-64 -12,-66 z"
   id="path434"
   inkscape:connector-curvature="0"
   style="fill:#000000;stroke:none" />
         <path
   d="m 10429,15654 -3,-5 -5,-2 -5,2 -3,5 z"
   id="path436"
   inkscape:connector-curvature="0"
   style="fill:#000000;stroke:none" />
         <path
   d="m 10314,15736 -5,-3 -2,3 -3,5 v 5 z"
   id="path438"
   inkscape:connector-curvature="0"
   style="fill:#000000;stroke:none" />
         <path
   d="m 10403,15957 v 0 l -7,-28 -5,-31 -8,-30 -8,-28 -10,-28 -13,-25 -15,-28 -23,-23 -10,10 18,23 15,23 13,25 10,28 8,28 7,25 5,31 8,28 v 0 z"
   id="path440"
   inkscape:connector-curvature="0"
   style="fill:#000000;stroke:none" />
         <path
   d="m 10424,15980 v 0 l -5,-10 -8,-8 -5,-3 -3,-2 h -15 l 3,13 10,7 2,3 5,5 v 0 z"
   id="path442"
   inkscape:connector-curvature="0"
   style="fill:#000000;stroke:none" />
         <path
   d="m 10434,16000 -3,-5 -2,-10 -3,-3 -2,-2 -16,5 3,7 2,3 h 3 l -3,5 z"
   id="path444"
   inkscape:connector-curvature="0"
   style="fill:#000000;stroke:none" />
         <path
   d="m 10413,16000 3,8 8,2 7,-2 3,-8 z"
   id="path446"
   inkscape:connector-curvature="0"
   style="fill:#000000;stroke:none" />
         <path
   d="m 10467,15545 -5,-5 -5,3 -5,5 v 7 z"
   id="path448"
   inkscape:connector-curvature="0"
   style="fill:#000000;stroke:none" />
         <path
   d="m 10492,15611 v 0 l -2,-15 -5,-18 -8,-18 -10,-15 -15,10 10,16 7,12 6,13 2,15 v 0 z"
   id="path450"
   inkscape:connector-curvature="0"
   style="fill:#000000;stroke:none" />
         <path
   d="m 10487,15835 5,-56 5,-56 3,-56 -8,-56 h -15 l 8,56 -3,56 -5,56 -5,56 z"
   id="path452"
   inkscape:connector-curvature="0"
   style="fill:#000000;stroke:none" />
         <path
   d="m 10469,15835 3,7 8,3 7,-3 3,-7 z"
   id="path454"
   inkscape:connector-curvature="0"
   style="fill:#000000;stroke:none" />
         <path
   d="m 10541,15624 -3,-5 -5,-3 -5,3 -3,5 z"
   id="path456"
   inkscape:connector-curvature="0"
   style="fill:#000000;stroke:none" />
         <path
   d="m 10538,15842 v 0 l -5,-53 3,-56 v -53 l 5,-56 h -16 l -5,56 -5,53 3,56 5,53 v 0 z"
   id="path458"
   inkscape:connector-curvature="0"
   style="fill:#000000;stroke:none" />
         <path
   d="m 10561,15929 v 2 l -8,-25 -5,-23 -7,-20 -3,-21 h -15 l 2,21 8,25 5,23 8,20 v 3 z"
   id="path460"
   inkscape:connector-curvature="0"
   style="fill:#000000;stroke:none" />
         <path
   d="m 10576,16061 v 0 l -5,-30 -2,-31 -3,-33 -5,-38 -15,5 5,33 2,33 3,31 5,30 v 0 z"
   id="path462"
   inkscape:connector-curvature="0"
   style="fill:#000000;stroke:none" />
         <path
   d="m 10650,16300 v 0 l -23,-61 -20,-59 -15,-58 -16,-61 h -15 l 15,61 16,64 20,58 23,61 v 0 z"
   id="path464"
   inkscape:connector-curvature="0"
   style="fill:#000000;stroke:none" />
         <path
   d="m 10785,16574 v 3 l -18,-33 -18,-36 -17,-33 -18,-33 -15,-33 -18,-35 -16,-36 -15,-38 -15,5 15,38 15,36 18,35 16,33 17,33 18,33 18,36 18,33 v 3 z"
   id="path466"
   inkscape:connector-curvature="0"
   style="fill:#000000;stroke:none" />
         <path
   d="m 10877,16707 -11,-16 -12,-15 -13,-18 -13,-15 -10,-15 -10,-18 -13,-18 -10,-18 -15,11 10,17 13,18 10,18 10,15 13,15 13,18 12,15 15,16 z"
   id="path468"
   inkscape:connector-curvature="0"
   style="fill:#000000;stroke:none" />
         <path
   d="m 10866,16717 h 6 l 5,-3 2,-2 -2,-5 z"
   id="path470"
   inkscape:connector-curvature="0"
   style="fill:#000000;stroke:none" />
         <path
   d="m 10597,15626 -3,-5 -5,-2 -5,2 -3,5 z"
   id="path472"
   inkscape:connector-curvature="0"
   style="fill:#000000;stroke:none" />
         <path
   d="m 10538,15787 13,-39 15,-40 18,-38 13,-44 h -16 l -12,39 -18,38 -15,40 -13,44 z"
   id="path474"
   inkscape:connector-curvature="0"
   style="fill:#000000;stroke:none" />
         <path
   d="m 10523,15787 2,5 6,2 5,-2 2,-5 z"
   id="path476"
   inkscape:connector-curvature="0"
   style="fill:#000000;stroke:none" />
         <path
   d="m 10984,17001 5,5 7,-2 3,-5 v -8 z"
   id="path478"
   inkscape:connector-curvature="0"
   style="fill:#000000;stroke:none" />
         <path
   d="m 10790,16717 v 0 l 26,35 25,33 23,38 25,36 23,36 23,35 23,36 26,35 15,-10 -26,-35 -23,-36 -22,-36 -23,-35 -26,-36 -23,-38 -25,-33 -26,-35 v 0 z"
   id="path480"
   inkscape:connector-curvature="0"
   style="fill:#000000;stroke:none" />
         <path
   d="m 10620,16417 v 0 l 17,41 21,38 20,38 21,38 20,38 23,38 23,33 25,36 15,-10 -25,-36 -23,-33 -23,-38 -20,-33 -21,-38 -20,-38 -20,-39 -18,-40 v 0 z"
   id="path482"
   inkscape:connector-curvature="0"
   style="fill:#000000;stroke:none" />
         <path
   d="m 10564,16262 v 0 l 7,40 16,39 15,38 18,38 15,-5 -18,-38 -15,-38 -15,-39 -8,-35 v 0 z"
   id="path484"
   inkscape:connector-curvature="0"
   style="fill:#000000;stroke:none" />
         <path
   d="m 10546,16163 v 2 l 7,23 3,23 5,25 3,26 h 15 l -3,-26 -5,-25 -2,-23 -8,-28 v 3 z"
   id="path486"
   inkscape:connector-curvature="0"
   style="fill:#000000;stroke:none" />
         <path
   d="m 10531,16114 5,13 5,13 2,10 3,13 h 15 l -2,-13 -3,-15 -5,-13 -5,-13 z"
   id="path488"
   inkscape:connector-curvature="0"
   style="fill:#000000;stroke:none" />
         <path
   d="m 10546,16109 -3,-5 h -7 l -5,3 v 7 z"
   id="path490"
   inkscape:connector-curvature="0"
   style="fill:#000000;stroke:none" />
         <path
   d="m 11083,17220 h 7 l 6,-5 2,-5 -5,-5 z"
   id="path492"
   inkscape:connector-curvature="0"
   style="fill:#000000;stroke:none" />
         <path
   d="m 11047,17174 v 0 l 8,13 7,10 8,10 13,13 10,-15 -8,-8 -7,-10 -8,-10 -13,-13 v 0 z"
   id="path494"
   inkscape:connector-curvature="0"
   style="fill:#000000;stroke:none" />
         <path
   d="m 10943,17034 v 0 l 13,18 12,18 10,18 13,18 13,17 13,18 12,15 18,18 10,-10 -12,-18 -13,-15 -13,-18 -13,-18 -12,-17 -10,-18 -13,-18 -13,-18 v 0 z"
   id="path496"
   inkscape:connector-curvature="0"
   style="fill:#000000;stroke:none" />
         <path
   d="m 10767,16806 v 0 l 21,30 20,28 20,31 23,28 21,28 22,28 26,27 23,28 15,-10 -23,-28 -25,-28 -23,-28 -21,-28 -22,-28 -21,-30 -20,-28 -20,-30 v 0 z"
   id="path498"
   inkscape:connector-curvature="0"
   style="fill:#000000;stroke:none" />
         <path
   d="m 10653,16615 v 0 l 12,25 13,28 15,23 13,23 15,23 16,23 15,23 15,23 16,-10 -16,-23 -15,-23 -15,-23 -16,-23 -12,-23 -16,-23 -12,-23 -13,-25 v 0 z"
   id="path500"
   inkscape:connector-curvature="0"
   style="fill:#000000;stroke:none" />
         <path
   d="m 10630,16569 2,3 5,10 6,10 5,13 5,10 15,-5 -5,-10 -5,-13 -5,-10 -5,-10 2,2 z"
   id="path502"
   inkscape:connector-curvature="0"
   style="fill:#000000;stroke:none" />
         <path
   d="m 10615,16562 v 0 l 10,7 5,3 2,2 -2,-5 h 20 l -7,-10 -8,-2 -5,-3 v 3 0 z"
   id="path504"
   inkscape:connector-curvature="0"
   style="fill:#000000;stroke:none" />
         <path
   d="m 10556,16391 13,44 12,43 16,41 18,43 15,-5 -18,-44 -15,-40 -13,-43 -13,-44 z"
   id="path506"
   inkscape:connector-curvature="0"
   style="fill:#000000;stroke:none" />
         <path
   d="m 10571,16386 -2,-5 h -8 l -5,3 v 7 z"
   id="path508"
   inkscape:connector-curvature="0"
   style="fill:#000000;stroke:none" />
         <path
   d="m 10900,17131 2,5 5,3 5,-3 3,-5 z"
   id="path510"
   inkscape:connector-curvature="0"
   style="fill:#000000;stroke:none" />
         <path
   d="m 10755,16877 v -3 l 25,28 23,31 23,30 20,31 15,33 16,35 12,36 11,33 h 15 l -10,-38 -13,-36 -15,-35 -16,-33 -20,-36 -23,-30 -23,-31 -30,-28 v -2 z"
   id="path512"
   inkscape:connector-curvature="0"
   style="fill:#000000;stroke:none" />
         <path
   d="m 10724,16829 h -3 l 8,12 8,8 5,15 13,13 10,-15 -8,-8 -5,-10 -8,-13 -7,-13 h -3 z"
   id="path514"
   inkscape:connector-curvature="0"
   style="fill:#000000;stroke:none" />
         <path
   d="m 10676,16790 12,11 13,7 10,10 13,11 10,-11 -13,-10 -10,-10 -12,-13 -13,-10 z"
   id="path516"
   inkscape:connector-curvature="0"
   style="fill:#000000;stroke:none" />
         <path
   d="m 10686,16775 h -8 l -5,3 -2,7 5,5 z"
   id="path518"
   inkscape:connector-curvature="0"
   style="fill:#000000;stroke:none" />
         <path
   d="m 10696,16884 -5,-5 -5,3 -5,5 v 8 z"
   id="path520"
   inkscape:connector-curvature="0"
   style="fill:#000000;stroke:none" />
         <path
   d="m 10798,17067 v 0 l -13,-20 -13,-23 -12,-23 -11,-22 -12,-26 -13,-23 -13,-25 -15,-21 -15,11 15,20 13,20 12,23 13,26 10,22 13,23 13,23 13,26 v 0 z"
   id="path522"
   inkscape:connector-curvature="0"
   style="fill:#000000;stroke:none" />
         <path
   d="m 10925,17248 -15,-23 -16,-23 -15,-23 -18,-23 -17,-20 -16,-23 -15,-23 -15,-23 -15,11 15,23 15,22 15,23 18,21 18,22 15,23 15,23 16,23 z"
   id="path524"
   inkscape:connector-curvature="0"
   style="fill:#000000;stroke:none" />
         <path
   d="m 10910,17258 5,5 7,-2 3,-5 v -8 z"
   id="path526"
   inkscape:connector-curvature="0"
   style="fill:#000000;stroke:none" />
         <path
   d="m 10836,17154 5,5 h 5 l 5,-3 v -7 z"
   id="path528"
   inkscape:connector-curvature="0"
   style="fill:#000000;stroke:none" />
         <path
   d="m 10805,17045 v 0 l 11,28 5,22 7,31 8,28 15,-5 -7,-28 -8,-26 -5,-28 -10,-27 v 0 z"
   id="path530"
   inkscape:connector-curvature="0"
   style="fill:#000000;stroke:none" />
         <path
   d="m 10742,16956 v 0 l 15,23 18,20 15,23 15,23 16,-5 -16,-28 -15,-23 -18,-21 -15,-23 v 0 z"
   id="path532"
   inkscape:connector-curvature="0"
   style="fill:#000000;stroke:none" />
         <path
   d="m 10709,16930 7,10 13,5 8,6 5,5 15,-11 -10,-10 -13,-5 -7,-5 -8,-5 z"
   id="path534"
   inkscape:connector-curvature="0"
   style="fill:#000000;stroke:none" />
         <path
   d="m 10719,16920 -5,-2 -3,2 -2,5 v 5 z"
   id="path536"
   inkscape:connector-curvature="0"
   style="fill:#000000;stroke:none" />
         <path
   d="m 10503,15949 -21,-5 -23,-2 -20,-3 -20,-3 -21,-2 -15,-3 -15,-5 -13,-2 -20,2 -16,16 -2,20 18,20 -13,10 -3,13 5,13 16,10 -5,10 -6,13 v 13 l 6,10 10,7 h 15 l 23,-7 30,-16 31,6 31,2 h 28 l 28,-2 h 25 l 23,-3 20,-3 16,-2 17,-15 v -26 l -15,-20 -23,-10 28,-10 18,-18 3,-21 -8,-17 -10,-5 h -16 l -20,2 -20,5 -21,10 -20,8 -15,5 z"
   id="path538"
   inkscape:connector-curvature="0"
   style="fill:#7f3300;stroke:none" />
         <path
   d="m 10352,15931 v 0 l 13,3 18,5 15,3 21,2 20,3 20,2 23,3 21,5 v -15 l -21,-6 -23,-2 -20,-3 -20,-2 -21,-3 -15,-2 -13,-5 -13,-3 v 0 z"
   id="path540"
   inkscape:connector-curvature="0"
   style="fill:#000000;stroke:none" />
         <path
   d="m 10340,15990 -3,-15 -13,-16 3,-15 10,-10 15,-3 5,-15 -25,3 -20,20 -3,25 23,26 -3,-15 3,15 h 8 l 2,-5 v -8 l -5,-2 z"
   id="path542"
   inkscape:connector-curvature="0"
   style="fill:#000000;stroke:none" />
         <path
   d="m 10347,16033 -5,-13 -13,-7 -2,-8 2,-8 11,-7 -11,-15 -15,12 -2,18 7,18 18,13 -5,-13 5,13 h 8 l 2,-5 v -8 l -5,-3 z"
   id="path544"
   inkscape:connector-curvature="0"
   style="fill:#000000;stroke:none" />
         <path
   d="m 10413,16051 h -5 l -28,15 -20,8 h -13 l -5,-5 -5,-5 v -13 l 5,-10 5,-8 -15,-10 -5,13 -5,15 v 13 l 5,15 15,10 h 18 l 25,-8 34,-15 h -6 6 l 5,-5 -3,-8 -5,-2 h -8 z"
   id="path546"
   inkscape:connector-curvature="0"
   style="fill:#000000;stroke:none" />
         <path
   d="m 10615,16048 v 0 l -16,3 -20,2 h -23 -25 l -28,3 h -28 -31 l -31,-5 v 15 l 31,5 31,5 h 28 l 28,-2 h 25 l 23,-5 20,-3 16,-2 v 0 z"
   id="path548"
   inkscape:connector-curvature="0"
   style="fill:#000000;stroke:none" />
         <path
   d="m 10594,15977 v 15 l 18,11 13,15 v 20 l -10,10 v 16 l 25,-21 v -30 l -18,-26 -28,-10 v 15 -15 l -5,3 -2,5 2,5 5,2 z"
   id="path550"
   inkscape:connector-curvature="0"
   style="fill:#000000;stroke:none" />
         <path
   d="m 10627,15924 h 3 l 5,12 -3,18 -15,13 -23,10 v 15 l 33,-10 21,-23 2,-23 -10,-22 h 3 z"
   id="path552"
   inkscape:connector-curvature="0"
   style="fill:#000000;stroke:none" />
         <path
   d="m 10503,15957 h 2 l 10,-5 16,-5 20,-8 20,-10 18,-5 20,-3 h 16 l 2,3 16,-10 -18,-8 h -16 l -20,3 -23,5 -20,10 -21,7 -15,5 -10,6 h 3 -3 l -5,2 v 8 l 2,5 h 8 z"
   id="path554"
   inkscape:connector-curvature="0"
   style="fill:#000000;stroke:none" />
         <path
   d="m 10505,15957 5,-5 v -5 l -2,-5 h -8 z"
   id="path556"
   inkscape:connector-curvature="0"
   style="fill:#000000;stroke:none" />
         <path
   d="m 10340,16028 2,8 163,-79 -5,-15 -163,78 z"
   id="path558"
   inkscape:connector-curvature="0"
   style="fill:#000000;stroke:none" />
         <path
   d="m 10337,16020 -5,3 v 8 l 3,5 h 7 z"
   id="path560"
   inkscape:connector-curvature="0"
   style="fill:#000000;stroke:none" />
         <path
   d="m 10597,15992 5,-5 v -5 l -3,-5 h -7 z"
   id="path562"
   inkscape:connector-curvature="0"
   style="fill:#000000;stroke:none" />
         <path
   d="m 10419,16064 15,-8 20,-13 31,-12 30,-13 31,-10 25,-8 18,-5 8,-3 -5,-15 -8,3 -18,5 -25,7 -31,11 -30,12 -31,13 -25,13 -16,12 z"
   id="path564"
   inkscape:connector-curvature="0"
   style="fill:#000000;stroke:none" />
         <path
   d="m 10408,16053 v 5 l 3,3 2,3 h 6 z"
   id="path566"
   inkscape:connector-curvature="0"
   style="fill:#000000;stroke:none" />
         <path
   d="m 10335,15975 -6,2 -2,5 2,5 6,3 z"
   id="path568"
   inkscape:connector-curvature="0"
   style="fill:#000000;stroke:none" />
         <path
   d="m 10436,15975 -12,-5 -18,-3 h -18 l -15,3 h -16 l -12,2 -8,3 h -2 v 15 h 2 l 8,-3 12,-2 h 16 l 15,-3 h 18 l 13,3 12,5 z"
   id="path570"
   inkscape:connector-curvature="0"
   style="fill:#000000;stroke:none" />
         <path
   d="m 10431,15990 h 8 l 2,-5 v -8 l -5,-2 z"
   id="path572"
   inkscape:connector-curvature="0"
   style="fill:#000000;stroke:none" />
        </g>
       </g>
      </g>
     </g>
    </g>
   </g>
  </g>
 </g>
</svg>