<?xml version="1.0" encoding="UTF-8" standalone="no"?>
<svg
   xmlns:ooo="http://xml.openoffice.org/svg/export"
   xmlns:dc="http://purl.org/dc/elements/1.1/"
   xmlns:cc="http://creativecommons.org/ns#"
   xmlns:rdf="http://www.w3.org/1999/02/22-rdf-syntax-ns#"
   xmlns:svg="http://www.w3.org/2000/svg"
   xmlns="http://www.w3.org/2000/svg"
   xmlns:sodipodi="http://sodipodi.sourceforge.net/DTD/sodipodi-0.dtd"
   xmlns:inkscape="http://www.inkscape.org/namespaces/inkscape"
   version="1.2"
   width="30.280001mm"
   height="15.44mm"
   viewBox="0 0 3028.0001 1544"
   preserveAspectRatio="xMidYMid"
   xml:space="preserve"
   id="svg95"
   sodipodi:docname="bshape1.svg"
   style="fill-rule:evenodd;stroke-width:28.22200012;stroke-linejoin:round"
   inkscape:version="0.92.5 (2060ec1f9f, 2020-04-08)"><metadata
   id="metadata99"><rdf:RDF><cc:Work
       rdf:about=""><dc:format>image/svg+xml</dc:format><dc:type
         rdf:resource="http://purl.org/dc/dcmitype/StillImage" /></cc:Work></rdf:RDF></metadata><sodipodi:namedview
   pagecolor="#ffffff"
   bordercolor="#666666"
   borderopacity="1"
   objecttolerance="10"
   gridtolerance="10"
   guidetolerance="10"
   inkscape:pageopacity="0"
   inkscape:pageshadow="2"
   inkscape:window-width="664"
   inkscape:window-height="487"
   id="namedview97"
   showgrid="false"
   inkscape:zoom="0.2102413"
   inkscape:cx="57.222048"
   inkscape:cy="29.177951"
   inkscape:window-x="0"
   inkscape:window-y="0"
   inkscape:window-maximized="0"
   inkscape:current-layer="svg95" />
 <defs
   class="ClipPathGroup"
   id="defs8">
  <clipPath
   id="presentation_clip_path"
   clipPathUnits="userSpaceOnUse">
   <rect
   x="0"
   y="0"
   width="21000"
   height="29700"
   id="rect2" />
  </clipPath>
  <clipPath
   id="presentation_clip_path_shrink"
   clipPathUnits="userSpaceOnUse">
   <rect
   x="21"
   y="29"
   width="20958"
   height="29641"
   id="rect5" />
  </clipPath>
 </defs>
 <defs
   class="TextShapeIndex"
   id="defs12">
  <g
   ooo:slide="id1"
   ooo:id-list="id3"
   id="g10" />
 </defs>
 <defs
   class="EmbeddedBulletChars"
   id="defs44">
  <g
   id="bullet-char-template-57356"
   transform="matrix(4.8828125e-4,0,0,-4.8828125e-4,0,0)">
   <path
   d="M 580,1141 1163,571 580,0 -4,571 Z"
   id="path14"
   inkscape:connector-curvature="0" />
  </g>
  <g
   id="bullet-char-template-57354"
   transform="matrix(4.8828125e-4,0,0,-4.8828125e-4,0,0)">
   <path
   d="M 8,1128 H 1137 V 0 H 8 Z"
   id="path17"
   inkscape:connector-curvature="0" />
  </g>
  <g
   id="bullet-char-template-10146"
   transform="matrix(4.8828125e-4,0,0,-4.8828125e-4,0,0)">
   <path
   d="M 174,0 602,739 174,1481 1456,739 Z M 1358,739 309,1346 659,739 Z"
   id="path20"
   inkscape:connector-curvature="0" />
  </g>
  <g
   id="bullet-char-template-10132"
   transform="matrix(4.8828125e-4,0,0,-4.8828125e-4,0,0)">
   <path
   d="M 2015,739 1276,0 H 717 l 543,543 H 174 v 393 h 1086 l -543,545 h 557 z"
   id="path23"
   inkscape:connector-curvature="0" />
  </g>
  <g
   id="bullet-char-template-10007"
   transform="matrix(4.8828125e-4,0,0,-4.8828125e-4,0,0)">
   <path
   d="m 0,-2 c -7,16 -16,29 -25,39 l 381,530 c -94,256 -141,385 -141,387 0,25 13,38 40,38 9,0 21,-2 34,-5 21,4 42,12 65,25 l 27,-13 111,-251 280,301 64,-25 24,25 c 21,-10 41,-24 62,-43 C 886,937 835,863 770,784 769,783 710,716 594,584 L 774,223 c 0,-27 -21,-55 -63,-84 l 16,-20 C 717,90 699,76 672,76 641,76 570,178 457,381 L 164,-76 c -22,-34 -53,-51 -92,-51 -42,0 -63,17 -64,51 -7,9 -10,24 -10,44 0,9 1,19 2,30 z"
   id="path26"
   inkscape:connector-curvature="0" />
  </g>
  <g
   id="bullet-char-template-10004"
   transform="matrix(4.8828125e-4,0,0,-4.8828125e-4,0,0)">
   <path
   d="M 285,-33 C 182,-33 111,30 74,156 52,228 41,333 41,471 c 0,78 14,145 41,201 34,71 87,106 158,106 53,0 88,-31 106,-94 l 23,-176 c 8,-64 28,-97 59,-98 l 735,706 c 11,11 33,17 66,17 42,0 63,-15 63,-46 V 965 c 0,-36 -10,-64 -30,-84 L 442,47 C 390,-6 338,-33 285,-33 Z"
   id="path29"
   inkscape:connector-curvature="0" />
  </g>
  <g
   id="bullet-char-template-9679"
   transform="matrix(4.8828125e-4,0,0,-4.8828125e-4,0,0)">
   <path
   d="M 813,0 C 632,0 489,54 383,161 276,268 223,411 223,592 c 0,181 53,324 160,431 106,107 249,161 430,161 179,0 323,-54 432,-161 108,-107 162,-251 162,-431 0,-180 -54,-324 -162,-431 C 1136,54 992,0 813,0 Z"
   id="path32"
   inkscape:connector-curvature="0" />
  </g>
  <g
   id="bullet-char-template-8226"
   transform="matrix(4.8828125e-4,0,0,-4.8828125e-4,0,0)">
   <path
   d="m 346,457 c -73,0 -137,26 -191,78 -54,51 -81,114 -81,188 0,73 27,136 81,188 54,52 118,78 191,78 73,0 134,-26 185,-79 51,-51 77,-114 77,-187 0,-75 -25,-137 -76,-188 -50,-52 -112,-78 -186,-78 z"
   id="path35"
   inkscape:connector-curvature="0" />
  </g>
  <g
   id="bullet-char-template-8211"
   transform="matrix(4.8828125e-4,0,0,-4.8828125e-4,0,0)">
   <path
   d="M -4,459 H 1135 V 606 H -4 Z"
   id="path38"
   inkscape:connector-curvature="0" />
  </g>
  <g
   id="bullet-char-template-61548"
   transform="matrix(4.8828125e-4,0,0,-4.8828125e-4,0,0)">
   <path
   d="m 173,740 c 0,163 58,303 173,419 116,115 255,173 419,173 163,0 302,-58 418,-173 116,-116 174,-256 174,-419 0,-163 -58,-303 -174,-418 C 1067,206 928,148 765,148 601,148 462,206 346,322 231,437 173,577 173,740 Z"
   id="path41"
   inkscape:connector-curvature="0" />
  </g>
 </defs>
 <g
   id="g49"
   transform="translate(-8986,-14078)">
  <g
   id="id2"
   class="Master_Slide">
   <g
   id="bg-id2"
   class="Background" />
   <g
   id="bo-id2"
   class="BackgroundObjects" />
  </g>
 </g>
 <g
   class="SlideGroup"
   id="g93"
   transform="translate(-8986,-14078)">
  <g
   id="g91">
   <g
   id="container-id1">
    <g
   id="id1"
   class="Slide"
   clip-path="url(#presentation_clip_path)">
     <g
   class="Page"
   id="g87">
      <g
   class="Graphic"
   id="g85">
       <g
   id="id3">
        <rect
   class="BoundingBox"
   x="8986"
   y="14078"
   width="3028"
   height="1544"
   id="rect51"
   style="fill:none;stroke:none" />
        <defs
   id="defs56">
         <clipPath
   id="clip_path_1"
   clipPathUnits="userSpaceOnUse">
          <path
   d="m 8986,14078 h 3027 v 1543 H 8986 Z"
   id="path53"
   inkscape:connector-curvature="0" />
         </clipPath>
        </defs>
        <g
   clip-path="url(#clip_path_1)"
   id="g82">
         <path
   d="M 12014,15622 V 14078 H 8986 v 1544 z"
   id="path58"
   inkscape:connector-curvature="0"
   style="fill:#fff48e;stroke:none" />
         <path
   d="m 9978,14849 -209,-669 392,554 z"
   id="path60"
   inkscape:connector-curvature="0"
   style="fill:#000000;stroke:none" />
         <path
   d="m 11119,14956 -20,12 -13,13 -13,15 -7,13 -10,13 -11,10 -12,10 -18,5 h -18 l -13,-7 -10,-11 -10,-10 -8,-13 -12,-10 -13,-5 h -20 l -18,5 -13,13 -8,13 -5,12 -7,16 -8,12 -13,13 -20,5 h -23 l -18,-5 -12,-10 -10,-13 -13,-10 -13,-10 -15,-5 h -23 l -18,-46 h 23 l 18,5 13,10 15,10 13,13 15,10 18,5 h 22 l 21,-5 12,-10 8,-13 5,-15 5,-13 5,-12 13,-10 18,-6 h 18 l 15,6 10,10 8,12 10,11 10,10 13,7 h 18 l 17,-5 13,-10 10,-13 10,-12 8,-16 13,-12 15,-13 20,-10 36,-8 36,-2 30,5 28,12 23,16 20,18 18,22 15,23 8,18 2,23 v 23 l -5,23 -10,20 -12,21 -16,17 -18,13 -17,8 -21,5 -17,2 -21,-5 -20,-7 -21,-13 -17,-18 -16,-23 -12,-43 5,-41 20,-33 26,-20 12,-3 h 16 l 15,3 13,7 12,11 13,10 8,15 7,13 3,15 -3,18 -7,15 -13,13 -15,10 -16,3 -15,-6 -13,-12 23,-16 10,6 11,-8 5,-13 -3,-15 -10,-13 -10,-12 -13,-8 h -13 l -12,10 -16,15 -5,28 8,36 10,18 13,12 13,6 15,2 h 15 l 13,-2 12,-6 11,-5 17,-15 16,-23 7,-30 -7,-31 -10,-18 -13,-17 -18,-16 -18,-12 -23,-8 -25,-5 -26,2 z"
   id="path62"
   inkscape:connector-curvature="0"
   style="fill:#ff4c00;stroke:none" />
         <path
   d="m 11012,15314 -23,-7 -20,-3 h -18 l -15,3 -15,2 -15,-2 -16,-6 -15,-10 -15,-28 5,-30 5,-28 -15,-31 -16,-10 -15,-2 h -15 l -15,5 -18,5 h -15 l -18,-3 -18,-12 -18,-34 3,-33 v -33 l -18,-30 25,-43 21,33 v 35 36 l 20,35 18,13 15,3 15,-3 13,-5 15,-5 16,-3 15,3 15,10 15,31 -5,30 -5,28 13,28 15,10 15,5 h 16 l 17,-2 h 16 17 l 21,5 20,10 31,23 20,25 15,28 8,28 2,28 v 31 l -5,28 -10,25 -10,18 -18,15 -18,13 -20,10 -25,8 -23,2 -23,-2 -20,-5 -18,-10 -15,-13 -16,-15 -7,-18 -8,-20 -3,-23 6,-23 7,-28 13,-21 13,-17 17,-13 21,-8 18,-5 h 17 l 18,3 15,5 21,20 7,28 v 31 l -10,30 -13,13 -15,8 -18,5 -17,-3 -18,-8 -10,-10 -5,-12 2,-18 26,10 2,10 10,3 15,-3 11,-13 5,-15 2,-18 -2,-15 -8,-10 -5,-3 -10,-2 h -10 -13 l -13,5 -12,8 -13,12 -10,18 -10,36 10,28 20,17 23,13 13,3 12,2 h 13 l 15,-2 13,-5 13,-8 10,-10 10,-15 13,-41 v -46 l -18,-46 z"
   id="path64"
   inkscape:connector-curvature="0"
   style="fill:#ff4c00;stroke:none" />
         <path
   d="m 10560,15434 -8,-43 -18,-31 -12,-28 2,-33 8,-15 12,-10 13,-3 15,-3 16,-2 15,-5 10,-10 10,-18 3,-18 -3,-15 -10,-13 -10,-13 -10,-12 -8,-13 -2,-18 5,-23 7,-20 13,-10 15,-8 16,-5 15,-3 15,-7 13,-10 10,-18 48,2 -10,21 -13,12 -15,8 -18,5 -17,8 -16,7 -12,13 -11,20 -5,21 5,15 8,13 10,12 10,11 8,12 3,13 -3,20 -8,18 -12,10 -13,6 -13,2 -15,3 -13,2 -12,10 -8,16 -3,33 13,28 15,30 3,43 -8,36 -15,31 -18,25 -23,20 -25,16 -26,10 -27,5 -28,2 -21,-2 -20,-8 -20,-13 -18,-15 -16,-20 -12,-20 -10,-21 -3,-23 3,-20 5,-18 7,-18 13,-17 15,-13 21,-10 25,-8 28,-5 25,2 21,6 18,12 15,13 13,15 7,18 5,18 v 15 l -2,15 -8,13 -10,10 -13,8 -15,8 -15,5 -16,2 h -15 l -30,-15 -16,-33 3,-33 28,-15 2,25 -7,5 2,13 11,12 12,6 18,-3 18,-3 13,-7 5,-13 v -18 l -11,-20 -22,-18 -36,-7 -38,5 -20,20 -11,25 -2,26 5,25 15,23 23,21 31,10 h 20 l 20,-5 23,-8 20,-13 18,-15 15,-18 11,-25 z"
   id="path66"
   inkscape:connector-curvature="0"
   style="fill:#ff4c00;stroke:none" />
         <path
   d="m 10265,15067 20,-10 15,-15 13,-13 10,-12 8,-13 13,-10 12,-5 18,-5 h 18 l 13,7 10,10 7,13 8,13 10,10 16,8 h 17 l 21,-5 12,-11 8,-10 8,-15 7,-15 8,-11 15,-10 20,-5 h 21 l 18,8 12,10 10,13 11,12 12,11 16,7 20,3 15,43 h -23 l -15,-8 -15,-10 -10,-12 -13,-13 -15,-10 -16,-8 h -22 l -21,5 -13,8 -7,12 -8,13 -5,13 -7,13 -13,10 -18,5 -20,-3 -13,-5 -10,-10 -8,-13 -7,-12 -11,-11 -12,-5 -18,-2 -18,2 -13,8 -12,10 -8,13 -10,13 -13,12 -18,13 -20,8 -38,7 -33,-2 -31,-5 -25,-13 -26,-15 -17,-21 -18,-23 -13,-22 -5,-21 -2,-23 2,-23 8,-23 10,-20 13,-20 17,-15 18,-13 18,-8 20,-2 h 21 l 20,5 20,7 18,16 15,17 16,26 7,23 3,23 v 20 l -8,18 -10,18 -10,12 -13,11 -15,7 -15,3 h -16 l -12,-5 -16,-8 -10,-10 -10,-10 -10,-13 -5,-15 -3,-18 5,-18 11,-15 12,-10 15,-8 16,-3 15,5 10,13 -23,15 -10,-5 -10,5 -5,13 v 15 l 7,16 11,12 12,11 h 13 l 15,-8 16,-18 7,-25 -5,-38 -10,-18 -13,-13 -12,-8 -16,-5 h -12 l -16,3 -12,5 -11,5 -20,15 -15,21 -8,28 5,33 8,18 13,17 15,16 18,15 23,10 22,5 h 26 z"
   id="path68"
   inkscape:connector-curvature="0"
   style="fill:#ff4c00;stroke:none" />
         <path
   d="m 10481,14650 18,13 20,10 15,5 18,3 15,5 13,5 13,10 10,15 5,18 v 13 l -8,13 -7,12 -8,13 -5,15 -2,16 7,17 13,16 13,7 15,3 h 15 18 l 15,5 15,8 13,17 8,21 v 18 l -5,15 -8,15 -8,15 -5,16 v 17 l 8,21 -38,30 -8,-38 13,-33 10,-33 -8,-41 -12,-17 -16,-8 -12,-3 h -15 -16 -12 l -13,-7 -13,-16 -8,-33 16,-28 12,-25 -2,-31 -13,-15 -13,-7 -15,-6 -15,-5 -15,-2 -18,-8 -18,-10 -15,-15 -33,-61 -5,-61 15,-54 31,-48 15,-13 20,-10 23,-8 23,-2 h 25 l 23,5 21,8 17,12 26,31 12,38 -7,43 -26,46 -17,18 -18,10 -21,8 -20,2 -20,-2 -18,-3 -15,-8 -13,-10 -13,-25 v -31 l 13,-30 18,-26 15,-7 18,-3 18,3 15,7 13,11 7,12 3,15 -8,16 -20,-16 v -10 l -10,-7 h -16 l -12,7 -10,13 -8,15 -3,16 5,12 6,5 7,5 10,6 10,2 h 13 l 15,-5 16,-8 15,-12 20,-33 -2,-28 -13,-26 -18,-18 -7,-7 -13,-5 -13,-3 -13,-2 h -15 l -15,2 -15,8 -13,10 -23,33 -15,46 5,48 z"
   id="path70"
   inkscape:connector-curvature="0"
   style="fill:#ff4c00;stroke:none" />
         <path
   d="m 10949,14678 -5,44 5,33 2,30 -12,33 -13,13 -15,5 h -13 l -15,-3 -16,-2 h -15 l -15,5 -13,13 -10,33 10,30 10,31 -12,35 -16,16 -15,7 -18,3 -15,-3 h -18 l -18,3 -15,8 -15,15 -43,-21 15,-15 18,-7 15,-3 20,-3 h 18 l 18,-2 15,-10 15,-16 11,-17 2,-18 -5,-13 -5,-15 -8,-13 -2,-13 v -15 l 10,-18 13,-12 15,-5 h 15 l 13,2 15,3 h 15 l 13,-5 13,-13 13,-33 -5,-31 -6,-33 11,-41 20,-33 23,-22 28,-21 25,-10 28,-8 h 31 l 28,3 25,5 20,10 16,13 15,18 13,20 10,23 5,23 v 23 l -3,23 -7,17 -10,18 -13,13 -18,13 -20,7 -21,5 h -25 l -28,-5 -23,-10 -18,-13 -15,-15 -10,-18 -8,-17 -2,-21 v -18 l 5,-15 7,-13 11,-10 12,-7 16,-3 15,-2 h 18 l 15,2 15,5 23,26 5,35 -13,31 -30,5 5,-26 10,-5 v -10 l -5,-13 -10,-10 -18,-5 h -15 l -15,5 -11,8 -5,15 3,23 15,23 33,20 20,5 h 16 l 15,-5 13,-7 10,-11 7,-12 6,-13 2,-10 3,-23 -5,-28 -16,-25 -28,-18 -17,-5 -23,-3 h -23 l -23,5 -23,8 -20,13 -16,20 z"
   id="path72"
   inkscape:connector-curvature="0"
   style="fill:#ff4c00;stroke:none" />
         <path
   d="m 9314,14681 43,13 38,2 36,-2 30,-6 31,-2 h 28 l 30,8 31,20 23,25 7,28 -2,28 -8,28 -7,31 v 28 l 7,30 26,28 33,21 30,2 28,-5 31,-10 28,-10 30,-5 33,5 36,23 28,30 13,31 2,33 -2,30 -6,33 3,33 10,31 28,30 -46,84 -28,-30 -12,-33 -3,-36 v -35 l 3,-33 -5,-36 -13,-33 -28,-33 -36,-21 -30,-5 -28,5 -28,11 -26,10 -28,7 -30,-5 -31,-17 -25,-28 -10,-28 2,-28 5,-28 8,-28 3,-28 -8,-28 -23,-26 -30,-20 -28,-8 h -31 l -30,5 -33,5 -33,3 -36,-8 -41,-17 -58,-44 -46,-48 -30,-51 -21,-56 -7,-53 v -56 l 10,-54 15,-51 20,-35 28,-31 36,-28 41,-20 43,-15 46,-8 h 43 l 43,10 36,16 30,22 26,28 20,33 15,39 5,43 -5,48 -13,54 -20,43 -28,33 -30,28 -36,18 -38,10 -36,2 -33,-2 -30,-10 -41,-38 -18,-54 v -63 l 18,-59 20,-25 31,-18 33,-8 36,3 33,10 22,20 13,26 -5,35 -51,-15 v -13 l -5,-7 -10,-3 h -10 l -15,3 -13,5 -13,10 -7,13 -11,30 -2,33 5,28 15,18 13,5 18,5 23,3 22,-5 23,-8 23,-18 23,-23 20,-35 13,-38 3,-33 -8,-28 -15,-26 -18,-20 -23,-16 -23,-12 -20,-8 -23,-5 -23,-3 -28,3 -25,5 -28,10 -23,18 -20,23 -18,28 -13,36 -8,40 -2,46 5,46 15,43 23,41 36,35 z"
   id="path74"
   inkscape:connector-curvature="0"
   style="fill:#00b2e5;stroke:none" />
         <path
   d="m 9365,15212 -33,-55 51,-26 50,-15 49,-3 46,8 43,13 38,20 35,28 31,28 18,28 12,30 6,36 v 36 l -6,38 -12,33 -15,33 -23,25 -23,21 -28,12 -31,11 -30,2 -33,-5 -33,-13 -33,-20 -33,-28 -23,-30 -13,-31 -8,-33 3,-33 5,-28 10,-28 15,-23 18,-18 21,-10 20,-5 h 23 l 23,5 23,10 20,13 20,18 15,18 11,25 2,25 -7,28 -16,26 -18,18 -22,10 h -23 l -23,-15 28,-34 15,3 13,-13 2,-20 -7,-23 -8,-10 -10,-8 -13,-7 -10,-8 -10,-5 -13,-3 h -10 l -8,5 -17,18 -16,33 v 44 l 28,50 23,23 23,13 23,8 23,-3 20,-5 18,-10 18,-10 12,-13 23,-31 16,-40 -3,-49 -20,-45 -21,-23 -28,-21 -30,-15 -36,-13 -35,-5 -38,3 -39,13 z"
   id="path76"
   inkscape:connector-curvature="0"
   style="fill:#e5004c;stroke:none" />
         <path
   d="m 11251,14317 -33,-53 51,-28 51,-13 48,-3 46,6 43,12 38,21 36,28 30,28 18,28 13,30 5,36 v 38 l -5,35 -13,36 -15,33 -23,26 -25,17 -26,16 -30,7 -31,3 -33,-5 -33,-13 -33,-20 -33,-28 -23,-31 -15,-30 -5,-33 v -34 l 5,-27 13,-28 12,-23 18,-18 20,-10 23,-5 h 23 l 23,5 23,10 20,13 21,17 15,18 10,26 3,25 -8,28 -15,25 -18,18 -23,10 h -23 l -23,-15 28,-33 16,3 12,-13 3,-20 -8,-23 -7,-10 -11,-8 -12,-8 -11,-7 -10,-5 -12,-3 h -11 l -7,5 -18,18 -15,33 v 43 l 28,51 23,23 22,13 23,7 23,-2 21,-5 17,-11 18,-10 13,-12 23,-31 15,-41 -3,-48 -20,-46 -20,-23 -28,-20 -31,-15 -35,-13 -36,-5 -38,2 -38,13 z"
   id="path78"
   inkscape:connector-curvature="0"
   style="fill:#007200;stroke:none" />
         <path
   d="m 11686,14879 203,667 -389,-552 z"
   id="path80"
   inkscape:connector-curvature="0"
   style="fill:#000000;stroke:none" />
        </g>
       </g>
      </g>
     </g>
    </g>
   </g>
  </g>
 </g>
</svg>