<?xml version="1.0" encoding="UTF-8" standalone="no"?>
<svg
   xmlns:ooo="http://xml.openoffice.org/svg/export"
   xmlns:dc="http://purl.org/dc/elements/1.1/"
   xmlns:cc="http://creativecommons.org/ns#"
   xmlns:rdf="http://www.w3.org/1999/02/22-rdf-syntax-ns#"
   xmlns:svg="http://www.w3.org/2000/svg"
   xmlns="http://www.w3.org/2000/svg"
   xmlns:sodipodi="http://sodipodi.sourceforge.net/DTD/sodipodi-0.dtd"
   xmlns:inkscape="http://www.inkscape.org/namespaces/inkscape"
   version="1.2"
   width="71.32mm"
   height="44.369999mm"
   viewBox="0 0 7132 4436.9999"
   preserveAspectRatio="xMidYMid"
   xml:space="preserve"
   id="svg671"
   sodipodi:docname="busmsg.svg"
   style="fill-rule:evenodd;stroke-width:28.22200012;stroke-linejoin:round"
   inkscape:version="0.92.5 (2060ec1f9f, 2020-04-08)"><metadata
   id="metadata675"><rdf:RDF><cc:Work
       rdf:about=""><dc:format>image/svg+xml</dc:format><dc:type
         rdf:resource="http://purl.org/dc/dcmitype/StillImage" /></cc:Work></rdf:RDF></metadata><sodipodi:namedview
   pagecolor="#ffffff"
   bordercolor="#666666"
   borderopacity="1"
   objecttolerance="10"
   gridtolerance="10"
   guidetolerance="10"
   inkscape:pageopacity="0"
   inkscape:pageshadow="2"
   inkscape:window-width="664"
   inkscape:window-height="487"
   id="namedview673"
   showgrid="false"
   inkscape:zoom="0.2102413"
   inkscape:cx="134.77795"
   inkscape:cy="83.82992"
   inkscape:window-x="0"
   inkscape:window-y="0"
   inkscape:window-maximized="0"
   inkscape:current-layer="svg671" />
 <defs
   class="ClipPathGroup"
   id="defs8">
  <clipPath
   id="presentation_clip_path"
   clipPathUnits="userSpaceOnUse">
   <rect
   x="0"
   y="0"
   width="21000"
   height="29700"
   id="rect2" />
  </clipPath>
  <clipPath
   id="presentation_clip_path_shrink"
   clipPathUnits="userSpaceOnUse">
   <rect
   x="21"
   y="29"
   width="20958"
   height="29641"
   id="rect5" />
  </clipPath>
 </defs>
 <defs
   class="TextShapeIndex"
   id="defs12">
  <g
   ooo:slide="id1"
   ooo:id-list="id3"
   id="g10" />
 </defs>
 <defs
   class="EmbeddedBulletChars"
   id="defs44">
  <g
   id="bullet-char-template-57356"
   transform="matrix(4.8828125e-4,0,0,-4.8828125e-4,0,0)">
   <path
   d="M 580,1141 1163,571 580,0 -4,571 Z"
   id="path14"
   inkscape:connector-curvature="0" />
  </g>
  <g
   id="bullet-char-template-57354"
   transform="matrix(4.8828125e-4,0,0,-4.8828125e-4,0,0)">
   <path
   d="M 8,1128 H 1137 V 0 H 8 Z"
   id="path17"
   inkscape:connector-curvature="0" />
  </g>
  <g
   id="bullet-char-template-10146"
   transform="matrix(4.8828125e-4,0,0,-4.8828125e-4,0,0)">
   <path
   d="M 174,0 602,739 174,1481 1456,739 Z M 1358,739 309,1346 659,739 Z"
   id="path20"
   inkscape:connector-curvature="0" />
  </g>
  <g
   id="bullet-char-template-10132"
   transform="matrix(4.8828125e-4,0,0,-4.8828125e-4,0,0)">
   <path
   d="M 2015,739 1276,0 H 717 l 543,543 H 174 v 393 h 1086 l -543,545 h 557 z"
   id="path23"
   inkscape:connector-curvature="0" />
  </g>
  <g
   id="bullet-char-template-10007"
   transform="matrix(4.8828125e-4,0,0,-4.8828125e-4,0,0)">
   <path
   d="m 0,-2 c -7,16 -16,29 -25,39 l 381,530 c -94,256 -141,385 -141,387 0,25 13,38 40,38 9,0 21,-2 34,-5 21,4 42,12 65,25 l 27,-13 111,-251 280,301 64,-25 24,25 c 21,-10 41,-24 62,-43 C 886,937 835,863 770,784 769,783 710,716 594,584 L 774,223 c 0,-27 -21,-55 -63,-84 l 16,-20 C 717,90 699,76 672,76 641,76 570,178 457,381 L 164,-76 c -22,-34 -53,-51 -92,-51 -42,0 -63,17 -64,51 -7,9 -10,24 -10,44 0,9 1,19 2,30 z"
   id="path26"
   inkscape:connector-curvature="0" />
  </g>
  <g
   id="bullet-char-template-10004"
   transform="matrix(4.8828125e-4,0,0,-4.8828125e-4,0,0)">
   <path
   d="M 285,-33 C 182,-33 111,30 74,156 52,228 41,333 41,471 c 0,78 14,145 41,201 34,71 87,106 158,106 53,0 88,-31 106,-94 l 23,-176 c 8,-64 28,-97 59,-98 l 735,706 c 11,11 33,17 66,17 42,0 63,-15 63,-46 V 965 c 0,-36 -10,-64 -30,-84 L 442,47 C 390,-6 338,-33 285,-33 Z"
   id="path29"
   inkscape:connector-curvature="0" />
  </g>
  <g
   id="bullet-char-template-9679"
   transform="matrix(4.8828125e-4,0,0,-4.8828125e-4,0,0)">
   <path
   d="M 813,0 C 632,0 489,54 383,161 276,268 223,411 223,592 c 0,181 53,324 160,431 106,107 249,161 430,161 179,0 323,-54 432,-161 108,-107 162,-251 162,-431 0,-180 -54,-324 -162,-431 C 1136,54 992,0 813,0 Z"
   id="path32"
   inkscape:connector-curvature="0" />
  </g>
  <g
   id="bullet-char-template-8226"
   transform="matrix(4.8828125e-4,0,0,-4.8828125e-4,0,0)">
   <path
   d="m 346,457 c -73,0 -137,26 -191,78 -54,51 -81,114 -81,188 0,73 27,136 81,188 54,52 118,78 191,78 73,0 134,-26 185,-79 51,-51 77,-114 77,-187 0,-75 -25,-137 -76,-188 -50,-52 -112,-78 -186,-78 z"
   id="path35"
   inkscape:connector-curvature="0" />
  </g>
  <g
   id="bullet-char-template-8211"
   transform="matrix(4.8828125e-4,0,0,-4.8828125e-4,0,0)">
   <path
   d="M -4,459 H 1135 V 606 H -4 Z"
   id="path38"
   inkscape:connector-curvature="0" />
  </g>
  <g
   id="bullet-char-template-61548"
   transform="matrix(4.8828125e-4,0,0,-4.8828125e-4,0,0)">
   <path
   d="m 173,740 c 0,163 58,303 173,419 116,115 255,173 419,173 163,0 302,-58 418,-173 116,-116 174,-256 174,-419 0,-163 -58,-303 -174,-418 C 1067,206 928,148 765,148 601,148 462,206 346,322 231,437 173,577 173,740 Z"
   id="path41"
   inkscape:connector-curvature="0" />
  </g>
 </defs>
 <g
   id="g49"
   transform="translate(-6934,-12631)">
  <g
   id="id2"
   class="Master_Slide">
   <g
   id="bg-id2"
   class="Background" />
   <g
   id="bo-id2"
   class="BackgroundObjects" />
  </g>
 </g>
 <g
   class="SlideGroup"
   id="g669"
   transform="translate(-6934,-12631)">
  <g
   id="g667">
   <g
   id="container-id1">
    <g
   id="id1"
   class="Slide"
   clip-path="url(#presentation_clip_path)">
     <g
   class="Page"
   id="g663">
      <g
   class="Graphic"
   id="g661">
       <g
   id="id3">
        <rect
   class="BoundingBox"
   x="6934"
   y="12631"
   width="7132"
   height="4437"
   id="rect51"
   style="fill:none;stroke:none" />
        <defs
   id="defs56">
         <clipPath
   id="clip_path_1"
   clipPathUnits="userSpaceOnUse">
          <path
   d="m 6934,12631 h 7131 v 4436 H 6934 Z"
   id="path53"
   inkscape:connector-curvature="0" />
         </clipPath>
        </defs>
        <g
   clip-path="url(#clip_path_1)"
   id="g658">
         <path
   d="m 7150,16987 -23,10 -8,20 8,21 23,10 z"
   id="path58"
   inkscape:connector-curvature="0"
   style="fill:#000000;stroke:none" />
         <path
   d="m 8710,17017 v -30 H 7150 v 61 h 1560 z"
   id="path60"
   inkscape:connector-curvature="0"
   style="fill:#000000;stroke:none" />
         <path
   d="m 8710,17048 23,-10 8,-21 -8,-20 -23,-10 z"
   id="path62"
   inkscape:connector-curvature="0"
   style="fill:#000000;stroke:none" />
         <path
   d="m 9475,16987 -23,10 -8,20 8,21 23,10 z"
   id="path64"
   inkscape:connector-curvature="0"
   style="fill:#000000;stroke:none" />
         <path
   d="m 12907,17017 v -30 H 9475 v 61 h 3432 z"
   id="path66"
   inkscape:connector-curvature="0"
   style="fill:#000000;stroke:none" />
         <path
   d="m 12907,17048 23,-10 8,-21 -8,-20 -23,-10 z"
   id="path68"
   inkscape:connector-curvature="0"
   style="fill:#000000;stroke:none" />
         <path
   d="m 13787,16987 -23,10 -8,20 8,21 23,10 z"
   id="path70"
   inkscape:connector-curvature="0"
   style="fill:#000000;stroke:none" />
         <path
   d="m 14066,17017 v -30 h -279 v 61 h 279 z"
   id="path72"
   inkscape:connector-curvature="0"
   style="fill:#000000;stroke:none" />
         <path
   d="m 14066,17048 23,-10 7,-21 -7,-20 -23,-10 z"
   id="path74"
   inkscape:connector-curvature="0"
   style="fill:#000000;stroke:none" />
         <path
   d="m 7224,16730 -11,5 -5,10 5,10 11,6 z"
   id="path76"
   inkscape:connector-curvature="0"
   style="fill:#000000;stroke:none" />
         <path
   d="m 8359,16748 v -15 l -1135,-3 v 31 l 1135,2 z"
   id="path78"
   inkscape:connector-curvature="0"
   style="fill:#000000;stroke:none" />
         <path
   d="m 8359,16763 13,-5 3,-10 -3,-10 -13,-5 z"
   id="path80"
   inkscape:connector-curvature="0"
   style="fill:#000000;stroke:none" />
         <path
   d="m 7224,16730 -11,5 -5,10 5,10 11,6 z"
   id="path82"
   inkscape:connector-curvature="0"
   style="fill:#000000;stroke:none" />
         <path
   d="m 8359,16748 v -15 l -1135,-3 v 31 l 1135,2 z"
   id="path84"
   inkscape:connector-curvature="0"
   style="fill:#000000;stroke:none" />
         <path
   d="m 8359,16763 13,-5 3,-10 -3,-10 -13,-5 z"
   id="path86"
   inkscape:connector-curvature="0"
   style="fill:#000000;stroke:none" />
         <path
   d="m 7224,16730 -11,5 -5,10 5,10 11,6 z"
   id="path88"
   inkscape:connector-curvature="0"
   style="fill:#000000;stroke:none" />
         <path
   d="m 8359,16748 v -15 l -1135,-3 v 31 l 1135,2 z"
   id="path90"
   inkscape:connector-curvature="0"
   style="fill:#000000;stroke:none" />
         <path
   d="m 8359,16763 13,-5 3,-10 -3,-10 -13,-5 z"
   id="path92"
   inkscape:connector-curvature="0"
   style="fill:#000000;stroke:none" />
         <path
   d="m 7135,16740 -66,-290 -49,-350 -33,-397 -17,-421 -6,-432 6,-422 15,-399 25,-354 10,-104 11,-99 12,-91 13,-82 13,-71 12,-63 13,-54 15,-40 31,-64 33,-58 38,-49 41,-40 40,-36 41,-30 43,-23 41,-21 38,-15 35,-10 33,-10 31,-5 23,-3 18,-2 h 10 5 5341 5 l 12,-3 h 23 28 l 33,5 38,8 41,13 46,20 43,28 46,35 45,46 41,59 41,68 33,82 30,99 23,111 48,298 49,325 48,343 43,343 41,333 33,313 20,277 10,231 8,419 -28,-18 -36,-15 -45,-18 -51,-17 -59,-13 -61,-13 -66,-10 -68,-8 -69,-2 -66,2 -66,8 -64,13 -58,20 -53,28 -43,36 -39,43 -58,99 -41,102 -28,101 -17,92 -11,78 -5,64 v 41 15 H 9632 l 8,-66 2,-71 v -69 l -7,-69 -10,-68 -18,-69 -20,-63 -28,-61 -36,-59 -38,-51 -48,-45 -54,-41 -58,-33 -69,-23 -73,-15 -84,-5 -36,2 -38,8 -41,10 -43,13 -43,18 -46,20 -43,23 -43,25 -41,26 -40,28 -36,28 -33,30 -28,28 -23,31 -18,27 -12,28 -21,133 -5,152 3,130 -5,63 H 7142 Z"
   id="path94"
   inkscape:connector-curvature="0"
   style="fill:#ffffff;stroke:none" />
         <path
   d="m 6990,13675 v 0 l -26,354 -15,399 -5,422 5,432 18,421 33,397 48,353 66,292 41,-10 -66,-287 -48,-348 -33,-397 -18,-421 -5,-432 5,-422 15,-399 26,-354 v 0 0 l -6,-15 -15,-5 -12,5 z"
   id="path96"
   inkscape:connector-curvature="0"
   style="fill:#000000;stroke:none" />
         <path
   d="m 7092,13063 v 0 l -18,43 -13,56 -13,64 -12,71 -13,81 -13,94 -10,99 -10,104 h 41 l 10,-104 10,-99 13,-89 12,-81 13,-71 13,-64 12,-51 13,-38 v 0 0 -15 l -10,-10 h -15 z"
   id="path98"
   inkscape:connector-curvature="0"
   style="fill:#000000;stroke:none" />
         <path
   d="m 7610,12684 v 0 h -5 -10 l -21,3 -23,2 -30,6 -36,10 -35,10 -41,18 -41,20 -45,23 -43,33 -41,35 -43,44 -41,50 -33,61 -30,64 35,15 31,-63 33,-56 35,-46 38,-38 41,-36 38,-28 41,-22 40,-21 36,-12 36,-11 30,-10 30,-5 23,-2 16,-3 h 10 5 v 0 0 l 15,-8 5,-12 -5,-16 z"
   id="path100"
   inkscape:connector-curvature="0"
   style="fill:#000000;stroke:none" />
         <path
   d="m 12948,12684 h 3 -5341 v 41 h 5341 2 -2 l 15,-8 5,-12 -5,-16 -15,-5 z"
   id="path102"
   inkscape:connector-curvature="0"
   style="fill:#000000;stroke:none" />
         <path
   d="m 13499,13274 v 0 l -22,-114 -31,-100 -36,-83 -40,-72 -43,-61 -49,-48 -48,-35 -43,-31 -48,-20 -44,-15 -40,-8 -36,-5 h -28 -23 l -15,2 h -5 l 5,41 h 5 l 10,-3 h 23 28 l 31,6 35,7 38,10 44,21 43,25 43,36 43,43 38,56 41,66 30,79 31,99 23,109 v 0 z"
   id="path104"
   inkscape:connector-curvature="0"
   style="fill:#000000;stroke:none" />
         <path
   d="m 13792,15739 v 0 l -11,-231 -20,-277 -33,-313 -41,-335 -43,-343 -48,-343 -48,-326 -49,-297 -40,5 48,297 48,326 49,343 43,343 40,330 33,313 21,277 10,231 v 0 z"
   id="path106"
   inkscape:connector-curvature="0"
   style="fill:#000000;stroke:none" />
         <path
   d="m 13766,16173 33,-15 -7,-419 h -41 l 8,419 33,-15 -33,15 7,15 13,3 15,-3 5,-15 z"
   id="path108"
   inkscape:connector-curvature="0"
   style="fill:#000000;stroke:none" />
         <path
   d="m 12925,16204 v 0 l 33,-38 41,-33 51,-28 56,-18 61,-13 63,-7 66,-3 69,3 66,7 66,11 61,12 56,13 51,15 43,18 35,15 23,15 26,-30 -33,-20 -36,-16 -48,-17 -51,-21 -61,-12 -61,-13 -66,-10 -71,-8 -69,-2 -66,2 -69,8 -66,12 -61,23 -55,28 -46,38 -43,49 v 0 z"
   id="path110"
   inkscape:connector-curvature="0"
   style="fill:#000000;stroke:none" />
         <path
   d="m 12747,16806 21,-20 v -15 -41 l 5,-64 10,-76 18,-91 28,-99 38,-99 58,-97 -35,-20 -59,101 -43,104 -28,105 -18,91 -10,81 -5,64 v 41 15 l 20,-20 -20,20 8,15 12,3 16,-3 5,-15 z"
   id="path112"
   inkscape:connector-curvature="0"
   style="fill:#000000;stroke:none" />
         <path
   d="m 9612,16783 20,23 h 3115 v -40 H 9632 l 21,22 -21,-22 -15,5 -2,15 2,13 15,7 z"
   id="path114"
   inkscape:connector-curvature="0"
   style="fill:#000000;stroke:none" />
         <path
   d="m 9099,15998 v 0 l 81,5 71,15 66,21 56,33 51,38 46,43 35,48 36,56 28,61 18,61 17,66 11,69 7,66 v 69 l -2,71 -8,63 41,5 7,-68 3,-71 v -69 l -8,-71 -10,-69 -18,-71 -23,-66 -28,-61 -35,-61 -41,-53 -51,-49 -56,-43 -60,-33 -72,-25 -76,-15 -86,-6 v 0 z"
   id="path116"
   inkscape:connector-curvature="0"
   style="fill:#000000;stroke:none" />
         <path
   d="m 8555,16329 v 0 l 10,-23 15,-28 23,-28 26,-26 33,-30 35,-28 38,-26 41,-25 43,-25 41,-23 46,-21 40,-15 43,-13 39,-10 38,-7 33,-3 v -41 l -38,3 -38,8 -44,10 -43,13 -46,20 -45,20 -46,23 -43,25 -41,26 -43,30 -36,28 -33,31 -30,30 -23,33 -20,28 -16,33 v 0 z"
   id="path118"
   inkscape:connector-curvature="0"
   style="fill:#000000;stroke:none" />
         <path
   d="m 8507,16822 18,-11 7,-73 -2,-130 5,-152 20,-127 -41,-11 -20,138 -5,152 3,130 -3,53 18,-10 z"
   id="path120"
   inkscape:connector-curvature="0"
   style="fill:#000000;stroke:none" />
         <path
   d="m 7122,16804 20,18 h 1365 v -41 H 7142 l 21,18 -21,-18 -15,5 -2,15 2,13 15,8 z"
   id="path122"
   inkscape:connector-curvature="0"
   style="fill:#000000;stroke:none" />
         <path
   d="m 7114,16745 v -2 l 8,61 41,-5 -8,-61 v -3 3 l -8,-13 -15,-5 -13,7 -5,16 z"
   id="path124"
   inkscape:connector-curvature="0"
   style="fill:#000000;stroke:none" />
         <path
   d="m 12313,16476 -3,-13 -5,-33 -2,-46 2,-50 10,-54 23,-43 38,-30 59,-8 58,15 43,33 28,46 18,51 8,51 2,43 v 30 13 z"
   id="path126"
   inkscape:connector-curvature="0"
   style="fill:#669999;stroke:none" />
         <path
   d="m 12435,16191 v 0 l -61,8 -43,33 -23,46 -10,56 -5,50 5,46 5,33 2,13 h 15 l -2,-13 -5,-33 v -46 -50 l 10,-51 23,-41 33,-28 56,-7 v 0 z"
   id="path128"
   inkscape:connector-curvature="0"
   style="fill:#000000;stroke:none" />
         <path
   d="m 12592,16489 8,-8 3,-13 v -30 l -6,-43 -7,-51 -18,-54 -30,-48 -46,-35 -61,-16 v 16 l 56,15 40,30 26,43 18,49 7,51 v 43 30 l 3,13 7,-8 -7,8 2,5 5,3 5,-3 3,-5 z"
   id="path130"
   inkscape:connector-curvature="0"
   style="fill:#000000;stroke:none" />
         <path
   d="m 12305,16476 8,8 279,5 v -16 l -279,-5 7,8 -7,-10 -8,2 -2,8 2,8 8,2 z"
   id="path132"
   inkscape:connector-curvature="0"
   style="fill:#000000;stroke:none" />
         <path
   d="m 12557,16417 7,-2 3,-8 -3,-7 -7,-3 z"
   id="path134"
   inkscape:connector-curvature="0"
   style="fill:#000000;stroke:none" />
         <path
   d="m 12341,16407 v 10 h 216 v -20 h -216 z"
   id="path136"
   inkscape:connector-curvature="0"
   style="fill:#000000;stroke:none" />
         <path
   d="m 12341,16397 -8,3 -2,7 2,8 8,2 z"
   id="path138"
   inkscape:connector-curvature="0"
   style="fill:#000000;stroke:none" />
         <path
   d="m 13540,13683 -15,-89 -15,-94 -18,-104 -23,-117 -3,-20 -5,-33 -5,-44 -10,-53 -10,-53 -15,-56 -21,-51 -23,-43 -30,-41 -33,-35 -36,-31 -33,-25 -35,-23 -36,-18 -35,-13 -33,-12 -33,-8 -28,-5 -28,-5 -21,-3 -20,-2 h -13 -10 -2 -5341 -5 -10 l -18,2 -23,3 -31,5 -33,10 -35,10 -38,15 -41,21 -43,23 -41,30 -40,36 -41,40 -38,49 -33,58 -31,64 -20,61 -20,83 -18,102 -15,122 -8,56 -5,56 -8,61 -5,63 z"
   id="path140"
   inkscape:connector-curvature="0"
   style="fill:#ff1900;stroke:none" />
         <path
   d="m 13456,13282 v 0 l 23,116 18,102 15,94 15,92 26,-5 -15,-87 -16,-94 -18,-107 -22,-117 v 0 z"
   id="path142"
   inkscape:connector-curvature="0"
   style="fill:#000000;stroke:none" />
         <path
   d="m 13367,12933 v 0 l 21,41 20,48 15,56 10,54 11,50 5,44 5,33 2,23 26,-6 -3,-17 -5,-33 -5,-44 -10,-55 -10,-54 -16,-56 -20,-53 -25,-46 v 0 z"
   id="path144"
   inkscape:connector-curvature="0"
   style="fill:#000000;stroke:none" />
         <path
   d="m 12951,12720 v -3 l 2,3 h 10 l 13,-3 20,3 21,2 25,6 28,5 33,7 31,13 35,13 36,17 33,21 33,25 33,31 33,33 30,40 21,-15 -31,-40 -33,-39 -38,-30 -33,-26 -38,-25 -36,-18 -35,-12 -36,-13 -33,-8 -28,-5 -30,-5 -21,-2 -20,-3 -13,-3 h -10 l -2,3 v -3 3 l -8,5 -3,8 3,7 8,5 z"
   id="path146"
   inkscape:connector-curvature="0"
   style="fill:#000000;stroke:none" />
         <path
   d="m 7610,12720 v 0 h 5341 v -31 H 7610 v 0 0 l -10,6 -5,10 5,10 z"
   id="path148"
   inkscape:connector-curvature="0"
   style="fill:#000000;stroke:none" />
         <path
   d="m 7122,13076 v 0 l 31,-64 30,-56 38,-48 41,-38 38,-36 41,-28 40,-23 41,-20 35,-15 36,-10 33,-10 28,-6 23,-2 18,-3 10,3 h 5 v -31 h -5 l -10,3 -18,3 -23,2 -33,5 -33,10 -36,10 -40,16 -41,20 -46,23 -40,33 -44,36 -40,43 -38,48 -36,61 -30,64 v 0 0 10 l 10,5 7,2 z"
   id="path150"
   inkscape:connector-curvature="0"
   style="fill:#000000;stroke:none" />
         <path
   d="m 7048,13439 v 0 l 16,-122 17,-99 21,-84 20,-58 -25,-10 -21,63 -20,84 -18,104 -15,122 v 0 0 l 5,8 8,2 7,-2 z"
   id="path152"
   inkscape:connector-curvature="0"
   style="fill:#000000;stroke:none" />
         <path
   d="m 7010,13660 13,15 5,-63 8,-61 5,-56 7,-56 h -25 l -8,56 -5,56 -7,61 -5,63 12,16 -12,-16 5,8 7,3 8,-3 5,-8 z"
   id="path154"
   inkscape:connector-curvature="0"
   style="fill:#000000;stroke:none" />
         <path
   d="m 13527,13686 13,-18 -6530,-8 v 31 l 6530,7 13,-17 -13,17 13,-5 2,-10 -2,-10 -13,-5 z"
   id="path156"
   inkscape:connector-curvature="0"
   style="fill:#000000;stroke:none" />
         <path
   d="m 6967,14758 -3,15 3,28 3,26 v 10 h 1270 l 5,2 18,5 23,13 28,20 25,28 25,36 16,46 7,58 v 155 176 l -2,144 v 59 l 831,-3 1308,5 1776,3 1469,-5 -79,-836 -1702,7 H 10036 8347 6967 Z"
   id="path158"
   inkscape:connector-curvature="0"
   style="fill:#ff1900;stroke:none" />
         <path
   d="m 6970,14822 12,15 v -10 l -2,-26 v -28 l -3,-7 -20,-16 -8,23 5,28 3,26 v 10 l 13,15 -13,-15 5,7 8,3 7,-3 5,-7 z"
   id="path160"
   inkscape:connector-curvature="0"
   style="fill:#000000;stroke:none" />
         <path
   d="m 8243,14824 -3,-2 H 6970 v 30 h 1270 l -3,-2 3,2 13,-5 2,-10 -2,-10 -13,-5 z"
   id="path162"
   inkscape:connector-curvature="0"
   style="fill:#000000;stroke:none" />
         <path
   d="m 8400,15045 v 0 l -8,-61 -15,-48 -28,-38 -25,-31 -31,-23 -25,-12 -20,-5 -5,-3 -6,26 6,2 15,5 20,13 25,18 26,25 23,33 15,43 8,56 v 0 z"
   id="path164"
   inkscape:connector-curvature="0"
   style="fill:#000000;stroke:none" />
         <path
   d="m 8385,15564 12,15 3,-59 3,-144 v -176 l -3,-155 h -25 l -3,155 v 176 l -2,144 2,59 13,15 -15,-15 5,10 10,5 10,-5 5,-10 z"
   id="path166"
   inkscape:connector-curvature="0"
   style="fill:#000000;stroke:none" />
         <path
   d="m 9216,15561 v 0 l -831,3 v 30 l 831,-2 v 0 0 l 12,-6 3,-10 -3,-10 z"
   id="path168"
   inkscape:connector-curvature="0"
   style="fill:#000000;stroke:none" />
         <path
   d="m 10524,15566 v 0 l -1308,-5 v 31 l 1308,5 v 0 0 l 13,-5 2,-11 -2,-10 z"
   id="path170"
   inkscape:connector-curvature="0"
   style="fill:#000000;stroke:none" />
         <path
   d="m 12300,15569 v 0 l -1776,-3 v 31 l 1776,2 v 0 0 l 13,-5 2,-10 -2,-10 z"
   id="path172"
   inkscape:connector-curvature="0"
   style="fill:#000000;stroke:none" />
         <path
   d="m 13756,15579 13,-15 -1469,5 v 30 l 1469,-5 12,-15 -12,15 12,-5 3,-10 -3,-10 -12,-5 z"
   id="path174"
   inkscape:connector-curvature="0"
   style="fill:#000000;stroke:none" />
         <path
   d="m 13690,14758 -13,-15 79,836 h 25 l -78,-836 -13,-15 13,15 -5,-8 -8,-5 -8,5 -5,8 z"
   id="path176"
   inkscape:connector-curvature="0"
   style="fill:#000000;stroke:none" />
         <path
   d="m 11988,14766 v 0 l 1702,-8 v -30 l -1702,7 v 0 0 l -11,5 -5,10 5,11 z"
   id="path178"
   inkscape:connector-curvature="0"
   style="fill:#000000;stroke:none" />
         <path
   d="m 10036,14766 v 0 h 1952 v -31 h -1952 v 0 0 l -10,5 -5,10 5,11 z"
   id="path180"
   inkscape:connector-curvature="0"
   style="fill:#000000;stroke:none" />
         <path
   d="m 8347,14766 v 0 h 1689 v -31 H 8347 v 0 0 l -10,5 -6,10 6,11 z"
   id="path182"
   inkscape:connector-curvature="0"
   style="fill:#000000;stroke:none" />
         <path
   d="m 6982,14750 -15,16 h 1380 v -31 H 6967 l -15,15 15,-15 -10,5 -5,10 5,11 10,5 z"
   id="path184"
   inkscape:connector-curvature="0"
   style="fill:#000000;stroke:none" />
         <path
   d="m 6977,14766 5,-8 v -8 h -30 v 8 l 5,-8 -5,8 5,10 10,5 10,-5 5,-10 z"
   id="path186"
   inkscape:connector-curvature="0"
   style="fill:#000000;stroke:none" />
         <path
   d="m 13362,12911 -35,-44 -36,-35 -36,-31 -35,-25 -36,-20 -33,-16 -33,-12 -30,-11 -31,-7 -25,-3 -23,-2 -20,-3 h -16 l -12,3 h -8 -2 -5341 -5 -10 l -18,2 -23,3 -31,5 -33,10 -35,10 -38,15 -41,21 -43,23 -41,30 -40,36 -41,40 -38,49 -33,58 -31,64 -20,61 -20,83 -18,102 -15,122 38,23 38,15 38,3 38,-10 33,-21 31,-35 22,-51 21,-69 20,-73 26,-72 33,-66 40,-58 48,-48 56,-39 64,-25 74,-8 z"
   id="path188"
   inkscape:connector-curvature="0"
   style="fill:#000000;stroke:none" />
         <path
   d="m 12951,12720 v -3 l 2,3 8,-3 12,-2 h 16 l 20,2 23,3 23,2 30,8 28,10 33,13 33,15 33,21 36,22 33,31 35,36 36,40 20,-15 -35,-46 -36,-35 -38,-31 -35,-28 -39,-20 -33,-15 -33,-13 -33,-10 -30,-8 -28,-2 -23,-3 -20,-3 h -16 l -12,3 -8,-3 -2,3 v -3 3 l -8,5 -3,8 3,7 8,5 z"
   id="path190"
   inkscape:connector-curvature="0"
   style="fill:#000000;stroke:none" />
         <path
   d="m 7610,12720 v 0 h 5341 v -31 H 7610 v 0 0 l -10,6 -5,10 5,10 z"
   id="path192"
   inkscape:connector-curvature="0"
   style="fill:#000000;stroke:none" />
         <path
   d="m 7122,13076 v 0 l 31,-64 30,-56 38,-48 41,-38 38,-36 41,-28 40,-23 41,-20 35,-15 36,-10 33,-10 28,-6 23,-2 18,-3 10,3 h 5 v -31 h -5 l -10,3 -18,3 -23,2 -33,5 -33,10 -36,10 -40,16 -41,20 -46,23 -40,33 -44,36 -40,43 -38,48 -36,61 -30,64 v 0 0 10 l 10,5 7,2 z"
   id="path194"
   inkscape:connector-curvature="0"
   style="fill:#000000;stroke:none" />
         <path
   d="m 7043,13429 5,10 16,-122 17,-99 21,-84 20,-58 -25,-10 -21,63 -20,84 -18,104 -15,122 5,10 -5,-10 5,8 8,2 7,-2 5,-8 z"
   id="path196"
   inkscape:connector-curvature="0"
   style="fill:#000000;stroke:none" />
         <path
   d="m 7282,13292 v 0 l -20,66 -23,48 -26,33 -30,18 -33,10 -36,-2 -35,-16 -36,-20 -15,20 41,26 40,15 41,2 43,-10 36,-23 35,-38 23,-53 20,-71 v 0 z"
   id="path198"
   inkscape:connector-curvature="0"
   style="fill:#000000;stroke:none" />
         <path
   d="m 7656,12890 v 0 l -77,10 -66,26 -58,40 -51,51 -43,59 -33,68 -26,74 -20,74 25,5 21,-74 25,-69 33,-63 38,-58 46,-46 53,-36 61,-25 72,-5 v 0 z"
   id="path200"
   inkscape:connector-curvature="0"
   style="fill:#000000;stroke:none" />
         <path
   d="m 13352,12918 10,-23 -5706,-5 v 31 l 5706,5 10,-23 -10,23 13,-5 2,-10 -2,-11 -13,-5 z"
   id="path202"
   inkscape:connector-curvature="0"
   style="fill:#000000;stroke:none" />
         <path
   d="m 13192,14829 -15,-15 v 1052 h 30 v -1052 l -15,-15 15,15 -5,-13 -10,-2 -10,2 -5,13 z"
   id="path204"
   inkscape:connector-curvature="0"
   style="fill:#000000;stroke:none" />
         <path
   d="m 12531,14814 -15,15 h 676 v -30 h -676 l -15,15 15,-15 -10,5 -5,10 5,10 10,5 z"
   id="path206"
   inkscape:connector-curvature="0"
   style="fill:#000000;stroke:none" />
         <path
   d="m 12516,15851 15,15 v -1052 h -30 v 1052 l 15,15 -15,-15 5,10 10,5 10,-5 5,-10 z"
   id="path208"
   inkscape:connector-curvature="0"
   style="fill:#000000;stroke:none" />
         <path
   d="m 13177,15866 15,-15 h -676 v 30 h 676 l 15,-15 -15,15 13,-5 2,-10 -2,-10 -13,-5 z"
   id="path210"
   inkscape:connector-curvature="0"
   style="fill:#000000;stroke:none" />
         <path
   d="m 13360,17068 56,-3 50,-7 51,-13 48,-15 44,-20 43,-23 38,-28 36,-33 30,-33 31,-38 22,-39 21,-43 17,-43 11,-48 7,-49 3,-48 -3,-48 -7,-48 -11,-49 -17,-43 -21,-43 -22,-41 -31,-35 -30,-36 -36,-30 -38,-28 -43,-26 -44,-20 -48,-15 -51,-13 -50,-8 -56,-2 -54,2 -53,8 -51,13 -48,15 -46,20 -43,26 -41,28 -35,30 -33,36 -31,35 -25,41 -21,43 -17,43 -13,49 -8,48 -2,48 2,48 8,49 13,48 17,43 21,43 25,39 31,38 33,33 35,33 41,28 43,23 46,20 48,15 51,13 53,7 z"
   id="path212"
   inkscape:connector-curvature="0"
   style="fill:#000000;stroke:none" />
         <path
   d="m 13360,17068 v 0 l 56,-3 50,-7 51,-13 48,-15 44,-20 43,-23 38,-28 36,-33 30,-33 31,-38 22,-39 21,-43 17,-43 11,-48 7,-49 3,-48 v 0 l -3,-48 -7,-48 -11,-49 -17,-43 -21,-43 -22,-41 -31,-35 -30,-36 -36,-30 -38,-28 -43,-26 -44,-20 -48,-15 -51,-13 -50,-8 -56,-2 v 0 l -54,2 -53,8 -51,13 -48,15 -46,20 -43,26 -41,28 -35,30 -33,36 -31,35 -25,41 -21,43 -17,43 -13,49 -8,48 -2,48 v 0 l 2,48 8,49 13,48 17,43 21,43 25,39 31,38 33,33 35,33 41,28 43,23 46,20 48,15 51,13 53,7 z"
   id="path214"
   inkscape:connector-curvature="0"
   style="fill:none;stroke:#000000" />
         <path
   d="m 9071,17038 53,-6 54,-10 48,-12 46,-18 43,-23 38,-26 35,-27 33,-34 31,-33 25,-38 23,-40 18,-44 15,-43 10,-48 5,-48 3,-49 -3,-48 -5,-48 -10,-46 -15,-43 -18,-41 -23,-38 -25,-35 -31,-33 -33,-31 -35,-25 -38,-23 -43,-21 -46,-15 -48,-10 -54,-8 -53,-2 -54,2 -53,8 -48,13 -48,15 -46,20 -41,23 -38,28 -36,33 -33,33 -28,38 -22,38 -21,44 -17,43 -11,48 -7,48 -3,49 3,50 5,49 10,46 15,45 18,43 23,41 25,38 31,36 33,30 38,28 41,26 45,20 49,15 53,10 56,6 z"
   id="path216"
   inkscape:connector-curvature="0"
   style="fill:#000000;stroke:none" />
         <path
   d="m 9071,17038 v 0 l 53,-6 54,-10 48,-12 46,-18 43,-23 38,-26 35,-27 33,-34 31,-33 25,-38 23,-40 18,-44 15,-43 10,-48 5,-48 3,-49 v 0 l -3,-48 -5,-48 -10,-46 -15,-43 -18,-41 -23,-38 -25,-35 -31,-33 -33,-31 -35,-25 -38,-23 -43,-21 -46,-15 -48,-10 -54,-8 -53,-2 v 0 l -54,2 -53,8 -48,13 -48,15 -46,20 -41,23 -38,28 -36,33 -33,33 -28,38 -22,38 -21,44 -17,43 -11,48 -7,48 -3,49 v 0 l 3,50 5,49 10,46 15,45 18,43 23,41 25,38 31,36 33,30 38,28 41,26 45,20 49,15 53,10 56,6 z"
   id="path218"
   inkscape:connector-curvature="0"
   style="fill:none;stroke:#000000" />
         <path
   d="m 13375,16882 63,-5 59,-17 56,-28 45,-36 39,-43 28,-51 20,-56 5,-58 -5,-59 -20,-56 -28,-48 -39,-43 -45,-36 -56,-28 -59,-17 -63,-6 -64,6 -58,17 -53,28 -46,36 -41,43 -28,48 -18,56 -7,59 7,58 18,56 28,51 41,43 46,36 53,28 58,17 z"
   id="path220"
   inkscape:connector-curvature="0"
   style="fill:#ff1900;stroke:none" />
         <path
   d="m 13375,16882 v 0 l 63,-5 59,-17 56,-28 45,-36 39,-43 28,-51 20,-56 5,-58 v 0 l -5,-59 -20,-56 -28,-48 -39,-43 -45,-36 -56,-28 -59,-17 -63,-6 v 0 l -64,6 -58,17 -53,28 -46,36 -41,43 -28,48 -18,56 -7,59 v 0 l 7,58 18,56 28,51 41,43 46,36 53,28 58,17 z"
   id="path222"
   inkscape:connector-curvature="0"
   style="fill:none;stroke:#000000" />
         <path
   d="m 9078,16867 64,-5 58,-18 54,-28 48,-35 38,-41 28,-51 18,-56 7,-58 -7,-58 -18,-56 -28,-49 -38,-43 -48,-35 -54,-28 -58,-18 -64,-5 -63,5 -61,18 -53,28 -46,35 -41,43 -28,49 -18,56 -7,58 7,58 18,56 28,51 41,41 46,35 53,28 61,18 z"
   id="path224"
   inkscape:connector-curvature="0"
   style="fill:#ff1900;stroke:none" />
         <path
   d="m 9078,16867 v 0 l 64,-5 58,-18 54,-28 48,-35 38,-41 28,-51 18,-56 7,-58 v 0 l -7,-58 -18,-56 -28,-49 -38,-43 -48,-35 -54,-28 -58,-18 -64,-5 v 0 l -63,5 -61,18 -53,28 -46,35 -41,43 -28,49 -18,56 -7,58 v 0 l 7,58 18,56 28,51 41,41 46,35 53,28 61,18 z"
   id="path226"
   inkscape:connector-curvature="0"
   style="fill:none;stroke:#000000" />
         <path
   d="m 13372,16814 49,-5 43,-13 40,-20 36,-28 28,-31 23,-38 13,-40 5,-46 -5,-43 -13,-41 -23,-38 -28,-33 -36,-26 -40,-20 -43,-13 -49,-5 -48,5 -43,13 -41,20 -35,26 -28,33 -23,38 -13,41 -5,43 5,46 13,40 23,38 28,31 35,28 41,20 43,13 z"
   id="path228"
   inkscape:connector-curvature="0"
   style="fill:#c1d6d6;stroke:none" />
         <path
   d="m 13372,16814 v 0 l 49,-5 43,-13 40,-20 36,-28 28,-31 23,-38 13,-40 5,-46 v 0 l -5,-43 -13,-41 -23,-38 -28,-33 -36,-26 -40,-20 -43,-13 -49,-5 v 0 l -48,5 -43,13 -41,20 -35,26 -28,33 -23,38 -13,41 -5,43 v 0 l 5,46 13,40 23,38 28,31 35,28 41,20 43,13 z"
   id="path230"
   inkscape:connector-curvature="0"
   style="fill:none;stroke:#000000" />
         <path
   d="m 9071,16788 48,-5 43,-12 41,-21 35,-25 28,-33 23,-36 13,-43 5,-43 -5,-43 -13,-43 -23,-36 -28,-33 -35,-26 -41,-20 -43,-13 -48,-5 -48,5 -44,13 -40,20 -36,26 -28,33 -23,36 -12,43 -5,43 5,43 12,43 23,36 28,33 36,25 40,21 44,12 z"
   id="path232"
   inkscape:connector-curvature="0"
   style="fill:#c1d6d6;stroke:none" />
         <path
   d="m 9071,16788 v 0 l 48,-5 43,-12 41,-21 35,-25 28,-33 23,-36 13,-43 5,-43 v 0 l -5,-43 -13,-43 -23,-36 -28,-33 -35,-26 -41,-20 -43,-13 -48,-5 v 0 l -48,5 -44,13 -40,20 -36,26 -28,33 -23,36 -12,43 -5,43 v 0 l 5,43 12,43 23,36 28,33 36,25 40,21 44,12 z"
   id="path234"
   inkscape:connector-curvature="0"
   style="fill:none;stroke:#000000" />
         <path
   d="m 13355,16712 28,-2 22,-8 23,-10 21,-15 15,-18 13,-20 7,-23 3,-26 -3,-25 -7,-20 -13,-23 -15,-18 -21,-15 -23,-11 -22,-7 -28,-3 -26,3 -25,7 -21,11 -20,15 -15,18 -13,23 -7,20 -3,25 3,26 7,23 13,20 15,18 20,15 21,10 25,8 z"
   id="path236"
   inkscape:connector-curvature="0"
   style="fill:#000000;stroke:none" />
         <path
   d="m 13355,16712 v 0 l 28,-2 22,-8 23,-10 21,-15 15,-18 13,-20 7,-23 3,-26 v 0 l -3,-25 -7,-20 -13,-23 -15,-18 -21,-15 -23,-11 -22,-7 -28,-3 v 0 l -26,3 -25,7 -21,11 -20,15 -15,18 -13,23 -7,20 -3,25 v 0 l 3,26 7,23 13,20 15,18 20,15 21,10 25,8 z"
   id="path238"
   inkscape:connector-curvature="0"
   style="fill:none;stroke:#000000" />
         <path
   d="m 9058,16692 26,-3 25,-7 20,-10 21,-16 15,-17 13,-21 7,-23 3,-25 -3,-25 -7,-21 -13,-23 -15,-17 -21,-16 -20,-10 -25,-8 -26,-2 -28,2 -23,8 -23,10 -20,16 -15,17 -13,23 -7,21 -3,25 3,25 7,23 13,21 15,17 20,16 23,10 23,7 z"
   id="path240"
   inkscape:connector-curvature="0"
   style="fill:#000000;stroke:none" />
         <path
   d="m 9058,16692 v 0 l 26,-3 25,-7 20,-10 21,-16 15,-17 13,-21 7,-23 3,-25 v 0 l -3,-25 -7,-21 -13,-23 -15,-17 -21,-16 -20,-10 -25,-8 -26,-2 v 0 l -28,2 -23,8 -23,10 -20,16 -15,17 -13,23 -7,21 -3,25 v 0 l 3,25 7,23 13,21 15,17 20,16 23,10 23,7 z"
   id="path242"
   inkscape:connector-curvature="0"
   style="fill:none;stroke:#000000" />
         <path
   d="m 13779,16100 v 282 l 71,279 -5,-2 h 10 18 23 l 25,-5 23,-10 15,-18 5,-26 v -945 h -40 l -8,-69 h -86 l -8,61 -48,-12 z"
   id="path244"
   inkscape:connector-curvature="0"
   style="fill:#84adad;stroke:none" />
         <path
   d="m 13789,16379 v 3 -282 h -20 v 282 2 -2 l 2,7 8,3 8,-3 2,-7 z"
   id="path246"
   inkscape:connector-curvature="0"
   style="fill:#000000;stroke:none" />
         <path
   d="m 13847,16672 13,-13 -71,-280 -20,5 71,280 13,-13 -13,13 5,5 8,3 5,-6 2,-7 z"
   id="path248"
   inkscape:connector-curvature="0"
   style="fill:#000000;stroke:none" />
         <path
   d="m 13954,16600 v 0 l -5,23 -10,13 -20,8 -23,5 h -23 -18 l -13,2 5,21 6,-21 -6,15 8,3 h 18 23 l 28,-5 25,-13 20,-23 6,-28 v 0 z"
   id="path250"
   inkscape:connector-curvature="0"
   style="fill:#000000;stroke:none" />
         <path
   d="m 13964,15665 -10,-10 v 945 h 21 v -945 l -11,-10 11,10 -3,-8 -8,-2 -7,2 -3,8 z"
   id="path252"
   inkscape:connector-curvature="0"
   style="fill:#000000;stroke:none" />
         <path
   d="m 13914,15655 10,10 h 40 v -20 h -40 l 10,10 -10,-10 -8,2 -2,8 2,8 8,2 z"
   id="path254"
   inkscape:connector-curvature="0"
   style="fill:#000000;stroke:none" />
         <path
   d="m 13916,15597 -10,-11 8,69 h 20 l -8,-69 -10,-10 10,10 -2,-7 -8,-3 -8,3 -2,7 z"
   id="path256"
   inkscape:connector-curvature="0"
   style="fill:#000000;stroke:none" />
         <path
   d="m 13840,15586 -10,11 h 86 v -21 h -86 l -10,10 10,-10 -8,3 -2,7 2,8 8,3 z"
   id="path258"
   inkscape:connector-curvature="0"
   style="fill:#000000;stroke:none" />
         <path
   d="m 13820,15658 12,-11 8,-61 h -20 l -8,61 13,-10 -13,10 2,8 8,3 8,-3 2,-8 z"
   id="path260"
   inkscape:connector-curvature="0"
   style="fill:#000000;stroke:none" />
         <path
   d="m 13784,15635 -13,10 49,13 5,-21 -49,-12 -12,10 12,-10 -7,2 -5,5 2,8 5,5 z"
   id="path262"
   inkscape:connector-curvature="0"
   style="fill:#000000;stroke:none" />
         <path
   d="m 13789,16100 v 0 l -5,-465 h -20 l 5,465 v 0 0 l 2,7 8,3 8,-3 z"
   id="path264"
   inkscape:connector-curvature="0"
   style="fill:#000000;stroke:none" />
         <path
   d="m 12846,16694 -7,74 -21,56 -25,41 -30,23 -31,7 -30,-2 -26,-16 -18,-22 H 9665 l -53,22 h -36 l -25,-17 -13,-26 -5,-30 -2,-31 2,-23 v -7 l 10,-69 5,-66 v -63 l -5,-61 -7,-59 -13,-56 -20,-51 -23,-48 -28,-43 -36,-38 -38,-36 -45,-28 -51,-25 -59,-18 -63,-10 -69,-5 -79,2 -73,13 -66,20 -59,28 -53,33 -46,38 -41,44 -35,48 -28,51 -23,53 -15,53 -10,56 -5,54 2,53 8,53 12,49 3,63 -8,46 -20,33 -25,20 -28,5 -26,-2 -20,-15 -13,-23 H 7137 l -33,-15 -15,-33 10,-33 38,-16 h 1255 33 l -10,-94 v -89 l 8,-86 15,-81 23,-77 28,-71 36,-66 43,-58 45,-56 54,-46 56,-43 61,-33 63,-28 69,-21 71,-10 71,-5 97,5 89,16 78,22 74,31 64,38 55,46 51,53 41,56 35,64 26,68 20,71 15,74 8,79 v 79 l -5,81 -13,81 2973,3 5,-148 15,-129 26,-112 38,-99 51,-84 63,-74 79,-63 94,-59 48,-15 51,-13 51,-10 51,-5 h 53 51 l 53,5 51,5 51,10 51,13 48,13 48,15 46,18 43,20 41,21 38,22 35,31 34,38 22,46 13,43 -2,38 -18,28 -38,10 -61,-10 -28,-28 -31,-25 -30,-26 -33,-20 -36,-20 -35,-18 -36,-13 -38,-13 -38,-10 -38,-7 -41,-5 -41,-3 h -40 l -41,3 -41,5 -40,7 -107,33 -84,51 -66,66 -51,76 -33,82 -17,86 -8,87 z"
   id="path266"
   inkscape:connector-curvature="0"
   style="fill:#ff1900;stroke:none" />
         <path
   d="m 12658,16870 -12,-10 23,28 30,17 33,3 36,-8 35,-28 28,-43 21,-58 7,-77 h -25 l -8,72 -20,53 -23,38 -26,18 -25,7 -28,-2 -20,-13 -13,-18 -13,-10 13,10 -8,-7 h -7 l -10,7 v 11 z"
   id="path268"
   inkscape:connector-curvature="0"
   style="fill:#000000;stroke:none" />
         <path
   d="m 9673,16867 -8,3 h 2993 v -31 H 9665 l -7,3 7,-3 -10,5 -5,11 5,10 10,5 z"
   id="path270"
   inkscape:connector-curvature="0"
   style="fill:#000000;stroke:none" />
         <path
   d="m 9521,16743 v 0 7 l -6,23 6,31 5,33 15,30 33,23 h 41 l 58,-23 -15,-25 -49,23 h -30 l -18,-13 -10,-20 -5,-28 v -31 -23 -7 0 0 l -5,-8 -8,-5 -7,5 z"
   id="path272"
   inkscape:connector-curvature="0"
   style="fill:#000000;stroke:none" />
         <path
   d="m 9091,16079 v 0 l 69,6 61,10 56,17 50,26 44,25 35,36 36,35 25,41 23,48 20,49 13,56 8,56 5,61 v 63 l -5,66 -10,69 h 25 l 10,-69 5,-66 v -63 l -5,-61 -8,-61 -12,-56 -21,-54 -22,-48 -31,-46 -35,-40 -41,-36 -48,-31 -51,-25 -61,-18 -66,-10 -69,-5 v 0 z"
   id="path274"
   inkscape:connector-curvature="0"
   style="fill:#000000;stroke:none" />
         <path
   d="m 8593,16715 v -3 l -13,-48 -7,-51 v -53 l 2,-54 11,-53 15,-51 23,-53 28,-48 33,-49 40,-40 43,-39 51,-30 59,-28 63,-20 71,-13 79,-3 v -25 l -79,3 -76,12 -68,21 -59,28 -56,35 -48,38 -41,46 -38,48 -28,54 -23,53 -15,56 -10,58 -8,54 5,53 8,56 13,48 v -2 2 l 5,8 h 10 l 8,-3 2,-10 z"
   id="path276"
   inkscape:connector-curvature="0"
   style="fill:#000000;stroke:none" />
         <path
   d="m 8443,16857 -12,-13 15,28 25,21 31,5 33,-8 30,-25 23,-38 8,-49 -3,-63 h -25 l 2,63 -7,44 -18,27 -20,16 -23,2 h -21 l -15,-10 -10,-18 -13,-12 13,12 -5,-7 -10,-3 -8,5 -2,10 z"
   id="path278"
   inkscape:connector-curvature="0"
   style="fill:#000000;stroke:none" />
         <path
   d="m 7137,16857 v 0 h 1306 v -30 H 7137 v 0 0 l -10,5 -5,10 5,10 z"
   id="path280"
   inkscape:connector-curvature="0"
   style="fill:#000000;stroke:none" />
         <path
   d="m 7137,16730 v 3 l -48,17 -13,44 18,43 43,20 v -30 l -23,-11 -12,-22 7,-23 28,-13 v 3 z"
   id="path282"
   inkscape:connector-curvature="0"
   style="fill:#000000;stroke:none" />
         <path
   d="m 8392,16730 v 0 H 7137 v 31 h 1255 v 0 0 l 13,-6 3,-10 -3,-10 z"
   id="path284"
   inkscape:connector-curvature="0"
   style="fill:#000000;stroke:none" />
         <path
   d="m 8413,16745 12,-15 h -33 v 31 h 33 l 13,-16 -13,16 13,-6 3,-10 -3,-10 -13,-5 z"
   id="path286"
   inkscape:connector-curvature="0"
   style="fill:#000000;stroke:none" />
         <path
   d="m 9058,15866 v 0 l -71,8 -74,10 -71,20 -63,28 -64,33 -56,46 -56,46 -45,58 -46,58 -36,69 -28,74 -23,76 -15,84 -7,86 v 89 l 10,94 h 25 l -10,-94 v -89 l 8,-86 15,-79 23,-76 28,-69 35,-63 41,-59 46,-53 50,-46 56,-40 59,-34 63,-27 66,-21 69,-10 71,-3 v 0 z"
   id="path288"
   inkscape:connector-curvature="0"
   style="fill:#000000;stroke:none" />
         <path
   d="m 9693,16730 13,18 13,-84 5,-81 v -79 l -8,-79 -15,-76 -20,-71 -26,-71 -35,-67 -44,-55 -50,-56 -59,-46 -66,-41 -76,-30 -79,-23 -91,-15 -97,-8 v 30 l 97,3 86,15 79,23 71,31 61,35 53,46 51,51 38,56 36,61 25,66 21,71 15,71 7,79 v 79 l -5,81 -12,79 12,18 z"
   id="path290"
   inkscape:connector-curvature="0"
   style="fill:#000000;stroke:none" />
         <path
   d="m 12651,16748 15,-15 -2973,-3 v 31 l 2973,2 15,-15 -15,15 13,-5 2,-10 -2,-10 -13,-5 z"
   id="path292"
   inkscape:connector-curvature="0"
   style="fill:#000000;stroke:none" />
         <path
   d="m 13032,15968 v 0 l -97,61 -81,63 -63,76 -54,87 -38,101 -25,115 -16,129 -7,148 h 30 l 3,-148 15,-129 25,-109 39,-97 48,-81 63,-72 77,-63 91,-56 v 0 0 l 8,-8 v -10 l -8,-7 z"
   id="path294"
   inkscape:connector-curvature="0"
   style="fill:#000000;stroke:none" />
         <path
   d="m 13820,16067 v 0 l -41,-23 -41,-20 -43,-21 -48,-18 -49,-15 -48,-13 -51,-12 -53,-10 -51,-5 -53,-6 -51,-2 -53,2 -51,6 -53,10 -51,12 -51,16 10,25 46,-15 51,-13 48,-10 51,-5 53,2 51,-2 53,5 51,5 48,10 51,13 48,13 49,15 43,18 43,20 41,20 35,23 v 0 z"
   id="path296"
   inkscape:connector-curvature="0"
   style="fill:#000000;stroke:none" />
         <path
   d="m 13787,16313 7,3 64,13 45,-16 23,-35 3,-41 -13,-48 -25,-49 -33,-40 -38,-33 -16,25 33,28 33,36 21,43 12,38 -2,36 -13,20 -30,5 -59,-8 8,3 -8,-3 -10,3 -2,8 v 10 l 7,5 z"
   id="path298"
   inkscape:connector-curvature="0"
   style="fill:#000000;stroke:none" />
         <path
   d="m 13212,16143 v 0 l 38,-8 41,-5 h 41 40 41 l 41,5 35,8 38,10 38,13 33,13 36,17 33,21 33,17 31,26 28,25 28,28 20,-20 -28,-28 -33,-25 -31,-26 -33,-23 -38,-20 -35,-18 -38,-13 -39,-12 -38,-10 -40,-8 -41,-5 -41,-5 h -40 l -41,5 -41,5 -43,8 v 0 z"
   id="path300"
   inkscape:connector-curvature="0"
   style="fill:#000000;stroke:none" />
         <path
   d="m 12859,16694 v 0 -83 l 5,-87 18,-84 33,-78 48,-74 64,-64 81,-48 104,-33 -5,-25 -109,33 -86,53 -69,69 -53,78 -33,84 -18,89 -10,87 5,83 v 0 0 l 5,8 7,3 8,-3 z"
   id="path302"
   inkscape:connector-curvature="0"
   style="fill:#000000;stroke:none" />
         <path
   d="m 7097,14842 h 1148 l 18,10 20,10 20,15 23,16 18,23 18,30 13,36 10,45 -23,1718 H 7231 l -15,-89 -15,-89 -10,-83 -8,-84 -8,-82 -7,-76 -10,-76 -8,-74 -18,-145 -7,-122 -8,-142 -10,-208 -10,-242 -3,-203 3,-137 z"
   id="path304"
   inkscape:connector-curvature="0"
   style="fill:#669999;stroke:none" />
         <path
   d="m 8250,14829 -5,-2 H 7097 v 30 h 1148 l -5,-2 5,2 13,-5 2,-10 -2,-10 -13,-5 z"
   id="path306"
   inkscape:connector-curvature="0"
   style="fill:#000000;stroke:none" />
         <path
   d="m 8397,15027 v 0 l -10,-48 -12,-38 -21,-33 -17,-25 -26,-16 -20,-17 -23,-11 -18,-10 -10,26 18,10 18,10 20,13 20,15 18,20 15,28 13,33 10,43 v 0 z"
   id="path308"
   inkscape:connector-curvature="0"
   style="fill:#000000;stroke:none" />
         <path
   d="m 8362,16761 13,-16 22,-1718 h -25 l -23,1718 13,-15 -13,15 5,8 8,2 8,-2 5,-8 z"
   id="path310"
   inkscape:connector-curvature="0"
   style="fill:#000000;stroke:none" />
         <path
   d="m 7219,16748 12,13 h 1131 v -31 H 7231 l 13,13 -13,-13 -10,5 -5,10 5,10 10,6 z"
   id="path312"
   inkscape:connector-curvature="0"
   style="fill:#000000;stroke:none" />
         <path
   d="m 7137,16092 v 0 l 8,74 10,76 8,76 7,82 8,84 10,83 15,92 16,89 25,-5 -15,-89 -16,-87 -10,-83 -7,-84 -8,-82 -8,-76 -10,-76 -7,-74 v 0 z"
   id="path314"
   inkscape:connector-curvature="0"
   style="fill:#000000;stroke:none" />
         <path
   d="m 7094,15475 v 0 l 10,208 8,142 7,122 18,145 h 26 l -18,-145 -8,-122 -7,-142 -11,-208 v 0 z"
   id="path316"
   inkscape:connector-curvature="0"
   style="fill:#000000;stroke:none" />
         <path
   d="m 7097,14827 -13,15 -3,51 -2,137 5,203 10,242 h 25 l -10,-242 v -203 l 3,-137 -3,-51 -12,15 12,-15 -5,-8 -7,-5 -8,5 -5,8 z"
   id="path318"
   inkscape:connector-curvature="0"
   style="fill:#000000;stroke:none" />
         <path
   d="m 7224,15719 h 165 v -244 h 244 v -232 l 71,-2 13,1504 h -483 l -51,-322 -28,-280 -20,-203 86,-3 3,-218 h 165 z"
   id="path320"
   inkscape:connector-curvature="0"
   style="fill:#0a5b5b;stroke:none" />
         <path
   d="m 7224,15708 -8,3 -3,8 3,7 8,3 z"
   id="path322"
   inkscape:connector-curvature="0"
   style="fill:#000000;stroke:none" />
         <path
   d="m 7379,15719 10,-11 h -165 v 21 h 165 l 10,-10 -10,10 7,-3 3,-7 -3,-8 -7,-3 z"
   id="path324"
   inkscape:connector-curvature="0"
   style="fill:#000000;stroke:none" />
         <path
   d="m 7389,15464 -10,11 v 244 h 20 v -244 l -10,10 10,-10 -3,-8 -7,-3 -8,3 -2,8 z"
   id="path326"
   inkscape:connector-curvature="0"
   style="fill:#000000;stroke:none" />
         <path
   d="m 7623,15475 10,-11 h -244 v 21 h 244 l 10,-10 -10,10 7,-3 3,-7 -3,-8 -7,-3 z"
   id="path328"
   inkscape:connector-curvature="0"
   style="fill:#000000;stroke:none" />
         <path
   d="m 7633,15233 -10,10 v 232 h 20 v -232 l -10,11 10,-11 -3,-7 -7,-3 -8,3 -2,7 z"
   id="path330"
   inkscape:connector-curvature="0"
   style="fill:#000000;stroke:none" />
         <path
   d="m 7714,15241 -10,-10 -71,2 v 21 l 71,-3 -10,-10 10,10 7,-3 3,-7 -3,-8 -7,-2 z"
   id="path332"
   inkscape:connector-curvature="0"
   style="fill:#000000;stroke:none" />
         <path
   d="m 7717,16755 10,-10 -13,-1504 h -20 l 12,1504 11,-10 -11,10 3,8 8,2 7,-2 3,-8 z"
   id="path334"
   inkscape:connector-curvature="0"
   style="fill:#000000;stroke:none" />
         <path
   d="m 7224,16745 10,10 h 483 v -20 h -483 l 10,10 -10,-10 -8,3 -2,7 2,8 8,2 z"
   id="path336"
   inkscape:connector-curvature="0"
   style="fill:#000000;stroke:none" />
         <path
   d="m 7173,16423 v 0 l 51,322 h 20 l -51,-322 v 0 0 l -2,-8 -8,-3 -8,3 z"
   id="path338"
   inkscape:connector-curvature="0"
   style="fill:#000000;stroke:none" />
         <path
   d="m 7145,16143 v 0 l 28,280 h 20 l -28,-280 v 0 0 l -2,-8 -8,-2 -8,2 z"
   id="path340"
   inkscape:connector-curvature="0"
   style="fill:#000000;stroke:none" />
         <path
   d="m 7135,15930 -10,10 20,203 h 20 l -20,-203 -10,10 10,-10 -3,-8 -7,-2 -8,2 -2,8 z"
   id="path342"
   inkscape:connector-curvature="0"
   style="fill:#000000;stroke:none" />
         <path
   d="m 7211,15937 10,-10 -86,3 v 20 l 86,-3 10,-10 -10,10 8,-2 2,-8 -2,-7 -8,-3 z"
   id="path344"
   inkscape:connector-curvature="0"
   style="fill:#000000;stroke:none" />
         <path
   d="m 7224,15708 -11,11 -2,218 h 20 l 3,-218 -10,10 10,-10 -3,-8 -7,-3 -8,3 -3,8 z"
   id="path346"
   inkscape:connector-curvature="0"
   style="fill:#000000;stroke:none" />
         <path
   d="m 7389,15719 v -11 h -165 v 21 h 165 z"
   id="path348"
   inkscape:connector-curvature="0"
   style="fill:#000000;stroke:none" />
         <path
   d="m 7389,15729 7,-3 3,-7 -3,-8 -7,-3 z"
   id="path350"
   inkscape:connector-curvature="0"
   style="fill:#000000;stroke:none" />
         <path
   d="m 8387,15510 5,-5 -2,-7 -5,-3 h -8 z"
   id="path352"
   inkscape:connector-curvature="0"
   style="fill:#000000;stroke:none" />
         <path
   d="m 7793,15988 5,8 589,-486 -10,-15 -589,485 z"
   id="path354"
   inkscape:connector-curvature="0"
   style="fill:#000000;stroke:none" />
         <path
   d="m 7788,15980 -5,5 2,6 5,5 h 8 z"
   id="path356"
   inkscape:connector-curvature="0"
   style="fill:#000000;stroke:none" />
         <path
   d="m 7633,15213 -23,10 -8,20 8,21 23,10 z"
   id="path358"
   inkscape:connector-curvature="0"
   style="fill:#000000;stroke:none" />
         <path
   d="m 7694,15243 v -30 h -61 v 61 h 61 z"
   id="path360"
   inkscape:connector-curvature="0"
   style="fill:#000000;stroke:none" />
         <path
   d="m 7694,15274 23,-10 7,-21 -7,-20 -23,-10 z"
   id="path362"
   inkscape:connector-curvature="0"
   style="fill:#000000;stroke:none" />
         <path
   d="m 7389,15444 -23,10 -8,21 8,20 23,10 z"
   id="path364"
   inkscape:connector-curvature="0"
   style="fill:#000000;stroke:none" />
         <path
   d="m 7696,15480 v -31 l -307,-5 v 61 l 307,5 z"
   id="path366"
   inkscape:connector-curvature="0"
   style="fill:#000000;stroke:none" />
         <path
   d="m 7696,15510 23,-10 8,-20 -8,-21 -23,-10 z"
   id="path368"
   inkscape:connector-curvature="0"
   style="fill:#000000;stroke:none" />
         <path
   d="m 7224,15688 -23,10 -8,21 8,20 23,10 z"
   id="path370"
   inkscape:connector-curvature="0"
   style="fill:#000000;stroke:none" />
         <path
   d="m 7691,15719 v -31 h -467 v 61 h 467 z"
   id="path372"
   inkscape:connector-curvature="0"
   style="fill:#000000;stroke:none" />
         <path
   d="m 7691,15749 23,-10 8,-20 -8,-21 -23,-10 z"
   id="path374"
   inkscape:connector-curvature="0"
   style="fill:#000000;stroke:none" />
         <path
   d="m 7153,15909 -23,10 -8,21 8,20 23,10 z"
   id="path376"
   inkscape:connector-curvature="0"
   style="fill:#000000;stroke:none" />
         <path
   d="m 7701,15940 v -31 h -548 v 61 h 548 z"
   id="path378"
   inkscape:connector-curvature="0"
   style="fill:#000000;stroke:none" />
         <path
   d="m 7701,15970 23,-10 8,-20 -8,-21 -23,-10 z"
   id="path380"
   inkscape:connector-curvature="0"
   style="fill:#000000;stroke:none" />
         <path
   d="m 7178,16171 -23,10 -8,20 8,21 23,10 z"
   id="path382"
   inkscape:connector-curvature="0"
   style="fill:#000000;stroke:none" />
         <path
   d="m 7699,16201 v -30 h -521 v 61 h 521 z"
   id="path384"
   inkscape:connector-curvature="0"
   style="fill:#000000;stroke:none" />
         <path
   d="m 7699,16232 23,-10 7,-21 -7,-20 -23,-10 z"
   id="path386"
   inkscape:connector-curvature="0"
   style="fill:#000000;stroke:none" />
         <path
   d="m 7203,16428 -23,10 -7,20 7,20 23,11 z"
   id="path388"
   inkscape:connector-curvature="0"
   style="fill:#000000;stroke:none" />
         <path
   d="m 7699,16458 v -30 h -496 v 61 h 496 z"
   id="path390"
   inkscape:connector-curvature="0"
   style="fill:#000000;stroke:none" />
         <path
   d="m 7699,16489 23,-11 7,-20 -7,-20 -23,-10 z"
   id="path392"
   inkscape:connector-curvature="0"
   style="fill:#000000;stroke:none" />
         <path
   d="m 7699,15048 226,-198 h 107 l -247,218 18,1677 h -86 z"
   id="path394"
   inkscape:connector-curvature="0"
   style="fill:#ffffff;stroke:none" />
         <path
   d="m 7925,14834 -8,5 -226,199 15,20 227,-198 -8,5 8,-5 5,-10 -3,-8 -8,-5 -10,2 z"
   id="path396"
   inkscape:connector-curvature="0"
   style="fill:#000000;stroke:none" />
         <path
   d="m 8039,14860 -7,-26 h -107 v 31 h 107 l -8,-26 8,26 12,-5 3,-10 -3,-11 -12,-5 z"
   id="path398"
   inkscape:connector-curvature="0"
   style="fill:#000000;stroke:none" />
         <path
   d="m 7800,15068 -7,10 246,-218 -15,-21 -246,219 -8,10 8,-10 -6,8 3,10 8,5 10,-3 z"
   id="path400"
   inkscape:connector-curvature="0"
   style="fill:#000000;stroke:none" />
         <path
   d="m 7803,16761 15,-16 -18,-1677 h -30 l 18,1677 15,-15 -13,15 5,8 8,2 8,-2 5,-8 z"
   id="path402"
   inkscape:connector-curvature="0"
   style="fill:#000000;stroke:none" />
         <path
   d="m 7701,16745 16,16 h 86 v -31 h -86 l 15,15 -15,-15 -11,5 -5,10 5,10 11,6 z"
   id="path404"
   inkscape:connector-curvature="0"
   style="fill:#000000;stroke:none" />
         <path
   d="m 7691,15038 -7,10 17,1697 h 31 l -18,-1697 -8,10 5,-10 -5,-8 -7,-5 -8,5 -5,8 z"
   id="path406"
   inkscape:connector-curvature="0"
   style="fill:#000000;stroke:none" />
         <path
   d="m 13436,13561 v 0 h 2 v 0 3 z"
   id="path408"
   inkscape:connector-curvature="0"
   style="fill:#191919;stroke:none" />
         <path
   d="m 13436,13561 v 0 h 2 v 0 3 z"
   id="path410"
   inkscape:connector-curvature="0"
   style="fill:#191919;stroke:none" />
         <path
   d="m 7109,14855 -5,-8 -7,-5 -8,5 -5,8 z"
   id="path412"
   inkscape:connector-curvature="0"
   style="fill:#000000;stroke:none" />
         <path
   d="m 7247,16740 -28,-185 -28,-214 -26,-236 -23,-249 -17,-257 -11,-256 -5,-252 v -236 h -25 l -5,236 10,252 10,256 18,257 23,249 25,236 28,214 28,190 z"
   id="path414"
   inkscape:connector-curvature="0"
   style="fill:#000000;stroke:none" />
         <path
   d="m 7221,16745 5,8 h 10 l 8,-3 3,-10 z"
   id="path416"
   inkscape:connector-curvature="0"
   style="fill:#000000;stroke:none" />
         <path
   d="m 13057,15503 h -310 -10 l -23,-3 -33,-5 -35,-13 -36,-20 -30,-31 -16,-45 v -59 -244 -10 -23 l 5,-33 13,-35 26,-36 38,-30 61,-18 81,-3 h 269 3 l 10,3 15,5 15,7 13,18 13,26 5,35 v 46 l 3,366 v 5 l 2,13 v 18 l -2,20 -6,20 -15,15 -23,11 z"
   id="path418"
   inkscape:connector-curvature="0"
   style="fill:#c1d6d6;stroke:none" />
         <path
   d="m 12747,15513 v 0 h 310 v -21 h -310 v 0 0 l -7,3 -3,8 3,7 z"
   id="path420"
   inkscape:connector-curvature="0"
   style="fill:#000000;stroke:none" />
         <path
   d="m 12554,15327 v 0 59 l 18,51 33,33 38,22 36,13 35,5 23,3 h 10 v -21 h -10 l -23,-2 -30,-5 -36,-13 -33,-18 -28,-28 -12,-40 v -59 0 z"
   id="path422"
   inkscape:connector-curvature="0"
   style="fill:#000000;stroke:none" />
         <path
   d="m 12554,15083 v 0 244 h 21 v -244 0 0 l -3,-7 -8,-3 -7,3 z"
   id="path424"
   inkscape:connector-curvature="0"
   style="fill:#000000;stroke:none" />
         <path
   d="m 12788,14885 v 0 l -81,3 -64,17 -43,33 -25,39 -16,38 -5,35 v 23 10 h 21 v -10 -23 l 5,-30 10,-33 25,-33 33,-28 59,-18 81,-3 v 0 z"
   id="path426"
   inkscape:connector-curvature="0"
   style="fill:#000000;stroke:none" />
         <path
   d="m 13057,14885 v 0 h -269 v 20 h 269 v 0 0 l 8,-2 2,-8 -2,-7 z"
   id="path428"
   inkscape:connector-curvature="0"
   style="fill:#000000;stroke:none" />
         <path
   d="m 13141,15035 v 0 -46 l -5,-38 -15,-28 -13,-20 -20,-10 -15,-5 -13,-3 h -3 v 20 h 3 l 7,3 16,5 10,5 13,15 10,23 5,33 v 46 0 z"
   id="path430"
   inkscape:connector-curvature="0"
   style="fill:#000000;stroke:none" />
         <path
   d="m 13144,15398 v 3 l -3,-366 h -20 l 2,366 v 2 -2 l 3,8 8,2 7,-2 3,-8 z"
   id="path432"
   inkscape:connector-curvature="0"
   style="fill:#000000;stroke:none" />
         <path
   d="m 13057,15513 v 0 h 33 l 28,-13 18,-18 8,-25 2,-20 v -18 l -2,-13 v -8 l -21,5 v 3 l 3,13 v 18 l -3,20 -2,15 -13,13 -18,7 h -33 v 0 z"
   id="path434"
   inkscape:connector-curvature="0"
   style="fill:#000000;stroke:none" />
         <path
   d="m 13393,13002 15,23 20,66 23,91 23,110 23,114 20,102 13,81 8,46 -31,-8 -23,-20 -20,-31 -15,-38 -11,-46 -10,-45 -7,-49 -8,-43 -18,-112 -15,-116 -3,-92 z"
   id="path436"
   inkscape:connector-curvature="0"
   style="fill:#c1d6d6;stroke:none" />
         <path
   d="m 13538,13645 10,-10 -8,-46 -13,-81 -20,-102 -23,-114 -23,-110 -23,-94 -20,-66 -25,-30 v 20 l 5,15 20,67 23,88 23,110 23,114 20,102 13,81 7,46 11,-10 -11,10 3,7 8,3 7,-3 3,-7 z"
   id="path438"
   inkscape:connector-curvature="0"
   style="fill:#000000;stroke:none" />
         <path
   d="m 13403,13355 v 0 l 7,43 8,49 10,45 10,49 18,40 21,31 25,23 36,10 v -20 l -26,-5 -20,-18 -21,-31 -12,-35 -10,-44 -11,-45 -7,-49 -8,-43 v 0 z"
   id="path440"
   inkscape:connector-curvature="0"
   style="fill:#000000;stroke:none" />
         <path
   d="m 13393,12992 v 0 l -26,43 3,92 15,116 18,112 h 20 l -18,-112 -15,-116 -2,-92 5,-23 v 0 0 l 7,-2 3,-8 -3,-8 z"
   id="path442"
   inkscape:connector-curvature="0"
   style="fill:#000000;stroke:none" />
         <path
   d="m 8522,13129 v 269 8 l 3,18 -3,28 -8,30 -17,31 -31,28 -46,20 -66,8 h -523 -51 l -56,2 h -53 l -54,-7 -45,-16 -36,-28 -23,-43 -7,-61 2,-30 3,-31 7,-35 11,-36 15,-38 15,-36 20,-35 26,-36 28,-33 33,-33 35,-28 41,-23 46,-20 51,-15 53,-10 61,-3 h 366 l 51,3 43,2 33,10 28,13 23,20 15,28 7,36 z"
   id="path444"
   inkscape:connector-curvature="0"
   style="fill:#c1d6d6;stroke:none" />
         <path
   d="m 8532,13398 v 0 -269 h -20 v 269 0 0 l 2,8 8,3 8,-3 z"
   id="path446"
   inkscape:connector-curvature="0"
   style="fill:#000000;stroke:none" />
         <path
   d="m 8354,13579 v 0 l 69,-8 48,-23 33,-30 21,-33 7,-33 3,-28 -3,-18 v -8 h -20 v 8 l 2,18 -2,28 -8,28 -15,28 -28,25 -43,18 -64,8 v 0 z"
   id="path448"
   inkscape:connector-curvature="0"
   style="fill:#000000;stroke:none" />
         <path
   d="m 7831,13579 v 0 h 523 v -20 h -523 v 0 0 l -8,2 -2,8 2,7 z"
   id="path450"
   inkscape:connector-curvature="0"
   style="fill:#000000;stroke:none" />
         <path
   d="m 7496,13416 v 0 l 7,64 26,46 38,30 48,18 56,7 h 53 l 56,-2 h 51 v -20 h -51 l -56,2 h -53 l -51,-8 -43,-12 -33,-26 -21,-40 -7,-59 v 0 0 l -3,-7 -7,-3 -8,3 z"
   id="path452"
   inkscape:connector-curvature="0"
   style="fill:#000000;stroke:none" />
         <path
   d="m 7953,12964 v 0 l -61,2 -56,11 -51,15 -48,20 -41,26 -35,28 -36,33 -28,35 -25,36 -23,35 -15,38 -16,39 -10,35 -7,38 -3,31 -2,30 h 20 l 2,-30 3,-31 8,-33 10,-35 15,-38 15,-34 18,-35 25,-36 28,-30 31,-33 35,-28 41,-20 43,-21 51,-15 51,-10 61,-3 v 0 z"
   id="path454"
   inkscape:connector-curvature="0"
   style="fill:#000000;stroke:none" />
         <path
   d="m 8319,12964 v 0 h -366 v 20 h 366 v 0 0 l 7,-2 3,-8 -3,-8 z"
   id="path456"
   inkscape:connector-curvature="0"
   style="fill:#000000;stroke:none" />
         <path
   d="m 8532,13129 v 0 l -2,-43 -8,-38 -18,-31 -25,-23 -31,-15 -35,-10 -43,-3 -51,-2 v 20 l 51,3 43,2 30,10 26,11 20,17 13,26 7,33 3,43 v 0 0 l 2,8 8,2 8,-2 z"
   id="path458"
   inkscape:connector-curvature="0"
   style="fill:#000000;stroke:none" />
         <path
   d="m 13159,12987 -440,-5 -86,7 -61,21 -38,30 -23,36 -10,33 v 30 23 l 2,8 13,244 8,68 18,49 27,30 28,20 31,8 25,3 18,-3 h 8 500 38 l 36,-5 30,-5 26,-13 20,-20 13,-28 10,-38 3,-51 -36,-203 -8,-41 -7,-43 -8,-41 -10,-35 -18,-33 -25,-23 -36,-18 z"
   id="path460"
   inkscape:connector-curvature="0"
   style="fill:#c1d6d6;stroke:none" />
         <path
   d="m 12719,12992 v 0 l 440,5 v -20 l -440,-5 v 0 0 l -7,2 -3,8 3,7 z"
   id="path462"
   inkscape:connector-curvature="0"
   style="fill:#000000;stroke:none" />
         <path
   d="m 12514,13170 v -3 l -3,-5 v -23 -30 l 10,-31 21,-30 35,-31 56,-18 86,-7 v -20 l -86,7 -66,23 -41,31 -25,40 -10,36 v 30 23 l 2,10 v -2 2 l 5,5 8,3 5,-5 3,-8 z"
   id="path464"
   inkscape:connector-curvature="0"
   style="fill:#000000;stroke:none" />
         <path
   d="m 12526,13414 v 0 l -12,-244 h -21 l 13,244 v 0 0 l 2,7 8,3 8,-3 z"
   id="path466"
   inkscape:connector-curvature="0"
   style="fill:#000000;stroke:none" />
         <path
   d="m 12679,13579 v 0 h -8 l -18,2 -25,-2 -28,-8 -23,-18 -28,-27 -15,-44 -8,-68 h -20 l 8,68 20,54 28,33 33,23 33,7 25,3 18,-3 h 8 v 0 0 l 7,-2 3,-8 -3,-8 z"
   id="path468"
   inkscape:connector-curvature="0"
   style="fill:#000000;stroke:none" />
         <path
   d="m 13179,13579 v 0 h -500 v 20 h 500 v 0 0 l 8,-2 2,-8 -2,-8 z"
   id="path470"
   inkscape:connector-curvature="0"
   style="fill:#000000;stroke:none" />
         <path
   d="m 13344,13429 v 0 l -2,51 -10,35 -10,26 -18,18 -23,10 -28,5 -36,5 h -38 v 20 h 38 l 36,-5 33,-5 28,-15 23,-23 15,-31 10,-40 3,-51 v 0 z"
   id="path472"
   inkscape:connector-curvature="0"
   style="fill:#000000;stroke:none" />
         <path
   d="m 13309,13226 v 0 l 35,203 h 21 l -36,-203 v 0 0 l -2,-8 -8,-3 -8,3 z"
   id="path474"
   inkscape:connector-curvature="0"
   style="fill:#000000;stroke:none" />
         <path
   d="m 13159,12997 v 0 l 46,5 33,15 23,21 15,30 10,36 8,38 7,43 8,41 h 20 l -7,-41 -8,-43 -8,-43 -10,-36 -20,-36 -28,-25 -38,-20 -51,-5 v 0 z"
   id="path476"
   inkscape:connector-curvature="0"
   style="fill:#000000;stroke:none" />
         <path
   d="m 8766,12977 h 528 44 l 40,5 33,7 28,13 23,23 18,30 10,44 3,53 v 234 l -3,53 -5,41 -13,35 -18,23 -27,18 -36,13 -46,5 -58,2 h -526 -33 l -31,-5 -23,-7 -17,-11 -13,-15 -8,-20 -5,-28 -2,-33 v -353 l 2,-28 5,-23 8,-23 15,-18 18,-15 23,-10 30,-8 z"
   id="path478"
   inkscape:connector-curvature="0"
   style="fill:#c1d6d6;stroke:none" />
         <path
   d="m 9294,12966 v 0 h -528 v 21 h 528 v 0 0 l 8,-3 3,-7 -3,-8 z"
   id="path480"
   inkscape:connector-curvature="0"
   style="fill:#000000;stroke:none" />
         <path
   d="m 9503,13152 v 0 l -3,-53 -10,-46 -20,-33 -26,-26 -30,-15 -36,-7 -40,-6 h -44 v 21 h 44 l 40,5 31,7 25,11 20,20 16,28 10,41 2,53 v 0 z"
   id="path482"
   inkscape:connector-curvature="0"
   style="fill:#000000;stroke:none" />
         <path
   d="m 9503,13386 v 0 -234 h -21 v 234 0 0 l 3,7 8,3 7,-3 z"
   id="path484"
   inkscape:connector-curvature="0"
   style="fill:#000000;stroke:none" />
         <path
   d="m 9287,13587 v 0 l 58,-3 46,-5 38,-13 31,-20 20,-26 15,-38 5,-43 3,-53 h -21 l -2,53 -5,38 -10,33 -16,21 -25,15 -33,13 -46,5 -58,2 v 0 z"
   id="path486"
   inkscape:connector-curvature="0"
   style="fill:#000000;stroke:none" />
         <path
   d="m 8761,13587 v 0 h 526 v -21 h -526 v 0 0 l -8,3 -2,7 2,8 z"
   id="path488"
   inkscape:connector-curvature="0"
   style="fill:#000000;stroke:none" />
         <path
   d="m 8619,13457 v 0 l 2,33 5,30 10,23 16,18 20,13 23,7 33,6 h 33 v -21 h -33 l -28,-5 -23,-8 -15,-7 -10,-13 -6,-18 -5,-25 -2,-33 v 0 z"
   id="path490"
   inkscape:connector-curvature="0"
   style="fill:#000000;stroke:none" />
         <path
   d="m 8619,13104 v 0 353 h 20 v -353 0 0 l -3,-8 -7,-2 -8,2 z"
   id="path492"
   inkscape:connector-curvature="0"
   style="fill:#000000;stroke:none" />
         <path
   d="m 8766,12966 v 0 l -36,3 -33,8 -25,12 -20,16 -16,20 -10,25 -5,26 -2,28 h 20 l 2,-28 5,-21 6,-20 15,-15 15,-15 20,-8 28,-8 36,-2 v 0 z"
   id="path494"
   inkscape:connector-curvature="0"
   style="fill:#000000;stroke:none" />
         <path
   d="m 9726,12977 h 526 46 l 38,5 36,7 28,13 23,23 17,30 10,44 3,53 v 234 l -3,53 -5,41 -12,35 -21,23 -25,18 -36,13 -48,5 -56,2 h -528 -33 l -28,-5 -23,-7 -18,-11 -13,-15 -7,-20 -5,-28 -3,-33 v -353 l 3,-28 5,-23 7,-23 16,-18 17,-15 23,-10 31,-8 z"
   id="path496"
   inkscape:connector-curvature="0"
   style="fill:#c1d6d6;stroke:none" />
         <path
   d="m 10252,12966 v 0 h -526 v 21 h 526 v 0 0 l 8,-3 2,-7 -2,-8 z"
   id="path498"
   inkscape:connector-curvature="0"
   style="fill:#000000;stroke:none" />
         <path
   d="m 10463,13152 v 0 l -2,-53 -11,-46 -20,-33 -25,-26 -31,-15 -38,-7 -38,-6 h -46 v 21 h 46 l 38,5 33,7 26,11 20,20 15,28 10,41 3,53 v 0 z"
   id="path500"
   inkscape:connector-curvature="0"
   style="fill:#000000;stroke:none" />
         <path
   d="m 10463,13386 v 0 -234 h -20 v 234 0 0 l 2,7 8,3 8,-3 z"
   id="path502"
   inkscape:connector-curvature="0"
   style="fill:#000000;stroke:none" />
         <path
   d="m 10247,13587 v 0 l 56,-3 48,-5 41,-13 25,-20 23,-26 16,-38 5,-43 2,-53 h -20 l -3,53 -5,38 -10,33 -18,21 -25,15 -31,13 -48,5 -56,2 v 0 z"
   id="path504"
   inkscape:connector-curvature="0"
   style="fill:#000000;stroke:none" />
         <path
   d="m 9719,13587 v 0 h 528 v -21 h -528 v 0 0 l -8,3 -2,7 2,8 z"
   id="path506"
   inkscape:connector-curvature="0"
   style="fill:#000000;stroke:none" />
         <path
   d="m 9579,13457 v 0 l 3,33 5,30 10,23 15,18 20,13 23,7 31,6 h 33 v -21 h -33 l -26,-5 -23,-8 -15,-7 -10,-13 -5,-18 -5,-25 -3,-33 v 0 z"
   id="path508"
   inkscape:connector-curvature="0"
   style="fill:#000000;stroke:none" />
         <path
   d="m 9579,13104 v 0 353 h 20 v -353 0 0 l -2,-8 -8,-2 -7,2 z"
   id="path510"
   inkscape:connector-curvature="0"
   style="fill:#000000;stroke:none" />
         <path
   d="m 9726,12966 v 0 l -35,3 -33,8 -26,12 -20,16 -15,20 -10,25 -5,26 -3,28 h 20 l 3,-28 5,-21 5,-20 15,-15 15,-15 21,-8 28,-8 35,-2 v 0 z"
   id="path512"
   inkscape:connector-curvature="0"
   style="fill:#000000;stroke:none" />
         <path
   d="m 10705,12977 h 528 43 l 41,5 33,7 28,13 23,23 17,30 11,44 2,53 v 234 l -2,53 -5,41 -13,35 -18,23 -28,18 -35,13 -46,5 -59,2 h -526 -33 l -28,-5 -22,-7 -18,-11 -13,-15 -10,-20 -3,-28 -2,-33 v -353 l 2,-28 5,-23 8,-23 13,-18 18,-15 22,-10 31,-8 z"
   id="path514"
   inkscape:connector-curvature="0"
   style="fill:#c1d6d6;stroke:none" />
         <path
   d="m 11233,12966 v 0 h -528 v 21 h 528 v 0 0 l 8,-3 2,-7 -2,-8 z"
   id="path516"
   inkscape:connector-curvature="0"
   style="fill:#000000;stroke:none" />
         <path
   d="m 11441,13152 v 0 l -2,-53 -10,-46 -21,-33 -25,-26 -31,-15 -35,-7 -41,-6 h -43 v 21 h 43 l 41,5 30,7 26,11 20,20 15,28 10,41 3,53 v 0 z"
   id="path518"
   inkscape:connector-curvature="0"
   style="fill:#000000;stroke:none" />
         <path
   d="m 11441,13386 v 0 -234 h -20 v 234 0 0 l 3,7 7,3 8,-3 z"
   id="path520"
   inkscape:connector-curvature="0"
   style="fill:#000000;stroke:none" />
         <path
   d="m 11225,13587 v 0 l 59,-3 46,-5 38,-13 30,-20 20,-26 16,-38 5,-43 2,-53 h -20 l -3,53 -5,38 -10,33 -15,21 -25,15 -33,13 -46,5 -59,2 v 0 z"
   id="path522"
   inkscape:connector-curvature="0"
   style="fill:#000000;stroke:none" />
         <path
   d="m 10699,13587 v 0 h 526 v -21 h -526 v 0 0 l -7,3 -3,7 3,8 z"
   id="path524"
   inkscape:connector-curvature="0"
   style="fill:#000000;stroke:none" />
         <path
   d="m 10560,13457 v 0 l 2,33 3,30 12,23 16,18 20,13 23,7 30,6 h 33 v -21 h -33 l -25,-5 -23,-8 -15,-7 -10,-13 -8,-18 -2,-25 -3,-33 v 0 z"
   id="path526"
   inkscape:connector-curvature="0"
   style="fill:#000000;stroke:none" />
         <path
   d="m 10560,13104 v 0 353 h 20 v -353 0 0 l -3,-8 -7,-2 -8,2 z"
   id="path528"
   inkscape:connector-curvature="0"
   style="fill:#000000;stroke:none" />
         <path
   d="m 10705,12966 v 0 l -36,3 -33,8 -25,12 -21,16 -15,20 -8,25 -5,26 -2,28 h 20 l 3,-28 5,-21 7,-20 10,-15 16,-15 20,-8 28,-8 36,-2 v 0 z"
   id="path530"
   inkscape:connector-curvature="0"
   style="fill:#000000;stroke:none" />
         <path
   d="m 11673,12977 h 526 45 l 38,5 36,7 28,13 23,23 15,30 10,44 3,53 v 234 l -3,53 -5,41 -13,35 -17,23 -28,18 -36,13 -46,5 -58,2 h -526 -33 l -28,-5 -23,-7 -18,-11 -12,-15 -8,-20 -5,-28 -3,-33 v -353 l 3,-28 5,-23 8,-23 15,-18 18,-15 23,-10 30,-8 z"
   id="path532"
   inkscape:connector-curvature="0"
   style="fill:#c1d6d6;stroke:none" />
         <path
   d="m 12199,12966 v 0 h -526 v 21 h 526 v 0 0 l 7,-3 3,-7 -3,-8 z"
   id="path534"
   inkscape:connector-curvature="0"
   style="fill:#000000;stroke:none" />
         <path
   d="m 12407,13152 v 0 l -3,-53 -10,-46 -18,-33 -25,-26 -31,-15 -38,-7 -38,-6 h -45 v 21 h 45 l 38,5 33,7 26,11 20,20 13,28 10,41 3,53 v 0 z"
   id="path536"
   inkscape:connector-curvature="0"
   style="fill:#000000;stroke:none" />
         <path
   d="m 12407,13386 v 0 -234 h -20 v 234 0 0 l 2,7 8,3 7,-3 z"
   id="path538"
   inkscape:connector-curvature="0"
   style="fill:#000000;stroke:none" />
         <path
   d="m 12191,13587 v 0 l 58,-3 46,-5 38,-13 31,-20 20,-26 15,-38 5,-43 3,-53 h -20 l -3,53 -5,38 -10,33 -15,21 -26,15 -33,13 -46,5 -58,2 v 0 z"
   id="path540"
   inkscape:connector-curvature="0"
   style="fill:#000000;stroke:none" />
         <path
   d="m 11665,13587 v 0 h 526 v -21 h -526 v 0 0 l -8,3 -2,7 2,8 z"
   id="path542"
   inkscape:connector-curvature="0"
   style="fill:#000000;stroke:none" />
         <path
   d="m 11525,13457 v 0 l 3,33 5,30 10,23 15,18 21,13 22,7 31,6 h 33 v -21 h -33 l -25,-5 -23,-8 -16,-7 -10,-13 -5,-18 -5,-25 -2,-33 v 0 z"
   id="path544"
   inkscape:connector-curvature="0"
   style="fill:#000000;stroke:none" />
         <path
   d="m 11525,13104 v 0 353 h 21 v -353 0 0 l -3,-8 -8,-2 -7,2 z"
   id="path546"
   inkscape:connector-curvature="0"
   style="fill:#000000;stroke:none" />
         <path
   d="m 11673,12966 v 0 l -36,3 -33,8 -25,12 -21,16 -15,20 -10,25 -5,26 -3,28 h 21 l 2,-28 5,-21 5,-20 15,-15 16,-15 20,-8 28,-8 36,-2 v 0 z"
   id="path548"
   inkscape:connector-curvature="0"
   style="fill:#000000;stroke:none" />
         <path
   d="m 8753,14862 h 526 46 l 38,5 36,8 28,13 22,20 16,30 10,41 2,53 v 234 l -2,54 -5,40 -13,36 -18,23 -28,18 -35,12 -46,5 -58,3 h -526 -33 l -28,-5 -23,-8 -18,-10 -13,-15 -10,-21 -2,-25 -3,-33 v -353 l 3,-26 5,-25 7,-20 13,-18 18,-15 25,-11 31,-7 z"
   id="path550"
   inkscape:connector-curvature="0"
   style="fill:#c1d6d6;stroke:none" />
         <path
   d="m 9279,14852 v 0 h -526 v 20 h 526 v 0 0 l 8,-2 2,-8 -2,-7 z"
   id="path552"
   inkscape:connector-curvature="0"
   style="fill:#000000;stroke:none" />
         <path
   d="m 9487,15032 v 0 l -2,-53 -10,-43 -18,-33 -25,-23 -31,-15 -38,-8 -38,-5 h -46 v 20 h 46 l 38,5 33,8 25,10 21,18 12,28 11,38 2,53 v 0 z"
   id="path554"
   inkscape:connector-curvature="0"
   style="fill:#000000;stroke:none" />
         <path
   d="m 9487,15266 v 0 -234 h -20 v 234 0 0 l 3,8 7,2 8,-2 z"
   id="path556"
   inkscape:connector-curvature="0"
   style="fill:#000000;stroke:none" />
         <path
   d="m 9272,15467 v 0 l 58,-3 46,-5 38,-12 30,-21 21,-25 15,-38 5,-43 2,-54 h -20 l -2,54 -5,38 -11,33 -15,20 -25,15 -33,13 -46,5 -58,3 v 0 z"
   id="path558"
   inkscape:connector-curvature="0"
   style="fill:#000000;stroke:none" />
         <path
   d="m 8746,15467 v 0 h 526 v -20 h -526 v 0 0 l -8,2 -3,8 3,7 z"
   id="path560"
   inkscape:connector-curvature="0"
   style="fill:#000000;stroke:none" />
         <path
   d="m 8606,15340 v 0 l 2,33 3,28 13,23 15,18 20,12 23,8 31,5 h 33 v -20 h -33 l -26,-5 -23,-8 -15,-8 -10,-12 -8,-18 -2,-23 -3,-33 v 0 z"
   id="path562"
   inkscape:connector-curvature="0"
   style="fill:#000000;stroke:none" />
         <path
   d="m 8606,14987 v 0 353 h 20 v -353 0 0 l -2,-8 -8,-2 -8,2 z"
   id="path564"
   inkscape:connector-curvature="0"
   style="fill:#000000;stroke:none" />
         <path
   d="m 8753,14852 v 0 l -35,3 -33,7 -28,13 -21,15 -12,20 -11,23 -5,28 -2,26 h 20 l 3,-26 5,-23 5,-17 13,-16 15,-15 23,-7 28,-8 35,-3 v 0 z"
   id="path566"
   inkscape:connector-curvature="0"
   style="fill:#000000;stroke:none" />
         <path
   d="m 9726,14862 h 526 46 l 38,5 36,8 28,13 23,20 17,30 10,41 3,53 v 234 l -3,54 -5,40 -12,36 -21,23 -25,18 -36,12 -48,5 -56,3 h -528 -33 l -28,-5 -23,-8 -18,-10 -13,-15 -7,-21 -5,-25 -3,-33 v -353 l 3,-26 5,-25 7,-20 16,-18 17,-15 23,-11 31,-7 z"
   id="path568"
   inkscape:connector-curvature="0"
   style="fill:#c1d6d6;stroke:none" />
         <path
   d="m 10252,14852 v 0 h -526 v 20 h 526 v 0 0 l 8,-2 2,-8 -2,-7 z"
   id="path570"
   inkscape:connector-curvature="0"
   style="fill:#000000;stroke:none" />
         <path
   d="m 10463,15032 v 0 l -2,-53 -11,-43 -20,-33 -25,-23 -31,-15 -38,-8 -38,-5 h -46 v 20 h 46 l 38,5 33,8 26,10 20,18 15,28 10,38 3,53 v 0 z"
   id="path572"
   inkscape:connector-curvature="0"
   style="fill:#000000;stroke:none" />
         <path
   d="m 10463,15266 v 0 -234 h -20 v 234 0 0 l 2,8 8,2 8,-2 z"
   id="path574"
   inkscape:connector-curvature="0"
   style="fill:#000000;stroke:none" />
         <path
   d="m 10247,15467 v 0 l 56,-3 48,-5 41,-12 25,-21 23,-25 16,-38 5,-43 2,-54 h -20 l -3,54 -5,38 -10,33 -18,20 -25,15 -31,13 -48,5 -56,3 v 0 z"
   id="path576"
   inkscape:connector-curvature="0"
   style="fill:#000000;stroke:none" />
         <path
   d="m 9719,15467 v 0 h 528 v -20 h -528 v 0 0 l -8,2 -2,8 2,7 z"
   id="path578"
   inkscape:connector-curvature="0"
   style="fill:#000000;stroke:none" />
         <path
   d="m 9579,15340 v 0 l 3,33 5,28 10,23 15,18 20,12 23,8 31,5 h 33 v -20 h -33 l -26,-5 -23,-8 -15,-8 -10,-12 -5,-18 -5,-23 -3,-33 v 0 z"
   id="path580"
   inkscape:connector-curvature="0"
   style="fill:#000000;stroke:none" />
         <path
   d="m 9579,14987 v 0 353 h 20 v -353 0 0 l -2,-8 -8,-2 -7,2 z"
   id="path582"
   inkscape:connector-curvature="0"
   style="fill:#000000;stroke:none" />
         <path
   d="m 9726,14852 v 0 l -35,3 -33,7 -26,13 -20,15 -15,20 -10,23 -5,28 -3,26 h 20 l 3,-26 5,-23 5,-17 15,-16 15,-15 21,-7 28,-8 35,-3 v 0 z"
   id="path584"
   inkscape:connector-curvature="0"
   style="fill:#000000;stroke:none" />
         <path
   d="m 10705,14862 h 528 43 l 41,5 33,8 28,13 23,20 17,30 11,41 2,53 v 234 l -2,54 -5,40 -13,36 -18,23 -28,18 -35,12 -46,5 -59,3 h -526 -33 l -28,-5 -22,-8 -18,-10 -13,-15 -10,-21 -3,-25 -2,-33 v -353 l 2,-26 5,-25 8,-20 13,-18 18,-15 22,-11 31,-7 z"
   id="path586"
   inkscape:connector-curvature="0"
   style="fill:#c1d6d6;stroke:none" />
         <path
   d="m 11233,14852 v 0 h -528 v 20 h 528 v 0 0 l 8,-2 2,-8 -2,-7 z"
   id="path588"
   inkscape:connector-curvature="0"
   style="fill:#000000;stroke:none" />
         <path
   d="m 11441,15032 v 0 l -2,-53 -10,-43 -21,-33 -25,-23 -31,-15 -35,-8 -41,-5 h -43 v 20 h 43 l 41,5 30,8 26,10 20,18 15,28 10,38 3,53 v 0 z"
   id="path590"
   inkscape:connector-curvature="0"
   style="fill:#000000;stroke:none" />
         <path
   d="m 11441,15266 v 0 -234 h -20 v 234 0 0 l 3,8 7,2 8,-2 z"
   id="path592"
   inkscape:connector-curvature="0"
   style="fill:#000000;stroke:none" />
         <path
   d="m 11225,15467 v 0 l 59,-3 46,-5 38,-12 30,-21 20,-25 16,-38 5,-43 2,-54 h -20 l -3,54 -5,38 -10,33 -15,20 -25,15 -33,13 -46,5 -59,3 v 0 z"
   id="path594"
   inkscape:connector-curvature="0"
   style="fill:#000000;stroke:none" />
         <path
   d="m 10699,15467 v 0 h 526 v -20 h -526 v 0 0 l -7,2 -3,8 3,7 z"
   id="path596"
   inkscape:connector-curvature="0"
   style="fill:#000000;stroke:none" />
         <path
   d="m 10560,15340 v 0 l 2,33 3,28 12,23 16,18 20,12 23,8 30,5 h 33 v -20 h -33 l -25,-5 -23,-8 -15,-8 -10,-12 -8,-18 -2,-23 -3,-33 v 0 z"
   id="path598"
   inkscape:connector-curvature="0"
   style="fill:#000000;stroke:none" />
         <path
   d="m 10560,14987 v 0 353 h 20 v -353 0 0 l -3,-8 -7,-2 -8,2 z"
   id="path600"
   inkscape:connector-curvature="0"
   style="fill:#000000;stroke:none" />
         <path
   d="m 10705,14852 v 0 l -36,3 -33,7 -25,13 -21,15 -13,20 -10,23 -5,28 -2,26 h 20 l 3,-26 5,-23 5,-17 12,-16 16,-15 20,-7 28,-8 36,-3 v 0 z"
   id="path602"
   inkscape:connector-curvature="0"
   style="fill:#000000;stroke:none" />
         <path
   d="m 11693,14862 h 528 46 l 38,5 36,8 28,13 23,20 15,30 10,41 3,53 v 234 l -3,54 -5,40 -13,36 -18,23 -27,18 -36,12 -46,5 -58,3 h -526 -33 l -28,-5 -23,-8 -18,-10 -13,-15 -10,-21 -2,-25 -3,-33 v -353 l 3,-26 5,-25 7,-20 13,-18 18,-15 23,-11 30,-7 z"
   id="path604"
   inkscape:connector-curvature="0"
   style="fill:#c1d6d6;stroke:none" />
         <path
   d="m 12221,14852 v 0 h -528 v 20 h 528 v 0 0 l 8,-2 3,-8 -3,-7 z"
   id="path606"
   inkscape:connector-curvature="0"
   style="fill:#000000;stroke:none" />
         <path
   d="m 12430,15032 v 0 l -3,-53 -10,-43 -18,-33 -25,-23 -31,-15 -38,-8 -38,-5 h -46 v 20 h 46 l 38,5 33,8 26,10 20,18 13,28 10,38 2,53 v 0 z"
   id="path608"
   inkscape:connector-curvature="0"
   style="fill:#000000;stroke:none" />
         <path
   d="m 12430,15266 v 0 -234 h -21 v 234 0 0 l 3,8 8,2 7,-2 z"
   id="path610"
   inkscape:connector-curvature="0"
   style="fill:#000000;stroke:none" />
         <path
   d="m 12214,15467 v 0 l 58,-3 46,-5 38,-12 31,-21 20,-25 15,-38 5,-43 3,-54 h -21 l -2,54 -5,38 -10,33 -16,20 -25,15 -33,13 -46,5 -58,3 v 0 z"
   id="path612"
   inkscape:connector-curvature="0"
   style="fill:#000000;stroke:none" />
         <path
   d="m 11688,15467 v 0 h 526 v -20 h -526 v 0 0 l -8,2 -2,8 2,7 z"
   id="path614"
   inkscape:connector-curvature="0"
   style="fill:#000000;stroke:none" />
         <path
   d="m 11548,15340 v 0 l 3,33 2,28 13,23 15,18 20,12 23,8 31,5 h 33 v -20 h -33 l -26,-5 -22,-8 -16,-8 -10,-12 -8,-18 -2,-23 -3,-33 v 0 z"
   id="path616"
   inkscape:connector-curvature="0"
   style="fill:#000000;stroke:none" />
         <path
   d="m 11548,14987 v 0 353 h 20 v -353 0 0 l -2,-8 -8,-2 -7,2 z"
   id="path618"
   inkscape:connector-curvature="0"
   style="fill:#000000;stroke:none" />
         <path
   d="m 11693,14852 v 0 l -36,3 -33,7 -25,13 -20,15 -13,20 -10,23 -5,28 -3,26 h 20 l 3,-26 5,-23 5,-17 13,-16 15,-15 20,-7 28,-8 36,-3 v 0 z"
   id="path620"
   inkscape:connector-curvature="0"
   style="fill:#000000;stroke:none" />
         <path
   d="m 13311,14862 h 18 18 20 21 17 21 18 17 l 16,3 17,2 13,10 15,13 10,20 11,23 7,33 5,39 8,109 13,132 10,117 5,66 v 23 l -8,20 -20,10 -36,5 h -25 -28 -28 -28 -25 -23 -18 -13 -10 l -10,3 h -13 l -12,-5 -13,-10 -10,-18 -8,-31 -2,-40 -16,-437 v -31 l 16,-28 20,-18 z"
   id="path622"
   inkscape:connector-curvature="0"
   style="fill:#c1d6d6;stroke:none" />
         <path
   d="m 13461,14852 v 0 h -17 -18 -21 -17 -21 -20 -18 -18 v 20 h 18 18 20 21 17 21 18 17 v 0 z"
   id="path624"
   inkscape:connector-curvature="0"
   style="fill:#000000;stroke:none" />
         <path
   d="m 13565,15005 v 0 l -5,-39 -7,-35 -10,-23 -13,-23 -18,-15 -15,-13 -20,-2 -16,-3 v 20 l 16,3 15,2 10,8 13,10 7,18 10,23 8,30 5,39 v 0 z"
   id="path626"
   inkscape:connector-curvature="0"
   style="fill:#000000;stroke:none" />
         <path
   d="m 13601,15429 v 0 l -5,-66 -10,-117 -13,-132 -8,-109 h -20 l 8,109 12,132 11,117 5,66 v 0 z"
   id="path628"
   inkscape:connector-curvature="0"
   style="fill:#000000;stroke:none" />
         <path
   d="m 13527,15498 v 0 l 38,-6 26,-12 10,-28 v -23 h -20 v 23 l -5,12 -16,8 -33,5 v 0 z"
   id="path630"
   inkscape:connector-curvature="0"
   style="fill:#000000;stroke:none" />
         <path
   d="m 13339,15498 v 0 h 13 18 23 25 28 28 28 25 v -21 h -25 -28 -28 -28 -25 -23 -18 -13 v 0 z"
   id="path632"
   inkscape:connector-curvature="0"
   style="fill:#000000;stroke:none" />
         <path
   d="m 13250,15386 v 0 l 3,40 8,33 12,21 16,12 17,8 h 13 l 10,-2 h 10 v -21 h -10 l -10,3 h -13 l -7,-3 -10,-7 -8,-16 -8,-28 -2,-40 v 0 z"
   id="path634"
   inkscape:connector-curvature="0"
   style="fill:#000000;stroke:none" />
         <path
   d="m 13235,14949 v 0 l 15,437 h 21 l -16,-437 v 0 0 l -2,-8 -8,-3 -7,3 z"
   id="path636"
   inkscape:connector-curvature="0"
   style="fill:#000000;stroke:none" />
         <path
   d="m 13311,14852 v 0 l -35,13 -23,20 -18,31 v 33 h 20 v -28 l 13,-26 18,-15 25,-8 v 0 0 l 8,-2 3,-8 -3,-7 z"
   id="path638"
   inkscape:connector-curvature="0"
   style="fill:#000000;stroke:none" />
         <path
   d="m 13690,14819 -25,5 -18,13 -13,18 -2,22 v 28 l 2,33 3,36 5,38 12,102 16,124 12,112 8,69 5,38 15,38 21,28 30,10 -20,-246 -21,-206 -17,-160 z"
   id="path640"
   inkscape:connector-curvature="0"
   style="fill:#c1d6d6;stroke:none" />
         <path
   d="m 13652,15012 v 0 l -5,-38 -3,-36 -2,-33 v -28 l 2,-20 10,-13 13,-10 23,-5 v -20 l -28,5 -23,15 -15,23 -3,25 v 28 l 3,33 2,36 6,38 v 0 z"
   id="path642"
   inkscape:connector-curvature="0"
   style="fill:#000000;stroke:none" />
         <path
   d="m 13700,15419 v 0 l -7,-69 -13,-112 -15,-124 -13,-102 h -20 l 12,102 15,124 13,112 8,69 v 0 z"
   id="path644"
   inkscape:connector-curvature="0"
   style="fill:#000000;stroke:none" />
         <path
   d="m 13751,15533 10,-10 -25,-8 -18,-25 -13,-36 -5,-35 h -20 l 5,40 18,41 23,31 35,12 10,-10 -10,10 8,-2 2,-8 -2,-8 -8,-2 z"
   id="path646"
   inkscape:connector-curvature="0"
   style="fill:#000000;stroke:none" />
         <path
   d="m 13690,14829 -10,-10 13,102 17,160 21,206 20,246 h 20 l -20,-246 -20,-206 -18,-160 -13,-102 -10,-10 10,10 -2,-8 -8,-2 -8,2 -2,8 z"
   id="path648"
   inkscape:connector-curvature="0"
   style="fill:#000000;stroke:none" />
         <path
   d="m 12709,15142 -2,-16 -10,-33 -8,-30 -8,-15 3,-5 2,-11 8,-7 5,-5 -33,-51 -48,-18 297,-46 33,23 84,-2 v 15 l -76,10 -16,18 49,71 -26,48 v 36 l -20,8 -18,7 -15,10 -13,13 -7,15 v 21 l 7,23 18,25 3,2 7,8 5,5 5,5 8,5 13,11 10,7 5,3 23,15 132,23 2,122 v 7 l -7,18 -21,15 -40,3 -341,3 h -7 -21 l -28,-6 -30,-10 -30,-23 -23,-33 -16,-50 3,-69 v -3 -5 l 2,-12 11,-16 15,-23 25,-27 38,-36 z"
   id="path650"
   inkscape:connector-curvature="0"
   style="fill:#000000;stroke:none" />
         <path
   d="m 12709,15142 v 0 l -2,-16 -10,-33 -8,-30 -8,-15 v 0 l 3,-5 2,-11 8,-7 5,-5 -33,-51 -48,-18 297,-46 33,23 84,-2 v 15 l -76,10 -16,18 49,71 -26,48 v 36 0 l -20,8 -18,7 -15,10 -13,13 -7,15 v 21 l 7,23 18,25 v 0 l 3,2 7,8 5,5 5,5 v 0 l 8,5 13,11 10,7 5,3 23,15 132,23 2,122 v 0 7 l -7,18 -21,15 -40,3 -341,3 v 0 h -7 -21 l -28,-6 -30,-10 -30,-23 -23,-33 -16,-50 3,-69 v 0 -3 -5 l 2,-12 11,-16 15,-23 25,-27 38,-36 z"
   id="path652"
   inkscape:connector-curvature="0"
   style="fill:none;stroke:#000000" />
         <path
   d="m 13261,15358 170,-82 33,49 -165,99 -21,-3 -12,-12 -8,-21 z"
   id="path654"
   inkscape:connector-curvature="0"
   style="fill:#000000;stroke:none" />
         <path
   d="m 13261,15358 170,-82 33,49 -165,99 v 0 l -21,-3 -12,-12 -8,-21 z"
   id="path656"
   inkscape:connector-curvature="0"
   style="fill:none;stroke:#000000" />
        </g>
       </g>
      </g>
     </g>
    </g>
   </g>
  </g>
 </g>
</svg>