<?xml version="1.0" encoding="UTF-8" standalone="no"?>
<svg
   xmlns:ooo="http://xml.openoffice.org/svg/export"
   xmlns:dc="http://purl.org/dc/elements/1.1/"
   xmlns:cc="http://creativecommons.org/ns#"
   xmlns:rdf="http://www.w3.org/1999/02/22-rdf-syntax-ns#"
   xmlns:svg="http://www.w3.org/2000/svg"
   xmlns="http://www.w3.org/2000/svg"
   xmlns:sodipodi="http://sodipodi.sourceforge.net/DTD/sodipodi-0.dtd"
   xmlns:inkscape="http://www.inkscape.org/namespaces/inkscape"
   version="1.2"
   width="39.34mm"
   height="38.099998mm"
   viewBox="0 0 3934 3809.9998"
   preserveAspectRatio="xMidYMid"
   xml:space="preserve"
   id="svg122"
   sodipodi:docname="butrfly2.svg"
   style="fill-rule:evenodd;stroke-width:28.22200012;stroke-linejoin:round"
   inkscape:version="0.92.5 (2060ec1f9f, 2020-04-08)"><metadata
   id="metadata126"><rdf:RDF><cc:Work
       rdf:about=""><dc:format>image/svg+xml</dc:format><dc:type
         rdf:resource="http://purl.org/dc/dcmitype/StillImage" /></cc:Work></rdf:RDF></metadata><sodipodi:namedview
   pagecolor="#ffffff"
   bordercolor="#666666"
   borderopacity="1"
   objecttolerance="10"
   gridtolerance="10"
   guidetolerance="10"
   inkscape:pageopacity="0"
   inkscape:pageshadow="2"
   inkscape:window-width="664"
   inkscape:window-height="487"
   id="namedview124"
   showgrid="false"
   inkscape:zoom="0.2102413"
   inkscape:cx="74.343308"
   inkscape:cy="71.999998"
   inkscape:window-x="0"
   inkscape:window-y="0"
   inkscape:window-maximized="0"
   inkscape:current-layer="svg122" />
 <defs
   class="ClipPathGroup"
   id="defs8">
  <clipPath
   id="presentation_clip_path"
   clipPathUnits="userSpaceOnUse">
   <rect
   x="0"
   y="0"
   width="21000"
   height="29700"
   id="rect2" />
  </clipPath>
  <clipPath
   id="presentation_clip_path_shrink"
   clipPathUnits="userSpaceOnUse">
   <rect
   x="21"
   y="29"
   width="20958"
   height="29641"
   id="rect5" />
  </clipPath>
 </defs>
 <defs
   class="TextShapeIndex"
   id="defs12">
  <g
   ooo:slide="id1"
   ooo:id-list="id3"
   id="g10" />
 </defs>
 <defs
   class="EmbeddedBulletChars"
   id="defs44">
  <g
   id="bullet-char-template-57356"
   transform="matrix(4.8828125e-4,0,0,-4.8828125e-4,0,0)">
   <path
   d="M 580,1141 1163,571 580,0 -4,571 Z"
   id="path14"
   inkscape:connector-curvature="0" />
  </g>
  <g
   id="bullet-char-template-57354"
   transform="matrix(4.8828125e-4,0,0,-4.8828125e-4,0,0)">
   <path
   d="M 8,1128 H 1137 V 0 H 8 Z"
   id="path17"
   inkscape:connector-curvature="0" />
  </g>
  <g
   id="bullet-char-template-10146"
   transform="matrix(4.8828125e-4,0,0,-4.8828125e-4,0,0)">
   <path
   d="M 174,0 602,739 174,1481 1456,739 Z M 1358,739 309,1346 659,739 Z"
   id="path20"
   inkscape:connector-curvature="0" />
  </g>
  <g
   id="bullet-char-template-10132"
   transform="matrix(4.8828125e-4,0,0,-4.8828125e-4,0,0)">
   <path
   d="M 2015,739 1276,0 H 717 l 543,543 H 174 v 393 h 1086 l -543,545 h 557 z"
   id="path23"
   inkscape:connector-curvature="0" />
  </g>
  <g
   id="bullet-char-template-10007"
   transform="matrix(4.8828125e-4,0,0,-4.8828125e-4,0,0)">
   <path
   d="m 0,-2 c -7,16 -16,29 -25,39 l 381,530 c -94,256 -141,385 -141,387 0,25 13,38 40,38 9,0 21,-2 34,-5 21,4 42,12 65,25 l 27,-13 111,-251 280,301 64,-25 24,25 c 21,-10 41,-24 62,-43 C 886,937 835,863 770,784 769,783 710,716 594,584 L 774,223 c 0,-27 -21,-55 -63,-84 l 16,-20 C 717,90 699,76 672,76 641,76 570,178 457,381 L 164,-76 c -22,-34 -53,-51 -92,-51 -42,0 -63,17 -64,51 -7,9 -10,24 -10,44 0,9 1,19 2,30 z"
   id="path26"
   inkscape:connector-curvature="0" />
  </g>
  <g
   id="bullet-char-template-10004"
   transform="matrix(4.8828125e-4,0,0,-4.8828125e-4,0,0)">
   <path
   d="M 285,-33 C 182,-33 111,30 74,156 52,228 41,333 41,471 c 0,78 14,145 41,201 34,71 87,106 158,106 53,0 88,-31 106,-94 l 23,-176 c 8,-64 28,-97 59,-98 l 735,706 c 11,11 33,17 66,17 42,0 63,-15 63,-46 V 965 c 0,-36 -10,-64 -30,-84 L 442,47 C 390,-6 338,-33 285,-33 Z"
   id="path29"
   inkscape:connector-curvature="0" />
  </g>
  <g
   id="bullet-char-template-9679"
   transform="matrix(4.8828125e-4,0,0,-4.8828125e-4,0,0)">
   <path
   d="M 813,0 C 632,0 489,54 383,161 276,268 223,411 223,592 c 0,181 53,324 160,431 106,107 249,161 430,161 179,0 323,-54 432,-161 108,-107 162,-251 162,-431 0,-180 -54,-324 -162,-431 C 1136,54 992,0 813,0 Z"
   id="path32"
   inkscape:connector-curvature="0" />
  </g>
  <g
   id="bullet-char-template-8226"
   transform="matrix(4.8828125e-4,0,0,-4.8828125e-4,0,0)">
   <path
   d="m 346,457 c -73,0 -137,26 -191,78 -54,51 -81,114 -81,188 0,73 27,136 81,188 54,52 118,78 191,78 73,0 134,-26 185,-79 51,-51 77,-114 77,-187 0,-75 -25,-137 -76,-188 -50,-52 -112,-78 -186,-78 z"
   id="path35"
   inkscape:connector-curvature="0" />
  </g>
  <g
   id="bullet-char-template-8211"
   transform="matrix(4.8828125e-4,0,0,-4.8828125e-4,0,0)">
   <path
   d="M -4,459 H 1135 V 606 H -4 Z"
   id="path38"
   inkscape:connector-curvature="0" />
  </g>
  <g
   id="bullet-char-template-61548"
   transform="matrix(4.8828125e-4,0,0,-4.8828125e-4,0,0)">
   <path
   d="m 173,740 c 0,163 58,303 173,419 116,115 255,173 419,173 163,0 302,-58 418,-173 116,-116 174,-256 174,-419 0,-163 -58,-303 -174,-418 C 1067,206 928,148 765,148 601,148 462,206 346,322 231,437 173,577 173,740 Z"
   id="path41"
   inkscape:connector-curvature="0" />
  </g>
 </defs>
 <g
   id="g49"
   transform="translate(-8533,-12945)">
  <g
   id="id2"
   class="Master_Slide">
   <g
   id="bg-id2"
   class="Background" />
   <g
   id="bo-id2"
   class="BackgroundObjects" />
  </g>
 </g>
 <g
   class="SlideGroup"
   id="g120"
   transform="translate(-8533,-12945)">
  <g
   id="g118">
   <g
   id="container-id1">
    <g
   id="id1"
   class="Slide"
   clip-path="url(#presentation_clip_path)">
     <g
   class="Page"
   id="g114">
      <g
   class="Graphic"
   id="g112">
       <g
   id="id3">
        <rect
   class="BoundingBox"
   x="8533"
   y="12945"
   width="3934"
   height="3810"
   id="rect51"
   style="fill:none;stroke:none" />
        <path
   d="m 10790,14945 -26,-78 -25,-92 -26,-97 -27,-101 -31,-99 -36,-94 -35,-84 -43,-71 -13,-23 -15,-13 -18,-5 -13,8 -18,-13 -20,-5 h -20 l -21,7 -15,13 -13,18 -7,23 v 25 l 5,10 10,23 20,41 23,51 28,58 33,64 36,71 35,68 39,69 35,64 36,58 33,48 30,39 26,22 20,8 z"
   id="path53"
   inkscape:connector-curvature="0"
   style="fill:#000000;stroke:none" />
        <path
   d="m 10383,14295 -25,-18 -31,-18 -35,-13 -44,-15 -45,-10 -51,-10 -54,-10 -55,-8 -61,-5 -64,-5 -66,-3 -66,-5 h -69 -68 -72 -68 -69 l -63,3 h -64 -58 -59 -56 l -50,2 -51,3 -49,2 -45,5 -44,8 -43,10 -38,10 -38,16 -38,15 -33,20 -53,38 -26,33 -5,31 13,28 30,28 38,30 49,36 53,41 31,25 35,28 43,33 49,38 53,36 58,40 61,38 61,41 66,38 67,36 68,33 66,30 66,23 66,21 61,12 61,8 26,2 33,6 38,5 h 38 l 38,-8 38,-18 31,-30 25,-49 -13,100 -12,78 -13,66 -8,61 3,26 5,20 10,15 13,13 13,8 15,10 15,10 13,15 h 18 l 23,3 25,5 25,8 26,10 23,12 17,16 11,20 20,13 23,25 12,46 v 76 l -12,173 -15,267 -11,262 v 160 l 3,71 -5,64 -10,48 -11,30 -5,26 v 28 l 11,10 28,-20 27,-56 18,-77 5,-81 -5,-76 -2,-84 v -104 l 7,-99 5,-79 8,-56 13,-43 15,-31 28,-15 h 15 13 l 13,5 10,5 7,8 11,5 10,2 10,3 23,-5 18,-13 17,-13 16,-5 10,5 12,11 16,12 18,18 15,15 18,13 17,8 16,2 22,-13 11,-25 2,-33 -2,-38 -5,-41 -8,-38 -5,-36 v -27 l 10,-41 15,-28 21,-18 20,-18 23,-12 23,-21 20,-25 15,-36 13,-48 8,-61 5,-69 -5,-73 -8,-77 -18,-78 -23,-77 -30,-71 -38,-74 -46,-81 -48,-86 -49,-89 -48,-89 -48,-89 -41,-87 z"
   id="path55"
   inkscape:connector-curvature="0"
   style="fill:#000000;stroke:none" />
        <path
   d="m 10541,14229 5,-31 7,-33 16,-38 20,-38 23,-43 28,-44 33,-45 33,-49 38,-48 41,-48 43,-51 43,-51 46,-51 48,-51 48,-50 49,-49 48,-48 46,-46 43,-46 41,-43 40,-40 38,-41 38,-36 36,-35 36,-33 35,-28 36,-28 35,-23 36,-23 35,-18 39,-15 38,-10 63,-10 43,2 26,18 10,28 v 41 l -5,50 -8,59 -5,66 -7,86 -13,115 -20,132 -28,145 -38,147 -49,140 -58,125 -71,104 -16,20 -17,28 -23,28 -26,28 -33,25 -38,13 h -46 l -53,-15 43,33 38,28 36,25 33,21 28,20 28,18 25,18 23,20 28,35 5,34 -5,33 -2,38 -13,12 -13,21 -15,20 -13,25 -10,26 -5,25 v 23 l 8,21 -3,10 -2,12 v 16 l 2,17 10,21 15,23 23,25 33,28 23,18 31,25 38,31 43,35 46,38 51,44 50,45 54,46 53,46 51,43 48,43 44,41 40,36 33,30 23,25 18,18 25,28 26,23 25,23 26,18 20,15 20,10 15,10 13,5 13,6 10,7 13,8 7,10 3,10 -3,8 -10,2 h -23 l -30,-5 -31,-13 -33,-17 -33,-23 -30,-26 -31,-25 -28,-28 -25,-28 -26,-30 -33,-33 -38,-34 -38,-35 -38,-33 -38,-31 -33,-28 -28,-20 -23,-18 -23,-15 -20,-13 -20,-10 -18,-7 -18,-3 -15,3 -13,7 -18,20 -7,23 -5,21 -11,20 -10,8 -7,5 -13,2 -10,3 h -10 l -11,2 -7,5 -8,6 -8,27 v 44 l -2,43 -13,30 -25,8 -26,-8 -28,-20 -25,-30 -23,-33 -23,-31 -23,-28 -20,-20 -35,-21 -31,-7 h -28 l -28,5 -25,5 -28,2 -33,-2 -38,-13 -46,-23 -48,-35 -51,-46 -54,-53 -48,-59 -46,-66 -38,-69 -30,-71 -26,-78 -25,-92 -26,-97 -27,-101 -31,-99 -36,-94 -35,-84 z"
   id="path57"
   inkscape:connector-curvature="0"
   style="fill:#000000;stroke:none" />
        <path
   d="m 10457,14180 7,-28 11,-35 15,-43 18,-51 22,-54 26,-61 30,-61 31,-61 33,-63 36,-61 38,-59 38,-53 40,-48 41,-44 43,-35 41,-26 2,-10 v -10 l -2,-8 -8,-5 h -10 l -13,3 -15,5 -18,13 -12,12 -16,18 -22,28 -23,36 -28,40 -31,46 -33,51 -33,56 -33,58 -30,61 -33,64 -28,66 -28,66 -23,66 -18,64 z"
   id="path59"
   inkscape:connector-curvature="0"
   style="fill:#000000;stroke:none" />
        <path
   d="m 10375,14216 11,-66 20,-97 30,-117 41,-132 51,-130 58,-122 66,-101 74,-71 v -21 l -13,-12 -20,5 -30,23 -23,35 -38,69 -46,94 -48,114 -46,127 -41,135 -30,137 z"
   id="path61"
   inkscape:connector-curvature="0"
   style="fill:#000000;stroke:none" />
        <path
   d="m 9003,14521 15,7 21,6 25,2 h 28 l 28,-5 28,-5 28,-8 25,-12 28,-16 44,-20 50,-23 54,-23 53,-23 48,-20 36,-18 23,-7 23,-21 v -23 l -13,-25 -20,-23 -8,-2 h -13 l -17,2 -18,3 -21,7 -22,8 -21,8 -23,10 -25,7 -46,16 -61,20 -66,23 -68,25 -61,21 -46,15 -23,7 -18,11 -5,17 13,26 z"
   id="path63"
   inkscape:connector-curvature="0"
   style="fill:#ff4c00;stroke:none" />
        <path
   d="m 9839,14734 -5,13 -10,20 -15,28 -15,31 -18,30 -16,28 -15,23 -12,13 17,2 26,6 25,5 31,5 28,2 h 22 l 18,-2 10,-10 3,-16 -5,-25 -10,-28 -13,-33 -15,-31 -13,-25 -10,-23 z"
   id="path65"
   inkscape:connector-curvature="0"
   style="fill:#ff4c00;stroke:none" />
        <path
   d="m 9654,14239 12,12 18,18 21,23 22,26 21,25 18,25 12,21 5,15 h 26 25 28 26 27 23 21 17 l 23,-5 31,-5 38,-8 36,-10 35,-10 28,-10 20,-8 8,-10 -3,-5 -5,-5 -10,-8 -12,-8 -18,-7 -23,-8 -28,-10 -31,-8 -33,-7 -40,-8 -46,-7 -48,-6 -54,-5 -58,-5 -64,-2 z"
   id="path67"
   inkscape:connector-curvature="0"
   style="fill:#ff4c00;stroke:none" />
        <path
   d="m 10500,14859 v 20 l -8,36 -10,46 -12,50 -13,51 -13,51 -10,41 -8,28 5,5 11,2 h 12 16 l 12,-2 13,-5 8,-5 5,-8 10,-15 18,-16 15,-22 7,-31 -2,-53 -13,-71 -18,-67 z"
   id="path69"
   inkscape:connector-curvature="0"
   style="fill:#ff4c00;stroke:none" />
        <path
   d="m 11661,13382 -5,15 -10,18 -15,18 -20,20 -21,21 -25,15 -26,15 -25,10 -30,11 -44,17 -53,21 -53,23 -54,20 -48,20 -36,15 -23,11 -27,5 -21,-18 -7,-26 -3,-30 5,-8 8,-10 12,-10 18,-10 18,-10 20,-10 21,-11 20,-10 23,-13 43,-22 59,-31 63,-30 64,-33 55,-31 44,-20 23,-13 20,-5 15,10 10,26 z"
   id="path71"
   inkscape:connector-curvature="0"
   style="fill:#ff4c00;stroke:none" />
        <path
   d="m 11237,14135 13,5 23,7 30,8 33,10 36,8 33,7 25,5 h 18 l -10,16 -15,17 -16,26 -15,23 -18,23 -18,17 -15,11 -13,2 -12,-10 -15,-20 -13,-28 -13,-31 -13,-30 -12,-31 -8,-20 z"
   id="path73"
   inkscape:connector-curvature="0"
   style="fill:#ff4c00;stroke:none" />
        <path
   d="m 11008,13657 v 43 l 8,63 10,64 13,38 -18,18 -18,18 -18,20 -20,20 -18,18 -15,18 -15,15 -13,13 -18,13 -28,17 -30,23 -31,21 -33,17 -25,16 -23,7 -10,-2 -3,-13 8,-28 15,-38 28,-53 41,-67 53,-76 71,-86 z"
   id="path75"
   inkscape:connector-curvature="0"
   style="fill:#ff4c00;stroke:none" />
        <path
   d="m 10874,14696 15,15 30,21 41,23 46,28 48,25 43,25 38,21 26,15 -8,18 -18,18 -23,15 h -17 l -8,-3 -10,-2 h -13 -13 -12 l -13,-3 -15,-5 -13,-10 -15,-15 -20,-23 -23,-28 -23,-31 -21,-30 -15,-28 -7,-25 z"
   id="path77"
   inkscape:connector-curvature="0"
   style="fill:#ff4c00;stroke:none" />
        <path
   d="m 9364,14234 h -3 -12 -15 -23 -28 -31 l -33,2 h -35 l -36,3 h -36 l -33,2 -33,3 -28,2 -25,3 -20,2 -16,6 -25,10 -23,10 -18,10 -12,10 -13,13 -5,13 -3,15 v 18 l 5,2 h 13 l 20,-2 26,-5 30,-11 33,-10 38,-12 41,-13 43,-13 41,-13 43,-10 41,-12 38,-11 36,-5 30,-5 z"
   id="path79"
   inkscape:connector-curvature="0"
   style="fill:#ffe500;stroke:none" />
        <path
   d="m 9702,14470 -5,-8 -8,-5 -10,-2 h -10 l -10,2 -15,3 -16,7 -17,6 -28,12 -44,23 -53,33 -56,33 -56,33 -51,33 -38,23 -23,13 -20,15 -8,20 v 16 l 11,12 12,6 18,7 18,8 20,10 10,8 13,7 15,5 16,5 15,3 18,-3 17,-7 18,-18 23,-23 33,-30 36,-36 40,-33 38,-33 33,-28 26,-20 15,-13 15,-15 13,-23 5,-26 z"
   id="path81"
   inkscape:connector-curvature="0"
   style="fill:#ffe500;stroke:none" />
        <path
   d="m 10238,15024 -2,18 5,15 10,15 13,13 12,10 16,10 12,8 10,5 11,-51 10,-53 13,-51 10,-48 12,-43 8,-41 8,-31 5,-22 5,-39 5,-43 v -38 l -10,-28 -13,-18 -13,-2 -17,10 -18,30 -16,26 -17,30 -21,39 -23,38 -22,38 -18,33 -18,28 -10,18 -13,30 -5,25 3,26 10,18 12,15 16,10 15,5 z"
   id="path83"
   inkscape:connector-curvature="0"
   style="fill:#ffe500;stroke:none" />
        <path
   d="m 10518,14658 5,48 23,61 38,72 41,76 45,86 38,89 28,92 11,91 15,-81 -15,-92 -34,-96 -45,-94 -54,-89 -45,-74 -36,-56 z"
   id="path85"
   inkscape:connector-curvature="0"
   style="fill:#ffe500;stroke:none" />
        <path
   d="m 11204,13446 10,-10 28,-31 41,-41 48,-48 51,-48 48,-46 41,-36 30,-20 26,-13 23,-7 20,-8 18,-2 h 15 l 15,5 13,10 13,13 v 5 l -11,10 -15,13 -23,12 -28,18 -30,15 -36,21 -35,20 -38,20 -41,23 -38,21 -36,22 -33,23 -30,21 -26,20 z"
   id="path87"
   inkscape:connector-curvature="0"
   style="fill:#ffe500;stroke:none" />
        <path
   d="m 11140,13852 3,-17 13,-16 20,-12 33,-18 28,-13 48,-15 56,-15 66,-18 61,-18 59,-15 43,-13 25,-8 26,-2 20,8 10,12 3,16 -5,15 -5,15 -8,20 -8,21 -2,12 -3,16 -5,15 -7,13 -11,15 -12,10 -18,5 -26,3 h -33 -45 l -51,5 -51,2 -51,5 -43,5 -33,6 -18,2 -10,3 -10,-3 -13,-2 -13,-3 -12,-8 -10,-7 -8,-10 z"
   id="path89"
   inkscape:connector-curvature="0"
   style="fill:#ffe500;stroke:none" />
        <path
   d="m 11173,14623 23,25 5,36 -5,35 -5,26 -45,-31 -46,-28 -46,-25 -43,-26 -38,-23 -36,-20 -28,-15 -20,-13 -15,-10 -16,-13 -17,-13 -16,-12 -15,-13 -13,-13 -10,-15 -5,-13 -2,-22 7,-13 18,-3 36,5 27,8 36,10 41,10 43,10 43,11 38,7 31,8 20,5 31,10 22,15 16,21 7,20 3,20 -3,18 -10,13 z"
   id="path91"
   inkscape:connector-curvature="0"
   style="fill:#ffe500;stroke:none" />
        <path
   d="m 10713,14572 34,38 27,58 26,77 28,83 30,92 38,89 49,81 58,71 -68,-45 -56,-74 -49,-89 -35,-99 -28,-97 -23,-86 -18,-66 z"
   id="path93"
   inkscape:connector-curvature="0"
   style="fill:#ffe500;stroke:none" />
        <path
   d="m 10218,14574 -15,13 -18,18 -18,20 -20,20 -18,21 -15,18 -13,17 -5,10 -10,8 -13,13 -13,15 -12,15 -16,18 -10,15 -10,11 -8,7 -15,28 5,28 18,10 25,-23 23,-40 18,-31 13,-23 13,-20 10,-13 12,-20 16,-23 17,-25 18,-26 18,-25 13,-21 z"
   id="path95"
   inkscape:connector-curvature="0"
   style="fill:#ffffff;stroke:none" />
        <path
   d="m 10073,15055 -25,-8 -16,10 -10,23 -10,28 -10,33 -5,36 2,30 11,15 27,5 18,-10 13,-23 10,-30 8,-36 5,-30 -3,-26 z"
   id="path97"
   inkscape:connector-curvature="0"
   style="fill:#ffffff;stroke:none" />
        <path
   d="m 10101,15159 -8,25 -7,31 7,30 36,21 23,5 20,2 15,-2 11,-3 10,-5 5,-8 2,-10 3,-10 v -25 l -8,-28 -15,-28 -23,-21 -25,-15 -18,-5 -15,10 z"
   id="path99"
   inkscape:connector-curvature="0"
   style="fill:#ffffff;stroke:none" />
        <path
   d="m 10243,15233 v 12 l -5,13 -5,13 -7,12 12,3 13,2 13,6 15,2 h 13 10 l 7,-2 5,-6 v -7 l -5,-5 -10,-8 -10,-8 -13,-5 -12,-7 -11,-8 z"
   id="path101"
   inkscape:connector-curvature="0"
   style="fill:#ffffff;stroke:none" />
        <path
   d="m 10863,14297 21,-2 h 23 28 28 27 l 23,2 18,3 13,5 13,-3 17,-2 21,2 h 23 l 20,3 20,2 h 15 11 15 l 13,8 12,10 5,13 v 13 l -5,7 -12,5 -21,-2 -23,-5 -22,-5 -18,-6 -16,-5 -15,-2 -12,-3 -11,-2 -12,-3 -16,-2 -22,-3 -28,-5 -31,-5 -30,-5 -31,-5 -23,-5 z"
   id="path103"
   inkscape:connector-curvature="0"
   style="fill:#ffffff;stroke:none" />
        <path
   d="m 11311,14526 5,-15 5,-10 7,-3 h 13 l 10,5 13,5 13,8 15,5 15,5 16,10 15,10 12,10 13,11 8,12 5,10 v 8 l -8,13 -7,10 -8,5 h -13 l -10,-2 -15,-3 -13,-8 -15,-7 -15,-10 -16,-8 -12,-10 -13,-8 -10,-10 -8,-10 -2,-10 z"
   id="path105"
   inkscape:connector-curvature="0"
   style="fill:#ffffff;stroke:none" />
        <path
   d="m 11367,14620 10,5 15,8 13,5 12,10 11,10 5,15 v 18 l -8,20 -13,21 -10,15 -13,10 -10,8 -10,2 -7,-2 -11,-3 -7,-7 -18,-18 -15,-26 -10,-27 v -31 l 5,-28 10,-18 18,-5 z"
   id="path107"
   inkscape:connector-curvature="0"
   style="fill:#ffffff;stroke:none" />
        <path
   d="m 11323,14770 11,8 10,7 12,5 16,3 -16,23 -12,25 -16,18 -15,2 -5,-12 3,-23 7,-28 z"
   id="path109"
   inkscape:connector-curvature="0"
   style="fill:#ffffff;stroke:none" />
       </g>
      </g>
     </g>
    </g>
   </g>
  </g>
 </g>
</svg>