<?xml version="1.0" encoding="UTF-8" standalone="no"?>
<svg
   xmlns:ooo="http://xml.openoffice.org/svg/export"
   xmlns:dc="http://purl.org/dc/elements/1.1/"
   xmlns:cc="http://creativecommons.org/ns#"
   xmlns:rdf="http://www.w3.org/1999/02/22-rdf-syntax-ns#"
   xmlns:svg="http://www.w3.org/2000/svg"
   xmlns="http://www.w3.org/2000/svg"
   xmlns:sodipodi="http://sodipodi.sourceforge.net/DTD/sodipodi-0.dtd"
   xmlns:inkscape="http://www.inkscape.org/namespaces/inkscape"
   version="1.2"
   width="72.870003mm"
   height="83.159996mm"
   viewBox="0 0 7287.0003 8315.9996"
   preserveAspectRatio="xMidYMid"
   xml:space="preserve"
   id="svg123"
   sodipodi:docname="cakehoho.svg"
   style="fill-rule:evenodd;stroke-width:28.22200012;stroke-linejoin:round"
   inkscape:version="0.92.5 (2060ec1f9f, 2020-04-08)"><metadata
   id="metadata127"><rdf:RDF><cc:Work
       rdf:about=""><dc:format>image/svg+xml</dc:format><dc:type
         rdf:resource="http://purl.org/dc/dcmitype/StillImage" /></cc:Work></rdf:RDF></metadata><sodipodi:namedview
   pagecolor="#ffffff"
   bordercolor="#666666"
   borderopacity="1"
   objecttolerance="10"
   gridtolerance="10"
   guidetolerance="10"
   inkscape:pageopacity="0"
   inkscape:pageshadow="2"
   inkscape:window-width="664"
   inkscape:window-height="487"
   id="namedview125"
   showgrid="false"
   inkscape:zoom="0.2102413"
   inkscape:cx="137.72598"
   inkscape:cy="157.15275"
   inkscape:window-x="0"
   inkscape:window-y="0"
   inkscape:window-maximized="0"
   inkscape:current-layer="svg123" />
 <defs
   class="ClipPathGroup"
   id="defs8">
  <clipPath
   id="presentation_clip_path"
   clipPathUnits="userSpaceOnUse">
   <rect
   x="0"
   y="0"
   width="21000"
   height="29700"
   id="rect2" />
  </clipPath>
  <clipPath
   id="presentation_clip_path_shrink"
   clipPathUnits="userSpaceOnUse">
   <rect
   x="21"
   y="29"
   width="20958"
   height="29641"
   id="rect5" />
  </clipPath>
 </defs>
 <defs
   class="TextShapeIndex"
   id="defs12">
  <g
   ooo:slide="id1"
   ooo:id-list="id3"
   id="g10" />
 </defs>
 <defs
   class="EmbeddedBulletChars"
   id="defs44">
  <g
   id="bullet-char-template-57356"
   transform="matrix(4.8828125e-4,0,0,-4.8828125e-4,0,0)">
   <path
   d="M 580,1141 1163,571 580,0 -4,571 Z"
   id="path14"
   inkscape:connector-curvature="0" />
  </g>
  <g
   id="bullet-char-template-57354"
   transform="matrix(4.8828125e-4,0,0,-4.8828125e-4,0,0)">
   <path
   d="M 8,1128 H 1137 V 0 H 8 Z"
   id="path17"
   inkscape:connector-curvature="0" />
  </g>
  <g
   id="bullet-char-template-10146"
   transform="matrix(4.8828125e-4,0,0,-4.8828125e-4,0,0)">
   <path
   d="M 174,0 602,739 174,1481 1456,739 Z M 1358,739 309,1346 659,739 Z"
   id="path20"
   inkscape:connector-curvature="0" />
  </g>
  <g
   id="bullet-char-template-10132"
   transform="matrix(4.8828125e-4,0,0,-4.8828125e-4,0,0)">
   <path
   d="M 2015,739 1276,0 H 717 l 543,543 H 174 v 393 h 1086 l -543,545 h 557 z"
   id="path23"
   inkscape:connector-curvature="0" />
  </g>
  <g
   id="bullet-char-template-10007"
   transform="matrix(4.8828125e-4,0,0,-4.8828125e-4,0,0)">
   <path
   d="m 0,-2 c -7,16 -16,29 -25,39 l 381,530 c -94,256 -141,385 -141,387 0,25 13,38 40,38 9,0 21,-2 34,-5 21,4 42,12 65,25 l 27,-13 111,-251 280,301 64,-25 24,25 c 21,-10 41,-24 62,-43 C 886,937 835,863 770,784 769,783 710,716 594,584 L 774,223 c 0,-27 -21,-55 -63,-84 l 16,-20 C 717,90 699,76 672,76 641,76 570,178 457,381 L 164,-76 c -22,-34 -53,-51 -92,-51 -42,0 -63,17 -64,51 -7,9 -10,24 -10,44 0,9 1,19 2,30 z"
   id="path26"
   inkscape:connector-curvature="0" />
  </g>
  <g
   id="bullet-char-template-10004"
   transform="matrix(4.8828125e-4,0,0,-4.8828125e-4,0,0)">
   <path
   d="M 285,-33 C 182,-33 111,30 74,156 52,228 41,333 41,471 c 0,78 14,145 41,201 34,71 87,106 158,106 53,0 88,-31 106,-94 l 23,-176 c 8,-64 28,-97 59,-98 l 735,706 c 11,11 33,17 66,17 42,0 63,-15 63,-46 V 965 c 0,-36 -10,-64 -30,-84 L 442,47 C 390,-6 338,-33 285,-33 Z"
   id="path29"
   inkscape:connector-curvature="0" />
  </g>
  <g
   id="bullet-char-template-9679"
   transform="matrix(4.8828125e-4,0,0,-4.8828125e-4,0,0)">
   <path
   d="M 813,0 C 632,0 489,54 383,161 276,268 223,411 223,592 c 0,181 53,324 160,431 106,107 249,161 430,161 179,0 323,-54 432,-161 108,-107 162,-251 162,-431 0,-180 -54,-324 -162,-431 C 1136,54 992,0 813,0 Z"
   id="path32"
   inkscape:connector-curvature="0" />
  </g>
  <g
   id="bullet-char-template-8226"
   transform="matrix(4.8828125e-4,0,0,-4.8828125e-4,0,0)">
   <path
   d="m 346,457 c -73,0 -137,26 -191,78 -54,51 -81,114 -81,188 0,73 27,136 81,188 54,52 118,78 191,78 73,0 134,-26 185,-79 51,-51 77,-114 77,-187 0,-75 -25,-137 -76,-188 -50,-52 -112,-78 -186,-78 z"
   id="path35"
   inkscape:connector-curvature="0" />
  </g>
  <g
   id="bullet-char-template-8211"
   transform="matrix(4.8828125e-4,0,0,-4.8828125e-4,0,0)">
   <path
   d="M -4,459 H 1135 V 606 H -4 Z"
   id="path38"
   inkscape:connector-curvature="0" />
  </g>
  <g
   id="bullet-char-template-61548"
   transform="matrix(4.8828125e-4,0,0,-4.8828125e-4,0,0)">
   <path
   d="m 173,740 c 0,163 58,303 173,419 116,115 255,173 419,173 163,0 302,-58 418,-173 116,-116 174,-256 174,-419 0,-163 -58,-303 -174,-418 C 1067,206 928,148 765,148 601,148 462,206 346,322 231,437 173,577 173,740 Z"
   id="path41"
   inkscape:connector-curvature="0" />
  </g>
 </defs>
 <g
   id="g49"
   transform="translate(-6856,-10692)">
  <g
   id="id2"
   class="Master_Slide">
   <g
   id="bg-id2"
   class="Background" />
   <g
   id="bo-id2"
   class="BackgroundObjects" />
  </g>
 </g>
 <g
   class="SlideGroup"
   id="g121"
   transform="translate(-6856,-10692)">
  <g
   id="g119">
   <g
   id="container-id1">
    <g
   id="id1"
   class="Slide"
   clip-path="url(#presentation_clip_path)">
     <g
   class="Page"
   id="g115">
      <g
   class="Graphic"
   id="g113">
       <g
   id="id3">
        <rect
   class="BoundingBox"
   x="6856"
   y="10692"
   width="7287"
   height="8316"
   id="rect51"
   style="fill:none;stroke:none" />
        <defs
   id="defs56">
         <clipPath
   id="clip_path_1"
   clipPathUnits="userSpaceOnUse">
          <path
   d="m 6856,10692 h 7286 v 8315 H 6856 Z"
   id="path53"
   inkscape:connector-curvature="0" />
         </clipPath>
        </defs>
        <g
   clip-path="url(#clip_path_1)"
   id="g110">
         <path
   d="m 10309,13050 -41,-33 -35,-31 -31,-35 -25,-33 -23,-38 -18,-41 -18,-46 -12,-48 v 0 l -16,-125 16,-127 43,-114 66,-104 86,-92 102,-68 114,-43 125,-16 v 0 l -21,44 -17,43 -13,38 -8,43 -5,41 -2,43 2,43 8,48 v 0 l 15,54 28,46 36,40 38,38 35,38 28,41 16,43 v 54 0 l -16,55 -25,54 -33,46 -41,38 -46,30 -50,23 -56,13 -56,2 v 0 l 18,-18 10,-17 13,-21 7,-20 5,-20 3,-23 v -23 l -3,-25 v 0 l -7,-18 -8,-18 -10,-10 -10,-10 -11,-13 -10,-13 -10,-12 -7,-18 v 0 l -3,-15 -3,-13 -2,-15 v -13 -13 l 2,-13 3,-15 3,-15 v 0 l -21,15 -15,13 -18,15 -13,15 -10,18 -10,21 -7,20 -8,23 v 0 l -8,35 -2,36 2,33 5,33 13,30 15,31 23,28 26,25 v 0 l 73,18 71,3 72,-16 66,-28 61,-43 50,-51 39,-63 22,-71 v 0 -56 l -15,-48 -30,-41 -36,-41 -41,-40 -35,-44 -31,-45 -17,-59 v 0 l -8,-58 -3,-54 3,-53 8,-51 12,-48 18,-53 25,-49 28,-50 v 0 l -147,-18 -145,30 -140,69 -121,101 -97,125 -66,142 -28,148 23,144 v 0 l 20,59 26,53 28,46 33,43 35,38 43,36 49,30 z"
   id="path58"
   inkscape:connector-curvature="0"
   style="fill:#f2e57f;stroke:none" />
         <path
   d="m 10118,11459 -312,-627 246,-130 z"
   id="path60"
   inkscape:connector-curvature="0"
   style="fill:#f2e57f;stroke:none" />
         <path
   d="m 10606,11274 46,-582 356,23 z"
   id="path62"
   inkscape:connector-curvature="0"
   style="fill:#000000;stroke:none" />
         <path
   d="m 11084,11563 427,-645 175,211 z"
   id="path64"
   inkscape:connector-curvature="0"
   style="fill:#f2e57f;stroke:none" />
         <path
   d="m 11503,12006 490,-290 204,246 z"
   id="path66"
   inkscape:connector-curvature="0"
   style="fill:#000000;stroke:none" />
         <path
   d="m 11450,12582 577,-68 -11,335 z"
   id="path68"
   inkscape:connector-curvature="0"
   style="fill:#f2e57f;stroke:none" />
         <path
   d="m 11066,13065 402,333 -178,155 z"
   id="path70"
   inkscape:connector-curvature="0"
   style="fill:#000000;stroke:none" />
         <path
   d="m 9722,11589 -490,-511 -112,290 z"
   id="path72"
   inkscape:connector-curvature="0"
   style="fill:#f2e57f;stroke:none" />
         <path
   d="m 9392,12107 -625,-249 -89,249 z"
   id="path74"
   inkscape:connector-curvature="0"
   style="fill:#000000;stroke:none" />
         <path
   d="m 9260,12648 -511,44 66,269 z"
   id="path76"
   inkscape:connector-curvature="0"
   style="fill:#f2e57f;stroke:none" />
         <path
   d="m 9689,13202 -401,343 243,158 z"
   id="path78"
   inkscape:connector-curvature="0"
   style="fill:#000000;stroke:none" />
         <path
   d="m 7194,15870 269,336 292,264 316,203 337,150 364,109 383,74 409,51 435,38"
   id="path80"
   inkscape:connector-curvature="0"
   style="fill:none;stroke:#00ffff" />
         <path
   d="m 7196,15868 -5,2 z"
   id="path82"
   inkscape:connector-curvature="0"
   style="fill:#00ffff;stroke:none" />
         <path
   d="m 9999,17097 v -5 z"
   id="path84"
   inkscape:connector-curvature="0"
   style="fill:#00ffff;stroke:none" />
         <path
   d="m 9999,17095 567,18 531,-33 498,-94 472,-148 445,-208 424,-272 414,-333 407,-401"
   id="path86"
   inkscape:connector-curvature="0"
   style="fill:none;stroke:#00ffff" />
         <path
   d="m 9999,17092 v 5 z"
   id="path88"
   inkscape:connector-curvature="0"
   style="fill:#00ffff;stroke:none" />
         <path
   d="m 13757,15626 -3,-2 z"
   id="path90"
   inkscape:connector-curvature="0"
   style="fill:#00ffff;stroke:none" />
         <path
   d="m 10037,13865 -2,8 -3,13 -3,23 -2,28 -3,33 -5,33 -2,33 v 30 0 l -3,38 v 38 41 36 l 3,35 v 26 17 5 0 l -71,6 -186,17 -264,44 -302,71 -300,114 -259,165 -181,221 -63,290 v 0 l 73,234 181,195 264,160 312,115 336,66 328,12 289,-40 224,-102 v 0 l -216,13 -219,-20 -213,-54 -198,-79 -178,-104 -142,-127 -107,-142 -56,-155 v 0 l 10,-79 51,-81 86,-79 120,-76 145,-74 167,-68 183,-59 196,-48 v 0 l 102,805 v 0 l 12,21 15,17 16,16 18,12 20,8 20,8 23,2 h 25 v 0 l 31,-2 28,-11 25,-12 23,-18 20,-20 16,-26 10,-28 5,-30 v 0 l -10,-770 v 0 l 140,-5 210,7 257,23 272,51 264,81 231,125 173,168 87,226 v 0 l -39,188 -152,198 -246,198 -318,183 -371,163 -401,129 -415,87 -406,33 v 0 h -252 l -236,-13 -229,-25 -218,-41 -219,-59 -218,-76 -224,-101 -231,-125 v 0 l 252,203 254,166 256,129 262,99 269,71 282,54 298,33 315,20 v 0 l 223,-15 356,-61 440,-115 470,-165 444,-226 371,-287 242,-353 68,-422 v 0 l -58,-256 -117,-204 -168,-157 -213,-117 -242,-84 -264,-58 -274,-41 -277,-28 v 0 l -94,-5 h -102 l -107,2 -99,8 -86,8 -71,7 -43,5 -18,3 v 0 -5 l 2,-18 3,-25 2,-31 3,-35 5,-39 3,-35 2,-36 v 0 l 3,-28 5,-28 2,-30 3,-28 v -25 -18 l 2,-13 v -8 0 l 61,3 165,8 247,17 302,31 338,56 346,79 330,109 287,145 v 0 l 216,137 206,132 183,137 165,148 145,160 119,183 94,208 61,239 v 0 l 18,165 3,183 -13,188 -23,185 -33,173 -38,150 -41,117 -38,76 v 0 l -119,117 -148,86 -170,56 -180,18 -188,-25 -183,-71 -168,-122 -150,-181 v 0 l -58,269 -102,242 -137,216 -178,185 -206,150 -234,104 -254,72 -271,22 v 0 l -237,-17 -218,-49 -201,-73 -183,-110 -163,-137 -142,-165 -117,-193 -94,-219 v 0 l -33,59 -33,48 -33,46 -35,43 -36,41 -41,38 -45,38 -51,41 v 0 l -48,35 -44,33 -45,28 -44,23 -43,20 -48,21 -53,17 -56,18 v 0 l -1039,-325 1133,112 -1172,-465 1172,223 -1423,-614 v 0 l -5,58 -5,51 -3,48 -2,48 v 46 51 l 2,51 3,56 v 0 l 5,53 2,51 5,46 11,43 5,43 7,46 10,48 11,51 v 0 l -92,-92 -79,-94 -66,-96 -56,-97 -43,-104 -33,-112 -23,-119 -17,-132 v 0 l -3,-92 8,-99 12,-99 18,-94 18,-84 15,-66 10,-43 5,-18 v 0 l 3,-38 18,-109 48,-165 91,-209 153,-241 226,-259 315,-267 419,-259 v 0 l 254,-120 265,-96 261,-79 247,-63 218,-44 173,-30 112,-18 z"
   id="path92"
   inkscape:connector-curvature="0"
   style="fill:#000000;stroke:none" />
         <path
   d="m 7359,17562 28,28 28,23 20,18 23,15 20,13 21,15 23,15 25,21 v 0 l 23,15 23,18 23,15 20,13 18,12 15,8 10,8 h 3 v 0 l 5,10 15,23 20,35 28,41 31,48 33,53 33,51 33,46 v 0 l 25,36 28,33 23,30 23,31 23,28 25,27 28,34 31,33 v 0 l 808,297 -679,-371 679,109 -735,-297 745,58 -607,-198 v 0 l 86,3 76,-3 74,-5 71,-13 69,-15 71,-23 71,-23 79,-35 v 0 l 94,-48 86,-54 74,-56 68,-61 64,-66 56,-76 53,-84 51,-94 v 0 l 97,224 119,198 145,170 167,137 191,112 206,81 226,51 241,15 v 0 l 280,-25 259,-71 236,-114 209,-155 177,-186 140,-221 102,-249 56,-274 v 0 l 12,12 33,39 51,53 64,61 71,68 81,64 89,53 87,41 v 0 l 94,20 101,10 h 102 l 101,-7 89,-10 72,-10 45,-8 18,-5 v 0 l -33,73 -109,191 -191,262 -282,307 -378,303 -491,261 -610,178 -734,56 v 0 h -277 l -373,-8 -442,-35 -475,-89 -481,-160 -454,-259 -399,-379 z"
   id="path94"
   inkscape:connector-curvature="0"
   style="fill:#000000;stroke:none" />
         <path
   d="m 7118,15992 -49,107 -38,101 -30,97 -18,97 -13,99 -2,101 5,110 15,116 v 0 l 15,99 21,92 25,84 28,79 36,78 43,77 51,78 61,82 v 0 l -87,-69 -76,-71 -64,-76 -50,-79 -44,-84 -35,-91 -26,-100 -20,-109 v 0 l -10,-119 v -115 l 10,-104 26,-101 35,-99 53,-94 61,-92 z"
   id="path96"
   inkscape:connector-curvature="0"
   style="fill:#000000;stroke:none" />
         <path
   d="m 13485,17359 112,-76 99,-82 84,-86 71,-94 58,-104 46,-112 36,-122 25,-134 v 0 l 13,-117 2,-110 -7,-104 -18,-99 -28,-96 -38,-97 -54,-94 -66,-102 v 0 l 89,89 74,89 61,92 43,99 31,101 20,110 5,117 -8,122 v 0 l -22,147 -41,132 -59,122 -73,107 -92,96 -104,82 -122,68 z"
   id="path98"
   inkscape:connector-curvature="0"
   style="fill:#000000;stroke:none" />
         <path
   d="m 10106,13863 106,-498 v 0 l 18,-13 15,-10 16,-8 17,-5 18,-5 18,-2 18,-3 h 20 v 0 h 23 l 23,3 20,2 18,8 18,5 20,8 15,15 18,15 v 0 l -20,386 48,-5 66,-429 v 0 l -30,-21 -31,-20 -28,-15 -28,-13 -30,-10 -31,-13 -33,-7 -38,-3 v 0 l -33,-2 -30,-3 -31,-2 -28,2 -28,3 -30,5 -28,7 -33,8 v 0 l -74,625 v 0 0 h 3 5 l 5,-3 h 5 5 5 5 v 0 h 5 5 l 8,-2 h 5 5 3 2 z"
   id="path100"
   inkscape:connector-curvature="0"
   style="fill:#000000;stroke:none" />
         <path
   d="m 10014,14302 v 6 12 21 22 26 28 28 l 3,25 v 0 31 l 2,33 3,33 2,33 3,28 v 20 l 2,15 v 5 0 l -73,36 v 0 -5 l -3,-15 -5,-26 -2,-30 -5,-36 -6,-35 -2,-39 -3,-33 v 0 l -2,-33 -3,-35 v -33 -33 -31 -23 -15 -7 0 z"
   id="path102"
   inkscape:connector-curvature="0"
   style="fill:#000000;stroke:none" />
         <path
   d="m 10436,14323 -10,236 63,-5 21,-236 z"
   id="path104"
   inkscape:connector-curvature="0"
   style="fill:#000000;stroke:none" />
         <path
   d="m 7844,17534 841,105 v 0 l -86,22 -79,13 -76,10 -74,3 -73,-5 -77,-10 -78,-18 -84,-23 v 0 l -31,-10 -28,-10 -25,-11 -25,-10 -26,-12 -25,-13 -26,-13 z"
   id="path106"
   inkscape:connector-curvature="0"
   style="fill:#000000;stroke:none" />
         <path
   d="m 8048,17903 68,15 76,13 82,10 86,5 84,5 84,-3 79,-5 73,-12 v 0 l -5,15 21,28 40,33 48,38 51,38 41,33 23,23 -3,10 v 0 l -68,-7 -120,-28 -150,-44 -160,-45 -150,-49 -122,-40 -73,-28 z"
   id="path108"
   inkscape:connector-curvature="0"
   style="fill:#000000;stroke:none" />
        </g>
       </g>
      </g>
     </g>
    </g>
   </g>
  </g>
 </g>
</svg>