<?xml version="1.0" encoding="UTF-8" standalone="no"?>
<svg
   xmlns:ooo="http://xml.openoffice.org/svg/export"
   xmlns:dc="http://purl.org/dc/elements/1.1/"
   xmlns:cc="http://creativecommons.org/ns#"
   xmlns:rdf="http://www.w3.org/1999/02/22-rdf-syntax-ns#"
   xmlns:svg="http://www.w3.org/2000/svg"
   xmlns="http://www.w3.org/2000/svg"
   xmlns:sodipodi="http://sodipodi.sourceforge.net/DTD/sodipodi-0.dtd"
   xmlns:inkscape="http://www.inkscape.org/namespaces/inkscape"
   version="1.2"
   width="30.99mm"
   height="29.030001mm"
   viewBox="0 0 3099 2903.0001"
   preserveAspectRatio="xMidYMid"
   xml:space="preserve"
   id="svg503"
   sodipodi:docname="calcpapr.svg"
   style="fill-rule:evenodd;stroke-width:28.22200012;stroke-linejoin:round"
   inkscape:version="0.92.5 (2060ec1f9f, 2020-04-08)"><metadata
   id="metadata507"><rdf:RDF><cc:Work
       rdf:about=""><dc:format>image/svg+xml</dc:format><dc:type
         rdf:resource="http://purl.org/dc/dcmitype/StillImage" /></cc:Work></rdf:RDF></metadata><sodipodi:namedview
   pagecolor="#ffffff"
   bordercolor="#666666"
   borderopacity="1"
   objecttolerance="10"
   gridtolerance="10"
   guidetolerance="10"
   inkscape:pageopacity="0"
   inkscape:pageshadow="2"
   inkscape:window-width="664"
   inkscape:window-height="487"
   id="namedview505"
   showgrid="false"
   inkscape:zoom="0.2102413"
   inkscape:cx="58.582678"
   inkscape:cy="54.840943"
   inkscape:window-x="0"
   inkscape:window-y="0"
   inkscape:window-maximized="0"
   inkscape:current-layer="svg503" />
 <defs
   class="ClipPathGroup"
   id="defs8">
  <clipPath
   id="presentation_clip_path"
   clipPathUnits="userSpaceOnUse">
   <rect
   x="0"
   y="0"
   width="21000"
   height="29700"
   id="rect2" />
  </clipPath>
  <clipPath
   id="presentation_clip_path_shrink"
   clipPathUnits="userSpaceOnUse">
   <rect
   x="21"
   y="29"
   width="20958"
   height="29641"
   id="rect5" />
  </clipPath>
 </defs>
 <defs
   class="TextShapeIndex"
   id="defs12">
  <g
   ooo:slide="id1"
   ooo:id-list="id3"
   id="g10" />
 </defs>
 <defs
   class="EmbeddedBulletChars"
   id="defs44">
  <g
   id="bullet-char-template-57356"
   transform="matrix(4.8828125e-4,0,0,-4.8828125e-4,0,0)">
   <path
   d="M 580,1141 1163,571 580,0 -4,571 Z"
   id="path14"
   inkscape:connector-curvature="0" />
  </g>
  <g
   id="bullet-char-template-57354"
   transform="matrix(4.8828125e-4,0,0,-4.8828125e-4,0,0)">
   <path
   d="M 8,1128 H 1137 V 0 H 8 Z"
   id="path17"
   inkscape:connector-curvature="0" />
  </g>
  <g
   id="bullet-char-template-10146"
   transform="matrix(4.8828125e-4,0,0,-4.8828125e-4,0,0)">
   <path
   d="M 174,0 602,739 174,1481 1456,739 Z M 1358,739 309,1346 659,739 Z"
   id="path20"
   inkscape:connector-curvature="0" />
  </g>
  <g
   id="bullet-char-template-10132"
   transform="matrix(4.8828125e-4,0,0,-4.8828125e-4,0,0)">
   <path
   d="M 2015,739 1276,0 H 717 l 543,543 H 174 v 393 h 1086 l -543,545 h 557 z"
   id="path23"
   inkscape:connector-curvature="0" />
  </g>
  <g
   id="bullet-char-template-10007"
   transform="matrix(4.8828125e-4,0,0,-4.8828125e-4,0,0)">
   <path
   d="m 0,-2 c -7,16 -16,29 -25,39 l 381,530 c -94,256 -141,385 -141,387 0,25 13,38 40,38 9,0 21,-2 34,-5 21,4 42,12 65,25 l 27,-13 111,-251 280,301 64,-25 24,25 c 21,-10 41,-24 62,-43 C 886,937 835,863 770,784 769,783 710,716 594,584 L 774,223 c 0,-27 -21,-55 -63,-84 l 16,-20 C 717,90 699,76 672,76 641,76 570,178 457,381 L 164,-76 c -22,-34 -53,-51 -92,-51 -42,0 -63,17 -64,51 -7,9 -10,24 -10,44 0,9 1,19 2,30 z"
   id="path26"
   inkscape:connector-curvature="0" />
  </g>
  <g
   id="bullet-char-template-10004"
   transform="matrix(4.8828125e-4,0,0,-4.8828125e-4,0,0)">
   <path
   d="M 285,-33 C 182,-33 111,30 74,156 52,228 41,333 41,471 c 0,78 14,145 41,201 34,71 87,106 158,106 53,0 88,-31 106,-94 l 23,-176 c 8,-64 28,-97 59,-98 l 735,706 c 11,11 33,17 66,17 42,0 63,-15 63,-46 V 965 c 0,-36 -10,-64 -30,-84 L 442,47 C 390,-6 338,-33 285,-33 Z"
   id="path29"
   inkscape:connector-curvature="0" />
  </g>
  <g
   id="bullet-char-template-9679"
   transform="matrix(4.8828125e-4,0,0,-4.8828125e-4,0,0)">
   <path
   d="M 813,0 C 632,0 489,54 383,161 276,268 223,411 223,592 c 0,181 53,324 160,431 106,107 249,161 430,161 179,0 323,-54 432,-161 108,-107 162,-251 162,-431 0,-180 -54,-324 -162,-431 C 1136,54 992,0 813,0 Z"
   id="path32"
   inkscape:connector-curvature="0" />
  </g>
  <g
   id="bullet-char-template-8226"
   transform="matrix(4.8828125e-4,0,0,-4.8828125e-4,0,0)">
   <path
   d="m 346,457 c -73,0 -137,26 -191,78 -54,51 -81,114 -81,188 0,73 27,136 81,188 54,52 118,78 191,78 73,0 134,-26 185,-79 51,-51 77,-114 77,-187 0,-75 -25,-137 -76,-188 -50,-52 -112,-78 -186,-78 z"
   id="path35"
   inkscape:connector-curvature="0" />
  </g>
  <g
   id="bullet-char-template-8211"
   transform="matrix(4.8828125e-4,0,0,-4.8828125e-4,0,0)">
   <path
   d="M -4,459 H 1135 V 606 H -4 Z"
   id="path38"
   inkscape:connector-curvature="0" />
  </g>
  <g
   id="bullet-char-template-61548"
   transform="matrix(4.8828125e-4,0,0,-4.8828125e-4,0,0)">
   <path
   d="m 173,740 c 0,163 58,303 173,419 116,115 255,173 419,173 163,0 302,-58 418,-173 116,-116 174,-256 174,-419 0,-163 -58,-303 -174,-418 C 1067,206 928,148 765,148 601,148 462,206 346,322 231,437 173,577 173,740 Z"
   id="path41"
   inkscape:connector-curvature="0" />
  </g>
 </defs>
 <g
   id="g49"
   transform="translate(-8950,-13398)">
  <g
   id="id2"
   class="Master_Slide">
   <g
   id="bg-id2"
   class="Background" />
   <g
   id="bo-id2"
   class="BackgroundObjects" />
  </g>
 </g>
 <g
   class="SlideGroup"
   id="g501"
   transform="translate(-8950,-13398)">
  <g
   id="g499">
   <g
   id="container-id1">
    <g
   id="id1"
   class="Slide"
   clip-path="url(#presentation_clip_path)">
     <g
   class="Page"
   id="g495">
      <g
   class="Graphic"
   id="g493">
       <g
   id="id3">
        <rect
   class="BoundingBox"
   x="8950"
   y="13398"
   width="3099"
   height="2903"
   id="rect51"
   style="fill:none;stroke:none" />
        <defs
   id="defs56">
         <clipPath
   id="clip_path_1"
   clipPathUnits="userSpaceOnUse">
          <path
   d="m 8950,13398 h 3098 v 2902 H 8950 Z"
   id="path53"
   inkscape:connector-curvature="0" />
         </clipPath>
        </defs>
        <g
   clip-path="url(#clip_path_1)"
   id="g490">
         <path
   d="m 12049,15081 -679,-844 5,-323 -7,-43 -16,-38 -22,-33 -31,-31 -33,-23 -38,-15 -41,-10 h -43 l -193,15 -201,-262 -1426,773 145,188 h 2 l 3,-2 5,-5 7,-3 -7,3 -5,5 -3,2 h -2 l 71,94 -445,346 173,160 2,-2 3,-3 5,-3 8,-5 -8,5 -5,3 -3,3 -2,2 262,244 -277,-43 -199,18 181,81 424,69 219,203 534,501 63,-51 13,-8 h 18 l 15,3 13,8 7,12 3,13 -3,15 -10,10 -12,8 -16,3 -15,-6 -15,-7 -8,-13 -2,-13 2,-15 10,-10 -12,10 -23,18 -21,15 -7,8 206,193 1281,-996 -74,-69 z"
   id="path58"
   inkscape:connector-curvature="0"
   style="fill:#c4baad;stroke:none" />
         <path
   d="m 9502,14336 15,-5 h 15 l 13,8 13,10 7,12 v 16 l -5,10 -10,10 -15,5 -18,-2 -15,-8 -13,-13 -5,-12 v -11 l 7,-12 z"
   id="path60"
   inkscape:connector-curvature="0"
   style="fill:#c4baad;stroke:none" />
         <path
   d="m 9347,14984 -13,5 -18,3 -18,-5 -12,-10 -8,-13 v -10 l 2,-13 11,-10 12,-8 h 18 l 15,3 13,10 8,10 2,13 -2,15 z"
   id="path62"
   inkscape:connector-curvature="0"
   style="fill:#c4baad;stroke:none" />
         <path
   d="m 9934,15531 -8,5 -7,2 h -8 -8 -7 l -8,-2 -8,-3 -5,-5 -7,-12 -3,-13 3,-15 7,-11 16,-7 h 15 l 15,2 13,8 7,13 6,12 -6,16 z"
   id="path64"
   inkscape:connector-curvature="0"
   style="fill:#c4baad;stroke:none" />
         <path
   d="m 9161,14961 610,570 5,-5 13,-10 15,-11 10,-7 h -7 l -8,-3 -8,-5 -7,-5 -8,-13 -2,-12 2,-13 10,-10 16,-8 15,-2 15,5 13,7 7,13 3,13 -3,12 -10,13 -5,3 -7,2 -8,3 h -8 l -43,33 534,501 64,-51 15,-8 h 15 l 15,3 13,10 8,10 5,13 -5,15 -8,10 -15,8 -15,2 -16,-5 -12,-7 -8,-13 -3,-13 3,-15 8,-10 -13,10 -23,18 -20,15 -8,8 208,193 1282,-994 -1523,-1426 -1284,994 173,162 5,-2 10,-10 13,-8 8,-5 -8,-13 v -12 l 3,-11 10,-10 12,-7 16,-3 15,5 15,8 8,12 2,13 -2,15 -10,11 -16,5 h -15 l -18,-5 -12,-8 -5,2 -13,11 -13,10 z"
   id="path66"
   inkscape:connector-curvature="0"
   style="fill:#ffffff;stroke:none" />
         <path
   d="m 9766,15523 10,3 -610,-570 -10,10 610,570 10,2 -10,-2 5,7 5,-5 z"
   id="path68"
   inkscape:connector-curvature="0"
   style="fill:#000000;stroke:none" />
         <path
   d="m 9814,15508 -2,-18 -13,8 -15,10 -13,10 -5,5 10,15 5,-5 13,-10 15,-10 8,-8 -3,-17 3,17 35,-15 -38,-2 z"
   id="path70"
   inkscape:connector-curvature="0"
   style="fill:#000000;stroke:none" />
         <path
   d="m 9779,15490 v 3 l 7,5 11,5 10,2 7,3 v -20 l -7,2 -5,-2 -5,-6 -8,-5 v 3 z"
   id="path72"
   inkscape:connector-curvature="0"
   style="fill:#000000;stroke:none" />
         <path
   d="m 9781,15429 v 0 l -12,15 -5,16 5,15 10,15 10,-10 -5,-10 v -10 -11 l 7,-5 v 0 z"
   id="path74"
   inkscape:connector-curvature="0"
   style="fill:#000000;stroke:none" />
         <path
   d="m 9850,15434 v 0 l -15,-10 -18,-5 -18,2 -18,8 10,15 13,-7 13,-3 13,5 10,5 v 0 z"
   id="path76"
   inkscape:connector-curvature="0"
   style="fill:#000000;stroke:none" />
         <path
   d="m 9847,15498 v 0 l 13,-18 5,-15 -5,-16 -10,-15 -10,10 5,11 v 10 10 l -8,7 v 0 z"
   id="path78"
   inkscape:connector-curvature="0"
   style="fill:#000000;stroke:none" />
         <path
   d="m 9819,15505 -5,3 8,-3 10,-2 8,-3 7,-2 -10,-16 -2,3 -8,3 -5,2 -8,-2 -5,2 5,-2 -2,2 h -3 z"
   id="path80"
   inkscape:connector-curvature="0"
   style="fill:#000000;stroke:none" />
         <path
   d="m 9776,15526 v 12 l 43,-33 -10,-15 -43,33 v 13 -13 l -10,8 10,5 z"
   id="path82"
   inkscape:connector-curvature="0"
   style="fill:#000000;stroke:none" />
         <path
   d="m 10300,16024 10,2 -534,-500 -10,10 534,501 10,2 -10,-2 5,7 5,-5 z"
   id="path84"
   inkscape:connector-curvature="0"
   style="fill:#000000;stroke:none" />
         <path
   d="m 10363,15973 v 0 l -63,51 10,15 64,-51 v 0 z"
   id="path86"
   inkscape:connector-curvature="0"
   style="fill:#000000;stroke:none" />
         <path
   d="m 10432,15978 v 3 l -15,-13 -18,-3 h -15 l -21,8 11,15 10,-7 h 15 l 13,2 10,8 v 2 z"
   id="path88"
   inkscape:connector-curvature="0"
   style="fill:#000000;stroke:none" />
         <path
   d="m 10432,16042 v 0 l 10,-16 8,-17 -8,-16 -10,-15 -10,15 5,5 3,11 -3,12 -5,5 v 0 z"
   id="path90"
   inkscape:connector-curvature="0"
   style="fill:#000000;stroke:none" />
         <path
   d="m 10363,16037 v 0 l 16,10 18,5 17,-3 18,-7 -10,-16 -13,8 -12,3 -13,-5 -10,-6 v 0 z"
   id="path92"
   inkscape:connector-curvature="0"
   style="fill:#000000;stroke:none" />
         <path
   d="m 10374,15986 -11,-13 -10,15 -5,18 5,15 10,16 11,-11 -5,-10 v -10 -13 l 5,-5 -11,-12 z"
   id="path94"
   inkscape:connector-curvature="0"
   style="fill:#000000;stroke:none" />
         <path
   d="m 10310,16026 v 13 l 8,-7 20,-16 23,-18 13,-12 -11,-10 -12,7 -23,18 -20,15 -8,8 v 13 -13 l -10,8 10,5 z"
   id="path96"
   inkscape:connector-curvature="0"
   style="fill:#000000;stroke:none" />
         <path
   d="m 10508,16217 11,3 -209,-194 -10,11 208,193 11,2 -11,-2 5,7 6,-5 z"
   id="path98"
   inkscape:connector-curvature="0"
   style="fill:#000000;stroke:none" />
         <path
   d="m 11790,15236 v -13 l -1282,994 11,15 1281,-994 v -12 12 l 10,-7 -10,-5 z"
   id="path100"
   inkscape:connector-curvature="0"
   style="fill:#000000;stroke:none" />
         <path
   d="m 10277,13812 -10,-2 1523,1426 10,-10 -1523,-1426 -10,-3 10,3 -5,-8 -5,5 z"
   id="path102"
   inkscape:connector-curvature="0"
   style="fill:#000000;stroke:none" />
         <path
   d="m 8993,14794 v 12 l 1284,-994 -10,-15 -1284,994 v 13 -13 l -10,8 10,5 z"
   id="path104"
   inkscape:connector-curvature="0"
   style="fill:#000000;stroke:none" />
         <path
   d="m 9156,14954 10,2 -173,-162 -10,10 173,162 10,3 -10,-3 5,8 5,-5 z"
   id="path106"
   inkscape:connector-curvature="0"
   style="fill:#000000;stroke:none" />
         <path
   d="m 9189,14941 5,-13 -10,5 -13,8 -10,10 -5,3 10,15 5,-3 10,-10 13,-7 5,-5 5,-13 -5,13 13,-6 -8,-7 z"
   id="path108"
   inkscape:connector-curvature="0"
   style="fill:#000000;stroke:none" />
         <path
   d="m 9197,14883 v 0 l -13,12 -3,16 v 15 l 8,15 15,-10 -7,-10 v -10 l 2,-6 8,-7 v 0 z"
   id="path110"
   inkscape:connector-curvature="0"
   style="fill:#000000;stroke:none" />
         <path
   d="m 9265,14888 v -3 l -18,-8 -17,-5 -18,3 -15,8 10,15 10,-8 13,-2 12,5 13,7 v -2 z"
   id="path112"
   inkscape:connector-curvature="0"
   style="fill:#000000;stroke:none" />
         <path
   d="m 9263,14951 v 0 l 12,-15 5,-18 -5,-15 -10,-15 -10,10 5,10 v 10 13 l -7,5 v 0 z"
   id="path114"
   inkscape:connector-curvature="0"
   style="fill:#000000;stroke:none" />
         <path
   d="m 9192,14941 v 3 l 15,7 20,5 h 15 l 21,-5 -10,-15 -11,5 h -15 l -15,-5 -10,-8 v 3 z"
   id="path116"
   inkscape:connector-curvature="0"
   style="fill:#000000;stroke:none" />
         <path
   d="m 9166,14956 -10,10 h 15 l 13,-10 13,-10 -5,-5 10,-10 h -16 l -12,10 -13,10 5,5 -10,10 z"
   id="path118"
   inkscape:connector-curvature="0"
   style="fill:#000000;stroke:none" />
         <path
   d="m 10658,16110 5,-5 -1520,-1426 -10,10 1520,1426 z"
   id="path120"
   inkscape:connector-curvature="0"
   style="fill:#7f7f7f;stroke:none" />
         <path
   d="m 10305,16032 43,-31 z"
   id="path122"
   inkscape:connector-curvature="0"
   style="fill:#ffffff;stroke:none" />
         <path
   d="m 10348,16001 -5,-8 -43,31 10,15 43,-30 z"
   id="path124"
   inkscape:connector-curvature="0"
   style="fill:#7f7f7f;stroke:none" />
         <path
   d="m 9771,15531 3,-3 7,-7 10,-11 8,-7 z"
   id="path126"
   inkscape:connector-curvature="0"
   style="fill:#ffffff;stroke:none" />
         <path
   d="m 9794,15498 -8,7 -10,11 -7,7 -3,3 10,10 3,-3 7,-7 11,-10 7,-8 z"
   id="path128"
   inkscape:connector-curvature="0"
   style="fill:#7f7f7f;stroke:none" />
         <path
   d="m 9161,14961 3,-2 7,-5 10,-5 5,-5 z"
   id="path130"
   inkscape:connector-curvature="0"
   style="fill:#ffffff;stroke:none" />
         <path
   d="m 9181,14938 -5,3 -7,5 -11,5 -2,3 10,15 3,-3 5,-5 12,-5 6,-7 z"
   id="path132"
   inkscape:connector-curvature="0"
   style="fill:#7f7f7f;stroke:none" />
         <path
   d="m 9237,15030 5,8 1284,-994 -10,-16 -1284,994 z"
   id="path134"
   inkscape:connector-curvature="0"
   style="fill:#7f7f7f;stroke:none" />
         <path
   d="m 9314,15101 5,8 1281,-994 -10,-15 -1282,994 z"
   id="path136"
   inkscape:connector-curvature="0"
   style="fill:#7f7f7f;stroke:none" />
         <path
   d="m 9390,15172 5,8 1281,-991 -10,-16 -1281,992 z"
   id="path138"
   inkscape:connector-curvature="0"
   style="fill:#7f7f7f;stroke:none" />
         <path
   d="m 9466,15244 5,7 1281,-991 -10,-16 -1281,992 z"
   id="path140"
   inkscape:connector-curvature="0"
   style="fill:#7f7f7f;stroke:none" />
         <path
   d="m 9542,15315 5,7 1282,-991 -10,-15 -1282,991 z"
   id="path142"
   inkscape:connector-curvature="0"
   style="fill:#7f7f7f;stroke:none" />
         <path
   d="m 9619,15388 5,8 1281,-994 -10,-15 -1281,994 z"
   id="path144"
   inkscape:connector-curvature="0"
   style="fill:#7f7f7f;stroke:none" />
         <path
   d="m 9695,15460 5,7 1281,-994 -10,-15 -1281,994 z"
   id="path146"
   inkscape:connector-curvature="0"
   style="fill:#7f7f7f;stroke:none" />
         <path
   d="m 9868,15455 5,7 1185,-918 -11,-15 -1184,918 z"
   id="path148"
   inkscape:connector-curvature="0"
   style="fill:#7f7f7f;stroke:none" />
         <path
   d="m 9847,15602 5,8 1282,-994 -10,-16 -1282,994 z"
   id="path150"
   inkscape:connector-curvature="0"
   style="fill:#7f7f7f;stroke:none" />
         <path
   d="m 9924,15673 5,8 1281,-994 -10,-15 -1281,993 z"
   id="path152"
   inkscape:connector-curvature="0"
   style="fill:#7f7f7f;stroke:none" />
         <path
   d="m 10000,15744 5,8 1281,-994 -10,-15 -1281,994 z"
   id="path154"
   inkscape:connector-curvature="0"
   style="fill:#7f7f7f;stroke:none" />
         <path
   d="m 10076,15815 5,8 1282,-994 -11,-15 -1281,994 z"
   id="path156"
   inkscape:connector-curvature="0"
   style="fill:#7f7f7f;stroke:none" />
         <path
   d="m 10152,15887 6,7 1281,-991 -10,-15 -1282,991 z"
   id="path158"
   inkscape:connector-curvature="0"
   style="fill:#7f7f7f;stroke:none" />
         <path
   d="m 10229,15958 5,7 1281,-991 -10,-15 -1281,991 z"
   id="path160"
   inkscape:connector-curvature="0"
   style="fill:#7f7f7f;stroke:none" />
         <path
   d="m 11586,15035 -5,-8 -1192,926 10,15 1192,-925 z"
   id="path162"
   inkscape:connector-curvature="0"
   style="fill:#7f7f7f;stroke:none" />
         <path
   d="m 10381,16103 5,7 1282,-996 -11,-15 -1281,996 z"
   id="path164"
   inkscape:connector-curvature="0"
   style="fill:#7f7f7f;stroke:none" />
         <path
   d="m 10458,16174 5,8 1281,-997 -10,-15 -1282,996 z"
   id="path166"
   inkscape:connector-curvature="0"
   style="fill:#7f7f7f;stroke:none" />
         <path
   d="m 9265,14880 5,8 1180,-916 -10,-15 -1180,915 z"
   id="path168"
   inkscape:connector-curvature="0"
   style="fill:#7f7f7f;stroke:none" />
         <path
   d="m 9362,14359 508,661 5,-3 16,-7 15,-8 10,-5 -8,-3 -5,-2 -7,-5 -5,-8 -5,-13 v -12 l 5,-13 10,-10 15,-5 15,2 13,5 13,11 7,15 v 13 l -5,12 -12,10 -8,3 -8,2 h -7 l -8,-2 -46,23 445,582 71,-38 16,-5 h 15 l 13,7 12,11 8,12 v 13 l -5,13 -13,10 -15,5 h -15 l -13,-8 -13,-10 -5,-13 v -15 l 5,-10 10,-10 -15,7 -23,13 -23,13 -10,5 173,226 1426,-773 -1271,-1657 -1426,773 145,188 5,-3 13,-7 12,-5 8,-5 -5,-13 v -13 l 8,-10 10,-8 15,-5 h 15 l 13,8 13,10 7,13 v 12 l -5,13 -13,10 -15,5 -15,-2 -15,-8 -13,-12 -8,2 -12,8 -13,7 z"
   id="path170"
   inkscape:connector-curvature="0"
   style="fill:#ffffff;stroke:none" />
         <path
   d="m 9868,15012 10,3 -509,-661 -15,10 509,661 10,2 -10,-2 5,5 5,-3 z"
   id="path172"
   inkscape:connector-curvature="0"
   style="fill:#000000;stroke:none" />
         <path
   d="m 9916,15005 -5,-16 -8,5 -15,8 -15,8 -5,2 5,15 5,-2 15,-8 15,-7 13,-5 -5,-16 5,16 18,-11 -23,-5 z"
   id="path174"
   inkscape:connector-curvature="0"
   style="fill:#000000;stroke:none" />
         <path
   d="m 9883,14984 v 0 l 8,8 7,7 8,3 10,3 v -16 l -5,-2 -3,-3 -7,-2 -3,-8 v 0 z"
   id="path176"
   inkscape:connector-curvature="0"
   style="fill:#000000;stroke:none" />
         <path
   d="m 9898,14923 v 0 l -15,13 -5,18 v 12 l 5,18 15,-10 -5,-8 v -12 l 5,-8 5,-8 v 0 z"
   id="path178"
   inkscape:connector-curvature="0"
   style="fill:#000000;stroke:none" />
         <path
   d="m 9964,14938 v 0 l -15,-12 -15,-5 -18,-3 -18,5 5,15 13,-5 13,3 10,5 10,8 v 0 z"
   id="path180"
   inkscape:connector-curvature="0"
   style="fill:#000000;stroke:none" />
         <path
   d="m 9952,15002 h -3 l 18,-13 5,-17 v -16 l -8,-18 -15,11 8,12 v 11 l -5,7 -8,8 h -3 z"
   id="path182"
   inkscape:connector-curvature="0"
   style="fill:#000000;stroke:none" />
         <path
   d="m 9919,15005 h -3 l 8,2 h 7 l 10,-2 11,-3 -11,-15 -5,2 -5,3 h -7 l -8,-3 h -2 2 v -2 l -2,2 z"
   id="path184"
   inkscape:connector-curvature="0"
   style="fill:#000000;stroke:none" />
         <path
   d="m 9878,15015 -5,12 46,-22 -5,-16 -46,23 -5,13 5,-13 -13,5 8,8 z"
   id="path186"
   inkscape:connector-curvature="0"
   style="fill:#000000;stroke:none" />
         <path
   d="m 10313,15594 10,3 -445,-582 -15,10 445,582 10,3 -10,-3 5,8 5,-5 z"
   id="path188"
   inkscape:connector-curvature="0"
   style="fill:#000000;stroke:none" />
         <path
   d="m 10384,15556 v 0 l -71,38 5,16 71,-39 v 0 z"
   id="path190"
   inkscape:connector-curvature="0"
   style="fill:#000000;stroke:none" />
         <path
   d="m 10450,15571 v 0 l -15,-12 -16,-8 h -17 l -18,5 5,15 13,-5 h 12 l 11,8 10,8 v 0 z"
   id="path192"
   inkscape:connector-curvature="0"
   style="fill:#000000;stroke:none" />
         <path
   d="m 10435,15632 v 0 l 17,-12 6,-18 v -15 l -8,-16 -15,11 7,10 v 10 l -5,8 -7,7 v 0 z"
   id="path194"
   inkscape:connector-curvature="0"
   style="fill:#000000;stroke:none" />
         <path
   d="m 10369,15617 v 0 l 15,13 15,8 h 18 l 18,-6 -5,-15 -13,5 h -13 l -10,-7 -10,-8 v 0 z"
   id="path196"
   inkscape:connector-curvature="0"
   style="fill:#000000;stroke:none" />
         <path
   d="m 10389,15571 -5,-15 -15,13 -6,15 v 15 l 6,18 15,-10 -5,-8 v -15 l 5,-5 5,-8 -5,-15 z"
   id="path198"
   inkscape:connector-curvature="0"
   style="fill:#000000;stroke:none" />
         <path
   d="m 10323,15597 -5,13 10,-6 23,-12 23,-13 15,-8 -5,-15 -15,8 -23,13 -23,12 -10,5 -5,13 5,-13 -11,5 6,8 z"
   id="path200"
   inkscape:connector-curvature="0"
   style="fill:#000000;stroke:none" />
         <path
   d="m 10486,15821 10,2 -173,-226 -15,10 172,226 11,3 -11,-3 6,8 5,-5 z"
   id="path202"
   inkscape:connector-curvature="0"
   style="fill:#000000;stroke:none" />
         <path
   d="m 11907,15060 5,-12 -1426,773 5,15 1426,-773 5,-13 -5,13 13,-5 -8,-8 z"
   id="path204"
   inkscape:connector-curvature="0"
   style="fill:#000000;stroke:none" />
         <path
   d="m 10646,13406 -10,-3 1271,1657 15,-10 -1271,-1657 -10,-3 10,3 -5,-8 -5,5 z"
   id="path206"
   inkscape:connector-curvature="0"
   style="fill:#000000;stroke:none" />
         <path
   d="m 9225,14166 -6,12 1427,-772 -5,-16 -1427,773 -5,13 5,-13 -12,5 7,8 z"
   id="path208"
   inkscape:connector-curvature="0"
   style="fill:#000000;stroke:none" />
         <path
   d="m 9359,14351 10,3 -144,-188 -16,10 145,188 10,3 -10,-3 5,8 5,-5 z"
   id="path210"
   inkscape:connector-curvature="0"
   style="fill:#000000;stroke:none" />
         <path
   d="m 9392,14344 5,-13 -7,5 -13,5 -13,8 -5,2 5,16 5,-3 13,-8 13,-5 8,-5 5,-13 -5,13 10,-5 -5,-8 z"
   id="path212"
   inkscape:connector-curvature="0"
   style="fill:#000000;stroke:none" />
         <path
   d="m 9410,14288 v 0 l -13,10 -10,13 v 15 l 5,18 16,-11 -5,-7 v -10 l 5,-8 7,-5 v 0 z"
   id="path214"
   inkscape:connector-curvature="0"
   style="fill:#000000;stroke:none" />
         <path
   d="m 9476,14303 v 0 l -15,-13 -15,-7 h -18 l -18,5 5,15 13,-5 h 13 l 10,8 10,7 v 0 z"
   id="path216"
   inkscape:connector-curvature="0"
   style="fill:#000000;stroke:none" />
         <path
   d="m 9461,14364 v 0 l 18,-13 5,-18 v -15 l -8,-15 -15,10 8,10 v 10 l -5,8 -8,8 v 0 z"
   id="path218"
   inkscape:connector-curvature="0"
   style="fill:#000000;stroke:none" />
         <path
   d="m 9395,14344 h -3 l 16,15 17,8 18,2 18,-5 -5,-15 -13,5 -13,-3 -12,-7 -10,-11 h -3 z"
   id="path220"
   inkscape:connector-curvature="0"
   style="fill:#000000;stroke:none" />
         <path
   d="m 9369,14354 -17,5 17,5 16,-8 10,-7 v -5 l 10,-11 h -15 l -15,8 -11,8 8,10 -18,5 15,-10 -17,-23 v 28 z"
   id="path222"
   inkscape:connector-curvature="0"
   style="fill:#000000;stroke:none" />
         <path
   d="m 10651,15739 7,-5 -1268,-1657 -15,10 1268,1657 z"
   id="path224"
   inkscape:connector-curvature="0"
   style="fill:#7f7f7f;stroke:none" />
         <path
   d="m 10315,15602 46,-23 z"
   id="path226"
   inkscape:connector-curvature="0"
   style="fill:#ffffff;stroke:none" />
         <path
   d="m 10361,15579 -3,-8 -45,23 5,16 45,-23 z"
   id="path228"
   inkscape:connector-curvature="0"
   style="fill:#7f7f7f;stroke:none" />
         <path
   d="m 9870,15020 3,-3 10,-5 10,-5 10,-8 z"
   id="path230"
   inkscape:connector-curvature="0"
   style="fill:#ffffff;stroke:none" />
         <path
   d="m 9898,14992 -10,7 -8,6 -12,5 v 2 l 5,15 5,-2 8,-5 12,-5 10,-8 z"
   id="path232"
   inkscape:connector-curvature="0"
   style="fill:#7f7f7f;stroke:none" />
         <path
   d="m 9362,14359 2,-3 11,-2 7,-5 5,-3 z"
   id="path234"
   inkscape:connector-curvature="0"
   style="fill:#ffffff;stroke:none" />
         <path
   d="m 9382,14341 h -5 l -5,5 -10,3 -3,2 5,16 3,-3 10,-3 10,-5 5,-5 z"
   id="path236"
   inkscape:connector-curvature="0"
   style="fill:#7f7f7f;stroke:none" />
         <path
   d="m 9425,14443 3,7 1426,-772 -5,-16 -1426,773 z"
   id="path238"
   inkscape:connector-curvature="0"
   style="fill:#7f7f7f;stroke:none" />
         <path
   d="m 9489,14524 2,8 1427,-773 -5,-15 -1427,772 z"
   id="path240"
   inkscape:connector-curvature="0"
   style="fill:#7f7f7f;stroke:none" />
         <path
   d="m 9553,14608 2,8 1426,-773 -5,-15 -1426,772 z"
   id="path242"
   inkscape:connector-curvature="0"
   style="fill:#7f7f7f;stroke:none" />
         <path
   d="m 9616,14692 3,8 1426,-773 -5,-16 -1426,773 z"
   id="path244"
   inkscape:connector-curvature="0"
   style="fill:#7f7f7f;stroke:none" />
         <path
   d="m 9680,14773 2,8 1426,-773 -5,-15 -1426,773 z"
   id="path246"
   inkscape:connector-curvature="0"
   style="fill:#7f7f7f;stroke:none" />
         <path
   d="m 9743,14857 3,8 1426,-773 -5,-15 -1426,773 z"
   id="path248"
   inkscape:connector-curvature="0"
   style="fill:#7f7f7f;stroke:none" />
         <path
   d="m 9807,14938 2,8 1426,-773 -5,-15 -1426,773 z"
   id="path250"
   inkscape:connector-curvature="0"
   style="fill:#7f7f7f;stroke:none" />
         <path
   d="m 9977,14964 3,8 1319,-715 -5,-15 -1319,714 z"
   id="path252"
   inkscape:connector-curvature="0"
   style="fill:#7f7f7f;stroke:none" />
         <path
   d="m 9934,15104 2,7 1427,-770 -5,-15 -1427,770 z"
   id="path254"
   inkscape:connector-curvature="0"
   style="fill:#7f7f7f;stroke:none" />
         <path
   d="m 9997,15185 3,8 1426,-771 -5,-15 -1426,770 z"
   id="path256"
   inkscape:connector-curvature="0"
   style="fill:#7f7f7f;stroke:none" />
         <path
   d="m 10061,15269 3,8 1426,-771 -5,-15 -1427,770 z"
   id="path258"
   inkscape:connector-curvature="0"
   style="fill:#7f7f7f;stroke:none" />
         <path
   d="m 10125,15350 2,8 1426,-770 -5,-16 -1426,771 z"
   id="path260"
   inkscape:connector-curvature="0"
   style="fill:#7f7f7f;stroke:none" />
         <path
   d="m 10188,15434 3,8 1426,-770 -5,-16 -1426,771 z"
   id="path262"
   inkscape:connector-curvature="0"
   style="fill:#7f7f7f;stroke:none" />
         <path
   d="m 10252,15518 2,8 1426,-771 -5,-15 -1426,770 z"
   id="path264"
   inkscape:connector-curvature="0"
   style="fill:#7f7f7f;stroke:none" />
         <path
   d="m 11741,14829 -2,-7 -1327,716 5,16 1327,-717 z"
   id="path266"
   inkscape:connector-curvature="0"
   style="fill:#7f7f7f;stroke:none" />
         <path
   d="m 10379,15683 2,8 1426,-770 -5,-16 -1426,771 z"
   id="path268"
   inkscape:connector-curvature="0"
   style="fill:#7f7f7f;stroke:none" />
         <path
   d="m 10442,15767 3,8 1426,-770 -5,-16 -1426,771 z"
   id="path270"
   inkscape:connector-curvature="0"
   style="fill:#7f7f7f;stroke:none" />
         <path
   d="m 9476,14295 3,8 1312,-709 -5,-16 -1312,710 z"
   id="path272"
   inkscape:connector-curvature="0"
   style="fill:#7f7f7f;stroke:none" />
         <path
   d="m 10404,15360 74,13 18,8 15,12 8,18 v 21 0 l -8,17 -13,13 -18,10 h -20 l -71,-12 2,-21 6,-30 5,-31 z"
   id="path274"
   inkscape:connector-curvature="0"
   style="fill:#ff7f7f;stroke:none" />
         <path
   d="m 10478,15366 v 0 l -74,-13 v 15 l 74,13 v 0 0 l 5,-3 3,-5 -3,-5 z"
   id="path276"
   inkscape:connector-curvature="0"
   style="fill:#000000;stroke:none" />
         <path
   d="m 10526,15432 v 0 -21 l -7,-23 -18,-15 -23,-7 v 15 l 13,7 12,11 8,12 v 21 0 0 l 2,5 6,2 5,-2 z"
   id="path278"
   inkscape:connector-curvature="0"
   style="fill:#000000;stroke:none" />
         <path
   d="m 10526,15432 h -7 v 0 0 0 h -8 v 0 l 2,5 6,2 5,-2 z"
   id="path280"
   inkscape:connector-curvature="0"
   style="fill:#000000;stroke:none" />
         <path
   d="m 10460,15480 v 0 h 23 l 20,-10 16,-15 7,-23 h -15 l -8,12 -10,11 -15,10 h -18 v 0 0 l -5,2 -3,5 3,5 z"
   id="path282"
   inkscape:connector-curvature="0"
   style="fill:#000000;stroke:none" />
         <path
   d="m 10381,15460 8,7 71,13 v -15 l -71,-13 8,8 -8,-8 -5,3 -3,5 3,5 5,2 z"
   id="path284"
   inkscape:connector-curvature="0"
   style="fill:#000000;stroke:none" />
         <path
   d="m 10404,15353 -10,7 v 18 l -5,31 -5,30 -3,21 h 16 l 2,-21 5,-30 5,-31 5,-18 -10,8 10,-8 -2,-7 -8,-3 -7,3 -3,7 z"
   id="path286"
   inkscape:connector-curvature="0"
   style="fill:#000000;stroke:none" />
         <path
   d="m 9146,15160 20,33 -28,15 20,30 -28,21 1259,201 15,-100 z"
   id="path288"
   inkscape:connector-curvature="0"
   style="fill:#ff9933;stroke:none" />
         <path
   d="m 9169,15200 5,-12 -21,-33 -15,10 20,33 6,-13 -6,13 6,5 7,-3 3,-5 v -7 z"
   id="path290"
   inkscape:connector-curvature="0"
   style="fill:#000000;stroke:none" />
         <path
   d="m 9146,15203 -5,13 28,-16 -5,-15 -28,15 -6,13 6,-13 -6,3 v 7 l 3,6 h 8 z"
   id="path292"
   inkscape:connector-curvature="0"
   style="fill:#000000;stroke:none" />
         <path
   d="m 9164,15246 2,-13 -20,-30 -16,10 21,31 2,-13 -2,13 5,5 8,-3 2,-5 v -8 z"
   id="path294"
   inkscape:connector-curvature="0"
   style="fill:#000000;stroke:none" />
         <path
   d="m 9130,15251 6,15 28,-20 -11,-15 -28,20 5,15 -5,-15 -5,5 3,5 5,5 h 8 z"
   id="path296"
   inkscape:connector-curvature="0"
   style="fill:#000000;stroke:none" />
         <path
   d="m 10381,15460 8,-8 -1259,-201 v 15 l 1259,201 8,-7 -8,7 5,-2 3,-5 -3,-5 -5,-3 z"
   id="path298"
   inkscape:connector-curvature="0"
   style="fill:#000000;stroke:none" />
         <path
   d="m 10404,15368 -7,-8 -16,100 h 16 l 15,-100 -8,-7 8,7 -3,-5 -5,-2 -5,2 -2,5 z"
   id="path300"
   inkscape:connector-curvature="0"
   style="fill:#000000;stroke:none" />
         <path
   d="m 9153,15155 -7,12 1258,201 v -15 l -1258,-201 -8,13 8,-13 -5,3 -3,5 3,5 5,2 z"
   id="path302"
   inkscape:connector-curvature="0"
   style="fill:#000000;stroke:none" />
         <path
   d="m 9146,15160 20,33 -28,15 20,30 -28,21 -180,-82 z"
   id="path304"
   inkscape:connector-curvature="0"
   style="fill:#c19b84;stroke:none" />
         <path
   d="m 9169,15200 5,-12 -21,-33 -15,10 20,33 6,-13 -6,13 6,5 7,-3 3,-5 v -7 z"
   id="path306"
   inkscape:connector-curvature="0"
   style="fill:#000000;stroke:none" />
         <path
   d="m 9146,15203 -5,13 28,-16 -5,-15 -28,15 -6,13 6,-13 -6,3 v 7 l 3,6 h 8 z"
   id="path308"
   inkscape:connector-curvature="0"
   style="fill:#000000;stroke:none" />
         <path
   d="m 9164,15246 2,-13 -20,-30 -16,10 21,31 2,-13 -2,13 5,5 8,-3 2,-5 v -8 z"
   id="path310"
   inkscape:connector-curvature="0"
   style="fill:#000000;stroke:none" />
         <path
   d="m 9128,15266 h 8 l 28,-20 -11,-15 -28,20 h 8 -8 l -5,5 3,5 5,5 h 8 z"
   id="path312"
   inkscape:connector-curvature="0"
   style="fill:#000000;stroke:none" />
         <path
   d="m 8950,15170 -3,15 181,81 5,-15 -180,-81 -3,15 3,-15 h -8 l -3,5 v 5 l 5,5 z"
   id="path314"
   inkscape:connector-curvature="0"
   style="fill:#000000;stroke:none" />
         <path
   d="m 9153,15155 -7,-3 -196,18 v 15 l 196,-18 -8,-2 8,2 5,-2 2,-5 -2,-5 -5,-3 z"
   id="path316"
   inkscape:connector-curvature="0"
   style="fill:#000000;stroke:none" />
         <path
   d="m 9014,15208 5,-36 -59,8 z"
   id="path318"
   inkscape:connector-curvature="0"
   style="fill:#000000;stroke:none" />
         <path
   d="m 9019,15180 -8,-8 -5,36 h 15 l 5,-36 -7,-7 7,7 -2,-5 -5,-2 -5,2 -3,5 z"
   id="path320"
   inkscape:connector-curvature="0"
   style="fill:#000000;stroke:none" />
         <path
   d="m 8963,15172 -3,16 59,-8 v -15 l -59,7 -2,16 2,-16 -5,3 -2,5 2,5 5,3 z"
   id="path322"
   inkscape:connector-curvature="0"
   style="fill:#000000;stroke:none" />
         <path
   d="m 9006,15208 10,-8 -53,-28 -5,16 53,28 10,-8 -10,8 h 8 l 2,-6 v -7 l -5,-3 z"
   id="path324"
   inkscape:connector-curvature="0"
   style="fill:#000000;stroke:none" />
         <path
   d="m 10389,15442 5,-3 3,-5 -3,-5 -5,-2 z"
   id="path326"
   inkscape:connector-curvature="0"
   style="fill:#000000;stroke:none" />
         <path
   d="m 9156,15238 v 8 l 1233,196 v -15 l -1233,-196 z"
   id="path328"
   inkscape:connector-curvature="0"
   style="fill:#000000;stroke:none" />
         <path
   d="m 9156,15231 -5,2 -3,5 3,6 5,2 z"
   id="path330"
   inkscape:connector-curvature="0"
   style="fill:#000000;stroke:none" />
         <path
   d="m 10397,15396 5,-3 2,-5 -2,-5 -5,-2 z"
   id="path332"
   inkscape:connector-curvature="0"
   style="fill:#000000;stroke:none" />
         <path
   d="m 9164,15190 v 8 l 1233,198 v -15 l -1233,-198 z"
   id="path334"
   inkscape:connector-curvature="0"
   style="fill:#000000;stroke:none" />
         <path
   d="m 9164,15183 -6,2 -2,5 2,5 6,3 z"
   id="path336"
   inkscape:connector-curvature="0"
   style="fill:#000000;stroke:none" />
         <path
   d="m 10384,15358 -18,99 43,8 16,-99 z"
   id="path338"
   inkscape:connector-curvature="0"
   style="fill:#ffffff;stroke:none" />
         <path
   d="m 10366,15449 8,8 17,-99 h -15 l -18,99 8,8 -8,-8 3,5 5,3 5,-3 3,-5 z"
   id="path340"
   inkscape:connector-curvature="0"
   style="fill:#000000;stroke:none" />
         <path
   d="m 10402,15465 7,-8 -43,-8 v 16 l 43,7 8,-7 -8,7 5,-2 3,-5 -3,-5 -5,-3 z"
   id="path342"
   inkscape:connector-curvature="0"
   style="fill:#000000;stroke:none" />
         <path
   d="m 10425,15373 -8,-7 -15,99 h 15 l 15,-99 -7,-8 7,8 -2,-6 -5,-2 -6,2 -2,6 z"
   id="path344"
   inkscape:connector-curvature="0"
   style="fill:#000000;stroke:none" />
         <path
   d="m 10391,15358 -7,8 41,7 v -15 l -41,-8 -8,8 8,-8 -5,3 -3,5 3,5 5,3 z"
   id="path346"
   inkscape:connector-curvature="0"
   style="fill:#000000;stroke:none" />
         <path
   d="m 10381,15460 3,5 5,2 5,-2 3,-5 z"
   id="path348"
   inkscape:connector-curvature="0"
   style="fill:#000000;stroke:none" />
         <path
   d="m 10404,15360 h -7 l -16,100 h 16 l 15,-100 z"
   id="path350"
   inkscape:connector-curvature="0"
   style="fill:#000000;stroke:none" />
         <path
   d="m 10412,15360 -3,-5 -5,-2 -5,2 -2,5 z"
   id="path352"
   inkscape:connector-curvature="0"
   style="fill:#000000;stroke:none" />
         <path
   d="m 11164,15121 44,-7 38,-15 33,-23 30,-28 23,-33 15,-38 11,-39 v -43 l -89,-1057 -8,-43 -15,-39 -23,-33 -28,-30 -33,-23 -38,-15 -41,-10 h -43 l -562,48 -43,8 -38,15 -34,23 -30,28 -23,33 -15,38 -10,40 v 44 l 89,1057 7,41 16,38 22,36 31,27 33,23 38,16 38,10 h 43 z"
   id="path354"
   inkscape:connector-curvature="0"
   style="fill:#ffffff;stroke:none" />
         <path
   d="m 11350,14895 v 0 43 l -10,36 -16,38 -22,31 -28,25 -31,23 -38,15 -41,8 v 15 l 46,-8 38,-15 36,-23 33,-30 23,-36 15,-38 10,-41 v -43 0 0 l -2,-5 -5,-2 -6,2 z"
   id="path356"
   inkscape:connector-curvature="0"
   style="fill:#000000;stroke:none" />
         <path
   d="m 11261,13838 v 0 l 89,1057 h 15 l -89,-1057 v 0 0 l -2,-5 -5,-3 -6,3 z"
   id="path358"
   inkscape:connector-curvature="0"
   style="fill:#000000;stroke:none" />
         <path
   d="m 11040,13652 v 0 h 43 l 38,10 38,16 31,23 25,27 23,31 15,38 8,41 h 15 l -7,-46 -16,-38 -23,-36 -30,-33 -36,-23 -38,-15 -43,-10 h -43 v 0 0 l -5,2 -3,6 3,5 z"
   id="path360"
   inkscape:connector-curvature="0"
   style="fill:#000000;stroke:none" />
         <path
   d="m 10478,13701 v 0 l 562,-49 v -15 l -562,48 v 0 0 l -5,3 -3,5 3,5 z"
   id="path362"
   inkscape:connector-curvature="0"
   style="fill:#000000;stroke:none" />
         <path
   d="m 10292,13922 v 0 -44 l 10,-38 16,-38 23,-30 28,-26 30,-23 38,-15 41,-7 v -16 l -46,8 -38,15 -36,23 -33,31 -23,35 -15,38 -10,43 v 44 0 0 l 3,5 5,2 5,-2 z"
   id="path364"
   inkscape:connector-curvature="0"
   style="fill:#000000;stroke:none" />
         <path
   d="m 10381,14979 v 0 l -89,-1057 h -15 l 89,1057 v 0 0 l 3,5 5,3 5,-3 z"
   id="path366"
   inkscape:connector-curvature="0"
   style="fill:#000000;stroke:none" />
         <path
   d="m 10602,15162 v 0 h -43 l -35,-10 -38,-15 -31,-23 -28,-26 -23,-33 -15,-38 -8,-38 h -15 l 8,43 15,38 23,39 33,30 35,23 39,15 40,10 h 43 v 0 0 l 6,-2 2,-5 -2,-5 z"
   id="path368"
   inkscape:connector-curvature="0"
   style="fill:#000000;stroke:none" />
         <path
   d="m 11164,15114 v 0 l -562,48 v 15 l 562,-48 v 0 0 l 5,-2 3,-6 -3,-5 z"
   id="path370"
   inkscape:connector-curvature="0"
   style="fill:#000000;stroke:none" />
         <path
   d="m 11192,14089 -23,-244 -732,66 21,242 z"
   id="path372"
   inkscape:connector-curvature="0"
   style="fill:#000000;stroke:none" />
         <path
   d="m 11169,13853 -7,-8 23,244 h 15 l -23,-244 -8,-7 8,7 -3,-5 -5,-2 -5,2 -2,5 z"
   id="path374"
   inkscape:connector-curvature="0"
   style="fill:#000000;stroke:none" />
         <path
   d="m 10445,13911 -8,8 732,-66 v -15 l -732,66 -7,7 7,-7 -5,2 -2,5 2,6 5,2 z"
   id="path376"
   inkscape:connector-curvature="0"
   style="fill:#000000;stroke:none" />
         <path
   d="m 10458,14145 7,8 -20,-242 h -15 l 20,242 8,8 -8,-8 2,5 6,3 5,-3 2,-5 z"
   id="path378"
   inkscape:connector-curvature="0"
   style="fill:#000000;stroke:none" />
         <path
   d="m 11185,14089 7,-7 -734,63 v 16 l 734,-64 8,-8 -8,8 5,-2 3,-6 -3,-5 -5,-2 z"
   id="path380"
   inkscape:connector-curvature="0"
   style="fill:#000000;stroke:none" />
         <path
   d="m 11134,13848 18,206 -697,63 3,36 734,-66 -23,-242 z"
   id="path382"
   inkscape:connector-curvature="0"
   style="fill:#7f7f7f;stroke:none" />
         <path
   d="m 11152,14061 7,-7 -18,-206 h -15 l 18,206 8,-8 -8,8 3,5 5,2 5,-2 2,-5 z"
   id="path384"
   inkscape:connector-curvature="0"
   style="fill:#000000;stroke:none" />
         <path
   d="m 10463,14117 -8,8 697,-64 v -15 l -697,64 -8,7 8,-7 -5,2 -3,5 3,5 5,3 z"
   id="path386"
   inkscape:connector-curvature="0"
   style="fill:#000000;stroke:none" />
         <path
   d="m 10458,14145 7,8 -2,-36 h -16 l 3,36 8,8 -8,-8 2,5 6,3 5,-3 2,-5 z"
   id="path388"
   inkscape:connector-curvature="0"
   style="fill:#000000;stroke:none" />
         <path
   d="m 11185,14087 7,-8 -734,66 v 16 l 734,-66 8,-8 -8,8 5,-3 3,-5 -3,-5 -5,-3 z"
   id="path390"
   inkscape:connector-curvature="0"
   style="fill:#000000;stroke:none" />
         <path
   d="m 11169,13853 -7,-8 23,242 h 15 l -23,-242 -8,-7 8,7 -3,-5 -5,-2 -5,2 -2,5 z"
   id="path392"
   inkscape:connector-curvature="0"
   style="fill:#000000;stroke:none" />
         <path
   d="m 11141,13848 -7,8 35,-3 v -15 l -35,2 -8,8 8,-8 -5,3 -3,5 3,5 5,3 z"
   id="path394"
   inkscape:connector-curvature="0"
   style="fill:#000000;stroke:none" />
         <path
   d="m 10956,14369 -8,-104 -475,43 7,102 z"
   id="path396"
   inkscape:connector-curvature="0"
   style="fill:#7f7f7f;stroke:none" />
         <path
   d="m 10948,14272 -7,-7 7,104 h 15 l -7,-104 -8,-8 8,8 -3,-5 -5,-3 -5,3 -2,5 z"
   id="path398"
   inkscape:connector-curvature="0"
   style="fill:#000000;stroke:none" />
         <path
   d="m 10480,14308 -7,8 475,-44 v -15 l -475,43 -8,8 8,-8 -5,3 -3,5 3,5 5,3 z"
   id="path400"
   inkscape:connector-curvature="0"
   style="fill:#000000;stroke:none" />
         <path
   d="m 10480,14402 8,8 -8,-102 h -15 l 8,102 7,7 -7,-7 2,5 5,2 6,-2 2,-5 z"
   id="path402"
   inkscape:connector-curvature="0"
   style="fill:#000000;stroke:none" />
         <path
   d="m 10948,14369 8,-8 -476,41 v 15 l 476,-40 7,-8 -7,8 5,-3 2,-5 -2,-5 -5,-3 z"
   id="path404"
   inkscape:connector-curvature="0"
   style="fill:#000000;stroke:none" />
         <path
   d="m 11276,14949 -43,-494 -742,67 43,490 z"
   id="path406"
   inkscape:connector-curvature="0"
   style="fill:#7f7f7f;stroke:none" />
         <path
   d="m 11233,14463 -8,-8 44,494 h 15 l -43,-494 -8,-7 8,7 -3,-5 -5,-2 -5,2 -3,5 z"
   id="path408"
   inkscape:connector-curvature="0"
   style="fill:#000000;stroke:none" />
         <path
   d="m 10498,14522 -7,7 742,-66 v -15 l -742,66 -8,8 8,-8 -5,2 -3,6 3,5 5,2 z"
   id="path410"
   inkscape:connector-curvature="0"
   style="fill:#000000;stroke:none" />
         <path
   d="m 10534,15005 7,7 -43,-490 h -15 l 43,490 8,8 -8,-8 3,5 5,3 5,-3 2,-5 z"
   id="path412"
   inkscape:connector-curvature="0"
   style="fill:#000000;stroke:none" />
         <path
   d="m 11269,14949 7,-8 -742,64 v 15 l 742,-64 8,-7 -8,7 5,-2 3,-5 -3,-5 -5,-3 z"
   id="path414"
   inkscape:connector-curvature="0"
   style="fill:#000000;stroke:none" />
         <path
   d="m 11208,14346 -11,-102 -117,11 11,101 z"
   id="path416"
   inkscape:connector-curvature="0"
   style="fill:#7f7f7f;stroke:none" />
         <path
   d="m 11197,14252 -7,-8 10,102 h 15 l -10,-102 -8,-7 8,7 -3,-5 -5,-2 -5,2 -2,5 z"
   id="path418"
   inkscape:connector-curvature="0"
   style="fill:#000000;stroke:none" />
         <path
   d="m 11088,14255 -8,7 117,-10 v -15 l -117,10 -7,8 7,-8 -5,3 -2,5 2,5 5,2 z"
   id="path420"
   inkscape:connector-curvature="0"
   style="fill:#000000;stroke:none" />
         <path
   d="m 11091,14349 7,7 -10,-101 h -15 l 10,101 8,8 -8,-8 2,5 6,3 5,-3 2,-5 z"
   id="path422"
   inkscape:connector-curvature="0"
   style="fill:#000000;stroke:none" />
         <path
   d="m 11200,14346 8,-7 -117,10 v 15 l 117,-10 7,-8 -7,8 5,-3 2,-5 -2,-5 -5,-2 z"
   id="path424"
   inkscape:connector-curvature="0"
   style="fill:#000000;stroke:none" />
         <path
   d="m 10608,14511 -3,-5 -5,-2 -5,2 -3,5 z"
   id="path426"
   inkscape:connector-curvature="0"
   style="fill:#000000;stroke:none" />
         <path
   d="m 10643,14997 h 8 l -43,-486 h -16 l 44,486 z"
   id="path428"
   inkscape:connector-curvature="0"
   style="fill:#000000;stroke:none" />
         <path
   d="m 10636,14997 2,5 5,3 5,-3 3,-5 z"
   id="path430"
   inkscape:connector-curvature="0"
   style="fill:#000000;stroke:none" />
         <path
   d="m 10732,14501 -2,-5 -6,-2 -5,2 -2,5 z"
   id="path432"
   inkscape:connector-curvature="0"
   style="fill:#000000;stroke:none" />
         <path
   d="m 10768,14987 h 7 l -43,-486 h -15 l 43,486 z"
   id="path434"
   inkscape:connector-curvature="0"
   style="fill:#000000;stroke:none" />
         <path
   d="m 10760,14987 3,5 5,2 5,-2 2,-5 z"
   id="path436"
   inkscape:connector-curvature="0"
   style="fill:#000000;stroke:none" />
         <path
   d="m 10857,14489 -3,-6 -5,-2 -5,2 -3,6 z"
   id="path438"
   inkscape:connector-curvature="0"
   style="fill:#000000;stroke:none" />
         <path
   d="m 10892,14974 h 8 l -43,-485 h -16 l 44,485 z"
   id="path440"
   inkscape:connector-curvature="0"
   style="fill:#000000;stroke:none" />
         <path
   d="m 10885,14974 2,5 5,3 5,-3 3,-5 z"
   id="path442"
   inkscape:connector-curvature="0"
   style="fill:#000000;stroke:none" />
         <path
   d="m 10981,14478 -2,-5 -5,-2 -5,2 -3,5 z"
   id="path444"
   inkscape:connector-curvature="0"
   style="fill:#000000;stroke:none" />
         <path
   d="m 11017,14964 h 7 l -43,-486 h -15 l 43,486 z"
   id="path446"
   inkscape:connector-curvature="0"
   style="fill:#000000;stroke:none" />
         <path
   d="m 11009,14964 3,5 5,3 5,-3 2,-5 z"
   id="path448"
   inkscape:connector-curvature="0"
   style="fill:#000000;stroke:none" />
         <path
   d="m 10590,14303 -3,-5 -5,-3 -5,3 -3,5 z"
   id="path450"
   inkscape:connector-curvature="0"
   style="fill:#000000;stroke:none" />
         <path
   d="m 10590,14402 h 7 l -7,-99 h -16 l 8,99 z"
   id="path452"
   inkscape:connector-curvature="0"
   style="fill:#000000;stroke:none" />
         <path
   d="m 10582,14402 3,5 5,3 5,-3 2,-5 z"
   id="path454"
   inkscape:connector-curvature="0"
   style="fill:#000000;stroke:none" />
         <path
   d="m 10712,14288 -3,-5 -5,-3 -5,3 -2,5 z"
   id="path456"
   inkscape:connector-curvature="0"
   style="fill:#000000;stroke:none" />
         <path
   d="m 10714,14389 h 8 l -10,-101 h -15 l 10,101 z"
   id="path458"
   inkscape:connector-curvature="0"
   style="fill:#000000;stroke:none" />
         <path
   d="m 10707,14389 2,5 5,3 5,-3 3,-5 z"
   id="path460"
   inkscape:connector-curvature="0"
   style="fill:#000000;stroke:none" />
         <path
   d="m 10839,14280 -3,-5 -5,-3 -5,3 -2,5 z"
   id="path462"
   inkscape:connector-curvature="0"
   style="fill:#000000;stroke:none" />
         <path
   d="m 10839,14379 h 8 l -8,-99 h -15 l 7,99 z"
   id="path464"
   inkscape:connector-curvature="0"
   style="fill:#000000;stroke:none" />
         <path
   d="m 10831,14379 3,5 5,3 5,-3 3,-5 z"
   id="path466"
   inkscape:connector-curvature="0"
   style="fill:#000000;stroke:none" />
         <path
   d="m 11113,14468 -2,-5 -5,-2 -5,2 -3,5 z"
   id="path468"
   inkscape:connector-curvature="0"
   style="fill:#000000;stroke:none" />
         <path
   d="m 11149,14954 h 8 l -44,-486 h -15 l 43,486 z"
   id="path470"
   inkscape:connector-curvature="0"
   style="fill:#000000;stroke:none" />
         <path
   d="m 11141,14954 3,5 5,2 5,-2 3,-5 z"
   id="path472"
   inkscape:connector-curvature="0"
   style="fill:#000000;stroke:none" />
         <path
   d="m 11258,14773 -7,-7 10,101 h 15 l -10,-101 -8,-8 8,8 -3,-5 -5,-3 -5,3 -2,5 z"
   id="path474"
   inkscape:connector-curvature="0"
   style="fill:#000000;stroke:none" />
         <path
   d="m 10526,14829 -7,8 739,-64 v -15 l -739,64 -8,7 8,-7 -6,2 -2,5 2,5 6,3 z"
   id="path476"
   inkscape:connector-curvature="0"
   style="fill:#000000;stroke:none" />
         <path
   d="m 10526,14923 8,8 -8,-102 h -15 l 8,102 7,7 -7,-7 2,5 5,2 5,-2 3,-5 z"
   id="path478"
   inkscape:connector-curvature="0"
   style="fill:#000000;stroke:none" />
         <path
   d="m 11261,14867 8,-7 -743,63 v 15 l 743,-63 7,-8 -7,8 5,-3 2,-5 -2,-5 -5,-2 z"
   id="path480"
   inkscape:connector-curvature="0"
   style="fill:#000000;stroke:none" />
         <path
   d="m 11241,14578 -8,-8 10,102 h 15 l -10,-102 -7,-8 7,8 -2,-5 -5,-3 -6,3 -2,5 z"
   id="path482"
   inkscape:connector-curvature="0"
   style="fill:#000000;stroke:none" />
         <path
   d="m 10508,14633 -7,8 740,-63 v -16 l -740,64 -8,7 8,-7 -5,2 -3,5 3,6 5,2 z"
   id="path484"
   inkscape:connector-curvature="0"
   style="fill:#000000;stroke:none" />
         <path
   d="m 10511,14727 8,8 -11,-102 h -15 l 10,102 8,8 -8,-8 3,5 5,3 5,-3 3,-5 z"
   id="path486"
   inkscape:connector-curvature="0"
   style="fill:#000000;stroke:none" />
         <path
   d="m 11243,14672 8,-8 -740,63 v 16 l 740,-64 7,-7 -7,7 5,-2 2,-5 -2,-6 -5,-2 z"
   id="path488"
   inkscape:connector-curvature="0"
   style="fill:#000000;stroke:none" />
        </g>
       </g>
      </g>
     </g>
    </g>
   </g>
  </g>
 </g>
</svg>