<?xml version="1.0" encoding="UTF-8" standalone="no"?>
<svg
   xmlns:ooo="http://xml.openoffice.org/svg/export"
   xmlns:dc="http://purl.org/dc/elements/1.1/"
   xmlns:cc="http://creativecommons.org/ns#"
   xmlns:rdf="http://www.w3.org/1999/02/22-rdf-syntax-ns#"
   xmlns:svg="http://www.w3.org/2000/svg"
   xmlns="http://www.w3.org/2000/svg"
   xmlns:sodipodi="http://sodipodi.sourceforge.net/DTD/sodipodi-0.dtd"
   xmlns:inkscape="http://www.inkscape.org/namespaces/inkscape"
   version="1.2"
   width="22.99mm"
   height="15.6mm"
   viewBox="0 0 2299 1560"
   preserveAspectRatio="xMidYMid"
   xml:space="preserve"
   id="svg153"
   sodipodi:docname="campsite.svg"
   style="fill-rule:evenodd;stroke-width:28.22200012;stroke-linejoin:round"
   inkscape:version="0.92.5 (2060ec1f9f, 2020-04-08)"><metadata
   id="metadata157"><rdf:RDF><cc:Work
       rdf:about=""><dc:format>image/svg+xml</dc:format><dc:type
         rdf:resource="http://purl.org/dc/dcmitype/StillImage" /></cc:Work></rdf:RDF></metadata><sodipodi:namedview
   pagecolor="#ffffff"
   bordercolor="#666666"
   borderopacity="1"
   objecttolerance="10"
   gridtolerance="10"
   guidetolerance="10"
   inkscape:pageopacity="0"
   inkscape:pageshadow="2"
   inkscape:window-width="664"
   inkscape:window-height="487"
   id="namedview155"
   showgrid="false"
   inkscape:zoom="0.2102413"
   inkscape:cx="43.464568"
   inkscape:cy="29.480313"
   inkscape:window-x="0"
   inkscape:window-y="0"
   inkscape:window-maximized="0"
   inkscape:current-layer="svg153" />
 <defs
   class="ClipPathGroup"
   id="defs8">
  <clipPath
   id="presentation_clip_path"
   clipPathUnits="userSpaceOnUse">
   <rect
   x="0"
   y="0"
   width="21000"
   height="29700"
   id="rect2" />
  </clipPath>
  <clipPath
   id="presentation_clip_path_shrink"
   clipPathUnits="userSpaceOnUse">
   <rect
   x="21"
   y="29"
   width="20958"
   height="29641"
   id="rect5" />
  </clipPath>
 </defs>
 <defs
   class="TextShapeIndex"
   id="defs12">
  <g
   ooo:slide="id1"
   ooo:id-list="id3"
   id="g10" />
 </defs>
 <defs
   class="EmbeddedBulletChars"
   id="defs44">
  <g
   id="bullet-char-template-57356"
   transform="matrix(4.8828125e-4,0,0,-4.8828125e-4,0,0)">
   <path
   d="M 580,1141 1163,571 580,0 -4,571 Z"
   id="path14"
   inkscape:connector-curvature="0" />
  </g>
  <g
   id="bullet-char-template-57354"
   transform="matrix(4.8828125e-4,0,0,-4.8828125e-4,0,0)">
   <path
   d="M 8,1128 H 1137 V 0 H 8 Z"
   id="path17"
   inkscape:connector-curvature="0" />
  </g>
  <g
   id="bullet-char-template-10146"
   transform="matrix(4.8828125e-4,0,0,-4.8828125e-4,0,0)">
   <path
   d="M 174,0 602,739 174,1481 1456,739 Z M 1358,739 309,1346 659,739 Z"
   id="path20"
   inkscape:connector-curvature="0" />
  </g>
  <g
   id="bullet-char-template-10132"
   transform="matrix(4.8828125e-4,0,0,-4.8828125e-4,0,0)">
   <path
   d="M 2015,739 1276,0 H 717 l 543,543 H 174 v 393 h 1086 l -543,545 h 557 z"
   id="path23"
   inkscape:connector-curvature="0" />
  </g>
  <g
   id="bullet-char-template-10007"
   transform="matrix(4.8828125e-4,0,0,-4.8828125e-4,0,0)">
   <path
   d="m 0,-2 c -7,16 -16,29 -25,39 l 381,530 c -94,256 -141,385 -141,387 0,25 13,38 40,38 9,0 21,-2 34,-5 21,4 42,12 65,25 l 27,-13 111,-251 280,301 64,-25 24,25 c 21,-10 41,-24 62,-43 C 886,937 835,863 770,784 769,783 710,716 594,584 L 774,223 c 0,-27 -21,-55 -63,-84 l 16,-20 C 717,90 699,76 672,76 641,76 570,178 457,381 L 164,-76 c -22,-34 -53,-51 -92,-51 -42,0 -63,17 -64,51 -7,9 -10,24 -10,44 0,9 1,19 2,30 z"
   id="path26"
   inkscape:connector-curvature="0" />
  </g>
  <g
   id="bullet-char-template-10004"
   transform="matrix(4.8828125e-4,0,0,-4.8828125e-4,0,0)">
   <path
   d="M 285,-33 C 182,-33 111,30 74,156 52,228 41,333 41,471 c 0,78 14,145 41,201 34,71 87,106 158,106 53,0 88,-31 106,-94 l 23,-176 c 8,-64 28,-97 59,-98 l 735,706 c 11,11 33,17 66,17 42,0 63,-15 63,-46 V 965 c 0,-36 -10,-64 -30,-84 L 442,47 C 390,-6 338,-33 285,-33 Z"
   id="path29"
   inkscape:connector-curvature="0" />
  </g>
  <g
   id="bullet-char-template-9679"
   transform="matrix(4.8828125e-4,0,0,-4.8828125e-4,0,0)">
   <path
   d="M 813,0 C 632,0 489,54 383,161 276,268 223,411 223,592 c 0,181 53,324 160,431 106,107 249,161 430,161 179,0 323,-54 432,-161 108,-107 162,-251 162,-431 0,-180 -54,-324 -162,-431 C 1136,54 992,0 813,0 Z"
   id="path32"
   inkscape:connector-curvature="0" />
  </g>
  <g
   id="bullet-char-template-8226"
   transform="matrix(4.8828125e-4,0,0,-4.8828125e-4,0,0)">
   <path
   d="m 346,457 c -73,0 -137,26 -191,78 -54,51 -81,114 -81,188 0,73 27,136 81,188 54,52 118,78 191,78 73,0 134,-26 185,-79 51,-51 77,-114 77,-187 0,-75 -25,-137 -76,-188 -50,-52 -112,-78 -186,-78 z"
   id="path35"
   inkscape:connector-curvature="0" />
  </g>
  <g
   id="bullet-char-template-8211"
   transform="matrix(4.8828125e-4,0,0,-4.8828125e-4,0,0)">
   <path
   d="M -4,459 H 1135 V 606 H -4 Z"
   id="path38"
   inkscape:connector-curvature="0" />
  </g>
  <g
   id="bullet-char-template-61548"
   transform="matrix(4.8828125e-4,0,0,-4.8828125e-4,0,0)">
   <path
   d="m 173,740 c 0,163 58,303 173,419 116,115 255,173 419,173 163,0 302,-58 418,-173 116,-116 174,-256 174,-419 0,-163 -58,-303 -174,-418 C 1067,206 928,148 765,148 601,148 462,206 346,322 231,437 173,577 173,740 Z"
   id="path41"
   inkscape:connector-curvature="0" />
  </g>
 </defs>
 <g
   id="g49"
   transform="translate(-9350,-14070)">
  <g
   id="id2"
   class="Master_Slide">
   <g
   id="bg-id2"
   class="Background" />
   <g
   id="bo-id2"
   class="BackgroundObjects" />
  </g>
 </g>
 <g
   class="SlideGroup"
   id="g151"
   transform="translate(-9350,-14070)">
  <g
   id="g149">
   <g
   id="container-id1">
    <g
   id="id1"
   class="Slide"
   clip-path="url(#presentation_clip_path)">
     <g
   class="Page"
   id="g145">
      <g
   class="Graphic"
   id="g143">
       <g
   id="id3">
        <rect
   class="BoundingBox"
   x="9350"
   y="14070"
   width="2299"
   height="1560"
   id="rect51"
   style="fill:none;stroke:none" />
        <defs
   id="defs56">
         <clipPath
   id="clip_path_1"
   clipPathUnits="userSpaceOnUse">
          <path
   d="m 9350,14070 h 2298 v 1559 H 9350 Z"
   id="path53"
   inkscape:connector-curvature="0" />
         </clipPath>
        </defs>
        <g
   clip-path="url(#clip_path_1)"
   id="g140">
         <path
   d="m 10723,14449 155,300 -81,-10 135,257 -89,-25 124,323 -66,-20 117,280 -557,7 77,-269 -66,22 122,-325 -87,28 132,-257 -78,10 z"
   id="path58"
   inkscape:connector-curvature="0"
   style="fill:#009900;stroke:none" />
         <path
   d="m 10156,14266 173,336 -89,-10 150,285 -99,-31 140,362 -76,-23 55,122 h -490 l 28,-102 -74,25 140,-361 -99,31 147,-285 -89,10 z"
   id="path60"
   inkscape:connector-curvature="0"
   style="fill:#009900;stroke:none" />
         <path
   d="m 11262,14070 171,336 -89,-3 150,278 -99,-31 140,367 -138,-13 252,560 -715,-13 171,-534 -127,18 139,-362 -99,31 148,-285 -89,10 z"
   id="path62"
   inkscape:connector-curvature="0"
   style="fill:#009900;stroke:none" />
         <path
   d="m 9383,15559 13,-41 12,-38 18,-41 18,-41 18,-40 18,-38 18,-36 17,-33 21,-36 23,-35 25,-39 30,-38 34,-35 33,-36 35,-33 36,-28 38,-28 36,-20 33,-16 30,-12 28,-8 31,-5 30,-3 h 33 l 13,-2 74,5 71,13 63,20 62,28 53,33 48,41 46,43 38,46 36,51 28,53 25,56 18,56 15,56 10,56 3,53 v 54 l -389,81 -46,-17 -13,-8 -10,5 -23,3 -33,2 h -46 l -50,-2 -56,-3 -61,-3 -64,-5 -61,-2 -61,-5 -56,-5 -51,-3 -43,-5 -33,-3 -20,-2 h -8 l -15,5 -117,15 z"
   id="path64"
   inkscape:connector-curvature="0"
   style="fill:#f4e2dd;stroke:none" />
         <path
   d="m 9500,15243 v 0 l -18,33 -18,36 -17,38 -18,43 -18,41 -18,41 -15,38 -13,43 36,5 13,-38 10,-38 18,-41 17,-40 18,-39 18,-38 18,-35 18,-34 v 0 z"
   id="path66"
   inkscape:connector-curvature="0"
   style="fill:#000000;stroke:none" />
         <path
   d="m 9742,14956 v 0 l -36,30 -38,33 -33,36 -33,38 -33,38 -26,38 -23,39 -20,35 31,15 20,-35 23,-33 25,-38 28,-39 33,-33 33,-35 33,-33 36,-26 v 0 z"
   id="path68"
   inkscape:connector-curvature="0"
   style="fill:#000000;stroke:none" />
         <path
   d="m 10009,14861 h 2 -33 l -30,3 -33,5 -31,8 -33,15 -33,15 -38,21 -38,28 20,30 38,-28 33,-20 33,-15 28,-11 26,-7 28,-5 30,-3 h 33 3 -3 l 13,-5 5,-13 -5,-12 -13,-6 z"
   id="path70"
   inkscape:connector-curvature="0"
   style="fill:#000000;stroke:none" />
         <path
   d="m 10024,14859 h -3 l -12,2 5,36 12,-2 h -2 2 l 13,-8 3,-13 -8,-10 -13,-5 z"
   id="path72"
   inkscape:connector-curvature="0"
   style="fill:#000000;stroke:none" />
         <path
   d="m 10616,15559 16,-18 v -54 l -3,-53 -10,-58 -15,-59 -21,-56 -25,-59 -28,-53 -38,-53 -38,-49 -49,-43 -48,-43 -56,-33 -63,-28 -67,-23 -73,-13 -74,-5 v 36 l 74,5 68,12 61,18 59,28 51,33 48,38 43,44 38,43 34,48 27,54 26,53 15,56 15,54 11,53 2,53 v 54 l 15,-18 z"
   id="path74"
   inkscape:connector-curvature="0"
   style="fill:#000000;stroke:none" />
         <path
   d="m 10220,15638 7,2 389,-81 -5,-36 -389,82 8,2 -8,-2 -12,7 -3,13 8,10 12,5 z"
   id="path76"
   inkscape:connector-curvature="0"
   style="fill:#000000;stroke:none" />
         <path
   d="m 10171,15620 h 3 l 46,18 10,-31 -46,-18 h 3 -3 l -13,3 -7,7 v 13 l 10,8 z"
   id="path78"
   inkscape:connector-curvature="0"
   style="fill:#000000;stroke:none" />
         <path
   d="m 10184,15602 -25,10 12,8 16,-31 -13,-7 -25,10 25,-10 h -13 l -10,7 -2,13 10,10 z"
   id="path80"
   inkscape:connector-curvature="0"
   style="fill:#000000;stroke:none" />
         <path
   d="m 9495,15587 h -5 8 l 20,2 33,3 43,5 51,2 56,6 61,5 61,2 64,5 61,3 56,2 50,3 h 46 l 33,-3 26,-2 25,-18 -35,-10 5,-8 -21,3 -33,2 h -46 l -50,-2 -56,-3 -61,-2 -64,-5 -61,-3 -61,-5 -56,-5 -51,-3 -43,-5 -33,-2 -20,-3 h -8 -5 5 l -13,5 -5,13 5,13 13,5 z"
   id="path82"
   inkscape:connector-curvature="0"
   style="fill:#000000;stroke:none" />
         <path
   d="m 9475,15592 h 5 l 15,-5 -10,-36 -15,5 h 5 -5 l -11,8 -2,13 7,12 16,3 z"
   id="path84"
   inkscape:connector-curvature="0"
   style="fill:#000000;stroke:none" />
         <path
   d="m 9345,15579 13,28 117,-15 v -36 l -117,15 12,28 -12,-28 -13,6 -5,12 5,13 13,5 z"
   id="path86"
   inkscape:connector-curvature="0"
   style="fill:#000000;stroke:none" />
         <path
   d="m 9365,15556 5,-7 -25,30 25,20 26,-30 5,-8 -5,8 2,-13 -5,-10 -12,-3 -11,6 z"
   id="path88"
   inkscape:connector-curvature="0"
   style="fill:#000000;stroke:none" />
         <path
   d="m 10599,15549 10,10 13,-3 7,-10 v -13 z"
   id="path90"
   inkscape:connector-curvature="0"
   style="fill:#000000;stroke:none" />
         <path
   d="m 9785,15075 v 0 l 69,-2 66,2 63,3 61,7 59,11 53,15 54,18 50,25 46,28 49,33 43,41 43,43 43,54 38,56 39,66 38,74 30,-16 -38,-74 -38,-66 -43,-61 -44,-53 -43,-49 -48,-40 -48,-38 -51,-28 -56,-26 -54,-23 -58,-15 -59,-10 -66,-8 -63,-2 -66,-3 -69,3 v 0 z"
   id="path92"
   inkscape:connector-curvature="0"
   style="fill:#000000;stroke:none" />
         <path
   d="m 9368,15518 v 3 l 5,-46 10,-49 13,-43 12,-41 18,-38 23,-35 21,-33 28,-31 25,-28 33,-23 33,-23 36,-18 35,-12 38,-13 44,-8 43,-5 v -35 l -48,5 -44,7 -43,13 -41,18 -35,18 -38,23 -33,28 -31,28 -28,35 -25,33 -23,41 -18,43 -18,41 -13,48 -10,49 -5,51 v 2 -2 l 5,12 13,5 13,-5 5,-12 z"
   id="path94"
   inkscape:connector-curvature="0"
   style="fill:#000000;stroke:none" />
         <path
   d="m 9375,15587 -2,-18 -3,-15 v -18 l -2,-18 -36,5 3,13 v 18 l 2,20 3,18 z"
   id="path96"
   inkscape:connector-curvature="0"
   style="fill:#000000;stroke:none" />
         <path
   d="m 9340,15592 7,13 13,2 10,-8 5,-12 z"
   id="path98"
   inkscape:connector-curvature="0"
   style="fill:#000000;stroke:none" />
         <path
   d="m 9365,15556 5,13 11,8 12,-3 8,-13 z"
   id="path100"
   inkscape:connector-curvature="0"
   style="fill:#000000;stroke:none" />
         <path
   d="m 9500,15243 v 0 l -18,33 -18,36 -17,38 -18,43 -18,41 -18,41 -15,38 -13,43 36,5 13,-38 10,-38 18,-41 17,-40 18,-39 18,-38 18,-35 18,-34 v 0 z"
   id="path102"
   inkscape:connector-curvature="0"
   style="fill:#000000;stroke:none" />
         <path
   d="m 9742,14956 v 0 l -36,30 -38,33 -33,36 -33,38 -33,38 -26,38 -23,39 -20,35 31,15 20,-35 23,-33 25,-38 28,-39 33,-33 33,-35 33,-33 36,-26 v 0 z"
   id="path104"
   inkscape:connector-curvature="0"
   style="fill:#000000;stroke:none" />
         <path
   d="m 10011,14861 v 0 h -33 l -30,3 -33,5 -31,8 -33,15 -33,15 -38,21 -38,28 20,30 38,-28 33,-20 33,-15 28,-11 26,-7 28,-5 30,-3 h 33 v 0 z"
   id="path106"
   inkscape:connector-curvature="0"
   style="fill:#000000;stroke:none" />
         <path
   d="m 10347,14958 v 0 l -43,-30 -44,-23 -43,-18 -46,-13 -43,-7 -40,-3 -41,-3 h -36 v 36 h 36 l 41,3 40,2 38,8 41,13 38,12 43,23 39,26 v 0 z"
   id="path108"
   inkscape:connector-curvature="0"
   style="fill:#000000;stroke:none" />
         <path
   d="m 10566,15210 v 0 l -18,-33 -21,-28 -22,-31 -26,-30 -28,-36 -30,-30 -36,-31 -38,-33 -20,26 38,33 30,30 31,31 28,30 25,31 18,30 20,28 18,28 v 0 z"
   id="path110"
   inkscape:connector-curvature="0"
   style="fill:#000000;stroke:none" />
         <path
   d="m 10632,15541 -5,-87 -13,-89 -20,-86 -28,-69 -31,15 23,64 20,81 13,84 5,87 z"
   id="path112"
   inkscape:connector-curvature="0"
   style="fill:#000000;stroke:none" />
         <path
   d="m 10596,15541 5,13 13,5 13,-5 5,-13 z"
   id="path114"
   inkscape:connector-curvature="0"
   style="fill:#000000;stroke:none" />
         <path
   d="m 9981,14874 h -13 l -10,8 -3,13 10,10 z"
   id="path116"
   inkscape:connector-curvature="0"
   style="fill:#000000;stroke:none" />
         <path
   d="m 10149,15078 v 0 l -16,-31 -18,-30 -17,-31 -23,-28 -21,-23 -20,-25 -25,-21 -28,-15 -16,31 23,15 21,15 20,21 20,23 18,28 18,25 18,30 15,31 v 0 z"
   id="path118"
   inkscape:connector-curvature="0"
   style="fill:#000000;stroke:none" />
         <path
   d="m 10238,15376 v 0 l -8,-51 -8,-41 -7,-38 -13,-41 -10,-33 -15,-31 -13,-33 -15,-30 -31,15 15,31 13,28 10,30 10,33 13,36 8,38 7,41 8,46 v 0 z"
   id="path120"
   inkscape:connector-curvature="0"
   style="fill:#000000;stroke:none" />
         <path
   d="m 10248,15602 5,-41 v -43 l -5,-59 -10,-83 h -36 l 10,83 5,59 v 43 l -5,41 z"
   id="path122"
   inkscape:connector-curvature="0"
   style="fill:#000000;stroke:none" />
         <path
   d="m 10212,15602 5,13 13,5 13,-5 5,-13 z"
   id="path124"
   inkscape:connector-curvature="0"
   style="fill:#000000;stroke:none" />
         <path
   d="m 9490,15569 8,-33 12,-41 15,-43 21,-46 23,-46 23,-38 22,-33 23,-23 23,-18 26,-20 28,-20 28,-18 33,-18 30,-13 33,-7 h 31 l 30,2 28,5 31,8 25,7 26,11 23,10 17,13 18,15 18,20 15,23 15,23 11,28 10,25 10,28 5,28 3,28 5,51 7,49 3,40 -3,31 -10,5 -23,3 -33,2 h -46 l -50,-2 -56,-3 -61,-3 -64,-5 -61,-2 -61,-5 -56,-5 -51,-3 -43,-5 -33,-3 -20,-2 z"
   id="path126"
   inkscape:connector-curvature="0"
   style="fill:#bf3a19;stroke:none" />
         <path
   d="m 9627,15253 v 0 l -25,26 -26,33 -23,41 -22,45 -21,49 -18,43 -12,43 -8,36 h 36 l 7,-31 13,-38 13,-43 20,-43 23,-46 23,-36 20,-33 21,-20 v 0 z"
   id="path128"
   inkscape:connector-curvature="0"
   style="fill:#000000;stroke:none" />
         <path
   d="m 9869,15134 v 0 h -31 l -38,7 -33,16 -33,17 -31,18 -27,23 -26,21 -23,17 21,26 22,-18 26,-20 28,-18 25,-18 33,-18 28,-10 28,-8 h 31 v 0 z"
   id="path130"
   inkscape:connector-curvature="0"
   style="fill:#000000;stroke:none" />
         <path
   d="m 10080,15210 v 0 l -20,-15 -21,-15 -25,-11 -26,-12 -28,-8 -30,-8 -31,-5 -30,-2 v 35 l 30,3 26,5 30,8 23,7 26,8 20,10 15,10 15,16 v 0 z"
   id="path132"
   inkscape:connector-curvature="0"
   style="fill:#000000;stroke:none" />
         <path
   d="m 10171,15426 v 0 l -2,-28 -5,-30 -13,-31 -10,-25 -10,-31 -16,-25 -17,-23 -18,-23 -26,26 18,17 13,23 15,21 10,25 11,26 7,25 5,25 3,28 v 0 z"
   id="path134"
   inkscape:connector-curvature="0"
   style="fill:#000000;stroke:none" />
         <path
   d="m 10184,15602 v 0 l 3,-36 -3,-40 -7,-49 -6,-51 h -35 l 5,51 8,49 2,40 -2,26 v 0 z"
   id="path136"
   inkscape:connector-curvature="0"
   style="fill:#000000;stroke:none" />
         <path
   d="m 9472,15569 18,18 h 8 l 20,2 33,3 43,5 51,2 56,6 61,5 61,2 64,5 61,3 56,2 50,3 h 46 l 33,-3 26,-2 25,-18 -35,-10 5,-8 -21,3 -33,2 h -46 l -50,-2 -56,-3 -61,-2 -64,-5 -61,-3 -61,-5 -56,-5 -51,-3 -43,-5 -33,-2 -20,-3 h -8 l 18,18 -18,-18 -13,5 -5,13 5,13 13,5 z"
   id="path138"
   inkscape:connector-curvature="0"
   style="fill:#000000;stroke:none" />
        </g>
       </g>
      </g>
     </g>
    </g>
   </g>
  </g>
 </g>
</svg>