<?xml version="1.0" encoding="UTF-8" standalone="no"?>
<svg
   xmlns:ooo="http://xml.openoffice.org/svg/export"
   xmlns:dc="http://purl.org/dc/elements/1.1/"
   xmlns:cc="http://creativecommons.org/ns#"
   xmlns:rdf="http://www.w3.org/1999/02/22-rdf-syntax-ns#"
   xmlns:svg="http://www.w3.org/2000/svg"
   xmlns="http://www.w3.org/2000/svg"
   xmlns:sodipodi="http://sodipodi.sourceforge.net/DTD/sodipodi-0.dtd"
   xmlns:inkscape="http://www.inkscape.org/namespaces/inkscape"
   version="1.2"
   width="28.98mm"
   height="37.59mm"
   viewBox="0 0 2898 3759"
   preserveAspectRatio="xMidYMid"
   xml:space="preserve"
   id="svg603"
   sodipodi:docname="cauldron.svg"
   style="fill-rule:evenodd;stroke-width:28.22200012;stroke-linejoin:round"
   inkscape:version="0.92.5 (2060ec1f9f, 2020-04-08)"><metadata
   id="metadata607"><rdf:RDF><cc:Work
       rdf:about=""><dc:format>image/svg+xml</dc:format><dc:type
         rdf:resource="http://purl.org/dc/dcmitype/StillImage" /></cc:Work></rdf:RDF></metadata><sodipodi:namedview
   pagecolor="#ffffff"
   bordercolor="#666666"
   borderopacity="1"
   objecttolerance="10"
   gridtolerance="10"
   guidetolerance="10"
   inkscape:pageopacity="0"
   inkscape:pageshadow="2"
   inkscape:window-width="664"
   inkscape:window-height="487"
   id="namedview605"
   showgrid="false"
   inkscape:zoom="0.2102413"
   inkscape:cx="54.765355"
   inkscape:cy="71.017321"
   inkscape:window-x="0"
   inkscape:window-y="0"
   inkscape:window-maximized="0"
   inkscape:current-layer="svg603" />
 <defs
   class="ClipPathGroup"
   id="defs8">
  <clipPath
   id="presentation_clip_path"
   clipPathUnits="userSpaceOnUse">
   <rect
   x="0"
   y="0"
   width="21000"
   height="29700"
   id="rect2" />
  </clipPath>
  <clipPath
   id="presentation_clip_path_shrink"
   clipPathUnits="userSpaceOnUse">
   <rect
   x="21"
   y="29"
   width="20958"
   height="29641"
   id="rect5" />
  </clipPath>
 </defs>
 <defs
   class="TextShapeIndex"
   id="defs12">
  <g
   ooo:slide="id1"
   ooo:id-list="id3"
   id="g10" />
 </defs>
 <defs
   class="EmbeddedBulletChars"
   id="defs44">
  <g
   id="bullet-char-template-57356"
   transform="matrix(4.8828125e-4,0,0,-4.8828125e-4,0,0)">
   <path
   d="M 580,1141 1163,571 580,0 -4,571 Z"
   id="path14"
   inkscape:connector-curvature="0" />
  </g>
  <g
   id="bullet-char-template-57354"
   transform="matrix(4.8828125e-4,0,0,-4.8828125e-4,0,0)">
   <path
   d="M 8,1128 H 1137 V 0 H 8 Z"
   id="path17"
   inkscape:connector-curvature="0" />
  </g>
  <g
   id="bullet-char-template-10146"
   transform="matrix(4.8828125e-4,0,0,-4.8828125e-4,0,0)">
   <path
   d="M 174,0 602,739 174,1481 1456,739 Z M 1358,739 309,1346 659,739 Z"
   id="path20"
   inkscape:connector-curvature="0" />
  </g>
  <g
   id="bullet-char-template-10132"
   transform="matrix(4.8828125e-4,0,0,-4.8828125e-4,0,0)">
   <path
   d="M 2015,739 1276,0 H 717 l 543,543 H 174 v 393 h 1086 l -543,545 h 557 z"
   id="path23"
   inkscape:connector-curvature="0" />
  </g>
  <g
   id="bullet-char-template-10007"
   transform="matrix(4.8828125e-4,0,0,-4.8828125e-4,0,0)">
   <path
   d="m 0,-2 c -7,16 -16,29 -25,39 l 381,530 c -94,256 -141,385 -141,387 0,25 13,38 40,38 9,0 21,-2 34,-5 21,4 42,12 65,25 l 27,-13 111,-251 280,301 64,-25 24,25 c 21,-10 41,-24 62,-43 C 886,937 835,863 770,784 769,783 710,716 594,584 L 774,223 c 0,-27 -21,-55 -63,-84 l 16,-20 C 717,90 699,76 672,76 641,76 570,178 457,381 L 164,-76 c -22,-34 -53,-51 -92,-51 -42,0 -63,17 -64,51 -7,9 -10,24 -10,44 0,9 1,19 2,30 z"
   id="path26"
   inkscape:connector-curvature="0" />
  </g>
  <g
   id="bullet-char-template-10004"
   transform="matrix(4.8828125e-4,0,0,-4.8828125e-4,0,0)">
   <path
   d="M 285,-33 C 182,-33 111,30 74,156 52,228 41,333 41,471 c 0,78 14,145 41,201 34,71 87,106 158,106 53,0 88,-31 106,-94 l 23,-176 c 8,-64 28,-97 59,-98 l 735,706 c 11,11 33,17 66,17 42,0 63,-15 63,-46 V 965 c 0,-36 -10,-64 -30,-84 L 442,47 C 390,-6 338,-33 285,-33 Z"
   id="path29"
   inkscape:connector-curvature="0" />
  </g>
  <g
   id="bullet-char-template-9679"
   transform="matrix(4.8828125e-4,0,0,-4.8828125e-4,0,0)">
   <path
   d="M 813,0 C 632,0 489,54 383,161 276,268 223,411 223,592 c 0,181 53,324 160,431 106,107 249,161 430,161 179,0 323,-54 432,-161 108,-107 162,-251 162,-431 0,-180 -54,-324 -162,-431 C 1136,54 992,0 813,0 Z"
   id="path32"
   inkscape:connector-curvature="0" />
  </g>
  <g
   id="bullet-char-template-8226"
   transform="matrix(4.8828125e-4,0,0,-4.8828125e-4,0,0)">
   <path
   d="m 346,457 c -73,0 -137,26 -191,78 -54,51 -81,114 -81,188 0,73 27,136 81,188 54,52 118,78 191,78 73,0 134,-26 185,-79 51,-51 77,-114 77,-187 0,-75 -25,-137 -76,-188 -50,-52 -112,-78 -186,-78 z"
   id="path35"
   inkscape:connector-curvature="0" />
  </g>
  <g
   id="bullet-char-template-8211"
   transform="matrix(4.8828125e-4,0,0,-4.8828125e-4,0,0)">
   <path
   d="M -4,459 H 1135 V 606 H -4 Z"
   id="path38"
   inkscape:connector-curvature="0" />
  </g>
  <g
   id="bullet-char-template-61548"
   transform="matrix(4.8828125e-4,0,0,-4.8828125e-4,0,0)">
   <path
   d="m 173,740 c 0,163 58,303 173,419 116,115 255,173 419,173 163,0 302,-58 418,-173 116,-116 174,-256 174,-419 0,-163 -58,-303 -174,-418 C 1067,206 928,148 765,148 601,148 462,206 346,322 231,437 173,577 173,740 Z"
   id="path41"
   inkscape:connector-curvature="0" />
  </g>
 </defs>
 <g
   id="g49"
   transform="translate(-9051,-12970)">
  <g
   id="id2"
   class="Master_Slide">
   <g
   id="bg-id2"
   class="Background" />
   <g
   id="bo-id2"
   class="BackgroundObjects" />
  </g>
 </g>
 <g
   class="SlideGroup"
   id="g601"
   transform="translate(-9051,-12970)">
  <g
   id="g599">
   <g
   id="container-id1">
    <g
   id="id1"
   class="Slide"
   clip-path="url(#presentation_clip_path)">
     <g
   class="Page"
   id="g595">
      <g
   class="Graphic"
   id="g593">
       <g
   id="id3">
        <rect
   class="BoundingBox"
   x="9051"
   y="12970"
   width="2898"
   height="3759"
   id="rect51"
   style="fill:none;stroke:none" />
        <defs
   id="defs56">
         <clipPath
   id="clip_path_1"
   clipPathUnits="userSpaceOnUse">
          <path
   d="m 9051,12970 h 2897 v 3758 H 9051 Z"
   id="path53"
   inkscape:connector-curvature="0" />
         </clipPath>
        </defs>
        <g
   clip-path="url(#clip_path_1)"
   id="g590">
         <path
   d="m 10469,16002 158,-5 145,-18 130,-25 117,-36 104,-43 91,-51 82,-58 68,-64 61,-68 49,-74 43,-76 30,-79 26,-79 18,-81 12,-82 5,-78 -5,-115 -18,-101 -27,-87 -36,-74 -41,-63 -38,-51 -35,-41 -31,-33 20,-15 18,-18 20,-23 16,-25 12,-28 8,-28 3,-33 -3,-33 -10,-33 -20,-33 -28,-31 -41,-33 -51,-30 -63,-28 -77,-28 -91,-23 -46,-10 -48,-8 -46,-10 -43,-7 -46,-6 -43,-7 -41,-5 -43,-5 -41,-5 -40,-3 -41,-5 -38,-3 -38,-2 h -39 l -38,-3 h -35 -36 -38 l -38,3 h -38 l -38,5 -41,3 -41,2 -40,5 -44,5 -40,8 -44,5 -45,8 -43,7 -46,10 -49,8 -45,10 -92,23 -76,28 -64,28 -50,30 -41,33 -28,31 -20,33 -11,33 -2,33 2,33 8,28 13,28 15,25 20,23 18,18 20,15 -30,33 -36,41 -38,51 -40,63 -36,74 -28,87 -18,101 -5,115 5,78 15,82 23,81 31,79 38,79 48,76 59,74 68,68 77,64 89,58 101,51 110,43 124,36 135,25 147,18 z"
   id="path58"
   inkscape:connector-curvature="0"
   style="fill:#000000;stroke:none" />
         <path
   d="m 11601,15085 v 0 l -5,78 -13,82 -18,79 -25,78 -31,79 -43,74 -48,73 -59,69 -68,61 -82,59 -89,50 -104,44 -114,35 -130,26 -145,17 -158,3 v 20 l 158,-7 145,-18 130,-26 119,-35 104,-43 94,-51 82,-59 68,-66 64,-68 48,-74 43,-79 31,-79 25,-78 18,-84 13,-82 5,-78 v 0 z"
   id="path60"
   inkscape:connector-curvature="0"
   style="fill:#000000;stroke:none" />
         <path
   d="m 11372,14513 -3,12 33,33 33,41 39,51 40,61 36,74 28,84 18,101 5,115 h 15 l -5,-115 -18,-101 -28,-89 -35,-74 -41,-66 -38,-51 -38,-41 -28,-33 -3,13 3,-13 -5,-5 -6,3 -5,5 v 7 z"
   id="path62"
   inkscape:connector-curvature="0"
   style="fill:#000000;stroke:none" />
         <path
   d="m 11090,14086 v 0 l 89,23 76,28 64,28 48,30 41,31 25,30 20,31 10,30 v 33 33 l -7,26 -13,27 -15,23 -18,23 -18,15 -20,16 10,15 20,-15 18,-21 23,-22 15,-28 13,-28 8,-31 5,-33 -5,-33 -10,-36 -21,-35 -30,-31 -41,-35 -53,-31 -64,-28 -76,-28 -94,-22 v 0 z"
   id="path64"
   inkscape:connector-curvature="0"
   style="fill:#000000;stroke:none" />
         <path
   d="m 10424,14007 v 0 l 35,3 38,2 h 39 38 l 38,3 41,5 40,2 41,5 43,5 41,5 43,8 46,5 43,8 46,10 48,8 46,10 v -15 l -46,-11 -48,-7 -46,-10 -43,-8 -46,-5 -43,-8 -41,-5 -43,-5 -41,-5 -40,-3 -41,-5 -38,-2 -38,-5 h -39 l -38,-3 -35,3 v 0 z"
   id="path66"
   inkscape:connector-curvature="0"
   style="fill:#000000;stroke:none" />
         <path
   d="m 9758,14086 v 0 l 45,-10 49,-8 46,-10 43,-8 45,-7 44,-6 40,-7 44,-5 40,-5 41,-3 41,-2 38,-5 38,2 38,-2 h 38 l 36,-3 v -15 l -36,-3 h -38 l -38,3 -38,2 -38,5 -41,3 -41,2 -40,6 -44,5 -40,7 -44,5 -45,8 -43,8 -46,10 -49,7 -45,11 v 0 z"
   id="path68"
   inkscape:connector-curvature="0"
   style="fill:#000000;stroke:none" />
         <path
   d="m 9478,14525 -2,-12 -21,-16 -18,-15 -17,-23 -16,-23 -12,-27 -8,-26 v -33 -33 l 10,-30 21,-31 25,-30 41,-31 48,-30 63,-28 77,-28 89,-23 v -15 l -94,22 -77,28 -63,28 -54,31 -40,35 -31,31 -20,35 -10,36 -5,33 5,33 7,31 13,28 15,28 23,22 18,21 20,15 -2,-13 2,13 h 8 l 5,-5 3,-5 -5,-5 z"
   id="path70"
   inkscape:connector-curvature="0"
   style="fill:#000000;stroke:none" />
         <path
   d="m 9247,15085 v 0 l 5,-115 18,-101 28,-84 35,-74 41,-61 38,-51 33,-41 33,-33 -15,-10 -28,33 -38,41 -38,51 -41,66 -36,74 -28,89 -17,101 -6,115 v 0 z"
   id="path72"
   inkscape:connector-curvature="0"
   style="fill:#000000;stroke:none" />
         <path
   d="m 10469,15992 v 0 l -160,-3 -147,-17 -135,-26 -122,-35 -109,-44 -102,-50 -86,-59 -77,-61 -68,-69 -56,-73 -48,-74 -39,-79 -30,-78 -23,-79 -15,-82 -5,-78 h -16 l 6,78 15,82 23,84 30,78 38,79 49,79 61,74 68,68 77,66 91,59 102,51 109,43 127,35 135,26 147,18 160,7 v 0 0 l 8,-2 3,-8 -3,-8 z"
   id="path74"
   inkscape:connector-curvature="0"
   style="fill:#000000;stroke:none" />
         <path
   d="m 11250,14378 -15,10 -18,8 -18,10 -20,8 -26,10 -28,7 -30,11 -38,7 -43,10 -49,8 -58,8 -66,7 -74,8 -87,7 -94,6 -106,7 -110,5 h -99 -89 l -84,-5 -76,-5 -66,-10 -61,-8 -56,-12 -48,-11 -41,-12 -36,-10 -30,-13 -25,-10 -23,-10 -16,-8 -12,-8 61,-20 73,-20 82,-16 91,-15 102,-13 104,-10 112,-7 114,-5 117,-3 120,3 119,5 117,10 115,12 112,16 104,23 z"
   id="path76"
   inkscape:connector-curvature="0"
   style="fill:#b2ff00;stroke:none" />
         <path
   d="m 10480,14518 v 0 l 106,-8 94,-5 87,-8 74,-7 66,-8 58,-7 49,-8 43,-10 40,-8 31,-10 28,-8 25,-10 21,-7 17,-11 18,-7 15,-10 -5,-16 -15,11 -18,7 -17,10 -21,8 -25,10 -28,8 -31,10 -35,8 -43,10 -49,7 -58,8 -66,8 -74,7 -87,8 -94,5 -106,8 v 0 z"
   id="path78"
   inkscape:connector-curvature="0"
   style="fill:#000000;stroke:none" />
         <path
   d="m 9605,14386 v 15 l 13,8 15,7 23,10 25,10 31,13 36,10 43,13 48,10 56,13 61,8 66,10 76,5 84,7 h 89 99 l 110,-7 v -15 l -110,2 h -99 -89 l -84,-2 -76,-6 -66,-10 -61,-7 -56,-13 -48,-10 -38,-13 -36,-10 -30,-13 -26,-10 -23,-10 -15,-8 -13,-7 v 15 -15 h -7 l -3,5 v 5 l 5,5 z"
   id="path80"
   inkscape:connector-curvature="0"
   style="fill:#000000;stroke:none" />
         <path
   d="m 11252,14386 v -16 l -101,-25 -104,-23 -112,-15 -115,-13 -117,-10 -119,-5 -120,-5 -117,5 -114,5 -112,8 -104,10 -102,12 -91,16 -82,15 -76,20 -61,21 5,15 61,-20 71,-21 82,-15 91,-15 102,-13 104,-10 112,-8 114,-5 h 117 120 l 119,5 117,10 115,13 112,15 104,23 96,26 v -16 16 h 8 l 3,-5 v -8 l -6,-3 z"
   id="path82"
   inkscape:connector-curvature="0"
   style="fill:#000000;stroke:none" />
         <path
   d="m 11189,14975 30,-2 28,-10 23,-16 23,-17 18,-23 13,-28 10,-31 2,-30 -2,-31 -10,-30 -13,-26 -18,-23 -23,-20 -23,-13 -28,-10 -30,-2 -31,2 -28,10 -22,13 -23,20 -18,23 -13,26 -10,30 -3,31 3,30 10,31 13,28 18,23 23,17 22,16 28,10 z"
   id="path84"
   inkscape:connector-curvature="0"
   style="fill:#003366;stroke:none" />
         <path
   d="m 11326,14818 v 0 30 l -10,28 -13,26 -15,22 -23,16 -20,15 -26,10 h -30 v 20 l 30,-5 31,-10 25,-15 23,-20 21,-23 12,-31 10,-33 6,-30 v 0 z"
   id="path86"
   inkscape:connector-curvature="0"
   style="fill:#000000;stroke:none" />
         <path
   d="m 11189,14673 v 0 h 30 l 26,10 20,13 23,18 15,22 13,23 10,28 v 31 h 21 l -6,-31 -10,-33 -12,-28 -21,-23 -23,-23 -25,-12 -31,-10 -30,-5 v 0 z"
   id="path88"
   inkscape:connector-curvature="0"
   style="fill:#000000;stroke:none" />
         <path
   d="m 11052,14818 v 0 -31 l 10,-28 13,-23 15,-22 23,-18 20,-13 25,-10 h 31 v -20 l -31,5 -30,10 -26,12 -22,23 -21,23 -12,28 -11,33 -5,31 v 0 z"
   id="path90"
   inkscape:connector-curvature="0"
   style="fill:#000000;stroke:none" />
         <path
   d="m 11189,14965 v 0 h -31 l -25,-10 -20,-15 -23,-16 -15,-22 -13,-26 -10,-28 v -30 h -21 l 5,30 11,33 12,31 21,23 22,20 26,15 30,10 31,5 v 0 z"
   id="path92"
   inkscape:connector-curvature="0"
   style="fill:#000000;stroke:none" />
         <path
   d="m 11453,14604 51,76 26,6 20,12 13,21 v 20 l -16,23 -33,23 -51,17 -76,11 -46,2 -33,-2 -22,-5 -13,-8 -10,-8 -11,-7 -7,-8 -13,-8 -18,-2 -20,2 -20,11 -18,15 -13,18 -5,17 8,23 20,21 15,10 18,10 20,8 23,7 23,8 23,5 28,2 25,3 h 28 28 l 31,-5 28,-5 30,-8 31,-10 28,-15 30,-15 51,-41 36,-46 15,-48 v -48 l -23,-41 -43,-31 -66,-15 z"
   id="path94"
   inkscape:connector-curvature="0"
   style="fill:#7f99b2;stroke:none" />
         <path
   d="m 11504,14670 8,5 -51,-76 -15,10 51,77 7,5 -7,-5 5,5 7,-3 3,-5 v -8 z"
   id="path96"
   inkscape:connector-curvature="0"
   style="fill:#000000;stroke:none" />
         <path
   d="m 11387,14820 v 0 l 76,-10 54,-18 35,-25 18,-26 v -25 l -15,-23 -23,-15 -28,-8 v 21 l 23,2 18,10 10,18 v 15 l -13,21 -30,20 -49,18 -76,10 v 0 z"
   id="path98"
   inkscape:connector-curvature="0"
   style="fill:#000000;stroke:none" />
         <path
   d="m 11230,14777 v 0 l 10,8 7,7 11,8 10,8 15,7 25,5 33,5 46,-5 v -15 h -46 -33 l -20,-5 -10,-8 -10,-7 -10,-8 -8,-8 -15,-7 v 0 z"
   id="path100"
   inkscape:connector-curvature="0"
   style="fill:#000000;stroke:none" />
         <path
   d="m 11171,14866 v 0 l -18,-18 -7,-18 5,-15 10,-15 18,-13 18,-10 h 17 16 l 5,-15 -21,-5 -23,5 -22,10 -18,18 -15,20 -6,20 8,28 23,23 v 0 z"
   id="path102"
   inkscape:connector-curvature="0"
   style="fill:#000000;stroke:none" />
         <path
   d="m 11570,14861 v 0 l -28,15 -28,15 -30,11 -28,7 -28,5 -31,5 -28,-2 h -28 -25 l -28,-3 -20,-5 -23,-7 -23,-8 -20,-8 -16,-10 -15,-10 -10,15 15,10 21,11 20,7 23,8 23,7 25,6 28,2 25,5 h 28 l 28,-2 31,-5 28,-6 33,-7 30,-10 28,-16 33,-15 v 0 z"
   id="path104"
   inkscape:connector-curvature="0"
   style="fill:#000000;stroke:none" />
         <path
   d="m 11461,14599 -8,13 92,-5 63,15 41,28 20,36 v 48 l -15,46 -33,43 -51,38 10,15 51,-43 38,-48 16,-51 v -48 l -26,-46 -46,-33 -68,-15 -92,5 -7,12 7,-12 -5,2 -2,5 2,5 5,3 z"
   id="path106"
   inkscape:connector-curvature="0"
   style="fill:#000000;stroke:none" />
         <path
   d="m 10195,14401 28,-3 25,-2 23,-5 21,-8 17,-10 13,-13 8,-12 2,-13 -2,-13 -8,-13 -13,-10 -17,-10 -21,-8 -23,-7 -25,-3 -28,-2 -28,2 -25,3 -23,7 -18,8 -18,10 -13,10 -7,13 -3,13 3,13 7,12 13,13 18,10 18,8 23,5 25,2 z"
   id="path108"
   inkscape:connector-curvature="0"
   style="fill:#e5eaef;stroke:none" />
         <path
   d="m 10322,14335 v 0 10 l -8,10 -10,10 -15,10 -20,8 -21,5 -25,3 h -28 v 20 l 28,-5 25,-3 26,-5 20,-7 20,-10 16,-16 7,-15 5,-15 v 0 z"
   id="path110"
   inkscape:connector-curvature="0"
   style="fill:#000000;stroke:none" />
         <path
   d="m 10195,14279 v 0 h 28 l 25,2 21,8 20,8 15,10 13,7 5,11 v 10 h 20 l -5,-15 -10,-16 -13,-12 -20,-11 -20,-7 -26,-8 -25,-2 -28,-5 v 0 z"
   id="path112"
   inkscape:connector-curvature="0"
   style="fill:#000000;stroke:none" />
         <path
   d="m 10070,14335 v 0 -10 l 5,-11 13,-7 15,-10 18,-8 21,-8 25,-2 h 28 v -20 l -28,5 -25,2 -26,8 -18,7 -20,11 -13,12 -10,16 -5,15 v 0 z"
   id="path114"
   inkscape:connector-curvature="0"
   style="fill:#000000;stroke:none" />
         <path
   d="m 10195,14391 v 0 h -28 l -25,-3 -21,-5 -18,-8 -15,-10 -10,-10 -8,-10 v -10 h -20 l 5,15 8,15 15,16 20,10 18,7 26,5 25,3 28,5 v 0 z"
   id="path116"
   inkscape:connector-curvature="0"
   style="fill:#000000;stroke:none" />
         <path
   d="m 10808,14416 40,-2 38,-3 36,-8 30,-10 23,-10 21,-13 10,-12 5,-16 -5,-15 -10,-15 -21,-13 -23,-10 -30,-10 -36,-8 -38,-2 -40,-3 -41,3 -38,2 -36,8 -28,10 -25,10 -21,13 -10,15 -5,15 5,16 10,12 21,13 25,10 28,10 36,8 38,3 z"
   id="path118"
   inkscape:connector-curvature="0"
   style="fill:#e5eaef;stroke:none" />
         <path
   d="m 11001,14342 v 0 l -3,13 -7,8 -18,12 -23,11 -31,10 -33,7 -38,3 h -40 v 20 l 40,-5 38,-2 39,-8 30,-10 23,-10 23,-13 13,-18 7,-18 v 0 z"
   id="path120"
   inkscape:connector-curvature="0"
   style="fill:#000000;stroke:none" />
         <path
   d="m 10808,14276 v 0 h 40 l 38,3 33,8 31,10 23,10 18,10 7,13 3,12 h 20 l -7,-17 -13,-18 -23,-15 -23,-11 -30,-10 -39,-7 -38,-3 -40,-5 v 0 z"
   id="path122"
   inkscape:connector-curvature="0"
   style="fill:#000000;stroke:none" />
         <path
   d="m 10614,14342 v 0 l 3,-12 8,-13 17,-10 26,-10 28,-10 33,-8 38,-3 h 41 v -20 l -41,5 -38,3 -38,7 -28,10 -26,11 -23,15 -12,18 -8,17 v 0 z"
   id="path124"
   inkscape:connector-curvature="0"
   style="fill:#000000;stroke:none" />
         <path
   d="m 10808,14406 v 0 h -41 l -38,-3 -33,-7 -28,-10 -26,-11 -17,-12 -8,-8 -3,-13 h -20 l 8,18 12,18 23,13 26,10 28,10 38,8 38,2 41,5 v 0 z"
   id="path126"
   inkscape:connector-curvature="0"
   style="fill:#000000;stroke:none" />
         <path
   d="m 10627,14454 h 20 l 21,-5 18,-5 15,-8 13,-7 10,-10 5,-10 2,-11 -2,-10 -5,-13 -10,-7 -13,-10 -15,-5 -18,-5 -21,-6 h -20 -20 l -21,6 -17,5 -16,5 -12,10 -10,7 -6,13 -2,10 2,11 6,10 10,10 12,7 16,8 17,5 21,5 z"
   id="path128"
   inkscape:connector-curvature="0"
   style="fill:#e5eaef;stroke:none" />
         <path
   d="m 10721,14398 v 0 8 l -5,8 -8,7 -10,8 -15,7 -18,6 -18,5 -20,-3 v 20 l 20,-2 23,-5 18,-5 15,-8 16,-8 12,-12 5,-13 6,-13 v 0 z"
   id="path130"
   inkscape:connector-curvature="0"
   style="fill:#000000;stroke:none" />
         <path
   d="m 10627,14353 v 0 l 20,-3 18,5 18,5 15,5 10,10 8,6 5,10 v 7 h 21 l -6,-12 -5,-16 -12,-10 -16,-10 -15,-5 -18,-5 -23,-5 -20,-3 v 0 z"
   id="path132"
   inkscape:connector-curvature="0"
   style="fill:#000000;stroke:none" />
         <path
   d="m 10533,14398 v 0 -7 l 5,-10 8,-6 10,-10 15,-5 18,-5 18,-5 20,3 v -21 l -20,3 -23,5 -18,5 -15,5 -15,10 -13,10 -5,16 -5,12 v 0 z"
   id="path134"
   inkscape:connector-curvature="0"
   style="fill:#000000;stroke:none" />
         <path
   d="m 10627,14444 v 0 l -20,3 -18,-5 -18,-6 -15,-7 -10,-8 -8,-7 -5,-8 v -8 h -20 l 5,13 5,13 13,12 15,8 15,8 18,5 23,5 20,2 v 0 z"
   id="path136"
   inkscape:connector-curvature="0"
   style="fill:#000000;stroke:none" />
         <path
   d="m 9847,13125 15,-3 15,-2 13,-8 10,-10 10,-10 8,-13 2,-15 3,-15 -3,-15 -2,-16 -8,-12 -10,-13 -10,-10 -13,-8 -15,-2 -15,-3 -16,3 -15,2 -13,8 -12,10 -10,13 -8,12 -3,16 -2,15 2,15 3,15 8,13 10,10 12,10 13,8 15,2 z"
   id="path138"
   inkscape:connector-curvature="0"
   style="fill:#e5eaef;stroke:none" />
         <path
   d="m 9913,13049 v 0 15 l -3,13 -7,10 -8,10 -10,8 -10,7 -13,3 h -15 v 20 l 15,-5 18,-2 15,-8 10,-13 13,-10 7,-15 3,-18 5,-15 v 0 z"
   id="path140"
   inkscape:connector-curvature="0"
   style="fill:#000000;stroke:none" />
         <path
   d="m 9847,12980 v 0 h 15 l 13,3 10,7 10,8 8,13 7,10 3,13 v 15 h 20 l -5,-15 -3,-18 -7,-16 -13,-12 -10,-13 -15,-8 -18,-2 -15,-5 v 0 z"
   id="path142"
   inkscape:connector-curvature="0"
   style="fill:#000000;stroke:none" />
         <path
   d="m 9778,13049 v 0 -15 l 3,-13 7,-10 8,-13 13,-8 10,-7 12,-3 h 16 v -20 l -16,5 -17,2 -16,8 -12,13 -13,12 -8,16 -2,18 -5,15 v 0 z"
   id="path144"
   inkscape:connector-curvature="0"
   style="fill:#000000;stroke:none" />
         <path
   d="m 9847,13115 v 0 h -16 l -12,-3 -10,-7 -13,-8 -8,-10 -7,-10 -3,-13 v -15 h -20 l 5,15 2,18 8,15 13,10 12,13 16,8 17,2 16,5 v 0 z"
   id="path146"
   inkscape:connector-curvature="0"
   style="fill:#000000;stroke:none" />
         <path
   d="m 10508,13946 25,-3 23,-7 20,-10 18,-16 15,-20 10,-20 8,-23 3,-26 -3,-25 -8,-25 -10,-21 -15,-20 -18,-15 -20,-10 -23,-8 -25,-3 -26,3 -23,8 -20,10 -20,15 -16,20 -10,21 -7,25 -3,25 3,26 7,23 10,20 16,20 20,16 20,10 23,7 z"
   id="path148"
   inkscape:connector-curvature="0"
   style="fill:#e5eaef;stroke:none" />
         <path
   d="m 10619,13821 v 0 26 l -7,20 -10,18 -13,20 -18,13 -18,10 -20,8 h -25 v 20 l 25,-5 25,-8 23,-10 18,-18 18,-20 10,-23 8,-25 5,-26 v 0 z"
   id="path150"
   inkscape:connector-curvature="0"
   style="fill:#000000;stroke:none" />
         <path
   d="m 10508,13705 v 0 h 25 l 20,7 18,10 18,13 13,20 10,18 7,23 v 25 h 21 l -5,-25 -8,-28 -10,-23 -18,-20 -18,-18 -23,-10 -25,-8 -25,-5 v 0 z"
   id="path152"
   inkscape:connector-curvature="0"
   style="fill:#000000;stroke:none" />
         <path
   d="m 10393,13821 v 0 -25 l 8,-23 10,-18 13,-20 20,-13 18,-10 20,-7 h 26 v -21 l -26,5 -25,8 -23,10 -20,18 -18,20 -10,23 -8,28 -5,25 v 0 z"
   id="path154"
   inkscape:connector-curvature="0"
   style="fill:#000000;stroke:none" />
         <path
   d="m 10508,13936 v 0 h -26 l -20,-8 -18,-10 -20,-13 -13,-20 -10,-18 -8,-20 v -26 h -20 l 5,26 8,25 10,23 18,20 20,18 23,10 25,8 26,5 v 0 z"
   id="path156"
   inkscape:connector-curvature="0"
   style="fill:#000000;stroke:none" />
         <path
   d="m 9664,14213 5,-3 2,-5 -2,-5 -5,-2 z"
   id="path158"
   inkscape:connector-curvature="0"
   style="fill:#000000;stroke:none" />
         <path
   d="m 9610,14386 -35,-26 -18,-28 -5,-28 10,-25 18,-26 25,-17 28,-16 31,-7 v -15 l -36,7 -33,15 -25,23 -23,31 -10,30 5,33 23,33 40,31 z"
   id="path160"
   inkscape:connector-curvature="0"
   style="fill:#000000;stroke:none" />
         <path
   d="m 9605,14401 h 8 l 2,-5 v -8 l -5,-2 z"
   id="path162"
   inkscape:connector-curvature="0"
   style="fill:#000000;stroke:none" />
         <path
   d="m 11245,14370 -5,5 2,6 5,5 h 8 z"
   id="path164"
   inkscape:connector-curvature="0"
   style="fill:#000000;stroke:none" />
         <path
   d="m 11166,14198 41,10 35,18 28,20 18,23 5,28 -2,25 -16,26 -30,22 10,16 31,-28 20,-31 7,-30 -10,-33 -23,-28 -28,-26 -40,-17 -46,-11 z"
   id="path166"
   inkscape:connector-curvature="0"
   style="fill:#000000;stroke:none" />
         <path
   d="m 11166,14182 -5,3 -3,5 3,5 5,3 z"
   id="path168"
   inkscape:connector-curvature="0"
   style="fill:#000000;stroke:none" />
         <path
   d="m 9476,14513 h -8 l -5,2 -3,8 5,5 z"
   id="path170"
   inkscape:connector-curvature="0"
   style="fill:#000000;stroke:none" />
         <path
   d="m 9819,14604 -79,-10 -66,-13 -56,-12 -46,-16 -41,-12 -28,-13 -20,-8 -7,-7 -11,15 13,8 20,7 28,13 41,13 46,15 61,13 66,12 79,10 z"
   id="path172"
   inkscape:connector-curvature="0"
   style="fill:#000000;stroke:none" />
         <path
   d="m 9819,14619 5,-2 2,-5 -2,-5 -5,-3 z"
   id="path174"
   inkscape:connector-curvature="0"
   style="fill:#000000;stroke:none" />
         <path
   d="m 9951,14627 -5,3 -3,5 3,5 5,2 z"
   id="path176"
   inkscape:connector-curvature="0"
   style="fill:#000000;stroke:none" />
         <path
   d="m 10106,14645 -20,-3 -21,-2 h -20 l -18,-3 -20,-2 -18,-3 -20,-2 -18,-3 v 15 l 18,3 20,2 18,3 20,3 18,2 h 20 l 21,3 20,2 z"
   id="path178"
   inkscape:connector-curvature="0"
   style="fill:#000000;stroke:none" />
         <path
   d="m 10106,14660 5,-2 3,-5 -3,-6 -5,-2 z"
   id="path180"
   inkscape:connector-curvature="0"
   style="fill:#000000;stroke:none" />
         <path
   d="m 10225,14653 -7,2 -3,8 3,7 7,3 z"
   id="path182"
   inkscape:connector-curvature="0"
   style="fill:#000000;stroke:none" />
         <path
   d="m 10314,14655 h -10 -12 l -11,3 -10,-3 -12,-2 h -11 -12 -11 v 20 h 11 12 11 l 12,-3 10,3 11,2 h 12 10 z"
   id="path184"
   inkscape:connector-curvature="0"
   style="fill:#000000;stroke:none" />
         <path
   d="m 10314,14675 8,-2 3,-8 -3,-7 -8,-3 z"
   id="path186"
   inkscape:connector-curvature="0"
   style="fill:#000000;stroke:none" />
         <path
   d="m 10973,14614 -5,3 -3,5 3,5 5,3 z"
   id="path188"
   inkscape:connector-curvature="0"
   style="fill:#000000;stroke:none" />
         <path
   d="m 11374,14513 -55,18 -54,17 -51,13 -51,13 -48,12 -48,11 -48,10 -46,7 v 16 l 46,-8 48,-10 48,-10 48,-13 51,-13 56,-12 54,-18 56,-18 z"
   id="path190"
   inkscape:connector-curvature="0"
   style="fill:#000000;stroke:none" />
         <path
   d="m 11380,14528 5,-5 v -5 l -3,-5 h -8 z"
   id="path192"
   inkscape:connector-curvature="0"
   style="fill:#000000;stroke:none" />
         <path
   d="m 9981,14358 5,-5 v -5 l -2,-6 h -8 z"
   id="path194"
   inkscape:connector-curvature="0"
   style="fill:#000000;stroke:none" />
         <path
   d="m 10225,14449 v 0 h -71 l -63,-7 -51,-13 -41,-18 -25,-15 -13,-18 5,-10 15,-10 -5,-16 -25,16 -5,25 18,23 30,20 41,18 56,13 63,7 h 71 v 0 z"
   id="path196"
   inkscape:connector-curvature="0"
   style="fill:#000000;stroke:none" />
         <path
   d="m 10363,14325 28,15 12,13 5,20 -10,15 -20,21 -36,17 -48,16 -69,7 v 15 l 69,-7 53,-15 41,-18 26,-26 10,-25 -5,-25 -18,-23 -33,-16 z"
   id="path198"
   inkscape:connector-curvature="0"
   style="fill:#000000;stroke:none" />
         <path
   d="m 10368,14309 h -8 l -2,5 v 6 l 5,5 z"
   id="path200"
   inkscape:connector-curvature="0"
   style="fill:#000000;stroke:none" />
         <path
   d="m 9694,13745 5,5 h 5 l 5,-2 v -8 z"
   id="path202"
   inkscape:connector-curvature="0"
   style="fill:#000000;stroke:none" />
         <path
   d="m 9669,13654 -8,2 33,89 15,-5 -33,-89 z"
   id="path204"
   inkscape:connector-curvature="0"
   style="fill:#000000;stroke:none" />
         <path
   d="m 9676,13651 -2,-5 h -8 l -5,3 v 7 z"
   id="path206"
   inkscape:connector-curvature="0"
   style="fill:#000000;stroke:none" />
         <path
   d="m 9653,13819 6,-3 2,-5 -2,-5 -6,-2 z"
   id="path208"
   inkscape:connector-curvature="0"
   style="fill:#000000;stroke:none" />
         <path
   d="m 9559,13819 v 8 l 94,-8 v -15 l -94,7 z"
   id="path210"
   inkscape:connector-curvature="0"
   style="fill:#000000;stroke:none" />
         <path
   d="m 9559,13811 -5,3 -2,5 2,5 5,3 z"
   id="path212"
   inkscape:connector-curvature="0"
   style="fill:#000000;stroke:none" />
         <path
   d="m 9714,13877 -2,-5 -5,-2 -5,2 -3,5 z"
   id="path214"
   inkscape:connector-curvature="0"
   style="fill:#000000;stroke:none" />
         <path
   d="m 9689,13969 h 8 l 17,-92 h -15 l -18,92 z"
   id="path216"
   inkscape:connector-curvature="0"
   style="fill:#000000;stroke:none" />
         <path
   d="m 9681,13969 3,5 5,2 5,-2 3,-5 z"
   id="path218"
   inkscape:connector-curvature="0"
   style="fill:#000000;stroke:none" />
         <path
   d="m 9788,13837 h -7 l -3,5 v 5 l 5,5 z"
   id="path220"
   inkscape:connector-curvature="0"
   style="fill:#000000;stroke:none" />
         <path
   d="m 9867,13888 3,-8 -82,-43 -5,15 81,43 z"
   id="path222"
   inkscape:connector-curvature="0"
   style="fill:#000000;stroke:none" />
         <path
   d="m 9864,13895 h 8 l 3,-5 v -8 l -5,-2 z"
   id="path224"
   inkscape:connector-curvature="0"
   style="fill:#000000;stroke:none" />
         <path
   d="m 9770,13755 v 5 l 3,3 3,3 h 5 z"
   id="path226"
   inkscape:connector-curvature="0"
   style="fill:#000000;stroke:none" />
         <path
   d="m 9839,13694 -5,-5 -64,66 11,11 63,-67 z"
   id="path228"
   inkscape:connector-curvature="0"
   style="fill:#000000;stroke:none" />
         <path
   d="m 9844,13699 3,-5 -3,-5 -5,-2 -5,2 z"
   id="path230"
   inkscape:connector-curvature="0"
   style="fill:#000000;stroke:none" />
         <path
   d="m 10576,13478 3,5 5,3 5,-3 3,-5 z"
   id="path232"
   inkscape:connector-curvature="0"
   style="fill:#000000;stroke:none" />
         <path
   d="m 10589,13407 h -8 l -5,71 h 16 l 5,-71 z"
   id="path234"
   inkscape:connector-curvature="0"
   style="fill:#000000;stroke:none" />
         <path
   d="m 10597,13407 -3,-5 -5,-2 -5,2 -3,5 z"
   id="path236"
   inkscape:connector-curvature="0"
   style="fill:#000000;stroke:none" />
         <path
   d="m 10525,13519 h 8 l 3,-5 v -8 l -5,-2 z"
   id="path238"
   inkscape:connector-curvature="0"
   style="fill:#000000;stroke:none" />
         <path
   d="m 10462,13483 -3,8 66,28 6,-15 -67,-28 z"
   id="path240"
   inkscape:connector-curvature="0"
   style="fill:#000000;stroke:none" />
         <path
   d="m 10464,13476 h -7 l -3,5 v 5 l 5,5 z"
   id="path242"
   inkscape:connector-curvature="0"
   style="fill:#000000;stroke:none" />
         <path
   d="m 10551,13577 v -7 l -3,-5 -7,-3 -5,5 z"
   id="path244"
   inkscape:connector-curvature="0"
   style="fill:#000000;stroke:none" />
         <path
   d="m 10497,13628 8,5 46,-56 -15,-10 -46,56 z"
   id="path246"
   inkscape:connector-curvature="0"
   style="fill:#000000;stroke:none" />
         <path
   d="m 10490,13623 v 8 l 5,5 5,2 5,-5 z"
   id="path248"
   inkscape:connector-curvature="0"
   style="fill:#000000;stroke:none" />
         <path
   d="m 10612,13570 -5,-5 -5,2 -5,5 v 8 z"
   id="path250"
   inkscape:connector-curvature="0"
   style="fill:#000000;stroke:none" />
         <path
   d="m 10645,13633 8,-5 -41,-58 -15,10 40,58 z"
   id="path252"
   inkscape:connector-curvature="0"
   style="fill:#000000;stroke:none" />
         <path
   d="m 10637,13638 5,6 8,-3 3,-5 v -8 z"
   id="path254"
   inkscape:connector-curvature="0"
   style="fill:#000000;stroke:none" />
         <path
   d="m 10622,13509 -5,2 v 8 l 2,5 h 8 z"
   id="path256"
   inkscape:connector-curvature="0"
   style="fill:#000000;stroke:none" />
         <path
   d="m 10691,13491 -3,-8 -66,26 5,15 66,-25 z"
   id="path258"
   inkscape:connector-curvature="0"
   style="fill:#000000;stroke:none" />
         <path
   d="m 10693,13499 5,-5 v -6 l -2,-5 h -8 z"
   id="path260"
   inkscape:connector-curvature="0"
   style="fill:#000000;stroke:none" />
         <path
   d="m 11796,15913 -33,3 h -38 -45 -46 -54 l -50,-3 h -54 l -53,-2 h -51 l -48,-3 h -44 l -38,-2 h -30 l -26,-3 h -15 -5 l 28,-28 5,-33 -18,-33 -33,-28 -43,-25 -51,-13 h -53 l -54,15 -25,13 -25,13 -23,12 -23,13 -18,8 -18,7 -12,3 -11,-3 8,-30 3,-36 -3,-35 -10,-36 -18,-31 -30,-25 -41,-13 -54,-2 -55,5 -44,10 -33,15 -25,18 -21,20 -10,26 -5,28 -2,33 -56,-23 -49,-20 -45,-16 -43,-15 -39,-10 -33,-10 -30,-10 -26,-8 -28,-5 -33,5 -35,13 -33,15 -26,23 -20,25 -8,28 8,28 -38,-13 -36,-12 -35,-13 -36,-10 -33,-10 -33,-10 -31,-8 -30,-5 -31,-5 -27,-3 -26,3 -25,2 -23,8 -23,10 -18,15 -18,18 -28,41 -15,40 -5,36 10,33 26,25 43,18 58,8 77,-3 -3,3 -13,2 -15,8 -23,8 -25,10 -31,13 -33,12 -35,13 -39,13 -38,12 -38,13 -38,10 -35,10 -36,8 -33,8 -28,2 30,15 36,28 33,41 28,43 20,49 11,48 -3,46 -23,38 41,-28 48,-26 56,-22 58,-18 54,-16 43,-12 31,-8 10,-2 -26,22 -25,28 -28,31 -23,28 -23,28 -15,20 -10,15 -5,6 40,-13 54,-8 58,-5 61,5 54,18 45,30 26,49 5,66 35,-56 44,-61 45,-69 49,-73 53,-69 56,-69 56,-61 58,-50 -30,106 -13,132 -7,128 -6,86 18,-25 21,-28 23,-26 27,-23 28,-23 31,-22 36,-18 33,-16 35,-12 36,-8 38,-5 h 35 l 36,5 36,10 33,16 30,22 -25,-96 -15,-51 -8,-18 -8,-2 21,20 17,18 21,15 23,15 23,16 27,12 36,13 41,13 48,15 51,18 51,23 51,25 43,25 40,26 31,23 18,23 -13,-33 -5,-36 5,-33 10,-28 13,-23 20,-15 23,-5 23,5 28,13 23,12 23,10 20,11 20,10 18,10 18,10 15,13 -15,-43 -8,-54 3,-56 13,-58 17,-48 23,-39 31,-22 h 35 l 33,12 21,18 15,15 8,16 2,15 3,13 -3,7 v 3 l 21,12 10,8 2,3 h 3 2 l 8,2 15,8 26,12 -21,-43 -7,-53 2,-56 10,-59 21,-53 28,-43 35,-31 z"
   id="path262"
   inkscape:connector-curvature="0"
   style="fill:#7f3300;stroke:none" />
         <path
   d="m 11161,15895 5,16 5,2 15,-2 26,5 h 30 l 38,2 h 44 l 48,3 h 51 l 53,2 h 54 l 50,3 h 54 46 45 38 l 33,-5 v -15 h -33 -38 -45 -46 -54 l -50,-3 h -54 l -53,-3 h -51 l -48,-2 h -44 l -38,-3 h -30 -26 l -15,-2 -5,2 5,16 -5,-16 -5,3 -3,5 3,5 5,3 z"
   id="path264"
   inkscape:connector-curvature="0"
   style="fill:#000000;stroke:none" />
         <path
   d="m 10950,15766 v 0 l 51,-16 h 53 l 48,13 41,26 31,25 17,28 -5,30 -25,23 10,16 31,-33 5,-36 -18,-38 -36,-31 -45,-25 -54,-13 h -53 l -56,15 v 0 z"
   id="path266"
   inkscape:connector-curvature="0"
   style="fill:#000000;stroke:none" />
         <path
   d="m 10785,15822 2,10 16,5 15,-5 18,-8 17,-7 23,-13 23,-13 26,-13 25,-12 -5,-16 -26,13 -25,13 -23,13 -23,12 -18,8 -17,8 h -10 -6 l 3,10 -3,-10 h -7 l -5,2 -3,8 5,5 z"
   id="path268"
   inkscape:connector-curvature="0"
   style="fill:#000000;stroke:none" />
         <path
   d="m 10647,15623 v 0 l 54,3 38,13 25,23 18,27 10,34 v 35 36 l -7,28 15,5 8,-33 5,-36 -5,-35 -11,-39 -17,-33 -36,-28 -43,-12 -54,-3 v 0 z"
   id="path270"
   inkscape:connector-curvature="0"
   style="fill:#000000;stroke:none" />
         <path
   d="m 10449,15778 13,-7 v -33 l 5,-26 10,-23 18,-17 23,-18 33,-15 41,-11 55,-5 v -15 l -55,5 -46,10 -33,16 -28,17 -23,23 -10,28 -5,31 -5,33 12,-8 -12,8 2,7 8,3 7,-3 3,-7 z"
   id="path272"
   inkscape:connector-curvature="0"
   style="fill:#000000;stroke:none" />
         <path
   d="m 10129,15667 v 0 l 25,7 31,10 33,11 38,10 43,15 46,15 48,21 56,22 5,-15 -56,-23 -48,-20 -46,-15 -43,-16 -38,-10 -33,-10 -31,-10 -25,-8 v 0 z"
   id="path274"
   inkscape:connector-curvature="0"
   style="fill:#000000;stroke:none" />
         <path
   d="m 9953,15799 11,-10 -5,-26 5,-25 17,-23 26,-20 30,-16 36,-12 30,-3 26,3 5,-16 -31,-7 -35,7 -36,13 -35,15 -26,26 -23,28 -10,30 10,31 11,-10 -11,10 5,5 h 6 l 5,-3 v -7 z"
   id="path276"
   inkscape:connector-curvature="0"
   style="fill:#000000;stroke:none" />
         <path
   d="m 9501,15763 v 0 l 15,-18 18,-12 20,-10 21,-8 25,-3 h 26 27 l 31,5 30,6 28,7 34,10 33,10 35,11 36,12 35,13 38,13 6,-15 -39,-13 -35,-13 -36,-13 -35,-10 -33,-10 -33,-10 -34,-8 -30,-5 -31,-5 -27,-5 -26,5 -25,3 -26,7 -25,10 -18,18 -20,18 v 0 z"
   id="path278"
   inkscape:connector-curvature="0"
   style="fill:#000000;stroke:none" />
         <path
   d="m 9661,15964 -2,-15 -77,2 -58,-7 -38,-18 -23,-23 -10,-28 5,-33 15,-41 28,-38 -15,-10 -28,43 -16,41 -5,38 11,38 28,28 48,18 58,8 77,-3 -3,-15 3,15 5,-3 2,-5 -2,-5 -5,-2 z"
   id="path280"
   inkscape:connector-curvature="0"
   style="fill:#000000;stroke:none" />
         <path
   d="m 9198,16094 -2,15 28,-3 33,-7 36,-8 38,-10 38,-10 38,-13 38,-13 38,-12 36,-13 33,-13 30,-13 26,-10 23,-7 15,-8 13,-2 2,-3 -5,-15 -3,2 -12,3 -15,7 -23,8 -26,10 -30,13 -33,13 -36,12 -38,13 -38,13 -38,12 -38,11 -33,10 -36,7 -33,8 -28,3 -3,15 3,-15 -5,2 -3,5 3,5 5,3 z"
   id="path282"
   inkscape:connector-curvature="0"
   style="fill:#000000;stroke:none" />
         <path
   d="m 9323,16401 10,13 26,-41 2,-48 -10,-51 -20,-48 -28,-46 -36,-41 -36,-30 -33,-15 -5,15 28,15 36,26 30,40 28,41 21,48 10,46 -3,43 -20,36 10,12 -10,-12 v 5 l 3,2 2,3 h 5 z"
   id="path284"
   inkscape:connector-curvature="0"
   style="fill:#000000;stroke:none" />
         <path
   d="m 9674,16284 -5,-15 -10,3 -33,7 -44,13 -53,15 -59,18 -55,23 -51,25 -41,28 10,15 41,-28 46,-25 56,-23 58,-18 53,-15 44,-13 28,-7 10,-3 -5,-15 5,15 5,-2 2,-5 -2,-5 -5,-3 z"
   id="path286"
   inkscape:connector-curvature="0"
   style="fill:#000000;stroke:none" />
         <path
   d="m 9511,16447 10,13 5,-5 11,-16 15,-20 23,-28 23,-28 25,-30 25,-28 26,-21 -10,-15 -26,25 -25,28 -31,31 -23,28 -22,28 -16,20 -10,15 -5,5 10,13 -10,-13 v 8 l 5,5 5,3 5,-5 z"
   id="path288"
   inkscape:connector-curvature="0"
   style="fill:#000000;stroke:none" />
         <path
   d="m 9849,16592 15,5 -5,-69 -28,-51 -48,-33 -56,-17 -61,-8 -58,8 -54,7 -43,13 5,15 38,-13 54,-7 58,-3 61,3 51,18 43,28 23,45 5,64 15,5 -15,-5 3,5 5,2 5,-2 2,-5 z"
   id="path290"
   inkscape:connector-curvature="0"
   style="fill:#000000;stroke:none" />
         <path
   d="m 10261,16091 -13,-10 -58,53 -59,61 -56,69 -53,69 -48,73 -46,69 -43,61 -36,56 15,10 36,-56 43,-61 46,-69 48,-73 54,-69 56,-69 53,-61 59,-48 -13,-10 13,10 5,-5 -3,-8 -5,-2 h -8 z"
   id="path292"
   inkscape:connector-curvature="0"
   style="fill:#000000;stroke:none" />
         <path
   d="m 10190,16538 15,3 5,-86 8,-128 13,-132 30,-104 -15,-5 -31,109 -12,132 -8,128 -5,86 15,2 -15,-2 2,5 5,3 6,-3 2,-5 z"
   id="path294"
   inkscape:connector-curvature="0"
   style="fill:#000000;stroke:none" />
         <path
   d="m 10686,16391 12,-10 -30,-23 -36,-15 -38,-10 -36,-6 h -35 l -38,6 -38,7 -36,13 -33,15 -38,18 -31,23 -28,23 -28,25 -25,25 -20,28 -18,28 15,5 18,-22 20,-28 21,-26 28,-20 28,-23 30,-23 33,-18 33,-15 36,-13 33,-7 38,-5 h 35 l 36,5 33,10 31,15 30,23 13,-10 -13,10 h 8 l 5,-5 2,-5 -5,-5 z"
   id="path296"
   inkscape:connector-curvature="0"
   style="fill:#000000;stroke:none" />
         <path
   d="m 10642,16216 -5,15 v -3 l 8,16 15,50 26,97 15,-5 -26,-97 -15,-51 -7,-20 -16,-7 -5,15 5,-15 -7,2 -3,8 3,7 7,3 z"
   id="path298"
   inkscape:connector-curvature="0"
   style="fill:#000000;stroke:none" />
         <path
   d="m 10848,16335 v 0 l -40,-13 -36,-12 -28,-13 -20,-15 -23,-16 -21,-15 -17,-15 -21,-20 -10,10 21,20 17,20 21,16 23,15 25,15 28,13 36,13 40,12 v 0 z"
   id="path300"
   inkscape:connector-curvature="0"
   style="fill:#000000;stroke:none" />
         <path
   d="m 11171,16523 15,-7 -20,-23 -30,-26 -41,-25 -46,-26 -51,-25 -51,-23 -50,-18 -49,-15 -5,15 48,16 51,17 51,23 51,26 41,25 40,25 31,21 15,23 15,-8 -15,8 5,5 8,-3 2,-5 v -7 z"
   id="path302"
   inkscape:connector-curvature="0"
   style="fill:#000000;stroke:none" />
         <path
   d="m 11258,16345 v 0 l -26,-7 -25,7 -26,18 -12,25 -11,31 -7,33 7,38 13,33 15,-5 -12,-33 -3,-33 3,-33 10,-25 13,-21 15,-13 20,-2 20,2 v 0 0 h 8 l 3,-5 v -7 z"
   id="path304"
   inkscape:connector-curvature="0"
   style="fill:#000000;stroke:none" />
         <path
   d="m 11413,16444 12,-10 -15,-13 -20,-10 -18,-10 -20,-10 -21,-10 -23,-10 -22,-13 -28,-13 -6,15 28,13 23,13 23,10 21,10 20,10 18,11 15,10 15,12 13,-10 -13,10 h 8 l 5,-5 2,-5 -5,-5 z"
   id="path306"
   inkscape:connector-curvature="0"
   style="fill:#000000;stroke:none" />
         <path
   d="m 11522,16114 v 0 h -41 l -35,25 -23,41 -18,48 -13,61 -2,56 7,54 16,45 15,-5 -15,-40 -8,-54 3,-56 12,-56 18,-48 23,-35 25,-21 h 31 v 0 z"
   id="path308"
   inkscape:connector-curvature="0"
   style="fill:#000000;stroke:none" />
         <path
   d="m 11603,16213 3,10 v -5 l 5,-7 -5,-13 -3,-18 -7,-18 -18,-15 -23,-20 -33,-13 -5,15 33,13 18,15 12,15 8,13 3,13 v 13 7 0 l 2,10 -2,-10 v 8 l 5,2 h 7 l 3,-5 z"
   id="path310"
   inkscape:connector-curvature="0"
   style="fill:#000000;stroke:none" />
         <path
   d="m 11677,16272 10,-13 -25,-13 -16,-8 -10,-2 -2,-3 v 3 -3 l -10,-7 -21,-13 -10,15 20,13 11,8 5,2 5,3 2,-3 5,3 16,7 25,13 10,-13 -10,13 h 8 l 2,-5 v -8 l -5,-2 z"
   id="path312"
   inkscape:connector-curvature="0"
   style="fill:#000000;stroke:none" />
         <path
   d="m 11796,15921 v -15 l -48,15 -38,33 -28,46 -20,53 -10,61 -3,56 8,56 20,46 15,-11 -20,-40 -8,-51 3,-56 10,-56 20,-53 28,-41 33,-28 38,-15 v -15 15 l 6,-3 2,-5 -2,-5 -6,-2 z"
   id="path314"
   inkscape:connector-curvature="0"
   style="fill:#000000;stroke:none" />
         <path
   d="m 9328,16409 -38,10 -41,-23 -40,-48 -33,-59 -26,-66 -7,-58 12,-43 41,-21 30,15 36,28 33,41 28,43 20,49 11,48 -3,46 z"
   id="path316"
   inkscape:connector-curvature="0"
   style="fill:#bf7226;stroke:none" />
         <path
   d="m 9198,16094 h -2 l -48,22 -13,49 8,61 25,66 33,61 43,51 46,23 43,-13 -10,-10 -33,7 -36,-23 -38,-45 -33,-56 -25,-66 -8,-56 13,-38 33,-18 h -3 3 l 5,-3 3,-5 -3,-5 -5,-2 z"
   id="path318"
   inkscape:connector-curvature="0"
   style="fill:#000000;stroke:none" />
         <path
   d="m 9333,16414 v 0 l 26,-41 2,-48 -10,-51 -20,-48 -28,-46 -36,-41 -36,-30 -33,-15 -5,15 28,15 36,26 30,40 28,41 21,48 10,46 -3,43 -20,36 v 0 0 5 l 3,2 2,3 z"
   id="path320"
   inkscape:connector-curvature="0"
   style="fill:#000000;stroke:none" />
         <path
   d="m 9514,16455 5,30 28,38 43,41 53,35 61,28 59,13 53,-8 41,-35 -5,-66 -26,-49 -45,-30 -54,-18 -61,-5 -58,5 -54,8 z"
   id="path322"
   inkscape:connector-curvature="0"
   style="fill:#bf7226;stroke:none" />
         <path
   d="m 9849,16597 v -5 l -35,33 -51,7 -56,-12 -61,-28 -51,-36 -43,-38 -26,-36 -5,-25 -15,-5 5,36 31,40 43,43 56,36 61,28 61,13 56,-8 45,-38 v -5 5 -8 l -2,-5 -8,-2 -5,5 z"
   id="path324"
   inkscape:connector-curvature="0"
   style="fill:#000000;stroke:none" />
         <path
   d="m 9521,16457 -5,5 38,-13 54,-7 58,-3 61,3 51,18 43,28 23,45 5,64 h 15 l -5,-69 -28,-51 -48,-33 -56,-17 -61,-8 -58,8 -54,7 -43,13 -5,5 5,-5 -5,2 v 8 l 3,5 h 7 z"
   id="path326"
   inkscape:connector-curvature="0"
   style="fill:#000000;stroke:none" />
         <path
   d="m 10693,16388 8,56 -8,46 -20,33 -31,28 -35,18 -41,15 -43,8 -38,5 -41,2 -48,5 h -49 l -48,-2 -40,-5 -36,-13 -20,-18 -6,-25 18,-25 21,-28 23,-26 27,-23 28,-23 31,-22 36,-18 33,-16 35,-12 36,-8 38,-5 h 35 l 36,5 36,10 33,16 z"
   id="path328"
   inkscape:connector-curvature="0"
   style="fill:#bf7226;stroke:none" />
         <path
   d="m 10485,16604 v 0 l 38,-5 46,-7 40,-15 38,-18 33,-31 21,-35 10,-49 -10,-58 -15,5 5,53 -5,44 -21,30 -28,25 -33,18 -40,16 -41,7 -38,5 v 0 z"
   id="path330"
   inkscape:connector-curvature="0"
   style="fill:#000000;stroke:none" />
         <path
   d="m 10190,16538 v 3 l 5,30 25,21 39,12 40,6 48,5 49,-3 48,-5 41,-3 v -15 l -41,3 -48,5 -49,-3 h -48 l -40,-5 -34,-12 -15,-16 -5,-20 v 2 -2 l -2,-5 -6,-3 -5,3 -2,5 z"
   id="path332"
   inkscape:connector-curvature="0"
   style="fill:#000000;stroke:none" />
         <path
   d="m 10701,16386 -3,-5 -30,-23 -36,-15 -38,-10 -36,-6 h -35 l -38,6 -38,7 -36,13 -33,15 -38,18 -31,23 -28,23 -28,25 -25,25 -20,28 -18,28 15,5 18,-22 20,-28 21,-26 28,-20 28,-23 30,-23 33,-18 33,-15 36,-13 33,-7 38,-5 h 35 l 36,5 33,10 31,15 30,23 -2,-5 2,5 h 8 l 5,-5 2,-5 -5,-5 z"
   id="path334"
   inkscape:connector-curvature="0"
   style="fill:#000000;stroke:none" />
         <path
   d="m 11420,16442 21,2 25,-15 31,-28 27,-35 28,-41 23,-41 18,-35 5,-28 v -3 l 3,-7 -3,-13 -2,-15 -8,-16 -15,-15 -21,-18 -33,-12 h -35 l -31,22 -23,39 -17,48 -13,58 -3,56 8,54 z"
   id="path336"
   inkscape:connector-curvature="0"
   style="fill:#bf7226;stroke:none" />
         <path
   d="m 11591,16218 -3,3 -3,25 -17,36 -23,38 -28,40 -26,36 -30,25 -23,16 -13,-3 -10,15 28,3 28,-15 31,-31 30,-35 28,-41 23,-43 18,-36 7,-30 -2,2 2,-2 -2,-8 -8,-2 -7,2 -3,8 z"
   id="path338"
   inkscape:connector-curvature="0"
   style="fill:#000000;stroke:none" />
         <path
   d="m 11517,16129 v 0 l 33,13 18,15 12,15 8,13 3,13 v 13 7 0 l 15,5 v -5 l 5,-7 -5,-13 -3,-18 -7,-18 -18,-15 -23,-20 -33,-13 v 0 z"
   id="path340"
   inkscape:connector-curvature="0"
   style="fill:#000000;stroke:none" />
         <path
   d="m 11425,16434 3,5 -15,-40 -8,-54 3,-56 12,-56 18,-48 23,-35 25,-21 h 31 l 5,-15 h -41 l -35,25 -23,41 -18,48 -13,61 -2,56 7,54 16,45 2,5 -2,-5 5,5 h 5 l 5,-2 v -8 z"
   id="path342"
   inkscape:connector-curvature="0"
   style="fill:#000000;stroke:none" />
         <path
   d="m 11685,16266 35,-2 41,-36 38,-58 33,-69 20,-68 3,-64 -15,-41 -44,-15 -43,15 -35,31 -28,43 -21,53 -10,59 -2,56 7,53 z"
   id="path344"
   inkscape:connector-curvature="0"
   style="fill:#bf7226;stroke:none" />
         <path
   d="m 11687,16259 h -7 l -3,5 v 5 l 5,5 z"
   id="path346"
   inkscape:connector-curvature="0"
   style="fill:#000000;stroke:none" />
         <path
   d="m 11796,15921 v 0 l 39,12 12,36 -2,64 -21,66 -33,68 -38,56 -35,33 -31,3 -5,15 41,-2 46,-39 38,-61 33,-68 20,-71 3,-64 -18,-46 -49,-17 v 0 0 l -5,2 -2,5 2,5 z"
   id="path348"
   inkscape:connector-curvature="0"
   style="fill:#000000;stroke:none" />
         <path
   d="m 11692,16261 -20,-40 -8,-51 3,-56 10,-56 20,-53 28,-41 33,-28 38,-15 v -15 l -48,15 -38,33 -28,46 -20,53 -10,61 -3,56 8,56 20,46 z"
   id="path350"
   inkscape:connector-curvature="0"
   style="fill:#000000;stroke:none" />
         <path
   d="m 11677,16272 5,5 8,-3 2,-5 v -8 z"
   id="path352"
   inkscape:connector-curvature="0"
   style="fill:#000000;stroke:none" />
         <path
   d="m 11179,16521 -13,-33 -5,-36 5,-33 10,-28 13,-23 20,-15 23,-5 23,5 31,38 7,38 -5,36 -18,30 -23,23 -28,13 -22,2 z"
   id="path354"
   inkscape:connector-curvature="0"
   style="fill:#bf7226;stroke:none" />
         <path
   d="m 11260,16348 -2,-3 -26,-7 -25,7 -26,18 -12,25 -11,31 -7,33 7,38 13,33 15,-5 -12,-33 -3,-33 3,-33 10,-25 13,-21 15,-13 20,-2 20,2 -2,-2 2,2 h 8 l 3,-5 v -7 l -5,-3 z"
   id="path356"
   inkscape:connector-curvature="0"
   style="fill:#000000;stroke:none" />
         <path
   d="m 11171,16523 v 3 l 26,15 25,-3 30,-12 26,-26 18,-33 7,-38 -10,-41 -33,-40 -10,10 28,36 5,35 -3,33 -17,28 -21,20 -25,13 -20,3 -11,-10 v 2 -2 l -5,-6 -5,3 -5,5 v 8 z"
   id="path358"
   inkscape:connector-curvature="0"
   style="fill:#000000;stroke:none" />
         <path
   d="m 10630,16223 5,5 h 5 l 5,-2 v -8 z"
   id="path360"
   inkscape:connector-curvature="0"
   style="fill:#000000;stroke:none" />
         <path
   d="m 10528,15931 -5,-5 107,297 15,-5 -107,-297 -5,-5 5,5 -2,-5 h -8 l -5,2 v 8 z"
   id="path362"
   inkscape:connector-curvature="0"
   style="fill:#000000;stroke:none" />
         <path
   d="m 10271,15936 v 0 l 15,-41 28,-20 39,-3 48,8 46,13 40,18 31,15 10,5 5,-15 -10,-5 -31,-16 -40,-17 -51,-13 -48,-8 -44,3 -38,25 -15,51 v 0 z"
   id="path364"
   inkscape:connector-curvature="0"
   style="fill:#000000;stroke:none" />
         <path
   d="m 10253,16089 8,-3 3,-18 2,-43 5,-89 h -15 l -5,89 -3,43 -2,18 z"
   id="path366"
   inkscape:connector-curvature="0"
   style="fill:#000000;stroke:none" />
         <path
   d="m 10246,16089 2,5 5,2 6,-2 2,-5 z"
   id="path368"
   inkscape:connector-curvature="0"
   style="fill:#000000;stroke:none" />
         <path
   d="m 9661,16272 v 7 l 5,5 5,3 5,-5 z"
   id="path370"
   inkscape:connector-curvature="0"
   style="fill:#000000;stroke:none" />
         <path
   d="m 10017,15928 v 0 l -28,26 -41,38 -50,46 -54,51 -53,53 -51,51 -43,43 -36,36 15,10 31,-36 43,-43 51,-51 53,-53 54,-51 51,-46 40,-38 28,-20 v 0 z"
   id="path372"
   inkscape:connector-curvature="0"
   style="fill:#000000;stroke:none" />
         <path
   d="m 10274,15936 -10,-36 -28,-20 -33,-8 -39,3 -40,8 -43,12 -36,16 -28,17 10,16 23,-18 36,-15 38,-13 40,-8 39,-2 28,7 17,16 5,25 z"
   id="path374"
   inkscape:connector-curvature="0"
   style="fill:#000000;stroke:none" />
         <path
   d="m 10253,15936 3,8 8,2 7,-2 3,-8 z"
   id="path376"
   inkscape:connector-curvature="0"
   style="fill:#000000;stroke:none" />
         <path
   d="m 9656,15949 -5,2 v 8 l 2,5 h 8 z"
   id="path378"
   inkscape:connector-curvature="0"
   style="fill:#000000;stroke:none" />
         <path
   d="m 10030,15933 -28,-48 -41,-23 -48,-5 -59,10 -56,21 -53,23 -51,20 -38,18 5,15 38,-18 51,-20 53,-23 56,-20 54,-11 43,6 36,17 22,44 z"
   id="path380"
   inkscape:connector-curvature="0"
   style="fill:#000000;stroke:none" />
         <path
   d="m 10014,15939 6,5 h 5 l 5,-3 v -8 z"
   id="path382"
   inkscape:connector-curvature="0"
   style="fill:#000000;stroke:none" />
         <path
   d="m 9992,15784 h -8 l -3,5 v 5 l 5,5 z"
   id="path384"
   inkscape:connector-curvature="0"
   style="fill:#000000;stroke:none" />
         <path
   d="m 10309,15880 3,-8 -320,-88 -6,15 321,89 z"
   id="path386"
   inkscape:connector-curvature="0"
   style="fill:#000000;stroke:none" />
         <path
   d="m 10307,15888 h 7 l 3,-5 v -8 l -5,-3 z"
   id="path388"
   inkscape:connector-curvature="0"
   style="fill:#000000;stroke:none" />
         <path
   d="m 11273,16396 h 7 l 6,-5 2,-5 -5,-5 z"
   id="path390"
   inkscape:connector-curvature="0"
   style="fill:#000000;stroke:none" />
         <path
   d="m 11113,16246 -5,15 165,135 10,-15 -165,-135 -5,15 5,-15 h -8 l -5,3 -3,7 6,5 z"
   id="path392"
   inkscape:connector-curvature="0"
   style="fill:#000000;stroke:none" />
         <path
   d="m 11265,16266 v -7 l -152,-13 v 15 l 152,13 z"
   id="path394"
   inkscape:connector-curvature="0"
   style="fill:#000000;stroke:none" />
         <path
   d="m 11265,16274 5,-2 3,-6 -3,-5 -5,-2 z"
   id="path396"
   inkscape:connector-curvature="0"
   style="fill:#000000;stroke:none" />
         <path
   d="m 11519,16129 5,-2 3,-5 -3,-6 -5,-2 z"
   id="path398"
   inkscape:connector-curvature="0"
   style="fill:#000000;stroke:none" />
         <path
   d="m 10800,16030 v 0 l 28,8 33,5 46,7 51,11 56,7 58,8 64,7 63,8 61,8 59,7 53,8 48,5 41,5 30,3 21,2 h 7 v -15 h -7 l -21,-3 -30,-2 -41,-5 -48,-5 -53,-8 -59,-8 -61,-7 -63,-8 -64,-7 -58,-8 -56,-8 -51,-10 -46,-7 -33,-6 -23,-7 v 0 z"
   id="path400"
   inkscape:connector-curvature="0"
   style="fill:#000000;stroke:none" />
         <path
   d="m 10612,16101 7,-25 13,-21 18,-15 23,-12 25,-8 h 33 36 l 33,10 5,-15 -38,-10 -36,-5 -33,5 -30,7 -28,13 -23,20 -13,26 -7,30 z"
   id="path402"
   inkscape:connector-curvature="0"
   style="fill:#000000;stroke:none" />
         <path
   d="m 10597,16101 2,5 5,3 5,-3 3,-5 z"
   id="path404"
   inkscape:connector-curvature="0"
   style="fill:#000000;stroke:none" />
         <path
   d="m 11166,15913 8,-2 2,-8 -2,-8 -8,-2 z"
   id="path406"
   inkscape:connector-curvature="0"
   style="fill:#000000;stroke:none" />
         <path
   d="m 10810,16020 -10,-26 -3,-17 6,-16 7,-12 15,-10 21,-8 25,-8 28,-7 31,-3 h 33 35 l 36,-2 35,2 h 33 34 30 v -20 h -30 -34 -33 l -35,-3 -36,3 h -35 l -33,5 -31,2 -33,8 -25,8 -21,7 -20,16 -13,17 -5,21 3,23 10,25 z"
   id="path408"
   inkscape:connector-curvature="0"
   style="fill:#000000;stroke:none" />
         <path
   d="m 10795,16025 5,5 h 5 l 5,-2 v -8 z"
   id="path410"
   inkscape:connector-curvature="0"
   style="fill:#000000;stroke:none" />
         <path
   d="m 10472,15771 -3,-5 -5,-3 -5,3 -2,5 z"
   id="path412"
   inkscape:connector-curvature="0"
   style="fill:#000000;stroke:none" />
         <path
   d="m 10442,15872 7,8 23,-109 h -15 l -23,109 8,8 -8,-8 2,5 6,3 5,-3 2,-5 z"
   id="path414"
   inkscape:connector-curvature="0"
   style="fill:#000000;stroke:none" />
         <path
   d="m 10792,15824 v -7 l -350,55 v 16 l 350,-56 z"
   id="path416"
   inkscape:connector-curvature="0"
   style="fill:#000000;stroke:none" />
         <path
   d="m 10792,15832 5,-3 3,-5 -3,-5 -5,-2 z"
   id="path418"
   inkscape:connector-curvature="0"
   style="fill:#000000;stroke:none" />
         <path
   d="m 10269,16475 2,5 5,2 5,-2 3,-5 z"
   id="path420"
   inkscape:connector-curvature="0"
   style="fill:#000000;stroke:none" />
         <path
   d="m 10299,16012 h -7 l -23,463 h 15 l 23,-463 z"
   id="path422"
   inkscape:connector-curvature="0"
   style="fill:#000000;stroke:none" />
         <path
   d="m 10307,16012 -3,-5 -5,-2 -5,2 -2,5 z"
   id="path424"
   inkscape:connector-curvature="0"
   style="fill:#000000;stroke:none" />
         <path
   d="m 10358,16399 2,5 5,2 5,-2 3,-5 z"
   id="path426"
   inkscape:connector-curvature="0"
   style="fill:#000000;stroke:none" />
         <path
   d="m 10353,16089 h -8 l 13,310 h 15 l -13,-310 z"
   id="path428"
   inkscape:connector-curvature="0"
   style="fill:#000000;stroke:none" />
         <path
   d="m 10360,16089 -2,-6 -5,-2 -6,2 -2,6 z"
   id="path430"
   inkscape:connector-curvature="0"
   style="fill:#000000;stroke:none" />
         <path
   d="m 9343,16325 -5,5 3,5 5,5 h 8 z"
   id="path432"
   inkscape:connector-curvature="0"
   style="fill:#000000;stroke:none" />
         <path
   d="m 9748,16203 -56,-5 -64,10 -69,18 -63,25 -59,26 -48,25 -30,15 -16,8 11,15 10,-7 30,-16 48,-25 59,-26 64,-25 63,-18 64,-10 56,5 z"
   id="path434"
   inkscape:connector-curvature="0"
   style="fill:#000000;stroke:none" />
         <path
   d="m 9748,16218 5,-2 2,-5 -2,-6 -5,-2 z"
   id="path436"
   inkscape:connector-curvature="0"
   style="fill:#000000;stroke:none" />
         <path
   d="m 11718,15979 7,-2 3,-8 -3,-8 -7,-2 z"
   id="path438"
   inkscape:connector-curvature="0"
   style="fill:#000000;stroke:none" />
         <path
   d="m 10813,15969 v 10 h 905 v -20 h -905 z"
   id="path440"
   inkscape:connector-curvature="0"
   style="fill:#000000;stroke:none" />
         <path
   d="m 10813,15959 -8,2 -2,8 2,8 8,2 z"
   id="path442"
   inkscape:connector-curvature="0"
   style="fill:#000000;stroke:none" />
         <path
   d="m 9493,15946 h -40 l -44,-7 -43,-13 -40,-23 -36,-28 -31,-36 -15,-40 -5,-51 3,-48 -3,-38 -8,-31 -10,-23 -12,-20 -21,-18 -23,-20 -25,-23 -25,-31 -16,-35 -7,-43 2,-46 10,-46 21,-46 30,-40 41,-33 -8,38 v 43 l 10,43 18,38 28,36 38,25 51,18 61,3 3,-49 10,-43 18,-41 25,-35 33,-28 41,-23 51,-18 61,-7 -38,30 -28,31 -13,28 -8,30 3,28 5,25 10,26 13,23 20,20 33,15 43,18 46,18 43,20 38,28 31,36 13,43 15,-33 15,-23 15,-20 16,-13 12,-15 16,-13 15,-18 15,-20 8,-23 -10,-23 -21,-23 -18,-28 -12,-30 5,-41 25,-48 56,-59 66,-55 54,-39 40,-25 31,-13 20,-5 h 13 l 5,3 3,2 -28,18 -23,23 -21,23 -15,25 -10,26 -3,28 8,22 15,23 23,23 26,26 22,30 21,31 15,35 3,38 -8,41 -25,41 -26,38 -13,33 v 28 l 8,25 18,23 25,20 31,21 35,20 -10,-23 -2,-15 2,-15 10,-13 13,-10 20,-13 26,-15 30,-18 31,-23 23,-30 17,-36 11,-38 5,-36 v -35 l -8,-31 -13,-23 41,18 38,23 33,31 31,35 23,38 15,41 5,41 -3,38 41,-21 48,-22 46,-26 41,-35 28,-44 10,-56 -10,-71 -38,-89 45,23 46,33 41,43 33,54 23,61 7,66 -10,74 -30,76 30,-38 28,-36 23,-30 20,-26 21,-23 20,-23 23,-17 23,-18 23,-23 15,-36 10,-40 v -46 l -5,-41 -15,-38 -26,-28 -35,-12 48,2 46,20 43,31 31,43 17,56 -5,66 -30,74 -61,84 40,-8 44,-25 43,-38 35,-46 26,-54 10,-58 -10,-58 -36,-56 28,12 23,18 20,20 16,23 10,23 8,18 5,13 2,5 21,-54 33,-45 43,-41 43,-41 38,-38 31,-38 17,-43 -5,-51 18,36 10,30 3,28 -3,31 -10,33 -20,38 -28,46 -36,55 -18,56 -5,74 5,84 v 84 l -15,76 -35,61 -66,36 -110,2 -5,59 -13,61 -22,61 -34,50 -50,41 -69,23 h -89 l -114,-31 -26,21 -30,20 -33,18 -33,15 -36,15 -36,13 -35,8 -36,5 -35,2 -33,-2 -33,-8 -28,-12 -26,-16 -23,-23 -17,-30 -13,-36 -18,21 -23,23 -28,22 -30,21 -33,20 -36,15 -38,16 -41,10 -40,5 h -44 l -43,-8 -43,-13 -43,-20 -44,-30 -40,-41 -41,-51 -23,5 -25,5 -28,5 -28,8 -31,5 -30,5 -31,3 -30,2 -33,-2 -31,-5 -28,-8 -28,-13 -28,-15 -22,-23 -23,-28 z"
   id="path444"
   inkscape:connector-curvature="0"
   style="fill:#ff7f00;stroke:none" />
         <path
   d="m 9231,15748 v 0 l 6,51 15,46 33,35 35,31 44,22 45,13 44,8 h 40 v -15 h -40 l -44,-8 -40,-13 -38,-23 -36,-25 -28,-36 -15,-35 -5,-51 v 0 z"
   id="path446"
   inkscape:connector-curvature="0"
   style="fill:#000000;stroke:none" />
         <path
   d="m 9135,15534 v 0 l 25,21 23,20 18,18 13,18 10,23 7,28 v 38 48 h 16 l 5,-48 -5,-38 -8,-34 -10,-22 -13,-23 -23,-18 -23,-20 -25,-26 v 0 z"
   id="path448"
   inkscape:connector-curvature="0"
   style="fill:#000000;stroke:none" />
         <path
   d="m 9204,15209 -13,-10 -41,36 -33,40 -20,49 -10,48 -3,46 8,45 15,38 28,33 10,-15 -23,-28 -15,-33 -8,-40 3,-46 10,-43 20,-44 28,-40 41,-31 -13,-10 13,10 5,-5 -2,-7 -6,-3 h -7 z"
   id="path450"
   inkscape:connector-curvature="0"
   style="fill:#000000;stroke:none" />
         <path
   d="m 9384,15451 10,-8 -61,-3 -48,-17 -36,-23 -25,-36 -18,-35 -10,-41 v -43 l 8,-36 -16,-5 -7,41 v 43 l 10,46 18,40 30,36 41,28 53,18 61,2 10,-7 -10,7 5,-2 3,-5 -3,-5 -5,-3 z"
   id="path452"
   inkscape:connector-curvature="0"
   style="fill:#000000;stroke:none" />
         <path
   d="m 9641,15214 -5,-15 -61,8 -54,17 -43,23 -33,31 -28,38 -18,41 -10,45 -5,49 h 20 v -49 l 11,-40 17,-41 23,-33 33,-25 38,-23 49,-18 61,-8 -5,-15 5,15 5,-2 2,-5 -2,-5 -5,-3 z"
   id="path454"
   inkscape:connector-curvature="0"
   style="fill:#000000;stroke:none" />
         <path
   d="m 9587,15423 v 0 l -12,-21 -10,-25 -6,-23 -2,-28 8,-28 12,-25 26,-31 38,-28 -10,-15 -39,33 -30,31 -13,30 -7,33 2,28 5,28 10,25 13,26 v 0 z"
   id="path456"
   inkscape:connector-curvature="0"
   style="fill:#000000;stroke:none" />
         <path
   d="m 9839,15623 15,3 -12,-46 -33,-38 -39,-30 -45,-21 -46,-18 -43,-17 -31,-16 -18,-17 -15,10 23,23 36,15 43,18 46,17 40,21 38,25 28,33 13,41 15,2 -15,-2 3,5 5,3 5,-3 2,-5 z"
   id="path458"
   inkscape:connector-curvature="0"
   style="fill:#000000;stroke:none" />
         <path
   d="m 9959,15466 v 0 l -16,20 -12,18 -16,13 -12,15 -16,13 -17,20 -16,25 -15,33 15,5 16,-33 15,-20 13,-20 15,-13 12,-15 16,-13 18,-18 15,-20 v 0 z"
   id="path460"
   inkscape:connector-curvature="0"
   style="fill:#000000;stroke:none" />
         <path
   d="m 9994,15191 v 0 l -58,59 -26,51 -5,43 13,33 18,30 20,23 8,18 -5,18 15,10 10,-28 -13,-28 -20,-23 -18,-25 -13,-28 5,-38 26,-46 53,-58 v 0 z"
   id="path462"
   inkscape:connector-curvature="0"
   style="fill:#000000;stroke:none" />
         <path
   d="m 10233,15072 5,-13 -5,-5 -10,-2 h -13 l -23,5 -30,12 -43,26 -54,38 -66,58 10,11 66,-54 54,-38 38,-25 30,-13 18,-5 h 13 v 2 0 l 5,-12 -5,12 5,5 8,-2 2,-5 v -8 z"
   id="path464"
   inkscape:connector-curvature="0"
   style="fill:#000000;stroke:none" />
         <path
   d="m 10159,15247 v 0 l -12,-20 -8,-20 3,-28 10,-23 15,-23 18,-23 23,-20 25,-18 -5,-15 -31,17 -22,26 -23,23 -16,28 -10,28 -2,28 7,25 18,25 v 0 z"
   id="path466"
   inkscape:connector-curvature="0"
   style="fill:#000000;stroke:none" />
         <path
   d="m 10238,15522 v 0 l 26,-43 7,-44 -2,-38 -16,-38 -20,-33 -23,-30 -28,-26 -23,-23 -10,10 23,23 23,26 23,30 20,28 15,33 3,38 -8,38 -25,39 v 0 z"
   id="path468"
   inkscape:connector-curvature="0"
   style="fill:#000000;stroke:none" />
         <path
   d="m 10302,15728 10,-11 -33,-20 -31,-20 -25,-18 -15,-20 -8,-23 v -28 l 13,-31 25,-35 -15,-10 -26,40 -12,36 v 28 l 7,28 21,25 25,23 31,20 38,21 10,-10 -10,10 h 7 l 3,-5 v -8 l -5,-3 z"
   id="path470"
   inkscape:connector-curvature="0"
   style="fill:#000000;stroke:none" />
         <path
   d="m 10393,15595 v 0 l -30,18 -26,15 -20,13 -13,13 -12,15 -6,18 6,18 10,23 15,-5 -10,-23 v -13 -13 l 7,-10 13,-8 20,-12 26,-16 30,-17 v 0 z"
   id="path472"
   inkscape:connector-curvature="0"
   style="fill:#000000;stroke:none" />
         <path
   d="m 10467,15344 -10,13 12,20 8,28 v 35 l -5,36 -10,36 -18,33 -20,30 -31,20 10,16 31,-26 25,-30 18,-38 10,-41 5,-36 v -35 l -7,-33 -13,-26 -10,13 10,-13 -5,-5 -5,3 -5,5 v 8 z"
   id="path474"
   inkscape:connector-curvature="0"
   style="fill:#000000;stroke:none" />
         <path
   d="m 10645,15608 10,8 5,-38 -7,-41 -16,-43 -23,-41 -33,-35 -33,-33 -40,-23 -41,-18 -5,15 41,18 35,23 33,28 28,35 23,36 15,38 3,41 v 38 l 10,7 -10,-7 2,5 5,2 6,-2 2,-5 z"
   id="path476"
   inkscape:connector-curvature="0"
   style="fill:#000000;stroke:none" />
         <path
   d="m 10815,15245 -10,10 38,89 8,68 -8,54 -28,40 -38,34 -43,25 -48,23 -41,20 5,15 41,-20 48,-23 48,-25 43,-38 28,-46 13,-59 -13,-73 -38,-89 -10,10 10,-10 -2,-5 h -8 l -5,2 v 8 z"
   id="path478"
   inkscape:connector-curvature="0"
   style="fill:#000000;stroke:none" />
         <path
   d="m 10960,15677 15,7 31,-76 13,-76 -11,-66 -22,-64 -34,-56 -43,-45 -45,-33 -49,-23 -5,15 43,23 46,33 38,41 33,50 23,59 5,66 -7,71 -31,76 15,8 -15,-8 v 8 l 5,2 h 8 l 2,-5 z"
   id="path480"
   inkscape:connector-curvature="0"
   style="fill:#000000;stroke:none" />
         <path
   d="m 11151,15463 v 0 l -23,18 -23,20 -20,23 -23,23 -21,26 -22,30 -28,36 -31,38 15,10 31,-38 28,-36 23,-30 20,-26 18,-23 20,-22 23,-16 23,-17 v 0 z"
   id="path482"
   inkscape:connector-curvature="0"
   style="fill:#000000;stroke:none" />
         <path
   d="m 11123,15199 v 15 l 30,13 23,25 15,36 6,38 v 46 l -11,38 -15,33 -20,20 10,16 25,-26 16,-38 10,-43 v -46 l -5,-43 -16,-41 -28,-30 -40,-13 v 15 -15 l -5,3 -3,5 3,5 5,2 z"
   id="path484"
   inkscape:connector-curvature="0"
   style="fill:#000000;stroke:none" />
         <path
   d="m 11212,15573 5,15 63,-84 31,-79 5,-66 -18,-58 -33,-46 -46,-33 -48,-20 -48,-3 v 15 l 48,3 43,20 41,28 28,41 18,53 -5,66 -31,69 -58,84 5,15 -5,-15 v 5 l 2,2 3,3 h 5 z"
   id="path486"
   inkscape:connector-curvature="0"
   style="fill:#000000;stroke:none" />
         <path
   d="m 11367,15232 -8,13 33,53 8,56 -8,56 -25,51 -33,45 -43,36 -41,25 -38,6 v 20 l 43,-10 46,-26 43,-40 38,-46 26,-56 12,-61 -12,-61 -39,-58 -7,12 7,-12 -5,-3 -2,3 -3,5 v 5 z"
   id="path488"
   inkscape:connector-curvature="0"
   style="fill:#000000;stroke:none" />
         <path
   d="m 11469,15372 15,-3 -3,-5 -5,-13 -7,-17 -11,-23 -15,-26 -23,-20 -23,-20 -30,-13 -5,15 25,13 23,15 18,21 15,20 10,23 8,18 5,12 3,5 15,-2 -15,2 5,5 h 5 l 5,-2 v -8 z"
   id="path490"
   inkscape:connector-curvature="0"
   style="fill:#000000;stroke:none" />
         <path
   d="m 11705,15019 -15,5 5,48 -18,38 -28,38 -38,38 -43,41 -46,41 -33,48 -20,56 h 15 l 20,-51 33,-43 41,-41 43,-41 38,-38 33,-38 18,-48 -5,-53 -15,5 15,-5 -3,-6 h -7 l -5,3 v 8 z"
   id="path492"
   inkscape:connector-curvature="0"
   style="fill:#000000;stroke:none" />
         <path
   d="m 11639,15324 v 0 l 35,-56 28,-49 21,-38 10,-35 5,-31 -5,-28 -10,-33 -18,-35 -15,5 18,35 10,28 v 28 31 l -10,30 -21,38 -28,43 -35,56 v 0 z"
   id="path494"
   inkscape:connector-curvature="0"
   style="fill:#000000;stroke:none" />
         <path
   d="m 11395,15791 -8,8 110,-3 71,-38 38,-63 15,-79 3,-84 -5,-84 2,-74 18,-50 -15,-11 -18,61 -8,74 5,84 3,84 -15,73 -33,59 -61,33 -110,3 -7,7 7,-7 -5,2 -2,5 2,5 5,3 z"
   id="path496"
   inkscape:connector-curvature="0"
   style="fill:#000000;stroke:none" />
         <path
   d="m 10996,16063 h -8 l 117,31 h 89 l 71,-23 54,-43 35,-54 23,-61 13,-63 5,-59 h -15 l -6,59 -12,58 -23,61 -31,48 -48,38 -66,23 h -89 l -112,-30 h -7 7 -7 l -3,5 v 5 l 5,5 z"
   id="path498"
   inkscape:connector-curvature="0"
   style="fill:#000000;stroke:none" />
         <path
   d="m 10525,16050 -15,-2 13,35 18,33 25,26 28,15 28,13 36,7 33,6 35,-6 36,-5 38,-7 36,-13 35,-15 33,-15 36,-18 30,-21 26,-20 -10,-15 -26,20 -30,21 -31,17 -33,16 -36,15 -35,13 -33,7 -36,5 h -35 -33 l -31,-7 -28,-13 -23,-15 -20,-21 -18,-28 -13,-35 -15,-3 15,3 -2,-5 h -8 l -5,2 v 8 z"
   id="path500"
   inkscape:connector-curvature="0"
   style="fill:#000000;stroke:none" />
         <path
   d="m 9933,16043 -8,-3 44,51 40,43 44,31 45,20 46,13 43,7 h 44 l 40,-5 43,-10 39,-15 35,-15 36,-21 30,-20 28,-25 23,-23 20,-21 -15,-10 -15,21 -23,22 -28,21 -30,20 -31,20 -36,16 -38,15 -38,10 -40,5 h -44 l -43,-7 -41,-13 -40,-20 -43,-31 -41,-38 -38,-51 -8,-2 8,2 -5,-5 -5,3 -6,5 v 7 z"
   id="path502"
   inkscape:connector-curvature="0"
   style="fill:#000000;stroke:none" />
         <path
   d="m 9493,15954 -7,-5 20,35 25,28 23,26 31,15 28,13 30,7 31,5 33,5 30,-5 31,-2 30,-5 31,-5 28,-8 28,-5 25,-5 23,-5 v -15 l -23,5 -25,5 -28,5 -28,7 -31,5 -30,6 -31,2 h -30 -33 l -31,-5 -25,-8 -28,-12 -25,-16 -23,-20 -21,-28 -20,-30 -8,-5 8,5 -3,-5 h -7 l -5,2 v 8 z"
   id="path504"
   inkscape:connector-curvature="0"
   style="fill:#000000;stroke:none" />
         <path
   d="m 9854,15628 v -7 l -5,-3 h -5 l -5,5 z"
   id="path506"
   inkscape:connector-curvature="0"
   style="fill:#000000;stroke:none" />
         <path
   d="m 9941,16030 -31,-41 -23,-56 -20,-61 -13,-61 -7,-61 v -53 -43 l 7,-26 -15,-5 -8,31 -5,43 5,53 8,61 13,67 20,61 23,55 30,46 z"
   id="path508"
   inkscape:connector-curvature="0"
   style="fill:#000000;stroke:none" />
         <path
   d="m 9925,16040 6,5 7,-2 3,-5 v -8 z"
   id="path510"
   inkscape:connector-curvature="0"
   style="fill:#000000;stroke:none" />
         <path
   d="m 10655,15616 -2,-5 -6,-3 -5,3 -2,5 z"
   id="path512"
   inkscape:connector-curvature="0"
   style="fill:#000000;stroke:none" />
         <path
   d="m 10523,16050 48,-53 31,-61 23,-56 15,-61 7,-56 6,-51 2,-50 v -46 h -15 l -5,46 2,50 -5,51 -7,56 -16,56 -23,56 -30,56 -43,53 z"
   id="path514"
   inkscape:connector-curvature="0"
   style="fill:#000000;stroke:none" />
         <path
   d="m 10513,16040 v 5 l 2,3 3,2 h 5 z"
   id="path516"
   inkscape:connector-curvature="0"
   style="fill:#000000;stroke:none" />
         <path
   d="m 10975,15684 v -7 l -5,-3 h -5 l -5,5 z"
   id="path518"
   inkscape:connector-curvature="0"
   style="fill:#000000;stroke:none" />
         <path
   d="m 10963,15786 v 0 l -16,-20 -2,-18 10,-25 20,-39 -15,-5 -20,38 -10,31 2,23 20,25 v 0 z"
   id="path520"
   inkscape:connector-curvature="0"
   style="fill:#000000;stroke:none" />
         <path
   d="m 10996,16061 25,-36 10,-38 v -41 l -7,-40 -13,-39 -15,-33 -16,-30 -17,-18 -11,10 13,18 15,25 16,33 12,39 8,35 v 41 l -10,33 -20,30 z"
   id="path522"
   inkscape:connector-curvature="0"
   style="fill:#000000;stroke:none" />
         <path
   d="m 10986,16050 v 5 l 2,3 3,3 h 5 z"
   id="path524"
   inkscape:connector-curvature="0"
   style="fill:#000000;stroke:none" />
         <path
   d="m 11484,15369 -3,-5 h -7 l -5,3 v 7 z"
   id="path526"
   inkscape:connector-curvature="0"
   style="fill:#000000;stroke:none" />
         <path
   d="m 11430,15654 v 0 l 23,-26 18,-33 13,-33 7,-38 6,-35 v -38 l -6,-39 -7,-43 -15,5 7,38 5,39 v 38 l -5,35 -7,33 -13,33 -18,28 -18,26 v 0 z"
   id="path528"
   inkscape:connector-curvature="0"
   style="fill:#000000;stroke:none" />
         <path
   d="m 11395,15789 -13,-28 v -33 l 15,-31 33,-43 -10,-10 -38,43 -15,41 v 33 l 13,33 z"
   id="path530"
   inkscape:connector-curvature="0"
   style="fill:#000000;stroke:none" />
         <path
   d="m 11380,15794 5,5 h 5 l 5,-3 v -7 z"
   id="path532"
   inkscape:connector-curvature="0"
   style="fill:#000000;stroke:none" />
         <path
   d="m 9402,15451 -3,-5 -5,-3 -5,3 -2,5 z"
   id="path534"
   inkscape:connector-curvature="0"
   style="fill:#000000;stroke:none" />
         <path
   d="m 9493,15608 v 0 l -20,-15 -20,-15 -16,-16 -15,-20 -10,-18 -8,-23 -2,-22 v -28 h -15 l -6,28 8,27 8,23 10,23 15,21 20,20 21,15 20,15 v 0 z"
   id="path536"
   inkscape:connector-curvature="0"
   style="fill:#000000;stroke:none" />
         <path
   d="m 9534,15791 v 0 l 13,-25 7,-26 3,-23 -5,-25 -10,-23 -11,-23 -20,-20 -18,-18 -10,15 18,13 15,20 10,18 11,23 v 20 l 2,23 -8,21 -12,20 v 0 z"
   id="path538"
   inkscape:connector-curvature="0"
   style="fill:#000000;stroke:none" />
         <path
   d="m 9501,15944 -8,-26 3,-40 13,-44 25,-43 -15,-10 -26,48 -12,49 -3,40 8,31 z"
   id="path540"
   inkscape:connector-curvature="0"
   style="fill:#000000;stroke:none" />
         <path
   d="m 9486,15949 5,5 h 5 l 5,-3 v -7 z"
   id="path542"
   inkscape:connector-curvature="0"
   style="fill:#000000;stroke:none" />
         <path
   d="m 10231,16167 -72,-35 -38,-38 -15,-44 3,-45 15,-46 18,-51 15,-51 7,-53 21,18 20,25 18,25 15,31 10,36 8,35 5,38 -2,38 15,-20 20,-23 28,-23 28,-23 25,-25 23,-25 16,-28 5,-31 2,41 -5,38 -10,41 -15,40 -28,41 -33,41 -46,38 z"
   id="path544"
   inkscape:connector-curvature="0"
   style="fill:#ffe500;stroke:none" />
         <path
   d="m 10170,15796 -16,8 -5,53 -15,49 -18,50 -15,49 -3,45 16,49 40,40 74,36 5,-15 -69,-36 -35,-35 -15,-39 2,-45 15,-44 18,-50 15,-54 11,-53 -16,7 16,-7 -3,-8 -8,-2 -7,2 -3,8 z"
   id="path546"
   inkscape:connector-curvature="0"
   style="fill:#000000;stroke:none" />
         <path
   d="m 10251,16048 15,2 5,-38 -7,-38 -8,-35 -10,-39 -15,-33 -18,-25 -23,-25 -20,-21 -11,15 21,16 17,25 18,26 16,28 10,33 7,35 3,38 v 38 l 15,3 -15,-3 2,5 6,3 5,-3 2,-5 z"
   id="path548"
   inkscape:connector-curvature="0"
   style="fill:#000000;stroke:none" />
         <path
   d="m 10426,15852 h -18 l -2,28 -15,26 -21,25 -25,25 -28,21 -28,25 -23,23 -15,23 15,5 15,-18 18,-23 28,-20 28,-25 26,-26 25,-25 15,-31 8,-33 h -18 18 l -3,-7 -7,-3 -8,3 -3,7 z"
   id="path550"
   inkscape:connector-curvature="0"
   style="fill:#000000;stroke:none" />
         <path
   d="m 10228,16175 h 8 l 53,-36 46,-40 35,-41 28,-43 16,-41 10,-43 7,-38 -5,-41 h -15 v 41 l -3,38 -10,38 -15,41 -28,38 -30,41 -46,35 -54,36 h 8 -8 l -5,5 3,5 5,5 h 8 z"
   id="path552"
   inkscape:connector-curvature="0"
   style="fill:#000000;stroke:none" />
         <path
   d="m 9913,15994 -31,8 -33,5 -33,5 -33,-2 -33,-8 -28,-18 -25,-28 -16,-43 -7,-46 v -35 l 5,-31 8,-25 7,-23 3,-20 -3,-21 -13,-20 21,13 15,15 18,18 13,23 10,23 5,27 5,28 v 31 l 2,25 13,18 18,15 23,11 23,10 25,10 23,15 z"
   id="path554"
   inkscape:connector-curvature="0"
   style="fill:#ffe500;stroke:none" />
         <path
   d="m 9674,15913 v 0 l 15,46 28,33 31,18 35,7 33,5 33,-7 33,-5 31,-8 v -15 l -31,7 -33,6 -33,2 h -33 l -30,-8 -26,-17 -23,-23 -15,-41 v 0 z"
   id="path556"
   inkscape:connector-curvature="0"
   style="fill:#000000;stroke:none" />
         <path
   d="m 9684,15684 -10,13 13,18 v 18 20 l -8,20 -8,28 -5,31 v 35 l 8,46 h 15 l -8,-46 v -35 l 6,-31 7,-23 8,-25 5,-20 -5,-23 -13,-23 -10,13 10,-13 -5,-5 -5,2 -5,5 v 8 z"
   id="path558"
   inkscape:connector-curvature="0"
   style="fill:#000000;stroke:none" />
         <path
   d="m 9776,15870 v 0 -31 l -6,-28 -5,-30 -10,-23 -13,-25 -20,-18 -15,-18 -23,-13 -5,16 18,12 15,13 15,18 13,20 10,23 5,25 5,28 v 31 0 z"
   id="path560"
   inkscape:connector-curvature="0"
   style="fill:#000000;stroke:none" />
         <path
   d="m 9913,16002 7,-13 -20,-22 -25,-16 -26,-10 -23,-10 -20,-10 -18,-13 -10,-15 -2,-23 h -16 l 3,28 15,20 18,18 25,10 23,10 26,11 20,15 15,18 8,-13 -8,13 5,5 8,-3 2,-5 v -8 z"
   id="path562"
   inkscape:connector-curvature="0"
   style="fill:#000000;stroke:none" />
         <path
   d="m 10599,16073 23,13 31,8 h 35 l 36,-8 35,-13 31,-25 23,-33 12,-46 8,-86 3,-59 7,-35 21,-26 -31,10 -28,13 -23,20 -23,23 -17,28 -18,31 -13,33 -13,35 -10,33 -8,26 -7,20 -10,15 -10,11 -13,5 -18,5 z"
   id="path564"
   inkscape:connector-curvature="0"
   style="fill:#ffe500;stroke:none" />
         <path
   d="m 10818,15969 v 0 l -13,43 -20,31 -31,23 -33,12 -33,8 h -35 l -28,-8 -21,-12 -10,15 25,13 34,7 h 35 l 38,-7 38,-13 31,-28 25,-36 13,-48 v 0 z"
   id="path566"
   inkscape:connector-curvature="0"
   style="fill:#000000;stroke:none" />
         <path
   d="m 10864,15771 -6,-15 -22,30 -8,38 -3,59 -7,86 h 15 l 8,-86 2,-59 8,-33 18,-20 -5,-15 5,15 5,-5 -3,-8 -5,-2 h -8 z"
   id="path568"
   inkscape:connector-curvature="0"
   style="fill:#000000;stroke:none" />
         <path
   d="m 10706,15959 v 0 l 13,-36 12,-33 18,-28 18,-28 20,-23 23,-17 26,-13 28,-10 v -15 l -34,10 -30,12 -23,23 -25,23 -18,28 -18,33 -13,33 -12,36 v 0 z"
   id="path570"
   inkscape:connector-curvature="0"
   style="fill:#000000;stroke:none" />
         <path
   d="m 10604,16066 -5,15 23,-3 20,-5 16,-5 12,-13 10,-17 8,-21 8,-25 10,-33 -15,-5 -11,33 -7,25 -8,21 -10,12 -8,8 -10,5 -15,5 -23,3 -5,15 5,-15 -5,2 -2,5 2,5 5,3 z"
   id="path572"
   inkscape:connector-curvature="0"
   style="fill:#000000;stroke:none" />
         <path
   d="m 11014,16022 h 22 l 26,-2 25,-5 26,-10 25,-13 20,-20 13,-23 8,-31 7,-63 18,-51 21,-38 25,-18 -25,2 -34,8 -33,13 -35,18 -33,22 -28,26 -21,28 -12,30 -5,51 v 31 l -3,23 z"
   id="path574"
   inkscape:connector-curvature="0"
   style="fill:#ffe500;stroke:none" />
         <path
   d="m 11171,15918 v 0 l -8,28 -12,21 -18,17 -23,13 -25,10 -23,5 h -26 l -22,3 v 15 l 22,3 26,-5 28,-6 25,-10 28,-12 23,-23 13,-26 7,-33 v 0 z"
   id="path576"
   inkscape:connector-curvature="0"
   style="fill:#000000;stroke:none" />
         <path
   d="m 11250,15756 -3,-16 -30,21 -20,40 -18,54 -8,63 h 15 l 8,-63 18,-49 20,-35 20,-15 -2,-16 2,16 6,-6 v -5 l -3,-5 h -8 z"
   id="path578"
   inkscape:connector-curvature="0"
   style="fill:#000000;stroke:none" />
         <path
   d="m 11036,15895 v 0 l 13,-28 18,-25 28,-23 33,-23 33,-18 33,-12 31,-8 25,-2 v -16 l -25,3 -36,7 -33,13 -38,18 -33,23 -28,28 -23,30 -13,33 v 0 z"
   id="path580"
   inkscape:connector-curvature="0"
   style="fill:#000000;stroke:none" />
         <path
   d="m 11014,16015 7,13 8,-28 5,-23 -3,-31 5,-51 h -15 l -5,51 -2,31 v 23 l -8,17 8,13 -8,-13 v 8 l 5,5 5,3 5,-5 z"
   id="path582"
   inkscape:connector-curvature="0"
   style="fill:#000000;stroke:none" />
         <path
   d="m 9481,15895 -21,-7 -20,-8 -20,-10 -18,-15 -18,-26 -18,-40 -12,-59 -11,-81 28,18 26,17 20,18 18,21 15,27 13,36 10,48 z"
   id="path584"
   inkscape:connector-curvature="0"
   style="fill:#ffe500;stroke:none" />
         <path
   d="m 9348,15641 -12,8 10,81 13,61 17,41 18,28 21,18 22,10 21,7 20,8 5,-15 -20,-8 -21,-8 -17,-10 -16,-12 -17,-23 -18,-41 -13,-56 -10,-81 -13,7 13,-7 -3,-5 -5,-3 -5,3 -2,5 z"
   id="path586"
   inkscape:connector-curvature="0"
   style="fill:#000000;stroke:none" />
         <path
   d="m 9478,15903 10,-8 -7,-61 -11,-50 -12,-36 -16,-31 -20,-20 -20,-20 -26,-18 -28,-18 -10,15 28,18 26,18 20,15 15,21 15,25 13,36 10,45 8,61 10,-7 -10,7 3,5 5,3 5,-3 2,-5 z"
   id="path588"
   inkscape:connector-curvature="0"
   style="fill:#000000;stroke:none" />
        </g>
       </g>
      </g>
     </g>
    </g>
   </g>
  </g>
 </g>
</svg>