<?xml version="1.0" encoding="UTF-8" standalone="no"?>
<svg
   xmlns:ooo="http://xml.openoffice.org/svg/export"
   xmlns:dc="http://purl.org/dc/elements/1.1/"
   xmlns:cc="http://creativecommons.org/ns#"
   xmlns:rdf="http://www.w3.org/1999/02/22-rdf-syntax-ns#"
   xmlns:svg="http://www.w3.org/2000/svg"
   xmlns="http://www.w3.org/2000/svg"
   xmlns:sodipodi="http://sodipodi.sourceforge.net/DTD/sodipodi-0.dtd"
   xmlns:inkscape="http://www.inkscape.org/namespaces/inkscape"
   version="1.2"
   width="31.98mm"
   height="33.810001mm"
   viewBox="0 0 3198 3381.0001"
   preserveAspectRatio="xMidYMid"
   xml:space="preserve"
   id="svg204"
   sodipodi:docname="certifct.svg"
   style="fill-rule:evenodd;stroke-width:28.22200012;stroke-linejoin:round"
   inkscape:version="0.92.5 (2060ec1f9f, 2020-04-08)"><metadata
   id="metadata208"><rdf:RDF><cc:Work
       rdf:about=""><dc:format>image/svg+xml</dc:format><dc:type
         rdf:resource="http://purl.org/dc/dcmitype/StillImage" /></cc:Work></rdf:RDF></metadata><sodipodi:namedview
   pagecolor="#ffffff"
   bordercolor="#666666"
   borderopacity="1"
   objecttolerance="10"
   gridtolerance="10"
   guidetolerance="10"
   inkscape:pageopacity="0"
   inkscape:pageshadow="2"
   inkscape:window-width="664"
   inkscape:window-height="487"
   id="namedview206"
   showgrid="false"
   inkscape:zoom="0.2102413"
   inkscape:cx="60.434647"
   inkscape:cy="63.874014"
   inkscape:window-x="0"
   inkscape:window-y="0"
   inkscape:window-maximized="0"
   inkscape:current-layer="svg204" />
 <defs
   class="ClipPathGroup"
   id="defs8">
  <clipPath
   id="presentation_clip_path"
   clipPathUnits="userSpaceOnUse">
   <rect
   x="0"
   y="0"
   width="21000"
   height="29700"
   id="rect2" />
  </clipPath>
  <clipPath
   id="presentation_clip_path_shrink"
   clipPathUnits="userSpaceOnUse">
   <rect
   x="21"
   y="29"
   width="20958"
   height="29641"
   id="rect5" />
  </clipPath>
 </defs>
 <defs
   class="TextShapeIndex"
   id="defs12">
  <g
   ooo:slide="id1"
   ooo:id-list="id3"
   id="g10" />
 </defs>
 <defs
   class="EmbeddedBulletChars"
   id="defs44">
  <g
   id="bullet-char-template-57356"
   transform="matrix(4.8828125e-4,0,0,-4.8828125e-4,0,0)">
   <path
   d="M 580,1141 1163,571 580,0 -4,571 Z"
   id="path14"
   inkscape:connector-curvature="0" />
  </g>
  <g
   id="bullet-char-template-57354"
   transform="matrix(4.8828125e-4,0,0,-4.8828125e-4,0,0)">
   <path
   d="M 8,1128 H 1137 V 0 H 8 Z"
   id="path17"
   inkscape:connector-curvature="0" />
  </g>
  <g
   id="bullet-char-template-10146"
   transform="matrix(4.8828125e-4,0,0,-4.8828125e-4,0,0)">
   <path
   d="M 174,0 602,739 174,1481 1456,739 Z M 1358,739 309,1346 659,739 Z"
   id="path20"
   inkscape:connector-curvature="0" />
  </g>
  <g
   id="bullet-char-template-10132"
   transform="matrix(4.8828125e-4,0,0,-4.8828125e-4,0,0)">
   <path
   d="M 2015,739 1276,0 H 717 l 543,543 H 174 v 393 h 1086 l -543,545 h 557 z"
   id="path23"
   inkscape:connector-curvature="0" />
  </g>
  <g
   id="bullet-char-template-10007"
   transform="matrix(4.8828125e-4,0,0,-4.8828125e-4,0,0)">
   <path
   d="m 0,-2 c -7,16 -16,29 -25,39 l 381,530 c -94,256 -141,385 -141,387 0,25 13,38 40,38 9,0 21,-2 34,-5 21,4 42,12 65,25 l 27,-13 111,-251 280,301 64,-25 24,25 c 21,-10 41,-24 62,-43 C 886,937 835,863 770,784 769,783 710,716 594,584 L 774,223 c 0,-27 -21,-55 -63,-84 l 16,-20 C 717,90 699,76 672,76 641,76 570,178 457,381 L 164,-76 c -22,-34 -53,-51 -92,-51 -42,0 -63,17 -64,51 -7,9 -10,24 -10,44 0,9 1,19 2,30 z"
   id="path26"
   inkscape:connector-curvature="0" />
  </g>
  <g
   id="bullet-char-template-10004"
   transform="matrix(4.8828125e-4,0,0,-4.8828125e-4,0,0)">
   <path
   d="M 285,-33 C 182,-33 111,30 74,156 52,228 41,333 41,471 c 0,78 14,145 41,201 34,71 87,106 158,106 53,0 88,-31 106,-94 l 23,-176 c 8,-64 28,-97 59,-98 l 735,706 c 11,11 33,17 66,17 42,0 63,-15 63,-46 V 965 c 0,-36 -10,-64 -30,-84 L 442,47 C 390,-6 338,-33 285,-33 Z"
   id="path29"
   inkscape:connector-curvature="0" />
  </g>
  <g
   id="bullet-char-template-9679"
   transform="matrix(4.8828125e-4,0,0,-4.8828125e-4,0,0)">
   <path
   d="M 813,0 C 632,0 489,54 383,161 276,268 223,411 223,592 c 0,181 53,324 160,431 106,107 249,161 430,161 179,0 323,-54 432,-161 108,-107 162,-251 162,-431 0,-180 -54,-324 -162,-431 C 1136,54 992,0 813,0 Z"
   id="path32"
   inkscape:connector-curvature="0" />
  </g>
  <g
   id="bullet-char-template-8226"
   transform="matrix(4.8828125e-4,0,0,-4.8828125e-4,0,0)">
   <path
   d="m 346,457 c -73,0 -137,26 -191,78 -54,51 -81,114 -81,188 0,73 27,136 81,188 54,52 118,78 191,78 73,0 134,-26 185,-79 51,-51 77,-114 77,-187 0,-75 -25,-137 -76,-188 -50,-52 -112,-78 -186,-78 z"
   id="path35"
   inkscape:connector-curvature="0" />
  </g>
  <g
   id="bullet-char-template-8211"
   transform="matrix(4.8828125e-4,0,0,-4.8828125e-4,0,0)">
   <path
   d="M -4,459 H 1135 V 606 H -4 Z"
   id="path38"
   inkscape:connector-curvature="0" />
  </g>
  <g
   id="bullet-char-template-61548"
   transform="matrix(4.8828125e-4,0,0,-4.8828125e-4,0,0)">
   <path
   d="m 173,740 c 0,163 58,303 173,419 116,115 255,173 419,173 163,0 302,-58 418,-173 116,-116 174,-256 174,-419 0,-163 -58,-303 -174,-418 C 1067,206 928,148 765,148 601,148 462,206 346,322 231,437 173,577 173,740 Z"
   id="path41"
   inkscape:connector-curvature="0" />
  </g>
 </defs>
 <g
   id="g49"
   transform="translate(-8901,-13159)">
  <g
   id="id2"
   class="Master_Slide">
   <g
   id="bg-id2"
   class="Background" />
   <g
   id="bo-id2"
   class="BackgroundObjects" />
  </g>
 </g>
 <g
   class="SlideGroup"
   id="g202"
   transform="translate(-8901,-13159)">
  <g
   id="g200">
   <g
   id="container-id1">
    <g
   id="id1"
   class="Slide"
   clip-path="url(#presentation_clip_path)">
     <g
   class="Page"
   id="g196">
      <g
   class="Graphic"
   id="g194">
       <g
   id="id3">
        <rect
   class="BoundingBox"
   x="8901"
   y="13159"
   width="3198"
   height="3381"
   id="rect51"
   style="fill:none;stroke:none" />
        <path
   d="m 10017,13609 41,-5 40,-5 38,-5 44,-5 h 40 41 l 43,2 43,8 36,7 38,5 36,8 38,3 36,5 38,2 h 35 38 36 l 36,-2 35,-5 36,-8 35,-8 36,-7 35,-13 36,-13 64,-25 61,-23 63,-23 66,-23 64,-20 66,-20 63,-18 67,-15 66,-11 66,-10 66,-5 66,-2 h 64 l 66,5 66,10 63,15 38,18 28,30 21,36 15,43 5,46 -3,46 -12,43 -18,36 -18,20 -25,13 -31,10 -33,2 -35,3 -39,-3 -40,-5 -38,-5 -41,-2 -38,-5 -33,-3 -33,3 -26,2 -23,10 -15,13 -7,20 -18,145 -5,137 2,122 3,100 5,195 10,143 15,165 23,272 8,198 -3,188 5,206 26,249 2,49 -2,51 -13,48 -15,48 -26,43 -28,38 -33,28 -40,21 -38,12 -36,11 -38,10 -38,10 -38,10 -39,8 -38,7 -38,8 -40,5 -39,8 -38,7 -40,5 -41,8 -38,5 -41,8 -41,7 -53,11 -53,10 -54,10 -53,8 -53,10 -51,10 -54,8 -51,7 -53,8 -53,7 -51,5 -54,6 -50,5 -54,2 -53,3 -54,2 h -50 l -49,3 -51,5 -50,2 -51,6 -51,2 -51,3 -48,2 h -51 l -51,-2 -48,-3 -48,-8 -49,-7 -48,-13 -46,-18 -46,-20 -38,-31 -28,-48 -12,-53 -3,-61 10,-61 21,-56 30,-48 41,-34 40,-12 44,-3 45,5 49,10 51,13 53,10 53,8 51,-3 92,-162 50,-171 18,-175 -5,-183 -20,-183 -28,-186 -28,-180 -20,-178 -5,-145 2,-147 13,-145 18,-150 12,-64 18,-58 23,-56 28,-56 33,-51 36,-51 38,-48 40,-48 16,-8 h 17 18 z"
   id="path53"
   inkscape:connector-curvature="0"
   style="fill:#000000;stroke:none" />
        <path
   d="m 9811,13454 41,-5 40,-5 41,-5 41,-5 h 40 44 l 40,2 44,8 35,7 38,5 36,6 38,5 38,2 36,3 38,2 h 35 l 36,-2 38,-3 36,-2 35,-8 36,-8 36,-7 35,-13 36,-13 61,-25 63,-26 64,-22 63,-23 64,-21 66,-20 66,-15 64,-15 66,-13 66,-10 66,-5 66,-3 h 64 l 66,5 66,10 63,16 38,17 28,31 21,35 15,44 5,45 -2,46 -13,43 -18,38 -18,21 -25,13 -31,7 -33,5 h -35 l -38,-2 -41,-5 -38,-3 -41,-5 -38,-5 -33,-3 -33,3 -26,2 -22,11 -16,12 -7,21 -18,145 -3,137 v 122 l 3,99 5,196 10,142 15,170 23,272 8,196 -3,188 5,204 26,249 2,48 -2,51 -10,48 -18,49 -23,45 -28,36 -36,30 -40,21 -36,12 -38,11 -38,10 -38,10 -38,8 -38,7 -39,8 -38,7 -38,6 -41,7 -38,8 -40,5 -41,7 -38,6 -41,7 -40,8 -54,10 -53,10 -54,10 -50,10 -54,8 -53,10 -51,8 -53,8 -54,7 -51,8 -53,7 -53,6 -51,2 -54,5 -53,3 h -53 l -51,2 -49,3 -50,2 -51,5 -51,3 -51,5 -51,3 h -48 -51 -51 l -48,-6 -48,-7 -49,-8 -48,-12 -46,-18 -46,-21 -38,-30 -25,-48 -15,-54 v -61 l 7,-61 21,-56 30,-48 41,-33 40,-13 44,-2 45,5 49,12 51,13 53,10 53,8 51,-3 92,-162 51,-171 17,-178 -5,-180 -20,-186 -28,-183 -28,-180 -20,-178 -5,-148 2,-147 13,-145 20,-150 13,-61 18,-61 23,-56 25,-53 33,-54 36,-48 38,-48 40,-48 16,-8 17,-3 18,3 z"
   id="path55"
   inkscape:connector-curvature="0"
   style="fill:#ffedc9;stroke:none" />
        <path
   d="m 10144,13431 v 0 l -46,-8 -40,-2 h -44 -40 l -41,5 -41,5 -40,5 -41,5 v 26 l 41,-5 40,-6 41,-5 41,-5 h 40 44 l 40,3 41,7 v 0 z"
   id="path57"
   inkscape:connector-curvature="0"
   style="fill:#c9933a;stroke:none" />
        <path
   d="m 10719,13406 v 0 l -33,12 -36,13 -36,8 -35,7 -33,8 -36,2 -38,3 -36,3 h -35 l -38,-3 -36,-3 -38,-2 -38,-5 -36,-5 -38,-5 -33,-8 -5,25 38,8 38,5 36,5 38,5 38,3 36,2 38,3 h 35 l 36,-3 38,-2 36,-3 38,-7 35,-8 36,-8 36,-12 38,-13 v 0 z"
   id="path59"
   inkscape:connector-curvature="0"
   style="fill:#c9933a;stroke:none" />
        <path
   d="m 11761,13238 v 0 l -64,-15 -68,-11 -66,-5 h -64 l -66,3 -66,5 -66,10 -69,13 -63,15 -67,15 -66,21 -63,20 -64,23 -63,23 -66,25 -61,26 10,25 61,-25 61,-26 63,-23 64,-23 63,-20 67,-20 66,-16 63,-15 64,-12 66,-11 66,-5 66,-2 h 64 l 66,5 63,10 64,15 v 0 z"
   id="path61"
   inkscape:connector-curvature="0"
   style="fill:#c9933a;stroke:none" />
        <path
   d="m 11842,13558 v 0 l 21,-43 12,-46 3,-46 -5,-48 -16,-46 -22,-38 -31,-33 -43,-20 -5,25 33,15 25,28 18,33 15,41 5,43 -2,46 -13,41 -15,33 v 0 z"
   id="path63"
   inkscape:connector-curvature="0"
   style="fill:#c9933a;stroke:none" />
        <path
   d="m 11369,13622 v 0 l 5,-13 11,-10 20,-8 23,-2 33,-3 33,3 38,5 41,5 38,2 41,5 38,3 h 35 l 36,-5 30,-8 31,-15 20,-23 -20,-15 -15,18 -21,10 -30,7 -31,6 h -35 l -38,-3 -41,-5 -38,-3 -41,-5 -38,-5 -33,-2 -33,2 -28,3 -26,12 -20,16 -10,28 v 0 z"
   id="path65"
   inkscape:connector-curvature="0"
   style="fill:#c9933a;stroke:none" />
        <path
   d="m 11352,14125 v 0 l -3,-99 v -122 l 3,-137 17,-145 h -25 l -18,145 -2,137 v 122 l 2,99 v 0 z"
   id="path67"
   inkscape:connector-curvature="0"
   style="fill:#c9933a;stroke:none" />
        <path
   d="m 11405,14905 v 0 l -23,-272 -15,-170 -10,-142 -5,-196 h -26 l 5,196 10,142 16,170 23,272 v 0 z"
   id="path69"
   inkscape:connector-curvature="0"
   style="fill:#c9933a;stroke:none" />
        <path
   d="m 11441,15742 v 0 l -26,-249 -5,-204 3,-188 -8,-196 h -25 l 7,196 -2,188 5,204 25,249 v 0 z"
   id="path71"
   inkscape:connector-curvature="0"
   style="fill:#c9933a;stroke:none" />
        <path
   d="m 11275,16082 v 0 l 46,-22 36,-34 30,-38 26,-45 17,-51 11,-51 2,-51 -2,-48 h -26 l 3,48 -3,51 -10,46 -18,45 -20,46 -26,33 -35,28 -36,18 v 0 z"
   id="path73"
   inkscape:connector-curvature="0"
   style="fill:#c9933a;stroke:none" />
        <path
   d="m 10655,16210 v 0 l 41,-8 38,-8 38,-5 41,-7 40,-6 41,-7 38,-8 38,-5 41,-7 38,-8 38,-8 38,-7 38,-11 39,-10 38,-10 35,-13 -5,-25 -35,13 -38,10 -39,10 -38,10 -38,8 -38,7 -38,8 -36,8 -38,5 -43,7 -36,8 -40,5 -41,8 -38,5 -43,7 -41,8 v 0 z"
   id="path75"
   inkscape:connector-curvature="0"
   style="fill:#c9933a;stroke:none" />
        <path
   d="m 9809,16321 v 0 h 53 l 53,-2 54,-5 51,-3 53,-5 53,-7 51,-8 54,-8 53,-7 51,-8 53,-10 54,-8 53,-10 53,-10 54,-10 53,-10 -5,-26 -53,10 -54,10 -53,11 -48,10 -54,7 -53,11 -51,7 -53,8 -54,7 -51,8 -53,8 -53,5 -51,2 -54,5 -53,3 h -53 v 0 z"
   id="path77"
   inkscape:connector-curvature="0"
   style="fill:#c9933a;stroke:none" />
        <path
   d="m 9015,16271 v 0 l 46,22 48,18 49,13 51,8 48,7 48,5 h 51 51 48 l 51,-2 51,-5 51,-3 51,-5 50,-3 49,-2 51,-3 v -25 l -51,3 -49,2 -50,3 -51,5 -51,2 -51,5 -51,3 h -48 -51 -51 l -48,-5 -48,-8 -46,-7 -48,-13 -44,-18 -45,-18 v 0 z"
   id="path79"
   inkscape:connector-curvature="0"
   style="fill:#c9933a;stroke:none" />
        <path
   d="m 9036,15859 v 0 l -46,35 -31,51 -22,59 -8,63 v 61 l 15,59 28,50 43,34 11,-21 -33,-28 -23,-46 -16,-48 v -61 l 8,-58 18,-54 30,-45 36,-31 v 0 z"
   id="path81"
   inkscape:connector-curvature="0"
   style="fill:#c9933a;stroke:none" />
        <path
   d="m 9417,15892 10,-5 -51,2 -53,-7 -51,-11 -51,-12 -48,-13 -48,-5 -44,2 -45,16 10,20 35,-10 44,-3 43,5 48,13 51,13 56,10 53,8 51,-3 10,-5 -10,5 h 8 l 2,-5 z"
   id="path83"
   inkscape:connector-curvature="0"
   style="fill:#c9933a;stroke:none" />
        <path
   d="m 9473,14481 v 0 l 20,178 28,180 28,183 21,186 5,180 -18,176 -51,168 -89,160 20,15 94,-165 51,-173 18,-181 -5,-180 -20,-186 -28,-183 -28,-180 -21,-178 v 0 z"
   id="path85"
   inkscape:connector-curvature="0"
   style="fill:#c9933a;stroke:none" />
        <path
   d="m 9503,13891 v 0 l -20,150 -13,145 -2,147 5,148 h 25 l -5,-148 3,-147 13,-145 20,-150 v 0 z"
   id="path87"
   inkscape:connector-curvature="0"
   style="fill:#c9933a;stroke:none" />
        <path
   d="m 9732,13454 v 0 l -40,48 -39,48 -35,49 -33,56 -28,53 -23,59 -18,61 -13,63 h 26 l 13,-58 17,-61 23,-54 23,-53 33,-51 36,-48 38,-49 41,-48 v 0 z"
   id="path89"
   inkscape:connector-curvature="0"
   style="fill:#c9933a;stroke:none" />
        <path
   d="m 9811,13441 v 0 h -18 l -18,-2 -20,2 -23,13 21,15 7,-2 15,-3 18,3 h 18 v 0 z"
   id="path91"
   inkscape:connector-curvature="0"
   style="fill:#c9933a;stroke:none" />
        <path
   d="m 11255,15625 -13,-18 -81,173 -33,122 2,84 36,51 46,25 46,5 35,-5 15,-2 -5,-26 -10,3 -35,5 -41,-5 -36,-21 -25,-35 -3,-79 33,-117 77,-168 -13,-18 z"
   id="path93"
   inkscape:connector-curvature="0"
   style="fill:#c9933a;stroke:none" />
        <path
   d="m 9425,15912 28,8 35,5 43,2 h 46 l 54,-2 58,-5 64,-5 66,-8 71,-10 71,-10 76,-10 79,-13 81,-15 79,-16 82,-15 78,-15 79,-15 79,-16 76,-15 74,-15 71,-18 66,-13 64,-15 61,-13 53,-12 49,-11 43,-10 35,-10 31,-5 20,-5 13,-5 h 5 l -5,-26 h -5 l -13,6 -20,5 -31,5 -35,10 -44,10 -48,10 -53,13 -61,13 -64,15 -66,13 -71,17 -74,16 -76,15 -79,15 -79,15 -78,16 -82,15 -79,15 -76,15 -79,13 -76,10 -71,10 -71,11 -66,7 -64,5 -58,5 -54,3 h -46 l -43,-3 -30,-5 -28,-7 z"
   id="path95"
   inkscape:connector-curvature="0"
   style="fill:#c9933a;stroke:none" />
        <path
   d="m 11352,13797 2,-170 20,-127 34,-89 45,-61 49,-41 61,-25 61,-23 68,-23 -10,-26 -63,23 -67,23 -61,31 -58,45 -46,67 -38,94 -20,132 -3,170 z"
   id="path97"
   inkscape:connector-curvature="0"
   style="fill:#c9933a;stroke:none" />
        <path
   d="m 11339,13970 v -13 h -191 v 26 h 191 z"
   id="path99"
   inkscape:connector-curvature="0"
   style="fill:#c9933a;stroke:none" />
        <path
   d="m 11339,14039 v -13 h -120 v 25 h 120 z"
   id="path101"
   inkscape:connector-curvature="0"
   style="fill:#c9933a;stroke:none" />
        <path
   d="m 9887,15040 v -13 h -330 v 26 h 330 z"
   id="path103"
   inkscape:connector-curvature="0"
   style="fill:#c9933a;stroke:none" />
        <path
   d="m 9783,15127 v -13 l -208,-15 v 25 l 208,15 z"
   id="path105"
   inkscape:connector-curvature="0"
   style="fill:#c9933a;stroke:none" />
        <path
   d="m 10009,13589 v -13 l -348,-18 v 26 l 348,17 z"
   id="path107"
   inkscape:connector-curvature="0"
   style="fill:#c9933a;stroke:none" />
        <path
   d="m 9819,13657 v -12 h -227 v 25 h 227 z"
   id="path109"
   inkscape:connector-curvature="0"
   style="fill:#c9933a;stroke:none" />
        <path
   d="m 9732,13779 v -12 l -190,-18 v 25 l 190,18 z"
   id="path111"
   inkscape:connector-curvature="0"
   style="fill:#c9933a;stroke:none" />
        <path
   d="m 11397,15185 v -13 l -317,13 v 25 l 317,-12 z"
   id="path113"
   inkscape:connector-curvature="0"
   style="fill:#c9933a;stroke:none" />
        <path
   d="m 11397,15254 v -13 l -195,13 v 25 l 195,-13 z"
   id="path115"
   inkscape:connector-curvature="0"
   style="fill:#c9933a;stroke:none" />
        <path
   d="m 11402,15363 v -13 l -96,8 v 25 l 96,-7 z"
   id="path117"
   inkscape:connector-curvature="0"
   style="fill:#c9933a;stroke:none" />
        <path
   d="m 9773,15071 -48,58 25,51 76,-36 -25,-50 -48,58 20,-81 -89,-23 41,81 z"
   id="path119"
   inkscape:connector-curvature="0"
   style="fill:#ff0066;stroke:none" />
        <path
   d="m 9781,15122 50,-36 -58,-15 -20,81 58,15 51,-35 -51,35 43,13 8,-48 z"
   id="path121"
   inkscape:connector-curvature="0"
   style="fill:#ff0066;stroke:none" />
        <path
   d="m 9859,15033 -68,25 -10,64 81,10 10,-64 -69,26 56,-61 -56,-51 -12,76 z"
   id="path123"
   inkscape:connector-curvature="0"
   style="fill:#ff0066;stroke:none" />
        <path
   d="m 9831,15078 67,-12 -39,-33 -56,61 39,33 66,-13 -66,13 40,35 26,-48 z"
   id="path125"
   inkscape:connector-curvature="0"
   style="fill:#ff0066;stroke:none" />
        <path
   d="m 9938,15022 -76,-2 -31,58 77,36 30,-59 -76,-2 76,-31 -35,-84 -41,82 z"
   id="path127"
   inkscape:connector-curvature="0"
   style="fill:#ff0066;stroke:none" />
        <path
   d="m 9890,15076 74,5 -26,-59 -76,31 25,58 74,5 -74,-5 36,79 38,-74 z"
   id="path129"
   inkscape:connector-curvature="0"
   style="fill:#ff0066;stroke:none" />
        <path
   d="m 10002,15025 -77,-13 -35,64 71,40 36,-63 -77,-13 82,-15 -23,-112 -54,99 z"
   id="path131"
   inkscape:connector-curvature="0"
   style="fill:#ff0066;stroke:none" />
        <path
   d="m 9943,15068 71,20 -12,-63 -82,15 13,64 71,20 -71,-20 15,79 56,-59 z"
   id="path133"
   inkscape:connector-curvature="0"
   style="fill:#ff0066;stroke:none" />
        <path
   d="m 10063,15050 -71,-33 -49,51 61,56 49,-51 -72,-33 82,10 15,-127 -86,94 z"
   id="path135"
   inkscape:connector-curvature="0"
   style="fill:#ff0066;stroke:none" />
        <path
   d="m 9994,15091 59,41 10,-82 -82,-10 -10,82 59,40 -59,-40 -10,81 69,-41 z"
   id="path137"
   inkscape:connector-curvature="0"
   style="fill:#ff0066;stroke:none" />
        <path
   d="m 10121,15106 -56,-53 -71,38 36,71 71,-38 -56,-53 76,35 51,-112 -107,59 z"
   id="path139"
   inkscape:connector-curvature="0"
   style="fill:#ff0066;stroke:none" />
        <path
   d="m 10040,15124 46,59 35,-77 -76,-35 -36,76 46,58 -46,-58 -35,74 81,-16 z"
   id="path141"
   inkscape:connector-curvature="0"
   style="fill:#ff0066;stroke:none" />
        <path
   d="m 10157,15180 -36,-71 -81,15 15,81 81,-15 -35,-71 56,61 114,-99 -150,28 z"
   id="path143"
   inkscape:connector-curvature="0"
   style="fill:#ff0066;stroke:none" />
        <path
   d="m 10081,15160 17,71 59,-51 -56,-61 -59,51 18,71 -18,-71 -61,51 79,20 z"
   id="path145"
   inkscape:connector-curvature="0"
   style="fill:#ff0066;stroke:none" />
        <path
   d="m 10164,15251 -15,-74 -68,-17 -21,81 69,18 -15,-74 50,66 69,-51 -84,-23 z"
   id="path147"
   inkscape:connector-curvature="0"
   style="fill:#ff0066;stroke:none" />
        <path
   d="m 10098,15226 8,71 58,-46 -50,-66 -59,46 8,71 -8,-71 -53,40 61,31 z"
   id="path149"
   inkscape:connector-curvature="0"
   style="fill:#ff0066;stroke:none" />
        <path
   d="m 10149,15333 8,-79 -59,-28 -35,76 58,28 8,-79 20,82 104,-34 -96,-45 z"
   id="path151"
   inkscape:connector-curvature="0"
   style="fill:#ff0066;stroke:none" />
        <path
   d="m 10093,15284 -18,71 74,-22 -20,-82 -74,23 -18,71 18,-71 -74,23 56,48 z"
   id="path153"
   inkscape:connector-curvature="0"
   style="fill:#ff0066;stroke:none" />
        <path
   d="m 10114,15401 30,-71 -51,-46 -56,61 51,46 31,-71 -5,81 127,13 -97,-84 z"
   id="path155"
   inkscape:connector-curvature="0"
   style="fill:#ff0066;stroke:none" />
        <path
   d="m 10083,15345 -43,49 74,7 5,-81 -74,-8 -43,48 43,-48 -56,-7 13,55 z"
   id="path157"
   inkscape:connector-curvature="0"
   style="fill:#ff0066;stroke:none" />
        <path
   d="m 10032,15439 61,-43 -10,-51 -81,15 10,51 61,-43 -41,71 79,43 -18,-86 z"
   id="path159"
   inkscape:connector-curvature="0"
   style="fill:#ff0066;stroke:none" />
        <path
   d="m 9997,15416 -21,-7 56,30 41,-71 -56,-30 -20,-8 20,8 -10,-8 h -10 z"
   id="path161"
   inkscape:connector-curvature="0"
   style="fill:#ff0066;stroke:none" />
        <path
   d="m 9854,15411 -17,5 h 160 v -86 h -160 l -18,5 18,-5 -8,3 -10,2 z"
   id="path163"
   inkscape:connector-curvature="0"
   style="fill:#ff0066;stroke:none" />
        <path
   d="m 9725,15399 58,48 71,-36 -35,-76 -71,36 58,48 -81,-20 -26,89 84,-41 z"
   id="path165"
   inkscape:connector-curvature="0"
   style="fill:#ff0066;stroke:none" />
        <path
   d="m 9801,15368 -53,-51 -23,82 81,20 23,-81 -54,-51 54,51 20,-74 -74,23 z"
   id="path167"
   inkscape:connector-curvature="0"
   style="fill:#ff0066;stroke:none" />
        <path
   d="m 9694,15327 51,59 56,-18 -26,-81 -55,18 50,58 -76,-36 -41,87 92,-28 z"
   id="path169"
   inkscape:connector-curvature="0"
   style="fill:#ff0066;stroke:none" />
        <path
   d="m 9760,15315 -33,-59 -33,71 76,36 33,-71 -33,-59 33,59 23,-51 -56,-8 z"
   id="path171"
   inkscape:connector-curvature="0"
   style="fill:#ff0066;stroke:none" />
        <path
   d="m 9687,15231 17,76 56,8 10,-82 -56,-7 18,76 -45,-71 -92,61 109,15 z"
   id="path173"
   inkscape:connector-curvature="0"
   style="fill:#ff0066;stroke:none" />
        <path
   d="m 9740,15261 2,-68 -55,38 45,71 56,-38 3,-69 -3,69 49,-36 -46,-33 z"
   id="path175"
   inkscape:connector-curvature="0"
   style="fill:#ff0066;stroke:none" />
        <path
   d="m 9707,15162 -5,69 38,30 51,-66 -38,-30 -5,68 -41,-71 -54,31 49,38 z"
   id="path177"
   inkscape:connector-curvature="0"
   style="fill:#ff0066;stroke:none" />
        <path
   d="m 9750,15180 18,-53 -61,35 41,71 61,-35 17,-54 -17,54 35,-21 -18,-33 z"
   id="path179"
   inkscape:connector-curvature="0"
   style="fill:#ff0066;stroke:none" />
        <path
   d="m 9793,15396 -5,64 -15,58 -23,59 -23,58 -23,58 -15,61 v 62 l 15,66 13,-41 23,-41 25,-35 31,-33 25,-31 23,-30 15,-26 3,-23 5,21 -5,17 -3,23 5,33 8,23 8,21 7,17 11,16 12,15 13,13 20,12 23,13 -7,-69 7,-63 18,-61 25,-59 28,-61 26,-58 18,-64 5,-66 h -36 l -38,-2 h -36 l -35,-3 h -36 l -38,3 -36,2 -38,5 -2,5 v 11 15 z"
   id="path181"
   inkscape:connector-curvature="0"
   style="fill:#007fe5;stroke:none" />
        <path
   d="m 9923,15437 36,-3 30,-10 28,-15 25,-23 23,-26 16,-27 10,-31 2,-36 -2,-35 -10,-31 -16,-30 -23,-26 -25,-20 -28,-18 -30,-10 -36,-2 -36,2 -33,10 -28,18 -25,20 -23,26 -15,30 -10,31 -3,35 3,36 10,31 15,27 23,26 25,23 28,15 33,10 z"
   id="path183"
   inkscape:connector-curvature="0"
   style="fill:#e0b71e;stroke:none" />
        <path
   d="m 10083,15266 v 0 36 l -10,28 -15,25 -21,26 -25,20 -26,15 -27,11 h -36 v 20 l 36,-5 33,-10 30,-16 26,-25 25,-25 15,-31 10,-33 5,-36 v 0 z"
   id="path185"
   inkscape:connector-curvature="0"
   style="fill:#b26600;stroke:none" />
        <path
   d="m 9923,15104 v 0 h 36 l 27,10 26,18 25,17 21,26 15,28 10,28 v 35 h 20 l -5,-35 -10,-33 -15,-33 -25,-26 -26,-23 -30,-17 -33,-11 -36,-5 v 0 z"
   id="path187"
   inkscape:connector-curvature="0"
   style="fill:#b26600;stroke:none" />
        <path
   d="m 9760,15266 v 0 -35 l 10,-28 16,-28 20,-26 25,-17 26,-18 30,-10 h 36 v -21 l -36,5 -35,11 -31,17 -25,23 -26,26 -15,33 -10,33 -5,35 v 0 z"
   id="path189"
   inkscape:connector-curvature="0"
   style="fill:#b26600;stroke:none" />
        <path
   d="m 9923,15427 v 0 h -36 l -30,-11 -26,-15 -25,-20 -20,-26 -16,-25 -10,-28 v -36 h -20 l 5,36 10,33 15,31 26,25 25,25 31,16 35,10 36,5 v 0 z"
   id="path191"
   inkscape:connector-curvature="0"
   style="fill:#b26600;stroke:none" />
       </g>
      </g>
     </g>
    </g>
   </g>
  </g>
 </g>
</svg>