<?xml version="1.0" encoding="UTF-8" standalone="no"?>
<svg
   xmlns:ooo="http://xml.openoffice.org/svg/export"
   xmlns:dc="http://purl.org/dc/elements/1.1/"
   xmlns:cc="http://creativecommons.org/ns#"
   xmlns:rdf="http://www.w3.org/1999/02/22-rdf-syntax-ns#"
   xmlns:svg="http://www.w3.org/2000/svg"
   xmlns="http://www.w3.org/2000/svg"
   xmlns:sodipodi="http://sodipodi.sourceforge.net/DTD/sodipodi-0.dtd"
   xmlns:inkscape="http://www.inkscape.org/namespaces/inkscape"
   version="1.2"
   width="54.079998mm"
   height="52.630001mm"
   viewBox="0 0 5407.9998 5263.0001"
   preserveAspectRatio="xMidYMid"
   xml:space="preserve"
   id="svg509"
   sodipodi:docname="champgn2.svg"
   style="fill-rule:evenodd;stroke-width:28.22200012;stroke-linejoin:round"
   inkscape:version="0.92.5 (2060ec1f9f, 2020-04-08)"><metadata
   id="metadata513"><rdf:RDF><cc:Work
       rdf:about=""><dc:format>image/svg+xml</dc:format><dc:type
         rdf:resource="http://purl.org/dc/dcmitype/StillImage" /></cc:Work></rdf:RDF></metadata><sodipodi:namedview
   pagecolor="#ffffff"
   bordercolor="#666666"
   borderopacity="1"
   objecttolerance="10"
   gridtolerance="10"
   guidetolerance="10"
   inkscape:pageopacity="0"
   inkscape:pageshadow="2"
   inkscape:window-width="664"
   inkscape:window-height="487"
   id="namedview511"
   showgrid="false"
   inkscape:zoom="0.2102413"
   inkscape:cx="102.19843"
   inkscape:cy="99.439368"
   inkscape:window-x="0"
   inkscape:window-y="0"
   inkscape:window-maximized="0"
   inkscape:current-layer="svg509" />
 <defs
   class="ClipPathGroup"
   id="defs8">
  <clipPath
   id="presentation_clip_path"
   clipPathUnits="userSpaceOnUse">
   <rect
   x="0"
   y="0"
   width="21000"
   height="29700"
   id="rect2" />
  </clipPath>
  <clipPath
   id="presentation_clip_path_shrink"
   clipPathUnits="userSpaceOnUse">
   <rect
   x="21"
   y="29"
   width="20958"
   height="29641"
   id="rect5" />
  </clipPath>
 </defs>
 <defs
   class="TextShapeIndex"
   id="defs12">
  <g
   ooo:slide="id1"
   ooo:id-list="id3"
   id="g10" />
 </defs>
 <defs
   class="EmbeddedBulletChars"
   id="defs44">
  <g
   id="bullet-char-template-57356"
   transform="matrix(4.8828125e-4,0,0,-4.8828125e-4,0,0)">
   <path
   d="M 580,1141 1163,571 580,0 -4,571 Z"
   id="path14"
   inkscape:connector-curvature="0" />
  </g>
  <g
   id="bullet-char-template-57354"
   transform="matrix(4.8828125e-4,0,0,-4.8828125e-4,0,0)">
   <path
   d="M 8,1128 H 1137 V 0 H 8 Z"
   id="path17"
   inkscape:connector-curvature="0" />
  </g>
  <g
   id="bullet-char-template-10146"
   transform="matrix(4.8828125e-4,0,0,-4.8828125e-4,0,0)">
   <path
   d="M 174,0 602,739 174,1481 1456,739 Z M 1358,739 309,1346 659,739 Z"
   id="path20"
   inkscape:connector-curvature="0" />
  </g>
  <g
   id="bullet-char-template-10132"
   transform="matrix(4.8828125e-4,0,0,-4.8828125e-4,0,0)">
   <path
   d="M 2015,739 1276,0 H 717 l 543,543 H 174 v 393 h 1086 l -543,545 h 557 z"
   id="path23"
   inkscape:connector-curvature="0" />
  </g>
  <g
   id="bullet-char-template-10007"
   transform="matrix(4.8828125e-4,0,0,-4.8828125e-4,0,0)">
   <path
   d="m 0,-2 c -7,16 -16,29 -25,39 l 381,530 c -94,256 -141,385 -141,387 0,25 13,38 40,38 9,0 21,-2 34,-5 21,4 42,12 65,25 l 27,-13 111,-251 280,301 64,-25 24,25 c 21,-10 41,-24 62,-43 C 886,937 835,863 770,784 769,783 710,716 594,584 L 774,223 c 0,-27 -21,-55 -63,-84 l 16,-20 C 717,90 699,76 672,76 641,76 570,178 457,381 L 164,-76 c -22,-34 -53,-51 -92,-51 -42,0 -63,17 -64,51 -7,9 -10,24 -10,44 0,9 1,19 2,30 z"
   id="path26"
   inkscape:connector-curvature="0" />
  </g>
  <g
   id="bullet-char-template-10004"
   transform="matrix(4.8828125e-4,0,0,-4.8828125e-4,0,0)">
   <path
   d="M 285,-33 C 182,-33 111,30 74,156 52,228 41,333 41,471 c 0,78 14,145 41,201 34,71 87,106 158,106 53,0 88,-31 106,-94 l 23,-176 c 8,-64 28,-97 59,-98 l 735,706 c 11,11 33,17 66,17 42,0 63,-15 63,-46 V 965 c 0,-36 -10,-64 -30,-84 L 442,47 C 390,-6 338,-33 285,-33 Z"
   id="path29"
   inkscape:connector-curvature="0" />
  </g>
  <g
   id="bullet-char-template-9679"
   transform="matrix(4.8828125e-4,0,0,-4.8828125e-4,0,0)">
   <path
   d="M 813,0 C 632,0 489,54 383,161 276,268 223,411 223,592 c 0,181 53,324 160,431 106,107 249,161 430,161 179,0 323,-54 432,-161 108,-107 162,-251 162,-431 0,-180 -54,-324 -162,-431 C 1136,54 992,0 813,0 Z"
   id="path32"
   inkscape:connector-curvature="0" />
  </g>
  <g
   id="bullet-char-template-8226"
   transform="matrix(4.8828125e-4,0,0,-4.8828125e-4,0,0)">
   <path
   d="m 346,457 c -73,0 -137,26 -191,78 -54,51 -81,114 -81,188 0,73 27,136 81,188 54,52 118,78 191,78 73,0 134,-26 185,-79 51,-51 77,-114 77,-187 0,-75 -25,-137 -76,-188 -50,-52 -112,-78 -186,-78 z"
   id="path35"
   inkscape:connector-curvature="0" />
  </g>
  <g
   id="bullet-char-template-8211"
   transform="matrix(4.8828125e-4,0,0,-4.8828125e-4,0,0)">
   <path
   d="M -4,459 H 1135 V 606 H -4 Z"
   id="path38"
   inkscape:connector-curvature="0" />
  </g>
  <g
   id="bullet-char-template-61548"
   transform="matrix(4.8828125e-4,0,0,-4.8828125e-4,0,0)">
   <path
   d="m 173,740 c 0,163 58,303 173,419 116,115 255,173 419,173 163,0 302,-58 418,-173 116,-116 174,-256 174,-419 0,-163 -58,-303 -174,-418 C 1067,206 928,148 765,148 601,148 462,206 346,322 231,437 173,577 173,740 Z"
   id="path41"
   inkscape:connector-curvature="0" />
  </g>
 </defs>
 <g
   id="g49"
   transform="translate(-7796,-12218)">
  <g
   id="id2"
   class="Master_Slide">
   <g
   id="bg-id2"
   class="Background" />
   <g
   id="bo-id2"
   class="BackgroundObjects" />
  </g>
 </g>
 <g
   class="SlideGroup"
   id="g507"
   transform="translate(-7796,-12218)">
  <g
   id="g505">
   <g
   id="container-id1">
    <g
   id="id1"
   class="Slide"
   clip-path="url(#presentation_clip_path)">
     <g
   class="Page"
   id="g501">
      <g
   class="Graphic"
   id="g499">
       <g
   id="id3">
        <rect
   class="BoundingBox"
   x="7796"
   y="12218"
   width="5408"
   height="5263"
   id="rect51"
   style="fill:none;stroke:none" />
        <defs
   id="defs56">
         <clipPath
   id="clip_path_1"
   clipPathUnits="userSpaceOnUse">
          <path
   d="m 7796,12218 h 5407 v 5262 H 7796 Z"
   id="path53"
   inkscape:connector-curvature="0" />
         </clipPath>
        </defs>
        <g
   clip-path="url(#clip_path_1)"
   id="g496">
         <path
   d="m 11603,12968 -3,-59 v -51 l 8,-43 13,-38 15,-30 20,-26 26,-18 28,-17 30,-11 33,-7 38,-5 38,-5 h 44 40 46 46 l 40,-5 49,-13 51,-18 50,-28 44,-30 38,-36 23,-41 10,-43 -5,-33 -16,-28 -22,-23 -28,-17 -31,-16 -30,-15 -31,-15 -23,-18 252,43 20,18 18,38 15,43 5,31 -10,53 -33,46 -46,38 -56,31 -61,25 -63,18 -61,10 -51,2 h -18 l -15,-2 -18,-3 -18,-2 -17,-3 -16,-2 -17,-3 h -18 l -48,8 -36,20 -25,33 -16,38 -10,43 -5,49 -2,46 -3,40 z"
   id="path58"
   inkscape:connector-curvature="0"
   style="fill:#0000ff;stroke:none" />
         <path
   d="m 11616,12790 -13,43 -8,43 -2,46 2,46 h 18 l -2,-44 2,-43 8,-43 12,-43 z"
   id="path60"
   inkscape:connector-curvature="0"
   style="fill:#000000;stroke:none" />
         <path
   d="m 11811,12647 -40,6 -33,7 -28,10 -23,13 -21,18 -17,23 -16,28 -17,38 17,5 13,-33 15,-26 18,-20 21,-18 20,-10 28,-10 28,-8 35,-5 z"
   id="path62"
   inkscape:connector-curvature="0"
   style="fill:#000000;stroke:none" />
         <path
   d="m 12129,12625 -30,12 -36,8 -41,5 h -43 l -46,-3 -43,-2 h -41 l -38,2 v 18 l 41,-5 43,-2 41,2 41,5 h 40 41 l 41,-7 40,-16 z"
   id="path64"
   inkscape:connector-curvature="0"
   style="fill:#000000;stroke:none" />
         <path
   d="m 12312,12485 -10,23 -21,20 -20,23 -28,18 -28,17 -28,16 -25,12 -23,11 10,17 28,-12 28,-16 28,-15 25,-18 23,-17 23,-21 21,-25 15,-26 z"
   id="path66"
   inkscape:connector-curvature="0"
   style="fill:#000000;stroke:none" />
         <path
   d="m 12254,12350 15,13 15,13 13,15 12,18 8,17 5,21 -2,18 -8,20 18,7 7,-22 3,-23 -3,-23 -7,-20 -13,-18 -15,-18 -18,-18 -18,-15 z"
   id="path68"
   inkscape:connector-curvature="0"
   style="fill:#000000;stroke:none" />
         <path
   d="m 12147,12271 -5,18 12,5 16,8 15,7 18,8 15,10 15,8 13,8 8,7 12,-15 -12,-8 -16,-10 -15,-10 -13,-8 -15,-7 -15,-8 -18,-8 -15,-5 -3,18 3,-18 -76,-12 71,30 z"
   id="path70"
   inkscape:connector-curvature="0"
   style="fill:#000000;stroke:none" />
         <path
   d="m 12401,12317 -254,-46 -3,18 249,43 -5,-5 13,-10 v -2 l -3,-3 h -2 v 0 z"
   id="path72"
   inkscape:connector-curvature="0"
   style="fill:#000000;stroke:none" />
         <path
   d="m 12457,12482 2,-43 -7,-48 -21,-43 -30,-31 -13,10 26,33 20,36 10,38 -5,41 z"
   id="path74"
   inkscape:connector-curvature="0"
   style="fill:#000000;stroke:none" />
         <path
   d="m 12304,12632 31,-12 25,-13 21,-15 20,-16 15,-17 13,-21 15,-25 13,-31 -18,-7 -13,30 -12,23 -13,20 -13,16 -18,12 -20,13 -25,10 -28,15 z"
   id="path76"
   inkscape:connector-curvature="0"
   style="fill:#000000;stroke:none" />
         <path
   d="m 12073,12686 h 31 l 28,-3 30,-5 31,-5 27,-8 28,-7 28,-13 28,-13 -7,-18 -26,13 -28,10 -28,8 -25,8 -30,5 -28,5 -28,2 h -31 z"
   id="path78"
   inkscape:connector-curvature="0"
   style="fill:#000000;stroke:none" />
         <path
   d="m 11839,12711 26,-23 28,-13 28,-7 h 30 l 31,2 30,5 31,6 30,5 v -21 l -25,3 -31,-5 -33,-5 -33,-8 h -35 l -34,5 -30,18 -25,30 z"
   id="path80"
   inkscape:connector-curvature="0"
   style="fill:#000000;stroke:none" />
         <path
   d="m 11794,12947 5,-10 2,-58 5,-56 13,-59 20,-53 -12,-8 -23,51 -18,61 -8,66 3,56 7,-10 6,20 7,-2 -2,-8 z"
   id="path82"
   inkscape:connector-curvature="0"
   style="fill:#000000;stroke:none" />
         <path
   d="m 11595,12968 10,10 189,-31 -6,-20 -185,33 10,8 h -18 v 12 l 10,-2 z"
   id="path84"
   inkscape:connector-curvature="0"
   style="fill:#000000;stroke:none" />
         <path
   d="m 10937,13771 229,-84 10,48 -3,51 -7,51 -10,48 -188,145 -13,-13 -15,-15 -18,-20 -15,-18 -16,-20 -12,-21 -11,-20 -5,-18 z"
   id="path86"
   inkscape:connector-curvature="0"
   style="fill:#828207;stroke:none" />
         <path
   d="m 11176,13687 -13,-8 -228,82 5,17 231,-81 -13,-8 18,-2 -3,-13 -10,5 z"
   id="path88"
   inkscape:connector-curvature="0"
   style="fill:#000000;stroke:none" />
         <path
   d="m 11186,13720 v 0 -3 h -2 v 0 l -8,-30 -18,2 8,31 h 20 l -2,-3 z"
   id="path90"
   inkscape:connector-curvature="0"
   style="fill:#000000;stroke:none" />
         <path
   d="m 11186,13748 v -28 h -20 v 28 z"
   id="path92"
   inkscape:connector-curvature="0"
   style="fill:#000000;stroke:none" />
         <path
   d="m 11163,13893 5,-23 5,-46 8,-48 3,-28 h -18 l -18,137 3,-8 12,16 3,-3 v -5 z"
   id="path94"
   inkscape:connector-curvature="0"
   style="fill:#000000;stroke:none" />
         <path
   d="m 10963,14038 h 12 l 188,-145 -12,-16 -188,145 12,3 -12,13 5,7 7,-7 z"
   id="path96"
   inkscape:connector-curvature="0"
   style="fill:#000000;stroke:none" />
         <path
   d="m 10876,13938 3,6 10,10 13,15 15,18 12,15 16,15 10,13 8,8 12,-13 -84,-94 3,2 -18,5 v 6 z"
   id="path98"
   inkscape:connector-curvature="0"
   style="fill:#000000;stroke:none" />
         <path
   d="m 10856,13880 v 8 l 20,50 18,-5 -20,-50 -3,7 -15,-10 -3,5 3,3 z"
   id="path100"
   inkscape:connector-curvature="0"
   style="fill:#000000;stroke:none" />
         <path
   d="m 10935,13761 -6,5 -10,12 -10,18 -13,20 -15,21 -10,20 -10,15 -5,8 15,10 74,-117 -5,5 -5,-17 -3,2 -3,3 z"
   id="path102"
   inkscape:connector-curvature="0"
   style="fill:#000000;stroke:none" />
         <path
   d="m 11387,14147 v -20 l 8,-18 10,-16 12,-15 16,-12 10,-16 10,-18 3,-20 -8,-46 -23,-45 -33,-44 -43,-35 -46,-33 -51,-26 -48,-15 -46,-5 -10,3 -13,5 -15,7 -15,8 -13,10 -13,10 -12,8 -8,8 -5,25 -33,10 -20,23 -21,23 -17,23 -18,25 -18,26 -18,22 -18,23 -20,23 -25,26 -28,25 -28,23 -31,23 -28,23 -30,20 -28,23 -28,23 -38,33 -41,33 -38,33 -38,33 -41,33 -38,35 -41,33 -38,31 -40,33 -41,33 -41,31 -40,30 -41,31 -41,30 -43,28 -43,28 -41,23 -40,18 -44,17 -40,13 -46,13 -43,10 -43,10 -44,13 -43,13 -41,12 -43,16 -40,15 -44,18 -40,17 -41,18 -38,20 -41,21 -38,23 -38,23 -38,25 -36,25 -35,26 -33,28 -33,30 -74,69 -71,68 -71,72 -69,73 -66,74 -69,76 -63,76 -66,77 -64,78 -63,79 -64,79 -61,79 -63,79 -61,76 -64,79 -61,78 -41,51 -33,38 -25,33 -18,31 -15,30 -8,39 -5,50 v 66 l 3,49 5,51 10,45 15,49 16,45 17,46 21,46 23,43 30,48 36,46 40,38 46,36 51,33 53,25 56,26 59,20 58,15 61,13 61,10 61,8 61,5 58,2 h 56 l 54,-2 20,-13 43,-36 64,-55 79,-74 91,-87 102,-99 106,-104 112,-112 115,-109 109,-109 107,-107 96,-97 84,-86 71,-71 54,-53 33,-36 28,-31 25,-30 25,-33 26,-33 23,-33 23,-33 22,-33 21,-36 23,-43 20,-46 20,-45 18,-46 15,-49 16,-45 12,-49 11,-48 12,-66 8,-56 5,-48 8,-43 10,-44 18,-48 25,-51 41,-61 35,-50 38,-49 36,-51 38,-48 41,-51 38,-48 40,-48 39,-49 40,-48 41,-48 41,-46 40,-48 43,-48 41,-46 41,-48 40,-46 26,-28 28,-26 30,-25 28,-25 28,-26 28,-25 28,-31 z"
   id="path104"
   inkscape:connector-curvature="0"
   style="fill:#007f3f;stroke:none" />
         <path
   d="m 10007,14747 38,-26 41,-28 38,-28 38,-28 38,-28 38,-30 36,-28 38,-31 38,-30 38,-31 36,-30 38,-31 35,-30 36,-31 38,-30 36,-31 33,-28 33,-27 33,-31 33,-30 33,-28 36,-28 33,-26 35,-25 -13,-15 -53,43 -53,46 -54,43 -53,45 -53,44 -54,45 -53,44 -54,43 -53,46 -56,43 -53,43 -54,43 -55,41 -56,43 -56,41 -56,40 z"
   id="path106"
   inkscape:connector-curvature="0"
   style="fill:#000000;stroke:none" />
         <path
   d="m 9153,15105 31,-20 30,-18 31,-18 30,-18 31,-18 30,-15 31,-18 33,-15 30,-13 33,-15 31,-13 33,-12 33,-13 33,-10 35,-13 33,-10 44,-13 43,-10 46,-13 45,-12 46,-13 43,-18 41,-18 38,-22 -10,-16 -46,26 -48,20 -49,15 -48,16 -51,12 -50,16 -49,12 -51,15 -30,11 -33,10 -31,13 -30,10 -28,12 -31,13 -27,15 -28,13 -28,15 -28,16 -28,15 -28,15 -28,15 -28,18 -26,18 -28,18 z"
   id="path108"
   inkscape:connector-curvature="0"
   style="fill:#000000;stroke:none" />
         <path
   d="m 7867,16569 -2,5 53,-74 61,-81 71,-92 76,-99 84,-104 87,-107 91,-109 94,-112 94,-107 92,-106 91,-102 89,-94 87,-86 78,-77 74,-66 66,-53 -8,-15 -38,25 -40,31 -38,30 -39,36 -38,35 -38,38 -38,38 -38,41 -36,41 -35,40 -36,41 -35,41 -33,40 -33,39 -33,38 -31,35 -41,46 -40,48 -38,49 -41,45 -38,49 -38,48 -41,48 -38,48 -170,206 -99,127 -59,74 -30,41 -18,23 -10,12 -8,8 -5,8 -3,2 v 3 2 -5 5 0 z"
   id="path110"
   inkscape:connector-curvature="0"
   style="fill:#000000;stroke:none" />
         <path
   d="m 7961,17107 -28,-55 -28,-64 -23,-71 -17,-71 -13,-77 -3,-71 3,-68 15,-61 -18,-3 -15,64 -5,68 5,74 13,76 18,74 22,71 28,66 31,56 z"
   id="path112"
   inkscape:connector-curvature="0"
   style="fill:#000000;stroke:none" />
         <path
   d="m 8299,17362 -53,-26 -51,-23 -46,-23 -43,-25 -41,-31 -35,-33 -36,-43 -33,-51 -15,8 38,56 36,43 35,36 41,28 41,25 45,26 51,22 59,28 z"
   id="path114"
   inkscape:connector-curvature="0"
   style="fill:#000000;stroke:none" />
         <path
   d="m 8790,17425 h 5 -18 -18 l -18,3 h -17 -28 -31 -28 l -25,-3 h -28 l -26,-2 -25,-3 -25,-3 -26,-2 -25,-5 -26,-5 -28,-8 -25,-7 -25,-8 -26,-10 -28,-10 -7,17 22,8 26,10 28,8 33,10 35,8 36,7 36,5 38,8 38,5 35,3 36,2 36,3 33,-3 28,-2 25,-3 23,-8 z"
   id="path116"
   inkscape:connector-curvature="0"
   style="fill:#000000;stroke:none" />
         <path
   d="m 10223,15992 -51,68 -58,72 -61,73 -69,74 -71,76 -74,76 -76,79 -79,76 -79,77 -81,76 -79,76 -76,71 -76,71 -71,67 -69,63 -63,61 -39,33 -38,36 -38,33 -38,35 -41,33 -35,36 -36,36 -35,35 10,15 25,-20 28,-23 26,-23 25,-23 23,-25 25,-25 26,-23 23,-23 53,-51 66,-61 76,-69 84,-78 92,-84 94,-89 96,-94 97,-94 96,-94 92,-94 89,-89 81,-87 71,-78 64,-74 51,-64 35,-53 z"
   id="path118"
   inkscape:connector-curvature="0"
   style="fill:#000000;stroke:none" />
         <path
   d="m 10464,15224 -25,69 -15,89 -10,94 -13,76 -13,59 -18,56 -20,55 -20,56 -26,54 -25,53 -28,53 -28,54 15,10 31,-53 28,-54 28,-53 23,-56 22,-56 18,-58 18,-59 13,-58 12,-82 8,-81 15,-81 28,-76 z"
   id="path120"
   inkscape:connector-curvature="0"
   style="fill:#000000;stroke:none" />
         <path
   d="m 11191,14327 h -2 l -3,3 -5,5 -8,8 -5,7 -17,20 -33,39 -59,71 -109,127 -23,28 -25,28 -23,28 -23,28 -23,28 -23,30 -23,28 -23,28 -38,48 -38,49 -38,48 -38,48 -36,51 -38,48 -35,51 -39,48 18,11 26,-41 28,-41 28,-40 27,-39 31,-40 30,-38 31,-38 30,-39 31,-38 33,-38 31,-38 30,-38 33,-36 31,-38 33,-38 30,-35 28,-36 31,-36 27,-35 31,-38 28,-36 30,-35 31,-34 33,-30 -5,3 -8,-16 h -2 v 0 0 0 z"
   id="path122"
   inkscape:connector-curvature="0"
   style="fill:#000000;stroke:none" />
         <path
   d="m 11379,14144 -15,21 -20,25 -23,25 -28,28 -28,28 -28,23 -25,21 -21,12 8,16 25,-16 26,-20 28,-23 30,-25 26,-28 25,-28 20,-28 16,-23 z"
   id="path124"
   inkscape:connector-curvature="0"
   style="fill:#000000;stroke:none" />
         <path
   d="m 11382,14104 -3,10 v 7 8 l 3,10 -3,5 16,8 2,-10 v -10 -11 l 3,-10 v 3 z"
   id="path126"
   inkscape:connector-curvature="0"
   style="fill:#000000;stroke:none" />
         <path
   d="m 11415,14073 -8,8 -7,7 -11,8 -7,8 18,10 7,-8 8,-7 8,-6 7,-7 z"
   id="path128"
   inkscape:connector-curvature="0"
   style="fill:#000000;stroke:none" />
         <path
   d="m 11346,13855 28,22 23,26 20,23 18,25 8,28 v 28 l -8,33 -20,33 15,13 23,-36 10,-33 v -33 l -10,-33 -18,-30 -23,-31 -28,-25 -28,-26 z"
   id="path130"
   inkscape:connector-curvature="0"
   style="fill:#000000;stroke:none" />
         <path
   d="m 11158,13771 31,5 28,2 23,8 20,8 20,10 21,12 22,18 23,21 10,-16 -22,-20 -21,-15 -23,-18 -23,-13 -25,-10 -25,-5 -28,-5 h -31 z"
   id="path132"
   inkscape:connector-curvature="0"
   style="fill:#000000;stroke:none" />
         <path
   d="m 11064,13829 10,-7 11,-11 12,-7 10,-8 13,-7 13,-8 13,-5 12,-5 v -18 l -15,2 -13,8 -15,5 -13,8 -12,10 -13,8 -13,10 -10,10 z"
   id="path134"
   inkscape:connector-curvature="0"
   style="fill:#000000;stroke:none" />
         <path
   d="m 11059,13855 v -5 l 5,-6 3,-5 v -5 -5 l -3,-5 -5,-5 -2,-5 -11,20 3,5 2,8 3,5 z"
   id="path136"
   inkscape:connector-curvature="0"
   style="fill:#000000;stroke:none" />
         <path
   d="m 11026,13865 h 8 l 10,-3 7,-5 8,-2 -10,-16 -10,3 -10,2 -8,3 -8,5 z"
   id="path138"
   inkscape:connector-curvature="0"
   style="fill:#000000;stroke:none" />
         <path
   d="m 10876,14053 8,-13 15,-23 20,-30 26,-31 25,-30 26,-28 17,-21 13,-12 -13,-13 -17,15 -16,18 -17,18 -16,18 -15,20 -15,20 -15,18 -13,20 -8,11 -5,10 -8,10 -5,10 v -2 l 13,15 v -3 0 0 -2 z"
   id="path140"
   inkscape:connector-curvature="0"
   style="fill:#000000;stroke:none" />
         <path
   d="m 11166,13791 35,-5 44,15 48,28 48,38 41,41 33,41 18,33 -3,23 -10,7 -36,-7 -43,-21 -46,-30 -48,-33 -41,-38 -30,-36 -15,-33 z"
   id="path142"
   inkscape:connector-curvature="0"
   style="fill:#ffffff;stroke:none" />
         <path
   d="m 11158,13786 -7,15 7,23 10,20 11,18 15,18 15,18 18,15 15,15 18,16 13,-16 -16,-12 -15,-16 -18,-12 -12,-16 -16,-15 -10,-18 -10,-17 -5,-21 2,-5 z"
   id="path144"
   inkscape:connector-curvature="0"
   style="fill:#000000;stroke:none" />
         <path
   d="m 11336,13850 -18,-16 -20,-15 -23,-13 -23,-12 -25,-11 -23,-5 h -23 l -23,8 15,10 h 18 l 21,3 20,7 20,10 21,13 20,13 15,13 15,10 z"
   id="path146"
   inkscape:connector-curvature="0"
   style="fill:#000000;stroke:none" />
         <path
   d="m 11438,14012 5,-18 -5,-20 -10,-23 -13,-18 -13,-20 -18,-15 -15,-18 -18,-15 -15,-15 -13,15 16,12 15,16 15,15 15,15 13,18 13,18 10,18 5,17 -2,5 z"
   id="path148"
   inkscape:connector-curvature="0"
   style="fill:#000000;stroke:none" />
         <path
   d="m 11260,13944 15,12 20,15 23,16 28,12 26,13 25,8 h 23 l 18,-8 -15,-13 -3,3 -20,-3 -21,-5 -20,-7 -18,-10 -20,-11 -18,-12 -15,-13 -15,-13 z"
   id="path150"
   inkscape:connector-curvature="0"
   style="fill:#000000;stroke:none" />
         <path
   d="m 10116,14802 h 697 l 137,-165 43,-51 38,-48 38,-43 33,-41 31,-35 30,-36 28,-30 31,-28 30,-26 36,-23 35,-20 39,-20 45,-15 49,-16 55,-15 61,-13 -40,-73 -59,23 -43,17 -35,13 -31,10 -33,5 -38,3 -51,2 h -66 l -51,-178 -10,84 -18,-23 -18,-20 -20,-18 -20,-17 -23,-13 -26,-10 -22,-5 -28,-3 -13,-5 -15,-18 -10,-23 -11,-25 -5,-28 3,-23 7,-15 21,-5 40,-135 -104,178 43,124 -104,-83 -10,40 71,74 -51,43 -50,46 -54,43 -51,41 -53,45 -48,44 -51,45 -46,49 -46,48 -43,51 -43,51 -41,53 -40,53 -38,54 -41,53 z"
   id="path152"
   inkscape:connector-curvature="0"
   style="fill:#ffff00;stroke:none" />
         <path
   d="m 10116,14792 8,16 333,-417 -15,-13 -333,417 7,18 -7,-18 -16,15 23,3 z"
   id="path154"
   inkscape:connector-curvature="0"
   style="fill:#000000;stroke:none" />
         <path
   d="m 10805,14795 8,-3 h -697 v 21 h 697 l 5,-5 -5,5 h 2 l 3,-5 z"
   id="path156"
   inkscape:connector-curvature="0"
   style="fill:#000000;stroke:none" />
         <path
   d="m 11224,14302 -2,2 -417,491 13,13 419,-491 -5,3 -8,-18 -2,2 z"
   id="path158"
   inkscape:connector-curvature="0"
   style="fill:#000000;stroke:none" />
         <path
   d="m 11415,14198 v 0 0 h -3 v 0 l -188,104 8,18 188,-102 h -3 l -2,-20 h -3 z"
   id="path160"
   inkscape:connector-curvature="0"
   style="fill:#000000;stroke:none" />
         <path
   d="m 11562,14180 8,-13 -155,31 2,20 155,-33 8,-13 -8,13 16,-3 -8,-10 z"
   id="path162"
   inkscape:connector-curvature="0"
   style="fill:#000000;stroke:none" />
         <path
   d="m 11534,14114 -12,-5 40,71 18,-8 -41,-73 -10,-3 10,3 v -3 l -2,-3 h -5 l -3,3 z"
   id="path164"
   inkscape:connector-curvature="0"
   style="fill:#000000;stroke:none" />
         <path
   d="m 11344,14187 10,-5 20,-7 28,-13 33,-13 31,-10 30,-12 23,-8 15,-5 -5,-18 -188,71 3,-2 v 22 0 l 2,-2 v 0 0 z"
   id="path166"
   inkscape:connector-curvature="0"
   style="fill:#000000;stroke:none" />
         <path
   d="m 11166,14177 10,10 h 168 v -22 h -168 l 8,10 -18,2 v 3 l 2,5 3,2 h 5 z"
   id="path168"
   inkscape:connector-curvature="0"
   style="fill:#000000;stroke:none" />
         <path
   d="m 11133,13999 -18,3 51,175 18,-2 -51,-178 -18,2 18,-2 -10,-48 -8,50 z"
   id="path170"
   inkscape:connector-curvature="0"
   style="fill:#000000;stroke:none" />
         <path
   d="m 11107,14088 16,-5 10,-84 h -18 l -10,84 15,-5 -13,10 16,16 v -21 z"
   id="path172"
   inkscape:connector-curvature="0"
   style="fill:#000000;stroke:none" />
         <path
   d="m 11016,13997 -3,-3 94,94 13,-10 -96,-99 z"
   id="path174"
   inkscape:connector-curvature="0"
   style="fill:#000000;stroke:none" />
         <path
   d="m 10965,13974 -10,3 61,20 8,-18 -61,-20 -11,2 11,-2 -3,-3 h -3 l -5,3 v 2 z"
   id="path176"
   inkscape:connector-curvature="0"
   style="fill:#000000;stroke:none" />
         <path
   d="m 10886,13921 5,12 5,13 8,10 10,13 10,8 11,5 12,2 16,-5 2,-5 -13,-13 -2,3 h -3 -5 -2 l -13,-10 -8,-13 -7,-13 -8,-15 z"
   id="path178"
   inkscape:connector-curvature="0"
   style="fill:#000000;stroke:none" />
         <path
   d="m 10907,13829 10,-7 -31,15 -10,23 3,28 7,33 18,-8 -5,-18 -3,-15 3,-18 8,-18 10,-2 v 2 l 7,-7 -7,7 h 2 l 3,-2 2,-3 v -2 z"
   id="path180"
   inkscape:connector-curvature="0"
   style="fill:#000000;stroke:none" />
         <path
   d="m 10968,13702 -18,-8 -43,135 17,8 44,-137 -18,-6 18,6 22,-74 -40,68 z"
   id="path182"
   inkscape:connector-curvature="0"
   style="fill:#000000;stroke:none" />
         <path
   d="m 10863,13872 v 8 l 105,-178 -18,-8 -107,176 v 7 -7 5 2 z"
   id="path184"
   inkscape:connector-curvature="0"
   style="fill:#000000;stroke:none" />
         <path
   d="m 10889,14007 15,-10 -41,-125 -20,5 43,125 16,-10 -13,15 25,20 -10,-30 z"
   id="path186"
   inkscape:connector-curvature="0"
   style="fill:#000000;stroke:none" />
         <path
   d="m 10800,13918 -15,5 104,84 13,-15 -105,-82 -15,6 15,-6 -12,-12 -3,18 z"
   id="path188"
   inkscape:connector-curvature="0"
   style="fill:#000000;stroke:none" />
         <path
   d="m 10787,13951 3,8 10,-41 -18,-2 -10,40 2,8 -2,-8 v 5 l 2,3 z"
   id="path190"
   inkscape:connector-curvature="0"
   style="fill:#000000;stroke:none" />
         <path
   d="m 10858,14038 v -13 l -71,-74 -13,13 74,74 v -16 l 10,16 10,-8 -10,-5 z"
   id="path192"
   inkscape:connector-curvature="0"
   style="fill:#000000;stroke:none" />
         <path
   d="m 10457,14391 -3,2 404,-355 -10,-16 -23,21 -23,20 -25,20 -28,23 -28,21 -28,25 -28,23 -28,23 -30,25 -26,23 -28,23 -25,23 -25,23 -23,22 -21,21 -17,20 z"
   id="path194"
   inkscape:connector-curvature="0"
   style="fill:#000000;stroke:none" />
         <path
   d="m 11176,13811 127,-864 51,478 178,-643 -43,531 272,-503 -125,450 394,-491 -239,521 208,-208 -261,430 699,-387 -730,531 615,-114 -531,239 689,-61 -1075,259 v 3 l 2,2 v 3 2 l -2,5 -3,5 -7,3 -6,3 -27,-6 -36,-15 -36,-23 -35,-28 -33,-33 -26,-30 -17,-31 z"
   id="path196"
   inkscape:connector-curvature="0"
   style="fill:#ff7f7f;stroke:none" />
         <path
   d="m 11311,12947 h -18 l -127,864 h 18 l 127,-864 h -18 18 l -8,-73 -10,73 z"
   id="path198"
   inkscape:connector-curvature="0"
   style="fill:#000000;stroke:none" />
         <path
   d="m 11346,13425 h 18 l -53,-478 h -18 l 53,478 18,3 -18,-3 5,53 13,-50 z"
   id="path200"
   inkscape:connector-curvature="0"
   style="fill:#000000;stroke:none" />
         <path
   d="m 11539,12782 -17,-2 -176,645 18,3 175,-646 h -17 17 l 8,-86 -25,84 z"
   id="path202"
   inkscape:connector-curvature="0"
   style="fill:#000000;stroke:none" />
         <path
   d="m 11481,13308 18,5 40,-531 h -17 l -41,531 18,3 -18,-3 -5,46 23,-43 z"
   id="path204"
   inkscape:connector-curvature="0"
   style="fill:#000000;stroke:none" />
         <path
   d="m 11768,12813 -18,-5 -269,500 18,8 269,-501 -18,-5 18,3 20,-74 -38,69 z"
   id="path206"
   inkscape:connector-curvature="0"
   style="fill:#000000;stroke:none" />
         <path
   d="m 11628,13255 16,7 124,-449 -18,-3 -124,447 18,8 -18,-8 -13,44 31,-36 z"
   id="path208"
   inkscape:connector-curvature="0"
   style="fill:#000000;stroke:none" />
         <path
   d="m 12040,12775 -18,-11 -394,491 16,10 394,-488 -16,-10 18,8 28,-64 -46,53 z"
   id="path210"
   inkscape:connector-curvature="0"
   style="fill:#000000;stroke:none" />
         <path
   d="m 11786,13285 13,11 241,-521 -18,-8 -241,521 15,10 -15,-10 -20,51 35,-41 z"
   id="path212"
   inkscape:connector-curvature="0"
   style="fill:#000000;stroke:none" />
         <path
   d="m 12007,13087 -13,-10 -208,208 10,13 208,-208 -12,-11 15,8 41,-68 -54,58 z"
   id="path214"
   inkscape:connector-curvature="0"
   style="fill:#000000;stroke:none" />
         <path
   d="m 11735,13501 10,13 262,-427 -15,-8 -262,427 13,13 -13,-13 -20,31 33,-18 z"
   id="path216"
   inkscape:connector-curvature="0"
   style="fill:#000000;stroke:none" />
         <path
   d="m 12444,13133 -10,-18 -699,386 8,18 699,-386 -11,-15 z"
   id="path218"
   inkscape:connector-curvature="0"
   style="fill:#000000;stroke:none" />
         <path
   d="m 11707,13646 8,18 729,-531 -13,-15 -729,531 8,15 -8,-15 -33,23 41,-8 z"
   id="path220"
   inkscape:connector-curvature="0"
   style="fill:#000000;stroke:none" />
         <path
   d="m 12325,13550 -5,-18 -613,114 3,18 615,-114 -5,-18 5,18 63,-28 -68,10 z"
   id="path222"
   inkscape:connector-curvature="0"
   style="fill:#000000;stroke:none" />
         <path
   d="m 11791,13771 3,18 531,-239 -5,-18 -532,239 3,18 -3,-18 -50,23 53,-5 z"
   id="path224"
   inkscape:connector-curvature="0"
   style="fill:#000000;stroke:none" />
         <path
   d="m 12480,13728 v -18 l -689,61 v 18 l 689,-61 -3,-18 z"
   id="path226"
   inkscape:connector-curvature="0"
   style="fill:#000000;stroke:none" />
         <path
   d="m 11415,13974 -8,13 1073,-259 -3,-18 -1072,259 -8,13 8,-13 -10,2 2,11 z"
   id="path228"
   inkscape:connector-curvature="0"
   style="fill:#000000;stroke:none" />
         <path
   d="m 11354,14005 13,5 12,2 h 13 l 13,-2 10,-18 v -18 l -18,8 v 2 0 3 2 l -8,5 -30,-7 z"
   id="path230"
   inkscape:connector-curvature="0"
   style="fill:#000000;stroke:none" />
         <path
   d="m 11206,13895 16,18 18,18 15,15 18,15 17,13 18,10 23,10 23,11 5,-18 -20,-8 -21,-10 -17,-10 -18,-13 -16,-15 -15,-15 -15,-16 -15,-17 z"
   id="path232"
   inkscape:connector-curvature="0"
   style="fill:#000000;stroke:none" />
         <path
   d="m 11166,13811 5,23 10,23 10,20 15,18 16,-12 -13,-18 -10,-15 -8,-18 -7,-21 z"
   id="path234"
   inkscape:connector-curvature="0"
   style="fill:#000000;stroke:none" />
         <path
   d="m 11229,13885 -17,-15 -16,-18 -12,-18 -8,-23 -178,-635 148,356 -31,-460 z"
   id="path236"
   inkscape:connector-curvature="0"
   style="fill:#bf003f;stroke:none" />
         <path
   d="m 11179,13847 43,43 12,-10 -43,-43 5,2 z"
   id="path238"
   inkscape:connector-curvature="0"
   style="fill:#000000;stroke:none" />
         <path
   d="m 11166,13814 2,5 3,10 5,10 3,8 17,-8 -12,-30 v 2 z"
   id="path240"
   inkscape:connector-curvature="0"
   style="fill:#000000;stroke:none" />
         <path
   d="m 11008,13174 -18,2 176,638 18,-3 -176,-637 -18,5 z"
   id="path242"
   inkscape:connector-curvature="0"
   style="fill:#000000;stroke:none" />
         <path
   d="m 11138,13532 18,-3 -148,-355 -18,5 148,355 18,-2 -18,2 20,54 -2,-56 z"
   id="path244"
   inkscape:connector-curvature="0"
   style="fill:#000000;stroke:none" />
         <path
   d="m 11123,13072 h -18 l 33,460 h 18 l -33,-460 h -18 z"
   id="path246"
   inkscape:connector-curvature="0"
   style="fill:#000000;stroke:none" />
         <path
   d="m 11222,13890 15,-5 -114,-813 h -18 l 114,813 15,-5 -12,10 20,23 -5,-28 z"
   id="path248"
   inkscape:connector-curvature="0"
   style="fill:#000000;stroke:none" />
         <path
   d="m 11943,13219 -40,-5 -41,-18 -43,-25 -38,-33 -33,-36 -26,-40 -12,-41 2,-41 399,-305 176,232 z"
   id="path250"
   inkscape:connector-curvature="0"
   style="fill:#7f3f00;stroke:none" />
         <path
   d="m 11771,13143 17,18 18,15 21,13 22,12 21,8 25,8 23,7 25,5 v -20 h -20 l -23,-5 -23,-10 -20,-10 -23,-13 -18,-13 -20,-15 -15,-13 z"
   id="path252"
   inkscape:connector-curvature="0"
   style="fill:#000000;stroke:none" />
         <path
   d="m 11707,12973 -5,23 v 23 l 5,22 8,23 12,23 13,20 15,21 16,15 10,-13 -20,-25 -21,-33 -15,-33 -5,-31 v -7 l 2,-10 v -8 l -2,5 z"
   id="path254"
   inkscape:connector-curvature="0"
   style="fill:#000000;stroke:none" />
         <path
   d="m 12119,12668 h -15 l -397,305 13,15 396,-305 -12,-2 15,-13 -8,-8 -7,8 z"
   id="path256"
   inkscape:connector-curvature="0"
   style="fill:#000000;stroke:none" />
         <path
   d="m 12292,12914 2,-12 -175,-234 -15,13 175,233 v -15 l 13,15 7,-7 -5,-5 z"
   id="path258"
   inkscape:connector-curvature="0"
   style="fill:#000000;stroke:none" />
         <path
   d="m 11943,13229 v -2 h 3 v 0 h 3 l 343,-313 -13,-15 -343,313 7,-3 v 20 h 3 l 3,-2 z"
   id="path260"
   inkscape:connector-curvature="0"
   style="fill:#000000;stroke:none" />
         <path
   d="m 11954,12729 17,-71 46,-44 64,-12 76,10 74,33 63,51 46,66 18,81 -18,92 -46,56 -63,22 -74,-7 -76,-36 -64,-58 -46,-82 z"
   id="path262"
   inkscape:connector-curvature="0"
   style="fill:#7f3f00;stroke:none" />
         <path
   d="m 11994,12627 -28,36 -15,38 -8,41 3,38 10,38 15,38 23,38 26,33 15,-10 -23,-28 -20,-33 -15,-38 -11,-38 -2,-38 5,-36 13,-33 25,-31 z"
   id="path264"
   inkscape:connector-curvature="0"
   style="fill:#000000;stroke:none" />
         <path
   d="m 12294,12683 -30,-30 -36,-26 -35,-20 -41,-13 -38,-5 -41,3 -41,12 -38,23 13,15 31,-25 35,-10 h 38 l 38,7 36,16 35,20 31,23 28,23 z"
   id="path266"
   inkscape:connector-curvature="0"
   style="fill:#000000;stroke:none" />
         <path
   d="m 12317,12985 28,-35 15,-38 8,-38 -3,-41 -10,-41 -15,-38 -20,-38 -26,-33 -15,13 23,28 18,33 15,35 10,41 3,38 -6,36 -12,35 -26,28 z"
   id="path268"
   inkscape:connector-curvature="0"
   style="fill:#000000;stroke:none" />
         <path
   d="m 12020,12927 30,31 36,25 35,20 39,13 38,8 40,-3 38,-13 41,-23 -13,-15 -30,23 -36,13 h -38 l -38,-8 -36,-15 -35,-20 -31,-23 -25,-23 z"
   id="path270"
   inkscape:connector-curvature="0"
   style="fill:#000000;stroke:none" />
         <path
   d="m 11046,12731 8,-38 20,-25 28,-18 33,-5 33,5 28,15 21,28 7,38 -7,38 -21,28 -28,16 -33,5 -33,-5 -28,-18 -20,-26 z"
   id="path272"
   inkscape:connector-curvature="0"
   style="fill:#00ffff;stroke:none" />
         <path
   d="m 11135,12632 -20,3 -18,7 -15,8 -15,13 -13,15 -8,15 -7,18 -3,20 h 21 v -15 l 2,-15 10,-13 10,-13 13,-7 13,-8 15,-5 15,-2 z"
   id="path274"
   inkscape:connector-curvature="0"
   style="fill:#000000;stroke:none" />
         <path
   d="m 11234,12731 -2,-20 -8,-18 -7,-15 -13,-15 -15,-10 -16,-11 -17,-7 -21,-3 v 21 h 16 l 12,5 16,7 12,10 10,13 8,15 5,13 v 15 z"
   id="path276"
   inkscape:connector-curvature="0"
   style="fill:#000000;stroke:none" />
         <path
   d="m 11135,12830 21,-2 17,-8 16,-10 15,-10 13,-15 7,-16 8,-17 2,-21 h -20 v 16 l -5,15 -8,13 -10,12 -12,10 -16,11 -12,2 h -16 z"
   id="path278"
   inkscape:connector-curvature="0"
   style="fill:#000000;stroke:none" />
         <path
   d="m 11036,12731 3,21 7,17 8,16 13,15 15,13 15,7 18,8 20,2 v -20 l -15,-2 -15,-6 -13,-7 -13,-8 -10,-12 -10,-13 -2,-15 v -16 z"
   id="path280"
   inkscape:connector-curvature="0"
   style="fill:#000000;stroke:none" />
         <path
   d="m 11336,13473 8,-33 15,-25 25,-15 28,-3 28,5 26,13 15,25 8,33 -8,33 -15,23 -26,16 -28,5 -28,-5 -25,-13 -15,-26 z"
   id="path282"
   inkscape:connector-curvature="0"
   style="fill:#ffff00;stroke:none" />
         <path
   d="m 11412,13384 -17,3 -16,5 -15,10 -13,10 -10,13 -7,15 -6,16 -5,17 h 23 l 3,-25 15,-25 23,-16 25,-2 z"
   id="path284"
   inkscape:connector-curvature="0"
   style="fill:#000000;stroke:none" />
         <path
   d="m 11499,13473 -3,-20 -5,-15 -7,-15 -11,-11 -12,-10 -16,-7 -15,-5 -18,-6 v 21 l 26,2 23,16 15,25 2,25 z"
   id="path286"
   inkscape:connector-curvature="0"
   style="fill:#000000;stroke:none" />
         <path
   d="m 11412,13562 18,-5 15,-5 16,-7 12,-11 11,-12 7,-16 5,-15 3,-18 h -21 l -2,26 -15,23 -23,15 -26,2 z"
   id="path288"
   inkscape:connector-curvature="0"
   style="fill:#000000;stroke:none" />
         <path
   d="m 11323,13473 5,21 6,15 7,13 10,12 11,11 15,7 15,5 20,5 v -23 l -25,-2 -23,-15 -15,-23 -3,-26 z"
   id="path290"
   inkscape:connector-curvature="0"
   style="fill:#000000;stroke:none" />
         <path
   d="m 11689,12792 5,-28 16,-17 17,-13 23,-3 23,3 21,13 12,17 5,28 -5,26 -12,18 -21,12 -23,3 -23,-3 -17,-12 -16,-18 z"
   id="path292"
   inkscape:connector-curvature="0"
   style="fill:#ffff66;stroke:none" />
         <path
   d="m 11750,12721 -30,10 -20,13 -13,20 -8,28 h 21 l 2,-20 10,-15 18,-10 20,-5 z"
   id="path294"
   inkscape:connector-curvature="0"
   style="fill:#000000;stroke:none" />
         <path
   d="m 11822,12792 -8,-30 -13,-20 -20,-13 -31,-8 v 21 l 21,2 17,10 11,18 2,20 z"
   id="path296"
   inkscape:connector-curvature="0"
   style="fill:#000000;stroke:none" />
         <path
   d="m 11750,12863 28,-7 21,-13 12,-20 11,-31 h -21 l -2,23 -11,13 -17,10 -21,5 z"
   id="path298"
   inkscape:connector-curvature="0"
   style="fill:#000000;stroke:none" />
         <path
   d="m 11679,12792 8,31 13,20 20,13 30,7 v -20 l -20,-2 -15,-13 -13,-15 -2,-21 z"
   id="path300"
   inkscape:connector-curvature="0"
   style="fill:#000000;stroke:none" />
         <path
   d="m 11616,14114 10,-33 20,-36 28,-35 33,-39 38,-35 43,-36 46,-35 51,-33 48,-33 54,-31 51,-25 48,-26 48,-23 43,-17 38,-13 36,-10 36,-8 35,-7 36,-6 38,-7 38,-8 38,-5 38,-7 38,-11 38,-7 36,-10 38,-11 36,-12 33,-16 33,-15 33,-18 30,-20 33,-25 31,-28 28,-31 25,-33 26,-33 23,-35 22,-36 21,-36 155,87 -41,40 -43,44 -43,48 -46,46 -46,45 -46,44 -45,38 -49,28 -30,12 -36,11 -38,5 -40,2 -41,3 -43,-3 h -46 l -43,-5 -46,-2 -43,-3 -43,-2 h -41 -41 l -38,5 -33,5 -30,10 -16,7 -15,11 -13,10 -15,10 -13,13 -12,10 -13,13 -13,10 -38,38 -38,38 -30,38 -28,43 -23,43 -15,46 -11,51 v 56 z"
   id="path302"
   inkscape:connector-curvature="0"
   style="fill:#ffff00;stroke:none" />
         <path
   d="m 11788,13885 -27,20 -28,23 -28,28 -26,28 -23,31 -20,30 -15,33 -13,33 18,5 15,-33 18,-30 18,-31 20,-25 23,-26 25,-25 26,-23 28,-23 z"
   id="path304"
   inkscape:connector-curvature="0"
   style="fill:#000000;stroke:none" />
         <path
   d="m 12281,13641 -30,3 -28,7 -33,10 -30,11 -34,15 -33,15 -33,15 -33,18 -33,20 -33,21 -30,18 -33,20 -28,20 -28,18 -28,18 -26,15 11,15 23,-15 25,-18 28,-17 30,-18 31,-21 30,-17 33,-21 33,-18 33,-17 34,-18 33,-15 33,-16 30,-10 31,-10 28,-8 27,-2 z"
   id="path306"
   inkscape:connector-curvature="0"
   style="fill:#000000;stroke:none" />
         <path
   d="m 12719,13529 -28,10 -26,8 -28,8 -25,7 -28,11 -28,7 -25,8 -28,5 -28,7 -26,8 -28,5 -28,8 -28,5 -28,5 -28,5 -28,5 v 18 l 28,-5 31,-3 28,-5 28,-7 28,-6 28,-5 25,-7 28,-8 28,-7 28,-8 28,-8 25,-7 28,-10 28,-8 28,-8 28,-10 z"
   id="path308"
   inkscape:connector-curvature="0"
   style="fill:#000000;stroke:none" />
         <path
   d="m 13036,13219 -12,5 -21,46 -28,46 -35,48 -41,43 -43,41 -46,36 -46,25 -45,20 7,18 51,-23 48,-30 46,-33 43,-41 38,-43 36,-46 28,-48 25,-51 -12,5 7,-18 -7,-5 -5,10 z"
   id="path310"
   inkscape:connector-curvature="0"
   style="fill:#000000;stroke:none" />
         <path
   d="m 13194,13323 -3,-15 -155,-89 -7,18 155,89 -3,-15 13,12 10,-7 -13,-8 z"
   id="path312"
   inkscape:connector-curvature="0"
   style="fill:#000000;stroke:none" />
         <path
   d="m 12815,13664 33,-15 48,-36 56,-46 59,-55 58,-56 54,-54 43,-46 28,-33 -13,-12 -43,40 -43,46 -43,48 -44,49 -45,45 -49,41 -51,38 -53,28 z"
   id="path314"
   inkscape:connector-curvature="0"
   style="fill:#000000;stroke:none" />
         <path
   d="m 12571,13687 h 33 31 30 l 28,-3 31,-2 30,-5 31,-5 30,-8 -5,-18 -30,5 -31,5 -28,3 -30,2 -28,3 -31,3 h -30 -31 z"
   id="path316"
   inkscape:connector-curvature="0"
   style="fill:#000000;stroke:none" />
         <path
   d="m 12312,13687 30,-5 34,-3 h 33 l 33,3 h 33 l 33,2 30,3 h 33 v -20 h -33 -30 l -33,-3 h -33 -31 -33 -33 l -33,3 z"
   id="path318"
   inkscape:connector-curvature="0"
   style="fill:#000000;stroke:none" />
         <path
   d="m 12119,13755 28,-25 23,-15 20,-13 18,-8 18,-2 22,-3 h 28 l 36,-2 v -20 l -36,5 -28,2 h -22 l -21,3 -20,5 -20,12 -26,18 -30,28 z"
   id="path320"
   inkscape:connector-curvature="0"
   style="fill:#000000;stroke:none" />
         <path
   d="m 11936,13982 15,-33 20,-31 21,-30 23,-28 25,-28 25,-26 26,-25 28,-26 -10,-15 -23,21 -28,25 -28,30 -31,34 -28,33 -22,30 -18,33 -13,28 z"
   id="path322"
   inkscape:connector-curvature="0"
   style="fill:#000000;stroke:none" />
         <path
   d="m 11905,14132 13,-8 -2,-33 5,-38 5,-38 10,-33 -18,-8 -10,36 -5,38 -5,38 -3,38 10,-10 v 18 l 13,2 v -10 z"
   id="path324"
   inkscape:connector-curvature="0"
   style="fill:#000000;stroke:none" />
         <path
   d="m 11608,14111 8,10 289,11 v -18 l -289,-10 10,12 -18,-5 -5,10 h 13 z"
   id="path326"
   inkscape:connector-curvature="0"
   style="fill:#000000;stroke:none" />
         <path
   d="m 11511,14005 8,-44 23,-30 33,-21 38,-5 36,5 33,21 23,30 7,44 -7,43 -23,30 -33,18 -36,5 -38,-5 -33,-18 -23,-30 z"
   id="path328"
   inkscape:connector-curvature="0"
   style="fill:#0000ff;stroke:none" />
         <path
   d="m 11611,13893 -21,2 -20,8 -20,10 -16,13 -12,18 -13,17 -5,21 -3,23 h 21 v -18 l 5,-16 10,-15 10,-15 15,-13 16,-10 17,-5 h 16 z"
   id="path330"
   inkscape:connector-curvature="0"
   style="fill:#000000;stroke:none" />
         <path
   d="m 11722,14005 -2,-23 -8,-21 -10,-17 -15,-18 -15,-13 -18,-10 -21,-8 -22,-2 v 20 h 17 l 16,5 17,10 16,10 10,16 10,15 5,18 v 18 z"
   id="path332"
   inkscape:connector-curvature="0"
   style="fill:#000000;stroke:none" />
         <path
   d="m 11611,14114 22,-3 21,-7 18,-11 17,-12 13,-15 10,-18 8,-21 2,-22 h -20 v 15 l -5,18 -10,15 -13,15 -15,10 -15,10 -18,5 h -15 z"
   id="path334"
   inkscape:connector-curvature="0"
   style="fill:#000000;stroke:none" />
         <path
   d="m 11501,14005 3,22 7,21 11,18 12,15 18,12 18,11 20,7 21,3 v -21 h -16 l -17,-5 -16,-10 -15,-10 -10,-15 -10,-15 -5,-18 v -15 z"
   id="path336"
   inkscape:connector-curvature="0"
   style="fill:#000000;stroke:none" />
         <path
   d="m 11323,12312 -83,13 -74,10 -61,10 -48,18 -39,30 -28,49 -15,68 -5,97 13,99 38,79 53,63 64,51 63,46 64,43 51,48 33,56 7,21 6,22 2,23 3,23 v 46 l -5,46 -8,45 -18,44 -33,38 -51,38 -63,38 -66,33 -69,30 -56,23 -43,18 -18,13 33,13 33,10 31,12 33,13 33,13 33,10 30,13 33,10 46,-10 53,-51 56,-81 49,-102 30,-114 8,-115 -28,-107 -69,-88 -35,-31 -41,-33 -41,-38 -40,-41 -36,-40 -30,-46 -18,-46 -8,-46 3,-68 12,-61 16,-54 25,-45 33,-41 41,-41 45,-38 z"
   id="path338"
   inkscape:connector-curvature="0"
   style="fill:#02c100;stroke:none" />
         <path
   d="m 11323,13567 -12,18 -13,18 -15,15 -16,15 -17,13 -18,13 -18,10 -20,10 5,18 20,-10 21,-13 20,-13 20,-15 18,-15 15,-18 15,-18 13,-20 z"
   id="path340"
   inkscape:connector-curvature="0"
   style="fill:#000000;stroke:none" />
         <path
   d="m 11428,13313 -3,33 -5,33 -13,33 -12,33 -16,33 -17,31 -21,30 -18,28 18,8 21,-30 17,-31 18,-30 15,-33 13,-34 10,-33 8,-35 5,-36 z"
   id="path342"
   inkscape:connector-curvature="0"
   style="fill:#000000;stroke:none" />
         <path
   d="m 11374,13077 26,51 17,63 11,64 v 58 h 20 l -5,-66 -8,-61 -15,-61 -25,-58 z"
   id="path344"
   inkscape:connector-curvature="0"
   style="fill:#000000;stroke:none" />
         <path
   d="m 11242,12942 15,18 18,18 18,15 20,15 18,16 15,15 16,18 12,20 21,-10 -13,-21 -18,-17 -18,-16 -18,-15 -20,-15 -18,-15 -17,-18 -16,-18 z"
   id="path346"
   inkscape:connector-curvature="0"
   style="fill:#000000;stroke:none" />
         <path
   d="m 11082,12698 5,44 13,38 18,30 20,26 25,25 26,23 25,28 28,30 15,-10 -25,-28 -26,-28 -25,-23 -25,-25 -21,-28 -17,-28 -11,-33 -2,-41 z"
   id="path348"
   inkscape:connector-curvature="0"
   style="fill:#000000;stroke:none" />
         <path
   d="m 11181,12411 -25,28 -21,33 -15,36 -13,38 -10,38 -7,41 -5,38 -3,35 h 23 v -35 l 2,-38 5,-36 11,-38 12,-36 16,-33 20,-30 20,-28 z"
   id="path350"
   inkscape:connector-curvature="0"
   style="fill:#000000;stroke:none" />
         <path
   d="m 11323,12320 -5,-16 -17,13 -18,10 -18,13 -18,13 -18,12 -17,16 -16,15 -15,15 10,13 15,-15 18,-13 16,-15 17,-13 18,-15 18,-10 18,-13 17,-10 -7,-18 7,18 44,-26 -51,8 z"
   id="path352"
   inkscape:connector-curvature="0"
   style="fill:#000000;stroke:none" />
         <path
   d="m 11046,12370 -5,3 282,-53 -2,-18 -287,56 z"
   id="path354"
   inkscape:connector-curvature="0"
   style="fill:#000000;stroke:none" />
         <path
   d="m 10988,12510 5,-35 15,-38 18,-39 20,-28 -12,-12 -23,28 -21,40 -12,46 -8,38 z"
   id="path356"
   inkscape:connector-curvature="0"
   style="fill:#000000;stroke:none" />
         <path
   d="m 11018,12757 -25,-61 -13,-59 v -63 l 8,-64 h -18 l -7,69 v 61 l 10,61 28,63 z"
   id="path358"
   inkscape:connector-curvature="0"
   style="fill:#000000;stroke:none" />
         <path
   d="m 11204,12940 -25,-21 -26,-20 -25,-20 -26,-23 -25,-20 -20,-23 -21,-28 -18,-28 -17,7 20,31 23,28 20,23 26,23 22,20 26,20 25,23 28,23 z"
   id="path360"
   inkscape:connector-curvature="0"
   style="fill:#000000;stroke:none" />
         <path
   d="m 11341,13046 -15,-20 -15,-15 -16,-13 -17,-10 -18,-10 -20,-10 -18,-13 -18,-15 -13,15 18,13 18,12 18,11 17,10 18,10 18,13 13,15 12,18 z"
   id="path362"
   inkscape:connector-curvature="0"
   style="fill:#000000;stroke:none" />
         <path
   d="m 11364,13313 10,-66 v -68 l -10,-69 -23,-64 -18,11 23,58 10,66 v 66 l -10,64 z"
   id="path364"
   inkscape:connector-curvature="0"
   style="fill:#000000;stroke:none" />
         <path
   d="m 11212,13478 30,-12 25,-15 23,-18 18,-18 18,-20 15,-23 13,-28 10,-31 -18,-2 -12,30 -13,26 -13,20 -15,15 -18,15 -20,13 -23,13 -28,15 z"
   id="path366"
   inkscape:connector-curvature="0"
   style="fill:#000000;stroke:none" />
         <path
   d="m 10940,13583 v 20 l 2,-3 33,-15 33,-15 36,-15 33,-16 33,-15 36,-15 33,-15 33,-16 -8,-20 -33,18 -33,15 -36,15 -33,13 -33,15 -35,16 -33,15 -33,18 v 20 -20 l -26,10 26,10 z"
   id="path368"
   inkscape:connector-curvature="0"
   style="fill:#000000;stroke:none" />
         <path
   d="m 11194,13679 h 5 l -259,-96 -5,20 264,94 h -5 v 0 h 2 3 v 0 z"
   id="path370"
   inkscape:connector-curvature="0"
   style="fill:#000000;stroke:none" />
         <path
   d="m 12010,13115 55,-36 51,-25 49,-15 45,-8 44,3 40,7 38,13 36,18 33,18 30,20 31,23 25,18 26,17 23,16 20,10 20,2 46,-5 41,-12 35,-21 31,-25 25,-33 21,-36 17,-40 10,-44 82,166 -38,12 -38,18 -33,15 -36,16 -36,15 -38,13 -40,7 -44,3 -45,-5 -36,-16 -30,-17 -28,-23 -31,-23 -38,-21 -43,-12 -59,-5 -48,5 -43,15 -41,20 -35,31 -36,33 -30,38 -26,38 -23,41 z"
   id="path372"
   inkscape:connector-curvature="0"
   style="fill:#ff00ff;stroke:none" />
         <path
   d="m 12187,13031 -25,3 -23,5 -25,7 -23,11 -23,10 -23,12 -20,13 -21,15 11,16 12,-13 21,-10 23,-13 25,-13 25,-7 26,-8 23,-5 17,-2 z"
   id="path374"
   inkscape:connector-curvature="0"
   style="fill:#000000;stroke:none" />
         <path
   d="m 12365,13052 -23,-6 -22,-5 -23,-5 -21,-2 h -20 l -23,-3 h -23 -23 v 21 h 23 l 23,2 h 23 20 l 21,3 20,5 23,2 23,8 z"
   id="path376"
   inkscape:connector-curvature="0"
   style="fill:#000000;stroke:none" />
         <path
   d="m 12551,13186 -20,-5 -18,-10 -18,-20 -18,-21 -23,-25 -23,-20 -30,-21 -36,-12 -2,20 33,13 28,20 20,20 20,23 21,20 20,18 20,15 26,6 z"
   id="path378"
   inkscape:connector-curvature="0"
   style="fill:#000000;stroke:none" />
         <path
   d="m 12724,13128 -18,15 -20,13 -21,10 -23,10 -23,5 -22,5 -23,3 -23,-3 v 21 l 28,-3 25,-3 23,-2 23,-5 20,-10 21,-10 23,-13 20,-18 z"
   id="path380"
   inkscape:connector-curvature="0"
   style="fill:#000000;stroke:none" />
         <path
   d="m 12810,12975 -18,5 v 16 l -5,17 -7,21 -11,23 -12,22 -13,21 -10,15 -10,13 10,15 18,-18 12,-18 13,-20 10,-20 8,-21 5,-22 5,-21 5,-23 -18,3 18,-8 -15,-33 -3,38 z"
   id="path382"
   inkscape:connector-curvature="0"
   style="fill:#000000;stroke:none" />
         <path
   d="m 12889,13156 5,-16 -84,-165 -18,8 84,168 3,-13 10,18 10,-5 -5,-11 z"
   id="path384"
   inkscape:connector-curvature="0"
   style="fill:#000000;stroke:none" />
         <path
   d="m 12658,13247 30,-7 31,-11 30,-10 28,-15 28,-13 25,-12 31,-13 28,-10 -10,-18 -28,8 -26,12 -28,13 -28,13 -25,12 -28,13 -30,13 -28,7 z"
   id="path386"
   inkscape:connector-curvature="0"
   style="fill:#000000;stroke:none" />
         <path
   d="m 12464,13214 23,15 23,11 23,7 25,5 h 23 26 l 25,-2 26,-3 v -18 l -28,3 -26,3 h -20 l -20,-3 -23,-3 -21,-7 -20,-10 -25,-13 z"
   id="path388"
   inkscape:connector-curvature="0"
   style="fill:#000000;stroke:none" />
         <path
   d="m 12322,13135 h 20 l 21,5 18,11 17,12 16,13 17,15 16,13 17,10 11,-15 -21,-15 -17,-16 -16,-12 -15,-13 -18,-10 -18,-10 -22,-5 -26,-3 z"
   id="path390"
   inkscape:connector-curvature="0"
   style="fill:#000000;stroke:none" />
         <path
   d="m 12139,13174 26,-16 22,-10 21,-8 20,-2 20,-3 h 21 25 28 v -20 h -25 -26 l -25,3 -26,2 -22,5 -23,8 -23,10 -23,15 z"
   id="path392"
   inkscape:connector-curvature="0"
   style="fill:#000000;stroke:none" />
         <path
   d="m 11979,13344 18,5 13,-23 15,-23 18,-25 17,-26 21,-23 20,-20 20,-20 18,-15 -10,-16 -18,16 -20,20 -23,23 -20,25 -23,26 -18,25 -15,25 -13,21 18,5 h -18 l -2,43 20,-38 z"
   id="path394"
   inkscape:connector-curvature="0"
   style="fill:#000000;stroke:none" />
         <path
   d="m 12004,13107 -7,36 -8,76 -5,79 -5,46 h 18 l 23,-229 -5,8 -11,-16 -2,3 v 5 z"
   id="path396"
   inkscape:connector-curvature="0"
   style="fill:#000000;stroke:none" />
         <path
   d="m 12337,12924 5,-20 11,-15 15,-10 20,-3 18,3 15,10 10,15 6,20 -6,23 -10,16 -15,7 -18,3 -20,-3 -15,-7 -11,-16 z"
   id="path398"
   inkscape:connector-curvature="0"
   style="fill:#00ffff;stroke:none" />
         <path
   d="m 12388,12866 -23,8 -17,10 -13,18 -8,22 h 23 l 3,-7 v -8 l 2,-7 5,-5 5,-6 8,-2 8,-3 h 7 z"
   id="path400"
   inkscape:connector-curvature="0"
   style="fill:#000000;stroke:none" />
         <path
   d="m 12447,12924 -5,-22 -13,-18 -18,-10 -23,-8 v 20 h 8 l 7,3 8,2 5,6 3,5 2,7 3,8 2,7 z"
   id="path402"
   inkscape:connector-curvature="0"
   style="fill:#000000;stroke:none" />
         <path
   d="m 12388,12985 23,-5 18,-15 10,-18 8,-23 h -21 l -2,8 -3,8 -2,7 -3,8 -5,3 -8,5 -7,2 h -8 z"
   id="path404"
   inkscape:connector-curvature="0"
   style="fill:#000000;stroke:none" />
         <path
   d="m 12327,12924 8,23 13,18 17,15 23,5 v -20 h -7 l -8,-2 -8,-5 -5,-3 -5,-8 -2,-7 v -8 l -3,-8 z"
   id="path406"
   inkscape:connector-curvature="0"
   style="fill:#000000;stroke:none" />
         <path
   d="m 11532,13656 h 81 v 82 h -81 z"
   id="path408"
   inkscape:connector-curvature="0"
   style="fill:#02c100;stroke:none" />
         <path
   d="m 11623,13656 -10,-10 h -81 v 21 h 81 l -10,-11 h 20 v -10 h -10 z"
   id="path410"
   inkscape:connector-curvature="0"
   style="fill:#000000;stroke:none" />
         <path
   d="m 11613,13748 10,-10 v -82 h -20 v 82 l 10,-10 v 20 h 10 v -10 z"
   id="path412"
   inkscape:connector-curvature="0"
   style="fill:#000000;stroke:none" />
         <path
   d="m 11522,13738 10,10 h 81 v -20 h -81 l 10,10 h -20 v 10 h 10 z"
   id="path414"
   inkscape:connector-curvature="0"
   style="fill:#000000;stroke:none" />
         <path
   d="m 11532,13646 -10,10 v 82 h 20 v -82 l -10,11 v -21 h -10 v 10 z"
   id="path416"
   inkscape:connector-curvature="0"
   style="fill:#000000;stroke:none" />
         <path
   d="m 10896,13082 h 61 v 74 h -61 z"
   id="path418"
   inkscape:connector-curvature="0"
   style="fill:#bf003f;stroke:none" />
         <path
   d="m 10968,13082 -11,-10 h -61 v 20 h 61 l -10,-10 h 21 v -10 h -11 z"
   id="path420"
   inkscape:connector-curvature="0"
   style="fill:#000000;stroke:none" />
         <path
   d="m 10957,13166 11,-10 v -74 h -21 v 74 l 10,-10 v 20 h 11 v -10 z"
   id="path422"
   inkscape:connector-curvature="0"
   style="fill:#000000;stroke:none" />
         <path
   d="m 10884,13156 12,10 h 61 v -20 h -61 l 11,10 h -23 v 10 h 12 z"
   id="path424"
   inkscape:connector-curvature="0"
   style="fill:#000000;stroke:none" />
         <path
   d="m 10896,13072 -12,10 v 74 h 23 v -74 l -11,10 v -20 h -12 v 10 z"
   id="path426"
   inkscape:connector-curvature="0"
   style="fill:#000000;stroke:none" />
         <path
   d="m 11822,12228 h 83 v 84 h -83 z"
   id="path428"
   inkscape:connector-curvature="0"
   style="fill:#bf003f;stroke:none" />
         <path
   d="m 11918,12228 -13,-10 h -83 v 23 h 83 l -10,-13 h 23 v -10 h -13 z"
   id="path430"
   inkscape:connector-curvature="0"
   style="fill:#000000;stroke:none" />
         <path
   d="m 11905,12322 13,-10 v -84 h -23 v 84 l 10,-10 v 20 h 13 v -10 z"
   id="path432"
   inkscape:connector-curvature="0"
   style="fill:#000000;stroke:none" />
         <path
   d="m 11811,12312 11,10 h 83 v -20 h -83 l 10,10 h -21 v 10 h 11 z"
   id="path434"
   inkscape:connector-curvature="0"
   style="fill:#000000;stroke:none" />
         <path
   d="m 11822,12218 -11,10 v 84 h 21 v -84 l -10,13 v -23 h -11 v 10 z"
   id="path436"
   inkscape:connector-curvature="0"
   style="fill:#000000;stroke:none" />
         <path
   d="m 11428,12614 h 71 v 51 h -71 z"
   id="path438"
   inkscape:connector-curvature="0"
   style="fill:#02c100;stroke:none" />
         <path
   d="m 11511,12614 -12,-12 h -71 v 23 h 71 l -10,-11 h 22 v -12 h -12 z"
   id="path440"
   inkscape:connector-curvature="0"
   style="fill:#000000;stroke:none" />
         <path
   d="m 11499,12675 12,-10 v -51 h -22 v 51 l 10,-10 v 20 h 12 v -10 z"
   id="path442"
   inkscape:connector-curvature="0"
   style="fill:#000000;stroke:none" />
         <path
   d="m 11415,12665 13,10 h 71 v -20 h -71 l 10,10 h -23 v 10 h 13 z"
   id="path444"
   inkscape:connector-curvature="0"
   style="fill:#000000;stroke:none" />
         <path
   d="m 11428,12602 -13,12 v 51 h 23 v -51 l -10,11 v -23 h -13 v 12 z"
   id="path446"
   inkscape:connector-curvature="0"
   style="fill:#000000;stroke:none" />
         <path
   d="m 12500,13468 h 61 v 64 h -61 z"
   id="path448"
   inkscape:connector-curvature="0"
   style="fill:#3f00bf;stroke:none" />
         <path
   d="m 12571,13468 -10,-10 h -61 v 20 h 61 l -10,-10 h 20 v -10 h -10 z"
   id="path450"
   inkscape:connector-curvature="0"
   style="fill:#000000;stroke:none" />
         <path
   d="m 12561,13542 10,-10 v -64 h -20 v 64 l 10,-10 v 20 h 10 v -10 z"
   id="path452"
   inkscape:connector-curvature="0"
   style="fill:#000000;stroke:none" />
         <path
   d="m 12487,13532 13,10 h 61 v -20 h -61 l 10,10 h -23 v 10 h 13 z"
   id="path454"
   inkscape:connector-curvature="0"
   style="fill:#000000;stroke:none" />
         <path
   d="m 12500,13458 -13,10 v 64 h 23 v -64 l -10,10 v -20 h -13 v 10 z"
   id="path456"
   inkscape:connector-curvature="0"
   style="fill:#000000;stroke:none" />
         <path
   d="m 10375,15349 -7,43 -5,43 -5,43 -5,44 -13,63 -15,64 -18,63 -23,61 -25,59 -28,61 -33,56 -33,56 -41,58 -48,53 -49,54 -53,51 -53,50 -54,49 -53,50 -51,49 -58,61 -61,61 -59,61 -61,58 -58,61 -61,61 -59,61 -61,59 -61,61 -61,61 -61,58 -61,58 -61,59 -63,58 -61,59 -64,56 h -33 -30 l -31,2 h -28 -30 l -28,-2 -28,-3 -26,-2 -28,-3 -28,-8 -25,-7 -28,-8 -28,-10 -28,-15 -28,-15 -28,-18 -28,-21 v 0 l 13,-7 28,-18 28,-20 25,-18 28,-20 26,-18 28,-21 25,-17 28,-21 59,-40 58,-41 61,-43 64,-43 63,-44 66,-45 66,-49 66,-45 69,-51 66,-48 69,-51 68,-54 66,-50 66,-54 69,-56 66,-56 64,-56 63,-55 64,-59 58,-58 61,-59 56,-61 56,-61 53,-61 51,-63 48,-61 44,-64 43,-63 38,-66 35,-64 34,-66 z"
   id="path458"
   inkscape:connector-curvature="0"
   style="fill:#003f3f;stroke:none" />
         <path
   d="m 10449,15184 310,-384 h -94 z"
   id="path460"
   inkscape:connector-curvature="0"
   style="fill:#003f3f;stroke:none" />
         <path
   d="m 9750,14891 -30,3 -31,5 -35,8 -36,12 -38,16 -38,15 -38,20 -38,21 -38,22 -36,23 -36,26 -33,23 -28,25 -25,25 -23,26 -18,23 209,-10 43,-51 33,-41 30,-36 28,-30 33,-31 36,-27 48,-31 z"
   id="path462"
   inkscape:connector-curvature="0"
   style="fill:#7fff7f;stroke:none" />
         <path
   d="m 10614,14757 532,-478 33,-25 35,-21 38,-15 41,-13 41,-10 40,-10 41,-10 41,-13 -49,18 -51,20 -45,28 -46,31 -46,33 -46,38 -43,38 -40,43 -41,43 -41,44 -38,45 -38,46 -38,43 -36,43 -35,44 -33,38 z"
   id="path464"
   inkscape:connector-curvature="0"
   style="fill:#828207;stroke:none" />
         <path
   d="m 7918,16670 -10,-94 188,-198 -20,38 -21,36 -23,38 -23,35 -22,39 -23,35 -23,36 z"
   id="path466"
   inkscape:connector-curvature="0"
   style="fill:#7fff7f;stroke:none" />
         <path
   d="m 11417,14083 -28,-2 -25,-3 -20,-7 -21,-8 -17,-10 -21,-13 -20,-13 -23,-15 13,13 15,15 18,13 20,13 20,12 21,13 18,8 17,5 z"
   id="path468"
   inkscape:connector-curvature="0"
   style="fill:#3f7f7f;stroke:none" />
         <path
   d="m 11336,14078 10,3 10,2 8,3 h 10 l 10,2 11,3 h 10 l 10,2 h 2 v -20 h -2 -3 -2 -3 l -63,-13 z"
   id="path470"
   inkscape:connector-curvature="0"
   style="fill:#000000;stroke:none" />
         <path
   d="m 11283,14053 12,7 13,8 15,5 13,5 8,-18 -13,-5 -13,-5 -12,-5 -11,-7 z"
   id="path472"
   inkscape:connector-curvature="0"
   style="fill:#000000;stroke:none" />
         <path
   d="m 11247,14005 -10,17 v -2 l 10,7 13,8 13,8 10,10 12,-15 -12,-11 -13,-7 -13,-8 -12,-7 -11,15 11,-15 -72,-36 61,51 z"
   id="path474"
   inkscape:connector-curvature="0"
   style="fill:#000000;stroke:none" />
         <path
   d="m 11354,14081 -15,-8 -16,-7 -12,-11 -13,-10 -13,-10 -12,-10 -13,-10 -13,-10 -13,15 8,10 13,10 15,13 18,13 18,10 15,10 15,7 10,6 z"
   id="path476"
   inkscape:connector-curvature="0"
   style="fill:#000000;stroke:none" />
         <path
   d="m 11379,14093 16,11 -8,-8 -10,-8 -13,-2 -10,-5 -8,18 36,12 -8,-7 15,7 -15,-7 v 17 l 15,-10 z"
   id="path478"
   inkscape:connector-curvature="0"
   style="fill:#000000;stroke:none" />
         <path
   d="m 11417,14093 -5,-20 -33,20 10,18 34,-18 -6,-20 6,20 30,-17 -36,-3 z"
   id="path480"
   inkscape:connector-curvature="0"
   style="fill:#000000;stroke:none" />
         <path
   d="m 11057,13839 v 3 l 7,18 10,20 13,18 15,18 16,17 17,18 16,15 15,13 -18,-8 -13,-5 -15,-7 -10,-5 -10,-5 -8,-3 -7,-5 -6,-5 -10,-13 -12,-15 -16,-20 -20,-31 z"
   id="path482"
   inkscape:connector-curvature="0"
   style="fill:#3f7f7f;stroke:none" />
         <path
   d="m 11110,13910 -13,-17 -12,-18 -11,-20 -10,-18 -18,7 3,3 8,18 12,20 13,20 13,16 z"
   id="path484"
   inkscape:connector-curvature="0"
   style="fill:#000000;stroke:none" />
         <path
   d="m 11166,13989 7,-15 -15,-13 -20,-20 -18,-18 -10,-13 -15,11 15,15 23,23 20,20 10,10 8,-18 -5,18 48,23 -41,-38 z"
   id="path486"
   inkscape:connector-curvature="0"
   style="fill:#000000;stroke:none" />
         <path
   d="m 11067,13938 10,8 13,8 10,7 12,5 13,8 15,5 13,5 13,5 5,-18 -10,-5 -13,-5 -10,-5 -13,-5 -10,-5 -13,-8 -10,-5 -10,-7 z"
   id="path488"
   inkscape:connector-curvature="0"
   style="fill:#000000;stroke:none" />
         <path
   d="m 11016,13850 -3,12 11,18 17,23 16,20 10,15 15,-12 -10,-13 -18,-25 -18,-23 -7,-10 -3,12 -10,-17 -10,5 7,7 z"
   id="path490"
   inkscape:connector-curvature="0"
   style="fill:#000000;stroke:none" />
         <path
   d="m 11064,13837 -13,-5 -35,18 10,17 33,-17 -13,-6 18,-7 -5,-10 -8,5 z"
   id="path492"
   inkscape:connector-curvature="0"
   style="fill:#000000;stroke:none" />
         <path
   d="m 10950,13992 -28,23 -28,23 -28,25 -31,23 -27,23 -31,25 -28,23 -30,23 -31,25 -28,26 -28,23 -30,25 -28,23 -26,25 -28,26 -25,25 -33,33 -33,38 -33,41 -31,38 -30,43 -31,41 -30,38 -31,38 49,-41 45,-40 46,-41 46,-41 46,-43 45,-43 46,-43 43,-43 46,-44 43,-45 43,-43 44,-46 40,-46 43,-46 41,-45 z"
   id="path494"
   inkscape:connector-curvature="0"
   style="fill:#ffff7f;stroke:none" />
        </g>
       </g>
      </g>
     </g>
    </g>
   </g>
  </g>
 </g>
</svg>