<?xml version="1.0" encoding="UTF-8" standalone="no"?>
<svg
   xmlns:ooo="http://xml.openoffice.org/svg/export"
   xmlns:dc="http://purl.org/dc/elements/1.1/"
   xmlns:cc="http://creativecommons.org/ns#"
   xmlns:rdf="http://www.w3.org/1999/02/22-rdf-syntax-ns#"
   xmlns:svg="http://www.w3.org/2000/svg"
   xmlns="http://www.w3.org/2000/svg"
   xmlns:sodipodi="http://sodipodi.sourceforge.net/DTD/sodipodi-0.dtd"
   xmlns:inkscape="http://www.inkscape.org/namespaces/inkscape"
   version="1.2"
   width="9.6000004mm"
   height="14.58mm"
   viewBox="0 0 960.00004 1458"
   preserveAspectRatio="xMidYMid"
   xml:space="preserve"
   id="svg90"
   sodipodi:docname="cheries4.svg"
   style="fill-rule:evenodd;stroke-width:28.22200012;stroke-linejoin:round"
   inkscape:version="0.92.5 (2060ec1f9f, 2020-04-08)"><metadata
   id="metadata94"><rdf:RDF><cc:Work
       rdf:about=""><dc:format>image/svg+xml</dc:format><dc:type
         rdf:resource="http://purl.org/dc/dcmitype/StillImage" /></cc:Work></rdf:RDF></metadata><sodipodi:namedview
   pagecolor="#ffffff"
   bordercolor="#666666"
   borderopacity="1"
   objecttolerance="10"
   gridtolerance="10"
   guidetolerance="10"
   inkscape:pageopacity="0"
   inkscape:pageshadow="2"
   inkscape:window-width="664"
   inkscape:window-height="487"
   id="namedview92"
   showgrid="false"
   inkscape:zoom="0.2102413"
   inkscape:cx="18.141733"
   inkscape:cy="27.552754"
   inkscape:window-x="0"
   inkscape:window-y="0"
   inkscape:window-maximized="0"
   inkscape:current-layer="svg90" />
 <defs
   class="ClipPathGroup"
   id="defs8">
  <clipPath
   id="presentation_clip_path"
   clipPathUnits="userSpaceOnUse">
   <rect
   x="0"
   y="0"
   width="21000"
   height="29700"
   id="rect2" />
  </clipPath>
  <clipPath
   id="presentation_clip_path_shrink"
   clipPathUnits="userSpaceOnUse">
   <rect
   x="21"
   y="29"
   width="20958"
   height="29641"
   id="rect5" />
  </clipPath>
 </defs>
 <defs
   class="TextShapeIndex"
   id="defs12">
  <g
   ooo:slide="id1"
   ooo:id-list="id3"
   id="g10" />
 </defs>
 <defs
   class="EmbeddedBulletChars"
   id="defs44">
  <g
   id="bullet-char-template-57356"
   transform="matrix(4.8828125e-4,0,0,-4.8828125e-4,0,0)">
   <path
   d="M 580,1141 1163,571 580,0 -4,571 Z"
   id="path14"
   inkscape:connector-curvature="0" />
  </g>
  <g
   id="bullet-char-template-57354"
   transform="matrix(4.8828125e-4,0,0,-4.8828125e-4,0,0)">
   <path
   d="M 8,1128 H 1137 V 0 H 8 Z"
   id="path17"
   inkscape:connector-curvature="0" />
  </g>
  <g
   id="bullet-char-template-10146"
   transform="matrix(4.8828125e-4,0,0,-4.8828125e-4,0,0)">
   <path
   d="M 174,0 602,739 174,1481 1456,739 Z M 1358,739 309,1346 659,739 Z"
   id="path20"
   inkscape:connector-curvature="0" />
  </g>
  <g
   id="bullet-char-template-10132"
   transform="matrix(4.8828125e-4,0,0,-4.8828125e-4,0,0)">
   <path
   d="M 2015,739 1276,0 H 717 l 543,543 H 174 v 393 h 1086 l -543,545 h 557 z"
   id="path23"
   inkscape:connector-curvature="0" />
  </g>
  <g
   id="bullet-char-template-10007"
   transform="matrix(4.8828125e-4,0,0,-4.8828125e-4,0,0)">
   <path
   d="m 0,-2 c -7,16 -16,29 -25,39 l 381,530 c -94,256 -141,385 -141,387 0,25 13,38 40,38 9,0 21,-2 34,-5 21,4 42,12 65,25 l 27,-13 111,-251 280,301 64,-25 24,25 c 21,-10 41,-24 62,-43 C 886,937 835,863 770,784 769,783 710,716 594,584 L 774,223 c 0,-27 -21,-55 -63,-84 l 16,-20 C 717,90 699,76 672,76 641,76 570,178 457,381 L 164,-76 c -22,-34 -53,-51 -92,-51 -42,0 -63,17 -64,51 -7,9 -10,24 -10,44 0,9 1,19 2,30 z"
   id="path26"
   inkscape:connector-curvature="0" />
  </g>
  <g
   id="bullet-char-template-10004"
   transform="matrix(4.8828125e-4,0,0,-4.8828125e-4,0,0)">
   <path
   d="M 285,-33 C 182,-33 111,30 74,156 52,228 41,333 41,471 c 0,78 14,145 41,201 34,71 87,106 158,106 53,0 88,-31 106,-94 l 23,-176 c 8,-64 28,-97 59,-98 l 735,706 c 11,11 33,17 66,17 42,0 63,-15 63,-46 V 965 c 0,-36 -10,-64 -30,-84 L 442,47 C 390,-6 338,-33 285,-33 Z"
   id="path29"
   inkscape:connector-curvature="0" />
  </g>
  <g
   id="bullet-char-template-9679"
   transform="matrix(4.8828125e-4,0,0,-4.8828125e-4,0,0)">
   <path
   d="M 813,0 C 632,0 489,54 383,161 276,268 223,411 223,592 c 0,181 53,324 160,431 106,107 249,161 430,161 179,0 323,-54 432,-161 108,-107 162,-251 162,-431 0,-180 -54,-324 -162,-431 C 1136,54 992,0 813,0 Z"
   id="path32"
   inkscape:connector-curvature="0" />
  </g>
  <g
   id="bullet-char-template-8226"
   transform="matrix(4.8828125e-4,0,0,-4.8828125e-4,0,0)">
   <path
   d="m 346,457 c -73,0 -137,26 -191,78 -54,51 -81,114 -81,188 0,73 27,136 81,188 54,52 118,78 191,78 73,0 134,-26 185,-79 51,-51 77,-114 77,-187 0,-75 -25,-137 -76,-188 -50,-52 -112,-78 -186,-78 z"
   id="path35"
   inkscape:connector-curvature="0" />
  </g>
  <g
   id="bullet-char-template-8211"
   transform="matrix(4.8828125e-4,0,0,-4.8828125e-4,0,0)">
   <path
   d="M -4,459 H 1135 V 606 H -4 Z"
   id="path38"
   inkscape:connector-curvature="0" />
  </g>
  <g
   id="bullet-char-template-61548"
   transform="matrix(4.8828125e-4,0,0,-4.8828125e-4,0,0)">
   <path
   d="m 173,740 c 0,163 58,303 173,419 116,115 255,173 419,173 163,0 302,-58 418,-173 116,-116 174,-256 174,-419 0,-163 -58,-303 -174,-418 C 1067,206 928,148 765,148 601,148 462,206 346,322 231,437 173,577 173,740 Z"
   id="path41"
   inkscape:connector-curvature="0" />
  </g>
 </defs>
 <g
   id="g49"
   transform="translate(-10020,-14121)">
  <g
   id="id2"
   class="Master_Slide">
   <g
   id="bg-id2"
   class="Background" />
   <g
   id="bo-id2"
   class="BackgroundObjects" />
  </g>
 </g>
 <g
   class="SlideGroup"
   id="g88"
   transform="translate(-10020,-14121)">
  <g
   id="g86">
   <g
   id="container-id1">
    <g
   id="id1"
   class="Slide"
   clip-path="url(#presentation_clip_path)">
     <g
   class="Page"
   id="g82">
      <g
   class="Graphic"
   id="g80">
       <g
   id="id3">
        <rect
   class="BoundingBox"
   x="10020"
   y="14121"
   width="960"
   height="1458"
   id="rect51"
   style="fill:none;stroke:none" />
        <path
   d="m 10354,14973 -39,5 -43,18 -43,28 -41,41 -28,53 -13,62 5,73 31,82 46,61 56,35 61,13 64,-2 58,-16 54,-25 38,-28 23,-31 46,28 53,16 54,5 53,-10 51,-21 46,-33 35,-46 28,-61 8,-38 -2,-48 -16,-51 -23,-51 -35,-46 -46,-35 -61,-21 -72,-2 -15,-39 -15,-45 -13,-46 -7,-49 -6,-48 3,-43 10,-38 21,-31 22,-15 26,-3 18,5 7,3 21,-18 12,-23 v -23 l -7,-20 -13,-10 -10,-3 -5,3 h -3 l -12,-56 -21,-59 -25,-61 -33,-56 -36,-51 -38,-40 -38,-28 -41,-13 -26,38 -17,51 -11,64 3,68 13,67 25,61 41,48 53,30 -61,16 -58,35 -49,49 -41,56 -28,66 -15,69 v 68 z"
   id="path53"
   inkscape:connector-curvature="0"
   style="fill:#000000;stroke:none" />
        <path
   d="m 10308,15019 -38,5 -44,18 -43,31 -38,40 -28,51 -13,64 5,71 31,82 46,61 56,35 61,13 63,-3 59,-15 51,-25 38,-28 23,-31 48,28 51,15 54,6 56,-11 48,-20 46,-33 38,-46 28,-61 5,-38 -2,-48 -13,-51 -23,-51 -36,-44 -48,-35 -59,-21 -73,-2 -13,-41 -15,-43 -13,-48 -8,-49 -5,-48 v -43 l 10,-38 21,-31 23,-15 25,-3 18,5 8,3 22,-18 13,-23 v -23 l -10,-18 -13,-10 -7,-5 -5,3 h -3 l -13,-56 -20,-59 -28,-61 -31,-56 -35,-51 -39,-40 -40,-28 -41,-13 -25,38 -18,51 -8,63 3,69 12,66 26,61 38,49 53,30 -61,16 -58,35 -49,49 -40,55 -28,67 -16,68 v 69 z"
   id="path55"
   inkscape:connector-curvature="0"
   style="fill:#000000;stroke:none" />
        <path
   d="m 10440,15419 43,-16 39,-20 33,-30 25,-34 18,-38 10,-40 3,-44 -5,-43 -13,-41 -23,-38 -28,-30 -36,-23 -38,-18 -41,-10 -43,-3 -46,5 -43,16 -38,22 -33,28 -26,34 -20,38 -10,40 -3,44 5,43 16,41 22,38 28,30 36,26 38,18 41,10 43,2 z"
   id="path57"
   inkscape:connector-curvature="0"
   style="fill:#660019;stroke:none" />
        <path
   d="m 10629,15266 -5,15 -8,16 -8,15 -10,15 18,10 20,8 21,8 23,5 22,5 h 23 23 l 21,-5 40,-16 36,-20 31,-28 25,-31 18,-35 10,-38 3,-41 -5,-41 -13,-38 -23,-36 -26,-28 -33,-22 -35,-18 -41,-10 h -41 l -43,5 -18,5 -15,5 -15,7 -13,8 -16,10 -12,8 -10,13 -11,10 11,13 10,10 7,12 11,13 2,-15 5,-15 8,-11 8,-10 10,-7 12,-3 16,-2 h 18 l 25,-18 33,-8 38,5 36,13 33,23 28,30 18,41 5,46 -5,28 -13,33 -20,33 -31,28 -35,23 -44,13 -53,-5 -59,-23 z"
   id="path59"
   inkscape:connector-curvature="0"
   style="fill:#660019;stroke:none" />
        <path
   d="m 10514,14146 v 18 l 3,21 2,23 5,22 8,26 13,23 17,28 26,25 25,26 26,25 20,23 21,23 15,20 13,16 10,15 5,10 -8,-36 -10,-43 -15,-48 -21,-51 -28,-51 -33,-46 -43,-41 z"
   id="path61"
   inkscape:connector-curvature="0"
   style="fill:#66ff00;stroke:none" />
        <path
   d="m 10601,14554 -21,17 -28,26 -33,33 -36,46 -35,56 -31,68 -20,79 -10,92 -21,2 -12,-45 -8,-54 5,-61 18,-61 30,-58 49,-56 66,-46 z"
   id="path63"
   inkscape:connector-curvature="0"
   style="fill:#66ff00;stroke:none" />
        <path
   d="m 10585,14653 -12,13 -18,25 -23,33 -23,43 -20,49 -18,51 -10,53 2,53 8,3 10,5 13,3 10,5 13,2 10,5 7,3 5,5 18,-20 18,-28 10,-36 3,-38 -8,-56 -5,-61 3,-59 z"
   id="path65"
   inkscape:connector-curvature="0"
   style="fill:#19b200;stroke:none" />
        <path
   d="m 10723,14490 -5,-10 -10,-15 -13,-16 -15,-20 -21,-23 -20,-23 -26,-25 -25,-26 -26,-25 -17,-28 -13,-23 -8,-26 -5,-22 -2,-23 -3,-21 v -18 l -18,28 -13,44 -10,53 v 59 l 10,61 23,56 44,48 61,38 13,-5 15,-8 15,-5 15,-7 16,-8 15,-5 13,-3 z"
   id="path67"
   inkscape:connector-curvature="0"
   style="fill:#19b200;stroke:none" />
        <path
   d="m 10567,15162 v 33 l -5,33 -10,30 -18,28 -23,26 -25,18 -31,15 -33,8 h -33 l -33,-6 -30,-10 -28,-18 -26,-22 -18,-26 -15,-30 -8,-33 v -36 l 5,-33 11,-31 17,-28 21,-20 23,-10 25,-3 26,10 15,-12 18,-8 20,-3 h 21 l 22,8 21,13 20,15 21,20 -23,11 -13,17 -5,18 5,18 10,15 18,8 25,-3 z"
   id="path69"
   inkscape:connector-curvature="0"
   style="fill:#b20066;stroke:none" />
        <path
   d="m 10629,15266 10,-53 -3,-49 -15,-46 -20,-43 2,-15 5,-15 8,-11 8,-10 10,-7 12,-3 16,-2 h 18 l 25,-18 33,-8 38,5 36,13 33,23 28,30 18,41 5,46 -5,28 -13,33 -20,33 -31,28 -35,23 -44,13 -53,-5 -59,-23 z"
   id="path71"
   inkscape:connector-curvature="0"
   style="fill:#b20066;stroke:none" />
        <path
   d="m 10567,15162 -33,12 -25,3 -18,-8 -10,-15 -5,-18 5,-18 13,-17 23,-11 h 15 l 13,6 12,7 10,10 8,16 3,12 -3,11 z"
   id="path73"
   inkscape:connector-curvature="0"
   style="fill:#ffffff;stroke:none" />
        <path
   d="m 10789,15022 -13,20 3,20 18,16 25,5 28,-5 21,-10 10,-16 -8,-18 -8,-7 -10,-8 -10,-5 -10,-2 -13,-3 h -13 l -10,5 z"
   id="path75"
   inkscape:connector-curvature="0"
   style="fill:#ffffff;stroke:none" />
        <path
   d="m 10758,14510 6,16 -3,15 -5,13 -8,5 -5,-3 -7,-2 -8,-3 -10,-3 h -13 l -13,6 -18,10 -20,18 -18,28 -10,38 v 46 l 5,50 10,54 11,51 12,46 13,40 h -3 l -7,5 -13,3 -13,5 -20,-76 -18,-95 -8,-91 8,-71 -46,43 -38,51 -28,51 -20,53 -16,51 -10,46 -5,38 -2,28 h -3 l -10,-3 -13,-5 -13,-2 21,-117 35,-97 49,-79 53,-63 59,-46 56,-31 48,-18 z"
   id="path77"
   inkscape:connector-curvature="0"
   style="fill:#a87f51;stroke:none" />
       </g>
      </g>
     </g>
    </g>
   </g>
  </g>
 </g>
</svg>