<?xml version="1.0" encoding="UTF-8" standalone="no"?>
<svg
   xmlns:ooo="http://xml.openoffice.org/svg/export"
   xmlns:dc="http://purl.org/dc/elements/1.1/"
   xmlns:cc="http://creativecommons.org/ns#"
   xmlns:rdf="http://www.w3.org/1999/02/22-rdf-syntax-ns#"
   xmlns:svg="http://www.w3.org/2000/svg"
   xmlns="http://www.w3.org/2000/svg"
   xmlns:sodipodi="http://sodipodi.sourceforge.net/DTD/sodipodi-0.dtd"
   xmlns:inkscape="http://www.inkscape.org/namespaces/inkscape"
   version="1.2"
   width="25.780001mm"
   height="17.17mm"
   viewBox="0 0 2578.0001 1717"
   preserveAspectRatio="xMidYMid"
   xml:space="preserve"
   id="svg279"
   sodipodi:docname="chest.svg"
   style="fill-rule:evenodd;stroke-width:28.22200012;stroke-linejoin:round"
   inkscape:version="0.92.5 (2060ec1f9f, 2020-04-08)"><metadata
   id="metadata283"><rdf:RDF><cc:Work
       rdf:about=""><dc:format>image/svg+xml</dc:format><dc:type
         rdf:resource="http://purl.org/dc/dcmitype/StillImage" /></cc:Work></rdf:RDF></metadata><sodipodi:namedview
   pagecolor="#ffffff"
   bordercolor="#666666"
   borderopacity="1"
   objecttolerance="10"
   gridtolerance="10"
   guidetolerance="10"
   inkscape:pageopacity="0"
   inkscape:pageshadow="2"
   inkscape:window-width="664"
   inkscape:window-height="487"
   id="namedview281"
   showgrid="false"
   inkscape:zoom="0.2102413"
   inkscape:cx="48.718111"
   inkscape:cy="32.428345"
   inkscape:window-x="0"
   inkscape:window-y="0"
   inkscape:window-maximized="0"
   inkscape:current-layer="svg279" />
 <defs
   class="ClipPathGroup"
   id="defs8">
  <clipPath
   id="presentation_clip_path"
   clipPathUnits="userSpaceOnUse">
   <rect
   x="0"
   y="0"
   width="21000"
   height="29700"
   id="rect2" />
  </clipPath>
  <clipPath
   id="presentation_clip_path_shrink"
   clipPathUnits="userSpaceOnUse">
   <rect
   x="21"
   y="29"
   width="20958"
   height="29641"
   id="rect5" />
  </clipPath>
 </defs>
 <defs
   class="TextShapeIndex"
   id="defs12">
  <g
   ooo:slide="id1"
   ooo:id-list="id3"
   id="g10" />
 </defs>
 <defs
   class="EmbeddedBulletChars"
   id="defs44">
  <g
   id="bullet-char-template-57356"
   transform="matrix(4.8828125e-4,0,0,-4.8828125e-4,0,0)">
   <path
   d="M 580,1141 1163,571 580,0 -4,571 Z"
   id="path14"
   inkscape:connector-curvature="0" />
  </g>
  <g
   id="bullet-char-template-57354"
   transform="matrix(4.8828125e-4,0,0,-4.8828125e-4,0,0)">
   <path
   d="M 8,1128 H 1137 V 0 H 8 Z"
   id="path17"
   inkscape:connector-curvature="0" />
  </g>
  <g
   id="bullet-char-template-10146"
   transform="matrix(4.8828125e-4,0,0,-4.8828125e-4,0,0)">
   <path
   d="M 174,0 602,739 174,1481 1456,739 Z M 1358,739 309,1346 659,739 Z"
   id="path20"
   inkscape:connector-curvature="0" />
  </g>
  <g
   id="bullet-char-template-10132"
   transform="matrix(4.8828125e-4,0,0,-4.8828125e-4,0,0)">
   <path
   d="M 2015,739 1276,0 H 717 l 543,543 H 174 v 393 h 1086 l -543,545 h 557 z"
   id="path23"
   inkscape:connector-curvature="0" />
  </g>
  <g
   id="bullet-char-template-10007"
   transform="matrix(4.8828125e-4,0,0,-4.8828125e-4,0,0)">
   <path
   d="m 0,-2 c -7,16 -16,29 -25,39 l 381,530 c -94,256 -141,385 -141,387 0,25 13,38 40,38 9,0 21,-2 34,-5 21,4 42,12 65,25 l 27,-13 111,-251 280,301 64,-25 24,25 c 21,-10 41,-24 62,-43 C 886,937 835,863 770,784 769,783 710,716 594,584 L 774,223 c 0,-27 -21,-55 -63,-84 l 16,-20 C 717,90 699,76 672,76 641,76 570,178 457,381 L 164,-76 c -22,-34 -53,-51 -92,-51 -42,0 -63,17 -64,51 -7,9 -10,24 -10,44 0,9 1,19 2,30 z"
   id="path26"
   inkscape:connector-curvature="0" />
  </g>
  <g
   id="bullet-char-template-10004"
   transform="matrix(4.8828125e-4,0,0,-4.8828125e-4,0,0)">
   <path
   d="M 285,-33 C 182,-33 111,30 74,156 52,228 41,333 41,471 c 0,78 14,145 41,201 34,71 87,106 158,106 53,0 88,-31 106,-94 l 23,-176 c 8,-64 28,-97 59,-98 l 735,706 c 11,11 33,17 66,17 42,0 63,-15 63,-46 V 965 c 0,-36 -10,-64 -30,-84 L 442,47 C 390,-6 338,-33 285,-33 Z"
   id="path29"
   inkscape:connector-curvature="0" />
  </g>
  <g
   id="bullet-char-template-9679"
   transform="matrix(4.8828125e-4,0,0,-4.8828125e-4,0,0)">
   <path
   d="M 813,0 C 632,0 489,54 383,161 276,268 223,411 223,592 c 0,181 53,324 160,431 106,107 249,161 430,161 179,0 323,-54 432,-161 108,-107 162,-251 162,-431 0,-180 -54,-324 -162,-431 C 1136,54 992,0 813,0 Z"
   id="path32"
   inkscape:connector-curvature="0" />
  </g>
  <g
   id="bullet-char-template-8226"
   transform="matrix(4.8828125e-4,0,0,-4.8828125e-4,0,0)">
   <path
   d="m 346,457 c -73,0 -137,26 -191,78 -54,51 -81,114 -81,188 0,73 27,136 81,188 54,52 118,78 191,78 73,0 134,-26 185,-79 51,-51 77,-114 77,-187 0,-75 -25,-137 -76,-188 -50,-52 -112,-78 -186,-78 z"
   id="path35"
   inkscape:connector-curvature="0" />
  </g>
  <g
   id="bullet-char-template-8211"
   transform="matrix(4.8828125e-4,0,0,-4.8828125e-4,0,0)">
   <path
   d="M -4,459 H 1135 V 606 H -4 Z"
   id="path38"
   inkscape:connector-curvature="0" />
  </g>
  <g
   id="bullet-char-template-61548"
   transform="matrix(4.8828125e-4,0,0,-4.8828125e-4,0,0)">
   <path
   d="m 173,740 c 0,163 58,303 173,419 116,115 255,173 419,173 163,0 302,-58 418,-173 116,-116 174,-256 174,-419 0,-163 -58,-303 -174,-418 C 1067,206 928,148 765,148 601,148 462,206 346,322 231,437 173,577 173,740 Z"
   id="path41"
   inkscape:connector-curvature="0" />
  </g>
 </defs>
 <g
   id="g49"
   transform="translate(-9211,-13991)">
  <g
   id="id2"
   class="Master_Slide">
   <g
   id="bg-id2"
   class="Background" />
   <g
   id="bo-id2"
   class="BackgroundObjects" />
  </g>
 </g>
 <g
   class="SlideGroup"
   id="g277"
   transform="translate(-9211,-13991)">
  <g
   id="g275">
   <g
   id="container-id1">
    <g
   id="id1"
   class="Slide"
   clip-path="url(#presentation_clip_path)">
     <g
   class="Page"
   id="g271">
      <g
   class="Graphic"
   id="g269">
       <g
   id="id3">
        <rect
   class="BoundingBox"
   x="9211"
   y="13991"
   width="2578"
   height="1717"
   id="rect51"
   style="fill:none;stroke:none" />
        <defs
   id="defs56">
         <clipPath
   id="clip_path_1"
   clipPathUnits="userSpaceOnUse">
          <path
   d="m 9211,13991 h 2577 v 1716 H 9211 Z"
   id="path53"
   inkscape:connector-curvature="0" />
         </clipPath>
        </defs>
        <g
   clip-path="url(#clip_path_1)"
   id="g266">
         <path
   d="m 10942,14001 h 33 l 33,3 h 28 26 l 23,2 h 18 l 15,3 h 10 l 43,5 59,13 63,20 64,30 61,41 48,54 33,66 10,81 v 82 l 8,68 18,59 28,48 38,38 48,26 64,20 76,10 -18,51 -25,94 -28,120 -31,132 -28,127 -23,110 -17,78 -5,28 -36,11 -51,12 -63,18 -77,18 -84,20 -89,23 -94,23 -96,23 -94,25 -89,23 -84,23 -76,20 -67,18 -50,18 -36,13 -18,10 -43,-5 -48,-3 -54,-5 -58,-5 -61,-2 -64,-5 -63,-3 -66,-3 -69,-2 -64,-3 h -63 -61 -59 l -53,3 -48,2 -44,3 -28,-92 -43,-117 -53,-134 -59,-138 -61,-135 -56,-117 -45,-89 -36,-53 66,-31 61,-33 54,-33 43,-35 35,-44 23,-45 10,-56 -5,-64 -5,-35 v -36 l 3,-41 5,-38 10,-41 15,-38 21,-38 25,-38 33,-33 41,-33 46,-28 55,-26 67,-20 73,-15 84,-10 94,-3 h 23 l 28,3 33,5 38,5 38,7 39,11 40,15 41,18 36,20 35,25 31,31 22,33 21,38 13,46 2,48 -5,56 -10,51 -13,48 -13,46 -12,41 -10,38 -8,33 -3,31 v 28 l 8,23 15,20 21,18 30,12 41,13 51,8 63,5 76,2 33,-5 44,-7 51,-8 53,-8 61,-10 61,-10 64,-8 61,-10 61,-10 58,-10 51,-8 46,-7 40,-8 28,-3 18,-5 h 8 l -36,-20 -28,-28 -23,-33 -17,-41 -13,-46 -8,-48 -2,-56 5,-61 v -30 l -3,-31 -7,-28 -13,-28 -15,-25 -21,-26 -23,-23 -28,-23 -28,-17 -33,-18 -35,-18 -36,-13 -41,-12 -40,-11 -43,-10 z"
   id="path58"
   inkscape:connector-curvature="0"
   style="fill:#ffbf00;stroke:none" />
         <path
   d="m 11128,13994 v 0 h -10 l -15,-3 h -18 l -23,-5 h -26 -28 l -33,-3 -33,3 v 30 l 33,3 33,3 h 28 26 23 18 l 15,2 h 10 v 0 z"
   id="path60"
   inkscape:connector-curvature="0"
   style="fill:#000000;stroke:none" />
         <path
   d="m 11525,14319 v 0 l -11,-84 -35,-71 -51,-59 -64,-43 -66,-30 -66,-21 -58,-12 -46,-5 v 30 l 41,5 58,13 61,20 61,31 59,38 45,48 31,61 10,79 v 0 z"
   id="path62"
   inkscape:connector-curvature="0"
   style="fill:#000000;stroke:none" />
         <path
   d="m 11804,14678 -15,-23 -74,-10 -61,-21 -43,-23 -36,-35 -25,-43 -18,-56 -7,-66 v -82 h -31 v 82 l 8,71 18,61 30,53 41,41 53,28 66,20 79,10 -15,-22 15,22 13,-5 2,-10 -2,-10 -13,-5 z"
   id="path64"
   inkscape:connector-curvature="0"
   style="fill:#000000;stroke:none" />
         <path
   d="m 11619,15426 10,-13 5,-28 18,-79 23,-109 28,-127 30,-133 28,-119 25,-94 18,-46 -30,-15 -18,55 -25,95 -28,119 -31,132 -28,128 -23,109 -18,79 -5,28 10,-13 -10,13 3,13 10,5 13,-3 5,-10 z"
   id="path66"
   inkscape:connector-curvature="0"
   style="fill:#000000;stroke:none" />
         <path
   d="m 10510,15723 13,-5 10,-5 36,-13 50,-17 64,-18 76,-21 84,-22 89,-23 94,-26 97,-23 94,-23 89,-22 84,-21 76,-18 64,-17 51,-13 38,-10 -11,-31 -33,10 -50,13 -64,18 -76,18 -84,20 -89,23 -94,23 -97,23 -94,25 -89,23 -84,23 -76,20 -69,18 -51,18 -35,13 -26,15 13,-5 -13,5 -2,13 5,7 13,5 10,-5 z"
   id="path68"
   inkscape:connector-curvature="0"
   style="fill:#000000;stroke:none" />
         <path
   d="m 9577,15683 15,12 44,-2 48,-3 h 53 59 61 63 64 l 69,3 66,2 63,3 64,5 61,2 58,6 54,5 48,2 43,5 v -30 l -43,-5 -48,-3 -54,-5 -58,-5 -61,-3 -64,-5 -63,-2 -66,-3 -69,-2 -64,-5 h -63 -61 -59 l -53,5 -48,2 -44,3 16,12 -16,-12 -10,5 -5,10 5,10 10,5 z"
   id="path70"
   inkscape:connector-curvature="0"
   style="fill:#000000;stroke:none" />
         <path
   d="m 9206,14790 -8,25 33,51 46,89 56,115 61,134 59,138 53,135 43,117 28,89 31,-6 -28,-94 -44,-117 -53,-134 -58,-138 -61,-135 -56,-119 -46,-89 -38,-56 -8,25 8,-25 -10,-5 -13,2 -5,10 2,13 z"
   id="path72"
   inkscape:connector-curvature="0"
   style="fill:#000000;stroke:none" />
         <path
   d="m 9483,14467 v 0 l 5,61 -10,51 -20,43 -33,41 -44,33 -51,30 -61,33 -63,31 10,30 69,-30 61,-33 56,-36 43,-38 38,-46 25,-48 11,-61 -5,-66 v 0 z"
   id="path74"
   inkscape:connector-curvature="0"
   style="fill:#000000;stroke:none" />
         <path
   d="m 10065,13973 v 0 l -94,5 -86,10 -74,16 -69,20 -58,26 -48,30 -41,33 -36,36 -25,40 -23,41 -15,38 -10,44 -6,40 -5,41 3,36 5,38 31,-5 -6,-33 3,-36 v -41 l 5,-35 10,-39 16,-38 17,-35 26,-36 30,-30 41,-34 43,-25 54,-25 63,-21 74,-15 81,-10 h 94 v 0 0 l 13,-5 5,-13 -5,-13 z"
   id="path76"
   inkscape:connector-curvature="0"
   style="fill:#000000;stroke:none" />
         <path
   d="m 10515,14355 v 0 l 8,-59 -5,-51 -13,-48 -23,-41 -23,-35 -33,-33 -38,-26 -35,-23 -44,-17 -40,-16 -41,-10 -38,-8 -41,-5 -33,-5 -28,-5 h -23 v 36 h 23 28 l 33,5 36,5 38,8 35,10 41,15 38,18 36,18 33,25 28,28 23,31 18,35 12,43 v 46 l -2,54 v 0 z"
   id="path78"
   inkscape:connector-curvature="0"
   style="fill:#000000;stroke:none" />
         <path
   d="m 10736,14754 v -2 h -76 l -63,-6 -49,-7 -38,-13 -28,-10 -15,-15 -13,-18 -7,-18 2,-25 v -28 l 8,-33 10,-39 13,-40 12,-46 13,-48 10,-51 -30,-5 -10,51 -13,48 -13,46 -13,40 -10,39 -7,33 -5,33 2,30 8,28 18,23 25,20 33,16 43,12 54,8 63,5 76,5 v -2 2 l 13,-5 5,-13 -5,-12 -13,-5 z"
   id="path80"
   inkscape:connector-curvature="0"
   style="fill:#000000;stroke:none" />
         <path
   d="m 11466,14668 5,-31 h -7 l -18,5 -28,3 -41,7 -46,8 -50,8 -59,10 -61,10 -58,10 -64,8 -64,10 -61,10 -53,8 -51,7 -43,8 -31,5 v 31 l 36,-5 43,-8 51,-8 53,-7 62,-11 58,-10 64,-7 63,-11 61,-10 59,-10 50,-7 46,-8 41,-8 28,-2 18,-5 h 7 l 5,-31 -5,31 10,-5 3,-13 -5,-10 -13,-3 z"
   id="path82"
   inkscape:connector-curvature="0"
   style="fill:#000000;stroke:none" />
         <path
   d="m 11336,14319 v 0 l -7,61 5,56 8,51 12,48 18,44 25,35 31,31 38,23 15,-31 -33,-18 -25,-25 -20,-31 -18,-38 -13,-43 -8,-46 v -56 l 3,-61 v 0 z"
   id="path84"
   inkscape:connector-curvature="0"
   style="fill:#000000;stroke:none" />
         <path
   d="m 10942,13986 v 30 l 41,6 43,10 41,10 38,13 36,12 33,18 33,18 25,15 28,23 21,20 20,23 13,26 12,25 8,26 v 28 l 2,30 h 31 l 3,-30 -6,-33 -7,-31 -13,-31 -18,-25 -20,-28 -25,-25 -28,-23 -31,-21 -33,-17 -38,-18 -36,-13 -43,-13 -41,-10 -43,-10 -46,-5 v 30 -30 l -10,5 -5,10 5,10 10,5 z"
   id="path86"
   inkscape:connector-curvature="0"
   style="fill:#000000;stroke:none" />
         <path
   d="m 10065,13991 h 23 l 28,3 33,5 38,5 38,7 39,11 40,15 41,18 36,20 35,25 31,31 22,33 21,38 13,46 2,48 -5,56 -10,51 -13,48 -13,46 -12,41 -10,38 -8,33 -3,31 v 28 l 8,23 15,20 21,18 30,12 41,13 51,8 63,5 76,2 33,-5 44,-7 51,-8 53,-8 61,-10 61,-10 64,-8 61,-10 61,-10 58,-10 51,-8 46,-7 40,-8 28,-3 18,-5 h 8 l -36,-20 -28,-28 -23,-33 -17,-41 -13,-46 -8,-48 -2,-56 5,-61 v -30 l -3,-31 -7,-28 -13,-28 -15,-25 -21,-26 -23,-23 -28,-23 -28,-17 -33,-18 -35,-18 -36,-13 -41,-12 -40,-11 -43,-10 -44,-5 z"
   id="path88"
   inkscape:connector-curvature="0"
   style="fill:#7a2b00;stroke:none" />
         <path
   d="m 10515,14355 v 0 l 8,-59 -5,-51 -13,-48 -23,-41 -23,-35 -33,-33 -38,-26 -35,-23 -44,-17 -40,-16 -41,-10 -38,-8 -41,-5 -33,-5 -28,-5 h -23 v 36 h 23 28 l 33,5 36,5 38,8 35,10 41,15 38,18 36,18 33,25 28,28 23,31 18,35 12,43 v 46 l -2,54 v 0 z"
   id="path90"
   inkscape:connector-curvature="0"
   style="fill:#000000;stroke:none" />
         <path
   d="m 10736,14754 v -2 h -76 l -63,-6 -49,-7 -38,-13 -28,-10 -15,-15 -13,-18 -7,-18 2,-25 v -28 l 8,-33 10,-39 13,-40 12,-46 13,-48 10,-51 -30,-5 -10,51 -13,48 -13,46 -13,40 -10,39 -7,33 -5,33 2,30 8,28 18,23 25,20 33,16 43,12 54,8 63,5 76,5 v -2 2 l 13,-5 5,-13 -5,-12 -13,-5 z"
   id="path92"
   inkscape:connector-curvature="0"
   style="fill:#000000;stroke:none" />
         <path
   d="m 11466,14668 5,-31 h -7 l -18,5 -28,3 -41,7 -46,8 -50,8 -59,10 -61,10 -58,10 -64,8 -64,10 -61,10 -53,8 -51,7 -43,8 -31,5 v 31 l 36,-5 43,-8 51,-8 53,-7 62,-11 58,-10 64,-7 63,-11 61,-10 59,-10 50,-7 46,-8 41,-8 28,-2 18,-5 h 7 l 5,-31 -5,31 10,-5 3,-13 -5,-10 -13,-3 z"
   id="path94"
   inkscape:connector-curvature="0"
   style="fill:#000000;stroke:none" />
         <path
   d="m 11336,14319 v 0 l -7,61 5,56 8,51 12,48 18,44 25,35 31,31 38,23 15,-31 -33,-18 -25,-25 -20,-31 -18,-38 -13,-43 -8,-46 v -56 l 3,-61 v 0 z"
   id="path96"
   inkscape:connector-curvature="0"
   style="fill:#000000;stroke:none" />
         <path
   d="m 10942,14019 v -3 l 41,6 43,10 41,10 38,13 36,12 33,18 33,18 25,15 28,23 21,20 20,23 13,26 12,25 8,26 v 28 l 2,30 h 31 l 3,-30 -6,-33 -7,-31 -13,-31 -18,-25 -20,-28 -25,-25 -28,-23 -31,-21 -33,-17 -38,-18 -36,-13 -43,-13 -41,-10 -43,-10 -46,-5 v -3 3 l -10,5 -5,10 5,10 10,5 z"
   id="path98"
   inkscape:connector-curvature="0"
   style="fill:#000000;stroke:none" />
         <path
   d="m 10065,13973 v 36 l 877,10 v -36 l -877,-10 v 36 -36 l -12,5 -6,13 6,13 12,5 z"
   id="path100"
   inkscape:connector-curvature="0"
   style="fill:#000000;stroke:none" />
         <path
   d="m 9445,14851 872,40 -61,-22 -48,-26 -39,-33 -25,-36 -15,-38 -5,-43 5,-48 13,-51 20,-59 23,-63 18,-69 7,-69 -13,-58 -38,-51 -71,-33 -109,-15 -115,5 -84,18 -58,25 -38,31 -20,35 -8,33 -3,33 3,26 8,33 15,51 10,63 3,71 -16,74 -40,69 -77,61 z"
   id="path102"
   inkscape:connector-curvature="0"
   style="fill:#7a2b00;stroke:none" />
         <path
   d="m 10314,14907 3,-31 -872,-40 v 30 l 872,41 2,-31 -2,31 13,-5 2,-11 -2,-10 -13,-5 z"
   id="path104"
   inkscape:connector-curvature="0"
   style="fill:#000000;stroke:none" />
         <path
   d="m 10126,14589 v 0 l -12,53 -8,51 8,46 15,43 28,38 43,36 51,28 63,23 5,-31 -58,-23 -46,-23 -33,-30 -23,-33 -15,-33 -2,-41 2,-46 13,-48 v 0 z"
   id="path106"
   inkscape:connector-curvature="0"
   style="fill:#000000;stroke:none" />
         <path
   d="m 9979,14192 v 0 l 107,15 63,31 33,43 13,53 -8,67 -18,66 -22,63 -21,59 31,10 20,-59 23,-63 18,-71 7,-72 -12,-63 -44,-59 -78,-35 -112,-16 v 0 z"
   id="path108"
   inkscape:connector-curvature="0"
   style="fill:#000000;stroke:none" />
         <path
   d="m 9671,14383 v 0 -26 -30 l 8,-31 18,-30 33,-26 56,-25 78,-18 115,-5 v -31 l -115,6 -89,17 -61,26 -43,35 -23,41 -7,36 -5,35 5,26 v 0 z"
   id="path110"
   inkscape:connector-curvature="0"
   style="fill:#000000;stroke:none" />
         <path
   d="m 9445,14836 2,30 120,-46 81,-66 44,-74 15,-79 -3,-71 -10,-66 -15,-51 -8,-30 h -30 l 7,35 16,51 10,61 2,71 -15,69 -38,64 -71,56 -110,46 3,30 -3,-30 -10,5 -2,12 5,10 12,3 z"
   id="path112"
   inkscape:connector-curvature="0"
   style="fill:#000000;stroke:none" />
         <path
   d="m 9511,15082 913,64 -18,417 -43,-3 -49,-5 -45,-2 -51,-5 -49,-3 -50,-5 -51,-2 -49,-3 -50,-3 h -46 l -46,-2 h -43 l -41,2 h -38 l -33,3 -30,5 -13,-38 -18,-56 -25,-69 -26,-76 -28,-74 -28,-66 -23,-51 z"
   id="path114"
   inkscape:connector-curvature="0"
   style="fill:#7a2b00;stroke:none" />
         <path
   d="m 10439,15146 -15,-15 -913,-64 v 31 l 913,63 -16,-15 16,15 12,-5 3,-10 -3,-10 -12,-5 z"
   id="path116"
   inkscape:connector-curvature="0"
   style="fill:#000000;stroke:none" />
         <path
   d="m 10406,15578 15,-15 18,-417 h -31 l -17,417 15,-15 -15,15 5,10 10,5 10,-5 5,-10 z"
   id="path118"
   inkscape:connector-curvature="0"
   style="fill:#000000;stroke:none" />
         <path
   d="m 9676,15545 18,10 28,-5 h 33 38 l 41,-2 h 43 l 46,2 h 46 50 l 49,3 51,2 50,5 49,3 51,5 45,3 49,5 43,2 v -30 l -43,-3 -49,-5 -45,-2 -51,-6 -49,-2 -50,-5 -51,-3 -49,-2 -50,-5 h -46 l -46,-3 h -43 l -41,3 h -38 l -33,5 -33,5 18,10 -18,-10 -10,5 -3,13 5,10 13,2 z"
   id="path120"
   inkscape:connector-curvature="0"
   style="fill:#000000;stroke:none" />
         <path
   d="m 9511,15067 -10,28 15,23 23,48 28,66 28,74 25,76 26,69 18,56 12,38 31,-10 -13,-38 -18,-56 -25,-69 -26,-76 -28,-74 -28,-66 -22,-53 -26,-33 -10,28 10,-28 -13,-3 -7,5 -5,13 5,10 z"
   id="path122"
   inkscape:connector-curvature="0"
   style="fill:#000000;stroke:none" />
         <path
   d="m 10724,15123 -28,346 40,-13 51,-10 56,-13 64,-15 68,-13 69,-12 71,-16 69,-12 69,-11 63,-12 56,-10 53,-8 41,-8 33,-5 21,-5 h 7 l 10,-63 10,-64 13,-64 13,-61 13,-53 10,-41 5,-28 2,-10 -53,13 -58,15 -67,15 -68,18 -71,15 -74,18 -74,15 -71,18 -69,15 -63,13 -59,13 -51,10 -43,10 -30,8 -21,2 z"
   id="path124"
   inkscape:connector-curvature="0"
   style="fill:#7a2b00;stroke:none" />
         <path
   d="m 10691,15454 20,15 28,-346 h -31 l -27,346 20,15 -20,-15 5,10 10,5 10,-5 5,-10 z"
   id="path126"
   inkscape:connector-curvature="0"
   style="fill:#000000;stroke:none" />
         <path
   d="m 11512,15306 13,-15 h -8 l -20,5 -33,5 -41,8 -53,7 -56,10 -64,13 -69,10 -68,13 -71,15 -69,13 -69,13 -63,15 -56,13 -51,10 -43,13 10,30 38,-13 51,-10 56,-12 63,-16 69,-12 69,-13 71,-15 68,-13 69,-10 64,-13 56,-10 53,-8 41,-7 33,-6 20,-5 h 8 l 12,-15 -12,15 10,-5 2,-12 -5,-11 -12,-2 z"
   id="path128"
   inkscape:connector-curvature="0"
   style="fill:#000000;stroke:none" />
         <path
   d="m 11606,14937 -18,-18 -2,11 -5,28 -11,40 -12,54 -13,61 -13,63 -10,64 -10,66 h 30 l 11,-61 10,-64 12,-63 13,-61 13,-54 10,-40 5,-28 3,-10 -18,-18 18,18 -3,-13 -10,-5 -13,2 -5,10 z"
   id="path130"
   inkscape:connector-curvature="0"
   style="fill:#000000;stroke:none" />
         <path
   d="m 10739,15123 -13,15 8,-2 20,-3 31,-8 43,-10 51,-10 58,-13 64,-12 68,-16 72,-17 73,-16 74,-17 71,-16 69,-17 66,-16 59,-15 53,-13 -5,-30 -54,12 -58,16 -66,15 -69,18 -71,15 -74,18 -73,15 -72,18 -68,15 -64,13 -58,13 -51,10 -43,10 -31,8 -20,2 -8,3 -13,15 13,-15 -10,5 -3,12 6,11 12,2 z"
   id="path132"
   inkscape:connector-curvature="0"
   style="fill:#000000;stroke:none" />
         <path
   d="m 10503,14296 -11,5 -2,13 5,10 13,3 z"
   id="path134"
   inkscape:connector-curvature="0"
   style="fill:#000000;stroke:none" />
         <path
   d="m 11344,14235 h -18 l -30,5 -43,3 -54,2 -61,5 -69,3 -71,5 -73,5 -74,5 -71,5 -66,5 -61,6 -54,2 -46,5 -30,3 -20,2 5,31 15,-3 30,-2 46,-5 54,-3 61,-5 66,-5 71,-5 74,-5 73,-5 71,-5 69,-3 61,-5 54,-3 43,-2 h 30 18 z"
   id="path136"
   inkscape:connector-curvature="0"
   style="fill:#000000;stroke:none" />
         <path
   d="m 11344,14271 13,-5 5,-13 -5,-13 -13,-5 z"
   id="path138"
   inkscape:connector-curvature="0"
   style="fill:#000000;stroke:none" />
         <path
   d="m 9651,14342 -13,5 -5,13 5,13 13,5 z"
   id="path140"
   inkscape:connector-curvature="0"
   style="fill:#000000;stroke:none" />
         <path
   d="m 10208,14365 v -18 l -557,-5 v 36 l 557,5 z"
   id="path142"
   inkscape:connector-curvature="0"
   style="fill:#000000;stroke:none" />
         <path
   d="m 10208,14383 12,-5 5,-13 -5,-13 -12,-5 z"
   id="path144"
   inkscape:connector-curvature="0"
   style="fill:#000000;stroke:none" />
         <path
   d="m 9686,14624 -10,5 -5,11 5,10 10,5 z"
   id="path146"
   inkscape:connector-curvature="0"
   style="fill:#000000;stroke:none" />
         <path
   d="m 10119,14670 v -15 l -433,-31 v 31 l 433,30 z"
   id="path148"
   inkscape:connector-curvature="0"
   style="fill:#000000;stroke:none" />
         <path
   d="m 10119,14685 12,-5 3,-10 -3,-10 -12,-5 z"
   id="path150"
   inkscape:connector-curvature="0"
   style="fill:#000000;stroke:none" />
         <path
   d="m 9814,14004 -11,5 -5,10 5,10 11,5 z"
   id="path152"
   inkscape:connector-curvature="0"
   style="fill:#000000;stroke:none" />
         <path
   d="m 10269,14105 v 0 l -23,-15 -26,-15 -28,-13 -28,-10 -33,-10 -33,-8 -30,-7 -33,-8 -33,-5 -33,-5 -31,-3 -30,-2 -28,-5 h -26 l -20,2 -20,3 v 30 l 20,-2 20,2 h 26 28 l 30,3 31,2 28,5 33,6 33,7 30,8 33,7 28,11 28,10 23,12 26,11 17,15 v 0 z"
   id="path154"
   inkscape:connector-curvature="0"
   style="fill:#000000;stroke:none" />
         <path
   d="m 10381,14446 v -2 l 15,-59 7,-53 -5,-48 -12,-41 -21,-38 -25,-36 -33,-33 -38,-31 -21,26 38,30 28,28 26,31 15,33 13,36 v 43 l -3,48 -15,59 v -3 z"
   id="path156"
   inkscape:connector-curvature="0"
   style="fill:#000000;stroke:none" />
         <path
   d="m 10670,14863 -15,-22 -81,-8 -66,-10 -54,-15 -43,-21 -33,-18 -23,-23 -15,-22 -13,-26 v -25 l -2,-33 5,-31 7,-33 10,-30 11,-34 12,-33 11,-33 -31,-10 -10,33 -13,33 -10,33 -10,36 -8,33 -5,36 -2,33 5,30 12,36 21,28 28,28 38,23 48,20 59,15 71,10 81,8 -15,-23 15,23 13,-5 2,-10 -2,-10 -13,-5 z"
   id="path158"
   inkscape:connector-curvature="0"
   style="fill:#000000;stroke:none" />
         <path
   d="m 10525,15708 3,-74 10,-107 18,-124 23,-135 23,-135 25,-119 23,-97 20,-54 -30,-15 -21,64 -22,96 -26,120 -23,135 -23,135 -17,129 -11,107 -2,74 z"
   id="path160"
   inkscape:connector-curvature="0"
   style="fill:#000000;stroke:none" />
         <path
   d="m 10495,15708 5,10 10,5 10,-5 5,-10 z"
   id="path162"
   inkscape:connector-curvature="0"
   style="fill:#000000;stroke:none" />
         <path
   d="m 10653,14841 -11,5 -2,12 5,11 13,2 z"
   id="path164"
   inkscape:connector-curvature="0"
   style="fill:#000000;stroke:none" />
         <path
   d="m 11789,14670 -3,-15 -1133,186 5,30 1134,-186 z"
   id="path166"
   inkscape:connector-curvature="0"
   style="fill:#000000;stroke:none" />
         <path
   d="m 11792,14685 10,-5 2,-12 -5,-11 -13,-2 z"
   id="path168"
   inkscape:connector-curvature="0"
   style="fill:#000000;stroke:none" />
         <path
   d="m 10614,15036 13,-5 3,-10 -3,-10 -13,-5 z"
   id="path170"
   inkscape:connector-curvature="0"
   style="fill:#000000;stroke:none" />
         <path
   d="m 9292,14970 33,8 56,5 72,8 86,5 94,7 104,5 112,6 112,5 112,5 109,2 104,5 95,5 83,3 h 69 51 l 30,-3 v -30 l -30,-3 h -51 -69 l -83,-2 h -95 l -104,-5 -109,-3 -112,-5 -112,-5 -112,-5 -104,-5 -94,-8 -86,-5 -72,-7 -51,-6 -33,-7 z"
   id="path172"
   inkscape:connector-curvature="0"
   style="fill:#000000;stroke:none" />
         <path
   d="m 9297,14940 -12,2 -5,11 2,12 10,5 z"
   id="path174"
   inkscape:connector-curvature="0"
   style="fill:#000000;stroke:none" />
         <path
   d="m 11756,14813 10,-5 3,-13 -5,-10 -13,-3 z"
   id="path176"
   inkscape:connector-curvature="0"
   style="fill:#000000;stroke:none" />
         <path
   d="m 10614,15021 3,15 1139,-223 -5,-31 -1139,224 z"
   id="path178"
   inkscape:connector-curvature="0"
   style="fill:#000000;stroke:none" />
         <path
   d="m 10612,15006 -10,5 -3,13 5,10 13,2 z"
   id="path180"
   inkscape:connector-curvature="0"
   style="fill:#000000;stroke:none" />
         <path
   d="m 10711,15273 -10,5 -3,13 5,10 13,3 z"
   id="path182"
   inkscape:connector-curvature="0"
   style="fill:#000000;stroke:none" />
         <path
   d="m 11563,15108 -26,2 -38,5 -53,8 -59,10 -66,13 -71,13 -74,15 -76,15 -74,15 -71,16 -66,15 -58,13 -49,10 -38,7 -25,5 -8,3 5,31 8,-3 25,-5 38,-8 49,-10 58,-13 66,-15 71,-15 74,-15 76,-16 74,-15 71,-13 66,-12 59,-11 48,-7 38,-5 26,-3 z"
   id="path184"
   inkscape:connector-curvature="0"
   style="fill:#000000;stroke:none" />
         <path
   d="m 11563,15141 12,-5 6,-13 -6,-13 -12,-5 z"
   id="path186"
   inkscape:connector-curvature="0"
   style="fill:#000000;stroke:none" />
         <path
   d="m 10416,15362 13,-5 2,-10 -2,-10 -13,-5 z"
   id="path188"
   inkscape:connector-curvature="0"
   style="fill:#000000;stroke:none" />
         <path
   d="m 9618,15332 10,2 h 25 36 46 53 59 l 63,3 66,2 69,3 66,2 66,3 61,2 56,3 51,2 41,6 30,2 v -30 l -30,-3 -41,-5 -51,-3 -56,-2 -61,-3 -66,-2 -66,-3 -69,-2 -66,-3 -63,-2 -59,-6 h -53 -46 -36 -25 l -15,3 z"
   id="path190"
   inkscape:connector-curvature="0"
   style="fill:#000000;stroke:none" />
         <path
   d="m 9613,15301 -10,5 -3,13 5,10 13,3 z"
   id="path192"
   inkscape:connector-curvature="0"
   style="fill:#000000;stroke:none" />
         <path
   d="m 11352,14492 12,-5 3,-10 -3,-10 -12,-5 z"
   id="path194"
   inkscape:connector-curvature="0"
   style="fill:#000000;stroke:none" />
         <path
   d="m 10447,14627 12,-3 33,-7 44,-8 56,-10 63,-10 71,-13 77,-13 76,-12 79,-11 81,-12 71,-10 69,-11 58,-7 51,-5 h 38 l 26,-3 v -30 l -26,-3 -38,5 -51,5 -58,8 -69,10 -76,10 -76,13 -79,10 -82,13 -76,13 -71,12 -64,10 -55,11 -44,7 -33,8 -18,2 z"
   id="path196"
   inkscape:connector-curvature="0"
   style="fill:#000000;stroke:none" />
         <path
   d="m 10436,14596 -10,8 v 10 l 8,10 13,3 z"
   id="path198"
   inkscape:connector-curvature="0"
   style="fill:#000000;stroke:none" />
         <path
   d="m 11118,15153 -18,-226 -53,13 17,183 z"
   id="path200"
   inkscape:connector-curvature="0"
   style="fill:#7f99b2;stroke:none" />
         <path
   d="m 11103,14942 -18,-15 18,226 h 30 l -18,-226 -18,-15 18,15 -5,-13 -10,-2 -10,2 -5,13 z"
   id="path202"
   inkscape:connector-curvature="0"
   style="fill:#000000;stroke:none" />
         <path
   d="m 11062,14940 -13,15 54,-13 -6,-30 -53,13 -13,15 13,-15 -10,5 -3,12 5,11 13,2 z"
   id="path204"
   inkscape:connector-curvature="0"
   style="fill:#000000;stroke:none" />
         <path
   d="m 11072,15108 8,15 -18,-183 h -31 l 18,183 8,15 -8,-15 5,10 10,5 11,-5 5,-10 z"
   id="path206"
   inkscape:connector-curvature="0"
   style="fill:#000000;stroke:none" />
         <path
   d="m 11103,15153 22,-15 -53,-30 -15,30 53,31 23,-16 -23,16 h 13 l 10,-8 3,-13 -11,-10 z"
   id="path208"
   inkscape:connector-curvature="0"
   style="fill:#000000;stroke:none" />
         <path
   d="m 11100,14927 262,-53 -28,226 -216,53 z"
   id="path210"
   inkscape:connector-curvature="0"
   style="fill:#d8e0e8;stroke:none" />
         <path
   d="m 11377,14874 -18,-16 -262,54 6,30 261,-53 -17,-15 17,15 11,-5 2,-13 -5,-10 -13,-3 z"
   id="path212"
   inkscape:connector-curvature="0"
   style="fill:#000000;stroke:none" />
         <path
   d="m 11336,15115 13,-15 28,-226 h -30 l -28,226 12,-15 -12,15 5,10 10,5 10,-5 5,-10 z"
   id="path214"
   inkscape:connector-curvature="0"
   style="fill:#000000;stroke:none" />
         <path
   d="m 11103,15153 17,16 216,-54 -5,-30 -216,53 18,15 -18,-15 -10,5 -2,13 5,10 12,3 z"
   id="path216"
   inkscape:connector-curvature="0"
   style="fill:#000000;stroke:none" />
         <path
   d="m 11097,14912 -12,15 18,226 h 30 l -18,-226 -12,15 12,-15 -5,-13 -10,-2 -10,2 -5,13 z"
   id="path218"
   inkscape:connector-curvature="0"
   style="fill:#000000;stroke:none" />
         <path
   d="m 9709,15372 21,-2 17,-5 18,-11 13,-15 13,-15 10,-18 5,-20 2,-23 -2,-20 -5,-21 -10,-18 -13,-17 -13,-13 -18,-10 -17,-5 -21,-3 -20,3 -18,5 -18,10 -15,13 -10,17 -10,18 -5,21 -3,20 3,23 5,20 10,18 10,15 15,15 18,11 18,5 z"
   id="path220"
   inkscape:connector-curvature="0"
   style="fill:#d8e0e8;stroke:none" />
         <path
   d="m 9791,15263 v 0 20 l -5,18 -8,15 -13,13 -10,13 -13,7 -15,5 h -18 v 36 l 23,-5 21,-5 22,-13 16,-18 12,-17 13,-21 5,-23 5,-25 v 0 z"
   id="path222"
   inkscape:connector-curvature="0"
   style="fill:#000000;stroke:none" />
         <path
   d="m 9709,15174 v 0 h 18 l 15,5 13,8 10,10 13,15 8,15 5,18 v 18 h 35 l -5,-23 -5,-23 -13,-20 -12,-21 -16,-15 -22,-13 -21,-5 -23,-5 v 0 z"
   id="path224"
   inkscape:connector-curvature="0"
   style="fill:#000000;stroke:none" />
         <path
   d="m 9628,15263 v 0 -18 l 5,-18 10,-15 8,-15 10,-10 15,-8 16,-5 h 17 v -36 l -23,5 -20,5 -20,13 -21,15 -12,21 -10,20 -6,23 -5,23 v 0 z"
   id="path226"
   inkscape:connector-curvature="0"
   style="fill:#000000;stroke:none" />
         <path
   d="m 9709,15354 v 0 h -17 l -16,-5 -12,-7 -13,-13 -10,-13 -8,-15 -5,-18 v -20 h -36 l 5,25 6,23 12,21 10,17 18,18 23,13 20,5 23,5 v 0 z"
   id="path228"
   inkscape:connector-curvature="0"
   style="fill:#000000;stroke:none" />
         <path
   d="m 10258,15390 23,-3 21,-5 17,-10 18,-15 13,-15 10,-18 5,-20 3,-23 -3,-21 -5,-20 -10,-18 -13,-18 -18,-12 -17,-11 -21,-5 -23,-2 -20,2 -20,5 -18,11 -18,12 -13,18 -10,18 -5,20 -2,21 2,23 5,20 10,18 13,15 18,15 18,10 20,5 z"
   id="path230"
   inkscape:connector-curvature="0"
   style="fill:#d8e0e8;stroke:none" />
         <path
   d="m 10350,15281 v 0 20 l -5,18 -8,15 -10,13 -18,13 -12,7 -18,5 h -21 v 36 l 26,-5 23,-5 23,-13 17,-18 16,-18 12,-20 6,-23 5,-25 v 0 z"
   id="path232"
   inkscape:connector-curvature="0"
   style="fill:#000000;stroke:none" />
         <path
   d="m 10258,15192 v 0 h 21 l 18,5 15,7 15,11 10,15 8,15 5,18 v 18 h 36 l -5,-23 -6,-23 -12,-20 -16,-21 -20,-15 -20,-13 -23,-5 -26,-5 v 0 z"
   id="path234"
   inkscape:connector-curvature="0"
   style="fill:#000000;stroke:none" />
         <path
   d="m 10169,15281 v 0 -18 l 6,-18 7,-15 10,-15 16,-11 15,-7 18,-5 h 17 v -36 l -22,5 -23,5 -21,13 -20,15 -15,21 -13,20 -5,23 -5,23 v 0 z"
   id="path236"
   inkscape:connector-curvature="0"
   style="fill:#000000;stroke:none" />
         <path
   d="m 10258,15372 v 0 h -17 l -18,-5 -13,-7 -18,-13 -10,-13 -7,-15 -6,-18 v -20 h -35 l 5,25 5,23 13,20 15,18 18,18 23,13 23,5 22,5 v 0 z"
   id="path238"
   inkscape:connector-curvature="0"
   style="fill:#000000;stroke:none" />
         <path
   d="m 9831,15311 11,-10 7,-13 v -15 l -2,-15 -11,-13 -12,-10 -16,-5 h -22 l -23,2 -21,8 -15,8 -13,7 -5,13 v 13 l 8,12 15,13 26,20 5,18 -10,16 -16,15 -5,10 v 15 l 5,15 13,18 23,16 38,12 51,10 69,3 h 71 l 61,-5 48,-8 36,-7 28,-13 20,-15 10,-21 8,-23 -3,-28 -10,-17 -3,-13 16,-13 23,-15 7,-15 -5,-16 -20,-17 -15,-8 -18,-5 h -18 l -18,5 -15,8 -10,10 -3,15 8,20 10,21 5,15 3,10 v 8 l -8,5 h -15 l -18,2 -28,-2 -31,-3 h -33 -33 -33 -28 l -28,3 h -23 -15 l -23,-3 -15,-10 v -13 z"
   id="path240"
   inkscape:connector-curvature="0"
   style="fill:#d8e0e8;stroke:none" />
         <path
   d="m 9786,15245 v 0 h 22 l 8,5 10,5 5,8 3,10 v 13 l -5,5 -5,7 15,26 15,-13 10,-20 v -18 l -2,-20 -15,-18 -16,-15 -23,-5 h -22 v 0 z"
   id="path242"
   inkscape:connector-curvature="0"
   style="fill:#000000;stroke:none" />
         <path
   d="m 9740,15293 v 0 l -10,-10 -5,-5 v -8 l 2,-5 8,-2 12,-8 18,-7 21,-3 v -30 l -26,2 -23,8 -18,7 -17,13 -8,20 v 18 l 10,21 21,15 v 0 z"
   id="path244"
   inkscape:connector-curvature="0"
   style="fill:#000000;stroke:none" />
         <path
   d="m 9750,15382 v 3 l 15,-15 13,-23 -8,-31 -30,-23 -15,26 20,18 2,5 -7,7 -15,16 v 2 z"
   id="path246"
   inkscape:connector-curvature="0"
   style="fill:#000000;stroke:none" />
         <path
   d="m 9931,15456 v 0 h -69 l -48,-10 -36,-13 -18,-12 -7,-13 -6,-10 v -11 l 3,-5 -25,-15 -8,15 v 21 l 5,20 18,23 28,18 40,13 54,10 69,5 v 0 z"
   id="path248"
   inkscape:connector-curvature="0"
   style="fill:#000000;stroke:none" />
         <path
   d="m 10197,15382 v -2 l -7,20 -8,15 -15,11 -25,12 -34,8 -45,8 -61,5 -71,-3 v 36 l 71,-3 61,-5 51,-7 38,-8 30,-13 26,-20 12,-26 8,-25 v -3 z"
   id="path250"
   inkscape:connector-curvature="0"
   style="fill:#000000;stroke:none" />
         <path
   d="m 10208,15296 v 0 l -26,20 3,26 10,15 2,25 h 31 l -3,-30 -10,-20 h -2 l 5,-6 v 0 z"
   id="path252"
   inkscape:connector-curvature="0"
   style="fill:#000000;stroke:none" />
         <path
   d="m 10208,15260 h 2 l 15,16 3,5 -3,5 -17,10 10,30 28,-20 12,-25 -7,-26 -26,-20 h 3 z"
   id="path254"
   inkscape:connector-curvature="0"
   style="fill:#000000;stroke:none" />
         <path
   d="m 10144,15286 v 0 l -8,-13 3,-8 5,-5 10,-5 13,-5 h 18 l 12,5 11,5 20,-25 -20,-10 -23,-5 h -18 l -23,5 -20,10 -16,15 -2,23 8,28 v 0 z"
   id="path256"
   inkscape:connector-curvature="0"
   style="fill:#000000;stroke:none" />
         <path
   d="m 10078,15367 v 0 l 28,5 18,-5 h 18 l 20,-13 v -15 l -3,-13 -5,-17 -10,-23 -30,15 10,18 5,13 2,7 v 0 l 5,-2 h -12 -18 -28 v 0 z"
   id="path258"
   inkscape:connector-curvature="0"
   style="fill:#000000;stroke:none" />
         <path
   d="m 9854,15370 v 0 h 15 23 l 28,-3 h 28 33 33 33 31 v -30 l -31,-5 h -33 -33 -33 -28 l -28,2 h -23 -15 v 0 z"
   id="path260"
   inkscape:connector-curvature="0"
   style="fill:#000000;stroke:none" />
         <path
   d="m 9824,15298 v 0 l -23,21 2,28 23,18 28,5 v -36 h -18 l -7,-2 2,2 8,-10 v 0 z"
   id="path262"
   inkscape:connector-curvature="0"
   style="fill:#000000;stroke:none" />
         <path
   d="m 11204,15080 71,-23 -22,-84 10,-15 2,-13 -7,-8 -16,-2 -20,5 -13,13 -5,15 13,10 z"
   id="path264"
   inkscape:connector-curvature="0"
   style="fill:#000000;stroke:none" />
        </g>
       </g>
      </g>
     </g>
    </g>
   </g>
  </g>
 </g>
</svg>