<?xml version="1.0" encoding="UTF-8" standalone="no"?>
<svg
   xmlns:ooo="http://xml.openoffice.org/svg/export"
   xmlns:dc="http://purl.org/dc/elements/1.1/"
   xmlns:cc="http://creativecommons.org/ns#"
   xmlns:rdf="http://www.w3.org/1999/02/22-rdf-syntax-ns#"
   xmlns:svg="http://www.w3.org/2000/svg"
   xmlns="http://www.w3.org/2000/svg"
   xmlns:sodipodi="http://sodipodi.sourceforge.net/DTD/sodipodi-0.dtd"
   xmlns:inkscape="http://www.inkscape.org/namespaces/inkscape"
   version="1.2"
   width="50.110001mm"
   height="87.480003mm"
   viewBox="0 0 5011.0001 8748.0003"
   preserveAspectRatio="xMidYMid"
   xml:space="preserve"
   id="svg93"
   sodipodi:docname="church9.svg"
   style="fill-rule:evenodd;stroke-width:28.22200012;stroke-linejoin:round"
   inkscape:version="0.92.5 (2060ec1f9f, 2020-04-08)"><metadata
   id="metadata97"><rdf:RDF><cc:Work
       rdf:about=""><dc:format>image/svg+xml</dc:format><dc:type
         rdf:resource="http://purl.org/dc/dcmitype/StillImage" /></cc:Work></rdf:RDF></metadata><sodipodi:namedview
   pagecolor="#ffffff"
   bordercolor="#666666"
   borderopacity="1"
   objecttolerance="10"
   gridtolerance="10"
   guidetolerance="10"
   inkscape:pageopacity="0"
   inkscape:pageshadow="2"
   inkscape:window-width="664"
   inkscape:window-height="487"
   id="namedview95"
   showgrid="false"
   inkscape:zoom="0.2102413"
   inkscape:cx="94.714961"
   inkscape:cy="165.31653"
   inkscape:window-x="0"
   inkscape:window-y="0"
   inkscape:window-maximized="0"
   inkscape:current-layer="svg93" />
 <defs
   class="ClipPathGroup"
   id="defs8">
  <clipPath
   id="presentation_clip_path"
   clipPathUnits="userSpaceOnUse">
   <rect
   x="0"
   y="0"
   width="21000"
   height="29700"
   id="rect2" />
  </clipPath>
  <clipPath
   id="presentation_clip_path_shrink"
   clipPathUnits="userSpaceOnUse">
   <rect
   x="21"
   y="29"
   width="20958"
   height="29641"
   id="rect5" />
  </clipPath>
 </defs>
 <defs
   class="TextShapeIndex"
   id="defs12">
  <g
   ooo:slide="id1"
   ooo:id-list="id3"
   id="g10" />
 </defs>
 <defs
   class="EmbeddedBulletChars"
   id="defs44">
  <g
   id="bullet-char-template-57356"
   transform="matrix(4.8828125e-4,0,0,-4.8828125e-4,0,0)">
   <path
   d="M 580,1141 1163,571 580,0 -4,571 Z"
   id="path14"
   inkscape:connector-curvature="0" />
  </g>
  <g
   id="bullet-char-template-57354"
   transform="matrix(4.8828125e-4,0,0,-4.8828125e-4,0,0)">
   <path
   d="M 8,1128 H 1137 V 0 H 8 Z"
   id="path17"
   inkscape:connector-curvature="0" />
  </g>
  <g
   id="bullet-char-template-10146"
   transform="matrix(4.8828125e-4,0,0,-4.8828125e-4,0,0)">
   <path
   d="M 174,0 602,739 174,1481 1456,739 Z M 1358,739 309,1346 659,739 Z"
   id="path20"
   inkscape:connector-curvature="0" />
  </g>
  <g
   id="bullet-char-template-10132"
   transform="matrix(4.8828125e-4,0,0,-4.8828125e-4,0,0)">
   <path
   d="M 2015,739 1276,0 H 717 l 543,543 H 174 v 393 h 1086 l -543,545 h 557 z"
   id="path23"
   inkscape:connector-curvature="0" />
  </g>
  <g
   id="bullet-char-template-10007"
   transform="matrix(4.8828125e-4,0,0,-4.8828125e-4,0,0)">
   <path
   d="m 0,-2 c -7,16 -16,29 -25,39 l 381,530 c -94,256 -141,385 -141,387 0,25 13,38 40,38 9,0 21,-2 34,-5 21,4 42,12 65,25 l 27,-13 111,-251 280,301 64,-25 24,25 c 21,-10 41,-24 62,-43 C 886,937 835,863 770,784 769,783 710,716 594,584 L 774,223 c 0,-27 -21,-55 -63,-84 l 16,-20 C 717,90 699,76 672,76 641,76 570,178 457,381 L 164,-76 c -22,-34 -53,-51 -92,-51 -42,0 -63,17 -64,51 -7,9 -10,24 -10,44 0,9 1,19 2,30 z"
   id="path26"
   inkscape:connector-curvature="0" />
  </g>
  <g
   id="bullet-char-template-10004"
   transform="matrix(4.8828125e-4,0,0,-4.8828125e-4,0,0)">
   <path
   d="M 285,-33 C 182,-33 111,30 74,156 52,228 41,333 41,471 c 0,78 14,145 41,201 34,71 87,106 158,106 53,0 88,-31 106,-94 l 23,-176 c 8,-64 28,-97 59,-98 l 735,706 c 11,11 33,17 66,17 42,0 63,-15 63,-46 V 965 c 0,-36 -10,-64 -30,-84 L 442,47 C 390,-6 338,-33 285,-33 Z"
   id="path29"
   inkscape:connector-curvature="0" />
  </g>
  <g
   id="bullet-char-template-9679"
   transform="matrix(4.8828125e-4,0,0,-4.8828125e-4,0,0)">
   <path
   d="M 813,0 C 632,0 489,54 383,161 276,268 223,411 223,592 c 0,181 53,324 160,431 106,107 249,161 430,161 179,0 323,-54 432,-161 108,-107 162,-251 162,-431 0,-180 -54,-324 -162,-431 C 1136,54 992,0 813,0 Z"
   id="path32"
   inkscape:connector-curvature="0" />
  </g>
  <g
   id="bullet-char-template-8226"
   transform="matrix(4.8828125e-4,0,0,-4.8828125e-4,0,0)">
   <path
   d="m 346,457 c -73,0 -137,26 -191,78 -54,51 -81,114 -81,188 0,73 27,136 81,188 54,52 118,78 191,78 73,0 134,-26 185,-79 51,-51 77,-114 77,-187 0,-75 -25,-137 -76,-188 -50,-52 -112,-78 -186,-78 z"
   id="path35"
   inkscape:connector-curvature="0" />
  </g>
  <g
   id="bullet-char-template-8211"
   transform="matrix(4.8828125e-4,0,0,-4.8828125e-4,0,0)">
   <path
   d="M -4,459 H 1135 V 606 H -4 Z"
   id="path38"
   inkscape:connector-curvature="0" />
  </g>
  <g
   id="bullet-char-template-61548"
   transform="matrix(4.8828125e-4,0,0,-4.8828125e-4,0,0)">
   <path
   d="m 173,740 c 0,163 58,303 173,419 116,115 255,173 419,173 163,0 302,-58 418,-173 116,-116 174,-256 174,-419 0,-163 -58,-303 -174,-418 C 1067,206 928,148 765,148 601,148 462,206 346,322 231,437 173,577 173,740 Z"
   id="path41"
   inkscape:connector-curvature="0" />
  </g>
 </defs>
 <g
   id="g49"
   transform="translate(-7994,-10476)">
  <g
   id="id2"
   class="Master_Slide">
   <g
   id="bg-id2"
   class="Background" />
   <g
   id="bo-id2"
   class="BackgroundObjects" />
  </g>
 </g>
 <g
   class="SlideGroup"
   id="g91"
   transform="translate(-7994,-10476)">
  <g
   id="g89">
   <g
   id="container-id1">
    <g
   id="id1"
   class="Slide"
   clip-path="url(#presentation_clip_path)">
     <g
   class="Page"
   id="g85">
      <g
   class="Graphic"
   id="g83">
       <g
   id="id3">
        <rect
   class="BoundingBox"
   x="7994"
   y="10476"
   width="5011"
   height="8748"
   id="rect51"
   style="fill:none;stroke:none" />
        <defs
   id="defs56">
         <clipPath
   id="clip_path_1"
   clipPathUnits="userSpaceOnUse">
          <path
   d="m 7994,10476 h 5010 v 8747 H 7994 Z"
   id="path53"
   inkscape:connector-curvature="0" />
         </clipPath>
        </defs>
        <g
   clip-path="url(#clip_path_1)"
   id="g80">
         <path
   d="m 7994,15634 1837,-1034 v -23 l 3,-36 v -40 l -3,-46 -1837,1029 z"
   id="path58"
   inkscape:connector-curvature="0"
   style="fill:#660000;stroke:none" />
         <path
   d="m 12631,19224 v -130 H 8370 v 130 z"
   id="path60"
   inkscape:connector-curvature="0"
   style="fill:#660000;stroke:none" />
         <path
   d="m 10512,11165 v -689 h -51 v 689 z"
   id="path62"
   inkscape:connector-curvature="0"
   style="fill:#660000;stroke:none" />
         <path
   d="m 10487,11038 -21,101 -22,117 -23,132 -26,142 -28,153 -30,157 -33,158 -36,160 -38,158 -43,149 -46,143 -51,132 -56,114 -58,99 -66,79 -69,56 h 1289 l -69,-56 -66,-79 -58,-99 -54,-114 -51,-132 -45,-143 -44,-149 -38,-158 -35,-160 -33,-158 -31,-157 -28,-153 -25,-142 -23,-132 -23,-117 z"
   id="path64"
   inkscape:connector-curvature="0"
   style="fill:#660000;stroke:none" />
         <path
   d="m 13005,15634 -1837,-1034 v -23 -36 -40 -46 l 1837,1029 z"
   id="path66"
   inkscape:connector-curvature="0"
   style="fill:#660000;stroke:none" />
         <path
   d="m 11041,18906 v -282 H 9971 v 282 z"
   id="path68"
   inkscape:connector-curvature="0"
   style="fill:#660000;stroke:none" />
         <path
   d="m 11041,15090 v -279 H 9971 v 279 z"
   id="path70"
   inkscape:connector-curvature="0"
   style="fill:#660000;stroke:none" />
         <path
   d="m 10662,10661 h -353 v 49 h 353 z"
   id="path72"
   inkscape:connector-curvature="0"
   style="fill:#660000;stroke:none" />
         <path
   d="m 10261,13863 v 150 155 142 104 h 23 25 28 30 36 33 36 35 36 35 33 31 28 25 20 18 v -142 -160 -153 -109 l -2,-51 -8,-66 -13,-78 -20,-79 -30,-74 -41,-61 -53,-43 -66,-15 -61,12 -51,36 -41,56 -33,66 -23,76 -18,81 -10,79 -2,74 -290,-3 v -640 h 1070 v 1438 H 9971 v -798 z"
   id="path74"
   inkscape:connector-curvature="0"
   style="fill:#660000;stroke:none" />
         <path
   d="m 9831,15161 v -350 l -1461,830 v 3265 h 1461 v -282 H 8637 v -2795 z"
   id="path76"
   inkscape:connector-curvature="0"
   style="fill:#660000;stroke:none" />
         <path
   d="m 11165,15161 v -350 l 1461,830 v 3265 h -1461 v -282 h 1195 v -2795 z"
   id="path78"
   inkscape:connector-curvature="0"
   style="fill:#660000;stroke:none" />
        </g>
       </g>
      </g>
     </g>
    </g>
   </g>
  </g>
 </g>
</svg>