<?xml version="1.0" encoding="UTF-8" standalone="no"?>
<svg
   xmlns:ooo="http://xml.openoffice.org/svg/export"
   xmlns:dc="http://purl.org/dc/elements/1.1/"
   xmlns:cc="http://creativecommons.org/ns#"
   xmlns:rdf="http://www.w3.org/1999/02/22-rdf-syntax-ns#"
   xmlns:svg="http://www.w3.org/2000/svg"
   xmlns="http://www.w3.org/2000/svg"
   xmlns:sodipodi="http://sodipodi.sourceforge.net/DTD/sodipodi-0.dtd"
   xmlns:inkscape="http://www.inkscape.org/namespaces/inkscape"
   version="1.2"
   width="21.08mm"
   height="23.799999mm"
   viewBox="0 0 2108 2379.9999"
   preserveAspectRatio="xMidYMid"
   xml:space="preserve"
   id="svg293"
   sodipodi:docname="city1.svg"
   style="fill-rule:evenodd;stroke-width:28.22200012;stroke-linejoin:round"
   inkscape:version="0.92.5 (2060ec1f9f, 2020-04-08)"><metadata
   id="metadata297"><rdf:RDF><cc:Work
       rdf:about=""><dc:format>image/svg+xml</dc:format><dc:type
         rdf:resource="http://purl.org/dc/dcmitype/StillImage" /></cc:Work></rdf:RDF></metadata><sodipodi:namedview
   pagecolor="#ffffff"
   bordercolor="#666666"
   borderopacity="1"
   objecttolerance="10"
   gridtolerance="10"
   guidetolerance="10"
   inkscape:pageopacity="0"
   inkscape:pageshadow="2"
   inkscape:window-width="664"
   inkscape:window-height="487"
   id="namedview295"
   showgrid="false"
   inkscape:zoom="0.2102413"
   inkscape:cx="39.836221"
   inkscape:cy="44.976376"
   inkscape:window-x="0"
   inkscape:window-y="0"
   inkscape:window-maximized="0"
   inkscape:current-layer="svg293" />
 <defs
   class="ClipPathGroup"
   id="defs8">
  <clipPath
   id="presentation_clip_path"
   clipPathUnits="userSpaceOnUse">
   <rect
   x="0"
   y="0"
   width="21000"
   height="29700"
   id="rect2" />
  </clipPath>
  <clipPath
   id="presentation_clip_path_shrink"
   clipPathUnits="userSpaceOnUse">
   <rect
   x="21"
   y="29"
   width="20958"
   height="29641"
   id="rect5" />
  </clipPath>
 </defs>
 <defs
   class="TextShapeIndex"
   id="defs12">
  <g
   ooo:slide="id1"
   ooo:id-list="id3"
   id="g10" />
 </defs>
 <defs
   class="EmbeddedBulletChars"
   id="defs44">
  <g
   id="bullet-char-template-57356"
   transform="matrix(4.8828125e-4,0,0,-4.8828125e-4,0,0)">
   <path
   d="M 580,1141 1163,571 580,0 -4,571 Z"
   id="path14"
   inkscape:connector-curvature="0" />
  </g>
  <g
   id="bullet-char-template-57354"
   transform="matrix(4.8828125e-4,0,0,-4.8828125e-4,0,0)">
   <path
   d="M 8,1128 H 1137 V 0 H 8 Z"
   id="path17"
   inkscape:connector-curvature="0" />
  </g>
  <g
   id="bullet-char-template-10146"
   transform="matrix(4.8828125e-4,0,0,-4.8828125e-4,0,0)">
   <path
   d="M 174,0 602,739 174,1481 1456,739 Z M 1358,739 309,1346 659,739 Z"
   id="path20"
   inkscape:connector-curvature="0" />
  </g>
  <g
   id="bullet-char-template-10132"
   transform="matrix(4.8828125e-4,0,0,-4.8828125e-4,0,0)">
   <path
   d="M 2015,739 1276,0 H 717 l 543,543 H 174 v 393 h 1086 l -543,545 h 557 z"
   id="path23"
   inkscape:connector-curvature="0" />
  </g>
  <g
   id="bullet-char-template-10007"
   transform="matrix(4.8828125e-4,0,0,-4.8828125e-4,0,0)">
   <path
   d="m 0,-2 c -7,16 -16,29 -25,39 l 381,530 c -94,256 -141,385 -141,387 0,25 13,38 40,38 9,0 21,-2 34,-5 21,4 42,12 65,25 l 27,-13 111,-251 280,301 64,-25 24,25 c 21,-10 41,-24 62,-43 C 886,937 835,863 770,784 769,783 710,716 594,584 L 774,223 c 0,-27 -21,-55 -63,-84 l 16,-20 C 717,90 699,76 672,76 641,76 570,178 457,381 L 164,-76 c -22,-34 -53,-51 -92,-51 -42,0 -63,17 -64,51 -7,9 -10,24 -10,44 0,9 1,19 2,30 z"
   id="path26"
   inkscape:connector-curvature="0" />
  </g>
  <g
   id="bullet-char-template-10004"
   transform="matrix(4.8828125e-4,0,0,-4.8828125e-4,0,0)">
   <path
   d="M 285,-33 C 182,-33 111,30 74,156 52,228 41,333 41,471 c 0,78 14,145 41,201 34,71 87,106 158,106 53,0 88,-31 106,-94 l 23,-176 c 8,-64 28,-97 59,-98 l 735,706 c 11,11 33,17 66,17 42,0 63,-15 63,-46 V 965 c 0,-36 -10,-64 -30,-84 L 442,47 C 390,-6 338,-33 285,-33 Z"
   id="path29"
   inkscape:connector-curvature="0" />
  </g>
  <g
   id="bullet-char-template-9679"
   transform="matrix(4.8828125e-4,0,0,-4.8828125e-4,0,0)">
   <path
   d="M 813,0 C 632,0 489,54 383,161 276,268 223,411 223,592 c 0,181 53,324 160,431 106,107 249,161 430,161 179,0 323,-54 432,-161 108,-107 162,-251 162,-431 0,-180 -54,-324 -162,-431 C 1136,54 992,0 813,0 Z"
   id="path32"
   inkscape:connector-curvature="0" />
  </g>
  <g
   id="bullet-char-template-8226"
   transform="matrix(4.8828125e-4,0,0,-4.8828125e-4,0,0)">
   <path
   d="m 346,457 c -73,0 -137,26 -191,78 -54,51 -81,114 -81,188 0,73 27,136 81,188 54,52 118,78 191,78 73,0 134,-26 185,-79 51,-51 77,-114 77,-187 0,-75 -25,-137 -76,-188 -50,-52 -112,-78 -186,-78 z"
   id="path35"
   inkscape:connector-curvature="0" />
  </g>
  <g
   id="bullet-char-template-8211"
   transform="matrix(4.8828125e-4,0,0,-4.8828125e-4,0,0)">
   <path
   d="M -4,459 H 1135 V 606 H -4 Z"
   id="path38"
   inkscape:connector-curvature="0" />
  </g>
  <g
   id="bullet-char-template-61548"
   transform="matrix(4.8828125e-4,0,0,-4.8828125e-4,0,0)">
   <path
   d="m 173,740 c 0,163 58,303 173,419 116,115 255,173 419,173 163,0 302,-58 418,-173 116,-116 174,-256 174,-419 0,-163 -58,-303 -174,-418 C 1067,206 928,148 765,148 601,148 462,206 346,322 231,437 173,577 173,740 Z"
   id="path41"
   inkscape:connector-curvature="0" />
  </g>
 </defs>
 <g
   id="g49"
   transform="translate(-9446,-13660)">
  <g
   id="id2"
   class="Master_Slide">
   <g
   id="bg-id2"
   class="Background" />
   <g
   id="bo-id2"
   class="BackgroundObjects" />
  </g>
 </g>
 <g
   class="SlideGroup"
   id="g291"
   transform="translate(-9446,-13660)">
  <g
   id="g289">
   <g
   id="container-id1">
    <g
   id="id1"
   class="Slide"
   clip-path="url(#presentation_clip_path)">
     <g
   class="Page"
   id="g285">
      <g
   class="Graphic"
   id="g283">
       <g
   id="id3">
        <rect
   class="BoundingBox"
   x="9446"
   y="13660"
   width="2108"
   height="2380"
   id="rect51"
   style="fill:none;stroke:none" />
        <defs
   id="defs56">
         <clipPath
   id="clip_path_1"
   clipPathUnits="userSpaceOnUse">
          <path
   d="m 9446,13660 h 2107 v 2379 H 9446 Z"
   id="path53"
   inkscape:connector-curvature="0" />
         </clipPath>
        </defs>
        <g
   clip-path="url(#clip_path_1)"
   id="g280">
         <path
   d="m 11546,14758 v -999 H 9451 v 999 z"
   id="path58"
   inkscape:connector-curvature="0"
   style="fill:#ffffff;stroke:none" />
         <path
   d="m 11546,13769 -10,-10 v 999 h 21 v -999 l -11,-10 11,10 -3,-7 -8,-3 -7,3 -3,7 z"
   id="path60"
   inkscape:connector-curvature="0"
   style="fill:#000000;stroke:none" />
         <path
   d="m 9461,13759 -10,10 h 2095 v -20 H 9451 l -10,10 10,-10 -8,3 -2,7 2,8 8,2 z"
   id="path62"
   inkscape:connector-curvature="0"
   style="fill:#000000;stroke:none" />
         <path
   d="m 9451,14748 10,10 v -999 h -20 v 999 l 10,11 -10,-11 2,8 8,3 8,-3 2,-8 z"
   id="path64"
   inkscape:connector-curvature="0"
   style="fill:#000000;stroke:none" />
         <path
   d="m 11536,14758 10,-10 H 9451 v 21 h 2095 l 11,-11 -11,11 8,-3 3,-8 -3,-7 -8,-3 z"
   id="path66"
   inkscape:connector-curvature="0"
   style="fill:#000000;stroke:none" />
         <path
   d="M 11546,16040 V 14914 H 9449 v 1126 z"
   id="path68"
   inkscape:connector-curvature="0"
   style="fill:#000000;stroke:none" />
         <path
   d="m 10450,13769 -948,946"
   id="path70"
   inkscape:connector-curvature="0"
   style="fill:none;stroke:#000000" />
         <path
   d="m 10514,13769 -948,946"
   id="path72"
   inkscape:connector-curvature="0"
   style="fill:none;stroke:#000000" />
         <path
   d="m 10575,13769 -948,946"
   id="path74"
   inkscape:connector-curvature="0"
   style="fill:none;stroke:#000000" />
         <path
   d="m 10639,13769 -949,946"
   id="path76"
   inkscape:connector-curvature="0"
   style="fill:none;stroke:#000000" />
         <path
   d="m 10702,13769 -951,946"
   id="path78"
   inkscape:connector-curvature="0"
   style="fill:none;stroke:#000000" />
         <path
   d="m 10763,13769 -948,946"
   id="path80"
   inkscape:connector-curvature="0"
   style="fill:none;stroke:#000000" />
         <path
   d="m 10827,13769 -949,946"
   id="path82"
   inkscape:connector-curvature="0"
   style="fill:none;stroke:#000000" />
         <path
   d="m 10888,13769 -949,946"
   id="path84"
   inkscape:connector-curvature="0"
   style="fill:none;stroke:#000000" />
         <path
   d="m 10951,13769 -948,946"
   id="path86"
   inkscape:connector-curvature="0"
   style="fill:none;stroke:#000000" />
         <path
   d="m 11015,13769 -951,946"
   id="path88"
   inkscape:connector-curvature="0"
   style="fill:none;stroke:#000000" />
         <path
   d="m 11076,13769 -949,946"
   id="path90"
   inkscape:connector-curvature="0"
   style="fill:none;stroke:#000000" />
         <path
   d="m 11140,13769 -949,946"
   id="path92"
   inkscape:connector-curvature="0"
   style="fill:none;stroke:#000000" />
         <path
   d="m 11201,13769 -949,946"
   id="path94"
   inkscape:connector-curvature="0"
   style="fill:none;stroke:#000000" />
         <path
   d="m 11264,13769 -948,946"
   id="path96"
   inkscape:connector-curvature="0"
   style="fill:none;stroke:#000000" />
         <path
   d="m 11328,13769 -951,946"
   id="path98"
   inkscape:connector-curvature="0"
   style="fill:none;stroke:#000000" />
         <path
   d="m 11389,13769 -949,946"
   id="path100"
   inkscape:connector-curvature="0"
   style="fill:none;stroke:#000000" />
         <path
   d="m 11452,13769 -948,946"
   id="path102"
   inkscape:connector-curvature="0"
   style="fill:none;stroke:#000000" />
         <path
   d="m 11513,13769 -948,946"
   id="path104"
   inkscape:connector-curvature="0"
   style="fill:none;stroke:#000000" />
         <path
   d="m 10461,15509 86,-3 84,-10 81,-15 77,-23 73,-26 69,-33 66,-38 59,-41 53,-45 51,-49 41,-53 35,-56 28,-58 20,-62 13,-63 5,-66 -5,-66 -13,-64 -20,-61 -28,-58 -35,-56 -41,-54 -51,-48 -53,-46 -59,-40 -66,-39 -69,-33 -73,-25 -77,-23 -81,-15 -84,-10 -86,-3 -87,3 -81,10 -82,15 -76,23 -74,25 -68,33 -66,39 -59,40 -56,46 -48,48 -41,54 -35,56 -28,58 -21,61 -12,64 -6,66 6,66 12,63 21,62 28,58 35,56 41,53 48,49 56,45 59,41 66,38 68,33 74,26 76,23 82,15 81,10 z"
   id="path106"
   inkscape:connector-curvature="0"
   style="fill:#ffffff;stroke:none" />
         <path
   d="m 10387,13660 h 157 v 41 h 26 v 496 h 58 v 104 h 46 v -160 h 38 v -59 h 31 v -30 h 20 v -51 h 23 v 51 h 20 v 30 h 31 v 56 h 33 v 458 h 79 v -148 h 206 v 122 h 96 v 99 h 211 v 89 H 9601 v -94 h 130 v -53 h 89 v -163 h 208 v 66 h 89 v -483 h 178 v 110 h 66 v -440 h 26 z"
   id="path108"
   inkscape:connector-curvature="0"
   style="fill:#000000;stroke:none" />
         <path
   d="m 9769,14664 10,-2 10,-5 5,-10 3,-13 -3,-10 -5,-10 -10,-6 -10,-2 -13,2 -10,6 -5,10 -3,10 3,13 5,10 10,5 z"
   id="path110"
   inkscape:connector-curvature="0"
   style="fill:#ffffff;stroke:none" />
         <path
   d="m 9769,14664 v 0 l 10,-2 10,-5 5,-10 3,-13 v 0 l -3,-10 -5,-10 -10,-6 -10,-2 v 0 l -13,2 -10,6 -5,10 -3,10 v 0 l 3,13 5,10 10,5 z"
   id="path112"
   inkscape:connector-curvature="0"
   style="fill:none;stroke:#000000" />
         <path
   d="m 9649,14667 13,-3 10,-5 5,-10 3,-13 -3,-10 -5,-10 -10,-5 -13,-3 -10,3 -10,5 -5,10 -3,10 3,13 5,10 10,5 z"
   id="path114"
   inkscape:connector-curvature="0"
   style="fill:#ffffff;stroke:none" />
         <path
   d="m 9649,14667 v 0 l 13,-3 10,-5 5,-10 3,-13 v 0 l -3,-10 -5,-10 -10,-5 -13,-3 v 0 l -10,3 -10,5 -5,10 -3,10 v 0 l 3,13 5,10 10,5 z"
   id="path116"
   inkscape:connector-curvature="0"
   style="fill:none;stroke:#000000" />
         <path
   d="m 9525,14664 13,-2 10,-5 5,-10 2,-13 -2,-10 -5,-10 -10,-6 -13,-2 -10,2 -11,6 -5,10 -2,10 2,13 5,10 11,5 z"
   id="path118"
   inkscape:connector-curvature="0"
   style="fill:#ffffff;stroke:none" />
         <path
   d="m 9525,14664 v 0 l 13,-2 10,-5 5,-10 2,-13 v 0 l -2,-10 -5,-10 -10,-6 -13,-2 v 0 l -10,2 -11,6 -5,10 -2,10 v 0 l 2,13 5,10 11,5 z"
   id="path120"
   inkscape:connector-curvature="0"
   style="fill:none;stroke:#000000" />
         <path
   d="m 10613,14415 v -43 h -13 v 43 z"
   id="path122"
   inkscape:connector-curvature="0"
   style="fill:#ffffff;stroke:none" />
         <path
   d="m 10644,14415 v -43 h -11 v 43 z"
   id="path124"
   inkscape:connector-curvature="0"
   style="fill:#ffffff;stroke:none" />
         <path
   d="m 10677,14415 v -43 h -13 v 43 z"
   id="path126"
   inkscape:connector-curvature="0"
   style="fill:#ffffff;stroke:none" />
         <path
   d="m 10707,14415 v -43 h -10 v 43 z"
   id="path128"
   inkscape:connector-curvature="0"
   style="fill:#ffffff;stroke:none" />
         <path
   d="m 10738,14415 v -43 h -10 v 43 z"
   id="path130"
   inkscape:connector-curvature="0"
   style="fill:#ffffff;stroke:none" />
         <path
   d="m 10392,16007 163,2 v -86 h 25 v -435 h 59 v -104 h 45 v 160 h 38 v 59 h 31 v 30 h 20 v 51 h 23 v -51 h 21 v -30 h 30 v -56 h 33 v -461 h 79 v 150 h 206 v -124 h 97 v -99 h 211 v -99 H 9611 v 104 h 130 v 71 h 89 v 147 h 208 v -66 h 89 v 484 h 178 v -110 h 67 v 374 h 20 z"
   id="path132"
   inkscape:connector-curvature="0"
   style="fill:#000000;stroke:none" />
         <path
   d="m 10544,16009 11,-7 -163,-3 v 16 l 163,2 10,-8 -10,11 7,-3 3,-8 -3,-7 -7,-3 z"
   id="path134"
   inkscape:connector-curvature="0"
   style="fill:#ffffff;stroke:none" />
         <path
   d="m 10555,15913 -11,10 v 86 h 21 v -86 l -10,10 10,-10 -3,-8 -7,-2 -8,2 -3,8 z"
   id="path136"
   inkscape:connector-curvature="0"
   style="fill:#ffffff;stroke:none" />
         <path
   d="m 10570,15923 10,-10 h -25 v 20 h 25 l 10,-10 -10,10 8,-2 2,-8 -2,-8 -8,-2 z"
   id="path138"
   inkscape:connector-curvature="0"
   style="fill:#ffffff;stroke:none" />
         <path
   d="m 10580,15478 -10,10 v 435 h 20 v -435 l -10,10 10,-10 -2,-7 -8,-3 -8,3 -2,7 z"
   id="path140"
   inkscape:connector-curvature="0"
   style="fill:#ffffff;stroke:none" />
         <path
   d="m 10628,15488 11,-10 h -59 v 20 h 59 l 10,-10 -10,10 7,-2 3,-8 -3,-7 -7,-3 z"
   id="path142"
   inkscape:connector-curvature="0"
   style="fill:#ffffff;stroke:none" />
         <path
   d="m 10639,15374 -11,10 v 104 h 21 v -104 l -10,10 10,-10 -3,-8 -7,-2 -8,2 -3,8 z"
   id="path144"
   inkscape:connector-curvature="0"
   style="fill:#ffffff;stroke:none" />
         <path
   d="m 10695,15384 -11,-10 h -45 v 20 h 45 l -10,-10 10,10 8,-2 3,-8 -3,-8 -8,-2 z"
   id="path146"
   inkscape:connector-curvature="0"
   style="fill:#ffffff;stroke:none" />
         <path
   d="m 10684,15534 11,10 v -160 h -21 v 160 l 10,10 -10,-10 3,8 7,2 8,-2 3,-8 z"
   id="path148"
   inkscape:connector-curvature="0"
   style="fill:#ffffff;stroke:none" />
         <path
   d="m 10733,15544 -11,-10 h -38 v 20 h 38 l -10,-10 10,10 8,-2 3,-8 -3,-7 -8,-3 z"
   id="path150"
   inkscape:connector-curvature="0"
   style="fill:#ffffff;stroke:none" />
         <path
   d="m 10722,15592 11,11 v -59 h -21 v 59 l 10,10 -10,-10 3,7 7,3 8,-3 3,-7 z"
   id="path152"
   inkscape:connector-curvature="0"
   style="fill:#ffffff;stroke:none" />
         <path
   d="m 10763,15603 -10,-11 h -31 v 21 h 31 l -10,-10 10,10 8,-3 2,-7 -2,-8 -8,-3 z"
   id="path154"
   inkscape:connector-curvature="0"
   style="fill:#ffffff;stroke:none" />
         <path
   d="m 10753,15623 10,10 v -30 h -20 v 30 l 10,10 -10,-10 2,8 8,2 8,-2 2,-8 z"
   id="path156"
   inkscape:connector-curvature="0"
   style="fill:#ffffff;stroke:none" />
         <path
   d="m 10784,15633 -11,-10 h -20 v 20 h 20 l -10,-10 10,10 8,-2 3,-8 -3,-7 -8,-3 z"
   id="path158"
   inkscape:connector-curvature="0"
   style="fill:#ffffff;stroke:none" />
         <path
   d="m 10773,15674 11,10 v -51 h -21 v 51 l 10,10 -10,-10 3,8 7,2 8,-2 3,-8 z"
   id="path160"
   inkscape:connector-curvature="0"
   style="fill:#ffffff;stroke:none" />
         <path
   d="m 10786,15684 10,-10 h -23 v 20 h 23 l 10,-10 -10,10 8,-2 2,-8 -2,-8 -8,-2 z"
   id="path162"
   inkscape:connector-curvature="0"
   style="fill:#ffffff;stroke:none" />
         <path
   d="m 10796,15623 -10,10 v 51 h 20 v -51 l -10,10 10,-10 -2,-7 -8,-3 -7,3 -3,7 z"
   id="path164"
   inkscape:connector-curvature="0"
   style="fill:#ffffff;stroke:none" />
         <path
   d="m 10806,15633 11,-10 h -21 v 20 h 21 l 10,-10 -10,10 7,-2 3,-8 -3,-7 -7,-3 z"
   id="path166"
   inkscape:connector-curvature="0"
   style="fill:#ffffff;stroke:none" />
         <path
   d="m 10817,15592 -11,11 v 30 h 21 v -30 l -10,10 10,-10 -3,-8 -7,-3 -8,3 -3,8 z"
   id="path168"
   inkscape:connector-curvature="0"
   style="fill:#ffffff;stroke:none" />
         <path
   d="m 10837,15603 10,-11 h -30 v 21 h 30 l 10,-10 -10,10 8,-3 2,-7 -2,-8 -8,-3 z"
   id="path170"
   inkscape:connector-curvature="0"
   style="fill:#ffffff;stroke:none" />
         <path
   d="m 10847,15537 -10,10 v 56 h 20 v -56 l -10,10 10,-10 -2,-8 -8,-2 -8,2 -2,8 z"
   id="path172"
   inkscape:connector-curvature="0"
   style="fill:#ffffff;stroke:none" />
         <path
   d="m 10870,15547 10,-10 h -33 v 20 h 33 l 10,-10 -10,10 8,-3 2,-7 -2,-8 -8,-2 z"
   id="path174"
   inkscape:connector-curvature="0"
   style="fill:#ffffff;stroke:none" />
         <path
   d="m 10880,15076 -10,10 v 461 h 20 v -461 l -10,11 10,-11 -2,-7 -8,-3 -7,3 -3,7 z"
   id="path176"
   inkscape:connector-curvature="0"
   style="fill:#ffffff;stroke:none" />
         <path
   d="m 10969,15086 -10,-10 h -79 v 21 h 79 l -10,-11 10,11 8,-3 2,-8 -2,-7 -8,-3 z"
   id="path178"
   inkscape:connector-curvature="0"
   style="fill:#ffffff;stroke:none" />
         <path
   d="m 10959,15226 10,10 v -150 h -20 v 150 l 10,11 -10,-11 2,8 8,3 8,-3 2,-8 z"
   id="path180"
   inkscape:connector-curvature="0"
   style="fill:#ffffff;stroke:none" />
         <path
   d="m 11155,15236 10,-10 h -206 v 21 h 206 l 10,-11 -10,11 8,-3 2,-8 -2,-7 -8,-3 z"
   id="path182"
   inkscape:connector-curvature="0"
   style="fill:#ffffff;stroke:none" />
         <path
   d="m 11165,15102 -10,10 v 124 h 20 v -124 l -10,10 10,-10 -2,-8 -8,-2 -8,2 -2,8 z"
   id="path184"
   inkscape:connector-curvature="0"
   style="fill:#ffffff;stroke:none" />
         <path
   d="m 11251,15112 11,-10 h -97 v 20 h 97 l 10,-10 -10,10 7,-2 3,-8 -3,-8 -7,-2 z"
   id="path186"
   inkscape:connector-curvature="0"
   style="fill:#ffffff;stroke:none" />
         <path
   d="m 11262,15003 -11,10 v 99 h 21 v -99 l -10,10 10,-10 -3,-8 -7,-2 -8,2 -3,8 z"
   id="path188"
   inkscape:connector-curvature="0"
   style="fill:#ffffff;stroke:none" />
         <path
   d="m 11462,15013 11,-10 h -211 v 20 h 211 l 10,-10 -10,10 7,-3 3,-7 -3,-8 -7,-2 z"
   id="path190"
   inkscape:connector-curvature="0"
   style="fill:#ffffff;stroke:none" />
         <path
   d="m 11473,14924 -11,-10 v 99 h 21 v -99 l -10,-11 10,11 -3,-8 -7,-3 -8,3 -3,8 z"
   id="path192"
   inkscape:connector-curvature="0"
   style="fill:#ffffff;stroke:none" />
         <path
   d="m 9621,14914 -10,10 h 1862 v -21 H 9611 l -10,11 10,-11 -7,3 -3,8 3,7 7,3 z"
   id="path194"
   inkscape:connector-curvature="0"
   style="fill:#ffffff;stroke:none" />
         <path
   d="m 9611,15008 10,10 v -104 h -20 v 104 l 10,10 -10,-10 3,7 7,3 8,-3 2,-7 z"
   id="path196"
   inkscape:connector-curvature="0"
   style="fill:#ffffff;stroke:none" />
         <path
   d="m 9751,15018 -10,-10 h -130 v 20 h 130 l -10,-10 10,10 8,-3 2,-7 -2,-8 -8,-2 z"
   id="path198"
   inkscape:connector-curvature="0"
   style="fill:#ffffff;stroke:none" />
         <path
   d="m 9741,15079 10,10 v -71 h -20 v 71 l 10,10 -10,-10 2,8 8,2 8,-2 2,-8 z"
   id="path200"
   inkscape:connector-curvature="0"
   style="fill:#ffffff;stroke:none" />
         <path
   d="m 9840,15089 -10,-10 h -89 v 20 h 89 l -10,-10 10,10 8,-2 2,-8 -2,-8 -8,-2 z"
   id="path202"
   inkscape:connector-curvature="0"
   style="fill:#ffffff;stroke:none" />
         <path
   d="m 9830,15226 10,10 v -147 h -20 v 147 l 10,11 -10,-11 2,8 8,3 8,-3 2,-8 z"
   id="path204"
   inkscape:connector-curvature="0"
   style="fill:#ffffff;stroke:none" />
         <path
   d="m 10028,15236 10,-10 h -208 v 21 h 208 l 11,-11 -11,11 8,-3 3,-8 -3,-7 -8,-3 z"
   id="path206"
   inkscape:connector-curvature="0"
   style="fill:#ffffff;stroke:none" />
         <path
   d="m 10038,15160 -10,10 v 66 h 21 v -66 l -11,11 11,-11 -3,-7 -8,-3 -7,3 -3,7 z"
   id="path208"
   inkscape:connector-curvature="0"
   style="fill:#ffffff;stroke:none" />
         <path
   d="m 10138,15170 -11,-10 h -89 v 21 h 89 l -10,-11 10,11 8,-3 3,-8 -3,-7 -8,-3 z"
   id="path210"
   inkscape:connector-curvature="0"
   style="fill:#ffffff;stroke:none" />
         <path
   d="m 10127,15643 11,11 v -484 h -21 v 484 l 10,10 -10,-10 3,7 7,3 8,-3 3,-7 z"
   id="path212"
   inkscape:connector-curvature="0"
   style="fill:#ffffff;stroke:none" />
         <path
   d="m 10295,15654 10,-11 h -178 v 21 h 178 l 11,-10 -11,10 8,-3 3,-7 -3,-8 -8,-3 z"
   id="path214"
   inkscape:connector-curvature="0"
   style="fill:#ffffff;stroke:none" />
         <path
   d="m 10305,15534 -10,10 v 110 h 21 v -110 l -11,10 11,-10 -3,-7 -8,-3 -7,3 -3,7 z"
   id="path216"
   inkscape:connector-curvature="0"
   style="fill:#ffffff;stroke:none" />
         <path
   d="m 10382,15544 -10,-10 h -67 v 20 h 67 l -11,-10 11,10 7,-2 3,-8 -3,-7 -7,-3 z"
   id="path218"
   inkscape:connector-curvature="0"
   style="fill:#ffffff;stroke:none" />
         <path
   d="m 10372,15908 10,10 v -374 h -21 v 374 l 11,10 -11,-10 3,8 8,2 7,-2 3,-8 z"
   id="path220"
   inkscape:connector-curvature="0"
   style="fill:#ffffff;stroke:none" />
         <path
   d="m 10402,15918 -10,-10 h -20 v 20 h 20 l -10,-10 10,10 8,-2 2,-8 -2,-8 -8,-2 z"
   id="path222"
   inkscape:connector-curvature="0"
   style="fill:#ffffff;stroke:none" />
         <path
   d="m 10392,15999 10,8 v -89 h -20 v 89 l 10,8 -10,-8 2,8 8,2 8,-2 2,-8 z"
   id="path224"
   inkscape:connector-curvature="0"
   style="fill:#ffffff;stroke:none" />
         <path
   d="m 11546,15053 v -295 H 9449 v 295 z"
   id="path226"
   inkscape:connector-curvature="0"
   style="fill:#000000;stroke:none" />
         <path
   d="m 9459,14794 h 155 v -102 h 48 v 61 h 26 v -43 h 63 v -35 h 74 v 35 h 79 v -114 h 79 v -41 h 165 v -130 h 23 v -30 h 43 v -18 h 20 v -74 h 36 v 72 h 23 v 17 h 40 v 31 h 23 v 208 h 97 v -152 h 99 v 91 h 31 v -91 -122 h 17 v -26 h -15 v -23 h 173 v 26 h -15 v 23 h 15 v 213 h 41 v -51 h 40 v 117 h 115 v 64 h 53 v -99 h 79 v 117 h 89 v -54 h 54 v 120 h 307"
   id="path228"
   inkscape:connector-curvature="0"
   style="fill:none;stroke:#ffffff" />
         <path
   d="m 9766,15043 11,-2 10,-8 5,-10 2,-10 -2,-10 -5,-11 -10,-7 -11,-3 -12,3 -10,7 -6,11 -2,10 2,10 6,10 10,8 z"
   id="path230"
   inkscape:connector-curvature="0"
   style="fill:#ffffff;stroke:none" />
         <path
   d="m 9766,15043 v 0 l 11,-2 10,-8 5,-10 2,-10 v 0 l -2,-10 -5,-11 -10,-7 -11,-3 v 0 l -12,3 -10,7 -6,11 -2,10 v 0 l 2,10 6,10 10,8 z"
   id="path232"
   inkscape:connector-curvature="0"
   style="fill:none;stroke:#000000" />
         <path
   d="m 9647,15046 13,-3 10,-7 5,-11 2,-10 -2,-10 -5,-10 -10,-8 -13,-2 -10,2 -10,8 -6,10 -2,10 2,10 6,11 10,7 z"
   id="path234"
   inkscape:connector-curvature="0"
   style="fill:#ffffff;stroke:none" />
         <path
   d="m 9647,15046 v 0 l 13,-3 10,-7 5,-11 2,-10 v 0 l -2,-10 -5,-10 -10,-8 -13,-2 v 0 l -10,2 -10,8 -6,10 -2,10 v 0 l 2,10 6,11 10,7 z"
   id="path236"
   inkscape:connector-curvature="0"
   style="fill:none;stroke:#000000" />
         <path
   d="m 9522,15043 13,-2 10,-8 5,-10 3,-10 -3,-10 -5,-11 -10,-7 -13,-3 -10,3 -10,7 -5,11 -3,10 3,10 5,10 10,8 z"
   id="path238"
   inkscape:connector-curvature="0"
   style="fill:#ffffff;stroke:none" />
         <path
   d="m 9522,15043 v 0 l 13,-2 10,-8 5,-10 3,-10 v 0 l -3,-10 -5,-11 -10,-7 -13,-3 v 0 l -10,3 -10,7 -5,11 -3,10 v 0 l 3,10 5,10 10,8 z"
   id="path240"
   inkscape:connector-curvature="0"
   style="fill:none;stroke:#000000" />
         <path
   d="m 11084,14789 10,-3 10,-5 5,-7 3,-10 -3,-11 -5,-7 -10,-5 -10,-3 -11,3 -10,5 -5,7 -2,11 2,10 5,7 10,5 z"
   id="path242"
   inkscape:connector-curvature="0"
   style="fill:#ffffff;stroke:none" />
         <path
   d="m 11084,14789 v 0 l 10,-3 10,-5 5,-7 3,-10 v 0 l -3,-11 -5,-7 -10,-5 -10,-3 v 0 l -11,3 -10,5 -5,7 -2,11 v 0 l 2,10 5,7 10,5 z"
   id="path244"
   inkscape:connector-curvature="0"
   style="fill:none;stroke:#000000" />
         <path
   d="m 11178,14789 10,-3 10,-5 5,-7 3,-10 -3,-11 -5,-7 -10,-5 -10,-3 -11,3 -10,5 -5,7 -2,11 2,10 5,7 10,5 z"
   id="path246"
   inkscape:connector-curvature="0"
   style="fill:#ffffff;stroke:none" />
         <path
   d="m 11178,14789 v 0 l 10,-3 10,-5 5,-7 3,-10 v 0 l -3,-11 -5,-7 -10,-5 -10,-3 v 0 l -11,3 -10,5 -5,7 -2,11 v 0 l 2,10 5,7 10,5 z"
   id="path248"
   inkscape:connector-curvature="0"
   style="fill:none;stroke:#000000" />
         <path
   d="m 11274,14789 10,-3 11,-5 5,-7 2,-10 -2,-11 -5,-7 -11,-5 -10,-3 -10,3 -10,5 -5,7 -3,11 3,10 5,7 10,5 z"
   id="path250"
   inkscape:connector-curvature="0"
   style="fill:#ffffff;stroke:none" />
         <path
   d="m 11274,14789 v 0 l 10,-3 11,-5 5,-7 2,-10 v 0 l -2,-11 -5,-7 -11,-5 -10,-3 v 0 l -10,3 -10,5 -5,7 -3,11 v 0 l 3,10 5,7 10,5 z"
   id="path252"
   inkscape:connector-curvature="0"
   style="fill:none;stroke:#000000" />
         <path
   d="m 11368,14789 11,-3 10,-5 5,-7 2,-10 -2,-11 -5,-7 -10,-5 -11,-3 -10,3 -7,5 -6,7 -2,11 2,10 6,7 7,5 z"
   id="path254"
   inkscape:connector-curvature="0"
   style="fill:#ffffff;stroke:none" />
         <path
   d="m 11368,14789 v 0 l 11,-3 10,-5 5,-7 2,-10 v 0 l -2,-11 -5,-7 -10,-5 -11,-3 v 0 l -10,3 -7,5 -6,7 -2,11 v 0 l 2,10 6,7 7,5 z"
   id="path256"
   inkscape:connector-curvature="0"
   style="fill:none;stroke:#000000" />
         <path
   d="m 9599,14764 v -56 h -148 v 56 z"
   id="path258"
   inkscape:connector-curvature="0"
   style="fill:#000000;stroke:none" />
         <path
   d="m 11557,14758 -3,-7 -8,-3 -7,3 -3,7 z"
   id="path260"
   inkscape:connector-curvature="0"
   style="fill:#000000;stroke:none" />
         <path
   d="m 11557,16037 v 0 -1279 h -21 v 1279 0 0 l 3,8 7,3 8,-3 z"
   id="path262"
   inkscape:connector-curvature="0"
   style="fill:#000000;stroke:none" />
         <path
   d="m 11546,16050 11,-10 v -3 h -21 v 3 l 10,-10 -10,10 3,8 7,2 8,-2 3,-8 z"
   id="path264"
   inkscape:connector-curvature="0"
   style="fill:#000000;stroke:none" />
         <path
   d="m 9441,16040 10,10 h 2095 v -20 H 9451 l 10,10 -10,-10 -8,2 -2,8 2,8 8,2 z"
   id="path266"
   inkscape:connector-curvature="0"
   style="fill:#000000;stroke:none" />
         <path
   d="m 9451,14758 h -10 v 1282 h 20 v -1282 z"
   id="path268"
   inkscape:connector-curvature="0"
   style="fill:#000000;stroke:none" />
         <path
   d="m 9461,14758 -2,-7 -8,-3 -8,3 -2,7 z"
   id="path270"
   inkscape:connector-curvature="0"
   style="fill:#000000;stroke:none" />
         <path
   d="m 9446,14853 h 2105"
   id="path272"
   inkscape:connector-curvature="0"
   style="fill:none;stroke:#ffffff" />
         <path
   d="m 9446,14896 h 2108"
   id="path274"
   inkscape:connector-curvature="0"
   style="fill:none;stroke:#ffffff" />
         <path
   d="m 11551,14924 -2102,2"
   id="path276"
   inkscape:connector-curvature="0"
   style="fill:none;stroke:#ffffff" />
         <path
   d="m 9449,14954 h 2105"
   id="path278"
   inkscape:connector-curvature="0"
   style="fill:none;stroke:#ffffff" />
        </g>
       </g>
      </g>
     </g>
    </g>
   </g>
  </g>
 </g>
</svg>