<?xml version="1.0" encoding="UTF-8" standalone="no"?>
<svg
   xmlns:ooo="http://xml.openoffice.org/svg/export"
   xmlns:dc="http://purl.org/dc/elements/1.1/"
   xmlns:cc="http://creativecommons.org/ns#"
   xmlns:rdf="http://www.w3.org/1999/02/22-rdf-syntax-ns#"
   xmlns:svg="http://www.w3.org/2000/svg"
   xmlns="http://www.w3.org/2000/svg"
   xmlns:sodipodi="http://sodipodi.sourceforge.net/DTD/sodipodi-0.dtd"
   xmlns:inkscape="http://www.inkscape.org/namespaces/inkscape"
   version="1.2"
   width="39.57mm"
   height="31.950001mm"
   viewBox="0 0 3957 3195.0001"
   preserveAspectRatio="xMidYMid"
   xml:space="preserve"
   id="svg137"
   sodipodi:docname="clock4.svg"
   style="fill-rule:evenodd;stroke-width:28.22200012;stroke-linejoin:round"
   inkscape:version="0.92.5 (2060ec1f9f, 2020-04-08)"><metadata
   id="metadata141"><rdf:RDF><cc:Work
       rdf:about=""><dc:format>image/svg+xml</dc:format><dc:type
         rdf:resource="http://purl.org/dc/dcmitype/StillImage" /></cc:Work></rdf:RDF></metadata><sodipodi:namedview
   pagecolor="#ffffff"
   bordercolor="#666666"
   borderopacity="1"
   objecttolerance="10"
   gridtolerance="10"
   guidetolerance="10"
   inkscape:pageopacity="0"
   inkscape:pageshadow="2"
   inkscape:window-width="664"
   inkscape:window-height="487"
   id="namedview139"
   showgrid="false"
   inkscape:zoom="0.2102413"
   inkscape:cx="74.796851"
   inkscape:cy="60.359053"
   inkscape:window-x="0"
   inkscape:window-y="0"
   inkscape:window-maximized="0"
   inkscape:current-layer="svg137" />
 <defs
   class="ClipPathGroup"
   id="defs8">
  <clipPath
   id="presentation_clip_path"
   clipPathUnits="userSpaceOnUse">
   <rect
   x="0"
   y="0"
   width="21000"
   height="29700"
   id="rect2" />
  </clipPath>
  <clipPath
   id="presentation_clip_path_shrink"
   clipPathUnits="userSpaceOnUse">
   <rect
   x="21"
   y="29"
   width="20958"
   height="29641"
   id="rect5" />
  </clipPath>
 </defs>
 <defs
   class="TextShapeIndex"
   id="defs12">
  <g
   ooo:slide="id1"
   ooo:id-list="id3"
   id="g10" />
 </defs>
 <defs
   class="EmbeddedBulletChars"
   id="defs44">
  <g
   id="bullet-char-template-57356"
   transform="matrix(4.8828125e-4,0,0,-4.8828125e-4,0,0)">
   <path
   d="M 580,1141 1163,571 580,0 -4,571 Z"
   id="path14"
   inkscape:connector-curvature="0" />
  </g>
  <g
   id="bullet-char-template-57354"
   transform="matrix(4.8828125e-4,0,0,-4.8828125e-4,0,0)">
   <path
   d="M 8,1128 H 1137 V 0 H 8 Z"
   id="path17"
   inkscape:connector-curvature="0" />
  </g>
  <g
   id="bullet-char-template-10146"
   transform="matrix(4.8828125e-4,0,0,-4.8828125e-4,0,0)">
   <path
   d="M 174,0 602,739 174,1481 1456,739 Z M 1358,739 309,1346 659,739 Z"
   id="path20"
   inkscape:connector-curvature="0" />
  </g>
  <g
   id="bullet-char-template-10132"
   transform="matrix(4.8828125e-4,0,0,-4.8828125e-4,0,0)">
   <path
   d="M 2015,739 1276,0 H 717 l 543,543 H 174 v 393 h 1086 l -543,545 h 557 z"
   id="path23"
   inkscape:connector-curvature="0" />
  </g>
  <g
   id="bullet-char-template-10007"
   transform="matrix(4.8828125e-4,0,0,-4.8828125e-4,0,0)">
   <path
   d="m 0,-2 c -7,16 -16,29 -25,39 l 381,530 c -94,256 -141,385 -141,387 0,25 13,38 40,38 9,0 21,-2 34,-5 21,4 42,12 65,25 l 27,-13 111,-251 280,301 64,-25 24,25 c 21,-10 41,-24 62,-43 C 886,937 835,863 770,784 769,783 710,716 594,584 L 774,223 c 0,-27 -21,-55 -63,-84 l 16,-20 C 717,90 699,76 672,76 641,76 570,178 457,381 L 164,-76 c -22,-34 -53,-51 -92,-51 -42,0 -63,17 -64,51 -7,9 -10,24 -10,44 0,9 1,19 2,30 z"
   id="path26"
   inkscape:connector-curvature="0" />
  </g>
  <g
   id="bullet-char-template-10004"
   transform="matrix(4.8828125e-4,0,0,-4.8828125e-4,0,0)">
   <path
   d="M 285,-33 C 182,-33 111,30 74,156 52,228 41,333 41,471 c 0,78 14,145 41,201 34,71 87,106 158,106 53,0 88,-31 106,-94 l 23,-176 c 8,-64 28,-97 59,-98 l 735,706 c 11,11 33,17 66,17 42,0 63,-15 63,-46 V 965 c 0,-36 -10,-64 -30,-84 L 442,47 C 390,-6 338,-33 285,-33 Z"
   id="path29"
   inkscape:connector-curvature="0" />
  </g>
  <g
   id="bullet-char-template-9679"
   transform="matrix(4.8828125e-4,0,0,-4.8828125e-4,0,0)">
   <path
   d="M 813,0 C 632,0 489,54 383,161 276,268 223,411 223,592 c 0,181 53,324 160,431 106,107 249,161 430,161 179,0 323,-54 432,-161 108,-107 162,-251 162,-431 0,-180 -54,-324 -162,-431 C 1136,54 992,0 813,0 Z"
   id="path32"
   inkscape:connector-curvature="0" />
  </g>
  <g
   id="bullet-char-template-8226"
   transform="matrix(4.8828125e-4,0,0,-4.8828125e-4,0,0)">
   <path
   d="m 346,457 c -73,0 -137,26 -191,78 -54,51 -81,114 -81,188 0,73 27,136 81,188 54,52 118,78 191,78 73,0 134,-26 185,-79 51,-51 77,-114 77,-187 0,-75 -25,-137 -76,-188 -50,-52 -112,-78 -186,-78 z"
   id="path35"
   inkscape:connector-curvature="0" />
  </g>
  <g
   id="bullet-char-template-8211"
   transform="matrix(4.8828125e-4,0,0,-4.8828125e-4,0,0)">
   <path
   d="M -4,459 H 1135 V 606 H -4 Z"
   id="path38"
   inkscape:connector-curvature="0" />
  </g>
  <g
   id="bullet-char-template-61548"
   transform="matrix(4.8828125e-4,0,0,-4.8828125e-4,0,0)">
   <path
   d="m 173,740 c 0,163 58,303 173,419 116,115 255,173 419,173 163,0 302,-58 418,-173 116,-116 174,-256 174,-419 0,-163 -58,-303 -174,-418 C 1067,206 928,148 765,148 601,148 462,206 346,322 231,437 173,577 173,740 Z"
   id="path41"
   inkscape:connector-curvature="0" />
  </g>
 </defs>
 <g
   id="g49"
   transform="translate(-8521,-13252)">
  <g
   id="id2"
   class="Master_Slide">
   <g
   id="bg-id2"
   class="Background" />
   <g
   id="bo-id2"
   class="BackgroundObjects" />
  </g>
 </g>
 <g
   class="SlideGroup"
   id="g135"
   transform="translate(-8521,-13252)">
  <g
   id="g133">
   <g
   id="container-id1">
    <g
   id="id1"
   class="Slide"
   clip-path="url(#presentation_clip_path)">
     <g
   class="Page"
   id="g129">
      <g
   class="Graphic"
   id="g127">
       <g
   id="id3">
        <rect
   class="BoundingBox"
   x="8521"
   y="13252"
   width="3957"
   height="3195"
   id="rect51"
   style="fill:none;stroke:none" />
        <defs
   id="defs56">
         <clipPath
   id="clip_path_1"
   clipPathUnits="userSpaceOnUse">
          <path
   d="m 8521,13252 h 3956 v 3194 H 8521 Z"
   id="path53"
   inkscape:connector-curvature="0" />
         </clipPath>
        </defs>
        <g
   clip-path="url(#clip_path_1)"
   id="g124">
         <path
   d="m 9652,15946 -882,-48 790,-679 -691,-371 737,-127 -264,-806 671,499 -21,-806 471,574 782,-788 -78,994 851,-495 -498,915 648,-18 -577,419 887,295 -889,394 444,404 -2010,-2 -643,147 z"
   id="path58"
   inkscape:connector-curvature="0"
   style="fill:#ffea59;stroke:none" />
         <path
   d="m 10524,16094 84,-5 78,-11 79,-20 74,-28 71,-35 66,-41 64,-46 58,-53 51,-56 46,-64 40,-66 36,-71 28,-74 20,-78 10,-79 5,-84 -5,-84 -10,-79 -20,-79 -28,-73 -36,-71 -40,-67 -46,-63 -51,-59 -58,-50 -64,-46 -66,-41 -71,-35 -74,-28 -79,-21 -78,-10 -84,-5 -84,5 -82,10 -76,21 -76,28 -71,35 -66,41 -64,46 -56,50 -53,59 -46,63 -40,67 -36,71 -28,73 -20,79 -11,79 -5,84 5,84 11,79 20,78 28,74 36,71 40,66 46,64 53,56 56,53 64,46 66,41 71,35 76,28 76,20 82,11 z"
   id="path60"
   inkscape:connector-curvature="0"
   style="fill:#009966;stroke:none" />
         <path
   d="m 10524,15941 66,-2 66,-11 63,-17 61,-21 56,-28 56,-33 51,-38 46,-43 43,-46 38,-51 33,-55 28,-56 20,-61 18,-64 10,-66 3,-66 -3,-66 -10,-66 -18,-64 -20,-58 -28,-59 -33,-53 -38,-51 -43,-46 -46,-43 -51,-38 -56,-33 -56,-28 -61,-20 -63,-18 -66,-10 -66,-3 -66,3 -67,10 -63,18 -61,20 -56,28 -56,33 -51,38 -45,43 -44,46 -38,51 -33,53 -28,59 -20,58 -18,64 -10,66 -3,66 3,66 10,66 18,64 20,61 28,56 33,55 38,51 44,46 45,43 51,38 56,33 56,28 61,21 63,17 67,11 z"
   id="path62"
   inkscape:connector-curvature="0"
   style="fill:#ffffff;stroke:none" />
         <path
   d="m 10473,14757 -13,99 -38,-92 z"
   id="path64"
   inkscape:connector-curvature="0"
   style="fill:#000000;stroke:none" />
         <path
   d="m 10338,14787 13,102 -61,-81 z"
   id="path66"
   inkscape:connector-curvature="0"
   style="fill:#000000;stroke:none" />
         <path
   d="m 10214,14853 40,89 -79,-58 z"
   id="path68"
   inkscape:connector-curvature="0"
   style="fill:#000000;stroke:none" />
         <path
   d="m 10112,14945 63,79 -94,-39 z"
   id="path70"
   inkscape:connector-curvature="0"
   style="fill:#000000;stroke:none" />
         <path
   d="m 10038,15062 82,61 -100,-13 z"
   id="path72"
   inkscape:connector-curvature="0"
   style="fill:#000000;stroke:none" />
         <path
   d="m 9998,15194 94,41 -100,10 z"
   id="path74"
   inkscape:connector-curvature="0"
   style="fill:#000000;stroke:none" />
         <path
   d="m 9992,15334 102,12 -94,39 z"
   id="path76"
   inkscape:connector-curvature="0"
   style="fill:#000000;stroke:none" />
         <path
   d="m 10023,15468 102,-12 -82,61 z"
   id="path78"
   inkscape:connector-curvature="0"
   style="fill:#000000;stroke:none" />
         <path
   d="m 10089,15593 94,-41 -63,79 z"
   id="path80"
   inkscape:connector-curvature="0"
   style="fill:#000000;stroke:none" />
         <path
   d="m 10183,15695 81,-64 -40,94 z"
   id="path82"
   inkscape:connector-curvature="0"
   style="fill:#000000;stroke:none" />
         <path
   d="m 10303,15768 61,-81 -16,99 z"
   id="path84"
   inkscape:connector-curvature="0"
   style="fill:#000000;stroke:none" />
         <path
   d="m 10435,15809 38,-94 13,99 z"
   id="path86"
   inkscape:connector-curvature="0"
   style="fill:#000000;stroke:none" />
         <path
   d="m 10572,15814 15,-102 36,94 z"
   id="path88"
   inkscape:connector-curvature="0"
   style="fill:#000000;stroke:none" />
         <path
   d="m 10709,15781 -13,-99 59,81 z"
   id="path90"
   inkscape:connector-curvature="0"
   style="fill:#000000;stroke:none" />
         <path
   d="m 10831,15718 -38,-95 79,61 z"
   id="path92"
   inkscape:connector-curvature="0"
   style="fill:#000000;stroke:none" />
         <path
   d="m 10933,15623 -61,-81 91,41 z"
   id="path94"
   inkscape:connector-curvature="0"
   style="fill:#000000;stroke:none" />
         <path
   d="m 11007,15504 -82,-61 102,15 z"
   id="path96"
   inkscape:connector-curvature="0"
   style="fill:#000000;stroke:none" />
         <path
   d="m 11047,15372 -94,-38 102,-13 z"
   id="path98"
   inkscape:connector-curvature="0"
   style="fill:#000000;stroke:none" />
         <path
   d="m 11052,15232 -99,-13 92,-35 z"
   id="path100"
   inkscape:connector-curvature="0"
   style="fill:#000000;stroke:none" />
         <path
   d="m 11022,15097 -102,13 81,-58 z"
   id="path102"
   inkscape:connector-curvature="0"
   style="fill:#000000;stroke:none" />
         <path
   d="m 10956,14975 -94,38 63,-76 z"
   id="path104"
   inkscape:connector-curvature="0"
   style="fill:#000000;stroke:none" />
         <path
   d="m 10862,14876 -82,61 41,-91 z"
   id="path106"
   inkscape:connector-curvature="0"
   style="fill:#000000;stroke:none" />
         <path
   d="m 10745,14802 -64,79 15,-96 z"
   id="path108"
   inkscape:connector-curvature="0"
   style="fill:#000000;stroke:none" />
         <path
   d="m 10613,14762 -41,94 -10,-102 z"
   id="path110"
   inkscape:connector-curvature="0"
   style="fill:#000000;stroke:none" />
         <path
   d="m 10544,15283 v -59 -94 -91 -51 h 8 7 8 2 l -48,-56 -43,56 h 2 6 5 7 v 51 91 94 59 l 3,10 5,5 7,5 11,3 7,-3 8,-5 2,-5 z"
   id="path112"
   inkscape:connector-curvature="0"
   style="fill:#000000;stroke:none" />
         <path
   d="m 10521,15257 h 26 48 61 66 66 61 43 20 v -7 -8 -5 -2 l 59,48 -59,43 v -2 -6 -7 -8 h -20 -43 -61 -66 -66 -61 -48 -26 l -10,-2 -5,-5 -5,-6 -3,-10 3,-10 5,-5 5,-5 z"
   id="path114"
   inkscape:connector-curvature="0"
   style="fill:#000000;stroke:none" />
         <path
   d="m 10829,13252 167,641 -226,-163 46,503 -219,-729 239,167 z"
   id="path116"
   inkscape:connector-curvature="0"
   style="fill:#dd0038;stroke:none" />
         <path
   d="m 11832,13519 -246,770 -125,-318 -287,549 257,-894 135,330 z"
   id="path118"
   inkscape:connector-curvature="0"
   style="fill:#dd0038;stroke:none" />
         <path
   d="m 12420,14345 -532,394 66,-269 -447,228 590,-473 -66,283 z"
   id="path120"
   inkscape:connector-curvature="0"
   style="fill:#dd0038;stroke:none" />
         <path
   d="m 10684,15974 h -23 -38 -49 -53 -53 -49 -38 -20 -18 -15 l -13,3 h -12 l -11,2 -7,5 -3,8 -2,8 -3,40 -2,71 -3,72 -2,45 -3,33 -8,44 -10,38 -13,18 -12,-13 -13,-36 -13,-40 -10,-39 -7,-30 -16,-58 -17,-77 -21,-86 -23,-89 -17,-84 -16,-74 -10,-51 -10,-48 -8,-2 -7,25 -3,28 -13,94 -15,153 -15,142 -8,71 -5,23 -5,20 -10,16 -15,7 -16,-5 -7,-18 -5,-23 -3,-28 v -45 l -2,-66 -8,-56 -15,-26 -18,10 -8,26 -5,28 v 23 l -2,28 -5,28 -13,22 -13,8 -12,-10 -11,-25 -7,-26 -3,-23 v -18 l -2,-20 -10,-15 -21,-8 h -23 -38 -48 -53 l -54,3 h -48 -36 -20 -18 -15 l -13,2 h -12 l -11,3 -7,5 -3,8 -2,7 -3,41 -2,71 -5,71 -3,46 -3,33 -7,43 -10,38 -13,18 -10,-15 -13,-36 -13,-40 -12,-39 -8,-30 -15,-58 -18,-77 -20,-86 -21,-89 -20,-84 -15,-71 -8,-51 -10,-48 -8,-3 -7,26 -5,28 -11,94 -17,152 -16,142 -7,72 -3,22 -5,21 -10,15 -15,8 -16,-5 -10,-18 -5,-26 -2,-28 v -45 l -3,-64 -5,-56 -15,-25 -18,7 -8,26 -5,28 v 23 l -2,28 -8,30 -10,20 -13,11 -12,-11 -11,-25 -7,-28 -3,-20 v -18 l -2,-20 -10,-16 -21,-7 h -23 -38 -48 -53 -54 -48 -36 -20 v -140 h 20 38 46 54 53 48 38 23 l 23,5 15,10 8,18 3,15 v 21 l 2,28 5,25 10,10 10,-10 6,-20 2,-31 v -28 l 3,-20 10,-26 15,-20 25,-8 21,23 7,54 v 61 43 28 l 3,25 5,18 13,5 12,-7 6,-16 v -20 l 2,-23 8,-71 15,-142 18,-153 12,-94 8,-28 13,-25 15,2 13,49 7,50 18,72 18,83 23,89 20,87 20,76 16,58 7,31 11,38 7,41 10,35 8,16 10,-8 5,-20 5,-26 v -25 -54 l 5,-83 3,-84 v -51 l 2,-8 3,-7 8,-5 10,-3 h 12 l 13,-3 h 15 18 21 38 50 56 59 51 40 23 l 23,6 15,10 8,17 3,16 v 23 l 2,25 5,25 10,11 13,-8 5,-23 3,-28 v -28 l 2,-20 8,-26 18,-22 22,-8 21,23 10,53 v 61 46 28 23 l 5,18 13,5 12,-5 6,-16 v -20 l 2,-23 8,-71 15,-145 18,-152 12,-94 8,-28 13,-26 15,3 13,48 10,51 15,74 20,83 23,89 21,87 20,76 15,58 8,31 8,38 10,41 7,35 8,13 10,-18 8,-38 5,-43 v -33 -43 l 2,-69 3,-63 v -41 l 2,-10 6,-5 7,-5 10,-6 h 13 l 13,-2 h 15 18 20 38 51 56 56 51 40 26 z"
   id="path122"
   inkscape:connector-curvature="0"
   style="fill:#dd0038;stroke:none" />
        </g>
       </g>
      </g>
     </g>
    </g>
   </g>
  </g>
 </g>
</svg>