<?xml version="1.0" encoding="UTF-8" standalone="no"?>
<svg
   xmlns:ooo="http://xml.openoffice.org/svg/export"
   xmlns:dc="http://purl.org/dc/elements/1.1/"
   xmlns:cc="http://creativecommons.org/ns#"
   xmlns:rdf="http://www.w3.org/1999/02/22-rdf-syntax-ns#"
   xmlns:svg="http://www.w3.org/2000/svg"
   xmlns="http://www.w3.org/2000/svg"
   xmlns:sodipodi="http://sodipodi.sourceforge.net/DTD/sodipodi-0.dtd"
   xmlns:inkscape="http://www.inkscape.org/namespaces/inkscape"
   version="1.2"
   width="36.419998mm"
   height="18.139999mm"
   viewBox="0 0 3641.9998 1813.9999"
   preserveAspectRatio="xMidYMid"
   xml:space="preserve"
   id="svg85"
   sodipodi:docname="clouds1.svg"
   style="fill-rule:evenodd;stroke-width:28.22200012;stroke-linejoin:round"
   inkscape:version="0.92.5 (2060ec1f9f, 2020-04-08)"><metadata
   id="metadata89"><rdf:RDF><cc:Work
       rdf:about=""><dc:format>image/svg+xml</dc:format><dc:type
         rdf:resource="http://purl.org/dc/dcmitype/StillImage" /></cc:Work></rdf:RDF></metadata><sodipodi:namedview
   pagecolor="#ffffff"
   bordercolor="#666666"
   borderopacity="1"
   objecttolerance="10"
   gridtolerance="10"
   guidetolerance="10"
   inkscape:pageopacity="0"
   inkscape:pageshadow="2"
   inkscape:window-width="664"
   inkscape:window-height="487"
   id="namedview87"
   showgrid="false"
   inkscape:zoom="0.2102413"
   inkscape:cx="68.825198"
   inkscape:cy="34.280313"
   inkscape:window-x="0"
   inkscape:window-y="0"
   inkscape:window-maximized="0"
   inkscape:current-layer="svg85" />
 <defs
   class="ClipPathGroup"
   id="defs8">
  <clipPath
   id="presentation_clip_path"
   clipPathUnits="userSpaceOnUse">
   <rect
   x="0"
   y="0"
   width="21000"
   height="29700"
   id="rect2" />
  </clipPath>
  <clipPath
   id="presentation_clip_path_shrink"
   clipPathUnits="userSpaceOnUse">
   <rect
   x="21"
   y="29"
   width="20958"
   height="29641"
   id="rect5" />
  </clipPath>
 </defs>
 <defs
   class="TextShapeIndex"
   id="defs12">
  <g
   ooo:slide="id1"
   ooo:id-list="id3"
   id="g10" />
 </defs>
 <defs
   class="EmbeddedBulletChars"
   id="defs44">
  <g
   id="bullet-char-template-57356"
   transform="matrix(4.8828125e-4,0,0,-4.8828125e-4,0,0)">
   <path
   d="M 580,1141 1163,571 580,0 -4,571 Z"
   id="path14"
   inkscape:connector-curvature="0" />
  </g>
  <g
   id="bullet-char-template-57354"
   transform="matrix(4.8828125e-4,0,0,-4.8828125e-4,0,0)">
   <path
   d="M 8,1128 H 1137 V 0 H 8 Z"
   id="path17"
   inkscape:connector-curvature="0" />
  </g>
  <g
   id="bullet-char-template-10146"
   transform="matrix(4.8828125e-4,0,0,-4.8828125e-4,0,0)">
   <path
   d="M 174,0 602,739 174,1481 1456,739 Z M 1358,739 309,1346 659,739 Z"
   id="path20"
   inkscape:connector-curvature="0" />
  </g>
  <g
   id="bullet-char-template-10132"
   transform="matrix(4.8828125e-4,0,0,-4.8828125e-4,0,0)">
   <path
   d="M 2015,739 1276,0 H 717 l 543,543 H 174 v 393 h 1086 l -543,545 h 557 z"
   id="path23"
   inkscape:connector-curvature="0" />
  </g>
  <g
   id="bullet-char-template-10007"
   transform="matrix(4.8828125e-4,0,0,-4.8828125e-4,0,0)">
   <path
   d="m 0,-2 c -7,16 -16,29 -25,39 l 381,530 c -94,256 -141,385 -141,387 0,25 13,38 40,38 9,0 21,-2 34,-5 21,4 42,12 65,25 l 27,-13 111,-251 280,301 64,-25 24,25 c 21,-10 41,-24 62,-43 C 886,937 835,863 770,784 769,783 710,716 594,584 L 774,223 c 0,-27 -21,-55 -63,-84 l 16,-20 C 717,90 699,76 672,76 641,76 570,178 457,381 L 164,-76 c -22,-34 -53,-51 -92,-51 -42,0 -63,17 -64,51 -7,9 -10,24 -10,44 0,9 1,19 2,30 z"
   id="path26"
   inkscape:connector-curvature="0" />
  </g>
  <g
   id="bullet-char-template-10004"
   transform="matrix(4.8828125e-4,0,0,-4.8828125e-4,0,0)">
   <path
   d="M 285,-33 C 182,-33 111,30 74,156 52,228 41,333 41,471 c 0,78 14,145 41,201 34,71 87,106 158,106 53,0 88,-31 106,-94 l 23,-176 c 8,-64 28,-97 59,-98 l 735,706 c 11,11 33,17 66,17 42,0 63,-15 63,-46 V 965 c 0,-36 -10,-64 -30,-84 L 442,47 C 390,-6 338,-33 285,-33 Z"
   id="path29"
   inkscape:connector-curvature="0" />
  </g>
  <g
   id="bullet-char-template-9679"
   transform="matrix(4.8828125e-4,0,0,-4.8828125e-4,0,0)">
   <path
   d="M 813,0 C 632,0 489,54 383,161 276,268 223,411 223,592 c 0,181 53,324 160,431 106,107 249,161 430,161 179,0 323,-54 432,-161 108,-107 162,-251 162,-431 0,-180 -54,-324 -162,-431 C 1136,54 992,0 813,0 Z"
   id="path32"
   inkscape:connector-curvature="0" />
  </g>
  <g
   id="bullet-char-template-8226"
   transform="matrix(4.8828125e-4,0,0,-4.8828125e-4,0,0)">
   <path
   d="m 346,457 c -73,0 -137,26 -191,78 -54,51 -81,114 -81,188 0,73 27,136 81,188 54,52 118,78 191,78 73,0 134,-26 185,-79 51,-51 77,-114 77,-187 0,-75 -25,-137 -76,-188 -50,-52 -112,-78 -186,-78 z"
   id="path35"
   inkscape:connector-curvature="0" />
  </g>
  <g
   id="bullet-char-template-8211"
   transform="matrix(4.8828125e-4,0,0,-4.8828125e-4,0,0)">
   <path
   d="M -4,459 H 1135 V 606 H -4 Z"
   id="path38"
   inkscape:connector-curvature="0" />
  </g>
  <g
   id="bullet-char-template-61548"
   transform="matrix(4.8828125e-4,0,0,-4.8828125e-4,0,0)">
   <path
   d="m 173,740 c 0,163 58,303 173,419 116,115 255,173 419,173 163,0 302,-58 418,-173 116,-116 174,-256 174,-419 0,-163 -58,-303 -174,-418 C 1067,206 928,148 765,148 601,148 462,206 346,322 231,437 173,577 173,740 Z"
   id="path41"
   inkscape:connector-curvature="0" />
  </g>
 </defs>
 <g
   id="g49"
   transform="translate(-8679,-13943)">
  <g
   id="id2"
   class="Master_Slide">
   <g
   id="bg-id2"
   class="Background" />
   <g
   id="bo-id2"
   class="BackgroundObjects" />
  </g>
 </g>
 <g
   class="SlideGroup"
   id="g83"
   transform="translate(-8679,-13943)">
  <g
   id="g81">
   <g
   id="container-id1">
    <g
   id="id1"
   class="Slide"
   clip-path="url(#presentation_clip_path)">
     <g
   class="Page"
   id="g77">
      <g
   class="Graphic"
   id="g75">
       <g
   id="id3">
        <rect
   class="BoundingBox"
   x="8679"
   y="13943"
   width="3642"
   height="1814"
   id="rect51"
   style="fill:none;stroke:none" />
        <defs
   id="defs56">
         <clipPath
   id="clip_path_1"
   clipPathUnits="userSpaceOnUse">
          <path
   d="m 8679,13943 h 3641 v 1813 H 8679 Z"
   id="path53"
   inkscape:connector-curvature="0" />
         </clipPath>
        </defs>
        <g
   clip-path="url(#clip_path_1)"
   id="g72">
         <path
   d="M 12321,15757 V 13968 H 8679 v 1789 z"
   id="path58"
   inkscape:connector-curvature="0"
   style="fill:#8cccf2;stroke:none" />
         <path
   d="M 9746,15556 H 8679 v -71 -161 -160 -74 l 15,-2 h 15 l 16,2 12,3 13,3 13,7 10,8 8,7 -3,-48 5,-43 15,-41 23,-33 26,-30 33,-23 35,-18 38,-10 41,-3 38,3 41,10 36,18 33,28 28,33 22,43 16,53 30,-38 46,-20 53,-3 54,10 50,28 41,39 23,48 3,58 h 40 l 33,11 28,17 23,26 15,28 10,33 -2,36 -8,35 38,3 31,12 23,26 18,28 7,33 3,36 -8,30 z"
   id="path60"
   inkscape:connector-curvature="0"
   style="fill:#0059bf;stroke:none" />
         <path
   d="M 11393,14905 H 9718 l -27,-44 -8,-33 13,-28 30,-20 -35,-38 -23,-36 -8,-38 3,-38 12,-33 21,-33 28,-28 35,-26 38,-20 41,-15 41,-10 h 40 l 38,5 36,15 30,23 23,33 18,-54 31,-43 38,-28 43,-20 43,-8 h 41 l 35,10 26,21 -3,-54 8,-51 15,-43 26,-38 30,-33 36,-25 38,-21 43,-10 43,-5 46,5 41,10 40,21 36,30 33,38 23,51 18,59 33,-44 50,-23 59,-5 61,13 56,31 46,43 27,53 3,66 h 43 l 38,13 31,21 25,25 18,33 10,36 v 40 l -10,39 43,2 33,15 26,26 18,33 10,38 2,36 -7,35 z"
   id="path62"
   inkscape:connector-curvature="0"
   style="fill:#0059bf;stroke:none" />
         <path
   d="M 11121,14757 H 9599 l -25,-38 -5,-31 10,-25 25,-18 -33,-33 -20,-35 -8,-34 3,-33 12,-33 21,-28 25,-28 31,-23 35,-17 36,-13 38,-10 h 38 l 33,5 33,13 28,20 20,30 18,-48 26,-38 35,-28 38,-18 41,-8 38,3 31,10 22,18 -2,-48 8,-46 15,-41 20,-35 31,-28 30,-23 38,-18 38,-13 41,-2 38,2 41,10 35,21 33,25 28,36 23,46 16,53 30,-41 43,-20 54,-5 56,13 50,25 41,41 25,51 3,58 h 41 l 33,10 28,18 22,25 16,31 10,33 -3,33 -7,36 38,2 33,16 23,22 18,31 7,33 3,36 -8,28 z"
   id="path64"
   inkscape:connector-curvature="0"
   style="fill:#ffffff;stroke:none" />
         <path
   d="m 9500,15424 h -821 v -570 l 41,-28 48,-21 48,-5 51,5 48,21 41,33 33,48 23,66 28,-35 41,-21 48,-2 48,10 46,23 38,36 20,43 3,53 h 35 l 31,10 28,16 20,23 13,28 8,28 v 33 l -8,30 36,3 27,12 21,23 15,26 8,30 v 31 l -5,28 z"
   id="path66"
   inkscape:connector-curvature="0"
   style="fill:#ffffff;stroke:none" />
         <path
   d="m 12321,15553 h -1078 l -28,-35 -7,-28 10,-26 30,-22 -35,-36 -23,-38 -8,-38 3,-36 13,-33 23,-33 27,-28 36,-26 36,-20 40,-15 44,-8 40,-2 38,5 33,15 31,23 23,33 20,-54 31,-43 38,-30 43,-21 43,-7 41,2 35,10 26,18 -3,-53 8,-49 15,-43 25,-38 31,-33 36,-25 40,-18 41,-13 43,-3 46,3 43,13 38,20 38,31 31,38 25,51 18,58 z"
   id="path68"
   inkscape:connector-curvature="0"
   style="fill:#0059bf;stroke:none" />
         <path
   d="m 12321,15421 h -1200 l -25,-38 -5,-33 10,-23 28,-20 -33,-33 -20,-33 -8,-36 3,-33 12,-31 18,-28 28,-28 31,-23 33,-17 38,-13 35,-10 h 38 l 36,5 30,13 28,20 21,30 18,-48 28,-38 35,-28 38,-18 38,-8 38,3 33,10 23,18 -2,-48 5,-46 15,-41 23,-33 28,-30 33,-23 36,-18 38,-10 40,-5 41,5 38,10 38,20 33,26 28,35 23,46 15,54 16,-26 23,-20 25,-13 28,-8 h 33 l 30,3 34,10 30,15 z"
   id="path70"
   inkscape:connector-curvature="0"
   style="fill:#ffffff;stroke:none" />
        </g>
       </g>
      </g>
     </g>
    </g>
   </g>
  </g>
 </g>
</svg>