<?xml version="1.0" encoding="UTF-8" standalone="no"?>
<svg
   xmlns:ooo="http://xml.openoffice.org/svg/export"
   xmlns:dc="http://purl.org/dc/elements/1.1/"
   xmlns:cc="http://creativecommons.org/ns#"
   xmlns:rdf="http://www.w3.org/1999/02/22-rdf-syntax-ns#"
   xmlns:svg="http://www.w3.org/2000/svg"
   xmlns="http://www.w3.org/2000/svg"
   xmlns:sodipodi="http://sodipodi.sourceforge.net/DTD/sodipodi-0.dtd"
   xmlns:inkscape="http://www.inkscape.org/namespaces/inkscape"
   version="1.2"
   width="49.889999mm"
   height="46.48mm"
   viewBox="0 0 4988.9999 4648"
   preserveAspectRatio="xMidYMid"
   xml:space="preserve"
   id="svg841"
   sodipodi:docname="cmputer3.svg"
   style="fill-rule:evenodd;stroke-width:28.22200012;stroke-linejoin:round"
   inkscape:version="0.92.5 (2060ec1f9f, 2020-04-08)"><metadata
   id="metadata845"><rdf:RDF><cc:Work
       rdf:about=""><dc:format>image/svg+xml</dc:format><dc:type
         rdf:resource="http://purl.org/dc/dcmitype/StillImage" /></cc:Work></rdf:RDF></metadata><sodipodi:namedview
   pagecolor="#ffffff"
   bordercolor="#666666"
   borderopacity="1"
   objecttolerance="10"
   gridtolerance="10"
   guidetolerance="10"
   inkscape:pageopacity="0"
   inkscape:pageshadow="2"
   inkscape:window-width="664"
   inkscape:window-height="487"
   id="namedview843"
   showgrid="false"
   inkscape:zoom="0.2102413"
   inkscape:cx="94.299213"
   inkscape:cy="87.836219"
   inkscape:window-x="0"
   inkscape:window-y="0"
   inkscape:window-maximized="0"
   inkscape:current-layer="svg841" />
 <defs
   class="ClipPathGroup"
   id="defs8">
  <clipPath
   id="presentation_clip_path"
   clipPathUnits="userSpaceOnUse">
   <rect
   x="0"
   y="0"
   width="21000"
   height="29700"
   id="rect2" />
  </clipPath>
  <clipPath
   id="presentation_clip_path_shrink"
   clipPathUnits="userSpaceOnUse">
   <rect
   x="21"
   y="29"
   width="20958"
   height="29641"
   id="rect5" />
  </clipPath>
 </defs>
 <defs
   class="TextShapeIndex"
   id="defs12">
  <g
   ooo:slide="id1"
   ooo:id-list="id3"
   id="g10" />
 </defs>
 <defs
   class="EmbeddedBulletChars"
   id="defs44">
  <g
   id="bullet-char-template-57356"
   transform="matrix(4.8828125e-4,0,0,-4.8828125e-4,0,0)">
   <path
   d="M 580,1141 1163,571 580,0 -4,571 Z"
   id="path14"
   inkscape:connector-curvature="0" />
  </g>
  <g
   id="bullet-char-template-57354"
   transform="matrix(4.8828125e-4,0,0,-4.8828125e-4,0,0)">
   <path
   d="M 8,1128 H 1137 V 0 H 8 Z"
   id="path17"
   inkscape:connector-curvature="0" />
  </g>
  <g
   id="bullet-char-template-10146"
   transform="matrix(4.8828125e-4,0,0,-4.8828125e-4,0,0)">
   <path
   d="M 174,0 602,739 174,1481 1456,739 Z M 1358,739 309,1346 659,739 Z"
   id="path20"
   inkscape:connector-curvature="0" />
  </g>
  <g
   id="bullet-char-template-10132"
   transform="matrix(4.8828125e-4,0,0,-4.8828125e-4,0,0)">
   <path
   d="M 2015,739 1276,0 H 717 l 543,543 H 174 v 393 h 1086 l -543,545 h 557 z"
   id="path23"
   inkscape:connector-curvature="0" />
  </g>
  <g
   id="bullet-char-template-10007"
   transform="matrix(4.8828125e-4,0,0,-4.8828125e-4,0,0)">
   <path
   d="m 0,-2 c -7,16 -16,29 -25,39 l 381,530 c -94,256 -141,385 -141,387 0,25 13,38 40,38 9,0 21,-2 34,-5 21,4 42,12 65,25 l 27,-13 111,-251 280,301 64,-25 24,25 c 21,-10 41,-24 62,-43 C 886,937 835,863 770,784 769,783 710,716 594,584 L 774,223 c 0,-27 -21,-55 -63,-84 l 16,-20 C 717,90 699,76 672,76 641,76 570,178 457,381 L 164,-76 c -22,-34 -53,-51 -92,-51 -42,0 -63,17 -64,51 -7,9 -10,24 -10,44 0,9 1,19 2,30 z"
   id="path26"
   inkscape:connector-curvature="0" />
  </g>
  <g
   id="bullet-char-template-10004"
   transform="matrix(4.8828125e-4,0,0,-4.8828125e-4,0,0)">
   <path
   d="M 285,-33 C 182,-33 111,30 74,156 52,228 41,333 41,471 c 0,78 14,145 41,201 34,71 87,106 158,106 53,0 88,-31 106,-94 l 23,-176 c 8,-64 28,-97 59,-98 l 735,706 c 11,11 33,17 66,17 42,0 63,-15 63,-46 V 965 c 0,-36 -10,-64 -30,-84 L 442,47 C 390,-6 338,-33 285,-33 Z"
   id="path29"
   inkscape:connector-curvature="0" />
  </g>
  <g
   id="bullet-char-template-9679"
   transform="matrix(4.8828125e-4,0,0,-4.8828125e-4,0,0)">
   <path
   d="M 813,0 C 632,0 489,54 383,161 276,268 223,411 223,592 c 0,181 53,324 160,431 106,107 249,161 430,161 179,0 323,-54 432,-161 108,-107 162,-251 162,-431 0,-180 -54,-324 -162,-431 C 1136,54 992,0 813,0 Z"
   id="path32"
   inkscape:connector-curvature="0" />
  </g>
  <g
   id="bullet-char-template-8226"
   transform="matrix(4.8828125e-4,0,0,-4.8828125e-4,0,0)">
   <path
   d="m 346,457 c -73,0 -137,26 -191,78 -54,51 -81,114 -81,188 0,73 27,136 81,188 54,52 118,78 191,78 73,0 134,-26 185,-79 51,-51 77,-114 77,-187 0,-75 -25,-137 -76,-188 -50,-52 -112,-78 -186,-78 z"
   id="path35"
   inkscape:connector-curvature="0" />
  </g>
  <g
   id="bullet-char-template-8211"
   transform="matrix(4.8828125e-4,0,0,-4.8828125e-4,0,0)">
   <path
   d="M -4,459 H 1135 V 606 H -4 Z"
   id="path38"
   inkscape:connector-curvature="0" />
  </g>
  <g
   id="bullet-char-template-61548"
   transform="matrix(4.8828125e-4,0,0,-4.8828125e-4,0,0)">
   <path
   d="m 173,740 c 0,163 58,303 173,419 116,115 255,173 419,173 163,0 302,-58 418,-173 116,-116 174,-256 174,-419 0,-163 -58,-303 -174,-418 C 1067,206 928,148 765,148 601,148 462,206 346,322 231,437 173,577 173,740 Z"
   id="path41"
   inkscape:connector-curvature="0" />
  </g>
 </defs>
 <g
   id="g49"
   transform="translate(-8005,-12526)">
  <g
   id="id2"
   class="Master_Slide">
   <g
   id="bg-id2"
   class="Background" />
   <g
   id="bo-id2"
   class="BackgroundObjects" />
  </g>
 </g>
 <g
   class="SlideGroup"
   id="g839"
   transform="translate(-8005,-12526)">
  <g
   id="g837">
   <g
   id="container-id1">
    <g
   id="id1"
   class="Slide"
   clip-path="url(#presentation_clip_path)">
     <g
   class="Page"
   id="g833">
      <g
   class="Graphic"
   id="g831">
       <g
   id="id3">
        <rect
   class="BoundingBox"
   x="8005"
   y="12526"
   width="4989"
   height="4648"
   id="rect51"
   style="fill:none;stroke:none" />
        <defs
   id="defs56">
         <clipPath
   id="clip_path_1"
   clipPathUnits="userSpaceOnUse">
          <path
   d="m 8005,12526 h 4988 v 4647 H 8005 Z"
   id="path53"
   inkscape:connector-curvature="0" />
         </clipPath>
        </defs>
        <g
   clip-path="url(#clip_path_1)"
   id="g828">
         <path
   d="m 12986,14643 -826,-750 -7,-5 h -5 l -8,3 -5,2 -1784,1987 -5,6 v 7 8 l 5,5 46,41 -11,20 -10,20 -12,21 -13,20 -13,18 -10,12 -10,8 -8,5 -15,-2 -15,-3 -13,-8 -13,-10 -5,-5 -2,-7 -3,-8 v -10 l 3,-38 -3,-46 -10,-43 -15,-28 -5,-3 -6,-2 h -5 -5 l -12,10 -11,20 -5,33 -2,43 v 28 l -3,26 -2,25 -5,18 v 2 l -3,8 -5,8 v 2 l -5,18 -8,18 -7,18 -10,17 -8,18 -13,13 -12,10 -13,5 -15,3 h -13 l -10,-3 -10,-5 -6,-5 -5,-8 -2,-7 v -10 l -3,-13 -10,-13 -15,-13 -18,-10 -13,-5 -15,-2 h -15 -15 l -13,2 -15,5 -11,8 -10,8 -17,33 -11,45 v 49 l 8,43 8,18 12,12 10,8 11,5 10,3 h 10 10 l 10,2 h 8 10 l 10,-2 h 10 18 18 l 15,2 13,5 13,8 17,12 26,18 28,21 33,22 33,23 30,26 31,23 -153,190 -2,5 v 8 8 l 5,5 455,447 5,2 h 8 7 l 5,-5 234,-287 3,-5 v -7 -8 l -5,-5 -458,-447 -8,-6 h -5 -7 l -5,6 -61,76 -33,-23 -33,-26 -33,-25 -31,-23 -30,-20 -26,-18 -18,-13 -12,-7 -8,-3 -8,-2 -10,-3 -7,-2 h -11 -10 -12 -11 l -17,2 h -21 l -17,-2 -18,-3 -5,-2 -5,-6 -6,-7 -5,-10 -7,-36 2,-43 8,-38 13,-26 7,-5 8,-2 8,-3 12,-2 h 10 l 11,2 10,3 10,2 13,5 10,5 2,5 3,6 2,15 3,15 8,13 10,10 15,8 18,5 h 20 l 20,-3 18,-8 15,-12 16,-15 10,-18 10,-21 10,-20 8,-23 7,-20 8,-18 5,-23 3,-25 2,-28 3,-28 2,-20 v -23 l 3,-21 2,-15 8,23 5,33 3,38 v 33 15 l 2,13 5,13 8,10 8,8 7,7 10,5 10,5 11,3 10,2 10,3 h 10 l 13,-3 15,-10 15,-15 16,-18 12,-20 16,-23 12,-23 10,-20 755,689 8,5 h 5 l 8,-3 5,-2 1786,-1988 5,-5 v -7 -8 z"
   id="path58"
   inkscape:connector-curvature="0"
   style="fill:#c4baad;stroke:none" />
         <path
   d="m 10104,15492 31,-21 30,-23 33,-22 33,-21 31,-18 28,-17 23,-10 20,-8 38,-8 33,-10 33,-8 31,-10 25,-7 26,-8 22,-10 21,-8 18,-7 22,-5 28,-3 28,-3 h 33 l 39,3 40,5 43,5 v 0 h 5 l 6,-2 2,-3 3,-5 v -5 l -3,-5 -5,-3 -5,-2 -46,-8 -43,-2 -38,-3 h -36 l -30,3 -28,2 -26,8 -20,7 -20,8 -21,8 -25,7 -25,10 -31,8 -30,8 -36,10 -36,7 -20,8 -25,10 -28,16 -31,20 -33,20 -35,23 -33,23 -33,23 -41,30 -43,28 -41,28 -38,23 -38,20 -33,18 -33,13 -28,13 -28,7 h -3 -2 l -5,3 h -3 l -33,7 -41,11 -43,10 -46,10 -43,8 -41,2 -35,-2 -26,-8 -5,-3 -2,-2 -3,-5 -2,-3 v -5 l -3,-2 -5,-3 h -5 l -2,-3 -8,6 -13,7 -15,8 -13,7 -10,3 -5,-5 3,-13 2,-15 -5,-13 -10,-7 -15,-3 -16,-2 -15,5 -15,5 -13,7 5,-23 -5,-17 -7,-16 -11,-7 -15,-3 -18,3 -17,7 -16,13 8,-23 -3,-15 -10,-8 h -13 l -15,3 -15,10 -13,10 -10,13 8,-25 v -21 l -8,-15 -10,-10 -13,-5 h -15 l -15,2 -13,8 3,-23 -6,-18 -10,-15 -17,-8 -18,-5 -21,3 -17,5 -13,13 v -26 l -3,-20 -10,-13 -13,-5 h -15 l -15,3 -13,7 -10,10 3,-25 -5,-18 -11,-10 -15,-5 h -18 l -17,5 -16,10 -12,13 -8,-20 -8,-16 -12,-10 -13,-7 h -15 l -13,2 -13,8 -10,12 3,-22 -5,-18 -11,-13 -12,-8 -18,-2 -20,2 -21,11 -20,12 10,-25 v -18 l -5,-15 -8,-10 -12,-3 -16,-2 -12,2 -13,5 8,-23 v -17 l -8,-16 -10,-12 -15,-11 -16,-2 h -17 l -16,8 8,-13 8,-18 5,-15 2,-15 -2,-13 -11,-8 h -20 l -30,8 10,-28 -3,-26 -10,-17 -18,-8 26,-10 12,-13 3,-15 -3,-13 -7,-13 -13,-10 -13,-10 -15,-5 26,-13 15,-12 7,-18 v -18 l -2,-15 -10,-13 -13,-10 -13,-5 13,-13 5,-15 -2,-13 -11,-15 -12,-13 -16,-7 -15,-5 -15,2 13,-13 5,-12 v -13 l -8,-13 -13,-10 -15,-10 -15,-5 -15,-3 7,-17 3,-18 -5,-21 -10,-17 -13,-16 -15,-10 -13,-5 h -10 l 35,-20 10,-26 -7,-25 -15,-20 35,-18 5,-23 -10,-23 -18,-23 h 28 l 18,-7 15,-11 8,-15 v -18 l -3,-15 -5,-13 -10,-7 26,-8 10,-20 -3,-20 -10,-21 36,5 17,-20 5,-31 -2,-30 h 28 l 18,-20 5,-23 2,-13 23,10 18,3 15,-5 10,-10 8,-13 5,-15 3,-13 v -13 l 23,5 12,-10 8,-20 5,-23 10,2 13,3 h 13 10 l 10,-5 7,-8 v -10 l -2,-18 13,5 10,3 10,2 5,-2 8,89 10,79 10,66 8,45 25,11 28,10 28,10 28,10 30,8 31,10 33,8 33,7 v 36 30 26 17 3 3 2 l 3,3 749,935 3,2 5,3 2,2 3,3 h 3 l 5,-3 h 2 l 3,-2 1898,-1184 3,-3 2,-2 v -3 l 3,-3 v -60 -115 -117 -68 0 l -3,2 v 0 l -2,3 2,-3 v 0 h 3 v -2 -3 -5 -3 l -3,-2 -419,-597 v -18 l 2,-18 v -15 -13 h -10 -12 -11 l -12,3 -173,-249 -3,-3 -2,-2 -5,-3 h -3 -2 -3 -5 l -3,3 -73,43 -10,-97 -8,-96 -3,-89 -2,-77 h -20 -28 -31 -35 l -41,-2 h -43 -49 l -50,-3 h -56 l -56,-2 h -59 l -61,-3 h -63 l -66,-2 h -66 l -66,-3 -67,-2 -68,-3 h -66 l -66,-2 -66,-3 -67,-2 h -63 l -61,-3 -61,-3 -56,-2 -56,-3 -51,-2 h -48 l -46,-3 -40,-2 -36,-3 -20,59 -21,61 -23,68 -22,69 -23,68 -23,67 -20,63 -21,59 h -20 -20 -21 -18 -17 -18 -15 -16 l -17,61 -21,81 -25,94 -23,99 -26,99 -20,89 -18,71 -10,51 -7,38 -5,43 v 51 54 l -11,-21 -5,-5 -5,8 -2,28 -16,-13 -12,-5 -16,2 -10,8 -10,13 -8,12 -2,16 v 15 l -25,-10 h -21 l -15,5 -10,10 -5,13 -3,15 3,15 7,16 -28,-8 h -23 l -15,8 -10,10 -8,15 -2,15 2,15 6,16 -28,-13 -23,-3 -18,6 -13,12 -7,18 -3,20 5,18 8,15 h -26 l -17,5 -16,6 -10,10 -2,12 -3,11 5,12 8,13 -33,3 -21,7 -10,10 v 13 l 5,13 10,12 11,13 7,13 -33,7 -20,13 -13,18 -5,18 v 20 l 5,18 10,13 13,10 -25,2 -18,5 -8,8 -5,10 3,13 5,13 10,15 13,13 -26,15 -15,15 -5,15 5,13 8,13 12,12 13,11 15,5 -18,17 -10,13 v 13 l 3,10 10,8 10,7 15,5 13,5 -23,23 -10,16 3,12 12,8 16,5 20,5 18,3 17,5 -22,25 -8,18 3,15 10,10 15,8 18,2 18,6 15,2 -26,25 -15,21 -5,23 3,17 7,16 13,10 15,7 15,3 -25,28 -13,25 -2,26 7,20 13,18 15,13 18,10 18,2 -13,23 -5,23 -2,20 5,18 10,13 15,5 h 23 l 28,-10 -10,23 v 23 l 5,15 13,13 15,10 18,5 17,2 18,-2 -2,33 2,20 8,15 15,8 15,3 18,-3 18,-3 18,-5 v 31 l 5,20 12,10 16,5 17,-2 23,-5 23,-5 26,-5 5,17 7,18 10,13 13,10 18,3 18,-3 20,-13 23,-20 v 15 l 3,18 2,15 8,16 10,10 15,2 18,-5 25,-18 3,16 2,15 5,18 8,12 13,11 18,5 25,-5 31,-11 2,16 3,17 5,21 7,15 10,10 16,3 20,-5 28,-16 3,11 5,12 5,13 7,13 11,5 h 12 l 21,-10 28,-23 -3,23 3,17 10,16 15,7 15,3 21,-3 17,-10 18,-18 -5,21 5,20 8,15 15,10 13,8 15,3 13,-5 10,-11 10,-17 10,-18 10,-13 8,-13 2,8 6,8 7,5 8,5 23,10 30,2 h 38 l 41,-2 46,-8 48,-10 51,-13 51,-12 12,-3 28,-10 31,-10 33,-15 35,-21 39,-20 38,-23 43,-28 43,-28 8,-5 15,-10 13,-10 z"
   id="path60"
   inkscape:connector-curvature="0"
   style="fill:#c4baad;stroke:none" />
         <path
   d="m 9718,15057 h -3 l -2,-2 -5,-3 -3,-3 3,3 h 5 l 2,3 3,2 h 3 5 2 l 3,-2 -3,2 h -2 -5 z"
   id="path62"
   inkscape:connector-curvature="0"
   style="fill:#c4baad;stroke:none" />
         <path
   d="m 8590,13847 -6,8 3,10 8,5 10,-2 z"
   id="path64"
   inkscape:connector-curvature="0"
   style="fill:#000000;stroke:none" />
         <path
   d="m 8882,13591 v 0 l -31,23 -38,30 -40,36 -41,38 -43,38 -38,38 -33,31 -28,22 15,21 28,-23 33,-36 38,-33 43,-38 41,-38 40,-36 39,-30 30,-23 v 0 z"
   id="path66"
   inkscape:connector-curvature="0"
   style="fill:#000000;stroke:none" />
         <path
   d="m 9060,13354 v 0 l -43,11 -31,25 -20,33 -18,36 -15,43 -13,35 -18,31 -20,23 15,20 25,-28 18,-35 18,-41 15,-38 13,-36 20,-28 21,-20 33,-5 v 0 z"
   id="path68"
   inkscape:connector-curvature="0"
   style="fill:#000000;stroke:none" />
         <path
   d="m 9233,13560 v 0 l -11,-35 -7,-36 -13,-35 -15,-31 -23,-28 -25,-20 -36,-15 -43,-6 v 26 l 38,5 30,10 21,15 17,23 11,31 12,30 8,36 10,35 v 0 z"
   id="path70"
   inkscape:connector-curvature="0"
   style="fill:#000000;stroke:none" />
         <path
   d="m 9332,13746 -8,-5 -13,-13 -15,-18 -15,-23 -15,-28 -11,-28 -12,-35 -10,-36 -26,5 10,36 13,36 15,33 16,28 15,27 15,18 18,18 18,10 z"
   id="path72"
   inkscape:connector-curvature="0"
   style="fill:#000000;stroke:none" />
         <path
   d="m 9327,13771 10,-2 5,-8 -3,-10 -7,-5 z"
   id="path74"
   inkscape:connector-curvature="0"
   style="fill:#000000;stroke:none" />
         <path
   d="m 10707,15235 7,-5 5,-8 -5,-7 -7,-5 z"
   id="path76"
   inkscape:connector-curvature="0"
   style="fill:#000000;stroke:none" />
         <path
   d="m 10452,15238 v 0 l 26,-8 28,-5 33,-3 h 33 36 l 35,5 33,3 31,5 v -25 l -31,-5 -33,-3 -35,-5 h -36 -33 l -33,2 -33,6 -31,12 v 0 z"
   id="path78"
   inkscape:connector-curvature="0"
   style="fill:#000000;stroke:none" />
         <path
   d="m 10224,15309 v 0 l 23,-5 28,-8 28,-8 30,-7 31,-10 30,-8 33,-13 25,-12 -10,-21 -25,8 -28,13 -31,7 -30,10 -31,8 -28,8 -27,7 -23,5 v 0 z"
   id="path80"
   inkscape:connector-curvature="0"
   style="fill:#000000;stroke:none" />
         <path
   d="m 9954,15476 v 0 l 33,-22 36,-26 38,-25 38,-28 36,-23 35,-20 31,-18 23,-5 -5,-26 -28,10 -31,18 -35,21 -41,22 -38,28 -38,26 -36,25 -33,23 v 0 z"
   id="path82"
   inkscape:connector-curvature="0"
   style="fill:#000000;stroke:none" />
         <path
   d="m 9662,15631 v 0 l 36,-10 38,-15 38,-20 38,-21 38,-23 36,-22 38,-21 30,-23 -15,-20 -30,23 -33,20 -36,23 -38,23 -38,20 -38,16 -33,15 -36,10 v 0 z"
   id="path84"
   inkscape:connector-curvature="0"
   style="fill:#000000;stroke:none" />
         <path
   d="m 9299,15639 20,28 41,15 h 45 l 54,-5 58,-10 54,-13 50,-12 41,-11 -5,-25 -41,10 -51,13 -53,13 -53,10 -54,5 h -45 l -26,-10 -10,-13 z"
   id="path86"
   inkscape:connector-curvature="0"
   style="fill:#000000;stroke:none" />
         <path
   d="m 9324,15634 -5,-8 -10,-2 -8,5 -2,10 z"
   id="path88"
   inkscape:connector-curvature="0"
   style="fill:#000000;stroke:none" />
         <path
   d="m 12869,14564 6,-5 v -8 l -3,-5 -3,-5 -828,-749 -5,-6 h -8 -5 l -5,6 -1787,1987 -2,5 v 8 7 l 5,5 823,750 5,2 h 8 8 l 5,-5 z"
   id="path90"
   inkscape:connector-curvature="0"
   style="fill:#d3bfa8;stroke:none" />
         <path
   d="m 12862,14551 v -2 2 3 0 0 l 15,20 10,-10 v -15 l -5,-8 -5,-7 v -3 3 l -8,-3 -7,3 -3,7 3,8 z"
   id="path92"
   inkscape:connector-curvature="0"
   style="fill:#000000;stroke:none" />
         <path
   d="m 12033,13799 v 3 l 829,749 15,-20 -828,-750 v 3 -3 l -11,-2 -7,5 -3,8 5,10 z"
   id="path94"
   inkscape:connector-curvature="0"
   style="fill:#000000;stroke:none" />
         <path
   d="m 12028,13799 v 0 -2 2 h 3 2 l 16,-15 -8,-10 h -13 l -10,2 -10,8 v 0 0 l -3,10 5,8 11,2 z"
   id="path96"
   inkscape:connector-curvature="0"
   style="fill:#000000;stroke:none" />
         <path
   d="m 10242,15786 v 0 l 1786,-1987 -20,-15 -1787,1987 v 0 0 l -2,10 5,8 10,3 z"
   id="path98"
   inkscape:connector-curvature="0"
   style="fill:#000000;stroke:none" />
         <path
   d="m 10242,15794 v 3 -3 -2 -6 0 l -21,-15 -5,10 v 11 12 l 10,8 v 2 -2 l 8,2 8,-2 2,-8 -2,-7 z"
   id="path100"
   inkscape:connector-curvature="0"
   style="fill:#000000;stroke:none" />
         <path
   d="m 11065,16544 v 0 l -823,-750 -16,20 824,750 v 0 0 l 10,3 8,-5 2,-11 z"
   id="path102"
   inkscape:connector-curvature="0"
   style="fill:#000000;stroke:none" />
         <path
   d="m 11073,16544 h 2 -2 -3 -5 v 0 l -15,20 10,5 h 10 13 l 7,-10 h 3 -3 l 3,-8 -3,-7 -7,-3 -8,3 z"
   id="path104"
   inkscape:connector-curvature="0"
   style="fill:#000000;stroke:none" />
         <path
   d="m 12862,14554 -3,2 -1786,1988 20,15 1787,-1987 -3,2 3,-2 2,-10 -5,-8 -8,-3 -10,5 z"
   id="path106"
   inkscape:connector-curvature="0"
   style="fill:#000000;stroke:none" />
         <path
   d="m 12735,14546 5,-5 v -7 l -3,-5 -2,-6 -422,-383 -8,-5 h -5 -7 l -6,5 -233,254 -5,5 v 8 7 l 5,5 416,394 8,3 h 5 8 l 5,-5 z"
   id="path108"
   inkscape:connector-curvature="0"
   style="fill:#a87f51;stroke:none" />
         <path
   d="m 12727,14534 v -3 3 2 0 3 l 15,15 11,-8 v -15 l -6,-8 -5,-7 v -3 3 l -7,-3 -8,3 -2,7 2,8 z"
   id="path110"
   inkscape:connector-curvature="0"
   style="fill:#000000;stroke:none" />
         <path
   d="m 12305,14147 v 3 l 422,384 15,-21 -422,-383 v 2 -2 l -10,-3 -7,5 -3,8 5,10 z"
   id="path112"
   inkscape:connector-curvature="0"
   style="fill:#000000;stroke:none" />
         <path
   d="m 12298,14147 v 0 0 h 2 v 0 h 5 l 15,-15 -10,-10 h -10 -13 l -10,10 v 0 0 l -2,10 5,8 10,2 z"
   id="path114"
   inkscape:connector-curvature="0"
   style="fill:#000000;stroke:none" />
         <path
   d="m 12061,14401 h 3 l 234,-254 -21,-15 -234,254 h 3 -3 l -2,10 5,8 10,3 8,-6 z"
   id="path116"
   inkscape:connector-curvature="0"
   style="fill:#000000;stroke:none" />
         <path
   d="m 12061,14412 v 0 -3 -2 -3 -3 l -15,-15 -10,8 v 13 12 l 10,8 v 0 0 l 8,2 7,-2 3,-8 z"
   id="path118"
   inkscape:connector-curvature="0"
   style="fill:#000000;stroke:none" />
         <path
   d="m 12478,14803 v 3 l -417,-394 -15,15 417,394 v 2 -2 l 7,2 8,-2 3,-8 -3,-7 z"
   id="path120"
   inkscape:connector-curvature="0"
   style="fill:#000000;stroke:none" />
         <path
   d="m 12486,14803 v 0 0 h -3 -2 -3 l -15,20 13,5 h 7 13 l 10,-10 v 0 0 l 3,-10 -6,-8 -7,-2 z"
   id="path122"
   inkscape:connector-curvature="0"
   style="fill:#000000;stroke:none" />
         <path
   d="m 12727,14539 h -2 l -239,264 20,15 239,-264 h -3 3 l 2,-10 -5,-8 -7,-2 -10,5 z"
   id="path124"
   inkscape:connector-curvature="0"
   style="fill:#000000;stroke:none" />
         <path
   d="m 12117,15225 5,-5 v -8 -5 l -5,-5 -424,-386 -5,-3 h -8 -5 l -5,5 -1080,1187 -3,5 v 8 l 3,7 2,5 422,389 5,3 h 8 7 l 6,-5 z"
   id="path126"
   inkscape:connector-curvature="0"
   style="fill:#a87f51;stroke:none" />
         <path
   d="m 12110,15212 v 0 h 2 -2 v 3 2 l 15,15 10,-7 v -13 l -3,-10 -7,-10 v 0 0 l -10,-3 -8,5 -3,8 z"
   id="path128"
   inkscape:connector-curvature="0"
   style="fill:#000000;stroke:none" />
         <path
   d="m 11685,14826 v 0 l 425,386 15,-20 -425,-386 v 0 0 l -10,-3 -7,5 -3,8 z"
   id="path130"
   inkscape:connector-curvature="0"
   style="fill:#000000;stroke:none" />
         <path
   d="m 11680,14826 v 0 -3 3 h 5 v 0 l 15,-20 -10,-6 h -10 l -10,3 -10,8 v 0 0 l -3,10 5,7 10,3 z"
   id="path132"
   inkscape:connector-curvature="0"
   style="fill:#000000;stroke:none" />
         <path
   d="m 10602,16008 -2,5 1080,-1187 -20,-15 -1080,1186 -3,5 3,-5 -3,11 5,7 10,3 8,-5 z"
   id="path134"
   inkscape:connector-curvature="0"
   style="fill:#000000;stroke:none" />
         <path
   d="m 10600,16020 2,3 v -3 l -2,-2 v -5 l 2,-5 -25,-6 -3,6 v 10 l 3,12 5,8 3,3 -3,-3 10,5 8,-2 5,-8 -3,-10 z"
   id="path136"
   inkscape:connector-curvature="0"
   style="fill:#000000;stroke:none" />
         <path
   d="m 11022,16409 v 0 l -422,-389 -15,21 422,388 v 0 0 l 10,3 7,-5 3,-10 z"
   id="path138"
   inkscape:connector-curvature="0"
   style="fill:#000000;stroke:none" />
         <path
   d="m 11029,16409 h 3 -3 -2 -5 v 0 l -15,20 10,5 h 10 13 l 7,-10 h 3 -3 l 3,-7 -3,-8 -7,-2 -8,2 z"
   id="path140"
   inkscape:connector-curvature="0"
   style="fill:#000000;stroke:none" />
         <path
   d="m 12110,15217 h -3 l -1078,1192 21,15 1077,-1192 h -2 2 l 3,-10 -5,-7 -8,-3 -10,5 z"
   id="path142"
   inkscape:connector-curvature="0"
   style="fill:#000000;stroke:none" />
         <path
   d="m 12186,14684 2,-6 v -7 -5 l -5,-5 -190,-173 -5,-5 h -8 -8 l -5,5 -234,254 -5,5 v 8 7 l 5,5 191,176 8,5 h 5 7 l 5,-5 z"
   id="path144"
   inkscape:connector-curvature="0"
   style="fill:#a87f51;stroke:none" />
         <path
   d="m 12176,14671 v 0 h 2 -2 v 5 h 2 l 15,15 8,-10 v -10 l -2,-10 -8,-10 v 0 0 l -10,-3 -8,5 -2,8 z"
   id="path146"
   inkscape:connector-curvature="0"
   style="fill:#000000;stroke:none" />
         <path
   d="m 11985,14495 v 3 l 191,173 15,-20 -191,-173 v 2 -2 l -10,-3 -8,5 -2,8 5,10 z"
   id="path148"
   inkscape:connector-curvature="0"
   style="fill:#000000;stroke:none" />
         <path
   d="m 11977,14495 h -2 2 3 2 3 l 15,-15 -7,-10 h -13 -13 l -7,10 h -3 3 l -3,8 3,7 7,3 8,-3 z"
   id="path150"
   inkscape:connector-curvature="0"
   style="fill:#000000;stroke:none" />
         <path
   d="m 11741,14750 h 3 l 233,-255 -20,-15 -234,254 h 3 -3 l -2,11 5,7 10,3 8,-5 z"
   id="path152"
   inkscape:connector-curvature="0"
   style="fill:#000000;stroke:none" />
         <path
   d="m 11741,14757 v 3 -3 -2 -3 -2 l -15,-16 -10,8 v 13 12 l 10,8 v 3 -3 l 7,3 8,-3 3,-8 -3,-7 z"
   id="path154"
   inkscape:connector-curvature="0"
   style="fill:#000000;stroke:none" />
         <path
   d="m 11932,14935 v -2 l -191,-176 -15,21 190,175 v -3 3 l 11,2 7,-5 3,-10 -5,-7 z"
   id="path156"
   inkscape:connector-curvature="0"
   style="fill:#000000;stroke:none" />
         <path
   d="m 11939,14935 v 0 0 h -2 v 0 h -5 l -16,15 11,11 h 10 12 l 11,-11 v 0 0 l 2,-10 -5,-7 -8,-3 z"
   id="path158"
   inkscape:connector-curvature="0"
   style="fill:#000000;stroke:none" />
         <path
   d="m 12178,14676 h -2 l -237,259 21,15 236,-259 h -3 3 l 3,-10 -6,-8 -7,-2 -10,5 z"
   id="path160"
   inkscape:connector-curvature="0"
   style="fill:#000000;stroke:none" />
         <path
   d="m 12409,14907 6,-5 v -8 l -3,-7 -3,-5 -96,-74 -5,-5 h -8 -5 l -5,5 -236,252 -5,7 v 5 8 l 5,5 96,81 5,5 h 8 l 5,-2 5,-3 z"
   id="path162"
   inkscape:connector-curvature="0"
   style="fill:#a87f51;stroke:none" />
         <path
   d="m 12402,14892 -3,-3 v 3 l 3,2 v 3 3 l 15,15 10,-8 v -13 l -2,-12 -5,-8 -3,-2 3,2 -8,-5 -10,3 -5,7 2,10 z"
   id="path164"
   inkscape:connector-curvature="0"
   style="fill:#000000;stroke:none" />
         <path
   d="m 12305,14816 v 2 l 97,74 15,-20 -97,-74 v 2 -2 l -10,-3 -7,5 -3,8 5,10 z"
   id="path166"
   inkscape:connector-curvature="0"
   style="fill:#000000;stroke:none" />
         <path
   d="m 12298,14816 h 2 v -3 3 h 3 2 l 15,-16 -7,-10 h -13 l -10,3 -10,7 h 2 -2 l -3,11 5,7 11,3 7,-5 z"
   id="path168"
   inkscape:connector-curvature="0"
   style="fill:#000000;stroke:none" />
         <path
   d="m 12061,15067 v 0 l 237,-251 -16,-16 -236,252 v 0 0 l -3,8 3,7 8,3 z"
   id="path170"
   inkscape:connector-curvature="0"
   style="fill:#000000;stroke:none" />
         <path
   d="m 12061,15075 v 0 0 -3 0 -5 l -15,-15 -10,10 v 10 13 l 10,10 v 0 0 l 10,3 8,-5 2,-10 z"
   id="path172"
   inkscape:connector-curvature="0"
   style="fill:#000000;stroke:none" />
         <path
   d="m 12158,15159 v -3 l -97,-81 -15,20 97,82 v -3 3 l 10,2 7,-5 3,-10 -5,-8 z"
   id="path174"
   inkscape:connector-curvature="0"
   style="fill:#000000;stroke:none" />
         <path
   d="m 12163,15159 h 2 -2 -3 v 0 h -2 l -15,15 7,10 h 15 l 8,-5 8,-5 h 2 -2 l 2,-8 -2,-7 -8,-3 -8,3 z"
   id="path176"
   inkscape:connector-curvature="0"
   style="fill:#000000;stroke:none" />
         <path
   d="m 12402,14900 h -3 l -236,259 20,15 237,-259 h -3 3 l 2,-10 -5,-8 -8,-3 -10,6 z"
   id="path178"
   inkscape:connector-curvature="0"
   style="fill:#000000;stroke:none" />
         <path
   d="m 11284,15022 5,-6 v -7 -8 l -5,-5 -115,-122 -5,-2 h -8 -7 l -5,5 -229,256 -5,5 v 8 8 l 5,5 125,114 5,3 h 7 8 l 5,-5 z"
   id="path180"
   inkscape:connector-curvature="0"
   style="fill:#a87f51;stroke:none" />
         <path
   d="m 11276,15004 v 0 2 3 2 3 l 15,15 10,-7 v -13 -13 l -10,-8 v 0 0 l -7,-2 -8,2 -3,8 z"
   id="path182"
   inkscape:connector-curvature="0"
   style="fill:#000000;stroke:none" />
         <path
   d="m 11162,14884 v -2 l 114,122 15,-16 -114,-121 v -3 3 l -8,-3 -7,3 -3,7 3,8 z"
   id="path184"
   inkscape:connector-curvature="0"
   style="fill:#000000;stroke:none" />
         <path
   d="m 11154,14884 h -3 3 2 6 v 0 l 15,-20 -10,-5 h -11 -12 l -8,10 h -2 2 l -2,8 2,7 8,3 7,-3 z"
   id="path186"
   inkscape:connector-curvature="0"
   style="fill:#000000;stroke:none" />
         <path
   d="m 10923,15141 h 2 l 229,-257 -20,-15 -229,257 h 2 -2 l -3,10 5,8 11,2 7,-5 z"
   id="path188"
   inkscape:connector-curvature="0"
   style="fill:#000000;stroke:none" />
         <path
   d="m 10923,15149 v 2 -2 -3 -2 -3 l -16,-15 -10,7 v 13 13 l 10,7 v 3 -3 l 8,3 8,-3 2,-7 -2,-8 z"
   id="path190"
   inkscape:connector-curvature="0"
   style="fill:#000000;stroke:none" />
         <path
   d="m 11047,15263 v 0 l -124,-114 -16,20 125,114 v 0 0 l 10,3 8,-5 2,-10 z"
   id="path192"
   inkscape:connector-curvature="0"
   style="fill:#000000;stroke:none" />
         <path
   d="m 11055,15263 h 2 -2 -3 -5 v 0 l -15,20 10,5 h 10 13 l 8,-10 h 2 -2 l 2,-7 -2,-8 -8,-3 -8,3 z"
   id="path194"
   inkscape:connector-curvature="0"
   style="fill:#000000;stroke:none" />
         <path
   d="m 11276,15014 h -3 l -218,249 20,15 219,-249 h -3 3 l 2,-10 -5,-8 -7,-2 -11,5 z"
   id="path196"
   inkscape:connector-curvature="0"
   style="fill:#000000;stroke:none" />
         <path
   d="m 10935,15415 3,-5 v -7 -8 l -5,-5 -117,-122 -8,-3 h -5 -7 l -5,6 -250,282 -2,5 v 7 8 l 5,5 125,117 5,5 h 7 l 8,-2 5,-3 z"
   id="path198"
   inkscape:connector-curvature="0"
   style="fill:#a87f51;stroke:none" />
         <path
   d="m 10925,15398 v 0 2 3 5 0 l 21,15 5,-10 v -10 -13 l -11,-8 v 0 0 l -7,-2 -8,2 -2,8 z"
   id="path200"
   inkscape:connector-curvature="0"
   style="fill:#000000;stroke:none" />
         <path
   d="m 10808,15278 v -2 l 117,122 15,-16 -116,-122 v -2 2 l -8,-2 -8,2 -2,8 2,8 z"
   id="path202"
   inkscape:connector-curvature="0"
   style="fill:#000000;stroke:none" />
         <path
   d="m 10801,15278 v 0 0 h 2 3 2 l 16,-20 -13,-5 h -8 -12 l -11,10 v 0 0 l -2,10 5,8 10,2 z"
   id="path204"
   inkscape:connector-curvature="0"
   style="fill:#000000;stroke:none" />
         <path
   d="m 10552,15560 v 0 l 249,-282 -21,-15 -249,282 v 0 0 l -2,10 5,8 10,2 z"
   id="path206"
   inkscape:connector-curvature="0"
   style="fill:#000000;stroke:none" />
         <path
   d="m 10552,15570 v 0 -2 -3 -5 0 l -21,-15 -5,10 v 10 13 l 10,8 v 0 0 l 8,2 8,-2 2,-8 z"
   id="path208"
   inkscape:connector-curvature="0"
   style="fill:#000000;stroke:none" />
         <path
   d="m 10676,15687 v 0 l -124,-117 -16,16 125,117 v 0 0 l 8,2 7,-2 3,-8 z"
   id="path210"
   inkscape:connector-curvature="0"
   style="fill:#000000;stroke:none" />
         <path
   d="m 10684,15687 2,-2 h -2 l -3,2 h -2 -3 l -15,16 8,10 h 12 l 13,-3 8,-5 2,-2 -2,2 5,-10 -3,-8 -8,-5 -10,3 z"
   id="path212"
   inkscape:connector-curvature="0"
   style="fill:#000000;stroke:none" />
         <path
   d="m 10925,15408 v 0 l -241,279 20,16 242,-280 v 0 0 l 2,-10 -5,-8 -8,-2 z"
   id="path214"
   inkscape:connector-curvature="0"
   style="fill:#000000;stroke:none" />
         <path
   d="m 10580,15822 5,-8 v -5 l -3,-7 -5,-5 -122,-120 -5,-5 h -8 l -7,3 -5,2 -84,94 -3,8 v 5 8 l 5,5 127,119 5,3 h 8 8 l 5,-5 z"
   id="path216"
   inkscape:connector-curvature="0"
   style="fill:#a87f51;stroke:none" />
         <path
   d="m 10569,15804 v 3 h 3 v 5 -3 5 l 15,16 10,-11 v -12 l -5,-10 -7,-11 v 3 -3 l -11,-2 -7,5 -3,8 5,10 z"
   id="path218"
   inkscape:connector-curvature="0"
   style="fill:#000000;stroke:none" />
         <path
   d="m 10447,15685 v 0 l 122,119 16,-15 -122,-119 v 0 0 l -8,-3 -8,3 -2,7 z"
   id="path220"
   inkscape:connector-curvature="0"
   style="fill:#000000;stroke:none" />
         <path
   d="m 10440,15685 -3,2 h 3 l 2,-2 h 3 2 l 16,-15 -8,-11 h -13 l -12,3 -8,5 -3,3 3,-3 -5,8 2,10 8,5 10,-3 z"
   id="path222"
   inkscape:connector-curvature="0"
   style="fill:#000000;stroke:none" />
         <path
   d="m 10356,15779 v 0 l 84,-94 -21,-15 -83,94 v 0 0 l -3,10 5,7 10,3 z"
   id="path224"
   inkscape:connector-curvature="0"
   style="fill:#000000;stroke:none" />
         <path
   d="m 10356,15789 v -3 0 -2 -3 -2 l -20,-15 -6,12 v 8 13 l 11,10 v -3 3 l 10,2 7,-5 3,-10 -5,-8 z"
   id="path226"
   inkscape:connector-curvature="0"
   style="fill:#000000;stroke:none" />
         <path
   d="m 10483,15906 v 2 l -127,-119 -15,15 127,120 v 2 -2 l 7,2 8,-2 3,-8 -3,-8 z"
   id="path228"
   inkscape:connector-curvature="0"
   style="fill:#000000;stroke:none" />
         <path
   d="m 10491,15906 h 2 -2 -3 -5 v 0 l -15,20 10,5 h 10 13 l 7,-10 h 3 -3 l 3,-7 -3,-8 -7,-3 -8,3 z"
   id="path230"
   inkscape:connector-curvature="0"
   style="fill:#000000;stroke:none" />
         <path
   d="m 10572,15814 h -3 l -78,92 20,15 79,-91 h -3 3 l 2,-11 -5,-7 -7,-3 -11,5 z"
   id="path232"
   inkscape:connector-curvature="0"
   style="fill:#000000;stroke:none" />
         <path
   d="m 11675,14579 2,-7 3,-8 v -10 l -3,-5 -119,-109 -5,-5 h -8 l -5,2 -5,3 -231,261 -5,5 v 8 l 2,5 5,5 117,112 5,3 h 8 8 l 5,-6 z"
   id="path234"
   inkscape:connector-curvature="0"
   style="fill:#a87f51;stroke:none" />
         <path
   d="m 11670,14559 v 0 l -3,-5 v 10 l -2,5 v 3 l 20,15 5,-13 3,-10 v -10 l -8,-15 v 0 0 l -10,-3 -8,5 -2,8 z"
   id="path236"
   inkscape:connector-curvature="0"
   style="fill:#000000;stroke:none" />
         <path
   d="m 11550,14447 v 3 l 120,109 15,-20 -119,-110 v 3 -3 l -10,-2 -8,5 -3,8 5,10 z"
   id="path238"
   inkscape:connector-curvature="0"
   style="fill:#000000;stroke:none" />
         <path
   d="m 11545,14447 h -2 2 3 v 0 h 2 l 16,-15 -8,-10 h -15 l -8,5 -7,5 h -3 3 l -3,8 3,7 7,3 8,-3 z"
   id="path240"
   inkscape:connector-curvature="0"
   style="fill:#000000;stroke:none" />
         <path
   d="m 11312,14709 h 2 l 231,-262 -20,-15 -231,262 h 2 -2 l -3,10 5,8 10,2 8,-5 z"
   id="path242"
   inkscape:connector-curvature="0"
   style="fill:#000000;stroke:none" />
         <path
   d="m 11314,14717 v -3 l -2,-2 v 0 0 -3 l -16,-15 -10,7 v 16 l 5,10 8,7 v -2 2 l 10,3 8,-5 2,-10 -5,-8 z"
   id="path244"
   inkscape:connector-curvature="0"
   style="fill:#000000;stroke:none" />
         <path
   d="m 11431,14826 v 2 l -117,-111 -15,15 117,112 v 2 -2 l 7,2 8,-2 3,-8 -3,-8 z"
   id="path246"
   inkscape:connector-curvature="0"
   style="fill:#000000;stroke:none" />
         <path
   d="m 11439,14826 h 2 -2 -3 -5 v 0 l -15,20 10,5 h 10 13 l 7,-10 h 3 -3 l 3,-8 -3,-7 -7,-3 -8,3 z"
   id="path248"
   inkscape:connector-curvature="0"
   style="fill:#000000;stroke:none" />
         <path
   d="m 11665,14572 v 0 l -226,254 20,15 226,-254 v 0 0 l 3,-10 -5,-8 -8,-2 z"
   id="path250"
   inkscape:connector-curvature="0"
   style="fill:#000000;stroke:none" />
         <path
   d="m 11942,14274 5,-7 v -5 -8 l -5,-5 -117,-109 -5,-3 h -5 -8 l -5,5 -140,158 -2,5 v 8 5 l 5,5 114,109 5,3 h 8 5 l 5,-6 z"
   id="path252"
   inkscape:connector-curvature="0"
   style="fill:#a87f51;stroke:none" />
         <path
   d="m 11934,14259 v 0 0 3 0 5 l 15,15 11,-10 v -10 -13 l -11,-10 v 0 0 l -10,-3 -7,5 -3,8 z"
   id="path254"
   inkscape:connector-curvature="0"
   style="fill:#000000;stroke:none" />
         <path
   d="m 11817,14147 v 3 l 117,109 15,-20 -116,-109 v 2 -2 l -11,-3 -7,5 -3,8 5,10 z"
   id="path256"
   inkscape:connector-curvature="0"
   style="fill:#000000;stroke:none" />
         <path
   d="m 11812,14150 v 0 0 h 3 2 v -3 l 16,-15 -11,-8 h -7 -13 l -10,11 v 0 0 l -3,10 5,7 11,3 z"
   id="path258"
   inkscape:connector-curvature="0"
   style="fill:#000000;stroke:none" />
         <path
   d="m 11672,14307 v 0 l 140,-157 -20,-15 -140,157 v 0 0 l -2,10 5,8 10,3 z"
   id="path260"
   inkscape:connector-curvature="0"
   style="fill:#000000;stroke:none" />
         <path
   d="m 11672,14315 v -2 h -2 2 v -6 0 l -20,-15 -5,10 v 11 l 3,10 7,10 v -3 3 l 10,2 8,-5 2,-10 -5,-7 z"
   id="path262"
   inkscape:connector-curvature="0"
   style="fill:#000000;stroke:none" />
         <path
   d="m 11787,14424 v 0 l -115,-109 -15,15 115,110 v 0 0 l 7,2 8,-2 2,-8 z"
   id="path264"
   inkscape:connector-curvature="0"
   style="fill:#000000;stroke:none" />
         <path
   d="m 11792,14422 v 0 2 -2 h -5 v 2 l -15,16 10,7 h 10 l 10,-2 10,-8 v 0 0 l 3,-10 -5,-8 -8,-2 z"
   id="path266"
   inkscape:connector-curvature="0"
   style="fill:#000000;stroke:none" />
         <path
   d="m 11934,14267 h -2 l -140,155 20,15 140,-155 h -3 3 l 3,-10 -6,-8 -7,-2 -10,5 z"
   id="path268"
   inkscape:connector-curvature="0"
   style="fill:#000000;stroke:none" />
         <path
   d="m 12155,14030 5,-7 v -5 l -2,-8 -5,-5 -104,-114 -6,-3 h -7 -8 l -5,5 -84,94 -2,5 v 8 8 l 5,5 114,106 5,3 h 8 8 l 5,-5 z"
   id="path270"
   inkscape:connector-curvature="0"
   style="fill:#a87f51;stroke:none" />
         <path
   d="m 12143,14013 2,2 h 3 v 5 -2 2 l 15,21 10,-13 v -13 l -5,-10 -8,-10 3,2 -3,-2 -10,-3 -7,5 -3,8 5,10 z"
   id="path272"
   inkscape:connector-curvature="0"
   style="fill:#000000;stroke:none" />
         <path
   d="m 12041,13901 -3,-3 105,115 20,-16 -104,-114 -3,-2 3,2 -8,-5 -10,3 -5,7 2,10 z"
   id="path274"
   inkscape:connector-curvature="0"
   style="fill:#000000;stroke:none" />
         <path
   d="m 12033,13901 h -2 2 3 5 v 0 l 15,-20 -10,-6 h -10 -13 l -7,11 h -3 3 l -3,7 3,8 7,2 8,-2 z"
   id="path276"
   inkscape:connector-curvature="0"
   style="fill:#000000;stroke:none" />
         <path
   d="m 11949,13995 v 0 l 84,-94 -20,-15 -84,94 v 0 0 l -2,10 5,7 10,3 z"
   id="path278"
   inkscape:connector-curvature="0"
   style="fill:#000000;stroke:none" />
         <path
   d="m 11949,14002 v 3 -3 -2 -5 0 l -20,-15 -5,10 v 10 13 l 10,7 v 3 -3 l 8,3 7,-3 3,-7 -3,-8 z"
   id="path280"
   inkscape:connector-curvature="0"
   style="fill:#000000;stroke:none" />
         <path
   d="m 12064,14109 v 0 l -115,-107 -15,21 115,107 v 0 0 l 10,2 7,-5 3,-10 z"
   id="path282"
   inkscape:connector-curvature="0"
   style="fill:#000000;stroke:none" />
         <path
   d="m 12071,14109 h 3 -3 -2 -5 v 0 l -15,21 10,5 h 10 13 l 7,-11 h 3 -3 l 3,-7 -3,-8 -7,-2 -8,2 z"
   id="path284"
   inkscape:connector-curvature="0"
   style="fill:#000000;stroke:none" />
         <path
   d="m 12148,14020 -3,3 -74,86 21,15 73,-86 -2,3 2,-3 3,-10 -5,-8 -8,-2 -10,5 z"
   id="path286"
   inkscape:connector-curvature="0"
   style="fill:#000000;stroke:none" />
         <path
   d="m 10707,15878 -11,-3 -7,5 -3,8 5,10 z"
   id="path288"
   inkscape:connector-curvature="0"
   style="fill:#000000;stroke:none" />
         <path
   d="m 11146,16297 8,-10 -447,-409 -16,20 448,409 z"
   id="path290"
   inkscape:connector-curvature="0"
   style="fill:#000000;stroke:none" />
         <path
   d="m 11139,16307 10,3 7,-5 3,-10 -5,-8 z"
   id="path292"
   inkscape:connector-curvature="0"
   style="fill:#000000;stroke:none" />
         <path
   d="m 10811,15761 -10,-2 -8,5 -2,7 5,10 z"
   id="path294"
   inkscape:connector-curvature="0"
   style="fill:#000000;stroke:none" />
         <path
   d="m 11164,16102 8,-11 -361,-330 -15,20 360,331 z"
   id="path296"
   inkscape:connector-curvature="0"
   style="fill:#000000;stroke:none" />
         <path
   d="m 11156,16112 11,2 7,-5 3,-10 -5,-8 z"
   id="path298"
   inkscape:connector-curvature="0"
   style="fill:#000000;stroke:none" />
         <path
   d="m 10897,15664 -10,-2 -8,5 -2,8 5,10 z"
   id="path300"
   inkscape:connector-curvature="0"
   style="fill:#000000;stroke:none" />
         <path
   d="m 11342,16089 8,-10 -453,-415 -15,21 452,414 z"
   id="path302"
   inkscape:connector-curvature="0"
   style="fill:#000000;stroke:none" />
         <path
   d="m 11334,16099 11,3 7,-6 3,-10 -5,-7 z"
   id="path304"
   inkscape:connector-curvature="0"
   style="fill:#000000;stroke:none" />
         <path
   d="m 10986,15565 -10,-2 -8,5 -2,8 5,10 z"
   id="path306"
   inkscape:connector-curvature="0"
   style="fill:#000000;stroke:none" />
         <path
   d="m 11342,15906 8,-10 -364,-331 -15,21 363,330 z"
   id="path308"
   inkscape:connector-curvature="0"
   style="fill:#000000;stroke:none" />
         <path
   d="m 11334,15916 11,3 7,-5 3,-11 -5,-7 z"
   id="path310"
   inkscape:connector-curvature="0"
   style="fill:#000000;stroke:none" />
         <path
   d="m 11068,15487 -11,-3 -7,5 -3,8 5,10 z"
   id="path312"
   inkscape:connector-curvature="0"
   style="fill:#000000;stroke:none" />
         <path
   d="m 11421,15819 7,-10 -360,-322 -16,20 361,323 z"
   id="path314"
   inkscape:connector-curvature="0"
   style="fill:#000000;stroke:none" />
         <path
   d="m 11413,15830 10,2 8,-5 3,-10 -6,-8 z"
   id="path316"
   inkscape:connector-curvature="0"
   style="fill:#000000;stroke:none" />
         <path
   d="m 11159,15382 -10,-2 -8,5 -2,8 5,10 z"
   id="path318"
   inkscape:connector-curvature="0"
   style="fill:#000000;stroke:none" />
         <path
   d="m 11512,15723 8,-10 -361,-331 -15,21 361,330 z"
   id="path320"
   inkscape:connector-curvature="0"
   style="fill:#000000;stroke:none" />
         <path
   d="m 11505,15733 10,3 7,-5 3,-11 -5,-7 z"
   id="path322"
   inkscape:connector-curvature="0"
   style="fill:#000000;stroke:none" />
         <path
   d="m 11238,15291 -10,-3 -8,5 -3,8 6,10 z"
   id="path324"
   inkscape:connector-curvature="0"
   style="fill:#000000;stroke:none" />
         <path
   d="m 11680,15710 8,-10 -450,-409 -15,20 449,409 z"
   id="path326"
   inkscape:connector-curvature="0"
   style="fill:#000000;stroke:none" />
         <path
   d="m 11672,15720 11,3 7,-5 3,-10 -5,-8 z"
   id="path328"
   inkscape:connector-curvature="0"
   style="fill:#000000;stroke:none" />
         <path
   d="m 11317,15194 -11,-2 -7,5 -3,8 5,10 z"
   id="path330"
   inkscape:connector-curvature="0"
   style="fill:#000000;stroke:none" />
         <path
   d="m 11677,15537 8,-10 -368,-333 -16,21 369,333 z"
   id="path332"
   inkscape:connector-curvature="0"
   style="fill:#000000;stroke:none" />
         <path
   d="m 11670,15548 10,2 8,-5 2,-10 -5,-8 z"
   id="path334"
   inkscape:connector-curvature="0"
   style="fill:#000000;stroke:none" />
         <path
   d="m 11408,15103 -10,-3 -8,5 -2,8 5,10 z"
   id="path336"
   inkscape:connector-curvature="0"
   style="fill:#000000;stroke:none" />
         <path
   d="m 11850,15522 8,-10 -450,-409 -15,20 450,409 z"
   id="path338"
   inkscape:connector-curvature="0"
   style="fill:#000000;stroke:none" />
         <path
   d="m 11843,15532 10,3 7,-5 3,-10 -5,-8 z"
   id="path340"
   inkscape:connector-curvature="0"
   style="fill:#000000;stroke:none" />
         <path
   d="m 11500,15006 -11,-2 -7,5 -3,7 5,11 z"
   id="path342"
   inkscape:connector-curvature="0"
   style="fill:#000000;stroke:none" />
         <path
   d="m 11855,15344 8,-10 -363,-328 -16,21 364,327 z"
   id="path344"
   inkscape:connector-curvature="0"
   style="fill:#000000;stroke:none" />
         <path
   d="m 11848,15354 10,3 8,-5 2,-10 -5,-8 z"
   id="path346"
   inkscape:connector-curvature="0"
   style="fill:#000000;stroke:none" />
         <path
   d="m 11591,14915 -10,-3 -8,5 -2,8 5,10 z"
   id="path348"
   inkscape:connector-curvature="0"
   style="fill:#000000;stroke:none" />
         <path
   d="m 12023,15332 8,-11 -440,-406 -15,20 440,407 z"
   id="path350"
   inkscape:connector-curvature="0"
   style="fill:#000000;stroke:none" />
         <path
   d="m 12016,15342 10,2 7,-5 3,-10 -5,-8 z"
   id="path352"
   inkscape:connector-curvature="0"
   style="fill:#000000;stroke:none" />
         <path
   d="m 10630,15454 -7,-3 -8,3 -2,7 2,8 z"
   id="path354"
   inkscape:connector-curvature="0"
   style="fill:#000000;stroke:none" />
         <path
   d="m 10768,15606 7,-8 -145,-144 -15,15 145,145 z"
   id="path356"
   inkscape:connector-curvature="0"
   style="fill:#000000;stroke:none" />
         <path
   d="m 10760,15614 8,2 7,-2 3,-8 -3,-8 z"
   id="path358"
   inkscape:connector-curvature="0"
   style="fill:#000000;stroke:none" />
         <path
   d="m 10714,15362 -7,-2 -8,2 -3,8 3,7 z"
   id="path360"
   inkscape:connector-curvature="0"
   style="fill:#000000;stroke:none" />
         <path
   d="m 10852,15509 7,-7 -145,-140 -15,15 145,140 z"
   id="path362"
   inkscape:connector-curvature="0"
   style="fill:#000000;stroke:none" />
         <path
   d="m 10844,15517 8,3 7,-3 3,-8 -3,-7 z"
   id="path364"
   inkscape:connector-curvature="0"
   style="fill:#000000;stroke:none" />
         <path
   d="m 10999,15049 -8,-2 -7,2 -3,8 3,8 z"
   id="path366"
   inkscape:connector-curvature="0"
   style="fill:#000000;stroke:none" />
         <path
   d="m 11129,15197 7,-8 -137,-140 -15,16 137,140 z"
   id="path368"
   inkscape:connector-curvature="0"
   style="fill:#000000;stroke:none" />
         <path
   d="m 11121,15205 8,2 7,-2 3,-8 -3,-8 z"
   id="path370"
   inkscape:connector-curvature="0"
   style="fill:#000000;stroke:none" />
         <path
   d="m 11075,14955 -7,-2 -8,2 -3,8 3,8 z"
   id="path372"
   inkscape:connector-curvature="0"
   style="fill:#000000;stroke:none" />
         <path
   d="m 11212,15103 8,-8 -145,-140 -15,16 145,139 z"
   id="path374"
   inkscape:connector-curvature="0"
   style="fill:#000000;stroke:none" />
         <path
   d="m 11205,15110 7,3 8,-3 3,-7 -3,-8 z"
   id="path376"
   inkscape:connector-curvature="0"
   style="fill:#000000;stroke:none" />
         <path
   d="m 11390,14607 -7,-2 -8,2 -2,8 2,8 z"
   id="path378"
   inkscape:connector-curvature="0"
   style="fill:#000000;stroke:none" />
         <path
   d="m 11520,14755 8,-8 -138,-140 -15,16 137,139 z"
   id="path380"
   inkscape:connector-curvature="0"
   style="fill:#000000;stroke:none" />
         <path
   d="m 11512,14762 8,3 8,-3 2,-7 -2,-8 z"
   id="path382"
   inkscape:connector-curvature="0"
   style="fill:#000000;stroke:none" />
         <path
   d="m 11472,14516 -8,-3 -8,3 -2,7 2,8 z"
   id="path384"
   inkscape:connector-curvature="0"
   style="fill:#000000;stroke:none" />
         <path
   d="m 11604,14661 7,-8 -139,-137 -16,15 140,137 z"
   id="path386"
   inkscape:connector-curvature="0"
   style="fill:#000000;stroke:none" />
         <path
   d="m 11596,14668 8,3 7,-3 3,-7 -3,-8 z"
   id="path388"
   inkscape:connector-curvature="0"
   style="fill:#000000;stroke:none" />
         <path
   d="m 11749,14211 -8,-3 -8,3 -2,7 2,8 z"
   id="path390"
   inkscape:connector-curvature="0"
   style="fill:#000000;stroke:none" />
         <path
   d="m 11873,14351 8,-8 -132,-132 -16,15 133,132 z"
   id="path392"
   inkscape:connector-curvature="0"
   style="fill:#000000;stroke:none" />
         <path
   d="m 11866,14358 7,3 8,-3 2,-7 -2,-8 z"
   id="path394"
   inkscape:connector-curvature="0"
   style="fill:#000000;stroke:none" />
         <path
   d="m 10679,16112 -3,10 5,8 10,2 8,-5 z"
   id="path396"
   inkscape:connector-curvature="0"
   style="fill:#000000;stroke:none" />
         <path
   d="m 11794,14907 -10,-7 -1105,1212 20,15 1106,-1212 z"
   id="path398"
   inkscape:connector-curvature="0"
   style="fill:#000000;stroke:none" />
         <path
   d="m 11805,14915 2,-10 -5,-8 -8,-3 -10,6 z"
   id="path400"
   inkscape:connector-curvature="0"
   style="fill:#000000;stroke:none" />
         <path
   d="m 10813,16229 -2,10 5,7 10,3 8,-5 z"
   id="path402"
   inkscape:connector-curvature="0"
   style="fill:#000000;stroke:none" />
         <path
   d="m 11921,15029 -10,-7 -1098,1207 21,15 1098,-1207 z"
   id="path404"
   inkscape:connector-curvature="0"
   style="fill:#000000;stroke:none" />
         <path
   d="m 11932,15037 2,-10 -5,-8 -8,-3 -10,6 z"
   id="path406"
   inkscape:connector-curvature="0"
   style="fill:#000000;stroke:none" />
         <path
   d="m 10928,16348 -3,10 5,8 10,2 8,-5 z"
   id="path408"
   inkscape:connector-curvature="0"
   style="fill:#000000;stroke:none" />
         <path
   d="m 12043,15141 -10,-8 -1105,1215 20,15 1106,-1214 z"
   id="path410"
   inkscape:connector-curvature="0"
   style="fill:#000000;stroke:none" />
         <path
   d="m 12054,15149 2,-11 -5,-7 -8,-3 -10,5 z"
   id="path412"
   inkscape:connector-curvature="0"
   style="fill:#000000;stroke:none" />
         <path
   d="m 11822,14851 -2,10 5,8 10,3 8,-5 z"
   id="path414"
   inkscape:connector-curvature="0"
   style="fill:#000000;stroke:none" />
         <path
   d="m 12089,14577 -10,-8 -257,282 21,16 256,-283 z"
   id="path416"
   inkscape:connector-curvature="0"
   style="fill:#000000;stroke:none" />
         <path
   d="m 12099,14584 3,-10 -5,-7 -8,-3 -10,5 z"
   id="path418"
   inkscape:connector-curvature="0"
   style="fill:#000000;stroke:none" />
         <path
   d="m 11815,14653 -10,-2 -8,5 -3,7 5,10 z"
   id="path420"
   inkscape:connector-curvature="0"
   style="fill:#000000;stroke:none" />
         <path
   d="m 12023,14859 8,-10 -216,-196 -16,20 217,196 z"
   id="path422"
   inkscape:connector-curvature="0"
   style="fill:#000000;stroke:none" />
         <path
   d="m 12016,14869 10,3 7,-5 3,-11 -5,-7 z"
   id="path424"
   inkscape:connector-curvature="0"
   style="fill:#000000;stroke:none" />
         <path
   d="m 11899,14569 -11,-2 -7,5 -3,7 5,11 z"
   id="path426"
   inkscape:connector-curvature="0"
   style="fill:#000000;stroke:none" />
         <path
   d="m 12102,14767 8,-10 -211,-188 -16,21 211,188 z"
   id="path428"
   inkscape:connector-curvature="0"
   style="fill:#000000;stroke:none" />
         <path
   d="m 12094,14778 10,2 8,-5 3,-10 -5,-8 z"
   id="path430"
   inkscape:connector-curvature="0"
   style="fill:#000000;stroke:none" />
         <path
   d="m 12138,14307 -8,-2 -8,2 -2,8 2,8 z"
   id="path432"
   inkscape:connector-curvature="0"
   style="fill:#000000;stroke:none" />
         <path
   d="m 12572,14729 8,-7 -442,-415 -16,16 442,414 z"
   id="path434"
   inkscape:connector-curvature="0"
   style="fill:#000000;stroke:none" />
         <path
   d="m 12564,14737 8,2 8,-2 2,-8 -2,-7 z"
   id="path436"
   inkscape:connector-curvature="0"
   style="fill:#000000;stroke:none" />
         <path
   d="m 12226,14206 -7,-3 -8,3 -2,7 2,8 z"
   id="path438"
   inkscape:connector-curvature="0"
   style="fill:#000000;stroke:none" />
         <path
   d="m 12659,14630 7,-7 -440,-417 -15,15 440,417 z"
   id="path440"
   inkscape:connector-curvature="0"
   style="fill:#000000;stroke:none" />
         <path
   d="m 12651,14638 8,2 7,-2 3,-8 -3,-7 z"
   id="path442"
   inkscape:connector-curvature="0"
   style="fill:#000000;stroke:none" />
         <path
   d="m 12122,14483 -2,10 5,8 10,2 8,-5 z"
   id="path444"
   inkscape:connector-curvature="0"
   style="fill:#000000;stroke:none" />
         <path
   d="m 12387,14208 -11,-7 -254,282 21,15 254,-282 z"
   id="path446"
   inkscape:connector-curvature="0"
   style="fill:#000000;stroke:none" />
         <path
   d="m 12397,14216 2,-10 -5,-8 -7,-2 -11,5 z"
   id="path448"
   inkscape:connector-curvature="0"
   style="fill:#000000;stroke:none" />
         <path
   d="m 12219,14567 -3,10 5,7 11,3 7,-5 z"
   id="path450"
   inkscape:connector-curvature="0"
   style="fill:#000000;stroke:none" />
         <path
   d="m 12486,14292 -10,-7 -257,282 20,15 257,-282 z"
   id="path452"
   inkscape:connector-curvature="0"
   style="fill:#000000;stroke:none" />
         <path
   d="m 12496,14300 2,-10 -5,-8 -7,-3 -10,6 z"
   id="path454"
   inkscape:connector-curvature="0"
   style="fill:#000000;stroke:none" />
         <path
   d="m 12310,14656 -2,10 5,7 10,3 8,-5 z"
   id="path456"
   inkscape:connector-curvature="0"
   style="fill:#000000;stroke:none" />
         <path
   d="m 12577,14381 -10,-7 -257,282 21,15 256,-282 z"
   id="path458"
   inkscape:connector-curvature="0"
   style="fill:#000000;stroke:none" />
         <path
   d="m 12587,14389 3,-10 -5,-8 -8,-3 -10,6 z"
   id="path460"
   inkscape:connector-curvature="0"
   style="fill:#000000;stroke:none" />
         <path
   d="m 12402,14742 -3,10 5,8 11,2 7,-5 z"
   id="path462"
   inkscape:connector-curvature="0"
   style="fill:#000000;stroke:none" />
         <path
   d="m 12669,14468 -10,-8 -257,282 20,15 257,-282 z"
   id="path464"
   inkscape:connector-curvature="0"
   style="fill:#000000;stroke:none" />
         <path
   d="m 12679,14475 2,-10 -5,-8 -7,-2 -10,5 z"
   id="path466"
   inkscape:connector-curvature="0"
   style="fill:#000000;stroke:none" />
         <path
   d="m 8572,13875 -10,-22 -8,-11 -5,11 -3,28 -12,-13 -16,-5 -12,2 -10,8 -11,13 -7,12 -3,16 v 15 l -25,-10 h -21 l -15,5 -10,7 -5,16 -3,12 3,16 8,15 -28,-8 h -23 l -16,8 -10,12 -7,16 -3,15 3,15 5,15 -31,-12 -23,-3 -17,5 -13,13 -5,18 -3,20 3,18 10,15 h -25 l -18,5 -15,5 -11,11 -2,12 -3,10 5,13 8,13 -33,2 -23,8 -8,10 v 13 l 6,13 7,12 10,13 10,13 -33,7 -20,13 -13,18 -7,18 2,20 5,18 11,12 12,11 -25,2 -18,5 -8,8 -5,10 3,13 5,12 10,16 13,12 -26,16 -15,15 -5,15 5,13 8,12 13,13 12,10 15,5 -17,18 -10,13 v 13 l 2,10 10,7 10,8 16,5 12,5 -23,23 -10,15 3,13 13,8 15,5 20,5 18,2 18,5 -23,26 -10,18 2,15 10,10 16,8 17,2 21,5 15,3 -25,25 -16,21 -5,22 3,18 7,16 13,10 15,7 13,3 -25,28 -10,28 -3,23 5,22 13,16 15,15 18,8 18,2 -11,23 -7,23 v 20 l 2,18 11,13 15,5 h 23 l 28,-10 -8,23 v 22 l 5,16 13,12 15,10 18,6 18,2 15,-2 -3,33 3,20 10,15 13,8 18,2 17,-2 18,-3 15,-5 v 31 l 8,20 13,10 15,5 18,-2 23,-5 22,-5 26,-6 5,18 8,18 10,13 12,10 18,2 18,-2 20,-13 23,-20 v 15 l 3,18 2,15 8,15 10,11 13,2 20,-5 23,-18 3,16 5,15 5,18 7,12 13,10 18,5 23,-5 30,-10 3,15 5,18 5,21 8,15 10,10 15,3 20,-6 26,-15 5,10 2,13 5,13 8,10 10,8 15,-3 21,-10 25,-23 -2,23 5,20 10,13 15,10 15,3 21,-3 18,-10 17,-18 -5,20 3,21 10,15 13,10 15,8 15,2 13,-5 10,-10 13,-23 12,-20 13,-18 10,-18 v -5 l -7,3 -13,7 -15,11 -13,7 -13,3 -5,-5 3,-13 2,-15 -5,-13 -10,-8 -15,-2 -15,-3 -16,5 -15,5 -13,8 3,-23 -3,-18 -7,-15 -13,-7 -15,-3 -18,3 -15,7 -18,13 8,-23 -3,-15 -8,-8 h -12 l -16,3 -15,10 -12,10 -11,13 8,-26 v -20 l -8,-15 -10,-10 -15,-5 h -15 l -16,2 -12,8 5,-23 -5,-18 -10,-15 -18,-8 -18,-5 -20,3 -18,5 -13,12 v -25 l -2,-20 -11,-13 -12,-5 h -16 l -15,2 -12,8 -11,10 3,-25 -5,-18 -10,-10 -16,-5 h -17 l -18,5 -15,10 -13,13 -8,-21 -7,-15 -13,-10 -15,-8 h -13 l -15,3 -13,7 -10,13 2,-23 -5,-17 -10,-13 -13,-8 -17,-2 -18,2 -20,10 -21,13 10,-25 v -18 l -5,-15 -7,-11 -13,-2 -15,-3 -13,3 -13,5 8,-23 v -18 l -8,-15 -10,-13 -15,-10 -15,-2 h -18 l -15,7 7,-12 8,-18 5,-15 2,-16 -5,-12 -10,-8 h -20 l -31,8 13,-28 -2,-23 -11,-18 -17,-8 22,-12 13,-13 5,-13 -2,-15 -10,-13 -13,-10 -13,-10 -15,-5 25,-13 16,-13 10,-17 v -18 l -5,-15 -8,-13 -13,-10 -12,-5 12,-13 5,-15 -5,-13 -7,-15 -13,-13 -18,-8 -15,-5 -15,3 15,-13 5,-12 -3,-13 -7,-13 -10,-10 -16,-10 -15,-5 -18,-3 11,-18 v -17 l -6,-21 -7,-18 -13,-15 -15,-10 -13,-5 h -10 l 36,-20 10,-26 -8,-25 -15,-21 35,-17 6,-23 -11,-23 -17,-23 h 25 l 20,-8 13,-10 8,-15 v -18 l -3,-15 -5,-13 -10,-7 30,-13 8,-28 -10,-25 -21,-13 26,13 20,2 13,-5 10,-13 5,-15 3,-15 v -18 l -3,-15 h 28 l 18,-21 5,-22 3,-13 22,10 18,3 15,-5 11,-11 5,-12 5,-16 2,-12 v -13 l 26,5 12,-10 8,-20 5,-23 10,2 13,3 h 10 13 l 10,-5 5,-8 3,-10 -3,-18 21,8 h 12 l 8,-5 v -16 l -3,-17 v -16 l -2,-12 z"
   id="path468"
   inkscape:connector-curvature="0"
   style="fill:#7f7f7f;stroke:none" />
         <path
   d="m 8536,13888 23,-7 3,-26 h -8 l -3,3 8,20 25,-5 -12,-26 -18,-17 -18,20 -2,31 23,-8 -23,8 5,7 7,3 8,-3 5,-7 z"
   id="path470"
   inkscape:connector-curvature="0"
   style="fill:#000000;stroke:none" />
         <path
   d="m 8470,13939 18,-13 v -12 l 2,-13 6,-8 7,-12 8,-3 7,-3 11,3 7,10 21,-15 -18,-15 -21,-8 -17,3 -13,12 -13,13 -10,18 -3,18 v 17 l 18,-12 -18,12 6,8 h 10 l 7,-3 3,-10 z"
   id="path472"
   inkscape:connector-curvature="0"
   style="fill:#000000;stroke:none" />
         <path
   d="m 8404,14002 13,-17 -5,-13 -3,-13 3,-10 2,-10 5,-5 10,-3 h 18 l 23,8 10,-20 -28,-13 h -23 l -20,8 -15,10 -8,20 -2,15 2,18 10,18 13,-18 -13,18 5,5 h 11 l 5,-8 v -7 z"
   id="path474"
   inkscape:connector-curvature="0"
   style="fill:#000000;stroke:none" />
         <path
   d="m 8323,14074 15,-16 -3,-12 -2,-13 2,-13 5,-12 8,-8 10,-5 h 21 l 25,7 5,-25 -30,-8 h -26 l -20,11 -13,17 -10,18 -3,18 3,18 8,18 15,-16 -15,16 5,5 h 10 l 5,-8 v -8 z"
   id="path476"
   inkscape:connector-curvature="0"
   style="fill:#000000;stroke:none" />
         <path
   d="m 8249,14150 10,-20 -7,-11 -3,-15 3,-18 2,-15 8,-8 12,-2 21,2 28,11 10,-21 -33,-15 -26,-2 -22,7 -18,18 -8,20 -2,23 2,20 13,21 10,-21 -10,21 10,5 8,-3 5,-7 -3,-10 z"
   id="path478"
   inkscape:connector-curvature="0"
   style="fill:#000000;stroke:none" />
         <path
   d="m 8188,14218 10,-20 -7,-10 -3,-8 3,-7 v -10 l 5,-5 12,-3 16,-5 h 25 v -26 h -25 l -21,6 -18,7 -15,15 -5,16 -2,12 7,18 8,15 10,-20 -10,20 10,5 8,-2 5,-8 -3,-10 z"
   id="path480"
   inkscape:connector-curvature="0"
   style="fill:#000000;stroke:none" />
         <path
   d="m 8157,14302 11,-20 -11,-13 -10,-12 -7,-11 -3,-10 v -7 -3 l 18,-5 33,-3 v -25 l -33,3 -28,10 -15,18 v 17 l 7,16 8,15 10,13 10,12 10,-20 -10,20 10,5 8,-2 5,-8 -2,-10 z"
   id="path482"
   inkscape:connector-curvature="0"
   style="fill:#000000;stroke:none" />
         <path
   d="m 8114,14419 5,-23 -10,-7 -7,-10 -3,-16 -3,-17 6,-13 10,-13 15,-10 30,-8 v -25 l -35,8 -26,15 -15,23 -10,23 3,22 7,21 13,15 15,13 5,-23 -5,23 h 8 l 7,-8 v -8 l -5,-5 z"
   id="path484"
   inkscape:connector-curvature="0"
   style="fill:#000000;stroke:none" />
         <path
   d="m 8094,14498 2,-20 -10,-13 -10,-13 -2,-10 -3,-10 3,-3 2,-5 13,-2 25,-3 v -25 l -25,2 -23,8 -13,10 -7,18 2,15 8,15 10,18 15,13 3,-20 -3,20 8,2 7,-2 3,-8 -3,-7 z"
   id="path486"
   inkscape:connector-curvature="0"
   style="fill:#000000;stroke:none" />
         <path
   d="m 8104,14595 -5,-23 -13,-3 -10,-10 -10,-10 -8,-10 -2,-8 2,-8 13,-12 23,-13 -10,-25 -28,17 -18,18 -8,23 8,18 8,15 15,15 15,11 18,7 -5,-23 5,23 10,-2 5,-8 -2,-10 -8,-5 z"
   id="path488"
   inkscape:connector-curvature="0"
   style="fill:#000000;stroke:none" />
         <path
   d="m 8127,14673 -5,-22 -13,-6 -13,-2 -7,-8 -8,-5 v -2 -8 l 8,-10 15,-15 -15,-21 -20,21 -13,15 v 18 l 5,17 13,11 12,7 18,8 13,5 -5,-23 5,23 10,-3 5,-7 -2,-10 -8,-5 z"
   id="path490"
   inkscape:connector-curvature="0"
   style="fill:#000000;stroke:none" />
         <path
   d="m 8180,14750 -5,-23 -18,-5 -17,-3 -21,-5 -12,-5 -8,-3 v -2 l 8,-10 20,-21 -15,-20 -26,25 -12,21 5,23 17,12 18,5 21,6 17,2 18,5 -5,-23 5,23 10,-2 5,-8 -2,-10 -8,-5 z"
   id="path492"
   inkscape:connector-curvature="0"
   style="fill:#000000;stroke:none" />
         <path
   d="m 8229,14836 -5,-23 -16,-2 -20,-5 -18,-3 -10,-5 -8,-5 v -8 l 8,-13 20,-22 -15,-21 -25,28 -13,23 5,23 13,15 20,10 18,3 20,5 15,3 -5,-23 5,23 11,-3 5,-8 -3,-10 -7,-5 z"
   id="path494"
   inkscape:connector-curvature="0"
   style="fill:#000000;stroke:none" />
         <path
   d="m 8234,14955 -8,-20 -10,-2 -13,-5 -7,-8 -5,-10 -3,-16 3,-17 15,-18 23,-23 -16,-20 -28,28 -15,23 -7,27 2,21 10,20 18,13 18,10 15,3 -8,-21 8,21 8,-6 5,-7 -5,-8 -8,-5 z"
   id="path496"
   inkscape:connector-curvature="0"
   style="fill:#000000;stroke:none" />
         <path
   d="m 8267,15095 -10,-18 -16,-2 -12,-5 -13,-13 -13,-13 -2,-17 2,-21 8,-25 23,-26 -16,-15 -27,31 -13,30 -3,26 8,28 13,17 17,18 23,10 21,3 -11,-18 11,18 7,-5 5,-8 -5,-7 -7,-6 z"
   id="path498"
   inkscape:connector-curvature="0"
   style="fill:#000000;stroke:none" />
         <path
   d="m 8328,15187 -15,-18 -26,10 h -20 l -8,-2 -5,-8 -2,-13 v -20 l 7,-20 8,-21 -21,-10 -12,25 -8,26 v 20 l 3,23 15,18 23,8 h 25 l 31,-11 -16,-17 16,17 7,-7 v -10 l -7,-8 h -10 z"
   id="path500"
   inkscape:connector-curvature="0"
   style="fill:#000000;stroke:none" />
         <path
   d="m 8407,15271 -16,-13 -12,2 -16,-2 -15,-3 -13,-10 -10,-7 -2,-11 v -22 l 5,-18 -21,-10 -10,28 v 22 l 8,21 15,17 18,11 20,7 21,3 17,-3 -15,-12 15,12 8,-5 3,-10 -6,-8 -10,-2 z"
   id="path502"
   inkscape:connector-curvature="0"
   style="fill:#000000;stroke:none" />
         <path
   d="m 8498,15339 -15,-13 -15,6 -16,2 -17,3 -16,-3 -7,-2 -5,-11 -3,-17 3,-33 h -26 l -2,33 2,22 15,21 18,13 21,2 17,-2 21,-3 15,-5 -15,-13 15,13 8,-5 2,-10 -5,-8 -10,-3 z"
   id="path504"
   inkscape:connector-curvature="0"
   style="fill:#000000;stroke:none" />
         <path
   d="m 8623,15387 -13,-12 -28,5 -23,5 -23,5 -15,3 -10,-3 -8,-8 -5,-12 v -31 h -25 v 31 l 10,28 18,12 20,8 20,-3 23,-5 23,-5 23,-5 -13,-13 13,13 8,-5 5,-8 -5,-7 -8,-5 z"
   id="path506"
   inkscape:connector-curvature="0"
   style="fill:#000000;stroke:none" />
         <path
   d="m 8737,15413 -23,-8 -20,18 -18,10 -13,3 -12,-3 -11,-5 -7,-10 -5,-15 -5,-16 h -26 l 5,21 10,20 13,15 15,16 23,2 23,-2 23,-16 25,-22 -22,-8 22,8 3,-11 -5,-7 -8,-3 -10,5 z"
   id="path508"
   inkscape:connector-curvature="0"
   style="fill:#000000;stroke:none" />
         <path
   d="m 8816,15464 -21,-8 -20,18 -15,2 h -8 l -5,-7 -5,-10 -3,-13 -2,-18 v -15 h -25 v 15 l 2,18 3,18 10,20 15,13 18,5 25,-8 26,-18 -21,-7 21,7 5,-10 -3,-7 -7,-5 -11,2 z"
   id="path510"
   inkscape:connector-curvature="0"
   style="fill:#000000;stroke:none" />
         <path
   d="m 8920,15525 -18,-8 -28,8 -20,5 -13,-3 -7,-7 -6,-11 -5,-15 -5,-15 -2,-15 -26,5 3,15 5,15 5,21 10,15 18,13 23,7 25,-5 33,-13 -17,-7 17,7 5,-5 v -10 l -7,-5 h -8 z"
   id="path512"
   inkscape:connector-curvature="0"
   style="fill:#000000;stroke:none" />
         <path
   d="m 9009,15581 -18,-3 -23,13 -15,5 h -10 l -5,-8 -5,-10 -5,-20 -6,-18 -2,-15 -25,5 2,15 5,18 5,20 10,20 16,13 20,5 25,-5 28,-18 -17,-2 17,2 5,-10 -2,-7 -8,-5 -10,2 z"
   id="path514"
   inkscape:connector-curvature="0"
   style="fill:#000000;stroke:none" />
         <path
   d="m 9103,15609 -20,-11 -26,21 -15,7 -10,3 -5,-3 -5,-7 -3,-10 -2,-13 -8,-15 -20,15 2,5 3,13 7,15 10,13 16,12 20,-2 25,-13 26,-25 -20,-11 20,11 2,-8 -2,-8 -8,-2 -7,2 z"
   id="path516"
   inkscape:connector-curvature="0"
   style="fill:#000000;stroke:none" />
         <path
   d="m 9202,15649 -23,-12 -15,15 -13,7 -18,3 -10,-3 -12,-7 -8,-8 -3,-15 3,-20 -25,-6 -3,26 8,25 12,18 18,13 20,2 23,-2 23,-13 21,-20 -23,-13 23,13 2,-10 -5,-8 -8,-3 -10,6 z"
   id="path518"
   inkscape:connector-curvature="0"
   style="fill:#000000;stroke:none" />
         <path
   d="m 9253,15700 v 0 l -8,5 -5,3 -13,-3 -12,-5 -8,-8 -7,-10 -3,-18 5,-15 -25,-10 -5,25 2,23 13,21 18,12 17,11 18,2 21,-8 12,-15 v 0 z"
   id="path520"
   inkscape:connector-curvature="0"
   style="fill:#000000;stroke:none" />
         <path
   d="m 9301,15621 v 0 l -10,18 -13,15 -12,23 -13,23 20,10 13,-23 13,-17 12,-21 11,-18 v 0 z"
   id="path522"
   inkscape:connector-curvature="0"
   style="fill:#000000;stroke:none" />
         <path
   d="m 9235,15631 v 0 l -2,16 17,17 18,-2 13,-10 15,-10 13,-8 v 0 l -8,-13 21,10 -8,-22 -15,5 -13,7 -15,10 -13,6 -8,2 8,8 3,-10 v 0 z"
   id="path524"
   inkscape:connector-curvature="0"
   style="fill:#000000;stroke:none" />
         <path
   d="m 9149,15609 20,10 10,-3 13,-5 13,-5 15,3 10,2 5,3 3,5 -3,12 26,6 2,-18 -8,-21 -15,-12 -20,-3 -15,-2 -18,5 -18,5 -15,12 20,11 -20,-11 -3,8 3,8 7,2 8,-2 z"
   id="path526"
   inkscape:connector-curvature="0"
   style="fill:#000000;stroke:none" />
         <path
   d="m 9062,15563 21,13 15,-11 13,-5 15,-2 13,2 5,3 5,10 2,15 -2,21 25,5 3,-26 -3,-20 -10,-20 -20,-13 -18,-3 -21,3 -17,10 -21,15 21,13 -21,-13 -2,8 2,8 8,2 8,-2 z"
   id="path528"
   inkscape:connector-curvature="0"
   style="fill:#000000;stroke:none" />
         <path
   d="m 8994,15553 23,10 7,-10 13,-8 13,-8 10,-2 h 10 -3 l 3,10 -8,18 26,10 7,-28 -2,-20 -18,-16 h -15 l -21,3 -17,13 -13,12 -13,16 23,10 -23,-10 v 7 l 8,8 h 7 l 6,-5 z"
   id="path530"
   inkscape:connector-curvature="0"
   style="fill:#000000;stroke:none" />
         <path
   d="m 8925,15489 20,13 8,-5 13,-3 h 15 l 10,3 5,7 5,11 v 17 l -7,21 25,10 8,-31 v -23 l -10,-20 -16,-13 -20,-7 h -15 l -18,2 -18,11 20,12 -20,-12 -5,7 3,10 7,5 10,-2 z"
   id="path532"
   inkscape:connector-curvature="0"
   style="fill:#000000;stroke:none" />
         <path
   d="m 8828,15443 23,8 8,-10 15,-3 18,-2 15,5 13,5 8,10 2,13 -5,20 25,5 6,-25 -8,-23 -13,-20 -23,-11 -20,-5 -23,3 -20,8 -18,15 23,7 -23,-7 -3,10 6,8 10,2 7,-5 z"
   id="path534"
   inkscape:connector-curvature="0"
   style="fill:#000000;stroke:none" />
         <path
   d="m 8750,15398 23,10 7,-8 8,-5 12,-2 h 16 l 5,2 5,5 2,18 v 25 h 26 v -25 l -3,-23 -15,-20 -20,-8 h -16 l -17,3 -18,10 -13,13 23,10 -23,-10 -2,10 5,7 10,3 8,-5 z"
   id="path536"
   inkscape:connector-curvature="0"
   style="fill:#000000;stroke:none" />
         <path
   d="m 8658,15372 23,3 10,-8 13,-10 13,-3 h 17 l 11,3 5,5 2,13 -2,23 25,5 3,-28 -8,-23 -15,-15 -21,-8 h -17 l -23,8 -18,10 -15,18 23,2 -23,-2 v 7 l 7,8 h 8 l 5,-5 z"
   id="path538"
   inkscape:connector-curvature="0"
   style="fill:#000000;stroke:none" />
         <path
   d="m 8564,15339 23,8 8,-10 7,-5 13,-3 h 10 l 13,5 7,8 6,12 7,18 26,-5 -8,-23 -10,-18 -18,-12 -18,-10 h -15 l -18,2 -18,10 -12,16 23,7 -23,-7 -3,10 5,7 10,3 8,-5 z"
   id="path540"
   inkscape:connector-curvature="0"
   style="fill:#000000;stroke:none" />
         <path
   d="m 8465,15296 18,15 18,-12 17,-8 16,-3 15,3 8,5 7,8 3,12 -3,23 h 26 l 2,-23 -8,-23 -12,-17 -18,-11 -20,-2 -21,2 -23,13 -22,13 17,15 -17,-15 -6,8 3,10 8,5 10,-3 z"
   id="path542"
   inkscape:connector-curvature="0"
   style="fill:#000000;stroke:none" />
         <path
   d="m 8409,15230 15,15 11,-2 10,-3 15,3 h 8 l 2,5 3,10 v 15 l -8,23 20,10 13,-28 v -20 l -8,-20 -12,-16 -18,-5 -15,-2 -16,2 -15,8 15,15 -15,-15 -5,5 v 8 l 8,7 h 7 z"
   id="path544"
   inkscape:connector-curvature="0"
   style="fill:#000000;stroke:none" />
         <path
   d="m 8335,15156 18,15 10,-5 h 16 l 10,3 12,8 8,7 5,13 v 13 l -5,20 20,10 11,-25 v -23 l -11,-18 -12,-18 -18,-12 -20,-3 h -21 l -20,10 18,15 -18,-15 -5,8 2,10 8,5 10,-3 z"
   id="path546"
   inkscape:connector-curvature="0"
   style="fill:#000000;stroke:none" />
         <path
   d="m 8292,15080 13,20 28,-7 h 18 l 2,2 3,5 -3,13 -5,15 -5,16 -8,12 21,10 7,-12 11,-21 5,-15 2,-18 -7,-20 -18,-13 h -23 l -33,8 13,20 -13,-20 -8,5 v 10 l 3,8 10,2 z"
   id="path548"
   inkscape:connector-curvature="0"
   style="fill:#000000;stroke:none" />
         <path
   d="m 8282,14999 3,25 10,5 5,10 2,18 -10,23 21,15 15,-33 -3,-28 -15,-25 -25,-10 2,25 -2,-25 -8,5 -3,7 3,8 8,5 z"
   id="path550"
   inkscape:connector-curvature="0"
   style="fill:#000000;stroke:none" />
         <path
   d="m 8269,14907 v 26 l 13,2 10,10 13,8 5,10 3,10 -3,5 -10,10 -18,11 5,25 28,-15 15,-15 8,-21 -3,-20 -15,-15 -13,-13 -15,-10 -18,-8 v 26 -26 l -10,3 -2,7 v 11 l 7,5 z"
   id="path552"
   inkscape:connector-curvature="0"
   style="fill:#000000;stroke:none" />
         <path
   d="m 8279,14806 6,22 7,3 8,8 5,10 5,10 v 15 l -8,13 -10,10 -23,10 5,26 28,-16 21,-15 12,-23 v -20 l -5,-20 -10,-16 -18,-12 -17,-8 5,23 -5,-23 -8,5 -3,8 3,7 8,5 z"
   id="path554"
   inkscape:connector-curvature="0"
   style="fill:#000000;stroke:none" />
         <path
   d="m 8224,14727 7,23 13,-3 13,5 12,5 10,10 6,13 5,8 -3,10 -8,8 11,20 17,-18 8,-20 -5,-18 -10,-18 -15,-15 -23,-10 -18,-5 -18,2 8,23 -8,-23 -8,5 v 10 l 3,8 10,3 z"
   id="path556"
   inkscape:connector-curvature="0"
   style="fill:#000000;stroke:none" />
         <path
   d="m 8170,14651 10,20 16,2 12,3 13,10 8,8 5,10 2,8 -2,5 -10,10 10,20 20,-15 8,-20 -3,-18 -10,-16 -13,-12 -18,-10 -17,-8 -21,-3 11,21 -11,-21 -7,6 -3,7 3,8 7,5 z"
   id="path558"
   inkscape:connector-curvature="0"
   style="fill:#000000;stroke:none" />
         <path
   d="m 8124,14541 8,23 3,3 10,2 12,10 11,11 5,15 5,18 v 15 l -8,13 21,15 12,-23 v -20 l -5,-23 -10,-21 -15,-20 -18,-10 -15,-8 -18,3 8,23 -8,-23 -5,5 v 7 l 7,8 h 8 z"
   id="path560"
   inkscape:connector-curvature="0"
   style="fill:#000000;stroke:none" />
         <path
   d="m 8147,14450 -5,23 13,15 5,20 -5,18 -31,15 6,26 40,-26 15,-33 -10,-30 -18,-26 -5,23 5,-23 -10,-2 -7,5 -3,7 5,11 z"
   id="path562"
   inkscape:connector-curvature="0"
   style="fill:#000000;stroke:none" />
         <path
   d="m 8163,14363 -11,21 18,20 8,18 v 15 l -31,13 5,25 41,-23 10,-30 -12,-28 -18,-26 -10,21 10,-21 -8,-5 -10,3 -5,8 2,10 z"
   id="path564"
   inkscape:connector-curvature="0"
   style="fill:#000000;stroke:none" />
         <path
   d="m 8211,14277 -5,25 5,3 2,8 3,12 v 15 l -5,11 -8,7 -15,5 h -25 v 26 h 25 l 25,-10 18,-13 10,-20 v -21 l -2,-18 -8,-17 -15,-13 -5,25 5,-25 h -10 l -5,8 -3,10 8,7 z"
   id="path566"
   inkscape:connector-curvature="0"
   style="fill:#000000;stroke:none" />
         <path
   d="m 8224,14201 -6,23 11,7 7,18 -2,20 -23,8 v 25 l 38,-17 13,-36 -13,-33 -31,-18 -5,23 5,-23 -7,5 -3,8 3,7 7,6 z"
   id="path568"
   inkscape:connector-curvature="0"
   style="fill:#000000;stroke:none" />
         <path
   d="m 8297,14135 -18,10 3,15 v 18 l -3,13 -2,12 -8,8 -5,2 -18,-2 -22,-10 -11,20 28,15 23,3 21,-8 12,-18 8,-17 2,-18 v -18 l -2,-15 -18,10 18,-10 -5,-8 -8,-5 -7,5 -6,8 z"
   id="path570"
   inkscape:connector-curvature="0"
   style="fill:#000000;stroke:none" />
         <path
   d="m 8351,14079 -18,10 -3,10 -2,20 -13,13 -18,3 -10,20 38,3 23,-28 8,-26 2,-15 -18,10 18,-10 -5,-8 -7,-5 -8,5 -5,8 z"
   id="path572"
   inkscape:connector-curvature="0"
   style="fill:#000000;stroke:none" />
         <path
   d="m 8429,14023 -17,10 v 13 l -3,10 -5,15 -3,8 -5,7 -10,3 -15,-3 -20,-7 -11,20 26,13 20,2 21,-7 15,-13 7,-18 6,-15 2,-15 v -13 l -18,10 18,-10 -5,-8 -8,-5 -7,5 -5,8 z"
   id="path574"
   inkscape:connector-curvature="0"
   style="fill:#000000;stroke:none" />
         <path
   d="m 8478,13972 -16,10 -5,23 -5,15 -2,5 -21,-2 -10,20 31,8 23,-15 10,-26 5,-23 -15,10 15,-10 -3,-10 -7,-5 -10,3 -6,7 z"
   id="path576"
   inkscape:connector-curvature="0"
   style="fill:#000000;stroke:none" />
         <path
   d="m 8539,13936 -16,16 3,15 -3,5 v 3 l -5,2 h -10 -10 l -10,-2 -10,-3 -5,25 10,3 15,2 h 10 15 l 16,-7 10,-13 2,-15 -2,-20 -15,15 15,-15 -5,-8 -10,-3 -8,5 -3,11 z"
   id="path578"
   inkscape:connector-curvature="0"
   style="fill:#000000;stroke:none" />
         <path
   d="m 8564,13936 v 0 13 l 3,-5 h -8 l -20,-8 -5,26 20,7 h 18 l 18,-15 v -18 0 z"
   id="path580"
   inkscape:connector-curvature="0"
   style="fill:#000000;stroke:none" />
         <path
   d="m 8559,13878 v -3 16 l 3,12 v 16 l 2,17 h 26 l -3,-17 v -16 l -3,-12 v -16 -2 2 l -5,-7 -7,-5 -8,5 -5,7 z"
   id="path582"
   inkscape:connector-curvature="0"
   style="fill:#000000;stroke:none" />
         <path
   d="m 9611,15375 v -64 -117 -114 -64 h 3 2 5 l 3,-2 1888,-1184 5,-3 5,-5 6,-5 2,-3 v 69 117 114 61 l -2,3 -3,2 -3,3 -2,2 -1896,1185 -3,2 h -5 l -2,3 z"
   id="path584"
   inkscape:connector-curvature="0"
   style="fill:#a87f51;stroke:none" />
         <path
   d="m 9611,15004 -12,12 v 64 114 117 64 h 25 v -64 -117 -114 -64 l -13,13 13,-13 -5,-7 -8,-5 -7,5 -5,7 z"
   id="path586"
   inkscape:connector-curvature="0"
   style="fill:#000000;stroke:none" />
         <path
   d="m 9619,15004 v 0 0 h -3 -2 -3 v 25 h 3 2 8 l 5,-5 v 0 0 l 5,-5 v -10 l -8,-5 z"
   id="path588"
   inkscape:connector-curvature="0"
   style="fill:#000000;stroke:none" />
         <path
   d="m 11507,13820 v 0 l -1888,1184 10,20 1888,-1184 v 0 0 l 5,-5 v -10 l -7,-5 z"
   id="path590"
   inkscape:connector-curvature="0"
   style="fill:#000000;stroke:none" />
         <path
   d="m 11543,13814 -21,-7 -2,2 -5,5 -5,3 -3,3 10,20 8,-3 5,-7 5,-5 3,-3 -21,-8 21,8 2,-8 -2,-7 -8,-3 -8,3 z"
   id="path592"
   inkscape:connector-curvature="0"
   style="fill:#000000;stroke:none" />
         <path
   d="m 11540,14180 3,-5 v -61 -114 -117 -69 h -26 v 69 117 114 61 l 3,-5 -3,5 5,8 8,2 8,-2 5,-8 z"
   id="path594"
   inkscape:connector-curvature="0"
   style="fill:#000000;stroke:none" />
         <path
   d="m 11525,14196 v 0 l 5,-5 3,-3 2,-3 5,-5 -20,-10 v 0 l -3,3 -2,2 v 0 0 0 l -5,5 v 8 l 7,8 z"
   id="path596"
   inkscape:connector-curvature="0"
   style="fill:#000000;stroke:none" />
         <path
   d="m 9629,15380 v 0 l 1896,-1184 -10,-21 -1896,1185 v 0 0 l -5,5 v 7 l 7,8 z"
   id="path598"
   inkscape:connector-curvature="0"
   style="fill:#000000;stroke:none" />
         <path
   d="m 9599,15375 12,12 8,-2 v 0 h 5 l 5,-5 -10,-20 v 0 h -5 l -5,5 2,-3 13,13 -13,-13 -7,5 -3,8 3,7 7,5 z"
   id="path600"
   inkscape:connector-curvature="0"
   style="fill:#000000;stroke:none" />
         <path
   d="m 9611,15375 v -64 -117 -114 -64 h -2 l -5,-2 -3,-3 -2,-2 -750,-938 -3,-2 v -6 -2 -3 69 109 110 71 2 5 3 l 3,2 750,936 2,2 3,3 5,2 z"
   id="path602"
   inkscape:connector-curvature="0"
   style="fill:#a87f51;stroke:none" />
         <path
   d="m 9611,15029 -12,-13 v 64 114 117 64 h 25 v -64 -117 -114 -64 l -13,-12 13,12 -5,-7 -8,-5 -7,5 -5,7 z"
   id="path604"
   inkscape:connector-curvature="0"
   style="fill:#000000;stroke:none" />
         <path
   d="m 9588,15016 h 3 l 2,3 3,5 10,5 h 5 v -25 0 0 h -2 l -3,-3 h 3 -3 l -7,-2 -8,2 -3,8 3,7 z"
   id="path606"
   inkscape:connector-curvature="0"
   style="fill:#000000;stroke:none" />
         <path
   d="m 8839,14076 v 3 l 749,937 21,-15 -750,-938 v 3 -3 l -8,-5 -10,3 -5,8 3,10 z"
   id="path608"
   inkscape:connector-curvature="0"
   style="fill:#000000;stroke:none" />
         <path
   d="m 8859,14058 h -25 v 3 2 8 l 5,5 20,-10 v 0 -3 -2 -3 h -25 25 l -5,-7 -8,-5 -7,5 -5,7 z"
   id="path610"
   inkscape:connector-curvature="0"
   style="fill:#000000;stroke:none" />
         <path
   d="m 8859,14417 v 0 -71 -110 -109 -69 h -25 v 69 109 110 71 0 0 l 5,7 7,3 8,-3 z"
   id="path612"
   inkscape:connector-curvature="0"
   style="fill:#000000;stroke:none" />
         <path
   d="m 8859,14422 h -3 v 0 l 3,2 v -5 -2 h -25 v 2 5 l 2,8 5,5 h -2 2 l 8,3 7,-3 3,-8 -3,-7 z"
   id="path614"
   inkscape:connector-curvature="0"
   style="fill:#000000;stroke:none" />
         <path
   d="m 9609,15360 v -3 l -750,-935 -20,15 749,935 v -2 2 l 11,5 7,-2 5,-8 -2,-10 z"
   id="path616"
   inkscape:connector-curvature="0"
   style="fill:#000000;stroke:none" />
         <path
   d="m 9599,15375 17,-10 v -3 l -5,-2 h -2 v 0 l -21,10 5,5 3,5 5,2 5,3 18,-10 -18,10 h 8 l 7,-8 v -7 l -5,-5 z"
   id="path618"
   inkscape:connector-curvature="0"
   style="fill:#000000;stroke:none" />
         <path
   d="m 8854,14236 2,-7 -2,-8 -8,-3 -7,3 z"
   id="path620"
   inkscape:connector-curvature="0"
   style="fill:#000000;stroke:none" />
         <path
   d="m 8859,14234 v 2 0 -2 -3 l -5,5 -15,-15 -5,10 v 3 7 l 5,5 v 3 -3 l 5,6 h 10 l 5,-8 v -8 z"
   id="path622"
   inkscape:connector-curvature="0"
   style="fill:#000000;stroke:none" />
         <path
   d="m 9609,15171 v -2 l -750,-935 -20,15 749,935 v -2 2 l 11,5 7,-2 5,-8 -2,-10 z"
   id="path624"
   inkscape:connector-curvature="0"
   style="fill:#000000;stroke:none" />
         <path
   d="m 9611,15171 v 0 0 0 h -2 v 0 l -21,11 5,5 3,5 10,5 h 5 v 0 0 l 8,-5 5,-8 -5,-7 z"
   id="path626"
   inkscape:connector-curvature="0"
   style="fill:#000000;stroke:none" />
         <path
   d="m 9619,15171 v 0 0 h -3 -2 -3 v 26 h 3 2 8 l 5,-5 v 0 0 l 5,-5 v -10 l -8,-6 z"
   id="path628"
   inkscape:connector-curvature="0"
   style="fill:#000000;stroke:none" />
         <path
   d="m 11515,13987 v 0 l -1896,1184 10,21 1896,-1184 v 0 0 l 5,-6 v -10 l -8,-5 z"
   id="path630"
   inkscape:connector-curvature="0"
   style="fill:#000000;stroke:none" />
         <path
   d="m 11515,13985 v 0 0 2 0 l 10,21 5,-6 5,-2 5,-10 v -5 z"
   id="path632"
   inkscape:connector-curvature="0"
   style="fill:#000000;stroke:none" />
         <path
   d="m 11540,13985 -5,-8 -7,-5 -8,5 -5,8 z"
   id="path634"
   inkscape:connector-curvature="0"
   style="fill:#000000;stroke:none" />
         <path
   d="m 11528,13814 v -2 -5 -3 l -3,-2 -633,-908 -2,-2 -3,-3 -5,-2 h -3 -2 -5 -3 l -2,2 -2013,1157 -3,2 -2,3 -3,2 v 3 2 5 3 l 3,5 750,938 2,2 h 3 l 5,3 2,2 h 3 2 5 l 3,-2 1896,-1189 2,-3 3,-2 3,-3 z"
   id="path636"
   inkscape:connector-curvature="0"
   style="fill:#e8e0d3;stroke:none" />
         <path
   d="m 11515,13809 h 2 v 0 l -2,-2 v 5 l 2,-3 21,11 2,-8 v -5 l -2,-8 -5,-5 h 2 -2 l -8,-2 -8,2 -2,8 2,7 z"
   id="path638"
   inkscape:connector-curvature="0"
   style="fill:#000000;stroke:none" />
         <path
   d="m 10885,12902 h -3 l 633,907 20,-15 -633,-907 h -2 2 l -7,-5 -10,2 -6,8 3,10 z"
   id="path640"
   inkscape:connector-curvature="0"
   style="fill:#000000;stroke:none" />
         <path
   d="m 10879,12900 v 0 0 0 h 3 l 3,2 15,-15 -3,-3 -2,-5 -10,-5 h -6 v 0 0 l -7,5 -3,8 3,7 z"
   id="path642"
   inkscape:connector-curvature="0"
   style="fill:#000000;stroke:none" />
         <path
   d="m 10872,12900 2,-3 v 0 l -2,3 h 5 2 v -26 h -2 -5 l -8,3 -5,5 3,-3 -3,3 -2,7 2,8 8,3 7,-3 z"
   id="path644"
   inkscape:connector-curvature="0"
   style="fill:#000000;stroke:none" />
         <path
   d="m 8859,14056 v 0 l 2013,-1156 -10,-21 -2013,1157 v 0 0 l -5,5 v 7 l 7,8 z"
   id="path646"
   inkscape:connector-curvature="0"
   style="fill:#000000;stroke:none" />
         <path
   d="m 8856,14061 3,-5 -3,2 v 0 l 3,-2 v 0 l -10,-20 -5,5 -3,2 -5,5 -2,8 2,-5 -2,5 5,7 7,3 8,-3 5,-7 z"
   id="path648"
   inkscape:connector-curvature="0"
   style="fill:#000000;stroke:none" />
         <path
   d="m 8859,14063 v 3 -3 0 -5 l -3,3 -20,-10 -2,7 v 5 6 l 5,7 v 3 -3 l 5,5 h 10 l 5,-7 v -8 z"
   id="path650"
   inkscape:connector-curvature="0"
   style="fill:#000000;stroke:none" />
         <path
   d="m 9606,15001 h 3 l -750,-938 -20,16 749,937 h 3 -3 l 11,6 7,-3 5,-8 -2,-10 z"
   id="path652"
   inkscape:connector-curvature="0"
   style="fill:#000000;stroke:none" />
         <path
   d="m 9611,15004 5,2 v -2 l -10,-5 v 2 0 l -15,15 5,6 5,2 v 0 l 5,3 5,2 -5,-2 h 8 l 7,-8 v -8 l -5,-5 z"
   id="path654"
   inkscape:connector-curvature="0"
   style="fill:#000000;stroke:none" />
         <path
   d="m 9619,15004 v 0 0 h -3 -2 -3 v 25 h 3 2 8 l 5,-5 v 0 0 l 5,-5 v -10 l -8,-5 z"
   id="path656"
   inkscape:connector-curvature="0"
   style="fill:#000000;stroke:none" />
         <path
   d="m 11515,13814 v 0 l -1896,1190 10,20 1896,-1189 v 0 0 l 5,-5 v -10 l -8,-6 z"
   id="path658"
   inkscape:connector-curvature="0"
   style="fill:#000000;stroke:none" />
         <path
   d="m 11517,13809 -2,5 2,-2 v 0 l -2,2 v 0 l 10,21 5,-5 3,-3 5,-5 2,-8 -2,6 2,-6 -5,-7 -7,-5 -8,5 -5,7 z"
   id="path660"
   inkscape:connector-curvature="0"
   style="fill:#000000;stroke:none" />
         <path
   d="m 8584,13685 59,13 69,10 81,12 89,13 96,13 100,13 104,12 101,10 105,11 96,10 94,7 87,8 73,8 66,2 51,5 h 36 35 54 l 66,-2 76,-3 86,-2 95,-3 96,-5 102,-3 101,-5 100,-5 94,-7 89,-5 81,-8 71,-8 56,-10 43,-7 8,27 -5,34 -10,40 -18,46 -13,30 -18,46 -23,54 -23,55 -22,56 -21,51 -18,38 -10,26 -43,17 -53,16 -64,15 -71,13 -76,10 -82,13 -83,10 -84,7 -84,8 -81,5 -77,5 -73,5 -64,3 -56,2 -48,3 h -33 -36 -46 -61 l -68,-3 h -79 l -84,-2 -91,-5 -94,-8 -99,-8 -100,-10 -96,-12 -97,-16 -91,-17 -87,-23 -81,-26 -71,-28 -18,-101 -18,-155 -5,-163 z"
   id="path662"
   inkscape:connector-curvature="0"
   style="fill:#d3bfa8;stroke:none" />
         <path
   d="m 9891,13820 v 0 h -36 l -51,-6 -66,-2 -73,-8 -87,-7 -94,-8 -96,-10 -105,-10 -101,-10 -104,-13 -100,-13 -96,-13 -89,-12 -81,-13 -69,-10 -56,-13 -5,26 61,12 69,10 81,13 89,13 96,13 100,12 104,13 101,10 105,10 96,10 94,8 87,8 73,7 66,3 51,5 h 36 v 0 z"
   id="path664"
   inkscape:connector-curvature="0"
   style="fill:#000000;stroke:none" />
         <path
   d="m 11146,13753 -12,-7 -41,7 -56,11 -71,7 -81,8 -89,5 -94,8 -100,5 -101,5 -102,2 -96,5 -95,3 -86,2 -76,3 -66,3 h -54 -35 v 25 h 35 54 l 66,-3 76,-2 86,-3 95,-2 96,-5 102,-3 101,-5 100,-5 94,-8 89,-5 81,-7 71,-8 56,-10 46,-8 -13,-7 13,7 7,-5 3,-10 -5,-8 -10,-2 z"
   id="path666"
   inkscape:connector-curvature="0"
   style="fill:#000000;stroke:none" />
         <path
   d="m 11123,13911 v 0 l 18,-48 10,-41 5,-36 -10,-33 -20,11 5,22 -5,31 -10,41 -18,43 v 0 z"
   id="path668"
   inkscape:connector-curvature="0"
   style="fill:#000000;stroke:none" />
         <path
   d="m 10968,14272 5,-5 13,-26 18,-38 20,-51 23,-55 23,-56 23,-54 18,-46 12,-30 -25,-10 -13,30 -17,46 -23,53 -23,56 -23,56 -20,51 -18,38 -8,26 5,-5 -5,5 v 7 l 8,8 h 7 l 5,-5 z"
   id="path670"
   inkscape:connector-curvature="0"
   style="fill:#000000;stroke:none" />
         <path
   d="m 9891,14407 v 0 h 33 l 48,-3 56,-3 64,-2 73,-5 77,-5 81,-5 84,-8 84,-8 83,-10 82,-12 76,-11 74,-12 63,-16 54,-15 45,-20 -10,-20 -40,15 -54,15 -63,15 -69,13 -76,10 -82,13 -83,10 -84,8 -84,7 -81,5 -77,5 -73,6 -64,2 -56,3 -48,2 h -33 v 0 z"
   id="path672"
   inkscape:connector-curvature="0"
   style="fill:#000000;stroke:none" />
         <path
   d="m 8597,14239 8,7 74,31 81,25 86,23 94,18 97,15 96,13 100,10 99,8 94,7 91,5 84,3 h 79 l 68,3 h 61 46 36 v -26 h -36 -46 -61 l -68,-2 h -79 l -84,-3 -91,-5 -94,-8 -99,-7 -100,-10 -96,-13 -97,-15 -89,-18 -86,-23 -81,-25 -69,-26 8,8 -8,-8 h -8 l -7,5 v 10 l 5,5 z"
   id="path674"
   inkscape:connector-curvature="0"
   style="fill:#000000;stroke:none" />
         <path
   d="m 8587,13672 -15,10 -15,135 5,163 17,155 18,104 26,-5 -18,-99 -18,-155 -5,-163 15,-130 -15,11 15,-11 -2,-10 -8,-5 -10,3 -5,7 z"
   id="path676"
   inkscape:connector-curvature="0"
   style="fill:#000000;stroke:none" />
         <path
   d="m 9060,12526 35,3 44,2 43,3 h 48 l 53,2 54,3 58,2 59,3 63,2 h 64 l 63,3 66,2 69,3 h 66 l 66,2 69,3 66,3 h 66 l 63,2 h 64 l 61,3 h 61 l 56,2 h 53 l 51,3 h 48 46 l 38,2 h 36 33 25 21 l 5,130 10,150 18,152 17,130 h -30 -38 -46 -48 l -56,-3 -61,-2 -66,-3 -69,-2 -74,-3 -73,-5 -79,-2 -79,-6 -81,-5 -81,-2 -82,-5 -84,-5 -81,-5 -79,-5 -79,-6 -76,-5 -73,-2 -72,-5 -68,-5 -61,-3 -59,-5 -53,-2 -48,-3 -41,-3 -33,-2 -28,-3 h -20 -11 l 21,-58 20,-64 23,-66 23,-68 20,-69 23,-69 20,-61 z"
   id="path678"
   inkscape:connector-curvature="0"
   style="fill:#e8e0d3;stroke:none" />
         <path
   d="m 10780,12574 -12,-12 h -21 -25 -33 -36 l -38,-3 h -46 -48 l -51,-3 h -53 l -56,-2 h -61 l -61,-3 h -64 l -63,-2 h -66 l -66,-3 -69,-2 -66,-3 h -66 l -69,-2 -66,-3 -63,-2 h -64 l -63,-3 -59,-2 -58,-3 -54,-3 -53,-2 h -48 l -43,-3 -44,-2 -35,-3 v 26 l 35,2 44,3 43,2 h 48 l 53,3 54,2 58,3 59,2 63,3 h 64 l 63,3 66,2 69,3 h 66 l 66,2 69,3 66,2 h 66 l 63,3 h 64 l 61,2 h 61 l 56,3 h 53 l 51,2 h 48 46 l 38,3 h 36 33 25 21 l -13,-13 13,13 7,-5 5,-8 -5,-7 -7,-5 z"
   id="path680"
   inkscape:connector-curvature="0"
   style="fill:#000000;stroke:none" />
         <path
   d="m 10818,13149 13,-13 -18,-130 -17,-152 -11,-150 -5,-130 h -25 l 5,130 10,150 18,152 18,130 12,-13 -12,13 5,8 7,2 8,-2 5,-8 z"
   id="path682"
   inkscape:connector-curvature="0"
   style="fill:#000000;stroke:none" />
         <path
   d="m 8877,13037 12,15 h 11 20 l 28,3 33,2 41,3 48,2 53,3 59,5 61,2 68,5 72,6 73,2 76,5 79,5 79,5 81,5 84,5 82,6 81,2 81,5 79,5 79,3 73,5 74,2 69,3 66,3 61,2 56,3 h 48 46 38 30 v -26 h -30 -38 -46 -48 l -56,-2 -61,-3 -66,-2 -69,-3 -74,-3 -73,-5 -79,-2 -79,-5 -81,-5 -81,-3 -82,-5 -84,-5 -81,-5 -79,-5 -79,-5 -76,-5 -73,-3 -72,-5 -68,-5 -61,-3 -59,-5 -53,-2 -48,-3 -41,-2 -33,-3 -28,-2 h -20 -11 l 13,15 -13,-15 -7,5 -3,7 3,8 7,5 z"
   id="path684"
   inkscape:connector-curvature="0"
   style="fill:#000000;stroke:none" />
         <path
   d="m 9060,12513 -13,10 -20,59 -21,61 -23,69 -20,68 -23,69 -23,66 -20,63 -20,59 25,5 20,-59 21,-63 23,-66 23,-69 20,-68 23,-69 20,-61 20,-58 -12,10 12,-10 -2,-11 -8,-5 -10,3 -5,7 z"
   id="path686"
   inkscape:connector-curvature="0"
   style="fill:#000000;stroke:none" />
         <path
   d="m 8584,13685 59,13 69,10 81,12 89,13 96,13 100,13 104,12 101,10 105,11 96,10 94,7 87,8 73,8 66,2 51,5 h 36 35 54 l 66,-2 76,-3 86,-2 95,-3 96,-5 102,-3 101,-5 100,-5 94,-7 89,-5 81,-8 71,-8 56,-10 43,-7 -5,-148 -13,-185 -10,-173 3,-112 h -49 -43 l -40,3 h -36 -33 l -31,-3 h -30 l -31,-5 h -30 -38 -46 -48 l -56,-3 -61,-2 -66,-3 -69,-2 -74,-3 -73,-5 -79,-2 -79,-6 -81,-5 -81,-2 -82,-5 -84,-5 -81,-5 -79,-5 -79,-6 -76,-5 -73,-2 -72,-5 -68,-5 -61,-3 -59,-5 -53,-2 -48,-3 -41,-3 -33,-2 -28,-3 h -20 -11 -20 -20 -21 -20 -18 -17 -16 -15 l -15,61 -23,82 -23,94 -25,99 -23,99 -21,89 -17,71 z"
   id="path688"
   inkscape:connector-curvature="0"
   style="fill:#e8e0d3;stroke:none" />
         <path
   d="m 9891,13820 v 0 h -36 l -51,-6 -66,-2 -73,-8 -87,-7 -94,-8 -96,-10 -105,-10 -101,-10 -104,-13 -100,-13 -96,-13 -89,-12 -81,-13 -69,-10 -56,-13 -5,26 61,12 69,10 81,13 89,13 96,13 100,12 104,13 101,10 105,10 96,10 94,8 87,8 73,7 66,3 51,5 h 36 v 0 z"
   id="path690"
   inkscape:connector-curvature="0"
   style="fill:#000000;stroke:none" />
         <path
   d="m 11123,13759 11,-13 -41,7 -56,11 -71,7 -81,8 -89,5 -94,8 -100,5 -101,5 -102,2 -96,5 -95,3 -86,2 -76,3 -66,3 h -54 -35 v 25 h 35 54 l 66,-3 76,-2 86,-3 95,-2 96,-5 102,-3 101,-5 100,-5 94,-8 89,-5 81,-7 71,-8 56,-10 46,-8 10,-12 -10,12 7,-5 3,-10 -5,-8 -10,-2 z"
   id="path692"
   inkscape:connector-curvature="0"
   style="fill:#000000;stroke:none" />
         <path
   d="m 11111,13154 -13,-13 -3,112 11,173 12,185 5,148 h 26 l -5,-148 -13,-185 -10,-173 2,-112 -12,-13 12,13 -5,-8 -7,-5 -8,5 -5,8 z"
   id="path694"
   inkscape:connector-curvature="0"
   style="fill:#000000;stroke:none" />
         <path
   d="m 10818,13149 v 0 l 31,5 h 30 l 31,2 h 33 36 l 40,-2 h 43 49 v -26 h -49 -43 l -40,3 h -36 -33 l -31,-3 h -30 l -31,-5 v 0 0 l -7,5 -3,8 3,8 z"
   id="path696"
   inkscape:connector-curvature="0"
   style="fill:#000000;stroke:none" />
         <path
   d="m 8889,13052 v 0 h 11 20 l 28,3 33,2 41,3 48,2 53,3 59,5 61,2 68,5 72,6 73,2 76,5 79,5 79,5 81,5 84,5 82,6 81,2 81,5 79,5 79,3 73,5 74,2 69,3 66,3 61,2 56,3 h 48 46 38 30 v -26 h -30 -38 -46 -48 l -56,-2 -61,-3 -66,-2 -69,-3 -74,-3 -73,-5 -79,-2 -79,-5 -81,-5 -81,-3 -82,-5 -84,-5 -81,-5 -79,-5 -79,-5 -76,-5 -73,-3 -72,-5 -68,-5 -61,-3 -59,-5 -53,-2 -48,-3 -41,-2 -33,-3 -28,-2 h -20 -11 v 0 0 l -7,5 -3,7 3,8 z"
   id="path698"
   inkscape:connector-curvature="0"
   style="fill:#000000;stroke:none" />
         <path
   d="m 8755,13042 -13,10 h 15 16 17 18 20 21 20 20 v -25 h -20 -20 -21 -20 -18 -17 -16 -15 l -13,10 13,-10 -8,5 -2,7 2,8 8,5 z"
   id="path700"
   inkscape:connector-curvature="0"
   style="fill:#000000;stroke:none" />
         <path
   d="m 8587,13672 10,13 10,-48 18,-72 20,-89 23,-99 26,-99 23,-94 22,-81 16,-61 -26,-5 -15,61 -23,81 -23,94 -25,99 -23,99 -20,89 -18,71 -10,54 10,13 -10,-13 5,7 7,3 8,-3 5,-7 z"
   id="path702"
   inkscape:connector-curvature="0"
   style="fill:#000000;stroke:none" />
         <path
   d="m 8902,13868 -25,-3 h -26 l -25,3 -23,2 -20,5 -18,11 -10,15 -5,18 -5,58 2,51 v 43 l 3,36 2,15 10,18 16,15 20,13 25,12 26,13 28,10 30,8 21,5 30,5 41,5 45,8 54,5 58,7 64,11 63,7 66,8 69,5 64,8 63,5 61,5 54,5 50,2 h 41 43 l 49,-2 h 58 l 61,-3 66,-2 69,-5 71,-3 71,-5 69,-3 66,-5 63,-2 59,-5 51,-3 40,-5 36,-2 23,-3 38,-5 35,-8 33,-7 33,-10 28,-16 26,-17 18,-23 15,-28 23,-59 20,-48 15,-38 10,-28 v -10 l -2,-13 -10,-8 -13,-10 -20,-5 -26,-2 h -30 l -41,5 -28,2 -40,3 -54,2 -61,3 -68,2 h -74 l -79,3 h -79 -81 l -79,2 h -74 -68 -64 -53 -41 -30 -31 -35 l -38,-2 h -41 l -46,-3 -43,-2 -46,-3 -46,-2 -45,-3 -44,-2 -40,-5 -38,-3 -36,-2 -30,-3 -26,-3 -20,-2 -38,-5 -46,-5 -48,-5 -49,-5 -45,-5 -41,-6 -31,-5 z"
   id="path704"
   inkscape:connector-curvature="0"
   style="fill:#6d9984;stroke:none" />
         <path
   d="m 8762,13919 v 0 l 3,-13 8,-10 15,-8 15,-5 23,-2 25,-3 h 26 l 25,3 v -26 l -25,-2 h -26 l -25,2 -23,3 -25,5 -21,12 -12,21 -8,23 v 0 z"
   id="path706"
   inkscape:connector-curvature="0"
   style="fill:#000000;stroke:none" />
         <path
   d="m 8762,14107 v 0 l -2,-36 v -43 l -3,-51 5,-58 h -25 l -5,58 2,51 v 43 l 3,36 v 0 z"
   id="path708"
   inkscape:connector-curvature="0"
   style="fill:#000000;stroke:none" />
         <path
   d="m 8910,14198 v 0 l -31,-7 -25,-11 -26,-10 -25,-12 -18,-13 -12,-13 -8,-13 -3,-12 h -25 l 2,17 13,23 18,18 23,13 25,13 26,15 30,10 31,8 v 0 z"
   id="path710"
   inkscape:connector-curvature="0"
   style="fill:#000000;stroke:none" />
         <path
   d="m 9751,14290 v 0 h -41 l -50,-3 -54,-5 -61,-5 -63,-5 -64,-8 -69,-5 -66,-7 -63,-8 -64,-10 -58,-8 -54,-5 -45,-8 -41,-5 -28,-5 -20,-5 -5,26 20,5 33,5 41,5 45,7 54,6 58,7 64,10 63,8 66,8 69,5 64,7 63,5 61,5 54,6 50,2 h 41 v 0 z"
   id="path712"
   inkscape:connector-curvature="0"
   style="fill:#000000;stroke:none" />
         <path
   d="m 10646,14241 v 0 l -23,3 -36,2 -40,6 -51,2 -59,5 -63,3 -66,5 -69,2 -71,5 -71,3 -69,5 -66,3 -61,2 h -58 l -49,3 h -43 v 25 h 43 l 49,-2 h 58 l 61,-3 66,-3 69,-5 71,-2 71,-5 69,-3 66,-5 63,-2 59,-6 51,-2 40,-5 36,-3 23,-2 v 0 z"
   id="path714"
   inkscape:connector-curvature="0"
   style="fill:#000000;stroke:none" />
         <path
   d="m 10859,14137 v 0 l -13,26 -15,20 -23,15 -28,13 -30,10 -33,8 -33,7 -38,5 v 26 l 38,-5 38,-8 33,-8 36,-10 27,-18 28,-20 21,-25 18,-31 v 0 z"
   id="path716"
   inkscape:connector-curvature="0"
   style="fill:#000000;stroke:none" />
         <path
   d="m 10928,13967 v -3 l -10,28 -16,36 -20,48 -23,61 26,5 22,-56 21,-48 15,-41 10,-28 v -2 z"
   id="path718"
   inkscape:connector-curvature="0"
   style="fill:#000000;stroke:none" />
         <path
   d="m 10798,13936 v 0 l 41,-5 h 30 l 26,3 15,2 10,11 8,2 v 8 10 h 25 v -10 l -5,-18 -13,-13 -15,-10 -25,-8 -26,-2 h -30 l -41,5 v 0 z"
   id="path720"
   inkscape:connector-curvature="0"
   style="fill:#000000;stroke:none" />
         <path
   d="m 9825,13954 v 0 h 30 41 53 64 68 74 l 79,-2 h 81 79 l 79,-3 h 74 l 68,-2 61,-3 54,-3 40,-2 28,-3 v -25 l -28,3 -40,2 -54,3 -61,2 -68,3 h -74 l -79,2 h -79 -81 l -79,3 h -74 -68 -64 -53 -41 -30 v 0 z"
   id="path722"
   inkscape:connector-curvature="0"
   style="fill:#000000;stroke:none" />
         <path
   d="m 9220,13919 v 0 l 20,2 26,3 30,2 36,3 38,2 40,5 44,3 45,2 46,3 46,3 43,2 46,3 h 41 l 38,2 h 35 31 v -25 h -31 -35 l -38,-3 h -41 l -46,-2 -43,-3 -46,-2 -46,-3 -45,-2 -44,-3 -40,-5 -38,-3 -36,-2 -30,-3 -26,-2 -20,-3 v 0 z"
   id="path724"
   inkscape:connector-curvature="0"
   style="fill:#000000;stroke:none" />
         <path
   d="m 8902,13881 h -2 l 22,2 31,5 41,5 45,5 49,5 48,5 46,6 38,5 v -26 l -38,-5 -46,-5 -48,-5 -49,-5 -45,-5 -41,-5 -31,-5 -17,-3 h -3 3 l -10,3 -3,7 v 10 l 8,6 z"
   id="path726"
   inkscape:connector-curvature="0"
   style="fill:#000000;stroke:none" />
         <path
   d="m 10890,14008 v -23 l -16,-13 h -20 l -15,15 z"
   id="path728"
   inkscape:connector-curvature="0"
   style="fill:#ffffff;stroke:none" />
         <path
   d="m 10844,14117 v 2 l 10,-22 10,-26 13,-28 13,-35 -51,-21 -13,36 -13,28 -10,25 -10,23 v 3 z"
   id="path730"
   inkscape:connector-curvature="0"
   style="fill:#ffffff;stroke:none" />
         <path
   d="m 10702,14226 v 0 l 25,-5 25,-5 23,-10 18,-13 18,-15 15,-20 10,-21 8,-20 -51,-15 -8,15 -5,15 -10,10 -7,10 -13,8 -13,5 -15,5 h -20 v 0 z"
   id="path732"
   inkscape:connector-curvature="0"
   style="fill:#ffffff;stroke:none" />
         <path
   d="m 10170,14239 h 23 28 31 l 35,-3 h 38 l 41,-2 h 43 l 41,-3 h 41 40 l 38,-2 h 36 l 33,-3 h 25 23 16 v -56 h -16 -23 -25 l -33,3 h -36 l -38,2 h -40 -41 l -41,3 h -43 l -41,2 h -38 l -35,3 h -31 -28 -23 z"
   id="path734"
   inkscape:connector-curvature="0"
   style="fill:#ffffff;stroke:none" />
         <path
   d="m 10170,14183 -20,8 -5,20 5,20 20,8 z"
   id="path736"
   inkscape:connector-curvature="0"
   style="fill:#ffffff;stroke:none" />
         <path
   d="m 10325,15883 -2,-10 -8,-5 -10,2 -5,8 z"
   id="path738"
   inkscape:connector-curvature="0"
   style="fill:#000000;stroke:none" />
         <path
   d="m 10203,16053 v 0 l 18,-7 18,-16 20,-20 18,-28 15,-28 13,-25 13,-23 7,-23 -25,-5 -8,18 -7,23 -13,25 -15,28 -18,23 -15,20 -13,10 -8,3 v 0 z"
   id="path740"
   inkscape:connector-curvature="0"
   style="fill:#000000;stroke:none" />
         <path
   d="m 10112,15975 v 0 17 l 8,18 10,15 15,11 13,10 17,5 16,2 h 12 v -25 h -12 l -10,-3 -13,-5 -13,-5 -10,-5 -5,-10 -3,-8 v -17 0 z"
   id="path742"
   inkscape:connector-curvature="0"
   style="fill:#000000;stroke:none" />
         <path
   d="m 10097,15840 v 0 l 2,5 8,35 5,49 v 46 h 25 v -46 l -5,-49 -12,-45 -28,-21 v 0 z"
   id="path744"
   inkscape:connector-curvature="0"
   style="fill:#000000;stroke:none" />
         <path
   d="m 10076,16028 v -3 l 8,-53 5,-64 5,-53 3,-15 -5,-26 -23,36 -5,58 -5,64 -8,48 v -2 z"
   id="path746"
   inkscape:connector-curvature="0"
   style="fill:#000000;stroke:none" />
         <path
   d="m 9975,16183 v 0 l 23,-10 17,-18 13,-20 10,-21 13,-23 10,-22 8,-23 7,-18 -25,-10 -8,23 -7,17 -10,23 -8,23 -10,20 -13,16 -13,12 -12,5 v 0 z"
   id="path748"
   inkscape:connector-curvature="0"
   style="fill:#000000;stroke:none" />
         <path
   d="m 9878,16119 v 0 l 3,16 2,15 13,13 13,10 10,7 20,5 h 15 l 21,-2 -5,-26 -16,3 h -15 l -10,-5 -10,-3 -8,-5 -2,-7 -3,-10 -2,-11 v 0 z"
   id="path750"
   inkscape:connector-curvature="0"
   style="fill:#000000;stroke:none" />
         <path
   d="m 9774,16104 v 0 l 10,-8 15,-5 h 18 l 20,3 16,5 15,8 8,7 2,5 h 26 l -8,-20 -13,-13 -20,-12 -20,-5 -26,-3 h -23 l -20,10 -20,13 v 0 z"
   id="path752"
   inkscape:connector-curvature="0"
   style="fill:#000000;stroke:none" />
         <path
   d="m 9779,16272 v 0 l -20,-23 -8,-51 8,-56 15,-38 -20,-15 -21,48 -7,61 7,61 41,38 v 0 z"
   id="path754"
   inkscape:connector-curvature="0"
   style="fill:#000000;stroke:none" />
         <path
   d="m 9926,16287 v 0 l -15,-8 -18,-2 h -17 -18 -21 -20 l -20,-3 -18,-2 -5,25 23,3 20,2 h 20 21 18 17 l 13,3 10,2 v 0 z"
   id="path756"
   inkscape:connector-curvature="0"
   style="fill:#000000;stroke:none" />
         <path
   d="m 10005,16358 -18,-20 -17,-18 -21,-20 -23,-13 -10,20 18,13 20,15 13,18 18,20 z"
   id="path758"
   inkscape:connector-curvature="0"
   style="fill:#000000;stroke:none" />
         <path
   d="m 9985,16373 10,6 8,-3 5,-8 -3,-10 z"
   id="path760"
   inkscape:connector-curvature="0"
   style="fill:#000000;stroke:none" />
         <path
   d="m 9998,16455 -3,10 5,8 10,2 8,-5 z"
   id="path762"
   inkscape:connector-curvature="0"
   style="fill:#000000;stroke:none" />
         <path
   d="m 10094,16353 -10,-7 -86,109 20,15 86,-109 z"
   id="path764"
   inkscape:connector-curvature="0"
   style="fill:#000000;stroke:none" />
         <path
   d="m 10104,16361 3,-10 -5,-8 -8,-3 -10,6 z"
   id="path766"
   inkscape:connector-curvature="0"
   style="fill:#000000;stroke:none" />
         <path
   d="m 9992,16429 -2,11 5,7 10,3 8,-5 z"
   id="path768"
   inkscape:connector-curvature="0"
   style="fill:#000000;stroke:none" />
         <path
   d="m 10069,16346 -10,-8 -67,91 21,16 66,-92 z"
   id="path770"
   inkscape:connector-curvature="0"
   style="fill:#000000;stroke:none" />
         <path
   d="m 10079,16353 2,-10 -5,-8 -7,-2 -10,5 z"
   id="path772"
   inkscape:connector-curvature="0"
   style="fill:#000000;stroke:none" />
         <path
   d="m 9985,16407 -3,10 5,7 11,3 7,-5 z"
   id="path774"
   inkscape:connector-curvature="0"
   style="fill:#000000;stroke:none" />
         <path
   d="m 10043,16340 -10,-7 -48,74 20,15 48,-74 z"
   id="path776"
   inkscape:connector-curvature="0"
   style="fill:#000000;stroke:none" />
         <path
   d="m 10053,16348 3,-10 -5,-8 -8,-2 -10,5 z"
   id="path778"
   inkscape:connector-curvature="0"
   style="fill:#000000;stroke:none" />
         <path
   d="m 9972,16391 v 8 l 8,8 h 7 l 5,-6 z"
   id="path780"
   inkscape:connector-curvature="0"
   style="fill:#000000;stroke:none" />
         <path
   d="m 10020,16335 -10,-5 -38,61 20,10 39,-61 z"
   id="path782"
   inkscape:connector-curvature="0"
   style="fill:#000000;stroke:none" />
         <path
   d="m 10031,16340 v -7 l -5,-8 h -11 l -5,5 z"
   id="path784"
   inkscape:connector-curvature="0"
   style="fill:#000000;stroke:none" />
         <path
   d="m 9998,16490 -3,11 5,7 10,3 8,-5 z"
   id="path786"
   inkscape:connector-curvature="0"
   style="fill:#000000;stroke:none" />
         <path
   d="m 10130,16353 -10,-7 -122,144 20,16 122,-145 z"
   id="path788"
   inkscape:connector-curvature="0"
   style="fill:#000000;stroke:none" />
         <path
   d="m 10140,16361 2,-10 -5,-8 -7,-3 -10,6 z"
   id="path790"
   inkscape:connector-curvature="0"
   style="fill:#000000;stroke:none" />
         <path
   d="m 10689,16772 5,-5 v -7 -8 l -5,-5 -460,-447 -5,-5 h -8 l -5,2 -5,5 -231,288 -3,5 v 7 8 l 5,5 455,447 5,5 h 8 l 7,-2 6,-3 z"
   id="path792"
   inkscape:connector-curvature="0"
   style="fill:#e8e0d3;stroke:none" />
         <path
   d="m 10681,16755 v 0 2 3 2 3 l 15,15 11,-8 v -12 -13 l -11,-8 v 0 0 l -7,-2 -8,2 -2,8 z"
   id="path794"
   inkscape:connector-curvature="0"
   style="fill:#000000;stroke:none" />
         <path
   d="m 10221,16307 v 0 l 460,448 15,-16 -460,-447 v 0 0 l -7,-2 -8,2 -2,8 z"
   id="path796"
   inkscape:connector-curvature="0"
   style="fill:#000000;stroke:none" />
         <path
   d="m 10216,16310 v 0 l 3,-3 v 0 0 h 2 l 15,-15 -7,-10 h -15 l -11,5 -7,8 v 0 0 l -3,10 5,8 10,2 z"
   id="path798"
   inkscape:connector-curvature="0"
   style="fill:#000000;stroke:none" />
         <path
   d="m 9985,16597 v 0 l 231,-287 -20,-15 -231,287 v 0 0 l -3,10 5,8 10,2 z"
   id="path800"
   inkscape:connector-curvature="0"
   style="fill:#000000;stroke:none" />
         <path
   d="m 9985,16607 v 0 -2 -3 -5 0 l -20,-15 -6,10 v 10 13 l 11,8 v 0 0 l 7,2 8,-2 2,-8 z"
   id="path802"
   inkscape:connector-curvature="0"
   style="fill:#000000;stroke:none" />
         <path
   d="m 10440,17055 v 0 l -455,-448 -15,16 455,447 v 0 0 l 7,2 8,-2 2,-8 z"
   id="path804"
   inkscape:connector-curvature="0"
   style="fill:#000000;stroke:none" />
         <path
   d="m 10447,17055 3,-3 h -3 l -2,3 h -3 -2 l -15,15 7,10 h 13 l 13,-3 7,-5 3,-2 -3,2 5,-10 -2,-7 -8,-6 -10,3 z"
   id="path806"
   inkscape:connector-curvature="0"
   style="fill:#000000;stroke:none" />
         <path
   d="m 10681,16765 h -2 l -232,290 21,15 231,-290 h -3 3 l 3,-10 -6,-8 -7,-2 -10,5 z"
   id="path808"
   inkscape:connector-curvature="0"
   style="fill:#000000;stroke:none" />
         <path
   d="m 10369,16546 2,-5 v -7 -8 l -5,-5 -99,-87 -8,-5 h -5 l -7,3 -5,2 -158,181 -3,5 v 8 7 l 6,5 94,87 5,5 h 7 l 8,-3 5,-5 z"
   id="path810"
   inkscape:connector-curvature="0"
   style="fill:#eaddd6;stroke:none" />
         <path
   d="m 10358,16531 v -2 2 3 5 0 l 21,15 5,-10 v -10 -13 l -10,-8 v -2 2 l -8,-2 -8,2 -2,8 2,8 z"
   id="path812"
   inkscape:connector-curvature="0"
   style="fill:#000000;stroke:none" />
         <path
   d="m 10259,16442 v 3 l 99,86 16,-20 -99,-87 v 3 -3 l -11,-2 -7,5 -3,7 5,11 z"
   id="path814"
   inkscape:connector-curvature="0"
   style="fill:#000000;stroke:none" />
         <path
   d="m 10252,16442 h -3 l 3,3 5,-3 h -3 5 l 16,-15 -11,-10 h -12 l -10,2 -8,8 h -3 3 l -3,7 3,8 8,3 7,-3 z"
   id="path816"
   inkscape:connector-curvature="0"
   style="fill:#000000;stroke:none" />
         <path
   d="m 10094,16623 v 0 l 158,-181 -21,-15 -157,180 v 0 0 l -3,10 5,8 11,3 z"
   id="path818"
   inkscape:connector-curvature="0"
   style="fill:#000000;stroke:none" />
         <path
   d="m 10094,16630 v 3 -3 -2 -5 0 l -20,-16 -5,10 v 11 12 l 10,8 v 2 -2 l 8,2 7,-2 3,-8 -3,-7 z"
   id="path820"
   inkscape:connector-curvature="0"
   style="fill:#000000;stroke:none" />
         <path
   d="m 10188,16719 v -2 l -94,-87 -15,20 94,87 v -3 3 l 10,2 8,-5 2,-10 -5,-7 z"
   id="path822"
   inkscape:connector-curvature="0"
   style="fill:#000000;stroke:none" />
         <path
   d="m 10196,16717 h 2 l -2,2 h -3 -2 -3 l -15,15 8,11 h 12 l 13,-6 8,-7 h 2 -2 l 2,-8 -2,-7 -8,-3 -8,3 z"
   id="path824"
   inkscape:connector-curvature="0"
   style="fill:#000000;stroke:none" />
         <path
   d="m 10358,16539 v 0 l -162,178 20,15 163,-178 v 0 0 l 2,-10 -5,-8 -7,-2 z"
   id="path826"
   inkscape:connector-curvature="0"
   style="fill:#000000;stroke:none" />
        </g>
       </g>
      </g>
     </g>
    </g>
   </g>
  </g>
 </g>
</svg>