<?xml version="1.0" encoding="UTF-8" standalone="no"?>
<svg
   xmlns:ooo="http://xml.openoffice.org/svg/export"
   xmlns:dc="http://purl.org/dc/elements/1.1/"
   xmlns:cc="http://creativecommons.org/ns#"
   xmlns:rdf="http://www.w3.org/1999/02/22-rdf-syntax-ns#"
   xmlns:svg="http://www.w3.org/2000/svg"
   xmlns="http://www.w3.org/2000/svg"
   xmlns:sodipodi="http://sodipodi.sourceforge.net/DTD/sodipodi-0.dtd"
   xmlns:inkscape="http://www.inkscape.org/namespaces/inkscape"
   version="1.2"
   width="21.16mm"
   height="39.950001mm"
   viewBox="0 0 2116 3995.0001"
   preserveAspectRatio="xMidYMid"
   xml:space="preserve"
   id="svg135"
   sodipodi:docname="cocktiel.svg"
   style="fill-rule:evenodd;stroke-width:28.22200012;stroke-linejoin:round"
   inkscape:version="0.92.5 (2060ec1f9f, 2020-04-08)"><metadata
   id="metadata139"><rdf:RDF><cc:Work
       rdf:about=""><dc:format>image/svg+xml</dc:format><dc:type
         rdf:resource="http://purl.org/dc/dcmitype/StillImage" /></cc:Work></rdf:RDF></metadata><sodipodi:namedview
   pagecolor="#ffffff"
   bordercolor="#666666"
   borderopacity="1"
   objecttolerance="10"
   gridtolerance="10"
   guidetolerance="10"
   inkscape:pageopacity="0"
   inkscape:pageshadow="2"
   inkscape:window-width="664"
   inkscape:window-height="487"
   id="namedview137"
   showgrid="false"
   inkscape:zoom="0.2102413"
   inkscape:cx="39.987403"
   inkscape:cy="75.477164"
   inkscape:window-x="0"
   inkscape:window-y="0"
   inkscape:window-maximized="0"
   inkscape:current-layer="svg135" />
 <defs
   class="ClipPathGroup"
   id="defs8">
  <clipPath
   id="presentation_clip_path"
   clipPathUnits="userSpaceOnUse">
   <rect
   x="0"
   y="0"
   width="21000"
   height="29700"
   id="rect2" />
  </clipPath>
  <clipPath
   id="presentation_clip_path_shrink"
   clipPathUnits="userSpaceOnUse">
   <rect
   x="21"
   y="29"
   width="20958"
   height="29641"
   id="rect5" />
  </clipPath>
 </defs>
 <defs
   class="TextShapeIndex"
   id="defs12">
  <g
   ooo:slide="id1"
   ooo:id-list="id3"
   id="g10" />
 </defs>
 <defs
   class="EmbeddedBulletChars"
   id="defs44">
  <g
   id="bullet-char-template-57356"
   transform="matrix(4.8828125e-4,0,0,-4.8828125e-4,0,0)">
   <path
   d="M 580,1141 1163,571 580,0 -4,571 Z"
   id="path14"
   inkscape:connector-curvature="0" />
  </g>
  <g
   id="bullet-char-template-57354"
   transform="matrix(4.8828125e-4,0,0,-4.8828125e-4,0,0)">
   <path
   d="M 8,1128 H 1137 V 0 H 8 Z"
   id="path17"
   inkscape:connector-curvature="0" />
  </g>
  <g
   id="bullet-char-template-10146"
   transform="matrix(4.8828125e-4,0,0,-4.8828125e-4,0,0)">
   <path
   d="M 174,0 602,739 174,1481 1456,739 Z M 1358,739 309,1346 659,739 Z"
   id="path20"
   inkscape:connector-curvature="0" />
  </g>
  <g
   id="bullet-char-template-10132"
   transform="matrix(4.8828125e-4,0,0,-4.8828125e-4,0,0)">
   <path
   d="M 2015,739 1276,0 H 717 l 543,543 H 174 v 393 h 1086 l -543,545 h 557 z"
   id="path23"
   inkscape:connector-curvature="0" />
  </g>
  <g
   id="bullet-char-template-10007"
   transform="matrix(4.8828125e-4,0,0,-4.8828125e-4,0,0)">
   <path
   d="m 0,-2 c -7,16 -16,29 -25,39 l 381,530 c -94,256 -141,385 -141,387 0,25 13,38 40,38 9,0 21,-2 34,-5 21,4 42,12 65,25 l 27,-13 111,-251 280,301 64,-25 24,25 c 21,-10 41,-24 62,-43 C 886,937 835,863 770,784 769,783 710,716 594,584 L 774,223 c 0,-27 -21,-55 -63,-84 l 16,-20 C 717,90 699,76 672,76 641,76 570,178 457,381 L 164,-76 c -22,-34 -53,-51 -92,-51 -42,0 -63,17 -64,51 -7,9 -10,24 -10,44 0,9 1,19 2,30 z"
   id="path26"
   inkscape:connector-curvature="0" />
  </g>
  <g
   id="bullet-char-template-10004"
   transform="matrix(4.8828125e-4,0,0,-4.8828125e-4,0,0)">
   <path
   d="M 285,-33 C 182,-33 111,30 74,156 52,228 41,333 41,471 c 0,78 14,145 41,201 34,71 87,106 158,106 53,0 88,-31 106,-94 l 23,-176 c 8,-64 28,-97 59,-98 l 735,706 c 11,11 33,17 66,17 42,0 63,-15 63,-46 V 965 c 0,-36 -10,-64 -30,-84 L 442,47 C 390,-6 338,-33 285,-33 Z"
   id="path29"
   inkscape:connector-curvature="0" />
  </g>
  <g
   id="bullet-char-template-9679"
   transform="matrix(4.8828125e-4,0,0,-4.8828125e-4,0,0)">
   <path
   d="M 813,0 C 632,0 489,54 383,161 276,268 223,411 223,592 c 0,181 53,324 160,431 106,107 249,161 430,161 179,0 323,-54 432,-161 108,-107 162,-251 162,-431 0,-180 -54,-324 -162,-431 C 1136,54 992,0 813,0 Z"
   id="path32"
   inkscape:connector-curvature="0" />
  </g>
  <g
   id="bullet-char-template-8226"
   transform="matrix(4.8828125e-4,0,0,-4.8828125e-4,0,0)">
   <path
   d="m 346,457 c -73,0 -137,26 -191,78 -54,51 -81,114 -81,188 0,73 27,136 81,188 54,52 118,78 191,78 73,0 134,-26 185,-79 51,-51 77,-114 77,-187 0,-75 -25,-137 -76,-188 -50,-52 -112,-78 -186,-78 z"
   id="path35"
   inkscape:connector-curvature="0" />
  </g>
  <g
   id="bullet-char-template-8211"
   transform="matrix(4.8828125e-4,0,0,-4.8828125e-4,0,0)">
   <path
   d="M -4,459 H 1135 V 606 H -4 Z"
   id="path38"
   inkscape:connector-curvature="0" />
  </g>
  <g
   id="bullet-char-template-61548"
   transform="matrix(4.8828125e-4,0,0,-4.8828125e-4,0,0)">
   <path
   d="m 173,740 c 0,163 58,303 173,419 116,115 255,173 419,173 163,0 302,-58 418,-173 116,-116 174,-256 174,-419 0,-163 -58,-303 -174,-418 C 1067,206 928,148 765,148 601,148 462,206 346,322 231,437 173,577 173,740 Z"
   id="path41"
   inkscape:connector-curvature="0" />
  </g>
 </defs>
 <g
   id="g49"
   transform="translate(-9442,-12852)">
  <g
   id="id2"
   class="Master_Slide">
   <g
   id="bg-id2"
   class="Background" />
   <g
   id="bo-id2"
   class="BackgroundObjects" />
  </g>
 </g>
 <g
   class="SlideGroup"
   id="g133"
   transform="translate(-9442,-12852)">
  <g
   id="g131">
   <g
   id="container-id1">
    <g
   id="id1"
   class="Slide"
   clip-path="url(#presentation_clip_path)">
     <g
   class="Page"
   id="g127">
      <g
   class="Graphic"
   id="g125">
       <g
   id="id3">
        <rect
   class="BoundingBox"
   x="9442"
   y="12852"
   width="2116"
   height="3995"
   id="rect51"
   style="fill:none;stroke:none" />
        <defs
   id="defs56">
         <clipPath
   id="clip_path_1"
   clipPathUnits="userSpaceOnUse">
          <path
   d="m 9442,12852 h 2115 v 3994 H 9442 Z"
   id="path53"
   inkscape:connector-curvature="0" />
         </clipPath>
        </defs>
        <g
   clip-path="url(#clip_path_1)"
   id="g122">
         <path
   d="m 9442,15152 15,2 8,3 2,8 -2,15 18,-15 25,-18 28,-23 33,-25 33,-23 33,-23 33,-21 31,-15 30,-12 28,-11 26,-7 25,-5 26,-5 25,-3 26,-3 28,-2 33,-3 h 43 l 48,-2 h 51 48 44 35 26 43 l 48,-5 51,-10 53,-13 51,-13 46,-18 41,-15 33,-15 15,-8 18,-10 23,-10 25,-10 28,-13 31,-13 30,-12 33,-13 33,-15 36,-13 33,-15 33,-15 36,-16 30,-15 33,-13 28,-15 46,-28 48,-35 54,-46 53,-51 54,-53 50,-51 49,-51 43,-43 15,-13 13,-13 13,-10 12,-10 11,-8 10,-5 7,-5 8,-2 -3,-21 -5,-20 -5,-20 -7,-18 -3,-18 3,-23 5,-15 2,-8 -23,11 -17,17 -16,26 -15,20 -8,8 -10,15 -18,20 -22,23 -26,31 -30,30 -31,36 -35,33 -39,38 -35,35 -41,36 -38,33 -38,31 -38,27 -36,26 -33,18 -28,12 -31,16 -33,12 -35,16 -36,12 -35,13 -36,15 -38,13 -38,13 -36,15 -38,13 -36,12 -33,13 -33,13 -30,12 -31,13 -28,13 -25,8 -26,7 -23,8 -25,5 -28,2 -25,3 -31,2 -15,3 h -18 -20 l -21,-3 h -7 -11 -10 -7 -10 -11 l -10,-2 h -10 -33 l -36,2 -40,6 -44,7 -45,10 -46,13 -48,15 -49,18 -46,18 -45,23 -46,23 -41,25 -38,25 -36,31 -28,30 z"
   id="path58"
   inkscape:connector-curvature="0"
   style="fill:#ccbf99;stroke:none" />
         <path
   d="m 9442,15152 15,2 8,3 2,8 -2,15 18,-15 25,-18 28,-23 33,-25 33,-23 33,-23 33,-21 31,-15 30,-12 28,-11 26,-7 25,-5 26,-5 25,-3 26,-3 28,-2 33,-3 h 43 l 48,-2 h 51 48 44 35 26 43 l 48,-5 51,-10 53,-13 51,-13 46,-18 41,-15 33,-15 15,-8 18,-10 23,-10 25,-10 28,-13 31,-13 30,-12 33,-13 33,-15 36,-13 33,-15 33,-15 36,-16 30,-15 33,-13 28,-15 46,-28 48,-35 54,-46 53,-51 54,-53 50,-51 49,-51 43,-43 -18,10 -20,10 -23,13 -23,15 -23,15 -20,13 -18,15 -15,13 -18,15 -23,26 -28,30 -33,33 -38,33 -43,33 -49,28 -51,20 -25,8 -25,10 -28,13 -31,10 -30,13 -31,15 -30,13 -34,15 -30,13 -28,12 -28,16 -28,10 -23,13 -23,10 -20,7 -15,8 -28,10 -41,15 -46,18 -53,18 -56,18 -59,12 -58,11 -56,2 -54,-2 h -55 l -54,2 h -51 l -48,5 -46,5 -38,5 -33,8 -36,10 -43,15 -51,18 -51,23 -56,28 -50,31 -49,38 z"
   id="path60"
   inkscape:connector-curvature="0"
   style="fill:#e5e0cc;stroke:none" />
         <path
   d="m 9666,13952 10,8 10,10 10,10 5,16 v -3 l 3,-5 3,-8 5,-5 12,64 13,63 18,69 25,76 10,26 13,28 10,25 10,28 23,48 26,46 28,43 30,36 28,33 26,25 20,18 18,13 13,10 17,15 16,18 17,20 16,18 12,18 11,15 7,8 8,7 13,8 12,13 18,12 15,13 16,10 10,10 7,5 v -5 -5 -10 -7 l 6,2 10,8 17,7 21,10 5,3 h 2 l 6,3 2,2 5,3 5,2 5,5 5,3 13,7 18,13 15,13 13,10 5,3 v 2 l 5,3 8,10 25,25 26,28 28,28 22,28 23,33 21,33 15,36 10,38 10,43 10,48 16,54 15,58 18,69 18,76 20,86 20,97 23,104 31,107 33,104 35,97 31,86 28,71 23,51 10,25 10,21 13,18 18,17 25,8 3,15 5,18 5,25 5,28 10,39 10,38 10,43 11,41 10,38 10,38 8,30 7,26 18,45 15,23 15,5 h 21 l -5,-40 -13,-89 -15,-102 -8,-71 13,-3 10,-7 10,-8 3,-5 -8,-43 -10,-71 -8,-74 -7,-48 -16,-168 -12,-262 -13,-259 -5,-165 -3,-13 v -10 -8 -7 l 16,10 25,15 25,15 31,21 31,18 27,17 26,16 18,12 5,8 5,15 10,18 10,23 13,25 15,23 18,23 23,20 -8,-28 -10,-30 -10,-36 -8,-40 16,2 15,5 18,3 h 17 l 16,2 h 17 l 13,-2 13,-3 -8,-40 -12,-39 -18,-35 -18,-31 -20,-25 -18,-23 -15,-20 -13,-16 v -35 l -3,-33 -5,-33 -10,-33 -13,-33 -12,-28 -18,-31 -18,-25 -8,-43 -15,-44 -23,-40 -28,-41 -5,-23 -5,-28 -8,-30 -10,-33 -12,-38 -16,-41 -20,-43 -23,-46 -20,-36 -21,-27 -20,-26 -18,-23 -20,-18 -15,-17 -16,-18 -15,-18 -5,-13 -8,-15 -12,-20 -13,-26 -15,-25 -18,-31 -20,-33 -23,-33 -28,-35 -33,-41 -41,-38 -43,-41 -44,-35 -40,-31 -36,-25 -25,-18 -28,-23 -31,-20 -33,-20 -33,-18 -33,-18 -33,-15 -36,-15 -30,-16 -33,-10 -28,-10 -26,-10 -25,-8 -18,-5 -15,-5 -10,-3 h -5 l -3,-7 v -10 l -2,-8 -3,-10 v 2 l -3,3 -5,5 -10,8 v -5 -16 l -2,-20 -5,-18 v 3 l -3,5 -5,7 -5,11 -5,-39 -10,-40 -16,-38 -15,-38 -8,-11 -10,-10 -10,-10 -13,-10 -15,-8 -15,-7 -18,-8 -20,-8 h 2 l 8,-2 h 10 15 l -10,-8 -10,-5 -10,-5 -13,-2 -10,-6 -13,-2 -10,-3 -13,-2 h -2 l -8,2 -15,5 -20,13 7,-2 h 20 21 l 13,5 h -11 -12 l -11,2 -10,3 -10,5 -10,2 -10,6 -8,5 h -25 l -23,5 -20,5 -16,5 -15,7 -13,8 -12,8 -11,7 v 18 l 5,26 8,25 -5,20 -8,10 -2,11 v 7 l -3,8 v 2 l -5,3 -2,2 h -5 v 6 l -3,10 -3,10 -7,13 -5,7 -5,13 -5,13 -5,7 -13,33 5,28 13,23 7,18 3,-3 2,-7 3,-5 5,-3 v 13 l 2,15 6,20 7,18 v -7 l 3,-6 5,-5 5,-5 2,18 6,18 7,18 z"
   id="path62"
   inkscape:connector-curvature="0"
   style="fill:#000000;stroke:none" />
         <path
   d="m 9666,13952 10,8 10,10 10,10 5,16 v -3 l 3,-5 3,-8 5,-5 12,64 13,63 18,69 25,76 -5,-40 3,-56 7,-54 11,-35 v 5 l 2,10 5,13 5,12 3,-10 10,-10 13,-8 12,-7 v 7 18 21 l 3,20 h 2 l 6,-5 7,-3 h 8 v 49 l 7,53 11,48 12,33 3,-10 8,-8 10,-7 12,-8 v 5 13 15 21 l 8,-8 10,-5 15,-5 h 18 l 8,45 15,49 18,43 10,30 3,-2 5,-10 5,-8 5,-7 13,20 20,25 25,28 31,28 30,28 28,26 23,17 18,16 v -3 -8 l -2,-10 v -12 l 15,12 15,15 18,18 18,23 v -2 l 2,-8 3,-8 7,-10 26,23 30,23 36,20 36,23 38,18 35,15 36,10 33,8 3,-23 7,-18 15,-12 18,-5 23,33 36,28 40,25 44,20 45,18 46,13 36,12 30,8 23,8 21,5 17,5 16,5 15,5 15,3 15,2 h 18 l -10,-30 -13,-31 -15,-25 -18,-26 -18,-20 -15,-18 -18,-10 -12,-8 -10,18 -11,13 -15,8 -13,2 h -15 l -10,-5 -10,-8 -8,-10 h 5 15 l 16,-5 18,-10 15,-20 -5,-23 -16,-21 -17,-22 -26,17 -25,10 -26,3 -23,-5 -20,-5 -20,-10 -15,-10 -13,-8 -5,5 -10,8 -13,5 -13,2 -13,3 h -15 l -15,-5 -15,-8 12,3 h 13 l 13,-5 12,-6 11,-10 10,-10 10,-8 5,-10 5,8 8,10 13,8 12,7 13,5 15,6 13,5 h 10 l 20,-5 21,-16 13,-25 -6,-33 -12,-26 -13,-25 -15,-20 -16,-16 -7,6 -13,2 h -10 l -13,-5 -10,-5 -10,-5 -8,-8 -5,-10 23,8 15,-5 11,-11 2,-15 -15,-38 -31,-51 -43,-56 -51,-61 -51,-56 -45,-48 -34,-35 -20,-18 10,5 13,2 10,5 13,6 13,5 12,5 13,5 13,7 23,5 17,6 13,7 3,3 h -13 -10 l -5,2 h -3 l 13,5 13,5 10,6 10,7 8,5 7,5 8,8 7,5 28,20 34,26 33,25 35,31 36,30 30,31 26,30 20,28 -5,-13 -8,-15 -12,-20 -13,-26 -15,-25 -18,-31 -20,-33 -23,-33 -28,-35 -33,-41 -41,-38 -43,-41 -44,-35 -40,-31 -36,-25 -25,-18 18,18 15,23 15,30 15,36 -23,-26 -28,-25 -28,-20 -28,-21 -27,-15 -26,-13 -23,-10 -15,-5 v 3 l 5,5 3,7 v 11 l -18,-3 v 3 l 2,10 5,15 5,18 -38,-46 -40,-41 -46,-35 -41,-28 -41,-20 -35,-18 -26,-8 -17,-5 v -3 l 5,-2 7,-5 11,-3 -6,-2 -10,-5 -15,-8 -18,-8 h 3 2 8 13 l -3,-7 v -10 l -2,-8 -3,-10 v 2 l -3,3 -5,5 -10,8 v -5 -16 l -2,-20 -5,-18 v 3 l -3,5 -5,7 -5,11 -5,-39 -10,-40 -16,-38 -15,-38 -8,-11 -10,-10 -10,-10 -13,-10 -15,-8 -15,-7 -18,-8 -20,-8 h 2 l 8,-2 h 10 15 l -10,-8 -10,-5 -10,-5 -13,-2 -10,-6 -13,-2 -10,-3 -13,-2 h -2 l -8,2 -15,5 -20,13 7,-2 h 20 21 l 13,5 h -11 -12 l -11,2 -10,3 -10,5 -10,2 -10,6 -8,5 h -25 l -23,5 -20,5 -16,5 -15,7 -13,8 -12,8 -11,7 v 18 l 5,26 8,25 -5,20 -8,10 -2,11 v 7 l -3,8 v 2 l -5,3 -2,2 h -5 v 6 l -3,10 -3,10 -7,13 -5,7 -5,13 -5,13 -5,7 -13,33 5,28 13,23 7,18 3,-3 2,-7 3,-5 5,-3 v 13 l 2,15 6,20 7,18 v -7 l 3,-6 5,-5 5,-5 2,18 6,18 7,18 z"
   id="path64"
   inkscape:connector-curvature="0"
   style="fill:#334c59;stroke:none" />
         <path
   d="m 10609,15104 23,10 13,13 10,12 8,13 10,10 25,20 31,26 38,28 38,33 36,33 28,33 18,30 5,-22 2,-18 3,-10 -3,-8 13,15 13,26 10,35 10,43 10,44 10,48 11,43 7,38 15,92 11,106 7,97 v 53 l 8,11 10,7 8,10 5,3 -5,-109 -16,-199 -17,-198 -13,-107 15,16 20,17 18,18 8,8 5,165 13,259 12,262 16,168 2,43 3,81 v 84 l -8,51 8,71 15,102 13,89 5,40 h -21 l -15,-5 -15,-23 -18,-45 -7,-26 -8,-30 -10,-38 -10,-38 -11,-41 -10,-43 -10,-38 -10,-39 -5,-48 -10,-61 -13,-58 -13,-36 -10,-25 -13,-33 -7,-36 -8,-43 -13,-61 -18,-76 -17,-72 -13,-48 v 31 l 5,51 8,50 7,31 3,18 v 17 l -3,16 v 7 l -7,-25 -13,-33 -15,-38 -13,-41 -15,-41 -16,-35 -10,-28 -7,-15 -3,7 -2,10 -3,8 v 3 l -20,-64 -26,-102 -28,-122 -25,-132 -26,-127 -17,-109 -13,-76 z"
   id="path66"
   inkscape:connector-curvature="0"
   style="fill:#334c59;stroke:none" />
         <path
   d="m 9612,13536 11,-5 h 12 l 10,5 -5,12 11,-7 12,-8 13,-8 15,-7 16,-5 20,-5 23,-5 h 25 l 8,-5 10,-6 10,-2 10,-5 10,-3 11,-2 h 12 11 l -13,-5 h -21 -20 l -7,2 20,-13 15,-5 8,-2 h 2 v -5 l 3,-3 10,-5 18,-5 -15,-10 -16,-3 -15,3 -18,5 8,-13 13,-7 12,-5 16,-6 15,-2 15,-3 13,-2 13,-3 -11,-5 -12,-5 -11,-2 h -12 l -10,2 -13,3 -10,5 -13,5 15,-13 15,-13 16,-10 15,-10 15,-8 16,-7 17,-8 18,-5 -28,-2 -23,2 -23,5 -20,5 -18,10 -18,11 -15,12 -15,13 13,-33 15,-25 18,-21 20,-15 -13,5 -15,5 -15,10 -13,8 -13,10 -12,10 -11,8 -5,8 5,-16 11,-15 15,-13 18,-15 17,-10 18,-10 16,-8 10,-5 18,-20 22,-33 13,-38 3,-31 v 13 l -10,18 -13,20 -18,23 -23,23 -23,17 -25,18 -23,10 -20,11 -18,10 -16,12 -10,13 -10,13 -10,13 -8,12 -10,8 3,-15 5,-13 10,-13 10,-10 10,-13 13,-10 15,-10 13,-10 13,-13 15,-15 13,-15 15,-18 10,-18 10,-15 8,-13 5,-10 5,-23 v -28 l -2,-25 -3,-26 v 8 l -3,18 -5,23 -7,20 -8,15 -10,15 -13,21 -12,18 -16,20 -15,15 -13,13 -10,7 15,-15 13,-20 13,-20 13,-21 10,-23 10,-20 7,-20 6,-18 5,-36 v -38 l -8,-33 -13,-23 8,41 -5,46 -13,48 -18,43 -10,18 -10,20 -15,21 -16,17 -12,21 -15,15 -13,13 -10,7 -8,5 -10,11 -13,10 -10,10 5,-10 8,-8 15,-23 33,-48 33,-69 18,-66 2,-56 -2,-33 -5,-12 -5,-16 -8,-17 -10,-21 -10,-18 -13,-17 -13,-13 -15,-10 -15,-5 -16,-3 -15,-2 -15,2 -15,3 -13,5 -10,5 -10,7 30,-5 h 28 l 20,5 21,11 15,12 10,13 10,15 6,13 10,33 5,41 -3,40 -5,41 -7,20 -8,23 -13,23 -10,26 -13,22 -12,21 -11,18 -10,12 3,-18 7,-17 8,-18 8,-20 17,-61 3,-56 -10,-51 -23,-36 v 13 l 2,33 v 43 l -2,43 -10,54 -18,71 -20,69 -13,43 -3,33 5,43 6,43 2,26 v 12 l -5,18 -13,23 -15,23 10,-8 10,-5 8,-5 5,-5 8,-5 7,-5 3,-5 z"
   id="path68"
   inkscape:connector-curvature="0"
   style="fill:#f27226;stroke:none" />
         <path
   d="m 9612,13536 11,-5 h 12 l 10,5 -5,12 11,-7 12,-8 13,-8 15,-7 16,-5 20,-5 23,-5 h 25 l 8,-5 10,-6 10,-2 10,-5 10,-3 11,-2 h 12 11 l -13,-5 h -21 -20 l -7,2 20,-13 15,-5 8,-2 h 2 v -5 l 3,-3 10,-5 18,-5 -15,-2 h -13 l -15,2 -13,3 -13,2 -10,3 -10,2 -10,3 10,-13 13,-10 15,-10 15,-10 18,-6 15,-7 15,-5 11,-3 h -11 -12 l -11,3 -12,2 -10,5 -13,3 -10,2 -10,3 15,-20 18,-16 20,-12 20,-10 21,-8 20,-8 20,-5 18,-5 h -28 l -28,5 -25,8 -23,10 -23,13 -20,12 -16,11 -15,7 3,-18 5,-17 10,-16 13,-15 12,-13 16,-10 12,-7 13,-8 -15,5 -16,8 -15,10 -18,13 -15,12 -13,13 -10,10 -7,8 2,-23 10,-20 18,-18 21,-18 22,-15 21,-13 15,-8 10,-5 21,-17 20,-31 15,-33 3,-28 v 13 l -10,18 -13,20 -18,23 -23,23 -23,17 -25,18 -23,10 -20,11 -18,10 -16,12 -10,13 -10,13 -10,13 -8,12 -10,8 8,-31 15,-25 20,-23 26,-23 13,-12 15,-16 13,-18 12,-17 13,-16 8,-15 7,-12 5,-11 5,-23 5,-22 3,-26 v -23 8 l -3,18 -5,23 -7,20 -8,15 -10,15 -13,21 -12,18 -16,20 -15,15 -13,13 -10,7 13,-15 13,-20 12,-23 10,-23 11,-23 7,-23 8,-20 5,-18 8,-35 v -33 l -6,-33 -10,-21 8,41 -5,46 -13,48 -18,43 -10,18 -10,23 -13,20 -15,23 -15,20 -13,16 -13,12 -12,8 -18,13 -15,17 -11,21 -10,20 3,-20 7,-28 18,-36 36,-56 33,-68 15,-64 3,-51 -5,-33 -11,-28 -12,-33 -23,-30 -26,-21 -15,-7 -15,-5 -13,-3 h -15 -13 l -10,3 -10,5 -10,7 30,-5 h 28 l 20,5 21,11 15,12 10,13 10,15 6,13 10,33 5,41 -3,40 -5,41 -7,20 -8,23 -13,23 -10,26 -13,22 -12,21 -11,18 -10,12 v -20 l 5,-20 5,-21 8,-20 13,-59 2,-58 -7,-51 -13,-28 v 13 l 2,33 v 43 l -2,43 -10,54 -18,71 -20,69 -13,43 -3,33 5,43 6,43 2,26 v 12 l -5,18 -13,23 -15,23 10,-8 10,-5 8,-5 5,-5 8,-5 7,-5 3,-5 z"
   id="path70"
   inkscape:connector-curvature="0"
   style="fill:#f2b23f;stroke:none" />
         <path
   d="m 9775,13503 h 10 l 13,2 13,3 15,2 13,5 15,5 13,8 12,8 -12,5 -13,2 -8,5 -2,8 18,2 17,6 16,10 12,12 -12,6 -8,5 -2,7 v 5 h 15 l 13,3 12,2 8,8 7,8 3,7 v 10 8 l 8,3 h 5 2 3 l 2,15 v 20 l -2,21 -8,17 8,8 h 7 6 5 l -3,8 -5,12 -8,16 -10,17 -15,18 -18,13 -25,10 -33,3 -8,10 -5,15 2,18 8,15 -15,2 -15,-2 -18,-8 -13,-7 -5,7 -3,16 -2,17 2,16 -12,2 -18,-5 -15,-10 -13,-10 -3,7 -2,5 -5,6 v 5 h -10 l -11,2 h -10 l -12,-2 -11,-5 -10,-8 -7,-15 -8,-21 -5,5 -5,5 -3,6 v 7 l -7,-18 -6,-20 -2,-15 v -13 l -5,3 -3,5 -2,7 -3,3 -7,-18 -13,-23 -5,-28 13,-33 5,-7 5,-13 5,-13 5,-7 7,-13 3,-10 3,-10 v -6 h 5 l 2,-2 5,-3 v -2 l 3,-8 v -7 l 2,-11 8,-10 5,-20 -8,-25 -5,-26 v -18 l 11,-12 10,-16 7,-15 11,-13 7,-12 10,-13 11,-8 15,-7 -8,15 -5,13 -2,7 v 3 l 15,-8 12,-5 11,-2 7,-3 8,-2 h 8 7 8 l -8,7 -2,8 v 10 z"
   id="path72"
   inkscape:connector-curvature="0"
   style="fill:#ffe599;stroke:none" />
         <path
   d="m 9747,13647 h 10 11 7 5 l 13,-7 18,-10 18,-11 17,-2 18,2 21,11 17,10 13,10 v 5 3 l -2,5 -3,2 8,13 10,13 10,10 13,2 -8,11 -8,12 -7,15 -10,13 -11,13 -12,13 -16,7 -15,3 h -18 l -15,2 h -18 l -15,-2 -13,-3 -12,-5 -13,-7 -8,-11 h 8 5 3 2 l -2,-12 -6,-18 -10,-15 -12,-16 5,-2 h 5 2 3 v -10 l -3,-11 -7,-7 -13,-5 2,-5 3,-5 5,-5 z"
   id="path74"
   inkscape:connector-curvature="0"
   style="fill:#f24c3f;stroke:none" />
         <path
   d="m 9691,13571 10,-2 11,-5 10,-6 7,-7 5,-5 11,-8 10,-2 h 13 l 12,5 8,10 8,10 2,10 3,8 v 5 l 5,2 5,6 -5,5 -5,5 -5,5 -6,7 -2,3 -5,2 -8,3 -7,3 h -8 l -8,-3 h -7 l -5,-3 -13,-7 -8,-10 -5,-10 -7,-8 -6,-3 -2,-2 -5,-3 z"
   id="path76"
   inkscape:connector-curvature="0"
   style="fill:#000000;stroke:none" />
         <path
   d="m 9765,13553 h 5 3 l 5,5 2,3 v 5 5 l -2,3 h -3 -5 l -5,-5 -5,-3 v -2 -3 -3 l 2,-5 z"
   id="path78"
   inkscape:connector-curvature="0"
   style="fill:#ffffff;stroke:none" />
         <path
   d="m 9773,13581 2,3 5,2 v 3 3 l -2,2 h -5 -3 -2 l -3,-5 3,-3 v -5 z"
   id="path80"
   inkscape:connector-curvature="0"
   style="fill:#ffffff;stroke:none" />
         <path
   d="m 9610,13719 -5,7 -5,13 -5,13 -5,7 -11,3 -12,-5 -13,-10 -13,-11 -5,-12 -2,-8 h -3 l -3,3 v 5 l -2,7 v 8 10 l 2,8 -10,-3 -7,-5 -8,-13 -5,-20 v -33 l 13,-41 20,-35 28,-28 10,-8 10,-5 8,-5 5,-5 8,-5 7,-5 3,-5 2,-5 11,-5 h 12 l 10,5 -5,12 v 18 l 5,26 8,25 -5,20 -8,10 -2,11 v 7 l -3,8 v 2 l -5,3 -2,2 h -5 v 6 l -3,10 -3,10 z"
   id="path82"
   inkscape:connector-curvature="0"
   style="fill:#7a848c;stroke:none" />
         <path
   d="m 9768,13625 h -8 l -8,-3 h -7 l -5,-3 -13,-7 -8,-10 -5,-10 -7,-8 -6,-3 -2,-2 -5,-3 -3,-5 10,-2 11,-5 10,-6 7,-7 -10,5 -10,2 -10,3 -10,3 -8,5 -8,5 -5,5 v 5 5 l 3,3 5,2 h 5 l 10,5 13,10 13,13 12,10 13,3 10,-3 10,-5 z"
   id="path84"
   inkscape:connector-curvature="0"
   style="fill:#7a848c;stroke:none" />
         <path
   d="m 9498,13716 h 10 l 10,-20 10,-26 13,-12 15,-5 11,-6 10,-7 7,-8 8,-5 8,-5 10,3 13,7 2,-23 -10,-25 -10,-20 -13,-8 8,-5 7,-5 3,-5 2,-5 -2,10 v 10 l 5,13 5,7 10,18 3,18 v 15 l -3,18 -5,2 -2,6 -6,2 -7,5 -8,5 -10,3 h -13 l -7,-3 -13,-5 -10,-2 -8,5 -7,10 -6,13 -5,10 -2,15 v 15 l -5,5 -5,-2 -5,-5 z"
   id="path86"
   inkscape:connector-curvature="0"
   style="fill:#eaeaed;stroke:none" />
         <path
   d="m 9498,13716 v -33 l 13,-41 20,-35 28,-28 10,-8 10,-5 8,-5 5,-5 -2,8 -8,10 -13,10 -13,8 -15,15 -20,30 -18,41 z"
   id="path88"
   inkscape:connector-curvature="0"
   style="fill:#335959;stroke:none" />
         <path
   d="m 9648,13637 -8,10 -2,11 v 7 l -3,8 v 2 l -5,3 -2,2 h -5 v -2 -3 l -3,-2 -3,-5 -15,5 -15,2 h -18 l -15,-5 -8,10 -2,16 5,15 20,15 8,5 7,3 11,-3 15,-12 -5,7 -5,13 -5,13 -5,7 -11,3 -12,-5 -13,-10 -13,-11 -5,-12 -2,-8 h -3 l -3,3 v 5 l -2,7 v 8 10 l 2,8 -10,-3 -7,-5 -8,-13 -5,-20 8,8 5,5 5,2 5,-5 v -15 l 2,-15 5,-10 6,-13 7,-10 8,-5 10,2 13,5 7,3 h 13 l 10,-3 8,-5 7,-5 6,-2 2,-6 5,-2 3,-18 v -15 l -3,-18 -10,-18 -5,-7 -5,-13 v -10 l 2,-10 11,-5 h 12 l 10,5 -5,12 v 18 l 5,26 8,25 z"
   id="path90"
   inkscape:connector-curvature="0"
   style="fill:#335959;stroke:none" />
         <path
   d="m 9554,13670 15,5 h 18 l 15,-2 15,-5 3,5 3,2 v 3 2 h 5 l 2,-2 5,-3 v -2 l 3,-8 v -7 l 2,-11 8,-10 -8,-2 -5,2 -2,5 -3,3 -5,2 -2,6 -6,2 -7,5 -8,5 -10,3 h -13 l -7,-3 -13,-5 -10,-2 -8,5 -7,10 -6,13 -5,10 -2,15 v 15 l 5,-18 2,-12 6,-10 2,-6 5,-5 5,-5 h 3 z"
   id="path92"
   inkscape:connector-curvature="0"
   style="fill:#000000;stroke:none" />
         <path
   d="m 9859,13894 -8,-15 -2,-18 5,-15 8,-10 33,-3 25,-10 18,-13 15,-18 10,-17 8,-16 5,-12 3,-8 h -5 -6 -7 l -8,-8 8,-17 2,-21 v -20 l -2,-15 h -3 -2 -5 l -8,-3 v -8 -10 l -3,-7 -7,-8 -8,-8 -12,-2 -13,-3 h -15 v -5 l 2,-7 8,-5 12,-6 -12,-12 -16,-10 -17,-6 -18,-2 13,-3 h 15 l 15,5 15,3 13,8 13,7 7,8 8,8 -10,2 -3,3 3,5 2,5 16,10 15,8 13,7 15,3 v 10 l -3,8 -7,5 -5,7 10,3 10,5 5,2 3,3 2,23 -7,25 -11,23 -12,18 10,5 h 10 8 l 7,-3 -2,8 -10,13 -13,15 -18,15 -20,16 -26,12 -25,10 -28,5 -3,8 5,10 13,13 13,15 -8,3 h -10 l -10,2 h -13 -13 -10 l -10,-2 -5,-5 -3,10 -2,7 v 8 10 l -8,3 h -12 -13 l -13,-3 -15,-2 -10,-8 -11,-8 -2,-12 13,10 15,10 18,5 12,-2 -2,-16 2,-17 3,-16 5,-7 13,7 18,8 15,2 z"
   id="path94"
   inkscape:connector-curvature="0"
   style="fill:#f9f4e0;stroke:none" />
         <path
   d="m 10932,14885 h -25 -26 -25 l -25,-2 h -23 l -26,-3 h -23 l -22,-3 h -6 l -7,-2 h -5 -8 l -13,-3 -15,-2 h -13 l -10,-3 -12,-2 -13,-3 h -13 l -13,-2 h -10 l -10,-3 -13,-2 h -7 l -13,-3 -10,-2 -8,-3 -10,-3 h -8 l -10,-2 -10,-3 -10,-2 -5,-3 -8,-2 h -10 l -5,-3 -20,-5 -18,-5 -16,-5 -17,-8 -16,-5 -15,-5 -15,-5 -15,-8 -61,-28 -49,-30 -43,-28 -33,-25 -28,-26 -18,-20 -15,-15 -8,-11 -5,21 -33,-28 -35,-31 -34,-35 -33,-38 -30,-38 -28,-36 -23,-36 -20,-33 -26,-53 -5,-41 3,-33 2,-28 -5,-17 v -18 -16 -15 3 l 5,5 5,5 8,8 v -18 l 5,-21 10,-22 10,-18 v 7 18 21 l 3,20 h 2 l 6,-5 7,-3 h 8 v 49 l 7,53 11,48 12,33 3,-10 8,-8 10,-7 12,-8 v 5 13 15 21 l 8,-8 10,-5 15,-5 h 18 l 8,45 15,49 18,43 10,30 3,-2 5,-10 5,-8 5,-7 13,20 20,25 25,28 31,28 30,28 28,26 23,17 18,16 v -3 -8 l -2,-10 v -12 l 15,12 15,15 18,18 18,23 v -2 l 2,-8 3,-8 7,-10 26,23 30,23 36,20 36,23 38,18 35,15 36,10 33,8 3,-23 7,-18 15,-12 18,-5 23,33 36,28 40,25 44,20 45,18 46,13 36,12 z"
   id="path96"
   inkscape:connector-curvature="0"
   style="fill:#f9f4e0;stroke:none" />
         <path
   d="m 11128,14931 15,20 13,36 13,35 5,23 23,26 23,30 18,33 7,33 -2,-33 -13,-35 -18,-31 -18,-18 -5,-23 -10,-33 -20,-35 z"
   id="path98"
   inkscape:connector-curvature="0"
   style="fill:#75828c;stroke:none" />
         <path
   d="m 11085,14819 -13,-25 -15,-21 -15,-18 -16,-10 -15,-10 -15,-7 -10,-6 -10,-5 -8,-20 -10,-23 -13,-25 -15,-26 -18,-23 -18,-25 -18,-20 -17,-18 -11,-25 -12,-23 -21,-23 -20,-23 -25,-41 -41,-51 -48,-56 -54,-53 -51,-53 -45,-43 -36,-33 -18,-18 10,5 13,2 10,5 13,6 13,5 12,5 13,5 13,7 23,5 17,6 13,7 3,3 h -13 -10 l -5,2 h -3 l 13,5 13,5 10,6 10,7 8,5 7,5 8,8 7,5 28,20 34,26 33,25 35,31 36,30 30,31 26,30 20,28 10,20 16,21 15,20 15,23 13,23 10,23 5,23 -3,20 23,23 21,30 12,38 v 41 l 11,18 7,23 8,28 z"
   id="path100"
   inkscape:connector-curvature="0"
   style="fill:#75828c;stroke:none" />
         <path
   d="m 10737,14877 h -6 l -7,-2 h -5 -8 l 31,25 35,28 41,26 41,25 40,20 38,21 34,15 27,10 21,5 18,5 h 12 l 11,-2 5,-5 7,-8 3,-8 5,-10 -10,5 -10,5 h -16 l -18,-2 -20,-5 -25,-10 -31,-10 -33,-16 -33,-15 -30,-18 -28,-15 -26,-18 -20,-15 -18,-13 -15,-10 z"
   id="path102"
   inkscape:connector-curvature="0"
   style="fill:#75828c;stroke:none" />
         <path
   d="m 10609,14860 h -10 l -10,-3 -13,-2 h -7 l 10,10 18,12 23,16 25,17 30,21 31,23 36,23 33,22 35,23 33,23 33,23 31,20 25,16 23,15 18,13 13,7 20,10 20,11 26,10 23,7 20,8 20,8 18,2 10,3 h 13 l 8,-5 7,-13 6,-18 -6,5 -10,5 -12,3 -18,-3 -21,-2 -23,-5 -22,-8 -28,-13 -18,-7 -21,-13 -25,-18 -30,-18 -34,-20 -33,-23 -35,-23 -36,-25 -35,-23 -33,-23 -31,-20 -31,-21 -22,-17 -21,-16 -15,-10 z"
   id="path104"
   inkscape:connector-curvature="0"
   style="fill:#75828c;stroke:none" />
         <path
   d="m 10462,14829 7,5 18,13 23,18 31,23 35,28 38,28 41,33 43,30 44,33 40,33 38,31 39,25 30,25 26,18 17,13 11,8 17,10 28,18 36,22 38,26 38,25 33,23 28,20 21,11 15,5 13,5 h 12 l 13,-3 8,-5 7,-5 5,-8 3,-10 -15,5 -23,-2 -26,-8 -28,-15 -33,-18 -33,-20 -33,-23 -33,-20 -20,-13 -26,-18 -33,-23 -38,-28 -43,-30 -43,-31 -46,-33 -48,-33 -46,-33 -43,-30 -41,-31 -36,-28 -30,-20 -26,-20 -18,-13 -7,-5 -5,-3 -8,-2 h -10 z"
   id="path106"
   inkscape:connector-curvature="0"
   style="fill:#75828c;stroke:none" />
         <path
   d="m 10604,15012 10,8 16,10 25,18 28,20 33,25 36,28 38,28 41,31 40,30 41,31 41,28 35,28 33,25 31,21 23,15 18,12 30,18 31,23 35,20 36,21 35,20 39,15 35,8 38,3 -5,7 -10,8 -13,5 -20,-3 -30,-10 -44,-18 -53,-30 -71,-46 -41,-25 -38,-28 -41,-28 -38,-28 -38,-26 -38,-28 -36,-27 -36,-26 -33,-28 -33,-25 -30,-23 -28,-26 -26,-20 -25,-23 -23,-20 z"
   id="path108"
   inkscape:connector-curvature="0"
   style="fill:#75828c;stroke:none" />
         <path
   d="m 10663,15269 12,-8 8,5 5,10 3,6 2,27 5,46 11,56 10,59 10,61 13,58 12,46 13,30 -15,-30 -18,-46 -18,-58 -18,-64 -15,-63 -13,-59 -7,-46 z"
   id="path110"
   inkscape:connector-curvature="0"
   style="fill:#75828c;stroke:none" />
         <path
   d="m 10775,15358 12,-8 11,-2 7,2 3,3 7,94 16,147 20,148 18,88 -15,-27 -16,-46 -15,-56 -13,-66 -15,-71 -10,-74 -8,-69 z"
   id="path112"
   inkscape:connector-curvature="0"
   style="fill:#75828c;stroke:none" />
         <path
   d="m 10881,15490 6,2 12,8 16,15 12,26 10,7 11,18 7,36 5,71 13,127 23,147 23,135 13,89 7,64 13,83 10,77 5,45 -25,-48 -18,-56 -15,-53 -13,-48 -8,-36 -12,-61 -16,-84 -15,-99 -18,-109 -15,-120 -18,-119 z"
   id="path114"
   inkscape:connector-curvature="0"
   style="fill:#75828c;stroke:none" />
         <path
   d="m 10317,14913 -8,38 -18,28 -20,18 -18,5 -12,-8 -5,-10 -3,-10 -3,-13 16,3 15,-10 10,-18 5,-15 v -16 l 3,-5 v -10 -7 -3 h -5 l -11,-3 h -12 -13 l -15,3 h -18 -20 l -21,-3 5,-10 13,-12 15,-11 18,-12 18,-8 20,-8 18,-2 13,2 5,3 h 2 l 6,3 2,2 5,3 5,2 5,5 5,3 13,7 18,13 15,13 13,10 -13,8 h -20 l -18,-3 -10,-5 2,10 v 8 l -2,7 z"
   id="path116"
   inkscape:connector-curvature="0"
   style="fill:#191900;stroke:none" />
         <path
   d="m 10319,14837 -5,-3 -5,-5 -5,-2 -5,-3 h -13 l -15,3 -15,2 -13,5 -15,5 -15,8 -16,8 -12,10 5,7 10,3 10,-3 10,-2 8,-5 8,-10 7,-8 10,-8 h 18 l 20,3 h 18 z"
   id="path118"
   inkscape:connector-curvature="0"
   style="fill:#4c4c19;stroke:none" />
         <path
   d="m 10286,14893 v 2 l 3,5 5,5 5,3 -2,20 -8,23 -13,18 -13,10 h -10 l -5,-2 -5,-3 v -3 l 13,-2 7,-3 6,-2 5,-8 7,-18 5,-17 v -16 z"
   id="path120"
   inkscape:connector-curvature="0"
   style="fill:#4c4c19;stroke:none" />
        </g>
       </g>
      </g>
     </g>
    </g>
   </g>
  </g>
 </g>
</svg>