<?xml version="1.0" encoding="UTF-8" standalone="no"?>
<svg
   xmlns:ooo="http://xml.openoffice.org/svg/export"
   xmlns:dc="http://purl.org/dc/elements/1.1/"
   xmlns:cc="http://creativecommons.org/ns#"
   xmlns:rdf="http://www.w3.org/1999/02/22-rdf-syntax-ns#"
   xmlns:svg="http://www.w3.org/2000/svg"
   xmlns="http://www.w3.org/2000/svg"
   xmlns:sodipodi="http://sodipodi.sourceforge.net/DTD/sodipodi-0.dtd"
   xmlns:inkscape="http://www.inkscape.org/namespaces/inkscape"
   version="1.2"
   width="18.24mm"
   height="16.049999mm"
   viewBox="0 0 1824 1604.9999"
   preserveAspectRatio="xMidYMid"
   xml:space="preserve"
   id="svg139"
   sodipodi:docname="cofecup1.svg"
   style="fill-rule:evenodd;stroke-width:28.22200012;stroke-linejoin:round"
   inkscape:version="0.92.5 (2060ec1f9f, 2020-04-08)"><metadata
   id="metadata143"><rdf:RDF><cc:Work
       rdf:about=""><dc:format>image/svg+xml</dc:format><dc:type
         rdf:resource="http://purl.org/dc/dcmitype/StillImage" /></cc:Work></rdf:RDF></metadata><sodipodi:namedview
   pagecolor="#ffffff"
   bordercolor="#666666"
   borderopacity="1"
   objecttolerance="10"
   gridtolerance="10"
   guidetolerance="10"
   inkscape:pageopacity="0"
   inkscape:pageshadow="2"
   inkscape:window-width="664"
   inkscape:window-height="487"
   id="namedview141"
   showgrid="false"
   inkscape:zoom="0.2102413"
   inkscape:cx="34.469292"
   inkscape:cy="30.311809"
   inkscape:window-x="0"
   inkscape:window-y="0"
   inkscape:window-maximized="0"
   inkscape:current-layer="svg139" />
 <defs
   class="ClipPathGroup"
   id="defs8">
  <clipPath
   id="presentation_clip_path"
   clipPathUnits="userSpaceOnUse">
   <rect
   x="0"
   y="0"
   width="21000"
   height="29700"
   id="rect2" />
  </clipPath>
  <clipPath
   id="presentation_clip_path_shrink"
   clipPathUnits="userSpaceOnUse">
   <rect
   x="21"
   y="29"
   width="20958"
   height="29641"
   id="rect5" />
  </clipPath>
 </defs>
 <defs
   class="TextShapeIndex"
   id="defs12">
  <g
   ooo:slide="id1"
   ooo:id-list="id3"
   id="g10" />
 </defs>
 <defs
   class="EmbeddedBulletChars"
   id="defs44">
  <g
   id="bullet-char-template-57356"
   transform="matrix(4.8828125e-4,0,0,-4.8828125e-4,0,0)">
   <path
   d="M 580,1141 1163,571 580,0 -4,571 Z"
   id="path14"
   inkscape:connector-curvature="0" />
  </g>
  <g
   id="bullet-char-template-57354"
   transform="matrix(4.8828125e-4,0,0,-4.8828125e-4,0,0)">
   <path
   d="M 8,1128 H 1137 V 0 H 8 Z"
   id="path17"
   inkscape:connector-curvature="0" />
  </g>
  <g
   id="bullet-char-template-10146"
   transform="matrix(4.8828125e-4,0,0,-4.8828125e-4,0,0)">
   <path
   d="M 174,0 602,739 174,1481 1456,739 Z M 1358,739 309,1346 659,739 Z"
   id="path20"
   inkscape:connector-curvature="0" />
  </g>
  <g
   id="bullet-char-template-10132"
   transform="matrix(4.8828125e-4,0,0,-4.8828125e-4,0,0)">
   <path
   d="M 2015,739 1276,0 H 717 l 543,543 H 174 v 393 h 1086 l -543,545 h 557 z"
   id="path23"
   inkscape:connector-curvature="0" />
  </g>
  <g
   id="bullet-char-template-10007"
   transform="matrix(4.8828125e-4,0,0,-4.8828125e-4,0,0)">
   <path
   d="m 0,-2 c -7,16 -16,29 -25,39 l 381,530 c -94,256 -141,385 -141,387 0,25 13,38 40,38 9,0 21,-2 34,-5 21,4 42,12 65,25 l 27,-13 111,-251 280,301 64,-25 24,25 c 21,-10 41,-24 62,-43 C 886,937 835,863 770,784 769,783 710,716 594,584 L 774,223 c 0,-27 -21,-55 -63,-84 l 16,-20 C 717,90 699,76 672,76 641,76 570,178 457,381 L 164,-76 c -22,-34 -53,-51 -92,-51 -42,0 -63,17 -64,51 -7,9 -10,24 -10,44 0,9 1,19 2,30 z"
   id="path26"
   inkscape:connector-curvature="0" />
  </g>
  <g
   id="bullet-char-template-10004"
   transform="matrix(4.8828125e-4,0,0,-4.8828125e-4,0,0)">
   <path
   d="M 285,-33 C 182,-33 111,30 74,156 52,228 41,333 41,471 c 0,78 14,145 41,201 34,71 87,106 158,106 53,0 88,-31 106,-94 l 23,-176 c 8,-64 28,-97 59,-98 l 735,706 c 11,11 33,17 66,17 42,0 63,-15 63,-46 V 965 c 0,-36 -10,-64 -30,-84 L 442,47 C 390,-6 338,-33 285,-33 Z"
   id="path29"
   inkscape:connector-curvature="0" />
  </g>
  <g
   id="bullet-char-template-9679"
   transform="matrix(4.8828125e-4,0,0,-4.8828125e-4,0,0)">
   <path
   d="M 813,0 C 632,0 489,54 383,161 276,268 223,411 223,592 c 0,181 53,324 160,431 106,107 249,161 430,161 179,0 323,-54 432,-161 108,-107 162,-251 162,-431 0,-180 -54,-324 -162,-431 C 1136,54 992,0 813,0 Z"
   id="path32"
   inkscape:connector-curvature="0" />
  </g>
  <g
   id="bullet-char-template-8226"
   transform="matrix(4.8828125e-4,0,0,-4.8828125e-4,0,0)">
   <path
   d="m 346,457 c -73,0 -137,26 -191,78 -54,51 -81,114 -81,188 0,73 27,136 81,188 54,52 118,78 191,78 73,0 134,-26 185,-79 51,-51 77,-114 77,-187 0,-75 -25,-137 -76,-188 -50,-52 -112,-78 -186,-78 z"
   id="path35"
   inkscape:connector-curvature="0" />
  </g>
  <g
   id="bullet-char-template-8211"
   transform="matrix(4.8828125e-4,0,0,-4.8828125e-4,0,0)">
   <path
   d="M -4,459 H 1135 V 606 H -4 Z"
   id="path38"
   inkscape:connector-curvature="0" />
  </g>
  <g
   id="bullet-char-template-61548"
   transform="matrix(4.8828125e-4,0,0,-4.8828125e-4,0,0)">
   <path
   d="m 173,740 c 0,163 58,303 173,419 116,115 255,173 419,173 163,0 302,-58 418,-173 116,-116 174,-256 174,-419 0,-163 -58,-303 -174,-418 C 1067,206 928,148 765,148 601,148 462,206 346,322 231,437 173,577 173,740 Z"
   id="path41"
   inkscape:connector-curvature="0" />
  </g>
 </defs>
 <g
   id="g49"
   transform="translate(-9588,-14047)">
  <g
   id="id2"
   class="Master_Slide">
   <g
   id="bg-id2"
   class="Background" />
   <g
   id="bo-id2"
   class="BackgroundObjects" />
  </g>
 </g>
 <g
   class="SlideGroup"
   id="g137"
   transform="translate(-9588,-14047)">
  <g
   id="g135">
   <g
   id="container-id1">
    <g
   id="id1"
   class="Slide"
   clip-path="url(#presentation_clip_path)">
     <g
   class="Page"
   id="g131">
      <g
   class="Graphic"
   id="g129">
       <g
   id="id3">
        <rect
   class="BoundingBox"
   x="9588"
   y="14047"
   width="1824"
   height="1605"
   id="rect51"
   style="fill:none;stroke:none" />
        <defs
   id="defs56">
         <clipPath
   id="clip_path_1"
   clipPathUnits="userSpaceOnUse">
          <path
   d="m 9588,14047 h 1823 v 1604 H 9588 Z"
   id="path53"
   inkscape:connector-curvature="0" />
         </clipPath>
        </defs>
        <g
   clip-path="url(#clip_path_1)"
   id="g126">
         <path
   d="m 10667,14187 86,196 31,-16 33,-15 35,-12 33,-11 31,-5 28,3 23,13 15,22 15,31 18,36 18,38 20,38 18,38 18,33 13,28 7,20 5,18 5,23 3,28 -5,28 -15,31 -31,28 -46,30 -68,26 86,190 59,-15 61,-28 56,-41 48,-53 31,-66 12,-87 -10,-104 -41,-122 -23,-53 -22,-51 -23,-46 -23,-43 -23,-41 -26,-36 -22,-30 -23,-31 -26,-23 -25,-20 -26,-15 -28,-13 -28,-5 -30,-3 -31,3 -30,8 -38,12 -36,13 -31,13 -27,12 -21,11 -18,7 -10,5 z"
   id="path58"
   inkscape:connector-curvature="0"
   style="fill:#bfffdd;stroke:none" />
         <path
   d="m 10743,14362 30,13 -86,-196 -41,16 87,195 30,13 -30,-13 12,13 16,-2 12,-8 v -18 z"
   id="path60"
   inkscape:connector-curvature="0"
   style="fill:#006600;stroke:none" />
         <path
   d="m 11002,14355 v 0 l -20,-31 -33,-20 -33,-3 -36,5 -35,11 -36,15 -36,15 -30,15 20,41 31,-15 30,-15 36,-11 30,-10 26,-5 23,3 13,5 10,15 v 0 z"
   id="path62"
   inkscape:connector-curvature="0"
   style="fill:#006600;stroke:none" />
         <path
   d="m 11132,14619 v 0 l -10,-23 -13,-30 -18,-33 -17,-38 -21,-38 -18,-39 -17,-35 -16,-28 -40,15 15,33 18,36 18,38 20,38 18,38 18,33 12,26 5,17 v 0 z"
   id="path64"
   inkscape:connector-curvature="0"
   style="fill:#006600;stroke:none" />
         <path
   d="m 10977,14828 -15,30 73,-28 49,-33 35,-33 18,-35 8,-36 -3,-30 -5,-26 -5,-18 -46,10 5,18 6,21 2,25 -2,20 -13,26 -26,23 -43,28 -63,23 -16,30 16,-30 -16,10 -2,15 10,15 18,5 z"
   id="path66"
   inkscape:connector-curvature="0"
   style="fill:#006600;stroke:none" />
         <path
   d="m 11041,15003 22,16 -86,-191 -41,15 87,191 23,15 -23,-15 12,13 16,-3 12,-8 v -17 z"
   id="path68"
   inkscape:connector-curvature="0"
   style="fill:#006600;stroke:none" />
         <path
   d="m 11239,14518 v 0 l 38,119 10,99 -12,82 -26,58 -46,49 -50,38 -59,28 -53,12 5,46 63,-18 64,-28 61,-43 51,-58 35,-74 13,-92 -10,-109 -43,-125 v 0 z"
   id="path70"
   inkscape:connector-curvature="0"
   style="fill:#006600;stroke:none" />
         <path
   d="m 10855,14133 v 0 l 28,-7 28,-3 28,3 25,5 23,10 23,13 23,20 23,21 23,28 23,30 23,36 22,38 23,43 23,46 23,48 23,54 41,-16 -23,-53 -23,-54 -23,-45 -23,-44 -23,-43 -28,-35 -23,-31 -23,-33 -28,-25 -28,-21 -27,-18 -34,-15 -30,-5 -33,-2 -33,2 -33,8 v 0 z"
   id="path72"
   inkscape:connector-curvature="0"
   style="fill:#006600;stroke:none" />
         <path
   d="m 10687,14179 -10,28 2,-2 8,-5 20,-8 21,-10 25,-13 31,-13 35,-12 36,-11 -10,-45 -41,15 -36,13 -30,12 -31,13 -20,10 -15,8 -13,5 -3,3 -10,28 10,-28 -10,12 3,18 10,10 h 18 z"
   id="path74"
   inkscape:connector-curvature="0"
   style="fill:#006600;stroke:none" />
         <path
   d="m 10280,15578 10,21 15,17 18,13 23,8 26,5 30,2 h 28 l 33,-2 20,-3 23,-7 31,-11 33,-10 38,-12 38,-16 41,-17 41,-18 40,-18 39,-18 38,-18 33,-18 30,-17 26,-16 20,-15 13,-13 33,-45 13,-38 v -36 l -13,-31 20,-12 18,-18 15,-23 13,-31 8,-33 -3,-38 -8,-40 -20,-44 -376,-839 -18,-38 -21,-28 -22,-23 -28,-18 -33,-8 h -39 l -43,6 -53,12 -31,10 -38,11 -41,15 -45,15 -46,18 -51,20 -51,21 -51,23 -53,22 -49,23 -48,23 -46,23 -43,23 -38,23 -33,23 -28,20 -38,41 -23,38 -10,38 2,36 8,30 10,28 10,23 8,15 17,41 46,87 59,119 71,135 69,140 63,127 49,99 25,59 15,30 18,28 23,23 25,18 28,15 28,8 31,2 z"
   id="path76"
   inkscape:connector-curvature="0"
   style="fill:#bfffdd;stroke:none" />
         <path
   d="m 10461,15619 v 0 l -31,2 h -28 l -28,-2 -23,-5 -18,-5 -12,-8 -13,-15 -5,-13 -46,10 15,28 18,21 23,17 28,11 28,5 33,2 h 28 l 36,-2 v 0 z"
   id="path78"
   inkscape:connector-curvature="0"
   style="fill:#006600;stroke:none" />
         <path
   d="m 10949,15400 v 0 l -10,10 -18,16 -23,12 -30,18 -33,18 -39,18 -35,18 -41,17 -41,18 -40,18 -39,15 -35,10 -33,11 -31,12 -23,5 -17,3 5,46 23,-3 22,-10 31,-8 33,-10 41,-15 38,-15 41,-18 40,-18 41,-18 41,-18 38,-17 33,-18 30,-18 28,-18 23,-15 16,-15 v 0 z"
   id="path80"
   inkscape:connector-curvature="0"
   style="fill:#006600;stroke:none" />
         <path
   d="m 10992,15245 -12,31 10,22 v 31 l -10,30 -31,41 36,31 35,-51 15,-46 v -41 l -15,-38 -12,31 12,-31 -12,-10 h -18 l -10,13 v 18 z"
   id="path82"
   inkscape:connector-curvature="0"
   style="fill:#006600;stroke:none" />
         <path
   d="m 11023,15034 v 2 l 20,39 5,38 3,35 -8,28 -10,26 -13,20 -12,13 -16,10 16,41 25,-16 23,-22 18,-26 15,-35 8,-39 -3,-40 -10,-44 -21,-48 v 3 -3 l -12,-10 h -18 l -10,13 v 17 z"
   id="path84"
   inkscape:connector-curvature="0"
   style="fill:#006600;stroke:none" />
         <path
   d="m 10646,14195 v 0 l 377,839 40,-15 -376,-840 v 0 0 l -13,-12 h -15 l -13,10 z"
   id="path86"
   inkscape:connector-curvature="0"
   style="fill:#006600;stroke:none" />
         <path
   d="m 10415,14113 v 0 l 51,-13 40,-5 h 36 l 28,5 23,16 18,20 17,23 18,36 41,-16 -18,-40 -23,-33 -28,-26 -33,-20 -38,-10 h -41 l -45,5 -56,12 v 0 z"
   id="path88"
   inkscape:connector-curvature="0"
   style="fill:#006600;stroke:none" />
         <path
   d="m 9733,14421 v 0 l 25,-20 34,-23 35,-21 43,-23 46,-22 49,-23 45,-23 54,-23 51,-23 50,-20 51,-21 46,-18 46,-15 38,-13 38,-10 31,-10 -10,-46 -31,11 -38,10 -43,18 -46,15 -46,18 -51,20 -51,20 -51,23 -53,23 -51,23 -48,23 -46,23 -43,23 -41,25 -33,23 -31,20 v 0 z"
   id="path90"
   inkscape:connector-curvature="0"
   style="fill:#006600;stroke:none" />
         <path
   d="m 9705,14647 h 3 l -11,-20 -10,-20 -7,-26 -8,-28 -3,-33 8,-30 20,-33 36,-36 -31,-36 -40,46 -26,43 -12,46 2,38 8,33 13,31 10,25 5,10 h 2 -2 l 10,16 18,2 12,-10 6,-18 z"
   id="path92"
   inkscape:connector-curvature="0"
   style="fill:#006600;stroke:none" />
         <path
   d="m 10104,15451 v 0 l -25,-61 -48,-99 -64,-127 -69,-140 -71,-135 -58,-120 -46,-86 -18,-36 -41,10 18,46 46,87 58,119 72,135 68,140 64,127 48,99 26,56 v 0 z"
   id="path94"
   inkscape:connector-curvature="0"
   style="fill:#006600;stroke:none" />
         <path
   d="m 10303,15573 -28,-18 -23,5 -28,-2 -23,-5 -25,-15 -21,-16 -20,-18 -15,-25 -16,-28 -40,15 15,33 20,31 26,28 30,20 31,15 33,11 33,2 33,-5 -28,-18 28,18 15,-10 3,-18 -10,-13 -18,-5 z"
   id="path96"
   inkscape:connector-curvature="0"
   style="fill:#006600;stroke:none" />
         <path
   d="m 10104,14291 -43,15 -53,23 -56,28 -56,31 -51,30 -38,28 -26,28 -5,21 8,7 13,5 15,3 23,2 25,-2 28,-3 31,-2 30,-5 36,-8 33,-8 33,-7 33,-10 33,-10 31,-8 25,-10 26,-10 50,-23 56,-31 59,-33 53,-36 46,-35 36,-33 20,-31 3,-25 -8,-8 -13,-5 h -20 l -23,3 -31,5 -30,7 -33,11 -36,12 -35,13 -36,13 -33,12 -33,13 -28,10 -26,10 -17,8 z"
   id="path98"
   inkscape:connector-curvature="0"
   style="fill:#000000;stroke:none" />
         <path
   d="m 9794,14487 v 3 l 5,-6 20,-22 36,-26 51,-30 53,-31 56,-28 54,-23 41,-12 -11,-41 -45,18 -54,23 -56,28 -58,30 -51,31 -41,30 -30,33 -6,36 v 2 z"
   id="path100"
   inkscape:connector-curvature="0"
   style="fill:#006600;stroke:none" />
         <path
   d="m 10191,14411 v 0 l -26,10 -22,8 -31,7 -33,10 -33,11 -31,7 -33,8 -35,7 -31,5 -28,3 -28,3 -25,2 -21,-2 -12,-3 -8,-3 v 3 l -36,15 16,18 18,8 17,2 26,3 25,-3 28,-2 33,-3 31,-5 35,-8 33,-7 36,-8 33,-10 33,-10 31,-8 28,-12 25,-11 v 0 z"
   id="path102"
   inkscape:connector-curvature="0"
   style="fill:#006600;stroke:none" />
         <path
   d="m 10501,14187 v 0 13 l -18,25 -33,31 -43,35 -53,33 -59,33 -53,31 -51,23 15,35 51,-23 59,-30 58,-33 53,-38 49,-36 38,-36 23,-35 5,-38 v 0 z"
   id="path104"
   inkscape:connector-curvature="0"
   style="fill:#006600;stroke:none" />
         <path
   d="m 10110,14312 v 0 l 17,-8 18,-8 26,-10 25,-10 36,-13 30,-13 36,-12 35,-13 36,-10 33,-10 28,-8 31,-5 20,-3 h 18 l 5,3 -3,-5 41,-10 -18,-21 -20,-7 h -23 l -26,2 -30,5 -33,8 -33,10 -36,15 -35,13 -36,13 -36,13 -30,12 -31,10 -25,11 -18,7 -13,3 v 0 z"
   id="path106"
   inkscape:connector-curvature="0"
   style="fill:#006600;stroke:none" />
         <path
   d="m 10285,15601 15,-10 3,-18 -10,-13 -18,-5 z"
   id="path108"
   inkscape:connector-curvature="0"
   style="fill:#4c4c4c;stroke:none" />
         <path
   d="m 10064,15466 v 0 l 15,33 20,31 26,28 30,20 31,15 33,11 33,2 33,-5 -10,-46 -23,5 -28,-2 -23,-5 -25,-15 -21,-16 -20,-18 -15,-25 -16,-28 v 0 z"
   id="path110"
   inkscape:connector-curvature="0"
   style="fill:#4c4c4c;stroke:none" />
         <path
   d="m 9664,14657 18,46 46,87 58,119 72,135 68,140 64,127 48,99 26,56 40,-15 -25,-61 -48,-99 -64,-127 -69,-140 -71,-135 -58,-120 -46,-86 -18,-36 z"
   id="path112"
   inkscape:connector-curvature="0"
   style="fill:#4c4c4c;stroke:none" />
         <path
   d="m 9708,14645 -13,-16 h -18 l -13,11 -2,20 z"
   id="path114"
   inkscape:connector-curvature="0"
   style="fill:#4c4c4c;stroke:none" />
         <path
   d="m 10280,15578 -28,5 -31,-2 -28,-8 -28,-15 -25,-18 -23,-23 -18,-28 -15,-30 -25,-59 -49,-99 -63,-127 -69,-140 -71,-135 -59,-119 -46,-87 -17,-41 15,5 20,3 h 23 28 l 31,-3 30,-2 36,-5 35,-8 36,-7 36,-8 35,-10 36,-8 33,-10 31,-10 27,-13 23,-10 31,71 33,74 36,74 35,76 33,76 36,74 36,74 35,68 33,64 31,61 30,51 26,46 25,35 20,28 18,16 16,5 -39,30 -45,23 -51,18 -49,15 -50,13 -46,8 -41,7 z"
   id="path116"
   inkscape:connector-curvature="0"
   style="fill:#7fffbf;stroke:none" />
         <path
   d="m 10285,15601 15,-10 3,-18 -10,-13 -18,-5 z"
   id="path118"
   inkscape:connector-curvature="0"
   style="fill:#006600;stroke:none" />
         <path
   d="m 10064,15466 v 0 l 15,33 20,31 26,28 30,20 31,15 33,11 33,2 33,-5 -10,-46 -23,5 -28,-2 -23,-5 -25,-15 -21,-16 -20,-18 -15,-25 -16,-28 v 0 z"
   id="path120"
   inkscape:connector-curvature="0"
   style="fill:#006600;stroke:none" />
         <path
   d="m 9664,14657 18,46 46,87 58,119 72,135 68,140 64,127 48,99 26,56 40,-15 -25,-61 -48,-99 -64,-127 -69,-140 -71,-135 -58,-120 -46,-86 -18,-36 z"
   id="path122"
   inkscape:connector-curvature="0"
   style="fill:#006600;stroke:none" />
         <path
   d="m 9708,14645 -13,-16 h -18 l -13,11 -2,20 z"
   id="path124"
   inkscape:connector-curvature="0"
   style="fill:#006600;stroke:none" />
        </g>
       </g>
      </g>
     </g>
    </g>
   </g>
  </g>
 </g>
</svg>