<?xml version="1.0" encoding="UTF-8" standalone="no"?>
<svg
   xmlns:ooo="http://xml.openoffice.org/svg/export"
   xmlns:dc="http://purl.org/dc/elements/1.1/"
   xmlns:cc="http://creativecommons.org/ns#"
   xmlns:rdf="http://www.w3.org/1999/02/22-rdf-syntax-ns#"
   xmlns:svg="http://www.w3.org/2000/svg"
   xmlns="http://www.w3.org/2000/svg"
   xmlns:sodipodi="http://sodipodi.sourceforge.net/DTD/sodipodi-0.dtd"
   xmlns:inkscape="http://www.inkscape.org/namespaces/inkscape"
   version="1.2"
   width="26.24mm"
   height="20.120001mm"
   viewBox="0 0 2624 2012.0001"
   preserveAspectRatio="xMidYMid"
   xml:space="preserve"
   id="svg121"
   sodipodi:docname="conch1.svg"
   style="fill-rule:evenodd;stroke-width:28.22200012;stroke-linejoin:round"
   inkscape:version="0.92.5 (2060ec1f9f, 2020-04-08)"><metadata
   id="metadata125"><rdf:RDF><cc:Work
       rdf:about=""><dc:format>image/svg+xml</dc:format><dc:type
         rdf:resource="http://purl.org/dc/dcmitype/StillImage" /></cc:Work></rdf:RDF></metadata><sodipodi:namedview
   pagecolor="#ffffff"
   bordercolor="#666666"
   borderopacity="1"
   objecttolerance="10"
   gridtolerance="10"
   guidetolerance="10"
   inkscape:pageopacity="0"
   inkscape:pageshadow="2"
   inkscape:window-width="664"
   inkscape:window-height="487"
   id="namedview123"
   showgrid="false"
   inkscape:zoom="0.2102413"
   inkscape:cx="49.587402"
   inkscape:cy="38.022046"
   inkscape:window-x="0"
   inkscape:window-y="0"
   inkscape:window-maximized="0"
   inkscape:current-layer="svg121" />
 <defs
   class="ClipPathGroup"
   id="defs8">
  <clipPath
   id="presentation_clip_path"
   clipPathUnits="userSpaceOnUse">
   <rect
   x="0"
   y="0"
   width="21000"
   height="29700"
   id="rect2" />
  </clipPath>
  <clipPath
   id="presentation_clip_path_shrink"
   clipPathUnits="userSpaceOnUse">
   <rect
   x="21"
   y="29"
   width="20958"
   height="29641"
   id="rect5" />
  </clipPath>
 </defs>
 <defs
   class="TextShapeIndex"
   id="defs12">
  <g
   ooo:slide="id1"
   ooo:id-list="id3"
   id="g10" />
 </defs>
 <defs
   class="EmbeddedBulletChars"
   id="defs44">
  <g
   id="bullet-char-template-57356"
   transform="matrix(4.8828125e-4,0,0,-4.8828125e-4,0,0)">
   <path
   d="M 580,1141 1163,571 580,0 -4,571 Z"
   id="path14"
   inkscape:connector-curvature="0" />
  </g>
  <g
   id="bullet-char-template-57354"
   transform="matrix(4.8828125e-4,0,0,-4.8828125e-4,0,0)">
   <path
   d="M 8,1128 H 1137 V 0 H 8 Z"
   id="path17"
   inkscape:connector-curvature="0" />
  </g>
  <g
   id="bullet-char-template-10146"
   transform="matrix(4.8828125e-4,0,0,-4.8828125e-4,0,0)">
   <path
   d="M 174,0 602,739 174,1481 1456,739 Z M 1358,739 309,1346 659,739 Z"
   id="path20"
   inkscape:connector-curvature="0" />
  </g>
  <g
   id="bullet-char-template-10132"
   transform="matrix(4.8828125e-4,0,0,-4.8828125e-4,0,0)">
   <path
   d="M 2015,739 1276,0 H 717 l 543,543 H 174 v 393 h 1086 l -543,545 h 557 z"
   id="path23"
   inkscape:connector-curvature="0" />
  </g>
  <g
   id="bullet-char-template-10007"
   transform="matrix(4.8828125e-4,0,0,-4.8828125e-4,0,0)">
   <path
   d="m 0,-2 c -7,16 -16,29 -25,39 l 381,530 c -94,256 -141,385 -141,387 0,25 13,38 40,38 9,0 21,-2 34,-5 21,4 42,12 65,25 l 27,-13 111,-251 280,301 64,-25 24,25 c 21,-10 41,-24 62,-43 C 886,937 835,863 770,784 769,783 710,716 594,584 L 774,223 c 0,-27 -21,-55 -63,-84 l 16,-20 C 717,90 699,76 672,76 641,76 570,178 457,381 L 164,-76 c -22,-34 -53,-51 -92,-51 -42,0 -63,17 -64,51 -7,9 -10,24 -10,44 0,9 1,19 2,30 z"
   id="path26"
   inkscape:connector-curvature="0" />
  </g>
  <g
   id="bullet-char-template-10004"
   transform="matrix(4.8828125e-4,0,0,-4.8828125e-4,0,0)">
   <path
   d="M 285,-33 C 182,-33 111,30 74,156 52,228 41,333 41,471 c 0,78 14,145 41,201 34,71 87,106 158,106 53,0 88,-31 106,-94 l 23,-176 c 8,-64 28,-97 59,-98 l 735,706 c 11,11 33,17 66,17 42,0 63,-15 63,-46 V 965 c 0,-36 -10,-64 -30,-84 L 442,47 C 390,-6 338,-33 285,-33 Z"
   id="path29"
   inkscape:connector-curvature="0" />
  </g>
  <g
   id="bullet-char-template-9679"
   transform="matrix(4.8828125e-4,0,0,-4.8828125e-4,0,0)">
   <path
   d="M 813,0 C 632,0 489,54 383,161 276,268 223,411 223,592 c 0,181 53,324 160,431 106,107 249,161 430,161 179,0 323,-54 432,-161 108,-107 162,-251 162,-431 0,-180 -54,-324 -162,-431 C 1136,54 992,0 813,0 Z"
   id="path32"
   inkscape:connector-curvature="0" />
  </g>
  <g
   id="bullet-char-template-8226"
   transform="matrix(4.8828125e-4,0,0,-4.8828125e-4,0,0)">
   <path
   d="m 346,457 c -73,0 -137,26 -191,78 -54,51 -81,114 -81,188 0,73 27,136 81,188 54,52 118,78 191,78 73,0 134,-26 185,-79 51,-51 77,-114 77,-187 0,-75 -25,-137 -76,-188 -50,-52 -112,-78 -186,-78 z"
   id="path35"
   inkscape:connector-curvature="0" />
  </g>
  <g
   id="bullet-char-template-8211"
   transform="matrix(4.8828125e-4,0,0,-4.8828125e-4,0,0)">
   <path
   d="M -4,459 H 1135 V 606 H -4 Z"
   id="path38"
   inkscape:connector-curvature="0" />
  </g>
  <g
   id="bullet-char-template-61548"
   transform="matrix(4.8828125e-4,0,0,-4.8828125e-4,0,0)">
   <path
   d="m 173,740 c 0,163 58,303 173,419 116,115 255,173 419,173 163,0 302,-58 418,-173 116,-116 174,-256 174,-419 0,-163 -58,-303 -174,-418 C 1067,206 928,148 765,148 601,148 462,206 346,322 231,437 173,577 173,740 Z"
   id="path41"
   inkscape:connector-curvature="0" />
  </g>
 </defs>
 <g
   id="g49"
   transform="translate(-9188,-13844)">
  <g
   id="id2"
   class="Master_Slide">
   <g
   id="bg-id2"
   class="Background" />
   <g
   id="bo-id2"
   class="BackgroundObjects" />
  </g>
 </g>
 <g
   class="SlideGroup"
   id="g119"
   transform="translate(-9188,-13844)">
  <g
   id="g117">
   <g
   id="container-id1">
    <g
   id="id1"
   class="Slide"
   clip-path="url(#presentation_clip_path)">
     <g
   class="Page"
   id="g113">
      <g
   class="Graphic"
   id="g111">
       <g
   id="id3">
        <rect
   class="BoundingBox"
   x="9188"
   y="13844"
   width="2624"
   height="2012"
   id="rect51"
   style="fill:none;stroke:none" />
        <defs
   id="defs56">
         <clipPath
   id="clip_path_1"
   clipPathUnits="userSpaceOnUse">
          <path
   d="m 9188,13844 h 2623 v 2011 H 9188 Z"
   id="path53"
   inkscape:connector-curvature="0" />
         </clipPath>
        </defs>
        <g
   clip-path="url(#clip_path_1)"
   id="g108">
         <path
   d="m 10264,14477 7,-17 v -31 l -7,-33 -18,-36 -8,-15 -2,-15 2,-10 5,-11 10,-10 13,-5 15,-2 16,-3 28,-10 20,-23 10,-28 -5,-33 -8,-18 -10,-20 -13,-26 -12,-28 -13,-30 -10,-31 -5,-30 -3,-28 3,-28 7,-23 11,-23 15,-20 18,-15 20,-13 25,-8 31,-5 38,3 25,12 21,18 18,23 12,20 16,18 20,13 28,5 28,-5 20,-10 15,-16 13,-17 15,-16 18,-12 21,-5 30,2 31,10 22,13 18,15 10,18 6,18 2,20 v 18 l -2,18 -6,43 -2,43 10,36 31,28 25,10 23,-5 20,-10 23,-15 23,-13 33,-5 38,5 51,20 33,28 13,28 -5,31 -10,30 -13,33 -5,31 10,33 30,30 31,16 28,2 20,-5 23,-7 21,-8 25,-3 28,11 33,22 36,49 5,43 -16,43 -30,38 -33,36 -31,33 -17,33 5,31 20,20 23,8 25,-3 28,-5 28,-5 28,2 26,13 25,31 15,35 v 28 l -10,23 -18,18 -18,15 -15,13 -7,15 2,15 15,13 26,10 30,5 33,6 33,7 36,15 28,23 25,33 11,41 -11,46 -20,43 -28,46 -25,41 -18,38 -5,35 18,26 30,20 28,13 28,5 28,2 25,-2 26,-3 25,-2 h 23 l -13,61 3,69 13,61 15,35 -43,10 -51,16 -59,20 -61,23 -58,23 -53,18 -44,12 -30,3 7,28 -5,20 -17,10 -21,8 h -35 l -33,-13 -33,-25 -36,-31 -38,-30 -38,-31 -44,-20 -45,-8 -18,-2 -13,2 -10,5 -8,8 -7,8 -10,10 -11,7 -15,8 -15,3 -13,-3 -10,-5 -10,-10 -8,-10 -10,-8 -8,-5 h -10 l -18,10 -15,15 -15,16 -20,10 -16,-8 -7,-18 -11,-20 -22,-5 -21,10 -10,20 -8,21 -17,10 h -13 l -10,-8 -10,-7 -8,-10 -10,-11 -8,-7 -10,-3 h -10 l -15,13 -11,13 -10,15 -15,10 h -18 l -10,-15 -15,-15 -23,-8 -13,2 -10,8 -10,10 -8,10 -13,11 -12,10 -18,7 -23,3 -23,-3 -15,-7 -8,-10 -5,-13 -5,-13 -5,-10 -10,-5 h -15 l -18,5 -18,8 -18,12 -15,11 -18,12 -15,8 -15,5 h -18 l -20,-15 -8,-26 -5,-23 -23,-10 -18,3 -15,10 -15,13 -13,12 -15,13 -16,10 -15,8 h -18 l -15,-8 -10,-7 -8,-13 -7,-13 -10,-13 -8,-10 -13,-10 -18,-5 h -20 l -20,10 -23,13 -26,15 -28,13 -33,5 -35,-3 -41,-15 -33,-23 -20,-20 -13,-18 -3,-18 -2,-12 v -13 l -5,-8 -13,-5 h -20 l -26,8 -30,7 -31,11 -30,2 -28,-5 -26,-20 -17,-36 -8,-41 8,-33 15,-23 23,-17 23,-13 22,-15 18,-18 5,-20 3,-54 8,-51 5,-43 2,-33 -25,-8 -10,-20 v -28 -23 h -18 l -18,-5 -13,-8 -12,-15 -8,-15 -3,-15 3,-18 8,-16 -36,-17 -15,-38 2,-44 8,-40 -18,-5 -15,-13 -15,-18 -13,-25 -10,-26 -8,-28 -5,-25 v -23 l -28,-5 -18,-8 -10,-10 -5,-13 -3,-13 v -15 l 3,-15 v -13 l -31,-18 -12,-15 v -20 l 2,-21 8,-10 15,-10 23,-10 25,-8 31,-2 h 28 l 28,7 23,13 10,-20 15,-18 18,-13 23,-7 20,-5 23,2 20,8 18,12 13,-17 23,-16 30,-10 33,-7 36,-3 38,3 33,10 31,18 -10,-36 -16,-41 -7,-33 20,-20 h 18 l 20,5 15,8 18,10 15,10 16,8 15,5 h 13 l 10,-13 -5,-23 -8,-20 15,-13 16,2 17,8 21,10 20,13 18,15 20,10 18,8 15,3 18,-11 3,-20 v -15 l 15,-5 13,7 15,16 18,23 20,22 23,26 28,18 30,12 z"
   id="path58"
   inkscape:connector-curvature="0"
   style="fill:#70006d;stroke:none" />
         <path
   d="m 10307,14551 12,-18 18,-28 8,-35 -10,-33 -8,-16 v -15 l 3,-15 10,-15 10,-11 15,-10 13,-5 15,-2 15,-3 16,-8 18,-12 15,-13 10,-18 10,-15 5,-15 -2,-16 -8,-15 -10,-18 -10,-23 -16,-20 -12,-23 -13,-20 -13,-18 -7,-15 -11,-21 -10,-22 -5,-23 v -21 l 5,-15 10,-15 18,-10 26,-5 33,2 25,13 18,15 13,20 12,18 16,18 17,10 26,5 25,-5 18,-10 15,-13 11,-15 12,-13 16,-12 20,-5 28,2 25,10 18,13 10,15 5,18 v 18 l -2,18 -5,20 -3,15 -5,43 v 44 l 13,38 28,28 25,5 23,-8 23,-15 25,-20 28,-18 31,-10 35,5 44,23 15,23 2,25 -7,31 -13,33 -8,33 -2,33 10,33 28,28 31,13 h 28 l 28,-11 25,-12 25,-11 26,-5 23,5 25,23 18,39 -10,35 -23,33 -31,31 -30,30 -20,33 v 36 l 22,41 23,17 26,11 25,5 h 28 l 26,5 20,5 20,13 13,20 8,36 -6,30 -12,25 -18,21 -18,18 -13,15 -7,15 2,15 16,11 25,5 31,2 35,5 36,8 35,18 31,30 23,46 5,36 -8,28 -18,28 -22,23 -21,20 -15,23 -8,25 10,26 31,40 30,31 34,25 35,16 31,10 30,7 28,3 h 23 l -8,43 8,33 15,28 18,21 -38,7 -48,13 -56,15 -56,18 -56,15 -51,15 -43,8 -28,3 7,28 -5,20 -15,15 -18,8 h -25 l -31,-15 -33,-26 -33,-33 -38,-30 -41,-31 -40,-20 -44,-8 -17,-2 -13,2 -10,3 -10,5 -11,7 -7,8 -13,8 -13,5 h -25 l -15,-13 -13,-13 -15,-5 -18,8 -13,15 -12,15 -18,8 -13,-5 -8,-18 -10,-18 -20,-5 -13,3 -7,7 -8,8 -8,8 -7,7 -8,5 -13,5 h -15 l -20,-7 -18,-18 -15,-13 -18,-2 -15,12 -11,18 -10,21 -15,12 -15,-2 -10,-13 -16,-13 -20,-7 -13,2 -7,5 -8,11 -8,10 -10,10 -13,10 -15,5 -23,3 -20,-3 -13,-8 -7,-7 -5,-13 -3,-10 -5,-8 -10,-7 h -13 l -18,5 -15,7 -15,11 -15,10 -16,10 -12,10 -16,3 h -15 l -13,-5 -10,-11 -10,-12 -5,-13 -8,-10 -10,-10 -10,-8 -13,-3 -15,3 -15,8 -18,7 -15,10 -16,11 -17,7 -16,3 h -15 l -13,-5 -12,-10 -8,-11 -8,-10 -10,-10 -7,-13 -13,-7 -15,-5 h -18 l -15,7 -18,13 -18,13 -18,12 -20,11 -21,2 -25,-5 -33,-18 -20,-20 -11,-23 -5,-23 -2,-20 v -21 l -5,-12 -10,-8 h -18 l -23,10 -25,13 -28,15 -28,13 -26,5 -23,-3 -18,-12 -12,-33 5,-28 20,-26 28,-25 28,-23 23,-20 13,-21 -3,-20 -13,-26 -5,-25 5,-28 8,-25 10,-26 10,-23 8,-23 3,-20 -28,-8 -21,-25 -15,-31 -5,-23 h -18 l -18,-5 -15,-7 -13,-13 -10,-15 -5,-15 v -16 l 5,-15 -33,-18 -18,-35 -2,-41 5,-38 -15,-5 -16,-11 -15,-15 -10,-20 -8,-20 -7,-23 -3,-23 v -21 l -30,-5 -23,-18 -10,-22 -5,-26 -16,-5 -12,-10 -8,-15 2,-13 8,-8 15,-5 21,-5 h 20 23 l 20,5 21,10 12,13 10,-18 16,-12 23,-11 25,-5 h 23 l 25,3 23,7 15,13 16,-15 23,-13 35,-7 38,-6 44,3 43,8 40,15 36,20 -8,-30 -7,-28 -3,-23 13,-18 15,-5 13,3 13,7 12,10 13,11 10,10 13,5 h 10 l 13,-18 2,-25 3,-28 15,-13 13,2 10,11 10,15 10,15 11,18 10,15 10,10 13,3 17,-13 3,-23 3,-23 12,-15 10,3 13,12 15,18 18,21 26,20 33,15 40,5 z"
   id="path60"
   inkscape:connector-curvature="0"
   style="fill:#f7e2f7;stroke:none" />
         <path
   d="m 11357,15683 -13,-13 -13,-17 -15,-18 -15,-16 -15,-15 -16,-13 -15,-10 -18,-2 h -12 l -11,2 h -12 l -8,3 -10,5 -8,2 -7,6 -8,2 -10,-2 -5,-3 -3,-5 8,-5 15,-5 15,-5 13,-5 15,-6 8,-12 -10,-23 -20,-13 -28,3 -8,2 -10,5 -8,3 -13,2 -10,3 -10,3 -10,2 h -8 -12 l -8,-5 -3,-8 11,-5 7,-2 h 10 l 13,-3 10,-2 13,-3 10,-2 10,-6 10,-5 3,-15 -13,-18 -23,-10 -20,3 -10,7 -13,5 -13,8 -15,5 -18,3 -17,2 h -16 l -17,-2 -13,-3 -5,-8 5,-5 13,-2 h 10 12 l 16,-3 15,-5 13,-2 12,-5 13,-6 8,-5 2,-7 v -8 l -7,-8 -11,-7 -12,-8 -13,-2 -13,-3 -12,3 -13,5 -13,2 -13,5 -15,5 -12,3 -13,3 -10,2 h -11 l -7,-5 -3,-8 5,-5 13,-2 h 10 l 10,-3 11,-2 12,-5 10,-5 11,-6 7,-5 5,-5 5,-12 -2,-18 -15,-18 -33,-8 h -11 l -7,-2 h -5 -8 l -5,-3 -3,-7 6,-8 10,-3 h 7 13 l 13,3 15,2 15,6 13,7 10,8 8,10 5,10 2,13 v 10 l -2,10 h 10 l 13,3 12,2 11,5 12,8 11,8 7,12 8,16 12,2 16,3 12,7 13,8 10,10 5,10 6,16 -3,12 20,5 21,13 15,21 5,22 23,5 18,8 12,10 11,10 15,16 18,23 20,23 13,12 2,8 -5,7 -8,3 z"
   id="path62"
   inkscape:connector-curvature="0"
   style="fill:#bf4cbf;stroke:none" />
         <path
   d="m 10922,15312 5,-28 -5,-28 -13,-26 -28,-15 -22,-5 -36,-3 -43,-5 -51,-7 -54,-5 -53,-8 -48,-10 -46,-10 -38,-13 -41,-15 -38,-23 -36,-31 -28,-38 -22,-48 -13,-61 v -74 l 15,-8 18,-10 15,-15 15,-18 16,-23 12,-23 8,-25 8,-26 53,-5 51,3 51,10 48,13 46,18 43,22 41,26 38,28 33,33 28,36 25,35 21,38 17,41 11,38 2,41 v 38 l 8,23 15,8 15,-8 8,-28 v -46 l -8,-48 -12,-46 -21,-43 -23,-41 -30,-41 -33,-35 -38,-36 -44,-30 -43,-26 -48,-23 -53,-18 -54,-10 -53,-7 h -59 l -58,5 -3,20 -7,23 -13,25 -15,23 -21,23 -20,21 -20,12 -18,10 -15,31 -11,38 -10,41 -2,46 5,48 12,51 28,53 39,54 22,20 28,20 33,21 39,18 40,17 46,16 46,12 48,10 48,11 46,5 43,5 h 41 l 38,-5 33,-8 26,-10 z"
   id="path64"
   inkscape:connector-curvature="0"
   style="fill:#6d006d;stroke:none" />
         <path
   d="m 11021,15190 13,-8 13,-10 10,-10 13,-13 5,-13 5,-10 -3,-13 -7,-10 17,-15 5,-26 -10,-25 -30,-15 -10,-10 2,-16 10,-15 16,-13 7,-7 8,-11 5,-12 v -16 l -5,-12 -10,-10 -21,-8 h -30 l -23,-5 -10,-18 v -20 l 10,-21 5,-10 3,-13 -3,-12 -5,-13 -10,-10 -13,-8 -15,-2 -21,2 -12,3 -13,-3 -13,-10 -10,-10 -10,-13 -5,-15 v -13 l 2,-10 5,-10 v -15 l -2,-16 -5,-12 -10,-11 -13,-7 -18,-3 -20,5 -21,8 -17,3 h -16 l -12,-3 -10,-8 -6,-7 -5,-13 -2,-13 -5,-12 -8,-16 -10,-12 -15,-8 -13,-5 h -13 l -12,10 -8,18 -13,18 -18,-5 -15,-18 -10,-26 -5,-10 -10,-7 -13,-3 h -13 l -15,5 -10,8 -5,12 2,21 -5,25 -15,15 -23,3 -28,-15 -15,-10 -15,-8 -16,-3 -12,3 -13,8 -8,12 -7,16 -5,22 -13,39 -23,15 h -23 l -13,-20 -5,-34 -7,-20 -8,-2 -2,12 2,26 5,30 18,26 33,10 18,-5 13,-13 10,-15 7,-18 8,-20 5,-16 10,-12 10,-8 h 11 l 10,3 7,5 8,5 13,5 12,2 18,3 23,-3 15,-15 11,-23 7,-23 18,-12 18,5 12,20 11,20 20,13 23,-5 15,-15 15,-16 18,-5 13,16 5,25 5,28 23,20 15,6 h 18 l 15,-3 15,-5 13,-5 15,-3 h 13 l 10,5 11,21 -6,25 v 33 l 18,31 15,10 18,8 16,2 15,3 h 13 10 l 10,2 7,5 v 15 l -7,23 -5,26 7,30 11,13 12,5 10,3 13,-3 h 13 l 10,3 10,5 8,12 v 28 l -21,21 -17,20 -5,23 10,13 15,10 15,8 10,10 3,10 -3,13 -5,12 -10,5 8,26 -8,20 -18,18 -22,15 -8,10 v 8 l 10,3 z"
   id="path66"
   inkscape:connector-curvature="0"
   style="fill:#bf4cbf;stroke:none" />
         <path
   d="m 10274,14818 -10,-15 -11,-15 -7,-21 v -20 -23 l -5,-18 -16,-12 -25,-6 -10,-2 -10,-8 -8,-10 -3,-10 -5,-13 -15,-5 -15,5 -13,13 -13,10 -15,3 -13,-8 -10,-15 -12,-18 -21,-5 -20,5 -13,13 -10,15 -15,3 -13,-6 -8,-10 -17,-15 h -18 l -15,13 -6,12 -2,11 -8,5 h -7 l -10,-5 -18,-8 -13,8 -13,15 -5,13 -5,10 3,5 5,2 7,-5 3,-7 5,-8 5,-5 10,-5 h 8 l 10,2 10,5 h 13 l 10,-7 5,-10 3,-10 10,-6 13,3 7,10 10,13 18,2 15,-7 13,-10 15,-13 18,-3 13,5 10,13 10,13 18,7 26,3 12,-10 10,-13 11,-7 12,5 5,10 5,15 11,10 12,5 h 13 l 10,5 10,8 5,13 v 12 l -2,11 v 15 l 5,18 8,15 10,13 10,10 5,2 h 8 l 2,-2 z"
   id="path68"
   inkscape:connector-curvature="0"
   style="fill:#bf4cbf;stroke:none" />
         <path
   d="m 9519,14683 v -10 l -3,-7 -5,-5 -5,-3 -8,-3 -2,-10 5,-7 15,-3 5,3 h 8 l 5,-3 5,-5 5,-5 h 13 l 15,5 15,8 10,2 11,-2 10,-5 10,-3 8,5 2,8 8,5 17,2 26,-2 23,-3 15,5 v 16 h 23 l 20,7 16,13 7,13 5,5 h 8 l 7,-3 3,-7 -5,-16 -15,-17 -21,-11 -23,-5 -7,-12 -15,-8 -21,-3 -15,3 -13,2 h -12 l -13,-2 -10,-8 -8,-7 -10,-3 -13,3 -7,5 -6,5 h -10 -10 l -10,-5 -13,-5 -15,-5 -13,2 -7,5 -5,5 -8,3 h -8 l -10,-3 -10,3 -8,5 -7,10 2,13 8,10 7,5 8,8 5,10 3,10 5,5 7,-2 z"
   id="path70"
   inkscape:connector-curvature="0"
   style="fill:#bf4cbf;stroke:none" />
         <path
   d="m 11021,15225 23,-7 26,-8 25,-3 28,-2 28,2 28,8 28,8 25,15 31,20 40,31 46,38 54,38 50,36 54,33 48,25 41,13 15,-3 5,-5 -5,-7 -15,-5 -41,-13 -48,-26 -54,-33 -50,-40 -54,-39 -46,-38 -40,-33 -31,-20 -25,-15 -28,-8 -28,-8 -28,-2 -28,2 -25,3 -26,8 -23,7 -12,10 -3,11 5,7 z"
   id="path72"
   inkscape:connector-curvature="0"
   style="fill:#bf4cbf;stroke:none" />
         <path
   d="m 9508,14963 16,-20 17,-33 13,-36 8,-33 2,-10 5,-5 5,2 3,13 -8,26 -15,40 -23,36 z"
   id="path74"
   inkscape:connector-curvature="0"
   style="fill:#bf4cbf;stroke:none" />
         <path
   d="m 9577,15052 15,-20 16,-31 12,-30 8,-28 2,-8 6,-2 h 2 l 3,10 -8,25 -13,33 -20,31 z"
   id="path76"
   inkscape:connector-curvature="0"
   style="fill:#bf4cbf;stroke:none" />
         <path
   d="m 9793,14867 -5,33 -10,40 -15,44 -18,43 -23,40 -23,34 -25,25 -26,15 15,-20 18,-28 21,-36 20,-40 20,-41 16,-43 12,-38 5,-34 3,-12 8,-3 5,5 z"
   id="path78"
   inkscape:connector-curvature="0"
   style="fill:#bf4cbf;stroke:none" />
         <path
   d="m 9630,15345 46,-28 46,-43 46,-51 40,-56 39,-61 30,-59 25,-56 16,-46 v -20 l -8,-8 -13,3 -10,15 -18,56 -30,61 -36,64 -40,61 -41,56 -36,48 -33,38 z"
   id="path80"
   inkscape:connector-curvature="0"
   style="fill:#bf4cbf;stroke:none" />
         <path
   d="m 9989,15060 -18,56 -33,66 -41,69 -48,66 -48,63 -43,51 -36,38 -25,21 48,-26 48,-43 51,-53 48,-61 46,-64 38,-64 31,-58 20,-51 3,-31 -13,-7 -15,7 z"
   id="path82"
   inkscape:connector-curvature="0"
   style="fill:#bf4cbf;stroke:none" />
         <path
   d="m 10129,15167 -10,58 -18,59 -21,56 -25,53 -25,51 -28,48 -26,46 -23,38 38,-35 36,-44 33,-51 33,-55 26,-56 22,-56 16,-54 7,-46 -2,-22 -13,-8 -13,2 z"
   id="path84"
   inkscape:connector-curvature="0"
   style="fill:#bf4cbf;stroke:none" />
         <path
   d="m 10258,15301 -5,46 -10,49 -13,48 -15,43 -18,38 -15,36 -13,25 -10,16 18,-18 23,-31 20,-38 21,-43 17,-43 16,-46 10,-41 2,-35 -2,-16 -10,-5 -10,5 z"
   id="path86"
   inkscape:connector-curvature="0"
   style="fill:#bf4cbf;stroke:none" />
         <path
   d="m 10403,15375 -12,89 v 82 l 7,68 18,54 -33,-69 -10,-86 2,-84 5,-56 6,-10 7,-3 8,3 z"
   id="path88"
   inkscape:connector-curvature="0"
   style="fill:#bf4cbf;stroke:none" />
         <path
   d="m 10482,15431 5,43 10,59 21,56 33,41 -26,-59 -15,-56 -5,-51 v -38 l -2,-13 -11,-2 -7,7 z"
   id="path90"
   inkscape:connector-curvature="0"
   style="fill:#bf4cbf;stroke:none" />
         <path
   d="m 10617,15452 8,38 17,48 18,46 15,25 -10,-33 -12,-40 -11,-44 -5,-43 -5,-10 -5,-3 -7,3 z"
   id="path92"
   inkscape:connector-curvature="0"
   style="fill:#bf4cbf;stroke:none" />
         <path
   d="m 10767,15474 8,31 15,41 15,35 13,21 -10,-28 -11,-31 -10,-35 -5,-36 -2,-8 -8,-2 -5,5 z"
   id="path94"
   inkscape:connector-curvature="0"
   style="fill:#bf4cbf;stroke:none" />
         <path
   d="m 10876,15487 8,28 13,36 15,30 13,21 -11,-26 -10,-28 -10,-33 -5,-30 -3,-8 -5,-3 -5,6 z"
   id="path96"
   inkscape:connector-curvature="0"
   style="fill:#bf4cbf;stroke:none" />
         <path
   d="m 10604,14452 3,-94 -5,-110 -13,-99 -13,-63 26,73 18,105 10,109 v 79 l -5,18 -11,7 -7,-5 z"
   id="path98"
   inkscape:connector-curvature="0"
   style="fill:#bf4cbf;stroke:none" />
         <path
   d="m 10754,14541 26,-66 12,-71 5,-64 3,-51 5,51 -2,74 -11,76 -12,59 -13,17 h -10 l -5,-10 z"
   id="path100"
   inkscape:connector-curvature="0"
   style="fill:#bf4cbf;stroke:none" />
         <path
   d="m 10940,14699 18,-18 20,-23 18,-28 18,-28 17,-31 13,-28 10,-27 8,-23 -3,23 -10,27 -13,34 -12,33 -18,33 -15,28 -18,25 -13,18 -15,10 -8,-5 -2,-10 z"
   id="path102"
   inkscape:connector-curvature="0"
   style="fill:#bf4cbf;stroke:none" />
         <path
   d="m 11034,14856 8,-12 12,-18 16,-18 17,-18 21,-20 20,-15 20,-13 21,-10 -18,15 -18,18 -18,18 -15,17 -15,18 -15,15 -11,16 -7,12 -8,11 -8,2 -5,-5 z"
   id="path104"
   inkscape:connector-curvature="0"
   style="fill:#bf4cbf;stroke:none" />
         <path
   d="m 11123,15141 13,-18 17,-15 23,-18 23,-17 26,-18 28,-16 28,-12 30,-10 h -18 l -25,7 -28,10 -31,16 -30,17 -31,21 -25,23 -20,23 -5,10 5,7 h 7 z"
   id="path106"
   inkscape:connector-curvature="0"
   style="fill:#bf4cbf;stroke:none" />
        </g>
       </g>
      </g>
     </g>
    </g>
   </g>
  </g>
 </g>
</svg>