<?xml version="1.0" encoding="UTF-8" standalone="no"?>
<svg
   xmlns:ooo="http://xml.openoffice.org/svg/export"
   xmlns:dc="http://purl.org/dc/elements/1.1/"
   xmlns:cc="http://creativecommons.org/ns#"
   xmlns:rdf="http://www.w3.org/1999/02/22-rdf-syntax-ns#"
   xmlns:svg="http://www.w3.org/2000/svg"
   xmlns="http://www.w3.org/2000/svg"
   xmlns:sodipodi="http://sodipodi.sourceforge.net/DTD/sodipodi-0.dtd"
   xmlns:inkscape="http://www.inkscape.org/namespaces/inkscape"
   version="1.2"
   width="35.810001mm"
   height="36.27mm"
   viewBox="0 0 3581.0001 3627"
   preserveAspectRatio="xMidYMid"
   xml:space="preserve"
   id="svg131"
   sodipodi:docname="condctr.svg"
   style="fill-rule:evenodd;stroke-width:28.22200012;stroke-linejoin:round"
   inkscape:version="0.92.5 (2060ec1f9f, 2020-04-08)"><metadata
   id="metadata135"><rdf:RDF><cc:Work
       rdf:about=""><dc:format>image/svg+xml</dc:format><dc:type
         rdf:resource="http://purl.org/dc/dcmitype/StillImage" /></cc:Work></rdf:RDF></metadata><sodipodi:namedview
   pagecolor="#ffffff"
   bordercolor="#666666"
   borderopacity="1"
   objecttolerance="10"
   gridtolerance="10"
   guidetolerance="10"
   inkscape:pageopacity="0"
   inkscape:pageshadow="2"
   inkscape:window-width="664"
   inkscape:window-height="487"
   id="namedview133"
   showgrid="false"
   inkscape:zoom="0.2102413"
   inkscape:cx="67.691339"
   inkscape:cy="68.522833"
   inkscape:window-x="0"
   inkscape:window-y="0"
   inkscape:window-maximized="0"
   inkscape:current-layer="svg131" />
 <defs
   class="ClipPathGroup"
   id="defs8">
  <clipPath
   id="presentation_clip_path"
   clipPathUnits="userSpaceOnUse">
   <rect
   x="0"
   y="0"
   width="21000"
   height="29700"
   id="rect2" />
  </clipPath>
  <clipPath
   id="presentation_clip_path_shrink"
   clipPathUnits="userSpaceOnUse">
   <rect
   x="21"
   y="29"
   width="20958"
   height="29641"
   id="rect5" />
  </clipPath>
 </defs>
 <defs
   class="TextShapeIndex"
   id="defs12">
  <g
   ooo:slide="id1"
   ooo:id-list="id3"
   id="g10" />
 </defs>
 <defs
   class="EmbeddedBulletChars"
   id="defs44">
  <g
   id="bullet-char-template-57356"
   transform="matrix(4.8828125e-4,0,0,-4.8828125e-4,0,0)">
   <path
   d="M 580,1141 1163,571 580,0 -4,571 Z"
   id="path14"
   inkscape:connector-curvature="0" />
  </g>
  <g
   id="bullet-char-template-57354"
   transform="matrix(4.8828125e-4,0,0,-4.8828125e-4,0,0)">
   <path
   d="M 8,1128 H 1137 V 0 H 8 Z"
   id="path17"
   inkscape:connector-curvature="0" />
  </g>
  <g
   id="bullet-char-template-10146"
   transform="matrix(4.8828125e-4,0,0,-4.8828125e-4,0,0)">
   <path
   d="M 174,0 602,739 174,1481 1456,739 Z M 1358,739 309,1346 659,739 Z"
   id="path20"
   inkscape:connector-curvature="0" />
  </g>
  <g
   id="bullet-char-template-10132"
   transform="matrix(4.8828125e-4,0,0,-4.8828125e-4,0,0)">
   <path
   d="M 2015,739 1276,0 H 717 l 543,543 H 174 v 393 h 1086 l -543,545 h 557 z"
   id="path23"
   inkscape:connector-curvature="0" />
  </g>
  <g
   id="bullet-char-template-10007"
   transform="matrix(4.8828125e-4,0,0,-4.8828125e-4,0,0)">
   <path
   d="m 0,-2 c -7,16 -16,29 -25,39 l 381,530 c -94,256 -141,385 -141,387 0,25 13,38 40,38 9,0 21,-2 34,-5 21,4 42,12 65,25 l 27,-13 111,-251 280,301 64,-25 24,25 c 21,-10 41,-24 62,-43 C 886,937 835,863 770,784 769,783 710,716 594,584 L 774,223 c 0,-27 -21,-55 -63,-84 l 16,-20 C 717,90 699,76 672,76 641,76 570,178 457,381 L 164,-76 c -22,-34 -53,-51 -92,-51 -42,0 -63,17 -64,51 -7,9 -10,24 -10,44 0,9 1,19 2,30 z"
   id="path26"
   inkscape:connector-curvature="0" />
  </g>
  <g
   id="bullet-char-template-10004"
   transform="matrix(4.8828125e-4,0,0,-4.8828125e-4,0,0)">
   <path
   d="M 285,-33 C 182,-33 111,30 74,156 52,228 41,333 41,471 c 0,78 14,145 41,201 34,71 87,106 158,106 53,0 88,-31 106,-94 l 23,-176 c 8,-64 28,-97 59,-98 l 735,706 c 11,11 33,17 66,17 42,0 63,-15 63,-46 V 965 c 0,-36 -10,-64 -30,-84 L 442,47 C 390,-6 338,-33 285,-33 Z"
   id="path29"
   inkscape:connector-curvature="0" />
  </g>
  <g
   id="bullet-char-template-9679"
   transform="matrix(4.8828125e-4,0,0,-4.8828125e-4,0,0)">
   <path
   d="M 813,0 C 632,0 489,54 383,161 276,268 223,411 223,592 c 0,181 53,324 160,431 106,107 249,161 430,161 179,0 323,-54 432,-161 108,-107 162,-251 162,-431 0,-180 -54,-324 -162,-431 C 1136,54 992,0 813,0 Z"
   id="path32"
   inkscape:connector-curvature="0" />
  </g>
  <g
   id="bullet-char-template-8226"
   transform="matrix(4.8828125e-4,0,0,-4.8828125e-4,0,0)">
   <path
   d="m 346,457 c -73,0 -137,26 -191,78 -54,51 -81,114 -81,188 0,73 27,136 81,188 54,52 118,78 191,78 73,0 134,-26 185,-79 51,-51 77,-114 77,-187 0,-75 -25,-137 -76,-188 -50,-52 -112,-78 -186,-78 z"
   id="path35"
   inkscape:connector-curvature="0" />
  </g>
  <g
   id="bullet-char-template-8211"
   transform="matrix(4.8828125e-4,0,0,-4.8828125e-4,0,0)">
   <path
   d="M -4,459 H 1135 V 606 H -4 Z"
   id="path38"
   inkscape:connector-curvature="0" />
  </g>
  <g
   id="bullet-char-template-61548"
   transform="matrix(4.8828125e-4,0,0,-4.8828125e-4,0,0)">
   <path
   d="m 173,740 c 0,163 58,303 173,419 116,115 255,173 419,173 163,0 302,-58 418,-173 116,-116 174,-256 174,-419 0,-163 -58,-303 -174,-418 C 1067,206 928,148 765,148 601,148 462,206 346,322 231,437 173,577 173,740 Z"
   id="path41"
   inkscape:connector-curvature="0" />
  </g>
 </defs>
 <g
   id="g49"
   transform="translate(-8709,-13036)">
  <g
   id="id2"
   class="Master_Slide">
   <g
   id="bg-id2"
   class="Background" />
   <g
   id="bo-id2"
   class="BackgroundObjects" />
  </g>
 </g>
 <g
   class="SlideGroup"
   id="g129"
   transform="translate(-8709,-13036)">
  <g
   id="g127">
   <g
   id="container-id1">
    <g
   id="id1"
   class="Slide"
   clip-path="url(#presentation_clip_path)">
     <g
   class="Page"
   id="g123">
      <g
   class="Graphic"
   id="g121">
       <g
   id="id3">
        <rect
   class="BoundingBox"
   x="8709"
   y="13036"
   width="3581"
   height="3627"
   id="rect51"
   style="fill:none;stroke:none" />
        <defs
   id="defs56">
         <clipPath
   id="clip_path_1"
   clipPathUnits="userSpaceOnUse">
          <path
   d="m 8709,13036 h 3580 v 3626 H 8709 Z"
   id="path53"
   inkscape:connector-curvature="0" />
         </clipPath>
        </defs>
        <g
   clip-path="url(#clip_path_1)"
   id="g118">
         <path
   d="m 8953,14622 33,8 25,10 18,13 13,15 8,15 7,18 5,15 5,15 21,-2 h 23 l 30,-3 31,3 h 38 l 38,2 40,3 41,5 41,2 40,6 41,5 38,5 36,5 33,5 30,8 23,5 5,-11 13,-12 20,-10 28,-13 31,-8 33,-7 35,-5 33,-3 28,-3 18,-10 10,-15 5,-20 -2,-21 -5,-20 -5,-23 -8,-18 -2,-20 7,-13 8,-20 v -46 l -5,-5 -13,-13 -15,-17 -13,-21 -8,-25 3,-15 13,-11 15,-7 20,-5 18,-5 13,-10 7,-13 3,-15 -3,-11 -7,-10 -10,-12 -13,-11 -15,-15 -16,-18 -20,-25 -18,-36 -7,-30 -3,-33 -15,-43 -13,-16 -23,-15 -20,-15 -18,-18 -56,-89 -61,-66 -68,-48 -72,-28 -71,-16 h -73 l -74,13 -69,23 -66,31 -61,35 -53,41 -46,40 -38,41 -23,41 -13,35 3,28 -20,5 -23,11 -21,15 -15,20 -7,23 2,28 15,31 33,30 -12,10 -8,15 -8,18 v 21 l 8,20 15,20 26,13 38,10 -18,13 -15,15 -10,15 -3,21 5,17 13,21 20,15 31,15 -16,8 -7,15 v 15 l 5,18 13,18 15,15 18,13 z"
   id="path58"
   inkscape:connector-curvature="0"
   style="fill:#000000;stroke:none" />
         <path
   d="m 9093,14721 h -3 -5 l -10,3 h -13 l -18,2 -20,3 h -23 -25 l 2,7 11,23 12,31 18,38 41,-10 40,-5 41,-3 43,3 43,2 41,8 43,10 44,10 40,15 41,16 41,15 38,18 35,17 36,18 30,21 31,17 h 2 l 11,3 h 17 l 21,2 23,3 h 25 l 25,3 h 28 l -7,-64 89,10 v -23 l -3,-51 -5,-55 -10,-33 -10,-6 h -18 l -23,6 -23,7 -28,10 -25,16 -23,12 -20,18 -11,-10 -10,-10 -12,-10 -13,-11 -13,-10 -18,-7 -23,-11 -25,-7 -30,-8 -39,-7 -45,-8 -54,-5 -61,-5 -71,-3 -81,-2 z"
   id="path60"
   inkscape:connector-curvature="0"
   style="fill:#ffffff;stroke:none" />
         <path
   d="m 9093,14721 v 0 h -3 -5 l -10,3 h -13 l -18,2 -20,3 h -23 -25 v 0 l 2,7 11,23 12,31 18,38 v 0 l 41,-10 40,-5 41,-3 43,3 43,2 41,8 43,10 44,10 40,15 41,16 41,15 38,18 35,17 36,18 30,21 31,17 v 0 h 2 l 11,3 h 17 l 21,2 23,3 h 25 l 25,3 h 28 l -7,-64 89,10 v 0 -23 l -3,-51 -5,-55 -10,-33 v 0 l -10,-6 h -18 l -23,6 -23,7 -28,10 -25,16 -23,12 -20,18 v 0 l -11,-10 -10,-10 -12,-10 -13,-11 -13,-10 -18,-7 -23,-11 -25,-7 -30,-8 -39,-7 -45,-8 -54,-5 -61,-5 -71,-3 -81,-2 z"
   id="path62"
   inkscape:connector-curvature="0"
   style="fill:none;stroke:#000000" />
         <path
   d="m 10061,16663 8,-20 10,-21 15,-25 20,-23 21,-25 25,-28 31,-26 30,-25 33,-26 38,-22 38,-21 41,-20 41,-18 43,-13 43,-10 46,-7 v -31 l -8,-43 -12,-51 -16,-56 -15,-56 -15,-53 -13,-46 -10,-33 h -81 l 15,-28 18,-25 15,-21 5,-7 -20,-46 -31,-56 -30,-58 -33,-59 -31,-53 -25,-46 -18,-31 -8,-10 h -35 l -41,5 -46,3 -43,5 -40,8 -34,2 -22,5 h -8 l 28,56 33,87 36,99 38,106 33,102 30,87 18,58 8,23 -49,51 -48,66 -46,76 -43,79 -35,74 -31,68 -18,51 -7,28 z"
   id="path64"
   inkscape:connector-curvature="0"
   style="fill:#ffffff;stroke:none" />
         <path
   d="m 10531,16333 13,-13 -48,7 -44,11 -43,12 -43,21 -41,20 -38,20 -40,23 -33,26 -31,25 -30,28 -28,28 -21,25 -20,23 -15,28 -13,21 -8,22 26,6 7,-18 8,-21 15,-22 21,-23 20,-26 23,-28 30,-23 31,-25 33,-25 35,-23 39,-21 40,-20 38,-15 44,-13 43,-10 43,-8 13,-12 -13,12 8,-5 5,-7 -5,-8 -8,-5 z"
   id="path66"
   inkscape:connector-curvature="0"
   style="fill:#000000;stroke:none" />
         <path
   d="m 10455,15977 -13,-10 10,33 13,45 15,54 16,56 15,56 13,50 7,41 v 31 h 26 v -31 l -8,-46 -13,-51 -15,-55 -15,-56 -15,-54 -13,-45 -10,-34 -13,-10 13,10 -5,-7 -11,-3 -7,5 -3,11 z"
   id="path68"
   inkscape:connector-curvature="0"
   style="fill:#000000;stroke:none" />
         <path
   d="m 10364,15959 10,18 h 81 v -26 h -81 l 10,18 -10,-18 -8,5 -2,8 2,8 8,5 z"
   id="path70"
   inkscape:connector-curvature="0"
   style="fill:#000000;stroke:none" />
         <path
   d="m 10414,15888 3,-13 -5,8 -15,20 -18,28 -15,28 20,10 15,-28 18,-23 15,-20 5,-8 3,-12 -3,12 3,-10 -5,-7 -8,-3 -10,5 z"
   id="path72"
   inkscape:connector-curvature="0"
   style="fill:#000000;stroke:none" />
         <path
   d="m 10231,15537 -10,-8 8,11 18,30 25,46 31,53 33,59 30,58 31,56 17,46 26,-10 -23,-46 -31,-56 -30,-59 -33,-58 -31,-53 -25,-46 -18,-31 -7,-10 -11,-7 11,7 -6,-5 h -7 l -8,8 v 7 z"
   id="path74"
   inkscape:connector-curvature="0"
   style="fill:#000000;stroke:none" />
         <path
   d="m 9972,15547 -10,18 h 8 l 22,-5 34,-3 40,-7 43,-5 46,-3 41,-5 h 35 v -25 h -35 l -41,5 -46,2 -43,5 -40,8 -34,2 -22,6 h -8 l -10,17 10,-17 -8,5 -2,7 2,8 8,5 z"
   id="path76"
   inkscape:connector-curvature="0"
   style="fill:#000000;stroke:none" />
         <path
   d="m 10193,16180 5,-13 -7,-23 -18,-58 -31,-86 -33,-102 -38,-107 -35,-99 -33,-89 -31,-56 -20,10 25,56 33,84 36,99 38,107 33,102 30,86 18,59 8,22 5,-12 -5,12 5,8 h 10 l 8,-2 2,-11 z"
   id="path78"
   inkscape:connector-curvature="0"
   style="fill:#000000;stroke:none" />
         <path
   d="m 9909,16650 12,13 8,-25 18,-49 28,-68 35,-74 43,-79 46,-74 48,-66 46,-48 -15,-20 -51,53 -48,66 -46,79 -43,79 -36,73 -33,69 -17,53 -8,31 13,13 -13,-13 5,8 8,2 7,-2 5,-8 z"
   id="path80"
   inkscape:connector-curvature="0"
   style="fill:#000000;stroke:none" />
         <path
   d="m 10048,16660 13,-10 h -152 v 26 h 152 l 13,-10 -13,10 8,-5 5,-8 -5,-8 -8,-5 z"
   id="path82"
   inkscape:connector-curvature="0"
   style="fill:#000000;stroke:none" />
         <path
   d="m 11334,14236 33,-46 18,-46 3,-46 v -43 -46 l 10,-43 25,-40 46,-44 28,-22 31,-28 30,-33 28,-36 25,-31 21,-30 12,-20 8,-13 23,20 13,21 7,20 -2,23 15,-18 25,-31 33,-40 44,-51 45,-53 51,-61 51,-64 53,-63 54,-64 51,-61 48,-58 41,-49 35,-43 28,-33 18,-20 5,-8 -552,735 26,-6 23,-2 h 23 l 20,2 18,6 15,10 8,15 5,20 v 33 l -5,16 -11,5 -15,5 18,33 3,46 -8,40 -18,23 15,26 8,27 -5,28 -25,18 -28,5 -13,-2 5,-5 20,2 13,8 5,13 v 17 l -5,18 -13,20 -20,18 -25,16 -34,10 -7,17 -10,16 -13,15 -15,15 -18,13 -18,10 -20,8 -21,5 -15,5 -15,8 -15,10 -13,10 -13,10 -10,8 -5,5 -2,2 z"
   id="path84"
   inkscape:connector-curvature="0"
   style="fill:#000000;stroke:none" />
         <path
   d="m 11594,14457 -188,152 -201,-310 84,-101 z"
   id="path86"
   inkscape:connector-curvature="0"
   style="fill:#ffffff;stroke:none" />
         <path
   d="m 11395,14614 18,5 188,-152 -15,-20 -188,152 18,5 -18,-5 -5,8 2,10 8,5 10,-3 z"
   id="path88"
   inkscape:connector-curvature="0"
   style="fill:#000000;stroke:none" />
         <path
   d="m 11195,14292 v 12 l 200,310 21,-10 -201,-310 v 13 -13 l -5,-5 h -8 l -7,8 v 7 z"
   id="path90"
   inkscape:connector-curvature="0"
   style="fill:#000000;stroke:none" />
         <path
   d="m 11296,14187 -18,3 -83,102 20,15 84,-102 -18,3 18,-3 2,-10 -5,-8 -7,-2 -11,5 z"
   id="path92"
   inkscape:connector-curvature="0"
   style="fill:#000000;stroke:none" />
         <path
   d="m 11601,14467 v -20 l -305,-260 -15,21 305,259 v -20 20 l 10,3 8,-6 2,-10 -5,-7 z"
   id="path94"
   inkscape:connector-curvature="0"
   style="fill:#000000;stroke:none" />
         <path
   d="m 11563,15199 -81,89 152,313 127,-61 -12,-33 -23,-44 -26,-51 -30,-50 -31,-54 -30,-45 -26,-39 z"
   id="path96"
   inkscape:connector-curvature="0"
   style="fill:#ffffff;stroke:none" />
         <path
   d="m 11492,15283 v 13 l 81,-89 -20,-16 -81,89 v 13 -13 l -3,10 5,8 10,3 8,-5 z"
   id="path98"
   inkscape:connector-curvature="0"
   style="fill:#000000;stroke:none" />
         <path
   d="m 11629,15590 15,5 -152,-312 -20,10 152,313 15,5 -15,-5 5,5 h 10 l 5,-8 v -8 z"
   id="path100"
   inkscape:connector-curvature="0"
   style="fill:#000000;stroke:none" />
         <path
   d="m 11749,15542 7,-13 -127,61 10,21 127,-61 8,-13 -8,13 6,-5 v -11 l -8,-5 h -8 z"
   id="path102"
   inkscape:connector-curvature="0"
   style="fill:#000000;stroke:none" />
         <path
   d="m 11573,15207 h -17 l 17,25 26,38 30,43 31,54 30,51 26,50 22,44 11,30 25,-5 -15,-36 -23,-43 -25,-51 -31,-50 -30,-54 -31,-48 -25,-38 -23,-26 h -18 18 l -8,-2 -7,2 -3,8 3,8 z"
   id="path104"
   inkscape:connector-curvature="0"
   style="fill:#000000;stroke:none" />
         <path
   d="m 12168,15008 38,-15 20,13 v 20 l -12,23 -21,15 -22,18 -26,13 -28,15 -30,15 -31,13 -35,18 -36,15 25,-5 39,-8 43,-10 46,-7 43,-11 35,-5 23,-5 10,-2 8,15 v 15 l -13,18 -25,18 -38,18 -51,15 -64,15 -81,10 h 33 38 l 43,3 41,5 36,2 30,5 20,3 h 8 l -5,25 -10,16 -15,7 -23,3 h -31 l -40,2 -54,5 -63,11 20,2 23,3 23,5 25,7 23,5 25,8 23,5 23,5 -13,23 -12,13 -15,7 h -18 l -21,-2 -30,-8 -36,-10 -48,-10 -33,15 -31,13 -33,8 -33,7 -33,5 h -35 -36 -35 l -117,-183 5,-20 5,-23 7,-23 11,-23 17,-20 23,-23 31,-23 40,-20 44,-20 40,-21 33,-20 31,-18 25,-18 21,-17 12,-13 5,-8 16,33 -3,36 -15,33 -33,25 -31,16 -7,10 5,7 10,8 h 13 l 25,-5 33,-10 41,-13 43,-15 46,-18 40,-18 z"
   id="path106"
   inkscape:connector-curvature="0"
   style="fill:#000000;stroke:none" />
         <path
   d="m 10061,16663 8,-20 10,-21 15,-25 20,-23 21,-25 25,-28 31,-26 30,-25 33,-26 38,-22 38,-21 41,-20 41,-18 43,-13 43,-10 46,-7 v -31 l -8,-43 -12,-51 -16,-56 -15,-56 -15,-53 -13,-46 -10,-33 h -81 l 15,-28 18,-25 15,-21 5,-7 -20,-46 -31,-56 -30,-58 -33,-59 -31,-53 -25,-46 -18,-31 -8,-10 h -35 l -41,5 -46,3 -43,5 -40,8 -34,2 -22,5 h -8 l 28,56 33,87 36,99 38,106 33,102 30,87 18,58 8,23 -49,51 -48,66 -46,76 -43,79 -35,74 -31,68 -18,51 -7,28 h -21 -35 -46 -53 -64 -66 -71 -71 -72 -66 -63 -56 -48 -36 -23 -7 v -31 l 5,-40 5,-46 10,-51 13,-51 15,-50 23,-51 28,-46 -8,-41 -13,-61 -12,-71 -13,-79 -15,-78 -18,-72 -18,-61 -20,-40 -31,-33 -51,-38 -61,-46 -66,-56 -63,-66 -54,-79 -38,-91 -12,-110 7,-101 21,-69 28,-48 33,-28 35,-13 33,-8 31,-2 17,-8 -15,-20 -15,-15 -10,-13 -5,-5 5,-5 10,-10 15,-16 21,-17 22,-21 23,-18 26,-17 20,-13 41,-10 40,-5 41,-3 43,3 43,2 41,8 43,10 44,10 40,15 41,16 41,15 38,18 35,17 36,18 30,21 31,17 h 2 l 11,3 h 17 l 21,2 23,3 h 25 l 25,3 h 28 l 36,2 46,5 56,8 61,5 58,5 56,5 46,5 h 35 l 21,-2 10,-8 2,-10 v -13 -10 l 8,-10 18,-8 33,-2 25,-8 38,-20 46,-31 56,-41 61,-50 69,-54 68,-61 71,-61 74,-63 71,-61 69,-59 63,-53 59,-48 48,-41 43,-31 31,-17 23,35 33,49 38,58 41,61 40,56 38,51 28,33 21,15 -26,25 -40,44 -54,53 -63,61 -74,71 -79,76 -84,79 -86,79 -87,79 -86,74 -81,68 -77,59 -66,50 -58,36 -46,20 -30,3 35,8 51,5 61,2 h 66 64 l 56,3 40,2 26,5 10,-7 20,-10 31,-16 40,-15 46,-20 51,-23 53,-23 59,-23 56,-23 56,-25 53,-23 48,-20 43,-21 36,-18 28,-15 15,-13 23,31 31,41 33,50 33,59 33,61 25,63 20,61 8,56 -28,18 -35,18 -39,20 -43,21 -46,23 -48,22 -48,21 -48,23 -51,20 -46,23 -46,18 -40,20 -36,18 -30,15 -26,13 -18,12 -35,18 -51,10 -59,5 -63,3 -61,-3 -56,-2 -46,-5 -30,-8 23,38 23,49 22,50 23,56 18,51 13,48 10,39 2,28 -27,15 -31,20 -30,20 -28,21 -23,18 -21,15 -12,10 -5,5 30,74 20,66 8,48 3,18 z"
   id="path108"
   inkscape:connector-curvature="0"
   style="fill:#000000;stroke:none" />
         <path
   d="m 9693,14327 15,-10 10,-25 3,-33 -3,-41 -13,-38 -15,-28 -18,-21 -18,-5 -15,11 -10,25 -5,33 5,41 10,38 15,30 18,18 z"
   id="path110"
   inkscape:connector-curvature="0"
   style="fill:#ffffff;stroke:none" />
         <path
   d="m 9672,14241 8,-5 5,-8 -5,-8 -8,-5 z"
   id="path112"
   inkscape:connector-curvature="0"
   style="fill:#ffffff;stroke:none" />
         <path
   d="m 9532,14724 41,-36 18,-61 v -76 l -5,-84 -3,-84 13,-74 25,-45 51,-23 v -26 l -66,28 -35,61 -13,79 2,84 5,84 v 76 l -12,51 -26,20 z"
   id="path114"
   inkscape:connector-curvature="0"
   style="fill:#ffffff;stroke:none" />
         <path
   d="m 9527,14698 -7,5 v 11 l 2,7 10,3 z"
   id="path116"
   inkscape:connector-curvature="0"
   style="fill:#ffffff;stroke:none" />
        </g>
       </g>
      </g>
     </g>
    </g>
   </g>
  </g>
 </g>
</svg>