<?xml version="1.0" encoding="UTF-8" standalone="no"?>
<svg
   xmlns:ooo="http://xml.openoffice.org/svg/export"
   xmlns:dc="http://purl.org/dc/elements/1.1/"
   xmlns:cc="http://creativecommons.org/ns#"
   xmlns:rdf="http://www.w3.org/1999/02/22-rdf-syntax-ns#"
   xmlns:svg="http://www.w3.org/2000/svg"
   xmlns="http://www.w3.org/2000/svg"
   xmlns:sodipodi="http://sodipodi.sourceforge.net/DTD/sodipodi-0.dtd"
   xmlns:inkscape="http://www.inkscape.org/namespaces/inkscape"
   version="1.2"
   width="26.82mm"
   height="39.57mm"
   viewBox="0 0 2682 3957"
   preserveAspectRatio="xMidYMid"
   xml:space="preserve"
   id="svg265"
   sodipodi:docname="condctr1.svg"
   style="fill-rule:evenodd;stroke-width:28.22200012;stroke-linejoin:round"
   inkscape:version="0.92.5 (2060ec1f9f, 2020-04-08)"><metadata
   id="metadata269"><rdf:RDF><cc:Work
       rdf:about=""><dc:format>image/svg+xml</dc:format><dc:type
         rdf:resource="http://purl.org/dc/dcmitype/StillImage" /></cc:Work></rdf:RDF></metadata><sodipodi:namedview
   pagecolor="#ffffff"
   bordercolor="#666666"
   borderopacity="1"
   objecttolerance="10"
   gridtolerance="10"
   guidetolerance="10"
   inkscape:pageopacity="0"
   inkscape:pageshadow="2"
   inkscape:window-width="664"
   inkscape:window-height="487"
   id="namedview267"
   showgrid="false"
   inkscape:zoom="0.2102413"
   inkscape:cx="50.683465"
   inkscape:cy="74.759053"
   inkscape:window-x="0"
   inkscape:window-y="0"
   inkscape:window-maximized="0"
   inkscape:current-layer="svg265" />
 <defs
   class="ClipPathGroup"
   id="defs8">
  <clipPath
   id="presentation_clip_path"
   clipPathUnits="userSpaceOnUse">
   <rect
   x="0"
   y="0"
   width="21000"
   height="29700"
   id="rect2" />
  </clipPath>
  <clipPath
   id="presentation_clip_path_shrink"
   clipPathUnits="userSpaceOnUse">
   <rect
   x="21"
   y="29"
   width="20958"
   height="29641"
   id="rect5" />
  </clipPath>
 </defs>
 <defs
   class="TextShapeIndex"
   id="defs12">
  <g
   ooo:slide="id1"
   ooo:id-list="id3"
   id="g10" />
 </defs>
 <defs
   class="EmbeddedBulletChars"
   id="defs44">
  <g
   id="bullet-char-template-57356"
   transform="matrix(4.8828125e-4,0,0,-4.8828125e-4,0,0)">
   <path
   d="M 580,1141 1163,571 580,0 -4,571 Z"
   id="path14"
   inkscape:connector-curvature="0" />
  </g>
  <g
   id="bullet-char-template-57354"
   transform="matrix(4.8828125e-4,0,0,-4.8828125e-4,0,0)">
   <path
   d="M 8,1128 H 1137 V 0 H 8 Z"
   id="path17"
   inkscape:connector-curvature="0" />
  </g>
  <g
   id="bullet-char-template-10146"
   transform="matrix(4.8828125e-4,0,0,-4.8828125e-4,0,0)">
   <path
   d="M 174,0 602,739 174,1481 1456,739 Z M 1358,739 309,1346 659,739 Z"
   id="path20"
   inkscape:connector-curvature="0" />
  </g>
  <g
   id="bullet-char-template-10132"
   transform="matrix(4.8828125e-4,0,0,-4.8828125e-4,0,0)">
   <path
   d="M 2015,739 1276,0 H 717 l 543,543 H 174 v 393 h 1086 l -543,545 h 557 z"
   id="path23"
   inkscape:connector-curvature="0" />
  </g>
  <g
   id="bullet-char-template-10007"
   transform="matrix(4.8828125e-4,0,0,-4.8828125e-4,0,0)">
   <path
   d="m 0,-2 c -7,16 -16,29 -25,39 l 381,530 c -94,256 -141,385 -141,387 0,25 13,38 40,38 9,0 21,-2 34,-5 21,4 42,12 65,25 l 27,-13 111,-251 280,301 64,-25 24,25 c 21,-10 41,-24 62,-43 C 886,937 835,863 770,784 769,783 710,716 594,584 L 774,223 c 0,-27 -21,-55 -63,-84 l 16,-20 C 717,90 699,76 672,76 641,76 570,178 457,381 L 164,-76 c -22,-34 -53,-51 -92,-51 -42,0 -63,17 -64,51 -7,9 -10,24 -10,44 0,9 1,19 2,30 z"
   id="path26"
   inkscape:connector-curvature="0" />
  </g>
  <g
   id="bullet-char-template-10004"
   transform="matrix(4.8828125e-4,0,0,-4.8828125e-4,0,0)">
   <path
   d="M 285,-33 C 182,-33 111,30 74,156 52,228 41,333 41,471 c 0,78 14,145 41,201 34,71 87,106 158,106 53,0 88,-31 106,-94 l 23,-176 c 8,-64 28,-97 59,-98 l 735,706 c 11,11 33,17 66,17 42,0 63,-15 63,-46 V 965 c 0,-36 -10,-64 -30,-84 L 442,47 C 390,-6 338,-33 285,-33 Z"
   id="path29"
   inkscape:connector-curvature="0" />
  </g>
  <g
   id="bullet-char-template-9679"
   transform="matrix(4.8828125e-4,0,0,-4.8828125e-4,0,0)">
   <path
   d="M 813,0 C 632,0 489,54 383,161 276,268 223,411 223,592 c 0,181 53,324 160,431 106,107 249,161 430,161 179,0 323,-54 432,-161 108,-107 162,-251 162,-431 0,-180 -54,-324 -162,-431 C 1136,54 992,0 813,0 Z"
   id="path32"
   inkscape:connector-curvature="0" />
  </g>
  <g
   id="bullet-char-template-8226"
   transform="matrix(4.8828125e-4,0,0,-4.8828125e-4,0,0)">
   <path
   d="m 346,457 c -73,0 -137,26 -191,78 -54,51 -81,114 -81,188 0,73 27,136 81,188 54,52 118,78 191,78 73,0 134,-26 185,-79 51,-51 77,-114 77,-187 0,-75 -25,-137 -76,-188 -50,-52 -112,-78 -186,-78 z"
   id="path35"
   inkscape:connector-curvature="0" />
  </g>
  <g
   id="bullet-char-template-8211"
   transform="matrix(4.8828125e-4,0,0,-4.8828125e-4,0,0)">
   <path
   d="M -4,459 H 1135 V 606 H -4 Z"
   id="path38"
   inkscape:connector-curvature="0" />
  </g>
  <g
   id="bullet-char-template-61548"
   transform="matrix(4.8828125e-4,0,0,-4.8828125e-4,0,0)">
   <path
   d="m 173,740 c 0,163 58,303 173,419 116,115 255,173 419,173 163,0 302,-58 418,-173 116,-116 174,-256 174,-419 0,-163 -58,-303 -174,-418 C 1067,206 928,148 765,148 601,148 462,206 346,322 231,437 173,577 173,740 Z"
   id="path41"
   inkscape:connector-curvature="0" />
  </g>
 </defs>
 <g
   id="g49"
   transform="translate(-9159,-12871)">
  <g
   id="id2"
   class="Master_Slide">
   <g
   id="bg-id2"
   class="Background" />
   <g
   id="bo-id2"
   class="BackgroundObjects" />
  </g>
 </g>
 <g
   class="SlideGroup"
   id="g263"
   transform="translate(-9159,-12871)">
  <g
   id="g261">
   <g
   id="container-id1">
    <g
   id="id1"
   class="Slide"
   clip-path="url(#presentation_clip_path)">
     <g
   class="Page"
   id="g257">
      <g
   class="Graphic"
   id="g255">
       <g
   id="id3">
        <rect
   class="BoundingBox"
   x="9159"
   y="12871"
   width="2682"
   height="3957"
   id="rect51"
   style="fill:none;stroke:none" />
        <defs
   id="defs56">
         <clipPath
   id="clip_path_1"
   clipPathUnits="userSpaceOnUse">
          <path
   d="m 9159,12871 h 2681 v 3956 H 9159 Z"
   id="path53"
   inkscape:connector-curvature="0" />
         </clipPath>
        </defs>
        <g
   clip-path="url(#clip_path_1)"
   id="g252">
         <path
   d="m 10397,14411 -1238,-1540 1213,1385 v 31 l 5,40 7,43 z"
   id="path58"
   inkscape:connector-curvature="0"
   style="fill:#000000;stroke:none" />
         <path
   d="m 10743,16322 28,-18 33,-17 38,-21 38,-20 46,-23 46,-20 50,-23 51,-18 56,-18 59,-15 61,-10 61,-8 66,-2 66,2 69,8 68,15 13,-28 18,-30 20,-28 15,-23 -15,-18 -18,-23 -20,-23 -23,-25 -23,-25 -20,-26 -18,-20 -13,-15 16,-39 17,-38 18,-40 18,-38 15,-39 13,-30 10,-28 5,-20 8,-46 7,-64 11,-63 10,-46 12,-33 13,-38 10,-41 8,-35 v -54 l -3,-86 v -92 l 11,-81 17,-76 11,-51 v -36 l -3,-35 v -84 l 10,-92 10,-86 8,-74 v -35 l -5,-23 -13,-10 -25,-5 -18,-3 h -18 -18 l -20,3 -18,7 -18,8 -15,13 -13,17 -10,23 -5,26 -5,25 v 18 l -5,15 -5,20 -10,21 -8,15 -13,28 -17,53 -16,64 -7,56 -15,-43 -21,-33 -25,-26 -28,-20 -31,-18 -30,-13 -28,-15 -26,-13 -20,-15 -18,-15 -18,-15 -15,-16 -15,-15 -13,-13 -15,-10 -15,-7 -18,-5 -15,-3 -18,-3 -15,-2 -11,-10 -10,-8 -10,-7 -13,-8 -7,-3 -10,-5 -11,-5 -10,-7 -12,-8 -16,-8 -15,-5 -15,-7 -21,-5 h -22 -26 l -25,5 -21,7 -17,13 -11,15 -2,21 8,20 7,20 13,15 13,16 15,12 15,13 15,10 16,10 -3,39 5,38 10,43 13,41 -5,-11 -10,-17 -10,-18 -11,-23 -12,-23 -10,-23 -11,-20 -7,-15 -13,-31 -15,-33 -13,-33 -10,-30 -18,-31 -23,-28 -28,-23 -25,-20 -31,-15 -25,-13 -25,-8 -23,-5 -18,-28 -26,-23 -25,-17 -28,-16 -30,-10 -26,-7 h -20 l -16,5 -12,17 -8,31 -2,33 v 38 31 l 5,40 7,43 13,41 -15,10 -18,13 -13,18 -12,18 -11,20 -5,23 -2,20 2,18 16,20 12,26 16,28 15,28 10,30 10,25 5,26 3,18 -3,30 -5,28 -2,31 -6,28 -7,53 -13,86 -7,99 v 84 l 10,61 23,82 28,91 33,99 33,94 28,89 25,71 15,49 13,78 3,61 v 54 l 20,51 -3,23 v 27 l 3,26 5,25 13,23 20,21 28,17 38,10 z"
   id="path60"
   inkscape:connector-curvature="0"
   style="fill:#000000;stroke:none" />
         <path
   d="m 11007,15067 10,5 23,10 21,15 10,16 -5,22 -8,49 -13,68 -15,79 -15,81 -15,72 -13,55 -8,31 5,-109 13,-155 8,-148 z"
   id="path62"
   inkscape:connector-curvature="0"
   style="fill:#ffffff;stroke:none" />
         <path
   d="m 11081,15113 h 2 l -15,-23 -23,-18 -23,-10 -10,-5 -10,20 10,5 23,10 18,13 5,8 h 3 z"
   id="path64"
   inkscape:connector-curvature="0"
   style="fill:#000000;stroke:none" />
         <path
   d="m 10969,15570 20,3 8,-31 13,-56 15,-74 15,-81 15,-79 13,-68 8,-49 5,-22 h -20 l -6,22 -7,49 -13,68 -15,79 -15,81 -16,69 -12,56 -8,30 20,3 h -23 v 76 l 23,-73 z"
   id="path66"
   inkscape:connector-curvature="0"
   style="fill:#000000;stroke:none" />
         <path
   d="m 11012,15057 -15,10 -3,91 -7,148 -13,155 -5,109 h 20 l 5,-109 13,-155 8,-148 2,-91 -15,10 10,-20 -18,-8 3,18 z"
   id="path68"
   inkscape:connector-curvature="0"
   style="fill:#000000;stroke:none" />
         <path
   d="m 11302,15115 h 8 l 20,3 18,2 7,8 -2,18 -8,40 -12,51 -13,59 -15,58 -13,48 -13,36 -7,13 h -13 -13 -13 l -2,-6 2,-15 11,-35 10,-51 15,-56 13,-59 10,-50 8,-41 z"
   id="path70"
   inkscape:connector-curvature="0"
   style="fill:#ffffff;stroke:none" />
         <path
   d="m 11368,15128 v 0 l -18,-18 -20,-3 -20,-2 -8,-3 v 26 l 8,-3 20,3 15,2 -2,-2 v 0 z"
   id="path72"
   inkscape:connector-curvature="0"
   style="fill:#000000;stroke:none" />
         <path
   d="m 11272,15463 v -2 l 17,-21 13,-35 13,-48 15,-59 13,-58 12,-51 8,-43 5,-18 h -25 v 18 l -8,38 -13,51 -12,58 -16,58 -12,49 -13,35 3,5 v -2 z"
   id="path74"
   inkscape:connector-curvature="0"
   style="fill:#000000;stroke:none" />
         <path
   d="m 11218,15445 3,-2 10,18 15,2 h 13 13 v -25 h -13 -13 l -10,2 5,8 3,-3 z"
   id="path76"
   inkscape:connector-curvature="0"
   style="fill:#000000;stroke:none" />
         <path
   d="m 11302,15102 -10,13 -3,23 -7,41 -10,48 -13,58 -15,56 -11,51 -10,36 -5,17 h 26 v -12 l 10,-36 10,-51 15,-56 13,-58 10,-53 8,-41 2,-23 -10,13 v -26 l -13,3 3,10 z"
   id="path78"
   inkscape:connector-curvature="0"
   style="fill:#000000;stroke:none" />
         <path
   d="m 11508,14891 20,16 13,23 10,28 8,30 7,31 6,30 10,28 15,23 -28,-15 -20,-23 -16,-31 -10,-33 -5,-33 -5,-30 -2,-26 z"
   id="path80"
   inkscape:connector-curvature="0"
   style="fill:#ffffff;stroke:none" />
         <path
   d="m 11594,15110 11,-18 -13,-20 -10,-26 -5,-30 -8,-31 -8,-30 -10,-31 -15,-25 -23,-18 -10,21 18,12 10,21 10,25 8,31 7,30 5,31 11,30 17,25 10,-17 -5,20 41,13 -30,-31 z"
   id="path82"
   inkscape:connector-curvature="0"
   style="fill:#000000;stroke:none" />
         <path
   d="m 11513,14881 -15,13 2,15 3,26 5,30 5,36 10,33 15,33 23,25 33,18 5,-20 -22,-13 -18,-20 -15,-28 -11,-33 -5,-31 -5,-30 -2,-26 -3,-20 -15,13 10,-21 -23,-10 8,23 z"
   id="path84"
   inkscape:connector-curvature="0"
   style="fill:#000000;stroke:none" />
         <path
   d="m 10397,14411 -15,10 -18,13 -13,18 -12,18 -11,20 -5,23 -2,20 2,18 16,20 12,26 16,28 15,28 10,30 10,25 5,26 3,18 -3,-56 -7,-59 -11,-51 -15,-38 3,-12 5,-13 7,-13 11,-12 10,-11 15,-10 18,-10 20,-5 -7,-18 -11,-20 -17,-13 z"
   id="path86"
   inkscape:connector-curvature="0"
   style="fill:#ffffff;stroke:none" />
         <path
   d="m 10331,14543 2,5 v -15 -20 l 6,-21 10,-17 12,-18 11,-15 15,-11 15,-10 -10,-20 -15,10 -21,15 -15,21 -13,17 -10,23 -5,26 -5,20 5,20 3,6 -3,-6 v 3 l 3,3 z"
   id="path88"
   inkscape:connector-curvature="0"
   style="fill:#000000;stroke:none" />
         <path
   d="m 10400,14752 h 20 l -3,-18 -5,-28 -10,-26 -10,-30 -15,-30 -16,-28 -12,-26 -18,-23 -15,16 12,17 13,26 15,28 16,25 10,31 10,25 5,23 3,18 h 20 z"
   id="path90"
   inkscape:connector-curvature="0"
   style="fill:#000000;stroke:none" />
         <path
   d="m 10364,14546 v 7 l 15,36 10,48 8,59 3,56 h 20 l -3,-56 -7,-59 -10,-53 -16,-41 v 8 l -20,-5 -3,2 3,5 z"
   id="path92"
   inkscape:connector-curvature="0"
   style="fill:#000000;stroke:none" />
         <path
   d="m 10453,14464 8,-12 -21,5 -20,10 -18,13 -10,10 -13,15 -7,13 -5,15 -3,13 20,5 3,-13 5,-10 8,-13 7,-10 10,-10 13,-8 15,-10 21,-5 7,-13 -7,13 12,-2 -5,-11 z"
   id="path94"
   inkscape:connector-curvature="0"
   style="fill:#000000;stroke:none" />
         <path
   d="m 10402,14421 h -2 25 l 13,10 7,18 8,15 20,-5 -7,-20 -13,-23 -23,-15 h -36 -2 2 v 0 h -2 z"
   id="path96"
   inkscape:connector-curvature="0"
   style="fill:#000000;stroke:none" />
         <path
   d="m 10702,16243 -38,-10 -28,-17 -20,-21 -13,-23 -5,-25 -3,-26 v -27 l 3,-23 -20,-51 v -54 l -3,-61 -13,-78 -15,-49 -25,-71 -28,-89 -33,-94 -33,-99 -28,-91 -23,-82 -10,-61 v -84 l 7,-99 13,-86 7,-53 11,-21 12,-15 18,-10 21,-5 h 17 l 21,2 17,10 8,21 3,30 5,31 7,25 10,15 13,11 18,12 20,13 23,13 -12,-33 -13,-31 -8,-28 -2,-18 2,-17 5,-26 8,-25 8,-23 -11,-48 -15,-59 -18,-66 -20,-63 -18,-64 -15,-51 -15,-40 -8,-21 -114,-132 v -38 l 2,-33 8,-31 12,-17 16,-5 h 20 l 26,7 30,10 28,16 25,17 26,23 18,28 23,5 25,8 25,13 31,15 25,20 28,23 23,28 18,31 10,30 13,33 15,33 13,31 7,15 11,20 10,23 12,23 11,23 10,18 10,17 5,11 -13,-41 -10,-43 -5,-38 3,-39 -16,-10 -15,-10 -15,-13 -15,-12 -13,-16 -13,-15 -7,-20 -8,-20 2,-21 11,-15 17,-13 21,-7 25,-5 h 26 22 l 21,5 15,7 15,5 16,8 12,8 10,7 11,5 10,5 7,3 13,8 10,7 10,8 11,10 15,2 18,3 15,3 18,5 15,7 15,10 13,13 15,15 15,16 18,15 18,15 20,15 26,13 28,15 30,13 31,18 28,20 25,26 21,33 15,43 7,-56 16,-64 17,-53 13,-28 8,-15 10,-21 5,-20 5,-15 v -18 l 5,-25 5,-26 10,-23 13,-17 15,-13 18,-8 18,-7 20,-3 h 18 18 l 18,3 -10,2 -11,5 -10,5 -10,11 -10,10 -10,7 -10,10 -8,8 -10,20 -5,31 -5,33 -6,36 -5,40 -5,51 -7,48 -8,38 -15,33 -18,44 -18,51 -7,55 -23,3 -5,-38 -8,-38 -13,-33 -15,-28 -10,-16 -18,-15 -20,-18 -26,-15 -28,-10 h -33 l -35,13 -38,25 17,26 18,28 15,33 16,35 12,41 8,43 5,48 -2,51 -33,-5 -8,-66 -13,-66 -23,-64 -23,-53 -22,-48 -21,-46 -15,-36 -15,-28 -10,-10 -13,-7 -18,-5 -15,-3 h -21 l -17,5 -16,5 -12,10 5,26 2,28 3,25 -3,23 v 20 l 3,23 7,26 11,20 12,18 18,23 20,25 21,23 -15,-3 h -16 l -15,-2 -13,-3 h -12 l -11,-2 -7,2 -3,3 -2,20 -3,36 -5,40 -5,36 -10,-31 -10,-27 -13,-31 -10,-25 -13,-23 -8,-18 -10,-13 -5,-7 -7,-3 -11,-5 -15,-5 -15,-5 -15,-3 -16,-2 -15,-3 -10,3 -13,5 -20,7 -23,11 -28,15 -33,20 -30,26 -33,30 -34,38 8,3 h 10 l 10,2 13,3 10,2 h 13 l 10,3 h 13 l -8,13 -12,20 -13,23 -13,25 -13,26 -7,23 -8,20 v 15 l 10,53 18,95 13,106 -3,89 -23,150 -5,112 v 71 l -5,28 -15,5 -10,10 -8,26 3,53 7,20 13,8 13,8 7,12 3,21 v 20 l -3,15 -12,8 -16,10 -10,31 -2,50 7,74 18,15 18,21 20,20 z"
   id="path98"
   inkscape:connector-curvature="0"
   style="fill:#ffffff;stroke:none" />
         <path
   d="m 10588,16076 v -5 l -5,23 v 27 l 5,26 5,28 15,28 20,20 33,20 41,11 v -21 l -35,-10 -23,-15 -21,-20 -10,-18 -5,-23 v -26 -27 -23 -5 5 l 3,-3 -3,-2 z"
   id="path100"
   inkscape:connector-curvature="0"
   style="fill:#000000;stroke:none" />
         <path
   d="m 10552,15829 v 0 l 13,76 v 61 l 2,54 21,56 20,-10 -20,-46 2,-54 -5,-61 -13,-81 v 0 z"
   id="path102"
   inkscape:connector-curvature="0"
   style="fill:#000000;stroke:none" />
         <path
   d="m 10356,15191 v 0 l 11,64 22,81 28,92 33,99 33,94 28,89 26,71 15,48 20,-5 -15,-48 -25,-71 -28,-89 -33,-94 -33,-99 -28,-92 -23,-81 -10,-59 v 0 z"
   id="path104"
   inkscape:connector-curvature="0"
   style="fill:#000000;stroke:none" />
         <path
   d="m 10384,14866 v 3 l -7,53 -13,86 -8,99 v 84 h 21 v -84 l 7,-99 13,-86 8,-53 v 2 z"
   id="path106"
   inkscape:connector-curvature="0"
   style="fill:#000000;stroke:none" />
         <path
   d="m 10456,14805 v 3 l -23,5 -23,12 -16,18 -10,23 21,5 10,-18 10,-12 13,-8 18,-5 v 2 z"
   id="path108"
   inkscape:connector-curvature="0"
   style="fill:#000000;stroke:none" />
         <path
   d="m 10529,14851 v 0 l -10,-28 -23,-13 -23,-2 -17,-3 v 25 l 17,-2 18,2 13,8 5,13 v 0 z"
   id="path110"
   inkscape:connector-curvature="0"
   style="fill:#000000;stroke:none" />
         <path
   d="m 10550,14942 h -3 l -3,-7 -7,-26 -5,-28 -3,-30 h -20 l 2,30 6,33 7,26 18,23 h -3 z"
   id="path112"
   inkscape:connector-curvature="0"
   style="fill:#000000;stroke:none" />
         <path
   d="m 10608,15003 13,-12 -21,-13 -20,-13 -18,-10 -12,-13 -11,21 13,7 18,15 20,13 26,13 12,-13 -12,13 23,10 -11,-23 z"
   id="path114"
   inkscape:connector-curvature="0"
   style="fill:#000000;stroke:none" />
         <path
   d="m 10570,14891 h 2 l 3,21 8,28 12,30 13,33 20,-5 -12,-33 -13,-30 -8,-28 -2,-16 h 2 z"
   id="path116"
   inkscape:connector-curvature="0"
   style="fill:#000000;stroke:none" />
         <path
   d="m 10595,14800 v -3 l -7,23 -8,26 -5,28 -5,17 h 25 v -17 l 5,-23 8,-26 8,-23 v -2 2 l 2,-2 h -2 z"
   id="path118"
   inkscape:connector-curvature="0"
   style="fill:#000000;stroke:none" />
         <path
   d="m 10478,14396 -2,-3 7,18 16,41 15,51 18,63 20,64 18,66 15,58 10,46 h 21 l -10,-51 -16,-58 -18,-66 -20,-64 -18,-63 -15,-51 -15,-41 -8,-23 -2,-2 2,2 v 0 l -2,-2 z"
   id="path120"
   inkscape:connector-curvature="0"
   style="fill:#000000;stroke:none" />
         <path
   d="m 10361,14256 3,8 114,132 16,-15 -115,-133 3,8 h -23 l 2,3 3,5 z"
   id="path122"
   inkscape:connector-curvature="0"
   style="fill:#000000;stroke:none" />
         <path
   d="m 10389,14126 v 0 l -17,26 -8,33 -5,33 2,38 h 21 l 2,-38 v -33 l 8,-28 8,-10 v 0 z"
   id="path124"
   inkscape:connector-curvature="0"
   style="fill:#000000;stroke:none" />
         <path
   d="m 10583,14223 10,5 -21,-30 -25,-23 -28,-21 -30,-15 -31,-10 -28,-8 h -20 l -21,5 11,21 10,-5 h 20 l 23,7 30,11 26,15 23,15 25,23 15,25 11,5 -11,-5 3,5 h 8 z"
   id="path126"
   inkscape:connector-curvature="0"
   style="fill:#000000;stroke:none" />
         <path
   d="m 10791,14373 v -3 l -18,-30 -25,-31 -28,-22 -28,-23 -31,-16 -28,-12 -25,-8 -25,-5 v 20 l 20,5 25,8 23,13 31,15 23,18 28,23 20,25 18,31 v -3 z"
   id="path128"
   inkscape:connector-curvature="0"
   style="fill:#000000;stroke:none" />
         <path
   d="m 10842,14500 v -2 l -13,-31 -15,-30 -13,-34 -10,-30 -20,5 10,31 13,33 15,35 13,31 v -3 z"
   id="path130"
   inkscape:connector-curvature="0"
   style="fill:#000000;stroke:none" />
         <path
   d="m 10898,14655 20,-8 -5,-10 -10,-17 -10,-18 -10,-23 -13,-23 -10,-23 -10,-20 -8,-13 -20,5 7,18 10,20 11,23 12,23 10,23 11,18 10,17 5,11 20,-8 z"
   id="path132"
   inkscape:connector-curvature="0"
   style="fill:#000000;stroke:none" />
         <path
   d="m 10878,14503 -6,-11 -5,39 8,38 10,45 13,41 20,-5 -13,-41 -10,-40 -2,-38 v -39 l -5,-10 5,10 2,-5 -7,-5 z"
   id="path134"
   inkscape:connector-curvature="0"
   style="fill:#000000;stroke:none" />
         <path
   d="m 10771,14376 v 2 l 7,20 8,23 15,18 13,15 15,13 18,13 15,12 16,11 10,-21 -16,-10 -15,-8 -13,-12 -15,-13 -12,-15 -11,-13 -7,-18 -8,-20 v 3 z"
   id="path136"
   inkscape:connector-curvature="0"
   style="fill:#000000;stroke:none" />
         <path
   d="m 10928,14309 v 0 l -23,-5 -22,-2 -26,2 -28,5 -23,8 -20,15 -13,21 -2,23 h 20 l 3,-18 7,-10 16,-11 17,-7 23,-5 26,2 22,-2 18,5 v 0 z"
   id="path138"
   inkscape:connector-curvature="0"
   style="fill:#000000;stroke:none" />
         <path
   d="m 11025,14358 v 0 l -8,-3 -7,-5 -10,-5 -11,-8 -12,-7 -18,-8 -15,-5 -16,-8 -5,21 16,7 15,5 12,8 13,8 10,7 11,5 12,6 8,2 v 0 z"
   id="path140"
   inkscape:connector-curvature="0"
   style="fill:#000000;stroke:none" />
         <path
   d="m 11066,14391 7,2 -10,-10 -13,-7 -10,-11 -15,-7 -5,20 10,8 10,5 8,7 10,11 8,2 -8,-2 3,2 h 5 z"
   id="path142"
   inkscape:connector-curvature="0"
   style="fill:#000000;stroke:none" />
         <path
   d="m 11134,14403 v 0 l -18,-5 -17,-2 -18,-3 -15,-2 v 20 l 15,3 18,2 12,3 18,5 v 0 z"
   id="path144"
   inkscape:connector-curvature="0"
   style="fill:#000000;stroke:none" />
         <path
   d="m 11266,14510 v 0 l -17,-12 -18,-16 -18,-15 -15,-15 -15,-15 -13,-13 -18,-13 -18,-8 -5,21 13,7 13,8 12,13 16,15 15,15 18,16 17,15 23,18 v 0 z"
   id="path146"
   inkscape:connector-curvature="0"
   style="fill:#000000;stroke:none" />
         <path
   d="m 11455,14701 20,-3 -15,-45 -23,-36 -26,-25 -30,-23 -31,-18 -30,-13 -28,-15 -26,-13 -10,21 26,12 28,16 30,12 31,18 25,18 26,25 17,31 16,40 20,-2 -20,2 15,74 5,-76 z"
   id="path148"
   inkscape:connector-curvature="0"
   style="fill:#000000;stroke:none" />
         <path
   d="m 11508,14495 3,-3 -16,33 -18,54 -15,66 -7,56 h 20 l 8,-56 15,-61 18,-53 10,-23 2,-3 z"
   id="path150"
   inkscape:connector-curvature="0"
   style="fill:#000000;stroke:none" />
         <path
   d="m 11533,14429 h 3 l -5,13 -5,20 -10,18 -8,15 20,10 8,-15 10,-23 5,-20 5,-18 h 3 z"
   id="path152"
   inkscape:connector-curvature="0"
   style="fill:#000000;stroke:none" />
         <path
   d="m 11556,14332 v 0 l -10,26 -5,28 -5,25 -3,18 h 26 l -3,-18 5,-25 5,-23 11,-21 v 0 z"
   id="path154"
   inkscape:connector-curvature="0"
   style="fill:#000000;stroke:none" />
         <path
   d="m 11704,14304 v -23 l -18,-2 -18,-3 -18,3 -23,2 -17,8 -21,8 -17,15 -16,20 21,10 10,-15 12,-10 16,-8 18,-7 17,-3 18,3 18,-3 18,3 v -23 z"
   id="path156"
   inkscape:connector-curvature="0"
   style="fill:#000000;stroke:none" />
         <path
   d="m 11633,14358 v 0 l 7,-8 10,-10 11,-8 10,-10 7,-10 10,-3 8,-5 h 8 v -25 l -13,5 -13,5 -10,8 -13,10 -10,10 -10,8 -10,10 -8,7 v 0 z"
   id="path158"
   inkscape:connector-curvature="0"
   style="fill:#000000;stroke:none" />
         <path
   d="m 11610,14470 v 0 l 5,-36 5,-33 5,-28 8,-15 -16,-16 -12,26 -6,33 -5,33 -5,36 v 0 z"
   id="path160"
   inkscape:connector-curvature="0"
   style="fill:#000000;stroke:none" />
         <path
   d="m 11584,14650 v 0 l 8,-41 7,-48 6,-51 5,-40 h -21 l -5,40 -5,51 -7,48 -8,36 v 0 z"
   id="path162"
   inkscape:connector-curvature="0"
   style="fill:#000000;stroke:none" />
         <path
   d="m 11516,14841 10,-11 7,-53 18,-51 18,-43 15,-33 -20,-5 -15,33 -18,43 -18,51 -8,58 11,-10 v 21 h 10 l 2,-11 z"
   id="path164"
   inkscape:connector-curvature="0"
   style="fill:#000000;stroke:none" />
         <path
   d="m 11483,14833 10,10 23,-2 v -21 l -23,3 10,10 h -23 l 3,13 10,-3 z"
   id="path166"
   inkscape:connector-curvature="0"
   style="fill:#000000;stroke:none" />
         <path
   d="m 11444,14701 h -2 l 15,28 13,30 7,36 6,38 h 20 l -5,-38 -8,-41 -13,-35 -15,-28 h -2 z"
   id="path168"
   inkscape:connector-curvature="0"
   style="fill:#000000;stroke:none" />
         <path
   d="m 11254,14655 -3,13 36,-23 30,-13 h 33 l 23,10 26,16 17,15 18,15 10,13 16,-10 -10,-18 -18,-15 -23,-21 -26,-15 -33,-10 h -33 l -40,13 -41,28 -3,12 3,-12 -8,7 5,5 z"
   id="path170"
   inkscape:connector-curvature="0"
   style="fill:#000000;stroke:none" />
         <path
   d="m 11333,14975 10,-10 5,-51 -8,-48 -7,-46 -13,-40 -15,-39 -16,-33 -17,-28 -18,-25 -21,10 18,26 18,28 15,33 16,33 12,40 8,41 2,48 v 51 l 11,-10 v 20 l 10,3 v -13 z"
   id="path172"
   inkscape:connector-curvature="0"
   style="fill:#000000;stroke:none" />
         <path
   d="m 11289,14960 11,10 33,5 v -20 l -33,-5 10,10 h -23 l 2,10 h 11 z"
   id="path174"
   inkscape:connector-curvature="0"
   style="fill:#000000;stroke:none" />
         <path
   d="m 11223,14716 v 0 l 23,51 23,63 13,64 7,66 h 21 l -8,-66 -13,-69 -23,-63 -22,-56 v 0 z"
   id="path176"
   inkscape:connector-curvature="0"
   style="fill:#000000;stroke:none" />
         <path
   d="m 11150,14559 v 0 l 15,27 15,34 20,48 23,48 21,-10 -23,-48 -21,-44 -15,-38 -15,-28 v 0 z"
   id="path178"
   inkscape:connector-curvature="0"
   style="fill:#000000;stroke:none" />
         <path
   d="m 11048,14546 -3,10 10,-8 13,-5 15,-5 h 21 l 12,3 18,5 8,5 8,8 20,-11 -13,-12 -18,-11 -17,-5 -18,-2 h -21 l -20,5 -18,5 -15,13 -2,10 2,-10 -5,5 3,5 z"
   id="path180"
   inkscape:connector-curvature="0"
   style="fill:#000000;stroke:none" />
         <path
   d="m 11055,14650 v 0 l 6,-23 -6,-25 -2,-28 -5,-28 -20,5 5,23 2,28 v 25 23 0 z"
   id="path182"
   inkscape:connector-curvature="0"
   style="fill:#000000;stroke:none" />
         <path
   d="m 11076,14734 v 0 l -10,-18 -8,-25 v -21 l -3,-20 h -20 l -2,20 5,26 7,25 10,23 v 0 z"
   id="path184"
   inkscape:connector-curvature="0"
   style="fill:#000000;stroke:none" />
         <path
   d="m 11137,14838 7,-18 -20,-23 -20,-25 -18,-20 -10,-18 -21,10 16,18 18,25 20,26 20,23 8,-18 v 20 l 30,3 -23,-21 z"
   id="path186"
   inkscape:connector-curvature="0"
   style="fill:#000000;stroke:none" />
         <path
   d="m 11055,14825 3,-2 -5,7 h 2 11 12 l 13,3 15,3 h 16 l 15,2 v -20 l -15,-3 h -16 l -15,-2 -13,-3 h -12 l -11,-5 -12,5 -10,13 2,-3 z"
   id="path188"
   inkscape:connector-curvature="0"
   style="fill:#000000;stroke:none" />
         <path
   d="m 11020,14958 20,-3 5,-36 5,-40 3,-36 2,-18 -20,-5 -2,23 -3,36 -5,40 -5,36 20,-3 -20,6 13,43 7,-46 z"
   id="path190"
   inkscape:connector-curvature="0"
   style="fill:#000000;stroke:none" />
         <path
   d="m 10946,14790 v 0 l 3,2 7,13 8,18 13,23 10,23 13,30 10,28 10,31 20,-6 -10,-30 -10,-28 -13,-31 -10,-27 -13,-23 -7,-18 -13,-13 -8,-13 v 0 z"
   id="path192"
   inkscape:connector-curvature="0"
   style="fill:#000000;stroke:none" />
         <path
   d="m 10850,14767 v 0 h 7 15 l 16,2 12,3 16,5 15,5 10,5 5,3 10,-21 -10,-2 -10,-5 -15,-5 -16,-5 -17,-3 -16,-2 -15,-6 -13,6 v 0 z"
   id="path194"
   inkscape:connector-curvature="0"
   style="fill:#000000;stroke:none" />
         <path
   d="m 10636,14899 5,18 33,-38 33,-31 28,-23 33,-20 28,-15 21,-10 20,-8 13,-5 -6,-20 -12,5 -21,7 -25,10 -28,16 -33,20 -33,28 -33,30 -33,39 5,17 -5,-17 -13,12 18,5 z"
   id="path196"
   inkscape:connector-curvature="0"
   style="fill:#000000;stroke:none" />
         <path
   d="m 10730,14927 -10,-15 h -13 l -10,-3 h -13 l -7,-2 -13,-3 -13,-2 h -10 l -5,-3 -5,20 10,3 h 10 l 8,2 13,3 12,3 h 13 l 10,2 h 13 l -10,-15 20,10 13,-15 h -23 z"
   id="path198"
   inkscape:connector-curvature="0"
   style="fill:#000000;stroke:none" />
         <path
   d="m 10656,15087 v 0 -13 l 8,-20 8,-23 12,-23 13,-25 13,-23 12,-20 8,-13 -20,-10 -8,13 -13,20 -12,23 -13,25 -13,28 -7,23 -8,20 v 18 0 z"
   id="path200"
   inkscape:connector-curvature="0"
   style="fill:#000000;stroke:none" />
         <path
   d="m 10694,15433 v 0 l 3,-92 -13,-106 -17,-95 -11,-53 h -20 l 10,53 18,95 13,106 -3,87 v 0 z"
   id="path202"
   inkscape:connector-curvature="0"
   style="fill:#000000;stroke:none" />
         <path
   d="m 10654,15801 h 2 l 11,-38 2,-71 3,-112 22,-147 -20,-5 -23,152 -7,112 2,71 v 18 h 3 z"
   id="path204"
   inkscape:connector-curvature="0"
   style="fill:#000000;stroke:none" />
         <path
   d="m 10631,15885 v 0 l -3,-53 8,-21 5,-5 13,-5 -5,-20 -18,5 -15,15 -8,31 3,53 v 0 z"
   id="path206"
   inkscape:connector-curvature="0"
   style="fill:#000000;stroke:none" />
         <path
   d="m 10672,15933 v 0 l -11,-20 -15,-10 -7,-3 -8,-15 h -20 l 7,26 18,12 10,5 5,5 v 0 z"
   id="path208"
   inkscape:connector-curvature="0"
   style="fill:#000000;stroke:none" />
         <path
   d="m 10649,16010 v -3 l 23,-13 2,-20 v -20 l -2,-21 h -21 l 3,21 v 20 l -3,10 -2,3 v -3 z"
   id="path210"
   inkscape:connector-curvature="0"
   style="fill:#000000;stroke:none" />
         <path
   d="m 10636,16155 3,7 -8,-74 2,-50 11,-26 5,-2 v -26 l -26,18 -10,36 -2,50 7,74 3,8 -3,-8 v 5 l 3,3 z"
   id="path212"
   inkscape:connector-curvature="0"
   style="fill:#000000;stroke:none" />
         <path
   d="m 10702,16254 8,-18 -18,-26 -20,-20 -18,-20 -18,-15 -15,15 18,15 17,20 21,21 17,25 8,-18 v 21 l 28,7 -20,-25 z"
   id="path214"
   inkscape:connector-curvature="0"
   style="fill:#000000;stroke:none" />
         <path
   d="m 10743,16322 -5,3 -13,10 -20,15 -21,15 -5,6 -7,5 -8,5 -5,5 18,30 28,51 33,66 38,74 35,71 33,66 23,54 16,30 30,-13 31,-15 35,-15 38,-15 38,-16 41,-15 43,-18 46,-15 46,-15 46,-13 48,-13 51,-12 48,-8 51,-10 51,-5 51,-3 h 33 30 l 33,3 33,2 33,5 31,8 33,8 30,10 v -76 l 5,-115 3,-114 v -89 l -8,-8 -10,-7 -10,-8 -10,-5 -10,-8 -10,-7 -11,-5 -10,-8 -23,-13 -23,-12 -25,-11 -23,-10 -23,-10 -23,-8 -23,-7 -20,-8 -68,-15 -69,-8 -66,-2 -66,2 -61,8 -61,10 -59,15 -56,18 -51,18 -50,23 -46,20 -46,23 -38,20 -38,21 -33,17 z"
   id="path216"
   inkscape:connector-curvature="0"
   style="fill:#000000;stroke:none" />
         <path
   d="m 11762,16213 -23,-13 -23,-12 -25,-11 -23,-10 -23,-10 -23,-8 -23,-7 -20,-8 -68,-15 -69,-8 -66,-2 -66,2 -61,8 -61,10 -59,15 -56,18 -51,18 -50,23 -46,20 -46,23 -38,20 -38,21 -33,17 -28,18 -5,3 -13,10 -20,15 -21,15 135,18 -76,79 124,10 -71,87 120,15 -72,81 107,-2 -63,91 35,-15 38,-13 39,-13 40,-12 41,-10 41,-11 43,-10 46,-7 43,-8 46,-5 45,-5 46,-5 46,-3 h 46 48 46 33 30 l 33,3 33,2 33,5 31,8 33,8 30,10 -17,-36 -21,-43 -18,-33 -7,-15 -31,-8 -23,-15 -15,-26 -7,-28 v -30 l 7,-25 21,-21 27,-10 z"
   id="path218"
   inkscape:connector-curvature="0"
   style="fill:#ffffff;stroke:none" />
         <path
   d="m 11577,16144 v 0 l 20,8 23,8 23,7 20,10 25,11 23,10 23,12 23,13 10,-20 -23,-13 -22,-13 -28,-10 -21,-10 -25,-10 -23,-8 -23,-7 -20,-8 v 0 z"
   id="path220"
   inkscape:connector-curvature="0"
   style="fill:#000000;stroke:none" />
         <path
   d="m 10748,16332 v 0 l 28,-17 33,-18 38,-20 38,-21 46,-23 46,-20 48,-23 51,-18 56,-17 58,-16 59,-10 61,-8 h 66 66 l 69,8 66,15 5,-20 -71,-15 -69,-8 -66,-5 -66,5 -61,8 -64,10 -58,15 -56,18 -51,18 -54,23 -45,20 -46,23 -38,20 -38,21 -33,17 -28,18 v 0 z"
   id="path222"
   inkscape:connector-curvature="0"
   style="fill:#000000;stroke:none" />
         <path
   d="m 10684,16355 8,18 18,-15 23,-15 10,-8 5,-3 -10,-20 -5,3 -16,12 -17,16 -23,15 7,18 -7,-18 -21,15 28,3 z"
   id="path224"
   inkscape:connector-curvature="0"
   style="fill:#000000;stroke:none" />
         <path
   d="m 10827,16391 -8,-18 -135,-18 v 21 l 135,17 -8,-17 16,15 17,-15 -25,-3 z"
   id="path226"
   inkscape:connector-curvature="0"
   style="fill:#000000;stroke:none" />
         <path
   d="m 10743,16452 7,18 77,-79 -16,-15 -76,78 8,18 -8,-18 -18,18 h 26 z"
   id="path228"
   inkscape:connector-curvature="0"
   style="fill:#000000;stroke:none" />
         <path
   d="m 10875,16480 -8,-18 -124,-10 v 20 l 124,10 -7,-17 15,15 15,-18 h -23 z"
   id="path230"
   inkscape:connector-curvature="0"
   style="fill:#000000;stroke:none" />
         <path
   d="m 10796,16548 8,18 71,-86 -15,-15 -71,86 7,18 -7,-18 -16,15 23,3 z"
   id="path232"
   inkscape:connector-curvature="0"
   style="fill:#000000;stroke:none" />
         <path
   d="m 10923,16581 -7,-17 -120,-16 v 21 l 120,15 -8,-18 15,15 16,-15 -23,-2 z"
   id="path234"
   inkscape:connector-curvature="0"
   style="fill:#000000;stroke:none" />
         <path
   d="m 10844,16645 8,18 71,-82 -15,-15 -71,82 7,17 -7,-17 -20,20 h 27 z"
   id="path236"
   inkscape:connector-curvature="0"
   style="fill:#000000;stroke:none" />
         <path
   d="m 10961,16658 -10,-16 -107,3 v 20 l 107,-2 -10,-15 20,10 13,-18 h -23 z"
   id="path238"
   inkscape:connector-curvature="0"
   style="fill:#000000;stroke:none" />
         <path
   d="m 10885,16734 13,15 63,-91 -20,-10 -63,91 12,15 -12,-15 -23,33 35,-18 z"
   id="path240"
   inkscape:connector-curvature="0"
   style="fill:#000000;stroke:none" />
         <path
   d="m 11577,16617 v 0 l -46,-2 h -48 -46 l -46,5 -46,5 -45,5 -46,5 -43,7 -46,8 -46,10 -41,10 -40,11 -41,12 -38,13 -38,13 -36,15 5,20 36,-15 38,-13 38,-12 41,-13 40,-10 41,-10 41,-11 46,-7 43,-8 46,-5 45,-5 46,-5 h 46 46 48 l 46,-3 v 0 z"
   id="path242"
   inkscape:connector-curvature="0"
   style="fill:#000000;stroke:none" />
         <path
   d="m 11823,16668 13,-15 -31,-11 -33,-7 -33,-8 -33,-5 -33,-2 -33,-5 h -30 l -33,2 v 20 l 33,3 h 30 33 l 33,2 33,6 28,7 33,8 31,10 13,-15 -13,15 28,10 -15,-25 z"
   id="path244"
   inkscape:connector-curvature="0"
   style="fill:#000000;stroke:none" />
         <path
   d="m 11770,16548 -10,-7 7,15 18,33 20,43 18,36 21,-10 -18,-36 -21,-43 -17,-33 -8,-15 -10,-8 10,8 -3,-5 -7,-3 z"
   id="path246"
   inkscape:connector-curvature="0"
   style="fill:#000000;stroke:none" />
         <path
   d="m 11739,16373 10,-10 -33,10 -25,25 -8,31 v 30 l 8,31 18,30 28,18 33,10 v -25 l -28,-5 -18,-13 -13,-20 -7,-26 v -30 l 7,-20 16,-16 22,-10 11,-10 -11,10 h 11 v -10 z"
   id="path248"
   inkscape:connector-curvature="0"
   style="fill:#000000;stroke:none" />
         <path
   d="m 11757,16223 -5,-10 -13,160 h 21 l 12,-160 -5,-10 5,10 3,-5 -8,-5 z"
   id="path250"
   inkscape:connector-curvature="0"
   style="fill:#000000;stroke:none" />
        </g>
       </g>
      </g>
     </g>
    </g>
   </g>
  </g>
 </g>
</svg>