<?xml version="1.0" encoding="UTF-8" standalone="no"?>
<svg
   xmlns:ooo="http://xml.openoffice.org/svg/export"
   xmlns:dc="http://purl.org/dc/elements/1.1/"
   xmlns:cc="http://creativecommons.org/ns#"
   xmlns:rdf="http://www.w3.org/1999/02/22-rdf-syntax-ns#"
   xmlns:svg="http://www.w3.org/2000/svg"
   xmlns="http://www.w3.org/2000/svg"
   xmlns:sodipodi="http://sodipodi.sourceforge.net/DTD/sodipodi-0.dtd"
   xmlns:inkscape="http://www.inkscape.org/namespaces/inkscape"
   version="1.2"
   width="38.810001mm"
   height="70.099998mm"
   viewBox="0 0 3881.0001 7009.9998"
   preserveAspectRatio="xMidYMid"
   xml:space="preserve"
   id="svg589"
   sodipodi:docname="confeti4.svg"
   style="fill-rule:evenodd;stroke-width:28.22200012;stroke-linejoin:round"
   inkscape:version="0.92.5 (2060ec1f9f, 2020-04-08)"><metadata
   id="metadata593"><rdf:RDF><cc:Work
       rdf:about=""><dc:format>image/svg+xml</dc:format><dc:type
         rdf:resource="http://purl.org/dc/dcmitype/StillImage" /></cc:Work></rdf:RDF></metadata><sodipodi:namedview
   pagecolor="#ffffff"
   bordercolor="#666666"
   borderopacity="1"
   objecttolerance="10"
   gridtolerance="10"
   guidetolerance="10"
   inkscape:pageopacity="0"
   inkscape:pageshadow="2"
   inkscape:window-width="664"
   inkscape:window-height="487"
   id="namedview591"
   showgrid="false"
   inkscape:zoom="0.2102413"
   inkscape:cx="73.360631"
   inkscape:cy="132.47244"
   inkscape:window-x="0"
   inkscape:window-y="0"
   inkscape:window-maximized="0"
   inkscape:current-layer="svg589" />
 <defs
   class="ClipPathGroup"
   id="defs8">
  <clipPath
   id="presentation_clip_path"
   clipPathUnits="userSpaceOnUse">
   <rect
   x="0"
   y="0"
   width="21000"
   height="29700"
   id="rect2" />
  </clipPath>
  <clipPath
   id="presentation_clip_path_shrink"
   clipPathUnits="userSpaceOnUse">
   <rect
   x="21"
   y="29"
   width="20958"
   height="29641"
   id="rect5" />
  </clipPath>
 </defs>
 <defs
   class="TextShapeIndex"
   id="defs12">
  <g
   ooo:slide="id1"
   ooo:id-list="id3"
   id="g10" />
 </defs>
 <defs
   class="EmbeddedBulletChars"
   id="defs44">
  <g
   id="bullet-char-template-57356"
   transform="matrix(4.8828125e-4,0,0,-4.8828125e-4,0,0)">
   <path
   d="M 580,1141 1163,571 580,0 -4,571 Z"
   id="path14"
   inkscape:connector-curvature="0" />
  </g>
  <g
   id="bullet-char-template-57354"
   transform="matrix(4.8828125e-4,0,0,-4.8828125e-4,0,0)">
   <path
   d="M 8,1128 H 1137 V 0 H 8 Z"
   id="path17"
   inkscape:connector-curvature="0" />
  </g>
  <g
   id="bullet-char-template-10146"
   transform="matrix(4.8828125e-4,0,0,-4.8828125e-4,0,0)">
   <path
   d="M 174,0 602,739 174,1481 1456,739 Z M 1358,739 309,1346 659,739 Z"
   id="path20"
   inkscape:connector-curvature="0" />
  </g>
  <g
   id="bullet-char-template-10132"
   transform="matrix(4.8828125e-4,0,0,-4.8828125e-4,0,0)">
   <path
   d="M 2015,739 1276,0 H 717 l 543,543 H 174 v 393 h 1086 l -543,545 h 557 z"
   id="path23"
   inkscape:connector-curvature="0" />
  </g>
  <g
   id="bullet-char-template-10007"
   transform="matrix(4.8828125e-4,0,0,-4.8828125e-4,0,0)">
   <path
   d="m 0,-2 c -7,16 -16,29 -25,39 l 381,530 c -94,256 -141,385 -141,387 0,25 13,38 40,38 9,0 21,-2 34,-5 21,4 42,12 65,25 l 27,-13 111,-251 280,301 64,-25 24,25 c 21,-10 41,-24 62,-43 C 886,937 835,863 770,784 769,783 710,716 594,584 L 774,223 c 0,-27 -21,-55 -63,-84 l 16,-20 C 717,90 699,76 672,76 641,76 570,178 457,381 L 164,-76 c -22,-34 -53,-51 -92,-51 -42,0 -63,17 -64,51 -7,9 -10,24 -10,44 0,9 1,19 2,30 z"
   id="path26"
   inkscape:connector-curvature="0" />
  </g>
  <g
   id="bullet-char-template-10004"
   transform="matrix(4.8828125e-4,0,0,-4.8828125e-4,0,0)">
   <path
   d="M 285,-33 C 182,-33 111,30 74,156 52,228 41,333 41,471 c 0,78 14,145 41,201 34,71 87,106 158,106 53,0 88,-31 106,-94 l 23,-176 c 8,-64 28,-97 59,-98 l 735,706 c 11,11 33,17 66,17 42,0 63,-15 63,-46 V 965 c 0,-36 -10,-64 -30,-84 L 442,47 C 390,-6 338,-33 285,-33 Z"
   id="path29"
   inkscape:connector-curvature="0" />
  </g>
  <g
   id="bullet-char-template-9679"
   transform="matrix(4.8828125e-4,0,0,-4.8828125e-4,0,0)">
   <path
   d="M 813,0 C 632,0 489,54 383,161 276,268 223,411 223,592 c 0,181 53,324 160,431 106,107 249,161 430,161 179,0 323,-54 432,-161 108,-107 162,-251 162,-431 0,-180 -54,-324 -162,-431 C 1136,54 992,0 813,0 Z"
   id="path32"
   inkscape:connector-curvature="0" />
  </g>
  <g
   id="bullet-char-template-8226"
   transform="matrix(4.8828125e-4,0,0,-4.8828125e-4,0,0)">
   <path
   d="m 346,457 c -73,0 -137,26 -191,78 -54,51 -81,114 -81,188 0,73 27,136 81,188 54,52 118,78 191,78 73,0 134,-26 185,-79 51,-51 77,-114 77,-187 0,-75 -25,-137 -76,-188 -50,-52 -112,-78 -186,-78 z"
   id="path35"
   inkscape:connector-curvature="0" />
  </g>
  <g
   id="bullet-char-template-8211"
   transform="matrix(4.8828125e-4,0,0,-4.8828125e-4,0,0)">
   <path
   d="M -4,459 H 1135 V 606 H -4 Z"
   id="path38"
   inkscape:connector-curvature="0" />
  </g>
  <g
   id="bullet-char-template-61548"
   transform="matrix(4.8828125e-4,0,0,-4.8828125e-4,0,0)">
   <path
   d="m 173,740 c 0,163 58,303 173,419 116,115 255,173 419,173 163,0 302,-58 418,-173 116,-116 174,-256 174,-419 0,-163 -58,-303 -174,-418 C 1067,206 928,148 765,148 601,148 462,206 346,322 231,437 173,577 173,740 Z"
   id="path41"
   inkscape:connector-curvature="0" />
  </g>
 </defs>
 <g
   id="g49"
   transform="translate(-8559,-11345)">
  <g
   id="id2"
   class="Master_Slide">
   <g
   id="bg-id2"
   class="Background" />
   <g
   id="bo-id2"
   class="BackgroundObjects" />
  </g>
 </g>
 <g
   class="SlideGroup"
   id="g587"
   transform="translate(-8559,-11345)">
  <g
   id="g585">
   <g
   id="container-id1">
    <g
   id="id1"
   class="Slide"
   clip-path="url(#presentation_clip_path)">
     <g
   class="Page"
   id="g581">
      <g
   class="Graphic"
   id="g579">
       <g
   id="id3">
        <rect
   class="BoundingBox"
   x="8559"
   y="11345"
   width="3881"
   height="7010"
   id="rect51"
   style="fill:none;stroke:none" />
        <defs
   id="defs56">
         <clipPath
   id="clip_path_1"
   clipPathUnits="userSpaceOnUse">
          <path
   d="m 8559,11345 h 3880 v 7009 H 8559 Z"
   id="path53"
   inkscape:connector-curvature="0" />
         </clipPath>
        </defs>
        <g
   clip-path="url(#clip_path_1)"
   id="g576">
         <path
   d="m 8572,12178 h 3810 v 6164 H 8572 Z"
   id="path58"
   inkscape:connector-curvature="0"
   style="fill:#ffffbf;stroke:none" />
         <path
   d="m 12397,12178 -15,-12 H 8572 v 25 h 3810 l -13,-13 h 28 v -12 h -15 z"
   id="path60"
   inkscape:connector-curvature="0"
   style="fill:#000000;stroke:none" />
         <path
   d="m 12382,18355 15,-13 v -6164 h -28 v 6164 l 13,-12 v 25 h 15 v -13 z"
   id="path62"
   inkscape:connector-curvature="0"
   style="fill:#000000;stroke:none" />
         <path
   d="m 8559,18342 13,13 h 3810 v -25 H 8572 l 12,12 h -25 v 13 h 13 z"
   id="path64"
   inkscape:connector-curvature="0"
   style="fill:#000000;stroke:none" />
         <path
   d="m 8572,12166 -13,12 v 6164 h 25 v -6164 l -12,13 v -25 h -13 v 12 z"
   id="path66"
   inkscape:connector-curvature="0"
   style="fill:#000000;stroke:none" />
         <path
   d="m 10625,12923 224,-74 -23,76 -20,74 -15,74 -8,71 -5,76 2,74 8,76 15,79 10,38 16,48 20,59 25,63 26,59 25,55 26,41 23,26 2,-3 76,155 54,145 33,134 10,133 -13,134 -35,135 -59,145 -81,155 -320,-224 28,-35 33,-41 33,-46 33,-51 35,-53 36,-56 30,-58 33,-61 28,-59 23,-61 18,-58 15,-59 5,-56 v -53 l -7,-48 -18,-46 -13,-20 -13,-21 -17,-17 -16,-18 -17,-18 -16,-18 -17,-15 -16,-18 -76,-96 -63,-97 -51,-96 -33,-102 -21,-104 -5,-109 8,-115 z"
   id="path68"
   inkscape:connector-curvature="0"
   style="fill:#d1af70;stroke:none" />
         <path
   d="m 11805,13185 -23,-3 -23,-3 -23,-5 -23,-5 -23,-5 -23,-2 -25,-5 h -23 l -99,15 -76,46 -56,66 -36,81 -18,91 -2,97 13,94 22,86 44,97 48,76 51,64 51,45 45,36 41,28 31,20 15,18 63,-447 -51,-13 -45,-23 -38,-30 -36,-38 -28,-41 -25,-46 -23,-43 -21,-46 -10,-20 -10,-20 -8,-21 -2,-20 5,-41 18,-33 25,-25 31,-20 35,-13 36,-10 38,-5 36,-3 h 15 l 15,3 15,2 16,3 15,5 15,2 15,5 13,6 z"
   id="path70"
   inkscape:connector-curvature="0"
   style="fill:#d1af70;stroke:none" />
         <path
   d="m 11685,13169 28,3 26,5 27,8 28,5 26,7 28,8 28,2 28,3 89,-15 68,-41 54,-63 35,-77 21,-86 7,-89 -5,-86 -15,-79 -23,-76 -25,-64 -28,-56 -33,-48 -39,-46 -45,-43 -54,-43 -61,-48 -89,439 54,31 43,25 33,23 28,25 23,28 18,38 20,46 20,58 10,28 13,26 10,28 3,28 -5,25 -10,23 -18,23 -23,20 -25,15 -26,16 -25,7 -23,3 h -28 l -26,-3 -22,-5 -23,-5 -23,-5 -23,-5 -23,-8 -25,-5 z"
   id="path72"
   inkscape:connector-curvature="0"
   style="fill:#d1af70;stroke:none" />
         <path
   d="m 10277,14061 -28,117 -23,114 -15,112 -10,109 v 107 l 7,104 18,99 26,97 35,91 46,87 56,84 66,78 79,71 91,69 105,61 116,56 41,15 46,18 48,15 54,13 50,13 51,10 48,5 44,2 40,-2 38,-3 39,-7 38,-10 38,-11 38,-12 38,-16 38,-15 36,-18 38,-17 35,-21 36,-17 36,-21 35,-18 33,-20 36,-18 -176,-188 -33,23 -38,23 -40,23 -44,20 -45,23 -49,20 -48,18 -51,18 -51,18 -50,15 -49,13 -50,12 -46,8 -46,8 -43,2 -41,3 -30,-3 -31,-2 -33,-5 -30,-11 -28,-10 -31,-12 -30,-16 -28,-15 -28,-18 -26,-18 -25,-20 -23,-23 -23,-23 -20,-22 -21,-23 -17,-26 -36,-20 -33,-38 -28,-54 -20,-63 -18,-66 -13,-61 -7,-56 -3,-43 3,-54 5,-55 7,-59 11,-58 15,-59 20,-53 23,-51 25,-46 16,-20 15,-20 15,-21 18,-20 15,-20 15,-21 16,-20 15,-20 8,-15 10,-16 10,-15 10,-18 10,-15 13,-15 13,-13 12,-10 z"
   id="path74"
   inkscape:connector-curvature="0"
   style="fill:#d1af70;stroke:none" />
         <path
   d="m 11406,14841 30,112 18,117 7,122 -2,124 -10,125 -18,119 -25,117 -31,112 -20,40 -33,54 -41,56 -51,61 -51,58 -50,51 -46,43 -38,28 -10,3 -23,5 -33,10 -41,8 -38,10 -38,10 -28,7 -18,6 -51,15 -48,18 -46,20 -48,23 -43,25 -44,28 -40,31 -38,33 -36,35 -31,38 -30,41 -25,43 -23,46 -21,51 -15,51 -10,53 -8,66 v 66 69 l 3,66 285,94 -8,-77 2,-68 13,-69 26,-63 30,-64 36,-58 40,-59 46,-58 23,-31 23,-33 23,-30 23,-33 22,-31 26,-30 25,-28 28,-28 43,-36 39,-33 38,-28 35,-25 36,-23 30,-23 31,-20 30,-23 28,-23 28,-25 28,-31 28,-30 28,-36 28,-43 28,-48 28,-54 25,-53 26,-51 25,-53 23,-56 20,-53 21,-56 18,-56 15,-56 18,-86 17,-125 21,-147 23,-155 22,-150 28,-130 31,-99 36,-51 v -2 l -54,30 -51,38 -48,46 -46,46 -45,48 -49,46 -48,41 z"
   id="path76"
   inkscape:connector-curvature="0"
   style="fill:#d1af70;stroke:none" />
         <path
   d="m 9893,17989 -5,-46 v -43 -46 -43 l 3,-122 10,-119 18,-109 23,-107 33,-99 38,-92 48,-86 56,-79 66,-68 71,-61 84,-54 92,-45 101,-36 112,-25 122,-16 132,-5 64,3 61,5 56,10 51,13 48,18 46,20 43,20 40,26 41,28 38,30 41,31 38,33 41,35 43,36 43,35 46,38 -206,140 -10,-13 -10,-10 -13,-10 -10,-10 -13,-10 -13,-10 -10,-11 -13,-10 -30,-23 -33,-25 -33,-28 -38,-28 -41,-28 -41,-28 -43,-28 -43,-28 -43,-25 -43,-23 -44,-20 -43,-21 -43,-15 -41,-10 -38,-8 -38,-2 h -38 l -41,5 -43,5 -43,8 -41,12 -40,13 -39,15 -35,18 -20,15 -18,18 -16,18 -17,18 -13,5 -18,5 -20,5 -23,15 -18,20 -15,26 -15,25 -13,23 -33,69 -31,68 -20,71 -15,72 -10,71 -3,73 3,77 10,76 13,56 20,56 23,56 25,53 28,56 28,53 28,51 25,51 z"
   id="path78"
   inkscape:connector-curvature="0"
   style="fill:#d1af70;stroke:none" />
         <path
   d="m 12376,11452 h -190 l 10,53 -5,48 -13,44 -25,38 -33,33 -41,28 -46,25 -50,20 -54,16 -56,12 -56,10 -56,6 -53,5 h -48 l -46,-3 -41,-5 h -15 l -20,5 -26,5 -30,10 -28,11 -28,7 -20,10 -16,5 -48,23 -43,23 -38,26 -38,25 -33,28 -28,30 -28,31 -26,30 -23,33 -20,36 -20,38 -18,38 -18,43 -18,44 -15,45 -15,49 -18,58 -15,58 -13,59 -8,61 364,99 v -48 l 5,-46 5,-46 8,-46 12,-73 16,-89 20,-94 25,-99 33,-94 39,-87 45,-68 56,-51 28,-13 38,-10 41,-5 51,-3 53,-2 56,-3 61,-5 61,-5 61,-10 61,-15 61,-21 56,-30 53,-36 51,-45 43,-59 36,-68 10,-21 10,-25 5,-23 z"
   id="path80"
   inkscape:connector-curvature="0"
   style="fill:#d1af70;stroke:none" />
         <path
   d="m 9942,15624 -31,-51 -25,-54 -28,-53 -31,-53 -38,-46 -43,-36 -53,-25 -67,-8 h -12 l -13,3 -13,5 -12,5 -13,5 -13,5 -12,5 -11,5 -101,56 -77,77 -55,91 -36,99 -20,109 -8,112 3,112 10,107 340,-216 -20,-54 -10,-61 -5,-61 -3,-58 3,-20 10,-33 10,-41 15,-43 18,-43 15,-39 16,-27 12,-16 51,-20 48,5 46,25 43,39 38,48 31,51 25,50 z"
   id="path82"
   inkscape:connector-curvature="0"
   style="fill:#d1af70;stroke:none" />
         <path
   d="m 9878,15504 23,46 23,53 25,56 28,59 33,50 43,44 54,30 63,10 h 13 l 13,-2 12,-3 13,-2 13,-3 13,-5 12,-2 13,-6 99,-50 79,-69 63,-86 46,-99 31,-107 15,-112 3,-109 -11,-107 -350,191 10,43 7,46 8,43 3,46 -6,60 -12,49 -21,48 -25,53 -8,21 -10,18 -7,17 -8,18 -10,15 -15,10 -18,8 -23,3 -51,-8 -41,-20 -35,-31 -28,-38 -26,-41 -20,-48 -18,-46 z"
   id="path84"
   inkscape:connector-curvature="0"
   style="fill:#d1af70;stroke:none" />
         <path
   d="m 8587,17171 v -264 l 30,15 39,5 38,-5 45,-10 46,-18 48,-23 46,-28 49,-30 45,-33 41,-33 38,-33 36,-33 28,-33 22,-28 13,-23 5,-18 49,-58 45,-51 49,-46 45,-41 49,-33 50,-28 49,-22 53,-18 51,-10 56,-6 56,-2 58,5 64,10 63,18 66,20 72,26 10,5 10,5 10,5 10,5 10,5 11,3 10,5 10,2 -127,409 -33,-20 -41,-25 -43,-28 -48,-31 -51,-28 -54,-30 -53,-28 -56,-26 -56,-22 -53,-18 -56,-13 -51,-5 -51,2 -45,11 -41,23 -38,30 -16,18 -12,20 -13,20 -10,23 -13,21 -10,22 -10,23 -10,23 -18,33 -20,36 -23,35 -23,39 -26,35 -28,36 -28,35 -27,33 -34,31 -33,28 -33,25 -38,23 -35,18 -41,15 -41,8 -40,2 h -10 l -13,-2 -10,-3 z"
   id="path86"
   inkscape:connector-curvature="0"
   style="fill:#d1af70;stroke:none" />
         <path
   d="m 8574,18012 13,-23 20,-23 23,-20 28,-20 31,-18 33,-18 35,-15 38,-15 38,-13 39,-10 38,-10 38,-8 35,-8 33,-5 31,-2 h 28 l 15,5 38,15 54,23 61,25 63,28 56,23 43,18 23,10 -30,10 -38,10 -44,16 -45,15 -51,15 -51,20 -51,21 -51,20 -48,25 -48,26 -41,28 -38,28 -31,30 -22,33 -16,36 -5,35 h -236 z"
   id="path88"
   inkscape:connector-curvature="0"
   style="fill:#d1af70;stroke:none" />
         <path
   d="m 9878,13212 8,-43 20,-33 28,-20 33,-5 31,5 27,20 21,31 7,45 -7,46 -21,31 -27,20 -31,5 -33,-5 -28,-20 -20,-33 z"
   id="path90"
   inkscape:connector-curvature="0"
   style="fill:#d1af70;stroke:none" />
         <path
   d="m 11294,14191 5,-31 15,-23 20,-15 23,-5 23,5 20,15 16,23 5,31 -5,33 -16,23 -20,12 -23,5 -23,-5 -20,-12 -15,-23 z"
   id="path92"
   inkscape:connector-curvature="0"
   style="fill:#d1af70;stroke:none" />
         <path
   d="m 9990,14394 5,-31 15,-22 21,-16 22,-5 23,5 21,16 15,22 5,31 -5,30 -15,23 -21,16 -23,2 -22,-2 -21,-16 -15,-23 z"
   id="path94"
   inkscape:connector-curvature="0"
   style="fill:#d1af70;stroke:none" />
         <path
   d="m 10247,16200 5,-33 15,-22 20,-13 23,-5 20,5 21,13 15,22 5,33 -5,33 -15,23 -21,13 -20,5 -23,-5 -20,-13 -15,-23 z"
   id="path96"
   inkscape:connector-curvature="0"
   style="fill:#d1af70;stroke:none" />
         <path
   d="m 8765,16358 7,-43 21,-33 28,-18 33,-8 30,8 28,18 21,33 7,43 -7,43 -21,33 -28,18 -30,8 -33,-8 -28,-18 -21,-33 z"
   id="path98"
   inkscape:connector-curvature="0"
   style="fill:#d1af70;stroke:none" />
         <path
   d="m 9388,17095 7,-41 18,-28 25,-18 28,-5 28,5 26,18 18,28 7,41 -7,40 -18,28 -26,18 -28,5 -28,-5 -25,-18 -18,-28 z"
   id="path100"
   inkscape:connector-curvature="0"
   style="fill:#d1af70;stroke:none" />
         <path
   d="m 10562,17562 5,-25 10,-15 15,-11 18,-5 18,5 15,11 10,15 5,25 -5,23 -10,18 -15,10 -18,3 -18,-3 -15,-10 -10,-18 z"
   id="path102"
   inkscape:connector-curvature="0"
   style="fill:#d1af70;stroke:none" />
         <path
   d="m 11550,12262 6,-25 10,-21 17,-12 18,-5 21,2 17,10 13,21 8,30 -3,26 -10,20 -18,13 -20,5 -23,-3 -18,-10 -12,-20 z"
   id="path104"
   inkscape:connector-curvature="0"
   style="fill:#d1af70;stroke:none" />
         <path
   d="m 9530,13779 h 191 v 208 h -191 z"
   id="path106"
   inkscape:connector-curvature="0"
   style="fill:#d1af70;stroke:none" />
         <path
   d="m 10913,13538 h 160 v 188 h -160 z"
   id="path108"
   inkscape:connector-curvature="0"
   style="fill:#d1af70;stroke:none" />
         <path
   d="m 10419,15641 h 112 v 112 h -112 z"
   id="path110"
   inkscape:connector-curvature="0"
   style="fill:#d1af70;stroke:none" />
         <path
   d="m 11660,13911 h 175 v 188 h -175 z"
   id="path112"
   inkscape:connector-curvature="0"
   style="fill:#d1af70;stroke:none" />
         <path
   d="m 11439,15733 h 142 v 150 h -142 z"
   id="path114"
   inkscape:connector-curvature="0"
   style="fill:#d1af70;stroke:none" />
         <path
   d="m 9164,17915 h 236 v 244 h -236 z"
   id="path116"
   inkscape:connector-curvature="0"
   style="fill:#d1af70;stroke:none" />
         <path
   d="m 10038,17654 h 160 v 150 h -160 z"
   id="path118"
   inkscape:connector-curvature="0"
   style="fill:#cccccc;stroke:none" />
         <path
   d="m 10211,17654 -13,-13 h -160 v 25 h 160 l -15,-12 h 28 v -13 h -13 z"
   id="path120"
   inkscape:connector-curvature="0"
   style="fill:#cccccc;stroke:none" />
         <path
   d="m 10198,17816 13,-12 v -150 h -28 v 150 l 15,-13 v 25 h 13 v -12 z"
   id="path122"
   inkscape:connector-curvature="0"
   style="fill:#cccccc;stroke:none" />
         <path
   d="m 10025,17804 13,12 h 160 v -25 h -160 l 13,13 h -26 v 12 h 13 z"
   id="path124"
   inkscape:connector-curvature="0"
   style="fill:#cccccc;stroke:none" />
         <path
   d="m 10038,17641 -13,13 v 150 h 26 v -150 l -13,12 v -25 h -13 v 13 z"
   id="path126"
   inkscape:connector-curvature="0"
   style="fill:#cccccc;stroke:none" />
         <path
   d="m 8798,14694 h 124 v 165 h -124 z"
   id="path128"
   inkscape:connector-curvature="0"
   style="fill:#d1af70;stroke:none" />
         <path
   d="m 9530,14823 -97,-167 191,-38 z"
   id="path130"
   inkscape:connector-curvature="0"
   style="fill:#d1af70;stroke:none" />
         <path
   d="m 9657,16836 30,-133 82,186 z"
   id="path132"
   inkscape:connector-curvature="0"
   style="fill:#d1af70;stroke:none" />
         <path
   d="m 10737,14897 h 254 l -127,150 z"
   id="path134"
   inkscape:connector-curvature="0"
   style="fill:#d1af70;stroke:none" />
         <path
   d="m 10427,17618 -188,-201 178,-10 z"
   id="path136"
   inkscape:connector-curvature="0"
   style="fill:#d1af70;stroke:none" />
         <path
   d="m 11322,17196 7,-45 21,-31 28,-20 33,-5 30,5 28,20 20,33 8,43 -8,44 -20,33 -28,17 -30,8 -33,-8 -28,-17 -21,-33 z"
   id="path138"
   inkscape:connector-curvature="0"
   style="fill:#d1af70;stroke:none" />
         <path
   d="m 11632,16449 h 254 l -127,150 z"
   id="path140"
   inkscape:connector-curvature="0"
   style="fill:#d1af70;stroke:none" />
         <path
   d="m 11385,17867 8,-43 20,-33 28,-20 33,-5 31,5 28,20 20,30 8,46 -8,46 -20,30 -28,21 -31,5 -33,-5 -28,-21 -20,-33 z"
   id="path142"
   inkscape:connector-curvature="0"
   style="fill:#d1af70;stroke:none" />
         <path
   d="m 10658,12831 224,-73 -25,71 -21,73 -12,74 -11,76 -2,79 2,76 11,77 12,73 10,36 16,51 20,61 25,61 26,63 25,54 26,40 23,23 h 2 l 79,150 53,142 31,140 10,135 -15,134 -36,140 -58,142 -79,150 -318,-223 28,-38 31,-44 33,-48 33,-48 35,-54 33,-55 33,-56 33,-59 28,-58 23,-59 21,-58 12,-56 8,-56 v -53 l -10,-51 -18,-48 -13,-23 -18,-26 -17,-20 -21,-23 -20,-20 -23,-20 -20,-21 -18,-23 -66,-89 -56,-94 -48,-96 -33,-102 -21,-104 -5,-104 10,-109 z"
   id="path144"
   inkscape:connector-curvature="0"
   style="fill:#ff7f00;stroke:none" />
         <path
   d="m 10892,12760 -15,-12 -221,73 7,23 222,-76 -16,-13 23,5 13,-23 -28,11 z"
   id="path146"
   inkscape:connector-curvature="0"
   style="fill:#000000;stroke:none" />
         <path
   d="m 10892,13500 -30,-92 -21,-91 -12,-94 -5,-94 5,-92 12,-94 23,-91 28,-92 -23,-5 -28,94 -20,94 -13,94 -5,94 3,94 12,94 21,94 30,94 z"
   id="path148"
   inkscape:connector-curvature="0"
   style="fill:#000000;stroke:none" />
         <path
   d="m 11019,13738 -20,3 2,-5 h 11 l -5,-3 -16,-20 -15,-25 -15,-33 -18,-36 -15,-36 -15,-33 -11,-28 -10,-22 -23,7 13,33 13,33 12,33 16,33 17,33 18,31 21,30 22,26 h 13 l 8,-10 -21,2 18,-13 -10,-20 -10,23 z"
   id="path150"
   inkscape:connector-curvature="0"
   style="fill:#000000;stroke:none" />
         <path
   d="m 11197,14305 -2,-61 -5,-61 -11,-58 -12,-59 -18,-58 -20,-56 -23,-56 -26,-53 -15,-26 -15,-28 -18,-25 -13,-26 -18,13 39,64 33,63 30,69 26,68 20,71 15,72 10,73 v 74 z"
   id="path152"
   inkscape:connector-curvature="0"
   style="fill:#000000;stroke:none" />
         <path
   d="m 10986,14889 18,-2 36,-59 33,-68 30,-76 28,-82 25,-78 18,-79 16,-74 7,-66 h -23 l -7,66 -16,71 -17,76 -26,79 -28,79 -30,74 -33,66 -36,58 20,-2 -15,17 10,11 8,-13 z"
   id="path154"
   inkscape:connector-curvature="0"
   style="fill:#000000;stroke:none" />
         <path
   d="m 10666,14648 3,18 317,223 15,-17 -317,-227 v 18 l -18,-15 -10,10 13,8 z"
   id="path156"
   inkscape:connector-curvature="0"
   style="fill:#000000;stroke:none" />
         <path
   d="m 10953,13771 31,44 20,48 8,53 v 59 l -11,61 -15,61 -23,63 -28,64 -30,63 -33,64 -36,61 -38,56 -35,53 -36,48 -33,43 -28,36 18,15 25,-40 31,-46 33,-51 38,-56 38,-58 41,-64 38,-63 33,-64 30,-66 26,-63 18,-64 10,-61 v -58 l -13,-56 -25,-51 -39,-46 z"
   id="path158"
   inkscape:connector-curvature="0"
   style="fill:#000000;stroke:none" />
         <path
   d="m 10656,12821 -8,5 -13,56 -12,54 -13,55 -5,56 8,104 20,102 30,97 44,94 50,89 59,86 66,79 71,73 15,-15 -78,-86 -69,-84 -58,-86 -49,-89 -35,-94 -28,-99 -16,-107 -5,-117 5,-36 8,-45 13,-44 13,-33 -6,8 -7,-23 -8,5 z"
   id="path160"
   inkscape:connector-curvature="0"
   style="fill:#000000;stroke:none" />
         <path
   d="m 11838,13093 -23,-2 -23,-3 -23,-5 -23,-5 -25,-5 -23,-3 -23,-5 h -23 l -99,15 -76,46 -56,66 -36,81 -18,92 -2,96 13,94 22,87 44,99 48,76 51,61 51,46 45,35 41,26 28,20 18,18 63,-445 -15,-7 -15,-8 -18,-5 -15,-8 -48,-25 -36,-25 -28,-28 -23,-31 -18,-30 -17,-38 -18,-41 -21,-46 -7,-18 -8,-17 -7,-18 -3,-18 5,-28 13,-28 18,-25 25,-21 25,-20 31,-13 28,-10 28,-2 h 23 l 20,2 h 23 l 20,3 21,5 20,2 23,8 20,5 z"
   id="path162"
   inkscape:connector-curvature="0"
   style="fill:#0000ff;stroke:none" />
         <path
   d="m 11418,13225 16,-33 20,-30 18,-23 23,-18 22,-15 26,-10 25,-8 28,-5 h 26 30 28 l 31,5 30,3 31,2 30,5 31,3 2,2 5,-23 -28,-12 -28,-8 -30,-8 -33,-2 h -33 -36 l -33,5 -33,8 -30,10 -31,12 -30,16 -26,17 -23,21 -20,25 -15,26 -13,30 z"
   id="path164"
   inkscape:connector-curvature="0"
   style="fill:#000000;stroke:none" />
         <path
   d="m 11434,13703 -26,-74 -18,-61 -12,-53 -5,-48 v -49 l 7,-53 15,-64 23,-76 -20,-5 -23,76 -15,64 -8,56 -2,51 5,50 10,56 20,61 26,76 z"
   id="path166"
   inkscape:connector-curvature="0"
   style="fill:#000000;stroke:none" />
         <path
   d="m 11716,14023 15,-10 -41,-23 -46,-28 -45,-38 -43,-41 -39,-45 -35,-46 -28,-46 -20,-43 -23,7 20,51 30,49 36,45 41,43 45,39 46,35 46,33 46,31 15,-13 -15,13 15,7 v -20 z"
   id="path168"
   inkscape:connector-curvature="0"
   style="fill:#000000;stroke:none" />
         <path
   d="m 11787,13589 -8,-11 -63,445 h 20 l 64,-445 -8,-12 8,12 2,-10 -10,-2 z"
   id="path170"
   inkscape:connector-curvature="0"
   style="fill:#000000;stroke:none" />
         <path
   d="m 11540,13375 18,41 23,35 28,33 28,26 33,25 38,20 38,18 41,16 5,-23 -36,-13 -35,-18 -36,-20 -30,-23 -31,-25 -25,-31 -21,-33 -15,-36 z"
   id="path172"
   inkscape:connector-curvature="0"
   style="fill:#000000;stroke:none" />
         <path
   d="m 11525,13121 -25,38 -13,33 -5,28 2,28 11,25 12,28 18,33 15,41 23,-8 -15,-35 -15,-31 -13,-25 -8,-25 -5,-23 5,-28 10,-28 21,-36 z"
   id="path174"
   inkscape:connector-curvature="0"
   style="fill:#000000;stroke:none" />
         <path
   d="m 11835,13103 5,-23 -15,-2 -28,-5 -41,-10 -45,-6 -51,-2 -49,10 -48,20 -38,36 18,15 33,-33 38,-18 38,-5 41,3 40,8 36,7 36,5 h 30 l 5,-23 z"
   id="path176"
   inkscape:connector-curvature="0"
   style="fill:#000000;stroke:none" />
         <path
   d="m 11716,13075 28,3 28,5 28,8 27,7 26,5 28,8 30,2 28,3 120,-28 84,-71 50,-107 18,-132 -12,-142 -39,-143 -63,-129 -89,-109 -15,-13 -16,-13 -15,-13 -15,-12 -18,-10 -15,-13 -15,-13 -16,-12 -89,439 54,31 40,25 36,25 25,26 23,28 23,38 21,46 20,58 10,25 10,28 10,26 3,30 -5,31 -13,25 -20,23 -26,20 -28,16 -30,10 -31,7 -28,3 h -22 l -21,-5 -20,-5 -20,-5 -23,-5 -21,-8 -20,-5 -23,-5 z"
   id="path178"
   inkscape:connector-curvature="0"
   style="fill:#0000ff;stroke:none" />
         <path
   d="m 12143,12976 -13,31 -18,25 -20,23 -23,15 -25,15 -26,8 -28,8 -30,2 h -31 -30 l -33,-2 -31,-5 -30,-8 -28,-8 -31,-7 -25,-8 -8,23 18,8 28,7 30,8 33,5 33,5 33,5 28,3 h 23 l 38,-3 36,-8 33,-10 31,-17 25,-21 25,-23 21,-30 18,-33 z"
   id="path180"
   inkscape:connector-curvature="0"
   style="fill:#000000;stroke:none" />
         <path
   d="m 12155,12499 21,73 15,61 10,56 3,48 -5,51 -11,54 -17,60 -28,74 23,8 27,-74 21,-63 10,-56 3,-51 -3,-53 -10,-56 -15,-64 -21,-74 z"
   id="path182"
   inkscape:connector-curvature="0"
   style="fill:#000000;stroke:none" />
         <path
   d="m 11896,12158 -18,8 44,38 40,38 41,33 35,38 36,38 31,43 27,49 23,56 23,-6 -20,-55 -28,-51 -31,-49 -38,-43 -40,-38 -41,-38 -46,-38 -46,-36 -15,8 15,-8 -12,-10 -3,18 z"
   id="path184"
   inkscape:connector-curvature="0"
   style="fill:#000000;stroke:none" />
         <path
   d="m 11800,12585 7,13 89,-440 -23,-5 -89,442 8,13 -8,-13 -2,8 10,5 z"
   id="path186"
   inkscape:connector-curvature="0"
   style="fill:#000000;stroke:none" />
         <path
   d="m 12031,12819 -13,-41 -20,-38 -26,-33 -30,-31 -33,-25 -36,-25 -38,-21 -35,-20 -8,23 35,15 34,20 33,23 30,26 28,30 23,31 20,35 13,36 z"
   id="path188"
   inkscape:connector-curvature="0"
   style="fill:#000000;stroke:none" />
         <path
   d="m 12031,13073 25,-38 15,-33 8,-28 -2,-26 -8,-25 -10,-31 -15,-33 -13,-40 -23,5 13,35 12,31 11,28 10,25 2,26 -5,28 -13,27 -25,33 z"
   id="path190"
   inkscape:connector-curvature="0"
   style="fill:#000000;stroke:none" />
         <path
   d="m 11721,13065 -8,23 h 3 l 38,8 40,10 41,12 43,8 h 44 l 38,-5 38,-18 33,-30 -18,-16 -25,21 -33,13 -44,7 -43,3 -46,-3 -40,-7 -36,-11 -25,-15 -8,23 z"
   id="path192"
   inkscape:connector-curvature="0"
   style="fill:#000000;stroke:none" />
         <path
   d="m 10310,13967 -28,135 -23,134 -17,138 -6,134 3,84 10,84 15,79 21,73 28,72 30,68 38,66 44,61 45,56 54,53 58,51 61,46 66,43 71,38 74,33 79,31 35,13 41,10 43,12 44,11 43,10 43,7 41,5 38,3 33,-3 35,-2 36,-8 41,-10 38,-10 40,-13 44,-15 40,-18 41,-18 41,-17 38,-18 38,-20 35,-21 33,-18 31,-20 28,-18 -175,-185 -44,23 -43,20 -43,23 -43,23 -44,20 -43,20 -45,21 -44,17 -45,16 -46,15 -46,15 -48,10 -46,11 -48,7 -49,3 -48,2 -46,-5 -50,-10 -54,-18 -53,-23 -51,-28 -48,-30 -43,-31 -34,-33 -12,-15 -13,-15 -10,-20 -8,-18 -20,-8 -18,-10 -15,-13 -15,-15 -44,-79 -28,-96 -15,-107 v -114 l 10,-115 21,-106 33,-97 40,-76 16,-20 15,-21 15,-20 18,-20 15,-21 15,-20 16,-20 15,-21 8,-12 10,-18 10,-15 10,-18 13,-15 10,-16 13,-12 10,-11 z"
   id="path194"
   inkscape:connector-curvature="0"
   style="fill:#ffff00;stroke:none" />
         <path
   d="m 10275,14747 -16,-84 -10,-96 v -102 l 5,-107 13,-106 15,-102 18,-97 23,-83 -23,-3 -23,89 -20,97 -18,101 -10,102 -5,104 2,102 8,96 18,92 z"
   id="path196"
   inkscape:connector-curvature="0"
   style="fill:#000000;stroke:none" />
         <path
   d="m 10663,15298 -76,-50 -66,-56 -58,-64 -51,-66 -43,-71 -36,-76 -33,-82 -25,-86 -23,3 25,91 33,84 38,79 46,71 53,68 59,64 71,56 76,53 z"
   id="path198"
   inkscape:connector-curvature="0"
   style="fill:#000000;stroke:none" />
         <path
   d="m 11217,15504 -35,-7 -36,-8 -35,-8 -38,-7 -36,-10 -36,-11 -35,-10 -36,-12 -35,-11 -36,-15 -33,-15 -33,-15 -36,-18 -30,-18 -33,-20 -31,-21 -10,18 33,23 36,20 33,21 33,18 33,15 33,15 36,13 33,12 33,13 35,10 36,8 35,10 39,8 35,7 38,8 41,8 z"
   id="path200"
   inkscape:connector-curvature="0"
   style="fill:#000000;stroke:none" />
         <path
   d="m 11843,15296 5,-15 -36,20 -38,20 -38,18 -36,20 -38,21 -38,20 -38,18 -41,18 -38,17 -40,13 -41,13 -41,10 -40,10 -41,5 h -43 -44 l -2,21 33,2 h 38 l 41,-5 40,-8 46,-10 46,-12 46,-16 45,-15 46,-20 43,-18 44,-20 43,-21 38,-23 36,-20 30,-20 28,-21 5,-15 -5,15 13,-7 -8,-8 z"
   id="path202"
   inkscape:connector-curvature="0"
   style="fill:#000000;stroke:none" />
         <path
   d="m 11683,15113 -16,-3 176,186 20,-13 -175,-188 h -16 16 l -8,-7 -8,7 z"
   id="path204"
   inkscape:connector-curvature="0"
   style="fill:#000000;stroke:none" />
         <path
   d="m 10829,15337 43,12 48,8 54,2 55,-5 56,-7 61,-10 61,-16 61,-17 61,-21 59,-23 58,-23 56,-25 51,-25 48,-26 43,-25 39,-23 -11,-18 -33,23 -38,23 -45,25 -54,23 -53,26 -59,22 -61,23 -63,21 -64,17 -61,16 -61,12 -58,8 -54,3 h -50 l -44,-8 -38,-13 z"
   id="path206"
   inkscape:connector-curvature="0"
   style="fill:#000000;stroke:none" />
         <path
   d="m 10531,15116 -10,-13 3,7 5,16 10,15 5,10 23,31 30,28 36,27 38,26 41,23 40,20 41,15 36,16 7,-21 -45,-18 -44,-20 -38,-20 -38,-26 -36,-25 -30,-31 -31,-35 -30,-38 v 0 l -13,-13 13,13 v -13 h -13 z"
   id="path208"
   inkscape:connector-curvature="0"
   style="fill:#000000;stroke:none" />
         <path
   d="m 10425,14994 5,20 7,20 10,21 13,15 15,15 16,13 20,10 20,8 v -26 3 l -18,-8 -15,-10 -12,-10 -11,-13 -7,-13 -8,-15 -8,-15 -5,-18 z"
   id="path210"
   inkscape:connector-curvature="0"
   style="fill:#000000;stroke:none" />
         <path
   d="m 10379,14524 -10,73 -8,64 v 53 l 3,51 7,48 13,51 18,61 23,69 22,-3 -17,-66 -18,-58 -13,-51 -10,-49 -5,-50 -3,-54 5,-63 13,-74 z"
   id="path212"
   inkscape:connector-curvature="0"
   style="fill:#000000;stroke:none" />
         <path
   d="m 10587,14112 -40,56 -36,48 -31,41 -28,38 -22,40 -21,51 -15,61 -15,77 20,2 15,-81 18,-61 20,-49 23,-38 28,-35 31,-36 33,-45 38,-56 z"
   id="path214"
   inkscape:connector-curvature="0"
   style="fill:#000000;stroke:none" />
         <path
   d="m 10689,13998 v -23 l -10,7 -16,13 -15,20 -15,23 -15,23 -13,20 -10,18 -8,13 18,13 10,-13 10,-18 10,-18 11,-17 12,-18 13,-18 10,-15 13,-10 h 2 l -7,2 v -25 z"
   id="path216"
   inkscape:connector-curvature="0"
   style="fill:#000000;stroke:none" />
         <path
   d="m 10323,13970 -13,10 379,18 v -23 l -379,-18 -10,10 10,-10 -7,-3 -3,13 z"
   id="path218"
   inkscape:connector-curvature="0"
   style="fill:#000000;stroke:none" />
         <path
   d="m 11439,14747 30,114 18,117 8,122 -3,125 -10,122 -18,122 -25,119 -31,112 -20,43 -33,51 -41,56 -51,58 -51,59 -50,50 -46,41 -38,28 -10,3 -23,7 -33,8 -38,10 -41,8 -36,10 -30,7 -18,6 -48,17 -49,18 -48,20 -46,26 -43,25 -43,28 -41,31 -38,33 -38,35 -33,38 -28,38 -28,44 -23,45 -20,49 -15,51 -11,53 -5,66 v 69 68 l 3,66 285,94 -11,-84 5,-76 18,-71 28,-66 36,-66 40,-61 46,-64 46,-61 25,-33 28,-35 26,-33 28,-33 28,-33 30,-31 31,-30 33,-28 40,-31 44,-30 40,-31 43,-30 41,-31 41,-33 40,-33 36,-38 23,-28 23,-30 18,-31 20,-33 15,-30 18,-33 15,-33 18,-33 30,-59 26,-61 25,-61 23,-61 21,-61 17,-63 16,-64 12,-63 13,-77 13,-109 15,-124 18,-135 20,-130 25,-116 31,-89 36,-51 v -3 l -49,33 -51,44 -50,45 -54,51 -51,48 -50,44 -46,38 z"
   id="path220"
   inkscape:connector-curvature="0"
   style="fill:#7f003f;stroke:none" />
         <path
   d="m 11418,15705 36,-122 28,-122 18,-117 7,-117 -2,-117 -10,-119 -18,-122 -26,-124 -23,7 28,109 18,117 8,122 v 125 l -10,124 -18,122 -23,117 -33,109 z"
   id="path222"
   inkscape:connector-curvature="0"
   style="fill:#000000;stroke:none" />
         <path
   d="m 11075,16099 23,-13 36,-28 43,-43 48,-48 46,-54 43,-45 33,-39 18,-25 15,-23 15,-25 13,-26 10,-25 -20,-8 -5,16 -8,15 -7,15 -8,15 -20,28 -33,41 -44,51 -50,53 -49,53 -45,44 -39,35 -25,15 h 8 l 2,21 h 3 v 0 h 2 v 0 z"
   id="path224"
   inkscape:connector-curvature="0"
   style="fill:#000000;stroke:none" />
         <path
   d="m 10524,16322 23,-22 27,-21 31,-20 30,-18 36,-18 36,-15 38,-15 38,-13 38,-13 38,-12 41,-13 38,-10 36,-8 35,-10 36,-8 30,-7 -2,-21 -26,3 -30,3 -36,7 -38,10 -41,10 -40,16 -44,15 -43,15 -43,18 -43,18 -41,20 -35,18 -33,20 -31,21 -25,17 -18,18 z"
   id="path226"
   inkscape:connector-curvature="0"
   style="fill:#000000;stroke:none" />
         <path
   d="m 10308,16742 2,-54 15,-58 23,-56 31,-59 35,-55 38,-54 36,-46 36,-38 -18,-15 -41,43 -38,49 -36,53 -33,53 -30,59 -23,58 -15,59 -10,61 z"
   id="path228"
   inkscape:connector-curvature="0"
   style="fill:#000000;stroke:none" />
         <path
   d="m 10297,16955 11,10 v -223 h -28 v 223 l 10,13 -10,-13 2,10 8,3 z"
   id="path230"
   inkscape:connector-curvature="0"
   style="fill:#000000;stroke:none" />
         <path
   d="m 10567,17062 15,-13 -285,-94 -7,23 284,91 16,-12 -16,12 21,8 -5,-20 z"
   id="path232"
   inkscape:connector-curvature="0"
   style="fill:#000000;stroke:none" />
         <path
   d="m 10696,16604 -35,49 -31,50 -25,56 -20,59 -16,61 -7,61 -3,61 8,61 23,-5 -8,-51 v -59 l 10,-58 16,-64 22,-58 26,-56 30,-51 31,-40 z"
   id="path234"
   inkscape:connector-curvature="0"
   style="fill:#000000;stroke:none" />
         <path
   d="m 11083,16193 -59,38 -53,46 -51,48 -48,53 -46,56 -43,59 -43,56 -44,55 21,16 43,-59 43,-56 43,-53 41,-53 46,-51 48,-48 54,-46 58,-43 z"
   id="path236"
   inkscape:connector-curvature="0"
   style="fill:#000000;stroke:none" />
         <path
   d="m 11428,15842 -35,59 -36,50 -38,46 -41,43 -40,38 -48,39 -51,35 -56,41 10,18 58,-39 54,-38 48,-38 46,-40 40,-44 39,-48 35,-53 38,-59 z"
   id="path238"
   inkscape:connector-curvature="0"
   style="fill:#000000;stroke:none" />
         <path
   d="m 11652,15250 -18,79 -23,76 -25,74 -28,74 -30,73 -31,71 -36,71 -33,74 23,10 36,-73 33,-74 30,-74 31,-71 28,-74 23,-73 23,-76 20,-82 z"
   id="path240"
   inkscape:connector-curvature="0"
   style="fill:#000000;stroke:none" />
         <path
   d="m 11812,14422 v 2 l -33,59 -25,91 -26,115 -17,124 -18,132 -15,122 -13,104 -13,79 23,5 10,-76 13,-104 15,-122 15,-127 21,-125 23,-114 25,-89 30,-58 z"
   id="path242"
   inkscape:connector-curvature="0"
   style="fill:#000000;stroke:none" />
         <path
   d="m 11451,14745 -5,12 43,-30 49,-38 48,-44 51,-48 51,-48 51,-46 50,-40 49,-33 -16,-16 -10,8 15,20 13,-12 -13,-21 -48,33 -51,41 -50,46 -54,48 -51,51 -51,43 -48,41 -43,27 -3,13 3,-13 -5,6 2,7 z"
   id="path244"
   inkscape:connector-curvature="0"
   style="fill:#000000;stroke:none" />
         <path
   d="m 9926,17898 -5,-44 v -45 -46 -43 l 3,-125 7,-124 16,-125 28,-122 28,-78 33,-74 38,-69 46,-61 48,-58 53,-51 59,-46 61,-40 63,-36 69,-30 71,-26 74,-23 76,-15 79,-10 79,-8 81,-2 h 25 23 26 l 25,2 h 25 l 23,5 26,3 23,5 33,10 35,13 36,15 35,18 38,20 36,23 38,26 38,25 36,28 35,28 33,28 34,28 30,28 31,25 25,25 25,26 -203,140 -56,-49 -56,-45 -56,-49 -58,-45 -59,-46 -61,-43 -61,-38 -63,-33 -64,-28 -66,-23 -66,-16 -68,-7 h -72 l -71,10 -74,20 -73,33 -15,8 -13,8 -13,7 -13,10 -12,11 -13,12 -10,13 -10,13 -28,-3 -31,23 -33,41 -33,48 -30,56 -26,53 -18,43 -10,28 -25,125 -10,112 7,104 23,96 31,97 43,96 48,102 54,109 z"
   id="path246"
   inkscape:connector-curvature="0"
   style="fill:#ff00ff;stroke:none" />
         <path
   d="m 10005,17113 -30,78 -23,94 -21,105 -12,109 -10,109 -3,107 3,96 5,87 h 23 l -8,-77 -3,-94 3,-104 10,-112 15,-111 18,-107 26,-92 30,-76 z"
   id="path248"
   inkscape:connector-curvature="0"
   style="fill:#000000;stroke:none" />
         <path
   d="m 10501,16658 -43,15 -41,18 -38,18 -38,20 -36,23 -33,25 -33,28 -33,28 -31,31 -28,30 -27,33 -26,36 -23,35 -25,36 -21,38 -20,41 23,12 20,-40 23,-38 21,-36 25,-36 23,-33 25,-33 28,-30 28,-28 28,-28 33,-25 33,-23 33,-23 38,-21 39,-17 40,-18 43,-15 z"
   id="path250"
   inkscape:connector-curvature="0"
   style="fill:#000000;stroke:none" />
         <path
   d="m 11085,16592 -40,-5 -38,-3 -41,-2 h -36 -35 -36 l -35,2 -36,5 -33,5 -36,5 -35,8 -36,8 -35,7 -36,10 -38,13 -38,13 7,23 36,-11 36,-10 33,-10 35,-7 36,-8 38,-8 35,-5 36,-5 36,-5 38,-3 35,-2 h 36 38 l 36,2 38,3 35,3 z"
   id="path252"
   inkscape:connector-curvature="0"
   style="fill:#000000;stroke:none" />
         <path
   d="m 11675,16988 v -18 l -28,-28 -30,-28 -34,-28 -33,-30 -35,-31 -36,-30 -38,-31 -38,-27 -38,-26 -41,-25 -40,-26 -39,-20 -40,-18 -41,-13 -41,-10 -38,-7 v 23 l 38,7 39,10 38,16 38,17 38,21 41,23 38,25 38,28 38,28 36,28 35,30 36,28 33,28 30,28 31,28 28,26 2,-18 13,20 13,-10 -13,-8 z"
   id="path254"
   inkscape:connector-curvature="0"
   style="fill:#000000;stroke:none" />
         <path
   d="m 11456,17128 h 13 l 206,-140 -13,-20 -203,142 h 13 l -16,18 8,5 5,-5 z"
   id="path256"
   inkscape:connector-curvature="0"
   style="fill:#000000;stroke:none" />
         <path
   d="m 10679,16703 h 43 l 48,8 51,13 53,18 56,20 56,28 56,28 59,30 55,33 54,36 51,35 48,39 46,35 38,36 35,33 28,33 16,-18 -33,-33 -39,-38 -43,-36 -43,-38 -48,-35 -51,-38 -53,-34 -56,-35 -54,-31 -56,-28 -56,-25 -55,-20 -54,-18 -53,-10 -51,-8 h -48 z"
   id="path258"
   inkscape:connector-curvature="0"
   style="fill:#000000;stroke:none" />
         <path
   d="m 10341,16851 17,-10 16,-18 15,-15 15,-16 31,-17 30,-16 36,-15 35,-10 38,-10 36,-8 36,-7 33,-6 v -20 l -51,8 -48,7 -46,13 -46,13 -41,20 -40,23 -38,31 -39,35 v 3 l 13,-8 -2,23 10,5 2,-13 z"
   id="path260"
   inkscape:connector-curvature="0"
   style="fill:#000000;stroke:none" />
         <path
   d="m 10244,16932 8,-15 10,-15 7,-13 13,-13 10,-12 16,-8 15,-5 h 18 l 2,-23 -10,-3 -20,6 -18,7 -15,10 -13,10 -13,13 -12,13 -11,18 -10,17 z"
   id="path262"
   inkscape:connector-curvature="0"
   style="fill:#000000;stroke:none" />
         <path
   d="m 10114,17369 v -71 l 6,-58 10,-54 12,-48 18,-46 23,-48 28,-51 33,-61 -23,-13 -30,61 -28,54 -23,51 -18,48 -13,51 -10,56 -5,61 -2,68 z"
   id="path264"
   inkscape:connector-curvature="0"
   style="fill:#000000;stroke:none" />
         <path
   d="m 10244,17819 -28,-66 -25,-51 -23,-46 -21,-40 -15,-46 -12,-51 -6,-66 v -84 h -22 v 81 l 5,67 12,53 13,46 20,45 23,46 26,53 30,67 z"
   id="path266"
   inkscape:connector-curvature="0"
   style="fill:#000000;stroke:none" />
         <path
   d="m 10300,17984 3,-23 5,3 -21,-36 -15,-35 -15,-36 -13,-38 -23,8 5,15 8,23 10,22 10,26 10,23 11,20 12,18 13,10 3,-23 z"
   id="path268"
   inkscape:connector-curvature="0"
   style="fill:#000000;stroke:none" />
         <path
   d="m 9914,17898 10,10 376,76 3,-23 -377,-74 11,11 h -23 v 10 h 10 z"
   id="path270"
   inkscape:connector-curvature="0"
   style="fill:#000000;stroke:none" />
         <path
   d="m 12410,11358 h -191 l 2,15 3,15 v 15 18 l -5,48 -13,44 -23,38 -28,30 -35,26 -41,23 -46,15 -45,15 -51,10 -51,8 -51,5 -51,2 -51,3 h -45 -44 -38 l -15,3 -20,2 -23,5 -23,8 -23,7 -20,8 -21,8 -15,5 -48,20 -43,20 -41,23 -38,26 -33,25 -31,28 -30,28 -26,30 -25,33 -20,36 -21,36 -20,38 -18,40 -17,44 -16,45 -15,49 -20,66 -18,66 -15,66 -11,66 361,99 v -41 l 5,-40 6,-41 7,-41 10,-76 18,-91 20,-99 26,-100 33,-99 41,-86 45,-74 59,-51 30,-12 36,-10 43,-5 48,-3 54,-3 56,-2 58,-3 61,-5 59,-10 61,-15 58,-20 58,-31 54,-36 48,-48 46,-56 38,-71 10,-20 10,-26 8,-25 z"
   id="path272"
   inkscape:connector-curvature="0"
   style="fill:#bf3f3f;stroke:none" />
         <path
   d="m 12229,11355 -10,15 h 191 v -25 h -191 l -10,15 10,-15 -15,3 5,12 z"
   id="path274"
   inkscape:connector-curvature="0"
   style="fill:#000000;stroke:none" />
         <path
   d="m 12097,11632 38,-20 31,-26 27,-33 21,-35 15,-38 8,-41 v -41 l -8,-43 -20,5 7,36 v 38 l -7,35 -13,36 -20,33 -26,28 -28,25 -33,18 z"
   id="path276"
   inkscape:connector-curvature="0"
   style="fill:#000000;stroke:none" />
         <path
   d="m 11606,11701 h -2 5 l 10,2 h 10 l 15,3 11,2 h 10 2 89 l 41,-2 43,-3 46,-7 43,-11 46,-10 43,-15 41,-13 38,-15 -8,-23 -33,13 -35,13 -38,12 -39,11 -40,10 -38,7 -39,3 -35,2 h -145 -10 l -8,-2 h -10 -10 -3 -2 v -3 h 2 v 0 0 l -2,3 z"
   id="path278"
   inkscape:connector-curvature="0"
   style="fill:#000000;stroke:none" />
         <path
   d="m 11154,11957 20,-25 21,-25 22,-23 26,-23 25,-21 28,-20 31,-18 28,-15 30,-15 31,-13 33,-13 30,-12 33,-10 31,-8 33,-8 30,-7 -2,-23 -23,-3 -28,5 -31,5 -30,13 -36,13 -33,15 -35,20 -36,21 -35,20 -36,23 -30,23 -31,25 -28,23 -23,20 -18,21 -15,20 z"
   id="path280"
   inkscape:connector-curvature="0"
   style="fill:#000000;stroke:none" />
         <path
   d="m 10943,12509 10,10 8,-66 15,-74 23,-76 25,-76 31,-77 30,-73 33,-64 36,-56 -18,-15 -33,51 -35,66 -33,76 -31,81 -28,84 -23,82 -15,73 -8,64 10,13 -10,-13 -2,10 12,3 z"
   id="path282"
   inkscape:connector-curvature="0"
   style="fill:#000000;stroke:none" />
         <path
   d="m 11291,12618 13,-10 -361,-99 -3,23 361,99 13,-13 -13,13 13,2 v -15 z"
   id="path284"
   inkscape:connector-curvature="0"
   style="fill:#000000;stroke:none" />
         <path
   d="m 11678,11739 -95,23 -81,76 -68,114 -56,143 -41,149 -31,148 -12,129 -3,97 h 23 l 3,-92 12,-124 28,-145 41,-147 51,-137 66,-115 76,-73 87,-23 z"
   id="path286"
   inkscape:connector-curvature="0"
   style="fill:#000000;stroke:none" />
         <path
   d="m 12410,11370 -11,-15 -5,26 -10,30 -15,31 -10,25 -26,43 -30,41 -36,33 -35,30 -39,26 -43,23 -43,20 -43,15 -48,13 -46,10 -48,8 -51,5 -49,5 h -48 -48 -48 v 23 l 50,2 h 54 l 51,-2 50,-3 49,-5 48,-8 48,-10 46,-15 46,-15 43,-21 41,-22 38,-28 38,-33 35,-36 34,-43 30,-46 15,-28 16,-40 10,-39 -10,-25 12,15 3,-12 -15,-3 z"
   id="path288"
   inkscape:connector-curvature="0"
   style="fill:#000000;stroke:none" />
         <path
   d="m 9972,15532 -28,-51 -25,-53 -28,-53 -33,-54 -36,-45 -46,-36 -53,-25 -63,-8 h -13 l -13,5 -15,3 -13,7 -15,5 -15,8 -13,5 -13,5 -94,59 -74,76 -53,89 -38,101 -20,107 -8,112 3,109 10,104 340,-216 -20,-56 -10,-61 -5,-58 v -58 l 2,-21 8,-33 13,-40 15,-46 15,-41 15,-38 16,-28 12,-15 49,-21 50,6 46,25 41,38 38,48 33,51 23,51 z"
   id="path290"
   inkscape:connector-curvature="0"
   style="fill:#0000ff;stroke:none" />
         <path
   d="m 9624,15227 66,-10 56,15 51,36 40,48 36,59 33,58 28,56 28,48 20,-7 -10,-23 -10,-23 -8,-23 -10,-23 -25,-48 -31,-46 -33,-46 -38,-40 -43,-31 -48,-20 -54,-8 -56,8 z"
   id="path292"
   inkscape:connector-curvature="0"
   style="fill:#000000;stroke:none" />
         <path
   d="m 9316,15535 28,-59 26,-51 28,-45 30,-41 38,-33 44,-30 50,-26 64,-23 -8,-20 -63,23 -56,25 -46,31 -38,35 -33,44 -31,45 -28,54 -27,61 z"
   id="path294"
   inkscape:connector-curvature="0"
   style="fill:#000000;stroke:none" />
         <path
   d="m 9271,15992 17,8 -5,-59 -5,-58 -5,-61 -2,-59 v -58 l 7,-56 16,-58 22,-56 -22,-10 -36,114 -13,122 5,122 16,119 17,8 -17,-8 2,21 15,-13 z"
   id="path296"
   inkscape:connector-curvature="0"
   style="fill:#000000;stroke:none" />
         <path
   d="m 9606,15789 5,-13 -340,216 12,18 338,-216 8,-13 -8,13 11,-5 -3,-8 z"
   id="path298"
   inkscape:connector-curvature="0"
   style="fill:#000000;stroke:none" />
         <path
   d="m 9596,15436 -23,81 -5,97 13,96 25,79 23,-8 -25,-76 -13,-91 5,-92 23,-76 z"
   id="path300"
   inkscape:connector-curvature="0"
   style="fill:#000000;stroke:none" />
         <path
   d="m 9761,15265 -43,3 -31,10 -22,13 -16,20 -12,26 -13,28 -13,33 -15,38 23,10 13,-31 10,-28 10,-28 13,-25 15,-20 18,-16 28,-10 h 35 z"
   id="path302"
   inkscape:connector-curvature="0"
   style="fill:#000000;stroke:none" />
         <path
   d="m 9962,15537 20,-7 -12,-38 -18,-41 -23,-43 -26,-41 -30,-38 -33,-31 -38,-22 -41,-11 v 23 l 36,13 35,23 31,28 25,33 26,38 20,41 15,38 13,35 20,-7 z"
   id="path304"
   inkscape:connector-curvature="0"
   style="fill:#000000;stroke:none" />
         <path
   d="m 9911,15413 23,46 23,55 25,56 28,59 36,51 40,43 54,28 63,10 h 11 l 10,-3 h 10 l 10,-2 8,-3 10,-5 10,-2 8,-3 104,-48 86,-69 66,-86 54,-99 33,-107 18,-114 2,-112 -13,-109 -350,188 7,45 10,44 8,45 3,46 -3,36 -10,45 -15,54 -18,53 -26,51 -28,43 -30,31 -33,10 -51,-8 -41,-20 -35,-31 -31,-38 -23,-46 -20,-45 -18,-46 z"
   id="path306"
   inkscape:connector-curvature="0"
   style="fill:#0000ff;stroke:none" />
         <path
   d="m 10242,15743 -82,-5 -66,-33 -51,-51 -40,-61 -33,-63 -23,-56 -16,-43 -10,-21 -23,3 21,61 28,63 33,64 38,58 46,51 53,38 61,20 69,-2 z"
   id="path308"
   inkscape:connector-curvature="0"
   style="fill:#000000;stroke:none" />
         <path
   d="m 10564,15464 -33,58 -28,51 -30,41 -31,33 -38,27 -43,26 -53,23 -66,20 5,23 71,-25 56,-23 45,-23 36,-28 33,-33 31,-41 30,-53 38,-64 z"
   id="path310"
   inkscape:connector-curvature="0"
   style="fill:#000000;stroke:none" />
         <path
   d="m 10635,15011 -15,-12 8,53 2,58 v 61 l -5,64 -7,63 -13,61 -18,56 -23,49 23,12 23,-53 18,-58 13,-61 7,-64 5,-61 v -63 l -5,-61 -7,-56 -16,-11 16,11 v -18 l -16,7 z"
   id="path312"
   inkscape:connector-curvature="0"
   style="fill:#000000;stroke:none" />
         <path
   d="m 10292,15184 -5,15 348,-188 -10,-23 -350,188 -6,13 6,-13 -8,6 2,7 z"
   id="path314"
   inkscape:connector-curvature="0"
   style="fill:#000000;stroke:none" />
         <path
   d="m 10277,15540 36,-89 5,-86 -10,-89 -16,-92 -23,5 16,87 7,83 -5,87 -28,84 z"
   id="path316"
   inkscape:connector-curvature="0"
   style="fill:#000000;stroke:none" />
         <path
   d="m 10107,15697 40,3 31,-8 23,-12 20,-21 15,-23 13,-30 13,-31 15,-35 -18,-10 -20,30 -15,33 -16,33 -12,33 -26,18 -63,-3 z"
   id="path318"
   inkscape:connector-curvature="0"
   style="fill:#000000;stroke:none" />
         <path
   d="m 9921,15410 -23,3 13,38 15,46 21,45 25,44 28,40 31,33 38,26 38,12 v -23 l -36,-15 -33,-25 -28,-31 -23,-38 -20,-38 -18,-41 -15,-40 -13,-36 -23,3 z"
   id="path320"
   inkscape:connector-curvature="0"
   style="fill:#000000;stroke:none" />
         <path
   d="m 8574,17077 v -259 l 28,18 36,7 h 40 l 46,-10 48,-15 51,-23 51,-25 54,-31 50,-33 46,-33 46,-36 38,-35 33,-33 23,-31 18,-28 5,-22 25,-31 28,-33 28,-28 28,-30 28,-26 28,-28 30,-23 34,-23 30,-20 36,-18 33,-17 38,-13 35,-10 41,-8 41,-5 43,-3 h 25 l 26,3 25,3 28,5 31,5 28,5 30,7 31,6 27,10 31,7 28,10 28,11 25,10 26,10 23,13 20,10 -127,409 -33,-23 -36,-28 -43,-28 -48,-28 -51,-30 -53,-28 -56,-28 -56,-23 -56,-23 -59,-15 -53,-10 -53,-5 h -51 l -46,10 -41,20 -35,28 -15,18 -13,20 -13,23 -13,20 -10,23 -10,23 -13,23 -10,20 -20,38 -23,36 -23,38 -25,38 -26,38 -30,36 -28,35 -33,31 -33,30 -36,28 -35,26 -39,20 -40,18 -41,13 -43,7 -46,3 h -13 l -15,-3 -15,-5 z"
   id="path322"
   inkscape:connector-curvature="0"
   style="fill:#02c100;stroke:none" />
         <path
   d="m 8582,16808 -18,10 v 259 h 25 v -259 l -20,10 13,-20 -18,-18 v 28 z"
   id="path324"
   inkscape:connector-curvature="0"
   style="fill:#000000;stroke:none" />
         <path
   d="m 9001,16668 -20,18 -23,17 -23,18 -25,18 -23,18 -28,15 -26,15 -25,13 -28,10 -28,10 -28,5 -28,6 h -30 l -28,-3 -28,-8 -28,-10 v -2 l -13,20 33,10 31,8 30,2 h 31 30 l 28,-5 28,-7 28,-11 28,-10 28,-15 25,-15 28,-15 26,-21 25,-18 23,-22 25,-21 z"
   id="path326"
   inkscape:connector-curvature="0"
   style="fill:#000000;stroke:none" />
         <path
   d="m 9179,16480 5,18 h -2 l -3,-3 v -2 -3 l -7,18 -18,20 -26,26 -28,28 -28,27 -30,23 -23,21 -18,15 15,20 21,-18 28,-22 30,-26 31,-30 28,-31 25,-30 15,-26 5,-25 -7,-5 5,20 -18,-15 -13,13 18,5 z"
   id="path328"
   inkscape:connector-curvature="0"
   style="fill:#000000;stroke:none" />
         <path
   d="m 9621,16167 -33,5 -33,11 -30,10 -31,15 -30,15 -31,18 -30,20 -28,21 -28,23 -28,22 -25,26 -26,25 -23,26 -23,25 -23,25 -20,26 18,15 20,-25 23,-26 23,-25 23,-23 23,-25 25,-23 26,-23 25,-23 28,-20 28,-18 28,-18 30,-15 31,-15 30,-10 33,-11 33,-5 z"
   id="path330"
   inkscape:connector-curvature="0"
   style="fill:#000000;stroke:none" />
         <path
   d="m 10155,16292 -5,-15 -18,-8 -18,-8 -20,-10 -18,-7 -28,-13 -28,-10 -28,-10 -25,-8 -28,-8 -28,-7 -28,-8 -28,-5 -28,-3 -30,-5 -28,-2 h -28 l -31,-3 -28,3 h -30 l -31,2 5,23 18,-2 h 16 l 17,-3 h 18 15 18 15 18 l 31,3 45,10 59,15 66,18 61,18 56,17 41,18 20,16 -5,-16 20,8 5,-10 -10,-5 z"
   id="path332"
   inkscape:connector-curvature="0"
   style="fill:#000000;stroke:none" />
         <path
   d="m 10010,16706 21,-5 124,-409 -20,-8 -127,409 17,-5 -15,18 15,10 6,-15 z"
   id="path334"
   inkscape:connector-curvature="0"
   style="fill:#000000;stroke:none" />
         <path
   d="m 9225,16543 -3,-17 13,-21 23,-17 30,-16 36,-15 33,-10 28,-8 20,-2 38,2 41,5 41,8 38,10 41,15 40,16 41,17 38,18 41,21 38,22 38,21 36,23 35,25 36,23 33,20 30,23 15,-18 -35,-25 -41,-31 -48,-30 -53,-33 -56,-33 -61,-31 -61,-28 -64,-25 -63,-20 -61,-13 -59,-8 -56,3 -51,13 -45,22 -38,36 -31,48 z"
   id="path336"
   inkscape:connector-curvature="0"
   style="fill:#000000;stroke:none" />
         <path
   d="m 8564,17077 10,10 10,5 11,5 12,3 13,2 h 13 12 13 l 48,-5 46,-10 43,-20 46,-23 41,-31 40,-35 41,-38 38,-41 36,-46 33,-45 33,-46 28,-46 28,-46 25,-45 21,-43 20,-39 -23,-12 -18,33 -18,38 -22,41 -26,43 -28,45 -30,46 -31,43 -33,46 -35,43 -39,38 -35,36 -38,33 -41,25 -41,18 -38,13 -40,5 h -13 -13 -15 -15 -16 l -15,-3 -13,-2 -10,-5 10,10 h -25 v 8 l 8,5 z"
   id="path338"
   inkscape:connector-curvature="0"
   style="fill:#000000;stroke:none" />
         <path
   d="m 8574,17954 21,-28 22,-26 26,-25 30,-23 33,-23 33,-20 36,-18 38,-18 38,-15 38,-13 39,-12 38,-8 38,-8 35,-5 h 36 33 l 15,5 36,16 53,22 61,26 61,25 56,23 46,20 25,11 -56,17 -53,18 -53,15 -54,18 -51,20 -48,18 -48,23 -43,23 -44,28 -40,30 -38,33 -36,36 -36,43 -30,46 -25,53 -26,59 h -206 z"
   id="path340"
   inkscape:connector-curvature="0"
   style="fill:#ff0000;stroke:none" />
         <path
   d="m 8770,17776 -25,12 -28,16 -31,23 -30,22 -28,26 -28,25 -21,26 -12,22 17,11 26,-21 20,-23 20,-22 23,-23 21,-21 25,-20 28,-15 31,-15 z"
   id="path342"
   inkscape:connector-curvature="0"
   style="fill:#000000;stroke:none" />
         <path
   d="m 9108,17699 -43,13 -41,8 -43,7 -41,6 -43,7 -41,8 -43,12 -43,16 8,23 28,-11 40,-12 48,-13 54,-15 53,-10 46,-11 38,-5 23,3 v 0 -3 0 h -3 l 8,-20 h -5 5 -2 z"
   id="path344"
   inkscape:connector-curvature="0"
   style="fill:#000000;stroke:none" />
         <path
   d="m 9464,17872 v -23 l -351,-147 -8,20 351,150 3,-23 5,23 33,-10 -33,-13 z"
   id="path346"
   inkscape:connector-curvature="0"
   style="fill:#000000;stroke:none" />
         <path
   d="m 9225,17946 30,-10 28,-8 31,-10 30,-10 28,-10 31,-8 30,-10 31,-8 -5,-23 -31,8 -30,8 -31,7 -30,10 -31,11 -30,10 -31,10 -28,10 z"
   id="path348"
   inkscape:connector-curvature="0"
   style="fill:#000000;stroke:none" />
         <path
   d="m 8780,18352 5,-5 8,-12 7,-16 11,-20 12,-23 13,-25 18,-31 23,-30 23,-31 30,-33 36,-33 38,-30 46,-33 50,-31 59,-28 66,-25 -8,-23 -38,15 -38,16 -36,17 -35,18 -33,20 -33,21 -31,25 -30,23 -28,28 -26,28 -25,30 -23,31 -20,33 -21,36 -15,38 -15,38 10,-13 v 25 h 10 v -10 z"
   id="path350"
   inkscape:connector-curvature="0"
   style="fill:#000000;stroke:none" />
         <path
   d="m 8562,18340 12,12 h 206 v -25 h -206 l 13,13 h -25 v 12 h 12 z"
   id="path352"
   inkscape:connector-curvature="0"
   style="fill:#000000;stroke:none" />
         <path
   d="m 8567,17948 -3,6 -2,386 h 25 l 2,-386 -5,5 -17,-11 h -3 v 3 0 3 z"
   id="path354"
   inkscape:connector-curvature="0"
   style="fill:#000000;stroke:none" />
         <path
   d="m 9914,13121 7,-43 21,-33 28,-18 30,-8 31,8 28,18 20,33 7,43 -7,43 -20,33 -28,18 -31,8 -30,-8 -28,-18 -21,-33 z"
   id="path356"
   inkscape:connector-curvature="0"
   style="fill:#ff0000;stroke:none" />
         <path
   d="m 10000,13004 -23,5 -20,8 -15,10 -16,15 -10,15 -7,18 -6,23 -5,23 h 28 v -15 l 3,-15 8,-18 7,-16 13,-12 13,-8 15,-5 h 15 z"
   id="path358"
   inkscape:connector-curvature="0"
   style="fill:#000000;stroke:none" />
         <path
   d="m 10102,13121 -5,-23 -5,-23 -8,-18 -10,-15 -15,-15 -16,-10 -20,-8 -23,-5 v 28 h 15 l 16,5 12,10 13,13 8,15 7,16 3,15 v 15 z"
   id="path360"
   inkscape:connector-curvature="0"
   style="fill:#000000;stroke:none" />
         <path
   d="m 10000,13235 23,-5 20,-7 18,-11 13,-15 10,-15 8,-18 7,-20 3,-23 h -28 v 15 l -3,15 -7,16 -8,15 -13,13 -12,10 -16,5 h -15 z"
   id="path362"
   inkscape:connector-curvature="0"
   style="fill:#000000;stroke:none" />
         <path
   d="m 9898,13121 5,23 6,20 7,18 10,15 16,15 15,11 20,7 23,5 v -25 h -15 l -15,-5 -13,-10 -10,-13 -10,-15 -8,-16 -3,-15 v -15 z"
   id="path364"
   inkscape:connector-curvature="0"
   style="fill:#000000;stroke:none" />
         <path
   d="m 11327,14099 5,-33 15,-23 20,-12 23,-5 23,5 21,12 15,23 5,33 -5,33 -15,23 -21,13 -23,5 -23,-5 -20,-13 -15,-23 z"
   id="path366"
   inkscape:connector-curvature="0"
   style="fill:#ff00ff;stroke:none" />
         <path
   d="m 11390,14010 -17,3 -16,7 -12,8 -8,10 -8,15 -7,13 -3,15 -5,18 h 28 l 3,-20 10,-23 15,-15 20,-5 z"
   id="path368"
   inkscape:connector-curvature="0"
   style="fill:#000000;stroke:none" />
         <path
   d="m 11467,14099 -6,-18 -2,-15 -8,-13 -7,-15 -8,-10 -13,-8 -15,-7 -18,-3 v 26 l 21,5 17,15 11,23 2,20 z"
   id="path370"
   inkscape:connector-curvature="0"
   style="fill:#000000;stroke:none" />
         <path
   d="m 11390,14188 18,-2 15,-8 13,-8 10,-12 8,-13 5,-15 2,-16 6,-15 h -26 l -2,21 -11,22 -17,16 -21,5 z"
   id="path372"
   inkscape:connector-curvature="0"
   style="fill:#000000;stroke:none" />
         <path
   d="m 11314,14099 5,15 3,16 7,15 8,13 8,12 12,8 16,8 17,2 v -25 l -20,-5 -15,-16 -10,-22 -3,-21 z"
   id="path374"
   inkscape:connector-curvature="0"
   style="fill:#000000;stroke:none" />
         <path
   d="m 10025,14305 6,-33 15,-23 20,-13 23,-5 20,5 21,13 15,23 5,33 -5,30 -15,23 -21,13 -20,5 -23,-5 -20,-13 -15,-23 z"
   id="path376"
   inkscape:connector-curvature="0"
   style="fill:#ffff00;stroke:none" />
         <path
   d="m 10086,14216 -17,3 -16,7 -12,8 -8,13 -8,12 -7,16 -3,15 -5,15 h 28 l 3,-20 10,-23 15,-15 20,-3 z"
   id="path378"
   inkscape:connector-curvature="0"
   style="fill:#000000;stroke:none" />
         <path
   d="m 10163,14305 -5,-15 -3,-15 -5,-16 -8,-12 -10,-13 -12,-8 -16,-7 -18,-3 v 28 l 21,3 18,15 10,23 2,20 z"
   id="path380"
   inkscape:connector-curvature="0"
   style="fill:#000000;stroke:none" />
         <path
   d="m 10086,14389 18,-3 16,-5 12,-7 10,-13 8,-10 5,-16 3,-15 5,-15 h -26 l -2,20 -10,21 -18,15 -21,5 z"
   id="path382"
   inkscape:connector-curvature="0"
   style="fill:#000000;stroke:none" />
         <path
   d="m 10010,14305 5,15 3,15 7,16 8,10 8,13 12,7 16,5 17,3 v -23 l -20,-5 -15,-15 -10,-21 -3,-20 z"
   id="path384"
   inkscape:connector-curvature="0"
   style="fill:#000000;stroke:none" />
         <path
   d="m 10280,16106 5,-33 15,-22 20,-13 23,-5 21,5 20,15 15,23 5,30 -5,33 -15,23 -20,16 -21,5 -23,-5 -20,-16 -15,-23 z"
   id="path386"
   inkscape:connector-curvature="0"
   style="fill:#ffff00;stroke:none" />
         <path
   d="m 10341,16020 -33,10 -21,21 -12,25 -8,30 h 25 l 3,-20 10,-20 15,-15 21,-6 z"
   id="path388"
   inkscape:connector-curvature="0"
   style="fill:#000000;stroke:none" />
         <path
   d="m 10417,16106 -5,-15 -3,-15 -7,-15 -8,-13 -8,-10 -12,-10 -16,-5 -17,-3 v 25 l 20,3 18,15 10,23 2,20 z"
   id="path390"
   inkscape:connector-curvature="0"
   style="fill:#000000;stroke:none" />
         <path
   d="m 10341,16198 17,-3 16,-7 12,-10 11,-11 7,-12 5,-16 3,-15 5,-18 h -26 l -2,23 -10,21 -18,17 -20,3 z"
   id="path392"
   inkscape:connector-curvature="0"
   style="fill:#000000;stroke:none" />
         <path
   d="m 10267,16106 8,33 12,28 21,21 33,10 v -28 l -21,-3 -15,-17 -10,-23 -3,-21 z"
   id="path394"
   inkscape:connector-curvature="0"
   style="fill:#000000;stroke:none" />
         <path
   d="m 8798,16266 8,-43 20,-33 28,-18 33,-5 30,5 28,21 21,30 7,43 -7,44 -21,33 -28,20 -30,5 -33,-5 -28,-20 -20,-31 z"
   id="path396"
   inkscape:connector-curvature="0"
   style="fill:#0000c1;stroke:none" />
         <path
   d="m 8887,16152 -23,5 -20,8 -16,10 -15,15 -10,16 -8,17 -5,21 -5,22 h 26 v -15 l 2,-15 8,-15 10,-15 13,-13 12,-10 16,-5 h 15 z"
   id="path398"
   inkscape:connector-curvature="0"
   style="fill:#000000;stroke:none" />
         <path
   d="m 8986,16266 -3,-22 -5,-21 -7,-20 -10,-15 -13,-13 -18,-10 -18,-8 -25,-5 v 26 h 15 l 15,5 13,10 10,13 10,15 8,15 3,15 v 15 z"
   id="path400"
   inkscape:connector-curvature="0"
   style="fill:#000000;stroke:none" />
         <path
   d="m 8887,16383 23,-5 20,-10 15,-10 16,-13 7,-15 8,-18 7,-20 3,-26 h -25 v 16 l -3,15 -8,15 -10,15 -10,13 -13,10 -15,5 h -15 z"
   id="path402"
   inkscape:connector-curvature="0"
   style="fill:#000000;stroke:none" />
         <path
   d="m 8785,16266 3,26 7,20 8,18 10,15 13,13 18,10 20,10 23,5 v -28 h -15 l -16,-5 -12,-10 -13,-13 -10,-15 -8,-15 -2,-15 v -16 z"
   id="path404"
   inkscape:connector-curvature="0"
   style="fill:#000000;stroke:none" />
         <path
   d="m 9418,17003 8,-40 17,-28 26,-18 30,-5 28,5 26,18 18,28 7,40 -7,41 -18,28 -26,18 -28,5 -30,-5 -26,-18 -17,-28 z"
   id="path406"
   inkscape:connector-curvature="0"
   style="fill:#ff0000;stroke:none" />
         <path
   d="m 9497,16897 -23,5 -18,7 -13,10 -12,13 -8,13 -7,18 -6,20 -5,20 h 26 l 2,-30 13,-23 23,-18 28,-7 z"
   id="path408"
   inkscape:connector-curvature="0"
   style="fill:#000000;stroke:none" />
         <path
   d="m 9591,17003 -5,-23 -5,-17 -5,-18 -8,-15 -13,-11 -15,-10 -20,-7 -23,-5 v 28 l 30,2 21,20 15,28 2,28 z"
   id="path410"
   inkscape:connector-curvature="0"
   style="fill:#000000;stroke:none" />
         <path
   d="m 9497,17110 23,-5 20,-8 15,-10 10,-13 11,-12 5,-18 5,-18 5,-23 h -26 l -2,28 -15,28 -23,21 -28,5 z"
   id="path412"
   inkscape:connector-curvature="0"
   style="fill:#000000;stroke:none" />
         <path
   d="m 9405,17003 5,21 6,20 7,18 10,12 10,13 16,10 18,8 20,5 v -25 l -28,-11 -20,-17 -16,-23 -2,-31 z"
   id="path414"
   inkscape:connector-curvature="0"
   style="fill:#000000;stroke:none" />
         <path
   d="m 10595,17468 5,-23 10,-17 15,-11 18,-5 15,3 16,10 10,18 5,25 -5,26 -10,17 -16,11 -15,2 -18,-2 -15,-11 -10,-17 z"
   id="path416"
   inkscape:connector-curvature="0"
   style="fill:#0000ff;stroke:none" />
         <path
   d="m 10643,17400 -25,5 -18,18 -13,20 -5,25 h 26 l 2,-15 8,-15 10,-8 15,-5 z"
   id="path418"
   inkscape:connector-curvature="0"
   style="fill:#000000;stroke:none" />
         <path
   d="m 10704,17468 -5,-28 -13,-17 -17,-16 -26,-7 v 25 l 15,5 11,8 7,15 v 15 z"
   id="path420"
   inkscape:connector-curvature="0"
   style="fill:#000000;stroke:none" />
         <path
   d="m 10643,17539 26,-10 17,-15 13,-18 5,-28 h -28 v 16 l -7,15 -11,10 -15,5 z"
   id="path422"
   inkscape:connector-curvature="0"
   style="fill:#000000;stroke:none" />
         <path
   d="m 10582,17468 5,26 13,20 18,18 25,7 v -25 l -15,-5 -13,-10 -5,-13 -2,-18 z"
   id="path424"
   inkscape:connector-curvature="0"
   style="fill:#000000;stroke:none" />
         <path
   d="m 11583,12171 6,-28 12,-21 18,-12 20,-5 21,5 18,12 12,21 5,28 -5,28 -12,20 -18,13 -21,2 -20,-2 -18,-13 -12,-20 z"
   id="path426"
   inkscape:connector-curvature="0"
   style="fill:#bf3f3f;stroke:none" />
         <path
   d="m 11639,12092 -30,10 -20,15 -11,21 -7,33 h 25 v -13 l 3,-10 5,-8 5,-10 30,-13 z"
   id="path428"
   inkscape:connector-curvature="0"
   style="fill:#000000;stroke:none" />
         <path
   d="m 11708,12171 -5,-33 -15,-21 -21,-15 -28,-10 v 25 l 28,13 8,10 5,8 3,10 v 13 z"
   id="path430"
   inkscape:connector-curvature="0"
   style="fill:#000000;stroke:none" />
         <path
   d="m 11639,12250 33,-11 16,-17 10,-21 10,-30 h -25 l -8,30 -3,3 -2,5 -5,2 -3,5 -23,8 z"
   id="path432"
   inkscape:connector-curvature="0"
   style="fill:#000000;stroke:none" />
         <path
   d="m 11571,12171 10,30 10,21 15,15 33,13 v -26 l -25,-8 -8,-10 -5,-10 -5,-13 v -12 z"
   id="path434"
   inkscape:connector-curvature="0"
   style="fill:#000000;stroke:none" />
         <path
   d="m 9563,13690 h 191 v 203 h -191 z"
   id="path436"
   inkscape:connector-curvature="0"
   style="fill:#ff00ff;stroke:none" />
         <path
   d="m 9766,13690 -12,-13 h -191 v 26 h 191 l -13,-13 h 25 v -13 h -12 z"
   id="path438"
   inkscape:connector-curvature="0"
   style="fill:#000000;stroke:none" />
         <path
   d="m 9754,13906 12,-13 v -203 h -25 v 203 l 13,-12 v 25 h 12 v -13 z"
   id="path440"
   inkscape:connector-curvature="0"
   style="fill:#000000;stroke:none" />
         <path
   d="m 9550,13893 13,13 h 191 v -25 h -191 l 13,12 h -26 v 13 h 13 z"
   id="path442"
   inkscape:connector-curvature="0"
   style="fill:#000000;stroke:none" />
         <path
   d="m 9563,13677 -13,13 v 203 h 26 v -203 l -13,13 v -26 h -13 v 13 z"
   id="path444"
   inkscape:connector-curvature="0"
   style="fill:#000000;stroke:none" />
         <path
   d="m 10946,13449 h 160 v 185 h -160 z"
   id="path446"
   inkscape:connector-curvature="0"
   style="fill:#0000c1;stroke:none" />
         <path
   d="m 11118,13449 -12,-15 h -160 v 27 h 160 l -13,-12 h 25 v -15 h -12 z"
   id="path448"
   inkscape:connector-curvature="0"
   style="fill:#000000;stroke:none" />
         <path
   d="m 11106,13647 12,-13 v -185 h -25 v 185 l 13,-12 v 25 h 12 v -13 z"
   id="path450"
   inkscape:connector-curvature="0"
   style="fill:#000000;stroke:none" />
         <path
   d="m 10933,13634 13,13 h 160 v -25 h -160 l 12,12 h -25 v 13 h 13 z"
   id="path452"
   inkscape:connector-curvature="0"
   style="fill:#000000;stroke:none" />
         <path
   d="m 10946,13434 -13,15 v 185 h 25 v -185 l -12,12 v -27 h -13 v 15 z"
   id="path454"
   inkscape:connector-curvature="0"
   style="fill:#000000;stroke:none" />
         <path
   d="m 10452,15553 h 112 v 111 h -112 z"
   id="path456"
   inkscape:connector-curvature="0"
   style="fill:#7f007f;stroke:none" />
         <path
   d="m 10577,15553 -13,-16 h -112 v 28 h 112 l -12,-12 h 25 v -16 h -13 z"
   id="path458"
   inkscape:connector-curvature="0"
   style="fill:#000000;stroke:none" />
         <path
   d="m 10564,15677 13,-13 v -111 h -25 v 111 l 12,-15 v 28 h 13 v -13 z"
   id="path460"
   inkscape:connector-curvature="0"
   style="fill:#000000;stroke:none" />
         <path
   d="m 10440,15664 12,13 h 112 v -28 h -112 l 13,15 h -25 v 13 h 12 z"
   id="path462"
   inkscape:connector-curvature="0"
   style="fill:#000000;stroke:none" />
         <path
   d="m 10452,15537 -12,16 v 111 h 25 v -111 l -13,12 v -28 h -12 v 16 z"
   id="path464"
   inkscape:connector-curvature="0"
   style="fill:#000000;stroke:none" />
         <path
   d="m 11695,13820 h 173 v 185 h -173 z"
   id="path466"
   inkscape:connector-curvature="0"
   style="fill:#02c100;stroke:none" />
         <path
   d="m 11883,13820 -15,-13 h -173 v 25 h 173 l -13,-12 h 28 v -13 h -15 z"
   id="path468"
   inkscape:connector-curvature="0"
   style="fill:#000000;stroke:none" />
         <path
   d="m 11868,14018 15,-13 v -185 h -28 v 185 l 13,-13 v 26 h 15 v -13 z"
   id="path470"
   inkscape:connector-curvature="0"
   style="fill:#000000;stroke:none" />
         <path
   d="m 11683,14005 12,13 h 173 v -26 h -173 l 13,13 h -25 v 13 h 12 z"
   id="path472"
   inkscape:connector-curvature="0"
   style="fill:#000000;stroke:none" />
         <path
   d="m 11695,13807 -12,13 v 185 h 25 v -185 l -13,12 v -25 h -12 v 13 z"
   id="path474"
   inkscape:connector-curvature="0"
   style="fill:#000000;stroke:none" />
         <path
   d="m 11472,15644 h 142 v 147 h -142 z"
   id="path476"
   inkscape:connector-curvature="0"
   style="fill:#ff0000;stroke:none" />
         <path
   d="m 11627,15644 -13,-13 h -142 v 26 h 142 l -13,-13 h 26 v -13 h -13 z"
   id="path478"
   inkscape:connector-curvature="0"
   style="fill:#000000;stroke:none" />
         <path
   d="m 11614,15804 13,-13 v -147 h -26 v 147 l 13,-12 v 25 h 13 v -13 z"
   id="path480"
   inkscape:connector-curvature="0"
   style="fill:#000000;stroke:none" />
         <path
   d="m 11459,15791 13,13 h 142 v -25 h -142 l 12,12 h -25 v 13 h 13 z"
   id="path482"
   inkscape:connector-curvature="0"
   style="fill:#000000;stroke:none" />
         <path
   d="m 11472,15631 -13,13 v 147 h 25 v -147 l -12,13 v -26 h -13 v 13 z"
   id="path484"
   inkscape:connector-curvature="0"
   style="fill:#000000;stroke:none" />
         <path
   d="m 9197,17824 h 239 v 241 h -239 z"
   id="path486"
   inkscape:connector-curvature="0"
   style="fill:#ffff00;stroke:none" />
         <path
   d="m 9449,17824 -13,-13 h -239 v 26 h 239 l -15,-13 h 28 v -13 h -13 z"
   id="path488"
   inkscape:connector-curvature="0"
   style="fill:#000000;stroke:none" />
         <path
   d="m 9436,18078 13,-13 v -241 h -28 v 241 l 15,-12 v 25 h 13 v -13 z"
   id="path490"
   inkscape:connector-curvature="0"
   style="fill:#000000;stroke:none" />
         <path
   d="m 9184,18065 13,13 h 239 v -25 h -239 l 13,12 h -26 v 13 h 13 z"
   id="path492"
   inkscape:connector-curvature="0"
   style="fill:#000000;stroke:none" />
         <path
   d="m 9197,17811 -13,13 v 241 h 26 v -241 l -13,13 v -26 h -13 v 13 z"
   id="path494"
   inkscape:connector-curvature="0"
   style="fill:#000000;stroke:none" />
         <path
   d="m 10071,17562 h 160 v 150 h -160 z"
   id="path496"
   inkscape:connector-curvature="0"
   style="fill:#027f00;stroke:none" />
         <path
   d="m 10244,17562 -13,-12 h -160 v 28 h 160 l -12,-16 h 25 v -12 h -13 z"
   id="path498"
   inkscape:connector-curvature="0"
   style="fill:#000000;stroke:none" />
         <path
   d="m 10231,17725 13,-13 v -150 h -25 v 150 l 12,-13 v 26 h 13 v -13 z"
   id="path500"
   inkscape:connector-curvature="0"
   style="fill:#000000;stroke:none" />
         <path
   d="m 10059,17712 12,13 h 160 v -26 h -160 l 13,13 h -25 v 13 h 12 z"
   id="path502"
   inkscape:connector-curvature="0"
   style="fill:#000000;stroke:none" />
         <path
   d="m 10071,17550 -12,12 v 150 h 25 v -150 l -13,16 v -28 h -12 v 12 z"
   id="path504"
   inkscape:connector-curvature="0"
   style="fill:#000000;stroke:none" />
         <path
   d="m 8831,14600 h 124 v 167 h -124 z"
   id="path506"
   inkscape:connector-curvature="0"
   style="fill:#ff0000;stroke:none" />
         <path
   d="m 8971,14600 -16,-13 h -124 v 25 h 124 l -12,-12 h 28 v -13 h -16 z"
   id="path508"
   inkscape:connector-curvature="0"
   style="fill:#000000;stroke:none" />
         <path
   d="m 8955,14780 16,-13 v -167 h -28 v 167 l 12,-12 v 25 h 16 v -13 z"
   id="path510"
   inkscape:connector-curvature="0"
   style="fill:#000000;stroke:none" />
         <path
   d="m 8818,14767 13,13 h 124 v -25 h -124 l 13,12 h -26 v 13 h 13 z"
   id="path512"
   inkscape:connector-curvature="0"
   style="fill:#000000;stroke:none" />
         <path
   d="m 8831,14587 -13,13 v 167 h 26 v -167 l -13,12 v -25 h -13 v 13 z"
   id="path514"
   inkscape:connector-curvature="0"
   style="fill:#000000;stroke:none" />
         <path
   d="m 9563,14729 -97,-167 191,-36 z"
   id="path516"
   inkscape:connector-curvature="0"
   style="fill:#ff00ff;stroke:none" />
         <path
   d="m 9464,14551 -8,18 97,165 20,-10 -96,-167 -8,17 -5,-23 -15,3 7,15 z"
   id="path518"
   inkscape:connector-curvature="0"
   style="fill:#000000;stroke:none" />
         <path
   d="m 9670,14529 -13,-16 -193,38 5,23 191,-38 -13,-15 23,8 7,-21 -20,5 z"
   id="path520"
   inkscape:connector-curvature="0"
   style="fill:#000000;stroke:none" />
         <path
   d="m 9553,14734 h 20 l 97,-205 -23,-8 -94,206 20,-3 -20,10 10,23 10,-23 z"
   id="path522"
   inkscape:connector-curvature="0"
   style="fill:#000000;stroke:none" />
         <path
   d="m 9690,16742 31,-130 81,186 z"
   id="path524"
   inkscape:connector-curvature="0"
   style="fill:#7f007f;stroke:none" />
         <path
   d="m 9733,16607 -23,2 -33,130 23,5 33,-132 -23,3 23,-8 -12,-36 -11,38 z"
   id="path526"
   inkscape:connector-curvature="0"
   style="fill:#000000;stroke:none" />
         <path
   d="m 9797,16808 15,-16 -79,-185 -23,8 79,185 18,-13 -10,21 28,15 -13,-31 z"
   id="path528"
   inkscape:connector-curvature="0"
   style="fill:#000000;stroke:none" />
         <path
   d="m 9677,16739 8,13 112,56 10,-21 -112,-56 5,13 -23,-5 -2,8 10,5 z"
   id="path530"
   inkscape:connector-curvature="0"
   style="fill:#000000;stroke:none" />
         <path
   d="m 10770,14806 h 254 l -127,149 z"
   id="path532"
   inkscape:connector-curvature="0"
   style="fill:#ff0000;stroke:none" />
         <path
   d="m 11035,14813 -11,-20 h -254 v 25 h 254 l -7,-20 18,15 15,-20 h -26 z"
   id="path534"
   inkscape:connector-curvature="0"
   style="fill:#000000;stroke:none" />
         <path
   d="m 10890,14963 h 17 l 128,-150 -18,-15 -127,150 h 17 l -17,15 7,10 10,-10 z"
   id="path536"
   inkscape:connector-curvature="0"
   style="fill:#000000;stroke:none" />
         <path
   d="m 10770,14793 -10,20 130,150 17,-15 -127,-150 -10,20 v -25 h -28 l 18,20 z"
   id="path538"
   inkscape:connector-curvature="0"
   style="fill:#000000;stroke:none" />
         <path
   d="m 10460,17527 -188,-201 178,-10 z"
   id="path540"
   inkscape:connector-curvature="0"
   style="fill:#ff7f00;stroke:none" />
         <path
   d="m 10272,17316 -10,18 188,200 18,-15 -188,-198 -8,18 v -23 h -28 l 18,18 z"
   id="path542"
   inkscape:connector-curvature="0"
   style="fill:#000000;stroke:none" />
         <path
   d="m 10460,17316 -10,-10 -178,10 v 23 l 178,-13 -10,-10 h 20 v -13 l -10,3 z"
   id="path544"
   inkscape:connector-curvature="0"
   style="fill:#000000;stroke:none" />
         <path
   d="m 10450,17534 20,-7 -10,-211 h -20 l 7,211 21,-8 -18,15 23,26 -3,-33 z"
   id="path546"
   inkscape:connector-curvature="0"
   style="fill:#000000;stroke:none" />
         <path
   d="m 11355,17105 7,-43 21,-33 28,-18 33,-8 30,8 28,18 20,33 8,43 -8,43 -20,31 -28,20 -30,5 -33,-5 -28,-20 -21,-31 z"
   id="path548"
   inkscape:connector-curvature="0"
   style="fill:#02c100;stroke:none" />
         <path
   d="m 11441,16988 -23,5 -20,8 -15,10 -13,15 -10,15 -8,21 -7,20 -3,23 h 25 v -15 l 3,-16 8,-15 10,-15 10,-13 13,-10 15,-5 h 15 z"
   id="path550"
   inkscape:connector-curvature="0"
   style="fill:#000000;stroke:none" />
         <path
   d="m 11543,17105 -3,-23 -7,-20 -8,-21 -10,-15 -13,-15 -18,-10 -20,-8 -23,-5 v 28 h 15 l 16,5 12,10 13,13 10,15 5,15 3,16 v 15 z"
   id="path552"
   inkscape:connector-curvature="0"
   style="fill:#000000;stroke:none" />
         <path
   d="m 11441,17219 23,-5 20,-7 16,-11 15,-15 10,-15 8,-18 5,-20 5,-23 h -28 v 15 l -3,15 -5,16 -10,15 -13,13 -12,10 -16,5 h -15 z"
   id="path554"
   inkscape:connector-curvature="0"
   style="fill:#000000;stroke:none" />
         <path
   d="m 11342,17105 3,23 7,20 8,18 10,15 13,15 15,11 20,7 23,5 v -25 h -15 l -15,-5 -13,-10 -10,-13 -10,-15 -8,-16 -3,-15 v -15 z"
   id="path556"
   inkscape:connector-curvature="0"
   style="fill:#000000;stroke:none" />
         <path
   d="m 11665,16358 h 254 l -127,150 z"
   id="path558"
   inkscape:connector-curvature="0"
   style="fill:#bf3f3f;stroke:none" />
         <path
   d="m 11929,16366 -10,-21 h -254 v 26 h 254 l -8,-21 18,16 15,-21 h -25 z"
   id="path560"
   inkscape:connector-curvature="0"
   style="fill:#000000;stroke:none" />
         <path
   d="m 11784,16515 h 18 l 127,-149 -18,-16 -127,150 h 18 l -18,15 8,11 10,-11 z"
   id="path562"
   inkscape:connector-curvature="0"
   style="fill:#000000;stroke:none" />
         <path
   d="m 11665,16345 -10,21 129,149 18,-15 -127,-150 -10,21 v -26 h -28 l 18,21 z"
   id="path564"
   inkscape:connector-curvature="0"
   style="fill:#000000;stroke:none" />
         <path
   d="m 11418,17776 8,-43 20,-34 28,-17 33,-8 31,8 28,17 20,34 8,43 -8,43 -20,33 -28,18 -31,7 -33,-7 -28,-18 -20,-33 z"
   id="path566"
   inkscape:connector-curvature="0"
   style="fill:#027f00;stroke:none" />
         <path
   d="m 11507,17659 -23,5 -20,8 -18,10 -12,15 -11,15 -7,18 -8,23 -2,23 h 25 v -16 l 5,-15 5,-15 10,-15 13,-13 13,-10 15,-5 h 15 z"
   id="path568"
   inkscape:connector-curvature="0"
   style="fill:#000000;stroke:none" />
         <path
   d="m 11606,17776 -2,-23 -8,-23 -7,-18 -11,-15 -12,-15 -16,-10 -20,-8 -23,-5 v 28 h 15 l 16,5 12,10 11,13 10,15 7,15 3,15 v 16 z"
   id="path570"
   inkscape:connector-curvature="0"
   style="fill:#000000;stroke:none" />
         <path
   d="m 11507,17890 23,-5 20,-8 16,-10 15,-13 8,-15 7,-20 8,-20 2,-23 h -25 v 15 l -3,15 -7,15 -10,16 -11,12 -12,11 -16,5 h -15 z"
   id="path572"
   inkscape:connector-curvature="0"
   style="fill:#000000;stroke:none" />
         <path
   d="m 11406,17776 5,23 5,20 7,20 11,15 15,13 15,10 20,8 23,5 v -25 h -15 l -15,-5 -13,-11 -13,-12 -10,-16 -7,-15 -3,-15 v -15 z"
   id="path574"
   inkscape:connector-curvature="0"
   style="fill:#000000;stroke:none" />
        </g>
       </g>
      </g>
     </g>
    </g>
   </g>
  </g>
 </g>
</svg>