<?xml version="1.0" encoding="UTF-8" standalone="no"?>
<svg
   xmlns:ooo="http://xml.openoffice.org/svg/export"
   xmlns:dc="http://purl.org/dc/elements/1.1/"
   xmlns:cc="http://creativecommons.org/ns#"
   xmlns:rdf="http://www.w3.org/1999/02/22-rdf-syntax-ns#"
   xmlns:svg="http://www.w3.org/2000/svg"
   xmlns="http://www.w3.org/2000/svg"
   xmlns:sodipodi="http://sodipodi.sourceforge.net/DTD/sodipodi-0.dtd"
   xmlns:inkscape="http://www.inkscape.org/namespaces/inkscape"
   version="1.2"
   width="83.290001mm"
   height="89.940002mm"
   viewBox="0 0 8329.0001 8994.0002"
   preserveAspectRatio="xMidYMid"
   xml:space="preserve"
   id="svg403"
   sodipodi:docname="corkpop1.svg"
   style="fill-rule:evenodd;stroke-width:28.22200012;stroke-linejoin:round"
   inkscape:version="0.92.5 (2060ec1f9f, 2020-04-08)"><metadata
   id="metadata407"><rdf:RDF><cc:Work
       rdf:about=""><dc:format>image/svg+xml</dc:format><dc:type
         rdf:resource="http://purl.org/dc/dcmitype/StillImage" /></cc:Work></rdf:RDF></metadata><sodipodi:namedview
   pagecolor="#ffffff"
   bordercolor="#666666"
   borderopacity="1"
   objecttolerance="10"
   gridtolerance="10"
   guidetolerance="10"
   inkscape:pageopacity="0"
   inkscape:pageshadow="2"
   inkscape:window-width="664"
   inkscape:window-height="487"
   id="namedview405"
   showgrid="false"
   inkscape:zoom="0.2102413"
   inkscape:cx="157.41732"
   inkscape:cy="169.96535"
   inkscape:window-x="0"
   inkscape:window-y="0"
   inkscape:window-maximized="0"
   inkscape:current-layer="svg403" />
 <defs
   class="ClipPathGroup"
   id="defs8">
  <clipPath
   id="presentation_clip_path"
   clipPathUnits="userSpaceOnUse">
   <rect
   x="0"
   y="0"
   width="21000"
   height="29700"
   id="rect2" />
  </clipPath>
  <clipPath
   id="presentation_clip_path_shrink"
   clipPathUnits="userSpaceOnUse">
   <rect
   x="21"
   y="29"
   width="20958"
   height="29641"
   id="rect5" />
  </clipPath>
 </defs>
 <defs
   class="TextShapeIndex"
   id="defs12">
  <g
   ooo:slide="id1"
   ooo:id-list="id3"
   id="g10" />
 </defs>
 <defs
   class="EmbeddedBulletChars"
   id="defs44">
  <g
   id="bullet-char-template-57356"
   transform="matrix(4.8828125e-4,0,0,-4.8828125e-4,0,0)">
   <path
   d="M 580,1141 1163,571 580,0 -4,571 Z"
   id="path14"
   inkscape:connector-curvature="0" />
  </g>
  <g
   id="bullet-char-template-57354"
   transform="matrix(4.8828125e-4,0,0,-4.8828125e-4,0,0)">
   <path
   d="M 8,1128 H 1137 V 0 H 8 Z"
   id="path17"
   inkscape:connector-curvature="0" />
  </g>
  <g
   id="bullet-char-template-10146"
   transform="matrix(4.8828125e-4,0,0,-4.8828125e-4,0,0)">
   <path
   d="M 174,0 602,739 174,1481 1456,739 Z M 1358,739 309,1346 659,739 Z"
   id="path20"
   inkscape:connector-curvature="0" />
  </g>
  <g
   id="bullet-char-template-10132"
   transform="matrix(4.8828125e-4,0,0,-4.8828125e-4,0,0)">
   <path
   d="M 2015,739 1276,0 H 717 l 543,543 H 174 v 393 h 1086 l -543,545 h 557 z"
   id="path23"
   inkscape:connector-curvature="0" />
  </g>
  <g
   id="bullet-char-template-10007"
   transform="matrix(4.8828125e-4,0,0,-4.8828125e-4,0,0)">
   <path
   d="m 0,-2 c -7,16 -16,29 -25,39 l 381,530 c -94,256 -141,385 -141,387 0,25 13,38 40,38 9,0 21,-2 34,-5 21,4 42,12 65,25 l 27,-13 111,-251 280,301 64,-25 24,25 c 21,-10 41,-24 62,-43 C 886,937 835,863 770,784 769,783 710,716 594,584 L 774,223 c 0,-27 -21,-55 -63,-84 l 16,-20 C 717,90 699,76 672,76 641,76 570,178 457,381 L 164,-76 c -22,-34 -53,-51 -92,-51 -42,0 -63,17 -64,51 -7,9 -10,24 -10,44 0,9 1,19 2,30 z"
   id="path26"
   inkscape:connector-curvature="0" />
  </g>
  <g
   id="bullet-char-template-10004"
   transform="matrix(4.8828125e-4,0,0,-4.8828125e-4,0,0)">
   <path
   d="M 285,-33 C 182,-33 111,30 74,156 52,228 41,333 41,471 c 0,78 14,145 41,201 34,71 87,106 158,106 53,0 88,-31 106,-94 l 23,-176 c 8,-64 28,-97 59,-98 l 735,706 c 11,11 33,17 66,17 42,0 63,-15 63,-46 V 965 c 0,-36 -10,-64 -30,-84 L 442,47 C 390,-6 338,-33 285,-33 Z"
   id="path29"
   inkscape:connector-curvature="0" />
  </g>
  <g
   id="bullet-char-template-9679"
   transform="matrix(4.8828125e-4,0,0,-4.8828125e-4,0,0)">
   <path
   d="M 813,0 C 632,0 489,54 383,161 276,268 223,411 223,592 c 0,181 53,324 160,431 106,107 249,161 430,161 179,0 323,-54 432,-161 108,-107 162,-251 162,-431 0,-180 -54,-324 -162,-431 C 1136,54 992,0 813,0 Z"
   id="path32"
   inkscape:connector-curvature="0" />
  </g>
  <g
   id="bullet-char-template-8226"
   transform="matrix(4.8828125e-4,0,0,-4.8828125e-4,0,0)">
   <path
   d="m 346,457 c -73,0 -137,26 -191,78 -54,51 -81,114 -81,188 0,73 27,136 81,188 54,52 118,78 191,78 73,0 134,-26 185,-79 51,-51 77,-114 77,-187 0,-75 -25,-137 -76,-188 -50,-52 -112,-78 -186,-78 z"
   id="path35"
   inkscape:connector-curvature="0" />
  </g>
  <g
   id="bullet-char-template-8211"
   transform="matrix(4.8828125e-4,0,0,-4.8828125e-4,0,0)">
   <path
   d="M -4,459 H 1135 V 606 H -4 Z"
   id="path38"
   inkscape:connector-curvature="0" />
  </g>
  <g
   id="bullet-char-template-61548"
   transform="matrix(4.8828125e-4,0,0,-4.8828125e-4,0,0)">
   <path
   d="m 173,740 c 0,163 58,303 173,419 116,115 255,173 419,173 163,0 302,-58 418,-173 116,-116 174,-256 174,-419 0,-163 -58,-303 -174,-418 C 1067,206 928,148 765,148 601,148 462,206 346,322 231,437 173,577 173,740 Z"
   id="path41"
   inkscape:connector-curvature="0" />
  </g>
 </defs>
 <g
   id="g49"
   transform="translate(-6335,-10353)">
  <g
   id="id2"
   class="Master_Slide">
   <g
   id="bg-id2"
   class="Background" />
   <g
   id="bo-id2"
   class="BackgroundObjects" />
  </g>
 </g>
 <g
   class="SlideGroup"
   id="g401"
   transform="translate(-6335,-10353)">
  <g
   id="g399">
   <g
   id="container-id1">
    <g
   id="id1"
   class="Slide"
   clip-path="url(#presentation_clip_path)">
     <g
   class="Page"
   id="g395">
      <g
   class="Graphic"
   id="g393">
       <g
   id="id3">
        <rect
   class="BoundingBox"
   x="6335"
   y="10353"
   width="8329"
   height="8994"
   id="rect51"
   style="fill:none;stroke:none" />
        <defs
   id="defs56">
         <clipPath
   id="clip_path_1"
   clipPathUnits="userSpaceOnUse">
          <path
   d="m 6335,10353 h 8328 v 8993 H 6335 Z"
   id="path53"
   inkscape:connector-curvature="0" />
         </clipPath>
        </defs>
        <g
   clip-path="url(#clip_path_1)"
   id="g390">
         <path
   d="m 6335,13346 800,3788 -170,117 z"
   id="path58"
   inkscape:connector-curvature="0"
   style="fill:#000000;stroke:none" />
         <path
   d="m 6335,13346 800,3788 -170,117 z"
   id="path60"
   inkscape:connector-curvature="0"
   style="fill:none;stroke:#000000" />
         <path
   d="m 9051,15747 -40,-419 353,-115 241,-350 31,-244 188,-10 22,20 -182,28 -26,198 -246,396 -343,115 z"
   id="path62"
   inkscape:connector-curvature="0"
   style="fill:#000000;stroke:none" />
         <path
   d="m 9051,15747 -40,-419 353,-115 241,-350 31,-244 188,-10 22,20 -182,28 -26,198 -246,396 -343,115 z"
   id="path64"
   inkscape:connector-curvature="0"
   style="fill:none;stroke:#000000" />
         <path
   d="m 10352,16509 333,-127 36,-368 228,-303 176,-106 -69,-247 v 36 l 18,160 -160,140 -242,309 -40,343 z"
   id="path66"
   inkscape:connector-curvature="0"
   style="fill:#000000;stroke:none" />
         <path
   d="m 10352,16509 333,-127 36,-368 228,-303 176,-106 -69,-247 v 36 l 18,160 -160,140 -242,309 -40,343 z"
   id="path68"
   inkscape:connector-curvature="0"
   style="fill:none;stroke:#000000" />
         <path
   d="m 9966,14720 8,13 22,33 33,51 46,61 54,63 58,64 63,58 67,44 91,48 81,41 77,35 71,31 61,25 56,20 50,16 44,12 38,10 33,6 25,5 23,2 h 15 13 5 3 l -5,-2 -13,-3 -23,-8 -28,-7 -33,-13 -41,-13 -43,-15 -48,-18 -48,-17 -51,-23 -54,-21 -50,-25 -49,-23 -48,-28 -43,-25 -41,-28 -38,-28 -38,-31 -38,-30 -38,-33 -36,-31 -33,-30 -33,-28 -30,-31 -31,-25 -25,-25 -23,-21 -18,-20 -18,-15 -10,-10 -8,-8 z"
   id="path70"
   inkscape:connector-curvature="0"
   style="fill:#000000;stroke:none" />
         <path
   d="m 9966,14720 8,13 22,33 33,51 46,61 54,63 58,64 63,58 67,44 91,48 81,41 77,35 71,31 61,25 56,20 50,16 44,12 38,10 33,6 25,5 23,2 h 15 13 5 3 l -5,-2 -13,-3 -23,-8 -28,-7 -33,-13 -41,-13 -43,-15 -48,-18 -48,-17 -51,-23 -54,-21 -50,-25 -49,-23 -48,-28 -43,-25 -41,-28 -38,-28 -38,-31 -38,-30 -38,-33 -36,-31 -33,-30 -33,-28 -30,-31 -31,-25 -25,-25 -23,-21 -18,-20 -18,-15 -10,-10 -8,-8 z"
   id="path72"
   inkscape:connector-curvature="0"
   style="fill:none;stroke:#000000" />
         <path
   d="m 6548,17802 8,-5 25,-15 36,-25 51,-31 61,-41 68,-45 74,-51 81,-54 84,-58 87,-58 86,-61 86,-61 82,-59 76,-58 69,-54 61,-50 58,-49 58,-53 59,-53 58,-54 61,-56 56,-53 56,-51 53,-51 49,-45 45,-44 39,-38 35,-35 28,-26 20,-20 13,-13 5,-5 137,-543 199,498 -186,-374 -137,470 -5,5 -18,15 -25,26 -33,33 -41,38 -46,46 -51,48 -53,51 -58,53 -59,54 -56,53 -58,51 -54,45 -53,44 -46,38 -40,30 -46,31 -58,38 -69,48 -76,51 -84,53 -87,59 -88,58 -89,61 -89,53 -82,54 -76,51 -66,45 -56,38 -43,28 -25,18 z"
   id="path74"
   inkscape:connector-curvature="0"
   style="fill:#000000;stroke:none" />
         <path
   d="m 6548,17802 8,-5 25,-15 36,-25 51,-31 61,-41 68,-45 74,-51 81,-54 84,-58 87,-58 86,-61 86,-61 82,-59 76,-58 69,-54 61,-50 58,-49 58,-53 59,-53 58,-54 61,-56 56,-53 56,-51 53,-51 49,-45 45,-44 39,-38 35,-35 28,-26 20,-20 13,-13 5,-5 137,-543 199,498 -186,-374 -137,470 -5,5 -18,15 -25,26 -33,33 -41,38 -46,46 -51,48 -53,51 -58,53 -59,54 -56,53 -58,51 -54,45 -53,44 -46,38 -40,30 -46,31 -58,38 -69,48 -76,51 -84,53 -87,59 -88,58 -89,61 -89,53 -82,54 -76,51 -66,45 -56,38 -43,28 -25,18 z"
   id="path76"
   inkscape:connector-curvature="0"
   style="fill:none;stroke:#000000" />
         <path
   d="m 9026,15716 -422,470 440,-401 z"
   id="path78"
   inkscape:connector-curvature="0"
   style="fill:#000000;stroke:none" />
         <path
   d="m 9026,15716 -422,470 440,-401 z"
   id="path80"
   inkscape:connector-curvature="0"
   style="fill:none;stroke:#000000" />
         <path
   d="m 8513,16425 927,-140 -51,232 3,2 12,5 18,10 26,16 33,20 38,28 43,38 51,43 48,46 43,41 38,33 31,30 23,21 17,17 11,10 2,3 549,-137 -610,185 -5,-2 -10,-18 -18,-25 -23,-33 -28,-36 -30,-38 -33,-36 -36,-35 -38,-33 -43,-31 -43,-30 -41,-23 -38,-23 -31,-15 -20,-13 -7,-3 81,-188 z"
   id="path82"
   inkscape:connector-curvature="0"
   style="fill:#000000;stroke:none" />
         <path
   d="m 8513,16425 927,-140 -51,232 3,2 12,5 18,10 26,16 33,20 38,28 43,38 51,43 48,46 43,41 38,33 31,30 23,21 17,17 11,10 2,3 549,-137 -610,185 -5,-2 -10,-18 -18,-25 -23,-33 -28,-36 -30,-38 -33,-36 -36,-35 -38,-33 -43,-31 -43,-30 -41,-23 -38,-23 -31,-15 -20,-13 -7,-3 81,-188 z"
   id="path84"
   inkscape:connector-curvature="0"
   style="fill:none;stroke:#000000" />
         <path
   d="m 10334,16517 -127,272 h -86 z"
   id="path86"
   inkscape:connector-curvature="0"
   style="fill:#000000;stroke:none" />
         <path
   d="m 10334,16517 -127,272 h -86 z"
   id="path88"
   inkscape:connector-curvature="0"
   style="fill:none;stroke:#000000" />
         <path
   d="m 9651,16979 h 2 8 l 13,-2 15,-3 23,-3 23,-2 28,-5 28,-3 33,-7 33,-5 38,-8 35,-8 38,-10 39,-10 38,-10 38,-13 40,-13 46,-15 51,-18 53,-15 56,-18 56,-15 56,-18 56,-17 51,-16 51,-12 43,-16 40,-10 31,-10 25,-8 16,-2 5,-3 -8,3 -20,5 -33,10 -41,13 -51,18 -56,17 -63,18 -64,23 -66,20 -63,23 -64,23 -61,20 -53,21 -46,18 -38,17 -25,13 -49,20 -53,13 -61,3 -56,5 -53,-5 h -43 l -31,-3 z"
   id="path90"
   inkscape:connector-curvature="0"
   style="fill:#000000;stroke:none" />
         <path
   d="m 9651,16979 h 2 8 l 13,-2 15,-3 23,-3 23,-2 28,-5 28,-3 33,-7 33,-5 38,-8 35,-8 38,-10 39,-10 38,-10 38,-13 40,-13 46,-15 51,-18 53,-15 56,-18 56,-15 56,-18 56,-17 51,-16 51,-12 43,-16 40,-10 31,-10 25,-8 16,-2 5,-3 -8,3 -20,5 -33,10 -41,13 -51,18 -56,17 -63,18 -64,23 -66,20 -63,23 -64,23 -61,20 -53,21 -46,18 -38,17 -25,13 -49,20 -53,13 -61,3 -56,5 -53,-5 h -43 l -31,-3 z"
   id="path92"
   inkscape:connector-curvature="0"
   style="fill:none;stroke:#000000" />
         <path
   d="m 10843,16522 -371,251 -51,13 z"
   id="path94"
   inkscape:connector-curvature="0"
   style="fill:#000000;stroke:none" />
         <path
   d="m 10843,16522 -371,251 -51,13 z"
   id="path96"
   inkscape:connector-curvature="0"
   style="fill:none;stroke:#000000" />
         <path
   d="m 10878,16522 -2,-3 -8,-7 -13,-5 -15,-6 -15,3 -16,10 -15,20 -10,36 -10,41 -13,45 -15,41 -13,36 -12,30 -11,26 -7,15 -3,5 3,-5 10,-10 15,-21 15,-23 18,-28 15,-33 13,-33 8,-35 7,-31 11,-25 12,-18 16,-10 12,-8 13,-5 8,-2 z"
   id="path98"
   inkscape:connector-curvature="0"
   style="fill:#000000;stroke:none" />
         <path
   d="m 10878,16522 -2,-3 -8,-7 -13,-5 -15,-6 -15,3 -16,10 -15,20 -10,36 -10,41 -13,45 -15,41 -13,36 -12,30 -11,26 -7,15 -3,5 3,-5 10,-10 15,-21 15,-23 18,-28 15,-33 13,-33 8,-35 7,-31 11,-25 12,-18 16,-10 12,-8 13,-5 8,-2 z"
   id="path100"
   inkscape:connector-curvature="0"
   style="fill:none;stroke:#000000" />
         <path
   d="m 9816,17500 856,-648 -734,473 z"
   id="path102"
   inkscape:connector-curvature="0"
   style="fill:#000000;stroke:none" />
         <path
   d="m 9816,17500 856,-648 -734,473 z"
   id="path104"
   inkscape:connector-curvature="0"
   style="fill:none;stroke:#000000" />
         <path
   d="m 8917,19347 2,-10 10,-33 13,-48 20,-64 23,-76 26,-87 30,-94 31,-101 33,-102 35,-101 38,-100 36,-96 35,-86 36,-79 33,-64 33,-51 33,-45 38,-51 41,-53 40,-59 46,-61 43,-58 44,-61 43,-59 43,-56 38,-50 33,-49 31,-40 25,-33 20,-26 11,-18 5,-5 -5,5 -11,21 -20,28 -23,35 -30,43 -36,51 -35,61 -41,59 -41,63 -43,66 -41,64 -40,58 -41,64 -36,56 -30,50 -28,44 -28,48 -30,63 -33,74 -39,84 -38,91 -38,97 -38,99 -38,97 -38,96 -33,92 -33,83 -28,74 -20,59 -18,50 -13,31 z"
   id="path106"
   inkscape:connector-curvature="0"
   style="fill:#000000;stroke:none" />
         <path
   d="m 8917,19347 2,-10 10,-33 13,-48 20,-64 23,-76 26,-87 30,-94 31,-101 33,-102 35,-101 38,-100 36,-96 35,-86 36,-79 33,-64 33,-51 33,-45 38,-51 41,-53 40,-59 46,-61 43,-58 44,-61 43,-59 43,-56 38,-50 33,-49 31,-40 25,-33 20,-26 11,-18 5,-5 -5,5 -11,21 -20,28 -23,35 -30,43 -36,51 -35,61 -41,59 -41,63 -43,66 -41,64 -40,58 -41,64 -36,56 -30,50 -28,44 -28,48 -30,63 -33,74 -39,84 -38,91 -38,97 -38,99 -38,97 -38,96 -33,92 -33,83 -28,74 -20,59 -18,50 -13,31 z"
   id="path108"
   inkscape:connector-curvature="0"
   style="fill:none;stroke:#000000" />
         <path
   d="m 7356,16085 852,-183 -745,-5 1268,-270 -1408,87 1479,-287 -1372,101 1514,-310 -1534,64 1921,-310 -1975,102 2064,-305 -2117,96 2045,-277 -2063,102 1858,-244 -2079,130 2076,-341 -2165,137 1975,-315 -1937,150 1832,-317 -1694,76 1522,-221 -1555,46 1364,-206 -1242,-16 1026,-215 -976,-39 712,-149 -839,-87 620,-195 -759,12 620,-178 -1294,-205 971,4583 338,-188 -181,-20 341,-173 -457,41 668,-252 -656,-15 760,-209 h -798 l 798,-193 z"
   id="path110"
   inkscape:connector-curvature="0"
   style="fill:#000000;stroke:none" />
         <path
   d="m 7356,16085 852,-183 -745,-5 1268,-270 -1408,87 1479,-287 -1372,101 1514,-310 -1534,64 1921,-310 -1975,102 2064,-305 -2117,96 2045,-277 -2063,102 1858,-244 -2079,130 2076,-341 -2165,137 1975,-315 -1937,150 1832,-317 -1694,76 1522,-221 -1555,46 1364,-206 -1242,-16 1026,-215 -976,-39 712,-149 -839,-87 620,-195 -759,12 620,-178 -1294,-205 971,4583 338,-188 -181,-20 341,-173 -457,41 668,-252 -656,-15 760,-209 h -798 l 798,-193 z"
   id="path112"
   inkscape:connector-curvature="0"
   style="fill:none;stroke:#000000" />
         <path
   d="m 13277,15140 -176,3257 148,76 z"
   id="path114"
   inkscape:connector-curvature="0"
   style="fill:#000000;stroke:none" />
         <path
   d="m 13277,15140 -176,3257 148,76 z"
   id="path116"
   inkscape:connector-curvature="0"
   style="fill:none;stroke:#000000" />
         <path
   d="m 9935,13608 6,5 12,10 23,18 31,20 35,28 41,28 46,33 48,30 51,36 53,30 53,31 51,28 51,25 48,21 46,12 41,8 43,5 51,5 56,8 61,7 63,8 66,10 66,8 64,7 63,11 59,7 53,8 48,5 38,5 31,5 18,3 h 7 -7 l -18,-3 -31,-5 -38,-8 -48,-7 -56,-8 -58,-10 -66,-13 -66,-15 -69,-13 -71,-18 -69,-17 -63,-18 -64,-18 -56,-23 -51,-20 -48,-23 -48,-23 -51,-23 -51,-23 -48,-22 -51,-23 -46,-23 -45,-20 -43,-18 -39,-18 -35,-15 -28,-13 -26,-10 -17,-8 -10,-5 z"
   id="path118"
   inkscape:connector-curvature="0"
   style="fill:#000000;stroke:none" />
         <path
   d="m 9935,13608 6,5 12,10 23,18 31,20 35,28 41,28 46,33 48,30 51,36 53,30 53,31 51,28 51,25 48,21 46,12 41,8 43,5 51,5 56,8 61,7 63,8 66,10 66,8 64,7 63,11 59,7 53,8 48,5 38,5 31,5 18,3 h 7 -7 l -18,-3 -31,-5 -38,-8 -48,-7 -56,-8 -58,-10 -66,-13 -66,-15 -69,-13 -71,-18 -69,-17 -63,-18 -64,-18 -56,-23 -51,-20 -48,-23 -48,-23 -51,-23 -51,-23 -48,-22 -51,-23 -46,-23 -45,-20 -43,-18 -39,-18 -35,-15 -28,-13 -26,-10 -17,-8 -10,-5 z"
   id="path120"
   inkscape:connector-curvature="0"
   style="fill:none;stroke:#000000" />
         <path
   d="m 9951,13559 2,-12 3,-36 10,-53 18,-69 23,-79 33,-86 43,-91 56,-89 63,-87 66,-81 61,-76 59,-66 51,-56 40,-43 26,-28 10,-11 -15,16 -39,43 -58,66 -66,79 -69,91 -63,97 -51,94 -33,89 -23,78 -25,74 -28,66 -28,59 -26,45 -20,36 -15,23 z"
   id="path122"
   inkscape:connector-curvature="0"
   style="fill:#000000;stroke:none" />
         <path
   d="m 9951,13559 2,-12 3,-36 10,-53 18,-69 23,-79 33,-86 43,-91 56,-89 63,-87 66,-81 61,-76 59,-66 51,-56 40,-43 26,-28 10,-11 -15,16 -39,43 -58,66 -66,79 -69,91 -63,97 -51,94 -33,89 -23,78 -25,74 -28,66 -28,59 -26,45 -20,36 -15,23 z"
   id="path124"
   inkscape:connector-curvature="0"
   style="fill:none;stroke:#000000" />
         <path
   d="m 11640,13005 3,16 2,43 v 66 l -2,89 -10,107 -18,119 -31,132 -43,137 -35,99 -28,84 -21,71 -15,56 -13,43 -5,31 -5,18 v 5 l 8,-8 15,-25 26,-38 33,-49 33,-61 33,-68 30,-74 23,-81 25,-203 6,-237 -6,-190 z"
   id="path126"
   inkscape:connector-curvature="0"
   style="fill:#000000;stroke:none" />
         <path
   d="m 11640,13005 3,16 2,43 v 66 l -2,89 -10,107 -18,119 -31,132 -43,137 -35,99 -28,84 -21,71 -15,56 -13,43 -5,31 -5,18 v 5 l 8,-8 15,-25 26,-38 33,-49 33,-61 33,-68 30,-74 23,-81 25,-203 6,-237 -6,-190 z"
   id="path128"
   inkscape:connector-curvature="0"
   style="fill:none;stroke:#000000" />
         <path
   d="m 10482,12612 -150,-242 218,-531 -124,488 z"
   id="path130"
   inkscape:connector-curvature="0"
   style="fill:#000000;stroke:none" />
         <path
   d="m 10482,12612 -150,-242 218,-531 -124,488 z"
   id="path132"
   inkscape:connector-curvature="0"
   style="fill:none;stroke:#000000" />
         <path
   d="m 11625,12975 226,-183 79,-582 -173,546 z"
   id="path134"
   inkscape:connector-curvature="0"
   style="fill:#000000;stroke:none" />
         <path
   d="m 11625,12975 226,-183 79,-582 -173,546 z"
   id="path136"
   inkscape:connector-curvature="0"
   style="fill:none;stroke:#000000" />
         <path
   d="m 10568,11794 5,-3 13,-3 20,-7 28,-10 33,-10 38,-11 44,-12 45,-10 49,-13 50,-10 54,-8 51,-5 50,-3 h 49 l 45,3 44,8 45,15 51,20 56,28 61,31 61,38 63,38 64,40 64,41 58,41 56,38 51,35 43,33 38,26 28,20 18,13 5,5 -5,-5 -13,-15 -23,-26 -30,-33 -36,-38 -41,-41 -45,-45 -51,-49 -53,-45 -54,-46 -56,-43 -56,-38 -53,-33 -53,-28 -51,-16 -46,-7 h -46 l -53,5 -53,5 -59,10 -58,10 -61,13 -59,13 -56,12 -55,13 -51,13 -46,13 -38,10 -33,10 -26,7 -15,3 z"
   id="path138"
   inkscape:connector-curvature="0"
   style="fill:#000000;stroke:none" />
         <path
   d="m 10568,11794 5,-3 13,-3 20,-7 28,-10 33,-10 38,-11 44,-12 45,-10 49,-13 50,-10 54,-8 51,-5 50,-3 h 49 l 45,3 44,8 45,15 51,20 56,28 61,31 61,38 63,38 64,40 64,41 58,41 56,38 51,35 43,33 38,26 28,20 18,13 5,5 -5,-5 -13,-15 -23,-26 -30,-33 -36,-38 -41,-41 -45,-45 -51,-49 -53,-45 -54,-46 -56,-43 -56,-38 -53,-33 -53,-28 -51,-16 -46,-7 h -46 l -53,5 -53,5 -59,10 -58,10 -61,13 -59,13 -56,12 -55,13 -51,13 -46,13 -38,10 -33,10 -26,7 -15,3 z"
   id="path140"
   inkscape:connector-curvature="0"
   style="fill:none;stroke:#000000" />
         <path
   d="m 10461,12495 3,-3 8,-2 10,-8 18,-8 20,-7 25,-10 28,-8 33,-8 38,-7 41,-3 43,-2 h 48 l 51,5 54,10 56,13 61,20 58,23 56,20 53,23 48,20 46,21 41,20 35,18 33,18 31,15 25,13 23,12 18,10 13,11 10,5 5,2 3,3 -6,-3 -12,-7 -23,-11 -28,-15 -36,-18 -38,-20 -43,-20 -48,-21 -49,-20 -50,-20 -51,-21 -51,-15 -48,-13 -46,-10 -43,-7 h -38 l -36,2 h -35 l -39,3 h -35 -38 -33 -36 -30 -31 -28 -23 -20 -18 -12 -8 z"
   id="path142"
   inkscape:connector-curvature="0"
   style="fill:#000000;stroke:none" />
         <path
   d="m 10461,12495 3,-3 8,-2 10,-8 18,-8 20,-7 25,-10 28,-8 33,-8 38,-7 41,-3 43,-2 h 48 l 51,5 54,10 56,13 61,20 58,23 56,20 53,23 48,20 46,21 41,20 35,18 33,18 31,15 25,13 23,12 18,10 13,11 10,5 5,2 3,3 -6,-3 -12,-7 -23,-11 -28,-15 -36,-18 -38,-20 -43,-20 -48,-21 -49,-20 -50,-20 -51,-21 -51,-15 -48,-13 -46,-10 -43,-7 h -38 l -36,2 h -35 l -39,3 h -35 -38 -33 -36 -30 -31 -28 -23 -20 -18 -12 -8 z"
   id="path144"
   inkscape:connector-curvature="0"
   style="fill:none;stroke:#000000" />
         <path
   d="m 10045,13595 h 2 l 10,-3 16,-5 17,-5 26,-5 30,-5 33,-5 36,-3 41,-2 43,-3 h 46 l 48,5 48,5 51,11 51,12 53,18 53,20 56,21 56,20 56,20 56,21 56,18 51,20 51,18 48,17 40,16 39,12 33,13 28,10 17,8 13,2 5,3 -7,-3 -18,-2 -28,-8 -38,-7 -46,-11 -51,-12 -56,-15 -61,-13 -63,-15 -64,-18 -63,-15 -61,-18 -56,-15 -54,-16 -45,-15 -41,-13 -36,-12 -38,-8 -38,-10 -38,-8 -41,-5 -35,-5 -38,-2 -36,-3 -33,-3 -30,-2 h -26 -23 -20 -13 -10 z"
   id="path146"
   inkscape:connector-curvature="0"
   style="fill:#000000;stroke:none" />
         <path
   d="m 10045,13595 h 2 l 10,-3 16,-5 17,-5 26,-5 30,-5 33,-5 36,-3 41,-2 43,-3 h 46 l 48,5 48,5 51,11 51,12 53,18 53,20 56,21 56,20 56,20 56,21 56,18 51,20 51,18 48,17 40,16 39,12 33,13 28,10 17,8 13,2 5,3 -7,-3 -18,-2 -28,-8 -38,-7 -46,-11 -51,-12 -56,-15 -61,-13 -63,-15 -64,-18 -63,-15 -61,-18 -56,-15 -54,-16 -45,-15 -41,-13 -36,-12 -38,-8 -38,-10 -38,-8 -41,-5 -35,-5 -38,-2 -36,-3 -33,-3 -30,-2 h -26 -23 -20 -13 -10 z"
   id="path148"
   inkscape:connector-curvature="0"
   style="fill:none;stroke:#000000" />
         <path
   d="M 9470,14347 7067,11971 9643,14296 Z"
   id="path150"
   inkscape:connector-curvature="0"
   style="fill:#000000;stroke:none" />
         <path
   d="M 9470,14347 7067,11971 9643,14296 Z"
   id="path152"
   inkscape:connector-curvature="0"
   style="fill:none;stroke:#000000" />
         <path
   d="m 9369,10353 592,3138 84,-257 z"
   id="path154"
   inkscape:connector-curvature="0"
   style="fill:#000000;stroke:none" />
         <path
   d="m 9369,10353 592,3138 84,-257 z"
   id="path156"
   inkscape:connector-curvature="0"
   style="fill:none;stroke:#000000" />
         <path
   d="m 11696,15084 2968,-277 -2902,396 z"
   id="path158"
   inkscape:connector-curvature="0"
   style="fill:#000000;stroke:none" />
         <path
   d="m 11696,15084 2968,-277 -2902,396 z"
   id="path160"
   inkscape:connector-curvature="0"
   style="fill:none;stroke:#000000" />
         <path
   d="m 11424,14426 2173,-3113 -2023,3204 z"
   id="path162"
   inkscape:connector-curvature="0"
   style="fill:#000000;stroke:none" />
         <path
   d="m 11424,14426 2173,-3113 -2023,3204 z"
   id="path164"
   inkscape:connector-curvature="0"
   style="fill:none;stroke:#000000" />
         <path
   d="m 9920,14619 -262,-961 687,577 241,-305 450,104 -409,-35 -310,310 -537,-450 z"
   id="path166"
   inkscape:connector-curvature="0"
   style="fill:#000000;stroke:none" />
         <path
   d="m 9920,14619 -262,-961 687,577 241,-305 450,104 -409,-35 -310,310 -537,-450 z"
   id="path168"
   inkscape:connector-curvature="0"
   style="fill:none;stroke:#000000" />
         <path
   d="m 11092,15376 693,320 -310,-716 633,-437 -859,-102 -69,-384 -68,430 754,111 -503,321 265,614 z"
   id="path170"
   inkscape:connector-curvature="0"
   style="fill:#000000;stroke:none" />
         <path
   d="m 11092,15376 693,320 -310,-716 633,-437 -859,-102 -69,-384 -68,430 754,111 -503,321 265,614 z"
   id="path172"
   inkscape:connector-curvature="0"
   style="fill:none;stroke:#000000" />
         <path
   d="m 13226,14756 -879,76 604,-178 -724,11 691,-176 h -602 l 602,-195 -937,10 937,-224 -917,46 953,-241 -729,-26 726,-206 -655,-12 732,-171 -628,-53 691,-183 -566,-20 564,-211 -409,-33 411,-160 -289,-64 317,-205 -107,-26 275,-307 z"
   id="path174"
   inkscape:connector-curvature="0"
   style="fill:#000000;stroke:none" />
         <path
   d="m 13226,14756 -879,76 604,-178 -724,11 691,-176 h -602 l 602,-195 -937,10 937,-224 -917,46 953,-241 -729,-26 726,-206 -655,-12 732,-171 -628,-53 691,-183 -566,-20 564,-211 -409,-33 411,-160 -289,-64 317,-205 -107,-26 275,-307 z"
   id="path176"
   inkscape:connector-curvature="0"
   style="fill:none;stroke:#000000" />
         <path
   d="m 13152,15117 -140,3270 -3633,482 3387,-655 -3245,302 3273,-589 -3097,236 2952,-488 -2742,170 2516,-327 -2338,10 2036,-231 -1614,-16 1753,-210 h -1575 l 1677,-239 -1431,38 1716,-239 -1573,48 1471,-200 -1522,28 1573,-244 -1431,35 1543,-221 -1611,51 1732,-239 -1519,43 1659,-269 -958,-5 973,-208 -1003,68 955,-241 -1039,74 z"
   id="path178"
   inkscape:connector-curvature="0"
   style="fill:#000000;stroke:none" />
         <path
   d="m 13152,15117 -140,3270 -3633,482 3387,-655 -3245,302 3273,-589 -3097,236 2952,-488 -2742,170 2516,-327 -2338,10 2036,-231 -1614,-16 1753,-210 h -1575 l 1677,-239 -1431,38 1716,-239 -1573,48 1471,-200 -1522,28 1573,-244 -1431,35 1543,-221 -1611,51 1732,-239 -1519,43 1659,-269 -958,-5 973,-208 -1003,68 955,-241 -1039,74 z"
   id="path180"
   inkscape:connector-curvature="0"
   style="fill:none;stroke:#000000" />
         <path
   d="m 11800,13666 1022,-1489 -773,84 519,43 -562,51 486,46 -509,114 430,33 -503,135 394,53 -394,140 284,28 -391,160 269,28 -272,150 166,38 z"
   id="path182"
   inkscape:connector-curvature="0"
   style="fill:#000000;stroke:none" />
         <path
   d="m 11800,13666 1022,-1489 -773,84 519,43 -562,51 486,46 -509,114 430,33 -503,135 394,53 -394,140 284,28 -391,160 269,28 -272,150 166,38 z"
   id="path184"
   inkscape:connector-curvature="0"
   style="fill:none;stroke:#000000" />
         <path
   d="m 10050,13003 203,-257 -150,61 186,-150 -214,18 262,-122 -297,26 251,-145 -277,38 257,-170 -364,81 z"
   id="path186"
   inkscape:connector-curvature="0"
   style="fill:#000000;stroke:none" />
         <path
   d="m 10050,13003 203,-257 -150,61 186,-150 -214,18 262,-122 -297,26 251,-145 -277,38 257,-170 -364,81 z"
   id="path188"
   inkscape:connector-curvature="0"
   style="fill:none;stroke:#000000" />
         <path
   d="M 9570,14055 7801,12492 h 1824 l -1273,219 1319,-99 -1222,178 1235,-54 -1136,186 1149,-28 -1009,193 1039,-54 -904,201 886,-5 -729,170 727,8 -557,119 z"
   id="path190"
   inkscape:connector-curvature="0"
   style="fill:#000000;stroke:none" />
         <path
   d="M 9570,14055 7801,12492 h 1824 l -1273,219 1319,-99 -1222,178 1235,-54 -1136,186 1149,-28 -1009,193 1039,-54 -904,201 886,-5 -729,170 727,8 -557,119 z"
   id="path192"
   inkscape:connector-curvature="0"
   style="fill:none;stroke:#000000" />
         <path
   d="m 10843,15460 5,2 10,5 12,8 16,13 12,17 8,23 v 28 l -10,31 -23,40 -33,51 -36,56 -40,56 -36,51 -30,43 -23,28 -8,10 -35,371 -99,-345 7,-11 23,-25 33,-36 36,-45 40,-51 36,-48 28,-49 18,-38 12,-33 13,-35 15,-31 15,-28 13,-23 10,-20 8,-10 z"
   id="path194"
   inkscape:connector-curvature="0"
   style="fill:#000000;stroke:none" />
         <path
   d="m 10843,15460 5,2 10,5 12,8 16,13 12,17 8,23 v 28 l -10,31 -23,40 -33,51 -36,56 -40,56 -36,51 -30,43 -23,28 -8,10 -35,371 -99,-345 7,-11 23,-25 33,-36 36,-45 40,-51 36,-48 28,-49 18,-38 12,-33 13,-35 15,-31 15,-28 13,-23 10,-20 8,-10 z"
   id="path196"
   inkscape:connector-curvature="0"
   style="fill:none;stroke:#000000" />
         <path
   d="m 10843,15539 h -3 -10 l -18,-3 -20,-3 -23,-5 -26,-5 -28,-10 -27,-13 -44,-22 -50,-26 -54,-28 -51,-28 -45,-25 -39,-20 -22,-13 -11,-5 8,7 20,18 31,28 38,31 46,35 51,36 48,33 51,25 30,15 28,13 23,13 20,7 18,11 10,5 8,2 2,3 z"
   id="path198"
   inkscape:connector-curvature="0"
   style="fill:#000000;stroke:none" />
         <path
   d="m 10843,15539 h -3 -10 l -18,-3 -20,-3 -23,-5 -26,-5 -28,-10 -27,-13 -44,-22 -50,-26 -54,-28 -51,-28 -45,-25 -39,-20 -22,-13 -11,-5 8,7 20,18 31,28 38,31 46,35 51,36 48,33 51,25 30,15 28,13 23,13 20,7 18,11 10,5 8,2 2,3 z"
   id="path200"
   inkscape:connector-curvature="0"
   style="fill:none;stroke:#000000" />
         <path
   d="m 10787,15625 h -3 -10 l -15,-3 -21,-2 -25,-5 -25,-8 -28,-10 -28,-13 -44,-23 -50,-25 -51,-28 -51,-28 -48,-25 -36,-21 -25,-12 -10,-5 7,7 21,18 30,28 41,30 45,36 49,36 50,33 51,25 31,15 28,13 23,13 20,7 15,10 10,6 8,2 3,3 z"
   id="path202"
   inkscape:connector-curvature="0"
   style="fill:#000000;stroke:none" />
         <path
   d="m 10787,15625 h -3 -10 l -15,-3 -21,-2 -25,-5 -25,-8 -28,-10 -28,-13 -44,-23 -50,-25 -51,-28 -51,-28 -48,-25 -36,-21 -25,-12 -10,-5 7,7 21,18 30,28 41,30 45,36 49,36 50,33 51,25 31,15 28,13 23,13 20,7 15,10 10,6 8,2 3,3 z"
   id="path204"
   inkscape:connector-curvature="0"
   style="fill:none;stroke:#000000" />
         <path
   d="m 10733,15709 h -2 -10 l -18,-3 -21,-2 -22,-5 -26,-8 -28,-10 -28,-13 -43,-23 -51,-25 -53,-28 -51,-28 -46,-25 -38,-21 -23,-13 -10,-5 8,8 20,18 31,28 38,30 45,36 51,35 49,33 50,26 31,15 28,13 23,12 20,8 18,10 10,5 8,3 2,2 z"
   id="path206"
   inkscape:connector-curvature="0"
   style="fill:#000000;stroke:none" />
         <path
   d="m 10733,15709 h -2 -10 l -18,-3 -21,-2 -22,-5 -26,-8 -28,-10 -28,-13 -43,-23 -51,-25 -53,-28 -51,-28 -46,-25 -38,-21 -23,-13 -10,-5 8,8 20,18 31,28 38,30 45,36 51,35 49,33 50,26 31,15 28,13 23,12 20,8 18,10 10,5 8,3 2,2 z"
   id="path208"
   inkscape:connector-curvature="0"
   style="fill:none;stroke:#000000" />
         <path
   d="m 10677,15793 h -2 -10 l -16,-3 -20,-2 -25,-6 -26,-7 -28,-8 -28,-13 -40,-22 -46,-26 -48,-25 -43,-26 -39,-22 -33,-18 -20,-10 -8,-5 5,5 18,17 26,26 30,28 41,33 43,35 46,31 48,25 31,13 27,13 23,12 21,10 15,8 10,5 8,3 2,2 z"
   id="path210"
   inkscape:connector-curvature="0"
   style="fill:#000000;stroke:none" />
         <path
   d="m 10677,15793 h -2 -10 l -16,-3 -20,-2 -25,-6 -26,-7 -28,-8 -28,-13 -40,-22 -46,-26 -48,-25 -43,-26 -39,-22 -33,-18 -20,-10 -8,-5 5,5 18,17 26,26 30,28 41,33 43,35 46,31 48,25 31,13 27,13 23,12 21,10 15,8 10,5 8,3 2,2 z"
   id="path212"
   inkscape:connector-curvature="0"
   style="fill:none;stroke:#000000" />
         <path
   d="m 10624,15876 h -3 -10 l -17,-2 -21,-3 -23,-5 -25,-5 -28,-10 -28,-13 -41,-20 -45,-23 -44,-20 -40,-21 -36,-17 -28,-16 -18,-10 -7,-2 5,5 13,15 22,20 28,26 36,28 41,30 43,26 48,25 31,15 28,13 22,13 21,7 18,10 10,6 7,2 3,3 z"
   id="path214"
   inkscape:connector-curvature="0"
   style="fill:#000000;stroke:none" />
         <path
   d="m 10624,15876 h -3 -10 l -17,-2 -21,-3 -23,-5 -25,-5 -28,-10 -28,-13 -41,-20 -45,-23 -44,-20 -40,-21 -36,-17 -28,-16 -18,-10 -7,-2 5,5 13,15 22,20 28,26 36,28 41,30 43,26 48,25 31,15 28,13 22,13 21,7 18,10 10,6 7,2 3,3 z"
   id="path216"
   inkscape:connector-curvature="0"
   style="fill:none;stroke:#000000" />
         <path
   d="m 10596,15986 h -2 -11 l -15,-3 -20,-2 -23,-5 -25,-8 -28,-10 -28,-13 -44,-20 -43,-23 -46,-23 -43,-20 -38,-21 -28,-15 -20,-10 -8,-3 5,5 16,16 22,20 31,28 38,30 41,31 45,28 49,25 33,16 30,15 28,18 26,15 20,15 15,10 13,8 2,2 z"
   id="path218"
   inkscape:connector-curvature="0"
   style="fill:#000000;stroke:none" />
         <path
   d="m 10596,15986 h -2 -11 l -15,-3 -20,-2 -23,-5 -25,-8 -28,-10 -28,-13 -44,-20 -43,-23 -46,-23 -43,-20 -38,-21 -28,-15 -20,-10 -8,-3 5,5 16,16 22,20 31,28 38,30 41,31 45,28 49,25 33,16 30,15 28,18 26,15 20,15 15,10 13,8 2,2 z"
   id="path220"
   inkscape:connector-curvature="0"
   style="fill:none;stroke:#000000" />
         <path
   d="m 10606,16100 h -2 -10 l -16,-3 -20,-2 -23,-5 -25,-8 -28,-10 -28,-13 -41,-20 -43,-20 -41,-18 -40,-15 -33,-16 -28,-10 -18,-7 -5,-3 5,5 13,10 20,18 25,23 33,23 41,28 43,25 46,26 33,15 30,15 28,18 26,15 20,15 15,11 13,7 3,3 z"
   id="path222"
   inkscape:connector-curvature="0"
   style="fill:#000000;stroke:none" />
         <path
   d="m 10606,16100 h -2 -10 l -16,-3 -20,-2 -23,-5 -25,-8 -28,-10 -28,-13 -41,-20 -43,-20 -41,-18 -40,-15 -33,-16 -28,-10 -18,-7 -5,-3 5,5 13,10 20,18 25,23 33,23 41,28 43,25 46,26 33,15 30,15 28,18 26,15 20,15 15,11 13,7 3,3 z"
   id="path224"
   inkscape:connector-curvature="0"
   style="fill:none;stroke:#000000" />
         <path
   d="m 10616,16214 h -2 -10 l -16,-2 -20,-3 -23,-5 -25,-7 -28,-11 -28,-12 -41,-21 -43,-20 -41,-18 -35,-18 -33,-15 -26,-10 -17,-8 -5,-2 5,5 10,10 20,20 26,21 30,28 38,25 43,26 46,25 33,15 33,18 33,18 31,18 28,15 20,13 13,7 5,3 z"
   id="path226"
   inkscape:connector-curvature="0"
   style="fill:#000000;stroke:none" />
         <path
   d="m 10616,16214 h -2 -10 l -16,-2 -20,-3 -23,-5 -25,-7 -28,-11 -28,-12 -41,-21 -43,-20 -41,-18 -35,-18 -33,-15 -26,-10 -17,-8 -5,-2 5,5 10,10 20,20 26,21 30,28 38,25 43,26 46,25 33,15 33,18 33,18 31,18 28,15 20,13 13,7 5,3 z"
   id="path228"
   inkscape:connector-curvature="0"
   style="fill:none;stroke:#000000" />
         <path
   d="m 10627,16329 -349,160 265,-214 z"
   id="path230"
   inkscape:connector-curvature="0"
   style="fill:#000000;stroke:none" />
         <path
   d="m 10627,16329 -349,160 265,-214 z"
   id="path232"
   inkscape:connector-curvature="0"
   style="fill:none;stroke:#000000" />
         <path
   d="m 10085,16771 216,-308 -155,130 z"
   id="path234"
   inkscape:connector-curvature="0"
   style="fill:#000000;stroke:none" />
         <path
   d="m 10085,16771 216,-308 -155,130 z"
   id="path236"
   inkscape:connector-curvature="0"
   style="fill:none;stroke:#000000" />
         <path
   d="m 9099,15470 6,8 15,25 23,36 28,43 30,45 33,49 31,43 28,35 33,34 43,38 48,38 48,38 46,33 41,25 25,18 10,8 -10,-5 -30,-16 -46,-25 -51,-31 -56,-33 -51,-38 -45,-38 -31,-35 -15,-26 -23,-40 -28,-49 -28,-50 -28,-49 -23,-40 -17,-31 z"
   id="path238"
   inkscape:connector-curvature="0"
   style="fill:#000000;stroke:none" />
         <path
   d="m 9099,15470 6,8 15,25 23,36 28,43 30,45 33,49 31,43 28,35 33,34 43,38 48,38 48,38 46,33 41,25 25,18 10,8 -10,-5 -30,-16 -46,-25 -51,-31 -56,-33 -51,-38 -45,-38 -31,-35 -15,-26 -23,-40 -28,-49 -28,-50 -28,-49 -23,-40 -17,-31 z"
   id="path240"
   inkscape:connector-curvature="0"
   style="fill:none;stroke:#000000" />
         <path
   d="m 9099,15569 3,5 13,18 15,25 20,33 26,33 28,36 28,35 28,31 38,30 48,33 58,36 59,36 56,30 45,28 31,15 13,8 -13,-5 -36,-15 -50,-21 -61,-28 -66,-30 -61,-31 -56,-35 -38,-31 -28,-33 -26,-38 -20,-38 -20,-41 -13,-33 -13,-28 -5,-17 z"
   id="path242"
   inkscape:connector-curvature="0"
   style="fill:#000000;stroke:none" />
         <path
   d="m 9099,15569 3,5 13,18 15,25 20,33 26,33 28,36 28,35 28,31 38,30 48,33 58,36 59,36 56,30 45,28 31,15 13,8 -13,-5 -36,-15 -50,-21 -61,-28 -66,-30 -61,-31 -56,-35 -38,-31 -28,-33 -26,-38 -20,-38 -20,-41 -13,-33 -13,-28 -5,-17 z"
   id="path244"
   inkscape:connector-curvature="0"
   style="fill:none;stroke:#000000" />
         <path
   d="m 9707,14825 5,7 13,21 20,30 28,36 30,43 36,40 38,44 38,35 41,36 45,35 44,38 40,36 36,31 28,25 18,18 7,5 -10,-5 -30,-18 -44,-23 -50,-28 -54,-30 -51,-31 -40,-28 -28,-23 -21,-25 -25,-41 -25,-48 -28,-51 -23,-48 -20,-43 -13,-28 z"
   id="path246"
   inkscape:connector-curvature="0"
   style="fill:#000000;stroke:none" />
         <path
   d="m 9707,14825 5,7 13,21 20,30 28,36 30,43 36,40 38,44 38,35 41,36 45,35 44,38 40,36 36,31 28,25 18,18 7,5 -10,-5 -30,-18 -44,-23 -50,-28 -54,-30 -51,-31 -40,-28 -28,-23 -21,-25 -25,-41 -25,-48 -28,-51 -23,-48 -20,-43 -13,-28 z"
   id="path248"
   inkscape:connector-curvature="0"
   style="fill:none;stroke:#000000" />
         <path
   d="m 9671,14916 5,8 18,20 23,28 33,33 38,38 41,38 40,33 44,28 43,26 45,25 46,28 43,25 36,23 30,18 18,13 8,5 -13,-5 -33,-16 -48,-22 -56,-26 -58,-28 -56,-28 -46,-28 -31,-20 -22,-23 -28,-30 -28,-36 -28,-38 -26,-33 -20,-28 -13,-20 z"
   id="path250"
   inkscape:connector-curvature="0"
   style="fill:#000000;stroke:none" />
         <path
   d="m 9671,14916 5,8 18,20 23,28 33,33 38,38 41,38 40,33 44,28 43,26 45,25 46,28 43,25 36,23 30,18 18,13 8,5 -13,-5 -33,-16 -48,-22 -56,-26 -58,-28 -56,-28 -46,-28 -31,-20 -22,-23 -28,-30 -28,-36 -28,-38 -26,-33 -20,-28 -13,-20 z"
   id="path252"
   inkscape:connector-curvature="0"
   style="fill:none;stroke:#000000" />
         <path
   d="m 8934,19042 8,-28 25,-81 38,-122 49,-147 56,-158 63,-155 64,-140 66,-111 33,-49 38,-53 41,-59 40,-61 43,-63 41,-64 43,-61 41,-63 38,-56 36,-56 30,-48 28,-43 23,-36 18,-25 12,-18 3,-5 673,-424 -719,401 -5,5 -10,15 -18,26 -23,30 -28,41 -33,46 -35,50 -41,56 -41,59 -43,61 -43,63 -43,64 -41,63 -40,64 -39,61 -35,58 -54,107 -53,142 -51,158 -48,162 -43,153 -33,124 -23,87 z"
   id="path254"
   inkscape:connector-curvature="0"
   style="fill:#000000;stroke:none" />
         <path
   d="m 8934,19042 8,-28 25,-81 38,-122 49,-147 56,-158 63,-155 64,-140 66,-111 33,-49 38,-53 41,-59 40,-61 43,-63 41,-64 43,-61 41,-63 38,-56 36,-56 30,-48 28,-43 23,-36 18,-25 12,-18 3,-5 673,-424 -719,401 -5,5 -10,15 -18,26 -23,30 -28,41 -33,46 -35,50 -41,56 -41,59 -43,61 -43,63 -43,64 -41,63 -40,64 -39,61 -35,58 -54,107 -53,142 -51,158 -48,162 -43,153 -33,124 -23,87 z"
   id="path256"
   inkscape:connector-curvature="0"
   style="fill:none;stroke:#000000" />
         <path
   d="m 9849,17264 v 0 2 h -3 -5 l -10,-5 -15,-15 -25,-15 -36,-28 -41,-31 -38,-23 -38,-17 -33,-16 -28,-7 -23,-8 -15,-2 h -5 l 5,2 13,8 18,10 25,15 28,18 30,20 31,26 30,25 33,41 16,33 5,28 v 10 z"
   id="path258"
   inkscape:connector-curvature="0"
   style="fill:#000000;stroke:none" />
         <path
   d="m 9849,17264 v 0 2 h -3 -5 l -10,-5 -15,-15 -25,-15 -36,-28 -41,-31 -38,-23 -38,-17 -33,-16 -28,-7 -23,-8 -15,-2 h -5 l 5,2 13,8 18,10 25,15 28,18 30,20 31,26 30,25 33,41 16,33 5,28 v 10 z"
   id="path260"
   inkscape:connector-curvature="0"
   style="fill:none;stroke:#000000" />
         <path
   d="m 9811,17330 v 0 2 h -3 -5 l -10,-7 -18,-11 -25,-20 -33,-28 -43,-30 -49,-28 -50,-23 -49,-20 -45,-18 -36,-10 -25,-8 -8,-3 8,6 22,10 34,17 38,21 43,25 43,28 41,28 33,28 33,41 18,33 5,25 v 10 z"
   id="path262"
   inkscape:connector-curvature="0"
   style="fill:#000000;stroke:none" />
         <path
   d="m 9811,17330 v 0 2 h -3 -5 l -10,-7 -18,-11 -25,-20 -33,-28 -43,-30 -49,-28 -50,-23 -49,-20 -45,-18 -36,-10 -25,-8 -8,-3 8,6 22,10 34,17 38,21 43,25 43,28 41,28 33,28 33,41 18,33 5,25 v 10 z"
   id="path264"
   inkscape:connector-curvature="0"
   style="fill:none;stroke:#000000" />
         <path
   d="m 9747,17398 v 0 3 h -2 -5 l -10,-8 -18,-10 -26,-20 -33,-28 -43,-31 -48,-30 -51,-23 -51,-20 -43,-18 -35,-10 -26,-8 -8,-2 8,5 23,10 30,18 41,20 43,25 44,26 40,30 33,28 33,41 15,35 6,26 v 10 z"
   id="path266"
   inkscape:connector-curvature="0"
   style="fill:#000000;stroke:none" />
         <path
   d="m 9747,17398 v 0 3 h -2 -5 l -10,-8 -18,-10 -26,-20 -33,-28 -43,-31 -48,-30 -51,-23 -51,-20 -43,-18 -35,-10 -26,-8 -8,-2 8,5 23,10 30,18 41,20 43,25 44,26 40,30 33,28 33,41 15,35 6,26 v 10 z"
   id="path268"
   inkscape:connector-curvature="0"
   style="fill:none;stroke:#000000" />
         <path
   d="m 9681,17464 v 0 3 h -2 -5 l -10,-5 -18,-13 -26,-18 -33,-28 -43,-30 -48,-31 -51,-22 -48,-23 -46,-16 -36,-10 -25,-7 -8,-3 8,5 23,10 33,18 38,20 43,26 43,28 41,28 33,28 33,40 18,36 5,25 v 10 z"
   id="path270"
   inkscape:connector-curvature="0"
   style="fill:#000000;stroke:none" />
         <path
   d="m 9681,17464 v 0 3 h -2 -5 l -10,-5 -18,-13 -26,-18 -33,-28 -43,-30 -48,-31 -51,-22 -48,-23 -46,-16 -36,-10 -25,-7 -8,-3 8,5 23,10 33,18 38,20 43,26 43,28 41,28 33,28 33,40 18,36 5,25 v 10 z"
   id="path272"
   inkscape:connector-curvature="0"
   style="fill:none;stroke:#000000" />
         <path
   d="m 9615,17533 v 0 2 h -2 -5 l -11,-7 -15,-10 -25,-21 -36,-28 -43,-30 -48,-28 -51,-23 -48,-20 -43,-18 -36,-10 -25,-8 -8,-2 8,5 22,10 31,18 41,20 43,25 43,28 41,28 33,28 33,49 17,55 8,46 v 21 z"
   id="path274"
   inkscape:connector-curvature="0"
   style="fill:#000000;stroke:none" />
         <path
   d="m 9615,17533 v 0 2 h -2 -5 l -11,-7 -15,-10 -25,-21 -36,-28 -43,-30 -48,-28 -51,-23 -48,-20 -43,-18 -36,-10 -25,-8 -8,-2 8,5 22,10 31,18 41,20 43,25 43,28 41,28 33,28 33,49 17,55 8,46 v 21 z"
   id="path276"
   inkscape:connector-curvature="0"
   style="fill:none;stroke:#000000" />
         <path
   d="m 9575,17660 v -3 l -3,-5 -8,-7 -10,-13 -12,-18 -23,-20 -26,-25 -35,-31 -43,-30 -49,-31 -51,-23 -48,-20 -46,-18 -35,-13 -26,-5 -7,-2 7,5 23,10 33,18 38,20 44,26 43,27 41,28 33,28 35,51 20,56 11,46 2,20 z"
   id="path278"
   inkscape:connector-curvature="0"
   style="fill:#000000;stroke:none" />
         <path
   d="m 9575,17660 v -3 l -3,-5 -8,-7 -10,-13 -12,-18 -23,-20 -26,-25 -35,-31 -43,-30 -49,-31 -51,-23 -48,-20 -46,-18 -35,-13 -26,-5 -7,-2 7,5 23,10 33,18 38,20 44,26 43,27 41,28 33,28 35,51 20,56 11,46 2,20 z"
   id="path280"
   inkscape:connector-curvature="0"
   style="fill:none;stroke:#000000" />
         <path
   d="m 9511,17754 v -3 l -2,-5 -6,-7 -10,-13 -15,-15 -20,-23 -28,-25 -36,-31 -43,-30 -48,-31 -51,-23 -48,-20 -46,-18 -36,-10 -25,-8 -8,-2 8,5 23,10 33,18 38,20 43,26 46,27 41,28 33,28 33,51 20,56 10,46 3,20 z"
   id="path282"
   inkscape:connector-curvature="0"
   style="fill:#000000;stroke:none" />
         <path
   d="m 9511,17754 v -3 l -2,-5 -6,-7 -10,-13 -15,-15 -20,-23 -28,-25 -36,-31 -43,-30 -48,-31 -51,-23 -48,-20 -46,-18 -36,-10 -25,-8 -8,-2 8,5 23,10 33,18 38,20 43,26 46,27 41,28 33,28 33,51 20,56 10,46 3,20 z"
   id="path284"
   inkscape:connector-curvature="0"
   style="fill:none;stroke:#000000" />
         <path
   d="m 9450,17848 v -3 l -2,-5 -8,-7 -10,-13 -13,-15 -23,-23 -25,-25 -36,-31 -43,-30 -48,-31 -51,-23 -51,-20 -43,-18 -36,-10 -25,-8 -8,-2 8,5 23,10 33,15 38,23 43,26 43,27 41,28 33,28 36,51 20,56 10,46 3,20 z"
   id="path286"
   inkscape:connector-curvature="0"
   style="fill:#000000;stroke:none" />
         <path
   d="m 9450,17848 v -3 l -2,-5 -8,-7 -10,-13 -13,-15 -23,-23 -25,-25 -36,-31 -43,-30 -48,-31 -51,-23 -51,-20 -43,-18 -36,-10 -25,-8 -8,-2 8,5 23,10 33,15 38,23 43,26 43,27 41,28 33,28 36,51 20,56 10,46 3,20 z"
   id="path288"
   inkscape:connector-curvature="0"
   style="fill:none;stroke:#000000" />
         <path
   d="m 9387,17942 v -3 l -3,-7 -8,-5 -10,-13 -12,-15 -23,-23 -26,-25 -35,-31 -43,-33 -51,-33 -56,-28 -51,-28 -48,-20 -41,-18 -25,-10 -11,-5 11,5 23,15 35,23 43,28 49,30 45,33 43,33 34,28 35,51 20,56 11,46 2,20 z"
   id="path290"
   inkscape:connector-curvature="0"
   style="fill:#000000;stroke:none" />
         <path
   d="m 9387,17942 v -3 l -3,-7 -8,-5 -10,-13 -12,-15 -23,-23 -26,-25 -35,-31 -43,-33 -51,-33 -56,-28 -51,-28 -48,-20 -41,-18 -25,-10 -11,-5 11,5 23,15 35,23 43,28 49,30 45,33 43,33 34,28 35,51 20,56 11,46 2,20 z"
   id="path292"
   inkscape:connector-curvature="0"
   style="fill:none;stroke:#000000" />
         <path
   d="m 9323,18036 v -3 l -2,-5 -6,-7 -10,-13 -15,-15 -20,-23 -28,-25 -36,-31 -46,-33 -58,-33 -61,-33 -63,-28 -59,-25 -46,-18 -33,-13 -12,-5 10,8 28,17 40,26 49,33 50,35 54,36 46,36 35,30 20,23 18,25 15,26 13,25 10,26 8,17 5,13 3,5 z"
   id="path294"
   inkscape:connector-curvature="0"
   style="fill:#000000;stroke:none" />
         <path
   d="m 9323,18036 v -3 l -2,-5 -6,-7 -10,-13 -15,-15 -20,-23 -28,-25 -36,-31 -46,-33 -58,-33 -61,-33 -63,-28 -59,-25 -46,-18 -33,-13 -12,-5 10,8 28,17 40,26 49,33 50,35 54,36 46,36 35,30 20,23 18,25 15,26 13,25 10,26 8,17 5,13 3,5 z"
   id="path296"
   inkscape:connector-curvature="0"
   style="fill:none;stroke:#000000" />
         <path
   d="m 9270,18130 v 0 h -5 l -5,-3 -11,-2 -15,-10 -23,-13 -28,-23 -35,-28 -23,-18 -26,-17 -30,-18 -36,-20 -35,-21 -38,-23 -38,-17 -36,-21 -38,-18 -33,-17 -31,-16 -28,-12 -22,-10 -18,-8 -10,-5 -5,-3 12,8 36,25 51,36 61,43 66,46 61,46 53,40 38,33 20,23 21,31 18,33 17,28 13,33 10,25 5,18 3,5 z"
   id="path298"
   inkscape:connector-curvature="0"
   style="fill:#000000;stroke:none" />
         <path
   d="m 9270,18130 v 0 h -5 l -5,-3 -11,-2 -15,-10 -23,-13 -28,-23 -35,-28 -23,-18 -26,-17 -30,-18 -36,-20 -35,-21 -38,-23 -38,-17 -36,-21 -38,-18 -33,-17 -31,-16 -28,-12 -22,-10 -18,-8 -10,-5 -5,-3 12,8 36,25 51,36 61,43 66,46 61,46 53,40 38,33 20,23 21,31 18,33 17,28 13,33 10,25 5,18 3,5 z"
   id="path300"
   inkscape:connector-curvature="0"
   style="fill:none;stroke:#000000" />
         <path
   d="m 9183,18249 v 0 h -5 -5 l -13,-2 -15,-10 -20,-13 -28,-20 -36,-28 -23,-18 -30,-20 -36,-23 -40,-26 -43,-25 -44,-25 -48,-26 -46,-28 -45,-20 -41,-23 -41,-20 -33,-18 -30,-15 -23,-11 -13,-7 -5,-3 5,3 10,7 18,13 21,15 27,18 31,23 33,23 36,25 35,26 36,25 35,28 33,23 31,23 25,23 23,18 18,15 23,28 28,40 28,46 28,51 22,46 21,38 12,28 6,10 z"
   id="path302"
   inkscape:connector-curvature="0"
   style="fill:#000000;stroke:none" />
         <path
   d="m 9183,18249 v 0 h -5 -5 l -13,-2 -15,-10 -20,-13 -28,-20 -36,-28 -23,-18 -30,-20 -36,-23 -40,-26 -43,-25 -44,-25 -48,-26 -46,-28 -45,-20 -41,-23 -41,-20 -33,-18 -30,-15 -23,-11 -13,-7 -5,-3 5,3 10,7 18,13 21,15 27,18 31,23 33,23 36,25 35,26 36,25 35,28 33,23 31,23 25,23 23,18 18,15 23,28 28,40 28,46 28,51 22,46 21,38 12,28 6,10 z"
   id="path304"
   inkscape:connector-curvature="0"
   style="fill:none;stroke:#000000" />
         <path
   d="m 9120,18427 v 0 h -5 l -5,-2 -13,-3 -15,-10 -21,-13 -28,-23 -35,-27 -26,-21 -35,-25 -46,-23 -51,-31 -58,-33 -61,-33 -64,-33 -63,-33 -61,-33 -61,-30 -53,-28 -49,-26 -40,-20 -31,-15 -20,-10 -8,-3 5,3 18,12 25,16 36,20 41,28 45,28 51,30 51,36 53,33 54,36 51,33 45,30 43,31 36,25 28,20 20,18 23,28 28,41 28,45 28,49 23,48 20,38 13,28 5,10 z"
   id="path306"
   inkscape:connector-curvature="0"
   style="fill:#000000;stroke:none" />
         <path
   d="m 9120,18427 v 0 h -5 l -5,-2 -13,-3 -15,-10 -21,-13 -28,-23 -35,-27 -26,-21 -35,-25 -46,-23 -51,-31 -58,-33 -61,-33 -64,-33 -63,-33 -61,-33 -61,-30 -53,-28 -49,-26 -40,-20 -31,-15 -20,-10 -8,-3 5,3 18,12 25,16 36,20 41,28 45,28 51,30 51,36 53,33 54,36 51,33 45,30 43,31 36,25 28,20 20,18 23,28 28,41 28,45 28,49 23,48 20,38 13,28 5,10 z"
   id="path308"
   inkscape:connector-curvature="0"
   style="fill:none;stroke:#000000" />
         <path
   d="m 9069,18570 v 0 h -5 l -5,-3 h -10 l -16,-10 -22,-13 -28,-20 -36,-28 -23,-18 -33,-20 -38,-23 -43,-28 -48,-23 -51,-28 -51,-25 -53,-28 -51,-21 -49,-22 -43,-23 -40,-18 -33,-15 -23,-10 -18,-8 -5,-3 5,3 13,8 20,12 25,15 33,21 36,23 38,23 41,25 40,25 44,28 38,26 38,25 35,23 31,23 25,18 18,15 23,30 28,44 28,55 28,56 25,56 21,46 12,30 5,13 z"
   id="path310"
   inkscape:connector-curvature="0"
   style="fill:#000000;stroke:none" />
         <path
   d="m 9069,18570 v 0 h -5 l -5,-3 h -10 l -16,-10 -22,-13 -28,-20 -36,-28 -23,-18 -33,-20 -38,-23 -43,-28 -48,-23 -51,-28 -51,-25 -53,-28 -51,-21 -49,-22 -43,-23 -40,-18 -33,-15 -23,-10 -18,-8 -5,-3 5,3 13,8 20,12 25,15 33,21 36,23 38,23 41,25 40,25 44,28 38,26 38,25 35,23 31,23 25,18 18,15 23,30 28,44 28,55 28,56 25,56 21,46 12,30 5,13 z"
   id="path312"
   inkscape:connector-curvature="0"
   style="fill:none;stroke:#000000" />
         <path
   d="m 9008,18773 v 0 h -5 l -5,-3 -13,-2 -15,-10 -20,-13 -28,-23 -36,-28 -23,-20 -30,-16 -33,-22 -38,-21 -41,-23 -41,-25 -43,-20 -43,-23 -41,-21 -38,-20 -38,-18 -31,-15 -25,-13 -20,-10 -13,-5 -5,-2 13,7 35,26 51,35 61,43 66,46 61,43 53,44 39,33 22,28 28,45 28,54 28,58 26,53 20,49 13,30 5,13 z"
   id="path314"
   inkscape:connector-curvature="0"
   style="fill:#000000;stroke:none" />
         <path
   d="m 9008,18773 v 0 h -5 l -5,-3 -13,-2 -15,-10 -20,-13 -28,-23 -36,-28 -23,-20 -30,-16 -33,-22 -38,-21 -41,-23 -41,-25 -43,-20 -43,-23 -41,-21 -38,-20 -38,-18 -31,-15 -25,-13 -20,-10 -13,-5 -5,-2 13,7 35,26 51,35 61,43 66,46 61,43 53,44 39,33 22,28 28,45 28,54 28,58 26,53 20,49 13,30 5,13 z"
   id="path316"
   inkscape:connector-curvature="0"
   style="fill:none;stroke:#000000" />
         <path
   d="m 9961,17220 h -3 l -5,3 h -7 l -16,-3 -17,-7 -26,-13 -30,-20 -36,-28 -35,-28 -34,-23 -27,-15 -21,-10 -18,-5 -12,-3 h -8 -2 l 2,3 5,2 8,10 13,10 17,16 21,17 22,21 28,25 33,41 16,33 5,28 v 10 z"
   id="path318"
   inkscape:connector-curvature="0"
   style="fill:#000000;stroke:none" />
         <path
   d="m 9961,17220 h -3 l -5,3 h -7 l -16,-3 -17,-7 -26,-13 -30,-20 -36,-28 -35,-28 -34,-23 -27,-15 -21,-10 -18,-5 -12,-3 h -8 -2 l 2,3 5,2 8,10 13,10 17,16 21,17 22,21 28,25 33,41 16,33 5,28 v 10 z"
   id="path320"
   inkscape:connector-curvature="0"
   style="fill:none;stroke:#000000" />
         <path
   d="m 9994,17182 v 0 0 0 l -5,-2 -10,-5 -18,-13 -26,-18 -35,-25 -20,-15 -21,-13 -18,-10 -15,-8 -13,-8 -10,-5 -5,-2 h -2 v 0 2 5 l 2,6 5,12 13,13 15,20 26,23 33,41 15,35 5,26 v 10 z"
   id="path322"
   inkscape:connector-curvature="0"
   style="fill:#000000;stroke:none" />
         <path
   d="m 9994,17182 v 0 0 0 l -5,-2 -10,-5 -18,-13 -26,-18 -35,-25 -20,-15 -21,-13 -18,-10 -15,-8 -13,-8 -10,-5 -5,-2 h -2 v 0 2 5 l 2,6 5,12 13,13 15,20 26,23 33,41 15,35 5,26 v 10 z"
   id="path324"
   inkscape:connector-curvature="0"
   style="fill:none;stroke:#000000" />
         <path
   d="m 10106,17144 v 0 3 h -5 l -8,-3 -13,-2 -20,-10 -28,-16 -38,-23 -26,-15 -20,-13 -18,-10 -12,-10 -13,-7 -8,-6 -2,-2 h -3 v 0 l -2,2 v 6 l 2,7 8,10 10,16 15,15 26,28 30,35 10,28 -2,18 -3,5 z"
   id="path326"
   inkscape:connector-curvature="0"
   style="fill:#000000;stroke:none" />
         <path
   d="m 10106,17144 v 0 3 h -5 l -8,-3 -13,-2 -20,-10 -28,-16 -38,-23 -26,-15 -20,-13 -18,-10 -12,-10 -13,-7 -8,-6 -2,-2 h -3 v 0 l -2,2 v 6 l 2,7 8,10 10,16 15,15 26,28 30,35 10,28 -2,18 -3,5 z"
   id="path328"
   inkscape:connector-curvature="0"
   style="fill:none;stroke:#000000" />
         <path
   d="m 10164,17114 -5,-3 -13,-5 -23,-10 -33,-20 -22,-16 -21,-12 -18,-10 -15,-11 -13,-7 -7,-3 -5,-5 h -3 v 0 3 5 l 3,7 5,11 13,15 15,20 25,23 28,33 5,18 -5,7 -5,3 z"
   id="path330"
   inkscape:connector-curvature="0"
   style="fill:#000000;stroke:none" />
         <path
   d="m 10164,17114 -5,-3 -13,-5 -23,-10 -33,-20 -22,-16 -21,-12 -18,-10 -15,-11 -13,-7 -7,-3 -5,-5 h -3 v 0 3 5 l 3,7 5,11 13,15 15,20 25,23 28,33 5,18 -5,7 -5,3 z"
   id="path332"
   inkscape:connector-curvature="0"
   style="fill:none;stroke:#000000" />
         <path
   d="m 10238,17053 -5,2 h -13 -15 l -21,-5 -25,-18 -20,-12 -18,-10 -15,-11 -10,-5 -8,-5 -3,-2 h -2 v 0 l -3,2 v 5 l 3,8 5,13 13,12 17,21 26,23 15,15 5,15 v 10 3 z"
   id="path334"
   inkscape:connector-curvature="0"
   style="fill:#000000;stroke:none" />
         <path
   d="m 10238,17053 -5,2 h -13 -15 l -21,-5 -25,-18 -20,-12 -18,-10 -15,-11 -10,-5 -8,-5 -3,-2 h -2 v 0 l -3,2 v 5 l 3,8 5,13 13,12 17,21 26,23 15,15 5,15 v 10 3 z"
   id="path336"
   inkscape:connector-curvature="0"
   style="fill:none;stroke:#000000" />
         <path
   d="m 10296,17012 -5,3 h -13 -15 l -20,-5 -23,-16 -23,-12 -18,-11 -12,-10 -11,-7 -10,-3 -2,-5 h -3 v 0 l -2,3 v 5 l 2,7 8,10 10,16 18,17 25,26 28,30 3,11 -5,2 h -5 z"
   id="path338"
   inkscape:connector-curvature="0"
   style="fill:#000000;stroke:none" />
         <path
   d="m 10296,17012 -5,3 h -13 -15 l -20,-5 -23,-16 -23,-12 -18,-11 -12,-10 -11,-7 -10,-3 -2,-5 h -3 v 0 l -2,3 v 5 l 2,7 8,10 10,16 18,17 25,26 28,30 3,11 -5,2 h -5 z"
   id="path340"
   inkscape:connector-curvature="0"
   style="fill:none;stroke:#000000" />
         <path
   d="m 10352,16989 h -5 l -10,3 -13,-3 -13,-7 -17,-13 -21,-13 -15,-10 -15,-8 -15,-10 -11,-2 -5,-3 h -2 v 3 l 5,7 15,26 41,48 13,15 2,5 v 0 0 z"
   id="path342"
   inkscape:connector-curvature="0"
   style="fill:#000000;stroke:none" />
         <path
   d="m 10352,16989 h -5 l -10,3 -13,-3 -13,-7 -17,-13 -21,-13 -15,-10 -15,-8 -15,-10 -11,-2 -5,-3 h -2 v 3 l 5,7 15,26 41,48 13,15 2,5 v 0 0 z"
   id="path344"
   inkscape:connector-curvature="0"
   style="fill:none;stroke:#000000" />
         <path
   d="m 10408,16959 h -5 l -10,2 -13,-2 -13,-5 -20,-16 -18,-12 -18,-10 -15,-8 -15,-8 -10,-5 -5,-2 h -3 v 2 l 5,8 18,25 38,46 13,15 5,8 h -3 v 0 z"
   id="path346"
   inkscape:connector-curvature="0"
   style="fill:#000000;stroke:none" />
         <path
   d="m 10408,16959 h -5 l -10,2 -13,-2 -13,-5 -20,-16 -18,-12 -18,-10 -15,-8 -15,-8 -10,-5 -5,-2 h -3 v 2 l 5,8 18,25 38,46 13,15 5,8 h -3 v 0 z"
   id="path348"
   inkscape:connector-curvature="0"
   style="fill:none;stroke:#000000" />
         <path
   d="m 10461,16928 h -5 -10 -13 l -10,-5 -20,-15 -18,-15 -18,-10 -15,-8 -15,-8 -10,-5 -5,-2 h -3 v 2 l 5,8 18,25 38,49 13,15 5,5 h -3 v 0 z"
   id="path350"
   inkscape:connector-curvature="0"
   style="fill:#000000;stroke:none" />
         <path
   d="m 10461,16928 h -5 -10 -13 l -10,-5 -20,-15 -18,-15 -18,-10 -15,-8 -15,-8 -10,-5 -5,-2 h -3 v 2 l 5,8 18,25 38,49 13,15 5,5 h -3 v 0 z"
   id="path352"
   inkscape:connector-curvature="0"
   style="fill:none;stroke:#000000" />
         <path
   d="m 11104,12787 10,5 31,10 41,21 48,27 51,39 43,43 33,53 15,64 -2,68 -16,71 -25,72 -31,63 -30,58 -25,46 -21,31 -7,10 10,-10 23,-26 33,-40 38,-54 35,-58 33,-66 18,-69 5,-66 -18,-63 -38,-56 -48,-51 -56,-41 -56,-35 -48,-26 -33,-15 z"
   id="path354"
   inkscape:connector-curvature="0"
   style="fill:#000000;stroke:none" />
         <path
   d="m 11104,12787 10,5 31,10 41,21 48,27 51,39 43,43 33,53 15,64 -2,68 -16,71 -25,72 -31,63 -30,58 -25,46 -21,31 -7,10 10,-10 23,-26 33,-40 38,-54 35,-58 33,-66 18,-69 5,-66 -18,-63 -38,-56 -48,-51 -56,-41 -56,-35 -48,-26 -33,-15 z"
   id="path356"
   inkscape:connector-curvature="0"
   style="fill:none;stroke:#000000" />
         <path
   d="m 11490,13143 -2,12 -8,33 -10,49 -20,61 -23,61 -33,61 -38,53 -46,41 -51,28 -48,25 -46,18 -43,15 -36,13 -28,7 -17,3 -5,2 v 3 l 2,2 8,6 h 15 l 23,-8 33,-15 46,-31 61,-43 63,-56 56,-66 46,-66 38,-64 28,-55 20,-46 10,-33 z"
   id="path358"
   inkscape:connector-curvature="0"
   style="fill:#000000;stroke:none" />
         <path
   d="m 11490,13143 -2,12 -8,33 -10,49 -20,61 -23,61 -33,61 -38,53 -46,41 -51,28 -48,25 -46,18 -43,15 -36,13 -28,7 -17,3 -5,2 v 3 l 2,2 8,6 h 15 l 23,-8 33,-15 46,-31 61,-43 63,-56 56,-66 46,-66 38,-64 28,-55 20,-46 10,-33 z"
   id="path360"
   inkscape:connector-curvature="0"
   style="fill:none;stroke:#000000" />
         <path
   d="m 11562,13155 -3,13 -8,33 -10,48 -20,61 -23,61 -33,61 -38,54 -46,40 -51,28 -50,21 -51,17 -43,11 -41,10 -28,5 -20,2 h -8 l 3,3 5,5 10,8 18,2 25,-5 36,-13 48,-28 61,-43 63,-56 56,-63 46,-66 38,-64 28,-56 20,-48 11,-30 z"
   id="path362"
   inkscape:connector-curvature="0"
   style="fill:#000000;stroke:none" />
         <path
   d="m 11562,13155 -3,13 -8,33 -10,48 -20,61 -23,61 -33,61 -38,54 -46,40 -51,28 -50,21 -51,17 -43,11 -41,10 -28,5 -20,2 h -8 l 3,3 5,5 10,8 18,2 25,-5 36,-13 48,-28 61,-43 63,-56 56,-63 46,-66 38,-64 28,-56 20,-48 11,-30 z"
   id="path364"
   inkscape:connector-curvature="0"
   style="fill:none;stroke:#000000" />
         <path
   d="m 10202,13415 -5,-23 -10,-59 3,-73 27,-77 33,-38 49,-46 56,-45 61,-43 56,-41 48,-33 33,-23 13,-8 -13,11 -33,25 -46,38 -53,46 -56,53 -48,51 -41,46 -20,40 -18,69 -18,63 -13,49 z"
   id="path366"
   inkscape:connector-curvature="0"
   style="fill:#000000;stroke:none" />
         <path
   d="m 10202,13415 -5,-23 -10,-59 3,-73 27,-77 33,-38 49,-46 56,-45 61,-43 56,-41 48,-33 33,-23 13,-8 -13,11 -33,25 -46,38 -53,46 -56,53 -48,51 -41,46 -20,40 -18,69 -18,63 -13,49 z"
   id="path368"
   inkscape:connector-curvature="0"
   style="fill:none;stroke:#000000" />
         <path
   d="m 10200,13364 v -8 l 2,-15 5,-28 8,-31 10,-35 18,-33 23,-33 30,-28 36,-23 38,-23 38,-20 38,-18 31,-15 25,-10 18,-8 5,-3 -8,5 -15,11 -28,15 -30,23 -33,25 -36,26 -30,30 -26,28 -23,28 -20,30 -20,28 -18,26 -15,23 -13,17 -8,11 z"
   id="path370"
   inkscape:connector-curvature="0"
   style="fill:#000000;stroke:none" />
         <path
   d="m 10200,13364 v -8 l 2,-15 5,-28 8,-31 10,-35 18,-33 23,-33 30,-28 36,-23 38,-23 38,-20 38,-18 31,-15 25,-10 18,-8 5,-3 -8,5 -15,11 -28,15 -30,23 -33,25 -36,26 -30,30 -26,28 -23,28 -20,30 -20,28 -18,26 -15,23 -13,17 -8,11 z"
   id="path372"
   inkscape:connector-curvature="0"
   style="fill:none;stroke:#000000" />
         <path
   d="m 10639,12332 -10,-5 -25,-23 -23,-40 -5,-66 12,-94 21,-102 20,-79 8,-33 -8,33 -15,76 -10,94 5,82 15,61 10,50 5,33 z"
   id="path374"
   inkscape:connector-curvature="0"
   style="fill:#000000;stroke:none" />
         <path
   d="m 10639,12332 -10,-5 -25,-23 -23,-40 -5,-66 12,-94 21,-102 20,-79 8,-33 -8,33 -15,76 -10,94 5,82 15,61 10,50 5,33 z"
   id="path376"
   inkscape:connector-curvature="0"
   style="fill:none;stroke:#000000" />
         <path
   d="m 11119,13973 h -5 l -15,-2 -23,-5 -30,-8 -36,-7 -40,-8 -46,-10 -51,-10 -51,-13 -51,-13 -50,-12 -51,-16 -49,-12 -43,-16 -40,-12 -33,-16 -61,-28 -54,-27 -48,-26 -41,-23 -33,-20 -23,-15 -15,-10 -5,-3 8,3 20,10 33,12 41,18 48,20 51,23 56,23 56,23 30,13 36,12 43,13 43,15 48,16 49,15 48,13 48,15 48,15 44,13 40,10 33,10 31,8 23,7 12,3 z"
   id="path378"
   inkscape:connector-curvature="0"
   style="fill:#000000;stroke:none" />
         <path
   d="m 11119,13973 h -5 l -15,-2 -23,-5 -30,-8 -36,-7 -40,-8 -46,-10 -51,-10 -51,-13 -51,-13 -50,-12 -51,-16 -49,-12 -43,-16 -40,-12 -33,-16 -61,-28 -54,-27 -48,-26 -41,-23 -33,-20 -23,-15 -15,-10 -5,-3 8,3 20,10 33,12 41,18 48,20 51,23 56,23 56,23 30,13 36,12 43,13 43,15 48,16 49,15 48,13 48,15 48,15 44,13 40,10 33,10 31,8 23,7 12,3 z"
   id="path380"
   inkscape:connector-curvature="0"
   style="fill:none;stroke:#000000" />
         <path
   d="m 6348,12477 33,175 1110,-78 -99,-100 z"
   id="path382"
   inkscape:connector-curvature="0"
   style="fill:#000000;stroke:none" />
         <path
   d="m 6348,12477 33,175 1110,-78 -99,-100 z"
   id="path384"
   inkscape:connector-curvature="0"
   style="fill:none;stroke:#000000" />
         <path
   d="m 7727,12447 168,91 1672,-130 z"
   id="path386"
   inkscape:connector-curvature="0"
   style="fill:#000000;stroke:none" />
         <path
   d="m 7727,12447 168,91 1672,-130 z"
   id="path388"
   inkscape:connector-curvature="0"
   style="fill:none;stroke:#000000" />
        </g>
       </g>
      </g>
     </g>
    </g>
   </g>
  </g>
 </g>
</svg>