<?xml version="1.0" encoding="UTF-8" standalone="no"?>
<svg
   xmlns:ooo="http://xml.openoffice.org/svg/export"
   xmlns:dc="http://purl.org/dc/elements/1.1/"
   xmlns:cc="http://creativecommons.org/ns#"
   xmlns:rdf="http://www.w3.org/1999/02/22-rdf-syntax-ns#"
   xmlns:svg="http://www.w3.org/2000/svg"
   xmlns="http://www.w3.org/2000/svg"
   xmlns:sodipodi="http://sodipodi.sourceforge.net/DTD/sodipodi-0.dtd"
   xmlns:inkscape="http://www.inkscape.org/namespaces/inkscape"
   version="1.2"
   width="53.310001mm"
   height="42.27mm"
   viewBox="0 0 5331.0001 4227"
   preserveAspectRatio="xMidYMid"
   xml:space="preserve"
   id="svg153"
   sodipodi:docname="corkpop2.svg"
   style="fill-rule:evenodd;stroke-width:28.22200012;stroke-linejoin:round"
   inkscape:version="0.92.5 (2060ec1f9f, 2020-04-08)"><metadata
   id="metadata157"><rdf:RDF><cc:Work
       rdf:about=""><dc:format>image/svg+xml</dc:format><dc:type
         rdf:resource="http://purl.org/dc/dcmitype/StillImage" /></cc:Work></rdf:RDF></metadata><sodipodi:namedview
   pagecolor="#ffffff"
   bordercolor="#666666"
   borderopacity="1"
   objecttolerance="10"
   gridtolerance="10"
   guidetolerance="10"
   inkscape:pageopacity="0"
   inkscape:pageshadow="2"
   inkscape:window-width="664"
   inkscape:window-height="487"
   id="namedview155"
   showgrid="false"
   inkscape:zoom="0.2102413"
   inkscape:cx="100.76221"
   inkscape:cy="79.861416"
   inkscape:window-x="0"
   inkscape:window-y="0"
   inkscape:window-maximized="0"
   inkscape:current-layer="svg153" />
 <defs
   class="ClipPathGroup"
   id="defs8">
  <clipPath
   id="presentation_clip_path"
   clipPathUnits="userSpaceOnUse">
   <rect
   x="0"
   y="0"
   width="21000"
   height="29700"
   id="rect2" />
  </clipPath>
  <clipPath
   id="presentation_clip_path_shrink"
   clipPathUnits="userSpaceOnUse">
   <rect
   x="21"
   y="29"
   width="20958"
   height="29641"
   id="rect5" />
  </clipPath>
 </defs>
 <defs
   class="TextShapeIndex"
   id="defs12">
  <g
   ooo:slide="id1"
   ooo:id-list="id3"
   id="g10" />
 </defs>
 <defs
   class="EmbeddedBulletChars"
   id="defs44">
  <g
   id="bullet-char-template-57356"
   transform="matrix(4.8828125e-4,0,0,-4.8828125e-4,0,0)">
   <path
   d="M 580,1141 1163,571 580,0 -4,571 Z"
   id="path14"
   inkscape:connector-curvature="0" />
  </g>
  <g
   id="bullet-char-template-57354"
   transform="matrix(4.8828125e-4,0,0,-4.8828125e-4,0,0)">
   <path
   d="M 8,1128 H 1137 V 0 H 8 Z"
   id="path17"
   inkscape:connector-curvature="0" />
  </g>
  <g
   id="bullet-char-template-10146"
   transform="matrix(4.8828125e-4,0,0,-4.8828125e-4,0,0)">
   <path
   d="M 174,0 602,739 174,1481 1456,739 Z M 1358,739 309,1346 659,739 Z"
   id="path20"
   inkscape:connector-curvature="0" />
  </g>
  <g
   id="bullet-char-template-10132"
   transform="matrix(4.8828125e-4,0,0,-4.8828125e-4,0,0)">
   <path
   d="M 2015,739 1276,0 H 717 l 543,543 H 174 v 393 h 1086 l -543,545 h 557 z"
   id="path23"
   inkscape:connector-curvature="0" />
  </g>
  <g
   id="bullet-char-template-10007"
   transform="matrix(4.8828125e-4,0,0,-4.8828125e-4,0,0)">
   <path
   d="m 0,-2 c -7,16 -16,29 -25,39 l 381,530 c -94,256 -141,385 -141,387 0,25 13,38 40,38 9,0 21,-2 34,-5 21,4 42,12 65,25 l 27,-13 111,-251 280,301 64,-25 24,25 c 21,-10 41,-24 62,-43 C 886,937 835,863 770,784 769,783 710,716 594,584 L 774,223 c 0,-27 -21,-55 -63,-84 l 16,-20 C 717,90 699,76 672,76 641,76 570,178 457,381 L 164,-76 c -22,-34 -53,-51 -92,-51 -42,0 -63,17 -64,51 -7,9 -10,24 -10,44 0,9 1,19 2,30 z"
   id="path26"
   inkscape:connector-curvature="0" />
  </g>
  <g
   id="bullet-char-template-10004"
   transform="matrix(4.8828125e-4,0,0,-4.8828125e-4,0,0)">
   <path
   d="M 285,-33 C 182,-33 111,30 74,156 52,228 41,333 41,471 c 0,78 14,145 41,201 34,71 87,106 158,106 53,0 88,-31 106,-94 l 23,-176 c 8,-64 28,-97 59,-98 l 735,706 c 11,11 33,17 66,17 42,0 63,-15 63,-46 V 965 c 0,-36 -10,-64 -30,-84 L 442,47 C 390,-6 338,-33 285,-33 Z"
   id="path29"
   inkscape:connector-curvature="0" />
  </g>
  <g
   id="bullet-char-template-9679"
   transform="matrix(4.8828125e-4,0,0,-4.8828125e-4,0,0)">
   <path
   d="M 813,0 C 632,0 489,54 383,161 276,268 223,411 223,592 c 0,181 53,324 160,431 106,107 249,161 430,161 179,0 323,-54 432,-161 108,-107 162,-251 162,-431 0,-180 -54,-324 -162,-431 C 1136,54 992,0 813,0 Z"
   id="path32"
   inkscape:connector-curvature="0" />
  </g>
  <g
   id="bullet-char-template-8226"
   transform="matrix(4.8828125e-4,0,0,-4.8828125e-4,0,0)">
   <path
   d="m 346,457 c -73,0 -137,26 -191,78 -54,51 -81,114 -81,188 0,73 27,136 81,188 54,52 118,78 191,78 73,0 134,-26 185,-79 51,-51 77,-114 77,-187 0,-75 -25,-137 -76,-188 -50,-52 -112,-78 -186,-78 z"
   id="path35"
   inkscape:connector-curvature="0" />
  </g>
  <g
   id="bullet-char-template-8211"
   transform="matrix(4.8828125e-4,0,0,-4.8828125e-4,0,0)">
   <path
   d="M -4,459 H 1135 V 606 H -4 Z"
   id="path38"
   inkscape:connector-curvature="0" />
  </g>
  <g
   id="bullet-char-template-61548"
   transform="matrix(4.8828125e-4,0,0,-4.8828125e-4,0,0)">
   <path
   d="m 173,740 c 0,163 58,303 173,419 116,115 255,173 419,173 163,0 302,-58 418,-173 116,-116 174,-256 174,-419 0,-163 -58,-303 -174,-418 C 1067,206 928,148 765,148 601,148 462,206 346,322 231,437 173,577 173,740 Z"
   id="path41"
   inkscape:connector-curvature="0" />
  </g>
 </defs>
 <g
   id="g49"
   transform="translate(-7834,-12736)">
  <g
   id="id2"
   class="Master_Slide">
   <g
   id="bg-id2"
   class="Background" />
   <g
   id="bo-id2"
   class="BackgroundObjects" />
  </g>
 </g>
 <g
   class="SlideGroup"
   id="g151"
   transform="translate(-7834,-12736)">
  <g
   id="g149">
   <g
   id="container-id1">
    <g
   id="id1"
   class="Slide"
   clip-path="url(#presentation_clip_path)">
     <g
   class="Page"
   id="g145">
      <g
   class="Graphic"
   id="g143">
       <g
   id="id3">
        <rect
   class="BoundingBox"
   x="7834"
   y="12736"
   width="5331"
   height="4227"
   id="rect51"
   style="fill:none;stroke:none" />
        <defs
   id="defs56">
         <clipPath
   id="clip_path_1"
   clipPathUnits="userSpaceOnUse">
          <path
   d="m 7834,12736 h 5330 v 4226 H 7834 Z"
   id="path53"
   inkscape:connector-curvature="0" />
         </clipPath>
        </defs>
        <g
   clip-path="url(#clip_path_1)"
   id="g140">
         <path
   d="m 9191,14388 -1357,1601 671,74 -280,376 989,222 269,302 23,-15 41,-28 56,-38 66,-46 78,-53 84,-59 89,-61 92,-63 91,-61 86,-61 82,-56 73,-49 61,-43 46,-33 31,-20 12,-8 41,-13 38,-10 38,-10 36,-8 35,-5 33,-5 36,-2 33,-5 33,-3 h 36 l 35,-2 36,-3 38,-5 38,-3 41,-5 40,-5 1174,-173 -388,-635 1298,-737 -894,-620 162,-598 -721,318 -760,-1004 -112,709 -1428,-445 -531,1078 z"
   id="path58"
   inkscape:connector-curvature="0"
   style="fill:#000000;stroke:none" />
         <path
   d="m 10487,14431 -15,16 -8,23 -8,27 -7,31 -8,30 -18,28 -23,28 -35,21 -10,5 -11,2 -10,5 -10,3 -13,3 -10,2 h -10 -10 l -3,-5 6,-3 5,-2 -3,-5 h 13 l 12,-3 11,-5 12,-7 10,-11 11,-7 10,-8 10,-5 3,-8 5,-10 7,-10 8,-8 2,-15 8,-18 10,-17 13,-18 13,-18 15,-18 10,-15 10,-13 h 15 v 3 l -2,2 -3,3 z"
   id="path60"
   inkscape:connector-curvature="0"
   style="fill:#ffffff;stroke:none" />
         <path
   d="m 10797,14993 v -8 l 20,3 23,-8 23,-10 20,-18 18,-20 15,-20 10,-23 3,-20 -3,-26 -10,-30 -15,-31 -20,-33 -26,-30 -28,-33 -30,-33 -33,-34 -33,-27 -36,-28 -33,-26 -33,-20 -30,-15 -31,-13 -25,-5 h -21 l -7,-8 v -15 l 7,-8 31,3 33,7 35,16 36,17 38,21 38,25 36,28 35,31 36,33 30,33 28,35 26,36 20,36 15,35 11,33 2,33 -5,21 -15,22 -23,21 -25,20 -28,15 -31,13 -25,5 z"
   id="path62"
   inkscape:connector-curvature="0"
   style="fill:#ffffff;stroke:none" />
         <path
   d="m 10848,15113 -11,10 -10,7 -10,11 -10,7 -10,8 -13,5 -13,5 -12,5 -10,-3 -16,-5 -23,-5 -28,-5 -25,-5 -23,-5 -20,-2 h -10 v -8 l 23,-8 h 20 l 18,5 20,5 h 23 l 28,-2 30,-15 38,-28 v -16 l 3,-20 3,-20 v -18 h 30 l 5,28 5,15 3,18 z"
   id="path64"
   inkscape:connector-curvature="0"
   style="fill:#ffffff;stroke:none" />
         <path
   d="m 10649,14683 26,18 28,20 28,18 28,20 28,18 25,20 25,21 26,20 v 8 l -8,7 3,3 -3,2 -2,3 h -5 l -8,8 -5,-6 -15,-7 -18,-10 -20,-8 -21,-10 -20,-8 -15,-7 -11,-3 -33,-20 -30,-28 -23,-33 -20,-38 -18,-38 -15,-39 -13,-38 -10,-33 h 7 l 11,15 12,16 13,20 13,18 12,20 11,18 10,18 z"
   id="path66"
   inkscape:connector-curvature="0"
   style="fill:#ffffff;stroke:none" />
         <path
   d="m 10367,14536 h -23 -15 l -12,-3 -11,-2 h -12 l -16,2 -20,5 -30,13 -13,33 -3,35 -2,36 -3,36 -5,10 -5,13 -5,10 v 12 h 3 l 2,-2 3,-3 v -2 l 17,-33 16,-36 10,-35 7,-39 23,-20 h 11 l 12,-5 10,-3 h 11 l 15,3 15,5 h 13 15 l 8,-8 v -5 -7 l -3,-5 -5,2 z"
   id="path68"
   inkscape:connector-curvature="0"
   style="fill:#ffffff;stroke:none" />
         <path
   d="m 10207,14714 -20,35 -23,31 -25,28 -26,25 -25,23 -26,23 -28,20 -30,18 -30,18 -31,15 -30,18 -34,15 -33,15 -33,18 -35,18 -36,18 -23,12 -20,13 -23,13 -20,12 -20,13 -21,15 -23,13 -20,13 h -8 v -15 -16 l 18,-18 26,-17 33,-21 38,-23 43,-20 48,-23 49,-25 53,-26 51,-25 48,-28 48,-28 46,-28 41,-30 35,-28 31,-33 20,-31 h 8 v -7 h 7 v -8 z"
   id="path70"
   inkscape:connector-curvature="0"
   style="fill:#ffffff;stroke:none" />
         <path
   d="m 10611,15148 -43,18 -46,25 -45,31 -46,35 -46,41 -46,46 -45,46 -44,50 -43,51 -40,54 -41,51 -38,50 -36,51 -33,46 -30,43 -26,41 -2,2 -5,-2 v -3 -5 l 12,-25 13,-28 18,-26 18,-28 17,-25 18,-25 18,-23 18,-26 18,-28 15,-28 18,-28 15,-28 18,-25 23,-25 22,-28 26,-28 28,-26 30,-28 31,-28 33,-25 33,-25 33,-26 33,-23 33,-23 33,-20 30,-18 31,-15 28,-13 h 8 v 5 l -8,5 -8,8 z"
   id="path72"
   inkscape:connector-curvature="0"
   style="fill:#ffffff;stroke:none" />
         <path
   d="m 9498,15738 h -7 l 5,-148 10,-147 20,-147 23,-148 10,-48 10,-48 13,-49 10,-51 11,-48 10,-48 10,-51 7,-48 6,2 2,-5 3,-5 h 5 v 8 l -16,114 -22,125 -26,132 -25,135 -26,134 -20,125 -10,117 z"
   id="path74"
   inkscape:connector-curvature="0"
   style="fill:#ffffff;stroke:none" />
         <path
   d="m 9491,15768 h 28 30 28 l 31,-2 30,-3 h 31 l 30,-2 h 28 25 l 26,2 28,5 28,8 30,5 31,10 30,8 31,10 30,10 31,10 30,11 31,10 28,10 28,10 25,8 25,7 -50,-2 -51,-10 -51,-16 -48,-15 -49,-15 -48,-15 -51,-11 -51,-2 h -198 -15 l -18,2 -15,3 h -15 l -15,2 -16,3 -15,3 h -15 -3 -5 l -2,-3 2,-5 z"
   id="path76"
   inkscape:connector-curvature="0"
   style="fill:#ffffff;stroke:none" />
         <path
   d="m 10057,15664 11,8 12,7 10,5 13,6 10,5 10,2 13,8 10,5 43,25 44,26 43,28 41,30 38,33 33,38 30,38 23,46 -36,38 -43,23 -53,13 -56,5 -58,-3 -59,-2 -53,-5 -46,-3 -8,-7 v -13 l 8,-8 46,3 51,5 50,5 54,3 h 48 l 51,-11 43,-17 41,-33 -10,-31 -13,-25 -13,-21 -15,-15 -18,-15 -20,-13 -23,-13 -28,-15 -20,-10 -21,-13 -23,-12 -22,-16 -23,-12 -21,-13 -20,-10 -20,-8 -8,-15 -13,-8 -12,-7 -13,-8 -13,-8 v -5 -7 -3 z"
   id="path78"
   inkscape:connector-curvature="0"
   style="fill:#ffffff;stroke:none" />
         <path
   d="m 9051,15245 15,-16 16,-15 15,-15 15,-15 15,-16 18,-12 15,-15 16,-16 28,-30 25,-31 25,-33 23,-35 26,-36 25,-36 23,-35 25,-33 28,-33 28,-28 31,-28 33,-23 33,-20 38,-13 41,-10 45,-3 16,16 v 7 l -8,-7 h -8 v -3 -3 -2 0 l -5,-3 -5,3 -7,5 -6,3 -40,17 -38,18 -33,18 -28,23 -26,23 -25,23 -20,25 -21,25 -20,26 -20,28 -18,28 -21,28 -22,28 -23,30 -26,28 -28,31 -20,17 -20,18 -21,18 -20,15 -23,18 -23,15 -20,15 z"
   id="path80"
   inkscape:connector-curvature="0"
   style="fill:#ffffff;stroke:none" />
         <path
   d="m 8939,15385 -35,48 -38,43 -41,38 -43,33 -48,31 -49,28 -48,25 -51,26 -53,25 -51,28 -51,28 -48,30 -48,36 -46,41 -46,43 -41,51 h -15 v -5 l 3,-3 2,-3 3,3 28,-33 28,-36 25,-33 26,-35 27,-31 31,-30 33,-28 38,-26 31,-15 33,-15 35,-15 36,-13 35,-13 36,-15 36,-13 33,-15 35,-18 33,-15 31,-20 28,-23 28,-23 25,-26 20,-30 18,-33 5,-28 13,-33 15,-36 23,-35 23,-33 25,-31 28,-23 23,-17 v 5 l 5,2 5,3 -2,5 v 0 h -3 -2 -3 l -25,15 -26,23 -23,28 -22,30 -18,33 -13,36 -8,33 z"
   id="path82"
   inkscape:connector-curvature="0"
   style="fill:#ffffff;stroke:none" />
         <path
   d="m 9874,15959 h 74 l 31,8 15,17 15,16 18,12 18,13 -8,8 v 7 l -8,8 h -7 l -8,8 h -15 l -53,10 -51,18 -46,22 -46,28 -40,33 -39,39 -33,43 -30,43 h -5 -8 l -5,-3 3,-5 40,-45 36,-44 33,-38 38,-38 38,-33 46,-25 51,-21 63,-15 h 5 l 3,3 2,2 -2,3 -8,7 3,5 -5,3 -5,2 v 6 l -13,-21 -13,-18 -12,-10 -16,-5 -15,-5 h -18 -20 -25 v -23 l 7,-7 h 8 z"
   id="path84"
   inkscape:connector-curvature="0"
   style="fill:#ffffff;stroke:none" />
         <path
   d="m 9697,16145 -21,38 -20,35 -18,38 -20,36 -21,38 -17,38 -16,38 -15,41 -5,20 -8,23 -7,21 -15,17 -8,28 -15,36 -18,35 -20,41 -21,36 -18,35 -7,31 -3,23 h -5 -5 -2 l -3,-5 18,-94 23,-87 30,-86 36,-82 40,-78 44,-79 50,-76 51,-77 h 16 l 7,8 3,2 -3,6 h -2 z"
   id="path86"
   inkscape:connector-curvature="0"
   style="fill:#ffffff;stroke:none" />
         <path
   d="m 10301,14884 -12,7 -13,11 -13,7 -13,10 -55,36 -51,30 -51,28 -46,26 -43,23 -41,20 -40,23 -36,23 -33,28 -33,28 -30,33 -28,40 -28,46 -26,54 -25,61 -23,71 -13,38 -12,38 -8,38 -5,41 h -15 v -170 l 7,-41 15,-43 23,-44 21,-35 25,-38 25,-36 26,-33 28,-28 28,-25 28,-26 30,-20 31,-20 30,-18 33,-18 33,-15 36,-18 35,-18 36,-18 38,-17 41,-21 18,-10 15,-10 18,-10 15,-13 15,-10 18,-10 15,-10 18,-8 8,-13 7,-15 8,-15 v -16 l 7,-7 v 2 3 l 5,2 h 3 l -8,11 -5,15 -5,13 -5,12 -5,8 -8,5 -5,8 z"
   id="path88"
   inkscape:connector-curvature="0"
   style="fill:#ffffff;stroke:none" />
         <path
   d="m 9257,16462 h -5 -5 l -5,-2 v -5 l 20,-38 23,-54 25,-61 23,-68 23,-72 18,-63 15,-59 8,-43 5,-38 7,-36 8,-38 10,-35 15,-44 16,-45 12,-43 13,-46 8,-8 5,-2 2,2 v 5 3 l -7,48 -16,94 -17,94 -8,46 -15,38 -15,36 -16,38 -12,35 -16,36 -15,38 -15,36 -15,38 -18,53 -18,54 -18,53 z"
   id="path90"
   inkscape:connector-curvature="0"
   style="fill:#ffffff;stroke:none" />
         <path
   d="m 11193,14439 13,5 13,10 10,10 12,11 13,10 10,7 13,5 13,3 61,-18 38,-51 18,-71 -5,-81 -21,-84 -35,-79 -49,-61 -58,-35 2,-11 11,-2 12,5 18,8 15,10 18,10 13,10 7,8 36,40 25,49 18,56 8,58 2,61 -7,59 -13,55 -18,49 -10,2 -10,5 -13,8 -10,5 -13,5 -10,5 -12,5 h -11 -17 l -18,-2 -18,-5 -15,-5 -18,-8 -15,-8 -16,-10 -15,-12 -10,-16 -13,-28 -15,-35 -13,-41 -12,-41 -8,-38 -8,-33 -2,-20 2,-38 3,-43 3,-44 v -35 l 7,-8 h 21 v 81 l 7,77 13,78 23,79 7,18 10,18 8,20 z"
   id="path92"
   inkscape:connector-curvature="0"
   style="fill:#ffffff;stroke:none" />
         <path
   d="m 10576,13621 -18,7 -18,10 -18,16 -12,12 -28,33 2,31 21,28 33,20 38,5 35,-10 28,-30 10,-56 -7,-8 -3,-3 -2,-5 -5,-5 h -5 l -8,-7 h -8 l -2,-8 2,-5 8,-3 h 8 l 7,8 5,-2 3,5 2,7 5,-2 13,15 -2,53 -21,41 -30,25 -36,13 h -38 l -30,-13 -26,-28 -7,-40 2,-18 8,-18 10,-15 15,-18 18,-13 15,-10 18,-7 z"
   id="path94"
   inkscape:connector-curvature="0"
   style="fill:#ffff7a;stroke:none" />
         <path
   d="m 10576,13621 -18,7 -18,10 -18,16 -12,12 -28,33 2,31 21,28 33,20 38,5 35,-10 28,-30 10,-56 -7,-8 -3,-3 -2,-5 -5,-5 h -5 l -8,-7 h -8 l -2,-8 2,-5 8,-3 h 8 l 7,8 5,-2 3,5 2,7 5,-2 13,15 -2,53 -21,41 -30,25 -36,13 h -38 l -30,-13 -26,-28 -7,-40 2,-18 8,-18 10,-15 15,-18 18,-13 15,-10 18,-7 z"
   id="path96"
   inkscape:connector-curvature="0"
   style="fill:#ffff7a;stroke:none" />
         <path
   d="m 10576,13621 -18,7 -18,10 -18,16 -12,12 -28,33 2,31 21,28 33,20 38,5 35,-10 28,-30 10,-56 -7,-8 -3,-3 -2,-5 -5,-5 h -5 l -8,-7 h -8 l -2,-8 2,-5 8,-3 h 8 l 7,8 5,-2 3,5 2,7 5,-2 13,15 -2,53 -21,41 -30,25 -36,13 h -38 l -30,-13 -26,-28 -7,-40 2,-18 8,-18 10,-15 15,-18 18,-13 15,-10 18,-7 z"
   id="path98"
   inkscape:connector-curvature="0"
   style="fill:#ffff7a;stroke:none" />
         <path
   d="m 11231,13969 41,-10 36,-8 30,-5 h 31 l 25,2 30,11 33,12 39,18 v 15 l -6,8 -25,-23 -33,-15 -33,-10 -38,-3 h -36 l -35,5 -36,8 -30,10 v -8 z"
   id="path100"
   inkscape:connector-curvature="0"
   style="fill:#ffffff;stroke:none" />
         <path
   d="m 11651,14292 5,2 2,-2 3,-3 -3,-5 8,8 v 7 l -15,23 -11,20 -7,21 -5,20 -10,20 -13,21 -20,23 -28,20 -23,13 -26,10 -23,7 -25,6 -25,2 -26,3 -25,2 -28,3 h -3 -5 l -2,-3 2,-2 -5,-8 h 3 l 2,-3 3,-2 5,-3 h 13 l 12,-2 h 15 l 13,-3 13,-5 13,-2 12,-5 13,-5 20,-11 28,-17 31,-23 30,-28 31,-26 25,-28 18,-25 z"
   id="path102"
   inkscape:connector-curvature="0"
   style="fill:#ffffff;stroke:none" />
         <path
   d="m 11867,14330 -8,7 v 10 l -3,11 -5,12 v 11 l -20,25 -23,23 -23,20 -23,18 -22,15 -16,10 -12,11 -8,5 h -10 -3 v -3 l -2,-5 h -8 l -13,-10 -15,-10 -15,-10 -15,-8 -8,-31 23,-20 h 20 l 38,20 28,-7 21,-13 15,-13 10,-15 8,-13 5,-10 5,-10 5,-5 v -15 l 2,-16 3,-15 v -15 l 8,-5 v -26 l 2,-28 3,-25 2,-25 -5,-49 -13,-40 -17,-38 -26,-33 -33,-26 -35,-25 -41,-18 -43,-15 h -10 l -18,2 -23,5 -25,5 -28,5 -23,6 -23,5 -13,2 3,-5 -3,-2 -2,-3 -5,3 33,-16 38,-10 35,-8 38,-2 h 38 l 39,5 38,10 35,13 33,15 31,20 28,23 25,28 18,31 15,33 10,38 3,41 v 25 l -3,25 -2,28 -3,26 -2,13 -8,12 -2,10 z"
   id="path104"
   inkscape:connector-curvature="0"
   style="fill:#ffffff;stroke:none" />
         <path
   d="m 10627,14358 v -133 l 7,-35 21,-38 30,-38 36,-41 38,-41 38,-38 33,-33 25,-30 18,-26 23,-35 25,-46 26,-48 25,-49 23,-45 18,-41 12,-28 18,-76 5,-77 v -78 l 5,-79 6,-46 5,-46 2,-45 3,-46 v -3 -5 l 2,-2 5,2 13,56 13,59 10,58 2,56 -2,63 -8,59 -15,56 -15,51 -23,51 -23,48 -28,53 -28,54 -10,22 -10,21 -10,23 -13,23 -10,20 -13,20 -13,21 -15,20 -41,48 -38,46 -38,46 -33,51 -30,50 -23,54 -15,61 -5,63 h -3 l -3,3 -2,2 2,3 -7,-8 h -8 z"
   id="path106"
   inkscape:connector-curvature="0"
   style="fill:#ffa514;stroke:none" />
         <path
   d="m 11216,14861 38,-8 33,-2 h 33 l 31,2 28,3 25,7 26,8 25,8 23,7 25,8 23,10 25,8 26,5 28,5 30,5 h 31 162 l 36,-3 36,-5 38,-7 35,-10 36,-16 35,-12 36,-16 38,-17 33,-16 36,-15 35,-13 33,-15 33,-10 33,-8 31,-5 30,-2 31,2 41,5 50,8 51,10 51,13 46,15 38,13 23,15 h 5 l 5,8 -3,7 h -12 l -41,-12 -38,-13 -41,-10 -40,-13 -41,-10 -41,-8 -40,-5 -44,-2 -33,2 -33,5 -33,10 -33,11 -33,15 -33,15 -35,18 -39,15 -38,18 -38,18 -40,15 -46,15 -46,10 -48,11 -51,5 -56,2 h -23 -20 l -23,-2 h -23 l -23,-3 -23,-2 -20,-3 -23,-5 -35,-10 -36,-16 -41,-15 -43,-18 -40,-12 -41,-13 -38,-5 h -36 l -10,2 -8,6 -12,5 -13,2 z"
   id="path108"
   inkscape:connector-curvature="0"
   style="fill:#ffffff;stroke:none" />
         <path
   d="m 11216,14861 38,-8 33,-2 h 33 l 31,2 28,3 25,7 26,8 25,8 23,7 25,8 23,10 25,8 26,5 28,5 30,5 h 31 162 l 36,-3 36,-5 38,-7 35,-10 36,-16 35,-12 36,-16 38,-17 33,-16 36,-15 35,-13 33,-15 33,-10 33,-8 31,-5 30,-2 31,2 41,5 50,8 51,10 51,13 46,15 38,13 23,15 h 5 l 5,8 -3,7 h -12 l -41,-12 -38,-13 -41,-10 -40,-13 -41,-10 -41,-8 -40,-5 -44,-2 -33,2 -33,5 -33,10 -33,11 -33,15 -33,15 -35,18 -39,15 -38,18 -38,18 -40,15 -46,15 -46,10 -48,11 -51,5 -56,2 h -23 -20 l -23,-2 h -23 l -23,-3 -23,-2 -20,-3 -23,-5 -35,-10 -36,-16 -41,-15 -43,-18 -40,-12 -41,-13 -38,-5 h -36 l -10,2 -8,6 -12,5 -13,2 z"
   id="path110"
   inkscape:connector-curvature="0"
   style="fill:#ffa514;stroke:none" />
         <path
   d="m 10405,14213 -20,-36 -33,-28 -38,-28 -43,-28 -46,-28 -43,-35 -41,-41 -30,-51 -21,-56 -15,-68 -15,-77 -15,-81 -18,-79 -18,-71 -25,-58 -28,-41 -8,-5 -15,-10 -18,-13 -23,-13 -20,-10 -18,-13 -15,-7 -10,-3 v -7 l 7,-8 13,5 20,5 21,5 25,8 20,10 23,8 16,5 10,7 30,41 26,59 20,71 18,79 15,83 15,79 18,71 20,56 28,44 31,40 35,36 38,33 39,33 38,33 33,35 33,41 v 5 l -3,3 h -7 z"
   id="path112"
   inkscape:connector-curvature="0"
   style="fill:#ffffff;stroke:none" />
         <path
   d="m 10405,14213 -20,-33 -33,-31 -38,-25 -46,-28 -45,-31 -44,-33 -40,-40 -31,-51 -20,-56 -15,-69 -16,-76 -15,-81 -18,-79 -17,-71 -26,-59 -28,-40 -7,-8 -16,-10 -17,-10 -21,-13 -20,-13 -20,-10 -13,-8 -10,-2 v -8 l 7,-7 13,2 18,5 23,8 25,7 23,8 20,8 16,7 10,5 30,39 26,58 20,71 18,82 15,83 15,79 18,71 20,56 26,46 30,38 36,38 38,33 35,31 39,33 35,35 33,41 3,5 -5,3 h -5 z"
   id="path114"
   inkscape:connector-curvature="0"
   style="fill:#ffa514;stroke:none" />
         <path
   d="m 11879,15885 v 5 l 5,3 5,2 -2,6 h -125 l -43,-11 -51,-28 -53,-43 -56,-51 -51,-53 -45,-56 -36,-48 -25,-41 -36,-74 -23,-63 -20,-54 -21,-48 -25,-46 -36,-45 -50,-51 -71,-56 -6,-8 -2,-5 5,-2 h 5 l 5,2 20,10 21,13 23,15 23,18 22,18 21,18 18,17 15,16 28,33 23,35 20,36 20,38 18,38 18,38 15,38 20,39 13,20 18,25 18,26 25,30 25,28 28,31 31,30 30,28 31,28 33,26 33,22 30,18 31,18 30,10 26,5 z"
   id="path116"
   inkscape:connector-curvature="0"
   style="fill:#ffa514;stroke:none" />
         <path
   d="m 10804,15303 8,21 5,22 5,26 3,20 2,120 v 86 l -10,81 -35,97 h -8 v -8 l 5,-30 8,-33 7,-31 3,-30 v -216 l -3,-33 -5,-33 -5,-33 -2,-33 h 15 l -3,5 3,2 2,3 z"
   id="path118"
   inkscape:connector-curvature="0"
   style="fill:#ffa514;stroke:none" />
         <path
   d="m 9595,14594 h -8 v -13 l 33,-7 33,-13 33,-13 33,-17 33,-16 33,-15 34,-10 33,-5 h 25 l 25,-3 26,3 h 25 l 26,2 22,3 26,2 h 25 v 16 h -20 l -23,2 h -28 l -30,3 -31,5 -35,2 -36,5 -36,6 -35,5 -36,7 -33,8 -30,7 -26,8 -25,10 -18,8 z"
   id="path120"
   inkscape:connector-curvature="0"
   style="fill:#ffffff;stroke:none" />
         <path
   d="m 9592,14597 h -7 v -16 l 33,-7 33,-10 33,-16 35,-15 33,-18 33,-12 34,-13 33,-5 h 25 25 26 l 23,2 25,3 h 25 l 23,2 h 26 v 16 h -21 l -22,2 h -28 l -31,3 -33,5 -36,2 -35,5 -36,6 -35,7 -33,5 -33,8 -31,7 -28,11 -23,7 -20,10 z"
   id="path122"
   inkscape:connector-curvature="0"
   style="fill:#ffa514;stroke:none" />
         <path
   d="m 10022,14131 -54,69 -15,53 15,39 36,20 h 43 l 43,-18 36,-38 13,-58 -5,-8 v -5 l -3,-3 -2,-5 -3,-2 h -3 -2 -3 v 0 0 -3 -2 -3 h -7 l -8,-8 -5,3 -3,-3 3,-10 5,-5 h 5 l 10,3 11,2 5,3 -3,5 3,2 2,3 3,-3 7,8 v 8 l 16,15 -8,53 -18,41 -28,30 -33,21 -35,10 -36,-5 -30,-13 -26,-28 -10,-20 -3,-23 v -20 l 5,-21 8,-20 13,-18 13,-18 17,-15 13,-7 18,-8 18,-10 12,-3 h 3 l 2,3 3,2 -3,3 z"
   id="path124"
   inkscape:connector-curvature="0"
   style="fill:#ffffff;stroke:none" />
         <path
   d="m 10022,14124 -56,68 -13,54 15,38 33,18 46,2 43,-18 36,-38 13,-58 -5,-8 v -7 h -3 -2 -3 v 0 0 -3 -2 -3 h -3 -2 -3 v 0 0 -3 -2 -3 h -7 l -8,-7 -5,5 -3,-5 3,-8 5,-5 h 5 l 10,3 8,2 h 8 l -3,5 3,3 2,2 3,-2 7,7 v 8 l 16,15 -8,54 -18,40 -28,31 -33,20 -38,8 -33,-3 -33,-15 -23,-25 -10,-23 -5,-21 v -20 l 5,-20 8,-18 12,-20 16,-16 17,-15 13,-8 18,-10 18,-7 12,-5 h 3 l 5,2 v 3 l -3,2 z"
   id="path126"
   inkscape:connector-curvature="0"
   style="fill:#ffff7a;stroke:none" />
         <path
   d="m 11084,15354 -43,20 -38,31 -26,38 -15,41 v 40 l 18,33 38,26 58,7 23,-5 26,-12 22,-18 21,-23 18,-25 7,-26 v -25 l -13,-21 h -7 v -15 h -8 l -23,-13 3,-5 -3,-2 -2,-3 -5,3 7,-8 v -5 l 3,-2 2,-3 3,3 8,7 h 7 l 13,10 13,11 12,10 13,12 -5,82 -33,56 -51,35 -61,15 -56,-7 -45,-28 -26,-46 8,-68 7,-21 13,-23 15,-17 18,-21 20,-15 21,-15 20,-10 23,-6 z"
   id="path128"
   inkscape:connector-curvature="0"
   style="fill:#ffffff;stroke:none" />
         <path
   d="m 11084,15354 -43,20 -38,31 -26,38 -15,41 v 40 l 18,33 38,26 58,7 23,-5 26,-12 22,-18 21,-23 18,-25 7,-26 v -25 l -13,-21 h -7 v -15 h -8 l -23,-13 3,-5 -3,-2 -2,-3 -5,3 7,-8 v -5 l 3,-2 2,-3 3,3 8,7 h 7 l 13,10 13,11 12,10 13,12 -5,82 -33,56 -51,35 -61,15 -56,-7 -45,-28 -26,-46 8,-68 7,-21 13,-23 15,-17 18,-21 20,-15 21,-15 20,-10 23,-6 z"
   id="path130"
   inkscape:connector-curvature="0"
   style="fill:#ffff7a;stroke:none" />
         <path
   d="m 10609,13260 -13,2 -10,8 -10,10 -10,10 -41,41 -8,35 18,31 31,20 38,5 38,-10 30,-30 10,-56 -5,-8 v -5 l -5,-5 -5,-5 h -5 l -7,-8 -6,3 -2,-5 v -8 -3 h 15 l 8,8 5,-2 2,5 v 5 l 5,-3 16,15 -3,54 -20,40 -31,28 -35,13 h -38 l -31,-15 -25,-26 -8,-40 3,-18 7,-18 10,-15 16,-18 15,-13 18,-10 18,-7 z"
   id="path132"
   inkscape:connector-curvature="0"
   style="fill:#ffff7a;stroke:none" />
         <path
   d="m 12438,14032 -23,5 -20,8 -13,8 -12,12 -10,16 -11,15 -10,20 -13,21 6,35 20,28 30,18 36,5 36,-5 33,-20 22,-39 8,-53 -8,-8 3,-5 -5,-2 -5,-3 2,-5 -7,-7 h -8 l -8,-8 6,-13 h 12 l 16,10 10,11 h 7 l 8,17 2,21 -2,23 -5,17 -20,46 -31,31 -36,12 -38,3 -38,-8 -30,-15 -23,-20 -8,-23 3,-23 7,-28 11,-26 15,-27 18,-23 22,-18 26,-10 h 25 z"
   id="path134"
   inkscape:connector-curvature="0"
   style="fill:#ffff7a;stroke:none" />
         <path
   d="m 9651,13654 -18,5 -18,12 -18,13 -12,13 -28,33 v 33 l 20,28 33,18 38,7 38,-10 28,-30 10,-56 -7,-8 v -5 l -5,-5 -5,-5 h -5 l -8,-8 h -5 l -3,-5 v -5 -5 h 16 l 7,8 5,-3 3,5 2,8 5,-3 16,15 -5,54 -21,40 -30,26 -36,15 h -38 l -30,-15 -26,-28 -7,-41 2,-18 8,-15 10,-18 15,-15 18,-13 15,-12 18,-8 z"
   id="path136"
   inkscape:connector-curvature="0"
   style="fill:#ffff7a;stroke:none" />
         <path
   d="m 12014,15189 -15,7 -18,11 -18,15 -15,13 -28,33 2,30 21,28 33,20 38,6 36,-11 27,-30 11,-56 -5,-8 v -2 l -6,-5 -5,-5 h -5 l -7,-8 h -5 l -3,-5 v -8 -2 h 15 l 8,7 5,-2 3,5 2,7 3,-2 15,13 -3,53 -20,41 -30,28 -36,12 h -38 l -31,-12 -25,-28 -8,-41 3,-18 7,-18 11,-15 15,-18 15,-12 18,-10 18,-8 z"
   id="path138"
   inkscape:connector-curvature="0"
   style="fill:#ffff7a;stroke:none" />
        </g>
       </g>
      </g>
     </g>
    </g>
   </g>
  </g>
 </g>
</svg>