<?xml version="1.0" encoding="UTF-8" standalone="no"?>
<svg
   xmlns:ooo="http://xml.openoffice.org/svg/export"
   xmlns:dc="http://purl.org/dc/elements/1.1/"
   xmlns:cc="http://creativecommons.org/ns#"
   xmlns:rdf="http://www.w3.org/1999/02/22-rdf-syntax-ns#"
   xmlns:svg="http://www.w3.org/2000/svg"
   xmlns="http://www.w3.org/2000/svg"
   xmlns:sodipodi="http://sodipodi.sourceforge.net/DTD/sodipodi-0.dtd"
   xmlns:inkscape="http://www.inkscape.org/namespaces/inkscape"
   version="1.2"
   width="27.309999mm"
   height="33.099998mm"
   viewBox="0 0 2730.9999 3309.9998"
   preserveAspectRatio="xMidYMid"
   xml:space="preserve"
   id="svg75"
   sodipodi:docname="cross.svg"
   style="fill-rule:evenodd;stroke-width:28.22200012;stroke-linejoin:round"
   inkscape:version="0.92.5 (2060ec1f9f, 2020-04-08)"><metadata
   id="metadata79"><rdf:RDF><cc:Work
       rdf:about=""><dc:format>image/svg+xml</dc:format><dc:type
         rdf:resource="http://purl.org/dc/dcmitype/StillImage" /></cc:Work></rdf:RDF></metadata><sodipodi:namedview
   pagecolor="#ffffff"
   bordercolor="#666666"
   borderopacity="1"
   objecttolerance="10"
   gridtolerance="10"
   guidetolerance="10"
   inkscape:pageopacity="0"
   inkscape:pageshadow="2"
   inkscape:window-width="664"
   inkscape:window-height="487"
   id="namedview77"
   showgrid="false"
   inkscape:zoom="0.2102413"
   inkscape:cx="51.628347"
   inkscape:cy="62.551179"
   inkscape:window-x="0"
   inkscape:window-y="0"
   inkscape:window-maximized="0"
   inkscape:current-layer="svg75" />
 <defs
   class="ClipPathGroup"
   id="defs8">
  <clipPath
   id="presentation_clip_path"
   clipPathUnits="userSpaceOnUse">
   <rect
   x="0"
   y="0"
   width="21000"
   height="29700"
   id="rect2" />
  </clipPath>
  <clipPath
   id="presentation_clip_path_shrink"
   clipPathUnits="userSpaceOnUse">
   <rect
   x="21"
   y="29"
   width="20958"
   height="29641"
   id="rect5" />
  </clipPath>
 </defs>
 <defs
   class="TextShapeIndex"
   id="defs12">
  <g
   ooo:slide="id1"
   ooo:id-list="id3"
   id="g10" />
 </defs>
 <defs
   class="EmbeddedBulletChars"
   id="defs44">
  <g
   id="bullet-char-template-57356"
   transform="matrix(4.8828125e-4,0,0,-4.8828125e-4,0,0)">
   <path
   d="M 580,1141 1163,571 580,0 -4,571 Z"
   id="path14"
   inkscape:connector-curvature="0" />
  </g>
  <g
   id="bullet-char-template-57354"
   transform="matrix(4.8828125e-4,0,0,-4.8828125e-4,0,0)">
   <path
   d="M 8,1128 H 1137 V 0 H 8 Z"
   id="path17"
   inkscape:connector-curvature="0" />
  </g>
  <g
   id="bullet-char-template-10146"
   transform="matrix(4.8828125e-4,0,0,-4.8828125e-4,0,0)">
   <path
   d="M 174,0 602,739 174,1481 1456,739 Z M 1358,739 309,1346 659,739 Z"
   id="path20"
   inkscape:connector-curvature="0" />
  </g>
  <g
   id="bullet-char-template-10132"
   transform="matrix(4.8828125e-4,0,0,-4.8828125e-4,0,0)">
   <path
   d="M 2015,739 1276,0 H 717 l 543,543 H 174 v 393 h 1086 l -543,545 h 557 z"
   id="path23"
   inkscape:connector-curvature="0" />
  </g>
  <g
   id="bullet-char-template-10007"
   transform="matrix(4.8828125e-4,0,0,-4.8828125e-4,0,0)">
   <path
   d="m 0,-2 c -7,16 -16,29 -25,39 l 381,530 c -94,256 -141,385 -141,387 0,25 13,38 40,38 9,0 21,-2 34,-5 21,4 42,12 65,25 l 27,-13 111,-251 280,301 64,-25 24,25 c 21,-10 41,-24 62,-43 C 886,937 835,863 770,784 769,783 710,716 594,584 L 774,223 c 0,-27 -21,-55 -63,-84 l 16,-20 C 717,90 699,76 672,76 641,76 570,178 457,381 L 164,-76 c -22,-34 -53,-51 -92,-51 -42,0 -63,17 -64,51 -7,9 -10,24 -10,44 0,9 1,19 2,30 z"
   id="path26"
   inkscape:connector-curvature="0" />
  </g>
  <g
   id="bullet-char-template-10004"
   transform="matrix(4.8828125e-4,0,0,-4.8828125e-4,0,0)">
   <path
   d="M 285,-33 C 182,-33 111,30 74,156 52,228 41,333 41,471 c 0,78 14,145 41,201 34,71 87,106 158,106 53,0 88,-31 106,-94 l 23,-176 c 8,-64 28,-97 59,-98 l 735,706 c 11,11 33,17 66,17 42,0 63,-15 63,-46 V 965 c 0,-36 -10,-64 -30,-84 L 442,47 C 390,-6 338,-33 285,-33 Z"
   id="path29"
   inkscape:connector-curvature="0" />
  </g>
  <g
   id="bullet-char-template-9679"
   transform="matrix(4.8828125e-4,0,0,-4.8828125e-4,0,0)">
   <path
   d="M 813,0 C 632,0 489,54 383,161 276,268 223,411 223,592 c 0,181 53,324 160,431 106,107 249,161 430,161 179,0 323,-54 432,-161 108,-107 162,-251 162,-431 0,-180 -54,-324 -162,-431 C 1136,54 992,0 813,0 Z"
   id="path32"
   inkscape:connector-curvature="0" />
  </g>
  <g
   id="bullet-char-template-8226"
   transform="matrix(4.8828125e-4,0,0,-4.8828125e-4,0,0)">
   <path
   d="m 346,457 c -73,0 -137,26 -191,78 -54,51 -81,114 -81,188 0,73 27,136 81,188 54,52 118,78 191,78 73,0 134,-26 185,-79 51,-51 77,-114 77,-187 0,-75 -25,-137 -76,-188 -50,-52 -112,-78 -186,-78 z"
   id="path35"
   inkscape:connector-curvature="0" />
  </g>
  <g
   id="bullet-char-template-8211"
   transform="matrix(4.8828125e-4,0,0,-4.8828125e-4,0,0)">
   <path
   d="M -4,459 H 1135 V 606 H -4 Z"
   id="path38"
   inkscape:connector-curvature="0" />
  </g>
  <g
   id="bullet-char-template-61548"
   transform="matrix(4.8828125e-4,0,0,-4.8828125e-4,0,0)">
   <path
   d="m 173,740 c 0,163 58,303 173,419 116,115 255,173 419,173 163,0 302,-58 418,-173 116,-116 174,-256 174,-419 0,-163 -58,-303 -174,-418 C 1067,206 928,148 765,148 601,148 462,206 346,322 231,437 173,577 173,740 Z"
   id="path41"
   inkscape:connector-curvature="0" />
  </g>
 </defs>
 <g
   id="g49"
   transform="translate(-9134,-13195)">
  <g
   id="id2"
   class="Master_Slide">
   <g
   id="bg-id2"
   class="Background" />
   <g
   id="bo-id2"
   class="BackgroundObjects" />
  </g>
 </g>
 <g
   class="SlideGroup"
   id="g73"
   transform="translate(-9134,-13195)">
  <g
   id="g71">
   <g
   id="container-id1">
    <g
   id="id1"
   class="Slide"
   clip-path="url(#presentation_clip_path)">
     <g
   class="Page"
   id="g67">
      <g
   class="Graphic"
   id="g65">
       <g
   id="id3">
        <rect
   class="BoundingBox"
   x="9134"
   y="13195"
   width="2731"
   height="3310"
   id="rect51"
   style="fill:none;stroke:none" />
        <defs
   id="defs56">
         <clipPath
   id="clip_path_1"
   clipPathUnits="userSpaceOnUse">
          <path
   d="m 9134,13195 h 2730 v 3309 H 9134 Z"
   id="path53"
   inkscape:connector-curvature="0" />
         </clipPath>
        </defs>
        <g
   clip-path="url(#clip_path_1)"
   id="g62">
         <path
   d="m 10151,14136 h 13 18 23 30 31 35 38 38 39 38 35 l 33,2 h 31 25 l 21,3 h 15 l 30,2 31,3 30,2 h 31 l 30,3 h 31 31 30 v 8 l 3,5 5,2 5,5 86,-5 h 76 l 69,3 59,5 53,7 46,8 40,13 36,10 31,15 25,13 20,15 18,15 18,16 13,12 12,13 13,13 3,15 -16,5 h -17 l -5,8 12,15 13,15 15,10 15,11 13,10 15,10 13,10 13,10 10,18 -3,13 -10,7 -20,8 -23,5 -23,5 -25,5 -21,8 18,10 h 18 18 l 13,5 2,10 5,8 8,5 13,5 12,5 h 13 15 13 l 15,13 18,5 18,8 15,7 -5,13 5,13 8,7 12,3 5,13 v 7 l -7,5 -8,3 -10,2 -13,3 -10,2 -10,8 15,5 15,3 16,5 18,5 15,5 15,5 15,5 16,5 2,5 v 8 l 3,10 7,5 h 16 l 12,3 h 16 l 12,2 13,5 13,5 10,11 10,10 -18,7 -20,5 h -18 l -20,-2 -18,-5 -20,-8 -18,-7 -18,-8 -15,-3 -18,8 -18,13 -13,2 -35,-5 -36,-5 -35,-2 -33,-3 -36,-3 h -33 l -36,-2 h -33 -33 -35 -33 l -34,-3 h -33 l -33,-5 -35,-2 -33,-5 -28,-3 -33,-2 -41,-3 -41,-2 h -45 l -46,-3 h -46 -46 -23 -23 -25 l -25,-3 h -26 -25 -23 -23 -31 -30 -28 l -31,3 h -33 l -30,3 -31,2 -30,3 -31,2 -30,5 -31,5 -33,5 -30,5 -28,6 -31,7 -30,8 -23,5 h -20 l -23,-3 -23,-2 -23,-5 -23,-3 -23,-2 h -23 l -33,2 -33,3 -30,5 -33,2 -34,5 -30,6 -33,5 -33,5 -31,5 -33,5 -33,5 -30,8 -33,5 -33,7 -33,5 -34,8 -25,5 -25,8 -26,7 -23,11 -23,12 -22,13 -21,18 -18,20 -12,-61 -13,-89 -13,-104 -12,-115 -13,-111 -8,-100 -5,-78 -2,-51 h 12 l 21,23 20,17 15,-15 10,-20 11,-18 12,-13 18,-10 15,-7 21,-6 17,-5 21,-2 33,-5 30,-5 33,-5 33,-5 31,-6 33,-2 31,-3 33,-5 h 30 l 33,-2 31,-3 h 30 33 31 33 l 30,3 h 21 l 20,-3 23,-2 20,-5 21,-3 h 23 22 l 23,3 10,2 h 13 15 l 16,-2 12,-3 16,-3 h 15 l 15,-2 5,2 5,6 5,5 h 6 z"
   id="path58"
   inkscape:connector-curvature="0"
   style="fill:#663300;stroke:none" />
         <path
   d="m 9927,16452 11,10 12,10 16,5 17,-3 23,-5 26,-15 30,-25 38,-36 23,13 26,5 25,2 h 25 l 26,-5 20,-7 15,-10 13,-11 8,-15 13,-10 15,-5 18,-3 15,-5 15,-5 15,-7 11,-16 25,-7 28,-13 28,-18 28,-25 28,-26 25,-28 21,-25 20,-28 23,15 23,-2 18,-8 10,-8 15,-109 -3,-231 -15,-315 -25,-367 -31,-381 -33,-358 -28,-305 -20,-211 25,-72 3,-78 -8,-79 -10,-76 -30,-26 -21,-25 -20,-21 -15,-20 -18,-18 -23,-12 -31,-8 -40,-3 -41,-2 -33,-5 -28,-10 -25,-13 -26,-18 -28,-18 -35,-23 -46,-23 -43,-25 -36,-23 -28,-20 -23,-15 -23,-13 -23,-10 -28,-3 h -38 l 18,148 23,147 18,148 5,147 -3,5 -5,5 -5,8 -5,5 v 23 l 3,33 5,35 2,33 10,59 -2,61 5,58 33,54 -8,18 -10,20 -8,18 -5,20 v 18 l 5,20 16,18 25,20 -38,49 -15,43 2,46 16,53 -18,84 -3,132 5,145 13,122 8,8 10,2 10,5 3,8 -11,157 -2,252 5,244 8,140 28,41 7,56 -13,63 -20,69 -2,99 2,99 3,104 -11,105 z"
   id="path60"
   inkscape:connector-curvature="0"
   style="fill:#663300;stroke:none" />
        </g>
       </g>
      </g>
     </g>
    </g>
   </g>
  </g>
 </g>
</svg>