<?xml version="1.0" encoding="UTF-8" standalone="no"?>
<svg
   xmlns:ooo="http://xml.openoffice.org/svg/export"
   xmlns:dc="http://purl.org/dc/elements/1.1/"
   xmlns:cc="http://creativecommons.org/ns#"
   xmlns:rdf="http://www.w3.org/1999/02/22-rdf-syntax-ns#"
   xmlns:svg="http://www.w3.org/2000/svg"
   xmlns="http://www.w3.org/2000/svg"
   xmlns:sodipodi="http://sodipodi.sourceforge.net/DTD/sodipodi-0.dtd"
   xmlns:inkscape="http://www.inkscape.org/namespaces/inkscape"
   version="1.2"
   width="32.509998mm"
   height="45.009998mm"
   viewBox="0 0 3250.9998 4500.9998"
   preserveAspectRatio="xMidYMid"
   xml:space="preserve"
   id="svg189"
   sodipodi:docname="cruzshp2.svg"
   style="fill-rule:evenodd;stroke-width:28.22200012;stroke-linejoin:round"
   inkscape:version="0.92.5 (2060ec1f9f, 2020-04-08)"><metadata
   id="metadata193"><rdf:RDF><cc:Work
       rdf:about=""><dc:format>image/svg+xml</dc:format><dc:type
         rdf:resource="http://purl.org/dc/dcmitype/StillImage" /></cc:Work></rdf:RDF></metadata><sodipodi:namedview
   pagecolor="#ffffff"
   bordercolor="#666666"
   borderopacity="1"
   objecttolerance="10"
   gridtolerance="10"
   guidetolerance="10"
   inkscape:pageopacity="0"
   inkscape:pageshadow="2"
   inkscape:window-width="664"
   inkscape:window-height="487"
   id="namedview191"
   showgrid="false"
   inkscape:zoom="0.2102413"
   inkscape:cx="61.455119"
   inkscape:cy="85.039368"
   inkscape:window-x="0"
   inkscape:window-y="0"
   inkscape:window-maximized="0"
   inkscape:current-layer="svg189" />
 <defs
   class="ClipPathGroup"
   id="defs8">
  <clipPath
   id="presentation_clip_path"
   clipPathUnits="userSpaceOnUse">
   <rect
   x="0"
   y="0"
   width="21000"
   height="29700"
   id="rect2" />
  </clipPath>
  <clipPath
   id="presentation_clip_path_shrink"
   clipPathUnits="userSpaceOnUse">
   <rect
   x="21"
   y="29"
   width="20958"
   height="29641"
   id="rect5" />
  </clipPath>
 </defs>
 <defs
   class="TextShapeIndex"
   id="defs12">
  <g
   ooo:slide="id1"
   ooo:id-list="id3"
   id="g10" />
 </defs>
 <defs
   class="EmbeddedBulletChars"
   id="defs44">
  <g
   id="bullet-char-template-57356"
   transform="matrix(4.8828125e-4,0,0,-4.8828125e-4,0,0)">
   <path
   d="M 580,1141 1163,571 580,0 -4,571 Z"
   id="path14"
   inkscape:connector-curvature="0" />
  </g>
  <g
   id="bullet-char-template-57354"
   transform="matrix(4.8828125e-4,0,0,-4.8828125e-4,0,0)">
   <path
   d="M 8,1128 H 1137 V 0 H 8 Z"
   id="path17"
   inkscape:connector-curvature="0" />
  </g>
  <g
   id="bullet-char-template-10146"
   transform="matrix(4.8828125e-4,0,0,-4.8828125e-4,0,0)">
   <path
   d="M 174,0 602,739 174,1481 1456,739 Z M 1358,739 309,1346 659,739 Z"
   id="path20"
   inkscape:connector-curvature="0" />
  </g>
  <g
   id="bullet-char-template-10132"
   transform="matrix(4.8828125e-4,0,0,-4.8828125e-4,0,0)">
   <path
   d="M 2015,739 1276,0 H 717 l 543,543 H 174 v 393 h 1086 l -543,545 h 557 z"
   id="path23"
   inkscape:connector-curvature="0" />
  </g>
  <g
   id="bullet-char-template-10007"
   transform="matrix(4.8828125e-4,0,0,-4.8828125e-4,0,0)">
   <path
   d="m 0,-2 c -7,16 -16,29 -25,39 l 381,530 c -94,256 -141,385 -141,387 0,25 13,38 40,38 9,0 21,-2 34,-5 21,4 42,12 65,25 l 27,-13 111,-251 280,301 64,-25 24,25 c 21,-10 41,-24 62,-43 C 886,937 835,863 770,784 769,783 710,716 594,584 L 774,223 c 0,-27 -21,-55 -63,-84 l 16,-20 C 717,90 699,76 672,76 641,76 570,178 457,381 L 164,-76 c -22,-34 -53,-51 -92,-51 -42,0 -63,17 -64,51 -7,9 -10,24 -10,44 0,9 1,19 2,30 z"
   id="path26"
   inkscape:connector-curvature="0" />
  </g>
  <g
   id="bullet-char-template-10004"
   transform="matrix(4.8828125e-4,0,0,-4.8828125e-4,0,0)">
   <path
   d="M 285,-33 C 182,-33 111,30 74,156 52,228 41,333 41,471 c 0,78 14,145 41,201 34,71 87,106 158,106 53,0 88,-31 106,-94 l 23,-176 c 8,-64 28,-97 59,-98 l 735,706 c 11,11 33,17 66,17 42,0 63,-15 63,-46 V 965 c 0,-36 -10,-64 -30,-84 L 442,47 C 390,-6 338,-33 285,-33 Z"
   id="path29"
   inkscape:connector-curvature="0" />
  </g>
  <g
   id="bullet-char-template-9679"
   transform="matrix(4.8828125e-4,0,0,-4.8828125e-4,0,0)">
   <path
   d="M 813,0 C 632,0 489,54 383,161 276,268 223,411 223,592 c 0,181 53,324 160,431 106,107 249,161 430,161 179,0 323,-54 432,-161 108,-107 162,-251 162,-431 0,-180 -54,-324 -162,-431 C 1136,54 992,0 813,0 Z"
   id="path32"
   inkscape:connector-curvature="0" />
  </g>
  <g
   id="bullet-char-template-8226"
   transform="matrix(4.8828125e-4,0,0,-4.8828125e-4,0,0)">
   <path
   d="m 346,457 c -73,0 -137,26 -191,78 -54,51 -81,114 -81,188 0,73 27,136 81,188 54,52 118,78 191,78 73,0 134,-26 185,-79 51,-51 77,-114 77,-187 0,-75 -25,-137 -76,-188 -50,-52 -112,-78 -186,-78 z"
   id="path35"
   inkscape:connector-curvature="0" />
  </g>
  <g
   id="bullet-char-template-8211"
   transform="matrix(4.8828125e-4,0,0,-4.8828125e-4,0,0)">
   <path
   d="M -4,459 H 1135 V 606 H -4 Z"
   id="path38"
   inkscape:connector-curvature="0" />
  </g>
  <g
   id="bullet-char-template-61548"
   transform="matrix(4.8828125e-4,0,0,-4.8828125e-4,0,0)">
   <path
   d="m 173,740 c 0,163 58,303 173,419 116,115 255,173 419,173 163,0 302,-58 418,-173 116,-116 174,-256 174,-419 0,-163 -58,-303 -174,-418 C 1067,206 928,148 765,148 601,148 462,206 346,322 231,437 173,577 173,740 Z"
   id="path41"
   inkscape:connector-curvature="0" />
  </g>
 </defs>
 <g
   id="g49"
   transform="translate(-8874,-12599)">
  <g
   id="id2"
   class="Master_Slide">
   <g
   id="bg-id2"
   class="Background" />
   <g
   id="bo-id2"
   class="BackgroundObjects" />
  </g>
 </g>
 <g
   class="SlideGroup"
   id="g187"
   transform="translate(-8874,-12599)">
  <g
   id="g185">
   <g
   id="container-id1">
    <g
   id="id1"
   class="Slide"
   clip-path="url(#presentation_clip_path)">
     <g
   class="Page"
   id="g181">
      <g
   class="Graphic"
   id="g179">
       <g
   id="id3">
        <rect
   class="BoundingBox"
   x="8874"
   y="12599"
   width="3251"
   height="4501"
   id="rect51"
   style="fill:none;stroke:none" />
        <defs
   id="defs56">
         <clipPath
   id="clip_path_1"
   clipPathUnits="userSpaceOnUse">
          <path
   d="m 8874,12599 h 3250 v 4500 H 8874 Z"
   id="path53"
   inkscape:connector-curvature="0" />
         </clipPath>
        </defs>
        <g
   clip-path="url(#clip_path_1)"
   id="g176">
         <path
   d="m 9576,16772 10,20 25,16 38,5 51,2 61,-5 66,-5 71,-10 72,-10 20,-3 23,-5 30,-5 36,-5 40,-8 44,-7 48,-8 53,-10 56,-10 59,-10 61,-13 63,-13 64,-12 68,-13 69,-15 71,-16 69,-15 71,-18 71,-15 71,-18 72,-18 71,-20 68,-18 66,-20 67,-20 63,-21 61,-22 59,-21 56,-23 53,-23 48,-22 43,-23 -10,-94 3,-115 7,-112 13,-91 3,-18 2,-15 v -15 l 3,-16 v -50 l -3,-41 -13,-36 -22,-28 v -40 l -3,-41 -8,-43 -17,-46 -11,-25 -12,-31 -13,-30 -13,-31 -10,-25 -10,-23 -5,-15 -3,-5 -2,-153 -10,-335 -16,-336 -15,-152 -7,139 2,308 8,310 2,140 -127,-267 v -20 -21 -25 -23 l -2,-25 v -28 -26 -25 l -3,-18 v -18 -18 -15 l -5,-23 -8,-25 -10,-28 -15,-28 -18,-28 -18,-25 -23,-28 -22,-26 -5,-5 -6,-5 -7,-5 -5,-5 v -26 -22 -26 l -5,-20 -8,-18 -10,-13 -18,-10 -25,-2 h -16 -17 -21 -20 -20 -16 -10 -5 v -84 -148 l -13,-10 -33,-28 -48,-40 -56,-49 -58,-48 -54,-48 -45,-38 -31,-26 -23,-15 -20,-8 h -23 l -20,5 -18,8 -13,13 -10,12 -3,18 v 33 l -5,51 -2,61 -5,61 -3,36 -2,28 -3,17 v 8 l -63,-58 -3,-234 -8,-519 -10,-516 -15,-233 -8,228 v 503 l 5,506 3,229 -8,-8 -23,-25 -35,-36 -48,-48 -59,-58 -66,-64 -71,-69 -76,-71 -79,-68 -82,-69 -81,-63 -79,-59 -73,-48 -72,-36 -61,-25 -53,-8 -58,13 -59,38 -56,58 -51,74 -50,81 -44,89 -40,89 -36,84 -18,49 -15,43 -15,35 -10,33 -18,54 -10,45 -3,36 5,31 10,30 13,33 20,36 26,43 33,66 53,104 59,135 66,157 61,173 53,181 36,178 12,172 v 369 l 3,394 3,335 z"
   id="path58"
   inkscape:connector-curvature="0"
   style="fill:#000000;stroke:none" />
         <path
   d="m 9952,14071 68,55 66,56 69,59 69,61 68,58 69,61 71,64 69,63 66,61 68,66 69,64 66,63 66,64 66,64 64,63 63,64 61,61 61,63 59,61 58,61 56,59 54,58 53,56 51,53 48,56 46,51 43,51 41,46 38,45 36,46 33,41 30,38 3,-18 2,-15 v -15 l 3,-16 -31,-38 -33,-43 -35,-43 -39,-48 -40,-51 -43,-51 -46,-56 -48,-56 -51,-58 -54,-61 -53,-61 -56,-64 -58,-63 -59,-66 -61,-67 -61,-66 -63,-68 -67,-69 -63,-66 -66,-69 -69,-68 -66,-69 -69,-66 -68,-66 -69,-66 -68,-66 -69,-64 -69,-63 -71,-61 -68,-59 -67,-58 -68,-56 z"
   id="path60"
   inkscape:connector-curvature="0"
   style="fill:#ffffff;stroke:none" />
         <path
   d="m 9748,16480 64,2 66,3 h 66 66 69 l 71,-3 69,-2 71,-3 71,-5 71,-2 71,-8 71,-5 72,-5 71,-8 68,-7 72,-8 68,-10 66,-8 66,-10 67,-10 61,-10 63,-10 59,-11 58,-10 53,-10 54,-10 51,-13 48,-10 43,-10 43,-10 38,-13 36,-10 v 38 l -51,15 -56,15 -56,16 -61,15 -61,15 -63,18 -66,15 -69,18 -69,15 -71,16 -68,17 -74,16 -71,15 -74,15 -71,18 -71,13 -74,15 -69,15 -71,15 -68,13 -69,13 -64,12 -63,13 -64,10 -58,10 -56,11 -56,10 -51,7 -46,8 -45,8 -41,5 -36,5 z"
   id="path62"
   inkscape:connector-curvature="0"
   style="fill:#ffffff;stroke:none" />
         <path
   d="m 10638,14858 -8,-5 -7,-2 -10,-3 h -8 l -18,3 -15,7 -15,11 -16,15 -10,18 -7,20 -5,23 -3,23 3,23 5,20 7,20 10,15 16,16 15,10 15,8 18,2 -28,-20 -18,-26 -10,-30 -2,-33 7,-33 18,-33 28,-28 z"
   id="path64"
   inkscape:connector-curvature="0"
   style="fill:#ffffff;stroke:none" />
         <path
   d="m 10628,15077 25,-15 23,-26 13,-30 5,-38 -3,-26 -5,-23 -7,-20 -13,-18 -25,5 -26,16 -18,25 -12,28 -5,33 5,33 15,31 z"
   id="path66"
   inkscape:connector-curvature="0"
   style="fill:#ffffff;stroke:none" />
         <path
   d="m 11746,15926 5,-3 5,-2 3,-5 v -8 -8 l -3,-5 -5,-2 -5,-3 -5,3 -5,2 -2,5 v 8 8 l 2,5 5,2 z"
   id="path68"
   inkscape:connector-curvature="0"
   style="fill:#ffffff;stroke:none" />
         <path
   d="m 11528,15763 10,-2 5,-5 5,-8 3,-10 -3,-13 -5,-8 -5,-5 -10,-2 -8,2 -5,5 -5,8 -3,13 3,10 5,8 5,5 z"
   id="path70"
   inkscape:connector-curvature="0"
   style="fill:#ffffff;stroke:none" />
         <path
   d="m 11594,15814 7,-3 5,-5 3,-5 3,-10 -3,-10 -3,-5 -5,-5 -7,-3 -8,3 -5,5 -2,5 -3,10 3,10 2,5 5,5 z"
   id="path72"
   inkscape:connector-curvature="0"
   style="fill:#ffffff;stroke:none" />
         <path
   d="m 11647,15852 5,-2 5,-3 3,-8 v -5 -7 l -3,-5 -5,-3 -5,-2 -5,2 -5,3 -3,5 -2,7 2,5 3,8 5,3 z"
   id="path74"
   inkscape:connector-curvature="0"
   style="fill:#ffffff;stroke:none" />
         <path
   d="m 11695,15888 6,-3 5,-2 2,-5 v -8 -8 l -2,-5 -5,-2 -6,-3 -5,3 -5,2 -2,5 -3,8 3,8 2,5 5,2 z"
   id="path76"
   inkscape:connector-curvature="0"
   style="fill:#ffffff;stroke:none" />
         <path
   d="m 10844,15021 -8,-2 -7,-3 -8,-3 h -8 l -17,3 -16,5 -12,10 -13,10 -10,16 -8,17 -5,21 -2,23 2,20 5,20 8,18 10,15 13,13 12,10 16,5 17,3 -25,-18 -18,-23 -10,-28 v -30 l 8,-31 15,-28 25,-25 z"
   id="path78"
   inkscape:connector-curvature="0"
   style="fill:#ffffff;stroke:none" />
         <path
   d="m 10834,15219 25,-15 18,-23 13,-28 5,-35 -3,-23 -5,-21 -7,-17 -11,-18 -23,5 -22,15 -18,21 -10,27 -5,28 2,31 15,28 z"
   id="path80"
   inkscape:connector-curvature="0"
   style="fill:#ffffff;stroke:none" />
         <path
   d="m 11014,15189 -5,-3 -5,-2 -8,-3 h -5 l -25,8 -23,18 -13,28 -5,33 5,33 13,25 23,18 25,7 -20,-12 -13,-21 -7,-22 v -23 l 5,-26 12,-23 18,-20 z"
   id="path82"
   inkscape:connector-curvature="0"
   style="fill:#ffffff;stroke:none" />
         <path
   d="m 11009,15349 20,-13 16,-18 10,-22 2,-28 -2,-18 -5,-18 -5,-15 -10,-13 -18,5 -18,10 -13,18 -10,23 -2,23 2,23 13,23 z"
   id="path84"
   inkscape:connector-curvature="0"
   style="fill:#ffffff;stroke:none" />
         <path
   d="m 11159,15334 -5,-3 h -5 l -5,-2 h -5 l -21,5 -17,15 -11,20 -5,28 5,28 11,20 17,16 21,5 -28,-26 -5,-38 15,-40 z"
   id="path86"
   inkscape:connector-curvature="0"
   style="fill:#ffffff;stroke:none" />
         <path
   d="m 11151,15463 16,-10 12,-15 11,-18 2,-23 -2,-15 -3,-13 -5,-10 -8,-10 -15,2 -15,8 -10,15 -8,16 -2,20 2,18 10,20 z"
   id="path88"
   inkscape:connector-curvature="0"
   style="fill:#ffffff;stroke:none" />
         <path
   d="m 11284,15453 -3,-2 h -5 -3 -5 l -15,5 -13,10 -10,18 -2,20 2,20 10,18 13,10 15,5 -20,-20 -5,-31 10,-30 z"
   id="path90"
   inkscape:connector-curvature="0"
   style="fill:#ffffff;stroke:none" />
         <path
   d="m 11279,15557 12,-7 10,-13 8,-15 3,-18 v -10 l -3,-13 -5,-10 -8,-8 -23,10 -15,26 v 30 z"
   id="path92"
   inkscape:connector-curvature="0"
   style="fill:#ffffff;stroke:none" />
         <path
   d="m 11380,15560 -2,-3 h -3 -5 -2 l -13,3 -10,10 -8,13 -3,18 3,15 8,15 10,10 13,3 -18,-18 -5,-23 10,-25 z"
   id="path94"
   inkscape:connector-curvature="0"
   style="fill:#ffffff;stroke:none" />
         <path
   d="m 11375,15641 10,-5 8,-10 5,-10 3,-15 v -11 l -3,-7 -5,-8 -3,-8 -20,8 -10,20 -3,26 z"
   id="path96"
   inkscape:connector-curvature="0"
   style="fill:#ffffff;stroke:none" />
         <path
   d="m 11467,15644 h -3 l -2,-3 h -3 -3 l -10,3 -10,7 -5,11 -2,15 2,12 5,13 10,8 10,2 -15,-12 -2,-21 7,-20 z"
   id="path98"
   inkscape:connector-curvature="0"
   style="fill:#ffffff;stroke:none" />
         <path
   d="m 11464,15710 8,-5 5,-8 2,-10 3,-10 v -8 l -3,-7 -2,-6 -3,-5 -15,8 -8,15 v 18 z"
   id="path100"
   inkscape:connector-curvature="0"
   style="fill:#ffffff;stroke:none" />
         <path
   d="m 9154,13999 10,-33 15,-35 15,-43 18,-49 269,-147 11,-23 12,-28 16,-28 15,-28 13,-23 12,-20 13,-13 8,-5 5,15 -5,36 v 43 l 20,33 20,15 23,16 28,17 26,18 22,18 21,13 12,10 6,2 -3,130 -8,-8 -20,-17 -28,-23 -33,-28 -33,-26 -30,-20 -23,-8 -13,6 -31,106 -20,122 -10,135 v 140 l 8,140 12,137 16,129 20,115 -36,-112 -38,-120 -35,-121 -26,-125 -18,-125 v -127 l 16,-124 38,-122 z"
   id="path102"
   inkscape:connector-curvature="0"
   style="fill:#ffffff;stroke:none" />
         <path
   d="m 9784,13829 -3,-53 -5,-41 8,-13 33,21 23,20 23,18 18,18 15,17 13,18 10,23 5,23 2,28 v 61 l -2,56 -3,46 v 33 l -2,22 -5,21 -13,10 -26,-13 -15,-12 -15,-13 -18,-15 -15,-18 -15,-18 -10,-18 -8,-20 -3,-23 v -46 l 5,-46 3,-45 z"
   id="path104"
   inkscape:connector-curvature="0"
   style="fill:#ffffff;stroke:none" />
         <path
   d="m 11350,14490 5,5 7,5 6,5 5,5 -8,54 13,15 15,18 18,22 20,26 18,23 18,23 12,17 13,13 v 15 18 18 l 3,18 -21,-26 -23,-33 -25,-33 -33,-35 -33,-31 -38,-23 -41,-12 -43,-3 v -18 l -5,-15 -5,-18 -10,-18 -11,-17 -15,-16 -18,-15 -17,-15 h 20 l 23,-3 25,3 26,2 25,8 23,15 18,23 15,33 z"
   id="path106"
   inkscape:connector-curvature="0"
   style="fill:#ffffff;stroke:none" />
         <path
   d="m 11497,14983 v -20 -21 -25 -23 l -10,-25 -18,-31 -20,-33 -26,-36 -28,-35 -30,-33 -33,-31 -33,-23 13,67 22,17 23,23 23,26 23,30 23,33 23,41 25,46 z"
   id="path108"
   inkscape:connector-curvature="0"
   style="fill:#ffffff;stroke:none" />
         <path
   d="m 10671,14162 v -8 l 3,-17 2,-28 3,-36 15,-15 18,-15 23,-11 25,-10 28,-5 30,-2 34,2 33,5 35,13 36,15 35,21 36,27 36,34 33,38 33,45 30,54 v 84 l -20,-36 -23,-36 -28,-35 -28,-33 -33,-33 -33,-28 -33,-26 -36,-20 -35,-15 -36,-10 -33,-5 h -33 l -33,10 -31,18 -28,22 z"
   id="path110"
   inkscape:connector-curvature="0"
   style="fill:#ffffff;stroke:none" />
         <path
   d="m 10694,14193 30,-31 41,-20 46,-8 53,8 56,20 59,41 61,61 58,81 -53,-3 -33,-53 -38,-43 -44,-38 -48,-26 -46,-15 h -45 l -44,13 -35,28 z"
   id="path112"
   inkscape:connector-curvature="0"
   style="fill:#ffffff;stroke:none" />
         <path
   d="m 11164,14693 5,-66 -338,-376 -61,-15 43,45 51,56 56,64 61,66 56,66 53,61 44,56 z"
   id="path114"
   inkscape:connector-curvature="0"
   style="fill:#ffffff;stroke:none" />
         <path
   d="m 11210,14663 -8,56 21,28 25,35 28,41 33,48 36,51 35,56 38,56 38,61 36,58 36,61 35,59 33,56 28,53 26,48 20,43 15,39 -20,-54 -23,-58 -25,-59 -31,-63 -30,-64 -33,-63 -33,-64 -36,-61 -36,-61 -33,-56 -35,-56 -31,-48 -33,-46 -28,-38 -25,-33 z"
   id="path116"
   inkscape:connector-curvature="0"
   style="fill:#ffffff;stroke:none" />
         <path
   d="m 9690,13361 -10,-5 -10,-5 -11,-5 -10,-2 -10,-5 -8,-3 h -10 l -7,-3 -10,18 -6,18 -2,20 -3,23 13,5 10,8 13,5 13,8 10,5 13,7 12,8 13,8 z"
   id="path118"
   inkscape:connector-curvature="0"
   style="fill:#ffffff;stroke:none" />
         <path
   d="m 9812,13433 -13,-8 -10,-8 -13,-7 -10,-8 -13,-8 -10,-5 -10,-7 -10,-5 v 109 l 10,8 10,5 13,7 10,8 13,8 10,7 13,8 10,7 z"
   id="path120"
   inkscape:connector-curvature="0"
   style="fill:#ffffff;stroke:none" />
         <path
   d="m 9947,13529 -13,-10 -13,-10 -12,-10 -13,-8 -13,-10 -13,-8 -10,-10 -12,-8 -3,112 13,8 12,10 13,8 13,10 13,10 12,10 13,8 13,10 z"
   id="path122"
   inkscape:connector-curvature="0"
   style="fill:#ffffff;stroke:none" />
         <path
   d="m 10079,13636 -13,-10 -13,-10 -12,-11 -10,-10 -13,-10 -13,-10 -13,-10 -12,-10 v 111 l 12,11 13,10 13,10 13,10 12,10 13,10 13,11 12,10 z"
   id="path124"
   inkscape:connector-curvature="0"
   style="fill:#ffffff;stroke:none" />
         <path
   d="m 10221,13760 -13,-12 -15,-13 -12,-10 -13,-13 -15,-10 -13,-13 -13,-10 -13,-13 -2,107 13,10 15,11 13,12 12,10 13,13 15,10 13,13 15,13 z"
   id="path126"
   inkscape:connector-curvature="0"
   style="fill:#ffffff;stroke:none" />
         <path
   d="m 10364,13895 -16,-15 -12,-13 -16,-12 -12,-16 -16,-12 -12,-13 -16,-13 -12,-13 v 105 l 15,12 13,13 15,13 15,12 13,13 15,13 13,13 15,12 z"
   id="path128"
   inkscape:connector-curvature="0"
   style="fill:#ffffff;stroke:none" />
         <path
   d="m 10496,14027 -13,-12 -13,-13 -12,-13 -11,-13 -12,-12 -13,-13 -13,-13 -12,-12 v 96 l 12,13 13,10 13,13 12,13 13,10 13,12 13,13 12,13 z"
   id="path130"
   inkscape:connector-curvature="0"
   style="fill:#ffffff;stroke:none" />
         <path
   d="m 10623,14157 -13,-13 -10,-12 -13,-13 -10,-13 -13,-10 -12,-13 -11,-12 -12,-13 v 91 l 12,13 11,10 12,13 10,10 13,13 10,10 13,13 10,12 z"
   id="path132"
   inkscape:connector-curvature="0"
   style="fill:#ffffff;stroke:none" />
         <path
   d="m 10740,14284 -10,-13 -11,-10 -12,-13 -11,-10 -10,-12 -12,-11 -11,-12 -10,-13 v 86 l 10,11 13,12 10,10 13,13 10,10 10,13 13,10 10,13 z"
   id="path134"
   inkscape:connector-curvature="0"
   style="fill:#ffffff;stroke:none" />
         <path
   d="m 10846,14403 -17,-20 -18,-23 -20,-20 -18,-20 v 81 l 18,20 20,21 18,20 17,20 z"
   id="path136"
   inkscape:connector-curvature="0"
   style="fill:#ffffff;stroke:none" />
         <path
   d="m 10941,14510 -16,-18 -15,-17 -15,-18 -15,-18 v 79 l 15,15 15,18 15,15 16,18 z"
   id="path138"
   inkscape:connector-curvature="0"
   style="fill:#ffffff;stroke:none" />
         <path
   d="m 11032,14619 -15,-17 -15,-18 -16,-18 -12,-18 v 77 l 15,17 15,16 15,17 13,18 z"
   id="path140"
   inkscape:connector-curvature="0"
   style="fill:#ffffff;stroke:none" />
         <path
   d="m 11124,14731 -16,-17 -12,-18 -16,-18 -15,-18 3,74 12,15 16,18 12,15 13,18 z"
   id="path142"
   inkscape:connector-curvature="0"
   style="fill:#ffffff;stroke:none" />
         <path
   d="m 11215,14851 -15,-21 -15,-20 -16,-18 -15,-20 v 69 l 15,17 16,21 15,18 15,20 z"
   id="path144"
   inkscape:connector-curvature="0"
   style="fill:#ffffff;stroke:none" />
         <path
   d="m 11291,14952 -10,-12 -10,-16 -13,-15 -10,-15 v 66 l 13,15 10,13 13,15 10,16 z"
   id="path146"
   inkscape:connector-curvature="0"
   style="fill:#ffffff;stroke:none" />
         <path
   d="m 11380,15074 -12,-17 -13,-21 -15,-17 -13,-18 -3,58 16,21 15,17 13,21 15,20 z"
   id="path148"
   inkscape:connector-curvature="0"
   style="fill:#ffffff;stroke:none" />
         <path
   d="m 11451,15181 -10,-15 -10,-15 -10,-16 -10,-15 2,61 10,15 11,16 10,15 10,15 z"
   id="path150"
   inkscape:connector-curvature="0"
   style="fill:#ffffff;stroke:none" />
         <path
   d="m 11518,15283 -8,-13 -8,-15 -10,-13 -8,-13 v 56 l 8,13 10,13 8,12 8,13 z"
   id="path152"
   inkscape:connector-curvature="0"
   style="fill:#ffffff;stroke:none" />
         <path
   d="m 11571,15369 -5,-10 -5,-10 -8,-10 -5,-10 v 55 l 5,11 8,7 5,8 5,8 z"
   id="path154"
   inkscape:connector-curvature="0"
   style="fill:#ffffff;stroke:none" />
         <path
   d="m 11599,15423 5,7 8,10 5,8 5,10 -3,41 -2,-8 -5,-7 -3,-5 -5,-8 z"
   id="path156"
   inkscape:connector-curvature="0"
   style="fill:#ffffff;stroke:none" />
         <path
   d="m 11640,15489 7,12 5,13 3,10 7,13 v 33 l -7,-10 -5,-10 -5,-10 -5,-13 z"
   id="path158"
   inkscape:connector-curvature="0"
   style="fill:#ffffff;stroke:none" />
         <path
   d="m 11678,15565 5,10 7,13 5,10 6,10 -8,15 -3,-7 -2,-5 -5,-3 -3,-7 z"
   id="path160"
   inkscape:connector-curvature="0"
   style="fill:#ffffff;stroke:none" />
         <path
   d="m 9573,13344 -15,5 -15,10 -18,10 -16,13 -2,61 13,-8 15,-7 15,-6 13,-5 2,-15 v -18 l 3,-20 z"
   id="path162"
   inkscape:connector-curvature="0"
   style="fill:#ffffff;stroke:none" />
         <path
   d="m 9431,13463 12,-15 11,-13 12,-13 10,-12 v 53 l -10,10 -12,10 -11,13 -10,10 z"
   id="path164"
   inkscape:connector-curvature="0"
   style="fill:#ffffff;stroke:none" />
         <path
   d="m 9357,13575 10,-15 10,-18 10,-15 11,-18 v 41 l -11,15 -10,18 -10,15 -10,18 z"
   id="path166"
   inkscape:connector-curvature="0"
   style="fill:#ffffff;stroke:none" />
         <path
   d="m 9298,13689 6,-10 5,-15 7,-13 8,-18 v 36 l -5,10 -5,8 -8,10 -5,10 z"
   id="path168"
   inkscape:connector-curvature="0"
   style="fill:#ffffff;stroke:none" />
         <path
   d="m 8874,16724 36,18 35,5 36,-3 35,-10 33,-13 36,-17 36,-18 35,-18 38,-13 36,-10 h 41 l 38,8 43,17 43,34 43,48 49,63 -33,-20 -34,-13 -33,-5 h -33 l -35,5 -36,8 -35,10 -38,10 -39,8 -38,8 h -40 l -41,-3 -43,-10 -43,-21 -46,-27 z"
   id="path170"
   inkscape:connector-curvature="0"
   style="fill:#000000;stroke:none" />
         <path
   d="m 9563,16876 35,-17 39,-11 43,-2 h 43 l 43,7 41,11 38,10 30,10 31,8 h 36 l 40,-5 46,-11 43,-17 46,-21 43,-25 41,-33 20,-15 21,-18 22,-16 23,-12 23,-13 26,-13 28,-10 30,-7 31,-6 30,-2 h 36 l 35,5 36,5 40,10 41,13 43,18 44,20 38,20 35,18 36,21 30,17 31,16 30,17 33,13 31,13 33,13 36,10 38,7 43,5 46,3 h 53 l 56,-3 -26,21 -25,18 -25,12 -26,13 -28,8 -25,7 -28,5 h -28 -31 l -30,-2 -33,-5 -36,-5 -35,-8 -36,-10 -41,-13 -40,-13 -41,-12 -41,-11 -40,-5 -36,-5 -35,-2 h -36 l -30,5 -31,2 -30,8 -26,8 -25,7 -23,10 -21,11 -20,10 -15,12 -15,11 -16,10 -17,13 -21,10 -25,10 -26,7 -25,8 -30,8 -31,5 -31,5 -30,2 h -31 l -30,-2 -31,-3 -30,-5 -28,-10 -25,-10 -51,-25 -51,-26 -48,-28 -46,-23 -46,-23 -41,-17 -35,-11 z"
   id="path172"
   inkscape:connector-curvature="0"
   style="fill:#000000;stroke:none" />
         <path
   d="m 10956,16655 68,-73 74,-56 76,-39 79,-27 81,-16 82,-7 h 81 l 82,2 78,5 79,8 76,2 h 72 l 68,-7 64,-15 58,-28 51,-41 -76,94 -74,71 -71,51 -66,33 -66,18 -66,7 -64,-2 -66,-10 -66,-13 -66,-13 -71,-12 -74,-5 h -79 l -81,10 -89,25 z"
   id="path174"
   inkscape:connector-curvature="0"
   style="fill:#000000;stroke:none" />
        </g>
       </g>
      </g>
     </g>
    </g>
   </g>
  </g>
 </g>
</svg>