<?xml version="1.0" encoding="UTF-8" standalone="no"?>
<svg
   xmlns:ooo="http://xml.openoffice.org/svg/export"
   xmlns:dc="http://purl.org/dc/elements/1.1/"
   xmlns:cc="http://creativecommons.org/ns#"
   xmlns:rdf="http://www.w3.org/1999/02/22-rdf-syntax-ns#"
   xmlns:svg="http://www.w3.org/2000/svg"
   xmlns="http://www.w3.org/2000/svg"
   xmlns:sodipodi="http://sodipodi.sourceforge.net/DTD/sodipodi-0.dtd"
   xmlns:inkscape="http://www.inkscape.org/namespaces/inkscape"
   version="1.2"
   width="67.159996mm"
   height="70.309998mm"
   viewBox="0 0 6715.9996 7030.9998"
   preserveAspectRatio="xMidYMid"
   xml:space="preserve"
   id="svg171"
   sodipodi:docname="cuplogo1.svg"
   style="fill-rule:evenodd;stroke-width:28.22200012;stroke-linejoin:round"
   inkscape:version="0.92.5 (2060ec1f9f, 2020-04-08)"><metadata
   id="metadata175"><rdf:RDF><cc:Work
       rdf:about=""><dc:format>image/svg+xml</dc:format><dc:type
         rdf:resource="http://purl.org/dc/dcmitype/StillImage" /></cc:Work></rdf:RDF></metadata><sodipodi:namedview
   pagecolor="#ffffff"
   bordercolor="#666666"
   borderopacity="1"
   objecttolerance="10"
   gridtolerance="10"
   guidetolerance="10"
   inkscape:pageopacity="0"
   inkscape:pageshadow="2"
   inkscape:window-width="664"
   inkscape:window-height="487"
   id="namedview173"
   showgrid="false"
   inkscape:zoom="0.2102413"
   inkscape:cx="126.91654"
   inkscape:cy="132.85039"
   inkscape:window-x="0"
   inkscape:window-y="0"
   inkscape:window-maximized="0"
   inkscape:current-layer="svg171" />
 <defs
   class="ClipPathGroup"
   id="defs8">
  <clipPath
   id="presentation_clip_path"
   clipPathUnits="userSpaceOnUse">
   <rect
   x="0"
   y="0"
   width="21000"
   height="29700"
   id="rect2" />
  </clipPath>
  <clipPath
   id="presentation_clip_path_shrink"
   clipPathUnits="userSpaceOnUse">
   <rect
   x="21"
   y="29"
   width="20958"
   height="29641"
   id="rect5" />
  </clipPath>
 </defs>
 <defs
   class="TextShapeIndex"
   id="defs12">
  <g
   ooo:slide="id1"
   ooo:id-list="id3"
   id="g10" />
 </defs>
 <defs
   class="EmbeddedBulletChars"
   id="defs44">
  <g
   id="bullet-char-template-57356"
   transform="matrix(4.8828125e-4,0,0,-4.8828125e-4,0,0)">
   <path
   d="M 580,1141 1163,571 580,0 -4,571 Z"
   id="path14"
   inkscape:connector-curvature="0" />
  </g>
  <g
   id="bullet-char-template-57354"
   transform="matrix(4.8828125e-4,0,0,-4.8828125e-4,0,0)">
   <path
   d="M 8,1128 H 1137 V 0 H 8 Z"
   id="path17"
   inkscape:connector-curvature="0" />
  </g>
  <g
   id="bullet-char-template-10146"
   transform="matrix(4.8828125e-4,0,0,-4.8828125e-4,0,0)">
   <path
   d="M 174,0 602,739 174,1481 1456,739 Z M 1358,739 309,1346 659,739 Z"
   id="path20"
   inkscape:connector-curvature="0" />
  </g>
  <g
   id="bullet-char-template-10132"
   transform="matrix(4.8828125e-4,0,0,-4.8828125e-4,0,0)">
   <path
   d="M 2015,739 1276,0 H 717 l 543,543 H 174 v 393 h 1086 l -543,545 h 557 z"
   id="path23"
   inkscape:connector-curvature="0" />
  </g>
  <g
   id="bullet-char-template-10007"
   transform="matrix(4.8828125e-4,0,0,-4.8828125e-4,0,0)">
   <path
   d="m 0,-2 c -7,16 -16,29 -25,39 l 381,530 c -94,256 -141,385 -141,387 0,25 13,38 40,38 9,0 21,-2 34,-5 21,4 42,12 65,25 l 27,-13 111,-251 280,301 64,-25 24,25 c 21,-10 41,-24 62,-43 C 886,937 835,863 770,784 769,783 710,716 594,584 L 774,223 c 0,-27 -21,-55 -63,-84 l 16,-20 C 717,90 699,76 672,76 641,76 570,178 457,381 L 164,-76 c -22,-34 -53,-51 -92,-51 -42,0 -63,17 -64,51 -7,9 -10,24 -10,44 0,9 1,19 2,30 z"
   id="path26"
   inkscape:connector-curvature="0" />
  </g>
  <g
   id="bullet-char-template-10004"
   transform="matrix(4.8828125e-4,0,0,-4.8828125e-4,0,0)">
   <path
   d="M 285,-33 C 182,-33 111,30 74,156 52,228 41,333 41,471 c 0,78 14,145 41,201 34,71 87,106 158,106 53,0 88,-31 106,-94 l 23,-176 c 8,-64 28,-97 59,-98 l 735,706 c 11,11 33,17 66,17 42,0 63,-15 63,-46 V 965 c 0,-36 -10,-64 -30,-84 L 442,47 C 390,-6 338,-33 285,-33 Z"
   id="path29"
   inkscape:connector-curvature="0" />
  </g>
  <g
   id="bullet-char-template-9679"
   transform="matrix(4.8828125e-4,0,0,-4.8828125e-4,0,0)">
   <path
   d="M 813,0 C 632,0 489,54 383,161 276,268 223,411 223,592 c 0,181 53,324 160,431 106,107 249,161 430,161 179,0 323,-54 432,-161 108,-107 162,-251 162,-431 0,-180 -54,-324 -162,-431 C 1136,54 992,0 813,0 Z"
   id="path32"
   inkscape:connector-curvature="0" />
  </g>
  <g
   id="bullet-char-template-8226"
   transform="matrix(4.8828125e-4,0,0,-4.8828125e-4,0,0)">
   <path
   d="m 346,457 c -73,0 -137,26 -191,78 -54,51 -81,114 -81,188 0,73 27,136 81,188 54,52 118,78 191,78 73,0 134,-26 185,-79 51,-51 77,-114 77,-187 0,-75 -25,-137 -76,-188 -50,-52 -112,-78 -186,-78 z"
   id="path35"
   inkscape:connector-curvature="0" />
  </g>
  <g
   id="bullet-char-template-8211"
   transform="matrix(4.8828125e-4,0,0,-4.8828125e-4,0,0)">
   <path
   d="M -4,459 H 1135 V 606 H -4 Z"
   id="path38"
   inkscape:connector-curvature="0" />
  </g>
  <g
   id="bullet-char-template-61548"
   transform="matrix(4.8828125e-4,0,0,-4.8828125e-4,0,0)">
   <path
   d="m 173,740 c 0,163 58,303 173,419 116,115 255,173 419,173 163,0 302,-58 418,-173 116,-116 174,-256 174,-419 0,-163 -58,-303 -174,-418 C 1067,206 928,148 765,148 601,148 462,206 346,322 231,437 173,577 173,740 Z"
   id="path41"
   inkscape:connector-curvature="0" />
  </g>
 </defs>
 <g
   id="g49"
   transform="translate(-7142,-11334)">
  <g
   id="id2"
   class="Master_Slide">
   <g
   id="bg-id2"
   class="Background" />
   <g
   id="bo-id2"
   class="BackgroundObjects" />
  </g>
 </g>
 <g
   class="SlideGroup"
   id="g169"
   transform="translate(-7142,-11334)">
  <g
   id="g167">
   <g
   id="container-id1">
    <g
   id="id1"
   class="Slide"
   clip-path="url(#presentation_clip_path)">
     <g
   class="Page"
   id="g163">
      <g
   class="Graphic"
   id="g161">
       <g
   id="id3">
        <rect
   class="BoundingBox"
   x="7142"
   y="11334"
   width="6716"
   height="7031"
   id="rect51"
   style="fill:none;stroke:none" />
        <defs
   id="defs56">
         <clipPath
   id="clip_path_1"
   clipPathUnits="userSpaceOnUse">
          <path
   d="m 7142,11334 h 6715 v 7030 H 7142 Z"
   id="path53"
   inkscape:connector-curvature="0" />
         </clipPath>
        </defs>
        <g
   clip-path="url(#clip_path_1)"
   id="g158">
         <path
   d="m 7284,18207 h 6427 V 11492 H 7284 Z"
   id="path58"
   inkscape:connector-curvature="0"
   style="fill:#000000;stroke:none" />
         <path
   d="m 7284,18207 h 6427 V 11492 H 7284 Z"
   id="path60"
   inkscape:connector-curvature="0"
   style="fill:none;stroke:#000000" />
         <path
   d="m 7142,18365 h 6716 V 11334 H 7142 Z"
   id="path62"
   inkscape:connector-curvature="0"
   style="fill:none;stroke:#000000" />
         <path
   d="m 12120,15229 2,-28 v -28 -25 l -5,-23 -5,-25 -7,-28 -13,-28 -15,-26 -5,-7 -5,-5 -6,-8 -5,-5 -7,-10 -8,-10 -2,-8 -5,-5 -13,-10 -13,-10 -13,-8 -10,-8 -15,-10 -15,-7 -15,-5 -16,-5 -2,-3 h -8 -5 -8 l -5,-3 -7,-2 h -8 l -8,-3 16,-10 17,-10 18,-8 18,-7 18,-3 h 18 l 17,-2 18,2 h 21 17 l 18,8 20,7 16,8 15,10 15,13 13,13 v 0 l 5,2 2,5 v 0 0 h 3 v 3 0 l 25,30 18,36 10,41 3,40 -8,43 -12,36 -21,36 -28,30 v 0 l -2,3 -5,5 -3,2 -5,3 -5,5 -3,2 z"
   id="path64"
   inkscape:connector-curvature="0"
   style="fill:#ffffff;stroke:none" />
         <path
   d="m 9320,15181 -3,-15 3,-15 2,-16 8,-15 5,-18 8,-15 10,-13 10,-15 v 0 0 0 0 0 l 2,-5 3,-2 v 0 l 10,-13 10,-10 13,-11 13,-10 12,-10 13,-7 13,-8 15,-8 15,-5 18,-5 18,-2 h 18 15 18 l 12,2 16,5 5,3 h 7 v 2 h 5 l 6,5 7,3 h 5 l 3,2 5,3 5,3 2,5 3,2 5,3 5,2 3,3 5,2 20,18 23,23 13,23 12,25 11,28 5,31 v 28 l -3,30 -2,-10 -3,-8 -8,-10 -7,-7 -8,-11 -2,-10 -5,-10 -3,-5 -8,-3 -5,-2 -2,-3 v 0 l -5,-2 -3,-5 -2,-3 h -3 l -10,-7 -10,-6 -10,-5 -11,-5 -12,-7 -13,-5 -8,-5 -15,-6 -10,-2 -13,-3 h -10 l -13,-2 -10,-3 -10,-2 -10,-3 -10,-2 -13,-3 h -13 l -10,3 h -13 l -10,5 -12,2 -11,5 -10,5 -10,8 -10,8 -10,7 -10,8 -11,8 -7,10 -10,7 -5,11 -6,5 -2,2 -3,5 -2,5 -3,3 -2,5 -3,5 z"
   id="path66"
   inkscape:connector-curvature="0"
   style="fill:#ffffff;stroke:none" />
         <path
   d="m 9320,15181 -3,-15 3,-15 2,-16 8,-15 5,-18 8,-15 10,-13 10,-15 v 0 0 0 0 0 l 2,-5 3,-2 v 0 l 10,-13 10,-10 13,-11 13,-10 12,-10 13,-7 13,-8 15,-8 15,-5 18,-5 18,-2 h 18 15 18 l 12,2 16,5 5,3 h 7 v 2 h 5 l 6,5 7,3 h 5 l 3,2 5,3 5,3 2,5 3,2 5,3 5,2 3,3 5,2 20,18 23,23 13,23 12,25 11,28 5,31 v 28 l -3,30 -2,-10 -3,-8 -8,-10 -7,-7 -8,-11 -2,-10 -5,-10 -3,-5 -8,-3 -5,-2 -2,-3 v 0 l -5,-2 -3,-5 -2,-3 h -3 l -10,-7 -10,-6 -10,-5 -11,-5 -12,-7 -13,-5 -8,-5 -15,-6 -10,-2 -13,-3 h -10 l -13,-2 -10,-3 -10,-2 -10,-3 -10,-2 -13,-3 h -13 l -10,3 h -13 l -10,5 -12,2 -11,5 -10,5 -10,8 -10,8 -10,7 -10,8 -11,8 -7,10 -10,7 -5,11 -6,5 -2,2 -3,5 -2,5 -3,3 -2,5 -3,5 z"
   id="path68"
   inkscape:connector-curvature="0"
   style="fill:none;stroke:#ffffff" />
         <path
   d="m 10669,14259 -13,-3 -12,-5 -13,-5 -10,-8 -10,-5 -11,-5 -7,-7 -8,-8 -2,-3 -3,-2 -2,-3 v 0 l -3,-2 v -3 l -3,-2 v 0 l -12,-23 -10,-26 -6,-25 -2,-25 2,-28 8,-26 10,-23 16,-15 v 0 l 2,-2 v 0 0 0 l 3,-3 h 2 v 0 l 8,-8 10,-5 8,-5 10,-5 10,-2 10,-3 10,-2 h 13 8 10 10 10 l 13,2 7,3 8,2 8,5 h -5 l -11,3 -7,5 -8,5 -8,3 -7,5 -8,2 -7,5 -8,8 -5,10 -10,8 -5,5 -5,7 -6,11 -2,12 -8,13 -5,18 -2,20 -3,20 v 21 l 5,23 10,20 13,20 15,21 v 0 h 3 v 2 0 0 l 2,3 z"
   id="path70"
   inkscape:connector-curvature="0"
   style="fill:#ffffff;stroke:none" />
         <path
   d="m 10669,14259 -13,-3 -12,-5 -13,-5 -10,-8 -10,-5 -11,-5 -7,-7 -8,-8 -2,-3 -3,-2 -2,-3 v 0 l -3,-2 v -3 l -3,-2 v 0 l -12,-23 -10,-26 -6,-25 -2,-25 2,-28 8,-26 10,-23 16,-15 v 0 l 2,-2 v 0 0 0 l 3,-3 h 2 v 0 l 8,-8 10,-5 8,-5 10,-5 10,-2 10,-3 10,-2 h 13 8 10 10 10 l 13,2 7,3 8,2 8,5 h -5 l -11,3 -7,5 -8,5 -8,3 -7,5 -8,2 -7,5 -8,8 -5,10 -10,8 -5,5 -5,7 -6,11 -2,12 -8,13 -5,18 -2,20 -3,20 v 21 l 5,23 10,20 13,20 15,21 v 0 h 3 v 2 0 0 l 2,3 z"
   id="path72"
   inkscape:connector-curvature="0"
   style="fill:none;stroke:#ffffff" />
         <path
   d="m 10882,14846 16,-44 7,-40 v -41 l -5,-38 -7,-20 -8,-21 -8,-20 -10,-20 -13,-18 -12,-18 -15,-15 -16,-13 -7,-2 -5,-5 -6,-3 -5,-2 -5,-3 -5,-5 -5,-3 -5,-2 -15,-8 -13,-5 -15,-8 -15,-5 -16,-2 -15,-3 -15,-2 h -15 -18 l -15,2 -18,3 -15,2 -16,5 -15,8 -15,5 -13,8 13,2 h 13 10 l 12,3 11,5 h 12 l 10,3 11,5 7,2 10,3 8,2 5,3 8,5 10,5 10,8 10,5 5,2 8,3 5,5 8,2 5,3 7,5 8,5 10,5 15,13 13,13 13,12 12,13 13,15 13,15 8,16 7,15 18,30 15,33 10,39 z"
   id="path74"
   inkscape:connector-curvature="0"
   style="fill:#ffffff;stroke:none" />
         <path
   d="m 10882,14846 16,-44 7,-40 v -41 l -5,-38 -7,-20 -8,-21 -8,-20 -10,-20 -13,-18 -12,-18 -15,-15 -16,-13 -7,-2 -5,-5 -6,-3 -5,-2 -5,-3 -5,-5 -5,-3 -5,-2 -15,-8 -13,-5 -15,-8 -15,-5 -16,-2 -15,-3 -15,-2 h -15 -18 l -15,2 -18,3 -15,2 -16,5 -15,8 -15,5 -13,8 13,2 h 13 10 l 12,3 11,5 h 12 l 10,3 11,5 7,2 10,3 8,2 5,3 8,5 10,5 10,8 10,5 5,2 8,3 5,5 8,2 5,3 7,5 8,5 10,5 15,13 13,13 13,12 12,13 13,15 13,15 8,16 7,15 18,30 15,33 10,39 z"
   id="path76"
   inkscape:connector-curvature="0"
   style="fill:none;stroke:#ffffff" />
         <path
   d="m 9571,14160 8,-11 10,-7 8,-8 12,-10 8,-5 10,-8 13,-7 10,-5 13,-5 12,-6 13,-2 13,-3 13,-2 12,-3 h 10 13 15 18 l 15,3 16,2 17,8 21,8 18,7 15,8 13,10 12,10 15,10 8,13 13,13 10,12 10,13 8,13 15,28 8,30 5,33 v 33 3 2 3 3 2 5 3 0 l -13,-31 -15,-25 -18,-23 -18,-20 -10,-11 -10,-7 -13,-10 -10,-10 -13,-8 -15,-10 -13,-8 -15,-8 -13,-5 -12,-7 -13,-5 -10,-3 -13,-5 -13,-5 -17,-3 h -13 -5 l -8,-2 -7,-3 h -11 -5 -5 -10 -8 -12 -16 -15 -12 -11 l -12,3 -13,5 z"
   id="path78"
   inkscape:connector-curvature="0"
   style="fill:#ffffff;stroke:none" />
         <path
   d="m 9571,14160 8,-11 10,-7 8,-8 12,-10 8,-5 10,-8 13,-7 10,-5 13,-5 12,-6 13,-2 13,-3 13,-2 12,-3 h 10 13 15 18 l 15,3 16,2 17,8 21,8 18,7 15,8 13,10 12,10 15,10 8,13 13,13 10,12 10,13 8,13 15,28 8,30 5,33 v 33 3 2 3 3 2 5 3 0 l -13,-31 -15,-25 -18,-23 -18,-20 -10,-11 -10,-7 -13,-10 -10,-10 -13,-8 -15,-10 -13,-8 -15,-8 -13,-5 -12,-7 -13,-5 -10,-3 -13,-5 -13,-5 -17,-3 h -13 -5 l -8,-2 -7,-3 h -11 -5 -5 -10 -8 -12 -16 -15 -12 -11 l -12,3 -13,5 z"
   id="path80"
   inkscape:connector-curvature="0"
   style="fill:none;stroke:#ffffff" />
         <path
   d="m 11398,15189 3,-26 5,-23 10,-25 10,-23 13,-23 15,-20 18,-18 18,-15 12,-10 13,-10 15,-11 13,-7 18,-5 20,-5 18,-5 18,-6 h 15 18 18 l 15,3 15,3 15,2 16,5 15,5 15,5 13,8 15,8 13,10 12,10 11,13 12,12 10,13 v 0 l 6,3 2,5 v 0 l 3,2 v 3 l 2,2 v 0 l -15,-7 -15,-5 -16,-8 -12,-5 -15,-3 -13,-5 -13,-2 h -13 l -12,-3 h -16 -15 -15 l -15,3 h -16 l -17,2 -16,3 -10,5 -15,2 -15,3 -10,5 -16,3 -12,7 -16,5 -10,8 -5,2 -5,6 -8,2 -7,5 -3,3 -7,5 -5,5 -8,5 -10,8 -8,10 -15,10 -10,8 -8,7 -7,10 -8,13 z"
   id="path82"
   inkscape:connector-curvature="0"
   style="fill:#ffffff;stroke:none" />
         <path
   d="m 11398,15189 3,-26 5,-23 10,-25 10,-23 13,-23 15,-20 18,-18 18,-15 12,-10 13,-10 15,-11 13,-7 18,-5 20,-5 18,-5 18,-6 h 15 18 18 l 15,3 15,3 15,2 16,5 15,5 15,5 13,8 15,8 13,10 12,10 11,13 12,12 10,13 v 0 l 6,3 2,5 v 0 l 3,2 v 3 l 2,2 v 0 l -15,-7 -15,-5 -16,-8 -12,-5 -15,-3 -13,-5 -13,-2 h -13 l -12,-3 h -16 -15 -15 l -15,3 h -16 l -17,2 -16,3 -10,5 -15,2 -15,3 -10,5 -16,3 -12,7 -16,5 -10,8 -5,2 -5,6 -8,2 -7,5 -3,3 -7,5 -5,5 -8,5 -10,8 -8,10 -15,10 -10,8 -8,7 -7,10 -8,13 z"
   id="path84"
   inkscape:connector-curvature="0"
   style="fill:none;stroke:#ffffff" />
         <path
   d="m 11401,14210 7,-17 11,-18 10,-18 10,-15 15,-15 10,-13 16,-13 15,-10 18,-10 17,-10 18,-10 18,-8 18,-5 20,-5 20,-3 h 21 2 5 3 v 0 h 5 3 5 v 0 l 12,3 10,2 13,5 15,5 13,6 10,5 13,5 13,5 12,10 11,10 12,10 10,10 11,11 10,10 7,12 8,11 13,28 7,28 5,30 3,28 v 8 5 5 7 8 l -3,5 -2,5 v 5 l -13,-20 -15,-23 -18,-20 -18,-21 -10,-7 -10,-8 -10,-5 -10,-8 -10,-5 -13,-5 -13,-5 -13,-5 -17,-10 -21,-10 -12,-5 -18,-5 h -10 -8 l -10,-3 h -8 -12 l -8,-2 h -10 -10 -11 -7 l -10,2 h -11 l -12,3 -10,2 h -13 l -10,3 -10,5 -11,2 -12,5 -10,5 -13,8 -10,5 -13,8 z"
   id="path86"
   inkscape:connector-curvature="0"
   style="fill:#ffffff;stroke:none" />
         <path
   d="m 10295,14904 -7,-20 -3,-18 v -18 l 5,-15 11,-20 7,-21 10,-15 13,-15 v 0 l 3,-3 v 0 0 0 l 2,-2 v 0 0 l 15,-15 18,-13 18,-10 18,-8 20,-5 18,-3 h 20 l 15,3 13,2 10,6 8,5 8,5 10,7 10,5 10,8 10,8 8,10 10,15 10,15 8,18 5,15 5,18 v 13 l -3,18 -2,-5 v -6 l -3,-2 -2,-5 -3,-5 -2,-3 -3,-2 -2,-3 v 0 l -3,-2 -2,-3 v 0 l -3,-2 -3,-3 h -2 l -3,-3 -2,-2 v -3 l -3,-2 -2,-3 -3,-2 -5,-3 -2,-2 -3,-3 -5,-2 -5,-3 -8,-5 h -7 l -8,-3 -5,-2 h -8 l -2,-3 -10,-2 -13,-3 h -10 -13 -10 l -10,3 -11,2 -10,3 -17,5 -16,5 -15,8 -13,7 -12,10 -11,13 -10,8 -7,15 -5,8 -5,10 -3,10 z"
   id="path88"
   inkscape:connector-curvature="0"
   style="fill:#ffffff;stroke:none" />
         <path
   d="m 10295,14904 -7,-20 -3,-18 v -18 l 5,-15 11,-20 7,-21 10,-15 13,-15 v 0 l 3,-3 v 0 0 0 l 2,-2 v 0 0 l 15,-15 18,-13 18,-10 18,-8 20,-5 18,-3 h 20 l 15,3 13,2 10,6 8,5 8,5 10,7 10,5 10,8 10,8 8,10 10,15 10,15 8,18 5,15 5,18 v 13 l -3,18 -2,-5 v -6 l -3,-2 -2,-5 -3,-5 -2,-3 -3,-2 -2,-3 v 0 l -3,-2 -2,-3 v 0 l -3,-2 -3,-3 h -2 l -3,-3 -2,-2 v -3 l -3,-2 -2,-3 -3,-2 -5,-3 -2,-2 -3,-3 -5,-2 -5,-3 -8,-5 h -7 l -8,-3 -5,-2 h -8 l -2,-3 -10,-2 -13,-3 h -10 -13 -10 l -10,3 -11,2 -10,3 -17,5 -16,5 -15,8 -13,7 -12,10 -11,13 -10,8 -7,15 -5,8 -5,10 -3,10 z"
   id="path90"
   inkscape:connector-curvature="0"
   style="fill:none;stroke:#ffffff" />
         <path
   d="m 10433,15074 12,3 13,2 h 10 l 13,3 10,5 10,3 5,5 8,5 10,5 10,5 10,5 13,8 8,7 10,8 8,8 7,10 5,7 5,5 11,8 v 8 l 5,7 5,8 5,5 5,5 5,13 5,10 3,13 5,12 5,13 2,15 5,16 3,12 v 3 l -3,5 v 7 l -5,6 5,5 -5,5 v 7 8 l 23,-23 20,-28 16,-28 10,-30 2,-33 -2,-31 -8,-30 -15,-31 v 0 -5 l -3,-2 v 0 0 -3 h -2 v 0 l -10,-15 -10,-13 -13,-13 -13,-10 -15,-10 -15,-8 -18,-7 -18,-5 -18,-3 -17,-2 h -18 l -18,2 -13,3 -12,5 -18,7 -15,8 v 0 l -3,3 -5,2 -3,3 -5,5 -5,2 -2,3 z"
   id="path92"
   inkscape:connector-curvature="0"
   style="fill:#ffffff;stroke:none" />
         <path
   d="m 9038,14813 v 0 -3 -2 0 0 l 2,-3 5,-3 h 3 l 2,-2 5,-3 3,-5 v -5 l 20,-10 18,-10 15,-8 18,-5 8,-2 10,-5 10,-3 10,-5 13,-3 h 10 l 13,-2 h 10 v 0 h 5 3 v 0 0 0 0 0 0 0 0 0 h 17 l 18,2 18,3 18,5 15,5 15,5 15,5 13,5 13,5 13,8 12,10 13,10 13,11 10,12 10,13 13,15 -5,-40 -13,-41 -18,-36 -25,-33 -15,-15 -18,-13 -18,-12 -18,-11 -20,-7 -21,-5 -20,-5 h -18 v 0 0 0 0 0 h -5 -2 v 0 h -3 -2 -3 -2 v 0 0 0 0 l -18,2 -15,5 -21,5 -18,5 -15,8 -15,8 -13,10 -12,10 -18,28 -21,33 -12,33 z"
   id="path94"
   inkscape:connector-curvature="0"
   style="fill:#ffffff;stroke:none" />
         <path
   d="m 9038,14813 v 0 -3 -2 0 0 l 2,-3 5,-3 h 3 l 2,-2 5,-3 3,-5 v -5 l 20,-10 18,-10 15,-8 18,-5 8,-2 10,-5 10,-3 10,-5 13,-3 h 10 l 13,-2 h 10 v 0 h 5 3 v 0 0 0 0 0 0 0 0 0 h 17 l 18,2 18,3 18,5 15,5 15,5 15,5 13,5 13,5 13,8 12,10 13,10 13,11 10,12 10,13 13,15 -5,-40 -13,-41 -18,-36 -25,-33 -15,-15 -18,-13 -18,-12 -18,-11 -20,-7 -21,-5 -20,-5 h -18 v 0 0 0 0 0 h -5 -2 v 0 h -3 -2 -3 -2 v 0 0 0 0 l -18,2 -15,5 -21,5 -18,5 -15,8 -15,8 -13,10 -12,10 -18,28 -21,33 -12,33 z"
   id="path96"
   inkscape:connector-curvature="0"
   style="fill:none;stroke:#ffffff" />
         <path
   d="m 11131,14653 6,-11 v -10 l 2,-12 3,-8 v -8 l 2,-10 3,-7 5,-8 5,-15 7,-16 8,-15 10,-15 13,-15 13,-13 12,-13 13,-12 13,-8 5,-10 10,-8 10,-10 10,-10 11,-8 10,-10 7,-8 10,-7 11,-8 10,-7 10,-8 10,-8 10,-2 10,-5 13,-5 13,-3 13,-3 10,-2 15,-3 -15,-7 -15,-8 -18,-5 -18,-5 -18,-3 h -20 -18 l -20,3 -43,8 -39,17 -38,23 -30,28 -26,33 -20,38 -10,41 -3,43 3,28 7,31 11,28 z"
   id="path98"
   inkscape:connector-curvature="0"
   style="fill:#ffffff;stroke:none" />
         <path
   d="m 11932,14505 -468,94 38,56 -251,74 28,58 -206,59 46,78 -272,97 23,264 437,-310 -48,-48 205,-89 -48,-38 252,-84 -46,-51 z"
   id="path100"
   inkscape:connector-curvature="0"
   style="fill:#ffffff;stroke:none" />
         <path
   d="m 9927,13283 310,358 -66,21 155,213 -59,31 128,170 -87,38 155,246 -178,193 -157,-510 68,-8 -109,-203 66,-3 -150,-218 69,-13 z"
   id="path102"
   inkscape:connector-curvature="0"
   style="fill:#ffffff;stroke:none" />
         <path
   d="m 11556,13240 -379,289 59,33 -196,176 53,43 -160,140 79,56 -203,208 134,226 260,-470 -66,-20 144,-178 -63,-15 190,-183 -58,-28 z"
   id="path104"
   inkscape:connector-curvature="0"
   style="fill:#ffffff;stroke:none" />
         <path
   d="m 9373,14256 424,209 -53,43 226,137 -40,48 182,107 -66,66 244,163 -89,251 -345,-411 56,-31 -178,-142 61,-28 -224,-142 56,-39 z"
   id="path106"
   inkscape:connector-curvature="0"
   style="fill:#ffffff;stroke:none" />
         <path
   d="m 12351,14848 h -13 -15 l -15,-2 -13,-3 -15,-5 -15,-8 -15,-7 -13,-8 -23,-20 -18,-26 -10,-27 -8,-31 v -28 l 3,-28 10,-30 13,-28 7,-13 11,-13 10,-12 10,-11 10,-10 13,-10 12,-10 13,-8 v -2 -8 -5 l -35,-13 -31,-12 -25,-18 -23,-18 -18,-20 -15,-26 -10,-25 -5,-28 v -31 l 2,-27 10,-28 13,-28 10,-11 13,-10 13,-10 12,-8 15,-5 13,-5 15,-5 16,-2 15,-3 h 18 l 17,3 h 16 l 18,5 15,5 15,7 13,8 15,10 15,8 15,13 16,10 18,12 17,13 16,13 17,15 21,18 20,15 20,15 18,13 18,15 18,13 17,10 18,10 18,8 18,8 18,7 20,8 20,5 21,5 20,3 23,2 -38,13 -36,18 -35,22 -36,31 -33,33 -36,41 -30,43 -33,48 -23,33 -23,31 -23,28 -25,22 -23,18 -23,13 -30,10 z"
   id="path108"
   inkscape:connector-curvature="0"
   style="fill:#ffffff;stroke:none" />
         <path
   d="m 9121,14160 18,22 13,26 8,30 5,31 -3,30 -10,28 -15,28 -21,23 -10,10 -10,8 -13,8 -12,7 -13,5 -13,5 -15,5 -15,3 -15,3 h -16 -12 l -18,-3 h -18 l -13,-5 -18,-3 -12,-5 -3,3 -5,5 -2,2 20,66 v 59 l -18,53 -33,46 -10,10 -13,10 -12,8 -13,8 -13,5 -13,2 -15,3 -15,2 h -15 l -16,-2 -15,-3 -15,-5 -15,-7 -13,-8 -15,-10 -13,-10 -23,-26 -18,-25 -12,-31 -5,-33 v -35 l -3,-38 v -44 -43 -51 -48 l -2,-46 -6,-38 -10,-38 -12,-41 -18,-38 -23,-38 33,23 38,15 41,16 45,7 49,8 56,2 50,-2 59,-5 41,-3 h 38 l 35,3 33,5 31,7 30,13 21,13 z"
   id="path110"
   inkscape:connector-curvature="0"
   style="fill:#ffffff;stroke:none" />
         <path
   d="m 12244,13649 232,145 -33,20 -36,18 -41,18 -43,12 -48,10 -51,6 h -56 l -58,-8 -66,267 -31,-26 -28,-28 -30,-33 -23,-38 -28,-43 -20,-46 -18,-53 -10,-59 -275,11 15,-36 21,-35 20,-36 31,-38 30,-36 38,-33 43,-33 54,-28 -104,-251 43,2 38,8 43,10 43,13 46,20 43,25 46,33 43,41 214,-170 7,38 8,41 2,43 v 46 l -7,48 -10,48 -18,54 z"
   id="path112"
   inkscape:connector-curvature="0"
   style="fill:#ffffff;stroke:none" />
         <path
   d="m 9155,13583 -232,145 33,20 36,18 41,18 45,12 46,10 51,5 h 56 l 61,-7 66,267 28,-26 30,-28 31,-33 23,-38 25,-43 20,-46 18,-53 10,-59 277,11 -15,-36 -20,-36 -21,-35 -30,-38 -33,-36 -38,-33 -43,-33 -54,-28 104,-251 -40,2 -41,8 -43,10 -43,13 -46,20 -43,25 -46,33 -43,41 -214,-170 -7,38 -5,41 -5,43 2,46 5,48 10,48 18,53 z"
   id="path114"
   inkscape:connector-curvature="0"
   style="fill:#ffffff;stroke:none" />
         <path
   d="m 11327,16134 -15,30 -13,28 -13,23 -15,21 -15,17 -18,18 -20,18 -26,20 h 59 56 56 l 58,3 h 56 l 56,2 h 56 l 56,3 56,2 56,6 55,2 56,5 56,5 61,5 54,8 56,8 22,15 11,20 -3,20 -10,23 -71,41 -77,38 -81,36 -86,33 -94,30 -97,28 -99,26 -104,22 -109,18 -110,18 -114,15 -114,10 -117,11 -117,7 -120,3 -114,2 -119,-2 -120,-3 -117,-7 -117,-11 -114,-10 -114,-15 -109,-18 -110,-18 -104,-22 -99,-26 -97,-28 -94,-30 -86,-33 -81,-36 -77,-38 -71,-41 -20,-23 v -27 l 15,-21 26,-7 61,-8 61,-8 55,-5 56,-7 54,-5 53,-6 51,-2 51,-3 51,-2 48,-3 48,-2 h 51 51 51 50 l 54,2 h 15 l 5,-5 -5,-5 -13,-10 -17,-15 -18,-13 -21,-18 -15,-23 -48,-89 -43,-101 -33,-115 -26,-119 -18,-122 -7,-122 v -114 l 7,-104 67,15 66,13 66,12 66,13 66,10 63,10 66,8 64,7 66,6 61,5 64,5 63,2 61,3 64,2 h 61 l 58,-2 h 61 l 61,-3 61,-5 61,-5 61,-5 58,-8 61,-7 59,-10 61,-11 58,-12 59,-13 61,-13 61,-12 56,-18 58,-15 58,-18 31,-8 30,-5 33,-8 36,-5 36,-5 38,-2 h 35 38 l 36,5 36,5 35,8 31,12 30,16 28,17 23,23 20,26 33,68 13,82 -5,86 -20,81 -28,49 -31,45 -33,38 -38,38 -38,34 -41,27 -43,28 -43,26 -43,23 -51,23 -46,20 -48,20 -51,18 -48,20 -49,21 z"
   id="path116"
   inkscape:connector-curvature="0"
   style="fill:#ffffff;stroke:none" />
         <path
   d="m 11431,15964 36,-10 33,-13 35,-10 34,-13 33,-15 30,-15 31,-18 30,-18 31,-18 27,-20 26,-23 28,-23 23,-25 25,-28 23,-28 20,-31 18,-68 v -66 l -13,-61 -25,-54 -25,-18 -31,-12 -33,-5 -33,-3 -33,3 -36,5 -30,10 -31,15 -25,13 -23,13 -23,15 -20,18 -18,20 -15,23 -10,23 -8,25 -8,107 -17,104 -21,102 -22,96 h 2 8 l 5,3 z"
   id="path118"
   inkscape:connector-curvature="0"
   style="fill:#000000;stroke:none" />
         <path
   d="m 11866,15646 5,-8 -20,31 -21,25 -25,28 -20,23 -28,23 -26,20 -25,21 -28,15 -31,18 -30,18 -28,15 -33,15 -31,10 -35,10 -33,13 -33,10 15,61 38,-10 33,-13 36,-10 35,-15 33,-15 33,-16 31,-17 30,-18 33,-20 31,-21 25,-25 28,-23 26,-28 25,-28 25,-30 21,-31 5,-8 -5,8 2,-5 3,-3 z"
   id="path120"
   inkscape:connector-curvature="0"
   style="fill:#ffffff;stroke:none" />
         <path
   d="m 11856,15433 -8,-11 23,49 13,53 v 61 l -18,61 61,20 18,-76 v -71 l -13,-69 -28,-58 -8,-10 8,10 -5,-5 -3,-5 z"
   id="path122"
   inkscape:connector-curvature="0"
   style="fill:#ffffff;stroke:none" />
         <path
   d="m 11637,15430 h 3 l 28,-15 22,-8 34,-5 h 30 31 l 27,5 23,10 21,16 40,-51 -30,-20 -38,-16 -38,-5 -36,-5 -36,5 -38,5 -35,13 -36,15 h 5 z"
   id="path124"
   inkscape:connector-curvature="0"
   style="fill:#ffffff;stroke:none" />
         <path
   d="m 11513,15552 v 5 l 7,-20 8,-18 13,-20 15,-16 15,-15 20,-12 23,-13 23,-13 -23,-56 -30,13 -23,13 -26,17 -25,21 -20,25 -18,26 -13,28 -5,30 v 5 z"
   id="path126"
   inkscape:connector-curvature="0"
   style="fill:#ffffff;stroke:none" />
         <path
   d="m 11416,15931 28,35 23,-96 20,-102 18,-107 8,-109 h -59 l -10,104 -18,102 -20,102 -23,96 28,36 -28,-36 -8,31 36,5 z"
   id="path128"
   inkscape:connector-curvature="0"
   style="fill:#ffffff;stroke:none" />
         <path
   d="m 11424,15933 h 10 5 l -10,-2 -13,-3 v 3 l -5,61 5,2 3,-2 v 2 h 10 10 -10 l 2,3 8,-3 z"
   id="path130"
   inkscape:connector-curvature="0"
   style="fill:#ffffff;stroke:none" />
         <path
   d="m 10494,13329 -11,-33 -12,-31 -18,-30 -23,-28 -23,-26 -25,-23 -26,-17 -28,-16 -17,-2 -16,-5 -15,-5 -5,-13 33,-28 41,-18 38,-12 43,-6 h 43 l 38,3 41,8 38,7 13,-15 8,-18 5,-20 5,-28 12,-61 16,-41 17,-20 21,3 10,2 13,5 10,10 13,16 10,17 7,23 10,28 8,31 3,28 5,22 7,18 13,13 41,-10 40,-8 44,-5 45,-2 43,5 41,10 41,18 35,28 -7,10 -13,7 -18,5 -18,3 -27,15 -26,21 -25,22 -23,28 -18,28 -18,31 -12,33 -11,33 -30,114 -33,102 -28,84 -36,68 -33,54 -33,38 -30,23 -31,5 -30,-8 -28,-25 -26,-38 -22,-56 -21,-69 -18,-86 -10,-99 z"
   id="path132"
   inkscape:connector-curvature="0"
   style="fill:#ffffff;stroke:none" />
         <path
   d="m 8486,15148 -30,43 -26,38 -20,36 -15,30 -8,26 -5,23 v 18 l 5,12 10,10 18,8 23,8 28,2 h 33 38 l 46,-7 51,-8 -3,38 v 41 l 8,30 28,18 58,-41 53,-43 51,-46 46,-48 41,-51 38,-53 33,-59 30,-58 3,-25 -18,-23 -38,-18 -48,-15 -61,-10 -69,-6 -71,-5 -74,3 -68,2 -61,11 -51,10 -36,15 -20,18 2,23 26,25 z"
   id="path134"
   inkscape:connector-curvature="0"
   style="fill:#ffffff;stroke:none" />
         <path
   d="m 8400,15367 v 0 l -3,-8 v -15 l 5,-21 8,-22 13,-28 20,-36 25,-38 31,-43 -25,-16 -31,44 -25,38 -21,35 -18,33 -7,28 -5,26 v 20 l 7,18 v 0 z"
   id="path136"
   inkscape:connector-curvature="0"
   style="fill:#ffffff;stroke:none" />
         <path
   d="m 8649,15387 -18,-15 -48,7 -46,8 h -38 -33 l -26,-3 -20,-7 -15,-5 -5,-5 -26,15 16,15 20,10 25,8 31,2 h 33 38 l 46,-7 53,-8 -18,-15 h 31 v -18 l -18,3 z"
   id="path138"
   inkscape:connector-curvature="0"
   style="fill:#ffffff;stroke:none" />
         <path
   d="m 8659,15501 10,-2 -18,-10 -5,-23 v -41 l 3,-38 h -31 l -2,38 v 41 l 10,38 38,25 10,-2 -10,2 h 5 l 5,-2 z"
   id="path140"
   inkscape:connector-curvature="0"
   style="fill:#ffffff;stroke:none" />
         <path
   d="m 9005,15110 v 0 l -31,56 -33,58 -38,54 -38,48 -46,48 -51,46 -51,41 -58,40 15,26 59,-41 56,-46 50,-45 46,-49 43,-53 38,-53 34,-59 30,-61 v 0 z"
   id="path142"
   inkscape:connector-curvature="0"
   style="fill:#ffffff;stroke:none" />
         <path
   d="m 8499,15156 -8,-21 -51,-28 -20,-20 -2,-10 15,-10 30,-13 51,-10 59,-10 68,-3 74,-2 71,5 69,5 58,10 46,15 35,15 11,13 v 18 l 25,10 5,-33 -25,-33 -38,-20 -51,-16 -66,-10 -69,-5 -71,-5 -74,3 -68,2 -64,10 -51,11 -40,17 -26,26 3,35 30,31 56,28 -7,-21 25,16 13,-13 -21,-8 z"
   id="path144"
   inkscape:connector-curvature="0"
   style="fill:#ffffff;stroke:none" />
         <path
   d="m 12877,15237 23,48 18,41 13,38 10,31 2,27 v 23 l -2,18 -8,13 -13,7 -17,6 -23,2 -28,-2 -33,-6 -36,-10 -43,-12 -46,-16 -5,36 -8,38 -15,31 -28,15 -51,-51 -45,-53 -41,-54 -35,-56 -34,-58 -25,-59 -23,-63 -20,-64 2,-25 21,-20 38,-10 53,-6 h 61 l 69,8 71,10 69,13 66,18 58,17 48,21 36,23 15,20 -5,23 -30,20 z"
   id="path146"
   inkscape:connector-curvature="0"
   style="fill:#ffffff;stroke:none" />
         <path
   d="m 12943,15486 h 3 l 10,-18 2,-23 v -23 l -2,-30 -10,-33 -13,-38 -20,-41 -23,-48 -26,10 23,48 16,41 12,38 10,28 3,25 v 23 l -3,13 -5,8 h 3 l 20,20 v 0 h 3 z"
   id="path148"
   inkscape:connector-curvature="0"
   style="fill:#ffffff;stroke:none" />
         <path
   d="m 12709,15448 -20,13 48,15 44,13 35,10 36,5 28,2 25,-2 20,-8 18,-10 -20,-20 -8,5 -15,2 -20,3 -28,-3 -31,-5 -35,-10 -44,-13 -43,-15 -20,13 20,-13 -18,-5 -2,18 z"
   id="path150"
   inkscape:connector-curvature="0"
   style="fill:#ffffff;stroke:none" />
         <path
   d="m 12628,15575 10,5 38,-20 21,-36 7,-41 5,-35 -30,-5 -5,35 -8,36 -10,25 -18,11 10,5 -20,20 5,5 h 5 z"
   id="path152"
   inkscape:connector-curvature="0"
   style="fill:#ffffff;stroke:none" />
         <path
   d="m 12349,15110 v 0 l 20,66 23,64 28,58 33,61 35,56 41,56 48,53 51,51 20,-20 -50,-51 -44,-54 -40,-50 -36,-56 -33,-56 -23,-59 -23,-63 -20,-61 v 0 z"
   id="path154"
   inkscape:connector-curvature="0"
   style="fill:#ffffff;stroke:none" />
         <path
   d="m 12890,15232 -10,20 61,-20 38,-23 7,-36 -20,-27 -41,-26 -48,-23 -61,-18 -66,-17 -69,-13 -73,-10 -69,-8 h -61 l -56,5 -40,13 -28,28 -5,33 30,-5 v -18 l 13,-13 35,-7 51,-5 h 61 l 69,7 68,10 69,13 66,18 56,18 48,18 31,20 10,13 -3,10 -22,18 -56,15 -11,20 11,-20 -21,5 10,15 z"
   id="path156"
   inkscape:connector-curvature="0"
   style="fill:#ffffff;stroke:none" />
        </g>
       </g>
      </g>
     </g>
    </g>
   </g>
  </g>
 </g>
</svg>