<?xml version="1.0" encoding="UTF-8" standalone="no"?>
<svg
   xmlns:ooo="http://xml.openoffice.org/svg/export"
   xmlns:dc="http://purl.org/dc/elements/1.1/"
   xmlns:cc="http://creativecommons.org/ns#"
   xmlns:rdf="http://www.w3.org/1999/02/22-rdf-syntax-ns#"
   xmlns:svg="http://www.w3.org/2000/svg"
   xmlns="http://www.w3.org/2000/svg"
   xmlns:sodipodi="http://sodipodi.sourceforge.net/DTD/sodipodi-0.dtd"
   xmlns:inkscape="http://www.inkscape.org/namespaces/inkscape"
   version="1.2"
   width="40.079998mm"
   height="44.860001mm"
   viewBox="0 0 4007.9998 4486.0001"
   preserveAspectRatio="xMidYMid"
   xml:space="preserve"
   id="svg99"
   sodipodi:docname="cymbals.svg"
   style="fill-rule:evenodd;stroke-width:28.22200012;stroke-linejoin:round"
   inkscape:version="0.92.5 (2060ec1f9f, 2020-04-08)"><metadata
   id="metadata103"><rdf:RDF><cc:Work
       rdf:about=""><dc:format>image/svg+xml</dc:format><dc:type
         rdf:resource="http://purl.org/dc/dcmitype/StillImage" /></cc:Work></rdf:RDF></metadata><sodipodi:namedview
   pagecolor="#ffffff"
   bordercolor="#666666"
   borderopacity="1"
   objecttolerance="10"
   gridtolerance="10"
   guidetolerance="10"
   inkscape:pageopacity="0"
   inkscape:pageshadow="2"
   inkscape:window-width="664"
   inkscape:window-height="487"
   id="namedview101"
   showgrid="false"
   inkscape:zoom="0.2102413"
   inkscape:cx="75.741733"
   inkscape:cy="84.774801"
   inkscape:window-x="0"
   inkscape:window-y="0"
   inkscape:window-maximized="0"
   inkscape:current-layer="svg99" />
 <defs
   class="ClipPathGroup"
   id="defs8">
  <clipPath
   id="presentation_clip_path"
   clipPathUnits="userSpaceOnUse">
   <rect
   x="0"
   y="0"
   width="21000"
   height="29700"
   id="rect2" />
  </clipPath>
  <clipPath
   id="presentation_clip_path_shrink"
   clipPathUnits="userSpaceOnUse">
   <rect
   x="21"
   y="29"
   width="20958"
   height="29641"
   id="rect5" />
  </clipPath>
 </defs>
 <defs
   class="TextShapeIndex"
   id="defs12">
  <g
   ooo:slide="id1"
   ooo:id-list="id3"
   id="g10" />
 </defs>
 <defs
   class="EmbeddedBulletChars"
   id="defs44">
  <g
   id="bullet-char-template-57356"
   transform="matrix(4.8828125e-4,0,0,-4.8828125e-4,0,0)">
   <path
   d="M 580,1141 1163,571 580,0 -4,571 Z"
   id="path14"
   inkscape:connector-curvature="0" />
  </g>
  <g
   id="bullet-char-template-57354"
   transform="matrix(4.8828125e-4,0,0,-4.8828125e-4,0,0)">
   <path
   d="M 8,1128 H 1137 V 0 H 8 Z"
   id="path17"
   inkscape:connector-curvature="0" />
  </g>
  <g
   id="bullet-char-template-10146"
   transform="matrix(4.8828125e-4,0,0,-4.8828125e-4,0,0)">
   <path
   d="M 174,0 602,739 174,1481 1456,739 Z M 1358,739 309,1346 659,739 Z"
   id="path20"
   inkscape:connector-curvature="0" />
  </g>
  <g
   id="bullet-char-template-10132"
   transform="matrix(4.8828125e-4,0,0,-4.8828125e-4,0,0)">
   <path
   d="M 2015,739 1276,0 H 717 l 543,543 H 174 v 393 h 1086 l -543,545 h 557 z"
   id="path23"
   inkscape:connector-curvature="0" />
  </g>
  <g
   id="bullet-char-template-10007"
   transform="matrix(4.8828125e-4,0,0,-4.8828125e-4,0,0)">
   <path
   d="m 0,-2 c -7,16 -16,29 -25,39 l 381,530 c -94,256 -141,385 -141,387 0,25 13,38 40,38 9,0 21,-2 34,-5 21,4 42,12 65,25 l 27,-13 111,-251 280,301 64,-25 24,25 c 21,-10 41,-24 62,-43 C 886,937 835,863 770,784 769,783 710,716 594,584 L 774,223 c 0,-27 -21,-55 -63,-84 l 16,-20 C 717,90 699,76 672,76 641,76 570,178 457,381 L 164,-76 c -22,-34 -53,-51 -92,-51 -42,0 -63,17 -64,51 -7,9 -10,24 -10,44 0,9 1,19 2,30 z"
   id="path26"
   inkscape:connector-curvature="0" />
  </g>
  <g
   id="bullet-char-template-10004"
   transform="matrix(4.8828125e-4,0,0,-4.8828125e-4,0,0)">
   <path
   d="M 285,-33 C 182,-33 111,30 74,156 52,228 41,333 41,471 c 0,78 14,145 41,201 34,71 87,106 158,106 53,0 88,-31 106,-94 l 23,-176 c 8,-64 28,-97 59,-98 l 735,706 c 11,11 33,17 66,17 42,0 63,-15 63,-46 V 965 c 0,-36 -10,-64 -30,-84 L 442,47 C 390,-6 338,-33 285,-33 Z"
   id="path29"
   inkscape:connector-curvature="0" />
  </g>
  <g
   id="bullet-char-template-9679"
   transform="matrix(4.8828125e-4,0,0,-4.8828125e-4,0,0)">
   <path
   d="M 813,0 C 632,0 489,54 383,161 276,268 223,411 223,592 c 0,181 53,324 160,431 106,107 249,161 430,161 179,0 323,-54 432,-161 108,-107 162,-251 162,-431 0,-180 -54,-324 -162,-431 C 1136,54 992,0 813,0 Z"
   id="path32"
   inkscape:connector-curvature="0" />
  </g>
  <g
   id="bullet-char-template-8226"
   transform="matrix(4.8828125e-4,0,0,-4.8828125e-4,0,0)">
   <path
   d="m 346,457 c -73,0 -137,26 -191,78 -54,51 -81,114 -81,188 0,73 27,136 81,188 54,52 118,78 191,78 73,0 134,-26 185,-79 51,-51 77,-114 77,-187 0,-75 -25,-137 -76,-188 -50,-52 -112,-78 -186,-78 z"
   id="path35"
   inkscape:connector-curvature="0" />
  </g>
  <g
   id="bullet-char-template-8211"
   transform="matrix(4.8828125e-4,0,0,-4.8828125e-4,0,0)">
   <path
   d="M -4,459 H 1135 V 606 H -4 Z"
   id="path38"
   inkscape:connector-curvature="0" />
  </g>
  <g
   id="bullet-char-template-61548"
   transform="matrix(4.8828125e-4,0,0,-4.8828125e-4,0,0)">
   <path
   d="m 173,740 c 0,163 58,303 173,419 116,115 255,173 419,173 163,0 302,-58 418,-173 116,-116 174,-256 174,-419 0,-163 -58,-303 -174,-418 C 1067,206 928,148 765,148 601,148 462,206 346,322 231,437 173,577 173,740 Z"
   id="path41"
   inkscape:connector-curvature="0" />
  </g>
 </defs>
 <g
   id="g49"
   transform="translate(-8496,-12607)">
  <g
   id="id2"
   class="Master_Slide">
   <g
   id="bg-id2"
   class="Background" />
   <g
   id="bo-id2"
   class="BackgroundObjects" />
  </g>
 </g>
 <g
   class="SlideGroup"
   id="g97"
   transform="translate(-8496,-12607)">
  <g
   id="g95">
   <g
   id="container-id1">
    <g
   id="id1"
   class="Slide"
   clip-path="url(#presentation_clip_path)">
     <g
   class="Page"
   id="g91">
      <g
   class="Graphic"
   id="g89">
       <g
   id="id3">
        <rect
   class="BoundingBox"
   x="8496"
   y="12607"
   width="4008"
   height="4486"
   id="rect51"
   style="fill:none;stroke:none" />
        <defs
   id="defs56">
         <clipPath
   id="clip_path_1"
   clipPathUnits="userSpaceOnUse">
          <path
   d="m 8496,12607 h 4007 v 4485 H 8496 Z"
   id="path53"
   inkscape:connector-curvature="0" />
         </clipPath>
        </defs>
        <g
   clip-path="url(#clip_path_1)"
   id="g86">
         <path
   d="m 11223,15680 140,-54 132,-58 127,-58 120,-61 111,-64 105,-61 96,-64 89,-61 79,-58 69,-56 61,-56 48,-48 38,-46 28,-41 15,-35 5,-28 -5,-46 -18,-48 -33,-48 -45,-46 -59,-48 -69,-46 -81,-46 -91,-43 -102,-41 -109,-38 -117,-36 -127,-33 -132,-30 -138,-25 -145,-21 -147,-15 -147,-10 -148,-8 -140,-2 -134,5 -130,7 -124,10 -115,18 -107,21 -99,25 -89,28 -78,36 -66,35 -54,41 -41,46 -27,48 -13,51 v 40 l 10,41 18,38 25,41 36,38 40,36 49,35 56,36 63,33 69,33 74,30 78,28 87,28 89,28 94,23 96,23 -89,48 -84,48 -81,49 -74,51 -71,48 -63,51 -56,48 -51,51 -46,48 -35,46 -28,46 -21,45 -12,44 -3,40 8,38 15,36 20,23 33,18 41,17 51,11 61,10 68,5 h 77 l 84,-5 91,-8 99,-10 104,-18 112,-20 115,-26 119,-30 125,-36 127,-40 z"
   id="path58"
   inkscape:connector-curvature="0"
   style="fill:#000000;stroke:none" />
         <path
   d="m 11076,15731 101,1354 44,8 2,-1413 z"
   id="path60"
   inkscape:connector-curvature="0"
   style="fill:#000000;stroke:none" />
         <path
   d="m 12486,14831 -5,-48 -18,-49 -33,-45 -43,-46 -58,-43 -66,-44 -79,-40 -89,-38 -97,-36 -107,-33 -114,-30 -122,-28 -127,-26 -135,-23 -137,-18 -145,-15 -137,-10 -135,-8 -132,-2 h -124 l -122,2 -115,8 -109,13 -102,15 -94,20 -84,23 -76,26 -68,30 -56,33 -44,38 -35,41 -21,46 54,-8 63,-8 77,-7 81,-5 91,-5 94,-5 102,-3 102,-2 h 104 104 l 102,2 99,5 97,5 89,10 81,8 74,13 -466,91 204,94 -300,74 196,74 -293,71 173,38 -208,61 18,5 15,5 18,3 17,5 16,2 17,5 18,3 18,5 28,5 30,8 28,7 28,5 31,8 30,8 28,5 31,7 30,5 33,6 31,7 30,5 33,5 33,3 33,5 33,3 145,10 143,5 137,-3 135,-5 127,-10 122,-15 114,-21 107,-22 96,-28 87,-28 79,-33 63,-36 54,-36 38,-38 25,-40 z"
   id="path62"
   inkscape:connector-curvature="0"
   style="fill:#d1d8e2;stroke:none" />
         <path
   d="m 11096,14567 -8,-168 130,20 -10,36 -87,-13 -2,25 79,23 -31,84 z"
   id="path64"
   inkscape:connector-curvature="0"
   style="fill:#000000;stroke:none" />
         <path
   d="m 11538,14526 -15,-3 -13,-5 -12,-2 -13,-3 h -13 l -10,-2 -10,-3 h -10 l -8,15 -15,16 -15,15 -21,15 -25,13 -26,13 -30,12 -31,10 38,-7 39,-8 40,-10 38,-10 36,-13 30,-13 26,-15 z"
   id="path66"
   inkscape:connector-curvature="0"
   style="fill:#000000;stroke:none" />
         <path
   d="m 11442,14668 30,-12 28,-13 26,-15 25,-16 20,-17 18,-18 13,-18 5,-18 13,3 15,2 13,5 15,3 12,5 16,3 15,5 15,2 -25,18 -33,18 -36,18 -40,15 -41,12 -41,11 -33,7 z"
   id="path68"
   inkscape:connector-curvature="0"
   style="fill:#000000;stroke:none" />
         <path
   d="m 11617,14732 33,-15 31,-16 30,-20 28,-18 23,-18 20,-20 15,-15 8,-15 15,5 16,2 15,5 15,5 15,3 16,5 15,5 15,5 -36,18 -40,18 -46,15 -46,15 -43,13 -41,10 -33,8 z"
   id="path70"
   inkscape:connector-curvature="0"
   style="fill:#000000;stroke:none" />
         <path
   d="m 12057,14676 -10,-3 -11,-5 -10,-2 -10,-5 -10,-3 -10,-5 -10,-3 -11,-2 -20,20 -25,21 -28,17 -33,18 -33,18 -36,15 -33,13 -31,10 44,-5 43,-10 48,-13 46,-13 43,-15 38,-15 33,-18 z"
   id="path72"
   inkscape:connector-curvature="0"
   style="fill:#000000;stroke:none" />
         <path
   d="m 12209,14737 -13,-5 -12,-8 -13,-5 -15,-5 -13,-5 -15,-8 -13,-5 -15,-5 -23,23 -28,28 -30,25 -33,26 -36,23 -38,20 -38,15 -36,10 59,-12 55,-13 54,-18 53,-15 49,-18 40,-18 36,-15 z"
   id="path74"
   inkscape:connector-curvature="0"
   style="fill:#000000;stroke:none" />
         <path
   d="m 12344,14808 -10,-8 -10,-5 -13,-7 -10,-8 -13,-5 -15,-8 -13,-7 -15,-8 -18,23 -25,25 -28,26 -33,25 -33,26 -34,20 -33,18 -28,13 59,-13 56,-13 48,-15 46,-18 41,-15 33,-18 28,-15 z"
   id="path76"
   inkscape:connector-curvature="0"
   style="fill:#000000;stroke:none" />
         <path
   d="m 8712,13636 -20,-25 -13,-31 -3,-28 6,-25 5,-10 5,-10 7,-8 10,-8 11,-5 12,-2 13,-3 15,3 1823,818 17,-5 18,-2 23,2 23,5 20,13 21,18 12,25 10,31 -25,10 -25,5 h -26 l -23,-3 -20,-7 -20,-13 -16,-18 -12,-20 z"
   id="path78"
   inkscape:connector-curvature="0"
   style="fill:#000000;stroke:none" />
         <path
   d="m 8521,12759 -15,-30 -2,-28 2,-28 10,-25 8,-11 8,-7 10,-5 10,-5 10,-3 h 13 15 l 13,5 1847,1375 18,-2 21,2 22,8 21,13 18,15 15,23 7,25 3,33 -28,3 h -25 l -26,-5 -20,-8 -20,-13 -16,-15 -12,-20 -8,-23 z"
   id="path80"
   inkscape:connector-curvature="0"
   style="fill:#000000;stroke:none" />
         <path
   d="m 10727,14389 -10,-31 -12,-25 -21,-18 -20,-13 -23,-5 -23,-2 -18,2 -17,5 -1823,-818 -15,-3 -13,3 -12,2 -11,5 -10,8 -7,8 -5,10 -5,10 z"
   id="path82"
   inkscape:connector-curvature="0"
   style="fill:#db8763;stroke:none" />
         <path
   d="m 10575,14114 -3,-33 -7,-25 -15,-23 -18,-15 -21,-13 -22,-8 -21,-2 -18,2 -1847,-1375 -13,-5 h -15 -13 l -10,3 -10,5 -10,5 -8,7 -8,11 z"
   id="path84"
   inkscape:connector-curvature="0"
   style="fill:#db8763;stroke:none" />
        </g>
       </g>
      </g>
     </g>
    </g>
   </g>
  </g>
 </g>
</svg>