<?xml version="1.0" encoding="UTF-8" standalone="no"?>
<svg
   xmlns:ooo="http://xml.openoffice.org/svg/export"
   xmlns:dc="http://purl.org/dc/elements/1.1/"
   xmlns:cc="http://creativecommons.org/ns#"
   xmlns:rdf="http://www.w3.org/1999/02/22-rdf-syntax-ns#"
   xmlns:svg="http://www.w3.org/2000/svg"
   xmlns="http://www.w3.org/2000/svg"
   xmlns:sodipodi="http://sodipodi.sourceforge.net/DTD/sodipodi-0.dtd"
   xmlns:inkscape="http://www.inkscape.org/namespaces/inkscape"
   version="1.2"
   width="24.92mm"
   height="33.099998mm"
   viewBox="0 0 2492 3309.9998"
   preserveAspectRatio="xMidYMid"
   xml:space="preserve"
   id="svg150"
   sodipodi:docname="dance2.svg"
   style="fill-rule:evenodd;stroke-width:28.22200012;stroke-linejoin:round"
   inkscape:version="0.92.5 (2060ec1f9f, 2020-04-08)"><metadata
   id="metadata154"><rdf:RDF><cc:Work
       rdf:about=""><dc:format>image/svg+xml</dc:format><dc:type
         rdf:resource="http://purl.org/dc/dcmitype/StillImage" /></cc:Work></rdf:RDF></metadata><sodipodi:namedview
   pagecolor="#ffffff"
   bordercolor="#666666"
   borderopacity="1"
   objecttolerance="10"
   gridtolerance="10"
   guidetolerance="10"
   inkscape:pageopacity="0"
   inkscape:pageshadow="2"
   inkscape:window-width="664"
   inkscape:window-height="487"
   id="namedview152"
   showgrid="false"
   inkscape:zoom="0.2102413"
   inkscape:cx="47.092914"
   inkscape:cy="62.551179"
   inkscape:window-x="0"
   inkscape:window-y="0"
   inkscape:window-maximized="0"
   inkscape:current-layer="svg150" />
 <defs
   class="ClipPathGroup"
   id="defs8">
  <clipPath
   id="presentation_clip_path"
   clipPathUnits="userSpaceOnUse">
   <rect
   x="0"
   y="0"
   width="21000"
   height="29700"
   id="rect2" />
  </clipPath>
  <clipPath
   id="presentation_clip_path_shrink"
   clipPathUnits="userSpaceOnUse">
   <rect
   x="21"
   y="29"
   width="20958"
   height="29641"
   id="rect5" />
  </clipPath>
 </defs>
 <defs
   class="TextShapeIndex"
   id="defs12">
  <g
   ooo:slide="id1"
   ooo:id-list="id3"
   id="g10" />
 </defs>
 <defs
   class="EmbeddedBulletChars"
   id="defs44">
  <g
   id="bullet-char-template-57356"
   transform="matrix(4.8828125e-4,0,0,-4.8828125e-4,0,0)">
   <path
   d="M 580,1141 1163,571 580,0 -4,571 Z"
   id="path14"
   inkscape:connector-curvature="0" />
  </g>
  <g
   id="bullet-char-template-57354"
   transform="matrix(4.8828125e-4,0,0,-4.8828125e-4,0,0)">
   <path
   d="M 8,1128 H 1137 V 0 H 8 Z"
   id="path17"
   inkscape:connector-curvature="0" />
  </g>
  <g
   id="bullet-char-template-10146"
   transform="matrix(4.8828125e-4,0,0,-4.8828125e-4,0,0)">
   <path
   d="M 174,0 602,739 174,1481 1456,739 Z M 1358,739 309,1346 659,739 Z"
   id="path20"
   inkscape:connector-curvature="0" />
  </g>
  <g
   id="bullet-char-template-10132"
   transform="matrix(4.8828125e-4,0,0,-4.8828125e-4,0,0)">
   <path
   d="M 2015,739 1276,0 H 717 l 543,543 H 174 v 393 h 1086 l -543,545 h 557 z"
   id="path23"
   inkscape:connector-curvature="0" />
  </g>
  <g
   id="bullet-char-template-10007"
   transform="matrix(4.8828125e-4,0,0,-4.8828125e-4,0,0)">
   <path
   d="m 0,-2 c -7,16 -16,29 -25,39 l 381,530 c -94,256 -141,385 -141,387 0,25 13,38 40,38 9,0 21,-2 34,-5 21,4 42,12 65,25 l 27,-13 111,-251 280,301 64,-25 24,25 c 21,-10 41,-24 62,-43 C 886,937 835,863 770,784 769,783 710,716 594,584 L 774,223 c 0,-27 -21,-55 -63,-84 l 16,-20 C 717,90 699,76 672,76 641,76 570,178 457,381 L 164,-76 c -22,-34 -53,-51 -92,-51 -42,0 -63,17 -64,51 -7,9 -10,24 -10,44 0,9 1,19 2,30 z"
   id="path26"
   inkscape:connector-curvature="0" />
  </g>
  <g
   id="bullet-char-template-10004"
   transform="matrix(4.8828125e-4,0,0,-4.8828125e-4,0,0)">
   <path
   d="M 285,-33 C 182,-33 111,30 74,156 52,228 41,333 41,471 c 0,78 14,145 41,201 34,71 87,106 158,106 53,0 88,-31 106,-94 l 23,-176 c 8,-64 28,-97 59,-98 l 735,706 c 11,11 33,17 66,17 42,0 63,-15 63,-46 V 965 c 0,-36 -10,-64 -30,-84 L 442,47 C 390,-6 338,-33 285,-33 Z"
   id="path29"
   inkscape:connector-curvature="0" />
  </g>
  <g
   id="bullet-char-template-9679"
   transform="matrix(4.8828125e-4,0,0,-4.8828125e-4,0,0)">
   <path
   d="M 813,0 C 632,0 489,54 383,161 276,268 223,411 223,592 c 0,181 53,324 160,431 106,107 249,161 430,161 179,0 323,-54 432,-161 108,-107 162,-251 162,-431 0,-180 -54,-324 -162,-431 C 1136,54 992,0 813,0 Z"
   id="path32"
   inkscape:connector-curvature="0" />
  </g>
  <g
   id="bullet-char-template-8226"
   transform="matrix(4.8828125e-4,0,0,-4.8828125e-4,0,0)">
   <path
   d="m 346,457 c -73,0 -137,26 -191,78 -54,51 -81,114 -81,188 0,73 27,136 81,188 54,52 118,78 191,78 73,0 134,-26 185,-79 51,-51 77,-114 77,-187 0,-75 -25,-137 -76,-188 -50,-52 -112,-78 -186,-78 z"
   id="path35"
   inkscape:connector-curvature="0" />
  </g>
  <g
   id="bullet-char-template-8211"
   transform="matrix(4.8828125e-4,0,0,-4.8828125e-4,0,0)">
   <path
   d="M -4,459 H 1135 V 606 H -4 Z"
   id="path38"
   inkscape:connector-curvature="0" />
  </g>
  <g
   id="bullet-char-template-61548"
   transform="matrix(4.8828125e-4,0,0,-4.8828125e-4,0,0)">
   <path
   d="m 173,740 c 0,163 58,303 173,419 116,115 255,173 419,173 163,0 302,-58 418,-173 116,-116 174,-256 174,-419 0,-163 -58,-303 -174,-418 C 1067,206 928,148 765,148 601,148 462,206 346,322 231,437 173,577 173,740 Z"
   id="path41"
   inkscape:connector-curvature="0" />
  </g>
 </defs>
 <g
   id="g49"
   transform="translate(-9254,-13195)">
  <g
   id="id2"
   class="Master_Slide">
   <g
   id="bg-id2"
   class="Background" />
   <g
   id="bo-id2"
   class="BackgroundObjects" />
  </g>
 </g>
 <g
   class="SlideGroup"
   id="g148"
   transform="translate(-9254,-13195)">
  <g
   id="g146">
   <g
   id="container-id1">
    <g
   id="id1"
   class="Slide"
   clip-path="url(#presentation_clip_path)">
     <g
   class="Page"
   id="g142">
      <g
   class="Graphic"
   id="g140">
       <g
   id="id3">
        <rect
   class="BoundingBox"
   x="9254"
   y="13195"
   width="2492"
   height="3310"
   id="rect51"
   style="fill:none;stroke:none" />
        <path
   d="m 10770,15808 5,-17 5,-16 v -12 -8 l -26,3 -25,5 -28,5 -26,7 -25,13 -25,13 -23,15 -26,20 -7,97 -16,137 -22,138 -18,91 15,-28 15,-28 18,-28 18,-20 18,-15 17,-3 16,13 12,30 13,-40 15,-49 18,-56 18,-58 18,-59 18,-56 15,-50 z"
   id="path53"
   inkscape:connector-curvature="0"
   style="fill:#000000;stroke:none" />
        <path
   d="m 11075,15747 -13,5 -15,6 -18,2 -18,3 h -18 -20 -20 l -21,-3 -12,36 -13,40 -15,44 -16,45 -12,44 -16,43 -10,43 -10,36 18,-21 15,-18 13,-15 15,-7 h 13 l 15,5 15,12 18,21 15,-51 13,-43 10,-36 13,-28 18,-33 20,-46 20,-48 z"
   id="path55"
   inkscape:connector-curvature="0"
   style="fill:#000000;stroke:none" />
        <path
   d="m 10396,14029 20,2 20,5 16,6 15,10 13,10 10,13 10,12 8,16 10,30 5,33 -3,36 -5,30 -23,13 -17,15 -18,15 -15,16 -13,15 -13,13 -10,15 -8,13 -10,12 -13,16 -17,15 -21,15 -20,18 -20,15 -18,15 -18,13 -18,13 -20,13 -21,12 -20,16 -18,15 -12,18 -11,17 -2,23 v 15 l -3,16 -10,18 -15,15 -15,15 -13,18 -13,20 -15,23 -20,-5 -18,-10 -18,-10 -18,-13 -12,-5 -11,5 -15,8 -25,7 10,-25 7,-23 6,-26 10,-22 10,-26 15,-25 23,-28 28,-31 28,-46 31,-48 27,-46 28,-43 28,-40 28,-36 26,-28 25,-20 26,-18 23,-20 20,-23 20,-23 18,-23 15,-23 16,-20 z"
   id="path57"
   inkscape:connector-curvature="0"
   style="fill:#000000;stroke:none" />
        <path
   d="m 10495,13803 43,-5 38,-3 h 36 l 28,5 25,8 23,10 18,13 15,12 15,16 13,12 13,13 13,10 12,8 13,7 10,3 h 13 l 23,-8 13,-20 v -25 l -8,-28 -26,-23 -22,-26 -18,-23 -8,-17 v -18 l 5,-18 v -15 l -5,-18 13,-3 15,-7 15,-8 13,-10 13,-13 13,-15 7,-15 5,-18 5,-41 3,-40 -3,-39 -5,-25 -5,-18 -2,-18 v -15 l 2,-10 -5,-15 -8,-15 -10,-18 -12,-18 -13,-15 -13,-10 -10,-8 h -10 l -5,8 -8,17 -10,21 -13,28 -15,25 -18,25 -25,23 -31,16 -25,7 -18,3 -13,7 -7,16 -5,20 v 18 l 2,15 v 15 l 3,13 7,10 10,3 16,-5 2,33 -5,33 -13,38 -17,35 -23,33 -26,31 -28,23 z"
   id="path59"
   inkscape:connector-curvature="0"
   style="fill:#000000;stroke:none" />
        <path
   d="m 9824,16103 5,-28 20,-23 31,-15 38,-10 43,-8 43,-2 41,-3 h 38 36 l 35,-2 h 41 l 41,-3 43,-5 46,-2 48,-5 51,-6 28,-2 35,-5 38,-3 44,-2 45,-3 46,-2 51,-3 51,-2 h 51 l 51,-3 h 50 l 46,-2 h 46 41 l 38,2 h 33 l 63,3 64,7 66,5 59,10 51,11 43,10 25,13 10,15 -2,15 -10,13 -16,12 -20,13 -20,10 -23,10 -23,8 -23,8 -8,25 -10,23 -15,25 -18,26 -20,23 -26,23 -28,23 -30,20 -36,18 -38,17 -41,16 -45,10 -49,10 -53,5 -56,3 h -61 l -58,-3 -51,-5 -46,-2 -38,-6 -33,-2 -31,-5 -25,-3 -23,-5 -20,-2 -18,-3 -18,-2 -18,-3 h -18 -20 -20 -26 -18 l -25,-5 -33,-8 -38,-7 -41,-13 -46,-15 -45,-16 -49,-17 -46,-18 -45,-20 -41,-23 -36,-21 -33,-23 -23,-22 -15,-21 z"
   id="path61"
   inkscape:connector-curvature="0"
   style="fill:#000000;stroke:none" />
        <path
   d="m 10439,15488 -5,13 -8,13 -7,12 -5,13 -18,28 -18,25 -18,18 -15,15 -20,23 -6,18 8,15 18,5 28,8 18,15 7,21 v 22 l -5,23 -10,26 -10,25 -15,23 h 17 l 21,3 20,2 20,5 23,5 23,8 23,10 23,10 13,-15 12,-15 11,-13 12,-13 26,-20 23,-15 25,-13 25,-13 26,-7 28,-5 25,-5 26,-3 h 20 20 18 21 l 20,3 h 18 l 17,2 h 18 l 21,3 h 20 20 18 l 18,-3 18,-2 15,-6 13,-5 43,-22 43,-21 43,-18 46,-15 51,-13 51,-10 58,-7 61,-3 66,-5 56,-15 46,-21 36,-28 25,-33 21,-40 12,-49 5,-50 -2,-54 -13,-48 -20,-46 -31,-41 -40,-35 -46,-33 -54,-26 -61,-20 -2,-71 7,-69 13,-61 21,-58 22,-54 28,-50 28,-46 26,-43 10,-21 10,-18 10,-17 10,-18 13,-51 v -66 l -10,-74 -18,-79 -23,-81 -28,-74 -28,-68 -25,-54 -25,-43 -28,-43 -31,-41 -28,-41 -28,-43 -25,-43 -18,-46 -10,-48 -13,8 -13,7 -15,8 -13,10 -12,8 -13,10 -15,7 -13,11 -13,10 -15,10 -15,13 -13,10 -18,15 -18,15 -17,16 -16,15 -18,18 -20,17 -15,18 -18,18 -15,18 -15,15 -13,15 -10,16 2,15 5,15 3,18 2,15 -2,59 -10,45 -18,38 -18,31 -13,20 -12,26 -11,30 -15,31 -12,20 -16,20 -20,21 -23,20 -18,13 -20,10 -18,8 -18,2 -18,3 -17,-3 h -18 l -18,-2 -10,-3 h -10 l -10,-2 h -11 -10 -10 l -10,2 -10,3 -23,7 -26,13 -22,15 -26,18 -23,20 -23,18 -20,18 -20,15 -21,13 -28,8 -33,5 -35,5 -41,2 h -41 -40 -41 v 15 l -3,16 -10,18 -15,15 -15,15 -13,18 -13,20 -15,23 -20,-5 -18,-10 -18,-10 -18,-13 -12,-5 -11,5 -15,8 -25,7 -36,54 -20,50 -5,46 5,43 12,36 21,33 23,25 23,23 20,21 18,17 15,21 10,20 8,18 2,20 -2,23 -5,20 -10,23 -3,26 5,28 20,25 11,8 10,7 15,8 15,8 18,7 20,8 26,8 25,7 38,8 41,5 41,2 h 40 l 39,-2 40,-5 41,-8 41,-7 -3,35 -8,36 -12,40 z"
   id="path63"
   inkscape:connector-curvature="0"
   style="fill:#000000;stroke:none" />
        <path
   d="m 10795,16383 -41,13 -38,-5 -38,-18 -36,-23 -33,-25 -33,-21 -33,-10 -30,5 -8,36 3,28 10,23 15,15 13,15 15,15 10,18 3,23 h 10 v -5 l 5,-15 8,-16 12,-10 16,5 12,8 10,8 11,7 7,8 10,7 11,5 12,6 16,2 17,5 23,3 23,2 h 26 22 l 23,-5 23,-7 3,-8 -5,-10 -10,-13 -11,-13 -15,-15 -13,-13 -15,-12 z"
   id="path65"
   inkscape:connector-curvature="0"
   style="fill:#000000;stroke:none" />
        <path
   d="m 10950,16068 -18,-21 -15,-12 -15,-5 h -13 l -15,7 -13,15 -15,18 -18,21 -10,30 5,20 8,23 2,31 h 10 v -5 l 5,-10 5,-13 11,-8 23,10 15,13 15,13 18,7 13,3 17,3 21,2 23,3 h 22 21 l 23,-5 17,-6 -2,-17 -13,-18 -23,-15 -28,-16 -28,-15 -22,-15 -18,-18 z"
   id="path67"
   inkscape:connector-curvature="0"
   style="fill:#000000;stroke:none" />
        <path
   d="m 10986,13981 2,15 5,15 3,18 2,15 -2,59 -10,45 -18,38 -18,31 -13,20 -12,26 -11,30 -15,31 -12,20 -16,20 -20,21 -23,20 -18,13 -20,10 -18,8 -18,2 -18,3 -17,-3 h -18 l -18,-2 -10,-3 h -10 l -10,-2 h -11 -10 -10 l -10,2 -10,3 -5,-39 -8,-30 -15,-20 -16,-18 -17,-18 -13,-20 -10,-26 -3,-33 5,-30 3,-36 -5,-33 -10,-30 -8,-16 -10,-12 -10,-13 -13,-10 -15,-10 -16,-6 -20,-5 -20,-2 -13,-5 -15,-10 -15,-11 -13,-15 -10,-13 -8,-12 -3,-10 3,-8 13,-5 h 18 17 l 16,-10 10,-10 10,-8 13,-5 15,-3 18,-25 17,-26 16,-25 10,-25 43,-5 38,-3 h 36 l 28,5 25,8 23,10 18,13 15,12 15,16 13,12 13,13 13,10 12,8 13,7 10,3 h 13 l 23,-8 13,-20 v -25 l -8,-28 18,12 20,16 18,15 20,20 18,20 15,21 16,23 z"
   id="path69"
   inkscape:connector-curvature="0"
   style="fill:#000000;stroke:none" />
        <path
   d="m 10866,13378 -5,-15 -8,-15 -10,-18 -12,-18 -13,-15 -13,-10 -10,-8 h -10 l -5,8 -8,17 -10,21 -13,28 -15,25 -18,25 -25,23 -31,16 -25,7 -18,3 -13,7 -7,16 -5,20 v 18 l 2,15 v 15 l 3,13 7,10 10,3 16,-5 2,33 -5,33 -13,38 -17,35 -23,33 -26,31 -28,23 -25,13 -23,-3 -20,-8 -18,-10 -15,-15 -16,-15 -10,-16 -10,-12 -8,-13 -7,-20 2,-18 8,-15 15,-5 10,-3 13,-8 13,-10 15,-10 15,-15 16,-18 12,-18 8,-23 -5,-33 -5,-38 -5,-43 5,-43 10,-43 13,-41 20,-36 30,-30 18,-13 16,-10 12,-8 16,-5 15,-2 h 20 20 l 28,2 h 18 21 17 16 l 15,3 13,2 12,3 8,2 18,11 18,17 12,16 5,15 3,18 2,28 -2,30 z"
   id="path71"
   inkscape:connector-curvature="0"
   style="fill:#000000;stroke:none" />
        <path
   d="m 10434,13355 -26,28 -17,31 -11,30 -2,23 10,15 13,13 13,13 12,10 18,7 18,8 23,3 28,2 -13,-15 -15,-20 -16,-23 -12,-26 -10,-25 -8,-26 -5,-25 z"
   id="path73"
   inkscape:connector-curvature="0"
   style="fill:#000000;stroke:none" />
        <path
   d="m 10419,14560 -21,13 -28,8 -33,5 -35,5 -41,2 h -41 -40 -41 v 15 l -3,16 -10,18 -15,15 -15,15 -13,18 -13,20 -15,23 15,-8 13,-2 15,-3 13,-2 h 15 l 15,2 18,-2 h 21 l 22,-5 28,-8 34,-15 33,-18 33,-23 33,-25 30,-31 z"
   id="path75"
   inkscape:connector-curvature="0"
   style="fill:#bf0093;stroke:none" />
        <path
   d="m 10414,15539 5,-13 7,-12 8,-13 5,-13 18,3 18,2 17,3 21,2 h 18 17 18 l 18,-2 -5,18 -5,15 -10,15 -16,13 3,7 7,3 11,5 h 12 18 l 18,-5 23,-3 23,-7 33,-10 40,-13 49,-13 53,-13 54,-12 50,-13 44,-5 35,-3 21,3 15,5 13,8 12,10 8,10 5,10 5,10 3,13 -33,-3 -41,3 -41,5 -43,5 -43,10 -43,13 -41,13 -36,15 -33,13 -38,10 -41,10 -40,8 -41,5 h -38 l -36,-5 -28,-8 3,-15 10,-15 15,-16 21,-20 -13,-3 -15,-2 h -16 l -17,-3 -18,-2 -15,-5 -16,-8 z"
   id="path77"
   inkscape:connector-curvature="0"
   style="fill:#bf0093;stroke:none" />
        <path
   d="m 10899,14324 15,-31 11,-30 12,-26 13,-20 18,-31 18,-38 10,-45 2,-59 -2,-15 -3,-18 -5,-15 -2,-15 10,-16 13,-15 15,-15 15,-18 18,-18 15,-18 20,-17 18,-18 26,33 20,43 10,41 3,38 v 33 l 7,33 18,36 33,45 21,31 17,35 16,41 10,43 10,46 5,46 v 46 40 h 3 l 7,3 10,2 16,3 15,2 15,3 13,3 h 13 l -3,-34 v -38 l -2,-45 -6,-49 -7,-51 -10,-48 -21,-48 -25,-41 -20,-25 -16,-21 -12,-20 -11,-18 -7,-20 -5,-20 -5,-23 -3,-26 -10,-48 -20,-53 -21,-46 -15,-33 13,-10 15,-13 15,-10 13,-10 15,33 20,50 18,59 10,48 3,26 5,23 5,20 8,18 7,17 13,21 15,20 21,26 28,43 20,53 13,61 10,61 8,61 5,56 2,46 3,36 12,5 21,5 25,7 28,5 28,8 31,8 25,5 20,5 -10,18 -10,17 -10,18 -10,21 -5,-3 -18,-5 -23,-5 -28,-8 -30,-7 -28,-8 -26,-8 -18,-2 -43,33 -38,38 -36,46 -28,45 -23,54 -17,56 -10,56 -3,61 25,7 26,11 30,15 31,15 30,18 31,15 30,15 28,13 -35,-5 -38,-5 -39,-3 -40,3 -41,2 -41,6 -43,5 -43,7 -43,10 -41,11 -43,12 -41,13 -38,15 -38,13 -36,15 -35,15 -38,18 -44,18 -40,18 -46,18 -46,15 -46,15 -48,13 -48,13 -41,7 -41,8 -40,5 -39,2 h -40 l -41,-2 -41,-5 -38,-8 -25,-7 -26,-8 -20,-8 -18,-7 -15,-8 -15,-8 -10,-7 -11,-8 18,-10 18,-10 20,-13 21,-10 20,-13 20,-7 18,-11 18,-5 66,21 69,10 h 68 l 72,-10 68,-16 71,-20 72,-25 68,-31 69,-28 66,-30 64,-28 61,-26 61,-20 53,-15 51,-8 h 48 l -2,-61 7,-58 16,-56 25,-51 28,-48 38,-44 41,-38 43,-35 -15,-5 -13,-6 -15,-5 -13,-5 -15,-5 -18,-5 -15,-5 -18,-3 -33,31 -31,33 -25,38 -23,36 -20,40 -15,39 -13,38 -13,38 -23,-10 -20,-11 -18,-12 -18,-13 -18,-13 -17,-17 -18,-18 -18,-21 18,36 20,31 21,25 22,23 26,23 28,23 30,22 36,28 -38,-2 -46,8 -53,15 -59,18 -63,22 -67,26 -68,28 -71,25 -69,26 -69,23 -66,15 -61,10 -58,3 -51,-6 -43,-17 -36,-28 20,-18 18,-20 18,-23 15,-26 18,-25 18,-31 18,-33 17,-33 3,3 5,10 5,13 8,12 15,-71 31,-68 35,-69 41,-69 38,-63 30,-59 18,-51 -2,-45 10,-3 10,-2 h 10 10 11 l 10,2 h 10 l 10,3 13,20 7,23 v 25 l -5,21 16,10 17,10 18,13 18,7 15,10 18,8 15,5 13,5 18,-15 15,-13 18,-10 15,-8 13,-5 15,-2 h 15 16 l 30,-3 23,-15 10,-23 3,-23 -5,-40 -5,-61 -3,-59 v -35 l 8,-18 10,-21 15,-15 10,-10 13,20 13,23 12,28 8,33 5,33 v 33 l -8,36 -12,33 7,-10 11,-5 12,-5 10,-3 h 13 13 l 13,3 10,2 -3,-71 -10,-66 -13,-56 -15,-38 -15,-23 -13,-25 3,-28 28,-28 -26,12 -28,21 -28,28 -30,30 -33,36 -31,33 -28,33 z"
   id="path79"
   inkscape:connector-curvature="0"
   style="fill:#bf0093;stroke:none" />
        <path
   d="m 11082,15458 21,-13 15,-18 13,-18 10,-20 2,-23 v -23 l -7,-25 -16,-26 h 11 10 l 13,-2 h 10 10 13 l 15,2 15,5 3,28 -3,28 -10,31 -15,25 -21,23 -25,18 -31,8 z"
   id="path81"
   inkscape:connector-curvature="0"
   style="fill:#bf0093;stroke:none" />
        <path
   d="m 11311,15287 38,-2 h 36 36 l 30,2 28,8 20,13 18,20 8,25 v 31 l -10,33 -18,30 -28,28 -36,26 -46,23 -55,15 -67,10 49,-18 43,-28 30,-35 21,-41 2,-41 -12,-38 -33,-35 z"
   id="path83"
   inkscape:connector-curvature="0"
   style="fill:#bf0093;stroke:none" />
        <path
   d="m 10998,14044 -2,-15 -3,-18 -5,-15 -2,-15 -10,-23 -16,-23 -15,-21 -18,-20 -20,-20 -18,-15 -20,-16 -18,-12 8,28 v 25 l -13,20 -23,8 h -13 l -10,-3 -13,-7 -12,-8 -13,-10 -13,-13 -13,-12 -15,-16 -15,-12 -18,-13 -23,-10 -25,-8 -28,-5 h -36 l -38,3 -43,5 -10,25 -16,25 -17,26 -18,25 13,3 h 12 16 l 12,2 h 10 l 11,5 5,3 2,8 v 20 l -2,25 2,23 5,13 h 11 l 12,-5 13,-8 13,-12 12,-8 16,-3 15,3 13,13 12,12 8,13 2,15 3,23 v 26 17 l 8,13 12,13 11,5 10,5 15,5 15,5 15,3 h 16 18 l 17,-3 18,-5 15,-8 16,-7 12,-10 11,-11 10,-12 12,-13 11,-13 15,3 h 15 13 l 15,-3 13,-2 13,-5 12,-3 z"
   id="path85"
   inkscape:connector-curvature="0"
   style="fill:#42e519;stroke:none" />
        <path
   d="m 10950,14217 -28,-5 -30,2 -36,8 -36,15 -38,18 -35,20 -36,23 -33,28 v 26 28 l 3,30 2,26 18,2 h 18 l 17,3 18,-3 18,-2 18,-8 20,-10 18,-13 23,-20 20,-21 16,-20 12,-20 15,-31 11,-30 12,-26 z"
   id="path87"
   inkscape:connector-curvature="0"
   style="fill:#42e519;stroke:none" />
        <path
   d="m 10795,16383 -41,13 -38,-5 -38,-18 -36,-23 -33,-25 -33,-21 -33,-10 -30,5 15,-28 15,-28 18,-28 18,-20 18,-15 17,-3 16,13 12,30 18,41 26,36 25,25 25,20 26,18 18,10 12,8 z"
   id="path89"
   inkscape:connector-curvature="0"
   style="fill:#b7664c;stroke:none" />
        <path
   d="m 10770,15808 5,-17 5,-16 v -12 -8 l -26,3 -25,5 -28,5 -26,7 -25,13 -25,13 -23,15 -26,20 23,-2 23,-5 28,-5 28,-5 25,-3 26,-5 23,-3 z"
   id="path91"
   inkscape:connector-curvature="0"
   style="fill:#b7664c;stroke:none" />
        <path
   d="m 10055,14733 15,-23 13,-20 13,-18 15,-15 15,-15 10,-18 3,-16 v -15 l 2,-23 11,-17 12,-18 18,-15 20,-16 21,-12 20,-13 18,-13 18,-13 18,-15 20,-15 20,-18 21,-15 17,-15 13,-16 10,-12 8,-13 10,-15 13,-13 13,-15 15,-16 18,-15 17,-15 23,-13 5,-30 3,-36 -5,-33 -10,-30 -18,20 -21,20 -20,21 -23,20 -20,20 -18,21 -13,17 -10,16 -7,15 -16,18 -15,18 -20,15 -21,18 -17,15 -18,10 -15,10 -16,10 -20,18 -23,23 -23,25 -25,26 -23,28 -18,25 -10,23 -13,43 -10,44 -3,45 z"
   id="path93"
   inkscape:connector-curvature="0"
   style="fill:#b7664c;stroke:none" />
        <path
   d="m 10871,13584 5,-41 3,-40 -3,-39 -5,-25 -5,-18 -2,-18 v -15 l 2,-10 -5,-15 -8,-15 -10,-18 -12,-18 -13,-15 -13,-10 -10,-8 h -10 l -5,8 -8,17 -10,21 -13,28 -15,25 -18,25 -25,23 -31,16 15,7 16,13 12,15 8,18 8,23 15,30 18,28 18,21 10,5 10,7 10,5 13,3 h 15 l 13,-5 15,-10 z"
   id="path95"
   inkscape:connector-curvature="0"
   style="fill:#b7664c;stroke:none" />
        <path
   d="m 10007,13920 -23,-11 -56,84 -143,211 -53,77 -15,-3 h -15 -16 l -12,3 -13,2 -10,3 -10,5 -11,7 8,8 5,8 3,10 5,10 h -13 l -13,2 -18,3 -17,3 -18,22 -10,18 -3,18 -2,18 12,5 10,2 8,6 5,7 -38,5 -33,10 -28,11 -28,12 -23,13 -23,13 -18,12 -17,13 -26,28 -23,36 -15,43 -10,43 2,43 16,41 30,33 46,23 46,23 53,18 56,7 56,3 51,-5 46,-10 35,-18 23,-21 28,-25 21,-33 12,-41 5,-56 3,-61 2,-43 8,-30 13,-18 7,-26 v -48 l -2,-51 -8,-38 -10,-13 -13,-15 -17,-10 -16,-8 49,-71 193,-295 z"
   id="path97"
   inkscape:connector-curvature="0"
   style="fill:#8c0200;stroke:none" />
        <path
   d="m 9859,14344 8,38 2,51 v 48 l -7,26 -13,18 -8,30 -2,43 -3,61 -2,54 -13,43 -20,30 -31,28 -23,21 -35,18 -46,10 -51,5 -56,-3 -56,-7 -53,-18 -46,-23 -46,-23 -30,-33 -16,-41 -2,-43 10,-43 15,-43 23,-36 26,-28 -26,28 -15,33 -8,36 5,35 16,36 28,28 43,25 61,16 69,5 61,-5 48,-11 41,-20 33,-23 23,-23 17,-25 11,-23 12,-38 8,-43 2,-41 -5,-31 -2,-25 5,-20 10,-18 10,-15 13,-13 10,-13 5,-18 z"
   id="path99"
   inkscape:connector-curvature="0"
   style="fill:#000000;stroke:none" />
        <path
   d="m 9651,14390 20,5 15,10 8,15 2,16 -2,15 -10,13 -16,10 -22,2 -23,-5 -13,-10 -5,-13 -3,-15 3,-15 10,-13 15,-10 z"
   id="path101"
   inkscape:connector-curvature="0"
   style="fill:#000000;stroke:none" />
        <path
   d="m 9732,14281 53,-77 143,-211 25,13 54,-86 38,12 -193,295 h -16 l -12,3 h -13 l -13,2 -15,5 -13,10 -18,13 z"
   id="path103"
   inkscape:connector-curvature="0"
   style="fill:#000000;stroke:none" />
        <path
   d="m 9394,15580 -15,2 -16,3 -15,2 -13,3 -12,2 -11,3 -7,5 -3,8 3,7 7,8 11,5 15,5 13,5 15,5 15,3 13,2 15,3 15,2 21,5 18,6 20,2 15,5 15,3 h 13 13 l 13,-5 17,-3 18,-5 15,-3 16,-2 h 10 l 7,2 11,8 17,8 18,2 15,-5 13,-10 15,-10 18,-8 18,-2 20,-3 21,-5 18,-10 15,-8 10,-12 5,-18 -3,-16 -15,-10 -15,-2 h -23 l -25,-3 h -28 -31 -28 -23 -17 -18 -18 l -20,-2 h -21 -20 -20 -16 l -15,2 -13,3 -15,5 -13,2 -15,3 -13,5 -10,3 -13,2 z"
   id="path105"
   inkscape:connector-curvature="0"
   style="fill:#000000;stroke:none" />
        <path
   d="m 9396,13993 3,-33 13,-30 20,-21 25,-15 13,-2 10,-3 h 13 l 13,3 12,2 11,8 10,10 10,10 20,-5 23,-5 23,-3 h 26 l 22,3 21,5 15,10 13,13 7,15 5,20 v 21 l -5,20 -10,20 -15,23 -20,21 -28,17 -5,-25 -6,-30 -12,-21 -28,-2 -18,5 -18,5 -18,5 -17,8 -18,7 -16,10 -17,13 -16,18 v 25 l 6,23 2,26 8,25 -31,3 -30,2 -31,-2 -28,-6 -25,-10 -21,-12 -15,-21 -7,-23 v -25 l 10,-23 15,-20 20,-18 21,-13 20,-12 15,-11 z"
   id="path107"
   inkscape:connector-curvature="0"
   style="fill:#000000;stroke:none" />
        <path
   d="m 9473,14189 -8,-25 -2,-26 -6,-23 v -25 l 16,-18 17,-13 16,-10 18,-7 17,-8 18,-5 18,-5 18,-5 28,2 12,21 6,30 5,25 v 16 12 16 12 13 l -3,10 v 8 l -2,8 -11,12 -12,16 -18,7 -18,5 -10,-2 -13,-3 -15,-7 -13,-6 -15,-7 -15,-8 -16,-5 z"
   id="path109"
   inkscape:connector-curvature="0"
   style="fill:#000000;stroke:none" />
        <path
   d="m 9770,14814 v 39 48 46 l -2,40 -3,38 3,49 5,48 7,46 5,35 v 36 l -2,33 v 25 l 5,39 15,61 21,73 15,74 -18,5 -15,5 -18,5 h -15 l -18,3 h -15 -18 l -15,-3 -13,-2 -15,-3 h -13 l -15,-2 -10,-84 v -89 -76 l 2,-44 -2,-20 -8,-28 -10,-33 -3,-38 -2,-36 -5,-51 -6,-68 -10,-79 -7,38 -11,56 -10,56 -7,48 -3,36 -5,30 -5,26 -5,20 -5,23 -5,36 -3,43 -2,48 2,53 10,56 11,54 7,46 -13,2 -12,3 -13,2 h -10 l -13,3 h -13 -10 -12 -11 -12 -11 l -12,-3 -13,-2 -13,-3 -10,-2 -7,-3 2,-25 5,-28 3,-31 v -28 l -3,-30 -5,-36 -5,-41 -5,-53 v -61 l 5,-61 10,-53 10,-44 10,-63 6,-74 -3,-69 v -58 l 46,23 53,18 56,7 56,3 51,-5 46,-10 35,-18 z"
   id="path111"
   inkscape:connector-curvature="0"
   style="fill:#000000;stroke:none" />
        <path
   d="m 9590,14342 17,-3 18,-3 13,-2 h 13 l -5,-10 -3,-10 -5,-8 -8,-8 11,-7 10,-5 10,-3 13,-2 12,-3 h 16 15 l 15,3 53,-77 -17,-2 -18,-3 h -20 -21 -18 l -17,-2 -16,-5 -10,-6 -5,23 -5,21 -10,20 -13,18 -13,20 -15,15 -13,16 -12,15 -18,-18 -13,-15 -13,-15 -7,-16 -10,-15 -5,-13 -8,-15 -8,-13 -12,8 -13,8 -15,10 -18,7 -13,6 -13,7 -12,10 -13,13 -15,13 -10,15 -11,13 -7,12 -10,26 -11,30 -5,28 v 28 13 l 3,15 2,16 5,15 8,13 15,7 21,3 28,-3 17,-13 18,-12 23,-13 23,-13 28,-12 28,-11 33,-10 38,-5 -5,-7 -8,-6 -10,-2 -12,-5 2,-18 3,-18 10,-18 z"
   id="path113"
   inkscape:connector-curvature="0"
   style="fill:#000000;stroke:none" />
        <path
   d="m 9938,14268 -15,5 h -21 l -20,-5 -18,-8 v 21 l -2,22 v 21 l -3,20 8,38 2,51 v 48 l -7,26 28,-18 15,-36 10,-43 3,-35 5,-28 5,-31 5,-25 z"
   id="path115"
   inkscape:connector-curvature="0"
   style="fill:#000000;stroke:none" />
        <path
   d="m 9839,15544 -18,5 -15,5 -18,5 h -15 l -18,3 h -15 -18 l -15,-3 15,5 13,5 12,6 13,5 10,5 8,2 5,5 5,5 8,11 7,7 13,5 18,3 h 12 16 18 l 17,-3 16,-2 15,-3 10,-5 3,-7 -6,-13 -10,-8 h -17 l -16,-2 -15,-5 -13,-11 -12,-10 z"
   id="path117"
   inkscape:connector-curvature="0"
   style="fill:#000000;stroke:none" />
        <path
   d="m 9559,15575 -13,2 -12,3 -13,2 h -10 l -13,3 h -13 -10 -12 -11 -12 -11 l -12,-3 20,21 15,20 16,23 12,18 8,7 8,5 12,5 13,3 15,2 13,3 h 15 l 13,-3 20,-2 10,-8 v -12 l -7,-16 -13,-20 -10,-18 -8,-20 z"
   id="path119"
   inkscape:connector-curvature="0"
   style="fill:#000000;stroke:none" />
        <path
   d="m 9531,14105 h 10 l 16,-2 h 10 l 5,-3 5,-10 13,-10 17,-8 23,-2 11,20 5,23 v 20 l -3,20 -5,8 -10,5 -15,3 -16,2 h -15 l -13,-2 -10,-5 -7,-5 -8,-16 -8,-15 -5,-13 z"
   id="path121"
   inkscape:connector-curvature="0"
   style="fill:#b7664c;stroke:none" />
        <path
   d="m 9470,14108 5,-5 8,-3 h 7 l 6,5 v 8 10 l 2,10 13,8 5,2 2,5 -2,5 -5,3 -15,-3 -8,-5 -8,-7 -5,-10 -2,-8 -3,-8 v -2 z"
   id="path123"
   inkscape:connector-curvature="0"
   style="fill:#b7664c;stroke:none" />
        <path
   d="m 9938,14268 3,-13 5,-18 2,-20 3,-20 2,-18 v -13 l 3,-13 2,-7 3,-15 v -16 l -5,-12 -3,-6 -7,-2 -13,-3 h -18 -15 l -13,3 -5,2 -2,6 v 5 l 2,5 8,2 10,5 5,8 -15,15 -13,16 -5,15 -3,18 v 12 l -2,16 v 17 l -3,23 18,8 20,5 h 21 z"
   id="path125"
   inkscape:connector-curvature="0"
   style="fill:#b7664c;stroke:none" />
        <path
   d="m 9592,14438 -5,-7 -8,-6 -10,-2 -12,-5 2,-18 3,-18 10,-18 18,-22 17,-3 18,-3 13,-2 h 13 l 10,8 v 5 l -3,7 -7,10 -10,11 -11,7 -10,5 -7,10 -8,13 -5,15 -5,8 z"
   id="path127"
   inkscape:connector-curvature="0"
   style="fill:#b7664c;stroke:none" />
        <path
   d="m 9646,14153 v 13 l -3,10 v 8 l -2,8 -11,12 -12,16 -18,7 -18,5 -10,-2 -13,-3 -15,-7 -13,-6 -15,-7 -15,-8 -16,-5 -12,-5 5,8 2,5 v 7 5 l 8,13 8,15 5,13 10,15 7,16 13,15 13,15 18,18 15,-15 15,-21 15,-20 16,-23 12,-23 8,-25 5,-28 z"
   id="path129"
   inkscape:connector-curvature="0"
   style="fill:#fff2db;stroke:none" />
        <path
   d="m 9557,14418 2,-18 3,-18 10,-18 18,-22 -18,2 -15,3 -18,5 -15,2 -13,3 -13,2 -8,3 -7,2 -8,8 -5,13 -5,15 -2,13 h 12 15 13 10 13 l 10,2 h 10 z"
   id="path131"
   inkscape:connector-curvature="0"
   style="fill:#fff2db;stroke:none" />
        <path
   d="m 9869,14192 v 12 l -2,16 v 17 l -3,23 18,8 20,5 h 21 l 15,-5 3,-13 5,-18 2,-20 3,-20 -10,5 -11,2 -12,3 -10,-3 h -11 l -10,-2 -10,-5 z"
   id="path133"
   inkscape:connector-curvature="0"
   style="fill:#fff2db;stroke:none" />
        <path
   d="m 9396,13993 3,-33 13,-30 20,-21 25,-15 -12,20 -8,18 v 21 l 5,20 z"
   id="path135"
   inkscape:connector-curvature="0"
   style="fill:#ffd182;stroke:none" />
        <path
   d="m 9452,14868 -5,68 -5,72 -7,61 -8,40 -10,41 -13,56 -8,61 3,58 8,72 5,66 5,63 v 56 l 12,3 h 11 12 11 l -8,-74 -8,-66 -2,-61 -5,-54 -3,-50 5,-56 8,-54 13,-43 12,-53 8,-77 2,-71 v -45 l -5,-18 -12,-5 -11,2 z"
   id="path137"
   inkscape:connector-curvature="0"
   style="fill:#e50000;stroke:none" />
       </g>
      </g>
     </g>
    </g>
   </g>
  </g>
 </g>
</svg>