<?xml version="1.0" encoding="UTF-8" standalone="no"?>
<svg
   xmlns:ooo="http://xml.openoffice.org/svg/export"
   xmlns:dc="http://purl.org/dc/elements/1.1/"
   xmlns:cc="http://creativecommons.org/ns#"
   xmlns:rdf="http://www.w3.org/1999/02/22-rdf-syntax-ns#"
   xmlns:svg="http://www.w3.org/2000/svg"
   xmlns="http://www.w3.org/2000/svg"
   xmlns:sodipodi="http://sodipodi.sourceforge.net/DTD/sodipodi-0.dtd"
   xmlns:inkscape="http://www.inkscape.org/namespaces/inkscape"
   version="1.2"
   width="21.82mm"
   height="23.219999mm"
   viewBox="0 0 2182 2321.9999"
   preserveAspectRatio="xMidYMid"
   xml:space="preserve"
   id="svg519"
   sodipodi:docname="dancers5.svg"
   style="fill-rule:evenodd;stroke-width:28.22200012;stroke-linejoin:round"
   inkscape:version="0.92.5 (2060ec1f9f, 2020-04-08)"><metadata
   id="metadata523"><rdf:RDF><cc:Work
       rdf:about=""><dc:format>image/svg+xml</dc:format><dc:type
         rdf:resource="http://purl.org/dc/dcmitype/StillImage" /></cc:Work></rdf:RDF></metadata><sodipodi:namedview
   pagecolor="#ffffff"
   bordercolor="#666666"
   borderopacity="1"
   objecttolerance="10"
   gridtolerance="10"
   guidetolerance="10"
   inkscape:pageopacity="0"
   inkscape:pageshadow="2"
   inkscape:window-width="664"
   inkscape:window-height="487"
   id="namedview521"
   showgrid="false"
   inkscape:zoom="0.2102413"
   inkscape:cx="41.234647"
   inkscape:cy="43.880313"
   inkscape:window-x="0"
   inkscape:window-y="0"
   inkscape:window-maximized="0"
   inkscape:current-layer="svg519" />
 <defs
   class="ClipPathGroup"
   id="defs8">
  <clipPath
   id="presentation_clip_path"
   clipPathUnits="userSpaceOnUse">
   <rect
   x="0"
   y="0"
   width="21000"
   height="29700"
   id="rect2" />
  </clipPath>
  <clipPath
   id="presentation_clip_path_shrink"
   clipPathUnits="userSpaceOnUse">
   <rect
   x="21"
   y="29"
   width="20958"
   height="29641"
   id="rect5" />
  </clipPath>
 </defs>
 <defs
   class="TextShapeIndex"
   id="defs12">
  <g
   ooo:slide="id1"
   ooo:id-list="id3"
   id="g10" />
 </defs>
 <defs
   class="EmbeddedBulletChars"
   id="defs44">
  <g
   id="bullet-char-template-57356"
   transform="matrix(4.8828125e-4,0,0,-4.8828125e-4,0,0)">
   <path
   d="M 580,1141 1163,571 580,0 -4,571 Z"
   id="path14"
   inkscape:connector-curvature="0" />
  </g>
  <g
   id="bullet-char-template-57354"
   transform="matrix(4.8828125e-4,0,0,-4.8828125e-4,0,0)">
   <path
   d="M 8,1128 H 1137 V 0 H 8 Z"
   id="path17"
   inkscape:connector-curvature="0" />
  </g>
  <g
   id="bullet-char-template-10146"
   transform="matrix(4.8828125e-4,0,0,-4.8828125e-4,0,0)">
   <path
   d="M 174,0 602,739 174,1481 1456,739 Z M 1358,739 309,1346 659,739 Z"
   id="path20"
   inkscape:connector-curvature="0" />
  </g>
  <g
   id="bullet-char-template-10132"
   transform="matrix(4.8828125e-4,0,0,-4.8828125e-4,0,0)">
   <path
   d="M 2015,739 1276,0 H 717 l 543,543 H 174 v 393 h 1086 l -543,545 h 557 z"
   id="path23"
   inkscape:connector-curvature="0" />
  </g>
  <g
   id="bullet-char-template-10007"
   transform="matrix(4.8828125e-4,0,0,-4.8828125e-4,0,0)">
   <path
   d="m 0,-2 c -7,16 -16,29 -25,39 l 381,530 c -94,256 -141,385 -141,387 0,25 13,38 40,38 9,0 21,-2 34,-5 21,4 42,12 65,25 l 27,-13 111,-251 280,301 64,-25 24,25 c 21,-10 41,-24 62,-43 C 886,937 835,863 770,784 769,783 710,716 594,584 L 774,223 c 0,-27 -21,-55 -63,-84 l 16,-20 C 717,90 699,76 672,76 641,76 570,178 457,381 L 164,-76 c -22,-34 -53,-51 -92,-51 -42,0 -63,17 -64,51 -7,9 -10,24 -10,44 0,9 1,19 2,30 z"
   id="path26"
   inkscape:connector-curvature="0" />
  </g>
  <g
   id="bullet-char-template-10004"
   transform="matrix(4.8828125e-4,0,0,-4.8828125e-4,0,0)">
   <path
   d="M 285,-33 C 182,-33 111,30 74,156 52,228 41,333 41,471 c 0,78 14,145 41,201 34,71 87,106 158,106 53,0 88,-31 106,-94 l 23,-176 c 8,-64 28,-97 59,-98 l 735,706 c 11,11 33,17 66,17 42,0 63,-15 63,-46 V 965 c 0,-36 -10,-64 -30,-84 L 442,47 C 390,-6 338,-33 285,-33 Z"
   id="path29"
   inkscape:connector-curvature="0" />
  </g>
  <g
   id="bullet-char-template-9679"
   transform="matrix(4.8828125e-4,0,0,-4.8828125e-4,0,0)">
   <path
   d="M 813,0 C 632,0 489,54 383,161 276,268 223,411 223,592 c 0,181 53,324 160,431 106,107 249,161 430,161 179,0 323,-54 432,-161 108,-107 162,-251 162,-431 0,-180 -54,-324 -162,-431 C 1136,54 992,0 813,0 Z"
   id="path32"
   inkscape:connector-curvature="0" />
  </g>
  <g
   id="bullet-char-template-8226"
   transform="matrix(4.8828125e-4,0,0,-4.8828125e-4,0,0)">
   <path
   d="m 346,457 c -73,0 -137,26 -191,78 -54,51 -81,114 -81,188 0,73 27,136 81,188 54,52 118,78 191,78 73,0 134,-26 185,-79 51,-51 77,-114 77,-187 0,-75 -25,-137 -76,-188 -50,-52 -112,-78 -186,-78 z"
   id="path35"
   inkscape:connector-curvature="0" />
  </g>
  <g
   id="bullet-char-template-8211"
   transform="matrix(4.8828125e-4,0,0,-4.8828125e-4,0,0)">
   <path
   d="M -4,459 H 1135 V 606 H -4 Z"
   id="path38"
   inkscape:connector-curvature="0" />
  </g>
  <g
   id="bullet-char-template-61548"
   transform="matrix(4.8828125e-4,0,0,-4.8828125e-4,0,0)">
   <path
   d="m 173,740 c 0,163 58,303 173,419 116,115 255,173 419,173 163,0 302,-58 418,-173 116,-116 174,-256 174,-419 0,-163 -58,-303 -174,-418 C 1067,206 928,148 765,148 601,148 462,206 346,322 231,437 173,577 173,740 Z"
   id="path41"
   inkscape:connector-curvature="0" />
  </g>
 </defs>
 <g
   id="g49"
   transform="translate(-9409,-13689)">
  <g
   id="id2"
   class="Master_Slide">
   <g
   id="bg-id2"
   class="Background" />
   <g
   id="bo-id2"
   class="BackgroundObjects" />
  </g>
 </g>
 <g
   class="SlideGroup"
   id="g517"
   transform="translate(-9409,-13689)">
  <g
   id="g515">
   <g
   id="container-id1">
    <g
   id="id1"
   class="Slide"
   clip-path="url(#presentation_clip_path)">
     <g
   class="Page"
   id="g511">
      <g
   class="Graphic"
   id="g509">
       <g
   id="id3">
        <rect
   class="BoundingBox"
   x="9409"
   y="13689"
   width="2182"
   height="2322"
   id="rect51"
   style="fill:none;stroke:none" />
        <defs
   id="defs56">
         <clipPath
   id="clip_path_1"
   clipPathUnits="userSpaceOnUse">
          <path
   d="m 9409,13689 h 2181 v 2321 H 9409 Z"
   id="path53"
   inkscape:connector-curvature="0" />
         </clipPath>
        </defs>
        <g
   clip-path="url(#clip_path_1)"
   id="g506">
         <path
   d="m 10831,13910 -102,-58 -74,-46 -41,-33 -12,-23 18,-5 48,8 76,22 107,39 20,7 36,16 48,17 51,21 51,23 43,17 36,16 18,7 78,41 51,33 23,25 v 18 l -20,8 -38,-3 -51,-12 -61,-28 -10,12 -13,16 -18,15 -18,18 -18,17 -20,13 -20,10 -18,3 31,-20 15,-21 7,-15 -2,-15 -8,-8 -10,-5 -13,3 -7,7 h -3 l -5,3 -8,-3 -7,-2 v -28 l -8,-23 -7,-26 7,-23 -15,-10 -18,-7 -20,-5 -23,-8 -23,-3 -23,-2 -18,-3 z"
   id="path58"
   inkscape:connector-curvature="0"
   style="fill:#000000;stroke:none" />
         <path
   d="m 10853,13803 v 0 l -106,-38 -77,-23 -50,-10 -28,18 15,31 43,35 74,46 102,58 10,-20 -102,-58 -74,-46 -38,-31 -10,-15 8,8 45,5 77,23 106,38 v 0 z"
   id="path60"
   inkscape:connector-curvature="0"
   style="fill:#000000;stroke:none" />
         <path
   d="m 11159,13928 v 0 l -21,-8 -35,-15 -44,-18 -50,-23 -51,-20 -49,-18 -35,-15 -21,-8 -5,21 21,7 35,16 49,17 51,21 50,23 44,18 35,15 15,7 v 0 z"
   id="path62"
   inkscape:connector-curvature="0"
   style="fill:#000000;stroke:none" />
         <path
   d="m 11143,14027 -12,3 63,28 54,12 38,3 28,-10 2,-31 -25,-28 -53,-35 -79,-41 -11,20 79,41 49,31 20,23 3,5 -13,5 -38,-3 -49,-13 -58,-28 -13,3 13,-3 -8,-5 -5,8 z"
   id="path64"
   inkscape:connector-curvature="0"
   style="fill:#000000;stroke:none" />
         <path
   d="m 10996,14114 5,23 20,-5 23,-11 23,-15 18,-18 18,-18 18,-15 12,-15 10,-13 -15,-15 -10,13 -13,15 -18,15 -17,18 -18,18 -18,10 -18,10 h -15 l 5,23 -10,-20 -41,23 h 46 z"
   id="path66"
   inkscape:connector-curvature="0"
   style="fill:#000000;stroke:none" />
         <path
   d="m 11016,14060 8,-5 2,-2 8,-3 5,5 3,3 2,10 -7,10 -13,18 -28,18 10,20 33,-23 18,-23 8,-20 -3,-20 -13,-13 -15,-5 -18,2 -12,13 7,-5 5,20 h 5 l 3,-5 z"
   id="path68"
   inkscape:connector-curvature="0"
   style="fill:#000000;stroke:none" />
         <path
   d="m 10981,14045 5,10 10,5 10,5 8,-5 h 2 l -5,-20 h -2 -3 -5 -5 l 5,10 -20,-5 -3,5 8,5 z"
   id="path70"
   inkscape:connector-curvature="0"
   style="fill:#000000;stroke:none" />
         <path
   d="m 10976,13956 -3,-13 -10,28 10,28 8,21 v 25 l 20,5 v -30 l -8,-26 -5,-23 5,-18 -2,-12 2,12 5,-5 -7,-7 z"
   id="path72"
   inkscape:connector-curvature="0"
   style="fill:#000000;stroke:none" />
         <path
   d="m 10826,13920 h 5 12 l 18,3 23,3 20,2 23,8 21,5 15,7 13,8 15,-15 -18,-13 -20,-8 -21,-5 -23,-7 -25,-3 -23,-2 -18,-3 h -12 5 l -10,20 2,3 3,-3 z"
   id="path74"
   inkscape:connector-curvature="0"
   style="fill:#000000;stroke:none" />
         <path
   d="m 10856,13798 5,-5 8,-5 15,-2 20,2 26,5 28,8 30,10 31,13 30,15 28,15 23,13 18,13 15,12 13,11 8,10 2,10 -2,8 v 0 l 5,-8 5,-13 5,-10 5,-10 2,-10 -2,-10 -8,-13 -10,-13 -15,-15 -20,-15 -23,-16 -26,-15 -30,-13 -31,-12 -30,-8 -31,-5 -25,-3 h -21 l -15,3 -8,8 -5,10 -7,12 -8,11 z"
   id="path76"
   inkscape:connector-curvature="0"
   style="fill:#000000;stroke:none" />
         <path
   d="m 10851,13788 2,-2 -5,5 16,15 5,-5 2,-3 -2,3 2,-3 v 0 z"
   id="path78"
   inkscape:connector-curvature="0"
   style="fill:#000000;stroke:none" />
         <path
   d="m 11054,13829 v 0 l -30,-15 -33,-13 -31,-10 -28,-8 -28,-5 -20,-5 -18,5 -15,10 20,10 v 0 h 13 20 l 23,5 28,8 31,10 28,13 30,15 v 0 z"
   id="path80"
   inkscape:connector-curvature="0"
   style="fill:#000000;stroke:none" />
         <path
   d="m 11143,13926 21,10 5,-13 -5,-15 -10,-13 -13,-10 -15,-13 -21,-15 -23,-13 -28,-15 -10,20 28,15 23,13 15,10 16,13 12,10 5,8 v 5 3 l 21,10 z"
   id="path82"
   inkscape:connector-curvature="0"
   style="fill:#000000;stroke:none" />
         <path
   d="m 11143,13926 11,5 v 0 0 0 l 10,5 z"
   id="path84"
   inkscape:connector-curvature="0"
   style="fill:#000000;stroke:none" />
         <path
   d="m 11164,13885 v 2 l -5,8 -5,10 -6,13 -5,8 21,10 5,-8 5,-13 5,-10 5,-13 v 3 z"
   id="path86"
   inkscape:connector-curvature="0"
   style="fill:#000000;stroke:none" />
         <path
   d="m 11067,13793 v 0 l 26,16 22,15 18,13 15,15 8,10 8,13 v 5 5 l 20,10 5,-15 -5,-16 -8,-12 -12,-15 -16,-16 -22,-18 -23,-15 -26,-15 v 0 z"
   id="path88"
   inkscape:connector-curvature="0"
   style="fill:#000000;stroke:none" />
         <path
   d="m 10892,13758 v -3 h 2 l 10,-2 21,2 h 25 l 28,5 31,8 30,13 28,12 10,-20 -33,-13 -30,-13 -31,-7 -33,-5 -25,-5 -21,2 -20,3 -13,15 v -3 z"
   id="path90"
   inkscape:connector-curvature="0"
   style="fill:#000000;stroke:none" />
         <path
   d="m 10848,13791 18,12 5,-12 8,-10 8,-13 5,-10 -21,-11 -5,11 -7,12 -8,11 -5,12 18,13 -18,-13 -38,74 56,-61 z"
   id="path92"
   inkscape:connector-curvature="0"
   style="fill:#000000;stroke:none" />
         <path
   d="m 10848,13791 8,7 v 0 0 0 l 8,8 -18,-13 -38,74 56,-61 z"
   id="path94"
   inkscape:connector-curvature="0"
   style="fill:#000000;stroke:none" />
         <path
   d="m 9643,15818 -10,15 -10,15 -11,13 -12,13 -16,10 -17,7 -21,3 h -20 l -18,-20 -13,-28 3,-33 33,-44 -5,28 8,21 12,12 18,8 h 23 l 23,-2 18,-8 z"
   id="path96"
   inkscape:connector-curvature="0"
   style="fill:#e50019;stroke:none" />
         <path
   d="m 9518,15902 8,2 h 20 l 23,-2 21,-8 17,-13 13,-12 13,-16 10,-15 10,-15 -20,-10 -10,15 -11,15 -7,10 -13,13 -13,8 -15,7 -18,3 h -20 l 8,2 -16,16 3,2 h 5 z"
   id="path98"
   inkscape:connector-curvature="0"
   style="fill:#000000;stroke:none" />
         <path
   d="m 9541,15772 -18,-10 -35,46 -3,38 13,33 20,23 16,-16 -16,-17 -12,-23 2,-28 31,-41 -18,-10 20,5 16,-41 -34,31 z"
   id="path100"
   inkscape:connector-curvature="0"
   style="fill:#000000;stroke:none" />
         <path
   d="m 9653,15823 -18,-13 -12,8 -16,7 h -20 l -23,3 -13,-8 -7,-7 -5,-16 2,-25 -20,-5 -8,30 10,26 18,18 23,7 23,3 25,-5 21,-8 18,-13 -18,-12 20,10 33,-61 -51,48 z"
   id="path102"
   inkscape:connector-curvature="0"
   style="fill:#000000;stroke:none" />
         <path
   d="m 10388,15942 -28,8 -25,-3 -26,-5 -23,-10 -20,-10 -15,-13 -13,-10 -5,-8 v 3 l -3,28 8,33 15,31 18,25 h 31 v -28 l 7,5 16,5 20,3 23,5 20,2 h 23 l 18,3 h 10 l 15,-5 8,-10 v -11 l -13,-5 -13,-2 -12,-5 -16,-10 z"
   id="path104"
   inkscape:connector-curvature="0"
   style="fill:#e50019;stroke:none" />
         <path
   d="m 10246,15891 -23,6 7,10 13,10 18,15 20,10 26,11 28,5 25,2 31,-7 -5,-21 -26,8 -25,-3 -23,-5 -21,-10 -20,-10 -13,-10 -12,-11 -3,-5 -23,5 23,-5 -23,-48 v 53 z"
   id="path106"
   inkscape:connector-curvature="0"
   style="fill:#000000;stroke:none" />
         <path
   d="m 10243,15897 3,-3 v -3 h -26 v 3 l 3,-3 20,6 3,-3 v 0 z"
   id="path108"
   inkscape:connector-curvature="0"
   style="fill:#000000;stroke:none" />
         <path
   d="m 10271,15998 8,8 -16,-26 -15,-27 -7,-31 2,-25 -20,-6 -3,31 8,36 15,33 20,25 8,8 -8,-8 3,8 h 5 z"
   id="path110"
   inkscape:connector-curvature="0"
   style="fill:#000000;stroke:none" />
         <path
   d="m 10289,16011 13,-13 h -31 v 26 h 31 l 12,-13 -12,13 h 12 v -13 z"
   id="path112"
   inkscape:connector-curvature="0"
   style="fill:#000000;stroke:none" />
         <path
   d="m 10312,15978 -23,5 v 28 h 25 v -28 l -23,5 21,-10 -23,-36 v 41 z"
   id="path114"
   inkscape:connector-curvature="0"
   style="fill:#000000;stroke:none" />
         <path
   d="m 10439,15993 v 0 l -10,3 -18,-3 -23,-2 h -20 l -23,-5 -18,-3 -13,-5 h -2 l -21,10 13,10 18,5 23,3 23,5 20,5 23,-2 18,2 10,3 v 0 z"
   id="path116"
   inkscape:connector-curvature="0"
   style="fill:#000000;stroke:none" />
         <path
   d="m 10449,15988 v 0 h 5 -2 l -3,3 -10,2 v 26 l 20,-8 13,-18 -3,-20 -20,-10 v 0 z"
   id="path118"
   inkscape:connector-curvature="0"
   style="fill:#000000;stroke:none" />
         <path
   d="m 10391,15953 -11,-3 23,18 16,10 15,5 15,5 v -25 h -10 l -10,-5 -15,-11 -18,-12 -10,-3 10,3 -8,-5 -2,2 z"
   id="path120"
   inkscape:connector-curvature="0"
   style="fill:#000000;stroke:none" />
         <path
   d="m 10174,14129 -10,-8 -12,-10 -16,-10 -12,-10 -16,-13 -10,-15 -10,-15 -3,-16 -33,3 -33,-15 -30,-23 -23,-31 -13,-38 3,-38 20,-36 46,-30 -5,13 -5,17 -5,21 -3,23 v 22 l 8,18 15,15 25,8 3,-25 2,-46 13,-48 28,-36 23,-10 31,-10 33,-8 35,-3 33,6 31,12 23,23 12,33 -15,3 -20,7 -23,8 -20,13 -16,15 -7,18 5,23 18,28 v 30 l -5,41 -13,41 -10,22 -11,6 -12,7 -10,8 z"
   id="path122"
   inkscape:connector-curvature="0"
   style="fill:#000000;stroke:none" />
         <path
   d="m 10088,14043 -13,-11 3,18 10,18 13,18 15,12 15,13 16,10 10,8 10,8 15,-16 -10,-7 -15,-13 -16,-10 -10,-8 -15,-13 -8,-12 -10,-13 -2,-13 -13,-10 15,10 -2,-15 -13,5 z"
   id="path124"
   inkscape:connector-curvature="0"
   style="fill:#000000;stroke:none" />
         <path
   d="m 10032,13826 -15,-12 -49,33 -22,40 -3,41 13,43 25,33 33,26 38,15 36,-2 -5,-21 -31,3 -28,-16 -28,-20 -20,-28 -13,-33 3,-36 18,-30 43,-28 -15,-13 20,5 13,-25 -28,13 z"
   id="path126"
   inkscape:connector-curvature="0"
   style="fill:#000000;stroke:none" />
         <path
   d="m 10042,13961 10,-10 -20,-8 -10,-10 -8,-13 3,-22 v -23 l 5,-18 5,-18 5,-13 -20,-5 -5,13 -5,18 -6,23 -5,23 3,22 8,23 20,21 30,7 11,-10 -11,10 11,3 v -13 z"
   id="path128"
   inkscape:connector-curvature="0"
   style="fill:#000000;stroke:none" />
         <path
   d="m 10093,13796 v 0 l -33,41 -13,53 -2,46 -3,25 h 21 l 2,-25 3,-46 12,-43 23,-31 v 0 z"
   id="path130"
   inkscape:connector-curvature="0"
   style="fill:#000000;stroke:none" />
         <path
   d="m 10319,13859 11,-10 -13,-38 -28,-28 -33,-13 -36,-7 -35,5 -36,7 -30,11 -26,10 10,20 21,-10 30,-10 31,-8 h 35 l 31,3 28,12 18,18 12,28 10,-10 v 20 h 13 l -2,-10 z"
   id="path132"
   inkscape:connector-curvature="0"
   style="fill:#000000;stroke:none" />
         <path
   d="m 10251,13961 -3,-5 -15,-25 -5,-18 8,-13 12,-13 18,-10 20,-7 21,-8 12,-3 v -20 l -17,3 -21,7 -25,8 -23,15 -18,18 -7,23 5,28 20,30 -3,-5 21,-5 v -2 l -3,-3 z"
   id="path134"
   inkscape:connector-curvature="0"
   style="fill:#000000;stroke:none" />
         <path
   d="m 10218,14109 2,-3 13,-28 13,-41 5,-43 v -33 l -21,5 v 28 l -5,38 -12,41 -8,18 3,-3 10,21 v 0 l 2,-3 z"
   id="path136"
   inkscape:connector-curvature="0"
   style="fill:#000000;stroke:none" />
         <path
   d="m 10167,14137 20,-8 v -3 l 8,-5 13,-7 10,-5 -10,-21 -11,5 -12,8 -13,10 -10,18 20,-8 -15,16 18,17 2,-25 z"
   id="path138"
   inkscape:connector-curvature="0"
   style="fill:#000000;stroke:none" />
         <path
   d="m 10614,14414 -15,61 -20,112 -18,129 -5,120 30,18 v 43 l 8,61 10,74 18,79 15,81 18,74 15,58 11,44 15,101 10,155 5,153 -2,97 h 5 l 7,2 16,3 12,2 -5,8 -10,10 -18,8 -20,10 -21,5 -20,5 -18,3 h -12 -13 l -13,7 -13,10 -5,11 -2,12 2,10 16,8 23,5 h 48 l 43,-2 36,-3 33,-8 25,-5 21,-7 10,-3 5,-2 5,17 h 2 5 l 11,-2 h 12 13 l 13,-3 h 10 10 v -15 l -5,-23 -5,-25 -5,-18 h 2 l 8,3 10,2 h 13 l -3,-25 -5,-51 -10,-61 -13,-71 -12,-69 -13,-64 -10,-45 -10,-26 -16,-46 -10,-73 -7,-79 -3,-64 3,5 10,15 15,21 18,25 18,26 17,25 18,23 13,15 18,28 30,54 38,73 41,79 43,82 36,73 28,54 13,28 12,18 13,7 15,5 h 18 l -2,16 5,17 15,11 28,2 23,-2 h 18 l 12,2 8,5 8,5 5,8 7,5 10,3 13,2 18,5 18,5 18,3 20,2 23,-2 20,-8 23,-13 13,-17 -3,-16 -12,-17 -21,-18 -25,-16 -26,-10 -23,-10 -15,-5 3,-2 2,-8 8,-8 5,-10 -10,-13 -23,-35 -38,-51 -43,-61 -46,-64 -43,-63 -39,-51 -28,-38 -28,-41 -38,-56 -40,-69 -44,-73 -38,-72 -28,-63 -18,-49 3,-25 8,-15 v -23 l -5,-26 -11,-25 -12,-25 -13,-23 -15,-18 -11,-13 23,-18 -2,-7 -8,-26 3,-48 15,-69 15,-35 21,-28 25,-21 25,-17 28,-21 31,-23 28,-30 28,-43 5,2 10,10 15,13 18,18 21,18 20,17 18,16 12,12 26,6 -3,5 -10,15 -15,23 -18,25 -20,31 -21,28 -17,25 -16,20 102,97 28,18 5,-13 13,-33 20,-46 21,-53 22,-56 23,-51 16,-38 10,-20 10,-21 5,-15 -5,-15 -20,-13 -21,-10 -23,-15 -30,-21 -31,-23 -28,-25 -28,-23 -17,-20 -13,-13 -8,15 -10,8 -18,-3 -25,-10 -23,-18 -10,-15 -3,-13 3,-12 -5,-3 -13,-10 -15,-8 -16,-7 v -5 l -2,-13 -3,-13 v -13 l -104,3 -5,74 h -5 -10 -13 l -15,-3 18,8 15,13 10,15 5,13 -41,38 -40,48 -41,56 -38,61 -36,61 -28,53 -20,46 -10,33 -49,-10 v -10 l 3,-28 5,-28 3,-23 -21,-10 -7,-15 5,-18 10,-18 15,-18 15,-15 13,-13 8,-7 10,-8 15,-13 v -23 l -28,-43 -15,-28 -3,-28 11,-28 15,-25 20,-26 21,-17 17,-16 16,-10 -23,-7 -28,-3 h -31 l -28,3 -28,5 -25,5 -21,5 -12,5 -16,-18 -22,-10 -28,-3 -28,3 -28,5 -26,8 -18,7 -7,8 13,13 15,17 15,18 15,23 16,23 10,18 10,18 8,12 -11,5 -20,5 -25,8 -28,8 -31,7 -25,5 -23,3 -15,3 -8,-18 -15,-21 -18,-22 -18,-21 -20,-20 -21,-21 -17,-15 -13,-13 -46,-20 -41,-5 -35,8 -28,17 -23,23 -18,26 -10,23 -3,18 23,12 18,23 8,36 -8,38 10,15 18,13 23,7 25,3 h 26 l 25,-5 18,-10 15,-13 13,23 18,30 20,36 18,36 15,2 10,5 5,16 v 28 l -2,30 -5,15 -10,10 h -21 l -15,3 -15,5 -18,13 -20,15 -21,23 -25,28 -26,33 -28,41 -15,18 -23,17 -25,18 -31,18 -33,18 -35,15 -41,18 -41,15 18,-3 26,-2 35,-3 h 38 l 41,3 38,10 36,15 30,26 28,25 31,21 30,10 28,7 h 28 l 26,-5 20,-5 13,-10 12,-10 18,-10 23,-8 23,-5 25,3 23,7 21,18 15,25 -15,-86 v -64 l 10,-48 13,-30 15,-49 2,-58 -2,-54 -5,-35 -3,-33 10,-44 23,-45 31,-39 23,-30 5,-33 -8,-28 -8,-23 21,-18 13,-15 5,-15 -3,-16 10,13 5,10 v 13 z"
   id="path140"
   inkscape:connector-curvature="0"
   style="fill:#000000;stroke:none" />
         <path
   d="m 10561,14826 5,10 5,-120 18,-129 20,-112 16,-59 -21,-5 -15,64 -20,112 -18,129 -5,120 5,10 -5,-10 v 5 l 5,5 z"
   id="path142"
   inkscape:connector-curvature="0"
   style="fill:#000000;stroke:none" />
         <path
   d="m 10597,14854 -5,-10 -31,-18 -10,20 30,18 -5,-10 h 21 l 2,-5 -7,-5 z"
   id="path144"
   inkscape:connector-curvature="0"
   style="fill:#000000;stroke:none" />
         <path
   d="m 10691,15365 v 0 l -10,-43 -16,-59 -17,-73 -16,-79 -18,-79 -10,-74 -7,-61 v -43 h -21 v 43 l 8,61 10,74 18,79 15,84 18,73 15,59 10,43 v 0 z"
   id="path146"
   inkscape:connector-curvature="0"
   style="fill:#000000;stroke:none" />
         <path
   d="m 10709,15863 10,11 5,-97 -8,-153 -10,-155 -15,-104 -21,5 16,99 10,155 2,153 v 97 l 11,10 -11,-10 -2,10 h 13 z"
   id="path148"
   inkscape:connector-curvature="0"
   style="fill:#000000;stroke:none" />
         <path
   d="m 10762,15881 -10,-10 -15,-2 -13,-3 -10,-3 h -5 v 21 h 5 l 5,2 18,3 10,2 -10,-10 h 25 v -7 l -10,-3 z"
   id="path150"
   inkscape:connector-curvature="0"
   style="fill:#000000;stroke:none" />
         <path
   d="m 10625,15940 v 0 h 12 l 18,-3 23,-5 20,-5 23,-10 18,-8 13,-12 10,-16 h -25 v 0 l -8,8 -18,8 -18,10 -20,5 -18,5 -18,2 h -12 v 0 z"
   id="path152"
   inkscape:connector-curvature="0"
   style="fill:#000000;stroke:none" />
         <path
   d="m 10620,15983 v 0 l -21,-5 -10,-5 3,-3 v -10 l 2,-5 10,-8 10,-7 h 11 v -21 h -16 l -15,8 -15,13 -8,15 -5,15 8,18 20,10 26,5 v 0 z"
   id="path154"
   inkscape:connector-curvature="0"
   style="fill:#000000;stroke:none" />
         <path
   d="m 10851,15960 -13,-7 -5,2 -10,3 -20,7 -26,5 -30,8 -36,2 h -43 l -48,3 v 20 l 48,3 43,-5 36,-3 35,-7 26,-5 20,-8 10,-3 5,-2 -12,-8 20,-5 -3,-13 -10,6 z"
   id="path156"
   inkscape:connector-curvature="0"
   style="fill:#000000;stroke:none" />
         <path
   d="m 10846,15970 10,8 -5,-18 -20,5 5,18 10,8 -10,-8 2,10 8,-2 z"
   id="path158"
   inkscape:connector-curvature="0"
   style="fill:#000000;stroke:none" />
         <path
   d="m 10912,15975 10,-12 h -10 l -10,2 -13,3 -13,-3 -12,3 -11,2 -5,-2 -2,2 v 21 l 2,2 5,-2 11,-3 12,3 13,-3 13,-2 10,2 h 10 l 10,-13 -10,13 h 10 v -13 z"
   id="path160"
   inkscape:connector-curvature="0"
   style="fill:#000000;stroke:none" />
         <path
   d="m 10909,15884 -12,13 5,17 5,26 5,20 v 15 h 20 v -15 l -5,-25 -5,-26 -5,-18 -13,13 5,-20 -20,-8 8,21 z"
   id="path162"
   inkscape:connector-curvature="0"
   style="fill:#000000;stroke:none" />
         <path
   d="m 10927,15899 13,-13 -13,3 -7,-3 -8,-2 h -3 l -5,20 h 3 l 8,3 12,2 13,3 13,-13 -13,13 h 13 v -13 z"
   id="path164"
   inkscape:connector-curvature="0"
   style="fill:#000000;stroke:none" />
         <path
   d="m 10853,15492 h 3 l 8,23 10,46 13,61 12,69 13,71 10,61 5,51 v 25 h 26 l -5,-25 -5,-51 -11,-61 -12,-71 -13,-69 -13,-66 -10,-46 -13,-28 h 3 z"
   id="path166"
   inkscape:connector-curvature="0"
   style="fill:#000000;stroke:none" />
         <path
   d="m 10838,15220 -23,5 5,64 8,79 10,76 15,48 21,-10 -15,-43 -11,-71 -7,-79 v -64 l -23,5 20,-10 -23,-36 v 41 z"
   id="path168"
   inkscape:connector-curvature="0"
   style="fill:#000000;stroke:none" />
         <path
   d="m 10948,15373 v 0 l -13,-16 -15,-20 -18,-25 -18,-26 -18,-25 -15,-21 -10,-15 -3,-5 -20,10 2,5 11,16 15,20 18,25 17,26 18,25 21,26 12,15 v 0 z"
   id="path170"
   inkscape:connector-curvature="0"
   style="fill:#000000;stroke:none" />
         <path
   d="m 11197,15846 v 2 l -13,-30 -28,-54 -35,-73 -44,-82 -40,-79 -39,-73 -30,-54 -20,-30 -16,15 16,25 30,54 38,73 41,79 43,82 36,73 28,54 12,25 v 3 z"
   id="path172"
   inkscape:connector-curvature="0"
   style="fill:#000000;stroke:none" />
         <path
   d="m 11255,15884 -10,-15 -18,2 -10,-5 -10,-5 -10,-15 -21,10 16,20 15,10 20,5 18,3 -10,-15 20,5 8,-15 h -18 z"
   id="path174"
   inkscape:connector-curvature="0"
   style="fill:#000000;stroke:none" />
         <path
   d="m 11288,15917 h 3 l -26,-3 -7,-5 -5,-12 2,-13 -20,-5 -3,18 6,22 22,16 31,2 h 2 z"
   id="path176"
   inkscape:connector-curvature="0"
   style="fill:#000000;stroke:none" />
         <path
   d="m 11382,15942 v 0 l -7,-2 -3,-3 -5,-7 -10,-8 -10,-5 -15,-3 h -18 l -26,3 5,20 21,-2 h 18 l 10,2 5,5 5,3 5,8 13,7 12,3 v 0 z"
   id="path178"
   inkscape:connector-curvature="0"
   style="fill:#000000;stroke:none" />
         <path
   d="m 11527,15940 v 0 l -20,10 -18,8 h -20 -20 l -16,-3 -17,-5 -18,-5 -16,-3 v 21 l 11,2 17,5 18,5 21,3 20,5 25,-5 23,-8 26,-15 v 0 z"
   id="path180"
   inkscape:connector-curvature="0"
   style="fill:#000000;stroke:none" />
         <path
   d="m 11413,15833 8,15 15,5 23,10 23,11 25,15 18,15 10,15 3,8 -11,13 16,15 15,-23 -3,-23 -15,-20 -23,-20 -25,-16 -28,-10 -23,-10 -15,-5 7,15 -20,-10 -10,13 18,2 z"
   id="path182"
   inkscape:connector-curvature="0"
   style="fill:#000000;stroke:none" />
         <path
   d="m 11431,15815 v -10 l -5,10 -8,8 -2,7 -3,3 20,10 3,-2 2,-8 8,-8 5,-10 v -10 10 l 3,-5 -3,-5 z"
   id="path184"
   inkscape:connector-curvature="0"
   style="fill:#000000;stroke:none" />
         <path
   d="m 11164,15441 v 0 l 25,36 38,51 44,63 45,64 44,61 38,51 23,35 10,13 20,-10 -10,-13 -23,-35 -38,-51 -43,-61 -46,-64 -43,-63 -38,-51 -31,-41 v 0 z"
   id="path186"
   inkscape:connector-curvature="0"
   style="fill:#000000;stroke:none" />
         <path
   d="m 10932,14978 v 0 l -5,33 18,51 28,66 38,72 43,73 41,69 38,56 31,43 15,-15 -25,-38 -39,-56 -40,-69 -43,-73 -39,-72 -28,-61 -17,-46 v -17 0 z"
   id="path188"
   inkscape:connector-curvature="0"
   style="fill:#000000;stroke:none" />
         <path
   d="m 10874,14811 v 15 l 10,13 13,15 12,23 13,25 10,23 5,23 v 23 l -5,7 16,16 10,-23 v -23 l -5,-28 -10,-28 -13,-25 -13,-23 -18,-21 -10,-12 v 15 l -15,-15 -10,7 10,8 z"
   id="path190"
   inkscape:connector-curvature="0"
   style="fill:#000000;stroke:none" />
         <path
   d="m 10894,14805 3,-12 -23,18 15,15 23,-18 3,-13 -3,13 8,-5 -5,-8 z"
   id="path192"
   inkscape:connector-curvature="0"
   style="fill:#000000;stroke:none" />
         <path
   d="m 10902,14648 v 0 l -15,71 -3,48 8,28 2,10 21,-10 -3,-5 -8,-23 3,-48 15,-66 v 0 z"
   id="path194"
   inkscape:connector-curvature="0"
   style="fill:#000000;stroke:none" />
         <path
   d="m 11121,14424 -18,3 -26,40 -28,31 -28,20 -28,20 -25,21 -28,20 -23,31 -15,38 20,5 15,-33 18,-26 23,-20 26,-15 28,-21 33,-25 28,-31 30,-45 -18,2 16,-15 -11,-10 -7,13 z"
   id="path196"
   inkscape:connector-curvature="0"
   style="fill:#000000;stroke:none" />
         <path
   d="m 11232,14528 8,3 -13,-13 -17,-15 -21,-18 -20,-18 -18,-18 -15,-12 -10,-10 -5,-3 -16,15 5,3 11,10 15,13 18,17 20,18 20,18 18,15 13,13 7,3 -7,-3 2,3 h 5 z"
   id="path198"
   inkscape:connector-curvature="0"
   style="fill:#000000;stroke:none" />
         <path
   d="m 11268,14549 -10,-16 -26,-5 v 21 l 26,5 -10,-16 20,11 10,-13 -20,-3 z"
   id="path200"
   inkscape:connector-curvature="0"
   style="fill:#000000;stroke:none" />
         <path
   d="m 11146,14709 v 15 l 18,-23 18,-25 20,-28 20,-31 18,-25 15,-23 10,-15 3,-5 -20,-11 -3,6 -10,15 -15,23 -18,25 -20,31 -21,28 -18,25 -12,18 v 15 -15 l -8,7 8,8 z"
   id="path202"
   inkscape:connector-curvature="0"
   style="fill:#000000;stroke:none" />
         <path
   d="m 11245,14803 3,2 -102,-96 -15,15 101,97 3,2 -3,-2 v 0 l 3,2 z"
   id="path204"
   inkscape:connector-curvature="0"
   style="fill:#000000;stroke:none" />
         <path
   d="m 11258,14828 15,-7 -28,-18 -10,20 28,18 15,-8 -15,8 10,8 5,-16 z"
   id="path206"
   inkscape:connector-curvature="0"
   style="fill:#000000;stroke:none" />
         <path
   d="m 11388,14516 v 0 l -11,22 -15,39 -23,50 -23,56 -20,54 -20,46 -13,33 -5,12 20,5 5,-12 13,-33 20,-46 21,-53 23,-56 22,-51 16,-38 10,-18 v 0 z"
   id="path208"
   inkscape:connector-curvature="0"
   style="fill:#000000;stroke:none" />
         <path
   d="m 11385,14467 v 0 l 15,10 v 8 l -2,13 -10,18 20,10 10,-23 8,-18 -10,-23 -26,-15 v 0 z"
   id="path210"
   inkscape:connector-curvature="0"
   style="fill:#000000;stroke:none" />
         <path
   d="m 11207,14310 -20,2 15,15 18,21 28,23 28,25 33,25 30,21 23,15 23,10 5,-20 -18,-10 -23,-16 -30,-20 -28,-20 -28,-26 -28,-23 -18,-20 -10,-10 -20,2 20,-2 -13,-26 -7,28 z"
   id="path212"
   inkscape:connector-curvature="0"
   style="fill:#000000;stroke:none" />
         <path
   d="m 11131,14327 v 0 l 28,11 20,2 18,-10 10,-20 -20,-6 -5,11 -3,5 -15,-3 -23,-10 v 0 z"
   id="path214"
   inkscape:connector-curvature="0"
   style="fill:#000000;stroke:none" />
         <path
   d="m 11098,14266 -5,-12 -6,17 6,18 12,18 26,20 10,-20 -20,-15 -8,-13 v -8 -7 l -5,-13 5,13 5,-8 -10,-5 z"
   id="path216"
   inkscape:connector-curvature="0"
   style="fill:#000000;stroke:none" />
         <path
   d="m 11044,14231 8,10 13,8 15,7 13,10 h 5 l 10,-15 -5,-5 -13,-10 -15,-8 -18,-7 8,10 h -21 v 7 l 8,3 z"
   id="path218"
   inkscape:connector-curvature="0"
   style="fill:#000000;stroke:none" />
         <path
   d="m 11049,14198 -12,-11 2,13 3,13 2,13 v 5 h 21 v -5 l -3,-13 -3,-13 3,-13 -13,-10 13,10 -3,-12 h -10 z"
   id="path220"
   inkscape:connector-curvature="0"
   style="fill:#000000;stroke:none" />
         <path
   d="m 10955,14190 -10,10 104,-2 v -21 l -104,3 -10,10 10,-13 -10,3 v 10 z"
   id="path222"
   inkscape:connector-curvature="0"
   style="fill:#000000;stroke:none" />
         <path
   d="m 10940,14276 10,-12 5,-74 h -20 l -5,74 10,-13 v 25 h 10 v -12 z"
   id="path224"
   inkscape:connector-curvature="0"
   style="fill:#000000;stroke:none" />
         <path
   d="m 10897,14251 v 20 l 15,3 13,2 h 10 5 v -25 h -5 -10 l -13,3 -15,-3 v 20 z"
   id="path226"
   inkscape:connector-curvature="0"
   style="fill:#000000;stroke:none" />
         <path
   d="m 10953,14317 2,-7 -5,-18 -13,-18 -17,-15 -23,-8 v 20 l 12,8 13,10 8,13 5,8 2,-8 16,15 5,-2 -3,-5 z"
   id="path228"
   inkscape:connector-curvature="0"
   style="fill:#000000;stroke:none" />
         <path
   d="m 10688,14716 13,-10 10,-30 20,-43 28,-54 36,-61 38,-61 38,-53 41,-49 41,-38 -16,-15 -40,38 -41,48 -43,59 -38,61 -36,61 -28,53 -20,49 -10,35 12,-10 -5,20 13,3 v -13 z"
   id="path230"
   inkscape:connector-curvature="0"
   style="fill:#000000;stroke:none" />
         <path
   d="m 10632,14696 8,10 48,10 5,-20 -48,-10 8,10 h -21 l -2,8 10,2 z"
   id="path232"
   inkscape:connector-curvature="0"
   style="fill:#000000;stroke:none" />
         <path
   d="m 10650,14617 -8,-12 -2,25 -5,28 -3,28 v 10 h 21 v -10 l 2,-28 5,-28 3,-20 -8,-13 8,13 5,-11 -13,-2 z"
   id="path234"
   inkscape:connector-curvature="0"
   style="fill:#000000;stroke:none" />
         <path
   d="m 10681,14488 h 2 l -8,5 -12,12 -15,16 -18,20 -10,20 -6,21 11,23 25,12 5,-20 -15,-8 -5,-7 5,-16 10,-15 13,-15 15,-15 13,-13 7,-10 h 3 z"
   id="path236"
   inkscape:connector-curvature="0"
   style="fill:#000000;stroke:none" />
         <path
   d="m 10681,14414 v 0 l 25,38 v 18 l -13,7 -12,11 20,10 8,-5 17,-18 v -28 l -30,-48 v 0 z"
   id="path238"
   inkscape:connector-curvature="0"
   style="fill:#000000;stroke:none" />
         <path
   d="m 10767,14238 -3,-20 -17,13 -18,15 -20,18 -23,28 -16,25 -10,33 3,31 18,33 15,-15 -13,-23 -2,-26 10,-23 15,-25 18,-23 20,-18 18,-15 13,-8 -3,-20 3,20 23,-10 -26,-10 z"
   id="path240"
   inkscape:connector-curvature="0"
   style="fill:#000000;stroke:none" />
         <path
   d="m 10564,14246 15,5 10,-5 20,-5 23,-5 28,-5 h 28 31 28 l 20,7 5,-20 -25,-8 -28,-5 h -31 l -28,5 -28,5 -28,6 -20,5 -15,5 15,5 -20,10 5,10 10,-5 z"
   id="path242"
   inkscape:connector-curvature="0"
   style="fill:#000000;stroke:none" />
         <path
   d="m 10408,14233 3,10 h 3 l 15,-7 25,-8 26,-5 h 28 25 l 20,10 11,13 20,-10 -20,-23 -26,-10 -30,-5 -28,5 -31,5 -25,7 -21,8 -12,15 2,11 -2,-11 -5,5 7,6 z"
   id="path244"
   inkscape:connector-curvature="0"
   style="fill:#000000;stroke:none" />
         <path
   d="m 10508,14393 5,-15 -8,-12 -10,-18 -10,-18 -16,-23 -17,-23 -16,-20 -15,-18 -13,-13 -15,16 13,12 15,18 15,15 13,23 15,23 11,18 10,18 7,12 5,-15 11,20 10,-7 -5,-8 z"
   id="path246"
   inkscape:connector-curvature="0"
   style="fill:#000000;stroke:none" />
         <path
   d="m 10314,14429 11,10 15,-5 23,-2 28,-5 30,-8 28,-8 26,-7 20,-5 13,-6 -11,-20 -7,5 -21,5 -25,8 -28,8 -30,7 -23,5 -23,3 h -15 l 10,10 -21,5 3,10 h 8 z"
   id="path248"
   inkscape:connector-curvature="0"
   style="fill:#000000;stroke:none" />
         <path
   d="m 10190,14287 -3,-3 13,13 18,15 20,20 20,21 18,20 18,23 13,18 7,15 21,-5 -8,-20 -18,-23 -18,-23 -17,-20 -21,-21 -20,-20 -18,-15 -13,-13 -2,-3 2,3 v -3 h -2 z"
   id="path250"
   inkscape:connector-curvature="0"
   style="fill:#000000;stroke:none" />
         <path
   d="m 9991,14355 13,11 v -16 l 10,-20 16,-23 22,-23 23,-15 33,-5 39,2 43,21 10,-21 -48,-20 -44,-8 -38,11 -33,20 -23,23 -20,28 -10,25 -5,21 12,10 -12,-10 v 10 h 12 z"
   id="path252"
   inkscape:connector-curvature="0"
   style="fill:#000000;stroke:none" />
         <path
   d="m 10042,14472 v 8 l 10,-43 -10,-38 -20,-28 -31,-16 v 21 l 16,10 15,18 5,33 -5,33 v 7 -7 l -3,5 3,2 z"
   id="path254"
   inkscape:connector-curvature="0"
   style="fill:#000000;stroke:none" />
         <path
   d="m 10202,14482 -20,-2 -10,8 -15,10 -23,5 -26,-3 h -23 l -20,-7 -15,-11 -8,-10 -20,5 13,21 20,15 25,8 28,5 26,-3 28,-5 20,-10 20,-18 -20,-2 20,-6 -7,-25 -13,23 z"
   id="path256"
   inkscape:connector-curvature="0"
   style="fill:#000000;stroke:none" />
         <path
   d="m 10261,14599 10,8 -18,-38 -20,-36 -18,-30 -13,-21 -20,6 13,25 18,31 20,35 18,33 10,8 -10,-8 2,8 h 8 z"
   id="path258"
   inkscape:connector-curvature="0"
   style="fill:#000000;stroke:none" />
         <path
   d="m 10302,14661 v 0 -28 l -8,-21 -15,-10 -18,-3 v 21 l 13,2 h 5 l 2,11 v 28 0 z"
   id="path260"
   inkscape:connector-curvature="0"
   style="fill:#000000;stroke:none" />
         <path
   d="m 10253,14729 v -2 h 23 l 18,-16 5,-20 3,-30 h -21 l -2,30 -5,10 -3,5 h -18 v -2 z"
   id="path262"
   inkscape:connector-curvature="0"
   style="fill:#000000;stroke:none" />
         <path
   d="m 10096,14882 v 0 l 28,-41 23,-30 25,-28 20,-23 18,-13 18,-13 13,-5 h 12 v -25 l -17,5 -18,5 -18,13 -23,17 -20,23 -26,28 -28,36 -28,41 v 0 z"
   id="path264"
   inkscape:connector-curvature="0"
   style="fill:#000000;stroke:none" />
         <path
   d="m 9841,15004 3,20 41,-15 40,-18 38,-15 33,-18 31,-18 25,-18 26,-20 18,-20 -21,-10 -12,15 -21,15 -25,18 -31,18 -33,18 -33,15 -41,18 -40,15 2,20 -2,-20 -74,25 76,-5 z"
   id="path266"
   inkscape:connector-curvature="0"
   style="fill:#000000;stroke:none" />
         <path
   d="m 10111,15052 v 0 l -33,-28 -38,-15 -41,-10 -41,-5 h -38 l -35,5 -26,2 -18,3 v 20 l 18,-2 26,-3 h 35 38 41 l 36,10 33,16 28,22 v 0 z"
   id="path268"
   inkscape:connector-curvature="0"
   style="fill:#000000;stroke:none" />
         <path
   d="m 10299,15095 v 0 l -10,8 -18,5 -23,5 h -28 l -25,-7 -28,-11 -28,-17 -28,-26 -15,15 28,26 33,23 33,10 30,8 h 28 l 28,-6 23,-5 15,-12 v 0 z"
   id="path270"
   inkscape:connector-curvature="0"
   style="fill:#000000;stroke:none" />
         <path
   d="m 10457,15126 20,-5 -18,-31 -23,-20 -25,-8 -28,-5 -25,8 -23,8 -21,10 -15,12 15,16 11,-8 15,-10 23,-8 20,-2 h 23 l 20,7 18,16 13,20 20,-5 z"
   id="path272"
   inkscape:connector-curvature="0"
   style="fill:#000000;stroke:none" />
         <path
   d="m 10464,14889 v 0 l -12,33 -10,51 v 64 l 15,89 20,-5 -15,-84 v -64 l 10,-45 13,-28 v 0 z"
   id="path274"
   inkscape:connector-curvature="0"
   style="fill:#000000;stroke:none" />
         <path
   d="m 10475,14701 v 0 l 5,33 v 54 58 l -16,43 21,11 15,-54 5,-58 -5,-54 -5,-38 v 0 z"
   id="path276"
   inkscape:connector-curvature="0"
   style="fill:#000000;stroke:none" />
         <path
   d="m 10538,14531 v 0 l -33,41 -23,48 -10,46 3,35 20,-5 -3,-30 11,-41 22,-43 28,-36 v 0 z"
   id="path278"
   inkscape:connector-curvature="0"
   style="fill:#000000;stroke:none" />
         <path
   d="m 10553,14414 -5,13 8,22 5,26 -3,28 -20,28 15,15 26,-33 7,-38 -10,-31 -7,-23 -5,13 -11,-20 -10,7 5,6 z"
   id="path280"
   inkscape:connector-curvature="0"
   style="fill:#000000;stroke:none" />
         <path
   d="m 10602,14353 -18,10 2,13 -5,10 -10,13 -18,15 11,20 22,-20 16,-18 5,-20 -3,-18 -18,10 16,-15 -31,-33 13,43 z"
   id="path282"
   inkscape:connector-curvature="0"
   style="fill:#000000;stroke:none" />
         <path
   d="m 10625,14416 v -5 l -5,-15 v -15 l -6,-13 -12,-15 -16,15 8,10 5,8 v 10 l 5,20 v -5 l 21,5 2,-2 -2,-3 z"
   id="path284"
   inkscape:connector-curvature="0"
   style="fill:#000000;stroke:none" />
         <path
   d="m 11004,14187 v -7 l 2,-18 v -23 l -5,-15 31,-20 15,-21 7,-15 -2,-15 -8,-8 -10,-5 -13,3 -7,7 h -3 l -5,3 -8,-3 -7,-2 v -28 l -8,-23 -7,-26 7,-23 -15,-10 -18,-7 -20,-5 -23,-8 -23,-3 -23,-2 -18,-3 h -12 l -33,54 -16,35 v 21 l 23,17 -13,23 -5,18 3,18 8,15 10,13 15,10 13,5 15,3 2,40 -68,-17 -15,63 -16,10 -17,16 -21,17 -20,26 -15,25 -11,28 3,28 15,28 28,43 v 23 l -15,13 -10,8 -8,7 -13,13 -15,15 -15,18 -10,18 -5,18 7,15 21,10 -3,23 -5,28 -3,28 v 10 l 49,10 10,-33 20,-46 28,-53 36,-61 38,-61 41,-56 40,-48 41,-38 -5,-13 -10,-15 -15,-13 -18,-8 15,3 h 13 10 5 l 5,-74 z"
   id="path286"
   inkscape:connector-curvature="0"
   style="fill:#ffffff;stroke:none" />
         <path
   d="m 10996,14114 -5,15 5,10 v 23 l -3,18 v 7 h 21 v -7 l 2,-18 v -23 l -5,-20 -5,15 -10,-20 -13,7 8,8 z"
   id="path288"
   inkscape:connector-curvature="0"
   style="fill:#000000;stroke:none" />
         <path
   d="m 11016,14060 8,-5 2,-2 8,-3 5,5 3,3 2,10 -7,10 -13,18 -28,18 10,20 33,-23 18,-23 8,-20 -3,-20 -13,-13 -15,-5 -18,2 -12,13 7,-5 5,20 h 5 l 3,-5 z"
   id="path290"
   inkscape:connector-curvature="0"
   style="fill:#000000;stroke:none" />
         <path
   d="m 10981,14045 5,10 10,5 10,5 8,-5 h 2 l -5,-20 h -2 -3 -5 -5 l 5,10 -20,-5 -3,5 8,5 z"
   id="path292"
   inkscape:connector-curvature="0"
   style="fill:#000000;stroke:none" />
         <path
   d="m 10976,13956 -3,-13 -10,28 10,28 8,21 v 25 l 20,5 v -30 l -8,-26 -5,-23 5,-18 -2,-12 2,12 5,-5 -7,-7 z"
   id="path294"
   inkscape:connector-curvature="0"
   style="fill:#000000;stroke:none" />
         <path
   d="m 10841,13915 -10,5 h 12 l 18,3 23,3 20,2 23,8 21,5 15,7 13,8 15,-15 -18,-13 -20,-8 -21,-5 -23,-7 -25,-3 -23,-2 -18,-3 h -12 l -11,5 11,-5 h -5 l -6,5 z"
   id="path296"
   inkscape:connector-curvature="0"
   style="fill:#000000;stroke:none" />
         <path
   d="m 10813,14045 -3,-18 -18,-12 v -13 l 16,-33 33,-54 -21,-10 -33,54 -15,38 v 28 l 28,23 -2,-18 15,15 10,-10 -13,-8 z"
   id="path298"
   inkscape:connector-curvature="0"
   style="fill:#000000;stroke:none" />
         <path
   d="m 10861,14142 -10,-10 -13,-3 -10,-5 -13,-8 -7,-10 -8,-13 -2,-15 5,-15 10,-18 -15,-15 -16,28 -5,20 3,20 7,18 13,16 18,12 15,5 18,3 -10,-10 h 20 v -10 h -10 z"
   id="path300"
   inkscape:connector-curvature="0"
   style="fill:#000000;stroke:none" />
         <path
   d="m 10851,14193 13,-11 -3,-40 h -20 l 2,40 13,-10 -5,21 15,5 -2,-16 z"
   id="path302"
   inkscape:connector-curvature="0"
   style="fill:#000000;stroke:none" />
         <path
   d="m 10795,14167 -13,8 69,18 5,-21 -69,-18 -12,8 12,-8 -10,-5 -2,13 z"
   id="path304"
   inkscape:connector-curvature="0"
   style="fill:#000000;stroke:none" />
         <path
   d="m 10775,14238 5,-7 15,-64 -20,-5 -16,64 5,-8 11,20 5,-2 v -5 z"
   id="path306"
   inkscape:connector-curvature="0"
   style="fill:#000000;stroke:none" />
         <path
   d="m 10696,14399 v 0 l -13,-23 -2,-26 10,-23 15,-25 18,-23 20,-18 18,-15 13,-8 -11,-20 -17,13 -18,15 -20,18 -23,28 -16,25 -10,33 3,31 18,33 v 0 z"
   id="path308"
   inkscape:connector-curvature="0"
   style="fill:#000000;stroke:none" />
         <path
   d="m 10698,14498 h 3 l 8,-5 17,-18 v -28 l -30,-48 -15,15 25,38 v 18 l -13,7 -12,11 h 2 z"
   id="path310"
   inkscape:connector-curvature="0"
   style="fill:#000000;stroke:none" />
         <path
   d="m 10663,14610 -8,-13 -15,-8 -5,-7 5,-16 10,-15 13,-15 15,-15 13,-13 7,-10 -15,-10 -8,5 -12,12 -15,16 -18,20 -10,20 -6,21 11,23 25,12 -8,-12 21,5 5,-11 -13,-2 z"
   id="path312"
   inkscape:connector-curvature="0"
   style="fill:#000000;stroke:none" />
         <path
   d="m 10645,14686 8,10 v -10 l 2,-28 5,-28 3,-20 -21,-5 -2,25 -5,28 -3,28 v 10 l 8,10 -8,-10 -2,8 10,2 z"
   id="path314"
   inkscape:connector-curvature="0"
   style="fill:#000000;stroke:none" />
         <path
   d="m 10681,14706 12,-10 -48,-10 -5,20 48,10 13,-10 -13,10 13,3 v -13 z"
   id="path316"
   inkscape:connector-curvature="0"
   style="fill:#000000;stroke:none" />
         <path
   d="m 10935,14310 2,-8 -40,38 -41,48 -43,59 -38,61 -36,61 -28,53 -20,49 -10,35 h 20 l 10,-30 20,-43 28,-54 36,-61 38,-61 38,-53 41,-49 41,-38 2,-7 -2,7 5,-2 -3,-5 z"
   id="path318"
   inkscape:connector-curvature="0"
   style="fill:#000000;stroke:none" />
         <path
   d="m 10897,14251 v 20 l 12,8 13,10 8,13 5,8 h 20 l -5,-18 -13,-18 -17,-15 -23,-8 v 20 z"
   id="path320"
   inkscape:connector-curvature="0"
   style="fill:#000000;stroke:none" />
         <path
   d="m 10930,14264 10,-13 h -5 -10 l -13,3 -15,-3 v 20 l 15,3 13,2 h 10 5 l 10,-12 -10,12 h 10 v -12 z"
   id="path322"
   inkscape:connector-curvature="0"
   style="fill:#000000;stroke:none" />
         <path
   d="m 10945,14180 -10,10 -5,74 h 20 l 5,-74 -10,10 v -23 l -10,3 v 10 z"
   id="path324"
   inkscape:connector-curvature="0"
   style="fill:#000000;stroke:none" />
         <path
   d="m 10993,14187 11,-10 -59,3 v 20 l 59,-2 10,-11 -10,13 10,-2 v -11 z"
   id="path326"
   inkscape:connector-curvature="0"
   style="fill:#000000;stroke:none" />
         <path
   d="m 11154,13931 2,-8 -2,-10 -8,-10 -13,-11 -15,-12 -18,-13 -23,-13 -28,-15 -30,-15 -31,-13 -30,-10 -28,-8 -26,-5 -20,-2 -15,2 -8,5 -5,5 -3,3 v 5 l -2,3 v 5 l 20,7 36,16 48,17 51,21 51,23 43,17 36,16 18,7 v 0 0 -2 z"
   id="path328"
   inkscape:connector-curvature="0"
   style="fill:#e50019;stroke:none" />
         <path
   d="m 11044,13849 v 0 l 28,15 23,13 15,10 16,13 12,10 5,8 v 5 3 l 21,10 5,-13 -5,-15 -10,-13 -13,-10 -15,-13 -21,-15 -23,-13 -28,-15 v 0 z"
   id="path330"
   inkscape:connector-curvature="0"
   style="fill:#000000;stroke:none" />
         <path
   d="m 10869,13801 2,-3 v 0 h 13 20 l 23,5 28,8 31,10 28,13 30,15 10,-20 -30,-15 -33,-13 -31,-10 -28,-8 -28,-5 -20,-5 -18,5 -15,10 2,-2 16,15 2,-3 v 0 z"
   id="path332"
   inkscape:connector-curvature="0"
   style="fill:#000000;stroke:none" />
         <path
   d="m 10866,13803 -2,3 5,-5 -16,-15 -5,5 -2,2 2,-2 -2,2 v 0 z"
   id="path334"
   inkscape:connector-curvature="0"
   style="fill:#000000;stroke:none" />
         <path
   d="m 10853,13803 11,11 -3,-3 3,-2 v -6 h 2 l -20,-10 -3,5 v 5 l -2,3 -3,8 10,10 -10,-10 v 7 l 10,3 z"
   id="path336"
   inkscape:connector-curvature="0"
   style="fill:#000000;stroke:none" />
         <path
   d="m 11154,13951 5,-23 -21,-8 -35,-15 -44,-18 -50,-23 -51,-20 -49,-18 -35,-15 -21,-8 -5,21 21,7 35,16 49,17 51,21 50,23 44,18 35,15 15,7 6,-22 v 25 h 45 l -40,-23 z"
   id="path338"
   inkscape:connector-curvature="0"
   style="fill:#000000;stroke:none" />
         <path
   d="m 11143,13926 v 2 l -2,8 v 2 l 13,13 v 0 -25 0 l 12,12 v -2 l -2,-3 v 3 z"
   id="path340"
   inkscape:connector-curvature="0"
   style="fill:#000000;stroke:none" />
         <path
   d="m 10032,14475 -20,10 -23,10 -26,13 -28,10 -33,13 -33,10 -38,10 -43,5 -31,-38 -17,-58 -11,-97 -5,-158 -2,-23 5,-28 10,-25 18,-31 15,-17 20,-21 21,-20 23,-23 23,-23 17,-23 16,-18 7,-15 v 28 l -10,36 -20,38 -23,28 -8,15 13,8 20,2 h 23 l -10,11 -10,7 -8,10 -10,11 -10,10 -13,10 -10,8 -13,5 -20,10 -8,18 v 25 l 16,41 20,53 13,51 7,46 v 30 l 10,-10 18,-10 21,-13 25,-13 23,-10 23,-10 20,-5 15,-2 23,12 18,23 8,36 z"
   id="path342"
   inkscape:connector-curvature="0"
   style="fill:#ffffff;stroke:none" />
         <path
   d="m 9780,14564 8,2 43,-5 41,-10 33,-10 33,-13 28,-10 28,-13 23,-10 18,-10 -5,-20 -23,10 -23,10 -23,13 -28,10 -33,13 -33,10 -36,10 -43,5 8,3 -16,15 5,5 3,-3 z"
   id="path344"
   inkscape:connector-curvature="0"
   style="fill:#000000;stroke:none" />
         <path
   d="m 9714,14205 v 0 l 5,158 10,97 18,63 33,41 16,-15 -28,-36 -18,-53 -10,-97 -5,-158 v 0 z"
   id="path346"
   inkscape:connector-curvature="0"
   style="fill:#000000;stroke:none" />
         <path
   d="m 9747,14091 v 2 l -20,31 -10,28 -8,30 5,23 h 21 v -23 l 2,-25 10,-23 15,-30 v 2 z"
   id="path348"
   inkscape:connector-curvature="0"
   style="fill:#000000;stroke:none" />
         <path
   d="m 9907,13936 h -20 l -8,12 -12,16 -18,23 -23,22 -23,23 -20,21 -21,20 -15,18 15,15 16,-18 20,-20 20,-20 23,-23 23,-23 18,-23 18,-20 7,-18 h -20 l 20,-5 -10,-31 -10,31 z"
   id="path350"
   inkscape:connector-curvature="0"
   style="fill:#000000;stroke:none" />
         <path
   d="m 9852,14076 v 0 l 25,-31 20,-41 10,-38 v -30 l -20,5 v 25 l -10,33 -20,36 -21,25 v 0 z"
   id="path352"
   inkscape:connector-curvature="0"
   style="fill:#000000;stroke:none" />
         <path
   d="m 9900,14101 -8,-18 -23,-2 h -17 -6 l 6,-5 -16,-16 -10,26 20,15 23,5 23,-2 -7,-18 15,15 20,-15 -28,-3 z"
   id="path354"
   inkscape:connector-curvature="0"
   style="fill:#000000;stroke:none" />
         <path
   d="m 9811,14175 v 0 l 15,-5 13,-10 13,-11 10,-10 10,-10 7,-10 11,-8 10,-10 -15,-15 -11,10 -10,8 -7,10 -11,10 -10,10 -12,10 -8,5 -10,5 v 0 z"
   id="path356"
   inkscape:connector-curvature="0"
   style="fill:#000000;stroke:none" />
         <path
   d="m 9806,14254 v 0 l -16,-39 v -22 l 6,-11 15,-7 -5,-21 -26,13 -10,26 v 28 l 15,43 v 0 z"
   id="path358"
   inkscape:connector-curvature="0"
   style="fill:#000000;stroke:none" />
         <path
   d="m 9829,14432 17,7 v -30 l -7,-49 -13,-50 -20,-56 -21,10 21,51 12,51 8,43 v 30 l 18,8 -18,-8 -10,41 28,-33 z"
   id="path360"
   inkscape:connector-curvature="0"
   style="fill:#000000;stroke:none" />
         <path
   d="m 9991,14355 v -2 l -17,5 -21,5 -25,10 -23,10 -26,13 -20,13 -18,10 -12,13 15,15 8,-8 17,-10 21,-13 25,-12 23,-11 20,-10 21,-5 h 12 v -2 z"
   id="path362"
   inkscape:connector-curvature="0"
   style="fill:#000000;stroke:none" />
         <path
   d="m 10035,14485 7,-5 10,-43 -10,-38 -20,-28 -31,-16 v 21 l 16,10 15,18 5,33 -5,33 8,-5 5,20 5,-3 2,-2 z"
   id="path364"
   inkscape:connector-curvature="0"
   style="fill:#000000;stroke:none" />
         <path
   d="m 10467,15123 8,23 7,23 10,26 13,28 10,28 16,30 15,31 18,33 17,38 8,33 -5,23 -10,18 -21,10 -22,7 -28,3 h -31 l -33,-3 -33,-5 -31,-5 -28,-5 -22,-5 -16,-3 -10,-2 -2,2 -11,89 -5,138 8,137 30,76 18,13 18,13 18,13 15,12 -28,8 -25,-3 -26,-5 -23,-10 -20,-10 -15,-13 -13,-10 -5,-8 v -45 l -10,-64 -13,-66 -15,-56 -10,-64 -5,-78 v -77 l 7,-56 -35,3 -33,13 -34,17 -35,21 -41,20 -43,18 -53,10 h -64 l -18,20 -23,28 -25,36 -31,41 -25,38 -26,35 -20,31 -10,23 -5,15 -8,20 -7,21 -8,23 -15,10 -18,8 -23,2 h -23 l -18,-8 -12,-12 -8,-21 5,-28 5,-2 3,-3 5,-5 2,-2 31,-26 25,-23 23,-23 18,-22 13,-23 12,-23 8,-21 8,-20 17,-43 18,-43 16,-36 7,-13 -20,-20 -18,-23 -15,-28 -16,-30 -15,-28 -10,-31 -10,-25 -8,-23 -10,-21 -18,-20 -25,-20 -28,-18 -33,-15 -36,-11 -35,-7 h -36 l 18,-3 20,-2 20,-5 26,-3 25,-5 26,-8 28,-5 28,-7 30,-5 31,-11 30,-7 31,-8 30,-10 31,-8 28,-10 30,-10 18,-3 26,-2 35,-3 h 38 l 41,3 38,10 36,15 30,26 28,25 31,21 30,10 28,7 h 28 l 26,-5 20,-5 13,-10 12,-10 18,-10 23,-8 23,-5 25,3 23,7 21,18 z"
   id="path366"
   inkscape:connector-curvature="0"
   style="fill:#ffffff;stroke:none" />
         <path
   d="m 10574,15340 v 0 l -18,-33 -15,-31 -16,-28 -10,-28 -12,-28 -11,-25 -7,-23 -8,-23 -20,5 7,23 8,23 10,25 13,28 10,28 15,33 16,31 17,33 v 0 z"
   id="path368"
   inkscape:connector-curvature="0"
   style="fill:#000000;stroke:none" />
         <path
   d="m 10307,15454 -3,-10 -5,18 h 10 l 16,2 22,5 28,5 31,5 33,6 33,5 h 31 l 28,-5 25,-8 25,-13 13,-23 8,-25 -10,-36 -18,-40 -21,10 18,35 5,31 -2,20 -8,13 -15,8 -20,7 h -28 -31 -33 l -33,-5 -31,-5 -28,-5 -22,-5 -16,-3 -10,-5 -10,23 -3,-10 21,5 2,-5 -5,-5 z"
   id="path370"
   inkscape:connector-curvature="0"
   style="fill:#000000;stroke:none" />
         <path
   d="m 10325,15881 v 0 l -26,-66 -5,-137 3,-138 10,-86 -21,-5 -10,91 -7,138 10,137 35,87 v 0 z"
   id="path372"
   inkscape:connector-curvature="0"
   style="fill:#000000;stroke:none" />
         <path
   d="m 10391,15953 5,-18 -16,-13 -20,-15 -18,-13 -17,-13 -11,21 18,12 18,13 15,10 15,13 6,-18 5,21 20,-8 -15,-10 z"
   id="path374"
   inkscape:connector-curvature="0"
   style="fill:#000000;stroke:none" />
         <path
   d="m 10223,15891 v 6 l 7,10 13,10 18,15 20,10 26,11 28,5 25,2 31,-7 -5,-21 -26,8 -25,-3 -23,-5 -21,-10 -20,-10 -13,-10 -12,-11 -3,-5 v 5 h -20 -3 l 3,6 z"
   id="path376"
   inkscape:connector-curvature="0"
   style="fill:#000000;stroke:none" />
         <path
   d="m 10185,15663 v 0 l 15,56 13,63 10,64 v 45 h 20 v -45 l -10,-64 -13,-69 -15,-56 v 0 z"
   id="path378"
   inkscape:connector-curvature="0"
   style="fill:#000000;stroke:none" />
         <path
   d="m 10187,15396 -10,-13 -8,58 v 77 l 5,78 11,67 20,-6 -10,-61 -5,-78 v -77 l 7,-53 -10,-13 10,13 5,-13 h -15 z"
   id="path380"
   inkscape:connector-curvature="0"
   style="fill:#000000;stroke:none" />
         <path
   d="m 9857,15495 -8,2 h 64 l 55,-10 46,-18 41,-20 36,-20 33,-18 30,-13 33,-2 v -21 l -38,3 -36,12 -33,18 -35,21 -41,20 -41,18 -50,10 h -64 l -8,2 8,-2 -5,-3 -3,5 z"
   id="path382"
   inkscape:connector-curvature="0"
   style="fill:#000000;stroke:none" />
         <path
   d="m 9681,15741 v 0 l 10,-20 21,-30 25,-36 25,-38 31,-41 23,-33 23,-28 18,-20 -16,-16 -17,21 -23,28 -28,38 -31,41 -25,38 -26,35 -20,31 -10,25 v 0 z"
   id="path384"
   inkscape:connector-curvature="0"
   style="fill:#000000;stroke:none" />
         <path
   d="m 9651,15825 2,-2 8,-26 7,-20 8,-20 5,-16 -20,-5 -5,16 -8,20 -8,20 -7,21 2,-3 16,15 2,-2 v 0 z"
   id="path386"
   inkscape:connector-curvature="0"
   style="fill:#000000;stroke:none" />
         <path
   d="m 9526,15759 -5,8 -8,30 10,26 18,18 23,7 23,3 25,-5 21,-8 18,-13 -16,-15 -12,8 -16,7 h -20 l -23,3 -13,-8 -7,-7 -5,-16 2,-25 -5,8 -10,-21 -5,3 v 5 z"
   id="path388"
   inkscape:connector-curvature="0"
   style="fill:#000000;stroke:none" />
         <path
   d="m 9541,15747 -2,2 -3,3 -5,5 v 0 l -5,2 10,21 5,-3 5,-5 5,-5 3,-3 -3,3 z"
   id="path390"
   inkscape:connector-curvature="0"
   style="fill:#000000;stroke:none" />
         <path
   d="m 9673,15574 v 0 l -7,20 -8,18 -12,23 -13,22 -15,21 -23,23 -26,23 -28,23 10,20 33,-28 26,-23 23,-23 20,-25 13,-23 13,-23 7,-23 8,-20 v 0 z"
   id="path392"
   inkscape:connector-curvature="0"
   style="fill:#000000;stroke:none" />
         <path
   d="m 9735,15449 -3,-13 -8,13 -15,38 -18,43 -18,44 21,5 18,-44 17,-43 16,-33 7,-13 -2,-12 2,12 5,-7 -7,-5 z"
   id="path394"
   inkscape:connector-curvature="0"
   style="fill:#000000;stroke:none" />
         <path
   d="m 9620,15235 v 0 l 8,23 10,26 10,30 15,31 16,30 15,28 20,26 21,20 15,-15 -21,-21 -15,-20 -15,-28 -15,-31 -16,-25 -10,-30 -10,-26 -8,-23 v 0 z"
   id="path396"
   inkscape:connector-curvature="0"
   style="fill:#000000;stroke:none" />
         <path
   d="m 9409,15111 v 20 h 36 l 33,8 35,10 31,15 28,18 23,18 15,18 10,17 20,-5 -10,-23 -20,-23 -28,-22 -28,-18 -36,-16 -35,-10 -38,-7 h -36 v 20 z"
   id="path398"
   inkscape:connector-curvature="0"
   style="fill:#000000;stroke:none" />
         <path
   d="m 9841,15004 h -2 l -31,10 -28,10 -30,8 -31,10 -30,8 -31,7 -30,10 -31,6 -28,7 -28,5 -25,8 -23,5 -26,3 -20,5 -20,2 -18,3 v 20 l 18,-3 20,-2 20,-5 26,-3 28,-5 25,-7 28,-5 28,-8 31,-5 30,-10 31,-8 30,-8 31,-10 30,-7 28,-11 31,-10 h -3 v -20 h -2 v 0 z"
   id="path400"
   inkscape:connector-curvature="0"
   style="fill:#000000;stroke:none" />
         <path
   d="m 10111,15052 v 0 l -33,-28 -38,-15 -41,-10 -41,-5 h -38 l -35,5 -26,2 -18,3 v 20 l 18,-2 26,-3 h 35 38 41 l 36,10 33,16 28,22 v 0 z"
   id="path402"
   inkscape:connector-curvature="0"
   style="fill:#000000;stroke:none" />
         <path
   d="m 10299,15095 v 0 l -10,8 -18,5 -23,5 h -28 l -25,-7 -28,-11 -28,-17 -28,-26 -15,15 28,26 33,23 33,10 30,8 h 28 l 28,-6 23,-5 15,-12 v 0 z"
   id="path404"
   inkscape:connector-curvature="0"
   style="fill:#000000;stroke:none" />
         <path
   d="m 10477,15121 v 0 l -18,-31 -23,-20 -25,-8 -28,-5 -25,8 -23,8 -21,10 -15,12 15,16 11,-8 15,-10 23,-8 20,-2 h 23 l 20,7 18,16 13,20 v 0 z"
   id="path406"
   inkscape:connector-curvature="0"
   style="fill:#000000;stroke:none" />
         <path
   d="m 10253,14716 -15,-17 -5,-41 8,-36 20,-12 15,2 10,5 5,16 v 28 l -2,30 -5,15 -10,10 z"
   id="path408"
   inkscape:connector-curvature="0"
   style="fill:#ffffff;stroke:none" />
         <path
   d="m 10261,14599 h 2 l -33,18 -10,41 8,43 25,28 v -25 l -5,-8 -2,-38 5,-31 7,-7 h 3 z"
   id="path410"
   inkscape:connector-curvature="0"
   style="fill:#000000;stroke:none" />
         <path
   d="m 10302,14661 v 0 -28 l -8,-21 -15,-10 -18,-3 v 21 l 13,2 h 5 l 2,11 v 28 0 z"
   id="path412"
   inkscape:connector-curvature="0"
   style="fill:#000000;stroke:none" />
         <path
   d="m 10253,14729 v -2 h 23 l 18,-16 5,-20 3,-30 h -21 l -2,30 -5,10 -3,5 h -18 v -2 z"
   id="path414"
   inkscape:connector-curvature="0"
   style="fill:#000000;stroke:none" />
         <path
   d="m 10174,14129 -2,18 2,15 8,10 10,5 13,5 h 10 l 13,-2 8,-5 7,28 -7,30 -21,28 -20,15 13,13 17,15 21,21 20,20 18,21 18,22 15,21 8,18 15,-3 23,-3 25,-5 31,-7 28,-8 25,-8 20,-5 11,-5 -8,-12 -10,-18 -10,-18 -16,-23 -15,-23 -15,-18 -15,-17 -13,-13 -15,-18 -8,-30 v -31 l 13,-23 15,-15 10,-18 v -18 l -2,-12 -6,-13 v -15 l 3,-16 8,-10 5,-7 2,-8 v -10 l -7,-5 -16,-8 -15,-10 -10,-18 v -23 -25 l -13,-23 -20,-21 -26,-15 -15,3 -20,7 -23,8 -20,13 -16,15 -7,18 5,23 18,28 v 30 l -5,41 -13,41 -10,22 -11,6 -12,7 -10,8 z"
   id="path416"
   inkscape:connector-curvature="0"
   style="fill:#ffffff;stroke:none" />
         <path
   d="m 10243,14170 -15,-3 -3,3 -10,2 h -7 l -11,-5 -7,-2 -5,-5 v -13 -15 l -21,-6 -5,21 5,18 10,15 13,7 15,6 h 13 l 15,-3 13,-8 -15,-2 15,-10 -7,-13 -8,10 z"
   id="path418"
   inkscape:connector-curvature="0"
   style="fill:#000000;stroke:none" />
         <path
   d="m 10202,14269 -5,18 26,-18 23,-31 10,-35 -13,-33 -15,10 2,23 -5,25 -17,26 -16,12 -5,18 5,-18 -20,8 15,10 z"
   id="path420"
   inkscape:connector-curvature="0"
   style="fill:#000000;stroke:none" />
         <path
   d="m 10325,14414 10,10 -8,-20 -18,-23 -18,-23 -17,-20 -21,-21 -20,-20 -18,-15 -13,-13 -15,15 13,13 18,15 20,20 20,21 18,20 18,23 13,18 7,15 11,10 -11,-10 3,10 h 8 z"
   id="path422"
   inkscape:connector-curvature="0"
   style="fill:#000000;stroke:none" />
         <path
   d="m 10492,14388 5,-15 -7,5 -21,5 -25,8 -28,8 -30,7 -23,5 -23,3 h -15 v 25 l 15,-5 23,-2 28,-5 30,-8 28,-8 26,-7 20,-5 13,-6 5,-15 -5,15 10,-7 -5,-8 z"
   id="path424"
   inkscape:connector-curvature="0"
   style="fill:#000000;stroke:none" />
         <path
   d="m 10396,14251 -3,-2 13,12 15,18 15,15 13,23 15,23 11,18 10,18 7,12 21,-10 -8,-12 -10,-18 -10,-18 -16,-23 -17,-23 -16,-20 -15,-18 -13,-13 -2,-2 2,2 -2,-2 v 0 z"
   id="path426"
   inkscape:connector-curvature="0"
   style="fill:#000000;stroke:none" />
         <path
   d="m 10386,14129 v 0 l -18,31 v 33 l 7,35 21,23 10,-20 -10,-13 -8,-25 v -28 l 8,-16 v 0 z"
   id="path428"
   inkscape:connector-curvature="0"
   style="fill:#000000;stroke:none" />
         <path
   d="m 10406,14083 -3,-2 3,7 v 16 l -8,12 -12,13 10,20 18,-17 12,-23 v -21 l -2,-18 -3,-2 z"
   id="path430"
   inkscape:connector-curvature="0"
   style="fill:#000000;stroke:none" />
         <path
   d="m 10411,14015 v 0 l -10,15 -3,18 v 15 l 8,20 15,-15 -2,-5 v -15 l 2,-13 5,-5 v 0 z"
   id="path432"
   inkscape:connector-curvature="0"
   style="fill:#000000;stroke:none" />
         <path
   d="m 10416,14002 v 0 0 5 l -2,2 -3,6 15,15 8,-10 2,-13 v -15 l -15,-11 v 0 z"
   id="path434"
   inkscape:connector-curvature="0"
   style="fill:#000000;stroke:none" />
         <path
   d="m 10368,13931 v 0 28 l 12,22 18,13 18,8 5,-21 -13,-7 -12,-8 -8,-13 v -17 0 z"
   id="path436"
   inkscape:connector-curvature="0"
   style="fill:#000000;stroke:none" />
         <path
   d="m 10319,13859 h -2 l 20,13 21,20 10,18 v 21 l 20,5 v -31 l -15,-28 -21,-20 -30,-18 h -3 3 l -3,-2 v 2 z"
   id="path438"
   inkscape:connector-curvature="0"
   style="fill:#000000;stroke:none" />
         <path
   d="m 10251,13961 -3,-5 -15,-25 -5,-18 8,-13 12,-13 18,-10 20,-7 21,-8 12,-3 v -20 l -17,3 -21,7 -25,8 -23,15 -18,18 -7,23 5,28 20,30 -3,-5 21,-5 v -2 l -3,-3 z"
   id="path440"
   inkscape:connector-curvature="0"
   style="fill:#000000;stroke:none" />
         <path
   d="m 10218,14109 2,-3 13,-28 13,-41 5,-43 v -33 l -21,5 v 28 l -5,38 -12,41 -8,18 3,-3 10,21 v 0 l 2,-3 z"
   id="path442"
   inkscape:connector-curvature="0"
   style="fill:#000000;stroke:none" />
         <path
   d="m 10185,14132 2,-3 v -3 l 8,-5 13,-7 10,-5 -10,-21 -11,5 -12,8 -13,10 -10,18 2,-3 21,6 2,-3 v 0 z"
   id="path444"
   inkscape:connector-curvature="0"
   style="fill:#000000;stroke:none" />
         <path
   d="m 10098,13806 -41,-46 -5,8 -10,15 -12,20 -8,21 -5,13 -5,17 -5,21 -3,23 v 22 l 8,18 15,15 25,8 3,-25 2,-46 13,-48 z"
   id="path446"
   inkscape:connector-curvature="0"
   style="fill:#e50019;stroke:none" />
         <path
   d="m 10065,13765 -15,3 41,46 15,-16 -41,-45 -15,2 15,-2 -8,-11 -7,13 z"
   id="path448"
   inkscape:connector-curvature="0"
   style="fill:#000000;stroke:none" />
         <path
   d="m 10032,13826 v 0 l 8,-17 12,-21 11,-15 2,-8 -15,-10 -8,8 -10,15 -13,20 -7,23 v 0 z"
   id="path450"
   inkscape:connector-curvature="0"
   style="fill:#000000;stroke:none" />
         <path
   d="m 10042,13961 10,-10 -20,-8 -10,-10 -8,-13 3,-22 v -23 l 5,-18 5,-18 5,-13 -20,-5 -5,13 -5,18 -6,23 -5,23 3,22 8,23 20,21 30,7 11,-10 -11,10 11,3 v -13 z"
   id="path452"
   inkscape:connector-curvature="0"
   style="fill:#000000;stroke:none" />
         <path
   d="m 10091,13814 2,-18 -33,41 -13,53 -2,46 -3,25 h 21 l 2,-25 3,-46 12,-43 23,-31 3,-18 -3,18 13,-10 -10,-8 z"
   id="path454"
   inkscape:connector-curvature="0"
   style="fill:#000000;stroke:none" />
         <path
   d="m 11240,14813 -15,20 -18,23 -18,18 -23,-2 -12,-8 -16,-10 -17,-13 -18,-10 -16,-13 -15,-10 -10,-10 -8,-8 -2,-12 7,-21 11,-25 12,-26 16,-15 15,3 13,12 12,10 z"
   id="path456"
   inkscape:connector-curvature="0"
   style="fill:#ffffff;stroke:none" />
         <path
   d="m 11161,14882 v 0 l 31,2 23,-20 17,-23 16,-20 -16,-16 -15,21 -18,23 -12,15 -16,-3 v 0 z"
   id="path458"
   inkscape:connector-curvature="0"
   style="fill:#000000;stroke:none" />
         <path
   d="m 11044,14795 v 0 l 10,10 11,11 17,10 16,15 17,10 18,13 15,10 13,8 10,-21 -12,-7 -16,-10 -17,-13 -18,-10 -15,-10 -13,-11 -10,-10 -5,-5 v 0 z"
   id="path460"
   inkscape:connector-curvature="0"
   style="fill:#000000;stroke:none" />
         <path
   d="m 11072,14701 v 0 l -13,26 -10,28 -7,23 2,17 21,-10 -3,-7 8,-18 10,-23 13,-26 v 0 z"
   id="path462"
   inkscape:connector-curvature="0"
   style="fill:#000000;stroke:none" />
         <path
   d="m 11146,14709 v 0 l -13,-10 -15,-16 -23,-2 -23,20 21,10 7,-10 8,3 10,10 13,10 v 0 z"
   id="path464"
   inkscape:connector-curvature="0"
   style="fill:#000000;stroke:none" />
         <path
   d="m 11248,14821 v -16 l -102,-96 -15,15 101,97 v -16 l 16,16 7,-8 -7,-8 z"
   id="path466"
   inkscape:connector-curvature="0"
   style="fill:#000000;stroke:none" />
         <path
   d="m 11197,14307 2,-13 -2,-12 -13,-13 -15,-13 -18,-7 -18,-3 -18,3 -12,10 -3,12 3,13 10,15 23,18 25,10 18,3 10,-8 z"
   id="path468"
   inkscape:connector-curvature="0"
   style="fill:#ffffff;stroke:none" />
         <path
   d="m 11113,14264 v 0 l 5,-5 h 15 15 l 16,7 12,10 11,11 v 7 l 2,8 15,10 8,-18 -5,-18 -15,-15 -18,-15 -20,-8 -21,-5 -20,5 -20,16 v 0 z"
   id="path470"
   inkscape:connector-curvature="0"
   style="fill:#000000;stroke:none" />
         <path
   d="m 11141,14307 v 0 l -20,-15 -8,-13 v -8 -7 l -20,-10 -6,17 6,18 12,18 26,20 v 0 z"
   id="path472"
   inkscape:connector-curvature="0"
   style="fill:#000000;stroke:none" />
         <path
   d="m 11189,14302 -2,2 -5,11 -3,5 -15,-3 -23,-10 -10,20 28,11 20,2 18,-10 10,-20 -3,2 -15,-10 h -2 v 2 z"
   id="path474"
   inkscape:connector-curvature="0"
   style="fill:#000000;stroke:none" />
         <path
   d="m 9742,15441 13,10 15,8 13,10 13,5 12,5 16,6 12,2 h 13 z"
   id="path476"
   inkscape:connector-curvature="0"
   style="fill:#ffffff;stroke:none" />
         <path
   d="m 9750,15434 -8,-8 -15,15 8,8 z"
   id="path478"
   inkscape:connector-curvature="0"
   style="fill:#000000;stroke:none" />
         <path
   d="m 9849,15474 -13,3 -10,-3 -15,-5 -13,-5 -10,-5 -13,-10 -15,-8 -10,-7 -15,15 15,13 15,7 13,10 15,6 13,5 15,5 15,2 13,3 z"
   id="path480"
   inkscape:connector-curvature="0"
   style="fill:#000000;stroke:none" />
         <path
   d="m 9849,15500 h 13 v -26 h -13 z"
   id="path482"
   inkscape:connector-curvature="0"
   style="fill:#000000;stroke:none" />
         <path
   d="m 10187,15385 33,-7 51,-10 64,-8 68,-5 66,2 59,8 41,23 20,33 z"
   id="path484"
   inkscape:connector-curvature="0"
   style="fill:#ffffff;stroke:none" />
         <path
   d="m 10185,15375 -11,3 6,20 10,-2 z"
   id="path486"
   inkscape:connector-curvature="0"
   style="fill:#000000;stroke:none" />
         <path
   d="m 10599,15421 -23,-41 -45,-25 -62,-8 -66,-5 -68,8 -64,7 -53,11 -33,7 5,21 33,-8 48,-10 64,-8 68,-2 h 66 l 56,7 36,21 18,25 z"
   id="path488"
   inkscape:connector-curvature="0"
   style="fill:#000000;stroke:none" />
         <path
   d="m 10579,15421 v 10 h 20 v -10 z"
   id="path490"
   inkscape:connector-curvature="0"
   style="fill:#000000;stroke:none" />
         <path
   d="m 10297,15451 5,-20 5,-25 5,-23 2,-15 z"
   id="path492"
   inkscape:connector-curvature="0"
   style="fill:#ffffff;stroke:none" />
         <path
   d="m 10286,15449 -2,10 20,5 3,-10 z"
   id="path494"
   inkscape:connector-curvature="0"
   style="fill:#000000;stroke:none" />
         <path
   d="m 10302,15368 v 15 l -5,20 -6,26 -5,20 21,5 5,-20 5,-26 5,-25 5,-15 z"
   id="path496"
   inkscape:connector-curvature="0"
   style="fill:#000000;stroke:none" />
         <path
   d="m 10327,15368 v -13 h -25 v 13 z"
   id="path498"
   inkscape:connector-curvature="0"
   style="fill:#000000;stroke:none" />
         <path
   d="m 10228,14167 -8,8 16,15 7,-8 z"
   id="path500"
   inkscape:connector-curvature="0"
   style="fill:#000000;stroke:none" />
         <path
   d="m 10213,14109 10,5 7,18 v 22 l -2,13 15,15 8,-28 v -28 l -13,-28 -25,-10 z"
   id="path502"
   inkscape:connector-curvature="0"
   style="fill:#000000;stroke:none" />
         <path
   d="m 10213,14088 h -11 v 21 h 11 z"
   id="path504"
   inkscape:connector-curvature="0"
   style="fill:#000000;stroke:none" />
        </g>
       </g>
      </g>
     </g>
    </g>
   </g>
  </g>
 </g>
</svg>