<?xml version="1.0" encoding="UTF-8" standalone="no"?>
<svg
   xmlns:ooo="http://xml.openoffice.org/svg/export"
   xmlns:dc="http://purl.org/dc/elements/1.1/"
   xmlns:cc="http://creativecommons.org/ns#"
   xmlns:rdf="http://www.w3.org/1999/02/22-rdf-syntax-ns#"
   xmlns:svg="http://www.w3.org/2000/svg"
   xmlns="http://www.w3.org/2000/svg"
   xmlns:sodipodi="http://sodipodi.sourceforge.net/DTD/sodipodi-0.dtd"
   xmlns:inkscape="http://www.inkscape.org/namespaces/inkscape"
   version="1.2"
   width="15.49mm"
   height="26.039999mm"
   viewBox="0 0 1549 2603.9999"
   preserveAspectRatio="xMidYMid"
   xml:space="preserve"
   id="svg115"
   sodipodi:docname="dancer1.svg"
   style="fill-rule:evenodd;stroke-width:28.22200012;stroke-linejoin:round"
   inkscape:version="0.92.5 (2060ec1f9f, 2020-04-08)"><metadata
   id="metadata119"><rdf:RDF><cc:Work
       rdf:about=""><dc:format>image/svg+xml</dc:format><dc:type
         rdf:resource="http://purl.org/dc/dcmitype/StillImage" /></cc:Work></rdf:RDF></metadata><sodipodi:namedview
   pagecolor="#ffffff"
   bordercolor="#666666"
   borderopacity="1"
   objecttolerance="10"
   gridtolerance="10"
   guidetolerance="10"
   inkscape:pageopacity="0"
   inkscape:pageshadow="2"
   inkscape:window-width="664"
   inkscape:window-height="487"
   id="namedview117"
   showgrid="false"
   inkscape:zoom="0.2102413"
   inkscape:cx="29.29134"
   inkscape:cy="49.209447"
   inkscape:window-x="0"
   inkscape:window-y="0"
   inkscape:window-maximized="0"
   inkscape:current-layer="svg115" />
 <defs
   class="ClipPathGroup"
   id="defs8">
  <clipPath
   id="presentation_clip_path"
   clipPathUnits="userSpaceOnUse">
   <rect
   x="0"
   y="0"
   width="21000"
   height="29700"
   id="rect2" />
  </clipPath>
  <clipPath
   id="presentation_clip_path_shrink"
   clipPathUnits="userSpaceOnUse">
   <rect
   x="21"
   y="29"
   width="20958"
   height="29641"
   id="rect5" />
  </clipPath>
 </defs>
 <defs
   class="TextShapeIndex"
   id="defs12">
  <g
   ooo:slide="id1"
   ooo:id-list="id3"
   id="g10" />
 </defs>
 <defs
   class="EmbeddedBulletChars"
   id="defs44">
  <g
   id="bullet-char-template-57356"
   transform="matrix(4.8828125e-4,0,0,-4.8828125e-4,0,0)">
   <path
   d="M 580,1141 1163,571 580,0 -4,571 Z"
   id="path14"
   inkscape:connector-curvature="0" />
  </g>
  <g
   id="bullet-char-template-57354"
   transform="matrix(4.8828125e-4,0,0,-4.8828125e-4,0,0)">
   <path
   d="M 8,1128 H 1137 V 0 H 8 Z"
   id="path17"
   inkscape:connector-curvature="0" />
  </g>
  <g
   id="bullet-char-template-10146"
   transform="matrix(4.8828125e-4,0,0,-4.8828125e-4,0,0)">
   <path
   d="M 174,0 602,739 174,1481 1456,739 Z M 1358,739 309,1346 659,739 Z"
   id="path20"
   inkscape:connector-curvature="0" />
  </g>
  <g
   id="bullet-char-template-10132"
   transform="matrix(4.8828125e-4,0,0,-4.8828125e-4,0,0)">
   <path
   d="M 2015,739 1276,0 H 717 l 543,543 H 174 v 393 h 1086 l -543,545 h 557 z"
   id="path23"
   inkscape:connector-curvature="0" />
  </g>
  <g
   id="bullet-char-template-10007"
   transform="matrix(4.8828125e-4,0,0,-4.8828125e-4,0,0)">
   <path
   d="m 0,-2 c -7,16 -16,29 -25,39 l 381,530 c -94,256 -141,385 -141,387 0,25 13,38 40,38 9,0 21,-2 34,-5 21,4 42,12 65,25 l 27,-13 111,-251 280,301 64,-25 24,25 c 21,-10 41,-24 62,-43 C 886,937 835,863 770,784 769,783 710,716 594,584 L 774,223 c 0,-27 -21,-55 -63,-84 l 16,-20 C 717,90 699,76 672,76 641,76 570,178 457,381 L 164,-76 c -22,-34 -53,-51 -92,-51 -42,0 -63,17 -64,51 -7,9 -10,24 -10,44 0,9 1,19 2,30 z"
   id="path26"
   inkscape:connector-curvature="0" />
  </g>
  <g
   id="bullet-char-template-10004"
   transform="matrix(4.8828125e-4,0,0,-4.8828125e-4,0,0)">
   <path
   d="M 285,-33 C 182,-33 111,30 74,156 52,228 41,333 41,471 c 0,78 14,145 41,201 34,71 87,106 158,106 53,0 88,-31 106,-94 l 23,-176 c 8,-64 28,-97 59,-98 l 735,706 c 11,11 33,17 66,17 42,0 63,-15 63,-46 V 965 c 0,-36 -10,-64 -30,-84 L 442,47 C 390,-6 338,-33 285,-33 Z"
   id="path29"
   inkscape:connector-curvature="0" />
  </g>
  <g
   id="bullet-char-template-9679"
   transform="matrix(4.8828125e-4,0,0,-4.8828125e-4,0,0)">
   <path
   d="M 813,0 C 632,0 489,54 383,161 276,268 223,411 223,592 c 0,181 53,324 160,431 106,107 249,161 430,161 179,0 323,-54 432,-161 108,-107 162,-251 162,-431 0,-180 -54,-324 -162,-431 C 1136,54 992,0 813,0 Z"
   id="path32"
   inkscape:connector-curvature="0" />
  </g>
  <g
   id="bullet-char-template-8226"
   transform="matrix(4.8828125e-4,0,0,-4.8828125e-4,0,0)">
   <path
   d="m 346,457 c -73,0 -137,26 -191,78 -54,51 -81,114 -81,188 0,73 27,136 81,188 54,52 118,78 191,78 73,0 134,-26 185,-79 51,-51 77,-114 77,-187 0,-75 -25,-137 -76,-188 -50,-52 -112,-78 -186,-78 z"
   id="path35"
   inkscape:connector-curvature="0" />
  </g>
  <g
   id="bullet-char-template-8211"
   transform="matrix(4.8828125e-4,0,0,-4.8828125e-4,0,0)">
   <path
   d="M -4,459 H 1135 V 606 H -4 Z"
   id="path38"
   inkscape:connector-curvature="0" />
  </g>
  <g
   id="bullet-char-template-61548"
   transform="matrix(4.8828125e-4,0,0,-4.8828125e-4,0,0)">
   <path
   d="m 173,740 c 0,163 58,303 173,419 116,115 255,173 419,173 163,0 302,-58 418,-173 116,-116 174,-256 174,-419 0,-163 -58,-303 -174,-418 C 1067,206 928,148 765,148 601,148 462,206 346,322 231,437 173,577 173,740 Z"
   id="path41"
   inkscape:connector-curvature="0" />
  </g>
 </defs>
 <g
   id="g49"
   transform="translate(-9725,-13548)">
  <g
   id="id2"
   class="Master_Slide">
   <g
   id="bg-id2"
   class="Background" />
   <g
   id="bo-id2"
   class="BackgroundObjects" />
  </g>
 </g>
 <g
   class="SlideGroup"
   id="g113"
   transform="translate(-9725,-13548)">
  <g
   id="g111">
   <g
   id="container-id1">
    <g
   id="id1"
   class="Slide"
   clip-path="url(#presentation_clip_path)">
     <g
   class="Page"
   id="g107">
      <g
   class="Graphic"
   id="g105">
       <g
   id="id3">
        <rect
   class="BoundingBox"
   x="9725"
   y="13548"
   width="1549"
   height="2604"
   id="rect51"
   style="fill:none;stroke:none" />
        <defs
   id="defs56">
         <clipPath
   id="clip_path_1"
   clipPathUnits="userSpaceOnUse">
          <path
   d="m 9725,13548 h 1548 v 2603 H 9725 Z"
   id="path53"
   inkscape:connector-curvature="0" />
         </clipPath>
        </defs>
        <g
   clip-path="url(#clip_path_1)"
   id="g102">
         <path
   d="m 10175,14690 300,40 v 54 l -292,18 z"
   id="path58"
   inkscape:connector-curvature="0"
   style="fill:#000000;stroke:none" />
         <path
   d="m 10150,14766 -36,239 234,-23 191,94 -28,-246 z"
   id="path60"
   inkscape:connector-curvature="0"
   style="fill:#007fff;stroke:none" />
         <path
   d="m 10208,14275 168,-7 295,132 -160,353 -321,-96 z"
   id="path62"
   inkscape:connector-curvature="0"
   style="fill:#ffcc00;stroke:none" />
         <path
   d="m 10267,14326 -66,92 -247,-250 74,-89 38,74 127,56 z"
   id="path64"
   inkscape:connector-curvature="0"
   style="fill:#ff007f;stroke:none" />
         <path
   d="m 10630,14410 -73,76 229,260 61,-84 -46,-38 -8,-127 z"
   id="path66"
   inkscape:connector-curvature="0"
   style="fill:#ff7f00;stroke:none" />
         <path
   d="m 9906,14054 15,-214 53,18 31,209 z"
   id="path68"
   inkscape:connector-curvature="0"
   style="fill:#007fff;stroke:none" />
         <path
   d="m 10844,14804 229,-18 -33,-58 -196,-33 z"
   id="path70"
   inkscape:connector-curvature="0"
   style="fill:#000000;stroke:none" />
         <path
   d="m 10262,14860 20,209 -514,-150 -43,-46 18,-56 71,-71 z"
   id="path72"
   inkscape:connector-curvature="0"
   style="fill:#ff7f00;stroke:none" />
         <path
   d="m 10534,14903 -168,69 173,458 46,40 86,-35 21,-48 z"
   id="path74"
   inkscape:connector-curvature="0"
   style="fill:#ff007f;stroke:none" />
         <path
   d="m 9827,14903 -84,69 208,275 105,-10 -87,-130 -10,-87 z"
   id="path76"
   inkscape:connector-curvature="0"
   style="fill:#000000;stroke:none" />
         <path
   d="m 10557,15516 109,10 79,331 -69,84 -63,-165 -38,-36 z"
   id="path78"
   inkscape:connector-curvature="0"
   style="fill:#000000;stroke:none" />
         <path
   d="m 9974,15323 -25,196 41,58 117,-104 -11,-104 23,-89 -81,-26 z"
   id="path80"
   inkscape:connector-curvature="0"
   style="fill:#ff007f;stroke:none" />
         <path
   d="m 10760,15943 216,97 26,59 -148,53 -94,-58 -81,7 7,-107 z"
   id="path82"
   inkscape:connector-curvature="0"
   style="fill:#007fff;stroke:none" />
         <path
   d="m 10491,13968 -125,71 -13,91 33,36 -2,15 -5,41 -13,46 -15,38 15,40 20,23 26,13 28,3 23,-3 20,-8 15,-5 5,-2 v -89 l 51,2 31,-25 23,-48 30,-3 8,-94 15,-69 z"
   id="path84"
   inkscape:connector-curvature="0"
   style="fill:#000000;stroke:none" />
         <path
   d="m 10422,14059 -13,20 -2,-7 -11,-15 -15,-16 -25,-7 h -23 l -18,2 h -15 l -10,-10 -3,-18 8,-18 5,-15 -10,-10 -21,-8 -17,-5 -11,-2 -5,-3 23,-40 8,2 18,3 17,7 16,13 5,13 -3,15 -2,15 -3,13 3,10 10,5 15,3 15,2 18,5 18,8 18,18 z"
   id="path86"
   inkscape:connector-curvature="0"
   style="fill:#7f00ff;stroke:none" />
         <path
   d="m 10465,14039 -18,18 v -8 l -5,-18 -12,-20 -23,-15 -26,-6 -20,-2 h -15 l -11,-13 v -20 l 11,-20 2,-18 -7,-16 -21,-12 -18,-10 -10,-5 -5,-3 41,-36 7,5 16,11 18,17 10,16 5,15 v 15 l -3,15 -5,13 v 10 l 10,8 13,8 18,5 18,10 15,13 13,20 z"
   id="path88"
   inkscape:connector-curvature="0"
   style="fill:#7f00ff;stroke:none" />
         <path
   d="m 10513,14031 -30,13 3,-8 2,-20 -5,-23 -18,-23 -25,-13 -23,-10 -13,-7 -5,-16 8,-17 12,-18 8,-15 -8,-18 -17,-18 -13,-18 -10,-10 -3,-5 64,-23 5,8 10,17 13,21 7,20 3,15 -3,18 -5,13 -10,13 -5,10 5,12 13,11 15,12 15,13 13,18 5,23 z"
   id="path90"
   inkscape:connector-curvature="0"
   style="fill:#7f00ff;stroke:none" />
         <path
   d="m 10562,14036 -33,5 5,-7 10,-18 8,-23 -8,-25 -18,-21 -18,-12 -10,-11 3,-15 15,-18 18,-17 13,-18 v -21 l -8,-20 -8,-15 -2,-10 -3,-6 h 64 l 2,8 8,18 5,20 v 21 l -5,17 -8,16 -12,15 -13,8 -10,7 v 13 l 5,13 10,15 10,18 3,20 -5,20 z"
   id="path92"
   inkscape:connector-curvature="0"
   style="fill:#7f00ff;stroke:none" />
         <path
   d="m 10605,14054 -33,-5 8,-5 20,-13 15,-20 5,-26 -10,-22 -10,-18 -5,-16 10,-12 20,-13 18,-10 13,-13 8,-20 v -23 -20 l -3,-16 v -5 l 71,21 v 7 l 3,18 -3,23 -10,18 -15,15 -15,13 -16,10 -18,5 -10,5 -2,13 2,18 5,17 v 18 l -5,20 -15,21 z"
   id="path94"
   inkscape:connector-curvature="0"
   style="fill:#7f00ff;stroke:none" />
         <path
   d="m 10409,14092 -5,23 -5,-5 -13,-13 -23,-10 -25,-2 -23,7 -18,8 -12,5 -13,-8 -8,-15 5,-18 v -15 l -12,-8 h -21 l -18,-5 -10,-2 h -5 l 13,-44 h 8 l 15,3 18,5 17,5 8,13 3,13 v 15 l -3,13 5,7 13,3 h 15 l 18,-3 10,-2 h 8 l 10,2 10,3 10,2 10,5 11,8 z"
   id="path96"
   inkscape:connector-curvature="0"
   style="fill:#7f00ff;stroke:none" />
         <path
   d="m 11091,14723 107,-61 76,89 -66,117 -69,-33 18,-28 43,-10 8,-31 -102,38 z"
   id="path98"
   inkscape:connector-curvature="0"
   style="fill:#ff007f;stroke:none" />
         <path
   d="m 9926,13818 102,-34 23,-33 -59,-17 43,-105 -20,-35 -56,89 25,-122 -33,-13 -25,135 -10,-122 -43,2 20,135 -41,-107 -28,-5 49,181 z"
   id="path100"
   inkscape:connector-curvature="0"
   style="fill:#000000;stroke:none" />
        </g>
       </g>
      </g>
     </g>
    </g>
   </g>
  </g>
 </g>
</svg>