<?xml version="1.0" encoding="UTF-8" standalone="no"?>
<svg
   xmlns:ooo="http://xml.openoffice.org/svg/export"
   xmlns:dc="http://purl.org/dc/elements/1.1/"
   xmlns:cc="http://creativecommons.org/ns#"
   xmlns:rdf="http://www.w3.org/1999/02/22-rdf-syntax-ns#"
   xmlns:svg="http://www.w3.org/2000/svg"
   xmlns="http://www.w3.org/2000/svg"
   xmlns:sodipodi="http://sodipodi.sourceforge.net/DTD/sodipodi-0.dtd"
   xmlns:inkscape="http://www.inkscape.org/namespaces/inkscape"
   version="1.2"
   width="26.34mm"
   height="41.450001mm"
   viewBox="0 0 2634 4145.0001"
   preserveAspectRatio="xMidYMid"
   xml:space="preserve"
   id="svg153"
   sodipodi:docname="desert1.svg"
   style="fill-rule:evenodd;stroke-width:28.22200012;stroke-linejoin:round"
   inkscape:version="0.92.5 (2060ec1f9f, 2020-04-08)"><metadata
   id="metadata157"><rdf:RDF><cc:Work
       rdf:about=""><dc:format>image/svg+xml</dc:format><dc:type
         rdf:resource="http://purl.org/dc/dcmitype/StillImage" /></cc:Work></rdf:RDF></metadata><sodipodi:namedview
   pagecolor="#ffffff"
   bordercolor="#666666"
   borderopacity="1"
   objecttolerance="10"
   gridtolerance="10"
   guidetolerance="10"
   inkscape:pageopacity="0"
   inkscape:pageshadow="2"
   inkscape:window-width="664"
   inkscape:window-height="487"
   id="namedview155"
   showgrid="false"
   inkscape:zoom="0.2102413"
   inkscape:cx="49.776379"
   inkscape:cy="78.311809"
   inkscape:window-x="0"
   inkscape:window-y="0"
   inkscape:window-maximized="0"
   inkscape:current-layer="svg153" />
 <defs
   class="ClipPathGroup"
   id="defs8">
  <clipPath
   id="presentation_clip_path"
   clipPathUnits="userSpaceOnUse">
   <rect
   x="0"
   y="0"
   width="21000"
   height="29700"
   id="rect2" />
  </clipPath>
  <clipPath
   id="presentation_clip_path_shrink"
   clipPathUnits="userSpaceOnUse">
   <rect
   x="21"
   y="29"
   width="20958"
   height="29641"
   id="rect5" />
  </clipPath>
 </defs>
 <defs
   class="TextShapeIndex"
   id="defs12">
  <g
   ooo:slide="id1"
   ooo:id-list="id3"
   id="g10" />
 </defs>
 <defs
   class="EmbeddedBulletChars"
   id="defs44">
  <g
   id="bullet-char-template-57356"
   transform="matrix(4.8828125e-4,0,0,-4.8828125e-4,0,0)">
   <path
   d="M 580,1141 1163,571 580,0 -4,571 Z"
   id="path14"
   inkscape:connector-curvature="0" />
  </g>
  <g
   id="bullet-char-template-57354"
   transform="matrix(4.8828125e-4,0,0,-4.8828125e-4,0,0)">
   <path
   d="M 8,1128 H 1137 V 0 H 8 Z"
   id="path17"
   inkscape:connector-curvature="0" />
  </g>
  <g
   id="bullet-char-template-10146"
   transform="matrix(4.8828125e-4,0,0,-4.8828125e-4,0,0)">
   <path
   d="M 174,0 602,739 174,1481 1456,739 Z M 1358,739 309,1346 659,739 Z"
   id="path20"
   inkscape:connector-curvature="0" />
  </g>
  <g
   id="bullet-char-template-10132"
   transform="matrix(4.8828125e-4,0,0,-4.8828125e-4,0,0)">
   <path
   d="M 2015,739 1276,0 H 717 l 543,543 H 174 v 393 h 1086 l -543,545 h 557 z"
   id="path23"
   inkscape:connector-curvature="0" />
  </g>
  <g
   id="bullet-char-template-10007"
   transform="matrix(4.8828125e-4,0,0,-4.8828125e-4,0,0)">
   <path
   d="m 0,-2 c -7,16 -16,29 -25,39 l 381,530 c -94,256 -141,385 -141,387 0,25 13,38 40,38 9,0 21,-2 34,-5 21,4 42,12 65,25 l 27,-13 111,-251 280,301 64,-25 24,25 c 21,-10 41,-24 62,-43 C 886,937 835,863 770,784 769,783 710,716 594,584 L 774,223 c 0,-27 -21,-55 -63,-84 l 16,-20 C 717,90 699,76 672,76 641,76 570,178 457,381 L 164,-76 c -22,-34 -53,-51 -92,-51 -42,0 -63,17 -64,51 -7,9 -10,24 -10,44 0,9 1,19 2,30 z"
   id="path26"
   inkscape:connector-curvature="0" />
  </g>
  <g
   id="bullet-char-template-10004"
   transform="matrix(4.8828125e-4,0,0,-4.8828125e-4,0,0)">
   <path
   d="M 285,-33 C 182,-33 111,30 74,156 52,228 41,333 41,471 c 0,78 14,145 41,201 34,71 87,106 158,106 53,0 88,-31 106,-94 l 23,-176 c 8,-64 28,-97 59,-98 l 735,706 c 11,11 33,17 66,17 42,0 63,-15 63,-46 V 965 c 0,-36 -10,-64 -30,-84 L 442,47 C 390,-6 338,-33 285,-33 Z"
   id="path29"
   inkscape:connector-curvature="0" />
  </g>
  <g
   id="bullet-char-template-9679"
   transform="matrix(4.8828125e-4,0,0,-4.8828125e-4,0,0)">
   <path
   d="M 813,0 C 632,0 489,54 383,161 276,268 223,411 223,592 c 0,181 53,324 160,431 106,107 249,161 430,161 179,0 323,-54 432,-161 108,-107 162,-251 162,-431 0,-180 -54,-324 -162,-431 C 1136,54 992,0 813,0 Z"
   id="path32"
   inkscape:connector-curvature="0" />
  </g>
  <g
   id="bullet-char-template-8226"
   transform="matrix(4.8828125e-4,0,0,-4.8828125e-4,0,0)">
   <path
   d="m 346,457 c -73,0 -137,26 -191,78 -54,51 -81,114 -81,188 0,73 27,136 81,188 54,52 118,78 191,78 73,0 134,-26 185,-79 51,-51 77,-114 77,-187 0,-75 -25,-137 -76,-188 -50,-52 -112,-78 -186,-78 z"
   id="path35"
   inkscape:connector-curvature="0" />
  </g>
  <g
   id="bullet-char-template-8211"
   transform="matrix(4.8828125e-4,0,0,-4.8828125e-4,0,0)">
   <path
   d="M -4,459 H 1135 V 606 H -4 Z"
   id="path38"
   inkscape:connector-curvature="0" />
  </g>
  <g
   id="bullet-char-template-61548"
   transform="matrix(4.8828125e-4,0,0,-4.8828125e-4,0,0)">
   <path
   d="m 173,740 c 0,163 58,303 173,419 116,115 255,173 419,173 163,0 302,-58 418,-173 116,-116 174,-256 174,-419 0,-163 -58,-303 -174,-418 C 1067,206 928,148 765,148 601,148 462,206 346,322 231,437 173,577 173,740 Z"
   id="path41"
   inkscape:connector-curvature="0" />
  </g>
 </defs>
 <g
   id="g49"
   transform="translate(-9183,-12777)">
  <g
   id="id2"
   class="Master_Slide">
   <g
   id="bg-id2"
   class="Background" />
   <g
   id="bo-id2"
   class="BackgroundObjects" />
  </g>
 </g>
 <g
   class="SlideGroup"
   id="g151"
   transform="translate(-9183,-12777)">
  <g
   id="g149">
   <g
   id="container-id1">
    <g
   id="id1"
   class="Slide"
   clip-path="url(#presentation_clip_path)">
     <g
   class="Page"
   id="g145">
      <g
   class="Graphic"
   id="g143">
       <g
   id="id3">
        <rect
   class="BoundingBox"
   x="9183"
   y="12777"
   width="2634"
   height="4145"
   id="rect51"
   style="fill:none;stroke:none" />
        <defs
   id="defs56">
         <clipPath
   id="clip_path_1"
   clipPathUnits="userSpaceOnUse">
          <path
   d="m 9183,12777 h 2633 v 4144 H 9183 Z"
   id="path53"
   inkscape:connector-curvature="0" />
         </clipPath>
        </defs>
        <g
   clip-path="url(#clip_path_1)"
   id="g140">
         <path
   d="M 11817,16917 V 12777 H 9183 v 4140 z"
   id="path58"
   inkscape:connector-curvature="0"
   style="fill:#fff9c6;stroke:none" />
         <path
   d="m 11619,12955 198,173 v -351 z"
   id="path60"
   inkscape:connector-curvature="0"
   style="fill:#ff3f4c;stroke:none" />
         <path
   d="m 11619,13712 198,173 v -351 z"
   id="path62"
   inkscape:connector-curvature="0"
   style="fill:#ff3f4c;stroke:none" />
         <path
   d="m 11619,13334 198,172 v -350 z"
   id="path64"
   inkscape:connector-curvature="0"
   style="fill:#e0b719;stroke:none" />
         <path
   d="m 11619,14470 198,172 v -350 z"
   id="path66"
   inkscape:connector-curvature="0"
   style="fill:#ff3f4c;stroke:none" />
         <path
   d="m 11619,14091 198,173 v -351 z"
   id="path68"
   inkscape:connector-curvature="0"
   style="fill:#e0b719;stroke:none" />
         <path
   d="m 11619,15224 198,173 v -351 z"
   id="path70"
   inkscape:connector-curvature="0"
   style="fill:#ff3f4c;stroke:none" />
         <path
   d="m 11619,14848 198,173 v -351 z"
   id="path72"
   inkscape:connector-curvature="0"
   style="fill:#e0b719;stroke:none" />
         <path
   d="m 11619,15982 198,173 v -351 z"
   id="path74"
   inkscape:connector-curvature="0"
   style="fill:#ff3f4c;stroke:none" />
         <path
   d="m 11619,15603 198,173 v -351 z"
   id="path76"
   inkscape:connector-curvature="0"
   style="fill:#e0b719;stroke:none" />
         <path
   d="m 11619,16739 198,173 v -351 z"
   id="path78"
   inkscape:connector-curvature="0"
   style="fill:#ff3f4c;stroke:none" />
         <path
   d="m 11619,16360 198,173 v -351 z"
   id="path80"
   inkscape:connector-curvature="0"
   style="fill:#e0b719;stroke:none" />
         <path
   d="m 9381,12955 -198,173 v -351 z"
   id="path82"
   inkscape:connector-curvature="0"
   style="fill:#ff3f4c;stroke:none" />
         <path
   d="m 9381,13712 -198,173 v -351 z"
   id="path84"
   inkscape:connector-curvature="0"
   style="fill:#ff3f4c;stroke:none" />
         <path
   d="m 9384,13334 -201,172 v -350 z"
   id="path86"
   inkscape:connector-curvature="0"
   style="fill:#e0b719;stroke:none" />
         <path
   d="m 9381,14470 -198,172 v -350 z"
   id="path88"
   inkscape:connector-curvature="0"
   style="fill:#ff3f4c;stroke:none" />
         <path
   d="m 9384,14091 -201,173 v -351 z"
   id="path90"
   inkscape:connector-curvature="0"
   style="fill:#e0b719;stroke:none" />
         <path
   d="m 9381,15224 -198,173 v -351 z"
   id="path92"
   inkscape:connector-curvature="0"
   style="fill:#ff3f4c;stroke:none" />
         <path
   d="m 9384,14848 -201,173 v -351 z"
   id="path94"
   inkscape:connector-curvature="0"
   style="fill:#e0b719;stroke:none" />
         <path
   d="m 9381,15982 -198,173 v -351 z"
   id="path96"
   inkscape:connector-curvature="0"
   style="fill:#ff3f4c;stroke:none" />
         <path
   d="m 9384,15603 -201,173 v -351 z"
   id="path98"
   inkscape:connector-curvature="0"
   style="fill:#e0b719;stroke:none" />
         <path
   d="m 9381,16739 -198,173 v -351 z"
   id="path100"
   inkscape:connector-curvature="0"
   style="fill:#ff3f4c;stroke:none" />
         <path
   d="m 9384,16360 -201,173 v -351 z"
   id="path102"
   inkscape:connector-curvature="0"
   style="fill:#e0b719;stroke:none" />
         <path
   d="m 9900,16632 -244,66 5,-2150 h -33 l -36,-5 -30,-7 -31,-13 -28,-20 -28,-28 -20,-33 -20,-46 -18,-56 -15,-66 -16,-74 -12,-76 -16,-74 -12,-71 -10,-61 -11,-48 -5,-41 8,-33 18,-20 20,-13 h 25 l 28,10 23,26 18,35 13,51 10,61 10,71 13,74 10,71 15,64 16,53 20,36 20,20 21,13 20,10 18,5 h 18 l 17,-3 16,-2 10,-8 2,-8 v -7 -8 -7 l -10,7 -13,3 -12,-3 -18,-7 -15,-13 -16,-15 -15,-18 -10,-23 -18,-58 -13,-74 -10,-74 -5,-63 5,-49 10,-40 18,-26 23,-10 20,5 13,15 5,23 v 33 79 l 8,125 20,101 41,16 5,-143 10,-251 8,-262 7,-168 3,-46 3,-43 2,-40 5,-39 8,-30 15,-23 18,-15 28,-5 25,5 18,18 10,28 5,30 3,33 -3,33 -2,31 v 22 l -3,158 -7,305 -6,313 3,185 20,-18 21,-17 17,-23 16,-26 12,-30 11,-36 7,-43 3,-48 2,-110 5,-104 v -91 l -2,-66 v -38 l 10,-23 13,-11 h 18 l 20,8 15,20 10,36 5,48 3,41 5,64 3,81 v 86 l -11,94 -20,89 -38,79 -56,66 66,-43 51,-41 38,-43 31,-41 20,-40 15,-46 10,-46 8,-48 5,-51 5,-53 5,-54 5,-48 8,-41 13,-33 15,-23 20,-7 36,15 18,43 5,59 v 66 l -3,20 -2,31 -3,38 -8,46 -10,48 -12,53 -18,56 -21,56 -25,56 -33,53 -38,51 -43,46 -51,38 -59,30 -66,23 -76,13 5,369 13,709 10,686 z"
   id="path104"
   inkscape:connector-curvature="0"
   style="fill:#006600;stroke:none" />
         <path
   d="m 10492,16284 -185,48 20,-1308 h -25 l -28,-3 -23,-5 -26,-10 -20,-13 -20,-20 -16,-26 -15,-33 -12,-40 -13,-51 -10,-54 -13,-55 -10,-56 -8,-51 -10,-43 -8,-36 -2,-30 5,-23 13,-18 17,-8 h 18 l 21,8 17,18 13,25 10,38 8,46 10,51 8,53 10,53 10,46 13,41 15,25 15,16 15,10 16,5 15,5 h 13 l 12,-3 11,-2 7,-5 3,-5 2,-8 v -5 -5 l -7,7 h -11 -12 l -10,-5 -13,-10 -13,-10 -10,-15 -8,-15 -15,-44 -10,-56 -8,-53 -2,-46 2,-35 8,-31 13,-18 17,-7 18,2 8,13 5,18 v 23 58 l 5,89 15,76 33,11 3,-105 8,-183 5,-190 7,-125 3,-66 5,-56 18,-40 35,-16 36,18 10,43 v 49 l -3,40 -2,115 -5,223 -5,229 2,135 16,-13 15,-13 13,-17 12,-18 10,-23 8,-26 5,-30 3,-36 2,-78 3,-79 v -66 -49 -28 l 5,-17 10,-8 h 13 l 15,8 13,15 7,23 3,35 2,31 3,46 2,58 v 66 l -7,69 -15,63 -28,59 -41,48 48,-30 38,-31 31,-30 23,-31 15,-30 10,-33 8,-34 5,-35 8,-79 10,-74 12,-53 28,-23 28,13 16,30 2,46 v 46 l -2,38 -11,61 -17,74 -28,81 -44,81 -63,69 -84,53 -107,23 3,229 2,427 3,412 z"
   id="path106"
   inkscape:connector-curvature="0"
   style="fill:#006600;stroke:none" />
         <path
   d="m 11309,16777 -222,59 5,-1937 h -30 l -31,-2 -28,-6 -28,-12 -25,-18 -23,-25 -20,-31 -18,-41 -15,-50 -16,-61 -12,-64 -13,-69 -13,-68 -10,-64 -10,-53 -10,-43 -3,-38 5,-28 16,-21 20,-12 h 23 l 25,10 21,20 15,33 13,46 7,56 10,66 11,63 10,66 12,56 16,49 17,33 18,17 18,13 18,8 18,5 h 15 15 l 13,-5 10,-5 5,-8 v -8 -7 -8 l -10,8 -10,2 -13,-2 -15,-5 -15,-10 -13,-16 -13,-17 -10,-21 -15,-53 -13,-64 -10,-68 -3,-56 3,-46 10,-36 15,-22 21,-11 17,6 13,15 5,20 v 31 71 l 8,112 18,91 35,13 5,-130 8,-226 8,-234 7,-152 3,-41 v -38 l 2,-36 5,-33 8,-28 13,-20 18,-15 25,-5 23,5 18,15 7,25 5,28 v 31 l -2,30 -3,28 v 21 l -2,139 -8,275 -2,282 2,168 18,-16 18,-17 17,-21 13,-25 13,-25 8,-34 7,-38 3,-43 2,-96 3,-97 v -84 -58 -33 l 7,-21 13,-10 h 15 l 18,8 15,20 11,31 2,43 3,38 5,56 2,71 v 81 l -10,82 -18,81 -33,71 -51,59 59,-39 46,-38 35,-35 26,-38 17,-38 13,-39 10,-43 8,-43 10,-94 10,-92 16,-68 33,-26 33,16 15,38 5,53 -2,59 v 17 l -3,28 -5,36 -5,41 -8,43 -13,48 -15,51 -18,51 -25,48 -28,48 -33,46 -41,41 -45,35 -54,28 -58,21 -69,10 5,333 10,638 10,617 z"
   id="path108"
   inkscape:connector-curvature="0"
   style="fill:#006600;stroke:none" />
         <path
   d="m 11593,16919 -630,-2 10,-48 23,-54 35,-56 44,-56 45,-53 49,-43 48,-36 41,-20 v -23 l 10,-28 13,-28 17,-25 18,-26 15,-23 13,-15 3,-10 35,153 155,-120 -66,160 23,23 23,31 15,30 13,33 20,-8 23,-5 28,-5 31,-2 h 28 l 25,-3 h 23 l 15,3 -15,15 -18,15 -20,16 -18,12 -20,15 -18,13 -18,10 -15,8 10,38 5,41 -5,38 z"
   id="path110"
   inkscape:connector-curvature="0"
   style="fill:#70c98e;stroke:none" />
         <path
   d="m 10589,15207 -48,-18 -23,-31 -3,-33 18,-35 25,-28 36,-18 h 36 l 35,20 16,-18 20,-12 25,-3 23,5 23,10 18,18 7,23 -2,31 25,-16 28,-2 28,13 18,20 5,30 -13,33 -35,33 -69,33 -18,-20 -20,-18 -23,-17 -23,-13 -28,-8 -25,-2 -28,7 z"
   id="path112"
   inkscape:connector-curvature="0"
   style="fill:#ff3f4c;stroke:none" />
         <path
   d="m 10889,15895 -15,-35 2,-36 16,-30 25,-26 28,-10 28,3 25,20 18,46 23,-23 25,-8 28,5 23,15 18,21 10,25 -5,28 -18,23 31,-10 28,2 23,18 12,26 3,28 -15,33 -36,28 -58,22 -21,-30 -23,-28 -25,-25 -25,-26 -31,-20 -30,-15 -31,-13 z"
   id="path114"
   inkscape:connector-curvature="0"
   style="fill:#ff3f4c;stroke:none" />
         <path
   d="m 10904,16919 -658,-2 -16,-23 -17,-28 -16,-33 -15,-36 -13,-35 -7,-33 -8,-33 v -26 l -20,3 -26,5 -25,3 -30,5 -28,5 -28,7 -23,5 -21,8 18,-20 21,-23 17,-26 21,-22 20,-21 18,-20 15,-18 13,-13 -28,-45 -21,-49 -15,-56 -7,-53 v -53 l 5,-49 12,-40 21,-31 -59,-15 -58,-30 -54,-44 -48,-50 -38,-56 -26,-59 -7,-53 7,-49 -226,-27 38,-8 38,-10 39,-13 38,-15 33,-15 25,-16 21,-12 12,-13 -23,-15 -25,-21 -25,-25 -23,-31 -21,-33 -12,-35 -8,-33 5,-33 h -23 l -28,5 -28,5 -30,7 -28,11 -28,10 -23,10 -18,10 8,-13 10,-15 13,-15 12,-18 16,-15 15,-13 15,-10 13,-8 -10,-12 -13,-16 -15,-17 -18,-18 -18,-18 -15,-15 -18,-13 -15,-7 30,2 31,3 28,5 25,5 26,7 23,8 17,8 16,10 17,-21 26,-15 28,-10 30,-8 28,-2 28,-3 23,3 18,2 13,-48 10,-51 10,-45 8,-33 v 50 l 5,49 7,43 10,25 23,-15 28,-15 28,-13 33,-13 31,-7 33,-10 33,-6 30,-2 -22,20 -26,18 -28,20 -25,18 -28,18 -28,15 -28,15 -26,11 18,25 15,28 13,20 5,10 13,-10 18,-5 18,-2 h 20 l 20,5 18,5 18,7 13,11 12,-44 13,-43 10,-40 3,-31 10,18 10,18 13,20 10,20 10,18 10,20 8,21 5,18 23,-11 23,-5 25,-2 26,5 28,5 25,10 25,13 23,13 5,-26 11,-28 12,-33 13,-30 15,-33 15,-31 18,-25 16,-21 15,-17 18,-16 20,-12 23,-11 25,-5 h 26 l 28,3 30,10 26,13 20,15 13,18 10,18 5,17 2,16 v 15 l -2,13 h 18 l 20,2 20,3 26,5 20,7 20,5 18,6 10,5 -17,10 -21,10 -23,10 -23,8 -25,7 -23,8 -20,5 -18,5 -18,26 -18,22 -20,23 -23,21 -28,20 -33,15 -38,18 -43,13 15,18 10,22 8,18 2,8 23,-5 31,-8 35,-8 41,-7 38,-10 33,-10 31,-8 20,-8 -15,18 -15,15 -16,16 -12,12 -18,16 -15,12 -18,10 -18,11 h 18 l 23,2 23,3 22,5 23,5 21,5 17,5 16,5 -26,15 -30,13 -33,13 -33,10 -33,5 -31,5 -28,3 h -20 v 25 l -8,36 -15,33 -23,22 20,-7 26,-8 28,-5 35,-2 39,-3 38,3 43,2 43,8 41,10 43,15 38,21 38,22 36,31 28,33 25,41 21,48 261,-8 -20,13 -20,15 -28,15 -28,16 -31,15 -35,10 -36,8 -35,2 25,8 28,8 36,7 33,13 33,10 28,13 23,12 15,16 h -31 -33 -33 -33 -33 l -30,-3 -26,-2 -20,-3 10,64 -3,78 -10,92 -23,94 -35,96 -49,92 -58,84 z"
   id="path116"
   inkscape:connector-curvature="0"
   style="fill:#07843a;stroke:none" />
         <path
   d="m 10246,16310 20,-11 20,-10 26,-10 25,-10 28,-10 28,-8 31,-8 28,-7 2,25 v 31 l -2,30 -3,21 -53,-16 -10,13 -18,13 -18,15 -20,15 -21,15 -15,16 -15,15 -8,15 3,-18 10,-20 10,-18 13,-17 15,-16 15,-15 13,-15 13,-10 h -3 -10 -15 -18 -20 l -21,-3 h -18 z"
   id="path118"
   inkscape:connector-curvature="0"
   style="fill:#f7efdd;stroke:none" />
         <path
   d="m 10543,16493 176,-23 -18,-168 71,157 13,-7 12,-3 h 13 l 13,3 8,7 7,11 3,12 v 18 l -8,38 -10,38 -18,26 -30,10 -21,-3 -20,-5 -20,-5 -18,-10 -15,-13 -6,-15 v -18 l 13,-23 z"
   id="path120"
   inkscape:connector-curvature="0"
   style="fill:#f7efdd;stroke:none" />
         <path
   d="m 10436,16546 -30,165 119,-23 -5,3 -12,10 -18,13 -21,17 -22,18 -21,18 -18,18 -12,15 -10,13 -16,7 -15,3 h -15 l -15,-3 -13,-7 -8,-10 v -16 l 8,-20 13,-28 17,-33 23,-36 21,-35 22,-33 16,-31 z"
   id="path122"
   inkscape:connector-curvature="0"
   style="fill:#f7efdd;stroke:none" />
         <path
   d="m 10065,15748 18,-18 23,-18 28,-17 33,-18 30,-16 31,-12 25,-10 21,-5 -3,-21 8,-15 10,-13 18,-10 18,-5 20,3 18,5 12,10 16,28 2,28 -18,25 -33,13 -17,20 -18,26 -23,25 -23,25 -20,23 -16,18 -10,13 -5,5 26,-135 -6,3 -15,2 -23,8 -25,7 -28,8 -28,8 -25,5 z"
   id="path124"
   inkscape:connector-curvature="0"
   style="fill:#f7efdd;stroke:none" />
         <path
   d="m 9976,15799 18,7 20,13 23,15 21,18 20,20 18,18 15,21 8,17 12,-12 13,-11 15,-5 h 16 l 12,3 13,8 8,12 5,18 v 36 l -10,30 -13,20 -15,13 -11,5 -10,3 -15,5 -13,2 h -15 -13 l -10,-2 -5,-8 -5,-18 v -17 -21 l 2,-17 -20,-6 -20,-5 -21,-10 -20,-7 -20,-11 -18,-10 -15,-7 -13,-5 114,12 -7,-15 -21,-33 -22,-41 z"
   id="path126"
   inkscape:connector-curvature="0"
   style="fill:#f7efdd;stroke:none" />
         <path
   d="m 10897,16378 10,-160 -5,-3 -10,-7 -16,-10 -15,-16 -13,-15 -10,-18 v -17 l 8,-18 15,-15 20,-11 23,-5 h 21 l 17,5 16,11 7,17 3,23 129,76 -147,-7 z"
   id="path128"
   inkscape:connector-curvature="0"
   style="fill:#f7efdd;stroke:none" />
         <path
   d="m 10149,16922 h -7 -21 -33 l -43,-3 h -51 -56 -58 l -64,-2 h -61 -61 -56 l -51,-3 h -40 l -33,3 h -23 -8 l -38,-43 -28,-51 -20,-56 -11,-58 -2,-56 7,-54 16,-48 20,-38 -8,-18 -10,-20 -10,-26 -15,-28 -15,-25 -16,-25 -17,-23 -16,-16 h 13 l 15,3 21,8 22,7 21,13 20,13 18,12 13,13 -16,-23 -12,-28 -16,-25 -15,-26 -13,-23 -7,-17 -8,-13 -2,-5 25,10 26,10 22,10 21,8 18,8 12,7 10,3 3,2 25,-23 33,-22 36,-18 41,-18 40,-13 39,-10 35,-5 h 31 l 10,-28 13,-30 12,-36 16,-33 12,-33 10,-25 8,-18 3,-5 v 48 l 5,64 7,61 10,43 87,-193 -5,45 -5,54 -5,51 v 43 h 12 l 16,2 15,5 15,5 13,5 10,8 10,5 5,5 -2,-23 2,-22 8,-26 13,-25 15,-23 15,-20 15,-16 18,-10 v -35 l 8,-41 7,-33 5,-15 6,30 7,36 8,33 10,20 18,-41 25,-48 21,-38 10,-18 5,31 v 33 30 l -3,21 18,7 18,8 15,12 15,13 11,15 7,18 8,18 v 20 l 10,-2 15,2 15,5 21,8 18,8 17,10 16,10 10,10 -18,8 -23,2 -23,3 -23,2 h -25 -20 l -21,-2 h -15 l -5,20 -8,21 -10,20 -10,20 -15,18 -16,15 -17,13 -21,10 18,38 15,43 16,49 10,45 7,51 3,46 -5,46 -15,43 112,58 -166,33 -15,36 -20,41 -21,33 z"
   id="path130"
   inkscape:connector-curvature="0"
   style="fill:#70c98e;stroke:none" />
         <path
   d="m 9506,16726 18,-12 23,-16 22,-10 23,-13 26,-7 25,-10 23,-5 20,-5 23,20 8,20 -3,18 -7,20 -16,16 -20,7 -20,5 h -8 l -58,61 2,-12 13,-31 15,-33 21,-25 z"
   id="path132"
   inkscape:connector-curvature="0"
   style="fill:#f7efdd;stroke:none" />
         <path
   d="m 9989,16759 -28,-10 -18,-23 -5,-25 18,-26 18,-10 18,-10 20,-5 18,-2 17,5 13,10 8,15 2,25 61,117 -76,-53 -81,132 z"
   id="path134"
   inkscape:connector-curvature="0"
   style="fill:#f7efdd;stroke:none" />
         <path
   d="m 9709,16304 16,-7 17,-3 21,3 20,5 18,8 15,7 10,5 5,3 26,5 15,23 3,28 -8,33 -8,12 -10,8 -10,5 -13,3 -12,-3 -16,-5 -15,-10 -15,-13 -120,51 8,-13 18,-15 20,-15 23,-15 23,-16 20,-10 13,-7 5,-3 -10,-18 -15,-18 -21,-17 z"
   id="path136"
   inkscape:connector-curvature="0"
   style="fill:#f7efdd;stroke:none" />
         <path
   d="m 11560,16759 28,-12 28,-13 31,-13 28,-15 28,-13 28,-12 22,-13 18,-13 -7,20 -8,16 -10,15 -8,13 -10,12 -10,13 -13,15 -15,18 h 96 l -25,13 -23,13 -20,7 -20,10 -21,8 -18,5 -17,8 -21,7 -18,8 -17,2 h -13 -13 l -10,-5 -5,-7 -5,-10 -3,-13 3,-23 7,-20 8,-16 z"
   id="path138"
   inkscape:connector-curvature="0"
   style="fill:#f7efdd;stroke:none" />
        </g>
       </g>
      </g>
     </g>
    </g>
   </g>
  </g>
 </g>
</svg>