<?xml version="1.0" encoding="UTF-8" standalone="no"?>
<svg
   xmlns:ooo="http://xml.openoffice.org/svg/export"
   xmlns:dc="http://purl.org/dc/elements/1.1/"
   xmlns:cc="http://creativecommons.org/ns#"
   xmlns:rdf="http://www.w3.org/1999/02/22-rdf-syntax-ns#"
   xmlns:svg="http://www.w3.org/2000/svg"
   xmlns="http://www.w3.org/2000/svg"
   xmlns:sodipodi="http://sodipodi.sourceforge.net/DTD/sodipodi-0.dtd"
   xmlns:inkscape="http://www.inkscape.org/namespaces/inkscape"
   version="1.2"
   width="16.889999mm"
   height="47.290001mm"
   viewBox="0 0 1688.9999 4729.0001"
   preserveAspectRatio="xMidYMid"
   xml:space="preserve"
   id="svg107"
   sodipodi:docname="devilfrk.svg"
   style="fill-rule:evenodd;stroke-width:28.22200012;stroke-linejoin:round"
   inkscape:version="0.92.5 (2060ec1f9f, 2020-04-08)"><metadata
   id="metadata111"><rdf:RDF><cc:Work
       rdf:about=""><dc:format>image/svg+xml</dc:format><dc:type
         rdf:resource="http://purl.org/dc/dcmitype/StillImage" /></cc:Work></rdf:RDF></metadata><sodipodi:namedview
   pagecolor="#ffffff"
   bordercolor="#666666"
   borderopacity="1"
   objecttolerance="10"
   gridtolerance="10"
   guidetolerance="10"
   inkscape:pageopacity="0"
   inkscape:pageshadow="2"
   inkscape:window-width="664"
   inkscape:window-height="487"
   id="namedview109"
   showgrid="false"
   inkscape:zoom="0.2102413"
   inkscape:cx="31.937009"
   inkscape:cy="89.34803"
   inkscape:window-x="0"
   inkscape:window-y="0"
   inkscape:window-maximized="0"
   inkscape:current-layer="svg107" />
 <defs
   class="ClipPathGroup"
   id="defs8">
  <clipPath
   id="presentation_clip_path"
   clipPathUnits="userSpaceOnUse">
   <rect
   x="0"
   y="0"
   width="21000"
   height="29700"
   id="rect2" />
  </clipPath>
  <clipPath
   id="presentation_clip_path_shrink"
   clipPathUnits="userSpaceOnUse">
   <rect
   x="21"
   y="29"
   width="20958"
   height="29641"
   id="rect5" />
  </clipPath>
 </defs>
 <defs
   class="TextShapeIndex"
   id="defs12">
  <g
   ooo:slide="id1"
   ooo:id-list="id3"
   id="g10" />
 </defs>
 <defs
   class="EmbeddedBulletChars"
   id="defs44">
  <g
   id="bullet-char-template-57356"
   transform="matrix(4.8828125e-4,0,0,-4.8828125e-4,0,0)">
   <path
   d="M 580,1141 1163,571 580,0 -4,571 Z"
   id="path14"
   inkscape:connector-curvature="0" />
  </g>
  <g
   id="bullet-char-template-57354"
   transform="matrix(4.8828125e-4,0,0,-4.8828125e-4,0,0)">
   <path
   d="M 8,1128 H 1137 V 0 H 8 Z"
   id="path17"
   inkscape:connector-curvature="0" />
  </g>
  <g
   id="bullet-char-template-10146"
   transform="matrix(4.8828125e-4,0,0,-4.8828125e-4,0,0)">
   <path
   d="M 174,0 602,739 174,1481 1456,739 Z M 1358,739 309,1346 659,739 Z"
   id="path20"
   inkscape:connector-curvature="0" />
  </g>
  <g
   id="bullet-char-template-10132"
   transform="matrix(4.8828125e-4,0,0,-4.8828125e-4,0,0)">
   <path
   d="M 2015,739 1276,0 H 717 l 543,543 H 174 v 393 h 1086 l -543,545 h 557 z"
   id="path23"
   inkscape:connector-curvature="0" />
  </g>
  <g
   id="bullet-char-template-10007"
   transform="matrix(4.8828125e-4,0,0,-4.8828125e-4,0,0)">
   <path
   d="m 0,-2 c -7,16 -16,29 -25,39 l 381,530 c -94,256 -141,385 -141,387 0,25 13,38 40,38 9,0 21,-2 34,-5 21,4 42,12 65,25 l 27,-13 111,-251 280,301 64,-25 24,25 c 21,-10 41,-24 62,-43 C 886,937 835,863 770,784 769,783 710,716 594,584 L 774,223 c 0,-27 -21,-55 -63,-84 l 16,-20 C 717,90 699,76 672,76 641,76 570,178 457,381 L 164,-76 c -22,-34 -53,-51 -92,-51 -42,0 -63,17 -64,51 -7,9 -10,24 -10,44 0,9 1,19 2,30 z"
   id="path26"
   inkscape:connector-curvature="0" />
  </g>
  <g
   id="bullet-char-template-10004"
   transform="matrix(4.8828125e-4,0,0,-4.8828125e-4,0,0)">
   <path
   d="M 285,-33 C 182,-33 111,30 74,156 52,228 41,333 41,471 c 0,78 14,145 41,201 34,71 87,106 158,106 53,0 88,-31 106,-94 l 23,-176 c 8,-64 28,-97 59,-98 l 735,706 c 11,11 33,17 66,17 42,0 63,-15 63,-46 V 965 c 0,-36 -10,-64 -30,-84 L 442,47 C 390,-6 338,-33 285,-33 Z"
   id="path29"
   inkscape:connector-curvature="0" />
  </g>
  <g
   id="bullet-char-template-9679"
   transform="matrix(4.8828125e-4,0,0,-4.8828125e-4,0,0)">
   <path
   d="M 813,0 C 632,0 489,54 383,161 276,268 223,411 223,592 c 0,181 53,324 160,431 106,107 249,161 430,161 179,0 323,-54 432,-161 108,-107 162,-251 162,-431 0,-180 -54,-324 -162,-431 C 1136,54 992,0 813,0 Z"
   id="path32"
   inkscape:connector-curvature="0" />
  </g>
  <g
   id="bullet-char-template-8226"
   transform="matrix(4.8828125e-4,0,0,-4.8828125e-4,0,0)">
   <path
   d="m 346,457 c -73,0 -137,26 -191,78 -54,51 -81,114 -81,188 0,73 27,136 81,188 54,52 118,78 191,78 73,0 134,-26 185,-79 51,-51 77,-114 77,-187 0,-75 -25,-137 -76,-188 -50,-52 -112,-78 -186,-78 z"
   id="path35"
   inkscape:connector-curvature="0" />
  </g>
  <g
   id="bullet-char-template-8211"
   transform="matrix(4.8828125e-4,0,0,-4.8828125e-4,0,0)">
   <path
   d="M -4,459 H 1135 V 606 H -4 Z"
   id="path38"
   inkscape:connector-curvature="0" />
  </g>
  <g
   id="bullet-char-template-61548"
   transform="matrix(4.8828125e-4,0,0,-4.8828125e-4,0,0)">
   <path
   d="m 173,740 c 0,163 58,303 173,419 116,115 255,173 419,173 163,0 302,-58 418,-173 116,-116 174,-256 174,-419 0,-163 -58,-303 -174,-418 C 1067,206 928,148 765,148 601,148 462,206 346,322 231,437 173,577 173,740 Z"
   id="path41"
   inkscape:connector-curvature="0" />
  </g>
 </defs>
 <g
   id="g49"
   transform="translate(-9655,-12485)">
  <g
   id="id2"
   class="Master_Slide">
   <g
   id="bg-id2"
   class="Background" />
   <g
   id="bo-id2"
   class="BackgroundObjects" />
  </g>
 </g>
 <g
   class="SlideGroup"
   id="g105"
   transform="translate(-9655,-12485)">
  <g
   id="g103">
   <g
   id="container-id1">
    <g
   id="id1"
   class="Slide"
   clip-path="url(#presentation_clip_path)">
     <g
   class="Page"
   id="g99">
      <g
   class="Graphic"
   id="g97">
       <g
   id="id3">
        <rect
   class="BoundingBox"
   x="9655"
   y="12485"
   width="1689"
   height="4729"
   id="rect51"
   style="fill:none;stroke:none" />
        <defs
   id="defs56">
         <clipPath
   id="clip_path_1"
   clipPathUnits="userSpaceOnUse">
          <path
   d="m 9655,12485 h 1688 v 4728 H 9655 Z"
   id="path53"
   inkscape:connector-curvature="0" />
         </clipPath>
        </defs>
        <g
   clip-path="url(#clip_path_1)"
   id="g94">
         <path
   d="m 9767,12965 -41,31 8,-201 140,145 -61,5 20,63 28,94 36,117 38,125 35,122 36,107 25,78 18,38 23,21 23,2 13,-15 -5,-38 -13,-51 -25,-91 -31,-122 -33,-138 -36,-132 -28,-114 -20,-84 -10,-33 -31,10 10,-173 117,148 -53,-3 10,31 26,76 35,112 41,129 43,130 38,119 28,87 13,43 8,15 10,13 13,13 12,7 h 11 l 7,-10 3,-20 -8,-33 -18,-64 -25,-99 -33,-119 -33,-130 -33,-124 -28,-105 -18,-73 -8,-28 -41,33 6,-224 132,168 -41,8 8,30 25,76 33,112 38,130 41,132 38,119 28,92 18,48 10,20 13,16 10,12 13,3 7,-5 6,-18 -3,-33 -8,-46 -17,-73 -26,-102 -30,-117 -33,-122 -31,-114 -25,-94 -18,-66 -8,-26 -28,23 v -203 l 130,145 -46,10 18,56 25,96 36,120 38,129 38,127 33,115 28,84 16,43 23,30 20,15 10,-12 -8,-59 -15,-66 -25,-104 -31,-127 -30,-137 -31,-130 -25,-112 -16,-78 -7,-28 -31,20 16,-178 129,158 -66,-8 20,58 34,94 40,120 46,135 41,134 35,125 26,101 7,67 -10,43 -23,40 -30,38 -36,34 -38,30 -33,23 -28,18 -15,10 12,46 31,106 46,163 61,206 68,244 79,269 82,290 84,297 86,300 82,290 76,274 69,249 58,211 43,170 31,117 10,56 -97,56 -17,-61 -34,-122 -48,-173 -61,-216 -71,-251 -79,-277 -81,-293 -84,-302 -84,-300 -82,-287 -76,-272 -69,-241 -58,-206 -43,-160 -31,-107 -13,-41 -30,3 -43,2 -56,3 -59,-3 -58,-10 -51,-15 -41,-25 -23,-36 -18,-61 -25,-94 -28,-114 -33,-127 -31,-125 -25,-114 -18,-94 z"
   id="path58"
   inkscape:connector-curvature="0"
   style="fill:#000000;stroke:none" />
         <path
   d="m 11311,17082 -936,-3311 7,-3 26,-7 33,-16 38,-17 41,-28 38,-33 31,-41 17,-48 -5,-64 -25,-109 -38,-142 -46,-155 -48,-153 -41,-129 -31,-92 -10,-33 54,23 -82,-102 -15,122 28,-38 8,33 22,84 31,124 36,143 38,147 33,135 25,104 15,58 3,28 -5,21 -10,15 -13,8 -18,2 -18,-5 -15,-10 -13,-20 -17,-54 -33,-99 -39,-132 -43,-147 -43,-143 -36,-122 -23,-86 -10,-33 43,8 -86,-110 -15,145 30,-38 10,33 23,84 36,122 41,142 40,148 36,132 23,104 10,58 -5,26 -8,17 -12,11 -16,5 -15,-3 -13,-5 -12,-10 -8,-15 -25,-74 -34,-112 -40,-129 -43,-140 -39,-132 -35,-110 -23,-78 -8,-28 54,12 -107,-139 -10,175 35,-41 8,31 25,81 33,115 39,137 40,139 36,128 28,101 15,59 3,25 -8,20 -13,13 -15,8 -18,2 -18,-5 -15,-7 -10,-16 -15,-51 -31,-99 -40,-127 -41,-142 -43,-137 -36,-120 -25,-84 -11,-30 39,10 -74,-94 -13,125 25,-31 11,33 23,87 35,124 38,142 41,145 36,130 25,94 10,43 -2,13 -5,18 -11,17 -12,16 -18,7 -18,-5 -23,-15 -20,-36 -26,-68 -35,-104 -36,-122 -38,-133 -36,-124 -28,-104 -20,-74 -8,-28 41,10 -81,-104 -3,135 28,-28 5,33 18,86 26,127 30,145 38,147 41,138 43,104 43,58 46,23 51,13 48,2 49,-2 43,-5 36,-8 22,-7 8,-3 944,3321 z"
   id="path60"
   inkscape:connector-curvature="0"
   style="fill:#c10000;stroke:none" />
         <path
   d="m 11115,15285 10,-51 8,-50 v -49 l -8,-50 -10,-49 -15,-48 -21,-46 -25,-43 -31,-43 -33,-38 -38,-38 -43,-33 -43,-31 -51,-28 -51,-23 -56,-18 -56,-12 -56,-10 -56,-3 -53,3 -54,5 -53,12 -48,16 -49,20 -45,23 -41,28 -38,33 -36,35 -30,39 -28,43 -21,45 -18,49 59,-18 61,-20 66,-23 66,-23 66,-20 69,-18 71,-13 71,-2 72,5 71,17 71,28 71,44 72,61 68,76 69,99 z"
   id="path62"
   inkscape:connector-curvature="0"
   style="fill:#000000;stroke:none" />
         <path
   d="m 10080,14927 18,-25 22,-26 23,-25 26,-28 30,-26 31,-25 33,-25 38,-21 38,-20 41,-18 43,-13 43,-7 49,-5 48,2 51,8 53,13 54,17 48,21 46,20 43,23 38,25 36,26 33,28 28,30 25,36 21,33 18,38 15,41 10,43 8,46 2,50 v 51 l -18,-41 -20,-38 -18,-35 -23,-36 -20,-33 -23,-33 -25,-30 -26,-28 -28,-28 -30,-23 -31,-23 -33,-20 -36,-16 -40,-15 -41,-13 -43,-7 -43,-5 -44,-5 h -40 -41 l -38,2 -36,5 -35,5 -36,11 -33,10 -33,10 -31,13 -30,15 -31,15 -30,18 -28,18 z"
   id="path64"
   inkscape:connector-curvature="0"
   style="fill:#c10000;stroke:none" />
         <path
   d="m 10164,14767 -5,-8 -16,-23 -17,-35 -21,-43 -15,-54 -8,-56 5,-63 23,-61 36,-59 38,-48 41,-41 40,-30 36,-25 28,-18 18,-10 8,-3 v 15 l -6,41 -20,53 -38,56 -20,21 -18,22 -13,26 -5,28 5,30 15,33 33,41 49,46 30,28 21,28 10,25 v 25 l -13,26 -20,23 -33,23 -44,20 -40,13 -33,2 -21,-2 -15,-11 -10,-12 -3,-10 -2,-11 z"
   id="path66"
   inkscape:connector-curvature="0"
   style="fill:#000000;stroke:none" />
         <path
   d="m 11051,14973 8,-5 23,-16 31,-22 35,-36 36,-41 30,-51 18,-58 5,-66 -10,-66 -15,-59 -23,-53 -23,-46 -23,-35 -20,-28 -13,-18 -5,-5 -5,15 -10,38 -5,56 12,66 10,28 8,28 3,28 -5,28 -18,28 -28,25 -46,23 -64,23 -38,13 -28,18 -20,20 -10,23 v 25 l 10,31 23,33 30,35 33,28 28,16 23,5 15,-3 13,-7 10,-8 3,-8 z"
   id="path68"
   inkscape:connector-curvature="0"
   style="fill:#000000;stroke:none" />
         <path
   d="m 10334,14215 -7,6 -21,17 -28,26 -30,30 -36,31 -30,30 -23,28 -16,21 -17,38 -16,45 -10,49 v 43 l 8,23 10,28 15,28 15,30 13,28 13,23 10,15 3,5 v 5 l 2,13 10,10 h 28 l 21,-5 23,-5 22,-8 23,-10 21,-10 18,-10 10,-10 7,-10 5,-21 v -20 l -7,-20 -21,-21 -15,-12 -18,-16 -20,-17 -20,-18 -21,-21 -17,-17 -11,-21 -7,-15 -5,-30 2,-31 10,-35 21,-41 15,-23 15,-25 13,-26 15,-23 10,-20 11,-15 5,-10 z"
   id="path70"
   inkscape:connector-curvature="0"
   style="fill:#c10000;stroke:none" />
         <path
   d="m 11115,14401 5,8 10,25 16,33 17,41 18,40 18,41 13,36 5,22 v 41 l -5,51 -10,48 -18,38 -16,18 -20,20 -25,23 -26,21 -23,20 -20,15 -15,10 -5,5 -3,6 -5,10 -15,2 -26,-10 -15,-13 -20,-12 -18,-18 -18,-18 -15,-15 -13,-18 -5,-13 -2,-12 2,-21 10,-17 15,-16 26,-12 18,-5 25,-8 26,-8 28,-10 25,-7 23,-13 18,-10 12,-13 16,-25 10,-31 5,-36 -3,-45 -7,-56 -5,-56 -5,-41 z"
   id="path72"
   inkscape:connector-curvature="0"
   style="fill:#c10000;stroke:none" />
         <path
   d="m 9691,12927 v 89 h 61 l -61,36 -36,-46 z"
   id="path74"
   inkscape:connector-curvature="0"
   style="fill:#000000;stroke:none" />
         <path
   d="m 10291,12620 36,-82 78,82 -68,-135 z"
   id="path76"
   inkscape:connector-curvature="0"
   style="fill:#000000;stroke:none" />
         <path
   d="m 10652,13423 18,114 -36,104 51,-35 18,-69 z"
   id="path78"
   inkscape:connector-curvature="0"
   style="fill:#000000;stroke:none" />
         <path
   d="m 9920,13740 28,79 150,43 h -89 l -79,-7 z"
   id="path80"
   inkscape:connector-curvature="0"
   style="fill:#000000;stroke:none" />
         <path
   d="m 10512,13959 105,442 7,-71 -35,-175 z"
   id="path82"
   inkscape:connector-curvature="0"
   style="fill:#000000;stroke:none" />
         <path
   d="m 10080,14391 -21,58 -10,64 v 56 l 13,43 -36,-18 -10,-96 z"
   id="path84"
   inkscape:connector-curvature="0"
   style="fill:#000000;stroke:none" />
         <path
   d="m 10052,14876 -61,99 46,26 -89,-26 z"
   id="path86"
   inkscape:connector-curvature="0"
   style="fill:#000000;stroke:none" />
         <path
   d="m 11181,14904 -53,43 10,94 18,-58 68,-132 z"
   id="path88"
   inkscape:connector-curvature="0"
   style="fill:#000000;stroke:none" />
         <path
   d="m 10970,15095 87,167 -44,-35 -25,-79 z"
   id="path90"
   inkscape:connector-curvature="0"
   style="fill:#000000;stroke:none" />
         <path
   d="m 11067,16665 155,531 97,-28 -67,46 h -66 l -43,-203 -41,-115 z"
   id="path92"
   inkscape:connector-curvature="0"
   style="fill:#000000;stroke:none" />
        </g>
       </g>
      </g>
     </g>
    </g>
   </g>
  </g>
 </g>
</svg>