<?xml version="1.0" encoding="UTF-8" standalone="no"?>
<svg
   xmlns:ooo="http://xml.openoffice.org/svg/export"
   xmlns:dc="http://purl.org/dc/elements/1.1/"
   xmlns:cc="http://creativecommons.org/ns#"
   xmlns:rdf="http://www.w3.org/1999/02/22-rdf-syntax-ns#"
   xmlns:svg="http://www.w3.org/2000/svg"
   xmlns="http://www.w3.org/2000/svg"
   xmlns:sodipodi="http://sodipodi.sourceforge.net/DTD/sodipodi-0.dtd"
   xmlns:inkscape="http://www.inkscape.org/namespaces/inkscape"
   version="1.2"
   width="32.82mm"
   height="19.18mm"
   viewBox="0 0 3282 1918"
   preserveAspectRatio="xMidYMid"
   xml:space="preserve"
   id="svg146"
   sodipodi:docname="diploma.svg"
   style="fill-rule:evenodd;stroke-width:28.22200012;stroke-linejoin:round"
   inkscape:version="0.92.5 (2060ec1f9f, 2020-04-08)"><metadata
   id="metadata150"><rdf:RDF><cc:Work
       rdf:about=""><dc:format>image/svg+xml</dc:format><dc:type
         rdf:resource="http://purl.org/dc/dcmitype/StillImage" /></cc:Work></rdf:RDF></metadata><sodipodi:namedview
   pagecolor="#ffffff"
   bordercolor="#666666"
   borderopacity="1"
   objecttolerance="10"
   gridtolerance="10"
   guidetolerance="10"
   inkscape:pageopacity="0"
   inkscape:pageshadow="2"
   inkscape:window-width="664"
   inkscape:window-height="487"
   id="namedview148"
   showgrid="false"
   inkscape:zoom="0.2102413"
   inkscape:cx="62.022048"
   inkscape:cy="36.245668"
   inkscape:window-x="0"
   inkscape:window-y="0"
   inkscape:window-maximized="0"
   inkscape:current-layer="svg146" />
 <defs
   class="ClipPathGroup"
   id="defs8">
  <clipPath
   id="presentation_clip_path"
   clipPathUnits="userSpaceOnUse">
   <rect
   x="0"
   y="0"
   width="21000"
   height="29700"
   id="rect2" />
  </clipPath>
  <clipPath
   id="presentation_clip_path_shrink"
   clipPathUnits="userSpaceOnUse">
   <rect
   x="21"
   y="29"
   width="20958"
   height="29641"
   id="rect5" />
  </clipPath>
 </defs>
 <defs
   class="TextShapeIndex"
   id="defs12">
  <g
   ooo:slide="id1"
   ooo:id-list="id3"
   id="g10" />
 </defs>
 <defs
   class="EmbeddedBulletChars"
   id="defs44">
  <g
   id="bullet-char-template-57356"
   transform="matrix(4.8828125e-4,0,0,-4.8828125e-4,0,0)">
   <path
   d="M 580,1141 1163,571 580,0 -4,571 Z"
   id="path14"
   inkscape:connector-curvature="0" />
  </g>
  <g
   id="bullet-char-template-57354"
   transform="matrix(4.8828125e-4,0,0,-4.8828125e-4,0,0)">
   <path
   d="M 8,1128 H 1137 V 0 H 8 Z"
   id="path17"
   inkscape:connector-curvature="0" />
  </g>
  <g
   id="bullet-char-template-10146"
   transform="matrix(4.8828125e-4,0,0,-4.8828125e-4,0,0)">
   <path
   d="M 174,0 602,739 174,1481 1456,739 Z M 1358,739 309,1346 659,739 Z"
   id="path20"
   inkscape:connector-curvature="0" />
  </g>
  <g
   id="bullet-char-template-10132"
   transform="matrix(4.8828125e-4,0,0,-4.8828125e-4,0,0)">
   <path
   d="M 2015,739 1276,0 H 717 l 543,543 H 174 v 393 h 1086 l -543,545 h 557 z"
   id="path23"
   inkscape:connector-curvature="0" />
  </g>
  <g
   id="bullet-char-template-10007"
   transform="matrix(4.8828125e-4,0,0,-4.8828125e-4,0,0)">
   <path
   d="m 0,-2 c -7,16 -16,29 -25,39 l 381,530 c -94,256 -141,385 -141,387 0,25 13,38 40,38 9,0 21,-2 34,-5 21,4 42,12 65,25 l 27,-13 111,-251 280,301 64,-25 24,25 c 21,-10 41,-24 62,-43 C 886,937 835,863 770,784 769,783 710,716 594,584 L 774,223 c 0,-27 -21,-55 -63,-84 l 16,-20 C 717,90 699,76 672,76 641,76 570,178 457,381 L 164,-76 c -22,-34 -53,-51 -92,-51 -42,0 -63,17 -64,51 -7,9 -10,24 -10,44 0,9 1,19 2,30 z"
   id="path26"
   inkscape:connector-curvature="0" />
  </g>
  <g
   id="bullet-char-template-10004"
   transform="matrix(4.8828125e-4,0,0,-4.8828125e-4,0,0)">
   <path
   d="M 285,-33 C 182,-33 111,30 74,156 52,228 41,333 41,471 c 0,78 14,145 41,201 34,71 87,106 158,106 53,0 88,-31 106,-94 l 23,-176 c 8,-64 28,-97 59,-98 l 735,706 c 11,11 33,17 66,17 42,0 63,-15 63,-46 V 965 c 0,-36 -10,-64 -30,-84 L 442,47 C 390,-6 338,-33 285,-33 Z"
   id="path29"
   inkscape:connector-curvature="0" />
  </g>
  <g
   id="bullet-char-template-9679"
   transform="matrix(4.8828125e-4,0,0,-4.8828125e-4,0,0)">
   <path
   d="M 813,0 C 632,0 489,54 383,161 276,268 223,411 223,592 c 0,181 53,324 160,431 106,107 249,161 430,161 179,0 323,-54 432,-161 108,-107 162,-251 162,-431 0,-180 -54,-324 -162,-431 C 1136,54 992,0 813,0 Z"
   id="path32"
   inkscape:connector-curvature="0" />
  </g>
  <g
   id="bullet-char-template-8226"
   transform="matrix(4.8828125e-4,0,0,-4.8828125e-4,0,0)">
   <path
   d="m 346,457 c -73,0 -137,26 -191,78 -54,51 -81,114 -81,188 0,73 27,136 81,188 54,52 118,78 191,78 73,0 134,-26 185,-79 51,-51 77,-114 77,-187 0,-75 -25,-137 -76,-188 -50,-52 -112,-78 -186,-78 z"
   id="path35"
   inkscape:connector-curvature="0" />
  </g>
  <g
   id="bullet-char-template-8211"
   transform="matrix(4.8828125e-4,0,0,-4.8828125e-4,0,0)">
   <path
   d="M -4,459 H 1135 V 606 H -4 Z"
   id="path38"
   inkscape:connector-curvature="0" />
  </g>
  <g
   id="bullet-char-template-61548"
   transform="matrix(4.8828125e-4,0,0,-4.8828125e-4,0,0)">
   <path
   d="m 173,740 c 0,163 58,303 173,419 116,115 255,173 419,173 163,0 302,-58 418,-173 116,-116 174,-256 174,-419 0,-163 -58,-303 -174,-418 C 1067,206 928,148 765,148 601,148 462,206 346,322 231,437 173,577 173,740 Z"
   id="path41"
   inkscape:connector-curvature="0" />
  </g>
 </defs>
 <g
   id="g49"
   transform="translate(-8859,-13891)">
  <g
   id="id2"
   class="Master_Slide">
   <g
   id="bg-id2"
   class="Background" />
   <g
   id="bo-id2"
   class="BackgroundObjects" />
  </g>
 </g>
 <g
   class="SlideGroup"
   id="g144"
   transform="translate(-8859,-13891)">
  <g
   id="g142">
   <g
   id="container-id1">
    <g
   id="id1"
   class="Slide"
   clip-path="url(#presentation_clip_path)">
     <g
   class="Page"
   id="g138">
      <g
   class="Graphic"
   id="g136">
       <g
   id="id3">
        <rect
   class="BoundingBox"
   x="8859"
   y="13891"
   width="3282"
   height="1918"
   id="rect51"
   style="fill:none;stroke:none" />
        <path
   d="m 8928,14733 -13,102 -8,147 5,171 18,175 36,158 61,122 86,66 122,-10 18,-8 20,-12 28,-16 31,-17 33,-23 41,-23 43,-28 48,-28 51,-31 58,-33 61,-33 67,-35 68,-36 74,-36 81,-38 84,-35 87,-36 94,-36 96,-33 102,-33 107,-30 112,-31 114,-28 119,-25 125,-23 130,-21 134,-15 140,-12 143,-11 150,-5 h 152 l 158,3 40,-38 31,-92 15,-125 v -134 l -18,-133 -35,-104 -56,-58 -76,5 22,-56 23,-44 18,-28 8,-10 -23,10 -33,11 -48,15 -56,18 -69,17 -79,23 -86,23 -94,23 -102,26 -109,28 -115,28 -117,28 -122,30 -127,28 -127,31 -130,30 -129,28 -130,28 -127,28 -130,28 -124,25 -120,26 -117,23 -112,20 -106,18 -102,18 -91,15 -84,10 -77,10 -63,5 -56,3 z"
   id="path53"
   inkscape:connector-curvature="0"
   style="fill:#fff2e5;stroke:none" />
        <path
   d="m 9233,15654 v 0 l -117,10 -82,-64 -58,-117 -36,-155 -17,-175 -3,-171 5,-147 13,-102 h -21 l -12,102 -10,147 7,171 18,175 36,160 63,128 92,68 127,-10 v 0 z"
   id="path55"
   inkscape:connector-curvature="0"
   style="fill:#000000;stroke:none" />
        <path
   d="m 12004,14886 v 0 l -158,-5 h -152 l -150,7 -143,10 -140,13 -134,15 -130,21 -125,23 -122,25 -114,28 -112,31 -107,30 -101,33 -97,33 -94,36 -86,35 -87,36 -81,38 -74,36 -69,35 -66,36 -61,33 -58,33 -51,31 -48,28 -44,28 -40,23 -33,22 -31,18 -28,15 -20,13 -15,8 5,20 20,-7 20,-13 28,-15 31,-18 33,-23 41,-23 43,-28 48,-28 51,-31 58,-33 62,-33 66,-35 68,-36 74,-35 81,-39 82,-35 86,-36 94,-35 97,-34 101,-33 107,-30 112,-31 114,-28 117,-25 125,-23 130,-20 134,-16 140,-12 143,-10 150,-3 h 152 158 v 0 0 l 7,-3 3,-7 -3,-8 z"
   id="path57"
   inkscape:connector-curvature="0"
   style="fill:#000000;stroke:none" />
        <path
   d="m 11894,14214 16,13 68,-5 49,53 35,102 18,130 v 134 l -15,123 -31,89 -30,33 v 20 l 51,-43 30,-94 15,-128 v -134 l -17,-135 -36,-107 -64,-64 -84,5 16,13 -16,-13 -5,6 v 7 l 8,8 h 8 z"
   id="path59"
   inkscape:connector-curvature="0"
   style="fill:#000000;stroke:none" />
        <path
   d="m 11981,14089 -13,-17 -10,12 -18,28 -23,44 -23,58 21,5 23,-53 23,-44 17,-27 5,-8 -12,-18 12,18 3,-8 -3,-7 -7,-3 -8,3 z"
   id="path61"
   inkscape:connector-curvature="0"
   style="fill:#000000;stroke:none" />
        <path
   d="m 8938,14733 -10,10 43,3 56,-5 63,-5 77,-11 84,-10 91,-15 102,-18 106,-18 112,-20 117,-23 122,-25 125,-26 130,-28 127,-28 129,-28 130,-28 130,-30 127,-31 127,-28 122,-30 117,-28 114,-28 110,-28 101,-26 94,-23 87,-22 78,-23 69,-18 56,-18 48,-15 33,-10 26,-11 -10,-20 -21,10 -33,10 -48,16 -56,17 -69,18 -78,23 -87,23 -94,23 -102,25 -109,28 -114,28 -117,28 -122,31 -127,28 -127,30 -130,31 -130,28 -129,28 -128,28 -129,28 -125,25 -117,26 -117,23 -112,20 -106,18 -102,18 -91,15 -84,10 -77,10 -63,5 h -56 l -43,3 -11,10 11,-10 -8,2 -3,8 3,8 8,2 z"
   id="path63"
   inkscape:connector-curvature="0"
   style="fill:#000000;stroke:none" />
        <path
   d="m 11910,14227 5,-5 v -10 l -8,-6 h -8 z"
   id="path65"
   inkscape:connector-curvature="0"
   style="fill:#000000;stroke:none" />
        <path
   d="m 9144,14855 v 0 l 23,-5 33,-3 45,-7 56,-10 69,-13 76,-15 82,-18 91,-18 102,-20 101,-23 107,-23 115,-23 117,-25 119,-28 120,-26 122,-28 119,-28 122,-28 120,-25 114,-28 114,-28 110,-26 104,-25 99,-23 92,-23 84,-20 76,-21 68,-17 56,-18 49,-13 35,-10 26,-10 -11,-21 -20,11 -35,10 -49,12 -56,18 -68,18 -77,20 -83,21 -92,23 -99,23 -104,25 -110,25 -114,28 -114,28 -120,26 -122,28 -119,28 -123,28 -119,25 -119,28 -117,26 -110,23 -112,22 -101,23 -97,21 -91,18 -87,17 -71,16 -69,12 -56,10 -45,8 -33,3 h -23 v 0 z"
   id="path67"
   inkscape:connector-curvature="0"
   style="fill:#000000;stroke:none" />
        <path
   d="m 9128,15590 v 0 l -53,-43 -46,-86 -33,-120 -18,-137 3,-133 28,-114 53,-76 82,-26 v -25 l -97,35 -58,87 -28,119 -3,133 18,137 33,125 51,96 63,49 v 0 z"
   id="path69"
   inkscape:connector-curvature="0"
   style="fill:#000000;stroke:none" />
        <path
   d="m 9139,14970 v 0 l 28,17 33,69 23,104 15,128 -3,124 -18,104 -35,64 -54,10 -5,21 74,-16 41,-73 18,-110 2,-124 -15,-128 -23,-109 -38,-79 -48,-23 v 0 z"
   id="path71"
   inkscape:connector-curvature="0"
   style="fill:#000000;stroke:none" />
        <path
   d="m 9062,15316 11,10 -13,-61 -10,-59 -3,-58 3,-51 10,-43 18,-39 23,-25 38,-20 -5,-21 -44,21 -33,35 -18,43 -10,49 -7,51 7,58 10,59 13,66 10,10 -10,-10 5,5 8,2 5,-5 3,-7 z"
   id="path73"
   inkscape:connector-curvature="0"
   style="fill:#000000;stroke:none" />
        <path
   d="m 9230,15226 -5,8 -15,8 -23,12 -25,18 -31,18 -25,13 -26,10 -18,3 v 25 l 23,-8 26,-10 30,-13 31,-17 25,-18 23,-13 15,-13 5,-2 z"
   id="path75"
   inkscape:connector-curvature="0"
   style="fill:#000000;stroke:none" />
        <path
   d="m 9240,15247 5,-5 v -10 l -7,-6 h -8 z"
   id="path77"
   inkscape:connector-curvature="0"
   style="fill:#000000;stroke:none" />
        <path
   d="m 9078,14850 -5,5 -3,8 5,5 8,2 z"
   id="path79"
   inkscape:connector-curvature="0"
   style="fill:#000000;stroke:none" />
        <path
   d="m 9172,15692 63,-20 49,-39 35,-53 26,-64 15,-71 7,-76 -2,-79 -10,-79 -16,-81 -22,-71 -28,-69 -33,-56 -39,-48 -43,-31 -48,-13 -48,8 5,20 43,-7 38,12 38,26 33,43 33,56 28,64 23,71 15,76 11,79 2,79 -8,76 -15,66 -25,59 -31,48 -43,33 -53,21 z"
   id="path81"
   inkscape:connector-curvature="0"
   style="fill:#000000;stroke:none" />
        <path
   d="m 9172,15672 -8,2 -2,8 2,7 8,3 z"
   id="path83"
   inkscape:connector-curvature="0"
   style="fill:#000000;stroke:none" />
        <path
   d="m 9136,14949 -8,3 -2,7 2,8 8,3 z"
   id="path85"
   inkscape:connector-curvature="0"
   style="fill:#000000;stroke:none" />
        <path
   d="m 9235,14942 v -11 l -99,18 v 21 l 99,-18 z"
   id="path87"
   inkscape:connector-curvature="0"
   style="fill:#000000;stroke:none" />
        <path
   d="m 9235,14952 8,-3 2,-7 -2,-8 -8,-3 z"
   id="path89"
   inkscape:connector-curvature="0"
   style="fill:#000000;stroke:none" />
        <path
   d="m 9184,15580 -5,5 v 8 l 8,7 h 8 z"
   id="path91"
   inkscape:connector-curvature="0"
   style="fill:#000000;stroke:none" />
        <path
   d="m 9327,15509 -5,-10 -138,81 11,20 137,-81 z"
   id="path93"
   inkscape:connector-curvature="0"
   style="fill:#000000;stroke:none" />
        <path
   d="m 9332,15519 5,-5 v -10 l -8,-5 h -7 z"
   id="path95"
   inkscape:connector-curvature="0"
   style="fill:#000000;stroke:none" />
        <path
   d="m 10476,13891 -1403,605 1123,446 1472,-662 -1164,-381 z"
   id="path97"
   inkscape:connector-curvature="0"
   style="fill:#000000;stroke:none" />
        <path
   d="m 11000,14657 -796,353 -481,-183 -15,69 -23,94 -23,89 -10,53 21,8 22,5 23,8 26,7 25,8 28,10 31,13 30,13 33,17 36,21 38,25 38,28 43,33 43,38 46,44 51,51 48,-34 54,-35 53,-41 56,-41 59,-43 58,-41 58,-43 61,-38 61,-36 59,-33 58,-28 59,-22 56,-13 53,-8 h 54 l 48,13 -3,-36 -7,-48 -10,-51 -13,-56 -15,-53 -13,-49 -13,-40 z"
   id="path99"
   inkscape:connector-curvature="0"
   style="fill:#000000;stroke:none" />
        <path
   d="m 10377,14362 35,-5 44,-3 55,-3 h 61 l 67,3 71,3 71,5 74,5 71,7 66,10 63,13 56,15 46,16 36,18 23,20 10,23 15,191 23,300 23,274 10,120 -18,15 -23,10 -20,8 -23,3 -23,-3 -23,-5 -17,-8 -16,-12 -2,-171 v -277 l -5,-260 -21,-132 -12,-7 -21,-8 -28,-10 -38,-13 -41,-10 -48,-13 -53,-15 -56,-13 -59,-13 -61,-12 -61,-16 -61,-12 -58,-10 -56,-13 -53,-10 -51,-8 z"
   id="path101"
   inkscape:connector-curvature="0"
   style="fill:#ed0021;stroke:none" />
        <path
   d="m 10377,14354 -5,3 -3,5 3,5 5,2 z"
   id="path103"
   inkscape:connector-curvature="0"
   style="fill:#000000;stroke:none" />
        <path
   d="m 11233,14489 v 0 l -10,-28 -25,-23 -38,-18 -46,-15 -59,-15 -63,-13 -66,-10 -71,-8 -74,-5 -71,-5 -71,-3 -67,-5 h -61 l -55,5 -44,3 -35,5 v 15 l 35,-5 44,-2 h 55 61 67 l 71,2 71,5 74,5 71,8 66,10 63,13 54,15 46,15 33,18 20,18 10,18 v 0 z"
   id="path105"
   inkscape:connector-curvature="0"
   style="fill:#000000;stroke:none" />
        <path
   d="m 11302,15379 3,-5 -11,-120 -22,-274 -23,-300 -16,-191 h -15 l 15,191 23,300 23,274 10,120 3,-5 -3,5 3,5 5,3 5,-3 3,-5 z"
   id="path107"
   inkscape:connector-curvature="0"
   style="fill:#000000;stroke:none" />
        <path
   d="m 11127,15382 2,5 15,15 21,8 25,5 23,5 23,-5 23,-8 25,-10 18,-18 -10,-10 -18,13 -20,10 -18,7 h -23 -23 l -20,-5 -15,-7 -16,-10 3,5 -3,-5 -5,-3 -2,3 -3,5 v 5 z"
   id="path109"
   inkscape:connector-curvature="0"
   style="fill:#000000;stroke:none" />
        <path
   d="m 11101,14547 v 0 l 18,127 3,260 v 277 l 5,171 h 15 v -171 -277 l -8,-260 -23,-137 v 0 z"
   id="path111"
   inkscape:connector-curvature="0"
   style="fill:#000000;stroke:none" />
        <path
   d="m 10349,14367 51,7 53,10 56,13 58,10 61,13 61,15 61,13 59,13 56,13 51,15 50,13 39,10 38,12 28,11 20,7 10,5 10,-10 -15,-10 -20,-8 -28,-10 -38,-13 -44,-10 -45,-12 -56,-16 -56,-12 -59,-13 -61,-13 -61,-15 -61,-13 -58,-10 -56,-13 -53,-10 -51,-8 z"
   id="path113"
   inkscape:connector-curvature="0"
   style="fill:#000000;stroke:none" />
        <path
   d="m 10349,14351 -5,3 -3,5 3,5 5,3 z"
   id="path115"
   inkscape:connector-curvature="0"
   style="fill:#000000;stroke:none" />
        <path
   d="m 11218,15402 3,5 5,3 5,-3 2,-5 z"
   id="path117"
   inkscape:connector-curvature="0"
   style="fill:#000000;stroke:none" />
        <path
   d="m 11157,14519 v 0 l 21,135 17,277 13,290 10,181 h 15 l -10,-181 -12,-290 -18,-277 -26,-145 v 0 z"
   id="path119"
   inkscape:connector-curvature="0"
   style="fill:#000000;stroke:none" />
        <path
   d="m 10377,14369 51,8 53,10 58,10 61,10 64,11 64,10 61,10 61,10 58,10 56,10 51,11 46,10 35,10 31,8 20,7 10,5 10,-10 -15,-10 -20,-8 -31,-7 -40,-10 -46,-11 -51,-10 -56,-10 -58,-10 -61,-10 -61,-11 -64,-10 -64,-10 -61,-10 -58,-10 -53,-10 -51,-8 z"
   id="path121"
   inkscape:connector-curvature="0"
   style="fill:#000000;stroke:none" />
        <path
   d="m 10377,14354 -5,3 -3,5 3,5 5,2 z"
   id="path123"
   inkscape:connector-curvature="0"
   style="fill:#000000;stroke:none" />
        <path
   d="m 10356,14430 31,-5 25,-7 26,-11 20,-10 18,-13 13,-12 7,-15 v -16 l -5,-15 -10,-13 -15,-10 -18,-8 -23,-5 -25,-5 h -28 l -31,3 -30,5 -26,8 -25,10 -21,10 -15,13 -13,15 -7,13 -3,15 5,15 11,13 15,10 18,8 22,5 26,5 h 28 z"
   id="path125"
   inkscape:connector-curvature="0"
   style="fill:#000000;stroke:none" />
        <path
   d="m 10486,14341 v 0 13 l -8,13 -10,10 -15,10 -20,10 -23,10 -26,8 -28,5 v 20 l 33,-5 26,-7 28,-10 20,-11 20,-15 16,-15 7,-18 v -18 0 z"
   id="path127"
   inkscape:connector-curvature="0"
   style="fill:#ffffff;stroke:none" />
        <path
   d="m 10341,14298 v 0 h 31 l 28,-3 22,6 23,5 16,7 12,8 8,10 5,10 h 20 l -5,-20 -12,-15 -18,-13 -21,-8 -22,-5 -28,-5 -28,-2 -31,5 v 0 z"
   id="path129"
   inkscape:connector-curvature="0"
   style="fill:#ffffff;stroke:none" />
        <path
   d="m 10211,14377 v 0 l 3,-13 8,-10 10,-13 13,-10 20,-10 23,-10 25,-8 28,-5 v -20 l -33,5 -25,7 -28,11 -21,10 -17,15 -16,18 -7,15 -3,18 v 0 z"
   id="path131"
   inkscape:connector-curvature="0"
   style="fill:#ffffff;stroke:none" />
        <path
   d="m 10356,14420 v 0 h -30 l -28,3 -23,-5 -23,-6 -15,-7 -13,-8 -7,-10 -6,-10 h -20 l 5,20 13,15 18,13 20,8 23,5 28,5 28,3 30,-6 v 0 z"
   id="path133"
   inkscape:connector-curvature="0"
   style="fill:#ffffff;stroke:none" />
       </g>
      </g>
     </g>
    </g>
   </g>
  </g>
 </g>
</svg>