<?xml version="1.0" encoding="UTF-8" standalone="no"?>
<svg
   xmlns:ooo="http://xml.openoffice.org/svg/export"
   xmlns:dc="http://purl.org/dc/elements/1.1/"
   xmlns:cc="http://creativecommons.org/ns#"
   xmlns:rdf="http://www.w3.org/1999/02/22-rdf-syntax-ns#"
   xmlns:svg="http://www.w3.org/2000/svg"
   xmlns="http://www.w3.org/2000/svg"
   xmlns:sodipodi="http://sodipodi.sourceforge.net/DTD/sodipodi-0.dtd"
   xmlns:inkscape="http://www.inkscape.org/namespaces/inkscape"
   version="1.2"
   width="23.01mm"
   height="25.450001mm"
   viewBox="0 0 2301 2545.0001"
   preserveAspectRatio="xMidYMid"
   xml:space="preserve"
   id="svg113"
   sodipodi:docname="drumrol.svg"
   style="fill-rule:evenodd;stroke-width:28.22200012;stroke-linejoin:round"
   inkscape:version="0.92.5 (2060ec1f9f, 2020-04-08)"><metadata
   id="metadata117"><rdf:RDF><cc:Work
       rdf:about=""><dc:format>image/svg+xml</dc:format><dc:type
         rdf:resource="http://purl.org/dc/dcmitype/StillImage" /></cc:Work></rdf:RDF></metadata><sodipodi:namedview
   pagecolor="#ffffff"
   bordercolor="#666666"
   borderopacity="1"
   objecttolerance="10"
   gridtolerance="10"
   guidetolerance="10"
   inkscape:pageopacity="0"
   inkscape:pageshadow="2"
   inkscape:window-width="664"
   inkscape:window-height="487"
   id="namedview115"
   showgrid="false"
   inkscape:zoom="0.2102413"
   inkscape:cx="43.502363"
   inkscape:cy="48.075589"
   inkscape:window-x="0"
   inkscape:window-y="0"
   inkscape:window-maximized="0"
   inkscape:current-layer="svg113" />
 <defs
   class="ClipPathGroup"
   id="defs8">
  <clipPath
   id="presentation_clip_path"
   clipPathUnits="userSpaceOnUse">
   <rect
   x="0"
   y="0"
   width="21000"
   height="29700"
   id="rect2" />
  </clipPath>
  <clipPath
   id="presentation_clip_path_shrink"
   clipPathUnits="userSpaceOnUse">
   <rect
   x="21"
   y="29"
   width="20958"
   height="29641"
   id="rect5" />
  </clipPath>
 </defs>
 <defs
   class="TextShapeIndex"
   id="defs12">
  <g
   ooo:slide="id1"
   ooo:id-list="id3"
   id="g10" />
 </defs>
 <defs
   class="EmbeddedBulletChars"
   id="defs44">
  <g
   id="bullet-char-template-57356"
   transform="matrix(4.8828125e-4,0,0,-4.8828125e-4,0,0)">
   <path
   d="M 580,1141 1163,571 580,0 -4,571 Z"
   id="path14"
   inkscape:connector-curvature="0" />
  </g>
  <g
   id="bullet-char-template-57354"
   transform="matrix(4.8828125e-4,0,0,-4.8828125e-4,0,0)">
   <path
   d="M 8,1128 H 1137 V 0 H 8 Z"
   id="path17"
   inkscape:connector-curvature="0" />
  </g>
  <g
   id="bullet-char-template-10146"
   transform="matrix(4.8828125e-4,0,0,-4.8828125e-4,0,0)">
   <path
   d="M 174,0 602,739 174,1481 1456,739 Z M 1358,739 309,1346 659,739 Z"
   id="path20"
   inkscape:connector-curvature="0" />
  </g>
  <g
   id="bullet-char-template-10132"
   transform="matrix(4.8828125e-4,0,0,-4.8828125e-4,0,0)">
   <path
   d="M 2015,739 1276,0 H 717 l 543,543 H 174 v 393 h 1086 l -543,545 h 557 z"
   id="path23"
   inkscape:connector-curvature="0" />
  </g>
  <g
   id="bullet-char-template-10007"
   transform="matrix(4.8828125e-4,0,0,-4.8828125e-4,0,0)">
   <path
   d="m 0,-2 c -7,16 -16,29 -25,39 l 381,530 c -94,256 -141,385 -141,387 0,25 13,38 40,38 9,0 21,-2 34,-5 21,4 42,12 65,25 l 27,-13 111,-251 280,301 64,-25 24,25 c 21,-10 41,-24 62,-43 C 886,937 835,863 770,784 769,783 710,716 594,584 L 774,223 c 0,-27 -21,-55 -63,-84 l 16,-20 C 717,90 699,76 672,76 641,76 570,178 457,381 L 164,-76 c -22,-34 -53,-51 -92,-51 -42,0 -63,17 -64,51 -7,9 -10,24 -10,44 0,9 1,19 2,30 z"
   id="path26"
   inkscape:connector-curvature="0" />
  </g>
  <g
   id="bullet-char-template-10004"
   transform="matrix(4.8828125e-4,0,0,-4.8828125e-4,0,0)">
   <path
   d="M 285,-33 C 182,-33 111,30 74,156 52,228 41,333 41,471 c 0,78 14,145 41,201 34,71 87,106 158,106 53,0 88,-31 106,-94 l 23,-176 c 8,-64 28,-97 59,-98 l 735,706 c 11,11 33,17 66,17 42,0 63,-15 63,-46 V 965 c 0,-36 -10,-64 -30,-84 L 442,47 C 390,-6 338,-33 285,-33 Z"
   id="path29"
   inkscape:connector-curvature="0" />
  </g>
  <g
   id="bullet-char-template-9679"
   transform="matrix(4.8828125e-4,0,0,-4.8828125e-4,0,0)">
   <path
   d="M 813,0 C 632,0 489,54 383,161 276,268 223,411 223,592 c 0,181 53,324 160,431 106,107 249,161 430,161 179,0 323,-54 432,-161 108,-107 162,-251 162,-431 0,-180 -54,-324 -162,-431 C 1136,54 992,0 813,0 Z"
   id="path32"
   inkscape:connector-curvature="0" />
  </g>
  <g
   id="bullet-char-template-8226"
   transform="matrix(4.8828125e-4,0,0,-4.8828125e-4,0,0)">
   <path
   d="m 346,457 c -73,0 -137,26 -191,78 -54,51 -81,114 -81,188 0,73 27,136 81,188 54,52 118,78 191,78 73,0 134,-26 185,-79 51,-51 77,-114 77,-187 0,-75 -25,-137 -76,-188 -50,-52 -112,-78 -186,-78 z"
   id="path35"
   inkscape:connector-curvature="0" />
  </g>
  <g
   id="bullet-char-template-8211"
   transform="matrix(4.8828125e-4,0,0,-4.8828125e-4,0,0)">
   <path
   d="M -4,459 H 1135 V 606 H -4 Z"
   id="path38"
   inkscape:connector-curvature="0" />
  </g>
  <g
   id="bullet-char-template-61548"
   transform="matrix(4.8828125e-4,0,0,-4.8828125e-4,0,0)">
   <path
   d="m 173,740 c 0,163 58,303 173,419 116,115 255,173 419,173 163,0 302,-58 418,-173 116,-116 174,-256 174,-419 0,-163 -58,-303 -174,-418 C 1067,206 928,148 765,148 601,148 462,206 346,322 231,437 173,577 173,740 Z"
   id="path41"
   inkscape:connector-curvature="0" />
  </g>
 </defs>
 <g
   id="g49"
   transform="translate(-9349,-13577)">
  <g
   id="id2"
   class="Master_Slide">
   <g
   id="bg-id2"
   class="Background" />
   <g
   id="bo-id2"
   class="BackgroundObjects" />
  </g>
 </g>
 <g
   class="SlideGroup"
   id="g111"
   transform="translate(-9349,-13577)">
  <g
   id="g109">
   <g
   id="container-id1">
    <g
   id="id1"
   class="Slide"
   clip-path="url(#presentation_clip_path)">
     <g
   class="Page"
   id="g105">
      <g
   class="Graphic"
   id="g103">
       <g
   id="id3">
        <rect
   class="BoundingBox"
   x="9349"
   y="13577"
   width="2301"
   height="2545"
   id="rect51"
   style="fill:none;stroke:none" />
        <defs
   id="defs56">
         <clipPath
   id="clip_path_1"
   clipPathUnits="userSpaceOnUse">
          <path
   d="m 9349,13577 h 2300 v 2544 H 9349 Z"
   id="path53"
   inkscape:connector-curvature="0" />
         </clipPath>
        </defs>
        <g
   clip-path="url(#clip_path_1)"
   id="g100">
         <path
   d="m 10747,14922 -78,8 -77,10 -73,10 -69,13 -66,15 -64,15 -58,15 -54,18 -48,18 -43,18 -38,18 -31,20 -23,18 -17,20 -11,18 -2,20 v 3 2 3 l 2,2 181,799 5,18 13,15 17,12 26,13 30,13 36,10 43,10 46,8 51,5 53,5 59,3 61,2 h 63 l 66,-2 69,-6 71,-5 71,-7 69,-8 66,-13 64,-10 61,-12 56,-13 53,-15 48,-16 44,-17 38,-16 35,-18 28,-17 21,-16 17,-17 8,-18 3,-18 -33,-821 -5,-18 -16,-18 -20,-15 -28,-15 -33,-13 -41,-13 -46,-10 -50,-7 -56,-8 -61,-5 -64,-3 -69,-2 -71,2 -74,3 -76,2 z"
   id="path58"
   inkscape:connector-curvature="0"
   style="fill:#000000;stroke:none" />
         <path
   d="m 10038,15303 198,666 -71,-600 h -2 l -13,-2 -20,-8 -33,-15 -36,-20 -15,-13 -8,-5 z"
   id="path60"
   inkscape:connector-curvature="0"
   style="fill:#ea1c1c;stroke:none" />
         <path
   d="m 10290,15392 206,618 -69,-610 -8,2 -17,3 -21,3 -20,-3 -41,-5 -20,-5 z"
   id="path62"
   inkscape:connector-curvature="0"
   style="fill:#ea1c1c;stroke:none" />
         <path
   d="m 10447,15997 h -2 -5 l -10,3 h -13 -13 -18 l -17,-3 -21,-2 -30,-8 -13,-7 -5,-5 v -3 l -94,-592 z"
   id="path64"
   inkscape:connector-curvature="0"
   style="fill:#004cb2;stroke:none" />
         <path
   d="m 10709,16013 h -2 l -5,2 -8,3 -13,2 -15,3 -15,2 h -18 l -20,-2 -28,-8 -13,-7 -5,-5 v -3 l -94,-618 z"
   id="path66"
   inkscape:connector-curvature="0"
   style="fill:#004cb2;stroke:none" />
         <path
   d="m 10956,15985 h -3 l -5,5 -7,2 -11,5 -12,6 -18,2 -15,3 -21,-3 -33,-5 -17,-3 h -8 -3 l -17,-600 z"
   id="path68"
   inkscape:connector-curvature="0"
   style="fill:#004cb2;stroke:none" />
         <path
   d="m 10557,15385 203,628 -61,-626 h -2 l -6,3 h -20 l -35,2 h -23 -18 l -13,-2 h -10 l -8,-3 h -5 z"
   id="path70"
   inkscape:connector-curvature="0"
   style="fill:#ea1c1c;stroke:none" />
         <path
   d="m 11520,15186 -53,692 -48,-603 2,-2 13,-5 18,-13 28,-20 30,-26 10,-15 3,-5 z"
   id="path72"
   inkscape:connector-curvature="0"
   style="fill:#ea1c1c;stroke:none" />
         <path
   d="m 11322,15306 -79,641 -53,-600 7,-3 18,-3 21,-5 20,-5 38,-12 20,-8 z"
   id="path74"
   inkscape:connector-curvature="0"
   style="fill:#ea1c1c;stroke:none" />
         <path
   d="m 11274,15936 h 2 5 l 11,-2 h 12 l 13,-3 18,-5 18,-5 17,-5 28,-13 13,-12 3,-5 v -3 l -28,-600 z"
   id="path76"
   inkscape:connector-curvature="0"
   style="fill:#004cb2;stroke:none" />
         <path
   d="m 11035,15985 h 2 l 5,2 h 11 12 15 16 l 20,-5 18,-5 28,-13 13,-10 2,-5 v -2 l -28,-600 z"
   id="path78"
   inkscape:connector-curvature="0"
   style="fill:#004cb2;stroke:none" />
         <path
   d="m 11070,15359 -84,631 -94,-595 v 0 h 5 5 8 13 l 13,-3 17,-2 21,-3 25,-2 20,-5 16,-5 15,-6 8,-2 7,-5 z"
   id="path80"
   inkscape:connector-curvature="0"
   style="fill:#ea1c1c;stroke:none" />
         <path
   d="m 10750,14958 66,-6 64,-5 63,-2 h 61 61 l 59,2 56,5 50,6 49,5 43,7 38,10 31,11 28,10 20,12 13,13 5,15 -3,16 -10,15 -18,18 -23,15 -30,15 -38,16 -41,15 -46,15 -48,15 -53,13 -59,13 -58,12 -61,11 -64,10 -64,7 -63,8 -64,5 -66,3 -63,2 h -61 -61 l -59,-2 -56,-3 -51,-5 -48,-8 -43,-7 -38,-8 -33,-10 -28,-13 -21,-12 -12,-13 -5,-15 2,-16 10,-15 18,-18 25,-15 31,-15 36,-15 40,-16 46,-15 51,-15 53,-13 56,-13 61,-10 61,-13 64,-7 63,-8 z"
   id="path82"
   inkscape:connector-curvature="0"
   style="fill:#adbfce;stroke:none" />
         <path
   d="m 9870,13674 h 15 l 16,7 18,10 15,16 15,15 10,13 8,10 2,2 5,5 16,18 25,28 33,38 38,44 44,50 48,56 53,59 54,61 53,61 53,61 51,58 49,56 45,51 39,46 33,38 40,43 38,46 39,43 38,41 38,43 35,38 33,38 31,33 28,34 28,27 23,26 18,23 17,18 11,12 7,8 3,2 v 11 l 2,12 8,13 10,13 8,10 5,5 10,5 25,5 21,18 20,28 15,30 v 18 l -12,16 h -6 l -10,-3 -12,-8 -13,-10 -15,-10 -13,-13 -10,-12 -5,-11 -5,-22 -3,-13 -8,-5 -7,-10 -13,-13 -13,-8 -12,-7 -8,-3 -3,-2 -7,-8 -10,-13 -16,-18 -17,-22 -23,-26 -26,-28 -28,-30 -30,-36 -33,-36 -33,-40 -36,-41 -38,-41 -38,-43 -38,-43 -38,-43 -36,-38 -41,-46 -45,-54 -51,-56 -54,-61 -56,-61 -53,-61 -56,-61 -53,-61 -49,-53 -45,-51 -41,-46 -33,-35 -26,-31 -15,-18 -5,-5 -2,-5 -11,-10 -12,-15 -13,-18 -13,-20 -7,-16 v -15 z"
   id="path84"
   inkscape:connector-curvature="0"
   style="fill:#000000;stroke:none" />
         <path
   d="m 9382,14147 15,-6 18,3 18,8 18,7 17,13 16,8 10,7 2,3 8,5 20,13 31,20 41,25 50,33 56,36 61,41 67,40 68,44 69,45 68,44 67,43 63,38 56,38 51,31 43,27 51,34 48,30 49,33 48,31 46,28 45,28 41,28 41,22 35,23 33,23 28,18 26,15 20,10 13,11 10,5 3,2 2,8 8,13 10,10 13,10 10,5 7,5 h 11 25 l 13,5 13,8 12,10 15,13 13,12 8,13 7,10 v 5 l -7,18 -5,3 h -10 l -16,-5 -15,-6 -15,-5 -15,-7 -13,-10 -10,-8 -11,-23 -7,-10 -10,-5 -10,-8 -16,-7 -15,-6 -13,-2 h -10 l -2,-3 -11,-5 -12,-10 -21,-13 -23,-15 -27,-18 -34,-20 -33,-23 -40,-23 -41,-28 -43,-28 -46,-28 -46,-30 -48,-31 -51,-33 -48,-30 -43,-28 -54,-33 -58,-36 -64,-41 -68,-43 -69,-43 -71,-46 -69,-43 -66,-43 -64,-38 -58,-36 -48,-33 -44,-25 -30,-21 -21,-12 -7,-6 -5,-2 -13,-8 -15,-12 -18,-16 -15,-12 -13,-16 -5,-12 z"
   id="path86"
   inkscape:connector-curvature="0"
   style="fill:#000000;stroke:none" />
         <path
   d="m 10308,14825 142,105 -31,5 -28,5 -28,2 -22,5 -18,3 -15,2 -11,3 h -2 l 84,-48 z"
   id="path88"
   inkscape:connector-curvature="0"
   style="fill:#000000;stroke:none" />
         <path
   d="m 9835,13648 15,-7 15,-3 18,3 18,5 15,10 15,10 15,13 11,12 -11,-28 -12,-22 -18,-16 -18,-12 -18,-3 -17,3 -16,12 z"
   id="path90"
   inkscape:connector-curvature="0"
   style="fill:#000000;stroke:none" />
         <path
   d="m 11040,14871 -36,8 -180,-219 56,51 z"
   id="path92"
   inkscape:connector-curvature="0"
   style="fill:#000000;stroke:none" />
         <path
   d="m 11597,15764 5,43 v 43 l -3,41 -2,33 -5,12 -11,11 -17,7 -23,8 -23,10 -26,8 -23,10 -22,13 33,-6 35,-7 36,-8 30,-10 28,-8 21,-7 15,-5 5,-3 z"
   id="path94"
   inkscape:connector-curvature="0"
   style="fill:#000000;stroke:none" />
         <path
   d="m 9349,14187 10,15 15,13 13,13 15,10 13,8 10,5 8,5 h 2 l -12,2 -13,3 -10,-3 -10,-2 -13,-10 -8,-13 -10,-20 z"
   id="path96"
   inkscape:connector-curvature="0"
   style="fill:#000000;stroke:none" />
         <path
   d="m 10043,15540 15,61 21,84 23,79 12,53 8,46 8,61 10,53 2,23 -112,-425 z"
   id="path98"
   inkscape:connector-curvature="0"
   style="fill:#000000;stroke:none" />
        </g>
       </g>
      </g>
     </g>
    </g>
   </g>
  </g>
 </g>
</svg>