<?xml version="1.0" encoding="UTF-8" standalone="no"?>
<svg
   xmlns:ooo="http://xml.openoffice.org/svg/export"
   xmlns:dc="http://purl.org/dc/elements/1.1/"
   xmlns:cc="http://creativecommons.org/ns#"
   xmlns:rdf="http://www.w3.org/1999/02/22-rdf-syntax-ns#"
   xmlns:svg="http://www.w3.org/2000/svg"
   xmlns="http://www.w3.org/2000/svg"
   xmlns:sodipodi="http://sodipodi.sourceforge.net/DTD/sodipodi-0.dtd"
   xmlns:inkscape="http://www.inkscape.org/namespaces/inkscape"
   version="1.2"
   width="30.889999mm"
   height="40.23mm"
   viewBox="0 0 3088.9999 4023"
   preserveAspectRatio="xMidYMid"
   xml:space="preserve"
   id="svg77"
   sodipodi:docname="duck.svg"
   style="fill-rule:evenodd;stroke-width:28.22200012;stroke-linejoin:round"
   inkscape:version="0.92.5 (2060ec1f9f, 2020-04-08)"><metadata
   id="metadata81"><rdf:RDF><cc:Work
       rdf:about=""><dc:format>image/svg+xml</dc:format><dc:type
         rdf:resource="http://purl.org/dc/dcmitype/StillImage" /></cc:Work></rdf:RDF></metadata><sodipodi:namedview
   pagecolor="#ffffff"
   bordercolor="#666666"
   borderopacity="1"
   objecttolerance="10"
   gridtolerance="10"
   guidetolerance="10"
   inkscape:pageopacity="0"
   inkscape:pageshadow="2"
   inkscape:window-width="664"
   inkscape:window-height="487"
   id="namedview79"
   showgrid="false"
   inkscape:zoom="0.2102413"
   inkscape:cx="58.393702"
   inkscape:cy="76.006298"
   inkscape:window-x="0"
   inkscape:window-y="0"
   inkscape:window-maximized="0"
   inkscape:current-layer="svg77" />
 <defs
   class="ClipPathGroup"
   id="defs8">
  <clipPath
   id="presentation_clip_path"
   clipPathUnits="userSpaceOnUse">
   <rect
   x="0"
   y="0"
   width="21000"
   height="29700"
   id="rect2" />
  </clipPath>
  <clipPath
   id="presentation_clip_path_shrink"
   clipPathUnits="userSpaceOnUse">
   <rect
   x="21"
   y="29"
   width="20958"
   height="29641"
   id="rect5" />
  </clipPath>
 </defs>
 <defs
   class="TextShapeIndex"
   id="defs12">
  <g
   ooo:slide="id1"
   ooo:id-list="id3"
   id="g10" />
 </defs>
 <defs
   class="EmbeddedBulletChars"
   id="defs44">
  <g
   id="bullet-char-template-57356"
   transform="matrix(4.8828125e-4,0,0,-4.8828125e-4,0,0)">
   <path
   d="M 580,1141 1163,571 580,0 -4,571 Z"
   id="path14"
   inkscape:connector-curvature="0" />
  </g>
  <g
   id="bullet-char-template-57354"
   transform="matrix(4.8828125e-4,0,0,-4.8828125e-4,0,0)">
   <path
   d="M 8,1128 H 1137 V 0 H 8 Z"
   id="path17"
   inkscape:connector-curvature="0" />
  </g>
  <g
   id="bullet-char-template-10146"
   transform="matrix(4.8828125e-4,0,0,-4.8828125e-4,0,0)">
   <path
   d="M 174,0 602,739 174,1481 1456,739 Z M 1358,739 309,1346 659,739 Z"
   id="path20"
   inkscape:connector-curvature="0" />
  </g>
  <g
   id="bullet-char-template-10132"
   transform="matrix(4.8828125e-4,0,0,-4.8828125e-4,0,0)">
   <path
   d="M 2015,739 1276,0 H 717 l 543,543 H 174 v 393 h 1086 l -543,545 h 557 z"
   id="path23"
   inkscape:connector-curvature="0" />
  </g>
  <g
   id="bullet-char-template-10007"
   transform="matrix(4.8828125e-4,0,0,-4.8828125e-4,0,0)">
   <path
   d="m 0,-2 c -7,16 -16,29 -25,39 l 381,530 c -94,256 -141,385 -141,387 0,25 13,38 40,38 9,0 21,-2 34,-5 21,4 42,12 65,25 l 27,-13 111,-251 280,301 64,-25 24,25 c 21,-10 41,-24 62,-43 C 886,937 835,863 770,784 769,783 710,716 594,584 L 774,223 c 0,-27 -21,-55 -63,-84 l 16,-20 C 717,90 699,76 672,76 641,76 570,178 457,381 L 164,-76 c -22,-34 -53,-51 -92,-51 -42,0 -63,17 -64,51 -7,9 -10,24 -10,44 0,9 1,19 2,30 z"
   id="path26"
   inkscape:connector-curvature="0" />
  </g>
  <g
   id="bullet-char-template-10004"
   transform="matrix(4.8828125e-4,0,0,-4.8828125e-4,0,0)">
   <path
   d="M 285,-33 C 182,-33 111,30 74,156 52,228 41,333 41,471 c 0,78 14,145 41,201 34,71 87,106 158,106 53,0 88,-31 106,-94 l 23,-176 c 8,-64 28,-97 59,-98 l 735,706 c 11,11 33,17 66,17 42,0 63,-15 63,-46 V 965 c 0,-36 -10,-64 -30,-84 L 442,47 C 390,-6 338,-33 285,-33 Z"
   id="path29"
   inkscape:connector-curvature="0" />
  </g>
  <g
   id="bullet-char-template-9679"
   transform="matrix(4.8828125e-4,0,0,-4.8828125e-4,0,0)">
   <path
   d="M 813,0 C 632,0 489,54 383,161 276,268 223,411 223,592 c 0,181 53,324 160,431 106,107 249,161 430,161 179,0 323,-54 432,-161 108,-107 162,-251 162,-431 0,-180 -54,-324 -162,-431 C 1136,54 992,0 813,0 Z"
   id="path32"
   inkscape:connector-curvature="0" />
  </g>
  <g
   id="bullet-char-template-8226"
   transform="matrix(4.8828125e-4,0,0,-4.8828125e-4,0,0)">
   <path
   d="m 346,457 c -73,0 -137,26 -191,78 -54,51 -81,114 -81,188 0,73 27,136 81,188 54,52 118,78 191,78 73,0 134,-26 185,-79 51,-51 77,-114 77,-187 0,-75 -25,-137 -76,-188 -50,-52 -112,-78 -186,-78 z"
   id="path35"
   inkscape:connector-curvature="0" />
  </g>
  <g
   id="bullet-char-template-8211"
   transform="matrix(4.8828125e-4,0,0,-4.8828125e-4,0,0)">
   <path
   d="M -4,459 H 1135 V 606 H -4 Z"
   id="path38"
   inkscape:connector-curvature="0" />
  </g>
  <g
   id="bullet-char-template-61548"
   transform="matrix(4.8828125e-4,0,0,-4.8828125e-4,0,0)">
   <path
   d="m 173,740 c 0,163 58,303 173,419 116,115 255,173 419,173 163,0 302,-58 418,-173 116,-116 174,-256 174,-419 0,-163 -58,-303 -174,-418 C 1067,206 928,148 765,148 601,148 462,206 346,322 231,437 173,577 173,740 Z"
   id="path41"
   inkscape:connector-curvature="0" />
  </g>
 </defs>
 <g
   id="g49"
   transform="translate(-8955,-12838)">
  <g
   id="id2"
   class="Master_Slide">
   <g
   id="bg-id2"
   class="Background" />
   <g
   id="bo-id2"
   class="BackgroundObjects" />
  </g>
 </g>
 <g
   class="SlideGroup"
   id="g75"
   transform="translate(-8955,-12838)">
  <g
   id="g73">
   <g
   id="container-id1">
    <g
   id="id1"
   class="Slide"
   clip-path="url(#presentation_clip_path)">
     <g
   class="Page"
   id="g69">
      <g
   class="Graphic"
   id="g67">
       <g
   id="id3">
        <rect
   class="BoundingBox"
   x="8955"
   y="12838"
   width="3089"
   height="4023"
   id="rect51"
   style="fill:none;stroke:none" />
        <defs
   id="defs56">
         <clipPath
   id="clip_path_1"
   clipPathUnits="userSpaceOnUse">
          <path
   d="m 8955,12838 h 3088 v 4022 H 8955 Z"
   id="path53"
   inkscape:connector-curvature="0" />
         </clipPath>
        </defs>
        <g
   clip-path="url(#clip_path_1)"
   id="g64">
         <path
   d="m 11347,13087 -15,-23 -20,-33 -23,-41 -26,-43 -33,-40 -38,-36 -45,-23 -54,-10 h -30 l -33,3 -36,5 -36,7 -35,13 -38,18 -38,23 -34,30 -35,36 -31,45 -28,56 -25,64 -20,74 -16,86 -10,97 -2,111 15,-2 h 20 23 26 l 28,2 30,5 31,6 33,5 33,10 33,10 30,13 31,12 28,16 25,17 23,21 18,23 7,-33 8,-36 13,-33 15,-31 15,-25 18,-18 20,-10 h 21 l 33,3 18,-8 7,-10 3,-13 35,-5 44,-2 45,-3 44,-5 40,-5 36,-8 28,-13 18,-15 30,-2 36,-3 38,-5 38,-8 38,-10 31,-12 23,-18 12,-23 -2,-8 -8,-7 -15,-13 -21,-13 -25,-15 -28,-15 -33,-18 -33,-18 -36,-15 -38,-18 -35,-15 -38,-15 -36,-11 -33,-12 -31,-8 z"
   id="path58"
   inkscape:connector-curvature="0"
   style="fill:#000000;stroke:none" />
         <path
   d="m 11223,13987 28,20 40,31 49,38 58,43 64,53 71,56 71,64 71,63 72,71 66,69 63,74 56,71 46,74 35,68 23,69 8,66 -5,61 -10,58 -18,56 -23,54 -28,50 -33,49 -36,45 -35,41 -41,41 -38,38 -38,35 -36,31 -35,30 -31,28 -25,23 -23,23 -38,46 -33,51 -33,53 -33,56 -31,56 -35,53 -39,49 -40,43 -26,20 -28,20 -30,21 -36,20 -38,20 -36,21 -40,20 -38,20 -36,23 -36,21 -33,20 -30,20 -25,23 -21,20 -15,21 -8,20 -15,84 -10,84 -3,68 v 39 22 l 5,23 16,21 28,10 20,5 28,5 30,8 36,5 36,7 35,8 33,5 31,5 30,3 38,5 44,7 45,5 44,6 43,2 38,3 33,-3 -20,15 -21,13 -15,10 -5,3 23,5 23,7 18,8 15,8 13,7 12,8 13,8 13,5 h -16 -20 l -23,2 h -25 -28 l -28,3 h -33 -36 -35 -39 l -40,-3 -43,-2 -44,-3 -43,-5 -46,-5 -45,-8 -77,5 -78,6 -82,5 -81,2 -79,3 h -79 l -79,2 h -71 -71 -64 -58 -53 l -44,-2 h -35 -28 -15 l 17,-16 18,-17 15,-16 18,-7 h -35 l -31,-3 h -25 l -23,-2 -21,-3 h -20 l -18,-2 -20,-3 28,-5 28,-3 28,-5 33,-2 h 30 l 31,-3 h 30 31 30 28 26 23 20 l 18,-2 h 13 10 l 18,-3 22,-5 28,-5 31,-8 33,-2 33,-3 h 36 l 33,3 h 30 l 26,-8 22,-15 18,-20 13,-26 8,-28 5,-25 2,-28 v -61 -71 -69 -53 l -15,-3 -20,-2 -26,-5 -30,-11 -36,-10 -38,-12 -41,-16 -40,-15 -44,-18 -43,-20 -41,-20 -40,-23 -36,-23 -35,-26 -28,-25 -26,-25 -46,-21 -48,-30 -48,-33 -48,-36 -51,-33 -49,-28 -48,-23 -46,-10 -45,-5 -49,-8 -48,-7 -46,-10 -43,-13 -36,-13 -25,-15 -18,-20 -46,17 -58,16 -61,10 -56,7 -46,-2 -25,-13 -3,-20 33,-36 -30,11 -23,2 -13,-5 -7,-8 v -10 l 5,-10 10,-10 10,-10 -25,-10 -16,-11 -10,-12 -2,-16 7,-15 13,-13 20,-10 28,-10 33,-10 41,-18 43,-20 46,-26 46,-25 43,-25 38,-23 33,-23 31,-26 33,-30 35,-36 36,-38 35,-35 36,-36 31,-30 30,-26 31,-18 33,-17 33,-13 33,-15 30,-13 28,-13 26,-13 20,-15 25,-23 36,-40 46,-54 51,-58 56,-59 55,-58 54,-51 51,-38 25,-15 33,-13 36,-13 40,-12 44,-10 45,-13 49,-10 46,-11 48,-10 43,-10 43,-13 41,-12 36,-13 30,-15 25,-18 18,-18 23,-38 10,-30 v -31 l -5,-23 -10,-23 -10,-17 -10,-13 -5,-13 33,-33 35,-38 36,-41 35,-40 34,-38 30,-31 25,-25 21,-13 18,-8 17,-7 18,-8 15,-8 16,-5 15,-5 13,-2 z"
   id="path60"
   inkscape:connector-curvature="0"
   style="fill:#000000;stroke:none" />
         <path
   d="m 11124,13949 35,-3 36,-3 35,-2 h 33 l 31,2 33,6 31,7 30,10 33,16 36,20 38,23 38,23 41,23 40,17 44,11 40,5 26,-3 28,-10 25,-15 25,-23 23,-26 16,-30 10,-33 5,-38 -5,-46 -18,-56 -28,-61 -41,-58 -48,-56 -56,-46 -66,-31 -74,-12 -35,2 -33,5 -28,8 -26,13 -23,12 -23,16 -20,15 -20,15 -21,15 -22,16 -23,15 -26,13 -28,12 -30,8 -36,5 -40,3 -41,-39 -48,-30 -51,-28 -54,-20 -56,-13 -58,-10 -56,-3 -56,5 -53,10 -49,16 -45,23 -39,30 -33,38 -25,43 -15,51 -5,59 12,109 38,84 51,61 61,41 64,25 61,10 h 48 l 33,-8 -35,28 -33,18 -33,15 -28,11 -28,5 -26,2 -23,3 h -20 l -48,-13 -41,-30 -31,-51 -30,-61 -31,-71 -35,-74 -46,-76 -61,-71 -48,-23 -49,-11 -45,-2 -46,5 -46,13 -43,15 -43,20 -41,21 -41,20 -40,20 -38,16 -39,12 -38,5 -38,-2 -35,-10 -36,-23 -5,15 -10,25 -10,36 -16,41 -12,43 -13,41 -13,38 -10,28 76,-3 69,-8 61,-10 56,-15 48,-18 43,-20 41,-18 36,-20 30,-21 31,-17 25,-18 26,-13 25,-10 25,-8 h 23 l 26,5 45,23 41,33 33,44 33,43 31,46 30,40 33,36 36,20 -59,-33 -56,-18 -53,-10 -53,3 -51,10 -51,15 -51,23 -48,25 -51,26 -48,25 -51,26 -48,22 -51,18 -54,10 -53,3 -53,-8 17,23 21,23 17,23 21,23 18,23 17,23 21,20 18,20 55,-2 51,-8 46,-13 43,-15 41,-18 36,-20 33,-20 30,-23 28,-23 28,-20 25,-21 26,-18 25,-15 28,-13 26,-7 28,-3 53,3 48,2 44,8 40,8 38,7 36,5 36,5 38,3 23,-3 28,-10 30,-18 36,-20 40,-25 41,-31 41,-33 43,-33 41,-35 40,-36 38,-36 36,-35 31,-31 28,-30 22,-26 16,-22 -11,-18 -12,-15 -13,-16 -15,-15 -13,-13 -13,-12 -10,-11 -5,-12 -28,53 -33,48 -35,46 -41,38 -38,36 -41,23 -36,18 -30,5 -25,5 -31,-5 -33,-8 -36,-18 -30,-25 -26,-33 -17,-38 -8,-49 5,-68 13,-56 20,-41 26,-30 30,-21 36,-10 38,-2 43,5 41,7 40,16 44,17 38,18 35,20 31,18 28,18 20,13 186,30 23,-25 25,-28 33,-33 36,-33 35,-28 36,-26 35,-17 31,-5 36,10 45,28 49,38 45,48 39,51 22,51 5,48 -22,36 -18,7 -23,-2 -25,-8 -28,-10 -28,-15 -31,-16 -30,-12 -28,-8 -31,-5 -36,-10 -35,-8 -36,-10 -38,-8 -33,-7 -28,-3 h -25 l -181,-30 8,15 13,15 12,16 13,17 13,16 12,12 8,10 z"
   id="path62"
   inkscape:connector-curvature="0"
   style="fill:#000000;stroke:none" />
        </g>
       </g>
      </g>
     </g>
    </g>
   </g>
  </g>
 </g>
</svg>