<?xml version="1.0" encoding="UTF-8" standalone="no"?>
<svg
   xmlns:ooo="http://xml.openoffice.org/svg/export"
   xmlns:dc="http://purl.org/dc/elements/1.1/"
   xmlns:cc="http://creativecommons.org/ns#"
   xmlns:rdf="http://www.w3.org/1999/02/22-rdf-syntax-ns#"
   xmlns:svg="http://www.w3.org/2000/svg"
   xmlns="http://www.w3.org/2000/svg"
   xmlns:sodipodi="http://sodipodi.sourceforge.net/DTD/sodipodi-0.dtd"
   xmlns:inkscape="http://www.inkscape.org/namespaces/inkscape"
   version="1.2"
   width="69.550003mm"
   height="88.980003mm"
   viewBox="0 0 6955.0003 8898.0003"
   preserveAspectRatio="xMidYMid"
   xml:space="preserve"
   id="svg145"
   sodipodi:docname="egypt1.svg"
   style="fill-rule:evenodd;stroke-width:28.22200012;stroke-linejoin:round"
   inkscape:version="0.92.5 (2060ec1f9f, 2020-04-08)"><metadata
   id="metadata149"><rdf:RDF><cc:Work
       rdf:about=""><dc:format>image/svg+xml</dc:format><dc:type
         rdf:resource="http://purl.org/dc/dcmitype/StillImage" /></cc:Work></rdf:RDF></metadata><sodipodi:namedview
   pagecolor="#ffffff"
   bordercolor="#666666"
   borderopacity="1"
   objecttolerance="10"
   gridtolerance="10"
   guidetolerance="10"
   inkscape:pageopacity="0"
   inkscape:pageshadow="2"
   inkscape:window-width="664"
   inkscape:window-height="487"
   id="namedview147"
   showgrid="false"
   inkscape:zoom="0.2102413"
   inkscape:cx="131.45197"
   inkscape:cy="168.15118"
   inkscape:window-x="0"
   inkscape:window-y="0"
   inkscape:window-maximized="0"
   inkscape:current-layer="svg145" />
 <defs
   class="ClipPathGroup"
   id="defs8">
  <clipPath
   id="presentation_clip_path"
   clipPathUnits="userSpaceOnUse">
   <rect
   x="0"
   y="0"
   width="21000"
   height="29700"
   id="rect2" />
  </clipPath>
  <clipPath
   id="presentation_clip_path_shrink"
   clipPathUnits="userSpaceOnUse">
   <rect
   x="21"
   y="29"
   width="20958"
   height="29641"
   id="rect5" />
  </clipPath>
 </defs>
 <defs
   class="TextShapeIndex"
   id="defs12">
  <g
   ooo:slide="id1"
   ooo:id-list="id3"
   id="g10" />
 </defs>
 <defs
   class="EmbeddedBulletChars"
   id="defs44">
  <g
   id="bullet-char-template-57356"
   transform="matrix(4.8828125e-4,0,0,-4.8828125e-4,0,0)">
   <path
   d="M 580,1141 1163,571 580,0 -4,571 Z"
   id="path14"
   inkscape:connector-curvature="0" />
  </g>
  <g
   id="bullet-char-template-57354"
   transform="matrix(4.8828125e-4,0,0,-4.8828125e-4,0,0)">
   <path
   d="M 8,1128 H 1137 V 0 H 8 Z"
   id="path17"
   inkscape:connector-curvature="0" />
  </g>
  <g
   id="bullet-char-template-10146"
   transform="matrix(4.8828125e-4,0,0,-4.8828125e-4,0,0)">
   <path
   d="M 174,0 602,739 174,1481 1456,739 Z M 1358,739 309,1346 659,739 Z"
   id="path20"
   inkscape:connector-curvature="0" />
  </g>
  <g
   id="bullet-char-template-10132"
   transform="matrix(4.8828125e-4,0,0,-4.8828125e-4,0,0)">
   <path
   d="M 2015,739 1276,0 H 717 l 543,543 H 174 v 393 h 1086 l -543,545 h 557 z"
   id="path23"
   inkscape:connector-curvature="0" />
  </g>
  <g
   id="bullet-char-template-10007"
   transform="matrix(4.8828125e-4,0,0,-4.8828125e-4,0,0)">
   <path
   d="m 0,-2 c -7,16 -16,29 -25,39 l 381,530 c -94,256 -141,385 -141,387 0,25 13,38 40,38 9,0 21,-2 34,-5 21,4 42,12 65,25 l 27,-13 111,-251 280,301 64,-25 24,25 c 21,-10 41,-24 62,-43 C 886,937 835,863 770,784 769,783 710,716 594,584 L 774,223 c 0,-27 -21,-55 -63,-84 l 16,-20 C 717,90 699,76 672,76 641,76 570,178 457,381 L 164,-76 c -22,-34 -53,-51 -92,-51 -42,0 -63,17 -64,51 -7,9 -10,24 -10,44 0,9 1,19 2,30 z"
   id="path26"
   inkscape:connector-curvature="0" />
  </g>
  <g
   id="bullet-char-template-10004"
   transform="matrix(4.8828125e-4,0,0,-4.8828125e-4,0,0)">
   <path
   d="M 285,-33 C 182,-33 111,30 74,156 52,228 41,333 41,471 c 0,78 14,145 41,201 34,71 87,106 158,106 53,0 88,-31 106,-94 l 23,-176 c 8,-64 28,-97 59,-98 l 735,706 c 11,11 33,17 66,17 42,0 63,-15 63,-46 V 965 c 0,-36 -10,-64 -30,-84 L 442,47 C 390,-6 338,-33 285,-33 Z"
   id="path29"
   inkscape:connector-curvature="0" />
  </g>
  <g
   id="bullet-char-template-9679"
   transform="matrix(4.8828125e-4,0,0,-4.8828125e-4,0,0)">
   <path
   d="M 813,0 C 632,0 489,54 383,161 276,268 223,411 223,592 c 0,181 53,324 160,431 106,107 249,161 430,161 179,0 323,-54 432,-161 108,-107 162,-251 162,-431 0,-180 -54,-324 -162,-431 C 1136,54 992,0 813,0 Z"
   id="path32"
   inkscape:connector-curvature="0" />
  </g>
  <g
   id="bullet-char-template-8226"
   transform="matrix(4.8828125e-4,0,0,-4.8828125e-4,0,0)">
   <path
   d="m 346,457 c -73,0 -137,26 -191,78 -54,51 -81,114 -81,188 0,73 27,136 81,188 54,52 118,78 191,78 73,0 134,-26 185,-79 51,-51 77,-114 77,-187 0,-75 -25,-137 -76,-188 -50,-52 -112,-78 -186,-78 z"
   id="path35"
   inkscape:connector-curvature="0" />
  </g>
  <g
   id="bullet-char-template-8211"
   transform="matrix(4.8828125e-4,0,0,-4.8828125e-4,0,0)">
   <path
   d="M -4,459 H 1135 V 606 H -4 Z"
   id="path38"
   inkscape:connector-curvature="0" />
  </g>
  <g
   id="bullet-char-template-61548"
   transform="matrix(4.8828125e-4,0,0,-4.8828125e-4,0,0)">
   <path
   d="m 173,740 c 0,163 58,303 173,419 116,115 255,173 419,173 163,0 302,-58 418,-173 116,-116 174,-256 174,-419 0,-163 -58,-303 -174,-418 C 1067,206 928,148 765,148 601,148 462,206 346,322 231,437 173,577 173,740 Z"
   id="path41"
   inkscape:connector-curvature="0" />
  </g>
 </defs>
 <g
   id="g49"
   transform="translate(-7022,-10401)">
  <g
   id="id2"
   class="Master_Slide">
   <g
   id="bg-id2"
   class="Background" />
   <g
   id="bo-id2"
   class="BackgroundObjects" />
  </g>
 </g>
 <g
   class="SlideGroup"
   id="g143"
   transform="translate(-7022,-10401)">
  <g
   id="g141">
   <g
   id="container-id1">
    <g
   id="id1"
   class="Slide"
   clip-path="url(#presentation_clip_path)">
     <g
   class="Page"
   id="g137">
      <g
   class="Graphic"
   id="g135">
       <g
   id="id3">
        <rect
   class="BoundingBox"
   x="7022"
   y="10401"
   width="6955"
   height="8898"
   id="rect51"
   style="fill:none;stroke:none" />
        <defs
   id="defs56">
         <clipPath
   id="clip_path_1"
   clipPathUnits="userSpaceOnUse">
          <path
   d="m 7022,10401 h 6954 v 8897 H 7022 Z"
   id="path53"
   inkscape:connector-curvature="0" />
         </clipPath>
        </defs>
        <g
   clip-path="url(#clip_path_1)"
   id="g132">
         <path
   d="m 10813,14708 h 1644 133 l -1106,-1106 -1103,1106 z"
   id="path58"
   inkscape:connector-curvature="0"
   style="fill:#000000;stroke:none" />
         <path
   d="m 12508,14708 h -1601 l 577,-1032 z"
   id="path60"
   inkscape:connector-curvature="0"
   style="fill:#994c00;stroke:none" />
         <path
   d="m 9149,14708 h 2236 178 l -1502,-1507 -1504,1507 z"
   id="path62"
   inkscape:connector-curvature="0"
   style="fill:#000000;stroke:none" />
         <path
   d="M 11454,14708 H 9276 l 785,-1403 z"
   id="path64"
   inkscape:connector-curvature="0"
   style="fill:#994c00;stroke:none" />
         <path
   d="m 13550,14565 v 143 H 8559 v -143 z"
   id="path66"
   inkscape:connector-curvature="0"
   style="fill:#000000;stroke:none" />
         <path
   d="m 8765,17223 h 28 26 l 22,-5 23,-10 23,-13 23,-13 23,-20 23,-20 -3,-38 -2,-46 -5,-43 -3,-33 3,-5 5,-10 10,-18 13,-23 12,-26 18,-27 18,-28 18,-28 -38,-59 -77,97 -2,-38 2,-39 3,-35 10,-36 10,-33 13,-35 13,-36 15,-38 -56,-33 -51,89 3,-92 20,-134 25,-120 11,-53 -41,-25 20,-191 -61,-25 82,-470 -79,-51 5,-43 10,-102 20,-132 23,-127 -46,-31 6,-84 15,-139 18,-165 12,-155 -78,-16 2,-43 10,-53 18,-56 20,-61 26,-61 28,-59 33,-53 33,-46 -84,-20 -109,112 -13,-48 -3,-49 5,-48 11,-46 17,-48 23,-48 26,-49 30,-53 -35,-43 -41,38 3,-18 5,-20 10,-25 12,-26 18,-25 18,-28 20,-28 21,-26 -41,-35 3,-21 2,-20 5,-23 10,-23 13,-22 20,-26 26,-25 33,-28 2,-51 -25,18 -23,20 -23,25 -23,26 -23,30 -20,28 -20,31 -20,30 10,-43 12,-48 18,-51 23,-53 25,-56 28,-56 33,-56 33,-56 34,-53 35,-51 36,-48 35,-44 36,-40 33,-33 33,-28 30,-21 8,-66 -5,3 -10,8 -16,10 -20,12 -23,13 -20,15 -20,11 -16,10 v -59 l -94,61 16,54 -26,35 -30,41 -31,48 -30,46 -28,46 -26,40 -20,31 -13,20 v -25 -36 l -2,-35 v -23 l 18,-31 20,-33 25,-33 26,-35 25,-34 28,-27 26,-28 22,-21 94,-61 31,-20 30,-18 31,-18 28,-17 30,-16 31,-15 30,-13 31,-12 30,-13 33,-10 31,-10 30,-10 31,-8 30,-8 33,-7 31,-5 23,-61 -18,-3 h -20 -26 l -25,3 -26,5 -28,5 -28,10 -28,13 8,-49 23,-15 33,-13 41,-12 48,-8 51,-2 h 53 l 51,7 46,10 23,-56 -82,-15 23,-20 41,-13 51,-10 61,-5 h 58 l 61,2 51,6 41,7 -49,-48 -25,-10 -36,-5 -45,-5 h -51 -56 l -54,5 -48,5 -43,10 -31,-28 -45,-66 -43,13 -46,20 -46,20 -43,26 -46,28 -43,30 -43,33 -41,33 -38,33 -36,36 -33,33 -30,30 -26,33 -22,28 -18,26 -13,22 h -48 l 20,-45 23,-43 28,-44 28,-38 30,-38 36,-38 35,-33 39,-33 40,-31 46,-27 46,-26 48,-25 51,-23 56,-18 56,-18 58,-15 -25,51 45,66 23,-10 28,-10 31,-8 33,-5 35,-5 38,-5 41,-3 38,-2 41,-3 h 41 40 l 38,3 h 36 l 35,2 31,5 28,3 v -66 l 13,-3 12,-2 h 16 15 l 18,2 15,3 20,5 18,7 28,-40 -31,-15 -33,-11 -38,-10 -40,-7 -44,-3 -45,-2 -46,2 -46,8 18,-13 20,-10 23,-10 21,-8 25,-8 23,-5 28,-5 25,-5 28,-5 28,-2 h 31 l 30,-3 31,-3 h 33 33 33 l 35,-35 -20,-8 -20,-5 -26,-2 -25,-5 -28,-3 h -31 -30 -31 -30 -31 l -30,3 -31,2 -28,3 -28,2 -25,3 -23,2 18,-12 30,-16 39,-17 40,-18 43,-16 41,-15 36,-12 23,-8 -28,-10 -28,-8 -26,-5 -23,-2 h -20 -18 l -15,2 -10,3 -15,7 -31,13 -35,20 -44,26 -48,30 -48,31 -43,33 -41,35 -89,5 18,-23 30,-25 41,-30 46,-31 48,-30 46,-28 43,-26 35,-20 -28,-5 -30,-3 h -31 -33 -30 l -31,3 -27,2 -23,3 -41,20 -41,28 -38,33 -38,36 -35,38 -34,35 -25,33 -20,28 -66,23 15,-35 25,-41 31,-43 33,-43 35,-38 33,-39 31,-30 20,-23 h -91 l -38,26 -38,33 -36,40 -33,43 -31,46 -27,48 -23,49 -18,45 -53,5 7,-17 13,-28 18,-36 20,-38 18,-35 18,-31 10,-23 5,-7 h -36 l -35,2 -36,5 -36,8 -35,10 -41,13 -40,17 -44,18 102,10 76,-10 -28,33 -33,41 -35,46 -36,45 -33,46 -30,38 -23,31 -16,20 -223,109 10,-53 5,-56 -2,-48 -8,-38 18,-8 23,-10 28,-13 28,-13 30,-15 28,-15 30,-18 28,-15 -7,28 -18,38 -25,41 -33,43 -36,46 -38,40 -33,38 -28,28 223,-109 -17,-58 15,-26 23,-30 25,-36 28,-35 26,-36 25,-31 20,-22 13,-16 -102,-10 28,-66 16,-7 20,-8 25,-8 28,-10 33,-10 36,-10 41,-13 43,-10 12,-43 h -15 l -23,2 -23,5 -27,5 -28,8 -28,5 -26,8 -25,5 -8,-31 26,-17 35,-18 48,-21 54,-17 58,-18 59,-13 58,-13 53,-7 36,-41 -10,-2 -15,-3 h -18 l -18,-2 h -20 -18 -18 -15 l 8,-44 30,-12 25,-8 23,-5 26,-3 h 28 35 l 41,6 51,2 20,-30 -25,-13 -31,-10 -30,-5 -33,-3 h -33 l -36,3 -33,5 -36,5 -33,10 -33,8 -30,10 -28,10 -26,10 -25,10 -20,10 -15,8 5,-38 10,-10 15,-13 18,-10 23,-15 25,-13 31,-13 30,-15 33,-13 36,-12 38,-11 35,-10 38,-7 39,-8 35,-5 h 36 35 l 46,-59 -150,16 15,-49 173,-78 59,-69 h -18 -26 l -28,-2 -27,-3 h -28 l -23,-3 h -18 -5 l -3,3 -12,5 -16,8 -17,10 -23,10 -23,13 -21,12 -20,13 8,-13 18,-28 20,-30 18,-18 -61,-7 -23,15 -26,20 -22,23 -23,28 -21,28 -20,28 -18,25 -12,21 -59,15 10,-15 13,-23 15,-28 15,-28 18,-31 18,-25 18,-23 18,-15 -82,-8 -20,21 -23,25 -23,33 -28,33 -25,36 -26,35 -20,31 -18,25 -40,-13 5,-20 7,-20 13,-23 13,-23 15,-20 10,-16 10,-10 3,-5 -43,-13 -38,28 -39,38 -35,46 -33,51 -28,53 -26,56 -17,51 -16,48 -33,-38 -83,26 -18,45 -18,74 -18,84 -13,76 -7,3 -10,7 -13,5 -15,8 -13,5 -15,8 -10,5 -8,5 3,-61 7,-53 15,-46 23,-41 23,-35 28,-33 31,-28 28,-28 83,-26 3,-30 8,-46 12,-46 26,-38 -18,-38 -3,3 -10,7 -10,10 -15,16 -18,12 -15,13 -13,10 -13,8 v -15 l 3,-23 5,-26 10,-28 15,-30 18,-31 26,-28 30,-25 v -69 l -51,33 -15,-30 8,-23 10,-28 10,-28 15,-30 18,-28 20,-26 23,-20 26,-18 -5,-40 -34,22 -33,33 -30,36 -31,41 -27,40 -26,41 -23,33 -18,25 -17,-38 7,-23 13,-33 23,-38 25,-45 33,-46 36,-43 41,-38 40,-31 -5,-10 -2,-15 v -16 -15 h -11 l -7,3 -10,5 -13,7 -10,8 -10,8 -11,5 -10,5 -2,-46 7,-13 8,-15 10,-15 10,-15 10,-16 13,-12 13,-13 13,-10 -16,-43 -2,-41 7,-36 13,-30 15,-23 18,-20 10,-10 5,-6 -10,-5 -12,-10 -11,-10 -5,-5 -38,33 -46,48 -45,61 -49,66 -45,74 -41,69 -33,63 -23,51 74,30 -13,31 -15,51 -15,63 -16,74 -12,76 -11,71 -5,66 v 51 l -10,-18 -15,-28 -15,-25 -10,-20 2,-28 10,-41 13,-53 18,-61 20,-61 23,-59 25,-50 26,-39 -74,-30 v -71 l 8,-87 17,-88 26,-72 -71,13 -31,71 -23,109 -12,122 v 102 l -41,-28 z"
   id="path68"
   inkscape:connector-curvature="0"
   style="fill:#000000;stroke:none" />
         <path
   d="m 7401,12007 -26,-3 -23,-2 h -25 -25 l -31,2 -36,3 -40,5 -51,8 43,48 h 48 l 49,5 48,7 48,13 46,13 46,13 40,15 39,15 -26,-2 -30,-3 h -36 -36 l -35,3 h -28 l -18,2 h -7 l 66,64 45,-3 h 46 l 43,3 44,5 40,5 43,7 41,8 43,5 -15,-2 h -18 l -20,2 h -23 l -20,5 -21,3 h -15 l -13,2 3,36 48,10 43,8 39,12 35,13 33,15 33,18 36,20 35,23 -5,43 28,8 36,15 43,21 48,25 49,28 50,30 46,31 43,28 -15,-8 -18,-10 -20,-10 -20,-8 -23,-7 -23,-8 -23,-5 -20,-3 -8,36 31,13 38,20 43,28 43,28 46,33 40,33 39,31 30,30 -30,25 10,8 12,15 16,21 17,23 21,25 18,25 20,28 15,26 -46,35 11,33 17,54 18,63 18,74 18,74 15,73 10,61 5,51 -53,46 18,23 20,35 20,43 18,54 18,56 15,58 10,59 8,58 -8,-31 -18,-43 -25,-45 -23,-44 -68,44 12,15 13,25 18,33 15,38 15,41 13,41 13,40 7,36 -78,38 10,30 7,36 10,38 11,46 10,48 13,54 12,58 13,61 -56,53 20,38 16,51 7,56 5,48 -84,39 39,96 28,104 20,109 13,110 5,109 v 102 l -5,96 -8,81 -69,61 23,39 18,48 18,56 15,61 13,63 7,64 3,61 v 53 l -76,74 10,25 13,41 15,53 15,61 18,69 15,68 13,69 12,66 -43,-28 -15,51 15,56 3,61 -8,63 -5,56 -10,-20 -13,-23 -12,-25 -16,-26 -15,-25 -18,-23 -15,-23 -15,-18 -61,82 10,20 18,33 23,41 22,45 23,51 18,51 18,51 8,48 30,15 28,13 25,10 26,8 23,7 23,6 20,5 20,2 -10,-6286 -46,64 -15,-44 -23,-48 -28,-51 -30,-48 -31,-48 -30,-41 -26,-35 -23,-26 -50,13 -21,-23 -23,-20 -25,-21 -25,-20 -28,-15 -28,-18 -28,-15 -31,-13 v 33 l -28,-5 -30,-3 -28,-2 h -31 -28 -25 l -25,2 -21,3 23,46 h -23 l -30,2 -31,5 -33,5 -30,11 -31,10 -25,7 -20,11 -18,66 18,2 17,5 18,8 15,10 13,10 10,8 5,5 3,2 10,-15 18,-10 20,-10 28,-10 31,-5 35,-8 41,-8 46,-7 -13,2 -15,8 -21,10 -18,13 -20,12 -20,11 -18,12 -15,8 20,20 20,-5 26,-2 h 28 33 l 35,2 41,3 43,5 51,5 102,-28 -13,-25 -15,-33 -15,-31 -16,-20 51,28 48,38 49,46 45,53 44,56 35,56 31,53 23,48 -18,61 -26,-48 -28,-51 -30,-51 -33,-48 -33,-43 -33,-38 -33,-31 -33,-20 -102,28 -30,2 -31,11 -23,10 -20,12 -18,13 -10,10 -8,8 -2,3 38,2 33,5 30,10 23,13 23,15 23,21 20,20 26,23 -10,-3 h -13 -15 -18 -18 l -20,3 -18,2 h -15 l -13,36 61,8 53,17 44,23 38,31 30,33 28,35 23,36 20,35 -17,-7 -26,-8 -25,-5 -28,-8 -28,-7 -26,-5 -22,-5 -21,-3 143,127 22,18 28,25 28,26 31,28 28,33 25,30 23,31 15,28 -51,7 8,28 8,33 7,26 3,20 h -3 l -10,-3 h -13 l -15,-2 h -18 -17 l -13,2 -13,3 v -25 l -2,-31 -8,-33 -10,-33 -13,-33 -13,-28 -12,-25 -10,-18 -5,-107 -143,-127 -25,38 -18,-18 -20,-15 -23,-18 -26,-15 -28,-15 -30,-15 -33,-16 -36,-15 -28,46 13,20 20,28 18,33 15,36 -33,15 -12,-20 -21,-23 -28,-31 -33,-28 -33,-30 -35,-28 -36,-23 -30,-18 -61,8 15,10 23,18 28,23 28,25 28,28 28,28 23,25 15,23 h -43 l -51,-53 -51,-41 -53,-30 -49,-20 -43,-11 -35,-7 -23,-3 h -8 v 38 h -13 -17 -21 -25 l -26,3 h -28 -30 -33 l -8,35 38,-2 41,7 43,13 46,15 43,21 41,23 41,20 33,20 -26,-10 -25,-5 -31,-2 -30,-3 -28,3 -28,2 -26,5 -22,5 2,38 33,3 28,7 28,8 28,13 28,15 30,15 31,21 35,20 -15,-3 -18,3 -22,2 -23,6 -23,7 -26,8 -22,7 -21,8 8,53 61,-20 51,-10 45,-3 44,3 40,10 41,13 43,15 48,15 h -20 l -25,3 -28,2 -31,5 -33,6 -33,5 -30,7 -31,8 31,38 45,3 49,7 45,10 44,16 45,20 49,23 48,28 48,28 -18,-5 h -25 -30 l -36,2 -36,3 -33,2 -33,3 h -28 l 28,43 36,2 43,6 46,10 48,15 51,18 53,20 51,23 51,28 -25,-8 -28,-2 -31,-3 -30,3 -31,2 -30,3 -28,2 h -28 l 17,13 16,20 10,21 5,7 135,46 17,8 21,7 23,10 22,8 23,10 18,10 15,8 8,8 18,28 23,50 20,56 13,38 30,115 23,-10 v -8 l -2,-23 -3,-23 -3,-20 23,43 16,69 5,71 -13,56 -13,-43 -15,-51 -13,-43 -5,-18 -30,-115 -23,-25 -31,-28 -30,-30 -31,-31 -30,-30 -28,-23 -20,-18 -16,-10 -12,-46 -135,-46 -46,-5 15,64 -35,-51 -41,-43 -48,-38 -48,-31 -49,-25 -45,-21 -41,-15 -31,-7 -12,38 -21,-11 -22,-10 -26,-12 -28,-16 -28,-12 -28,-10 -25,-11 -25,-7 -79,10 23,8 22,12 28,18 26,20 28,21 23,23 23,17 17,18 -15,31 -20,-16 -21,-12 -25,-13 -25,-13 -26,-12 -28,-13 -28,-10 -28,-11 -28,-12 -30,-10 -28,-11 -31,-10 -28,-10 -30,-10 -25,-10 -28,-10 -13,48 2,2 8,3 10,8 13,10 15,10 18,13 18,15 18,15 -36,-10 -41,-5 -45,-3 -44,3 -43,5 -40,5 -36,10 -28,10 61,74 51,-10 46,-8 40,-2 38,2 33,5 31,11 33,12 30,15 v 0 l -2,-58 28,5 33,8 35,10 39,13 40,15 43,18 44,20 43,20 40,23 41,23 41,25 38,26 33,25 30,28 26,26 23,25 -31,-18 -30,-20 -36,-20 -38,-21 -38,-20 -41,-20 -40,-18 -41,-21 -41,-15 -38,-18 -41,-15 -35,-12 -36,-13 -33,-8 -30,-7 -26,-6 z"
   id="path70"
   inkscape:connector-curvature="0"
   style="fill:#000000;stroke:none" />
         <path
   d="m 7538,13765 h 1634 v 5534 H 7545 Z"
   id="path72"
   inkscape:connector-curvature="0"
   style="fill:#000000;stroke:none" />
         <path
   d="m 9172,13765 v 5534 l 137,-137 V 13707 H 7675 l -137,58 z"
   id="path74"
   inkscape:connector-curvature="0"
   style="fill:#ba1900;stroke:none" />
         <path
   d="m 7693,15442 38,-30 41,-18 43,-10 40,-3 39,10 33,21 25,27 15,41 5,26 5,27 6,23 7,23 13,21 15,17 20,16 28,10 26,5 30,5 h 38 l 41,2 h 46 48 l 51,3 h 51 l 53,5 53,8 51,7 49,13 48,15 43,21 38,25 33,30 33,41 28,43 23,44 20,45 16,49 10,48 5,51 2,53 3,43 8,41 15,38 20,30 23,46 10,64 v 63 l -15,43 -13,8 -10,-5 -5,-20 8,-38 2,-31 -5,-36 -13,-33 -17,-25 -26,-33 -18,-38 -12,-43 -3,-44 -5,-50 -15,-54 -26,-56 -33,-55 -40,-51 -46,-46 -56,-38 -58,-28 -31,-10 -35,-8 -41,-8 -46,-5 -46,-2 -48,-3 -48,3 -48,7 -49,6 -51,2 -48,-2 -48,-6 -41,-10 -35,-17 -28,-21 -16,-28 -5,-23 -7,-22 -8,-23 -7,-26 -13,-20 -15,-18 -18,-15 -23,-10 -23,-5 -23,-8 -18,-5 -17,-10 -18,-13 -13,-15 -8,-23 z"
   id="path76"
   inkscape:connector-curvature="0"
   style="fill:#ba1900;stroke:none" />
         <path
   d="m 8343,16906 h 18 l 20,-3 21,-3 20,-5 20,-5 18,-7 18,-8 13,-8 25,-30 26,-46 20,-56 20,-61 18,-63 13,-61 7,-59 3,-45 25,-11 26,-12 30,-15 31,-16 30,-15 28,-13 23,-12 18,-8 -5,-30 -13,-31 -20,-28 -26,-18 -18,3 -20,2 -20,5 -20,8 -23,8 -21,7 -17,8 -18,8 -5,-13 -11,-15 -10,-13 -10,-15 -15,-13 -13,-13 -15,-10 -15,-8 20,-20 18,-25 10,-26 -3,-20 -10,-5 -12,-5 -21,-5 -23,-5 -30,-3 -36,-2 -40,-3 h -49 -48 l -41,3 -35,2 -31,3 -23,5 -20,5 -13,5 -10,5 -2,20 10,26 20,25 18,20 -15,8 -15,10 -13,13 -13,13 -13,15 -10,13 -7,15 -5,13 -18,-8 -21,-8 -20,-7 -20,-8 -23,-8 -20,-5 -21,-2 -18,-3 -25,18 -18,28 -12,31 -6,30 18,8 23,12 28,13 31,15 30,16 31,15 25,12 25,11 3,45 8,59 12,61 18,63 20,61 21,56 25,46 26,30 12,8 18,8 18,7 20,5 20,5 21,3 18,3 z"
   id="path78"
   inkscape:connector-curvature="0"
   style="fill:#ba1900;stroke:none" />
         <path
   d="M 8793,17162 H 7761 l 3,31 8,30 12,31 16,33 22,33 26,30 28,31 33,28 35,28 39,25 40,23 43,18 46,15 48,13 51,7 51,3 51,-3 51,-5 51,-10 45,-13 46,-15 43,-15 38,-21 38,-20 33,-23 31,-23 25,-22 23,-23 18,-21 13,-23 7,-20 3,-18 v 31 l 5,33 5,35 10,33 13,28 18,26 23,13 25,5 18,-11 7,-28 v -38 l -7,-45 -15,-51 -23,-51 -28,-46 z"
   id="path80"
   inkscape:connector-curvature="0"
   style="fill:#ba1900;stroke:none" />
         <path
   d="m 8712,18382 -188,-653 h -425 l -175,653 36,10 40,8 46,7 48,5 51,5 54,3 55,2 h 56 56 56 l 54,-5 53,-2 51,-8 48,-7 43,-8 41,-10 -155,-104 -21,2 -22,5 -26,3 -25,2 h -26 l -25,3 h -25 l -23,-3 v -462 h -92 v 462 l -23,3 h -25 l -25,-3 h -26 l -25,-2 -26,-3 -23,-5 -20,-2 107,-450 h 86 92 86 l 107,450 z"
   id="path82"
   inkscape:connector-curvature="0"
   style="fill:#ba1900;stroke:none" />
         <path
   d="m 9055,15224 -74,-64 -74,-53 -76,-41 -76,-31 -76,-25 -74,-15 -74,-8 h -71 l -68,3 -66,7 -64,13 -61,15 -56,16 -51,17 -43,18 -41,18 -20,8 -23,10 -23,10 -25,10 -28,8 -25,10 -26,5 -25,8 -18,96 33,-5 36,-3 h 33 l 33,6 33,7 33,10 30,10 31,11 28,12 28,13 25,13 23,12 23,11 18,10 17,5 16,5 58,10 56,5 53,5 h 49 l 48,-2 48,-5 46,-8 46,-10 45,-10 46,-16 48,-15 49,-18 51,-20 55,-23 59,-20 61,-25 -244,-21 -38,13 -41,13 -40,12 -44,10 -43,8 -46,8 -45,5 -46,5 h -48 -49 l -48,-3 -51,-7 -51,-8 -50,-13 -51,-15 -51,-18 28,-20 33,-20 35,-18 41,-18 46,-13 46,-12 50,-10 51,-6 51,-2 53,2 54,6 53,10 54,15 50,20 49,26 48,30 z"
   id="path84"
   inkscape:connector-curvature="0"
   style="fill:#ba1900;stroke:none" />
         <path
   d="m 9055,18905 -74,-63 -76,-51 -76,-41 -74,-33 -76,-23 -74,-15 -74,-8 h -71 l -71,3 -66,8 -63,12 -59,16 -56,17 -51,18 -45,18 -41,18 -20,7 -21,10 -25,11 -26,10 -25,7 -28,11 -25,5 -26,7 -15,97 33,-5 36,-3 h 33 l 33,5 33,8 33,8 30,12 31,10 28,13 28,13 25,13 23,10 23,12 18,8 17,5 16,5 58,10 56,5 53,5 h 49 l 48,-2 48,-5 46,-8 46,-10 45,-10 46,-15 48,-18 49,-18 51,-20 55,-21 59,-22 61,-26 -244,-18 -41,16 -40,12 -44,10 -43,13 -43,8 -46,7 -45,6 -46,2 -48,3 -49,-3 -48,-2 -48,-8 -51,-8 -48,-12 -51,-16 -51,-17 28,-21 33,-20 35,-18 41,-18 43,-12 49,-13 48,-10 53,-5 51,-3 53,3 54,5 53,10 54,15 50,20 49,26 48,30 z"
   id="path86"
   inkscape:connector-curvature="0"
   style="fill:#ba1900;stroke:none" />
         <path
   d="m 8351,14809 36,8 33,8 28,10 28,10 22,10 18,15 15,16 13,20 h -18 -30 -38 -51 -56 -61 -64 -66 -66 -63 -61 -54 -48 -35 -28 -13 l 5,-20 20,-21 28,-18 38,-15 46,-12 56,-11 59,-5 63,-2 v -31 l 3,-40 2,-41 v -25 l -18,-21 -20,-25 -18,-28 -12,-28 -36,-10 -38,-23 -41,-38 -35,-51 -33,-61 -28,-76 -18,-87 -10,-101 -8,-3 -10,-5 -13,-5 -15,-8 -18,-7 -15,-8 -15,-7 -13,-3 13,-5 12,-10 13,-13 10,-13 10,-12 11,-11 7,-10 5,-7 10,-5 13,-6 18,-7 20,-3 23,-2 26,2 22,5 26,11 18,10 28,20 40,28 46,31 53,38 59,40 61,46 61,43 63,46 61,46 59,43 56,38 48,36 41,27 30,23 20,16 28,5 38,7 44,10 45,8 46,5 46,5 40,3 34,-3 7,46 v 43 l -15,41 -36,35 v 31 l -2,33 -3,33 5,33 -33,-18 -33,-20 -38,-20 -38,-18 -38,-21 -41,-20 -38,-18 -41,-17 -40,-18 -38,-15 -36,-16 -35,-12 -36,-11 -31,-7 -27,-8 -26,-2 10,25 8,25 5,26 3,15 -13,23 -18,28 -18,30 -15,28 -33,-2 5,-48 v -49 l -5,-43 -15,-36 -8,-12 -8,-10 -10,-8 -10,-8 -10,-7 -10,-5 -13,-5 -10,-5 5,25 3,25 v 26 l -3,20 -18,25 -23,44 -23,40 -7,26 h 13 17 l 23,2 h 28 26 l 22,3 h 18 13 z"
   id="path88"
   inkscape:connector-curvature="0"
   style="fill:#ba1900;stroke:none" />
         <path
   d="m 13075,13544 -10,-5 -13,-8 -13,-7 -15,-8 -15,-8 -15,-5 -13,-7 -8,-8 -15,-20 -13,-23 -15,-25 -8,-23 -10,-21 -18,-25 -17,-26 -21,-25 3,-10 8,-10 10,-10 10,-13 -13,-33 -7,-33 -8,-31 -5,-25 -10,-20 -18,-13 -18,-3 -18,3 -17,15 -23,26 -21,25 -12,18 -3,15 3,18 2,20 5,15 10,11 16,10 17,12 18,16 -35,30 -26,33 -20,36 -13,35 -10,33 -5,36 -3,30 v 28 h -30 l -23,-2 -20,-3 -16,-5 -15,-5 -10,-5 -10,-8 -10,-7 -10,2 -13,3 -13,5 -15,2 -18,6 -15,5 -15,2 -16,3 -5,-10 -2,-18 v -15 l 5,-13 -3,-10 -12,-11 -16,-10 -12,-2 v 33 40 l -3,41 -5,33 -10,26 -18,30 -20,33 -26,36 -25,33 -23,33 -23,25 -18,23 -15,23 -15,28 -15,35 -16,38 -12,39 -13,40 -8,36 -5,30 -7,59 -10,56 -11,45 -10,28 -5,11 -5,12 -8,10 -7,13 -10,10 -16,13 -15,10 -20,10 v 41 l 10,61 18,74 20,81 25,79 23,71 18,56 13,33 h 15 18 15 8 l -21,-94 -20,-132 -15,-122 v -72 l 13,-22 20,-28 23,-31 25,-30 28,-28 28,-28 25,-23 23,-15 16,40 10,51 7,59 -5,50 13,26 13,28 12,30 13,28 10,28 10,26 6,20 5,15 7,15 13,26 20,33 23,33 23,35 23,31 18,25 12,18 h 41 l -15,-30 -21,-44 -20,-48 -20,-51 -21,-53 -15,-48 -12,-43 -6,-34 3,-73 10,-97 15,-99 21,-84 15,3 15,5 15,5 11,3 7,20 10,25 11,23 5,15 -21,26 -15,33 -15,33 -8,23 10,2 h 16 l 15,3 h 18 17 16 12 8 l -8,-26 -10,-33 -12,-33 -11,-23 3,-15 5,-23 8,-23 12,-15 13,3 h 13 17 16 l 7,23 11,23 7,20 10,18 -12,25 -16,31 -15,27 -8,21 h 8 13 18 17 18 15 13 5 l -10,-23 -13,-31 -10,-27 -7,-18 5,-18 10,-25 10,-23 10,-16 10,3 8,-3 h 10 l 8,3 7,20 11,26 10,25 7,15 -10,18 -13,28 -10,28 -5,18 5,2 h 13 15 l 15,-2 h 18 l 15,-3 h 16 7 l -12,-20 -16,-31 -15,-25 -7,-15 10,-15 10,-18 13,-21 12,-12 h 13 15 18 13 l 7,25 13,31 13,35 12,38 16,36 10,38 10,30 8,28 7,39 13,53 15,58 15,64 16,61 15,56 13,45 10,31 h 48 l -20,-81 -15,-107 -6,-109 16,-94 -3,-36 -7,-46 -6,-43 v -35 l 16,15 18,20 20,23 23,23 17,23 18,20 16,18 7,10 -10,38 -13,43 -18,44 -20,33 -7,91 25,-30 28,-36 35,-38 31,-38 30,-38 21,-33 10,-31 -3,-23 -17,-30 -26,-33 -25,-38 -26,-44 -22,-48 -23,-51 -16,-56 -7,-58 56,-18 51,-25 48,-33 40,-41 36,-46 28,-48 18,-51 7,-53 v -56 l 3,-63 5,-64 13,-66 23,-61 35,-58 51,-49 71,-38 20,10 21,8 18,2 h 10 l 5,-5 10,-5 10,-10 10,-7 10,-8 13,-10 10,-8 8,-8 -8,-10 -10,-10 -10,-13 -15,-10 -15,-10 -16,-10 -15,-10 -13,-8 v -2 l 3,-5 2,-8 v -5 l -15,-5 -18,-5 -17,-3 -13,-2 -3,5 -5,5 -2,7 -5,3 -21,-3 -20,-2 -15,-5 -16,-5 -12,-5 -13,-3 h -10 l -10,5 -15,8 -21,10 -18,10 -17,8 -23,-3 -21,-5 -17,-5 -13,-8 h -10 l -13,3 -10,5 -10,8 7,17 8,18 8,18 10,15 -16,33 -17,46 -16,48 -7,33 -26,3 -35,5 -41,8 -46,10 -48,12 -43,11 -38,12 -28,13 v 8 l 20,-3 33,-2 41,-3 46,-3 h 48 l 46,-2 h 38 30 l -5,66 -10,51 -13,40 -17,28 -16,21 -17,10 -11,8 -7,2 -16,3 h -20 -20 l -18,-3 -15,-10 -18,-13 -18,-10 -23,-10 -20,-8 -20,-10 -21,-8 -20,-5 10,-38 8,-43 2,-38 z"
   id="path90"
   inkscape:connector-curvature="0"
   style="fill:#000000;stroke:none" />
         <path
   d="m 13281,13765 -16,3 h -20 -20 l -18,-3 -33,28 -38,23 -43,15 -49,10 -50,5 -56,3 -56,-3 -56,-7 -59,-10 -55,-16 -54,-15 -53,-18 -48,-20 -46,-20 -41,-23 -35,-23 5,43 12,64 18,73 20,79 21,79 20,71 18,58 13,39 7,20 10,25 11,23 5,15 12,5 3,-15 5,-23 8,-23 12,-15 10,-35 16,-38 15,-41 15,-41 18,-40 20,-36 18,-30 20,-23 6,61 7,78 15,84 21,74 7,20 11,26 10,25 7,15 16,-2 10,-15 10,-18 13,-21 12,-12 13,-26 15,-30 18,-36 18,-35 15,-38 15,-36 13,-33 10,-25 20,78 21,97 20,91 13,66 20,-63 26,-76 22,-82 26,-81 23,-79 23,-71 20,-58 z"
   id="path92"
   inkscape:connector-curvature="0"
   style="fill:#a50000;stroke:none" />
         <path
   d="m 8275,17111 261,234 275,247 295,266 66,59 v 134 214 193 226 203 265 147 h 3745 l 8,-1433 1052,-1042 -61,-117 -61,-111 -64,-110 -63,-109 -64,-104 -66,-102 -66,-96 -68,-97 -69,-94 -69,-89 -68,-89 -71,-84 -74,-81 -71,-79 -74,-76 -74,-74 -33,-33 -33,-30 -35,-31 -33,-30 -36,-31 -33,-30 -35,-28 -33,-28 -26,-20 -25,-21 -28,-20 -26,-18 -28,-20 -25,-18 -28,-20 -25,-18 -31,-20 -28,-18 -30,-20 -28,-18 -31,-18 -30,-18 -28,-18 -31,-17 -30,-16 -28,-17 -31,-16 -30,-15 -31,-13 -30,-15 -28,-12 -31,-13 -35,-15 -36,-16 -35,-15 -36,-13 -35,-12 -36,-13 -36,-10 -35,-13 -38,-10 -41,-10 -38,-10 -38,-11 -41,-7 -38,-8 -41,-7 -38,-8 -43,-5 -41,-8 -43,-2 -40,-5 -44,-3 -40,-2 h -43 l -41,-3 -43,3 h -43 l -41,2 -43,3 -41,5 -43,2 -41,8 -43,5 -36,5 -35,5 -36,8 -33,7 -35,8 -36,10 -36,8 -35,10 -38,10 -36,13 -38,13 -36,12 -38,13 -35,15 -38,15 -36,16 -30,12 -33,16 -31,15 -30,15 -31,15 -30,18 -31,15 -30,18 -31,18 -33,18 -30,18 -31,20 -33,20 -30,20 -31,21 -30,23 -26,17 -25,18 -26,21 -25,17 -25,21 -26,20 -25,20 -26,21 -33,28 -35,28 -33,30 -33,31 -36,30 -33,31 -33,33 -33,33 -36,38 -38,38 -35,38 -36,41 -38,40 -36,43 -35,41 -36,43 -25,31 -26,33 -25,33 -25,30 -26,33 -23,33 -25,36 -25,33 -18,25 -18,28 -20,26 -18,28 -18,25 -20,28 -18,28 -18,28 -20,33 -21,33 -20,31 -20,33 -21,33 -20,33 -20,35 -20,33 -16,31 -18,28 -15,30 -18,31 -17,28 -16,30 -17,31 -16,30 -15,31 -15,27 -15,31 -16,30 -15,31 -15,30 -15,31 -16,30 -5,11 -2,7 -5,10 -5,11 z"
   id="path94"
   inkscape:connector-curvature="0"
   style="fill:#000000;stroke:none" />
         <path
   d="m 8282,17116 254,229 h 1385 l -20,-46 -18,-61 -12,-63 -6,-59 z"
   id="path96"
   inkscape:connector-curvature="0"
   style="fill:#e8b20f;stroke:none" />
         <path
   d="m 9085,17841 -274,-249 h 1179 l 18,33 23,35 25,38 25,36 28,35 26,31 20,25 15,16 z"
   id="path98"
   inkscape:connector-curvature="0"
   style="fill:#e8b20f;stroke:none" />
         <path
   d="m 9172,18041 v 206 h 1372 l -20,-43 -23,-64 -18,-58 -8,-41 z"
   id="path100"
   inkscape:connector-curvature="0"
   style="fill:#e8b20f;stroke:none" />
         <path
   d="m 9172,18669 v -211 h 1456 l 51,86 -21,8 -20,10 -20,15 -18,18 -18,18 -13,20 -10,18 -2,18 z"
   id="path102"
   inkscape:connector-curvature="0"
   style="fill:#e8b20f;stroke:none" />
         <path
   d="m 9172,19131 v -244 h 1456 l 15,18 23,15 25,16 31,10 33,10 35,8 39,5 38,2 h 40 l 38,-2 39,-5 35,-11 33,-10 33,-15 26,-18 23,-23 198,244 z"
   id="path104"
   inkscape:connector-curvature="0"
   style="fill:#e8b20f;stroke:none" />
         <path
   d="m 12894,15312 -33,-33 -33,-30 -35,-31 -33,-30 -36,-31 -33,-30 -35,-28 -33,-28 -28,28 -36,33 -36,41 -40,45 -43,51 -46,54 -46,55 -46,56 -45,59 -46,58 -43,59 -41,56 -35,53 -34,51 -27,46 -23,40 10,8 18,10 17,10 21,10 23,13 20,10 18,10 15,10 28,-30 35,-36 41,-40 43,-43 51,-46 51,-46 53,-48 56,-48 56,-49 56,-45 53,-44 54,-40 48,-36 46,-30 38,-26 z"
   id="path106"
   inkscape:connector-curvature="0"
   style="fill:#e8b20f;stroke:none" />
         <path
   d="m 9390,15079 -33,28 -35,28 -33,30 -33,31 -36,30 -33,31 -33,33 -33,33 41,25 45,30 51,36 54,41 55,43 56,43 59,48 58,49 56,48 56,48 53,48 51,49 46,43 41,43 35,41 28,35 10,-7 13,-13 15,-13 18,-15 20,-15 21,-15 20,-11 23,-10 -25,-33 -31,-40 -36,-46 -38,-51 -43,-56 -46,-58 -48,-61 -48,-64 -51,-61 -48,-61 -49,-58 -45,-56 -44,-51 -38,-46 -35,-40 z"
   id="path108"
   inkscape:connector-curvature="0"
   style="fill:#e8b20f;stroke:none" />
         <path
   d="m 8831,15645 -25,31 -26,33 -25,33 -25,30 -26,33 -23,33 -25,36 -25,33 h 414 l -8,-23 -15,-33 -26,-35 -28,-41 -35,-38 -36,-36 -33,-33 z"
   id="path110"
   inkscape:connector-curvature="0"
   style="fill:#e8b20f;stroke:none" />
         <path
   d="m 8326,16382 20,-33 18,-33 20,-33 20,-33 18,-30 20,-34 21,-30 20,-33 h 719 l 16,30 20,36 18,38 22,38 21,38 18,33 17,26 13,20 z"
   id="path112"
   inkscape:connector-curvature="0"
   style="fill:#e8b20f;stroke:none" />
         <path
   d="m 8188,16626 -15,31 -15,27 -15,31 -16,30 -15,31 -15,30 -15,31 -16,30 h 1337 l -15,-17 -13,-26 -13,-30 -10,-33 -10,-36 -8,-35 -5,-33 v -31 z"
   id="path114"
   inkscape:connector-curvature="0"
   style="fill:#e8b20f;stroke:none" />
         <path
   d="m 11815,15803 27,-51 31,-53 36,-56 35,-61 41,-61 40,-64 44,-63 43,-64 43,-63 43,-61 41,-59 41,-53 38,-53 35,-46 31,-43 28,-36 -31,-20 -28,-18 -30,-20 -28,-18 -31,-18 -30,-18 -28,-18 -31,-17 -30,35 -31,43 -33,51 -35,59 -36,63 -35,66 -36,71 -38,72 -36,76 -35,73 -36,74 -33,71 -30,71 -28,64 -28,61 -23,56 18,2 23,3 22,2 26,3 23,5 20,5 18,3 z"
   id="path116"
   inkscape:connector-curvature="0"
   style="fill:#e8b20f;stroke:none" />
         <path
   d="m 11469,15755 13,-49 17,-56 23,-61 26,-68 28,-71 30,-77 33,-76 36,-79 35,-81 36,-79 33,-76 36,-76 33,-71 33,-66 28,-61 27,-56 -35,-15 -36,-16 -35,-15 -36,-13 -35,-12 -36,-13 -36,-10 -35,-13 -38,64 -49,116 -58,161 -61,183 -58,193 -51,188 -38,170 -21,135 h 36 l 30,2 26,-2 h 23 20 l 20,-3 18,3 z"
   id="path118"
   inkscape:connector-curvature="0"
   style="fill:#e8b20f;stroke:none" />
         <path
   d="m 11111,15755 10,-173 18,-176 25,-175 30,-170 36,-165 36,-155 38,-140 35,-127 -43,-5 -41,-8 -43,-2 -40,-5 -44,-3 -40,-2 h -43 l -41,-3 -43,3 h -43 l -41,2 -43,3 -41,5 -43,2 -41,8 -43,5 30,112 41,157 48,188 49,201 45,201 39,180 25,148 10,94 h 20 21 20 18 20 21 17 z"
   id="path120"
   inkscape:connector-curvature="0"
   style="fill:#e8b20f;stroke:none" />
         <path
   d="m 10755,15755 -20,-128 -31,-144 -36,-155 -43,-163 -51,-163 -55,-165 -64,-155 -71,-147 -38,10 -36,13 -38,13 -36,12 -38,13 -35,15 -38,15 -36,16 18,33 23,50 28,61 30,72 36,81 38,86 38,92 38,94 41,94 35,89 36,86 30,81 28,72 23,63 16,48 10,33 25,-2 25,-3 28,-5 26,-2 28,-5 23,-3 23,-2 z"
   id="path122"
   inkscape:connector-curvature="0"
   style="fill:#e8b20f;stroke:none" />
         <path
   d="m 10399,15813 -20,-48 -28,-56 -33,-66 -33,-71 -41,-77 -41,-78 -40,-82 -43,-81 -44,-79 -43,-79 -40,-73 -39,-69 -33,-61 -33,-53 -25,-43 -20,-31 -31,18 -33,18 -30,18 -31,20 -33,20 -30,20 -31,21 -30,23 30,43 36,53 40,59 46,66 46,71 51,71 48,76 51,74 48,74 46,68 43,66 38,61 33,51 28,43 23,33 13,23 17,-7 21,-6 23,-5 28,-7 25,-5 25,-5 26,-3 z"
   id="path124"
   inkscape:connector-curvature="0"
   style="fill:#e8b20f;stroke:none" />
         <path
   d="m 10897,17947 21,3 22,5 h 28 l 31,2 h 33 l 35,-2 39,-3 38,-2 38,-5 40,-5 39,-5 38,-8 35,-8 36,-10 30,-10 28,-13 -23,74 -30,91 -31,100 -30,104 -31,99 -28,89 -20,68 -15,41 33,43 23,51 13,53 v 54 l -16,48 -28,41 -48,30 -63,15 -72,3 -68,-5 -59,-10 -51,-18 -40,-26 -28,-35 -18,-43 v -51 l 10,-51 23,-43 31,-33 38,-26 48,-17 58,-10 h 67 l 73,5 -5,-16 -10,-15 -18,-13 -18,-7 -25,-5 -25,-3 -31,5 -30,10 12,-20 16,-20 20,-23 20,-23 23,-23 20,-18 18,-17 15,-13 -5,-18 -7,-13 -10,-12 -16,-8 -12,-2 h -16 l -12,2 -13,5 -10,8 -13,10 -10,10 -13,13 -10,12 -10,11 -10,12 -8,8 -20,-38 -15,-41 -6,-40 16,-31 15,-15 20,-21 23,-22 26,-26 25,-25 23,-26 20,-28 15,-25 -30,10 -33,15 -38,13 -38,15 -38,16 -39,12 -30,11 -26,5 -33,-8 -12,-33 2,-38 16,-26 10,-7 12,-8 11,-10 12,-10 13,-8 15,-10 13,-10 z"
   id="path126"
   inkscape:connector-curvature="0"
   style="fill:#f2d172;stroke:none" />
         <path
   d="m 11469,15755 18,2 h 23 l 28,3 30,5 28,2 23,3 20,2 13,3 18,2 23,3 22,2 26,3 23,5 20,5 18,3 13,5 38,15 25,20 20,26 11,28 5,28 v 30 l -3,31 -2,28 -33,-16 -34,-15 -35,-10 -33,-8 -36,-5 -33,-5 -30,-2 -28,-3 h -33 l -46,5 -51,10 -53,11 -51,12 -43,10 -33,11 -18,5 -15,10 -15,12 -21,16 -18,15 -20,18 -20,20 -16,18 -15,18 -15,61 v 106 l 8,125 7,114 8,-15 13,-20 12,-21 16,-20 12,-20 13,-18 8,-15 5,-11 17,3 h 23 23 l 28,-3 28,-2 28,-8 28,-5 25,-10 39,13 43,7 h 45 49 l 45,-7 46,-8 46,-13 41,-12 v 15 l 2,18 3,18 2,12 5,5 13,8 20,5 23,8 28,5 28,7 26,5 22,8 -2,99 -18,79 -28,63 -35,49 -39,33 -40,25 -36,15 -30,11 -28,10 -31,12 -30,18 -33,18 -36,20 -35,23 -36,23 -33,23 -3,43 6,46 7,46 10,40 13,51 8,69 v 73 l -11,61 -17,69 -18,96 -15,105 -13,86 -46,28 -53,23 -61,23 -69,18 -73,12 -79,8 -82,2 -83,-2 -89,-10 -87,-18 -86,-23 -87,-33 -81,-43 -81,-51 -74,-61 -71,-71 -8,-71 -7,-112 -5,-114 -3,-77 46,31 46,40 43,49 43,51 41,55 38,56 35,56 36,51 -13,-63 -7,-87 -3,-86 8,-71 25,25 31,18 33,10 35,5 38,-2 33,-3 33,-8 28,-10 16,-5 22,-5 26,-2 30,-3 36,-3 35,-2 h 41 41 40 l 41,5 41,3 38,7 35,8 34,10 30,10 25,15 -106,71 -13,-7 -18,-8 -20,-5 -26,-5 -27,-5 -31,-3 -36,-2 h -33 -35 l -38,2 -36,3 -35,3 -33,5 -34,7 -30,8 -28,10 18,25 20,23 23,21 23,20 28,15 28,15 30,11 33,5 33,2 33,-2 33,-8 36,-13 33,-17 36,-26 33,-33 33,-41 106,-71 13,-7 15,-10 18,-16 18,-15 18,-18 18,-18 15,-15 12,-15 h -25 l -23,-5 -20,-5 -23,-8 -20,-10 -18,-10 -18,-10 -15,-10 -18,-11 -20,-7 -23,-5 -26,-3 h -25 l -25,5 -23,5 -21,10 -22,13 -23,5 -26,5 -23,-2 -22,-3 -23,-5 -21,-7 -20,-11 13,-96 15,20 23,15 23,6 25,2 23,-5 20,-8 16,-12 10,-16 7,-12 11,-10 15,-11 20,-10 18,-10 20,-5 18,-8 18,-2 18,-5 15,-8 18,-15 12,-20 5,-23 v -31 l -12,-35 -26,-41 -20,13 -20,10 -21,7 -20,6 -20,5 -18,5 -15,5 -16,2 -28,5 -33,3 -38,2 -40,-2 -39,-3 -38,-2 -30,-8 -26,-7 -20,-5 -20,-6 -15,-10 -8,-18 -15,11 -13,17 -13,23 -5,26 -2,28 5,28 15,22 25,16 31,10 28,7 28,8 23,8 23,7 17,8 16,10 10,13 -13,96 -20,-7 -23,-5 h -26 -25 l -25,5 -26,5 -23,10 -17,10 -23,10 -26,8 -28,3 -30,-3 -31,-3 -28,-7 -25,-8 -20,-7 2,-31 3,-38 -3,-43 v -51 l -10,-25 -31,-26 -45,-25 -56,-26 -64,-28 -63,-28 -64,-33 -53,-35 -36,-38 -25,-43 -13,-46 -5,-43 3,-41 5,-38 7,-28 8,-18 8,-13 15,-10 18,-12 20,-13 23,-8 25,-7 26,-6 23,-2 v -15 -13 l 5,-13 5,-15 h 10 13 l 10,3 10,2 8,3 10,5 7,7 8,8 41,10 43,3 h 40 l 41,-8 38,-10 38,-10 36,-10 35,-11 h 13 13 l 10,6 10,5 8,5 10,5 h 8 10 l 10,10 13,15 15,20 13,21 15,25 13,26 12,20 10,20 18,-106 10,-120 3,-104 -5,-53 -5,-11 -13,-17 -18,-21 -18,-20 -22,-23 -21,-20 -17,-15 -16,-13 -35,-10 -46,-13 -56,-13 -61,-10 -58,-10 -56,-8 -49,-5 h -35 l -15,5 -16,11 -20,10 -20,12 -21,13 -20,13 -20,12 -18,11 h 20 23 l 28,2 h 28 l 28,3 30,5 31,2 33,5 30,6 31,5 30,5 28,5 26,7 25,5 21,6 17,5 16,25 15,38 10,38 3,26 -51,-33 -51,-23 -53,-13 -54,-2 -51,5 -50,17 -49,23 -45,31 -59,-64 -35,-63 -16,-56 v -54 l 8,-48 15,-38 18,-33 13,-23 17,-7 21,-6 23,-5 28,-7 25,-5 25,-5 26,-3 20,-5 15,-5 21,-5 23,-5 22,-5 23,-5 21,-6 20,-2 13,-3 25,-2 25,-3 28,-5 26,-2 28,-5 23,-3 23,-2 h 20 198 20 21 20 18 20 21 17 21 167 36 l 30,2 26,-2 h 23 20 l 20,-3 18,3 z"
   id="path128"
   inkscape:connector-curvature="0"
   style="fill:#f2d172;stroke:none" />
         <path
   d="m 11896,16044 -13,41 -15,48 -23,48 -23,41 -28,-13 -35,-15 -41,-13 -41,-15 -40,-10 -38,-8 -36,-2 -25,2 -23,8 -26,10 -25,10 -28,13 -23,15 -25,16 -21,15 -18,15 16,-20 15,-26 18,-28 18,-25 17,-23 13,-20 13,-13 7,-8 18,-5 23,-5 23,-5 25,-5 28,-5 28,-3 31,-5 30,-5 31,-2 30,-5 h 31 l 30,-3 h 28 28 l 23,3 z"
   id="path130"
   inkscape:connector-curvature="0"
   style="fill:#f2d172;stroke:none" />
        </g>
       </g>
      </g>
     </g>
    </g>
   </g>
  </g>
 </g>
</svg>