<?xml version="1.0" encoding="UTF-8" standalone="no"?>
<svg
   xmlns:ooo="http://xml.openoffice.org/svg/export"
   xmlns:dc="http://purl.org/dc/elements/1.1/"
   xmlns:cc="http://creativecommons.org/ns#"
   xmlns:rdf="http://www.w3.org/1999/02/22-rdf-syntax-ns#"
   xmlns:svg="http://www.w3.org/2000/svg"
   xmlns="http://www.w3.org/2000/svg"
   xmlns:sodipodi="http://sodipodi.sourceforge.net/DTD/sodipodi-0.dtd"
   xmlns:inkscape="http://www.inkscape.org/namespaces/inkscape"
   version="1.2"
   width="66.290001mm"
   height="65.909996mm"
   viewBox="0 0 6629.0001 6590.9996"
   preserveAspectRatio="xMidYMid"
   xml:space="preserve"
   id="svg319"
   sodipodi:docname="famil10.svg"
   style="fill-rule:evenodd;stroke-width:28.22200012;stroke-linejoin:round"
   inkscape:version="0.92.5 (2060ec1f9f, 2020-04-08)"><metadata
   id="metadata323"><rdf:RDF><cc:Work
       rdf:about=""><dc:format>image/svg+xml</dc:format><dc:type
         rdf:resource="http://purl.org/dc/dcmitype/StillImage" /></cc:Work></rdf:RDF></metadata><sodipodi:namedview
   pagecolor="#ffffff"
   bordercolor="#666666"
   borderopacity="1"
   objecttolerance="10"
   gridtolerance="10"
   guidetolerance="10"
   inkscape:pageopacity="0"
   inkscape:pageshadow="2"
   inkscape:window-width="664"
   inkscape:window-height="487"
   id="namedview321"
   showgrid="false"
   inkscape:zoom="0.2102413"
   inkscape:cx="125.29134"
   inkscape:cy="124.53543"
   inkscape:window-x="0"
   inkscape:window-y="0"
   inkscape:window-maximized="0"
   inkscape:current-layer="svg319" />
 <defs
   class="ClipPathGroup"
   id="defs8">
  <clipPath
   id="presentation_clip_path"
   clipPathUnits="userSpaceOnUse">
   <rect
   x="0"
   y="0"
   width="21000"
   height="29700"
   id="rect2" />
  </clipPath>
  <clipPath
   id="presentation_clip_path_shrink"
   clipPathUnits="userSpaceOnUse">
   <rect
   x="21"
   y="29"
   width="20958"
   height="29641"
   id="rect5" />
  </clipPath>
 </defs>
 <defs
   class="TextShapeIndex"
   id="defs12">
  <g
   ooo:slide="id1"
   ooo:id-list="id3"
   id="g10" />
 </defs>
 <defs
   class="EmbeddedBulletChars"
   id="defs44">
  <g
   id="bullet-char-template-57356"
   transform="matrix(4.8828125e-4,0,0,-4.8828125e-4,0,0)">
   <path
   d="M 580,1141 1163,571 580,0 -4,571 Z"
   id="path14"
   inkscape:connector-curvature="0" />
  </g>
  <g
   id="bullet-char-template-57354"
   transform="matrix(4.8828125e-4,0,0,-4.8828125e-4,0,0)">
   <path
   d="M 8,1128 H 1137 V 0 H 8 Z"
   id="path17"
   inkscape:connector-curvature="0" />
  </g>
  <g
   id="bullet-char-template-10146"
   transform="matrix(4.8828125e-4,0,0,-4.8828125e-4,0,0)">
   <path
   d="M 174,0 602,739 174,1481 1456,739 Z M 1358,739 309,1346 659,739 Z"
   id="path20"
   inkscape:connector-curvature="0" />
  </g>
  <g
   id="bullet-char-template-10132"
   transform="matrix(4.8828125e-4,0,0,-4.8828125e-4,0,0)">
   <path
   d="M 2015,739 1276,0 H 717 l 543,543 H 174 v 393 h 1086 l -543,545 h 557 z"
   id="path23"
   inkscape:connector-curvature="0" />
  </g>
  <g
   id="bullet-char-template-10007"
   transform="matrix(4.8828125e-4,0,0,-4.8828125e-4,0,0)">
   <path
   d="m 0,-2 c -7,16 -16,29 -25,39 l 381,530 c -94,256 -141,385 -141,387 0,25 13,38 40,38 9,0 21,-2 34,-5 21,4 42,12 65,25 l 27,-13 111,-251 280,301 64,-25 24,25 c 21,-10 41,-24 62,-43 C 886,937 835,863 770,784 769,783 710,716 594,584 L 774,223 c 0,-27 -21,-55 -63,-84 l 16,-20 C 717,90 699,76 672,76 641,76 570,178 457,381 L 164,-76 c -22,-34 -53,-51 -92,-51 -42,0 -63,17 -64,51 -7,9 -10,24 -10,44 0,9 1,19 2,30 z"
   id="path26"
   inkscape:connector-curvature="0" />
  </g>
  <g
   id="bullet-char-template-10004"
   transform="matrix(4.8828125e-4,0,0,-4.8828125e-4,0,0)">
   <path
   d="M 285,-33 C 182,-33 111,30 74,156 52,228 41,333 41,471 c 0,78 14,145 41,201 34,71 87,106 158,106 53,0 88,-31 106,-94 l 23,-176 c 8,-64 28,-97 59,-98 l 735,706 c 11,11 33,17 66,17 42,0 63,-15 63,-46 V 965 c 0,-36 -10,-64 -30,-84 L 442,47 C 390,-6 338,-33 285,-33 Z"
   id="path29"
   inkscape:connector-curvature="0" />
  </g>
  <g
   id="bullet-char-template-9679"
   transform="matrix(4.8828125e-4,0,0,-4.8828125e-4,0,0)">
   <path
   d="M 813,0 C 632,0 489,54 383,161 276,268 223,411 223,592 c 0,181 53,324 160,431 106,107 249,161 430,161 179,0 323,-54 432,-161 108,-107 162,-251 162,-431 0,-180 -54,-324 -162,-431 C 1136,54 992,0 813,0 Z"
   id="path32"
   inkscape:connector-curvature="0" />
  </g>
  <g
   id="bullet-char-template-8226"
   transform="matrix(4.8828125e-4,0,0,-4.8828125e-4,0,0)">
   <path
   d="m 346,457 c -73,0 -137,26 -191,78 -54,51 -81,114 -81,188 0,73 27,136 81,188 54,52 118,78 191,78 73,0 134,-26 185,-79 51,-51 77,-114 77,-187 0,-75 -25,-137 -76,-188 -50,-52 -112,-78 -186,-78 z"
   id="path35"
   inkscape:connector-curvature="0" />
  </g>
  <g
   id="bullet-char-template-8211"
   transform="matrix(4.8828125e-4,0,0,-4.8828125e-4,0,0)">
   <path
   d="M -4,459 H 1135 V 606 H -4 Z"
   id="path38"
   inkscape:connector-curvature="0" />
  </g>
  <g
   id="bullet-char-template-61548"
   transform="matrix(4.8828125e-4,0,0,-4.8828125e-4,0,0)">
   <path
   d="m 173,740 c 0,163 58,303 173,419 116,115 255,173 419,173 163,0 302,-58 418,-173 116,-116 174,-256 174,-419 0,-163 -58,-303 -174,-418 C 1067,206 928,148 765,148 601,148 462,206 346,322 231,437 173,577 173,740 Z"
   id="path41"
   inkscape:connector-curvature="0" />
  </g>
 </defs>
 <g
   id="g49"
   transform="translate(-7185,-11554)">
  <g
   id="id2"
   class="Master_Slide">
   <g
   id="bg-id2"
   class="Background" />
   <g
   id="bo-id2"
   class="BackgroundObjects" />
  </g>
 </g>
 <g
   class="SlideGroup"
   id="g317"
   transform="translate(-7185,-11554)">
  <g
   id="g315">
   <g
   id="container-id1">
    <g
   id="id1"
   class="Slide"
   clip-path="url(#presentation_clip_path)">
     <g
   class="Page"
   id="g311">
      <g
   class="Graphic"
   id="g309">
       <g
   id="id3">
        <rect
   class="BoundingBox"
   x="7185"
   y="11554"
   width="6629"
   height="6591"
   id="rect51"
   style="fill:none;stroke:none" />
        <defs
   id="defs56">
         <clipPath
   id="clip_path_1"
   clipPathUnits="userSpaceOnUse">
          <path
   d="m 7185,11554 h 6628 v 6590 H 7185 Z"
   id="path53"
   inkscape:connector-curvature="0" />
         </clipPath>
        </defs>
        <g
   clip-path="url(#clip_path_1)"
   id="g306">
         <path
   d="m 10498,18145 -48,-3 -48,-10 -49,-12 -45,-21 -46,-23 -43,-28 -38,-30 -36,-33 -2785,-2772 -58,-81 -41,-89 -23,-97 -7,-99 7,-99 26,-97 43,-89 61,-81 2767,-2762 38,-33 41,-33 43,-28 46,-23 48,-20 51,-15 50,-10 51,-3 49,3 48,5 46,10 48,15 43,20 43,23 41,31 38,33 2808,2810 48,84 33,89 20,96 5,97 -10,99 -25,94 -43,86 -59,79 -2777,2772 -38,33 -41,31 -43,25 -46,20 -48,16 -48,10 -48,7 z"
   id="path58"
   inkscape:connector-curvature="0"
   style="fill:#000000;stroke:none" />
         <path
   d="m 10498,18145 v 0 l -48,-3 -48,-10 -49,-12 -45,-21 -46,-23 -43,-28 -38,-30 -36,-33 -2785,-2772 v 0 l -58,-81 -41,-89 -23,-97 -7,-99 7,-99 26,-97 43,-89 61,-81 2767,-2762 v 0 l 38,-33 41,-33 43,-28 46,-23 48,-20 51,-15 50,-10 51,-3 v 0 l 49,3 48,5 46,10 48,15 43,20 43,23 41,31 38,33 2808,2810 v 0 l 48,84 33,89 20,96 5,97 -10,99 -25,94 -43,86 -59,79 -2777,2772 v 0 l -38,33 -41,31 -43,25 -46,20 -48,16 -48,10 -48,7 z"
   id="path60"
   inkscape:connector-curvature="0"
   style="fill:none;stroke:#000000" />
         <path
   d="m 13626,15175 -6243,-10 -56,-66 -33,-79 -18,-92 -2,-94 15,-94 28,-91 41,-79 51,-66 2723,-2726 21,-18 30,-26 43,-28 51,-30 59,-31 61,-25 66,-15 63,-8 66,8 61,18 59,25 50,31 44,30 35,25 21,18 7,8 2790,2787 48,71 33,77 18,83 3,87 -16,86 -25,81 -41,77 z"
   id="path62"
   inkscape:connector-curvature="0"
   style="fill:#00ccff;stroke:none" />
         <path
   d="m 7360,15190 23,10 6243,10 v -71 l -6243,-10 23,10 -23,-10 -25,10 -8,26 8,25 25,10 z"
   id="path64"
   inkscape:connector-curvature="0"
   style="fill:#000000;stroke:none" />
         <path
   d="m 7386,14481 v 0 l -56,71 -43,84 -31,97 -15,101 2,97 18,96 38,89 61,74 46,-51 -51,-58 -28,-69 -17,-86 -3,-92 15,-86 26,-87 38,-73 45,-61 v 0 0 l 8,-13 3,-13 -3,-10 -8,-10 -10,-8 -10,-2 -13,2 z"
   id="path66"
   inkscape:connector-curvature="0"
   style="fill:#000000;stroke:none" />
         <path
   d="m 10109,11755 v 0 l -2723,2726 45,46 2724,-2727 v 0 0 l 8,-12 2,-13 -2,-10 -8,-10 -10,-8 -10,-2 -13,2 z"
   id="path68"
   inkscape:connector-curvature="0"
   style="fill:#000000;stroke:none" />
         <path
   d="m 10526,11562 v 0 l -68,10 -72,15 -63,28 -61,30 -53,34 -46,27 -33,28 -21,21 46,45 21,-15 27,-23 41,-28 48,-28 56,-30 59,-23 61,-15 58,-5 v 0 z"
   id="path70"
   inkscape:connector-curvature="0"
   style="fill:#000000;stroke:none" />
         <path
   d="m 10892,11737 v -3 l -8,-7 -22,-21 -36,-25 -46,-30 -53,-33 -64,-28 -66,-18 -71,-10 v 71 l 61,5 56,18 53,23 49,27 40,31 36,25 18,16 7,7 v -2 2 l 13,8 13,2 12,-5 11,-7 5,-10 5,-13 -5,-13 -8,-13 z"
   id="path72"
   inkscape:connector-curvature="0"
   style="fill:#000000;stroke:none" />
         <path
   d="m 13684,14524 h -2 l -2790,-2787 -46,46 2790,2787 h -2 2 l 13,8 13,2 10,-2 10,-8 7,-10 3,-10 -3,-13 -7,-13 z"
   id="path74"
   inkscape:connector-curvature="0"
   style="fill:#000000;stroke:none" />
         <path
   d="m 13626,15210 23,-12 58,-72 43,-81 28,-86 16,-94 -3,-89 -18,-92 -35,-81 -54,-79 -50,46 43,64 30,71 18,76 3,84 -16,79 -23,76 -38,71 -48,61 23,-13 -23,13 -8,13 -2,12 2,10 8,11 10,7 10,3 13,-3 13,-7 z"
   id="path76"
   inkscape:connector-curvature="0"
   style="fill:#000000;stroke:none" />
         <path
   d="m 9180,13455 5,-77 17,-71 26,-66 33,-61 43,-53 48,-46 56,-41 59,-33 63,-22 66,-18 66,-5 69,2 69,13 68,20 64,36 63,43 5,-51 15,-48 21,-43 25,-38 33,-36 38,-30 41,-26 43,-23 46,-15 48,-10 48,-5 h 49 l 45,7 49,13 43,20 41,28 7,-53 21,-51 30,-43 36,-38 43,-33 48,-23 51,-18 53,-5 8,-71 20,-56 31,-41 40,-25 46,-15 48,-3 49,10 50,18 44,26 40,33 33,40 23,43 10,51 -5,51 -20,53 -41,54 49,-8 h 48 l 46,5 43,16 40,20 39,25 33,31 30,35 25,38 23,44 16,43 12,46 5,45 -2,46 -8,46 -15,45 66,-17 69,-8 68,-2 71,5 72,12 68,18 74,23 71,30 71,33 71,41 71,41 72,48 71,51 71,53 68,56 69,59 69,58 68,64 66,61 64,63 63,64 64,63 58,64 61,63 56,61 56,59 51,58 51,56 51,51 45,51 43,45 41,41 -6327,8 1108,-1098 33,-31 38,-25 44,-23 45,-18 49,-15 50,-13 51,-5 54,-5 h 50 l 54,5 51,8 48,13 48,17 43,21 41,23 z"
   id="path78"
   inkscape:connector-curvature="0"
   style="fill:#ffffff;stroke:none" />
         <path
   d="m 9962,13076 53,-25 -66,-46 -68,-38 -74,-23 -74,-13 -71,-5 -71,8 -71,17 -66,26 -64,35 -58,44 -53,48 -46,58 -36,66 -28,69 -17,76 -8,82 h 71 l 3,-72 17,-66 23,-63 31,-56 40,-48 44,-44 53,-38 53,-30 61,-20 61,-18 61,-3 h 66 l 64,13 63,18 59,33 61,40 53,-25 -53,25 25,5 21,-12 7,-21 -13,-22 z"
   id="path80"
   inkscape:connector-curvature="0"
   style="fill:#000000;stroke:none" />
         <path
   d="m 10552,12819 53,-25 -46,-33 -48,-23 -53,-13 -49,-7 h -51 l -53,5 -51,10 -51,18 -45,23 -46,28 -41,33 -35,40 -31,43 -23,46 -15,56 -5,56 h 66 l 5,-46 16,-40 17,-41 21,-33 30,-31 36,-28 35,-22 41,-23 41,-13 45,-10 43,-5 h 46 l 43,7 44,13 38,18 35,23 54,-26 -54,26 26,5 20,-13 8,-20 -13,-23 z"
   id="path82"
   inkscape:connector-curvature="0"
   style="fill:#000000;stroke:none" />
         <path
   d="m 10841,12555 33,-33 -58,5 -59,20 -53,26 -48,35 -38,44 -36,48 -23,58 -7,61 h 66 l 7,-45 18,-44 25,-38 33,-33 39,-30 43,-21 43,-15 48,-5 33,-33 -33,36 26,-10 10,-26 -10,-25 -26,-10 z"
   id="path84"
   inkscape:connector-curvature="0"
   style="fill:#000000;stroke:none" />
         <path
   d="m 11243,12690 33,56 45,-61 23,-61 5,-59 -10,-61 -28,-51 -38,-45 -46,-38 -48,-28 -56,-21 -53,-10 -56,3 -53,18 -51,30 -38,51 -23,63 -8,79 h 66 l 8,-63 18,-49 23,-30 30,-21 38,-12 41,-3 43,10 46,16 38,23 35,27 28,36 18,36 10,40 -5,43 -18,46 -35,46 33,56 -33,-56 -8,13 -2,12 5,13 7,10 11,5 12,3 13,-3 13,-7 z"
   id="path86"
   inkscape:connector-curvature="0"
   style="fill:#000000;stroke:none" />
         <path
   d="m 11624,13167 40,46 18,-51 8,-50 5,-49 -8,-51 -12,-50 -18,-46 -23,-48 -28,-41 -33,-38 -38,-33 -41,-31 -46,-20 -48,-18 -53,-5 h -51 l -53,8 15,66 43,-8 h 46 l 38,5 38,13 36,20 35,21 28,28 28,33 23,35 23,38 13,41 12,41 3,40 v 43 l -8,41 -13,41 41,46 -41,-46 -2,15 2,13 8,7 13,8 10,3 13,-3 10,-5 7,-13 z"
   id="path88"
   inkscape:connector-curvature="0"
   style="fill:#000000;stroke:none" />
         <path
   d="m 13664,14600 23,-58 -38,-41 -43,-45 -46,-51 -51,-51 -51,-56 -51,-58 -55,-59 -56,-61 -61,-63 -59,-64 -66,-63 -63,-64 -64,-66 -66,-61 -69,-63 -68,-59 -71,-58 -69,-56 -71,-56 -74,-51 -71,-48 -74,-43 -71,-41 -73,-33 -74,-33 -76,-23 -71,-18 -74,-12 -74,-8 -68,5 -74,8 -71,17 20,67 61,-18 64,-8 h 68 l 69,3 68,12 67,18 71,23 68,28 69,33 71,41 69,38 71,48 68,51 71,51 69,56 66,58 69,58 68,64 66,61 64,61 63,63 61,64 59,63 61,64 56,61 56,58 50,59 51,56 51,51 46,50 43,46 43,41 23,-59 -23,59 13,7 13,3 10,-3 10,-7 8,-10 2,-11 -2,-12 -8,-13 z"
   id="path90"
   inkscape:connector-curvature="0"
   style="fill:#000000;stroke:none" />
         <path
   d="m 7315,14550 22,58 6327,-8 v -71 l -6327,8 23,58 -23,-58 -25,10 -8,26 8,25 25,10 z"
   id="path92"
   inkscape:connector-curvature="0"
   style="fill:#000000;stroke:none" />
         <path
   d="m 8420,13452 h 2 l -1107,1098 45,45 1108,-1097 h 3 -3 l 8,-13 2,-13 -2,-10 -8,-10 -10,-8 -10,-2 -13,2 -13,8 z"
   id="path94"
   inkscape:connector-curvature="0"
   style="fill:#000000;stroke:none" />
         <path
   d="m 9144,13455 58,-26 -40,-30 -43,-26 -46,-20 -51,-20 -53,-13 -54,-8 -56,-5 h -50 l -56,5 -54,5 -53,13 -51,15 -48,21 -48,23 -41,30 -38,33 51,46 28,-28 35,-21 38,-22 43,-16 46,-15 48,-13 49,-5 51,-5 h 50 l 51,5 48,8 44,13 45,15 41,20 38,21 31,25 58,-25 -58,25 12,8 13,2 13,-5 10,-8 5,-10 5,-12 -5,-13 -8,-13 z"
   id="path96"
   inkscape:connector-curvature="0"
   style="fill:#000000;stroke:none" />
         <path
   d="m 7386,15165 h 6268 l -36,35 -48,51 -58,58 -69,72 -79,81 -89,91 -94,97 -104,107 -109,111 -114,117 -120,120 -122,124 -127,127 -127,130 -129,129 -130,133 -130,127 -129,127 -125,124 -124,122 -120,117 -117,109 -111,104 -104,99 -97,89 -92,79 -81,71 -71,59 -61,48 -51,36 -40,20 -26,8 -33,-6 -33,-7 -35,-5 -36,-10 -36,-8 -38,-10 -38,-10 -35,-13 -38,-13 -36,-15 -36,-15 -33,-15 -33,-21 -28,-20 -28,-20 -25,-23 z"
   id="path98"
   inkscape:connector-curvature="0"
   style="fill:#33cc99;stroke:none" />
         <path
   d="m 13677,15187 -23,-58 H 7386 v 71 h 6268 l -23,-58 23,58 25,-10 10,-25 -10,-26 -25,-10 z"
   id="path100"
   inkscape:connector-curvature="0"
   style="fill:#000000;stroke:none" />
         <path
   d="m 10615,18120 h 5 l 38,-11 46,-22 53,-36 61,-51 74,-58 81,-71 92,-79 96,-89 105,-99 111,-104 117,-110 120,-119 124,-122 125,-125 129,-127 130,-127 129,-132 130,-129 127,-130 127,-127 122,-124 119,-120 117,-117 110,-112 104,-106 94,-97 89,-91 78,-82 67,-71 60,-58 49,-51 33,-36 -46,-45 -38,35 -48,51 -56,59 -71,71 -79,81 -89,91 -94,97 -104,107 -110,112 -111,116 -120,120 -122,124 -127,127 -127,130 -129,130 -130,132 -130,127 -129,127 -125,124 -124,122 -120,115 -116,109 -112,104 -104,99 -97,89 -91,79 -82,71 -68,58 -61,46 -49,36 -35,17 -13,6 h 5 l -5,-3 -25,10 -8,26 8,25 25,10 z"
   id="path102"
   inkscape:connector-curvature="0"
   style="fill:#000000;stroke:none" />
         <path
   d="m 10056,17899 v 0 l 28,25 28,23 31,20 35,23 36,15 35,15 38,18 38,13 36,13 41,10 38,10 35,8 38,10 36,5 33,8 33,5 10,-66 -33,-6 -33,-7 -35,-5 -33,-10 -36,-8 -38,-10 -36,-10 -35,-13 -38,-13 -33,-12 -36,-16 -30,-15 -31,-18 -25,-20 -28,-18 -23,-20 v 0 0 l -13,-8 -13,-2 -10,2 -10,8 -7,10 -3,10 3,13 z"
   id="path104"
   inkscape:connector-curvature="0"
   style="fill:#000000;stroke:none" />
         <path
   d="m 7386,15129 -23,58 2693,2712 46,-46 -2693,-2711 -23,58 23,-58 -13,-8 -13,-2 -10,2 -10,8 -8,10 -2,10 2,13 8,12 z"
   id="path106"
   inkscape:connector-curvature="0"
   style="fill:#000000;stroke:none" />
         <path
   d="m 12287,16516 -579,569 -193,-457 -183,846 -366,366 -280,-478 51,-289 53,-287 51,-287 38,-288 18,-284 -15,-287 -56,-285 -107,-287 -53,-18 -64,-20 -76,-23 -84,-25 -89,-28 -94,-31 -96,-35 -97,-36 -94,-38 -91,-38 -84,-41 -74,-43 -66,-46 -53,-46 -38,-45 -23,-49 1092,69 13,-2 28,-11 38,-12 46,-16 48,-15 46,-13 43,-10 36,-2 h 1059 l 97,10 81,28 66,43 54,59 43,71 30,78 23,89 15,92 8,99 5,96 -3,97 -2,94 -5,92 -5,81 -3,74 -2,60 -3,56 -5,74 -10,81 -18,87 -25,79 -36,66 -43,48 -53,20 z"
   id="path108"
   inkscape:connector-curvature="0"
   style="fill:#003399;stroke:none" />
         <path
   d="m 11677,17098 54,10 579,-569 -46,-46 -579,570 53,10 -53,-10 -8,12 -2,13 2,10 8,10 10,8 10,2 13,-2 13,-8 z"
   id="path110"
   inkscape:connector-curvature="0"
   style="fill:#000000;stroke:none" />
         <path
   d="m 11548,16633 -64,8 193,457 61,-25 -193,-458 -63,8 63,-8 -8,-12 -10,-5 -12,-3 -11,3 -12,7 -8,8 -2,13 2,15 z"
   id="path112"
   inkscape:connector-curvature="0"
   style="fill:#000000;stroke:none" />
         <path
   d="m 11354,17497 11,-18 183,-846 -66,-10 -183,846 10,-18 -10,18 7,26 23,12 23,-5 13,-23 z"
   id="path114"
   inkscape:connector-curvature="0"
   style="fill:#000000;stroke:none" />
         <path
   d="m 10935,17858 54,5 365,-366 -45,-46 -366,366 53,5 -53,-5 -8,13 -2,13 2,10 8,10 10,8 10,2 13,-2 13,-8 z"
   id="path116"
   inkscape:connector-curvature="0"
   style="fill:#000000;stroke:none" />
         <path
   d="m 10653,17357 3,23 279,478 61,-36 -279,-477 2,22 -2,-22 -10,-13 -13,-5 h -13 l -13,5 -10,8 -5,12 -2,13 5,15 z"
   id="path118"
   inkscape:connector-curvature="0"
   style="fill:#000000;stroke:none" />
         <path
   d="m 10709,15101 -20,-20 104,282 56,279 13,285 -16,282 -38,284 -51,288 -53,287 -51,289 66,10 51,-289 53,-287 51,-287 38,-290 21,-287 -18,-290 -56,-289 -109,-293 -21,-20 21,20 -8,-12 -10,-5 -13,-3 -10,3 -13,7 -7,8 -3,12 3,16 z"
   id="path120"
   inkscape:connector-curvature="0"
   style="fill:#000000;stroke:none" />
         <path
   d="m 9543,14473 -33,41 28,59 43,50 56,51 68,46 77,46 86,40 92,38 94,41 99,36 96,35 94,31 89,28 87,25 73,23 64,20 53,18 20,-66 -53,-18 -63,-20 -79,-23 -82,-25 -88,-28 -94,-31 -97,-35 -94,-36 -94,-36 -91,-38 -82,-40 -71,-41 -63,-46 -51,-40 -33,-41 -18,-38 -33,41 33,-41 -5,-13 -10,-10 -13,-3 h -13 l -12,6 -8,7 -5,13 v 15 z"
   id="path122"
   inkscape:connector-curvature="0"
   style="fill:#000000;stroke:none" />
         <path
   d="m 10641,14542 h -6 l -1092,-69 v 67 l 1092,68 h -5 5 l 26,-10 7,-23 -7,-23 -26,-10 z"
   id="path124"
   inkscape:connector-curvature="0"
   style="fill:#000000;stroke:none" />
         <path
   d="m 10933,14458 v 0 l -41,5 -46,10 -45,13 -51,15 -46,16 -38,12 -28,11 3,2 -11,66 28,-2 28,-11 38,-12 46,-16 46,-15 46,-12 40,-11 h 31 v 0 z"
   id="path126"
   inkscape:connector-curvature="0"
   style="fill:#000000;stroke:none" />
         <path
   d="m 11992,14458 v 0 h -1059 v 71 h 1059 v 0 0 l 26,-10 10,-25 -10,-26 z"
   id="path128"
   inkscape:connector-curvature="0"
   style="fill:#000000;stroke:none" />
         <path
   d="m 12429,15657 v 0 -60 l 3,-74 5,-81 5,-92 5,-94 3,-97 -8,-96 -8,-102 -15,-94 -23,-94 -33,-84 -46,-76 -58,-63 -74,-49 -91,-30 -102,-13 v 71 l 92,8 71,25 58,38 49,54 40,66 28,74 23,83 15,89 8,97 2,96 -2,97 v 94 l -5,92 -5,81 -3,74 -5,60 v 0 z"
   id="path130"
   inkscape:connector-curvature="0"
   style="fill:#000000;stroke:none" />
         <path
   d="m 12234,16161 -31,40 71,-25 51,-59 38,-71 28,-84 18,-89 10,-83 5,-77 5,-56 h -71 v 56 l -5,72 -10,78 -18,84 -23,74 -33,61 -35,38 -36,15 -30,41 30,-41 -23,13 -7,23 10,20 25,10 z"
   id="path132"
   inkscape:connector-curvature="0"
   style="fill:#000000;stroke:none" />
         <path
   d="m 12310,16539 10,-30 -86,-348 -66,15 86,348 10,-31 -10,31 5,13 10,10 13,2 h 13 l 12,-5 8,-10 5,-10 v -15 z"
   id="path134"
   inkscape:connector-curvature="0"
   style="fill:#000000;stroke:none" />
         <path
   d="m 11172,14222 7,69 20,63 34,58 43,51 53,41 59,30 63,21 69,7 73,-5 64,-15 51,-25 45,-31 36,-40 28,-44 20,-51 15,-55 11,-59 7,-58 3,-64 2,-61 -2,-61 v -61 l -3,-58 v -54 l -7,-78 -23,-69 -33,-56 -46,-48 -53,-36 -59,-25 -63,-18 -64,-5 -66,5 -63,18 -59,25 -53,36 -46,48 -33,59 -23,66 -7,78 z"
   id="path136"
   inkscape:connector-curvature="0"
   style="fill:#7f3f00;stroke:none" />
         <path
   d="m 11520,14527 v 0 l -64,-5 -56,-18 -53,-28 -48,-38 -39,-43 -30,-54 -18,-56 -5,-63 h -71 l 10,74 23,71 36,63 48,59 58,43 64,33 71,23 74,10 v 0 z"
   id="path138"
   inkscape:connector-curvature="0"
   style="fill:#000000;stroke:none" />
         <path
   d="m 11835,13820 v 0 54 l 2,58 v 61 l 3,61 v 61 l -3,61 -7,56 -11,56 -15,53 -18,46 -25,38 -30,36 -41,25 -43,23 -59,15 -68,3 v 71 l 78,-8 69,-15 58,-28 51,-35 41,-46 30,-48 23,-56 16,-59 10,-61 7,-61 3,-66 5,-61 -3,-61 v -61 l -2,-58 v -54 0 z"
   id="path140"
   inkscape:connector-curvature="0"
   style="fill:#000000;stroke:none" />
         <path
   d="m 11207,13820 v 0 l 5,-73 21,-59 30,-50 41,-44 45,-30 54,-23 58,-18 61,-2 59,2 58,18 53,23 46,30 41,44 30,48 21,61 5,73 h 71 l -10,-83 -26,-77 -35,-63 -51,-54 -61,-40 -64,-28 -68,-18 -69,-8 -71,8 -69,18 -63,28 -61,40 -51,54 -35,66 -26,74 -10,83 v 0 z"
   id="path142"
   inkscape:connector-curvature="0"
   style="fill:#000000;stroke:none" />
         <path
   d="m 11207,14222 v 0 -402 h -71 v 402 0 0 l 10,25 26,8 25,-8 z"
   id="path144"
   inkscape:connector-curvature="0"
   style="fill:#000000;stroke:none" />
         <path
   d="m 11075,17749 -38,43 -36,38 -35,36 -36,35 -33,31 -33,28 -33,25 -33,23 -33,20 -33,18 -31,15 -33,13 -33,7 -30,8 -33,5 -33,3 -92,-5 -91,-23 -92,-38 -86,-49 -89,-63 -86,-71 -87,-82 -83,-86 -84,-91 -82,-97 -81,-97 -81,-99 -82,-96 -78,-97 -77,-89 -78,-84 145,-851 -84,-7 -69,-26 -56,-38 -43,-51 -33,-61 -25,-68 -16,-79 -7,-81 -3,-89 3,-89 5,-89 5,-89 7,-89 8,-81 5,-77 3,-68 7,-61 21,-53 30,-51 41,-41 48,-36 53,-25 59,-18 58,-5 h 1161 l 59,8 56,18 48,28 46,38 35,48 28,51 18,56 5,61 5,89 10,149 8,191 v 208 l -15,204 -36,175 -66,122 -99,51 z"
   id="path146"
   inkscape:connector-curvature="0"
   style="fill:#ff0000;stroke:none" />
         <path
   d="m 10539,18130 v 0 l 35,-3 36,-5 33,-7 36,-8 35,-15 33,-16 36,-17 33,-23 35,-23 33,-28 36,-28 33,-31 36,-38 38,-35 35,-38 38,-44 -50,-45 -39,43 -35,38 -33,36 -36,33 -33,30 -30,28 -33,23 -31,23 -33,18 -30,17 -28,16 -31,10 -30,7 -28,8 -31,5 -30,3 v 0 -3 l -26,10 -7,26 7,25 26,10 z"
   id="path148"
   inkscape:connector-curvature="0"
   style="fill:#000000;stroke:none" />
         <path
   d="m 9157,16925 7,28 79,84 76,87 79,96 81,97 82,99 81,96 81,99 84,92 87,86 86,84 89,74 91,63 89,51 97,41 96,23 97,5 v -66 l -87,-5 -86,-23 -86,-36 -84,-46 -87,-63 -83,-69 -87,-78 -81,-87 -84,-91 -81,-94 -82,-97 -81,-99 -81,-97 -79,-96 -76,-92 -79,-83 8,28 -8,-28 -13,-8 -12,-5 -13,5 -10,5 -8,10 -5,13 3,13 7,12 z"
   id="path150"
   inkscape:connector-curvature="0"
   style="fill:#000000;stroke:none" />
         <path
   d="m 9335,16115 -33,-41 -145,851 66,11 145,-852 -33,-40 33,40 -8,-25 -20,-13 -26,5 -12,23 z"
   id="path152"
   inkscape:connector-curvature="0"
   style="fill:#000000;stroke:none" />
         <path
   d="m 8999,14997 v 0 68 l -5,74 -8,81 -7,92 -5,89 -5,89 -5,89 5,89 7,84 16,83 27,74 36,66 48,59 64,43 79,28 89,10 v -71 l -79,-5 -59,-23 -48,-33 -38,-43 -31,-56 -22,-64 -16,-74 -7,-78 v -89 -89 l 5,-89 5,-89 8,-86 7,-82 5,-79 5,-68 v 0 z"
   id="path154"
   inkscape:connector-curvature="0"
   style="fill:#000000;stroke:none" />
         <path
   d="m 9352,14672 v 0 l -63,7 -66,18 -59,31 -53,38 -43,45 -36,56 -23,61 -10,69 h 71 l 5,-53 18,-46 26,-46 38,-36 43,-33 48,-20 51,-18 53,-2 v 0 z"
   id="path156"
   inkscape:connector-curvature="0"
   style="fill:#000000;stroke:none" />
         <path
   d="m 10513,14672 v 0 H 9352 v 71 h 1161 v 0 0 l 26,-10 10,-26 -10,-25 z"
   id="path158"
   inkscape:connector-curvature="0"
   style="fill:#000000;stroke:none" />
         <path
   d="m 10844,15015 v 0 l -8,-66 -20,-64 -31,-56 -38,-53 -51,-43 -55,-31 -61,-20 -67,-10 v 71 l 51,5 51,15 41,26 40,33 33,43 26,45 15,49 3,56 v 0 z"
   id="path160"
   inkscape:connector-curvature="0"
   style="fill:#000000;stroke:none" />
         <path
   d="m 10648,16196 -33,41 125,-61 73,-135 36,-183 15,-206 3,-208 -11,-191 -10,-149 -2,-89 h -71 l 7,89 10,149 6,191 2,208 -15,201 -36,168 -58,109 -74,41 -33,40 33,-40 -25,10 -8,23 8,23 25,10 z"
   id="path162"
   inkscape:connector-curvature="0"
   style="fill:#000000;stroke:none" />
         <path
   d="m 11100,17771 8,-30 -460,-1545 -66,15 460,1545 8,-30 -8,30 5,13 10,10 13,3 h 13 l 12,-5 8,-11 5,-10 v -15 z"
   id="path164"
   inkscape:connector-curvature="0"
   style="fill:#000000;stroke:none" />
         <path
   d="m 9591,14433 8,79 23,68 33,59 45,48 54,35 58,28 61,16 66,5 66,-3 61,-15 59,-28 53,-36 46,-48 33,-58 23,-69 7,-81 v -399 l -7,-69 -21,-63 -33,-59 -43,-50 -53,-44 -59,-30 -63,-21 -69,-7 -73,5 -61,15 -54,26 -43,33 -36,38 -27,45 -21,51 -15,56 -13,59 -5,61 -2,61 -3,61 3,61 v 61 l 2,55 z"
   id="path166"
   inkscape:connector-curvature="0"
   style="fill:#7f3f00;stroke:none" />
         <path
   d="m 10252,14433 v 0 l -5,76 -21,61 -30,51 -41,43 -46,31 -53,25 -53,15 h -64 l -61,-2 -56,-16 -53,-25 -46,-31 -40,-43 -31,-51 -20,-61 -5,-73 h -71 l 10,84 25,76 36,66 51,53 61,41 63,30 66,16 71,7 69,-5 68,-15 64,-31 61,-40 51,-54 35,-66 26,-76 10,-86 v 0 z"
   id="path168"
   inkscape:connector-curvature="0"
   style="fill:#000000;stroke:none" />
         <path
   d="m 10252,14034 v 0 399 h 71 v -399 0 0 l -10,-26 -26,-10 -25,10 z"
   id="path170"
   inkscape:connector-curvature="0"
   style="fill:#000000;stroke:none" />
         <path
   d="m 9939,13726 v 0 l 64,6 56,17 53,28 48,41 38,43 31,53 18,56 5,64 h 71 l -10,-74 -23,-71 -36,-63 -48,-59 -58,-46 -64,-33 -71,-23 -74,-10 v 0 z"
   id="path172"
   inkscape:connector-curvature="0"
   style="fill:#000000;stroke:none" />
         <path
   d="m 9627,14433 v 0 -54 l -3,-55 v -61 l -2,-61 v -61 l 2,-61 5,-56 13,-56 15,-54 18,-45 25,-41 31,-33 38,-30 46,-21 56,-15 68,-3 v -71 l -79,8 -66,15 -61,31 -48,35 -40,43 -31,51 -23,56 -15,59 -13,61 -5,66 -2,61 -5,61 2,61 v 61 l 3,55 v 54 0 z"
   id="path174"
   inkscape:connector-curvature="0"
   style="fill:#000000;stroke:none" />
         <path
   d="m 10287,14583 8,-16 18,-45 25,-66 31,-84 28,-94 22,-99 16,-97 2,-89 -20,-124 -38,-104 -56,-87 -69,-66 -78,-51 -87,-33 -94,-18 -94,-2 -94,15 -91,28 -82,43 -76,56 -61,69 -46,79 -28,94 -7,101 13,122 22,112 31,104 33,89 30,74 28,56 21,35 7,13 -2,-668 43,-13 41,-18 43,-18 43,-20 43,-15 46,-15 43,-11 43,-2 44,5 45,13 43,15 44,20 43,18 40,18 44,15 43,10 z"
   id="path176"
   inkscape:connector-curvature="0"
   style="fill:#000000;stroke:none" />
         <path
   d="m 10404,13993 v 0 l -2,87 -16,94 -22,96 -28,92 -31,84 -25,63 -16,46 -7,15 61,25 7,-15 21,-46 25,-68 31,-84 28,-97 22,-101 16,-99 2,-92 v 0 z"
   id="path178"
   inkscape:connector-curvature="0"
   style="fill:#000000;stroke:none" />
         <path
   d="m 9449,13993 v 0 l 7,-96 26,-87 43,-71 56,-63 71,-54 76,-40 87,-26 86,-15 92,2 89,18 78,31 74,46 64,60 50,82 36,96 20,117 h 66 l -20,-132 -41,-112 -61,-91 -73,-71 -84,-56 -94,-36 -99,-18 -97,-2 -101,15 -97,31 -86,45 -82,59 -66,73 -48,87 -31,102 -7,106 v 0 z"
   id="path180"
   inkscape:connector-curvature="0"
   style="fill:#000000;stroke:none" />
         <path
   d="m 9566,14598 63,-18 -5,-13 -20,-33 -28,-53 -28,-74 -33,-86 -31,-102 -22,-109 -13,-117 h -66 l 13,127 22,115 31,106 33,92 33,73 28,59 20,38 10,13 64,-18 -64,18 11,10 12,5 10,-3 13,-5 8,-7 7,-10 v -13 l -5,-13 z"
   id="path182"
   inkscape:connector-curvature="0"
   style="fill:#000000;stroke:none" />
         <path
   d="m 9591,13897 -28,33 3,668 h 71 l -3,-668 -28,33 28,-33 -10,-26 -25,-10 -26,10 -10,26 z"
   id="path184"
   inkscape:connector-curvature="0"
   style="fill:#000000;stroke:none" />
         <path
   d="m 9944,13785 v 0 l -48,2 -46,11 -48,15 -46,18 -43,20 -43,18 -38,15 -41,13 15,66 46,-13 43,-20 44,-18 43,-20 40,-13 44,-15 40,-11 38,-2 v 0 2 l 26,-10 10,-25 -10,-25 -26,-11 z"
   id="path186"
   inkscape:connector-curvature="0"
   style="fill:#000000;stroke:none" />
         <path
   d="m 10325,13932 -30,-33 -41,-10 -38,-15 -40,-15 -44,-18 -43,-21 -46,-17 -50,-13 -49,-5 v 66 l 38,5 41,13 41,12 43,21 43,18 41,20 48,15 46,10 -31,-33 31,33 25,-7 13,-23 -5,-23 -23,-13 z"
   id="path188"
   inkscape:connector-curvature="0"
   style="fill:#000000;stroke:none" />
         <path
   d="m 10257,14570 66,13 2,-651 h -71 l -2,651 66,12 -66,-12 10,25 25,8 26,-8 10,-25 z"
   id="path190"
   inkscape:connector-curvature="0"
   style="fill:#000000;stroke:none" />
         <path
   d="m 8537,16298 53,-89 46,-71 38,-59 33,-45 30,-36 31,-25 30,-16 39,-7 43,-3 h 53 l 64,5 76,8 94,7 112,8 134,5 155,3 110,30 73,79 41,117 18,140 2,144 -7,140 -11,120 -5,83 -5,39 -15,33 -25,28 -31,22 -33,18 -38,13 -38,8 -36,2 46,391 z"
   id="path192"
   inkscape:connector-curvature="0"
   style="fill:#ffff99;stroke:none" />
         <path
   d="m 9568,15947 v 0 h -155 l -134,-5 -112,-8 -92,-7 -76,-8 -66,-5 -53,-2 -46,5 -46,7 -38,21 -35,30 -33,38 -36,48 -38,59 -46,71 -53,89 56,36 53,-89 46,-71 38,-59 30,-43 28,-33 26,-20 23,-11 30,-7 h 41 l 53,-3 61,5 76,8 97,8 112,7 134,5 155,5 v 0 z"
   id="path194"
   inkscape:connector-curvature="0"
   style="fill:#000000;stroke:none" />
         <path
   d="m 9825,16836 v 0 l 2,-81 11,-122 10,-140 -5,-144 -18,-148 -43,-127 -87,-89 -127,-38 v 71 l 92,23 61,69 38,106 18,133 v 144 l -5,140 -11,117 -7,86 v 0 z"
   id="path196"
   inkscape:connector-curvature="0"
   style="fill:#000000;stroke:none" />
         <path
   d="m 9601,16997 -33,35 38,-2 44,-8 43,-15 38,-21 35,-25 31,-36 20,-43 8,-46 h -71 l -3,31 -10,23 -20,20 -26,20 -28,16 -33,10 -33,7 -33,3 -33,36 33,-39 -25,11 -8,25 8,25 25,11 z"
   id="path198"
   inkscape:connector-curvature="0"
   style="fill:#000000;stroke:none" />
         <path
   d="m 9591,17413 56,-25 -46,-391 -66,5 46,391 56,-26 -56,26 13,23 23,7 22,-10 8,-25 z"
   id="path200"
   inkscape:connector-curvature="0"
   style="fill:#000000;stroke:none" />
         <path
   d="m 8509,16280 5,41 1077,1092 46,-46 -1077,-1092 5,41 -5,-41 -13,-8 -13,-2 -10,2 -10,8 -8,10 -2,10 2,13 8,13 z"
   id="path202"
   inkscape:connector-curvature="0"
   style="fill:#000000;stroke:none" />
         <path
   d="m 9464,16735 -2,-579 15,-79 38,-61 56,-41 66,-15 63,15 56,48 41,87 15,129 v 613 l -551,429 -201,-241 z"
   id="path204"
   inkscape:connector-curvature="0"
   style="fill:#ffff99;stroke:none" />
         <path
   d="m 9426,16156 v 0 l 3,579 h 71 l -3,-579 v 0 0 l -10,-26 -25,-10 -26,10 z"
   id="path206"
   inkscape:connector-curvature="0"
   style="fill:#000000;stroke:none" />
         <path
   d="m 9848,16239 v 0 l -18,-137 -46,-99 -68,-58 -79,-21 -79,21 -68,48 -46,74 -18,89 h 71 l 13,-69 30,-48 44,-33 53,-11 48,11 43,38 36,73 13,122 v 0 z"
   id="path208"
   inkscape:connector-curvature="0"
   style="fill:#000000;stroke:none" />
         <path
   d="m 9833,16877 15,-25 v -613 h -71 v 613 l 15,-26 -15,26 10,25 25,8 26,-8 10,-25 z"
   id="path210"
   inkscape:connector-curvature="0"
   style="fill:#000000;stroke:none" />
         <path
   d="m 9235,17301 46,6 552,-430 -41,-51 -551,430 45,5 -45,-5 -13,23 7,20 21,13 25,-5 z"
   id="path212"
   inkscape:connector-curvature="0"
   style="fill:#000000;stroke:none" />
         <path
   d="m 9040,17012 -5,48 200,241 51,-40 -200,-242 -6,49 6,-49 -11,-10 -12,-2 -10,2 -11,5 -10,10 -2,11 v 12 l 5,13 z"
   id="path214"
   inkscape:connector-curvature="0"
   style="fill:#000000;stroke:none" />
         <path
   d="m 9429,16735 15,-28 -404,305 40,56 404,-305 16,-28 -16,28 11,-10 2,-13 v -13 l -5,-13 -10,-7 -13,-5 h -13 l -12,5 z"
   id="path216"
   inkscape:connector-curvature="0"
   style="fill:#000000;stroke:none" />
         <path
   d="m 9080,17052 -33,36 -40,48 -43,54 -41,58 -31,61 -15,61 3,53 28,49 56,17 58,-5 53,-22 54,-36 48,-43 46,-49 40,-48 36,-43 z"
   id="path218"
   inkscape:connector-curvature="0"
   style="fill:#7f3f00;stroke:none" />
         <path
   d="m 8923,17441 8,8 -18,-33 -3,-43 15,-54 28,-53 39,-56 40,-53 41,-46 33,-36 -51,-45 -33,35 -41,51 -45,53 -44,61 -33,69 -15,68 3,64 38,64 7,7 -7,-7 13,7 12,3 10,-3 11,-7 7,-11 3,-10 -3,-12 -7,-13 z"
   id="path220"
   inkscape:connector-curvature="0"
   style="fill:#000000;stroke:none" />
         <path
   d="m 9276,17268 -2,-45 -36,43 -41,46 -43,45 -46,41 -48,33 -46,20 -48,5 -43,-15 -31,61 69,20 69,-5 61,-25 58,-38 51,-46 48,-51 41,-50 35,-44 -2,-45 2,45 5,-12 3,-13 -5,-10 -8,-10 -12,-5 -11,-3 -12,3 -10,10 z"
   id="path222"
   inkscape:connector-curvature="0"
   style="fill:#000000;stroke:none" />
         <path
   d="m 9106,17075 -48,3 218,190 46,-50 -219,-191 -48,3 48,-3 -12,-8 -13,-2 -13,5 -10,8 -5,10 -3,12 3,13 8,13 z"
   id="path224"
   inkscape:connector-curvature="0"
   style="fill:#000000;stroke:none" />
         <path
   d="m 10325,16176 -27,-46 -34,-53 -38,-56 -43,-51 -48,-43 -51,-31 -53,-12 -59,10 -25,66 -10,61 2,53 15,54 23,48 31,51 35,50 41,56 z"
   id="path226"
   inkscape:connector-curvature="0"
   style="fill:#7f3f00;stroke:none" />
         <path
   d="m 10003,15906 -18,18 46,-5 40,8 44,28 43,38 40,48 39,54 33,53 25,46 61,-36 -31,-46 -33,-53 -38,-58 -45,-54 -54,-48 -58,-33 -66,-18 -71,15 -18,18 18,-18 -18,18 v 23 l 15,20 h 28 z"
   id="path228"
   inkscape:connector-curvature="0"
   style="fill:#000000;stroke:none" />
         <path
   d="m 10066,16305 46,8 -41,-56 -35,-48 -28,-48 -20,-44 -16,-48 -2,-48 10,-54 23,-61 -61,-25 -28,71 -10,69 2,58 15,59 26,53 33,53 35,54 41,56 46,7 -46,-7 10,10 13,2 h 13 l 12,-7 8,-8 5,-13 v -12 l -5,-13 z"
   id="path230"
   inkscape:connector-curvature="0"
   style="fill:#000000;stroke:none" />
         <path
   d="m 10295,16194 13,-46 -242,157 36,56 241,-157 13,-46 -13,46 15,-23 -5,-23 -20,-15 -25,5 z"
   id="path232"
   inkscape:connector-curvature="0"
   style="fill:#000000;stroke:none" />
         <path
   d="m 11126,17670 1072,-1055 -15,-58 -13,-58 -15,-56 -23,-51 -28,-43 -41,-33 -53,-21 -69,-7 -43,-3 -53,-2 -64,-8 -71,-5 -79,-8 -78,-2 -84,-3 h -81 l -82,8 -76,10 -69,18 -61,25 -53,33 -38,43 -25,54 -11,66 -340,84 -313,-460 -279,231 437,663 561,-157 z"
   id="path234"
   inkscape:connector-curvature="0"
   style="fill:#ccccff;stroke:none" />
         <path
   d="m 12165,16623 10,-30 -1072,1054 46,46 1072,-1055 10,-30 -10,30 8,-12 2,-13 -2,-10 -8,-10 -10,-8 -10,-3 -13,3 -13,8 z"
   id="path236"
   inkscape:connector-curvature="0"
   style="fill:#000000;stroke:none" />
         <path
   d="m 11941,16323 v 0 l 61,5 46,18 31,25 22,36 21,46 15,53 13,59 15,58 66,-15 -15,-59 -13,-58 -15,-59 -26,-55 -33,-51 -50,-41 -61,-23 -77,-10 v 0 z"
   id="path238"
   inkscape:connector-curvature="0"
   style="fill:#000000;stroke:none" />
         <path
   d="m 10981,16547 25,-33 11,-59 20,-43 30,-35 49,-28 56,-23 63,-18 74,-10 79,-8 81,3 h 84 l 78,2 77,8 71,5 63,8 56,2 43,5 v -71 h -43 l -51,-2 -63,-8 -71,-5 -82,-8 -78,-2 -84,-5 -81,2 -84,8 -79,10 -74,18 -66,28 -58,38 -46,51 -31,63 -10,74 26,-33 -28,33 10,25 25,8 26,-8 10,-25 z"
   id="path240"
   inkscape:connector-curvature="0"
   style="fill:#000000;stroke:none" />
         <path
   d="m 10605,16615 36,16 340,-84 -15,-66 -341,84 36,15 -36,-15 -23,15 -2,25 15,21 26,5 z"
   id="path242"
   inkscape:connector-curvature="0"
   style="fill:#000000;stroke:none" />
         <path
   d="m 10341,16163 -49,-7 313,459 56,-35 -313,-460 -48,-8 48,8 -10,-10 -10,-5 -13,2 -12,3 -8,10 -8,10 v 13 l 5,13 z"
   id="path244"
   inkscape:connector-curvature="0"
   style="fill:#000000;stroke:none" />
         <path
   d="m 10069,16351 -8,43 280,-231 -41,-51 -279,232 -8,43 8,-43 -13,22 7,21 21,12 25,-5 z"
   id="path246"
   inkscape:connector-curvature="0"
   style="fill:#000000;stroke:none" />
         <path
   d="m 10470,16999 36,15 -437,-663 -56,36 437,663 36,15 -36,-15 10,10 13,5 10,-2 13,-5 7,-8 8,-10 v -13 l -5,-13 z"
   id="path248"
   inkscape:connector-curvature="0"
   style="fill:#000000;stroke:none" />
         <path
   d="m 11072,16872 -40,-30 -562,157 16,66 561,-157 -41,-31 41,31 23,-16 2,-25 -12,-20 -28,-5 z"
   id="path250"
   inkscape:connector-curvature="0"
   style="fill:#000000;stroke:none" />
         <path
   d="m 11103,17647 56,20 -87,-795 -66,5 87,795 56,21 -56,-21 12,23 23,8 23,-10 8,-26 z"
   id="path252"
   inkscape:connector-curvature="0"
   style="fill:#000000;stroke:none" />
         <path
   d="m 8638,15785 521,-56 176,86 -529,282 z"
   id="path254"
   inkscape:connector-curvature="0"
   style="fill:#ff0000;stroke:none" />
         <path
   d="m 9174,15698 -17,-2 -521,56 5,66 521,-56 -18,-3 18,3 23,-13 7,-23 -10,-23 -25,-7 z"
   id="path256"
   inkscape:connector-curvature="0"
   style="fill:#000000;stroke:none" />
         <path
   d="m 9350,15846 v -61 l -176,-87 -30,61 175,87 v -61 61 l 28,2 18,-18 3,-25 -18,-20 z"
   id="path258"
   inkscape:connector-curvature="0"
   style="fill:#000000;stroke:none" />
         <path
   d="m 8776,16112 45,16 529,-282 -31,-61 -528,282 46,15 -46,-15 -18,20 3,25 17,18 28,-2 z"
   id="path260"
   inkscape:connector-curvature="0"
   style="fill:#000000;stroke:none" />
         <path
   d="m 8636,15752 -28,48 168,312 61,-30 -168,-313 -28,49 28,-49 -10,-12 -10,-5 h -13 l -13,2 -10,8 -8,10 -2,13 5,15 z"
   id="path262"
   inkscape:connector-curvature="0"
   style="fill:#000000;stroke:none" />
         <path
   d="m 8859,15797 26,66 23,71 17,72 6,71 -6,76 -10,63 -17,51 -23,36 -26,25 -33,16 -33,5 -35,-5 -36,-16 -38,-23 -36,-28 -35,-38 -33,-40 -28,-49 -26,-53 -20,-56 -2,-33 7,-41 18,-45 25,-43 31,-41 33,-33 38,-23 36,-8 h 22 23 l 23,3 h 20 l 23,5 23,3 21,5 z"
   id="path264"
   inkscape:connector-curvature="0"
   style="fill:#7f3f00;stroke:none" />
         <path
   d="m 8966,16077 v 0 l -8,-76 -17,-74 -23,-74 -28,-68 -61,25 23,63 23,69 17,69 3,66 v 0 z"
   id="path266"
   inkscape:connector-curvature="0"
   style="fill:#000000;stroke:none" />
         <path
   d="m 8463,16051 v -2 l 23,61 25,56 31,50 35,46 38,41 41,30 41,26 43,18 43,7 43,-7 41,-21 33,-33 28,-43 20,-56 10,-68 8,-79 h -71 l -3,73 -10,59 -15,46 -18,28 -18,17 -25,10 -23,3 -28,-3 -28,-12 -35,-21 -31,-25 -33,-36 -30,-35 -26,-46 -25,-51 -18,-50 v -3 z"
   id="path268"
   inkscape:connector-curvature="0"
   style="fill:#000000;stroke:none" />
         <path
   d="m 8682,15739 v 0 l -49,13 -45,27 -39,36 -33,46 -28,45 -20,54 -8,48 3,43 66,-20 -2,-23 7,-33 15,-38 23,-41 28,-35 28,-31 31,-18 23,-2 v 0 z"
   id="path270"
   inkscape:connector-curvature="0"
   style="fill:#000000;stroke:none" />
         <path
   d="m 8890,15785 -20,-21 -26,-7 -23,-5 -23,-3 -25,-5 -23,-3 -23,-2 h -23 -22 v 71 h 22 23 l 23,2 18,-2 20,5 23,3 18,5 20,7 -20,-20 20,20 28,-2 15,-21 -2,-25 -20,-18 z"
   id="path272"
   inkscape:connector-curvature="0"
   style="fill:#000000;stroke:none" />
         <path
   d="m 8969,15752 7,58 18,56 31,48 40,41 48,33 54,23 56,12 h 58 l 59,-15 58,-28 53,-46 46,-63 41,-81 30,-102 21,-122 7,-145 -7,-58 -21,-54 -30,-48 -38,-43 -49,-33 -53,-23 -56,-13 h -58 l -59,16 -56,28 -53,43 -48,63 -41,82 -30,101 -21,122 z"
   id="path274"
   inkscape:connector-curvature="0"
   style="fill:#7f3f00;stroke:none" />
         <path
   d="m 9561,15421 v 0 l -5,142 -21,117 -30,97 -36,76 -43,59 -46,40 -51,23 -50,15 h -54 l -48,-12 -48,-21 -43,-28 -36,-35 -25,-41 -16,-51 -5,-50 h -71 l 10,66 21,61 35,55 46,46 53,38 59,26 63,12 h 64 l 66,-15 66,-33 61,-51 48,-68 46,-87 30,-106 21,-127 10,-148 v 0 z"
   id="path276"
   inkscape:connector-curvature="0"
   style="fill:#000000;stroke:none" />
         <path
   d="m 9004,15752 v 0 l 5,-145 21,-117 30,-97 36,-76 45,-58 46,-39 48,-22 51,-16 h 54 l 48,13 48,20 41,28 33,38 28,44 18,45 5,51 h 71 l -10,-66 -23,-61 -33,-53 -43,-48 -56,-39 -59,-25 -63,-13 h -64 l -66,16 -63,33 -61,48 -51,68 -46,87 -30,107 -21,127 -10,150 v 0 z"
   id="path278"
   inkscape:connector-curvature="0"
   style="fill:#000000;stroke:none" />
         <path
   d="m 9545,14512 31,78 23,87 12,84 -2,78 -23,66 -48,44 -79,17 -112,-17 -48,-18 -38,-28 -31,-33 -20,-41 -15,-43 -5,-46 2,-45 10,-46 18,-43 23,-39 33,-33 41,-25 45,-15 54,-8 61,5 z"
   id="path280"
   inkscape:connector-curvature="0"
   style="fill:#7f3f00;stroke:none" />
         <path
   d="m 9340,14982 v 0 l 119,20 94,-23 61,-56 28,-79 3,-83 -13,-89 -23,-92 -33,-81 -61,25 28,76 23,82 12,79 -2,73 -18,54 -35,30 -64,13 -104,-15 v 0 z"
   id="path282"
   inkscape:connector-curvature="0"
   style="fill:#000000;stroke:none" />
         <path
   d="m 9576,14499 -20,-20 -74,-21 -66,-7 -61,10 -51,18 -48,30 -38,38 -28,43 -21,49 -10,53 -5,48 8,54 18,48 22,46 36,40 46,33 56,21 15,-66 -41,-16 -30,-23 -26,-25 -17,-36 -13,-38 -3,-38 v -43 l 10,-38 16,-38 17,-33 28,-28 33,-20 41,-13 46,-5 56,2 63,21 -20,-21 20,21 28,-3 15,-20 -2,-26 -20,-17 z"
   id="path284"
   inkscape:connector-curvature="0"
   style="fill:#000000;stroke:none" />
         <path
   d="m 11784,16092 -18,109 -2,92 7,71 21,56 27,38 36,25 38,13 h 46 l 43,-13 46,-20 43,-31 38,-35 36,-43 25,-49 18,-53 5,-53 -5,-61 -10,-54 -21,-43 -22,-33 -31,-25 -33,-18 -33,-10 -38,-5 -36,2 -35,8 -36,13 -30,17 -28,21 -23,25 -18,25 z"
   id="path286"
   inkscape:connector-curvature="0"
   style="fill:#7f3f00;stroke:none" />
         <path
   d="m 12157,16199 v 0 l -2,48 -15,46 -23,43 -33,38 -33,33 -38,25 -41,18 -36,13 h -38 l -28,-10 -28,-18 -20,-30 -18,-49 -7,-63 2,-89 18,-107 -66,-10 -18,112 -2,94 7,78 23,64 36,46 43,33 48,15 h 53 l 51,-13 51,-23 48,-35 44,-38 38,-49 28,-53 20,-61 8,-58 v 0 z"
   id="path288"
   inkscape:connector-curvature="0"
   style="fill:#000000;stroke:none" />
         <path
   d="m 11817,16097 v 0 l 8,-20 12,-21 21,-20 22,-18 26,-15 30,-10 31,-8 h 33 l 33,3 25,7 28,16 23,20 18,25 18,39 10,45 2,59 h 72 l -8,-64 -10,-61 -23,-48 -28,-41 -38,-30 -38,-21 -41,-12 -43,-8 -38,5 -41,8 -41,15 -35,20 -33,23 -26,31 -22,30 -13,41 v 0 z"
   id="path290"
   inkscape:connector-curvature="0"
   style="fill:#000000;stroke:none" />
         <path
   d="m 11789,16061 -8,44 -17,45 -28,41 -33,38 -41,31 -43,25 -46,18 -43,5 -112,-15 -81,-38 -59,-61 -38,-79 -25,-89 -13,-97 -8,-101 -5,-97 3,-66 18,-58 30,-54 41,-43 48,-35 56,-26 61,-15 63,-5 92,20 71,51 48,79 33,96 21,104 10,105 5,96 z"
   id="path292"
   inkscape:connector-curvature="0"
   style="fill:#7f3f00;stroke:none" />
         <path
   d="m 11530,16344 v 0 l 51,-8 53,-20 46,-28 45,-33 39,-44 30,-45 20,-54 11,-51 h -72 l -5,36 -15,38 -25,36 -28,33 -36,28 -41,23 -38,15 -35,2 v 0 z"
   id="path294"
   inkscape:connector-curvature="0"
   style="fill:#000000;stroke:none" />
         <path
   d="m 11156,15734 v -3 l 5,97 8,104 13,99 25,94 43,86 66,72 94,43 120,18 v -72 l -104,-12 -69,-33 -51,-51 -33,-71 -25,-84 -13,-94 -8,-99 -5,-97 v -2 z"
   id="path296"
   inkscape:connector-curvature="0"
   style="fill:#000000;stroke:none" />
         <path
   d="m 11509,15393 v 0 l -68,8 -66,15 -64,28 -53,41 -46,48 -33,61 -20,66 -3,74 66,-5 3,-59 15,-51 28,-45 36,-38 43,-31 48,-23 56,-15 58,-3 v 0 z"
   id="path298"
   inkscape:connector-curvature="0"
   style="fill:#000000;stroke:none" />
         <path
   d="m 11825,16061 v 0 -81 l -8,-99 -10,-107 -21,-106 -35,-102 -54,-89 -83,-58 -105,-26 v 71 l 79,16 59,43 43,68 30,92 21,102 10,101 2,94 v 81 0 z"
   id="path300"
   inkscape:connector-curvature="0"
   style="fill:#000000;stroke:none" />
         <path
   d="m 11974,15096 h -35 v 615 h 71 v -615 z"
   id="path302"
   inkscape:connector-curvature="0"
   style="fill:#000000;stroke:none" />
         <path
   d="m 12028,15630 -31,-16 -160,310 61,31 160,-310 z"
   id="path304"
   inkscape:connector-curvature="0"
   style="fill:#000000;stroke:none" />
        </g>
       </g>
      </g>
     </g>
    </g>
   </g>
  </g>
 </g>
</svg>