<?xml version="1.0" encoding="UTF-8" standalone="no"?>
<svg
   xmlns:ooo="http://xml.openoffice.org/svg/export"
   xmlns:dc="http://purl.org/dc/elements/1.1/"
   xmlns:cc="http://creativecommons.org/ns#"
   xmlns:rdf="http://www.w3.org/1999/02/22-rdf-syntax-ns#"
   xmlns:svg="http://www.w3.org/2000/svg"
   xmlns="http://www.w3.org/2000/svg"
   xmlns:sodipodi="http://sodipodi.sourceforge.net/DTD/sodipodi-0.dtd"
   xmlns:inkscape="http://www.inkscape.org/namespaces/inkscape"
   version="1.2"
   width="21.690001mm"
   height="24.639999mm"
   viewBox="0 0 2169.0001 2463.9999"
   preserveAspectRatio="xMidYMid"
   xml:space="preserve"
   id="svg749"
   sodipodi:docname="fern1.svg"
   style="fill-rule:evenodd;stroke-width:28.22200012;stroke-linejoin:round"
   inkscape:version="0.92.5 (2060ec1f9f, 2020-04-08)"><metadata
   id="metadata753"><rdf:RDF><cc:Work
       rdf:about=""><dc:format>image/svg+xml</dc:format><dc:type
         rdf:resource="http://purl.org/dc/dcmitype/StillImage" /></cc:Work></rdf:RDF></metadata><sodipodi:namedview
   pagecolor="#ffffff"
   bordercolor="#666666"
   borderopacity="1"
   objecttolerance="10"
   gridtolerance="10"
   guidetolerance="10"
   inkscape:pageopacity="0"
   inkscape:pageshadow="2"
   inkscape:window-width="664"
   inkscape:window-height="487"
   id="namedview751"
   showgrid="false"
   inkscape:zoom="0.2102413"
   inkscape:cx="41.007875"
   inkscape:cy="46.563778"
   inkscape:window-x="0"
   inkscape:window-y="0"
   inkscape:window-maximized="0"
   inkscape:current-layer="svg749" />
 <defs
   class="ClipPathGroup"
   id="defs8">
  <clipPath
   id="presentation_clip_path"
   clipPathUnits="userSpaceOnUse">
   <rect
   x="0"
   y="0"
   width="21000"
   height="29700"
   id="rect2" />
  </clipPath>
  <clipPath
   id="presentation_clip_path_shrink"
   clipPathUnits="userSpaceOnUse">
   <rect
   x="21"
   y="29"
   width="20958"
   height="29641"
   id="rect5" />
  </clipPath>
 </defs>
 <defs
   class="TextShapeIndex"
   id="defs12">
  <g
   ooo:slide="id1"
   ooo:id-list="id3"
   id="g10" />
 </defs>
 <defs
   class="EmbeddedBulletChars"
   id="defs44">
  <g
   id="bullet-char-template-57356"
   transform="matrix(4.8828125e-4,0,0,-4.8828125e-4,0,0)">
   <path
   d="M 580,1141 1163,571 580,0 -4,571 Z"
   id="path14"
   inkscape:connector-curvature="0" />
  </g>
  <g
   id="bullet-char-template-57354"
   transform="matrix(4.8828125e-4,0,0,-4.8828125e-4,0,0)">
   <path
   d="M 8,1128 H 1137 V 0 H 8 Z"
   id="path17"
   inkscape:connector-curvature="0" />
  </g>
  <g
   id="bullet-char-template-10146"
   transform="matrix(4.8828125e-4,0,0,-4.8828125e-4,0,0)">
   <path
   d="M 174,0 602,739 174,1481 1456,739 Z M 1358,739 309,1346 659,739 Z"
   id="path20"
   inkscape:connector-curvature="0" />
  </g>
  <g
   id="bullet-char-template-10132"
   transform="matrix(4.8828125e-4,0,0,-4.8828125e-4,0,0)">
   <path
   d="M 2015,739 1276,0 H 717 l 543,543 H 174 v 393 h 1086 l -543,545 h 557 z"
   id="path23"
   inkscape:connector-curvature="0" />
  </g>
  <g
   id="bullet-char-template-10007"
   transform="matrix(4.8828125e-4,0,0,-4.8828125e-4,0,0)">
   <path
   d="m 0,-2 c -7,16 -16,29 -25,39 l 381,530 c -94,256 -141,385 -141,387 0,25 13,38 40,38 9,0 21,-2 34,-5 21,4 42,12 65,25 l 27,-13 111,-251 280,301 64,-25 24,25 c 21,-10 41,-24 62,-43 C 886,937 835,863 770,784 769,783 710,716 594,584 L 774,223 c 0,-27 -21,-55 -63,-84 l 16,-20 C 717,90 699,76 672,76 641,76 570,178 457,381 L 164,-76 c -22,-34 -53,-51 -92,-51 -42,0 -63,17 -64,51 -7,9 -10,24 -10,44 0,9 1,19 2,30 z"
   id="path26"
   inkscape:connector-curvature="0" />
  </g>
  <g
   id="bullet-char-template-10004"
   transform="matrix(4.8828125e-4,0,0,-4.8828125e-4,0,0)">
   <path
   d="M 285,-33 C 182,-33 111,30 74,156 52,228 41,333 41,471 c 0,78 14,145 41,201 34,71 87,106 158,106 53,0 88,-31 106,-94 l 23,-176 c 8,-64 28,-97 59,-98 l 735,706 c 11,11 33,17 66,17 42,0 63,-15 63,-46 V 965 c 0,-36 -10,-64 -30,-84 L 442,47 C 390,-6 338,-33 285,-33 Z"
   id="path29"
   inkscape:connector-curvature="0" />
  </g>
  <g
   id="bullet-char-template-9679"
   transform="matrix(4.8828125e-4,0,0,-4.8828125e-4,0,0)">
   <path
   d="M 813,0 C 632,0 489,54 383,161 276,268 223,411 223,592 c 0,181 53,324 160,431 106,107 249,161 430,161 179,0 323,-54 432,-161 108,-107 162,-251 162,-431 0,-180 -54,-324 -162,-431 C 1136,54 992,0 813,0 Z"
   id="path32"
   inkscape:connector-curvature="0" />
  </g>
  <g
   id="bullet-char-template-8226"
   transform="matrix(4.8828125e-4,0,0,-4.8828125e-4,0,0)">
   <path
   d="m 346,457 c -73,0 -137,26 -191,78 -54,51 -81,114 -81,188 0,73 27,136 81,188 54,52 118,78 191,78 73,0 134,-26 185,-79 51,-51 77,-114 77,-187 0,-75 -25,-137 -76,-188 -50,-52 -112,-78 -186,-78 z"
   id="path35"
   inkscape:connector-curvature="0" />
  </g>
  <g
   id="bullet-char-template-8211"
   transform="matrix(4.8828125e-4,0,0,-4.8828125e-4,0,0)">
   <path
   d="M -4,459 H 1135 V 606 H -4 Z"
   id="path38"
   inkscape:connector-curvature="0" />
  </g>
  <g
   id="bullet-char-template-61548"
   transform="matrix(4.8828125e-4,0,0,-4.8828125e-4,0,0)">
   <path
   d="m 173,740 c 0,163 58,303 173,419 116,115 255,173 419,173 163,0 302,-58 418,-173 116,-116 174,-256 174,-419 0,-163 -58,-303 -174,-418 C 1067,206 928,148 765,148 601,148 462,206 346,322 231,437 173,577 173,740 Z"
   id="path41"
   inkscape:connector-curvature="0" />
  </g>
 </defs>
 <g
   id="g49"
   transform="translate(-9415,-13618)">
  <g
   id="id2"
   class="Master_Slide">
   <g
   id="bg-id2"
   class="Background" />
   <g
   id="bo-id2"
   class="BackgroundObjects" />
  </g>
 </g>
 <g
   class="SlideGroup"
   id="g747"
   transform="translate(-9415,-13618)">
  <g
   id="g745">
   <g
   id="container-id1">
    <g
   id="id1"
   class="Slide"
   clip-path="url(#presentation_clip_path)">
     <g
   class="Page"
   id="g741">
      <g
   class="Graphic"
   id="g739">
       <g
   id="id3">
        <rect
   class="BoundingBox"
   x="9415"
   y="13618"
   width="2169"
   height="2464"
   id="rect51"
   style="fill:none;stroke:none" />
        <defs
   id="defs56">
         <clipPath
   id="clip_path_1"
   clipPathUnits="userSpaceOnUse">
          <path
   d="m 9415,13618 h 2168 v 2463 H 9415 Z"
   id="path53"
   inkscape:connector-curvature="0" />
         </clipPath>
        </defs>
        <g
   clip-path="url(#clip_path_1)"
   id="g736">
         <path
   d="m 11569,15240 v 522 l -33,10 -38,7 -41,8 -43,8 -49,5 -48,5 -51,2 h -51 -51 -50 l -49,-2 -48,-5 -46,-8 -43,-8 -38,-10 -36,-12 v -519 l 41,13 41,7 43,8 46,7 48,6 46,2 h 48 48 49 l 48,-2 46,-6 45,-5 46,-7 41,-8 41,-8 z"
   id="path58"
   inkscape:connector-curvature="0"
   style="fill:#8e00cc;stroke:none" />
         <path
   d="m 11571,15769 8,-7 v -522 h -20 v 522 l 7,-8 -7,8 2,7 8,3 7,-3 3,-7 z"
   id="path60"
   inkscape:connector-curvature="0"
   style="fill:#000000;stroke:none" />
         <path
   d="m 10844,15762 8,7 35,13 41,10 43,8 46,7 48,5 49,6 h 50 51 51 l 51,-6 48,-5 49,-5 43,-7 41,-8 38,-8 35,-10 -5,-15 -30,10 -38,8 -41,7 -43,8 -49,5 -48,5 h -51 -51 -51 -50 -49 l -48,-5 -46,-8 -43,-7 -36,-10 -35,-13 7,8 -7,-8 h -8 l -2,5 v 5 l 5,5 z"
   id="path62"
   inkscape:connector-curvature="0"
   style="fill:#000000;stroke:none" />
         <path
   d="m 10857,15235 -13,8 v 519 h 20 v -519 l -12,7 12,-7 -2,-8 -8,-2 -7,2 -3,8 z"
   id="path64"
   inkscape:connector-curvature="0"
   style="fill:#000000;stroke:none" />
         <path
   d="m 11579,15240 -13,-7 -35,10 -41,7 -41,8 -46,8 -45,5 -46,5 h -48 -49 -48 -48 -46 l -48,-5 -46,-8 -43,-7 -41,-8 -38,-13 -5,15 43,13 41,8 43,7 46,8 48,5 46,5 h 48 48 49 l 48,-5 46,-5 45,-5 46,-8 41,-7 41,-8 40,-10 -12,-8 12,8 5,-5 v -5 l -2,-5 h -8 z"
   id="path66"
   inkscape:connector-curvature="0"
   style="fill:#000000;stroke:none" />
         <path
   d="m 11195,15375 v 633 l -33,10 -38,11 -41,7 -43,5 -48,8 -49,2 -51,6 h -48 -53 -49 l -51,-3 -48,-5 -43,-8 -43,-7 -38,-10 -36,-13 v -633 l 38,12 43,8 44,8 45,7 46,5 48,3 h 49 48 46 l 48,-3 46,-5 46,-5 45,-7 41,-8 41,-8 z"
   id="path68"
   inkscape:connector-curvature="0"
   style="fill:#8e00cc;stroke:none" />
         <path
   d="m 11197,16016 8,-8 v -633 h -20 v 633 l 7,-7 -7,7 2,8 8,2 8,-2 2,-8 z"
   id="path70"
   inkscape:connector-curvature="0"
   style="fill:#000000;stroke:none" />
         <path
   d="m 10473,16011 7,7 36,13 41,10 43,8 43,8 48,5 51,5 h 49 53 l 48,-3 51,-5 49,-2 48,-8 43,-5 41,-8 40,-10 33,-10 -5,-15 -33,10 -35,10 -41,8 -43,5 -48,7 -49,3 -51,5 -48,-3 h -53 -49 -51 l -48,-5 -43,-7 -43,-8 -36,-10 -35,-13 7,8 -7,-8 h -8 l -3,5 v 5 l 5,5 z"
   id="path72"
   inkscape:connector-curvature="0"
   style="fill:#000000;stroke:none" />
         <path
   d="m 10486,15370 -13,8 v 633 h 20 v -633 l -13,7 13,-7 -2,-8 -8,-3 -8,3 -2,8 z"
   id="path74"
   inkscape:connector-curvature="0"
   style="fill:#000000;stroke:none" />
         <path
   d="m 11205,15375 -13,-8 -35,11 -41,7 -41,8 -45,8 -46,5 -46,5 h -48 -46 -48 -49 -48 l -46,-5 -45,-8 -44,-8 -43,-7 -35,-13 -6,15 41,13 43,8 44,7 45,8 46,5 48,5 h 49 48 46 l 48,-5 46,-5 46,-5 45,-8 41,-7 41,-8 40,-10 -12,-8 12,8 6,-5 v -5 l -3,-6 h -8 z"
   id="path76"
   inkscape:connector-curvature="0"
   style="fill:#000000;stroke:none" />
         <path
   d="m 11569,15240 -38,10 -41,8 -41,8 -46,7 -45,5 -46,6 -48,2 h -49 -48 -48 l -46,-2 -48,-6 -46,-7 -43,-8 -41,-7 -41,-13 41,-10 43,-8 46,-8 46,-5 48,-5 51,-2 48,-3 h 51 48 l 49,3 48,2 43,5 43,5 41,6 36,7 z"
   id="path78"
   inkscape:connector-curvature="0"
   style="fill:#33007f;stroke:none" />
         <path
   d="m 10852,15235 v 15 l 43,13 41,8 43,7 46,8 48,5 46,5 h 48 48 49 l 48,-5 46,-5 45,-5 46,-8 41,-7 41,-8 40,-10 -5,-15 -35,10 -41,7 -41,8 -46,8 -45,5 -46,5 h -48 -49 -48 -48 -46 l -48,-5 -46,-8 -43,-7 -41,-8 -38,-13 v 15 -15 h -8 l -2,5 v 5 l 5,5 z"
   id="path80"
   inkscape:connector-curvature="0"
   style="fill:#000000;stroke:none" />
         <path
   d="m 11571,15248 v -15 l -33,-10 -38,-8 -41,-5 -43,-5 -43,-5 -48,-3 -49,-5 h -48 -51 l -48,5 -51,3 -48,5 -46,5 -46,7 -43,8 -43,10 5,15 38,-10 43,-7 46,-8 46,-5 48,-5 51,-3 h 48 51 48 49 l 48,3 43,5 43,5 41,5 33,8 33,10 v -15 15 h 8 l 2,-5 v -8 l -5,-2 z"
   id="path82"
   inkscape:connector-curvature="0"
   style="fill:#000000;stroke:none" />
         <path
   d="m 11195,15375 -38,10 -41,8 -41,8 -45,7 -46,5 -46,5 -48,3 h -46 -48 -49 l -48,-3 -46,-5 -45,-7 -44,-8 -43,-8 -38,-12 41,-11 40,-7 46,-8 48,-5 49,-5 48,-3 48,-2 h 51 49 l 48,2 48,3 46,5 41,5 40,5 36,8 z"
   id="path84"
   inkscape:connector-curvature="0"
   style="fill:#33007f;stroke:none" />
         <path
   d="m 10480,15370 v 15 l 41,13 43,8 44,7 45,8 46,5 48,5 h 49 48 46 l 48,-5 46,-5 46,-5 45,-8 41,-7 41,-8 40,-10 -5,-16 -35,11 -41,7 -41,8 -45,8 -46,5 -46,5 h -48 -46 -48 -49 -48 l -46,-5 -45,-8 -44,-8 -43,-7 -35,-13 v 15 -15 h -8 l -3,5 v 5 l 5,5 z"
   id="path86"
   inkscape:connector-curvature="0"
   style="fill:#000000;stroke:none" />
         <path
   d="m 11197,15383 v -16 l -33,-10 -38,-7 -40,-5 -41,-6 -46,-5 -48,-2 -48,-5 h -49 -51 l -48,5 -48,2 -49,5 -48,6 -46,7 -40,8 -44,10 6,15 38,-10 40,-8 46,-7 48,-5 49,-5 48,-3 h 48 51 49 48 l 48,3 46,5 41,5 40,5 33,8 33,10 v -16 16 h 8 l 3,-5 v -8 l -6,-3 z"
   id="path88"
   inkscape:connector-curvature="0"
   style="fill:#000000;stroke:none" />
         <path
   d="m 10839,15403 -15,-30 -3,-34 5,-38 13,-35 10,-36 10,-25 3,-21 -8,-7 -7,5 -16,10 -20,13 -18,15 -2,41 -5,56 -13,58 -18,46 h 10 13 10 13 l 13,2 h 12 10 11 l -3,-5 v -5 l -2,-2 z"
   id="path90"
   inkscape:connector-curvature="0"
   style="fill:#701600;stroke:none" />
         <path
   d="m 10859,15184 h -5 v 0 l -2,18 -10,26 -11,35 -12,38 -8,38 5,36 15,33 16,-10 -16,-28 v -31 l 3,-38 13,-33 10,-35 10,-26 2,-23 -15,-15 h -5 z"
   id="path92"
   inkscape:connector-curvature="0"
   style="fill:#000000;stroke:none" />
         <path
   d="m 10801,15220 -3,5 18,-13 20,-12 16,-11 7,-5 -10,-15 -7,5 -16,10 -20,13 -18,18 -2,5 2,-5 v 5 l 3,3 2,2 h 5 z"
   id="path94"
   inkscape:connector-curvature="0"
   style="fill:#000000;stroke:none" />
         <path
   d="m 10755,15413 8,10 17,-45 13,-61 5,-56 3,-41 h -15 l -3,41 -5,56 -13,56 -18,45 8,10 -8,-10 v 8 l 6,2 h 7 l 3,-5 z"
   id="path96"
   inkscape:connector-curvature="0"
   style="fill:#000000;stroke:none" />
         <path
   d="m 10839,15426 8,-10 -11,-3 h -10 l -12,3 -13,-3 -13,-2 h -10 -13 l -10,2 v 15 l 10,3 h 13 10 l 13,-3 13,3 12,3 h 10 l 11,-3 7,-10 -7,10 5,-3 2,-5 -2,-5 -5,-2 z"
   id="path98"
   inkscape:connector-curvature="0"
   style="fill:#000000;stroke:none" />
         <path
   d="m 10831,15408 v -5 l 3,10 2,3 v 2 l 3,8 15,-5 -2,-3 v -7 l -3,-3 -2,-5 v -5 5 l -3,-5 -5,-3 -5,3 -3,5 z"
   id="path100"
   inkscape:connector-curvature="0"
   style="fill:#000000;stroke:none" />
         <path
   d="m 10834,14661 h 38 l 33,7 28,13 28,15 23,18 18,18 15,20 13,18 v -15 -23 l 7,-18 23,-5 10,8 3,17 -3,26 -5,33 -2,33 2,38 13,33 23,33 28,-10 15,-23 5,-28 3,-33 v -30 l 2,-26 10,-15 21,-3 20,13 5,28 -2,38 -5,48 -8,51 v 51 l 13,48 25,46 3,-53 15,-69 23,-58 25,-18 10,15 v 23 l -7,36 -3,38 v 43 l 13,46 28,40 48,39 -2,-51 -11,-66 -7,-56 7,-26 13,10 8,23 5,28 v 18 l 8,15 17,21 26,20 23,23 10,-26 7,-30 3,-33 -5,-26 -18,-28 -23,-30 -18,-31 -2,-20 5,-5 h 10 l 10,3 13,7 15,10 16,13 15,15 15,16 3,-54 -11,-40 -17,-28 -16,-23 -10,-8 -15,-2 -20,2 h -23 -21 l -17,-2 -13,-8 -5,-15 2,-18 5,-13 11,-8 15,-5 h 20 l 26,5 28,8 35,13 -23,-71 -33,-41 -40,-18 -44,-2 -43,7 -38,8 -28,5 -15,-5 -8,-18 5,-18 13,-12 20,-11 26,-7 30,-3 h 33 l 36,3 -51,-36 -48,-20 -46,-5 -41,5 -38,15 -33,20 -28,28 -25,31 -16,-15 -12,-23 -5,-23 -3,-18 5,-15 13,-15 13,-16 10,-10 h -13 -10 l -13,3 -10,2 -10,5 -10,5 -11,8 -7,8 -13,10 -13,13 -12,12 -16,15 -10,18 -10,16 -8,17 -2,18 h -13 l -10,3 h -13 l -12,2 -11,5 -10,3 -10,5 z"
   id="path102"
   inkscape:connector-curvature="0"
   style="fill:#4ce519;stroke:none" />
         <path
   d="m 11020,14770 17,-5 -12,-18 -16,-20 -20,-21 -23,-17 -30,-16 -28,-12 -36,-8 h -38 v 15 h 38 l 31,8 28,13 25,15 23,18 15,15 15,20 13,18 18,-5 -18,5 5,5 8,-2 2,-6 v -7 z"
   id="path104"
   inkscape:connector-curvature="0"
   style="fill:#006600;stroke:none" />
         <path
   d="m 11060,14701 v 0 l -28,5 -10,26 -2,23 v 15 h 20 v -15 l -3,-23 5,-10 18,-5 v 0 z"
   id="path106"
   inkscape:connector-curvature="0"
   style="fill:#006600;stroke:none" />
         <path
   d="m 11101,14922 5,3 -20,-31 -13,-30 v -38 -33 l 5,-33 5,-26 -5,-20 -18,-13 v 16 l 3,2 v 15 26 l -5,33 -5,33 5,38 12,36 26,35 5,3 -5,-3 h 5 l 5,-2 2,-3 -2,-5 z"
   id="path108"
   inkscape:connector-curvature="0"
   style="fill:#006600;stroke:none" />
         <path
   d="m 11185,14755 v 0 l -26,2 -12,21 -5,28 v 30 33 l -6,25 -12,18 -23,10 v 16 l 33,-10 18,-28 5,-31 5,-33 v -30 -23 l 8,-11 15,-2 v 0 z"
   id="path110"
   inkscape:connector-curvature="0"
   style="fill:#006600;stroke:none" />
         <path
   d="m 11225,15085 13,-5 -23,-43 -12,-46 v -51 l 7,-51 5,-48 5,-38 -7,-33 -28,-15 v 15 l 12,10 3,23 v 38 l -5,48 -8,51 v 51 l 13,51 28,48 13,-5 -13,5 h 5 l 5,-2 3,-3 -3,-5 z"
   id="path112"
   inkscape:connector-curvature="0"
   style="fill:#006600;stroke:none" />
         <path
   d="m 11302,14879 v 0 l -36,21 -23,61 -15,71 -3,53 h 16 l 2,-53 16,-66 22,-56 16,-16 v 0 z"
   id="path114"
   inkscape:connector-curvature="0"
   style="fill:#006600;stroke:none" />
         <path
   d="m 11381,15167 10,-8 -46,-36 -25,-38 -13,-43 2,-43 v -38 l 8,-36 v -25 l -15,-21 -5,15 5,11 v 20 l -8,36 -5,38 3,43 12,48 31,44 51,40 10,-7 -10,7 h 7 l 3,-5 v -8 l -5,-2 z"
   id="path116"
   inkscape:connector-curvature="0"
   style="fill:#006600;stroke:none" />
         <path
   d="m 11375,14958 v 0 l -17,36 10,56 10,66 3,51 h 15 l -3,-51 -10,-66 -5,-56 -3,-16 v 0 z"
   id="path118"
   inkscape:connector-curvature="0"
   style="fill:#006600;stroke:none" />
         <path
   d="m 11411,15047 v 0 l -2,-18 -6,-28 -7,-28 -21,-15 v 20 l 6,5 7,18 5,28 -2,18 v 0 z"
   id="path120"
   inkscape:connector-curvature="0"
   style="fill:#006600;stroke:none" />
         <path
   d="m 11467,15123 13,-2 -23,-23 -26,-20 -15,-21 -5,-10 h -20 l 10,20 20,21 26,20 23,23 12,-3 -12,3 h 5 l 5,-3 2,-2 -2,-5 z"
   id="path122"
   inkscape:connector-curvature="0"
   style="fill:#006600;stroke:none" />
         <path
   d="m 11482,15014 v 0 l 3,23 v 33 l -8,28 -10,25 15,5 10,-25 8,-33 5,-33 -7,-28 v 0 z"
   id="path124"
   inkscape:connector-curvature="0"
   style="fill:#006600;stroke:none" />
         <path
   d="m 11421,14900 v 0 l 3,25 18,33 22,31 18,25 16,-5 -18,-31 -23,-30 -18,-28 -2,-15 v 0 z"
   id="path126"
   inkscape:connector-curvature="0"
   style="fill:#006600;stroke:none" />
         <path
   d="m 11520,14961 13,-5 -15,-16 -15,-15 -16,-15 -15,-10 -15,-8 -13,-3 h -13 l -10,11 16,5 v 0 h 7 l 8,2 10,8 15,10 15,10 16,15 15,16 13,-5 -13,5 h 5 l 5,-3 3,-2 -3,-5 z"
   id="path128"
   inkscape:connector-curvature="0"
   style="fill:#006600;stroke:none" />
         <path
   d="m 11480,14821 v 0 l 15,23 18,25 10,38 -3,54 h 16 l 2,-54 -10,-43 -18,-31 -15,-22 v 0 z"
   id="path130"
   inkscape:connector-curvature="0"
   style="fill:#006600;stroke:none" />
         <path
   d="m 11353,14783 v 0 l 7,20 18,10 20,3 21,2 h 23 l 20,-2 h 13 l 5,5 15,-10 -15,-11 -18,-5 -20,3 h -23 l -21,2 -15,-2 -8,-5 -2,-10 v 0 z"
   id="path132"
   inkscape:connector-curvature="0"
   style="fill:#006600;stroke:none" />
         <path
   d="m 11498,14765 10,-8 -36,-13 -30,-7 -26,-5 h -20 l -18,5 -15,10 -5,18 -5,18 h 20 v -18 l 5,-8 5,-5 13,-5 h 20 l 26,5 25,8 36,12 10,-7 -10,7 h 7 l 3,-5 v -7 l -5,-3 z"
   id="path134"
   inkscape:connector-curvature="0"
   style="fill:#006600;stroke:none" />
         <path
   d="m 11233,14653 v -3 l 23,13 28,-8 38,-7 43,-8 44,3 35,18 31,35 23,69 h 15 l -23,-74 -36,-46 -45,-17 -44,-3 -43,8 -38,7 -28,3 -8,2 v -2 z"
   id="path136"
   inkscape:connector-curvature="0"
   style="fill:#006600;stroke:none" />
         <path
   d="m 11391,14589 5,-15 -36,-5 h -33 l -30,5 -28,8 -23,10 -15,15 -6,23 8,23 15,-10 -7,-13 5,-13 10,-10 18,-10 23,-8 h 30 33 36 l 5,-15 -5,15 5,-2 2,-5 -2,-5 -5,-3 z"
   id="path138"
   inkscape:connector-curvature="0"
   style="fill:#006600;stroke:none" />
         <path
   d="m 11081,14628 12,-3 23,-31 28,-25 31,-20 38,-16 38,-2 43,2 48,21 49,35 10,-15 -53,-35 -49,-21 -48,-7 -43,7 -38,15 -36,21 -28,30 -28,31 13,-3 -13,3 v 7 l 5,6 5,2 5,-5 z"
   id="path140"
   inkscape:connector-curvature="0"
   style="fill:#006600;stroke:none" />
         <path
   d="m 11040,14541 v 0 l 5,18 5,25 13,26 18,18 10,-16 -13,-12 -13,-21 -5,-20 v -18 0 z"
   id="path142"
   inkscape:connector-curvature="0"
   style="fill:#006600;stroke:none" />
         <path
   d="m 11091,14493 -8,-13 -8,10 -15,15 -13,16 -7,20 h 20 l 3,-10 12,-15 11,-16 12,-10 -7,-13 7,13 v -7 l -2,-6 -8,-2 -5,5 z"
   id="path144"
   inkscape:connector-curvature="0"
   style="fill:#006600;stroke:none" />
         <path
   d="m 11012,14523 v -2 l 8,-5 10,-8 7,-5 10,-5 8,-3 13,-2 10,2 13,-2 v -16 l -13,-2 -10,2 -13,3 -13,3 -10,5 -12,5 -11,7 -7,11 v -3 3 5 l 2,2 3,3 h 5 z"
   id="path146"
   inkscape:connector-curvature="0"
   style="fill:#006600;stroke:none" />
         <path
   d="m 10923,14643 10,-8 v -15 l 8,-18 10,-13 10,-17 13,-16 12,-12 13,-13 13,-8 -10,-15 -13,13 -13,12 -12,13 -18,15 -10,18 -11,18 -7,18 -5,20 10,-7 -10,7 2,8 8,2 8,-2 2,-8 z"
   id="path148"
   inkscape:connector-curvature="0"
   style="fill:#006600;stroke:none" />
         <path
   d="m 10834,14653 5,13 10,-5 8,-6 10,-2 10,-5 10,-3 h 13 l 10,-2 h 13 v -15 h -13 l -10,2 h -13 l -15,3 -10,5 -10,2 -13,5 -10,10 5,13 -5,-13 v 6 l 2,2 3,3 h 5 z"
   id="path150"
   inkscape:connector-curvature="0"
   style="fill:#006600;stroke:none" />
         <path
   d="m 9891,13697 7,2 13,3 18,2 17,6 16,5 17,2 13,5 8,5 13,-2 12,-3 13,-2 h 8 l -11,-10 -10,-11 -12,-7 -13,-8 -13,-8 -13,-5 -12,-5 h -10 l 17,-7 21,-8 20,-8 20,-5 21,-2 h 20 l 15,5 13,8 13,12 12,18 16,18 15,15 15,15 15,11 13,5 10,-3 5,-8 -2,-10 -5,-7 -10,-13 -13,-10 -10,-10 -13,-8 -8,-8 h 26 l 25,5 28,8 26,10 25,13 20,15 18,15 10,16 13,30 13,26 13,20 12,8 8,-16 -5,-33 -10,-38 -16,-28 21,8 20,7 20,13 23,13 18,15 15,18 11,18 2,18 -2,38 -3,38 -3,25 11,13 12,-8 8,-25 5,-33 v -31 l 13,8 15,8 13,7 10,10 10,11 8,10 5,10 2,10 v 20 18 21 l -2,17 h -21 -25 l -23,3 -25,2 -26,3 -25,5 -23,5 -20,8 5,-13 v -10 l -5,-8 -5,-7 -11,7 -12,10 -16,11 -17,7 -18,8 -15,5 h -13 l -8,-5 -10,-13 -8,-10 -7,-10 -5,-10 23,-3 20,-2 18,-8 17,-10 13,-8 8,-10 2,-10 -5,-8 -10,-5 -10,-2 h -13 l -12,2 -13,8 -13,5 -10,7 -10,8 -10,10 -13,13 -15,18 -18,18 -15,17 -16,18 -12,15 -11,11 -12,-3 h -10 l -13,-3 -10,-2 -13,-3 -10,-5 -10,-7 -11,-8 13,-15 18,-21 18,-22 20,-26 18,-25 10,-21 3,-20 -8,-13 -13,-7 -12,-3 -11,5 -10,5 -10,10 -10,13 -8,13 -5,13 -8,17 -12,28 -15,33 -23,33 -28,31 -36,23 -43,8 -48,-8 15,-20 20,-31 23,-36 23,-38 20,-38 13,-30 2,-23 -10,-10 -17,5 -23,15 -21,23 -20,28 -18,30 -15,31 -8,28 -2,20 -13,18 -18,20 -20,21 -20,17 -23,18 -26,13 -28,8 -28,2 23,-36 31,-43 33,-46 33,-48 25,-46 21,-38 7,-28 -5,-15 h -15 l -15,10 -18,18 -15,23 -16,25 -12,28 -11,23 -5,15 -7,11 -16,12 -17,18 -18,20 -18,18 -18,18 -12,15 -8,8 10,-23 13,-25 12,-28 11,-28 10,-23 5,-23 2,-13 -2,-7 -13,10 -28,28 -35,40 -41,49 -41,51 -35,45 -31,36 -15,23 2,-59 6,-45 10,-31 7,-18 10,-10 18,-18 21,-20 25,-25 23,-26 20,-23 13,-18 3,-7 -6,-3 -10,3 -10,5 -13,5 -12,8 -13,7 -10,8 -10,5 7,-13 13,-15 10,-15 13,-18 13,-15 10,-13 10,-10 8,-8 15,-5 30,-10 41,-10 46,-16 43,-12 38,-13 26,-10 10,-10 -5,-5 -11,-3 -17,3 h -18 l -20,5 -21,5 -18,5 -15,5 20,-13 23,-13 23,-15 26,-12 25,-13 20,-13 21,-8 z"
   id="path152"
   inkscape:connector-curvature="0"
   style="fill:#4ce519;stroke:none" />
         <path
   d="m 10000,13720 h 5 l -10,-5 -16,-5 -17,-3 -13,-5 -20,-5 -18,-3 -13,-2 -5,-3 -5,15 10,3 13,3 18,2 15,5 18,5 17,3 11,5 5,5 h 5 -5 7 l 5,-5 3,-5 -5,-5 z"
   id="path154"
   inkscape:connector-curvature="0"
   style="fill:#006600;stroke:none" />
         <path
   d="m 10041,13725 7,-13 h -10 l -13,3 -12,2 -13,3 v 15 l 13,-3 12,-2 13,-3 h 5 l 8,-12 -8,12 h 8 l 2,-5 v -7 l -5,-3 z"
   id="path156"
   inkscape:connector-curvature="0"
   style="fill:#006600;stroke:none" />
         <path
   d="m 9949,13659 3,17 10,-2 10,5 13,5 10,8 12,7 13,8 10,8 11,10 10,-10 -10,-11 -11,-12 -12,-8 -13,-8 -15,-7 -13,-5 -15,-5 -10,-3 2,18 -2,-18 -8,3 -3,7 3,8 8,2 z"
   id="path158"
   inkscape:connector-curvature="0"
   style="fill:#006600;stroke:none" />
         <path
   d="m 10104,13643 v 0 l -15,-10 -18,-5 h -20 l -21,3 -23,5 -20,7 -20,8 -18,8 5,15 18,-8 20,-7 21,-8 17,-5 21,-3 h 20 l 13,6 10,5 v 0 z"
   id="path160"
   inkscape:connector-curvature="0"
   style="fill:#006600;stroke:none" />
         <path
   d="m 10203,13732 v 0 l -5,3 -10,-5 -13,-10 -15,-13 -15,-15 -13,-18 -13,-18 -15,-13 -10,11 10,12 13,18 18,18 15,15 15,18 18,10 15,5 15,-2 v 0 z"
   id="path162"
   inkscape:connector-curvature="0"
   style="fill:#006600;stroke:none" />
         <path
   d="m 10152,13659 -5,12 8,11 13,7 10,8 13,10 7,13 5,5 3,7 h -3 l 10,16 8,-16 -2,-12 -6,-10 -12,-13 -13,-10 -10,-13 -13,-8 -8,-5 -5,13 5,-13 -5,-2 -2,2 -3,5 v 5 z"
   id="path164"
   inkscape:connector-curvature="0"
   style="fill:#006600;stroke:none" />
         <path
   d="m 10338,13745 v 0 l -13,-18 -17,-17 -21,-16 -28,-12 -25,-11 -31,-7 -25,-5 h -26 v 15 h 26 l 25,5 26,8 25,10 23,13 20,15 18,13 8,12 v 0 z"
   id="path166"
   inkscape:connector-curvature="0"
   style="fill:#006600;stroke:none" />
         <path
   d="m 10381,13821 v 0 l -7,-2 -11,-18 -12,-25 -13,-31 -15,5 12,31 13,25 15,23 18,13 v 0 z"
   id="path168"
   inkscape:connector-curvature="0"
   style="fill:#006600;stroke:none" />
         <path
   d="m 10361,13710 -10,12 15,26 10,35 3,33 2,5 v 21 l 18,-26 -8,-33 -10,-40 -15,-31 -10,13 10,-13 -5,-5 -5,3 -5,5 v 7 z"
   id="path170"
   inkscape:connector-curvature="0"
   style="fill:#006600;stroke:none" />
         <path
   d="m 10498,13827 v 0 l -5,-21 -10,-20 -18,-18 -18,-18 -23,-12 -22,-13 -21,-8 -20,-7 -5,15 20,7 21,8 17,13 23,12 18,13 13,18 10,15 v 16 0 z"
   id="path172"
   inkscape:connector-curvature="0"
   style="fill:#006600;stroke:none" />
         <path
   d="m 10491,13933 v 0 l -3,-5 3,-25 2,-38 5,-38 h -20 v 38 l -3,38 -2,25 18,21 v 0 z"
   id="path174"
   inkscape:connector-curvature="0"
   style="fill:#006600;stroke:none" />
         <path
   d="m 10519,13837 -11,7 v 31 l -5,33 -7,20 -5,5 v 16 l 20,-11 8,-30 5,-33 v -31 l -11,8 11,-8 -3,-5 -5,-2 -5,2 -3,5 z"
   id="path176"
   inkscape:connector-curvature="0"
   style="fill:#006600;stroke:none" />
         <path
   d="m 10602,13918 v 0 l -5,-13 -5,-12 -7,-11 -13,-10 -10,-12 -15,-8 -16,-8 -12,-7 -6,15 13,8 15,7 11,8 10,7 7,11 8,10 5,7 v 8 0 z"
   id="path178"
   inkscape:connector-curvature="0"
   style="fill:#006600;stroke:none" />
         <path
   d="m 10590,14005 7,-11 3,-17 2,-21 v -18 -20 h -20 v 20 18 l 3,21 -3,17 8,-10 -8,10 3,5 5,3 5,-3 2,-5 z"
   id="path180"
   inkscape:connector-curvature="0"
   style="fill:#006600;stroke:none" />
         <path
   d="m 10394,14017 10,10 20,-7 21,-5 25,-5 26,-3 25,-2 h 23 25 21 v -21 h -21 -25 l -23,5 -25,3 -26,2 -25,5 -26,6 -20,7 10,10 -10,-10 -5,3 v 7 l 3,5 h 7 z"
   id="path182"
   inkscape:connector-curvature="0"
   style="fill:#006600;stroke:none" />
         <path
   d="m 10402,13987 h -11 l 3,7 5,5 v 8 l -5,10 15,5 5,-15 v -13 l -5,-10 -7,-7 h -11 11 l -5,-3 -3,3 -3,5 v 5 z"
   id="path184"
   inkscape:connector-curvature="0"
   style="fill:#006600;stroke:none" />
         <path
   d="m 10280,14030 v 0 l 15,8 h 13 l 17,-6 18,-7 18,-8 18,-10 12,-10 11,-10 -11,-10 -10,5 -12,10 -13,10 -18,8 -18,7 -12,5 h -13 v -2 0 z"
   id="path186"
   inkscape:connector-curvature="0"
   style="fill:#006600;stroke:none" />
         <path
   d="m 10257,13971 -8,13 5,13 8,10 7,10 11,13 15,-10 -10,-13 -8,-10 -8,-10 -5,-8 -7,13 7,-13 -2,-5 h -8 l -5,3 v 7 z"
   id="path188"
   inkscape:connector-curvature="0"
   style="fill:#006600;stroke:none" />
         <path
   d="m 10348,13928 v 0 l 3,3 -3,7 -5,5 -13,8 -15,10 -18,8 -17,2 h -23 v 21 l 23,-5 22,-3 18,-7 21,-11 12,-7 10,-16 3,-12 -8,-13 v 0 z"
   id="path190"
   inkscape:connector-curvature="0"
   style="fill:#006600;stroke:none" />
         <path
   d="m 10267,13954 v 0 l 10,-8 8,-8 12,-5 13,-7 10,-3 h 13 l 8,3 7,2 10,-10 -12,-8 -13,-2 h -13 l -15,2 -13,8 -12,5 -13,8 -10,7 v 0 z"
   id="path192"
   inkscape:connector-curvature="0"
   style="fill:#006600;stroke:none" />
         <path
   d="m 10152,14073 5,-2 11,-11 15,-15 15,-18 13,-17 18,-18 15,-18 13,-13 10,-7 -10,-16 -11,13 -12,13 -15,18 -18,17 -18,18 -15,18 -11,15 -10,10 5,-2 -5,2 v 6 l 3,2 2,3 h 5 z"
   id="path194"
   inkscape:connector-curvature="0"
   style="fill:#006600;stroke:none" />
         <path
   d="m 10056,14030 2,10 10,10 11,8 12,5 16,3 10,2 13,3 h 10 l 12,2 v -15 l -12,-3 h -10 l -13,-2 -10,-3 -11,-2 -7,-5 -10,-8 -11,-5 3,10 -3,-10 -5,-3 -2,3 -3,5 v 5 z"
   id="path196"
   inkscape:connector-curvature="0"
   style="fill:#006600;stroke:none" />
         <path
   d="m 10150,13880 v 0 l 5,5 -3,18 -10,18 -18,25 -20,25 -18,23 -18,21 -12,15 15,10 13,-15 18,-20 17,-23 21,-26 17,-25 11,-23 2,-23 -10,-20 v 0 z"
   id="path198"
   inkscape:connector-curvature="0"
   style="fill:#006600;stroke:none" />
         <path
   d="m 10084,13923 v 0 l 5,-13 7,-10 8,-12 10,-8 8,-5 8,-5 10,2 10,8 10,-15 -15,-8 -15,-3 -13,6 -13,5 -10,12 -13,13 -7,15 -6,13 v 0 z"
   id="path200"
   inkscape:connector-curvature="0"
   style="fill:#006600;stroke:none" />
         <path
   d="m 9855,14081 5,13 51,10 46,-10 38,-23 30,-33 23,-33 15,-36 13,-28 8,-18 -16,-5 -7,18 -13,28 -15,30 -23,33 -25,28 -33,23 -41,5 -46,-5 5,13 -5,-13 h -8 l -2,5 v 5 l 5,6 z"
   id="path202"
   inkscape:connector-curvature="0"
   style="fill:#006600;stroke:none" />
         <path
   d="m 9969,13867 v 0 l 3,3 -3,20 -12,31 -21,38 -23,35 -22,36 -21,30 -15,21 15,10 15,-20 21,-31 23,-35 23,-41 20,-38 13,-31 2,-25 -18,-18 v 0 z"
   id="path204"
   inkscape:connector-curvature="0"
   style="fill:#006600;stroke:none" />
         <path
   d="m 9852,14045 v -5 l 3,-20 8,-26 15,-30 18,-28 20,-28 18,-23 20,-13 15,-5 v -15 l -20,5 -25,18 -23,23 -21,28 -17,33 -16,30 -7,31 -3,20 v -5 5 l 3,5 5,3 5,-3 2,-5 z"
   id="path206"
   inkscape:connector-curvature="0"
   style="fill:#006600;stroke:none" />
         <path
   d="m 9662,14152 7,13 28,-3 31,-7 28,-13 23,-18 20,-20 20,-21 21,-20 12,-18 -15,-10 -13,18 -15,20 -20,21 -21,15 -22,18 -23,12 -26,8 -28,2 8,13 -8,-13 -5,3 -2,5 2,5 5,3 z"
   id="path208"
   inkscape:connector-curvature="0"
   style="fill:#006600;stroke:none" />
         <path
   d="m 9835,13865 v 0 l -3,7 -5,26 -20,38 -26,43 -33,48 -33,46 -30,43 -23,36 15,10 23,-35 30,-44 33,-45 33,-49 26,-48 20,-38 10,-31 -12,-23 v 0 z"
   id="path210"
   inkscape:connector-curvature="0"
   style="fill:#006600;stroke:none" />
         <path
   d="m 9738,14005 v -6 l 5,-12 10,-23 13,-28 15,-23 15,-23 16,-15 12,-10 h 11 l 5,-16 h -21 l -17,11 -21,20 -15,23 -15,28 -13,28 -10,23 -5,17 v -5 5 l 2,6 5,2 5,-2 3,-6 z"
   id="path212"
   inkscape:connector-curvature="0"
   style="fill:#006600;stroke:none" />
         <path
   d="m 9608,14116 16,8 5,-8 12,-15 18,-18 18,-17 18,-21 18,-18 15,-12 10,-10 -15,-11 -5,11 -16,12 -17,18 -18,20 -18,18 -18,18 -13,15 -10,8 16,7 -16,-7 v 7 l 5,6 5,2 6,-5 z"
   id="path214"
   inkscape:connector-curvature="0"
   style="fill:#006600;stroke:none" />
         <path
   d="m 9674,13956 v 0 h -5 v 13 l -5,20 -10,23 -10,28 -13,28 -13,26 -10,22 16,5 10,-22 12,-26 13,-28 10,-28 10,-23 6,-25 5,-13 -11,-15 v 0 z"
   id="path216"
   inkscape:connector-curvature="0"
   style="fill:#006600;stroke:none" />
         <path
   d="m 9430,14231 16,5 15,-23 30,-36 36,-45 41,-51 40,-49 33,-40 28,-28 5,-8 5,-15 -20,13 -28,28 -38,40 -41,49 -40,50 -36,46 -30,36 -16,23 16,5 -16,-5 v 7 l 5,5 5,3 6,-5 z"
   id="path218"
   inkscape:connector-curvature="0"
   style="fill:#006600;stroke:none" />
         <path
   d="m 9458,14073 h -2 l -8,21 -10,33 -5,45 -3,59 h 16 l 2,-59 5,-45 10,-28 8,-16 h -3 z"
   id="path220"
   inkscape:connector-curvature="0"
   style="fill:#006600;stroke:none" />
         <path
   d="m 9590,13936 h -2 l -3,-3 -12,18 -18,23 -23,25 -25,26 -21,20 -18,18 -10,10 10,10 11,-10 17,-18 21,-20 25,-25 23,-26 23,-23 13,-18 2,-17 h -2 z"
   id="path222"
   inkscape:connector-curvature="0"
   style="fill:#006600;stroke:none" />
         <path
   d="m 9504,13964 10,13 13,-6 10,-7 13,-8 10,-7 13,-6 10,-5 h 7 v -2 l 11,-10 -11,-8 -12,5 -10,5 -13,5 -15,8 -13,8 -10,7 -8,5 10,13 -10,-13 -5,3 v 7 l 3,6 h 7 z"
   id="path224"
   inkscape:connector-curvature="0"
   style="fill:#006600;stroke:none" />
         <path
   d="m 9593,13854 v 0 l -10,11 -10,10 -13,13 -13,15 -12,18 -11,15 -12,15 -8,13 15,10 8,-13 13,-15 10,-15 12,-18 13,-15 8,-13 10,-10 5,-5 v 0 z"
   id="path226"
   inkscape:connector-curvature="0"
   style="fill:#006600;stroke:none" />
         <path
   d="m 9837,13776 v 0 l -5,2 -25,10 -39,13 -43,13 -46,15 -40,10 -31,10 -15,5 5,16 15,-5 31,-11 41,-10 45,-15 44,-13 38,-12 25,-11 15,-17 v 0 z"
   id="path228"
   inkscape:connector-curvature="0"
   style="fill:#006600;stroke:none" />
         <path
   d="m 9715,13783 8,16 15,-6 18,-5 18,-5 20,-5 h 18 17 8 v -2 h 15 l -10,-13 -13,-5 -17,5 h -18 l -20,5 -23,5 -18,5 -15,5 7,16 -7,-16 -5,3 v 7 l 2,6 h 8 z"
   id="path230"
   inkscape:connector-curvature="0"
   style="fill:#006600;stroke:none" />
         <path
   d="m 9893,13689 h -5 l -13,8 -20,7 -20,13 -26,13 -28,13 -23,15 -23,13 -20,12 10,16 21,-13 22,-13 23,-15 23,-13 26,-13 20,-12 20,-8 13,-8 h -5 5 l 5,-5 v -5 l -2,-5 h -8 z"
   id="path232"
   inkscape:connector-curvature="0"
   style="fill:#006600;stroke:none" />
         <path
   d="m 10867,14180 -10,-10 -13,-10 -15,-8 -15,-5 -18,-3 h -13 -13 l -5,5 v 11 l 10,10 13,10 13,13 2,12 -5,11 -12,5 -13,-8 -5,-8 -10,-7 -8,-8 -10,-5 -15,-8 -13,-5 -18,-2 -20,-3 5,-5 2,-5 5,-5 5,-5 23,-8 16,-15 2,-18 -7,-12 h -8 l -10,2 -13,5 -13,10 -12,10 -11,8 -7,8 -8,5 -5,2 -10,3 h -10 l -10,2 h -16 -15 -15 -18 l 13,-7 15,-13 15,-13 15,-17 11,-16 5,-12 v -13 l -8,-8 h -13 l -17,8 -18,13 -18,17 -20,21 -16,18 -10,15 -7,7 -8,6 -15,5 -21,7 -20,10 -25,8 -23,8 -23,7 -18,5 13,-10 18,-18 20,-20 23,-25 18,-23 12,-21 3,-15 -5,-10 -18,3 -20,15 -26,23 -25,28 -26,30 -20,26 -18,20 -7,10 -6,5 -5,3 -7,5 -10,2 -13,5 -13,3 -15,5 -18,5 10,-10 16,-18 15,-20 18,-23 12,-23 10,-18 8,-15 -2,-8 h -8 l -13,8 -13,13 -15,15 -15,18 -15,15 -13,13 -10,7 -10,8 -16,8 -17,10 -18,10 -18,10 -18,8 -13,2 -10,-2 -5,-21 23,-30 43,-36 56,-35 61,-38 64,-33 58,-28 44,-18 20,-8 23,-5 25,-5 26,-3 25,-2 23,-3 h 25 21 l 28,3 28,5 28,8 30,10 26,12 23,16 20,15 13,15 v -12 l 7,-8 10,-3 h 11 l 5,18 10,21 10,20 8,13 -5,-28 -6,-33 -5,-41 v -41 l 5,-41 13,-35 23,-26 36,-15 -13,28 -3,31 5,28 16,20 12,-41 8,-43 10,-36 8,-22 7,-11 11,-12 17,-18 21,-18 23,-20 30,-15 33,-11 38,-5 -17,10 -21,13 -20,15 -18,16 -15,17 -10,16 -5,12 5,11 h 12 l 23,-11 28,-17 33,-23 31,-23 30,-23 23,-18 15,-10 16,-5 18,-5 22,-5 26,-3 h 25 l 26,5 25,8 20,13 -12,5 -16,5 -17,5 -18,5 -18,5 -18,5 -12,5 -11,3 8,5 10,5 8,5 7,5 26,-13 20,-7 18,-5 13,-3 10,-2 h 10 5 8 10 l 13,2 17,5 18,5 16,8 12,10 10,10 3,13 h -10 -15 l -16,3 h -15 -18 l -15,2 h -13 -10 l 23,10 23,13 20,15 21,13 15,13 13,12 7,13 3,10 -8,3 h -13 -12 -16 l -17,-3 -16,-2 -15,-3 -15,-2 -18,-21 -25,-18 -28,-12 -28,-8 -28,-2 -23,-3 -18,3 -8,5 3,10 18,15 25,15 33,16 31,17 30,18 23,15 10,16 -18,10 -20,8 -23,5 h -23 l -23,-3 -25,-5 -23,-13 -20,-15 -23,-18 -23,-12 -25,-13 -26,-8 -23,-5 h -23 l -17,5 -16,8 16,13 20,7 20,10 21,5 20,8 15,10 10,8 5,13 -20,7 -20,8 -26,2 -23,3 -22,-3 -26,-5 -23,-10 -23,-15 -12,15 -5,15 2,13 10,10 13,3 18,5 23,7 25,6 28,5 23,2 20,3 h 16 l -11,12 -12,13 -18,15 -20,11 -23,10 -23,2 h -26 l -25,-5 -23,-10 -20,-5 -18,-3 h -15 l -13,3 -10,5 -5,8 -3,10 v 10 l 8,10 7,5 13,5 18,3 18,2 h 23 l 23,-2 -11,18 -10,23 -10,22 -5,18 -10,3 -13,2 h -10 -10 -13 -8 -10 -7 l -8,-12 -8,-13 -7,-13 z"
   id="path234"
   inkscape:connector-curvature="0"
   style="fill:#4ce519;stroke:none" />
         <path
   d="m 10773,14155 v -3 0 l 10,3 13,-3 18,3 12,5 13,7 13,8 7,10 16,-10 -13,-10 -13,-13 -18,-8 -17,-5 -18,-2 -13,-3 -15,3 -10,10 v -3 z"
   id="path236"
   inkscape:connector-curvature="0"
   style="fill:#006600;stroke:none" />
         <path
   d="m 10808,14188 v 0 l -15,-13 -13,-10 -7,-8 v -2 l -15,-11 v 18 l 12,13 13,10 10,13 v 0 z"
   id="path238"
   inkscape:connector-curvature="0"
   style="fill:#006600;stroke:none" />
         <path
   d="m 10765,14218 v 0 l 21,10 17,-5 8,-18 -3,-17 -15,10 3,7 -3,3 -7,5 -6,-5 v 0 z"
   id="path240"
   inkscape:connector-curvature="0"
   style="fill:#006600;stroke:none" />
         <path
   d="m 10669,14162 5,13 20,2 18,3 10,5 15,8 8,5 8,7 10,5 2,8 15,-10 -7,-8 -10,-10 -8,-7 -13,-6 -15,-7 -15,-5 -18,-3 -20,-2 5,12 -5,-15 -8,3 -2,7 2,8 8,2 z"
   id="path242"
   inkscape:connector-curvature="0"
   style="fill:#006600;stroke:none" />
         <path
   d="m 10691,14137 -5,2 -5,8 -7,5 -3,5 -2,5 10,10 7,-5 3,-5 2,-5 6,-2 -6,2 6,-2 5,-6 -3,-7 -5,-3 h -8 z"
   id="path244"
   inkscape:connector-curvature="0"
   style="fill:#006600;stroke:none" />
         <path
   d="m 10722,14101 h -3 l 6,5 -3,15 -13,11 -18,5 v 20 l 28,-10 18,-20 3,-21 -10,-20 h -3 z"
   id="path246"
   inkscape:connector-curvature="0"
   style="fill:#006600;stroke:none" />
         <path
   d="m 10648,14149 v 0 l 8,-5 8,-7 10,-8 12,-10 13,-10 10,-5 8,-3 h 5 l 5,-15 h -10 l -13,2 -15,6 -13,10 -12,10 -11,7 -7,8 -8,5 v 0 z"
   id="path248"
   inkscape:connector-curvature="0"
   style="fill:#006600;stroke:none" />
         <path
   d="m 10541,14142 3,18 h 18 15 15 l 16,-3 10,-2 h 10 l 13,-3 7,-3 -10,-15 -2,3 -8,2 h -10 l -10,3 -16,-3 h -15 -15 -18 l 3,18 -3,-18 -8,3 -2,7 2,8 8,3 z"
   id="path250"
   inkscape:connector-curvature="0"
   style="fill:#006600;stroke:none" />
         <path
   d="m 10608,14058 v 0 l 2,2 v 11 l -5,10 -10,13 -13,17 -15,10 -15,13 -11,8 6,15 15,-8 15,-12 15,-16 18,-17 10,-18 5,-15 v -16 l -12,-12 v 0 z"
   id="path252"
   inkscape:connector-curvature="0"
   style="fill:#006600;stroke:none" />
         <path
   d="m 10496,14155 h 2 l 8,-8 10,-15 13,-18 20,-20 18,-16 15,-12 15,-8 h 11 l 5,-15 h -16 l -20,7 -20,13 -18,20 -20,21 -18,17 -10,16 -8,7 h 3 z"
   id="path254"
   inkscape:connector-curvature="0"
   style="fill:#006600;stroke:none" />
         <path
   d="m 10333,14198 8,15 17,-5 23,-8 23,-7 26,-8 20,-10 20,-8 16,-5 10,-7 -10,-11 -6,3 -15,5 -20,8 -21,10 -25,7 -23,8 -23,8 -18,5 8,15 -8,-15 -5,2 v 8 l 3,5 h 8 z"
   id="path256"
   inkscape:connector-curvature="0"
   style="fill:#006600;stroke:none" />
         <path
   d="m 10437,14071 v 0 2 l -2,13 -13,18 -18,23 -20,25 -21,20 -17,18 -13,8 10,15 13,-13 18,-17 20,-21 25,-25 18,-23 13,-23 2,-18 -10,-18 v 0 z"
   id="path258"
   inkscape:connector-curvature="0"
   style="fill:#006600;stroke:none" />
         <path
   d="m 10285,14223 v 3 l 10,-13 18,-20 20,-26 25,-30 23,-28 26,-21 17,-15 13,-2 5,-16 -23,3 -22,15 -26,26 -28,28 -25,30 -21,26 -17,20 -6,7 v 3 z"
   id="path260"
   inkscape:connector-curvature="0"
   style="fill:#006600;stroke:none" />
         <path
   d="m 10188,14244 5,15 20,-5 16,-5 12,-3 13,-5 10,-3 10,-5 6,-2 5,-8 -11,-10 -5,3 -5,2 -5,5 -10,3 -13,5 -12,2 -16,5 -15,6 5,15 -5,-15 -5,2 -3,5 3,5 5,3 z"
   id="path262"
   inkscape:connector-curvature="0"
   style="fill:#006600;stroke:none" />
         <path
   d="m 10274,14124 h 3 -3 l -7,13 -10,18 -13,20 -18,23 -15,20 -13,18 -10,8 10,15 10,-13 18,-18 15,-20 18,-23 13,-25 10,-18 8,-18 -8,-15 h 3 z"
   id="path264"
   inkscape:connector-curvature="0"
   style="fill:#006600;stroke:none" />
         <path
   d="m 10180,14213 h 3 l 10,-10 13,-13 15,-15 15,-18 16,-15 12,-10 10,-8 v 0 l 11,-15 h -16 l -15,7 -13,16 -15,15 -15,18 -15,15 -13,13 -10,5 h 2 z"
   id="path266"
   inkscape:connector-curvature="0"
   style="fill:#006600;stroke:none" />
         <path
   d="m 10053,14266 v 0 l 15,6 16,-6 18,-7 17,-10 18,-11 18,-10 18,-7 7,-8 -5,-15 -12,7 -13,8 -18,10 -18,10 -18,11 -17,7 h -11 -5 v 0 z"
   id="path268"
   inkscape:connector-curvature="0"
   style="fill:#006600;stroke:none" />
         <path
   d="m 10399,14012 v 0 l -43,18 -59,28 -63,33 -64,38 -56,36 -43,38 -25,33 7,30 10,-15 -2,-10 20,-28 43,-33 56,-36 59,-38 63,-33 59,-28 43,-18 v 0 0 l 5,-5 v -5 l -2,-5 z"
   id="path270"
   inkscape:connector-curvature="0"
   style="fill:#006600;stroke:none" />
         <path
   d="m 10590,13987 v -3 h -21 -25 l -23,5 -25,3 -26,2 -25,5 -26,6 -20,7 5,15 20,-7 21,-5 25,-5 26,-3 25,-2 h 23 25 21 v -3 3 l 7,-3 3,-8 -3,-7 -7,-3 z"
   id="path272"
   inkscape:connector-curvature="0"
   style="fill:#006600;stroke:none" />
         <path
   d="m 10778,14081 15,-8 -15,-15 -20,-18 -23,-15 -28,-13 -31,-10 -30,-8 -28,-5 -28,-2 v 15 l 28,3 28,5 25,7 31,10 23,13 22,15 21,13 10,15 15,-7 -15,7 5,5 8,-2 2,-5 v -8 z"
   id="path274"
   inkscape:connector-curvature="0"
   style="fill:#006600;stroke:none" />
         <path
   d="m 10821,14053 -7,-5 h -11 l -12,2 -13,13 v 18 l 15,-5 v -8 l 3,-2 7,-3 h 11 l -8,-5 8,5 5,-3 2,-5 -2,-5 -5,-2 z"
   id="path276"
   inkscape:connector-curvature="0"
   style="fill:#006600;stroke:none" />
         <path
   d="m 10839,14127 13,-8 -5,-8 -11,-20 -10,-20 -5,-18 -15,5 5,18 10,20 10,20 11,18 12,-7 -12,7 h 7 l 5,-5 3,-5 -5,-5 z"
   id="path278"
   inkscape:connector-curvature="0"
   style="fill:#006600;stroke:none" />
         <path
   d="m 10915,13872 -7,-12 -41,15 -25,28 -13,40 -5,41 v 41 l 5,41 5,33 5,28 h 15 l -5,-28 -5,-33 -5,-41 v -41 l 5,-41 13,-30 20,-23 31,-15 -8,-13 8,13 5,-3 2,-5 -2,-5 -5,-2 z"
   id="path280"
   inkscape:connector-curvature="0"
   style="fill:#006600;stroke:none" />
         <path
   d="m 10905,13971 13,-5 -13,-15 -2,-25 v -28 l 12,-26 -15,-10 -13,31 -5,33 8,30 18,26 12,-5 -12,5 h 7 l 5,-5 3,-6 -5,-5 z"
   id="path282"
   inkscape:connector-curvature="0"
   style="fill:#006600;stroke:none" />
         <path
   d="m 10943,13827 v 0 l -7,25 -11,38 -7,43 -13,38 15,6 13,-44 8,-43 10,-33 7,-20 v 0 z"
   id="path284"
   inkscape:connector-curvature="0"
   style="fill:#006600;stroke:none" />
         <path
   d="m 11134,13730 -3,-15 -38,5 -35,10 -33,15 -23,23 -21,18 -17,18 -13,12 -8,11 15,10 8,-10 8,-13 18,-18 20,-18 23,-18 28,-15 30,-10 38,-5 -2,-15 2,17 8,-2 3,-8 -3,-7 -8,-3 z"
   id="path286"
   inkscape:connector-curvature="0"
   style="fill:#006600;stroke:none" />
         <path
   d="m 11035,13824 v 0 -3 l 2,-10 10,-12 13,-18 18,-13 20,-15 21,-13 15,-10 -5,-15 -21,10 -20,13 -20,15 -18,18 -18,17 -10,18 -8,15 11,18 v 0 z"
   id="path288"
   inkscape:connector-curvature="0"
   style="fill:#006600;stroke:none" />
         <path
   d="m 11223,13699 v 0 l -18,11 -23,17 -30,23 -31,23 -33,23 -25,18 -23,10 h -5 l -10,15 h 20 l 23,-10 30,-18 33,-23 31,-23 30,-22 23,-18 13,-10 v 0 z"
   id="path290"
   inkscape:connector-curvature="0"
   style="fill:#006600;stroke:none" />
         <path
   d="m 11406,13722 3,-15 -23,-13 -28,-7 -26,-5 -25,-3 -26,5 -22,5 -21,5 -15,5 5,16 15,-5 16,-6 22,-5 h 26 l 25,-2 26,5 23,8 17,12 3,-15 -3,15 h 8 l 5,-5 3,-5 -5,-5 z"
   id="path292"
   inkscape:connector-curvature="0"
   style="fill:#006600;stroke:none" />
         <path
   d="m 11286,13745 -5,15 13,-2 13,-5 18,-5 17,-5 18,-5 18,-6 15,-5 13,-5 -5,-15 -13,5 -15,5 -18,5 -18,5 -17,5 -18,6 -13,5 -8,2 -5,15 5,-15 -5,3 -2,5 2,5 5,2 z"
   id="path294"
   inkscape:connector-curvature="0"
   style="fill:#006600;stroke:none" />
         <path
   d="m 11312,13765 h 5 l -5,-5 -10,-5 -10,-5 -6,-5 -10,15 10,5 11,6 5,5 10,5 h 5 -5 8 l 2,-5 v -8 l -5,-3 z"
   id="path296"
   inkscape:connector-curvature="0"
   style="fill:#006600;stroke:none" />
         <path
   d="m 11424,13732 v 0 h -8 -5 l -10,3 -10,3 -13,2 -20,5 -21,8 -25,12 5,16 25,-13 21,-8 15,-5 13,-2 10,-3 10,3 h 5 8 v 0 z"
   id="path298"
   inkscape:connector-curvature="0"
   style="fill:#006600;stroke:none" />
         <path
   d="m 11523,13806 10,-10 -5,-15 -13,-13 -12,-13 -18,-7 -18,-5 -20,-5 -13,-3 -10,-3 v 21 l 10,-3 13,3 15,5 18,5 12,8 13,7 8,8 v 10 l 10,-10 -10,10 2,8 8,2 8,-2 2,-8 z"
   id="path300"
   inkscape:connector-curvature="0"
   style="fill:#006600;stroke:none" />
         <path
   d="m 11414,13793 -3,18 h 10 l 13,-2 15,-3 18,3 15,-3 16,-2 15,2 h 10 v -20 h -10 l -15,2 -16,3 -15,-3 -18,3 -15,2 -13,-2 h -10 l -2,18 2,-18 -8,2 -2,8 2,8 8,2 z"
   id="path302"
   inkscape:connector-curvature="0"
   style="fill:#006600;stroke:none" />
         <path
   d="m 11538,13908 8,-8 -5,-12 -8,-16 -15,-12 -15,-16 -21,-12 -20,-16 -25,-12 -23,-11 -5,16 22,10 21,13 20,15 20,13 16,10 10,12 8,11 v 7 l 7,-7 -7,7 2,8 8,2 7,-2 3,-8 z"
   id="path304"
   inkscape:connector-curvature="0"
   style="fill:#006600;stroke:none" />
         <path
   d="m 11416,13898 8,2 15,3 15,2 16,3 17,2 16,3 h 12 l 13,-3 10,-2 -5,-15 -5,2 -13,-2 h -12 l -16,2 -17,-2 -16,-3 -15,-2 -15,-3 7,3 -7,-3 -5,3 -3,5 3,5 5,2 z"
   id="path306"
   inkscape:connector-curvature="0"
   style="fill:#006600;stroke:none" />
         <path
   d="m 11256,13839 v 0 h 3 15 23 l 28,3 25,7 28,13 23,15 15,21 15,-10 -20,-21 -28,-20 -28,-13 -30,-7 -28,-3 -23,-5 -21,5 -12,10 v 0 z"
   id="path308"
   inkscape:connector-curvature="0"
   style="fill:#006600;stroke:none" />
         <path
   d="m 11426,13966 3,-10 -13,-18 -23,-17 -30,-18 -33,-18 -33,-15 -23,-16 -15,-12 -3,-3 -15,-5 2,18 21,18 28,15 33,15 28,18 30,18 23,13 8,12 2,-10 -2,10 5,5 h 5 l 5,-2 v -8 z"
   id="path310"
   inkscape:connector-curvature="0"
   style="fill:#006600;stroke:none" />
         <path
   d="m 11241,13951 v 0 l 20,18 25,13 28,5 23,5 23,-3 26,-5 20,-7 20,-11 -10,-15 -15,10 -20,8 -21,5 -23,-3 h -23 l -22,-5 -21,-12 -20,-13 v 0 z"
   id="path312"
   inkscape:connector-curvature="0"
   style="fill:#006600;stroke:none" />
         <path
   d="m 11075,13898 v 10 l 13,-5 15,-5 h 23 l 21,5 25,7 25,13 21,13 23,15 10,-10 -23,-20 -25,-13 -26,-13 -25,-7 -26,-6 h -23 l -20,6 -18,10 v 10 -10 5 l 3,2 2,3 h 5 z"
   id="path314"
   inkscape:connector-curvature="0"
   style="fill:#006600;stroke:none" />
         <path
   d="m 11200,13984 8,-7 -8,-18 -13,-10 -17,-11 -21,-7 -20,-5 -21,-10 -20,-8 -13,-10 -10,10 18,15 20,8 21,10 20,5 20,8 13,10 8,5 2,8 8,-8 -8,8 3,7 7,3 8,-3 3,-7 z"
   id="path316"
   inkscape:connector-curvature="0"
   style="fill:#006600;stroke:none" />
         <path
   d="m 11020,13971 h -11 l 26,16 23,10 28,5 22,5 23,-5 26,-3 23,-7 20,-8 -5,-15 -20,8 -18,7 -26,3 h -23 -22 l -23,-5 -23,-11 -20,-15 h -11 11 -8 l -5,3 -3,7 5,5 z"
   id="path318"
   inkscape:connector-curvature="0"
   style="fill:#006600;stroke:none" />
         <path
   d="m 11012,14010 v 0 l -5,-5 -3,-11 5,-10 11,-13 -11,-15 -15,18 -5,20 3,16 15,15 v 0 z"
   id="path320"
   inkscape:connector-curvature="0"
   style="fill:#006600;stroke:none" />
         <path
   d="m 11182,14053 -7,-13 h -16 l -20,-2 -23,-3 -28,-5 -23,-5 -23,-8 -20,-5 -10,-2 -5,15 15,2 15,5 23,8 28,5 28,5 23,3 20,2 h 16 l -8,-12 8,12 5,-2 2,-5 -2,-5 -5,-3 z"
   id="path322"
   inkscape:connector-curvature="0"
   style="fill:#006600;stroke:none" />
         <path
   d="m 11014,14114 v 0 l 28,5 26,2 25,-5 23,-10 23,-10 18,-18 13,-12 12,-13 -15,-10 -8,12 -12,13 -18,13 -18,10 -23,10 h -20 l -26,3 -22,-5 v 0 z"
   id="path324"
   inkscape:connector-curvature="0"
   style="fill:#006600;stroke:none" />
         <path
   d="m 10918,14114 v 0 l 2,-8 3,-2 8,-5 10,-3 h 15 l 18,3 18,5 22,10 6,-15 -23,-11 -23,-5 -18,-2 h -15 l -16,2 -12,5 -8,13 -2,13 v 0 z"
   id="path326"
   inkscape:connector-curvature="0"
   style="fill:#006600;stroke:none" />
         <path
   d="m 11027,14152 -7,-13 h -23 l -23,3 -18,-3 -18,-2 -10,-5 -5,-3 -5,-8 v -7 h -15 v 13 l 10,12 10,8 15,5 18,3 18,2 23,3 23,-5 -8,-13 8,13 5,-3 2,-5 -2,-5 -5,-3 z"
   id="path328"
   inkscape:connector-curvature="0"
   style="fill:#006600;stroke:none" />
         <path
   d="m 10986,14236 6,-8 5,-15 10,-23 10,-23 10,-15 -15,-10 -10,20 -10,23 -11,23 -5,20 5,-7 -5,7 3,5 5,3 5,-3 3,-5 z"
   id="path330"
   inkscape:connector-curvature="0"
   style="fill:#006600;stroke:none" />
         <path
   d="m 10895,14236 8,8 h 7 10 8 13 10 l 10,-3 13,-3 12,-2 -5,-15 -7,2 -13,3 -10,-3 h -10 -13 -8 -10 -7 l 7,8 -7,-8 -8,3 -3,7 3,8 8,3 z"
   id="path332"
   inkscape:connector-curvature="0"
   style="fill:#006600;stroke:none" />
         <path
   d="m 10859,14185 v 0 l 13,15 8,13 7,13 8,10 15,-5 -7,-15 -8,-13 -8,-13 -12,-15 v 0 0 l -6,-5 -5,2 -5,5 z"
   id="path334"
   inkscape:connector-curvature="0"
   style="fill:#006600;stroke:none" />
         <path
   d="m 9776,14920 5,15 -15,21 -31,27 -35,31 -38,31 -36,33 -25,30 -11,26 18,-3 16,-5 12,-5 5,-10 5,25 -10,20 -18,21 -17,18 -18,33 -21,50 -12,59 7,51 31,-21 30,-33 28,-40 26,-44 23,-38 20,-35 18,-21 15,-5 3,10 2,11 3,10 v 10 l 20,-25 15,-33 13,-36 13,-41 12,-35 11,-28 10,-23 10,-8 23,13 13,38 2,58 -2,67 -8,71 -10,66 -10,56 -11,35 34,-22 35,-36 31,-43 28,-49 20,-50 10,-56 v -51 l -13,-51 -7,-46 -5,-79 10,-71 28,-35 35,12 26,36 15,53 8,66 2,72 -2,71 -3,61 -5,48 31,-28 30,-33 28,-36 23,-40 18,-41 10,-41 2,-40 -10,-38 -10,-21 -13,-25 -10,-28 -12,-28 -8,-28 -3,-23 5,-20 16,-13 30,-3 28,21 28,38 26,48 20,56 15,56 8,51 2,43 51,-68 18,-72 -10,-68 -28,-64 -38,-56 -38,-43 -28,-28 -13,-10 23,-10 30,5 33,18 36,25 28,38 25,43 16,49 5,53 12,-18 13,-20 13,-20 13,-21 10,-23 5,-20 v -23 l -5,-20 -10,-21 -16,-17 -17,-16 -16,-12 -18,-13 -12,-10 -10,-8 -3,-8 5,-5 18,-5 23,-2 25,2 26,8 23,13 17,20 5,31 6,12 5,18 5,18 2,15 26,-25 17,-28 13,-31 v -28 l -7,-13 -13,-17 -18,-18 -23,-18 -23,-15 -23,-15 -25,-8 -20,-3 -5,-12 -11,-10 -10,-11 -10,-5 -13,8 -15,8 -18,5 -20,7 -18,5 -15,3 -10,-3 -8,-2 v -18 l 8,-20 12,-21 16,-15 -23,8 -18,7 -18,8 -15,13 5,-23 10,-23 13,-15 15,-13 -23,-15 -30,-13 -36,-10 -41,-8 h -43 l -43,5 -43,10 -41,18 56,3 51,7 43,11 38,12 28,15 15,18 3,21 -10,20 -18,13 -20,-5 -23,-16 -26,-20 -28,-23 -35,-18 -41,-7 -46,5 -48,15 -43,18 -38,18 -33,20 -28,20 -26,23 -18,23 -12,23 56,-20 51,-13 48,-8 40,3 31,7 20,16 8,23 -8,33 -40,-8 -38,-3 -39,-5 h -38 l -38,3 -35,5 -39,10 -35,10 -33,18 -33,23 -33,25 -31,34 -30,38 -28,43 -28,51 -26,58 43,-33 54,-33 58,-33 59,-28 56,-18 46,-5 35,10 15,31 -5,5 -10,8 -20,7 -28,10 -31,13 -35,15 -41,18 -38,23 -41,25 -41,31 -35,38 -33,41 -31,46 -23,56 -17,58 -8,69 31,-41 43,-48 51,-56 58,-54 56,-51 51,-38 43,-23 z"
   id="path336"
   inkscape:connector-curvature="0"
   style="fill:#4ce519;stroke:none" />
         <path
   d="m 9590,15123 11,11 7,-21 23,-30 36,-31 38,-30 35,-33 31,-28 18,-23 -8,-26 -10,16 3,5 -13,17 -31,28 -35,28 -38,31 -36,35 -28,31 -13,31 10,10 -10,-10 3,7 7,3 8,-3 3,-7 z"
   id="path338"
   inkscape:connector-curvature="0"
   style="fill:#006600;stroke:none" />
         <path
   d="m 9649,15108 -15,3 -3,2 -10,5 -13,5 h -18 v 21 l 18,-5 18,-5 15,-6 8,-17 -15,2 15,-2 -3,-5 -5,-3 -5,3 -2,5 z"
   id="path340"
   inkscape:connector-curvature="0"
   style="fill:#006600;stroke:none" />
         <path
   d="m 9608,15200 v 0 l 16,-18 20,-21 10,-25 -5,-28 -15,5 5,23 -10,15 -16,21 -20,17 v 0 z"
   id="path342"
   inkscape:connector-curvature="0"
   style="fill:#006600;stroke:none" />
         <path
   d="m 9555,15380 10,5 -8,-48 13,-56 20,-51 18,-30 -15,-11 -18,36 -20,51 -13,61 8,53 10,5 -10,-5 5,5 h 5 l 5,-2 v -8 z"
   id="path344"
   inkscape:connector-curvature="0"
   style="fill:#006600;stroke:none" />
         <path
   d="m 9756,15149 -5,-5 -23,5 -21,23 -20,35 -23,38 -25,44 -28,40 -28,31 -28,20 5,15 33,-20 33,-36 28,-40 25,-43 23,-39 21,-35 15,-18 8,-5 -6,-5 6,5 h 7 l 3,-5 v -8 l -5,-2 z"
   id="path346"
   inkscape:connector-curvature="0"
   style="fill:#006600;stroke:none" />
         <path
   d="m 9751,15187 15,5 -3,-10 -2,-10 -3,-11 -2,-12 -16,5 3,7 3,11 2,10 -2,10 15,5 -15,-5 2,8 8,2 7,-2 3,-8 z"
   id="path348"
   inkscape:connector-curvature="0"
   style="fill:#006600;stroke:none" />
         <path
   d="m 9860,14956 v 0 l -18,10 -10,25 -10,28 -13,36 -13,40 -12,36 -16,30 -17,26 10,10 23,-25 15,-36 13,-36 12,-40 13,-36 10,-28 10,-20 3,-5 v 0 z"
   id="path350"
   inkscape:connector-curvature="0"
   style="fill:#006600;stroke:none" />
         <path
   d="m 9855,15360 10,10 10,-38 10,-56 11,-66 7,-71 5,-67 -5,-58 -12,-43 -31,-15 v 15 l 15,10 13,33 v 58 67 l -8,71 -10,66 -10,56 -10,33 10,10 -10,-10 v 8 l 5,2 h 8 l 2,-5 z"
   id="path352"
   inkscape:connector-curvature="0"
   style="fill:#006600;stroke:none" />
         <path
   d="m 9995,15011 v 0 l 12,49 v 51 l -10,53 -20,51 -28,46 -31,43 -33,33 -30,23 5,15 36,-23 38,-38 30,-43 28,-51 21,-51 10,-58 v -51 l -13,-54 v 0 z"
   id="path354"
   inkscape:connector-curvature="0"
   style="fill:#006600;stroke:none" />
         <path
   d="m 10028,14770 v 0 l -36,41 -10,73 5,79 8,48 15,-5 -8,-43 -5,-79 10,-68 21,-31 v 0 z"
   id="path356"
   inkscape:connector-curvature="0"
   style="fill:#006600;stroke:none" />
         <path
   d="m 10099,15189 13,8 5,-48 2,-61 5,-71 -5,-72 -7,-66 -16,-56 -28,-40 -40,-13 v 15 l 30,13 23,30 15,51 8,66 v 72 71 l -2,61 -6,48 13,8 -13,-8 3,5 5,3 5,-3 3,-5 z"
   id="path358"
   inkscape:connector-curvature="0"
   style="fill:#006600;stroke:none" />
         <path
   d="m 10229,14902 v 0 l 10,36 -3,40 -10,39 -18,40 -23,38 -28,36 -27,33 -31,25 10,16 31,-31 33,-33 28,-35 23,-44 17,-40 11,-44 2,-40 -10,-41 v 0 z"
   id="path360"
   inkscape:connector-curvature="0"
   style="fill:#006600;stroke:none" />
         <path
   d="m 10198,14706 v 0 l -20,16 -8,25 5,23 8,30 13,28 10,28 13,26 10,20 15,-5 -10,-20 -13,-26 -10,-28 -13,-28 -7,-25 v -23 l 2,-15 10,-10 v 0 z"
   id="path362"
   inkscape:connector-curvature="0"
   style="fill:#006600;stroke:none" />
         <path
   d="m 10353,15019 13,5 -3,-43 -7,-51 -15,-58 -21,-56 -25,-51 -31,-38 -30,-23 -36,2 5,16 26,-3 25,18 26,38 25,46 20,56 16,53 7,51 3,43 12,5 -12,-5 2,5 5,3 5,-3 3,-5 z"
   id="path364"
   inkscape:connector-curvature="0"
   style="fill:#006600;stroke:none" />
         <path
   d="m 10267,14607 15,8 -2,15 28,28 35,43 38,54 28,63 10,66 -17,69 -49,66 10,10 54,-71 18,-74 -11,-71 -27,-63 -39,-59 -40,-43 -28,-28 -28,-5 15,7 z"
   id="path366"
   inkscape:connector-curvature="0"
   style="fill:#006600;stroke:none" />
         <path
   d="m 10460,14831 15,5 -5,-53 -15,-51 -25,-46 -31,-38 -36,-28 -35,-18 -33,-5 -28,10 10,15 18,-10 28,5 30,18 36,23 25,38 26,41 15,46 5,53 15,5 -15,-5 3,5 5,3 5,-3 2,-5 z"
   id="path368"
   inkscape:connector-curvature="0"
   style="fill:#006600;stroke:none" />
         <path
   d="m 10521,14673 v 0 l 5,18 v 23 l -5,18 -10,23 -13,17 -12,21 -13,20 -13,18 15,10 13,-18 13,-20 12,-20 13,-23 10,-23 5,-23 v -23 l -5,-23 v 0 z"
   id="path370"
   inkscape:connector-curvature="0"
   style="fill:#006600;stroke:none" />
         <path
   d="m 10417,14566 v 0 l 5,13 13,10 12,11 18,12 15,13 18,13 13,17 10,18 15,-5 -10,-23 -18,-17 -17,-18 -16,-13 -17,-13 -13,-10 -8,-5 v -3 0 z"
   id="path372"
   inkscape:connector-curvature="0"
   style="fill:#006600;stroke:none" />
         <path
   d="m 10577,14625 3,3 -8,-34 -20,-25 -26,-13 -28,-7 -25,-5 -23,5 -20,5 -13,12 h 20 l -2,3 15,-5 h 23 25 l 23,8 20,12 16,16 2,28 3,2 -3,-2 3,7 7,3 8,-3 3,-7 z"
   id="path374"
   inkscape:connector-curvature="0"
   style="fill:#006600;stroke:none" />
         <path
   d="m 10582,14683 15,8 -5,-15 -5,-21 -5,-17 -5,-13 -15,5 5,13 5,18 5,15 v 15 l 15,8 -15,-8 3,8 7,2 8,-2 2,-8 z"
   id="path376"
   inkscape:connector-curvature="0"
   style="fill:#006600;stroke:none" />
         <path
   d="m 10636,14582 v -3 28 l -13,28 -18,26 -23,22 10,16 28,-28 18,-31 13,-33 v -28 -2 z"
   id="path378"
   inkscape:connector-curvature="0"
   style="fill:#006600;stroke:none" />
         <path
   d="m 10483,14475 8,5 20,3 23,7 20,15 23,16 23,18 15,15 13,18 8,10 15,-5 -8,-16 -13,-17 -20,-21 -23,-18 -23,-15 -25,-15 -28,-8 -20,-2 7,5 -7,-8 -8,3 -3,7 3,8 8,3 z"
   id="path380"
   inkscape:connector-curvature="0"
   style="fill:#006600;stroke:none" />
         <path
   d="m 10460,14442 h -8 l 8,5 10,8 8,10 5,10 15,-5 -5,-15 -13,-11 -10,-12 -12,-5 h -8 8 -8 l -3,5 v 5 l 5,5 z"
   id="path382"
   inkscape:connector-curvature="0"
   style="fill:#006600;stroke:none" />
         <path
   d="m 10330,14467 v 3 l 13,5 13,5 15,-5 20,-5 21,-8 18,-5 15,-7 15,-8 -10,-15 -10,7 -16,8 -17,5 -21,8 -15,5 h -15 -8 -2 v 2 z"
   id="path384"
   inkscape:connector-curvature="0"
   style="fill:#006600;stroke:none" />
         <path
   d="m 10376,14399 -7,-16 -18,18 -13,23 -8,23 v 20 l 16,-5 v -15 l 7,-18 13,-18 13,-12 -8,-16 8,16 5,-5 -3,-8 -5,-3 h -7 z"
   id="path386"
   inkscape:connector-curvature="0"
   style="fill:#006600;stroke:none" />
         <path
   d="m 10290,14427 15,5 15,-10 15,-8 18,-8 23,-7 -5,-16 -23,8 -18,8 -20,7 -15,16 15,5 -15,-5 v 5 l 2,2 3,3 h 5 z"
   id="path388"
   inkscape:connector-curvature="0"
   style="fill:#006600;stroke:none" />
         <path
   d="m 10338,14361 3,-16 -18,16 -15,15 -11,25 -7,26 h 20 l 3,-21 10,-20 10,-15 13,-10 2,-16 -2,16 5,-6 v -5 l -3,-5 h -7 z"
   id="path390"
   inkscape:connector-curvature="0"
   style="fill:#006600;stroke:none" />
         <path
   d="m 10043,14333 3,15 40,-18 41,-10 43,-5 h 43 l 41,7 33,11 31,12 20,16 10,-16 -25,-15 -31,-13 -38,-10 -41,-8 h -43 l -43,6 -46,10 -40,18 2,15 -2,-15 -6,2 v 8 l 3,5 h 8 z"
   id="path392"
   inkscape:connector-curvature="0"
   style="fill:#006600;stroke:none" />
         <path
   d="m 10274,14452 v 0 l 11,-25 -3,-23 -18,-23 -30,-15 -38,-13 -46,-10 -51,-8 -56,-2 v 15 l 56,2 51,8 41,10 38,13 25,15 13,13 2,18 -10,15 v 0 z"
   id="path394"
   inkscape:connector-curvature="0"
   style="fill:#006600;stroke:none" />
         <path
   d="m 10033,14383 v 0 l 43,-2 38,5 33,18 28,23 26,20 25,15 23,5 25,-15 -15,-10 -10,10 -18,-5 -20,-15 -26,-21 -28,-23 -38,-17 -43,-10 -48,7 v 0 z"
   id="path396"
   inkscape:connector-curvature="0"
   style="fill:#006600;stroke:none" />
         <path
   d="m 9781,14528 10,11 13,-21 15,-23 26,-20 28,-20 30,-21 38,-18 44,-17 48,-16 -5,-15 -49,15 -43,18 -38,18 -35,20 -28,21 -26,25 -20,23 -13,25 10,11 -10,-11 v 8 l 5,3 h 8 l 2,-5 z"
   id="path398"
   inkscape:connector-curvature="0"
   style="fill:#006600;stroke:none" />
         <path
   d="m 10030,14584 8,-5 10,-35 -10,-28 -25,-18 -34,-8 -40,-2 -48,7 -54,13 -56,20 5,16 56,-21 49,-12 48,-8 40,2 28,8 16,13 5,18 -5,30 7,-5 -7,5 v 8 l 5,2 h 7 l 3,-5 z"
   id="path400"
   inkscape:connector-curvature="0"
   style="fill:#006600;stroke:none" />
         <path
   d="m 9481,14872 13,10 25,-59 28,-48 28,-43 31,-38 28,-33 33,-23 33,-23 30,-18 36,-10 36,-10 35,-5 h 38 l 38,-3 39,5 38,3 40,7 v -15 l -40,-8 -38,-2 -39,-5 -38,-3 -38,5 -35,5 -41,11 -36,10 -35,18 -33,22 -33,28 -34,33 -30,39 -28,43 -28,53 -25,59 12,10 -12,-10 v 7 l 5,3 h 7 l 3,-5 z"
   id="path402"
   inkscape:connector-curvature="0"
   style="fill:#006600;stroke:none" />
         <path
   d="m 9860,14770 v 0 l -18,-38 -40,-10 -46,5 -59,17 -58,28 -61,34 -54,33 -43,33 10,15 44,-33 53,-33 56,-33 58,-28 54,-18 46,-5 30,10 13,23 v 0 z"
   id="path404"
   inkscape:connector-curvature="0"
   style="fill:#006600;stroke:none" />
         <path
   d="m 9407,15228 16,5 7,-69 18,-56 23,-56 30,-43 34,-41 33,-38 40,-28 41,-25 36,-23 40,-18 36,-15 30,-13 28,-10 21,-8 12,-7 8,-13 h -15 l -3,-3 -7,8 -21,8 -28,10 -30,13 -36,15 -41,18 -40,22 -41,26 -41,33 -38,38 -33,41 -30,48 -23,56 -18,61 -8,69 16,5 -16,-5 3,5 5,2 5,-2 3,-5 z"
   id="path406"
   inkscape:connector-curvature="0"
   style="fill:#006600;stroke:none" />
         <path
   d="m 9781,14912 h -2 l -33,3 -46,23 -51,38 -56,53 -58,54 -51,56 -46,48 -31,41 16,10 30,-41 41,-48 51,-56 58,-54 56,-48 51,-38 41,-23 23,-2 h -3 z"
   id="path408"
   inkscape:connector-curvature="0"
   style="fill:#006600;stroke:none" />
         <path
   d="m 10338,14205 18,-5 23,-7 23,-8 25,-8 20,-10 21,-7 15,-5 8,-6 7,-7 10,-15 16,-18 20,-21 18,-17 18,-13 17,-8 h 13 l 8,8 v 13 l -5,12 -11,16 -15,17 -15,13 -15,13 -13,7 h 18 15 15 16 l 10,-2 h 10 l 10,-3 5,-2 8,-5 7,-8 11,-8 12,-10 13,-10 13,-5 10,-2 h 8 l 7,12 -2,18 -16,15 -23,8 -5,5 -5,5 -2,5 -5,5 20,3 18,2 13,5 15,8 10,5 8,8 10,7 5,8 13,8 12,-5 5,-11 -2,-12 -13,-13 -13,-10 -10,-10 v -11 l 5,-5 h 13 13 l 18,3 15,5 15,8 13,10 10,10 13,15 7,13 8,13 8,12 2,8 v 10 l 3,8 v 7 h 10 13 10 l 10,3 -3,3 v 5 l -2,5 -8,10 10,-8 13,-7 13,-8 15,-10 -18,13 -20,17 -23,21 -20,20 -23,23 -18,20 -15,15 -10,13 -11,26 -7,30 -8,26 -10,10 -8,-8 -2,-13 -3,-15 -2,-13 12,-28 3,-30 -5,-23 -10,-10 -5,30 -8,26 -15,20 -21,18 -20,10 -25,10 -28,8 -28,5 12,-15 18,-26 15,-28 16,-30 12,-28 8,-28 v -20 l -5,-11 -13,5 -20,21 -18,30 -10,31 -5,15 -8,13 -10,13 -15,10 -18,7 -20,5 -26,6 h -30 l 7,-13 13,-15 13,-16 15,-18 13,-15 7,-12 3,-13 -3,-8 -10,-2 -13,7 -20,10 -20,16 -21,17 -20,18 -18,16 -15,12 -13,8 -15,8 -18,5 -20,7 -18,5 -15,3 -10,-3 -8,-2 v -18 l 8,-20 12,-21 16,-15 -23,8 -18,7 -18,8 -15,13 5,-23 10,-23 13,-15 15,-13 13,-10 13,-13 15,-10 15,-10 20,-8 21,-8 23,-2 h 28 l -11,-5 -12,-5 -13,-3 -15,-2 -16,-3 h -17 l -16,3 -15,2 13,-15 13,-15 15,-13 18,-10 23,-8 22,-2 h 28 l 31,5 -13,-28 -15,-16 -23,-5 -25,3 -31,5 -30,8 -31,10 z"
   id="path410"
   inkscape:connector-curvature="0"
   style="fill:#4ce519;stroke:none" />
         <path
   d="m 10483,14144 h 3 l -6,3 -15,5 -20,8 -21,10 -25,7 -23,8 -23,8 -18,5 6,15 17,-5 23,-8 23,-7 26,-8 20,-10 20,-8 16,-5 10,-7 h 2 z"
   id="path412"
   inkscape:connector-curvature="0"
   style="fill:#006600;stroke:none" />
         <path
   d="m 10613,14043 v 0 h -16 l -20,7 -20,13 -18,20 -20,21 -18,17 -10,16 -8,7 15,11 8,-8 10,-15 13,-18 20,-20 18,-16 15,-12 15,-8 h 11 v 0 z"
   id="path414"
   inkscape:connector-curvature="0"
   style="fill:#006600;stroke:none" />
         <path
   d="m 10544,14139 3,18 15,-8 15,-12 15,-16 18,-17 10,-18 5,-15 v -16 l -12,-12 -5,15 2,2 v 11 l -5,10 -10,13 -13,17 -15,10 -15,13 -11,8 3,18 -3,-18 -5,2 v 8 l 3,5 h 8 z"
   id="path416"
   inkscape:connector-curvature="0"
   style="fill:#006600;stroke:none" />
         <path
   d="m 10638,14134 v 0 l -2,3 -8,2 h -10 l -10,3 -16,-3 h -15 -15 -18 v 21 h 18 15 15 l 16,-3 10,-2 h 10 l 13,-3 7,-3 v 0 z"
   id="path418"
   inkscape:connector-curvature="0"
   style="fill:#006600;stroke:none" />
         <path
   d="m 10730,14086 h -3 -10 l -13,2 -15,6 -13,10 -12,10 -11,7 -7,8 -8,5 10,15 8,-5 8,-7 10,-8 12,-10 13,-10 10,-5 8,-3 h 5 -3 z"
   id="path420"
   inkscape:connector-curvature="0"
   style="fill:#006600;stroke:none" />
         <path
   d="m 10697,14155 -6,2 28,-10 18,-20 3,-21 -10,-20 -11,15 6,5 -3,15 -13,11 -18,5 -5,2 5,-2 -7,2 -3,8 3,8 7,2 z"
   id="path422"
   inkscape:connector-curvature="0"
   style="fill:#006600;stroke:none" />
         <path
   d="m 10674,14160 5,12 7,-5 3,-5 2,-5 6,-2 -11,-16 -5,8 -7,5 -3,5 -2,5 5,13 -5,-13 v 5 l 2,3 3,2 h 5 z"
   id="path424"
   inkscape:connector-curvature="0"
   style="fill:#006600;stroke:none" />
         <path
   d="m 10780,14208 v 0 l -7,-8 -10,-10 -8,-7 -13,-6 -15,-7 -15,-5 -18,-3 -20,-2 v 15 l 20,2 18,3 10,5 15,8 8,5 8,7 10,5 2,8 v 0 z"
   id="path426"
   inkscape:connector-curvature="0"
   style="fill:#006600;stroke:none" />
         <path
   d="m 10793,14198 v 0 l 3,7 -3,3 -7,5 -6,-5 -15,10 21,10 17,-5 8,-18 -3,-17 v 0 z"
   id="path428"
   inkscape:connector-curvature="0"
   style="fill:#006600;stroke:none" />
         <path
   d="m 10758,14147 v -3 18 l 12,13 13,10 10,13 15,-10 -15,-13 -13,-10 -7,-8 v -2 -3 z"
   id="path430"
   inkscape:connector-curvature="0"
   style="fill:#006600;stroke:none" />
         <path
   d="m 10875,14175 v 0 l -13,-10 -13,-13 -18,-8 -17,-5 -18,-2 -13,-3 -15,3 -10,10 15,5 v 0 l 10,3 13,-3 18,3 12,5 13,7 13,8 7,10 v 0 0 l 5,5 8,-2 3,-5 z"
   id="path432"
   inkscape:connector-curvature="0"
   style="fill:#006600;stroke:none" />
         <path
   d="m 10910,14233 v -2 l -7,-15 -8,-13 -8,-13 -12,-15 -16,10 13,15 8,13 7,13 8,10 v -3 3 l 5,5 h 5 l 5,-3 v -7 z"
   id="path434"
   inkscape:connector-curvature="0"
   style="fill:#006600;stroke:none" />
         <path
   d="m 10908,14259 10,7 -3,-7 -2,-8 v -10 l -3,-8 h -15 l 2,8 v 10 l 3,8 -3,7 11,8 -11,-8 3,8 8,3 7,-3 3,-8 z"
   id="path436"
   inkscape:connector-curvature="0"
   style="fill:#006600;stroke:none" />
         <path
   d="m 10953,14277 -2,-16 -10,-2 -10,-3 h -13 l -10,3 v 15 l 10,3 h 13 l 10,-3 10,3 -3,-16 3,16 5,-3 2,-5 -2,-5 -5,-3 z"
   id="path438"
   inkscape:connector-curvature="0"
   style="fill:#006600;stroke:none" />
         <path
   d="m 10933,14284 13,13 7,-10 3,-10 v -3 l -3,3 -5,-16 -7,8 v 8 h -3 l -7,10 12,12 -12,-12 v 7 l 5,5 5,3 5,-5 z"
   id="path440"
   inkscape:connector-curvature="0"
   style="fill:#006600;stroke:none" />
         <path
   d="m 10994,14266 -8,-15 -17,10 -13,8 -13,8 -10,7 10,15 10,-7 13,-8 13,-7 13,-11 -8,-15 8,15 5,-5 v -5 l -3,-5 h -8 z"
   id="path442"
   inkscape:connector-curvature="0"
   style="fill:#006600;stroke:none" />
         <path
   d="m 10849,14406 v 0 l 8,-12 15,-16 18,-20 23,-23 20,-20 23,-21 20,-15 18,-13 -10,-15 -18,13 -20,20 -23,21 -20,20 -23,23 -18,20 -15,15 -13,13 v 0 z"
   id="path444"
   inkscape:connector-curvature="0"
   style="fill:#006600;stroke:none" />
         <path
   d="m 10803,14500 h 3 l 18,-15 7,-25 8,-31 10,-23 -15,-10 -10,28 -8,31 -8,25 -2,5 h 2 z"
   id="path446"
   inkscape:connector-curvature="0"
   style="fill:#006600;stroke:none" />
         <path
   d="m 10783,14439 v 8 l 3,10 2,15 3,16 12,12 5,-15 -2,-2 -3,-11 -2,-15 -3,-15 v 8 -8 l -2,-5 h -8 l -5,2 v 8 z"
   id="path448"
   inkscape:connector-curvature="0"
   style="fill:#006600;stroke:none" />
         <path
   d="m 10798,14353 -7,8 2,5 3,20 v 28 l -13,25 15,11 13,-31 5,-33 -8,-25 -17,-16 -8,8 8,-8 -5,3 -3,5 3,5 5,3 z"
   id="path450"
   inkscape:connector-curvature="0"
   style="fill:#006600;stroke:none" />
         <path
   d="m 10636,14475 5,13 28,-5 30,-8 26,-10 22,-10 21,-21 18,-23 7,-28 5,-30 h -15 l -5,30 -8,23 -12,18 -21,15 -18,11 -25,10 -25,7 -28,5 5,13 -5,-13 -5,3 -3,5 3,5 5,3 z"
   id="path452"
   inkscape:connector-curvature="0"
   style="fill:#006600;stroke:none" />
         <path
   d="m 10712,14302 h 2 v 3 20 l -7,25 -13,28 -15,31 -15,25 -18,26 -10,15 10,10 15,-15 18,-26 15,-30 15,-31 13,-28 8,-30 v -20 l -11,-18 h 3 z"
   id="path454"
   inkscape:connector-curvature="0"
   style="fill:#006600;stroke:none" />
         <path
   d="m 10664,14381 v 0 l 10,-28 17,-28 18,-18 3,-5 10,-15 -23,5 -23,23 -18,33 -10,33 v 0 z"
   id="path456"
   inkscape:connector-curvature="0"
   style="fill:#006600;stroke:none" />
         <path
   d="m 10516,14447 8,10 h 30 l 26,-5 22,-5 18,-8 18,-12 13,-13 7,-15 6,-18 h -16 l -5,13 -7,10 -8,12 -13,8 -18,8 -17,5 -26,5 h -30 l 7,10 -7,-13 -8,3 -3,8 3,7 8,3 z"
   id="path458"
   inkscape:connector-curvature="0"
   style="fill:#006600;stroke:none" />
         <path
   d="m 10587,14345 v 3 h -2 v 10 l -8,10 -13,15 -15,18 -13,15 -12,16 -8,15 15,5 8,-10 13,-15 12,-16 16,-17 12,-16 8,-15 5,-15 -8,-15 v 2 z"
   id="path460"
   inkscape:connector-curvature="0"
   style="fill:#006600;stroke:none" />
         <path
   d="m 10460,14442 v -3 l 15,-10 18,-15 20,-18 21,-18 20,-15 18,-10 10,-8 h 5 l 10,-10 -15,-5 -15,8 -23,10 -20,15 -21,18 -20,18 -18,15 -15,15 v -2 2 5 l 2,3 3,2 h 5 z"
   id="path462"
   inkscape:connector-curvature="0"
   style="fill:#006600;stroke:none" />
         <path
   d="m 10330,14467 v 3 l 13,5 13,5 15,-5 20,-5 21,-8 18,-5 15,-7 15,-8 -10,-15 -10,7 -16,8 -17,5 -21,8 -15,5 h -15 -8 -2 v 2 z"
   id="path464"
   inkscape:connector-curvature="0"
   style="fill:#006600;stroke:none" />
         <path
   d="m 10376,14399 -7,-16 -18,18 -13,23 -8,23 v 20 l 16,-5 v -15 l 7,-18 13,-18 13,-12 -8,-16 8,16 5,-5 -3,-8 -5,-3 h -7 z"
   id="path466"
   inkscape:connector-curvature="0"
   style="fill:#006600;stroke:none" />
         <path
   d="m 10290,14427 15,5 15,-10 15,-8 18,-8 23,-7 -5,-16 -23,8 -18,8 -20,7 -15,16 15,5 -15,-5 v 5 l 2,2 3,3 h 5 z"
   id="path468"
   inkscape:connector-curvature="0"
   style="fill:#006600;stroke:none" />
         <path
   d="m 10338,14348 3,-3 -18,16 -15,15 -11,25 -7,26 h 20 l 3,-21 10,-20 10,-15 13,-10 2,-3 -2,3 5,-6 v -5 l -3,-5 h -7 z"
   id="path470"
   inkscape:connector-curvature="0"
   style="fill:#006600;stroke:none" />
         <path
   d="m 10486,14299 5,-15 -28,-2 -23,5 -23,7 -20,8 -18,10 -16,10 -12,16 -13,10 10,10 13,-10 13,-10 15,-11 13,-10 20,-7 18,-8 h 23 l 28,-3 5,-15 -5,15 5,-2 2,-5 -2,-5 -5,-3 z"
   id="path472"
   inkscape:connector-curvature="0"
   style="fill:#006600;stroke:none" />
         <path
   d="m 10369,14274 7,13 15,-3 16,-2 h 17 l 16,2 15,3 10,2 13,5 8,5 10,-15 -13,-5 -13,-5 -15,-2 -15,-3 -16,-3 h -17 l -16,3 -15,3 8,12 -8,-12 -5,2 -2,5 2,5 5,3 z"
   id="path474"
   inkscape:connector-curvature="0"
   style="fill:#006600;stroke:none" />
         <path
   d="m 10531,14221 8,-8 -31,-5 -28,-3 -22,5 -26,8 -20,10 -15,16 -16,15 -12,15 15,10 13,-15 10,-15 15,-10 15,-11 21,-7 h 22 l 28,-3 31,5 8,-7 -8,7 5,-2 3,-5 -3,-5 -5,-3 z"
   id="path476"
   inkscape:connector-curvature="0"
   style="fill:#006600;stroke:none" />
         <path
   d="m 10335,14198 3,15 36,-8 30,-10 28,-7 31,-5 h 25 l 20,2 11,13 12,23 h 16 l -13,-33 -21,-18 -25,-8 -25,5 -31,5 -33,8 -30,10 -31,8 3,15 -3,-15 -5,2 -3,5 3,5 5,3 z"
   id="path478"
   inkscape:connector-curvature="0"
   style="fill:#006600;stroke:none" />
         <path
   d="m 10468,14836 10,-15 13,-18 10,-18 12,-18 23,-20 26,-15 25,-13 28,-10 26,-8 25,-5 25,-2 h 23 l 79,-28 66,-5 56,10 46,23 36,30 25,33 18,31 7,23 -17,-3 17,8 16,12 15,16 13,17 12,21 8,23 8,20 2,20 v 11 7 l -2,10 -3,8 -10,-13 -15,-15 -18,-13 -20,-12 -21,-13 -20,-10 -20,-11 -21,-5 -18,-2 -17,2 -13,5 -8,13 -5,15 5,13 13,13 18,13 28,15 30,15 33,18 31,23 28,28 20,33 10,43 v 53 l -2,-10 -5,-7 -11,-11 -10,-10 -15,-10 -13,-10 -17,-10 -16,-8 -12,-7 -13,-6 -15,-5 -11,-2 -10,-3 h -10 l -8,3 -5,5 v 18 l 16,18 28,20 30,25 31,28 20,38 8,44 -16,53 -10,-8 -10,-10 -15,-10 -15,-8 -13,-10 -15,-7 -13,-5 -10,-6 5,16 5,12 10,13 10,10 10,13 13,8 15,7 16,8 -13,5 -13,5 -15,3 h -13 l 3,30 v 41 l -5,38 -8,18 -10,-13 -8,-33 -5,-38 v -28 l -13,5 -12,5 -16,5 h -12 l 7,-33 8,-38 v -33 l -8,-13 -7,3 -10,10 -11,13 -7,15 -13,18 -10,17 -10,21 -13,15 -15,-30 -3,-34 5,-38 13,-35 10,-36 10,-25 3,-21 -8,-7 -10,2 -15,8 -18,15 -18,18 -13,15 -12,15 -13,16 -13,15 -10,18 -10,15 -8,13 -7,12 -18,-48 -3,-41 5,-33 16,-30 23,-28 23,-20 25,-21 25,-15 21,-13 15,-12 8,-13 v -13 l -8,-7 -8,-6 h -12 l -13,6 -23,10 -28,12 -25,21 -31,20 -28,23 -25,23 -26,20 -20,21 2,-59 16,-53 23,-38 23,-28 15,-11 20,-7 20,-8 23,-10 21,-10 12,-13 8,-15 -3,-18 -17,-18 -26,-2 -33,10 -35,23 -39,30 -35,36 -33,41 -28,40 -13,-40 -2,-36 5,-31 10,-25 15,-23 13,-18 15,-12 10,-8 13,-10 20,-13 26,-15 25,-21 23,-17 15,-18 8,-15 -8,-13 -40,-10 -44,12 -40,34 -41,45 -36,54 -30,58 -26,51 -17,43 -21,-18 -10,-22 v -23 -26 l 10,-20 8,-23 2,-23 3,-23 8,-10 10,-13 10,-10 z"
   id="path480"
   inkscape:connector-curvature="0"
   style="fill:#4ce519;stroke:none" />
         <path
   d="m 10508,14762 h -2 l -13,18 -10,18 -13,18 -10,15 15,10 11,-15 12,-18 10,-18 13,-18 h -2 2 v -7 l -2,-5 -8,-3 -5,5 z"
   id="path482"
   inkscape:connector-curvature="0"
   style="fill:#006600;stroke:none" />
         <path
   d="m 10712,14686 2,-3 h -23 l -25,6 -25,5 -28,7 -28,10 -26,13 -28,15 -23,23 11,10 22,-17 23,-16 26,-12 28,-10 23,-8 25,-5 h 25 23 l 3,-3 -3,3 8,-3 3,-7 -3,-8 -8,-3 z"
   id="path484"
   inkscape:connector-curvature="0"
   style="fill:#006600;stroke:none" />
         <path
   d="m 11047,14818 8,-7 -8,-26 -17,-33 -28,-33 -36,-33 -48,-23 -59,-10 -66,5 -81,28 5,15 76,-28 66,-5 54,10 43,23 36,28 22,33 18,28 8,21 7,-8 -7,8 2,5 5,2 6,-2 2,-5 z"
   id="path486"
   inkscape:connector-curvature="0"
   style="fill:#006600;stroke:none" />
         <path
   d="m 11032,14800 -2,16 17,2 v -15 l -17,-3 -3,16 3,-16 -5,3 -3,5 3,5 5,3 z"
   id="path488"
   inkscape:connector-curvature="0"
   style="fill:#006600;stroke:none" />
         <path
   d="m 11131,14945 h -2 l -3,-20 -7,-23 -8,-23 -13,-23 -12,-17 -18,-16 -15,-15 -21,-8 -5,16 15,7 16,10 12,16 13,18 13,17 7,23 8,18 3,20 h -3 3 l 2,5 5,3 5,-3 3,-5 z"
   id="path490"
   inkscape:connector-curvature="0"
   style="fill:#006600;stroke:none" />
         <path
   d="m 11108,14986 16,-3 2,-7 3,-13 2,-7 v -11 h -20 v 11 l 3,7 -3,8 -3,7 16,-2 -16,2 v 8 l 6,3 h 7 l 3,-6 z"
   id="path492"
   inkscape:connector-curvature="0"
   style="fill:#006600;stroke:none" />
         <path
   d="m 11047,14935 h 3 l 18,13 18,13 15,12 7,13 16,-10 -13,-13 -15,-18 -18,-12 -23,-13 h 3 z"
   id="path494"
   inkscape:connector-curvature="0"
   style="fill:#006600;stroke:none" />
         <path
   d="m 10923,14912 v -2 l 5,-8 8,-5 h 17 18 l 18,5 20,10 21,10 17,13 11,-15 -23,-13 -21,-10 -20,-10 -23,-5 -18,-5 -17,5 -18,5 -10,18 v -3 z"
   id="path496"
   inkscape:connector-curvature="0"
   style="fill:#006600;stroke:none" />
         <path
   d="m 10951,14953 v 0 l -18,-13 -10,-10 -3,-8 3,-10 -15,-10 -8,20 8,18 15,16 18,12 v 0 0 h 7 l 5,-5 3,-5 z"
   id="path498"
   inkscape:connector-curvature="0"
   style="fill:#006600;stroke:none" />
         <path
   d="m 11119,15189 h 15 v -53 l -10,-46 -21,-35 -30,-31 -31,-23 -35,-18 -31,-15 -25,-15 -10,15 30,15 31,16 30,18 31,22 25,26 20,30 11,41 v 53 h 15 -15 l 2,6 5,2 5,-2 3,-6 z"
   id="path500"
   inkscape:connector-curvature="0"
   style="fill:#006600;stroke:none" />
         <path
   d="m 11035,15121 v 0 l 15,7 15,11 13,10 15,10 10,8 8,10 5,5 3,7 h 15 l -3,-12 -5,-10 -12,-11 -11,-12 -15,-10 -13,-11 -20,-10 -15,-7 v 0 z"
   id="path502"
   inkscape:connector-curvature="0"
   style="fill:#006600;stroke:none" />
         <path
   d="m 10961,15103 v 0 l 3,-3 2,-2 h 10 l 10,2 8,3 15,5 13,5 13,8 5,-15 -13,-8 -13,-5 -15,-5 -13,-3 -10,-2 h -10 l -13,2 -7,8 v 0 z"
   id="path504"
   inkscape:connector-curvature="0"
   style="fill:#006600;stroke:none" />
         <path
   d="m 11065,15347 13,-2 15,-56 -7,-46 -21,-41 -33,-30 -30,-26 -28,-18 -13,-15 v -10 l -15,-10 v 25 l 18,21 28,22 30,26 28,25 20,36 8,41 -15,50 12,-2 -12,2 v 8 l 5,3 h 7 l 3,-5 z"
   id="path506"
   inkscape:connector-curvature="0"
   style="fill:#006600;stroke:none" />
         <path
   d="m 10976,15276 -10,10 10,5 13,5 13,8 12,10 16,8 15,10 10,10 10,5 10,-10 -10,-10 -10,-10 -15,-11 -15,-7 -13,-10 -18,-8 -13,-5 -10,-5 -10,10 10,-10 h -7 l -3,5 v 5 l 5,5 z"
   id="path508"
   inkscape:connector-curvature="0"
   style="fill:#006600;stroke:none" />
         <path
   d="m 11055,15373 v -16 l -15,-7 -15,-8 -11,-5 -10,-13 -10,-10 -8,-13 -5,-10 -5,-15 -15,5 5,15 5,16 13,12 10,10 10,13 16,10 15,8 15,8 v -16 16 h 8 l 2,-6 v -7 l -5,-3 z"
   id="path510"
   inkscape:connector-curvature="0"
   style="fill:#006600;stroke:none" />
         <path
   d="m 11007,15375 -8,13 13,-3 18,-2 12,-5 13,-5 -5,-16 -13,5 -12,5 -13,3 -13,-3 -7,13 7,-13 -7,3 -3,8 3,7 7,3 z"
   id="path512"
   inkscape:connector-curvature="0"
   style="fill:#006600;stroke:none" />
         <path
   d="m 10989,15512 v 0 l 15,-25 5,-38 3,-41 -5,-33 -15,5 v 28 l 2,41 -5,38 v 10 0 z"
   id="path514"
   inkscape:connector-curvature="0"
   style="fill:#006600;stroke:none" />
         <path
   d="m 10971,15401 -13,-8 v 28 l 6,38 7,36 18,17 v -15 l -3,-7 -7,-31 -5,-38 v -28 l -13,-8 13,8 -3,-5 -5,-3 -5,3 -3,5 z"
   id="path516"
   inkscape:connector-curvature="0"
   style="fill:#006600;stroke:none" />
         <path
   d="m 10905,15406 8,10 h 12 l 18,-5 13,-5 15,-5 -10,-16 -10,5 -13,5 -13,6 h -12 l 7,10 -7,-10 -5,2 -3,5 3,5 5,3 z"
   id="path518"
   inkscape:connector-curvature="0"
   style="fill:#006600;stroke:none" />
         <path
   d="m 10920,15301 v 0 3 33 l -7,38 -8,31 15,5 8,-36 8,-38 v -33 l -16,-23 v 0 z"
   id="path520"
   inkscape:connector-curvature="0"
   style="fill:#006600;stroke:none" />
         <path
   d="m 10831,15408 h 16 l 12,-15 10,-23 11,-15 12,-18 8,-15 8,-13 10,-8 h 2 v -20 l -12,5 -11,13 -12,13 -8,15 -13,18 -10,20 -10,18 -13,15 h 16 -16 v 8 l 5,5 6,2 5,-5 z"
   id="path522"
   inkscape:connector-curvature="0"
   style="fill:#006600;stroke:none" />
         <path
   d="m 10854,15184 v 0 0 l -2,18 -10,26 -11,35 -12,38 -8,38 5,36 15,33 16,-10 -16,-28 v -31 l 3,-38 13,-33 10,-35 10,-26 2,-23 -15,-15 v 0 z"
   id="path524"
   inkscape:connector-curvature="0"
   style="fill:#006600;stroke:none" />
         <path
   d="m 10798,15225 v 0 l 18,-18 18,-12 13,-8 7,-3 v -15 l -12,3 -18,7 -18,18 -18,18 v 0 0 5 l 3,3 2,2 z"
   id="path526"
   inkscape:connector-curvature="0"
   style="fill:#006600;stroke:none" />
         <path
   d="m 10699,15342 h 15 l 8,-10 8,-13 10,-15 10,-18 13,-15 12,-15 13,-16 10,-15 -10,-10 -15,15 -13,15 -13,16 -12,15 -10,18 -11,15 -7,13 -8,15 h 15 -15 v 8 l 5,2 h 8 l 2,-5 z"
   id="path528"
   inkscape:connector-curvature="0"
   style="fill:#006600;stroke:none" />
         <path
   d="m 10798,15095 v 0 l -25,16 -26,20 -22,23 -26,28 -15,33 -8,35 5,41 18,51 15,-5 -17,-46 v -41 l 2,-30 15,-28 21,-28 23,-18 25,-20 25,-15 v 0 z"
   id="path530"
   inkscape:connector-curvature="0"
   style="fill:#006600;stroke:none" />
         <path
   d="m 10839,15057 v -2 7 l -5,10 -15,11 -21,12 10,16 21,-13 15,-15 10,-16 v -17 -3 z"
   id="path532"
   inkscape:connector-curvature="0"
   style="fill:#006600;stroke:none" />
         <path
   d="m 10808,15052 v 0 l 11,-5 h 12 l 3,5 5,5 15,-10 -10,-10 -13,-5 h -12 l -16,5 v 0 0 l -5,2 v 8 l 3,5 z"
   id="path534"
   inkscape:connector-curvature="0"
   style="fill:#006600;stroke:none" />
         <path
   d="m 10592,15195 13,5 20,-21 26,-18 25,-22 28,-23 31,-21 25,-20 26,-13 22,-10 -5,-15 -23,10 -30,13 -25,20 -31,20 -28,23 -25,23 -26,23 -20,20 13,6 -13,-6 v 6 l 2,2 3,3 h 5 z"
   id="path536"
   inkscape:connector-curvature="0"
   style="fill:#006600;stroke:none" />
         <path
   d="m 10658,15009 v 0 l -25,30 -23,41 -15,56 -3,59 h 16 l 2,-59 15,-51 23,-35 21,-26 v 0 z"
   id="path538"
   inkscape:connector-curvature="0"
   style="fill:#006600;stroke:none" />
         <path
   d="m 10773,14928 v 0 l 2,15 -7,10 -10,10 -18,10 -23,10 -20,8 -21,8 -18,10 11,15 12,-10 21,-8 20,-7 23,-10 23,-11 15,-15 8,-20 -3,-21 v 0 z"
   id="path540"
   inkscape:connector-curvature="0"
   style="fill:#006600;stroke:none" />
         <path
   d="m 10526,15088 15,2 28,-40 31,-41 36,-36 38,-28 33,-23 30,-10 23,3 13,13 15,-6 -23,-22 -28,-3 -35,10 -38,23 -39,33 -35,36 -36,40 -28,41 15,3 -15,-3 v 8 l 5,5 5,2 5,-5 z"
   id="path542"
   inkscape:connector-curvature="0"
   style="fill:#006600;stroke:none" />
         <path
   d="m 10582,14884 v 0 l -10,8 -15,15 -16,18 -15,25 -10,26 -8,33 5,36 13,43 15,-5 -12,-38 v -36 l 2,-28 10,-25 16,-21 10,-18 15,-10 10,-7 v 0 z"
   id="path544"
   inkscape:connector-curvature="0"
   style="fill:#006600;stroke:none" />
         <path
   d="m 10704,14778 v 0 l 3,5 -5,10 -13,18 -23,15 -25,20 -26,15 -20,13 -13,10 10,16 13,-11 20,-12 26,-16 25,-20 23,-20 18,-18 10,-20 -13,-21 v 0 z"
   id="path546"
   inkscape:connector-curvature="0"
   style="fill:#006600;stroke:none" />
         <path
   d="m 10430,15065 12,-5 18,-43 26,-51 30,-56 36,-54 38,-45 38,-31 41,-10 35,8 10,-16 -45,-12 -46,15 -43,35 -44,46 -35,54 -31,61 -25,50 -18,44 13,-5 -13,5 v 7 l 5,3 h 8 l 2,-5 z"
   id="path548"
   inkscape:connector-curvature="0"
   style="fill:#006600;stroke:none" />
         <path
   d="m 10397,14966 -3,2 v 26 l 3,23 10,28 23,20 10,-15 -18,-16 -10,-17 2,-23 v -26 l -2,3 2,-3 -2,-7 -8,-3 -7,3 -3,7 z"
   id="path550"
   inkscape:connector-curvature="0"
   style="fill:#006600;stroke:none" />
         <path
   d="m 10419,14874 -2,5 v 23 l -3,23 -7,20 -10,21 15,5 10,-21 8,-25 2,-23 5,-23 -2,5 2,-5 -2,-7 -8,-3 -8,3 -2,7 z"
   id="path552"
   inkscape:connector-curvature="0"
   style="fill:#006600;stroke:none" />
         <path
   d="m 10460,14831 3,-3 -13,13 -10,10 -13,13 -8,10 16,10 7,-10 8,-13 10,-10 13,-7 2,-3 -2,3 5,-5 -3,-8 -5,-3 h -7 z"
   id="path554"
   inkscape:connector-curvature="0"
   style="fill:#006600;stroke:none" />
         <path
   d="m 10989,14259 -18,13 -20,17 -23,21 -20,20 -23,23 -18,20 -15,15 -10,13 -11,26 -7,30 -8,26 -10,10 -8,-8 -2,-13 -3,-15 -2,-13 -13,8 -13,10 -10,15 -10,13 -3,21 -2,30 v 33 l -3,31 -2,-13 -10,-15 -8,-16 -8,-10 -7,23 -3,31 v 30 l 3,28 -16,-23 -15,-23 -15,-23 -13,-15 v 28 l -13,31 -17,28 -26,25 -2,-15 -5,-18 -5,-18 -6,-12 -5,12 -10,13 -13,8 -12,10 5,23 v 25 l -8,23 -13,25 23,-20 26,-15 25,-13 28,-10 26,-8 25,-5 25,-2 h 23 l 16,-8 17,-5 16,-5 15,-5 13,-5 15,-3 h 15 l 13,-2 20,-8 23,-13 18,-18 8,-20 h -13 -15 -13 -10 l -10,-2 -8,-3 -5,-3 -3,-5 10,-15 21,-13 23,-10 h 15 l 13,8 17,10 16,8 12,5 8,5 13,7 18,8 20,5 25,3 31,-5 30,-16 33,-25 -23,-3 -27,-5 -28,-7 -23,-13 -21,-18 -12,-23 -3,-30 10,-41 13,3 13,10 12,15 13,15 13,16 10,15 13,10 10,5 18,3 h 25 31 l 35,-3 36,-5 33,-8 30,-10 23,-15 -46,-8 -40,-12 -36,-16 -28,-20 -23,-20 -12,-21 -5,-15 7,-13 15,-5 21,5 20,13 26,15 22,18 21,15 18,13 12,5 h 13 l 18,3 h 25 l 26,-3 28,-2 30,-5 28,-8 26,-13 -28,-7 -28,-8 -33,-13 -31,-12 -33,-16 -28,-18 -25,-20 -23,-25 40,7 44,13 43,15 43,16 43,15 38,13 36,7 h 28 l -15,-30 -21,-31 -25,-30 -31,-28 -30,-23 -31,-18 -33,-10 -30,-5 h -28 l -18,-3 -13,-7 -5,-11 8,-7 20,-5 33,-8 41,-5 43,-3 41,-2 h 36 l 27,5 -33,-33 -33,-20 -35,-13 -36,-3 -35,5 -36,11 -33,15 -33,20 -31,20 -30,23 -26,21 -22,23 -21,17 -15,13 -13,8 -7,2 -6,-7 3,-13 10,-18 15,-18 16,-20 20,-18 20,-18 18,-10 -56,3 -46,20 -38,31 -33,40 -25,38 -20,36 -16,25 -10,11 -10,-8 5,-23 13,-25 z"
   id="path556"
   inkscape:connector-curvature="0"
   style="fill:#4ce519;stroke:none" />
         <path
   d="m 10849,14406 v 0 l 8,-12 15,-16 18,-20 23,-23 20,-20 23,-21 20,-15 18,-13 -10,-15 -18,13 -20,20 -23,21 -20,20 -23,23 -18,20 -15,15 -13,13 v 0 z"
   id="path558"
   inkscape:connector-curvature="0"
   style="fill:#006600;stroke:none" />
         <path
   d="m 10803,14500 h 3 l 18,-15 7,-25 8,-31 10,-23 -15,-10 -10,28 -8,31 -8,25 -2,5 h 2 z"
   id="path560"
   inkscape:connector-curvature="0"
   style="fill:#006600;stroke:none" />
         <path
   d="m 10793,14452 -10,-5 3,10 2,15 3,16 12,12 5,-15 -2,-2 -3,-11 -2,-15 -3,-15 -10,-5 10,5 -2,-5 h -8 l -5,2 v 8 z"
   id="path562"
   inkscape:connector-curvature="0"
   style="fill:#006600;stroke:none" />
         <path
   d="m 10753,14493 v 0 l 10,-10 7,-16 13,-7 10,-8 -5,-15 -15,7 -13,13 -13,15 -10,16 v 0 z"
   id="path564"
   inkscape:connector-curvature="0"
   style="fill:#006600;stroke:none" />
         <path
   d="m 10727,14605 h 18 l 5,-31 v -33 -30 l 3,-18 -16,-5 -2,23 -5,30 v 33 31 h 17 -17 l 2,5 5,2 5,-2 3,-5 z"
   id="path566"
   inkscape:connector-curvature="0"
   style="fill:#006600;stroke:none" />
         <path
   d="m 10717,14554 h -15 l 7,12 8,16 10,12 v 11 h 20 l -5,-16 -10,-17 -7,-16 -8,-7 h -15 15 l -3,-5 h -7 l -5,2 v 8 z"
   id="path568"
   inkscape:connector-curvature="0"
   style="fill:#006600;stroke:none" />
         <path
   d="m 10694,14668 15,-5 v -28 -30 -31 l 8,-20 -15,-5 -8,25 -5,31 v 30 l 5,28 15,-5 -15,5 3,5 5,3 5,-3 2,-5 z"
   id="path570"
   inkscape:connector-curvature="0"
   style="fill:#006600;stroke:none" />
         <path
   d="m 10651,14579 -13,5 10,16 16,22 15,23 15,23 15,-10 -15,-23 -15,-23 -15,-23 -16,-15 -12,5 12,-5 -5,-2 -2,2 -3,5 v 5 z"
   id="path572"
   inkscape:connector-curvature="0"
   style="fill:#006600;stroke:none" />
         <path
   d="m 10577,14691 15,8 28,-28 18,-31 13,-33 v -28 h -15 v 28 l -13,28 -18,26 -23,22 15,8 -15,-8 -5,6 3,5 5,5 h 7 z"
   id="path574"
   inkscape:connector-curvature="0"
   style="fill:#006600;stroke:none" />
         <path
   d="m 10577,14628 -15,2 5,13 5,18 5,15 v 15 h 20 l -5,-15 -5,-21 -5,-17 -5,-13 -15,3 15,-3 -2,-5 h -8 l -5,2 v 8 z"
   id="path576"
   inkscape:connector-curvature="0"
   style="fill:#006600;stroke:none" />
         <path
   d="m 10536,14668 -2,10 13,-10 12,-10 13,-13 5,-17 h -15 l -5,7 -8,13 -13,5 -12,10 -3,10 3,-10 -5,5 2,5 5,5 h 8 z"
   id="path578"
   inkscape:connector-curvature="0"
   style="fill:#006600;stroke:none" />
         <path
   d="m 10508,14762 13,8 13,-26 7,-25 v -25 l -5,-26 -15,5 5,21 v 25 l -7,20 -13,26 13,7 -13,-7 v 7 l 5,3 h 8 l 2,-5 z"
   id="path580"
   inkscape:connector-curvature="0"
   style="fill:#006600;stroke:none" />
         <path
   d="m 10712,14686 2,-3 h -23 l -25,6 -25,5 -28,7 -28,10 -26,13 -28,15 -23,23 11,10 22,-17 23,-16 26,-12 28,-10 23,-8 25,-5 h 25 23 l 3,-3 -3,3 8,-3 3,-7 -3,-8 -8,-3 z"
   id="path582"
   inkscape:connector-curvature="0"
   style="fill:#006600;stroke:none" />
         <path
   d="m 10831,14653 h 3 l -13,2 h -15 l -18,3 -13,5 -15,5 -15,5 -18,5 -15,8 5,15 15,-7 18,-5 15,-6 15,-5 13,-5 13,-2 h 15 l 13,-3 h 2 -2 l 5,-2 3,-5 -3,-6 -5,-2 z"
   id="path584"
   inkscape:connector-curvature="0"
   style="fill:#006600;stroke:none" />
         <path
   d="m 10903,14612 -8,-10 -8,15 -15,16 -20,12 -21,8 5,15 21,-7 25,-13 21,-20 7,-26 -7,-10 7,10 -2,-5 -5,-3 -6,3 -2,5 z"
   id="path586"
   inkscape:connector-curvature="0"
   style="fill:#006600;stroke:none" />
         <path
   d="m 10816,14589 v 0 l 8,11 7,5 8,2 13,3 10,2 h 13 15 13 v -20 h -13 -15 -13 l -10,2 -8,-2 -8,-3 h -2 2 v 0 z"
   id="path588"
   inkscape:connector-curvature="0"
   style="fill:#006600;stroke:none" />
         <path
   d="m 10900,14544 v 0 h -23 l -23,10 -23,15 -15,20 h 20 l 6,-10 17,-10 23,-10 h 8 v 0 z"
   id="path590"
   inkscape:connector-curvature="0"
   style="fill:#006600;stroke:none" />
         <path
   d="m 10956,14574 v 0 l -13,-5 -15,-8 -15,-10 -13,-7 -10,15 13,7 20,11 15,7 13,5 v 0 z"
   id="path592"
   inkscape:connector-curvature="0"
   style="fill:#006600;stroke:none" />
         <path
   d="m 11131,14572 -5,-13 -33,23 -28,15 -28,3 h -25 l -18,-6 -18,-7 -10,-8 -10,-5 -5,15 5,5 15,8 18,8 23,5 25,5 33,-8 33,-15 33,-28 -5,-13 5,13 3,-5 -3,-5 -5,-3 -5,3 z"
   id="path594"
   inkscape:connector-curvature="0"
   style="fill:#006600;stroke:none" />
         <path
   d="m 11004,14414 -7,8 -11,43 3,33 13,25 23,21 25,12 31,8 27,5 23,3 v -16 l -23,-2 -27,-5 -26,-8 -20,-13 -18,-15 -13,-20 -2,-28 10,-38 -8,7 8,-7 v -8 l -5,-3 h -5 l -5,6 z"
   id="path596"
   inkscape:connector-curvature="0"
   style="fill:#006600;stroke:none" />
         <path
   d="m 11101,14505 v 0 l -5,-5 -13,-7 -8,-16 -12,-15 -13,-15 -15,-15 -15,-13 -16,-5 v 20 h 10 l 11,8 10,15 12,15 13,16 13,15 13,13 15,5 v 0 z"
   id="path598"
   inkscape:connector-curvature="0"
   style="fill:#006600;stroke:none" />
         <path
   d="m 11332,14483 -5,-13 -20,13 -31,10 -30,7 -36,5 h -35 -31 -25 -18 v 16 l 18,5 h 25 31 l 35,-5 36,-5 35,-8 31,-10 25,-18 -5,-13 5,13 3,-5 -3,-5 -5,-3 -5,3 z"
   id="path600"
   inkscape:connector-curvature="0"
   style="fill:#006600;stroke:none" />
         <path
   d="m 11144,14343 v 0 l -10,20 5,18 13,23 25,23 31,20 35,15 43,13 46,8 v -16 l -46,-7 -38,-13 -35,-15 -26,-21 -20,-17 -13,-18 -5,-13 5,-5 v 0 z"
   id="path602"
   inkscape:connector-curvature="0"
   style="fill:#006600;stroke:none" />
         <path
   d="m 11304,14422 v 0 l -7,-6 -18,-12 -20,-16 -23,-17 -26,-16 -23,-12 -23,-8 -20,8 10,15 10,-3 18,3 18,13 25,15 23,18 21,15 17,13 18,5 v 0 z"
   id="path604"
   inkscape:connector-curvature="0"
   style="fill:#006600;stroke:none" />
         <path
   d="m 11495,14409 -3,-15 -22,12 -26,8 -30,5 -28,3 h -26 -25 -18 -13 v 15 h 13 l 18,5 h 25 l 26,-5 28,-3 30,-5 31,-7 28,-13 -3,-15 3,15 5,-5 -3,-8 -5,-2 h -8 z"
   id="path606"
   inkscape:connector-curvature="0"
   style="fill:#006600;stroke:none" />
         <path
   d="m 11269,14274 -8,13 25,25 26,23 30,18 33,15 31,13 33,13 28,7 28,8 5,-15 -28,-8 -28,-8 -33,-12 -30,-13 -33,-15 -26,-18 -25,-18 -21,-25 -7,12 7,-12 -5,-5 -5,2 -5,5 v 8 z"
   id="path608"
   inkscape:connector-curvature="0"
   style="fill:#006600;stroke:none" />
         <path
   d="m 11576,14371 8,-10 h -28 l -33,-8 -38,-13 -43,-15 -44,-15 -43,-16 -46,-12 -40,-8 v 15 l 40,8 41,13 43,15 44,15 43,15 38,13 38,8 h 28 l 8,-10 -8,10 5,-3 3,-5 -3,-5 -5,-2 z"
   id="path610"
   inkscape:connector-curvature="0"
   style="fill:#006600;stroke:none" />
         <path
   d="m 11368,14203 v 0 l 30,2 31,11 28,17 30,23 31,26 23,30 20,31 15,28 16,-5 -16,-33 -20,-31 -28,-30 -30,-31 -31,-23 -33,-18 -36,-10 -30,-7 v 0 z"
   id="path612"
   inkscape:connector-curvature="0"
   style="fill:#006600;stroke:none" />
         <path
   d="m 11297,14175 v 0 l 7,13 16,10 20,5 h 28 v -20 h -28 -15 l -11,-6 -2,-7 v 0 z"
   id="path614"
   inkscape:connector-curvature="0"
   style="fill:#006600;stroke:none" />
         <path
   d="m 11546,14152 10,-13 -30,-5 -36,-2 -41,5 -43,2 -41,5 -33,8 -23,5 -12,18 15,-5 2,2 18,-5 33,-7 41,-5 43,-3 h 41 l 36,-3 25,6 10,-13 -10,13 h 8 l 2,-6 v -7 l -5,-3 z"
   id="path616"
   inkscape:connector-curvature="0"
   style="fill:#006600;stroke:none" />
         <path
   d="m 11111,14264 v 0 l 13,-3 15,-7 15,-13 21,-20 22,-23 26,-18 30,-23 31,-20 30,-21 34,-15 33,-10 35,-3 h 36 l 33,13 30,20 31,31 15,-10 -35,-36 -36,-20 -38,-13 -36,-5 -35,8 -39,10 -33,15 -35,20 -31,21 -30,23 -26,23 -23,22 -20,16 -15,12 -10,8 -3,3 v 0 z"
   id="path618"
   inkscape:connector-curvature="0"
   style="fill:#006600;stroke:none" />
         <path
   d="m 11210,14142 -2,-15 -21,10 -20,18 -20,20 -18,20 -15,18 -11,20 -2,16 10,15 5,-15 v 0 l 3,-11 10,-15 15,-18 13,-20 20,-15 20,-18 16,-10 -3,-15 3,15 5,-5 v -5 l -3,-5 h -7 z"
   id="path620"
   inkscape:connector-curvature="0"
   style="fill:#006600;stroke:none" />
         <path
   d="m 10966,14348 v 0 l 18,-15 15,-26 21,-35 25,-39 30,-40 39,-28 40,-21 56,-2 v -15 l -56,2 -51,20 -38,34 -35,40 -26,38 -20,36 -15,25 -3,5 v 0 z"
   id="path622"
   inkscape:connector-curvature="0"
   style="fill:#006600;stroke:none" />
         <path
   d="m 10994,14266 -13,-12 -15,23 -13,28 -5,25 18,18 v -21 l -2,3 5,-20 12,-23 16,-23 -13,-13 13,13 v -8 l -3,-5 -8,-2 -5,5 z"
   id="path624"
   inkscape:connector-curvature="0"
   style="fill:#006600;stroke:none" />
         <path
   d="m 11037,15113 16,8 17,10 13,10 15,10 10,10 11,11 5,7 2,10 v -53 l -10,-43 -20,-33 -28,-28 -31,-23 -33,-18 -30,-15 -28,-15 -18,-13 -13,-13 -5,-13 5,-15 8,-13 13,-5 17,-2 18,2 21,5 20,11 20,10 21,13 20,12 18,13 15,15 10,13 3,-8 2,-10 v -7 -11 l 28,23 18,26 8,25 2,20 -13,-2 h -10 -10 -10 l 25,10 31,13 28,18 30,17 26,21 23,23 15,22 8,21 -18,-3 -18,-5 -20,-7 -18,-11 -18,-10 -18,-7 -15,-8 -10,-5 15,33 15,43 13,43 5,26 -15,-8 -15,-10 -16,-10 -15,-10 -13,-13 -12,-10 -11,-10 -5,-5 -5,-8 v 0 0 2 l -7,21 -13,-5 -13,-5 -12,-8 -13,-8 -13,-10 -10,-15 -5,-20 z"
   id="path626"
   inkscape:connector-curvature="0"
   style="fill:#4ce519;stroke:none" />
         <path
   d="m 11119,15189 h 15 l -3,-12 -5,-10 -12,-11 -11,-12 -15,-10 -13,-11 -20,-10 -15,-7 -5,15 15,7 15,11 13,10 15,10 10,8 8,10 5,5 3,7 h 15 -15 l 2,6 5,2 5,-2 3,-6 z"
   id="path628"
   inkscape:connector-curvature="0"
   style="fill:#006600;stroke:none" />
         <path
   d="m 10941,14968 v 0 l 30,15 31,16 30,18 31,22 25,26 20,30 11,41 v 53 h 15 v -53 l -10,-46 -21,-35 -30,-31 -31,-23 -35,-18 -31,-15 -25,-15 v 0 0 h -8 l -5,3 -2,7 z"
   id="path630"
   inkscape:connector-curvature="0"
   style="fill:#006600;stroke:none" />
         <path
   d="m 10908,14905 v -3 l -8,20 8,18 15,16 18,12 10,-15 -18,-13 -10,-10 -3,-8 3,-10 v -2 z"
   id="path632"
   inkscape:connector-curvature="0"
   style="fill:#006600;stroke:none" />
         <path
   d="m 11055,14920 h 3 l -23,-13 -21,-10 -20,-10 -23,-5 -18,-5 -17,5 -18,5 -10,18 15,5 5,-8 8,-5 h 17 18 l 18,5 20,10 21,10 17,13 h 3 z"
   id="path634"
   inkscape:connector-curvature="0"
   style="fill:#006600;stroke:none" />
         <path
   d="m 11108,14978 16,-2 -13,-13 -15,-18 -18,-12 -23,-13 -5,15 18,13 18,13 15,12 7,13 16,-3 -16,3 6,5 7,-2 3,-6 v -7 z"
   id="path636"
   inkscape:connector-curvature="0"
   style="fill:#006600;stroke:none" />
         <path
   d="m 11126,14938 -15,7 v 11 l 3,7 -3,8 -3,7 16,5 2,-7 3,-13 2,-7 v -11 l -15,8 15,-8 -2,-7 -8,-3 -7,3 -3,7 z"
   id="path638"
   inkscape:connector-curvature="0"
   style="fill:#006600;stroke:none" />
         <path
   d="m 11177,15047 10,-8 -5,-20 -7,-28 -21,-28 -28,-25 -10,15 28,20 15,23 8,23 v 20 l 10,-7 -10,7 3,8 7,3 8,-3 2,-8 z"
   id="path640"
   inkscape:connector-curvature="0"
   style="fill:#006600;stroke:none" />
         <path
   d="m 11136,15029 -2,18 h 10 10 l 10,-2 13,2 v -15 l -13,-3 -10,-2 h -10 -10 l -3,18 3,-18 -8,2 -2,8 2,8 8,2 z"
   id="path642"
   inkscape:connector-curvature="0"
   style="fill:#006600;stroke:none" />
         <path
   d="m 11320,15189 7,-7 -7,-23 -16,-25 -25,-23 -26,-23 -30,-18 -31,-18 -30,-13 -26,-10 -5,16 26,10 30,12 26,18 30,18 26,18 20,23 15,20 8,18 8,-8 -8,8 2,5 6,2 5,-2 2,-5 z"
   id="path644"
   inkscape:connector-curvature="0"
   style="fill:#006600;stroke:none" />
         <path
   d="m 11192,15123 -10,11 10,5 16,7 17,8 18,10 18,10 20,8 21,5 18,2 v -15 l -18,-2 -16,-5 -20,-8 -18,-10 -17,-10 -18,-8 -16,-8 -10,-5 -10,10 10,-10 h -7 l -3,5 v 5 l 5,6 z"
   id="path646"
   inkscape:connector-curvature="0"
   style="fill:#006600;stroke:none" />
         <path
   d="m 11231,15278 12,-7 -7,-28 -13,-43 -15,-44 -16,-33 -15,5 15,33 16,44 12,43 3,23 13,-8 -13,8 2,7 8,3 8,-3 2,-7 z"
   id="path648"
   inkscape:connector-curvature="0"
   style="fill:#006600;stroke:none" />
         <path
   d="m 11124,15197 v 3 l 7,5 11,10 12,10 13,15 15,10 15,11 16,10 18,7 5,-15 -13,-7 -15,-11 -16,-10 -15,-10 -13,-10 -12,-10 -10,-10 -3,-6 v 3 z"
   id="path650"
   inkscape:connector-curvature="0"
   style="fill:#006600;stroke:none" />
         <path
   d="m 11134,15192 v -3 l 2,-2 -17,5 v 0 l 5,5 15,-5 -5,-10 v 0 l -18,5 3,2 v -2 2 l 2,6 5,2 5,-2 3,-6 z"
   id="path652"
   inkscape:connector-curvature="0"
   style="fill:#006600;stroke:none" />
         <path
   d="m 11116,15217 10,-5 8,-20 -15,-5 -8,20 10,-5 -10,5 v 8 l 5,2 h 8 l 2,-5 z"
   id="path654"
   inkscape:connector-curvature="0"
   style="fill:#006600;stroke:none" />
         <path
   d="m 11040,15106 -13,7 5,26 5,22 13,18 13,13 12,8 16,7 12,5 13,5 5,-15 -13,-5 -12,-5 -10,-8 -13,-7 -13,-8 -7,-13 -6,-17 v -26 l -12,8 12,-8 -2,-7 -8,-3 -7,3 -3,7 z"
   id="path656"
   inkscape:connector-curvature="0"
   style="fill:#006600;stroke:none" />
         <path
   d="m 10803,15103 21,-13 15,-12 8,-13 v -13 l -8,-7 -8,-6 h -12 l -13,6 v 17 16 15 z"
   id="path658"
   inkscape:connector-curvature="0"
   style="fill:#701600;stroke:none" />
         <path
   d="m 10839,15057 v -2 7 l -5,10 -15,11 -21,12 10,16 21,-13 15,-15 10,-16 v -17 -3 z"
   id="path660"
   inkscape:connector-curvature="0"
   style="fill:#006600;stroke:none" />
         <path
   d="m 10814,15045 -6,7 11,-5 h 12 l 3,5 5,5 15,-10 -10,-10 -13,-5 h -12 l -16,5 -5,8 5,-8 -5,2 v 8 l 3,5 h 7 z"
   id="path662"
   inkscape:connector-curvature="0"
   style="fill:#006600;stroke:none" />
         <path
   d="m 10798,15095 13,11 3,-13 2,-15 v -16 l -2,-17 h -16 l -2,17 v 16 l 2,15 -2,7 12,11 -12,-11 v 8 l 5,3 h 7 l 3,-5 z"
   id="path664"
   inkscape:connector-curvature="0"
   style="fill:#006600;stroke:none" />
         <path
   d="m 10946,14668 -5,3 v 7 l 2,5 h 8 z"
   id="path666"
   inkscape:connector-curvature="0"
   style="fill:#006600;stroke:none" />
         <path
   d="m 11449,14999 -15,-43 -15,-41 -21,-41 -23,-41 -25,-33 -28,-33 -30,-30 -31,-26 -36,-20 -35,-18 -36,-12 -40,-8 -41,-8 -41,5 -40,5 -46,13 5,15 41,-12 40,-5 h 41 l 41,2 35,8 36,13 35,17 31,21 30,25 31,26 23,33 25,33 23,35 20,41 16,41 15,43 z"
   id="path668"
   inkscape:connector-curvature="0"
   style="fill:#006600;stroke:none" />
         <path
   d="m 11434,15004 5,5 h 5 l 5,-3 v -7 z"
   id="path670"
   inkscape:connector-curvature="0"
   style="fill:#006600;stroke:none" />
         <path
   d="m 9934,13793 -5,3 -3,5 3,5 5,3 z"
   id="path672"
   inkscape:connector-curvature="0"
   style="fill:#006600;stroke:none" />
         <path
   d="m 10211,13791 v 0 l -13,-5 -23,-5 -25,-5 -31,-3 -35,-5 -46,5 -48,8 -56,12 v 16 l 56,-13 48,-8 h 46 35 l 31,3 25,5 18,5 13,5 v 0 z"
   id="path674"
   inkscape:connector-curvature="0"
   style="fill:#006600;stroke:none" />
         <path
   d="m 10488,13997 -15,-28 -33,-31 -41,-33 -46,-30 -45,-31 -41,-25 -36,-18 -20,-10 -5,15 20,10 31,18 40,26 46,30 46,31 41,33 28,25 15,23 z"
   id="path676"
   inkscape:connector-curvature="0"
   style="fill:#006600;stroke:none" />
         <path
   d="m 10473,14002 5,5 h 5 l 5,-2 v -8 z"
   id="path678"
   inkscape:connector-curvature="0"
   style="fill:#006600;stroke:none" />
         <path
   d="m 10864,14188 3,5 5,2 5,-2 3,-5 z"
   id="path680"
   inkscape:connector-curvature="0"
   style="fill:#006600;stroke:none" />
         <path
   d="m 11414,13793 -56,-12 -54,-8 h -51 l -48,5 -51,13 -43,15 -43,23 -38,25 -36,34 -33,35 -25,36 -23,43 -21,43 -12,49 -11,45 -5,49 h 16 l 5,-49 10,-45 13,-44 20,-43 23,-38 25,-36 28,-35 36,-28 38,-26 38,-23 43,-15 46,-13 48,-5 h 51 l 54,8 51,13 z"
   id="path682"
   inkscape:connector-curvature="0"
   style="fill:#006600;stroke:none" />
         <path
   d="m 11409,13809 h 7 l 3,-5 v -8 l -5,-3 z"
   id="path684"
   inkscape:connector-curvature="0"
   style="fill:#006600;stroke:none" />
         <path
   d="m 9842,14867 v 5 l 3,2 2,3 h 5 z"
   id="path686"
   inkscape:connector-curvature="0"
   style="fill:#006600;stroke:none" />
         <path
   d="m 10491,14465 h -49 l -43,5 -43,7 -46,11 -38,15 -41,18 -40,20 -36,23 -38,28 -36,30 -38,36 -38,36 -38,38 -41,43 -41,43 -43,49 10,10 44,-49 40,-43 41,-43 38,-38 38,-36 38,-30 36,-31 38,-28 36,-23 35,-20 41,-18 38,-15 41,-10 43,-8 43,-5 h 49 z"
   id="path688"
   inkscape:connector-curvature="0"
   style="fill:#006600;stroke:none" />
         <path
   d="m 10491,14483 7,-3 3,-8 -3,-7 -7,-3 z"
   id="path690"
   inkscape:connector-curvature="0"
   style="fill:#006600;stroke:none" />
         <path
   d="m 10539,14210 -8,3 -2,8 2,7 8,3 z"
   id="path692"
   inkscape:connector-curvature="0"
   style="fill:#006600;stroke:none" />
         <path
   d="m 10653,14233 5,-10 -10,3 h -15 l -15,-3 -18,-2 -18,-3 -15,-2 -15,-3 -13,-3 v 21 l 13,-3 15,3 15,2 18,3 18,2 15,3 h 15 l 16,-3 5,-10 -5,10 5,-5 v -5 l -3,-5 h -8 z"
   id="path694"
   inkscape:connector-curvature="0"
   style="fill:#006600;stroke:none" />
         <path
   d="m 10587,14185 5,15 h 21 l 17,8 16,10 7,15 16,-5 -13,-20 -20,-15 -23,-8 h -21 l 5,15 -5,-15 -5,3 -2,5 2,5 5,2 z"
   id="path696"
   inkscape:connector-curvature="0"
   style="fill:#006600;stroke:none" />
         <path
   d="m 10674,14157 -10,3 -11,2 -10,3 -10,2 -13,3 -10,5 -10,5 -13,5 10,15 8,-5 10,-5 10,-5 8,-2 10,-3 10,-3 11,-2 10,2 z"
   id="path698"
   inkscape:connector-curvature="0"
   style="fill:#006600;stroke:none" />
         <path
   d="m 10674,14177 7,-2 3,-8 -3,-7 -7,-3 z"
   id="path700"
   inkscape:connector-curvature="0"
   style="fill:#006600;stroke:none" />
         <path
   d="m 10379,14437 v 5 l 2,2 3,3 h 5 z"
   id="path702"
   inkscape:connector-curvature="0"
   style="fill:#006600;stroke:none" />
         <path
   d="m 10872,14322 -20,-30 -23,-26 -28,-15 -26,-10 -33,-5 -30,-3 -31,5 -35,11 -33,12 -36,16 -36,20 -35,23 -33,25 -33,31 -31,30 -30,31 10,10 30,-31 31,-30 33,-25 33,-26 36,-23 30,-20 36,-15 33,-13 30,-10 h 31 l 30,-3 28,5 26,10 23,16 17,20 21,25 z"
   id="path704"
   inkscape:connector-curvature="0"
   style="fill:#006600;stroke:none" />
         <path
   d="m 10857,14327 5,6 h 5 l 5,-3 v -8 z"
   id="path706"
   inkscape:connector-curvature="0"
   style="fill:#006600;stroke:none" />
         <path
   d="m 10506,14765 v 7 l 5,3 h 8 l 2,-5 z"
   id="path708"
   inkscape:connector-curvature="0"
   style="fill:#006600;stroke:none" />
         <path
   d="m 10521,14673 5,21 v 25 l -7,20 -13,26 15,5 13,-26 7,-25 v -25 l -5,-26 z"
   id="path710"
   inkscape:connector-curvature="0"
   style="fill:#006600;stroke:none" />
         <path
   d="m 10536,14668 -2,-5 h -8 l -5,3 v 7 z"
   id="path712"
   inkscape:connector-curvature="0"
   style="fill:#006600;stroke:none" />
         <path
   d="m 10735,14678 v 8 l 5,3 h 7 l 3,-6 z"
   id="path714"
   inkscape:connector-curvature="0"
   style="fill:#006600;stroke:none" />
         <path
   d="m 11579,14345 -61,-43 -64,-30 -63,-21 -64,-7 h -63 l -61,10 -64,18 -58,25 -59,30 -53,39 -51,45 -46,49 -46,51 -35,53 -31,58 -25,56 15,5 25,-55 31,-54 36,-53 40,-51 46,-48 51,-41 53,-38 54,-31 58,-25 59,-18 61,-10 h 63 l 64,7 58,21 59,30 61,44 z"
   id="path716"
   inkscape:connector-curvature="0"
   style="fill:#006600;stroke:none" />
         <path
   d="m 11569,14361 h 7 l 5,-6 3,-5 -5,-5 z"
   id="path718"
   inkscape:connector-curvature="0"
   style="fill:#006600;stroke:none" />
         <path
   d="m 10722,14689 -5,-6 -5,3 -5,5 v 8 z"
   id="path720"
   inkscape:connector-curvature="0"
   style="fill:#006600;stroke:none" />
         <path
   d="m 10918,15149 -5,-43 -16,-56 -22,-64 -28,-69 -31,-66 -30,-63 -33,-59 -31,-40 -15,10 30,40 33,54 31,63 30,66 28,69 23,64 15,51 6,43 z"
   id="path722"
   inkscape:connector-curvature="0"
   style="fill:#006600;stroke:none" />
         <path
   d="m 10900,15149 3,7 7,3 8,-3 2,-7 z"
   id="path724"
   inkscape:connector-curvature="0"
   style="fill:#006600;stroke:none" />
         <path
   d="m 10826,14732 v 0 l 5,-3 8,-5 h 18 l 20,5 20,10 23,11 21,15 17,13 11,-11 -18,-17 -26,-16 -22,-10 -21,-10 -25,-5 h -18 l -18,5 -10,13 v 0 z"
   id="path726"
   inkscape:connector-curvature="0"
   style="fill:#006600;stroke:none" />
         <path
   d="m 10958,14778 6,-13 -26,-3 -28,-2 -25,-3 -23,-2 -18,-5 -13,-8 -5,-5 v -5 l -15,-5 v 15 l 10,15 18,8 23,5 23,2 25,3 28,3 26,2 5,-13 -5,13 5,-2 2,-6 -2,-5 -5,-2 z"
   id="path728"
   inkscape:connector-curvature="0"
   style="fill:#006600;stroke:none" />
         <path
   d="m 10941,14953 -5,5 2,5 5,5 h 8 z"
   id="path730"
   inkscape:connector-curvature="0"
   style="fill:#006600;stroke:none" />
         <path
   d="m 11053,14920 -18,-3 -15,3 -18,2 -13,6 -13,5 -10,5 -15,7 -10,8 10,15 10,-7 10,-8 10,-5 13,-5 13,-5 13,-3 15,3 18,-3 z"
   id="path732"
   inkscape:connector-curvature="0"
   style="fill:#006600;stroke:none" />
         <path
   d="m 11053,14938 7,-3 3,-7 -3,-8 -7,-3 z"
   id="path734"
   inkscape:connector-curvature="0"
   style="fill:#006600;stroke:none" />
        </g>
       </g>
      </g>
     </g>
    </g>
   </g>
  </g>
 </g>
</svg>