<?xml version="1.0" encoding="UTF-8" standalone="no"?>
<svg
   xmlns:ooo="http://xml.openoffice.org/svg/export"
   xmlns:dc="http://purl.org/dc/elements/1.1/"
   xmlns:cc="http://creativecommons.org/ns#"
   xmlns:rdf="http://www.w3.org/1999/02/22-rdf-syntax-ns#"
   xmlns:svg="http://www.w3.org/2000/svg"
   xmlns="http://www.w3.org/2000/svg"
   xmlns:sodipodi="http://sodipodi.sourceforge.net/DTD/sodipodi-0.dtd"
   xmlns:inkscape="http://www.inkscape.org/namespaces/inkscape"
   version="1.2"
   width="91.360001mm"
   height="42.060001mm"
   viewBox="0 0 9136.0001 4206.0001"
   preserveAspectRatio="xMidYMid"
   xml:space="preserve"
   id="svg511"
   sodipodi:docname="firewk1.svg"
   style="fill-rule:evenodd;stroke-width:28.22200012;stroke-linejoin:round"
   inkscape:version="0.92.5 (2060ec1f9f, 2020-04-08)"><metadata
   id="metadata515"><rdf:RDF><cc:Work
       rdf:about=""><dc:format>image/svg+xml</dc:format><dc:type
         rdf:resource="http://purl.org/dc/dcmitype/StillImage" /></cc:Work></rdf:RDF></metadata><sodipodi:namedview
   pagecolor="#ffffff"
   bordercolor="#666666"
   borderopacity="1"
   objecttolerance="10"
   gridtolerance="10"
   guidetolerance="10"
   inkscape:pageopacity="0"
   inkscape:pageshadow="2"
   inkscape:window-width="664"
   inkscape:window-height="487"
   id="namedview513"
   showgrid="false"
   inkscape:zoom="0.2102413"
   inkscape:cx="172.64882"
   inkscape:cy="79.483463"
   inkscape:window-x="0"
   inkscape:window-y="0"
   inkscape:window-maximized="0"
   inkscape:current-layer="svg511" />
 <defs
   class="ClipPathGroup"
   id="defs8">
  <clipPath
   id="presentation_clip_path"
   clipPathUnits="userSpaceOnUse">
   <rect
   x="0"
   y="0"
   width="21000"
   height="29700"
   id="rect2" />
  </clipPath>
  <clipPath
   id="presentation_clip_path_shrink"
   clipPathUnits="userSpaceOnUse">
   <rect
   x="21"
   y="29"
   width="20958"
   height="29641"
   id="rect5" />
  </clipPath>
 </defs>
 <defs
   class="TextShapeIndex"
   id="defs12">
  <g
   ooo:slide="id1"
   ooo:id-list="id3"
   id="g10" />
 </defs>
 <defs
   class="EmbeddedBulletChars"
   id="defs44">
  <g
   id="bullet-char-template-57356"
   transform="matrix(4.8828125e-4,0,0,-4.8828125e-4,0,0)">
   <path
   d="M 580,1141 1163,571 580,0 -4,571 Z"
   id="path14"
   inkscape:connector-curvature="0" />
  </g>
  <g
   id="bullet-char-template-57354"
   transform="matrix(4.8828125e-4,0,0,-4.8828125e-4,0,0)">
   <path
   d="M 8,1128 H 1137 V 0 H 8 Z"
   id="path17"
   inkscape:connector-curvature="0" />
  </g>
  <g
   id="bullet-char-template-10146"
   transform="matrix(4.8828125e-4,0,0,-4.8828125e-4,0,0)">
   <path
   d="M 174,0 602,739 174,1481 1456,739 Z M 1358,739 309,1346 659,739 Z"
   id="path20"
   inkscape:connector-curvature="0" />
  </g>
  <g
   id="bullet-char-template-10132"
   transform="matrix(4.8828125e-4,0,0,-4.8828125e-4,0,0)">
   <path
   d="M 2015,739 1276,0 H 717 l 543,543 H 174 v 393 h 1086 l -543,545 h 557 z"
   id="path23"
   inkscape:connector-curvature="0" />
  </g>
  <g
   id="bullet-char-template-10007"
   transform="matrix(4.8828125e-4,0,0,-4.8828125e-4,0,0)">
   <path
   d="m 0,-2 c -7,16 -16,29 -25,39 l 381,530 c -94,256 -141,385 -141,387 0,25 13,38 40,38 9,0 21,-2 34,-5 21,4 42,12 65,25 l 27,-13 111,-251 280,301 64,-25 24,25 c 21,-10 41,-24 62,-43 C 886,937 835,863 770,784 769,783 710,716 594,584 L 774,223 c 0,-27 -21,-55 -63,-84 l 16,-20 C 717,90 699,76 672,76 641,76 570,178 457,381 L 164,-76 c -22,-34 -53,-51 -92,-51 -42,0 -63,17 -64,51 -7,9 -10,24 -10,44 0,9 1,19 2,30 z"
   id="path26"
   inkscape:connector-curvature="0" />
  </g>
  <g
   id="bullet-char-template-10004"
   transform="matrix(4.8828125e-4,0,0,-4.8828125e-4,0,0)">
   <path
   d="M 285,-33 C 182,-33 111,30 74,156 52,228 41,333 41,471 c 0,78 14,145 41,201 34,71 87,106 158,106 53,0 88,-31 106,-94 l 23,-176 c 8,-64 28,-97 59,-98 l 735,706 c 11,11 33,17 66,17 42,0 63,-15 63,-46 V 965 c 0,-36 -10,-64 -30,-84 L 442,47 C 390,-6 338,-33 285,-33 Z"
   id="path29"
   inkscape:connector-curvature="0" />
  </g>
  <g
   id="bullet-char-template-9679"
   transform="matrix(4.8828125e-4,0,0,-4.8828125e-4,0,0)">
   <path
   d="M 813,0 C 632,0 489,54 383,161 276,268 223,411 223,592 c 0,181 53,324 160,431 106,107 249,161 430,161 179,0 323,-54 432,-161 108,-107 162,-251 162,-431 0,-180 -54,-324 -162,-431 C 1136,54 992,0 813,0 Z"
   id="path32"
   inkscape:connector-curvature="0" />
  </g>
  <g
   id="bullet-char-template-8226"
   transform="matrix(4.8828125e-4,0,0,-4.8828125e-4,0,0)">
   <path
   d="m 346,457 c -73,0 -137,26 -191,78 -54,51 -81,114 -81,188 0,73 27,136 81,188 54,52 118,78 191,78 73,0 134,-26 185,-79 51,-51 77,-114 77,-187 0,-75 -25,-137 -76,-188 -50,-52 -112,-78 -186,-78 z"
   id="path35"
   inkscape:connector-curvature="0" />
  </g>
  <g
   id="bullet-char-template-8211"
   transform="matrix(4.8828125e-4,0,0,-4.8828125e-4,0,0)">
   <path
   d="M -4,459 H 1135 V 606 H -4 Z"
   id="path38"
   inkscape:connector-curvature="0" />
  </g>
  <g
   id="bullet-char-template-61548"
   transform="matrix(4.8828125e-4,0,0,-4.8828125e-4,0,0)">
   <path
   d="m 173,740 c 0,163 58,303 173,419 116,115 255,173 419,173 163,0 302,-58 418,-173 116,-116 174,-256 174,-419 0,-163 -58,-303 -174,-418 C 1067,206 928,148 765,148 601,148 462,206 346,322 231,437 173,577 173,740 Z"
   id="path41"
   inkscape:connector-curvature="0" />
  </g>
 </defs>
 <g
   id="g49"
   transform="translate(-5932,-12747)">
  <g
   id="id2"
   class="Master_Slide">
   <g
   id="bg-id2"
   class="Background" />
   <g
   id="bo-id2"
   class="BackgroundObjects" />
  </g>
 </g>
 <g
   class="SlideGroup"
   id="g509"
   transform="translate(-5932,-12747)">
  <g
   id="g507">
   <g
   id="container-id1">
    <g
   id="id1"
   class="Slide"
   clip-path="url(#presentation_clip_path)">
     <g
   class="Page"
   id="g503">
      <g
   class="Graphic"
   id="g501">
       <g
   id="id3">
        <rect
   class="BoundingBox"
   x="5932"
   y="12747"
   width="9136"
   height="4206"
   id="rect51"
   style="fill:none;stroke:none" />
        <defs
   id="defs56">
         <clipPath
   id="clip_path_1"
   clipPathUnits="userSpaceOnUse">
          <path
   d="m 5932,12747 h 9135 v 4205 H 5932 Z"
   id="path53"
   inkscape:connector-curvature="0" />
         </clipPath>
        </defs>
        <g
   clip-path="url(#clip_path_1)"
   id="g498">
         <path
   d="M 15068,16953 V 12747 H 5932 v 4206 z"
   id="path58"
   inkscape:connector-curvature="0"
   style="fill:#000000;stroke:none" />
         <path
   d="m 8986,13136 71,-36 -10,-58 30,48 71,-46 -45,72 78,48 -86,-10 10,63 -33,-56 -43,66 23,-91 z"
   id="path60"
   inkscape:connector-curvature="0"
   style="fill:#ffffff;stroke:none" />
         <path
   d="m 8391,14407 56,-28 -7,-44 22,36 54,-36 -36,56 59,36 -66,-8 10,46 -26,-41 -33,51 18,-68 z"
   id="path62"
   inkscape:connector-curvature="0"
   style="fill:#ffffff;stroke:none" />
         <path
   d="m 10955,13016 71,-35 -10,-59 30,49 71,-46 -45,71 78,48 -86,-10 10,64 -33,-56 -43,66 23,-92 z"
   id="path64"
   inkscape:connector-curvature="0"
   style="fill:#ffffff;stroke:none" />
         <path
   d="m 10828,12859 -21,10 -28,18 -30,23 -36,30 -35,36 -41,40 -40,44 -44,43 -40,48 -38,46 -36,46 -33,45 -30,41 -23,38 -18,36 -10,28 -3,20 3,15 5,10 10,3 h 13 l 10,-8 13,-12 7,-21 23,-48 41,-64 53,-73 64,-77 60,-76 61,-68 49,-54 33,-33 -10,5 -16,10 -15,11 -18,12 -17,13 -16,13 -12,7 -8,8 18,-20 23,-23 25,-26 25,-25 26,-25 23,-21 20,-15 z"
   id="path66"
   inkscape:connector-curvature="0"
   style="fill:#ffffff;stroke:none" />
         <path
   d="m 10027,14074 1471,2874 h 171 z"
   id="path68"
   inkscape:connector-curvature="0"
   style="fill:#ffffff;stroke:none" />
         <path
   d="m 8186,13387 256,8 -256,71 2,-20 v -23 -20 z"
   id="path70"
   inkscape:connector-curvature="0"
   style="fill:#ffffff;stroke:none" />
         <path
   d="m 8559,13758 104,-236 -30,264 -18,-10 -23,-7 -18,-8 z"
   id="path72"
   inkscape:connector-curvature="0"
   style="fill:#ffffff;stroke:none" />
         <path
   d="m 8516,12973 127,226 -193,-185 18,-10 20,-10 18,-11 z"
   id="path74"
   inkscape:connector-curvature="0"
   style="fill:#ffffff;stroke:none" />
         <path
   d="m 12004,13004 -206,155 249,-89 -12,-18 -13,-18 -10,-18 z"
   id="path76"
   inkscape:connector-curvature="0"
   style="fill:#ffffff;stroke:none" />
         <path
   d="m 11872,13507 -252,-53 232,129 5,-20 5,-23 5,-20 z"
   id="path78"
   inkscape:connector-curvature="0"
   style="fill:#ffffff;stroke:none" />
         <path
   d="m 11514,12841 -79,247 150,-219 -20,-5 -21,-8 -20,-7 z"
   id="path80"
   inkscape:connector-curvature="0"
   style="fill:#ffffff;stroke:none" />
         <path
   d="m 9026,15126 3,-26 8,-33 15,-43 18,-46 23,-53 27,-53 31,-59 30,-58 33,-59 36,-58 36,-54 35,-50 33,-46 33,-38 31,-31 28,-23 20,-10 18,-2 15,5 10,10 3,13 -3,15 -10,18 -20,17 -44,41 -53,64 -58,81 -56,89 -56,89 -51,84 -38,68 -23,49 8,-33 15,-46 13,-46 10,-28 -15,28 -18,33 -18,36 -20,38 -18,38 -13,33 -12,25 z"
   id="path82"
   inkscape:connector-curvature="0"
   style="fill:#ffffff;stroke:none" />
         <path
   d="m 8572,14071 20,-8 38,-10 48,-10 56,-15 56,-13 51,-10 38,-10 18,-8 102,-10 12,5 36,3 48,5 58,5 61,5 51,8 41,10 18,10 10,5 13,-3 10,-7 5,-8 v -7 l -5,-8 -10,-8 -13,-2 -20,-3 -41,-2 -53,-5 -61,-3 -59,-3 -51,-2 -35,2 -15,3 -102,10 h -20 -23 -28 l -33,3 -33,5 -36,5 -38,5 -36,5 -38,5 -33,5 -33,8 -30,5 -26,5 -20,5 -15,5 -10,3 23,-13 35,-13 46,-12 53,-13 59,-10 66,-10 68,-11 74,-7 71,-5 71,-5 71,-3 h 64 l 61,3 53,2 43,8 36,10 20,10 13,15 5,13 -2,13 -8,10 -15,8 h -21 l -25,-6 -25,-7 -36,-5 -41,-3 h -48 -53 l -56,3 -56,2 -59,5 -61,3 -55,8 -54,5 -51,5 -45,5 -41,5 -30,5 z"
   id="path84"
   inkscape:connector-curvature="0"
   style="fill:#ffffff;stroke:none" />
         <path
   d="m 9908,13159 v -89 l 5,-127 -5,-115 -20,-51 -16,41 6,102 15,127 z"
   id="path86"
   inkscape:connector-curvature="0"
   style="fill:#ffffff;stroke:none" />
         <path
   d="m 9789,14849 -8,45 -18,79 -23,99 -23,107 -20,107 -15,89 -5,66 7,25 16,-18 15,-55 18,-84 15,-99 13,-107 12,-102 11,-89 z"
   id="path88"
   inkscape:connector-curvature="0"
   style="fill:#ffffff;stroke:none" />
         <path
   d="m 9235,14556 -15,11 -28,12 -33,16 -41,20 -46,23 -48,23 -51,25 -53,25 -51,26 -48,25 -46,23 -38,23 -33,20 -23,18 -15,13 -3,10 8,3 15,-3 25,-10 31,-15 38,-18 41,-23 45,-25 49,-28 48,-28 48,-28 46,-28 46,-28 40,-26 36,-22 33,-18 z"
   id="path90"
   inkscape:connector-curvature="0"
   style="fill:#ffffff;stroke:none" />
         <path
   d="m 10754,13980 h 18 l 28,-3 h 35 l 44,-5 48,-3 51,-2 53,-5 53,-3 51,-2 51,-3 h 48 41 35 l 28,3 16,5 7,7 -5,8 -15,5 -23,3 -33,5 h -38 l -43,2 h -49 -48 -53 l -51,-2 h -51 l -48,-3 -46,-2 h -40 l -36,-3 z"
   id="path92"
   inkscape:connector-curvature="0"
   style="fill:#ffffff;stroke:none" />
         <path
   d="m 9377,13636 -15,-7 -26,-13 -33,-15 -38,-18 -40,-20 -46,-23 -48,-23 -49,-23 -48,-20 -46,-20 -43,-21 -38,-15 -33,-10 -25,-8 -18,-2 -10,5 2,7 10,10 21,13 28,13 35,15 41,18 43,18 46,17 48,18 48,18 49,18 45,18 44,15 38,13 33,12 z"
   id="path94"
   inkscape:connector-curvature="0"
   style="fill:#ffffff;stroke:none" />
         <path
   d="m 10858,13479 15,-8 26,-12 30,-16 33,-20 41,-23 41,-23 43,-25 43,-23 43,-25 43,-21 39,-20 35,-18 31,-13 25,-7 18,-3 7,5 -2,8 -10,10 -18,15 -25,16 -31,15 -36,20 -40,18 -43,20 -44,21 -45,20 -43,18 -44,18 -38,17 -38,13 -30,13 z"
   id="path96"
   inkscape:connector-curvature="0"
   style="fill:#ffffff;stroke:none" />
         <path
   d="m 10027,14074 -15,254 -48,-270 -145,257 99,-269 -277,86 267,-140 -165,-76 162,33 -129,-160 183,150 -48,-310 81,282 99,-236 -71,277 307,-201 -277,241 262,18 -249,13 178,112 -181,-84 214,264 -247,-241 102,172 767,753 -668,-826 562,152 -549,-239 721,-333 -767,239 651,-833 -740,701 219,-859 -308,740 -363,-722 262,803 -577,-468 406,501 -505,-104 513,244 -828,434 864,-272 -313,847 452,-806 150,844 51,-796 z"
   id="path98"
   inkscape:connector-curvature="0"
   style="fill:#ffffff;stroke:none" />
         <path
   d="m 11196,14869 23,20 28,28 30,28 28,31 28,30 26,26 18,23 12,15 -10,-23 -20,-31 -31,-38 -35,-40 -41,-46 -46,-46 -51,-51 -50,-48 -56,-48 -54,-46 -53,-46 -53,-38 -49,-35 -45,-28 -41,-23 -33,-13 -23,-2 -18,2 -12,8 -5,12 v 13 l 7,15 15,13 26,10 25,10 31,18 35,23 38,25 44,34 43,33 46,35 45,38 46,38 43,38 41,36 38,33 33,31 28,28 23,22 15,18 -5,-12 -10,-18 -15,-21 -13,-20 -15,-20 -13,-18 -10,-13 -8,-10 -198,-183 -13,-5 -30,-18 -43,-25 -49,-31 -51,-33 -48,-25 -35,-18 -23,-2 h -10 l -8,-11 -3,-12 v -11 l 6,-5 10,-5 10,3 13,5 17,10 33,23 46,28 48,36 51,33 41,30 28,23 10,10 z"
   id="path100"
   inkscape:connector-curvature="0"
   style="fill:#ffffff;stroke:none" />
         <path
   d="m 12936,13764 -203,111 -175,120 -153,124 -127,133 -106,134 -84,135 -66,135 -46,132 -30,129 -16,125 v 117 l 13,109 25,99 33,87 44,71 50,58 -53,-152 -28,-150 -10,-143 10,-139 28,-135 43,-127 56,-125 69,-117 79,-109 86,-104 91,-94 100,-89 99,-81 101,-74 102,-66 96,-56 -7,-13 -5,-15 -8,-18 z"
   id="path102"
   inkscape:connector-curvature="0"
   style="fill:#ffffff;stroke:none" />
         <path
   d="m 12908,13705 -238,145 -206,147 -173,150 -142,153 -114,150 -89,150 -66,145 -46,142 -26,135 -10,129 5,120 18,111 28,100 33,86 41,71 43,59 -53,-153 -36,-150 -15,-147 v -143 l 20,-137 33,-135 51,-129 63,-125 77,-119 89,-117 99,-109 111,-104 120,-102 129,-94 138,-89 144,-81 -7,-13 -5,-15 -8,-18 z"
   id="path104"
   inkscape:connector-curvature="0"
   style="fill:#ffffff;stroke:none" />
         <path
   d="m 12881,13649 -247,137 -213,143 -181,147 -152,148 -125,149 -99,148 -76,150 -53,142 -33,142 -16,135 -2,130 15,119 26,112 35,102 43,91 49,76 -54,-152 -35,-153 -18,-144 v -145 l 18,-140 35,-137 51,-132 64,-130 81,-127 94,-120 107,-116 119,-115 132,-107 142,-104 155,-99 165,-94 -7,-13 -5,-15 -8,-15 z"
   id="path106"
   inkscape:connector-curvature="0"
   style="fill:#ffffff;stroke:none" />
         <path
   d="m 12850,13591 -257,150 -226,155 -195,157 -165,158 -138,160 -111,158 -89,157 -66,153 -46,147 -26,140 -10,134 5,125 21,117 33,104 43,92 51,76 -54,-155 -33,-153 -12,-152 7,-148 26,-147 43,-145 58,-142 77,-137 91,-135 107,-130 119,-124 132,-122 145,-117 158,-112 165,-107 178,-99 -8,-13 -8,-17 -7,-16 z"
   id="path108"
   inkscape:connector-curvature="0"
   style="fill:#ffffff;stroke:none" />
         <path
   d="m 11750,16041 69,-44 -18,-58 38,48 66,-56 -41,79 84,38 h -89 l 18,61 -38,-53 -36,71 13,-91 z"
   id="path110"
   inkscape:connector-curvature="0"
   style="fill:#ffffff;stroke:none" />
         <path
   d="m 11798,15820 69,-44 -15,-58 35,48 66,-56 -38,77 81,40 h -86 l 18,61 -41,-53 -35,71 12,-92 z"
   id="path112"
   inkscape:connector-curvature="0"
   style="fill:#ffffff;stroke:none" />
         <path
   d="m 12045,15723 56,-38 -13,-48 30,40 56,-48 -33,66 71,33 h -76 l 15,51 -33,-43 -30,58 13,-76 z"
   id="path114"
   inkscape:connector-curvature="0"
   style="fill:#ffffff;stroke:none" />
         <path
   d="m 12037,15924 51,-33 -13,-41 26,33 48,-38 -28,53 61,31 h -64 l 13,43 -28,-38 -28,51 10,-66 z"
   id="path116"
   inkscape:connector-curvature="0"
   style="fill:#ffffff;stroke:none" />
         <path
   d="m 12057,16122 41,-28 -10,-36 23,31 40,-33 -25,46 53,25 h -56 l 11,36 -23,-33 -23,43 10,-56 z"
   id="path118"
   inkscape:connector-curvature="0"
   style="fill:#ffffff;stroke:none" />
         <path
   d="m 12250,16292 36,-23 -10,-30 20,23 33,-28 -20,40 43,21 h -46 l 11,30 -21,-25 -20,35 8,-48 z"
   id="path120"
   inkscape:connector-curvature="0"
   style="fill:#ffffff;stroke:none" />
         <path
   d="m 12286,16496 31,-21 -8,-25 18,23 28,-26 -18,33 38,18 h -38 l 7,28 -17,-23 -16,31 6,-41 z"
   id="path122"
   inkscape:connector-curvature="0"
   style="fill:#ffffff;stroke:none" />
         <path
   d="m 12418,16234 36,-23 -8,-31 18,26 35,-31 -20,41 43,20 h -45 l 10,33 -23,-28 -18,36 8,-48 z"
   id="path124"
   inkscape:connector-curvature="0"
   style="fill:#ffffff;stroke:none" />
         <path
   d="m 12268,16023 41,-28 -10,-36 23,31 40,-33 -25,46 53,25 h -56 l 13,36 -25,-31 -21,43 8,-58 z"
   id="path126"
   inkscape:connector-curvature="0"
   style="fill:#ffffff;stroke:none" />
         <path
   d="m 11631,15832 48,-30 -10,-41 25,33 48,-38 -28,53 59,31 -64,-3 13,46 -28,-38 -25,51 10,-66 z"
   id="path128"
   inkscape:connector-curvature="0"
   style="fill:#ffffff;stroke:none" />
         <path
   d="m 11923,16300 7,-59 -38,-17 43,2 v -61 l 23,56 61,-25 -40,48 40,18 -45,-3 20,51 -43,-48 z"
   id="path130"
   inkscape:connector-curvature="0"
   style="fill:#ffffff;stroke:none" />
         <path
   d="m 12047,16447 36,-23 -8,-28 18,23 36,-28 -23,41 45,20 h -45 l 7,31 -20,-28 -18,38 8,-48 z"
   id="path132"
   inkscape:connector-curvature="0"
   style="fill:#ffffff;stroke:none" />
         <path
   d="m 12497,16366 28,-18 -5,-25 15,20 31,-25 -18,35 35,18 h -38 l 8,25 -18,-22 -15,30 5,-41 z"
   id="path134"
   inkscape:connector-curvature="0"
   style="fill:#ffffff;stroke:none" />
         <path
   d="m 12472,16536 30,-20 -8,-26 18,23 28,-25 -18,36 38,15 h -40 l 7,28 -15,-23 -18,30 8,-40 z"
   id="path136"
   inkscape:connector-curvature="0"
   style="fill:#ffffff;stroke:none" />
         <path
   d="m 12642,16549 30,-20 -7,-26 17,23 28,-25 -17,33 38,17 h -38 l 7,28 -18,-22 -15,30 5,-41 z"
   id="path138"
   inkscape:connector-curvature="0"
   style="fill:#ffffff;stroke:none" />
         <path
   d="m 12891,16468 30,-21 -7,-25 17,20 28,-23 -17,33 38,18 h -38 l 7,28 -18,-25 -15,33 5,-41 z"
   id="path140"
   inkscape:connector-curvature="0"
   style="fill:#ffffff;stroke:none" />
         <path
   d="m 13061,16356 30,-18 -7,-25 15,20 31,-26 -18,36 35,18 h -38 l 8,25 -18,-23 -15,31 5,-41 z"
   id="path142"
   inkscape:connector-curvature="0"
   style="fill:#ffffff;stroke:none" />
         <path
   d="m 12738,16432 31,-20 -8,-26 18,21 28,-23 -18,33 38,18 h -38 l 8,25 -18,-23 -15,33 5,-41 z"
   id="path144"
   inkscape:connector-curvature="0"
   style="fill:#ffffff;stroke:none" />
         <path
   d="m 13185,16468 31,-21 -8,-25 16,20 30,-23 -18,33 36,18 h -38 l 7,28 -17,-25 -16,33 5,-41 z"
   id="path146"
   inkscape:connector-curvature="0"
   style="fill:#ffffff;stroke:none" />
         <path
   d="m 13328,16287 30,-18 -7,-25 17,20 28,-23 -17,33 38,18 h -41 l 10,26 -18,-23 -17,30 7,-40 z"
   id="path148"
   inkscape:connector-curvature="0"
   style="fill:#ffffff;stroke:none" />
         <path
   d="m 13279,16114 31,-20 -8,-25 18,20 28,-23 -18,33 38,18 h -38 l 8,25 -18,-23 -15,31 5,-41 z"
   id="path150"
   inkscape:connector-curvature="0"
   style="fill:#ffffff;stroke:none" />
         <path
   d="m 13551,15972 31,-18 -8,-25 18,20 28,-25 -18,35 38,18 h -38 l 8,26 -18,-23 -15,30 5,-41 z"
   id="path152"
   inkscape:connector-curvature="0"
   style="fill:#ffffff;stroke:none" />
         <path
   d="m 13414,15731 31,-18 -8,-26 15,21 31,-26 -18,36 38,18 h -41 l 8,25 -18,-23 -15,31 8,-41 z"
   id="path154"
   inkscape:connector-curvature="0"
   style="fill:#ffffff;stroke:none" />
         <path
   d="m 13208,13797 216,-107 203,-97 272,-132 -142,-297 -30,-61 -155,76 -211,102 -206,101 -328,158 173,358 z"
   id="path156"
   inkscape:connector-curvature="0"
   style="fill:#ffffff;stroke:none" />
         <path
   d="m 14415,12988 -480,542 -241,-496 z"
   id="path158"
   inkscape:connector-curvature="0"
   style="fill:#ffffff;stroke:none" />
         <path
   d="m 12848,13581 -23,-39 -1639,796 20,38 z"
   id="path160"
   inkscape:connector-curvature="0"
   style="fill:#ffffff;stroke:none" />
         <path
   d="m 13000,13898 -43,249 -97,-150 -244,267 3,-10 10,-28 15,-43 16,-51 17,-53 16,-54 12,-45 8,-39 -432,41 330,-221 -25,-18 -36,-23 -40,-25 -41,-25 -38,-23 -31,-18 -22,-13 -8,-5 325,3 -79,-158 211,84 15,30 23,46 26,51 28,56 28,56 22,51 21,40 z"
   id="path162"
   inkscape:connector-curvature="0"
   style="fill:#ffffff;stroke:none" />
         <path
   d="m 12472,14915 71,-38 -11,-59 34,51 71,-48 -49,73 79,46 -86,-7 12,61 -35,-56 -41,66 21,-89 z"
   id="path164"
   inkscape:connector-curvature="0"
   style="fill:#ffffff;stroke:none" />
         <path
   d="m 12959,13817 -23,142 -53,-86 -137,150 8,-23 15,-51 18,-58 12,-49 -241,23 185,-124 -15,-10 -20,-13 -23,-13 -23,-15 -20,-13 -18,-10 -13,-8 -5,-2 h 183 l -43,-89 117,48 7,18 13,25 15,28 16,33 15,31 13,28 12,23 z"
   id="path166"
   inkscape:connector-curvature="0"
   style="fill:#000000;stroke:none" />
         <path
   d="m 13757,13164 -30,-61 -155,76 -16,53 -17,66 -23,77 -21,79 -22,76 -21,68 -15,56 -13,36 203,-97 13,-40 15,-54 18,-61 21,-63 20,-64 18,-58 15,-51 z"
   id="path168"
   inkscape:connector-curvature="0"
   style="fill:#000000;stroke:none" />
         <path
   d="m 13208,13797 -208,101 13,-45 20,-64 23,-76 25,-82 23,-78 23,-74 18,-59 10,-38 206,-101 -13,43 -18,63 -23,74 -23,79 -22,81 -23,74 -18,58 z"
   id="path170"
   inkscape:connector-curvature="0"
   style="fill:#000000;stroke:none" />
         <path
   d="m 14009,14633 -8,68 -13,105 -20,104 -31,58 -20,10 -20,8 -23,3 -23,-3 -20,-10 -21,-21 -15,-27 -13,-41 3,-15 5,-13 10,-8 13,-5 h 13 l 12,3 11,10 7,13 13,28 18,20 20,5 18,-15 10,-18 10,-23 13,-30 10,-36 13,-41 10,-40 10,-44 z"
   id="path172"
   inkscape:connector-curvature="0"
   style="fill:#ffffff;stroke:none" />
         <path
   d="m 14044,14966 -5,61 -5,99 -10,99 -23,56 -15,7 -16,5 -17,3 -16,-3 -15,-7 -15,-15 -13,-23 -7,-31 5,-20 17,-10 18,2 13,18 10,20 15,16 13,5 15,-13 13,-41 13,-71 12,-84 z"
   id="path174"
   inkscape:connector-curvature="0"
   style="fill:#ffffff;stroke:none" />
         <path
   d="m 13742,14772 -15,21 -28,28 -38,33 -46,33 -48,30 -49,26 -45,18 -39,5 -28,-3 -22,-8 -18,-12 -10,-13 -5,-15 v -18 l 5,-15 10,-15 18,-16 17,-7 h 16 l 15,5 10,10 8,13 5,15 -3,15 23,-2 28,-6 33,-7 36,-10 40,-16 41,-22 43,-31 z"
   id="path176"
   inkscape:connector-curvature="0"
   style="fill:#ffffff;stroke:none" />
         <path
   d="m 13277,14564 23,15 23,13 25,13 25,12 31,11 28,7 33,8 33,5 33,3 38,2 h 36 l 40,-2 38,-6 44,-5 43,-10 43,-10 -20,3 -26,2 -30,3 -33,2 h -36 -38 l -41,-2 -38,-3 -40,-2 -38,-8 -39,-8 -33,-10 -30,-13 -26,-15 -20,-20 -15,-20 -8,-11 -10,-5 -10,-5 h -10 l -8,3 -2,10 2,18 z"
   id="path178"
   inkscape:connector-curvature="0"
   style="fill:#ffffff;stroke:none" />
         <path
   d="m 14042,14643 10,20 12,36 21,43 20,51 20,48 23,41 21,30 17,16 16,2 h 17 l 16,-5 15,-8 13,-12 7,-21 5,-25 -2,-31 -13,-15 -18,-5 -15,8 -8,20 -2,25 -8,18 -12,10 -18,-7 -10,-13 -16,-20 -17,-31 -18,-33 -21,-35 -20,-39 -18,-35 z"
   id="path180"
   inkscape:connector-curvature="0"
   style="fill:#ffffff;stroke:none" />
         <path
   d="m 13973,14488 -13,-23 -20,-36 -23,-45 -28,-49 -28,-45 -30,-38 -28,-31 -23,-13 -23,-2 -20,2 -23,5 -18,13 -18,18 -10,25 -2,33 5,44 17,22 26,3 20,-13 8,-28 2,-30 8,-26 18,-12 23,5 15,12 18,18 23,23 22,28 26,31 25,35 26,36 z"
   id="path182"
   inkscape:connector-curvature="0"
   style="fill:#ffffff;stroke:none" />
         <path
   d="m 13737,14498 -21,-18 -33,-23 -43,-25 -51,-28 -53,-23 -53,-18 -49,-10 h -40 l -28,8 -21,12 -12,16 -8,15 -2,15 2,15 8,16 12,12 21,13 20,5 15,-2 13,-8 10,-10 5,-15 3,-16 -5,-15 23,-2 h 28 l 33,2 38,8 40,10 46,15 48,21 z"
   id="path184"
   inkscape:connector-curvature="0"
   style="fill:#ffffff;stroke:none" />
         <path
   d="m 14070,14468 7,-69 15,-104 21,-104 30,-59 18,-10 23,-8 23,-5 20,5 23,10 18,18 17,31 11,40 -8,26 -20,15 -26,-2 -17,-23 -13,-28 -18,-21 -20,-5 -21,16 -10,17 -10,23 -10,31 -13,35 -10,41 -13,41 -10,43 z"
   id="path186"
   inkscape:connector-curvature="0"
   style="fill:#ffffff;stroke:none" />
         <path
   d="m 13564,15243 8,-59 15,-61 23,-63 30,-66 41,-66 48,-67 56,-68 66,-66 -30,38 -44,53 -45,69 -46,74 -41,76 -30,76 -13,69 5,56 3,25 -10,20 h -16 z"
   id="path188"
   inkscape:connector-curvature="0"
   style="fill:#ffffff;stroke:none" />
         <path
   d="m 13795,15413 v -46 l 5,-46 10,-50 18,-54 23,-56 28,-56 36,-56 43,-58 -21,31 -25,45 -25,56 -28,61 -23,64 -15,61 -6,53 11,41 2,18 -2,17 -13,3 z"
   id="path190"
   inkscape:connector-curvature="0"
   style="fill:#ffffff;stroke:none" />
         <path
   d="m 14092,14656 28,2 31,10 35,16 36,17 38,26 38,25 38,28 38,31 36,30 36,33 33,31 28,30 25,28 20,26 16,22 10,21 7,25 v 13 l -7,2 -10,-5 -13,-12 -15,-13 -11,-13 -7,-7 -5,-6 -8,-12 -13,-15 -15,-21 -20,-23 -23,-25 -23,-28 -28,-31 -30,-30 -33,-31 -36,-28 -36,-27 -38,-28 -38,-23 -43,-21 z"
   id="path192"
   inkscape:connector-curvature="0"
   style="fill:#ffffff;stroke:none" />
         <path
   d="m 14237,14950 28,26 28,40 26,49 25,51 20,53 18,51 10,40 3,28 -5,23 -8,-7 -8,-21 -5,-17 -2,-13 -5,-26 -10,-38 -13,-45 -18,-49 -23,-51 -28,-50 z"
   id="path194"
   inkscape:connector-curvature="0"
   style="fill:#ffffff;stroke:none" />
         <path
   d="m 13521,14241 23,38 28,39 33,35 40,33 49,33 50,31 61,28 64,23 -33,-16 -43,-25 -51,-31 -54,-35 -50,-38 -44,-41 -30,-43 -13,-41 -7,-18 -11,-12 -12,7 z"
   id="path196"
   inkscape:connector-curvature="0"
   style="fill:#ffffff;stroke:none" />
         <path
   d="m 13318,14694 22,12 23,13 26,10 28,8 28,8 30,5 33,5 h 33 33 36 l 38,-5 38,-5 41,-8 40,-10 41,-13 43,-15 -20,5 -26,5 -28,5 -33,5 -38,3 -38,5 -38,2 h -41 -38 l -40,-2 -36,-5 -36,-8 -30,-10 -25,-13 -23,-15 -16,-20 -7,-8 -10,-8 -13,-2 h -8 l -7,5 v 10 l 5,18 z"
   id="path198"
   inkscape:connector-curvature="0"
   style="fill:#ffffff;stroke:none" />
         <path
   d="m 13998,14551 -17,-15 -26,-23 -30,-28 -31,-30 -33,-26 -25,-22 -23,-11 h -10 l 2,11 13,15 23,20 30,23 33,23 33,23 33,23 z"
   id="path200"
   inkscape:connector-curvature="0"
   style="fill:#ffffff;stroke:none" />
         <path
   d="m 13587,14793 -23,-10 -38,-5 -48,-3 h -51 l -54,5 -43,10 -33,16 -18,22 -2,33 10,13 15,-5 13,-20 8,-16 12,-12 21,-10 28,-8 38,-5 43,-3 56,-2 z"
   id="path202"
   inkscape:connector-curvature="0"
   style="fill:#ffffff;stroke:none" />
         <path
   d="m 13965,14612 -20,8 -30,8 -36,7 -38,10 -36,11 -28,12 -20,10 -5,13 8,5 17,-2 26,-8 33,-13 33,-15 35,-15 33,-18 z"
   id="path204"
   inkscape:connector-curvature="0"
   style="fill:#ffffff;stroke:none" />
         <path
   d="m 13986,14633 -16,15 -25,23 -28,25 -30,28 -28,28 -23,26 -13,20 -2,13 h 10 l 15,-11 20,-20 23,-28 26,-30 25,-31 25,-30 z"
   id="path206"
   inkscape:connector-curvature="0"
   style="fill:#ffffff;stroke:none" />
         <path
   d="m 13861,15022 -10,15 -15,25 -21,28 -22,33 -18,31 -13,33 -2,25 10,20 h 12 l 13,-15 13,-25 13,-33 12,-38 10,-38 11,-34 z"
   id="path208"
   inkscape:connector-curvature="0"
   style="fill:#ffffff;stroke:none" />
         <path
   d="m 14003,14915 -7,25 -10,33 -13,41 -15,43 -13,41 -8,35 -2,26 5,12 15,-22 18,-69 18,-86 z"
   id="path210"
   inkscape:connector-curvature="0"
   style="fill:#ffffff;stroke:none" />
         <path
   d="m 14029,14651 -5,60 -8,92 -2,81 10,38 10,-28 3,-73 -3,-89 z"
   id="path212"
   inkscape:connector-curvature="0"
   style="fill:#ffffff;stroke:none" />
         <path
   d="m 14346,14711 23,28 44,36 55,41 61,40 64,36 61,23 48,10 33,-10 13,-18 8,-15 v -13 l -6,-10 -7,-5 -13,-3 -13,3 -12,10 -18,10 -25,5 -31,-5 -36,-15 -48,-23 -56,-30 -66,-44 z"
   id="path214"
   inkscape:connector-curvature="0"
   style="fill:#ffffff;stroke:none" />
         <path
   d="m 14385,14686 20,10 30,18 36,20 36,21 35,20 31,10 20,3 10,-10 -5,-16 -18,-12 -25,-13 -31,-13 -38,-10 -35,-10 -36,-10 z"
   id="path216"
   inkscape:connector-curvature="0"
   style="fill:#ffffff;stroke:none" />
         <path
   d="m 14372,14574 20,-7 38,-16 54,-20 56,-20 53,-23 46,-23 33,-20 7,-16 -15,-5 -30,10 -46,21 -51,25 -53,31 -49,28 -38,23 z"
   id="path218"
   inkscape:connector-curvature="0"
   style="fill:#ffffff;stroke:none" />
         <path
   d="m 14265,14556 20,-10 36,-17 51,-26 53,-28 54,-28 45,-28 28,-23 8,-15 -15,-2 -31,10 -43,25 -48,31 -51,35 -46,33 -38,28 z"
   id="path220"
   inkscape:connector-curvature="0"
   style="fill:#ffffff;stroke:none" />
         <path
   d="m 14049,14569 21,-2 33,-5 35,-6 38,-5 38,-5 31,-7 18,-10 7,-11 -7,-5 h -18 l -28,5 -33,8 -36,10 -35,13 -33,10 z"
   id="path222"
   inkscape:connector-curvature="0"
   style="fill:#ffffff;stroke:none" />
         <path
   d="m 13950,14549 h -10 l -18,-3 -25,-2 -31,-3 -35,-2 -38,-5 -41,-3 -41,-5 -40,-3 -38,-2 h -36 -33 -28 l -20,5 -13,5 -5,8 5,7 13,8 20,5 25,3 31,2 h 33 38 l 38,-2 h 41 l 38,-3 38,-3 36,-2 33,-3 h 28 l 20,-2 z"
   id="path224"
   inkscape:connector-curvature="0"
   style="fill:#ffffff;stroke:none" />
         <path
   d="m 14085,14516 15,-18 23,-23 28,-25 30,-31 26,-28 23,-25 12,-20 v -13 h -10 l -15,10 -20,20 -21,28 -25,33 -26,33 -20,31 z"
   id="path226"
   inkscape:connector-curvature="0"
   style="fill:#ffffff;stroke:none" />
         <path
   d="m 14105,14590 20,10 31,10 35,13 39,15 35,15 31,15 20,13 5,13 -8,5 -20,-5 -25,-10 -31,-18 -35,-18 -36,-20 -33,-21 z"
   id="path228"
   inkscape:connector-curvature="0"
   style="fill:#ffffff;stroke:none" />
         <path
   d="m 14014,14559 v -48 -69 -61 l -11,-25 -7,20 2,56 8,66 z"
   id="path230"
   inkscape:connector-curvature="0"
   style="fill:#ffffff;stroke:none" />
         <path
   d="m 13650,14241 -10,-15 -15,-25 -18,-28 -18,-31 -17,-28 -21,-20 -15,-5 -15,7 -3,16 5,15 16,20 20,18 23,20 25,21 23,18 z"
   id="path232"
   inkscape:connector-curvature="0"
   style="fill:#ffffff;stroke:none" />
         <path
   d="m 14296,14470 12,-10 21,-13 25,-15 25,-15 23,-18 18,-18 8,-15 -3,-18 h -7 l -13,5 -15,15 -18,18 -20,21 -21,22 -20,23 z"
   id="path234"
   inkscape:connector-curvature="0"
   style="fill:#ffffff;stroke:none" />
         <path
   d="m 14097,14955 11,61 12,100 21,99 25,56 15,7 18,8 15,2 18,-2 15,-8 16,-15 10,-20 5,-31 -8,-23 -18,-10 -17,3 -13,17 -8,21 -12,15 -16,3 -15,-11 -18,-43 -17,-71 -21,-81 z"
   id="path236"
   inkscape:connector-curvature="0"
   style="fill:#ffffff;stroke:none" />
         <path
   d="m 14077,15044 v 64 l -5,89 5,81 31,38 12,-5 5,-23 -2,-30 -5,-41 -10,-46 -11,-45 -12,-43 z"
   id="path238"
   inkscape:connector-curvature="0"
   style="fill:#ffffff;stroke:none" />
         <path
   d="m 14303,14300 10,-15 18,-23 23,-28 25,-28 21,-28 18,-26 7,-20 -2,-13 -13,-5 -15,10 -18,23 -18,28 -15,33 -18,33 -13,33 z"
   id="path240"
   inkscape:connector-curvature="0"
   style="fill:#ffffff;stroke:none" />
         <path
   d="m 14090,14124 10,-17 18,-28 20,-31 23,-35 18,-36 12,-33 3,-25 -10,-18 h -13 l -15,18 -13,28 -12,35 -11,38 -12,41 -11,35 z"
   id="path242"
   inkscape:connector-curvature="0"
   style="fill:#ffffff;stroke:none" />
         <path
   d="m 14379,14994 11,15 10,25 15,31 15,33 16,28 15,20 18,8 17,-5 8,-13 -5,-18 -13,-20 -18,-21 -22,-22 -26,-23 -23,-21 z"
   id="path244"
   inkscape:connector-curvature="0"
   style="fill:#ffffff;stroke:none" />
         <path
   d="m 13770,14996 -10,18 -18,30 -23,39 -23,43 -25,43 -18,41 -10,35 v 26 l 7,17 8,18 13,15 12,13 16,8 h 20 l 18,-8 23,-15 7,-20 -7,-21 -16,-15 -20,3 -18,7 h -18 l -12,-10 -5,-20 2,-18 8,-26 13,-30 15,-33 15,-36 15,-38 18,-35 z"
   id="path246"
   inkscape:connector-curvature="0"
   style="fill:#ffffff;stroke:none" />
         <path
   d="m 14303,14595 23,12 36,16 48,12 53,13 56,10 54,5 48,-5 38,-10 25,-15 18,-16 10,-17 5,-16 -2,-17 -5,-16 -10,-12 -16,-10 -22,-8 h -18 l -16,5 -10,13 -7,12 -3,16 3,17 7,13 -23,8 -27,7 -31,5 -38,6 h -41 l -48,-3 -51,-10 z"
   id="path248"
   inkscape:connector-curvature="0"
   style="fill:#ffffff;stroke:none" />
         <path
   d="m 14207,14495 10,-25 23,-36 30,-40 36,-46 40,-43 44,-38 38,-28 38,-15 28,-6 25,3 18,8 13,10 7,15 3,15 -3,16 -5,17 -15,21 -15,12 -15,5 -16,-2 -12,-5 -11,-10 -5,-16 -2,-15 -23,8 -25,12 -31,16 -33,20 -33,25 -36,34 -38,40 z"
   id="path250"
   inkscape:connector-curvature="0"
   style="fill:#ffffff;stroke:none" />
         <path
   d="m 13909,14272 -10,-20 -17,-34 -21,-43 -23,-48 -25,-46 -23,-40 -23,-28 -18,-13 -17,-3 -16,3 -17,5 -13,8 -13,15 -7,20 -3,23 3,33 15,18 18,2 15,-10 5,-23 2,-22 6,-21 12,-7 18,2 13,13 15,20 20,28 21,33 20,36 23,35 20,33 z"
   id="path252"
   inkscape:connector-curvature="0"
   style="fill:#ffffff;stroke:none" />
         <path
   d="m 13960,14262 -2,-64 -8,-102 -2,-101 15,-59 13,-10 15,-7 15,-6 h 18 l 15,6 18,10 13,20 12,28 -2,23 -16,13 h -17 l -16,-13 -12,-20 -16,-13 -15,-3 -12,16 -8,43 -3,73 -2,87 z"
   id="path254"
   inkscape:connector-curvature="0"
   style="fill:#ffffff;stroke:none" />
         <path
   d="m 13909,14201 -7,-18 -13,-26 -15,-30 -15,-31 -13,-30 -8,-28 3,-20 13,-13 20,15 15,54 10,66 z"
   id="path256"
   inkscape:connector-curvature="0"
   style="fill:#ffffff;stroke:none" />
         <path
   d="m 13899,13906 -56,20 3,54 -20,-49 -56,31 40,-56 -53,-56 64,23 -3,-56 20,53 36,-51 -23,74 z"
   id="path258"
   inkscape:connector-curvature="0"
   style="fill:#ffffff;stroke:none" />
         <path
   d="m 14400,14915 -43,18 2,38 -15,-36 -41,23 31,-43 -41,-41 48,18 -2,-43 15,40 28,-38 -20,56 z"
   id="path260"
   inkscape:connector-curvature="0"
   style="fill:#ffffff;stroke:none" />
         <path
   d="m 14077,14218 -43,16 3,40 -16,-38 -43,23 31,-41 -41,-40 48,15 -2,-41 15,41 28,-41 -18,59 z"
   id="path262"
   inkscape:connector-curvature="0"
   style="fill:#ffffff;stroke:none" />
         <path
   d="m 14176,15431 -40,17 v 39 l -13,-36 -43,23 30,-43 -40,-41 48,18 -3,-43 16,40 27,-38 -17,56 z"
   id="path264"
   inkscape:connector-curvature="0"
   style="fill:#ffffff;stroke:none" />
         <path
   d="m 14374,14048 -43,18 3,38 -15,-35 -44,22 31,-43 -41,-40 48,17 -2,-43 15,41 28,-38 -18,56 z"
   id="path266"
   inkscape:connector-curvature="0"
   style="fill:#ffffff;stroke:none" />
         <path
   d="m 13462,14244 -43,15 3,41 -16,-36 -43,23 31,-43 -41,-41 48,15 -2,-40 15,40 28,-38 -18,56 z"
   id="path268"
   inkscape:connector-curvature="0"
   style="fill:#ffffff;stroke:none" />
         <path
   d="m 13404,15062 -43,15 2,41 -15,-35 -43,22 33,-43 -43,-38 48,15 -3,-40 16,38 28,-36 -18,54 z"
   id="path270"
   inkscape:connector-curvature="0"
   style="fill:#ffffff;stroke:none" />
         <path
   d="m 14705,14323 -41,15 v 41 l -13,-36 -43,20 31,-40 -41,-41 48,15 -2,-40 15,40 28,-38 -18,56 z"
   id="path272"
   inkscape:connector-curvature="0"
   style="fill:#ffffff;stroke:none" />
         <path
   d="m 14273,15083 -43,15 2,38 -15,-36 -41,23 31,-43 -41,-41 48,18 -2,-41 15,39 28,-36 -20,53 z"
   id="path274"
   inkscape:connector-curvature="0"
   style="fill:#ffffff;stroke:none" />
         <path
   d="m 14070,14790 7,18 8,28 7,33 13,33 10,31 13,25 13,15 h 15 l 2,-7 -5,-16 -10,-22 -12,-28 -16,-28 -18,-28 -15,-28 z"
   id="path276"
   inkscape:connector-curvature="0"
   style="fill:#ffffff;stroke:none" />
         <path
   d="m 7167,13644 30,-10 38,-23 38,-36 39,-45 30,-56 20,-66 3,-74 -18,-81 26,63 10,66 -3,69 -13,63 -25,59 -36,51 -45,40 -56,28 h -33 l -15,-17 -3,-21 z"
   id="path278"
   inkscape:connector-curvature="0"
   style="fill:#ffffff;stroke:none" />
         <path
   d="m 7210,13715 30,5 h 44 l 53,-10 56,-20 56,-33 48,-48 41,-64 25,-79 -10,69 -26,63 -33,56 -45,49 -51,38 -56,28 -61,10 -61,-3 -30,-15 -5,-23 10,-18 z"
   id="path280"
   inkscape:connector-curvature="0"
   style="fill:#ffffff;stroke:none" />
         <path
   d="m 7091,13603 17,-28 13,-40 8,-54 v -61 l -13,-63 -25,-64 -46,-58 -66,-51 61,33 51,46 40,51 31,58 20,61 5,64 -10,61 -26,56 -12,15 -13,7 h -13 l -10,-2 -7,-8 -8,-7 v -8 z"
   id="path282"
   inkscape:connector-curvature="0"
   style="fill:#ffffff;stroke:none" />
         <path
   d="m 6984,13731 -10,-11 -16,-7 -20,-8 -20,-8 -26,-7 -28,-3 -28,-2 h -30 l -33,2 -31,8 -33,10 -33,13 -30,20 -31,23 -28,28 -25,36 18,-31 18,-28 23,-25 25,-26 25,-20 28,-18 28,-15 31,-13 33,-10 30,-5 31,-3 h 30 l 31,5 30,8 28,13 28,15 20,25 -2,23 -18,13 z"
   id="path284"
   inkscape:connector-curvature="0"
   style="fill:#ffffff;stroke:none" />
         <path
   d="m 7042,13812 -30,5 -41,20 -43,28 -43,41 -38,53 -28,64 -13,71 8,84 -16,-66 -2,-69 10,-66 20,-61 33,-56 44,-46 50,-35 59,-21 33,6 12,17 -2,21 z"
   id="path286"
   inkscape:connector-curvature="0"
   style="fill:#ffffff;stroke:none" />
         <path
   d="m 7121,13835 -13,30 -7,43 v 54 l 7,58 23,61 36,59 53,51 71,40 -63,-25 -56,-36 -48,-46 -39,-53 -28,-58 -15,-59 3,-63 15,-59 23,-25 h 23 l 15,12 z"
   id="path288"
   inkscape:connector-curvature="0"
   style="fill:#ffffff;stroke:none" />
         <path
   d="m 7190,13784 7,30 21,39 33,43 43,40 53,36 64,25 76,8 81,-13 -33,13 -33,8 -33,5 h -36 -33 l -33,-5 -30,-8 -33,-10 -28,-13 -28,-18 -25,-17 -23,-21 -21,-23 -17,-25 -13,-28 -10,-31 v -33 l 18,-15 h 22 z"
   id="path290"
   inkscape:connector-curvature="0"
   style="fill:#ffffff;stroke:none" />
         <path
   d="m 7017,13657 v -31 l -13,-43 -23,-48 -33,-51 -45,-43 -59,-38 -69,-23 -83,-5 68,-5 66,7 64,18 58,33 49,41 38,48 28,56 10,61 -8,33 -20,10 -21,-5 z"
   id="path292"
   inkscape:connector-curvature="0"
   style="fill:#ffffff;stroke:none" />
         <path
   d="m 6610,13405 8,-2 8,-5 2,-5 3,-8 -3,-8 -2,-7 -8,-3 -8,-2 -7,2 -8,3 -2,7 -3,8 3,8 2,5 8,5 z"
   id="path294"
   inkscape:connector-curvature="0"
   style="fill:#ffffff;stroke:none" />
         <path
   d="m 6445,13448 10,-2 5,-5 6,-5 2,-8 -2,-8 -6,-7 -5,-3 -10,-2 -7,2 -6,3 -5,7 -2,8 2,8 5,5 6,5 z"
   id="path296"
   inkscape:connector-curvature="0"
   style="fill:#ffffff;stroke:none" />
         <path
   d="m 6326,13540 7,-3 8,-5 3,-5 2,-7 -2,-11 -3,-5 -8,-5 -7,-2 -8,2 -7,5 -3,5 -3,11 3,7 3,5 7,5 z"
   id="path298"
   inkscape:connector-curvature="0"
   style="fill:#ffffff;stroke:none" />
         <path
   d="m 6232,13626 7,-2 8,-5 3,-5 2,-11 -2,-7 -3,-8 -8,-2 -7,-3 -10,3 -5,2 -6,8 -2,7 2,11 6,5 5,5 z"
   id="path300"
   inkscape:connector-curvature="0"
   style="fill:#ffffff;stroke:none" />
         <path
   d="m 6123,13741 7,-3 8,-2 2,-8 3,-8 -3,-7 -2,-8 -8,-2 -7,-3 -8,3 -5,2 -5,8 -3,7 3,8 5,8 5,2 z"
   id="path302"
   inkscape:connector-curvature="0"
   style="fill:#ffffff;stroke:none" />
         <path
   d="m 6524,13939 8,-3 7,-2 3,-8 2,-7 -2,-8 -3,-8 -7,-2 -8,-3 -8,3 -5,2 -5,8 -2,8 2,7 5,8 5,2 z"
   id="path304"
   inkscape:connector-curvature="0"
   style="fill:#ffffff;stroke:none" />
         <path
   d="m 6468,14086 8,-2 7,-5 3,-5 2,-8 -2,-8 -3,-7 -7,-3 -8,-2 -8,2 -7,3 -3,7 -2,8 2,8 3,5 7,5 z"
   id="path306"
   inkscape:connector-curvature="0"
   style="fill:#ffffff;stroke:none" />
         <path
   d="m 6460,14234 8,-3 8,-5 2,-5 3,-8 -3,-7 -2,-8 -8,-2 -8,-3 -10,3 -5,2 -5,8 -2,7 2,8 5,5 5,5 z"
   id="path308"
   inkscape:connector-curvature="0"
   style="fill:#ffffff;stroke:none" />
         <path
   d="m 6476,14376 7,-3 8,-5 2,-5 3,-7 -3,-8 -2,-8 -8,-2 -7,-3 -8,3 -5,2 -5,8 -3,8 3,7 5,5 5,5 z"
   id="path310"
   inkscape:connector-curvature="0"
   style="fill:#ffffff;stroke:none" />
         <path
   d="m 6516,14521 8,-3 8,-2 2,-8 3,-7 -3,-8 -2,-8 -8,-2 -8,-3 -10,3 -5,2 -5,8 -3,8 3,7 5,8 5,2 z"
   id="path312"
   inkscape:connector-curvature="0"
   style="fill:#ffffff;stroke:none" />
         <path
   d="m 6852,14287 5,-8 v -7 -8 l -5,-7 -8,-5 h -8 -7 l -8,5 -5,7 v 8 l 3,7 5,8 7,5 h 8 5 z"
   id="path314"
   inkscape:connector-curvature="0"
   style="fill:#ffffff;stroke:none" />
         <path
   d="m 6918,14429 5,-7 v -8 -7 l -5,-8 -8,-5 h -7 -8 l -8,5 -5,8 v 7 l 3,8 5,7 7,5 h 8 5 z"
   id="path316"
   inkscape:connector-curvature="0"
   style="fill:#ffffff;stroke:none" />
         <path
   d="m 7017,14536 5,-7 v -8 -5 l -5,-8 -8,-5 h -7 -8 l -8,5 -5,8 v 5 l 3,8 5,7 8,5 7,3 5,-3 z"
   id="path318"
   inkscape:connector-curvature="0"
   style="fill:#ffffff;stroke:none" />
         <path
   d="m 7131,14623 5,-8 v -8 -5 l -5,-7 -7,-5 h -8 -8 l -7,5 -5,7 v 8 7 l 5,8 7,5 h 8 l 8,-2 z"
   id="path320"
   inkscape:connector-curvature="0"
   style="fill:#ffffff;stroke:none" />
         <path
   d="m 7263,14699 5,-8 v -7 -8 l -5,-8 -7,-5 h -8 -8 l -7,5 -5,8 v 8 7 l 5,8 7,5 h 8 8 z"
   id="path322"
   inkscape:connector-curvature="0"
   style="fill:#ffffff;stroke:none" />
         <path
   d="m 7428,14264 -2,-7 -8,-5 -7,-6 h -8 l -8,3 -5,8 -2,7 v 8 l 2,7 5,6 8,2 h 8 l 7,-2 5,-6 5,-7 z"
   id="path324"
   inkscape:connector-curvature="0"
   style="fill:#ffffff;stroke:none" />
         <path
   d="m 7581,14290 -3,-8 -5,-5 -7,-3 h -8 l -8,3 -5,5 -2,8 v 7 l 2,8 5,7 8,3 h 8 l 7,-3 5,-7 3,-5 z"
   id="path326"
   inkscape:connector-curvature="0"
   style="fill:#ffffff;stroke:none" />
         <path
   d="m 7728,14269 -2,-7 -5,-5 -8,-3 h -10 l -8,3 -5,5 -2,7 v 8 l 2,8 5,7 8,3 h 7 l 8,-3 8,-7 2,-6 z"
   id="path328"
   inkscape:connector-curvature="0"
   style="fill:#ffffff;stroke:none" />
         <path
   d="m 7863,14224 -3,-8 -5,-5 -7,-3 h -8 l -8,3 -7,5 -3,8 v 10 l 3,7 7,5 5,3 h 11 l 7,-3 5,-7 3,-5 z"
   id="path330"
   inkscape:connector-curvature="0"
   style="fill:#ffffff;stroke:none" />
         <path
   d="m 8000,14157 -2,-7 -6,-5 -7,-3 h -10 l -8,3 -5,5 -3,7 v 8 l 3,8 5,7 8,3 h 7 l 8,-3 8,-7 2,-5 z"
   id="path332"
   inkscape:connector-curvature="0"
   style="fill:#ffffff;stroke:none" />
         <path
   d="m 7690,13929 -8,-5 h -7 l -8,2 -7,5 -5,8 v 5 l 2,8 5,7 8,5 h 7 5 l 8,-5 5,-7 v -8 -8 z"
   id="path334"
   inkscape:connector-curvature="0"
   style="fill:#ffffff;stroke:none" />
         <path
   d="m 7827,13855 -7,-5 h -5 l -8,3 -8,5 -5,7 v 5 l 3,8 5,8 8,5 h 7 5 l 8,-5 5,-8 v -8 l -3,-7 z"
   id="path336"
   inkscape:connector-curvature="0"
   style="fill:#ffffff;stroke:none" />
         <path
   d="m 7931,13751 -7,-5 h -8 l -7,2 -8,5 -5,8 v 5 l 2,8 6,7 7,5 h 8 7 l 8,-5 5,-7 v -8 l -2,-8 z"
   id="path338"
   inkscape:connector-curvature="0"
   style="fill:#ffffff;stroke:none" />
         <path
   d="m 8013,13631 -8,-5 h -7 l -8,3 -8,5 -5,8 v 7 l 3,8 5,7 7,6 h 8 l 5,-3 8,-5 5,-8 v -7 -8 z"
   id="path340"
   inkscape:connector-curvature="0"
   style="fill:#ffffff;stroke:none" />
         <path
   d="m 8079,13497 -8,-5 h -5 l -8,2 -7,5 -5,8 v 5 8 l 5,7 7,5 h 8 l 8,-2 7,-5 5,-8 v -8 l -2,-5 z"
   id="path342"
   inkscape:connector-curvature="0"
   style="fill:#ffffff;stroke:none" />
         <path
   d="m 7568,13339 -7,3 -6,7 -2,8 2,8 3,7 8,5 7,3 8,-3 7,-2 6,-8 2,-8 -2,-7 -3,-8 -8,-5 -7,-2 z"
   id="path344"
   inkscape:connector-curvature="0"
   style="fill:#ffffff;stroke:none" />
         <path
   d="m 7573,13182 -7,5 -3,5 -2,7 v 11 l 5,7 5,3 7,2 h 8 l 8,-5 5,-5 2,-8 v -10 l -5,-7 -5,-3 -8,-2 z"
   id="path346"
   inkscape:connector-curvature="0"
   style="fill:#ffffff;stroke:none" />
         <path
   d="m 7535,13039 -8,5 -5,5 -2,8 2,10 3,8 8,2 7,3 h 8 l 7,-5 6,-5 2,-8 -2,-7 -3,-8 -8,-5 -7,-3 z"
   id="path348"
   inkscape:connector-curvature="0"
   style="fill:#ffffff;stroke:none" />
         <path
   d="m 7474,12912 -7,3 -6,7 -2,8 2,8 3,7 8,3 7,2 h 8 l 7,-2 3,-8 3,-7 v -8 l -3,-8 -8,-5 -7,-2 z"
   id="path350"
   inkscape:connector-curvature="0"
   style="fill:#ffffff;stroke:none" />
         <path
   d="m 7390,12785 -7,3 -5,7 -3,8 3,8 2,7 8,5 7,3 8,-3 8,-2 5,-8 2,-8 -2,-7 -3,-8 -7,-5 -8,-2 z"
   id="path352"
   inkscape:connector-curvature="0"
   style="fill:#ffffff;stroke:none" />
         <path
   d="m 7273,13141 -5,8 v 7 l 5,8 6,7 7,3 h 8 l 5,-3 7,-5 6,-7 v -8 l -3,-8 -5,-5 -8,-5 h -7 l -8,3 z"
   id="path354"
   inkscape:connector-curvature="0"
   style="fill:#ffffff;stroke:none" />
         <path
   d="m 7192,13009 -5,7 v 5 l 3,8 5,8 7,5 h 8 l 8,-5 7,-5 3,-8 v -8 l -3,-5 -5,-7 -8,-5 h -7 l -8,5 z"
   id="path356"
   inkscape:connector-curvature="0"
   style="fill:#ffffff;stroke:none" />
         <path
   d="m 7080,12912 -5,8 v 7 l 3,8 5,5 8,5 h 7 l 8,-2 7,-5 5,-8 v -8 l -5,-7 -5,-8 -7,-2 h -5 l -8,2 z"
   id="path358"
   inkscape:connector-curvature="0"
   style="fill:#ffffff;stroke:none" />
         <path
   d="m 6956,12838 -3,8 v 8 l 3,7 5,8 8,3 h 7 l 8,-3 5,-5 5,-8 v -7 l -3,-8 -5,-5 -7,-5 h -8 l -8,2 z"
   id="path360"
   inkscape:connector-curvature="0"
   style="fill:#ffffff;stroke:none" />
         <path
   d="m 6816,12780 -5,8 v 7 l 5,8 5,8 8,2 h 7 l 6,-2 7,-6 5,-7 v -8 l -2,-5 -5,-8 -8,-5 h -8 l -7,3 z"
   id="path362"
   inkscape:connector-curvature="0"
   style="fill:#ffffff;stroke:none" />
         <path
   d="m 6877,13151 3,8 5,5 5,5 7,2 8,-2 8,-5 2,-5 3,-8 -3,-8 -2,-7 -8,-3 -8,-2 -7,2 -5,3 -5,7 z"
   id="path364"
   inkscape:connector-curvature="0"
   style="fill:#ffffff;stroke:none" />
         <path
   d="m 6730,13095 2,8 5,5 5,5 11,3 7,-3 8,-5 2,-5 3,-8 -3,-7 -5,-8 -5,-3 -10,-2 -8,2 -5,3 -5,8 z"
   id="path366"
   inkscape:connector-curvature="0"
   style="fill:#ffffff;stroke:none" />
         <path
   d="m 6585,13088 2,7 3,5 8,5 7,3 8,-3 8,-5 2,-5 3,-10 -3,-8 -2,-7 -8,-3 -8,-2 -7,2 -8,5 -3,5 z"
   id="path368"
   inkscape:connector-curvature="0"
   style="fill:#ffffff;stroke:none" />
         <path
   d="m 6443,13103 2,10 3,5 7,5 8,3 8,-3 7,-5 3,-5 2,-10 -2,-8 -3,-7 -7,-3 -8,-3 -8,3 -7,3 -3,7 z"
   id="path370"
   inkscape:connector-curvature="0"
   style="fill:#ffffff;stroke:none" />
         <path
   d="m 6295,13143 3,8 5,5 5,5 8,3 7,-3 8,-5 2,-5 3,-8 -3,-7 -2,-8 -8,-2 -7,-3 -8,3 -5,2 -5,8 z"
   id="path372"
   inkscape:connector-curvature="0"
   style="fill:#ffffff;stroke:none" />
         <path
   d="m 14423,16773 30,-11 38,-22 38,-36 39,-46 30,-56 20,-66 3,-73 -18,-82 25,64 11,66 v 66 l -16,63 -22,59 -39,51 -45,40 -56,28 -33,3 -15,-18 -3,-20 z"
   id="path374"
   inkscape:connector-curvature="0"
   style="fill:#ffffff;stroke:none" />
         <path
   d="m 14466,16844 30,5 h 44 l 53,-10 56,-21 56,-33 48,-48 41,-64 25,-78 -10,68 -26,64 -33,56 -45,48 -51,38 -56,28 -61,10 -61,-2 -30,-16 -6,-22 11,-18 z"
   id="path376"
   inkscape:connector-curvature="0"
   style="fill:#ffffff;stroke:none" />
         <path
   d="m 14346,16729 18,-28 13,-40 8,-54 v -58 l -13,-64 -26,-63 -45,-59 -66,-50 61,33 50,45 41,51 31,59 20,61 5,63 -10,61 -26,56 -12,15 -13,8 h -13 l -10,-3 -7,-7 -8,-8 v -10 z"
   id="path378"
   inkscape:connector-curvature="0"
   style="fill:#ffffff;stroke:none" />
         <path
   d="m 14240,16859 -10,-10 -16,-8 -20,-7 -20,-8 -26,-8 -28,-5 -28,-2 h -30 l -33,5 -31,5 -33,10 -33,15 -30,18 -31,25 -28,28 -25,36 18,-30 18,-28 22,-26 26,-25 25,-21 28,-17 28,-16 31,-12 33,-11 30,-5 31,-2 h 30 l 31,5 30,8 28,12 28,16 20,25 -2,23 -18,13 z"
   id="path380"
   inkscape:connector-curvature="0"
   style="fill:#ffffff;stroke:none" />
         <path
   d="m 14148,16950 13,-10 13,-10 15,-10 15,-10 15,-5 16,-8 15,-5 18,-5 33,2 12,18 -2,21 -13,10 h -7 l -11,2 -12,5 -16,5 z"
   id="path382"
   inkscape:connector-curvature="0"
   style="fill:#ffffff;stroke:none" />
         <path
   d="m 14316,16950 23,-25 h 23 l 15,13 v 15 z"
   id="path384"
   inkscape:connector-curvature="0"
   style="fill:#ffffff;stroke:none" />
         <path
   d="m 14395,16953 v -33 l 18,-18 22,-2 11,12 v 8 l 2,10 5,13 5,10 z"
   id="path386"
   inkscape:connector-curvature="0"
   style="fill:#ffffff;stroke:none" />
         <path
   d="m 14273,16785 v -30 l -13,-43 -23,-49 -33,-51 -46,-45 -58,-36 -69,-25 -83,-5 68,-5 66,7 64,21 58,30 48,41 39,48 28,56 10,61 -8,33 -20,10 -21,-2 z"
   id="path388"
   inkscape:connector-curvature="0"
   style="fill:#ffffff;stroke:none" />
         <path
   d="m 13866,16534 8,-3 8,-5 2,-5 3,-8 -3,-7 -2,-8 -8,-2 -8,-3 -7,3 -5,2 -5,8 -3,7 3,8 5,5 5,5 z"
   id="path390"
   inkscape:connector-curvature="0"
   style="fill:#ffffff;stroke:none" />
         <path
   d="m 13704,16577 7,-3 8,-5 2,-5 3,-7 -3,-11 -2,-5 -8,-5 -7,-2 -10,2 -6,5 -5,5 -2,11 2,7 5,5 6,5 z"
   id="path392"
   inkscape:connector-curvature="0"
   style="fill:#ffffff;stroke:none" />
         <path
   d="m 13582,16666 7,-3 8,-2 3,-8 2,-8 -2,-7 -3,-8 -8,-2 -7,-3 -8,3 -5,2 -5,8 -3,7 3,8 5,8 5,2 z"
   id="path394"
   inkscape:connector-curvature="0"
   style="fill:#ffffff;stroke:none" />
         <path
   d="m 13488,16752 7,-2 8,-3 3,-7 2,-8 -2,-8 -3,-7 -8,-3 -7,-2 -8,2 -7,3 -3,7 -3,8 3,8 3,7 7,3 z"
   id="path396"
   inkscape:connector-curvature="0"
   style="fill:#ffffff;stroke:none" />
         <path
   d="m 13379,16869 7,-2 8,-5 2,-6 3,-7 -3,-8 -2,-7 -8,-3 -7,-3 -8,3 -5,3 -5,7 -3,8 3,7 5,6 5,5 z"
   id="path398"
   inkscape:connector-curvature="0"
   style="fill:#ffffff;stroke:none" />
         <path
   d="m 14824,16468 -8,2 -5,8 -2,7 2,8 3,8 8,2 7,3 h 8 l 7,-3 6,-7 2,-8 -2,-8 -3,-7 -8,-5 -7,-3 z"
   id="path400"
   inkscape:connector-curvature="0"
   style="fill:#ffffff;stroke:none" />
         <path
   d="m 14829,16310 -7,3 -3,7 -3,8 v 7 l 6,8 5,5 7,3 10,-3 8,-2 3,-8 2,-8 v -7 l -5,-8 -5,-5 -8,-3 z"
   id="path402"
   inkscape:connector-curvature="0"
   style="fill:#ffffff;stroke:none" />
         <path
   d="m 14791,16168 -8,5 -2,5 -3,8 v 7 l 3,8 8,5 7,2 h 8 l 7,-5 5,-5 3,-7 -3,-11 -2,-7 -8,-3 -7,-2 z"
   id="path404"
   inkscape:connector-curvature="0"
   style="fill:#ffffff;stroke:none" />
         <path
   d="m 14730,16038 -8,5 -5,5 -2,8 2,10 3,8 8,2 7,3 h 8 l 7,-5 6,-5 2,-8 -2,-10 -3,-8 -8,-2 -7,-3 z"
   id="path406"
   inkscape:connector-curvature="0"
   style="fill:#ffffff;stroke:none" />
         <path
   d="m 14646,15911 -7,5 -5,8 -3,7 3,8 2,8 8,2 7,3 h 8 l 8,-5 5,-5 2,-8 -2,-8 -3,-7 -7,-5 -8,-3 z"
   id="path408"
   inkscape:connector-curvature="0"
   style="fill:#ffffff;stroke:none" />
         <path
   d="m 14529,16269 -5,8 v 8 l 5,7 5,5 8,5 h 8 l 5,-2 7,-5 6,-8 v -7 l -3,-8 -5,-8 -8,-2 h -7 l -8,2 z"
   id="path410"
   inkscape:connector-curvature="0"
   style="fill:#ffffff;stroke:none" />
         <path
   d="m 14448,16135 -5,7 v 8 l 3,8 5,7 7,3 h 8 l 7,-3 8,-5 3,-8 v -7 l -3,-8 -5,-5 -8,-5 h -7 l -8,3 z"
   id="path412"
   inkscape:connector-curvature="0"
   style="fill:#ffffff;stroke:none" />
         <path
   d="m 14336,16041 -5,7 v 5 l 5,8 5,8 8,5 h 8 l 5,-5 7,-5 5,-8 v -8 l -5,-5 -5,-7 -7,-6 h -5 l -8,6 z"
   id="path414"
   inkscape:connector-curvature="0"
   style="fill:#ffffff;stroke:none" />
         <path
   d="m 14212,15967 -3,8 v 7 l 3,8 5,5 8,5 h 7 l 8,-3 5,-5 5,-7 v -8 l -3,-8 -5,-7 -7,-3 h -8 l -8,3 z"
   id="path416"
   inkscape:connector-curvature="0"
   style="fill:#ffffff;stroke:none" />
         <path
   d="m 14072,15908 -2,8 v 8 l 2,7 5,5 8,6 h 7 l 5,-3 8,-5 5,-8 v -7 l -2,-8 -5,-5 -8,-5 h -8 l -7,2 z"
   id="path418"
   inkscape:connector-curvature="0"
   style="fill:#ffffff;stroke:none" />
         <path
   d="m 14133,16277 3,10 5,5 5,5 7,3 8,-3 8,-5 2,-5 3,-10 -3,-8 -2,-7 -8,-3 -8,-2 -7,2 -5,3 -5,7 z"
   id="path420"
   inkscape:connector-curvature="0"
   style="fill:#ffffff;stroke:none" />
         <path
   d="m 13986,16221 2,10 5,5 5,5 11,3 7,-3 8,-5 2,-5 3,-10 -3,-8 -2,-7 -8,-3 -7,-2 -11,2 -5,3 -5,7 z"
   id="path422"
   inkscape:connector-curvature="0"
   style="fill:#ffffff;stroke:none" />
         <path
   d="m 13841,16213 2,8 3,8 8,2 7,3 8,-3 7,-2 3,-8 3,-8 -3,-7 -3,-8 -7,-2 -8,-3 -7,3 -8,2 -3,8 z"
   id="path424"
   inkscape:connector-curvature="0"
   style="fill:#ffffff;stroke:none" />
         <path
   d="m 13699,16231 2,8 3,7 7,3 8,3 8,-3 7,-3 3,-7 2,-8 -2,-7 -3,-8 -7,-3 -8,-2 -8,2 -7,3 -3,8 z"
   id="path426"
   inkscape:connector-curvature="0"
   style="fill:#ffffff;stroke:none" />
         <path
   d="m 13551,16272 3,8 5,5 5,5 8,2 7,-2 8,-5 2,-5 3,-8 -3,-10 -2,-5 -8,-5 -7,-3 -8,3 -5,5 -5,5 z"
   id="path428"
   inkscape:connector-curvature="0"
   style="fill:#ffffff;stroke:none" />
         <path
   d="m 7822,16732 74,-38 -13,-59 33,49 71,-46 -48,71 81,48 -89,-10 13,64 -35,-56 -41,66 20,-89 z"
   id="path430"
   inkscape:connector-curvature="0"
   style="fill:#ffffff;stroke:none" />
         <path
   d="m 6128,14958 71,-38 -10,-59 30,51 71,-48 -46,74 79,45 -89,-7 13,58 -33,-53 -43,63 23,-86 z"
   id="path432"
   inkscape:connector-curvature="0"
   style="fill:#ffffff;stroke:none" />
         <path
   d="m 7657,15347 447,-686 -137,-87 z"
   id="path434"
   inkscape:connector-curvature="0"
   style="fill:#ffffff;stroke:none" />
         <path
   d="m 7657,15797 274,706 -119,18 z"
   id="path436"
   inkscape:connector-curvature="0"
   style="fill:#ffffff;stroke:none" />
         <path
   d="m 7312,15037 -138,-290 -122,120 z"
   id="path438"
   inkscape:connector-curvature="0"
   style="fill:#ffffff;stroke:none" />
         <path
   d="m 7657,14902 -140,-361 140,-35 z"
   id="path440"
   inkscape:connector-curvature="0"
   style="fill:#ffffff;stroke:none" />
         <path
   d="m 7449,16193 -361,104 102,120 z"
   id="path442"
   inkscape:connector-curvature="0"
   style="fill:#ffffff;stroke:none" />
         <path
   d="m 8208,16262 414,137 -139,104 z"
   id="path444"
   inkscape:connector-curvature="0"
   style="fill:#ffffff;stroke:none" />
         <path
   d="m 6953,15083 -104,160 160,-23 82,-10 -117,160 -41,56 15,-8 38,-18 56,-25 64,-31 63,-30 56,-26 41,-20 18,-10 -3,2 -10,16 -20,23 -23,30 -26,33 -28,33 -25,31 -20,28 -11,12 -7,10 -5,6 -3,2 h 8 23 33 38 38 36 l 27,-2 13,-3 h 3 l -3,5 -2,10 -8,13 -8,15 -10,21 -7,17 -13,21 -10,23 -10,17 -11,21 -7,15 -8,13 -5,10 -5,7 v 3 h 3 l 10,5 15,3 18,5 23,7 25,8 25,5 26,8 20,5 20,5 18,5 15,5 16,5 10,3 8,2 h 2 l -8,8 -25,15 -41,25 -45,28 -51,31 -43,25 -36,21 -20,10 v 2 h 18 27 l 36,-5 36,-2 33,-5 23,-3 h 10 l -895,417 h -25 l -28,-15 -36,-31 -38,-46 -43,-58 -40,-66 -44,-76 -40,-84 -38,-87 -31,-81 -25,-76 -16,-66 -10,-59 -2,-48 7,-33 16,-18 z"
   id="path446"
   inkscape:connector-curvature="0"
   style="fill:#ffffff;stroke:none" />
         <path
   d="m 8407,15022 -191,17 117,107 63,59 -190,12 -76,5 15,8 38,18 56,25 63,28 64,31 56,25 43,18 18,7 h -5 l -18,3 h -31 -35 l -43,3 h -44 l -38,2 h -35 -18 -13 -7 -3 l 5,8 15,17 21,23 25,31 26,28 25,28 18,18 10,10 v 2 l -5,3 -10,5 -16,2 -17,5 -21,3 -23,5 -22,5 -23,5 -21,5 -22,5 -18,3 -13,3 -10,2 -8,3 h -2 l 5,12 15,33 20,44 23,48 18,38 15,33 10,23 6,10 -11,-3 -30,-7 -46,-15 -51,-18 -53,-18 -51,-18 -38,-15 -20,-8 -3,3 10,13 21,20 25,25 28,26 23,20 18,18 7,5 740,346 647,302 -15,-18 -7,-33 v -48 l 10,-59 15,-66 25,-76 31,-81 38,-87 41,-83 43,-77 43,-68 41,-56 38,-46 35,-30 31,-16 h 23 l -648,-302 z"
   id="path448"
   inkscape:connector-curvature="0"
   style="fill:#ffffff;stroke:none" />
         <path
   d="m 9435,16524 h 26 l 30,-16 33,-30 41,-43 41,-56 40,-69 44,-76 40,-84 38,-86 31,-82 25,-74 15,-68 11,-59 v -45 l -8,-33 -15,-18 h -26 l -28,15 -35,31 -38,43 -43,56 -41,68 -43,77 -41,83 -38,87 -31,81 -25,74 -15,68 -10,59 v 46 l 7,33 z"
   id="path450"
   inkscape:connector-curvature="0"
   style="fill:#ffffff;stroke:none" />
         <path
   d="m 9435,16524 16,30 10,30 -3,26 -20,23 48,-3 38,-5 31,-13 23,-17 18,-21 12,-23 10,-25 8,-25 13,40 10,49 2,40 -15,28 38,3 31,-3 25,-10 23,-13 18,-17 15,-18 13,-21 10,-20 20,46 18,46 3,40 -13,23 30,-10 26,-15 23,-18 17,-18 11,-23 7,-23 v -25 l -5,-28 18,8 20,7 21,13 20,13 15,20 10,20 3,26 -8,30 18,-23 18,-25 13,-28 10,-33 5,-31 -3,-30 -5,-28 -15,-25 25,10 26,12 25,16 26,15 20,18 18,18 12,20 5,23 13,-41 5,-38 -2,-38 -11,-38 -17,-31 -23,-25 -28,-21 -31,-10 31,-2 28,-3 28,-5 25,-5 26,-2 h 22 l 21,2 20,8 -20,-36 -23,-30 -25,-26 -26,-25 -25,-18 -23,-15 -23,-10 -20,-5 15,-11 18,-12 23,-13 25,-10 25,-10 28,-11 31,-5 28,-5 -23,-20 -28,-18 -31,-18 -30,-15 -33,-13 -31,-7 -33,-5 -30,2 20,-15 15,-15 13,-16 15,-15 16,-12 15,-11 23,-10 28,-5 -28,-13 -28,-12 -28,-13 -28,-8 -28,-7 -25,-3 -26,3 -23,7 8,-12 8,-16 7,-17 10,-21 11,-17 12,-16 13,-10 15,-2 -33,-13 -33,-8 h -28 l -28,3 -23,10 -20,18 -18,23 -12,30 -6,-46 3,-68 13,-59 28,-23 h -13 l -18,3 -23,8 -20,7 -23,13 -20,10 -18,10 -15,8 2,-38 18,-33 25,-26 39,-23 43,-15 51,-7 58,-3 61,8 -30,2 -28,13 -26,23 -23,25 -17,31 -13,28 -5,22 v 18 l 18,-28 30,-20 41,-13 45,-7 54,2 53,8 56,10 53,18 -28,-3 -28,8 -25,18 -25,20 -21,25 -17,28 -13,23 -10,21 30,-23 41,-5 51,10 53,18 56,25 56,33 48,33 38,31 -41,-16 -38,-5 -35,3 -33,7 -31,13 -28,13 -25,18 -23,15 43,-3 49,13 48,25 48,36 43,41 38,43 31,41 23,35 -31,-20 -35,-13 -44,-5 -43,3 -40,5 -38,10 -28,10 -18,10 46,20 40,33 33,46 31,51 20,51 15,53 3,46 -5,38 -10,-25 -21,-23 -28,-23 -35,-20 -38,-16 -39,-15 -38,-8 -33,-2 28,15 23,28 13,41 5,51 -3,58 -10,61 -20,64 -28,61 3,-31 -8,-30 -15,-33 -18,-33 -26,-28 -25,-28 -25,-21 -26,-15 10,28 v 38 l -10,46 -18,46 -22,48 -26,43 -23,36 -23,25 11,-33 v -36 l -8,-33 -13,-33 -17,-28 -18,-22 -18,-18 -18,-10 v 28 l -13,33 -25,30 -30,33 -39,28 -40,26 -38,20 -36,13 20,-31 16,-53 2,-61 -12,-54 -16,21 -25,23 -31,22 -35,18 -38,18 -41,13 -43,5 -41,-3 15,-12 18,-18 18,-23 18,-26 15,-25 13,-28 7,-23 -2,-20 -15,25 -28,21 -36,12 -43,10 -46,3 -48,-3 -48,-12 -44,-18 h 26 l 25,-8 26,-15 25,-23 20,-25 18,-28 13,-28 z"
   id="path452"
   inkscape:connector-curvature="0"
   style="fill:#ffffff;stroke:none" />
         <path
   d="m 9435,16524 h 26 l 30,-16 33,-30 41,-43 41,-56 40,-69 44,-76 40,-84 38,-86 31,-82 25,-74 15,-68 11,-59 v -45 l -8,-33 -15,-18 7,5 h 8 l 5,2 8,6 15,17 8,33 -3,46 -8,59 -17,68 -23,74 -31,81 -38,87 -41,83 -43,77 -43,68 -41,56 -38,43 -35,31 -31,15 h -23 z"
   id="path454"
   inkscape:connector-curvature="0"
   style="fill:#000000;stroke:none" />
         <path
   d="m 7312,15504 -1090,506 -51,-109 958,-447 -11,12 -7,10 -5,6 -3,2 h 8 23 33 38 38 36 l 27,-2 13,-3 h 3 v 5 l -5,8 z"
   id="path456"
   inkscape:connector-curvature="0"
   style="fill:#000000;stroke:none" />
         <path
   d="m 7360,15731 -1022,475 -17,-23 -16,-25 -17,-26 -16,-28 961,-447 -8,13 -5,10 -5,7 v 3 h 3 l 10,2 15,6 18,5 23,5 25,7 25,8 z"
   id="path458"
   inkscape:connector-curvature="0"
   style="fill:#000000;stroke:none" />
         <path
   d="m 6974,15367 -857,399 -10,-30 -7,-31 -8,-28 -8,-28 928,-432 79,-7 z"
   id="path460"
   inkscape:connector-curvature="0"
   style="fill:#000000;stroke:none" />
         <path
   d="m 8193,15390 5,8 15,17 21,23 25,31 26,28 25,28 18,18 10,10 v 2 l -5,3 -8,2 -12,3 553,257 51,-112 -681,-315 h -15 l -13,-3 h -10 z"
   id="path462"
   inkscape:connector-curvature="0"
   style="fill:#000000;stroke:none" />
         <path
   d="m 8170,15746 618,287 7,-28 10,-28 11,-28 10,-30 -684,-318 -15,3 -10,2 -8,3 h -2 l 5,12 15,31 20,46 z"
   id="path464"
   inkscape:connector-curvature="0"
   style="fill:#000000;stroke:none" />
         <path
   d="m 8206,15217 777,364 18,-28 18,-26 15,-23 18,-22 -722,-336 66,59 z"
   id="path466"
   inkscape:connector-curvature="0"
   style="fill:#000000;stroke:none" />
         <path
   d="m 9827,15682 h -23 l -31,16 -35,30 -38,46 -41,56 -43,68 -43,77 -41,83 -38,87 -31,81 -25,76 -15,66 -10,59 v 48 l 7,33 15,18 -645,-302 -15,-18 -8,-33 3,-46 10,-58 18,-69 25,-74 31,-81 38,-86 40,-84 41,-77 43,-66 41,-58 36,-46 35,-30 31,-16 h 22 z"
   id="path468"
   inkscape:connector-curvature="0"
   style="fill:#000000;stroke:none" />
         <path
   d="m 9639,16079 h 38 l 43,12 43,23 46,31 43,38 43,43 36,48 33,51 2,23 -7,15 -18,3 -20,-18 -16,-20 -20,-31 -30,-38 -36,-38 -43,-33 -48,-30 -56,-18 -59,-5 -15,-5 v -21 l 13,-20 z"
   id="path470"
   inkscape:connector-curvature="0"
   style="fill:#000000;stroke:none" />
         <path
   d="m 9776,16122 25,18 28,23 26,23 25,25 23,25 23,31 20,28 18,30 2,23 -7,15 -18,3 -20,-18 -13,-18 -15,-20 -18,-23 -18,-23 -23,-23 -23,-22 -27,-23 -28,-23 7,-13 3,-13 5,-12 z"
   id="path472"
   inkscape:connector-curvature="0"
   style="fill:#ffffff;stroke:none" />
         <path
   d="m 9334,15881 -33,-89 -104,-5 40,94 z"
   id="path474"
   inkscape:connector-curvature="0"
   style="fill:#ffffff;stroke:none" />
         <path
   d="m 9405,16036 -33,-89 -104,-5 40,94 z"
   id="path476"
   inkscape:connector-curvature="0"
   style="fill:#ffffff;stroke:none" />
         <path
   d="m 9255,16036 -33,-89 -102,-5 41,94 z"
   id="path478"
   inkscape:connector-curvature="0"
   style="fill:#ffffff;stroke:none" />
         <path
   d="m 9179,15886 -33,-89 -104,-5 40,96 z"
   id="path480"
   inkscape:connector-curvature="0"
   style="fill:#ffffff;stroke:none" />
         <path
   d="m 9481,15616 -33,-89 -104,-5 41,97 z"
   id="path482"
   inkscape:connector-curvature="0"
   style="fill:#ffffff;stroke:none" />
         <path
   d="m 9552,15771 -33,-89 -104,-2 41,94 z"
   id="path484"
   inkscape:connector-curvature="0"
   style="fill:#ffffff;stroke:none" />
         <path
   d="m 9402,15771 -33,-89 -101,-2 40,94 z"
   id="path486"
   inkscape:connector-curvature="0"
   style="fill:#ffffff;stroke:none" />
         <path
   d="m 9324,15631 -33,-88 -102,-3 41,94 z"
   id="path488"
   inkscape:connector-curvature="0"
   style="fill:#ffffff;stroke:none" />
         <path
   d="m 9204,16155 -33,-89 -101,-2 40,94 z"
   id="path490"
   inkscape:connector-curvature="0"
   style="fill:#ffffff;stroke:none" />
         <path
   d="m 9275,16310 -33,-89 -101,-2 40,94 z"
   id="path492"
   inkscape:connector-curvature="0"
   style="fill:#ffffff;stroke:none" />
         <path
   d="m 9126,16310 -33,-89 -102,-2 41,94 z"
   id="path494"
   inkscape:connector-curvature="0"
   style="fill:#ffffff;stroke:none" />
         <path
   d="m 9049,16163 -33,-89 -101,-5 38,94 z"
   id="path496"
   inkscape:connector-curvature="0"
   style="fill:#ffffff;stroke:none" />
        </g>
       </g>
      </g>
     </g>
    </g>
   </g>
  </g>
 </g>
</svg>