<?xml version="1.0" encoding="UTF-8" standalone="no"?>
<svg
   xmlns:ooo="http://xml.openoffice.org/svg/export"
   xmlns:dc="http://purl.org/dc/elements/1.1/"
   xmlns:cc="http://creativecommons.org/ns#"
   xmlns:rdf="http://www.w3.org/1999/02/22-rdf-syntax-ns#"
   xmlns:svg="http://www.w3.org/2000/svg"
   xmlns="http://www.w3.org/2000/svg"
   xmlns:sodipodi="http://sodipodi.sourceforge.net/DTD/sodipodi-0.dtd"
   xmlns:inkscape="http://www.inkscape.org/namespaces/inkscape"
   version="1.2"
   width="46.279999mm"
   height="46.079998mm"
   viewBox="0 0 4627.9999 4607.9998"
   preserveAspectRatio="xMidYMid"
   xml:space="preserve"
   id="svg248"
   sodipodi:docname="firewrk6.svg"
   style="fill-rule:evenodd;stroke-width:28.22200012;stroke-linejoin:round"
   inkscape:version="0.92.5 (2060ec1f9f, 2020-04-08)"><metadata
   id="metadata252"><rdf:RDF><cc:Work
       rdf:about=""><dc:format>image/svg+xml</dc:format><dc:type
         rdf:resource="http://purl.org/dc/dcmitype/StillImage" /></cc:Work></rdf:RDF></metadata><sodipodi:namedview
   pagecolor="#ffffff"
   bordercolor="#666666"
   borderopacity="1"
   objecttolerance="10"
   gridtolerance="10"
   guidetolerance="10"
   inkscape:pageopacity="0"
   inkscape:pageshadow="2"
   inkscape:window-width="664"
   inkscape:window-height="487"
   id="namedview250"
   showgrid="false"
   inkscape:zoom="0.2102413"
   inkscape:cx="87.458269"
   inkscape:cy="87.080313"
   inkscape:window-x="0"
   inkscape:window-y="0"
   inkscape:window-maximized="0"
   inkscape:current-layer="svg248" />
 <defs
   class="ClipPathGroup"
   id="defs8">
  <clipPath
   id="presentation_clip_path"
   clipPathUnits="userSpaceOnUse">
   <rect
   x="0"
   y="0"
   width="21000"
   height="29700"
   id="rect2" />
  </clipPath>
  <clipPath
   id="presentation_clip_path_shrink"
   clipPathUnits="userSpaceOnUse">
   <rect
   x="21"
   y="29"
   width="20958"
   height="29641"
   id="rect5" />
  </clipPath>
 </defs>
 <defs
   class="TextShapeIndex"
   id="defs12">
  <g
   ooo:slide="id1"
   ooo:id-list="id3"
   id="g10" />
 </defs>
 <defs
   class="EmbeddedBulletChars"
   id="defs44">
  <g
   id="bullet-char-template-57356"
   transform="matrix(4.8828125e-4,0,0,-4.8828125e-4,0,0)">
   <path
   d="M 580,1141 1163,571 580,0 -4,571 Z"
   id="path14"
   inkscape:connector-curvature="0" />
  </g>
  <g
   id="bullet-char-template-57354"
   transform="matrix(4.8828125e-4,0,0,-4.8828125e-4,0,0)">
   <path
   d="M 8,1128 H 1137 V 0 H 8 Z"
   id="path17"
   inkscape:connector-curvature="0" />
  </g>
  <g
   id="bullet-char-template-10146"
   transform="matrix(4.8828125e-4,0,0,-4.8828125e-4,0,0)">
   <path
   d="M 174,0 602,739 174,1481 1456,739 Z M 1358,739 309,1346 659,739 Z"
   id="path20"
   inkscape:connector-curvature="0" />
  </g>
  <g
   id="bullet-char-template-10132"
   transform="matrix(4.8828125e-4,0,0,-4.8828125e-4,0,0)">
   <path
   d="M 2015,739 1276,0 H 717 l 543,543 H 174 v 393 h 1086 l -543,545 h 557 z"
   id="path23"
   inkscape:connector-curvature="0" />
  </g>
  <g
   id="bullet-char-template-10007"
   transform="matrix(4.8828125e-4,0,0,-4.8828125e-4,0,0)">
   <path
   d="m 0,-2 c -7,16 -16,29 -25,39 l 381,530 c -94,256 -141,385 -141,387 0,25 13,38 40,38 9,0 21,-2 34,-5 21,4 42,12 65,25 l 27,-13 111,-251 280,301 64,-25 24,25 c 21,-10 41,-24 62,-43 C 886,937 835,863 770,784 769,783 710,716 594,584 L 774,223 c 0,-27 -21,-55 -63,-84 l 16,-20 C 717,90 699,76 672,76 641,76 570,178 457,381 L 164,-76 c -22,-34 -53,-51 -92,-51 -42,0 -63,17 -64,51 -7,9 -10,24 -10,44 0,9 1,19 2,30 z"
   id="path26"
   inkscape:connector-curvature="0" />
  </g>
  <g
   id="bullet-char-template-10004"
   transform="matrix(4.8828125e-4,0,0,-4.8828125e-4,0,0)">
   <path
   d="M 285,-33 C 182,-33 111,30 74,156 52,228 41,333 41,471 c 0,78 14,145 41,201 34,71 87,106 158,106 53,0 88,-31 106,-94 l 23,-176 c 8,-64 28,-97 59,-98 l 735,706 c 11,11 33,17 66,17 42,0 63,-15 63,-46 V 965 c 0,-36 -10,-64 -30,-84 L 442,47 C 390,-6 338,-33 285,-33 Z"
   id="path29"
   inkscape:connector-curvature="0" />
  </g>
  <g
   id="bullet-char-template-9679"
   transform="matrix(4.8828125e-4,0,0,-4.8828125e-4,0,0)">
   <path
   d="M 813,0 C 632,0 489,54 383,161 276,268 223,411 223,592 c 0,181 53,324 160,431 106,107 249,161 430,161 179,0 323,-54 432,-161 108,-107 162,-251 162,-431 0,-180 -54,-324 -162,-431 C 1136,54 992,0 813,0 Z"
   id="path32"
   inkscape:connector-curvature="0" />
  </g>
  <g
   id="bullet-char-template-8226"
   transform="matrix(4.8828125e-4,0,0,-4.8828125e-4,0,0)">
   <path
   d="m 346,457 c -73,0 -137,26 -191,78 -54,51 -81,114 -81,188 0,73 27,136 81,188 54,52 118,78 191,78 73,0 134,-26 185,-79 51,-51 77,-114 77,-187 0,-75 -25,-137 -76,-188 -50,-52 -112,-78 -186,-78 z"
   id="path35"
   inkscape:connector-curvature="0" />
  </g>
  <g
   id="bullet-char-template-8211"
   transform="matrix(4.8828125e-4,0,0,-4.8828125e-4,0,0)">
   <path
   d="M -4,459 H 1135 V 606 H -4 Z"
   id="path38"
   inkscape:connector-curvature="0" />
  </g>
  <g
   id="bullet-char-template-61548"
   transform="matrix(4.8828125e-4,0,0,-4.8828125e-4,0,0)">
   <path
   d="m 173,740 c 0,163 58,303 173,419 116,115 255,173 419,173 163,0 302,-58 418,-173 116,-116 174,-256 174,-419 0,-163 -58,-303 -174,-418 C 1067,206 928,148 765,148 601,148 462,206 346,322 231,437 173,577 173,740 Z"
   id="path41"
   inkscape:connector-curvature="0" />
  </g>
 </defs>
 <g
   id="g49"
   transform="translate(-8186,-12546)">
  <g
   id="id2"
   class="Master_Slide">
   <g
   id="bg-id2"
   class="Background" />
   <g
   id="bo-id2"
   class="BackgroundObjects" />
  </g>
 </g>
 <g
   class="SlideGroup"
   id="g246"
   transform="translate(-8186,-12546)">
  <g
   id="g244">
   <g
   id="container-id1">
    <g
   id="id1"
   class="Slide"
   clip-path="url(#presentation_clip_path)">
     <g
   class="Page"
   id="g240">
      <g
   class="Graphic"
   id="g238">
       <g
   id="id3">
        <rect
   class="BoundingBox"
   x="8186"
   y="12546"
   width="4628"
   height="4608"
   id="rect51"
   style="fill:none;stroke:none" />
        <path
   d="m 10354,13166 -15,-43 -23,-59 -31,-66 -33,-71 -33,-68 -28,-61 -20,-49 -10,-28 -8,-45 v -36 l 10,-25 13,-13 h 18 l 18,13 17,28 16,45 15,59 15,66 15,68 16,69 15,69 13,58 10,51 z"
   id="path53"
   inkscape:connector-curvature="0"
   style="fill:#a589ff;stroke:none" />
        <path
   d="m 10151,16338 -28,51 -28,89 -26,114 -20,125 -10,124 2,112 16,89 38,51 35,15 26,5 20,-5 10,-12 3,-18 -3,-21 -15,-20 -20,-18 -31,-28 -20,-38 -10,-56 -3,-71 5,-89 13,-109 20,-132 z"
   id="path55"
   inkscape:connector-curvature="0"
   style="fill:#a589ff;stroke:none" />
        <path
   d="m 9985,15637 -17,35 -26,51 -33,61 -33,61 -30,61 -23,53 -10,39 7,20 15,-5 21,-28 20,-43 23,-59 25,-63 23,-66 21,-64 z"
   id="path57"
   inkscape:connector-curvature="0"
   style="fill:#a589ff;stroke:none" />
        <path
   d="m 9993,13298 25,8 23,5 21,-3 17,-5 16,-10 12,-10 11,-13 5,-15 40,36 49,76 50,102 51,119 48,122 41,112 33,96 21,64 -16,-64 -20,-91 -25,-104 -26,-115 -28,-111 -23,-102 -20,-84 -13,-58 -30,-72 -46,-43 -58,-23 h -56 l -54,21 -40,38 -18,53 z"
   id="path59"
   inkscape:connector-curvature="0"
   style="fill:#a589ff;stroke:none" />
        <path
   d="m 11322,13024 8,58 2,64 -2,63 -8,69 -10,69 -15,73 -21,74 -22,76 -31,82 -33,78 -38,84 -46,84 -48,87 -56,86 -59,89 -66,89 26,-43 30,-54 36,-63 38,-74 41,-79 38,-86 38,-89 38,-89 33,-92 28,-91 23,-86 15,-82 5,-79 -2,-68 -13,-61 -25,-49 -11,-22 -2,-28 2,-26 8,-20 15,-13 23,3 28,20 z"
   id="path61"
   inkscape:connector-curvature="0"
   style="fill:#a589ff;stroke:none" />
        <path
   d="m 9785,14755 -61,-33 -74,-26 -84,-20 -91,-15 -102,-13 -104,-5 -107,-3 h -109 l -107,5 -102,8 -99,13 -89,12 -81,16 -69,17 -56,21 -40,20 -46,36 -13,23 10,12 31,5 38,-2 41,-5 38,-8 25,-5 15,-5 31,-8 41,-12 53,-13 61,-15 71,-16 81,-15 87,-13 91,-10 97,-10 102,-2 h 104 l 104,5 104,12 107,21 z"
   id="path63"
   inkscape:connector-curvature="0"
   style="fill:#a589ff;stroke:none" />
        <path
   d="m 12494,16059 -33,-51 -38,-49 -44,-48 -48,-48 -53,-48 -59,-46 -63,-43 -69,-44 -71,-43 -79,-40 -84,-36 -86,-38 -94,-33 -97,-31 -104,-30 -107,-26 46,16 59,22 68,26 76,33 82,36 84,38 86,43 86,48 84,48 79,51 74,51 63,56 56,53 41,54 28,56 13,53 7,23 15,23 18,20 23,10 h 18 l 15,-15 10,-36 z"
   id="path65"
   inkscape:connector-curvature="0"
   style="fill:#a589ff;stroke:none" />
        <path
   d="m 11642,16778 -7,-59 -10,-61 -18,-63 -21,-64 -27,-66 -31,-68 -36,-69 -40,-69 -49,-71 -50,-71 -56,-71 -64,-71 -66,-74 -74,-71 -78,-74 -84,-71 35,36 41,45 48,56 54,61 56,69 58,74 58,78 56,79 51,84 49,81 40,79 36,76 23,74 12,69 v 61 l -12,53 -5,25 5,26 7,25 16,21 17,7 21,-7 23,-28 z"
   id="path67"
   inkscape:connector-curvature="0"
   style="fill:#a589ff;stroke:none" />
        <path
   d="m 10387,15565 -59,135 -35,178 -18,206 -2,216 12,208 26,189 33,149 40,97 36,46 23,13 13,-13 5,-28 -3,-38 -5,-41 -8,-38 -5,-25 -12,-46 -26,-94 -30,-135 -28,-165 -21,-191 -2,-206 18,-208 z"
   id="path69"
   inkscape:connector-curvature="0"
   style="fill:#a589ff;stroke:none" />
        <path
   d="m 12651,14251 -56,-12 -58,-10 -58,-8 -59,-3 h -58 l -64,5 -61,8 -66,10 -69,18 -68,20 -74,28 -76,33 -82,39 -83,43 -87,51 -94,55 43,-20 51,-25 61,-26 66,-28 71,-28 77,-28 78,-25 82,-23 79,-18 78,-15 77,-10 73,-3 66,3 61,13 54,20 46,30 22,13 26,5 28,-2 23,-5 12,-16 v -22 l -20,-28 z"
   id="path71"
   inkscape:connector-curvature="0"
   style="fill:#a589ff;stroke:none" />
        <path
   d="m 10496,13375 -2,-51 -13,-87 -18,-109 -20,-119 -15,-122 -8,-107 5,-84 23,-46 33,-20 38,-18 41,-10 h 40 l 41,10 36,25 33,41 25,59 -2,22 -8,21 -18,15 -20,10 -23,5 -23,-5 -20,-10 -16,-18 -12,-23 -13,-17 -18,-16 -18,-10 -17,-5 -18,3 -18,10 -15,18 -10,38 v 61 l 5,81 7,92 11,99 7,96 5,92 z"
   id="path73"
   inkscape:connector-curvature="0"
   style="fill:#a589ff;stroke:none" />
        <path
   d="m 10603,15787 13,38 15,56 15,63 20,69 21,66 18,53 20,36 18,10 7,-15 -5,-33 -15,-49 -23,-55 -25,-64 -28,-64 -28,-58 z"
   id="path75"
   inkscape:connector-curvature="0"
   style="fill:#a589ff;stroke:none" />
        <path
   d="m 11170,16074 15,51 28,96 35,130 44,142 43,137 43,117 41,82 30,23 10,-36 -17,-81 -39,-112 -50,-130 -59,-135 -53,-122 -43,-99 z"
   id="path77"
   inkscape:connector-curvature="0"
   style="fill:#a589ff;stroke:none" />
        <path
   d="m 10865,15687 17,36 26,51 28,61 30,63 31,61 28,51 25,31 21,7 5,-15 -11,-33 -22,-43 -31,-53 -38,-59 -38,-56 -38,-56 z"
   id="path79"
   inkscape:connector-curvature="0"
   style="fill:#a589ff;stroke:none" />
        <path
   d="m 11437,15959 10,16 17,30 26,38 28,49 33,56 35,58 39,64 38,63 40,61 39,61 38,53 35,49 31,38 25,28 23,15 h 15 l 5,-13 -5,-25 -15,-33 -23,-41 -30,-46 -36,-53 -41,-53 -43,-59 -43,-56 -46,-58 -43,-53 -41,-51 -38,-46 -33,-38 -23,-31 z"
   id="path81"
   inkscape:connector-curvature="0"
   style="fill:#a589ff;stroke:none" />
        <path
   d="m 11276,15423 16,13 25,20 38,28 43,36 49,40 53,44 59,45 58,46 58,46 59,43 53,38 49,33 43,26 35,15 23,8 15,-6 v -15 l -12,-20 -26,-26 -35,-30 -43,-33 -54,-36 -56,-38 -61,-38 -61,-38 -61,-38 -61,-36 -56,-35 -50,-31 -41,-25 -36,-21 z"
   id="path83"
   inkscape:connector-curvature="0"
   style="fill:#a589ff;stroke:none" />
        <path
   d="m 11996,15080 20,13 33,12 41,16 48,12 53,16 59,12 61,11 63,7 64,8 61,5 h 58 l 54,-3 48,-5 41,-12 30,-16 20,-20 18,-36 3,-25 -5,-20 -13,-11 -18,-2 -20,2 -20,16 -18,20 -13,15 -13,13 -20,13 -20,7 -26,8 -28,5 -33,3 h -38 l -43,-3 -46,-3 -53,-5 -59,-7 -63,-8 -69,-13 -76,-12 z"
   id="path85"
   inkscape:connector-curvature="0"
   style="fill:#a589ff;stroke:none" />
        <path
   d="m 11769,15306 18,8 28,18 41,20 48,28 56,30 61,36 66,36 66,33 64,35 63,33 61,28 54,23 45,18 39,10 27,3 13,-8 -2,-15 -16,-18 -30,-20 -41,-23 -51,-26 -56,-25 -63,-28 -66,-28 -66,-28 -69,-25 -63,-26 -61,-25 -56,-21 -46,-17 -38,-16 z"
   id="path87"
   inkscape:connector-curvature="0"
   style="fill:#a589ff;stroke:none" />
        <path
   d="m 12001,14684 23,7 35,5 41,3 51,2 56,-2 58,-3 64,-5 63,-7 64,-11 58,-10 59,-15 50,-15 44,-21 35,-20 26,-23 15,-25 7,-38 -2,-28 -10,-16 -15,-10 -18,3 -18,10 -15,18 -13,25 -8,18 -10,18 -15,15 -18,13 -23,15 -28,10 -30,13 -36,7 -43,11 -46,10 -51,7 -58,8 -64,8 -68,7 -76,8 z"
   id="path89"
   inkscape:connector-curvature="0"
   style="fill:#a589ff;stroke:none" />
        <path
   d="m 11673,14915 18,2 33,8 45,13 54,12 63,16 66,17 72,18 73,15 71,18 69,13 66,13 59,10 48,5 h 41 l 25,-5 10,-10 -5,-13 -20,-13 -36,-12 -43,-13 -56,-13 -61,-10 -66,-10 -71,-10 -74,-8 -71,-10 -69,-8 -66,-5 -58,-7 -48,-6 -41,-5 z"
   id="path91"
   inkscape:connector-curvature="0"
   style="fill:#a589ff;stroke:none" />
        <path
   d="m 11833,14521 h 20 l 33,-3 h 46 56 l 64,-2 h 71 l 71,-3 h 76 l 74,-5 71,-2 66,-5 59,-8 48,-8 38,-7 25,-13 8,-13 -8,-12 -25,-8 -36,-3 h -45 l -56,3 -64,5 -68,8 -72,10 -71,10 -71,10 -71,10 -64,10 -58,8 -48,8 -41,7 z"
   id="path93"
   inkscape:connector-curvature="0"
   style="fill:#a589ff;stroke:none" />
        <path
   d="m 11698,13845 21,-13 25,-23 31,-30 33,-38 35,-44 36,-48 38,-51 33,-53 33,-54 30,-53 26,-53 20,-51 15,-46 6,-41 v -33 l -11,-28 -25,-30 -23,-15 -18,-3 -18,8 -10,13 -5,20 3,25 12,26 16,35 2,46 -12,53 -28,66 -41,79 -59,94 -73,112 z"
   id="path95"
   inkscape:connector-curvature="0"
   style="fill:#a589ff;stroke:none" />
        <path
   d="m 11757,14231 15,-10 30,-18 41,-23 48,-25 56,-31 61,-33 64,-35 66,-38 64,-36 61,-38 55,-36 49,-33 40,-28 28,-28 18,-20 v -15 l -13,-8 -25,5 -33,13 -41,23 -48,28 -53,35 -56,38 -59,41 -61,43 -58,41 -56,43 -51,38 -48,36 -41,30 -30,26 z"
   id="path97"
   inkscape:connector-curvature="0"
   style="fill:#a589ff;stroke:none" />
        <path
   d="m 11187,14063 11,-15 20,-28 25,-38 33,-43 39,-51 43,-56 40,-61 46,-61 41,-58 40,-59 36,-56 31,-51 25,-43 15,-35 5,-26 -5,-15 h -15 l -20,13 -26,28 -28,35 -30,48 -36,51 -33,59 -38,63 -36,64 -35,63 -33,61 -31,56 -28,54 -22,43 -21,35 z"
   id="path99"
   inkscape:connector-curvature="0"
   style="fill:#a589ff;stroke:none" />
        <path
   d="m 11302,13578 40,-43 49,-79 53,-102 54,-114 43,-120 25,-109 8,-89 -23,-58 -28,-26 -25,-10 h -21 l -15,10 -8,16 v 20 l 8,25 15,23 21,33 10,43 -3,56 -15,69 -28,84 -41,104 -53,122 z"
   id="path101"
   inkscape:connector-curvature="0"
   style="fill:#a589ff;stroke:none" />
        <path
   d="m 10682,13186 40,-35 54,-59 58,-73 56,-84 48,-87 31,-81 10,-71 -20,-51 -28,-25 -23,-13 -18,-3 -13,8 -7,15 v 23 l 2,23 10,28 6,33 -6,41 -17,48 -28,56 -33,66 -38,71 -41,82 z"
   id="path103"
   inkscape:connector-curvature="0"
   style="fill:#a589ff;stroke:none" />
        <path
   d="m 10895,13880 18,-50 36,-97 45,-125 49,-139 45,-138 33,-122 16,-86 -13,-38 -31,23 -33,76 -33,114 -33,135 -33,142 -28,133 -23,106 z"
   id="path105"
   inkscape:connector-curvature="0"
   style="fill:#a589ff;stroke:none" />
        <path
   d="m 10036,13059 -7,-38 -8,-58 -10,-66 -8,-71 -13,-67 -12,-55 -13,-39 -18,-12 -10,12 v 36 l 10,48 15,59 18,66 21,66 17,63 z"
   id="path107"
   inkscape:connector-curvature="0"
   style="fill:#a589ff;stroke:none" />
        <path
   d="m 9462,13715 -5,-23 -13,-33 -18,-38 -25,-43 -28,-48 -33,-51 -36,-51 -38,-51 -38,-51 -41,-45 -40,-44 -41,-35 -38,-28 -36,-23 -33,-10 h -30 l -36,12 -23,18 -7,18 v 18 l 10,15 18,10 23,5 27,-2 21,-3 h 20 l 20,5 21,8 23,15 23,15 25,23 28,26 28,30 30,38 33,41 36,46 38,51 43,56 44,61 z"
   id="path109"
   inkscape:connector-curvature="0"
   style="fill:#a589ff;stroke:none" />
        <path
   d="m 9820,13530 -15,-51 -28,-97 -36,-129 -43,-143 -43,-137 -43,-117 -41,-79 -30,-25 -11,35 18,82 38,112 51,129 59,135 53,122 43,99 z"
   id="path111"
   inkscape:connector-curvature="0"
   style="fill:#a589ff;stroke:none" />
        <path
   d="m 9223,14005 -10,-23 -21,-28 -28,-30 -35,-39 -41,-38 -43,-38 -48,-40 -51,-41 -51,-36 -51,-35 -51,-31 -45,-25 -46,-18 -41,-10 -33,-3 -28,8 -33,23 -18,20 -5,20 5,16 16,12 20,5 h 23 l 28,-10 18,-7 20,-5 h 20 l 23,2 26,8 28,10 27,15 34,18 35,23 41,25 40,31 46,35 51,41 56,43 58,49 z"
   id="path113"
   inkscape:connector-curvature="0"
   style="fill:#a589ff;stroke:none" />
        <path
   d="m 9421,13438 -20,-35 -26,-51 -30,-61 -31,-64 -30,-58 -31,-51 -25,-31 -20,-7 -5,15 12,33 23,43 33,54 38,56 38,55 41,56 z"
   id="path115"
   inkscape:connector-curvature="0"
   style="fill:#a589ff;stroke:none" />
        <path
   d="m 9022,14437 -18,-18 -25,-23 -36,-23 -43,-25 -48,-28 -54,-25 -58,-28 -58,-26 -59,-23 -58,-20 -56,-15 -54,-10 -48,-8 h -41 l -33,8 -25,15 -25,28 -11,25 v 21 l 8,15 18,7 h 20 l 23,-7 23,-15 15,-13 18,-8 20,-7 23,-3 h 28 l 28,3 33,5 36,10 40,13 46,15 48,18 54,23 58,25 66,28 69,30 z"
   id="path117"
   inkscape:connector-curvature="0"
   style="fill:#a589ff;stroke:none" />
        <path
   d="m 9299,14162 -15,-10 -28,-20 -38,-25 -46,-33 -51,-39 -56,-40 -61,-43 -61,-44 -61,-40 -58,-41 -56,-36 -51,-28 -43,-22 -36,-16 -25,-5 -15,5 v 16 l 12,20 28,23 39,28 45,30 54,33 58,36 61,35 64,36 63,33 64,33 56,31 53,28 46,22 33,21 z"
   id="path119"
   inkscape:connector-curvature="0"
   style="fill:#a589ff;stroke:none" />
        <path
   d="m 9225,13771 -25,-30 -30,-49 -39,-56 -40,-58 -38,-56 -38,-43 -28,-28 -21,-5 -2,15 15,30 28,41 41,48 45,51 46,51 46,48 z"
   id="path121"
   inkscape:connector-curvature="0"
   style="fill:#a589ff;stroke:none" />
        <path
   d="m 8994,14549 -23,-10 -33,-11 -40,-10 -49,-10 -56,-7 -61,-6 -61,-5 -63,-2 h -64 l -63,2 -59,3 -53,10 -46,10 -38,15 -30,18 -18,23 -13,36 -2,28 7,20 15,10 18,3 18,-8 20,-15 16,-23 10,-18 15,-15 15,-13 21,-10 25,-10 28,-8 33,-5 38,-5 41,-2 48,-3 h 53 l 59,3 63,2 69,3 76,5 z"
   id="path123"
   inkscape:connector-curvature="0"
   style="fill:#a589ff;stroke:none" />
        <path
   d="m 9228,15182 -25,-5 -41,-3 -51,3 -61,5 -71,10 -74,13 -79,15 -81,18 -79,20 -78,23 -72,23 -66,25 -56,26 -43,27 -33,26 -15,28 -8,38 3,28 10,15 15,8 h 18 l 20,-10 16,-18 12,-26 10,-20 16,-20 23,-21 30,-20 36,-23 43,-20 48,-23 54,-20 55,-21 64,-17 69,-21 71,-15 73,-15 79,-13 84,-13 z"
   id="path125"
   inkscape:connector-curvature="0"
   style="fill:#a589ff;stroke:none" />
        <path
   d="m 9101,14851 -20,3 h -33 l -46,2 h -56 -64 l -71,3 -71,2 -76,3 -74,3 -71,5 -66,5 -59,5 -48,10 -38,8 -23,12 -8,13 8,13 26,7 35,3 h 46 l 56,-3 63,-7 66,-8 72,-8 73,-10 71,-12 69,-11 64,-10 58,-10 51,-8 38,-7 z"
   id="path127"
   inkscape:connector-curvature="0"
   style="fill:#a589ff;stroke:none" />
        <path
   d="m 9020,15319 -26,2 -33,8 -38,15 -48,18 -49,26 -53,25 -56,30 -53,34 -54,35 -50,36 -49,35 -38,36 -35,35 -23,33 -16,34 -2,27 8,39 15,22 15,13 h 18 l 18,-7 12,-18 8,-23 v -28 -20 l 3,-21 7,-20 10,-20 16,-21 20,-20 23,-23 30,-25 33,-26 38,-25 46,-31 48,-30 56,-31 59,-35 68,-38 z"
   id="path129"
   inkscape:connector-curvature="0"
   style="fill:#a589ff;stroke:none" />
        <path
   d="m 9279,15545 -15,13 -26,20 -38,28 -46,33 -51,36 -55,43 -59,43 -61,43 -58,46 -56,43 -51,44 -43,38 -38,35 -23,28 -16,23 3,15 15,5 23,-7 31,-18 38,-25 45,-36 46,-41 54,-45 50,-49 54,-48 53,-51 48,-48 49,-46 40,-41 39,-35 27,-28 z"
   id="path131"
   inkscape:connector-curvature="0"
   style="fill:#a589ff;stroke:none" />
        <path
   d="m 9447,16005 -21,13 -28,18 -33,30 -35,33 -38,41 -41,46 -41,45 -38,51 -38,51 -33,51 -31,51 -25,48 -18,46 -10,38 -2,35 7,28 20,31 23,18 18,5 18,-5 13,-13 5,-20 v -23 l -10,-28 -13,-38 2,-43 18,-54 33,-63 49,-74 63,-89 84,-107 z"
   id="path133"
   inkscape:connector-curvature="0"
   style="fill:#a589ff;stroke:none" />
        <path
   d="m 9795,16140 -16,51 -35,94 -43,127 -49,140 -45,137 -33,122 -13,86 10,38 31,-22 30,-77 36,-114 33,-135 30,-142 28,-132 20,-107 z"
   id="path135"
   inkscape:connector-curvature="0"
   style="fill:#a589ff;stroke:none" />
        <path
   d="m 12344,14783 18,-3 h 22 26 30 33 36 l 36,-2 h 35 36 l 33,-3 30,-3 26,-2 23,-5 17,-5 11,-8 2,-7 -2,-8 -11,-3 -15,-2 -18,-3 -23,3 h -27 l -28,5 -33,2 -34,6 -33,5 -35,5 -33,7 -33,5 -33,5 -28,6 z"
   id="path137"
   inkscape:connector-curvature="0"
   style="fill:#a589ff;stroke:none" />
        <path
   d="m 12077,13845 25,-31 41,-40 48,-49 49,-51 45,-48 36,-46 20,-35 v -20 h -15 l -28,22 -33,36 -38,48 -41,56 -40,56 -36,56 z"
   id="path139"
   inkscape:connector-curvature="0"
   style="fill:#a589ff;stroke:none" />
        <path
   d="m 10659,16727 7,38 6,59 7,66 10,71 8,68 13,56 12,39 18,12 10,-12 v -36 l -7,-48 -13,-61 -18,-66 -18,-67 -20,-63 z"
   id="path141"
   inkscape:connector-curvature="0"
   style="fill:#a589ff;stroke:none" />
        <path
   d="m 12034,15985 25,30 36,46 38,56 43,56 43,53 38,44 31,27 20,3 3,-18 -18,-28 -30,-40 -41,-46 -48,-48 -51,-49 -49,-45 z"
   id="path143"
   inkscape:connector-curvature="0"
   style="fill:#a589ff;stroke:none" />
        <path
   d="m 10600,14447 21,-33 33,-48 38,-56 38,-61 38,-56 28,-51 13,-38 -3,-20 -18,5 -20,25 -28,41 -28,56 -30,61 -31,63 -25,59 z"
   id="path145"
   inkscape:connector-curvature="0"
   style="fill:#7c56ff;stroke:none" />
        <path
   d="m 10494,14381 10,-97 18,-139 7,-125 -18,-56 -20,43 -5,112 3,138 z"
   id="path147"
   inkscape:connector-curvature="0"
   style="fill:#7c56ff;stroke:none" />
        <path
   d="m 11020,13283 -26,8 -23,5 -20,-3 -18,-5 -15,-10 -10,-10 -10,-13 -8,-15 -43,35 -48,74 -51,102 -51,117 -51,119 -43,115 -33,94 -23,63 15,-63 23,-89 26,-107 28,-112 27,-112 26,-101 20,-84 15,-59 31,-68 48,-44 59,-22 58,2 54,20 38,39 17,55 z"
   id="path149"
   inkscape:connector-curvature="0"
   style="fill:#7c56ff;stroke:none" />
        <path
   d="m 12415,15398 -46,-41 -48,-38 -53,-36 -61,-33 -64,-33 -66,-28 -74,-28 -76,-23 -81,-22 -87,-18 -89,-15 -94,-13 -99,-8 -101,-5 -107,-2 -112,2 48,3 64,5 71,10 81,10 89,13 92,18 94,20 96,20 94,26 89,30 84,31 76,35 69,38 56,44 41,45 25,49 13,20 20,18 23,12 23,6 18,-6 10,-17 v -36 z"
   id="path151"
   inkscape:connector-curvature="0"
   style="fill:#7c56ff;stroke:none" />
        <path
   d="m 9912,15283 -66,21 -69,33 -76,45 -77,56 -78,61 -79,72 -76,73 -77,77 -71,78 -68,79 -61,76 -54,74 -45,69 -39,61 -25,53 -13,43 -7,59 7,25 h 18 l 23,-18 25,-28 26,-33 23,-30 12,-23 8,-15 15,-26 21,-38 28,-46 33,-55 40,-61 46,-67 53,-71 56,-73 64,-74 68,-74 74,-74 79,-71 81,-63 89,-61 z"
   id="path153"
   inkscape:connector-curvature="0"
   style="fill:#7c56ff;stroke:none" />
        <path
   d="m 10519,15573 5,59 v 114 147 168 l 3,165 10,145 18,109 28,54 35,18 38,12 41,5 41,-5 38,-15 35,-28 26,-46 20,-61 -5,-22 -10,-21 -21,-13 -20,-7 h -23 l -23,5 -17,13 -13,20 -10,23 -13,20 -15,18 -18,13 -18,5 h -18 l -17,-8 -18,-15 -15,-46 -11,-89 -7,-117 -5,-137 -8,-142 -8,-138 -10,-116 z"
   id="path155"
   inkscape:connector-curvature="0"
   style="fill:#7c56ff;stroke:none" />
        <path
   d="m 10895,15182 15,12 21,13 30,15 33,18 38,18 41,18 46,18 48,17 48,18 49,13 48,15 48,10 43,8 44,2 38,3 35,-5 51,-15 38,-18 26,-23 15,-23 3,-25 -6,-26 -15,-20 -20,-20 -38,-21 -33,-5 -31,5 -25,13 -18,18 -10,23 v 22 l 7,23 -20,3 -23,2 h -25 l -28,3 h -28 l -33,-3 h -33 l -36,-5 -35,-5 -41,-5 -41,-10 -40,-10 -46,-15 -43,-16 -49,-17 z"
   id="path157"
   inkscape:connector-curvature="0"
   style="fill:#7c56ff;stroke:none" />
        <path
   d="m 12069,13616 -20,56 -25,58 -31,59 -33,58 -41,59 -45,58 -51,59 -56,58 -61,59 -66,58 -71,56 -77,58 -81,54 -86,56 -94,53 -97,51 41,-28 53,-33 59,-43 66,-49 71,-55 71,-59 74,-63 71,-67 71,-68 64,-69 58,-68 51,-69 38,-66 28,-64 15,-58 -2,-56 2,-25 8,-26 15,-23 18,-15 18,-3 17,11 16,33 z"
   id="path159"
   inkscape:connector-curvature="0"
   style="fill:#7c56ff;stroke:none" />
        <path
   d="m 9777,14582 -69,-3 -76,-12 -84,-23 -91,-31 -92,-40 -94,-46 -96,-48 -94,-56 -89,-56 -87,-56 -81,-59 -71,-56 -64,-53 -51,-48 -38,-43 -25,-39 -23,-53 v -25 l 18,-5 25,10 33,20 33,23 31,25 18,18 12,13 21,20 30,31 41,38 48,43 53,48 64,51 69,53 76,56 81,54 84,53 91,51 95,46 99,40 99,33 z"
   id="path161"
   inkscape:connector-curvature="0"
   style="fill:#7c56ff;stroke:none" />
        <path
   d="m 11818,13336 -13,59 -15,61 -21,61 -27,61 -31,63 -36,67 -40,66 -49,63 -50,69 -56,66 -64,66 -66,69 -74,66 -78,66 -84,66 -89,66 38,-33 46,-43 51,-51 58,-56 61,-66 63,-69 64,-71 61,-76 61,-76 53,-79 46,-77 41,-73 30,-71 18,-66 5,-61 -10,-56 -3,-26 6,-25 12,-26 16,-17 17,-8 21,10 17,28 z"
   id="path163"
   inkscape:connector-curvature="0"
   style="fill:#7c56ff;stroke:none" />
        <path
   d="m 10092,14218 -58,-35 -61,-51 -61,-61 -61,-71 -59,-82 -61,-86 -56,-91 -53,-94 -51,-95 -46,-91 -40,-92 -36,-83 -28,-77 -20,-68 -13,-59 -2,-45 7,-56 13,-23 18,2 17,23 21,33 15,38 13,36 7,25 5,16 8,30 10,41 16,53 20,61 23,69 28,76 33,81 38,87 43,86 48,89 54,89 58,89 64,84 71,79 z"
   id="path165"
   inkscape:connector-curvature="0"
   style="fill:#7c56ff;stroke:none" />
        <path
   d="m 10186,14160 -48,-51 -43,-63 -44,-74 -40,-87 -38,-91 -36,-99 -33,-104 -28,-105 -23,-104 -20,-101 -18,-97 -10,-89 -8,-84 v -71 l 3,-59 10,-43 23,-53 18,-18 15,8 10,25 10,38 5,41 5,38 v 25 46 l 3,99 8,138 17,167 33,188 51,196 76,198 z"
   id="path167"
   inkscape:connector-curvature="0"
   style="fill:#7c56ff;stroke:none" />
        <path
   d="m 9823,15121 -69,2 -76,15 -84,23 -89,33 -91,41 -95,46 -94,53 -94,54 -89,58 -86,58 -79,59 -71,56 -61,56 -51,48 -38,46 -25,38 -21,53 v 26 l 16,5 28,-10 33,-21 33,-25 28,-26 20,-17 10,-13 23,-20 28,-31 41,-38 45,-46 56,-48 61,-53 69,-54 74,-56 78,-56 87,-56 89,-50 94,-46 96,-43 102,-33 z"
   id="path169"
   inkscape:connector-curvature="0"
   style="fill:#7c56ff;stroke:none" />
        <path
   d="m 9825,14806 -66,-16 -79,-7 -86,2 -94,10 -102,16 -101,20 -105,25 -104,28 -101,33 -97,33 -92,36 -83,38 -74,36 -64,33 -48,33 -33,30 -33,46 -8,28 16,8 28,-3 35,-10 41,-18 33,-15 23,-13 12,-7 28,-18 36,-21 48,-28 56,-30 66,-33 74,-33 79,-36 86,-35 94,-33 94,-31 102,-25 102,-21 104,-15 107,-7 z"
   id="path171"
   inkscape:connector-curvature="0"
   style="fill:#7c56ff;stroke:none" />
        <path
   d="m 11927,16244 -20,-56 -28,-56 -31,-56 -38,-58 -41,-56 -48,-58 -51,-56 -58,-59 -61,-56 -69,-56 -73,-53 -77,-56 -84,-53 -88,-51 -95,-51 -99,-48 44,25 50,33 61,41 66,48 72,53 76,56 74,61 73,64 71,66 67,66 61,66 53,66 41,66 30,64 15,58 v 56 l 3,26 10,25 15,20 18,16 18,2 18,-12 15,-31 z"
   id="path173"
   inkscape:connector-curvature="0"
   style="fill:#7c56ff;stroke:none" />
        <path
   d="m 11078,16765 8,-58 2,-64 v -66 l -5,-69 -10,-68 -15,-74 -18,-74 -25,-78 -28,-79 -33,-82 -38,-83 -44,-84 -48,-87 -53,-86 -61,-89 -64,-89 26,43 30,54 33,66 38,71 38,81 38,84 39,89 35,91 33,92 28,91 20,87 16,84 5,76 -3,69 -15,61 -25,48 -11,23 -5,28 3,25 10,21 15,12 21,-2 28,-21 z"
   id="path175"
   inkscape:connector-curvature="0"
   style="fill:#7c56ff;stroke:none" />
        <path
   d="m 10044,15418 -59,36 -58,50 -61,64 -61,74 -59,81 -58,86 -56,92 -53,94 -49,97 -45,94 -38,89 -33,86 -28,76 -18,69 -10,58 -3,46 8,56 15,23 15,-3 18,-23 18,-35 15,-38 13,-36 7,-25 5,-15 6,-31 12,-41 15,-53 18,-61 23,-69 28,-76 31,-84 35,-84 43,-89 46,-89 51,-91 58,-86 64,-87 69,-79 z"
   id="path177"
   inkscape:connector-curvature="0"
   style="fill:#7c56ff;stroke:none" />
        <path
   d="m 10204,15515 -46,50 -46,64 -40,76 -38,87 -38,94 -34,99 -30,104 -25,104 -23,104 -21,102 -12,99 -11,89 -7,84 v 71 l 5,59 10,43 23,53 18,18 15,-8 13,-27 7,-39 5,-40 6,-38 v -26 -46 -99 l 5,-137 15,-168 30,-188 49,-198 71,-198 z"
   id="path179"
   inkscape:connector-curvature="0"
   style="fill:#7c56ff;stroke:none" />
        <path
   d="m 12489,14882 -54,-28 -58,-23 -61,-20 -66,-18 -69,-13 -74,-13 -78,-7 -79,-3 h -84 l -89,5 -91,8 -94,13 -97,17 -99,23 -104,26 -107,30 48,-10 61,-10 74,-10 81,-10 87,-11 94,-7 96,-5 97,-3 h 96 l 97,5 89,8 81,15 77,20 63,26 51,33 38,41 18,15 25,13 26,7 22,-2 18,-11 5,-20 -10,-35 z"
   id="path181"
   inkscape:connector-curvature="0"
   style="fill:#7c56ff;stroke:none" />
        <path
   d="m 11048,15565 25,31 36,46 38,56 43,56 43,53 38,43 31,28 20,3 3,-18 -18,-28 -31,-41 -40,-46 -49,-48 -50,-48 -49,-46 z"
   id="path183"
   inkscape:connector-curvature="0"
   style="fill:#7c56ff;stroke:none" />
        <path
   d="m 10483,13873 11,-51 25,-99 33,-130 33,-142 31,-143 20,-124 5,-86 -15,-39 -26,26 -25,79 -20,117 -21,139 -17,143 -13,134 -13,110 z"
   id="path185"
   inkscape:connector-curvature="0"
   style="fill:#7c56ff;stroke:none" />
        <path
   d="m 10316,14132 -16,-51 -22,-99 -31,-130 -35,-144 -39,-140 -38,-117 -35,-82 -31,-25 -12,36 15,81 33,114 46,133 53,134 48,125 41,101 z"
   id="path187"
   inkscape:connector-curvature="0"
   style="fill:#7c56ff;stroke:none" />
        <path
   d="m 9833,14572 -33,-21 -48,-30 -56,-38 -59,-41 -58,-36 -51,-27 -38,-16 -21,5 6,16 25,22 41,26 56,30 61,28 63,31 58,28 z"
   id="path189"
   inkscape:connector-curvature="0"
   style="fill:#7c56ff;stroke:none" />
        <path
   d="m 9896,14246 -25,-30 -31,-48 -38,-56 -40,-59 -41,-53 -36,-46 -30,-28 -20,-2 -3,15 15,30 31,41 38,46 46,51 48,50 46,49 z"
   id="path191"
   inkscape:connector-curvature="0"
   style="fill:#7c56ff;stroke:none" />
        <path
   d="m 10491,14867 15,-39 23,-61 28,-73 31,-79 35,-76 38,-69 39,-51 38,-28 38,-10 40,-5 44,3 38,12 35,23 28,33 18,48 8,64 -8,23 -15,15 -21,10 -22,3 -26,-3 -20,-10 -15,-15 -8,-23 -5,-25 -10,-21 -13,-20 -13,-15 -15,-11 -18,-2 -20,2 -20,13 -23,23 -28,33 -31,41 -33,51 -33,53 -35,61 -33,61 z"
   id="path193"
   inkscape:connector-curvature="0"
   style="fill:#4c19ff;stroke:none" />
        <path
   d="m 10438,14841 -10,-33 -16,-58 -15,-74 -20,-79 -23,-79 -23,-68 -25,-51 -28,-28 -28,-8 -33,-5 h -31 l -30,8 -28,15 -21,25 -17,34 -8,48 5,18 13,12 12,8 18,5 18,-3 15,-5 13,-12 8,-16 5,-17 7,-18 10,-13 11,-13 12,-5 13,-2 15,2 16,11 17,22 18,36 20,51 23,56 21,61 23,63 22,59 z"
   id="path195"
   inkscape:connector-curvature="0"
   style="fill:#4c19ff;stroke:none" />
        <path
   d="m 10501,15090 18,38 20,61 28,74 33,79 33,76 39,71 38,51 38,28 38,10 43,3 41,-3 40,-13 36,-20 28,-35 18,-49 7,-63 -10,-23 -15,-15 -20,-11 -23,-2 -23,2 -23,11 -15,15 -8,23 -5,25 -8,20 -12,21 -13,15 -18,10 -18,3 -20,-3 -20,-12 -23,-23 -28,-33 -31,-41 -33,-51 -33,-53 -35,-61 -33,-61 z"
   id="path197"
   inkscape:connector-curvature="0"
   style="fill:#4c19ff;stroke:none" />
        <path
   d="m 10321,15090 -18,38 -23,61 -28,74 -30,79 -36,76 -38,71 -38,51 -38,28 -38,10 -44,3 -40,-3 -41,-13 -35,-20 -28,-35 -18,-49 -8,-63 10,-23 16,-15 20,-11 23,-2 23,2 23,11 15,15 7,23 5,25 11,20 10,21 15,15 15,10 18,3 20,-3 21,-12 23,-23 28,-33 33,-41 33,-51 33,-53 35,-61 33,-61 z"
   id="path199"
   inkscape:connector-curvature="0"
   style="fill:#4c19ff;stroke:none" />
        <path
   d="m 10356,15032 18,51 31,96 40,127 49,140 48,137 48,117 41,76 33,23 10,-35 -23,-82 -40,-111 -59,-128 -61,-129 -58,-122 -49,-99 z"
   id="path201"
   inkscape:connector-curvature="0"
   style="fill:#4c19ff;stroke:none" />
        <path
   d="m 10565,15039 25,28 38,44 44,50 48,54 46,51 40,40 33,23 21,3 v -18 l -18,-28 -36,-36 -43,-43 -53,-43 -51,-46 -51,-41 z"
   id="path203"
   inkscape:connector-curvature="0"
   style="fill:#4c19ff;stroke:none" />
        <path
   d="m 10562,14910 18,-3 20,-2 h 28 l 31,-3 h 33 l 33,-2 h 35 l 36,-3 36,-3 33,-2 30,-3 26,-5 22,-5 18,-5 10,-7 3,-8 -3,-8 -10,-2 -15,-3 h -18 -25 l -26,3 -30,5 -31,5 -33,5 -33,8 -35,5 -33,7 -33,8 -31,5 -30,8 z"
   id="path205"
   inkscape:connector-curvature="0"
   style="fill:#4c19ff;stroke:none" />
        <path
   d="m 10534,14874 33,-20 51,-26 61,-30 64,-31 61,-30 48,-31 33,-25 5,-20 -15,-5 -33,12 -43,23 -51,33 -59,38 -56,38 -53,41 z"
   id="path207"
   inkscape:connector-curvature="0"
   style="fill:#4c19ff;stroke:none" />
        <path
   d="m 10463,14833 10,-38 18,-53 23,-64 23,-68 20,-64 15,-56 3,-40 -8,-18 -15,8 -15,30 -15,46 -13,61 -13,66 -13,68 -10,67 z"
   id="path209"
   inkscape:connector-curvature="0"
   style="fill:#4c19ff;stroke:none" />
        <path
   d="m 10395,14945 h -18 -21 l -28,-2 -30,-3 h -31 l -35,-2 -36,-3 -35,-2 -36,-3 h -33 -30 -26 l -23,3 -17,5 -11,5 -5,7 3,8 10,5 13,3 20,2 23,3 h 25 31 l 30,-3 33,-2 36,-3 36,-2 33,-3 33,-3 33,-5 28,-2 z"
   id="path211"
   inkscape:connector-curvature="0"
   style="fill:#4c19ff;stroke:none" />
        <path
   d="m 10344,15205 -16,50 -33,97 -43,125 -48,142 -41,137 -33,122 -12,87 12,38 28,-23 33,-76 31,-115 33,-137 28,-142 25,-133 20,-106 z"
   id="path213"
   inkscape:connector-curvature="0"
   style="fill:#4c19ff;stroke:none" />
        <path
   d="m 10567,15009 18,2 33,11 43,10 54,15 61,15 68,18 72,18 71,18 71,17 71,16 64,12 58,11 48,5 41,2 25,-5 11,-10 -6,-13 -20,-15 -35,-13 -44,-12 -56,-13 -61,-10 -66,-13 -71,-10 -71,-10 -71,-8 -69,-10 -66,-8 -58,-5 -49,-8 -38,-2 z"
   id="path215"
   inkscape:connector-curvature="0"
   style="fill:#4c19ff;stroke:none" />
        <path
   d="m 10313,15014 -33,20 -51,26 -61,33 -61,30 -61,33 -48,33 -30,26 -6,20 16,5 30,-13 43,-25 54,-33 53,-41 56,-40 53,-41 z"
   id="path217"
   inkscape:connector-curvature="0"
   style="fill:#4c19ff;stroke:none" />
        <path
   d="m 10303,14900 -36,-21 -50,-28 -59,-30 -63,-33 -61,-33 -49,-31 -30,-28 -5,-20 18,-5 30,13 43,25 51,33 56,41 56,40 53,41 z"
   id="path219"
   inkscape:connector-curvature="0"
   style="fill:#4c19ff;stroke:none" />
        <path
   d="m 11063,14976 18,-3 h 23 25 31 33 35 l 36,-2 h 35 33 l 33,-3 31,-2 28,-3 23,-5 15,-5 10,-8 5,-7 -2,-8 -11,-2 -15,-3 -18,-3 -22,3 h -28 l -28,5 -33,3 -33,5 -33,5 -36,5 -33,7 -33,6 -33,5 -28,5 z"
   id="path221"
   inkscape:connector-curvature="0"
   style="fill:#4c19ff;stroke:none" />
        <path
   d="m 10544,14358 13,-33 18,-56 20,-71 26,-79 25,-76 28,-66 31,-51 28,-25 30,-8 31,-2 30,2 31,10 25,15 20,28 13,36 5,48 -5,18 -13,10 -15,8 -18,2 -18,-2 -15,-8 -13,-10 -5,-18 -5,-17 -5,-18 -7,-16 -11,-10 -12,-7 -13,-5 -15,2 -15,10 -18,21 -21,35 -25,49 -25,55 -26,59 -25,61 -26,58 z"
   id="path223"
   inkscape:connector-curvature="0"
   style="fill:#4c19ff;stroke:none" />
        <path
   d="m 10903,14340 25,-30 38,-43 46,-51 48,-54 44,-50 33,-49 20,-35 -3,-21 -17,3 -23,23 -33,38 -36,48 -38,59 -38,58 -36,56 z"
   id="path225"
   inkscape:connector-curvature="0"
   style="fill:#4c19ff;stroke:none" />
        <path
   d="m 11327,14254 28,-28 41,-38 51,-46 53,-48 48,-48 41,-44 23,-33 v -20 h -18 l -25,20 -38,33 -41,46 -43,53 -44,54 -40,53 z"
   id="path227"
   inkscape:connector-curvature="0"
   style="fill:#4c19ff;stroke:none" />
        <path
   d="m 10395,14849 -67,-21 -71,-30 -73,-46 -79,-53 -79,-61 -79,-69 -79,-74 -76,-76 -73,-76 -69,-79 -61,-74 -56,-73 -46,-69 -38,-61 -25,-51 -16,-43 -7,-56 7,-25 16,-3 25,15 26,28 25,33 23,31 13,23 7,15 15,25 23,36 28,48 36,54 40,61 46,66 54,71 58,71 64,74 68,74 76,73 79,69 84,63 89,59 z"
   id="path229"
   inkscape:connector-curvature="0"
   style="fill:#4c19ff;stroke:none" />
        <path
   d="m 11096,14592 36,-15 55,-15 64,-21 69,-23 63,-20 54,-23 35,-20 10,-18 -15,-8 -33,5 -48,18 -56,23 -61,28 -64,33 -58,31 z"
   id="path231"
   inkscape:connector-curvature="0"
   style="fill:#4c19ff;stroke:none" />
        <path
   d="m 9835,14973 h -17 l -36,3 h -46 -56 l -63,2 h -69 l -73,3 -74,2 -74,3 -71,3 -66,5 -59,7 -50,5 -39,10 -22,11 -8,12 8,13 25,8 36,2 h 45 l 56,-2 64,-5 68,-8 72,-8 71,-10 71,-10 69,-10 66,-10 56,-8 50,-8 38,-7 z"
   id="path233"
   inkscape:connector-curvature="0"
   style="fill:#4c19ff;stroke:none" />
        <path
   d="m 10885,14775 15,-13 21,-12 28,-16 33,-17 38,-18 43,-18 43,-18 48,-18 49,-17 48,-13 48,-15 49,-11 43,-7 43,-3 38,-2 36,5 51,15 38,18 25,23 15,25 5,23 -7,25 -13,21 -23,20 -38,20 -33,6 -30,-6 -23,-12 -18,-18 -10,-23 -3,-23 8,-23 -21,-2 h -22 l -26,-3 h -25 -31 -30 l -33,3 -36,2 -35,5 -41,8 -41,8 -40,12 -46,13 -43,15 -49,18 z"
   id="path235"
   inkscape:connector-curvature="0"
   style="fill:#4c19ff;stroke:none" />
       </g>
      </g>
     </g>
    </g>
   </g>
  </g>
 </g>
</svg>