<?xml version="1.0" encoding="UTF-8" standalone="no"?>
<svg
   xmlns:ooo="http://xml.openoffice.org/svg/export"
   xmlns:dc="http://purl.org/dc/elements/1.1/"
   xmlns:cc="http://creativecommons.org/ns#"
   xmlns:rdf="http://www.w3.org/1999/02/22-rdf-syntax-ns#"
   xmlns:svg="http://www.w3.org/2000/svg"
   xmlns="http://www.w3.org/2000/svg"
   xmlns:sodipodi="http://sodipodi.sourceforge.net/DTD/sodipodi-0.dtd"
   xmlns:inkscape="http://www.inkscape.org/namespaces/inkscape"
   version="1.2"
   width="53.919998mm"
   height="34.259998mm"
   viewBox="0 0 5391.9998 3425.9998"
   preserveAspectRatio="xMidYMid"
   xml:space="preserve"
   id="svg167"
   sodipodi:docname="firecrkr.svg"
   style="fill-rule:evenodd;stroke-width:28.22200012;stroke-linejoin:round"
   inkscape:version="0.92.5 (2060ec1f9f, 2020-04-08)"><metadata
   id="metadata171"><rdf:RDF><cc:Work
       rdf:about=""><dc:format>image/svg+xml</dc:format><dc:type
         rdf:resource="http://purl.org/dc/dcmitype/StillImage" /></cc:Work></rdf:RDF></metadata><sodipodi:namedview
   pagecolor="#ffffff"
   bordercolor="#666666"
   borderopacity="1"
   objecttolerance="10"
   gridtolerance="10"
   guidetolerance="10"
   inkscape:pageopacity="0"
   inkscape:pageshadow="2"
   inkscape:window-width="664"
   inkscape:window-height="487"
   id="namedview169"
   showgrid="false"
   inkscape:zoom="0.2102413"
   inkscape:cx="101.89606"
   inkscape:cy="64.743305"
   inkscape:window-x="0"
   inkscape:window-y="0"
   inkscape:window-maximized="0"
   inkscape:current-layer="svg167" />
 <defs
   class="ClipPathGroup"
   id="defs8">
  <clipPath
   id="presentation_clip_path"
   clipPathUnits="userSpaceOnUse">
   <rect
   x="0"
   y="0"
   width="21000"
   height="29700"
   id="rect2" />
  </clipPath>
  <clipPath
   id="presentation_clip_path_shrink"
   clipPathUnits="userSpaceOnUse">
   <rect
   x="21"
   y="29"
   width="20958"
   height="29641"
   id="rect5" />
  </clipPath>
 </defs>
 <defs
   class="TextShapeIndex"
   id="defs12">
  <g
   ooo:slide="id1"
   ooo:id-list="id3"
   id="g10" />
 </defs>
 <defs
   class="EmbeddedBulletChars"
   id="defs44">
  <g
   id="bullet-char-template-57356"
   transform="matrix(4.8828125e-4,0,0,-4.8828125e-4,0,0)">
   <path
   d="M 580,1141 1163,571 580,0 -4,571 Z"
   id="path14"
   inkscape:connector-curvature="0" />
  </g>
  <g
   id="bullet-char-template-57354"
   transform="matrix(4.8828125e-4,0,0,-4.8828125e-4,0,0)">
   <path
   d="M 8,1128 H 1137 V 0 H 8 Z"
   id="path17"
   inkscape:connector-curvature="0" />
  </g>
  <g
   id="bullet-char-template-10146"
   transform="matrix(4.8828125e-4,0,0,-4.8828125e-4,0,0)">
   <path
   d="M 174,0 602,739 174,1481 1456,739 Z M 1358,739 309,1346 659,739 Z"
   id="path20"
   inkscape:connector-curvature="0" />
  </g>
  <g
   id="bullet-char-template-10132"
   transform="matrix(4.8828125e-4,0,0,-4.8828125e-4,0,0)">
   <path
   d="M 2015,739 1276,0 H 717 l 543,543 H 174 v 393 h 1086 l -543,545 h 557 z"
   id="path23"
   inkscape:connector-curvature="0" />
  </g>
  <g
   id="bullet-char-template-10007"
   transform="matrix(4.8828125e-4,0,0,-4.8828125e-4,0,0)">
   <path
   d="m 0,-2 c -7,16 -16,29 -25,39 l 381,530 c -94,256 -141,385 -141,387 0,25 13,38 40,38 9,0 21,-2 34,-5 21,4 42,12 65,25 l 27,-13 111,-251 280,301 64,-25 24,25 c 21,-10 41,-24 62,-43 C 886,937 835,863 770,784 769,783 710,716 594,584 L 774,223 c 0,-27 -21,-55 -63,-84 l 16,-20 C 717,90 699,76 672,76 641,76 570,178 457,381 L 164,-76 c -22,-34 -53,-51 -92,-51 -42,0 -63,17 -64,51 -7,9 -10,24 -10,44 0,9 1,19 2,30 z"
   id="path26"
   inkscape:connector-curvature="0" />
  </g>
  <g
   id="bullet-char-template-10004"
   transform="matrix(4.8828125e-4,0,0,-4.8828125e-4,0,0)">
   <path
   d="M 285,-33 C 182,-33 111,30 74,156 52,228 41,333 41,471 c 0,78 14,145 41,201 34,71 87,106 158,106 53,0 88,-31 106,-94 l 23,-176 c 8,-64 28,-97 59,-98 l 735,706 c 11,11 33,17 66,17 42,0 63,-15 63,-46 V 965 c 0,-36 -10,-64 -30,-84 L 442,47 C 390,-6 338,-33 285,-33 Z"
   id="path29"
   inkscape:connector-curvature="0" />
  </g>
  <g
   id="bullet-char-template-9679"
   transform="matrix(4.8828125e-4,0,0,-4.8828125e-4,0,0)">
   <path
   d="M 813,0 C 632,0 489,54 383,161 276,268 223,411 223,592 c 0,181 53,324 160,431 106,107 249,161 430,161 179,0 323,-54 432,-161 108,-107 162,-251 162,-431 0,-180 -54,-324 -162,-431 C 1136,54 992,0 813,0 Z"
   id="path32"
   inkscape:connector-curvature="0" />
  </g>
  <g
   id="bullet-char-template-8226"
   transform="matrix(4.8828125e-4,0,0,-4.8828125e-4,0,0)">
   <path
   d="m 346,457 c -73,0 -137,26 -191,78 -54,51 -81,114 -81,188 0,73 27,136 81,188 54,52 118,78 191,78 73,0 134,-26 185,-79 51,-51 77,-114 77,-187 0,-75 -25,-137 -76,-188 -50,-52 -112,-78 -186,-78 z"
   id="path35"
   inkscape:connector-curvature="0" />
  </g>
  <g
   id="bullet-char-template-8211"
   transform="matrix(4.8828125e-4,0,0,-4.8828125e-4,0,0)">
   <path
   d="M -4,459 H 1135 V 606 H -4 Z"
   id="path38"
   inkscape:connector-curvature="0" />
  </g>
  <g
   id="bullet-char-template-61548"
   transform="matrix(4.8828125e-4,0,0,-4.8828125e-4,0,0)">
   <path
   d="m 173,740 c 0,163 58,303 173,419 116,115 255,173 419,173 163,0 302,-58 418,-173 116,-116 174,-256 174,-419 0,-163 -58,-303 -174,-418 C 1067,206 928,148 765,148 601,148 462,206 346,322 231,437 173,577 173,740 Z"
   id="path41"
   inkscape:connector-curvature="0" />
  </g>
 </defs>
 <g
   id="g49"
   transform="translate(-7804,-13137)">
  <g
   id="id2"
   class="Master_Slide">
   <g
   id="bg-id2"
   class="Background" />
   <g
   id="bo-id2"
   class="BackgroundObjects" />
  </g>
 </g>
 <g
   class="SlideGroup"
   id="g165"
   transform="translate(-7804,-13137)">
  <g
   id="g163">
   <g
   id="container-id1">
    <g
   id="id1"
   class="Slide"
   clip-path="url(#presentation_clip_path)">
     <g
   class="Page"
   id="g159">
      <g
   class="Graphic"
   id="g157">
       <g
   id="id3">
        <rect
   class="BoundingBox"
   x="7804"
   y="13137"
   width="5392"
   height="3426"
   id="rect51"
   style="fill:none;stroke:none" />
        <defs
   id="defs56">
         <clipPath
   id="clip_path_1"
   clipPathUnits="userSpaceOnUse">
          <path
   d="m 7804,13137 h 5391 v 3425 H 7804 Z"
   id="path53"
   inkscape:connector-curvature="0" />
         </clipPath>
        </defs>
        <g
   clip-path="url(#clip_path_1)"
   id="g154">
         <path
   d="m 8859,16489 20,-2 25,-8 33,-10 36,-15 41,-21 45,-20 46,-20 46,-26 48,-23 46,-25 45,-23 41,-23 41,-20 33,-20 30,-16 23,-12 31,35 25,41 26,46 25,45 25,46 26,41 30,33 36,25 56,-28 51,-38 50,-46 49,-48 48,-51 48,-43 48,-38 49,-28 43,43 38,46 33,48 36,49 33,48 38,48 38,43 46,41 h 56 l 426,-348 49,33 48,35 48,33 46,36 48,36 46,35 48,36 46,35 58,-10 237,-333 25,13 36,18 40,20 44,23 50,25 54,23 53,26 56,23 56,22 56,21 51,18 51,15 43,10 40,5 h 33 l 26,-8 28,-66 20,-66 20,-66 18,-68 18,-67 18,-68 20,-66 23,-66 564,-49 -8,-78 -15,-77 -20,-73 -23,-77 -28,-71 -25,-73 -26,-77 -20,-73 23,-23 38,-26 53,-33 59,-35 61,-44 58,-50 48,-59 36,-63 -23,-36 -33,-38 -41,-36 -45,-35 -49,-36 -45,-30 -44,-31 -38,-25 -7,-8 -15,-10 -21,-13 -20,-15 -20,-18 -16,-15 -10,-10 -2,-10 142,-382 -28,-15 -28,-15 -31,-13 -30,-12 -28,-13 -30,-10 -31,-11 -33,-10 -30,-10 -31,-7 -33,-8 -30,-5 -34,-8 -33,-5 -30,-5 -33,-2 v -49 l 2,-61 6,-71 5,-74 v -73 l -8,-64 -15,-53 -26,-33 -38,2 -35,3 -38,2 -36,3 -36,5 -38,2 -35,6 -36,5 -35,5 -39,7 -35,5 -36,8 -35,8 -38,7 -36,8 -36,8 -25,-46 -23,-48 -18,-49 -17,-51 -18,-50 -23,-46 -28,-46 -36,-41 -30,8 -31,8 -30,12 -28,16 -28,15 -25,18 -28,17 -26,18 -28,21 -25,17 -26,18 -27,18 -28,18 -28,12 -31,13 -30,10 -257,-315 -13,3 -15,7 -23,16 -25,15 -28,20 -31,23 -33,25 -35,26 -33,28 -33,25 -33,28 -31,23 -25,23 -26,18 -17,18 -16,10 -15,-8 -13,-10 -10,-13 -10,-13 -10,-12 -10,-13 -10,-13 -11,-12 -10,-8 -10,-8 -10,-5 -10,-7 -23,-21 -20,-23 -21,-25 -18,-25 -20,-26 -18,-25 -18,-26 -17,-25 -16,10 -20,15 -30,21 -33,23 -41,25 -41,28 -45,30 -46,28 -43,31 -44,28 -40,25 -38,23 -31,18 -25,15 -18,10 -10,5 -15,3 -18,-3 -26,-2 -28,-5 -30,-8 -33,-7 -36,-11 -35,-12 -38,-10 -33,-13 -36,-10 -30,-13 -28,-10 -23,-10 -21,-8 -12,-8 -10,-7 -13,-8 -10,-10 -13,-10 -10,-8 -13,-10 -10,-8 -13,-7 -43,15 -28,94 -20,74 -13,76 v 102 l -41,17 -38,16 -40,12 -41,13 -43,10 -41,10 -43,8 -41,8 -43,10 -43,8 -41,7 -43,8 -41,7 -43,11 -41,10 -40,12 7,56 13,56 13,51 18,53 12,54 13,53 8,56 v 61 l -28,15 -31,13 -30,10 -28,13 -31,8 -30,10 -31,7 -33,11 -30,7 -31,8 -30,10 -31,8 -30,10 -31,10 -28,13 -30,12 28,71 30,72 33,68 33,69 36,66 36,69 33,68 33,69 -440,353 30,48 41,46 46,41 51,35 53,36 53,36 49,35 45,36 8,10 10,8 8,10 7,7 -15,51 -20,51 -26,48 -25,51 -23,51 -20,48 -13,51 -2,51 693,51 18,43 15,46 16,45 12,46 13,48 10,49 10,45 8,49 z"
   id="path58"
   inkscape:connector-curvature="0"
   style="fill:#000000;stroke:none" />
         <path
   d="m 8899,16441 48,-20 46,-23 48,-23 46,-23 46,-23 46,-25 45,-26 46,-25 23,-13 20,-15 23,-13 23,-15 23,-13 23,-15 23,-13 23,-10 2,-2 5,-3 5,-2 h 5 l 11,2 7,8 3,7 5,11 15,35 20,38 23,41 26,43 28,41 30,35 28,33 28,26 43,-21 48,-35 51,-41 54,-48 50,-48 51,-49 49,-43 45,-33 h 3 2 l 5,3 h 3 l 33,40 38,51 38,59 43,58 41,59 43,53 38,41 36,25 18,-13 25,-18 28,-22 31,-26 35,-28 38,-30 38,-31 39,-33 38,-30 35,-31 33,-28 31,-23 25,-23 20,-15 13,-10 8,-5 25,8 43,28 56,43 64,48 66,51 61,48 51,36 35,23 38,-28 33,-33 28,-38 28,-41 26,-43 25,-44 26,-43 25,-38 -5,-28 5,-10 8,-8 7,-5 h 10 l 21,5 25,11 36,17 38,18 43,23 48,25 49,28 53,26 51,28 53,25 53,23 51,20 46,18 46,13 38,7 h 35 l 46,-66 31,-68 23,-69 15,-68 10,-64 10,-61 13,-53 18,-46 7,-8 8,-5 10,-5 h 10 l 10,-23 521,-63 -10,-71 -15,-74 -18,-74 -20,-71 -26,-74 -25,-68 -28,-72 -31,-66 21,-20 25,-18 26,-15 30,-15 28,-13 28,-15 28,-15 25,-16 23,-15 18,-20 20,-18 18,-20 20,-21 21,-18 20,-17 26,-13 15,-53 -23,-28 -23,-23 -23,-26 -28,-20 -25,-23 -28,-20 -28,-18 -31,-20 -28,-18 -30,-18 -28,-20 -30,-18 -28,-20 -28,-21 -28,-20 -26,-23 5,-20 13,-36 23,-51 25,-58 23,-61 23,-64 15,-58 5,-51 -30,-10 -28,-10 -28,-10 -28,-11 -28,-10 -28,-7 -28,-11 -28,-7 -28,-8 -28,-7 -28,-8 -28,-5 -30,-5 -31,-3 -30,-2 h -30 l -13,-5 -13,-13 -8,-15 -5,-13 8,-51 10,-53 13,-54 8,-53 5,-53 v -54 l -11,-51 -17,-50 -26,-23 -35,2 -33,3 -36,2 -36,3 -33,5 -35,5 -36,5 -33,8 -35,5 -33,7 -36,8 -33,8 -36,7 -33,8 -35,8 -33,7 -31,-23 -25,-43 -25,-58 -23,-64 -23,-61 -26,-56 -28,-43 -30,-20 -15,7 -21,13 -28,15 -28,18 -33,18 -33,23 -35,20 -36,23 -33,20 -35,21 -31,17 -28,18 -25,13 -21,10 -15,5 -10,3 -246,-313 -28,15 -31,16 -28,15 -25,18 -28,17 -26,21 -28,18 -25,20 -25,20 -26,21 -25,20 -26,23 -22,20 -26,20 -25,21 -26,20 -30,-20 -38,-36 -44,-43 -43,-51 -43,-51 -38,-48 -33,-46 -23,-33 -554,361 -30,-15 -31,-13 -30,-13 -33,-12 -31,-13 -33,-10 -30,-13 -33,-13 -31,-10 -30,-12 -33,-13 -31,-13 -28,-15 -30,-15 -28,-18 -28,-18 -26,38 -17,43 -11,44 -5,45 -5,49 -2,45 -8,49 -10,43 -23,10 -30,8 -39,10 -43,10 -48,10 -51,10 -53,11 -56,10 -54,12 -50,8 -49,10 -43,10 -38,11 -30,7 -23,8 -13,7 8,44 12,58 21,69 17,71 16,71 7,66 -2,51 -15,30 -18,5 -23,8 -28,8 -31,7 -33,11 -35,10 -36,10 -35,10 -38,10 -36,10 -33,13 -31,10 -25,8 -25,10 -18,8 -13,7 23,69 28,66 30,66 33,64 36,66 36,63 38,61 35,61 -20,28 -20,26 -23,25 -26,23 -28,23 -28,23 -27,22 -28,21 -31,23 -30,20 -31,20 -28,21 -28,23 -28,20 -25,23 -26,23 16,23 38,40 56,48 66,54 66,53 63,51 51,41 33,28 -152,368 676,41 17,46 18,45 15,46 16,48 12,46 13,46 13,48 10,46 z"
   id="path60"
   inkscape:connector-curvature="0"
   style="fill:#ff0000;stroke:none" />
         <path
   d="m 9468,16014 38,25 34,33 27,36 28,38 31,36 30,30 39,28 43,18 45,-33 44,-33 48,-36 46,-35 48,-33 48,-33 48,-28 46,-26 49,28 43,33 38,41 35,46 33,45 33,44 36,43 41,38 383,-318 56,16 54,25 48,30 48,34 46,38 48,35 46,36 51,28 48,-21 41,-35 35,-48 31,-51 28,-51 25,-46 23,-30 23,-16 30,16 33,17 39,18 43,23 45,20 46,23 51,23 48,23 51,20 48,18 49,15 43,13 43,10 41,5 33,-2 30,-5 36,-49 30,-58 23,-64 23,-68 18,-66 18,-61 20,-49 23,-35 498,-36 -5,-63 -21,-61 -28,-56 -33,-53 -35,-54 -31,-53 -28,-59 -15,-61 41,-43 51,-38 53,-38 58,-38 51,-41 43,-46 31,-53 10,-61 -20,-23 -23,-20 -23,-21 -25,-20 -26,-20 -28,-21 -28,-20 -28,-18 -30,-17 -28,-18 -31,-18 -27,-15 -28,-16 -31,-15 -25,-15 -28,-13 122,-378 -455,-102 -15,-386 -557,35 -124,-287 -31,-3 -35,8 -39,15 -38,21 -40,25 -36,23 -35,18 -31,15 -15,5 -13,5 -15,5 -15,3 -16,5 -15,5 -13,5 -15,5 -15,-2 -23,-31 -28,-36 -28,-38 -28,-40 -28,-41 -25,-41 -18,-35 -13,-36 -48,-10 -353,280 -38,-33 -38,-36 -39,-36 -40,-35 -38,-33 -41,-33 -43,-31 -43,-28 -33,21 -33,17 -33,21 -36,17 -33,21 -33,20 -33,23 -31,23 -30,25 -36,33 -38,36 -43,36 -43,35 -43,28 -38,18 -36,7 -38,-7 -43,-18 -44,-28 -45,-33 -46,-33 -46,-30 -40,-28 -39,-16 -25,66 -10,74 -10,71 -26,56 -15,13 -23,13 -28,12 -33,13 -40,10 -41,13 -46,10 -46,10 -48,10 -46,8 -45,10 -44,8 -40,10 -36,8 -33,7 -25,8 -13,28 3,38 10,46 18,50 22,51 21,49 20,40 15,33 -17,26 -21,20 -25,20 -28,16 -31,12 -30,13 -33,10 -36,10 -33,8 -35,10 -36,10 -33,11 -33,12 -33,15 -28,18 -28,21 -2,12 v 10 13 l 2,13 33,38 33,48 33,54 33,58 33,61 31,61 30,53 28,49 -23,25 -23,23 -25,20 -25,21 -28,20 -28,20 -26,18 -28,18 -28,20 -28,18 -25,20 -25,21 -26,20 -25,23 -23,25 -20,26 12,40 33,36 49,38 58,33 61,36 56,38 48,36 33,40 -17,36 -18,35 -18,38 -18,36 -15,38 -13,38 -7,38 -6,41 36,10 36,5 38,5 h 38 38 38 38 l 38,-2 h 38 36 l 38,2 36,5 35,6 36,10 33,12 33,18 10,31 13,35 12,41 13,38 18,38 20,33 26,28 28,18 h 10 l 15,-5 23,-10 25,-13 31,-18 33,-18 35,-20 39,-23 35,-20 38,-23 36,-20 33,-21 28,-17 28,-16 20,-12 z"
   id="path62"
   inkscape:connector-curvature="0"
   style="fill:#000000;stroke:none" />
         <path
   d="m 9476,15971 231,234 h 18 l 33,-16 33,-17 33,-18 31,-18 30,-20 31,-21 30,-23 28,-22 10,-11 15,-10 16,-15 15,-15 15,-13 15,-13 13,-10 10,-5 16,-2 15,-3 h 15 l 15,-3 36,39 35,40 33,38 36,39 36,38 35,38 38,38 36,35 30,-25 44,-41 55,-48 61,-53 59,-54 53,-43 41,-30 25,-11 18,3 18,3 15,2 h 18 l 23,20 38,28 51,36 56,38 56,38 50,33 44,26 25,12 28,-25 33,-38 33,-48 36,-51 33,-49 30,-40 25,-31 18,-10 21,3 22,7 28,13 31,18 35,18 39,22 43,23 43,23 46,23 48,23 51,20 51,18 50,13 51,12 54,6 h 50 l 31,-49 28,-51 20,-53 18,-56 18,-56 15,-58 15,-56 18,-53 31,-11 30,-7 31,-5 30,-3 33,-2 h 31 33 30 31 33 30 33 l 31,-3 30,-5 31,-8 30,-7 -13,-59 -20,-53 -25,-51 -31,-51 -30,-48 -33,-48 -31,-49 -30,-51 30,-40 46,-38 53,-38 59,-41 56,-41 48,-43 38,-46 23,-48 -10,-10 -8,-10 -8,-13 -5,-15 -20,-18 -20,-18 -23,-18 -20,-20 -21,-18 -23,-18 -23,-15 -22,-15 -23,-10 -33,-15 -38,-16 -41,-15 -36,-20 -30,-21 -23,-23 -8,-22 13,-31 15,-43 18,-51 18,-53 18,-54 12,-48 8,-41 3,-30 -31,-8 -48,-12 -61,-16 -64,-18 -61,-15 -56,-10 -43,-8 h -23 l -30,-5 -21,-378 -15,-3 -20,-2 h -31 l -33,2 -38,3 -43,2 -43,8 -43,5 -46,5 -43,8 -41,7 -38,8 -36,5 -28,8 -20,5 -15,5 -20,-10 -8,-26 -10,-40 -18,-49 -18,-51 -20,-50 -18,-44 -20,-30 -16,-15 -48,25 -46,23 -48,25 -46,23 -48,23 -48,23 -48,18 -51,18 -28,-28 -28,-31 -26,-33 -25,-36 -23,-35 -23,-36 -20,-38 -20,-33 -8,-15 -5,-15 -8,-16 -10,-12 -53,33 -46,40 -43,41 -41,43 -45,41 -49,35 -56,28 -66,18 -30,-33 -36,-38 -35,-38 -38,-38 -39,-36 -40,-33 -38,-28 -41,-20 -38,25 -36,26 -38,25 -38,28 -38,26 -36,27 -38,26 -35,28 -26,20 -23,21 -25,20 -23,20 -25,23 -26,18 -25,20 -26,15 -17,8 -18,8 -20,2 -18,3 -28,-15 -38,-23 -49,-28 -50,-31 -51,-30 -43,-28 -33,-23 -18,-15 -59,261 -599,158 127,318 -13,25 -18,20 -25,18 -26,18 -33,13 -33,15 -35,10 -38,13 -38,10 -39,10 -35,10 -38,13 -33,13 -31,12 -28,16 -25,17 256,450 -45,46 -51,43 -56,41 -58,41 -56,40 -51,41 -46,46 -38,45 30,44 41,35 48,31 54,28 53,28 48,30 41,36 31,45 -13,36 -15,33 -18,36 -18,33 -15,33 -15,33 -11,35 -7,38 25,3 33,3 33,2 h 38 41 41 40 l 44,3 h 40 l 41,2 38,3 38,5 33,7 28,8 23,10 20,13 18,23 13,30 10,36 10,38 13,41 18,38 22,30 28,26 28,-13 28,-13 28,-15 28,-15 28,-13 28,-18 26,-15 27,-15 26,-15 28,-16 28,-17 25,-16 28,-15 28,-15 28,-13 z"
   id="path64"
   inkscape:connector-curvature="0"
   style="fill:#ffa514;stroke:none" />
         <path
   d="m 9735,16108 20,-10 23,-13 26,-15 25,-18 26,-18 28,-17 27,-21 31,-18 28,-17 28,-18 28,-15 25,-13 26,-13 25,-7 23,-6 20,-2 33,8 36,25 35,33 39,41 35,45 36,41 30,38 26,28 h 17 l 13,-10 10,-10 16,-8 12,-7 13,-11 13,-7 12,-8 13,-10 38,-30 36,-34 38,-33 38,-33 38,-33 38,-28 43,-25 44,-20 45,25 44,28 40,28 41,33 38,33 38,33 36,38 35,36 36,-5 35,-21 36,-38 33,-43 33,-48 28,-49 23,-43 20,-30 h 33 l 36,7 40,13 44,15 45,23 49,23 48,26 51,27 48,26 48,25 46,23 43,21 38,12 38,10 31,5 25,-5 21,-22 23,-46 22,-64 23,-73 23,-77 18,-71 15,-58 10,-38 18,-11 20,-7 26,-5 28,-5 28,-3 33,-2 h 30 l 33,-3 h 33 l 33,-3 h 28 l 28,-2 26,-5 23,-5 17,-8 13,-8 -203,-355 363,-295 v -5 l -7,-8 -13,-8 -21,-12 -25,-13 -30,-15 -33,-18 -36,-18 -36,-18 -38,-20 -35,-18 -38,-20 -33,-18 -31,-18 -28,-17 -23,-16 -15,-12 104,-343 -20,-18 -23,-15 -23,-13 -25,-10 -28,-8 -28,-8 -28,-5 -28,-5 -31,-5 -28,-2 -30,-8 -28,-5 -28,-8 -28,-7 -25,-13 -26,-13 v -76 l 13,-74 13,-71 7,-74 h -2 v -2 l -3,-3 v -2 l -526,38 -20,-36 -18,-35 -13,-36 -12,-40 -10,-39 -8,-38 -8,-40 -10,-39 -18,8 -20,10 -25,13 -26,15 -30,15 -31,18 -30,16 -33,17 -31,16 -33,12 -28,16 -28,10 -28,7 -23,5 -17,3 -16,-3 -28,-35 -27,-36 -23,-38 -21,-38 -20,-41 -15,-40 -15,-44 -13,-45 -5,-3 -5,-2 h -8 l -5,2 -51,41 -43,38 -41,41 -40,38 -44,33 -48,33 -56,25 -71,21 -38,-31 -36,-30 -35,-33 -33,-36 -36,-33 -38,-31 -38,-28 -41,-25 -38,15 -35,18 -36,20 -33,23 -33,26 -30,23 -34,28 -30,25 -30,28 -31,25 -33,26 -31,25 -33,26 -33,22 -35,21 -36,20 -300,-168 -17,38 2,46 5,49 -15,38 -18,15 -23,15 -28,15 -33,16 -38,15 -40,13 -41,15 -46,13 -43,12 -43,13 -43,13 -41,10 -38,10 -33,10 -31,10 -25,8 5,36 8,40 10,43 15,44 15,43 16,40 17,39 16,33 -13,10 -20,15 -23,15 -28,18 -33,18 -33,20 -33,21 -36,17 -36,18 -35,18 -36,15 -30,10 -28,11 -26,5 -20,2 -15,-2 18,61 25,58 28,56 31,56 30,58 23,59 18,61 5,63 v 21 5 h -8 l -10,7 -20,23 -23,23 -21,26 -22,25 -21,25 -23,23 -22,23 -23,20 -16,11 -15,10 -18,7 -15,8 -18,8 -15,7 -15,13 -15,13 15,30 18,10 33,18 38,28 46,31 45,33 43,30 33,26 23,15 -7,23 -13,33 -18,40 -18,44 -15,45 -13,38 -7,28 v 16 l 23,2 h 28 30 33 l 33,-2 36,-3 h 38 l 36,-2 35,-3 h 36 l 33,3 h 30 l 31,5 23,5 22,10 16,10 12,15 13,23 13,31 12,33 16,33 15,35 18,28 18,26 30,-3 28,-7 30,-11 31,-12 30,-16 31,-17 30,-18 28,-20 28,-18 28,-18 26,-18 23,-13 20,-10 20,-7 15,-5 16,2 30,15 31,26 33,30 30,31 33,33 36,30 41,28 z"
   id="path66"
   inkscape:connector-curvature="0"
   style="fill:#000000;stroke:none" />
         <path
   d="m 9705,16052 h 61 l 12,-2 13,-8 18,-10 20,-13 21,-18 25,-17 25,-18 28,-21 28,-20 31,-18 30,-18 33,-15 33,-15 36,-8 33,-7 h 35 l 26,23 30,33 36,40 38,41 38,38 36,36 28,25 20,13 28,-15 28,-18 25,-21 26,-20 25,-23 26,-23 22,-23 26,-22 23,-23 25,-21 26,-20 27,-18 26,-18 30,-12 31,-13 33,-8 41,28 43,28 40,28 41,31 38,33 38,33 36,33 35,36 h 6 l 5,-3 h 2 l 5,-3 23,-33 23,-33 23,-33 23,-33 23,-33 20,-33 23,-33 23,-33 28,-8 h 33 l 38,8 40,13 44,18 48,22 48,23 48,28 49,28 48,26 46,25 43,26 43,17 38,18 33,10 28,3 21,-18 25,-43 23,-64 25,-76 23,-79 20,-73 18,-61 13,-39 43,-22 46,-11 48,-2 h 51 l 48,2 49,-2 48,-10 43,-21 -23,-38 -25,-38 -28,-41 -26,-40 -23,-41 -20,-43 -18,-41 -12,-43 30,-36 43,-40 49,-41 50,-41 51,-40 43,-36 34,-33 20,-25 -404,-224 v -48 l 10,-46 15,-43 21,-43 17,-41 21,-43 15,-43 8,-46 -18,-8 -23,-5 -28,-8 -31,-7 -35,-10 -38,-8 -38,-10 -38,-10 -39,-10 -35,-11 -33,-10 -31,-12 -23,-13 -17,-13 -11,-13 -2,-12 33,-262 h -31 l -30,2 -30,3 -31,3 -30,5 -31,5 -30,5 -31,2 -30,5 -28,6 -31,5 -28,5 -28,2 -28,3 -25,2 h -26 -12 l -13,-2 -13,-8 -7,-10 -89,-275 -18,-5 -46,26 -46,28 -48,25 -48,26 -48,22 -49,23 -48,21 -51,20 -30,-36 -26,-38 -22,-38 -21,-40 -20,-41 -20,-43 -23,-41 -23,-38 -36,28 -43,35 -48,41 -54,41 -53,38 -51,33 -48,20 -43,8 -36,-10 -38,-28 -38,-36 -41,-46 -40,-43 -46,-38 -46,-28 -48,-15 -33,20 -31,23 -33,23 -30,25 -31,23 -30,26 -31,25 -30,23 -31,25 -30,26 -31,23 -30,23 -33,22 -33,23 -33,21 -33,20 -254,-163 -5,115 -6,12 -15,16 -25,15 -33,18 -36,17 -43,18 -46,18 -51,20 -48,18 -51,15 -48,16 -46,12 -40,13 -36,8 -30,5 -23,2 5,38 10,39 10,43 15,40 16,44 15,38 18,38 15,33 -18,15 -20,18 -23,15 -25,18 -26,15 -30,18 -28,15 -33,16 -31,15 -30,15 -31,13 -30,12 -28,13 -28,10 -26,10 -23,11 168,442 -18,35 -30,41 -41,43 -43,44 -48,40 -46,36 -41,33 -35,23 264,188 v 23 l -5,33 -10,40 -13,41 -13,41 -15,35 -13,31 -12,18 432,-6 28,26 23,28 17,33 16,33 12,35 16,36 15,33 18,33 22,-15 26,-15 28,-16 28,-15 30,-13 31,-17 28,-18 28,-18 68,-48 59,-21 h 51 l 43,18 43,31 43,43 46,51 z"
   id="path68"
   inkscape:connector-curvature="0"
   style="fill:#ffff00;stroke:none" />
         <path
   d="m 12213,15318 17,-8 18,-5 21,-5 17,-8 18,-5 18,-7 15,-11 15,-15 -12,-20 -16,-18 -17,-15 -21,-10 -23,-13 -20,-8 -23,-10 -20,-10 2,-36 8,-40 5,-44 -2,-33 -8,-2 h -10 -10 -8 l -102,112 -149,-41 -26,15 79,150 -81,145 22,15 h 16 l 17,-2 16,-3 15,-5 18,-5 15,-5 15,-3 15,-5 69,100 25,2 21,-8 15,-15 10,-23 8,-25 5,-26 5,-27 z"
   id="path70"
   inkscape:connector-curvature="0"
   style="fill:#000000;stroke:none" />
         <path
   d="m 11389,15719 18,-43 -5,-43 -8,-46 3,-48 18,-8 18,-7 15,-8 18,-8 15,-10 13,-13 12,-12 10,-18 -17,-13 -18,-7 -21,-6 -20,-2 -20,-3 -20,-2 -21,-5 -20,-10 -28,-168 -13,-8 -13,5 -15,13 -15,18 -13,23 -12,20 -13,23 -8,18 -5,12 -20,8 -23,3 -25,-3 -26,-5 -25,-5 h -26 l -25,2 -23,13 -10,23 13,15 15,15 18,13 17,13 16,15 15,15 13,16 10,20 -59,140 16,25 157,-63 97,99 z"
   id="path72"
   inkscape:connector-curvature="0"
   style="fill:#000000;stroke:none" />
         <path
   d="m 12162,14581 -10,-13 -201,-69 -5,3 -5,7 2,3 v 0 3 l -2,2 20,5 28,10 33,13 33,13 33,12 28,11 25,7 13,3 h 3 l 2,-3 3,-5 z"
   id="path74"
   inkscape:connector-curvature="0"
   style="fill:#000000;stroke:none" />
         <path
   d="m 12040,14629 -10,-15 -18,-18 -20,-18 -26,-18 -25,-15 -23,-15 -23,-8 -20,-5 -13,13 109,137 h 23 l 18,-8 15,-15 z"
   id="path76"
   inkscape:connector-curvature="0"
   style="fill:#000000;stroke:none" />
         <path
   d="m 11786,14576 68,-92 -2,-28 -21,-20 -12,5 -13,5 -13,8 -12,7 -26,-33 -25,-30 -23,-31 -23,-28 -28,-25 -30,-18 -38,-10 -46,-5 -36,2 -33,3 -30,7 -28,8 -26,10 -23,10 -22,13 -23,15 -23,16 -20,15 -23,15 -23,15 -23,16 -25,15 -26,15 -30,13 -38,15 -41,10 -41,8 -40,7 -44,6 -40,5 -41,5 -41,10 117,79 -86,86 v 5 8 l 2,7 3,5 137,21 -25,61 30,25 204,-76 2,-23 v -25 l 3,-23 15,-21 63,56 59,-30 h 7 l 11,10 2,10 v 10 l -2,8 2,10 8,10 20,16 31,15 5,10 -5,10 -8,5 -13,3 h -15 -13 -12 -11 l -33,63 -17,-5 -21,-10 -25,-10 -26,-10 -33,-8 -38,3 -40,12 -49,26 -2,7 2,11 5,10 3,7 -175,145 5,10 10,8 10,5 10,5 21,-7 20,-6 20,-2 23,-5 20,-3 23,-2 h 21 l 23,-3 22,13 -7,38 -13,41 -10,40 5,39 10,5 99,-72 33,69 28,-15 23,-18 23,-23 20,-23 18,-25 18,-28 18,-26 20,-22 36,-33 40,-26 46,-23 46,-20 48,-20 46,-18 43,-21 41,-22 25,-23 15,-33 10,-38 5,-41 v -41 l -2,-40 -5,-36 z"
   id="path78"
   inkscape:connector-curvature="0"
   style="fill:#000000;stroke:none" />
         <path
   d="m 10932,15501 -3,-21 -10,-20 -18,-15 -17,-16 -21,-15 -15,-12 -10,-16 v -18 l 10,-10 10,-15 10,-20 11,-21 10,-22 10,-21 8,-18 7,-15 -5,-10 -165,10 -147,-96 h -6 l -12,7 -5,173 -16,8 -17,7 -18,5 -18,5 -15,8 -18,8 -15,10 -13,13 8,12 10,10 10,8 15,3 13,5 15,2 13,5 13,8 h 17 l 18,5 18,5 15,8 5,35 -2,36 5,35 20,31 15,-5 16,-5 15,-8 15,-10 13,-10 13,-13 10,-13 7,-12 176,7 z"
   id="path80"
   inkscape:connector-curvature="0"
   style="fill:#000000;stroke:none" />
         <path
   d="m 11760,14606 -7,-5 -16,13 v 45 l 3,44 -8,40 -22,41 -49,5 h -38 l -33,-3 -25,-10 -21,-15 -20,-25 -18,-36 -18,-48 16,-13 h 2 l 74,69 15,-10 v -21 l -2,-15 2,-18 3,-18 28,-15 30,-13 33,-12 31,-16 30,-15 26,-18 25,-22 18,-28 -5,-6 -21,16 -25,20 -33,20 -36,23 -35,18 -36,13 -28,5 -23,-5 -2,-10 7,-23 -53,-66 -18,7 -2,16 -5,17 -23,13 -15,-15 -13,-26 -8,-30 v -36 l 5,-33 18,-30 26,-21 38,-7 40,5 31,10 23,18 20,20 15,26 15,28 16,30 18,28 27,-18 -5,-38 -15,-36 -23,-30 -28,-28 -33,-20 -35,-18 -36,-10 -38,-3 -25,5 -23,13 -26,18 -20,23 -18,28 -12,25 -11,28 -2,23 5,61 13,58 20,56 28,51 35,46 44,38 48,33 56,25 7,3 h 11 l 15,-3 15,-2 15,-3 13,-2 10,-5 5,-5 10,-21 11,-23 10,-20 10,-23 v -23 l -3,-40 -2,-44 z"
   id="path82"
   inkscape:connector-curvature="0"
   style="fill:#7f003f;stroke:none" />
         <path
   d="m 12131,14446 -211,2 -2,3 -3,3 -2,5 v 2 5 l 198,36 5,-8 5,-18 8,-20 z"
   id="path84"
   inkscape:connector-curvature="0"
   style="fill:#000000;stroke:none" />
         <path
   d="m 11615,14878 -73,-36 -64,-50 -51,-61 -35,-72 -23,-76 -8,-81 8,-79 28,-76 -25,18 -28,17 -28,18 -31,18 -30,18 -31,18 -33,15 -33,15 -33,15 -33,13 -33,13 -33,10 -33,7 -33,8 -33,3 -31,2 89,36 5,12 -5,16 -12,15 -16,13 -17,15 -18,13 -15,12 -11,11 138,17 10,16 -3,12 -5,13 -7,10 -11,8 41,-5 31,-10 25,-11 18,-15 15,-20 13,-26 7,-30 10,-38 6,-3 5,-2 h 2 5 l 79,66 74,-41 33,86 53,28 13,18 10,21 5,20 -5,20 -89,5 -51,71 h -13 l -12,-2 -10,-5 -11,-5 -10,-5 -10,-8 -10,-8 -8,-7 -134,7 -3,5 13,16 -13,23 -18,17 -17,16 -21,15 -23,13 -20,15 -20,15 -16,20 188,-12 -30,157 102,-81 10,5 18,71 h 2 5 3 l 2,-2 23,-21 23,-25 20,-23 21,-28 20,-25 20,-23 23,-26 26,-20 20,-13 23,-12 25,-11 26,-12 23,-10 22,-13 21,-13 z"
   id="path86"
   inkscape:connector-curvature="0"
   style="fill:#ff0000;stroke:none" />
         <path
   d="m 11694,14634 -18,-3 -17,6 -16,7 -15,10 3,28 -3,21 -7,22 -18,21 10,7 10,3 13,3 h 10 10 l 13,-3 10,-5 10,-3 10,-30 3,-28 v -26 z"
   id="path88"
   inkscape:connector-curvature="0"
   style="fill:#ff0000;stroke:none" />
         <path
   d="m 11979,14293 v -20 l -10,-15 -16,-15 -15,-11 -15,11 -15,17 -18,26 -15,28 -13,28 -10,28 -5,20 2,15 21,10 38,-7 5,-5 15,-31 13,-28 15,-23 z"
   id="path90"
   inkscape:connector-curvature="0"
   style="fill:#000000;stroke:none" />
         <path
   d="m 11676,14535 -7,-26 -15,-28 -18,-27 -21,-28 -25,-23 -25,-16 -28,-7 -31,5 -12,15 -11,20 -5,21 5,18 h 3 5 8 7 13 l 15,2 15,3 18,5 51,81 z"
   id="path92"
   inkscape:connector-curvature="0"
   style="fill:#ff0000;stroke:none" />
         <path
   d="m 11829,14372 15,-198 v -3 l -2,-2 v 0 l -3,-3 -15,46 -13,59 -2,61 10,45 h 2 l 3,-2 h 2 z"
   id="path94"
   inkscape:connector-curvature="0"
   style="fill:#000000;stroke:none" />
         <path
   d="m 11791,14326 -84,-238 h -10 -13 l -13,2 h -12 l -16,3 -12,5 -8,5 -8,5 v 5 l 153,221 5,3 h 5 3 l 5,-3 z"
   id="path96"
   inkscape:connector-curvature="0"
   style="fill:#000000;stroke:none" />
         <path
   d="m 10912,14990 v -3 h -3 l -2,-2 h -3 l -163,58 v 13 l 11,10 15,10 13,8 12,5 5,-3 13,-10 18,-15 20,-18 20,-15 21,-15 15,-13 8,-8 v 0 z"
   id="path98"
   inkscape:connector-curvature="0"
   style="fill:#000000;stroke:none" />
         <path
   d="m 10975,14921 3,-2 2,-3 v -5 l -2,-3 -178,26 -3,13 8,10 z"
   id="path100"
   inkscape:connector-curvature="0"
   style="fill:#000000;stroke:none" />
         <path
   d="m 10068,15343 -13,8 99,127 21,-3 2,-2 v -3 -2 l -2,-3 -18,-10 -15,-15 -16,-13 -12,-15 -13,-18 -13,-15 -10,-18 z"
   id="path102"
   inkscape:connector-curvature="0"
   style="fill:#000000;stroke:none" />
         <path
   d="m 10167,15341 5,-6 10,-10 5,-10 3,-5 -8,-5 -17,-10 -23,-13 -28,-15 -28,-15 -28,-11 -20,-10 -11,-2 -2,-3 -8,5 -7,5 -3,8 3,10 15,13 13,15 12,13 15,15 13,13 13,12 15,13 15,10 11,-7 12,-5 10,-3 z"
   id="path104"
   inkscape:connector-curvature="0"
   style="fill:#000000;stroke:none" />
         <path
   d="m 9827,15539 -69,-99 23,-26 23,-33 18,-38 5,-33 -23,-5 -21,-3 -20,3 h -20 l -18,2 -20,-2 -23,-5 -26,-10 -12,-21 -21,-17 -20,-16 -18,-17 -12,-6 -8,6 -8,7 -7,8 -8,7 5,105 -18,5 -25,5 -28,5 -28,2 -28,5 -25,8 -18,10 -10,16 12,25 18,5 18,5 18,5 18,5 17,8 18,8 18,7 15,8 10,23 16,33 10,30 -3,23 8,43 20,10 h 18 l 15,-7 15,-13 13,-18 10,-17 10,-21 8,-15 13,-8 13,3 20,5 23,8 25,5 23,2 18,-2 15,-8 z"
   id="path106"
   inkscape:connector-curvature="0"
   style="fill:#000000;stroke:none" />
         <path
   d="m 10785,14753 -5,-12 -16,-3 -25,5 -31,8 -30,15 -28,13 -25,10 -16,8 -2,2 v 3 2 3 l 18,-5 20,-8 23,-8 25,-7 26,-8 22,-5 21,-2 h 15 z"
   id="path108"
   inkscape:connector-curvature="0"
   style="fill:#000000;stroke:none" />
         <path
   d="m 9941,15165 38,-18 3,-7 v -16 l -89,-53 -5,-48 -181,-127 -56,30 -63,-43 53,-51 -101,-76 20,-41 h 15 13 l 15,5 13,5 12,8 13,8 13,5 13,5 5,-8 5,-25 h 7 l 11,5 2,13 3,12 2,16 5,15 10,10 18,8 28,2 -8,81 148,92 13,-3 12,-22 v -26 l 16,-10 20,-8 h 23 l 20,-5 13,-7 v -21 l -18,-33 10,-17 89,10 25,-26 -10,-30 -12,-21 -18,-20 -21,-23 h -2 l -3,-2 v -3 -2 l 21,-8 23,-8 22,-5 21,-5 23,-7 20,-11 18,-10 18,-18 2,-10 -41,-12 -40,-13 -41,-13 -38,-13 -38,-12 -38,-13 -38,-15 -36,-13 -35,-15 -39,-18 -35,-18 -36,-18 -35,-20 -36,-20 -35,-23 -39,-26 -15,-10 -15,-10 -15,-10 -16,-8 -17,-7 -18,-8 -18,-2 -18,-3 -48,5 -48,15 -46,26 -43,33 -41,38 -35,43 -31,48 -25,49 -21,51 -12,53 -8,48 3,49 7,43 21,38 27,30 39,26 22,10 26,8 25,7 26,8 23,10 25,8 25,7 23,10 28,13 33,18 36,18 35,20 41,23 41,25 40,26 41,28 41,25 40,31 36,28 35,27 31,28 25,26 23,25 18,26 20,-8 5,-20 -5,-28 -12,-31 -16,-33 -15,-30 -10,-23 z"
   id="path110"
   inkscape:connector-curvature="0"
   style="fill:#000000;stroke:none" />
         <path
   d="m 10846,14644 -11,-15 -20,-10 -25,-5 -31,-3 -30,-2 h -31 -25 -18 l -33,81 25,2 h 26 l 23,-5 25,-7 25,-5 26,-5 25,-6 h 26 l 7,-5 5,-5 5,-5 z"
   id="path112"
   inkscape:connector-curvature="0"
   style="fill:#000000;stroke:none" />
         <path
   d="m 11166,14375 12,-10 v -18 l -2,-18 -8,-15 -10,-16 -10,-12 -13,-15 -12,-13 -13,-15 10,-16 15,-20 15,-23 13,-25 10,-23 5,-23 -5,-18 -12,-15 -163,43 -109,-104 h -3 -2 l -5,2 h -3 l -13,39 v 43 l 3,40 -8,41 -12,5 -18,5 -21,8 -22,8 -21,10 -18,10 -12,10 -8,10 13,15 13,13 15,10 18,10 17,6 18,7 18,5 18,8 15,33 10,38 13,36 25,23 94,-89 z"
   id="path114"
   inkscape:connector-curvature="0"
   style="fill:#000000;stroke:none" />
         <path
   d="m 9890,15168 5,-13 10,-8 11,-10 7,-10 -84,-36 -5,-22 16,-28 -140,-100 -5,3 2,20 -5,13 -15,-2 -23,-8 -28,-13 -28,-15 -28,-15 -23,-18 -17,-15 -6,-13 54,-51 -59,-35 -160,104 36,23 35,22 39,21 38,18 38,20 35,18 38,18 39,20 38,23 38,28 38,28 35,28 36,30 33,28 36,31 33,30 -8,-18 -20,-35 -23,-38 z"
   id="path116"
   inkscape:connector-curvature="0"
   style="fill:#ff0000;stroke:none" />
         <path
   d="m 10363,14954 v 0 l 2,-2 v 0 -3 l -7,-8 -18,-15 -18,-20 -23,-20 -20,-21 -20,-18 -16,-10 -7,-5 h -5 l -8,5 -5,3 -5,5 v 2 l 2,3 v 5 3 l 28,15 21,30 15,33 10,33 h 3 l 5,3 2,5 h 5 l 16,-5 15,-5 13,-5 z"
   id="path118"
   inkscape:connector-curvature="0"
   style="fill:#000000;stroke:none" />
         <path
   d="m 10459,14830 -2,-8 -234,-69 -10,6 v 10 l 30,7 28,8 31,5 33,5 28,10 30,10 28,13 26,18 z"
   id="path120"
   inkscape:connector-curvature="0"
   style="fill:#000000;stroke:none" />
         <path
   d="m 10419,14743 5,-25 -41,-71 -23,5 -25,5 -23,7 -25,6 -23,7 -23,10 -23,8 -23,13 v 7 l 3,3 2,5 3,5 208,20 z"
   id="path122"
   inkscape:connector-curvature="0"
   style="fill:#000000;stroke:none" />
         <path
   d="m 10083,14789 -10,-20 -25,-23 -21,-31 -2,-43 122,-35 -36,-13 -38,-13 -38,-13 -36,-10 -38,-12 -38,-13 -35,-15 -36,-16 -25,-12 -26,-16 -23,-12 -25,-16 -25,-15 -23,-15 -26,-15 -25,-13 -13,63 -10,61 -13,64 -28,69 13,10 13,7 15,6 15,2 15,-18 16,-12 18,-3 22,5 36,87 15,5 13,2 15,3 13,7 -18,92 92,53 v -13 -10 l 2,-12 5,-11 79,-5 5,-10 -8,-18 -12,-17 -13,-18 -5,-21 8,-7 134,15 z"
   id="path124"
   inkscape:connector-curvature="0"
   style="fill:#ff0000;stroke:none" />
         <path
   d="m 10574,14255 -8,-33 3,-35 10,-36 10,-30 127,-44 15,-17 -15,-16 -18,-10 -23,-7 -20,-6 -23,-7 -18,-8 -17,-10 -13,-15 -10,-31 -3,-35 -7,-36 -16,-30 -2,-5 -5,-3 -8,-3 -5,3 -89,84 -142,-74 -10,3 -18,20 v 20 l 7,23 16,23 15,23 15,23 8,23 -5,23 -16,7 -17,15 -18,18 -18,23 -15,23 -13,23 -10,20 -3,18 18,13 26,7 h 30 38 l 36,-2 h 35 31 l 23,2 89,89 7,-2 10,-10 11,-11 z"
   id="path126"
   inkscape:connector-curvature="0"
   style="fill:#000000;stroke:none" />
         <path
   d="m 9024,15480 7,-10 v -18 l -5,-15 -7,-13 -11,-15 -12,-10 -16,-13 -12,-12 -13,-11 18,-28 13,-30 10,-31 2,-33 -7,-5 -5,-7 -8,-8 -3,-8 -17,6 -18,2 -18,5 -18,5 -20,5 -18,5 -18,3 -17,5 -11,-3 -15,-7 -18,-13 -20,-15 -20,-15 -23,-13 -23,-8 h -20 l -5,38 7,36 8,36 -5,25 -16,3 -20,2 -25,8 -26,7 -25,11 -20,10 -16,10 -7,13 18,15 25,13 25,7 31,8 28,5 23,7 20,6 10,10 18,38 18,38 15,38 18,38 15,3 36,-18 v -25 l 5,-28 7,-23 13,-23 z"
   id="path128"
   inkscape:connector-curvature="0"
   style="fill:#000000;stroke:none" />
         <path
   d="m 10203,14349 v -5 l -71,-94 12,-20 18,-23 18,-25 15,-28 10,-26 v -25 l -10,-21 -25,-17 -13,10 -20,10 -21,10 -23,8 -22,5 -26,2 -20,3 -18,-3 -91,-96 h -6 l -22,15 -3,38 8,26 7,25 3,31 -18,15 -20,7 -21,5 -22,6 -23,2 -21,8 -17,10 -13,15 5,18 15,13 23,10 25,5 28,5 26,5 23,5 15,10 10,16 8,17 10,18 13,13 -3,25 3,21 7,17 13,21 h 23 l 15,-10 13,-16 10,-17 10,-18 10,-16 13,-10 18,-2 106,18 z"
   id="path130"
   inkscape:connector-curvature="0"
   style="fill:#000000;stroke:none" />
         <path
   d="m 12185,15292 124,-40 -28,-39 -28,-15 -28,-2 h -23 l -20,-8 -10,-20 v -46 l 10,-81 -104,117 -13,-13 -15,-10 -15,-11 -15,-10 -18,-7 -16,-5 -17,-3 h -18 l 28,46 18,38 10,28 2,23 -5,23 -15,25 -20,28 -31,38 117,-7 3,-3 5,-3 2,-2 5,-3 51,94 15,8 16,-18 12,-43 13,-48 z"
   id="path132"
   inkscape:connector-curvature="0"
   style="fill:#33cc33;stroke:none" />
         <path
   d="m 11372,15526 96,-53 -10,-10 -15,-8 -16,-5 -20,-3 -18,-5 -20,-2 -15,-5 -15,-6 -13,-33 -13,-35 -8,-36 3,-35 -66,117 -10,2 h -18 l -25,-2 -28,-3 -31,-5 -28,-3 -20,-2 -13,-3 109,105 -10,38 -18,38 -20,33 -10,30 8,8 122,-51 h 12 l 13,8 15,15 15,18 16,18 18,17 12,16 15,7 13,-28 -5,-43 -8,-51 z"
   id="path134"
   inkscape:connector-curvature="0"
   style="fill:#bf00bf;stroke:none" />
         <path
   d="m 10886,15475 -89,-84 69,-145 -145,13 -114,-89 -10,38 7,41 8,41 -5,40 -112,44 13,10 17,7 18,8 23,3 20,5 21,2 20,5 15,3 5,5 -5,23 -2,30 v 33 26 l 7,5 h 13 l 13,-5 15,-8 13,-13 12,-12 11,-13 10,-10 7,-10 18,2 21,3 17,5 18,2 15,3 h 18 20 18 z"
   id="path136"
   inkscape:connector-curvature="0"
   style="fill:#ff7cc4;stroke:none" />
         <path
   d="m 9717,15427 66,-81 -30,-13 -20,-3 -16,5 -12,6 h -18 l -23,-11 -36,-25 -50,-46 2,23 3,20 2,23 v 23 l -5,15 -15,13 -23,5 -25,5 -28,3 h -26 l -20,2 -15,3 -3,2 -2,3 -3,5 v 3 l 15,10 21,10 23,8 25,5 23,7 20,10 18,13 8,15 2,16 5,28 5,28 v 15 7 l -2,8 v 10 l 2,8 h 10 l 31,-43 18,-31 15,-18 13,-10 15,-2 20,5 28,10 43,13 v -3 z"
   id="path138"
   inkscape:connector-curvature="0"
   style="fill:#bf00bf;stroke:none" />
         <path
   d="m 11135,14339 -30,-41 -23,-27 -15,-23 -3,-18 3,-20 15,-21 23,-30 30,-38 -145,48 -91,-89 -3,5 v 28 l 3,28 v 30 28 l -114,51 12,15 18,13 23,8 23,7 20,8 15,8 8,15 -3,18 23,71 33,-36 26,-23 15,-15 15,-10 h 18 l 23,3 33,7 46,8 v -3 l 2,-2 v 0 z"
   id="path140"
   inkscape:connector-curvature="0"
   style="fill:#ff7ffc;stroke:none" />
         <path
   d="m 10538,14123 8,-18 117,-45 -110,-46 -10,-33 3,-31 -3,-33 -15,-35 -74,78 -147,-68 8,15 12,18 10,20 13,21 10,20 5,20 3,18 -5,15 -18,10 -18,13 -15,13 -15,15 -13,18 -10,18 -8,17 -7,21 190,-8 89,92 3,-26 5,-40 v -36 z"
   id="path142"
   inkscape:connector-curvature="0"
   style="fill:#33cc66;stroke:none" />
         <path
   d="m 8980,15445 -68,-69 53,-117 -12,-13 h -18 l -18,3 -18,8 -15,7 -15,8 -18,5 -18,3 h -20 l -13,-11 -10,-10 -13,-7 -13,-8 -12,-8 -15,-7 -13,-8 -13,-5 23,94 -13,15 -15,13 -18,8 -18,5 -17,2 -21,3 -20,2 -18,5 143,56 58,127 46,-96 h 137 z"
   id="path144"
   inkscape:connector-curvature="0"
   style="fill:#00ffff;stroke:none" />
         <path
   d="m 10170,14118 -18,-3 -20,3 -18,3 -21,7 -17,8 -18,7 -18,8 -18,5 -96,-71 5,102 -127,33 142,48 13,30 15,31 10,30 -2,34 68,-82 82,5 -6,-20 -12,-18 -10,-15 -5,-20 10,-28 25,-31 26,-30 z"
   id="path146"
   inkscape:connector-curvature="0"
   style="fill:#00ffff;stroke:none" />
         <path
   d="m 9534,14344 -55,-5 -56,13 -54,23 -51,35 -45,44 -38,48 -26,51 -13,53 -10,20 -5,33 -2,33 v 26 25 l 2,23 5,23 10,20 26,36 28,23 30,10 h 33 l 33,-8 36,-17 36,-26 33,-30 33,-36 30,-38 28,-41 23,-43 20,-41 15,-43 11,-38 2,-36 -2,-40 -5,-28 -8,-18 -10,-13 -13,-7 -13,-8 -15,-8 z"
   id="path148"
   inkscape:connector-curvature="0"
   style="fill:#7f007f;stroke:none" />
         <path
   d="m 9463,14680 -7,-3 -13,3 -18,7 -20,8 -18,10 -18,10 -15,8 -10,5 -8,-5 -2,-31 7,-35 16,-36 20,-33 23,-33 25,-28 28,-25 26,-15 40,5 8,17 v 16 l -3,15 -5,18 8,10 23,-28 15,-25 5,-26 -3,-25 -10,-26 -17,-20 -23,-23 -28,-18 -51,13 -48,25 -46,39 -38,43 -33,53 -26,53 -15,54 -5,53 10,69 28,38 38,18 43,-5 46,-18 38,-33 26,-38 10,-41 z"
   id="path150"
   inkscape:connector-curvature="0"
   style="fill:#000000;stroke:none" />
         <path
   d="m 9400,14761 -3,-2 v 0 l -2,-3 h -3 l -15,5 -13,3 -13,2 -17,3 -31,-28 3,-43 12,-49 18,-48 28,-48 31,-44 38,-33 43,-22 46,-8 -26,-31 h -38 l -43,23 -46,41 -43,51 -36,58 -22,56 -11,54 6,45 15,31 20,18 23,7 h 25 l 23,-10 21,-13 z"
   id="path152"
   inkscape:connector-curvature="0"
   style="fill:#ff0000;stroke:none" />
        </g>
       </g>
      </g>
     </g>
    </g>
   </g>
  </g>
 </g>
</svg>