<?xml version="1.0" encoding="UTF-8" standalone="no"?>
<svg
   xmlns:ooo="http://xml.openoffice.org/svg/export"
   xmlns:dc="http://purl.org/dc/elements/1.1/"
   xmlns:cc="http://creativecommons.org/ns#"
   xmlns:rdf="http://www.w3.org/1999/02/22-rdf-syntax-ns#"
   xmlns:svg="http://www.w3.org/2000/svg"
   xmlns="http://www.w3.org/2000/svg"
   xmlns:sodipodi="http://sodipodi.sourceforge.net/DTD/sodipodi-0.dtd"
   xmlns:inkscape="http://www.inkscape.org/namespaces/inkscape"
   version="1.2"
   width="38.400002mm"
   height="18.289999mm"
   viewBox="0 0 3840.0002 1828.9999"
   preserveAspectRatio="xMidYMid"
   xml:space="preserve"
   id="svg153"
   sodipodi:docname="fish12.svg"
   style="fill-rule:evenodd;stroke-width:28.22200012;stroke-linejoin:round"
   inkscape:version="0.92.5 (2060ec1f9f, 2020-04-08)"><metadata
   id="metadata157"><rdf:RDF><cc:Work
       rdf:about=""><dc:format>image/svg+xml</dc:format><dc:type
         rdf:resource="http://purl.org/dc/dcmitype/StillImage" /></cc:Work></rdf:RDF></metadata><sodipodi:namedview
   pagecolor="#ffffff"
   bordercolor="#666666"
   borderopacity="1"
   objecttolerance="10"
   gridtolerance="10"
   guidetolerance="10"
   inkscape:pageopacity="0"
   inkscape:pageshadow="2"
   inkscape:window-width="664"
   inkscape:window-height="487"
   id="namedview155"
   showgrid="false"
   inkscape:zoom="0.2102413"
   inkscape:cx="72.56693"
   inkscape:cy="34.54488"
   inkscape:window-x="0"
   inkscape:window-y="0"
   inkscape:window-maximized="0"
   inkscape:current-layer="svg153" />
 <defs
   class="ClipPathGroup"
   id="defs8">
  <clipPath
   id="presentation_clip_path"
   clipPathUnits="userSpaceOnUse">
   <rect
   x="0"
   y="0"
   width="21000"
   height="29700"
   id="rect2" />
  </clipPath>
  <clipPath
   id="presentation_clip_path_shrink"
   clipPathUnits="userSpaceOnUse">
   <rect
   x="21"
   y="29"
   width="20958"
   height="29641"
   id="rect5" />
  </clipPath>
 </defs>
 <defs
   class="TextShapeIndex"
   id="defs12">
  <g
   ooo:slide="id1"
   ooo:id-list="id3"
   id="g10" />
 </defs>
 <defs
   class="EmbeddedBulletChars"
   id="defs44">
  <g
   id="bullet-char-template-57356"
   transform="matrix(4.8828125e-4,0,0,-4.8828125e-4,0,0)">
   <path
   d="M 580,1141 1163,571 580,0 -4,571 Z"
   id="path14"
   inkscape:connector-curvature="0" />
  </g>
  <g
   id="bullet-char-template-57354"
   transform="matrix(4.8828125e-4,0,0,-4.8828125e-4,0,0)">
   <path
   d="M 8,1128 H 1137 V 0 H 8 Z"
   id="path17"
   inkscape:connector-curvature="0" />
  </g>
  <g
   id="bullet-char-template-10146"
   transform="matrix(4.8828125e-4,0,0,-4.8828125e-4,0,0)">
   <path
   d="M 174,0 602,739 174,1481 1456,739 Z M 1358,739 309,1346 659,739 Z"
   id="path20"
   inkscape:connector-curvature="0" />
  </g>
  <g
   id="bullet-char-template-10132"
   transform="matrix(4.8828125e-4,0,0,-4.8828125e-4,0,0)">
   <path
   d="M 2015,739 1276,0 H 717 l 543,543 H 174 v 393 h 1086 l -543,545 h 557 z"
   id="path23"
   inkscape:connector-curvature="0" />
  </g>
  <g
   id="bullet-char-template-10007"
   transform="matrix(4.8828125e-4,0,0,-4.8828125e-4,0,0)">
   <path
   d="m 0,-2 c -7,16 -16,29 -25,39 l 381,530 c -94,256 -141,385 -141,387 0,25 13,38 40,38 9,0 21,-2 34,-5 21,4 42,12 65,25 l 27,-13 111,-251 280,301 64,-25 24,25 c 21,-10 41,-24 62,-43 C 886,937 835,863 770,784 769,783 710,716 594,584 L 774,223 c 0,-27 -21,-55 -63,-84 l 16,-20 C 717,90 699,76 672,76 641,76 570,178 457,381 L 164,-76 c -22,-34 -53,-51 -92,-51 -42,0 -63,17 -64,51 -7,9 -10,24 -10,44 0,9 1,19 2,30 z"
   id="path26"
   inkscape:connector-curvature="0" />
  </g>
  <g
   id="bullet-char-template-10004"
   transform="matrix(4.8828125e-4,0,0,-4.8828125e-4,0,0)">
   <path
   d="M 285,-33 C 182,-33 111,30 74,156 52,228 41,333 41,471 c 0,78 14,145 41,201 34,71 87,106 158,106 53,0 88,-31 106,-94 l 23,-176 c 8,-64 28,-97 59,-98 l 735,706 c 11,11 33,17 66,17 42,0 63,-15 63,-46 V 965 c 0,-36 -10,-64 -30,-84 L 442,47 C 390,-6 338,-33 285,-33 Z"
   id="path29"
   inkscape:connector-curvature="0" />
  </g>
  <g
   id="bullet-char-template-9679"
   transform="matrix(4.8828125e-4,0,0,-4.8828125e-4,0,0)">
   <path
   d="M 813,0 C 632,0 489,54 383,161 276,268 223,411 223,592 c 0,181 53,324 160,431 106,107 249,161 430,161 179,0 323,-54 432,-161 108,-107 162,-251 162,-431 0,-180 -54,-324 -162,-431 C 1136,54 992,0 813,0 Z"
   id="path32"
   inkscape:connector-curvature="0" />
  </g>
  <g
   id="bullet-char-template-8226"
   transform="matrix(4.8828125e-4,0,0,-4.8828125e-4,0,0)">
   <path
   d="m 346,457 c -73,0 -137,26 -191,78 -54,51 -81,114 -81,188 0,73 27,136 81,188 54,52 118,78 191,78 73,0 134,-26 185,-79 51,-51 77,-114 77,-187 0,-75 -25,-137 -76,-188 -50,-52 -112,-78 -186,-78 z"
   id="path35"
   inkscape:connector-curvature="0" />
  </g>
  <g
   id="bullet-char-template-8211"
   transform="matrix(4.8828125e-4,0,0,-4.8828125e-4,0,0)">
   <path
   d="M -4,459 H 1135 V 606 H -4 Z"
   id="path38"
   inkscape:connector-curvature="0" />
  </g>
  <g
   id="bullet-char-template-61548"
   transform="matrix(4.8828125e-4,0,0,-4.8828125e-4,0,0)">
   <path
   d="m 173,740 c 0,163 58,303 173,419 116,115 255,173 419,173 163,0 302,-58 418,-173 116,-116 174,-256 174,-419 0,-163 -58,-303 -174,-418 C 1067,206 928,148 765,148 601,148 462,206 346,322 231,437 173,577 173,740 Z"
   id="path41"
   inkscape:connector-curvature="0" />
  </g>
 </defs>
 <g
   id="g49"
   transform="translate(-8580,-13935)">
  <g
   id="id2"
   class="Master_Slide">
   <g
   id="bg-id2"
   class="Background" />
   <g
   id="bo-id2"
   class="BackgroundObjects" />
  </g>
 </g>
 <g
   class="SlideGroup"
   id="g151"
   transform="translate(-8580,-13935)">
  <g
   id="g149">
   <g
   id="container-id1">
    <g
   id="id1"
   class="Slide"
   clip-path="url(#presentation_clip_path)">
     <g
   class="Page"
   id="g145">
      <g
   class="Graphic"
   id="g143">
       <g
   id="id3">
        <rect
   class="BoundingBox"
   x="8580"
   y="13935"
   width="3840"
   height="1829"
   id="rect51"
   style="fill:none;stroke:none" />
        <defs
   id="defs56">
         <clipPath
   id="clip_path_1"
   clipPathUnits="userSpaceOnUse">
          <path
   d="m 8580,13935 h 3839 v 1828 H 8580 Z"
   id="path53"
   inkscape:connector-curvature="0" />
         </clipPath>
        </defs>
        <g
   clip-path="url(#clip_path_1)"
   id="g140">
         <path
   d="m 8768,15054 -41,-7 -33,-16 -20,-20 -13,-25 -2,-28 7,-26 16,-23 25,-15 18,-8 20,-10 26,-13 28,-12 28,-18 33,-15 35,-21 36,-20 35,-20 36,-23 35,-21 36,-22 36,-23 33,-23 30,-23 28,-21 28,-20 28,-23 30,-20 34,-23 33,-23 35,-20 36,-21 38,-20 38,-18 41,-18 40,-15 41,-15 43,-13 43,-10 44,-10 43,-5 v -18 -38 l 7,-43 13,-34 10,3 8,3 10,7 10,8 10,7 11,11 7,10 10,10 5,-36 11,-43 12,-48 18,-51 18,-48 18,-41 17,-31 13,-20 13,10 13,13 12,8 13,7 15,3 h 15 l 16,-5 15,-13 v 23 23 l 3,20 7,15 10,10 18,6 h 28 l 33,-11 v 33 28 l 8,26 10,20 18,15 20,11 28,7 h 33 l -20,33 -3,41 10,43 28,38 h 15 l 21,3 h 20 l 26,3 22,2 26,3 h 25 l 23,2 23,-15 25,-18 28,-18 31,-20 28,-18 33,-20 30,-18 33,-20 36,-16 33,-17 33,-16 36,-15 33,-13 33,-10 33,-7 33,-6 -8,23 -5,23 -2,23 v 23 l 7,18 13,15 20,8 28,5 -2,38 v 36 l 17,22 41,6 3,30 7,31 13,25 18,25 20,21 25,18 34,15 38,10 -8,5 -10,8 -10,5 -13,8 -13,5 -10,2 -13,5 h -7 l 20,15 28,18 33,18 38,18 43,18 51,12 51,11 59,5 30,-18 38,-20 43,-23 46,-26 51,-28 53,-28 56,-30 54,-28 55,-31 54,-28 51,-28 45,-25 44,-26 38,-23 30,-20 23,-15 15,69 v 66 l -10,66 -18,63 -22,64 -23,64 -21,66 -12,66 45,112 46,86 46,66 41,51 35,41 26,38 17,36 3,41 -69,2 h -68 l -69,-8 -66,-10 -66,-15 -66,-18 -64,-20 -58,-23 -59,-23 -53,-23 -48,-25 -44,-23 -40,-23 -33,-20 -28,-21 -21,-15 -22,13 -28,12 -31,16 -33,15 -33,15 -30,13 -28,13 -23,10 v 20 l -3,23 -2,23 -3,8 -15,17 -5,26 5,25 10,26 -20,33 2,40 16,41 30,43 -20,41 -16,51 -10,51 v 48 l -20,-10 -25,-15 -31,-18 -30,-20 -36,-21 -36,-23 -35,-23 -38,-25 -38,-23 -36,-25 -36,-23 -30,-21 -31,-20 -25,-18 -23,-15 -18,-13 -40,5 -46,5 -46,6 -48,5 -48,5 -51,5 -51,5 -51,5 -51,3 -48,5 -48,2 h -46 l -46,3 h -40 -41 l -36,-3 8,8 10,10 10,8 10,7 11,8 12,7 13,6 13,7 -23,46 -13,56 v 64 l 13,61 -13,15 -13,28 -7,33 2,33 -20,-13 -23,-12 -25,-16 -26,-18 -28,-20 -28,-23 -28,-23 -30,-28 -31,-28 -27,-28 -31,-30 -28,-33 -25,-36 -28,-35 -23,-39 -23,-38 -33,-2 -38,-3 -43,-7 -49,-11 -48,-10 -48,-13 -49,-15 -48,-15 -25,-8 -28,-7 -31,-8 -33,-8 -35,-7 -36,-5 -38,-5 -38,-5 -38,-6 -36,-2 -38,-3 -33,-5 h -33 l -31,-2 -27,-3 h -26 l -43,-5 -41,-10 -30,-15 -18,-21 -5,-20 13,-23 33,-23 z"
   id="path58"
   inkscape:connector-curvature="0"
   style="fill:#000000;stroke:none" />
         <path
   d="m 9846,14271 v 10 l 2,15 v 15 13 h 10 13 13 10 l -10,-13 -13,-17 -13,-13 z"
   id="path60"
   inkscape:connector-curvature="0"
   style="fill:#ffbf4c;stroke:none" />
         <path
   d="m 9937,14324 3,-33 7,-38 8,-46 10,-46 10,-43 13,-41 13,-35 15,-23 5,8 13,7 15,3 15,-5 -23,53 -20,71 -18,82 -13,86 h -12 -13 -15 z"
   id="path62"
   inkscape:connector-curvature="0"
   style="fill:#ffbf4c;stroke:none" />
         <path
   d="m 10095,14075 -16,43 -17,59 -16,73 -7,77 h 12 18 18 18 v -46 l 7,-56 13,-59 20,-43 -17,-2 -18,-8 -10,-15 z"
   id="path64"
   inkscape:connector-curvature="0"
   style="fill:#ffbf4c;stroke:none" />
         <path
   d="m 10176,14172 -10,33 -8,43 -2,46 -3,35 h 13 13 12 l 18,3 h 15 16 l 15,2 h 15 l -10,-23 -10,-27 -3,-31 5,-25 h -10 l -13,-6 -12,-5 -11,-5 -12,-7 -8,-11 -7,-10 z"
   id="path66"
   inkscape:connector-curvature="0"
   style="fill:#ffbf4c;stroke:none" />
         <path
   d="m 10603,14360 33,-21 41,-25 45,-25 51,-28 54,-26 48,-25 48,-21 41,-15 -3,15 3,18 5,15 10,11 -28,10 -33,15 -38,18 -41,20 -40,21 -36,22 -36,18 -28,18 -10,-2 -12,-3 h -13 l -13,-3 -15,-2 -13,-3 h -10 z"
   id="path68"
   inkscape:connector-curvature="0"
   style="fill:#ffbf4c;stroke:none" />
         <path
   d="m 10740,14385 20,-12 31,-16 36,-18 40,-22 38,-18 36,-18 28,-15 18,-8 5,15 12,13 16,8 15,2 -20,10 -23,16 -28,15 -31,18 -28,18 -25,15 -23,13 -15,10 -10,-3 -13,-5 -15,-2 -13,-3 -15,-5 -13,-3 -13,-2 z"
   id="path70"
   inkscape:connector-curvature="0"
   style="fill:#ffbf4c;stroke:none" />
         <path
   d="m 10885,14423 13,-7 18,-10 20,-13 20,-13 21,-13 20,-10 15,-7 13,-5 5,17 13,16 22,10 28,2 -15,8 -13,8 -15,10 -13,7 -10,11 -12,7 -11,8 -7,7 -13,-5 -15,-2 -15,-5 -16,-5 -17,-5 -13,-6 -13,-2 z"
   id="path72"
   inkscape:connector-curvature="0"
   style="fill:#ffbf4c;stroke:none" />
         <path
   d="m 11032,14469 16,-13 17,-12 21,-13 18,-13 5,13 7,13 8,12 10,16 10,12 13,11 10,10 13,5 -26,13 -12,-5 -16,-8 -17,-8 -18,-7 -15,-8 -18,-8 -13,-5 z"
   id="path74"
   inkscape:connector-curvature="0"
   style="fill:#ffbf4c;stroke:none" />
         <path
   d="m 8839,14899 54,23 45,10 h 36 l 30,-7 26,-11 23,-10 20,-2 23,5 -8,-13 -7,-15 -3,-16 -2,-17 2,-21 5,-17 10,-18 13,-16 15,-10 16,-10 20,-5 20,-3 21,3 17,5 18,10 13,10 13,16 10,18 5,17 2,21 -2,20 -5,18 -10,18 -13,15 -13,10 -18,10 -17,5 -21,3 h -10 -8 l -10,-3 -7,-2 2,43 28,18 18,20 5,28 -3,33 h 8 10 8 10 l 10,3 h 10 13 13 l 35,-13 28,-33 21,-46 10,-53 v -59 l -8,-56 -18,-48 -25,-38 -15,2 h -16 l -12,3 h -10 l -18,-3 -10,-10 v -7 l 2,-11 h -12 l -16,-2 -18,-3 h -15 l -43,28 -43,26 -43,25 -44,26 -43,23 -40,22 -41,21 z"
   id="path76"
   inkscape:connector-curvature="0"
   style="fill:#ffe5b7;stroke:none" />
         <path
   d="m 9429,15095 43,-8 36,-7 35,-10 31,-13 28,-18 28,-18 28,-25 27,-31 -10,16 -10,17 -10,16 -10,15 -13,15 -13,15 -15,13 -15,13 -23,20 -18,21 -15,20 -15,18 -13,17 -13,18 -15,13 -15,10 -33,-5 -43,-8 -46,-10 -51,-12 -48,-13 -49,-10 -40,-8 -33,-5 20,-8 18,-10 13,-13 7,-10 33,3 h 33 36 l 35,-3 36,-2 31,-3 27,-5 z"
   id="path78"
   inkscape:connector-curvature="0"
   style="fill:#ffe5b7;stroke:none" />
         <path
   d="m 11726,15042 31,-61 17,-69 8,-66 -2,-49 -97,13 -94,13 -89,10 -86,10 -84,10 -82,5 -81,3 -79,2 -81,-5 -79,-5 -81,-12 -81,-16 -84,-23 -84,-28 -89,-33 -92,-40 -35,-18 -38,-18 -38,-18 -41,-18 -43,-17 -43,-16 -46,-15 -49,-13 -48,-10 -51,-7 -53,-5 h -56 l -58,5 -59,7 -61,13 -63,20 30,8 41,15 46,23 45,28 44,36 40,38 33,46 21,48 -31,3 -28,10 -28,12 -25,16 -23,20 -20,20 -18,23 -10,26 -8,15 -8,15 -7,18 -13,15 -13,16 -15,17 -18,18 -20,21 -10,10 -10,10 -11,10 -10,13 -10,12 -8,11 -10,12 -10,13 -10,13 -8,15 -10,13 -10,15 36,8 38,7 43,8 46,5 48,5 51,5 56,5 56,3 58,2 61,3 61,2 h 64 63 l 64,-2 66,-3 63,-2 64,-5 66,-5 61,-8 63,-8 59,-7 58,-10 59,-13 53,-13 51,-13 51,-15 45,-18 41,-17 38,-18 36,-23 30,-23 26,-23 43,-8 48,-12 51,-16 51,-20 51,-20 45,-18 41,-18 31,-15 15,13 18,10 17,13 21,12 20,10 20,13 23,13 z"
   id="path80"
   inkscape:connector-curvature="0"
   style="fill:#ffe5b7;stroke:none" />
         <path
   d="m 11828,14858 v 13 l -3,10 v 13 l -2,13 317,58 -10,-20 -10,-20 -10,-21 -8,-20 z"
   id="path82"
   inkscape:connector-curvature="0"
   style="fill:#ffbf4c;stroke:none" />
         <path
   d="m 11825,14790 3,10 v 10 13 10 l 264,20 -2,-17 v -18 -16 l 2,-15 v -5 l 3,-8 v -7 -5 z"
   id="path84"
   inkscape:connector-curvature="0"
   style="fill:#ffbf4c;stroke:none" />
         <path
   d="m 11815,14741 3,8 v 5 l 2,8 v 5 l 280,-31 5,-23 7,-22 8,-23 10,-26 z"
   id="path86"
   inkscape:connector-curvature="0"
   style="fill:#ffbf4c;stroke:none" />
         <path
   d="m 11790,14683 5,10 5,8 2,7 6,10 335,-111 5,-21 8,-23 7,-20 8,-20 z"
   id="path88"
   inkscape:connector-curvature="0"
   style="fill:#ffbf4c;stroke:none" />
         <path
   d="m 12181,14492 10,-33 5,-36 5,-30 v -28 l -10,5 -15,10 -18,10 -20,11 -26,15 -25,15 -30,15 -31,18 -33,18 -36,20 -35,18 -36,20 -35,21 -36,20 -35,20 -36,21 10,10 8,10 7,10 8,11 z"
   id="path90"
   inkscape:connector-curvature="0"
   style="fill:#ffbf4c;stroke:none" />
         <path
   d="m 12161,15003 10,16 10,15 10,15 10,15 11,16 10,12 10,16 10,12 -10,-2 -15,-8 -21,-5 -28,-10 -30,-10 -33,-10 -36,-13 -35,-10 -38,-13 -36,-13 -36,-10 -33,-10 -30,-10 -26,-8 -20,-5 -13,-5 6,-10 2,-13 5,-10 3,-10 33,5 43,7 51,11 56,10 51,13 48,10 38,7 z"
   id="path92"
   inkscape:connector-curvature="0"
   style="fill:#ffbf4c;stroke:none" />
         <path
   d="m 12278,15169 12,18 11,15 7,10 3,8 -33,-3 -31,-2 -35,-3 -33,-8 -36,-5 -33,-10 -36,-8 -35,-10 -36,-12 -33,-13 -35,-13 -36,-13 -33,-12 -33,-16 -33,-15 -31,-15 8,-15 8,-13 5,-13 7,-15 28,8 28,10 33,10 36,10 35,13 36,13 38,12 36,13 35,10 36,13 30,10 31,10 25,10 23,8 18,8 z"
   id="path94"
   inkscape:connector-curvature="0"
   style="fill:#ffbf4c;stroke:none" />
         <path
   d="m 9729,15316 25,49 33,53 43,53 49,54 48,53 51,46 48,41 43,30 3,-10 2,-10 5,-8 5,-7 -50,-41 -49,-43 -43,-43 -43,-46 -38,-44 -33,-45 -31,-44 -25,-40 z"
   id="path96"
   inkscape:connector-curvature="0"
   style="fill:#ffbf4c;stroke:none" />
         <path
   d="m 9815,15337 13,17 23,28 28,39 35,40 41,46 43,43 46,41 46,33 -6,-23 -2,-20 -3,-21 v -17 l -22,-13 -31,-18 -33,-25 -36,-31 -33,-33 -30,-33 -26,-30 -17,-26 z"
   id="path98"
   inkscape:connector-curvature="0"
   style="fill:#ffbf4c;stroke:none" />
         <path
   d="m 9891,15349 13,13 18,20 23,21 25,25 26,23 27,23 28,18 28,15 v -18 l 5,-15 3,-13 8,-10 -18,-8 -18,-7 -18,-10 -18,-11 -17,-12 -16,-15 -15,-18 -12,-18 z"
   id="path100"
   inkscape:connector-curvature="0"
   style="fill:#ffbf4c;stroke:none" />
         <path
   d="m 10898,15293 28,21 40,28 49,33 53,35 53,36 51,36 46,28 38,23 3,-13 2,-15 5,-16 5,-12 -33,-18 -38,-21 -41,-25 -40,-25 -41,-26 -38,-28 -33,-30 -30,-28 -8,2 -10,3 -10,2 -11,3 -12,2 -10,3 -11,2 z"
   id="path102"
   inkscape:connector-curvature="0"
   style="fill:#ffbf4c;stroke:none" />
         <path
   d="m 11020,15265 20,16 25,17 31,23 33,23 36,26 38,20 35,20 33,18 -2,-7 -5,-13 -3,-13 -2,-10 -21,-13 -23,-15 -28,-18 -28,-20 -27,-21 -28,-20 -21,-15 -15,-15 -13,5 -10,5 -13,2 z"
   id="path104"
   inkscape:connector-curvature="0"
   style="fill:#ffbf4c;stroke:none" />
         <path
   d="m 11101,15232 13,8 15,13 20,12 23,16 21,15 20,13 20,12 13,8 -3,-10 3,-15 2,-13 8,-10 -13,-8 -15,-10 -18,-13 -15,-10 -18,-10 -15,-10 -13,-8 -10,-5 -7,5 -8,8 -10,5 z"
   id="path106"
   inkscape:connector-curvature="0"
   style="fill:#ffbf4c;stroke:none" />
         <path
   d="m 11172,15184 13,-13 15,-18 13,-15 10,-12 13,2 15,5 13,5 10,3 -3,7 -2,11 -3,10 3,12 -5,11 -5,10 -5,10 -3,8 -8,-3 -10,-2 -10,-6 -13,-5 -12,-5 -11,-5 -10,-5 z"
   id="path108"
   inkscape:connector-curvature="0"
   style="fill:#ffbf4c;stroke:none" />
         <path
   d="m 9830,14909 21,-10 23,-8 28,-10 30,-7 31,-11 35,-7 36,-8 35,-5 38,-7 38,-6 36,-2 38,-5 h 36 l 35,-3 h 36 l 30,3 28,30 16,38 5,36 v 26 l -8,17 -10,18 -10,18 -13,15 -15,15 -23,18 -28,18 -36,18 -12,8 -13,10 -13,7 -10,11 -10,12 -13,10 -10,13 -10,10 -13,16 -15,12 -13,13 -15,10 -15,10 -18,8 -18,5 -18,3 h -28 l -25,-3 -25,-8 -28,-7 -23,-10 -26,-16 -23,-15 -20,-18 -13,-12 -12,-13 -10,-13 -11,-13 v -28 l 18,13 21,15 22,13 23,15 21,13 22,10 18,10 16,6 15,2 15,3 20,2 18,-2 20,-5 23,-8 21,-15 20,-23 -36,-10 -38,-13 -43,-10 -43,-13 -43,-10 -41,-8 -38,-5 h -31 l 3,-20 28,2 35,3 46,7 46,8 48,10 49,13 40,13 33,12 10,-7 11,-13 12,-10 10,-13 13,-10 10,-13 10,-7 8,-8 -48,-10 -54,-8 -55,-5 -56,-5 h -56 l -51,3 -46,7 -38,8 5,-18 18,-3 20,-5 23,-2 23,-3 28,-2 h 28 l 28,-3 h 30 28 31 l 30,3 28,2 28,5 26,5 25,6 23,7 10,-5 13,-8 12,-7 13,-8 13,-7 13,-8 10,-10 7,-8 -22,-5 -26,-2 -30,-3 h -31 -33 -33 -36 l -35,3 -36,2 -35,3 -36,2 -33,5 -33,5 -30,8 -28,5 -26,8 5,-23 23,-8 26,-5 25,-5 28,-5 30,-5 31,-5 30,-3 33,-5 h 36 l 33,-2 h 38 36 38 l 38,2 38,3 38,5 5,-18 3,-20 -3,-21 -7,-15 -26,-3 -28,-2 h -30 l -36,2 -35,3 -38,5 -41,5 -38,5 -41,8 -35,7 -39,8 -33,8 -30,7 -26,8 -20,8 -18,5 z"
   id="path110"
   inkscape:connector-curvature="0"
   style="fill:#000000;stroke:none" />
         <path
   d="m 8750,15120 13,-5 13,-5 15,-5 15,-7 18,-6 13,-7 15,-5 10,-3 10,3 13,5 15,7 15,8 16,10 12,8 16,8 10,7 -21,-2 -30,-3 h -33 l -36,-2 -35,-3 -31,-3 h -23 z"
   id="path112"
   inkscape:connector-curvature="0"
   style="fill:#33b272;stroke:none" />
         <path
   d="m 8829,15014 25,5 34,7 35,5 38,5 41,3 h 43 l 43,-5 43,-10 11,7 7,13 5,15 -2,16 -5,17 -13,16 -18,12 -28,11 h -20 l -25,-11 -31,-15 -30,-18 -36,-20 -38,-20 -38,-18 z"
   id="path114"
   inkscape:connector-curvature="0"
   style="fill:#33b272;stroke:none" />
         <path
   d="m 8804,14917 38,18 35,12 31,8 25,5 26,3 20,-3 h 20 l 18,-2 -46,12 -40,5 -38,-2 -36,-5 -33,-8 -33,-5 -33,-2 -36,5 10,-5 11,-6 10,-5 10,-5 10,-5 10,-5 10,-5 z"
   id="path116"
   inkscape:connector-curvature="0"
   style="fill:#33b272;stroke:none" />
         <path
   d="m 9274,15085 h 7 l 8,-3 h 10 10 11 l 10,-2 h 10 l 13,-3 33,-5 28,-8 20,-7 13,-8 10,-10 7,-13 5,-10 3,-10 v -18 l -8,-25 -15,-33 -18,-39 -17,-40 -21,-41 -18,-41 -15,-35 h -7 l -11,2 h -12 l -13,3 25,38 18,48 8,56 v 56 l -10,56 -21,46 -28,33 z"
   id="path118"
   inkscape:connector-curvature="0"
   style="fill:#33b272;stroke:none" />
         <path
   d="m 9685,14965 11,-20 12,-18 11,-20 10,-16 15,-20 15,-15 18,-13 18,-13 18,-7 17,-8 18,-7 18,-8 -23,-26 -23,-25 -28,-23 -28,-20 -33,-18 -30,-18 -33,-15 -36,-15 -35,-11 -36,-12 -36,-8 -35,-10 -38,-5 -36,-8 -33,-5 -36,-2 -20,17 -23,18 -20,18 -20,15 -21,16 -23,15 -20,15 -23,15 h 15 l 18,3 16,2 h 12 l 21,-5 20,-5 18,-2 20,-3 h 18 20 18 l 18,3 12,33 16,35 20,39 18,40 18,38 15,39 13,35 5,33 v 18 l -5,15 -6,16 -10,12 -12,13 -13,10 -15,10 -18,8 43,-8 36,-7 35,-10 31,-13 28,-18 28,-18 28,-25 z"
   id="path120"
   inkscape:connector-curvature="0"
   style="fill:#33b272;stroke:none" />
         <path
   d="m 11767,14749 -59,10 -63,10 -69,11 -71,10 -76,7 -76,11 -82,5 -81,2 -84,3 -84,-3 -84,-7 -86,-11 -81,-17 -84,-21 -79,-28 -79,-33 -56,-28 -56,-25 -56,-26 -55,-25 -56,-21 -59,-20 -56,-18 -58,-15 -56,-10 -61,-5 -58,-3 -61,3 -61,7 -64,13 -64,21 -66,25 -20,-5 -20,-5 -21,-5 -22,-3 -23,-5 -23,-2 -23,-6 -23,-2 51,-41 63,-35 72,-28 76,-23 86,-16 89,-12 94,-5 97,-3 h 96 l 97,5 96,5 97,10 89,11 86,12 82,13 73,13 72,15 63,18 59,20 53,23 46,23 45,23 41,23 41,23 38,23 41,20 38,20 43,18 43,15 48,13 54,10 58,5 15,-7 16,-11 20,-10 20,-12 23,-11 23,-15 25,-13 28,-15 18,23 15,26 16,30 z"
   id="path122"
   inkscape:connector-curvature="0"
   style="fill:#33b272;stroke:none" />
         <path
   d="m 9802,15092 18,13 21,15 22,13 23,15 21,13 22,10 18,10 16,6 15,2 15,3 20,2 18,-2 20,-5 23,-8 21,-15 20,-23 -36,-10 -38,-13 -43,-10 -43,-13 -43,-10 -41,-8 -38,-5 h -31 z"
   id="path124"
   inkscape:connector-curvature="0"
   style="fill:#33b272;stroke:none" />
         <path
   d="m 9805,15052 28,2 35,3 46,7 46,8 48,10 49,13 40,13 33,12 10,-7 11,-13 12,-10 10,-13 13,-10 10,-13 10,-7 8,-8 -48,-10 -54,-8 -55,-5 -56,-5 h -56 l -51,3 -46,7 -38,8 z"
   id="path126"
   inkscape:connector-curvature="0"
   style="fill:#33b272;stroke:none" />
         <path
   d="m 9815,15011 18,-3 20,-5 23,-2 23,-3 28,-2 h 28 l 28,-3 h 30 28 31 l 30,3 28,2 28,5 26,5 25,6 23,7 10,-5 13,-8 12,-7 13,-8 13,-7 13,-8 10,-10 7,-8 -22,-5 -26,-2 -30,-3 h -31 -33 -33 -36 l -35,3 -36,2 -35,3 -36,2 -33,5 -33,5 -30,8 -28,5 -26,8 z"
   id="path128"
   inkscape:connector-curvature="0"
   style="fill:#33b272;stroke:none" />
         <path
   d="m 9830,14935 18,-5 20,-8 26,-8 30,-7 33,-8 39,-8 35,-7 41,-8 38,-5 41,-5 38,-5 35,-3 36,-2 h 30 l 28,2 26,3 7,15 3,21 -3,20 -5,18 -38,-5 -38,-3 -38,-2 h -38 -36 -38 l -33,2 h -36 l -33,5 -30,3 -31,5 -30,5 -28,5 -25,5 -26,5 -23,8 z"
   id="path130"
   inkscape:connector-curvature="0"
   style="fill:#33b272;stroke:none" />
         <path
   d="m 9142,14841 7,-3 5,-2 3,-6 2,-7 -2,-5 -3,-5 -5,-3 -7,-2 -5,2 -6,3 -2,5 -3,5 3,7 2,6 6,2 z"
   id="path132"
   inkscape:connector-curvature="0"
   style="fill:#ffffff;stroke:none" />
         <path
   d="m 9126,14879 8,5 8,5 7,5 h 13 l 10,3 10,-3 10,-3 11,-5 17,-17 8,-23 v -23 l -5,-18 15,18 8,25 -8,31 -18,23 -12,7 -16,5 -15,3 h -15 l -15,-5 -10,-8 -8,-10 z"
   id="path134"
   inkscape:connector-curvature="0"
   style="fill:#ffffff;stroke:none" />
         <path
   d="m 9683,14490 63,-21 72,-18 73,-10 77,-5 78,-2 h 79 l 79,2 79,8 76,10 74,10 68,13 64,13 58,15 51,13 43,15 33,13 h -58 l -61,-6 -61,-2 -64,-8 -63,-5 -66,-7 -69,-8 -68,-8 -69,-5 -69,-7 -71,-6 -68,-2 -72,-3 -68,3 -71,2 z"
   id="path136"
   inkscape:connector-curvature="0"
   style="fill:#ffffff;stroke:none" />
         <path
   d="m 9571,15189 10,-13 10,-12 8,-11 10,-12 23,5 28,5 33,5 36,3 35,5 33,5 31,2 h 20 l 20,18 23,15 26,16 23,10 28,7 25,8 25,3 h 28 l 18,-3 18,-5 18,-8 15,-10 15,-10 13,-13 15,-12 13,-16 150,5 135,-2 119,-10 109,-18 99,-20 89,-28 84,-28 81,-31 79,-31 79,-30 81,-28 84,-25 89,-21 99,-15 110,-8 h 119 l -13,49 -48,-5 -48,-3 -46,3 -46,5 -45,7 -46,10 -46,13 -43,15 -46,16 -48,17 -46,18 -51,21 -51,20 -50,20 -54,21 -58,20 -59,20 -61,18 -66,18 -68,15 -72,16 -73,12 -82,10 -83,11 -89,5 -92,2 -99,-2 -104,-5 -109,-8 -115,-13 -122,-15 z"
   id="path138"
   inkscape:connector-curvature="0"
   style="fill:#ffffff;stroke:none" />
        </g>
       </g>
      </g>
     </g>
    </g>
   </g>
  </g>
 </g>
</svg>