<?xml version="1.0" encoding="UTF-8" standalone="no"?>
<svg
   xmlns:ooo="http://xml.openoffice.org/svg/export"
   xmlns:dc="http://purl.org/dc/elements/1.1/"
   xmlns:cc="http://creativecommons.org/ns#"
   xmlns:rdf="http://www.w3.org/1999/02/22-rdf-syntax-ns#"
   xmlns:svg="http://www.w3.org/2000/svg"
   xmlns="http://www.w3.org/2000/svg"
   xmlns:sodipodi="http://sodipodi.sourceforge.net/DTD/sodipodi-0.dtd"
   xmlns:inkscape="http://www.inkscape.org/namespaces/inkscape"
   version="1.2"
   width="30.120001mm"
   height="46.23mm"
   viewBox="0 0 3012.0001 4623"
   preserveAspectRatio="xMidYMid"
   xml:space="preserve"
   id="svg138"
   sodipodi:docname="fishbwl1.svg"
   style="fill-rule:evenodd;stroke-width:28.22200012;stroke-linejoin:round"
   inkscape:version="0.92.5 (2060ec1f9f, 2020-04-08)"><metadata
   id="metadata142"><rdf:RDF><cc:Work
       rdf:about=""><dc:format>image/svg+xml</dc:format><dc:type
         rdf:resource="http://purl.org/dc/dcmitype/StillImage" /></cc:Work></rdf:RDF></metadata><sodipodi:namedview
   pagecolor="#ffffff"
   bordercolor="#666666"
   borderopacity="1"
   objecttolerance="10"
   gridtolerance="10"
   guidetolerance="10"
   inkscape:pageopacity="0"
   inkscape:pageshadow="2"
   inkscape:window-width="664"
   inkscape:window-height="487"
   id="namedview140"
   showgrid="false"
   inkscape:zoom="0.2102413"
   inkscape:cx="56.919686"
   inkscape:cy="87.34488"
   inkscape:window-x="0"
   inkscape:window-y="0"
   inkscape:window-maximized="0"
   inkscape:current-layer="svg138" />
 <defs
   class="ClipPathGroup"
   id="defs8">
  <clipPath
   id="presentation_clip_path"
   clipPathUnits="userSpaceOnUse">
   <rect
   x="0"
   y="0"
   width="21000"
   height="29700"
   id="rect2" />
  </clipPath>
  <clipPath
   id="presentation_clip_path_shrink"
   clipPathUnits="userSpaceOnUse">
   <rect
   x="21"
   y="29"
   width="20958"
   height="29641"
   id="rect5" />
  </clipPath>
 </defs>
 <defs
   class="TextShapeIndex"
   id="defs12">
  <g
   ooo:slide="id1"
   ooo:id-list="id3"
   id="g10" />
 </defs>
 <defs
   class="EmbeddedBulletChars"
   id="defs44">
  <g
   id="bullet-char-template-57356"
   transform="matrix(4.8828125e-4,0,0,-4.8828125e-4,0,0)">
   <path
   d="M 580,1141 1163,571 580,0 -4,571 Z"
   id="path14"
   inkscape:connector-curvature="0" />
  </g>
  <g
   id="bullet-char-template-57354"
   transform="matrix(4.8828125e-4,0,0,-4.8828125e-4,0,0)">
   <path
   d="M 8,1128 H 1137 V 0 H 8 Z"
   id="path17"
   inkscape:connector-curvature="0" />
  </g>
  <g
   id="bullet-char-template-10146"
   transform="matrix(4.8828125e-4,0,0,-4.8828125e-4,0,0)">
   <path
   d="M 174,0 602,739 174,1481 1456,739 Z M 1358,739 309,1346 659,739 Z"
   id="path20"
   inkscape:connector-curvature="0" />
  </g>
  <g
   id="bullet-char-template-10132"
   transform="matrix(4.8828125e-4,0,0,-4.8828125e-4,0,0)">
   <path
   d="M 2015,739 1276,0 H 717 l 543,543 H 174 v 393 h 1086 l -543,545 h 557 z"
   id="path23"
   inkscape:connector-curvature="0" />
  </g>
  <g
   id="bullet-char-template-10007"
   transform="matrix(4.8828125e-4,0,0,-4.8828125e-4,0,0)">
   <path
   d="m 0,-2 c -7,16 -16,29 -25,39 l 381,530 c -94,256 -141,385 -141,387 0,25 13,38 40,38 9,0 21,-2 34,-5 21,4 42,12 65,25 l 27,-13 111,-251 280,301 64,-25 24,25 c 21,-10 41,-24 62,-43 C 886,937 835,863 770,784 769,783 710,716 594,584 L 774,223 c 0,-27 -21,-55 -63,-84 l 16,-20 C 717,90 699,76 672,76 641,76 570,178 457,381 L 164,-76 c -22,-34 -53,-51 -92,-51 -42,0 -63,17 -64,51 -7,9 -10,24 -10,44 0,9 1,19 2,30 z"
   id="path26"
   inkscape:connector-curvature="0" />
  </g>
  <g
   id="bullet-char-template-10004"
   transform="matrix(4.8828125e-4,0,0,-4.8828125e-4,0,0)">
   <path
   d="M 285,-33 C 182,-33 111,30 74,156 52,228 41,333 41,471 c 0,78 14,145 41,201 34,71 87,106 158,106 53,0 88,-31 106,-94 l 23,-176 c 8,-64 28,-97 59,-98 l 735,706 c 11,11 33,17 66,17 42,0 63,-15 63,-46 V 965 c 0,-36 -10,-64 -30,-84 L 442,47 C 390,-6 338,-33 285,-33 Z"
   id="path29"
   inkscape:connector-curvature="0" />
  </g>
  <g
   id="bullet-char-template-9679"
   transform="matrix(4.8828125e-4,0,0,-4.8828125e-4,0,0)">
   <path
   d="M 813,0 C 632,0 489,54 383,161 276,268 223,411 223,592 c 0,181 53,324 160,431 106,107 249,161 430,161 179,0 323,-54 432,-161 108,-107 162,-251 162,-431 0,-180 -54,-324 -162,-431 C 1136,54 992,0 813,0 Z"
   id="path32"
   inkscape:connector-curvature="0" />
  </g>
  <g
   id="bullet-char-template-8226"
   transform="matrix(4.8828125e-4,0,0,-4.8828125e-4,0,0)">
   <path
   d="m 346,457 c -73,0 -137,26 -191,78 -54,51 -81,114 -81,188 0,73 27,136 81,188 54,52 118,78 191,78 73,0 134,-26 185,-79 51,-51 77,-114 77,-187 0,-75 -25,-137 -76,-188 -50,-52 -112,-78 -186,-78 z"
   id="path35"
   inkscape:connector-curvature="0" />
  </g>
  <g
   id="bullet-char-template-8211"
   transform="matrix(4.8828125e-4,0,0,-4.8828125e-4,0,0)">
   <path
   d="M -4,459 H 1135 V 606 H -4 Z"
   id="path38"
   inkscape:connector-curvature="0" />
  </g>
  <g
   id="bullet-char-template-61548"
   transform="matrix(4.8828125e-4,0,0,-4.8828125e-4,0,0)">
   <path
   d="m 173,740 c 0,163 58,303 173,419 116,115 255,173 419,173 163,0 302,-58 418,-173 116,-116 174,-256 174,-419 0,-163 -58,-303 -174,-418 C 1067,206 928,148 765,148 601,148 462,206 346,322 231,437 173,577 173,740 Z"
   id="path41"
   inkscape:connector-curvature="0" />
  </g>
 </defs>
 <g
   id="g49"
   transform="translate(-8994,-12538)">
  <g
   id="id2"
   class="Master_Slide">
   <g
   id="bg-id2"
   class="Background" />
   <g
   id="bo-id2"
   class="BackgroundObjects" />
  </g>
 </g>
 <g
   class="SlideGroup"
   id="g136"
   transform="translate(-8994,-12538)">
  <g
   id="g134">
   <g
   id="container-id1">
    <g
   id="id1"
   class="Slide"
   clip-path="url(#presentation_clip_path)">
     <g
   class="Page"
   id="g130">
      <g
   class="Graphic"
   id="g128">
       <g
   id="id3">
        <rect
   class="BoundingBox"
   x="8994"
   y="12538"
   width="3012"
   height="4623"
   id="rect51"
   style="fill:none;stroke:none" />
        <path
   d="m 11243,15519 -12,-58 -10,-69 -16,-69 -25,-48 -18,-20 -18,-23 -23,-25 -22,-26 -26,-20 -25,-20 -26,-13 -23,-8 -20,-5 -18,-5 -12,-8 -18,-10 -21,-5 -27,-5 h -36 l -51,5 -53,5 -43,5 -36,3 -31,2 -22,5 -21,6 -18,10 -17,12 -23,18 -18,15 -15,13 -13,18 -15,-20 -13,-16 -18,-15 -25,-20 -18,-13 -20,-10 -21,-5 -25,-5 -31,-3 -35,-2 -43,-5 -54,-5 -51,-6 h -35 l -28,6 -20,7 -16,8 -15,7 -15,8 -21,5 -25,5 -23,15 -25,18 -26,23 -23,23 -22,25 -21,23 -18,21 -22,50 -16,66 -12,72 -13,56 -5,22 2,26 8,23 10,23 13,22 15,18 13,16 15,12 18,10 20,13 26,13 28,13 25,10 25,10 18,5 15,2 21,-5 15,-10 10,-7 3,-5 -8,-3 -23,-10 -30,-15 -36,-18 -35,-23 -31,-23 -20,-23 -5,-25 -3,-61 -2,-79 5,-76 28,-56 20,-21 20,-17 23,-18 23,-15 25,-16 28,-10 34,-10 35,-5 41,-8 40,-5 41,-7 43,-3 h 41 l 41,10 40,15 41,26 20,15 18,10 10,8 10,8 -12,50 -8,49 -2,35 v 13 l 5,46 -8,73 -8,69 -10,66 -10,61 -10,64 -15,63 -16,66 -20,71 -20,74 -18,66 -13,61 -10,59 -8,53 -2,48 2,49 8,45 13,49 20,50 20,54 23,51 21,43 17,35 13,26 5,8 10,5 16,22 10,41 -15,64 -18,38 -21,33 -22,28 -26,23 -25,17 -31,13 -30,8 h -31 l -33,-5 -30,-13 -28,-15 -26,-21 -23,-20 -12,-25 -5,-23 5,-26 10,-22 13,-21 12,-18 13,-12 15,-8 18,-2 18,7 20,15 31,44 10,43 2,33 -2,13 2,-3 11,-10 10,-15 12,-21 11,-25 5,-20 -3,-26 -13,-28 -10,-15 -12,-15 -13,-16 -15,-15 -18,-10 -21,-8 -22,-5 h -28 l -28,5 -26,13 -23,18 -17,20 -16,26 -12,22 -8,26 -3,25 v 46 l 6,41 17,35 38,31 26,15 23,15 23,16 20,15 23,10 25,8 31,2 33,-5 35,-8 36,-10 33,-12 31,-13 25,-15 23,-18 15,-18 13,-23 2,-10 3,-8 5,-7 2,-10 6,10 2,10 5,10 3,10 10,23 18,20 20,18 25,15 31,13 30,13 36,10 36,8 33,5 30,-3 26,-7 22,-13 23,-13 21,-15 23,-15 25,-16 38,-30 20,-36 5,-43 v -46 l -2,-22 -8,-26 -12,-25 -16,-23 -20,-21 -23,-17 -25,-13 -28,-5 h -28 l -23,2 -20,11 -18,10 -15,12 -13,16 -13,18 -10,15 -13,28 -2,23 5,22 10,23 13,23 10,15 10,11 3,2 v -13 -33 l 12,-43 31,-46 20,-15 18,-7 15,2 15,8 13,12 13,18 13,23 10,23 5,25 -5,23 -13,26 -20,20 -28,20 -28,16 -31,12 -33,5 h -30 l -31,-7 -28,-13 -25,-18 -26,-23 -22,-28 -21,-33 -18,-38 -12,-66 7,-40 18,-23 8,-5 5,-8 13,-25 17,-36 21,-43 23,-51 20,-51 20,-53 13,-46 8,-46 2,-48 -2,-48 -8,-54 -13,-58 -13,-61 -17,-66 -21,-74 -17,-71 -18,-69 -13,-63 -10,-64 -10,-63 -10,-66 -8,-69 -8,-76 5,-54 v -12 l -2,-31 -5,-43 -13,-48 10,-8 13,-8 15,-10 18,-15 38,-25 41,-16 40,-7 44,-3 40,5 41,5 41,8 40,5 36,8 33,7 28,13 28,13 23,15 23,18 20,18 20,20 28,58 5,77 -5,78 v 61 l -7,23 -21,26 -30,23 -36,20 -35,20 -31,15 -23,11 -7,2 5,5 10,8 15,10 20,5 16,-2 18,-6 25,-10 25,-10 28,-13 23,-15 23,-13 15,-10 16,-12 12,-16 16,-17 12,-21 10,-23 8,-23 3,-25 z"
   id="path53"
   inkscape:connector-curvature="0"
   style="fill:#000000;stroke:none" />
        <path
   d="m 10636,16457 -8,25 -15,36 -18,43 -23,48 -22,51 -23,51 -23,48 -18,41 -20,-41 -23,-48 -23,-51 -25,-51 -23,-50 -18,-46 -15,-38 -8,-26 -3,-68 11,-94 15,-94 18,-71 7,-26 13,-25 13,-26 15,-28 15,-25 15,-28 18,-28 15,-31 v 6 l 16,30 18,28 15,28 15,28 15,25 13,26 10,25 8,26 18,73 15,94 13,94 z"
   id="path55"
   inkscape:connector-curvature="0"
   style="fill:#000000;stroke:none" />
        <path
   d="m 11991,14935 -5,-36 -13,-33 -25,-33 -34,-31 -45,-27 -59,-28 -68,-26 -82,-23 -94,-20 -106,-18 -122,-15 -135,-13 -153,-13 -165,-7 -183,-3 -198,-2 -198,2 -183,8 -168,13 -153,15 -137,18 -122,23 -109,28 -97,27 -81,31 -71,33 -59,33 -46,36 -35,35 -23,38 -15,36 -5,36 v 22 23 l 2,21 13,20 -13,23 -2,23 v 25 23 l 5,36 15,30 23,31 35,27 46,26 59,23 71,20 81,18 97,15 109,15 122,13 137,8 153,7 168,5 183,6 h 198 l 198,-3 183,-5 165,-10 153,-13 135,-15 122,-18 106,-23 94,-23 82,-28 68,-28 59,-30 45,-31 34,-33 25,-33 13,-35 5,-36 -3,-25 -5,-23 -10,-21 -15,-20 15,-20 10,-23 5,-23 z"
   id="path57"
   inkscape:connector-curvature="0"
   style="fill:#000000;stroke:none" />
        <path
   d="m 9058,15115 15,130 5,5 18,10 28,18 38,18 53,22 64,21 73,18 89,12 51,5 54,5 61,5 61,6 66,5 68,2 69,5 71,3 71,5 69,2 69,3 h 66 l 61,3 h 61 53 51 l 51,-3 h 61 l 71,-5 79,-3 83,-5 89,-2 92,-5 91,-8 92,-5 86,-8 84,-5 77,-7 68,-8 59,-8 48,-7 33,-8 53,-18 54,-23 51,-25 45,-23 38,-23 31,-18 20,-12 8,-5 -5,-130 h -8 l -23,5 -30,5 -38,5 -44,8 -40,5 -36,8 -28,5 -23,5 -40,7 -56,8 -71,13 -82,13 -91,12 -97,15 -99,16 -99,12 -97,16 -94,12 -84,13 -73,10 -64,5 -46,5 -28,3 h -28 l -43,-5 -58,-5 -71,-5 -82,-8 -89,-10 -94,-8 -96,-10 -97,-10 -94,-10 -91,-8 -84,-10 -74,-8 -64,-5 -48,-5 -33,-2 -48,-3 -54,-5 -50,-8 -49,-5 -43,-5 -33,-5 -23,-5 z"
   id="path59"
   inkscape:connector-curvature="0"
   style="fill:#a83f00;stroke:none" />
        <path
   d="m 11907,14963 2,-3 5,-15 -7,-36 -28,-58 -28,-13 -36,-15 -38,-15 -40,-13 -46,-15 -48,-16 -49,-15 -48,-15 -51,-13 -51,-13 -48,-10 -48,-10 -44,-8 -43,-5 -38,-2 -33,-3 h -38 l -51,-2 h -61 l -71,-3 -76,-2 h -84 l -89,-3 -89,-2 h -92 l -91,-3 h -89 l -86,3 h -79 l -74,2 -64,5 -53,5 -48,5 -49,5 -45,8 -43,5 -44,5 -43,8 -41,8 -40,7 -41,8 -41,7 -40,11 -41,10 -41,12 -40,13 -41,13 -41,15 -76,28 -58,25 -46,23 -33,21 -25,17 -16,18 -7,18 -5,18 2,18 13,15 18,13 20,10 20,7 21,5 12,6 h 5 13 l 36,5 56,5 73,5 89,10 99,8 110,10 114,10 117,10 117,10 112,8 109,10 99,8 87,5 73,5 54,2 h 51 l 61,-2 71,-5 78,-8 87,-10 89,-10 91,-13 92,-13 91,-12 89,-10 82,-13 76,-13 66,-10 58,-8 44,-5 30,-5 46,-7 41,-11 38,-10 33,-10 28,-10 20,-8 13,-5 z"
   id="path61"
   inkscape:connector-curvature="0"
   style="fill:#a83f00;stroke:none" />
        <path
   d="m 11243,14894 h -5 l -15,5 -20,5 -31,5 -38,8 -40,7 -49,11 -48,10 -53,10 -56,8 -56,10 -56,7 -54,8 -53,5 -51,5 -46,3 h -48 l -53,-5 -59,-5 -63,-11 -64,-10 -68,-12 -66,-16 -67,-12 -61,-16 -58,-15 -53,-13 -49,-10 -38,-10 -28,-8 -18,-5 -7,-2 -3,-125 -10,-5 -30,-10 -46,-18 -51,-20 -56,-26 -56,-25 -48,-28 -36,-25 -30,-26 -38,-30 -38,-36 -41,-40 -41,-41 -33,-46 -28,-46 -20,-50 -15,-54 -16,-56 -12,-61 -13,-61 -8,-61 -5,-61 3,-56 7,-53 13,-48 15,-49 18,-45 18,-46 23,-46 23,-43 28,-46 28,-43 35,-46 48,-48 56,-51 59,-51 53,-45 49,-44 38,-38 20,-30 20,-38 13,-23 v -18 l -15,-25 -15,-18 -16,-18 -18,-23 -12,-23 -13,-23 -8,-28 v -28 l 11,-30 12,-31 10,-28 11,-25 10,-20 15,-21 18,-17 23,-16 30,-12 23,-5 33,-8 46,-5 51,-8 58,-5 64,-5 66,-5 68,-5 72,-5 71,-3 66,-5 66,-2 58,-3 h 54 l 46,-2 h 38 33 38 38 41 40 44 43 l 40,2 41,3 41,2 38,3 35,2 36,5 31,5 25,5 23,8 43,15 46,18 46,20 43,23 38,21 30,20 21,20 10,18 8,48 5,69 -5,66 -28,48 -21,13 -18,15 -12,11 -10,12 -6,10 -2,13 2,10 6,10 10,13 15,15 18,18 20,21 26,20 25,23 25,20 26,23 33,28 40,35 51,44 51,51 51,58 43,61 38,66 23,71 -2,-25 10,25 15,66 15,92 10,114 v 120 l -20,117 -46,106 -40,66 -38,59 -33,51 -36,45 -36,41 -40,41 -49,40 -53,41 -53,36 -51,30 -46,26 -41,20 -35,15 -28,10 -18,5 -5,3 z"
   id="path63"
   inkscape:connector-curvature="0"
   style="fill:#000000;stroke:none" />
        <path
   d="m 9726,12779 38,41 38,28 36,20 38,13 41,8 45,7 51,5 61,8 38,3 39,2 38,3 38,2 40,3 h 39 38 l 35,2 h 36 35 l 31,-2 h 30 28 l 23,-3 h 23 l 18,-2 20,-3 31,-2 35,-3 44,-2 45,-6 51,-5 54,-5 55,-7 56,-8 54,-10 53,-10 48,-10 46,-16 41,-12 35,-18 26,-18 -31,-33 -33,-23 -35,-13 -33,-10 -36,-2 -28,-3 -23,-5 -18,-5 -20,-5 -33,-8 -43,-5 -51,-2 -53,-5 -56,-3 -51,-3 -46,-2 h -41 -40 -41 -35 l -36,2 h -31 -30 l -23,-2 h -35 l -51,2 -66,6 -69,5 -66,5 -56,2 -38,5 h -15 -8 -25 l -36,5 -46,5 -48,13 -51,18 -51,25 -43,33 -94,-15 v -5 l 3,-13 2,-17 5,-18 13,-21 15,-20 20,-18 31,-15 13,-2 23,-3 35,-5 43,-5 49,-5 58,-5 61,-5 66,-8 69,-5 66,-5 69,-5 66,-5 63,-3 56,-5 53,-3 h 44 30 36 38 43 l 43,3 43,3 h 46 l 46,2 43,5 43,3 44,2 38,5 35,5 31,6 28,5 20,7 38,13 41,10 38,13 36,10 33,13 23,12 17,13 8,13 8,40 5,56 -3,59 -25,41 -33,33 -18,40 -5,41 7,28 11,13 17,22 23,26 28,28 28,30 28,31 28,25 26,23 27,25 39,34 45,40 46,48 46,54 43,58 33,61 20,64 -5,-20 8,27 10,67 13,94 5,109 -5,117 -20,112 -41,96 -36,61 -35,54 -31,45 -30,41 -33,38 -38,36 -44,35 -48,38 -48,36 -51,33 -48,33 -46,31 -38,25 -31,18 -18,12 -7,6 2,81 h -5 l -15,2 -23,5 -33,6 -38,7 -43,8 -49,7 -53,8 -56,10 -56,8 -56,7 -56,8 -53,5 -51,5 -48,3 -43,2 h -44 l -48,-2 -51,-5 -56,-8 -58,-10 -58,-10 -61,-10 -56,-11 -56,-12 -51,-10 -48,-11 -41,-10 -33,-7 -26,-8 -17,-3 -5,-2 30,-109 -13,-5 -30,-11 -46,-20 -53,-20 -56,-26 -56,-28 -48,-25 -33,-23 -34,-28 -40,-35 -46,-46 -51,-49 -48,-50 -43,-54 -33,-51 -21,-48 -12,-48 -16,-51 -12,-56 -10,-56 -8,-56 -3,-53 3,-51 8,-48 12,-46 13,-43 15,-41 18,-43 18,-41 23,-40 23,-38 25,-41 38,-43 53,-51 61,-51 67,-53 66,-54 56,-45 40,-39 23,-30 10,-51 -2,-53 -18,-49 -20,-35 -23,-28 -18,-26 -8,-30 13,-46 z"
   id="path65"
   inkscape:connector-curvature="0"
   style="fill:#ffffff;stroke:none" />
        <path
   d="m 9848,12744 h 5 l 15,-3 23,-2 31,-5 35,-5 41,-5 43,-6 46,-5 48,-5 46,-5 46,-5 40,-5 39,-5 33,-3 28,-2 h 17 18 28 33 l 38,-3 h 43 46 49 l 50,-2 h 49 48 43 41 l 35,2 h 31 23 l 12,3 23,5 31,8 35,10 36,7 33,11 28,7 18,5 7,3 39,56 h -8 l -20,5 -31,2 -38,8 -48,8 -54,7 -58,8 -61,7 -61,11 -59,7 -58,8 -53,5 -46,8 -38,2 -28,3 h -18 -15 -18 -23 -28 -30 l -33,2 h -36 -38 l -38,3 h -41 l -38,-3 h -38 l -38,-2 -36,-3 -33,-2 -30,-6 -54,-10 -48,-12 -43,-13 -36,-13 -28,-10 -20,-8 -13,-5 -5,-2 z"
   id="path67"
   inkscape:connector-curvature="0"
   style="fill:#ffffff;stroke:none" />
        <path
   d="m 9873,13092 h 6 l 15,-2 23,-3 30,-5 36,-5 40,-5 44,-5 48,-5 46,-6 45,-5 46,-5 43,-5 39,-5 33,-2 25,-3 h 18 18 28 33 l 38,-2 h 43 46 50 l 49,-3 h 51 45 46 41 l 35,3 h 31 23 l 12,2 23,5 28,8 36,10 35,8 34,10 27,7 18,5 8,3 38,56 h -8 l -20,5 -30,3 -39,7 -48,8 -53,7 -59,8 -61,8 -61,10 -58,7 -59,8 -53,5 -46,8 -38,2 -28,3 h -18 -12 -21 -23 -28 -30 l -33,2 h -36 -38 l -38,3 h -38 l -38,-3 h -41 l -35,-2 -36,-3 -33,-2 -31,-5 -55,-11 -49,-12 -40,-13 -36,-13 -28,-10 -20,-7 -13,-5 -5,-3 z"
   id="path69"
   inkscape:connector-curvature="0"
   style="fill:#000000;stroke:none" />
        <path
   d="m 9769,13151 8,5 25,12 33,18 41,20 43,21 41,18 33,12 23,5 h 13 l 20,3 25,2 33,3 38,5 44,5 43,3 48,5 46,5 48,2 46,3 43,2 38,3 h 36 l 30,-3 23,-2 26,-5 33,-5 43,-5 48,-8 51,-8 56,-7 58,-8 56,-10 56,-8 54,-7 50,-8 44,-5 38,-5 28,-5 18,-3 h 5 l 78,-28 6,3 15,10 25,13 31,20 38,26 40,27 44,34 45,35 46,38 46,43 41,44 38,45 30,46 26,48 15,51 8,49 10,160 10,114 -3,94 -28,107 -12,33 -21,33 -23,38 -28,41 -33,38 -33,43 -38,41 -40,38 -41,40 -43,39 -43,33 -44,33 -43,28 -41,25 -40,18 -38,15 -23,10 -13,15 -5,16 -3,5 v 96 h -7 l -21,3 -30,2 -41,6 -48,5 -53,5 -59,5 -61,5 -63,5 -59,5 -58,5 -51,5 -46,5 -38,3 -28,2 h -15 -13 l -20,-2 -31,-3 -33,-5 -38,-5 -43,-5 -46,-8 -46,-5 -48,-7 -46,-8 -43,-8 -41,-7 -38,-8 -30,-5 -26,-7 -17,-6 -23,-10 -18,-5 -15,-5 -11,-2 h -5 -5 -2 v 0 l 28,-97 -13,-3 -30,-10 -46,-15 -54,-18 -53,-20 -51,-18 -38,-18 -23,-15 -23,-23 -40,-38 -54,-53 -61,-61 -58,-66 -51,-64 -41,-58 -20,-51 -18,-117 -10,-160 v -153 l 23,-94 23,-28 35,-40 41,-49 48,-50 49,-51 45,-46 38,-36 34,-25 27,-20 31,-28 33,-28 33,-31 28,-28 23,-23 15,-17 z"
   id="path71"
   inkscape:connector-curvature="0"
   style="fill:#000000;stroke:none" />
        <path
   d="m 9955,13097 h 5 l 13,-2 20,-3 25,-2 31,-6 35,-5 39,-5 40,-5 41,-2 38,-5 41,-6 35,-5 33,-2 28,-3 23,-2 h 15 16 23 30 33 l 38,-3 h 41 43 43 41 43 38 36 30 26 l 20,3 h 10 l 21,5 25,5 31,8 30,10 28,7 25,5 18,6 5,2 33,48 h -5 l -18,3 -27,5 -34,5 -43,5 -46,8 -50,7 -51,8 -54,8 -53,5 -48,7 -46,5 -41,5 -33,3 -23,3 h -15 -13 -15 -20 l -26,2 h -25 -30 l -31,3 h -33 -33 -33 -36 -33 l -30,-3 -31,-2 -30,-3 -26,-5 -48,-10 -43,-10 -36,-11 -30,-10 -26,-10 -17,-7 -13,-3 -3,-3 z"
   id="path73"
   inkscape:connector-curvature="0"
   style="fill:#87f2f2;stroke:none" />
        <path
   d="m 9800,13194 10,5 30,15 44,20 50,23 54,23 48,20 38,16 26,5 h 12 18 28 33 38 l 41,2 h 43 46 46 l 45,-2 h 46 43 l 39,-3 35,-2 28,-3 23,-2 23,-5 30,-3 38,-8 44,-5 48,-7 48,-8 51,-5 53,-8 49,-7 48,-5 43,-8 38,-5 33,-5 26,-3 15,-2 h 5 l 76,-26 6,3 15,10 23,13 28,18 35,22 38,28 41,31 43,35 43,39 41,38 38,43 36,43 30,46 23,46 15,45 5,49 8,155 13,109 -3,94 -25,102 -15,30 -23,36 -31,38 -35,41 -38,40 -44,41 -43,41 -46,40 -45,38 -44,38 -40,33 -38,28 -31,26 -28,20 -18,13 -10,7 -13,8 -12,8 -13,7 -10,8 -13,5 -7,5 -6,5 h -2 l -25,104 h -6 l -17,3 -28,5 -36,3 -43,5 -48,7 -51,5 -54,8 -56,8 -53,5 -48,7 -49,5 -38,3 -33,5 -25,3 h -13 -13 l -20,-3 -28,-2 -33,-6 -35,-2 -41,-8 -43,-5 -44,-5 -45,-8 -43,-7 -44,-5 -38,-8 -35,-7 -28,-6 -26,-7 -15,-5 -23,-10 -20,-6 -13,-5 -13,-5 h -7 l -5,-2 h -3 v 0 l 28,-94 -10,-3 -28,-10 -38,-13 -43,-17 -49,-16 -43,-18 -33,-17 -20,-13 -23,-20 -43,-38 -56,-51 -61,-59 -64,-63 -58,-66 -46,-66 -25,-61 -21,-110 -13,-147 v -137 l 23,-87 23,-28 31,-40 38,-49 43,-48 41,-51 43,-46 36,-35 30,-26 28,-20 30,-23 34,-28 30,-28 28,-28 25,-20 16,-15 z"
   id="path75"
   inkscape:connector-curvature="0"
   style="fill:#87f2f2;stroke:none" />
        <path
   d="m 10608,13778 3,-15 2,-38 v -41 l -5,-30 -8,-13 -10,-8 -7,-2 h -11 l -10,2 -10,3 -10,2 -10,3 -13,23 v 46 l 5,43 3,20 81,5 119,-198 -25,729 -213,18 -11,-277 -2,-28 -5,-66 -15,-71 -26,-43 -15,-8 -15,-5 -13,-2 -13,-3 h -10 l -13,5 -10,3 -10,7 -28,36 -15,40 -5,46 -3,49 3,81 10,109 10,97 5,40 -567,5 13,-599 71,30 h 43 v -7 l 3,-16 v -17 l -3,-13 -10,-10 -10,-3 -10,3 -10,2 -8,10 v 21 l 3,20 2,10 -71,-30 -84,2 -8,-127 56,-15 21,56 56,-5 -5,-61 91,2 -8,74 h 44 l 2,-71 h 74 l -23,140 -56,5 5,84 99,2 102,-51 84,5 2,-15 3,-38 v -41 l -5,-30 -8,-13 -10,-10 -8,-5 -10,-3 -10,3 -13,2 -10,5 -10,8 -5,26 -3,45 3,43 v 18 l -102,51 3,-285 79,8 -26,-130 153,-2 7,74 69,2 -15,-91 124,5 -10,89 59,-21 7,-84 130,8 -3,158 132,20 z"
   id="path77"
   inkscape:connector-curvature="0"
   style="fill:#000000;stroke:none" />
        <path
   d="m 9812,13781 67,2 v -10 l 2,-25 -2,-28 -8,-18 -13,-8 h -15 l -13,5 -12,3 -6,15 -2,26 2,25 v 13 l -35,7 2,-66 -91,5 -15,-99 43,-2 20,51 69,-5 2,-61 51,5 -2,58 89,13 -16,-79 41,8 -10,111 -66,-20 -3,135 155,10 5,-287 56,218 112,11 v -11 -25 l 3,-31 2,-28 v -22 l -5,-21 -10,-18 -10,-12 -15,-8 -18,-2 -21,2 -20,10 -8,8 -5,10 -5,13 -2,13 -3,22 3,39 2,35 v 15 l -56,-221 h 69 l -20,-107 99,-25 7,89 110,-5 v -89 h 71 v 102 l 107,-41 -5,-69 91,11 -10,152 130,28 -79,46 -8,-16 -15,-12 -20,-8 -18,-5 -13,5 -15,10 -13,13 -10,10 -3,18 3,28 2,28 v 18 l 3,12 3,13 2,10 v 5 l 107,-2 v -18 -38 l -3,-41 -2,-30 79,-46 -18,684 -160,5 -18,-295 -3,-26 -5,-55 -15,-61 -25,-36 -18,-8 -23,-5 -23,-2 h -28 l -25,5 -26,5 -23,10 -20,13 -23,38 -8,48 3,54 v 48 l 3,71 5,99 2,89 3,38 -483,-10 5,-529 z"
   id="path79"
   inkscape:connector-curvature="0"
   style="fill:#b27f99;stroke:none" />
        <path
   d="m 9952,14035 v 0 2 6 2 l 8,3 h 15 20 23 23 21 15 l 5,-3 v -13 -17 -16 -7 h -10 v 5 13 12 13 l -8,2 h -15 -20 -21 -20 l -18,-2 h -13 z"
   id="path81"
   inkscape:connector-curvature="0"
   style="fill:#000000;stroke:none" />
        <path
   d="m 10079,14106 v 0 5 3 5 h 8 l 15,2 h 21 22 23 21 15 l 8,-2 v -13 -18 -15 -8 h -13 v 6 10 15 10 l -8,3 -15,2 h -18 l -23,-2 h -20 -18 l -13,-3 z"
   id="path83"
   inkscape:connector-curvature="0"
   style="fill:#000000;stroke:none" />
        <path
   d="m 10074,14241 v 0 2 5 3 l 8,3 h 15 l 20,2 h 23 23 21 l 15,-2 7,-3 v -13 -18 -15 -7 h -10 v 5 12 13 13 l -7,2 h -16 -20 -20 -23 l -18,-2 h -13 z"
   id="path85"
   inkscape:connector-curvature="0"
   style="fill:#000000;stroke:none" />
        <path
   d="m 9812,14159 v 0 3 5 3 l 8,2 h 15 l 21,3 h 23 22 21 l 15,-3 8,-2 v -11 -17 -16 -7 h -13 v 5 10 13 12 l -8,3 h -15 -18 -23 -20 l -18,-3 h -12 z"
   id="path87"
   inkscape:connector-curvature="0"
   style="fill:#000000;stroke:none" />
        <path
   d="m 9820,13964 v 0 5 2 5 h 8 l 15,3 h 20 23 23 20 16 l 7,-3 v -12 -18 -15 -8 h -12 v 5 10 16 10 l -8,2 -15,3 h -18 l -23,-3 h -20 -18 l -13,-2 z"
   id="path89"
   inkscape:connector-curvature="0"
   style="fill:#000000;stroke:none" />
        <path
   d="m 10067,13877 v 0 3 5 3 l 7,2 h 16 l 20,3 h 23 23 20 l 15,-3 5,-2 v -13 -18 -15 -8 h -10 v 5 13 13 12 l -8,3 h -15 -20 -20 -21 l -18,-3 h -12 z"
   id="path91"
   inkscape:connector-curvature="0"
   style="fill:#000000;stroke:none" />
        <path
   d="m 10288,13753 v 0 l 2,2 v 5 l -2,3 h 7 l 16,3 h 20 23 23 20 15 l 8,-3 v -13 -17 -16 -7 h -10 v 5 12 13 13 l -8,2 h -15 -20 -21 -23 l -17,-2 h -13 z"
   id="path93"
   inkscape:connector-curvature="0"
   style="fill:#000000;stroke:none" />
        <path
   d="m 10339,13649 v 0 2 5 3 h 7 l 15,2 h 21 23 23 20 15 l 8,-2 v -13 -18 -15 -8 h -13 v 6 12 13 13 l -8,2 h -15 -18 -22 -21 l -18,-2 h -12 z"
   id="path95"
   inkscape:connector-curvature="0"
   style="fill:#000000;stroke:none" />
        <path
   d="m 10186,13600 v 0 5 3 5 h 8 l 15,3 h 20 23 23 20 16 l 7,-3 v -13 -17 -16 -7 h -12 v 5 10 15 10 l -8,3 -15,2 h -18 l -23,-2 h -20 -18 l -13,-3 z"
   id="path97"
   inkscape:connector-curvature="0"
   style="fill:#000000;stroke:none" />
        <path
   d="m 10511,13827 v 0 l 3,5 v 2 l -3,5 h 8 l 15,3 h 21 23 22 21 12 l 8,-3 v -12 -18 -15 -8 h -10 v 5 10 15 11 l -8,2 -15,3 h -20 l -21,-3 h -20 -18 l -12,-2 z"
   id="path99"
   inkscape:connector-curvature="0"
   style="fill:#000000;stroke:none" />
        <path
   d="m 10534,13984 v 0 3 5 2 l 8,3 h 15 l 18,2 h 25 23 18 l 15,-2 8,-3 v -12 -18 -15 -8 h -10 v 5 13 12 13 l -8,3 h -15 -20 -21 -20 l -18,-3 h -13 z"
   id="path101"
   inkscape:connector-curvature="0"
   style="fill:#000000;stroke:none" />
        <path
   d="m 10539,14220 v 0 l 3,6 v 2 l -3,5 h 8 l 15,3 h 21 22 23 21 12 l 8,-3 v -13 -17 -16 -7 h -10 v 5 10 15 10 l -8,3 -15,3 h -20 l -21,-3 h -20 -18 l -13,-3 z"
   id="path103"
   inkscape:connector-curvature="0"
   style="fill:#000000;stroke:none" />
        <path
   d="m 11749,14198 -10,10 -25,30 -41,43 -48,51 -54,54 -53,51 -48,40 -44,26 -35,17 -33,18 -33,15 -33,18 -31,15 -35,16 -36,12 -41,13 -22,8 -23,5 -26,7 -28,6 -28,7 -30,8 -31,5 -28,5 -30,5 -31,5 -30,5 -28,3 -28,2 h -25 -23 -23 l -23,-2 -31,-3 -33,-2 -38,-3 -38,-2 -43,-3 -43,-3 -44,-5 -45,-2 -41,-5 -41,-3 -38,-5 -35,-5 -31,-5 -25,-5 -21,-5 -33,-10 -30,-8 -28,-8 -28,-7 -28,-8 -31,-7 -30,-13 -36,-15 -33,-13 -28,-10 -25,-8 -25,-10 -26,-10 -28,-18 -30,-23 -38,-33 -44,-33 -43,-30 -46,-23 -43,-23 -40,-26 -36,-28 -28,-33 -20,-43 -26,-79 -10,-50 3,-34 28,-22 20,-5 15,5 13,12 10,18 10,20 8,18 7,18 8,10 18,21 15,20 13,2 7,-28 -2,-50 -5,-51 7,-36 33,-13 36,13 18,23 7,25 v 21 l 3,23 10,28 8,25 2,10 3,5 8,5 5,-5 2,-35 -2,-38 -8,-36 -10,-30 -13,-23 -13,-23 -12,-26 -10,-23 -8,-22 -5,-21 2,-12 11,-5 17,2 23,8 21,10 15,7 15,11 10,7 8,10 7,8 3,8 5,2 v -18 -20 -10 l 3,-10 5,-26 2,-33 -5,-30 v -13 l 3,-13 10,-10 13,-10 15,-5 13,-8 h 12 10 l 18,28 18,61 3,64 -16,43 -25,23 -13,18 -13,17 -15,23 -15,26 -3,18 8,12 20,5 23,-2 21,-5 22,-8 18,-5 18,-5 10,2 8,11 v 17 l -3,18 -2,13 -5,13 -5,10 -11,10 -12,13 -18,15 -23,20 -41,41 -23,25 -7,18 -3,5 74,23 h 3 l 10,3 h 15 15 15 13 l 10,-5 3,-6 v -55 l 10,-54 13,-43 20,-25 18,-13 20,-10 18,-8 18,-2 18,2 17,8 16,12 15,16 15,23 15,25 16,30 15,31 13,30 12,26 8,20 5,13 5,18 8,20 15,13 20,-8 16,-13 17,-15 21,-18 23,-17 22,-16 23,-12 23,-8 23,-3 20,3 18,5 18,8 15,10 10,10 11,8 5,5 2,2 8,5 20,11 21,2 20,-18 10,-15 15,-13 18,-12 20,-11 23,-5 23,-2 20,5 23,10 18,13 15,10 13,10 10,3 8,2 10,-2 10,-5 13,-11 13,-12 12,-16 11,-12 12,-13 10,-8 16,-2 12,2 18,11 15,12 18,16 13,15 15,12 13,11 13,7 12,3 13,-3 15,-12 v -16 l -18,-20 -22,-25 -18,-31 -5,-36 7,-35 13,-36 8,-15 10,-10 10,-10 13,-5 12,-3 11,3 12,7 10,10 11,18 v 15 l -5,21 -8,30 v 33 l 10,23 13,15 5,6 v -8 l -3,-18 3,-25 2,-31 13,-28 18,-20 18,-18 18,-13 10,-2 h 12 l 16,2 12,8 13,13 8,15 5,20 -3,28 -10,44 -15,27 -15,18 -6,18 3,10 8,8 7,7 13,8 15,5 h 15 13 l 15,-5 16,-5 15,-5 18,-3 15,-5 10,-7 8,-8 2,-15 -5,-21 -20,-33 -18,-12 -15,-8 -15,-18 -16,-33 -12,-43 -5,-46 5,-45 7,-21 13,-15 15,-10 15,-8 13,-2 13,5 10,12 5,21 5,46 8,38 7,28 3,10 v -13 -38 -48 l -3,-56 -2,-38 -3,-31 -12,-18 -26,-2 -30,-8 -15,-28 -6,-38 8,-38 18,-10 23,18 20,15 10,-28 -2,-69 -3,-76 3,-71 15,-43 13,-11 15,-2 h 13 l 15,8 15,12 13,18 10,25 10,28 -18,49 -5,45 8,34 28,7 23,-5 23,-10 25,-5 h 18 l 10,7 -3,21 -17,38 -36,58 -25,33 -16,21 -10,20 -5,33 -2,43 -5,41 -3,36 5,22 10,13 8,3 7,-11 8,-22 5,-36 5,-36 10,-30 21,-15 12,2 16,15 12,21 11,25 10,28 5,31 v 30 l -5,26 -10,25 -11,23 -10,20 -12,15 -13,13 -15,5 -18,3 -18,-5 -13,30 -15,28 -13,26 -10,17 -5,13 5,5 13,-5 28,-15 35,-26 36,-30 33,-33 33,-31 31,-30 28,-26 22,-17 18,-10 23,15 10,43 v 46 z"
   id="path105"
   inkscape:connector-curvature="0"
   style="fill:#000000;stroke:none" />
        <path
   d="m 11714,14203 5,-18 5,-36 v -28 l -15,-2 -13,10 -15,15 -16,15 -15,18 -18,16 -15,15 -18,12 -15,8 -18,10 -23,16 -25,15 -23,18 -20,17 -18,16 -13,10 -5,2 -5,-2 -10,-10 -8,-18 v -26 l 8,-33 10,-33 15,-30 23,-21 23,-7 20,-3 16,-2 10,-10 23,-54 10,-38 5,-23 v -7 l -5,-16 -10,-30 -16,-28 -15,-3 -10,26 v 35 38 l -8,26 -15,18 -18,12 -15,3 -18,-20 -10,-49 v -68 l 8,-64 2,-35 3,-31 13,-30 17,-26 21,-23 20,-20 18,-18 13,-13 2,-10 -2,-7 -8,-3 h -10 l -10,3 -13,5 -13,7 -13,8 -12,10 -28,18 h -18 l -8,-15 v -23 l 3,-31 2,-33 6,-28 v -20 l -6,-30 -5,-21 -2,-15 v -5 l -5,-3 -13,-5 -15,-2 -10,10 -5,33 -3,53 v 49 22 102 l -69,-18 v 10 l 3,26 5,20 13,8 18,-5 h 22 l 21,7 12,13 3,36 -3,58 -2,53 -3,26 5,15 8,33 -2,36 -26,18 -33,-6 -13,-17 3,-18 2,-10 -2,-16 -5,-35 -13,-36 -13,-12 -12,7 -10,15 -3,21 5,33 10,38 5,36 5,28 3,10 h 2 l 11,5 15,5 15,7 15,8 16,10 10,10 2,13 -2,31 -5,30 -8,26 -18,12 -12,3 -18,7 -21,8 -22,5 -23,8 -23,5 h -20 l -16,-3 -20,-17 -13,-31 -2,-30 5,-26 12,-30 13,-44 v -38 l -18,-23 h -22 l -11,8 -5,18 -7,23 -16,43 -10,41 -7,30 -3,13 -5,-3 -15,-12 -21,-23 -25,-38 -3,-31 8,-33 3,-25 -21,-6 -25,23 -8,36 v 33 l 3,15 81,99 -2,5 -8,11 -18,10 -30,7 h -18 l -18,-5 -15,-10 -18,-10 -15,-13 -16,-10 -15,-8 -15,-5 h -18 l -15,8 -20,10 -18,13 -18,13 -15,12 -15,8 -16,2 -12,-2 -16,-8 -15,-7 -15,-10 -15,-11 -16,-5 -17,-5 -18,3 -16,7 -12,11 -10,15 -11,12 -7,16 -10,10 -11,8 -15,2 -15,-2 -18,-8 -20,-10 -20,-13 -21,-10 -20,-13 -23,-7 -20,-3 h -21 -17 l -16,3 -12,2 -16,5 -12,8 -13,7 -13,13 -13,13 -15,7 -15,6 h -18 l -20,-6 -18,-12 -23,-23 -20,-31 -10,-35 -8,-31 -10,-23 -8,-20 -10,-18 -10,-15 -13,-15 -15,-15 -15,-13 -18,-8 h -15 l -16,5 -12,8 -10,13 -11,15 -7,18 -5,43 2,46 -2,38 -16,23 -12,5 -13,2 -13,3 -12,2 h -16 l -15,-2 -18,-3 -20,-5 -23,-5 -23,-8 -23,-7 -20,-10 -15,-11 -8,-15 v -12 l 10,-18 18,-18 20,-18 21,-20 20,-15 18,-16 15,-12 10,-8 3,-3 7,-10 16,-23 2,-17 -20,2 -18,8 -18,2 -15,3 -15,-3 -13,-5 -10,-2 -5,-5 h -3 l -5,-11 -10,-22 -5,-26 5,-20 10,-10 13,-13 15,-18 15,-18 13,-15 13,-18 7,-12 3,-11 5,-30 3,-46 -3,-35 -20,-8 -23,28 -5,38 v 38 l 2,15 -63,74 -3,-5 -7,-8 -11,-15 -12,-15 -13,-13 -15,-10 -10,-2 -11,5 -2,15 5,25 10,28 15,31 13,30 15,26 11,15 2,8 -8,94 v 7 l -2,13 -10,15 -26,10 -20,-23 -10,-55 -10,-64 -26,-43 -20,10 -3,58 v 66 l -15,39 -18,-3 -20,-13 -20,-20 -23,-25 -21,-26 -17,-20 -18,-15 -10,-5 -5,7 v 18 l 2,23 10,28 13,30 18,31 20,25 26,21 22,12 28,21 36,22 36,26 38,23 35,23 33,17 28,13 26,13 33,15 35,23 41,20 38,23 41,23 38,15 33,13 20,5 26,5 30,8 38,7 41,8 46,8 46,7 45,8 49,7 45,8 44,5 40,5 36,5 33,3 h 25 18 l 43,-3 h 43 49 l 46,3 h 48 l 43,2 38,-2 36,-5 25,-5 28,-8 31,-8 33,-10 33,-10 35,-10 36,-10 35,-13 36,-13 33,-12 33,-13 28,-13 28,-12 20,-13 21,-10 12,-13 31,-15 25,-13 23,-10 18,-10 18,-10 18,-11 15,-12 15,-13 20,-18 23,-25 26,-28 25,-31 26,-25 20,-23 13,-15 z"
   id="path107"
   inkscape:connector-curvature="0"
   style="fill:#00ff00;stroke:none" />
        <path
   d="m 11765,13982 -23,20 -26,18 -25,17 -33,16 -36,12 -40,11 -46,2 -54,-2 -35,-5 -28,-13 -23,-13 -18,-20 -20,-18 -23,-20 -25,-21 -31,-20 -8,23 -12,28 -16,28 -17,30 -21,33 -20,33 -20,31 -21,30 -25,28 -25,26 -26,23 -20,20 -18,15 -13,13 -10,8 -2,2 5,5 15,15 18,18 23,18 12,18 8,20 2,20 -2,26 -10,20 -13,13 -13,8 -5,2 -2,3 -10,7 -21,10 -33,11 -20,-26 -21,-46 -15,-45 -5,-21 -2,3 -8,5 -10,10 -13,10 -18,13 -15,10 -10,8 -3,2 44,94 -6,5 -15,11 -15,12 -13,8 -18,8 h -17 l -18,-8 -18,-20 -13,-23 -5,-21 v -12 -5 l -5,2 -15,8 -25,10 -26,10 -30,10 -28,10 -23,8 -18,3 h -18 l -23,-6 -25,-5 -28,-7 -28,-8 -28,-7 -20,-8 -18,-8 -18,-10 -28,-18 -30,-23 -33,-22 -33,-26 -26,-20 -18,-15 -7,-5 -89,-41 5,-36 10,-81 20,-97 31,-81 20,-36 28,-40 28,-41 36,-41 38,-40 40,-38 44,-36 48,-30 8,-39 5,-33 7,-30 10,-25 8,-13 10,-13 10,-13 16,-12 12,-13 16,-13 12,-10 16,-10 17,-10 18,-10 18,-11 20,-7 16,-8 12,-5 10,-5 h 3 v 15 l -3,36 -2,51 2,53 11,18 20,15 18,10 10,5 h 5 l 18,-2 25,-3 33,-2 33,-3 36,-2 h 30 28 l 23,2 23,5 26,5 25,5 25,11 28,10 28,15 31,15 -3,-28 -5,-20 -2,-15 -5,-21 v -45 l 5,-77 15,-81 30,-63 18,-13 31,-15 40,-18 44,-15 40,-16 36,-12 25,-8 10,-3 5,11 13,33 13,58 10,86 3,46 5,36 2,30 v 28 l -5,26 -10,25 -18,31 -28,35 3,23 5,15 13,8 h 20 l 28,-5 38,-5 46,-8 58,-5 56,3 48,10 36,15 28,18 18,20 12,18 8,13 3,5 -3,2 -5,10 -8,16 -10,20 -15,23 -15,23 -18,25 z"
   id="path109"
   inkscape:connector-curvature="0"
   style="fill:#000000;stroke:none" />
        <path
   d="m 10641,13844 -30,5 -31,11 -25,15 -23,20 -21,26 -12,28 -8,33 -2,33 5,33 10,30 15,28 20,26 23,20 28,13 31,10 30,2 33,-5 31,-10 25,-15 26,-23 17,-23 16,-30 7,-31 3,-36 -5,-33 -10,-30 -18,-28 -21,-23 -22,-20 -28,-15 -31,-8 z"
   id="path111"
   inkscape:connector-curvature="0"
   style="fill:#ffff7f;stroke:none" />
        <path
   d="m 10733,13941 -21,5 -15,10 -10,13 -3,18 5,17 11,13 15,10 20,3 18,-3 15,-10 10,-15 3,-18 -5,-18 -10,-12 -16,-11 z"
   id="path113"
   inkscape:connector-curvature="0"
   style="fill:#000000;stroke:none" />
        <path
   d="m 11406,13801 -10,-28 -15,-28 -18,-25 -20,-18 -21,-15 -23,-8 h -22 l -21,10 -25,23 -5,18 -5,15 -26,13 -28,-10 -20,-8 -18,-10 -20,-13 -23,-10 -31,-10 -40,-13 -56,-10 h -38 -44 l -50,3 -51,5 -51,5 -53,5 -49,7 -43,8 -28,8 -28,10 -25,13 -23,12 -20,16 -18,12 -16,10 -10,8 99,79 13,-10 13,-8 15,-10 15,-5 18,-5 15,-5 18,-3 h 18 l 38,3 38,12 33,16 28,22 23,28 18,31 10,35 5,36 -5,38 -10,33 -18,31 -23,28 -28,23 -33,15 -38,13 -38,2 -38,-2 -36,-13 -33,-15 -28,-23 -23,-28 -17,-31 -11,-33 -5,-38 5,-38 13,-38 20,-33 28,-28 -99,-79 -15,13 -20,20 -31,26 -30,30 -33,33 -31,36 -25,33 -21,33 -20,43 -15,43 -15,46 -11,43 -7,41 -5,35 -3,28 3,21 23,5 20,7 20,8 21,10 20,8 20,7 26,5 25,3 48,-3 44,-2 38,-5 30,-8 26,-7 17,-6 11,-2 5,-3 7,-111 3,10 7,28 13,38 13,38 25,18 18,12 15,13 8,10 5,5 5,5 v 6 0 l -114,-49 v 0 l -3,3 -5,2 -5,5 -10,6 -15,5 -21,5 -25,7 -33,5 -33,5 h -31 l -28,-2 h -25 l -18,-3 -13,-2 h -5 l 8,5 20,15 31,21 38,25 41,25 48,21 46,15 43,5 38,-3 36,-2 30,-8 25,-7 26,-10 23,-11 23,-12 20,-11 20,-12 23,-13 23,-15 23,-15 25,-21 31,-20 30,-26 36,-27 46,-39 40,-35 36,-33 28,-33 25,-28 21,-28 17,-26 13,-22 13,-26 10,-28 10,-30 10,-28 11,-23 10,-18 15,-10 h 15 l 38,10 31,3 23,-8 18,-13 10,-20 5,-23 -3,-28 z"
   id="path115"
   inkscape:connector-curvature="0"
   style="fill:#ff6633;stroke:none" />
        <path
   d="m 10588,13674 -13,3 -15,5 -18,7 -18,8 -15,5 -13,8 -10,2 -3,3 6,-31 7,-28 8,-25 10,-23 13,-20 15,-21 15,-15 18,-13 23,-15 20,-13 18,-10 15,-7 10,-3 8,-2 3,-3 h 2 l -2,10 -3,31 -5,40 -3,46 8,15 15,13 16,13 12,7 h -5 -10 l -18,3 -20,2 -20,3 h -21 l -18,3 z"
   id="path117"
   inkscape:connector-curvature="0"
   style="fill:#e2c13d;stroke:none" />
        <path
   d="m 10931,14388 5,-2 10,-8 13,-10 12,-13 11,-10 10,-8 5,-2 2,-3 11,10 23,26 25,30 15,28 v 21 l -10,17 -15,11 -10,7 -13,8 -20,13 -18,7 -8,5 -2,-5 -6,-15 -7,-20 -8,-23 -7,-23 -8,-20 -8,-16 z"
   id="path119"
   inkscape:connector-curvature="0"
   style="fill:#e2c13d;stroke:none" />
        <path
   d="m 10758,14508 5,-3 10,-2 13,-5 10,-8 10,-8 10,-7 6,-5 2,-3 41,76 -5,3 -11,10 -12,10 -18,8 h -18 l -18,-10 -12,-13 -5,-10 -3,-10 -2,-11 -3,-10 z"
   id="path121"
   inkscape:connector-curvature="0"
   style="fill:#e2c13d;stroke:none" />
        <path
   d="m 11193,13712 2,-2 5,-11 10,-12 13,-15 15,-13 13,-13 15,-8 h 13 l 13,3 12,3 13,5 13,5 13,5 10,7 10,8 8,10 12,18 10,18 6,13 2,5 10,-16 21,-33 22,-40 13,-33 3,-44 -3,-66 -7,-63 -6,-41 -7,-28 -5,-33 -5,-28 -3,-13 -8,3 -20,8 -30,10 -36,15 -36,15 -33,16 -25,12 -13,13 -15,25 -20,33 -18,41 -3,46 5,56 6,56 2,45 z"
   id="path123"
   inkscape:connector-curvature="0"
   style="fill:#e2c13d;stroke:none" />
        <path
   d="m 11434,13786 3,15 7,33 3,38 -3,28 -10,18 -15,13 -18,12 -15,6 h -21 l -22,-3 -21,-3 h -7 l 5,6 12,10 18,12 23,18 28,18 28,18 28,15 28,8 20,2 23,-2 26,-3 25,-5 30,-8 31,-12 36,-13 40,-18 13,-7 13,-16 15,-17 15,-23 13,-21 10,-17 10,-16 5,-7 8,-13 8,-15 2,-10 3,-6 -3,-2 -8,-8 -10,-7 -15,-13 -18,-10 -15,-8 -18,-7 -18,-3 h -17 -26 l -30,-3 h -31 l -30,3 -28,3 -26,2 -17,8 -16,5 -15,5 -13,2 h -15 -10 l -10,-2 h -5 z"
   id="path125"
   inkscape:connector-curvature="0"
   style="fill:#e2c13d;stroke:none" />
       </g>
      </g>
     </g>
    </g>
   </g>
  </g>
 </g>
</svg>