<?xml version="1.0" encoding="UTF-8" standalone="no"?>
<svg
   xmlns:ooo="http://xml.openoffice.org/svg/export"
   xmlns:dc="http://purl.org/dc/elements/1.1/"
   xmlns:cc="http://creativecommons.org/ns#"
   xmlns:rdf="http://www.w3.org/1999/02/22-rdf-syntax-ns#"
   xmlns:svg="http://www.w3.org/2000/svg"
   xmlns="http://www.w3.org/2000/svg"
   xmlns:sodipodi="http://sodipodi.sourceforge.net/DTD/sodipodi-0.dtd"
   xmlns:inkscape="http://www.inkscape.org/namespaces/inkscape"
   version="1.2"
   width="148.13mm"
   height="144.96001mm"
   viewBox="0 0 14813 14496.001"
   preserveAspectRatio="xMidYMid"
   xml:space="preserve"
   id="svg191"
   sodipodi:docname="flowers3.svg"
   style="fill-rule:evenodd;stroke-width:28.22200012;stroke-linejoin:round"
   inkscape:version="0.92.5 (2060ec1f9f, 2020-04-08)"><metadata
   id="metadata195"><rdf:RDF><cc:Work
       rdf:about=""><dc:format>image/svg+xml</dc:format><dc:type
         rdf:resource="http://purl.org/dc/dcmitype/StillImage" /></cc:Work></rdf:RDF></metadata><sodipodi:namedview
   pagecolor="#ffffff"
   bordercolor="#666666"
   borderopacity="1"
   objecttolerance="10"
   gridtolerance="10"
   guidetolerance="10"
   inkscape:pageopacity="0"
   inkscape:pageshadow="2"
   inkscape:window-width="664"
   inkscape:window-height="487"
   id="namedview193"
   showgrid="false"
   inkscape:zoom="0.2102413"
   inkscape:cx="279.94961"
   inkscape:cy="273.94016"
   inkscape:window-x="0"
   inkscape:window-y="0"
   inkscape:window-maximized="0"
   inkscape:current-layer="svg191" />
 <defs
   class="ClipPathGroup"
   id="defs8">
  <clipPath
   id="presentation_clip_path"
   clipPathUnits="userSpaceOnUse">
   <rect
   x="0"
   y="0"
   width="21000"
   height="29700"
   id="rect2" />
  </clipPath>
  <clipPath
   id="presentation_clip_path_shrink"
   clipPathUnits="userSpaceOnUse">
   <rect
   x="21"
   y="29"
   width="20958"
   height="29641"
   id="rect5" />
  </clipPath>
 </defs>
 <defs
   class="TextShapeIndex"
   id="defs12">
  <g
   ooo:slide="id1"
   ooo:id-list="id3"
   id="g10" />
 </defs>
 <defs
   class="EmbeddedBulletChars"
   id="defs44">
  <g
   id="bullet-char-template-57356"
   transform="matrix(4.8828125e-4,0,0,-4.8828125e-4,0,0)">
   <path
   d="M 580,1141 1163,571 580,0 -4,571 Z"
   id="path14"
   inkscape:connector-curvature="0" />
  </g>
  <g
   id="bullet-char-template-57354"
   transform="matrix(4.8828125e-4,0,0,-4.8828125e-4,0,0)">
   <path
   d="M 8,1128 H 1137 V 0 H 8 Z"
   id="path17"
   inkscape:connector-curvature="0" />
  </g>
  <g
   id="bullet-char-template-10146"
   transform="matrix(4.8828125e-4,0,0,-4.8828125e-4,0,0)">
   <path
   d="M 174,0 602,739 174,1481 1456,739 Z M 1358,739 309,1346 659,739 Z"
   id="path20"
   inkscape:connector-curvature="0" />
  </g>
  <g
   id="bullet-char-template-10132"
   transform="matrix(4.8828125e-4,0,0,-4.8828125e-4,0,0)">
   <path
   d="M 2015,739 1276,0 H 717 l 543,543 H 174 v 393 h 1086 l -543,545 h 557 z"
   id="path23"
   inkscape:connector-curvature="0" />
  </g>
  <g
   id="bullet-char-template-10007"
   transform="matrix(4.8828125e-4,0,0,-4.8828125e-4,0,0)">
   <path
   d="m 0,-2 c -7,16 -16,29 -25,39 l 381,530 c -94,256 -141,385 -141,387 0,25 13,38 40,38 9,0 21,-2 34,-5 21,4 42,12 65,25 l 27,-13 111,-251 280,301 64,-25 24,25 c 21,-10 41,-24 62,-43 C 886,937 835,863 770,784 769,783 710,716 594,584 L 774,223 c 0,-27 -21,-55 -63,-84 l 16,-20 C 717,90 699,76 672,76 641,76 570,178 457,381 L 164,-76 c -22,-34 -53,-51 -92,-51 -42,0 -63,17 -64,51 -7,9 -10,24 -10,44 0,9 1,19 2,30 z"
   id="path26"
   inkscape:connector-curvature="0" />
  </g>
  <g
   id="bullet-char-template-10004"
   transform="matrix(4.8828125e-4,0,0,-4.8828125e-4,0,0)">
   <path
   d="M 285,-33 C 182,-33 111,30 74,156 52,228 41,333 41,471 c 0,78 14,145 41,201 34,71 87,106 158,106 53,0 88,-31 106,-94 l 23,-176 c 8,-64 28,-97 59,-98 l 735,706 c 11,11 33,17 66,17 42,0 63,-15 63,-46 V 965 c 0,-36 -10,-64 -30,-84 L 442,47 C 390,-6 338,-33 285,-33 Z"
   id="path29"
   inkscape:connector-curvature="0" />
  </g>
  <g
   id="bullet-char-template-9679"
   transform="matrix(4.8828125e-4,0,0,-4.8828125e-4,0,0)">
   <path
   d="M 813,0 C 632,0 489,54 383,161 276,268 223,411 223,592 c 0,181 53,324 160,431 106,107 249,161 430,161 179,0 323,-54 432,-161 108,-107 162,-251 162,-431 0,-180 -54,-324 -162,-431 C 1136,54 992,0 813,0 Z"
   id="path32"
   inkscape:connector-curvature="0" />
  </g>
  <g
   id="bullet-char-template-8226"
   transform="matrix(4.8828125e-4,0,0,-4.8828125e-4,0,0)">
   <path
   d="m 346,457 c -73,0 -137,26 -191,78 -54,51 -81,114 -81,188 0,73 27,136 81,188 54,52 118,78 191,78 73,0 134,-26 185,-79 51,-51 77,-114 77,-187 0,-75 -25,-137 -76,-188 -50,-52 -112,-78 -186,-78 z"
   id="path35"
   inkscape:connector-curvature="0" />
  </g>
  <g
   id="bullet-char-template-8211"
   transform="matrix(4.8828125e-4,0,0,-4.8828125e-4,0,0)">
   <path
   d="M -4,459 H 1135 V 606 H -4 Z"
   id="path38"
   inkscape:connector-curvature="0" />
  </g>
  <g
   id="bullet-char-template-61548"
   transform="matrix(4.8828125e-4,0,0,-4.8828125e-4,0,0)">
   <path
   d="m 173,740 c 0,163 58,303 173,419 116,115 255,173 419,173 163,0 302,-58 418,-173 116,-116 174,-256 174,-419 0,-163 -58,-303 -174,-418 C 1067,206 928,148 765,148 601,148 462,206 346,322 231,437 173,577 173,740 Z"
   id="path41"
   inkscape:connector-curvature="0" />
  </g>
 </defs>
 <g
   id="g49"
   transform="translate(-3093,-7602)">
  <g
   id="id2"
   class="Master_Slide">
   <g
   id="bg-id2"
   class="Background" />
   <g
   id="bo-id2"
   class="BackgroundObjects" />
  </g>
 </g>
 <g
   class="SlideGroup"
   id="g189"
   transform="translate(-3093,-7602)">
  <g
   id="g187">
   <g
   id="container-id1">
    <g
   id="id1"
   class="Slide"
   clip-path="url(#presentation_clip_path)">
     <g
   class="Page"
   id="g183">
      <g
   class="Graphic"
   id="g181">
       <g
   id="id3">
        <rect
   class="BoundingBox"
   x="3093"
   y="7602"
   width="14813"
   height="14496"
   id="rect51"
   style="fill:none;stroke:none" />
        <defs
   id="defs56">
         <clipPath
   id="clip_path_1"
   clipPathUnits="userSpaceOnUse">
          <path
   d="M 3093,7602 H 17905 V 22097 H 3093 Z"
   id="path53"
   inkscape:connector-curvature="0" />
         </clipPath>
        </defs>
        <g
   clip-path="url(#clip_path_1)"
   id="g178">
         <path
   d="m 8352,7602 3096,282 1906,107 3000,1377 -742,1338 810,-703 -599,3069 531,-1306 68,2858 1484,2180 -5259,1305 -1905,3989 -4649,-813 1870,71 -3104,-637 -1095,-5353 670,-353 -1341,-2188 3846,-460 142,-4021 2541,493 z"
   id="path58"
   inkscape:connector-curvature="0"
   style="fill:#000000;stroke:none" />
         <path
   d="m 8352,7602 3096,282 1906,107 3000,1377 -742,1338 810,-703 -599,3069 531,-1306 68,2858 1484,2180 -5259,1305 -1905,3989 -4649,-813 1870,71 -3104,-637 -1095,-5353 670,-353 -1341,-2188 3846,-460 142,-4021 2541,493 z"
   id="path60"
   inkscape:connector-curvature="0"
   style="fill:none;stroke:#000000" />
         <path
   d="m 11329,9807 -36,28 -25,31 -23,30 -20,33 -18,36 -18,38 -18,40 -20,46 -79,158 -73,175 -61,188 -49,201 -33,213 -17,224 2,228 23,234 13,127 5,99 13,97 27,91 3,15 -3,10 -7,11 -10,5 -13,2 h -10 l -13,-7 -7,-13 -21,-48 -23,-46 -17,-46 -23,-43 -21,-48 -17,-54 -16,-61 -10,-71 -15,-124 -10,-122 v -120 l 2,-119 10,-117 13,-114 20,-112 23,-112 28,-104 31,-104 33,-102 35,-96 41,-94 41,-89 40,-84 43,-84 26,-45 25,-44 23,-38 28,-35 28,-33 31,-31 35,-30 41,-31 15,-7 h 15 l 13,7 10,8 5,12 v 16 l -2,12 z"
   id="path62"
   inkscape:connector-curvature="0"
   style="fill:#ffffff;stroke:none" />
         <path
   d="m 11329,9807 -36,28 -25,31 -23,30 -20,33 -18,36 -18,38 -18,40 -20,46 -79,158 -73,175 -61,188 -49,201 -33,213 -17,224 2,228 23,234 13,127 5,99 13,97 27,91 3,15 -3,10 -7,11 -10,5 -13,2 h -10 l -13,-7 -7,-13 -21,-48 -23,-46 -17,-46 -23,-43 -21,-48 -17,-54 -16,-61 -10,-71 -15,-124 -10,-122 v -120 l 2,-119 10,-117 13,-114 20,-112 23,-112 28,-104 31,-104 33,-102 35,-96 41,-94 41,-89 40,-84 43,-84 26,-45 25,-44 23,-38 28,-35 28,-33 31,-31 35,-30 41,-31 15,-7 h 15 l 13,7 10,8 5,12 v 16 l -2,12 z"
   id="path64"
   inkscape:connector-curvature="0"
   style="fill:none;stroke:#ffffff" />
         <path
   d="m 11220,10287 58,-78 59,-82 61,-81 60,-84 61,-81 67,-81 68,-79 69,-74 73,-74 74,-66 81,-63 82,-56 89,-51 91,-43 94,-33 102,-25 40,-6 38,-2 h 33 l 36,2 h 36 l 35,3 h 36 l 40,-5 23,8 13,17 -5,23 -23,10 -38,11 -36,10 -33,15 -30,13 -31,15 -33,15 -35,10 -38,10 -97,23 -94,31 -89,35 -89,44 -84,48 -78,51 -79,58 -74,61 -73,64 -72,66 -66,71 -66,71 -61,74 -61,73 -58,74 -56,74 -8,5 -10,-3 -5,-8 z"
   id="path66"
   inkscape:connector-curvature="0"
   style="fill:#ffffff;stroke:none" />
         <path
   d="m 11220,10287 58,-78 59,-82 61,-81 60,-84 61,-81 67,-81 68,-79 69,-74 73,-74 74,-66 81,-63 82,-56 89,-51 91,-43 94,-33 102,-25 40,-6 38,-2 h 33 l 36,2 h 36 l 35,3 h 36 l 40,-5 23,8 13,17 -5,23 -23,10 -38,11 -36,10 -33,15 -30,13 -31,15 -33,15 -35,10 -38,10 -97,23 -94,31 -89,35 -89,44 -84,48 -78,51 -79,58 -74,61 -73,64 -72,66 -66,71 -66,71 -61,74 -61,73 -58,74 -56,74 -8,5 -10,-3 -5,-8 z"
   id="path68"
   inkscape:connector-curvature="0"
   style="fill:none;stroke:#ffffff" />
         <path
   d="m 12698,9223 61,33 59,38 53,41 51,45 45,49 44,53 40,58 33,59 33,68 26,69 23,74 20,78 13,84 12,89 5,92 3,96 -23,117 -25,109 -31,99 -33,92 -38,89 -41,81 -45,76 -49,71 -53,69 -56,63 -58,61 -61,61 -66,56 -66,61 -71,59 -74,58 -10,3 -8,-5 -2,-11 5,-7 68,-56 66,-58 59,-59 56,-58 53,-61 48,-61 46,-66 41,-69 38,-74 33,-76 33,-81 28,-87 28,-93 23,-97 22,-107 21,-114 -3,-84 -2,-84 -8,-81 -10,-76 -13,-71 -15,-69 -20,-66 -21,-61 -28,-56 -30,-53 -33,-51 -38,-46 -41,-40 -48,-39 -48,-33 -56,-30 -13,-13 -8,-10 v -15 l 5,-15 8,-11 13,-10 12,-2 z"
   id="path70"
   inkscape:connector-curvature="0"
   style="fill:#ffffff;stroke:none" />
         <path
   d="m 12698,9223 61,33 59,38 53,41 51,45 45,49 44,53 40,58 33,59 33,68 26,69 23,74 20,78 13,84 12,89 5,92 3,96 -23,117 -25,109 -31,99 -33,92 -38,89 -41,81 -45,76 -49,71 -53,69 -56,63 -58,61 -61,61 -66,56 -66,61 -71,59 -74,58 -10,3 -8,-5 -2,-11 5,-7 68,-56 66,-58 59,-59 56,-58 53,-61 48,-61 46,-66 41,-69 38,-74 33,-76 33,-81 28,-87 28,-93 23,-97 22,-107 21,-114 -3,-84 -2,-84 -8,-81 -10,-76 -13,-71 -15,-69 -20,-66 -21,-61 -28,-56 -30,-53 -33,-51 -38,-46 -41,-40 -48,-39 -48,-33 -56,-30 -13,-13 -8,-10 v -15 l 5,-15 8,-11 13,-10 12,-2 z"
   id="path72"
   inkscape:connector-curvature="0"
   style="fill:none;stroke:#ffffff" />
         <path
   d="m 11171,12236 11,-127 15,-127 18,-127 20,-130 25,-129 28,-127 31,-127 35,-122 38,-122 44,-120 43,-109 48,-109 51,-102 53,-94 59,-86 58,-81 38,-64 38,-61 38,-56 36,-56 38,-51 36,-50 38,-46 38,-48 41,-44 40,-45 43,-41 46,-43 48,-43 54,-43 53,-44 58,-45 28,-13 26,-5 25,13 18,17 13,26 2,25 -7,26 -21,22 -53,44 -51,40 -48,43 -43,44 -41,43 -38,46 -36,43 -35,48 -33,46 -33,51 -33,48 -31,53 -33,53 -33,56 -35,59 -36,61 -58,76 -59,84 -56,89 -56,96 -53,102 -53,104 -51,109 -46,115 -46,114 -40,117 -38,122 -31,122 -28,122 -25,122 -15,122 -13,119 -10,23 -23,7 -23,-10 z"
   id="path74"
   inkscape:connector-curvature="0"
   style="fill:#ffffff;stroke:none" />
         <path
   d="m 11171,12236 11,-127 15,-127 18,-127 20,-130 25,-129 28,-127 31,-127 35,-122 38,-122 44,-120 43,-109 48,-109 51,-102 53,-94 59,-86 58,-81 38,-64 38,-61 38,-56 36,-56 38,-51 36,-50 38,-46 38,-48 41,-44 40,-45 43,-41 46,-43 48,-43 54,-43 53,-44 58,-45 28,-13 26,-5 25,13 18,17 13,26 2,25 -7,26 -21,22 -53,44 -51,40 -48,43 -43,44 -41,43 -38,46 -36,43 -35,48 -33,46 -33,51 -33,48 -31,53 -33,53 -33,56 -35,59 -36,61 -58,76 -59,84 -56,89 -56,96 -53,102 -53,104 -51,109 -46,115 -46,114 -40,117 -38,122 -31,122 -28,122 -25,122 -15,122 -13,119 -10,23 -23,7 -23,-10 z"
   id="path76"
   inkscape:connector-curvature="0"
   style="fill:none;stroke:#ffffff" />
         <path
   d="m 10620,11410 -5,-117 -8,-114 -7,-114 -5,-125 33,-218 30,-211 26,-206 33,-196 35,-188 49,-180 63,-168 81,-160 26,-50 28,-46 25,-43 25,-41 26,-41 28,-38 28,-40 30,-44 31,-38 28,-35 30,-33 33,-28 38,-26 44,-23 50,-17 59,-18 20,-3 20,3 18,10 13,15 41,66 27,72 16,73 7,81 -2,87 -5,96 -10,105 -8,114 -5,13 -13,5 -15,-5 -5,-16 2,-101 v -92 l -10,-81 -13,-76 -20,-69 -28,-68 -33,-59 -40,-58 v -5 l 10,-3 12,5 18,5 18,5 13,10 7,6 -5,5 -46,10 -40,13 -38,12 -31,15 -28,18 -28,18 -25,25 -23,31 -28,41 -28,38 -23,38 -25,38 -23,43 -23,41 -23,45 -25,49 -81,155 -66,165 -54,173 -40,182 -38,188 -31,199 -33,205 -33,211 -5,122 -8,115 -7,111 -5,117 -6,10 -7,3 -8,-3 z"
   id="path78"
   inkscape:connector-curvature="0"
   style="fill:#ffffff;stroke:none" />
         <path
   d="m 10620,11410 -5,-117 -8,-114 -7,-114 -5,-125 33,-218 30,-211 26,-206 33,-196 35,-188 49,-180 63,-168 81,-160 26,-50 28,-46 25,-43 25,-41 26,-41 28,-38 28,-40 30,-44 31,-38 28,-35 30,-33 33,-28 38,-26 44,-23 50,-17 59,-18 20,-3 20,3 18,10 13,15 41,66 27,72 16,73 7,81 -2,87 -5,96 -10,105 -8,114 -5,13 -13,5 -15,-5 -5,-16 2,-101 v -92 l -10,-81 -13,-76 -20,-69 -28,-68 -33,-59 -40,-58 v -5 l 10,-3 12,5 18,5 18,5 13,10 7,6 -5,5 -46,10 -40,13 -38,12 -31,15 -28,18 -28,18 -25,25 -23,31 -28,41 -28,38 -23,38 -25,38 -23,43 -23,41 -23,45 -25,49 -81,155 -66,165 -54,173 -40,182 -38,188 -31,199 -33,205 -33,211 -5,122 -8,115 -7,111 -5,117 -6,10 -7,3 -8,-3 z"
   id="path80"
   inkscape:connector-curvature="0"
   style="fill:none;stroke:#ffffff" />
         <path
   d="m 12472,12109 114,-140 46,-58 43,-54 46,-50 43,-46 46,-43 43,-46 48,-43 49,-49 45,-61 41,-50 38,-49 33,-45 36,-46 35,-46 36,-53 43,-59 28,-45 28,-41 25,-41 26,-38 23,-40 25,-39 25,-43 26,-48 30,-53 38,-77 41,-94 43,-109 43,-117 39,-122 33,-124 25,-119 13,-112 2,-102 -15,-84 -33,-61 -53,-38 -77,-5 -101,26 -130,63 h -10 l -8,-2 -2,-11 8,-7 142,-71 114,-31 86,8 67,38 43,66 23,89 10,109 -8,119 -18,130 -25,132 -36,132 -38,127 -40,117 -41,102 -36,81 -33,58 -28,49 -25,40 -23,44 -25,40 -23,38 -25,41 -28,41 -31,48 -43,58 -38,56 -38,46 -36,48 -35,48 -39,49 -40,53 -48,61 -49,46 -45,46 -46,45 -43,46 -46,46 -43,48 -46,53 -43,59 -148,119 -15,8 -12,2 -13,-2 -13,-8 -8,-13 -2,-12 2,-13 z"
   id="path82"
   inkscape:connector-curvature="0"
   style="fill:#ffffff;stroke:none" />
         <path
   d="m 12472,12109 114,-140 46,-58 43,-54 46,-50 43,-46 46,-43 43,-46 48,-43 49,-49 45,-61 41,-50 38,-49 33,-45 36,-46 35,-46 36,-53 43,-59 28,-45 28,-41 25,-41 26,-38 23,-40 25,-39 25,-43 26,-48 30,-53 38,-77 41,-94 43,-109 43,-117 39,-122 33,-124 25,-119 13,-112 2,-102 -15,-84 -33,-61 -53,-38 -77,-5 -101,26 -130,63 h -10 l -8,-2 -2,-11 8,-7 142,-71 114,-31 86,8 67,38 43,66 23,89 10,109 -8,119 -18,130 -25,132 -36,132 -38,127 -40,117 -41,102 -36,81 -33,58 -28,49 -25,40 -23,44 -25,40 -23,38 -25,41 -28,41 -31,48 -43,58 -38,56 -38,46 -36,48 -35,48 -39,49 -40,53 -48,61 -49,46 -45,46 -46,45 -43,46 -46,46 -43,48 -46,53 -43,59 -148,119 -15,8 -12,2 -13,-2 -13,-8 -8,-13 -2,-12 2,-13 z"
   id="path84"
   inkscape:connector-curvature="0"
   style="fill:none;stroke:#ffffff" />
         <path
   d="m 11326,12589 46,-10 46,-13 46,-13 43,-15 43,-18 43,-20 41,-20 40,-21 39,-22 40,-26 36,-23 33,-25 35,-28 31,-25 30,-26 28,-28 33,-33 33,-30 31,-31 33,-30 33,-31 30,-30 33,-31 31,-28 33,-30 30,-31 33,-28 33,-30 33,-33 33,-33 33,-31 33,-33 11,-5 7,5 5,8 -5,10 -33,36 -30,33 -31,35 -30,33 -28,36 -28,33 -28,35 -25,36 -28,33 -26,36 -28,33 -28,33 -30,35 -28,33 -31,33 -33,33 -30,28 -33,28 -33,28 -38,26 -38,25 -41,25 -41,26 -43,20 -43,23 -46,20 -48,18 -46,18 -48,15 -48,15 -51,13 -48,10 -31,-5 -15,-25 5,-28 z"
   id="path86"
   inkscape:connector-curvature="0"
   style="fill:#ffffff;stroke:none" />
         <path
   d="m 11326,12589 46,-10 46,-13 46,-13 43,-15 43,-18 43,-20 41,-20 40,-21 39,-22 40,-26 36,-23 33,-25 35,-28 31,-25 30,-26 28,-28 33,-33 33,-30 31,-31 33,-30 33,-31 30,-30 33,-31 31,-28 33,-30 30,-31 33,-28 33,-30 33,-33 33,-33 33,-31 33,-33 11,-5 7,5 5,8 -5,10 -33,36 -30,33 -31,35 -30,33 -28,36 -28,33 -28,35 -25,36 -28,33 -26,36 -28,33 -28,33 -30,35 -28,33 -31,33 -33,33 -30,28 -33,28 -33,28 -38,26 -38,25 -41,25 -41,26 -43,20 -43,23 -46,20 -48,18 -46,18 -48,15 -48,15 -51,13 -48,10 -31,-5 -15,-25 5,-28 z"
   id="path88"
   inkscape:connector-curvature="0"
   style="fill:none;stroke:#ffffff" />
         <path
   d="m 8954,17927 68,-201 74,-198 76,-198 79,-196 86,-196 87,-193 94,-190 96,-188 99,-186 104,-178 110,-177 106,-178 117,-173 120,-170 124,-165 130,-163 132,-155 137,-155 140,-147 144,-145 150,-137 153,-132 157,-130 160,-122 165,-117 171,-109 172,-104 178,-97 183,-91 186,-84 190,-76 193,-69 219,-96 15,-5 15,2 13,8 7,12 3,13 v 13 l -8,13 -12,10 -214,124 -193,69 -188,73 -183,84 -180,89 -175,97 -173,101 -168,107 -165,114 -160,120 -157,127 -153,129 -147,138 -145,139 -142,148 -135,150 -132,155 -130,157 -124,163 -122,167 -117,171 -107,172 -109,178 -104,175 -99,183 -97,186 -94,185 -88,191 -84,193 -82,193 -76,196 -71,195 -69,198 -15,18 h -18 l -17,-13 z"
   id="path90"
   inkscape:connector-curvature="0"
   style="fill:#ffffff;stroke:none" />
         <path
   d="m 8954,17927 68,-201 74,-198 76,-198 79,-196 86,-196 87,-193 94,-190 96,-188 99,-186 104,-178 110,-177 106,-178 117,-173 120,-170 124,-165 130,-163 132,-155 137,-155 140,-147 144,-145 150,-137 153,-132 157,-130 160,-122 165,-117 171,-109 172,-104 178,-97 183,-91 186,-84 190,-76 193,-69 219,-96 15,-5 15,2 13,8 7,12 3,13 v 13 l -8,13 -12,10 -214,124 -193,69 -188,73 -183,84 -180,89 -175,97 -173,101 -168,107 -165,114 -160,120 -157,127 -153,129 -147,138 -145,139 -142,148 -135,150 -132,155 -130,157 -124,163 -122,167 -117,171 -107,172 -109,178 -104,175 -99,183 -97,186 -94,185 -88,191 -84,193 -82,193 -76,196 -71,195 -69,198 -15,18 h -18 l -17,-13 z"
   id="path92"
   inkscape:connector-curvature="0"
   style="fill:none;stroke:#ffffff" />
         <path
   d="m 13758,12866 -102,79 -99,76 -99,79 -97,78 -96,82 -94,81 -94,81 -92,82 -91,83 -89,84 -86,87 -89,86 -84,86 -84,89 -84,92 -81,91 -81,92 -79,94 -79,96 -76,97 -76,99 -74,101 -74,102 -71,104 -71,107 -69,109 -68,109 -66,112 -66,117 -64,114 -63,120 -61,122 -36,106 -35,99 -36,97 -33,94 -33,91 -33,89 -31,87 -30,86 -28,89 -30,86 -28,92 -26,91 -25,97 -26,101 -25,107 -23,112 -23,81 -23,76 -25,74 -23,71 -20,77 -21,78 -10,89 -12,99 -11,21 -20,5 -18,-8 -7,-20 10,-196 8,-162 15,-153 30,-165 23,-114 28,-107 25,-102 28,-96 31,-94 30,-92 31,-89 33,-89 33,-86 33,-89 36,-89 35,-91 36,-97 38,-91 35,-104 38,-110 64,-122 63,-119 66,-117 67,-117 68,-111 71,-112 71,-107 72,-107 76,-104 73,-101 79,-102 79,-97 79,-99 81,-94 84,-94 84,-91 83,-92 87,-88 89,-89 89,-87 89,-86 91,-84 91,-84 94,-84 97,-81 94,-81 99,-79 97,-81 99,-79 101,-79 102,-79 102,-78 22,-5 18,10 5,18 z"
   id="path94"
   inkscape:connector-curvature="0"
   style="fill:#ffffff;stroke:none" />
         <path
   d="m 13758,12866 -102,79 -99,76 -99,79 -97,78 -96,82 -94,81 -94,81 -92,82 -91,83 -89,84 -86,87 -89,86 -84,86 -84,89 -84,92 -81,91 -81,92 -79,94 -79,96 -76,97 -76,99 -74,101 -74,102 -71,104 -71,107 -69,109 -68,109 -66,112 -66,117 -64,114 -63,120 -61,122 -36,106 -35,99 -36,97 -33,94 -33,91 -33,89 -31,87 -30,86 -28,89 -30,86 -28,92 -26,91 -25,97 -26,101 -25,107 -23,112 -23,81 -23,76 -25,74 -23,71 -20,77 -21,78 -10,89 -12,99 -11,21 -20,5 -18,-8 -7,-20 10,-196 8,-162 15,-153 30,-165 23,-114 28,-107 25,-102 28,-96 31,-94 30,-92 31,-89 33,-89 33,-86 33,-89 36,-89 35,-91 36,-97 38,-91 35,-104 38,-110 64,-122 63,-119 66,-117 67,-117 68,-111 71,-112 71,-107 72,-107 76,-104 73,-101 79,-102 79,-97 79,-99 81,-94 84,-94 84,-91 83,-92 87,-88 89,-89 89,-87 89,-86 91,-84 91,-84 94,-84 97,-81 94,-81 99,-79 97,-81 99,-79 101,-79 102,-79 102,-78 22,-5 18,10 5,18 z"
   id="path96"
   inkscape:connector-curvature="0"
   style="fill:none;stroke:#ffffff" />
         <path
   d="m 8900,13570 97,536 63,564 31,584 5,589 -20,587 -44,577 -63,556 -76,526 -10,107 -13,96 -15,92 -16,86 -15,89 -13,92 -12,96 -5,107 -13,20 -20,5 -18,-7 -8,-21 8,-206 -8,-185 v -183 l 8,-206 40,-256 41,-264 36,-275 38,-279 28,-285 28,-289 23,-293 15,-289 10,-295 5,-292 -5,-292 -13,-287 -20,-285 -31,-277 -38,-269 -53,-262 3,-23 17,-10 21,3 z"
   id="path98"
   inkscape:connector-curvature="0"
   style="fill:#ffffff;stroke:none" />
         <path
   d="m 8900,13570 97,536 63,564 31,584 5,589 -20,587 -44,577 -63,556 -76,526 -10,107 -13,96 -15,92 -16,86 -15,89 -13,92 -12,96 -5,107 -13,20 -20,5 -18,-7 -8,-21 8,-206 -8,-185 v -183 l 8,-206 40,-256 41,-264 36,-275 38,-279 28,-285 28,-289 23,-293 15,-289 10,-295 5,-292 -5,-292 -13,-287 -20,-285 -31,-277 -38,-269 -53,-262 3,-23 17,-10 21,3 z"
   id="path100"
   inkscape:connector-curvature="0"
   style="fill:none;stroke:#ffffff" />
         <path
   d="m 8880,13565 -10,111 -31,173 -45,229 -64,274 -76,313 -84,345 -91,371 -97,386 -99,394 -99,399 -97,394 -91,383 -84,363 -76,336 -61,302 -48,259 -61,109 -43,51 h -28 l -13,-30 -5,-51 2,-53 8,-46 8,-23 48,-259 68,-302 82,-336 94,-358 104,-381 109,-391 112,-394 114,-389 109,-383 107,-366 97,-341 86,-310 71,-271 54,-224 35,-173 15,-111 -2,-23 -8,-8 -7,8 z"
   id="path102"
   inkscape:connector-curvature="0"
   style="fill:#ffffff;stroke:none" />
         <path
   d="m 8880,13565 -10,111 -31,173 -45,229 -64,274 -76,313 -84,345 -91,371 -97,386 -99,394 -99,399 -97,394 -91,383 -84,363 -76,336 -61,302 -48,259 -61,109 -43,51 h -28 l -13,-30 -5,-51 2,-53 8,-46 8,-23 48,-259 68,-302 82,-336 94,-358 104,-381 109,-391 112,-394 114,-389 109,-383 107,-366 97,-341 86,-310 71,-271 54,-224 35,-173 15,-111 -2,-23 -8,-8 -7,8 z"
   id="path104"
   inkscape:connector-curvature="0"
   style="fill:none;stroke:#ffffff" />
         <path
   d="m 7800,17800 44,-219 -6,-236 -17,-224 -31,-211 -38,-198 -48,-188 -56,-180 -64,-168 -71,-157 -78,-158 -84,-147 -89,-145 -92,-142 -96,-137 -97,-135 -99,-135 -101,-134 -13,-28 v -28 l 10,-26 18,-20 23,-10 28,-5 25,10 23,20 101,137 102,140 97,140 94,142 89,147 86,150 79,158 73,162 66,163 61,178 54,185 43,196 35,203 26,219 18,228 5,242 -66,221 -16,20 -17,3 -18,-11 z"
   id="path106"
   inkscape:connector-curvature="0"
   style="fill:#ffffff;stroke:none" />
         <path
   d="m 7800,17800 44,-219 -6,-236 -17,-224 -31,-211 -38,-198 -48,-188 -56,-180 -64,-168 -71,-157 -78,-158 -84,-147 -89,-145 -92,-142 -96,-137 -97,-135 -99,-135 -101,-134 -13,-28 v -28 l 10,-26 18,-20 23,-10 28,-5 25,10 23,20 101,137 102,140 97,140 94,142 89,147 86,150 79,158 73,162 66,163 61,178 54,185 43,196 35,203 26,219 18,228 5,242 -66,221 -16,20 -17,3 -18,-11 z"
   id="path108"
   inkscape:connector-curvature="0"
   style="fill:none;stroke:#ffffff" />
         <path
   d="m 6891,14814 135,16 121,20 112,25 104,31 97,38 86,41 82,48 73,51 66,58 64,61 58,66 54,71 53,74 48,81 48,84 46,86 28,84 18,66 8,54 7,48 8,46 15,51 28,55 41,74 2,20 -13,16 -17,5 -21,-13 -45,-79 -41,-63 -30,-64 -28,-61 -28,-61 -26,-66 -30,-76 -33,-89 -54,-74 -50,-73 -49,-66 -48,-66 -46,-61 -48,-59 -48,-53 -54,-48 -58,-46 -64,-43 -71,-36 -81,-33 -86,-28 -99,-23 -112,-20 -125,-13 -20,-10 -5,-20 8,-18 z"
   id="path110"
   inkscape:connector-curvature="0"
   style="fill:#ffffff;stroke:none" />
         <path
   d="m 6891,14814 135,16 121,20 112,25 104,31 97,38 86,41 82,48 73,51 66,58 64,61 58,66 54,71 53,74 48,81 48,84 46,86 28,84 18,66 8,54 7,48 8,46 15,51 28,55 41,74 2,20 -13,16 -17,5 -21,-13 -45,-79 -41,-63 -30,-64 -28,-61 -28,-61 -26,-66 -30,-76 -33,-89 -54,-74 -50,-73 -49,-66 -48,-66 -46,-61 -48,-59 -48,-53 -54,-48 -58,-46 -64,-43 -71,-36 -81,-33 -86,-28 -99,-23 -112,-20 -125,-13 -20,-10 -5,-20 8,-18 z"
   id="path112"
   inkscape:connector-curvature="0"
   style="fill:none;stroke:#ffffff" />
         <path
   d="m 9121,19944 66,-155 69,-148 76,-144 79,-138 84,-134 91,-130 92,-124 94,-122 101,-117 102,-114 102,-112 109,-109 112,-107 114,-102 114,-104 120,-99 40,-33 41,-31 38,-30 38,-28 36,-28 38,-28 33,-25 35,-26 36,-25 38,-25 36,-26 38,-28 38,-25 40,-28 44,-28 45,-31 54,-28 56,-28 53,-27 53,-28 56,-31 54,-30 55,-31 54,-30 58,-31 54,-30 58,-33 56,-31 58,-33 59,-30 58,-33 61,-31 61,-30 61,-33 64,-31 66,-30 63,-33 66,-28 69,-31 68,-30 71,-28 72,-31 73,-28 74,-28 79,-25 76,-25 81,-26 81,-25 21,-3 15,5 10,8 8,13 v 10 l -5,13 -13,10 -18,5 -68,15 -66,15 -69,21 -66,20 -69,23 -66,25 -66,26 -66,27 -66,31 -66,30 -63,31 -66,33 -64,33 -63,36 -66,35 -61,36 -64,35 -63,36 -61,35 -61,39 -61,35 -61,36 -59,35 -58,36 -59,35 -58,33 -56,33 -58,33 -56,31 -54,30 -55,28 -54,28 -43,31 -43,28 -38,28 -38,25 -39,25 -35,26 -36,25 -33,23 -35,26 -33,25 -36,28 -35,25 -36,28 -38,31 -41,30 -40,33 -117,99 -117,99 -114,99 -112,102 -109,107 -110,107 -99,109 -101,112 -97,116 -94,122 -91,125 -84,129 -81,135 -77,140 -71,145 -63,152 -18,15 h -20 l -16,-12 z"
   id="path114"
   inkscape:connector-curvature="0"
   style="fill:#ffffff;stroke:none" />
         <path
   d="m 9121,19944 66,-155 69,-148 76,-144 79,-138 84,-134 91,-130 92,-124 94,-122 101,-117 102,-114 102,-112 109,-109 112,-107 114,-102 114,-104 120,-99 40,-33 41,-31 38,-30 38,-28 36,-28 38,-28 33,-25 35,-26 36,-25 38,-25 36,-26 38,-28 38,-25 40,-28 44,-28 45,-31 54,-28 56,-28 53,-27 53,-28 56,-31 54,-30 55,-31 54,-30 58,-31 54,-30 58,-33 56,-31 58,-33 59,-30 58,-33 61,-31 61,-30 61,-33 64,-31 66,-30 63,-33 66,-28 69,-31 68,-30 71,-28 72,-31 73,-28 74,-28 79,-25 76,-25 81,-26 81,-25 21,-3 15,5 10,8 8,13 v 10 l -5,13 -13,10 -18,5 -68,15 -66,15 -69,21 -66,20 -69,23 -66,25 -66,26 -66,27 -66,31 -66,30 -63,31 -66,33 -64,33 -63,36 -66,35 -61,36 -64,35 -63,36 -61,35 -61,39 -61,35 -61,36 -59,35 -58,36 -59,35 -58,33 -56,33 -58,33 -56,31 -54,30 -55,28 -54,28 -43,31 -43,28 -38,28 -38,25 -39,25 -35,26 -36,25 -33,23 -35,26 -33,25 -36,28 -35,25 -36,28 -38,31 -41,30 -40,33 -117,99 -117,99 -114,99 -112,102 -109,107 -110,107 -99,109 -101,112 -97,116 -94,122 -91,125 -84,129 -81,135 -77,140 -71,145 -63,152 -18,15 h -20 l -16,-12 z"
   id="path116"
   inkscape:connector-curvature="0"
   style="fill:none;stroke:#ffffff" />
         <path
   d="m 10978,12378 -53,104 -51,104 -53,102 -51,102 -51,99 -51,99 -50,101 -51,100 -51,101 -48,102 -49,101 -48,107 -48,104 -48,109 -49,112 -45,115 -64,132 -61,132 -53,137 -59,140 -55,142 -56,142 -54,145 -53,147 -51,148 -51,150 -50,147 -51,150 -49,150 -45,147 -51,145 -51,147 -30,89 -41,84 -48,79 -49,79 -48,78 -48,82 -36,88 -23,97 -5,-5 v -48 -61 l 5,-46 18,-91 21,-77 22,-61 26,-58 25,-56 26,-58 25,-72 23,-83 51,-148 48,-145 51,-149 53,-150 51,-150 53,-150 54,-147 56,-148 53,-147 58,-145 56,-145 59,-142 61,-140 61,-137 58,-135 64,-132 48,-114 48,-112 51,-106 51,-105 53,-104 53,-99 54,-102 56,-96 55,-99 54,-97 56,-96 56,-99 56,-99 55,-102 54,-102 53,-104 15,-15 21,3 15,12 z"
   id="path118"
   inkscape:connector-curvature="0"
   style="fill:#ffffff;stroke:none" />
         <path
   d="m 10978,12378 -53,104 -51,104 -53,102 -51,102 -51,99 -51,99 -50,101 -51,100 -51,101 -48,102 -49,101 -48,107 -48,104 -48,109 -49,112 -45,115 -64,132 -61,132 -53,137 -59,140 -55,142 -56,142 -54,145 -53,147 -51,148 -51,150 -50,147 -51,150 -49,150 -45,147 -51,145 -51,147 -30,89 -41,84 -48,79 -49,79 -48,78 -48,82 -36,88 -23,97 -5,-5 v -48 -61 l 5,-46 18,-91 21,-77 22,-61 26,-58 25,-56 26,-58 25,-72 23,-83 51,-148 48,-145 51,-149 53,-150 51,-150 53,-150 54,-147 56,-148 53,-147 58,-145 56,-145 59,-142 61,-140 61,-137 58,-135 64,-132 48,-114 48,-112 51,-106 51,-105 53,-104 53,-99 54,-102 56,-96 55,-99 54,-97 56,-96 56,-99 56,-99 55,-102 54,-102 53,-104 15,-15 21,3 15,12 z"
   id="path120"
   inkscape:connector-curvature="0"
   style="fill:none;stroke:#ffffff" />
         <path
   d="m 11253,12658 -87,119 -83,127 -82,130 -76,132 -76,137 -74,140 -71,142 -71,142 -69,145 -66,145 -66,145 -68,147 -66,142 -69,145 -64,140 -71,139 -5,18 -18,54 -27,83 -39,110 -40,134 -51,150 -56,165 -58,176 -64,180 -63,180 -64,181 -61,175 -61,168 -53,150 -51,134 -43,112 -18,15 h -20 l -16,-12 v -23 l 51,-193 56,-196 56,-193 56,-193 58,-183 56,-178 56,-173 56,-160 48,-150 49,-137 40,-119 36,-102 30,-84 23,-61 13,-38 5,-12 63,-140 69,-142 71,-143 71,-145 74,-147 74,-145 73,-144 76,-148 79,-142 79,-142 79,-140 84,-137 81,-135 86,-129 84,-128 89,-121 20,-11 18,5 13,18 z"
   id="path122"
   inkscape:connector-curvature="0"
   style="fill:#ffffff;stroke:none" />
         <path
   d="m 11253,12658 -87,119 -83,127 -82,130 -76,132 -76,137 -74,140 -71,142 -71,142 -69,145 -66,145 -66,145 -68,147 -66,142 -69,145 -64,140 -71,139 -5,18 -18,54 -27,83 -39,110 -40,134 -51,150 -56,165 -58,176 -64,180 -63,180 -64,181 -61,175 -61,168 -53,150 -51,134 -43,112 -18,15 h -20 l -16,-12 v -23 l 51,-193 56,-196 56,-193 56,-193 58,-183 56,-178 56,-173 56,-160 48,-150 49,-137 40,-119 36,-102 30,-84 23,-61 13,-38 5,-12 63,-140 69,-142 71,-143 71,-145 74,-147 74,-145 73,-144 76,-148 79,-142 79,-142 79,-140 84,-137 81,-135 86,-129 84,-128 89,-121 20,-11 18,5 13,18 z"
   id="path124"
   inkscape:connector-curvature="0"
   style="fill:none;stroke:#ffffff" />
         <path
   d="m 11113,17792 -114,96 -110,107 -101,120 -97,127 -89,137 -83,145 -77,149 -73,158 -66,160 -64,163 -58,167 -54,168 -50,168 -46,162 -38,168 -41,160 -28,71 -25,69 -26,61 -20,66 -23,63 -20,66 -21,69 -20,73 -15,31 -23,20 -25,8 -28,-3 -28,-12 -21,-21 -10,-28 3,-33 18,-76 17,-74 16,-66 12,-66 16,-68 20,-64 20,-68 28,-74 43,-165 51,-168 56,-170 61,-168 64,-167 73,-168 81,-163 84,-162 92,-155 94,-150 99,-145 104,-135 109,-129 115,-119 116,-110 120,-96 h 15 v 20 l -13,28 z"
   id="path126"
   inkscape:connector-curvature="0"
   style="fill:#ffffff;stroke:none" />
         <path
   d="m 11113,17792 -114,96 -110,107 -101,120 -97,127 -89,137 -83,145 -77,149 -73,158 -66,160 -64,163 -58,167 -54,168 -50,168 -46,162 -38,168 -41,160 -28,71 -25,69 -26,61 -20,66 -23,63 -20,66 -21,69 -20,73 -15,31 -23,20 -25,8 -28,-3 -28,-12 -21,-21 -10,-28 3,-33 18,-76 17,-74 16,-66 12,-66 16,-68 20,-64 20,-68 28,-74 43,-165 51,-168 56,-170 61,-168 64,-167 73,-168 81,-163 84,-162 92,-155 94,-150 99,-145 104,-135 109,-129 115,-119 116,-110 120,-96 h 15 v 20 l -13,28 z"
   id="path128"
   inkscape:connector-curvature="0"
   style="fill:none;stroke:#ffffff" />
         <path
   d="m 10994,16410 48,-36 46,-33 48,-33 51,-33 48,-33 51,-30 51,-33 53,-31 51,-33 53,-30 53,-26 54,-30 53,-28 53,-31 56,-30 56,-28 54,-28 55,-31 56,-27 56,-28 54,-28 55,-28 56,-28 56,-28 56,-26 56,-28 56,-27 56,-28 53,-26 56,-28 56,-25 53,-28 76,-31 69,-25 61,-23 56,-20 51,-21 45,-15 41,-15 41,-15 38,-13 38,-10 38,-13 38,-13 41,-12 43,-13 48,-15 51,-15 20,2 13,15 v 21 l -18,15 -50,15 -49,15 -45,16 -41,12 -41,16 -40,12 -38,16 -41,15 -41,15 -40,15 -46,21 -48,17 -51,21 -59,23 -61,25 -68,28 -54,28 -55,25 -54,28 -56,26 -56,28 -55,25 -56,28 -54,25 -56,28 -55,28 -56,26 -56,28 -56,25 -56,28 -56,28 -53,28 -56,28 -54,28 -55,28 -54,23 -53,30 -53,30 -54,28 -51,31 -50,30 -51,31 -51,33 -51,30 -46,33 -50,33 -49,36 -45,33 -23,5 -15,-10 -8,-18 z"
   id="path130"
   inkscape:connector-curvature="0"
   style="fill:#ffffff;stroke:none" />
         <path
   d="m 10994,16410 48,-36 46,-33 48,-33 51,-33 48,-33 51,-30 51,-33 53,-31 51,-33 53,-30 53,-26 54,-30 53,-28 53,-31 56,-30 56,-28 54,-28 55,-31 56,-27 56,-28 54,-28 55,-28 56,-28 56,-28 56,-26 56,-28 56,-27 56,-28 53,-26 56,-28 56,-25 53,-28 76,-31 69,-25 61,-23 56,-20 51,-21 45,-15 41,-15 41,-15 38,-13 38,-10 38,-13 38,-13 41,-12 43,-13 48,-15 51,-15 20,2 13,15 v 21 l -18,15 -50,15 -49,15 -45,16 -41,12 -41,16 -40,12 -38,16 -41,15 -41,15 -40,15 -46,21 -48,17 -51,21 -59,23 -61,25 -68,28 -54,28 -55,25 -54,28 -56,26 -56,28 -55,25 -56,28 -54,25 -56,28 -55,28 -56,26 -56,28 -56,25 -56,28 -56,28 -53,28 -56,28 -54,28 -55,28 -54,23 -53,30 -53,30 -54,28 -51,31 -50,30 -51,31 -51,33 -51,30 -46,33 -50,33 -49,36 -45,33 -23,5 -15,-10 -8,-18 z"
   id="path132"
   inkscape:connector-curvature="0"
   style="fill:none;stroke:#ffffff" />
         <path
   d="m 13478,15201 59,17 55,18 56,20 56,18 54,18 55,20 54,18 53,20 51,21 53,18 54,20 50,18 54,20 53,18 53,18 54,17 53,18 54,18 55,18 56,17 56,16 59,18 58,15 61,15 58,15 64,13 63,13 67,12 66,13 68,10 71,10 71,11 107,22 97,21 86,20 76,20 71,18 64,15 58,18 56,15 51,13 53,13 51,10 54,10 58,8 61,5 66,5 74,2 10,3 2,10 -2,13 -10,13 -11,15 -15,13 -15,10 -15,2 h -82 -73 l -71,-2 h -66 l -64,-3 -61,-2 -58,-3 -56,-5 -54,-8 -55,-5 -54,-10 -56,-10 -56,-10 -55,-13 -59,-15 -63,-18 -74,-10 -71,-10 -69,-13 -68,-13 -66,-15 -66,-15 -64,-18 -63,-15 -61,-18 -59,-20 -61,-18 -58,-20 -56,-21 -56,-20 -56,-23 -56,-20 -56,-23 -53,-20 -53,-23 -56,-23 -54,-23 -53,-23 -53,-20 -56,-23 -54,-23 -55,-20 -54,-21 -56,-20 -58,-20 -56,-21 -58,-20 -59,-18 -28,-12 -23,-21 -12,-20 -3,-23 3,-18 12,-15 23,-5 z"
   id="path134"
   inkscape:connector-curvature="0"
   style="fill:#ffffff;stroke:none" />
         <path
   d="m 13478,15201 59,17 55,18 56,20 56,18 54,18 55,20 54,18 53,20 51,21 53,18 54,20 50,18 54,20 53,18 53,18 54,17 53,18 54,18 55,18 56,17 56,16 59,18 58,15 61,15 58,15 64,13 63,13 67,12 66,13 68,10 71,10 71,11 107,22 97,21 86,20 76,20 71,18 64,15 58,18 56,15 51,13 53,13 51,10 54,10 58,8 61,5 66,5 74,2 10,3 2,10 -2,13 -10,13 -11,15 -15,13 -15,10 -15,2 h -82 -73 l -71,-2 h -66 l -64,-3 -61,-2 -58,-3 -56,-5 -54,-8 -55,-5 -54,-10 -56,-10 -56,-10 -55,-13 -59,-15 -63,-18 -74,-10 -71,-10 -69,-13 -68,-13 -66,-15 -66,-15 -64,-18 -63,-15 -61,-18 -59,-20 -61,-18 -58,-20 -56,-21 -56,-20 -56,-23 -56,-20 -56,-23 -53,-20 -53,-23 -56,-23 -54,-23 -53,-23 -53,-20 -56,-23 -54,-23 -55,-20 -54,-21 -56,-20 -58,-20 -56,-21 -58,-20 -59,-18 -28,-12 -23,-21 -12,-20 -3,-23 3,-18 12,-15 23,-5 z"
   id="path136"
   inkscape:connector-curvature="0"
   style="fill:none;stroke:#ffffff" />
         <path
   d="m 16151,16067 h -69 -64 -60 l -56,2 -56,3 -54,3 h -50 l -49,2 h -48 -48 l -46,-2 -48,-3 -48,-3 -49,-2 -51,-8 -50,-10 h -87 -81 l -79,3 -79,2 -73,3 -71,5 -71,5 h -69 l -69,8 -66,7 -66,8 -66,10 -66,13 -66,12 -66,16 -66,15 -23,-3 -10,-18 3,-17 17,-16 71,-15 74,-15 76,-10 79,-15 81,-11 84,-12 84,-10 86,-11 89,-10 89,-7 92,-5 89,-6 91,-5 89,-2 91,-3 h 89 l 51,10 51,8 46,3 48,2 46,-2 h 45 l 46,-5 46,-3 46,-3 45,-2 51,-3 51,3 53,2 56,6 59,7 61,13 12,5 -5,10 -18,13 -25,12 -30,13 -34,10 -30,3 z"
   id="path138"
   inkscape:connector-curvature="0"
   style="fill:#ffffff;stroke:none" />
         <path
   d="m 16151,16067 h -69 -64 -60 l -56,2 -56,3 -54,3 h -50 l -49,2 h -48 -48 l -46,-2 -48,-3 -48,-3 -49,-2 -51,-8 -50,-10 h -87 -81 l -79,3 -79,2 -73,3 -71,5 -71,5 h -69 l -69,8 -66,7 -66,8 -66,10 -66,13 -66,12 -66,16 -66,15 -23,-3 -10,-18 3,-17 17,-16 71,-15 74,-15 76,-10 79,-15 81,-11 84,-12 84,-10 86,-11 89,-10 89,-7 92,-5 89,-6 91,-5 89,-2 91,-3 h 89 l 51,10 51,8 46,3 48,2 46,-2 h 45 l 46,-5 46,-3 46,-3 45,-2 51,-3 51,3 53,2 56,6 59,7 61,13 12,5 -5,10 -18,13 -25,12 -30,13 -34,10 -30,3 z"
   id="path140"
   inkscape:connector-curvature="0"
   style="fill:none;stroke:#ffffff" />
         <path
   d="m 6860,16090 -63,-115 -69,-119 -73,-117 -79,-117 -84,-114 -91,-114 -94,-110 -97,-104 -104,-101 -107,-97 -109,-91 -114,-84 -120,-79 -119,-71 -125,-64 -127,-55 -15,-18 v -21 l 13,-12 h 23 l 66,28 66,28 66,30 66,33 66,33 63,36 66,38 64,38 64,41 60,40 64,43 61,44 58,45 59,46 58,48 59,49 56,50 53,51 53,51 54,53 50,54 49,56 48,55 46,56 45,59 44,58 40,59 41,58 38,61 36,61 33,61 33,61 10,41 -5,30 -21,28 -28,20 -33,11 h -35 l -33,-18 z"
   id="path142"
   inkscape:connector-curvature="0"
   style="fill:#ffffff;stroke:none" />
         <path
   d="m 6860,16090 -63,-115 -69,-119 -73,-117 -79,-117 -84,-114 -91,-114 -94,-110 -97,-104 -104,-101 -107,-97 -109,-91 -114,-84 -120,-79 -119,-71 -125,-64 -127,-55 -15,-18 v -21 l 13,-12 h 23 l 66,28 66,28 66,30 66,33 66,33 63,36 66,38 64,38 64,41 60,40 64,43 61,44 58,45 59,46 58,48 59,49 56,50 53,51 53,51 54,53 50,54 49,56 48,55 46,56 45,59 44,58 40,59 41,58 38,61 36,61 33,61 33,61 10,41 -5,30 -21,28 -28,20 -33,11 h -35 l -33,-18 z"
   id="path144"
   inkscape:connector-curvature="0"
   style="fill:none;stroke:#ffffff" />
         <path
   d="m 9360,14347 v -226 l -2,-206 -5,-188 -8,-173 -10,-157 -16,-148 -20,-134 -25,-127 -33,-122 -38,-114 -46,-115 -53,-112 -64,-111 -71,-115 -81,-119 -92,-127 -2,-23 7,-18 18,-5 20,13 94,129 87,120 76,117 69,114 60,114 54,115 46,117 38,119 33,130 25,137 23,147 18,160 10,175 10,193 3,209 2,231 -5,28 -15,20 -20,10 -23,5 -23,-5 -21,-10 -15,-20 z"
   id="path146"
   inkscape:connector-curvature="0"
   style="fill:#ffffff;stroke:none" />
         <path
   d="m 9360,14347 v -226 l -2,-206 -5,-188 -8,-173 -10,-157 -16,-148 -20,-134 -25,-127 -33,-122 -38,-114 -46,-115 -53,-112 -64,-111 -71,-115 -81,-119 -92,-127 -2,-23 7,-18 18,-5 20,13 94,129 87,120 76,117 69,114 60,114 54,115 46,117 38,119 33,130 25,137 23,147 18,160 10,175 10,193 3,209 2,231 -5,28 -15,20 -20,10 -23,5 -23,-5 -21,-10 -15,-20 z"
   id="path148"
   inkscape:connector-curvature="0"
   style="fill:none;stroke:#ffffff" />
         <path
   d="m 13074,13877 488,-506 66,-48 69,-46 68,-48 71,-46 74,-45 74,-46 76,-46 76,-43 74,-43 78,-43 77,-43 76,-41 74,-41 76,-40 73,-41 74,-38 23,-3 15,13 3,20 -13,18 -74,38 -71,41 -73,43 -74,41 -74,45 -73,44 -74,45 -71,46 -74,48 -71,49 -71,45 -69,49 -71,48 -66,48 -66,48 -66,49 -498,485 -15,10 -13,3 -15,-5 -10,-8 -10,-13 -3,-13 v -15 z"
   id="path150"
   inkscape:connector-curvature="0"
   style="fill:#ffffff;stroke:none" />
         <path
   d="m 13074,13877 488,-506 66,-48 69,-46 68,-48 71,-46 74,-45 74,-46 76,-46 76,-43 74,-43 78,-43 77,-43 76,-41 74,-41 76,-40 73,-41 74,-38 23,-3 15,13 3,20 -13,18 -74,38 -71,41 -73,43 -74,41 -74,45 -73,44 -74,45 -71,46 -74,48 -71,49 -71,45 -69,49 -71,48 -66,48 -66,48 -66,49 -498,485 -15,10 -13,3 -15,-5 -10,-8 -10,-13 -3,-13 v -15 z"
   id="path152"
   inkscape:connector-curvature="0"
   style="fill:none;stroke:#ffffff" />
         <path
   d="m 10762,17281 3,-2 5,-5 10,-8 13,-13 18,-15 20,-20 25,-21 28,-22 31,-28 35,-28 41,-33 43,-33 46,-36 48,-36 54,-38 58,-40 58,-41 64,-43 69,-43 71,-46 73,-46 77,-45 78,-46 84,-46 87,-46 91,-45 91,-49 97,-45 99,-44 104,-45 104,-44 110,-43 h 22 l 13,16 v 20 l -15,15 -109,41 -104,43 -105,46 -99,48 -99,48 -96,51 -94,51 -94,53 -94,56 -92,56 -89,56 -89,56 -88,58 -89,59 -89,58 -89,58 -282,262 -13,10 -15,3 -13,-5 -13,-8 -7,-13 -5,-12 2,-16 z"
   id="path154"
   inkscape:connector-curvature="0"
   style="fill:#ffffff;stroke:none" />
         <path
   d="m 10762,17281 3,-2 5,-5 10,-8 13,-13 18,-15 20,-20 25,-21 28,-22 31,-28 35,-28 41,-33 43,-33 46,-36 48,-36 54,-38 58,-40 58,-41 64,-43 69,-43 71,-46 73,-46 77,-45 78,-46 84,-46 87,-46 91,-45 91,-49 97,-45 99,-44 104,-45 104,-44 110,-43 h 22 l 13,16 v 20 l -15,15 -109,41 -104,43 -105,46 -99,48 -99,48 -96,51 -94,51 -94,53 -94,56 -92,56 -89,56 -89,56 -88,58 -89,59 -89,58 -89,58 -282,262 -13,10 -15,3 -13,-5 -13,-8 -7,-13 -5,-12 2,-16 z"
   id="path156"
   inkscape:connector-curvature="0"
   style="fill:none;stroke:#ffffff" />
         <path
   d="m 9561,18234 66,-142 53,-145 46,-145 43,-145 36,-145 38,-147 40,-145 46,-145 41,-96 40,-107 51,-109 54,-114 58,-120 64,-119 66,-122 66,-119 71,-115 71,-114 71,-112 71,-107 74,-101 74,-92 66,-81 68,-74 23,-7 15,7 10,18 -10,20 -66,72 -68,83 -69,92 -69,99 -68,107 -69,111 -68,112 -64,117 -66,119 -61,122 -61,120 -56,117 -51,114 -48,109 -45,102 -39,96 -40,148 -46,145 -41,144 -45,145 -46,142 -51,145 -58,143 -69,144 -15,16 -20,-3 -13,-15 z"
   id="path158"
   inkscape:connector-curvature="0"
   style="fill:#ffffff;stroke:none" />
         <path
   d="m 9561,18234 66,-142 53,-145 46,-145 43,-145 36,-145 38,-147 40,-145 46,-145 41,-96 40,-107 51,-109 54,-114 58,-120 64,-119 66,-122 66,-119 71,-115 71,-114 71,-112 71,-107 74,-101 74,-92 66,-81 68,-74 23,-7 15,7 10,18 -10,20 -66,72 -68,83 -69,92 -69,99 -68,107 -69,111 -68,112 -64,117 -66,119 -61,122 -61,120 -56,117 -51,114 -48,109 -45,102 -39,96 -40,148 -46,145 -41,144 -45,145 -46,142 -51,145 -58,143 -69,144 -15,16 -20,-3 -13,-15 z"
   id="path160"
   inkscape:connector-curvature="0"
   style="fill:none;stroke:#ffffff" />
         <path
   d="m 9121,19944 -35,-46 -46,-48 -48,-51 -56,-53 -61,-56 -64,-59 -68,-58 -76,-61 -79,-64 -81,-58 -82,-64 -89,-66 -86,-63 -91,-66 -92,-64 -91,-66 -92,-63 -91,-64 -94,-63 -89,-64 -92,-61 -86,-61 -86,-56 -84,-58 -79,-54 -79,-53 -73,-51 -69,-45 -63,-46 -61,-43 -54,-38 -48,-36 -59,-36 -55,-35 -54,-31 -53,-33 -53,-30 -51,-33 -51,-31 -51,-28 -48,-30 -48,-28 -51,-28 -48,-28 -49,-28 -48,-25 -48,-26 -51,-25 -51,-25 -51,-23 -51,-23 -50,-23 -56,-23 -54,-20 -55,-21 -59,-20 -58,-20 -64,-18 -61,-20 -66,-16 -68,-17 -69,-18 -71,-15 -76,-16 -18,-5 -8,-7 -2,-8 5,-5 10,-8 15,-2 18,-3 20,3 77,15 73,15 71,16 69,15 68,15 64,15 64,18 60,15 59,18 58,15 56,18 56,18 53,18 54,17 53,21 51,20 51,20 51,21 50,23 49,20 50,25 51,23 49,26 50,25 51,28 53,28 54,28 53,30 54,31 55,33 59,33 58,35 92,69 89,69 86,68 86,69 84,68 82,69 81,69 79,73 76,74 76,74 74,76 73,79 74,81 71,84 69,86 68,89 18,15 38,31 56,43 71,51 79,58 91,66 94,66 100,69 96,68 91,67 87,58 76,51 64,43 45,30 28,16 z"
   id="path162"
   inkscape:connector-curvature="0"
   style="fill:#ffffff;stroke:none" />
         <path
   d="m 9121,19944 -35,-46 -46,-48 -48,-51 -56,-53 -61,-56 -64,-59 -68,-58 -76,-61 -79,-64 -81,-58 -82,-64 -89,-66 -86,-63 -91,-66 -92,-64 -91,-66 -92,-63 -91,-64 -94,-63 -89,-64 -92,-61 -86,-61 -86,-56 -84,-58 -79,-54 -79,-53 -73,-51 -69,-45 -63,-46 -61,-43 -54,-38 -48,-36 -59,-36 -55,-35 -54,-31 -53,-33 -53,-30 -51,-33 -51,-31 -51,-28 -48,-30 -48,-28 -51,-28 -48,-28 -49,-28 -48,-25 -48,-26 -51,-25 -51,-25 -51,-23 -51,-23 -50,-23 -56,-23 -54,-20 -55,-21 -59,-20 -58,-20 -64,-18 -61,-20 -66,-16 -68,-17 -69,-18 -71,-15 -76,-16 -18,-5 -8,-7 -2,-8 5,-5 10,-8 15,-2 18,-3 20,3 77,15 73,15 71,16 69,15 68,15 64,15 64,18 60,15 59,18 58,15 56,18 56,18 53,18 54,17 53,21 51,20 51,20 51,21 50,23 49,20 50,25 51,23 49,26 50,25 51,28 53,28 54,28 53,30 54,31 55,33 59,33 58,35 92,69 89,69 86,68 86,69 84,68 82,69 81,69 79,73 76,74 76,74 74,76 73,79 74,81 71,84 69,86 68,89 18,15 38,31 56,43 71,51 79,58 91,66 94,66 100,69 96,68 91,67 87,58 76,51 64,43 45,30 28,16 z"
   id="path164"
   inkscape:connector-curvature="0"
   style="fill:none;stroke:#ffffff" />
         <path
   d="m 5804,17619 124,94 119,89 112,89 109,86 102,87 102,86 96,86 94,87 92,89 89,94 89,94 91,101 89,105 91,109 92,117 94,124 76,130 43,109 18,89 3,79 -11,76 -7,73 -3,84 15,97 -5,23 -15,10 -20,-3 -15,-17 -21,-100 -12,-86 -11,-79 -10,-78 -18,-77 -28,-83 -38,-89 -58,-105 -94,-124 -92,-119 -94,-115 -93,-109 -94,-107 -94,-104 -97,-101 -97,-100 -99,-96 -101,-94 -107,-94 -107,-94 -111,-92 -115,-94 -119,-91 -125,-94 -2,-5 13,-3 22,3 31,8 33,7 30,10 28,8 z"
   id="path166"
   inkscape:connector-curvature="0"
   style="fill:#ffffff;stroke:none" />
         <path
   d="m 5804,17619 124,94 119,89 112,89 109,86 102,87 102,86 96,86 94,87 92,89 89,94 89,94 91,101 89,105 91,109 92,117 94,124 76,130 43,109 18,89 3,79 -11,76 -7,73 -3,84 15,97 -5,23 -15,10 -20,-3 -15,-17 -21,-100 -12,-86 -11,-79 -10,-78 -18,-77 -28,-83 -38,-89 -58,-105 -94,-124 -92,-119 -94,-115 -93,-109 -94,-107 -94,-104 -97,-101 -97,-100 -99,-96 -101,-94 -107,-94 -107,-94 -111,-92 -115,-94 -119,-91 -125,-94 -2,-5 13,-3 22,3 31,8 33,7 30,10 28,8 z"
   id="path168"
   inkscape:connector-curvature="0"
   style="fill:none;stroke:#ffffff" />
         <path
   d="m 10958,22098 1832,-3778 5116,-1552 -4342,1801 -353,2576 z"
   id="path170"
   inkscape:connector-curvature="0"
   style="fill:#000000;stroke:none" />
         <path
   d="m 10958,22098 1832,-3778 5116,-1552 -4342,1801 -353,2576 z"
   id="path172"
   inkscape:connector-curvature="0"
   style="fill:none;stroke:#000000" />
         <path
   d="m 3129,12401 3599,-175 353,-3882 -1059,3247 z"
   id="path174"
   inkscape:connector-curvature="0"
   style="fill:#000000;stroke:none" />
         <path
   d="m 3129,12401 3599,-175 353,-3882 -1059,3247 z"
   id="path176"
   inkscape:connector-curvature="0"
   style="fill:none;stroke:#000000" />
        </g>
       </g>
      </g>
     </g>
    </g>
   </g>
  </g>
 </g>
</svg>