<?xml version="1.0" encoding="UTF-8" standalone="no"?>
<svg
   xmlns:ooo="http://xml.openoffice.org/svg/export"
   xmlns:dc="http://purl.org/dc/elements/1.1/"
   xmlns:cc="http://creativecommons.org/ns#"
   xmlns:rdf="http://www.w3.org/1999/02/22-rdf-syntax-ns#"
   xmlns:svg="http://www.w3.org/2000/svg"
   xmlns="http://www.w3.org/2000/svg"
   xmlns:sodipodi="http://sodipodi.sourceforge.net/DTD/sodipodi-0.dtd"
   xmlns:inkscape="http://www.inkscape.org/namespaces/inkscape"
   version="1.2"
   width="12.34mm"
   height="12.34mm"
   viewBox="0 0 1234 1234"
   preserveAspectRatio="xMidYMid"
   xml:space="preserve"
   id="svg83"
   sodipodi:docname="flower8.svg"
   style="fill-rule:evenodd;stroke-width:28.22200012;stroke-linejoin:round"
   inkscape:version="0.92.5 (2060ec1f9f, 2020-04-08)"><metadata
   id="metadata87"><rdf:RDF><cc:Work
       rdf:about=""><dc:format>image/svg+xml</dc:format><dc:type
         rdf:resource="http://purl.org/dc/dcmitype/StillImage" /></cc:Work></rdf:RDF></metadata><sodipodi:namedview
   pagecolor="#ffffff"
   bordercolor="#666666"
   borderopacity="1"
   objecttolerance="10"
   gridtolerance="10"
   guidetolerance="10"
   inkscape:pageopacity="0"
   inkscape:pageshadow="2"
   inkscape:window-width="664"
   inkscape:window-height="487"
   id="namedview85"
   showgrid="false"
   inkscape:zoom="0.2102413"
   inkscape:cx="23.319686"
   inkscape:cy="23.319684"
   inkscape:window-x="0"
   inkscape:window-y="0"
   inkscape:window-maximized="0"
   inkscape:current-layer="svg83" />
 <defs
   class="ClipPathGroup"
   id="defs8">
  <clipPath
   id="presentation_clip_path"
   clipPathUnits="userSpaceOnUse">
   <rect
   x="0"
   y="0"
   width="21000"
   height="29700"
   id="rect2" />
  </clipPath>
  <clipPath
   id="presentation_clip_path_shrink"
   clipPathUnits="userSpaceOnUse">
   <rect
   x="21"
   y="29"
   width="20958"
   height="29641"
   id="rect5" />
  </clipPath>
 </defs>
 <defs
   class="TextShapeIndex"
   id="defs12">
  <g
   ooo:slide="id1"
   ooo:id-list="id3"
   id="g10" />
 </defs>
 <defs
   class="EmbeddedBulletChars"
   id="defs44">
  <g
   id="bullet-char-template-57356"
   transform="matrix(4.8828125e-4,0,0,-4.8828125e-4,0,0)">
   <path
   d="M 580,1141 1163,571 580,0 -4,571 Z"
   id="path14"
   inkscape:connector-curvature="0" />
  </g>
  <g
   id="bullet-char-template-57354"
   transform="matrix(4.8828125e-4,0,0,-4.8828125e-4,0,0)">
   <path
   d="M 8,1128 H 1137 V 0 H 8 Z"
   id="path17"
   inkscape:connector-curvature="0" />
  </g>
  <g
   id="bullet-char-template-10146"
   transform="matrix(4.8828125e-4,0,0,-4.8828125e-4,0,0)">
   <path
   d="M 174,0 602,739 174,1481 1456,739 Z M 1358,739 309,1346 659,739 Z"
   id="path20"
   inkscape:connector-curvature="0" />
  </g>
  <g
   id="bullet-char-template-10132"
   transform="matrix(4.8828125e-4,0,0,-4.8828125e-4,0,0)">
   <path
   d="M 2015,739 1276,0 H 717 l 543,543 H 174 v 393 h 1086 l -543,545 h 557 z"
   id="path23"
   inkscape:connector-curvature="0" />
  </g>
  <g
   id="bullet-char-template-10007"
   transform="matrix(4.8828125e-4,0,0,-4.8828125e-4,0,0)">
   <path
   d="m 0,-2 c -7,16 -16,29 -25,39 l 381,530 c -94,256 -141,385 -141,387 0,25 13,38 40,38 9,0 21,-2 34,-5 21,4 42,12 65,25 l 27,-13 111,-251 280,301 64,-25 24,25 c 21,-10 41,-24 62,-43 C 886,937 835,863 770,784 769,783 710,716 594,584 L 774,223 c 0,-27 -21,-55 -63,-84 l 16,-20 C 717,90 699,76 672,76 641,76 570,178 457,381 L 164,-76 c -22,-34 -53,-51 -92,-51 -42,0 -63,17 -64,51 -7,9 -10,24 -10,44 0,9 1,19 2,30 z"
   id="path26"
   inkscape:connector-curvature="0" />
  </g>
  <g
   id="bullet-char-template-10004"
   transform="matrix(4.8828125e-4,0,0,-4.8828125e-4,0,0)">
   <path
   d="M 285,-33 C 182,-33 111,30 74,156 52,228 41,333 41,471 c 0,78 14,145 41,201 34,71 87,106 158,106 53,0 88,-31 106,-94 l 23,-176 c 8,-64 28,-97 59,-98 l 735,706 c 11,11 33,17 66,17 42,0 63,-15 63,-46 V 965 c 0,-36 -10,-64 -30,-84 L 442,47 C 390,-6 338,-33 285,-33 Z"
   id="path29"
   inkscape:connector-curvature="0" />
  </g>
  <g
   id="bullet-char-template-9679"
   transform="matrix(4.8828125e-4,0,0,-4.8828125e-4,0,0)">
   <path
   d="M 813,0 C 632,0 489,54 383,161 276,268 223,411 223,592 c 0,181 53,324 160,431 106,107 249,161 430,161 179,0 323,-54 432,-161 108,-107 162,-251 162,-431 0,-180 -54,-324 -162,-431 C 1136,54 992,0 813,0 Z"
   id="path32"
   inkscape:connector-curvature="0" />
  </g>
  <g
   id="bullet-char-template-8226"
   transform="matrix(4.8828125e-4,0,0,-4.8828125e-4,0,0)">
   <path
   d="m 346,457 c -73,0 -137,26 -191,78 -54,51 -81,114 -81,188 0,73 27,136 81,188 54,52 118,78 191,78 73,0 134,-26 185,-79 51,-51 77,-114 77,-187 0,-75 -25,-137 -76,-188 -50,-52 -112,-78 -186,-78 z"
   id="path35"
   inkscape:connector-curvature="0" />
  </g>
  <g
   id="bullet-char-template-8211"
   transform="matrix(4.8828125e-4,0,0,-4.8828125e-4,0,0)">
   <path
   d="M -4,459 H 1135 V 606 H -4 Z"
   id="path38"
   inkscape:connector-curvature="0" />
  </g>
  <g
   id="bullet-char-template-61548"
   transform="matrix(4.8828125e-4,0,0,-4.8828125e-4,0,0)">
   <path
   d="m 173,740 c 0,163 58,303 173,419 116,115 255,173 419,173 163,0 302,-58 418,-173 116,-116 174,-256 174,-419 0,-163 -58,-303 -174,-418 C 1067,206 928,148 765,148 601,148 462,206 346,322 231,437 173,577 173,740 Z"
   id="path41"
   inkscape:connector-curvature="0" />
  </g>
 </defs>
 <g
   id="g49"
   transform="translate(-9883,-14233)">
  <g
   id="id2"
   class="Master_Slide">
   <g
   id="bg-id2"
   class="Background" />
   <g
   id="bo-id2"
   class="BackgroundObjects" />
  </g>
 </g>
 <g
   class="SlideGroup"
   id="g81"
   transform="translate(-9883,-14233)">
  <g
   id="g79">
   <g
   id="container-id1">
    <g
   id="id1"
   class="Slide"
   clip-path="url(#presentation_clip_path)">
     <g
   class="Page"
   id="g75">
      <g
   class="Graphic"
   id="g73">
       <g
   id="id3">
        <rect
   class="BoundingBox"
   x="9883"
   y="14233"
   width="1234"
   height="1234"
   id="rect51"
   style="fill:none;stroke:none" />
        <defs
   id="defs56">
         <clipPath
   id="clip_path_1"
   clipPathUnits="userSpaceOnUse">
          <path
   d="m 9883,14233 h 1233 v 1233 H 9883 Z"
   id="path53"
   inkscape:connector-curvature="0" />
         </clipPath>
        </defs>
        <g
   clip-path="url(#clip_path_1)"
   id="g70">
         <path
   d="m 10911,15467 41,-5 40,-10 33,-21 31,-25 25,-31 21,-33 10,-40 5,-41 v -822 l -5,-41 -10,-40 -21,-33 -25,-31 -31,-25 -33,-21 -40,-10 -41,-5 h -824 l -41,5 -38,10 -36,21 -28,25 -25,31 -21,33 -10,40 -5,41 v 822 l 5,41 10,40 21,33 25,31 28,25 36,21 38,10 41,5 z"
   id="path58"
   inkscape:connector-curvature="0"
   style="fill:#000000;stroke:none" />
         <path
   d="m 10455,14821 -20,-51 -25,-48 -31,-46 -33,-38 -30,-36 -34,-28 -28,-18 -25,-10 23,-3 20,-5 16,-7 15,-8 13,-8 12,-10 10,-10 13,-10 15,-10 18,-8 15,-5 18,-3 h 18 l 13,3 13,3 10,5 15,7 13,3 15,-3 10,-7 8,-5 10,-6 18,-2 h 18 20 l 23,2 20,8 18,8 15,10 16,10 15,13 15,13 15,10 18,7 15,8 18,5 -33,13 -33,18 -36,28 -33,35 -30,38 -26,41 -20,46 -10,46 -5,10 -8,2 h -7 l -6,-7 -12,-21 -18,-7 -18,5 -13,15 -5,10 -5,8 h -7 z"
   id="path60"
   inkscape:connector-curvature="0"
   style="fill:#ffffff;stroke:none" />
         <path
   d="m 10435,14859 -15,-43 -23,-46 -25,-46 -28,-43 -34,-38 -35,-36 -38,-25 -39,-16 -30,3 -23,7 -18,8 -15,13 -13,13 -7,15 -5,18 -6,20 -10,33 -10,20 -13,16 -10,10 -5,10 -2,13 v 20 l 5,23 10,23 18,23 28,20 35,18 18,-18 33,-18 41,-12 46,-8 48,-5 46,2 43,8 z"
   id="path62"
   inkscape:connector-curvature="0"
   style="fill:#ffffff;stroke:none" />
         <path
   d="m 10590,14849 11,-49 15,-43 23,-43 25,-41 33,-33 36,-30 38,-21 41,-15 h 25 l 28,8 26,12 25,13 18,18 10,15 5,18 -8,15 -12,18 -3,18 3,15 5,13 10,30 -5,36 -18,36 -36,35 -20,-15 -28,-13 -38,-10 -41,-8 -43,-2 -43,2 -44,8 z"
   id="path64"
   inkscape:connector-curvature="0"
   style="fill:#ffffff;stroke:none" />
         <path
   d="m 10865,14895 -30,-16 -33,-10 -36,-5 -33,-3 h -31 l -30,3 -23,5 -21,8 -17,10 -21,10 -25,8 -28,7 -28,5 h -28 l -28,-2 -26,-13 -28,-15 -30,-13 -33,-7 -33,-3 -36,3 -35,7 -36,10 -33,18 20,15 21,18 17,18 18,20 21,23 20,21 23,17 25,18 10,5 13,5 h 13 13 12 l 13,-2 8,-5 7,-3 13,-7 13,-5 18,-3 20,-5 h 20 l 18,2 18,3 18,8 15,7 18,8 18,8 17,2 h 18 l 18,-2 15,-6 16,-7 25,-23 25,-26 23,-25 21,-25 20,-26 20,-18 21,-12 z"
   id="path66"
   inkscape:connector-curvature="0"
   style="fill:#ffffff;stroke:none" />
         <path
   d="m 10420,15103 13,-2 12,-8 10,-5 11,-8 12,-5 18,-2 h 21 l 15,7 10,8 15,8 13,5 15,2 -25,43 -15,59 -11,69 -2,63 -5,16 -13,2 -13,-2 -5,-16 v -23 l -2,-28 -3,-33 -5,-33 -10,-33 -13,-33 -18,-28 z"
   id="path68"
   inkscape:connector-curvature="0"
   style="fill:#ffffff;stroke:none" />
        </g>
       </g>
      </g>
     </g>
    </g>
   </g>
  </g>
 </g>
</svg>