<?xml version="1.0" encoding="UTF-8" standalone="no"?>
<svg
   xmlns:ooo="http://xml.openoffice.org/svg/export"
   xmlns:dc="http://purl.org/dc/elements/1.1/"
   xmlns:cc="http://creativecommons.org/ns#"
   xmlns:rdf="http://www.w3.org/1999/02/22-rdf-syntax-ns#"
   xmlns:svg="http://www.w3.org/2000/svg"
   xmlns="http://www.w3.org/2000/svg"
   xmlns:sodipodi="http://sodipodi.sourceforge.net/DTD/sodipodi-0.dtd"
   xmlns:inkscape="http://www.inkscape.org/namespaces/inkscape"
   version="1.2"
   width="19.709999mm"
   height="24.49mm"
   viewBox="0 0 1970.9999 2449"
   preserveAspectRatio="xMidYMid"
   xml:space="preserve"
   id="svg171"
   sodipodi:docname="foodcrt4.svg"
   style="fill-rule:evenodd;stroke-width:28.22200012;stroke-linejoin:round"
   inkscape:version="0.92.5 (2060ec1f9f, 2020-04-08)"><metadata
   id="metadata175"><rdf:RDF><cc:Work
       rdf:about=""><dc:format>image/svg+xml</dc:format><dc:type
         rdf:resource="http://purl.org/dc/dcmitype/StillImage" /></cc:Work></rdf:RDF></metadata><sodipodi:namedview
   pagecolor="#ffffff"
   bordercolor="#666666"
   borderopacity="1"
   objecttolerance="10"
   gridtolerance="10"
   guidetolerance="10"
   inkscape:pageopacity="0"
   inkscape:pageshadow="2"
   inkscape:window-width="664"
   inkscape:window-height="487"
   id="namedview173"
   showgrid="false"
   inkscape:zoom="0.2102413"
   inkscape:cx="37.266143"
   inkscape:cy="46.261416"
   inkscape:window-x="0"
   inkscape:window-y="0"
   inkscape:window-maximized="0"
   inkscape:current-layer="svg171" />
 <defs
   class="ClipPathGroup"
   id="defs8">
  <clipPath
   id="presentation_clip_path"
   clipPathUnits="userSpaceOnUse">
   <rect
   x="0"
   y="0"
   width="21000"
   height="29700"
   id="rect2" />
  </clipPath>
  <clipPath
   id="presentation_clip_path_shrink"
   clipPathUnits="userSpaceOnUse">
   <rect
   x="21"
   y="29"
   width="20958"
   height="29641"
   id="rect5" />
  </clipPath>
 </defs>
 <defs
   class="TextShapeIndex"
   id="defs12">
  <g
   ooo:slide="id1"
   ooo:id-list="id3"
   id="g10" />
 </defs>
 <defs
   class="EmbeddedBulletChars"
   id="defs44">
  <g
   id="bullet-char-template-57356"
   transform="matrix(4.8828125e-4,0,0,-4.8828125e-4,0,0)">
   <path
   d="M 580,1141 1163,571 580,0 -4,571 Z"
   id="path14"
   inkscape:connector-curvature="0" />
  </g>
  <g
   id="bullet-char-template-57354"
   transform="matrix(4.8828125e-4,0,0,-4.8828125e-4,0,0)">
   <path
   d="M 8,1128 H 1137 V 0 H 8 Z"
   id="path17"
   inkscape:connector-curvature="0" />
  </g>
  <g
   id="bullet-char-template-10146"
   transform="matrix(4.8828125e-4,0,0,-4.8828125e-4,0,0)">
   <path
   d="M 174,0 602,739 174,1481 1456,739 Z M 1358,739 309,1346 659,739 Z"
   id="path20"
   inkscape:connector-curvature="0" />
  </g>
  <g
   id="bullet-char-template-10132"
   transform="matrix(4.8828125e-4,0,0,-4.8828125e-4,0,0)">
   <path
   d="M 2015,739 1276,0 H 717 l 543,543 H 174 v 393 h 1086 l -543,545 h 557 z"
   id="path23"
   inkscape:connector-curvature="0" />
  </g>
  <g
   id="bullet-char-template-10007"
   transform="matrix(4.8828125e-4,0,0,-4.8828125e-4,0,0)">
   <path
   d="m 0,-2 c -7,16 -16,29 -25,39 l 381,530 c -94,256 -141,385 -141,387 0,25 13,38 40,38 9,0 21,-2 34,-5 21,4 42,12 65,25 l 27,-13 111,-251 280,301 64,-25 24,25 c 21,-10 41,-24 62,-43 C 886,937 835,863 770,784 769,783 710,716 594,584 L 774,223 c 0,-27 -21,-55 -63,-84 l 16,-20 C 717,90 699,76 672,76 641,76 570,178 457,381 L 164,-76 c -22,-34 -53,-51 -92,-51 -42,0 -63,17 -64,51 -7,9 -10,24 -10,44 0,9 1,19 2,30 z"
   id="path26"
   inkscape:connector-curvature="0" />
  </g>
  <g
   id="bullet-char-template-10004"
   transform="matrix(4.8828125e-4,0,0,-4.8828125e-4,0,0)">
   <path
   d="M 285,-33 C 182,-33 111,30 74,156 52,228 41,333 41,471 c 0,78 14,145 41,201 34,71 87,106 158,106 53,0 88,-31 106,-94 l 23,-176 c 8,-64 28,-97 59,-98 l 735,706 c 11,11 33,17 66,17 42,0 63,-15 63,-46 V 965 c 0,-36 -10,-64 -30,-84 L 442,47 C 390,-6 338,-33 285,-33 Z"
   id="path29"
   inkscape:connector-curvature="0" />
  </g>
  <g
   id="bullet-char-template-9679"
   transform="matrix(4.8828125e-4,0,0,-4.8828125e-4,0,0)">
   <path
   d="M 813,0 C 632,0 489,54 383,161 276,268 223,411 223,592 c 0,181 53,324 160,431 106,107 249,161 430,161 179,0 323,-54 432,-161 108,-107 162,-251 162,-431 0,-180 -54,-324 -162,-431 C 1136,54 992,0 813,0 Z"
   id="path32"
   inkscape:connector-curvature="0" />
  </g>
  <g
   id="bullet-char-template-8226"
   transform="matrix(4.8828125e-4,0,0,-4.8828125e-4,0,0)">
   <path
   d="m 346,457 c -73,0 -137,26 -191,78 -54,51 -81,114 -81,188 0,73 27,136 81,188 54,52 118,78 191,78 73,0 134,-26 185,-79 51,-51 77,-114 77,-187 0,-75 -25,-137 -76,-188 -50,-52 -112,-78 -186,-78 z"
   id="path35"
   inkscape:connector-curvature="0" />
  </g>
  <g
   id="bullet-char-template-8211"
   transform="matrix(4.8828125e-4,0,0,-4.8828125e-4,0,0)">
   <path
   d="M -4,459 H 1135 V 606 H -4 Z"
   id="path38"
   inkscape:connector-curvature="0" />
  </g>
  <g
   id="bullet-char-template-61548"
   transform="matrix(4.8828125e-4,0,0,-4.8828125e-4,0,0)">
   <path
   d="m 173,740 c 0,163 58,303 173,419 116,115 255,173 419,173 163,0 302,-58 418,-173 116,-116 174,-256 174,-419 0,-163 -58,-303 -174,-418 C 1067,206 928,148 765,148 601,148 462,206 346,322 231,437 173,577 173,740 Z"
   id="path41"
   inkscape:connector-curvature="0" />
  </g>
 </defs>
 <g
   id="g49"
   transform="translate(-9514,-13625)">
  <g
   id="id2"
   class="Master_Slide">
   <g
   id="bg-id2"
   class="Background" />
   <g
   id="bo-id2"
   class="BackgroundObjects" />
  </g>
 </g>
 <g
   class="SlideGroup"
   id="g169"
   transform="translate(-9514,-13625)">
  <g
   id="g167">
   <g
   id="container-id1">
    <g
   id="id1"
   class="Slide"
   clip-path="url(#presentation_clip_path)">
     <g
   class="Page"
   id="g163">
      <g
   class="Graphic"
   id="g161">
       <g
   id="id3">
        <rect
   class="BoundingBox"
   x="9514"
   y="13625"
   width="1971"
   height="2449"
   id="rect51"
   style="fill:none;stroke:none" />
        <defs
   id="defs56">
         <clipPath
   id="clip_path_1"
   clipPathUnits="userSpaceOnUse">
          <path
   d="m 9514,13625 h 1970 v 2448 H 9514 Z"
   id="path53"
   inkscape:connector-curvature="0" />
         </clipPath>
        </defs>
        <g
   clip-path="url(#clip_path_1)"
   id="g158">
         <path
   d="m 9949,16071 28,-2 28,-10 25,-13 21,-18 17,-20 13,-26 10,-28 3,-27 -3,-31 -10,-28 -13,-23 -17,-23 -21,-18 -25,-12 -28,-10 -28,-3 -31,3 -28,10 -22,12 -23,18 -18,23 -13,23 -10,28 -3,31 3,27 10,28 13,26 18,20 23,18 22,13 28,10 z"
   id="path58"
   inkscape:connector-curvature="0"
   style="fill:#000000;stroke:none" />
         <path
   d="m 11093,13625 v 211 h -943 v -211 z"
   id="path60"
   inkscape:connector-curvature="0"
   style="fill:#000000;stroke:none" />
         <path
   d="m 9997,14342 h 87 v 911 h 1096 v -911 h 86 v 1333 H 9997 Z"
   id="path62"
   inkscape:connector-curvature="0"
   style="fill:#ffffff;stroke:none" />
         <path
   d="m 10096,14342 -12,-13 h -87 v 26 h 87 l -13,-13 h 25 v -13 h -12 z"
   id="path64"
   inkscape:connector-curvature="0"
   style="fill:#000000;stroke:none" />
         <path
   d="m 10084,15240 12,13 v -911 h -25 v 911 l 13,12 -13,-12 v 12 h 13 z"
   id="path66"
   inkscape:connector-curvature="0"
   style="fill:#000000;stroke:none" />
         <path
   d="m 11167,15253 13,-13 h -1096 v 25 h 1096 l 13,-12 -13,12 h 13 v -12 z"
   id="path68"
   inkscape:connector-curvature="0"
   style="fill:#000000;stroke:none" />
         <path
   d="m 11180,14329 -13,13 v 911 h 26 v -911 l -13,13 v -26 h -13 v 13 z"
   id="path70"
   inkscape:connector-curvature="0"
   style="fill:#000000;stroke:none" />
         <path
   d="m 11279,14342 -13,-13 h -86 v 26 h 86 l -12,-13 h 25 v -13 h -13 z"
   id="path72"
   inkscape:connector-curvature="0"
   style="fill:#000000;stroke:none" />
         <path
   d="m 11266,15687 13,-12 v -1333 h -25 v 1333 l 12,-13 v 25 h 13 v -12 z"
   id="path74"
   inkscape:connector-curvature="0"
   style="fill:#000000;stroke:none" />
         <path
   d="m 9984,15675 13,12 h 1269 v -25 H 9997 l 13,13 h -26 v 12 h 13 z"
   id="path76"
   inkscape:connector-curvature="0"
   style="fill:#000000;stroke:none" />
         <path
   d="m 9997,14329 -13,13 v 1333 h 26 v -1333 l -13,13 v -26 h -13 v 13 z"
   id="path78"
   inkscape:connector-curvature="0"
   style="fill:#000000;stroke:none" />
         <path
   d="m 9997,15675 v 162 l -5,6 -15,15 -20,20 -31,21 -13,12 -7,16 v 15 l 5,15 7,13 13,7 h 18 l 20,-7 23,-13 20,-15 21,-15 18,-16 12,-15 11,-10 7,-8 3,-2 v -201 z"
   id="path80"
   inkscape:connector-curvature="0"
   style="fill:#ffffff;stroke:none" />
         <path
   d="m 10005,15845 5,-8 v -162 h -26 v 162 l 6,-7 15,15 5,-5 v -3 z"
   id="path82"
   inkscape:connector-curvature="0"
   style="fill:#000000;stroke:none" />
         <path
   d="m 9931,15909 v 0 l 33,-23 20,-21 16,-15 5,-5 -15,-15 -6,5 -15,15 -20,21 -28,17 v 0 z"
   id="path84"
   inkscape:connector-curvature="0"
   style="fill:#000000;stroke:none" />
         <path
   d="m 9964,15960 v 0 l -15,7 h -15 l -8,-5 -5,-10 -5,-10 v -13 l 7,-13 8,-7 -10,-21 -18,18 -8,18 v 18 l 6,20 10,15 18,11 h 20 l 25,-8 v 0 z"
   id="path86"
   inkscape:connector-curvature="0"
   style="fill:#000000;stroke:none" />
         <path
   d="m 10071,15876 5,-8 -2,3 -8,7 -10,10 -13,16 -18,15 -18,15 -20,13 -23,13 10,20 23,-13 21,-18 22,-15 18,-15 13,-15 10,-11 8,-7 2,-3 5,-7 -5,7 5,-5 v -2 z"
   id="path88"
   inkscape:connector-curvature="0"
   style="fill:#000000;stroke:none" />
         <path
   d="m 10084,15687 -13,-12 v 201 h 25 v -201 l -12,-13 12,13 v -13 h -12 z"
   id="path90"
   inkscape:connector-curvature="0"
   style="fill:#000000;stroke:none" />
         <path
   d="m 10010,15675 -13,12 h 87 v -25 h -87 l -13,13 13,-13 h -13 v 13 z"
   id="path92"
   inkscape:connector-curvature="0"
   style="fill:#000000;stroke:none" />
         <path
   d="m 10084,15128 15,-15 28,-8 30,-5 36,3 33,12 28,23 18,31 8,45 5,-50 22,-39 34,-22 38,-11 40,5 39,21 28,35 17,51 13,-40 23,-31 33,-23 36,-10 38,3 33,15 25,33 13,53 10,-46 23,-30 31,-18 35,-5 36,8 33,18 25,27 13,39 15,-26 23,-25 31,-23 38,-15 38,-5 41,10 38,25 33,48 -3,-48 -10,-51 -18,-51 -28,-43 -33,-38 -35,-20 -44,-5 -43,15 -20,-28 -26,-23 -30,-18 -33,-10 -33,-3 -31,6 -25,15 -18,28 -20,-26 -31,-23 -38,-17 -41,-13 -43,-3 -38,11 -33,22 -20,39 2,-87 3,-43 -3,-15 -2,-3 h -13 -33 -44 -50 -51 -43 -31 -13 v 201 h -15 l -18,5 -20,13 -20,18 -21,25 -15,31 -10,38 z"
   id="path94"
   inkscape:connector-curvature="0"
   style="fill:#ffffff;stroke:none" />
         <path
   d="m 10269,15214 h 23 l -10,-48 -20,-35 -31,-26 -35,-13 -39,-5 -33,8 -30,8 -20,20 20,10 10,-10 25,-8 28,-2 h 33 l 31,12 25,21 16,25 5,43 h 23 z"
   id="path96"
   inkscape:connector-curvature="0"
   style="fill:#000000;stroke:none" />
         <path
   d="m 10493,15204 h 20 l -17,-56 -31,-38 -43,-23 -43,-5 -44,10 -35,26 -26,43 -5,53 h 21 l 5,-48 20,-33 31,-20 33,-10 38,5 33,17 25,33 18,46 h 20 -20 l 10,89 10,-89 z"
   id="path98"
   inkscape:connector-curvature="0"
   style="fill:#000000;stroke:none" />
         <path
   d="m 10707,15204 h 20 l -13,-58 -28,-36 -38,-18 -40,-2 -41,10 -36,25 -25,33 -13,46 h 20 l 13,-35 21,-28 30,-21 31,-10 35,3 28,12 23,31 13,48 h 20 z"
   id="path100"
   inkscape:connector-curvature="0"
   style="fill:#000000;stroke:none" />
         <path
   d="m 10913,15194 20,3 -13,-44 -28,-30 -38,-20 -38,-11 -38,8 -36,20 -25,36 -10,48 h 20 l 10,-43 21,-25 25,-16 33,-2 33,5 28,15 23,26 13,33 20,2 -20,-2 5,48 15,-46 z"
   id="path102"
   inkscape:connector-curvature="0"
   style="fill:#000000;stroke:none" />
         <path
   d="m 11170,15186 20,-5 -36,-50 -40,-28 -46,-11 -41,5 -40,16 -34,25 -22,28 -18,28 20,5 13,-23 23,-23 28,-20 35,-15 36,-5 36,10 35,23 31,46 20,-6 -20,6 17,38 3,-44 z"
   id="path104"
   inkscape:connector-curvature="0"
   style="fill:#000000;stroke:none" />
         <path
   d="m 10956,14950 15,5 38,-15 41,5 31,18 33,35 25,44 18,48 10,48 3,48 h 20 l -3,-48 -10,-53 -18,-54 -30,-43 -33,-41 -41,-22 -46,-6 -48,16 15,5 -20,10 8,13 7,-8 z"
   id="path106"
   inkscape:connector-curvature="0"
   style="fill:#000000;stroke:none" />
         <path
   d="m 10740,14917 h 20 l 15,-26 21,-12 28,-3 h 33 l 28,10 30,18 23,21 18,25 20,-10 -23,-31 -28,-25 -30,-18 -38,-10 -33,-5 -33,7 -31,18 -20,31 h 20 l -20,10 10,25 10,-25 z"
   id="path108"
   inkscape:connector-curvature="0"
   style="fill:#000000;stroke:none" />
         <path
   d="m 10475,14902 21,2 17,-33 31,-20 33,-10 43,2 38,13 36,18 28,20 18,23 20,-10 -23,-28 -33,-26 -40,-17 -44,-13 -43,-3 -43,10 -36,26 -23,43 21,3 h -21 l -2,76 23,-74 z"
   id="path110"
   inkscape:connector-curvature="0"
   style="fill:#000000;stroke:none" />
         <path
   d="m 10486,14767 v 0 l -8,-8 v 13 43 l -3,87 h 21 l 2,-87 5,-43 -5,-18 -12,-13 v 0 z"
   id="path112"
   inkscape:connector-curvature="0"
   style="fill:#000000;stroke:none" />
         <path
   d="m 10221,14754 -13,13 h 13 31 43 51 50 44 33 13 v -26 h -13 -33 -44 -50 -51 -43 -31 -13 l -12,13 12,-13 h -12 v 13 z"
   id="path114"
   inkscape:connector-curvature="0"
   style="fill:#000000;stroke:none" />
         <path
   d="m 10206,14965 15,-10 v -201 h -25 v 201 l 15,-10 -5,20 15,5 v -15 z"
   id="path116"
   inkscape:connector-curvature="0"
   style="fill:#000000;stroke:none" />
         <path
   d="m 10074,15123 22,5 3,-43 10,-36 15,-28 18,-23 18,-18 20,-10 13,-5 h 13 l 5,-20 h -18 l -23,5 -20,15 -23,18 -23,28 -15,33 -10,41 -8,43 23,5 -23,-5 v 41 l 23,-36 z"
   id="path118"
   inkscape:connector-curvature="0"
   style="fill:#000000;stroke:none" />
         <path
   d="m 9616,15273 56,-38 56,-21 58,-7 56,2 53,13 44,18 35,25 23,26 v -94 l -10,-18 -18,-18 -18,-15 -25,-13 -25,-8 -28,-7 -31,-5 -30,-3 -34,3 -33,2 -35,8 -31,10 -33,13 -30,15 -28,20 -26,23 -12,18 -5,20 v 16 l 7,15 13,10 15,5 18,-5 z"
   id="path120"
   inkscape:connector-curvature="0"
   style="fill:#000000;stroke:none" />
         <path
   d="m 10585,15034 -8,-10 -20,-8 -31,-5 -33,-3 -33,6 -33,7 -25,13 -18,18 -18,-49 13,-40 30,-33 41,-18 48,-3 43,18 31,41 z"
   id="path122"
   inkscape:connector-curvature="0"
   style="fill:#000000;stroke:none" />
         <path
   d="m 10890,15034 -8,-10 -20,-8 -28,-5 -33,-3 -36,6 -30,7 -28,13 -18,18 -15,-49 10,-40 30,-33 44,-18 45,-3 44,18 30,41 z"
   id="path124"
   inkscape:connector-curvature="0"
   style="fill:#000000;stroke:none" />
         <path
   d="m 11180,15186 -33,-48 -38,-25 -41,-10 -38,5 -38,15 -31,23 -23,25 -15,26 -13,-39 -25,-27 -33,-18 -36,-8 -35,5 -31,18 -23,30 -10,46 -13,-53 -25,-33 -33,-15 -38,-3 -36,10 -33,23 -23,31 -13,40 -17,-51 -28,-35 -39,-21 -40,-5 -38,11 -34,22 -22,39 -5,50 -8,-45 -18,-31 -28,-23 -33,-12 -36,-3 -30,5 -28,8 -15,15 v 125 h 1096 z"
   id="path126"
   inkscape:connector-curvature="0"
   style="fill:#ffffff;stroke:none" />
         <path
   d="m 10913,15197 20,2 13,-23 23,-23 28,-20 35,-15 36,-5 36,10 35,23 31,46 20,-11 -36,-50 -40,-28 -46,-11 -41,5 -40,16 -34,25 -22,28 -18,28 20,3 h -20 l 5,48 15,-46 z"
   id="path128"
   inkscape:connector-curvature="0"
   style="fill:#000000;stroke:none" />
         <path
   d="m 10707,15204 h 20 l 10,-43 21,-25 25,-16 33,-2 33,5 28,15 23,26 13,33 h 20 l -13,-44 -28,-30 -38,-20 -38,-11 -38,8 -36,20 -25,36 -10,48 h 20 z"
   id="path130"
   inkscape:connector-curvature="0"
   style="fill:#000000;stroke:none" />
         <path
   d="m 10493,15204 h 20 l 13,-35 21,-28 30,-21 31,-10 35,3 28,12 23,31 13,48 h 20 l -13,-58 -28,-36 -38,-18 -40,-2 -41,10 -36,25 -25,33 -13,46 h 20 -20 l 10,89 10,-89 z"
   id="path132"
   inkscape:connector-curvature="0"
   style="fill:#000000;stroke:none" />
         <path
   d="m 10267,15214 h 23 l 5,-48 20,-33 31,-20 33,-10 38,5 33,17 25,33 18,46 h 20 l -17,-56 -31,-38 -43,-23 -43,-5 -44,10 -35,26 -26,43 -5,53 h 23 z"
   id="path134"
   inkscape:connector-curvature="0"
   style="fill:#000000;stroke:none" />
         <path
   d="m 10096,15128 -2,5 10,-10 25,-8 28,-2 h 33 l 31,12 25,21 16,25 5,43 h 25 l -10,-48 -20,-35 -31,-26 -35,-13 -39,-5 -33,8 -30,8 -20,20 -3,5 3,-5 v 2 l -3,3 z"
   id="path136"
   inkscape:connector-curvature="0"
   style="fill:#000000;stroke:none" />
         <path
   d="m 10084,15240 12,13 v -125 h -25 v 125 l 13,12 -13,-12 v 12 h 13 z"
   id="path138"
   inkscape:connector-curvature="0"
   style="fill:#000000;stroke:none" />
         <path
   d="m 11167,15253 13,-13 h -1096 v 25 h 1096 l 13,-12 -13,12 h 13 v -12 z"
   id="path140"
   inkscape:connector-curvature="0"
   style="fill:#000000;stroke:none" />
         <path
   d="m 11170,15192 -3,-6 v 67 h 26 v -67 l -3,-5 3,5 v -2 l -3,-3 z"
   id="path142"
   inkscape:connector-curvature="0"
   style="fill:#000000;stroke:none" />
         <path
   d="m 11091,13892 h -941 l -366,336 h 1698 z"
   id="path144"
   inkscape:connector-curvature="0"
   style="fill:#000000;stroke:none" />
         <path
   d="m 10803,14355 16,2 10,8 7,10 3,15 v 56 67 58 25 h 272 v -28 -63 -69 -46 l 3,-15 7,-10 10,-8 16,-2 12,2 13,8 8,10 2,15 v 56 67 58 25 h 303 v -315 H 9784 v 315 h 305 v -28 -63 -69 -46 l 2,-15 8,-10 10,-8 15,-2 13,2 13,8 7,10 3,15 v 56 67 58 25 h 270 v -28 -63 -69 -46 l 2,-15 8,-10 10,-8 15,-2 15,2 11,8 7,10 3,15 v 56 67 58 25 h 267 v -28 -63 -69 -46 l 2,-15 8,-10 10,-8 z"
   id="path146"
   inkscape:connector-curvature="0"
   style="fill:#000000;stroke:none" />
         <path
   d="m 11093,15675 v -107 h -737 v 107 z"
   id="path148"
   inkscape:connector-curvature="0"
   style="fill:#000000;stroke:none" />
         <path
   d="m 10976,15349 -89,-63 -417,610 89,61 z"
   id="path150"
   inkscape:connector-curvature="0"
   style="fill:#000000;stroke:none" />
         <path
   d="m 10587,15273 -91,53 361,644 96,-54 z"
   id="path152"
   inkscape:connector-curvature="0"
   style="fill:#000000;stroke:none" />
         <path
   d="m 10722,15751 28,-3 23,-7 23,-13 20,-15 15,-20 13,-21 8,-25 2,-26 -2,-25 -8,-26 -13,-20 -15,-20 -20,-15 -23,-13 -23,-8 -28,-2 -25,2 -26,8 -20,13 -21,15 -15,20 -12,20 -8,26 -3,25 3,26 8,25 12,21 15,20 21,15 20,13 26,7 z"
   id="path154"
   inkscape:connector-curvature="0"
   style="fill:#000000;stroke:none" />
         <path
   d="m 10722,16074 46,-3 46,-7 43,-10 43,-16 38,-20 38,-20 36,-28 33,-28 28,-33 25,-36 23,-36 21,-40 15,-41 10,-43 8,-46 2,-46 h -109 l -8,69 -20,66 -31,59 -43,50 -51,44 -58,30 -66,21 -69,7 -69,-7 -63,-21 -59,-30 -51,-44 -43,-50 -30,-59 -21,-66 -7,-69 7,-68 21,-66 30,-59 43,-51 51,-43 59,-31 63,-20 69,-8 69,8 66,20 58,31 51,43 43,51 31,59 20,66 8,68 h 109 l -2,-45 -8,-46 -10,-43 -15,-41 -21,-41 -23,-35 -25,-36 -28,-33 -33,-28 -36,-28 -38,-20 -38,-21 -43,-15 -43,-10 -46,-8 -46,-2 -46,2 -43,8 -43,10 -43,15 -39,21 -38,20 -33,28 -33,28 -28,33 -28,36 -20,35 -21,41 -15,41 -10,43 -8,46 -2,45 2,46 8,46 10,43 15,41 21,40 20,36 28,36 28,33 33,28 33,28 38,20 39,20 43,16 43,10 43,7 z"
   id="path156"
   inkscape:connector-curvature="0"
   style="fill:#000000;stroke:none" />
        </g>
       </g>
      </g>
     </g>
    </g>
   </g>
  </g>
 </g>
</svg>