<?xml version="1.0" encoding="UTF-8" standalone="no"?>
<svg
   xmlns:ooo="http://xml.openoffice.org/svg/export"
   xmlns:dc="http://purl.org/dc/elements/1.1/"
   xmlns:cc="http://creativecommons.org/ns#"
   xmlns:rdf="http://www.w3.org/1999/02/22-rdf-syntax-ns#"
   xmlns:svg="http://www.w3.org/2000/svg"
   xmlns="http://www.w3.org/2000/svg"
   xmlns:sodipodi="http://sodipodi.sourceforge.net/DTD/sodipodi-0.dtd"
   xmlns:inkscape="http://www.inkscape.org/namespaces/inkscape"
   version="1.2"
   width="48.259998mm"
   height="62.740002mm"
   viewBox="0 0 4825.9998 6274.0002"
   preserveAspectRatio="xMidYMid"
   xml:space="preserve"
   id="svg475"
   sodipodi:docname="forest.svg"
   style="fill-rule:evenodd;stroke-width:28.22200012;stroke-linejoin:round"
   inkscape:version="0.92.5 (2060ec1f9f, 2020-04-08)"><metadata
   id="metadata479"><rdf:RDF><cc:Work
       rdf:about=""><dc:format>image/svg+xml</dc:format><dc:type
         rdf:resource="http://purl.org/dc/dcmitype/StillImage" /></cc:Work></rdf:RDF></metadata><sodipodi:namedview
   pagecolor="#ffffff"
   bordercolor="#666666"
   borderopacity="1"
   objecttolerance="10"
   gridtolerance="10"
   guidetolerance="10"
   inkscape:pageopacity="0"
   inkscape:pageshadow="2"
   inkscape:window-width="664"
   inkscape:window-height="487"
   id="namedview477"
   showgrid="false"
   inkscape:zoom="0.2102413"
   inkscape:cx="91.200001"
   inkscape:cy="118.56378"
   inkscape:window-x="0"
   inkscape:window-y="0"
   inkscape:window-maximized="0"
   inkscape:current-layer="svg475" />
 <defs
   class="ClipPathGroup"
   id="defs8">
  <clipPath
   id="presentation_clip_path"
   clipPathUnits="userSpaceOnUse">
   <rect
   x="0"
   y="0"
   width="21000"
   height="29700"
   id="rect2" />
  </clipPath>
  <clipPath
   id="presentation_clip_path_shrink"
   clipPathUnits="userSpaceOnUse">
   <rect
   x="21"
   y="29"
   width="20958"
   height="29641"
   id="rect5" />
  </clipPath>
 </defs>
 <defs
   class="TextShapeIndex"
   id="defs12">
  <g
   ooo:slide="id1"
   ooo:id-list="id3"
   id="g10" />
 </defs>
 <defs
   class="EmbeddedBulletChars"
   id="defs44">
  <g
   id="bullet-char-template-57356"
   transform="matrix(4.8828125e-4,0,0,-4.8828125e-4,0,0)">
   <path
   d="M 580,1141 1163,571 580,0 -4,571 Z"
   id="path14"
   inkscape:connector-curvature="0" />
  </g>
  <g
   id="bullet-char-template-57354"
   transform="matrix(4.8828125e-4,0,0,-4.8828125e-4,0,0)">
   <path
   d="M 8,1128 H 1137 V 0 H 8 Z"
   id="path17"
   inkscape:connector-curvature="0" />
  </g>
  <g
   id="bullet-char-template-10146"
   transform="matrix(4.8828125e-4,0,0,-4.8828125e-4,0,0)">
   <path
   d="M 174,0 602,739 174,1481 1456,739 Z M 1358,739 309,1346 659,739 Z"
   id="path20"
   inkscape:connector-curvature="0" />
  </g>
  <g
   id="bullet-char-template-10132"
   transform="matrix(4.8828125e-4,0,0,-4.8828125e-4,0,0)">
   <path
   d="M 2015,739 1276,0 H 717 l 543,543 H 174 v 393 h 1086 l -543,545 h 557 z"
   id="path23"
   inkscape:connector-curvature="0" />
  </g>
  <g
   id="bullet-char-template-10007"
   transform="matrix(4.8828125e-4,0,0,-4.8828125e-4,0,0)">
   <path
   d="m 0,-2 c -7,16 -16,29 -25,39 l 381,530 c -94,256 -141,385 -141,387 0,25 13,38 40,38 9,0 21,-2 34,-5 21,4 42,12 65,25 l 27,-13 111,-251 280,301 64,-25 24,25 c 21,-10 41,-24 62,-43 C 886,937 835,863 770,784 769,783 710,716 594,584 L 774,223 c 0,-27 -21,-55 -63,-84 l 16,-20 C 717,90 699,76 672,76 641,76 570,178 457,381 L 164,-76 c -22,-34 -53,-51 -92,-51 -42,0 -63,17 -64,51 -7,9 -10,24 -10,44 0,9 1,19 2,30 z"
   id="path26"
   inkscape:connector-curvature="0" />
  </g>
  <g
   id="bullet-char-template-10004"
   transform="matrix(4.8828125e-4,0,0,-4.8828125e-4,0,0)">
   <path
   d="M 285,-33 C 182,-33 111,30 74,156 52,228 41,333 41,471 c 0,78 14,145 41,201 34,71 87,106 158,106 53,0 88,-31 106,-94 l 23,-176 c 8,-64 28,-97 59,-98 l 735,706 c 11,11 33,17 66,17 42,0 63,-15 63,-46 V 965 c 0,-36 -10,-64 -30,-84 L 442,47 C 390,-6 338,-33 285,-33 Z"
   id="path29"
   inkscape:connector-curvature="0" />
  </g>
  <g
   id="bullet-char-template-9679"
   transform="matrix(4.8828125e-4,0,0,-4.8828125e-4,0,0)">
   <path
   d="M 813,0 C 632,0 489,54 383,161 276,268 223,411 223,592 c 0,181 53,324 160,431 106,107 249,161 430,161 179,0 323,-54 432,-161 108,-107 162,-251 162,-431 0,-180 -54,-324 -162,-431 C 1136,54 992,0 813,0 Z"
   id="path32"
   inkscape:connector-curvature="0" />
  </g>
  <g
   id="bullet-char-template-8226"
   transform="matrix(4.8828125e-4,0,0,-4.8828125e-4,0,0)">
   <path
   d="m 346,457 c -73,0 -137,26 -191,78 -54,51 -81,114 -81,188 0,73 27,136 81,188 54,52 118,78 191,78 73,0 134,-26 185,-79 51,-51 77,-114 77,-187 0,-75 -25,-137 -76,-188 -50,-52 -112,-78 -186,-78 z"
   id="path35"
   inkscape:connector-curvature="0" />
  </g>
  <g
   id="bullet-char-template-8211"
   transform="matrix(4.8828125e-4,0,0,-4.8828125e-4,0,0)">
   <path
   d="M -4,459 H 1135 V 606 H -4 Z"
   id="path38"
   inkscape:connector-curvature="0" />
  </g>
  <g
   id="bullet-char-template-61548"
   transform="matrix(4.8828125e-4,0,0,-4.8828125e-4,0,0)">
   <path
   d="m 173,740 c 0,163 58,303 173,419 116,115 255,173 419,173 163,0 302,-58 418,-173 116,-116 174,-256 174,-419 0,-163 -58,-303 -174,-418 C 1067,206 928,148 765,148 601,148 462,206 346,322 231,437 173,577 173,740 Z"
   id="path41"
   inkscape:connector-curvature="0" />
  </g>
 </defs>
 <g
   id="g49"
   transform="translate(-8087,-11713)">
  <g
   id="id2"
   class="Master_Slide">
   <g
   id="bg-id2"
   class="Background" />
   <g
   id="bo-id2"
   class="BackgroundObjects" />
  </g>
 </g>
 <g
   class="SlideGroup"
   id="g473"
   transform="translate(-8087,-11713)">
  <g
   id="g471">
   <g
   id="container-id1">
    <g
   id="id1"
   class="Slide"
   clip-path="url(#presentation_clip_path)">
     <g
   class="Page"
   id="g467">
      <g
   class="Graphic"
   id="g465">
       <g
   id="id3">
        <rect
   class="BoundingBox"
   x="8087"
   y="11713"
   width="4826"
   height="6274"
   id="rect51"
   style="fill:none;stroke:none" />
        <defs
   id="defs56">
         <clipPath
   id="clip_path_1"
   clipPathUnits="userSpaceOnUse">
          <path
   d="m 8087,11713 h 4825 v 6273 H 8087 Z"
   id="path53"
   inkscape:connector-curvature="0" />
         </clipPath>
        </defs>
        <g
   clip-path="url(#clip_path_1)"
   id="g462">
         <path
   d="m 12913,12158 v -445 H 8087 v 445 z"
   id="path58"
   inkscape:connector-curvature="0"
   style="fill:#00e5e5;stroke:none" />
         <path
   d="m 8087,12114 h 4826 v 61 H 8087 Z"
   id="path60"
   inkscape:connector-curvature="0"
   style="fill:#00e5e5;stroke:none" />
         <path
   d="m 8087,12132 h 4826 v 61 H 8087 Z"
   id="path62"
   inkscape:connector-curvature="0"
   style="fill:#00e5e5;stroke:none" />
         <path
   d="m 8087,12150 h 4826 v 61 H 8087 Z"
   id="path64"
   inkscape:connector-curvature="0"
   style="fill:#00e5e5;stroke:none" />
         <path
   d="m 8087,12168 h 4826 v 61 H 8087 Z"
   id="path66"
   inkscape:connector-curvature="0"
   style="fill:#00e5e5;stroke:none" />
         <path
   d="m 8087,12186 h 4826 v 61 H 8087 Z"
   id="path68"
   inkscape:connector-curvature="0"
   style="fill:#00e5e5;stroke:none" />
         <path
   d="m 8087,12203 h 4826 v 61 H 8087 Z"
   id="path70"
   inkscape:connector-curvature="0"
   style="fill:#00e5e5;stroke:none" />
         <path
   d="m 8087,12221 h 4826 v 61 H 8087 Z"
   id="path72"
   inkscape:connector-curvature="0"
   style="fill:#00e5e5;stroke:none" />
         <path
   d="m 8087,12239 h 4826 v 61 H 8087 Z"
   id="path74"
   inkscape:connector-curvature="0"
   style="fill:#00e8e8;stroke:none" />
         <path
   d="m 8087,12257 h 4826 v 61 H 8087 Z"
   id="path76"
   inkscape:connector-curvature="0"
   style="fill:#00e8e8;stroke:none" />
         <path
   d="m 8087,12275 h 4826 v 61 H 8087 Z"
   id="path78"
   inkscape:connector-curvature="0"
   style="fill:#00e8e8;stroke:none" />
         <path
   d="m 8087,12292 h 4826 v 61 H 8087 Z"
   id="path80"
   inkscape:connector-curvature="0"
   style="fill:#00e8e8;stroke:none" />
         <path
   d="m 8087,12310 h 4826 v 61 H 8087 Z"
   id="path82"
   inkscape:connector-curvature="0"
   style="fill:#00e8e8;stroke:none" />
         <path
   d="m 8087,12328 h 4826 v 58 H 8087 Z"
   id="path84"
   inkscape:connector-curvature="0"
   style="fill:#00e8e8;stroke:none" />
         <path
   d="m 8087,12346 h 4826 v 58 H 8087 Z"
   id="path86"
   inkscape:connector-curvature="0"
   style="fill:#00e8e8;stroke:none" />
         <path
   d="m 8087,12364 h 4826 v 58 H 8087 Z"
   id="path88"
   inkscape:connector-curvature="0"
   style="fill:#00e8e8;stroke:none" />
         <path
   d="m 8087,12381 h 4826 v 59 H 8087 Z"
   id="path90"
   inkscape:connector-curvature="0"
   style="fill:#00e8e8;stroke:none" />
         <path
   d="m 8087,12399 h 4826 v 59 H 8087 Z"
   id="path92"
   inkscape:connector-curvature="0"
   style="fill:#00e8e8;stroke:none" />
         <path
   d="m 8087,12417 h 4826 v 58 H 8087 Z"
   id="path94"
   inkscape:connector-curvature="0"
   style="fill:#00e8e8;stroke:none" />
         <path
   d="m 8087,12432 h 4826 v 61 H 8087 Z"
   id="path96"
   inkscape:connector-curvature="0"
   style="fill:#02e8e8;stroke:none" />
         <path
   d="m 8087,12450 h 4826 v 61 H 8087 Z"
   id="path98"
   inkscape:connector-curvature="0"
   style="fill:#05e8e8;stroke:none" />
         <path
   d="m 8087,12468 h 4826 v 61 H 8087 Z"
   id="path100"
   inkscape:connector-curvature="0"
   style="fill:#05e8e8;stroke:none" />
         <path
   d="m 8087,12485 h 4826 v 61 H 8087 Z"
   id="path102"
   inkscape:connector-curvature="0"
   style="fill:#07e8e8;stroke:none" />
         <path
   d="m 8087,12503 h 4826 v 61 H 8087 Z"
   id="path104"
   inkscape:connector-curvature="0"
   style="fill:#07e8e8;stroke:none" />
         <path
   d="m 8087,12521 h 4826 v 61 H 8087 Z"
   id="path106"
   inkscape:connector-curvature="0"
   style="fill:#0ae8e8;stroke:none" />
         <path
   d="m 8087,12539 h 4826 v 61 H 8087 Z"
   id="path108"
   inkscape:connector-curvature="0"
   style="fill:#0ae8e8;stroke:none" />
         <path
   d="m 8087,12557 h 4826 v 61 H 8087 Z"
   id="path110"
   inkscape:connector-curvature="0"
   style="fill:#0ce8e8;stroke:none" />
         <path
   d="m 8087,12574 h 4826 v 61 H 8087 Z"
   id="path112"
   inkscape:connector-curvature="0"
   style="fill:#0ce8e8;stroke:none" />
         <path
   d="m 8087,12592 h 4826 v 61 H 8087 Z"
   id="path114"
   inkscape:connector-curvature="0"
   style="fill:#0fe8e8;stroke:none" />
         <path
   d="m 8087,12610 h 4826 v 61 H 8087 Z"
   id="path116"
   inkscape:connector-curvature="0"
   style="fill:#0fe8e8;stroke:none" />
         <path
   d="m 8087,12628 h 4826 v 61 H 8087 Z"
   id="path118"
   inkscape:connector-curvature="0"
   style="fill:#14eaea;stroke:none" />
         <path
   d="m 8087,12646 h 4826 v 58 H 8087 Z"
   id="path120"
   inkscape:connector-curvature="0"
   style="fill:#14eaea;stroke:none" />
         <path
   d="m 8087,12663 h 4826 v 59 H 8087 Z"
   id="path122"
   inkscape:connector-curvature="0"
   style="fill:#16eaea;stroke:none" />
         <path
   d="m 8087,12681 h 4826 v 59 H 8087 Z"
   id="path124"
   inkscape:connector-curvature="0"
   style="fill:#19eaea;stroke:none" />
         <path
   d="m 8087,12699 h 4826 v 58 H 8087 Z"
   id="path126"
   inkscape:connector-curvature="0"
   style="fill:#19eaea;stroke:none" />
         <path
   d="m 8087,12717 h 4826 v 58 H 8087 Z"
   id="path128"
   inkscape:connector-curvature="0"
   style="fill:#19eaea;stroke:none" />
         <path
   d="m 8087,12735 h 4826 v 58 H 8087 Z"
   id="path130"
   inkscape:connector-curvature="0"
   style="fill:#1ceaea;stroke:none" />
         <path
   d="m 8087,12750 h 4826 v 61 H 8087 Z"
   id="path132"
   inkscape:connector-curvature="0"
   style="fill:#1eeaea;stroke:none" />
         <path
   d="m 8087,12768 h 4826 v 61 H 8087 Z"
   id="path134"
   inkscape:connector-curvature="0"
   style="fill:#1eeaea;stroke:none" />
         <path
   d="m 8087,12785 h 4826 v 61 H 8087 Z"
   id="path136"
   inkscape:connector-curvature="0"
   style="fill:#21eaea;stroke:none" />
         <path
   d="m 8087,12803 h 4826 v 61 H 8087 Z"
   id="path138"
   inkscape:connector-curvature="0"
   style="fill:#21eaea;stroke:none" />
         <path
   d="m 8087,12821 h 4826 v 61 H 8087 Z"
   id="path140"
   inkscape:connector-curvature="0"
   style="fill:#23eaea;stroke:none" />
         <path
   d="m 8087,12839 h 4826 v 61 H 8087 Z"
   id="path142"
   inkscape:connector-curvature="0"
   style="fill:#23eaea;stroke:none" />
         <path
   d="m 8087,12856 h 4826 v 61 H 8087 Z"
   id="path144"
   inkscape:connector-curvature="0"
   style="fill:#26eaea;stroke:none" />
         <path
   d="m 8087,12874 h 4826 v 61 H 8087 Z"
   id="path146"
   inkscape:connector-curvature="0"
   style="fill:#26eaea;stroke:none" />
         <path
   d="m 8087,12892 h 4826 v 61 H 8087 Z"
   id="path148"
   inkscape:connector-curvature="0"
   style="fill:#2beded;stroke:none" />
         <path
   d="m 8087,12910 h 4826 v 61 H 8087 Z"
   id="path150"
   inkscape:connector-curvature="0"
   style="fill:#2beded;stroke:none" />
         <path
   d="m 8087,12928 h 4826 v 61 H 8087 Z"
   id="path152"
   inkscape:connector-curvature="0"
   style="fill:#2deded;stroke:none" />
         <path
   d="m 8087,12945 h 4826 v 61 H 8087 Z"
   id="path154"
   inkscape:connector-curvature="0"
   style="fill:#2deded;stroke:none" />
         <path
   d="m 8087,12963 h 4826 v 59 H 8087 Z"
   id="path156"
   inkscape:connector-curvature="0"
   style="fill:#30eded;stroke:none" />
         <path
   d="m 8087,12981 h 4826 v 58 H 8087 Z"
   id="path158"
   inkscape:connector-curvature="0"
   style="fill:#33eded;stroke:none" />
         <path
   d="m 8087,12999 h 4826 v 58 H 8087 Z"
   id="path160"
   inkscape:connector-curvature="0"
   style="fill:#33eded;stroke:none" />
         <path
   d="m 8087,13017 h 4826 v 58 H 8087 Z"
   id="path162"
   inkscape:connector-curvature="0"
   style="fill:#33eded;stroke:none" />
         <path
   d="m 8087,13034 h 4826 v 59 H 8087 Z"
   id="path164"
   inkscape:connector-curvature="0"
   style="fill:#35eded;stroke:none" />
         <path
   d="m 8087,13052 h 4826 v 59 H 8087 Z"
   id="path166"
   inkscape:connector-curvature="0"
   style="fill:#38eded;stroke:none" />
         <path
   d="m 8087,13070 h 4826 v 58 H 8087 Z"
   id="path168"
   inkscape:connector-curvature="0"
   style="fill:#38eded;stroke:none" />
         <path
   d="m 8087,13085 h 4826 v 61 H 8087 Z"
   id="path170"
   inkscape:connector-curvature="0"
   style="fill:#3aeded;stroke:none" />
         <path
   d="m 8087,13103 h 4826 v 61 H 8087 Z"
   id="path172"
   inkscape:connector-curvature="0"
   style="fill:#3aeded;stroke:none" />
         <path
   d="m 8087,13121 h 4826 v 61 H 8087 Z"
   id="path174"
   inkscape:connector-curvature="0"
   style="fill:#3deded;stroke:none" />
         <path
   d="m 8087,13139 h 4826 v 61 H 8087 Z"
   id="path176"
   inkscape:connector-curvature="0"
   style="fill:#3deded;stroke:none" />
         <path
   d="m 8087,13156 h 4826 v 61 H 8087 Z"
   id="path178"
   inkscape:connector-curvature="0"
   style="fill:#3feded;stroke:none" />
         <path
   d="m 8087,13174 h 4826 v 61 H 8087 Z"
   id="path180"
   inkscape:connector-curvature="0"
   style="fill:#3feded;stroke:none" />
         <path
   d="m 8087,13192 h 4826 v 61 H 8087 Z"
   id="path182"
   inkscape:connector-curvature="0"
   style="fill:#42eded;stroke:none" />
         <path
   d="m 8087,13210 h 4826 v 61 H 8087 Z"
   id="path184"
   inkscape:connector-curvature="0"
   style="fill:#42eded;stroke:none" />
         <path
   d="m 8087,13228 h 4826 v 60 H 8087 Z"
   id="path186"
   inkscape:connector-curvature="0"
   style="fill:#44eded;stroke:none" />
         <path
   d="m 8087,13245 h 4826 v 61 H 8087 Z"
   id="path188"
   inkscape:connector-curvature="0"
   style="fill:#47eded;stroke:none" />
         <path
   d="m 8087,13263 h 4826 v 61 H 8087 Z"
   id="path190"
   inkscape:connector-curvature="0"
   style="fill:#47eded;stroke:none" />
         <path
   d="m 8087,13281 h 4826 v 61 H 8087 Z"
   id="path192"
   inkscape:connector-curvature="0"
   style="fill:#49efef;stroke:none" />
         <path
   d="m 8087,13299 h 4826 v 58 H 8087 Z"
   id="path194"
   inkscape:connector-curvature="0"
   style="fill:#4cefef;stroke:none" />
         <path
   d="m 8087,13316 h 4826 v 59 H 8087 Z"
   id="path196"
   inkscape:connector-curvature="0"
   style="fill:#4cefef;stroke:none" />
         <path
   d="m 8087,13334 h 4826 v 59 H 8087 Z"
   id="path198"
   inkscape:connector-curvature="0"
   style="fill:#4fefef;stroke:none" />
         <path
   d="m 8087,13352 h 4826 v 58 H 8087 Z"
   id="path200"
   inkscape:connector-curvature="0"
   style="fill:#51efef;stroke:none" />
         <path
   d="m 8087,13370 h 4826 v 58 H 8087 Z"
   id="path202"
   inkscape:connector-curvature="0"
   style="fill:#51efef;stroke:none" />
         <path
   d="m 8087,13388 h 4826 v 58 H 8087 Z"
   id="path204"
   inkscape:connector-curvature="0"
   style="fill:#54efef;stroke:none" />
         <path
   d="m 8087,13403 h 4826 v 61 H 8087 Z"
   id="path206"
   inkscape:connector-curvature="0"
   style="fill:#54efef;stroke:none" />
         <path
   d="m 8087,13421 h 4826 v 61 H 8087 Z"
   id="path208"
   inkscape:connector-curvature="0"
   style="fill:#56efef;stroke:none" />
         <path
   d="m 8087,13438 h 4826 v 61 H 8087 Z"
   id="path210"
   inkscape:connector-curvature="0"
   style="fill:#56efef;stroke:none" />
         <path
   d="m 8087,13456 h 4826 v 61 H 8087 Z"
   id="path212"
   inkscape:connector-curvature="0"
   style="fill:#59efef;stroke:none" />
         <path
   d="m 8087,13474 h 4826 v 61 H 8087 Z"
   id="path214"
   inkscape:connector-curvature="0"
   style="fill:#59efef;stroke:none" />
         <path
   d="m 8087,13492 h 4826 v 61 H 8087 Z"
   id="path216"
   inkscape:connector-curvature="0"
   style="fill:#5befef;stroke:none" />
         <path
   d="m 8087,13510 h 4826 v 61 H 8087 Z"
   id="path218"
   inkscape:connector-curvature="0"
   style="fill:#5befef;stroke:none" />
         <path
   d="m 8087,13527 h 4826 v 61 H 8087 Z"
   id="path220"
   inkscape:connector-curvature="0"
   style="fill:#5eefef;stroke:none" />
         <path
   d="m 8087,13545 h 4826 v 61 H 8087 Z"
   id="path222"
   inkscape:connector-curvature="0"
   style="fill:#63f2f2;stroke:none" />
         <path
   d="m 8087,13563 h 4826 v 61 H 8087 Z"
   id="path224"
   inkscape:connector-curvature="0"
   style="fill:#63f2f2;stroke:none" />
         <path
   d="m 8087,13581 h 4826 v 61 H 8087 Z"
   id="path226"
   inkscape:connector-curvature="0"
   style="fill:#63f2f2;stroke:none" />
         <path
   d="m 8087,13599 h 4826 v 60 H 8087 Z"
   id="path228"
   inkscape:connector-curvature="0"
   style="fill:#66f2f2;stroke:none" />
         <path
   d="m 8087,13616 h 4826 v 59 H 8087 Z"
   id="path230"
   inkscape:connector-curvature="0"
   style="fill:#66f2f2;stroke:none" />
         <path
   d="m 8087,13634 h 4826 v 59 H 8087 Z"
   id="path232"
   inkscape:connector-curvature="0"
   style="fill:#68f2f2;stroke:none" />
         <path
   d="m 8087,13652 h 4826 v 58 H 8087 Z"
   id="path234"
   inkscape:connector-curvature="0"
   style="fill:#6bf2f2;stroke:none" />
         <path
   d="m 8087,13670 h 4826 v 58 H 8087 Z"
   id="path236"
   inkscape:connector-curvature="0"
   style="fill:#6bf2f2;stroke:none" />
         <path
   d="m 8087,13687 h 4826 v 59 H 8087 Z"
   id="path238"
   inkscape:connector-curvature="0"
   style="fill:#6df2f2;stroke:none" />
         <path
   d="m 8087,13705 h 4826 v 59 H 8087 Z"
   id="path240"
   inkscape:connector-curvature="0"
   style="fill:#6df2f2;stroke:none" />
         <path
   d="m 8087,13720 h 4826 v 61 H 8087 Z"
   id="path242"
   inkscape:connector-curvature="0"
   style="fill:#70f2f2;stroke:none" />
         <path
   d="m 8087,13738 h 4826 v 61 H 8087 Z"
   id="path244"
   inkscape:connector-curvature="0"
   style="fill:#70f2f2;stroke:none" />
         <path
   d="m 8087,13756 h 4826 v 61 H 8087 Z"
   id="path246"
   inkscape:connector-curvature="0"
   style="fill:#72f2f2;stroke:none" />
         <path
   d="m 8087,13774 h 4826 v 61 H 8087 Z"
   id="path248"
   inkscape:connector-curvature="0"
   style="fill:#72f2f2;stroke:none" />
         <path
   d="m 8087,13792 h 4826 v 61 H 8087 Z"
   id="path250"
   inkscape:connector-curvature="0"
   style="fill:#75f2f2;stroke:none" />
         <path
   d="m 8087,13809 h 4826 v 61 H 8087 Z"
   id="path252"
   inkscape:connector-curvature="0"
   style="fill:#75f2f2;stroke:none" />
         <path
   d="m 8087,13827 h 4826 v 61 H 8087 Z"
   id="path254"
   inkscape:connector-curvature="0"
   style="fill:#77f2f2;stroke:none" />
         <path
   d="m 8087,13845 h 4826 v 61 H 8087 Z"
   id="path256"
   inkscape:connector-curvature="0"
   style="fill:#7af2f2;stroke:none" />
         <path
   d="m 8087,13863 h 4826 v 61 H 8087 Z"
   id="path258"
   inkscape:connector-curvature="0"
   style="fill:#7af2f2;stroke:none" />
         <path
   d="m 8087,13881 h 4826 v 61 H 8087 Z"
   id="path260"
   inkscape:connector-curvature="0"
   style="fill:#7af2f2;stroke:none" />
         <path
   d="m 8087,13898 h 4826 v 61 H 8087 Z"
   id="path262"
   inkscape:connector-curvature="0"
   style="fill:#7cf2f2;stroke:none" />
         <path
   d="m 8087,13916 h 4826 v 61 H 8087 Z"
   id="path264"
   inkscape:connector-curvature="0"
   style="fill:#7ff2f2;stroke:none" />
         <path
   d="m 8087,13934 h 4826 v 58 H 8087 Z"
   id="path266"
   inkscape:connector-curvature="0"
   style="fill:#82f4f4;stroke:none" />
         <path
   d="m 8087,13952 h 4826 v 58 H 8087 Z"
   id="path268"
   inkscape:connector-curvature="0"
   style="fill:#84f4f4;stroke:none" />
         <path
   d="m 8087,13970 h 4826 v 58 H 8087 Z"
   id="path270"
   inkscape:connector-curvature="0"
   style="fill:#84f4f4;stroke:none" />
         <path
   d="m 8087,13987 h 4826 v 59 H 8087 Z"
   id="path272"
   inkscape:connector-curvature="0"
   style="fill:#87f4f4;stroke:none" />
         <path
   d="m 8087,14005 h 4826 v 59 H 8087 Z"
   id="path274"
   inkscape:connector-curvature="0"
   style="fill:#87f4f4;stroke:none" />
         <path
   d="m 8087,14023 h 4826 v 58 H 8087 Z"
   id="path276"
   inkscape:connector-curvature="0"
   style="fill:#89f4f4;stroke:none" />
         <path
   d="m 8087,14041 h 4826 v 58 H 8087 Z"
   id="path278"
   inkscape:connector-curvature="0"
   style="fill:#89f4f4;stroke:none" />
         <path
   d="m 8087,14056 h 4826 v 61 H 8087 Z"
   id="path280"
   inkscape:connector-curvature="0"
   style="fill:#8cf4f4;stroke:none" />
         <path
   d="m 8087,14074 h 4826 v 61 H 8087 Z"
   id="path282"
   inkscape:connector-curvature="0"
   style="fill:#8cf4f4;stroke:none" />
         <path
   d="m 8087,14091 h 4826 v 61 H 8087 Z"
   id="path284"
   inkscape:connector-curvature="0"
   style="fill:#8ef4f4;stroke:none" />
         <path
   d="m 8087,14109 h 4826 v 61 H 8087 Z"
   id="path286"
   inkscape:connector-curvature="0"
   style="fill:#8ef4f4;stroke:none" />
         <path
   d="m 8087,14127 h 4826 v 61 H 8087 Z"
   id="path288"
   inkscape:connector-curvature="0"
   style="fill:#91f4f4;stroke:none" />
         <path
   d="m 8087,14145 h 4826 v 61 H 8087 Z"
   id="path290"
   inkscape:connector-curvature="0"
   style="fill:#93f4f4;stroke:none" />
         <path
   d="m 8087,14163 h 4826 v 61 H 8087 Z"
   id="path292"
   inkscape:connector-curvature="0"
   style="fill:#93f4f4;stroke:none" />
         <path
   d="m 8087,14180 h 4826 v 61 H 8087 Z"
   id="path294"
   inkscape:connector-curvature="0"
   style="fill:#93f4f4;stroke:none" />
         <path
   d="m 8087,14198 h 4826 v 61 H 8087 Z"
   id="path296"
   inkscape:connector-curvature="0"
   style="fill:#96f4f4;stroke:none" />
         <path
   d="m 8087,14216 h 4826 v 61 H 8087 Z"
   id="path298"
   inkscape:connector-curvature="0"
   style="fill:#99f4f4;stroke:none" />
         <path
   d="m 8087,14234 h 4826 v 61 H 8087 Z"
   id="path300"
   inkscape:connector-curvature="0"
   style="fill:#99f4f4;stroke:none" />
         <path
   d="m 8087,14252 h 4826 v 61 H 8087 Z"
   id="path302"
   inkscape:connector-curvature="0"
   style="fill:#9bf4f4;stroke:none" />
         <path
   d="m 8087,14269 h 4826 v 59 H 8087 Z"
   id="path304"
   inkscape:connector-curvature="0"
   style="fill:#9bf4f4;stroke:none" />
         <path
   d="m 8087,14287 h 4826 v 59 H 8087 Z"
   id="path306"
   inkscape:connector-curvature="0"
   style="fill:#9ef4f4;stroke:none" />
         <path
   d="m 8087,14305 h 4826 v 58 H 8087 Z"
   id="path308"
   inkscape:connector-curvature="0"
   style="fill:#9ef4f4;stroke:none" />
         <path
   d="m 8087,14323 h 4826 v 58 H 8087 Z"
   id="path310"
   inkscape:connector-curvature="0"
   style="fill:#a3f7f7;stroke:none" />
         <path
   d="m 8087,14341 h 4826 v 58 H 8087 Z"
   id="path312"
   inkscape:connector-curvature="0"
   style="fill:#a3f7f7;stroke:none" />
         <path
   d="m 8087,14358 h 4826 v 59 H 8087 Z"
   id="path314"
   inkscape:connector-curvature="0"
   style="fill:#a5f7f7;stroke:none" />
         <path
   d="m 8087,14374 h 4826 v 61 H 8087 Z"
   id="path316"
   inkscape:connector-curvature="0"
   style="fill:#a5f7f7;stroke:none" />
         <path
   d="m 8087,14391 h 4826 v 61 H 8087 Z"
   id="path318"
   inkscape:connector-curvature="0"
   style="fill:#a8f7f7;stroke:none" />
         <path
   d="m 8087,14409 h 4826 v 61 H 8087 Z"
   id="path320"
   inkscape:connector-curvature="0"
   style="fill:#a8f7f7;stroke:none" />
         <path
   d="m 8087,14427 h 4826 v 61 H 8087 Z"
   id="path322"
   inkscape:connector-curvature="0"
   style="fill:#aaf7f7;stroke:none" />
         <path
   d="m 8087,14445 h 4826 v 61 H 8087 Z"
   id="path324"
   inkscape:connector-curvature="0"
   style="fill:#adf7f7;stroke:none" />
         <path
   d="m 8087,14462 h 4826 v 61 H 8087 Z"
   id="path326"
   inkscape:connector-curvature="0"
   style="fill:#adf7f7;stroke:none" />
         <path
   d="m 8087,14480 h 4826 v 61 H 8087 Z"
   id="path328"
   inkscape:connector-curvature="0"
   style="fill:#adf7f7;stroke:none" />
         <path
   d="m 8087,14498 h 4826 v 61 H 8087 Z"
   id="path330"
   inkscape:connector-curvature="0"
   style="fill:#aff7f7;stroke:none" />
         <path
   d="m 8087,14516 h 4826 v 61 H 8087 Z"
   id="path332"
   inkscape:connector-curvature="0"
   style="fill:#b2f7f7;stroke:none" />
         <path
   d="m 8087,14534 h 4826 v 61 H 8087 Z"
   id="path334"
   inkscape:connector-curvature="0"
   style="fill:#b2f7f7;stroke:none" />
         <path
   d="m 8087,14551 h 4826 v 61 H 8087 Z"
   id="path336"
   inkscape:connector-curvature="0"
   style="fill:#b5f7f7;stroke:none" />
         <path
   d="m 8087,14569 h 4826 v 61 H 8087 Z"
   id="path338"
   inkscape:connector-curvature="0"
   style="fill:#b5f7f7;stroke:none" />
         <path
   d="m 8087,14587 h 4826 v 58 H 8087 Z"
   id="path340"
   inkscape:connector-curvature="0"
   style="fill:#baf9f9;stroke:none" />
         <path
   d="m 8087,14605 h 4826 v 58 H 8087 Z"
   id="path342"
   inkscape:connector-curvature="0"
   style="fill:#baf9f9;stroke:none" />
         <path
   d="m 8087,14623 h 4826 v 58 H 8087 Z"
   id="path344"
   inkscape:connector-curvature="0"
   style="fill:#bcf9f9;stroke:none" />
         <path
   d="m 8087,14640 h 4826 v 59 H 8087 Z"
   id="path346"
   inkscape:connector-curvature="0"
   style="fill:#bcf9f9;stroke:none" />
         <path
   d="m 8087,14658 h 4826 v 59 H 8087 Z"
   id="path348"
   inkscape:connector-curvature="0"
   style="fill:#bff9f9;stroke:none" />
         <path
   d="m 8087,14676 h 4826 v 58 H 8087 Z"
   id="path350"
   inkscape:connector-curvature="0"
   style="fill:#bff9f9;stroke:none" />
         <path
   d="m 8087,14691 h 4826 v 61 H 8087 Z"
   id="path352"
   inkscape:connector-curvature="0"
   style="fill:#c1f9f9;stroke:none" />
         <path
   d="m 8087,14709 h 4826 v 61 H 8087 Z"
   id="path354"
   inkscape:connector-curvature="0"
   style="fill:#c1f9f9;stroke:none" />
         <path
   d="m 8087,14727 h 4826 v 61 H 8087 Z"
   id="path356"
   inkscape:connector-curvature="0"
   style="fill:#c4f9f9;stroke:none" />
         <path
   d="m 8087,14745 h 4826 v 61 H 8087 Z"
   id="path358"
   inkscape:connector-curvature="0"
   style="fill:#c6f9f9;stroke:none" />
         <path
   d="m 12913,14823 v -61 H 8087 v 61 z"
   id="path360"
   inkscape:connector-curvature="0"
   style="fill:#c6f9f9;stroke:none" />
         <path
   d="M 12913,17987 V 14823 H 8087 v 3164 z"
   id="path362"
   inkscape:connector-curvature="0"
   style="fill:#c6f9f9;stroke:none" />
         <path
   d="m 12913,17987 v -2213 l -56,7 -56,3 -56,-3 -53,-5 -53,-7 -51,-11 -51,-12 -48,-13 -46,-13 -46,-15 -41,-13 -40,-12 -36,-10 -33,-8 -30,-5 -26,-3 -51,3 -50,5 -51,8 -49,7 -43,8 -35,7 -26,5 -12,3 -26,-3 -25,-5 -31,-10 -30,-12 -33,-16 -33,-15 -36,-18 -33,-20 -35,-18 -34,-18 -30,-17 -31,-18 -30,-13 -25,-13 -23,-10 -21,-5 -15,-2 -20,-3 -28,-3 -28,-2 -33,-5 -33,-10 -33,-10 -33,-13 -31,-13 -30,-10 -31,-5 -28,-3 h -28 l -28,3 -30,7 -28,8 -33,10 -41,13 -46,13 -48,12 -43,11 -43,10 -33,7 -26,5 -23,3 -27,3 h -34 -33 l -35,-3 -33,-3 -31,-5 -23,-7 -17,-8 -18,-2 h -15 -13 l -15,5 -13,5 -13,5 -12,7 -28,13 -31,15 -33,13 -36,15 -38,16 -38,15 -38,15 -41,13 -38,15 -38,10 -38,13 -35,10 -34,8 -30,5 -28,2 -23,3 -38,-3 -33,-10 -28,-13 -23,-15 -20,-13 -20,-12 -18,-10 -21,-3 -30,5 -43,15 -56,23 -61,26 -59,28 -53,25 -43,20 -26,13 h -12 l -16,-5 -15,-10 -18,-15 -17,-13 -18,-13 -18,-5 -18,3 -20,12 -28,23 -33,31 -41,33 -46,30 -55,28 -64,18 -71,8 h -53 -51 l -44,-3 -40,-2 -38,-3 -33,-3 -28,-5 -28,-5 -23,-7 -20,-5 -18,-11 -15,-7 -13,-10 -13,-13 -10,-13 -8,-13 -17,-25 -18,-20 -18,-18 -20,-13 -18,-7 -18,-3 -18,3 -15,7 v 2272 z"
   id="path364"
   inkscape:connector-curvature="0"
   style="fill:#5bc15b;stroke:none" />
         <path
   d="m 11678,16470 10,2 h 15 13 5 v -25 -28 -25 -10 l 87,-39 2,-15 41,-30 -130,61 -8,-8 8,-30 -5,-41 41,-18 56,3 45,-26 -45,-2 12,-21 -71,31 -38,-3 -5,-38 13,-12 -8,-16 v -73 l 10,-56 23,-8 33,-28 -56,15 -7,-10 -6,-40 h 46 l -38,-18 -5,-97 56,-48 -3,-13 -48,38 -5,-86 -18,-31 v -35 l -18,2 6,38 10,41 -5,84 -31,5 23,13 -69,28 74,10 -2,51 -18,20 18,5 v 89 l -11,15 8,13 3,69 -23,-16 -11,16 31,48 v 20 l -109,-20 101,56 3,71 -48,-10 53,51 z"
   id="path366"
   inkscape:connector-curvature="0"
   style="fill:#260000;stroke:none" />
         <path
   d="m 12608,16206 36,5 v -79 l 76,-48 -5,-10 81,-36 -8,-10 -7,2 -18,3 -20,2 -13,3 3,-3 5,-7 5,-8 7,-5 -10,-8 -10,3 -20,8 -23,7 -10,8 2,5 v 8 l 3,5 v 2 l -41,36 v -18 -38 -38 -18 l -2,-3 h -6 l -5,-5 -5,-10 v -18 -22 -18 -8 l 10,-10 21,-20 23,-26 12,-15 13,-18 18,-33 18,-28 12,-13 11,-2 10,-5 12,-5 8,-8 8,-7 15,-16 18,-17 23,-23 20,-21 18,-15 12,-13 5,-5 -139,110 -26,7 -96,122 -18,5 v -107 l 2,-2 11,-5 7,-8 8,-7 7,-11 16,-15 12,-15 8,-5 -2,-18 25,-33 -31,13 -30,-41 -8,10 23,51 -51,61 v -127 -48 l 3,-107 v -107 l -3,-53 18,-13 15,-12 11,-16 5,-10 5,-10 10,-10 10,-8 5,-2 -13,-28 -25,25 -20,-15 v 43 l -21,20 v -43 l 3,-41 2,-30 3,-15 -3,-23 -2,-46 v -48 l 2,-31 3,-38 -5,-63 -5,-64 -3,-38 v -41 -66 l -2,-63 v -28 l -13,-10 -3,33 -2,73 -3,79 3,43 5,28 v 46 43 l -3,26 -2,15 -3,23 -2,20 2,13 3,30 2,59 v 61 l -2,35 -15,-7 -13,-16 -10,-12 -3,-5 -15,23 -63,-28 -11,22 44,34 -44,12 56,5 v 13 l 38,-5 36,38 v 43 l 2,99 v 110 l 3,71 v 35 l -3,36 -2,23 v 10 l -13,-58 -30,15 -41,-94 -79,-59 8,28 51,46 38,79 -66,-28 v 20 l 66,36 68,73 v 127 l -76,-15 10,38 h -5 -10 l -15,-2 h -15 -18 -18 l -10,2 -8,3 -10,8 -18,7 -17,3 h -18 l -10,-3 h -18 l -21,-2 -20,-3 h -20 l -18,-2 h -10 -5 l 5,12 h 5 l 13,5 20,5 20,5 23,6 21,7 15,5 10,5 13,3 12,-5 11,-5 5,-3 43,-33 h 2 8 10 l 13,3 h 13 12 l 10,2 h 8 l 13,5 15,10 13,8 5,5 2,38 3,87 5,94 z"
   id="path368"
   inkscape:connector-curvature="0"
   style="fill:#260000;stroke:none" />
         <path
   d="m 12181,16239 8,-112 -3,-41 v -353 l 15,-8 135,36 94,-15 h -89 l -112,-33 v -26 l 33,-33 -68,36 5,-66 -13,-38 43,-36 188,-15 -58,-18 -58,18 -74,-61 -13,7 28,36 -35,23 -3,-53 46,-21 89,13 109,-10 -76,-10 20,-49 -10,-5 -41,51 -73,-8 7,-12 15,-28 18,-36 10,-30 -12,-3 -54,94 -51,28 3,-13 3,-33 2,-35 v -31 l -2,-30 v -41 -33 -15 l 2,-3 10,-5 15,-7 16,-11 18,-7 17,-8 16,-5 10,-2 h 12 l 13,-3 h 18 l 15,-2 18,-3 13,-3 10,-2 7,-3 11,-5 17,-10 28,-13 28,-12 31,-13 28,-10 20,-10 13,-3 h -3 -5 -10 l -15,3 -23,7 -33,10 -41,16 -53,23 -71,7 -56,15 2,-15 10,-35 21,-36 28,-13 -5,-2 -16,-5 -17,5 -18,25 -15,36 -8,25 -5,15 v 6 l -51,25 v -216 l 3,-10 5,-10 10,-11 10,-2 h 10 15 l 18,-3 23,-2 23,-5 23,-5 20,-8 18,-10 -165,5 12,-285 77,-23 h -74 v -91 -201 -203 l 5,-97 8,-12 12,-18 8,-13 5,-7 -23,2 -2,-10 -3,-25 v -26 l 8,-13 18,-5 20,-5 15,-7 8,-3 -64,3 -5,-94 -10,-214 -18,-226 -20,-135 -8,13 18,104 -28,-5 26,28 5,127 -39,-76 41,124 13,211 -31,-12 26,43 5,211 -41,-13 33,56 -2,178 -49,-31 46,77 -2,152 -44,-10 33,41 -2,96 -102,-41 102,61 -5,79 -51,-35 v 17 l 48,51 -10,31 15,33 -12,20 -3,181 -84,-54 -56,23 -5,-3 -10,-7 -13,-10 -17,-13 -18,-10 -15,-10 -13,-8 -5,-3 -8,3 -5,5 3,8 15,12 -36,11 -2,15 66,-3 68,61 21,5 35,-40 74,56 -18,233 -40,-78 v -5 l -6,-16 -7,-12 -15,-5 -87,-105 76,130 -33,-5 -2,-3 -10,-7 -10,-10 -16,-11 -18,-10 -15,-7 -12,-3 -13,5 10,3 20,10 26,15 18,18 17,15 21,8 20,2 h 8 l 28,43 h -3 l -10,3 -13,3 h -15 l -15,2 -13,3 -13,2 h -7 l -16,5 -23,10 -20,13 -7,5 101,-23 64,10 30,41 -15,356 -175,-145 28,-58 5,-143 -11,10 -12,72 -64,-28 56,63 -23,69 -99,-26 h -124 l 10,13 208,46 74,94 41,20 78,82 -7,355 -23,33 -89,-45 -84,-41 -28,-81 -10,7 10,74 -257,-99 -30,15 -66,-51 71,74 285,79 216,142 -8,150 z"
   id="path370"
   inkscape:connector-curvature="0"
   style="fill:#260000;stroke:none" />
         <path
   d="m 10339,15080 15,3 23,-11 18,-12 7,-8 8,3 18,2 h 17 l 13,-2 10,-13 13,-23 13,-20 15,-5 15,-6 15,-15 13,-15 5,-8 3,5 v 13 13 l -8,7 -8,8 -5,13 -5,13 v 5 h 33 l -2,5 -8,10 -7,15 -6,18 -5,15 -2,13 -3,7 v 3 l -23,-13 -2,18 -8,23 -10,18 -5,7 -25,-28 v 3 l -3,8 -10,10 -18,10 -15,13 -3,20 v 18 l 3,7 7,18 -2,8 -3,18 v 17 l 11,11 -16,15 -17,12 -13,8 -8,-8 -2,-2 -3,-3 -8,3 -12,10 -15,15 -13,13 -13,5 -5,-5 -5,-10 -8,-8 -10,-5 h -2 v 5 l -3,10 -2,11 -8,2 -13,-5 -18,-5 -15,-3 -5,-2 v 2 l -2,8 -6,5 h -5 l -10,-13 -15,-17 -13,-18 -5,-8 -2,3 -8,5 -8,5 -7,-3 -8,-7 -5,-10 -5,-11 -3,-2 3,-8 v -7 l -3,-8 v -3 h -17 l -16,-7 -10,-8 -5,-5 5,-18 8,-23 10,-17 3,-8 -6,3 -15,7 -18,10 -15,11 -15,2 -15,-10 -13,-15 -8,-18 v -13 l 8,-7 5,2 8,8 10,7 h 18 l 20,-7 20,-16 10,-7 11,-3 h 12 16 l 15,3 15,2 18,3 h 18 l -5,-20 -11,-21 -17,-15 -13,-8 -13,-2 -7,-3 -8,-5 3,-2 7,-8 10,-13 10,-10 11,-7 h 7 l 10,5 8,5 8,-3 2,-7 v -13 l -2,-10 -3,-5 h -2 -11 l -10,2 h -10 l -15,-5 -18,-15 -23,-15 -18,-16 -7,-10 2,-10 10,-5 16,3 -10,-16 -21,-25 -18,-26 -10,-17 5,-5 18,2 20,5 18,3 16,-3 15,-7 12,-3 3,5 v 15 l 3,18 5,15 5,13 h 5 l 7,-8 8,-10 10,-2 8,5 7,10 6,10 h 7 l 8,3 5,5 v 10 l -5,8 -5,10 2,10 5,8 h 8 10 l 5,5 5,10 v 15 l 3,23 7,28 8,25 8,13 7,3 11,5 5,5 -3,7 v 5 h 13 l 12,-10 z"
   id="path372"
   inkscape:connector-curvature="0"
   style="fill:#009300;stroke:none" />
         <path
   d="m 10112,15291 3,2 5,11 5,10 8,7 7,3 8,-5 8,-5 2,-3 5,8 13,18 15,17 10,13 h 5 l 6,-5 2,-8 v -2 l 5,2 15,3 18,5 13,5 8,-2 2,-11 3,-10 v -5 h 2 l 10,5 8,8 5,10 5,5 13,-5 13,-13 15,-15 12,-10 8,-3 3,3 2,2 8,8 13,-8 17,-12 16,-15 15,-8 20,-3 h 26 25 l 23,3 h 23 l 18,2 h 10 l 12,-5 11,-5 5,-7 2,-3 v 5 l 3,13 -5,15 -13,5 -18,10 -18,23 -15,23 -10,13 h -10 l -13,-8 -10,-7 -3,-3 -2,5 -10,10 -16,16 -17,15 -13,20 v 26 l 5,20 3,10 2,-3 5,-7 5,-10 10,-10 5,10 11,10 10,7 15,6 13,5 15,5 10,2 8,3 15,-3 18,-7 15,-11 5,-5 v 3 l -2,10 -5,10 -8,13 -8,10 v 8 l 5,7 16,8 -8,8 -8,5 -10,5 -10,2 h -13 -10 -10 l -8,-5 -12,-5 h -10 l -6,8 -2,7 -8,8 -10,8 -18,5 -23,5 6,7 10,11 12,12 18,10 18,11 20,7 16,5 h 15 l -8,11 -13,12 -12,15 -15,16 -13,12 -8,11 -5,5 v 0 l 15,-5 h 18 l 13,2 v 5 l -10,8 -10,10 v 10 h 10 12 l 5,5 -5,8 -10,5 -15,8 -15,20 -18,23 -20,23 -8,-18 -10,-18 -10,-15 -11,-15 -12,-16 -13,-12 -13,-13 -15,-10 -10,-5 -15,-11 -18,-10 -20,-12 -23,-11 -23,-10 -23,-10 -20,-7 -13,-6 -18,-10 -23,-12 -28,-13 -28,-15 -30,-13 -33,-13 -31,-7 3,-3 2,-5 3,-10 v -10 l 5,-11 13,-10 15,-2 h 15 l 8,-3 v -10 -8 l 5,-2 10,2 h 10 10 3 l -3,-20 16,-10 -13,-8 -13,-10 -12,-13 -13,-12 -8,-13 -7,-8 -3,-7 3,-3 7,-2 5,-10 5,-8 v -3 l -30,-35 -8,-26 3,-12 7,5 13,12 18,3 15,-3 h 8 l -5,-15 v -10 l 5,-5 z"
   id="path374"
   inkscape:connector-curvature="0"
   style="fill:#009300;stroke:none" />
         <path
   d="m 10232,14750 v 15 l -10,5 -10,-3 -8,-7 -13,28 26,28 2,12 3,31 2,33 -5,15 8,3 5,5 v 10 l -5,8 -5,10 2,10 5,8 h 8 10 l 5,5 5,10 v 15 l 3,23 7,28 8,25 8,13 7,3 11,5 5,5 -3,7 v 5 h 13 l 12,-10 11,-15 -11,-15 -7,-21 -3,-20 10,-13 16,-12 17,-18 11,-15 5,-5 h -3 l -10,2 -10,-2 -10,-8 -3,-13 5,-12 8,-13 7,-5 3,-5 3,-13 5,-13 17,-12 18,-11 -2,-7 -13,-3 -18,5 -10,8 -10,10 -15,10 -13,10 -15,11 -10,10 -11,5 -5,2 -7,-2 -5,-10 -6,-13 v -15 l 11,-23 15,-28 13,-23 7,-10 -18,-10 -22,-13 43,-36 -18,-10 -10,18 -21,-13 -2,-17 -5,-44 -5,-40 -10,-18 -5,20 -6,46 -2,48 z"
   id="path376"
   inkscape:connector-curvature="0"
   style="fill:#009300;stroke:none" />
         <path
   d="m 9856,14577 -3,10 3,8 7,5 13,2 h 13 13 10 l 10,-2 15,-8 15,-10 11,-5 2,5 3,8 15,2 20,-5 20,-18 18,-18 21,-7 10,2 -5,5 -13,13 -5,18 -5,20 v 15 l -3,18 -7,28 -16,23 -25,15 -20,5 -5,11 -3,7 -15,3 -21,5 -12,15 -8,20 -5,18 3,13 12,8 h 18 l 15,-3 11,-3 h 7 l 5,3 v 5 l -7,10 -13,10 -13,13 -7,10 -6,8 -7,5 -13,5 h -20 l -13,3 v 15 l 3,15 v 10 l -5,8 2,10 5,10 h 8 v 13 l -5,10 -5,3 -11,-8 -7,-8 h -8 l -7,5 -5,8 -13,10 -21,10 -17,11 -13,10 -5,5 -3,5 -2,5 -3,3 -35,-26 -41,-28 -46,-33 -43,-35 -46,-31 -43,-28 -41,-23 -35,-12 -13,-11 -18,-20 -20,-28 -20,-33 -21,-30 -17,-28 -16,-21 -10,-7 -12,-3 -13,-5 -13,-8 -15,-7 v -21 l 7,-12 13,-5 18,-3 -3,-5 -5,-5 -7,-5 -5,-8 v -7 l 7,-5 10,-3 11,-5 10,-3 10,3 5,-3 3,-5 -3,-7 -5,-10 -10,-11 -13,-10 3,-13 5,-7 10,2 18,16 10,10 13,7 10,6 10,2 h 10 l 10,-2 h 10 l 10,-3 8,-3 5,3 5,8 3,10 2,28 8,40 8,38 10,16 10,2 5,10 5,13 3,15 h 10 l 10,3 15,8 13,5 13,7 15,10 10,11 10,7 13,13 13,5 10,-3 7,-5 11,-5 10,-2 12,-3 11,3 h 10 l 10,-5 8,-10 7,-13 8,-21 10,-22 13,-18 15,-8 h 13 l 12,-5 8,-5 5,-8 3,-10 7,-10 8,-10 15,-3 h 15 l 11,-2 h 7 z"
   id="path378"
   inkscape:connector-curvature="0"
   style="fill:#007500;stroke:none" />
         <path
   d="m 9764,15022 3,-3 2,-5 3,-5 5,-5 13,-10 17,-11 21,-10 13,-10 5,-8 7,-5 h 8 l 7,8 11,8 5,-3 5,-10 v -13 l 7,-5 11,-7 15,-13 15,-13 15,-15 16,-13 10,-10 7,-5 5,-3 3,11 -3,12 v 5 l 3,-2 10,-8 10,-10 16,-13 15,-12 13,-13 10,-10 7,-8 10,-13 11,-12 7,-8 h 5 l -5,18 -15,25 -15,26 -8,10 23,-21 v 3 l -3,10 -5,21 -7,25 7,-8 8,-5 5,3 v 12 l -8,16 -12,15 -21,10 -28,8 -2,20 -10,15 -13,10 -15,3 -3,8 -7,5 -10,7 h -16 l -12,3 -13,13 -10,17 -10,16 -6,12 3,8 10,8 h 13 l 10,-3 8,-5 5,-3 5,3 -3,10 -5,10 -10,13 -13,10 -2,10 7,13 13,10 18,5 10,-2 15,-5 18,-11 18,-10 18,-12 17,-11 11,-7 7,-5 5,2 v 16 15 l 3,5 7,-8 16,-15 15,-20 8,-16 7,-7 h 8 l 5,5 5,5 3,23 -3,10 h 10 l 36,-3 10,3 5,8 3,7 -3,3 h -10 l -10,2 -10,5 h -6 l 3,3 5,8 v 10 l -10,2 h -10 l -16,3 -17,5 -18,2 -20,6 -16,5 -12,5 -8,2 -13,8 -15,13 -15,10 -13,10 -8,13 6,15 10,7 15,-7 18,-15 15,-8 h 8 l -5,8 -8,12 v 13 l 5,13 5,5 10,-3 13,-10 13,-8 5,-2 v 10 h 18 l 12,3 8,5 2,2 h -2 l -8,3 -7,5 -11,13 -12,12 -18,10 -18,6 h -15 l -8,7 -2,15 v 18 l 5,15 18,18 15,5 15,-5 13,-12 10,-16 10,-15 8,-15 2,-8 8,-7 10,-6 h 5 l -2,8 -3,10 5,8 8,2 2,3 3,-3 10,-2 8,-5 10,-5 7,-3 13,3 13,7 13,3 7,2 -5,5 -13,8 -15,5 8,5 2,5 v 3 l -7,5 v 3 l 10,15 8,12 -3,6 h -8 -10 l -10,2 -10,3 -13,2 -10,3 h -10 l -5,-3 -31,-2 -18,15 -7,23 -3,10 h -5 l -7,-3 h -8 -5 l -8,-2 -10,-8 -8,-12 -12,-13 -13,-15 -18,-18 -20,-13 -28,-13 -8,-15 -7,-30 -8,-44 -8,-40 -7,-10 -15,-11 -16,-10 -15,-5 -28,-33 -15,-58 -10,-56 -21,-31 -7,-5 -10,-5 -11,-2 z"
   id="path380"
   inkscape:connector-curvature="0"
   style="fill:#007500;stroke:none" />
         <path
   d="m 9711,14252 18,-8 15,-10 15,-13 18,-5 h 13 l 17,-3 18,-5 18,-5 18,-2 15,-5 10,-3 h 3 l -3,5 -7,8 -13,13 -18,10 -7,7 7,8 13,8 7,2 -5,3 -10,2 -15,5 -15,5 -8,3 -10,8 -10,7 -13,8 -10,10 -10,10 -10,8 -11,7 -10,11 3,7 10,8 13,-3 h 12 l 16,3 15,-3 18,-10 23,-18 22,-18 18,-15 8,-12 2,-11 5,-5 3,-2 3,5 v 13 l -3,15 -5,12 -8,11 -10,7 -8,5 -5,13 -2,18 -8,23 -12,25 -21,23 -18,25 18,-2 28,-8 31,-7 33,-13 30,-13 33,-15 26,-13 17,-10 16,-10 v 5 l -11,15 -10,13 -5,15 -5,21 -5,17 -15,5 -15,3 -8,5 -8,8 -2,10 -8,5 -15,2 -18,-2 h -20 l -5,2 10,8 13,10 v 13 l -11,13 -15,10 -13,13 -12,20 h -8 -7 l -11,2 h -15 l -15,3 -15,8 -11,7 h -7 l -8,-7 -2,-8 -5,-5 -11,-5 -7,2 -13,10 -13,16 -7,17 -3,23 v 26 l 3,20 -3,13 -7,13 -8,10 -10,5 h -10 l -11,-3 -12,3 -10,2 -11,5 -7,5 -10,3 -13,-5 -13,-13 -2,-15 2,-20 v -23 l -2,-15 -10,-6 -16,8 -15,10 -13,5 -7,-17 -10,-21 -16,-18 -12,-5 -13,-10 -15,-30 -13,-33 -5,-23 -3,-10 -5,-8 -5,-3 -8,3 -7,-18 -18,-20 -20,-18 -23,-15 -15,-26 -3,-38 v -40 -28 l 3,-13 2,-3 5,3 5,10 8,15 13,21 15,20 13,10 12,8 13,10 10,15 13,21 15,17 20,11 21,7 18,10 17,10 18,6 h 15 l 6,-6 -6,-7 -10,-10 -12,-10 -13,-8 -8,-10 -5,-16 v -15 l 3,-15 -3,-10 -5,-10 -5,-8 -3,-8 -2,-7 -8,-5 -2,-5 5,-5 13,-6 h 15 l 12,3 6,3 5,-13 5,-8 7,-2 h 3 l -10,-5 -8,-8 -5,-3 v -2 l 20,-10 -17,2 -16,-2 -17,-3 -16,-7 -12,-6 -13,-7 -13,-10 -7,-8 -13,-18 -5,-15 2,-10 8,7 13,13 12,8 13,2 h 5 v -12 l 3,-11 2,-2 3,-3 10,16 10,5 8,-3 h 2 l -7,-18 v -15 l 2,-7 h 10 l 13,2 h 10 l 10,-2 3,-6 8,-2 2,2 5,8 3,10 7,5 8,-2 5,-3 5,8 5,18 13,23 15,22 15,16 16,2 17,-2 18,-5 z"
   id="path382"
   inkscape:connector-curvature="0"
   style="fill:#007500;stroke:none" />
         <path
   d="m 9744,13952 -8,7 5,8 11,3 15,-3 2,5 h 11 15 5 l 2,3 3,5 v 5 l -8,5 -10,5 -7,8 v 5 h 7 l -2,2 -5,8 -11,7 -15,3 -15,8 -10,15 -5,18 2,10 h 5 8 l 10,-3 13,-2 10,-3 13,-2 10,-5 10,-3 15,-8 13,-7 10,-5 3,-3 v 3 7 l -5,8 -11,10 -7,10 2,10 8,11 13,5 -13,7 -13,3 h -15 l -20,-3 -11,3 6,13 7,10 5,5 h -10 l -13,-3 h -15 -15 l -8,5 8,3 7,7 6,11 -6,12 -10,16 -15,12 -10,10 -8,11 -7,15 2,10 13,3 h -13 l -18,5 -17,2 -16,-2 -15,-16 -15,-22 -13,-23 -5,-18 -5,-8 -5,3 -8,2 -7,-5 -3,-10 -5,-8 -2,-2 -8,2 -3,-17 -7,-18 -10,-10 -11,-5 -20,5 -18,2 h -12 l -11,-2 -7,-5 -8,-5 -2,-6 -3,-5 -5,-12 -3,-18 3,-10 5,7 10,16 13,5 h 8 5 v -3 l -3,-10 v -10 l -2,-13 v -13 l 2,-10 3,-2 5,12 10,18 13,8 h 10 l 5,-5 v -8 l -5,-8 -5,-2 -3,-3 h 3 l 5,-2 h 10 l 13,2 2,-10 5,-15 3,-18 v -12 l -8,-16 -15,-18 -20,-17 -13,-8 -8,-2 -2,-8 -3,-13 -5,-20 -8,-15 -12,-3 -15,-5 -8,-23 -5,-13 -8,-7 -10,-5 -5,-5 -3,-11 -2,-10 -8,-12 -15,-13 h 3 l 5,-3 7,3 10,10 13,15 13,10 13,8 5,-5 v -10 l 5,-5 5,5 7,10 11,18 10,20 7,10 5,-2 6,-10 2,-8 5,-3 5,5 8,11 7,12 6,8 h 2 l 3,-8 5,-2 h 7 l 11,5 h 7 l 5,2 v 6 5 l 10,-3 5,-2 6,-3 2,5 v 8 l -2,10 -3,13 -5,7 10,-5 8,-5 5,-3 2,6 v 12 l -2,13 v 13 l 2,7 11,10 12,13 13,10 h 10 l 10,-7 8,-8 8,-5 2,3 8,10 12,7 16,3 z"
   id="path384"
   inkscape:connector-curvature="0"
   style="fill:#007500;stroke:none" />
         <path
   d="m 9663,13741 12,-3 16,-7 17,-8 21,-13 17,-12 16,-11 10,-10 8,-7 5,-5 5,2 v 10 l -8,13 -10,13 -3,10 3,10 h 8 10 l 7,5 v 5 l -7,3 -18,5 -18,13 -13,12 -2,13 -10,2 -8,11 -10,12 -13,8 -10,10 -2,15 5,13 12,3 13,-5 5,-8 3,-8 h 2 l 8,-2 12,-13 13,-15 8,-13 2,-2 3,5 v 5 h 5 l 10,-5 13,-8 18,-8 20,-5 -20,21 -5,12 v 8 l 10,-3 v 5 l -5,8 -11,15 -17,13 -10,10 5,8 12,2 13,-2 15,-8 21,-2 h 17 l 5,5 -5,10 -7,8 -15,7 -16,8 -5,10 -10,5 -10,3 h -13 l -7,12 -11,8 -12,10 -13,8 -20,10 -16,-3 -12,-7 -8,-10 -2,-3 -8,5 -8,8 -10,7 h -10 l -13,-10 -12,-13 -11,-10 -2,-7 v -13 l 2,-13 v -12 l -2,-6 -5,3 -8,5 -10,5 5,-7 3,-13 2,-10 v -8 l -2,-5 -6,3 -5,2 -10,3 v -5 -6 l -5,-2 h -7 l 10,-5 5,-13 -3,-15 -10,-8 -18,-5 -18,-15 -15,-15 -5,-21 -5,-17 -10,-18 -13,-15 -5,-16 -5,-12 -10,-6 -13,-5 -10,-10 -3,-20 6,-25 7,-13 5,10 8,20 13,10 15,8 10,10 23,28 15,13 10,2 13,6 h 13 l 5,2 2,5 v 8 l 10,5 13,7 10,11 3,10 5,5 15,2 15,-2 z"
   id="path386"
   inkscape:connector-curvature="0"
   style="fill:#007500;stroke:none" />
         <path
   d="m 9637,13543 h 15 l 21,-18 18,-26 10,-17 5,-8 5,-5 h 8 l 2,2 -2,8 -3,10 -5,13 -5,15 -3,15 3,8 10,5 10,-2 h 10 l 5,5 v 5 l -7,5 -10,5 -11,2 h -10 -2 v 3 l 2,3 8,5 10,2 -2,3 -8,5 -10,5 -13,5 h -13 l -15,3 -10,7 -3,23 8,15 18,-2 18,-13 12,-5 13,-3 13,-2 15,-5 10,-5 8,-8 7,-2 3,2 2,8 -5,10 -12,7 -13,13 -10,13 -10,15 -18,13 -20,10 -21,13 -15,12 -5,13 2,8 16,5 -11,5 -15,2 -15,-2 -5,-5 -3,-10 -10,-11 -13,-7 -10,-5 v -8 l -2,-5 -5,-2 h -13 l 13,-13 7,-15 v -16 l -2,-12 -10,-5 -21,-6 -18,-2 h -2 l 10,-5 8,-10 5,-13 -10,-3 -18,-2 -15,-8 -16,-10 -15,-8 5,-10 -5,-17 -8,-18 -7,-18 2,-3 h 5 l 8,5 10,6 13,7 13,8 12,7 11,6 v -6 l 2,-7 h 5 l 5,5 8,13 10,10 8,7 h 5 l 2,-7 3,-5 2,-5 3,2 5,5 3,8 h 5 l 5,-3 5,-7 5,-8 5,-5 3,3 2,2 3,3 5,2 z"
   id="path388"
   inkscape:connector-curvature="0"
   style="fill:#007500;stroke:none" />
         <path
   d="m 9637,13543 -2,2 -5,-2 -3,-3 -2,-2 -3,-3 -5,5 -5,8 -5,7 -5,3 h -5 l -3,-8 -5,-5 -3,-2 -2,5 -3,5 -2,7 h -5 l -8,-7 -10,-10 -8,-13 -5,-5 h -5 l -2,7 v 6 l -11,-8 -5,-13 -5,-13 -7,-7 -5,-5 5,-5 h 7 l 13,7 15,8 h 15 l 8,-8 -2,-7 -11,-13 -7,-18 -3,-15 -2,-8 12,3 -2,-26 h 2 l 5,3 6,5 5,10 5,8 h 5 l 5,-10 v -10 l -5,-13 -13,-13 -15,-13 -10,-10 -5,-12 -6,-13 -2,-8 8,-2 12,5 16,10 12,10 5,5 -2,-2 -3,-5 -5,-11 -5,-15 -2,-15 2,-8 5,-5 10,5 -2,-5 -5,-13 -8,-12 -10,-10 -8,-11 -2,-12 5,-8 7,3 8,7 8,3 h 2 v -8 -12 l 5,-13 5,-15 5,-11 6,13 7,8 10,2 5,3 3,7 -3,11 -2,10 -8,10 -7,13 -3,15 3,10 h 7 l 8,-5 h 8 l 2,2 3,6 v 10 12 l -5,16 -6,15 13,-5 15,-3 h 18 l 13,5 -15,5 -13,13 -5,13 2,8 h 5 l 6,-6 2,-2 3,10 -3,13 -10,7 -13,11 -15,12 -3,13 11,8 17,2 16,-2 10,-8 5,-8 2,-5 v -2 l 3,20 -5,15 -10,13 -10,8 -11,7 -7,18 -5,18 z"
   id="path390"
   inkscape:connector-curvature="0"
   style="fill:#007500;stroke:none" />
         <path
   d="m 8875,13240 v 8 l 5,5 8,2 -3,6 -8,7 v 8 l 3,5 h 10 l 13,-8 10,-12 8,-13 5,-13 7,-5 h 8 l 5,5 -3,8 -2,12 -5,16 -3,15 v 5 l 3,-3 5,-7 5,-10 8,-8 10,-2 h 7 l 5,5 -2,2 -8,5 -2,13 -3,10 5,8 h 8 l 10,-8 10,-8 8,-10 5,-5 8,-2 5,-5 2,-11 3,-15 7,-15 11,-15 15,-8 15,-10 15,-13 8,-15 5,-10 v -8 l -3,-10 3,-3 5,6 5,17 -5,28 -13,26 -12,20 h 7 l 10,-5 8,-8 3,-2 v 2 8 8 l -5,10 -11,7 -10,5 -10,6 -5,5 v 10 l 10,7 13,11 18,2 -5,8 -6,5 -7,5 -8,2 -7,8 -8,10 -8,13 -5,8 -12,5 -18,5 -21,7 -17,3 -8,2 v 8 l 8,10 12,8 -5,2 -7,3 -13,2 h -13 l -10,3 v 8 10 l -2,10 -8,5 -10,-3 -8,-2 -8,-8 -5,-2 -5,7 -7,13 -8,15 -8,-7 h -5 -2 -3 l -2,2 -3,5 -5,8 -5,5 h -5 l -8,-8 -7,-7 -10,-8 h -6 l -5,8 -7,10 -10,15 -8,-20 -3,-23 3,-23 2,-15 -2,-13 -8,-12 -10,-13 -5,-10 -5,-5 h -8 l -7,-6 -5,-12 -3,-10 -8,-3 -5,3 -5,-3 -10,-10 -10,-10 -15,-10 -15,-6 -13,-12 -15,-21 -8,-20 -5,-15 v -3 h 5 l 8,3 12,8 -10,-11 -10,-20 -10,-18 -3,-15 3,-10 2,-8 3,-2 2,7 3,8 8,8 7,5 5,7 5,5 8,10 13,11 12,10 16,10 12,10 13,10 8,5 7,-5 5,3 3,7 2,8 3,8 5,2 h 5 l 8,3 7,5 h 8 l 5,2 8,8 5,8 h 5 v -5 l 2,-11 3,-15 3,-18 2,-10 5,-5 8,3 7,5 3,2 2,3 v -3 l 3,-5 8,-5 z"
   id="path392"
   inkscape:connector-curvature="0"
   style="fill:#003300;stroke:none" />
         <path
   d="m 8750,14389 16,7 12,5 15,6 16,5 12,5 16,5 12,5 16,2 20,6 20,10 26,15 28,13 33,15 40,13 44,12 50,8 8,2 10,6 13,10 18,12 15,13 18,15 20,13 18,13 v -21 l 7,-12 13,-5 18,-3 -3,-5 -5,-5 -7,-5 -5,-8 v -7 l 7,-5 10,-3 11,-5 10,-3 10,3 5,-3 3,-5 -6,-7 -7,-8 -10,-10 -13,-10 -13,-10 -12,-6 -13,-5 h -8 l -7,3 -11,2 -12,3 -13,3 h -13 -12 l -8,-3 -3,-5 3,-8 5,-7 10,-10 13,-8 13,-8 12,-5 11,-2 h 7 l 10,-5 8,-16 10,-12 18,-8 13,-3 2,-5 -10,-5 h -13 l -15,3 -18,5 h -12 l -11,-5 -7,-8 -8,-2 -13,2 h -10 l -12,-5 -18,-13 -21,-10 -22,-2 h -8 l -3,-3 5,-5 8,-8 10,-5 13,-5 13,-5 h 10 13 l 15,-2 15,-5 15,-5 13,-6 13,-7 10,-5 5,-5 v -8 l -10,-3 -5,-2 12,-8 23,-10 18,-10 10,-8 3,-5 h -8 l -18,3 -23,2 -25,-2 -23,2 -15,11 -15,10 -16,2 -17,-5 -21,-7 -20,-6 h -10 l -5,3 -13,5 -13,5 -17,5 -18,3 h -15 l -13,-3 -5,-5 -8,8 -8,7 -2,8 -3,8 -2,2 h -3 l -5,-2 -2,2 -3,8 -5,13 -8,12 -7,5 -5,-2 -10,-8 -11,-7 -10,-3 -10,8 -5,12 -8,18 -2,15 -8,-10 -5,-5 -5,3 -5,5 -8,7 -5,11 -7,12 -3,8 -15,-3 -15,3 -11,7 -2,13 -13,3 -10,2 -10,3 z"
   id="path394"
   inkscape:connector-curvature="0"
   style="fill:#003300;stroke:none" />
         <path
   d="m 8522,14000 12,-8 16,-10 10,-7 10,5 10,10 10,5 13,-3 13,-5 10,-7 10,-8 8,-2 h 5 l 10,2 18,5 h 20 l 13,-10 -11,-10 -12,-8 -13,-7 -5,-11 -5,-7 -15,2 -18,3 -8,-8 -2,-7 -5,-5 h -5 -11 -12 l -11,-3 -7,-8 v -7 l -15,-3 -23,-5 -21,-15 -12,-33 10,2 h 7 l 6,-5 -6,-10 -15,-13 -20,-10 -23,-5 h -15 l -13,3 -10,2 -10,-2 -3,-13 -10,-8 -10,-7 -8,-10 -2,-11 -5,-7 -11,-8 -7,-10 -8,-15 -7,-15 -13,-11 -13,-7 -7,-8 -3,-2 v 12 18 l 5,18 3,13 v 12 l 2,10 13,8 13,8 2,12 5,13 10,8 16,5 10,10 7,8 3,2 h -15 -16 l -10,-2 v 2 l 10,8 21,12 18,13 5,10 -8,5 -13,-2 h -12 l -16,2 -12,8 -10,8 -6,5 8,2 18,-2 h 20 l 23,5 13,7 2,8 -7,5 -10,3 h -8 v 2 l 10,8 15,7 16,3 10,3 7,5 3,7 v 5 l 10,5 23,11 23,12 z"
   id="path396"
   inkscape:connector-curvature="0"
   style="fill:#003300;stroke:none" />
         <path
   d="m 8994,14208 -2,5 -3,3 v 5 l 3,5 -8,8 -8,7 -2,8 -3,8 -2,2 h -3 l -5,-2 -2,2 -3,8 -5,13 -8,12 -7,5 -5,-2 -10,-8 -11,-7 -10,-3 -10,8 -5,12 -8,18 -2,15 -8,-10 -5,-5 -5,3 -5,5 -8,7 -5,11 -7,12 -3,8 -15,-3 -15,3 -11,7 -2,13 -13,3 -10,2 -10,3 h -3 l -35,-18 -36,-18 -33,-20 -33,-15 -30,-16 -28,-12 -23,-8 -23,-2 h -26 -28 -30 l -30,-3 -31,-3 -28,-2 -25,-5 -23,-5 -13,-10 -2,-11 5,-5 12,3 18,5 18,2 h 15 l 10,-2 -2,-5 -10,-10 -18,-16 -18,-17 -18,-21 -15,-17 -10,-21 v -15 l 5,-13 5,13 15,18 33,10 18,-3 8,-2 v -5 l -8,-8 -8,-5 -5,-8 -2,-7 2,-5 v -13 l -17,-18 -23,-20 -13,-20 -3,-18 v -13 l -2,-13 -10,-10 -21,-12 -17,-16 -11,-12 6,-6 h 7 l 13,6 10,5 13,5 10,5 10,2 h 10 l 5,-5 8,3 13,10 17,18 16,28 7,15 10,10 13,10 13,8 13,5 12,8 10,7 11,10 10,13 18,15 22,18 26,18 23,15 23,15 20,8 15,5 h 10 3 v 5 l -3,5 h 13 8 l 5,3 h 5 v 2 l -3,8 v 10 l 8,3 h 10 l 10,-3 h 16 l 15,-2 h 12 l 16,-3 10,3 h 10 l 5,7 -8,13 -2,10 8,3 17,-5 18,-11 10,-10 5,-7 5,-3 h 6 l 5,3 5,2 5,8 10,5 13,2 12,-2 13,-10 13,-13 10,-5 5,2 8,11 15,5 15,2 13,-5 8,-7 15,-11 18,-5 z"
   id="path398"
   inkscape:connector-curvature="0"
   style="fill:#003300;stroke:none" />
         <path
   d="m 8895,14025 13,3 h 20 21 l 12,-3 10,3 11,5 10,3 12,-3 8,-5 8,-3 h 2 l 3,3 -3,10 -5,8 -13,10 -12,2 -16,8 -12,13 -3,15 10,15 13,3 13,-3 15,-5 13,-7 12,-11 13,-10 8,-7 7,-8 13,-8 h 10 l 8,3 -3,2 -7,8 -10,15 -8,16 v 10 l 5,2 10,-5 8,-7 7,-11 8,-12 8,-13 7,-8 h 8 8 l 10,-2 10,-5 10,-8 13,-5 12,-8 13,-2 8,-3 10,-7 18,-18 18,-20 12,-18 5,-3 v 5 l -5,11 -5,12 -2,8 2,5 8,-3 7,-7 8,-8 h 5 l 3,8 -3,12 -7,13 -11,13 -10,10 -10,3 -8,2 -7,3 -3,7 -5,8 -7,8 -16,2 -18,3 h -15 -10 l -10,5 -3,5 3,5 5,2 h 10 l 10,3 h 10 l 13,2 h 13 10 l 8,-2 h 12 l 8,5 v 5 h -5 l -8,3 -7,2 -8,8 -8,7 -12,8 -16,5 h -20 l -25,-7 5,12 15,10 13,8 2,3 -7,2 h -10 -16 l -18,-8 -12,-2 v 8 l 2,12 v 8 l -5,2 -5,-2 h -10 l -10,-5 h -13 l -13,7 -12,5 -16,3 h -12 l -13,5 -10,5 -8,10 -12,-5 -18,5 -15,11 -8,7 -13,5 -15,-2 -15,-5 -8,-11 -5,-2 -10,5 -13,13 -13,10 -12,2 -13,-2 -10,-5 -5,-8 -5,-2 -5,-3 h -6 l -5,3 -5,7 -10,10 -18,11 -17,5 -8,-3 2,-10 8,-13 -5,-7 h -10 l -10,-3 -16,3 h -12 l -15,2 h -16 l -10,3 h -10 l -8,-3 v -10 l 3,-8 v -2 h -5 l -5,-3 h -8 -13 l 3,-5 v -5 h -3 -10 l 13,-5 2,-10 3,-10 10,-8 8,-2 -5,-8 -16,-8 -20,-7 -15,-3 -18,-5 -23,-8 -25,-5 -23,-10 -20,-10 -18,-10 -13,-13 -10,-13 -10,-7 -13,-8 -15,-7 -13,-8 -15,-13 -13,-15 -13,-20 -20,-33 -18,-13 -15,-8 -8,-12 -7,-21 -3,-15 v -10 l 10,2 16,11 17,15 18,10 h 18 10 l 8,5 5,10 8,5 7,3 8,5 7,8 11,7 12,8 10,5 11,5 h 12 l 10,5 11,8 10,7 13,5 7,5 10,3 8,3 8,-3 12,-8 16,-10 10,-7 10,5 10,10 10,5 13,-3 13,-5 10,-7 10,-8 8,-2 h 5 l 10,2 18,5 h 20 l 13,-10 2,-5 h 5 l 5,5 5,8 5,10 8,10 5,5 8,-3 7,-2 6,5 2,8 3,2 h 2 l 8,-2 5,-3 2,-5 h 3 l 10,5 8,10 5,10 5,8 h 13 l 15,-5 13,-8 12,-5 h 10 l 11,3 z"
   id="path400"
   inkscape:connector-curvature="0"
   style="fill:#003300;stroke:none" />
         <path
   d="m 9076,13799 12,-2 10,-5 6,-11 2,-7 5,-5 8,-5 h 10 2 3 10 l 8,2 h 10 l 8,-5 5,-7 5,-13 2,-15 3,-11 h 7 l 8,3 5,-3 10,-10 18,-12 18,-13 13,-5 h 5 v 5 l -8,10 -10,13 -10,12 -8,11 -2,7 5,3 h 7 v 5 l -5,7 -12,8 -8,8 8,7 7,8 5,5 -2,8 -8,5 -10,2 h -15 -11 l -2,5 v 8 l -3,5 -5,3 -10,-3 h -13 l -12,-5 h -10 l -8,8 -3,12 5,10 13,6 h 15 13 10 l 3,5 -8,7 -12,10 -8,8 -13,3 h -18 l -17,-6 -16,-5 h -10 v 5 l 5,8 13,10 15,8 15,2 11,3 5,3 -3,5 -7,7 -8,8 h -10 -10 l -5,2 -6,5 -5,3 h -7 l -10,-3 -11,-5 -7,-7 -10,-8 h -13 l -13,3 -10,5 -2,7 2,11 8,12 7,8 8,5 5,8 -3,5 h -10 l -10,-3 -7,3 -8,5 -8,7 -12,5 h -18 l -18,-2 -13,-5 h -10 l -13,7 -10,13 -5,15 -2,-7 -11,-3 h -10 l -12,5 -13,8 -15,5 h -13 l -5,-8 -5,-10 -8,-10 -10,-5 h -3 l -2,5 -5,3 -8,2 h -2 l -3,-2 -2,-8 -6,-5 -7,2 -8,3 -5,-5 -8,-10 -5,-10 -5,-8 -5,-5 h -5 l -2,5 -8,-13 -10,-10 -10,-8 -5,-12 -8,-21 -15,-20 -18,-15 -13,-3 -10,10 -13,11 -17,5 h -13 l -15,-3 -23,-5 -21,-15 -12,-33 10,2 h 7 l 6,-5 -6,-10 -15,-13 -20,-10 -23,-5 h -15 -10 l -3,-7 3,-8 7,-3 10,-2 8,-5 8,-5 2,-3 h -2 l -11,-2 -12,-8 -13,-15 13,-5 10,-8 v -5 l -10,-8 -18,-2 -15,-3 h -13 l -8,-5 3,-10 8,-10 5,-10 2,-13 -12,-18 -18,-18 -18,-17 -3,-13 11,-10 10,-8 5,-8 -8,-12 -10,-13 v -10 l 5,-8 8,-2 -10,-18 -3,-18 3,-10 10,5 12,18 8,18 10,15 10,10 16,13 15,25 15,21 13,10 13,2 15,8 15,10 10,15 13,8 20,-3 21,-5 20,5 10,16 8,15 7,18 10,12 18,10 16,6 17,12 18,18 20,15 18,3 15,2 11,8 10,10 h 10 8 l 10,3 7,10 8,10 8,10 10,3 15,-3 13,-7 12,-8 6,-8 2,8 5,8 5,2 10,-5 11,-8 7,-7 5,-3 h 5 l 8,8 10,10 10,10 13,5 13,-5 12,-10 6,-8 2,-5 18,8 18,2 17,-2 z"
   id="path402"
   inkscape:connector-curvature="0"
   style="fill:#003300;stroke:none" />
         <path
   d="m 8819,13807 5,7 3,8 7,5 8,3 15,-3 13,-7 12,-8 6,-8 2,8 5,8 5,2 10,-5 11,-8 7,-7 5,-3 h 5 l 8,8 10,10 10,10 13,5 13,-5 12,-10 6,-8 2,-5 18,8 18,2 17,-2 11,-13 2,-10 5,-8 5,-5 3,-5 v -5 -5 l 2,-2 5,2 11,3 h 10 l 10,-3 5,-7 5,-13 5,-15 8,-11 7,-2 6,-3 v -5 l -8,-5 h -8 l -5,-2 -5,-5 -2,-8 7,-5 13,-5 18,-8 12,-10 8,-10 3,-10 v -8 l -3,-5 -3,2 h -5 l -5,-7 v -8 l 8,-5 13,-10 15,-18 13,-23 7,-17 -2,-8 -5,-3 -8,8 -8,8 -10,7 -15,8 -15,5 -10,5 -6,5 -7,5 -8,5 -10,8 -13,5 -10,3 h -15 l -13,-6 h -5 l -2,3 -6,8 -2,7 -5,13 -10,13 -10,10 -6,2 -5,-5 -5,-5 -5,-5 -5,3 -7,10 -11,12 -10,11 -10,7 v -7 l -5,-8 -5,-3 -8,6 -10,10 -13,7 -12,8 -8,3 -5,-6 -8,-12 -7,-10 h -8 l -8,7 -10,8 -10,7 h -5 l -3,3 -2,8 -3,10 3,10 5,8 8,5 5,5 -3,5 -7,5 -8,2 -8,3 h -2 l -5,5 -8,13 -8,18 z"
   id="path404"
   inkscape:connector-curvature="0"
   style="fill:#003300;stroke:none" />
         <path
   d="m 8656,13667 10,18 16,13 20,10 20,7 5,13 13,13 15,18 16,25 10,10 h 10 8 l 10,3 2,-18 5,-15 3,-10 2,-6 -2,-2 -5,-10 -3,-10 3,-8 7,-8 6,-10 5,-10 v -10 -3 l 10,3 7,5 8,2 h 5 l 10,-7 10,-8 8,-7 h 8 l 7,10 8,12 5,6 8,-3 12,-8 13,-7 10,-10 8,-6 5,3 5,8 v 7 l 10,-7 10,-11 11,-12 7,-10 5,-3 5,5 5,5 5,5 6,-2 10,-10 10,-13 5,-13 2,-7 6,-8 2,-3 h 5 l 8,-10 13,-7 15,-5 12,-6 13,-10 18,-12 15,-16 v -7 l -7,2 -13,8 -18,8 -25,-6 17,-20 23,-28 23,-25 10,-13 v -8 l 3,-7 2,-8 11,-5 12,-5 8,-8 3,-10 2,-10 -2,-8 h -6 l -10,3 -5,5 -10,8 -13,2 h -12 l -5,-5 h -3 l -3,8 -5,10 -7,5 -10,-3 -8,-7 -5,-13 2,-13 11,-15 7,-15 5,-13 v -12 l -5,-6 -7,3 -8,8 -5,10 -5,7 -8,3 h -2 l -3,-5 h -2 l -6,10 -2,15 v 18 l -13,10 -7,21 -11,17 -5,13 -5,5 -10,5 -10,5 -10,8 -13,5 -13,8 -10,5 -10,2 -15,10 -15,13 -16,13 h -15 l -5,-5 h -5 l -5,5 -3,10 5,10 5,5 5,5 3,3 h -3 l -7,2 h -10 l -8,-2 h -2 l -3,5 v 10 13 l -3,10 -5,8 -5,7 -2,3 -10,-21 -3,3 -3,5 -5,5 h -5 l -2,-5 -3,-5 v -5 l 3,-3 -3,-5 -7,-2 h -13 l -13,7 -10,13 -10,15 -10,18 -5,15 -3,16 -5,12 -3,10 -5,3 -5,-5 -10,-8 -5,-10 -3,-10 -2,-5 -8,-5 h -7 l -5,5 -11,2 h -20 l -18,3 z"
   id="path406"
   inkscape:connector-curvature="0"
   style="fill:#003300;stroke:none" />
         <path
   d="m 8890,13466 3,8 5,8 7,5 8,5 h 8 7 8 v 5 l -3,5 -5,5 -5,8 -5,10 -5,-5 h -5 l -5,5 -3,10 5,10 5,5 5,5 3,3 h -3 l -7,2 h -10 l -8,-2 h -2 l -3,5 v 10 13 l -3,10 -5,8 -5,7 -2,3 -10,-21 -3,3 -3,5 -5,5 h -5 l -2,-5 -3,-5 v -5 l 3,-3 -3,-5 -7,-2 h -13 l -13,7 -10,13 -10,15 -10,18 -5,15 -3,16 -5,12 -3,10 -5,3 -5,-5 -10,-8 -5,-10 -3,-10 -2,-5 -8,-5 h -7 l -5,5 -11,2 h -20 l -18,3 -5,10 -18,-2 -12,-3 -13,-5 -10,-10 -15,-5 -21,2 -20,5 -13,-5 -5,-10 -10,-10 -10,-13 -10,-7 -8,-18 -5,-23 -10,-20 -13,-18 -13,-10 -7,-5 -5,-6 -5,-12 -3,-15 -5,-11 -8,-7 -12,-5 -10,-5 -3,-8 3,-5 2,-8 -2,-7 -6,-13 -7,-15 -3,-10 5,-6 8,-2 8,5 7,10 10,13 16,10 12,8 10,2 h 8 l 5,3 v 5 10 l 3,13 10,15 13,13 15,5 h 10 v 7 l 3,13 12,10 h 5 l 3,-7 2,-6 3,-2 5,5 8,8 5,10 2,10 8,8 18,12 18,10 12,13 5,5 5,-5 3,-7 v -11 l 2,-2 13,7 15,16 18,18 3,-3 7,-5 8,-10 5,-13 5,5 h 8 l 5,-5 5,-8 5,-7 5,-5 5,2 5,10 5,5 5,-2 8,-10 5,-10 8,-18 15,-33 18,-28 13,-8 10,8 7,7 8,8 h 5 l 5,-5 5,-8 3,-5 2,-2 h 3 2 5 z"
   id="path408"
   inkscape:connector-curvature="0"
   style="fill:#003300;stroke:none" />
         <path
   d="m 8799,13492 -11,18 -5,15 -7,10 -3,8 -5,10 -8,10 -5,2 -5,-5 -5,-10 -5,-2 -5,5 -5,7 -5,8 -5,5 h -8 l -5,-5 v -8 l -5,-5 -5,-7 -8,-8 -12,-5 -13,-5 -15,-3 -16,-2 3,-5 v -5 l -8,-5 -7,-3 h -10 -13 -13 -10 l -3,-5 -7,-5 -5,-5 -5,-5 v -5 l 5,-5 h 12 16 l -13,-13 -20,-21 -23,-20 -16,-10 -10,-3 -2,-5 v -2 l 2,-5 8,-3 10,3 8,5 7,5 8,2 8,3 5,-3 2,-5 -7,-10 -16,-10 -15,-10 -10,-5 -3,-3 3,-5 10,-2 10,-5 -12,-8 -13,-10 -13,-15 -5,-11 -2,-7 2,-8 h 3 l 5,8 7,10 13,8 13,5 10,2 8,5 5,8 5,7 5,3 h 5 7 l 6,5 2,5 8,15 15,21 18,23 10,15 8,2 5,-2 2,-5 -2,-8 -3,-10 -5,-15 -8,-13 -10,-8 -10,-5 -10,-10 -10,-10 -8,-13 5,-2 v -8 l -5,-10 -2,-8 v -7 l 2,-3 h 8 l 10,3 -10,-16 -8,-17 -2,-10 2,-6 5,-2 3,-10 2,-10 v -8 l 5,3 8,10 5,17 8,16 5,10 h 2 l 5,-3 3,-5 2,3 3,10 5,13 5,15 h 3 l 5,5 7,8 11,12 10,13 10,5 8,-2 2,-8 5,-3 h 8 7 l 3,-2 5,13 5,10 v 10 10 13 l 5,12 8,8 10,-2 10,-6 5,6 5,10 v 12 13 l 3,13 5,15 z"
   id="path410"
   inkscape:connector-curvature="0"
   style="fill:#003300;stroke:none" />
         <path
   d="m 8738,12961 -3,-3 v 0 0 h -3 l -20,-18 -7,-15 -6,-10 -5,-3 -5,5 -2,6 -5,2 -5,-2 -8,-6 h -3 l -2,6 5,7 3,5 5,8 7,8 5,10 z"
   id="path412"
   inkscape:connector-curvature="0"
   style="fill:#003300;stroke:none" />
         <path
   d="m 8857,12961 -3,-3 v -2 l -2,-3 -3,-5 -5,-3 -7,-5 -8,-5 5,-7 13,-3 10,-2 8,2 h 2 v -5 l -2,-10 2,-10 8,-5 7,-3 6,-5 -3,-10 -5,-13 -3,5 -5,10 -7,11 -8,-3 -3,-10 3,-8 8,-5 7,-2 5,-6 3,-5 v -5 h -8 l -5,-2 v -5 l 5,-8 8,-8 5,-5 3,-7 -3,-5 h -5 l -8,10 -12,7 -13,3 -3,-10 5,-15 8,-16 8,-7 7,-3 h 8 l 8,-5 v -5 l -3,-3 -5,-5 v -7 l 5,-5 8,-8 7,-8 8,-12 5,-8 2,-5 -2,3 -8,5 -10,5 -7,2 -6,-5 -2,-5 -3,-5 v -3 6 l -2,10 -5,10 -5,8 -8,5 h -8 -5 l -2,-11 2,-15 3,-15 5,-13 10,-7 5,-5 -2,-8 -11,-5 -5,-3 -2,-2 v -13 -10 -5 l -10,5 -5,33 -3,2 -8,8 -10,8 -2,7 5,3 10,2 10,13 v 26 l -7,20 -13,-3 -8,-10 -5,-7 -2,-6 -8,-10 -10,-12 -13,-6 h -8 l 3,8 10,10 8,13 5,20 v 26 l 2,23 8,12 10,5 8,5 7,16 v 28 l -17,-8 -16,-10 -12,-5 -13,-3 -13,-2 -12,-8 -13,-13 -8,-15 -2,-7 -3,5 v 10 12 l 5,16 8,15 5,18 8,7 -23,-2 h -21 l -15,-3 -15,-12 -8,-11 v 8 13 l 5,15 8,8 13,5 15,2 h 18 l -8,10 v 11 l 3,5 h 10 l 12,-5 11,-3 h 5 l 7,5 8,10 10,10 10,8 v 8 0 z"
   id="path414"
   inkscape:connector-curvature="0"
   style="fill:#003300;stroke:none" />
         <path
   d="m 8918,12961 v -3 l 3,-2 2,-3 3,-2 12,-13 11,-10 5,-8 -5,-3 -11,8 -17,8 -16,7 -12,-5 -8,-5 -8,-2 -5,7 -2,10 v 6 l -3,5 -5,2 -2,3 z"
   id="path416"
   inkscape:connector-curvature="0"
   style="fill:#003300;stroke:none" />
         <path
   d="m 8689,12961 10,10 11,13 10,7 10,8 -18,-5 -10,-3 h -8 v 5 l 13,13 23,25 23,21 15,10 8,2 v 5 l -5,6 h -8 l -8,-3 -10,-3 -15,-5 -15,-7 -16,-8 -12,-7 -10,-8 -5,-8 -3,-7 h -5 v 7 8 l 10,15 18,20 20,23 20,13 16,8 7,10 v 10 l -5,3 -12,-3 -16,-5 -12,-8 -8,-12 -3,-5 h -5 l -5,2 -7,-8 -13,-15 -15,-15 -16,-15 -7,-10 -5,-3 -8,-3 -7,-2 -8,-13 2,18 13,20 13,18 15,15 h -10 l -5,5 2,8 5,8 6,7 2,8 5,8 5,7 5,5 8,10 13,13 12,13 13,10 13,13 10,7 8,3 7,5 v 10 10 l -2,5 7,-5 5,3 3,7 2,8 3,8 5,2 h 5 l 8,3 7,5 h 8 l 5,2 8,8 5,8 h 5 v -5 l 2,-11 3,-15 3,-18 2,-10 5,-5 8,3 7,5 3,2 2,3 v -3 l 3,-5 8,-5 10,5 2,-7 3,-8 5,-8 13,-5 15,-7 5,-11 5,-7 15,-3 18,-2 10,-5 8,-8 2,-5 h -5 -12 l -18,5 -15,3 h -13 l -13,-3 -5,-8 5,-7 13,-5 h 10 l 8,-3 7,-7 3,-11 v -7 l 5,-5 10,-3 15,-2 11,-3 5,-5 2,-5 v -5 l -7,-3 h -8 l -10,3 -8,2 h -7 l -3,-2 v -8 l 10,-10 13,-13 7,-17 -2,-21 h -3 l -2,3 -5,5 -3,7 -5,11 -7,7 -8,5 -5,-2 -3,2 -5,10 -5,11 -5,2 -5,-5 -8,-5 -2,-5 -3,-3 -2,5 -5,11 -8,12 -8,5 -10,-2 -5,-5 -5,-3 -3,-2 v -3 -5 l 3,-2 8,-3 5,-3 v -7 l 2,-8 13,-2 h 15 l 8,-5 5,-3 2,-2 h -5 l -12,2 -16,-2 -5,-13 8,-13 18,-2 h 18 15 l -3,-3 v -5 l 5,-5 21,-3 10,-2 5,-8 5,-5 v -2 l -20,2 h -16 l -10,-5 3,-13 h -10 l -5,-2 -6,-3 3,-2 h -58 v 0 0 0 h -3 -74 l -7,2 -10,3 h -16 l -12,-5 z"
   id="path418"
   inkscape:connector-curvature="0"
   style="fill:#003300;stroke:none" />
         <path
   d="m 12913,17987 v -320 h -23 l -28,-10 -35,-18 -44,-26 -48,-30 -53,-36 -59,-40 -61,-46 -66,-46 -68,-51 -69,-48 -71,-51 -71,-50 -74,-51 -69,-46 -71,-46 -28,-15 -30,-13 -33,-10 -31,-8 -33,-5 -33,-5 -33,-5 -33,-2 -30,-5 -31,-5 -28,-6 -25,-10 -26,-10 -20,-15 -20,-15 -16,-23 -28,-46 -28,-46 -27,-43 -28,-41 -31,-40 -28,-38 -30,-38 -31,-34 -30,-30 -33,-28 -31,-25 -33,-21 -33,-18 -33,-15 -36,-7 -35,-5 -36,-11 -30,-20 -28,-28 -23,-33 -25,-33 -21,-33 -23,-28 -20,-18 -15,-12 -10,-21 -11,-23 -7,-25 -8,-23 -5,-23 -10,-18 -10,-10 -10,-7 -11,-11 -12,-12 -10,-13 -11,-13 -7,-10 -8,-10 -8,-5 -40,-25 -31,-39 -25,-48 -23,-56 -23,-56 -25,-56 -33,-45 -41,-36 -10,-5 -13,-10 -18,-10 -20,-10 -23,-13 -23,-10 -23,-8 -20,-8 -15,-7 -23,-10 -25,-16 -31,-17 -33,-16 -36,-12 -35,-11 -33,-5 -8,-2 -10,-8 -8,-12 -12,-13 -13,-15 -18,-18 -20,-13 -28,-13 -8,-15 -7,-30 -8,-44 -8,-40 -7,-10 -15,-11 -16,-10 -15,-5 -28,-33 -15,-58 -10,-56 -21,-31 -35,-17 -41,-28 -48,-36 -51,-38 -53,-38 -51,-33 -48,-28 -41,-15 -13,-11 -18,-20 -20,-28 -20,-33 -21,-30 -17,-28 -16,-21 -10,-7 -23,-8 -25,-13 -25,-15 -26,-20 -23,-18 -23,-15 -15,-13 -13,-5 -50,-8 -44,-12 -40,-13 -33,-15 -28,-13 -26,-15 -20,-10 -20,-6 -51,-15 -51,-20 -48,-26 -49,-25 -45,-23 -44,-20 -38,-15 -30,-5 h -26 -28 -30 l -30,-3 -31,-3 -28,-2 -25,-5 -23,-5 -28,-10 -31,-11 -28,-10 -28,-10 -25,-8 -25,-5 h -21 l -15,5 v 3774 z"
   id="path420"
   inkscape:connector-curvature="0"
   style="fill:#995933;stroke:none" />
         <path
   d="m 12705,16394 -33,-3 -23,-7 -21,-11 -17,-10 -16,-12 -12,-13 -18,-15 -20,-13 -26,-8 -38,-2 h -48 l -51,2 -54,3 -45,2 -38,-2 -21,-3 h -12 l -16,10 -17,13 -18,18 -18,18 -18,17 -13,11 -7,2 -41,-10 -35,-3 -31,6 -25,10 -26,10 -23,10 -22,10 -28,3 -11,2 -10,8 -15,10 -13,10 -17,10 -16,8 -20,5 -18,-2 -15,-3 -26,-3 h -27 l -34,-2 h -35 -38 -36 -35 -16 l -30,-3 h -36 l -43,-2 -43,-5 -46,-5 -40,-5 -34,-11 h -10 l -20,6 -25,7 -28,5 -28,5 h -23 l -21,-5 -7,-12 -13,-8 -30,-13 -46,-15 -51,-15 -51,-13 -46,-13 -33,-10 -17,-5 -18,-2 -15,2 -11,8 -10,10 -7,10 -11,8 -10,5 -12,-3 -36,-10 -43,-10 -51,-10 -53,-10 -56,-11 -51,-7 -51,-10 -41,-8 -12,-5 -10,-10 -13,-10 -10,-16 -13,-12 -10,-13 -10,-8 -8,-5 -15,-2 -21,-5 -30,-11 -36,-10 -38,-15 -43,-13 -43,-18 -46,-15 -46,-15 -43,-15 -41,-16 -38,-12 -30,-10 -26,-11 -17,-5 -10,-2 -49,-10 -40,-16 -33,-20 -28,-23 -23,-20 -21,-20 -17,-13 -18,-8 -31,-7 -35,-11 -43,-15 -49,-15 -51,-20 -56,-21 -55,-20 -56,-23 -56,-20 -54,-21 -50,-17 -49,-18 -40,-13 -36,-10 -28,-8 -18,-2 -33,-3 -43,-5 -53,-10 -56,-10 -56,-10 -51,-10 -41,-11 -28,-7 -33,-10 -40,-11 -43,-10 -44,-12 -43,-11 -41,-10 -33,-10 -25,-10 v 2447 h 4826 v -1568 l -36,3 h -33 l -30,-3 -26,-5 -25,-8 -20,-5 -21,-5 z"
   id="path422"
   inkscape:connector-curvature="0"
   style="fill:#bfa07c;stroke:none" />
         <path
   d="m 8641,15621 -15,-12 -18,-18 -23,-21 -25,-22 -26,-21 -20,-20 -15,-15 -10,-11 -18,-48 -21,-58 -15,-49 -7,-20 -18,3 -15,7 -18,13 -23,25 h -5 l -10,-2 -13,-3 -13,-5 13,-12 13,-11 12,-12 16,-10 12,-11 13,-5 13,-5 12,-2 -2,-16 -3,-10 v -5 -2 l -25,-3 v -10 l 25,-20 -2,-11 -8,-30 -7,-41 -13,-45 -13,-49 -15,-40 -13,-28 -10,-13 -15,5 -10,10 -6,13 v 5 l -27,2 15,-30 10,-23 2,-15 v -5 0 l -5,-3 -10,3 -18,2 -25,13 -38,18 -51,28 -63,38 17,-20 26,-23 28,-23 30,-23 31,-20 28,-18 25,-13 20,-7 v -3 l 3,-8 2,-12 -2,-18 -3,-23 -10,-31 -18,-35 -22,-43 -3,2 -13,3 -15,5 -20,8 -23,7 -28,8 -26,7 -27,8 15,-13 15,-12 20,-13 21,-13 20,-10 20,-10 18,-10 18,-5 -8,-23 -10,-36 -13,-40 -15,-44 -15,-43 -15,-35 -13,-23 -10,-11 -18,3 -18,3 -10,2 -5,3 v -18 l 5,-3 13,-7 15,-5 18,-3 -10,-48 -16,-51 -15,-46 -10,-30 v -178 l 18,38 18,38 15,36 13,33 10,28 7,25 3,20 2,13 3,15 10,8 8,8 5,10 7,20 16,46 20,61 25,71 26,69 23,63 15,46 10,23 26,-5 33,-5 40,-6 41,-7 41,-5 35,-3 28,-2 h 18 l 15,-13 10,-13 8,-7 2,-3 13,18 8,-5 18,-10 17,-5 11,2 2,13 5,13 5,7 10,3 h 8 l 13,-3 12,-2 h 16 l 15,-3 13,-2 h 7 3 l 84,-41 35,7 -38,6 -53,35 86,8 36,-49 v -12 -31 l 2,-33 5,-18 8,-10 15,-15 13,-15 5,-5 3,-10 7,-21 10,-20 16,-15 -8,23 -3,20 -5,15 -5,10 -10,13 -13,18 -12,18 -5,7 v 56 l 2,-2 10,-8 13,-10 18,-10 18,-13 20,-10 20,-8 18,-2 -13,7 -15,10 -13,11 -15,7 -13,10 -12,10 -8,8 -7,8 17,-3 h 18 l 18,-2 15,-3 h 15 l 13,-2 10,-3 8,-3 -18,13 -20,10 -21,8 -7,2 -69,8 -30,43 40,8 -15,25 -56,-5 -51,-2 -45,-5 -41,-3 -33,-2 h -26 -17 -10 l -8,2 -10,5 -10,3 -13,5 -15,5 -18,2 -15,3 h -18 -23 l -28,3 -31,5 -35,5 -33,7 -33,5 -28,8 -20,8 25,48 15,38 8,31 5,20 v 15 13 l 2,7 3,8 23,51 23,63 18,69 10,56 7,28 16,41 20,48 25,58 23,64 21,68 17,72 z"
   id="path424"
   inkscape:connector-curvature="0"
   style="fill:#260000;stroke:none" />
         <path
   d="m 8237,14656 -8,-23 -10,-36 -13,-40 -15,-44 -15,-43 -15,-35 -13,-23 -10,-11 z"
   id="path426"
   inkscape:connector-curvature="0"
   style="fill:#b25619;stroke:none" />
         <path
   d="m 8087,15515 30,-6 28,-7 28,-8 26,-7 20,-8 18,-5 15,-5 8,-3 13,-5 10,-7 12,-6 13,-7 10,-5 8,-5 8,-5 h 5 l 2,-13 3,-13 5,-10 7,-3 h 8 l 15,-2 h 16 17 21 17 18 l 13,2 20,8 31,10 35,13 36,18 35,15 31,15 23,10 10,8 15,25 18,36 15,41 8,30 2,54 6,86 5,84 5,48 10,28 v 18 l -8,12 -15,6 -25,5 -23,5 -21,7 -17,8 -16,8 -15,7 -13,5 -10,5 -18,5 -25,13 -36,13 -40,15 -43,13 -44,10 -40,3 -36,-6 -33,-7 -35,-5 -36,-5 h -36 -35 l -31,2 -28,5 -20,5 z"
   id="path428"
   inkscape:connector-curvature="0"
   style="fill:#7f99b2;stroke:none" />
         <path
   d="m 8341,16068 36,6 40,-3 44,-10 43,-13 40,-15 36,-13 25,-13 18,-5 10,-5 13,-5 15,-7 16,-8 17,-8 21,-7 23,-5 25,-5 15,-6 8,-12 v -18 l -10,-28 -5,-48 -5,-84 -6,-86 -2,-54 -8,-30 -15,-41 -18,-36 -15,-25 -10,-8 -23,-10 -31,-15 -35,-15 -36,-18 -35,-13 -31,-10 -20,-8 -13,-2 h -18 -17 -21 -17 -16 l -15,2 h -8 l -5,6 v 5 l 5,2 5,3 11,2 12,5 13,5 8,5 15,11 23,20 20,20 8,13 -10,18 -21,25 -23,31 -10,23 -5,30 -2,43 -5,41 -8,23 -10,5 -16,7 -20,8 -23,10 -23,10 -20,11 -13,7 -7,8 -3,15 -2,26 v 38 l 2,40 8,46 18,46 25,40 z"
   id="path430"
   inkscape:connector-curvature="0"
   style="fill:#284c70;stroke:none" />
         <path
   d="m 8087,15934 8,-8 17,-15 21,-13 h 18 l 10,5 12,3 16,2 h 17 18 l 18,3 15,2 10,6 11,7 17,15 21,16 23,17 22,18 21,15 18,11 12,5 16,2 7,3 8,2 5,5 5,6 13,10 17,15 18,15 21,18 17,13 16,10 10,5 v 30 l -3,31 -7,25 -13,10 -10,6 -13,7 -13,5 -12,3 -13,5 -10,5 -5,8 2,5 10,12 16,11 15,10 18,5 10,2 13,-2 h 10 10 l 13,10 20,23 15,25 5,26 -28,10 -12,13 -8,12 -5,5 -28,3 -31,2 -33,8 -30,8 -28,7 -25,5 -23,5 -16,3 h -20 l -28,2 h -35 -41 l -43,-2 -38,-5 -36,-8 -28,-10 z"
   id="path432"
   inkscape:connector-curvature="0"
   style="fill:#284c70;stroke:none" />
         <path
   d="m 8669,16272 -5,20 -3,36 v 35 21 h 13 l 15,2 h 18 l 15,3 h 18 l 13,2 10,3 5,2 5,5 8,8 12,10 13,10 13,10 10,11 10,5 5,2 8,-2 13,-10 17,-13 18,-15 15,-13 16,-15 10,-11 5,-7 3,-10 5,-18 5,-15 v -11 l -8,-15 -18,-28 -20,-25 -15,-15 -8,-3 -13,-2 h -17 l -18,-3 h -21 l -17,-3 h -16 l -10,3 -10,3 -15,5 -18,7 -18,8 -18,8 -15,7 -10,5 z"
   id="path434"
   inkscape:connector-curvature="0"
   style="fill:#284c70;stroke:none" />
         <path
   d="m 8979,16861 10,3 18,2 18,3 20,2 18,3 h 18 10 l 7,-5 6,-10 2,-8 v -7 -3 l -10,-3 -20,-5 -23,-5 -18,-5 -15,-7 -21,-6 -20,-2 -15,5 -13,13 -13,12 -7,11 2,7 10,3 h 13 l 13,2 z"
   id="path436"
   inkscape:connector-curvature="0"
   style="fill:#284c70;stroke:none" />
         <path
   d="m 9210,16882 h -10 l -15,2 -15,3 -16,5 -17,5 -13,7 -10,8 -8,8 -8,15 -7,8 -8,5 -5,5 -2,7 v 13 l 5,13 12,5 h 18 l 23,-3 h 20 13 l 5,3 5,2 5,6 13,2 h 10 15 21 20 l 20,-2 18,-6 13,-5 10,-7 5,-18 -2,-15 -8,-18 -15,-15 -21,-13 -22,-10 -23,-5 z"
   id="path438"
   inkscape:connector-curvature="0"
   style="fill:#284c70;stroke:none" />
         <path
   d="m 12090,16767 -11,-12 -7,-8 -10,-8 -11,-7 -10,-3 -10,-5 h -10 -13 -12 -16 -17 l -16,-2 -17,-3 -16,-5 -12,-5 -13,-8 -10,-7 -13,-8 -13,-8 -12,-5 -16,-2 h -12 l -16,2 -12,8 -13,10 -10,10 -13,10 -10,11 -10,10 -8,7 -10,5 -10,5 h 18 12 l 8,6 10,5 10,5 15,5 21,5 23,5 23,3 20,2 13,3 7,-3 3,-5 2,-8 8,-7 13,-3 h 12 l 21,3 h 25 l 28,2 h 28 l 28,3 23,-3 z"
   id="path440"
   inkscape:connector-curvature="0"
   style="fill:#284c70;stroke:none" />
         <path
   d="m 12913,16267 -13,-3 -17,-2 -28,-8 -31,-5 -38,-8 -38,-7 -43,-11 -41,-7 -43,-8 -43,-10 -39,-5 -35,-8 -33,-5 -26,-5 -20,-2 h -10 -15 l -21,2 h -25 -23 l -23,3 -20,2 -15,3 -11,2 -7,5 -10,8 -13,8 -13,7 -12,8 -11,8 -10,5 -5,5 -10,5 -13,7 -15,8 -13,8 -7,7 -11,10 -10,16 -15,12 -13,16 -15,15 -10,10 -10,8 -13,5 -20,7 -26,11 -28,7 -28,10 -25,8 -20,8 -10,5 -8,7 -15,13 -16,18 -17,18 -18,17 -15,13 -11,10 -2,5 38,18 43,15 46,18 43,15 41,13 33,10 25,8 h 15 l 18,-5 18,-3 18,-2 h 13 l 10,2 23,5 30,8 33,8 33,7 31,5 23,5 10,5 10,8 10,5 13,5 12,3 16,2 20,3 15,2 5,3 -15,20 20,8 26,5 30,5 33,5 31,3 28,2 h 23 l 12,-2 h 18 l 31,2 38,5 43,8 46,10 40,10 31,8 20,5 16,3 15,2 h 10 5 z"
   id="path442"
   inkscape:connector-curvature="0"
   style="fill:#284c70;stroke:none" />
         <path
   d="m 8356,16470 h -20 l -28,2 h -35 -41 l -43,-2 -38,-5 -36,-8 -28,-10 v -513 l 8,-8 17,-15 21,-13 h 18 l 10,8 12,10 16,10 12,8 13,10 13,8 5,7 2,5 -5,18 -7,25 -5,31 v 28 l 15,53 18,23 12,10 11,13 12,23 21,30 22,28 18,13 13,3 18,10 23,10 25,15 25,13 21,15 15,15 8,11 v 17 l -8,10 -13,11 -18,5 -10,5 -10,10 -13,10 -15,15 -12,13 -16,13 -12,7 z"
   id="path444"
   inkscape:connector-curvature="0"
   style="fill:#bfccd8;stroke:none" />
         <path
   d="m 8346,16259 13,3 18,10 23,10 25,15 25,13 21,15 15,15 8,11 v 17 l -8,10 -13,11 -18,5 -10,5 -10,10 -13,10 -15,15 -12,13 -16,13 -12,7 -11,3 h -20 l -28,2 h -35 -41 l -43,-2 -38,-5 -36,-8 -28,-10 v -124 l 13,-3 15,-3 18,-5 20,-5 18,-5 15,-5 15,-2 11,-3 10,-2 12,-6 16,-5 17,-7 21,-5 20,-5 18,-3 z"
   id="path446"
   inkscape:connector-curvature="0"
   style="fill:#bfccd8;stroke:none" />
         <path
   d="m 8844,16457 -5,-2 -10,-5 -10,-11 -13,-10 -13,-10 -12,-10 -8,-8 -5,-5 -5,-2 -10,-3 -13,-2 h -18 l -15,-3 h -18 l -15,-2 h -13 v -21 -35 l 3,-36 5,-20 10,-5 13,-5 13,-3 12,-5 h 13 l 8,-3 h 7 l 3,3 10,5 18,3 20,5 13,5 10,7 13,13 12,18 3,18 2,15 5,13 6,10 5,7 5,13 v 23 l -8,25 z"
   id="path448"
   inkscape:connector-curvature="0"
   style="fill:#bfccd8;stroke:none" />
         <path
   d="m 9035,16823 -15,-7 -21,-6 -20,-2 -15,5 -13,13 -13,12 -7,11 2,7 10,3 h 13 l 13,2 h 10 l 10,3 13,2 h 15 l 15,3 h 13 l 13,-3 h 10 l 5,-5 v -5 l -3,-10 -12,-13 z"
   id="path450"
   inkscape:connector-curvature="0"
   style="fill:#bfccd8;stroke:none" />
         <path
   d="m 9210,16882 h -10 l -15,2 -15,3 -16,5 -17,5 -13,7 -10,8 -8,8 -8,15 -7,8 -8,5 -5,5 -2,7 v 13 l 5,13 12,5 h 18 l 23,-3 h 20 13 l 15,-5 18,-10 15,-13 13,-15 10,-18 v -15 l -7,-18 z"
   id="path452"
   inkscape:connector-curvature="0"
   style="fill:#bfccd8;stroke:none" />
         <path
   d="m 11881,16785 -7,3 -13,-3 -20,-2 -23,-3 -23,-5 -21,-5 -15,-5 -10,-5 -10,-5 -8,-6 h -12 -18 l 10,-5 10,-5 8,-7 10,-10 10,-11 13,-10 10,-10 13,-10 12,-8 16,-2 h 12 l 16,5 12,5 13,5 13,8 10,7 15,13 15,13 8,10 -10,2 -18,3 -13,5 -5,15 z"
   id="path454"
   inkscape:connector-curvature="0"
   style="fill:#bfccd8;stroke:none" />
         <path
   d="m 12867,16780 -20,-5 -31,-8 -40,-10 -46,-10 -43,-8 -38,-5 -31,-2 h -18 l -12,2 h -23 l -28,-2 -31,-3 -33,-5 -30,-5 -26,-5 -20,-8 28,-35 36,-18 2,-3 3,-10 5,-10 5,-15 8,-13 7,-10 8,-8 7,-5 8,-2 13,-5 15,-8 20,-10 18,-8 18,-7 13,-6 h 7 l 10,6 18,12 23,18 25,18 28,20 23,15 21,13 10,5 15,5 20,5 18,5 10,6 v 12 23 l 3,26 5,15 8,7 7,13 5,13 z"
   id="path456"
   inkscape:connector-curvature="0"
   style="fill:#bfccd8;stroke:none" />
         <path
   d="m 12039,16361 -13,5 -20,7 -26,11 -28,7 -28,10 -25,8 -20,8 -10,5 -8,7 -15,13 -16,18 -17,18 -18,17 -15,13 -11,10 -2,5 38,18 43,15 46,18 43,15 41,13 33,10 25,8 h 15 l 18,-5 18,-3 18,-2 h 13 l 10,2 23,5 30,8 33,8 33,7 31,5 23,5 10,5 10,8 10,5 13,5 12,3 18,-3 18,-2 15,-3 8,-2 13,-5 12,-8 10,-10 8,-10 5,-13 8,-20 10,-18 13,-13 10,-5 15,-8 18,-7 20,-8 18,-5 18,-5 12,-5 8,-3 -5,-25 -13,-15 -17,-13 -16,-8 -10,-5 -15,-10 -18,-10 -20,-13 -18,-10 -18,-10 -15,-5 -8,-3 -7,3 -13,5 -15,5 -18,8 -15,10 -13,7 -13,11 -5,10 -13,5 -15,7 -15,5 -15,6 -15,2 -13,3 h -8 l -5,-3 -2,-10 -8,-15 -8,-16 -7,-7 -8,-3 -15,-7 -21,-10 -20,-13 -23,-13 -20,-10 -15,-8 -10,-2 -13,-3 -10,-2 h -13 z"
   id="path458"
   inkscape:connector-curvature="0"
   style="fill:#bfccd8;stroke:none" />
         <path
   d="m 12039,16361 10,-8 10,-10 15,-15 13,-16 15,-12 10,-16 11,-10 7,-7 13,-8 15,-8 13,-7 10,-5 5,-5 10,-5 11,-8 12,-8 13,-7 13,-8 10,-8 7,-5 -5,23 -17,36 -18,33 -13,20 -5,5 v 3 2 l 5,3 8,10 12,20 8,23 5,18 -15,-3 -18,-5 -18,-5 -20,-7 -20,-8 -18,-8 -13,-2 h -10 l -15,5 -21,5 -20,5 z"
   id="path460"
   inkscape:connector-curvature="0"
   style="fill:#bfccd8;stroke:none" />
        </g>
       </g>
      </g>
     </g>
    </g>
   </g>
  </g>
 </g>
</svg>