<?xml version="1.0" encoding="UTF-8" standalone="no"?>
<svg
   xmlns:ooo="http://xml.openoffice.org/svg/export"
   xmlns:dc="http://purl.org/dc/elements/1.1/"
   xmlns:cc="http://creativecommons.org/ns#"
   xmlns:rdf="http://www.w3.org/1999/02/22-rdf-syntax-ns#"
   xmlns:svg="http://www.w3.org/2000/svg"
   xmlns="http://www.w3.org/2000/svg"
   xmlns:sodipodi="http://sodipodi.sourceforge.net/DTD/sodipodi-0.dtd"
   xmlns:inkscape="http://www.inkscape.org/namespaces/inkscape"
   version="1.2"
   width="62.709999mm"
   height="55.09mm"
   viewBox="0 0 6270.9999 5509"
   preserveAspectRatio="xMidYMid"
   xml:space="preserve"
   id="svg165"
   sodipodi:docname="friends.svg"
   style="fill-rule:evenodd;stroke-width:28.22200012;stroke-linejoin:round"
   inkscape:version="0.92.5 (2060ec1f9f, 2020-04-08)"><metadata
   id="metadata169"><rdf:RDF><cc:Work
       rdf:about=""><dc:format>image/svg+xml</dc:format><dc:type
         rdf:resource="http://purl.org/dc/dcmitype/StillImage" /></cc:Work></rdf:RDF></metadata><sodipodi:namedview
   pagecolor="#ffffff"
   bordercolor="#666666"
   borderopacity="1"
   objecttolerance="10"
   gridtolerance="10"
   guidetolerance="10"
   inkscape:pageopacity="0"
   inkscape:pageshadow="2"
   inkscape:window-width="664"
   inkscape:window-height="487"
   id="namedview167"
   showgrid="false"
   inkscape:zoom="0.2102413"
   inkscape:cx="118.52598"
   inkscape:cy="104.08819"
   inkscape:window-x="0"
   inkscape:window-y="0"
   inkscape:window-maximized="0"
   inkscape:current-layer="svg165" />
 <defs
   class="ClipPathGroup"
   id="defs8">
  <clipPath
   id="presentation_clip_path"
   clipPathUnits="userSpaceOnUse">
   <rect
   x="0"
   y="0"
   width="21000"
   height="29700"
   id="rect2" />
  </clipPath>
  <clipPath
   id="presentation_clip_path_shrink"
   clipPathUnits="userSpaceOnUse">
   <rect
   x="21"
   y="29"
   width="20958"
   height="29641"
   id="rect5" />
  </clipPath>
 </defs>
 <defs
   class="TextShapeIndex"
   id="defs12">
  <g
   ooo:slide="id1"
   ooo:id-list="id3"
   id="g10" />
 </defs>
 <defs
   class="EmbeddedBulletChars"
   id="defs44">
  <g
   id="bullet-char-template-57356"
   transform="matrix(4.8828125e-4,0,0,-4.8828125e-4,0,0)">
   <path
   d="M 580,1141 1163,571 580,0 -4,571 Z"
   id="path14"
   inkscape:connector-curvature="0" />
  </g>
  <g
   id="bullet-char-template-57354"
   transform="matrix(4.8828125e-4,0,0,-4.8828125e-4,0,0)">
   <path
   d="M 8,1128 H 1137 V 0 H 8 Z"
   id="path17"
   inkscape:connector-curvature="0" />
  </g>
  <g
   id="bullet-char-template-10146"
   transform="matrix(4.8828125e-4,0,0,-4.8828125e-4,0,0)">
   <path
   d="M 174,0 602,739 174,1481 1456,739 Z M 1358,739 309,1346 659,739 Z"
   id="path20"
   inkscape:connector-curvature="0" />
  </g>
  <g
   id="bullet-char-template-10132"
   transform="matrix(4.8828125e-4,0,0,-4.8828125e-4,0,0)">
   <path
   d="M 2015,739 1276,0 H 717 l 543,543 H 174 v 393 h 1086 l -543,545 h 557 z"
   id="path23"
   inkscape:connector-curvature="0" />
  </g>
  <g
   id="bullet-char-template-10007"
   transform="matrix(4.8828125e-4,0,0,-4.8828125e-4,0,0)">
   <path
   d="m 0,-2 c -7,16 -16,29 -25,39 l 381,530 c -94,256 -141,385 -141,387 0,25 13,38 40,38 9,0 21,-2 34,-5 21,4 42,12 65,25 l 27,-13 111,-251 280,301 64,-25 24,25 c 21,-10 41,-24 62,-43 C 886,937 835,863 770,784 769,783 710,716 594,584 L 774,223 c 0,-27 -21,-55 -63,-84 l 16,-20 C 717,90 699,76 672,76 641,76 570,178 457,381 L 164,-76 c -22,-34 -53,-51 -92,-51 -42,0 -63,17 -64,51 -7,9 -10,24 -10,44 0,9 1,19 2,30 z"
   id="path26"
   inkscape:connector-curvature="0" />
  </g>
  <g
   id="bullet-char-template-10004"
   transform="matrix(4.8828125e-4,0,0,-4.8828125e-4,0,0)">
   <path
   d="M 285,-33 C 182,-33 111,30 74,156 52,228 41,333 41,471 c 0,78 14,145 41,201 34,71 87,106 158,106 53,0 88,-31 106,-94 l 23,-176 c 8,-64 28,-97 59,-98 l 735,706 c 11,11 33,17 66,17 42,0 63,-15 63,-46 V 965 c 0,-36 -10,-64 -30,-84 L 442,47 C 390,-6 338,-33 285,-33 Z"
   id="path29"
   inkscape:connector-curvature="0" />
  </g>
  <g
   id="bullet-char-template-9679"
   transform="matrix(4.8828125e-4,0,0,-4.8828125e-4,0,0)">
   <path
   d="M 813,0 C 632,0 489,54 383,161 276,268 223,411 223,592 c 0,181 53,324 160,431 106,107 249,161 430,161 179,0 323,-54 432,-161 108,-107 162,-251 162,-431 0,-180 -54,-324 -162,-431 C 1136,54 992,0 813,0 Z"
   id="path32"
   inkscape:connector-curvature="0" />
  </g>
  <g
   id="bullet-char-template-8226"
   transform="matrix(4.8828125e-4,0,0,-4.8828125e-4,0,0)">
   <path
   d="m 346,457 c -73,0 -137,26 -191,78 -54,51 -81,114 -81,188 0,73 27,136 81,188 54,52 118,78 191,78 73,0 134,-26 185,-79 51,-51 77,-114 77,-187 0,-75 -25,-137 -76,-188 -50,-52 -112,-78 -186,-78 z"
   id="path35"
   inkscape:connector-curvature="0" />
  </g>
  <g
   id="bullet-char-template-8211"
   transform="matrix(4.8828125e-4,0,0,-4.8828125e-4,0,0)">
   <path
   d="M -4,459 H 1135 V 606 H -4 Z"
   id="path38"
   inkscape:connector-curvature="0" />
  </g>
  <g
   id="bullet-char-template-61548"
   transform="matrix(4.8828125e-4,0,0,-4.8828125e-4,0,0)">
   <path
   d="m 173,740 c 0,163 58,303 173,419 116,115 255,173 419,173 163,0 302,-58 418,-173 116,-116 174,-256 174,-419 0,-163 -58,-303 -174,-418 C 1067,206 928,148 765,148 601,148 462,206 346,322 231,437 173,577 173,740 Z"
   id="path41"
   inkscape:connector-curvature="0" />
  </g>
 </defs>
 <g
   id="g49"
   transform="translate(-7364,-12095)">
  <g
   id="id2"
   class="Master_Slide">
   <g
   id="bg-id2"
   class="Background" />
   <g
   id="bo-id2"
   class="BackgroundObjects" />
  </g>
 </g>
 <g
   class="SlideGroup"
   id="g163"
   transform="translate(-7364,-12095)">
  <g
   id="g161">
   <g
   id="container-id1">
    <g
   id="id1"
   class="Slide"
   clip-path="url(#presentation_clip_path)">
     <g
   class="Page"
   id="g157">
      <g
   class="Graphic"
   id="g155">
       <g
   id="id3">
        <rect
   class="BoundingBox"
   x="7364"
   y="12095"
   width="6271"
   height="5509"
   id="rect51"
   style="fill:none;stroke:none" />
        <defs
   id="defs56">
         <clipPath
   id="clip_path_1"
   clipPathUnits="userSpaceOnUse">
          <path
   d="m 7364,12095 h 6270 v 5508 H 7364 Z"
   id="path53"
   inkscape:connector-curvature="0" />
         </clipPath>
        </defs>
        <g
   clip-path="url(#clip_path_1)"
   id="g152">
         <path
   d="m 10027,16318 h 579 l -162,1286 h -951 z"
   id="path58"
   inkscape:connector-curvature="0"
   style="fill:#ffcc00;stroke:none" />
         <path
   d="m 9331,16318 h 579 l -531,1286 h -950 z"
   id="path60"
   inkscape:connector-curvature="0"
   style="fill:#ffcc00;stroke:none" />
         <path
   d="m 8637,16318 h 579 l -902,1286 h -950 z"
   id="path62"
   inkscape:connector-curvature="0"
   style="fill:#ffcc00;stroke:none" />
         <path
   d="m 12154,16318 h 670 l 811,1286 h -948 z"
   id="path64"
   inkscape:connector-curvature="0"
   style="fill:#ffcc00;stroke:none" />
         <path
   d="m 11417,16318 h 622 l 531,1286 h -945 z"
   id="path66"
   inkscape:connector-curvature="0"
   style="fill:#ffcc00;stroke:none" />
         <path
   d="m 10721,16318 h 579 l 208,1286 h -950 z"
   id="path68"
   inkscape:connector-curvature="0"
   style="fill:#ffcc00;stroke:none" />
         <path
   d="m 11221,13195 -213,300 284,333 226,-239 z"
   id="path70"
   inkscape:connector-curvature="0"
   style="fill:#007fff;stroke:none" />
         <path
   d="m 11424,13160 -287,322 359,514 317,-407 z"
   id="path72"
   inkscape:connector-curvature="0"
   style="fill:#7f0000;stroke:none" />
         <path
   d="m 11699,13185 -430,165 120,359 -99,668 734,38 -30,-549 z"
   id="path74"
   inkscape:connector-curvature="0"
   style="fill:#ff7f00;stroke:none" />
         <path
   d="m 11661,14341 -107,562 381,18 h 437 l -91,-564 z"
   id="path76"
   inkscape:connector-curvature="0"
   style="fill:#9999ff;stroke:none" />
         <path
   d="m 11694,13983 533,-8 16,453 -509,53 z"
   id="path78"
   inkscape:connector-curvature="0"
   style="fill:#1933ff;stroke:none" />
         <path
   d="m 11518,13462 338,-130 384,87 61,724 -696,137 z"
   id="path80"
   inkscape:connector-curvature="0"
   style="fill:#33ff99;stroke:none" />
         <path
   d="m 11706,13531 -210,-158 -412,615 229,46 z"
   id="path82"
   inkscape:connector-curvature="0"
   style="fill:#000000;stroke:none" />
         <path
   d="m 11968,12690 168,200 -18,239 -109,61 15,226 -279,36 12,-168 -112,-18 -53,-71 -30,-112 -56,-25 101,-185 105,-183 z"
   id="path84"
   inkscape:connector-curvature="0"
   style="fill:#000000;stroke:none" />
         <path
   d="m 11745,13452 30,-89 -328,5 -432,602 239,287 221,-71 -150,389 463,109 -99,-673 -31,-269 -99,22 z"
   id="path86"
   inkscape:connector-curvature="0"
   style="fill:#ff0000;stroke:none" />
         <path
   d="m 11671,13307 155,313 15,449 -417,216 8,-73 318,-229 -26,-330 -162,-326 z"
   id="path88"
   inkscape:connector-curvature="0"
   style="fill:#ff7f00;stroke:none" />
         <path
   d="m 11562,13998 259,-129 -61,-59 -323,43 z"
   id="path90"
   inkscape:connector-curvature="0"
   style="fill:#1933ff;stroke:none" />
         <path
   d="m 11574,14786 425,-58 -318,1090 -122,-21 -168,-129 z"
   id="path92"
   inkscape:connector-curvature="0"
   style="fill:#1933ff;stroke:none" />
         <path
   d="m 12347,14938 -389,105 193,851 193,-20 71,-87 z"
   id="path94"
   inkscape:connector-curvature="0"
   style="fill:#000000;stroke:none" />
         <path
   d="m 11752,15774 -277,72 186,686 183,61 z"
   id="path96"
   inkscape:connector-curvature="0"
   style="fill:#000000;stroke:none" />
         <path
   d="m 12126,16003 272,-51 5,669 -176,83 z"
   id="path98"
   inkscape:connector-curvature="0"
   style="fill:#ff0000;stroke:none" />
         <path
   d="m 11618,16605 -280,181 -89,99 259,135 191,-191 134,-18 -30,-175 z"
   id="path100"
   inkscape:connector-curvature="0"
   style="fill:#7f00ff;stroke:none" />
         <path
   d="m 12339,16710 330,144 117,122 -226,112 -234,-178 -144,-7 12,-130 z"
   id="path102"
   inkscape:connector-curvature="0"
   style="fill:#000000;stroke:none" />
         <path
   d="m 11785,13930 209,-64 -21,-211 -231,-56 -43,132 91,31 26,-46 45,3 -165,91 z"
   id="path104"
   inkscape:connector-curvature="0"
   style="fill:#000000;stroke:none" />
         <path
   d="m 8922,14728 409,-140 -94,1098 -122,35 -191,-94 z"
   id="path106"
   inkscape:connector-curvature="0"
   style="fill:#7f00ff;stroke:none" />
         <path
   d="m 9691,14623 -383,125 254,940 h 190 l 67,-91 z"
   id="path108"
   inkscape:connector-curvature="0"
   style="fill:#000000;stroke:none" />
         <path
   d="m 9272,15805 -261,-38 25,681 175,89 5,-237 56,-228 z"
   id="path110"
   inkscape:connector-curvature="0"
   style="fill:#000000;stroke:none" />
         <path
   d="m 9503,15647 270,127 -92,725 -129,30 -18,-272 -23,-137 z"
   id="path112"
   inkscape:connector-curvature="0"
   style="fill:#1933ff;stroke:none" />
         <path
   d="m 9021,16544 -285,176 -91,94 254,142 195,-185 138,-11 -28,-178 z"
   id="path114"
   inkscape:connector-curvature="0"
   style="fill:#ff0000;stroke:none" />
         <path
   d="m 9681,16555 323,162 112,127 -234,99 -226,-190 -142,-15 20,-130 z"
   id="path116"
   inkscape:connector-curvature="0"
   style="fill:#ff0000;stroke:none" />
         <path
   d="m 9028,14082 536,-8 v 102 l -510,120 z"
   id="path118"
   inkscape:connector-curvature="0"
   style="fill:#7f7fff;stroke:none" />
         <path
   d="m 8838,13322 343,-129 381,89 63,724 -698,135 z"
   id="path120"
   inkscape:connector-curvature="0"
   style="fill:#33ff99;stroke:none" />
         <path
   d="m 8957,13508 -208,-170 -409,399 78,243 z"
   id="path122"
   inkscape:connector-curvature="0"
   style="fill:#000000;stroke:none" />
         <path
   d="m 9582,13244 74,205 485,-114 23,-226 -145,23 z"
   id="path124"
   inkscape:connector-curvature="0"
   style="fill:#7f7fff;stroke:none" />
         <path
   d="m 8980,14202 -226,924 1197,161 -348,-1068 z"
   id="path126"
   inkscape:connector-curvature="0"
   style="fill:#1933ff;stroke:none" />
         <path
   d="m 8792,13843 452,61 23,427 -546,-71 z"
   id="path128"
   inkscape:connector-curvature="0"
   style="fill:#7f0000;stroke:none" />
         <path
   d="m 8673,13940 536,46 -26,477 -607,-12 z"
   id="path130"
   inkscape:connector-curvature="0"
   style="fill:#ff7f00;stroke:none" />
         <path
   d="m 8350,14041 394,364 66,-115 -384,-485 z"
   id="path132"
   inkscape:connector-curvature="0"
   style="fill:#1933ff;stroke:none" />
         <path
   d="m 10385,13251 170,-429 -132,-26 -249,384 z"
   id="path134"
   inkscape:connector-curvature="0"
   style="fill:#000000;stroke:none" />
         <path
   d="m 8673,14387 122,186 195,-82 -228,-223 z"
   id="path136"
   inkscape:connector-curvature="0"
   style="fill:#000000;stroke:none" />
         <path
   d="m 10538,12786 -206,-68 -41,-64 117,-38 -89,-206 43,-71 110,180 -49,-249 64,-23 48,267 25,-239 84,3 -38,269 82,-213 53,-13 -97,364 z"
   id="path138"
   inkscape:connector-curvature="0"
   style="fill:#7f00ff;stroke:none" />
         <path
   d="m 9066,12550 -165,201 16,238 111,64 3,23 2,58 v 74 l -12,71 15,48 20,41 26,36 28,28 30,22 31,18 33,13 30,5 28,-3 25,-5 21,-12 13,-21 7,-25 -2,-31 -11,-38 -20,-43 -10,-43 -5,-56 v -46 -20 l 114,-20 54,-71 28,-110 55,-28 -99,-185 -104,-183 z"
   id="path140"
   inkscape:connector-curvature="0"
   style="fill:#000000;stroke:none" />
         <path
   d="m 9102,12740 79,26 56,2 35,-12 26,-21 23,-23 25,-20 38,-10 58,8 18,-44 5,-40 -5,-38 -15,-33 -20,-31 -28,-25 -31,-23 -35,-15 -41,-11 -46,-7 h -51 -50 l -49,7 -43,11 -35,12 -26,16 -13,-36 -17,-43 -23,-49 -31,-48 -33,-46 -40,-43 -49,-35 -53,-23 -66,-10 -66,7 -61,21 -59,30 -45,38 -36,43 -23,44 -2,43 10,40 13,39 15,35 10,33 8,33 -3,31 -15,25 -28,23 46,-13 45,-20 44,-25 38,-31 33,-33 25,-30 18,-31 10,-23 5,-18 10,-15 13,-10 13,-3 h 15 l 13,8 12,15 8,23 10,26 21,20 22,15 26,13 28,10 28,8 23,5 h 20 l -18,40 -20,49 -26,56 -23,58 -17,56 -10,51 -3,43 13,30 35,41 36,36 35,28 33,20 31,13 h 25 l 18,-13 10,-25 21,-41 v -38 l -11,-38 -12,-38 -8,-34 5,-27 26,-23 z"
   id="path142"
   inkscape:connector-curvature="0"
   style="fill:#ff0000;stroke:none" />
         <path
   d="m 11948,13035 -5,28 -5,36 -5,40 -8,44 -8,43 -15,38 -15,33 -23,25 h 23 30 l 33,-5 38,-7 39,-11 40,-10 43,-15 41,-15 41,-15 38,-18 35,-18 31,-20 28,-21 20,-20 15,-20 8,-21 v -25 l -2,-33 -8,-38 -13,-46 -18,-48 -22,-51 -28,-53 -33,-49 -39,-48 -43,-43 -45,-38 -54,-31 -58,-20 -64,-10 h -68 l -74,15 -71,23 -59,20 -50,20 -39,21 -33,18 -23,17 -17,18 -13,18 -8,15 -5,18 v 15 15 18 16 17 l -2,18 40,15 44,13 48,8 46,2 48,-5 43,-10 38,-20 33,-31 41,20 30,23 23,26 18,25 13,28 5,26 2,22 z"
   id="path144"
   inkscape:connector-curvature="0"
   style="fill:#7f00ff;stroke:none" />
         <path
   d="m 9105,12946 -31,193 86,16 z"
   id="path146"
   inkscape:connector-curvature="0"
   style="fill:#1933ff;stroke:none" />
         <path
   d="m 12426,14288 -31,406 -373,-81 119,-770 -64,-500 158,40 605,348 142,247 -310,564 -206,-218 79,-290 -112,-64 z"
   id="path148"
   inkscape:connector-curvature="0"
   style="fill:#ff0000;stroke:none" />
         <path
   d="m 12405,14395 -165,150 109,183 239,-51 -20,-138 -97,11 -5,56 -40,15 109,-155 z"
   id="path150"
   inkscape:connector-curvature="0"
   style="fill:#000000;stroke:none" />
        </g>
       </g>
      </g>
     </g>
    </g>
   </g>
  </g>
 </g>
</svg>