<?xml version="1.0" encoding="UTF-8" standalone="no"?>
<svg
   xmlns:ooo="http://xml.openoffice.org/svg/export"
   xmlns:dc="http://purl.org/dc/elements/1.1/"
   xmlns:cc="http://creativecommons.org/ns#"
   xmlns:rdf="http://www.w3.org/1999/02/22-rdf-syntax-ns#"
   xmlns:svg="http://www.w3.org/2000/svg"
   xmlns="http://www.w3.org/2000/svg"
   xmlns:sodipodi="http://sodipodi.sourceforge.net/DTD/sodipodi-0.dtd"
   xmlns:inkscape="http://www.inkscape.org/namespaces/inkscape"
   version="1.2"
   width="109.78mm"
   height="68.43mm"
   viewBox="0 0 10978 6843"
   preserveAspectRatio="xMidYMid"
   xml:space="preserve"
   id="svg247"
   sodipodi:docname="garlic2.svg"
   style="fill-rule:evenodd;stroke-width:28.22200012;stroke-linejoin:round"
   inkscape:version="0.92.5 (2060ec1f9f, 2020-04-08)"><metadata
   id="metadata251"><rdf:RDF><cc:Work
       rdf:about=""><dc:format>image/svg+xml</dc:format><dc:type
         rdf:resource="http://purl.org/dc/dcmitype/StillImage" /></cc:Work></rdf:RDF></metadata><sodipodi:namedview
   pagecolor="#ffffff"
   bordercolor="#666666"
   borderopacity="1"
   objecttolerance="10"
   gridtolerance="10"
   guidetolerance="10"
   inkscape:pageopacity="0"
   inkscape:pageshadow="2"
   inkscape:window-width="664"
   inkscape:window-height="487"
   id="namedview249"
   showgrid="false"
   inkscape:zoom="0.2102413"
   inkscape:cx="207.45827"
   inkscape:cy="129.29764"
   inkscape:window-x="0"
   inkscape:window-y="0"
   inkscape:window-maximized="0"
   inkscape:current-layer="svg247" />
 <defs
   class="ClipPathGroup"
   id="defs8">
  <clipPath
   id="presentation_clip_path"
   clipPathUnits="userSpaceOnUse">
   <rect
   x="0"
   y="0"
   width="21000"
   height="29700"
   id="rect2" />
  </clipPath>
  <clipPath
   id="presentation_clip_path_shrink"
   clipPathUnits="userSpaceOnUse">
   <rect
   x="21"
   y="29"
   width="20958"
   height="29641"
   id="rect5" />
  </clipPath>
 </defs>
 <defs
   class="TextShapeIndex"
   id="defs12">
  <g
   ooo:slide="id1"
   ooo:id-list="id3"
   id="g10" />
 </defs>
 <defs
   class="EmbeddedBulletChars"
   id="defs44">
  <g
   id="bullet-char-template-57356"
   transform="matrix(4.8828125e-4,0,0,-4.8828125e-4,0,0)">
   <path
   d="M 580,1141 1163,571 580,0 -4,571 Z"
   id="path14"
   inkscape:connector-curvature="0" />
  </g>
  <g
   id="bullet-char-template-57354"
   transform="matrix(4.8828125e-4,0,0,-4.8828125e-4,0,0)">
   <path
   d="M 8,1128 H 1137 V 0 H 8 Z"
   id="path17"
   inkscape:connector-curvature="0" />
  </g>
  <g
   id="bullet-char-template-10146"
   transform="matrix(4.8828125e-4,0,0,-4.8828125e-4,0,0)">
   <path
   d="M 174,0 602,739 174,1481 1456,739 Z M 1358,739 309,1346 659,739 Z"
   id="path20"
   inkscape:connector-curvature="0" />
  </g>
  <g
   id="bullet-char-template-10132"
   transform="matrix(4.8828125e-4,0,0,-4.8828125e-4,0,0)">
   <path
   d="M 2015,739 1276,0 H 717 l 543,543 H 174 v 393 h 1086 l -543,545 h 557 z"
   id="path23"
   inkscape:connector-curvature="0" />
  </g>
  <g
   id="bullet-char-template-10007"
   transform="matrix(4.8828125e-4,0,0,-4.8828125e-4,0,0)">
   <path
   d="m 0,-2 c -7,16 -16,29 -25,39 l 381,530 c -94,256 -141,385 -141,387 0,25 13,38 40,38 9,0 21,-2 34,-5 21,4 42,12 65,25 l 27,-13 111,-251 280,301 64,-25 24,25 c 21,-10 41,-24 62,-43 C 886,937 835,863 770,784 769,783 710,716 594,584 L 774,223 c 0,-27 -21,-55 -63,-84 l 16,-20 C 717,90 699,76 672,76 641,76 570,178 457,381 L 164,-76 c -22,-34 -53,-51 -92,-51 -42,0 -63,17 -64,51 -7,9 -10,24 -10,44 0,9 1,19 2,30 z"
   id="path26"
   inkscape:connector-curvature="0" />
  </g>
  <g
   id="bullet-char-template-10004"
   transform="matrix(4.8828125e-4,0,0,-4.8828125e-4,0,0)">
   <path
   d="M 285,-33 C 182,-33 111,30 74,156 52,228 41,333 41,471 c 0,78 14,145 41,201 34,71 87,106 158,106 53,0 88,-31 106,-94 l 23,-176 c 8,-64 28,-97 59,-98 l 735,706 c 11,11 33,17 66,17 42,0 63,-15 63,-46 V 965 c 0,-36 -10,-64 -30,-84 L 442,47 C 390,-6 338,-33 285,-33 Z"
   id="path29"
   inkscape:connector-curvature="0" />
  </g>
  <g
   id="bullet-char-template-9679"
   transform="matrix(4.8828125e-4,0,0,-4.8828125e-4,0,0)">
   <path
   d="M 813,0 C 632,0 489,54 383,161 276,268 223,411 223,592 c 0,181 53,324 160,431 106,107 249,161 430,161 179,0 323,-54 432,-161 108,-107 162,-251 162,-431 0,-180 -54,-324 -162,-431 C 1136,54 992,0 813,0 Z"
   id="path32"
   inkscape:connector-curvature="0" />
  </g>
  <g
   id="bullet-char-template-8226"
   transform="matrix(4.8828125e-4,0,0,-4.8828125e-4,0,0)">
   <path
   d="m 346,457 c -73,0 -137,26 -191,78 -54,51 -81,114 -81,188 0,73 27,136 81,188 54,52 118,78 191,78 73,0 134,-26 185,-79 51,-51 77,-114 77,-187 0,-75 -25,-137 -76,-188 -50,-52 -112,-78 -186,-78 z"
   id="path35"
   inkscape:connector-curvature="0" />
  </g>
  <g
   id="bullet-char-template-8211"
   transform="matrix(4.8828125e-4,0,0,-4.8828125e-4,0,0)">
   <path
   d="M -4,459 H 1135 V 606 H -4 Z"
   id="path38"
   inkscape:connector-curvature="0" />
  </g>
  <g
   id="bullet-char-template-61548"
   transform="matrix(4.8828125e-4,0,0,-4.8828125e-4,0,0)">
   <path
   d="m 173,740 c 0,163 58,303 173,419 116,115 255,173 419,173 163,0 302,-58 418,-173 116,-116 174,-256 174,-419 0,-163 -58,-303 -174,-418 C 1067,206 928,148 765,148 601,148 462,206 346,322 231,437 173,577 173,740 Z"
   id="path41"
   inkscape:connector-curvature="0" />
  </g>
 </defs>
 <g
   id="g49"
   transform="translate(-5011,-11428)">
  <g
   id="id2"
   class="Master_Slide">
   <g
   id="bg-id2"
   class="Background" />
   <g
   id="bo-id2"
   class="BackgroundObjects" />
  </g>
 </g>
 <g
   class="SlideGroup"
   id="g245"
   transform="translate(-5011,-11428)">
  <g
   id="g243">
   <g
   id="container-id1">
    <g
   id="id1"
   class="Slide"
   clip-path="url(#presentation_clip_path)">
     <g
   class="Page"
   id="g239">
      <g
   class="Graphic"
   id="g237">
       <g
   id="id3">
        <rect
   class="BoundingBox"
   x="5011"
   y="11428"
   width="10978"
   height="6843"
   id="rect51"
   style="fill:none;stroke:none" />
        <defs
   id="defs56">
         <clipPath
   id="clip_path_1"
   clipPathUnits="userSpaceOnUse">
          <path
   d="m 5011,11428 h 10977 v 6842 H 5011 Z"
   id="path53"
   inkscape:connector-curvature="0" />
         </clipPath>
        </defs>
        <g
   clip-path="url(#clip_path_1)"
   id="g234">
         <path
   d="m 10679,18271 36,-53 28,-59 20,-63 13,-64 7,-66 5,-66 3,-66 v -64 -94 l -5,-61 -5,-38 -10,-23 -18,-17 -21,-21 -30,-30 -36,-51 21,-25 25,-33 28,-36 31,-41 25,-40 20,-38 10,-39 v -30 l -10,-20 -17,-16 -23,-15 -31,-10 -35,-10 -39,-5 -40,-8 -43,-2 -41,-6 -41,-2 -38,-5 -33,-3 -30,-5 -23,-5 -18,-7 -8,-8 v -15 l 8,-11 15,-12 26,-13 30,-15 36,-15 40,-18 46,-21 46,-20 48,-20 48,-26 49,-25 45,-25 44,-31 38,-30 35,-33 28,-36 31,10 28,13 30,15 28,13 28,15 28,15 25,16 28,15 28,15 28,13 31,12 28,13 30,8 31,7 33,3 33,2 45,-5 44,-12 38,-21 40,-20 41,-18 41,-15 45,-8 49,5 30,-78 -18,-31 -28,-5 -33,-8 -33,-7 -35,-10 -36,-10 -38,-16 -35,-15 -36,-18 -33,-18 -30,-20 -28,-23 -26,-25 -20,-28 -15,-28 -11,-33 -2,-33 84,-127 48,-104 18,-87 -5,-66 -16,-56 -22,-48 -18,-41 -5,-40 10,-8 13,-2 12,2 13,3 30,22 44,36 45,51 51,53 51,59 46,53 35,46 28,35 -33,72 -23,61 -10,50 -5,41 5,33 13,28 18,20 25,16 26,15 30,10 33,10 33,10 33,10 33,16 31,15 28,23 17,23 36,43 46,53 50,51 49,36 38,5 25,-36 v -91 l -23,-18 -30,-26 -31,-30 -33,-33 -30,-36 -23,-33 -20,-33 -8,-30 -33,-8 h -33 l -33,3 -30,5 h -34 l -33,-3 -33,-7 -33,-21 -5,-35 v -38 l 10,-36 16,-33 81,13 79,23 73,30 72,36 68,40 69,46 63,48 66,49 64,48 66,46 66,43 66,40 71,36 71,31 77,20 81,13 15,-21 -25,-68 5,-21 25,13 28,15 26,13 27,15 26,13 28,15 28,13 28,10 28,13 28,10 28,10 27,8 31,5 28,5 30,5 h 31 l 25,-3 36,-5 41,-10 40,-15 33,-18 23,-25 5,-28 -15,-33 -150,-21 -140,-28 -132,-40 -124,-51 -117,-61 -109,-69 -105,-78 -96,-84 -92,-92 -86,-99 -81,-104 -79,-109 -74,-115 -68,-119 -69,-122 -63,-125 2,-61 -5,-61 -13,-58 -17,-56 -26,-51 -35,-50 -41,-44 -48,-38 25,-2 h 28 l 25,-3 23,-2 23,-11 18,-12 15,-18 8,-28 33,-8 33,-2 35,2 36,5 38,11 41,10 38,12 40,13 44,15 40,13 44,15 40,13 43,10 41,8 41,5 40,2 51,-5 43,-10 36,-15 35,-18 39,-13 43,-7 h 53 l 66,13 51,-59 -36,-89 -45,-5 -44,-5 -40,-8 -38,-7 -38,-10 -39,-11 -35,-10 -36,-12 -35,-11 -38,-7 -38,-10 -41,-8 -43,-8 -49,-5 -48,-2 h -53 l -31,-10 -17,-23 -8,-36 v -43 l 8,-43 10,-41 15,-35 15,-23 h 28 l 46,5 61,10 71,10 79,10 86,13 92,10 89,8 86,2 h 81 l 74,-7 61,-16 48,-22 31,-33 10,-44 -13,-56 31,-53 7,-46 -13,-38 -27,-28 -46,-23 -56,-15 -64,-8 -71,-5 -78,3 -77,8 -78,10 -74,12 -66,16 -61,17 -46,21 -35,20 -28,3 h -26 l -23,-3 -20,-7 -20,-11 -13,-15 -13,-20 -5,-31 84,-89 81,31 130,-87 -10,-22 10,-39 43,-5 38,-2 36,5 33,8 33,7 35,10 36,10 41,6 10,-28 18,-41 12,-43 3,-26 -56,-38 5,-15 94,-5 h 48 l 49,5 48,5 46,10 45,15 46,16 46,20 43,20 43,23 41,23 40,28 41,25 41,28 38,31 38,28 38,30 13,11 20,15 20,15 16,5 28,-13 20,-104 -26,-30 -30,-31 -36,-33 -40,-30 -46,-31 -48,-30 -51,-28 -53,-26 -54,-22 -53,-21 -51,-15 -51,-13 -51,-5 -45,-2 -41,5 -38,10 -74,-69 18,-23 18,-15 23,-10 23,-8 28,-2 h 25 l 30,5 28,5 31,8 28,7 30,8 28,10 28,5 26,8 25,2 23,3 h 28 l 28,-3 h 30 l 28,-5 28,-2 28,-3 28,-5 31,-3 27,-2 28,-5 28,-3 31,-5 28,-2 h 28 l 30,-3 h 28 l 102,3 99,12 99,16 97,20 94,25 91,28 91,28 87,31 86,33 82,28 76,28 73,25 72,20 66,16 61,12 58,3 38,-3 41,-5 40,-10 44,-15 40,-18 41,-20 38,-23 36,-28 30,-31 28,-30 23,-33 18,-38 12,-36 5,-40 -5,-41 -10,-41 -79,-18 -76,-15 -79,-15 -78,-15 -79,-13 -79,-13 -79,-12 -78,-11 -79,-7 -79,-10 -81,-8 -79,-5 -79,-5 -78,-5 -82,-3 -78,-2 457,-237 5,-17 -46,-21 -38,16 -58,17 -71,21 -87,25 -94,28 -102,28 -106,28 -104,28 -107,30 -99,26 -92,25 -81,21 -69,17 -53,16 -33,10 -13,2 v 36 l -5,28 -7,23 -10,15 -18,13 -23,5 -28,2 -38,-2 -59,-87 -119,-35 -18,-79 562,-503 -381,195 12,-38 16,-35 20,-31 23,-28 25,-25 26,-23 30,-23 30,-20 31,-20 33,-21 31,-20 30,-20 28,-23 28,-26 25,-25 23,-31 20,-33 18,-35 16,-36 12,-38 13,-38 15,-36 13,-38 18,-35 h 7 l 10,2 8,3 8,5 15,112 5,99 -3,86 -10,79 -20,69 -25,61 -36,55 -41,49 -48,48 -56,43 -61,41 -66,40 -74,44 -78,43 -84,48 -89,54 -3,10 v 12 16 l 5,10 54,-15 56,-18 58,-21 56,-22 56,-26 58,-25 56,-28 56,-31 56,-33 53,-33 51,-33 51,-38 48,-38 46,-38 43,-41 38,-40 16,-74 15,-102 10,-117 8,-122 -8,-117 -20,-101 -38,-76 -64,-41 -66,30 -56,28 -48,28 -38,31 -36,38 -25,46 -21,58 -15,74 -28,30 -28,31 -28,28 -30,28 -31,28 -30,28 -31,28 -30,28 -31,25 -30,28 -31,28 -28,28 -30,28 -28,30 -28,31 -28,30 -43,54 -38,55 -33,56 -31,56 -28,54 -28,53 -27,53 -31,51 -33,46 -38,46 -43,38 -51,38 -59,30 -66,26 -78,20 -89,13 -28,38 -36,46 -40,48 -44,46 -45,43 -46,38 -48,23 -46,10 -38,-25 -15,-54 -18,-53 -13,-53 v -54 l 71,-30 66,-31 64,-28 61,-28 56,-30 50,-33 49,-33 43,-36 38,-40 36,-46 30,-51 23,-53 20,-64 13,-69 10,-76 3,-86 -3,-74 -10,-74 -20,-71 -33,-68 -28,-5 -23,10 -23,23 -20,33 -18,35 -15,36 -11,33 -7,23 -56,10 -56,15 -53,15 -54,18 -56,23 -50,23 -51,25 -51,31 -46,30 -45,36 -44,35 -40,41 -38,43 -36,46 -30,48 -28,51 -166,-122 8,-25 13,-21 20,-17 20,-21 23,-25 18,-31 13,-43 5,-58 -13,-51 -30,-23 h -44 l -50,18 -56,28 -51,35 -41,33 -28,26 -7,41 -21,22 -35,8 -41,-5 -46,-13 -43,-15 -38,-18 -30,-13 -8,-10 -3,-15 3,-15 5,-13 61,-28 59,-30 55,-31 56,-35 51,-41 46,-41 38,-43 36,-46 25,-48 18,-51 10,-53 -3,-56 -12,-58 -23,-59 -36,-63 -51,-64 -63,-2 -59,2 -53,8 -48,15 -46,25 -46,31 -43,38 -46,46 h -12 -16 l -15,-3 -12,-2 -16,-77 -23,-73 -30,-69 -38,-63 -46,-59 -53,-51 -61,-43 -71,-35 -11,-61 v -69 l 3,-76 v -74 l -10,-71 -20,-61 -41,-51 -66,-33 -28,15 -23,21 -20,22 -18,28 -15,28 -13,28 -15,28 -18,26 -114,33 -102,45 -89,59 -79,71 -66,81 -53,87 -41,94 -28,99 -15,104 v 102 l 13,104 28,101 40,100 56,91 71,86 87,79 -49,145 -35,-38 -36,-43 -33,-49 -35,-48 -33,-53 -33,-51 -36,-53 -35,-51 -36,-48 -38,-46 -41,-41 -43,-35 -43,-31 -48,-20 -51,-15 -56,-6 -46,3 -46,8 -43,7 -43,10 -46,13 -43,8 -46,7 -45,3 -41,-5 -38,-15 -36,-23 -33,-31 -30,-35 -28,-38 -28,-39 -26,-40 -25,-38 -25,-36 -26,-30 -25,-23 -26,-16 -25,-5 -28,5 -30,21 -3,66 3,63 10,56 15,51 20,46 26,43 28,41 30,38 36,38 35,35 36,36 38,38 38,36 38,38 36,43 33,43 35,54 26,50 20,46 18,43 23,44 28,45 40,49 59,50 -46,56 -30,-5 h -33 l -33,3 -33,2 -36,5 -36,8 -35,5 -36,5 -33,3 -35,2 h -31 l -33,-5 -28,-7 -28,-11 -25,-17 -23,-23 -84,56 43,111 49,92 53,76 56,61 58,48 59,36 61,28 61,18 58,15 56,10 53,8 51,10 46,10 43,15 33,21 28,28 -97,203 -76,-33 -76,-28 -74,-25 -73,-21 -71,-20 -72,-18 -71,-20 -66,-23 -68,-26 -66,-30 -64,-36 -61,-40 -61,-51 -58,-61 -56,-71 -56,-84 20,-99 8,-148 -5,-175 -13,-190 -23,-188 -28,-173 -38,-138 -43,-91 -28,-36 -30,-33 -34,-30 -33,-31 -33,-28 -35,-30 -33,-31 -31,-30 5,-43 v -46 -43 l -7,-46 -10,-41 -18,-40 -23,-38 -31,-33 -104,15 -86,30 -71,46 -54,56 -40,69 -28,73 -13,84 -2,87 5,91 15,92 23,91 30,89 36,86 41,79 43,74 45,63 18,21 21,23 22,22 28,23 28,26 31,23 30,25 31,25 33,26 33,23 33,23 30,22 31,23 28,21 25,17 26,18 78,188 -111,-30 -107,-33 -102,-38 -94,-41 -91,-43 -87,-43 -83,-49 -79,-48 -76,-51 -77,-51 -71,-53 -71,-53 -71,-54 -69,-53 -71,-51 -68,-53 -72,-51 -71,-51 -73,-48 -74,-49 -79,-43 -81,-43 -84,-41 -89,-35 -91,-36 -97,-30 -101,-26 -110,-22 -114,-18 -119,-13 -130,-8 -135,-2 h -28 l -33,-3 h -35 l -36,-2 h -38 -38 l -38,2 -36,5 -35,5 -33,11 -31,15 -25,18 -21,23 -17,27 -10,34 -3,38 13,61 30,76 48,84 59,89 61,84 63,76 59,61 48,43 84,58 81,46 76,38 74,26 71,17 71,11 69,5 h 69 l 68,-5 71,-8 71,-10 74,-10 76,-11 79,-7 84,-5 86,-3 94,3 94,12 89,16 89,20 87,25 83,28 84,31 79,30 81,31 77,30 76,28 76,26 74,20 73,15 71,10 72,3 33,20 48,26 58,35 64,36 58,41 49,38 30,38 8,30 -10,18 -18,13 -21,10 -25,5 -28,5 -25,5 -23,5 -21,8 -43,-13 -45,-15 -44,-15 -45,-16 -44,-15 -43,-15 -46,-15 -43,-16 -45,-12 -44,-13 -45,-13 -46,-10 -46,-7 -46,-6 -48,-2 -46,-3 -48,3 -46,10 -43,13 -45,15 -44,18 -43,18 -46,12 -45,13 -31,5 h -38 -46 -50 -54 -56 -58 -56 l -56,5 -53,8 -49,10 -43,13 -35,20 -31,23 -18,30 -7,36 7,38 26,38 35,41 46,35 51,31 51,28 45,15 39,8 223,254 59,5 58,-3 58,-7 61,-10 61,-16 61,-17 61,-21 64,-23 63,-28 61,-25 64,-31 63,-30 64,-28 63,-30 61,-31 64,-28 61,-25 61,-26 61,-23 61,-20 58,-15 56,-13 59,-7 55,-6 h 54 l 53,8 51,13 51,20 48,26 46,33 43,40 43,51 v 13 l -5,12 -8,16 -7,10 -18,2 h -18 l -20,-2 -20,-3 -21,-5 -20,-5 -20,-2 -16,-5 -38,20 -35,20 -38,20 -36,21 -38,20 -38,20 -36,21 -35,20 -38,20 -36,21 -38,23 -36,20 -35,23 -36,20 -35,23 -36,23 -18,38 -17,43 -11,43 5,44 49,5 25,-31 26,-28 27,-30 28,-28 31,-26 28,-28 30,-25 33,-25 31,-23 33,-23 33,-26 33,-20 33,-23 33,-20 36,-20 33,-21 198,31 v 10 l -3,10 -5,8 -5,7 -25,28 -38,33 -46,41 -56,46 -59,48 -63,53 -64,56 -63,59 -61,61 -56,61 -51,63 -40,64 -28,63 -18,64 v 61 l 15,58 104,-2 21,-66 25,-72 36,-71 38,-73 48,-77 51,-73 56,-71 61,-69 63,-66 66,-59 69,-53 71,-46 74,-38 71,-30 73,-18 72,-5 h 22 l 28,2 31,6 33,2 35,8 39,7 38,8 38,8 38,10 38,12 33,11 33,12 31,13 28,13 20,12 18,13 -18,239 -20,15 -23,5 h -23 l -23,-7 -23,-8 -23,-8 -23,-5 -23,-2 -20,2 -23,5 -30,11 -31,12 -35,16 -36,17 -38,18 -38,20 -41,21 -35,20 -38,20 -33,21 -31,18 -28,17 -23,16 -18,12 -30,-10 -28,-5 -28,-3 -28,6 -25,7 -23,15 -20,21 -21,28 18,40 20,38 26,41 28,36 28,35 33,33 35,33 36,28 40,26 39,20 43,18 43,13 43,10 46,2 h 46 l 45,-7 49,56 -84,88 25,49 71,-28 158,28 -20,89 -13,91 -8,92 -2,91 -51,26 -46,25 -46,28 -43,25 -46,21 -48,12 h -53 l -59,-12 13,-44 23,-38 30,-33 41,-30 41,-26 43,-22 43,-18 38,-18 13,-41 -10,-25 -38,15 -38,15 -36,18 -38,18 -38,18 -36,18 -35,17 -36,18 -36,20 -35,21 -36,20 -35,20 -36,21 -33,23 -35,20 -33,23 -8,56 51,30 53,18 51,10 h 48 l 51,-5 51,-10 48,-15 51,-18 48,-18 48,-20 49,-16 48,-12 48,-10 49,-3 48,5 48,13 26,48 35,41 41,38 45,30 49,28 51,26 50,20 49,20 10,56 -21,31 -22,28 -23,28 -26,25 -25,26 -28,22 -28,23 -30,21 -31,17 -33,18 -30,15 -33,13 -36,13 -33,10 -36,5 -35,5 -10,-56 15,-43 30,-38 41,-33 43,-31 33,-33 23,-38 -2,-43 -69,8 -61,23 -51,33 -43,45 -43,49 -38,53 -41,53 -41,49 -35,-11 -36,-10 -38,-5 -35,3 -31,7 -30,18 -23,28 -16,41 6,15 15,13 23,10 28,5 25,5 28,3 23,2 h 15 51 l 58,-5 64,-8 68,-10 72,-12 73,-18 71,-21 74,-22 69,-28 63,-31 61,-35 53,-41 46,-41 36,-48 25,-51 15,-56 33,-15 39,-18 40,-18 41,-22 41,-26 40,-28 41,-30 35,-33 31,-33 28,-36 18,-36 15,-38 2,-40 -5,-38 -15,-44 -28,-40 229,15 12,15 z"
   id="path58"
   inkscape:connector-curvature="0"
   style="fill:#000000;stroke:none" />
         <path
   d="m 10679,18271 v 0 l 36,-53 28,-59 20,-63 13,-64 7,-66 5,-66 3,-66 v -64 0 -94 l -5,-61 -5,-38 -10,-23 -18,-17 -21,-21 -30,-30 -36,-51 v 0 l 21,-25 25,-33 28,-36 31,-41 25,-40 20,-38 10,-39 v -30 0 l -10,-20 -17,-16 -23,-15 -31,-10 -35,-10 -39,-5 -40,-8 -43,-2 -41,-6 -41,-2 -38,-5 -33,-3 -30,-5 -23,-5 -18,-7 -8,-8 v -15 0 l 8,-11 15,-12 26,-13 30,-15 36,-15 40,-18 46,-21 46,-20 48,-20 48,-26 49,-25 45,-25 44,-31 38,-30 35,-33 28,-36 v 0 l 31,10 28,13 30,15 28,13 28,15 28,15 25,16 28,15 28,15 28,13 31,12 28,13 30,8 31,7 33,3 33,2 v 0 l 45,-5 44,-12 38,-21 40,-20 41,-18 41,-15 45,-8 49,5 30,-78 -18,-31 v 0 l -28,-5 -33,-8 -33,-7 -35,-10 -36,-10 -38,-16 -35,-15 -36,-18 -33,-18 -30,-20 -28,-23 -26,-25 -20,-28 -15,-28 -11,-33 -2,-33 v 0 l 84,-127 48,-104 18,-87 -5,-66 -16,-56 -22,-48 -18,-41 -5,-40 v 0 l 10,-8 13,-2 12,2 13,3 v 0 l 30,22 44,36 45,51 51,53 51,59 46,53 35,46 28,35 v 0 l -33,72 -23,61 -10,50 -5,41 5,33 13,28 18,20 25,16 26,15 30,10 33,10 33,10 33,10 33,16 31,15 28,23 v 0 l 17,23 36,43 46,53 50,51 49,36 38,5 25,-36 v -91 0 l -23,-18 -30,-26 -31,-30 -33,-33 -30,-36 -23,-33 -20,-33 -8,-30 v 0 l -33,-8 h -33 l -33,3 -30,5 h -34 l -33,-3 -33,-7 -33,-21 v 0 l -5,-35 v -38 l 10,-36 16,-33 v 0 l 81,13 79,23 73,30 72,36 68,40 69,46 63,48 66,49 64,48 66,46 66,43 66,40 71,36 71,31 77,20 81,13 15,-21 -25,-68 5,-21 v 0 l 25,13 28,15 26,13 27,15 26,13 28,15 28,13 28,10 28,13 28,10 28,10 27,8 31,5 28,5 30,5 h 31 v 0 l 25,-3 36,-5 41,-10 40,-15 33,-18 23,-25 5,-28 -15,-33 v 0 l -150,-21 -140,-28 -132,-40 -124,-51 -117,-61 -109,-69 -105,-78 -96,-84 -92,-92 -86,-99 -81,-104 -79,-109 -74,-115 -68,-119 -69,-122 -63,-125 v 0 l 2,-61 -5,-61 -13,-58 -17,-56 -26,-51 -35,-50 -41,-44 -48,-38 v 0 l 25,-2 h 28 l 25,-3 23,-2 23,-11 18,-12 15,-18 8,-28 v 0 l 33,-8 33,-2 35,2 36,5 38,11 41,10 38,12 40,13 44,15 40,13 44,15 40,13 43,10 41,8 41,5 40,2 v 0 l 51,-5 43,-10 36,-15 35,-18 39,-13 43,-7 h 53 l 66,13 51,-59 -36,-89 v 0 l -45,-5 -44,-5 -40,-8 -38,-7 -38,-10 -39,-11 -35,-10 -36,-12 -35,-11 -38,-7 -38,-10 -41,-8 -43,-8 -49,-5 -48,-2 h -53 v 0 l -31,-10 -17,-23 -8,-36 v -43 l 8,-43 10,-41 15,-35 15,-23 v 0 h 28 l 46,5 61,10 71,10 79,10 86,13 92,10 89,8 86,2 h 81 l 74,-7 61,-16 48,-22 31,-33 10,-44 -13,-56 v 0 l 31,-53 7,-46 -13,-38 -27,-28 -46,-23 -56,-15 -64,-8 -71,-5 -78,3 -77,8 -78,10 -74,12 -66,16 -61,17 -46,21 -35,20 v 0 l -28,3 h -26 l -23,-3 -20,-7 -20,-11 -13,-15 -13,-20 -5,-31 84,-89 81,31 130,-87 -10,-22 10,-39 v 0 l 43,-5 38,-2 36,5 33,8 33,7 35,10 36,10 41,6 v 0 l 10,-28 18,-41 12,-43 3,-26 -56,-38 5,-15 94,-5 v 0 h 48 l 49,5 48,5 46,10 45,15 46,16 46,20 43,20 43,23 41,23 40,28 41,25 41,28 38,31 38,28 38,30 v 0 l 13,11 20,15 20,15 16,5 28,-13 20,-104 v 0 l -26,-30 -30,-31 -36,-33 -40,-30 -46,-31 -48,-30 -51,-28 -53,-26 -54,-22 -53,-21 -51,-15 -51,-13 -51,-5 -45,-2 -41,5 -38,10 -74,-69 v 0 l 18,-23 18,-15 23,-10 23,-8 28,-2 h 25 l 30,5 28,5 31,8 28,7 30,8 28,10 28,5 26,8 25,2 23,3 v 0 h 28 l 28,-3 h 30 l 28,-5 28,-2 28,-3 28,-5 31,-3 27,-2 28,-5 28,-3 31,-5 28,-2 h 28 l 30,-3 h 28 v 0 l 102,3 99,12 99,16 97,20 94,25 91,28 91,28 87,31 86,33 82,28 76,28 73,25 72,20 66,16 61,12 58,3 v 0 l 38,-3 41,-5 40,-10 44,-15 40,-18 41,-20 38,-23 36,-28 30,-31 28,-30 23,-33 18,-38 12,-36 5,-40 -5,-41 -10,-41 v 0 l -79,-18 -76,-15 -79,-15 -78,-15 -79,-13 -79,-13 -79,-12 -78,-11 -79,-7 -79,-10 -81,-8 -79,-5 -79,-5 -78,-5 -82,-3 -78,-2 457,-237 5,-17 -46,-21 v 0 l -38,16 -58,17 -71,21 -87,25 -94,28 -102,28 -106,28 -104,28 -107,30 -99,26 -92,25 -81,21 -69,17 -53,16 -33,10 -13,2 v 0 36 l -5,28 -7,23 -10,15 -18,13 -23,5 -28,2 -38,-2 -59,-87 -119,-35 -18,-79 562,-503 -381,195 v 0 l 12,-38 16,-35 20,-31 23,-28 25,-25 26,-23 30,-23 30,-20 31,-20 33,-21 31,-20 30,-20 28,-23 28,-26 25,-25 23,-31 v 0 l 20,-33 18,-35 16,-36 12,-38 13,-38 15,-36 13,-38 18,-35 v 0 h 7 l 10,2 8,3 8,5 v 0 l 15,112 5,99 -3,86 -10,79 -20,69 -25,61 -36,55 -41,49 -48,48 -56,43 -61,41 -66,40 -74,44 -78,43 -84,48 -89,54 v 0 l -3,10 v 12 16 l 5,10 v 0 l 54,-15 56,-18 58,-21 56,-22 56,-26 58,-25 56,-28 56,-31 56,-33 53,-33 51,-33 51,-38 48,-38 46,-38 43,-41 38,-40 v 0 l 16,-74 15,-102 10,-117 8,-122 -8,-117 -20,-101 -38,-76 -64,-41 v 0 l -66,30 -56,28 -48,28 -38,31 -36,38 -25,46 -21,58 -15,74 v 0 l -28,30 -28,31 -28,28 -30,28 -31,28 -30,28 -31,28 -30,28 -31,25 -30,28 -31,28 -28,28 -30,28 -28,30 -28,31 -28,30 v 0 l -43,54 -38,55 -33,56 -31,56 -28,54 -28,53 -27,53 -31,51 -33,46 -38,46 -43,38 -51,38 -59,30 -66,26 -78,20 -89,13 v 0 l -28,38 -36,46 -40,48 -44,46 -45,43 -46,38 -48,23 -46,10 -38,-25 v 0 l -15,-54 -18,-53 -13,-53 v -54 0 l 71,-30 66,-31 64,-28 61,-28 56,-30 50,-33 49,-33 43,-36 38,-40 36,-46 30,-51 23,-53 20,-64 13,-69 10,-76 3,-86 v 0 l -3,-74 -10,-74 -20,-71 -33,-68 v 0 l -28,-5 -23,10 -23,23 -20,33 -18,35 -15,36 -11,33 -7,23 v 0 l -56,10 -56,15 -53,15 -54,18 -56,23 -50,23 -51,25 -51,31 -46,30 -45,36 -44,35 -40,41 -38,43 -36,46 -30,48 -28,51 -166,-122 v 0 l 8,-25 13,-21 20,-17 20,-21 23,-25 18,-31 13,-43 5,-58 v 0 l -13,-51 -30,-23 h -44 l -50,18 -56,28 -51,35 -41,33 -28,26 v 0 l -7,41 -21,22 -35,8 -41,-5 -46,-13 -43,-15 -38,-18 -30,-13 v 0 l -8,-10 -3,-15 3,-15 5,-13 v 0 l 61,-28 59,-30 55,-31 56,-35 51,-41 46,-41 38,-43 36,-46 25,-48 18,-51 10,-53 -3,-56 -12,-58 -23,-59 -36,-63 -51,-64 v 0 l -63,-2 -59,2 -53,8 -48,15 -46,25 -46,31 -43,38 -46,46 v 0 h -12 -16 l -15,-3 -12,-2 v 0 l -16,-77 -23,-73 -30,-69 -38,-63 -46,-59 -53,-51 -61,-43 -71,-35 v 0 l -11,-61 v -69 l 3,-76 v -74 l -10,-71 -20,-61 -41,-51 -66,-33 v 0 l -28,15 -23,21 -20,22 -18,28 -15,28 -13,28 -15,28 -18,26 v 0 l -114,33 -102,45 -89,59 -79,71 -66,81 -53,87 -41,94 -28,99 -15,104 v 102 l 13,104 28,101 40,100 56,91 71,86 87,79 -49,145 v 0 l -35,-38 -36,-43 -33,-49 -35,-48 -33,-53 -33,-51 -36,-53 -35,-51 -36,-48 -38,-46 -41,-41 -43,-35 -43,-31 -48,-20 -51,-15 -56,-6 v 0 l -46,3 -46,8 -43,7 -43,10 -46,13 -43,8 -46,7 -45,3 v 0 l -41,-5 -38,-15 -36,-23 -33,-31 -30,-35 -28,-38 -28,-39 -26,-40 -25,-38 -25,-36 -26,-30 -25,-23 -26,-16 -25,-5 -28,5 -30,21 v 0 l -3,66 3,63 10,56 15,51 20,46 26,43 28,41 30,38 36,38 35,35 36,36 38,38 38,36 38,38 36,43 33,43 v 0 l 35,54 26,50 20,46 18,43 23,44 28,45 40,49 59,50 -46,56 v 0 l -30,-5 h -33 l -33,3 -33,2 -36,5 -36,8 -35,5 -36,5 -33,3 -35,2 h -31 l -33,-5 -28,-7 -28,-11 -25,-17 -23,-23 -84,56 v 0 l 43,111 49,92 53,76 56,61 58,48 59,36 61,28 61,18 58,15 56,10 53,8 51,10 46,10 43,15 33,21 28,28 -97,203 v 0 l -76,-33 -76,-28 -74,-25 -73,-21 -71,-20 -72,-18 -71,-20 -66,-23 -68,-26 -66,-30 -64,-36 -61,-40 -61,-51 -58,-61 -56,-71 -56,-84 v 0 l 20,-99 8,-148 -5,-175 -13,-190 -23,-188 -28,-173 -38,-138 -43,-91 v 0 l -28,-36 -30,-33 -34,-30 -33,-31 -33,-28 -35,-30 -33,-31 -31,-30 v 0 l 5,-43 v -46 -43 l -7,-46 -10,-41 -18,-40 -23,-38 -31,-33 v 0 l -104,15 -86,30 -71,46 -54,56 -40,69 -28,73 -13,84 -2,87 5,91 15,92 23,91 30,89 36,86 41,79 43,74 45,63 v 0 l 18,21 21,23 22,22 28,23 28,26 31,23 30,25 31,25 33,26 33,23 33,23 30,22 31,23 28,21 25,17 26,18 78,188 v 0 l -111,-30 -107,-33 -102,-38 -94,-41 -91,-43 -87,-43 -83,-49 -79,-48 -76,-51 -77,-51 -71,-53 -71,-53 -71,-54 -69,-53 -71,-51 -68,-53 -72,-51 -71,-51 -73,-48 -74,-49 -79,-43 -81,-43 -84,-41 -89,-35 -91,-36 -97,-30 -101,-26 -110,-22 -114,-18 -119,-13 -130,-8 -135,-2 v 0 h -28 l -33,-3 h -35 l -36,-2 h -38 -38 l -38,2 -36,5 -35,5 -33,11 -31,15 -25,18 -21,23 -17,27 -10,34 -3,38 v 0 l 13,61 30,76 48,84 59,89 61,84 63,76 59,61 48,43 v 0 l 84,58 81,46 76,38 74,26 71,17 71,11 69,5 h 69 l 68,-5 71,-8 71,-10 74,-10 76,-11 79,-7 84,-5 86,-3 v 0 l 94,3 94,12 89,16 89,20 87,25 83,28 84,31 79,30 81,31 77,30 76,28 76,26 74,20 73,15 71,10 72,3 v 0 l 33,20 48,26 58,35 64,36 58,41 49,38 30,38 8,30 v 0 l -10,18 -18,13 -21,10 -25,5 -28,5 -25,5 -23,5 -21,8 v 0 l -43,-13 -45,-15 -44,-15 -45,-16 -44,-15 -43,-15 -46,-15 -43,-16 -45,-12 -44,-13 -45,-13 -46,-10 -46,-7 -46,-6 -48,-2 -46,-3 v 0 l -48,3 -46,10 -43,13 -45,15 -44,18 -43,18 -46,12 -45,13 v 0 l -31,5 h -38 -46 -50 -54 -56 -58 -56 l -56,5 -53,8 -49,10 -43,13 -35,20 -31,23 -18,30 -7,36 v 0 l 7,38 26,38 35,41 46,35 51,31 51,28 45,15 39,8 223,254 v 0 l 59,5 58,-3 58,-7 61,-10 61,-16 61,-17 61,-21 64,-23 63,-28 61,-25 64,-31 63,-30 64,-28 63,-30 61,-31 64,-28 61,-25 61,-26 61,-23 61,-20 58,-15 56,-13 59,-7 55,-6 h 54 l 53,8 51,13 51,20 48,26 46,33 43,40 43,51 v 0 13 l -5,12 -8,16 -7,10 v 0 l -18,2 h -18 l -20,-2 -20,-3 -21,-5 -20,-5 -20,-2 -16,-5 v 0 l -38,20 -35,20 -38,20 -36,21 -38,20 -38,20 -36,21 -35,20 -38,20 -36,21 -38,23 -36,20 -35,23 -36,20 -35,23 -36,23 v 0 l -18,38 -17,43 -11,43 5,44 49,5 v 0 l 25,-31 26,-28 27,-30 28,-28 31,-26 28,-28 30,-25 33,-25 31,-23 33,-23 33,-26 33,-20 33,-23 33,-20 36,-20 33,-21 198,31 v 0 10 l -3,10 -5,8 -5,7 v 0 l -25,28 -38,33 -46,41 -56,46 -59,48 -63,53 -64,56 -63,59 -61,61 -56,61 -51,63 -40,64 -28,63 -18,64 v 61 l 15,58 104,-2 v 0 l 21,-66 25,-72 36,-71 38,-73 48,-77 51,-73 56,-71 61,-69 63,-66 66,-59 69,-53 71,-46 74,-38 71,-30 73,-18 72,-5 v 0 h 22 l 28,2 31,6 33,2 35,8 39,7 38,8 38,8 38,10 38,12 33,11 33,12 31,13 28,13 20,12 18,13 -18,239 v 0 l -20,15 -23,5 h -23 l -23,-7 -23,-8 -23,-8 -23,-5 -23,-2 v 0 l -20,2 -23,5 -30,11 -31,12 -35,16 -36,17 -38,18 -38,20 -41,21 -35,20 -38,20 -33,21 -31,18 -28,17 -23,16 -18,12 v 0 l -30,-10 -28,-5 -28,-3 -28,6 -25,7 -23,15 -20,21 -21,28 v 0 l 18,40 20,38 26,41 28,36 28,35 33,33 35,33 36,28 40,26 39,20 43,18 43,13 43,10 46,2 h 46 l 45,-7 49,56 -84,88 25,49 71,-28 158,28 v 0 l -20,89 -13,91 -8,92 -2,91 v 0 l -51,26 -46,25 -46,28 -43,25 -46,21 -48,12 h -53 l -59,-12 v 0 l 13,-44 23,-38 30,-33 41,-30 41,-26 43,-22 43,-18 38,-18 13,-41 -10,-25 v 0 l -38,15 -38,15 -36,18 -38,18 -38,18 -36,18 -35,17 -36,18 -36,20 -35,21 -36,20 -35,20 -36,21 -33,23 -35,20 -33,23 -8,56 v 0 l 51,30 53,18 51,10 h 48 l 51,-5 51,-10 48,-15 51,-18 48,-18 48,-20 49,-16 48,-12 48,-10 49,-3 48,5 48,13 v 0 l 26,48 35,41 41,38 45,30 49,28 51,26 50,20 49,20 10,56 v 0 l -21,31 -22,28 -23,28 -26,25 -25,26 -28,22 -28,23 -30,21 -31,17 -33,18 -30,15 -33,13 -36,13 -33,10 -36,5 -35,5 v 0 l -10,-56 15,-43 30,-38 41,-33 43,-31 33,-33 23,-38 -2,-43 v 0 l -69,8 -61,23 -51,33 -43,45 -43,49 -38,53 -41,53 -41,49 v 0 l -35,-11 -36,-10 -38,-5 -35,3 -31,7 -30,18 -23,28 -16,41 v 0 l 6,15 15,13 23,10 28,5 25,5 28,3 23,2 h 15 v 0 h 51 l 58,-5 64,-8 68,-10 72,-12 73,-18 71,-21 74,-22 69,-28 63,-31 61,-35 53,-41 46,-41 36,-48 25,-51 15,-56 v 0 l 33,-15 39,-18 40,-18 41,-22 41,-26 40,-28 41,-30 35,-33 31,-33 28,-36 18,-36 15,-38 2,-40 -5,-38 -15,-44 -28,-40 229,15 12,15 z"
   id="path60"
   inkscape:connector-curvature="0"
   style="fill:none;stroke:#f4f4f4" />
         <path
   d="m 12839,16157 86,-46 -5,-20 -15,-13 -23,-10 -18,-8 -36,-20 -45,-31 -56,-38 -56,-40 -53,-38 -46,-33 -36,-23 -17,-10 -72,50 132,160 34,6 33,10 35,12 36,16 33,20 33,18 30,20 z"
   id="path62"
   inkscape:connector-curvature="0"
   style="fill:#000000;stroke:none" />
         <path
   d="m 12839,16157 86,-46 v 0 l -5,-20 -15,-13 -23,-10 -18,-8 v 0 l -36,-20 -45,-31 -56,-38 -56,-40 -53,-38 -46,-33 -36,-23 -17,-10 -72,50 132,160 v 0 l 34,6 33,10 35,12 36,16 33,20 33,18 30,20 z"
   id="path64"
   inkscape:connector-curvature="0"
   style="fill:none;stroke:#f4f4f4" />
         <path
   d="m 8253,15407 h 71 l 61,10 46,18 33,21 23,27 12,34 3,33 -5,35 -13,38 -18,36 -25,35 -28,31 -33,28 -38,25 -38,18 -38,10 -33,-40 10,-46 12,-46 5,-46 -10,-43 -101,13 -18,46 v 48 l 5,53 2,48 -45,-2 -46,-10 -43,-18 -36,-23 -33,-30 -25,-38 -15,-41 -5,-48 10,-72 30,-48 41,-30 48,-21 51,-15 46,-15 40,-18 23,-30 -10,-23 -18,-18 -25,-13 -33,-7 -38,-3 -41,5 -46,8 -43,15 -46,20 -43,26 -40,30 -39,36 -30,43 -23,46 -15,51 -5,58 10,81 30,69 46,58 61,49 71,38 79,28 86,15 89,2 87,-7 86,-18 79,-30 71,-44 61,-56 46,-66 30,-81 10,-91 -5,-64 -15,-53 -25,-46 -31,-38 -35,-31 -39,-22 -40,-18 -41,-8 -41,-5 -38,5 -30,8 -26,15 -17,20 -8,26 3,30 z"
   id="path66"
   inkscape:connector-curvature="0"
   style="fill:#000000;stroke:none" />
         <path
   d="m 8253,15407 v 0 h 71 l 61,10 46,18 33,21 23,27 12,34 3,33 -5,35 -13,38 -18,36 -25,35 -28,31 -33,28 -38,25 -38,18 -38,10 -33,-40 v 0 l 10,-46 12,-46 5,-46 -10,-43 -101,13 v 0 l -18,46 v 48 l 5,53 2,48 v 0 l -45,-2 -46,-10 -43,-18 -36,-23 -33,-30 -25,-38 -15,-41 -5,-48 v 0 l 10,-72 30,-48 41,-30 48,-21 51,-15 46,-15 40,-18 23,-30 v 0 l -10,-23 -18,-18 -25,-13 -33,-7 -38,-3 -41,5 -46,8 -43,15 -46,20 -43,26 -40,30 -39,36 -30,43 -23,46 -15,51 -5,58 v 0 l 10,81 30,69 46,58 61,49 71,38 79,28 86,15 89,2 87,-7 86,-18 79,-30 71,-44 61,-56 46,-66 30,-81 10,-91 v 0 l -5,-64 -15,-53 -25,-46 -31,-38 -35,-31 -39,-22 -40,-18 -41,-8 -41,-5 -38,5 -30,8 -26,15 -17,20 -8,26 3,30 z"
   id="path68"
   inkscape:connector-curvature="0"
   style="fill:none;stroke:#f4f4f4" />
         <path
   d="m 12925,15504 -36,-15 -96,58 -13,61 38,56 41,13 30,-3 21,-18 15,-25 8,-31 2,-35 -2,-33 z"
   id="path70"
   inkscape:connector-curvature="0"
   style="fill:#000000;stroke:none" />
         <path
   d="m 12925,15504 -36,-15 -96,58 -13,61 38,56 v 0 l 41,13 30,-3 21,-18 15,-25 8,-31 2,-35 -2,-33 z"
   id="path72"
   inkscape:connector-curvature="0"
   style="fill:none;stroke:#f4f4f4" />
         <path
   d="m 12493,15542 v -3 l -2,-5 -3,-2 -3,-3 -22,-12 -38,-26 -54,-35 -58,-39 -56,-40 -51,-38 -36,-26 -17,-15 -18,3 -15,7 -11,10 -5,18 28,53 36,51 43,46 48,38 54,26 56,15 61,-3 z"
   id="path74"
   inkscape:connector-curvature="0"
   style="fill:#000000;stroke:none" />
         <path
   d="m 12493,15542 v 0 -3 l -2,-5 -3,-2 -3,-3 v 0 l -22,-12 -38,-26 -54,-35 -58,-39 -56,-40 -51,-38 -36,-26 -17,-15 v 0 l -18,3 -15,7 -11,10 -5,18 v 0 l 28,53 36,51 43,46 48,38 54,26 56,15 61,-3 z"
   id="path76"
   inkscape:connector-curvature="0"
   style="fill:none;stroke:#f4f4f4" />
         <path
   d="m 10859,15539 227,-78 z"
   id="path78"
   inkscape:connector-curvature="0"
   style="fill:#f4f4f4;stroke:none" />
         <path
   d="m 10859,15539 227,-78 z"
   id="path80"
   inkscape:connector-curvature="0"
   style="fill:none;stroke:#f4f4f4" />
         <path
   d="m 12915,15265 -33,-15 -36,-16 -33,-12 -35,-13 -33,-13 -36,-12 -36,-13 -33,-10 -35,-13 -36,-10 -33,-13 -35,-10 -33,-13 -36,-12 -33,-13 -33,-15 -102,58 26,31 23,28 28,30 25,28 28,25 28,26 30,25 31,23 30,20 33,18 33,15 36,16 36,10 38,8 38,5 40,2 34,-2 35,-11 33,-15 31,-18 20,-25 13,-28 -3,-30 z"
   id="path82"
   inkscape:connector-curvature="0"
   style="fill:#000000;stroke:none" />
         <path
   d="m 12915,15265 v 0 l -33,-15 -36,-16 -33,-12 -35,-13 -33,-13 -36,-12 -36,-13 -33,-10 -35,-13 -36,-10 -33,-13 -35,-10 -33,-13 -36,-12 -33,-13 -33,-15 -102,58 v 0 l 26,31 23,28 28,30 25,28 28,25 28,26 30,25 31,23 30,20 33,18 33,15 36,16 36,10 38,8 38,5 40,2 v 0 l 34,-2 35,-11 33,-15 31,-18 20,-25 13,-28 -3,-30 z"
   id="path84"
   inkscape:connector-curvature="0"
   style="fill:none;stroke:#ffffff" />
         <path
   d="m 7577,14805 20,-25 21,-23 23,-21 25,-20 28,-18 28,-17 28,-18 28,-16 -3,-55 -33,-3 -94,48 -30,-15 -28,-15 -31,-20 -28,-21 -25,-20 -28,-23 -28,-23 -25,-20 -28,-21 -28,-20 -31,-18 -28,-17 -30,-13 -33,-10 -33,-5 -36,-3 -112,10 -96,31 -81,45 -67,59 -53,71 -38,79 -23,86 -7,87 5,86 20,86 35,79 49,69 61,61 76,45 89,31 104,10 53,-2 54,-8 48,-10 46,-15 45,-21 41,-25 36,-28 33,-31 28,-35 25,-38 18,-41 15,-46 8,-45 2,-51 -5,-51 z"
   id="path86"
   inkscape:connector-curvature="0"
   style="fill:#000000;stroke:none" />
         <path
   d="m 7577,14805 v 0 l 20,-25 21,-23 23,-21 25,-20 28,-18 28,-17 28,-18 28,-16 -3,-55 -33,-3 -94,48 v 0 l -30,-15 -28,-15 -31,-20 -28,-21 -25,-20 -28,-23 -28,-23 -25,-20 -28,-21 -28,-20 -31,-18 -28,-17 -30,-13 -33,-10 -33,-5 -36,-3 v 0 l -112,10 -96,31 -81,45 -67,59 -53,71 -38,79 -23,86 -7,87 5,86 20,86 35,79 49,69 61,61 76,45 89,31 104,10 v 0 l 53,-2 54,-8 48,-10 46,-15 45,-21 41,-25 36,-28 33,-31 28,-35 25,-38 18,-41 15,-46 8,-45 2,-51 -5,-51 z"
   id="path88"
   inkscape:connector-curvature="0"
   style="fill:none;stroke:#f4f4f4" />
         <path
   d="m 14056,14861 2,-10 3,-13 2,-13 -2,-12 -87,-26 -122,31 -81,-51 -2,-28 2,-28 8,-30 10,-26 -41,-46 -48,8 -38,18 -26,25 -20,33 -10,38 -3,41 3,43 8,43 10,23 15,21 23,12 28,8 33,2 h 35 l 38,-2 39,-5 40,-8 36,-7 35,-8 33,-10 28,-8 23,-7 18,-6 z"
   id="path90"
   inkscape:connector-curvature="0"
   style="fill:#000000;stroke:none" />
         <path
   d="m 14056,14861 v 0 l 2,-10 3,-13 2,-13 -2,-12 -87,-26 -122,31 -81,-51 v 0 l -2,-28 2,-28 8,-30 10,-26 -41,-46 v 0 l -48,8 -38,18 -26,25 -20,33 -10,38 -3,41 3,43 8,43 v 0 l 10,23 15,21 23,12 28,8 33,2 h 35 l 38,-2 39,-5 40,-8 36,-7 35,-8 33,-10 28,-8 23,-7 18,-6 z"
   id="path92"
   inkscape:connector-curvature="0"
   style="fill:none;stroke:#f4f4f4" />
         <path
   d="m 14604,14259 -5,-10 -12,-6 -16,-5 h -15 -13 -15 l -15,3 -15,5 -13,3 -3,94 5,147 8,137 -2,69 -39,12 h -45 l -51,-2 -51,-3 -43,5 -36,21 -20,35 -3,64 28,23 26,18 20,12 20,8 23,2 26,3 h 30 38 l 77,-5 58,-13 46,-23 33,-28 20,-33 10,-40 3,-46 -3,-46 -7,-51 -11,-53 -12,-51 -13,-53 -10,-54 -5,-48 -3,-48 z"
   id="path94"
   inkscape:connector-curvature="0"
   style="fill:#000000;stroke:none" />
         <path
   d="m 14604,14259 -5,-10 v 0 l -12,-6 -16,-5 h -15 -13 -15 l -15,3 -15,5 -13,3 v 0 l -3,94 5,147 8,137 -2,69 v 0 l -39,12 h -45 l -51,-2 -51,-3 -43,5 -36,21 -20,35 -3,64 v 0 l 28,23 26,18 20,12 20,8 23,2 26,3 h 30 38 v 0 l 77,-5 58,-13 46,-23 33,-28 20,-33 10,-40 3,-46 -3,-46 -7,-51 -11,-53 -12,-51 -13,-53 -10,-54 -5,-48 -3,-48 z"
   id="path96"
   inkscape:connector-curvature="0"
   style="fill:none;stroke:#f4f4f4" />
         <path
   d="m 7102,15011 5,-15 8,-13 12,-13 13,-7 v -18 l -5,-13 -8,-13 -7,-10 -13,-7 -13,-11 -12,-5 -16,-7 -20,5 -15,13 -10,17 -8,21 66,76 z"
   id="path98"
   inkscape:connector-curvature="0"
   style="fill:#f4f4f4;stroke:none" />
         <path
   d="m 7102,15011 v 0 l 5,-15 8,-13 12,-13 13,-7 v 0 -18 l -5,-13 -8,-13 -7,-10 -13,-7 -13,-11 -12,-5 -16,-7 v 0 l -20,5 -15,13 -10,17 -8,21 66,76 z"
   id="path100"
   inkscape:connector-curvature="0"
   style="fill:none;stroke:#f4f4f4" />
         <path
   d="m 14068,14543 125,-33 18,-25 12,-28 10,-28 3,-31 -31,-10 -30,-5 h -33 l -31,5 -30,10 -25,16 -26,20 -20,25 v 49 z"
   id="path102"
   inkscape:connector-curvature="0"
   style="fill:#000000;stroke:none" />
         <path
   d="m 14068,14543 125,-33 v 0 l 18,-25 12,-28 10,-28 3,-31 v 0 l -31,-10 -30,-5 h -33 l -31,5 -30,10 -25,16 -26,20 -20,25 v 49 z"
   id="path104"
   inkscape:connector-curvature="0"
   style="fill:none;stroke:#f4f4f4" />
         <path
   d="m 13743,14518 23,-15 3,-23 2,-21 -2,-20 -3,-15 -10,-15 -13,-16 -18,-10 -23,-7 -2,-26 76,-40 18,-49 -13,-53 -40,-15 -44,-3 -40,5 -38,15 -33,23 -31,26 -25,33 -18,33 -13,35 v 36 l 8,33 20,28 33,25 46,21 61,12 z"
   id="path106"
   inkscape:connector-curvature="0"
   style="fill:#000000;stroke:none" />
         <path
   d="m 13743,14518 23,-15 v 0 l 3,-23 2,-21 -2,-20 -3,-15 -10,-15 -13,-16 -18,-10 -23,-7 -2,-26 76,-40 18,-49 -13,-53 v 0 l -40,-15 -44,-3 -40,5 -38,15 -33,23 -31,26 -25,33 -18,33 -13,35 v 36 l 8,33 20,28 33,25 46,21 61,12 z"
   id="path108"
   inkscape:connector-curvature="0"
   style="fill:none;stroke:#f4f4f4" />
         <path
   d="m 10166,14490 -43,-109 35,-135 -66,-125 3,-22 10,-21 8,-20 5,-23 -3,-13 -2,-12 -8,-10 -10,-8 -23,-3 -15,5 -18,8 -20,10 -23,13 -21,13 -17,15 -11,15 -5,18 8,53 20,41 23,36 18,35 81,328 h 3 l 28,-10 18,-23 12,-28 z"
   id="path110"
   inkscape:connector-curvature="0"
   style="fill:#f4f4f4;stroke:none" />
         <path
   d="m 10166,14490 -43,-109 35,-135 -66,-125 v 0 l 3,-22 10,-21 8,-20 5,-23 v 0 l -3,-13 -2,-12 -8,-10 -10,-8 -23,-3 v 0 l -15,5 -18,8 -20,10 -23,13 -21,13 -17,15 -11,15 -5,18 v 0 l 8,53 20,41 23,36 18,35 81,328 h 3 v 0 l 28,-10 18,-23 12,-28 z"
   id="path112"
   inkscape:connector-curvature="0"
   style="fill:none;stroke:#f4f4f4" />
         <path
   d="m 10583,14444 17,-18 13,-30 8,-33 10,-28 -28,-46 -28,-2 -81,50 50,95 z"
   id="path114"
   inkscape:connector-curvature="0"
   style="fill:#f4f4f4;stroke:none" />
         <path
   d="m 10583,14444 v 0 l 17,-18 13,-30 8,-33 10,-28 -28,-46 -28,-2 -81,50 50,95 z"
   id="path116"
   inkscape:connector-curvature="0"
   style="fill:none;stroke:#f4f4f4" />
         <path
   d="m 10994,14409 5,-31 3,-28 -3,-30 -10,-28 -18,-8 -18,-5 -17,-3 -13,6 -10,7 -8,13 -5,15 3,23 40,71 13,5 h 13 l 15,-2 z"
   id="path118"
   inkscape:connector-curvature="0"
   style="fill:#f4f4f4;stroke:none" />
         <path
   d="m 10994,14409 v 0 l 5,-31 3,-28 -3,-30 -10,-28 v 0 l -18,-8 -18,-5 -17,-3 -13,6 -10,7 -8,13 -5,15 3,23 40,71 v 0 l 13,5 h 13 l 15,-2 z"
   id="path120"
   inkscape:connector-curvature="0"
   style="fill:none;stroke:#f4f4f4" />
         <path
   d="m 14404,14193 23,-31 17,-35 8,-39 2,-38 -114,-144 -38,-3 h -46 l -48,5 -48,5 -49,10 -45,16 -38,17 -33,23 -26,38 -18,54 3,50 30,31 h 18 l 13,-13 15,-18 18,-22 20,-26 28,-23 36,-15 43,-5 84,51 -13,56 -2,40 5,23 15,13 h 20 l 33,-3 38,-7 z"
   id="path122"
   inkscape:connector-curvature="0"
   style="fill:#000000;stroke:none" />
         <path
   d="m 14404,14193 v 0 l 23,-31 17,-35 8,-39 2,-38 -114,-144 v 0 l -38,-3 h -46 l -48,5 -48,5 -49,10 -45,16 -38,17 -33,23 v 0 l -26,38 -18,54 3,50 30,31 v 0 h 18 l 13,-13 15,-18 18,-22 20,-26 28,-23 36,-15 43,-5 84,51 v 0 l -13,56 -2,40 5,23 15,13 h 20 l 33,-3 38,-7 z"
   id="path124"
   inkscape:connector-curvature="0"
   style="fill:none;stroke:#f4f4f4" />
         <path
   d="m 11540,13964 -20,-58 -25,-34 -26,-12 -25,7 -23,23 -15,36 -8,46 5,53 15,2 18,3 21,5 20,8 18,7 15,13 10,13 5,15 -25,36 -21,40 -5,46 13,41 36,2 43,-15 38,-33 30,-41 16,-51 -8,-50 -33,-54 z"
   id="path126"
   inkscape:connector-curvature="0"
   style="fill:#f4f4f4;stroke:none" />
         <path
   d="m 11540,13964 v 0 l -20,-58 -25,-34 -26,-12 -25,7 -23,23 -15,36 -8,46 5,53 v 0 l 15,2 18,3 21,5 20,8 18,7 15,13 10,13 5,15 v 0 l -25,36 -21,40 -5,46 13,41 v 0 l 36,2 43,-15 38,-33 30,-41 16,-51 -8,-50 -33,-54 z"
   id="path128"
   inkscape:connector-curvature="0"
   style="fill:none;stroke:#f4f4f4" />
         <path
   d="m 11833,14086 45,-20 13,-56 -5,-23 -13,-23 -18,-20 -20,-13 -46,25 13,125 h 10 l 8,2 7,3 z"
   id="path130"
   inkscape:connector-curvature="0"
   style="fill:#f4f4f4;stroke:none" />
         <path
   d="m 11833,14086 45,-20 13,-56 v 0 l -5,-23 -13,-23 -18,-20 -20,-13 -46,25 13,125 v 0 h 10 l 8,2 7,3 z"
   id="path132"
   inkscape:connector-curvature="0"
   style="fill:none;stroke:#f4f4f4" />
         <path
   d="m 15240,12887 -11,-46 -43,20 -35,20 -28,18 -28,10 -28,6 -31,-6 -40,-15 -49,-28 -2,-30 10,-23 15,-18 23,-15 20,-15 18,-16 15,-20 6,-25 -61,-72 -16,-2 -17,-3 h -18 l -16,3 -17,2 -18,6 -15,2 -16,5 -63,26 -41,33 -23,40 -5,43 8,49 20,45 33,44 41,40 48,33 54,26 55,15 56,3 56,-11 54,-30 48,-46 z"
   id="path134"
   inkscape:connector-curvature="0"
   style="fill:#000000;stroke:none" />
         <path
   d="m 15240,12887 -11,-46 v 0 l -43,20 -35,20 -28,18 -28,10 -28,6 -31,-6 -40,-15 -49,-28 v 0 l -2,-30 10,-23 15,-18 23,-15 20,-15 18,-16 15,-20 6,-25 -61,-72 v 0 l -16,-2 -17,-3 h -18 l -16,3 -17,2 -18,6 -15,2 -16,5 v 0 l -63,26 -41,33 -23,40 -5,43 8,49 20,45 33,44 41,40 48,33 54,26 55,15 56,3 56,-11 54,-30 48,-46 z"
   id="path136"
   inkscape:connector-curvature="0"
   style="fill:none;stroke:#f4f4f4" />
         <path
   d="m 15666,12841 16,-69 33,-94 38,-107 33,-111 15,-102 -13,-89 -53,-58 -104,-23 -21,2 -22,5 -21,8 -20,8 -20,7 -21,8 -20,5 h -23 l -168,-130 -30,3 -23,15 -18,23 -15,28 -13,30 -12,26 -16,20 -17,10 h -21 l -28,-5 -38,-7 -40,-8 -49,-10 -48,-10 -51,-8 -53,-8 -51,-2 h -48 l -46,8 -38,12 -33,18 -26,28 -17,38 -5,46 5,46 15,38 20,35 31,33 33,26 35,23 41,15 41,13 38,7 35,3 33,-3 28,-7 21,-13 15,-18 2,-25 -7,-28 -23,-13 -25,-5 -28,-3 -28,-2 -26,-5 -20,-13 -13,-20 -5,-36 3,-18 5,-15 10,-13 13,-7 15,-8 15,-2 18,-3 h 18 l 86,10 61,28 43,38 28,46 20,46 18,38 21,28 28,10 53,-43 20,-66 31,-59 35,-45 41,-28 41,-5 38,17 35,49 31,81 -31,89 26,38 25,41 15,45 8,44 -41,58 -23,-5 -17,-10 -16,-15 -12,-18 -13,-18 -15,-15 -18,-10 -20,-6 -33,6 -23,12 -13,23 -5,26 2,30 11,33 17,31 23,30 28,25 33,21 36,15 40,3 41,-6 46,-17 46,-36 z"
   id="path138"
   inkscape:connector-curvature="0"
   style="fill:#000000;stroke:none" />
         <path
   d="m 15666,12841 v 0 l 16,-69 33,-94 38,-107 33,-111 15,-102 -13,-89 -53,-58 -104,-23 v 0 l -21,2 -22,5 -21,8 -20,8 -20,7 -21,8 -20,5 h -23 l -168,-130 v 0 l -30,3 -23,15 -18,23 -15,28 -13,30 -12,26 -16,20 -17,10 v 0 h -21 l -28,-5 -38,-7 -40,-8 -49,-10 -48,-10 -51,-8 -53,-8 -51,-2 h -48 l -46,8 -38,12 -33,18 -26,28 -17,38 -5,46 v 0 l 5,46 15,38 20,35 31,33 33,26 35,23 41,15 41,13 38,7 35,3 33,-3 28,-7 21,-13 15,-18 2,-25 -7,-28 v 0 l -23,-13 -25,-5 -28,-3 -28,-2 -26,-5 -20,-13 -13,-20 -5,-36 v 0 l 3,-18 5,-15 10,-13 13,-7 15,-8 15,-2 18,-3 h 18 v 0 l 86,10 61,28 43,38 28,46 20,46 18,38 21,28 28,10 53,-43 v 0 l 20,-66 31,-59 35,-45 41,-28 41,-5 38,17 35,49 31,81 -31,89 v 0 l 26,38 25,41 15,45 8,44 -41,58 v 0 l -23,-5 -17,-10 -16,-15 -12,-18 -13,-18 -15,-15 -18,-10 -20,-6 v 0 l -33,6 -23,12 -13,23 -5,26 2,30 11,33 17,31 23,30 28,25 33,21 36,15 40,3 41,-6 46,-17 46,-36 z"
   id="path140"
   inkscape:connector-curvature="0"
   style="fill:none;stroke:#f4f4f4" />
         <path
   d="m 7948,12452 5,-20 5,-36 v -30 l -13,-13 -20,2 -18,8 -17,10 -16,10 -12,16 -11,17 -7,18 -5,21 20,45 h 5 l 10,-2 13,-8 15,-7 15,-11 13,-7 10,-8 z"
   id="path142"
   inkscape:connector-curvature="0"
   style="fill:#f4f4f4;stroke:none" />
         <path
   d="m 7948,12452 v 0 l 5,-20 5,-36 v -30 l -13,-13 v 0 l -20,2 -18,8 -17,10 -16,10 -12,16 -11,17 -7,18 -5,21 20,45 v 0 h 5 l 10,-2 13,-8 15,-7 15,-11 13,-7 10,-8 z"
   id="path144"
   inkscape:connector-curvature="0"
   style="fill:none;stroke:#f4f4f4" />
         <path
   d="m 7691,13806 -56,-25 -55,-18 -59,-7 -61,-5 -61,2 -63,8 -64,10 -63,13 -64,15 -63,12 -64,16 -66,12 -61,11 -63,5 -61,2 -59,-5 31,20 28,26 25,28 23,28 18,33 17,33 16,33 15,33 38,13 46,7 48,-2 56,-8 56,-13 58,-17 61,-21 61,-25 61,-28 59,-28 55,-28 54,-30 48,-28 43,-26 36,-25 z"
   id="path146"
   inkscape:connector-curvature="0"
   style="fill:#ffffff;stroke:none" />
         <path
   d="m 7691,13806 v 0 l -56,-25 -55,-18 -59,-7 -61,-5 -61,2 -63,8 -64,10 -63,13 -64,15 -63,12 -64,16 -66,12 -61,11 -63,5 -61,2 -59,-5 v 0 l 31,20 28,26 25,28 23,28 18,33 17,33 16,33 15,33 v 0 l 38,13 46,7 48,-2 56,-8 56,-13 58,-17 61,-21 61,-25 61,-28 59,-28 55,-28 54,-30 48,-28 43,-26 36,-25 z"
   id="path148"
   inkscape:connector-curvature="0"
   style="fill:none;stroke:#ffffff" />
         <path
   d="m 11086,12889 7,-51 -2,-76 -13,-71 -23,-38 h -20 l -26,12 -25,23 -31,28 -27,31 -28,28 -23,20 -18,15 30,54 -33,119 13,10 h 23 l 33,-12 41,-18 38,-23 35,-20 31,-21 z"
   id="path150"
   inkscape:connector-curvature="0"
   style="fill:#ffffff;stroke:none" />
         <path
   d="m 11086,12889 v 0 l 7,-51 -2,-76 -13,-71 -23,-38 v 0 h -20 l -26,12 -25,23 -31,28 -27,31 -28,28 -23,20 -18,15 30,54 -33,119 v 0 l 13,10 h 23 l 33,-12 41,-18 38,-23 35,-20 31,-21 z"
   id="path152"
   inkscape:connector-curvature="0"
   style="fill:none;stroke:#ffffff" />
         <path
   d="m 11373,16701 12,-8 -106,-117 -66,-89 -36,-73 -5,-67 20,-66 38,-81 56,-104 69,-137 -18,-28 -20,-21 -23,-17 -23,-13 -23,-15 -18,-23 -15,-28 -7,-43 -13,7 -15,10 -16,8 -17,5 -16,5 -17,5 h -16 l -15,-2 -10,12 13,16 17,10 18,10 5,33 -10,36 -18,40 -23,38 -30,36 -31,33 -30,28 -25,20 15,61 23,41 30,28 31,25 25,33 20,46 8,69 -8,101 5,33 23,31 33,28 44,23 48,23 46,17 40,13 z"
   id="path154"
   inkscape:connector-curvature="0"
   style="fill:#ffffff;stroke:none" />
         <path
   d="m 11373,16701 12,-8 v 0 l -106,-117 -66,-89 -36,-73 -5,-67 20,-66 38,-81 56,-104 69,-137 v 0 l -18,-28 -20,-21 -23,-17 -23,-13 -23,-15 -18,-23 -15,-28 -7,-43 v 0 l -13,7 -15,10 -16,8 -17,5 -16,5 -17,5 h -16 l -15,-2 v 0 l -10,12 13,16 17,10 18,10 v 0 l 5,33 -10,36 -18,40 -23,38 -30,36 -31,33 -30,28 -25,20 v 0 l 15,61 23,41 30,28 31,25 25,33 20,46 8,69 -8,101 v 0 l 5,33 23,31 33,28 44,23 48,23 46,17 40,13 z"
   id="path156"
   inkscape:connector-curvature="0"
   style="fill:none;stroke:#ffffff" />
         <path
   d="m 10887,16406 -15,-38 -23,-38 -30,-38 -33,-36 -38,-33 -41,-23 -41,-18 -40,-5 -107,69 15,43 33,33 49,28 55,20 61,16 59,10 53,7 z"
   id="path158"
   inkscape:connector-curvature="0"
   style="fill:#ffffff;stroke:none" />
         <path
   d="m 10887,16406 v 0 l -15,-38 -23,-38 -30,-38 -33,-36 -38,-33 -41,-23 -41,-18 -40,-5 -107,69 v 0 l 15,43 33,33 49,28 55,20 61,16 59,10 53,7 z"
   id="path160"
   inkscape:connector-curvature="0"
   style="fill:none;stroke:#ffffff" />
         <path
   d="m 11530,14963 -2,-36 5,-30 7,-26 16,-23 20,-20 23,-18 30,-15 31,-15 18,-41 v -43 l -13,-46 -20,-43 -31,-43 -33,-38 -36,-34 -30,-25 43,-74 191,44 15,-18 10,-21 13,-22 13,-23 12,-21 15,-17 21,-13 23,-5 58,46 -48,238 28,64 10,66 v 71 l -5,66 63,-28 56,-56 49,-81 35,-102 26,-119 7,-132 -7,-140 -28,-142 -46,-142 -71,-138 -94,-127 -122,-114 -150,-97 -181,-76 -210,-46 -247,-17 -129,5 -127,17 -120,26 -114,38 -107,46 -104,53 -94,61 -89,69 -84,76 -74,81 -68,84 -61,92 -53,94 -44,96 -35,99 -28,102 -18,102 -10,104 v 101 l 8,102 20,102 28,96 40,97 49,91 61,89 71,84 84,76 94,71 106,66 120,56 129,51 143,41 -56,-87 10,-20 -109,-71 5,-109 -92,-79 -23,8 -10,20 v 23 l 8,20 v 18 l -10,10 -13,8 -15,2 -38,-5 -38,-15 -41,-23 -43,-31 -43,-38 -44,-43 -40,-48 -44,-48 -40,-54 -41,-51 -38,-50 -33,-51 -33,-46 -30,-43 -26,-38 -20,-31 -8,-58 8,-69 18,-66 28,-53 55,-3 21,92 25,91 31,84 38,81 48,74 56,71 66,64 76,56 -23,-31 -25,-30 -25,-33 -28,-31 -23,-33 -21,-36 -12,-38 -5,-38 5,-63 12,-36 18,-15 26,2 30,23 36,33 38,44 40,53 41,56 43,58 43,56 41,54 38,45 36,38 33,23 25,8 -38,-46 -41,-43 -38,-41 -35,-40 -31,-46 -25,-48 -18,-54 -8,-63 44,-26 264,214 23,-21 5,-81 18,-51 25,-28 30,-2 34,15 38,31 35,45 33,59 74,15 66,18 61,18 53,20 51,20 48,23 44,25 40,28 41,28 41,33 38,33 40,39 43,40 44,43 48,46 51,51 v 46 l 12,51 23,55 33,56 44,59 50,58 54,59 61,56 61,58 63,53 64,51 63,46 59,43 56,38 48,31 40,23 -5,-66 -23,-61 -40,-59 -51,-51 -56,-48 -58,-43 -54,-38 -48,-33 -23,-46 -7,-71 -5,-74 -13,-58 -43,-31 -36,-33 -30,-38 -26,-41 -20,-45 -18,-46 -15,-48 -15,-49 -16,-51 -17,-48 -18,-48 -21,-46 -25,-46 -30,-43 -39,-38 z"
   id="path162"
   inkscape:connector-curvature="0"
   style="fill:#ffffff;stroke:none" />
         <path
   d="m 11530,14963 v 0 l -2,-36 5,-30 7,-26 16,-23 20,-20 23,-18 30,-15 31,-15 v 0 l 18,-41 v -43 l -13,-46 -20,-43 -31,-43 -33,-38 -36,-34 -30,-25 43,-74 191,44 v 0 l 15,-18 10,-21 13,-22 13,-23 12,-21 15,-17 21,-13 23,-5 58,46 -48,238 v 0 l 28,64 10,66 v 71 l -5,66 v 0 l 63,-28 56,-56 49,-81 35,-102 26,-119 7,-132 -7,-140 -28,-142 -46,-142 -71,-138 -94,-127 -122,-114 -150,-97 -181,-76 -210,-46 -247,-17 v 0 l -129,5 -127,17 -120,26 -114,38 -107,46 -104,53 -94,61 -89,69 -84,76 -74,81 -68,84 -61,92 -53,94 -44,96 -35,99 -28,102 -18,102 -10,104 v 101 l 8,102 20,102 28,96 40,97 49,91 61,89 71,84 84,76 94,71 106,66 120,56 129,51 143,41 -56,-87 10,-20 -109,-71 5,-109 -92,-79 v 0 l -23,8 -10,20 v 23 l 8,20 v 0 18 l -10,10 -13,8 -15,2 v 0 l -38,-5 -38,-15 -41,-23 -43,-31 -43,-38 -44,-43 -40,-48 -44,-48 -40,-54 -41,-51 -38,-50 -33,-51 -33,-46 -30,-43 -26,-38 -20,-31 v 0 l -8,-58 8,-69 18,-66 28,-53 55,-3 v 0 l 21,92 25,91 31,84 38,81 48,74 56,71 66,64 76,56 v 0 l -23,-31 -25,-30 -25,-33 -28,-31 -23,-33 -21,-36 -12,-38 -5,-38 v 0 l 5,-63 12,-36 18,-15 26,2 30,23 36,33 38,44 40,53 41,56 43,58 43,56 41,54 38,45 36,38 33,23 25,8 v 0 l -38,-46 -41,-43 -38,-41 -35,-40 -31,-46 -25,-48 -18,-54 -8,-63 44,-26 264,214 23,-21 v 0 l 5,-81 18,-51 25,-28 30,-2 34,15 38,31 35,45 33,59 v 0 l 74,15 66,18 61,18 53,20 51,20 48,23 44,25 40,28 41,28 41,33 38,33 40,39 43,40 44,43 48,46 51,51 v 0 46 l 12,51 23,55 33,56 44,59 50,58 54,59 61,56 61,58 63,53 64,51 63,46 59,43 56,38 48,31 40,23 v 0 l -5,-66 -23,-61 -40,-59 -51,-51 -56,-48 -58,-43 -54,-38 -48,-33 v 0 l -23,-46 -7,-71 -5,-74 -13,-58 v 0 l -43,-31 -36,-33 -30,-38 -26,-41 -20,-45 -18,-46 -15,-48 -15,-49 -16,-51 -17,-48 -18,-48 -21,-46 -25,-46 -30,-43 -39,-38 z"
   id="path164"
   inkscape:connector-curvature="0"
   style="fill:none;stroke:#ffffff" />
         <path
   d="m 10913,15974 2,-33 v -36 l -2,-33 -5,-33 -21,-2 -35,-8 -41,-8 -48,-7 -46,-8 -38,-5 -30,-2 -16,2 -22,46 43,-3 40,5 36,18 33,23 25,31 21,35 15,38 8,41 z"
   id="path166"
   inkscape:connector-curvature="0"
   style="fill:#ffffff;stroke:none" />
         <path
   d="m 10913,15974 v 0 l 2,-33 v -36 l -2,-33 -5,-33 v 0 l -21,-2 -35,-8 -41,-8 -48,-7 -46,-8 -38,-5 -30,-2 -16,2 -22,46 v 0 l 43,-3 40,5 36,18 33,23 25,31 21,35 15,38 8,41 z"
   id="path168"
   inkscape:connector-curvature="0"
   style="fill:none;stroke:#ffffff" />
         <path
   d="m 10092,15890 -38,-8 -38,-2 -36,2 -33,8 -30,15 -28,21 -23,28 -20,38 38,12 38,8 h 41 l 40,-8 33,-12 28,-26 21,-33 z"
   id="path170"
   inkscape:connector-curvature="0"
   style="fill:#ffffff;stroke:none" />
         <path
   d="m 10092,15890 v 0 l -38,-8 -38,-2 -36,2 -33,8 -30,15 -28,21 -23,28 -20,38 v 0 l 38,12 38,8 h 41 l 40,-8 33,-12 28,-26 21,-33 z"
   id="path172"
   inkscape:connector-curvature="0"
   style="fill:none;stroke:#ffffff" />
         <path
   d="m 9757,15969 5,-21 -89,-127 20,-35 28,-28 33,-23 36,-20 38,-18 36,-20 33,-23 28,-28 -6,-13 -12,-8 -13,-5 h -13 l -23,11 -30,17 -36,23 -38,23 -35,23 -36,15 -28,13 h -20 l -15,-36 152,-178 -81,-7 -64,5 -45,18 -33,25 -18,33 -8,41 5,46 13,45 18,49 25,45 28,43 31,39 30,33 31,25 27,15 z"
   id="path174"
   inkscape:connector-curvature="0"
   style="fill:#ffffff;stroke:none" />
         <path
   d="m 9757,15969 5,-21 -89,-127 v 0 l 20,-35 28,-28 33,-23 36,-20 38,-18 36,-20 33,-23 28,-28 v 0 l -6,-13 -12,-8 -13,-5 h -13 v 0 l -23,11 -30,17 -36,23 -38,23 -35,23 -36,15 -28,13 h -20 l -15,-36 152,-178 v 0 l -81,-7 -64,5 -45,18 -33,25 -18,33 -8,41 5,46 13,45 18,49 25,45 28,43 31,39 30,33 31,25 27,15 z"
   id="path176"
   inkscape:connector-curvature="0"
   style="fill:none;stroke:#ffffff" />
         <path
   d="m 11167,15550 -41,-8 -35,-5 h -33 l -31,2 -30,5 -28,6 -26,10 -25,10 -25,10 -26,13 -25,12 -28,11 -28,12 -31,10 -30,8 -36,8 23,10 28,8 28,5 h 33 33 l 36,-3 35,-5 36,-8 35,-7 33,-10 33,-13 31,-13 30,-15 26,-18 20,-18 z"
   id="path178"
   inkscape:connector-curvature="0"
   style="fill:#ffffff;stroke:none" />
         <path
   d="m 11167,15550 v 0 l -41,-8 -35,-5 h -33 l -31,2 -30,5 -28,6 -26,10 -25,10 -25,10 -26,13 -25,12 -28,11 -28,12 -31,10 -30,8 -36,8 v 0 l 23,10 28,8 28,5 h 33 33 l 36,-3 35,-5 36,-8 35,-7 33,-10 33,-13 31,-13 30,-15 26,-18 20,-18 z"
   id="path180"
   inkscape:connector-curvature="0"
   style="fill:none;stroke:#ffffff" />
         <path
   d="m 12496,15191 28,36 48,33 58,28 56,20 48,10 28,-2 v -21 l -38,-35 -23,-15 -25,-13 -30,-10 -31,-8 -30,-7 -31,-8 -30,-5 z"
   id="path182"
   inkscape:connector-curvature="0"
   style="fill:#ffffff;stroke:none" />
         <path
   d="m 12496,15191 v 0 l 28,36 48,33 58,28 56,20 48,10 28,-2 v -21 l -38,-35 v 0 l -23,-15 -25,-13 -30,-10 -31,-8 -30,-7 -31,-8 -30,-5 z"
   id="path184"
   inkscape:connector-curvature="0"
   style="fill:none;stroke:#ffffff" />
         <path
   d="m 9366,14894 -193,76 -74,-53 5,-33 15,-26 23,-20 28,-18 30,-15 28,-15 26,-21 20,-22 -23,-11 -25,-5 -28,3 -33,5 -33,13 -36,12 -35,18 -33,20 -36,23 -33,26 -30,25 -28,26 -26,25 -18,25 -15,26 -10,23 v 30 l 15,26 28,20 38,15 49,10 53,8 h 58 l 59,-5 56,-8 56,-15 48,-18 41,-25 30,-28 15,-36 3,-38 z"
   id="path186"
   inkscape:connector-curvature="0"
   style="fill:#ffffff;stroke:none" />
         <path
   d="m 9366,14894 -193,76 -74,-53 v 0 l 5,-33 15,-26 23,-20 28,-18 30,-15 28,-15 26,-21 20,-22 v 0 l -23,-11 -25,-5 -28,3 -33,5 -33,13 -36,12 -35,18 -33,20 -36,23 -33,26 -30,25 -28,26 -26,25 -18,25 -15,26 -10,23 v 0 30 l 15,26 28,20 38,15 49,10 53,8 h 58 l 59,-5 56,-8 56,-15 48,-18 41,-25 30,-28 15,-36 3,-38 z"
   id="path188"
   inkscape:connector-curvature="0"
   style="fill:none;stroke:#ffffff" />
         <path
   d="m 7414,14884 49,-155 -33,-46 -38,-36 -44,-27 -48,-21 -51,-12 -53,-3 -51,5 -48,13 -48,20 -41,28 -36,36 -28,43 -20,48 -10,56 5,64 15,68 21,43 28,36 35,30 41,23 45,18 49,10 48,3 46,-3 45,-7 41,-16 38,-23 28,-25 21,-33 10,-41 v -45 z"
   id="path190"
   inkscape:connector-curvature="0"
   style="fill:#ffffff;stroke:none" />
         <path
   d="m 7414,14884 49,-155 v 0 l -33,-46 -38,-36 -44,-27 -48,-21 -51,-12 -53,-3 -51,5 -48,13 -48,20 -41,28 -36,36 -28,43 -20,48 -10,56 5,64 15,68 v 0 l 21,43 28,36 35,30 41,23 45,18 49,10 48,3 46,-3 45,-7 41,-16 38,-23 28,-25 21,-33 10,-41 v -45 z"
   id="path192"
   inkscape:connector-curvature="0"
   style="fill:none;stroke:#ffffff" />
         <path
   d="m 13062,14360 v -10 l -28,-38 -35,-28 -41,-20 -43,-13 -46,-10 -46,-3 h -45 -46 l -18,16 v 20 l 8,23 12,18 28,28 36,20 43,10 48,5 49,3 45,-5 44,-8 z"
   id="path194"
   inkscape:connector-curvature="0"
   style="fill:#ffffff;stroke:none" />
         <path
   d="m 13062,14360 v -10 0 l -28,-38 -35,-28 -41,-20 -43,-13 -46,-10 -46,-3 h -45 -46 v 0 l -18,16 v 20 l 8,23 12,18 v 0 l 28,28 36,20 43,10 48,5 49,3 45,-5 44,-8 z"
   id="path196"
   inkscape:connector-curvature="0"
   style="fill:none;stroke:#ffffff" />
         <path
   d="m 12643,14874 8,-5 2,-8 v -10 l -2,-8 -23,-25 -33,-18 -43,-8 -44,-5 -45,3 -44,5 -35,2 -28,5 -10,26 7,20 23,15 36,13 48,5 56,3 61,-3 z"
   id="path198"
   inkscape:connector-curvature="0"
   style="fill:#ffffff;stroke:none" />
         <path
   d="m 12643,14874 v 0 l 8,-5 2,-8 v -10 l -2,-8 v 0 l -23,-25 -33,-18 -43,-8 -44,-5 -45,3 -44,5 -35,2 -28,5 v 0 l -10,26 7,20 23,15 36,13 48,5 56,3 61,-3 z"
   id="path200"
   inkscape:connector-curvature="0"
   style="fill:none;stroke:#ffffff" />
         <path
   d="m 14767,13570 15,33 18,5 25,10 36,13 43,15 48,16 51,15 54,15 55,13 54,12 51,8 48,3 h 43 l 36,-8 25,-15 18,-21 5,-30 -8,-23 -15,-18 -28,-17 -33,-16 -41,-12 -48,-11 -48,-7 -53,-8 -54,-2 -53,-3 -53,3 -49,2 -45,3 -39,7 -33,8 z"
   id="path202"
   inkscape:connector-curvature="0"
   style="fill:#ffffff;stroke:none" />
         <path
   d="m 14767,13570 15,33 v 0 l 18,5 25,10 36,13 43,15 48,16 51,15 54,15 55,13 54,12 51,8 48,3 h 43 l 36,-8 25,-15 18,-21 5,-30 v 0 l -8,-23 -15,-18 -28,-17 -33,-16 -41,-12 -48,-11 -48,-7 -53,-8 -54,-2 -53,-3 -53,3 -49,2 -45,3 -39,7 -33,8 z"
   id="path204"
   inkscape:connector-curvature="0"
   style="fill:none;stroke:#ffffff" />
         <path
   d="m 9871,13514 -46,-25 -43,-26 -45,-20 -49,-20 -45,-18 -49,-18 -48,-18 -48,-17 12,20 18,15 21,15 22,16 23,20 18,28 13,33 5,46 -5,25 -10,18 -18,15 -21,13 -27,-5 -26,-8 -25,-7 -28,-8 -26,-10 -25,-10 -25,-11 -26,-7 -25,-10 -28,-8 -26,-8 -28,-7 -25,-5 -28,-3 -30,-2 h -28 l -13,12 -15,13 -16,13 -12,17 20,28 28,26 36,25 38,23 40,20 38,16 41,10 33,2 13,-2 13,-8 15,-12 15,-13 18,-13 20,-10 20,-10 26,-3 155,145 23,-35 25,-36 23,-36 25,-35 28,-33 26,-33 30,-33 z"
   id="path206"
   inkscape:connector-curvature="0"
   style="fill:#ffffff;stroke:none" />
         <path
   d="m 9871,13514 v 0 l -46,-25 -43,-26 -45,-20 -49,-20 -45,-18 -49,-18 -48,-18 -48,-17 v 0 l 12,20 18,15 21,15 22,16 23,20 18,28 13,33 5,46 v 0 l -5,25 -10,18 -18,15 -21,13 v 0 l -27,-5 -26,-8 -25,-7 -28,-8 -26,-10 -25,-10 -25,-11 -26,-7 -25,-10 -28,-8 -26,-8 -28,-7 -25,-5 -28,-3 -30,-2 h -28 v 0 l -13,12 -15,13 -16,13 -12,17 v 0 l 20,28 28,26 36,25 38,23 40,20 38,16 41,10 33,2 v 0 l 13,-2 13,-8 15,-12 15,-13 18,-13 20,-10 20,-10 26,-3 155,145 v 0 l 23,-35 25,-36 23,-36 25,-35 28,-33 26,-33 30,-33 z"
   id="path208"
   inkscape:connector-curvature="0"
   style="fill:none;stroke:#ffffff" />
         <path
   d="m 12673,13026 -40,-5 h -36 -33 l -33,3 -28,2 -28,8 -28,8 -25,10 -25,10 -26,15 -25,15 -26,16 -25,17 -28,21 -28,20 -30,23 249,-114 45,53 -20,56 -219,117 11,-3 17,-2 23,-5 23,-6 23,-5 20,-2 16,-3 7,3 26,43 -8,23 -15,20 -21,16 -25,17 -25,16 -23,17 -21,21 -12,23 2,10 13,5 18,-3 20,-7 18,-11 20,-10 13,-7 7,-5 49,-31 51,-41 53,-48 48,-58 41,-61 30,-61 16,-61 z"
   id="path210"
   inkscape:connector-curvature="0"
   style="fill:#ffffff;stroke:none" />
         <path
   d="m 12673,13026 v 0 l -40,-5 h -36 -33 l -33,3 -28,2 -28,8 -28,8 -25,10 -25,10 -26,15 -25,15 -26,16 -25,17 -28,21 -28,20 -30,23 249,-114 45,53 -20,56 -219,117 v 0 l 11,-3 17,-2 23,-5 23,-6 23,-5 20,-2 16,-3 7,3 26,43 v 0 l -8,23 -15,20 -21,16 -25,17 -25,16 -23,17 -21,21 -12,23 v 0 l 2,10 13,5 18,-3 20,-7 18,-11 20,-10 13,-7 7,-5 v 0 l 49,-31 51,-41 53,-48 48,-58 41,-61 30,-61 16,-61 z"
   id="path212"
   inkscape:connector-curvature="0"
   style="fill:none;stroke:#ffffff" />
         <path
   d="m 9828,13176 v -18 l -23,-7 -23,-8 -23,-15 -17,-15 -18,-18 -13,-20 -7,-23 -3,-26 43,-61 28,5 26,8 25,10 23,13 23,15 23,13 22,18 21,15 -13,-43 -18,-46 -23,-43 -30,-41 -33,-38 -36,-36 -40,-33 -41,-28 -46,-22 -45,-18 -46,-13 -46,-2 -46,2 -45,10 -44,21 -40,30 -224,-94 -5,20 38,21 48,20 54,23 56,20 51,26 40,25 31,28 10,30 -89,94 18,28 20,28 23,28 25,28 28,26 31,23 30,22 33,21 33,15 33,13 36,7 33,3 h 35 l 33,-8 34,-12 z"
   id="path214"
   inkscape:connector-curvature="0"
   style="fill:#ffffff;stroke:none" />
         <path
   d="m 9828,13176 v -18 0 l -23,-7 -23,-8 -23,-15 -17,-15 -18,-18 -13,-20 -7,-23 -3,-26 43,-61 v 0 l 28,5 26,8 25,10 23,13 23,15 23,13 22,18 21,15 v 0 l -13,-43 -18,-46 -23,-43 -30,-41 -33,-38 -36,-36 -40,-33 -41,-28 -46,-22 -45,-18 -46,-13 -46,-2 -46,2 -45,10 -44,21 -40,30 -224,-94 -5,20 v 0 l 38,21 48,20 54,23 56,20 51,26 40,25 31,28 10,30 -89,94 v 0 l 18,28 20,28 23,28 25,28 28,26 31,23 30,22 33,21 33,15 33,13 36,7 33,3 h 35 l 33,-8 34,-12 z"
   id="path216"
   inkscape:connector-curvature="0"
   style="fill:none;stroke:#ffffff" />
         <path
   d="m 8105,12902 -48,-97 127,-223 -20,-11 -15,21 -18,20 -18,18 -20,18 -21,17 -20,16 -23,12 -23,11 -22,-5 -26,-56 155,-249 -35,-41 -41,-36 -43,-33 -38,-35 -33,-36 -26,-43 -15,-51 v -61 l -33,-20 -64,25 -48,38 -30,46 -18,56 -3,64 8,66 18,71 25,71 33,74 36,71 43,68 43,64 43,58 43,51 41,41 36,30 z"
   id="path218"
   inkscape:connector-curvature="0"
   style="fill:#ffffff;stroke:none" />
         <path
   d="m 8105,12902 -48,-97 127,-223 -20,-11 v 0 l -15,21 -18,20 -18,18 -20,18 -21,17 -20,16 -23,12 -23,11 -22,-5 -26,-56 155,-249 v 0 l -35,-41 -41,-36 -43,-33 -38,-35 -33,-36 -26,-43 -15,-51 v -61 l -33,-20 v 0 l -64,25 -48,38 -30,46 -18,56 -3,64 8,66 18,71 25,71 33,74 36,71 43,68 43,64 43,58 43,51 41,41 36,30 z"
   id="path220"
   inkscape:connector-curvature="0"
   style="fill:none;stroke:#ffffff" />
         <path
   d="m 6911,12879 -30,-15 -36,-16 -38,-15 -38,-15 -43,-18 -43,-18 -43,-17 -44,-16 -45,-15 -44,-15 -43,-13 -43,-10 -41,-10 -38,-8 -35,-2 -33,-3 h -28 l -33,3 -33,5 -38,2 -41,5 -38,3 -41,2 -40,3 h -41 l -38,-3 -38,-5 -33,-7 -33,-13 -26,-15 -23,-21 -17,-25 17,-33 26,-28 33,-20 40,-16 44,-7 48,-5 51,-3 50,3 54,2 56,5 51,8 50,8 49,5 45,5 38,5 h 34 l -46,-18 -59,-20 -66,-26 -73,-25 -79,-23 -81,-23 -82,-20 -81,-15 -79,-8 h -76 l -69,8 -58,20 -51,33 -38,46 -25,61 -8,78 13,87 35,69 59,55 76,44 91,30 102,20 114,11 120,5 122,-3 124,-5 122,-10 120,-8 109,-10 99,-8 86,-2 z"
   id="path222"
   inkscape:connector-curvature="0"
   style="fill:#ffffff;stroke:none" />
         <path
   d="m 6911,12879 v 0 l -30,-15 -36,-16 -38,-15 -38,-15 -43,-18 -43,-18 -43,-17 -44,-16 -45,-15 -44,-15 -43,-13 -43,-10 -41,-10 -38,-8 -35,-2 -33,-3 v 0 h -28 l -33,3 -33,5 -38,2 -41,5 -38,3 -41,2 -40,3 h -41 l -38,-3 -38,-5 -33,-7 -33,-13 -26,-15 -23,-21 -17,-25 v 0 l 17,-33 26,-28 33,-20 40,-16 44,-7 48,-5 51,-3 50,3 54,2 56,5 51,8 50,8 49,5 45,5 38,5 h 34 v 0 l -46,-18 -59,-20 -66,-26 -73,-25 -79,-23 -81,-23 -82,-20 -81,-15 -79,-8 h -76 l -69,8 -58,20 -51,33 -38,46 -25,61 -8,78 v 0 l 13,87 35,69 59,55 76,44 91,30 102,20 114,11 120,5 122,-3 124,-5 122,-10 120,-8 109,-10 99,-8 86,-2 z"
   id="path224"
   inkscape:connector-curvature="0"
   style="fill:none;stroke:#ffffff" />
         <path
   d="m 10486,12765 15,-18 23,-28 28,-31 31,-35 30,-31 31,-25 25,-15 20,-3 43,71 -22,94 5,16 45,-56 54,-61 53,-61 48,-66 38,-69 21,-69 -3,-71 -33,-71 -28,-30 -38,-28 -48,-26 -46,-28 -46,-25 -38,-23 -28,-25 -10,-23 -7,-224 -74,8 -71,23 -64,33 -61,45 -53,56 -46,64 -38,71 -33,74 -25,78 -16,82 -7,81 v 79 l 13,76 20,74 30,66 41,58 23,-43 23,-41 23,-43 25,-41 25,-38 31,-38 30,-35 36,-33 h 15 l 74,76 -99,229 z"
   id="path226"
   inkscape:connector-curvature="0"
   style="fill:#ffffff;stroke:none" />
         <path
   d="m 10486,12765 v 0 l 15,-18 23,-28 28,-31 31,-35 30,-31 31,-25 25,-15 20,-3 43,71 -22,94 5,16 v 0 l 45,-56 54,-61 53,-61 48,-66 38,-69 21,-69 -3,-71 -33,-71 v 0 l -28,-30 -38,-28 -48,-26 -46,-28 -46,-25 -38,-23 -28,-25 -10,-23 -7,-224 v 0 l -74,8 -71,23 -64,33 -61,45 -53,56 -46,64 -38,71 -33,74 -25,78 -16,82 -7,81 v 79 l 13,76 20,74 30,66 41,58 v 0 l 23,-43 23,-41 23,-43 25,-41 25,-38 31,-38 30,-35 36,-33 h 15 l 74,76 -99,229 z"
   id="path228"
   inkscape:connector-curvature="0"
   style="fill:none;stroke:#ffffff" />
         <path
   d="m 11563,12424 -48,-10 -46,5 -45,10 -41,23 -38,25 -36,33 -28,36 -23,38 -17,38 -8,36 -3,33 11,28 17,20 31,15 43,3 53,-8 39,-33 38,-33 35,-33 31,-38 25,-38 15,-43 5,-51 z"
   id="path230"
   inkscape:connector-curvature="0"
   style="fill:#ffffff;stroke:none" />
         <path
   d="m 11563,12424 v 0 l -48,-10 -46,5 -45,10 -41,23 -38,25 -36,33 -28,36 -23,38 -17,38 -8,36 -3,33 11,28 17,20 31,15 43,3 53,-8 v 0 l 39,-33 38,-33 35,-33 31,-38 25,-38 15,-43 5,-51 z"
   id="path232"
   inkscape:connector-curvature="0"
   style="fill:none;stroke:#ffffff" />
        </g>
       </g>
      </g>
     </g>
    </g>
   </g>
  </g>
 </g>
</svg>