<?xml version="1.0" encoding="UTF-8" standalone="no"?>
<svg
   xmlns:ooo="http://xml.openoffice.org/svg/export"
   xmlns:dc="http://purl.org/dc/elements/1.1/"
   xmlns:cc="http://creativecommons.org/ns#"
   xmlns:rdf="http://www.w3.org/1999/02/22-rdf-syntax-ns#"
   xmlns:svg="http://www.w3.org/2000/svg"
   xmlns="http://www.w3.org/2000/svg"
   xmlns:sodipodi="http://sodipodi.sourceforge.net/DTD/sodipodi-0.dtd"
   xmlns:inkscape="http://www.inkscape.org/namespaces/inkscape"
   version="1.2"
   width="26.389999mm"
   height="22.940001mm"
   viewBox="0 0 2638.9999 2294.0001"
   preserveAspectRatio="xMidYMid"
   xml:space="preserve"
   id="svg131"
   sodipodi:docname="gate1.svg"
   style="fill-rule:evenodd;stroke-width:28.22200012;stroke-linejoin:round"
   inkscape:version="0.92.5 (2060ec1f9f, 2020-04-08)"><metadata
   id="metadata135"><rdf:RDF><cc:Work
       rdf:about=""><dc:format>image/svg+xml</dc:format><dc:type
         rdf:resource="http://purl.org/dc/dcmitype/StillImage" /></cc:Work></rdf:RDF></metadata><sodipodi:namedview
   pagecolor="#ffffff"
   bordercolor="#666666"
   borderopacity="1"
   objecttolerance="10"
   gridtolerance="10"
   guidetolerance="10"
   inkscape:pageopacity="0"
   inkscape:pageshadow="2"
   inkscape:window-width="664"
   inkscape:window-height="487"
   id="namedview133"
   showgrid="false"
   inkscape:zoom="0.2102413"
   inkscape:cx="49.889765"
   inkscape:cy="43.35118"
   inkscape:window-x="0"
   inkscape:window-y="0"
   inkscape:window-maximized="0"
   inkscape:current-layer="svg131" />
 <defs
   class="ClipPathGroup"
   id="defs8">
  <clipPath
   id="presentation_clip_path"
   clipPathUnits="userSpaceOnUse">
   <rect
   x="0"
   y="0"
   width="21000"
   height="29700"
   id="rect2" />
  </clipPath>
  <clipPath
   id="presentation_clip_path_shrink"
   clipPathUnits="userSpaceOnUse">
   <rect
   x="21"
   y="29"
   width="20958"
   height="29641"
   id="rect5" />
  </clipPath>
 </defs>
 <defs
   class="TextShapeIndex"
   id="defs12">
  <g
   ooo:slide="id1"
   ooo:id-list="id3"
   id="g10" />
 </defs>
 <defs
   class="EmbeddedBulletChars"
   id="defs44">
  <g
   id="bullet-char-template-57356"
   transform="matrix(4.8828125e-4,0,0,-4.8828125e-4,0,0)">
   <path
   d="M 580,1141 1163,571 580,0 -4,571 Z"
   id="path14"
   inkscape:connector-curvature="0" />
  </g>
  <g
   id="bullet-char-template-57354"
   transform="matrix(4.8828125e-4,0,0,-4.8828125e-4,0,0)">
   <path
   d="M 8,1128 H 1137 V 0 H 8 Z"
   id="path17"
   inkscape:connector-curvature="0" />
  </g>
  <g
   id="bullet-char-template-10146"
   transform="matrix(4.8828125e-4,0,0,-4.8828125e-4,0,0)">
   <path
   d="M 174,0 602,739 174,1481 1456,739 Z M 1358,739 309,1346 659,739 Z"
   id="path20"
   inkscape:connector-curvature="0" />
  </g>
  <g
   id="bullet-char-template-10132"
   transform="matrix(4.8828125e-4,0,0,-4.8828125e-4,0,0)">
   <path
   d="M 2015,739 1276,0 H 717 l 543,543 H 174 v 393 h 1086 l -543,545 h 557 z"
   id="path23"
   inkscape:connector-curvature="0" />
  </g>
  <g
   id="bullet-char-template-10007"
   transform="matrix(4.8828125e-4,0,0,-4.8828125e-4,0,0)">
   <path
   d="m 0,-2 c -7,16 -16,29 -25,39 l 381,530 c -94,256 -141,385 -141,387 0,25 13,38 40,38 9,0 21,-2 34,-5 21,4 42,12 65,25 l 27,-13 111,-251 280,301 64,-25 24,25 c 21,-10 41,-24 62,-43 C 886,937 835,863 770,784 769,783 710,716 594,584 L 774,223 c 0,-27 -21,-55 -63,-84 l 16,-20 C 717,90 699,76 672,76 641,76 570,178 457,381 L 164,-76 c -22,-34 -53,-51 -92,-51 -42,0 -63,17 -64,51 -7,9 -10,24 -10,44 0,9 1,19 2,30 z"
   id="path26"
   inkscape:connector-curvature="0" />
  </g>
  <g
   id="bullet-char-template-10004"
   transform="matrix(4.8828125e-4,0,0,-4.8828125e-4,0,0)">
   <path
   d="M 285,-33 C 182,-33 111,30 74,156 52,228 41,333 41,471 c 0,78 14,145 41,201 34,71 87,106 158,106 53,0 88,-31 106,-94 l 23,-176 c 8,-64 28,-97 59,-98 l 735,706 c 11,11 33,17 66,17 42,0 63,-15 63,-46 V 965 c 0,-36 -10,-64 -30,-84 L 442,47 C 390,-6 338,-33 285,-33 Z"
   id="path29"
   inkscape:connector-curvature="0" />
  </g>
  <g
   id="bullet-char-template-9679"
   transform="matrix(4.8828125e-4,0,0,-4.8828125e-4,0,0)">
   <path
   d="M 813,0 C 632,0 489,54 383,161 276,268 223,411 223,592 c 0,181 53,324 160,431 106,107 249,161 430,161 179,0 323,-54 432,-161 108,-107 162,-251 162,-431 0,-180 -54,-324 -162,-431 C 1136,54 992,0 813,0 Z"
   id="path32"
   inkscape:connector-curvature="0" />
  </g>
  <g
   id="bullet-char-template-8226"
   transform="matrix(4.8828125e-4,0,0,-4.8828125e-4,0,0)">
   <path
   d="m 346,457 c -73,0 -137,26 -191,78 -54,51 -81,114 -81,188 0,73 27,136 81,188 54,52 118,78 191,78 73,0 134,-26 185,-79 51,-51 77,-114 77,-187 0,-75 -25,-137 -76,-188 -50,-52 -112,-78 -186,-78 z"
   id="path35"
   inkscape:connector-curvature="0" />
  </g>
  <g
   id="bullet-char-template-8211"
   transform="matrix(4.8828125e-4,0,0,-4.8828125e-4,0,0)">
   <path
   d="M -4,459 H 1135 V 606 H -4 Z"
   id="path38"
   inkscape:connector-curvature="0" />
  </g>
  <g
   id="bullet-char-template-61548"
   transform="matrix(4.8828125e-4,0,0,-4.8828125e-4,0,0)">
   <path
   d="m 173,740 c 0,163 58,303 173,419 116,115 255,173 419,173 163,0 302,-58 418,-173 116,-116 174,-256 174,-419 0,-163 -58,-303 -174,-418 C 1067,206 928,148 765,148 601,148 462,206 346,322 231,437 173,577 173,740 Z"
   id="path41"
   inkscape:connector-curvature="0" />
  </g>
 </defs>
 <g
   id="g49"
   transform="translate(-9180,-13703)">
  <g
   id="id2"
   class="Master_Slide">
   <g
   id="bg-id2"
   class="Background" />
   <g
   id="bo-id2"
   class="BackgroundObjects" />
  </g>
 </g>
 <g
   class="SlideGroup"
   id="g129"
   transform="translate(-9180,-13703)">
  <g
   id="g127">
   <g
   id="container-id1">
    <g
   id="id1"
   class="Slide"
   clip-path="url(#presentation_clip_path)">
     <g
   class="Page"
   id="g123">
      <g
   class="Graphic"
   id="g121">
       <g
   id="id3">
        <rect
   class="BoundingBox"
   x="9180"
   y="13703"
   width="2639"
   height="2294"
   id="rect51"
   style="fill:none;stroke:none" />
        <defs
   id="defs56">
         <clipPath
   id="clip_path_1"
   clipPathUnits="userSpaceOnUse">
          <path
   d="m 9180,13703 h 2638 v 2293 H 9180 Z"
   id="path53"
   inkscape:connector-curvature="0" />
         </clipPath>
        </defs>
        <g
   clip-path="url(#clip_path_1)"
   id="g118">
         <path
   d="m 9785,15020 v 977 h -445 v -977 z"
   id="path58"
   inkscape:connector-curvature="0"
   style="fill:#ffffff;stroke:none" />
         <path
   d="m 11659,15020 v 977 h -445 v -977 z"
   id="path60"
   inkscape:connector-curvature="0"
   style="fill:#ffffff;stroke:none" />
         <path
   d="m 9416,14776 -45,-25 -44,-49 -33,-61 -22,-63 -8,-54 8,-33 27,-2 51,41 -33,-69 -12,-79 v -79 l 12,-66 21,-51 25,-25 28,12 25,54 -10,-54 -2,-61 7,-55 11,-46 17,-33 23,-11 23,16 26,51 -8,-67 v -58 l 10,-48 13,-33 18,-18 17,5 18,30 15,61 3,-40 10,-28 13,-15 18,-3 15,15 13,28 10,43 2,59 10,-20 16,-18 15,-10 13,2 10,21 7,38 3,63 -5,92 15,-21 15,-5 13,5 10,18 5,33 v 51 l -7,66 -18,82 20,-21 18,-12 15,-5 13,7 8,23 v 38 l -5,61 -18,87 15,-5 13,12 5,23 v 33 l -10,41 -23,43 -38,46 -56,43 -61,31 -56,18 -46,2 -43,-8 -36,-10 -30,-15 -28,-10 z"
   id="path62"
   inkscape:connector-curvature="0"
   style="fill:#000000;stroke:none" />
         <path
   d="m 11583,14776 45,-25 44,-49 33,-61 22,-63 11,-54 -8,-33 -28,-2 -51,41 31,-69 15,-79 -3,-79 -10,-66 -20,-51 -26,-25 -27,12 -28,54 10,-54 2,-61 -5,-55 -13,-46 -17,-33 -21,-11 -23,16 -25,51 8,-67 -3,-58 -8,-48 -15,-33 -15,-18 -20,5 -16,30 -15,61 -2,-40 -11,-28 -15,-15 -15,-3 -15,15 -16,28 -10,43 -2,59 -10,-20 -16,-18 -12,-10 -13,2 -13,21 -7,38 v 63 l 5,92 -16,-21 -17,-5 -13,5 -10,18 -5,33 2,51 8,66 18,82 -21,-21 -18,-12 -15,-5 -13,7 -7,23 -3,38 8,61 18,87 -16,-5 -12,12 -8,23 v 33 l 10,41 23,43 38,46 56,43 61,31 56,18 46,2 43,-8 36,-10 30,-15 28,-10 z"
   id="path64"
   inkscape:connector-curvature="0"
   style="fill:#000000;stroke:none" />
         <path
   d="m 10494,13820 51,3 49,7 48,13 46,18 43,23 41,25 38,28 35,36 33,35 28,41 26,43 20,43 15,49 13,51 8,50 2,54 v 81 127 120 51 l -71,-8 v 102 h 56 v 1177 h 89 v -1177 h 56 v -102 l -59,10 v -51 -114 -127 -89 l -2,-61 -10,-59 -13,-56 -20,-56 -23,-50 -28,-49 -33,-46 -36,-43 -41,-38 -43,-33 -48,-31 -48,-25 -54,-20 -53,-13 -56,-10 -59,-3 -58,3 -56,10 -53,13 -51,20 -51,25 -46,31 -43,33 -41,38 -35,43 -33,46 -28,49 -23,50 -21,56 -12,56 -10,59 -3,61 v 89 127 114 51 l -58,-10 v 102 h 55 v 1177 h 89 v -1177 h 54 v -102 l -69,8 v -51 -120 -127 -81 l 3,-54 7,-50 13,-51 15,-49 21,-43 25,-43 28,-41 33,-35 36,-36 38,-28 41,-25 43,-23 43,-18 48,-13 49,-7 z"
   id="path66"
   inkscape:connector-curvature="0"
   style="fill:#000000;stroke:none" />
         <path
   d="m 10916,15031 v -79 h -841 v 79 z"
   id="path68"
   inkscape:connector-curvature="0"
   style="fill:#000000;stroke:none" />
         <path
   d="m 10916,15722 v -79 h -841 v 79 z"
   id="path70"
   inkscape:connector-curvature="0"
   style="fill:#000000;stroke:none" />
         <path
   d="m 10459,15923 v -1058 h 71 v 1058 z"
   id="path72"
   inkscape:connector-curvature="0"
   style="fill:#000000;stroke:none" />
         <path
   d="m 10205,15923 v -1058 h 73 v 1058 z"
   id="path74"
   inkscape:connector-curvature="0"
   style="fill:#000000;stroke:none" />
         <path
   d="m 10713,15923 v -1058 h 71 v 1058 z"
   id="path76"
   inkscape:connector-curvature="0"
   style="fill:#000000;stroke:none" />
         <path
   d="m 10576,14865 -82,-297 -81,297 z"
   id="path78"
   inkscape:connector-curvature="0"
   style="fill:#000000;stroke:none" />
         <path
   d="m 10327,14865 -84,-297 -84,297 z"
   id="path80"
   inkscape:connector-curvature="0"
   style="fill:#000000;stroke:none" />
         <path
   d="m 10835,14865 -84,-297 -84,297 z"
   id="path82"
   inkscape:connector-curvature="0"
   style="fill:#000000;stroke:none" />
         <path
   d="m 10494,14153 54,-46 43,-40 36,-38 25,-36 15,-33 8,-31 -3,-30 -12,-28 -21,-23 -23,-13 -25,-5 -23,3 -23,7 -23,8 -15,13 -13,10 v 61 l 8,-10 13,-10 15,-11 15,-10 18,-5 h 18 l 15,5 13,13 7,18 3,20 -5,18 -13,23 -18,23 -25,23 -28,28 -36,30 -33,-30 -30,-28 -23,-23 -18,-23 -13,-23 -5,-18 v -20 l 8,-18 13,-13 18,-5 h 15 l 18,5 17,10 13,11 13,10 7,10 v -61 l -12,-10 -16,-13 -20,-8 -23,-7 -25,-3 -23,5 -23,13 -20,23 -13,28 -3,30 8,31 15,33 26,36 35,38 44,40 z"
   id="path84"
   inkscape:connector-curvature="0"
   style="fill:#000000;stroke:none" />
         <path
   d="m 10220,14242 -10,-10 -11,-18 -10,-20 -5,-23 -2,-25 5,-23 12,-23 23,-21 28,-15 31,-5 30,3 28,12 28,21 26,30 25,41 20,51 6,18 2,20 v 25 l -5,26 -8,25 -15,21 -23,15 -30,10 h -26 l -17,-3 -18,-5 -13,-10 -18,-13 -18,-17 -22,-18 -31,-23 -28,-13 -28,-2 -30,2 -26,10 -23,13 -20,13 -15,15 -8,10 -5,13 -8,15 -7,21 -3,25 v 25 l 8,28 18,31 28,30 30,21 28,10 h 28 l 25,-5 23,-10 18,-10 13,-11 7,-7 8,-16 3,-20 v -28 l -8,-28 -13,-23 -23,-17 -33,-8 -43,5 -20,15 -5,21 12,17 26,5 18,-5 h 17 l 16,5 10,18 v 13 l -8,15 -10,13 -15,10 -15,5 h -21 l -20,-7 -23,-16 -28,-45 -3,-46 18,-41 31,-23 18,-5 17,-5 h 16 l 17,3 18,7 18,10 20,18 23,23 26,23 28,13 33,7 h 33 l 30,-7 28,-16 26,-20 20,-25 13,-31 10,-33 2,-36 -5,-38 -12,-40 -21,-41 -28,-43 -40,-44 -28,-20 -26,-13 -28,-5 -25,-2 -26,5 -22,5 -21,10 -15,8 -15,12 -16,18 -15,23 -10,28 -5,33 2,33 13,38 28,41 28,25 28,13 26,5 25,-2 20,-5 21,-11 10,-7 7,-3 26,-35 5,-54 -18,-51 -41,-33 -33,-7 -25,2 -18,10 -15,16 -8,15 -2,20 v 16 l 7,15 16,13 h 17 l 13,-11 3,-17 2,-18 13,-5 15,2 13,13 8,20 2,18 -5,18 -10,13 -13,7 -10,8 -13,2 -10,3 -13,-3 -10,-2 -10,-5 z"
   id="path86"
   inkscape:connector-curvature="0"
   style="fill:#000000;stroke:none" />
         <path
   d="m 10772,14242 10,-10 10,-18 10,-20 5,-23 3,-25 -5,-23 -13,-23 -23,-21 -28,-15 -30,-5 -31,3 -28,12 -28,21 -25,30 -26,41 -23,51 -5,18 -2,20 v 25 l 5,26 7,25 16,21 23,15 30,10 h 26 l 20,-3 15,-5 15,-10 16,-13 17,-17 26,-18 30,-23 28,-13 28,-2 31,2 25,10 23,13 20,13 16,15 7,10 5,13 8,15 8,21 2,25 v 25 l -7,28 -18,31 -28,30 -31,21 -28,10 h -28 l -25,-5 -23,-10 -18,-10 -12,-11 -8,-7 -8,-16 -2,-20 v -28 l 7,-28 13,-23 20,-17 33,-8 44,5 23,15 5,21 -13,17 -28,5 -18,-5 h -15 l -15,5 -10,18 v 13 l 7,15 10,13 16,10 15,5 h 20 l 20,-7 21,-16 28,-45 5,-46 -18,-41 -30,-23 -18,-5 -18,-5 h -15 l -18,3 -18,7 -18,10 -20,18 -23,23 -25,23 -31,13 -30,7 h -33 l -33,-7 -31,-16 -25,-20 -18,-25 -13,-31 -10,-33 -3,-36 6,-38 12,-40 21,-41 30,-43 41,-44 25,-20 28,-13 28,-5 26,-2 25,5 20,5 21,10 15,8 15,12 18,18 15,23 10,28 5,33 -2,33 -13,38 -28,41 -28,25 -28,13 -25,5 -26,-2 -20,-5 -20,-11 -10,-7 -8,-3 -25,-35 -6,-54 18,-51 41,-33 33,-7 25,2 18,10 15,16 8,15 3,20 -3,16 -8,15 -15,13 h -15 l -13,-11 -2,-17 -3,-18 -13,-5 -15,2 -13,13 -7,20 v 18 l 2,18 11,13 10,7 12,8 11,2 12,3 10,-3 13,-2 10,-5 z"
   id="path88"
   inkscape:connector-curvature="0"
   style="fill:#000000;stroke:none" />
         <path
   d="m 9838,15020 v -269 h -549 v 269 z"
   id="path90"
   inkscape:connector-curvature="0"
   style="fill:#000000;stroke:none" />
         <path
   d="m 9788,15267 v -180 h -448 v 180 z"
   id="path92"
   inkscape:connector-curvature="0"
   style="fill:#000000;stroke:none" />
         <path
   d="m 9475,15509 v -181 h -135 v 181 z"
   id="path94"
   inkscape:connector-curvature="0"
   style="fill:#000000;stroke:none" />
         <path
   d="m 9788,15758 v -181 h -448 v 181 z"
   id="path96"
   inkscape:connector-curvature="0"
   style="fill:#000000;stroke:none" />
         <path
   d="m 9653,15816 v 181 h 135 v -181 z"
   id="path98"
   inkscape:connector-curvature="0"
   style="fill:#000000;stroke:none" />
         <path
   d="m 9788,15509 v -181 h -237 v 181 z"
   id="path100"
   inkscape:connector-curvature="0"
   style="fill:#000000;stroke:none" />
         <path
   d="m 9340,15816 v 181 h 237 v -181 z"
   id="path102"
   inkscape:connector-curvature="0"
   style="fill:#000000;stroke:none" />
         <path
   d="m 11161,15020 v -269 h 549 v 269 z"
   id="path104"
   inkscape:connector-curvature="0"
   style="fill:#000000;stroke:none" />
         <path
   d="m 11214,15267 v -180 h 445 v 180 z"
   id="path106"
   inkscape:connector-curvature="0"
   style="fill:#000000;stroke:none" />
         <path
   d="m 11524,15509 v -181 h 135 v 181 z"
   id="path108"
   inkscape:connector-curvature="0"
   style="fill:#000000;stroke:none" />
         <path
   d="m 11214,15758 v -181 h 445 v 181 z"
   id="path110"
   inkscape:connector-curvature="0"
   style="fill:#000000;stroke:none" />
         <path
   d="m 11346,15816 v 181 h -135 v -181 z"
   id="path112"
   inkscape:connector-curvature="0"
   style="fill:#000000;stroke:none" />
         <path
   d="m 11211,15509 v -181 h 237 v 181 z"
   id="path114"
   inkscape:connector-curvature="0"
   style="fill:#000000;stroke:none" />
         <path
   d="m 11659,15816 v 181 h -237 v -181 z"
   id="path116"
   inkscape:connector-curvature="0"
   style="fill:#000000;stroke:none" />
        </g>
       </g>
      </g>
     </g>
    </g>
   </g>
  </g>
 </g>
</svg>