<?xml version="1.0" encoding="UTF-8" standalone="no"?>
<svg
   xmlns:ooo="http://xml.openoffice.org/svg/export"
   xmlns:dc="http://purl.org/dc/elements/1.1/"
   xmlns:cc="http://creativecommons.org/ns#"
   xmlns:rdf="http://www.w3.org/1999/02/22-rdf-syntax-ns#"
   xmlns:svg="http://www.w3.org/2000/svg"
   xmlns="http://www.w3.org/2000/svg"
   xmlns:sodipodi="http://sodipodi.sourceforge.net/DTD/sodipodi-0.dtd"
   xmlns:inkscape="http://www.inkscape.org/namespaces/inkscape"
   version="1.2"
   width="33.93mm"
   height="42.470001mm"
   viewBox="0 0 3393 4247.0001"
   preserveAspectRatio="xMidYMid"
   xml:space="preserve"
   id="svg188"
   sodipodi:docname="gecko.svg"
   style="fill-rule:evenodd;stroke-width:28.22200012;stroke-linejoin:round"
   inkscape:version="0.92.5 (2060ec1f9f, 2020-04-08)"><metadata
   id="metadata192"><rdf:RDF><cc:Work
       rdf:about=""><dc:format>image/svg+xml</dc:format><dc:type
         rdf:resource="http://purl.org/dc/dcmitype/StillImage" /></cc:Work></rdf:RDF></metadata><sodipodi:namedview
   pagecolor="#ffffff"
   bordercolor="#666666"
   borderopacity="1"
   objecttolerance="10"
   gridtolerance="10"
   guidetolerance="10"
   inkscape:pageopacity="0"
   inkscape:pageshadow="2"
   inkscape:window-width="664"
   inkscape:window-height="487"
   id="namedview190"
   showgrid="false"
   inkscape:zoom="0.2102413"
   inkscape:cx="64.138584"
   inkscape:cy="80.239368"
   inkscape:window-x="0"
   inkscape:window-y="0"
   inkscape:window-maximized="0"
   inkscape:current-layer="svg188" />
 <defs
   class="ClipPathGroup"
   id="defs8">
  <clipPath
   id="presentation_clip_path"
   clipPathUnits="userSpaceOnUse">
   <rect
   x="0"
   y="0"
   width="21000"
   height="29700"
   id="rect2" />
  </clipPath>
  <clipPath
   id="presentation_clip_path_shrink"
   clipPathUnits="userSpaceOnUse">
   <rect
   x="21"
   y="29"
   width="20958"
   height="29641"
   id="rect5" />
  </clipPath>
 </defs>
 <defs
   class="TextShapeIndex"
   id="defs12">
  <g
   ooo:slide="id1"
   ooo:id-list="id3"
   id="g10" />
 </defs>
 <defs
   class="EmbeddedBulletChars"
   id="defs44">
  <g
   id="bullet-char-template-57356"
   transform="matrix(4.8828125e-4,0,0,-4.8828125e-4,0,0)">
   <path
   d="M 580,1141 1163,571 580,0 -4,571 Z"
   id="path14"
   inkscape:connector-curvature="0" />
  </g>
  <g
   id="bullet-char-template-57354"
   transform="matrix(4.8828125e-4,0,0,-4.8828125e-4,0,0)">
   <path
   d="M 8,1128 H 1137 V 0 H 8 Z"
   id="path17"
   inkscape:connector-curvature="0" />
  </g>
  <g
   id="bullet-char-template-10146"
   transform="matrix(4.8828125e-4,0,0,-4.8828125e-4,0,0)">
   <path
   d="M 174,0 602,739 174,1481 1456,739 Z M 1358,739 309,1346 659,739 Z"
   id="path20"
   inkscape:connector-curvature="0" />
  </g>
  <g
   id="bullet-char-template-10132"
   transform="matrix(4.8828125e-4,0,0,-4.8828125e-4,0,0)">
   <path
   d="M 2015,739 1276,0 H 717 l 543,543 H 174 v 393 h 1086 l -543,545 h 557 z"
   id="path23"
   inkscape:connector-curvature="0" />
  </g>
  <g
   id="bullet-char-template-10007"
   transform="matrix(4.8828125e-4,0,0,-4.8828125e-4,0,0)">
   <path
   d="m 0,-2 c -7,16 -16,29 -25,39 l 381,530 c -94,256 -141,385 -141,387 0,25 13,38 40,38 9,0 21,-2 34,-5 21,4 42,12 65,25 l 27,-13 111,-251 280,301 64,-25 24,25 c 21,-10 41,-24 62,-43 C 886,937 835,863 770,784 769,783 710,716 594,584 L 774,223 c 0,-27 -21,-55 -63,-84 l 16,-20 C 717,90 699,76 672,76 641,76 570,178 457,381 L 164,-76 c -22,-34 -53,-51 -92,-51 -42,0 -63,17 -64,51 -7,9 -10,24 -10,44 0,9 1,19 2,30 z"
   id="path26"
   inkscape:connector-curvature="0" />
  </g>
  <g
   id="bullet-char-template-10004"
   transform="matrix(4.8828125e-4,0,0,-4.8828125e-4,0,0)">
   <path
   d="M 285,-33 C 182,-33 111,30 74,156 52,228 41,333 41,471 c 0,78 14,145 41,201 34,71 87,106 158,106 53,0 88,-31 106,-94 l 23,-176 c 8,-64 28,-97 59,-98 l 735,706 c 11,11 33,17 66,17 42,0 63,-15 63,-46 V 965 c 0,-36 -10,-64 -30,-84 L 442,47 C 390,-6 338,-33 285,-33 Z"
   id="path29"
   inkscape:connector-curvature="0" />
  </g>
  <g
   id="bullet-char-template-9679"
   transform="matrix(4.8828125e-4,0,0,-4.8828125e-4,0,0)">
   <path
   d="M 813,0 C 632,0 489,54 383,161 276,268 223,411 223,592 c 0,181 53,324 160,431 106,107 249,161 430,161 179,0 323,-54 432,-161 108,-107 162,-251 162,-431 0,-180 -54,-324 -162,-431 C 1136,54 992,0 813,0 Z"
   id="path32"
   inkscape:connector-curvature="0" />
  </g>
  <g
   id="bullet-char-template-8226"
   transform="matrix(4.8828125e-4,0,0,-4.8828125e-4,0,0)">
   <path
   d="m 346,457 c -73,0 -137,26 -191,78 -54,51 -81,114 -81,188 0,73 27,136 81,188 54,52 118,78 191,78 73,0 134,-26 185,-79 51,-51 77,-114 77,-187 0,-75 -25,-137 -76,-188 -50,-52 -112,-78 -186,-78 z"
   id="path35"
   inkscape:connector-curvature="0" />
  </g>
  <g
   id="bullet-char-template-8211"
   transform="matrix(4.8828125e-4,0,0,-4.8828125e-4,0,0)">
   <path
   d="M -4,459 H 1135 V 606 H -4 Z"
   id="path38"
   inkscape:connector-curvature="0" />
  </g>
  <g
   id="bullet-char-template-61548"
   transform="matrix(4.8828125e-4,0,0,-4.8828125e-4,0,0)">
   <path
   d="m 173,740 c 0,163 58,303 173,419 116,115 255,173 419,173 163,0 302,-58 418,-173 116,-116 174,-256 174,-419 0,-163 -58,-303 -174,-418 C 1067,206 928,148 765,148 601,148 462,206 346,322 231,437 173,577 173,740 Z"
   id="path41"
   inkscape:connector-curvature="0" />
  </g>
 </defs>
 <g
   id="g49"
   transform="translate(-8803,-12726)">
  <g
   id="id2"
   class="Master_Slide">
   <g
   id="bg-id2"
   class="Background" />
   <g
   id="bo-id2"
   class="BackgroundObjects" />
  </g>
 </g>
 <g
   class="SlideGroup"
   id="g186"
   transform="translate(-8803,-12726)">
  <g
   id="g184">
   <g
   id="container-id1">
    <g
   id="id1"
   class="Slide"
   clip-path="url(#presentation_clip_path)">
     <g
   class="Page"
   id="g180">
      <g
   class="Graphic"
   id="g178">
       <g
   id="id3">
        <rect
   class="BoundingBox"
   x="8803"
   y="12726"
   width="3393"
   height="4247"
   id="rect51"
   style="fill:none;stroke:none" />
        <path
   d="m 9972,13710 -15,-16 -18,-5 -18,3 -17,10 -18,20 -13,23 -8,31 -2,35 5,41 10,48 15,51 16,53 12,51 5,46 v 41 l -10,33 -28,48 -28,56 -30,58 -28,56 -28,54 -28,43 -25,30 -26,18 -25,5 -31,5 -28,3 h -28 l -23,-3 -17,-5 -11,-7 v -13 l 11,-10 15,-8 20,-5 21,-3 17,-2 13,-5 3,-8 -6,-12 -22,-13 -33,-5 -39,-5 -33,-3 -20,-5 v -5 l 33,-13 69,-20 33,-13 7,-10 -10,-10 -25,-13 -36,-10 -40,-10 -39,-10 -33,-13 -17,-8 -3,-5 h 10 23 l 28,3 36,-3 38,-2 38,-8 28,-10 10,-8 -5,-7 -18,-8 -25,-10 -33,-15 -38,-18 -36,-23 -20,-18 5,-5 25,5 38,10 46,16 51,12 43,10 36,3 28,-13 22,-30 21,-46 15,-51 10,-56 5,-53 v -46 l -7,-35 -16,-39 -17,-48 -18,-56 -13,-58 -5,-54 8,-40 23,-28 43,-3 -66,-43 -56,-38 -49,-31 -40,-25 -36,-23 -30,-18 -28,-20 -26,-20 -23,7 -30,3 -33,-5 -38,-13 -41,-18 -43,-23 -46,-25 -46,-31 -45,-33 -44,-33 -40,-38 -41,-38 -35,-38 -31,-38 -25,-36 -18,-35 -26,-59 -17,-43 -5,-28 5,-18 15,-12 25,-5 36,-8 46,-8 45,-7 49,-3 h 53 l 53,3 54,7 56,8 53,13 51,12 48,18 46,18 41,18 35,20 28,23 21,23 12,23 3,23 18,12 25,15 28,21 36,20 35,23 41,25 40,26 41,25 41,28 40,26 39,25 38,23 30,20 28,21 23,15 18,13 56,-31 45,-20 41,-10 33,-3 28,5 23,10 20,13 18,15 28,23 36,31 43,33 46,30 43,26 43,20 36,5 28,-10 22,-28 23,-38 23,-46 21,-43 17,-36 13,-23 h 8 v 28 l -8,43 -10,39 -13,33 -10,25 -5,20 v 8 h 13 l 25,-15 33,-23 28,-26 25,-25 21,-23 12,-18 8,-5 3,3 -8,20 -13,33 -17,36 -21,35 -15,33 -10,28 v 16 h 12 l 34,-16 61,-38 30,-15 5,5 -10,15 -20,28 -26,31 -18,28 -5,25 5,13 11,2 10,-7 15,-10 15,-13 15,-10 16,-8 h 15 l 10,8 -2,15 -8,15 -13,21 -20,20 -20,18 -23,18 -23,15 -13,5 -15,2 h -20 l -21,-2 -25,-3 -26,-7 -28,-5 -28,-8 -30,-8 -31,-10 -30,-7 -31,-11 -27,-7 -31,-8 -28,-7 -25,-6 -36,-30 -43,-36 -43,-38 -46,-33 -43,-28 -33,-15 -23,3 -8,20 5,20 13,26 18,30 25,36 28,38 33,43 36,48 35,49 38,53 39,53 38,56 35,59 33,56 28,58 26,59 20,58 33,160 10,165 -7,168 -21,160 -25,145 -31,125 -28,94 -22,56 61,-33 58,-28 51,-21 46,-12 38,-8 35,-3 28,5 21,13 22,28 26,38 30,46 31,46 30,43 31,33 30,20 h 28 l 31,-17 35,-28 38,-36 36,-33 31,-28 17,-13 8,3 -10,25 -23,36 -23,33 -25,28 -18,20 -13,15 v 11 l 10,2 31,-5 38,-10 36,-15 33,-16 25,-12 18,-11 10,-2 v 5 l -13,15 -23,26 -30,25 -31,28 -28,25 -17,21 -5,15 10,5 35,-2 71,-16 33,-2 6,5 -16,13 -30,17 -31,21 -28,20 -15,20 v 13 l 8,5 h 15 l 18,-5 18,-5 20,-5 h 18 l 12,5 5,10 -5,13 -12,13 -21,12 -25,10 -28,13 -28,8 -25,5 -31,-3 -35,-15 -44,-28 -48,-33 -51,-36 -51,-38 -50,-38 -46,-30 -33,-18 -36,-20 -38,-18 -36,-15 -35,-8 -31,-3 -28,8 -20,20 -20,31 -26,38 -30,38 -31,36 -33,30 -30,18 -26,5 -20,-15 31,119 43,110 56,99 66,91 73,79 82,71 86,61 89,48 94,39 92,28 94,12 91,3 87,-10 81,-23 76,-36 66,-51 59,-58 46,-59 33,-58 25,-59 13,-58 2,-61 -7,-58 -16,-61 -23,-61 -33,-64 -38,-64 -45,-66 -51,-66 -56,-66 -64,-71 -66,-71 13,5 25,15 36,21 46,28 50,35 59,41 58,51 59,53 53,61 51,66 43,74 36,79 20,81 8,89 -8,94 -28,96 -33,77 -38,68 -43,64 -51,53 -51,49 -58,40 -61,33 -64,28 -66,21 -69,15 -71,7 -73,3 -74,-3 -74,-10 -76,-15 -76,-20 -74,-26 -74,-30 -73,-33 -72,-41 -68,-46 -69,-48 -63,-53 -61,-59 -56,-63 -54,-64 -50,-71 -44,-74 -40,-76 -33,-79 -28,-84 -21,-86 -17,23 -18,7 -21,-5 -20,-17 -25,-31 -26,-38 -28,-51 -30,-56 -28,48 -28,56 -31,56 -28,56 -28,51 -27,43 -26,33 -25,16 -26,5 -30,5 -28,2 h -28 l -23,-2 -18,-5 -10,-8 v -13 l 10,-12 15,-8 21,-3 20,-5 18,-2 13,-5 2,-8 -5,-13 -23,-12 -33,-5 -38,-6 -33,-2 -20,-3 v -7 l 33,-10 68,-21 33,-12 8,-11 -10,-10 -26,-12 -35,-11 -41,-10 -38,-10 -33,-13 -18,-7 -2,-5 h 10 23 l 28,2 35,-2 38,-3 38,-8 28,-10 11,-7 -5,-8 -18,-8 -26,-10 -33,-15 -38,-18 -35,-23 -21,-17 5,-8 26,5 38,13 46,12 50,16 44,10 35,2 26,-12 17,-31 16,-43 10,-53 7,-56 6,-54 5,-45 7,-36 16,-13 27,13 36,28 43,36 46,40 43,33 43,18 33,-3 51,-177 31,-194 10,-203 -13,-211 -28,-211 -48,-206 -64,-198 z"
   id="path53"
   inkscape:connector-curvature="0"
   style="fill:#000000;stroke:none" />
        <path
   d="m 9878,13811 v 0 l 3,-35 7,-26 10,-20 16,-18 12,-5 13,-2 10,2 10,10 26,-15 -21,-20 -25,-8 -23,3 -23,15 -20,23 -15,25 -8,36 -2,35 v 0 z"
   id="path55"
   inkscape:connector-curvature="0"
   style="fill:#000000;stroke:none" />
        <path
   d="m 9929,14182 v 0 l 13,-40 v -41 l -5,-48 -13,-51 -15,-53 -16,-51 -10,-49 -5,-38 h -30 l 5,43 10,49 15,51 15,53 13,51 5,43 v 41 l -7,25 v 0 z"
   id="path57"
   inkscape:connector-curvature="0"
   style="fill:#000000;stroke:none" />
        <path
   d="m 9698,14553 v 0 l 33,-22 28,-34 28,-43 28,-56 28,-56 30,-58 28,-53 28,-49 -25,-15 -28,48 -28,59 -31,58 -28,56 -28,51 -28,43 -23,28 -17,13 v 0 z"
   id="path59"
   inkscape:connector-curvature="0"
   style="fill:#000000;stroke:none" />
        <path
   d="m 9520,14518 v 0 23 l 18,15 20,8 25,2 h 28 l 28,-2 33,-6 26,-5 -5,-30 -26,5 -28,5 -28,3 h -28 l -20,-3 -15,-2 h -3 v -3 0 z"
   id="path61"
   inkscape:connector-curvature="0"
   style="fill:#000000;stroke:none" />
        <path
   d="m 9616,14480 h -2 l 2,2 3,-2 h -5 l -15,2 -23,3 -23,5 -18,10 -15,18 25,10 5,-3 13,-5 18,-5 18,-2 20,-3 20,-10 8,-18 -8,-23 h -2 z"
   id="path63"
   inkscape:connector-curvature="0"
   style="fill:#000000;stroke:none" />
        <path
   d="m 9578,14386 v 0 l -71,20 -36,15 3,31 25,7 33,3 39,5 30,5 15,8 21,-21 -31,-17 -35,-6 -39,-5 -33,-2 -15,-3 3,21 30,-11 66,-20 v 0 z"
   id="path65"
   inkscape:connector-curvature="0"
   style="fill:#000000;stroke:none" />
        <path
   d="m 9433,14325 v 0 l 36,15 38,10 41,10 33,10 23,11 2,-3 v -3 l -28,11 5,30 38,-15 16,-23 -18,-23 -28,-15 -38,-10 -41,-10 -38,-11 -31,-10 v 0 z"
   id="path67"
   inkscape:connector-curvature="0"
   style="fill:#000000;stroke:none" />
        <path
   d="m 9588,14274 v 0 l -35,7 -38,3 -36,3 -28,-3 h -23 l -18,3 3,30 20,8 10,-26 -15,-7 -2,20 2,2 h 23 l 28,3 36,-3 38,-2 40,-8 v 0 z"
   id="path69"
   inkscape:connector-curvature="0"
   style="fill:#000000;stroke:none" />
        <path
   d="m 9466,14203 v 0 l 36,23 41,17 33,16 25,10 15,7 -2,-10 v 0 l -26,8 5,30 31,-12 20,-16 -12,-25 -21,-8 -25,-10 -33,-15 -36,-18 -35,-23 v 0 z"
   id="path71"
   inkscape:connector-curvature="0"
   style="fill:#000000;stroke:none" />
        <path
   d="m 9698,14208 v 0 l -33,-3 -44,-10 -50,-13 -46,-15 -38,-10 -28,-5 -18,28 25,23 16,-26 -16,-12 -7,17 23,5 38,11 45,15 51,13 44,10 38,2 v 0 z"
   id="path73"
   inkscape:connector-curvature="0"
   style="fill:#000000;stroke:none" />
        <path
   d="m 9776,13898 v 0 l 8,30 v 46 l -5,53 -10,54 -15,48 -18,43 -21,28 -17,8 v 30 l 38,-18 25,-33 23,-48 15,-53 10,-59 6,-53 v -46 l -8,-40 v 0 z"
   id="path75"
   inkscape:connector-curvature="0"
   style="fill:#000000;stroke:none" />
        <path
   d="m 9789,13580 10,-28 -51,5 -30,36 -10,45 5,56 13,59 17,58 18,49 15,38 31,-10 -15,-39 -18,-48 -18,-53 -13,-59 -5,-51 5,-35 16,-20 h 35 l 10,-28 -10,28 69,10 -59,-38 z"
   id="path77"
   inkscape:connector-curvature="0"
   style="fill:#000000;stroke:none" />
        <path
   d="m 9474,13361 h -18 l 28,21 28,20 31,18 35,23 41,25 48,31 56,38 66,43 15,-25 -66,-44 -56,-38 -48,-30 -41,-26 -35,-23 -31,-17 -28,-21 -22,-20 h -18 18 l -11,-5 -7,5 z"
   id="path79"
   inkscape:connector-curvature="0"
   style="fill:#000000;stroke:none" />
        <path
   d="m 8874,12960 v 0 l 18,38 25,36 33,40 36,38 41,38 40,39 46,35 46,33 46,31 45,25 46,23 41,20 40,13 36,5 33,-2 28,-11 -15,-25 -18,5 -28,3 -31,-5 -35,-13 -41,-15 -40,-23 -46,-26 -46,-30 -46,-33 -40,-31 -41,-38 -41,-38 -35,-38 -28,-36 -26,-35 -17,-33 v 0 z"
   id="path81"
   inkscape:connector-curvature="0"
   style="fill:#000000;stroke:none" />
        <path
   d="m 8963,12759 v 0 l -46,8 -35,7 -28,8 -23,18 -8,25 5,31 21,45 25,59 26,-10 -26,-59 -15,-40 -5,-26 2,-10 8,-8 23,-2 35,-8 46,-7 v 0 z"
   id="path83"
   inkscape:connector-curvature="0"
   style="fill:#000000;stroke:none" />
        <path
   d="m 9621,12960 8,13 -3,-28 -15,-26 -23,-25 -30,-26 -38,-20 -41,-18 -46,-20 -51,-18 -50,-13 -54,-12 -58,-8 -54,-8 -53,-2 h -53 l -49,2 -48,8 5,31 43,-8 49,-3 h 53 l 53,3 54,8 53,7 54,13 50,13 46,17 46,16 41,17 33,21 25,20 18,20 10,21 3,18 7,12 -7,-12 v 7 l 7,5 z"
   id="path85"
   inkscape:connector-curvature="0"
   style="fill:#000000;stroke:none" />
        <path
   d="m 10127,13298 h 18 l -20,-13 -23,-15 -28,-20 -31,-21 -38,-23 -38,-25 -41,-25 -40,-28 -41,-26 -41,-25 -40,-26 -36,-23 -35,-20 -28,-20 -26,-15 -18,-13 -15,25 18,13 25,15 28,21 36,20 35,23 41,25 41,26 40,25 41,28 41,25 38,26 38,23 31,20 27,20 23,16 16,12 h 17 -17 l 10,5 7,-5 z"
   id="path87"
   inkscape:connector-curvature="0"
   style="fill:#000000;stroke:none" />
        <path
   d="m 10409,13280 v 0 l -20,-18 -20,-12 -28,-13 -31,-5 -35,2 -44,10 -45,23 -59,31 15,25 54,-30 46,-18 38,-10 30,-3 26,5 17,8 21,13 15,12 v 0 z"
   id="path89"
   inkscape:connector-curvature="0"
   style="fill:#000000;stroke:none" />
        <path
   d="m 10691,13438 v 0 l -17,5 -33,-5 -39,-18 -43,-26 -46,-30 -40,-33 -36,-28 -28,-23 -20,20 28,23 35,33 46,33 46,31 43,25 48,23 39,5 38,-15 v 0 z"
   id="path91"
   inkscape:connector-curvature="0"
   style="fill:#000000;stroke:none" />
        <path
   d="m 10844,13262 v 0 -30 l -33,-8 -15,28 -18,36 -21,43 -22,43 -23,38 -21,26 21,20 25,-31 23,-38 23,-48 20,-43 18,-36 10,-18 -18,-7 v 25 0 z"
   id="path93"
   inkscape:connector-curvature="0"
   style="fill:#000000;stroke:none" />
        <path
   d="m 10813,13402 v 0 l -22,13 v 2 l 7,8 5,-18 10,-25 13,-36 10,-38 8,-46 h -31 l -7,41 -10,38 -13,31 -10,25 -5,23 7,23 26,2 28,-18 v 0 z"
   id="path95"
   inkscape:connector-curvature="0"
   style="fill:#000000;stroke:none" />
        <path
   d="m 10958,13323 v 0 l 8,-23 -20,-20 -16,10 -15,18 -18,23 -25,25 -28,23 -31,23 16,25 35,-22 28,-28 26,-26 22,-23 11,-17 v 0 l -16,-16 -7,18 v 0 z"
   id="path97"
   inkscape:connector-curvature="0"
   style="fill:#000000;stroke:none" />
        <path
   d="m 10905,13471 v 0 l -31,12 3,5 5,-2 8,-25 15,-34 20,-33 18,-38 15,-33 -30,-10 -10,33 -18,33 -21,38 -15,33 -12,31 5,28 28,5 35,-18 v 0 z"
   id="path99"
   inkscape:connector-curvature="0"
   style="fill:#000000;stroke:none" />
        <path
   d="m 10946,13562 v 0 l 2,-20 18,-26 25,-30 21,-28 12,-20 -23,-23 -35,18 -61,38 15,25 61,-38 26,-13 -13,-12 -8,10 -20,28 -26,30 -17,31 -8,30 v 0 z"
   id="path101"
   inkscape:connector-curvature="0"
   style="fill:#000000;stroke:none" />
        <path
   d="m 11037,13514 v 0 h -23 l -20,10 -15,10 -16,13 -15,10 -5,5 3,3 v -3 h -31 l 10,23 23,8 15,-10 16,-11 15,-12 15,-11 10,-5 h 8 v 0 z"
   id="path103"
   inkscape:connector-curvature="0"
   style="fill:#000000;stroke:none" />
        <path
   d="m 10940,13671 v 0 l 23,-15 26,-18 20,-20 23,-20 13,-23 10,-18 2,-25 -20,-18 -10,30 v -2 l -3,5 -5,13 -12,17 -18,21 -21,15 -20,18 -23,15 v 0 z"
   id="path105"
   inkscape:connector-curvature="0"
   style="fill:#000000;stroke:none" />
        <path
   d="m 10513,13588 8,5 26,5 27,7 31,8 28,8 30,10 31,7 30,11 31,7 28,8 28,5 25,8 28,2 21,3 h 20 l 18,-3 17,-8 -15,-25 -7,3 -13,2 h -20 l -21,-2 -23,-3 -25,-8 -28,-5 -28,-7 -30,-8 -31,-10 -30,-8 -31,-10 -28,-7 -30,-8 -28,-8 -26,-5 8,5 -21,21 6,2 2,3 z"
   id="path107"
   inkscape:connector-curvature="0"
   style="fill:#000000;stroke:none" />
        <path
   d="m 10264,13420 v 0 -8 h 13 l 28,13 43,28 43,33 44,36 43,35 35,31 21,-21 -36,-30 -43,-36 -43,-40 -48,-34 -44,-27 -38,-18 -33,5 -15,33 v 0 z"
   id="path109"
   inkscape:connector-curvature="0"
   style="fill:#000000;stroke:none" />
        <path
   d="m 10714,14159 v 0 l -20,-61 -28,-58 -28,-61 -33,-56 -36,-58 -38,-56 -38,-54 -38,-53 -36,-48 -35,-49 -33,-43 -28,-38 -26,-36 -17,-30 -11,-23 -5,-15 h -30 l 5,25 15,28 18,31 25,35 28,38 33,44 36,48 36,48 38,54 38,53 38,56 36,58 33,56 28,56 22,59 21,56 v 0 z"
   id="path111"
   inkscape:connector-curvature="0"
   style="fill:#000000;stroke:none" />
        <path
   d="m 10600,15222 20,18 26,-56 28,-97 30,-124 26,-148 20,-160 7,-168 -10,-165 -33,-163 -30,6 33,157 10,165 -8,168 -20,160 -25,143 -31,124 -28,92 -20,55 20,18 -20,-18 -23,44 43,-26 z"
   id="path113"
   inkscape:connector-curvature="0"
   style="fill:#000000;stroke:none" />
        <path
   d="m 10956,15138 v 0 l -26,-18 -33,-5 -35,3 -41,7 -48,13 -51,23 -59,28 -63,33 15,25 59,-33 58,-28 51,-18 43,-12 36,-8 35,-2 23,5 15,7 v 0 z"
   id="path115"
   inkscape:connector-curvature="0"
   style="fill:#000000;stroke:none" />
        <path
   d="m 11169,15387 v 3 l -18,-3 -25,-15 -28,-33 -30,-41 -31,-46 -30,-45 -26,-39 -25,-30 -21,20 21,26 25,38 31,46 30,45 31,46 33,33 35,26 38,-3 v 3 z"
   id="path117"
   inkscape:connector-curvature="0"
   style="fill:#000000;stroke:none" />
        <path
   d="m 11373,15280 v 0 l 12,-30 -28,-18 -23,18 -30,28 -36,33 -38,35 -33,26 -28,15 10,31 33,-21 39,-30 38,-36 35,-33 31,-28 12,-7 -12,-13 -8,20 v 0 z"
   id="path119"
   inkscape:connector-curvature="0"
   style="fill:#000000;stroke:none" />
        <path
   d="m 11296,15400 v 0 l -28,5 3,2 v 5 l 10,-10 18,-20 28,-28 23,-36 23,-38 -26,-10 -23,33 -23,31 -23,28 -17,20 -16,20 v 26 l 23,7 33,-5 v 0 z"
   id="path121"
   inkscape:connector-curvature="0"
   style="fill:#000000;stroke:none" />
        <path
   d="m 11456,15379 v 0 l 16,-17 -11,-28 -17,5 -21,10 -23,13 -33,15 -35,13 -36,10 5,30 41,-10 36,-18 33,-15 28,-13 15,-10 h 2 l -10,-18 -10,13 v 0 z"
   id="path123"
   inkscape:connector-curvature="0"
   style="fill:#000000;stroke:none" />
        <path
   d="m 11355,15496 v 0 l -33,3 5,8 2,-6 16,-17 28,-26 30,-28 31,-25 22,-26 -20,-20 -23,26 -30,25 -31,28 -28,25 -20,23 -8,26 26,17 38,-2 v 0 z"
   id="path125"
   inkscape:connector-curvature="0"
   style="fill:#000000;stroke:none" />
        <path
   d="m 11362,15593 v 0 l 11,-13 25,-18 30,-20 31,-18 20,-17 -18,-28 -35,2 -71,15 5,31 71,-15 30,-3 -7,-18 -10,8 -31,18 -30,20 -31,23 -20,28 v 0 z"
   id="path127"
   inkscape:connector-curvature="0"
   style="fill:#000000;stroke:none" />
        <path
   d="m 11467,15588 v 0 l -21,-10 h -20 l -23,5 -18,5 -15,5 h -13 l 3,5 2,-5 -30,-5 2,20 18,15 h 18 l 20,-5 18,-5 18,-5 h 15 5 v 0 z"
   id="path129"
   inkscape:connector-curvature="0"
   style="fill:#000000;stroke:none" />
        <path
   d="m 11319,15697 h -2 l 28,-5 30,-8 28,-15 25,-10 23,-13 18,-18 8,-20 -10,-20 -21,20 v 0 l -2,5 -8,8 -18,13 -25,10 -28,10 -26,8 -22,5 h -3 z"
   id="path131"
   inkscape:connector-curvature="0"
   style="fill:#000000;stroke:none" />
        <path
   d="m 10953,15473 v 0 l 46,31 51,38 51,38 50,36 49,33 43,28 41,18 35,2 -5,-30 -25,-3 -31,-13 -43,-28 -48,-33 -51,-35 -51,-38 -51,-38 -46,-31 v 0 z"
   id="path133"
   inkscape:connector-curvature="0"
   style="fill:#000000;stroke:none" />
        <path
   d="m 10717,15415 v 0 l 15,-15 20,-5 31,2 33,8 33,13 38,17 33,21 33,17 15,-25 -33,-18 -38,-20 -38,-18 -38,-18 -38,-7 -31,-3 -35,10 -26,26 v 0 z"
   id="path135"
   inkscape:connector-curvature="0"
   style="fill:#000000;stroke:none" />
        <path
   d="m 10503,15585 -28,10 31,23 33,-5 33,-20 36,-33 33,-36 30,-40 25,-38 21,-31 -26,-15 -20,30 -25,38 -31,36 -28,36 -30,27 -28,16 -18,5 -10,-8 -28,10 28,-10 -43,-66 15,76 z"
   id="path137"
   inkscape:connector-curvature="0"
   style="fill:#000000;stroke:none" />
        <path
   d="m 11685,16218 v 0 l -63,48 -74,33 -79,23 -84,11 -91,-3 -92,-13 -89,-28 -94,-35 -86,-49 -84,-61 -81,-68 -72,-79 -66,-89 -56,-97 -40,-106 -31,-120 -30,5 30,120 46,112 56,101 66,94 76,79 82,74 89,61 91,48 94,41 94,28 97,12 91,3 89,-10 84,-23 79,-38 68,-54 v 0 z"
   id="path139"
   inkscape:connector-curvature="0"
   style="fill:#000000;stroke:none" />
        <path
   d="m 11479,15214 -15,23 66,71 64,71 53,67 51,63 46,66 38,64 33,61 20,58 15,61 8,56 -3,61 -12,53 -23,59 -33,56 -43,56 -59,58 20,20 59,-58 48,-61 33,-61 28,-58 13,-64 2,-61 -7,-61 -15,-61 -26,-64 -33,-66 -38,-63 -46,-66 -51,-69 -58,-66 -64,-71 -66,-71 -15,23 10,-26 -66,-30 51,53 z"
   id="path141"
   inkscape:connector-curvature="0"
   style="fill:#000000;stroke:none" />
        <path
   d="m 12010,16122 v 0 l 28,-100 8,-96 -8,-92 -20,-84 -38,-78 -43,-77 -51,-68 -56,-61 -58,-54 -61,-53 -59,-41 -51,-35 -45,-28 -36,-20 -25,-16 -16,-5 -10,26 10,5 26,15 35,20 46,28 51,36 58,41 56,48 59,53 51,61 50,64 44,71 33,79 20,78 8,87 -8,91 -28,94 v 0 z"
   id="path143"
   inkscape:connector-curvature="0"
   style="fill:#000000;stroke:none" />
        <path
   d="m 10150,15601 -28,-6 20,87 28,86 36,79 41,79 43,74 51,71 56,66 55,63 61,59 67,56 68,48 69,46 74,40 73,33 74,34 76,25 76,20 77,16 76,10 74,2 73,-2 74,-8 69,-15 68,-21 64,-30 63,-33 61,-41 51,-51 54,-53 43,-66 38,-71 35,-76 -30,-11 -31,77 -38,66 -43,61 -48,53 -51,46 -56,41 -58,33 -64,25 -63,20 -69,16 -69,7 -73,3 -74,-3 -71,-10 -77,-15 -76,-21 -71,-25 -74,-28 -73,-33 -69,-41 -69,-45 -68,-49 -61,-51 -61,-58 -56,-64 -51,-61 -51,-71 -43,-73 -41,-74 -30,-79 -28,-81 -20,-87 -28,-5 28,5 -11,-43 -17,38 z"
   id="path145"
   inkscape:connector-curvature="0"
   style="fill:#000000;stroke:none" />
        <path
   d="m 9964,15433 h -25 l 31,56 28,51 25,38 28,33 23,20 28,8 28,-13 20,-25 -25,-16 -16,21 -7,2 -13,-2 -18,-16 -23,-28 -25,-38 -28,-51 -31,-55 h -25 25 l -12,-23 -13,23 z"
   id="path147"
   inkscape:connector-curvature="0"
   style="fill:#000000;stroke:none" />
        <path
   d="m 9733,15799 v 0 l 33,-21 28,-35 28,-43 28,-54 28,-56 31,-56 28,-53 27,-48 -25,-15 -28,48 -28,58 -30,56 -28,56 -28,48 -28,44 -23,30 -18,10 v 0 z"
   id="path149"
   inkscape:connector-curvature="0"
   style="fill:#000000;stroke:none" />
        <path
   d="m 9553,15763 h 2 v 23 l 18,15 20,8 26,2 h 28 l 28,-2 33,-5 25,-5 -5,-31 -25,5 -28,5 -28,3 h -28 l -20,-3 -16,-2 h -2 v -3 h 2 z"
   id="path151"
   inkscape:connector-curvature="0"
   style="fill:#000000;stroke:none" />
        <path
   d="m 9652,15723 h -3 l 3,2 2,-2 h -5 l -17,2 -21,5 -20,3 -23,10 -15,20 30,10 5,-5 8,-5 20,-2 21,-5 17,-3 21,-10 7,-18 -7,-23 h -3 z"
   id="path153"
   inkscape:connector-curvature="0"
   style="fill:#000000;stroke:none" />
        <path
   d="m 9614,15631 v 0 l -69,20 -38,13 3,33 25,5 33,3 38,5 31,5 15,8 20,-21 -30,-18 -36,-5 -38,-5 -33,-2 h -15 l 2,17 28,-7 69,-20 v 0 z"
   id="path155"
   inkscape:connector-curvature="0"
   style="fill:#000000;stroke:none" />
        <path
   d="m 9469,15570 v 0 l 35,15 39,10 40,11 33,10 23,10 3,-3 v -2 l -28,10 5,31 38,-16 15,-23 -18,-22 -28,-16 -38,-10 -40,-10 -38,-10 -31,-10 v 0 z"
   id="path157"
   inkscape:connector-curvature="0"
   style="fill:#000000;stroke:none" />
        <path
   d="m 9624,15519 v 0 l -36,8 -38,2 -35,3 -28,-3 h -23 l -18,3 3,30 20,8 10,-25 -15,-8 -3,20 3,3 h 23 l 28,2 35,-2 38,-3 41,-7 v 0 z"
   id="path159"
   inkscape:connector-curvature="0"
   style="fill:#000000;stroke:none" />
        <path
   d="m 9502,15448 v 0 l 36,23 40,18 33,15 26,10 15,8 -3,-10 v 0 l -25,7 5,31 31,-13 20,-15 -13,-26 -20,-7 -26,-10 -33,-16 -35,-17 -36,-23 v 0 z"
   id="path161"
   inkscape:connector-curvature="0"
   style="fill:#000000;stroke:none" />
        <path
   d="m 9733,15453 v 0 l -33,-2 -43,-11 -51,-15 -46,-13 -38,-12 -28,-5 -17,30 25,23 15,-25 -15,-13 -8,15 23,5 38,13 46,13 51,15 43,10 38,3 v 0 z"
   id="path163"
   inkscape:connector-curvature="0"
   style="fill:#000000;stroke:none" />
        <path
   d="m 9812,15135 v 0 l -8,39 -5,45 -5,54 -7,53 -11,53 -12,41 -16,26 -15,7 v 31 l 36,-18 20,-36 18,-45 10,-54 8,-58 5,-54 5,-45 8,-33 v 0 z"
   id="path165"
   inkscape:connector-curvature="0"
   style="fill:#000000;stroke:none" />
        <path
   d="m 10099,15285 8,-7 h -23 l -38,-15 -41,-34 -46,-38 -43,-38 -38,-28 -35,-15 -31,25 31,6 v 0 l 20,10 33,28 43,33 46,43 46,33 48,20 43,-5 8,-7 -8,7 5,-2 3,-5 z"
   id="path167"
   inkscape:connector-curvature="0"
   style="fill:#000000;stroke:none" />
        <path
   d="m 9959,13717 v -2 l 79,180 64,196 48,206 28,208 13,211 -10,203 -31,191 -51,175 31,11 51,-181 30,-196 10,-203 -13,-211 -27,-213 -49,-206 -63,-201 -84,-180 v -3 z"
   id="path169"
   inkscape:connector-curvature="0"
   style="fill:#000000;stroke:none" />
        <path
   d="m 9982,13557 56,-23 -35,-18 17,77 5,28 28,-11 56,-20 -33,-18 18,77 5,17 h 21 l 61,3 -23,-31 -13,77 -5,30 h 28 l 61,3 -23,-31 -13,76 -2,28 h 28 l 63,3 -25,-31 -13,77 -5,28 28,2 h 61 l -23,-28 -13,74 -2,30 h 28 61 l -23,-27 -13,76 -5,28 h 28 l 61,2 -23,-30 -18,81 -2,20 20,8 76,25 -15,-35 -43,94 -13,28 28,7 79,23 -15,-33 -43,94 -8,18 15,13 66,51 v -38 l -76,71 -20,20 23,18 63,51 -2,-38 -72,71 -22,20 22,18 66,51 v -38 l -76,71 -20,20 23,18 63,51 -2,-38 -71,71 -23,20 23,18 66,51 v -38 l -77,71 -20,20 23,18 64,48 -3,-35 -74,66 33,35 77,-66 20,-20 -23,-18 -64,-51 3,38 74,-71 23,-20 -26,-18 -66,-51 3,38 73,-71 21,-20 -23,-18 -64,-48 3,35 74,-71 22,-18 -25,-17 -66,-51 2,35 74,-71 20,-18 -22,-17 -64,-51 3,38 73,-71 21,-21 -23,-17 -66,-54 7,31 44,-94 10,-28 -26,-8 -79,-23 16,36 43,-94 13,-26 -28,-10 -77,-25 18,28 15,-79 6,-31 h -28 l -61,-2 22,30 13,-76 5,-28 -28,-2 h -63 l 25,28 10,-74 5,-28 -28,-3 h -61 l 23,28 13,-76 5,-28 h -28 -63 l 25,28 10,-76 5,-28 h -28 l -61,-3 23,31 13,-76 5,-28 -28,-3 h -63 l 22,18 -17,-76 -5,-26 -28,8 -56,23 33,18 -16,-77 -7,-28 -28,10 -56,23 z"
   id="path171"
   inkscape:connector-curvature="0"
   style="fill:#4cce4c;stroke:none" />
        <path
   d="m 9258,13186 8,-25 15,-18 20,-13 26,-2 25,7 18,15 12,23 3,26 -8,25 -15,18 -23,10 -25,3 -26,-8 -17,-15 -11,-21 z"
   id="path173"
   inkscape:connector-curvature="0"
   style="fill:#ff0066;stroke:none" />
        <path
   d="m 9352,12950 8,-26 15,-18 20,-10 26,-2 25,7 18,16 13,20 2,25 -8,26 -15,18 -23,12 -25,3 -23,-8 -20,-15 -10,-23 z"
   id="path175"
   inkscape:connector-curvature="0"
   style="fill:#ff0066;stroke:none" />
       </g>
      </g>
     </g>
    </g>
   </g>
  </g>
 </g>
</svg>