<?xml version="1.0" encoding="UTF-8" standalone="no"?>
<svg
   xmlns:ooo="http://xml.openoffice.org/svg/export"
   xmlns:dc="http://purl.org/dc/elements/1.1/"
   xmlns:cc="http://creativecommons.org/ns#"
   xmlns:rdf="http://www.w3.org/1999/02/22-rdf-syntax-ns#"
   xmlns:svg="http://www.w3.org/2000/svg"
   xmlns="http://www.w3.org/2000/svg"
   xmlns:sodipodi="http://sodipodi.sourceforge.net/DTD/sodipodi-0.dtd"
   xmlns:inkscape="http://www.inkscape.org/namespaces/inkscape"
   version="1.2"
   width="23.52mm"
   height="42.240002mm"
   viewBox="0 0 2352 4224.0002"
   preserveAspectRatio="xMidYMid"
   xml:space="preserve"
   id="svg233"
   sodipodi:docname="getwell3.svg"
   style="fill-rule:evenodd;stroke-width:28.22200012;stroke-linejoin:round"
   inkscape:version="0.92.5 (2060ec1f9f, 2020-04-08)"><metadata
   id="metadata237"><rdf:RDF><cc:Work
       rdf:about=""><dc:format>image/svg+xml</dc:format><dc:type
         rdf:resource="http://purl.org/dc/dcmitype/StillImage" /></cc:Work></rdf:RDF></metadata><sodipodi:namedview
   pagecolor="#ffffff"
   bordercolor="#666666"
   borderopacity="1"
   objecttolerance="10"
   gridtolerance="10"
   guidetolerance="10"
   inkscape:pageopacity="0"
   inkscape:pageshadow="2"
   inkscape:window-width="664"
   inkscape:window-height="487"
   id="namedview235"
   showgrid="false"
   inkscape:zoom="0.2102413"
   inkscape:cx="44.447245"
   inkscape:cy="79.82362"
   inkscape:window-x="0"
   inkscape:window-y="0"
   inkscape:window-maximized="0"
   inkscape:current-layer="svg233" />
 <defs
   class="ClipPathGroup"
   id="defs8">
  <clipPath
   id="presentation_clip_path"
   clipPathUnits="userSpaceOnUse">
   <rect
   x="0"
   y="0"
   width="21000"
   height="29700"
   id="rect2" />
  </clipPath>
  <clipPath
   id="presentation_clip_path_shrink"
   clipPathUnits="userSpaceOnUse">
   <rect
   x="21"
   y="29"
   width="20958"
   height="29641"
   id="rect5" />
  </clipPath>
 </defs>
 <defs
   class="TextShapeIndex"
   id="defs12">
  <g
   ooo:slide="id1"
   ooo:id-list="id3"
   id="g10" />
 </defs>
 <defs
   class="EmbeddedBulletChars"
   id="defs44">
  <g
   id="bullet-char-template-57356"
   transform="matrix(4.8828125e-4,0,0,-4.8828125e-4,0,0)">
   <path
   d="M 580,1141 1163,571 580,0 -4,571 Z"
   id="path14"
   inkscape:connector-curvature="0" />
  </g>
  <g
   id="bullet-char-template-57354"
   transform="matrix(4.8828125e-4,0,0,-4.8828125e-4,0,0)">
   <path
   d="M 8,1128 H 1137 V 0 H 8 Z"
   id="path17"
   inkscape:connector-curvature="0" />
  </g>
  <g
   id="bullet-char-template-10146"
   transform="matrix(4.8828125e-4,0,0,-4.8828125e-4,0,0)">
   <path
   d="M 174,0 602,739 174,1481 1456,739 Z M 1358,739 309,1346 659,739 Z"
   id="path20"
   inkscape:connector-curvature="0" />
  </g>
  <g
   id="bullet-char-template-10132"
   transform="matrix(4.8828125e-4,0,0,-4.8828125e-4,0,0)">
   <path
   d="M 2015,739 1276,0 H 717 l 543,543 H 174 v 393 h 1086 l -543,545 h 557 z"
   id="path23"
   inkscape:connector-curvature="0" />
  </g>
  <g
   id="bullet-char-template-10007"
   transform="matrix(4.8828125e-4,0,0,-4.8828125e-4,0,0)">
   <path
   d="m 0,-2 c -7,16 -16,29 -25,39 l 381,530 c -94,256 -141,385 -141,387 0,25 13,38 40,38 9,0 21,-2 34,-5 21,4 42,12 65,25 l 27,-13 111,-251 280,301 64,-25 24,25 c 21,-10 41,-24 62,-43 C 886,937 835,863 770,784 769,783 710,716 594,584 L 774,223 c 0,-27 -21,-55 -63,-84 l 16,-20 C 717,90 699,76 672,76 641,76 570,178 457,381 L 164,-76 c -22,-34 -53,-51 -92,-51 -42,0 -63,17 -64,51 -7,9 -10,24 -10,44 0,9 1,19 2,30 z"
   id="path26"
   inkscape:connector-curvature="0" />
  </g>
  <g
   id="bullet-char-template-10004"
   transform="matrix(4.8828125e-4,0,0,-4.8828125e-4,0,0)">
   <path
   d="M 285,-33 C 182,-33 111,30 74,156 52,228 41,333 41,471 c 0,78 14,145 41,201 34,71 87,106 158,106 53,0 88,-31 106,-94 l 23,-176 c 8,-64 28,-97 59,-98 l 735,706 c 11,11 33,17 66,17 42,0 63,-15 63,-46 V 965 c 0,-36 -10,-64 -30,-84 L 442,47 C 390,-6 338,-33 285,-33 Z"
   id="path29"
   inkscape:connector-curvature="0" />
  </g>
  <g
   id="bullet-char-template-9679"
   transform="matrix(4.8828125e-4,0,0,-4.8828125e-4,0,0)">
   <path
   d="M 813,0 C 632,0 489,54 383,161 276,268 223,411 223,592 c 0,181 53,324 160,431 106,107 249,161 430,161 179,0 323,-54 432,-161 108,-107 162,-251 162,-431 0,-180 -54,-324 -162,-431 C 1136,54 992,0 813,0 Z"
   id="path32"
   inkscape:connector-curvature="0" />
  </g>
  <g
   id="bullet-char-template-8226"
   transform="matrix(4.8828125e-4,0,0,-4.8828125e-4,0,0)">
   <path
   d="m 346,457 c -73,0 -137,26 -191,78 -54,51 -81,114 -81,188 0,73 27,136 81,188 54,52 118,78 191,78 73,0 134,-26 185,-79 51,-51 77,-114 77,-187 0,-75 -25,-137 -76,-188 -50,-52 -112,-78 -186,-78 z"
   id="path35"
   inkscape:connector-curvature="0" />
  </g>
  <g
   id="bullet-char-template-8211"
   transform="matrix(4.8828125e-4,0,0,-4.8828125e-4,0,0)">
   <path
   d="M -4,459 H 1135 V 606 H -4 Z"
   id="path38"
   inkscape:connector-curvature="0" />
  </g>
  <g
   id="bullet-char-template-61548"
   transform="matrix(4.8828125e-4,0,0,-4.8828125e-4,0,0)">
   <path
   d="m 173,740 c 0,163 58,303 173,419 116,115 255,173 419,173 163,0 302,-58 418,-173 116,-116 174,-256 174,-419 0,-163 -58,-303 -174,-418 C 1067,206 928,148 765,148 601,148 462,206 346,322 231,437 173,577 173,740 Z"
   id="path41"
   inkscape:connector-curvature="0" />
  </g>
 </defs>
 <g
   id="g49"
   transform="translate(-9324,-12738)">
  <g
   id="id2"
   class="Master_Slide">
   <g
   id="bg-id2"
   class="Background" />
   <g
   id="bo-id2"
   class="BackgroundObjects" />
  </g>
 </g>
 <g
   class="SlideGroup"
   id="g231"
   transform="translate(-9324,-12738)">
  <g
   id="g229">
   <g
   id="container-id1">
    <g
   id="id1"
   class="Slide"
   clip-path="url(#presentation_clip_path)">
     <g
   class="Page"
   id="g225">
      <g
   class="Graphic"
   id="g223">
       <g
   id="id3">
        <rect
   class="BoundingBox"
   x="9324"
   y="12738"
   width="2352"
   height="4224"
   id="rect51"
   style="fill:none;stroke:none" />
        <defs
   id="defs56">
         <clipPath
   id="clip_path_1"
   clipPathUnits="userSpaceOnUse">
          <path
   d="m 9324,12738 h 2351 v 4223 H 9324 Z"
   id="path53"
   inkscape:connector-curvature="0" />
         </clipPath>
        </defs>
        <g
   clip-path="url(#clip_path_1)"
   id="g220">
         <path
   d="m 9916,13633 -122,231 143,51 51,-226 z"
   id="path58"
   inkscape:connector-curvature="0"
   style="fill:#f4e882;stroke:none" />
         <path
   d="m 10250,13864 -313,722 68,53 349,-724 z"
   id="path60"
   inkscape:connector-curvature="0"
   style="fill:#f4e882;stroke:none" />
         <path
   d="m 10405,14921 -84,404 68,16 122,-333 z"
   id="path62"
   inkscape:connector-curvature="0"
   style="fill:#f4e882;stroke:none" />
         <path
   d="m 10982,13968 -51,318 140,-51 15,-282 z"
   id="path64"
   inkscape:connector-curvature="0"
   style="fill:#f4e882;stroke:none" />
         <path
   d="m 10336,14743 h 104 l 211,-582 -157,54 z"
   id="path66"
   inkscape:connector-curvature="0"
   style="fill:#f4e882;stroke:none" />
         <path
   d="m 10079,14779 -196,404 54,36 244,-333 z"
   id="path68"
   inkscape:connector-curvature="0"
   style="fill:#f4e882;stroke:none" />
         <path
   d="m 9639,15907 209,-246 89,-54 68,-124 211,53 -35,71 35,69 51,71 69,193 89,125 33,211 -348,193 35,-478 51,-51 v -122 l -86,-20 -69,36 v 73 l 69,122 v 125 z"
   id="path70"
   inkscape:connector-curvature="0"
   style="fill:#7fffe8;stroke:none" />
         <path
   d="m 10544,13371 -15,89 69,15 -18,-33 38,-18 15,-18 z"
   id="path72"
   inkscape:connector-curvature="0"
   style="fill:#000000;stroke:none" />
         <path
   d="m 10669,13406 -18,69 51,36 20,-36 -35,-15 35,-18 16,-18 z"
   id="path74"
   inkscape:connector-curvature="0"
   style="fill:#000000;stroke:none" />
         <path
   d="m 9726,15445 v 38 h 35 l 87,-142 -122,-69 v 86 l 18,-17 35,17 z"
   id="path76"
   inkscape:connector-curvature="0"
   style="fill:#000000;stroke:none" />
         <path
   d="m 9726,15358 v -86 0 l -87,122 v 89 h 87 v -38 2 h -51 v -33 z"
   id="path78"
   inkscape:connector-curvature="0"
   style="fill:#000000;stroke:none" />
         <path
   d="m 9611,13600 v 53 l 64,36 69,-125 -125,-122 -8,3 v 83 h 8 l 56,36 -36,53 z"
   id="path80"
   inkscape:connector-curvature="0"
   style="fill:#000000;stroke:none" />
         <path
   d="m 9611,13528 v -83 l -96,30 v 125 l 96,53 v -53 l -25,-18 -33,-54 z"
   id="path82"
   inkscape:connector-curvature="0"
   style="fill:#000000;stroke:none" />
         <path
   d="m 11554,14029 v 36 l 69,-8 53,-104 -86,-74 -36,10 v 66 l 18,-2 51,15 -16,53 z"
   id="path84"
   inkscape:connector-curvature="0"
   style="fill:#000000;stroke:none" />
         <path
   d="m 11554,13955 v -66 l -122,26 v 160 l 122,-10 v -36 l -71,10 v -71 z"
   id="path86"
   inkscape:connector-curvature="0"
   style="fill:#000000;stroke:none" />
         <path
   d="m 11000,16271 v 183 l 122,-74 -51,-1444 63,-50 18,-143 -99,-53 -53,18 v 66 l 17,-13 89,36 -35,68 -54,36 -17,-18 v 53 0 54 0 274 l 17,165 -17,-7 v 74 l 17,5 v 475 l -17,13 v 104 l 17,-13 18,211 z"
   id="path88"
   inkscape:connector-curvature="0"
   style="fill:#000000;stroke:none" />
         <path
   d="m 11000,14283 v 51 l 290,-48 38,-458 -328,54 v 58 l 122,-25 -36,353 z"
   id="path90"
   inkscape:connector-curvature="0"
   style="fill:#000000;stroke:none" />
         <path
   d="m 11000,13940 v -58 l -209,33 87,-882 -209,196 -5,-23 v 104 l 145,-115 -87,758 -58,58 v 66 l 74,-73 -74,216 v 790 l 318,87 18,167 v -274 l -298,-54 160,-579 138,-23 v -51 l -122,21 68,-351 z"
   id="path92"
   inkscape:connector-curvature="0"
   style="fill:#000000;stroke:none" />
         <path
   d="m 11000,14774 v -66 l -54,20 -51,104 36,69 69,35 v -53 l -33,-33 v -53 z"
   id="path94"
   inkscape:connector-curvature="0"
   style="fill:#000000;stroke:none" />
         <path
   d="m 11000,15496 v -74 l -69,-28 -36,-53 72,-36 -21,-51 -188,-107 -94,-7 v 79 h 58 l 140,53 -53,69 18,88 -69,72 15,71 -109,-41 v 76 l 74,18 140,51 -16,-158 69,-50 z"
   id="path96"
   inkscape:connector-curvature="0"
   style="fill:#000000;stroke:none" />
         <path
   d="m 11000,16093 v -104 l -336,236 v 435 l 336,-206 v -183 l -138,-84 z"
   id="path98"
   inkscape:connector-curvature="0"
   style="fill:#000000;stroke:none" />
         <path
   d="m 10664,13310 v -104 l -66,-173 -97,180 v 122 h 10 l 69,-140 71,122 z"
   id="path100"
   inkscape:connector-curvature="0"
   style="fill:#000000;stroke:none" />
         <path
   d="m 10664,14077 v -66 l -163,148 v 71 z"
   id="path102"
   inkscape:connector-curvature="0"
   style="fill:#000000;stroke:none" />
         <path
   d="m 10664,15010 v -790 l -163,439 v 272 l 43,23 -43,135 v 198 l 28,-33 -18,-53 122,18 h 31 v -79 l -84,-8 -36,-35 36,-107 z"
   id="path104"
   inkscape:connector-curvature="0"
   style="fill:#000000;stroke:none" />
         <path
   d="m 10664,15607 v -76 l -163,-56 v 99 z"
   id="path106"
   inkscape:connector-curvature="0"
   style="fill:#000000;stroke:none" />
         <path
   d="m 10664,16660 v -435 l -99,66 -36,-333 -28,-25 v 340 l 10,54 -10,5 v 424 z"
   id="path108"
   inkscape:connector-curvature="0"
   style="fill:#000000;stroke:none" />
         <path
   d="m 10501,13551 v 79 l 97,-66 z"
   id="path110"
   inkscape:connector-curvature="0"
   style="fill:#000000;stroke:none" />
         <path
   d="m 10501,13335 v -122 l -25,51 -69,-10 v 63 z"
   id="path112"
   inkscape:connector-curvature="0"
   style="fill:#000000;stroke:none" />
         <path
   d="m 10501,13630 v -79 l -94,-10 v 41 h 87 l -87,25 v 87 z"
   id="path114"
   inkscape:connector-curvature="0"
   style="fill:#000000;stroke:none" />
         <path
   d="m 10501,14230 v -71 l -61,56 -33,-333 v 439 z"
   id="path116"
   inkscape:connector-curvature="0"
   style="fill:#000000;stroke:none" />
         <path
   d="m 10501,14931 v -272 l -61,173 -33,-12 v 116 l 18,-50 z"
   id="path118"
   inkscape:connector-curvature="0"
   style="fill:#000000;stroke:none" />
         <path
   d="m 10501,15287 v -198 l -94,302 v 122 l 87,59 7,2 v -99 l -25,-7 18,-54 -36,-73 z"
   id="path120"
   inkscape:connector-curvature="0"
   style="fill:#000000;stroke:none" />
         <path
   d="m 10501,16273 v -340 l -25,-26 -69,-124 v 145 l 51,63 z"
   id="path122"
   inkscape:connector-curvature="0"
   style="fill:#000000;stroke:none" />
         <path
   d="m 10501,16756 v -424 l -94,53 v 430 z"
   id="path124"
   inkscape:connector-curvature="0"
   style="fill:#000000;stroke:none" />
         <path
   d="m 10407,13317 v -63 l -96,-13 v 61 z"
   id="path126"
   inkscape:connector-curvature="0"
   style="fill:#000000;stroke:none" />
         <path
   d="m 10407,13582 v -41 l -86,-13 -10,-7 v 61 z"
   id="path128"
   inkscape:connector-curvature="0"
   style="fill:#000000;stroke:none" />
         <path
   d="m 10407,13694 v -87 l -86,26 v 160 l -10,-5 v 45 l 25,13 18,122 -43,102 v 551 l 94,-300 h 2 v -439 l -18,-176 z"
   id="path130"
   inkscape:connector-curvature="0"
   style="fill:#000000;stroke:none" />
         <path
   d="m 10407,14936 v -116 l -96,-41 v 434 z"
   id="path132"
   inkscape:connector-curvature="0"
   style="fill:#000000;stroke:none" />
         <path
   d="m 10407,15513 v -122 l -2,3 -94,-36 v 61 l 25,10 v 39 z"
   id="path134"
   inkscape:connector-curvature="0"
   style="fill:#000000;stroke:none" />
         <path
   d="m 10407,15928 v -145 l -86,-158 15,-107 -25,-5 v 204 l 78,190 z"
   id="path136"
   inkscape:connector-curvature="0"
   style="fill:#000000;stroke:none" />
         <path
   d="m 10407,16815 v -430 l -96,53 v 435 z"
   id="path138"
   inkscape:connector-curvature="0"
   style="fill:#000000;stroke:none" />
         <path
   d="m 10311,13302 v -61 l -61,-7 v 56 z"
   id="path140"
   inkscape:connector-curvature="0"
   style="fill:#000000;stroke:none" />
         <path
   d="m 10311,13582 v -61 l -61,-54 v 72 l 50,43 z"
   id="path142"
   inkscape:connector-curvature="0"
   style="fill:#000000;stroke:none" />
         <path
   d="m 10311,13833 v -45 l -61,-33 v 45 z"
   id="path144"
   inkscape:connector-curvature="0"
   style="fill:#000000;stroke:none" />
         <path
   d="m 10311,14621 v -551 l -61,140 v 1184 l 61,25 v -61 l -44,-17 44,-128 v -434 l -44,-18 z"
   id="path146"
   inkscape:connector-curvature="0"
   style="fill:#000000;stroke:none" />
         <path
   d="m 10311,15717 v -204 l -61,-7 v 30 h 35 v 89 l -35,23 v 46 h 50 z"
   id="path148"
   inkscape:connector-curvature="0"
   style="fill:#000000;stroke:none" />
         <path
   d="m 10311,16873 v -435 l -61,33 v 438 z"
   id="path150"
   inkscape:connector-curvature="0"
   style="fill:#000000;stroke:none" />
         <path
   d="m 10250,13290 v -56 l -140,-18 v 51 z"
   id="path152"
   inkscape:connector-curvature="0"
   style="fill:#000000;stroke:none" />
         <path
   d="m 10250,13539 v -72 l -140,-127 v 79 z"
   id="path154"
   inkscape:connector-curvature="0"
   style="fill:#000000;stroke:none" />
         <path
   d="m 10250,13800 v -45 l -140,-74 v 417 l 122,-305 z"
   id="path156"
   inkscape:connector-curvature="0"
   style="fill:#000000;stroke:none" />
         <path
   d="m 10250,15394 v -1184 l -140,325 v 193 l 86,33 -86,198 v 221 l 51,-48 -16,226 -35,56 v 0 99 l 35,5 36,33 v 74 l 35,69 h 34 v -46 l -18,13 -16,-54 16,-71 h 18 v -30 l -18,-5 -36,-72 20,-50 z"
   id="path158"
   inkscape:connector-curvature="0"
   style="fill:#000000;stroke:none" />
         <path
   d="m 10250,16909 v -438 l -123,67 18,-527 87,-35 18,-107 -54,-86 -86,-21 v 72 0 h 35 l 16,53 -16,53 h -35 v 669 h 17 l 34,353 z"
   id="path160"
   inkscape:connector-curvature="0"
   style="fill:#000000;stroke:none" />
         <path
   d="m 10110,13267 v -51 l -79,-10 v 45 z"
   id="path162"
   inkscape:connector-curvature="0"
   style="fill:#000000;stroke:none" />
         <path
   d="m 10110,13419 v -79 l -79,-68 v 79 z"
   id="path164"
   inkscape:connector-curvature="0"
   style="fill:#000000;stroke:none" />
         <path
   d="m 10110,14098 v -417 l -79,-38 v 35 l 25,11 -25,55 v 549 z"
   id="path166"
   inkscape:connector-curvature="0"
   style="fill:#000000;stroke:none" />
         <path
   d="m 10110,14728 v -193 l -54,119 -25,-5 v 115 l 25,-56 z"
   id="path168"
   inkscape:connector-curvature="0"
   style="fill:#000000;stroke:none" />
         <path
   d="m 10110,15180 v -221 l -79,176 v 117 z"
   id="path170"
   inkscape:connector-curvature="0"
   style="fill:#000000;stroke:none" />
         <path
   d="m 10110,15513 v -99 l -79,8 v 81 z"
   id="path172"
   inkscape:connector-curvature="0"
   style="fill:#000000;stroke:none" />
         <path
   d="m 10110,15834 v -72 l -54,-15 -25,33 v 196 l 48,35 v 143 l -48,-18 v 51 l 48,18 -23,333 -25,-8 v 353 l 25,10 23,-284 h 31 v -669 h -31 l -23,-71 z"
   id="path174"
   inkscape:connector-curvature="0"
   style="fill:#000000;stroke:none" />
         <path
   d="m 10031,13251 v -45 l -122,-18 v 58 l 122,105 v -79 l -26,-23 z"
   id="path176"
   inkscape:connector-curvature="0"
   style="fill:#000000;stroke:none" />
         <path
   d="m 10031,13678 v -35 l -122,-66 v 58 z"
   id="path178"
   inkscape:connector-curvature="0"
   style="fill:#000000;stroke:none" />
         <path
   d="m 10031,14293 v -549 l -94,209 -28,-13 v 56 l 117,61 -117,290 v 256 z"
   id="path180"
   inkscape:connector-curvature="0"
   style="fill:#000000;stroke:none" />
         <path
   d="m 10031,14764 v -115 l -122,-28 v 409 z"
   id="path182"
   inkscape:connector-curvature="0"
   style="fill:#000000;stroke:none" />
         <path
   d="m 10031,15252 v -117 l -56,137 -66,-31 v 59 l 43,25 z"
   id="path184"
   inkscape:connector-curvature="0"
   style="fill:#000000;stroke:none" />
         <path
   d="m 10031,15503 v -81 l -56,7 -38,122 h -28 v 64 l 79,10 38,-124 z"
   id="path186"
   inkscape:connector-curvature="0"
   style="fill:#000000;stroke:none" />
         <path
   d="m 10031,15976 v -196 l -43,54 v 106 z"
   id="path188"
   inkscape:connector-curvature="0"
   style="fill:#000000;stroke:none" />
         <path
   d="m 10031,16187 v -51 l -122,-51 v 54 z"
   id="path190"
   inkscape:connector-curvature="0"
   style="fill:#000000;stroke:none" />
         <path
   d="m 10031,16883 v -353 l -122,-41 v 354 z"
   id="path192"
   inkscape:connector-curvature="0"
   style="fill:#000000;stroke:none" />
         <path
   d="m 9909,13246 v -58 l -79,-10 z"
   id="path194"
   inkscape:connector-curvature="0"
   style="fill:#000000;stroke:none" />
         <path
   d="m 9909,13635 v -58 l -26,-13 -193,315 219,117 v -56 l -148,-61 140,-246 z"
   id="path196"
   inkscape:connector-curvature="0"
   style="fill:#000000;stroke:none" />
         <path
   d="m 9909,14603 v -256 l -115,292 107,51 -226,478 234,132 v -59 l -79,-40 79,-171 v -409 l -8,-2 z"
   id="path198"
   inkscape:connector-curvature="0"
   style="fill:#000000;stroke:none" />
         <path
   d="m 9909,15615 v -64 h -115 l -33,110 -124,96 v 102 l 157,-147 36,-105 z"
   id="path200"
   inkscape:connector-curvature="0"
   style="fill:#000000;stroke:none" />
         <path
   d="m 9909,16139 v -54 l -272,-109 v 56 z"
   id="path202"
   inkscape:connector-curvature="0"
   style="fill:#000000;stroke:none" />
         <path
   d="m 9909,16843 v -354 l -272,-86 v 76 l 124,43 -124,44 v 185 z"
   id="path204"
   inkscape:connector-curvature="0"
   style="fill:#000000;stroke:none" />
         <path
   d="m 9637,15859 v -102 l -122,97 -13,-178 66,-51 38,-74 -38,-83 -86,-39 h -18 v 49 l 18,5 53,35 -33,69 -38,13 v 1093 l 173,58 v -185 l -122,43 v -176 l 122,46 v -76 l -122,-41 20,-371 102,41 v -56 l -84,-36 z"
   id="path206"
   inkscape:connector-curvature="0"
   style="fill:#000000;stroke:none" />
         <path
   d="m 9464,15478 v -49 h -69 l -53,39 -18,104 36,53 86,36 -15,1019 33,13 v -1093 l -18,7 -51,-35 v -54 l 36,-50 z"
   id="path208"
   inkscape:connector-curvature="0"
   style="fill:#000000;stroke:none" />
         <path
   d="m 9812,12822 125,-48 119,246 -51,13 z"
   id="path210"
   inkscape:connector-curvature="0"
   style="fill:#000000;stroke:none" />
         <path
   d="m 10669,12756 18,226 h 86 l 36,-244 z"
   id="path212"
   inkscape:connector-curvature="0"
   style="fill:#000000;stroke:none" />
         <path
   d="m 11363,13140 -142,142 69,71 193,-140 z"
   id="path214"
   inkscape:connector-curvature="0"
   style="fill:#000000;stroke:none" />
         <path
   d="m 10633,15869 125,-104 33,33 -140,109 z"
   id="path216"
   inkscape:connector-curvature="0"
   style="fill:#000000;stroke:none" />
         <path
   d="m 10651,13549 -33,51 33,33 51,-33 v -72 z"
   id="path218"
   inkscape:connector-curvature="0"
   style="fill:#e89be8;stroke:none" />
        </g>
       </g>
      </g>
     </g>
    </g>
   </g>
  </g>
 </g>
</svg>