<?xml version="1.0" encoding="UTF-8" standalone="no"?>
<svg
   xmlns:ooo="http://xml.openoffice.org/svg/export"
   xmlns:dc="http://purl.org/dc/elements/1.1/"
   xmlns:cc="http://creativecommons.org/ns#"
   xmlns:rdf="http://www.w3.org/1999/02/22-rdf-syntax-ns#"
   xmlns:svg="http://www.w3.org/2000/svg"
   xmlns="http://www.w3.org/2000/svg"
   xmlns:sodipodi="http://sodipodi.sourceforge.net/DTD/sodipodi-0.dtd"
   xmlns:inkscape="http://www.inkscape.org/namespaces/inkscape"
   version="1.2"
   width="24.559999mm"
   height="47.75mm"
   viewBox="0 0 2455.9999 4775"
   preserveAspectRatio="xMidYMid"
   xml:space="preserve"
   id="svg108"
   sodipodi:docname="giraffe.svg"
   style="fill-rule:evenodd;stroke-width:28.22200012;stroke-linejoin:round"
   inkscape:version="0.92.5 (2060ec1f9f, 2020-04-08)"><metadata
   id="metadata112"><rdf:RDF><cc:Work
       rdf:about=""><dc:format>image/svg+xml</dc:format><dc:type
         rdf:resource="http://purl.org/dc/dcmitype/StillImage" /></cc:Work></rdf:RDF></metadata><sodipodi:namedview
   pagecolor="#ffffff"
   bordercolor="#666666"
   borderopacity="1"
   objecttolerance="10"
   gridtolerance="10"
   guidetolerance="10"
   inkscape:pageopacity="0"
   inkscape:pageshadow="2"
   inkscape:window-width="664"
   inkscape:window-height="487"
   id="namedview110"
   showgrid="false"
   inkscape:zoom="0.2102413"
   inkscape:cx="46.412599"
   inkscape:cy="90.217321"
   inkscape:window-x="0"
   inkscape:window-y="0"
   inkscape:window-maximized="0"
   inkscape:current-layer="svg108" />
 <defs
   class="ClipPathGroup"
   id="defs8">
  <clipPath
   id="presentation_clip_path"
   clipPathUnits="userSpaceOnUse">
   <rect
   x="0"
   y="0"
   width="21000"
   height="29700"
   id="rect2" />
  </clipPath>
  <clipPath
   id="presentation_clip_path_shrink"
   clipPathUnits="userSpaceOnUse">
   <rect
   x="21"
   y="29"
   width="20958"
   height="29641"
   id="rect5" />
  </clipPath>
 </defs>
 <defs
   class="TextShapeIndex"
   id="defs12">
  <g
   ooo:slide="id1"
   ooo:id-list="id3"
   id="g10" />
 </defs>
 <defs
   class="EmbeddedBulletChars"
   id="defs44">
  <g
   id="bullet-char-template-57356"
   transform="matrix(4.8828125e-4,0,0,-4.8828125e-4,0,0)">
   <path
   d="M 580,1141 1163,571 580,0 -4,571 Z"
   id="path14"
   inkscape:connector-curvature="0" />
  </g>
  <g
   id="bullet-char-template-57354"
   transform="matrix(4.8828125e-4,0,0,-4.8828125e-4,0,0)">
   <path
   d="M 8,1128 H 1137 V 0 H 8 Z"
   id="path17"
   inkscape:connector-curvature="0" />
  </g>
  <g
   id="bullet-char-template-10146"
   transform="matrix(4.8828125e-4,0,0,-4.8828125e-4,0,0)">
   <path
   d="M 174,0 602,739 174,1481 1456,739 Z M 1358,739 309,1346 659,739 Z"
   id="path20"
   inkscape:connector-curvature="0" />
  </g>
  <g
   id="bullet-char-template-10132"
   transform="matrix(4.8828125e-4,0,0,-4.8828125e-4,0,0)">
   <path
   d="M 2015,739 1276,0 H 717 l 543,543 H 174 v 393 h 1086 l -543,545 h 557 z"
   id="path23"
   inkscape:connector-curvature="0" />
  </g>
  <g
   id="bullet-char-template-10007"
   transform="matrix(4.8828125e-4,0,0,-4.8828125e-4,0,0)">
   <path
   d="m 0,-2 c -7,16 -16,29 -25,39 l 381,530 c -94,256 -141,385 -141,387 0,25 13,38 40,38 9,0 21,-2 34,-5 21,4 42,12 65,25 l 27,-13 111,-251 280,301 64,-25 24,25 c 21,-10 41,-24 62,-43 C 886,937 835,863 770,784 769,783 710,716 594,584 L 774,223 c 0,-27 -21,-55 -63,-84 l 16,-20 C 717,90 699,76 672,76 641,76 570,178 457,381 L 164,-76 c -22,-34 -53,-51 -92,-51 -42,0 -63,17 -64,51 -7,9 -10,24 -10,44 0,9 1,19 2,30 z"
   id="path26"
   inkscape:connector-curvature="0" />
  </g>
  <g
   id="bullet-char-template-10004"
   transform="matrix(4.8828125e-4,0,0,-4.8828125e-4,0,0)">
   <path
   d="M 285,-33 C 182,-33 111,30 74,156 52,228 41,333 41,471 c 0,78 14,145 41,201 34,71 87,106 158,106 53,0 88,-31 106,-94 l 23,-176 c 8,-64 28,-97 59,-98 l 735,706 c 11,11 33,17 66,17 42,0 63,-15 63,-46 V 965 c 0,-36 -10,-64 -30,-84 L 442,47 C 390,-6 338,-33 285,-33 Z"
   id="path29"
   inkscape:connector-curvature="0" />
  </g>
  <g
   id="bullet-char-template-9679"
   transform="matrix(4.8828125e-4,0,0,-4.8828125e-4,0,0)">
   <path
   d="M 813,0 C 632,0 489,54 383,161 276,268 223,411 223,592 c 0,181 53,324 160,431 106,107 249,161 430,161 179,0 323,-54 432,-161 108,-107 162,-251 162,-431 0,-180 -54,-324 -162,-431 C 1136,54 992,0 813,0 Z"
   id="path32"
   inkscape:connector-curvature="0" />
  </g>
  <g
   id="bullet-char-template-8226"
   transform="matrix(4.8828125e-4,0,0,-4.8828125e-4,0,0)">
   <path
   d="m 346,457 c -73,0 -137,26 -191,78 -54,51 -81,114 -81,188 0,73 27,136 81,188 54,52 118,78 191,78 73,0 134,-26 185,-79 51,-51 77,-114 77,-187 0,-75 -25,-137 -76,-188 -50,-52 -112,-78 -186,-78 z"
   id="path35"
   inkscape:connector-curvature="0" />
  </g>
  <g
   id="bullet-char-template-8211"
   transform="matrix(4.8828125e-4,0,0,-4.8828125e-4,0,0)">
   <path
   d="M -4,459 H 1135 V 606 H -4 Z"
   id="path38"
   inkscape:connector-curvature="0" />
  </g>
  <g
   id="bullet-char-template-61548"
   transform="matrix(4.8828125e-4,0,0,-4.8828125e-4,0,0)">
   <path
   d="m 173,740 c 0,163 58,303 173,419 116,115 255,173 419,173 163,0 302,-58 418,-173 116,-116 174,-256 174,-419 0,-163 -58,-303 -174,-418 C 1067,206 928,148 765,148 601,148 462,206 346,322 231,437 173,577 173,740 Z"
   id="path41"
   inkscape:connector-curvature="0" />
  </g>
 </defs>
 <g
   id="g49"
   transform="translate(-9272,-12462)">
  <g
   id="id2"
   class="Master_Slide">
   <g
   id="bg-id2"
   class="Background" />
   <g
   id="bo-id2"
   class="BackgroundObjects" />
  </g>
 </g>
 <g
   class="SlideGroup"
   id="g106"
   transform="translate(-9272,-12462)">
  <g
   id="g104">
   <g
   id="container-id1">
    <g
   id="id1"
   class="Slide"
   clip-path="url(#presentation_clip_path)">
     <g
   class="Page"
   id="g100">
      <g
   class="Graphic"
   id="g98">
       <g
   id="id3">
        <rect
   class="BoundingBox"
   x="9272"
   y="12462"
   width="2456"
   height="4775"
   id="rect51"
   style="fill:none;stroke:none" />
        <path
   d="m 9478,17207 13,-18 12,-18 13,-20 13,-18 12,-15 18,-13 16,-8 20,-2 28,-49 25,-53 23,-58 23,-59 18,-58 13,-56 12,-51 8,-43 13,-84 15,-92 18,-83 25,-64 -18,-25 -12,-33 -8,-39 -3,-40 5,-46 13,-43 21,-46 28,-46 5,-134 v -132 l -5,-130 -11,-127 -15,-120 -23,-114 -30,-102 -38,-91 -21,-38 -18,-31 -15,-25 -7,-28 -6,-33 6,-43 12,-56 23,-74 -2,-71 -5,-109 -8,-140 -5,-160 -3,-170 5,-173 13,-168 25,-152 21,-87 20,-79 20,-71 16,-68 15,-66 13,-67 7,-71 3,-78 -18,-13 -20,-13 -21,-15 -20,-15 -18,-18 -15,-20 -13,-21 -5,-25 -33,-15 -30,-18 -28,-21 -26,-20 -23,-15 -25,-15 -25,-13 -28,-5 -18,5 -18,5 -20,5 -21,3 -20,2 -18,-2 -15,-3 -13,-10 -23,-28 -17,-33 -6,-33 18,-23 21,-10 22,-8 28,-10 31,-8 33,-7 30,-5 31,-5 h 28 28 l 28,2 h 33 30 31 28 25 21 v -10 l 7,-10 13,-8 18,-5 18,-2 20,2 18,8 18,15 h 15 l 15,-3 h 15 l 16,-2 h 12 l 16,2 12,3 13,5 18,-20 12,-21 13,-17 15,-13 -10,-10 -5,-8 v -10 l 3,-8 7,-7 16,-5 h 17 26 l 41,12 12,21 -7,20 -26,8 -18,22 -17,28 -16,23 -12,21 17,5 h 21 l 20,-5 20,-8 23,-10 23,-13 21,-15 22,-18 v 23 28 l -10,28 -15,25 20,-5 h 26 l 23,3 23,5 22,7 18,8 15,10 8,8 -25,25 -28,23 -28,20 -33,18 -33,13 -36,8 -33,2 -36,-5 31,147 10,143 -5,140 -10,144 -15,155 -13,161 -3,152 21,135 25,33 31,33 33,33 30,33 31,33 25,30 20,31 13,30 10,28 8,28 10,26 13,25 13,25 12,26 15,25 16,26 15,28 18,30 18,33 25,36 28,35 38,36 46,36 58,35 33,18 33,18 33,15 36,18 33,17 36,16 33,18 30,15 31,15 30,15 28,16 26,15 25,15 20,13 21,15 15,13 31,28 35,35 38,43 41,51 38,61 33,71 31,84 23,97 28,183 10,137 7,109 18,89 36,10 28,11 25,10 20,12 18,16 16,15 12,18 10,23 18,50 10,54 5,51 v 48 l 11,61 20,51 23,48 7,56 -10,-23 -7,-18 -8,-12 -8,-16 -7,-12 -10,-13 -13,-13 -13,-18 v 23 l -2,23 -3,20 -2,21 -11,-51 -10,-59 -20,-53 -33,-48 -23,-23 -23,-25 -25,-33 -26,-36 -23,-41 -17,-51 -16,-55 -5,-69 -2,-76 -3,-79 -2,-79 -8,-81 -15,-79 -18,-74 -31,-66 -38,-58 -25,114 -21,125 -10,124 3,109 13,72 20,58 28,48 28,38 25,36 23,31 15,28 3,30 -5,48 -10,74 -10,97 -11,111 -10,125 -5,130 3,129 12,125 -7,15 -10,18 -11,15 -12,18 -13,15 -13,13 -15,12 -18,11 10,15 5,18 6,15 2,7 -20,13 -26,10 -28,10 -28,11 -30,5 h -33 l -33,-5 -36,-11 10,-38 18,-35 23,-31 28,-28 28,-25 25,-23 21,-25 10,-23 13,-51 12,-59 10,-58 3,-58 3,-100 v -147 l -8,-150 -18,-101 -15,-31 -20,-30 -21,-28 -20,-28 -20,-23 -21,-21 -18,-15 -12,-13 12,46 21,56 20,48 18,31 5,25 -3,36 -15,41 -23,35 -15,20 -18,26 -23,33 -23,33 -22,38 -21,38 -20,36 -15,33 -16,40 -20,59 -20,71 -21,74 -20,76 -20,69 -16,53 -12,38 -10,8 -13,7 -15,8 -13,5 -18,8 -15,5 -13,7 -15,5 5,11 13,12 17,10 21,8 -26,10 -28,10 -33,6 -35,5 -36,5 -33,2 -30,3 h -26 l 3,-26 7,-23 16,-17 25,-16 18,-15 23,-30 28,-41 33,-48 33,-54 30,-56 28,-50 23,-49 20,-48 26,-58 28,-61 28,-64 23,-56 20,-51 13,-38 5,-23 -3,-35 v -51 l 3,-58 10,-54 -23,-61 -43,-79 -51,-86 -58,-97 -59,-94 -48,-94 -38,-83 -18,-74 -36,13 -43,12 -46,5 -45,3 h -46 l -43,-8 -39,-10 -30,-18 -13,23 -15,28 -15,28 -16,33 -15,31 -13,30 -10,28 -5,25 v 112 l 8,206 15,229 15,180 -5,13 -7,15 -8,13 -3,10 8,23 15,41 13,58 8,66 v 71 l 2,69 v 66 l -2,63 -16,21 -22,23 -21,20 -10,8 v 23 30 25 11 l -28,20 -23,13 -18,5 -5,2 h -5 -10 l -15,3 h -21 -20 -23 -18 l -15,-3 5,-18 13,-22 20,-28 23,-26 23,-28 23,-23 15,-22 10,-16 3,-127 -3,-173 -5,-160 -2,-96 -21,-31 -15,-33 -13,-30 -12,-38 -8,-41 -5,-51 -5,-61 -5,-74 -20,51 -21,56 -20,59 -18,56 -15,50 -13,49 -8,38 -5,30 -2,38 -3,59 -7,79 -8,86 -13,91 -20,92 -28,84 -36,71 -50,13 -11,25 -10,28 -5,25 -2,23 -21,11 -25,7 -31,5 -33,5 h -33 l -30,-2 -28,-5 z"
   id="path53"
   inkscape:connector-curvature="0"
   style="fill:#000000;stroke:none" />
        <path
   d="m 9549,12668 23,-5 28,-5 28,-3 30,-2 h 28 l 28,2 23,8 21,15 -13,13 -5,15 2,15 11,15 15,11 23,7 25,-2 28,-10 -2,17 -3,16 -10,15 -21,7 -12,3 -13,3 h -13 l -12,-3 h -13 l -15,-5 -13,-5 -13,-8 -12,-13 -16,-12 -18,-18 -20,-18 -20,-15 -23,-15 -23,-13 z"
   id="path55"
   inkscape:connector-curvature="0"
   style="fill:#ffffff;stroke:none" />
        <path
   d="m 9765,12663 8,-18 13,-15 15,-13 18,-5 h 17 l 18,8 10,17 8,31 -15,-3 h -13 l -15,-2 h -13 -13 -12 -13 z"
   id="path57"
   inkscape:connector-curvature="0"
   style="fill:#ffffff;stroke:none" />
        <path
   d="m 9895,13130 v 21 28 25 23 h -31 l -2,-25 -3,-26 3,-25 7,-18 11,-8 h 7 l 5,3 z"
   id="path59"
   inkscape:connector-curvature="0"
   style="fill:#ffffff;stroke:none" />
        <path
   d="m 9928,13240 15,-13 18,-5 15,5 8,13 2,25 v 28 l -5,23 -10,10 h -13 l -15,-3 -13,-5 -5,-7 v -15 l -2,-21 2,-20 z"
   id="path61"
   inkscape:connector-curvature="0"
   style="fill:#ffffff;stroke:none" />
        <path
   d="m 9885,13377 20,-3 h 23 l 20,3 8,10 -3,18 -5,23 -7,20 -11,8 h -15 -18 l -17,-5 -8,-11 -3,-17 v -21 l 3,-18 z"
   id="path63"
   inkscape:connector-curvature="0"
   style="fill:#ffffff;stroke:none" />
        <path
   d="m 9826,13418 -7,-23 -8,-21 -5,-20 5,-15 15,-13 18,-15 15,-15 5,-13 11,15 10,15 5,13 -8,10 -18,15 -17,21 -13,25 z"
   id="path65"
   inkscape:connector-curvature="0"
   style="fill:#ffffff;stroke:none" />
        <path
   d="m 9806,13529 8,21 2,58 -5,59 -10,28 -13,-3 -13,-8 -5,-15 5,-23 8,-33 8,-35 5,-31 z"
   id="path67"
   inkscape:connector-curvature="0"
   style="fill:#ffffff;stroke:none" />
        <path
   d="m 9740,14180 13,-5 17,-3 18,8 10,10 5,15 v 13 l -5,10 -7,3 -11,2 -15,5 -12,-2 -8,-13 -5,-15 -3,-13 -2,-7 z"
   id="path69"
   inkscape:connector-curvature="0"
   style="fill:#ffffff;stroke:none" />
        <path
   d="m 9834,14248 15,-2 18,10 8,18 -11,23 -25,10 -18,-8 -5,-23 z"
   id="path71"
   inkscape:connector-curvature="0"
   style="fill:#ffffff;stroke:none" />
        <path
   d="m 9773,14282 15,2 13,13 5,18 -8,20 -10,18 -2,15 2,15 8,18 7,18 11,18 2,15 -8,7 -15,6 -20,2 -15,-5 -5,-15 -3,-38 -3,-51 6,-49 z"
   id="path73"
   inkscape:connector-curvature="0"
   style="fill:#ffffff;stroke:none" />
        <path
   d="m 9989,14302 5,-13 10,-7 13,-3 8,8 10,15 18,15 12,18 v 15 l -12,18 -13,18 -13,10 -5,-8 -8,-23 -10,-22 -10,-23 z"
   id="path75"
   inkscape:connector-curvature="0"
   style="fill:#ffffff;stroke:none" />
        <path
   d="m 9915,14393 8,44 10,61 5,53 -2,23 -13,5 -15,10 -11,5 -5,-10 -2,-20 -3,-16 -5,-15 -7,-20 -6,-13 -5,-15 -5,-15 -2,-16 5,-17 7,-16 18,-15 z"
   id="path77"
   inkscape:connector-curvature="0"
   style="fill:#ffffff;stroke:none" />
        <path
   d="m 10014,14523 16,2 7,18 -2,26 -13,17 h -18 l -12,-17 2,-23 z"
   id="path79"
   inkscape:connector-curvature="0"
   style="fill:#ffffff;stroke:none" />
        <path
   d="m 9872,14640 8,7 -5,16 -13,15 -18,15 -13,13 -7,10 -5,13 v 15 15 16 12 5 l 25,-2 13,23 -5,28 -18,22 -15,-15 -13,-15 -8,-8 -7,5 -8,11 -15,12 -15,10 -6,3 -7,-18 -3,-18 3,-12 7,-8 3,-41 v -40 l 5,-33 10,-21 8,-5 13,-7 12,-8 13,-5 15,-8 16,-2 15,-3 z"
   id="path81"
   inkscape:connector-curvature="0"
   style="fill:#ffffff;stroke:none" />
        <path
   d="m 10014,14719 8,2 13,8 12,7 v 11 l -10,15 -12,25 -13,26 -5,17 -18,-17 -18,-18 -10,-13 -5,-5 5,-8 15,-15 21,-20 z"
   id="path83"
   inkscape:connector-curvature="0"
   style="fill:#ffffff;stroke:none" />
        <path
   d="m 9821,14869 10,25 v 30 l -7,26 -16,10 -20,-5 -15,-15 -5,-18 7,-15 16,-13 12,-10 8,-8 z"
   id="path85"
   inkscape:connector-curvature="0"
   style="fill:#ffffff;stroke:none" />
        <path
   d="m 10726,15252 v 26 h -7 l -16,2 -17,8 -16,18 -7,-33 -3,-21 3,-15 7,-20 11,-23 10,-20 7,-18 3,-21 5,-15 15,-10 21,-3 25,6 10,-16 10,-7 h 13 l 13,7 10,13 2,13 -2,15 -10,15 -8,13 3,10 10,8 15,2 h 20 l 16,3 7,10 -5,18 -15,17 -15,13 -18,15 -15,23 -11,26 -2,18 5,12 13,10 7,11 -7,7 -16,5 -17,-7 -16,-5 -10,7 -7,15 -3,16 -2,12 v 13 8 l 10,5 15,7 15,16 5,20 -10,20 -13,8 -12,2 -16,3 -15,-3 -15,-5 -10,-10 -10,-10 -8,-15 -5,-26 5,-17 10,-11 13,-2 -3,-23 8,-20 10,-18 18,-13 15,-10 5,-15 -2,-13 -8,-10 -8,-10 v -13 l 8,-8 13,-7 15,-15 10,-33 -2,-31 -23,-18 -18,3 -15,7 -13,11 -8,15 -5,15 3,18 7,13 z"
   id="path87"
   inkscape:connector-curvature="0"
   style="fill:#ffffff;stroke:none" />
        <path
   d="m 10897,15234 5,-12 10,-8 13,-2 10,5 7,15 5,23 v 20 l -5,10 h -12 l -13,-5 -13,-15 z"
   id="path89"
   inkscape:connector-curvature="0"
   style="fill:#ffffff;stroke:none" />
        <path
   d="m 10892,15367 15,10 13,23 2,25 -15,13 -13,-3 -13,-7 -10,-11 -7,-10 -3,-12 3,-13 10,-8 z"
   id="path91"
   inkscape:connector-curvature="0"
   style="fill:#ffffff;stroke:none" />
        <path
   d="m 10808,15590 -21,21 -12,30 -3,33 8,28 -13,-15 -13,-18 -12,-20 -11,-18 -7,-18 -5,-15 v -13 l 5,-7 7,-6 11,-2 10,-3 h 10 l 10,3 13,5 10,5 z"
   id="path93"
   inkscape:connector-curvature="0"
   style="fill:#ffffff;stroke:none" />
        <path
   d="m 10818,15748 20,10 15,25 5,26 -10,13 -23,-11 -17,-23 -8,-25 z"
   id="path95"
   inkscape:connector-curvature="0"
   style="fill:#ffffff;stroke:none" />
       </g>
      </g>
     </g>
    </g>
   </g>
  </g>
 </g>
</svg>