<?xml version="1.0" encoding="UTF-8" standalone="no"?>
<svg
   xmlns:ooo="http://xml.openoffice.org/svg/export"
   xmlns:dc="http://purl.org/dc/elements/1.1/"
   xmlns:cc="http://creativecommons.org/ns#"
   xmlns:rdf="http://www.w3.org/1999/02/22-rdf-syntax-ns#"
   xmlns:svg="http://www.w3.org/2000/svg"
   xmlns="http://www.w3.org/2000/svg"
   xmlns:sodipodi="http://sodipodi.sourceforge.net/DTD/sodipodi-0.dtd"
   xmlns:inkscape="http://www.inkscape.org/namespaces/inkscape"
   version="1.2"
   width="19.08mm"
   height="23.139999mm"
   viewBox="0 0 1908 2313.9999"
   preserveAspectRatio="xMidYMid"
   xml:space="preserve"
   id="svg117"
   sodipodi:docname="globe2.svg"
   style="fill-rule:evenodd;stroke-width:28.22200012;stroke-linejoin:round"
   inkscape:version="0.92.5 (2060ec1f9f, 2020-04-08)"><metadata
   id="metadata121"><rdf:RDF><cc:Work
       rdf:about=""><dc:format>image/svg+xml</dc:format><dc:type
         rdf:resource="http://purl.org/dc/dcmitype/StillImage" /></cc:Work></rdf:RDF></metadata><sodipodi:namedview
   pagecolor="#ffffff"
   bordercolor="#666666"
   borderopacity="1"
   objecttolerance="10"
   gridtolerance="10"
   guidetolerance="10"
   inkscape:pageopacity="0"
   inkscape:pageshadow="2"
   inkscape:window-width="664"
   inkscape:window-height="487"
   id="namedview119"
   showgrid="false"
   inkscape:zoom="0.2102413"
   inkscape:cx="36.056694"
   inkscape:cy="43.729132"
   inkscape:window-x="0"
   inkscape:window-y="0"
   inkscape:window-maximized="0"
   inkscape:current-layer="svg117" />
 <defs
   class="ClipPathGroup"
   id="defs8">
  <clipPath
   id="presentation_clip_path"
   clipPathUnits="userSpaceOnUse">
   <rect
   x="0"
   y="0"
   width="21000"
   height="29700"
   id="rect2" />
  </clipPath>
  <clipPath
   id="presentation_clip_path_shrink"
   clipPathUnits="userSpaceOnUse">
   <rect
   x="21"
   y="29"
   width="20958"
   height="29641"
   id="rect5" />
  </clipPath>
 </defs>
 <defs
   class="TextShapeIndex"
   id="defs12">
  <g
   ooo:slide="id1"
   ooo:id-list="id3"
   id="g10" />
 </defs>
 <defs
   class="EmbeddedBulletChars"
   id="defs44">
  <g
   id="bullet-char-template-57356"
   transform="matrix(4.8828125e-4,0,0,-4.8828125e-4,0,0)">
   <path
   d="M 580,1141 1163,571 580,0 -4,571 Z"
   id="path14"
   inkscape:connector-curvature="0" />
  </g>
  <g
   id="bullet-char-template-57354"
   transform="matrix(4.8828125e-4,0,0,-4.8828125e-4,0,0)">
   <path
   d="M 8,1128 H 1137 V 0 H 8 Z"
   id="path17"
   inkscape:connector-curvature="0" />
  </g>
  <g
   id="bullet-char-template-10146"
   transform="matrix(4.8828125e-4,0,0,-4.8828125e-4,0,0)">
   <path
   d="M 174,0 602,739 174,1481 1456,739 Z M 1358,739 309,1346 659,739 Z"
   id="path20"
   inkscape:connector-curvature="0" />
  </g>
  <g
   id="bullet-char-template-10132"
   transform="matrix(4.8828125e-4,0,0,-4.8828125e-4,0,0)">
   <path
   d="M 2015,739 1276,0 H 717 l 543,543 H 174 v 393 h 1086 l -543,545 h 557 z"
   id="path23"
   inkscape:connector-curvature="0" />
  </g>
  <g
   id="bullet-char-template-10007"
   transform="matrix(4.8828125e-4,0,0,-4.8828125e-4,0,0)">
   <path
   d="m 0,-2 c -7,16 -16,29 -25,39 l 381,530 c -94,256 -141,385 -141,387 0,25 13,38 40,38 9,0 21,-2 34,-5 21,4 42,12 65,25 l 27,-13 111,-251 280,301 64,-25 24,25 c 21,-10 41,-24 62,-43 C 886,937 835,863 770,784 769,783 710,716 594,584 L 774,223 c 0,-27 -21,-55 -63,-84 l 16,-20 C 717,90 699,76 672,76 641,76 570,178 457,381 L 164,-76 c -22,-34 -53,-51 -92,-51 -42,0 -63,17 -64,51 -7,9 -10,24 -10,44 0,9 1,19 2,30 z"
   id="path26"
   inkscape:connector-curvature="0" />
  </g>
  <g
   id="bullet-char-template-10004"
   transform="matrix(4.8828125e-4,0,0,-4.8828125e-4,0,0)">
   <path
   d="M 285,-33 C 182,-33 111,30 74,156 52,228 41,333 41,471 c 0,78 14,145 41,201 34,71 87,106 158,106 53,0 88,-31 106,-94 l 23,-176 c 8,-64 28,-97 59,-98 l 735,706 c 11,11 33,17 66,17 42,0 63,-15 63,-46 V 965 c 0,-36 -10,-64 -30,-84 L 442,47 C 390,-6 338,-33 285,-33 Z"
   id="path29"
   inkscape:connector-curvature="0" />
  </g>
  <g
   id="bullet-char-template-9679"
   transform="matrix(4.8828125e-4,0,0,-4.8828125e-4,0,0)">
   <path
   d="M 813,0 C 632,0 489,54 383,161 276,268 223,411 223,592 c 0,181 53,324 160,431 106,107 249,161 430,161 179,0 323,-54 432,-161 108,-107 162,-251 162,-431 0,-180 -54,-324 -162,-431 C 1136,54 992,0 813,0 Z"
   id="path32"
   inkscape:connector-curvature="0" />
  </g>
  <g
   id="bullet-char-template-8226"
   transform="matrix(4.8828125e-4,0,0,-4.8828125e-4,0,0)">
   <path
   d="m 346,457 c -73,0 -137,26 -191,78 -54,51 -81,114 -81,188 0,73 27,136 81,188 54,52 118,78 191,78 73,0 134,-26 185,-79 51,-51 77,-114 77,-187 0,-75 -25,-137 -76,-188 -50,-52 -112,-78 -186,-78 z"
   id="path35"
   inkscape:connector-curvature="0" />
  </g>
  <g
   id="bullet-char-template-8211"
   transform="matrix(4.8828125e-4,0,0,-4.8828125e-4,0,0)">
   <path
   d="M -4,459 H 1135 V 606 H -4 Z"
   id="path38"
   inkscape:connector-curvature="0" />
  </g>
  <g
   id="bullet-char-template-61548"
   transform="matrix(4.8828125e-4,0,0,-4.8828125e-4,0,0)">
   <path
   d="m 173,740 c 0,163 58,303 173,419 116,115 255,173 419,173 163,0 302,-58 418,-173 116,-116 174,-256 174,-419 0,-163 -58,-303 -174,-418 C 1067,206 928,148 765,148 601,148 462,206 346,322 231,437 173,577 173,740 Z"
   id="path41"
   inkscape:connector-curvature="0" />
  </g>
 </defs>
 <g
   id="g49"
   transform="translate(-9546,-13693)">
  <g
   id="id2"
   class="Master_Slide">
   <g
   id="bg-id2"
   class="Background" />
   <g
   id="bo-id2"
   class="BackgroundObjects" />
  </g>
 </g>
 <g
   class="SlideGroup"
   id="g115"
   transform="translate(-9546,-13693)">
  <g
   id="g113">
   <g
   id="container-id1">
    <g
   id="id1"
   class="Slide"
   clip-path="url(#presentation_clip_path)">
     <g
   class="Page"
   id="g109">
      <g
   class="Graphic"
   id="g107">
       <g
   id="id3">
        <rect
   class="BoundingBox"
   x="9546"
   y="13693"
   width="1908"
   height="2314"
   id="rect51"
   style="fill:none;stroke:none" />
        <defs
   id="defs56">
         <clipPath
   id="clip_path_1"
   clipPathUnits="userSpaceOnUse">
          <path
   d="m 9546,13693 h 1907 v 2313 H 9546 Z"
   id="path53"
   inkscape:connector-curvature="0" />
         </clipPath>
        </defs>
        <g
   clip-path="url(#clip_path_1)"
   id="g104">
         <path
   d="m 10202,13894 72,-33 73,-26 77,-17 73,-11 77,-2 76,5 74,10 71,20 71,26 66,30 67,41 61,43 56,54 51,56 45,63 41,69 33,74 26,73 17,74 11,76 2,77 -5,73 -10,74 -21,74 -25,69 -31,68 -40,64 -43,61 -54,56 -56,53 -63,46 -69,41 -71,33 -74,25 -76,18 -74,10 -77,3 -73,-5 -74,-11 -74,-20 -69,-25 -68,-31 -64,-41 -61,-43 -56,-53 -53,-56 -46,-64 -41,-68 -33,-74 -25,-74 -18,-74 -10,-76 -3,-76 5,-74 13,-74 18,-73 25,-72 33,-66 38,-66 46,-61 51,-56 56,-51 64,-45 z"
   id="path58"
   inkscape:connector-curvature="0"
   style="fill:#ffffff;stroke:none" />
         <path
   d="m 11266,14217 v 0 l -41,-71 -48,-64 -51,-58 -59,-54 -61,-43 -68,-43 -67,-31 -73,-25 -72,-21 -76,-10 -76,-7 -77,5 -76,10 -76,18 -77,25 -71,33 10,26 72,-33 71,-26 76,-18 71,-10 h 77 l 76,3 71,10 72,20 68,26 66,30 64,38 61,44 53,53 51,53 44,64 40,66 v 0 z"
   id="path60"
   inkscape:connector-curvature="0"
   style="fill:#000000;stroke:none" />
         <path
   d="m 10930,15287 v 0 l 71,-40 64,-49 58,-53 54,-59 43,-61 43,-66 31,-68 25,-72 21,-73 10,-77 7,-73 -5,-77 -10,-78 -18,-74 -25,-76 -33,-74 -26,10 33,74 26,71 18,74 10,73 v 77 l -3,73 -10,72 -20,73 -26,67 -30,68 -38,61 -44,61 -53,54 -53,53 -64,43 -66,41 v 0 z"
   id="path62"
   inkscape:connector-curvature="0"
   style="fill:#000000;stroke:none" />
         <path
   d="m 9861,14952 v 0 l 41,71 48,63 54,59 58,53 61,44 67,43 68,30 72,26 73,20 77,10 73,8 77,-5 76,-10 76,-18 77,-26 71,-33 -10,-25 -71,33 -72,25 -76,18 -71,10 h -77 l -73,-2 -72,-10 -73,-21 -67,-25 -68,-31 -61,-38 -61,-43 -54,-53 -53,-54 -43,-63 -41,-66 v 0 z"
   id="path64"
   inkscape:connector-curvature="0"
   style="fill:#000000;stroke:none" />
         <path
   d="m 10197,13881 v 0 l -71,41 -64,48 -58,51 -51,59 -46,61 -40,68 -34,66 -25,74 -18,74 -12,76 -8,74 5,76 10,79 18,74 25,76 33,74 26,-10 -33,-74 -26,-71 -17,-74 -11,-74 v -76 l 3,-74 13,-71 17,-74 26,-69 33,-66 36,-63 45,-61 51,-54 54,-50 63,-44 66,-40 v 0 z"
   id="path66"
   inkscape:connector-curvature="0"
   style="fill:#000000;stroke:none" />
         <path
   d="m 9958,14021 -142,-122 -31,33 143,122 z"
   id="path68"
   inkscape:connector-curvature="0"
   style="fill:#000000;stroke:none" />
         <path
   d="m 9958,14021 -142,-122 -31,33 143,122 z"
   id="path70"
   inkscape:connector-curvature="0"
   style="fill:none;stroke:#000000" />
         <path
   d="m 11378,15188 -140,-119 -31,35 140,120 z"
   id="path72"
   inkscape:connector-curvature="0"
   style="fill:#000000;stroke:none" />
         <path
   d="m 11378,15188 -140,-119 -31,35 140,120 z"
   id="path74"
   inkscape:connector-curvature="0"
   style="fill:none;stroke:#000000" />
         <path
   d="m 11212,15168 -30,33 -33,30 -36,28 -36,28 -35,26 -38,23 -41,23 -41,17 -43,18 -41,15 -45,16 -44,10 -45,7 -49,8 -46,3 -48,2 -89,-5 -86,-13 -84,-22 -82,-28 -76,-39 -74,-43 -66,-51 -64,-56 -56,-63 -51,-69 -43,-71 -38,-76 -28,-82 -23,-84 -13,-89 -5,-89 3,-68 10,-71 15,-72 21,-68 25,-66 31,-64 35,-56 41,-51 -3,-2 -7,-8 -13,-13 -15,-12 -18,-16 -15,-17 -18,-16 -13,-12 -51,58 -45,69 -36,73 -31,82 -22,84 -18,86 -10,87 -3,84 5,104 15,99 26,97 33,91 43,89 51,84 56,76 66,72 71,66 77,56 84,50 89,44 91,33 97,25 99,15 104,6 56,-3 54,-3 56,-7 51,-10 53,-16 51,-15 51,-18 48,-20 46,-23 48,-28 44,-28 43,-28 41,-33 38,-35 38,-36 35,-38 z"
   id="path76"
   inkscape:connector-curvature="0"
   style="fill:#000000;stroke:none" />
         <path
   d="m 11212,15168 v 0 l 18,18 18,17 15,13 15,13 13,10 8,8 5,2 2,3"
   id="path78"
   inkscape:connector-curvature="0"
   style="fill:none;stroke:#000000" />
         <path
   d="m 10533,15765 v -111 h -158 v 111 z"
   id="path80"
   inkscape:connector-curvature="0"
   style="fill:#000000;stroke:none" />
         <path
   d="m 10027,15783 h 870 l 5,3 13,5 10,10 5,20 v 23 13 8 2 h -936 v -51 -5 -13 l 7,-10 z"
   id="path82"
   inkscape:connector-curvature="0"
   style="fill:#000000;stroke:none" />
         <path
   d="m 9930,15905 h 1092 l 5,3 12,5 11,13 5,20 v 23 20 13 5 H 9897 v -66 -5 -13 l 10,-13 z"
   id="path84"
   inkscape:connector-curvature="0"
   style="fill:#000000;stroke:none" />
         <path
   d="m 10060,15857 h 18 v -64 h -36 v 64 z"
   id="path86"
   inkscape:connector-curvature="0"
   style="fill:#ffffff;stroke:none" />
         <path
   d="m 10416,15743 h 18 v -72 h -36 v 72 z"
   id="path88"
   inkscape:connector-curvature="0"
   style="fill:#ffffff;stroke:none" />
         <path
   d="m 9950,15982 h 18 v -56 h -35 v 56 z"
   id="path90"
   inkscape:connector-curvature="0"
   style="fill:#ffffff;stroke:none" />
         <path
   d="m 10060,14013 -10,16 -13,15 -15,15 -16,18 -12,20 -13,18 -5,23 v 23 30 l -8,21 -2,10 10,2 15,-2 8,-5 10,-8 20,-7 18,-3 8,3 5,7 13,10 15,11 15,2 h 18 l 25,-5 21,-5 h 10 l 13,2 23,-2 30,-3 23,-2 13,-5 v -13 l -3,-13 -5,-2 -5,2 -18,5 -20,5 -15,8 h -13 l -15,-10 -16,-13 -7,-7 2,-5 23,-3 28,-3 20,-2 13,-8 8,-12 v -16 l 2,-5 8,3 18,7 18,13 5,13 5,13 15,10 25,7 18,8 10,13 -7,17 -15,13 -11,5 -2,8 7,20 8,10 8,8 10,3 13,2 10,3 h 10 l 13,5 10,5 23,10 18,-3 5,-12 -11,-26 -20,-23 -18,-12 -12,-8 -3,-15 3,-10 5,-5 5,-6 10,-12 10,-13 3,-8 h -8 l -25,3 -23,-3 -3,-5 3,-10 v -18 l -8,-15 -10,-2 h -13 l -15,2 -13,-2 -5,-8 3,-8 12,-10 16,-7 h 10 l 10,5 23,12 25,13 18,8 13,7 15,10 8,11 v 7 l -5,8 v 13 l 5,12 5,10 5,6 2,2 3,-2 10,-11 13,-10 15,-10 13,-5 10,-3 10,3 15,8 21,7 18,5 17,3 13,5 8,10 v 8 l -5,10 -3,2 -33,6 h -5 -13 l -10,5 3,12 5,18 2,10 5,5 h 16 23 10 l 5,8 -3,15 -10,16 -13,7 -15,8 -8,15 -2,13 v 5 5 l 8,8 5,7 v 5 8 l 10,20 13,23 5,13 -3,13 -5,15 -3,18 -5,17 v 16 l 8,12 5,11 3,10 v 10 l 2,10 3,10 -3,8 -2,5 -3,3 v 0 l -5,-6 -10,-7 -18,-10 -13,-5 -12,-3 h -11 -10 l -10,3 -8,2 -7,3 -5,5 -8,5 h -5 l -8,5 -10,18 -7,15 -6,18 -5,15 -2,18 5,18 10,15 20,15 34,10 12,-18 13,-15 15,-7 h 15 l 11,7 2,8 -2,10 -3,3 h 5 l 10,2 18,-2 21,-11 17,-2 8,7 8,13 10,13 13,5 h 7 l 10,-3 16,-5 h 15 l 10,3 8,-5 15,-15 13,-23 2,-18 8,-15 20,-8 h 15 l 13,-3 h 13 l 13,-5 10,-2 12,-8 8,-7 10,-13 16,-15 10,-5 10,5 h 15 10 l 13,-3 13,-5 13,-5 12,-3 8,-5 7,-2 h 3 3 l 7,2 15,5 21,3 h 13 l 12,-8 16,-7 12,-11 16,-10 15,-10 12,-5 16,-3 20,8 8,18 5,20 v 18 l -3,20 v 23 l -2,21 5,17 5,13 -3,10 -2,18 -5,26 -5,33 -5,38 -11,35 -20,36 -10,15 -10,15 -8,16 -8,15 -10,15 -7,15 -13,21 -13,20 -23,38 -12,26 -13,18 -18,17 -15,18 -5,13 -8,13 -13,12 -17,13 -16,15 -10,8 -5,5 5,-43 5,-36 5,-33 3,-36 5,-33 2,-28 -5,-17 -25,-11 -18,-2 h -15 -15 l -13,-3 h -13 l -15,-2 -15,-5 -16,-5 -25,-10 -8,-3 -2,-13 -3,-35 v -46 l 3,-31 -3,-23 -18,-12 -20,-5 -10,5 -15,5 -26,2 h -15 l -15,3 h -11 l -10,2 h -10 -10 l -15,-2 -16,-8 -15,-7 -10,-8 -8,-2 -7,-3 h -8 l -8,3 -7,5 -13,7 -20,18 -13,15 -13,8 -25,-3 -15,-2 h -13 -10 l -13,2 h -10 l -10,-5 -8,-7 -10,-16 -15,-28 -11,-17 -10,-11 -18,-12 -17,-16 -13,-5 -10,-2 -21,-5 -20,-3 h -15 l -8,5 3,8 12,13 10,12 11,11 10,5 7,7 11,3 7,5 8,2 8,6 -3,7 -5,5 -5,3 -21,-5 -15,-8 -13,-5 -10,-5 -10,-3 -7,-5 -8,-7 -8,-5 -12,-13 -8,-13 -3,-18 v -20 -18 l -2,-10 -10,-8 -18,-12 -21,-16 -12,-10 -8,-7 -5,-11 v -15 l 3,-15 v -20 l -3,-26 -8,-23 -12,-15 -13,-15 -10,-18 -10,-18 -13,-13 -5,-7 7,-3 16,3 10,7 8,3 7,-10 8,-18 2,-15 -2,-13 -10,-5 h -11 -7 l -10,2 h -11 -10 l -5,3 -2,-3 -13,-12 -10,-8 -10,-2 -11,-3 h -12 l -13,3 h -10 l -10,2 h -11 l -15,3 -7,-3 -3,-5 8,-18 12,-18 13,-12 10,-10 5,-16 3,-17 2,-13 -5,-5 -15,-3 -18,3 -12,5 -11,5 h -15 l -8,-3 -5,-2 -2,2 v 0 l 10,-25 15,-31 23,-35 28,-38 28,-33 28,-33 26,-23 z"
   id="path92"
   inkscape:connector-curvature="0"
   style="fill:#000000;stroke:none" />
         <path
   d="m 10299,14059 15,-10 18,-5 18,-3 h 18 l 18,3 17,5 18,5 18,8 20,10 23,8 26,10 25,7 20,3 h 18 l 8,-8 v -12 l -18,-34 -20,-25 -18,-20 -13,-23 -7,-18 -8,-3 -13,6 h -28 l -18,-3 -15,-3 -13,-2 -12,-3 h -10 l -11,-2 h -10 -7 l -16,-3 h -10 l -8,10 -10,21 -10,20 -5,8 -5,7 2,21 3,18 3,7 z"
   id="path94"
   inkscape:connector-curvature="0"
   style="fill:#000000;stroke:none" />
         <path
   d="m 10553,13940 h 13 l 10,2 8,5 13,3 7,5 v 13 l -5,10 -2,5 -26,25 h -2 l -8,-5 -10,-7 -5,-13 v -15 l 2,-16 3,-7 z"
   id="path96"
   inkscape:connector-curvature="0"
   style="fill:#000000;stroke:none" />
         <path
   d="m 11243,14240 -10,5 -11,2 -12,-2 -13,-5 -15,-10 -13,-13 -13,-15 -10,-21 -15,-25 -15,-8 -16,3 -17,-5 -16,-18 -12,-26 -13,-30 -18,-33 -13,-15 -12,-13 -16,-8 -15,-5 -20,-5 -21,-2 -23,-3 -25,-5 -36,-10 -7,-10 2,-16 v -23 l -5,-20 v -2 h -2 l -5,-13 -5,-10 -6,5 -5,15 -10,10 -7,8 -3,7 -5,13 -18,18 -18,15 -12,3 -13,-8 -13,-10 -15,-13 -18,-15 -18,-18 -20,-20 -10,-10 -10,-5 -11,-6 h -10 -10 -13 -15 l -15,-2 -15,-3 -13,-2 -8,-3 -7,-2 h -6 -7 l -10,2 -13,3 h -18 -18 l -17,-3 -13,-2 -13,-3 -5,-5 3,-2 10,-6 28,-10 30,-5 33,-7 31,-3 33,-2 h 33 33 l 36,2 33,5 30,5 33,5 31,8 30,10 28,8 28,10 26,13 51,28 53,38 56,40 51,46 46,51 40,53 33,51 z"
   id="path98"
   inkscape:connector-curvature="0"
   style="fill:#000000;stroke:none" />
         <path
   d="m 10630,14664 h -8 l -2,-5 2,-7 8,-11 10,-7 13,-10 15,-8 13,-2 20,2 13,5 10,5 h 20 l 21,-2 15,-5 10,-5 8,-8 5,-5 5,-3 2,5 3,11 5,7 10,-5 10,-13 11,-20 7,-18 8,-15 13,-8 20,-7 20,-3 10,8 -2,7 -8,13 -7,8 -8,7 -8,8 -12,8 -13,5 -8,2 -7,5 -13,8 -15,10 -13,10 -13,8 -15,8 -15,10 -11,7 -10,8 -17,-3 -16,-7 -5,-8 3,-7 7,-8 5,-8 -5,-2 -12,5 -18,10 -18,8 -13,5 -15,2 z"
   id="path100"
   inkscape:connector-curvature="0"
   style="fill:#000000;stroke:none" />
         <path
   d="m 10146,15148 23,-11 13,-7 h 15 l 21,7 25,13 15,13 8,12 5,21 v 20 l -3,15 6,13 22,10 18,5 16,3 17,5 13,3 13,5 10,2 5,3 h 3 -3 -5 l -8,2 -12,10 -8,8 -8,8 -7,2 h -8 -10 l -10,-2 -10,-3 -16,-5 -20,-8 -18,-7 -15,-8 -15,-7 -16,-8 -12,-8 -13,-7 -10,-8 -21,-13 -17,-12 -18,-11 -15,-12 2,-16 18,-15 20,-7 z"
   id="path102"
   inkscape:connector-curvature="0"
   style="fill:#000000;stroke:none" />
        </g>
       </g>
      </g>
     </g>
    </g>
   </g>
  </g>
 </g>
</svg>