<?xml version="1.0" encoding="UTF-8" standalone="no"?>
<svg
   xmlns:ooo="http://xml.openoffice.org/svg/export"
   xmlns:dc="http://purl.org/dc/elements/1.1/"
   xmlns:cc="http://creativecommons.org/ns#"
   xmlns:rdf="http://www.w3.org/1999/02/22-rdf-syntax-ns#"
   xmlns:svg="http://www.w3.org/2000/svg"
   xmlns="http://www.w3.org/2000/svg"
   xmlns:sodipodi="http://sodipodi.sourceforge.net/DTD/sodipodi-0.dtd"
   xmlns:inkscape="http://www.inkscape.org/namespaces/inkscape"
   version="1.2"
   width="37.439999mm"
   height="66.419998mm"
   viewBox="0 0 3743.9999 6641.9998"
   preserveAspectRatio="xMidYMid"
   xml:space="preserve"
   id="svg95"
   sodipodi:docname="grad2.svg"
   style="fill-rule:evenodd;stroke-width:28.22200012;stroke-linejoin:round"
   inkscape:version="0.92.5 (2060ec1f9f, 2020-04-08)"><metadata
   id="metadata99"><rdf:RDF><cc:Work
       rdf:about=""><dc:format>image/svg+xml</dc:format><dc:type
         rdf:resource="http://purl.org/dc/dcmitype/StillImage" /></cc:Work></rdf:RDF></metadata><sodipodi:namedview
   pagecolor="#ffffff"
   bordercolor="#666666"
   borderopacity="1"
   objecttolerance="10"
   gridtolerance="10"
   guidetolerance="10"
   inkscape:pageopacity="0"
   inkscape:pageshadow="2"
   inkscape:window-width="664"
   inkscape:window-height="487"
   id="namedview97"
   showgrid="false"
   inkscape:zoom="0.2102413"
   inkscape:cx="70.752757"
   inkscape:cy="125.51811"
   inkscape:window-x="0"
   inkscape:window-y="0"
   inkscape:window-maximized="0"
   inkscape:current-layer="svg95" />
 <defs
   class="ClipPathGroup"
   id="defs8">
  <clipPath
   id="presentation_clip_path"
   clipPathUnits="userSpaceOnUse">
   <rect
   x="0"
   y="0"
   width="21000"
   height="29700"
   id="rect2" />
  </clipPath>
  <clipPath
   id="presentation_clip_path_shrink"
   clipPathUnits="userSpaceOnUse">
   <rect
   x="21"
   y="29"
   width="20958"
   height="29641"
   id="rect5" />
  </clipPath>
 </defs>
 <defs
   class="TextShapeIndex"
   id="defs12">
  <g
   ooo:slide="id1"
   ooo:id-list="id3"
   id="g10" />
 </defs>
 <defs
   class="EmbeddedBulletChars"
   id="defs44">
  <g
   id="bullet-char-template-57356"
   transform="matrix(4.8828125e-4,0,0,-4.8828125e-4,0,0)">
   <path
   d="M 580,1141 1163,571 580,0 -4,571 Z"
   id="path14"
   inkscape:connector-curvature="0" />
  </g>
  <g
   id="bullet-char-template-57354"
   transform="matrix(4.8828125e-4,0,0,-4.8828125e-4,0,0)">
   <path
   d="M 8,1128 H 1137 V 0 H 8 Z"
   id="path17"
   inkscape:connector-curvature="0" />
  </g>
  <g
   id="bullet-char-template-10146"
   transform="matrix(4.8828125e-4,0,0,-4.8828125e-4,0,0)">
   <path
   d="M 174,0 602,739 174,1481 1456,739 Z M 1358,739 309,1346 659,739 Z"
   id="path20"
   inkscape:connector-curvature="0" />
  </g>
  <g
   id="bullet-char-template-10132"
   transform="matrix(4.8828125e-4,0,0,-4.8828125e-4,0,0)">
   <path
   d="M 2015,739 1276,0 H 717 l 543,543 H 174 v 393 h 1086 l -543,545 h 557 z"
   id="path23"
   inkscape:connector-curvature="0" />
  </g>
  <g
   id="bullet-char-template-10007"
   transform="matrix(4.8828125e-4,0,0,-4.8828125e-4,0,0)">
   <path
   d="m 0,-2 c -7,16 -16,29 -25,39 l 381,530 c -94,256 -141,385 -141,387 0,25 13,38 40,38 9,0 21,-2 34,-5 21,4 42,12 65,25 l 27,-13 111,-251 280,301 64,-25 24,25 c 21,-10 41,-24 62,-43 C 886,937 835,863 770,784 769,783 710,716 594,584 L 774,223 c 0,-27 -21,-55 -63,-84 l 16,-20 C 717,90 699,76 672,76 641,76 570,178 457,381 L 164,-76 c -22,-34 -53,-51 -92,-51 -42,0 -63,17 -64,51 -7,9 -10,24 -10,44 0,9 1,19 2,30 z"
   id="path26"
   inkscape:connector-curvature="0" />
  </g>
  <g
   id="bullet-char-template-10004"
   transform="matrix(4.8828125e-4,0,0,-4.8828125e-4,0,0)">
   <path
   d="M 285,-33 C 182,-33 111,30 74,156 52,228 41,333 41,471 c 0,78 14,145 41,201 34,71 87,106 158,106 53,0 88,-31 106,-94 l 23,-176 c 8,-64 28,-97 59,-98 l 735,706 c 11,11 33,17 66,17 42,0 63,-15 63,-46 V 965 c 0,-36 -10,-64 -30,-84 L 442,47 C 390,-6 338,-33 285,-33 Z"
   id="path29"
   inkscape:connector-curvature="0" />
  </g>
  <g
   id="bullet-char-template-9679"
   transform="matrix(4.8828125e-4,0,0,-4.8828125e-4,0,0)">
   <path
   d="M 813,0 C 632,0 489,54 383,161 276,268 223,411 223,592 c 0,181 53,324 160,431 106,107 249,161 430,161 179,0 323,-54 432,-161 108,-107 162,-251 162,-431 0,-180 -54,-324 -162,-431 C 1136,54 992,0 813,0 Z"
   id="path32"
   inkscape:connector-curvature="0" />
  </g>
  <g
   id="bullet-char-template-8226"
   transform="matrix(4.8828125e-4,0,0,-4.8828125e-4,0,0)">
   <path
   d="m 346,457 c -73,0 -137,26 -191,78 -54,51 -81,114 -81,188 0,73 27,136 81,188 54,52 118,78 191,78 73,0 134,-26 185,-79 51,-51 77,-114 77,-187 0,-75 -25,-137 -76,-188 -50,-52 -112,-78 -186,-78 z"
   id="path35"
   inkscape:connector-curvature="0" />
  </g>
  <g
   id="bullet-char-template-8211"
   transform="matrix(4.8828125e-4,0,0,-4.8828125e-4,0,0)">
   <path
   d="M -4,459 H 1135 V 606 H -4 Z"
   id="path38"
   inkscape:connector-curvature="0" />
  </g>
  <g
   id="bullet-char-template-61548"
   transform="matrix(4.8828125e-4,0,0,-4.8828125e-4,0,0)">
   <path
   d="m 173,740 c 0,163 58,303 173,419 116,115 255,173 419,173 163,0 302,-58 418,-173 116,-116 174,-256 174,-419 0,-163 -58,-303 -174,-418 C 1067,206 928,148 765,148 601,148 462,206 346,322 231,437 173,577 173,740 Z"
   id="path41"
   inkscape:connector-curvature="0" />
  </g>
 </defs>
 <g
   id="g49"
   transform="translate(-8628,-11529)">
  <g
   id="id2"
   class="Master_Slide">
   <g
   id="bg-id2"
   class="Background" />
   <g
   id="bo-id2"
   class="BackgroundObjects" />
  </g>
 </g>
 <g
   class="SlideGroup"
   id="g93"
   transform="translate(-8628,-11529)">
  <g
   id="g91">
   <g
   id="container-id1">
    <g
   id="id1"
   class="Slide"
   clip-path="url(#presentation_clip_path)">
     <g
   class="Page"
   id="g87">
      <g
   class="Graphic"
   id="g85">
       <g
   id="id3">
        <rect
   class="BoundingBox"
   x="8628"
   y="11529"
   width="3744"
   height="6642"
   id="rect51"
   style="fill:none;stroke:none" />
        <defs
   id="defs56">
         <clipPath
   id="clip_path_1"
   clipPathUnits="userSpaceOnUse">
          <path
   d="m 8628,11529 h 3743 v 6641 H 8628 Z"
   id="path53"
   inkscape:connector-curvature="0" />
         </clipPath>
        </defs>
        <g
   clip-path="url(#clip_path_1)"
   id="g82">
         <path
   d="m 10974,15683 -2346,-294 1159,1448 2473,280 -81,-89 -82,-89 -81,-89 -81,-89 -82,-89 -81,-89 -81,-89 -79,-91 -81,-89 -79,-89 -81,-89 -79,-92 -79,-89 -81,-91 -79,-89 z"
   id="path58"
   inkscape:connector-curvature="0"
   style="fill:#000000;stroke:none" />
         <path
   d="m 11091,17091 -1319,-175 -514,-602 -38,48 -40,46 -44,43 -43,43 -46,41 -43,43 -43,43 -41,46 44,43 43,46 40,45 36,49 38,48 33,51 31,51 30,53 28,53 26,54 25,56 23,56 20,55 20,59 18,58 16,59 78,-5 89,-8 97,-10 102,-10 106,-13 112,-13 112,-7 114,-8 110,-2 109,5 104,7 99,18 92,25 81,33 71,46 61,59 26,-66 23,-64 20,-66 20,-66 21,-66 17,-66 18,-66 z"
   id="path60"
   inkscape:connector-curvature="0"
   style="fill:#000000;stroke:none" />
         <path
   d="m 10641,16253 92,61 81,81 66,94 58,107 46,117 36,127 30,134 21,137 15,143 13,142 5,140 2,137 v 130 124 l -2,114 v 102 l -308,28 290,-650 z"
   id="path62"
   inkscape:connector-curvature="0"
   style="fill:#e24966;stroke:none" />
         <path
   d="m 10303,14288 145,1454 717,-895 -160,-1527 -41,59 -41,61 -40,63 -41,64 -41,63 -43,64 -41,63 -43,64 -43,63 -46,61 -43,61 -46,61 -46,59 -48,56 -48,56 z"
   id="path64"
   inkscape:connector-curvature="0"
   style="fill:#000000;stroke:none" />
         <path
   d="m 11155,14039 86,808 -272,382 33,17 28,18 28,20 28,18 25,21 28,22 28,21 28,23 31,-28 28,-31 28,-25 25,-28 25,-26 23,-25 26,-25 25,-26 23,-23 28,-22 25,-23 28,-26 31,-20 33,-23 33,-23 38,-23 -28,-106 -30,-105 -28,-99 -28,-101 -26,-99 -20,-105 -15,-106 -10,-115 45,-86 -40,-8 -44,-7 -45,-5 -44,-5 -45,-3 -44,-3 h -45 z"
   id="path66"
   inkscape:connector-curvature="0"
   style="fill:#000000;stroke:none" />
         <path
   d="m 10761,14494 114,79 81,132 59,170 33,194 20,198 8,188 v 162 120 l -209,18 196,-430 z"
   id="path68"
   inkscape:connector-curvature="0"
   style="fill:#e24966;stroke:none" />
         <path
   d="m 12372,12075 -397,-310 -655,74 406,295 41,-3 h 41 l 40,-2 41,-3 41,-2 40,-3 41,-5 41,-3 40,-5 41,-2 38,-5 41,-5 41,-5 40,-6 38,-5 z"
   id="path70"
   inkscape:connector-curvature="0"
   style="fill:#000000;stroke:none" />
         <path
   d="m 11625,11748 350,-44 176,115 58,-71 v -16 l -23,-15 -25,-20 -28,-23 -25,-28 -23,-28 -18,-31 -13,-30 -5,-28 -30,5 -28,10 -26,8 -25,10 -23,10 -23,10 -23,11 -20,10 -23,7 -23,8 -25,5 -23,3 h -28 l -28,-6 -31,-7 -33,-10 -10,35 -7,36 v 38 z"
   id="path72"
   inkscape:connector-curvature="0"
   style="fill:#000000;stroke:none" />
         <path
   d="m 11777,11925 -43,44 -28,76 -15,96 -5,110 v 111 l 2,107 5,89 3,61 63,10 -25,-101 -18,-92 -5,-81 v -79 l 10,-79 16,-84 17,-89 z"
   id="path74"
   inkscape:connector-curvature="0"
   style="fill:#e24966;stroke:none" />
         <path
   d="m 10336,13310 -790,-851 -16,910 821,881 z"
   id="path76"
   inkscape:connector-curvature="0"
   style="fill:#000000;stroke:none" />
         <path
   d="m 9909,13874 -455,-498 13,-381 -234,15 v 61 l -3,61 -7,61 -8,61 -13,59 -17,58 -26,56 -28,53 26,26 33,25 35,26 44,28 45,28 49,30 48,31 46,33 45,33 44,35 38,36 35,38 26,38 17,38 11,41 v 43 l 30,-15 33,-13 31,-15 28,-18 30,-15 28,-18 28,-20 z"
   id="path78"
   inkscape:connector-curvature="0"
   style="fill:#000000;stroke:none" />
         <path
   d="m 10034,13374 40,76 28,127 21,160 12,178 5,183 3,173 v 142 104 l -102,18 38,-170 21,-150 7,-135 v -129 l -12,-130 -18,-135 -21,-147 z"
   id="path80"
   inkscape:connector-curvature="0"
   style="fill:#e24966;stroke:none" />
        </g>
       </g>
      </g>
     </g>
    </g>
   </g>
  </g>
 </g>
</svg>