<?xml version="1.0" encoding="UTF-8" standalone="no"?>
<svg
   xmlns:ooo="http://xml.openoffice.org/svg/export"
   xmlns:dc="http://purl.org/dc/elements/1.1/"
   xmlns:cc="http://creativecommons.org/ns#"
   xmlns:rdf="http://www.w3.org/1999/02/22-rdf-syntax-ns#"
   xmlns:svg="http://www.w3.org/2000/svg"
   xmlns="http://www.w3.org/2000/svg"
   xmlns:sodipodi="http://sodipodi.sourceforge.net/DTD/sodipodi-0.dtd"
   xmlns:inkscape="http://www.inkscape.org/namespaces/inkscape"
   version="1.2"
   width="18.719999mm"
   height="28.799999mm"
   viewBox="0 0 1871.9999 2879.9999"
   preserveAspectRatio="xMidYMid"
   xml:space="preserve"
   id="svg475"
   sodipodi:docname="grapes.svg"
   style="fill-rule:evenodd;stroke-width:28.22200012;stroke-linejoin:round"
   inkscape:version="0.92.5 (2060ec1f9f, 2020-04-08)"><metadata
   id="metadata479"><rdf:RDF><cc:Work
       rdf:about=""><dc:format>image/svg+xml</dc:format><dc:type
         rdf:resource="http://purl.org/dc/dcmitype/StillImage" /></cc:Work></rdf:RDF></metadata><sodipodi:namedview
   pagecolor="#ffffff"
   bordercolor="#666666"
   borderopacity="1"
   objecttolerance="10"
   gridtolerance="10"
   guidetolerance="10"
   inkscape:pageopacity="0"
   inkscape:pageshadow="2"
   inkscape:window-width="664"
   inkscape:window-height="487"
   id="namedview477"
   showgrid="false"
   inkscape:zoom="0.2102413"
   inkscape:cx="35.376379"
   inkscape:cy="54.425195"
   inkscape:window-x="0"
   inkscape:window-y="0"
   inkscape:window-maximized="0"
   inkscape:current-layer="svg475" />
 <defs
   class="ClipPathGroup"
   id="defs8">
  <clipPath
   id="presentation_clip_path"
   clipPathUnits="userSpaceOnUse">
   <rect
   x="0"
   y="0"
   width="21000"
   height="29700"
   id="rect2" />
  </clipPath>
  <clipPath
   id="presentation_clip_path_shrink"
   clipPathUnits="userSpaceOnUse">
   <rect
   x="21"
   y="29"
   width="20958"
   height="29641"
   id="rect5" />
  </clipPath>
 </defs>
 <defs
   class="TextShapeIndex"
   id="defs12">
  <g
   ooo:slide="id1"
   ooo:id-list="id3"
   id="g10" />
 </defs>
 <defs
   class="EmbeddedBulletChars"
   id="defs44">
  <g
   id="bullet-char-template-57356"
   transform="matrix(4.8828125e-4,0,0,-4.8828125e-4,0,0)">
   <path
   d="M 580,1141 1163,571 580,0 -4,571 Z"
   id="path14"
   inkscape:connector-curvature="0" />
  </g>
  <g
   id="bullet-char-template-57354"
   transform="matrix(4.8828125e-4,0,0,-4.8828125e-4,0,0)">
   <path
   d="M 8,1128 H 1137 V 0 H 8 Z"
   id="path17"
   inkscape:connector-curvature="0" />
  </g>
  <g
   id="bullet-char-template-10146"
   transform="matrix(4.8828125e-4,0,0,-4.8828125e-4,0,0)">
   <path
   d="M 174,0 602,739 174,1481 1456,739 Z M 1358,739 309,1346 659,739 Z"
   id="path20"
   inkscape:connector-curvature="0" />
  </g>
  <g
   id="bullet-char-template-10132"
   transform="matrix(4.8828125e-4,0,0,-4.8828125e-4,0,0)">
   <path
   d="M 2015,739 1276,0 H 717 l 543,543 H 174 v 393 h 1086 l -543,545 h 557 z"
   id="path23"
   inkscape:connector-curvature="0" />
  </g>
  <g
   id="bullet-char-template-10007"
   transform="matrix(4.8828125e-4,0,0,-4.8828125e-4,0,0)">
   <path
   d="m 0,-2 c -7,16 -16,29 -25,39 l 381,530 c -94,256 -141,385 -141,387 0,25 13,38 40,38 9,0 21,-2 34,-5 21,4 42,12 65,25 l 27,-13 111,-251 280,301 64,-25 24,25 c 21,-10 41,-24 62,-43 C 886,937 835,863 770,784 769,783 710,716 594,584 L 774,223 c 0,-27 -21,-55 -63,-84 l 16,-20 C 717,90 699,76 672,76 641,76 570,178 457,381 L 164,-76 c -22,-34 -53,-51 -92,-51 -42,0 -63,17 -64,51 -7,9 -10,24 -10,44 0,9 1,19 2,30 z"
   id="path26"
   inkscape:connector-curvature="0" />
  </g>
  <g
   id="bullet-char-template-10004"
   transform="matrix(4.8828125e-4,0,0,-4.8828125e-4,0,0)">
   <path
   d="M 285,-33 C 182,-33 111,30 74,156 52,228 41,333 41,471 c 0,78 14,145 41,201 34,71 87,106 158,106 53,0 88,-31 106,-94 l 23,-176 c 8,-64 28,-97 59,-98 l 735,706 c 11,11 33,17 66,17 42,0 63,-15 63,-46 V 965 c 0,-36 -10,-64 -30,-84 L 442,47 C 390,-6 338,-33 285,-33 Z"
   id="path29"
   inkscape:connector-curvature="0" />
  </g>
  <g
   id="bullet-char-template-9679"
   transform="matrix(4.8828125e-4,0,0,-4.8828125e-4,0,0)">
   <path
   d="M 813,0 C 632,0 489,54 383,161 276,268 223,411 223,592 c 0,181 53,324 160,431 106,107 249,161 430,161 179,0 323,-54 432,-161 108,-107 162,-251 162,-431 0,-180 -54,-324 -162,-431 C 1136,54 992,0 813,0 Z"
   id="path32"
   inkscape:connector-curvature="0" />
  </g>
  <g
   id="bullet-char-template-8226"
   transform="matrix(4.8828125e-4,0,0,-4.8828125e-4,0,0)">
   <path
   d="m 346,457 c -73,0 -137,26 -191,78 -54,51 -81,114 -81,188 0,73 27,136 81,188 54,52 118,78 191,78 73,0 134,-26 185,-79 51,-51 77,-114 77,-187 0,-75 -25,-137 -76,-188 -50,-52 -112,-78 -186,-78 z"
   id="path35"
   inkscape:connector-curvature="0" />
  </g>
  <g
   id="bullet-char-template-8211"
   transform="matrix(4.8828125e-4,0,0,-4.8828125e-4,0,0)">
   <path
   d="M -4,459 H 1135 V 606 H -4 Z"
   id="path38"
   inkscape:connector-curvature="0" />
  </g>
  <g
   id="bullet-char-template-61548"
   transform="matrix(4.8828125e-4,0,0,-4.8828125e-4,0,0)">
   <path
   d="m 173,740 c 0,163 58,303 173,419 116,115 255,173 419,173 163,0 302,-58 418,-173 116,-116 174,-256 174,-419 0,-163 -58,-303 -174,-418 C 1067,206 928,148 765,148 601,148 462,206 346,322 231,437 173,577 173,740 Z"
   id="path41"
   inkscape:connector-curvature="0" />
  </g>
 </defs>
 <g
   id="g49"
   transform="translate(-9564,-13410)">
  <g
   id="id2"
   class="Master_Slide">
   <g
   id="bg-id2"
   class="Background" />
   <g
   id="bo-id2"
   class="BackgroundObjects" />
  </g>
 </g>
 <g
   class="SlideGroup"
   id="g473"
   transform="translate(-9564,-13410)">
  <g
   id="g471">
   <g
   id="container-id1">
    <g
   id="id1"
   class="Slide"
   clip-path="url(#presentation_clip_path)">
     <g
   class="Page"
   id="g467">
      <g
   class="Graphic"
   id="g465">
       <g
   id="id3">
        <rect
   class="BoundingBox"
   x="9564"
   y="13410"
   width="1872"
   height="2880"
   id="rect51"
   style="fill:none;stroke:none" />
        <defs
   id="defs56">
         <clipPath
   id="clip_path_1"
   clipPathUnits="userSpaceOnUse">
          <path
   d="m 9564,13410 h 1871 v 2879 H 9564 Z"
   id="path53"
   inkscape:connector-curvature="0" />
         </clipPath>
        </defs>
        <g
   clip-path="url(#clip_path_1)"
   id="g462">
         <path
   d="m 10826,14676 -23,15 -18,23 -13,28 -7,30 -3,34 5,35 10,38 16,36 20,33 25,30 26,23 28,18 30,10 28,5 28,-2 28,-8 23,-15 18,-23 13,-28 5,-30 2,-34 -2,-35 -11,-36 -15,-35 -20,-33 -26,-31 -28,-23 -28,-17 -27,-13 -31,-5 -28,2 z"
   id="path58"
   inkscape:connector-curvature="0"
   style="fill:#1900b2;stroke:none" />
         <path
   d="m 10803,14910 v 0 l -16,-33 -10,-36 -2,-35 v -34 l 7,-27 13,-26 15,-20 21,-13 -11,-20 -25,18 -20,25 -13,30 -8,33 -5,34 8,35 10,41 15,38 v 0 z"
   id="path60"
   inkscape:connector-curvature="0"
   style="fill:#aa84d1;stroke:none" />
         <path
   d="m 11001,15014 v 0 l -23,8 h -28 l -25,-3 -28,-10 -26,-15 -25,-23 -23,-28 -20,-33 -21,10 21,33 28,33 25,23 31,20 33,10 30,8 28,-5 33,-8 v 0 z"
   id="path62"
   inkscape:connector-curvature="0"
   style="fill:#aa84d1;stroke:none" />
         <path
   d="m 11029,14793 v 0 l 15,33 10,33 v 35 34 l -5,27 -12,26 -16,20 -20,13 10,20 26,-18 20,-25 13,-30 5,-33 5,-34 -5,-35 -10,-38 -16,-38 v 0 z"
   id="path64"
   inkscape:connector-curvature="0"
   style="fill:#aa84d1;stroke:none" />
         <path
   d="m 10831,14686 v 0 l 20,-8 h 28 l 28,3 25,13 28,17 26,21 23,28 20,33 20,-10 -20,-33 -28,-33 -30,-26 -28,-18 -31,-12 -33,-8 -28,5 -31,8 v 0 z"
   id="path66"
   inkscape:connector-curvature="0"
   style="fill:#aa84d1;stroke:none" />
         <path
   d="m 10930,14452 -20,10 -18,16 -13,17 -8,23 -5,26 -2,25 2,28 8,31 13,28 15,25 20,20 23,18 26,15 22,8 26,3 23,-3 20,-10 15,-15 16,-21 10,-23 5,-25 2,-28 -2,-31 -8,-28 -12,-27 -18,-26 -21,-20 -22,-18 -26,-13 -25,-7 -23,-3 z"
   id="path68"
   inkscape:connector-curvature="0"
   style="fill:#1900b2;stroke:none" />
         <path
   d="m 10884,14625 v 0 l -8,-28 v -28 -25 l 6,-23 7,-21 10,-15 16,-12 17,-11 -5,-20 -23,10 -20,18 -15,20 -8,26 -5,28 -5,25 5,28 8,33 v 0 z"
   id="path70"
   inkscape:connector-curvature="0"
   style="fill:#aa84d1;stroke:none" />
         <path
   d="m 11039,14732 v 0 h -20 -23 l -20,-8 -26,-15 -20,-15 -20,-21 -13,-23 -13,-25 -20,5 12,31 18,28 21,20 25,20 25,16 26,7 28,5 25,-5 v 0 z"
   id="path72"
   inkscape:connector-curvature="0"
   style="fill:#aa84d1;stroke:none" />
         <path
   d="m 11090,14564 v 0 l 8,25 v 31 28 l -5,23 -11,20 -12,18 -13,13 -18,10 5,20 23,-10 18,-18 18,-23 10,-25 5,-28 5,-28 -5,-31 -8,-30 v 0 z"
   id="path74"
   inkscape:connector-curvature="0"
   style="fill:#aa84d1;stroke:none" />
         <path
   d="m 10932,14462 v 0 l 21,-2 h 20 l 26,7 22,13 21,15 20,21 15,23 13,25 20,-5 -12,-31 -21,-28 -20,-20 -25,-20 -28,-13 -26,-8 -25,-5 -26,8 v 0 z"
   id="path76"
   inkscape:connector-curvature="0"
   style="fill:#aa84d1;stroke:none" />
         <path
   d="m 10622,14343 -2,-59 10,-56 23,-48 33,-43 33,-38 38,-28 33,-20 25,-13 41,-15 33,-23 23,-23 20,-26 13,-20 8,-20 5,-10 v -5 l 23,45 28,26 30,5 36,-8 33,-25 33,-36 30,-48 26,-56 15,51 21,35 28,26 30,12 36,3 35,-3 38,-10 36,-12 -46,43 -33,46 -20,43 -5,40 5,39 18,35 30,28 38,26 -48,2 -36,15 -23,26 -12,33 -5,38 5,38 7,36 13,28 -38,-13 -48,-13 -56,-5 -59,5 -58,21 -51,40 -41,61 -28,89 -33,-38 -38,-36 -41,-28 -40,-22 -41,-18 -36,-10 -30,-5 -26,2 z"
   id="path78"
   inkscape:connector-curvature="0"
   style="fill:#00b200;stroke:none" />
         <path
   d="m 10813,14028 v 0 l -28,12 -33,21 -41,30 -33,38 -36,46 -22,51 -11,58 3,59 h 20 l -2,-59 10,-53 23,-46 30,-40 33,-39 36,-25 33,-20 23,-13 v 0 z"
   id="path80"
   inkscape:connector-curvature="0"
   style="fill:#000000;stroke:none" />
         <path
   d="m 10968,13893 3,3 -23,2 -5,10 -8,18 -13,20 -18,23 -22,23 -31,20 -38,16 5,20 43,-15 36,-26 23,-23 23,-27 12,-21 8,-23 5,-10 -23,-7 3,2 -3,-2 5,7 8,3 7,-3 6,-7 z"
   id="path82"
   inkscape:connector-curvature="0"
   style="fill:#000000;stroke:none" />
         <path
   d="m 11207,13799 -20,-3 -26,54 -28,46 -33,35 -30,23 -31,5 -25,-2 -23,-21 -23,-43 -20,5 23,48 33,31 35,7 41,-10 36,-28 33,-35 33,-51 25,-59 -20,-2 20,2 -2,-7 -6,-5 h -7 l -5,7 z"
   id="path84"
   inkscape:connector-curvature="0"
   style="fill:#000000;stroke:none" />
         <path
   d="m 11444,13908 -11,-18 -35,13 -36,10 h -35 -33 l -28,-12 -26,-23 -18,-31 -15,-48 h -20 l 15,53 23,41 30,28 33,13 39,5 35,-5 41,-11 36,-12 -11,-18 11,18 7,-5 v -8 l -5,-5 -8,-3 z"
   id="path86"
   inkscape:connector-curvature="0"
   style="fill:#000000;stroke:none" />
         <path
   d="m 11423,14211 5,-21 -35,-23 -31,-27 -15,-31 -3,-36 3,-38 20,-40 31,-44 46,-43 -16,-15 -45,43 -36,48 -20,46 -8,43 8,41 20,41 31,28 40,28 5,-21 -5,21 h 8 l 7,-8 v -8 l -5,-5 z"
   id="path88"
   inkscape:connector-curvature="0"
   style="fill:#000000;stroke:none" />
         <path
   d="m 11322,14427 12,-15 -12,-26 -8,-33 -3,-38 3,-36 13,-30 17,-21 34,-15 45,-2 v -21 l -51,3 -38,15 -28,31 -12,35 -8,41 8,38 7,38 13,31 13,-16 -13,16 5,5 h 10 l 5,-8 v -7 z"
   id="path90"
   inkscape:connector-curvature="0"
   style="fill:#000000;stroke:none" />
         <path
   d="m 10935,14607 20,-5 28,-84 38,-58 49,-38 56,-21 56,-2 56,2 45,13 39,13 5,-21 -39,-12 -50,-13 -56,-8 -61,8 -61,20 -54,44 -43,63 -28,94 20,-5 -20,5 2,8 8,2 8,-2 2,-8 z"
   id="path92"
   inkscape:connector-curvature="0"
   style="fill:#000000;stroke:none" />
         <path
   d="m 10650,14450 13,7 h 23 l 28,3 35,10 38,18 41,23 38,25 38,36 31,35 20,-10 -35,-41 -38,-35 -44,-31 -40,-23 -44,-17 -35,-11 -33,-7 -28,5 12,8 z"
   id="path94"
   inkscape:connector-curvature="0"
   style="fill:#000000;stroke:none" />
         <path
   d="m 10612,14343 v 2 l 38,105 20,-5 -38,-105 v 3 -3 l -5,-7 h -7 l -6,5 -2,7 z"
   id="path96"
   inkscape:connector-curvature="0"
   style="fill:#000000;stroke:none" />
         <path
   d="m 10691,14401 2,8 5,5 8,-2 5,-6 z"
   id="path98"
   inkscape:connector-curvature="0"
   style="fill:#000000;stroke:none" />
         <path
   d="m 11016,14147 v 0 h -53 l -53,8 -49,20 -43,28 -36,38 -35,46 -31,53 -25,61 20,5 26,-55 30,-54 31,-41 35,-38 38,-23 44,-20 48,-8 h 53 v 0 z"
   id="path100"
   inkscape:connector-curvature="0"
   style="fill:#000000;stroke:none" />
         <path
   d="m 11299,13962 -18,15 -23,25 -28,33 -36,33 -35,33 -43,26 -46,18 -54,2 v 20 l 54,-2 56,-18 43,-30 41,-33 35,-33 28,-33 23,-26 13,-10 z"
   id="path102"
   inkscape:connector-curvature="0"
   style="fill:#000000;stroke:none" />
         <path
   d="m 11309,13982 5,-5 v -10 l -8,-5 h -7 z"
   id="path104"
   inkscape:connector-curvature="0"
   style="fill:#000000;stroke:none" />
         <path
   d="m 10599,13616 21,-20 5,-23 v -31 l -5,-35 35,30 33,36 28,40 28,41 23,43 18,43 13,44 7,43 3,38 -3,48 -7,51 -11,56 -12,56 -13,56 -15,48 -18,41 -31,69 -22,61 -16,50 -5,33 -15,-28 -18,-25 -15,-20 -13,-10 26,-59 25,-51 20,-48 18,-43 18,-38 13,-33 7,-28 5,-26 3,-33 5,-48 3,-59 -3,-66 -13,-63 -25,-59 -38,-48 z"
   id="path106"
   inkscape:connector-curvature="0"
   style="fill:#330000;stroke:none" />
         <path
   d="m 10627,13499 -18,8 5,35 v 31 l -5,17 -15,16 10,20 26,-25 5,-28 v -31 l -5,-35 -18,7 18,-7 -3,-8 -7,-3 -8,3 -3,8 z"
   id="path108"
   inkscape:connector-curvature="0"
   style="fill:#000000;stroke:none" />
         <path
   d="m 10815,13827 v 0 l -7,-46 -13,-43 -18,-46 -23,-43 -28,-41 -30,-43 -33,-36 -36,-30 -15,15 36,31 33,35 25,38 28,41 23,43 18,41 12,43 8,41 v 0 z"
   id="path110"
   inkscape:connector-curvature="0"
   style="fill:#000000;stroke:none" />
         <path
   d="m 10739,14226 v 0 l 18,-43 15,-49 13,-55 13,-59 10,-56 7,-51 5,-48 -5,-38 h -20 v 38 48 l -8,51 -10,56 -12,53 -13,56 -15,49 -18,38 v 0 z"
   id="path112"
   inkscape:connector-curvature="0"
   style="fill:#000000;stroke:none" />
         <path
   d="m 10645,14439 20,-5 5,-30 16,-51 23,-61 30,-66 -20,-10 -31,71 -23,61 -15,51 -5,35 20,-5 -20,5 3,8 7,3 8,-3 2,-8 z"
   id="path114"
   inkscape:connector-curvature="0"
   style="fill:#000000;stroke:none" />
         <path
   d="m 10584,14345 10,16 5,7 13,18 18,26 15,27 20,-10 -15,-28 -18,-25 -18,-23 -20,-13 10,16 -10,-16 -8,3 -2,8 2,7 8,3 z"
   id="path116"
   inkscape:connector-curvature="0"
   style="fill:#000000;stroke:none" />
         <path
   d="m 10716,14025 v 0 l -5,23 -8,28 -12,33 -18,38 -18,43 -20,46 -26,51 -25,58 20,11 26,-59 25,-51 21,-51 17,-43 18,-38 13,-33 7,-28 6,-28 v 0 z"
   id="path118"
   inkscape:connector-curvature="0"
   style="fill:#000000;stroke:none" />
         <path
   d="m 10594,13606 3,20 53,31 36,45 25,56 13,61 v 66 59 l -5,48 -3,33 h 21 l 2,-33 5,-48 5,-59 -5,-66 -13,-66 -25,-61 -41,-51 -63,-35 2,20 -2,-20 -8,2 -5,5 3,8 5,5 z"
   id="path120"
   inkscape:connector-curvature="0"
   style="fill:#000000;stroke:none" />
         <path
   d="m 10009,13962 8,-3 5,-5 v -8 l -8,-5 z"
   id="path122"
   inkscape:connector-curvature="0"
   style="fill:#330000;stroke:none" />
         <path
   d="m 9773,13657 v 0 40 l 10,49 20,45 28,44 36,43 43,35 46,28 53,21 5,-21 -48,-20 -46,-28 -38,-31 -31,-38 -28,-43 -20,-41 -10,-43 v -40 0 z"
   id="path124"
   inkscape:connector-curvature="0"
   style="fill:#330000;stroke:none" />
         <path
   d="m 9879,13430 v 0 l -25,13 -20,18 -18,25 -13,28 -10,31 -8,33 -7,40 -5,39 h 20 l 5,-39 8,-35 7,-33 10,-31 13,-23 13,-20 15,-13 20,-12 v 0 z"
   id="path126"
   inkscape:connector-curvature="0"
   style="fill:#330000;stroke:none" />
         <path
   d="m 9981,13560 v 0 l 15,-28 8,-25 -5,-26 -8,-23 -23,-20 -25,-10 -28,-5 -36,7 5,21 31,-3 h 23 l 20,10 13,10 8,18 v 21 l -3,20 -10,18 v 0 z"
   id="path128"
   inkscape:connector-curvature="0"
   style="fill:#330000;stroke:none" />
         <path
   d="m 9729,13542 31,31 38,23 36,10 35,7 33,-7 28,-8 31,-18 20,-20 -15,-15 -20,20 -21,13 -28,7 -28,3 -30,-3 -31,-10 -33,-18 -30,-30 z"
   id="path130"
   inkscape:connector-curvature="0"
   style="fill:#330000;stroke:none" />
         <path
   d="m 9745,13527 -8,-3 -8,3 -2,8 2,7 z"
   id="path132"
   inkscape:connector-curvature="0"
   style="fill:#330000;stroke:none" />
         <path
   d="m 9897,14134 28,-7 18,-13 13,-18 2,-20 -5,-20 -13,-18 -22,-15 -34,-11 59,-22 51,-33 38,-44 25,-48 13,-51 -5,-56 -23,-56 -41,-53 62,41 55,30 54,20 46,11 h 43 l 38,-11 36,-17 28,-28 -13,45 2,39 13,30 21,23 28,13 28,-3 30,-15 25,-31 6,39 15,30 23,23 25,10 h 26 l 20,-13 13,-28 v -40 l 33,51 28,63 20,71 8,77 -3,78 -20,79 -38,74 -59,68 -61,11 -61,2 h -58 l -59,-5 -56,-10 -53,-13 -54,-15 -48,-18 -46,-20 -43,-23 -38,-25 -33,-26 -31,-25 -23,-26 -20,-25 z"
   id="path134"
   inkscape:connector-curvature="0"
   style="fill:#00b200;stroke:none" />
         <path
   d="m 9882,14002 2,21 28,10 21,12 10,16 5,15 -2,18 -11,12 -15,11 -23,7 v 21 l 33,-8 21,-15 15,-23 2,-23 -5,-25 -15,-21 -25,-18 -39,-10 3,21 -3,-21 -7,3 -3,7 3,8 7,3 z"
   id="path136"
   inkscape:connector-curvature="0"
   style="fill:#000000;stroke:none" />
         <path
   d="m 10007,13639 -13,18 38,50 23,54 5,53 -13,48 -25,46 -36,41 -48,30 -56,23 5,21 61,-23 53,-36 41,-46 26,-50 12,-54 -5,-58 -23,-59 -43,-56 -13,18 13,-18 -8,-2 -7,2 -3,8 3,8 z"
   id="path138"
   inkscape:connector-curvature="0"
   style="fill:#000000;stroke:none" />
         <path
   d="m 10373,13697 -18,-10 -25,25 -33,18 -36,10 h -43 l -44,-10 -50,-20 -56,-31 -61,-40 -11,20 61,41 56,30 56,21 49,10 h 43 l 41,-10 38,-18 30,-31 -18,-10 18,10 3,-7 -3,-8 -7,-2 -8,2 z"
   id="path140"
   inkscape:connector-curvature="0"
   style="fill:#000000;stroke:none" />
         <path
   d="m 10508,13796 -21,-5 -23,28 -25,13 -25,3 -23,-13 -16,-18 -12,-28 -3,-36 13,-43 -21,-5 -12,48 2,41 13,33 25,28 34,13 30,-3 36,-17 28,-34 -21,-5 21,5 v -7 l -5,-8 h -11 l -5,5 z"
   id="path142"
   inkscape:connector-curvature="0"
   style="fill:#000000;stroke:none" />
         <path
   d="m 10632,13809 -18,8 v 40 l -10,21 -15,10 h -23 l -20,-10 -18,-18 -15,-28 -5,-36 h -21 l 5,41 16,33 28,28 30,10 h 28 l 26,-15 15,-36 v -40 l -18,7 18,-7 -3,-8 -7,-2 -8,2 -3,8 z"
   id="path144"
   inkscape:connector-curvature="0"
   style="fill:#000000;stroke:none" />
         <path
   d="m 10594,14389 8,-3 61,-71 38,-76 20,-82 3,-78 -8,-77 -20,-73 -28,-67 -36,-53 -15,15 31,49 28,61 20,68 7,77 -2,78 -20,77 -39,71 -56,66 8,-3 -8,3 -2,7 2,8 8,3 8,-3 z"
   id="path146"
   inkscape:connector-curvature="0"
   style="fill:#000000;stroke:none" />
         <path
   d="m 9897,14124 -10,13 13,28 23,28 23,25 30,26 36,28 38,25 43,23 48,20 49,18 53,15 54,13 58,10 59,5 58,3 61,-5 61,-10 v -21 l -61,10 h -61 l -58,3 -59,-5 -53,-10 -54,-13 -53,-15 -49,-18 -43,-20 -43,-23 -38,-26 -31,-23 -30,-25 -23,-25 -18,-23 -13,-23 -10,13 10,-13 -5,-8 h -7 l -5,5 -3,8 z"
   id="path148"
   inkscape:connector-curvature="0"
   style="fill:#000000;stroke:none" />
         <path
   d="m 10531,14356 2,7 8,3 7,-3 3,-7 z"
   id="path150"
   inkscape:connector-curvature="0"
   style="fill:#000000;stroke:none" />
         <path
   d="m 10406,14053 v 0 l 33,18 25,25 21,31 15,35 13,41 10,46 5,51 3,56 h 20 l -3,-56 -5,-51 -10,-51 -13,-41 -15,-40 -25,-36 -31,-25 -33,-23 v 0 z"
   id="path152"
   inkscape:connector-curvature="0"
   style="fill:#000000;stroke:none" />
         <path
   d="m 10129,13799 12,38 26,38 33,36 38,33 43,35 44,28 40,26 41,20 10,-20 -41,-21 -40,-25 -44,-28 -38,-30 -38,-33 -33,-36 -20,-33 -13,-28 z"
   id="path154"
   inkscape:connector-curvature="0"
   style="fill:#000000;stroke:none" />
         <path
   d="m 10149,13799 -3,-8 -7,-2 -8,2 -2,8 z"
   id="path156"
   inkscape:connector-curvature="0"
   style="fill:#000000;stroke:none" />
         <path
   d="m 10144,14206 36,-18 33,-10 35,2 36,8 30,20 26,28 20,38 15,49 3,48 -8,38 -18,33 -25,25 -30,21 -34,12 -30,6 h -31 l -30,-11 -28,-25 -28,-36 -23,-45 -10,-46 2,-51 18,-46 z"
   id="path158"
   inkscape:connector-curvature="0"
   style="fill:#1900b2;stroke:none" />
         <path
   d="m 10386,14323 v 0 l -16,-51 -20,-41 -28,-30 -36,-23 -38,-8 -35,-3 -36,11 -38,17 10,21 33,-18 31,-10 35,2 33,8 26,18 23,25 20,36 15,46 v 0 z"
   id="path160"
   inkscape:connector-curvature="0"
   style="fill:#aa84d1;stroke:none" />
         <path
   d="m 10202,14516 v 0 h 31 l 33,-5 36,-13 33,-23 28,-28 17,-35 8,-41 -2,-48 h -21 l 3,48 -8,35 -18,31 -23,23 -28,18 -30,12 -28,5 h -31 v 0 z"
   id="path162"
   inkscape:connector-curvature="0"
   style="fill:#aa84d1;stroke:none" />
         <path
   d="m 10139,14195 v 0 l -46,46 -18,49 -2,53 10,48 23,48 30,39 31,28 35,10 v -21 l -25,-10 -25,-23 -26,-33 -23,-43 -10,-43 3,-48 17,-44 36,-35 v 0 z"
   id="path164"
   inkscape:connector-curvature="0"
   style="fill:#aa84d1;stroke:none" />
         <path
   d="m 9663,14315 31,-20 28,-13 30,-10 31,-5 28,2 25,8 23,10 18,18 13,23 7,23 v 25 l -5,28 -10,28 -15,28 -21,25 -25,23 -31,20 -28,16 -30,10 -31,2 h -28 l -25,-7 -23,-10 -18,-18 -12,-23 -8,-23 v -28 l 5,-25 10,-28 15,-28 21,-26 z"
   id="path166"
   inkscape:connector-curvature="0"
   style="fill:#1900b2;stroke:none" />
         <path
   d="m 9884,14297 v 0 l -20,-20 -25,-10 -28,-8 -28,-5 -33,8 -31,10 -30,12 -33,23 15,16 28,-18 25,-13 31,-10 28,-3 h 28 l 23,8 20,10 15,15 v 0 z"
   id="path168"
   inkscape:connector-curvature="0"
   style="fill:#aa84d1;stroke:none" />
         <path
   d="m 9829,14516 v 0 l 25,-23 23,-28 15,-28 10,-31 5,-30 v -25 l -7,-28 -16,-26 -15,15 10,21 8,18 v 25 l -5,25 -10,26 -15,28 -18,23 -26,22 v 0 z"
   id="path170"
   inkscape:connector-curvature="0"
   style="fill:#aa84d1;stroke:none" />
         <path
   d="m 9600,14528 v 0 l 20,21 25,10 28,8 28,2 33,-5 31,-10 30,-15 34,-23 -16,-16 -28,18 -25,16 -31,10 h -28 l -28,2 -23,-7 -20,-11 -15,-15 v 0 z"
   id="path172"
   inkscape:connector-curvature="0"
   style="fill:#aa84d1;stroke:none" />
         <path
   d="m 9656,14307 v 0 l -26,26 -23,28 -15,28 -10,30 -5,28 v 28 l 7,28 16,25 15,-15 -10,-20 -8,-18 v -28 l 5,-23 10,-25 16,-28 17,-23 26,-25 v 0 z"
   id="path174"
   inkscape:connector-curvature="0"
   style="fill:#aa84d1;stroke:none" />
         <path
   d="m 9897,14198 26,-20 28,-16 30,-5 h 33 l 31,8 25,18 23,23 18,35 10,38 5,36 -2,33 -11,28 -17,25 -21,21 -30,15 -33,10 h -36 l -36,-18 -30,-28 -23,-35 -18,-43 -5,-44 10,-43 z"
   id="path176"
   inkscape:connector-curvature="0"
   style="fill:#1900b2;stroke:none" />
         <path
   d="m 10121,14239 v 0 l -18,-38 -25,-26 -28,-20 -36,-8 h -33 l -33,5 -30,15 -28,23 15,16 23,-18 25,-15 28,-6 h 33 l 26,8 23,15 20,21 18,33 v 0 z"
   id="path178"
   inkscape:connector-curvature="0"
   style="fill:#aa84d1;stroke:none" />
         <path
   d="m 10014,14457 h -2 l 35,-10 33,-15 23,-23 21,-28 10,-30 5,-36 -8,-36 -10,-40 -20,5 10,35 2,36 v 30 l -10,26 -15,23 -18,18 -28,15 -30,10 h -3 z"
   id="path180"
   inkscape:connector-curvature="0"
   style="fill:#aa84d1;stroke:none" />
         <path
   d="m 9890,14190 v 0 l -26,44 -10,45 5,46 18,46 25,38 33,30 39,18 h 40 l -5,-20 h -30 l -33,-18 -28,-25 -21,-33 -18,-41 -5,-41 10,-40 21,-33 v 0 z"
   id="path182"
   inkscape:connector-curvature="0"
   style="fill:#aa84d1;stroke:none" />
         <path
   d="m 10897,14719 13,-20 5,-26 v -33 l -8,-38 -15,-38 -23,-38 -31,-36 -35,-28 -26,-12 -25,-11 -26,-2 -23,2 -22,6 -21,7 -15,10 -15,13 -18,38 -5,56 7,56 23,46 21,18 28,20 30,15 36,15 38,8 h 38 l 36,-8 z"
   id="path184"
   inkscape:connector-curvature="0"
   style="fill:#1900b2;stroke:none" />
         <path
   d="m 10798,14473 v 0 l 33,25 28,33 23,38 15,36 7,35 v 33 l -5,23 -10,15 15,16 16,-26 5,-28 v -33 l -8,-40 -15,-41 -23,-38 -33,-38 -38,-31 v 0 z"
   id="path186"
   inkscape:connector-curvature="0"
   style="fill:#aa84d1;stroke:none" />
         <path
   d="m 10637,14483 v 0 l 13,-13 15,-8 18,-7 20,-5 h 23 23 l 23,10 26,13 10,-21 -26,-13 -28,-10 -28,-5 -23,5 -25,5 -23,8 -15,13 -18,12 v 0 z"
   id="path188"
   inkscape:connector-curvature="0"
   style="fill:#aa84d1;stroke:none" />
         <path
   d="m 10645,14663 v 0 l -20,-41 -5,-53 2,-53 15,-33 -15,-16 -20,44 -8,58 10,59 26,50 v 0 z"
   id="path190"
   inkscape:connector-curvature="0"
   style="fill:#aa84d1;stroke:none" />
         <path
   d="m 10889,14711 v 0 l -28,18 -33,8 h -38 l -36,-8 -33,-15 -30,-15 -26,-18 -20,-18 -15,15 20,18 31,23 30,15 38,16 41,7 h 38 l 38,-7 38,-23 v 0 z"
   id="path192"
   inkscape:connector-curvature="0"
   style="fill:#aa84d1;stroke:none" />
         <path
   d="m 10658,14422 -3,7 3,8 7,2 8,-2 z"
   id="path194"
   inkscape:connector-curvature="0"
   style="fill:#330000;stroke:none" />
         <path
   d="m 11082,14239 v 0 l -40,-8 -38,-8 -39,5 -38,6 -33,10 -30,10 -33,15 -28,18 -26,18 -28,20 -20,18 -20,20 -16,18 -15,15 -10,13 -10,13 15,15 10,-13 10,-12 16,-16 15,-18 20,-20 21,-18 22,-15 26,-18 28,-17 28,-16 30,-10 33,-10 33,-5 h 39 l 38,2 35,8 v 0 z"
   id="path196"
   inkscape:connector-curvature="0"
   style="fill:#330000;stroke:none" />
         <path
   d="m 11141,14473 v 0 l 23,-21 15,-30 5,-33 -5,-38 -13,-36 -22,-33 -28,-28 -34,-15 -5,20 28,15 23,23 18,28 13,31 v 33 28 l -10,20 -18,15 v 0 z"
   id="path198"
   inkscape:connector-curvature="0"
   style="fill:#330000;stroke:none" />
         <path
   d="m 10991,14345 v 0 l 5,33 10,28 13,26 20,20 21,18 25,8 25,2 31,-7 -10,-21 -21,8 -20,-3 -20,-7 -16,-13 -15,-15 -12,-26 -11,-23 -5,-28 v 0 z"
   id="path200"
   inkscape:connector-curvature="0"
   style="fill:#330000;stroke:none" />
         <path
   d="m 11207,14206 h -2 l -36,-8 -36,3 -35,10 -36,15 -30,25 -23,31 -16,30 -2,33 h 20 l 3,-28 15,-25 18,-25 25,-21 31,-15 30,-10 36,-3 30,8 h -2 z"
   id="path202"
   inkscape:connector-curvature="0"
   style="fill:#330000;stroke:none" />
         <path
   d="m 11250,14284 h -2 l 10,-20 -3,-23 -20,-20 -28,-15 -10,20 28,15 10,10 3,13 -5,10 h -3 z"
   id="path204"
   inkscape:connector-curvature="0"
   style="fill:#330000;stroke:none" />
         <path
   d="m 11151,14241 v 0 l 3,18 10,15 15,13 15,8 16,2 12,5 16,-5 12,-13 -20,-10 -3,3 h -5 -12 l -11,-3 -10,-7 -10,-8 -5,-5 -3,-13 v 0 z"
   id="path206"
   inkscape:connector-curvature="0"
   style="fill:#330000;stroke:none" />
         <path
   d="m 11210,14152 -21,13 -18,20 -15,26 -5,30 h 20 l 6,-25 10,-21 18,-15 15,-7 z"
   id="path208"
   inkscape:connector-curvature="0"
   style="fill:#330000;stroke:none" />
         <path
   d="m 11220,14173 5,-6 v -10 l -8,-5 h -7 z"
   id="path210"
   inkscape:connector-curvature="0"
   style="fill:#330000;stroke:none" />
         <path
   d="m 10442,14335 30,-18 31,-12 30,-3 31,5 25,10 28,18 23,23 20,28 16,31 7,33 v 33 l -5,33 -10,30 -10,26 -16,20 -15,15 -18,10 -20,8 -25,5 -26,5 h -25 l -26,-2 -20,-8 -15,-13 -16,-20 -20,-28 -18,-33 -12,-38 -6,-38 6,-43 17,-39 z"
   id="path212"
   inkscape:connector-curvature="0"
   style="fill:#1900b2;stroke:none" />
         <path
   d="m 10670,14381 v 0 l -22,-30 -23,-23 -31,-21 -28,-10 -33,-7 -33,5 -33,12 -31,21 11,15 30,-15 28,-13 h 28 l 28,2 23,11 25,15 23,23 18,25 v 0 z"
   id="path214"
   inkscape:connector-curvature="0"
   style="fill:#aa84d1;stroke:none" />
         <path
   d="m 10632,14617 v 0 l 18,-17 18,-23 10,-28 10,-31 5,-35 v -33 l -7,-36 -16,-33 -20,10 15,28 8,31 v 33 l -5,30 -10,31 -10,23 -13,17 -13,13 v 0 z"
   id="path216"
   inkscape:connector-curvature="0"
   style="fill:#aa84d1;stroke:none" />
         <path
   d="m 10444,14620 v 0 l 18,15 23,8 28,5 25,-3 26,-5 28,-5 22,-7 18,-11 -10,-20 -18,10 -18,8 -22,5 -26,5 -25,-3 h -23 l -18,-7 -13,-10 v 0 z"
   id="path218"
   inkscape:connector-curvature="0"
   style="fill:#aa84d1;stroke:none" />
         <path
   d="m 10436,14328 v -3 l -43,43 -18,41 -7,46 7,40 13,39 18,35 20,28 18,23 15,-15 -12,-18 -21,-28 -18,-31 -12,-38 -3,-35 3,-41 18,-36 33,-33 v -2 z"
   id="path220"
   inkscape:connector-curvature="0"
   style="fill:#aa84d1;stroke:none" />
         <path
   d="m 10063,14839 7,33 10,28 13,20 15,18 18,12 18,8 18,8 18,2 h 28 l 25,-5 25,-15 21,-18 18,-25 12,-28 8,-31 v -30 l -5,-31 -10,-30 -13,-28 -15,-26 -21,-20 -23,-15 -28,-10 -28,-3 -30,5 -26,13 -20,20 -18,23 -12,28 -8,30 v 34 z"
   id="path222"
   inkscape:connector-curvature="0"
   style="fill:#1900b2;stroke:none" />
         <path
   d="m 10180,14958 v 0 l -16,-3 -18,-7 -15,-8 -15,-10 -13,-15 -12,-21 -11,-25 -7,-30 h -21 l 8,35 10,31 13,20 18,20 20,16 20,7 18,8 21,2 v 0 z"
   id="path224"
   inkscape:connector-curvature="0"
   style="fill:#aa84d1;stroke:none" />
         <path
   d="m 10307,14816 v 0 30 l -8,28 -13,26 -15,22 -18,16 -23,15 -22,5 h -28 v 20 h 28 l 27,-5 28,-15 23,-20 21,-28 12,-31 8,-33 v -30 0 z"
   id="path226"
   inkscape:connector-curvature="0"
   style="fill:#aa84d1;stroke:none" />
         <path
   d="m 10174,14663 v 0 l 26,3 25,10 21,13 20,20 13,23 12,25 11,31 5,28 h 20 l -5,-33 -10,-31 -13,-30 -18,-28 -20,-21 -26,-17 -30,-11 -31,-2 v 0 z"
   id="path228"
   inkscape:connector-curvature="0"
   style="fill:#aa84d1;stroke:none" />
         <path
   d="m 10073,14839 v 0 -33 l -3,-34 8,-27 13,-26 15,-20 18,-18 22,-13 28,-5 v -20 l -33,5 -28,13 -22,23 -21,25 -13,30 -7,33 -3,34 5,33 v 0 0 l 3,7 8,3 7,-3 z"
   id="path230"
   inkscape:connector-curvature="0"
   style="fill:#aa84d1;stroke:none" />
         <path
   d="m 10055,14996 20,15 18,23 13,26 7,30 5,36 -2,35 -8,33 -15,36 -20,31 -26,25 -30,20 -28,13 -31,8 -30,2 -28,-2 -23,-11 -33,-38 -15,-56 5,-68 25,-69 20,-30 23,-26 26,-18 25,-15 28,-7 26,-3 25,3 z"
   id="path232"
   inkscape:connector-curvature="0"
   style="fill:#1900b2;stroke:none" />
         <path
   d="m 10103,15235 v 0 l 15,-38 8,-36 5,-35 -7,-36 -8,-33 -13,-28 -20,-25 -23,-18 -10,20 18,13 15,20 13,23 7,28 3,36 v 35 l -8,31 -15,33 v 0 z"
   id="path234"
   inkscape:connector-curvature="0"
   style="fill:#aa84d1;stroke:none" />
         <path
   d="m 9872,15327 v 0 l 25,10 31,5 30,-5 33,-8 31,-13 33,-22 25,-26 23,-33 -20,-10 -18,28 -25,25 -28,18 -26,13 -28,7 h -30 -26 l -20,-10 v 0 z"
   id="path236"
   inkscape:connector-curvature="0"
   style="fill:#aa84d1;stroke:none" />
         <path
   d="m 9849,15080 v 0 l -26,71 -5,71 16,61 38,44 10,-21 -28,-33 -15,-51 5,-66 25,-66 v 0 z"
   id="path238"
   inkscape:connector-curvature="0"
   style="fill:#aa84d1;stroke:none" />
         <path
   d="m 10060,14986 v 0 l -25,-8 -28,-5 -26,5 -30,8 -28,15 -28,21 -23,25 -23,33 20,10 18,-28 23,-25 23,-15 23,-16 25,-7 h 26 22 l 21,7 v 0 z"
   id="path240"
   inkscape:connector-curvature="0"
   style="fill:#aa84d1;stroke:none" />
         <path
   d="m 9966,15098 30,-23 28,-25 21,-31 15,-30 8,-31 2,-30 -5,-31 -13,-28 -20,-23 -23,-18 -30,-12 -31,-5 h -36 l -35,5 -36,12 -35,18 -31,23 -28,28 -20,28 -15,30 -8,34 -3,30 5,28 13,28 21,23 22,18 31,12 30,5 h 36 l 36,-5 35,-12 z"
   id="path242"
   inkscape:connector-curvature="0"
   style="fill:#1900b2;stroke:none" />
         <path
   d="m 10042,14874 v 0 l 13,26 2,28 v 30 l -7,28 -15,28 -18,28 -28,25 -28,21 10,20 33,-25 28,-26 23,-33 15,-33 8,-33 5,-30 -8,-34 -12,-30 v 0 z"
   id="path244"
   inkscape:connector-curvature="0"
   style="fill:#aa84d1;stroke:none" />
         <path
   d="m 9811,14856 v 0 l 33,-17 35,-13 33,-5 h 36 l 28,5 28,13 20,15 18,20 21,-10 -23,-25 -26,-21 -33,-12 -33,-6 h -36 l -38,6 -35,12 -38,18 v 0 z"
   id="path246"
   inkscape:connector-curvature="0"
   style="fill:#aa84d1;stroke:none" />
         <path
   d="m 9729,15070 v 0 l -12,-26 -3,-25 v -30 l 8,-31 15,-28 18,-25 28,-28 28,-21 -10,-20 -34,25 -27,28 -23,31 -16,33 -7,36 -5,30 7,31 13,30 v 0 z"
   id="path248"
   inkscape:connector-curvature="0"
   style="fill:#aa84d1;stroke:none" />
         <path
   d="m 9961,15088 v 0 l -33,17 -36,13 -33,5 h -36 l -28,-5 -28,-13 -20,-15 -18,-20 -20,10 23,25 25,21 33,13 33,5 h 36 l 38,-5 36,-13 38,-18 v 0 z"
   id="path250"
   inkscape:connector-curvature="0"
   style="fill:#aa84d1;stroke:none" />
         <path
   d="m 10139,14986 -43,30 -18,46 2,59 21,63 15,31 23,28 25,23 31,17 30,13 31,8 h 33 l 28,-8 25,-13 18,-20 15,-25 8,-28 3,-31 v -33 l -8,-33 -10,-33 -16,-30 -22,-26 -28,-20 -33,-13 -34,-10 -33,-5 -33,2 z"
   id="path252"
   inkscape:connector-curvature="0"
   style="fill:#1900b2;stroke:none" />
         <path
   d="m 10111,15182 v 0 l -20,-61 -3,-59 15,-38 38,-28 -5,-20 -48,33 -20,53 2,59 21,66 v 0 z"
   id="path254"
   inkscape:connector-curvature="0"
   style="fill:#aa84d1;stroke:none" />
         <path
   d="m 10314,15286 v 0 l -25,8 h -33 l -28,-8 -28,-13 -31,-18 -23,-20 -20,-25 -15,-28 -20,5 15,33 25,30 28,26 31,18 33,12 33,8 h 33 l 30,-8 v 0 z"
   id="path256"
   inkscape:connector-curvature="0"
   style="fill:#aa84d1;stroke:none" />
         <path
   d="m 10358,15083 v 0 l 10,33 7,30 -2,33 v 31 l -8,25 -15,23 -15,18 -21,10 5,20 31,-15 20,-23 16,-28 7,-30 5,-31 -2,-33 -8,-35 -10,-33 v 0 z"
   id="path258"
   inkscape:connector-curvature="0"
   style="fill:#aa84d1;stroke:none" />
         <path
   d="m 10141,14996 v 0 l 28,-7 h 33 l 31,2 33,10 31,13 25,18 20,23 16,28 20,-5 -15,-34 -26,-28 -30,-22 -36,-13 -33,-10 -36,-8 -33,5 -33,8 v 0 z"
   id="path260"
   inkscape:connector-curvature="0"
   style="fill:#aa84d1;stroke:none" />
         <path
   d="m 10734,14887 28,-3 28,3 28,13 25,15 23,20 23,28 18,31 13,33 7,35 5,33 v 31 l -2,28 -10,23 -13,20 -20,15 -23,10 -28,3 -33,-3 -33,-12 -33,-18 -34,-23 -27,-25 -21,-33 -15,-33 -8,-34 v -33 l 8,-28 10,-28 18,-22 18,-21 23,-15 z"
   id="path262"
   inkscape:connector-curvature="0"
   style="fill:#1900b2;stroke:none" />
         <path
   d="m 10930,15024 v 0 l -13,-35 -18,-31 -25,-30 -26,-23 -25,-16 -30,-12 -31,-5 -31,5 6,20 h 25 25 l 26,13 25,15 21,18 20,25 18,31 13,30 v 0 z"
   id="path264"
   inkscape:connector-curvature="0"
   style="fill:#aa84d1;stroke:none" />
         <path
   d="m 10866,15233 v 0 l 26,-11 23,-17 15,-23 10,-26 5,-30 -2,-31 -6,-33 -7,-38 -20,5 7,33 5,33 -2,31 v 25 l -10,21 -11,17 -17,13 -21,10 v 0 z"
   id="path266"
   inkscape:connector-curvature="0"
   style="fill:#aa84d1;stroke:none" />
         <path
   d="m 10630,15080 v 0 l 15,36 23,35 28,26 35,25 34,18 35,13 36,5 30,-5 -5,-21 h -25 -31 l -30,-12 -33,-18 -31,-21 -28,-25 -18,-31 -15,-30 v 0 z"
   id="path268"
   inkscape:connector-curvature="0"
   style="fill:#aa84d1;stroke:none" />
         <path
   d="m 10731,14877 v 0 l -28,10 -25,18 -18,20 -20,25 -10,31 -8,30 v 33 l 8,36 20,-5 -8,-31 v -33 l 8,-25 10,-25 16,-21 17,-20 21,-13 23,-10 v 0 z"
   id="path270"
   inkscape:connector-curvature="0"
   style="fill:#aa84d1;stroke:none" />
         <path
   d="m 10546,14928 28,2 28,10 25,13 21,20 17,26 16,28 7,30 5,33 v 36 l -7,30 -13,31 -18,25 -20,21 -23,17 -28,11 -28,5 -28,-3 -28,-10 -25,-13 -23,-20 -18,-26 -15,-28 -8,-33 -5,-33 2,-33 8,-33 13,-28 15,-25 20,-23 26,-15 25,-10 z"
   id="path272"
   inkscape:connector-curvature="0"
   style="fill:#1900b2;stroke:none" />
         <path
   d="m 10703,15090 v 0 l -5,-33 -7,-33 -15,-30 -21,-28 -23,-23 -28,-13 -28,-10 -30,-3 v 21 l 25,2 28,10 23,13 18,18 15,23 15,25 8,28 5,33 v 0 z"
   id="path274"
   inkscape:connector-curvature="0"
   style="fill:#aa84d1;stroke:none" />
         <path
   d="m 10556,15276 v 0 l 30,-5 31,-10 25,-21 21,-20 20,-28 13,-33 7,-33 v -36 h -20 v 36 l -7,28 -13,28 -15,23 -21,20 -20,15 -26,10 -25,5 v 0 z"
   id="path276"
   inkscape:connector-curvature="0"
   style="fill:#aa84d1;stroke:none" />
         <path
   d="m 10396,15100 v 0 l 5,33 7,36 16,31 20,27 25,23 28,13 28,10 31,3 v -21 l -25,-2 -28,-10 -23,-13 -21,-18 -15,-23 -15,-25 -8,-31 -5,-33 v 0 z"
   id="path278"
   inkscape:connector-curvature="0"
   style="fill:#aa84d1;stroke:none" />
         <path
   d="m 10546,14917 v 0 l -33,5 -28,11 -28,17 -23,26 -15,25 -13,31 -8,35 -2,33 h 20 l 3,-33 7,-30 13,-26 15,-25 18,-20 23,-13 23,-10 28,-5 v 0 z"
   id="path280"
   inkscape:connector-curvature="0"
   style="fill:#aa84d1;stroke:none" />
         <path
   d="m 10503,15207 33,3 30,7 28,18 26,20 22,28 16,31 10,33 5,38 -3,38 -7,33 -15,31 -18,28 -23,23 -28,17 -31,13 -33,5 -23,-2 -25,-8 -23,-15 -23,-23 -20,-26 -18,-33 -10,-33 -5,-38 v -38 l 5,-33 10,-33 15,-28 21,-23 23,-18 27,-10 z"
   id="path282"
   inkscape:connector-curvature="0"
   style="fill:#1900b2;stroke:none" />
         <path
   d="m 10683,15385 v 0 l -5,-41 -10,-33 -15,-33 -26,-30 -28,-23 -30,-18 -33,-7 -33,-3 v 20 l 33,3 28,7 25,18 23,18 20,25 16,28 10,33 5,36 v 0 z"
   id="path284"
   inkscape:connector-curvature="0"
   style="fill:#aa84d1;stroke:none" />
         <path
   d="m 10515,15583 v 0 l 36,-5 33,-12 30,-21 23,-23 21,-30 15,-33 8,-36 2,-38 h -20 l -3,38 -7,31 -16,28 -15,25 -23,23 -25,15 -28,13 -31,5 v 0 z"
   id="path286"
   inkscape:connector-curvature="0"
   style="fill:#aa84d1;stroke:none" />
         <path
   d="m 10358,15395 v 0 l 5,41 10,33 18,36 23,28 22,22 26,18 28,8 25,2 v -20 l -20,-3 -23,-7 -20,-13 -23,-23 -18,-23 -18,-30 -10,-33 -5,-36 v 0 z"
   id="path288"
   inkscape:connector-curvature="0"
   style="fill:#aa84d1;stroke:none" />
         <path
   d="m 10503,15197 v 0 l -36,5 -31,10 -25,21 -23,25 -15,30 -10,34 -5,35 v 38 h 20 v -38 l 5,-30 10,-33 15,-26 18,-20 21,-15 25,-11 31,-5 v 0 z"
   id="path290"
   inkscape:connector-curvature="0"
   style="fill:#aa84d1;stroke:none" />
         <path
   d="m 9862,15215 28,7 25,13 20,18 18,25 15,31 11,30 2,36 v 38 l -7,36 -11,33 -15,30 -20,26 -23,20 -26,13 -28,10 h -28 l -25,-8 -25,-13 -21,-17 -18,-26 -15,-30 -10,-31 -3,-35 v -38 l 8,-36 10,-33 16,-31 20,-25 23,-20 25,-13 26,-10 z"
   id="path292"
   inkscape:connector-curvature="0"
   style="fill:#1900b2;stroke:none" />
         <path
   d="m 9991,15413 v 0 l 3,-38 -5,-36 -10,-33 -16,-33 -20,-28 -23,-20 -28,-13 -30,-7 v 20 l 25,8 23,12 18,16 15,22 15,28 10,28 v 36 l 3,38 v 0 z"
   id="path294"
   inkscape:connector-curvature="0"
   style="fill:#aa84d1;stroke:none" />
         <path
   d="m 9823,15591 v 0 h 28 l 31,-10 28,-13 25,-23 23,-28 16,-33 10,-33 7,-38 h -20 l -8,33 -10,33 -15,28 -18,23 -20,18 -23,12 -26,11 h -28 v 0 z"
   id="path296"
   inkscape:connector-curvature="0"
   style="fill:#aa84d1;stroke:none" />
         <path
   d="m 9696,15383 v 0 l -2,38 5,35 10,33 15,33 21,28 22,21 28,12 28,8 v -20 l -22,-8 -23,-13 -18,-15 -15,-23 -16,-28 -10,-28 v -35 l -2,-38 v 0 z"
   id="path298"
   inkscape:connector-curvature="0"
   style="fill:#aa84d1;stroke:none" />
         <path
   d="m 9862,15205 v 0 h -28 l -31,10 -25,12 -26,23 -23,28 -15,33 -10,33 -8,39 h 21 l 7,-34 10,-33 16,-28 17,-22 21,-18 25,-13 21,-10 h 28 v 0 z"
   id="path300"
   inkscape:connector-curvature="0"
   style="fill:#aa84d1;stroke:none" />
         <path
   d="m 10258,15413 23,3 23,7 23,13 20,20 21,26 12,30 11,33 5,41 -3,41 -7,35 -16,33 -20,28 -23,20 -28,18 -30,10 -34,6 -20,-3 -20,-10 -23,-15 -20,-21 -18,-25 -13,-33 -10,-36 -5,-38 2,-41 8,-33 13,-30 20,-26 20,-22 28,-16 28,-10 z"
   id="path302"
   inkscape:connector-curvature="0"
   style="fill:#1900b2;stroke:none" />
         <path
   d="m 10406,15586 v 0 l -5,-41 -10,-35 -13,-33 -23,-28 -20,-21 -26,-15 -25,-8 -26,-2 v 20 l 21,3 20,7 20,11 21,20 18,23 12,28 10,30 6,41 v 0 z"
   id="path304"
   inkscape:connector-curvature="0"
   style="fill:#aa84d1;stroke:none" />
         <path
   d="m 10235,15787 v 0 l 36,-5 33,-11 28,-20 26,-20 22,-31 16,-35 7,-38 3,-41 h -20 l -3,41 -8,33 -15,30 -18,26 -20,20 -28,15 -28,10 -31,5 v 0 z"
   id="path306"
   inkscape:connector-curvature="0"
   style="fill:#aa84d1;stroke:none" />
         <path
   d="m 10096,15596 v 0 l 5,38 10,38 13,36 20,28 20,20 26,18 23,10 22,3 v -21 l -17,-2 -18,-10 -20,-13 -21,-20 -15,-23 -13,-31 -10,-33 -5,-38 v 0 z"
   id="path308"
   inkscape:connector-curvature="0"
   style="fill:#aa84d1;stroke:none" />
         <path
   d="m 10258,15403 v 0 l -35,5 -31,10 -30,18 -21,23 -23,28 -12,33 -8,35 -2,41 h 20 l 2,-41 8,-30 13,-28 18,-23 20,-23 25,-13 26,-10 30,-5 v 0 z"
   id="path310"
   inkscape:connector-curvature="0"
   style="fill:#aa84d1;stroke:none" />
         <path
   d="m 10057,15136 31,3 28,12 25,18 26,23 20,28 18,35 10,36 5,41 -2,38 -8,35 -15,33 -18,28 -23,21 -25,15 -28,8 -28,-3 -26,-8 -23,-10 -23,-12 -22,-18 -18,-23 -15,-26 -11,-33 -5,-38 3,-38 5,-38 10,-36 15,-27 18,-26 23,-20 25,-13 z"
   id="path312"
   inkscape:connector-curvature="0"
   style="fill:#1900b2;stroke:none" />
         <path
   d="m 10230,15332 v 0 l -5,-41 -10,-38 -18,-38 -23,-31 -25,-23 -28,-20 -30,-13 -34,-2 v 20 l 28,3 26,12 23,16 25,23 18,25 18,33 10,33 5,41 v 0 z"
   id="path314"
   inkscape:connector-curvature="0"
   style="fill:#aa84d1;stroke:none" />
         <path
   d="m 10070,15517 v 0 l 31,3 30,-8 28,-15 26,-23 20,-30 15,-36 8,-38 2,-38 h -20 l -2,38 -8,33 -15,30 -16,26 -20,18 -23,15 -25,7 -26,-2 v 0 z"
   id="path316"
   inkscape:connector-curvature="0"
   style="fill:#aa84d1;stroke:none" />
         <path
   d="m 9920,15339 v 0 l 5,41 10,33 16,28 20,25 25,21 23,12 26,11 25,7 5,-20 -25,-8 -21,-10 -22,-13 -21,-15 -15,-20 -15,-23 -10,-33 -6,-36 v 0 z"
   id="path318"
   inkscape:connector-curvature="0"
   style="fill:#aa84d1;stroke:none" />
         <path
   d="m 10057,15126 v 0 l -30,5 -28,13 -25,22 -21,28 -15,31 -10,38 -5,38 -3,38 h 20 l 3,-38 5,-38 10,-33 16,-25 15,-23 20,-18 23,-13 25,-5 v 0 z"
   id="path320"
   inkscape:connector-curvature="0"
   style="fill:#aa84d1;stroke:none" />
         <path
   d="m 10843,15197 28,3 26,10 23,12 17,21 16,25 12,31 8,33 3,35 -3,36 -10,33 -15,30 -21,28 -25,23 -28,18 -31,10 -30,5 -28,-2 -26,-10 -20,-16 -18,-23 -12,-25 -11,-30 -7,-34 -3,-35 3,-36 10,-33 13,-30 20,-26 23,-20 28,-18 28,-10 z"
   id="path322"
   inkscape:connector-curvature="0"
   style="fill:#1900b2;stroke:none" />
         <path
   d="m 10986,15367 v 0 l -3,-35 -7,-36 -13,-33 -15,-25 -21,-23 -25,-15 -28,-11 -31,-2 v 20 l 26,3 23,10 20,10 15,18 16,25 12,28 8,31 2,35 v 0 z"
   id="path324"
   inkscape:connector-curvature="0"
   style="fill:#aa84d1;stroke:none" />
         <path
   d="m 10813,15560 v 0 l 33,-5 33,-10 31,-20 25,-23 23,-30 15,-34 10,-35 3,-36 h -21 l -2,36 -10,30 -16,28 -17,26 -26,23 -25,15 -28,10 -28,5 v 0 z"
   id="path326"
   inkscape:connector-curvature="0"
   style="fill:#aa84d1;stroke:none" />
         <path
   d="m 10678,15375 v 0 l 3,35 7,36 10,31 13,28 20,25 23,18 28,10 31,2 v -20 l -26,-2 -22,-11 -18,-12 -16,-21 -12,-22 -10,-31 -8,-31 -3,-35 v 0 z"
   id="path328"
   inkscape:connector-curvature="0"
   style="fill:#aa84d1;stroke:none" />
         <path
   d="m 10843,15187 v 0 l -33,5 -30,10 -28,20 -26,21 -23,28 -12,33 -10,35 -3,36 h 20 l 3,-36 10,-30 13,-28 18,-23 20,-20 28,-16 25,-10 28,-5 v 0 z"
   id="path330"
   inkscape:connector-curvature="0"
   style="fill:#aa84d1;stroke:none" />
         <path
   d="m 10393,15634 28,10 28,16 20,22 21,28 13,33 7,36 3,38 -3,41 -10,41 -15,35 -21,31 -20,25 -28,23 -28,13 -28,7 h -30 l -31,-7 -25,-18 -23,-23 -18,-28 -13,-33 -7,-36 -3,-38 3,-40 10,-41 15,-36 18,-30 23,-28 25,-20 28,-13 31,-8 z"
   id="path332"
   inkscape:connector-curvature="0"
   style="fill:#1900b2;stroke:none" />
         <path
   d="m 10520,15858 v 0 l 5,-41 -5,-38 -7,-38 -13,-36 -23,-30 -20,-23 -31,-18 -33,-10 v 20 l 23,11 26,12 20,23 18,26 12,30 8,33 v 38 41 0 z"
   id="path334"
   inkscape:connector-curvature="0"
   style="fill:#aa84d1;stroke:none" />
         <path
   d="m 10330,16043 v 0 h 30 l 31,-7 30,-13 31,-25 23,-28 20,-31 15,-38 10,-43 h -20 l -10,38 -15,33 -21,31 -18,22 -25,21 -25,12 -26,8 h -30 v 0 z"
   id="path336"
   inkscape:connector-curvature="0"
   style="fill:#aa84d1;stroke:none" />
         <path
   d="m 10202,15810 v 0 l -5,40 5,38 8,39 13,35 20,31 23,22 28,21 36,7 v -20 l -26,-8 -23,-15 -23,-23 -15,-25 -13,-31 -7,-33 v -38 -40 0 z"
   id="path338"
   inkscape:connector-curvature="0"
   style="fill:#aa84d1;stroke:none" />
         <path
   d="m 10393,15624 v 0 h -30 l -33,8 -31,12 -28,23 -25,31 -18,30 -15,38 -11,44 h 21 l 10,-39 15,-33 18,-30 20,-26 23,-17 26,-13 28,-8 h 30 v 0 z"
   id="path340"
   inkscape:connector-curvature="0"
   style="fill:#aa84d1;stroke:none" />
         <path
   d="m 10645,15410 31,6 27,12 28,21 23,28 21,33 15,35 8,41 5,38 -3,38 -10,36 -15,33 -23,25 -26,23 -28,18 -33,10 -30,5 -28,-2 -28,-13 -23,-18 -23,-23 -18,-30 -12,-33 -11,-36 -2,-38 2,-38 8,-38 15,-36 21,-30 25,-26 25,-23 28,-12 z"
   id="path342"
   inkscape:connector-curvature="0"
   style="fill:#1900b2;stroke:none" />
         <path
   d="m 10813,15624 v 0 l -5,-38 -8,-43 -15,-38 -20,-33 -26,-31 -30,-23 -31,-13 -33,-5 v 21 l 28,5 25,12 26,18 20,26 21,33 15,33 7,38 6,38 v 0 z"
   id="path344"
   inkscape:connector-curvature="0"
   style="fill:#aa84d1;stroke:none" />
         <path
   d="m 10635,15822 v 0 l 33,-5 35,-10 31,-20 25,-23 26,-28 15,-36 10,-38 3,-38 h -20 l -3,38 -10,33 -15,31 -21,23 -25,22 -26,16 -30,10 -28,5 v 0 z"
   id="path346"
   inkscape:connector-curvature="0"
   style="fill:#aa84d1;stroke:none" />
         <path
   d="m 10480,15619 v 0 l 2,38 10,38 13,36 20,33 23,23 26,20 30,13 31,2 v -20 l -26,-3 -25,-12 -20,-16 -23,-22 -16,-28 -12,-31 -10,-33 -3,-38 v 0 z"
   id="path348"
   inkscape:connector-curvature="0"
   style="fill:#aa84d1;stroke:none" />
         <path
   d="m 10645,15400 v 0 l -33,5 -31,13 -28,26 -25,25 -23,33 -15,38 -8,41 -2,38 h 20 l 3,-38 7,-36 15,-33 18,-28 26,-25 23,-21 25,-12 28,-5 v 0 z"
   id="path350"
   inkscape:connector-curvature="0"
   style="fill:#aa84d1;stroke:none" />
         <path
   d="m 9999,15479 36,3 28,10 22,15 18,20 10,26 8,28 5,30 v 33 l -5,46 -10,38 -13,33 -18,26 -23,20 -22,15 -23,8 -26,2 -23,-5 -25,-10 -20,-18 -21,-22 -18,-28 -12,-31 -10,-33 -3,-36 3,-35 7,-31 13,-30 18,-23 20,-20 25,-16 28,-10 z"
   id="path352"
   inkscape:connector-curvature="0"
   style="fill:#1900b2;stroke:none" />
         <path
   d="m 10136,15644 v 0 -33 l -5,-33 -7,-28 -11,-28 -20,-23 -25,-17 -33,-10 -36,-3 v 20 l 36,3 22,10 21,13 15,18 10,22 8,28 5,28 v 33 0 z"
   id="path354"
   inkscape:connector-curvature="0"
   style="fill:#aa84d1;stroke:none" />
         <path
   d="m 9986,15845 v -2 l 28,-3 26,-8 25,-17 23,-21 20,-28 13,-35 10,-41 5,-46 h -20 l -5,46 -10,36 -13,30 -15,23 -23,20 -21,13 -20,8 -23,2 v -2 z"
   id="path356"
   inkscape:connector-curvature="0"
   style="fill:#aa84d1;stroke:none" />
         <path
   d="m 9844,15649 v 0 l 2,36 11,36 12,33 21,28 20,25 23,20 28,11 25,7 v -25 l -20,-3 -23,-10 -18,-15 -20,-21 -15,-28 -13,-27 -10,-31 -3,-36 v 0 z"
   id="path358"
   inkscape:connector-curvature="0"
   style="fill:#aa84d1;stroke:none" />
         <path
   d="m 9999,15469 v 0 l -33,5 -31,10 -28,18 -20,20 -20,26 -13,33 -8,33 -2,35 h 20 l 3,-35 7,-28 13,-28 15,-20 21,-21 23,-12 25,-11 28,-5 v 0 z"
   id="path360"
   inkscape:connector-curvature="0"
   style="fill:#aa84d1;stroke:none" />
         <path
   d="m 9976,14432 25,7 23,16 21,20 15,25 10,28 8,33 2,36 -2,38 -8,36 -13,33 -17,28 -21,25 -23,21 -22,12 -28,5 h -26 l -25,-7 -23,-16 -21,-17 -17,-26 -11,-30 -7,-33 -3,-36 3,-35 7,-36 13,-33 18,-31 20,-25 23,-18 26,-13 25,-7 z"
   id="path362"
   inkscape:connector-curvature="0"
   style="fill:#1900b2;stroke:none" />
         <path
   d="m 10088,14635 v 0 l 5,-38 -5,-36 -8,-35 -10,-31 -18,-28 -20,-20 -25,-18 -31,-7 v 20 l 20,8 21,12 20,21 13,23 10,25 8,30 v 36 38 0 z"
   id="path364"
   inkscape:connector-curvature="0"
   style="fill:#aa84d1;stroke:none" />
         <path
   d="m 9920,14806 v 0 h 26 l 30,-6 25,-12 26,-23 23,-28 18,-28 12,-36 8,-38 h -20 l -8,33 -13,31 -18,28 -17,23 -21,17 -20,13 -25,5 h -26 v 0 z"
   id="path366"
   inkscape:connector-curvature="0"
   style="fill:#aa84d1;stroke:none" />
         <path
   d="m 9806,14595 v 0 l -5,35 5,36 7,35 10,33 21,28 20,18 26,18 30,8 v -21 l -20,-7 -21,-13 -20,-18 -15,-23 -10,-28 -8,-30 v -36 -35 0 z"
   id="path368"
   inkscape:connector-curvature="0"
   style="fill:#aa84d1;stroke:none" />
         <path
   d="m 9976,14422 v 0 h -28 l -28,7 -28,13 -25,20 -23,28 -18,31 -13,35 -7,39 h 20 l 8,-34 12,-30 18,-31 18,-22 20,-16 23,-12 23,-8 h 28 v 0 z"
   id="path370"
   inkscape:connector-curvature="0"
   style="fill:#aa84d1;stroke:none" />
         <path
   d="m 10063,15899 h 30 l 31,7 28,18 28,23 25,28 20,33 18,35 10,39 3,38 -5,35 -10,33 -18,28 -21,23 -25,20 -28,16 -28,7 h -20 l -26,-7 -25,-13 -23,-20 -23,-23 -20,-31 -18,-33 -10,-38 -3,-41 v -35 l 8,-36 13,-33 17,-25 21,-23 23,-15 z"
   id="path372"
   inkscape:connector-curvature="0"
   style="fill:#1900b2;stroke:none" />
         <path
   d="m 10263,16082 v 0 l -10,-41 -18,-38 -22,-33 -26,-31 -30,-25 -31,-18 -33,-8 h -30 v 21 h 30 l 28,7 25,18 26,20 25,26 18,33 18,33 10,36 v 0 z"
   id="path374"
   inkscape:connector-curvature="0"
   style="fill:#aa84d1;stroke:none" />
         <path
   d="m 10121,16293 v 0 l 31,-8 30,-15 28,-23 20,-26 21,-28 10,-35 8,-38 -6,-38 h -20 v 38 l -2,33 -11,30 -15,28 -20,21 -23,17 -26,16 -25,7 v 0 z"
   id="path376"
   inkscape:connector-curvature="0"
   style="fill:#aa84d1;stroke:none" />
         <path
   d="m 9946,16117 v 0 l 10,41 18,35 22,33 23,23 26,23 28,13 28,8 h 20 v -21 h -20 l -23,-7 -23,-13 -20,-18 -23,-23 -18,-28 -18,-30 -10,-36 v 0 z"
   id="path378"
   inkscape:connector-curvature="0"
   style="fill:#aa84d1;stroke:none" />
         <path
   d="m 10063,15888 v 0 l -34,11 -25,17 -20,23 -21,28 -12,36 -8,38 -3,35 6,41 h 20 v -41 l -3,-35 8,-33 13,-31 15,-23 20,-22 21,-13 23,-10 v 0 z"
   id="path380"
   inkscape:connector-curvature="0"
   style="fill:#aa84d1;stroke:none" />
         <path
   d="m 10187,15726 28,43 5,53 -15,61 -38,56 -26,26 -28,17 -28,16 -28,7 -28,3 -25,-3 -25,-7 -21,-16 -28,-43 -5,-53 15,-59 39,-56 25,-25 25,-18 28,-15 31,-8 25,-5 28,3 23,7 z"
   id="path382"
   inkscape:connector-curvature="0"
   style="fill:#1900b2;stroke:none" />
         <path
   d="m 10174,15947 v 0 l 41,-59 15,-66 -5,-56 -30,-48 -15,15 25,38 5,51 -15,56 -36,54 v 0 z"
   id="path384"
   inkscape:connector-curvature="0"
   style="fill:#aa84d1;stroke:none" />
         <path
   d="m 9951,15990 v 0 l 23,18 30,7 25,6 28,-6 31,-7 30,-15 31,-21 25,-25 -15,-15 -25,25 -26,15 -25,16 -26,7 h -28 -25 l -20,-7 -18,-13 v 0 z"
   id="path386"
   inkscape:connector-curvature="0"
   style="fill:#aa84d1;stroke:none" />
         <path
   d="m 9971,15764 v 0 l -41,58 -15,64 5,56 31,48 15,-15 -26,-38 -5,-51 16,-54 35,-53 v 0 z"
   id="path388"
   inkscape:connector-curvature="0"
   style="fill:#aa84d1;stroke:none" />
         <path
   d="m 10195,15718 v 0 l -26,-18 -28,-7 -28,-5 -28,7 -30,8 -31,15 -28,20 -25,26 15,15 26,-25 23,-16 25,-15 31,-7 22,-3 h 28 l 18,8 21,12 v 0 z"
   id="path390"
   inkscape:connector-curvature="0"
   style="fill:#aa84d1;stroke:none" />
         <path
   d="m 10360,14434 26,5 25,11 23,17 20,23 18,28 13,33 10,36 2,41 v 38 l -7,38 -10,33 -16,30 -20,23 -20,21 -26,10 -25,5 -28,-3 -26,-10 -22,-18 -21,-23 -18,-27 -12,-34 -11,-35 -2,-41 2,-38 6,-38 12,-33 16,-31 17,-25 23,-18 23,-13 z"
   id="path392"
   inkscape:connector-curvature="0"
   style="fill:#1900b2;stroke:none" />
         <path
   d="m 10508,14628 v 0 l -3,-41 -10,-38 -13,-36 -20,-28 -20,-25 -26,-21 -28,-10 -28,-7 v 25 l 23,3 23,10 20,15 21,20 15,28 13,31 10,33 2,41 v 0 z"
   id="path394"
   inkscape:connector-curvature="0"
   style="fill:#aa84d1;stroke:none" />
         <path
   d="m 10373,14836 v 3 l 28,-8 28,-10 23,-23 23,-26 15,-33 10,-33 8,-40 v -38 h -21 v 38 l -7,35 -11,33 -15,28 -18,21 -17,17 -23,11 -23,2 v 3 z"
   id="path396"
   inkscape:connector-curvature="0"
   style="fill:#aa84d1;stroke:none" />
         <path
   d="m 10223,14635 v 0 l 2,41 10,38 13,36 21,28 20,25 25,20 28,10 31,3 v -20 l -26,-3 -22,-10 -21,-15 -20,-21 -15,-28 -13,-30 -10,-33 -3,-41 v 0 z"
   id="path398"
   inkscape:connector-curvature="0"
   style="fill:#aa84d1;stroke:none" />
         <path
   d="m 10360,14422 v 2 l -30,5 -26,13 -25,20 -21,28 -15,31 -13,35 -5,41 -2,38 h 20 l 3,-38 5,-36 12,-30 16,-31 15,-22 20,-16 21,-12 25,-5 v 2 z"
   id="path400"
   inkscape:connector-curvature="0"
   style="fill:#aa84d1;stroke:none" />
         <path
   d="m 9826,14561 36,39 12,53 -7,64 -31,63 -20,28 -26,25 -25,21 -28,13 -28,7 -25,3 -28,-5 -23,-11 -33,-38 -13,-53 8,-64 28,-63 22,-28 23,-26 26,-20 28,-13 28,-7 28,-3 25,5 z"
   id="path402"
   inkscape:connector-curvature="0"
   style="fill:#1900b2;stroke:none" />
         <path
   d="m 9846,14785 v 0 l 31,-66 7,-66 -12,-58 -41,-44 -10,21 30,33 13,48 -7,61 -31,61 v 0 z"
   id="path404"
   inkscape:connector-curvature="0"
   style="fill:#aa84d1;stroke:none" />
         <path
   d="m 9628,14872 v 0 l 25,10 31,7 25,-5 31,-7 30,-13 28,-23 25,-25 23,-31 -20,-10 -18,25 -25,26 -23,18 -26,12 -25,8 h -25 l -26,-3 -20,-10 v 0 z"
   id="path406"
   inkscape:connector-curvature="0"
   style="fill:#aa84d1;stroke:none" />
         <path
   d="m 9612,14638 v 0 l -28,66 -7,66 12,58 39,44 10,-21 -28,-33 -13,-48 8,-61 28,-61 v 0 z"
   id="path408"
   inkscape:connector-curvature="0"
   style="fill:#aa84d1;stroke:none" />
         <path
   d="m 9831,14551 v 0 l -25,-10 -28,-7 -28,5 -31,7 -30,13 -28,23 -23,25 -26,31 21,10 20,-26 23,-25 23,-18 25,-12 26,-8 h 28 l 23,2 20,11 v 0 z"
   id="path410"
   inkscape:connector-curvature="0"
   style="fill:#aa84d1;stroke:none" />
         <path
   d="m 10515,14643 31,-8 30,-2 31,7 28,10 30,21 26,23 23,30 17,33 13,36 5,38 v 33 l -7,33 -13,31 -15,27 -23,23 -28,16 -31,7 -30,3 -31,-8 -30,-10 -28,-20 -26,-23 -23,-31 -17,-33 -13,-35 -5,-38 v -36 l 7,-33 13,-31 15,-25 23,-23 z"
   id="path412"
   inkscape:connector-curvature="0"
   style="fill:#1900b2;stroke:none" />
         <path
   d="m 10742,14755 v -3 l -18,-33 -26,-33 -25,-23 -33,-23 -31,-10 -33,-8 -30,3 -33,8 5,20 28,-8 30,-2 28,7 26,11 28,17 25,23 20,28 18,33 v -2 z"
   id="path414"
   inkscape:connector-curvature="0"
   style="fill:#aa84d1;stroke:none" />
         <path
   d="m 10665,15004 h 3 l 28,-18 25,-25 18,-28 13,-33 7,-36 v -33 l -5,-41 -12,-35 -21,5 13,35 5,36 v 33 l -8,30 -12,28 -13,28 -20,21 -28,12 h 2 z"
   id="path416"
   inkscape:connector-curvature="0"
   style="fill:#aa84d1;stroke:none" />
         <path
   d="m 10436,14882 v 0 l 18,35 26,33 25,23 31,23 33,10 33,8 30,-3 33,-7 -5,-21 -28,8 -30,3 -28,-8 -28,-10 -26,-18 -25,-23 -20,-28 -18,-30 v 0 z"
   id="path418"
   inkscape:connector-curvature="0"
   style="fill:#aa84d1;stroke:none" />
         <path
   d="m 10513,14633 v 0 l -31,17 -25,23 -18,28 -13,33 -7,36 v 36 l 5,40 12,36 21,-5 -13,-36 -5,-35 v -36 l 8,-31 12,-28 13,-22 20,-23 26,-13 v 0 z"
   id="path420"
   inkscape:connector-curvature="0"
   style="fill:#aa84d1;stroke:none" />
         <path
   d="m 10467,14780 36,38 15,56 -5,66 -28,74 -21,33 -25,28 -25,23 -26,18 -28,12 -28,5 -25,-2 -26,-8 -35,-35 -16,-56 3,-66 28,-72 20,-33 26,-30 25,-23 28,-20 28,-10 28,-8 26,2 z"
   id="path422"
   inkscape:connector-curvature="0"
   style="fill:#1900b2;stroke:none" />
         <path
   d="m 10495,15019 v 0 l 28,-76 5,-69 -15,-61 -41,-43 -10,20 30,33 16,51 -5,64 -28,71 v 0 z"
   id="path424"
   inkscape:connector-curvature="0"
   style="fill:#aa84d1;stroke:none" />
         <path
   d="m 10276,15133 v 0 l 31,8 25,5 31,-7 30,-13 28,-21 26,-22 25,-31 23,-33 -20,-10 -18,33 -26,25 -25,23 -23,15 -25,13 -26,3 h -25 l -21,-8 v 0 z"
   id="path426"
   inkscape:connector-curvature="0"
   style="fill:#aa84d1;stroke:none" />
         <path
   d="m 10251,14889 v 0 l -28,74 -3,69 15,61 41,40 10,-20 -30,-30 -15,-51 2,-64 28,-68 v 0 z"
   id="path428"
   inkscape:connector-curvature="0"
   style="fill:#aa84d1;stroke:none" />
         <path
   d="m 10472,14770 v 0 l -30,-8 -26,-2 -30,7 -31,11 -30,22 -26,23 -28,33 -20,33 20,11 20,-33 23,-28 26,-23 25,-18 26,-10 25,-8 26,3 20,7 v 0 z"
   id="path430"
   inkscape:connector-curvature="0"
   style="fill:#aa84d1;stroke:none" />
         <path
   d="m 10180,14480 33,41 10,53 -10,61 -31,61 -23,26 -25,23 -26,17 -28,10 -28,8 h -25 l -26,-5 -22,-13 -33,-40 -11,-51 11,-61 30,-61 23,-28 23,-23 25,-15 28,-13 28,-8 h 28 l 26,5 z"
   id="path432"
   inkscape:connector-curvature="0"
   style="fill:#1900b2;stroke:none" />
         <path
   d="m 10192,14701 v 0 l 31,-63 12,-64 -12,-58 -38,-46 -11,20 28,36 8,48 -8,59 -30,58 v 0 z"
   id="path434"
   inkscape:connector-curvature="0"
   style="fill:#aa84d1;stroke:none" />
         <path
   d="m 9974,14772 v 0 l 25,13 28,5 h 25 l 31,-7 30,-11 28,-20 26,-23 25,-28 -20,-10 -20,23 -26,23 -23,15 -25,10 -26,8 h -25 l -23,-5 -20,-13 v 0 z"
   id="path436"
   inkscape:connector-curvature="0"
   style="fill:#aa84d1;stroke:none" />
         <path
   d="m 9966,14544 v 0 l -31,63 -12,64 12,56 39,45 10,-20 -28,-35 -8,-46 8,-59 30,-58 v 0 z"
   id="path438"
   inkscape:connector-curvature="0"
   style="fill:#aa84d1;stroke:none" />
         <path
   d="m 10185,14470 v 0 l -26,-13 -28,-5 h -28 l -30,8 -31,13 -28,17 -23,23 -25,31 20,10 21,-26 22,-22 23,-13 26,-13 25,-7 h 28 l 23,5 20,12 v 0 z"
   id="path440"
   inkscape:connector-curvature="0"
   style="fill:#aa84d1;stroke:none" />
         <path
   d="m 10604,15090 -23,13 -17,18 -13,23 -10,28 -5,30 -3,33 5,36 10,35 16,36 17,28 23,28 23,20 26,15 25,8 25,3 26,-6 23,-12 18,-18 15,-23 10,-28 5,-30 v -33 l -5,-36 -10,-36 -15,-35 -18,-28 -21,-28 -25,-20 -25,-16 -26,-7 -25,-3 z"
   id="path442"
   inkscape:connector-curvature="0"
   style="fill:#1900b2;stroke:none" />
         <path
   d="m 10559,15304 v 0 l -11,-36 -2,-33 v -33 l 5,-28 10,-25 10,-23 15,-15 21,-11 -5,-20 -26,15 -20,21 -15,23 -10,30 -6,33 -5,33 8,38 10,36 v 0 z"
   id="path444"
   inkscape:connector-curvature="0"
   style="fill:#aa84d1;stroke:none" />
         <path
   d="m 10726,15428 v 0 l -23,3 h -25 l -20,-8 -26,-15 -20,-18 -20,-25 -18,-28 -15,-33 -21,5 15,38 18,28 26,30 25,23 26,16 30,7 25,5 28,-7 v 0 z"
   id="path446"
   inkscape:connector-curvature="0"
   style="fill:#aa84d1;stroke:none" />
         <path
   d="m 10775,15225 v 0 l 10,36 5,33 v 33 l -5,28 -10,25 -13,20 -15,18 -21,10 5,21 26,-16 20,-17 18,-26 10,-30 5,-33 v -33 l -5,-39 -10,-35 v 0 z"
   id="path448"
   inkscape:connector-curvature="0"
   style="fill:#aa84d1;stroke:none" />
         <path
   d="m 10607,15100 v 0 l 23,-2 h 25 l 21,7 25,16 23,18 18,25 17,28 16,33 20,-5 -15,-38 -18,-28 -23,-31 -28,-23 -25,-15 -31,-7 -25,-6 -28,8 v 0 z"
   id="path450"
   inkscape:connector-curvature="0"
   style="fill:#aa84d1;stroke:none" />
         <path
   d="m 10274,15189 28,3 25,10 25,15 21,23 18,28 15,31 8,33 5,38 -3,38 -5,33 -13,33 -15,28 -20,23 -23,18 -26,10 -28,5 -28,-3 -25,-10 -25,-15 -21,-23 -18,-28 -12,-30 -11,-33 -5,-39 3,-38 5,-33 13,-33 15,-28 20,-23 23,-17 26,-11 z"
   id="path452"
   inkscape:connector-curvature="0"
   style="fill:#1900b2;stroke:none" />
         <path
   d="m 10429,15370 v 0 l -5,-38 -8,-36 -15,-33 -21,-28 -20,-25 -28,-18 -28,-10 -30,-3 v 21 l 25,2 23,10 23,13 20,20 15,28 16,28 7,31 5,38 v 0 z"
   id="path454"
   inkscape:connector-curvature="0"
   style="fill:#aa84d1;stroke:none" />
         <path
   d="m 10286,15568 v 0 l 31,-5 28,-10 25,-20 23,-26 15,-28 13,-35 5,-36 3,-38 h -21 l -2,38 -5,30 -13,31 -15,28 -18,20 -20,16 -23,10 -26,5 v 0 z"
   id="path456"
   inkscape:connector-curvature="0"
   style="fill:#aa84d1;stroke:none" />
         <path
   d="m 10131,15377 v 0 l 5,41 10,33 13,33 21,28 20,26 28,17 28,11 30,2 v -20 l -25,-3 -23,-10 -23,-13 -20,-20 -15,-28 -13,-28 -10,-33 -5,-36 v 0 z"
   id="path458"
   inkscape:connector-curvature="0"
   style="fill:#aa84d1;stroke:none" />
         <path
   d="m 10274,15179 v 0 l -31,5 -28,10 -25,21 -23,25 -15,28 -13,36 -5,35 -3,38 h 21 l 2,-38 5,-30 13,-31 15,-28 18,-20 20,-15 23,-10 26,-5 v 0 z"
   id="path460"
   inkscape:connector-curvature="0"
   style="fill:#aa84d1;stroke:none" />
        </g>
       </g>
      </g>
     </g>
    </g>
   </g>
  </g>
 </g>
</svg>