<?xml version="1.0" encoding="UTF-8" standalone="no"?>
<svg
   xmlns:ooo="http://xml.openoffice.org/svg/export"
   xmlns:dc="http://purl.org/dc/elements/1.1/"
   xmlns:cc="http://creativecommons.org/ns#"
   xmlns:rdf="http://www.w3.org/1999/02/22-rdf-syntax-ns#"
   xmlns:svg="http://www.w3.org/2000/svg"
   xmlns="http://www.w3.org/2000/svg"
   xmlns:sodipodi="http://sodipodi.sourceforge.net/DTD/sodipodi-0.dtd"
   xmlns:inkscape="http://www.inkscape.org/namespaces/inkscape"
   version="1.2"
   width="26.700001mm"
   height="26.059999mm"
   viewBox="0 0 2670.0001 2605.9999"
   preserveAspectRatio="xMidYMid"
   xml:space="preserve"
   id="svg588"
   sodipodi:docname="hatjoker.svg"
   style="fill-rule:evenodd;stroke-width:28.22200012;stroke-linejoin:round"
   inkscape:version="0.92.5 (2060ec1f9f, 2020-04-08)"><metadata
   id="metadata592"><rdf:RDF><cc:Work
       rdf:about=""><dc:format>image/svg+xml</dc:format><dc:type
         rdf:resource="http://purl.org/dc/dcmitype/StillImage" /></cc:Work></rdf:RDF></metadata><sodipodi:namedview
   pagecolor="#ffffff"
   bordercolor="#666666"
   borderopacity="1"
   objecttolerance="10"
   gridtolerance="10"
   guidetolerance="10"
   inkscape:pageopacity="0"
   inkscape:pageshadow="2"
   inkscape:window-width="664"
   inkscape:window-height="487"
   id="namedview590"
   showgrid="false"
   inkscape:zoom="0.2102413"
   inkscape:cx="50.456694"
   inkscape:cy="49.247242"
   inkscape:window-x="0"
   inkscape:window-y="0"
   inkscape:window-maximized="0"
   inkscape:current-layer="svg588" />
 <defs
   class="ClipPathGroup"
   id="defs8">
  <clipPath
   id="presentation_clip_path"
   clipPathUnits="userSpaceOnUse">
   <rect
   x="0"
   y="0"
   width="21000"
   height="29700"
   id="rect2" />
  </clipPath>
  <clipPath
   id="presentation_clip_path_shrink"
   clipPathUnits="userSpaceOnUse">
   <rect
   x="21"
   y="29"
   width="20958"
   height="29641"
   id="rect5" />
  </clipPath>
 </defs>
 <defs
   class="TextShapeIndex"
   id="defs12">
  <g
   ooo:slide="id1"
   ooo:id-list="id3"
   id="g10" />
 </defs>
 <defs
   class="EmbeddedBulletChars"
   id="defs44">
  <g
   id="bullet-char-template-57356"
   transform="matrix(4.8828125e-4,0,0,-4.8828125e-4,0,0)">
   <path
   d="M 580,1141 1163,571 580,0 -4,571 Z"
   id="path14"
   inkscape:connector-curvature="0" />
  </g>
  <g
   id="bullet-char-template-57354"
   transform="matrix(4.8828125e-4,0,0,-4.8828125e-4,0,0)">
   <path
   d="M 8,1128 H 1137 V 0 H 8 Z"
   id="path17"
   inkscape:connector-curvature="0" />
  </g>
  <g
   id="bullet-char-template-10146"
   transform="matrix(4.8828125e-4,0,0,-4.8828125e-4,0,0)">
   <path
   d="M 174,0 602,739 174,1481 1456,739 Z M 1358,739 309,1346 659,739 Z"
   id="path20"
   inkscape:connector-curvature="0" />
  </g>
  <g
   id="bullet-char-template-10132"
   transform="matrix(4.8828125e-4,0,0,-4.8828125e-4,0,0)">
   <path
   d="M 2015,739 1276,0 H 717 l 543,543 H 174 v 393 h 1086 l -543,545 h 557 z"
   id="path23"
   inkscape:connector-curvature="0" />
  </g>
  <g
   id="bullet-char-template-10007"
   transform="matrix(4.8828125e-4,0,0,-4.8828125e-4,0,0)">
   <path
   d="m 0,-2 c -7,16 -16,29 -25,39 l 381,530 c -94,256 -141,385 -141,387 0,25 13,38 40,38 9,0 21,-2 34,-5 21,4 42,12 65,25 l 27,-13 111,-251 280,301 64,-25 24,25 c 21,-10 41,-24 62,-43 C 886,937 835,863 770,784 769,783 710,716 594,584 L 774,223 c 0,-27 -21,-55 -63,-84 l 16,-20 C 717,90 699,76 672,76 641,76 570,178 457,381 L 164,-76 c -22,-34 -53,-51 -92,-51 -42,0 -63,17 -64,51 -7,9 -10,24 -10,44 0,9 1,19 2,30 z"
   id="path26"
   inkscape:connector-curvature="0" />
  </g>
  <g
   id="bullet-char-template-10004"
   transform="matrix(4.8828125e-4,0,0,-4.8828125e-4,0,0)">
   <path
   d="M 285,-33 C 182,-33 111,30 74,156 52,228 41,333 41,471 c 0,78 14,145 41,201 34,71 87,106 158,106 53,0 88,-31 106,-94 l 23,-176 c 8,-64 28,-97 59,-98 l 735,706 c 11,11 33,17 66,17 42,0 63,-15 63,-46 V 965 c 0,-36 -10,-64 -30,-84 L 442,47 C 390,-6 338,-33 285,-33 Z"
   id="path29"
   inkscape:connector-curvature="0" />
  </g>
  <g
   id="bullet-char-template-9679"
   transform="matrix(4.8828125e-4,0,0,-4.8828125e-4,0,0)">
   <path
   d="M 813,0 C 632,0 489,54 383,161 276,268 223,411 223,592 c 0,181 53,324 160,431 106,107 249,161 430,161 179,0 323,-54 432,-161 108,-107 162,-251 162,-431 0,-180 -54,-324 -162,-431 C 1136,54 992,0 813,0 Z"
   id="path32"
   inkscape:connector-curvature="0" />
  </g>
  <g
   id="bullet-char-template-8226"
   transform="matrix(4.8828125e-4,0,0,-4.8828125e-4,0,0)">
   <path
   d="m 346,457 c -73,0 -137,26 -191,78 -54,51 -81,114 -81,188 0,73 27,136 81,188 54,52 118,78 191,78 73,0 134,-26 185,-79 51,-51 77,-114 77,-187 0,-75 -25,-137 -76,-188 -50,-52 -112,-78 -186,-78 z"
   id="path35"
   inkscape:connector-curvature="0" />
  </g>
  <g
   id="bullet-char-template-8211"
   transform="matrix(4.8828125e-4,0,0,-4.8828125e-4,0,0)">
   <path
   d="M -4,459 H 1135 V 606 H -4 Z"
   id="path38"
   inkscape:connector-curvature="0" />
  </g>
  <g
   id="bullet-char-template-61548"
   transform="matrix(4.8828125e-4,0,0,-4.8828125e-4,0,0)">
   <path
   d="m 173,740 c 0,163 58,303 173,419 116,115 255,173 419,173 163,0 302,-58 418,-173 116,-116 174,-256 174,-419 0,-163 -58,-303 -174,-418 C 1067,206 928,148 765,148 601,148 462,206 346,322 231,437 173,577 173,740 Z"
   id="path41"
   inkscape:connector-curvature="0" />
  </g>
 </defs>
 <g
   id="g49"
   transform="translate(-9165,-13547)">
  <g
   id="id2"
   class="Master_Slide">
   <g
   id="bg-id2"
   class="Background" />
   <g
   id="bo-id2"
   class="BackgroundObjects" />
  </g>
 </g>
 <g
   class="SlideGroup"
   id="g586"
   transform="translate(-9165,-13547)">
  <g
   id="g584">
   <g
   id="container-id1">
    <g
   id="id1"
   class="Slide"
   clip-path="url(#presentation_clip_path)">
     <g
   class="Page"
   id="g580">
      <g
   class="Graphic"
   id="g578">
       <g
   id="id3">
        <rect
   class="BoundingBox"
   x="9165"
   y="13547"
   width="2670"
   height="2606"
   id="rect51"
   style="fill:none;stroke:none" />
        <path
   d="m 11774,16016 -13,-5 -12,-5 h -16 l -12,2 -13,3 -13,7 -10,10 -8,11 -2,7 -3,8 -2,7 v 8 l -28,-23 -13,-23 -3,-25 8,-26 13,-25 18,-20 15,-16 13,-12 20,-18 23,-18 23,-23 20,-30 13,-41 7,-53 v -69 l -12,-89 -16,-51 -22,-46 -31,-38 -38,-33 -43,-25 -46,-23 -51,-15 -51,-13 -53,-5 -51,-5 h -51 l -46,2 -43,5 -38,8 -31,10 -22,10 15,-20 18,-33 20,-41 18,-50 12,-62 8,-68 v -82 l -13,-89 -10,-45 -13,-46 -17,-43 -18,-38 -20,-39 -26,-33 -25,-33 -28,-25 -33,-23 -33,-20 -36,-16 -38,-10 -41,-5 h -43 l -43,8 -49,10 -78,33 -54,46 -28,51 -13,56 6,53 17,48 28,41 33,25 -2,3 v 0 l -3,2 -2,3 -13,23 -3,25 6,26 17,23 13,7 13,5 13,5 h 12 l 13,-2 13,-5 12,-8 11,-10 12,-23 3,-25 -8,-26 -15,-23 -10,-7 -10,-5 -13,-3 -10,-2 h -13 l -13,5 -10,2 -10,8 -13,-28 -5,-28 5,-25 10,-23 18,-18 21,-18 25,-13 25,-10 28,-7 h 33 l 31,5 28,12 28,23 23,33 15,46 8,58 v 41 l -8,33 -13,31 -15,25 -20,20 -26,21 -28,15 -30,13 -31,15 -35,13 -36,12 -36,13 -33,15 -35,18 -33,21 -33,25 -28,-41 -36,-33 -43,-28 -46,-23 -56,-15 -56,-7 -63,-3 -64,5 -13,-25 -10,-28 -13,-23 -10,-26 -10,-22 -10,-23 -10,-21 -8,-20 56,8 41,-11 33,-20 23,-30 18,-36 17,-38 21,-38 23,-36 25,-20 20,-10 23,2 21,10 15,16 18,22 12,26 11,28 -6,2 -2,3 -5,2 -5,3 -21,25 -7,28 5,28 13,28 12,10 13,11 13,5 15,2 h 15 l 15,-2 16,-5 12,-11 21,-25 7,-28 -5,-28 -12,-28 -16,-13 -15,-10 -20,-5 h -18 l 18,-84 -13,-63 -33,-43 -46,-28 -53,-13 h -54 l -43,13 -28,20 -10,13 -10,12 -10,10 -13,8 -15,8 -16,7 -15,5 -15,6 -8,-6 -7,-2 h -8 l -8,5 -2,3 -3,2 -5,5 -2,3 h -16 -15 -18 l -15,-3 -7,-5 -11,-5 -12,-5 -13,-3 -15,-2 -16,-3 -15,-2 -15,-3 -3,-5 v -2 l -2,-6 -3,-2 18,8 18,2 h 20 l 21,-5 20,-8 20,-10 21,-7 17,-11 -2,-10 -5,-12 -3,-13 -5,-13 h 15 l 18,-2 15,-6 16,-7 25,-18 15,-18 8,-20 v -20 l -8,-21 -10,-15 -13,-15 -15,-10 8,-18 2,-21 v -20 l -5,-23 10,-2 h 11 l 12,2 13,3 48,5 36,-10 31,-23 17,-31 13,-35 5,-38 v -39 l -8,-33 16,-7 10,-10 10,-11 8,-15 5,-30 -8,-31 -18,-23 -25,-18 -15,-5 h -16 l -12,3 -16,5 -12,8 -10,10 -11,10 -7,15 -5,31 5,28 18,23 25,17 10,3 10,2 h 8 10 l -13,28 -15,21 -20,12 -23,3 -23,-5 -23,-13 -20,-20 -18,-28 -20,-31 -26,-17 -28,-8 h -30 l -28,5 -26,13 -23,15 -15,18 -10,-76 -2,-77 2,-71 10,-56 10,-25 18,-21 26,-12 25,-5 h 31 l 30,5 31,10 28,13 -8,5 -5,5 -8,5 -5,7 -13,28 v 31 l 13,28 20,23 13,7 15,5 h 16 15 l 15,-5 13,-7 13,-8 10,-13 13,-28 v -30 l -13,-28 -21,-23 -15,-8 -18,-5 h -17 l -18,3 -21,-43 -25,-36 -33,-23 -36,-12 -43,-3 -46,8 -50,20 -56,30 -54,44 -43,51 -31,58 -20,61 -13,59 -7,58 2,51 5,41 -22,-18 -28,-16 -26,-10 -30,-10 h -31 l -33,3 -33,10 -33,20 -59,46 -40,46 -26,43 -12,41 v 40 l 10,33 20,33 26,26 v 2 0 h -3 v 3 l -13,28 v 28 l 10,28 21,23 13,7 15,5 15,3 15,-3 16,-2 12,-8 13,-7 10,-13 13,-28 v -31 l -10,-28 -23,-22 -10,-8 -11,-3 -12,-2 -10,-3 -13,3 -10,2 -13,5 -10,6 -5,-31 5,-25 7,-23 18,-21 18,-17 23,-13 25,-10 26,-5 h 25 l 26,5 23,10 22,15 23,18 21,20 17,23 18,26 -40,22 -18,34 -3,38 10,40 11,23 12,18 16,13 17,7 16,5 h 17 l 18,-5 18,-5 5,21 8,20 7,23 10,23 -10,7 -12,11 -16,7 -17,10 -23,8 -26,5 -28,5 -35,3 -92,12 -71,26 -51,35 -30,41 -16,43 3,43 13,39 28,33 -8,5 -8,7 -7,5 -5,8 -13,28 v 28 l 10,28 23,20 13,8 15,5 15,3 15,-3 13,-2 15,-8 11,-8 10,-12 12,-28 3,-31 -13,-25 -20,-23 -15,-10 -18,-3 h -18 l -18,3 -2,-39 15,-30 25,-23 36,-15 38,-10 h 38 l 31,2 23,10 17,13 18,10 21,10 20,8 20,5 h 26 25 l 28,-2 -2,38 2,48 10,48 13,44 3,17 -3,23 -10,23 -15,23 -23,18 -26,10 -28,3 -33,-11 8,-17 2,-21 -2,-20 -8,-20 -7,-13 -13,-10 -13,-8 -13,-8 -15,-2 h -15 l -15,5 -13,5 -23,20 -15,26 -3,30 10,31 8,13 13,10 13,7 12,8 15,2 h 16 l 15,-5 13,-5 7,-5 5,-2 6,-5 5,-5 10,10 12,10 16,10 12,8 16,5 15,5 18,5 15,2 -51,61 -38,67 -33,71 -20,71 -11,74 -2,71 10,68 20,64 36,61 43,41 46,18 h 46 l 43,-16 41,-25 30,-31 21,-38 5,3 h 7 5 5 l 28,-8 21,-15 12,-23 6,-28 -3,-13 -5,-15 -8,-10 -7,-10 -13,-8 -13,-5 -12,-5 h -16 l -25,8 -20,17 -16,23 -2,28 5,18 10,18 13,13 17,10 -25,25 -25,20 -26,16 -25,5 -28,-5 -26,-16 -28,-30 -25,-46 -13,-53 3,-61 18,-64 28,-63 43,-59 53,-46 64,-28 74,-7 38,5 33,8 28,7 28,13 23,15 20,15 15,18 15,21 8,17 8,18 7,18 5,18 5,28 v 28 l -2,25 -5,25 -26,16 -15,18 -10,20 -5,20 v 18 l 8,18 7,15 13,10 5,-7 8,-5 10,-8 12,-8 16,-5 18,-5 20,-5 20,-5 13,33 13,33 12,28 11,25 10,23 7,21 5,15 5,10 18,23 23,13 h 26 l 25,-5 20,-16 16,-20 5,-23 -5,-25 -8,-21 -15,-33 -21,-43 -22,-53 h 35 l 38,2 38,5 39,8 38,8 38,12 38,16 36,17 38,21 33,23 33,28 30,30 28,36 26,38 23,43 20,48 h 15 l 15,-5 18,-13 13,-17 13,-23 7,-26 3,-25 v -28 l 41,3 38,-18 38,-31 38,-43 38,-46 43,-46 46,-40 51,-31 51,-12 41,5 33,20 25,33 15,41 5,43 -2,48 -15,43 -11,39 v 33 l 11,33 17,25 26,23 25,15 31,10 h 28 l 5,13 7,13 8,10 13,10 12,5 13,3 h 13 l 13,-3 12,-2 13,-8 10,-10 8,-10 10,-26 -3,-25 -10,-25 z"
   id="path53"
   inkscape:connector-curvature="0"
   style="fill:#bac1d8;stroke:none" />
        <path
   d="m 9946,15131 v -5 l 2,-5 3,-3 v -5 l 12,-33 13,-28 15,-23 13,-20 8,20 10,23 8,23 10,25 -13,3 -10,3 -13,5 -10,2 -13,5 -12,3 -11,5 z"
   id="path55"
   inkscape:connector-curvature="0"
   style="fill:#bac1d8;stroke:none" />
        <path
   d="m 10813,15655 -21,-16 -20,-12 -23,-13 -23,-10 -25,-13 -26,-8 -25,-10 -25,-7 -28,-5 -28,-5 -31,-6 -28,-2 h -33 -30 l -33,2 -34,6 -5,-31 -2,-41 v -48 l 5,-53 13,-56 17,-54 31,-51 41,-43 33,-25 33,-21 35,-17 33,-16 36,-12 36,-13 35,-13 31,-15 30,-13 28,-15 26,-20 20,-21 15,-25 13,-31 8,-33 v -40 l -8,-59 -15,-46 -23,-33 -28,-22 -28,-13 -31,-5 h -33 l -28,7 -28,11 -23,12 -22,18 -16,20 -10,26 -2,25 5,28 18,31 -36,-23 -31,-38 -20,-49 -8,-56 11,-55 28,-56 53,-46 81,-36 49,-10 43,-8 h 43 l 41,6 38,10 36,15 33,18 33,23 28,28 25,30 25,36 21,35 18,41 17,43 13,43 10,49 13,89 v 81 l -8,69 -12,61 -18,51 -20,40 -18,33 -16,21 -17,15 -28,25 -38,38 -41,44 -41,53 -43,59 -38,63 z"
   id="path57"
   inkscape:connector-curvature="0"
   style="fill:#bf003f;stroke:none" />
        <path
   d="m 10370,15558 10,8 34,-5 33,-3 h 30 33 l 28,3 31,5 28,5 25,5 25,7 26,11 25,7 26,13 20,10 23,10 20,13 21,15 10,-15 -20,-15 -21,-13 -23,-15 -25,-10 -26,-13 -25,-8 -25,-10 -26,-7 -30,-6 -28,-5 -31,-5 -28,-2 h -33 -30 l -33,2 -34,5 11,8 -11,-8 -7,3 -3,8 3,7 7,3 z"
   id="path59"
   inkscape:connector-curvature="0"
   style="fill:#000000;stroke:none" />
        <path
   d="m 10475,15172 v 0 l -44,45 -33,54 -18,53 -12,59 -5,53 v 48 l 2,41 5,33 21,-5 -5,-28 -3,-41 v -48 l 5,-53 13,-54 18,-53 28,-48 38,-41 v 0 z"
   id="path61"
   inkscape:connector-curvature="0"
   style="fill:#000000;stroke:none" />
        <path
   d="m 10881,14849 v 0 40 l -7,31 -13,28 -13,25 -17,18 -26,20 -25,13 -31,13 -30,15 -36,13 -36,13 -35,12 -33,16 -38,20 -33,20 -33,26 10,15 33,-26 33,-20 33,-15 33,-15 36,-13 35,-13 36,-13 30,-15 31,-13 30,-17 26,-21 23,-23 17,-25 13,-33 8,-36 v -40 0 z"
   id="path63"
   inkscape:connector-curvature="0"
   style="fill:#000000;stroke:none" />
        <path
   d="m 10701,14689 v 0 l 25,-8 h 33 l 28,5 26,10 25,23 21,28 15,43 7,59 h 21 l -8,-59 -15,-48 -26,-38 -30,-23 -31,-15 -33,-5 h -33 l -30,7 v 0 z"
   id="path65"
   inkscape:connector-curvature="0"
   style="fill:#000000;stroke:none" />
        <path
   d="m 10617,14859 10,-15 -15,-28 -5,-26 2,-23 8,-23 15,-17 21,-18 20,-10 28,-10 -5,-21 -28,10 -26,16 -25,17 -15,23 -13,28 -3,28 6,31 20,33 10,-15 -10,15 5,5 8,-3 2,-5 v -7 z"
   id="path67"
   inkscape:connector-curvature="0"
   style="fill:#000000;stroke:none" />
        <path
   d="m 10696,14480 v 0 l -84,38 -56,49 -31,58 -10,58 8,59 23,51 30,40 41,26 5,-20 -30,-21 -31,-35 -18,-46 -7,-54 10,-53 25,-53 51,-44 79,-33 v 0 z"
   id="path69"
   inkscape:connector-curvature="0"
   style="fill:#000000;stroke:none" />
        <path
   d="m 11181,14849 v 0 l -10,-51 -12,-43 -18,-44 -18,-43 -23,-35 -25,-36 -26,-33 -30,-28 -33,-23 -36,-20 -36,-15 -40,-11 -41,-5 h -43 l -43,8 -51,10 5,20 46,-10 43,-7 h 43 l 41,5 35,10 36,15 31,15 33,23 25,28 25,28 26,36 18,35 17,39 18,43 13,43 10,46 v 0 z"
   id="path71"
   inkscape:connector-curvature="0"
   style="fill:#000000;stroke:none" />
        <path
   d="m 11098,15301 2,-2 15,-21 18,-33 23,-43 18,-51 13,-63 7,-69 v -81 l -13,-89 h -20 l 13,89 v 81 l -8,69 -12,58 -18,51 -18,38 -18,33 -15,21 2,-3 -2,3 v 7 l 5,5 5,3 5,-5 z"
   id="path73"
   inkscape:connector-curvature="0"
   style="fill:#000000;stroke:none" />
        <path
   d="m 10808,15662 15,-5 30,-61 39,-63 43,-59 41,-53 40,-41 38,-38 26,-25 18,-16 -11,-15 -17,15 -31,26 -38,38 -41,46 -40,53 -44,58 -38,64 -35,66 15,-5 -15,5 2,8 5,5 8,-3 5,-5 z"
   id="path75"
   inkscape:connector-curvature="0"
   style="fill:#000000;stroke:none" />
        <path
   d="m 10996,15896 -5,-25 -10,-28 -18,-31 -21,-33 -25,-30 -30,-33 -36,-31 -38,-30 33,-64 38,-63 43,-59 41,-53 41,-44 38,-38 28,-25 17,-15 23,-11 31,-10 38,-7 43,-5 46,-3 h 51 l 51,5 53,5 51,13 51,15 46,23 43,26 38,33 31,38 22,45 16,51 12,89 v 69 l -7,53 -13,41 -20,31 -23,22 -23,18 -20,18 -13,13 -18,18 -18,22 -12,26 -6,28 8,28 20,25 41,23 -30,10 -31,-5 -33,-13 -28,-20 -23,-28 -15,-35 -3,-39 11,-40 15,-44 2,-48 -5,-43 -15,-41 -23,-33 -33,-20 -43,-5 -48,13 -51,30 -49,41 -40,45 -41,46 -38,43 -38,31 -38,18 z"
   id="path77"
   inkscape:connector-curvature="0"
   style="fill:#007fff;stroke:none" />
        <path
   d="m 10803,15652 5,10 38,31 33,30 30,31 26,30 20,33 15,28 11,28 5,23 h 20 l -5,-28 -10,-28 -21,-33 -20,-33 -25,-30 -31,-36 -38,-30 -38,-31 5,10 -5,-10 h -8 l -5,3 -2,7 5,5 z"
   id="path79"
   inkscape:connector-curvature="0"
   style="fill:#000000;stroke:none" />
        <path
   d="m 11087,15286 v 0 l -17,15 -31,26 -38,38 -41,46 -40,53 -44,58 -38,64 -35,66 20,5 30,-61 39,-63 43,-59 41,-53 40,-41 38,-38 26,-25 18,-16 v 0 0 l 5,-5 -3,-7 -5,-3 z"
   id="path81"
   inkscape:connector-curvature="0"
   style="fill:#000000;stroke:none" />
        <path
   d="m 11736,15512 v 0 l -15,-53 -26,-48 -30,-41 -41,-33 -43,-26 -49,-25 -50,-15 -54,-13 -53,-5 -51,-5 h -51 l -46,2 -43,6 -41,7 -30,10 -26,13 11,15 20,-7 30,-11 36,-7 43,-5 46,-3 h 51 l 51,5 53,5 48,13 51,15 44,21 43,25 35,33 31,36 20,43 15,48 v 0 z"
   id="path83"
   inkscape:connector-curvature="0"
   style="fill:#000000;stroke:none" />
        <path
   d="m 11639,15861 v 0 l 18,-18 23,-18 25,-25 23,-33 13,-44 8,-53 v -69 l -13,-89 h -21 l 13,89 v 69 l -7,53 -13,38 -18,28 -20,21 -23,18 -23,17 v 0 z"
   id="path85"
   inkscape:connector-curvature="0"
   style="fill:#000000;stroke:none" />
        <path
   d="m 11639,16044 -2,-18 -38,-20 -18,-23 -5,-23 5,-26 10,-23 18,-22 17,-16 13,-12 -15,-16 -13,13 -18,20 -17,23 -16,28 -5,31 10,33 23,28 44,25 -3,-18 3,18 7,-2 5,-5 v -8 l -7,-5 z"
   id="path87"
   inkscape:connector-curvature="0"
   style="fill:#000000;stroke:none" />
        <path
   d="m 11471,15863 v 0 l -10,43 3,41 18,38 22,31 31,20 36,15 33,5 35,-12 -10,-16 -25,8 -28,-5 -31,-10 -25,-21 -23,-25 -13,-33 -2,-36 10,-38 v 0 z"
   id="path89"
   inkscape:connector-curvature="0"
   style="fill:#000000;stroke:none" />
        <path
   d="m 11334,15655 v 0 l 46,-13 41,5 27,18 23,30 13,38 5,41 -2,48 -16,41 21,5 15,-46 3,-48 -6,-46 -17,-43 -23,-35 -38,-23 -46,-5 -51,12 v 0 z"
   id="path91"
   inkscape:connector-curvature="0"
   style="fill:#000000;stroke:none" />
        <path
   d="m 10986,15896 7,10 44,3 43,-20 40,-31 39,-46 40,-45 41,-44 46,-40 48,-28 -5,-21 -53,33 -51,41 -41,48 -41,46 -38,41 -35,30 -33,16 -39,-3 8,10 -8,-10 -7,3 -5,5 2,7 5,5 z"
   id="path93"
   inkscape:connector-curvature="0"
   style="fill:#000000;stroke:none" />
        <path
   d="m 10480,15179 -41,43 -31,51 -17,54 -13,56 -5,53 v 48 l 2,41 5,31 -25,5 -28,5 -25,7 -28,8 -28,10 -28,10 -28,13 -28,13 7,-44 v -43 l -10,-45 -20,-44 -33,-38 -43,-33 -56,-23 -72,-10 -73,8 -64,28 -53,45 -43,59 -28,63 -18,64 -3,61 13,53 28,49 28,30 28,13 28,2 28,-7 28,-18 25,-23 26,-28 -18,41 -28,35 -41,28 -46,18 -48,3 -48,-15 -43,-39 -39,-66 -25,-84 -5,-91 13,-97 28,-96 45,-89 61,-82 79,-68 92,-51 48,-18 51,-15 48,-13 49,-8 45,-7 46,-3 43,3 44,2 40,8 38,10 36,13 30,18 31,17 25,23 23,28 z"
   id="path95"
   inkscape:connector-curvature="0"
   style="fill:#007fff;stroke:none" />
        <path
   d="m 10380,15566 11,-13 -5,-28 -3,-41 v -48 l 5,-53 13,-54 18,-53 28,-48 38,-41 -10,-15 -44,45 -33,54 -18,53 -12,59 -5,53 v 48 l 2,41 5,33 10,-13 -10,13 5,5 8,3 5,-5 3,-8 z"
   id="path97"
   inkscape:connector-curvature="0"
   style="fill:#000000;stroke:none" />
        <path
   d="m 10152,15624 15,13 25,-13 28,-13 28,-10 28,-10 28,-8 26,-7 25,-5 25,-5 v -21 l -25,5 -30,6 -26,7 -28,8 -28,10 -28,10 -28,13 -30,13 15,12 -15,-12 -5,5 v 7 l 7,8 h 8 z"
   id="path99"
   inkscape:connector-curvature="0"
   style="fill:#000000;stroke:none" />
        <path
   d="m 9935,15357 v 0 l 69,10 54,21 40,33 33,35 18,41 10,43 v 43 l -7,41 20,5 8,-46 v -43 l -11,-48 -22,-46 -34,-40 -45,-34 -59,-25 -74,-10 v 0 z"
   id="path101"
   inkscape:connector-curvature="0"
   style="fill:#000000;stroke:none" />
        <path
   d="m 9676,15726 v 0 l -13,-51 3,-61 18,-61 25,-61 43,-56 51,-46 61,-25 71,-8 v -20 l -76,8 -66,30 -56,46 -43,61 -31,66 -17,66 -3,61 13,56 v 0 z"
   id="path103"
   inkscape:connector-curvature="0"
   style="fill:#000000;stroke:none" />
        <path
   d="m 9895,15749 -18,-8 -25,26 -23,22 -26,16 -25,7 -26,-2 -25,-10 -25,-28 -26,-46 -20,5 30,51 31,33 30,15 31,3 30,-8 31,-20 28,-23 25,-31 -18,-7 18,7 v -7 l -2,-5 -8,-3 -5,5 z"
   id="path105"
   inkscape:connector-curvature="0"
   style="fill:#000000;stroke:none" />
        <path
   d="m 9564,15754 v 0 l 41,68 46,41 53,18 48,-3 51,-20 43,-28 28,-38 21,-43 -21,-5 -15,38 -28,33 -38,28 -41,15 -48,3 -43,-13 -41,-36 -35,-63 v 0 z"
   id="path107"
   inkscape:connector-curvature="0"
   style="fill:#000000;stroke:none" />
        <path
   d="m 9859,15083 v 0 l -94,53 -81,69 -61,84 -49,91 -28,99 -12,97 5,91 25,87 21,-5 -26,-82 -5,-91 13,-97 28,-94 43,-86 61,-79 76,-69 89,-48 v 0 z"
   id="path109"
   inkscape:connector-curvature="0"
   style="fill:#000000;stroke:none" />
        <path
   d="m 10485,15187 2,-13 -20,-28 -23,-30 -28,-23 -30,-18 -33,-20 -36,-13 -41,-10 -40,-8 -44,-2 -43,-3 -46,3 -45,7 -49,8 -51,13 -50,15 -49,18 5,20 49,-18 50,-15 46,-13 49,-7 45,-8 46,-3 43,3 44,2 40,8 36,10 35,13 28,15 31,18 23,23 23,25 20,28 3,-12 -3,12 5,5 8,-2 2,-5 v -8 z"
   id="path111"
   inkscape:connector-curvature="0"
   style="fill:#000000;stroke:none" />
        <path
   d="m 10813,15655 -21,-16 -20,-12 -23,-13 -23,-10 -25,-13 -26,-8 -25,-10 -25,-7 -28,-5 -28,-5 -31,-6 -28,-2 h -33 -30 l -33,2 -34,6 -25,5 -28,5 -25,7 -28,8 -28,10 -28,10 -28,13 -28,13 -26,15 -15,18 -10,20 -5,20 v 18 l 7,18 8,15 13,10 15,-15 26,-13 35,-12 46,-13 48,-8 56,-2 h 61 l 61,5 64,13 63,17 64,28 58,34 54,45 51,54 43,63 33,77 h 15 l 15,-6 18,-15 13,-18 13,-20 7,-25 3,-26 v -28 l -5,-25 -10,-28 -18,-31 -21,-33 -25,-30 -30,-33 -36,-31 z"
   id="path113"
   inkscape:connector-curvature="0"
   style="fill:#ffbf00;stroke:none" />
        <path
   d="m 10380,15566 v 0 l 34,-5 33,-3 h 30 33 l 28,3 31,5 28,5 25,5 25,7 26,11 25,7 26,13 20,10 23,10 20,13 21,15 10,-15 -20,-15 -21,-13 -23,-15 -25,-10 -26,-13 -25,-8 -25,-10 -26,-7 -30,-6 -28,-5 -31,-5 -28,-2 h -33 -30 l -33,2 -34,5 v 0 z"
   id="path115"
   inkscape:connector-curvature="0"
   style="fill:#000000;stroke:none" />
        <path
   d="m 10167,15637 v 0 l 25,-13 28,-13 28,-10 28,-10 28,-8 26,-7 25,-5 25,-5 v -21 l -25,5 -30,6 -26,7 -28,8 -28,10 -28,10 -28,13 -30,13 v 0 z"
   id="path117"
   inkscape:connector-curvature="0"
   style="fill:#000000;stroke:none" />
        <path
   d="m 10126,15756 13,-2 -10,-8 -5,-13 -8,-15 v -18 l 5,-17 8,-18 12,-15 26,-13 -10,-20 -26,17 -18,21 -12,23 -5,22 v 18 l 7,21 10,17 16,13 12,-2 -12,2 h 7 l 5,-5 3,-5 -5,-5 z"
   id="path119"
   inkscape:connector-curvature="0"
   style="fill:#000000;stroke:none" />
        <path
   d="m 10914,16023 8,8 -35,-79 -44,-63 -51,-56 -56,-46 -58,-36 -66,-28 -64,-17 -66,-13 -61,-5 h -61 l -56,2 -48,8 -48,13 -36,12 -28,16 -18,17 15,11 13,-13 23,-10 36,-13 43,-13 48,-7 56,-3 h 61 l 61,5 61,13 64,18 61,28 58,30 51,46 51,51 43,63 31,74 7,8 -7,-8 5,5 7,3 6,-5 2,-8 z"
   id="path121"
   inkscape:connector-curvature="0"
   style="fill:#000000;stroke:none" />
        <path
   d="m 10986,15896 v 0 28 l -3,26 -7,22 -11,18 -12,16 -16,15 -10,2 h -13 l -5,21 h 18 l 21,-8 20,-15 13,-21 15,-22 7,-28 3,-26 v -28 0 z"
   id="path123"
   inkscape:connector-curvature="0"
   style="fill:#000000;stroke:none" />
        <path
   d="m 10808,15662 v 0 l 38,31 33,30 30,31 26,30 20,33 15,28 11,28 5,23 h 20 l -5,-28 -10,-28 -21,-33 -20,-33 -25,-30 -31,-36 -38,-30 -38,-31 v 0 0 h -8 l -5,3 -2,7 z"
   id="path125"
   inkscape:connector-curvature="0"
   style="fill:#000000;stroke:none" />
        <path
   d="m 9892,15624 -25,8 -21,15 -15,23 -2,28 7,28 16,20 22,15 28,3 28,-8 21,-15 12,-23 6,-28 -3,-12 -5,-16 -8,-10 -7,-10 -13,-8 -13,-5 -12,-5 z"
   id="path127"
   inkscape:connector-curvature="0"
   style="fill:#ffbf00;stroke:none" />
        <path
   d="m 9839,15698 v 0 l 2,-26 13,-17 18,-13 20,-8 v -20 l -30,8 -23,17 -18,28 -2,31 v 0 z"
   id="path129"
   inkscape:connector-curvature="0"
   style="fill:#000000;stroke:none" />
        <path
   d="m 9902,15754 v 0 l -25,-3 -18,-12 -13,-16 -7,-25 h -20 l 7,30 18,26 28,18 30,2 v 0 z"
   id="path131"
   inkscape:connector-curvature="0"
   style="fill:#000000;stroke:none" />
        <path
   d="m 9958,15690 v 0 l -5,26 -10,20 -15,10 -26,8 v 20 l 31,-7 25,-21 16,-25 5,-31 v 0 z"
   id="path133"
   inkscape:connector-curvature="0"
   style="fill:#000000;stroke:none" />
        <path
   d="m 9892,15634 v 0 h 16 l 10,5 10,6 13,5 5,7 5,10 5,13 2,10 h 21 l -3,-15 -5,-18 -10,-10 -10,-13 -13,-10 -15,-5 -15,-5 h -16 v 0 z"
   id="path135"
   inkscape:connector-curvature="0"
   style="fill:#000000;stroke:none" />
        <path
   d="m 11736,16064 10,-25 -3,-26 -10,-25 -20,-18 -13,-5 -12,-5 h -16 l -12,2 -13,3 -13,7 -10,11 -8,10 -7,25 2,28 10,26 21,17 12,6 13,2 h 13 l 13,-2 12,-3 13,-8 10,-10 z"
   id="path137"
   inkscape:connector-curvature="0"
   style="fill:#ffbf00;stroke:none" />
        <path
   d="m 11708,15978 v 0 l 18,15 7,23 3,23 -8,20 15,10 13,-30 -2,-28 -13,-28 -23,-21 v 0 z"
   id="path139"
   inkscape:connector-curvature="0"
   style="fill:#000000;stroke:none" />
        <path
   d="m 11624,15998 v 0 l 8,-10 7,-8 10,-5 11,-3 12,-2 h 16 l 10,5 10,3 10,-16 -15,-7 -15,-5 h -16 l -12,2 -16,3 -15,10 -13,13 -7,10 v 0 z"
   id="path141"
   inkscape:connector-curvature="0"
   style="fill:#000000;stroke:none" />
        <path
   d="m 11647,16082 v 0 l -18,-15 -8,-23 -2,-26 5,-20 -15,-10 -10,30 2,31 13,28 23,20 v 0 z"
   id="path143"
   inkscape:connector-curvature="0"
   style="fill:#000000;stroke:none" />
        <path
   d="m 11728,16059 v 0 l -7,10 -8,8 -10,5 -10,2 -13,3 h -13 l -10,-3 -10,-2 -10,15 15,8 15,2 h 13 l 13,-2 15,-3 15,-10 13,-13 7,-10 v 0 z"
   id="path145"
   inkscape:connector-curvature="0"
   style="fill:#000000;stroke:none" />
        <path
   d="m 10609,14948 13,8 13,5 12,5 h 13 l 13,-3 13,-5 12,-8 11,-10 12,-23 3,-28 -8,-25 -15,-20 -13,-8 -13,-5 -12,-5 h -13 l -13,2 -12,5 -13,8 -10,10 -13,23 -3,26 8,25 z"
   id="path147"
   inkscape:connector-curvature="0"
   style="fill:#ffbf00;stroke:none" />
        <path
   d="m 10701,14935 v 0 l -8,8 -12,5 -11,5 -10,3 h -13 l -10,-6 -10,-5 -13,-5 -10,16 13,10 15,5 15,5 h 13 l 15,-3 16,-5 12,-10 13,-13 v 0 z"
   id="path149"
   inkscape:connector-curvature="0"
   style="fill:#000000;stroke:none" />
        <path
   d="m 10696,14851 v 0 l 10,18 8,20 -3,26 -10,20 15,10 15,-25 3,-31 -8,-30 -20,-23 v 0 z"
   id="path151"
   inkscape:connector-curvature="0"
   style="fill:#000000;stroke:none" />
        <path
   d="m 10609,14856 v 0 l 8,-7 13,-5 10,-5 10,-3 h 13 l 10,5 10,5 13,5 10,-15 -13,-10 -15,-5 -15,-5 h -13 l -15,2 -15,5 -13,10 -13,13 v 0 z"
   id="path153"
   inkscape:connector-curvature="0"
   style="fill:#000000;stroke:none" />
        <path
   d="m 10614,14940 h 3 l -13,-18 -7,-22 2,-23 10,-21 -15,-10 -15,26 -3,28 8,28 18,28 h 2 z"
   id="path155"
   inkscape:connector-curvature="0"
   style="fill:#000000;stroke:none" />
        <path
   d="m 9928,15680 -8,3 -5,2 -2,8 -3,7 3,8 5,5 5,5 h 7 l 8,-2 5,-5 3,-5 2,-8 -2,-8 -3,-5 -8,-2 z"
   id="path157"
   inkscape:connector-curvature="0"
   style="fill:#000000;stroke:none" />
        <path
   d="m 9920,15700 v 0 l 3,-5 v -5 3 l 5,-3 v -20 l -10,2 -10,8 -6,10 -2,10 v 0 z"
   id="path159"
   inkscape:connector-curvature="0"
   style="fill:#000000;stroke:none" />
        <path
   d="m 9930,15708 h -2 -3 v -2 l -5,-3 v -3 h -20 l 5,13 5,8 10,7 h 13 -3 z"
   id="path161"
   inkscape:connector-curvature="0"
   style="fill:#000000;stroke:none" />
        <path
   d="m 9938,15698 v 0 l -3,5 v 3 l -2,2 h -3 v 20 l 13,-5 8,-7 5,-8 2,-10 v 0 z"
   id="path163"
   inkscape:connector-curvature="0"
   style="fill:#000000;stroke:none" />
        <path
   d="m 9928,15690 v 0 l 5,3 h 5 -3 l 3,5 h 20 l -2,-10 -8,-10 -10,-6 -10,-2 v 0 z"
   id="path165"
   inkscape:connector-curvature="0"
   style="fill:#000000;stroke:none" />
        <path
   d="m 11672,16061 3,-7 v -8 l -5,-7 -5,-5 -8,-3 h -8 l -5,5 -5,5 -2,8 v 7 l 2,8 5,5 8,3 h 8 l 7,-5 z"
   id="path167"
   inkscape:connector-curvature="0"
   style="fill:#000000;stroke:none" />
        <path
   d="m 11660,16044 v -3 l 2,3 3,5 v 5 l -3,2 20,11 3,-13 v -10 l -8,-10 -7,-8 v -3 z"
   id="path169"
   inkscape:connector-curvature="0"
   style="fill:#000000;stroke:none" />
        <path
   d="m 11647,16046 h 2 l 3,-2 v -3 h 5 l 3,3 10,-21 -13,-2 h -10 l -10,7 -8,8 h 3 z"
   id="path171"
   inkscape:connector-curvature="0"
   style="fill:#000000;stroke:none" />
        <path
   d="m 11649,16059 3,2 -5,-2 v -3 -7 -3 l -15,-10 -6,13 v 7 l 6,13 5,8 2,2 z"
   id="path173"
   inkscape:connector-curvature="0"
   style="fill:#000000;stroke:none" />
        <path
   d="m 11662,16056 v 0 3 l -5,2 h -5 l -3,-2 -10,20 13,3 h 10 l 10,-8 10,-7 v 0 z"
   id="path175"
   inkscape:connector-curvature="0"
   style="fill:#000000;stroke:none" />
        <path
   d="m 10625,14884 7,5 h 8 l 5,-2 8,-5 2,-8 v -5 -8 l -5,-5 -8,-5 h -5 -7 l -8,5 -5,8 v 8 l 3,7 z"
   id="path177"
   inkscape:connector-curvature="0"
   style="fill:#000000;stroke:none" />
        <path
   d="m 10645,14877 v 0 l -5,2 v 0 h -5 l -3,-2 -15,15 13,8 h 10 l 10,-6 10,-7 v 0 z"
   id="path179"
   inkscape:connector-curvature="0"
   style="fill:#000000;stroke:none" />
        <path
   d="m 10642,14864 h 3 v 0 5 5 3 l 15,10 5,-13 v -5 -10 l -10,-10 h 3 z"
   id="path181"
   inkscape:connector-curvature="0"
   style="fill:#000000;stroke:none" />
        <path
   d="m 10630,14861 v 3 l 2,-3 h 5 3 l 2,3 16,-15 -13,-8 h -8 -10 l -13,8 v 2 z"
   id="path183"
   inkscape:connector-curvature="0"
   style="fill:#000000;stroke:none" />
        <path
   d="m 10632,14877 h -2 l -3,-3 v -2 -5 l 3,-6 -16,-10 -7,10 v 11 l 5,12 8,8 h -3 z"
   id="path185"
   inkscape:connector-curvature="0"
   style="fill:#000000;stroke:none" />
        <path
   d="m 9923,15693 -5,5 2,5 5,5 h 8 z"
   id="path187"
   inkscape:connector-curvature="0"
   style="fill:#000000;stroke:none" />
        <path
   d="m 9867,15645 h 15 l 13,5 13,7 7,10 5,8 3,10 v 8 0 l 10,15 10,-10 v -13 l -2,-15 -11,-13 -12,-15 -13,-8 -18,-10 h -20 z"
   id="path189"
   inkscape:connector-curvature="0"
   style="fill:#000000;stroke:none" />
        <path
   d="m 9867,15624 -8,3 -2,7 2,8 8,3 z"
   id="path191"
   inkscape:connector-curvature="0"
   style="fill:#000000;stroke:none" />
        <path
   d="m 11665,16051 -3,-7 -8,-3 -7,3 -3,7 z"
   id="path193"
   inkscape:connector-curvature="0"
   style="fill:#000000;stroke:none" />
        <path
   d="m 11736,16031 -10,13 -13,10 -8,2 h -15 -15 -5 l -5,-5 v 0 h -21 l 5,10 11,11 15,5 h 15 15 l 18,-8 18,-10 10,-18 z"
   id="path195"
   inkscape:connector-curvature="0"
   style="fill:#000000;stroke:none" />
        <path
   d="m 11751,16041 v -7 l -2,-6 -8,-2 -5,5 z"
   id="path197"
   inkscape:connector-curvature="0"
   style="fill:#000000;stroke:none" />
        <path
   d="m 10637,14879 8,-2 2,-8 -2,-8 -8,-2 z"
   id="path199"
   inkscape:connector-curvature="0"
   style="fill:#000000;stroke:none" />
        <path
   d="m 10640,14953 -15,-23 v -28 l 7,-20 5,-3 v -20 l -20,13 -13,30 v 33 l 26,33 z"
   id="path201"
   inkscape:connector-curvature="0"
   style="fill:#000000;stroke:none" />
        <path
   d="m 10630,14968 h 7 l 5,-5 3,-5 -5,-5 z"
   id="path203"
   inkscape:connector-curvature="0"
   style="fill:#000000;stroke:none" />
        <path
   d="m 9956,14739 -10,-15 -16,-10 -17,-3 -18,-2 -15,5 -11,10 -7,15 2,18 8,21 15,40 23,56 28,71 31,82 35,91 38,97 41,99 38,99 41,97 35,94 36,84 31,76 25,61 18,48 12,28 18,23 23,13 h 26 l 25,-5 20,-15 16,-21 5,-23 -5,-25 -13,-28 -20,-43 -26,-61 -33,-71 -36,-84 -40,-89 -41,-94 -43,-97 -41,-97 -43,-94 -38,-86 -36,-82 -30,-68 -23,-54 -18,-40 z"
   id="path205"
   inkscape:connector-curvature="0"
   style="fill:#3f0000;stroke:none" />
        <path
   d="m 9874,14755 v 0 l -2,-16 5,-10 8,-7 10,-3 18,3 15,2 10,8 8,10 20,-5 -13,-20 -20,-13 -20,-3 -18,-2 -21,7 -12,13 -10,20 2,21 v 0 z"
   id="path207"
   inkscape:connector-curvature="0"
   style="fill:#000000;stroke:none" />
        <path
   d="m 10330,15899 v 0 l -13,-28 -18,-49 -25,-61 -31,-76 -35,-84 -36,-94 -41,-96 -38,-100 -41,-99 -38,-96 -35,-92 -31,-81 -28,-71 -23,-56 -15,-41 -8,-20 -20,5 8,20 15,41 23,56 28,71 30,81 36,92 38,96 41,100 38,99 41,96 35,94 36,84 30,77 26,61 18,48 12,28 v 0 z"
   id="path209"
   inkscape:connector-curvature="0"
   style="fill:#000000;stroke:none" />
        <path
   d="m 10436,15850 v 3 l 6,20 -6,21 -12,15 -16,13 -22,5 h -23 l -21,-10 -12,-18 -21,5 23,28 26,15 h 28 l 28,-5 25,-18 18,-25 5,-26 -5,-30 v 2 z"
   id="path211"
   inkscape:connector-curvature="0"
   style="fill:#000000;stroke:none" />
        <path
   d="m 9946,14742 v 2 l 10,18 18,41 23,53 30,69 36,81 38,87 43,94 41,96 43,97 41,94 40,89 36,84 33,71 25,61 21,43 12,28 21,-5 -13,-28 -20,-43 -26,-61 -33,-71 -35,-84 -41,-89 -41,-94 -43,-97 -41,-96 -43,-94 -38,-87 -36,-81 -30,-69 -23,-53 -18,-41 -10,-23 v 3 z"
   id="path213"
   inkscape:connector-curvature="0"
   style="fill:#000000;stroke:none" />
        <path
   d="m 9895,14142 18,13 17,15 16,15 12,18 11,18 7,20 5,18 3,18 -3,17 -5,18 -10,18 -15,13 v -18 -23 l -8,-23 -13,-23 -15,-23 -25,-17 -28,-11 -38,-5 -39,8 -35,15 -28,28 -26,31 -17,35 -16,36 -12,36 -5,28 -18,-16 -15,-18 -11,-22 v -31 l 3,-13 8,-17 7,-16 10,-17 13,-21 15,-23 18,-25 23,-26 25,-22 23,-18 28,-10 26,-8 25,3 23,2 23,10 z"
   id="path215"
   inkscape:connector-curvature="0"
   style="fill:#ffbf00;stroke:none" />
        <path
   d="m 9994,14277 v 0 l -3,-18 -5,-20 -7,-21 -13,-20 -13,-18 -15,-18 -20,-15 -18,-13 -10,16 18,12 15,16 15,12 13,18 7,15 8,21 5,15 3,18 v 0 0 l 2,7 8,3 7,-3 z"
   id="path217"
   inkscape:connector-curvature="0"
   style="fill:#000000;stroke:none" />
        <path
   d="m 9941,14343 15,7 18,-15 12,-20 5,-21 3,-17 h -20 l -3,17 -5,16 -8,15 -12,10 15,8 -15,-8 -5,5 2,5 5,5 h 8 z"
   id="path219"
   inkscape:connector-curvature="0"
   style="fill:#000000;stroke:none" />
        <path
   d="m 9824,14211 v 0 l 35,5 26,7 23,18 15,20 10,21 8,20 v 23 18 h 20 v -18 -23 l -8,-25 -15,-26 -15,-25 -28,-18 -31,-13 -40,-5 v 0 z"
   id="path221"
   inkscape:connector-curvature="0"
   style="fill:#000000;stroke:none" />
        <path
   d="m 9641,14424 15,-7 5,-26 13,-36 15,-35 15,-33 26,-28 25,-28 33,-13 36,-7 v -21 l -41,8 -38,18 -31,28 -25,33 -21,38 -15,35 -12,36 -6,31 16,-8 -16,8 3,7 8,3 7,-3 3,-7 z"
   id="path223"
   inkscape:connector-curvature="0"
   style="fill:#000000;stroke:none" />
        <path
   d="m 9592,14330 v 0 31 l 13,28 15,20 21,15 10,-15 -16,-15 -15,-16 -7,-17 v -31 0 z"
   id="path225"
   inkscape:connector-curvature="0"
   style="fill:#000000;stroke:none" />
        <path
   d="m 9691,14167 v 0 l -23,26 -17,25 -16,23 -12,20 -10,18 -11,18 -7,18 -3,15 h 21 l 2,-10 8,-18 5,-13 10,-17 13,-21 15,-23 18,-25 23,-25 v 0 z"
   id="path227"
   inkscape:connector-curvature="0"
   style="fill:#000000;stroke:none" />
        <path
   d="m 9900,14134 v 0 l -23,-15 -25,-10 -26,-3 -25,-2 -28,7 -31,13 -23,18 -28,25 16,11 23,-21 22,-18 26,-7 23,-8 25,3 20,2 21,10 23,11 v 0 0 h 7 l 5,-6 3,-5 z"
   id="path229"
   inkscape:connector-curvature="0"
   style="fill:#000000;stroke:none" />
        <path
   d="m 9602,14071 18,18 15,15 16,18 15,15 10,13 10,10 8,7 5,5 -23,26 -18,25 -15,23 -13,21 -10,17 -7,16 -8,17 -3,13 -17,-25 -21,-28 -20,-23 -23,-21 -23,-17 -25,-13 -28,-5 h -28 l -28,7 -28,11 -26,17 -20,21 -13,25 -5,31 5,33 16,38 -36,-26 -28,-30 -20,-38 -5,-41 5,-46 25,-48 43,-51 64,-51 33,-20 33,-10 33,-3 h 31 l 30,11 26,10 27,15 z"
   id="path231"
   inkscape:connector-curvature="0"
   style="fill:#bf003f;stroke:none" />
        <path
   d="m 9707,14178 -3,-13 -2,-5 -8,-8 -10,-8 -10,-15 -16,-15 -15,-18 -15,-15 -18,-18 -15,15 18,18 15,15 15,18 15,15 10,11 11,12 7,8 8,5 -3,-13 3,13 h 8 l 5,-5 2,-5 -5,-5 z"
   id="path233"
   inkscape:connector-curvature="0"
   style="fill:#000000;stroke:none" />
        <path
   d="m 9595,14335 18,-5 2,-10 8,-18 5,-13 10,-17 13,-21 15,-23 18,-25 23,-25 -16,-11 -23,26 -17,25 -16,23 -12,20 -10,18 -11,18 -7,18 -3,15 18,-5 -18,5 3,8 7,2 8,-2 3,-8 z"
   id="path235"
   inkscape:connector-curvature="0"
   style="fill:#000000;stroke:none" />
        <path
   d="m 9417,14208 v 0 h 28 l 25,5 23,10 23,18 20,20 21,21 20,28 18,25 15,-10 -18,-25 -20,-28 -20,-26 -26,-20 -23,-18 -28,-15 -30,-5 h -28 v 0 z"
   id="path237"
   inkscape:connector-curvature="0"
   style="fill:#000000;stroke:none" />
        <path
   d="m 9312,14389 13,-13 -13,-36 -5,-30 5,-28 11,-23 17,-18 26,-18 25,-7 26,-8 v -20 l -31,7 -30,13 -26,18 -23,23 -15,28 -5,33 5,35 18,41 13,-13 -13,13 5,5 8,-2 2,-6 v -7 z"
   id="path239"
   inkscape:connector-curvature="0"
   style="fill:#000000;stroke:none" />
        <path
   d="m 9361,14043 v 0 l -66,51 -44,53 -28,51 -5,48 5,43 23,41 31,33 35,26 11,-16 -36,-25 -25,-28 -18,-36 -5,-38 5,-43 23,-46 43,-48 61,-51 v 0 z"
   id="path241"
   inkscape:connector-curvature="0"
   style="fill:#000000;stroke:none" />
        <path
   d="m 9610,14063 h -3 l -22,-18 -31,-17 -25,-11 -33,-10 h -31 l -33,3 -36,10 -35,23 10,15 30,-18 31,-10 33,-2 h 31 l 28,10 25,10 25,13 23,17 h -2 2 8 l 5,-5 3,-5 -6,-5 z"
   id="path243"
   inkscape:connector-curvature="0"
   style="fill:#000000;stroke:none" />
        <path
   d="m 9984,14277 -3,-18 -5,-18 -7,-20 -11,-18 -12,-18 -16,-15 -17,-15 -18,-13 -10,-23 -11,-25 -7,-31 -8,-33 15,-18 23,-15 26,-13 28,-7 h 30 l 28,10 26,18 20,30 20,31 23,23 26,10 25,2 26,-10 20,-18 13,-30 7,-41 15,26 8,35 v 46 l -8,43 -17,43 -31,31 -41,15 -53,-5 -23,-5 h -18 l -15,2 -15,8 -10,8 -10,7 -8,11 z"
   id="path245"
   inkscape:connector-curvature="0"
   style="fill:#bf003f;stroke:none" />
        <path
   d="m 9887,14147 3,3 18,12 15,16 15,12 13,18 7,15 8,21 5,15 3,18 h 20 l -3,-18 -5,-20 -7,-21 -13,-20 -13,-18 -15,-18 -20,-15 -18,-13 2,3 -2,-3 h -8 l -5,3 -2,7 5,6 z"
   id="path247"
   inkscape:connector-curvature="0"
   style="fill:#000000;stroke:none" />
        <path
   d="m 9852,14025 -3,5 8,36 7,30 10,26 13,25 15,-10 -7,-20 -10,-26 -8,-30 -8,-31 -2,5 2,-5 -2,-8 -8,-2 -7,2 -3,8 z"
   id="path249"
   inkscape:connector-curvature="0"
   style="fill:#000000;stroke:none" />
        <path
   d="m 10065,14033 v 0 l -23,-36 -28,-18 -33,-12 h -30 l -31,7 -28,15 -23,16 -17,20 15,10 13,-15 22,-15 23,-11 26,-7 h 30 l 23,7 23,18 18,26 v 0 z"
   id="path251"
   inkscape:connector-curvature="0"
   style="fill:#000000;stroke:none" />
        <path
   d="m 10223,13994 -18,8 -8,38 -10,28 -18,15 -20,8 -23,-2 -23,-8 -20,-20 -18,-28 -20,5 23,33 25,25 28,13 28,2 31,-12 22,-21 16,-33 7,-43 -17,8 17,-8 -2,-8 -8,-2 -7,2 -3,8 z"
   id="path253"
   inkscape:connector-curvature="0"
   style="fill:#000000;stroke:none" />
        <path
   d="m 10086,14246 v 0 l 55,5 46,-18 33,-33 21,-45 7,-46 v -46 l -7,-38 -18,-31 -15,16 12,20 8,33 v 46 l -8,41 -15,40 -28,28 -36,13 -50,-5 v 0 z"
   id="path255"
   inkscape:connector-curvature="0"
   style="fill:#000000;stroke:none" />
        <path
   d="m 9974,14277 17,5 6,-10 7,-8 8,-8 10,-7 13,-5 12,-3 h 18 l 21,5 5,-20 -26,-5 h -18 l -17,2 -18,10 -10,8 -13,8 -8,12 -5,11 18,5 -18,-5 v 7 l 5,5 5,3 5,-5 z"
   id="path257"
   inkscape:connector-curvature="0"
   style="fill:#000000;stroke:none" />
        <path
   d="m 10004,14846 -2,-13 -5,-12 -8,-13 -10,-15 -13,-15 -18,-18 -23,-18 -25,-20 h -28 l -28,7 -31,15 -30,16 -28,23 -23,23 -18,22 -10,26 -2,38 2,48 10,51 13,41 3,20 -6,26 -12,25 -18,23 -26,18 -30,7 -36,-7 -38,-21 28,36 38,25 46,18 48,5 49,-10 46,-23 40,-43 31,-64 18,-43 17,-35 21,-31 17,-28 16,-23 12,-20 11,-20 z"
   id="path259"
   inkscape:connector-curvature="0"
   style="fill:#bf003f;stroke:none" />
        <path
   d="m 9900,14732 -5,-3 25,21 23,17 15,18 13,13 10,15 5,13 5,10 3,10 h 20 l -2,-15 -5,-15 -10,-13 -11,-15 -12,-18 -21,-18 -23,-18 -25,-20 -5,-3 5,3 h -8 l -5,3 -2,7 5,5 z"
   id="path261"
   inkscape:connector-curvature="0"
   style="fill:#000000;stroke:none" />
        <path
   d="m 9714,14856 v 0 l 8,-23 18,-22 23,-21 25,-23 31,-12 27,-16 26,-7 h 28 v -21 h -28 l -31,8 -33,15 -30,18 -31,23 -23,25 -17,23 -13,28 v 0 0 l 2,8 6,5 7,-3 z"
   id="path263"
   inkscape:connector-curvature="0"
   style="fill:#000000;stroke:none" />
        <path
   d="m 9737,15029 v 0 l -13,-40 -10,-49 -2,-48 2,-36 -20,-5 -3,41 3,48 10,54 13,40 v 0 z"
   id="path265"
   inkscape:connector-curvature="0"
   style="fill:#000000;stroke:none" />
        <path
   d="m 9572,15118 -13,13 41,23 38,7 33,-7 31,-21 17,-25 16,-28 5,-28 -3,-23 -20,5 2,18 -5,23 -10,23 -18,20 -20,15 -28,8 -33,-8 -36,-17 -12,12 12,-12 h -7 l -5,2 -3,8 5,5 z"
   id="path267"
   inkscape:connector-curvature="0"
   style="fill:#000000;stroke:none" />
        <path
   d="m 9880,15065 v 0 l -28,61 -39,41 -43,20 -46,10 -45,-5 -44,-15 -35,-26 -28,-33 -15,10 28,39 40,25 49,20 50,5 51,-10 49,-25 43,-46 33,-66 v 0 z"
   id="path269"
   inkscape:connector-curvature="0"
   style="fill:#000000;stroke:none" />
        <path
   d="m 9994,14846 v 0 l -3,18 -7,18 -13,20 -15,23 -18,28 -20,30 -21,39 -17,43 20,5 18,-43 15,-33 20,-31 18,-28 15,-23 13,-20 13,-23 2,-23 v 0 0 l -2,-7 -8,-3 -7,3 z"
   id="path271"
   inkscape:connector-curvature="0"
   style="fill:#000000;stroke:none" />
        <path
   d="m 9859,14030 8,33 7,31 11,25 10,23 -23,-13 -23,-10 -23,-2 -25,-3 -26,8 -28,10 -23,18 -25,22 -5,-5 -8,-7 -10,-10 -10,-13 -15,-15 -16,-18 -15,-15 -18,-18 -5,-41 -2,-51 7,-58 13,-59 20,-61 31,-58 43,-51 54,-43 58,-33 53,-18 49,-8 43,3 38,18 31,28 25,40 20,51 -28,-18 -33,-15 -33,-8 -35,-2 -31,5 -28,10 -20,20 -13,28 -10,56 -3,72 3,76 z"
   id="path273"
   inkscape:connector-curvature="0"
   style="fill:#00cc00;stroke:none" />
        <path
   d="m 9890,14150 12,-13 -7,-20 -10,-26 -8,-30 -8,-31 h -20 l 8,36 7,30 10,26 13,25 13,-13 -13,13 5,5 8,-2 2,-6 v -7 z"
   id="path275"
   inkscape:connector-curvature="0"
   style="fill:#000000;stroke:none" />
        <path
   d="m 9694,14180 13,-2 23,-21 22,-18 26,-7 23,-8 25,3 20,2 21,10 23,11 10,-16 -23,-15 -25,-10 -26,-3 -25,-2 -28,7 -31,13 -23,18 -28,25 13,-2 -13,2 v 8 l 5,5 6,3 5,-5 z"
   id="path277"
   inkscape:connector-curvature="0"
   style="fill:#000000;stroke:none" />
        <path
   d="m 9592,14071 3,7 18,18 15,15 15,18 15,15 10,11 11,12 7,8 8,5 10,-15 -2,-5 -8,-8 -10,-8 -10,-15 -16,-15 -15,-18 -15,-15 -18,-18 3,8 -3,-8 -8,-2 -7,2 -3,8 3,7 z"
   id="path279"
   inkscape:connector-curvature="0"
   style="fill:#000000;stroke:none" />
        <path
   d="m 9757,13641 v 0 l -55,43 -44,54 -33,61 -20,61 -13,61 -7,58 2,51 5,41 h 21 l -6,-41 -2,-51 8,-58 12,-56 21,-61 28,-56 43,-48 51,-44 v 0 z"
   id="path281"
   inkscape:connector-curvature="0"
   style="fill:#000000;stroke:none" />
        <path
   d="m 10075,13738 16,-10 -21,-54 -28,-41 -33,-30 -40,-20 -46,-3 -51,8 -53,17 -62,36 11,15 56,-30 53,-18 46,-8 40,3 36,15 28,26 23,40 20,49 16,-11 -16,11 5,5 8,2 5,-5 3,-7 z"
   id="path283"
   inkscape:connector-curvature="0"
   style="fill:#000000;stroke:none" />
        <path
   d="m 9869,13753 v 0 l 11,-25 17,-18 26,-8 28,-5 35,3 31,7 30,13 28,18 11,-16 -28,-17 -36,-18 -36,-8 -35,-2 -33,5 -31,12 -23,23 -15,31 v 0 z"
   id="path285"
   inkscape:connector-curvature="0"
   style="fill:#000000;stroke:none" />
        <path
   d="m 9869,14030 v 0 l -10,-76 -2,-76 2,-72 10,-53 -20,-5 -10,58 -3,72 3,76 10,76 v 0 0 l 3,8 7,2 8,-2 z"
   id="path287"
   inkscape:connector-curvature="0"
   style="fill:#000000;stroke:none" />
        <path
   d="m 9943,14589 -43,133 h -28 l -28,7 -31,15 -30,16 -28,23 -23,23 -18,22 -10,26 -28,2 h -25 -26 l -20,-5 -20,-7 -21,-11 -18,-10 -17,-12 -23,-11 -36,-2 -38,2 -41,11 -35,17 -26,28 -10,33 13,46 -36,-30 -20,-41 -8,-43 10,-46 28,-46 51,-38 74,-28 97,-15 45,-5 36,-8 31,-7 22,-13 18,-10 15,-13 16,-10 12,-10 18,-5 26,-6 h 30 33 l 33,3 33,8 26,7 z"
   id="path289"
   inkscape:connector-curvature="0"
   style="fill:#00cc00;stroke:none" />
        <path
   d="m 9900,14732 10,-8 43,-132 -20,-5 -43,132 10,-8 -10,8 2,8 5,5 8,-3 5,-5 z"
   id="path291"
   inkscape:connector-curvature="0"
   style="fill:#000000;stroke:none" />
        <path
   d="m 9704,14864 10,-8 8,-23 18,-22 23,-21 25,-23 31,-12 27,-16 26,-7 h 28 v -21 h -28 l -31,8 -33,15 -30,18 -31,23 -23,25 -17,23 -13,28 10,-7 -10,7 2,8 6,5 7,-3 5,-5 z"
   id="path293"
   inkscape:connector-curvature="0"
   style="fill:#000000;stroke:none" />
        <path
   d="m 9524,14818 v 0 l 17,13 18,10 23,13 20,7 23,6 h 26 25 l 28,-3 v -20 l -28,2 h -25 -26 l -18,-5 -20,-8 -18,-7 -17,-10 -18,-13 v 0 z"
   id="path295"
   inkscape:connector-curvature="0"
   style="fill:#000000;stroke:none" />
        <path
   d="m 9328,14943 15,-10 -13,-44 8,-28 23,-25 33,-15 38,-10 38,-3 36,3 18,7 10,-15 -28,-13 -36,-2 -38,2 -43,10 -38,21 -28,30 -13,38 13,49 15,-10 -15,10 5,5 7,2 5,-5 3,-7 z"
   id="path297"
   inkscape:connector-curvature="0"
   style="fill:#000000;stroke:none" />
        <path
   d="m 9529,14638 v 0 l -100,15 -76,30 -53,39 -31,50 -10,49 8,46 23,43 38,33 10,-15 -33,-28 -18,-39 -8,-40 11,-43 25,-41 48,-38 72,-26 94,-15 v 0 z"
   id="path299"
   inkscape:connector-curvature="0"
   style="fill:#000000;stroke:none" />
        <path
   d="m 9719,14564 v 0 l -12,10 -16,10 -15,13 -18,10 -20,10 -31,8 -33,8 -45,5 v 20 l 45,-5 39,-8 30,-7 25,-16 18,-10 16,-12 15,-11 13,-10 v 0 z"
   id="path301"
   inkscape:connector-curvature="0"
   style="fill:#000000;stroke:none" />
        <path
   d="m 9953,14592 -5,-10 -23,-13 -25,-8 -36,-7 -33,-3 h -33 -30 l -28,5 -21,8 11,15 15,-2 23,-5 h 30 33 l 33,2 31,8 25,7 18,8 -5,-10 5,10 h 8 l 5,-5 2,-5 -5,-5 z"
   id="path303"
   inkscape:connector-curvature="0"
   style="fill:#000000;stroke:none" />
        <path
   d="m 10004,14846 -2,-13 -5,-12 -8,-13 -10,-15 -13,-15 -18,-18 -23,-18 -25,-20 43,-133 33,3 h 31 l 30,-5 28,-8 26,-10 25,-15 20,-18 18,-23 31,-23 45,-10 h 56 l 56,15 46,33 31,54 2,74 -30,96 -11,-30 -12,-31 -15,-30 -18,-23 -23,-16 -23,-7 -25,7 -28,23 -23,33 -21,39 -17,38 -18,35 -23,31 -33,23 -41,10 z"
   id="path305"
   inkscape:connector-curvature="0"
   style="fill:#00cc00;stroke:none" />
        <path
   d="m 9890,14719 5,10 25,21 23,17 15,18 13,13 10,15 5,13 5,10 3,10 h 20 l -2,-15 -5,-15 -10,-13 -11,-15 -12,-18 -21,-18 -23,-18 -25,-20 5,10 -5,-10 h -8 l -5,3 -2,7 5,5 z"
   id="path307"
   inkscape:connector-curvature="0"
   style="fill:#000000;stroke:none" />
        <path
   d="m 9943,14579 -10,8 -43,132 20,5 43,-132 -10,8 10,-8 -2,-8 -5,-5 h -8 l -5,8 z"
   id="path309"
   inkscape:connector-curvature="0"
   style="fill:#000000;stroke:none" />
        <path
   d="m 10147,14508 v 0 l -18,20 -18,18 -25,13 -23,10 -26,8 -30,5 h -31 l -33,-3 v 21 l 33,2 h 31 l 30,-5 31,-8 28,-10 25,-18 23,-17 18,-26 v 0 z"
   id="path311"
   inkscape:connector-curvature="0"
   style="fill:#000000;stroke:none" />
        <path
   d="m 10380,14755 h 21 l 30,-99 -2,-77 -33,-56 -51,-38 -59,-15 h -56 l -48,10 -35,28 15,10 25,-18 43,-10 h 56 l 54,15 40,28 28,51 3,72 -31,94 h 21 -21 l 3,7 5,5 8,-2 5,-5 z"
   id="path313"
   inkscape:connector-curvature="0"
   style="fill:#000000;stroke:none" />
        <path
   d="m 10243,14653 v 0 l 26,-23 20,-5 18,8 20,12 18,21 13,28 12,30 10,31 21,-5 -10,-31 -13,-30 -18,-33 -18,-26 -25,-18 -28,-7 -31,10 -30,23 v 0 z"
   id="path315"
   inkscape:connector-curvature="0"
   style="fill:#000000;stroke:none" />
        <path
   d="m 9994,14846 8,10 58,8 43,-10 38,-26 23,-33 21,-38 17,-35 18,-39 23,-30 -15,-15 -23,35 -23,38 -18,41 -15,33 -23,28 -28,20 -38,11 -53,-8 7,10 -7,-10 -8,3 -5,5 3,7 5,5 z"
   id="path317"
   inkscape:connector-curvature="0"
   style="fill:#000000;stroke:none" />
        <path
   d="m 9389,14343 -13,-8 -15,-5 -15,-2 -13,2 -15,5 -13,5 -13,10 -10,13 -13,28 v 28 l 10,28 21,23 12,8 16,5 15,2 15,-2 16,-3 12,-8 13,-7 10,-13 13,-28 v -30 l -10,-28 z"
   id="path319"
   inkscape:connector-curvature="0"
   style="fill:#ffbf00;stroke:none" />
        <path
   d="m 9290,14368 v 0 l 10,-10 10,-10 10,-3 15,-5 11,-2 12,2 16,5 10,5 10,-15 -15,-10 -16,-5 -17,-3 -16,3 -15,5 -15,8 -15,10 -11,15 v 0 z"
   id="path321"
   inkscape:connector-curvature="0"
   style="fill:#000000;stroke:none" />
        <path
   d="m 9305,14462 v 0 l -18,-20 -8,-23 v -28 l 11,-23 -16,-10 -15,33 v 28 l 13,33 23,26 v 0 z"
   id="path323"
   inkscape:connector-curvature="0"
   style="fill:#000000;stroke:none" />
        <path
   d="m 9401,14447 v 0 l -7,10 -13,8 -10,5 -13,2 -15,3 -13,-3 -15,-5 -10,-5 -10,16 15,10 15,5 18,2 15,-2 18,-3 15,-10 13,-8 13,-15 v 0 z"
   id="path325"
   inkscape:connector-curvature="0"
   style="fill:#000000;stroke:none" />
        <path
   d="m 9384,14350 v 0 l 20,21 8,23 v 30 l -11,23 16,10 15,-33 v -30 l -13,-33 -25,-26 v 0 z"
   id="path327"
   inkscape:connector-curvature="0"
   style="fill:#000000;stroke:none" />
        <path
   d="m 9394,14925 -13,-8 -15,-5 -15,-2 -16,2 -15,5 -13,5 -12,11 -10,12 -13,28 v 28 l 10,28 23,21 13,7 15,5 15,3 15,-3 13,-2 15,-8 10,-8 11,-12 12,-28 3,-28 -13,-28 z"
   id="path329"
   inkscape:connector-curvature="0"
   style="fill:#ffbf00;stroke:none" />
        <path
   d="m 9292,14950 v 0 l 10,-10 10,-10 11,-2 15,-6 13,-2 12,2 16,6 10,5 10,-16 -15,-10 -16,-5 -17,-2 -18,2 -15,5 -16,8 -15,10 -10,15 v 0 z"
   id="path331"
   inkscape:connector-curvature="0"
   style="fill:#000000;stroke:none" />
        <path
   d="m 9310,15042 v 0 l -20,-18 -8,-23 v -28 l 10,-23 -15,-10 -15,33 v 28 l 12,33 26,23 v 0 z"
   id="path333"
   inkscape:connector-curvature="0"
   style="fill:#000000;stroke:none" />
        <path
   d="m 9404,15027 v 0 l -10,10 -8,7 -12,6 -11,2 -15,3 -13,-3 -15,-5 -10,-5 -10,15 15,10 15,5 18,3 15,-3 16,-2 17,-10 13,-8 10,-15 v 0 z"
   id="path335"
   inkscape:connector-curvature="0"
   style="fill:#000000;stroke:none" />
        <path
   d="m 9389,14933 v 0 l 18,20 10,23 -3,25 -10,26 15,10 16,-31 2,-30 -15,-33 -23,-26 v 0 z"
   id="path337"
   inkscape:connector-curvature="0"
   style="fill:#000000;stroke:none" />
        <path
   d="m 9488,15029 -23,21 -15,25 -3,31 10,30 8,13 13,10 12,8 13,7 15,3 h 16 l 15,-5 13,-5 23,-21 15,-25 2,-31 -10,-30 -7,-13 -13,-10 -13,-8 -13,-5 -15,-2 h -15 l -15,2 z"
   id="path339"
   inkscape:connector-curvature="0"
   style="fill:#ffbf00;stroke:none" />
        <path
   d="m 9465,15131 v 0 l -8,-25 3,-28 13,-23 20,-18 -10,-15 -26,22 -17,28 -3,34 13,35 v 0 z"
   id="path341"
   inkscape:connector-curvature="0"
   style="fill:#000000;stroke:none" />
        <path
   d="m 9557,15159 v 0 l -11,2 -12,6 h -16 l -12,-3 -10,-5 -13,-8 -10,-7 -8,-13 -15,10 7,13 16,13 12,7 16,10 17,3 h 16 l 18,-5 15,-8 v 0 z"
   id="path343"
   inkscape:connector-curvature="0"
   style="fill:#000000;stroke:none" />
        <path
   d="m 9585,15065 v 0 l 7,25 -2,28 -13,23 -20,18 10,15 25,-23 18,-28 3,-33 -13,-35 v 0 z"
   id="path345"
   inkscape:connector-curvature="0"
   style="fill:#000000;stroke:none" />
        <path
   d="m 9493,15037 v 2 l 10,-5 13,-2 h 15 l 13,2 10,5 13,5 10,8 8,13 15,-10 -8,-13 -15,-13 -13,-10 -15,-5 -18,-3 h -15 l -18,3 -15,5 v 3 z"
   id="path347"
   inkscape:connector-curvature="0"
   style="fill:#000000;stroke:none" />
        <path
   d="m 10141,13717 -12,-7 -16,-5 h -15 -15 l -15,5 -13,7 -13,8 -10,13 -13,28 v 30 l 13,28 20,23 13,8 15,5 h 16 15 l 15,-5 13,-8 13,-8 10,-12 13,-28 v -31 l -13,-28 z"
   id="path349"
   inkscape:connector-curvature="0"
   style="fill:#ffbf00;stroke:none" />
        <path
   d="m 10040,13743 v 0 l 7,-10 13,-8 10,-5 13,-5 h 15 15 l 13,5 10,5 11,-15 -16,-10 -18,-6 h -15 -15 l -18,6 -15,10 -13,7 -13,16 v 0 z"
   id="path351"
   inkscape:connector-curvature="0"
   style="fill:#000000;stroke:none" />
        <path
   d="m 10058,13839 v 0 l -18,-20 -10,-23 v -30 l 10,-23 -16,-10 -15,33 v 30 l 15,33 23,26 v 0 z"
   id="path353"
   inkscape:connector-curvature="0"
   style="fill:#000000;stroke:none" />
        <path
   d="m 10154,13822 v 0 l -7,10 -13,7 -10,5 -13,6 h -15 -16 l -12,-6 -10,-5 -11,16 16,10 17,5 h 16 15 l 18,-5 15,-10 13,-8 12,-15 v 0 z"
   id="path355"
   inkscape:connector-curvature="0"
   style="fill:#000000;stroke:none" />
        <path
   d="m 10136,13725 v 0 l 18,20 10,23 v 31 l -10,23 15,10 16,-33 v -31 l -16,-33 -22,-25 v 0 z"
   id="path357"
   inkscape:connector-curvature="0"
   style="fill:#000000;stroke:none" />
        <path
   d="m 10131,13921 -5,30 5,28 18,26 26,15 15,5 15,3 15,-3 16,-5 12,-8 10,-10 11,-10 7,-15 5,-31 -7,-30 -18,-23 -26,-18 -15,-5 h -15 l -15,2 -13,6 -13,7 -12,10 -8,10 z"
   id="path359"
   inkscape:connector-curvature="0"
   style="fill:#ffbf00;stroke:none" />
        <path
   d="m 10177,14010 v 0 l -20,-13 -16,-20 -5,-26 5,-28 -20,-5 -5,33 5,31 20,30 31,18 v 0 z"
   id="path361"
   inkscape:connector-curvature="0"
   style="fill:#000000;stroke:none" />
        <path
   d="m 10266,13974 v 0 l -5,13 -10,7 -8,11 -10,5 -15,5 -13,2 -13,-2 -15,-5 -5,20 15,5 18,3 18,-3 15,-5 15,-10 13,-10 10,-13 10,-18 v 0 z"
   id="path363"
   inkscape:connector-curvature="0"
   style="fill:#000000;stroke:none" />
        <path
   d="m 10228,13885 v 0 l 20,15 16,18 7,28 -5,28 20,5 5,-33 -7,-33 -20,-28 -31,-20 v 0 z"
   id="path365"
   inkscape:connector-curvature="0"
   style="fill:#000000;stroke:none" />
        <path
   d="m 10141,13923 v 0 l 6,-12 7,-8 10,-10 13,-5 10,-5 13,-3 h 15 l 13,5 5,-20 -18,-5 h -15 l -18,2 -15,5 -13,11 -15,10 -8,12 -10,18 v 0 z"
   id="path367"
   inkscape:connector-curvature="0"
   style="fill:#000000;stroke:none" />
        <path
   d="m 10464,14849 21,-26 7,-28 -5,-28 -12,-28 -11,-10 -15,-10 -13,-5 -15,-3 h -15 l -15,3 -16,5 -12,10 -21,26 -7,28 5,28 13,28 12,10 13,10 13,5 15,3 h 15 l 15,-3 16,-5 z"
   id="path369"
   inkscape:connector-curvature="0"
   style="fill:#ffbf00;stroke:none" />
        <path
   d="m 10467,14744 v 0 l 10,26 5,25 -5,23 -18,23 10,15 23,-28 11,-33 -6,-30 -15,-31 v 0 z"
   id="path371"
   inkscape:connector-curvature="0"
   style="fill:#000000;stroke:none" />
        <path
   d="m 10368,14737 v 0 l 12,-10 13,-3 13,-2 h 15 l 13,2 10,3 15,10 8,7 15,-10 -13,-12 -15,-11 -15,-7 -18,-3 h -15 l -18,3 -18,7 -12,11 v 0 z"
   id="path373"
   inkscape:connector-curvature="0"
   style="fill:#000000;stroke:none" />
        <path
   d="m 10360,14833 v 0 l -10,-25 -5,-25 5,-23 18,-23 -10,-15 -23,28 -10,33 5,30 15,31 v 0 z"
   id="path375"
   inkscape:connector-curvature="0"
   style="fill:#000000;stroke:none" />
        <path
   d="m 10459,14841 v 0 l -12,10 -13,3 -13,2 h -15 l -13,-2 -10,-3 -13,-10 -10,-8 -15,11 15,12 13,11 15,7 18,3 h 15 l 18,-3 18,-7 12,-11 v 0 z"
   id="path377"
   inkscape:connector-curvature="0"
   style="fill:#000000;stroke:none" />
        <path
   d="m 9381,14414 -7,-3 h -8 l -8,3 -7,5 -5,8 v 10 l 5,7 5,8 7,3 h 8 l 8,-5 7,-6 5,-7 v -8 l -5,-7 z"
   id="path379"
   inkscape:connector-curvature="0"
   style="fill:#000000;stroke:none" />
        <path
   d="m 9358,14424 v 3 l 5,-3 3,-2 h 8 l 2,2 10,-20 -12,-3 h -8 l -13,3 -10,7 v 3 z"
   id="path381"
   inkscape:connector-curvature="0"
   style="fill:#000000;stroke:none" />
        <path
   d="m 9361,14442 v 2 l -3,-5 -2,-5 v -5 l 2,-5 -15,-10 -8,10 v 15 l 8,11 8,10 v 2 z"
   id="path383"
   inkscape:connector-curvature="0"
   style="fill:#000000;stroke:none" />
        <path
   d="m 9379,14439 v 0 l -5,3 -6,2 h -5 l -2,-2 -10,20 12,3 h 11 l 10,-8 10,-7 v 0 z"
   id="path385"
   inkscape:connector-curvature="0"
   style="fill:#000000;stroke:none" />
        <path
   d="m 9376,14424 v -2 l 3,5 2,5 v 2 l -2,5 15,11 7,-11 v -12 l -7,-10 -8,-11 v -2 z"
   id="path387"
   inkscape:connector-curvature="0"
   style="fill:#000000;stroke:none" />
        <path
   d="m 9384,14999 -8,-5 h -8 l -7,5 -8,5 -2,7 v 8 l 2,8 5,5 8,2 h 10 l 8,-2 5,-5 5,-8 v -8 l -5,-7 z"
   id="path389"
   inkscape:connector-curvature="0"
   style="fill:#000000;stroke:none" />
        <path
   d="m 9363,15009 h -2 l 5,-3 5,-2 h 3 l 5,2 10,-15 -10,-8 h -13 l -10,8 -10,8 h -3 z"
   id="path391"
   inkscape:connector-curvature="0"
   style="fill:#000000;stroke:none" />
        <path
   d="m 9363,15022 v 0 h -2 v -3 -8 l 2,-2 -20,-10 -3,12 v 8 l 6,13 7,10 v 0 z"
   id="path393"
   inkscape:connector-curvature="0"
   style="fill:#000000;stroke:none" />
        <path
   d="m 9381,15019 -2,3 v 2 h -3 -10 l -3,-2 -10,20 13,2 h 10 l 13,-5 10,-7 -3,2 z"
   id="path395"
   inkscape:connector-curvature="0"
   style="fill:#000000;stroke:none" />
        <path
   d="m 9379,15006 v 3 h 2 l 3,5 v 3 l -3,2 15,15 8,-12 v -13 l -8,-10 -7,-10 v 2 z"
   id="path397"
   inkscape:connector-curvature="0"
   style="fill:#000000;stroke:none" />
        <path
   d="m 9549,15070 -8,5 -5,8 v 7 l 3,10 7,6 8,5 h 8 l 7,-3 8,-5 2,-8 v -10 l -2,-7 -5,-6 -8,-5 h -7 z"
   id="path399"
   inkscape:connector-curvature="0"
   style="fill:#000000;stroke:none" />
        <path
   d="m 9546,15095 3,3 -3,-8 v -5 l 3,-2 3,-3 -6,-20 -12,7 -8,13 v 10 l 3,13 2,3 z"
   id="path401"
   inkscape:connector-curvature="0"
   style="fill:#000000;stroke:none" />
        <path
   d="m 9564,15098 v 0 l -2,2 h -5 l -5,-2 -6,-3 -15,11 10,7 11,8 h 10 l 12,-3 v 0 z"
   id="path403"
   inkscape:connector-curvature="0"
   style="fill:#000000;stroke:none" />
        <path
   d="m 9567,15083 h 2 v 2 10 3 h -5 l 10,20 11,-10 5,-13 v -10 l -5,-13 h 2 z"
   id="path405"
   inkscape:connector-curvature="0"
   style="fill:#000000;stroke:none" />
        <path
   d="m 9552,15080 h 2 l 3,-2 h 5 l 5,2 v 3 l 20,-11 -10,-7 -10,-8 h -10 l -13,3 h 2 z"
   id="path407"
   inkscape:connector-curvature="0"
   style="fill:#000000;stroke:none" />
        <path
   d="m 10134,13791 -8,-5 h -10 l -8,5 -5,5 -5,8 v 7 l 5,8 5,8 8,5 h 8 l 7,-5 8,-5 2,-8 v -10 l -2,-8 z"
   id="path409"
   inkscape:connector-curvature="0"
   style="fill:#000000;stroke:none" />
        <path
   d="m 10111,13801 h 2 v -2 l 6,-3 h 5 l 5,3 10,-16 -10,-7 h -16 l -10,7 -10,8 h 3 z"
   id="path411"
   inkscape:connector-curvature="0"
   style="fill:#000000;stroke:none" />
        <path
   d="m 10113,13819 v 0 l -2,-5 -3,-5 v -3 l 3,-5 -15,-10 -8,10 v 13 l 8,10 7,10 v 0 z"
   id="path413"
   inkscape:connector-curvature="0"
   style="fill:#000000;stroke:none" />
        <path
   d="m 10129,13816 h 2 l -5,3 -5,3 h -2 l -6,-3 -10,15 10,8 h 13 l 10,-8 11,-7 h 2 z"
   id="path415"
   inkscape:connector-curvature="0"
   style="fill:#000000;stroke:none" />
        <path
   d="m 10129,13799 v 2 h 2 v 3 10 l -2,2 20,11 3,-13 v -10 l -5,-13 -8,-10 v 2 z"
   id="path417"
   inkscape:connector-curvature="0"
   style="fill:#000000;stroke:none" />
        <path
   d="m 10202,13911 -2,10 2,7 6,8 7,5 h 8 l 7,-2 8,-3 5,-8 3,-10 -3,-7 -5,-8 -8,-3 -7,-2 -8,2 -7,3 z"
   id="path419"
   inkscape:connector-curvature="0"
   style="fill:#000000;stroke:none" />
        <path
   d="m 10218,13931 h 2 l -5,-3 -2,-5 -3,-2 3,-8 -21,-5 -2,13 2,12 8,11 10,7 h 3 z"
   id="path421"
   inkscape:connector-curvature="0"
   style="fill:#000000;stroke:none" />
        <path
   d="m 10233,13926 v -3 5 h -5 l -5,3 h -5 l -5,20 h 10 l 10,-2 10,-5 10,-11 v -2 z"
   id="path423"
   inkscape:connector-curvature="0"
   style="fill:#000000;stroke:none" />
        <path
   d="m 10225,13911 h 5 3 v 5 l 3,2 -3,8 20,5 3,-13 -3,-13 -10,-10 -13,-5 h 6 z"
   id="path425"
   inkscape:connector-curvature="0"
   style="fill:#000000;stroke:none" />
        <path
   d="m 10213,13913 v 3 -5 h 5 l 5,-3 2,3 11,-21 -13,-2 -10,2 -11,5 -10,10 v 3 z"
   id="path427"
   inkscape:connector-curvature="0"
   style="fill:#000000;stroke:none" />
        <path
   d="m 10396,14821 5,-8 2,-7 v -8 l -5,-8 -7,-5 -8,-2 h -8 l -7,5 -5,7 -3,8 v 8 l 5,7 8,5 7,3 h 8 z"
   id="path429"
   inkscape:connector-curvature="0"
   style="fill:#000000;stroke:none" />
        <path
   d="m 10391,14795 v 0 l 2,5 v 6 l -2,2 v 5 l 10,15 10,-10 3,-12 v -11 l -8,-10 v 0 z"
   id="path431"
   inkscape:connector-curvature="0"
   style="fill:#000000;stroke:none" />
        <path
   d="m 10373,14795 v 0 l 5,-2 h 5 l 3,2 h 5 l 15,-10 -10,-10 -13,-3 h -10 l -10,8 v 0 z"
   id="path433"
   inkscape:connector-curvature="0"
   style="fill:#000000;stroke:none" />
        <path
   d="m 10373,14813 v 0 l -3,-5 v -5 l 3,-3 v -5 l -10,-15 -10,10 -3,13 v 10 l 8,10 v 0 z"
   id="path435"
   inkscape:connector-curvature="0"
   style="fill:#000000;stroke:none" />
        <path
   d="m 10391,14813 v 0 l -5,3 h -6 l -2,-3 h -5 l -15,10 10,10 12,3 h 11 l 10,-8 v 0 z"
   id="path437"
   inkscape:connector-curvature="0"
   style="fill:#000000;stroke:none" />
        <path
   d="m 10019,14579 18,-5 15,10 6,18 -16,26 26,17 20,31 13,35 -5,39 -16,20 -25,20 -38,18 -46,5 -51,-5 -56,-23 -61,-43 -58,-69 -28,-43 -23,-43 -15,-41 -13,-35 -8,-33 -5,-26 -5,-20 -2,-15 5,-28 12,-36 16,-36 17,-35 26,-31 28,-28 35,-15 39,-8 38,5 28,11 25,17 15,23 13,23 8,23 v 23 18 38 l 7,46 13,48 15,41 -17,7 -21,10 -20,8 -20,8 -21,5 -20,2 -18,-2 -18,-10 10,23 13,22 15,18 21,15 25,8 31,-5 33,-15 z"
   id="path439"
   inkscape:connector-curvature="0"
   style="fill:#ffffff;stroke:none" />
        <path
   d="m 10047,14617 3,18 18,-30 -8,-26 -23,-15 -23,8 10,15 13,-3 8,5 2,11 -12,20 2,18 -2,-18 -3,8 3,7 7,3 8,-3 z"
   id="path441"
   inkscape:connector-curvature="0"
   style="fill:#000000;stroke:none" />
        <path
   d="m 10106,14752 v 0 l 5,-41 -13,-40 -23,-33 -28,-21 -10,21 23,15 18,28 13,30 -5,36 v 0 z"
   id="path443"
   inkscape:connector-curvature="0"
   style="fill:#000000;stroke:none" />
        <path
   d="m 9737,14678 v 0 l 59,72 63,43 59,25 53,5 48,-5 41,-20 28,-20 18,-26 -20,-5 -13,15 -23,21 -36,15 -43,5 -48,-5 -54,-20 -58,-44 -59,-66 v 0 z"
   id="path445"
   inkscape:connector-curvature="0"
   style="fill:#000000;stroke:none" />
        <path
   d="m 9635,14417 v 2 l 3,13 5,20 5,26 8,35 12,36 16,40 25,46 28,43 15,-10 -28,-43 -20,-41 -15,-40 -13,-36 -8,-30 -5,-26 -5,-20 -2,-18 v 3 -3 l -5,-8 h -8 l -5,5 -3,8 z"
   id="path447"
   inkscape:connector-curvature="0"
   style="fill:#000000;stroke:none" />
        <path
   d="m 9824,14190 v 0 l -41,8 -38,18 -31,28 -25,33 -21,38 -15,35 -12,36 -6,31 h 21 l 5,-26 13,-36 15,-35 15,-33 26,-28 25,-28 33,-13 36,-7 v 0 z"
   id="path449"
   inkscape:connector-curvature="0"
   style="fill:#000000;stroke:none" />
        <path
   d="m 9961,14343 v 0 -18 -23 l -8,-25 -15,-26 -15,-25 -28,-18 -31,-13 -40,-5 v 21 l 35,5 26,7 23,18 15,20 10,21 8,20 v 23 18 0 0 l 2,7 8,3 7,-3 z"
   id="path451"
   inkscape:connector-curvature="0"
   style="fill:#000000;stroke:none" />
        <path
   d="m 9989,14526 8,-13 -16,-41 -12,-45 -8,-46 v -38 h -20 v 38 l 7,46 13,51 15,40 8,-13 -8,13 5,5 8,3 5,-5 3,-8 z"
   id="path453"
   inkscape:connector-curvature="0"
   style="fill:#000000;stroke:none" />
        <path
   d="m 9841,14541 -15,10 20,13 21,3 20,-3 23,-5 20,-8 21,-7 20,-11 18,-7 -5,-21 -18,8 -20,10 -21,8 -20,8 -18,5 -20,2 -15,-2 -16,-8 -15,10 15,-10 h -7 l -5,3 -3,7 5,5 z"
   id="path455"
   inkscape:connector-curvature="0"
   style="fill:#000000;stroke:none" />
        <path
   d="m 10014,14572 h -2 l -38,30 -31,13 -28,5 -20,-8 -18,-12 -15,-16 -10,-23 -11,-20 -20,5 10,26 15,22 16,21 23,18 30,7 33,-5 36,-18 43,-30 h -3 3 l 3,-8 -3,-7 -8,-3 -7,3 z"
   id="path457"
   inkscape:connector-curvature="0"
   style="fill:#000000;stroke:none" />
        <path
   d="m 9951,14343 v -28 l -8,-36 -18,-33 -30,-28 10,-23 15,-17 21,-11 22,-2 23,5 21,13 17,17 16,26 7,28 v 25 l -5,23 -10,20 -15,13 -18,10 -23,3 z"
   id="path459"
   inkscape:connector-curvature="0"
   style="fill:#3f0000;stroke:none" />
        <path
   d="m 9885,14216 5,10 28,25 15,31 8,33 v 28 h 20 v -28 l -8,-38 -20,-36 -33,-30 5,10 -5,-10 h -8 l -5,2 -2,8 5,5 z"
   id="path461"
   inkscape:connector-curvature="0"
   style="fill:#000000;stroke:none" />
        <path
   d="m 10050,14223 v 0 l -18,-28 -20,-20 -23,-15 -26,-5 -25,2 -23,13 -18,20 -12,26 20,5 8,-21 12,-15 18,-7 20,-3 21,5 18,10 15,15 13,23 v 0 z"
   id="path463"
   inkscape:connector-curvature="0"
   style="fill:#000000;stroke:none" />
        <path
   d="m 9941,14343 7,10 28,5 26,-3 20,-12 18,-15 12,-23 6,-26 v -25 l -8,-31 -20,5 7,26 v 25 l -5,21 -8,17 -12,11 -15,7 -21,3 -23,-5 8,10 -8,-10 -7,2 -5,5 2,8 5,5 z"
   id="path465"
   inkscape:connector-curvature="0"
   style="fill:#000000;stroke:none" />
        <path
   d="m 9679,14404 5,-13 2,-15 -5,-18 -10,-18 -13,-15 -17,-10 -21,-3 -25,3 -41,23 -20,33 -3,38 10,41 23,43 36,20 h 38 l 36,-10 28,-23 12,-25 -5,-28 z"
   id="path467"
   inkscape:connector-curvature="0"
   style="fill:#3f0000;stroke:none" />
        <path
   d="m 9597,14325 v 0 l 23,-3 18,3 15,8 10,12 8,16 5,15 -2,13 -3,7 15,15 8,-17 2,-18 -5,-21 -12,-20 -16,-18 -20,-12 -23,-3 -28,3 v 0 z"
   id="path469"
   inkscape:connector-curvature="0"
   style="fill:#000000;stroke:none" />
        <path
   d="m 9552,14447 v 0 l -11,-38 3,-36 18,-28 35,-20 -5,-20 -46,25 -22,38 -3,41 10,43 v 0 z"
   id="path471"
   inkscape:connector-curvature="0"
   style="fill:#000000;stroke:none" />
        <path
   d="m 9671,14396 5,18 26,18 2,23 -10,20 -26,20 -30,8 h -36 l -30,-18 -20,-38 -21,5 26,48 40,23 h 41 l 41,-12 30,-26 15,-30 -7,-33 -36,-28 5,17 -5,-17 -7,2 -6,5 3,8 5,5 z"
   id="path473"
   inkscape:connector-curvature="0"
   style="fill:#000000;stroke:none" />
        <path
   d="m 9846,14381 8,-10 3,-13 2,-13 -2,-15 7,3 10,2 h 13 l 15,3 h 13 l 13,-3 10,-2 8,-3 10,-5 7,-5 11,-5 7,-5 10,-3 h 13 13 l 15,5 15,8 16,13 12,17 8,21 v 23 l -5,20 -15,20 -28,18 -26,10 -28,5 h -25 l -23,-5 -25,-12 -21,-18 -23,-23 z"
   id="path475"
   inkscape:connector-curvature="0"
   style="fill:#007fff;stroke:none" />
        <path
   d="m 9859,14320 -13,10 3,15 -3,13 -2,10 -5,8 15,10 10,-13 3,-15 2,-13 -2,-15 -13,10 13,-10 -3,-8 -7,-2 -8,2 -3,8 z"
   id="path477"
   inkscape:connector-curvature="0"
   style="fill:#000000;stroke:none" />
        <path
   d="m 9941,14320 v 2 h -6 l -7,3 -13,3 h -13 l -15,-3 h -13 l -7,-3 -8,-2 -5,20 8,3 12,2 h 13 l 15,3 h 13 l 13,-3 13,-2 10,-5 v 2 -2 l 5,-5 -3,-8 -5,-3 h -7 z"
   id="path479"
   inkscape:connector-curvature="0"
   style="fill:#000000;stroke:none" />
        <path
   d="m 10035,14302 v 0 l -18,-5 h -13 -13 l -12,3 -10,7 -11,5 -7,5 -10,3 10,20 10,-7 8,-5 10,-6 5,-2 7,-3 h 13 13 l 13,5 v 0 z"
   id="path481"
   inkscape:connector-curvature="0"
   style="fill:#000000;stroke:none" />
        <path
   d="m 10040,14462 h -3 l 31,-20 20,-23 5,-25 v -23 l -10,-26 -13,-20 -18,-13 -17,-10 -5,20 12,6 13,12 13,15 5,16 v 23 l -5,15 -10,18 -26,15 h -2 z"
   id="path483"
   inkscape:connector-curvature="0"
   style="fill:#000000;stroke:none" />
        <path
   d="m 9839,14376 v 10 l 18,28 23,25 22,18 28,15 26,6 h 25 l 31,-6 28,-10 -10,-20 -23,10 -26,5 h -25 l -21,-5 -22,-10 -18,-18 -23,-20 -18,-28 v 10 -10 l -5,-5 -5,2 -5,5 v 8 z"
   id="path485"
   inkscape:connector-curvature="0"
   style="fill:#000000;stroke:none" />
        <path
   d="m 9986,14516 -17,7 -21,10 -20,8 -20,8 -21,5 -20,2 -18,-2 -18,-10 10,23 13,22 15,18 21,15 25,8 31,-5 33,-15 40,-31 z"
   id="path487"
   inkscape:connector-curvature="0"
   style="fill:#bf003f;stroke:none" />
        <path
   d="m 9841,14541 -15,10 20,13 21,3 20,-3 23,-5 20,-8 21,-7 20,-11 18,-7 -5,-21 -18,8 -20,10 -21,8 -20,8 -18,5 -20,2 -15,-2 -16,-8 -15,10 15,-10 h -7 l -5,3 -3,7 5,5 z"
   id="path489"
   inkscape:connector-curvature="0"
   style="fill:#000000;stroke:none" />
        <path
   d="m 10012,14584 v -12 l -38,30 -31,13 -28,5 -20,-8 -18,-12 -15,-16 -10,-23 -11,-20 -20,5 10,26 15,22 16,21 23,18 30,7 33,-5 36,-18 43,-30 v -13 13 l 3,-8 -3,-7 -8,-3 -7,3 z"
   id="path491"
   inkscape:connector-curvature="0"
   style="fill:#000000;stroke:none" />
        <path
   d="m 9989,14526 -10,-5 33,63 15,-10 -33,-63 -10,-6 10,6 -5,-6 -5,3 -5,5 v 8 z"
   id="path493"
   inkscape:connector-curvature="0"
   style="fill:#000000;stroke:none" />
        <path
   d="m 9808,14551 18,-2 15,-5 16,-11 12,-10 11,-12 7,-16 3,-15 2,-18 -2,-18 -5,-15 -11,-15 -10,-13 -12,-10 -16,-8 -15,-2 -18,-3 -18,3 -15,5 -15,10 -13,10 -10,13 -8,15 -5,16 v 17 l 3,18 5,15 10,16 10,12 13,11 15,7 16,3 z"
   id="path495"
   inkscape:connector-curvature="0"
   style="fill:#bf003f;stroke:none" />
        <path
   d="m 9882,14462 v 0 l -2,18 -3,13 -5,12 -10,11 -10,10 -16,7 -12,6 -16,2 v 20 l 21,-2 17,-5 16,-13 15,-10 10,-15 10,-18 3,-18 2,-18 v 0 z"
   id="path497"
   inkscape:connector-curvature="0"
   style="fill:#000000;stroke:none" />
        <path
   d="m 9803,14389 v 0 l 18,2 13,3 12,5 11,10 10,10 7,15 6,13 2,15 h 20 l -2,-20 -5,-18 -13,-15 -10,-15 -15,-11 -18,-10 -18,-2 -18,-3 v 0 z"
   id="path499"
   inkscape:connector-curvature="0"
   style="fill:#000000;stroke:none" />
        <path
   d="m 9730,14467 v 0 -17 l 5,-13 5,-13 10,-10 10,-10 15,-8 13,-5 15,-2 v -21 l -20,3 -18,5 -15,13 -15,10 -11,15 -10,18 -5,18 v 17 0 z"
   id="path501"
   inkscape:connector-curvature="0"
   style="fill:#000000;stroke:none" />
        <path
   d="m 9808,14541 v 0 l -17,-2 -13,-3 -13,-5 -10,-10 -10,-10 -8,-16 -5,-12 -2,-16 h -21 l 3,21 5,17 13,16 10,15 15,10 18,10 18,3 17,2 v 0 z"
   id="path503"
   inkscape:connector-curvature="0"
   style="fill:#000000;stroke:none" />
        <path
   d="m 9371,14422 -8,2 -5,5 3,8 5,5 z"
   id="path505"
   inkscape:connector-curvature="0"
   style="fill:#000000;stroke:none" />
        <path
   d="m 9356,14340 18,26 5,30 -5,23 -3,3 -5,20 23,-13 10,-33 -5,-35 -28,-36 z"
   id="path507"
   inkscape:connector-curvature="0"
   style="fill:#000000;stroke:none" />
        <path
   d="m 9366,14325 h -8 l -5,3 -2,7 5,5 z"
   id="path509"
   inkscape:connector-curvature="0"
   style="fill:#000000;stroke:none" />
        <path
   d="m 9371,15006 -8,3 -2,8 2,7 8,3 z"
   id="path511"
   inkscape:connector-curvature="0"
   style="fill:#000000;stroke:none" />
        <path
   d="m 9358,14922 21,26 5,30 -5,23 -8,5 v 21 l 23,-16 10,-33 -5,-35 -31,-36 z"
   id="path513"
   inkscape:connector-curvature="0"
   style="fill:#000000;stroke:none" />
        <path
   d="m 9368,14907 h -7 l -5,3 -3,7 5,5 z"
   id="path515"
   inkscape:connector-curvature="0"
   style="fill:#000000;stroke:none" />
        <path
   d="m 9552,15083 v 7 l 5,5 5,3 5,-5 z"
   id="path517"
   inkscape:connector-curvature="0"
   style="fill:#000000;stroke:none" />
        <path
   d="m 9470,15060 13,-5 h 20 l 15,2 13,5 10,8 8,8 v 2 l 3,3 15,10 2,-13 -5,-13 -12,-12 -11,-8 -17,-10 -21,-3 h -20 l -23,10 z"
   id="path519"
   inkscape:connector-curvature="0"
   style="fill:#000000;stroke:none" />
        <path
   d="m 9460,15044 -5,6 2,5 6,5 h 7 z"
   id="path521"
   inkscape:connector-curvature="0"
   style="fill:#000000;stroke:none" />
        <path
   d="m 10121,13799 -8,2 -2,8 2,7 8,3 z"
   id="path523"
   inkscape:connector-curvature="0"
   style="fill:#000000;stroke:none" />
        <path
   d="m 10106,13715 20,25 5,31 -5,23 -5,5 v 20 l 20,-15 11,-33 -5,-36 -31,-35 z"
   id="path525"
   inkscape:connector-curvature="0"
   style="fill:#000000;stroke:none" />
        <path
   d="m 10116,13700 h -8 l -5,2 -2,8 5,5 z"
   id="path527"
   inkscape:connector-curvature="0"
   style="fill:#000000;stroke:none" />
        <path
   d="m 10213,13921 2,7 8,3 7,-3 3,-7 z"
   id="path529"
   inkscape:connector-curvature="0"
   style="fill:#000000;stroke:none" />
        <path
   d="m 10136,13954 8,-15 10,-11 13,-7 15,-3 15,-2 11,2 2,3 h 3 20 l -8,-16 -12,-7 -16,-3 -15,3 -20,2 -18,13 -15,15 -13,21 z"
   id="path531"
   inkscape:connector-curvature="0"
   style="fill:#000000;stroke:none" />
        <path
   d="m 10116,13949 3,7 5,5 7,-2 5,-5 z"
   id="path533"
   inkscape:connector-curvature="0"
   style="fill:#000000;stroke:none" />
        <path
   d="m 10393,14806 -2,-8 -5,-5 h -8 l -5,7 z"
   id="path535"
   inkscape:connector-curvature="0"
   style="fill:#000000;stroke:none" />
        <path
   d="m 10477,14816 -15,7 -15,5 h -18 l -13,-5 -13,-2 -7,-8 -3,-5 v -2 l -20,-6 v 13 l 7,10 13,13 18,8 18,5 h 18 l 20,-5 20,-13 z"
   id="path537"
   inkscape:connector-curvature="0"
   style="fill:#000000;stroke:none" />
        <path
   d="m 10487,14831 5,-5 -2,-8 -5,-2 h -8 z"
   id="path539"
   inkscape:connector-curvature="0"
   style="fill:#000000;stroke:none" />
        <path
   d="m 9686,14409 v -8 l -2,-5 -8,-2 -5,5 z"
   id="path541"
   inkscape:connector-curvature="0"
   style="fill:#000000;stroke:none" />
        <path
   d="m 9590,14409 10,13 13,7 15,8 h 13 l 12,-3 15,-7 11,-8 7,-10 -15,-10 -8,5 -5,7 -10,3 -7,3 h -13 l -5,-3 -13,-8 -5,-7 z"
   id="path543"
   inkscape:connector-curvature="0"
   style="fill:#000000;stroke:none" />
        <path
   d="m 9605,14399 -5,-5 -5,2 -5,5 v 8 z"
   id="path545"
   inkscape:connector-curvature="0"
   style="fill:#000000;stroke:none" />
        <path
   d="m 9839,14376 v 7 l 5,6 5,2 5,-5 z"
   id="path547"
   inkscape:connector-curvature="0"
   style="fill:#000000;stroke:none" />
        <path
   d="m 9846,14330 v 0 l 3,15 -3,13 -2,10 -5,8 15,10 10,-13 3,-15 2,-13 -2,-15 v 0 z"
   id="path549"
   inkscape:connector-curvature="0"
   style="fill:#000000;stroke:none" />
        <path
   d="m 9826,14284 8,8 5,10 5,13 2,15 h 21 l -3,-20 -5,-18 -10,-10 -13,-13 z"
   id="path551"
   inkscape:connector-curvature="0"
   style="fill:#000000;stroke:none" />
        <path
   d="m 9836,14269 h -7 l -5,3 -3,7 5,5 z"
   id="path553"
   inkscape:connector-curvature="0"
   style="fill:#000000;stroke:none" />
        <path
   d="m 9831,14277 -15,-8 -15,-2 -16,2 -12,8 -13,12 -10,16 -8,17 -2,23 5,21 7,17 16,11 15,7 18,3 18,-3 15,-7 12,-13 z"
   id="path555"
   inkscape:connector-curvature="0"
   style="fill:#ffffff;stroke:none" />
        <path
   d="m 9826,14284 h 8 l 5,-5 2,-5 -5,-5 z"
   id="path557"
   inkscape:connector-curvature="0"
   style="fill:#000000;stroke:none" />
        <path
   d="m 9750,14345 v 0 l 2,-20 5,-15 11,-16 10,-10 10,-5 13,-2 12,2 13,5 10,-15 -17,-10 -18,-3 -18,3 -15,10 -16,15 -10,16 -10,20 -2,25 v 0 z"
   id="path559"
   inkscape:connector-curvature="0"
   style="fill:#000000;stroke:none" />
        <path
   d="m 9839,14376 -10,10 -13,5 -15,3 -16,-3 -12,-5 -13,-8 -5,-15 -5,-18 h -20 l 5,23 10,21 18,12 17,10 21,3 20,-3 18,-10 15,-15 z"
   id="path561"
   inkscape:connector-curvature="0"
   style="fill:#000000;stroke:none" />
        <path
   d="m 9854,14386 v -8 l -2,-5 -8,-2 -5,5 z"
   id="path563"
   inkscape:connector-curvature="0"
   style="fill:#000000;stroke:none" />
        <path
   d="m 9857,14330 -3,-18 -5,-15 -8,-10 -10,-10 13,-13 15,-8 h 18 l 20,3 21,10 15,15 10,21 3,25 -8,3 -10,2 -13,3 h -13 l -15,-3 h -13 l -10,-2 z"
   id="path565"
   inkscape:connector-curvature="0"
   style="fill:#ffffff;stroke:none" />
        <path
   d="m 9824,14272 2,12 8,8 5,10 5,13 2,15 h 21 l -3,-20 -5,-18 -10,-10 -13,-13 3,13 -3,-13 h -7 l -5,3 -3,7 5,5 z"
   id="path567"
   inkscape:connector-curvature="0"
   style="fill:#000000;stroke:none" />
        <path
   d="m 9951,14338 5,-8 -3,-28 -12,-23 -18,-18 -23,-12 -23,-3 h -20 l -18,10 -15,16 15,10 10,-10 13,-5 h 15 l 18,2 18,8 12,12 8,18 2,23 6,-8 -6,8 3,8 8,2 7,-2 3,-8 z"
   id="path569"
   inkscape:connector-curvature="0"
   style="fill:#000000;stroke:none" />
        <path
   d="m 9846,14330 8,10 8,3 12,2 h 13 l 15,3 h 13 l 13,-3 13,-2 10,-5 -10,-16 h -6 l -7,3 -13,3 h -13 l -15,-3 h -13 l -7,-3 -8,-2 8,10 -8,-10 -7,2 -6,6 3,7 5,5 z"
   id="path571"
   inkscape:connector-curvature="0"
   style="fill:#000000;stroke:none" />
        <path
   d="m 9819,14350 7,-2 8,-5 2,-8 3,-10 -3,-8 -2,-7 -8,-3 -7,-2 -8,2 -5,5 -5,5 -3,11 3,10 5,5 5,5 z"
   id="path573"
   inkscape:connector-curvature="0"
   style="fill:#000000;stroke:none" />
        <path
   d="m 9887,14317 8,-5 2,-7 3,-8 -3,-8 -5,-7 -7,-5 -8,-3 h -8 l -7,5 -3,8 -2,7 2,11 5,7 8,5 8,3 z"
   id="path575"
   inkscape:connector-curvature="0"
   style="fill:#000000;stroke:none" />
       </g>
      </g>
     </g>
    </g>
   </g>
  </g>
 </g>
</svg>