<?xml version="1.0" encoding="UTF-8" standalone="no"?>
<svg
   xmlns:ooo="http://xml.openoffice.org/svg/export"
   xmlns:dc="http://purl.org/dc/elements/1.1/"
   xmlns:cc="http://creativecommons.org/ns#"
   xmlns:rdf="http://www.w3.org/1999/02/22-rdf-syntax-ns#"
   xmlns:svg="http://www.w3.org/2000/svg"
   xmlns="http://www.w3.org/2000/svg"
   xmlns:sodipodi="http://sodipodi.sourceforge.net/DTD/sodipodi-0.dtd"
   xmlns:inkscape="http://www.inkscape.org/namespaces/inkscape"
   version="1.2"
   width="31.450001mm"
   height="27.030001mm"
   viewBox="0 0 3145.0001 2703.0001"
   preserveAspectRatio="xMidYMid"
   xml:space="preserve"
   id="svg215"
   sodipodi:docname="headdonk.svg"
   style="fill-rule:evenodd;stroke-width:28.22200012;stroke-linejoin:round"
   inkscape:version="0.92.5 (2060ec1f9f, 2020-04-08)"><metadata
   id="metadata219"><rdf:RDF><cc:Work
       rdf:about=""><dc:format>image/svg+xml</dc:format><dc:type
         rdf:resource="http://purl.org/dc/dcmitype/StillImage" /></cc:Work></rdf:RDF></metadata><sodipodi:namedview
   pagecolor="#ffffff"
   bordercolor="#666666"
   borderopacity="1"
   objecttolerance="10"
   gridtolerance="10"
   guidetolerance="10"
   inkscape:pageopacity="0"
   inkscape:pageshadow="2"
   inkscape:window-width="664"
   inkscape:window-height="487"
   id="namedview217"
   showgrid="false"
   inkscape:zoom="0.2102413"
   inkscape:cx="59.451969"
   inkscape:cy="51.061416"
   inkscape:window-x="0"
   inkscape:window-y="0"
   inkscape:window-maximized="0"
   inkscape:current-layer="svg215" />
 <defs
   class="ClipPathGroup"
   id="defs8">
  <clipPath
   id="presentation_clip_path"
   clipPathUnits="userSpaceOnUse">
   <rect
   x="0"
   y="0"
   width="21000"
   height="29700"
   id="rect2" />
  </clipPath>
  <clipPath
   id="presentation_clip_path_shrink"
   clipPathUnits="userSpaceOnUse">
   <rect
   x="21"
   y="29"
   width="20958"
   height="29641"
   id="rect5" />
  </clipPath>
 </defs>
 <defs
   class="TextShapeIndex"
   id="defs12">
  <g
   ooo:slide="id1"
   ooo:id-list="id3"
   id="g10" />
 </defs>
 <defs
   class="EmbeddedBulletChars"
   id="defs44">
  <g
   id="bullet-char-template-57356"
   transform="matrix(4.8828125e-4,0,0,-4.8828125e-4,0,0)">
   <path
   d="M 580,1141 1163,571 580,0 -4,571 Z"
   id="path14"
   inkscape:connector-curvature="0" />
  </g>
  <g
   id="bullet-char-template-57354"
   transform="matrix(4.8828125e-4,0,0,-4.8828125e-4,0,0)">
   <path
   d="M 8,1128 H 1137 V 0 H 8 Z"
   id="path17"
   inkscape:connector-curvature="0" />
  </g>
  <g
   id="bullet-char-template-10146"
   transform="matrix(4.8828125e-4,0,0,-4.8828125e-4,0,0)">
   <path
   d="M 174,0 602,739 174,1481 1456,739 Z M 1358,739 309,1346 659,739 Z"
   id="path20"
   inkscape:connector-curvature="0" />
  </g>
  <g
   id="bullet-char-template-10132"
   transform="matrix(4.8828125e-4,0,0,-4.8828125e-4,0,0)">
   <path
   d="M 2015,739 1276,0 H 717 l 543,543 H 174 v 393 h 1086 l -543,545 h 557 z"
   id="path23"
   inkscape:connector-curvature="0" />
  </g>
  <g
   id="bullet-char-template-10007"
   transform="matrix(4.8828125e-4,0,0,-4.8828125e-4,0,0)">
   <path
   d="m 0,-2 c -7,16 -16,29 -25,39 l 381,530 c -94,256 -141,385 -141,387 0,25 13,38 40,38 9,0 21,-2 34,-5 21,4 42,12 65,25 l 27,-13 111,-251 280,301 64,-25 24,25 c 21,-10 41,-24 62,-43 C 886,937 835,863 770,784 769,783 710,716 594,584 L 774,223 c 0,-27 -21,-55 -63,-84 l 16,-20 C 717,90 699,76 672,76 641,76 570,178 457,381 L 164,-76 c -22,-34 -53,-51 -92,-51 -42,0 -63,17 -64,51 -7,9 -10,24 -10,44 0,9 1,19 2,30 z"
   id="path26"
   inkscape:connector-curvature="0" />
  </g>
  <g
   id="bullet-char-template-10004"
   transform="matrix(4.8828125e-4,0,0,-4.8828125e-4,0,0)">
   <path
   d="M 285,-33 C 182,-33 111,30 74,156 52,228 41,333 41,471 c 0,78 14,145 41,201 34,71 87,106 158,106 53,0 88,-31 106,-94 l 23,-176 c 8,-64 28,-97 59,-98 l 735,706 c 11,11 33,17 66,17 42,0 63,-15 63,-46 V 965 c 0,-36 -10,-64 -30,-84 L 442,47 C 390,-6 338,-33 285,-33 Z"
   id="path29"
   inkscape:connector-curvature="0" />
  </g>
  <g
   id="bullet-char-template-9679"
   transform="matrix(4.8828125e-4,0,0,-4.8828125e-4,0,0)">
   <path
   d="M 813,0 C 632,0 489,54 383,161 276,268 223,411 223,592 c 0,181 53,324 160,431 106,107 249,161 430,161 179,0 323,-54 432,-161 108,-107 162,-251 162,-431 0,-180 -54,-324 -162,-431 C 1136,54 992,0 813,0 Z"
   id="path32"
   inkscape:connector-curvature="0" />
  </g>
  <g
   id="bullet-char-template-8226"
   transform="matrix(4.8828125e-4,0,0,-4.8828125e-4,0,0)">
   <path
   d="m 346,457 c -73,0 -137,26 -191,78 -54,51 -81,114 -81,188 0,73 27,136 81,188 54,52 118,78 191,78 73,0 134,-26 185,-79 51,-51 77,-114 77,-187 0,-75 -25,-137 -76,-188 -50,-52 -112,-78 -186,-78 z"
   id="path35"
   inkscape:connector-curvature="0" />
  </g>
  <g
   id="bullet-char-template-8211"
   transform="matrix(4.8828125e-4,0,0,-4.8828125e-4,0,0)">
   <path
   d="M -4,459 H 1135 V 606 H -4 Z"
   id="path38"
   inkscape:connector-curvature="0" />
  </g>
  <g
   id="bullet-char-template-61548"
   transform="matrix(4.8828125e-4,0,0,-4.8828125e-4,0,0)">
   <path
   d="m 173,740 c 0,163 58,303 173,419 116,115 255,173 419,173 163,0 302,-58 418,-173 116,-116 174,-256 174,-419 0,-163 -58,-303 -174,-418 C 1067,206 928,148 765,148 601,148 462,206 346,322 231,437 173,577 173,740 Z"
   id="path41"
   inkscape:connector-curvature="0" />
  </g>
 </defs>
 <g
   id="g49"
   transform="translate(-8927,-13498)">
  <g
   id="id2"
   class="Master_Slide">
   <g
   id="bg-id2"
   class="Background" />
   <g
   id="bo-id2"
   class="BackgroundObjects" />
  </g>
 </g>
 <g
   class="SlideGroup"
   id="g213"
   transform="translate(-8927,-13498)">
  <g
   id="g211">
   <g
   id="container-id1">
    <g
   id="id1"
   class="Slide"
   clip-path="url(#presentation_clip_path)">
     <g
   class="Page"
   id="g207">
      <g
   class="Graphic"
   id="g205">
       <g
   id="id3">
        <rect
   class="BoundingBox"
   x="8927"
   y="13498"
   width="3145"
   height="2703"
   id="rect51"
   style="fill:none;stroke:none" />
        <defs
   id="defs56">
         <clipPath
   id="clip_path_1"
   clipPathUnits="userSpaceOnUse">
          <path
   d="m 8927,13498 h 3144 v 2702 H 8927 Z"
   id="path53"
   inkscape:connector-curvature="0" />
         </clipPath>
        </defs>
        <g
   clip-path="url(#clip_path_1)"
   id="g202">
         <path
   d="m 8927,14861 18,2 18,8 17,5 18,10 15,8 18,8 18,7 15,5 28,8 28,5 28,3 28,5 28,5 28,5 28,7 25,13 3,18 10,13 10,12 16,11 15,10 18,7 15,5 15,6 21,7 17,10 21,13 17,13 21,13 18,15 17,15 18,15 13,21 8,23 7,25 18,18 v 66 66 69 66 l 23,38 20,41 18,40 18,41 12,41 13,43 13,43 10,43 8,46 -3,48 -7,44 -16,45 -20,44 -25,40 -28,38 -34,36 -2,5 v 5 10 8 l 41,-36 33,-38 30,-40 26,-44 25,-43 23,-46 23,-45 25,-46 8,-10 10,-16 10,-12 8,-13 38,-66 30,-66 31,-66 28,-69 28,-66 33,-66 38,-61 43,-59 3,-7 v -8 -8 l 2,-5 16,-12 15,-16 15,-15 13,-15 8,-10 10,-13 10,-3 15,11 8,10 5,10 7,13 11,10 20,20 20,20 18,18 15,15 16,18 15,18 15,18 15,20 5,3 h 11 7 3 l 5,40 v 41 l -3,41 v 40 l -20,11 -15,15 -8,20 -8,16 -7,30 v 31 l 5,30 10,28 10,31 16,28 17,30 16,28 17,20 21,16 20,15 15,20 23,5 18,8 18,5 18,5 17,5 18,3 18,2 20,-2 v 18 l -2,15 2,12 3,8 20,8 23,2 h 23 l 20,-7 18,-8 10,-15 5,-23 -2,-26 h 7 8 8 l 5,-2 23,-15 12,-13 11,-13 15,-20 7,-13 8,-23 10,-20 5,-8 18,-5 15,-7 13,-5 13,-11 7,-7 11,-13 5,-13 5,-18 5,-33 2,-38 -10,-35 -25,-21 v -48 l 5,-41 10,-43 15,-53 8,-49 2,-48 -5,-51 -12,-53 10,-66 5,-56 2,-56 -2,-69 13,-7 12,-18 11,-15 15,-3 2,-23 v -25 -21 l -5,-17 -12,-31 -8,-31 -13,-27 -23,-21 v -38 l -5,-36 -7,-35 -3,-38 18,-8 15,-8 18,-7 15,-10 15,-11 18,-7 15,-5 21,-5 -15,-31 -13,-23 -15,-20 -16,-15 -12,-16 -16,-12 -15,-16 -15,-17 -3,-11 -2,-10 2,-10 v -13 l 64,5 61,3 63,-3 61,-7 61,-8 61,-12 62,-13 61,-15 61,-13 61,-15 61,-16 61,-12 61,-13 61,-10 63,-8 61,-2 13,2 15,8 15,12 16,13 10,-10 10,-5 h 13 12 v -26 l -2,-27 -8,-26 -15,-28 -13,-15 -15,-10 -18,-10 -12,-16 -11,-10 -10,-10 -12,-8 -16,-7 -15,-5 -15,-8 -18,-5 -15,-8 -21,-7 -17,-8 -23,-3 -21,-2 -20,-3 h -20 l -21,-2 -20,-3 -51,-5 -48,-2 -51,-3 -51,3 -48,2 -51,5 -51,10 -51,11 -23,7 -22,8 -23,10 -21,10 -20,13 -18,13 -20,15 -18,15 -5,3 h -8 -7 -8 v 10 l -3,7 -5,8 -7,3 -26,7 -25,10 -25,13 -23,15 -23,16 -21,20 -20,18 -18,20 -18,-13 -20,-15 -18,-15 -17,-15 -8,-3 h -8 l -7,3 h -8 l 8,-44 23,-30 33,-25 38,-18 43,-18 43,-15 41,-16 35,-20 21,-13 20,-12 23,-11 20,-10 21,-12 20,-16 18,-17 15,-21 23,-35 23,-33 25,-31 28,-31 28,-27 31,-26 33,-25 33,-26 15,-7 18,-5 18,-6 20,-2 18,-3 18,-2 17,-8 18,-7 18,-13 15,-15 3,-18 -8,-21 -5,-7 -10,-8 -10,-5 h -16 l -35,8 -33,10 -36,8 -35,7 -33,8 -33,7 -36,8 -33,8 -33,7 -36,5 -33,8 -35,8 -33,7 -36,8 -36,8 -35,7 -10,3 -11,5 -7,7 v 16 h -8 -7 -8 -8 v 10 l -2,7 -5,6 -8,2 -15,3 -10,5 -13,7 -8,8 -10,8 -10,7 -10,8 -10,7 -8,8 -8,10 -10,10 -7,8 -13,5 -10,5 -13,8 -10,8 -10,7 -11,5 -10,8 -10,7 -15,11 -15,10 -13,13 -10,12 -13,16 -13,15 -10,12 -13,16 -25,38 -15,41 -8,45 -2,49 -33,10 -34,7 h -33 -33 -35 -33 l -33,6 -33,7 -16,13 -12,13 -13,10 -10,7 -13,5 -8,8 -5,3 -5,2 -23,13 -20,13 -18,7 -15,10 -18,8 -18,13 -20,12 -23,16 -13,10 -12,13 -13,12 -10,13 -10,13 -10,12 -13,13 -13,10 -20,16 -21,17 -20,16 -20,15 -21,15 -20,13 -20,13 -23,12 -23,13 -20,10 -23,13 -21,10 -23,13 -22,13 -28,12 -28,13 -18,10 -18,10 -18,8 -20,8 -18,5 -15,7 -15,5 -11,5 -20,11 -15,7 -15,5 -13,5 -15,3 -16,2 h -17 l -23,-2 v 43 l -8,36 -15,28 -18,23 -25,17 -31,13 -30,10 -36,5 -38,5 h -38 -41 -41 l -38,-2 h -38 l -33,-3 -33,3 h 5 3 5 2 z"
   id="path58"
   inkscape:connector-curvature="0"
   style="fill:#000000;stroke:none" />
         <path
   d="m 10628,14724 v 0 l -5,-5 -10,-11 -16,-10 h -17 l 5,21 h 7 l 5,5 11,10 15,10 v 0 z"
   id="path60"
   inkscape:connector-curvature="0"
   style="fill:#ffffff;stroke:none" />
         <path
   d="m 10775,14762 -10,-8 -15,-2 -15,-3 -18,-5 -18,-3 -18,-5 -18,-5 -17,-2 -18,-5 -5,20 18,5 17,3 18,5 18,5 18,2 18,5 20,3 15,2 -10,-7 20,-5 -2,-8 h -8 z"
   id="path62"
   inkscape:connector-curvature="0"
   style="fill:#ffffff;stroke:none" />
         <path
   d="m 10765,14813 h -2 l 5,-11 7,-10 5,-12 -5,-18 -20,5 v 13 2 l -8,10 -5,21 h -2 z"
   id="path64"
   inkscape:connector-curvature="0"
   style="fill:#ffffff;stroke:none" />
         <path
   d="m 10750,14836 -5,2 10,-8 3,-2 5,-8 2,-7 h -25 l 2,2 v -2 l -2,2 5,-2 -5,2 z"
   id="path66"
   inkscape:connector-curvature="0"
   style="fill:#ffffff;stroke:none" />
         <path
   d="m 10656,14881 7,3 h 16 l 12,-5 11,-5 12,-11 8,-7 8,-8 10,-7 10,-5 -10,-21 -10,10 -11,8 -12,8 -8,7 -8,5 -10,5 -7,5 h -11 l 8,3 z"
   id="path68"
   inkscape:connector-curvature="0"
   style="fill:#ffffff;stroke:none" />
         <path
   d="m 10633,14825 v 0 l 5,8 5,18 8,18 5,12 15,-15 v -3 l -8,-17 -5,-18 -5,-13 v 0 z"
   id="path70"
   inkscape:connector-curvature="0"
   style="fill:#ffffff;stroke:none" />
         <path
   d="m 10618,14772 v 5 13 l 2,10 5,13 8,12 20,-10 -7,-13 -5,-7 -3,-5 v -13 5 z"
   id="path72"
   inkscape:connector-curvature="0"
   style="fill:#ffffff;stroke:none" />
         <path
   d="m 10613,14767 2,2 v 0 l 3,3 h -3 3 l 20,10 3,-10 -3,-5 -2,-8 -6,-5 3,3 z"
   id="path74"
   inkscape:connector-curvature="0"
   style="fill:#ffffff;stroke:none" />
         <path
   d="m 10625,14716 -23,3 3,10 3,10 v 13 l 5,15 20,-10 -5,-10 v -8 l -3,-15 -2,-11 -23,3 23,-3 -23,-76 v 79 z"
   id="path76"
   inkscape:connector-curvature="0"
   style="fill:#ffffff;stroke:none" />
         <path
   d="m 10625,14724 v -3 -2 0 -3 h -25 v 3 0 2 3 z"
   id="path78"
   inkscape:connector-curvature="0"
   style="fill:#ffffff;stroke:none" />
         <path
   d="m 10747,14818 v 0 15 l -7,10 -10,8 h -16 v 25 l 21,-5 20,-13 13,-20 5,-20 v 0 z"
   id="path80"
   inkscape:connector-curvature="0"
   style="fill:#ffffff;stroke:none" />
         <path
   d="m 10714,14787 v 0 h 16 l 10,8 7,10 v 13 h 26 l -5,-18 -13,-20 -20,-13 -21,-5 v 0 z"
   id="path82"
   inkscape:connector-curvature="0"
   style="fill:#ffffff;stroke:none" />
         <path
   d="m 10684,14818 v 0 -13 l 7,-10 8,-8 h 15 v -25 l -20,5 -18,13 -13,20 -5,18 v 0 z"
   id="path84"
   inkscape:connector-curvature="0"
   style="fill:#ffffff;stroke:none" />
         <path
   d="m 10714,14851 v 0 h -15 l -8,-8 -7,-10 v -15 h -26 l 5,20 13,20 18,13 20,5 v 0 z"
   id="path86"
   inkscape:connector-curvature="0"
   style="fill:#ffffff;stroke:none" />
         <path
   d="m 10608,14591 -8,3 -3,8 3,7 8,3 z"
   id="path88"
   inkscape:connector-curvature="0"
   style="fill:#ffffff;stroke:none" />
         <path
   d="m 10773,14711 -41,-8 -18,-12 -7,-13 -5,-20 -8,-21 -13,-20 -28,-18 -45,-8 v 21 l 40,7 18,13 8,15 7,16 5,20 13,23 28,18 46,7 z"
   id="path90"
   inkscape:connector-curvature="0"
   style="fill:#ffffff;stroke:none" />
         <path
   d="m 10773,14731 7,-2 3,-8 -3,-8 -7,-2 z"
   id="path92"
   inkscape:connector-curvature="0"
   style="fill:#ffffff;stroke:none" />
         <path
   d="m 10831,15532 8,3 8,-3 2,-7 -2,-8 z"
   id="path94"
   inkscape:connector-curvature="0"
   style="fill:#ffffff;stroke:none" />
         <path
   d="m 10704,15629 3,-61 10,-41 15,-20 18,-10 h 20 l 23,7 20,13 18,15 16,-15 -23,-20 -26,-13 -28,-8 h -25 l -28,16 -20,30 -11,46 -7,61 z"
   id="path96"
   inkscape:connector-curvature="0"
   style="fill:#ffffff;stroke:none" />
         <path
   d="m 10679,15629 5,7 7,3 8,-3 5,-7 z"
   id="path98"
   inkscape:connector-curvature="0"
   style="fill:#ffffff;stroke:none" />
         <path
   d="m 10806,15588 v 0 23 l -5,13 -8,10 h -5 v 25 l 20,-10 13,-15 5,-23 5,-23 v 0 z"
   id="path100"
   inkscape:connector-curvature="0"
   style="fill:#ffffff;stroke:none" />
         <path
   d="m 10788,15542 v 0 h 5 l 8,11 5,12 v 23 h 25 l -5,-23 -5,-23 -13,-15 -20,-10 v 0 z"
   id="path102"
   inkscape:connector-curvature="0"
   style="fill:#ffffff;stroke:none" />
         <path
   d="m 10768,15588 v 0 -20 l 7,-15 8,-11 h 5 v -25 l -20,10 -13,15 -8,21 -5,25 v 0 z"
   id="path104"
   inkscape:connector-curvature="0"
   style="fill:#ffffff;stroke:none" />
         <path
   d="m 10788,15634 v 0 h -5 l -8,-10 -7,-15 v -21 h -26 l 5,26 8,20 13,15 20,10 v 0 z"
   id="path106"
   inkscape:connector-curvature="0"
   style="fill:#ffffff;stroke:none" />
         <path
   d="m 9344,14691 v 170"
   id="path108"
   inkscape:connector-curvature="0"
   style="fill:none;stroke:#000000" />
         <path
   d="m 9324,14691 v 170"
   id="path110"
   inkscape:connector-curvature="0"
   style="fill:none;stroke:#000000" />
         <path
   d="m 9285,14698 v 171"
   id="path112"
   inkscape:connector-curvature="0"
   style="fill:none;stroke:#000000" />
         <path
   d="m 9374,14668 v 170"
   id="path114"
   inkscape:connector-curvature="0"
   style="fill:none;stroke:#000000" />
         <path
   d="m 11116,14541 -173,89"
   id="path116"
   inkscape:connector-curvature="0"
   style="fill:none;stroke:#000000" />
         <path
   d="m 11131,14586 -195,66"
   id="path118"
   inkscape:connector-curvature="0"
   style="fill:none;stroke:#000000" />
         <path
   d="m 8950,14861 v 305"
   id="path120"
   inkscape:connector-curvature="0"
   style="fill:none;stroke:#000000" />
         <path
   d="m 8980,14884 v 305"
   id="path122"
   inkscape:connector-curvature="0"
   style="fill:none;stroke:#000000" />
         <path
   d="m 9212,14907 v 305"
   id="path124"
   inkscape:connector-curvature="0"
   style="fill:none;stroke:#000000" />
         <path
   d="m 9240,14930 v 305"
   id="path126"
   inkscape:connector-curvature="0"
   style="fill:none;stroke:#000000" />
         <path
   d="m 9270,14950 v 305"
   id="path128"
   inkscape:connector-curvature="0"
   style="fill:none;stroke:#000000" />
         <path
   d="m 9301,14973 v 305"
   id="path130"
   inkscape:connector-curvature="0"
   style="fill:none;stroke:#000000" />
         <path
   d="m 9331,14996 v 305"
   id="path132"
   inkscape:connector-curvature="0"
   style="fill:none;stroke:#000000" />
         <path
   d="m 9359,15019 v 305"
   id="path134"
   inkscape:connector-curvature="0"
   style="fill:none;stroke:#000000" />
         <path
   d="m 9390,15041 v 306"
   id="path136"
   inkscape:connector-curvature="0"
   style="fill:none;stroke:#000000" />
         <path
   d="m 9420,15047 v 307"
   id="path138"
   inkscape:connector-curvature="0"
   style="fill:none;stroke:#000000" />
         <path
   d="m 9448,15069 v 306"
   id="path140"
   inkscape:connector-curvature="0"
   style="fill:none;stroke:#000000" />
         <path
   d="m 9479,15092 v 305"
   id="path142"
   inkscape:connector-curvature="0"
   style="fill:none;stroke:#000000" />
         <path
   d="m 9509,15115 v 305"
   id="path144"
   inkscape:connector-curvature="0"
   style="fill:none;stroke:#000000" />
         <path
   d="m 9540,15138 v 305"
   id="path146"
   inkscape:connector-curvature="0"
   style="fill:none;stroke:#000000" />
         <path
   d="m 9568,15158 v 308"
   id="path148"
   inkscape:connector-curvature="0"
   style="fill:none;stroke:#000000" />
         <path
   d="m 9568,15466 v 305"
   id="path150"
   inkscape:connector-curvature="0"
   style="fill:none;stroke:#000000" />
         <path
   d="m 9003,14907 v 305"
   id="path152"
   inkscape:connector-curvature="0"
   style="fill:none;stroke:#000000" />
         <path
   d="m 9039,14899 v 305"
   id="path154"
   inkscape:connector-curvature="0"
   style="fill:none;stroke:#000000" />
         <path
   d="m 9077,14891 v 306"
   id="path156"
   inkscape:connector-curvature="0"
   style="fill:none;stroke:#000000" />
         <path
   d="m 9115,14884 v 305"
   id="path158"
   inkscape:connector-curvature="0"
   style="fill:none;stroke:#000000" />
         <path
   d="m 9151,14876 v 305"
   id="path160"
   inkscape:connector-curvature="0"
   style="fill:none;stroke:#000000" />
         <path
   d="m 9181,14899 v 305"
   id="path162"
   inkscape:connector-curvature="0"
   style="fill:none;stroke:#000000" />
         <path
   d="m 9591,15509 v 305"
   id="path164"
   inkscape:connector-curvature="0"
   style="fill:none;stroke:#000000" />
         <path
   d="m 9613,15555 v 305"
   id="path166"
   inkscape:connector-curvature="0"
   style="fill:none;stroke:#000000" />
         <path
   d="m 9636,15598 v 303"
   id="path168"
   inkscape:connector-curvature="0"
   style="fill:none;stroke:#000000" />
         <path
   d="m 9657,15644 v 303"
   id="path170"
   inkscape:connector-curvature="0"
   style="fill:none;stroke:#000000" />
         <path
   d="m 9680,15687 v 305"
   id="path172"
   inkscape:connector-curvature="0"
   style="fill:none;stroke:#000000" />
         <path
   d="m 9702,15733 v 303"
   id="path174"
   inkscape:connector-curvature="0"
   style="fill:none;stroke:#000000" />
         <path
   d="m 9657,15868 v 302"
   id="path176"
   inkscape:connector-curvature="0"
   style="fill:none;stroke:#000000" />
         <path
   d="m 9636,15888 v 305"
   id="path178"
   inkscape:connector-curvature="0"
   style="fill:none;stroke:#000000" />
         <path
   d="m 9613,15860 v 303"
   id="path180"
   inkscape:connector-curvature="0"
   style="fill:none;stroke:#000000" />
         <path
   d="m 9591,15807 v 302"
   id="path182"
   inkscape:connector-curvature="0"
   style="fill:none;stroke:#000000" />
         <path
   d="m 10704,14101 -2,7 2,8 8,2 7,-2 z"
   id="path184"
   inkscape:connector-curvature="0"
   style="fill:#ffffff;stroke:none" />
         <path
   d="m 10829,13933 v 0 l -13,28 -10,20 -8,18 -7,10 -13,15 -15,18 -26,26 -33,33 15,15 33,-33 26,-26 15,-17 13,-16 13,-15 7,-18 10,-20 13,-28 v 0 z"
   id="path186"
   inkscape:connector-curvature="0"
   style="fill:#ffffff;stroke:none" />
         <path
   d="m 11396,13658 -5,-20 -56,10 -49,13 -50,15 -46,15 -46,18 -46,20 -40,18 -36,21 -36,22 -33,21 -30,23 -26,20 -22,20 -18,21 -18,20 -10,18 20,10 10,-18 13,-15 18,-20 23,-21 25,-20 25,-18 34,-20 35,-23 36,-20 40,-18 41,-21 46,-17 46,-16 50,-15 49,-13 51,-10 -5,-20 z"
   id="path188"
   inkscape:connector-curvature="0"
   style="fill:#ffffff;stroke:none" />
         <path
   d="m 10816,14012 5,10 575,-364 -10,-20 -575,363 z"
   id="path190"
   inkscape:connector-curvature="0"
   style="fill:#ffffff;stroke:none" />
         <path
   d="m 10811,14001 -5,6 v 7 l 7,8 h 8 z"
   id="path192"
   inkscape:connector-curvature="0"
   style="fill:#ffffff;stroke:none" />
         <path
   d="m 11030,14218 -5,5 -3,7 5,5 8,3 z"
   id="path194"
   inkscape:connector-curvature="0"
   style="fill:#ffffff;stroke:none" />
         <path
   d="m 11912,14149 7,-18 -40,-35 -51,-26 -51,-15 -61,-8 h -64 l -66,5 -66,11 -68,12 -69,18 -64,20 -63,21 -59,20 -53,18 -46,18 -38,15 -30,13 5,20 30,-13 38,-15 46,-18 53,-18 59,-20 64,-20 63,-21 69,-17 63,-13 66,-10 66,-5 h 64 l 56,7 51,15 46,26 35,30 8,-17 z"
   id="path196"
   inkscape:connector-curvature="0"
   style="fill:#ffffff;stroke:none" />
         <path
   d="m 11345,14164 28,-12 33,-11 41,-5 45,-5 46,-2 h 48 l 49,2 h 45 46 l 43,3 39,5 35,2 28,3 23,2 13,3 h 5 v -20 h -5 l -13,-3 -23,-2 -28,-3 -35,-3 -39,-5 -43,-2 -46,-5 h -45 l -49,-3 -48,5 -46,3 -45,5 -41,5 -38,10 -33,13 z"
   id="path198"
   inkscape:connector-curvature="0"
   style="fill:#ffffff;stroke:none" />
         <path
   d="m 11335,14144 -5,5 v 8 l 7,7 h 8 z"
   id="path200"
   inkscape:connector-curvature="0"
   style="fill:#ffffff;stroke:none" />
        </g>
       </g>
      </g>
     </g>
    </g>
   </g>
  </g>
 </g>
</svg>