<?xml version="1.0" encoding="UTF-8" standalone="no"?>
<svg
   xmlns:ooo="http://xml.openoffice.org/svg/export"
   xmlns:dc="http://purl.org/dc/elements/1.1/"
   xmlns:cc="http://creativecommons.org/ns#"
   xmlns:rdf="http://www.w3.org/1999/02/22-rdf-syntax-ns#"
   xmlns:svg="http://www.w3.org/2000/svg"
   xmlns="http://www.w3.org/2000/svg"
   xmlns:sodipodi="http://sodipodi.sourceforge.net/DTD/sodipodi-0.dtd"
   xmlns:inkscape="http://www.inkscape.org/namespaces/inkscape"
   version="1.2"
   width="44.810001mm"
   height="44.630001mm"
   viewBox="0 0 4481.0001 4463.0001"
   preserveAspectRatio="xMidYMid"
   xml:space="preserve"
   id="svg79"
   sodipodi:docname="heart4.svg"
   style="fill-rule:evenodd;stroke-width:28.22200012;stroke-linejoin:round"
   inkscape:version="0.92.5 (2060ec1f9f, 2020-04-08)"><metadata
   id="metadata83"><rdf:RDF><cc:Work
       rdf:about=""><dc:format>image/svg+xml</dc:format><dc:type
         rdf:resource="http://purl.org/dc/dcmitype/StillImage" /></cc:Work></rdf:RDF></metadata><sodipodi:namedview
   pagecolor="#ffffff"
   bordercolor="#666666"
   borderopacity="1"
   objecttolerance="10"
   gridtolerance="10"
   guidetolerance="10"
   inkscape:pageopacity="0"
   inkscape:pageshadow="2"
   inkscape:window-width="664"
   inkscape:window-height="487"
   id="namedview81"
   showgrid="false"
   inkscape:zoom="0.2102413"
   inkscape:cx="84.699213"
   inkscape:cy="84.321258"
   inkscape:window-x="0"
   inkscape:window-y="0"
   inkscape:window-maximized="0"
   inkscape:current-layer="svg79" />
 <defs
   class="ClipPathGroup"
   id="defs8">
  <clipPath
   id="presentation_clip_path"
   clipPathUnits="userSpaceOnUse">
   <rect
   x="0"
   y="0"
   width="21000"
   height="29700"
   id="rect2" />
  </clipPath>
  <clipPath
   id="presentation_clip_path_shrink"
   clipPathUnits="userSpaceOnUse">
   <rect
   x="21"
   y="29"
   width="20958"
   height="29641"
   id="rect5" />
  </clipPath>
 </defs>
 <defs
   class="TextShapeIndex"
   id="defs12">
  <g
   ooo:slide="id1"
   ooo:id-list="id3"
   id="g10" />
 </defs>
 <defs
   class="EmbeddedBulletChars"
   id="defs44">
  <g
   id="bullet-char-template-57356"
   transform="matrix(4.8828125e-4,0,0,-4.8828125e-4,0,0)">
   <path
   d="M 580,1141 1163,571 580,0 -4,571 Z"
   id="path14"
   inkscape:connector-curvature="0" />
  </g>
  <g
   id="bullet-char-template-57354"
   transform="matrix(4.8828125e-4,0,0,-4.8828125e-4,0,0)">
   <path
   d="M 8,1128 H 1137 V 0 H 8 Z"
   id="path17"
   inkscape:connector-curvature="0" />
  </g>
  <g
   id="bullet-char-template-10146"
   transform="matrix(4.8828125e-4,0,0,-4.8828125e-4,0,0)">
   <path
   d="M 174,0 602,739 174,1481 1456,739 Z M 1358,739 309,1346 659,739 Z"
   id="path20"
   inkscape:connector-curvature="0" />
  </g>
  <g
   id="bullet-char-template-10132"
   transform="matrix(4.8828125e-4,0,0,-4.8828125e-4,0,0)">
   <path
   d="M 2015,739 1276,0 H 717 l 543,543 H 174 v 393 h 1086 l -543,545 h 557 z"
   id="path23"
   inkscape:connector-curvature="0" />
  </g>
  <g
   id="bullet-char-template-10007"
   transform="matrix(4.8828125e-4,0,0,-4.8828125e-4,0,0)">
   <path
   d="m 0,-2 c -7,16 -16,29 -25,39 l 381,530 c -94,256 -141,385 -141,387 0,25 13,38 40,38 9,0 21,-2 34,-5 21,4 42,12 65,25 l 27,-13 111,-251 280,301 64,-25 24,25 c 21,-10 41,-24 62,-43 C 886,937 835,863 770,784 769,783 710,716 594,584 L 774,223 c 0,-27 -21,-55 -63,-84 l 16,-20 C 717,90 699,76 672,76 641,76 570,178 457,381 L 164,-76 c -22,-34 -53,-51 -92,-51 -42,0 -63,17 -64,51 -7,9 -10,24 -10,44 0,9 1,19 2,30 z"
   id="path26"
   inkscape:connector-curvature="0" />
  </g>
  <g
   id="bullet-char-template-10004"
   transform="matrix(4.8828125e-4,0,0,-4.8828125e-4,0,0)">
   <path
   d="M 285,-33 C 182,-33 111,30 74,156 52,228 41,333 41,471 c 0,78 14,145 41,201 34,71 87,106 158,106 53,0 88,-31 106,-94 l 23,-176 c 8,-64 28,-97 59,-98 l 735,706 c 11,11 33,17 66,17 42,0 63,-15 63,-46 V 965 c 0,-36 -10,-64 -30,-84 L 442,47 C 390,-6 338,-33 285,-33 Z"
   id="path29"
   inkscape:connector-curvature="0" />
  </g>
  <g
   id="bullet-char-template-9679"
   transform="matrix(4.8828125e-4,0,0,-4.8828125e-4,0,0)">
   <path
   d="M 813,0 C 632,0 489,54 383,161 276,268 223,411 223,592 c 0,181 53,324 160,431 106,107 249,161 430,161 179,0 323,-54 432,-161 108,-107 162,-251 162,-431 0,-180 -54,-324 -162,-431 C 1136,54 992,0 813,0 Z"
   id="path32"
   inkscape:connector-curvature="0" />
  </g>
  <g
   id="bullet-char-template-8226"
   transform="matrix(4.8828125e-4,0,0,-4.8828125e-4,0,0)">
   <path
   d="m 346,457 c -73,0 -137,26 -191,78 -54,51 -81,114 -81,188 0,73 27,136 81,188 54,52 118,78 191,78 73,0 134,-26 185,-79 51,-51 77,-114 77,-187 0,-75 -25,-137 -76,-188 -50,-52 -112,-78 -186,-78 z"
   id="path35"
   inkscape:connector-curvature="0" />
  </g>
  <g
   id="bullet-char-template-8211"
   transform="matrix(4.8828125e-4,0,0,-4.8828125e-4,0,0)">
   <path
   d="M -4,459 H 1135 V 606 H -4 Z"
   id="path38"
   inkscape:connector-curvature="0" />
  </g>
  <g
   id="bullet-char-template-61548"
   transform="matrix(4.8828125e-4,0,0,-4.8828125e-4,0,0)">
   <path
   d="m 173,740 c 0,163 58,303 173,419 116,115 255,173 419,173 163,0 302,-58 418,-173 116,-116 174,-256 174,-419 0,-163 -58,-303 -174,-418 C 1067,206 928,148 765,148 601,148 462,206 346,322 231,437 173,577 173,740 Z"
   id="path41"
   inkscape:connector-curvature="0" />
  </g>
 </defs>
 <g
   id="g49"
   transform="translate(-8259,-12618)">
  <g
   id="id2"
   class="Master_Slide">
   <g
   id="bg-id2"
   class="Background" />
   <g
   id="bo-id2"
   class="BackgroundObjects" />
  </g>
 </g>
 <g
   class="SlideGroup"
   id="g77"
   transform="translate(-8259,-12618)">
  <g
   id="g75">
   <g
   id="container-id1">
    <g
   id="id1"
   class="Slide"
   clip-path="url(#presentation_clip_path)">
     <g
   class="Page"
   id="g71">
      <g
   class="Graphic"
   id="g69">
       <g
   id="id3">
        <rect
   class="BoundingBox"
   x="8259"
   y="12618"
   width="4481"
   height="4463"
   id="rect51"
   style="fill:none;stroke:none" />
        <defs
   id="defs56">
         <clipPath
   id="clip_path_1"
   clipPathUnits="userSpaceOnUse">
          <path
   d="m 8259,12618 h 4480 v 4462 H 8259 Z"
   id="path53"
   inkscape:connector-curvature="0" />
         </clipPath>
        </defs>
        <g
   clip-path="url(#clip_path_1)"
   id="g66">
         <path
   d="m 10079,14593 -51,28 -64,33 -71,38 -81,41 -89,45 -91,46 -95,48 -94,46 -94,48 -86,44 -81,40 -74,36 -64,30 -50,26 -36,18 -20,10 -18,-28 -23,-36 -25,-46 -31,-48 -28,-46 -28,-43 -23,-33 -18,-20 26,-23 35,-33 46,-41 49,-48 55,-51 61,-53 61,-59 61,-56 61,-58 61,-53 56,-51 51,-46 43,-41 36,-33 28,-23 15,-12 -48,23 -53,25 -59,30 -61,31 -63,33 -67,33 -66,33 -63,33 -61,33 -59,31 -56,28 -45,25 -44,20 -33,18 -22,10 -16,8 -17,-31 -16,-33 -18,-38 -12,-35 -13,-36 -10,-30 -5,-26 -3,-18 16,-15 30,-25 43,-36 51,-43 59,-48 66,-54 68,-58 71,-59 72,-58 71,-59 66,-53 63,-51 54,-43 43,-35 36,-28 20,-16 -33,16 -46,22 -56,28 -63,36 -69,38 -74,41 -73,40 -77,46 -73,43 -72,44 -66,40 -61,38 -48,33 -41,31 -28,23 -12,15 -21,-30 -15,-31 -10,-28 -10,-30 -10,-28 -16,-23 -15,-23 -5,-28 5,-13 18,-25 25,-31 36,-40 41,-44 45,-50 51,-51 51,-54 53,-50 54,-54 51,-48 48,-43 43,-38 36,-31 30,-23 21,-13 -28,11 -36,15 -41,20 -45,23 -51,26 -51,27 -53,28 -54,28 -51,28 -51,28 -48,28 -40,26 -39,20 -30,20 -23,13 -13,10 -12,-28 -16,-30 -15,-31 -15,-35 -13,-31 -5,-30 v -26 l 13,-20 18,-20 17,-23 21,-26 17,-25 18,-26 21,-22 17,-18 18,-13 -15,-33 -15,-41 -21,-40 -23,-33 16,-28 15,-31 20,-38 23,-41 26,-40 35,-46 38,-43 49,-46 56,-43 66,-43 78,-38 89,-36 102,-31 114,-25 130,-20 145,-13 5,66 3,74 15,61 40,30 36,-12 36,-13 40,-15 43,-16 44,-17 45,-16 44,-17 45,-18 44,-16 43,-12 40,-13 39,-10 35,-8 31,-5 h 28 l 23,3 12,63 8,82 7,78 11,54 -28,10 -31,15 -35,15 -39,18 -38,21 -40,20 -41,20 -41,23 -38,23 -38,25 -33,23 -28,23 -25,23 -18,20 -10,21 -5,20 45,-15 54,-23 58,-23 64,-28 68,-28 69,-33 71,-30 71,-31 69,-33 64,-28 61,-28 53,-23 48,-20 38,-18 31,-10 18,-5 25,33 25,38 23,41 23,40 23,38 18,36 15,28 10,23 -33,15 -43,23 -51,33 -53,36 -51,38 -43,40 -31,39 -12,33 55,-31 74,-38 87,-48 99,-51 104,-56 112,-59 114,-61 117,-61 112,-61 107,-55 101,-54 92,-46 79,-40 61,-33 45,-23 26,-10 35,5 33,5 33,5 28,2 28,6 28,7 26,5 28,10 12,31 13,38 15,38 13,41 10,38 5,36 3,28 -8,17 -25,16 -26,20 -28,23 -25,23 -28,23 -28,25 -25,23 -26,23 38,-16 36,-17 41,-18 38,-20 40,-23 39,-21 38,-23 38,-22 35,-23 36,-21 33,-20 31,-20 27,-16 26,-15 20,-13 18,-7 13,46 12,61 11,63 10,51 12,-3 13,-5 13,-2 13,-3 12,-2 h 16 l 15,-3 h 15 l 3,51 10,61 10,61 15,46 -18,12 -22,18 -28,18 -31,23 -36,25 -38,28 -38,26 -40,28 -39,30 -38,26 -38,25 -33,25 -30,21 -26,20 -20,15 -13,11 z"
   id="path58"
   inkscape:connector-curvature="0"
   style="fill:#ea0000;stroke:none" />
         <path
   d="m 12631,13391 15,17 15,23 15,23 16,23 15,23 10,20 5,21 v 15 l -2,23 7,18 8,17 5,26 -5,15 -15,15 -18,15 -26,18 -25,21 -23,17 -20,18 -15,18 -6,41 16,45 20,46 15,41 -15,20 -30,28 -41,33 -53,41 -59,43 -66,48 -71,49 -74,50 -74,51 -76,51 -71,46 -66,46 -61,38 -51,35 -43,26 -31,20 33,-13 44,-15 48,-20 51,-26 58,-28 59,-28 61,-30 61,-31 58,-30 59,-28 53,-28 46,-23 43,-20 33,-15 23,-11 15,-2 25,13 16,30 5,38 v 38 l 5,33 13,31 17,28 21,28 -21,20 -38,33 -51,41 -55,43 -59,43 -53,41 -44,33 -30,20 13,61 7,56 -2,48 -8,39 -23,17 -35,23 -44,31 -53,35 -58,38 -64,41 -63,43 -67,43 -66,44 -63,43 -56,41 -53,35 -44,33 -33,28 -23,20 -7,16 10,51 13,68 12,69 11,51 -54,40 -61,46 -68,51 -77,58 -81,64 -86,68 -89,74 -94,82 -97,88 -99,95 -97,99 -99,106 -96,115 -97,119 -94,127 -89,135 -23,-15 -20,-18 -15,-20 -16,-21 -10,-20 -8,-20 -5,-18 -2,-15 -3,-23 -2,-23 -8,-20 -7,-26 15,-18 18,-23 17,-28 21,-33 17,-30 18,-28 18,-23 15,-18 -40,16 -38,10 -36,7 -33,3 -28,-3 -23,-5 -20,-7 -13,-13 -13,-18 -12,-23 -13,-30 -15,-31 -13,-33 -13,-28 -12,-28 -8,-20 41,-43 55,-59 69,-71 81,-81 89,-89 100,-94 101,-99 107,-99 107,-100 109,-94 104,-91 99,-84 94,-74 87,-63 76,-48 64,-34 -61,26 -82,41 -96,55 -110,67 -119,76 -127,84 -127,89 -130,89 -124,89 -120,86 -109,81 -99,74 -82,66 -61,51 -40,35 -16,21 -30,-31 -33,-38 -28,-38 -31,-41 -25,-38 -25,-33 -23,-28 -18,-20 30,-31 44,-40 58,-56 69,-64 76,-68 84,-77 86,-81 92,-81 89,-82 86,-78 84,-74 76,-69 66,-61 56,-50 43,-41 28,-26 -30,16 -53,28 -67,43 -81,53 -91,61 -102,69 -104,71 -107,74 -104,73 -104,72 -94,68 -87,61 -74,51 -55,41 -41,30 -18,13 -46,-46 -51,-58 -50,-64 -51,-68 -46,-64 -36,-56 -25,-41 -8,-25 21,-15 38,-28 53,-43 66,-51 74,-59 81,-66 87,-71 89,-71 86,-71 87,-71 81,-66 71,-59 64,-51 50,-43 36,-28 18,-15 1972,-935 38,-16 41,-15 41,-18 45,-20 44,-18 45,-20 44,-21 43,-20 43,-20 38,-18 38,-18 33,-18 28,-15 26,-13 20,-10 z"
   id="path60"
   inkscape:connector-curvature="0"
   style="fill:#ea0000;stroke:none" />
         <path
   d="m 10249,14450 -41,23 -50,26 -59,30 -66,33 -71,38 -74,36 -76,38 -76,38 -74,38 -71,36 -66,33 -61,31 -51,25 -41,18 -28,15 -15,8 -15,-23 -18,-28 -23,-38 -23,-38 -23,-39 -22,-33 -18,-28 -16,-17 21,-21 28,-25 35,-33 41,-38 46,-41 48,-43 48,-46 51,-48 48,-43 49,-46 46,-41 40,-38 36,-30 30,-28 23,-18 13,-10 -38,17 -43,21 -49,25 -51,26 -50,25 -54,28 -51,25 -53,28 -51,26 -46,25 -43,20 -40,21 -34,18 -27,12 -18,10 -13,6 -28,-51 -23,-61 -18,-51 -5,-36 13,-12 23,-21 33,-28 43,-35 46,-38 53,-44 56,-48 59,-46 56,-48 58,-46 53,-43 49,-41 43,-35 38,-28 25,-23 18,-13 -28,13 -35,18 -44,23 -50,28 -56,30 -59,33 -61,36 -61,33 -61,35 -58,36 -54,33 -45,31 -41,27 -33,23 -23,18 -10,13 -15,-26 -10,-22 -11,-23 -7,-26 -10,-23 -13,-17 -10,-18 -5,-23 5,-13 12,-18 23,-25 28,-33 33,-36 36,-38 41,-43 43,-43 43,-41 43,-43 41,-38 38,-36 36,-30 27,-26 26,-17 15,-11 -23,11 -28,12 -33,16 -38,17 -38,21 -43,23 -43,22 -44,23 -40,23 -41,23 -38,20 -36,21 -28,18 -25,12 -18,13 -10,8 -10,-21 -13,-25 -13,-26 -12,-25 -10,-28 -6,-23 3,-20 8,-18 15,-15 15,-18 15,-20 16,-23 12,-21 16,-17 15,-16 15,-10 -13,-28 -12,-33 -16,-30 -17,-28 12,-23 13,-26 15,-27 18,-34 23,-33 25,-35 33,-38 39,-36 45,-35 54,-33 63,-31 71,-30 82,-26 94,-20 104,-15 117,-11 2,54 6,58 12,51 31,23 28,-10 30,-10 33,-13 33,-13 36,-13 35,-15 39,-13 35,-12 36,-13 33,-10 33,-10 30,-8 31,-8 25,-2 h 23 l 18,2 10,51 5,64 5,63 8,44 -46,20 -58,28 -64,33 -66,36 -61,35 -51,38 -33,36 -13,33 36,-13 43,-18 49,-17 50,-23 56,-23 56,-26 56,-25 59,-25 53,-26 53,-25 49,-21 45,-20 38,-15 31,-13 23,-10 15,-3 20,28 18,31 21,30 17,33 18,31 13,28 13,23 10,18 -28,12 -36,21 -40,25 -44,30 -40,31 -33,30 -26,31 -10,28 46,-25 58,-31 71,-38 79,-41 84,-46 92,-48 91,-48 94,-51 92,-48 86,-46 81,-41 74,-38 64,-33 50,-25 36,-18 20,-10 31,5 25,5 26,3 23,2 22,5 23,5 21,5 23,8 20,53 23,66 12,59 -5,38 -20,13 -20,15 -21,15 -23,21 -22,20 -21,18 -23,20 -20,18 31,-13 30,-13 31,-15 33,-18 30,-17 33,-18 31,-18 30,-18 31,-18 28,-17 25,-16 25,-15 23,-13 18,-12 18,-8 15,-8 10,36 10,48 8,51 8,43 10,-2 13,-3 10,-2 10,-3 10,-2 h 10 l 13,-3 h 13 l 2,41 8,51 10,48 10,38 -33,23 -46,33 -58,43 -64,43 -63,46 -56,41 -46,33 -28,20 z"
   id="path62"
   inkscape:connector-curvature="0"
   style="fill:#ffffff;stroke:none" />
         <path
   d="m 12308,13477 13,15 12,18 13,18 13,20 10,18 8,18 5,15 v 13 18 l 5,15 7,13 3,20 -5,13 -10,12 -16,13 -20,15 -20,15 -21,13 -15,15 -13,16 -2,33 10,35 18,38 13,33 -13,16 -26,23 -33,28 -40,30 -49,36 -53,38 -58,40 -59,41 -61,41 -58,40 -59,39 -53,35 -48,33 -44,28 -33,23 -25,15 28,-10 33,-13 38,-17 43,-21 46,-20 48,-26 49,-22 48,-26 48,-25 46,-23 43,-20 38,-21 33,-15 28,-13 21,-7 10,-3 23,10 10,23 5,33 v 31 l 5,25 10,26 13,22 15,23 -15,16 -31,27 -40,31 -46,36 -46,38 -43,30 -36,28 -25,15 10,49 5,45 v 39 l -7,30 -18,15 -28,18 -38,26 -41,27 -48,31 -51,33 -51,36 -53,35 -54,36 -51,33 -45,33 -41,28 -36,28 -28,23 -17,15 -8,13 8,40 12,56 11,56 7,41 -43,33 -48,35 -56,44 -61,45 -66,51 -69,56 -74,61 -76,66 -76,71 -79,74 -81,81 -79,87 -79,91 -76,99 -76,102 -72,109 -17,-12 -18,-16 -13,-15 -13,-18 -7,-15 -8,-15 -2,-15 -3,-13 -2,-20 -3,-18 -5,-18 -5,-18 13,-15 12,-20 16,-23 15,-23 15,-26 15,-22 13,-21 13,-13 -33,13 -31,8 -28,5 -28,2 -23,-2 -17,-3 -16,-7 -10,-10 -10,-13 -10,-20 -13,-23 -13,-26 -10,-25 -12,-26 -8,-20 -8,-18 33,-35 46,-46 56,-58 66,-64 74,-74 79,-73 81,-79 86,-82 87,-78 86,-79 87,-71 81,-69 76,-58 69,-51 61,-41 51,-25 -51,20 -64,33 -79,43 -88,54 -97,63 -102,66 -101,71 -105,72 -101,71 -97,71 -89,66 -79,58 -66,51 -48,44 -33,30 -13,15 -25,-25 -26,-28 -22,-33 -23,-33 -23,-31 -21,-28 -17,-23 -16,-15 23,-23 36,-35 48,-43 54,-51 63,-59 66,-61 71,-63 74,-66 71,-64 71,-66 66,-58 61,-56 54,-51 46,-41 33,-33 23,-20 -26,13 -41,22 -53,36 -66,43 -74,48 -81,56 -84,59 -86,58 -84,61 -84,56 -76,56 -69,48 -58,44 -49,33 -30,23 -15,10 -36,-36 -41,-48 -43,-54 -41,-53 -38,-51 -28,-46 -20,-35 -8,-20 18,-11 31,-22 43,-34 53,-43 59,-45 66,-54 71,-56 71,-58 71,-59 69,-56 66,-53 58,-48 51,-41 41,-33 28,-23 15,-13 1591,-757 31,-13 33,-12 35,-16 36,-15 36,-15 35,-15 36,-18 35,-15 33,-16 33,-15 28,-15 28,-13 23,-13 20,-10 16,-7 z"
   id="path64"
   inkscape:connector-curvature="0"
   style="fill:#ffffff;stroke:none" />
        </g>
       </g>
      </g>
     </g>
    </g>
   </g>
  </g>
 </g>
</svg>