<?xml version="1.0" encoding="UTF-8" standalone="no"?>
<svg
   xmlns:ooo="http://xml.openoffice.org/svg/export"
   xmlns:dc="http://purl.org/dc/elements/1.1/"
   xmlns:cc="http://creativecommons.org/ns#"
   xmlns:rdf="http://www.w3.org/1999/02/22-rdf-syntax-ns#"
   xmlns:svg="http://www.w3.org/2000/svg"
   xmlns="http://www.w3.org/2000/svg"
   xmlns:sodipodi="http://sodipodi.sourceforge.net/DTD/sodipodi-0.dtd"
   xmlns:inkscape="http://www.inkscape.org/namespaces/inkscape"
   version="1.2"
   width="22.379999mm"
   height="22.299999mm"
   viewBox="0 0 2237.9999 2229.9999"
   preserveAspectRatio="xMidYMid"
   xml:space="preserve"
   id="svg75"
   sodipodi:docname="heart1.svg"
   style="fill-rule:evenodd;stroke-width:28.22200012;stroke-linejoin:round"
   inkscape:version="0.92.5 (2060ec1f9f, 2020-04-08)"><metadata
   id="metadata79"><rdf:RDF><cc:Work
       rdf:about=""><dc:format>image/svg+xml</dc:format><dc:type
         rdf:resource="http://purl.org/dc/dcmitype/StillImage" /></cc:Work></rdf:RDF></metadata><sodipodi:namedview
   pagecolor="#ffffff"
   bordercolor="#666666"
   borderopacity="1"
   objecttolerance="10"
   gridtolerance="10"
   guidetolerance="10"
   inkscape:pageopacity="0"
   inkscape:pageshadow="2"
   inkscape:window-width="664"
   inkscape:window-height="487"
   id="namedview77"
   showgrid="false"
   inkscape:zoom="0.2102413"
   inkscape:cx="42.292914"
   inkscape:cy="42.141731"
   inkscape:window-x="0"
   inkscape:window-y="0"
   inkscape:window-maximized="0"
   inkscape:current-layer="svg75" />
 <defs
   class="ClipPathGroup"
   id="defs8">
  <clipPath
   id="presentation_clip_path"
   clipPathUnits="userSpaceOnUse">
   <rect
   x="0"
   y="0"
   width="21000"
   height="29700"
   id="rect2" />
  </clipPath>
  <clipPath
   id="presentation_clip_path_shrink"
   clipPathUnits="userSpaceOnUse">
   <rect
   x="21"
   y="29"
   width="20958"
   height="29641"
   id="rect5" />
  </clipPath>
 </defs>
 <defs
   class="TextShapeIndex"
   id="defs12">
  <g
   ooo:slide="id1"
   ooo:id-list="id3"
   id="g10" />
 </defs>
 <defs
   class="EmbeddedBulletChars"
   id="defs44">
  <g
   id="bullet-char-template-57356"
   transform="matrix(4.8828125e-4,0,0,-4.8828125e-4,0,0)">
   <path
   d="M 580,1141 1163,571 580,0 -4,571 Z"
   id="path14"
   inkscape:connector-curvature="0" />
  </g>
  <g
   id="bullet-char-template-57354"
   transform="matrix(4.8828125e-4,0,0,-4.8828125e-4,0,0)">
   <path
   d="M 8,1128 H 1137 V 0 H 8 Z"
   id="path17"
   inkscape:connector-curvature="0" />
  </g>
  <g
   id="bullet-char-template-10146"
   transform="matrix(4.8828125e-4,0,0,-4.8828125e-4,0,0)">
   <path
   d="M 174,0 602,739 174,1481 1456,739 Z M 1358,739 309,1346 659,739 Z"
   id="path20"
   inkscape:connector-curvature="0" />
  </g>
  <g
   id="bullet-char-template-10132"
   transform="matrix(4.8828125e-4,0,0,-4.8828125e-4,0,0)">
   <path
   d="M 2015,739 1276,0 H 717 l 543,543 H 174 v 393 h 1086 l -543,545 h 557 z"
   id="path23"
   inkscape:connector-curvature="0" />
  </g>
  <g
   id="bullet-char-template-10007"
   transform="matrix(4.8828125e-4,0,0,-4.8828125e-4,0,0)">
   <path
   d="m 0,-2 c -7,16 -16,29 -25,39 l 381,530 c -94,256 -141,385 -141,387 0,25 13,38 40,38 9,0 21,-2 34,-5 21,4 42,12 65,25 l 27,-13 111,-251 280,301 64,-25 24,25 c 21,-10 41,-24 62,-43 C 886,937 835,863 770,784 769,783 710,716 594,584 L 774,223 c 0,-27 -21,-55 -63,-84 l 16,-20 C 717,90 699,76 672,76 641,76 570,178 457,381 L 164,-76 c -22,-34 -53,-51 -92,-51 -42,0 -63,17 -64,51 -7,9 -10,24 -10,44 0,9 1,19 2,30 z"
   id="path26"
   inkscape:connector-curvature="0" />
  </g>
  <g
   id="bullet-char-template-10004"
   transform="matrix(4.8828125e-4,0,0,-4.8828125e-4,0,0)">
   <path
   d="M 285,-33 C 182,-33 111,30 74,156 52,228 41,333 41,471 c 0,78 14,145 41,201 34,71 87,106 158,106 53,0 88,-31 106,-94 l 23,-176 c 8,-64 28,-97 59,-98 l 735,706 c 11,11 33,17 66,17 42,0 63,-15 63,-46 V 965 c 0,-36 -10,-64 -30,-84 L 442,47 C 390,-6 338,-33 285,-33 Z"
   id="path29"
   inkscape:connector-curvature="0" />
  </g>
  <g
   id="bullet-char-template-9679"
   transform="matrix(4.8828125e-4,0,0,-4.8828125e-4,0,0)">
   <path
   d="M 813,0 C 632,0 489,54 383,161 276,268 223,411 223,592 c 0,181 53,324 160,431 106,107 249,161 430,161 179,0 323,-54 432,-161 108,-107 162,-251 162,-431 0,-180 -54,-324 -162,-431 C 1136,54 992,0 813,0 Z"
   id="path32"
   inkscape:connector-curvature="0" />
  </g>
  <g
   id="bullet-char-template-8226"
   transform="matrix(4.8828125e-4,0,0,-4.8828125e-4,0,0)">
   <path
   d="m 346,457 c -73,0 -137,26 -191,78 -54,51 -81,114 -81,188 0,73 27,136 81,188 54,52 118,78 191,78 73,0 134,-26 185,-79 51,-51 77,-114 77,-187 0,-75 -25,-137 -76,-188 -50,-52 -112,-78 -186,-78 z"
   id="path35"
   inkscape:connector-curvature="0" />
  </g>
  <g
   id="bullet-char-template-8211"
   transform="matrix(4.8828125e-4,0,0,-4.8828125e-4,0,0)">
   <path
   d="M -4,459 H 1135 V 606 H -4 Z"
   id="path38"
   inkscape:connector-curvature="0" />
  </g>
  <g
   id="bullet-char-template-61548"
   transform="matrix(4.8828125e-4,0,0,-4.8828125e-4,0,0)">
   <path
   d="m 173,740 c 0,163 58,303 173,419 116,115 255,173 419,173 163,0 302,-58 418,-173 116,-116 174,-256 174,-419 0,-163 -58,-303 -174,-418 C 1067,206 928,148 765,148 601,148 462,206 346,322 231,437 173,577 173,740 Z"
   id="path41"
   inkscape:connector-curvature="0" />
  </g>
 </defs>
 <g
   id="g49"
   transform="translate(-9381,-13735)">
  <g
   id="id2"
   class="Master_Slide">
   <g
   id="bg-id2"
   class="Background" />
   <g
   id="bo-id2"
   class="BackgroundObjects" />
  </g>
 </g>
 <g
   class="SlideGroup"
   id="g73"
   transform="translate(-9381,-13735)">
  <g
   id="g71">
   <g
   id="container-id1">
    <g
   id="id1"
   class="Slide"
   clip-path="url(#presentation_clip_path)">
     <g
   class="Page"
   id="g67">
      <g
   class="Graphic"
   id="g65">
       <g
   id="id3">
        <rect
   class="BoundingBox"
   x="9381"
   y="13735"
   width="2238"
   height="2230"
   id="rect51"
   style="fill:none;stroke:none" />
        <defs
   id="defs56">
         <clipPath
   id="clip_path_1"
   clipPathUnits="userSpaceOnUse">
          <path
   d="m 9381,13735 h 2237 v 2229 H 9381 Z"
   id="path53"
   inkscape:connector-curvature="0" />
         </clipPath>
        </defs>
        <g
   clip-path="url(#clip_path_1)"
   id="g62">
         <path
   d="m 10289,14722 -26,12 -30,18 -36,18 -40,23 -46,20 -46,23 -46,25 -48,23 -46,23 -43,23 -41,20 -38,18 -30,15 -26,13 -18,10 -10,5 -7,-12 -13,-21 -13,-22 -15,-26 -13,-23 -15,-20 -10,-18 -10,-10 30,-28 48,-43 56,-54 64,-56 58,-56 54,-48 41,-35 22,-18 -22,10 -28,13 -31,15 -30,15 -31,15 -33,18 -33,15 -33,18 -31,15 -28,16 -28,15 -25,13 -20,10 -16,8 -12,7 -8,3 -18,-33 -13,-39 -10,-33 -5,-20 8,-8 15,-12 20,-18 26,-20 30,-26 33,-25 34,-31 35,-28 36,-30 35,-28 33,-28 31,-23 28,-23 20,-18 18,-12 10,-8 -18,8 -22,10 -26,15 -33,18 -33,18 -38,20 -36,20 -38,23 -38,23 -36,20 -33,21 -28,17 -25,18 -20,16 -13,10 -8,7 -10,-15 -8,-15 -5,-13 -5,-15 -5,-15 -8,-11 -7,-10 -3,-15 10,-18 31,-35 43,-49 54,-51 53,-53 48,-46 41,-33 25,-18 -33,13 -43,20 -51,28 -53,28 -51,28 -46,26 -33,18 -18,12 -12,-28 -16,-33 -10,-30 8,-23 18,-20 20,-28 18,-23 18,-16 -8,-17 -8,-21 -10,-20 -13,-15 8,-13 8,-18 10,-18 10,-17 15,-23 16,-21 20,-23 25,-22 28,-23 33,-21 39,-20 43,-18 51,-15 58,-13 64,-10 74,-5 2,33 3,36 7,30 21,15 35,-12 41,-16 43,-17 46,-16 43,-15 38,-10 33,-5 h 26 l 5,33 5,38 5,41 5,25 -30,13 -36,18 -41,20 -40,20 -36,26 -33,23 -20,20 -8,20 23,-7 25,-10 31,-13 30,-13 36,-15 33,-15 36,-16 35,-17 36,-16 30,-12 31,-16 28,-12 23,-11 20,-7 15,-5 8,-3 13,18 12,18 13,20 10,21 10,20 11,18 7,12 8,13 -18,8 -23,12 -25,16 -28,17 -26,18 -20,21 -15,17 -5,18 28,-15 35,-20 43,-23 51,-26 51,-28 56,-30 59,-28 58,-31 56,-30 53,-28 51,-28 46,-23 38,-20 31,-16 23,-12 12,-5 18,2 18,3 15,2 15,3 13,2 15,3 13,2 13,5 13,36 12,38 10,38 -2,23 -13,8 -12,10 -16,10 -12,10 -13,13 -15,13 -13,13 -13,10 38,-16 38,-20 41,-20 38,-23 36,-23 30,-20 26,-16 20,-10 5,23 8,31 5,33 5,25 13,-2 12,-6 13,-2 h 18 l 3,25 2,31 5,30 8,23 -21,16 -30,20 -36,25 -38,28 -40,28 -34,26 -28,20 -17,13 z"
   id="path58"
   inkscape:connector-curvature="0"
   style="fill:#ff0000;stroke:none" />
         <path
   d="m 11566,14121 15,21 15,23 13,20 2,18 v 10 l 3,10 2,10 3,11 -10,15 -21,18 -25,17 -15,18 -3,21 8,22 10,26 8,20 -8,10 -15,13 -21,18 -25,20 -31,21 -33,22 -35,26 -38,25 -36,26 -38,25 -36,23 -33,20 -30,21 -26,18 -23,12 -15,10 38,-15 51,-20 56,-28 61,-31 59,-30 51,-26 38,-15 20,-7 13,5 7,15 3,20 v 18 l 2,18 6,15 7,15 10,13 -10,10 -18,15 -25,21 -28,23 -28,23 -25,20 -23,15 -16,10 5,31 3,28 v 23 l -3,20 -27,20 -51,33 -59,39 -66,43 -64,43 -55,38 -39,31 -15,17 5,26 5,33 8,36 5,25 -25,20 -34,23 -33,26 -38,30 -40,31 -44,35 -45,38 -46,39 -49,45 -48,46 -51,51 -48,53 -48,56 -49,61 -45,64 -46,66 -23,-18 -15,-20 -11,-20 -2,-16 v -12 l -3,-11 -5,-10 -2,-13 18,-20 17,-30 18,-28 18,-23 -20,7 -21,8 -18,3 -15,2 h -15 l -10,-5 -10,-3 -8,-7 -13,-20 -12,-31 -13,-31 -10,-22 20,-23 28,-28 36,-36 40,-41 43,-43 49,-48 53,-48 54,-51 53,-49 53,-48 54,-46 48,-40 48,-38 44,-31 38,-25 30,-16 -30,13 -41,20 -48,28 -56,33 -59,39 -63,40 -64,43 -63,46 -64,43 -61,44 -53,40 -49,39 -43,33 -30,25 -21,18 -7,10 -16,-15 -15,-18 -15,-20 -13,-21 -13,-18 -12,-17 -10,-13 -11,-10 16,-15 20,-21 28,-28 36,-33 38,-35 40,-39 44,-38 45,-43 44,-41 45,-38 41,-38 38,-36 33,-30 28,-25 23,-21 13,-13 -15,8 -26,15 -35,21 -39,28 -48,30 -48,36 -54,35 -53,36 -51,38 -51,36 -48,33 -43,30 -36,26 -30,23 -18,12 -10,8 -23,-23 -26,-28 -25,-33 -26,-33 -22,-33 -18,-28 -13,-20 -5,-13 10,-8 20,-15 26,-20 33,-26 38,-30 41,-33 43,-33 43,-39 43,-35 44,-33 40,-33 36,-31 33,-25 23,-21 18,-15 10,-7 987,-468 38,-16 43,-17 46,-21 43,-20 41,-18 35,-18 28,-12 z"
   id="path60"
   inkscape:connector-curvature="0"
   style="fill:#ff0000;stroke:none" />
        </g>
       </g>
      </g>
     </g>
    </g>
   </g>
  </g>
 </g>
</svg>