<?xml version="1.0" encoding="UTF-8" standalone="no"?>
<svg
   xmlns:ooo="http://xml.openoffice.org/svg/export"
   xmlns:dc="http://purl.org/dc/elements/1.1/"
   xmlns:cc="http://creativecommons.org/ns#"
   xmlns:rdf="http://www.w3.org/1999/02/22-rdf-syntax-ns#"
   xmlns:svg="http://www.w3.org/2000/svg"
   xmlns="http://www.w3.org/2000/svg"
   xmlns:sodipodi="http://sodipodi.sourceforge.net/DTD/sodipodi-0.dtd"
   xmlns:inkscape="http://www.inkscape.org/namespaces/inkscape"
   version="1.2"
   width="24.16mm"
   height="27.91mm"
   viewBox="0 0 2416 2791"
   preserveAspectRatio="xMidYMid"
   xml:space="preserve"
   id="svg120"
   sodipodi:docname="heartchk.svg"
   style="fill-rule:evenodd;stroke-width:28.22200012;stroke-linejoin:round"
   inkscape:version="0.92.5 (2060ec1f9f, 2020-04-08)"><metadata
   id="metadata124"><rdf:RDF><cc:Work
       rdf:about=""><dc:format>image/svg+xml</dc:format><dc:type
         rdf:resource="http://purl.org/dc/dcmitype/StillImage" /></cc:Work></rdf:RDF></metadata><sodipodi:namedview
   pagecolor="#ffffff"
   bordercolor="#666666"
   borderopacity="1"
   objecttolerance="10"
   gridtolerance="10"
   guidetolerance="10"
   inkscape:pageopacity="0"
   inkscape:pageshadow="2"
   inkscape:window-width="664"
   inkscape:window-height="487"
   id="namedview122"
   showgrid="false"
   inkscape:zoom="0.2102413"
   inkscape:cx="45.656694"
   inkscape:cy="52.724408"
   inkscape:window-x="0"
   inkscape:window-y="0"
   inkscape:window-maximized="0"
   inkscape:current-layer="svg120" />
 <defs
   class="ClipPathGroup"
   id="defs8">
  <clipPath
   id="presentation_clip_path"
   clipPathUnits="userSpaceOnUse">
   <rect
   x="0"
   y="0"
   width="21000"
   height="29700"
   id="rect2" />
  </clipPath>
  <clipPath
   id="presentation_clip_path_shrink"
   clipPathUnits="userSpaceOnUse">
   <rect
   x="21"
   y="29"
   width="20958"
   height="29641"
   id="rect5" />
  </clipPath>
 </defs>
 <defs
   class="TextShapeIndex"
   id="defs12">
  <g
   ooo:slide="id1"
   ooo:id-list="id3"
   id="g10" />
 </defs>
 <defs
   class="EmbeddedBulletChars"
   id="defs44">
  <g
   id="bullet-char-template-57356"
   transform="matrix(4.8828125e-4,0,0,-4.8828125e-4,0,0)">
   <path
   d="M 580,1141 1163,571 580,0 -4,571 Z"
   id="path14"
   inkscape:connector-curvature="0" />
  </g>
  <g
   id="bullet-char-template-57354"
   transform="matrix(4.8828125e-4,0,0,-4.8828125e-4,0,0)">
   <path
   d="M 8,1128 H 1137 V 0 H 8 Z"
   id="path17"
   inkscape:connector-curvature="0" />
  </g>
  <g
   id="bullet-char-template-10146"
   transform="matrix(4.8828125e-4,0,0,-4.8828125e-4,0,0)">
   <path
   d="M 174,0 602,739 174,1481 1456,739 Z M 1358,739 309,1346 659,739 Z"
   id="path20"
   inkscape:connector-curvature="0" />
  </g>
  <g
   id="bullet-char-template-10132"
   transform="matrix(4.8828125e-4,0,0,-4.8828125e-4,0,0)">
   <path
   d="M 2015,739 1276,0 H 717 l 543,543 H 174 v 393 h 1086 l -543,545 h 557 z"
   id="path23"
   inkscape:connector-curvature="0" />
  </g>
  <g
   id="bullet-char-template-10007"
   transform="matrix(4.8828125e-4,0,0,-4.8828125e-4,0,0)">
   <path
   d="m 0,-2 c -7,16 -16,29 -25,39 l 381,530 c -94,256 -141,385 -141,387 0,25 13,38 40,38 9,0 21,-2 34,-5 21,4 42,12 65,25 l 27,-13 111,-251 280,301 64,-25 24,25 c 21,-10 41,-24 62,-43 C 886,937 835,863 770,784 769,783 710,716 594,584 L 774,223 c 0,-27 -21,-55 -63,-84 l 16,-20 C 717,90 699,76 672,76 641,76 570,178 457,381 L 164,-76 c -22,-34 -53,-51 -92,-51 -42,0 -63,17 -64,51 -7,9 -10,24 -10,44 0,9 1,19 2,30 z"
   id="path26"
   inkscape:connector-curvature="0" />
  </g>
  <g
   id="bullet-char-template-10004"
   transform="matrix(4.8828125e-4,0,0,-4.8828125e-4,0,0)">
   <path
   d="M 285,-33 C 182,-33 111,30 74,156 52,228 41,333 41,471 c 0,78 14,145 41,201 34,71 87,106 158,106 53,0 88,-31 106,-94 l 23,-176 c 8,-64 28,-97 59,-98 l 735,706 c 11,11 33,17 66,17 42,0 63,-15 63,-46 V 965 c 0,-36 -10,-64 -30,-84 L 442,47 C 390,-6 338,-33 285,-33 Z"
   id="path29"
   inkscape:connector-curvature="0" />
  </g>
  <g
   id="bullet-char-template-9679"
   transform="matrix(4.8828125e-4,0,0,-4.8828125e-4,0,0)">
   <path
   d="M 813,0 C 632,0 489,54 383,161 276,268 223,411 223,592 c 0,181 53,324 160,431 106,107 249,161 430,161 179,0 323,-54 432,-161 108,-107 162,-251 162,-431 0,-180 -54,-324 -162,-431 C 1136,54 992,0 813,0 Z"
   id="path32"
   inkscape:connector-curvature="0" />
  </g>
  <g
   id="bullet-char-template-8226"
   transform="matrix(4.8828125e-4,0,0,-4.8828125e-4,0,0)">
   <path
   d="m 346,457 c -73,0 -137,26 -191,78 -54,51 -81,114 -81,188 0,73 27,136 81,188 54,52 118,78 191,78 73,0 134,-26 185,-79 51,-51 77,-114 77,-187 0,-75 -25,-137 -76,-188 -50,-52 -112,-78 -186,-78 z"
   id="path35"
   inkscape:connector-curvature="0" />
  </g>
  <g
   id="bullet-char-template-8211"
   transform="matrix(4.8828125e-4,0,0,-4.8828125e-4,0,0)">
   <path
   d="M -4,459 H 1135 V 606 H -4 Z"
   id="path38"
   inkscape:connector-curvature="0" />
  </g>
  <g
   id="bullet-char-template-61548"
   transform="matrix(4.8828125e-4,0,0,-4.8828125e-4,0,0)">
   <path
   d="m 173,740 c 0,163 58,303 173,419 116,115 255,173 419,173 163,0 302,-58 418,-173 116,-116 174,-256 174,-419 0,-163 -58,-303 -174,-418 C 1067,206 928,148 765,148 601,148 462,206 346,322 231,437 173,577 173,740 Z"
   id="path41"
   inkscape:connector-curvature="0" />
  </g>
 </defs>
 <g
   id="g49"
   transform="translate(-9292,-13454)">
  <g
   id="id2"
   class="Master_Slide">
   <g
   id="bg-id2"
   class="Background" />
   <g
   id="bo-id2"
   class="BackgroundObjects" />
  </g>
 </g>
 <g
   class="SlideGroup"
   id="g118"
   transform="translate(-9292,-13454)">
  <g
   id="g116">
   <g
   id="container-id1">
    <g
   id="id1"
   class="Slide"
   clip-path="url(#presentation_clip_path)">
     <g
   class="Page"
   id="g112">
      <g
   class="Graphic"
   id="g110">
       <g
   id="id3">
        <rect
   class="BoundingBox"
   x="9292"
   y="13454"
   width="2416"
   height="2791"
   id="rect51"
   style="fill:none;stroke:none" />
        <path
   d="m 11555,15630 v -1291 h -1403 v 1291 z"
   id="path53"
   inkscape:connector-curvature="0"
   style="fill:#000000;stroke:none" />
        <path
   d="m 11555,15630 v -1291 h -1403 v 1291 z"
   id="path55"
   inkscape:connector-curvature="0"
   style="fill:none;stroke:#ffffff" />
        <path
   d="m 10225,14908 -33,-8 -84,127 31,21 84,-127 -33,-8 35,-5 -10,-46 -23,38 z"
   id="path57"
   inkscape:connector-curvature="0"
   style="fill:#ffffff;stroke:none" />
        <path
   d="m 10256,15190 h 35 l -66,-282 -35,5 66,282 h 35 -35 l 18,79 17,-79 z"
   id="path59"
   inkscape:connector-curvature="0"
   style="fill:#ffffff;stroke:none" />
        <path
   d="m 10406,14740 -36,3 -114,447 35,5 115,-447 -36,2 36,-10 -18,-71 -18,74 z"
   id="path61"
   inkscape:connector-curvature="0"
   style="fill:#ffffff;stroke:none" />
        <path
   d="m 10505,15251 h 36 l -135,-511 -36,10 135,511 h 36 -36 l 18,71 18,-71 z"
   id="path63"
   inkscape:connector-curvature="0"
   style="fill:#ffffff;stroke:none" />
        <path
   d="m 10655,14822 h -35 l -115,429 36,10 114,-429 h -35 l 35,-10 -18,-69 -17,69 z"
   id="path65"
   inkscape:connector-curvature="0"
   style="fill:#ffffff;stroke:none" />
        <path
   d="m 10703,15043 18,12 -66,-233 -35,10 66,234 17,12 -17,-12 2,15 h 15 z"
   id="path67"
   inkscape:connector-curvature="0"
   style="fill:#ffffff;stroke:none" />
        <path
   d="m 10826,15048 15,-8 -138,3 v 35 l 138,-2 15,-8 -15,10 10,-2 5,-8 z"
   id="path69"
   inkscape:connector-curvature="0"
   style="fill:#ffffff;stroke:none" />
        <path
   d="m 10943,14923 -34,-7 -83,132 30,20 84,-132 -33,-8 36,-5 -11,-48 -23,41 z"
   id="path71"
   inkscape:connector-curvature="0"
   style="fill:#ffffff;stroke:none" />
        <path
   d="m 10973,15200 36,3 -66,-280 -36,5 66,280 36,2 -36,-2 18,79 18,-77 z"
   id="path73"
   inkscape:connector-curvature="0"
   style="fill:#ffffff;stroke:none" />
        <path
   d="m 11126,14755 -36,-2 -117,447 36,10 117,-447 -36,-2 36,-6 -18,-73 -18,71 z"
   id="path75"
   inkscape:connector-curvature="0"
   style="fill:#ffffff;stroke:none" />
        <path
   d="m 11222,15266 36,3 -132,-514 -36,6 132,513 36,3 -36,-3 18,74 18,-71 z"
   id="path77"
   inkscape:connector-curvature="0"
   style="fill:#ffffff;stroke:none" />
        <path
   d="m 11375,14837 h -36 l -117,429 36,11 117,-430 h -36 l 36,-10 -18,-69 -18,69 z"
   id="path79"
   inkscape:connector-curvature="0"
   style="fill:#ffffff;stroke:none" />
        <path
   d="m 11423,15053 18,15 -66,-231 -36,10 66,231 18,16 -18,-16 3,13 15,3 z"
   id="path81"
   inkscape:connector-curvature="0"
   style="fill:#ffffff;stroke:none" />
        <path
   d="m 11555,15073 v -20 h -132 v 41 h 132 z"
   id="path83"
   inkscape:connector-curvature="0"
   style="fill:#ffffff;stroke:none" />
        <path
   d="m 9564,13965 -10,-5 -8,-13 -7,-15 -5,-26 v -17 l 2,-11 v -10 l -2,-17 -11,-31 -10,-36 -2,-33 10,-30 15,-26 10,-20 10,-18 18,-10 13,-7 13,-8 12,-10 16,-10 15,-8 15,-8 h 18 l 18,3 18,8 12,5 11,7 10,8 10,7 7,11 8,10 8,10 18,25 15,26 10,25 v 26 l -5,28 -3,30 -7,28 -10,20 -11,16 -7,17 -5,18 -5,16 -8,10 -5,7 -5,10 5,16 5,7 8,8 10,8 10,5 13,5 12,5 13,5 13,5 12,3 16,5 12,5 13,5 15,5 16,8 15,10 15,12 26,26 20,20 10,23 3,25 -3,28 -5,26 -5,23 3,20 5,20 7,23 8,26 2,33 v 33 33 l 3,30 3,31 5,30 2,28 v 31 30 l -2,36 -5,38 -6,38 -5,33 -5,20 -2,18 -3,18 -2,28 -5,36 -3,33 3,35 5,33 7,28 8,26 2,23 -5,17 -7,13 -8,13 -13,18 -12,15 -13,18 -13,15 -10,10 -8,8 6,-33 2,-31 -2,-28 v -28 l 2,-30 3,-26 2,-30 -2,-41 -3,-38 -2,-31 -6,-27 -7,-28 -8,-31 -7,-30 -6,-28 -2,-26 v -7 -3 -8 l 2,-20 3,-25 v -28 -31 -33 -30 l -3,-39 -7,-38 -10,-25 -13,23 -13,33 -10,35 -5,33 2,31 8,20 5,8 3,-3 7,13 8,15 8,16 7,12 v 10 l 3,11 2,12 3,18 2,26 6,28 7,27 8,34 7,28 6,27 2,31 3,38 2,41 -2,30 -3,26 -2,30 v 28 l 2,28 -2,31 -6,33 -12,43 -10,38 -6,36 -2,22 -3,18 -2,18 -3,20 v 18 l 5,18 3,18 2,18 -2,17 -5,13 -8,8 -7,15 -6,30 -2,39 -3,35 -2,38 -3,38 -5,44 -5,48 -2,43 -6,33 -5,26 -7,22 -3,21 -2,15 v 13 l -3,12 v 16 l 3,12 5,13 5,8 2,10 -2,13 -5,10 -8,10 -2,10 5,10 7,18 10,20 8,23 3,18 v 15 18 15 5 l -41,6 -43,7 -8,3 -15,5 h -18 l -8,-8 v -13 l 3,-12 v -13 l -3,-15 -2,-18 v -15 l 2,-10 v -5 l 3,-3 8,-8 5,-10 -3,-15 -10,-15 -5,-8 -5,-10 -3,-15 v -16 l 3,-7 2,-8 5,-13 6,-20 -3,-25 -5,-23 -3,-21 -2,-30 -8,-46 -10,-53 -3,-51 3,-46 3,-48 7,-41 5,-33 3,-23 v -15 l -3,-13 v -15 -20 l -2,-21 v -22 l 2,-21 v -20 l -2,-28 -5,-33 -5,-38 -6,-43 -7,-49 -8,-45 -2,-41 v -38 -41 -33 -20 l -31,7 -5,38 -8,44 -2,43 -3,35 -2,33 -5,36 -5,36 -5,33 -6,35 -5,49 -2,45 v 31 l -3,15 -2,13 -5,15 -3,18 8,25 7,33 5,33 -2,33 -5,46 -8,64 -7,61 -3,40 -5,23 -8,26 -5,20 v 20 l 5,18 5,13 5,10 3,13 v 12 l 3,13 -3,13 -5,18 -8,17 v 21 18 15 l 3,18 5,22 2,18 3,8 -25,35 -36,6 v 0 l -5,-3 -8,-3 h -15 -18 l -13,3 -10,3 h -2 l 2,-23 v -21 -15 l 3,-13 7,-15 8,-18 8,-15 2,-5 3,-5 5,-15 5,-18 v -15 l -8,-21 -10,-33 -10,-35 -3,-31 -5,-46 -12,-63 -13,-66 -5,-49 v -30 l 2,-28 3,-28 v -28 -25 -23 l -3,-21 -2,-20 -5,-18 v -20 -23 l 5,-23 2,-23 3,-22 v -28 -34 l -3,-33 -2,-25 -5,-18 -3,-15 v -8 l -2,-5 -5,-5 -3,-7 -2,-13 v -13 l -3,-13 -3,-17 -5,-16 -2,-17 v -18 l 2,-21 5,-20 3,-15 5,-13 v -18 -20 l -2,-23 v -25 l 2,-28 3,-18 2,-10 8,-13 5,-18 2,-28 3,-30 3,-31 2,-20 3,-15 -3,-15 v -21 l 8,-20 15,-23 18,-28 15,-25 5,-23 -5,-31 -13,-38 -12,-41 -6,-28 -15,41 -10,41 -5,38 -3,28 -2,20 -3,21 v 15 l 8,15 8,10 2,3 v 2 l 3,3 -8,20 v 21 l 3,15 -3,15 -2,20 -3,31 -3,30 -2,28 -5,18 -8,13 -2,10 -3,18 -2,28 v 25 l 2,23 v 20 18 l -5,13 -3,15 -5,20 -2,21 v 18 l 2,17 5,16 3,17 3,13 v 13 l 2,13 -23,-3 -15,-3 -10,-5 -13,-15 -13,-23 -10,-18 -7,-20 v -18 l 5,-20 5,-23 2,-25 v -26 l -2,-25 -3,-31 -2,-33 -5,-30 -8,-36 -8,-40 -7,-44 v -38 l 5,-30 5,-23 5,-20 2,-26 v -43 l 3,-56 3,-56 v -46 -43 l 2,-53 3,-51 7,-38 8,-28 5,-26 8,-23 10,-17 15,-13 15,-15 21,-16 20,-12 10,-5 13,-5 10,-5 13,-3 10,-3 10,-2 8,-3 10,-2 15,-8 13,-7 7,-11 6,-12 5,-13 v -13 -10 z"
   id="path85"
   inkscape:connector-curvature="0"
   style="fill:#000000;stroke:none" />
        <path
   d="m 11131,14285 v -457 h -183 v 457 z"
   id="path87"
   inkscape:connector-curvature="0"
   style="fill:#000000;stroke:none" />
        <path
   d="m 11268,13965 h -458 v 185 h 458 z"
   id="path89"
   inkscape:connector-curvature="0"
   style="fill:#000000;stroke:none" />
        <path
   d="m 10635,14201 15,23 15,23 16,23 15,20 13,18 12,18 13,18 13,15 25,30 31,33 33,36 35,38 38,38 39,36 38,35 38,34 41,-34 40,-35 41,-36 38,-38 36,-38 35,-36 31,-33 28,-30 28,-33 30,-41 33,-46 31,-50 30,-54 28,-53 23,-54 18,-50 8,-64 -5,-76 -21,-71 -30,-56 -18,-18 -20,-20 -28,-16 -28,-15 -31,-13 -35,-7 -36,-5 -36,-3 -33,5 -30,8 -28,13 -31,15 -28,18 -25,20 -26,20 -22,23 -23,-23 -26,-20 -25,-20 -28,-18 -31,-15 -28,-13 -30,-8 -33,-5 -36,3 -35,5 -34,10 -30,13 -28,15 -23,18 -20,17 -16,21 -5,7 -5,11 -7,12 -5,13 h -16 -20 -20 -21 l -23,3 h -22 -23 -21 l 13,-51 18,-49 18,-40 25,-33 23,-23 28,-23 30,-23 33,-20 39,-18 40,-13 44,-7 45,-3 41,5 38,10 38,16 38,20 34,23 33,25 33,28 30,28 31,-28 30,-28 33,-25 36,-23 35,-20 39,-16 38,-10 40,-5 46,3 46,7 41,13 38,15 33,21 30,22 28,26 21,23 20,28 18,28 18,33 12,38 11,40 5,49 v 53 l -8,61 -15,66 -28,69 -33,69 -41,68 -43,64 -43,58 -41,51 -38,41 -38,38 -41,43 -46,43 -48,46 -51,48 -51,46 -48,48 -46,46 -48,-43 -51,-46 -49,-46 -45,-48 -46,-48 -43,-46 -36,-43 -33,-38 -15,-21 -18,-20 -18,-23 -18,-25 -17,-28 -21,-28 -18,-28 -20,-31 h 15 18 18 15 15 11 7 z"
   id="path91"
   inkscape:connector-curvature="0"
   style="fill:#000000;stroke:none" />
        <path
   d="m 9994,14115 13,-13 h -211 v 31 h 211 l 12,-13 -12,13 h 10 l 2,-13 z"
   id="path93"
   inkscape:connector-curvature="0"
   style="fill:#e50033;stroke:none" />
        <path
   d="m 10083,13896 h -26 l -63,219 25,5 64,-219 h -26 l 26,-5 -13,-53 -13,53 z"
   id="path95"
   inkscape:connector-curvature="0"
   style="fill:#e50033;stroke:none" />
        <path
   d="m 10144,14260 h 25 l -86,-364 -26,5 87,364 h 25 -25 l 13,58 12,-58 z"
   id="path97"
   inkscape:connector-curvature="0"
   style="fill:#e50033;stroke:none" />
        <path
   d="m 10304,13736 h -25 l -135,524 25,5 135,-524 h -25 l 25,-5 -10,-66 -15,66 z"
   id="path99"
   inkscape:connector-curvature="0"
   style="fill:#e50033;stroke:none" />
        <path
   d="m 10411,14489 h 25 l -132,-753 -25,5 132,753 h 25 -25 l 10,68 15,-68 z"
   id="path101"
   inkscape:connector-curvature="0"
   style="fill:#e50033;stroke:none" />
        <path
   d="m 10586,13871 h -25 l -150,618 25,5 150,-618 h -25 l 25,-5 -12,-56 -13,56 z"
   id="path103"
   inkscape:connector-curvature="0"
   style="fill:#e50033;stroke:none" />
        <path
   d="m 10627,14062 13,12 -54,-203 -25,5 53,203 13,13 -13,-13 3,10 10,3 z"
   id="path105"
   inkscape:connector-curvature="0"
   style="fill:#e50033;stroke:none" />
        <path
   d="m 10892,14077 v -15 h -265 v 30 h 265 z"
   id="path107"
   inkscape:connector-curvature="0"
   style="fill:#e50033;stroke:none" />
       </g>
      </g>
     </g>
    </g>
   </g>
  </g>
 </g>
</svg>