<?xml version="1.0" encoding="UTF-8" standalone="no"?>
<svg
   xmlns:ooo="http://xml.openoffice.org/svg/export"
   xmlns:dc="http://purl.org/dc/elements/1.1/"
   xmlns:cc="http://creativecommons.org/ns#"
   xmlns:rdf="http://www.w3.org/1999/02/22-rdf-syntax-ns#"
   xmlns:svg="http://www.w3.org/2000/svg"
   xmlns="http://www.w3.org/2000/svg"
   xmlns:sodipodi="http://sodipodi.sourceforge.net/DTD/sodipodi-0.dtd"
   xmlns:inkscape="http://www.inkscape.org/namespaces/inkscape"
   version="1.2"
   width="35.049999mm"
   height="18.059999mm"
   viewBox="0 0 3504.9999 1805.9999"
   preserveAspectRatio="xMidYMid"
   xml:space="preserve"
   id="svg80"
   sodipodi:docname="hippo.svg"
   style="fill-rule:evenodd;stroke-width:28.22200012;stroke-linejoin:round"
   inkscape:version="0.92.5 (2060ec1f9f, 2020-04-08)"><metadata
   id="metadata84"><rdf:RDF><cc:Work
       rdf:about=""><dc:format>image/svg+xml</dc:format><dc:type
         rdf:resource="http://purl.org/dc/dcmitype/StillImage" /></cc:Work></rdf:RDF></metadata><sodipodi:namedview
   pagecolor="#ffffff"
   bordercolor="#666666"
   borderopacity="1"
   objecttolerance="10"
   gridtolerance="10"
   guidetolerance="10"
   inkscape:pageopacity="0"
   inkscape:pageshadow="2"
   inkscape:window-width="664"
   inkscape:window-height="487"
   id="namedview82"
   showgrid="false"
   inkscape:zoom="0.2102413"
   inkscape:cx="66.255119"
   inkscape:cy="34.129132"
   inkscape:window-x="0"
   inkscape:window-y="0"
   inkscape:window-maximized="0"
   inkscape:current-layer="svg80" />
 <defs
   class="ClipPathGroup"
   id="defs8">
  <clipPath
   id="presentation_clip_path"
   clipPathUnits="userSpaceOnUse">
   <rect
   x="0"
   y="0"
   width="21000"
   height="29700"
   id="rect2" />
  </clipPath>
  <clipPath
   id="presentation_clip_path_shrink"
   clipPathUnits="userSpaceOnUse">
   <rect
   x="21"
   y="29"
   width="20958"
   height="29641"
   id="rect5" />
  </clipPath>
 </defs>
 <defs
   class="TextShapeIndex"
   id="defs12">
  <g
   ooo:slide="id1"
   ooo:id-list="id3"
   id="g10" />
 </defs>
 <defs
   class="EmbeddedBulletChars"
   id="defs44">
  <g
   id="bullet-char-template-57356"
   transform="matrix(4.8828125e-4,0,0,-4.8828125e-4,0,0)">
   <path
   d="M 580,1141 1163,571 580,0 -4,571 Z"
   id="path14"
   inkscape:connector-curvature="0" />
  </g>
  <g
   id="bullet-char-template-57354"
   transform="matrix(4.8828125e-4,0,0,-4.8828125e-4,0,0)">
   <path
   d="M 8,1128 H 1137 V 0 H 8 Z"
   id="path17"
   inkscape:connector-curvature="0" />
  </g>
  <g
   id="bullet-char-template-10146"
   transform="matrix(4.8828125e-4,0,0,-4.8828125e-4,0,0)">
   <path
   d="M 174,0 602,739 174,1481 1456,739 Z M 1358,739 309,1346 659,739 Z"
   id="path20"
   inkscape:connector-curvature="0" />
  </g>
  <g
   id="bullet-char-template-10132"
   transform="matrix(4.8828125e-4,0,0,-4.8828125e-4,0,0)">
   <path
   d="M 2015,739 1276,0 H 717 l 543,543 H 174 v 393 h 1086 l -543,545 h 557 z"
   id="path23"
   inkscape:connector-curvature="0" />
  </g>
  <g
   id="bullet-char-template-10007"
   transform="matrix(4.8828125e-4,0,0,-4.8828125e-4,0,0)">
   <path
   d="m 0,-2 c -7,16 -16,29 -25,39 l 381,530 c -94,256 -141,385 -141,387 0,25 13,38 40,38 9,0 21,-2 34,-5 21,4 42,12 65,25 l 27,-13 111,-251 280,301 64,-25 24,25 c 21,-10 41,-24 62,-43 C 886,937 835,863 770,784 769,783 710,716 594,584 L 774,223 c 0,-27 -21,-55 -63,-84 l 16,-20 C 717,90 699,76 672,76 641,76 570,178 457,381 L 164,-76 c -22,-34 -53,-51 -92,-51 -42,0 -63,17 -64,51 -7,9 -10,24 -10,44 0,9 1,19 2,30 z"
   id="path26"
   inkscape:connector-curvature="0" />
  </g>
  <g
   id="bullet-char-template-10004"
   transform="matrix(4.8828125e-4,0,0,-4.8828125e-4,0,0)">
   <path
   d="M 285,-33 C 182,-33 111,30 74,156 52,228 41,333 41,471 c 0,78 14,145 41,201 34,71 87,106 158,106 53,0 88,-31 106,-94 l 23,-176 c 8,-64 28,-97 59,-98 l 735,706 c 11,11 33,17 66,17 42,0 63,-15 63,-46 V 965 c 0,-36 -10,-64 -30,-84 L 442,47 C 390,-6 338,-33 285,-33 Z"
   id="path29"
   inkscape:connector-curvature="0" />
  </g>
  <g
   id="bullet-char-template-9679"
   transform="matrix(4.8828125e-4,0,0,-4.8828125e-4,0,0)">
   <path
   d="M 813,0 C 632,0 489,54 383,161 276,268 223,411 223,592 c 0,181 53,324 160,431 106,107 249,161 430,161 179,0 323,-54 432,-161 108,-107 162,-251 162,-431 0,-180 -54,-324 -162,-431 C 1136,54 992,0 813,0 Z"
   id="path32"
   inkscape:connector-curvature="0" />
  </g>
  <g
   id="bullet-char-template-8226"
   transform="matrix(4.8828125e-4,0,0,-4.8828125e-4,0,0)">
   <path
   d="m 346,457 c -73,0 -137,26 -191,78 -54,51 -81,114 -81,188 0,73 27,136 81,188 54,52 118,78 191,78 73,0 134,-26 185,-79 51,-51 77,-114 77,-187 0,-75 -25,-137 -76,-188 -50,-52 -112,-78 -186,-78 z"
   id="path35"
   inkscape:connector-curvature="0" />
  </g>
  <g
   id="bullet-char-template-8211"
   transform="matrix(4.8828125e-4,0,0,-4.8828125e-4,0,0)">
   <path
   d="M -4,459 H 1135 V 606 H -4 Z"
   id="path38"
   inkscape:connector-curvature="0" />
  </g>
  <g
   id="bullet-char-template-61548"
   transform="matrix(4.8828125e-4,0,0,-4.8828125e-4,0,0)">
   <path
   d="m 173,740 c 0,163 58,303 173,419 116,115 255,173 419,173 163,0 302,-58 418,-173 116,-116 174,-256 174,-419 0,-163 -58,-303 -174,-418 C 1067,206 928,148 765,148 601,148 462,206 346,322 231,437 173,577 173,740 Z"
   id="path41"
   inkscape:connector-curvature="0" />
  </g>
 </defs>
 <g
   id="g49"
   transform="translate(-8747,-13947)">
  <g
   id="id2"
   class="Master_Slide">
   <g
   id="bg-id2"
   class="Background" />
   <g
   id="bo-id2"
   class="BackgroundObjects" />
  </g>
 </g>
 <g
   class="SlideGroup"
   id="g78"
   transform="translate(-8747,-13947)">
  <g
   id="g76">
   <g
   id="container-id1">
    <g
   id="id1"
   class="Slide"
   clip-path="url(#presentation_clip_path)">
     <g
   class="Page"
   id="g72">
      <g
   class="Graphic"
   id="g70">
       <g
   id="id3">
        <rect
   class="BoundingBox"
   x="8747"
   y="13947"
   width="3505"
   height="1806"
   id="rect51"
   style="fill:none;stroke:none" />
        <path
   d="m 11675,15659 -28,23 -28,18 -28,12 -28,5 -25,3 -18,-5 -13,-5 -5,-10 -13,12 -15,8 -20,2 h -20 l -18,-2 -15,-8 -11,-5 -5,-10 -40,-5 -18,-18 -5,-23 v -18 l -3,-17 5,-16 10,-12 18,-13 13,-8 13,-7 12,-8 11,-10 12,-13 10,-13 13,-15 10,-15 13,-31 v -25 l -10,-23 -13,-18 -8,-12 -10,-21 -12,-23 -13,-30 -18,-31 -18,-30 -20,-33 -20,-28 -51,10 -54,10 -58,10 -58,8 -61,7 -61,6 -61,5 -61,2 -59,3 h -58 l -56,2 h -51 l -46,-2 -43,-3 -38,-2 -31,-3 -2,28 -5,36 -3,38 3,28 5,25 v 31 30 l -10,23 5,18 2,20 v 26 l -2,30 -11,13 -15,10 -20,10 -26,5 -25,6 -28,5 h -23 -23 l -10,58 -15,28 -18,13 -18,7 -10,6 -15,2 -18,5 h -18 -17 l -18,-2 -15,-5 -13,-11 -26,18 h -22 l -18,-7 -8,-18 -33,-5 -23,-13 -15,-15 -5,-21 -3,-23 v -20 l 3,-15 v -10 l 5,-5 10,-3 15,-3 18,-2 h 20 l 18,-5 16,-8 10,-12 -3,-123 -13,-112 -20,-99 -23,-84 h -12 -18 -16 -15 l -12,-7 -16,-21 -18,-23 -17,-20 -3,10 -2,10 -5,8 -8,5 -10,-2 -16,-16 -15,-17 -15,-23 -8,5 -7,7 -8,3 h -10 l -10,-10 -13,-15 -15,-23 -15,-23 -23,15 -26,13 -25,12 -28,6 -26,5 -20,-3 -15,-8 -5,-15 -23,21 -33,15 -38,10 -41,5 -41,3 h -40 l -36,-3 -30,-5 -16,18 -15,18 -18,15 -15,13 -7,5 -13,5 -15,5 h -18 -21 l -20,-5 -20,-8 -18,-15 -23,5 -20,5 -26,3 -23,2 h -22 -23 l -23,-2 -20,-3 -21,-8 -20,-12 -20,-16 -18,-20 -16,-20 -15,-21 -10,-17 -8,-13 -10,-26 -2,-33 5,-25 20,-10 -7,-26 -3,-23 v -20 l 8,-18 10,-13 10,-12 13,-8 15,-2 2,-16 8,-10 10,-5 13,-2 h 13 l 12,2 11,5 7,3 15,-13 26,-18 28,-20 33,-23 33,-20 30,-21 26,-12 18,-11 5,-30 2,-26 v -23 l -2,-20 5,-18 12,-12 21,-8 h 23 l 2,-18 -2,-20 -5,-18 -11,-18 -7,-20 -5,-26 v -22 l 5,-23 18,10 15,7 10,11 5,7 5,10 3,11 5,12 2,13 16,-2 h 15 l 18,5 15,7 20,-15 28,-20 36,-21 38,-23 43,-17 46,-21 46,-12 48,-11 18,-20 23,-23 30,-18 33,-18 33,-12 36,-8 35,3 36,7 38,-20 41,-20 48,-21 48,-20 56,-18 59,-18 61,-18 66,-15 66,-15 71,-13 76,-10 76,-8 79,-7 82,-5 h 83 87 l 66,2 69,5 68,8 69,10 68,13 72,15 71,18 71,23 69,28 68,33 69,38 68,43 64,49 64,56 63,61 59,68 40,16 46,17 48,23 49,28 40,33 31,38 17,44 -2,51 -13,-8 -15,-8 -13,-10 -12,-10 -11,-15 -10,-16 -5,-15 v -20 l -20,-13 -26,-10 -22,-13 -26,-10 -25,-8 -26,-5 -20,-5 -20,-2 17,61 21,68 18,77 12,73 8,74 -3,66 -10,54 -23,41 23,17 26,23 25,26 25,25 23,26 18,25 13,20 2,18 -2,54 -5,78 -3,77 v 51 l 8,28 5,22 v 18 l -18,18 -13,8 -15,5 -15,2 -15,3 h -13 -15 l -11,-3 h -10 l -20,13 -25,10 -31,8 -28,5 -28,2 -20,-5 -13,-10 -2,-18 -18,3 h -15 l -16,-5 -15,-5 -10,-8 -8,-7 -2,-8 v -8 l 5,-10 5,-13 7,-15 11,-15 12,-18 18,-20 20,-18 28,-18 -10,-43 -10,-36 -13,-28 -15,-23 -10,-10 -13,-10 -15,-13 -18,-10 -15,-13 -15,-7 -13,-10 -10,-6 5,36 10,43 18,46 28,36 -8,20 -15,28 -18,33 -18,36 -20,43 -15,43 -13,49 z"
   id="path53"
   inkscape:connector-curvature="0"
   style="fill:#000000;stroke:none" />
        <path
   d="m 10351,15176 5,25 v 23 l -3,23 -10,20 -10,23 -5,23 v 20 18 l 2,20 6,23 2,23 -5,15 -13,13 -12,21 -11,33 -5,45 -10,-22 -7,-18 -8,-21 v -20 l 5,-18 5,-18 8,-10 7,-7 8,-13 v -20 l -5,-23 -10,-23 10,-38 23,-36 20,-38 z"
   id="path55"
   inkscape:connector-curvature="0"
   style="fill:#ffffff;stroke:none" />
        <path
   d="m 9837,14741 -20,-36 -10,-33 5,-36 25,-43 18,-23 15,-23 16,-23 12,-20 11,-20 7,-21 3,-17 2,-16 3,-35 5,-38 13,-31 15,-15 20,2 18,21 13,28 2,33 -2,17 -5,18 -8,21 -10,23 -10,20 -13,23 -15,20 -16,18 -17,18 -18,18 -18,22 -18,21 -12,25 -11,26 -5,25 z"
   id="path57"
   inkscape:connector-curvature="0"
   style="fill:#ffffff;stroke:none" />
        <path
   d="m 9670,14491 17,23 18,21 13,22 13,21 7,23 5,25 3,26 v 28 l -8,56 -15,48 -18,41 -25,22 -5,-56 -3,-50 v -49 l 8,-43 7,-43 v -43 l -7,-39 z"
   id="path59"
   inkscape:connector-curvature="0"
   style="fill:#ffffff;stroke:none" />
        <path
   d="m 9571,14509 -23,-10 -13,-18 -5,-25 2,-36 11,-30 17,-18 23,-8 21,-2 15,2 15,13 10,18 3,28 -3,30 -5,23 -13,23 -17,20 2,-30 -2,-33 -11,-26 -30,-12 -10,17 -8,28 5,26 z"
   id="path61"
   inkscape:connector-curvature="0"
   style="fill:#ffffff;stroke:none" />
        <path
   d="m 9276,14680 v -41 -33 l 5,-23 7,-15 13,-11 15,-7 13,-3 15,5 8,11 -8,10 -10,10 -5,8 -5,15 -3,25 3,28 18,21 h -21 -15 -15 z"
   id="path63"
   inkscape:connector-curvature="0"
   style="fill:#ffffff;stroke:none" />
        <path
   d="m 9352,14611 v -10 l 2,-10 8,-8 10,-5 16,2 12,8 10,13 3,10 v 10 l -3,8 -5,10 v 10 l -5,-20 -10,-16 -15,-5 z"
   id="path65"
   inkscape:connector-curvature="0"
   style="fill:#ffffff;stroke:none" />
        <path
   d="m 8973,14853 -12,20 2,23 13,18 23,7 h 15 l 13,-5 12,-5 13,-5 10,-10 13,-10 8,-11 7,-12 5,-23 -10,-18 -15,-10 h -23 l 13,15 2,18 -7,18 -16,15 -20,10 -18,3 -18,-13 z"
   id="path67"
   inkscape:connector-curvature="0"
   style="fill:#ffffff;stroke:none" />
       </g>
      </g>
     </g>
    </g>
   </g>
  </g>
 </g>
</svg>