<?xml version="1.0" encoding="UTF-8" standalone="no"?>
<svg
   xmlns:ooo="http://xml.openoffice.org/svg/export"
   xmlns:dc="http://purl.org/dc/elements/1.1/"
   xmlns:cc="http://creativecommons.org/ns#"
   xmlns:rdf="http://www.w3.org/1999/02/22-rdf-syntax-ns#"
   xmlns:svg="http://www.w3.org/2000/svg"
   xmlns="http://www.w3.org/2000/svg"
   xmlns:sodipodi="http://sodipodi.sourceforge.net/DTD/sodipodi-0.dtd"
   xmlns:inkscape="http://www.inkscape.org/namespaces/inkscape"
   version="1.2"
   width="19.129999mm"
   height="11.76mm"
   viewBox="0 0 1912.9999 1176"
   preserveAspectRatio="xMidYMid"
   xml:space="preserve"
   id="svg93"
   sodipodi:docname="holly2.svg"
   style="fill-rule:evenodd;stroke-width:28.22200012;stroke-linejoin:round"
   inkscape:version="0.92.5 (2060ec1f9f, 2020-04-08)"><metadata
   id="metadata97"><rdf:RDF><cc:Work
       rdf:about=""><dc:format>image/svg+xml</dc:format><dc:type
         rdf:resource="http://purl.org/dc/dcmitype/StillImage" /></cc:Work></rdf:RDF></metadata><sodipodi:namedview
   pagecolor="#ffffff"
   bordercolor="#666666"
   borderopacity="1"
   objecttolerance="10"
   gridtolerance="10"
   guidetolerance="10"
   inkscape:pageopacity="0"
   inkscape:pageshadow="2"
   inkscape:window-width="664"
   inkscape:window-height="487"
   id="namedview95"
   showgrid="false"
   inkscape:zoom="0.2102413"
   inkscape:cx="36.17008"
   inkscape:cy="22.223621"
   inkscape:window-x="0"
   inkscape:window-y="0"
   inkscape:window-maximized="0"
   inkscape:current-layer="svg93" />
 <defs
   class="ClipPathGroup"
   id="defs8">
  <clipPath
   id="presentation_clip_path"
   clipPathUnits="userSpaceOnUse">
   <rect
   x="0"
   y="0"
   width="21000"
   height="29700"
   id="rect2" />
  </clipPath>
  <clipPath
   id="presentation_clip_path_shrink"
   clipPathUnits="userSpaceOnUse">
   <rect
   x="21"
   y="29"
   width="20958"
   height="29641"
   id="rect5" />
  </clipPath>
 </defs>
 <defs
   class="TextShapeIndex"
   id="defs12">
  <g
   ooo:slide="id1"
   ooo:id-list="id3"
   id="g10" />
 </defs>
 <defs
   class="EmbeddedBulletChars"
   id="defs44">
  <g
   id="bullet-char-template-57356"
   transform="matrix(4.8828125e-4,0,0,-4.8828125e-4,0,0)">
   <path
   d="M 580,1141 1163,571 580,0 -4,571 Z"
   id="path14"
   inkscape:connector-curvature="0" />
  </g>
  <g
   id="bullet-char-template-57354"
   transform="matrix(4.8828125e-4,0,0,-4.8828125e-4,0,0)">
   <path
   d="M 8,1128 H 1137 V 0 H 8 Z"
   id="path17"
   inkscape:connector-curvature="0" />
  </g>
  <g
   id="bullet-char-template-10146"
   transform="matrix(4.8828125e-4,0,0,-4.8828125e-4,0,0)">
   <path
   d="M 174,0 602,739 174,1481 1456,739 Z M 1358,739 309,1346 659,739 Z"
   id="path20"
   inkscape:connector-curvature="0" />
  </g>
  <g
   id="bullet-char-template-10132"
   transform="matrix(4.8828125e-4,0,0,-4.8828125e-4,0,0)">
   <path
   d="M 2015,739 1276,0 H 717 l 543,543 H 174 v 393 h 1086 l -543,545 h 557 z"
   id="path23"
   inkscape:connector-curvature="0" />
  </g>
  <g
   id="bullet-char-template-10007"
   transform="matrix(4.8828125e-4,0,0,-4.8828125e-4,0,0)">
   <path
   d="m 0,-2 c -7,16 -16,29 -25,39 l 381,530 c -94,256 -141,385 -141,387 0,25 13,38 40,38 9,0 21,-2 34,-5 21,4 42,12 65,25 l 27,-13 111,-251 280,301 64,-25 24,25 c 21,-10 41,-24 62,-43 C 886,937 835,863 770,784 769,783 710,716 594,584 L 774,223 c 0,-27 -21,-55 -63,-84 l 16,-20 C 717,90 699,76 672,76 641,76 570,178 457,381 L 164,-76 c -22,-34 -53,-51 -92,-51 -42,0 -63,17 -64,51 -7,9 -10,24 -10,44 0,9 1,19 2,30 z"
   id="path26"
   inkscape:connector-curvature="0" />
  </g>
  <g
   id="bullet-char-template-10004"
   transform="matrix(4.8828125e-4,0,0,-4.8828125e-4,0,0)">
   <path
   d="M 285,-33 C 182,-33 111,30 74,156 52,228 41,333 41,471 c 0,78 14,145 41,201 34,71 87,106 158,106 53,0 88,-31 106,-94 l 23,-176 c 8,-64 28,-97 59,-98 l 735,706 c 11,11 33,17 66,17 42,0 63,-15 63,-46 V 965 c 0,-36 -10,-64 -30,-84 L 442,47 C 390,-6 338,-33 285,-33 Z"
   id="path29"
   inkscape:connector-curvature="0" />
  </g>
  <g
   id="bullet-char-template-9679"
   transform="matrix(4.8828125e-4,0,0,-4.8828125e-4,0,0)">
   <path
   d="M 813,0 C 632,0 489,54 383,161 276,268 223,411 223,592 c 0,181 53,324 160,431 106,107 249,161 430,161 179,0 323,-54 432,-161 108,-107 162,-251 162,-431 0,-180 -54,-324 -162,-431 C 1136,54 992,0 813,0 Z"
   id="path32"
   inkscape:connector-curvature="0" />
  </g>
  <g
   id="bullet-char-template-8226"
   transform="matrix(4.8828125e-4,0,0,-4.8828125e-4,0,0)">
   <path
   d="m 346,457 c -73,0 -137,26 -191,78 -54,51 -81,114 -81,188 0,73 27,136 81,188 54,52 118,78 191,78 73,0 134,-26 185,-79 51,-51 77,-114 77,-187 0,-75 -25,-137 -76,-188 -50,-52 -112,-78 -186,-78 z"
   id="path35"
   inkscape:connector-curvature="0" />
  </g>
  <g
   id="bullet-char-template-8211"
   transform="matrix(4.8828125e-4,0,0,-4.8828125e-4,0,0)">
   <path
   d="M -4,459 H 1135 V 606 H -4 Z"
   id="path38"
   inkscape:connector-curvature="0" />
  </g>
  <g
   id="bullet-char-template-61548"
   transform="matrix(4.8828125e-4,0,0,-4.8828125e-4,0,0)">
   <path
   d="m 173,740 c 0,163 58,303 173,419 116,115 255,173 419,173 163,0 302,-58 418,-173 116,-116 174,-256 174,-419 0,-163 -58,-303 -174,-418 C 1067,206 928,148 765,148 601,148 462,206 346,322 231,437 173,577 173,740 Z"
   id="path41"
   inkscape:connector-curvature="0" />
  </g>
 </defs>
 <g
   id="g49"
   transform="translate(-9543,-14262)">
  <g
   id="id2"
   class="Master_Slide">
   <g
   id="bg-id2"
   class="Background" />
   <g
   id="bo-id2"
   class="BackgroundObjects" />
  </g>
 </g>
 <g
   class="SlideGroup"
   id="g91"
   transform="translate(-9543,-14262)">
  <g
   id="g89">
   <g
   id="container-id1">
    <g
   id="id1"
   class="Slide"
   clip-path="url(#presentation_clip_path)">
     <g
   class="Page"
   id="g85">
      <g
   class="Graphic"
   id="g83">
       <g
   id="id3">
        <rect
   class="BoundingBox"
   x="9543"
   y="14262"
   width="1913"
   height="1176"
   id="rect51"
   style="fill:none;stroke:none" />
        <defs
   id="defs56">
         <clipPath
   id="clip_path_1"
   clipPathUnits="userSpaceOnUse">
          <path
   d="m 9543,14262 h 1912 v 1175 H 9543 Z"
   id="path53"
   inkscape:connector-curvature="0" />
         </clipPath>
        </defs>
        <g
   clip-path="url(#clip_path_1)"
   id="g80">
         <path
   d="m 10395,15061 8,-7 10,-8 10,-3 10,-2 h 13 l 10,2 10,3 11,8 12,17 8,23 -3,21 -12,20 -8,8 -10,7 -10,3 -10,2 h -13 l -10,-2 -11,-3 -10,-7 -15,-18 -5,-23 2,-20 z"
   id="path58"
   inkscape:connector-curvature="0"
   style="fill:#ff0000;stroke:none" />
         <path
   d="m 10459,15186 10,-8 10,-7 10,-3 11,-2 h 12 l 10,2 11,5 10,8 15,18 5,23 -2,20 -11,20 -10,8 -10,8 -10,2 -10,3 h -13 l -10,-3 -10,-2 -11,-8 -15,-18 -5,-23 3,-23 z"
   id="path60"
   inkscape:connector-curvature="0"
   style="fill:#ff0000;stroke:none" />
         <path
   d="m 10561,15087 10,-8 10,-8 10,-2 10,-3 h 13 l 10,3 10,5 11,8 15,17 5,23 -3,23 -10,21 -10,7 -10,8 -10,2 -11,3 h -12 l -10,-3 -11,-5 -10,-7 -15,-18 -5,-23 2,-23 z"
   id="path62"
   inkscape:connector-curvature="0"
   style="fill:#ff0000;stroke:none" />
         <path
   d="m 10441,15079 5,-5 h 5 8 l 5,5 5,5 3,8 v 5 l -3,5 -5,3 h -5 -8 l -5,-3 -5,-5 -3,-8 v -5 z"
   id="path64"
   inkscape:connector-curvature="0"
   style="fill:#ffffff;stroke:none" />
         <path
   d="m 10502,15199 5,-3 h 5 8 l 7,5 6,5 2,8 3,5 -3,5 -5,3 h -5 -8 l -7,-5 -5,-5 -3,-8 -2,-5 z"
   id="path66"
   inkscape:connector-curvature="0"
   style="fill:#ffffff;stroke:none" />
         <path
   d="m 10604,15125 5,-5 8,-3 h 5 l 5,3 5,5 v 5 l -3,8 -2,5 -5,5 -8,2 h -5 l -5,-2 -5,-5 v -5 l 2,-8 z"
   id="path68"
   inkscape:connector-curvature="0"
   style="fill:#ffffff;stroke:none" />
         <path
   d="m 10647,15005 23,-12 23,-18 20,-21 15,-23 16,-28 7,-28 3,-33 -5,-33 5,5 13,11 17,5 28,-3 28,-25 18,-46 3,-59 -13,-71 5,13 15,25 21,23 28,3 28,-28 20,-51 13,-69 2,-79 3,5 5,13 8,18 10,18 12,20 18,13 16,7 20,-2 35,-18 23,-20 13,-16 3,-5 -3,8 -2,18 -6,28 -2,33 v 35 l 8,33 17,28 26,18 -8,3 -15,7 -23,13 -23,21 -18,25 -7,31 5,38 25,43 h -5 l -10,3 -18,5 -18,7 -17,10 -13,18 -10,26 2,30 h -5 -13 l -20,3 -23,2 -25,11 -23,12 -21,18 -12,26 -3,-3 -13,-10 -17,-10 -26,-11 -30,-10 -41,-5 -48,3 -54,12 z"
   id="path70"
   inkscape:connector-curvature="0"
   style="fill:#004700;stroke:none" />
         <path
   d="m 10344,14952 -12,2 -13,5 -10,8 -10,8 -11,7 -7,11 -8,10 -8,12 -2,-2 -8,-5 -10,-8 -18,-5 -20,-5 -25,-3 -31,6 -36,12 v -5 l -5,-10 -5,-15 -10,-18 -18,-15 -20,-11 -31,-5 -35,5 2,-5 8,-12 5,-18 3,-26 -6,-25 -17,-31 -33,-28 -51,-28 2,-2 10,-10 8,-16 8,-20 2,-23 -5,-25 -20,-26 -33,-25 5,-3 13,-5 17,-8 16,-15 7,-20 -2,-26 -21,-35 -40,-44 7,6 16,7 25,10 30,8 34,3 30,-8 28,-23 20,-41 v 8 l 5,20 8,28 10,31 16,30 17,21 26,10 30,-5 -2,10 -3,28 -2,38 v 41 l 10,38 18,26 30,10 49,-13 v 5 l -3,18 -3,25 3,31 5,33 13,33 23,28 33,23 z"
   id="path72"
   inkscape:connector-curvature="0"
   style="fill:#004700;stroke:none" />
         <path
   d="m 10515,14990 2,-20 5,-21 13,-20 15,-20 18,-18 21,-13 20,-10 23,-3 -3,-5 -10,-13 -8,-15 -2,-20 2,-15 18,-16 36,-7 56,2 -5,-2 -10,-11 -13,-17 -10,-21 -8,-30 5,-33 18,-41 36,-46 h -8 l -15,-2 -21,-6 -20,-7 -15,-15 -3,-26 15,-30 36,-44 h -5 l -8,-5 -12,-7 -11,-16 -2,-20 2,-33 16,-43 33,-59 -8,8 -15,17 -28,26 -33,25 -38,23 -39,16 -40,2 -36,-15 3,5 7,18 8,23 3,25 -6,28 -15,26 -33,17 -51,11 3,5 10,15 10,20 8,23 5,23 -3,23 -15,18 -28,10 5,5 15,18 16,23 15,25 5,28 -8,26 -25,20 -51,10 5,3 15,7 23,16 23,18 26,22 20,28 15,31 5,33 z"
   id="path74"
   inkscape:connector-curvature="0"
   style="fill:#004700;stroke:none" />
         <path
   d="m 10599,15346 28,-7 30,-8 28,-2 h 31 l 30,7 28,18 31,31 28,43 -3,-13 v -30 l 8,-31 25,-15 h 21 l 17,7 18,13 16,18 15,15 10,18 10,15 5,13 v -13 l 5,-30 13,-33 25,-18 18,-3 16,3 12,2 16,8 12,10 15,13 13,13 13,17 v -7 l 5,-18 10,-25 15,-21 23,-15 31,-3 43,18 54,43 2,-5 5,-12 10,-16 16,-20 20,-18 23,-15 30,-8 h 36 l -10,-2 -26,-10 -35,-16 -36,-23 -30,-25 -21,-28 v -36 l 26,-35 -10,2 -26,5 -38,3 h -46 l -43,-5 -41,-16 -28,-28 -15,-43 -3,3 -2,7 -8,13 -7,13 -13,13 -13,12 -18,8 -17,2 -16,-10 -10,-20 -2,-20 v -11 l -6,8 -12,20 -18,28 -23,28 -23,23 -25,13 -21,-5 -17,-28 -6,8 -12,17 -21,28 -28,31 -30,33 -36,33 -38,28 -38,18 z"
   id="path76"
   inkscape:connector-curvature="0"
   style="fill:#004700;stroke:none" />
         <path
   d="m 10413,15334 -36,-23 -28,-23 -22,-21 -16,-25 -10,-23 -5,-28 v -28 l 3,-33 -3,3 -8,7 -12,10 -18,13 -18,10 -20,8 -21,2 -20,-2 -33,-26 -18,-35 -8,-38 v -33 l -2,2 -8,10 -10,10 -13,16 -15,10 -18,10 -17,5 -21,-2 -33,-23 -20,-36 -10,-38 -6,-28 -2,5 -5,10 -8,18 -13,18 -20,18 -23,15 -28,10 h -35 l -28,-8 -18,-15 -15,-15 -8,-15 v 5 l -3,12 -7,16 -10,20 -16,18 -23,15 -28,8 -38,-3 3,5 5,13 2,20 3,23 -8,28 -12,26 -28,25 -41,21 5,-3 18,-2 25,-6 31,-2 30,5 31,10 25,21 21,30 2,-8 10,-17 21,-16 35,-2 21,10 12,18 3,25 v 21 l 3,-5 7,-11 10,-15 16,-18 15,-15 15,-15 15,-10 16,-6 23,6 20,10 10,18 v 22 l 3,-2 12,-10 16,-10 17,-16 21,-10 20,-10 20,-3 18,3 23,18 10,18 3,17 v 13 l 5,-5 13,-8 20,-12 28,-11 36,-5 40,3 46,15 51,31 z"
   id="path78"
   inkscape:connector-curvature="0"
   style="fill:#004700;stroke:none" />
        </g>
       </g>
      </g>
     </g>
    </g>
   </g>
  </g>
 </g>
</svg>