<?xml version="1.0" encoding="UTF-8" standalone="no"?>
<svg
   xmlns:ooo="http://xml.openoffice.org/svg/export"
   xmlns:dc="http://purl.org/dc/elements/1.1/"
   xmlns:cc="http://creativecommons.org/ns#"
   xmlns:rdf="http://www.w3.org/1999/02/22-rdf-syntax-ns#"
   xmlns:svg="http://www.w3.org/2000/svg"
   xmlns="http://www.w3.org/2000/svg"
   xmlns:sodipodi="http://sodipodi.sourceforge.net/DTD/sodipodi-0.dtd"
   xmlns:inkscape="http://www.inkscape.org/namespaces/inkscape"
   version="1.2"
   width="124.28mm"
   height="29.209999mm"
   viewBox="0 0 12428 2920.9999"
   preserveAspectRatio="xMidYMid"
   xml:space="preserve"
   id="svg453"
   sodipodi:docname="homcntry.svg"
   style="fill-rule:evenodd;stroke-width:28.22200012;stroke-linejoin:round"
   inkscape:version="0.92.5 (2060ec1f9f, 2020-04-08)"><metadata
   id="metadata457"><rdf:RDF><cc:Work
       rdf:about=""><dc:format>image/svg+xml</dc:format><dc:type
         rdf:resource="http://purl.org/dc/dcmitype/StillImage" /></cc:Work></rdf:RDF></metadata><sodipodi:namedview
   pagecolor="#ffffff"
   bordercolor="#666666"
   borderopacity="1"
   objecttolerance="10"
   gridtolerance="10"
   guidetolerance="10"
   inkscape:pageopacity="0"
   inkscape:pageshadow="2"
   inkscape:window-width="664"
   inkscape:window-height="487"
   id="namedview455"
   showgrid="false"
   inkscape:zoom="0.2102413"
   inkscape:cx="234.85984"
   inkscape:cy="55.181101"
   inkscape:window-x="0"
   inkscape:window-y="0"
   inkscape:window-maximized="0"
   inkscape:current-layer="svg453" />
 <defs
   class="ClipPathGroup"
   id="defs8">
  <clipPath
   id="presentation_clip_path"
   clipPathUnits="userSpaceOnUse">
   <rect
   x="0"
   y="0"
   width="21000"
   height="29700"
   id="rect2" />
  </clipPath>
  <clipPath
   id="presentation_clip_path_shrink"
   clipPathUnits="userSpaceOnUse">
   <rect
   x="21"
   y="29"
   width="20958"
   height="29641"
   id="rect5" />
  </clipPath>
 </defs>
 <defs
   class="TextShapeIndex"
   id="defs12">
  <g
   ooo:slide="id1"
   ooo:id-list="id3"
   id="g10" />
 </defs>
 <defs
   class="EmbeddedBulletChars"
   id="defs44">
  <g
   id="bullet-char-template-57356"
   transform="matrix(4.8828125e-4,0,0,-4.8828125e-4,0,0)">
   <path
   d="M 580,1141 1163,571 580,0 -4,571 Z"
   id="path14"
   inkscape:connector-curvature="0" />
  </g>
  <g
   id="bullet-char-template-57354"
   transform="matrix(4.8828125e-4,0,0,-4.8828125e-4,0,0)">
   <path
   d="M 8,1128 H 1137 V 0 H 8 Z"
   id="path17"
   inkscape:connector-curvature="0" />
  </g>
  <g
   id="bullet-char-template-10146"
   transform="matrix(4.8828125e-4,0,0,-4.8828125e-4,0,0)">
   <path
   d="M 174,0 602,739 174,1481 1456,739 Z M 1358,739 309,1346 659,739 Z"
   id="path20"
   inkscape:connector-curvature="0" />
  </g>
  <g
   id="bullet-char-template-10132"
   transform="matrix(4.8828125e-4,0,0,-4.8828125e-4,0,0)">
   <path
   d="M 2015,739 1276,0 H 717 l 543,543 H 174 v 393 h 1086 l -543,545 h 557 z"
   id="path23"
   inkscape:connector-curvature="0" />
  </g>
  <g
   id="bullet-char-template-10007"
   transform="matrix(4.8828125e-4,0,0,-4.8828125e-4,0,0)">
   <path
   d="m 0,-2 c -7,16 -16,29 -25,39 l 381,530 c -94,256 -141,385 -141,387 0,25 13,38 40,38 9,0 21,-2 34,-5 21,4 42,12 65,25 l 27,-13 111,-251 280,301 64,-25 24,25 c 21,-10 41,-24 62,-43 C 886,937 835,863 770,784 769,783 710,716 594,584 L 774,223 c 0,-27 -21,-55 -63,-84 l 16,-20 C 717,90 699,76 672,76 641,76 570,178 457,381 L 164,-76 c -22,-34 -53,-51 -92,-51 -42,0 -63,17 -64,51 -7,9 -10,24 -10,44 0,9 1,19 2,30 z"
   id="path26"
   inkscape:connector-curvature="0" />
  </g>
  <g
   id="bullet-char-template-10004"
   transform="matrix(4.8828125e-4,0,0,-4.8828125e-4,0,0)">
   <path
   d="M 285,-33 C 182,-33 111,30 74,156 52,228 41,333 41,471 c 0,78 14,145 41,201 34,71 87,106 158,106 53,0 88,-31 106,-94 l 23,-176 c 8,-64 28,-97 59,-98 l 735,706 c 11,11 33,17 66,17 42,0 63,-15 63,-46 V 965 c 0,-36 -10,-64 -30,-84 L 442,47 C 390,-6 338,-33 285,-33 Z"
   id="path29"
   inkscape:connector-curvature="0" />
  </g>
  <g
   id="bullet-char-template-9679"
   transform="matrix(4.8828125e-4,0,0,-4.8828125e-4,0,0)">
   <path
   d="M 813,0 C 632,0 489,54 383,161 276,268 223,411 223,592 c 0,181 53,324 160,431 106,107 249,161 430,161 179,0 323,-54 432,-161 108,-107 162,-251 162,-431 0,-180 -54,-324 -162,-431 C 1136,54 992,0 813,0 Z"
   id="path32"
   inkscape:connector-curvature="0" />
  </g>
  <g
   id="bullet-char-template-8226"
   transform="matrix(4.8828125e-4,0,0,-4.8828125e-4,0,0)">
   <path
   d="m 346,457 c -73,0 -137,26 -191,78 -54,51 -81,114 -81,188 0,73 27,136 81,188 54,52 118,78 191,78 73,0 134,-26 185,-79 51,-51 77,-114 77,-187 0,-75 -25,-137 -76,-188 -50,-52 -112,-78 -186,-78 z"
   id="path35"
   inkscape:connector-curvature="0" />
  </g>
  <g
   id="bullet-char-template-8211"
   transform="matrix(4.8828125e-4,0,0,-4.8828125e-4,0,0)">
   <path
   d="M -4,459 H 1135 V 606 H -4 Z"
   id="path38"
   inkscape:connector-curvature="0" />
  </g>
  <g
   id="bullet-char-template-61548"
   transform="matrix(4.8828125e-4,0,0,-4.8828125e-4,0,0)">
   <path
   d="m 173,740 c 0,163 58,303 173,419 116,115 255,173 419,173 163,0 302,-58 418,-173 116,-116 174,-256 174,-419 0,-163 -58,-303 -174,-418 C 1067,206 928,148 765,148 601,148 462,206 346,322 231,437 173,577 173,740 Z"
   id="path41"
   inkscape:connector-curvature="0" />
  </g>
 </defs>
 <g
   id="g49"
   transform="translate(-4286,-13389)">
  <g
   id="id2"
   class="Master_Slide">
   <g
   id="bg-id2"
   class="Background" />
   <g
   id="bo-id2"
   class="BackgroundObjects" />
  </g>
 </g>
 <g
   class="SlideGroup"
   id="g451"
   transform="translate(-4286,-13389)">
  <g
   id="g449">
   <g
   id="container-id1">
    <g
   id="id1"
   class="Slide"
   clip-path="url(#presentation_clip_path)">
     <g
   class="Page"
   id="g445">
      <g
   class="Graphic"
   id="g443">
       <g
   id="id3">
        <rect
   class="BoundingBox"
   x="4286"
   y="13389"
   width="12428"
   height="2921"
   id="rect51"
   style="fill:none;stroke:none" />
        <defs
   id="defs56">
         <clipPath
   id="clip_path_1"
   clipPathUnits="userSpaceOnUse">
          <path
   d="m 4286,13389 h 12427 v 2920 H 4286 Z"
   id="path53"
   inkscape:connector-curvature="0" />
         </clipPath>
        </defs>
        <g
   clip-path="url(#clip_path_1)"
   id="g440">
         <path
   d="m 6867,14055 h -356 v 193 l -86,87 h -107 v -206 h -292 v 246 h -106 l -8,-84 -15,-68 -26,-61 -30,-51 -31,-41 -28,-33 -25,-30 -18,-23 -18,28 -20,33 -20,41 -21,43 -17,40 -16,41 -12,33 -8,26 -13,-31 -12,-35 -16,-39 -17,-38 -16,-35 -17,-33 -16,-28 -12,-21 -23,36 -23,46 -23,53 -20,61 -18,61 -13,64 -10,63 -5,61 h -178 v -119 h 54 l -128,-219 h -370 l -102,-193 -229,506 v 821 h 2467 z"
   id="path58"
   inkscape:connector-curvature="0"
   style="fill:#d8c6a5;stroke:none" />
         <path
   d="m 6862,16226 v -976 H 4400 v 976 z"
   id="path60"
   inkscape:connector-curvature="0"
   style="fill:#33bf0c;stroke:none" />
         <path
   d="m 16714,14203 v 0 l -112,-161 -167,255 v -181 l -140,-94 -104,114 v 112 h -49 v -107 l -155,-155 h -5 -17 -28 -33 -41 -48 -49 -50 -51 -48 -49 -40 -36 -28 -18 -7 l -10,8 -23,23 -31,28 -33,35 -33,36 -30,28 -21,23 -7,8 h 81 v 155 h -160 v -59 -127 -127 -53 h -5 l -15,2 h -23 -31 -33 -40 -41 -43 -46 -41 l -40,-2 h -33 -31 -23 -15 -5 v 99 h -531 v 86 l -30,3 -31,10 -33,18 -28,23 -25,25 -21,33 -12,36 -5,38 h -54 l -5,-69 -18,-51 -22,-33 -28,-13 -28,11 -23,28 -18,53 -5,74 h -145 v -432 h -86 v 139 h -478 l -94,-145 -94,145 h -538 v 181 h -138 l -12,-15 -16,-23 -15,-23 -18,-26 -15,-22 -13,-21 -10,-13 -2,-5 48,8 -147,-206 -127,193 h 40 l -73,140 48,13 -74,79 v 948 h 4883 z"
   id="path62"
   inkscape:connector-curvature="0"
   style="fill:#d8c6a5;stroke:none" />
         <path
   d="m 16714,16226 v -976 h -4885 v 976 z"
   id="path64"
   inkscape:connector-curvature="0"
   style="fill:#33bf0c;stroke:none" />
         <path
   d="m 11882,14668 53,127 v 455 h -109 v -455 z"
   id="path66"
   inkscape:connector-curvature="0"
   style="fill:#ffffff;stroke:none" />
         <path
   d="m 12040,14668 55,127 v 455 h -109 v -455 z"
   id="path68"
   inkscape:connector-curvature="0"
   style="fill:#ffffff;stroke:none" />
         <path
   d="m 12210,14668 53,127 v 455 h -109 v -455 z"
   id="path70"
   inkscape:connector-curvature="0"
   style="fill:#ffffff;stroke:none" />
         <path
   d="m 11826,14886 v -63 h 475 v 63 z"
   id="path72"
   inkscape:connector-curvature="0"
   style="fill:#ffffff;stroke:none" />
         <path
   d="m 11826,15171 v -66 h 475 v 66 z"
   id="path74"
   inkscape:connector-curvature="0"
   style="fill:#ffffff;stroke:none" />
         <path
   d="m 15068,14668 56,127 v 455 h -110 v -455 z"
   id="path76"
   inkscape:connector-curvature="0"
   style="fill:#ffffff;stroke:none" />
         <path
   d="m 15228,14668 56,127 v 455 h -110 v -455 z"
   id="path78"
   inkscape:connector-curvature="0"
   style="fill:#ffffff;stroke:none" />
         <path
   d="m 15395,14668 56,127 v 455 h -109 v -455 z"
   id="path80"
   inkscape:connector-curvature="0"
   style="fill:#ffffff;stroke:none" />
         <path
   d="m 15563,14668 56,127 v 455 h -109 v -455 z"
   id="path82"
   inkscape:connector-curvature="0"
   style="fill:#ffffff;stroke:none" />
         <path
   d="m 15733,14668 54,127 v 506 l -110,-31 v -475 z"
   id="path84"
   inkscape:connector-curvature="0"
   style="fill:#ffffff;stroke:none" />
         <path
   d="m 15901,14701 53,124 v 529 l -109,-43 v -486 z"
   id="path86"
   inkscape:connector-curvature="0"
   style="fill:#ffffff;stroke:none" />
         <path
   d="m 16069,14736 53,127 v 565 l -107,-51 v -514 z"
   id="path88"
   inkscape:connector-curvature="0"
   style="fill:#ffffff;stroke:none" />
         <path
   d="m 16236,14780 56,127 v 623 l -109,-69 v -554 z"
   id="path90"
   inkscape:connector-curvature="0"
   style="fill:#ffffff;stroke:none" />
         <path
   d="m 16404,14846 56,127 v 696 l -109,-104 v -592 z"
   id="path92"
   inkscape:connector-curvature="0"
   style="fill:#ffffff;stroke:none" />
         <path
   d="m 16574,14924 54,125 v 826 l -110,-137 v -689 z"
   id="path94"
   inkscape:connector-curvature="0"
   style="fill:#ffffff;stroke:none" />
         <path
   d="m 16714,15085 v 943 l -28,-69 v -811 z"
   id="path96"
   inkscape:connector-curvature="0"
   style="fill:#ffffff;stroke:none" />
         <path
   d="m 14959,14886 h 12 23 28 36 40 43 49 48 46 48 43 41 35 28 23 13 15 l 33,3 43,5 56,8 66,10 77,12 81,16 89,20 94,23 94,28 96,33 99,36 94,43 92,48 89,53 81,59 v -104 l -81,-59 -89,-51 -92,-45 -96,-38 -97,-36 -96,-28 -97,-25 -91,-18 -89,-18 -81,-13 -77,-10 -66,-5 -56,-5 -43,-3 -33,-2 h -15 -13 -23 -28 -35 -41 -43 -48 -46 -48 -49 -43 -40 -36 -28 -23 -12 z"
   id="path98"
   inkscape:connector-curvature="0"
   style="fill:#ffffff;stroke:none" />
         <path
   d="m 14959,15176 h 12 23 28 36 40 43 49 48 46 48 43 41 35 28 23 13 l 104,3 102,12 99,16 94,23 89,28 89,35 81,36 79,43 73,43 71,48 64,51 61,54 56,53 51,53 45,56 41,54 v -115 l -41,-53 -45,-51 -51,-53 -56,-51 -61,-48 -64,-46 -71,-43 -73,-44 -79,-38 -81,-33 -89,-30 -89,-26 -94,-20 -99,-15 -102,-10 -104,-3 h -13 -23 -28 -35 -41 -43 -48 -46 -48 -49 -43 -40 -36 -28 -23 -12 z"
   id="path100"
   inkscape:connector-curvature="0"
   style="fill:#ffffff;stroke:none" />
         <path
   d="m 12349,14668 54,127 v 455 h -109 v -455 z"
   id="path102"
   inkscape:connector-curvature="0"
   style="fill:#ffffff;stroke:none" />
         <path
   d="m 12507,14668 56,127 v 455 h -109 v -455 z"
   id="path104"
   inkscape:connector-curvature="0"
   style="fill:#ffffff;stroke:none" />
         <path
   d="m 12675,14668 56,127 v 455 h -110 v -455 z"
   id="path106"
   inkscape:connector-curvature="0"
   style="fill:#ffffff;stroke:none" />
         <path
   d="m 12294,14886 v -63 h 472 v 63 z"
   id="path108"
   inkscape:connector-curvature="0"
   style="fill:#ffffff;stroke:none" />
         <path
   d="m 12294,15171 v -66 h 472 v 66 z"
   id="path110"
   inkscape:connector-curvature="0"
   style="fill:#ffffff;stroke:none" />
         <path
   d="m 12814,14668 56,127 v 455 h -109 v -455 z"
   id="path112"
   inkscape:connector-curvature="0"
   style="fill:#ffffff;stroke:none" />
         <path
   d="m 12974,14668 54,127 v 455 h -109 v -455 z"
   id="path114"
   inkscape:connector-curvature="0"
   style="fill:#ffffff;stroke:none" />
         <path
   d="m 13142,14668 56,127 v 455 h -109 v -455 z"
   id="path116"
   inkscape:connector-curvature="0"
   style="fill:#ffffff;stroke:none" />
         <path
   d="m 12761,14886 v -63 h 473 v 63 z"
   id="path118"
   inkscape:connector-curvature="0"
   style="fill:#ffffff;stroke:none" />
         <path
   d="m 12761,15171 v -66 h 473 v 66 z"
   id="path120"
   inkscape:connector-curvature="0"
   style="fill:#ffffff;stroke:none" />
         <path
   d="m 13282,14668 53,127 v 455 h -107 v -455 z"
   id="path122"
   inkscape:connector-curvature="0"
   style="fill:#ffffff;stroke:none" />
         <path
   d="m 13442,14668 53,127 v 455 h -109 v -455 z"
   id="path124"
   inkscape:connector-curvature="0"
   style="fill:#ffffff;stroke:none" />
         <path
   d="m 13610,14668 53,127 v 455 h -109 v -455 z"
   id="path126"
   inkscape:connector-curvature="0"
   style="fill:#ffffff;stroke:none" />
         <path
   d="m 13228,14886 v -63 h 473 v 63 z"
   id="path128"
   inkscape:connector-curvature="0"
   style="fill:#ffffff;stroke:none" />
         <path
   d="m 13228,15171 v -66 h 473 v 66 z"
   id="path130"
   inkscape:connector-curvature="0"
   style="fill:#ffffff;stroke:none" />
         <path
   d="m 13749,14668 54,127 v 455 h -110 v -455 z"
   id="path132"
   inkscape:connector-curvature="0"
   style="fill:#ffffff;stroke:none" />
         <path
   d="m 13907,14668 56,127 v 455 h -110 v -455 z"
   id="path134"
   inkscape:connector-curvature="0"
   style="fill:#ffffff;stroke:none" />
         <path
   d="m 14077,14668 53,127 v 455 h -109 v -455 z"
   id="path136"
   inkscape:connector-curvature="0"
   style="fill:#ffffff;stroke:none" />
         <path
   d="m 13693,14886 v -63 h 475 v 63 z"
   id="path138"
   inkscape:connector-curvature="0"
   style="fill:#ffffff;stroke:none" />
         <path
   d="m 13693,15171 v -66 h 475 v 66 z"
   id="path140"
   inkscape:connector-curvature="0"
   style="fill:#ffffff;stroke:none" />
         <path
   d="m 14217,14668 53,127 v 455 h -109 v -455 z"
   id="path142"
   inkscape:connector-curvature="0"
   style="fill:#ffffff;stroke:none" />
         <path
   d="m 14374,14668 56,127 v 455 h -109 v -455 z"
   id="path144"
   inkscape:connector-curvature="0"
   style="fill:#ffffff;stroke:none" />
         <path
   d="m 14542,14668 56,127 v 455 h -109 v -455 z"
   id="path146"
   inkscape:connector-curvature="0"
   style="fill:#ffffff;stroke:none" />
         <path
   d="m 14161,14886 v -63 h 472 v 63 z"
   id="path148"
   inkscape:connector-curvature="0"
   style="fill:#ffffff;stroke:none" />
         <path
   d="m 14161,15171 v -66 h 472 v 66 z"
   id="path150"
   inkscape:connector-curvature="0"
   style="fill:#ffffff;stroke:none" />
         <path
   d="m 14682,14668 56,127 v 455 h -110 v -455 z"
   id="path152"
   inkscape:connector-curvature="0"
   style="fill:#ffffff;stroke:none" />
         <path
   d="m 14842,14668 53,127 v 455 h -109 v -455 z"
   id="path154"
   inkscape:connector-curvature="0"
   style="fill:#ffffff;stroke:none" />
         <path
   d="m 15009,14668 56,127 v 455 h -109 v -455 z"
   id="path156"
   inkscape:connector-curvature="0"
   style="fill:#ffffff;stroke:none" />
         <path
   d="m 14628,14886 v -63 h 473 v 63 z"
   id="path158"
   inkscape:connector-curvature="0"
   style="fill:#ffffff;stroke:none" />
         <path
   d="m 14628,15171 v -66 h 473 v 66 z"
   id="path160"
   inkscape:connector-curvature="0"
   style="fill:#ffffff;stroke:none" />
         <path
   d="m 15093,14576 33,8 38,7 43,11 46,12 46,18 51,23 48,31 48,40 46,54 46,66 38,78 35,95 28,114 23,132 13,155 5,176 h 76 v -56 -64 -68 l 3,-74 5,-79 13,-79 17,-84 26,-81 33,-81 43,-79 53,-79 69,-74 79,-66 96,-63 109,-56 130,-46 -23,5 -28,8 -30,7 -36,10 -41,16 -40,17 -43,21 -46,23 -46,30 -48,36 -46,40 -43,46 -46,54 -40,58 -38,66 -36,76 5,-28 5,-35 5,-43 8,-51 7,-59 13,-61 15,-66 18,-71 23,-74 28,-78 33,-79 38,-79 43,-84 51,-81 59,-82 66,-79 -54,49 -43,48 -38,48 -33,49 -28,48 -23,43 -20,41 -18,35 v -38 l 5,-56 8,-63 12,-74 16,-71 17,-69 21,-56 23,-43 -23,33 -23,46 -20,53 -18,64 -18,71 -10,74 -10,79 -3,78 -20,44 -28,71 -36,96 -35,115 -36,127 -30,135 -23,134 -13,133 -20,-72 -21,-81 -17,-94 -18,-104 -10,-112 -5,-120 7,-124 18,-130 25,-122 26,-107 23,-94 23,-78 22,-67 23,-55 18,-44 18,-33 -18,33 -28,54 -30,73 -33,87 -33,96 -28,100 -21,99 -10,96 -23,-56 -33,-63 -38,-64 -40,-68 -39,-66 -33,-64 -22,-61 -8,-56 v 51 l 20,66 33,79 43,84 44,84 38,73 30,64 13,43 -8,59 -7,61 -8,58 v 53 l -48,-48 -51,-58 -51,-69 -48,-79 -38,-89 -26,-99 -12,-112 7,-122 -12,59 -3,81 5,92 15,86 -28,-25 -27,-36 -26,-41 -20,-45 -21,-46 -15,-43 -7,-36 -5,-28 v 31 l 7,40 10,46 18,48 23,51 28,46 35,43 41,33 13,36 18,35 15,38 20,34 18,33 20,28 21,25 17,20 18,16 18,17 20,23 18,28 18,41 18,53 12,74 13,91 -18,-35 -20,-41 -25,-38 -28,-38 -28,-33 -26,-31 -20,-22 -18,-16 -23,-38 -25,-56 -18,-48 -8,-20 6,38 12,48 13,41 5,17 -36,-17 -38,-18 -40,-15 -43,-11 -41,-10 -41,-5 -35,-2 z"
   id="path162"
   inkscape:connector-curvature="0"
   style="fill:#0c0000;stroke:none" />
         <path
   d="m 15576,13770 7,-20 v -28 l -5,-33 -12,-31 -18,-27 -20,-23 -23,-11 -26,3 13,-15 8,-13 -3,-10 -8,-10 -12,-8 -21,-5 h -20 -28 l -28,3 -30,7 -33,13 -33,15 -33,18 -33,25 -31,28 -28,33 -28,3 -28,13 -30,20 -26,28 -17,30 -8,31 8,28 23,20 -39,26 -25,28 -13,30 -5,28 5,28 13,25 18,23 23,21 28,15 28,10 30,3 31,-5 27,-13 26,-20 20,-34 15,-43 16,23 23,15 30,8 33,-3 33,-10 28,-20 25,-28 18,-36 13,28 15,21 13,15 5,5 -36,31 -20,40 -10,41 2,30 -20,-5 -30,-2 -41,5 -46,7 -48,13 -43,21 -41,22 -28,28 -7,-30 -31,-26 -48,-17 -59,-8 -66,5 -63,23 -59,41 -45,63 -18,41 -10,43 -8,46 -2,46 5,45 10,44 18,40 22,36 28,28 36,23 43,15 51,3 56,-8 66,-18 71,-35 81,-49 44,18 48,5 48,-5 48,-10 44,-18 38,-23 30,-25 15,-26 11,26 20,15 30,8 33,-3 38,-8 33,-15 31,-23 23,-28 -10,44 -16,50 -7,56 v 54 l 18,51 35,43 66,30 97,16 h 104 l 79,-6 61,-12 43,-21 30,-20 16,-25 10,-28 5,-31 -5,-40 -21,-41 -33,-41 -40,-30 -49,-26 -48,-12 -46,2 -40,20 23,-15 38,-15 48,-8 51,-2 53,7 48,23 39,38 22,56 28,10 36,-2 41,-15 40,-23 33,-31 23,-35 8,-38 -10,-39 35,-12 28,-44 20,-58 8,-69 -10,-63 -28,-48 -53,-21 -77,21 -10,-34 -25,-22 -41,-13 -46,-3 -48,11 -40,22 -31,36 -15,53 -10,-15 -18,-15 -26,-13 -27,-10 -34,-10 -35,-5 -38,-3 -38,-2 -38,2 -39,8 -35,7 -31,13 -28,18 -22,20 -16,26 -10,30 -12,-35 v -33 l 10,-31 17,-25 23,-18 23,-13 26,-5 25,5 10,-35 26,-33 35,-31 46,-23 53,-13 h 59 l 61,21 61,40 48,21 58,-5 56,-26 48,-35 31,-41 10,-41 -20,-28 -61,-15 15,-13 10,-12 8,-16 v -15 l -3,-15 -7,-13 -13,-15 -18,-10 -23,-10 -28,-5 -30,-3 h -38 l -41,5 -46,10 -50,15 -56,23 48,-28 41,-40 28,-43 10,-44 -8,-33 -30,-18 -54,3 -81,33 30,-33 13,-25 -5,-23 -20,-18 -31,-13 -38,-7 -46,-3 -50,3 -51,7 -48,13 -44,18 -38,23 -28,28 -15,35 v 38 l 18,46 5,13 v 15 l -5,15 -8,15 -12,16 -13,15 -15,10 z"
   id="path164"
   inkscape:connector-curvature="0"
   style="fill:#007200;stroke:none" />
         <path
   d="m 6865,15250 h 4964 v -1055 l -8,-8 -23,-25 -33,-31 -35,-38 -36,-38 -33,-30 -23,-23 -7,-5 v -13 -38 -38 -18 h -67 v 74 h -414 l -190,193 h 53 v 206 h -241 v -181 h 107 l -100,-152 h -429 v -54 h -86 v 54 h -66 l -127,312 h -531 l -13,-127 -25,-96 -36,-69 -41,-38 -45,-8 -46,28 -46,61 -38,99 -155,-302 -226,279 -188,-266 -211,259 h -358 v 180 l -61,8 -3,-71 -7,-76 -10,-69 -16,-61 -17,-41 -21,-18 -20,16 -23,56 -10,-39 -15,-30 -18,-18 -23,-5 -20,10 -21,31 -15,51 -7,76 -26,-8 -23,28 -12,69 -5,99 h -74 v -122 l -102,-102 h -302 l -114,-114 -120,178 v 178 h -160 z"
   id="path166"
   inkscape:connector-curvature="0"
   style="fill:#d8c6a5;stroke:none" />
         <path
   d="m 7342,13839 -35,10 -36,38 -33,59 -28,73 -25,82 -18,79 -10,71 -3,56 -15,-43 -10,-54 -10,-43 -3,-18 -38,107 -25,91 -11,82 -2,68 5,56 15,44 18,35 20,23 -23,-15 -20,-13 -18,-13 -15,-12 -13,-8 -7,-8 -5,-5 -3,-2 -7,71 -8,89 -3,102 3,101 13,102 25,89 41,71 61,46 h 15 25 31 38 41 43 45 46 46 43 41 35 31 23 15 5 l 28,-38 25,-59 23,-71 18,-79 10,-79 5,-76 -2,-66 -13,-53 -5,30 -10,31 -13,25 -13,26 -15,20 -13,15 -12,15 -13,8 15,-33 18,-51 13,-63 10,-74 2,-84 -10,-92 -25,-96 -43,-99 v 23 l -8,28 -10,25 -15,25 -16,23 -12,18 -10,13 -3,5 5,-38 3,-59 v -71 l -3,-79 -10,-79 -18,-76 -23,-66 -30,-48 v 51 l -10,45 -13,33 -5,13 -5,-35 -10,-41 -18,-43 -18,-41 -18,-36 -18,-30 -10,-20 z"
   id="path168"
   inkscape:connector-curvature="0"
   style="fill:#007200;stroke:none" />
         <path
   d="m 7281,14762 330,-504 328,504 h 1014 v 488 H 7281 Z"
   id="path170"
   inkscape:connector-curvature="0"
   style="fill:#b26600;stroke:none" />
         <path
   d="M 8953,14762 H 7939 l -328,-504 -330,504 -12,-61 342,-524 341,524 h 1016 z"
   id="path172"
   inkscape:connector-curvature="0"
   style="fill:#ffffff;stroke:none" />
         <path
   d="m 7921,15250 v -450 h -594 v 450 z"
   id="path174"
   inkscape:connector-curvature="0"
   style="fill:#ffffff;stroke:none" />
         <path
   d="m 7611,14177 341,524 h 1016 l -343,-524 z"
   id="path176"
   inkscape:connector-curvature="0"
   style="fill:#5b0000;stroke:none" />
         <path
   d="m 7873,15250 v -414 h -505 v 414 z"
   id="path178"
   inkscape:connector-curvature="0"
   style="fill:#5b0000;stroke:none" />
         <path
   d="m 11829,16226 v -976 H 6862 v 976 z"
   id="path180"
   inkscape:connector-curvature="0"
   style="fill:#33bf0c;stroke:none" />
         <path
   d="m 9697,13730 h 1082 l -482,742 H 8859 l 485,-742 h 191 v -163 h 162 z"
   id="path182"
   inkscape:connector-curvature="0"
   style="fill:#5b0000;stroke:none" />
         <path
   d="m 11244,14558 -465,-714 -464,714 H 8879 v 692 h 2365 z"
   id="path184"
   inkscape:connector-curvature="0"
   style="fill:#b26600;stroke:none" />
         <path
   d="m 10294,15222 v -615 H 8917 v 615 z"
   id="path186"
   inkscape:connector-curvature="0"
   style="fill:#d8b272;stroke:none" />
         <path
   d="m 11521,15120 v -119 h -668 v 249 h 767 v -130 z"
   id="path188"
   inkscape:connector-curvature="0"
   style="fill:#5b0000;stroke:none" />
         <path
   d="m 10853,14597 v 404 h 328 v -404 z"
   id="path190"
   inkscape:connector-curvature="0"
   style="fill:#c1841e;stroke:none" />
         <path
   d="m 10162,15133 v -458 h -594 v 458 z"
   id="path192"
   inkscape:connector-curvature="0"
   style="fill:#c1841e;stroke:none" />
         <path
   d="m 11117,15001 v -361 h -198 v 361 z"
   id="path194"
   inkscape:connector-curvature="0"
   style="fill:#ffffff;stroke:none" />
         <path
   d="m 8879,14558 h 1436 l 464,-714 465,714 21,-86 -486,-742 -482,742 H 8859 Z"
   id="path196"
   inkscape:connector-curvature="0"
   style="fill:#ffffff;stroke:none" />
         <path
   d="m 9735,14703 v 402 h 259 v -402 z"
   id="path198"
   inkscape:connector-curvature="0"
   style="fill:#ffffff;stroke:none" />
         <path
   d="m 9601,14703 v 402 h 104 v -402 z"
   id="path200"
   inkscape:connector-curvature="0"
   style="fill:#ffffff;stroke:none" />
         <path
   d="m 10027,14703 v 402 h 102 v -402 z"
   id="path202"
   inkscape:connector-curvature="0"
   style="fill:#ffffff;stroke:none" />
         <path
   d="m 10500,14703 v 402 h 165 v -402 z"
   id="path204"
   inkscape:connector-curvature="0"
   style="fill:#ffffff;stroke:none" />
         <path
   d="m 10396,14703 v 402 h 74 v -402 z"
   id="path206"
   inkscape:connector-curvature="0"
   style="fill:#ffffff;stroke:none" />
         <path
   d="m 10698,14703 v 402 h 74 v -402 z"
   id="path208"
   inkscape:connector-curvature="0"
   style="fill:#ffffff;stroke:none" />
         <path
   d="m 10680,14152 -17,17 -13,23 -10,26 -5,25 h 122 z"
   id="path210"
   inkscape:connector-curvature="0"
   style="fill:#ffffff;stroke:none" />
         <path
   d="m 10873,14152 18,17 15,23 11,26 5,25 h -122 z"
   id="path212"
   inkscape:connector-curvature="0"
   style="fill:#ffffff;stroke:none" />
         <path
   d="m 10777,14223 74,-92 -16,-10 -15,-7 -20,-6 -21,-2 -20,2 -20,6 -18,7 -15,10 z"
   id="path214"
   inkscape:connector-curvature="0"
   style="fill:#ffffff;stroke:none" />
         <path
   d="m 10797,14513 193,-300 h 74 l -191,300 h 300 l 193,-300 196,300 -18,84 -178,-272 -175,272 h -376 l -20,-84 z"
   id="path216"
   inkscape:connector-curvature="0"
   style="fill:#ffffff;stroke:none" />
         <path
   d="m 11300,15237 v -94 h 303 v 94 z"
   id="path218"
   inkscape:connector-curvature="0"
   style="fill:#ffffff;stroke:none" />
         <path
   d="m 11199,15118 v -92 h 302 v 92 z"
   id="path220"
   inkscape:connector-curvature="0"
   style="fill:#ffffff;stroke:none" />
         <path
   d="m 11544,14597 -178,-272 -175,272 z"
   id="path222"
   inkscape:connector-curvature="0"
   style="fill:#5b0000;stroke:none" />
         <path
   d="m 11506,15001 v -404 h -41 v 404 z"
   id="path224"
   inkscape:connector-curvature="0"
   style="fill:#5b0000;stroke:none" />
         <path
   d="m 11064,14213 -191,300 h 300 l 193,-300 z"
   id="path226"
   inkscape:connector-curvature="0"
   style="fill:#5b0000;stroke:none" />
         <path
   d="m 11247,15001 v -404 h -66 v 404 z"
   id="path228"
   inkscape:connector-curvature="0"
   style="fill:#5b0000;stroke:none" />
         <path
   d="m 10919,15001 v -404 h -66 v 404 z"
   id="path230"
   inkscape:connector-curvature="0"
   style="fill:#5b0000;stroke:none" />
         <path
   d="m 7368,15250 30,8 41,17 40,26 36,30 15,33 -7,33 -46,28 -92,26 -61,10 -61,8 -66,10 -68,7 -69,8 -73,8 -72,7 -73,8 -74,10 -71,10 -74,10 -71,13 -68,13 -69,15 -64,18 -63,20 -59,23 -55,28 -49,30 -45,36 -36,38 -30,41 -23,41 -16,43 -2,43 5,43 18,43 28,41 40,41 56,40 69,36 84,33 h 33 43 56 61 71 71 76 76 77 71 66 58 49 35 25 8 l -63,-13 -74,-15 -76,-15 -82,-20 -81,-21 -79,-25 -76,-26 -68,-30 -61,-31 -51,-33 -38,-38 -26,-41 -5,-40 13,-46 35,-51 59,-51 41,-23 55,-20 66,-15 74,-15 84,-11 89,-12 94,-8 96,-10 100,-8 96,-10 94,-10 92,-13 86,-12 76,-18 69,-21 58,-22 87,-49 53,-45 28,-41 5,-36 -5,-30 -15,-23 -16,-18 -12,-10 z"
   id="path232"
   inkscape:connector-curvature="0"
   style="fill:#ffffff;stroke:none" />
         <path
   d="m 7032,16096 3,-475 696,5 -3,552 h -25 v 53 l -648,-5 v -53 h -25 l 2,-77 23,11 v 40 l 648,5 5,-503 -648,-5 -5,463 z"
   id="path234"
   inkscape:connector-curvature="0"
   style="fill:#330000;stroke:none" />
         <path
   d="m 7703,16155 5,-506 -648,-5 -5,506 z"
   id="path236"
   inkscape:connector-curvature="0"
   style="fill:#b26600;stroke:none" />
         <path
   d="m 7139,16117 18,5 20,5 25,3 28,2 31,3 h 35 l 41,2 h 43 99 l 77,-2 53,-8 36,-15 22,-28 13,-43 5,-59 v -81 -79 l -2,-59 -11,-40 -22,-31 -36,-15 -53,-10 -77,-3 -101,-2 h -102 l -73,2 -56,8 -36,18 -23,28 -12,43 -3,58 -3,77 v 91 l 8,64 20,40 z"
   id="path238"
   inkscape:connector-curvature="0"
   style="fill:#ffffff;stroke:none" />
         <path
   d="m 7571,16211 2,-36 h -40 v 36 z"
   id="path240"
   inkscape:connector-curvature="0"
   style="fill:#ffffff;stroke:none" />
         <path
   d="m 7629,16211 v -33 h -38 v 33 z"
   id="path242"
   inkscape:connector-curvature="0"
   style="fill:#ffffff;stroke:none" />
         <path
   d="m 7500,16211 7,-3 5,-2 3,-5 2,-8 -2,-8 -3,-5 -5,-2 -5,-3 -7,3 -5,2 -3,5 -3,8 3,8 3,5 5,2 z"
   id="path244"
   inkscape:connector-curvature="0"
   style="fill:#ffffff;stroke:none" />
         <path
   d="m 7449,16208 5,-2 5,-3 3,-5 2,-5 -2,-8 -3,-5 -5,-2 -5,-3 -8,3 -5,2 -2,5 -3,8 3,5 2,5 5,3 z"
   id="path246"
   inkscape:connector-curvature="0"
   style="fill:#ffffff;stroke:none" />
         <path
   d="m 6621,15123 v 84 l 17,-5 v -72 z"
   id="path248"
   inkscape:connector-curvature="0"
   style="fill:#330000;stroke:none" />
         <path
   d="m 6626,15209 -5,3 2,5 3,10 5,5 84,61 -122,125 h 40 l 105,-105 111,84 h 44 l -8,-7 -25,-21 -34,-28 -40,-35 -46,-33 -43,-31 -41,-23 z"
   id="path250"
   inkscape:connector-curvature="0"
   style="fill:#330000;stroke:none" />
         <path
   d="m 6743,15285 94,74 -105,120 h 41 l 87,-105 109,92 45,-3 -134,-109 96,-114 -25,-5 -13,5 -81,96 -76,-58 -28,-8 h -15 l -6,3 v 5 l 6,5 z"
   id="path252"
   inkscape:connector-curvature="0"
   style="fill:#330000;stroke:none" />
         <path
   d="m 6623,15199 h 13 l 28,5 30,3 33,-3 33,-2 31,-5 30,-6 28,-5 23,-7 5,2 10,5 13,5 15,11 16,7 15,10 15,8 10,8 -30,15 -33,13 -33,10 -33,5 -33,2 h -31 l -25,-2 -23,-8 -3,3 -2,2 v 3 l 2,5 -2,-3 -10,-7 -16,-8 -15,-13 -18,-12 -17,-10 -13,-11 -10,-5 -3,-5 -2,-2 v -5 z"
   id="path254"
   inkscape:connector-curvature="0"
   style="fill:#ffffff;stroke:none" />
         <path
   d="m 6745,15179 5,2 3,5 10,5 25,-2 13,-5 v -5 l -10,-5 -13,-5 -10,-3 -18,-8 -20,-7 -20,-8 -23,-8 -18,-7 -15,-8 -10,-2 -18,-8 h -10 l -5,3 -3,7 5,5 114,46 -2,109 5,3 h 5 l 5,-3 5,-2 z"
   id="path256"
   inkscape:connector-curvature="0"
   style="fill:#330000;stroke:none" />
         <path
   d="m 6956,15135 v 107 l 5,3 h 5 l 5,-3 5,-2 v -92 z"
   id="path258"
   inkscape:connector-curvature="0"
   style="fill:#330000;stroke:none" />
         <path
   d="m 6877,15113 76,30 h 3 5 l 5,3 v 5 l 3,5 5,2 7,3 13,-3 20,-5 v -7 l -7,-5 -13,-6 -10,-2 -13,-5 -20,-8 -18,-7 -20,-5 -20,-8 -13,-5 -10,-3 -16,-2 v 94 l 18,-5 v -69 z"
   id="path260"
   inkscape:connector-curvature="0"
   style="fill:#330000;stroke:none" />
         <path
   d="m 6860,14940 v -3 0 h -3 v -2 l -3,-3 v -5 -3 -2 l 6,-3 5,-2 h 7 l 3,5 2,2 v 3 3 l -2,2 v 0 0 3 0 l -3,2 -5,3 h -5 z"
   id="path262"
   inkscape:connector-curvature="0"
   style="fill:#330000;stroke:none" />
         <path
   d="m 6633,14955 v -3 -2 0 -3 l 3,-2 v -5 -3 -2 l -5,-3 h -5 -8 l -2,5 v 3 2 3 l 2,2 v 0 0 3 0 l 5,2 h 3 l 5,3 z"
   id="path264"
   inkscape:connector-curvature="0"
   style="fill:#330000;stroke:none" />
         <path
   d="m 6618,14950 28,5 h 36 40 l 41,-3 38,-2 33,-5 26,-5 15,-5 -3,35 v 49 45 28 l -20,5 -26,5 -33,8 -35,3 -38,5 h -36 l -35,-3 -28,-5 v -20 -49 l -3,-53 z"
   id="path266"
   inkscape:connector-curvature="0"
   style="fill:#ffffff;stroke:none" />
         <path
   d="m 7083,15484 -249,302 h -2 -8 -13 -15 -15 -15 -13 -10 l -18,5 -15,16 -11,15 -10,20 -7,21 -10,17 -8,11 -13,5 -20,2 -20,13 -16,18 -12,25 -11,31 -5,35 v 43 l 5,49 8,35 13,41 20,33 23,20 h 13 15 13 15 13 10 7 3 l 15,-7 18,-13 18,-18 12,-20 8,-26 5,-22 8,-16 17,-7 16,-5 20,-16 20,-25 21,-31 12,-38 5,-45 -5,-49 -22,-53 231,-333 h 23 l 91,-120 -63,-71 -100,130 z"
   id="path268"
   inkscape:connector-curvature="0"
   style="fill:#330000;stroke:none" />
         <path
   d="m 7149,15494 8,8 -3,5 v 5 l 5,5 8,-3 8,-5 5,-2 2,-5 5,-3 v -5 l -2,-5 -5,-5 -8,2 -10,-7 z"
   id="path270"
   inkscape:connector-curvature="0"
   style="fill:#330000;stroke:none" />
         <path
   d="m 7182,15458 8,8 -3,5 3,5 5,5 7,-2 8,-5 3,-3 5,-5 2,-3 v -5 l -2,-5 -5,-5 -8,3 -8,-8 z"
   id="path272"
   inkscape:connector-curvature="0"
   style="fill:#330000;stroke:none" />
         <path
   d="m 7213,15423 10,7 -3,5 v 6 l 5,5 8,-3 8,-5 5,-3 2,-5 3,-2 2,-5 -2,-5 -8,-3 -8,3 -7,-10 z"
   id="path274"
   inkscape:connector-curvature="0"
   style="fill:#330000;stroke:none" />
         <path
   d="m 7101,15438 -10,-8 -3,5 h -7 l -6,-2 v -8 l 3,-7 3,-8 2,-2 3,-6 5,-2 7,2 5,6 -2,7 10,8 z"
   id="path276"
   inkscape:connector-curvature="0"
   style="fill:#330000;stroke:none" />
         <path
   d="m 7126,15397 -7,-7 -5,2 h -6 l -5,-2 v -8 l 3,-8 2,-5 3,-2 3,-5 5,-3 h 5 l 5,5 v 8 l 7,8 z"
   id="path278"
   inkscape:connector-curvature="0"
   style="fill:#330000;stroke:none" />
         <path
   d="m 7154,15359 -7,-7 -6,2 h -7 l -5,-2 v -8 l 2,-8 3,-5 2,-2 3,-5 5,-3 h 8 l 5,5 -3,8 10,7 z"
   id="path280"
   inkscape:connector-curvature="0"
   style="fill:#330000;stroke:none" />
         <path
   d="m 7116,15509 -8,-5 -264,364 8,35 8,46 -3,48 -18,38 -18,18 -15,10 -15,5 -10,3 h -8 -7 l -6,3 -5,5 -7,20 -8,31 -10,30 -23,25 -23,18 -15,13 -10,8 -10,2 h 20 20 18 13 l 10,-5 18,-13 18,-17 10,-23 5,-23 10,-21 10,-17 13,-8 7,-3 13,-2 10,-8 13,-7 13,-13 10,-13 10,-18 8,-20 7,-48 -2,-46 -10,-43 -18,-28 z"
   id="path282"
   inkscape:connector-curvature="0"
   style="fill:#d8b272;stroke:none" />
         <path
   d="m 6692,16066 15,-5 13,-15 12,-23 11,-28 2,-28 -2,-26 -8,-17 -13,-8 -15,5 -15,13 -13,23 -7,30 -3,28 3,26 7,17 z"
   id="path284"
   inkscape:connector-curvature="0"
   style="fill:#d8b272;stroke:none" />
         <path
   d="m 6826,15796 h -68 5 l 15,6 15,7 11,15 z"
   id="path286"
   inkscape:connector-curvature="0"
   style="fill:#d8b272;stroke:none" />
         <path
   d="m 8450,15552 h -8 l -7,-7 7,-420 3,-305 -5,-5 v -5 l 124,-5 15,15 3,8 h -5 l 58,717 h -10 l -10,-5 -53,-710 -94,3 z"
   id="path288"
   inkscape:connector-curvature="0"
   style="fill:#330000;stroke:none" />
         <path
   d="m 8569,14866 -106,3 -3,17 112,-2 z"
   id="path290"
   inkscape:connector-curvature="0"
   style="fill:#330000;stroke:none" />
         <path
   d="m 8574,14960 -111,3 -3,17 117,-2 z"
   id="path292"
   inkscape:connector-curvature="0"
   style="fill:#330000;stroke:none" />
         <path
   d="m 8574,14937 -111,3 -3,7 117,-2 z"
   id="path294"
   inkscape:connector-curvature="0"
   style="fill:#330000;stroke:none" />
         <path
   d="m 8584,15069 -124,5 -3,18 130,-5 z"
   id="path296"
   inkscape:connector-curvature="0"
   style="fill:#330000;stroke:none" />
         <path
   d="m 8584,15047 -124,5 -3,7 127,-5 z"
   id="path298"
   inkscape:connector-curvature="0"
   style="fill:#330000;stroke:none" />
         <path
   d="m 8592,15197 -135,5 -2,17 140,-5 z"
   id="path300"
   inkscape:connector-curvature="0"
   style="fill:#330000;stroke:none" />
         <path
   d="m 8592,15174 -135,5 -2,5 137,-3 z"
   id="path302"
   inkscape:connector-curvature="0"
   style="fill:#330000;stroke:none" />
         <path
   d="m 8602,15321 -147,5 -3,18 153,-5 z"
   id="path304"
   inkscape:connector-curvature="0"
   style="fill:#330000;stroke:none" />
         <path
   d="m 8602,15298 -147,5 -3,8 153,-5 z"
   id="path306"
   inkscape:connector-curvature="0"
   style="fill:#330000;stroke:none" />
         <path
   d="m 8612,15448 -160,5 -2,18 165,-5 z"
   id="path308"
   inkscape:connector-curvature="0"
   style="fill:#330000;stroke:none" />
         <path
   d="m 8612,15425 -160,5 -2,8 165,-5 z"
   id="path310"
   inkscape:connector-curvature="0"
   style="fill:#330000;stroke:none" />
         <path
   d="m 5978,14586 -33,8 -38,10 -43,8 -46,15 -46,18 -48,25 -51,36 -48,46 -46,56 -43,73 -38,87 -36,106 -28,125 -23,148 -12,167 -5,196 h -77 v -74 -81 -81 l -2,-87 -8,-86 -10,-89 -18,-89 -25,-89 -33,-87 -46,-81 -53,-79 -66,-76 -82,-69 -96,-63 -109,-56 -130,-46 23,5 28,8 30,7 39,11 38,15 43,18 43,20 46,23 45,30 46,36 46,41 46,45 43,54 43,58 38,66 36,77 -5,-28 -5,-36 -6,-43 -7,-51 -10,-58 -13,-62 -13,-66 -20,-71 -23,-74 -25,-78 -33,-79 -38,-79 -46,-84 -51,-81 -58,-82 -66,-78 53,48 43,48 38,49 33,48 28,48 23,43 23,41 18,36 v -38 l -5,-56 -8,-64 -13,-74 -15,-71 -18,-69 -23,-55 -23,-44 26,33 23,46 20,54 18,63 15,71 13,74 7,79 6,79 20,43 28,71 35,97 36,114 35,127 31,135 23,135 13,132 17,-71 21,-82 20,-94 15,-104 13,-112 2,-119 -5,-125 -17,-130 -26,-122 -25,-106 -23,-94 -25,-79 -23,-66 -21,-56 -17,-43 -18,-34 18,34 25,53 33,74 33,86 30,97 28,99 21,99 12,97 23,-56 31,-61 40,-66 41,-67 38,-68 33,-64 21,-61 7,-56 v 51 l -20,66 -33,79 -41,84 -43,84 -41,74 -30,63 -13,43 8,59 7,61 8,58 3,54 48,-49 51,-58 50,-69 46,-79 38,-89 28,-99 13,-112 -8,-122 13,59 5,81 -8,92 -15,89 28,-26 26,-35 25,-43 23,-46 18,-46 15,-43 10,-36 5,-28 v 31 l -8,40 -10,46 -17,48 -23,51 -31,46 -35,43 -41,33 -13,36 -15,36 -18,38 -18,33 -20,33 -18,28 -20,25 -18,20 -18,18 -17,18 -21,20 -17,31 -18,38 -18,56 -13,71 -12,92 15,-36 23,-41 25,-38 28,-38 25,-33 26,-30 23,-23 18,-16 22,-38 26,-56 18,-48 7,-20 -5,38 -13,48 -15,41 -5,18 36,-18 38,-18 43,-15 41,-10 43,-8 38,-8 h 35 z"
   id="path312"
   inkscape:connector-curvature="0"
   style="fill:#0c0000;stroke:none" />
         <path
   d="m 5533,13697 16,-56 -8,-51 -28,-43 -41,-36 -53,-23 -61,-10 -63,5 -61,25 -56,39 -46,43 -36,48 -22,48 -13,54 v 51 l 13,51 27,50 h -20 l -15,5 -15,3 -13,8 -10,10 -10,10 -5,15 -6,15 -10,-30 -5,-28 -7,-20 -16,-16 41,-17 18,-41 2,-51 -17,-53 -39,-41 -53,-23 -71,8 -86,51 -77,71 -43,63 -15,56 8,46 25,38 36,31 43,17 43,6 -20,33 -16,38 -10,45 -2,44 -26,-110 -40,-66 -49,-30 -48,2 -41,28 -28,54 -7,71 23,86 -28,-23 -31,-2 -28,20 -17,33 v 51 l 25,59 53,68 92,76 -13,3 -10,10 -10,15 -8,21 -2,23 v 28 l 7,25 13,28 20,28 28,25 38,23 49,21 58,15 71,10 84,3 96,-5 79,-11 59,-12 40,-21 28,-20 13,-25 5,-28 -5,-31 -13,-30 31,5 h 35 l 36,-3 38,-10 36,-15 35,-23 28,-28 25,-38 -7,25 -5,23 v 18 l 5,15 10,15 13,10 18,13 22,10 -25,31 -13,28 5,30 16,26 28,25 35,18 41,15 45,5 74,-2 69,-10 68,-21 64,-28 56,-33 53,-40 48,-41 38,-46 33,-46 23,-45 16,-44 5,-40 -8,-36 -18,-33 -28,-23 -43,-18 26,-35 10,-48 -3,-56 -13,-54 -25,-43 -30,-31 -41,-7 -46,23 -15,-21 -13,-17 -18,-16 -15,-10 -20,-7 -20,-3 -23,5 -26,10 61,-35 38,-38 18,-41 v -36 l -18,-30 -28,-21 -40,-5 -51,11 28,-21 15,-23 8,-25 -3,-26 -10,-22 -15,-21 -23,-18 -28,-15 -30,-7 -33,-3 -33,5 -36,13 -33,25 -33,33 -28,46 -25,59 z"
   id="path314"
   inkscape:connector-curvature="0"
   style="fill:#007200;stroke:none" />
         <path
   d="m 6135,15514 v -2 l -5,-10 -2,-11 -5,-10 -5,-5 h -8 l -5,3 v 7 l 5,13 8,15 7,13 3,5 h 414 l 2,-5 6,-13 5,-15 5,-13 v -7 l -5,-3 h -8 l -5,5 -5,10 -3,11 -2,10 -3,2 z"
   id="path316"
   inkscape:connector-curvature="0"
   style="fill:#330000;stroke:none" />
         <path
   d="m 6123,15499 v -8 h 421 v 8 z"
   id="path318"
   inkscape:connector-curvature="0"
   style="fill:#330000;stroke:none" />
         <path
   d="m 6158,15108 -10,-3 -5,-5 -5,-5 -3,-10 3,-11 5,-5 5,-5 10,-2 10,2 6,5 5,5 2,11 -2,10 -5,5 -6,5 z"
   id="path320"
   inkscape:connector-curvature="0"
   style="fill:#330000;stroke:none" />
         <path
   d="m 6486,15400 -10,-3 -5,-5 -5,-5 -3,-10 3,-10 5,-5 5,-5 10,-3 10,3 5,5 5,5 3,10 -3,10 -5,5 -5,5 z"
   id="path322"
   inkscape:connector-curvature="0"
   style="fill:#330000;stroke:none" />
         <path
   d="m 6476,15573 13,-10 -374,-555 -13,11 z"
   id="path324"
   inkscape:connector-curvature="0"
   style="fill:#330000;stroke:none" />
         <path
   d="m 6491,15382 -10,-13 -318,211 11,16 z"
   id="path326"
   inkscape:connector-curvature="0"
   style="fill:#330000;stroke:none" />
         <path
   d="m 6509,15649 -20,-5 -16,-10 -10,-15 -5,-21 5,-20 10,-15 16,-11 20,-5 20,5 15,11 11,15 5,20 -5,21 -11,15 -15,10 z"
   id="path328"
   inkscape:connector-curvature="0"
   style="fill:#330000;stroke:none" />
         <path
   d="m 6161,15649 -20,-5 -16,-10 -10,-15 -5,-21 5,-20 10,-15 16,-11 20,-5 20,5 15,11 11,15 5,20 -5,21 -11,15 -15,10 z"
   id="path330"
   inkscape:connector-curvature="0"
   style="fill:#330000;stroke:none" />
         <path
   d="m 6496,15377 -2,5 -3,10 -7,13 -13,10 -18,13 -25,10 -31,5 -41,3 -27,-5 -23,-11 -21,-15 -17,-18 -16,-20 -10,-20 -10,-21 -5,-15 -8,-20 -7,-28 -10,-33 -13,-38 -13,-36 -10,-33 -8,-25 -7,-16 7,-7 16,23 28,43 38,56 45,58 49,56 53,41 51,20 48,-10 z"
   id="path332"
   inkscape:connector-curvature="0"
   style="fill:#330000;stroke:none" />
         <path
   d="m 6115,15024 5,-3 3,-8 -3,-7 -7,-15 -13,-23 -15,-26 -16,-23 -10,-17 -7,-11 -16,-7 h -15 l -15,5 -13,13 -7,12 v 16 l 7,22 8,8 h 13 l 7,-5 v -13 l -5,-10 -2,-8 v -7 l 5,-3 5,-2 5,2 5,3 5,7 10,18 15,26 16,25 7,15 5,8 5,5 8,3 z"
   id="path334"
   inkscape:connector-curvature="0"
   style="fill:#330000;stroke:none" />
         <path
   d="m 6509,15626 -10,-2 -10,-5 -5,-11 -3,-10 3,-10 5,-10 10,-5 10,-3 10,3 8,5 5,10 2,10 -2,10 -5,11 -8,5 z"
   id="path336"
   inkscape:connector-curvature="0"
   style="fill:#ffffff;stroke:none" />
         <path
   d="m 6161,15626 -10,-2 -8,-5 -5,-11 -3,-10 3,-10 5,-10 8,-5 10,-3 10,3 10,5 5,10 3,10 -3,10 -5,11 -10,5 z"
   id="path338"
   inkscape:connector-curvature="0"
   style="fill:#ffffff;stroke:none" />
         <path
   d="m 6153,15570 -12,-5 -23,-5 -31,-5 -38,-3 -38,-2 h -41 l -38,2 -33,8 3,64 2,81 3,71 v 31 l 23,5 28,2 25,3 h 28 l 25,-3 h 21 l 20,-5 15,-2 z"
   id="path340"
   inkscape:connector-curvature="0"
   style="fill:#330000;stroke:none" />
         <path
   d="m 6001,15547 -3,-15 -10,-20 -13,-18 -20,-18 -25,-15 -33,-8 -41,-2 -46,7 8,-17 10,-18 18,-15 20,-8 h 26 l 28,13 30,22 33,39 -5,-18 -5,-23 -13,-25 -15,-23 -23,-21 -30,-15 -39,-5 -45,8 5,-21 13,-18 22,-12 26,-5 28,5 28,20 28,36 22,58 -5,-33 -7,-38 -13,-36 -15,-35 -20,-31 -28,-25 -31,-18 -38,-8 18,-12 20,-8 h 20 l 23,8 23,20 23,31 23,48 20,66 v -53 l -10,-56 -15,-51 -28,-41 25,8 23,15 18,23 15,28 8,33 5,35 v 41 l -8,43 8,-28 10,-28 10,-28 15,-20 18,-18 21,-10 h 25 l 28,8 -23,15 -25,18 -23,20 -21,26 -17,30 -16,36 -10,38 -5,46 5,-23 13,-26 13,-25 17,-23 21,-18 20,-10 23,3 20,15 -12,2 -18,11 -21,17 -20,23 -18,26 -15,33 -8,35 -2,38 z"
   id="path342"
   inkscape:connector-curvature="0"
   style="fill:#007200;stroke:none" />
         <path
   d="m 5447,15629 -46,-122 -58,23 48,122 z"
   id="path344"
   inkscape:connector-curvature="0"
   style="fill:#330000;stroke:none" />
         <path
   d="m 4898,16002 -7,-48 -18,-43 -26,-38 -30,-36 -38,-25 -43,-18 -46,-13 h -48 l -3,-40 56,2 53,13 51,20 43,33 38,38 28,46 21,51 10,56 -3,56 -12,53 -21,48 -33,44 -38,38 -46,28 -50,20 -56,10 h -56 l -53,-12 -49,-23 -43,-31 -38,-38 -28,-46 -20,-51 -10,-55 v -56 l 12,-54 23,-51 31,-43 38,-38 45,-28 51,-20 56,-10 3,40 -49,8 -43,18 -38,25 -33,31 -28,38 -18,43 -12,46 v 48 l 7,48 18,44 25,38 33,33 36,28 43,17 46,11 48,2 49,-7 43,-18 38,-26 35,-33 26,-35 18,-44 12,-45 z"
   id="path346"
   inkscape:connector-curvature="0"
   style="fill:#330000;stroke:none" />
         <path
   d="m 4665,16079 22,-8 18,-13 10,-20 3,-23 -5,-23 -15,-18 -21,-10 -23,-2 -20,5 -18,15 -12,18 -3,23 8,23 12,17 21,13 z"
   id="path348"
   inkscape:connector-curvature="0"
   style="fill:#330000;stroke:none" />
         <path
   d="m 5851,15924 -8,-49 -17,-43 -26,-38 -30,-36 -38,-25 -41,-18 -46,-13 h -48 l -5,-40 56,2 56,13 48,20 43,33 38,39 28,45 20,51 11,56 v 56 l -13,53 -23,49 -30,45 -39,36 -45,31 -51,20 -56,10 -56,-3 -53,-12 -51,-21 -43,-33 -38,-38 -28,-46 -21,-50 -10,-56 3,-56 12,-54 21,-48 33,-46 38,-35 43,-31 51,-20 56,-10 5,40 -48,8 -44,18 -38,25 -33,31 -28,38 -17,43 -13,46 v 48 l 7,48 18,44 26,38 33,33 35,28 43,18 46,12 h 48 l 49,-7 43,-18 38,-25 33,-34 25,-35 18,-43 13,-46 z"
   id="path350"
   inkscape:connector-curvature="0"
   style="fill:#330000;stroke:none" />
         <path
   d="m 5617,16000 23,-8 18,-12 13,-21 2,-23 -5,-23 -15,-17 -21,-11 -22,-2 -23,5 -18,15 -13,21 -2,22 7,23 13,18 20,10 z"
   id="path352"
   inkscape:connector-curvature="0"
   style="fill:#330000;stroke:none" />
         <path
   d="m 5076,16124 18,-2 18,-8 15,-10 13,-13 10,-12 7,-18 3,-18 v -18 l -3,-20 -7,-15 -10,-18 -11,-13 -15,-10 -18,-5 -17,-5 h -18 l -18,2 -18,8 -15,10 -13,10 -10,16 -7,17 -6,18 v 18 l 3,18 8,18 10,15 12,13 16,10 15,7 18,5 z"
   id="path354"
   inkscape:connector-curvature="0"
   style="fill:#330000;stroke:none" />
         <path
   d="m 5079,16002 -239,-452 -31,13 237,452 z"
   id="path356"
   inkscape:connector-curvature="0"
   style="fill:#330000;stroke:none" />
         <path
   d="m 4827,15479 -18,-3 -20,-2 h -20 l -21,5 -17,7 -11,10 -5,16 3,18 10,20 13,13 12,10 16,5 h 17 l 18,-3 18,-7 18,-10 18,-11 15,-5 18,-5 h 15 15 l 13,3 13,2 h 10 l 15,-10 5,-20 -8,-21 -25,-5 h -18 l -15,3 h -15 -13 l -15,-3 h -13 l -13,-2 z"
   id="path358"
   inkscape:connector-curvature="0"
   style="fill:#330000;stroke:none" />
         <path
   d="m 4657,16051 439,-26 287,-389 -12,-38 -290,402 -422,20 234,-374 470,-66 -13,-30 -475,66 -249,391 z"
   id="path360"
   inkscape:connector-curvature="0"
   style="fill:#330000;stroke:none" />
         <path
   d="m 5401,15646 8,23 18,38 23,49 27,53 34,51 33,43 35,31 36,7 -18,-15 -23,-25 -23,-33 -25,-41 -26,-46 -23,-48 -25,-48 -20,-51 z"
   id="path362"
   inkscape:connector-curvature="0"
   style="fill:#330000;stroke:none" />
         <path
   d="m 5147,15931 8,-35 -76,-18 -8,35 z"
   id="path364"
   inkscape:connector-curvature="0"
   style="fill:#330000;stroke:none" />
         <path
   d="m 5071,16191 8,-36 -77,-15 -7,33 z"
   id="path366"
   inkscape:connector-curvature="0"
   style="fill:#330000;stroke:none" />
         <path
   d="m 5358,15522 -20,-38 25,-23 20,-26 8,-27 -5,-31 -10,-13 -13,-10 -18,-5 -20,-5 h -20 -21 l -20,3 -18,2 -20,-2 -10,-11 2,-15 18,-10 18,-5 23,-3 h 28 l 30,3 28,7 26,13 20,21 13,27 2,51 -15,36 -18,18 -8,7 8,26 z"
   id="path368"
   inkscape:connector-curvature="0"
   style="fill:#330000;stroke:none" />
         <path
   d="m 8473,15728 493,-158 376,59 -8,345 -417,265 -427,-145 z"
   id="path370"
   inkscape:connector-curvature="0"
   style="fill:#330000;stroke:none" />
         <path
   d="m 8933,15847 378,-173 -13,285 -363,229 z"
   id="path372"
   inkscape:connector-curvature="0"
   style="fill:#b26600;stroke:none" />
         <path
   d="m 8511,15761 381,91 5,344 -373,-120 z"
   id="path374"
   inkscape:connector-curvature="0"
   style="fill:#b26600;stroke:none" />
         <path
   d="m 8539,15733 416,-130 -5,199 -38,17 z"
   id="path376"
   inkscape:connector-curvature="0"
   style="fill:#b26600;stroke:none" />
         <path
   d="m 9169,15702 25,-12 -18,-3 -22,-5 -18,-2 -13,2 3,5 10,5 15,5 z"
   id="path378"
   inkscape:connector-curvature="0"
   style="fill:#b26600;stroke:none" />
         <path
   d="m 9225,15674 56,-25 -295,-48 v 185 l 162,-76 -22,-5 -21,-8 -12,-12 2,-16 8,-7 12,-3 h 18 l 21,3 20,5 20,2 18,3 z"
   id="path380"
   inkscape:connector-curvature="0"
   style="fill:#b26600;stroke:none" />
         <path
   d="m 8785,15901 -10,17 -15,6 h -18 l -18,-6 -10,-2 -13,-3 -15,-5 -18,-5 -15,-2 -13,-5 -12,-3 -8,-2 -10,-6 -8,-7 -5,-13 v -15 l 5,-13 13,-10 18,-3 18,3 10,3 12,2 13,5 13,3 15,2 13,5 10,3 10,2 15,8 16,8 7,12 v 21 l -25,-8 v -8 l -3,-5 -7,-2 -5,-3 -6,-2 -12,-3 -15,-5 -18,-5 -18,-3 -15,-5 -13,-2 -8,-3 h -5 -7 l -5,5 -3,5 v 6 l 3,5 2,2 5,3 5,2 13,3 15,5 18,2 18,6 18,5 12,2 8,3 8,2 h 5 l 7,-2 3,-8 z"
   id="path382"
   inkscape:connector-curvature="0"
   style="fill:#330000;stroke:none" />
         <path
   d="m 9542,15232 -498,84 -2,31 10,40 20,48 33,46 46,38 56,28 71,13 84,-13 71,-30 51,-41 35,-48 21,-51 7,-51 3,-43 -3,-33 z"
   id="path384"
   inkscape:connector-curvature="0"
   style="fill:#330000;stroke:none" />
         <path
   d="m 9524,15209 -2,-15 -470,81 2,16 z"
   id="path386"
   inkscape:connector-curvature="0"
   style="fill:#330000;stroke:none" />
         <path
   d="m 9054,15291 470,-82 18,23 -498,84 z"
   id="path388"
   inkscape:connector-curvature="0"
   style="fill:#ffffff;stroke:none" />
         <path
   d="m 9197,15824 18,18 17,13 23,10 26,8 30,2 h 33 l 38,-2 41,-5 40,-8 36,-10 33,-13 25,-13 21,-15 18,-18 15,-17 10,-21 z"
   id="path390"
   inkscape:connector-curvature="0"
   style="fill:#330000;stroke:none" />
         <path
   d="m 9237,16249 21,-5 17,-10 16,-13 12,-15 11,-18 7,-18 3,-20 -3,-20 -5,-21 -10,-15 -13,-15 -12,-16 -18,-7 -18,-8 -20,-2 h -21 l -20,5 -18,10 -15,13 -13,15 -10,18 -7,17 -3,21 3,20 5,20 7,18 13,15 15,13 18,10 18,8 20,3 z"
   id="path392"
   inkscape:connector-curvature="0"
   style="fill:#330000;stroke:none" />
         <path
   d="m 9461,16094 -94,-547 -25,5 94,547 z"
   id="path394"
   inkscape:connector-curvature="0"
   style="fill:#330000;stroke:none" />
         <path
   d="m 9232,16135 71,-575 h -25 l -74,580 z"
   id="path396"
   inkscape:connector-curvature="0"
   style="fill:#330000;stroke:none" />
         <path
   d="m 9761,16150 -369,-610 23,-10 374,615 z"
   id="path398"
   inkscape:connector-curvature="0"
   style="fill:#330000;stroke:none" />
         <path
   d="m 9715,16074 -13,-21 -498,87 5,20 z"
   id="path400"
   inkscape:connector-curvature="0"
   style="fill:#330000;stroke:none" />
         <path
   d="m 9504,16203 20,-5 18,-10 15,-13 13,-12 10,-18 8,-18 3,-20 -3,-21 -5,-20 -10,-18 -13,-15 -15,-13 -18,-10 -18,-8 -20,-2 -20,2 -21,5 -18,8 -15,13 -12,15 -11,18 -7,18 -3,20 3,20 5,21 10,17 13,16 15,12 18,11 17,7 21,3 z"
   id="path402"
   inkscape:connector-curvature="0"
   style="fill:#330000;stroke:none" />
         <path
   d="m 9497,16155 17,-8 16,-15 7,-18 v -20 l -7,-20 -13,-13 -18,-10 h -20 l -21,7 -15,16 -7,17 v 21 l 7,20 13,13 18,10 z"
   id="path404"
   inkscape:connector-curvature="0"
   style="fill:#ffffff;stroke:none" />
         <path
   d="m 9230,16201 20,-8 13,-15 10,-18 v -20 l -8,-21 -15,-12 -18,-11 h -20 l -20,8 -13,15 -10,18 v 20 l 7,21 16,13 17,10 z"
   id="path406"
   inkscape:connector-curvature="0"
   style="fill:#ffffff;stroke:none" />
         <path
   d="m 8168,15453 v -28 h -549 v 28 z"
   id="path408"
   inkscape:connector-curvature="0"
   style="fill:#330000;stroke:none" />
         <path
   d="m 8061,15756 -249,-305 h -76 l 249,305 z"
   id="path410"
   inkscape:connector-curvature="0"
   style="fill:#330000;stroke:none" />
         <path
   d="m 8043,15451 -244,305 h -78 l 244,-305 z"
   id="path412"
   inkscape:connector-curvature="0"
   style="fill:#330000;stroke:none" />
         <path
   d="m 7926,15336 v -17 h -200 v 17 z"
   id="path414"
   inkscape:connector-curvature="0"
   style="fill:#b26600;stroke:none" />
         <path
   d="m 7881,15324 -5,-33 -10,-26 -18,-18 -23,-7 -20,7 -18,18 -10,26 -5,33 h 15 l 2,-26 10,-20 11,-15 15,-5 15,5 13,15 10,20 3,26 z"
   id="path416"
   inkscape:connector-curvature="0"
   style="fill:#b26600;stroke:none" />
         <path
   d="m 7926,15352 v -18 h -200 v 18 z"
   id="path418"
   inkscape:connector-curvature="0"
   style="fill:#ffffff;stroke:none" />
         <path
   d="m 7695,15423 3,-5 7,-3 8,-76 h -61 l 8,76 7,3 3,5 z"
   id="path420"
   inkscape:connector-curvature="0"
   style="fill:#330000;stroke:none" />
         <path
   d="m 7954,15303 11,8 7,8 5,12 -2,13 -5,18 v 18 l 5,17 15,16 v 10 h 76 v -8 l 13,-10 8,-18 v -23 l -6,-25 -2,-10 5,-8 8,-8 h 7 l 8,8 7,18 -5,20 -22,13 v 18 l 15,-5 12,-11 11,-15 2,-20 -5,-23 -10,-15 -18,-3 -23,15 -7,-12 -10,2 -11,3 h -10 l -15,-3 -18,-2 -18,-3 h -17 z"
   id="path422"
   inkscape:connector-curvature="0"
   style="fill:#ffffff;stroke:none" />
         <path
   d="m 8379,15636 -247,-78 -188,27 5,176 209,130 213,-72 z"
   id="path424"
   inkscape:connector-curvature="0"
   style="fill:#d8b272;stroke:none" />
         <path
   d="m 8150,15697 -188,-86 5,140 181,114 z"
   id="path426"
   inkscape:connector-curvature="0"
   style="fill:#330000;stroke:none" />
         <path
   d="m 8361,15654 -191,46 -2,170 185,-58 z"
   id="path428"
   inkscape:connector-curvature="0"
   style="fill:#330000;stroke:none" />
         <path
   d="m 8346,15639 -206,-66 v 99 l 20,10 z"
   id="path430"
   inkscape:connector-curvature="0"
   style="fill:#330000;stroke:none" />
         <path
   d="m 8033,15624 -15,-8 h 10 l 13,-3 7,-2 6,2 v 3 l -6,3 -5,2 z"
   id="path432"
   inkscape:connector-curvature="0"
   style="fill:#330000;stroke:none" />
         <path
   d="m 8005,15611 -30,-13 147,-25 3,91 -82,-35 13,-5 8,-3 7,-5 -2,-8 -10,-5 h -18 l -21,5 z"
   id="path434"
   inkscape:connector-curvature="0"
   style="fill:#330000;stroke:none" />
         <path
   d="m 8224,15723 5,7 7,5 h 11 l 7,-2 13,-5 15,-3 15,-5 11,-2 5,-3 5,-5 v -5 -8 l -3,-7 -7,-3 -8,-2 -8,2 -12,3 -13,2 -13,5 -10,3 -10,2 -8,5 -2,6 v 10 l 12,-3 v -5 -2 l 6,-3 h 2 l 8,-3 17,-5 16,-2 10,-3 h 2 5 3 v 3 2 3 2 l -3,3 -10,3 -17,2 -18,5 -8,3 -5,2 h -2 l -3,-2 -3,-3 z"
   id="path436"
   inkscape:connector-curvature="0"
   style="fill:#d8b272;stroke:none" />
         <path
   d="m 7901,15423 18,-10 7,-21 v -25 -18 h -200 v 18 25 l 7,21 18,10 z"
   id="path438"
   inkscape:connector-curvature="0"
   style="fill:#b26600;stroke:none" />
        </g>
       </g>
      </g>
     </g>
    </g>
   </g>
  </g>
 </g>
</svg>