<?xml version="1.0" encoding="UTF-8" standalone="no"?>
<svg
   xmlns:ooo="http://xml.openoffice.org/svg/export"
   xmlns:dc="http://purl.org/dc/elements/1.1/"
   xmlns:cc="http://creativecommons.org/ns#"
   xmlns:rdf="http://www.w3.org/1999/02/22-rdf-syntax-ns#"
   xmlns:svg="http://www.w3.org/2000/svg"
   xmlns="http://www.w3.org/2000/svg"
   xmlns:sodipodi="http://sodipodi.sourceforge.net/DTD/sodipodi-0.dtd"
   xmlns:inkscape="http://www.inkscape.org/namespaces/inkscape"
   version="1.2"
   width="21.289999mm"
   height="24.1mm"
   viewBox="0 0 2128.9999 2410"
   preserveAspectRatio="xMidYMid"
   xml:space="preserve"
   id="svg81"
   sodipodi:docname="horse.svg"
   style="fill-rule:evenodd;stroke-width:28.22200012;stroke-linejoin:round"
   inkscape:version="0.92.5 (2060ec1f9f, 2020-04-08)"><metadata
   id="metadata85"><rdf:RDF><cc:Work
       rdf:about=""><dc:format>image/svg+xml</dc:format><dc:type
         rdf:resource="http://purl.org/dc/dcmitype/StillImage" /></cc:Work></rdf:RDF></metadata><sodipodi:namedview
   pagecolor="#ffffff"
   bordercolor="#666666"
   borderopacity="1"
   objecttolerance="10"
   gridtolerance="10"
   guidetolerance="10"
   inkscape:pageopacity="0"
   inkscape:pageshadow="2"
   inkscape:window-width="664"
   inkscape:window-height="487"
   id="namedview83"
   showgrid="false"
   inkscape:zoom="0.2102413"
   inkscape:cx="40.251969"
   inkscape:cy="45.543305"
   inkscape:window-x="0"
   inkscape:window-y="0"
   inkscape:window-maximized="0"
   inkscape:current-layer="svg81" />
 <defs
   class="ClipPathGroup"
   id="defs8">
  <clipPath
   id="presentation_clip_path"
   clipPathUnits="userSpaceOnUse">
   <rect
   x="0"
   y="0"
   width="21000"
   height="29700"
   id="rect2" />
  </clipPath>
  <clipPath
   id="presentation_clip_path_shrink"
   clipPathUnits="userSpaceOnUse">
   <rect
   x="21"
   y="29"
   width="20958"
   height="29641"
   id="rect5" />
  </clipPath>
 </defs>
 <defs
   class="TextShapeIndex"
   id="defs12">
  <g
   ooo:slide="id1"
   ooo:id-list="id3"
   id="g10" />
 </defs>
 <defs
   class="EmbeddedBulletChars"
   id="defs44">
  <g
   id="bullet-char-template-57356"
   transform="matrix(4.8828125e-4,0,0,-4.8828125e-4,0,0)">
   <path
   d="M 580,1141 1163,571 580,0 -4,571 Z"
   id="path14"
   inkscape:connector-curvature="0" />
  </g>
  <g
   id="bullet-char-template-57354"
   transform="matrix(4.8828125e-4,0,0,-4.8828125e-4,0,0)">
   <path
   d="M 8,1128 H 1137 V 0 H 8 Z"
   id="path17"
   inkscape:connector-curvature="0" />
  </g>
  <g
   id="bullet-char-template-10146"
   transform="matrix(4.8828125e-4,0,0,-4.8828125e-4,0,0)">
   <path
   d="M 174,0 602,739 174,1481 1456,739 Z M 1358,739 309,1346 659,739 Z"
   id="path20"
   inkscape:connector-curvature="0" />
  </g>
  <g
   id="bullet-char-template-10132"
   transform="matrix(4.8828125e-4,0,0,-4.8828125e-4,0,0)">
   <path
   d="M 2015,739 1276,0 H 717 l 543,543 H 174 v 393 h 1086 l -543,545 h 557 z"
   id="path23"
   inkscape:connector-curvature="0" />
  </g>
  <g
   id="bullet-char-template-10007"
   transform="matrix(4.8828125e-4,0,0,-4.8828125e-4,0,0)">
   <path
   d="m 0,-2 c -7,16 -16,29 -25,39 l 381,530 c -94,256 -141,385 -141,387 0,25 13,38 40,38 9,0 21,-2 34,-5 21,4 42,12 65,25 l 27,-13 111,-251 280,301 64,-25 24,25 c 21,-10 41,-24 62,-43 C 886,937 835,863 770,784 769,783 710,716 594,584 L 774,223 c 0,-27 -21,-55 -63,-84 l 16,-20 C 717,90 699,76 672,76 641,76 570,178 457,381 L 164,-76 c -22,-34 -53,-51 -92,-51 -42,0 -63,17 -64,51 -7,9 -10,24 -10,44 0,9 1,19 2,30 z"
   id="path26"
   inkscape:connector-curvature="0" />
  </g>
  <g
   id="bullet-char-template-10004"
   transform="matrix(4.8828125e-4,0,0,-4.8828125e-4,0,0)">
   <path
   d="M 285,-33 C 182,-33 111,30 74,156 52,228 41,333 41,471 c 0,78 14,145 41,201 34,71 87,106 158,106 53,0 88,-31 106,-94 l 23,-176 c 8,-64 28,-97 59,-98 l 735,706 c 11,11 33,17 66,17 42,0 63,-15 63,-46 V 965 c 0,-36 -10,-64 -30,-84 L 442,47 C 390,-6 338,-33 285,-33 Z"
   id="path29"
   inkscape:connector-curvature="0" />
  </g>
  <g
   id="bullet-char-template-9679"
   transform="matrix(4.8828125e-4,0,0,-4.8828125e-4,0,0)">
   <path
   d="M 813,0 C 632,0 489,54 383,161 276,268 223,411 223,592 c 0,181 53,324 160,431 106,107 249,161 430,161 179,0 323,-54 432,-161 108,-107 162,-251 162,-431 0,-180 -54,-324 -162,-431 C 1136,54 992,0 813,0 Z"
   id="path32"
   inkscape:connector-curvature="0" />
  </g>
  <g
   id="bullet-char-template-8226"
   transform="matrix(4.8828125e-4,0,0,-4.8828125e-4,0,0)">
   <path
   d="m 346,457 c -73,0 -137,26 -191,78 -54,51 -81,114 -81,188 0,73 27,136 81,188 54,52 118,78 191,78 73,0 134,-26 185,-79 51,-51 77,-114 77,-187 0,-75 -25,-137 -76,-188 -50,-52 -112,-78 -186,-78 z"
   id="path35"
   inkscape:connector-curvature="0" />
  </g>
  <g
   id="bullet-char-template-8211"
   transform="matrix(4.8828125e-4,0,0,-4.8828125e-4,0,0)">
   <path
   d="M -4,459 H 1135 V 606 H -4 Z"
   id="path38"
   inkscape:connector-curvature="0" />
  </g>
  <g
   id="bullet-char-template-61548"
   transform="matrix(4.8828125e-4,0,0,-4.8828125e-4,0,0)">
   <path
   d="m 173,740 c 0,163 58,303 173,419 116,115 255,173 419,173 163,0 302,-58 418,-173 116,-116 174,-256 174,-419 0,-163 -58,-303 -174,-418 C 1067,206 928,148 765,148 601,148 462,206 346,322 231,437 173,577 173,740 Z"
   id="path41"
   inkscape:connector-curvature="0" />
  </g>
 </defs>
 <g
   id="g49"
   transform="translate(-9435,-13645)">
  <g
   id="id2"
   class="Master_Slide">
   <g
   id="bg-id2"
   class="Background" />
   <g
   id="bo-id2"
   class="BackgroundObjects" />
  </g>
 </g>
 <g
   class="SlideGroup"
   id="g79"
   transform="translate(-9435,-13645)">
  <g
   id="g77">
   <g
   id="container-id1">
    <g
   id="id1"
   class="Slide"
   clip-path="url(#presentation_clip_path)">
     <g
   class="Page"
   id="g73">
      <g
   class="Graphic"
   id="g71">
       <g
   id="id3">
        <rect
   class="BoundingBox"
   x="9435"
   y="13645"
   width="2129"
   height="2410"
   id="rect51"
   style="fill:none;stroke:none" />
        <defs
   id="defs56">
         <clipPath
   id="clip_path_1"
   clipPathUnits="userSpaceOnUse">
          <path
   d="m 9435,13645 h 2128 v 2409 H 9435 Z"
   id="path53"
   inkscape:connector-curvature="0" />
         </clipPath>
        </defs>
        <g
   clip-path="url(#clip_path_1)"
   id="g68">
         <path
   d="m 10338,15801 -8,7 -17,5 -21,6 -25,2 -31,3 h -28 l -30,-3 -28,-5 -66,3 -16,7 -15,3 -20,2 -21,3 h -20 l -20,-3 h -21 l -15,-2 -23,-8 -20,-8 -15,-2 -11,10 -7,-8 -15,3 -18,10 -26,15 -25,16 -33,18 -33,12 -36,8 -36,-5 -30,-15 -23,-23 -15,-28 -8,-28 3,-26 18,-20 28,-8 -21,3 -18,7 -17,11 -13,17 -5,21 v 25 l 10,31 20,33 -18,2 h -22 -21 -23 -17 l -16,-2 h -12 -3 v 165 h 2129 v -165 l -36,-3 h -35 -33 -31 -28 l -23,3 -15,5 -8,5 18,-46 5,-58 5,-46 21,-20 h -31 l -20,5 -13,15 -7,20 -11,28 -12,28 -21,33 -30,36 10,-31 8,-40 -11,-36 -35,-18 5,18 -13,20 -25,23 -31,21 -33,17 -25,16 -18,10 v 2 h -48 l -34,-12 -25,-16 -25,-20 -28,-15 -39,-8 -53,3 -76,20 -46,13 -25,-3 -16,-7 -10,-11 -18,-10 -35,-5 -59,5 -94,18 h -36 l -15,-10 3,-23 25,-25 -28,12 -18,5 h -12 l -8,-2 -8,-3 -5,-5 h -7 z"
   id="path58"
   inkscape:connector-curvature="0"
   style="fill:#000000;stroke:none" />
         <path
   d="m 11037,14558 28,-11 31,11 36,30 35,46 31,63 23,82 12,96 -2,115 18,-31 15,-28 18,-28 15,-25 13,-25 10,-21 7,-23 3,-17 8,48 2,43 -2,36 -11,33 18,-33 16,-54 10,-66 5,-71 -5,-71 -16,-66 -33,-54 -48,-35 20,-5 21,5 18,7 15,11 -10,-28 -16,-36 -17,-38 -23,-38 -28,-36 -31,-25 -30,-13 -33,3 12,-8 13,-8 10,-2 13,-3 h 10 l 10,3 10,2 11,5 -21,-23 -25,-17 -26,-16 -23,-10 -25,-2 -20,5 -16,15 -12,23 -5,-25 7,-21 18,-15 23,-8 -66,21 -51,17 -38,18 -26,21 -12,30 v 41 l 12,58 21,79 20,13 23,18 18,17 z"
   id="path60"
   inkscape:connector-curvature="0"
   style="fill:#000000;stroke:none" />
         <path
   d="m 10150,15816 2,-13 8,-15 8,-15 12,-13 10,-13 13,-12 13,-8 10,-5 -13,-8 -7,-12 7,-21 31,-25 23,-20 23,-28 23,-36 22,-41 21,-40 18,-38 17,-34 13,-25 15,-33 v -18 l -7,-13 -8,-20 13,-13 18,-12 17,-16 23,-15 23,-13 23,-12 26,-10 25,-5 -23,25 -15,28 -10,28 7,20 13,15 v 13 l -10,18 -18,20 -15,18 -21,31 -22,38 -23,40 -23,44 -21,38 -12,30 -8,21 -5,17 -8,23 -12,28 -16,23 13,10 3,16 -3,20 -5,23 -8,7 -17,5 -21,6 -25,2 -31,3 h -28 l -30,-3 z"
   id="path62"
   inkscape:connector-curvature="0"
   style="fill:#000000;stroke:none" />
         <path
   d="m 10630,14357 21,20 25,18 28,18 31,12 28,6 25,-3 21,-18 12,-30 h -10 l -13,2 h -17 l -18,-2 -15,-3 -16,-2 -10,-8 -5,-10 18,5 18,2 20,3 15,-5 15,-13 13,-23 10,-33 5,-45 -15,7 -20,10 -26,10 -28,3 h -28 l -28,-10 -22,-18 -18,-33 18,15 25,10 25,6 28,-6 26,-12 20,-23 15,-38 6,-54 -13,23 -10,15 -18,8 -33,3 23,-21 20,-43 8,-56 -8,-56 -10,18 -13,20 -18,16 -17,15 -21,13 -20,7 -21,3 -15,-5 41,-18 28,-31 15,-35 10,-41 8,-38 5,-33 8,-28 12,-13 h -33 l -28,15 -23,23 -20,31 -23,30 -23,23 -28,15 h -33 l 36,-17 23,-23 12,-31 11,-35 5,-33 10,-31 13,-23 23,-18 -23,-2 -18,-5 -18,-3 -15,3 -18,7 -20,18 -23,28 -28,41 -10,10 -11,8 -15,2 h -18 l -20,-18 -10,-20 v -18 l 7,-17 11,-21 10,-20 10,-20 5,-21 18,41 v 41 l -13,33 -25,25 20,-5 18,-15 10,-21 5,-28 -2,-28 -8,-28 -15,-28 -21,-25 3,20 -8,21 -12,20 -16,20 -12,21 -11,23 v 25 l 13,28 -18,-13 -10,-25 3,-33 15,-41 8,-23 -3,-18 -13,-17 -15,-16 -20,-10 -21,-7 -17,-5 -16,-3 21,25 10,33 -3,39 -23,45 -12,11 -11,10 v 17 l 16,31 -16,-8 -12,-17 -3,-23 26,-31 -5,-20 -8,-23 -13,-25 -25,-23 -5,38 -16,35 -10,33 10,33 3,-38 13,-30 12,-28 3,-20 10,35 v 43 l -8,36 -22,13 -13,25 -13,20 -13,16 -10,12 -10,11 -5,7 3,8 7,10 5,8 3,10 2,12 3,8 119,31 3,-13 13,-23 23,-18 35,5 -10,36 -18,18 -23,2 -23,-7 -119,-31 -5,-5 -8,-5 -7,10 -6,41 -2,30 -10,28 -13,31 -15,25 -16,26 -12,22 -13,18 -8,13 -5,10 -7,13 -8,15 -2,18 v 20 l 7,21 15,20 23,23 21,10 20,5 23,-2 20,-11 21,-12 20,-18 20,-23 18,-28 13,-25 15,-31 15,-25 18,-21 23,-2 20,-8 18,-7 15,-13 16,-13 12,-18 8,-20 8,-23 -5,46 -11,30 -20,21 -20,12 -23,8 -18,8 -15,7 -8,13 -7,36 -8,35 -13,38 -13,36 -15,35 -15,34 -20,28 -23,25 33,-20 40,-28 46,-31 54,-28 56,-23 56,-12 56,-3 z"
   id="path64"
   inkscape:connector-curvature="0"
   style="fill:#000000;stroke:none" />
         <path
   d="m 10964,14492 v -3 l 20,13 23,18 18,17 12,21 v 2 l 46,74 26,74 12,73 -2,69 -13,64 -15,58 -20,53 -21,46 15,8 8,15 -5,23 -23,30 -28,33 -28,44 -25,45 -23,49 -23,46 -15,43 -13,33 -8,23 -2,35 2,36 -2,28 -10,15 10,13 2,18 -2,20 -10,20 -16,21 -20,15 -23,13 -28,5 -23,-5 -15,-13 -8,-18 3,-23 5,-25 8,-26 10,-23 10,-17 -13,-11 v -17 l 13,-26 20,-33 23,-38 23,-46 23,-51 18,-58 -31,-15 -12,-28 -6,-33 v -31 l -7,3 -21,-8 -20,-10 -10,-5 -15,8 -23,5 -26,7 -30,5 -33,5 -33,8 -33,5 -31,8 18,-21 13,-25 10,-28 5,-30 -8,15 -10,18 -13,20 -12,18 -21,23 -20,20 -28,20 -31,18 -35,25 -36,34 -38,40 -38,43 -33,44 -28,40 -23,31 -10,20 -8,18 -10,28 -15,33 -16,36 -17,35 -16,31 -17,23 -13,10 8,15 -3,20 -10,26 -10,23 -16,7 -15,3 -20,2 -21,3 h -20 l -20,-3 h -21 l -15,-2 28,-54 13,-15 h 7 l 8,-2 -8,-11 3,-12 13,-16 23,-22 15,-18 20,-26 21,-28 20,-33 18,-30 12,-31 11,-25 2,-20 v -16 l 5,-17 5,-21 10,-20 13,-21 15,-17 16,-18 15,-15 18,-16 15,-22 18,-26 15,-25 13,-28 10,-23 8,-21 5,-15 -3,-12 -7,-16 -11,-18 -12,-17 -13,-21 -13,-17 -10,-16 -8,-15 -10,5 -18,5 -22,3 -28,2 h -28 -28 l -23,-2 -18,-3 -15,10 -18,21 -18,28 -20,30 -21,28 -20,26 -20,20 -21,8 h -23 3 l 13,2 7,10 -2,23 -5,28 -8,33 -3,31 6,30 10,28 7,28 v 28 l 23,25 10,28 v 28 l -5,31 -12,25 -18,21 -18,15 -20,8 -31,-13 -15,-36 -5,-43 2,-33 -15,-8 -5,-15 v -23 l 8,-23 7,-38 10,-56 6,-56 -3,-43 -5,-35 2,-34 8,-27 13,-28 15,-28 23,-31 25,-30 31,-36 30,-46 23,-40 16,-44 10,-43 10,-43 15,-48 21,-51 28,-56 15,-26 15,-20 13,-18 12,-18 16,-12 15,-15 20,-16 21,-20 33,-20 40,-28 46,-31 54,-28 56,-23 56,-12 56,-3 55,18 39,58 40,33 41,16 41,5 h 43 l 43,-3 43,8 z"
   id="path66"
   inkscape:connector-curvature="0"
   style="fill:#000000;stroke:none" />
        </g>
       </g>
      </g>
     </g>
    </g>
   </g>
  </g>
 </g>
</svg>