<?xml version="1.0" encoding="UTF-8" standalone="no"?>
<svg
   xmlns:ooo="http://xml.openoffice.org/svg/export"
   xmlns:dc="http://purl.org/dc/elements/1.1/"
   xmlns:cc="http://creativecommons.org/ns#"
   xmlns:rdf="http://www.w3.org/1999/02/22-rdf-syntax-ns#"
   xmlns:svg="http://www.w3.org/2000/svg"
   xmlns="http://www.w3.org/2000/svg"
   xmlns:sodipodi="http://sodipodi.sourceforge.net/DTD/sodipodi-0.dtd"
   xmlns:inkscape="http://www.inkscape.org/namespaces/inkscape"
   version="1.2"
   width="26.389999mm"
   height="20.190001mm"
   viewBox="0 0 2638.9999 2019.0001"
   preserveAspectRatio="xMidYMid"
   xml:space="preserve"
   id="svg599"
   sodipodi:docname="hrmitcrb.svg"
   style="fill-rule:evenodd;stroke-width:28.22200012;stroke-linejoin:round"
   inkscape:version="0.92.5 (2060ec1f9f, 2020-04-08)"><metadata
   id="metadata603"><rdf:RDF><cc:Work
       rdf:about=""><dc:format>image/svg+xml</dc:format><dc:type
         rdf:resource="http://purl.org/dc/dcmitype/StillImage" /></cc:Work></rdf:RDF></metadata><sodipodi:namedview
   pagecolor="#ffffff"
   bordercolor="#666666"
   borderopacity="1"
   objecttolerance="10"
   gridtolerance="10"
   guidetolerance="10"
   inkscape:pageopacity="0"
   inkscape:pageshadow="2"
   inkscape:window-width="664"
   inkscape:window-height="487"
   id="namedview601"
   showgrid="false"
   inkscape:zoom="0.2102413"
   inkscape:cx="49.889765"
   inkscape:cy="38.135431"
   inkscape:window-x="0"
   inkscape:window-y="0"
   inkscape:window-maximized="0"
   inkscape:current-layer="svg599" />
 <defs
   class="ClipPathGroup"
   id="defs8">
  <clipPath
   id="presentation_clip_path"
   clipPathUnits="userSpaceOnUse">
   <rect
   x="0"
   y="0"
   width="21000"
   height="29700"
   id="rect2" />
  </clipPath>
  <clipPath
   id="presentation_clip_path_shrink"
   clipPathUnits="userSpaceOnUse">
   <rect
   x="21"
   y="29"
   width="20958"
   height="29641"
   id="rect5" />
  </clipPath>
 </defs>
 <defs
   class="TextShapeIndex"
   id="defs12">
  <g
   ooo:slide="id1"
   ooo:id-list="id3"
   id="g10" />
 </defs>
 <defs
   class="EmbeddedBulletChars"
   id="defs44">
  <g
   id="bullet-char-template-57356"
   transform="matrix(4.8828125e-4,0,0,-4.8828125e-4,0,0)">
   <path
   d="M 580,1141 1163,571 580,0 -4,571 Z"
   id="path14"
   inkscape:connector-curvature="0" />
  </g>
  <g
   id="bullet-char-template-57354"
   transform="matrix(4.8828125e-4,0,0,-4.8828125e-4,0,0)">
   <path
   d="M 8,1128 H 1137 V 0 H 8 Z"
   id="path17"
   inkscape:connector-curvature="0" />
  </g>
  <g
   id="bullet-char-template-10146"
   transform="matrix(4.8828125e-4,0,0,-4.8828125e-4,0,0)">
   <path
   d="M 174,0 602,739 174,1481 1456,739 Z M 1358,739 309,1346 659,739 Z"
   id="path20"
   inkscape:connector-curvature="0" />
  </g>
  <g
   id="bullet-char-template-10132"
   transform="matrix(4.8828125e-4,0,0,-4.8828125e-4,0,0)">
   <path
   d="M 2015,739 1276,0 H 717 l 543,543 H 174 v 393 h 1086 l -543,545 h 557 z"
   id="path23"
   inkscape:connector-curvature="0" />
  </g>
  <g
   id="bullet-char-template-10007"
   transform="matrix(4.8828125e-4,0,0,-4.8828125e-4,0,0)">
   <path
   d="m 0,-2 c -7,16 -16,29 -25,39 l 381,530 c -94,256 -141,385 -141,387 0,25 13,38 40,38 9,0 21,-2 34,-5 21,4 42,12 65,25 l 27,-13 111,-251 280,301 64,-25 24,25 c 21,-10 41,-24 62,-43 C 886,937 835,863 770,784 769,783 710,716 594,584 L 774,223 c 0,-27 -21,-55 -63,-84 l 16,-20 C 717,90 699,76 672,76 641,76 570,178 457,381 L 164,-76 c -22,-34 -53,-51 -92,-51 -42,0 -63,17 -64,51 -7,9 -10,24 -10,44 0,9 1,19 2,30 z"
   id="path26"
   inkscape:connector-curvature="0" />
  </g>
  <g
   id="bullet-char-template-10004"
   transform="matrix(4.8828125e-4,0,0,-4.8828125e-4,0,0)">
   <path
   d="M 285,-33 C 182,-33 111,30 74,156 52,228 41,333 41,471 c 0,78 14,145 41,201 34,71 87,106 158,106 53,0 88,-31 106,-94 l 23,-176 c 8,-64 28,-97 59,-98 l 735,706 c 11,11 33,17 66,17 42,0 63,-15 63,-46 V 965 c 0,-36 -10,-64 -30,-84 L 442,47 C 390,-6 338,-33 285,-33 Z"
   id="path29"
   inkscape:connector-curvature="0" />
  </g>
  <g
   id="bullet-char-template-9679"
   transform="matrix(4.8828125e-4,0,0,-4.8828125e-4,0,0)">
   <path
   d="M 813,0 C 632,0 489,54 383,161 276,268 223,411 223,592 c 0,181 53,324 160,431 106,107 249,161 430,161 179,0 323,-54 432,-161 108,-107 162,-251 162,-431 0,-180 -54,-324 -162,-431 C 1136,54 992,0 813,0 Z"
   id="path32"
   inkscape:connector-curvature="0" />
  </g>
  <g
   id="bullet-char-template-8226"
   transform="matrix(4.8828125e-4,0,0,-4.8828125e-4,0,0)">
   <path
   d="m 346,457 c -73,0 -137,26 -191,78 -54,51 -81,114 -81,188 0,73 27,136 81,188 54,52 118,78 191,78 73,0 134,-26 185,-79 51,-51 77,-114 77,-187 0,-75 -25,-137 -76,-188 -50,-52 -112,-78 -186,-78 z"
   id="path35"
   inkscape:connector-curvature="0" />
  </g>
  <g
   id="bullet-char-template-8211"
   transform="matrix(4.8828125e-4,0,0,-4.8828125e-4,0,0)">
   <path
   d="M -4,459 H 1135 V 606 H -4 Z"
   id="path38"
   inkscape:connector-curvature="0" />
  </g>
  <g
   id="bullet-char-template-61548"
   transform="matrix(4.8828125e-4,0,0,-4.8828125e-4,0,0)">
   <path
   d="m 173,740 c 0,163 58,303 173,419 116,115 255,173 419,173 163,0 302,-58 418,-173 116,-116 174,-256 174,-419 0,-163 -58,-303 -174,-418 C 1067,206 928,148 765,148 601,148 462,206 346,322 231,437 173,577 173,740 Z"
   id="path41"
   inkscape:connector-curvature="0" />
  </g>
 </defs>
 <g
   id="g49"
   transform="translate(-9180,-13840)">
  <g
   id="id2"
   class="Master_Slide">
   <g
   id="bg-id2"
   class="Background" />
   <g
   id="bo-id2"
   class="BackgroundObjects" />
  </g>
 </g>
 <g
   class="SlideGroup"
   id="g597"
   transform="translate(-9180,-13840)">
  <g
   id="g595">
   <g
   id="container-id1">
    <g
   id="id1"
   class="Slide"
   clip-path="url(#presentation_clip_path)">
     <g
   class="Page"
   id="g591">
      <g
   class="Graphic"
   id="g589">
       <g
   id="id3">
        <rect
   class="BoundingBox"
   x="9180"
   y="13840"
   width="2639"
   height="2019"
   id="rect51"
   style="fill:none;stroke:none" />
        <defs
   id="defs56">
         <clipPath
   id="clip_path_1"
   clipPathUnits="userSpaceOnUse">
          <path
   d="m 9180,13840 h 2638 v 2018 H 9180 Z"
   id="path53"
   inkscape:connector-curvature="0" />
         </clipPath>
        </defs>
        <g
   clip-path="url(#clip_path_1)"
   id="g586">
         <path
   d="m 9630,14649 v -39 l 13,-30 20,-25 25,-21 31,-13 28,-7 28,-5 20,-3 h 18 l 18,3 20,5 18,7 18,11 18,15 12,15 10,21 11,22 12,26 13,23 15,23 16,22 12,18 10,13 11,10 7,5 10,8 13,5 13,5 15,5 18,8 20,10 21,10 40,15 43,18 41,26 43,25 38,28 34,25 30,23 20,18 23,71 5,94 -2,110 7,114 -33,18 -35,13 -33,12 -33,8 -28,8 -26,5 -20,2 h -15 l -21,-5 -33,-7 -45,-16 -51,-20 -56,-25 -56,-31 -51,-36 -43,-40 -41,-54 -43,-71 -43,-81 -44,-87 -38,-89 -28,-84 -17,-73 z"
   id="path58"
   inkscape:connector-curvature="0"
   style="fill:#00008c;stroke:none" />
         <path
   d="m 9800,14379 31,5 33,13 35,20 36,26 33,33 31,38 25,41 18,43 15,40 15,34 16,27 15,21 15,18 18,10 15,13 15,7 23,10 31,16 41,17 43,21 43,20 41,23 35,20 26,18 20,18 23,20 20,26 21,25 17,31 13,28 10,33 5,30 v 56 l -2,69 -3,63 3,46 10,13 8,15 -6,13 h -15 l -12,-3 -13,-2 -15,-3 h -16 -17 l -18,5 -21,8 -23,13 -27,12 -28,10 -34,8 -30,5 -31,3 -25,2 h -23 -18 l -10,-2 -18,-3 -20,-5 -25,-5 -31,-10 -33,-10 -36,-11 -35,-15 15,21 26,25 33,30 40,28 46,26 46,18 48,10 h 46 l 13,10 15,5 20,5 21,5 h 17 21 l 15,-2 13,-3 17,10 21,8 20,5 20,3 18,2 21,-2 17,-3 16,-5 12,5 18,8 18,7 23,5 23,8 25,5 31,5 30,3 31,2 35,-2 36,-3 35,-7 41,-11 38,-12 41,-18 43,-23 5,23 16,25 25,23 30,15 39,8 40,-5 43,-23 44,-41 10,6 10,2 h 10 l 13,-5 10,-8 8,-7 7,-8 8,-8 10,-7 13,-3 13,5 7,16 5,7 8,5 10,3 13,-3 12,-2 11,-5 10,-8 7,-8 8,-7 10,-8 13,-7 15,-5 15,-3 h 16 l 12,5 8,8 8,7 10,5 10,3 h 10 l 13,-3 10,-2 8,-5 7,-5 13,2 h 13 l 10,-2 13,-3 10,-5 7,-5 6,-5 5,-8 17,8 18,-5 10,-10 5,-18 -2,-21 -13,-12 -18,-8 -15,-2 -18,-8 -17,-18 -16,-20 -2,-18 v -23 l -13,-18 -20,-5 -31,5 -28,-5 -18,-20 -10,-33 -5,-36 -5,-15 -8,-13 -10,-10 -12,-10 -13,-5 h -13 -15 l -10,5 -18,8 -13,-6 -10,-10 -8,-15 -10,-25 -10,-36 -10,-36 -5,-30 -3,-26 -10,-27 -15,-23 -23,-16 -15,-2 -16,-5 -15,-3 h -12 l -16,-2 -15,2 h -13 l -10,5 -10,3 h -13 l -12,-3 -13,-5 -13,-7 -10,-8 -10,-10 -8,-8 -15,-33 -15,-48 -13,-49 -5,-35 v -15 l -3,-26 -7,-30 -10,-31 -18,-28 -23,-20 -33,-10 -43,5 -16,5 -20,-5 -20,-10 -18,-16 -8,-12 -10,-13 -10,-13 -15,-13 -18,-10 -21,-2 -22,2 -28,10 -11,3 h -10 -15 l -13,-3 -15,-2 -13,-8 -12,-7 -8,-10 -10,-13 -13,-15 -20,-13 -21,-10 -22,-8 h -23 l -23,8 -21,17 -2,8 -8,10 -7,8 -10,8 -13,5 -13,2 h -10 l -13,-2 -15,-8 -23,-8 -30,-7 -31,-5 -30,2 -28,10 -23,21 -13,35 -8,5 -10,5 -10,3 -13,-3 h -12 l -13,-2 -10,-5 -10,-3 -11,-5 -15,-5 -15,-5 -18,-5 -15,-3 -15,3 -13,2 -8,11 -2,-16 -5,-15 -11,-15 -12,-13 -13,-13 -13,-7 -12,-5 -11,-3 -17,-25 -21,-21 -28,-15 -25,-10 -28,-5 h -26 l -22,2 z"
   id="path60"
   inkscape:connector-curvature="0"
   style="fill:#00008c;stroke:none" />
         <path
   d="m 9887,15249 43,40 51,36 56,31 56,25 51,20 45,16 33,7 21,5 h 15 l 20,-2 26,-5 28,-8 33,-8 33,-12 35,-13 33,-18 8,-5 10,-5 13,-3 15,-2 h 15 18 l 16,5 15,5 10,13 8,15 -6,13 h -15 l -12,-3 -13,-2 -15,-3 h -16 -17 l -18,5 -21,8 -23,13 -27,12 -28,10 -34,8 -30,5 -31,3 -25,2 h -23 -18 -7 l -13,-2 -18,-5 -20,-5 -20,-6 -26,-7 -28,-8 -30,-13 -31,-10 -30,-15 -33,-15 -33,-15 -34,-21 -30,-20 -31,-21 -30,-25 10,3 h 10 l 10,-3 13,-2 10,-3 11,-5 7,-5 z"
   id="path62"
   inkscape:connector-curvature="0"
   style="fill:#00008c;stroke:none" />
         <path
   d="m 9887,15249 -41,-54 -43,-71 -43,-81 -44,-87 -38,-89 -28,-84 -17,-73 -3,-61 v -39 l 13,-30 20,-25 25,-21 31,-13 28,-7 28,-5 20,-3 h 18 l 18,3 20,5 18,7 18,11 18,15 12,15 10,21 11,22 12,26 13,23 15,23 16,22 12,18 10,13 11,10 7,5 10,8 13,5 13,5 15,5 18,8 20,10 21,10 40,15 43,18 41,26 43,25 38,28 34,25 30,23 20,18 23,71 5,94 -2,110 7,114 8,-5 10,-5 13,-3 15,-2 h 15 18 l 16,5 15,5 -3,-46 3,-63 2,-69 v -56 l -5,-30 -10,-33 -13,-28 -17,-31 -21,-25 -20,-26 -23,-20 -20,-18 -26,-18 -35,-20 -41,-23 -43,-20 -43,-21 -41,-17 -31,-16 -23,-10 -15,-7 -15,-13 -18,-10 -15,-18 -15,-21 -16,-27 -15,-34 -15,-40 -18,-43 -25,-41 -31,-38 -33,-33 -36,-26 -35,-20 -33,-13 -31,-5 -48,3 -46,7 -45,16 -41,22 -36,31 -25,38 -18,46 -8,56 5,68 13,77 23,84 33,86 38,92 49,91 53,89 61,84 10,3 h 10 l 10,-3 13,-2 10,-3 11,-5 7,-5 z"
   id="path64"
   inkscape:connector-curvature="0"
   style="fill:#00008c;stroke:none" />
         <path
   d="m 9864,14387 23,7 25,13 26,20 23,23 25,28 20,28 21,31 15,28 15,33 18,28 15,28 15,20 16,20 15,16 13,12 12,11 21,10 30,12 38,18 44,21 43,20 40,18 36,15 25,10 31,15 31,23 27,26 28,30 26,36 18,40 15,44 8,48 v 56 l -8,74 -8,73 v 49 l 16,23 -3,20 -13,13 -20,2 -10,-2 -15,-5 -16,-3 h -18 l -17,3 -21,2 -20,10 -23,13 -20,13 -26,7 -28,8 -28,3 -25,2 h -25 -21 -12 -8 l -13,-2 h -15 l -18,-3 -20,-5 -26,-5 -25,-8 -31,-12 11,15 17,18 23,15 26,15 30,15 33,8 36,5 35,-2 11,7 17,5 18,3 21,2 20,3 18,-3 h 15 l 10,-2 15,7 21,8 20,3 20,5 h 21 20 l 15,-3 16,-5 15,8 18,7 23,5 25,5 30,6 31,2 33,3 h 36 35 l 36,-5 38,-6 38,-7 38,-10 36,-13 35,-15 36,-18 5,20 15,23 21,23 28,15 33,10 h 35 l 36,-15 35,-33 11,5 h 10 l 12,-5 11,-8 12,-7 11,-8 10,-10 7,-5 16,-8 h 17 l 18,8 8,13 13,10 20,-3 23,-7 15,-13 5,-5 10,-5 13,-5 15,-5 15,-3 16,3 10,2 8,5 15,10 18,3 20,-5 13,-8 20,5 20,-2 16,-8 10,-10 15,8 h 10 l 10,-8 5,-15 -5,-16 -15,-10 -20,-5 -18,-2 -13,-8 -15,-15 -10,-18 -3,-15 v -18 l -10,-15 -15,-5 -26,5 -22,-3 -18,-18 -13,-25 -5,-28 -3,-20 -7,-16 -13,-12 -13,-8 -12,-5 h -16 l -10,2 -10,3 -8,5 h -12 -10 l -13,-2 -10,-3 -11,-5 -7,-5 -5,-8 -8,-18 -13,-28 -12,-28 -5,-22 -5,-31 -8,-38 -13,-36 -20,-20 -13,-3 h -15 -15 -18 l -15,3 h -16 l -12,5 -11,3 -17,2 -18,-7 -18,-16 -10,-18 -15,-30 -23,-51 -21,-51 -12,-35 -3,-16 -7,-22 -8,-31 -13,-31 -15,-27 -23,-23 -25,-11 -36,3 -13,3 -17,-3 -16,-8 -12,-12 -8,-11 -10,-12 -15,-13 -16,-13 -20,-7 -20,-5 h -23 l -23,7 h -8 l -15,-2 -15,-3 -18,-7 -18,-8 -15,-10 -13,-8 -7,-10 -8,-8 -13,-7 -18,-3 h -17 l -21,3 -20,7 -18,13 -18,15 -2,5 -8,5 -10,6 h -10 l -13,2 -13,-2 h -10 l -10,-6 -13,-5 -20,-10 -23,-7 -25,-6 h -26 l -23,8 -20,15 -10,28 -8,5 -10,6 -13,2 h -15 l -13,3 -12,-3 h -13 l -8,-2 -10,-6 -18,-7 -20,-8 -20,-7 -21,-6 -20,-5 -15,3 -8,5 -2,-13 -8,-18 -10,-15 -15,-15 -16,-15 -15,-10 -10,-8 -10,-3 -13,-23 -13,-17 -12,-16 -16,-10 -15,-7 -15,-3 -13,3 z"
   id="path66"
   inkscape:connector-curvature="0"
   style="fill:#f9e2fc;stroke:none" />
         <path
   d="m 9877,15272 15,15 33,23 43,28 54,30 58,31 58,23 56,17 54,3 18,-3 22,-2 28,-5 28,-5 26,-5 25,-8 21,-8 15,-7 13,-8 12,-8 16,-5 12,-5 13,-5 13,-2 10,-3 h 10 l 18,3 15,5 10,5 v 5 l -10,2 -10,-2 -13,-3 h -13 -5 -7 l -10,3 -11,2 -12,3 -13,5 -13,5 -15,8 -13,7 -12,6 -18,7 -21,8 -25,5 -28,5 -36,5 -38,5 -20,-2 -23,-3 -23,-5 -23,-5 -23,-8 -20,-5 -18,-5 -12,-5 -21,-10 -30,-13 -36,-18 -38,-20 -41,-23 -33,-20 -30,-18 -18,-13 h 10 l 10,-2 11,-3 z"
   id="path68"
   inkscape:connector-curvature="0"
   style="fill:#f9e2fc;stroke:none" />
         <path
   d="m 10088,14720 5,2 7,8 3,8 v 7 l -3,5 -7,3 -5,2 h -8 l -8,-2 -7,-3 -8,-5 -5,-2 h 10 l 10,-3 11,-7 z"
   id="path70"
   inkscape:connector-curvature="0"
   style="fill:#f9e2fc;stroke:none" />
         <path
   d="m 10011,14707 5,8 11,10 7,8 8,2 h 7 8 l 5,-2 8,-6 7,-10 v -12 l -5,-13 -10,-10 -5,12 -13,11 -15,5 z"
   id="path72"
   inkscape:connector-curvature="0"
   style="fill:#f9e2fc;stroke:none" />
         <path
   d="m 10047,14633 2,11 3,10 3,12 -3,8 -3,8 -2,5 -5,2 -3,3 -7,2 -10,3 h -11 l -10,-5 -5,-10 -8,-10 -7,-11 -5,-7 15,2 23,-2 20,-8 z"
   id="path74"
   inkscape:connector-curvature="0"
   style="fill:#f9e2fc;stroke:none" />
         <path
   d="m 9955,14610 6,11 5,7 5,8 5,2 5,3 h 10 10 l 10,-3 8,-2 8,-8 2,-5 3,-10 v -10 l -3,-10 -2,-10 -5,-8 -8,13 -18,15 -20,7 z"
   id="path76"
   inkscape:connector-curvature="0"
   style="fill:#f9e2fc;stroke:none" />
         <path
   d="m 9940,14570 13,-5 15,-10 15,-11 8,-10 3,-5 h 5 l 2,3 3,5 2,5 5,7 3,6 v 5 2 5 l -3,5 -5,5 -7,6 -13,7 -13,8 -10,2 -8,-2 -5,-3 -5,-2 -2,-5 -5,-5 -3,-6 v -5 z"
   id="path78"
   inkscape:connector-curvature="0"
   style="fill:#f9e2fc;stroke:none" />
         <path
   d="m 9912,14539 13,-10 15,-15 15,-15 6,-11 2,-5 h 3 l 2,3 5,5 3,5 5,8 2,5 3,2 v 5 3 5 l -3,5 -10,5 -12,10 -16,8 -7,5 h -8 -5 l -3,-5 -5,-5 -2,-3 v -2 h -3 z"
   id="path80"
   inkscape:connector-curvature="0"
   style="fill:#f9e2fc;stroke:none" />
         <path
   d="m 9884,14521 -5,-5 -2,-2 -3,-5 3,-3 7,-7 13,-13 13,-15 5,-11 2,-7 5,-5 h 5 l 8,5 8,7 7,6 5,5 -2,7 -8,10 -10,16 -10,12 -10,8 -10,5 h -8 l -8,-2 z"
   id="path82"
   inkscape:connector-curvature="0"
   style="fill:#f9e2fc;stroke:none" />
         <path
   d="m 9915,14443 -8,10 -8,13 -10,10 -10,15 -7,8 -8,5 h -8 -5 -5 -5 l -3,-3 v -7 l 6,-16 10,-20 12,-20 11,-11 7,-2 h 8 l 7,2 6,3 2,2 5,3 3,5 z"
   id="path84"
   inkscape:connector-curvature="0"
   style="fill:#f9e2fc;stroke:none" />
         <path
   d="m 9831,14499 2,-18 11,-26 12,-25 13,-15 -10,-8 -13,-10 -15,-5 -13,-3 -10,3 -5,5 -3,8 v 7 13 25 l -2,23 v 15 l 2,6 3,5 h 5 l 5,2 h 5 5 3 z"
   id="path86"
   inkscape:connector-curvature="0"
   style="fill:#f9e2fc;stroke:none" />
         <path
   d="m 9790,14494 -5,-21 -2,-30 v -28 -21 -2 l -6,-3 h -7 -8 -7 l -11,3 -10,2 -10,3 -5,5 -3,10 3,10 3,13 5,13 10,20 7,18 5,10 6,5 h 5 7 8 l 5,-2 5,-3 h 3 z"
   id="path88"
   inkscape:connector-curvature="0"
   style="fill:#f9e2fc;stroke:none" />
         <path
   d="m 9732,14504 -8,-16 -10,-25 -8,-28 -2,-18 v -7 l -8,-5 h -8 l -7,2 -8,3 -10,5 -10,5 -5,2 -3,3 -2,2 -3,5 3,8 7,13 13,20 13,21 7,12 3,3 8,2 7,3 h 8 l 7,-3 6,-5 5,-2 z"
   id="path90"
   inkscape:connector-curvature="0"
   style="fill:#f9e2fc;stroke:none" />
         <path
   d="m 9678,14521 -12,-12 -16,-21 -12,-22 -8,-18 -3,-5 h -5 -5 l -5,5 -7,5 -8,7 -5,8 -5,8 v 10 l 5,10 7,10 6,5 7,8 13,8 13,7 10,5 h 7 l 8,-2 5,-3 5,-2 3,-3 v -2 z"
   id="path92"
   inkscape:connector-curvature="0"
   style="fill:#f9e2fc;stroke:none" />
         <path
   d="m 9645,14547 -12,-3 -18,-10 -21,-13 -12,-17 -3,-5 h -5 l -5,2 -5,5 -3,10 -5,11 -2,12 -3,8 3,5 5,8 7,5 11,2 10,3 18,5 15,2 h 10 l 5,-2 3,-3 v -2 l 2,-3 3,-5 v -5 -5 z"
   id="path94"
   inkscape:connector-curvature="0"
   style="fill:#f9e2fc;stroke:none" />
         <path
   d="m 9625,14590 h -18 l -20,-5 -23,-5 -10,-8 -5,-2 -3,5 -2,10 v 8 10 10 l 2,13 3,7 7,5 13,3 h 13 12 8 10 l 5,-3 5,-5 3,-7 v -8 -8 -5 -2 l 2,-5 v -5 z"
   id="path96"
   inkscape:connector-curvature="0"
   style="fill:#f9e2fc;stroke:none" />
         <path
   d="m 9622,14651 -12,3 h -21 -20 l -10,-3 -5,3 -3,5 -2,13 2,12 3,8 2,5 v 2 l 3,3 5,5 h 10 13 l 10,-2 10,-3 8,-3 5,-5 2,-2 3,-5 v -5 -5 -5 -6 -5 -5 z"
   id="path98"
   inkscape:connector-curvature="0"
   style="fill:#f9e2fc;stroke:none" />
         <path
   d="m 9566,14720 13,2 15,-2 13,-3 10,-5 h 5 l 3,5 5,8 v 8 7 l 3,8 v 5 5 l -3,3 h -8 l -7,2 -10,3 -11,2 h -10 -7 l -5,-2 -3,-3 -5,-8 -3,-7 v -8 -7 -6 -5 z"
   id="path100"
   inkscape:connector-curvature="0"
   style="fill:#f9e2fc;stroke:none" />
         <path
   d="m 9574,14778 h 10 18 l 15,-2 13,-5 h 5 l 5,5 v 7 l 3,5 2,8 3,5 v 8 7 l -5,3 -8,3 h -10 -10 -8 l -10,2 -10,-2 -5,-8 -5,-10 -5,-10 v -11 z"
   id="path102"
   inkscape:connector-curvature="0"
   style="fill:#f9e2fc;stroke:none" />
         <path
   d="m 9602,14847 h 10 l 13,-3 13,-5 12,-5 v 0 l 3,3 5,5 3,5 2,8 3,10 2,7 3,5 -3,6 -7,5 -11,5 -7,2 -8,3 h -10 -8 l -5,-3 -5,-2 -2,-8 -6,-8 -2,-7 v -8 -7 l 2,-8 z"
   id="path104"
   inkscape:connector-curvature="0"
   style="fill:#f9e2fc;stroke:none" />
         <path
   d="m 9622,14913 h 13 l 18,-5 13,-5 7,-5 h 3 l 2,2 3,5 2,6 3,7 2,8 6,10 v 5 l -3,5 -8,5 -10,5 -7,3 -11,2 h -10 l -7,-2 -8,-8 -5,-13 -5,-12 v -10 z"
   id="path106"
   inkscape:connector-curvature="0"
   style="fill:#f9e2fc;stroke:none" />
         <path
   d="m 9653,14982 10,-3 15,-5 13,-5 8,-8 h 2 l 5,3 5,5 5,8 3,7 5,10 3,8 2,8 -2,7 -11,5 -10,8 -10,3 -10,2 h -10 l -8,-5 -7,-13 -6,-12 -5,-13 -2,-8 z"
   id="path108"
   inkscape:connector-curvature="0"
   style="fill:#f9e2fc;stroke:none" />
         <path
   d="m 9688,15053 16,-3 15,-5 13,-7 5,-8 h 2 l 8,8 5,12 3,11 5,7 2,5 -2,8 -5,8 -8,5 -10,5 -10,2 -11,-2 -10,-5 -7,-11 -5,-7 -3,-5 -3,-5 -2,-8 v -3 z"
   id="path110"
   inkscape:connector-curvature="0"
   style="fill:#f9e2fc;stroke:none" />
         <path
   d="m 9724,15116 h 10 l 13,-5 13,-7 7,-5 3,-3 5,5 5,8 5,7 5,8 3,10 2,8 v 5 l -2,5 -5,5 -5,5 -11,3 h -10 l -10,-3 -8,-5 -7,-10 -5,-10 -8,-10 -2,-8 z"
   id="path112"
   inkscape:connector-curvature="0"
   style="fill:#f9e2fc;stroke:none" />
         <path
   d="m 9765,15180 10,-2 13,-6 10,-7 5,-5 h 2 l 8,5 5,7 3,8 2,8 -2,7 -5,8 -11,5 -12,5 -13,-2 -8,-3 -2,-8 -3,-7 -2,-8 -3,-2 z"
   id="path114"
   inkscape:connector-curvature="0"
   style="fill:#f9e2fc;stroke:none" />
         <path
   d="m 9788,15226 12,-3 13,-5 13,-7 5,-8 2,-3 3,5 5,8 5,8 v 7 l -2,8 -8,8 -8,5 -10,2 h -10 l -10,-7 z"
   id="path116"
   inkscape:connector-curvature="0"
   style="fill:#f9e2fc;stroke:none" />
         <path
   d="m 10233,14811 30,16 43,20 49,28 48,30 48,39 41,38 33,45 15,46 10,92 5,81 v 59 33 h -15 -15 -18 l -10,2 v -53 -79 -79 l -5,-53 -3,-18 v -18 l -7,-23 -13,-28 -28,-33 -46,-38 -68,-48 z"
   id="path118"
   inkscape:connector-curvature="0"
   style="fill:#f9e2fc;stroke:none" />
         <path
   d="m 11211,15033 -15,15 -8,20 -5,21 3,25 -5,23 -15,15 -16,15 -2,18 5,26 2,30 v 28 l -7,20 -8,18 -2,18 v 20 l -5,18 -11,18 -7,18 -3,20 8,18 13,18 5,17 2,18 -7,16 -8,10 -8,5 -2,-5 v -10 l 7,-16 -2,-18 -5,-17 -13,-18 -8,-18 3,-20 8,-18 10,-18 5,-18 v -20 l 2,-18 8,-18 8,-20 v -28 l -3,-30 -5,-26 3,-18 15,-15 15,-15 5,-23 v -25 l 3,-21 10,-20 13,-15 10,-8 7,-5 3,5 z"
   id="path120"
   inkscape:connector-curvature="0"
   style="fill:#e572f2;stroke:none" />
         <path
   d="m 11405,15516 -11,-16 -2,-17 v -18 l 8,-15 7,-16 5,-15 v -18 l -7,-18 -3,-17 5,-18 8,-18 7,-18 3,-18 v -17 -16 l 2,-12 6,-5 7,-3 3,3 v 5 l -5,12 v 16 17 l -3,18 -8,18 -7,18 -5,18 2,17 8,18 v 18 l -5,15 -8,16 -7,15 v 18 l 2,17 10,16 3,5 h -5 l -5,-3 z"
   id="path122"
   inkscape:connector-curvature="0"
   style="fill:#e572f2;stroke:none" />
         <path
   d="m 10456,14562 8,15 10,16 10,17 16,21 12,18 10,20 11,20 7,18 5,33 v 28 l -2,28 -5,23 -3,23 v 25 l 3,23 v 18 5 l 2,3 h 3 l 2,-8 v -18 l -2,-23 v -25 l 2,-23 5,-23 5,-28 -2,-28 -5,-33 -5,-18 -10,-20 -13,-20 -13,-21 -13,-20 -10,-18 -10,-15 -8,-15 -2,-3 h -5 l -5,3 z"
   id="path124"
   inkscape:connector-curvature="0"
   style="fill:#e572f2;stroke:none" />
         <path
   d="m 10586,14954 -3,-13 v -13 l -2,-7 -3,-8 v -36 l 5,-58 5,-58 3,-44 -3,-15 -10,-20 -12,-23 -16,-26 -17,-23 -16,-20 -10,-18 -7,-10 -6,-2 -2,-3 -3,3 3,2 8,10 10,18 15,20 15,23 15,26 16,23 7,20 3,15 -3,44 -5,58 -2,58 v 36 8 l 2,7 v 13 l 3,13 2,5 h 3 l 5,-3 v -5 z"
   id="path126"
   inkscape:connector-curvature="0"
   style="fill:#e572f2;stroke:none" />
         <path
   d="m 10611,15007 v -30 l -2,-28 -3,-21 v -15 -36 l 3,-58 5,-58 2,-44 -2,-15 -10,-20 -13,-26 -15,-23 -18,-25 -15,-20 -10,-18 -8,-13 -5,-5 h -3 l -2,3 2,2 8,13 10,18 15,20 16,25 15,23 15,26 8,20 2,15 -2,44 -3,58 -5,58 v 36 l 3,13 2,20 v 26 l 3,30 v 5 l 2,3 h 3 z"
   id="path128"
   inkscape:connector-curvature="0"
   style="fill:#e572f2;stroke:none" />
         <path
   d="m 10464,14855 -10,-23 -3,-23 3,-26 10,-17 8,-16 -6,-15 -12,-13 -16,-7 -20,-10 -18,-18 -17,-23 -16,-26 -30,-28 -3,-30 10,-28 18,-20 v -8 l -2,-3 -8,3 -13,10 -15,21 -10,28 2,33 31,28 15,22 18,23 18,21 18,10 17,7 13,11 5,15 -7,15 -11,18 -2,25 2,23 11,23 7,5 8,-2 2,-3 z"
   id="path130"
   inkscape:connector-curvature="0"
   style="fill:#e572f2;stroke:none" />
         <path
   d="m 10261,14588 5,12 10,13 10,10 10,8 8,10 5,18 5,15 8,13 15,12 20,16 20,18 16,12 5,16 -3,25 v 25 l 8,26 2,2 6,3 h 2 l 3,-5 -8,-26 v -25 l 3,-25 -6,-16 -15,-12 -20,-18 -21,-16 -15,-12 -7,-13 -5,-15 -6,-18 -7,-10 -10,-8 -11,-10 -7,-13 -5,-12 h -3 l -5,-3 h -5 z"
   id="path132"
   inkscape:connector-curvature="0"
   style="fill:#e572f2;stroke:none" />
         <path
   d="m 10367,14809 v -21 l 3,-17 v -16 l -5,-10 -16,-12 -20,-18 -20,-16 -15,-12 -8,-13 -5,-15 -5,-18 -8,-10 -10,-8 -10,-10 -10,-13 -5,-12 h -3 l -3,-3 h -5 l -2,3 5,12 10,13 10,10 10,8 8,10 5,18 5,15 8,13 15,12 20,16 21,18 15,12 5,10 v 18 l -2,18 v 20 l 2,3 h 3 2 z"
   id="path134"
   inkscape:connector-curvature="0"
   style="fill:#e572f2;stroke:none" />
         <path
   d="m 10327,14801 v -18 l 2,-15 v -13 l -5,-10 -15,-12 -21,-18 -20,-16 -15,-12 -8,-13 -5,-15 -5,-18 -8,-10 -10,-8 -10,-10 -10,-13 -5,-12 h -3 l -5,-3 h -5 v 3 l 5,12 10,13 11,10 10,8 7,10 5,18 6,15 7,13 15,12 21,16 20,18 15,12 3,8 2,10 -2,13 v 15 l 2,5 3,5 3,3 z"
   id="path136"
   inkscape:connector-curvature="0"
   style="fill:#e572f2;stroke:none" />
         <path
   d="m 10288,14776 v -5 l -2,-10 v -11 l -3,-5 -15,-12 -20,-18 -21,-16 -15,-12 -7,-13 -6,-15 -5,-18 -7,-10 -10,-10 -13,-13 -10,-15 -5,-16 h -3 l -5,-2 h -5 v 2 l 5,16 10,15 13,13 10,10 8,10 5,18 5,15 7,13 16,12 20,16 20,18 16,12 2,5 v 8 10 5 l 3,5 5,3 h 2 z"
   id="path138"
   inkscape:connector-curvature="0"
   style="fill:#e572f2;stroke:none" />
         <path
   d="m 10248,14758 -8,-8 -7,-7 -11,-10 -12,-13 -13,-10 -10,-11 -8,-7 -7,-5 -8,-13 -5,-15 -5,-18 -8,-10 -13,-13 -15,-18 -13,-20 -7,-18 h -3 l -2,-2 h -5 l -3,2 8,18 12,20 16,18 12,13 8,10 5,18 3,15 7,13 8,5 10,7 10,11 13,10 13,13 10,10 7,7 8,8 5,3 5,2 h 3 z"
   id="path140"
   inkscape:connector-curvature="0"
   style="fill:#e572f2;stroke:none" />
         <path
   d="m 10657,15572 v 5 l 3,5 5,2 5,-5 7,-10 6,-13 7,-15 5,-18 v -28 l -7,-35 -8,-38 -5,-36 8,-33 17,-31 18,-30 13,-28 v -28 l -10,-33 -10,-36 -3,-45 10,-51 20,-51 21,-56 13,-61 -8,-46 -15,-53 -16,-56 v -43 l 5,-39 -5,-38 -10,-35 -12,-31 -3,-2 -8,-3 -5,3 v 2 l 13,31 10,35 5,38 -5,39 3,43 15,56 15,53 5,46 -12,61 -21,56 -20,51 -10,51 5,45 10,36 8,33 v 28 l -13,28 -18,30 -18,31 -7,33 5,36 7,38 8,35 v 28 l -5,18 -5,13 -5,10 z"
   id="path142"
   inkscape:connector-curvature="0"
   style="fill:#e572f2;stroke:none" />
         <path
   d="m 10698,15572 v 5 l 2,5 5,2 6,-5 7,-10 5,-13 8,-15 5,-18 v -28 l -8,-35 -7,-38 -5,-36 7,-33 18,-31 18,-30 13,-28 v -28 l -11,-33 -10,-36 -2,-45 10,-51 20,-51 21,-56 12,-61 -5,-46 -18,-53 -12,-56 -3,-43 5,-36 -5,-31 -8,-30 -10,-28 -2,-5 h -8 -5 v 5 l 10,28 10,30 3,31 -5,36 2,43 16,56 15,53 5,46 -13,61 -20,56 -20,51 -11,51 5,45 11,36 7,33 v 28 l -12,28 -18,30 -18,31 -8,33 5,36 8,38 8,35 v 28 l -5,18 -5,13 -6,10 z"
   id="path144"
   inkscape:connector-curvature="0"
   style="fill:#e572f2;stroke:none" />
         <path
   d="m 10738,15572 v 5 l 3,5 5,2 5,-5 8,-10 5,-13 8,-15 5,-18 v -28 l -8,-35 -8,-38 -5,-36 8,-33 18,-31 18,-30 12,-28 v -28 l -7,-33 -11,-36 -5,-45 11,-51 20,-51 20,-56 13,-61 -5,-46 -15,-53 -16,-56 -2,-43 5,-36 -3,-36 -10,-33 -10,-28 -3,-2 -7,-3 -5,3 v 2 l 10,28 10,33 3,36 -3,36 v 43 l 15,56 16,53 7,46 -13,61 -22,56 -21,51 -10,51 5,45 10,36 8,33 v 28 l -13,28 -18,30 -17,31 -8,33 5,36 8,38 7,35 3,28 -5,18 -8,13 -5,10 z"
   id="path146"
   inkscape:connector-curvature="0"
   style="fill:#e572f2;stroke:none" />
         <path
   d="m 10779,15572 v 5 l 3,5 5,2 5,-5 8,-10 7,-13 5,-15 5,-18 v -28 l -7,-35 -8,-38 -5,-36 8,-33 17,-31 18,-30 13,-28 v -28 l -8,-33 -10,-36 -5,-45 10,-51 21,-51 20,-56 13,-61 -6,-46 -15,-53 -15,-56 -3,-43 6,-36 -3,-31 -10,-30 -10,-28 -3,-5 h -5 -5 l -3,5 11,28 10,30 2,31 -2,36 v 43 l 15,56 15,53 8,46 -13,61 -23,56 -20,51 -10,51 5,45 10,36 10,33 v 28 l -13,28 -17,30 -18,31 -8,33 5,36 8,38 8,35 v 28 l -5,18 -8,13 -5,10 z"
   id="path148"
   inkscape:connector-curvature="0"
   style="fill:#e572f2;stroke:none" />
         <path
   d="m 10939,15556 5,-33 -2,-38 -8,-38 -5,-33 3,-31 12,-33 18,-30 13,-31 5,-30 -5,-43 -10,-44 -10,-38 v -18 l 5,-22 10,-28 13,-28 12,-28 13,-28 10,-26 8,-23 2,-38 -10,-30 -10,-31 -8,-30 5,-31 16,-33 7,-33 -20,-35 -5,-8 -8,-3 -2,3 2,8 18,35 -5,33 -15,33 -8,31 8,30 10,31 10,30 v 38 l -8,23 -10,26 -12,28 -16,28 -12,28 -8,28 -5,22 v 18 l 10,38 10,44 5,43 -5,30 -15,31 -15,30 -13,33 -3,31 6,33 7,38 3,38 -5,33 v 8 l 2,3 8,-3 z"
   id="path150"
   inkscape:connector-curvature="0"
   style="fill:#e572f2;stroke:none" />
         <path
   d="m 11064,14755 -5,13 -5,10 -3,13 -2,13 7,30 10,31 11,30 v 38 l -8,23 -10,26 -13,28 -15,28 -13,28 -7,28 -6,22 v 18 l 11,38 10,44 5,43 -5,30 -15,31 -16,30 -15,33 -3,31 8,33 8,38 2,38 -5,33 -5,8 -5,3 -5,-3 2,-8 6,-33 -3,-38 -10,-38 -5,-33 2,-31 16,-33 15,-30 15,-31 3,-30 -5,-43 -8,-44 -10,-38 v -18 l 5,-22 7,-28 13,-28 13,-28 13,-28 10,-26 7,-23 3,-38 -10,-30 -10,-31 -8,-30 v -16 l 5,-12 8,-15 5,-13 5,-3 h 5 l 2,5 z"
   id="path152"
   inkscape:connector-curvature="0"
   style="fill:#e572f2;stroke:none" />
         <path
   d="m 11125,14933 -8,23 -10,26 -13,28 -12,28 -13,28 -10,28 -5,22 v 18 l 10,38 10,44 5,43 -2,30 -16,31 -15,30 -15,33 -3,31 5,31 8,33 3,35 -6,31 -5,7 -5,3 -5,-3 3,-7 5,-31 -3,-35 -7,-33 -5,-31 2,-31 13,-33 15,-30 15,-31 5,-30 -5,-43 -10,-44 -10,-38 v -18 l 5,-22 10,-28 13,-28 13,-28 12,-28 11,-26 7,-23 3,-5 5,-2 2,2 z"
   id="path154"
   inkscape:connector-curvature="0"
   style="fill:#e572f2;stroke:none" />
         <path
   d="m 11272,15007 -12,18 -13,20 -10,21 v 12 l 5,13 5,18 3,18 -6,15 -10,20 -7,26 -3,25 5,18 8,18 5,25 -5,26 -15,20 -16,15 -10,18 -5,18 -3,20 6,23 12,28 5,28 -10,25 -18,23 -12,21 -8,22 v 21 l -2,7 h -3 l -5,-2 -3,-5 -2,-21 7,-22 13,-21 20,-23 11,-25 -8,-28 -13,-28 -5,-23 3,-20 7,-18 11,-18 15,-15 13,-20 5,-26 -5,-25 -8,-18 -5,-18 2,-25 8,-26 10,-20 5,-15 v -18 l -5,-18 -5,-13 v -12 l 8,-21 12,-20 13,-18 5,-5 h 5 5 z"
   id="path156"
   inkscape:connector-curvature="0"
   style="fill:#e572f2;stroke:none" />
         <path
   d="m 11316,15010 -13,17 -13,21 -5,18 v 12 l 5,13 5,18 v 18 l -5,15 -10,20 -8,26 -2,25 5,18 8,18 5,25 -5,26 -13,20 -15,15 -11,18 -7,18 -3,20 5,23 13,28 8,28 -10,25 -21,26 -13,30 -5,28 v 23 l -2,8 -3,2 -5,-2 -2,-8 v -23 l 5,-28 12,-30 18,-26 10,-25 -5,-28 -12,-28 -8,-23 3,-20 7,-18 10,-18 16,-15 12,-20 5,-26 -2,-25 -8,-18 -5,-18 3,-25 7,-26 8,-20 5,-15 v -18 l -5,-18 -5,-13 v -12 l 7,-18 13,-21 13,-17 2,-5 8,-3 3,3 z"
   id="path158"
   inkscape:connector-curvature="0"
   style="fill:#e572f2;stroke:none" />
         <path
   d="m 11346,15022 -10,18 -5,15 -3,13 3,10 5,13 5,18 v 18 l -5,15 -8,20 -7,26 -3,25 5,18 8,18 2,25 -5,26 -12,20 -16,15 -10,18 -5,18 -2,20 5,23 12,28 5,28 -10,25 -18,26 -12,25 -8,26 v 23 l -2,7 -3,3 -5,-3 -3,-7 -2,-23 8,-26 12,-25 21,-26 10,-25 -8,-28 -13,-28 -5,-23 3,-20 7,-18 11,-18 15,-15 13,-20 5,-26 -5,-25 -8,-18 -5,-18 2,-25 8,-26 10,-20 5,-15 -2,-18 -3,-18 -5,-13 -2,-10 v -13 l 5,-15 10,-18 5,-5 h 5 5 z"
   id="path160"
   inkscape:connector-curvature="0"
   style="fill:#e572f2;stroke:none" />
         <path
   d="m 11377,15157 -8,21 -3,20 -2,20 5,13 8,18 5,25 -5,26 -13,20 -15,15 -11,18 -7,18 -3,20 5,23 13,28 8,28 -10,25 -21,21 -15,15 -5,15 v 18 l -3,8 -5,2 -5,-2 -2,-8 v -18 l 7,-15 16,-15 17,-21 10,-25 -5,-28 -12,-28 -8,-23 3,-20 7,-18 10,-18 16,-15 12,-20 5,-26 -2,-25 -8,-18 -7,-15 2,-23 5,-23 10,-23 3,-5 5,2 3,6 z"
   id="path162"
   inkscape:connector-curvature="0"
   style="fill:#e572f2;stroke:none" />
         <path
   d="m 11481,15251 v 13 l 5,15 5,13 -5,13 -10,12 -10,13 -11,15 v 18 l 3,20 5,16 v 12 l -5,13 -10,10 -8,11 -7,10 v 15 l 2,18 3,12 2,13 -2,5 -3,5 h 3 2 l 5,-5 3,-5 v -13 l -3,-12 -2,-18 v -15 l 5,-10 10,-11 8,-10 5,-13 v -12 l -3,-16 -5,-20 v -18 l 10,-15 13,-13 10,-12 3,-13 -5,-13 -6,-15 v -13 -5 h -2 l -3,3 z"
   id="path164"
   inkscape:connector-curvature="0"
   style="fill:#e572f2;stroke:none" />
         <path
   d="m 11506,15251 v 13 l 5,15 5,13 -2,13 -10,12 -13,13 -10,15 v 18 l 5,20 2,16 v 12 l -5,13 -7,10 -10,11 -5,10 -3,15 5,18 3,12 v 13 l -3,5 -2,5 h 2 5 l 5,-5 3,-5 -3,-13 -2,-12 -3,-18 v -15 l 8,-10 7,-11 11,-10 5,-13 -3,-12 -2,-16 -3,-20 v -18 l 10,-15 10,-13 11,-12 5,-13 -5,-13 -6,-15 -2,-13 v -5 h -3 l -2,3 z"
   id="path166"
   inkscape:connector-curvature="0"
   style="fill:#e572f2;stroke:none" />
         <path
   d="m 11583,15353 v 8 l 5,7 2,8 -2,7 -5,8 -8,8 -5,7 v 11 l 2,10 3,10 -3,8 -2,5 -5,7 -5,5 -3,8 v 8 l 3,10 v 7 5 6 2 h 2 3 l 2,-2 v -6 -5 -7 l -2,-10 v -8 l 5,-8 5,-5 5,-7 3,-5 v -8 l -3,-10 -3,-10 v -11 l 6,-7 7,-8 5,-8 3,-7 -3,-8 -5,-7 v -8 -3 h -2 -3 z"
   id="path168"
   inkscape:connector-curvature="0"
   style="fill:#e572f2;stroke:none" />
         <path
   d="m 11623,15373 v 3 2 3 l -2,2 -5,8 -8,8 -5,7 v 11 l 2,10 3,10 v 8 l -3,5 -5,7 -5,5 -2,8 -3,8 3,10 2,7 v 5 l -2,6 -3,2 h -2 -3 v -2 l 3,-6 v -5 l -3,-7 -2,-10 2,-8 3,-8 5,-5 5,-7 2,-5 v -8 l -2,-10 -3,-10 v -11 l 5,-7 8,-8 5,-8 3,-2 v -3 0 -2 -3 l 2,-2 h 3 z"
   id="path170"
   inkscape:connector-curvature="0"
   style="fill:#e572f2;stroke:none" />
         <path
   d="m 11682,15391 v 3 2 3 l -3,2 -5,8 -8,8 -5,7 v 10 l 3,11 2,10 v 7 l -2,5 -5,8 -5,5 -3,8 -2,7 2,11 v 5 7 3 l -2,2 h -3 -2 v -2 -3 -7 -5 l -3,-11 v -7 l 5,-8 5,-5 5,-8 3,-5 v -7 l -3,-10 -2,-11 v -10 l 5,-7 7,-8 6,-8 2,-2 v -3 0 -2 -3 -2 h 5 z"
   id="path172"
   inkscape:connector-curvature="0"
   style="fill:#e572f2;stroke:none" />
         <path
   d="m 11702,15442 v 3 0 2 3 l -5,2 -3,5 -2,3 v 7 5 l 2,6 v 5 l -2,5 -3,2 -2,3 -3,2 v 5 6 l 3,5 v 2 3 l -3,2 h -2 v 0 -2 -3 -2 -5 l -3,-6 v -5 l 3,-2 2,-5 3,-3 2,-5 v -2 l -2,-6 v -5 -7 l 2,-5 3,-3 5,-5 v 0 -2 0 0 -3 h 3 v 0 z"
   id="path174"
   inkscape:connector-curvature="0"
   style="fill:#e572f2;stroke:none" />
         <path
   d="m 11722,15460 v 0 2 0 3 l -2,2 -3,3 -2,2 v 6 l 2,2 v 5 3 l -2,5 -3,2 v 3 l -2,2 v 3 3 5 2 3 0 h -3 v 0 -3 0 -2 -5 -3 -3 -5 l 3,-2 2,-3 v -2 -3 -5 -2 -6 -2 l 5,-5 3,-3 v 0 -2 0 0 -3 0 h 2 z"
   id="path176"
   inkscape:connector-curvature="0"
   style="fill:#e572f2;stroke:none" />
         <path
   d="m 11743,15462 v 3 0 0 2 l -3,3 -2,2 v 3 3 2 3 2 3 l -3,2 v 0 l -2,3 v 2 3 l 2,2 v 3 3 h -2 v 0 h -3 v 0 -3 -3 -2 -3 -2 l 3,-3 v 0 l 2,-2 v -3 -2 -3 -2 -3 -3 l 3,-2 2,-3 v -2 0 0 0 -3 z"
   id="path178"
   inkscape:connector-curvature="0"
   style="fill:#e572f2;stroke:none" />
         <path
   d="m 10639,15462 16,8 15,10 20,5 18,5 23,5 23,3 25,2 28,-2 28,-3 31,-5 30,-7 33,-11 36,-12 35,-18 38,-18 39,-23 10,-5 2,-7 -5,-6 -7,-2 -39,23 -38,18 -35,17 -36,13 -33,10 -30,8 -31,5 -28,3 -28,2 -25,-2 -23,-3 -23,-5 -18,-5 -20,-5 -15,-10 -16,-8 h -7 l -3,5 3,8 z"
   id="path180"
   inkscape:connector-curvature="0"
   style="fill:#bf72f2;stroke:none" />
         <path
   d="m 10642,15289 18,11 20,12 20,13 21,10 25,10 23,11 28,7 25,8 31,2 h 30 l 31,-2 33,-8 36,-10 35,-18 38,-20 38,-28 h 6 l 5,2 -3,8 -8,8 -38,28 -38,20 -35,18 -36,10 -33,8 -31,2 h -30 l -31,-2 -25,-8 -28,-8 -23,-10 -25,-10 -21,-10 -20,-13 -20,-13 -18,-10 -10,-7 v -6 l 2,-5 z"
   id="path182"
   inkscape:connector-curvature="0"
   style="fill:#bf72f2;stroke:none" />
         <path
   d="m 10652,15137 33,18 38,17 41,18 41,15 40,13 41,8 h 38 l 36,-5 30,-10 26,-8 22,-8 21,-5 15,-5 13,-2 10,-3 h 8 l 10,3 v 5 l -5,7 -8,3 h -8 l -10,2 -12,3 -16,5 -20,5 -23,8 -25,7 -31,11 -35,5 h -39 l -40,-8 -41,-13 -41,-15 -40,-18 -38,-18 -33,-17 -8,-8 -3,-5 5,-5 z"
   id="path184"
   inkscape:connector-curvature="0"
   style="fill:#bf72f2;stroke:none" />
         <path
   d="m 10622,15000 12,10 21,12 20,8 23,10 23,5 23,8 22,2 18,3 41,3 h 41 l 38,-3 40,-3 36,-2 31,-3 h 30 23 l 25,5 18,13 15,13 13,10 8,3 2,-5 -2,-8 -8,-8 -13,-10 -15,-13 -18,-12 -25,-5 h -23 -30 l -31,2 -36,3 -40,2 -38,3 h -41 l -41,-3 -18,-2 -22,-3 -23,-8 -23,-5 -23,-10 -20,-7 -21,-13 -12,-10 h -11 v 5 l 3,5 z"
   id="path186"
   inkscape:connector-curvature="0"
   style="fill:#bf72f2;stroke:none" />
         <path
   d="m 10344,14791 16,-8 15,-5 18,-7 18,-3 17,-5 18,-2 h 15 18 l 23,2 28,5 33,5 33,8 33,7 36,8 30,5 31,3 30,2 33,5 36,8 36,5 33,10 33,8 25,5 18,8 15,5 20,7 21,10 20,13 23,21 25,25 21,33 23,43 7,8 3,-3 v -7 l -8,-13 -20,-41 -23,-33 -23,-25 -23,-21 -23,-12 -20,-13 -18,-8 -15,-5 -18,-5 -25,-7 -33,-8 -33,-8 -39,-7 -35,-5 -33,-8 -31,-3 -30,-2 -31,-5 -35,-8 -33,-7 -33,-8 -33,-5 -28,-5 -23,-3 h -18 l -20,3 -21,2 -20,5 -20,8 -21,8 -18,7 -15,8 -5,2 3,3 h 7 z"
   id="path188"
   inkscape:connector-curvature="0"
   style="fill:#bf72f2;stroke:none" />
         <path
   d="m 10230,14715 23,-18 23,-15 23,-16 23,-12 25,-13 25,-8 26,-7 30,-5 33,-3 h 41 l 41,3 45,2 41,5 41,8 35,8 28,12 23,13 26,8 25,7 26,5 22,3 23,5 23,2 21,6 20,5 18,5 17,7 18,5 16,8 15,8 12,7 13,8 8,8 5,5 -3,5 -10,-3 -13,-5 -12,-7 -15,-8 -16,-8 -18,-5 -17,-7 -18,-6 -20,-5 -21,-5 -23,-2 -23,-5 -22,-3 -26,-5 -25,-8 -26,-7 -23,-13 -28,-13 -35,-7 -41,-8 -41,-5 -45,-3 -41,-2 h -41 l -33,2 -30,6 -26,7 -25,8 -25,13 -23,12 -23,15 -23,16 -23,18 -10,5 -5,-3 5,-10 z"
   id="path190"
   inkscape:connector-curvature="0"
   style="fill:#bf72f2;stroke:none" />
         <path
   d="m 11176,15239 12,-3 13,-5 15,-3 18,-2 16,-3 h 15 15 l 13,5 12,8 16,8 15,7 13,10 15,11 13,7 10,10 7,8 v 5 l -2,3 -3,2 h -2 l -8,-7 -10,-11 -13,-7 -12,-10 -16,-8 -12,-10 -16,-5 -12,-8 -13,-5 h -15 -18 -15 l -16,5 -15,3 -15,2 -10,3 h -3 v -5 l 3,-3 z"
   id="path192"
   inkscape:connector-curvature="0"
   style="fill:#bf72f2;stroke:none" />
         <path
   d="m 11196,15116 13,-7 18,-8 23,-5 25,-5 h 25 l 26,5 23,13 23,23 5,7 v 5 3 l -5,-3 -23,-22 -23,-13 -26,-5 h -25 l -25,5 -23,5 -18,8 -13,5 -5,2 -3,-2 3,-5 z"
   id="path194"
   inkscape:connector-curvature="0"
   style="fill:#bf72f2;stroke:none" />
         <path
   d="m 11145,15368 h 13 l 13,-2 12,-3 16,-5 12,-2 13,-6 10,-5 10,-5 11,-5 12,-2 18,-3 h 20 l 23,3 21,10 20,13 18,17 2,5 v 5 3 l -2,-3 -18,-17 -20,-13 -21,-8 -23,-5 h -20 l -18,3 -12,5 -11,5 -10,5 -10,5 -13,5 -12,3 -16,5 -12,2 -13,3 h -13 -7 v -5 l 2,-5 z"
   id="path196"
   inkscape:connector-curvature="0"
   style="fill:#bf72f2;stroke:none" />
         <path
   d="m 11150,15457 11,5 15,5 15,5 18,8 20,3 18,2 h 20 l 16,-5 h 10 l 12,-2 13,-3 15,-3 13,-2 15,-5 11,-5 10,-5 2,-3 3,-2 v -5 h -5 l -10,5 -11,5 -15,5 -13,2 -15,3 -13,2 -12,3 h -10 l -16,5 h -20 l -18,-3 -20,-2 -18,-8 -15,-5 -15,-5 -11,-5 -5,-2 -2,2 2,5 z"
   id="path198"
   inkscape:connector-curvature="0"
   style="fill:#bf72f2;stroke:none" />
         <path
   d="m 11145,15528 10,8 13,3 10,2 h 13 10 l 8,-2 10,-3 8,-5 17,8 21,5 20,-3 15,-7 16,-13 20,-10 20,-5 16,2 h 5 l 2,-2 v -6 l -5,-2 -15,-3 -21,5 -20,11 -15,12 -15,8 -21,3 -20,-6 -18,-7 -7,5 -11,2 -10,3 h -10 -10 l -10,-3 -13,-2 -10,-8 -5,-2 -3,2 3,3 z"
   id="path200"
   inkscape:connector-curvature="0"
   style="fill:#bf72f2;stroke:none" />
         <path
   d="m 11550,15328 h -11 l -10,-3 h -10 -5 l -8,8 -5,10 -2,15 5,10 7,3 h 8 10 5 l 5,-3 5,-5 6,-5 2,-5 v -8 -5 -7 z"
   id="path202"
   inkscape:connector-curvature="0"
   style="fill:#bf72f2;stroke:none" />
         <path
   d="m 11534,15381 h -5 -10 -10 -5 v 5 10 8 7 l 2,3 5,3 3,2 h 5 5 l 5,-2 h 3 l 2,-3 v -5 l -2,-8 v -10 z"
   id="path204"
   inkscape:connector-curvature="0"
   style="fill:#bf72f2;stroke:none" />
         <path
   d="m 11529,15312 5,3 h 5 5 6 l 2,-5 3,-5 2,-3 3,-2 2,-3 3,-8 v -5 l -3,-5 -7,-5 -8,-2 -10,-3 h -5 -3 l -2,5 v 3 l 2,5 3,5 2,10 -2,10 z"
   id="path206"
   inkscape:connector-curvature="0"
   style="fill:#bf72f2;stroke:none" />
         <path
   d="m 11504,15429 5,3 h 7 11 5 l 2,2 v 3 l -2,5 -3,5 -5,3 -5,7 -3,5 -2,5 -3,3 h -10 l -10,-3 -10,-2 v -5 -5 l 2,-5 3,-5 5,-3 5,-5 5,-5 z"
   id="path208"
   inkscape:connector-curvature="0"
   style="fill:#bf72f2;stroke:none" />
         <path
   d="m 11504,15480 h -5 -5 -6 -5 l -2,5 v 3 5 l 2,2 3,5 v 8 8 l -3,7 v 3 l 3,5 h 5 5 l 8,-3 7,-5 5,-2 3,-5 v -8 l -3,-5 v -8 l -2,-5 v -2 -5 l -3,-3 z"
   id="path210"
   inkscape:connector-curvature="0"
   style="fill:#bf72f2;stroke:none" />
         <path
   d="m 11557,15267 -5,-3 -8,-3 h -10 l -5,-2 h -2 v -3 -2 l 2,-3 v -5 l 3,-2 5,-3 5,3 8,5 5,5 5,7 z"
   id="path212"
   inkscape:connector-curvature="0"
   style="fill:#bf72f2;stroke:none" />
         <path
   d="m 9335,14862 -20,18 -18,18 -13,23 -10,23 -8,22 -5,21 -2,15 v 13 l 7,-15 13,-16 15,-12 18,-16 15,-12 18,-13 16,-13 12,-7 v -6 l 5,-7 5,-5 5,-5 3,-5 -3,-8 -5,-3 h -7 l 7,-7 13,-3 10,-2 8,-3 2,-5 -5,-2 h -5 l -7,2 5,-8 10,-5 10,-2 10,-3 5,-5 -2,-2 -5,-5 h -5 l 5,-6 10,-2 h 10 8 l 5,-5 v -3 l -5,-5 h -8 l 8,-7 h 10 l 7,2 8,-2 3,-6 -3,-5 -5,-2 -5,-3 8,-2 h 7 10 11 v -3 l -3,-2 -5,-3 -5,-2 7,-3 h 8 l 8,3 5,-3 2,-2 -2,-3 h -5 l -5,-3 7,-2 h 8 5 5 l 3,-3 v -2 l -3,-3 h -5 l 8,-2 2,-3 5,3 h 5 l 3,-3 v -2 -3 l -5,-5 h 7 l 8,3 8,2 h 5 l 2,-2 v -3 -5 l -2,-3 12,-2 13,2 13,5 7,6 -2,-8 -5,-10 -5,-10 -3,-8 -10,-5 -15,-3 -15,-2 h -11 l 5,5 8,5 v 5 l -5,3 h -8 l -10,-6 -10,-5 h -10 l 5,5 5,6 v 5 l -5,2 -5,-2 -8,-3 -7,-2 -5,2 5,3 7,5 v 2 l -2,5 h -8 -8 l -7,-2 -8,5 5,2 5,3 v 3 l -2,2 -8,3 -5,-3 h -8 l -7,3 2,2 5,3 v 2 l -2,3 h -3 -5 l -7,-3 -8,3 5,2 3,3 2,5 -2,3 h -5 l -3,-3 h -8 l -10,3 5,2 3,3 2,2 -2,5 -5,3 h -5 l -5,-3 -11,3 6,2 h 5 l 2,3 -2,5 -8,2 -8,-2 h -7 l -8,2 5,3 5,3 3,5 -3,2 h -7 l -8,3 -10,2 -8,5 h 8 l 2,3 v 2 l -2,3 -5,3 h -5 -5 l -5,2 5,3 2,2 v 5 l -2,3 h -5 l -6,-3 h -7 l -8,5 3,5 v 8 l -3,8 z"
   id="path214"
   inkscape:connector-curvature="0"
   style="fill:#00008c;stroke:none" />
         <path
   d="m 9488,14392 40,5 -2,-36 -59,-28 z"
   id="path216"
   inkscape:connector-curvature="0"
   style="fill:#00008c;stroke:none" />
         <path
   d="m 9676,14827 7,-3 16,3 15,2 13,5 v -5 l -5,-7 -6,-8 -5,-5 h 8 l 13,5 15,8 13,7 -3,-5 -2,-5 -6,-5 -5,-5 13,2 10,3 13,8 13,7 10,-2 20,-3 23,-2 28,-6 31,-5 25,-2 h 25 16 v -3 -7 -8 l 2,-8 3,-2 7,-3 8,3 8,5 7,5 8,3 15,2 h 18 20 21 20 20 16 l -28,-13 -33,-17 -41,-21 -43,-23 -44,-20 -38,-20 -30,-18 -23,-15 -20,-16 -21,-17 -25,-21 -23,-20 -23,-23 -18,-20 -15,-18 -8,-15 -10,-23 -5,-21 -2,-12 -6,-13 -10,-10 -15,-10 -20,-11 -16,-5 -12,-10 -13,-7 -10,-6 -5,-2 h -13 l -13,-8 -10,-7 -2,-8 -26,-13 5,10 v 11 5 l -2,2 2,36 -40,-5 -3,7 -10,6 h -13 l -7,-6 h -6 -7 -8 -2 l 5,6 10,10 13,12 5,11 20,12 13,13 2,13 -2,10 13,20 12,23 10,20 8,13 3,8 5,10 5,10 5,8 5,7 2,8 6,8 2,5 5,7 5,11 8,12 5,8 5,8 5,7 3,10 2,8 3,8 5,10 5,10 2,8 3,7 3,8 5,10 2,8 8,10 10,20 10,18 z"
   id="path218"
   inkscape:connector-curvature="0"
   style="fill:#00008c;stroke:none" />
         <path
   d="m 9455,14399 7,6 h 13 l 10,-6 3,-7 -3,-13 -13,-5 -17,-8 -21,-7 -20,-8 -20,-5 -18,-8 -13,-5 -10,-2 10,7 13,11 15,10 15,10 16,10 15,8 10,7 z"
   id="path220"
   inkscape:connector-curvature="0"
   style="fill:#00008c;stroke:none" />
         <path
   d="m 9498,14349 28,12 2,-2 v -5 -11 l -5,-10 -10,-23 -20,-33 -18,-30 -13,-26 5,28 10,41 13,38 z"
   id="path222"
   inkscape:connector-curvature="0"
   style="fill:#00008c;stroke:none" />
         <path
   d="m 9498,14349 -15,-21 -26,-30 -33,-38 -36,-41 -38,-38 -38,-33 -33,-26 -28,-10 -7,3 -3,2 5,5 8,5 7,5 13,11 15,12 21,16 17,17 18,16 16,15 10,13 10,12 15,16 15,17 16,16 15,15 13,13 10,10 5,5 z"
   id="path224"
   inkscape:connector-curvature="0"
   style="fill:#00008c;stroke:none" />
         <path
   d="m 9498,14486 2,-10 -2,-13 -13,-13 -20,-12 -26,-11 -17,-10 -16,-5 -12,-2 2,12 v 10 l -5,8 -10,5 10,5 15,8 18,5 18,8 18,5 17,5 13,2 z"
   id="path226"
   inkscape:connector-curvature="0"
   style="fill:#00008c;stroke:none" />
         <path
   d="m 9381,14445 10,-5 5,-8 v -10 l -2,-12 -8,-3 -8,-2 -5,-6 h -2 l 2,11 v 10 l -5,7 -13,5 6,6 7,5 5,2 z"
   id="path228"
   inkscape:connector-curvature="0"
   style="fill:#00008c;stroke:none" />
         <path
   d="m 9355,14432 13,-5 5,-7 v -10 l -2,-11 -26,-25 -18,-25 -15,-26 -10,-28 -5,-30 v -33 l 5,-36 13,-41 20,-43 28,-43 38,-43 46,-41 53,-36 61,-30 69,-23 76,-13 41,-2 38,-3 41,-2 h 38 l 38,2 36,3 38,2 35,5 33,5 36,8 33,5 33,8 33,7 31,11 30,7 31,10 25,3 h 31 l 33,-3 35,-7 36,-13 30,-13 26,-18 15,-22 -28,15 -30,13 -33,10 -34,10 -33,5 -33,3 h -28 l -22,-3 -31,-10 -31,-8 -30,-10 -33,-8 -33,-7 -33,-5 -36,-8 -33,-5 -35,-5 -39,-3 -35,-2 -38,-3 h -38 l -39,3 -38,2 -40,3 -38,5 -39,8 -38,10 -33,12 -33,16 -30,15 -31,18 -25,18 -26,20 -23,20 -22,21 -18,23 -16,20 -15,23 -10,20 -10,23 -13,41 -10,40 -3,38 3,36 5,33 13,31 20,30 23,26 5,7 8,5 7,8 z"
   id="path230"
   inkscape:connector-curvature="0"
   style="fill:#00008c;stroke:none" />
         <path
   d="m 9549,14346 2,8 10,7 13,8 h 13 v -18 l -3,-20 -5,-23 -7,-15 -8,2 h -10 l -10,-2 -8,-3 5,13 5,15 3,18 z"
   id="path232"
   inkscape:connector-curvature="0"
   style="fill:#00008c;stroke:none" />
         <path
   d="m 9536,14290 8,3 10,2 h 10 l 8,-2 -3,-11 -3,-12 v -13 l 3,-8 h -8 l -7,-2 -8,-3 -2,-5 -6,13 -2,15 -3,13 z"
   id="path234"
   inkscape:connector-curvature="0"
   style="fill:#00008c;stroke:none" />
         <path
   d="m 9544,14239 2,5 8,3 7,2 h 8 l 10,-33 15,-33 18,-30 21,-28 25,-31 30,-25 34,-28 38,-26 30,-15 36,-13 43,-10 46,-5 48,3 53,5 54,10 58,18 59,18 53,15 51,10 48,3 44,-3 43,-10 38,-15 38,-26 -58,15 -49,11 -46,5 -40,-3 -41,-5 -41,-10 -43,-13 -48,-15 -51,-15 -51,-16 -51,-10 -50,-5 h -51 l -49,8 -50,15 -49,25 -38,26 -33,28 -30,30 -28,31 -21,30 -18,33 -12,36 z"
   id="path236"
   inkscape:connector-curvature="0"
   style="fill:#00008c;stroke:none" />
         <path
   d="m 9594,14664 -20,-38 -13,-5 -15,-5 -13,-3 h -10 -5 l -2,5 -3,3 3,5 h -21 l -20,10 -18,10 -10,8 v 5 2 l 5,5 3,3 -6,10 -2,15 2,21 13,25 v -18 l 3,-17 2,-18 5,-10 h 3 2 3 l 3,2 7,-5 8,-8 7,-5 6,-5 5,-2 7,-3 h 5 5 l 5,3 3,2 3,3 2,2 h 10 16 l 15,3 z"
   id="path238"
   inkscape:connector-curvature="0"
   style="fill:#00008c;stroke:none" />
         <path
   d="m 9564,14605 -23,-43 -13,-5 -12,-2 h -13 -8 -10 l 5,7 h -13 -12 l -10,5 -11,5 -10,5 -7,6 -8,2 -3,3 3,10 -8,12 -7,21 v 25 l 5,28 5,-20 5,-26 10,-17 8,-11 20,3 8,-5 12,-8 11,-5 7,-2 8,-13 2,5 3,3 v 5 2 l 8,-2 h 15 l 15,2 z"
   id="path240"
   inkscape:connector-curvature="0"
   style="fill:#00008c;stroke:none" />
         <path
   d="m 9470,14341 10,25 -18,-10 -18,-13 -20,-12 -20,-13 -23,-10 -20,-10 -18,-10 -18,-6 -15,-5 -18,-5 -15,-5 -18,-2 -15,-5 -13,-3 -13,-3 h -10 l -8,-2 -7,-5 2,-3 13,-2 h 13 l 15,2 18,3 18,2 20,5 18,3 12,5 13,5 13,5 18,10 20,11 23,10 20,13 18,10 15,10 z"
   id="path242"
   inkscape:connector-curvature="0"
   style="fill:#00008c;stroke:none" />
         <path
   d="m 9462,14254 10,-2 8,-5 5,-8 3,-10 -3,-10 -5,-5 -8,-5 -10,-3 -10,3 -8,5 -5,5 -2,10 2,10 5,8 8,5 z"
   id="path244"
   inkscape:connector-curvature="0"
   style="fill:#00008c;stroke:none" />
         <path
   d="m 9361,14361 10,-2 7,-5 5,-5 3,-11 -3,-10 -5,-7 -7,-5 -10,-3 -11,3 -5,5 -5,7 -2,10 2,11 5,5 5,5 z"
   id="path246"
   inkscape:connector-curvature="0"
   style="fill:#00008c;stroke:none" />
         <path
   d="m 9617,14727 h -10 l -13,6 -15,7 -15,8 -15,7 -16,11 -12,7 -8,5 -10,8 -15,13 -18,15 -18,18 -20,15 -16,15 -12,13 -5,8 -11,10 -12,10 -15,10 -11,5 -5,5 -10,5 -13,10 -12,11 -16,12 -12,11 -10,7 -6,8 6,-13 7,-15 10,-15 10,-18 11,-15 12,-18 11,-13 10,-10 10,-8 8,-10 10,-8 10,-10 10,-10 10,-10 10,-8 13,-10 13,-10 18,-13 17,-12 18,-13 18,-10 15,-11 15,-7 11,-5 17,-3 18,-5 h 15 11 l 2,5 3,5 2,5 z"
   id="path248"
   inkscape:connector-curvature="0"
   style="fill:#b2b2ff;stroke:none" />
         <path
   d="m 9462,14247 8,-3 5,-2 2,-5 3,-5 -3,-8 -2,-5 -5,-3 h -8 -5 l -5,3 -3,5 -2,8 2,5 3,5 5,2 z"
   id="path250"
   inkscape:connector-curvature="0"
   style="fill:#b2b2ff;stroke:none" />
         <path
   d="m 9363,14354 5,-3 5,-2 3,-6 2,-5 -2,-7 -3,-5 -5,-3 h -5 -8 l -5,3 -2,5 -3,7 3,5 2,6 5,2 z"
   id="path252"
   inkscape:connector-curvature="0"
   style="fill:#b2b2ff;stroke:none" />
         <path
   d="m 9587,14656 -3,-5 -5,-7 -2,-8 -5,-5 -8,-3 -13,-5 -13,-2 -7,-3 -5,3 v 2 5 l 2,3 3,5 5,8 5,5 5,5 h 8 10 l 13,2 z"
   id="path254"
   inkscape:connector-curvature="0"
   style="fill:#b2b2ff;stroke:none" />
         <path
   d="m 9526,14644 v -6 l -3,-2 -5,-5 h -2 -11 l -12,5 -13,2 -8,6 -2,2 -5,5 -5,3 -3,2 5,3 8,2 5,5 5,3 13,-8 12,-10 13,-5 z"
   id="path256"
   inkscape:connector-curvature="0"
   style="fill:#b2b2ff;stroke:none" />
         <path
   d="m 9467,14674 v -2 h -5 -2 -3 l -2,10 v 12 16 l 2,15 v -15 l 3,-16 2,-12 z"
   id="path258"
   inkscape:connector-curvature="0"
   style="fill:#b2b2ff;stroke:none" />
         <path
   d="m 9551,14590 -2,-5 -3,-8 -2,-5 -3,-5 -8,-2 -12,-3 -13,-2 h -8 l 3,5 5,7 3,5 2,8 h 8 12 l 11,3 z"
   id="path260"
   inkscape:connector-curvature="0"
   style="fill:#b2b2ff;stroke:none" />
         <path
   d="m 9498,14577 v -2 l -5,-5 -3,-3 h -5 l -13,3 -17,5 -18,8 -10,5 5,2 5,5 2,5 v 5 h 3 5 2 3 l 10,-5 10,-5 11,-5 5,-2 h 2 l 3,-5 5,-3 z"
   id="path262"
   inkscape:connector-curvature="0"
   style="fill:#b2b2ff;stroke:none" />
         <path
   d="m 9429,14610 v -2 l -2,-3 h -3 -2 l -6,11 -7,12 -3,21 v 20 l 3,-15 7,-21 6,-15 z"
   id="path264"
   inkscape:connector-curvature="0"
   style="fill:#b2b2ff;stroke:none" />
         <path
   d="m 9719,14537 8,12 12,16 16,18 17,15 18,18 18,17 18,13 15,13 20,13 28,12 36,18 38,18 38,20 38,18 31,13 23,12 h -21 -17 -16 -12 l -11,-5 -15,-7 -18,-5 -10,-3 -10,5 -5,8 -3,7 v 8 0 h -12 l -21,3 -25,2 -25,5 -26,5 -23,3 -15,5 h -10 l -15,-8 -21,-7 -23,-8 -15,-3 3,6 5,5 2,5 3,5 -10,-5 -13,-5 -13,-3 h -7 l 5,5 2,5 5,5 v 5 l -7,-5 -5,-2 h -6 -2 l -13,-15 -12,-23 -11,-23 -5,-18 -5,-10 -5,-18 -10,-20 -13,-23 -13,-23 -10,-26 -10,-20 -10,-15 -8,-15 -12,-28 -18,-28 -13,-21 v -10 l -7,-13 -13,-12 -18,-13 -3,-8 -7,-7 -10,-5 -3,-3 h 3 5 5 l 5,-2 8,5 h 10 l 7,-3 3,-7 30,2 -2,-36 5,-2 2,-5 v -5 l -2,-8 15,13 3,7 12,6 13,7 h 10 l 13,5 20,10 23,13 16,10 7,8 8,13 5,15 2,13 5,15 11,20 10,18 z"
   id="path266"
   inkscape:connector-curvature="0"
   style="fill:#b2b2ff;stroke:none" />
         <path
   d="m 9373,14911 -10,15 -10,20 -13,26 -13,22 -12,26 -10,23 -8,18 -5,10 -3,12 3,6 h 2 l 3,-6 15,-25 26,-31 33,-33 35,-33 33,-30 33,-26 26,-17 15,-11 v -7 l 5,-5 5,-5 8,-3 -5,-5 v -8 l 7,-2 11,-3 -3,-5 -5,-5 -5,-2 h -5 l 12,-13 11,-3 h 7 l 8,-2 v -5 l -3,-3 -7,-2 -5,-3 7,-2 h 10 l 11,2 7,-2 3,-3 -3,-3 -5,-2 -5,-3 8,-2 10,-3 h 10 l 10,3 v -3 l -2,-5 -5,-2 -6,-3 8,-5 h 13 13 l 7,3 -2,-8 -5,-10 -3,-8 -3,-7 -7,-6 -13,-5 -13,-2 -12,2 2,3 v 5 3 l -2,2 h -5 l -8,-2 -8,-3 h -7 l 5,5 v 3 2 l -3,3 h -5 l -5,-3 -2,3 -8,2 h 5 l 3,3 v 2 l -3,3 h -5 -5 -8 l -7,2 5,3 h 5 l 2,3 -2,2 -5,3 -8,-3 h -8 l -7,3 5,2 5,3 3,2 v 3 h -11 -10 -7 l -8,2 5,3 5,2 3,5 -3,6 -8,2 -7,-2 h -10 l -8,7 h 8 l 5,5 v 3 l -5,5 h -8 -10 l -10,2 -5,6 h 5 l 5,5 2,2 -5,5 -10,3 -10,2 -10,5 -5,8 7,-2 h 5 l 5,2 -2,5 -8,3 -10,2 -13,3 -7,7 h 7 l 5,3 3,8 -3,5 -5,5 -5,5 -5,7 z"
   id="path268"
   inkscape:connector-curvature="0"
   style="fill:#00008c;stroke:none" />
         <path
   d="m 9633,14771 -3,-10 -3,-11 -5,-10 -5,-5 h -7 -13 l -13,5 -12,5 -11,5 -12,11 -18,12 -20,13 -21,15 -20,15 -18,13 -13,13 -17,20 -13,15 -10,16 -11,12 -15,26 -23,41 -23,43 -12,25 10,-13 15,-15 15,-15 18,-18 18,-18 15,-15 13,-13 8,-7 10,-5 12,-10 16,-8 18,-10 15,-10 13,-8 12,-8 5,-2 10,-15 13,-16 13,-15 13,-10 12,-10 18,-13 15,-10 z"
   id="path270"
   inkscape:connector-curvature="0"
   style="fill:#b2b2ff;stroke:none" />
         <path
   d="m 9434,15198 v 5 l 3,8 5,7 2,5 -25,-12 -20,-16 -13,-15 -8,-18 -2,-15 -3,-20 3,-18 v -20 l 7,-49 16,-56 17,-53 18,-33 8,-8 13,-10 12,-8 16,-7 15,-5 15,-3 10,-2 8,2 -8,3 -5,5 -5,5 v 7 l 8,-2 10,-3 13,-2 h 7 l -2,2 -3,3 -2,5 2,5 5,-5 5,-3 h 10 l 8,3 h -2 l -6,3 -2,2 -3,3 v 2 l 5,3 h 3 l 3,-3 2,-2 8,-3 h 7 l 8,3 -5,2 -3,3 3,5 2,5 3,-5 5,-3 h 5 l 5,3 -2,5 v 5 l 5,3 h 5 l 7,-6 h 8 l 5,3 v 5 l -2,8 -3,5 -2,5 5,7 -16,8 -12,13 -13,18 -13,17 -12,21 -18,30 -16,33 -12,31 -5,5 -8,10 -10,13 -13,15 -13,18 -15,13 -15,10 z"
   id="path272"
   inkscape:connector-curvature="0"
   style="fill:#00008c;stroke:none" />
         <path
   d="m 9531,14857 -8,3 -5,5 -5,5 v 7 l 8,-2 10,-3 13,-2 h 7 l -2,2 -3,3 -2,5 2,5 5,-5 5,-3 h 10 l 8,3 h -2 l -6,3 -2,2 -3,3 v 2 l 5,3 h 3 l 3,-3 2,-2 8,-3 h 7 l 8,3 -5,2 -3,3 3,5 2,5 3,-5 5,-3 h 5 l 5,3 -2,5 v 5 l 5,3 h 5 l 5,-8 8,-8 7,-2 10,-5 -2,-5 h -8 -7 l -8,2 8,-8 12,-5 13,-2 h 13 l -3,-5 -7,-5 -8,-5 -8,-3 10,-5 18,-5 h 15 l 11,5 -8,-5 -5,-5 -5,-5 -5,-5 -8,-13 -10,-18 -10,-20 -8,-10 -7,-3 h -13 -13 l -8,5 6,3 5,2 2,5 v 3 l -10,-3 h -10 l -10,3 -8,2 5,3 5,2 3,3 -3,3 -7,2 -11,-2 h -10 l -7,2 5,3 7,2 3,3 v 5 l -8,2 h -7 l -11,3 -12,13 h 5 l 5,2 5,5 3,5 -11,3 -7,2 v 8 z"
   id="path274"
   inkscape:connector-curvature="0"
   style="fill:#00008c;stroke:none" />
         <path
   d="m 9691,14855 -10,-13 -13,-23 -15,-23 -8,-15 -5,-5 h -5 l -8,2 -5,5 -12,8 -21,15 -23,16 -12,12 -5,8 -3,8 -2,5 v 5 l 5,2 12,5 13,3 h 10 l 10,2 8,5 8,6 2,5 5,5 8,7 10,3 10,-5 10,-13 11,-10 12,-13 z"
   id="path276"
   inkscape:connector-curvature="0"
   style="fill:#b2b2ff;stroke:none" />
         <path
   d="m 9622,14931 -10,-8 -15,-7 -18,-11 -23,-7 -20,-8 -20,-5 -16,-2 h -10 l -10,2 -13,5 -10,8 -8,7 -10,18 -15,26 -13,33 -10,33 -7,30 -6,38 -2,39 v 25 l 8,18 10,18 12,12 11,10 v -10 l 2,-10 3,-10 2,-3 h -15 l 10,-28 -18,-2 26,-28 -10,-10 28,-21 -23,-15 40,-20 -17,-13 38,-13 -16,-22 34,-3 12,-10 18,-5 20,-3 18,5 8,-18 10,-12 13,-13 z"
   id="path278"
   inkscape:connector-curvature="0"
   style="fill:#b2b2ff;stroke:none" />
         <path
   d="m 9574,15000 -10,-6 h -13 l -10,3 -8,5 -33,8 16,23 -31,7 18,13 -36,15 16,18 -36,15 25,15 -33,16 16,10 -18,15 20,5 -13,18 11,-8 12,-12 13,-13 10,-13 10,-12 11,-13 7,-10 5,-10 13,-21 15,-28 15,-25 z"
   id="path280"
   inkscape:connector-curvature="0"
   style="fill:#b2b2ff;stroke:none" />
         <path
   d="m 10009,15061 25,20 38,25 49,28 53,28 53,28 49,23 38,18 23,10 -18,-2 -20,-6 -26,-5 -28,-7 -30,-5 -31,-8 -33,-8 -33,-7 -30,-8 -33,-5 -28,-8 -28,-5 -23,-2 -21,-3 -15,-2 h -10 -15 l -16,-3 -15,-2 -12,-3 -16,-2 h -12 l -13,2 -13,8 13,40 13,54 7,53 5,38 3,33 5,36 -3,33 -10,23 13,15 23,21 25,28 31,33 25,33 26,33 12,30 5,28 26,13 35,18 44,20 48,20 48,18 46,13 36,10 25,3 10,2 5,3 -2,5 -13,5 h -13 l -18,2 h -17 l -23,-2 h -21 -22 l -18,-3 -15,-2 -18,-5 -28,-10 -31,-11 -33,-15 -30,-13 -31,-12 -20,-11 -10,-7 -8,-3 -10,-7 -18,-13 -15,-13 -21,-12 -15,-16 -15,-12 -10,-13 -10,-13 -11,-13 -15,-15 -12,-15 -13,-15 -10,-18 -5,-15 -3,-16 -13,-10 -15,-18 -13,-25 -12,-31 -11,-33 -7,-35 -5,-33 -3,-31 v -58 l -2,-54 v -43 -25 l -5,-23 10,-21 18,-15 17,-7 13,-3 25,-3 31,-5 38,-2 41,-3 h 43 l 41,5 z"
   id="path282"
   inkscape:connector-curvature="0"
   style="fill:#00008c;stroke:none" />
         <path
   d="m 10248,15211 -10,-6 -26,-12 -38,-18 -41,-20 -43,-23 -41,-23 -27,-20 -13,-13 -18,-5 -20,-3 -21,-2 -23,-3 -20,-2 h -18 l -17,-3 h -13 -13 l -15,3 h -15 l -18,2 -18,3 -15,2 -13,3 -8,2 -15,5 -10,8 -10,13 -3,15 23,-3 h 18 l 10,8 8,8 7,7 11,10 12,6 13,2 8,-2 7,-3 10,-3 13,-2 h 13 13 15 l 15,2 h 15 16 l 12,3 h 10 l 18,3 33,7 46,10 48,11 51,10 43,10 36,7 z"
   id="path284"
   inkscape:connector-curvature="0"
   style="fill:#b2b2ff;stroke:none" />
         <path
   d="m 9714,15132 13,-3 15,3 15,7 13,13 10,10 13,5 h 10 l 8,-2 7,30 10,44 10,43 3,30 3,31 5,46 2,43 -2,25 -5,8 -6,7 -10,8 -10,5 -13,5 -12,8 -13,5 -10,-3 -8,-12 -7,-23 -11,-28 -7,-28 -8,-33 -10,-43 -5,-44 -5,-35 -3,-36 v -38 l 3,-30 z"
   id="path286"
   inkscape:connector-curvature="0"
   style="fill:#b2b2ff;stroke:none" />
         <path
   d="m 9790,15518 13,-2 15,-10 13,-8 7,-10 8,-5 h 8 l 5,5 7,12 8,11 13,15 12,20 18,21 16,20 15,18 13,15 7,8 13,12 10,16 8,15 2,10 3,8 v 5 5 l -5,2 h -8 l -10,3 -5,5 -5,5 -3,3 -10,-3 -13,-8 -12,-10 -11,-10 -15,-18 -20,-20 -23,-23 -20,-23 -18,-18 -15,-17 -8,-8 -8,-10 -5,-13 -2,-10 z"
   id="path288"
   inkscape:connector-curvature="0"
   style="fill:#b2b2ff;stroke:none" />
         <path
   d="m 9978,15724 5,-5 11,-7 10,-6 h 10 l 15,6 28,12 41,18 43,20 46,18 43,18 38,10 26,5 h -18 -18 -20 l -18,-2 h -18 l -18,-3 -15,-5 -10,-2 -15,-6 -21,-7 -28,-10 -30,-13 -31,-13 -25,-13 -21,-7 z"
   id="path290"
   inkscape:connector-curvature="0"
   style="fill:#b2b2ff;stroke:none" />
         <path
   d="m 10039,14956 -17,-2 h -18 l -16,-3 h -15 -12 -13 -8 -7 l 2,13 -5,-3 h -5 -8 l -5,3 -15,20 -5,31 -3,33 5,30 11,38 17,59 16,53 10,36 5,20 10,23 13,21 18,12 5,18 7,25 10,31 16,33 12,31 13,30 10,23 8,15 10,21 10,20 8,20 10,13 10,5 8,3 10,2 h 10 l 8,5 15,8 18,13 20,12 23,16 20,12 18,10 13,6 10,5 13,5 15,5 13,5 15,5 13,5 10,3 h 10 18 20 21 l 15,-3 7,-5 8,-5 3,-3 -5,-2 h -23 l -26,-5 -25,-10 -26,-13 -25,-13 -23,-15 -15,-13 -13,-8 -8,-7 -12,-8 -13,-5 -13,-7 -12,-8 -16,-5 -12,-5 -11,-3 v -5 l -2,-5 -3,-3 -5,-5 -10,-17 -13,-39 -12,-40 -10,-36 -13,-28 -20,-33 -23,-30 -16,-23 h 3 2 6 l 5,2 v -20 l -5,-31 -11,-35 -12,-43 -16,-44 -12,-40 -13,-38 -10,-28 25,20 38,25 49,28 53,28 53,28 49,23 38,18 23,10 15,8 18,12 20,16 18,17 18,18 18,18 12,18 10,15 -7,-114 2,-110 -5,-94 -23,-71 -20,-18 -30,-23 -34,-25 -38,-28 -43,-25 -41,-26 -43,-18 -40,-15 h -16 -20 -20 -21 -20 -18 l -15,-2 -8,-3 -7,-5 -8,-5 -8,-3 -7,3 -5,7 -3,11 5,15 10,13 13,12 13,13 10,15 v 16 l -8,12 -5,8 v 8 l 13,7 15,8 5,10 3,10 z"
   id="path292"
   inkscape:connector-curvature="0"
   style="fill:#00008c;stroke:none" />
         <path
   d="m 9638,14938 -16,8 -12,13 -13,18 -13,17 -12,23 -16,28 -15,31 -13,23 -7,25 -8,38 -5,59 -3,86 6,49 12,40 21,36 22,30 26,23 23,15 20,8 15,3 -10,-13 -5,-10 3,-10 5,-16 12,-15 16,-25 12,-31 16,-35 12,-34 16,-35 12,-31 10,-23 18,-53 13,-71 10,-71 5,-46 h 13 l 13,-3 12,-5 16,-7 10,-5 18,-6 22,-5 28,-2 28,-3 h 28 31 25 l 3,-10 -3,-10 -5,-10 -15,-8 -13,-7 v -8 l 5,-8 8,-12 v -16 l -10,-15 -13,-13 -13,-12 -5,-5 -2,-6 -3,-2 -2,-5 h -16 -25 l -25,2 -31,5 -28,6 -23,2 -20,3 -10,2 -13,-7 -13,-8 -10,-3 -13,-2 5,5 6,5 2,5 3,5 -13,-7 -15,-8 -13,-5 h -8 l 5,5 6,8 5,7 v 5 l -13,-5 -15,-2 -16,-3 -7,3 7,2 8,8 5,5 3,5 -11,-5 h -15 l -18,5 -10,5 8,3 8,5 7,5 3,5 h -13 l -13,2 -12,5 -8,8 8,-2 h 7 8 l 2,5 -10,5 -7,2 -8,8 -5,8 7,-6 h 8 l 5,3 v 5 l -2,8 -3,5 -2,5 z"
   id="path294"
   inkscape:connector-curvature="0"
   style="fill:#00008c;stroke:none" />
         <path
   d="m 10446,15109 -10,-8 -20,-10 -26,-15 -28,-13 -30,-15 -28,-13 -26,-10 -17,-8 -21,-7 -28,-8 -33,-8 -35,-7 -33,-8 -31,-5 -25,-2 -13,-3 h -10 l -10,-3 h -16 -12 -16 -10 l -10,-2 h -5 l -5,2 v 3 l 2,8 8,5 10,12 8,21 12,18 13,12 8,5 10,5 10,8 13,8 13,7 10,8 12,8 11,5 17,10 33,15 41,20 46,23 46,26 40,20 33,15 18,11 18,10 13,7 12,8 8,10 10,13 10,15 11,8 5,-5 v -38 -64 l -3,-61 z"
   id="path296"
   inkscape:connector-curvature="0"
   style="fill:#b2b2ff;stroke:none" />
         <path
   d="m 9991,15063 10,26 13,27 13,31 10,25 10,31 15,46 10,45 3,34 -13,-11 -15,-10 -15,-5 -13,-2 -10,5 -5,5 -5,7 -3,11 -10,-13 -13,-15 -10,-16 -8,-20 -10,-38 -15,-56 -15,-56 -10,-36 -6,-30 v -36 l 8,-30 23,-10 5,28 18,27 20,21 z"
   id="path298"
   inkscape:connector-curvature="0"
   style="fill:#b2b2ff;stroke:none" />
         <path
   d="m 10060,15340 -8,-10 -10,-8 -13,-5 h -13 l -10,8 -2,10 2,10 3,11 5,12 10,28 15,38 18,41 18,41 18,38 15,30 13,16 2,5 5,5 8,5 h 8 l 5,-5 7,-5 8,-8 8,-2 h 7 l 3,-6 v -5 l -5,-7 -5,-13 -11,-23 -10,-28 -7,-23 -6,-15 -7,-18 -13,-23 -13,-25 -12,-23 -13,-20 -13,-16 z"
   id="path300"
   inkscape:connector-curvature="0"
   style="fill:#b2b2ff;stroke:none" />
         <path
   d="m 10161,15620 3,-5 8,-5 7,-5 h 8 l 5,2 13,5 12,5 16,8 15,10 15,8 13,7 10,8 10,10 18,10 20,11 26,12 23,13 20,10 18,5 12,5 -12,3 h -13 -15 l -16,-3 -17,-5 -18,-5 -26,-10 -25,-13 -15,-7 -18,-10 -20,-13 -21,-10 -18,-13 -17,-10 -13,-10 z"
   id="path302"
   inkscape:connector-curvature="0"
   style="fill:#b2b2ff;stroke:none" />
         <path
   d="m 9963,14816 8,13 7,10 8,8 8,10 5,13 v 13 l -3,15 -2,10 2,8 5,5 8,5 7,5 6,5 2,5 -2,5 h -6 l -5,-2 h -10 l -10,-3 -15,-3 -13,-2 -13,-3 h -10 -7 l -13,3 -13,5 -18,5 -17,5 -16,5 -15,5 -10,5 -8,3 -15,10 -10,3 -13,-3 -13,-7 -15,-18 -20,-16 -21,-12 -15,-5 -13,2 -15,3 -12,5 -11,5 -2,-10 2,-13 3,-13 10,-12 8,-8 10,-8 13,-7 12,-8 16,-7 12,-6 15,-2 h 16 15 l 23,-5 28,-3 33,-5 30,-5 31,-2 23,-6 z"
   id="path304"
   inkscape:connector-curvature="0"
   style="fill:#b2b2ff;stroke:none" />
         <path
   d="m 9775,15007 -5,-5 -8,-8 -5,-7 -8,-10 -12,-11 -15,-10 -18,-7 -18,-3 -18,3 -20,2 -18,8 -10,7 -8,8 -10,15 -13,21 -15,20 -15,25 -10,21 -11,20 -2,15 10,-5 8,-5 10,-2 10,-3 10,-2 10,2 11,3 7,5 13,15 8,18 2,18 v 17 l -5,3 -5,3 -5,2 h -3 l 10,28 6,46 -21,-18 18,58 h -18 l 15,51 -17,23 20,36 -15,20 15,38 8,-17 12,-23 13,-31 15,-33 16,-33 12,-28 13,-23 5,-15 18,-43 15,-49 13,-68 z"
   id="path306"
   inkscape:connector-curvature="0"
   style="fill:#b2b2ff;stroke:none" />
         <path
   d="m 9538,15127 11,-8 12,-5 13,-3 13,5 12,11 13,12 10,13 3,8 -3,5 h -5 l -7,-3 -8,-5 10,56 -25,-18 23,77 -26,-3 26,66 -31,31 28,35 -15,28 25,33 v 8 10 l 3,5 2,5 -12,-7 -13,-11 -13,-12 -15,-15 -13,-18 -12,-23 -13,-26 -8,-33 -5,-71 5,-66 8,-53 z"
   id="path308"
   inkscape:connector-curvature="0"
   style="fill:#b2b2ff;stroke:none" />
         <path
   d="m 10446,15091 -2,-20 -6,-28 -10,-31 -17,-28 -18,-15 -26,-23 -35,-25 -38,-28 -41,-28 -38,-26 -36,-20 -25,-10 h -13 l -18,-3 h -20 -23 -20 -18 -13 -7 l -11,-5 -10,-5 h -7 l -6,3 -2,5 v 5 l 8,7 12,11 16,12 12,13 8,15 v 13 l -5,8 -5,7 -5,5 v 5 l 7,11 10,12 11,13 2,10 3,5 10,5 13,3 h 12 l 26,2 38,8 48,15 54,16 55,20 51,23 46,20 z"
   id="path310"
   inkscape:connector-curvature="0"
   style="fill:#b2b2ff;stroke:none" />
         <path
   d="m 9770,14623 -21,-7 -12,7 -3,15 15,13 -5,-10 3,-10 8,-8 z"
   id="path312"
   inkscape:connector-curvature="0"
   style="fill:#6666ff;stroke:none" />
         <path
   d="m 10108,14931 -10,-8 -8,-15 v -13 l 3,-10 h 7 l 11,5 7,10 5,16 -5,-5 -5,-6 -5,-2 h -5 l -3,5 3,8 2,7 z"
   id="path314"
   inkscape:connector-curvature="0"
   style="fill:#6666ff;stroke:none" />
         <path
   d="m 10174,14931 -10,-8 -8,-15 -2,-13 2,-10 h 8 l 10,5 8,10 5,16 -5,-5 -5,-6 -5,-2 h -6 v 5 8 l 3,7 z"
   id="path316"
   inkscape:connector-curvature="0"
   style="fill:#6666ff;stroke:none" />
         <path
   d="m 10294,14954 -11,-8 -5,-10 v -10 l 3,-8 h 5 l 8,3 5,10 5,13 -5,-6 -3,-5 -5,-2 h -3 l -2,5 2,5 3,8 z"
   id="path318"
   inkscape:connector-curvature="0"
   style="fill:#6666ff;stroke:none" />
         <path
   d="m 10240,14944 -10,-6 -5,-12 v -10 l 2,-8 h 8 l 8,5 5,8 2,12 -5,-5 -2,-5 -5,-2 -3,2 v 3 7 l 3,5 z"
   id="path320"
   inkscape:connector-curvature="0"
   style="fill:#6666ff;stroke:none" />
         <path
   d="m 10334,14972 -7,-6 -3,-7 -2,-10 2,-5 h 5 l 5,2 5,8 3,10 -3,-5 -2,-3 -3,-2 h -2 v 2 5 8 z"
   id="path322"
   inkscape:connector-curvature="0"
   style="fill:#6666ff;stroke:none" />
         <path
   d="m 9722,14918 -11,-5 -5,-13 v -10 l 3,-7 h 5 l 8,2 5,10 5,13 -5,-5 -3,-5 -5,-3 h -3 v 5 5 l 3,8 z"
   id="path324"
   inkscape:connector-curvature="0"
   style="fill:#6666ff;stroke:none" />
         <path
   d="m 9757,14900 -8,-7 -5,-10 -2,-11 2,-7 h 8 l 8,2 5,10 5,13 -5,-5 -5,-5 -3,-3 h -2 l -3,6 v 5 l 3,7 z"
   id="path326"
   inkscape:connector-curvature="0"
   style="fill:#6666ff;stroke:none" />
         <path
   d="m 9788,14885 -5,-8 -3,-10 v -7 l 5,-5 h 5 l 5,5 3,7 v 10 l -3,-5 -2,-2 -3,-5 h -2 l -3,2 v 8 5 z"
   id="path328"
   inkscape:connector-curvature="0"
   style="fill:#6666ff;stroke:none" />
         <path
   d="m 9823,14885 -5,-8 -2,-10 v -7 l 5,-5 h 5 l 5,5 2,7 v 10 l -2,-5 -3,-2 -2,-5 h -3 l -2,2 v 8 5 z"
   id="path330"
   inkscape:connector-curvature="0"
   style="fill:#6666ff;stroke:none" />
         <path
   d="m 9856,14888 -5,-8 -2,-10 2,-8 3,-5 h 5 l 5,5 2,8 v 10 l -2,-5 v -3 l -3,-2 h -2 l -3,2 -2,5 v 6 z"
   id="path332"
   inkscape:connector-curvature="0"
   style="fill:#6666ff;stroke:none" />
         <path
   d="m 9899,14898 -5,-8 -2,-7 v -11 l 5,-2 h 5 l 5,5 3,8 v 10 l -3,-5 -2,-5 -3,-3 h -3 l -2,3 v 5 5 z"
   id="path334"
   inkscape:connector-curvature="0"
   style="fill:#6666ff;stroke:none" />
         <path
   d="m 10164,15050 -20,-5 -13,8 v 13 l 13,12 -3,-10 3,-7 5,-8 z"
   id="path336"
   inkscape:connector-curvature="0"
   style="fill:#6666ff;stroke:none" />
         <path
   d="m 10225,15076 -20,-8 -13,8 v 13 l 13,15 -3,-10 3,-11 5,-7 z"
   id="path338"
   inkscape:connector-curvature="0"
   style="fill:#6666ff;stroke:none" />
         <path
   d="m 10268,15099 -15,-5 -10,5 -3,12 13,11 -3,-8 v -8 l 5,-7 z"
   id="path340"
   inkscape:connector-curvature="0"
   style="fill:#6666ff;stroke:none" />
         <path
   d="m 10309,15116 -15,-5 -11,8 -2,10 13,10 -3,-7 v -8 l 5,-5 z"
   id="path342"
   inkscape:connector-curvature="0"
   style="fill:#6666ff;stroke:none" />
         <path
   d="m 10360,15150 -13,-3 -8,3 -2,10 10,7 v -7 -5 l 5,-5 z"
   id="path344"
   inkscape:connector-curvature="0"
   style="fill:#6666ff;stroke:none" />
         <path
   d="m 10411,15172 -13,-2 -8,2 v 11 l 8,7 v -7 -5 l 5,-6 z"
   id="path346"
   inkscape:connector-curvature="0"
   style="fill:#6666ff;stroke:none" />
         <path
   d="m 10105,15083 -5,6 -10,2 -7,-2 -6,-3 v -5 l 6,-5 7,-3 h 10 l -5,3 h -2 l -3,2 -2,3 2,2 8,3 h 5 z"
   id="path348"
   inkscape:connector-curvature="0"
   style="fill:#6666ff;stroke:none" />
         <path
   d="m 10166,15106 -7,5 -10,3 -8,-3 -5,-2 v -5 l 5,-5 8,-3 h 10 l -5,3 h -3 l -2,2 -3,3 3,2 7,3 h 5 z"
   id="path350"
   inkscape:connector-curvature="0"
   style="fill:#6666ff;stroke:none" />
         <path
   d="m 10227,15139 -7,5 h -8 -10 l -5,-2 v -5 l 5,-8 8,-2 h 10 l -5,2 -3,3 -2,2 v 3 l 2,2 h 5 5 z"
   id="path352"
   inkscape:connector-curvature="0"
   style="fill:#6666ff;stroke:none" />
         <path
   d="m 10276,15165 -8,5 -7,2 -11,-2 -2,-3 v -5 l 5,-5 8,-2 h 10 l -5,2 h -5 l -3,3 v 2 l 3,3 7,2 h 5 z"
   id="path354"
   inkscape:connector-curvature="0"
   style="fill:#6666ff;stroke:none" />
         <path
   d="m 10329,15188 -7,5 -8,2 h -10 l -5,-5 2,-5 5,-5 8,-2 h 10 l -5,2 -5,3 -3,2 v 3 l 3,2 h 5 5 z"
   id="path356"
   inkscape:connector-curvature="0"
   style="fill:#6666ff;stroke:none" />
         <path
   d="m 10372,15213 -5,5 -10,3 h -8 l -5,-3 v -5 l 5,-8 8,-2 h 10 l -5,2 -5,3 -2,3 v 2 l 2,3 h 8 5 z"
   id="path358"
   inkscape:connector-curvature="0"
   style="fill:#6666ff;stroke:none" />
         <path
   d="m 10421,15236 -8,5 -8,3 -10,-3 -5,-2 v -6 l 5,-7 10,-3 h 11 l -5,3 -6,2 -2,3 v 2 l 2,3 6,3 h 5 z"
   id="path360"
   inkscape:connector-curvature="0"
   style="fill:#6666ff;stroke:none" />
         <path
   d="m 10029,15233 5,8 v 8 l -2,10 -5,2 h -5 l -6,-5 -2,-10 2,-10 3,5 3,5 v 3 l 2,2 3,-2 2,-5 v -5 z"
   id="path362"
   inkscape:connector-curvature="0"
   style="fill:#6666ff;stroke:none" />
         <path
   d="m 9968,15089 10,5 5,12 3,10 -3,8 h -7 l -8,-2 -5,-11 -5,-12 5,5 3,5 5,2 h 2 l 3,-5 v -7 l -5,-5 z"
   id="path364"
   inkscape:connector-curvature="0"
   style="fill:#6666ff;stroke:none" />
         <path
   d="m 9988,15137 11,5 5,10 2,10 -2,8 h -8 l -8,-3 -5,-7 -5,-13 5,5 5,3 3,2 h 3 l 2,-5 v -5 l -5,-5 z"
   id="path366"
   inkscape:connector-curvature="0"
   style="fill:#6666ff;stroke:none" />
         <path
   d="m 10006,15180 8,5 8,13 v 10 l -3,8 h -8 l -7,-5 -5,-8 -3,-13 5,5 3,5 5,3 h 2 v -5 -8 l -2,-5 z"
   id="path368"
   inkscape:connector-curvature="0"
   style="fill:#6666ff;stroke:none" />
         <path
   d="m 10044,15274 5,5 v 8 l -2,7 -3,3 h -5 l -2,-5 -3,-8 3,-7 2,5 v 2 3 h 3 l 2,-3 v -2 -5 z"
   id="path370"
   inkscape:connector-curvature="0"
   style="fill:#6666ff;stroke:none" />
         <path
   d="m 10057,15389 h 13 l 7,-8 -2,-8 -10,-5 2,5 3,5 -3,8 z"
   id="path372"
   inkscape:connector-curvature="0"
   style="fill:#6666ff;stroke:none" />
         <path
   d="m 10070,15437 h 13 l 7,-8 -2,-10 -11,-5 3,5 3,8 -3,5 z"
   id="path374"
   inkscape:connector-curvature="0"
   style="fill:#6666ff;stroke:none" />
         <path
   d="m 10093,15475 h 12 l 8,-8 -2,-10 -13,-5 5,5 v 8 l -3,5 z"
   id="path376"
   inkscape:connector-curvature="0"
   style="fill:#6666ff;stroke:none" />
         <path
   d="m 10108,15518 h 10 l 5,-7 -2,-8 -8,-3 3,6 2,5 -2,5 z"
   id="path378"
   inkscape:connector-curvature="0"
   style="fill:#6666ff;stroke:none" />
         <path
   d="m 10121,15551 h 10 l 5,-5 v -7 l -10,-5 2,5 3,5 -3,5 z"
   id="path380"
   inkscape:connector-curvature="0"
   style="fill:#6666ff;stroke:none" />
         <path
   d="m 10136,15579 h 10 l 5,-5 -2,-7 -8,-6 3,6 2,5 -2,5 z"
   id="path382"
   inkscape:connector-curvature="0"
   style="fill:#6666ff;stroke:none" />
         <path
   d="m 9688,14969 -20,-8 -13,8 v 15 l 13,13 -2,-10 2,-10 5,-8 z"
   id="path384"
   inkscape:connector-curvature="0"
   style="fill:#6666ff;stroke:none" />
         <path
   d="m 9648,15007 -15,-5 -11,5 -2,10 13,10 -3,-7 v -8 l 5,-5 z"
   id="path386"
   inkscape:connector-curvature="0"
   style="fill:#6666ff;stroke:none" />
         <path
   d="m 9627,15038 -15,-5 -10,5 -3,12 13,11 -2,-8 v -8 l 5,-7 z"
   id="path388"
   inkscape:connector-curvature="0"
   style="fill:#6666ff;stroke:none" />
         <path
   d="m 9602,15068 -13,-2 -7,2 -3,10 10,8 -2,-8 v -5 l 5,-5 z"
   id="path390"
   inkscape:connector-curvature="0"
   style="fill:#6666ff;stroke:none" />
         <path
   d="m 9780,14783 -10,-7 -8,-15 -2,-13 5,-8 7,-2 11,5 7,10 3,18 -5,-5 -3,-8 -5,-3 h -5 l -3,6 3,7 2,10 z"
   id="path392"
   inkscape:connector-curvature="0"
   style="fill:#6666ff;stroke:none" />
         <path
   d="m 9727,14715 -11,-8 -5,-13 -2,-15 2,-7 h 8 l 10,5 8,10 5,15 -5,-5 -5,-5 -5,-5 h -5 l -3,5 3,7 2,11 z"
   id="path394"
   inkscape:connector-curvature="0"
   style="fill:#6666ff;stroke:none" />
         <path
   d="m 9676,14651 -8,-5 -5,-13 -2,-10 2,-7 h 8 l 7,2 5,10 5,13 -5,-5 -5,-5 -2,-3 h -3 l -2,5 v 5 l 2,8 z"
   id="path396"
   inkscape:connector-curvature="0"
   style="fill:#6666ff;stroke:none" />
         <path
   d="m 9630,14595 -10,-5 -5,-13 v -10 l 2,-7 h 8 l 8,5 5,7 2,13 -2,-5 -5,-5 -3,-3 h -5 v 5 6 l 2,7 z"
   id="path398"
   inkscape:connector-curvature="0"
   style="fill:#6666ff;stroke:none" />
         <path
   d="m 9594,14542 -7,-5 -5,-13 -3,-10 3,-8 h 7 l 8,5 5,8 3,13 -3,-5 -5,-6 -3,-2 -5,2 v 3 8 l 3,5 z"
   id="path400"
   inkscape:connector-curvature="0"
   style="fill:#6666ff;stroke:none" />
         <path
   d="m 9561,14494 -7,-6 -5,-7 v -10 l 2,-5 h 5 l 5,2 5,8 3,10 -3,-5 -5,-3 -2,-2 h -3 v 2 5 l 3,8 z"
   id="path402"
   inkscape:connector-curvature="0"
   style="fill:#6666ff;stroke:none" />
         <path
   d="m 9531,14458 -8,-5 -2,-8 -3,-10 3,-5 h 5 l 5,2 5,8 2,10 -2,-2 -3,-5 -2,-3 h -3 v 3 5 7 z"
   id="path404"
   inkscape:connector-curvature="0"
   style="fill:#6666ff;stroke:none" />
         <path
   d="m 9808,14664 -20,-8 -13,8 v 13 l 13,15 -3,-10 3,-10 5,-8 z"
   id="path406"
   inkscape:connector-curvature="0"
   style="fill:#6666ff;stroke:none" />
         <path
   d="m 9841,14702 -15,-5 -10,5 -3,10 10,10 v -7 -8 l 5,-5 z"
   id="path408"
   inkscape:connector-curvature="0"
   style="fill:#6666ff;stroke:none" />
         <path
   d="m 9874,14733 -13,-3 -7,3 -3,10 10,7 -2,-7 v -5 l 5,-5 z"
   id="path410"
   inkscape:connector-curvature="0"
   style="fill:#6666ff;stroke:none" />
         <path
   d="m 9920,14758 -13,-5 -8,5 -2,8 10,10 -2,-8 v -5 l 5,-5 z"
   id="path412"
   inkscape:connector-curvature="0"
   style="fill:#6666ff;stroke:none" />
         <path
   d="m 9666,14432 -13,-2 -8,2 -2,11 10,7 -3,-7 v -5 l 5,-6 z"
   id="path414"
   inkscape:connector-curvature="0"
   style="fill:#6666ff;stroke:none" />
         <path
   d="m 9638,14415 -13,-5 -10,5 v 7 l 7,10 v -7 -5 l 5,-5 z"
   id="path416"
   inkscape:connector-curvature="0"
   style="fill:#6666ff;stroke:none" />
         <path
   d="m 9594,14394 -10,-2 -5,2 -2,8 7,8 v -5 -8 l 3,-3 z"
   id="path418"
   inkscape:connector-curvature="0"
   style="fill:#6666ff;stroke:none" />
         <path
   d="m 9648,14511 h 5 l 2,-2 3,-5 v -3 -2 l -3,-5 -2,-3 h -5 -3 l -5,3 -2,5 v 2 3 l 2,5 5,2 z"
   id="path420"
   inkscape:connector-curvature="0"
   style="fill:#6666ff;stroke:none" />
         <path
   d="m 9622,14478 h 3 l 2,-2 3,-3 v -2 -3 l -3,-2 -2,-3 h -3 -2 l -3,3 -2,2 v 3 2 l 2,3 3,2 z"
   id="path422"
   inkscape:connector-curvature="0"
   style="fill:#6666ff;stroke:none" />
         <path
   d="m 9597,14448 h 2 v -3 h 3 v -2 -3 l -3,-2 v -3 h -2 -3 l -2,3 -3,2 v 3 2 h 3 l 2,3 z"
   id="path424"
   inkscape:connector-curvature="0"
   style="fill:#6666ff;stroke:none" />
         <path
   d="m 9574,14427 h 3 v -2 l 2,-3 v -2 -3 h -2 v -2 h -3 -2 l -3,2 h -3 v 3 2 l 3,3 3,2 z"
   id="path426"
   inkscape:connector-curvature="0"
   style="fill:#6666ff;stroke:none" />
         <path
   d="m 9447,14982 -8,-5 -5,-11 v -7 l 3,-5 5,-3 5,3 5,7 3,11 -3,-3 -5,-3 -3,-2 h -2 v 2 6 l 2,5 z"
   id="path428"
   inkscape:connector-curvature="0"
   style="fill:#6666ff;stroke:none" />
         <path
   d="m 9434,15015 -5,-5 -5,-5 v -5 l 3,-6 2,-2 5,2 3,8 2,8 -2,-3 v -2 l -3,-3 h -2 v 3 2 5 z"
   id="path430"
   inkscape:connector-curvature="0"
   style="fill:#6666ff;stroke:none" />
         <path
   d="m 9422,15045 -6,-5 -2,-7 -3,-6 3,-5 h 5 l 5,3 3,5 2,8 -2,-3 -3,-2 -2,-3 h -3 v 3 5 5 z"
   id="path432"
   inkscape:connector-curvature="0"
   style="fill:#6666ff;stroke:none" />
         <path
   d="m 9411,15089 -5,-6 -5,-5 v -7 -5 h 5 l 5,2 3,8 2,7 -2,-2 -3,-5 h -2 -3 v 2 3 l 3,5 z"
   id="path434"
   inkscape:connector-curvature="0"
   style="fill:#6666ff;stroke:none" />
         <path
   d="m 10385,15048 -20,-36 7,33 z"
   id="path436"
   inkscape:connector-curvature="0"
   style="fill:#00008c;stroke:none" />
         <path
   d="m 10431,15071 -23,-38 8,33 z"
   id="path438"
   inkscape:connector-curvature="0"
   style="fill:#00008c;stroke:none" />
         <path
   d="m 10344,15027 -22,-35 7,30 z"
   id="path440"
   inkscape:connector-curvature="0"
   style="fill:#00008c;stroke:none" />
         <path
   d="m 10309,15012 -23,-35 10,33 z"
   id="path442"
   inkscape:connector-curvature="0"
   style="fill:#00008c;stroke:none" />
         <path
   d="m 10268,15000 -20,-39 7,33 z"
   id="path444"
   inkscape:connector-curvature="0"
   style="fill:#00008c;stroke:none" />
         <path
   d="m 10230,14987 -20,-36 7,31 z"
   id="path446"
   inkscape:connector-curvature="0"
   style="fill:#00008c;stroke:none" />
         <path
   d="m 10184,14974 -20,-38 8,33 z"
   id="path448"
   inkscape:connector-curvature="0"
   style="fill:#00008c;stroke:none" />
         <path
   d="m 10144,14964 -23,-36 7,33 z"
   id="path450"
   inkscape:connector-curvature="0"
   style="fill:#00008c;stroke:none" />
         <path
   d="m 10103,14959 -23,-38 10,33 z"
   id="path452"
   inkscape:connector-curvature="0"
   style="fill:#00008c;stroke:none" />
         <path
   d="m 9889,14987 -35,20 33,-7 z"
   id="path454"
   inkscape:connector-curvature="0"
   style="fill:#00008c;stroke:none" />
         <path
   d="m 9884,15010 -33,25 31,-13 z"
   id="path456"
   inkscape:connector-curvature="0"
   style="fill:#00008c;stroke:none" />
         <path
   d="m 9884,15033 -35,25 30,-13 z"
   id="path458"
   inkscape:connector-curvature="0"
   style="fill:#00008c;stroke:none" />
         <path
   d="m 9884,15055 -35,26 30,-13 z"
   id="path460"
   inkscape:connector-curvature="0"
   style="fill:#00008c;stroke:none" />
         <path
   d="m 9887,15078 -36,26 33,-13 z"
   id="path462"
   inkscape:connector-curvature="0"
   style="fill:#00008c;stroke:none" />
         <path
   d="m 9892,15099 -33,25 30,-13 z"
   id="path464"
   inkscape:connector-curvature="0"
   style="fill:#00008c;stroke:none" />
         <path
   d="m 9897,15119 -33,25 30,-12 z"
   id="path466"
   inkscape:connector-curvature="0"
   style="fill:#00008c;stroke:none" />
         <path
   d="m 9905,15142 -36,25 30,-12 z"
   id="path468"
   inkscape:connector-curvature="0"
   style="fill:#00008c;stroke:none" />
         <path
   d="m 9912,15162 -33,26 31,-10 z"
   id="path470"
   inkscape:connector-curvature="0"
   style="fill:#00008c;stroke:none" />
         <path
   d="m 9917,15185 -35,26 33,-13 z"
   id="path472"
   inkscape:connector-curvature="0"
   style="fill:#00008c;stroke:none" />
         <path
   d="m 9925,15208 -36,25 33,-12 z"
   id="path474"
   inkscape:connector-curvature="0"
   style="fill:#00008c;stroke:none" />
         <path
   d="m 9933,15231 -34,25 31,-10 z"
   id="path476"
   inkscape:connector-curvature="0"
   style="fill:#00008c;stroke:none" />
         <path
   d="m 9938,15256 -23,33 25,-20 z"
   id="path478"
   inkscape:connector-curvature="0"
   style="fill:#00008c;stroke:none" />
         <path
   d="m 9945,15282 -25,35 25,-23 z"
   id="path480"
   inkscape:connector-curvature="0"
   style="fill:#00008c;stroke:none" />
         <path
   d="m 9955,15305 -22,33 25,-21 z"
   id="path482"
   inkscape:connector-curvature="0"
   style="fill:#00008c;stroke:none" />
         <path
   d="m 9988,15348 -25,35 28,-20 z"
   id="path484"
   inkscape:connector-curvature="0"
   style="fill:#00008c;stroke:none" />
         <path
   d="m 9999,15376 -26,33 26,-20 z"
   id="path486"
   inkscape:connector-curvature="0"
   style="fill:#00008c;stroke:none" />
         <path
   d="m 10004,15401 -23,33 25,-20 z"
   id="path488"
   inkscape:connector-curvature="0"
   style="fill:#00008c;stroke:none" />
         <path
   d="m 10014,15422 -26,33 26,-21 z"
   id="path490"
   inkscape:connector-curvature="0"
   style="fill:#00008c;stroke:none" />
         <path
   d="m 10022,15445 -26,35 28,-23 z"
   id="path492"
   inkscape:connector-curvature="0"
   style="fill:#00008c;stroke:none" />
         <path
   d="m 10032,15472 -26,36 26,-20 z"
   id="path494"
   inkscape:connector-curvature="0"
   style="fill:#00008c;stroke:none" />
         <path
   d="m 10042,15498 -23,33 25,-20 z"
   id="path496"
   inkscape:connector-curvature="0"
   style="fill:#00008c;stroke:none" />
         <path
   d="m 10052,15523 -25,36 25,-20 z"
   id="path498"
   inkscape:connector-curvature="0"
   style="fill:#00008c;stroke:none" />
         <path
   d="m 10065,15546 -23,38 23,-23 z"
   id="path500"
   inkscape:connector-curvature="0"
   style="fill:#00008c;stroke:none" />
         <path
   d="m 10075,15572 -23,35 25,-23 z"
   id="path502"
   inkscape:connector-curvature="0"
   style="fill:#00008c;stroke:none" />
         <path
   d="m 10085,15592 -23,38 26,-23 z"
   id="path504"
   inkscape:connector-curvature="0"
   style="fill:#00008c;stroke:none" />
         <path
   d="m 10154,15635 -8,26 13,-21 z"
   id="path506"
   inkscape:connector-curvature="0"
   style="fill:#00008c;stroke:none" />
         <path
   d="m 10164,15645 -5,23 10,-18 z"
   id="path508"
   inkscape:connector-curvature="0"
   style="fill:#00008c;stroke:none" />
         <path
   d="m 10179,15656 -7,22 12,-20 z"
   id="path510"
   inkscape:connector-curvature="0"
   style="fill:#00008c;stroke:none" />
         <path
   d="m 10192,15663 -5,23 10,-18 z"
   id="path512"
   inkscape:connector-curvature="0"
   style="fill:#00008c;stroke:none" />
         <path
   d="m 10207,15673 -5,23 10,-18 z"
   id="path514"
   inkscape:connector-curvature="0"
   style="fill:#00008c;stroke:none" />
         <path
   d="m 10225,15686 -5,23 10,-20 z"
   id="path516"
   inkscape:connector-curvature="0"
   style="fill:#00008c;stroke:none" />
         <path
   d="m 10243,15696 -8,23 13,-20 z"
   id="path518"
   inkscape:connector-curvature="0"
   style="fill:#00008c;stroke:none" />
         <path
   d="m 10261,15709 -6,23 11,-20 z"
   id="path520"
   inkscape:connector-curvature="0"
   style="fill:#00008c;stroke:none" />
         <path
   d="m 10281,15717 -5,22 10,-17 z"
   id="path522"
   inkscape:connector-curvature="0"
   style="fill:#00008c;stroke:none" />
         <path
   d="m 10301,15729 -5,23 13,-20 z"
   id="path524"
   inkscape:connector-curvature="0"
   style="fill:#00008c;stroke:none" />
         <path
   d="m 10324,15737 -8,25 13,-20 z"
   id="path526"
   inkscape:connector-curvature="0"
   style="fill:#00008c;stroke:none" />
         <path
   d="m 10342,15745 v 22 l 7,-20 z"
   id="path528"
   inkscape:connector-curvature="0"
   style="fill:#00008c;stroke:none" />
         <path
   d="m 10362,15750 v 25 l 5,-20 z"
   id="path530"
   inkscape:connector-curvature="0"
   style="fill:#00008c;stroke:none" />
         <path
   d="m 10377,15755 6,23 v -21 z"
   id="path532"
   inkscape:connector-curvature="0"
   style="fill:#00008c;stroke:none" />
         <path
   d="m 10398,15755 7,20 v -20 z"
   id="path534"
   inkscape:connector-curvature="0"
   style="fill:#00008c;stroke:none" />
         <path
   d="m 10296,15826 8,23 v -23 z"
   id="path536"
   inkscape:connector-curvature="0"
   style="fill:#00008c;stroke:none" />
         <path
   d="m 10278,15826 8,23 v -21 z"
   id="path538"
   inkscape:connector-curvature="0"
   style="fill:#00008c;stroke:none" />
         <path
   d="m 10169,15826 v 23 l 8,-21 z"
   id="path540"
   inkscape:connector-curvature="0"
   style="fill:#00008c;stroke:none" />
         <path
   d="m 9971,15742 -5,23 10,-20 z"
   id="path542"
   inkscape:connector-curvature="0"
   style="fill:#00008c;stroke:none" />
         <path
   d="m 9988,15752 -5,23 11,-18 z"
   id="path544"
   inkscape:connector-curvature="0"
   style="fill:#00008c;stroke:none" />
         <path
   d="m 10006,15762 -5,23 10,-18 z"
   id="path546"
   inkscape:connector-curvature="0"
   style="fill:#00008c;stroke:none" />
         <path
   d="m 10024,15770 -5,23 10,-18 z"
   id="path548"
   inkscape:connector-curvature="0"
   style="fill:#00008c;stroke:none" />
         <path
   d="m 10044,15780 -7,23 12,-20 z"
   id="path550"
   inkscape:connector-curvature="0"
   style="fill:#00008c;stroke:none" />
         <path
   d="m 10065,15788 -8,23 13,-21 z"
   id="path552"
   inkscape:connector-curvature="0"
   style="fill:#00008c;stroke:none" />
         <path
   d="m 10085,15795 -5,26 10,-20 z"
   id="path554"
   inkscape:connector-curvature="0"
   style="fill:#00008c;stroke:none" />
         <path
   d="m 10105,15806 -7,22 13,-17 z"
   id="path556"
   inkscape:connector-curvature="0"
   style="fill:#00008c;stroke:none" />
         <path
   d="m 10126,15813 -8,23 13,-20 z"
   id="path558"
   inkscape:connector-curvature="0"
   style="fill:#00008c;stroke:none" />
         <path
   d="m 10149,15821 -5,23 10,-21 z"
   id="path560"
   inkscape:connector-curvature="0"
   style="fill:#00008c;stroke:none" />
         <path
   d="m 10187,15831 2,25 3,-22 z"
   id="path562"
   inkscape:connector-curvature="0"
   style="fill:#00008c;stroke:none" />
         <path
   d="m 10205,15834 7,25 v -23 z"
   id="path564"
   inkscape:connector-curvature="0"
   style="fill:#00008c;stroke:none" />
         <path
   d="m 10263,15831 8,20 -3,-20 z"
   id="path566"
   inkscape:connector-curvature="0"
   style="fill:#00008c;stroke:none" />
         <path
   d="m 10240,15831 8,23 -3,-23 z"
   id="path568"
   inkscape:connector-curvature="0"
   style="fill:#00008c;stroke:none" />
         <path
   d="m 10222,15831 11,23 -3,-20 z"
   id="path570"
   inkscape:connector-curvature="0"
   style="fill:#00008c;stroke:none" />
         <path
   d="m 9927,15709 -2,43 10,-33 z"
   id="path572"
   inkscape:connector-curvature="0"
   style="fill:#00008c;stroke:none" />
         <path
   d="m 9899,15694 -2,43 10,-33 z"
   id="path574"
   inkscape:connector-curvature="0"
   style="fill:#00008c;stroke:none" />
         <path
   d="m 9872,15673 -3,44 10,-31 z"
   id="path576"
   inkscape:connector-curvature="0"
   style="fill:#00008c;stroke:none" />
         <path
   d="m 9846,15650 -2,44 10,-31 z"
   id="path578"
   inkscape:connector-curvature="0"
   style="fill:#00008c;stroke:none" />
         <path
   d="m 9823,15623 -2,40 10,-30 z"
   id="path580"
   inkscape:connector-curvature="0"
   style="fill:#00008c;stroke:none" />
         <path
   d="m 9800,15595 -2,43 10,-33 z"
   id="path582"
   inkscape:connector-curvature="0"
   style="fill:#00008c;stroke:none" />
         <path
   d="m 9780,15564 -5,43 13,-30 z"
   id="path584"
   inkscape:connector-curvature="0"
   style="fill:#00008c;stroke:none" />
        </g>
       </g>
      </g>
     </g>
    </g>
   </g>
  </g>
 </g>
</svg>