<?xml version="1.0" encoding="UTF-8" standalone="no"?>
<svg
   xmlns:ooo="http://xml.openoffice.org/svg/export"
   xmlns:dc="http://purl.org/dc/elements/1.1/"
   xmlns:cc="http://creativecommons.org/ns#"
   xmlns:rdf="http://www.w3.org/1999/02/22-rdf-syntax-ns#"
   xmlns:svg="http://www.w3.org/2000/svg"
   xmlns="http://www.w3.org/2000/svg"
   xmlns:sodipodi="http://sodipodi.sourceforge.net/DTD/sodipodi-0.dtd"
   xmlns:inkscape="http://www.inkscape.org/namespaces/inkscape"
   version="1.2"
   width="74.980003mm"
   height="53.849998mm"
   viewBox="0 0 7498.0003 5384.9998"
   preserveAspectRatio="xMidYMid"
   xml:space="preserve"
   id="svg333"
   sodipodi:docname="jazzgrp.svg"
   style="fill-rule:evenodd;stroke-width:28.22200012;stroke-linejoin:round"
   inkscape:version="0.92.5 (2060ec1f9f, 2020-04-08)"><metadata
   id="metadata337"><rdf:RDF><cc:Work
       rdf:about=""><dc:format>image/svg+xml</dc:format><dc:type
         rdf:resource="http://purl.org/dc/dcmitype/StillImage" /></cc:Work></rdf:RDF></metadata><sodipodi:namedview
   pagecolor="#ffffff"
   bordercolor="#666666"
   borderopacity="1"
   objecttolerance="10"
   gridtolerance="10"
   guidetolerance="10"
   inkscape:pageopacity="0"
   inkscape:pageshadow="2"
   inkscape:window-width="664"
   inkscape:window-height="487"
   id="namedview335"
   showgrid="false"
   inkscape:zoom="0.2102413"
   inkscape:cx="141.69449"
   inkscape:cy="101.74488"
   inkscape:window-x="0"
   inkscape:window-y="0"
   inkscape:window-maximized="0"
   inkscape:current-layer="svg333" />
 <defs
   class="ClipPathGroup"
   id="defs8">
  <clipPath
   id="presentation_clip_path"
   clipPathUnits="userSpaceOnUse">
   <rect
   x="0"
   y="0"
   width="21000"
   height="29700"
   id="rect2" />
  </clipPath>
  <clipPath
   id="presentation_clip_path_shrink"
   clipPathUnits="userSpaceOnUse">
   <rect
   x="21"
   y="29"
   width="20958"
   height="29641"
   id="rect5" />
  </clipPath>
 </defs>
 <defs
   class="TextShapeIndex"
   id="defs12">
  <g
   ooo:slide="id1"
   ooo:id-list="id3"
   id="g10" />
 </defs>
 <defs
   class="EmbeddedBulletChars"
   id="defs44">
  <g
   id="bullet-char-template-57356"
   transform="matrix(4.8828125e-4,0,0,-4.8828125e-4,0,0)">
   <path
   d="M 580,1141 1163,571 580,0 -4,571 Z"
   id="path14"
   inkscape:connector-curvature="0" />
  </g>
  <g
   id="bullet-char-template-57354"
   transform="matrix(4.8828125e-4,0,0,-4.8828125e-4,0,0)">
   <path
   d="M 8,1128 H 1137 V 0 H 8 Z"
   id="path17"
   inkscape:connector-curvature="0" />
  </g>
  <g
   id="bullet-char-template-10146"
   transform="matrix(4.8828125e-4,0,0,-4.8828125e-4,0,0)">
   <path
   d="M 174,0 602,739 174,1481 1456,739 Z M 1358,739 309,1346 659,739 Z"
   id="path20"
   inkscape:connector-curvature="0" />
  </g>
  <g
   id="bullet-char-template-10132"
   transform="matrix(4.8828125e-4,0,0,-4.8828125e-4,0,0)">
   <path
   d="M 2015,739 1276,0 H 717 l 543,543 H 174 v 393 h 1086 l -543,545 h 557 z"
   id="path23"
   inkscape:connector-curvature="0" />
  </g>
  <g
   id="bullet-char-template-10007"
   transform="matrix(4.8828125e-4,0,0,-4.8828125e-4,0,0)">
   <path
   d="m 0,-2 c -7,16 -16,29 -25,39 l 381,530 c -94,256 -141,385 -141,387 0,25 13,38 40,38 9,0 21,-2 34,-5 21,4 42,12 65,25 l 27,-13 111,-251 280,301 64,-25 24,25 c 21,-10 41,-24 62,-43 C 886,937 835,863 770,784 769,783 710,716 594,584 L 774,223 c 0,-27 -21,-55 -63,-84 l 16,-20 C 717,90 699,76 672,76 641,76 570,178 457,381 L 164,-76 c -22,-34 -53,-51 -92,-51 -42,0 -63,17 -64,51 -7,9 -10,24 -10,44 0,9 1,19 2,30 z"
   id="path26"
   inkscape:connector-curvature="0" />
  </g>
  <g
   id="bullet-char-template-10004"
   transform="matrix(4.8828125e-4,0,0,-4.8828125e-4,0,0)">
   <path
   d="M 285,-33 C 182,-33 111,30 74,156 52,228 41,333 41,471 c 0,78 14,145 41,201 34,71 87,106 158,106 53,0 88,-31 106,-94 l 23,-176 c 8,-64 28,-97 59,-98 l 735,706 c 11,11 33,17 66,17 42,0 63,-15 63,-46 V 965 c 0,-36 -10,-64 -30,-84 L 442,47 C 390,-6 338,-33 285,-33 Z"
   id="path29"
   inkscape:connector-curvature="0" />
  </g>
  <g
   id="bullet-char-template-9679"
   transform="matrix(4.8828125e-4,0,0,-4.8828125e-4,0,0)">
   <path
   d="M 813,0 C 632,0 489,54 383,161 276,268 223,411 223,592 c 0,181 53,324 160,431 106,107 249,161 430,161 179,0 323,-54 432,-161 108,-107 162,-251 162,-431 0,-180 -54,-324 -162,-431 C 1136,54 992,0 813,0 Z"
   id="path32"
   inkscape:connector-curvature="0" />
  </g>
  <g
   id="bullet-char-template-8226"
   transform="matrix(4.8828125e-4,0,0,-4.8828125e-4,0,0)">
   <path
   d="m 346,457 c -73,0 -137,26 -191,78 -54,51 -81,114 -81,188 0,73 27,136 81,188 54,52 118,78 191,78 73,0 134,-26 185,-79 51,-51 77,-114 77,-187 0,-75 -25,-137 -76,-188 -50,-52 -112,-78 -186,-78 z"
   id="path35"
   inkscape:connector-curvature="0" />
  </g>
  <g
   id="bullet-char-template-8211"
   transform="matrix(4.8828125e-4,0,0,-4.8828125e-4,0,0)">
   <path
   d="M -4,459 H 1135 V 606 H -4 Z"
   id="path38"
   inkscape:connector-curvature="0" />
  </g>
  <g
   id="bullet-char-template-61548"
   transform="matrix(4.8828125e-4,0,0,-4.8828125e-4,0,0)">
   <path
   d="m 173,740 c 0,163 58,303 173,419 116,115 255,173 419,173 163,0 302,-58 418,-173 116,-116 174,-256 174,-419 0,-163 -58,-303 -174,-418 C 1067,206 928,148 765,148 601,148 462,206 346,322 231,437 173,577 173,740 Z"
   id="path41"
   inkscape:connector-curvature="0" />
  </g>
 </defs>
 <g
   id="g49"
   transform="translate(-6751,-12157)">
  <g
   id="id2"
   class="Master_Slide">
   <g
   id="bg-id2"
   class="Background" />
   <g
   id="bo-id2"
   class="BackgroundObjects" />
  </g>
 </g>
 <g
   class="SlideGroup"
   id="g331"
   transform="translate(-6751,-12157)">
  <g
   id="g329">
   <g
   id="container-id1">
    <g
   id="id1"
   class="Slide"
   clip-path="url(#presentation_clip_path)">
     <g
   class="Page"
   id="g325">
      <g
   class="Graphic"
   id="g323">
       <g
   id="id3">
        <rect
   class="BoundingBox"
   x="6751"
   y="12157"
   width="7498"
   height="5385"
   id="rect51"
   style="fill:none;stroke:none" />
        <defs
   id="defs56">
         <clipPath
   id="clip_path_1"
   clipPathUnits="userSpaceOnUse">
          <path
   d="m 6751,12157 h 7497 v 5384 H 6751 Z"
   id="path53"
   inkscape:connector-curvature="0" />
         </clipPath>
        </defs>
        <g
   clip-path="url(#clip_path_1)"
   id="g320">
         <path
   d="m 14249,17542 v -424 H 6751 v 424 z"
   id="path58"
   inkscape:connector-curvature="0"
   style="fill:#000000;stroke:none" />
         <path
   d="m 7597,17120 -38,10 -41,8 -43,5 -41,3 h -43 l -35,-3 -33,-5 -23,-5 -15,-8 -3,-7 3,-5 7,-6 -10,-17 v -18 l 5,-15 10,-16 13,-15 13,-10 15,-10 10,-8 8,3 15,2 23,3 25,2 31,3 30,-3 28,-2 28,-10 13,-5 13,-11 10,-7 7,-13 13,31 15,40 16,41 12,33 3,2 v 6 2 5 l -10,5 -13,3 h -13 z"
   id="path60"
   inkscape:connector-curvature="0"
   style="fill:#000000;stroke:none" />
         <path
   d="m 7887,16988 20,-5 23,-5 23,-5 28,-3 25,-2 23,-3 20,-2 h 18 15 l 16,-3 17,-2 18,-3 15,-3 h 18 15 16 l 12,11 16,10 15,7 18,5 10,3 13,3 12,5 16,7 15,5 12,8 11,5 7,3 5,2 8,3 10,2 8,3 10,2 13,3 h 10 12 23 l 23,7 21,8 12,13 8,15 v 15 l -10,18 -21,15 -33,5 -43,5 -53,3 -61,3 -59,-3 -56,-5 -48,-8 -35,-12 -18,2 -26,3 h -33 l -35,2 -38,3 h -31 -25 -13 l -2,-13 v -18 l 2,-15 8,-8 v -20 -25 -23 z"
   id="path62"
   inkscape:connector-curvature="0"
   style="fill:#000000;stroke:none" />
         <path
   d="m 7307,12675 -10,31 v 28 l 3,30 10,28 10,26 13,20 10,18 10,10 -10,25 10,33 15,31 13,18 10,7 13,-2 10,-8 8,-10 2,3 3,2 v 5 l 2,3 3,15 8,20 5,21 7,15 v 5 8 l -2,7 v 10 l 5,11 7,10 8,12 10,13 10,13 13,10 13,10 12,8 16,7 20,11 20,12 23,13 23,15 20,13 18,15 15,15 11,-12 12,-13 13,-18 10,-15 10,-15 11,-15 5,-13 5,-8 7,-46 5,-55 -5,-54 -17,-33 15,-20 12,-23 3,-31 -10,-40 15,-5 15,-13 11,-20 2,-28 -5,-26 -13,-18 -15,-7 -20,-3 -3,-7 -2,-5 -3,-5 -2,-6 -6,-22 -7,-23 -8,-21 -7,-15 -8,-10 -5,-18 -10,-18 -13,-15 -10,-7 -15,-8 -16,-10 -20,-8 -18,-8 -18,-7 -15,-3 -10,-2 h -10 -15 -16 l -17,2 h -18 l -15,5 -18,3 -13,5 -15,8 -20,12 -21,16 -20,17 -20,23 -16,23 -10,23 -5,25 -2,-2 v -3 0 -2 l -3,2 v 3 0 z"
   id="path64"
   inkscape:connector-curvature="0"
   style="fill:#000000;stroke:none" />
         <path
   d="m 8796,13410 13,2 13,3 12,5 11,5 10,5 7,8 6,5 5,5 2,10 -5,13 -8,13 -10,7 3,8 v 7 l -5,8 -3,8 v 20 l -7,15 -13,10 -13,6 v 5 5 5 7 l 3,11 -5,10 -8,10 -13,10 -12,10 -13,8 -10,5 -5,5 -8,8 -10,10 -15,18 -18,20 -21,23 -20,23 -20,20 -18,18 -20,18 -26,17 -30,21 -31,17 -30,18 -28,15 -26,11 -17,7 -18,-43 -15,-74 -10,-78 -3,-64 13,-8 17,-5 21,-2 23,-3 23,3 h 17 16 l 5,-3 7,-10 5,-10 5,-8 6,-5 -11,-28 -5,-25 v -23 -18 l 3,-18 -3,-20 v -20 l 5,-18 3,-18 v -20 l -3,-18 3,-15 8,-13 12,-13 10,-10 11,-7 5,-3 7,-2 5,-6 3,-7 2,-8 8,-7 h 5 l 8,2 5,8 5,12 v 18 l -10,26 -8,10 -5,5 -3,5 -5,5 5,15 3,21 v 20 13 h 15 l 23,-5 31,-5 33,-8 33,-10 30,-8 26,-10 z"
   id="path66"
   inkscape:connector-curvature="0"
   style="fill:#000000;stroke:none" />
         <path
   d="m 7902,13278 10,17 15,26 18,28 13,28 13,43 10,61 7,61 3,36 2,20 3,20 5,21 3,17 2,23 -2,36 -3,35 -2,26 v 28 l 2,43 v 48 l -5,43 -8,72 -2,111 v 110 63 l -10,13 -16,15 -17,18 -18,20 -20,21 -21,20 -15,18 -15,15 -13,-8 -18,-10 -23,-10 -23,-13 -20,-12 -20,-11 -18,-7 -10,-5 -10,7 -13,11 -18,12 -20,16 -20,15 -21,15 -15,13 -13,10 -7,-8 -10,-7 -11,-8 -10,-8 -10,-7 -10,-8 -13,-5 -13,-8 -38,-20 -43,-20 -43,-21 -43,-20 -43,-18 -44,-15 -38,-15 -35,-15 -5,-3 -8,-3 -8,-2 -5,-3 10,-119 -5,-79 -10,-51 -7,-35 -5,-41 -8,-53 -8,-66 -2,-77 v 16 l 5,20 7,20 13,23 13,21 10,17 13,18 7,10 10,10 11,16 12,15 11,20 12,18 10,18 8,15 5,10 13,31 12,25 13,21 13,15 15,15 18,15 18,13 23,18 12,7 21,11 25,10 28,7 30,10 26,8 25,5 18,3 10,7 15,8 18,3 h 16 l 7,-3 h 10 10 13 10 l 10,-3 h 8 l 8,-2 v 5 5 8 5 l 2,-5 5,-3 3,-5 2,-5 v -41 l 3,-45 8,-36 12,-8 3,23 -8,43 -10,44 -8,20 v 8 5 7 8 l 18,13 21,10 17,5 h 21 17 l 18,-5 15,-8 16,-7 v -36 l 7,-38 13,-38 15,-38 18,-33 20,-33 16,-26 15,-18 -3,-5 -2,-5 -3,-5 -5,-5 h -10 l -10,-3 -13,-5 -13,-5 -12,-5 -10,-7 -13,-5 -10,-6 -10,-2 -13,-5 -15,-3 -13,-2 -15,-3 h -13 l -15,-2 -10,-3 -3,5 -5,3 -3,5 -5,5 -5,-8 -10,-5 -13,-2 -10,-3 -2,-8 -5,-10 -11,-10 -12,-10 -8,-3 -13,-2 h -12 l -13,-3 -15,3 h -16 -12 -13 l 8,-5 7,-5 10,-3 8,-2 -8,-5 -7,-8 -8,-8 -10,-7 5,-38 -7,-23 -13,-13 -13,-8 -10,-10 -8,-10 -7,-13 -5,-15 -8,-20 -13,-23 -15,-23 -15,-18 -13,-18 -15,-22 -13,-23 -15,-23 20,-5 3,-26 -10,-40 -26,-54 -33,-56 -38,-58 -41,-53 -40,-41 -8,-5 -5,-5 -8,-5 -5,-5 h 16 12 16 12 l 23,-3 20,-2 18,-6 15,-5 16,-5 15,-10 13,-8 15,-12 25,30 46,61 56,79 61,89 61,91 56,82 43,61 25,35 8,-23 13,-35 12,-41 11,-33 v -61 l -8,-96 -15,-99 -10,-67 h 7 l 8,-2 h 10 10 13 l 10,2 10,3 10,8 13,12 10,18 10,20 z"
   id="path68"
   inkscape:connector-curvature="0"
   style="fill:#000000;stroke:none" />
         <path
   d="m 7495,14398 13,8 13,5 10,8 10,7 10,8 11,8 10,7 7,8 13,-10 15,-13 21,-15 20,-15 20,-16 18,-12 13,-11 10,-7 10,5 18,7 20,11 20,12 23,13 23,10 18,10 13,8 10,-10 10,-13 13,-13 15,-15 13,-15 15,-13 13,-15 12,-13 8,21 10,22 13,21 7,20 6,26 5,30 2,33 v 31 l -2,22 2,31 3,25 5,18 12,38 6,41 -6,38 -15,28 5,3 3,5 5,2 2,5 3,26 10,38 8,43 10,46 8,30 10,46 15,58 15,61 13,64 13,58 5,49 2,35 3,64 5,76 10,71 8,56 12,43 18,43 13,46 8,49 5,142 10,251 12,252 3,140 -3,61 -5,71 -5,61 -5,33 3,10 2,5 5,8 5,2 -5,23 -7,31 -8,38 -10,38 -3,-3 h -5 -2 -5 -16 -15 -18 l -15,3 -18,3 -17,2 -16,3 h -15 -18 l -20,2 -23,3 -25,2 -28,3 -23,5 -23,5 -20,5 h -18 l -13,-10 -7,-18 -3,-25 v -64 l -5,-107 -10,-117 -18,-94 -23,-152 -20,-254 -15,-262 -11,-175 -15,-43 -18,-77 -20,-104 -20,-114 -23,-117 -25,-112 -26,-91 -30,-61 -18,119 -10,198 -11,211 -7,158 v 104 l 7,198 11,242 7,228 3,69 v 61 46 l -3,33 8,28 5,40 5,41 3,38 7,13 5,15 3,20 v 21 25 25 21 l -3,15 -7,10 -10,10 -13,8 -10,8 -28,10 -31,2 -30,3 -28,-3 -28,-2 -23,-3 -15,-2 -8,-3 -13,-2 -12,-5 -13,-3 -10,-3 -8,-10 -5,-15 -5,-15 -3,-10 v -5 l 3,-11 3,-10 7,-10 -2,-10 -3,-13 -5,-13 -5,-12 -10,-23 -13,-26 -13,-27 -15,-28 -20,-59 -23,-89 -23,-114 -20,-130 -21,-134 -15,-135 -13,-122 -7,-104 -5,-178 5,-193 7,-166 6,-91 2,-69 -5,-63 -10,-61 -8,-59 v -99 l 5,-147 8,-145 10,-86 10,-51 16,-64 20,-68 23,-66 25,38 31,30 35,26 38,20 46,15 48,8 51,5 z"
   id="path70"
   inkscape:connector-curvature="0"
   style="fill:#000000;stroke:none" />
         <path
   d="m 7635,17105 3,2 v 6 2 5 l -10,5 -13,3 h -13 l -5,-8 5,-5 10,-2 13,-3 z"
   id="path72"
   inkscape:connector-curvature="0"
   style="fill:#ffffff;stroke:none" />
         <path
   d="m 7363,17059 18,-5 20,-5 h 18 15 l 16,3 12,7 11,8 7,12 -12,6 -16,7 -20,3 -15,2 -8,-15 -15,-13 -15,-7 z"
   id="path74"
   inkscape:connector-curvature="0"
   style="fill:#ffffff;stroke:none" />
         <path
   d="m 7277,16851 5,12 5,13 3,13 2,10 38,-53 31,-51 20,-48 13,-46 10,-46 3,-46 2,-45 v -46 l -5,-46 -13,-94 -17,-127 -18,-145 -21,-155 -17,-145 -11,-127 -5,-91 v 155 l 13,188 18,185 18,150 10,82 5,76 v 68 l -5,64 -10,61 -16,58 -22,56 -28,54 -3,17 v 18 l -3,18 z"
   id="path76"
   inkscape:connector-curvature="0"
   style="fill:#ffffff;stroke:none" />
         <path
   d="m 7546,16658 3,-33 v -46 -61 l -3,-69 -7,61 -8,74 -10,74 -8,50 -2,21 -3,20 3,20 2,21 10,20 13,23 20,20 26,21 v -21 l -3,-20 -5,-15 -7,-13 -18,-36 -8,-35 -2,-36 z"
   id="path78"
   inkscape:connector-curvature="0"
   style="fill:#ffffff;stroke:none" />
         <path
   d="m 7582,16874 v 25 25 21 l -3,15 -7,10 -10,10 -13,8 -10,8 15,-28 15,-36 8,-33 z"
   id="path80"
   inkscape:connector-curvature="0"
   style="fill:#ffffff;stroke:none" />
         <path
   d="m 7264,13179 h -12 -16 -12 -16 l 5,5 8,5 5,5 8,5 h 10 13 10 7 l -2,-5 -3,-5 -2,-5 z"
   id="path82"
   inkscape:connector-curvature="0"
   style="fill:#ffffff;stroke:none" />
         <path
   d="m 7168,14254 25,38 31,30 35,26 38,20 46,15 48,8 51,5 53,2 -38,-20 -43,-20 -43,-21 -43,-20 -43,-18 -44,-15 -38,-15 z"
   id="path84"
   inkscape:connector-curvature="0"
   style="fill:#ffffff;stroke:none" />
         <path
   d="m 7107,13722 v 16 l 5,20 7,20 13,23 13,21 10,17 13,18 7,10 10,10 11,16 12,15 11,20 12,18 10,18 8,15 5,10 13,31 12,25 13,21 13,15 15,15 18,15 18,13 23,18 12,7 21,11 25,10 28,7 30,10 26,8 25,5 18,3 10,7 15,8 18,3 h 16 l 7,-3 h 10 10 13 10 l 10,-3 h 8 l 8,-2 v 5 5 8 5 l 2,-5 5,-3 3,-5 2,-5 v -41 l 3,-45 8,-36 12,-8 3,23 -8,43 -10,44 -8,20 v 8 5 7 8 l 18,13 21,10 17,5 h 21 17 l 18,-5 15,-8 16,-7 v -21 -20 l 2,-20 5,-21 11,-28 10,-28 12,-25 16,-25 12,-23 13,-21 13,-15 10,-13 -3,-5 -2,-5 -3,-5 -5,-5 h -10 l -10,-3 -13,-5 -13,-5 -12,-5 -10,-7 -13,-5 -10,-6 -10,-2 -13,-5 -15,-3 -13,-2 -15,-3 h -13 l -15,-2 -10,-3 -3,5 -5,3 -3,5 -5,5 -5,-8 -10,-5 -13,-2 -10,-3 -2,-8 -5,-10 -11,-10 -12,-10 -8,-3 -13,-2 h -12 l -13,-3 -15,3 h -16 -12 -13 l 8,-5 7,-5 10,-3 8,-2 -8,-5 -7,-8 -8,-8 -10,-7 5,-38 -7,-23 -13,-13 -13,-8 -10,-10 -8,-10 -7,-13 -5,-15 -8,-20 -13,-23 -15,-23 -15,-18 -13,-18 -15,-22 -13,-23 -15,-23 23,-5 v -31 l -15,-48 -31,-58 -38,-64 -43,-61 -43,-51 -44,-35 -40,7 -38,15 -36,28 -30,36 -26,43 -15,51 -5,58 5,67 -3,38 3,38 7,33 13,30 15,31 16,25 17,23 z"
   id="path86"
   inkscape:connector-curvature="0"
   style="fill:#ffffff;stroke:none" />
         <path
   d="m 7996,13938 5,-43 v -48 l -2,-43 v -28 l 2,-26 3,-35 2,-36 -2,-23 -3,-17 -5,-21 -3,-20 -2,-20 -3,-36 -7,-61 -10,-61 -13,-43 -13,-28 -18,-28 -15,-26 -10,-17 -8,-16 -10,-20 -10,-18 -13,-12 11,5 10,7 h 15 l 18,-2 h 12 l 11,2 12,5 13,11 10,10 8,10 7,13 5,7 11,15 12,23 16,26 12,28 16,28 10,25 7,18 3,13 20,17 23,31 28,38 25,41 26,40 20,36 15,25 8,16 8,-3 10,-3 13,-2 10,-3 12,-5 11,-2 h 7 l 8,-3 2,-10 5,-13 5,-7 6,-3 7,5 8,5 7,8 3,5 3,64 10,78 15,74 18,43 -13,21 -13,15 -15,15 -18,8 -10,-5 -10,-5 -10,-3 h -10 l -38,18 -41,10 -43,5 -44,-5 -40,-8 -41,-15 -38,-18 z"
   id="path88"
   inkscape:connector-curvature="0"
   style="fill:#ffffff;stroke:none" />
         <path
   d="m 7783,13201 10,67 15,99 8,96 v 61 l -11,33 -12,41 -13,35 -8,23 -25,-35 -43,-61 -56,-82 -61,-91 -61,-89 -56,-79 -46,-61 -25,-30 13,-15 12,-16 16,-15 10,-8 5,11 7,10 8,12 10,13 10,13 13,10 13,10 12,8 16,7 20,11 20,12 23,13 23,15 20,13 18,15 15,15 11,-12 12,-13 13,-18 10,-15 10,-15 11,-15 5,-13 5,-8 10,10 7,13 3,13 z"
   id="path90"
   inkscape:connector-curvature="0"
   style="fill:#ffffff;stroke:none" />
         <path
   d="m 7772,13656 8,-23 13,-35 12,-41 11,-33 -5,-10 -8,-18 -10,-20 -10,-23 -16,-23 -12,-23 -13,-20 -10,-18 5,-2 h 5 5 5 5 l 8,5 5,2 5,3 -13,-23 -18,-36 -15,-30 -10,-18 -5,-5 -8,-3 h -10 -13 l -15,13 -7,10 -5,10 v 8 13 l 2,18 3,22 2,18 3,-10 5,-13 2,-10 3,-7 2,2 3,3 5,5 3,2 2,31 5,43 10,46 13,48 15,48 13,41 15,33 z"
   id="path92"
   inkscape:connector-curvature="0"
   style="fill:#000000;stroke:none" />
         <path
   d="m 7107,13722 -16,-20 -17,-23 -16,-25 -15,-31 -13,-30 -7,-33 -3,-38 3,-38 13,30 20,43 20,43 15,26 -7,-5 -8,-3 -5,-2 -5,-5 5,25 13,33 13,31 z"
   id="path94"
   inkscape:connector-curvature="0"
   style="fill:#000000;stroke:none" />
         <path
   d="m 7861,13212 13,12 10,18 10,20 8,16 -5,-10 -3,-8 5,-5 11,-3 h 7 l 10,3 11,2 12,3 13,2 10,6 13,7 7,5 -5,-7 -7,-13 -8,-10 -10,-10 -13,-11 -12,-5 -11,-2 h -12 l -18,2 h -15 l -10,-7 z"
   id="path96"
   inkscape:connector-curvature="0"
   style="fill:#000000;stroke:none" />
         <path
   d="m 7996,13938 5,-43 v -48 l -2,-43 v -28 l 2,-26 3,-35 2,-36 -2,-23 2,-38 10,-35 13,-26 13,-7 7,12 3,21 2,25 3,18 13,-15 15,-16 15,-5 15,13 8,13 10,12 13,16 13,12 15,13 15,13 15,10 18,10 -13,20 -12,28 -3,26 8,15 7,-8 13,-7 15,-5 16,-5 20,-3 20,-2 h 21 20 l 5,-13 5,-15 3,-13 -5,-8 -8,-5 -10,-2 -15,-3 h -16 l -15,-2 h -15 -10 -8 l 8,-3 10,-3 13,-2 10,-3 12,-5 11,-2 h 7 l 8,-3 2,-10 5,-13 5,-7 6,-3 7,5 8,5 7,8 3,5 3,64 10,78 15,74 18,43 -13,21 -13,15 -15,15 -18,8 -10,-5 -10,-5 -10,-3 h -10 l -38,18 -41,10 -43,5 -44,-5 -40,-8 -41,-15 -38,-18 z"
   id="path98"
   inkscape:connector-curvature="0"
   style="fill:#000000;stroke:none" />
         <path
   d="m 7419,12734 8,-5 7,-5 11,-3 10,-2 h 10 10 10 l 13,2 -5,5 5,13 -8,8 -10,7 -12,-2 -11,2 -10,5 -10,5 -10,8 v -8 -10 l 5,-7 8,-8 -6,-3 -5,-2 h -5 z"
   id="path100"
   inkscape:connector-curvature="0"
   style="fill:#ffffff;stroke:none" />
         <path
   d="m 7414,12800 8,8 7,2 8,3 h 8 l 5,-3 h 5 l 2,3 3,5 v 5 l 2,5 v 5 l 3,5 5,5 8,8 5,7 2,13 h -10 l -13,-2 -10,-3 -12,-3 -13,-2 -10,-3 -8,-5 -8,-5 v -10 l 3,-8 v -5 l 3,-5 2,-5 3,-5 2,-5 z"
   id="path102"
   inkscape:connector-curvature="0"
   style="fill:#ffffff;stroke:none" />
         <path
   d="m 7384,12856 5,2 7,3 8,2 5,3 3,15 5,23 10,26 13,28 20,25 28,20 33,10 h 43 v 5 l -2,3 -3,5 v 5 l -46,-7 -35,-16 -31,-23 -20,-25 -18,-28 -13,-28 -7,-25 z"
   id="path104"
   inkscape:connector-curvature="0"
   style="fill:#ffffff;stroke:none" />
         <path
   d="m 7582,12836 7,2 13,3 h 13 l 8,-3 5,5 7,3 5,2 5,3 h -10 l -10,5 -10,5 -10,8 -13,2 h -13 l -10,-2 h -7 l 10,-8 5,-10 5,-8 z"
   id="path106"
   inkscape:connector-curvature="0"
   style="fill:#ffffff;stroke:none" />
         <path
   d="m 7750,12708 2,6 3,5 2,5 3,7 2,13 3,18 2,20 v 15 l 3,-7 5,-5 8,-3 h 12 l 8,3 v 5 10 13 l -5,7 -8,5 -10,3 h -10 l -8,2 -5,6 -2,10 2,10 5,18 3,28 -3,33 -12,30 17,33 5,54 -5,55 -7,46 -10,10 -16,18 -17,18 -13,13 2,-11 3,-12 -3,-13 -2,-13 5,-15 -3,-18 -5,-20 -5,-10 -5,-8 -2,-13 -3,-12 v -5 l 3,-5 7,-3 5,-2 3,-6 2,-7 v -10 -13 l -2,-15 h -5 l -10,2 -11,5 -12,3 -13,5 -13,5 -10,3 h -7 l -3,-11 -3,-7 -2,-8 -3,-7 -2,-6 h -5 l -3,-2 -2,-3 2,-10 8,-7 13,-8 20,-5 10,-5 8,-10 5,-13 v -15 l -16,5 -20,5 -23,7 -15,8 -13,-2 -10,-13 -5,-18 -2,-13 h 12 18 l 13,-2 10,-3 2,-2 6,-3 5,-2 2,-3 8,-2 h 12 16 l 12,2 v -5 l 5,-8 3,-5 v -5 l 3,3 h 2 3 2 l -7,-23 -16,-15 -20,-5 -28,10 3,-10 5,-13 -3,-15 -10,-8 v 8 l -8,7 -12,8 -11,2 -10,8 -15,3 h -18 l -15,-6 v -5 l 3,-5 2,-7 3,-8 2,-5 -2,-8 -3,-5 -5,-7 -3,-8 -5,-8 -2,-10 v -5 l -3,-5 -2,-5 -5,-3 h -5 l -8,-2 -10,-5 -10,-8 -8,-7 -10,-5 -15,-3 -18,-3 -15,-2 10,-15 v -18 l -5,-18 -8,-13 -5,-20 8,-20 17,-18 28,-10 h 8 8 l 7,2 h 5 5 l 11,-2 10,-3 15,-2 h 13 l 15,-3 h 10 l 10,3 8,2 13,3 12,5 13,5 13,8 12,7 13,8 8,7 7,11 8,17 10,18 10,20 13,21 10,18 13,12 z"
   id="path108"
   inkscape:connector-curvature="0"
   style="fill:#ffffff;stroke:none" />
         <path
   d="m 7569,12719 -2,-8 -5,-8 v -7 -5 l 2,-8 3,-13 5,-10 2,-5 5,-2 5,-3 5,-3 3,-2 8,-5 12,-10 16,-8 7,-5 13,8 18,15 17,15 11,10 2,5 3,13 2,13 3,7 -10,-2 -11,-5 -10,-3 h -10 -2 v -2 0 h -3 l 5,-3 8,-2 5,-3 h 7 l -5,-13 -10,-10 -15,-7 h -18 l -18,5 -12,10 -8,13 -2,5 10,2 10,5 8,8 2,7 13,-2 15,-3 18,3 10,2 v 3 0 0 3 h -8 l -10,2 -7,3 -3,2 3,3 2,2 v 3 l 3,2 h -8 l -5,3 h -8 -5 l -10,-3 -13,-7 -12,-5 -8,-5 h -8 -7 l -5,2 z"
   id="path110"
   inkscape:connector-curvature="0"
   style="fill:#000000;stroke:none" />
         <path
   d="m 8829,12675 -2,8 -5,13 -3,12 v 8 h 3 2 l 3,3 h 2 v 7 8 7 8 h 3 5 3 5 l 2,5 3,3 v 5 l 2,5 5,-8 8,-7 5,-5 3,-8 h 5 5 l 2,2 5,3 3,5 5,8 v 10 10 l -3,18 -7,10 -13,8 h -18 v -5 -8 -5 -8 h -5 -2 -3 -5 v 3 2 l -2,3 v 5 h -6 l -5,-3 h -7 -8 v 8 8 10 7 h 5 5 5 5 v 6 5 5 7 h 6 l 7,-2 h 8 5 l 2,-5 v -5 -5 -3 l 23,3 10,10 3,15 v 18 l -8,15 -10,10 -15,5 -13,-2 v -5 -3 -5 -5 h -7 -8 -8 -7 v 20 l -5,33 -3,33 -5,21 -5,12 -13,16 -17,20 -18,18 -5,40 -11,77 -12,104 -15,117 -16,124 -18,120 -12,106 -13,84 -2,59 5,53 15,43 20,38 28,33 31,31 35,28 38,28 77,58 63,61 51,74 38,81 18,99 -3,117 -25,140 -51,165 -76,-5 -56,48 -33,89 -13,110 15,111 39,97 66,66 96,18 33,130 18,124 5,117 -8,112 -20,104 -30,99 -44,86 -53,82 -63,71 -77,58 -84,51 -94,36 -101,28 -109,12 h -120 l -124,-15 -5,36 -13,66 -15,84 -16,91 -17,92 -16,81 -10,56 -5,28 -5,13 -5,2 -5,-5 v -15 l 5,-31 10,-63 13,-82 12,-94 16,-94 10,-81 10,-61 3,-28 -171,-43 -144,-53 -122,-61 -97,-74 -79,-79 -56,-84 -40,-91 -23,-94 -10,-97 5,-96 12,-97 26,-97 30,-91 38,-89 41,-86 46,-77 58,8 54,-3 45,-17 44,-28 38,-36 30,-41 28,-45 18,-51 13,-51 7,-51 v -48 l -7,-43 -16,-38 -20,-31 -30,-23 -39,-10 -7,-76 v -71 l 2,-66 11,-61 12,-56 15,-54 23,-45 26,-44 28,-40 35,-33 36,-33 40,-28 44,-26 45,-20 51,-20 51,-16 84,-28 63,-35 49,-36 33,-35 20,-38 15,-36 8,-30 5,-28 10,-49 18,-89 25,-111 26,-125 25,-125 23,-111 18,-84 10,-48 -10,-3 -13,-3 -10,-5 -5,-5 -5,-7 -8,-11 -10,-10 -5,-7 2,-8 v -8 -2 -5 h 8 l 5,-3 h 5 5 v -15 l 5,-23 3,-23 v -15 h -8 l -5,-2 h -7 l -8,-3 v 3 5 l -3,2 v 5 l -15,-5 -10,-13 -2,-15 v -13 l 2,-10 8,-7 10,-5 h 15 v 5 2 5 5 l 10,3 h 10 l 8,2 h 8 l 5,-17 7,-23 5,-26 3,-15 -8,-2 -7,-3 -8,-5 h -7 l -8,13 -15,-3 -13,-15 2,-31 13,-22 15,-8 11,5 5,13 7,2 10,3 11,5 7,2 3,-5 2,-2 v -3 l 3,-2 10,2 15,5 16,3 10,2 v -2 -3 -2 -5 l -8,-3 h -2 l -6,-2 -5,-3 v -15 l 3,-18 5,-18 8,-12 -8,-8 -8,-15 -2,-16 2,-15 h -10 l -7,-5 -8,-2 -5,-3 v -23 l 5,-20 8,-18 7,-13 8,3 7,2 8,5 5,3 3,-8 5,-7 2,-8 3,-7 h 5 5 l 3,2 h 5 l 2,-10 8,-10 5,-13 10,-8 8,-5 10,-5 h 7 11 l 20,15 10,21 3,23 -3,15 5,2 5,3 3,3 h 5 v 5 2 5 3 l 8,5 7,2 8,3 7,5 3,20 -5,28 -8,21 -10,7 -5,-2 -8,-3 -5,-2 -7,-3 v 10 8 l -3,8 -5,7 -3,5 -2,3 v 5 z"
   id="path112"
   inkscape:connector-curvature="0"
   style="fill:#000000;stroke:none" />
         <path
   d="m 8890,12744 -5,-3 -2,-2 h -5 -5 v 8 10 l -3,10 v 8 h 5 5 5 5 v -6 -10 -10 z"
   id="path114"
   inkscape:connector-curvature="0"
   style="fill:#ffffff;stroke:none" />
         <path
   d="m 8776,12459 8,-5 10,-5 h 7 11 l -13,18 -10,18 -5,20 v 26 h -8 l -5,-3 -5,-3 h -5 l 2,-15 3,-18 5,-17 z"
   id="path116"
   inkscape:connector-curvature="0"
   style="fill:#ffffff;stroke:none" />
         <path
   d="m 8255,16040 -20,102 -13,127 -7,114 2,69 -5,30 -20,18 h -23 l -8,-28 v -18 l 3,-20 2,-18 5,-18 -20,-2 -20,-3 -18,-7 -8,-13 10,-10 h 21 l 23,5 20,5 2,-36 6,-43 7,-51 10,-48 11,-51 12,-43 13,-35 z"
   id="path118"
   inkscape:connector-curvature="0"
   style="fill:#ffffff;stroke:none" />
         <path
   d="m 8601,15092 28,-2 23,15 15,28 5,33 v 53 l -3,74 -2,79 v 63 l 7,59 18,48 26,36 30,22 33,8 31,-8 25,-22 20,-44 3,-25 -8,-18 -15,-10 -23,-5 -23,13 -12,23 5,25 30,13 -7,15 -16,7 -17,3 -18,-8 -18,-12 -13,-21 -10,-28 -5,-35 v -61 l 5,-59 3,-58 v -58 -34 l -3,-30 -8,-33 -7,-28 -15,-25 -18,-18 -23,-10 -31,-3 -28,5 -17,10 -10,13 -6,15 3,16 8,12 7,8 13,5 23,-5 10,-15 -3,-18 z"
   id="path120"
   inkscape:connector-curvature="0"
   style="fill:#ffffff;stroke:none" />
         <path
   d="m 8138,15026 -12,-10 -13,-3 h -13 l -13,5 -12,11 -13,12 -8,16 -7,15 -8,20 -10,28 -13,36 -10,35 -13,38 -12,36 -13,33 -10,25 -28,54 -33,38 -38,25 -36,11 -33,-3 -25,-18 -18,-33 -5,-46 8,-25 12,-15 21,-5 20,5 20,20 3,28 -13,20 -33,3 3,15 10,13 15,7 h 18 l 20,-5 23,-15 20,-23 16,-33 20,-56 18,-56 15,-53 20,-58 13,-28 15,-31 15,-28 18,-23 23,-17 23,-11 25,-2 28,7 23,16 15,15 5,18 v 15 l -7,13 -10,7 -13,5 h -13 l -17,-12 -6,-18 8,-13 z"
   id="path122"
   inkscape:connector-curvature="0"
   style="fill:#ffffff;stroke:none" />
         <path
   d="m 8619,12749 -6,-2 -5,-3 -5,-3 h -5 l 3,-7 v -5 -3 l 2,-2 5,-3 3,-2 h 5 5 l -2,5 v 10 10 z"
   id="path124"
   inkscape:connector-curvature="0"
   style="fill:#ffffff;stroke:none" />
         <path
   d="m 8382,15717 15,3 16,-64 -38,-10 101,-480 33,20 8,-23 -36,-25 173,-1304 102,-772 7,-54 -15,3 -290,2119 -40,-15 -5,28 40,13 -104,490 -35,-7 99,-496 5,-28 310,-2079 -13,-2 -320,2076 -69,-5 -7,25 71,5 -97,498 -30,-7 56,-496 7,-25 376,-2064 -7,-33 -394,2097 -56,5 -3,28 56,-8 -53,493 -43,-5 40,-480 3,-28 455,-2219 -15,-5 -36,166 -155,742 -274,1324 h -13 l -15,5 -16,2 -7,3 -3,20 10,-2 13,-3 h 13 l 13,-3 -8,77 -10,165 -13,163 -5,73 -38,-2 -8,73 224,26 v 15 18 15 l -3,13 -12,23 -23,40 -21,44 -12,35 12,-18 18,-23 18,-28 15,-27 15,-31 13,-28 5,-25 z"
   id="path126"
   inkscape:connector-curvature="0"
   style="fill:#ffffff;stroke:none" />
         <path
   d="m 8273,15758 23,15 -10,23 -23,-13 z"
   id="path128"
   inkscape:connector-curvature="0"
   style="fill:#ffffff;stroke:none" />
         <path
   d="m 8321,15799 h 5 l 5,-3 3,-5 v -2 -6 l -3,-5 -5,-2 h -5 -2 l -5,2 -3,5 v 6 2 l 3,5 5,3 z"
   id="path130"
   inkscape:connector-curvature="0"
   style="fill:#ffffff;stroke:none" />
         <path
   d="m 8679,16523 -27,10 -28,10 -28,10 -31,8 -28,8 -33,5 -30,5 -33,2 -33,3 -33,2 h -36 -36 l -35,-2 -36,-3 -35,-5 -38,-5 -5,36 -13,66 -15,84 -16,91 -17,92 -16,81 -10,56 -5,28 -5,13 -5,2 -5,-5 v -15 l 5,-31 10,-63 13,-82 12,-94 16,-94 10,-81 10,-61 3,-28 -44,-10 -43,-8 -40,-12 -39,-11 -38,-12 -35,-13 -36,-13 -33,-12 36,10 35,10 43,10 44,13 48,10 51,13 53,10 56,8 56,5 58,5 h 61 64 l 63,-5 64,-11 63,-12 z"
   id="path132"
   inkscape:connector-curvature="0"
   style="fill:#ffffff;stroke:none" />
         <path
   d="m 7717,16424 -54,-33 -48,-36 -43,-35 -36,-41 -33,-38 -30,-41 -23,-43 -21,-43 23,38 31,43 35,43 41,46 41,46 40,38 38,33 z"
   id="path134"
   inkscape:connector-curvature="0"
   style="fill:#ffffff;stroke:none" />
         <path
   d="m 7958,13994 -8,11 -10,12 -10,13 -10,18 -18,28 -15,30 -15,33 -11,33 h 13 13 15 15 18 15 18 15 23 18 l 15,3 10,2 18,5 18,3 18,2 h 12 l 11,-2 h 12 l 10,2 11,6 7,5 10,7 13,8 15,8 16,7 15,5 13,5 7,3 h 18 23 l 20,2 13,3 5,8 10,10 13,18 13,17 12,18 13,18 10,13 5,7 h 10 l 8,-12 2,-18 -2,-18 -5,-13 v -12 -11 l 2,-7 8,23 5,20 8,18 5,12 -3,16 -2,20 2,23 18,18 3,-8 5,-5 7,-8 5,-5 8,10 8,8 12,3 11,-3 7,-5 5,-8 v -7 l -2,-10 -5,-18 2,-31 5,-33 10,-20 13,15 13,18 10,15 10,10 13,3 10,-10 5,-16 -2,-20 -11,-23 -12,-23 -13,-20 -5,-15 -5,-13 -10,-13 -11,-12 -7,-10 -10,-13 -16,-20 -15,-18 -18,-13 -10,-5 -18,-3 -25,-5 -23,-5 -25,-2 -23,-3 -20,-2 -11,-3 -7,-2 -10,-3 -13,-3 -15,-2 -13,-3 -15,-2 -16,-3 -12,-2 -18,-3 -31,-7 -38,-8 -40,-10 -43,-8 -41,-7 -36,-8 z"
   id="path136"
   inkscape:connector-curvature="0"
   style="fill:#ffffff;stroke:none" />
         <path
   d="m 8814,13595 v -7 -5 -5 -5 l 13,-6 13,-10 7,-15 v -20 l 3,-8 5,-8 v -7 l -3,-8 10,-7 8,-13 5,-13 -2,-10 -5,-5 -6,-5 -7,-8 -10,-5 -11,-5 -12,-5 -13,-3 -13,-2 -5,-13 -7,-13 -5,-10 -3,-10 -5,-10 -10,-10 -13,-5 -10,-5 -10,-5 -13,-8 -15,-8 -10,-7 h -11 l -10,5 -7,12 10,16 20,15 18,18 15,12 5,8 v 3 5 7 5 l -15,8 -15,8 -15,10 -16,7 -10,11 v 12 l 8,13 23,8 -13,12 -3,16 13,10 31,5 -16,7 -7,11 5,10 10,5 18,2 h 20 18 l 10,3 8,3 10,5 10,7 z"
   id="path138"
   inkscape:connector-curvature="0"
   style="fill:#000000;stroke:none" />
         <path
   d="m 8532,14317 -2,18 v 18 l 2,15 3,8 2,10 v 7 l -5,8 -7,5 -11,3 -12,-3 -8,-8 -8,-10 -5,5 -7,8 -5,5 -3,8 -18,-18 -2,-23 2,-20 3,-16 -5,-12 -8,-18 -5,-20 -8,-23 -2,7 v 11 12 l 5,13 2,18 -2,18 -8,12 h -10 l -2,-5 -8,-10 -8,-13 -10,-12 v -16 l -10,-23 -13,-20 -10,-15 -7,-8 -16,-2 h -17 l -23,-3 -16,-5 -22,-8 -23,-12 -23,-13 -23,-13 -20,-12 -13,-8 -8,-5 h -5 l -10,2 -10,8 -10,5 h -8 l -13,3 -15,-3 h -15 l -15,-2 h -16 l -10,-3 h -5 -5 l -5,3 -5,2 -8,5 h -15 -18 -15 -18 -15 -15 -13 -13 l 11,-33 15,-33 15,-30 18,-28 v 18 l 5,10 5,5 8,2 h 7 13 l 18,3 h 20 l 18,2 h 20 l 13,3 h 7 l 16,2 23,6 22,5 13,5 5,5 5,7 3,8 5,5 8,3 17,5 21,7 25,8 25,8 21,5 15,2 h 8 l 10,-7 15,-11 15,-7 16,5 12,15 13,23 13,20 5,13 h 2 5 3 2 l -7,-13 -5,-15 -5,-15 -3,-13 v -10 l -5,-8 -2,-10 -3,-10 3,-10 7,-5 10,-3 10,3 8,10 8,13 10,10 7,5 3,-10 3,-18 2,-15 8,-8 7,3 11,7 10,10 12,11 13,12 10,13 10,10 6,8 15,20 20,26 18,25 7,20 v 18 18 18 l 8,12 -10,-10 -10,-15 -13,-18 -13,-15 -7,-13 -8,-15 -7,-13 -3,-12 -8,-13 -10,-8 h -7 v 15 l 7,28 13,31 10,28 z"
   id="path140"
   inkscape:connector-curvature="0"
   style="fill:#000000;stroke:none" />
         <path
   d="m 8847,13522 3,-8 5,-8 v -7 l -3,-8 -5,-5 -7,-2 -8,-6 -8,-2 h -10 l -10,-3 -13,3 -15,2 3,3 v 3 2 l 2,3 20,2 18,5 15,10 z"
   id="path142"
   inkscape:connector-curvature="0"
   style="fill:#ffffff;stroke:none" />
         <path
   d="m 8873,13448 -26,-10 -28,-5 h -25 l -26,2 -22,5 -18,5 -15,6 -8,2 -8,3 -7,-3 -11,-2 -10,-6 16,-7 15,-10 15,-8 15,-8 16,-2 17,-3 h 18 l 15,3 13,2 13,3 12,5 11,5 10,5 7,8 6,5 z"
   id="path144"
   inkscape:connector-curvature="0"
   style="fill:#ffffff;stroke:none" />
         <path
   d="m 8814,13573 v 5 5 5 7 l -10,-10 -10,-7 -10,-5 -8,-3 5,-8 10,-2 10,5 z"
   id="path146"
   inkscape:connector-curvature="0"
   style="fill:#ffffff;stroke:none" />
         <path
   d="m 13469,13661 30,6 18,12 v 15 l -7,11 2,43 v 61 58 33 l 8,18 20,23 18,23 8,23 v 45 82 84 45 h -191 v -45 -84 -82 -45 l 8,-23 20,-23 18,-23 7,-18 v -33 -58 -61 l 3,-43 -8,-11 v -15 l 15,-12 z"
   id="path148"
   inkscape:connector-curvature="0"
   style="fill:#000000;stroke:none" />
         <path
   d="m 13771,13954 -33,289 h -117 l -35,-289 18,-8 22,-5 26,-3 28,-2 25,2 26,3 23,5 z"
   id="path150"
   inkscape:connector-curvature="0"
   style="fill:#000000;stroke:none" />
         <path
   d="m 10425,17125 h 56 l -15,-861 -10,818 -28,8 12,-666 26,-514 56,1241 h 99 l 2,-227 8,-449 5,-445 2,-214 3,-22 10,-26 13,-25 15,-21 v -22 l 3,-26 5,-28 7,-25 11,-28 12,-26 18,-22 20,-21 5,-5 8,-2 5,-5 5,-3 h -180 -460 l 28,20 23,23 15,28 15,28 8,31 5,28 5,30 v 25 l 15,21 13,25 10,26 3,22 7,176 16,378 17,422 13,305 h -23 l -33,-2 h -43 -48 l -49,2 -40,8 -31,13 -18,20 28,15 39,8 43,2 45,-5 46,-7 38,-11 31,-7 18,-8 v 28 h 91 z"
   id="path152"
   inkscape:connector-curvature="0"
   style="fill:#000000;stroke:none" />
         <path
   d="m 13952,15420 -28,10 -23,21 -20,25 -13,33 -13,33 -7,36 -3,30 -3,25 -15,21 -10,28 -8,28 -2,18 -28,1390 h -92 l -12,-323 -21,-460 -17,-417 -8,-190 -3,-23 -7,-23 -13,-26 -15,-20 v -25 l -5,-31 -5,-28 -10,-30 -13,-31 -18,-25 -23,-26 -28,-20 z"
   id="path154"
   inkscape:connector-curvature="0"
   style="fill:#000000;stroke:none" />
         <path
   d="m 13952,15420 h -463 l -2624,48 -41,41 h -64 -622 -925 v -366 l 43,-43 h 8 23 33 38 41 38 33 20 l 38,-5 43,-13 49,-23 45,-33 44,-38 35,-48 26,-59 7,-63 v -293 h -15 v -38 h -15 v -157 h 1069 v -127 h 1065 v -43 h 69 v 83 h 2197 v 54 h -28 v 1123 z"
   id="path156"
   inkscape:connector-curvature="0"
   style="fill:#000000;stroke:none" />
         <path
   d="m 10471,15816 2,-22 10,-26 13,-25 15,-21 v -22 l 3,-26 5,-28 8,-25 10,-28 13,-26 17,-22 21,-21 h 167 l 5,-5 8,-2 5,-5 5,-3 h -180 l -28,8 -26,20 -17,28 -16,30 -12,33 -5,36 -5,30 v 26 l -16,20 -12,31 -8,28 -3,17 -10,608 z"
   id="path158"
   inkscape:connector-curvature="0"
   style="fill:#ffffff;stroke:none" />
         <path
   d="m 11027,13700 -18,58 v 86 l 8,87 10,51 v 378 18 h -5 l -2,3 -3,2 v 5 8 15 18 10 3 l 3,5 2,2 h 5 v 15 2588 l -38,5 -46,7 -45,10 -49,13 -43,15 -35,16 -28,17 -16,16 26,5 33,7 38,3 43,5 48,3 51,2 h 51 53 54 l 51,-2 h 48 l 43,-6 41,-2 35,-5 28,-5 21,-5 -11,-13 -15,-10 -20,-13 -26,-10 -30,-10 -31,-10 -33,-8 -33,-8 -7,-2 -8,-3 h -10 l -8,-2 -17,-3 -21,-2 -18,-3 -15,-2 v -2590 -13 h 5 l 5,-2 3,-5 v -3 -10 -18 -15 -8 -5 l -3,-2 -5,-3 h -5 v -18 -378 l 10,-64 8,-86 -8,-82 -30,-50 v -6 -5 -5 -5 l 15,-10 18,-10 18,-13 15,-7 8,7 7,5 5,5 3,3 h 5 l 5,-3 3,-2 5,-3 5,3 5,2 5,5 5,3 8,-5 10,-5 12,-8 13,-10 13,-10 10,-8 8,-5 7,-5 8,-25 v -23 l -8,-26 -10,-20 -18,-15 -18,-13 -20,-5 -18,5 -7,5 -10,5 -11,8 -12,5 -13,8 -10,7 -8,5 -7,5 2,5 3,3 2,5 3,5 -5,3 -3,2 -5,5 -2,3 v 10 10 10 11 l -13,7 -18,8 -15,10 -13,5 -8,-8 -10,-5 -10,-2 -13,2 -7,8 -3,10 3,10 2,10 -12,8 -28,15 -38,23 -49,28 -58,33 -61,36 -69,40 -66,39 -68,40 -69,38 -61,36 -56,33 -48,28 -38,20 -26,15 -10,8 h -15 l -18,8 -15,7 -8,8 h -5 l -7,-3 h -5 -8 l 10,-20 8,-20 v -18 l -8,-15 -2,-3 -3,-2 -5,-3 -3,-2 -15,-3 -15,3 -15,10 -11,10 -5,8 -10,12 -10,13 -10,18 -10,15 -13,15 -10,13 -8,10 h -7 l -8,3 h -8 l -5,2 -10,20 -15,31 -15,30 -8,21 5,7 8,11 10,7 15,10 15,8 18,8 18,5 20,2 15,-15 21,-25 15,-23 10,-18 v -8 -10 -10 -8 l 5,-12 8,-16 5,-17 8,-11 7,3 10,3 h 8 l 8,2 10,5 13,3 10,-3 12,-2 13,-8 10,-8 8,-7 8,-10 12,-8 28,-15 38,-23 51,-28 56,-31 61,-35 66,-38 69,-38 68,-41 66,-36 61,-35 56,-33 48,-28 41,-21 26,-15 z"
   id="path160"
   inkscape:connector-curvature="0"
   style="fill:#000000;stroke:none" />
         <path
   d="m 11075,14231 26,-49 23,-76 23,-94 15,-104 10,-102 -2,-89 -13,-71 -28,-40 -56,-21 -53,3 -54,20 -51,33 -45,38 -41,41 -33,35 -23,26 -20,23 -23,25 -28,28 -33,31 -38,28 -48,25 -54,25 -63,18 -51,10 -51,8 -51,5 -45,5 -41,5 -33,5 -20,5 -11,11 3,2 5,3 3,2 2,3 13,-5 23,-3 33,-5 38,-5 38,-5 38,-5 33,-5 23,-3 30,-5 33,-8 36,-10 36,-12 38,-16 38,-20 35,-23 36,-30 33,-33 33,-33 30,-36 31,-33 30,-33 31,-31 30,-28 33,-22 33,-18 31,-10 30,-5 31,2 25,8 21,12 15,23 8,26 5,38 v 51 56 l -5,61 -8,68 -15,71 -18,74 -26,76 z"
   id="path162"
   inkscape:connector-curvature="0"
   style="fill:#000000;stroke:none" />
         <path
   d="m 11129,17041 7,5 8,6 8,5 7,5 8,2 h 10 l 8,3 7,2 -10,-5 -7,-7 -11,-8 -10,-8 -68,-86 -51,-114 -31,-140 -15,-155 v -163 l 15,-165 26,-158 35,-147 h -20 l -36,155 -25,163 -13,167 v 163 l 16,155 30,135 46,112 z"
   id="path164"
   inkscape:connector-curvature="0"
   style="fill:#000000;stroke:none" />
         <path
   d="m 11154,17041 10,8 11,8 7,7 10,5 -7,-2 -8,-3 h -10 l -8,-2 -7,-5 -8,-5 -8,-6 -7,-5 z"
   id="path166"
   inkscape:connector-curvature="0"
   style="fill:#ffffff;stroke:none" />
         <path
   d="m 11027,14464 v -15 h 61 v 13 z"
   id="path168"
   inkscape:connector-curvature="0"
   style="fill:#ffffff;stroke:none" />
         <path
   d="m 11027,14378 v -18 h 61 v 18 z"
   id="path170"
   inkscape:connector-curvature="0"
   style="fill:#ffffff;stroke:none" />
         <path
   d="m 8626,15959 18,20 10,26 3,25 -5,28 -11,20 -12,15 -18,11 -23,5 h -36 -48 -58 -59 -58 -46 -33 -13 v 452 h 28 v 64 l 18,10 26,12 25,18 28,23 23,23 20,25 15,28 5,28 18,26 13,35 8,33 5,31 2,15 5,20 5,23 10,23 13,26 15,22 18,21 23,18 v 5 l -2,2 v 5 l -3,5 h 8 l 15,-2 18,7 15,16 2,28 -10,15 -20,10 -23,5 -25,-2 -18,-11 -15,-15 -13,-20 -31,-15 -25,-31 -23,-43 -15,-51 -15,-51 -13,-48 -8,-41 -7,-25 -8,-18 -13,-18 -15,-17 -18,-16 -17,-15 -21,-13 -18,-10 -15,-10 -2,5 -3,8 -5,7 v 8 l 13,53 5,94 2,97 v 63 l 5,31 11,23 12,13 16,7 v 28 l -11,18 -12,13 -16,5 h -17 l -18,-5 -15,-8 -11,-10 -7,15 -15,8 -21,5 -25,2 -23,-7 -15,-18 -8,-23 v -23 l 33,-28 10,-58 -2,-64 -5,-46 -3,-40 v -59 l 5,-61 10,-45 -43,7 -33,18 -25,25 -18,33 -13,39 -10,40 -5,43 -2,41 -3,23 -3,20 -2,18 -5,18 -8,20 -7,21 -8,15 -13,15 -12,15 -16,13 -17,13 -21,10 -2,8 -3,7 -8,5 -7,3 h -13 -18 -23 -17 l -16,-8 -5,-18 3,-23 13,-20 25,-2 20,-8 21,-13 15,-15 10,-20 10,-23 5,-26 3,-30 2,-41 8,-45 13,-49 18,-51 12,-25 13,-23 15,-23 18,-23 20,-20 23,-18 26,-18 28,-12 v -74 h 33 v -450 h -410 l -12,-10 -8,-13 -5,-15 -2,-15 v -15 l 2,-16 5,-15 8,-13 -10,-35 -3,-31 3,-28 12,-22 18,-21 26,-15 30,-13 36,-10 38,-8 40,-5 44,-5 45,-2 51,-3 h 51 51 53 28 36 l 40,-2 h 43 46 46 l 48,2 43,5 41,8 38,10 31,13 25,15 18,20 5,23 -3,31 z"
   id="path172"
   inkscape:connector-curvature="0"
   style="fill:#000000;stroke:none" />
         <path
   d="m 8626,15959 18,20 10,26 3,25 -5,28 h -8 -10 -13 l -8,2 v -10 l 3,-10 5,-8 13,-2 2,-10 v -10 l -5,-5 -12,-6 h -21 -23 l -17,-2 -8,-5 2,-3 6,-2 5,-3 h 5 v -5 l 2,-5 v -3 -2 h 15 l 18,-3 13,-2 z"
   id="path174"
   inkscape:connector-curvature="0"
   style="fill:#ffffff;stroke:none" />
         <path
   d="m 7658,15949 v -26 l 3,-20 10,-20 15,-16 18,-15 23,-10 28,-10 28,-8 -11,5 -15,5 -13,8 -12,10 -13,10 -10,10 -10,13 -5,13 10,-8 13,-7 12,-6 13,-7 10,-3 13,-5 h 10 l 8,-2 h 7 10 11 12 13 13 l 12,2 h 13 l 15,5 23,10 31,11 40,12 43,10 51,8 54,3 58,-3 36,10 40,10 46,8 48,5 44,5 38,5 30,3 15,2 11,8 -3,8 -10,10 -18,2 h -13 -17 -21 -23 l -25,3 h -23 -20 -15 l 12,13 8,25 v 28 l -5,25 h -10 -21 l -30,3 h -38 -44 l -48,2 h -51 l -50,3 h -54 l -51,3 h -48 l -46,2 h -38 -30 -21 -12 -13 l -10,-2 -13,-6 -10,-5 -10,-5 -8,-7 -7,-8 -5,-10 v -15 l 2,-16 5,-15 8,-13 h 18 33 45 51 54 48 43 28 l -18,-10 -20,-7 -21,-5 -20,-8 -23,-5 -17,-3 -18,-2 h -13 -13 -12 l -16,-3 -12,-2 h -18 l -18,-3 h -18 -17 l -23,-2 -16,-11 -2,-10 2,-12 -5,5 -5,7 -5,10 z"
   id="path176"
   inkscape:connector-curvature="0"
   style="fill:#ffffff;stroke:none" />
         <path
   d="m 8591,17174 -6,-34 -15,-10 -23,3 -15,7 v -5 -7 -10 l -2,-11 -31,-15 -25,-28 -21,-40 -15,-46 -13,-48 -10,-49 -10,-40 -5,-33 -8,-26 -15,-23 -20,-23 -23,-22 -28,-18 -25,-15 -26,-13 -25,-10 -31,48 -10,91 v 100 l 3,66 2,48 -5,51 -10,48 -18,36 -10,-8 -15,-5 h -21 l -22,2 25,-45 8,-72 v -68 l -5,-46 -3,-38 v -58 l -3,-56 v -33 l 6,-18 12,-26 18,-28 15,-25 h 46 v -41 l -46,-20 v -333 l 46,-61 v 404 h 33 v 51 h 5 5 5 l 5,3 18,10 26,12 25,18 28,23 23,23 20,25 15,28 5,28 11,56 12,61 13,56 13,38 5,13 7,15 8,15 10,16 10,12 11,13 15,10 15,5 h 8 l 15,-2 18,7 15,16 2,20 -2,13 -8,10 z"
   id="path178"
   inkscape:connector-curvature="0"
   style="fill:#ffffff;stroke:none" />
         <path
   d="m 7760,17189 -16,-8 -5,-18 3,-23 13,-20 -3,8 3,5 10,2 h 12 l 31,-7 25,-13 16,-18 12,-20 8,-23 5,-23 3,-25 2,-23 5,-38 5,-48 8,-51 8,-49 12,-25 13,-23 15,-23 18,-23 20,-20 23,-18 26,-18 28,-12 v -74 h 33 20 v -287 l 5,-8 5,-7 3,-5 2,-8 v 56 104 104 51 l -2,3 -3,5 -5,2 -3,3 v 28 48 48 21 l -43,7 -33,18 -25,25 -18,33 -13,39 -10,40 -5,43 -2,41 -3,23 -3,20 -2,18 -5,18 h -3 -5 -5 -2 l -6,15 -7,18 -13,20 -18,21 -22,20 -31,13 -38,5 -46,-3 -5,8 v 7 l 3,11 z"
   id="path180"
   inkscape:connector-curvature="0"
   style="fill:#ffffff;stroke:none" />
         <path
   d="m 8842,15473 -15,21 -15,18 -16,17 -15,18 -15,18 -15,20 -13,18 -8,23 -7,43 -3,46 v 46 l 3,35 -38,3 -44,5 -48,7 -48,8 -48,10 -41,10 -36,10 -25,11 -23,7 -25,10 -28,11 -31,7 -30,10 -28,8 -23,3 -18,2 -58,3 -54,-3 -51,-8 -43,-10 -40,-12 -31,-11 -23,-10 -15,-5 -8,-2 -12,-5 -13,-6 -15,-5 -18,-5 -13,-5 -12,-5 -8,-2 -10,-5 -13,-11 -10,-10 -10,-12 -5,-54 -10,-56 -13,-51 -8,-28 -5,-22 -8,-31 -2,-30 -3,-21 v -15 l -2,-20 -5,-26 -3,-30 -2,-51 2,-74 3,-76 10,-58 13,-59 5,-61 -5,-58 -11,-56 -15,-49 -18,-78 -15,-110 -7,-142 5,-76 15,-71 23,-61 25,-51 26,-43 22,-33 18,-21 8,-10 2,-7 3,-11 2,-7 v -8 l 8,-10 13,-20 13,-18 7,-13 5,-10 v -13 -15 l -2,-13 h 2 5 3 5 l 51,18 51,23 53,28 53,30 54,36 53,38 53,43 54,44 51,48 50,48 51,48 48,54 46,51 43,53 44,51 38,53 15,20 20,28 21,26 12,20 31,-2 40,-5 41,-11 46,-10 46,-7 43,-6 40,-2 33,2 3,6 3,7 v 5 l 2,8 3,10 2,8 3,7 v 5 l -3,23 -2,46 -5,56 -6,53 -2,16 v 12 l -3,10 v 8 l -15,3 -18,5 -17,2 -16,5 -18,5 -17,8 -16,5 -15,5 21,-2 20,-5 25,-6 23,-5 23,-5 20,-5 16,-2 h 7 l -12,48 -13,71 -8,53 18,-17 -3,17 -5,16 -2,12 -3,8 -15,-2 h -18 l -20,-3 -20,-3 h -23 l -18,-2 h -15 l -10,-3 2,8 v 8 l 3,7 2,5 8,8 5,5 5,8 2,5 8,20 15,38 18,41 10,20 10,8 11,12 10,13 12,15 13,16 10,15 5,13 6,10 5,5 7,8 10,7 13,10 13,8 18,5 h 17 l 21,-3 7,11 5,12 3,10 2,8 -33,-13 -38,-17 -40,-16 -44,-17 -43,-16 -40,-12 -36,-11 z"
   id="path182"
   inkscape:connector-curvature="0"
   style="fill:#000000;stroke:none" />
         <path
   d="m 8626,15959 15,-3 13,-2 15,-3 21,-2 23,2 10,13 -3,18 -5,15 -5,10 -8,15 -5,13 v 13 l 3,7 2,11 v 10 l 3,12 v 13 l -3,10 -2,10 -5,11 -10,17 -11,23 -10,28 -2,28 -3,61 -5,97 -5,96 -3,59 -7,35 -13,46 -13,48 -10,44 3,2 5,5 8,3 7,5 23,5 25,2 h 31 33 l 30,-2 28,-3 23,-2 15,-3 -5,8 -2,10 -3,10 -2,8 12,2 h 16 12 13 l 38,-2 36,-3 33,-7 30,-8 26,-10 18,-10 12,-16 5,-12 v -28 l 5,-56 3,-64 2,-48 3,-23 10,-33 13,-35 15,-41 15,-38 16,-38 15,-31 10,-20 15,15 18,28 20,33 18,26 3,7 2,8 3,12 2,13 13,41 15,40 13,36 8,23 7,25 13,33 10,36 5,30 5,34 13,43 15,43 13,28 13,20 12,21 10,20 6,13 5,15 5,18 7,20 13,15 13,3 23,-5 28,-11 30,-12 33,-15 28,-13 25,-13 16,-8 10,-5 15,-7 15,-8 18,-7 15,-8 16,-8 12,-5 8,-5 13,-5 h 10 l 7,3 v 10 l 11,-5 7,-8 8,-5 7,-5 -17,-74 -23,-91 -31,-102 -33,-104 -33,-97 -28,-86 -23,-61 -12,-33 -5,-23 -5,-36 -3,-40 v -36 -58 l -8,-38 -17,-31 -38,-28 -16,-10 -17,-15 -21,-16 -23,-15 -23,-18 -22,-17 -21,-18 -18,-15 -20,-16 -25,-20 -28,-18 -31,-20 -35,-20 -36,-21 -35,-20 -39,-18 -33,-13 -38,-17 -40,-16 -44,-17 -43,-16 -40,-12 -36,-11 -28,-5 -15,21 -15,18 -16,17 -15,18 -15,18 -15,20 -13,18 -8,23 -7,43 -3,46 v 46 l 3,35 -38,3 -44,5 -48,7 -48,8 -48,10 -41,10 -36,10 -25,11 -23,7 -25,10 -28,11 -31,7 -30,10 -28,8 -23,3 -18,2 36,10 40,10 46,8 48,5 44,5 38,5 30,3 15,2 h 11 10 l 12,3 h 13 10 13 8 7 15 l 18,-3 13,-2 z"
   id="path184"
   inkscape:connector-curvature="0"
   style="fill:#000000;stroke:none" />
         <path
   d="m 9498,17003 15,-2 23,-8 25,-8 26,-12 28,-10 25,-16 20,-12 15,-16 -2,-10 -5,-15 -5,-18 -5,-13 -13,8 -20,10 -23,10 -28,13 -28,13 -28,10 -23,8 -20,5 5,12 7,21 8,18 z"
   id="path186"
   inkscape:connector-curvature="0"
   style="fill:#000000;stroke:none" />
         <path
   d="m 8822,16762 2,-8 3,-10 2,-10 5,-8 -15,3 -23,2 -28,3 -30,2 h -33 -31 l -25,-2 -23,-5 -2,5 v 5 l -3,2 v 3 l -10,10 -8,13 -2,13 5,15 13,18 17,23 18,22 15,11 16,2 h 17 26 23 l 25,-2 20,-6 16,-7 10,-8 5,-7 v -8 -8 l -3,-5 -2,-10 v -15 -18 z"
   id="path188"
   inkscape:connector-curvature="0"
   style="fill:#000000;stroke:none" />
         <path
   d="m 9498,17003 15,-2 23,-8 25,-8 26,-12 28,-10 25,-16 20,-12 15,-16 13,-2 13,-3 13,3 7,2 5,5 8,8 13,10 12,10 16,8 15,8 13,5 h 15 l 12,-3 18,-2 18,-5 18,-3 15,-2 18,-3 h 13 l 7,-3 13,-2 18,-3 20,-5 23,-2 18,-3 17,-2 13,2 13,3 13,5 12,5 13,8 10,10 10,10 8,10 2,8 v 7 l -10,10 -20,13 -28,15 -33,18 -36,18 -33,15 -33,13 -28,10 -15,5 -20,5 -20,5 -23,5 -23,5 -21,6 -15,2 -12,3 2,5 3,2 v 5 5 l -21,8 -25,8 -33,5 -33,7 -33,5 -31,3 h -25 -18 l -18,-15 -15,-23 -15,-26 -13,-27 -10,-31 -3,-28 3,-28 z"
   id="path190"
   inkscape:connector-curvature="0"
   style="fill:#000000;stroke:none" />
         <path
   d="m 8621,16744 -10,10 -8,13 -2,13 5,15 13,18 17,23 18,22 15,11 16,2 h 17 26 23 l 25,-2 20,-6 16,-7 10,-8 5,-7 v -8 -8 l -3,-5 10,5 8,5 5,8 3,5 2,10 5,13 8,13 8,10 10,10 12,13 11,12 7,11 5,7 5,8 8,5 8,3 5,2 10,5 10,8 13,7 12,8 11,8 10,5 5,5 8,5 12,13 18,15 20,20 21,18 20,20 15,18 13,13 10,25 -2,26 -13,20 -18,13 -15,5 -18,5 -23,5 -25,2 -28,6 h -26 -25 l -23,-3 -20,-5 -23,-5 -20,-8 -21,-7 -20,-8 -15,-10 -13,-10 -10,-11 -10,-12 -13,-16 -15,-17 -18,-18 -15,-20 -16,-16 -12,-12 -8,-8 -8,3 -7,5 -8,5 -10,5 -15,-15 -20,-21 -21,-25 -20,-28 -18,-28 -15,-31 -8,-28 -2,-28 5,-30 15,-36 15,-30 13,-15 8,-3 10,-5 h 10 z"
   id="path192"
   inkscape:connector-curvature="0"
   style="fill:#000000;stroke:none" />
         <path
   d="m 8629,14688 -3,-15 -7,-18 -11,-23 -10,-23 -15,-30 -15,-33 -18,-33 -18,-33 -18,-28 -17,-26 -13,-20 -10,-15 -18,-21 -20,-22 -18,-21 -18,-20 -10,-10 -8,-8 -5,-7 -5,-8 -2,-8 -6,-7 -5,-8 -5,-10 -10,-20 -8,-23 -7,-18 -5,-13 -10,-7 -11,-6 -10,-2 h -10 l -10,-5 -15,-10 -18,-10 -18,-16 -20,-12 -21,-13 -15,-10 -15,-10 -13,-8 -12,-8 -13,-5 -15,-7 -13,-6 -15,-5 -18,-5 -15,-5 -18,-5 -20,-5 -23,-8 -26,-7 -23,-8 -22,-5 -18,-8 -13,-5 -8,-2 h -7 l -8,2 -2,8 -3,13 -2,12 -6,13 -2,10 51,18 51,23 53,28 53,30 54,36 53,38 53,43 54,44 51,48 50,48 51,48 48,54 46,51 43,53 44,51 z"
   id="path194"
   inkscape:connector-curvature="0"
   style="fill:#ffffff;stroke:none" />
         <path
   d="m 9020,15184 -18,17 8,-53 13,-71 12,-48 h 13 13 12 10 l -2,33 -3,48 -2,48 2,33 -15,3 -15,-3 -18,-2 z"
   id="path196"
   inkscape:connector-curvature="0"
   style="fill:#ffffff;stroke:none" />
         <path
   d="m 9025,14767 3,10 2,8 3,7 v 5 l -3,23 -2,46 -5,56 -6,53 13,-2 15,-8 16,-5 10,-5 v -23 l -5,-38 -3,-36 -5,-22 -5,-16 -10,-20 -10,-18 z"
   id="path198"
   inkscape:connector-curvature="0"
   style="fill:#ffffff;stroke:none" />
         <path
   d="m 9025,14767 -2,-8 v -5 l -3,-7 -3,-6 -33,-2 -40,2 -43,6 -46,7 -46,10 -41,11 -40,5 -31,2 -12,3 -23,2 -26,3 -28,2 -28,3 -28,2 h -20 -15 l -8,-22 -18,-21 -17,-10 -18,-8 -13,-5 -7,-7 -6,-8 -2,-10 -3,-15 -10,-23 -23,-21 -38,-15 10,13 13,13 13,10 7,7 3,28 8,38 10,36 10,18 15,5 21,10 17,8 8,7 v 8 l 2,8 3,10 8,2 h 12 16 12 l 10,-2 8,-3 10,-2 10,-5 h 8 5 13 13 17 18 20 l 18,-3 15,-2 16,-6 20,-5 23,-5 23,-7 23,-8 20,-5 18,-5 15,-3 13,-5 20,-5 23,-5 25,-8 26,-5 20,-2 h 20 z"
   id="path200"
   inkscape:connector-curvature="0"
   style="fill:#ffffff;stroke:none" />
         <path
   d="m 7668,15405 -2,-51 2,-74 3,-76 10,-58 13,-59 5,-61 -5,-58 -11,-56 18,48 13,51 3,46 -3,45 -10,51 -15,89 -13,94 z"
   id="path202"
   inkscape:connector-curvature="0"
   style="fill:#ffffff;stroke:none" />
         <path
   d="m 8817,15247 15,69 13,66 5,56 -8,35 -15,21 -15,18 -16,17 -15,18 18,-28 15,-28 13,-28 5,-30 -3,-43 -2,-56 -5,-54 z"
   id="path204"
   inkscape:connector-curvature="0"
   style="fill:#ffffff;stroke:none" />
         <path
   d="m 8001,14208 38,23 38,28 38,33 39,35 35,41 31,43 25,46 20,48 -23,-38 -30,-41 -36,-45 -38,-46 -38,-41 -38,-38 -33,-30 z"
   id="path206"
   inkscape:connector-curvature="0"
   style="fill:#ffffff;stroke:none" />
         <path
   d="m 8875,16764 h -13 -12 -16 l -12,-2 2,-8 3,-10 2,-10 5,-8 18,-2 23,-3 23,-2 28,-3 23,-2 23,-3 17,-3 11,-2 -18,8 -20,7 -21,8 -18,7 -17,8 -16,8 -10,7 z"
   id="path208"
   inkscape:connector-curvature="0"
   style="fill:#ffffff;stroke:none" />
         <path
   d="m 8695,16132 5,-11 2,-10 3,-10 v -13 l 8,-12 7,-16 5,-15 v -15 l 8,-5 10,-5 10,-8 8,-2 -10,28 -21,38 -20,35 z"
   id="path210"
   inkscape:connector-curvature="0"
   style="fill:#ffffff;stroke:none" />
         <path
   d="m 9261,16383 -2,-13 -3,-12 -2,-8 -3,-7 15,10 13,15 8,13 5,15 -8,-3 -7,-2 -8,-5 z"
   id="path212"
   inkscape:connector-curvature="0"
   style="fill:#ffffff;stroke:none" />
         <path
   d="m 9180,16241 -10,20 -15,31 -16,38 -15,38 -15,41 -13,35 -10,33 -3,23 -7,-28 -5,-33 -3,-35 5,-34 3,13 5,15 2,18 6,13 12,-51 21,-58 25,-66 28,-69 28,-64 25,-55 23,-46 18,-28 -8,25 -12,31 -16,38 -12,38 -16,38 -12,36 -8,25 z"
   id="path214"
   inkscape:connector-curvature="0"
   style="fill:#ffffff;stroke:none" />
         <path
   d="m 9617,16012 v 36 l 3,40 5,36 5,23 -21,-61 -17,-59 -13,-43 2,-20 11,2 12,13 8,18 z"
   id="path216"
   inkscape:connector-curvature="0"
   style="fill:#ffffff;stroke:none" />
         <path
   d="m 8781,15547 15,-18 16,-17 15,-18 15,-21 28,5 36,11 40,12 43,16 44,17 40,16 38,17 33,13 21,13 30,20 31,26 33,33 28,38 18,43 7,48 -10,54 -5,-41 -13,-38 -23,-36 -30,-35 -33,-31 -41,-30 -43,-26 -46,-25 -45,-18 -46,-18 -43,-12 -41,-8 -38,-5 h -31 l -25,5 z"
   id="path218"
   inkscape:connector-curvature="0"
   style="fill:#ffffff;stroke:none" />
         <path
   d="m 10011,16940 -23,2 -20,5 -18,3 -13,2 -7,8 -3,5 5,3 h 10 16 l 15,-5 18,-11 z"
   id="path220"
   inkscape:connector-curvature="0"
   style="fill:#ffffff;stroke:none" />
         <path
   d="m 8875,16912 15,12 18,18 18,16 13,10 7,5 8,5 10,7 13,11 12,10 11,7 7,5 8,6 10,7 13,8 10,10 8,8 12,10 18,20 20,18 18,15 10,13 8,15 v 13 l -10,15 -13,3 -15,-8 -13,-15 -8,-13 -10,-10 -15,-8 -18,-2 -15,2 3,-7 2,-8 v -8 l 3,-5 -10,5 -16,3 -18,5 -15,3 -18,2 -15,3 -15,2 h -10 l 7,-7 11,-8 12,-8 16,-10 12,-8 13,-7 10,-5 5,-3 -5,-10 -8,-13 -12,-10 -10,-13 -13,-10 -13,-7 -10,-5 -10,-3 -20,-2 -13,-8 -8,-8 -5,-7 -2,-10 v -16 l 2,-12 z"
   id="path222"
   inkscape:connector-curvature="0"
   style="fill:#ffffff;stroke:none" />
         <path
   d="m 9770,17079 2,-17 5,-16 5,-7 8,-8 10,-5 18,-8 20,-7 15,-3 13,3 15,2 h 13 l 10,-2 8,-3 10,-2 10,-5 15,-3 13,-5 10,-5 10,-3 h 8 v 6 2 l -3,5 -2,5 -10,5 -13,10 -15,11 -18,7 -18,8 -18,5 -17,-3 -16,-7 -7,5 -10,5 -13,5 -13,8 -12,5 -13,5 -13,5 z"
   id="path224"
   inkscape:connector-curvature="0"
   style="fill:#ffffff;stroke:none" />
         <path
   d="m 9071,14924 -3,-25 -5,-28 -2,-23 -3,-12 -5,-16 -10,-20 -10,-18 -8,-15 -2,-8 v -5 l -3,-7 -3,-6 36,-5 43,-5 43,-5 49,-2 43,-3 46,3 38,5 33,10 h 10 8 l 12,2 h 10 l 13,3 10,3 13,2 13,3 15,5 13,2 15,5 10,3 10,2 10,6 h 5 l 6,2 h 10 17 16 l 10,3 2,12 -5,13 -10,8 -13,2 -15,3 h -15 -13 l -12,-3 22,15 23,21 21,18 7,12 -7,10 -18,6 -18,-3 -18,-13 -7,10 -11,3 h -10 l -10,-8 h -7 l -13,-2 -13,-3 -15,-2 -15,-3 -13,-2 h -13 l -7,-3 -13,5 -13,3 -13,2 -15,3 -15,2 -13,-2 h -12 l -11,-5 -20,15 -23,13 -23,12 -28,11 -25,5 -28,2 -25,-2 z"
   id="path226"
   inkscape:connector-curvature="0"
   style="fill:#000000;stroke:none" />
         <path
   d="m 9213,15217 h -2 -6 -2 -5 l -15,-3 -16,-2 -12,-5 -13,-8 -13,-5 -10,-8 -8,-5 -5,-2 h -5 -7 -11 -7 v -13 -13 -15 -18 l 2,-28 3,-28 v -20 l 2,-15 21,-3 h 28 33 35 33 31 l 25,3 16,2 10,-2 h 17 16 l 10,2 h 10 l 18,3 15,2 10,5 3,-7 5,-8 7,-5 11,-3 h 10 l 18,-2 h 17 l 13,2 13,3 15,5 h 18 13 12 l 10,8 3,10 -8,10 -15,8 -20,2 h -18 l -13,-5 -7,3 h -13 -13 -10 l 13,7 10,10 5,11 v 10 h -8 -12 -13 -18 -18 -17 -21 -20 -20 -21 -17 -16 -15 -10 -5 -3 l -43,43 z"
   id="path228"
   inkscape:connector-curvature="0"
   style="fill:#000000;stroke:none" />
         <path
   d="m 8466,13809 13,-10 10,-10 2,-11 3,-10 -3,-10 -5,-10 -5,-8 -7,-5 -16,-7 -17,-6 -18,-10 -13,-12 -7,-13 -11,-18 -7,-18 -5,-12 2,-13 -2,-10 -8,-5 -8,-3 -7,-18 -13,-25 -13,-26 -10,-17 -33,-21 -35,-17 -33,-11 -36,-5 -33,-2 -33,-3 -31,3 h -30 l -28,2 -28,8 -25,10 -21,13 -20,13 -15,10 -13,10 -8,5 -10,10 -10,13 -10,13 -10,10 -10,10 -13,15 -10,25 -13,36 -5,48 3,51 7,43 5,26 3,15 7,13 8,10 8,8 5,5 2,7 3,10 -3,8 v 10 l 3,13 5,15 10,15 13,5 18,8 22,5 23,8 26,7 23,8 20,5 18,5 15,5 18,5 15,5 13,6 15,7 13,5 12,8 13,8 10,7 13,8 15,10 15,10 18,13 15,10 16,10 12,8 26,-5 23,-8 20,-10 18,-10 15,-16 15,-15 13,-15 10,-18 h 10 l 10,-2 h 11 10 l 15,-3 18,-10 12,-13 3,-23 -3,-12 -7,-8 -5,-5 -5,-8 -3,-10 3,-13 7,-12 8,-10 2,-3 v -3 -5 l -2,-5 -3,-5 -7,-7 -10,-5 -13,-3 5,-3 3,-5 2,-2 3,-3 5,-7 5,-8 2,-8 3,-7 v -8 -7 l -8,-8 z"
   id="path230"
   inkscape:connector-curvature="0"
   style="fill:#000000;stroke:none" />
         <path
   d="m 9292,14853 v -12 l 5,-16 5,-12 5,-8 h 8 l 7,3 8,5 5,5 -3,7 -5,11 -2,10 v 10 l -8,-3 h -7 -11 z"
   id="path232"
   inkscape:connector-curvature="0"
   style="fill:#ffffff;stroke:none" />
         <path
   d="m 8456,13880 5,-3 3,-5 2,-2 3,-3 5,-7 5,-8 2,-8 3,-7 v -8 -7 l -8,-8 -10,-5 h -2 -3 -3 -2 l 5,7 8,11 2,10 v 5 l -7,5 -13,13 -10,10 -3,7 3,3 h 7 5 z"
   id="path234"
   inkscape:connector-curvature="0"
   style="fill:#ffffff;stroke:none" />
         <path
   d="m 7920,13555 10,-8 13,-8 10,-7 13,-8 12,-5 13,-5 10,-2 10,-3 15,-3 18,-2 23,-3 23,-2 h 25 l 23,2 23,8 23,8 18,10 20,12 23,16 23,18 20,17 21,18 15,13 10,12 8,-7 7,-5 8,-8 7,-5 -30,-33 -31,-28 -33,-23 -30,-18 -31,-12 -33,-8 -30,-8 -31,-2 -30,2 -28,3 -31,5 -27,8 -26,10 -25,10 -26,10 -23,13 6,2 5,6 5,5 z"
   id="path236"
   inkscape:connector-curvature="0"
   style="fill:#ffffff;stroke:none" />
         <path
   d="m 8489,13916 2,-3 v -3 -5 l -2,-5 -13,-5 -15,-2 h -18 -15 l -10,-5 -3,-11 3,-10 7,-10 5,-10 6,-13 2,-15 v -10 l -5,-3 -3,-2 -5,2 -5,3 3,-5 -3,-5 -2,-8 v -8 l 2,-15 10,-2 13,5 13,10 13,8 10,-3 10,-8 5,-10 -3,-10 -5,-10 -5,-8 -7,-5 -16,-7 -17,-6 -18,-10 -13,-12 -7,-13 -11,-18 -7,-18 -5,-12 -5,10 -8,5 -5,5 -5,2 -3,8 -2,8 -8,7 -5,3 3,5 v 8 l 2,5 v 7 l 10,-10 16,-10 15,-8 15,-2 -15,10 -13,10 -8,10 -5,10 8,6 3,7 v 10 l -3,5 -8,3 h -12 -13 l -5,5 5,8 5,7 8,3 10,5 10,8 10,7 10,13 5,10 5,13 6,20 2,20 -2,13 -3,8 v 7 l 5,5 5,3 5,2 5,8 5,8 v 7 l -2,11 -5,10 v 10 7 l 5,8 7,8 11,7 2,11 -2,10 -3,12 -10,13 -13,5 8,-2 h 7 8 8 l 18,-8 10,-13 v -15 l -5,-18 -11,-12 -5,-13 -2,-10 5,-13 8,-10 10,-8 7,-5 z"
   id="path238"
   inkscape:connector-curvature="0"
   style="fill:#ffffff;stroke:none" />
         <path
   d="m 9437,14752 -13,-3 -13,-2 -10,-3 -13,-3 h -10 l -12,-2 h -8 -10 l -33,-10 -38,-5 -46,-3 -43,3 -49,2 -43,5 -43,5 -36,5 3,6 3,7 v 5 l 2,8 18,-5 20,-5 20,-5 21,-5 18,-6 15,-2 13,-3 h 7 10 13 l 13,-2 10,-3 15,-2 18,-3 15,3 15,5 13,5 15,5 h 16 12 l 16,-3 10,-2 10,5 18,8 10,5 15,5 15,10 18,10 18,10 18,8 12,10 11,5 -11,-13 -12,-17 -16,-21 z"
   id="path240"
   inkscape:connector-curvature="0"
   style="fill:#ffffff;stroke:none" />
         <path
   d="m 9373,14810 h 10 10 11 l 5,3 12,5 23,12 23,11 15,5 8,2 8,8 2,7 -5,8 -8,3 h -5 l -5,-3 h -5 v -5 l -2,-5 -3,-8 -7,-5 -11,-7 -15,-5 -13,-8 -12,-5 -10,-5 -8,-3 -10,-5 z"
   id="path242"
   inkscape:connector-curvature="0"
   style="fill:#ffffff;stroke:none" />
         <path
   d="m 9213,15217 v -74 l 43,-43 h 3 5 10 15 16 17 21 20 -15 l -16,-3 h -17 l -18,-2 h -15 l -16,-3 h -10 -5 l -10,8 -15,15 -15,18 -11,10 -2,15 v 26 23 10 h 5 2 6 z"
   id="path244"
   inkscape:connector-curvature="0"
   style="fill:#ffffff;stroke:none" />
         <path
   d="m 9358,15031 -10,-2 h -16 -17 l -10,2 7,3 10,5 16,7 15,6 13,7 15,5 12,5 8,3 -8,-8 -10,-10 -12,-13 z"
   id="path246"
   inkscape:connector-curvature="0"
   style="fill:#ffffff;stroke:none" />
         <path
   d="m 9106,15179 h -5 -7 -11 -7 v -13 -13 -15 -18 l 5,15 5,18 8,13 z"
   id="path248"
   inkscape:connector-curvature="0"
   style="fill:#ffffff;stroke:none" />
         <path
   d="m 8410,13728 13,5 13,5 10,7 7,10 h -7 -10 -8 -5 v -7 l -3,-8 -5,-7 z"
   id="path250"
   inkscape:connector-curvature="0"
   style="fill:#000000;stroke:none" />
         <path
   d="m 8283,14152 -2,20 -8,26 -8,23 -5,15 18,2 8,10 10,13 13,18 7,5 10,10 13,13 8,10 12,13 18,20 20,26 23,22 16,18 12,18 10,15 11,15 15,23 18,26 15,28 8,15 12,15 15,18 16,20 15,21 15,17 13,18 10,13 8,10 -3,-15 -2,-20 -8,-21 -8,-23 -17,-35 -18,-33 -21,-33 -17,-31 -18,-28 -18,-23 -15,-20 -10,-15 -18,-21 -20,-22 -18,-21 -18,-20 -10,-10 -10,-13 -8,-10 -5,-8 -3,-5 -2,-5 -3,-8 -5,-7 v -28 l -7,-20 -13,-16 -10,-10 -10,-7 -11,-6 -10,-2 z"
   id="path252"
   inkscape:connector-curvature="0"
   style="fill:#000000;stroke:none" />
         <path
   d="m 12132,12500 h -20 l -10,-2 -3,-6 6,-5 -11,3 -10,2 -10,3 -5,3 h 8 l 5,5 v 2 l -5,5 15,-2 18,-5 15,-3 h 7 l 23,5 23,8 21,12 22,16 18,15 18,13 13,10 10,7 7,6 8,5 10,7 10,8 13,10 15,8 16,10 17,7 13,6 13,5 15,5 13,5 15,5 15,2 15,3 18,3 5,-3 5,-3 h 3 v -2 l 8,2 h 10 l 10,3 h 8 l 5,5 2,3 5,5 3,7 7,-2 h 11 10 l 7,2 8,8 10,10 10,10 13,10 h -10 -10 -8 -5 -8 -15 -18 l -12,-2 -8,7 -10,3 h -10 l -5,-3 -3,3 v 3 2 h -2 -6 -7 -10 l -5,-2 -3,-3 v -8 -7 -5 h -5 -8 -10 -5 l -2,-3 v -5 -5 -5 l -39,-5 -38,-13 -40,-18 -38,-20 -33,-20 -31,-21 -28,-15 -18,-13 -15,-7 h -18 -15 l -18,7 -15,8 -15,13 -10,15 -8,18 h 3 l 5,2 2,3 3,2 v 5 3 5 l -3,5 h -5 -5 -5 -5 v 5 l -3,8 v 5 l -2,8 5,5 7,7 8,5 8,8 -5,25 -11,51 -10,49 -5,22 -2,5 h -5 -6 -2 l -3,-2 -2,-8 -3,-5 -2,-7 h 2 3 2 3 v -5 -8 -8 -10 h 5 5 l 5,-2 h 5 v -16 l 5,-23 3,-20 v -15 -8 l -5,-5 -5,-2 h -8 l -10,53 -23,104 -23,104 -13,61 3,3 v 5 l 3,3 2,2 h 3 5 l 2,-2 3,-3 5,-15 8,-36 7,-35 5,-23 -2,-10 -5,-8 -5,-5 -3,-5 5,-3 8,-2 10,2 h 7 l -2,28 -10,48 -8,49 -5,23 -5,5 -10,5 -13,7 -5,5 h -3 -5 -5 -5 v 6 l -2,10 -5,10 v 10 l 5,-8 7,-10 10,-7 h 11 l -5,7 -6,10 -5,16 -5,10 h -10 -15 l -10,2 -8,13 3,15 10,5 10,3 h 8 v 5 8 10 7 h 2 5 5 5 v -2 l 3,-5 2,-3 3,-5 -3,26 -7,33 -10,33 -5,17 -3,-7 v -10 -18 -18 -10 h -5 -8 -5 -5 l -2,13 -3,17 -2,18 v 13 h 7 10 l 8,2 h 8 l -3,13 v 13 l -2,18 -3,17 -10,-17 v -13 l -5,-10 -8,-8 h -7 l -6,43 11,8 5,-20 h 10 l 10,17 -15,102 -21,109 -15,102 -13,66 -2,54 -8,61 -10,55 -10,36 -43,97 -56,61 -61,25 -61,-3 -56,-33 -48,-58 -28,-84 -8,-104 -2,-33 -5,-46 -11,-56 -12,-61 -18,-58 -18,-54 -23,-40 -23,-23 h -25 l -18,-5 -15,-3 -8,-7 -5,-13 8,-18 18,-18 28,-20 33,-20 38,-21 40,-20 41,-15 41,-16 35,-10 33,-5 h 26 l 15,5 5,13 -5,20 -23,31 8,33 10,43 10,51 8,53 2,38 3,41 v 36 l -3,35 38,-63 21,-59 10,-48 2,-31 -7,-2 -3,-5 -2,-5 v -8 -10 l 2,-10 3,-10 5,-3 5,3 h 5 3 2 l 3,-16 2,-17 5,-16 3,-10 -5,-2 h -3 -5 l -5,-3 -3,8 -2,10 -5,10 v 8 h -3 l -2,-3 h -3 -2 l 5,-23 7,-30 8,-28 8,-10 5,2 7,3 5,2 h 3 l 2,-5 3,-5 5,-5 3,-3 h 5 l 5,3 h 7 3 l 3,-5 v -5 -5 -3 h -3 l -3,-2 -2,-3 -3,-2 -10,7 -13,-2 -10,-8 -2,-13 5,-12 7,-8 h 11 l 12,5 3,-10 2,-10 6,-8 5,-5 -5,-5 -6,-3 -5,-5 -5,-2 -5,7 -5,11 -2,10 -3,7 -3,-17 v -18 -15 l 6,-5 10,-6 18,-12 17,-13 10,-10 h -5 l 3,-8 v -12 -11 -7 l -5,5 -5,5 -5,2 h -5 v 11 l -3,12 -5,10 v 8 h -8 l 3,-15 v -18 l 2,-15 v -8 l 11,-5 12,-8 10,-5 8,-5 v -10 l -2,-13 -3,-12 v -8 l 8,-5 10,-10 7,-8 5,-5 3,-20 8,-23 5,-23 7,-10 h 5 8 3 l 2,-3 3,-7 2,-13 5,-15 3,-13 -8,5 -5,13 -5,15 -2,18 h -8 l 2,-25 11,-41 7,-38 5,-23 3,2 2,5 3,3 2,5 3,-13 5,-15 3,-10 v -8 h 10 l 5,-25 5,-33 8,-31 2,-17 h -8 l -5,-3 -5,-2 v -6 h -7 l -8,-2 -5,-3 h -3 l 3,-7 h 18 l 2,-10 28,2 10,-58 21,-44 25,-27 36,-16 h 38 l 43,8 51,23 51,30 25,26 -2,10 -16,-3 -7,-7 -3,-5 -5,-5 -5,-3 -8,8 -5,-5 -2,-3 -5,-5 -5,-3 2,-5 v -2 -5 l 3,-3 -11,-5 -12,-5 -13,-5 -13,-5 -15,-5 -15,-3 -13,-2 z"
   id="path254"
   inkscape:connector-curvature="0"
   style="fill:#000000;stroke:none" />
         <path
   d="m 11678,13529 -8,-53 -10,-51 -10,-43 -8,-33 23,-31 5,-20 -5,-13 -15,-5 h -26 l -33,5 -35,10 -41,16 -41,15 -40,20 -38,21 -33,20 -28,20 -18,18 -8,18 5,13 h 5 8 5 5 l -2,-13 2,-10 8,-10 7,-6 v 3 h 3 v 3 l 3,2 25,-20 30,-21 31,-20 33,-18 33,-15 30,-13 31,-7 25,-3 -2,10 v 13 13 10 l -3,2 h -5 l -2,3 -5,3 12,25 16,33 12,36 15,38 13,38 13,33 8,28 2,18 3,-18 2,-23 3,-23 z"
   id="path256"
   inkscape:connector-curvature="0"
   style="fill:#ffffff;stroke:none" />
         <path
   d="m 11510,13384 10,-5 18,-2 15,-5 10,-3 21,56 12,64 8,56 3,35 -6,13 -2,13 -5,15 -3,12 -5,-35 -7,-38 -11,-36 -12,-38 -13,-33 -13,-30 -10,-23 z"
   id="path258"
   inkscape:connector-curvature="0"
   style="fill:#ffffff;stroke:none" />
         <path
   d="m 12376,12647 -17,-7 -16,-10 -15,-8 -13,-10 -10,-8 -10,-7 -8,-5 -7,-6 -10,-7 -13,-10 -18,-13 -18,-15 -22,-16 -21,-12 -23,-8 -23,-5 h -7 l -15,3 -18,5 -15,2 -18,8 -15,13 -11,20 -2,30 15,-22 18,-16 20,-10 21,-5 17,-3 18,3 18,5 13,8 12,10 18,13 25,20 26,20 30,18 28,18 28,13 23,7 3,-2 5,-5 5,-3 z"
   id="path260"
   inkscape:connector-curvature="0"
   style="fill:#ffffff;stroke:none" />
         <path
   d="m 12270,17024 23,-16 17,-15 13,-10 5,-10 33,5 41,2 46,3 50,2 h 49 45 l 41,-2 33,-3 8,46 -3,53 -10,56 -23,46 h -13 -17 -23 -23 -26 -22 -18 -13 l -8,-5 -7,-8 -5,-5 -5,-5 -31,8 -30,8 -31,7 -30,5 -31,5 -30,5 -31,3 h -28 l -30,2 -28,-2 h -28 l -28,-3 -25,-2 -26,-5 -25,-5 -23,-8 -13,-20 8,-23 20,-18 20,-10 h 8 l 8,-3 h 10 l 13,-2 12,-3 13,-2 h 13 l 12,-3 18,-5 15,-2 13,-6 8,-2 5,-3 7,-5 11,-5 10,-7 12,-8 16,-8 12,-10 z"
   id="path262"
   inkscape:connector-curvature="0"
   style="fill:#000000;stroke:none" />
         <path
   d="m 13205,16960 30,8 36,5 38,5 35,2 h 36 36 l 30,-2 26,-3 10,31 5,38 2,38 -2,28 7,8 3,12 -3,18 v 13 l -12,5 -18,5 -20,5 -26,5 -25,5 -28,3 h -28 -28 v -5 -5 -3 -5 l -31,8 -40,5 -46,2 h -51 -53 l -46,-5 -41,-7 -30,-13 8,-15 7,-16 13,-10 13,-10 17,-5 16,-5 h 20 18 l 5,-5 7,-8 6,-8 5,-5 17,-17 21,-18 15,-13 13,-8 10,-7 10,-15 8,-18 z"
   id="path264"
   inkscape:connector-curvature="0"
   style="fill:#000000;stroke:none" />
         <path
   d="m 12066,14419 -12,48 -8,56 -2,51 -3,35 -5,33 -10,51 -13,66 -15,74 -18,74 -15,68 -13,59 -10,38 -13,63 -5,66 -5,69 v 56 l 8,94 17,147 21,145 12,82 8,58 8,86 10,84 13,51 7,15 10,21 11,20 7,20 10,23 11,26 10,25 10,28 28,76 28,79 28,79 25,74 23,66 18,56 15,43 8,25 20,56 10,61 8,58 v 44 h 5 l 5,2 h 8 l 7,3 33,5 41,2 46,3 50,2 h 49 45 l 41,-2 33,-3 5,-2 h 3 5 l 2,-3 3,-30 v -38 -33 l -3,-18 -5,-10 -7,-10 -8,-11 -3,-10 v -5 l -2,-8 v -12 l -3,-15 -5,-39 -2,-40 -3,-38 -2,-31 -8,-53 -13,-76 -17,-69 -13,-43 -10,-36 -16,-56 -15,-61 -10,-46 -8,-20 -12,-25 -16,-31 -17,-30 -18,-33 -15,-31 -11,-28 -5,-25 5,-125 11,-221 12,-231 16,-150 28,64 33,78 40,94 38,97 38,94 33,84 26,71 13,46 10,35 12,36 18,35 21,36 20,36 23,33 20,30 20,28 16,23 17,25 16,28 15,31 13,25 10,26 13,23 10,25 10,23 7,20 8,21 5,17 13,41 15,61 20,76 21,84 23,84 22,76 21,64 18,38 7,2 10,5 11,3 10,5 30,8 36,5 38,5 35,2 h 36 36 l 30,-2 26,-3 7,-2 8,-3 h 5 l 5,-2 8,-18 5,-20 2,-18 8,-18 -3,-3 -5,-2 -2,-5 -3,-3 10,-76 3,-89 -5,-86 -10,-69 -8,-69 -5,-86 -15,-91 -31,-84 -25,-49 -33,-63 -36,-74 -38,-76 -36,-74 -33,-63 -25,-49 -18,-28 -2,-81 -11,-89 -20,-94 -23,-89 -25,-84 -23,-68 -18,-54 -7,-30 -3,-43 -5,-69 -3,-81 -5,-79 -2,-23 v -23 -18 -12 l -46,-5 h -51 l -61,2 -63,5 -69,5 -71,3 h -74 l -73,-8 -77,-10 -71,-20 -68,-31 -66,-38 -61,-53 -54,-66 -45,-84 z"
   id="path266"
   inkscape:connector-curvature="0"
   style="fill:#000000;stroke:none" />
         <path
   d="m 12110,14127 -21,86 -17,81 -8,71 2,54 11,33 12,33 13,28 13,28 12,28 16,23 15,22 18,23 40,44 44,35 45,31 49,25 50,18 51,15 54,10 53,5 53,5 h 54 50 l 54,-2 48,-3 48,-2 44,-3 43,-2 h 15 13 12 13 13 l 10,2 h 13 l 10,3 v 12 18 23 l 2,23 13,-3 h 15 18 18 5 2 6 l 2,3 3,-18 v -20 -20 -18 h 7 10 8 l 10,-3 18,-2 15,-5 16,-3 7,-3 8,-129 -13,-173 -18,-165 -18,-112 -7,-53 -8,-71 -2,-79 2,-84 5,-86 13,-82 18,-74 25,-61 31,-58 30,-69 31,-73 28,-77 22,-73 18,-69 10,-58 v -46 l 31,-92 15,-78 5,-69 -5,-56 -18,-58 -30,-43 -38,-31 -43,-20 -46,-10 -46,-6 -41,3 -38,8 -12,2 -18,5 -20,5 -21,5 -20,6 -20,7 -18,8 -13,10 -18,15 -23,23 -30,25 -31,31 -38,33 -38,38 -40,38 -41,43 -53,56 -54,59 -51,58 -48,59 -43,58 -36,59 -30,53 -23,53 h -13 l -15,3 -18,-3 h -18 -17 -18 l -13,3 -10,2 -13,8 -17,10 -28,13 -28,13 -28,15 -28,13 -21,10 -15,7 -10,8 -8,10 -5,13 -5,15 -2,26 2,27 3,28 5,23 -3,13 v 10 l -2,10 -3,10 v 18 16 10 l 3,10 7,18 11,25 10,25 7,16 10,5 11,5 10,5 10,3 -3,15 v 18 22 l -2,21 h 5 3 5 5 l -13,30 -15,49 -21,58 z"
   id="path268"
   inkscape:connector-curvature="0"
   style="fill:#000000;stroke:none" />
         <path
   d="m 12127,17092 18,-5 15,-2 13,-6 8,-2 5,-3 7,-5 11,-5 10,-7 12,-8 16,-8 12,-10 16,-7 10,2 -3,8 -7,10 -16,15 -20,15 -18,13 -20,8 -15,5 v 10 8 l -5,7 -5,5 -5,3 -11,2 h -10 -13 -12 -15 l -13,-2 -13,-3 13,-7 15,-13 13,-10 z"
   id="path270"
   inkscape:connector-curvature="0"
   style="fill:#ffffff;stroke:none" />
         <path
   d="m 13083,17100 5,-5 7,-8 6,-8 5,-5 17,8 23,5 21,5 10,8 -18,2 -18,5 -13,6 h -7 l -8,-3 -10,-3 -10,-5 z"
   id="path272"
   inkscape:connector-curvature="0"
   style="fill:#ffffff;stroke:none" />
         <path
   d="m 12653,16775 3,15 v 12 l 2,8 v 5 l -15,-20 -15,-20 -10,-21 -5,-18 10,11 13,10 10,7 z"
   id="path274"
   inkscape:connector-curvature="0"
   style="fill:#ffffff;stroke:none" />
         <path
   d="m 12938,16241 -15,-31 -16,-28 -17,-25 -16,-23 -20,-28 -20,-30 -23,-33 -20,-36 -21,-36 -18,-35 -12,-36 -10,-35 -13,-46 -26,-71 -33,-84 -38,-94 -38,-97 -40,-94 -33,-78 -28,-64 -8,-25 -10,-28 -15,-36 -16,-35 -17,-34 -18,-33 -16,-28 -12,-22 -3,-31 -2,-38 -5,-33 -5,-25 30,63 46,104 61,135 63,150 64,145 53,129 41,97 18,51 5,25 10,31 10,33 13,35 12,38 13,31 13,30 13,21 43,66 43,63 38,59 38,56 31,51 22,45 16,36 7,28 -12,-21 -13,-20 -15,-20 -16,-21 -15,-17 -15,-21 -15,-15 z"
   id="path276"
   inkscape:connector-curvature="0"
   style="fill:#ffffff;stroke:none" />
         <path
   d="m 12092,16251 -10,-28 -10,-25 -11,-26 -10,-23 -7,-20 -11,-20 -10,-21 -7,-15 -13,-51 -10,-84 -8,-86 -8,-58 -12,-82 -21,-145 -17,-147 -8,-94 v -56 l 5,-69 5,-66 13,-63 10,-38 13,-59 15,-68 18,-74 15,-74 13,-66 10,-51 5,-33 3,-23 2,-33 3,-40 5,-38 10,56 8,76 2,76 -8,48 -7,-7 -8,-5 -5,5 -5,12 -15,94 -13,110 -15,117 -10,122 -11,116 -5,107 v 94 l 5,71 18,122 16,115 10,86 5,43 2,31 5,43 8,51 13,41 10,22 15,39 18,43 23,51 18,48 17,43 13,36 8,20 -10,-15 -11,-18 -12,-20 -13,-21 -10,-20 -13,-20 -8,-21 z"
   id="path278"
   inkscape:connector-curvature="0"
   style="fill:#ffffff;stroke:none" />
         <path
   d="m 12750,12952 41,-43 40,-38 38,-38 38,-33 31,-31 30,-25 23,-23 18,-15 -25,8 -31,15 -30,18 -31,17 -28,21 -25,17 -20,13 -16,8 3,13 5,12 2,13 3,10 -5,-8 -8,-7 -5,-8 -2,-5 -8,10 -5,8 -3,10 -2,8 h -8 l -12,-3 h -11 l -12,-2 h -11 l -12,-3 h -8 -7 l 10,20 15,23 15,23 z"
   id="path280"
   inkscape:connector-curvature="0"
   style="fill:#ffffff;stroke:none" />
         <path
   d="m 12176,14637 -18,-23 -15,-22 -16,-23 -12,-28 -13,-28 -13,-28 -12,-33 -11,-33 -2,-54 8,-71 17,-81 21,-86 -3,86 3,86 10,79 15,71 13,66 15,54 10,40 z"
   id="path282"
   inkscape:connector-curvature="0"
   style="fill:#ffffff;stroke:none" />
         <path
   d="m 12084,13547 5,-15 5,-13 8,-10 10,-8 15,-7 21,-10 28,-13 28,-15 28,-13 28,-13 17,-10 13,-8 10,-2 13,-3 h 18 17 18 l 18,3 15,-3 h 13 l 20,-10 23,-15 28,-18 28,-18 25,-15 26,-15 15,-10 10,-3 16,-5 15,-8 18,-10 10,-10 5,-2 h 13 l 15,2 h 18 l 17,5 21,3 15,5 15,5 -18,5 -20,8 -23,7 -23,5 -23,8 -20,5 -15,5 -13,3 -25,10 -26,12 -25,16 -23,18 -23,15 -20,12 -15,11 -13,2 h -10 -10 l -11,3 h -10 l -10,2 -8,3 -10,5 -7,2 -13,6 -13,10 -10,7 -10,10 -8,8 -10,8 -7,5 -8,2 h -10 -13 l -15,3 h -18 l -18,2 -15,3 -15,5 -13,3 -13,5 -10,5 -13,5 -10,5 -12,5 -11,3 -7,2 z"
   id="path284"
   inkscape:connector-curvature="0"
   style="fill:#ffffff;stroke:none" />
         <path
   d="m 12176,13926 h -5 -5 -3 -5 l 2,-21 v -22 -18 l 3,-15 -10,-3 -10,-5 -11,-5 -10,-5 -7,-16 -10,-25 -11,-25 -7,-18 -3,-10 v -10 -16 -18 l 10,34 13,35 10,28 10,13 11,2 17,3 26,2 28,3 30,2 26,3 h 20 l 10,-3 15,-5 18,-2 h 18 20 21 l 17,2 16,3 h 15 l -23,5 -28,5 -36,5 -35,5 -36,5 -30,3 -28,2 h -18 l -10,16 -10,20 -5,20 z"
   id="path286"
   inkscape:connector-curvature="0"
   style="fill:#ffffff;stroke:none" />
         <path
   d="m 13405,13110 31,-92 15,-78 5,-69 -5,-56 -2,46 -5,46 -8,43 -10,43 -13,43 -15,43 -18,46 -20,46 12,-18 13,-15 10,-15 z"
   id="path288"
   inkscape:connector-curvature="0"
   style="fill:#ffffff;stroke:none" />
         <path
   d="m 13212,12670 -23,5 -20,8 -20,8 -18,10 -18,10 -15,10 -15,13 -10,10 -11,13 -7,15 -10,15 -11,15 -12,16 -10,15 -8,10 -10,8 -8,7 -12,11 -11,12 -12,16 -13,15 -13,12 -10,13 -8,10 -7,13 -10,23 -13,25 -15,26 -13,28 -13,25 -10,23 -7,13 -11,12 -10,13 -13,13 -12,13 -10,15 -11,15 -5,18 v 20 l 21,3 17,2 18,3 13,2 -5,-10 -3,-10 -5,-10 -5,-8 13,-7 15,-13 18,-13 18,-15 15,-15 15,-16 10,-12 3,-10 2,-18 11,-26 10,-23 10,-17 8,-13 7,-15 13,-21 13,-22 15,-23 15,-23 15,-23 18,-18 26,-28 20,-33 15,-28 8,-15 2,-8 5,-10 8,-13 13,-15 12,-15 18,-15 20,-13 z"
   id="path290"
   inkscape:connector-curvature="0"
   style="fill:#ffffff;stroke:none" />
         <path
   d="m 13317,13252 -36,51 -38,56 -46,56 -46,56 -50,56 -54,53 -56,48 -58,44 76,-36 71,-51 66,-63 59,-69 51,-66 35,-61 20,-46 z"
   id="path292"
   inkscape:connector-curvature="0"
   style="fill:#ffffff;stroke:none" />
         <path
   d="m 13111,14818 h -18 -15 -13 -10 l -10,-3 h -13 l -10,-2 h -13 -13 -12 -13 -15 l 43,-8 48,-8 46,-5 43,-5 h 33 l 20,3 3,10 -18,15 -10,3 h -8 -10 -7 v 18 20 20 l -3,18 -2,-3 h -6 -2 -5 l 2,-17 v -18 -15 -11 l -2,-2 -5,-3 -3,-5 z"
   id="path294"
   inkscape:connector-curvature="0"
   style="fill:#ffffff;stroke:none" />
         <path
   d="m 12158,13926 2,-21 v -22 -18 l 3,-15 -10,-3 -10,-5 -11,-5 -10,-5 -7,-16 -10,-25 -11,-25 -7,-18 -13,-5 -18,-8 -20,-7 -20,-8 -23,-8 -21,-2 -15,-3 h -13 l -17,8 -18,5 -15,8 -11,7 -2,54 -8,61 -10,55 -10,36 10,-3 10,-5 13,-2 8,-5 -8,10 -5,13 -3,10 -2,7 v 8 l -3,5 v 8 l -2,5 -3,18 8,12 13,3 12,-13 3,-10 2,-10 5,-10 v -11 l 11,-5 10,-5 7,-5 5,-5 18,-5 21,-10 17,-10 13,-13 15,8 18,5 20,5 18,5 18,2 15,3 h 15 l 13,-3 5,-2 3,-3 2,-5 z"
   id="path296"
   inkscape:connector-curvature="0"
   style="fill:#000000;stroke:none" />
         <path
   d="m 12600,12736 3,8 5,8 5,7 2,3 3,7 5,11 5,12 5,5 8,5 12,6 13,5 15,7 13,8 13,2 15,3 h 15 13 l 13,-3 10,-2 10,-3 h 5 l 3,5 2,8 3,5 2,5 5,8 8,7 5,8 -3,-10 -2,-13 -5,-12 -3,-13 16,-8 20,-13 25,-17 28,-21 31,-17 30,-18 31,-15 25,-8 13,-10 18,-8 20,-7 20,-6 21,-5 20,-5 18,-5 12,-2 -7,-5 -10,-8 -13,-8 -8,-10 5,-23 3,-30 2,-26 v -17 l 11,-26 7,-23 5,-23 3,-22 2,-28 v -26 l -5,-23 -2,-23 -5,-20 -11,-18 -12,-17 -13,-21 -15,-15 -15,-15 -16,-16 -12,-12 -11,-8 -15,-8 -20,-7 -23,-8 -25,-5 -28,-2 -26,-3 -28,3 -30,2 -33,5 -36,10 -33,11 -33,12 -25,13 -21,18 -10,18 -10,7 -10,8 -8,7 -5,8 -5,13 -5,18 -8,17 -5,16 -5,17 -5,21 -5,23 -7,17 -8,16 -5,17 v 21 l 7,15 3,5 3,5 -3,8 -3,5 -10,13 -12,22 -13,23 -5,21 v 15 l 5,13 7,10 8,2 h 10 l 13,3 h 13 l 10,2 -8,21 v 18 l 5,17 16,21 2,2 5,3 3,5 2,2 h -5 -5 -5 z"
   id="path298"
   inkscape:connector-curvature="0"
   style="fill:#000000;stroke:none" />
         <path
   d="m 12603,12719 -16,-21 -5,-17 v -18 l 8,-21 h 10 l 8,-5 5,-7 5,-5 10,5 8,5 5,5 2,7 -2,6 h -5 -3 l -5,-3 -3,-3 h -2 -3 -2 v 11 l -3,7 -5,5 -2,5 -3,8 v 13 l -2,12 z"
   id="path300"
   inkscape:connector-curvature="0"
   style="fill:#ffffff;stroke:none" />
         <path
   d="m 12681,12820 -15,-7 -13,-5 -12,-6 -8,-5 -5,-5 -5,-12 -5,-11 -3,-7 -2,-3 -5,-7 -5,-8 -3,-8 v -5 h 5 5 5 l 5,3 5,2 5,5 6,3 h 7 l 8,3 h 5 l 2,5 v 10 l 6,23 7,20 z"
   id="path302"
   inkscape:connector-curvature="0"
   style="fill:#ffffff;stroke:none" />
         <path
   d="m 12564,12495 -7,-15 v -21 l 5,-17 8,-16 7,-17 5,-23 5,-21 5,-17 5,-16 8,-17 5,-18 5,-13 5,-8 8,-7 10,-8 10,-7 10,-6 16,-5 17,-7 18,-8 18,-5 15,-5 13,-5 h 10 l -2,5 -3,8 -2,5 v 5 l -11,2 -15,5 -18,5 -17,8 -18,8 -18,10 -10,13 -8,12 -5,28 -5,31 -3,25 -2,18 -3,15 -7,10 -5,8 -3,15 3,8 7,7 10,6 11,5 -3,7 v 5 5 l 3,6 -11,-6 -10,-2 -10,-3 -7,3 -8,5 h -5 l -8,-5 -7,-8 -3,5 v 3 l -2,2 z"
   id="path304"
   inkscape:connector-curvature="0"
   style="fill:#ffffff;stroke:none" />
         <path
   d="m 13149,12437 2,-28 v -26 l -5,-23 -2,-23 -13,-12 -18,-21 -12,-20 -11,-15 -2,18 5,17 8,18 12,21 13,22 10,21 10,25 z"
   id="path306"
   inkscape:connector-curvature="0"
   style="fill:#ffffff;stroke:none" />
         <path
   d="m 12610,12592 v -23 l -5,-23 -10,-23 -18,-15 8,5 7,2 h 8 5 5 l 3,3 2,7 -2,11 7,-3 h 8 2 l 3,5 -3,3 h -2 -5 l -3,-3 5,8 5,10 6,8 5,2 h 5 l 5,-2 h 2 l 3,2 -3,8 v 5 7 6 7 5 8 5 l -2,5 -5,5 -5,3 -5,2 -6,-7 -10,-11 -7,-12 z"
   id="path308"
   inkscape:connector-curvature="0"
   style="fill:#ffffff;stroke:none" />
         <path
   d="m 12084,13694 3,-10 2,-10 v -10 l 3,-13 -5,-23 -3,-28 -2,-27 2,-26 5,-15 5,-13 8,-10 10,-8 -15,-2 -20,-5 -21,-5 -20,-5 -20,-6 -18,-5 -15,-5 -8,-2 -13,-8 -12,-7 -16,-6 -12,-2 h -13 -18 -28 l -28,2 -30,3 -26,5 -23,3 -15,5 -10,10 -10,15 -13,15 -7,13 2,3 v 0 l 3,2 v 0 l -5,3 -3,5 -3,2 v 5 l 3,5 3,11 v 10 l 2,13 v 5 l 3,2 v 3 l 2,2 -7,8 -8,10 -8,8 -2,10 2,2 v 5 3 l 3,5 2,10 3,8 5,5 h 3 l 10,-5 12,-10 13,-11 8,-2 h 7 l 11,2 h 12 15 l 13,3 h 13 l 10,3 h 5 l 8,5 5,5 v 7 l -8,5 -15,8 -15,8 -13,7 -8,5 -7,3 -10,5 -13,3 -8,5 -7,5 -13,10 -8,13 3,12 5,5 10,3 13,-3 13,-2 15,-3 12,-5 13,-7 8,-5 10,-3 13,-3 12,-5 11,-2 10,-3 10,-2 7,-3 6,-2 7,-3 h 10 l 13,-2 15,-3 16,-3 15,-2 12,-3 h 8 8 l 10,3 13,2 12,3 16,3 h 12 l 16,-3 z"
   id="path310"
   inkscape:connector-curvature="0"
   style="fill:#ffffff;stroke:none" />
         <path
   d="m 12092,13651 -3,13 v 10 l -2,10 -3,10 -12,3 -16,3 h -12 l -16,-3 -12,-3 -13,-2 -10,-3 h -8 -8 l -12,3 -15,2 -16,3 -15,3 -13,2 h -10 l -7,3 -6,2 -7,3 -10,2 -10,3 -11,2 -12,5 -13,3 -10,3 -8,5 -13,7 -12,5 -15,3 -13,2 -13,3 -10,-3 -5,-5 15,-5 15,-7 13,-5 13,-6 12,-5 13,-5 13,-5 13,-5 12,-5 18,-5 15,-5 10,-8 6,-10 10,-10 10,-8 h 10 l 10,3 h 8 7 l 8,-3 h 8 l 15,-2 h 20 23 23 20 18 z"
   id="path312"
   inkscape:connector-curvature="0"
   style="fill:#000000;stroke:none" />
         <path
   d="m 11835,13661 8,-5 v -7 l -5,-5 -8,-5 h -5 l -10,-3 h -13 l -13,-3 h -15 -12 l -11,-2 h -7 l -8,2 -13,11 -12,10 -10,5 h -3 l -5,-5 -3,-8 -2,-10 7,-10 13,-10 13,-10 h 5 l 2,2 v 3 l 3,2 h 3 5 10 13 12 15 16 10 8 l 10,-2 h 12 13 10 8 l 10,-5 8,-6 5,-5 10,-2 20,-3 18,-2 h 13 l 7,2 10,5 11,3 10,2 h -13 l -20,3 h -21 l -25,3 -20,2 -21,3 h -15 l -7,2 2,8 5,5 13,5 15,2 -10,16 -8,7 -15,3 z"
   id="path314"
   inkscape:connector-curvature="0"
   style="fill:#000000;stroke:none" />
         <path
   d="m 11708,13585 -2,-2 v -3 l -3,-2 v -5 l 8,-3 10,-3 10,-5 13,-2 10,-3 10,-5 8,-2 7,-3 5,-2 11,-3 10,-3 h 12 13 l 15,3 13,5 10,8 h 5 l 8,-5 5,-5 3,-6 h 7 13 l 18,6 20,7 h -15 l -13,3 -8,2 h -7 -8 l -7,-2 h -11 -10 l -18,2 -12,3 -10,5 -11,2 -15,3 h -18 -15 -13 l -10,-3 h -12 l -13,6 z"
   id="path316"
   inkscape:connector-curvature="0"
   style="fill:#000000;stroke:none" />
         <path
   d="m 11856,13476 -8,8 -10,10 -10,10 -8,5 -5,-3 -8,-2 h -12 -13 l -15,2 -13,3 -15,3 -11,2 8,-5 8,-5 5,-8 7,-2 h 6 l 12,-3 13,-2 15,-3 18,-2 15,-3 13,-3 z"
   id="path318"
   inkscape:connector-curvature="0"
   style="fill:#000000;stroke:none" />
        </g>
       </g>
      </g>
     </g>
    </g>
   </g>
  </g>
 </g>
</svg>