<?xml version="1.0" encoding="UTF-8" standalone="no"?>
<svg
   xmlns:ooo="http://xml.openoffice.org/svg/export"
   xmlns:dc="http://purl.org/dc/elements/1.1/"
   xmlns:cc="http://creativecommons.org/ns#"
   xmlns:rdf="http://www.w3.org/1999/02/22-rdf-syntax-ns#"
   xmlns:svg="http://www.w3.org/2000/svg"
   xmlns="http://www.w3.org/2000/svg"
   xmlns:sodipodi="http://sodipodi.sourceforge.net/DTD/sodipodi-0.dtd"
   xmlns:inkscape="http://www.inkscape.org/namespaces/inkscape"
   version="1.2"
   width="48.060001mm"
   height="37.59mm"
   viewBox="0 0 4806.0001 3759"
   preserveAspectRatio="xMidYMid"
   xml:space="preserve"
   id="svg115"
   sodipodi:docname="k.svg"
   style="fill-rule:evenodd;stroke-width:28.22200012;stroke-linejoin:round"
   inkscape:version="0.92.5 (2060ec1f9f, 2020-04-08)"><metadata
   id="metadata119"><rdf:RDF><cc:Work
       rdf:about=""><dc:format>image/svg+xml</dc:format><dc:type
         rdf:resource="http://purl.org/dc/dcmitype/StillImage" /></cc:Work></rdf:RDF></metadata><sodipodi:namedview
   pagecolor="#ffffff"
   bordercolor="#666666"
   borderopacity="1"
   objecttolerance="10"
   gridtolerance="10"
   guidetolerance="10"
   inkscape:pageopacity="0"
   inkscape:pageshadow="2"
   inkscape:window-width="664"
   inkscape:window-height="487"
   id="namedview117"
   showgrid="false"
   inkscape:zoom="0.2102413"
   inkscape:cx="90.822048"
   inkscape:cy="71.017321"
   inkscape:window-x="0"
   inkscape:window-y="0"
   inkscape:window-maximized="0"
   inkscape:current-layer="svg115" />
 <defs
   class="ClipPathGroup"
   id="defs8">
  <clipPath
   id="presentation_clip_path"
   clipPathUnits="userSpaceOnUse">
   <rect
   x="0"
   y="0"
   width="21000"
   height="29700"
   id="rect2" />
  </clipPath>
  <clipPath
   id="presentation_clip_path_shrink"
   clipPathUnits="userSpaceOnUse">
   <rect
   x="21"
   y="29"
   width="20958"
   height="29641"
   id="rect5" />
  </clipPath>
 </defs>
 <defs
   class="TextShapeIndex"
   id="defs12">
  <g
   ooo:slide="id1"
   ooo:id-list="id3"
   id="g10" />
 </defs>
 <defs
   class="EmbeddedBulletChars"
   id="defs44">
  <g
   id="bullet-char-template-57356"
   transform="matrix(4.8828125e-4,0,0,-4.8828125e-4,0,0)">
   <path
   d="M 580,1141 1163,571 580,0 -4,571 Z"
   id="path14"
   inkscape:connector-curvature="0" />
  </g>
  <g
   id="bullet-char-template-57354"
   transform="matrix(4.8828125e-4,0,0,-4.8828125e-4,0,0)">
   <path
   d="M 8,1128 H 1137 V 0 H 8 Z"
   id="path17"
   inkscape:connector-curvature="0" />
  </g>
  <g
   id="bullet-char-template-10146"
   transform="matrix(4.8828125e-4,0,0,-4.8828125e-4,0,0)">
   <path
   d="M 174,0 602,739 174,1481 1456,739 Z M 1358,739 309,1346 659,739 Z"
   id="path20"
   inkscape:connector-curvature="0" />
  </g>
  <g
   id="bullet-char-template-10132"
   transform="matrix(4.8828125e-4,0,0,-4.8828125e-4,0,0)">
   <path
   d="M 2015,739 1276,0 H 717 l 543,543 H 174 v 393 h 1086 l -543,545 h 557 z"
   id="path23"
   inkscape:connector-curvature="0" />
  </g>
  <g
   id="bullet-char-template-10007"
   transform="matrix(4.8828125e-4,0,0,-4.8828125e-4,0,0)">
   <path
   d="m 0,-2 c -7,16 -16,29 -25,39 l 381,530 c -94,256 -141,385 -141,387 0,25 13,38 40,38 9,0 21,-2 34,-5 21,4 42,12 65,25 l 27,-13 111,-251 280,301 64,-25 24,25 c 21,-10 41,-24 62,-43 C 886,937 835,863 770,784 769,783 710,716 594,584 L 774,223 c 0,-27 -21,-55 -63,-84 l 16,-20 C 717,90 699,76 672,76 641,76 570,178 457,381 L 164,-76 c -22,-34 -53,-51 -92,-51 -42,0 -63,17 -64,51 -7,9 -10,24 -10,44 0,9 1,19 2,30 z"
   id="path26"
   inkscape:connector-curvature="0" />
  </g>
  <g
   id="bullet-char-template-10004"
   transform="matrix(4.8828125e-4,0,0,-4.8828125e-4,0,0)">
   <path
   d="M 285,-33 C 182,-33 111,30 74,156 52,228 41,333 41,471 c 0,78 14,145 41,201 34,71 87,106 158,106 53,0 88,-31 106,-94 l 23,-176 c 8,-64 28,-97 59,-98 l 735,706 c 11,11 33,17 66,17 42,0 63,-15 63,-46 V 965 c 0,-36 -10,-64 -30,-84 L 442,47 C 390,-6 338,-33 285,-33 Z"
   id="path29"
   inkscape:connector-curvature="0" />
  </g>
  <g
   id="bullet-char-template-9679"
   transform="matrix(4.8828125e-4,0,0,-4.8828125e-4,0,0)">
   <path
   d="M 813,0 C 632,0 489,54 383,161 276,268 223,411 223,592 c 0,181 53,324 160,431 106,107 249,161 430,161 179,0 323,-54 432,-161 108,-107 162,-251 162,-431 0,-180 -54,-324 -162,-431 C 1136,54 992,0 813,0 Z"
   id="path32"
   inkscape:connector-curvature="0" />
  </g>
  <g
   id="bullet-char-template-8226"
   transform="matrix(4.8828125e-4,0,0,-4.8828125e-4,0,0)">
   <path
   d="m 346,457 c -73,0 -137,26 -191,78 -54,51 -81,114 -81,188 0,73 27,136 81,188 54,52 118,78 191,78 73,0 134,-26 185,-79 51,-51 77,-114 77,-187 0,-75 -25,-137 -76,-188 -50,-52 -112,-78 -186,-78 z"
   id="path35"
   inkscape:connector-curvature="0" />
  </g>
  <g
   id="bullet-char-template-8211"
   transform="matrix(4.8828125e-4,0,0,-4.8828125e-4,0,0)">
   <path
   d="M -4,459 H 1135 V 606 H -4 Z"
   id="path38"
   inkscape:connector-curvature="0" />
  </g>
  <g
   id="bullet-char-template-61548"
   transform="matrix(4.8828125e-4,0,0,-4.8828125e-4,0,0)">
   <path
   d="m 173,740 c 0,163 58,303 173,419 116,115 255,173 419,173 163,0 302,-58 418,-173 116,-116 174,-256 174,-419 0,-163 -58,-303 -174,-418 C 1067,206 928,148 765,148 601,148 462,206 346,322 231,437 173,577 173,740 Z"
   id="path41"
   inkscape:connector-curvature="0" />
  </g>
 </defs>
 <g
   id="g49"
   transform="translate(-8097,-12970)">
  <g
   id="id2"
   class="Master_Slide">
   <g
   id="bg-id2"
   class="Background" />
   <g
   id="bo-id2"
   class="BackgroundObjects" />
  </g>
 </g>
 <g
   class="SlideGroup"
   id="g113"
   transform="translate(-8097,-12970)">
  <g
   id="g111">
   <g
   id="container-id1">
    <g
   id="id1"
   class="Slide"
   clip-path="url(#presentation_clip_path)">
     <g
   class="Page"
   id="g107">
      <g
   class="Graphic"
   id="g105">
       <g
   id="id3">
        <rect
   class="BoundingBox"
   x="8097"
   y="12970"
   width="4806"
   height="3759"
   id="rect51"
   style="fill:none;stroke:none" />
        <defs
   id="defs56">
         <clipPath
   id="clip_path_1"
   clipPathUnits="userSpaceOnUse">
          <path
   d="m 8097,12970 h 4805 v 3758 H 8097 Z"
   id="path53"
   inkscape:connector-curvature="0" />
         </clipPath>
        </defs>
        <g
   clip-path="url(#clip_path_1)"
   id="g102">
         <path
   d="m 10084,12970 -12,15 -33,43 -49,61 -61,69 -66,71 -66,64 -61,51 -53,25 -168,41 -160,38 -155,35 -147,33 -138,31 -132,28 -122,25 -109,26 -102,20 -89,18 -78,15 -67,13 -50,10 -39,8 -22,2 -8,3 8,5 20,15 30,25 41,36 48,43 54,54 58,61 61,71 61,81 59,87 58,96 54,104 45,112 41,120 28,127 18,132 15,279 -3,242 -15,201 -23,162 -25,127 -26,89 -17,51 -8,18 10,-3 26,-5 40,-7 56,-10 69,-13 79,-10 86,-13 97,-10 101,-8 104,-5 110,-2 112,2 109,8 109,12 104,21 102,25 33,15 48,26 64,38 74,46 81,53 89,59 94,61 91,63 94,64 87,61 81,56 74,48 61,43 46,33 30,20 10,8 13,-5 30,-20 51,-28 66,-36 79,-43 89,-48 94,-54 99,-53 99,-56 97,-53 94,-51 86,-49 74,-40 64,-36 45,-25 26,-16 23,-12 35,-23 43,-28 54,-33 58,-36 61,-40 66,-44 66,-43 67,-40 61,-41 58,-36 51,-33 43,-28 33,-23 20,-12 8,-5 -356,-249 -7,-5 -26,-18 -35,-26 -51,-33 -59,-40 -66,-44 -74,-48 -76,-48 -81,-51 -79,-48 -79,-46 -73,-41 -69,-35 -64,-28 -53,-18 -41,-10 -96,-5 -92,-3 -86,3 -79,7 -71,10 -66,11 -61,12 -53,16 -49,12 -40,16 -33,15 -28,10 -23,13 -15,7 -11,5 -2,3 10,-102 18,-249 12,-310 -12,-292 -15,-81 -31,-87 -41,-86 -50,-89 -59,-89 -63,-89 -67,-87 -68,-81 -66,-76 -66,-71 -61,-64 -54,-53 -45,-46 -36,-33 -23,-20 z"
   id="path58"
   inkscape:connector-curvature="0"
   style="fill:#000000;stroke:none" />
         <path
   d="m 10067,13082 7,5 21,10 33,20 43,28 51,33 58,44 61,50 66,56 64,66 66,74 61,79 56,86 51,94 43,102 30,109 21,117 23,333 v 298 l -8,216 -5,81 5,-3 20,-5 28,-10 38,-10 46,-13 56,-12 58,-13 66,-13 69,-10 71,-10 71,-5 74,-3 71,3 69,7 69,16 61,20 83,38 92,43 91,51 97,53 99,56 97,59 94,61 91,58 87,56 81,54 71,48 61,43 51,33 38,28 25,18 8,5 -8,5 -17,15 -31,23 -40,31 -51,38 -59,43 -66,46 -74,51 -78,55 -82,54 -86,56 -89,56 -89,53 -91,51 -89,46 -87,43 -84,38 -81,41 -76,35 -71,38 -67,36 -63,33 -56,30 -53,31 -46,25 -41,26 -35,20 -31,18 -23,13 -18,12 -10,5 -2,3 -8,-5 -20,-18 -33,-25 -46,-33 -53,-41 -64,-46 -71,-51 -74,-56 -81,-55 -84,-56 -84,-56 -86,-56 -87,-54 -81,-48 -81,-43 -74,-36 -102,-38 -104,-30 -107,-18 -109,-13 -109,-2 -107,2 -104,5 -99,13 -94,13 -87,15 -76,18 -66,15 -53,13 -41,12 -25,8 -8,3 5,-31 18,-81 20,-127 26,-160 17,-186 16,-198 v -201 l -13,-198 -18,-97 -25,-96 -36,-100 -43,-99 -48,-94 -51,-94 -54,-89 -56,-86 -55,-76 -51,-74 -49,-64 -43,-53 -38,-43 -28,-33 -18,-21 -5,-7 13,-3 33,-7 53,-13 72,-15 83,-18 94,-23 105,-23 109,-23 114,-25 112,-26 112,-22 107,-21 99,-20 89,-18 76,-13 61,-10 51,-10 51,-18 51,-20 45,-25 49,-28 43,-31 40,-33 39,-33 35,-30 31,-31 28,-28 22,-25 18,-21 16,-17 7,-11 z"
   id="path60"
   inkscape:connector-curvature="0"
   style="fill:#ffffff;stroke:none" />
         <path
   d="m 10067,13082 7,5 21,10 33,20 43,28 51,33 58,44 61,50 66,56 64,66 66,74 61,79 56,86 51,94 43,102 30,109 21,117 23,333 v 298 l -8,216 -5,81 5,-3 20,-5 28,-10 38,-10 46,-13 56,-12 58,-13 66,-13 69,-10 71,-10 71,-5 74,-3 71,3 69,7 69,16 61,20 83,38 92,43 91,51 97,53 99,56 97,59 94,61 91,58 87,56 81,54 71,48 61,43 51,33 38,28 25,18 8,5 -8,5 -17,15 -31,23 -40,31 -51,38 -59,43 -66,46 -74,51 -78,55 -82,54 -86,56 -89,56 -89,53 -91,51 -89,46 -87,43 -84,38 -81,41 -76,35 -71,38 -67,36 -63,33 -56,30 -53,31 -46,25 -41,26 -35,20 -31,18 -23,13 -18,12 -10,5 -2,3 -8,-5 -20,-18 -33,-25 -46,-33 -53,-41 -64,-46 -71,-51 -74,-56 -81,-55 -84,-56 -84,-56 -86,-56 -87,-54 -81,-48 -81,-43 -74,-36 -102,-38 -104,-30 -107,-18 -109,-13 -109,-2 -107,2 -104,5 -99,13 -94,13 -87,15 -76,18 -66,15 -53,13 -41,12 -25,8 -8,3 5,-31 18,-81 20,-127 26,-160 17,-186 16,-198 v -201 l -13,-198 -18,-97 -25,-96 -36,-100 -43,-99 -48,-94 -51,-94 -54,-89 -56,-86 -55,-76 -51,-74 -49,-64 -43,-53 -38,-43 -28,-33 -18,-21 -5,-7 13,-3 33,-7 53,-13 72,-15 83,-18 94,-23 105,-23 109,-23 114,-25 112,-26 112,-22 107,-21 99,-20 89,-18 76,-13 61,-10 51,-10 51,-18 51,-20 45,-25 49,-28 43,-31 40,-33 39,-33 35,-30 31,-31 28,-28 22,-25 18,-21 16,-17 7,-11 z"
   id="path62"
   inkscape:connector-curvature="0"
   style="fill:#e5e5e5;stroke:none" />
         <path
   d="m 10067,13082 v 0 l 7,5 21,10 33,20 43,28 51,33 58,44 61,50 66,56 64,66 66,74 61,79 56,86 51,94 43,102 30,109 21,117 v 0 l 23,333 v 298 l -8,216 -5,81 v 0 l 5,-3 20,-5 28,-10 38,-10 46,-13 56,-12 58,-13 66,-13 69,-10 71,-10 71,-5 74,-3 71,3 69,7 69,16 61,20 v 0 l 83,38 92,43 91,51 97,53 99,56 97,59 94,61 91,58 87,56 81,54 71,48 61,43 51,33 38,28 25,18 8,5 v 0 l -8,5 -17,15 -31,23 -40,31 -51,38 -59,43 -66,46 -74,51 -78,55 -82,54 -86,56 -89,56 -89,53 -91,51 -89,46 -87,43 v 0 l -84,38 -81,41 -76,35 -71,38 -67,36 -63,33 -56,30 -53,31 -46,25 -41,26 -35,20 -31,18 -23,13 -18,12 -10,5 -2,3 v 0 l -8,-5 -20,-18 -33,-25 -46,-33 -53,-41 -64,-46 -71,-51 -74,-56 -81,-55 -84,-56 -84,-56 -86,-56 -87,-54 -81,-48 -81,-43 -74,-36 v 0 l -102,-38 -104,-30 -107,-18 -109,-13 -109,-2 -107,2 -104,5 -99,13 -94,13 -87,15 -76,18 -66,15 -53,13 -41,12 -25,8 -8,3 v 0 l 5,-31 18,-81 20,-127 26,-160 17,-186 16,-198 v -201 l -13,-198 v 0 l -18,-97 -25,-96 -36,-100 -43,-99 -48,-94 -51,-94 -54,-89 -56,-86 -55,-76 -51,-74 -49,-64 -43,-53 -38,-43 -28,-33 -18,-21 -5,-7 v 0 l 13,-3 33,-7 53,-13 72,-15 83,-18 94,-23 105,-23 109,-23 114,-25 112,-26 112,-22 107,-21 99,-20 89,-18 76,-13 61,-10 v 0 l 51,-10 51,-18 51,-20 45,-25 49,-28 43,-31 40,-33 39,-33 35,-30 31,-31 28,-28 22,-25 18,-21 16,-17 7,-11 z"
   id="path64"
   inkscape:connector-curvature="0"
   style="fill:none;stroke:#000000" />
         <path
   d="m 10809,14983 5,-3 20,-5 28,-10 38,-10 46,-13 56,-12 58,-13 66,-13 69,-10 71,-10 71,-5 74,-3 71,3 69,7 69,16 61,20 83,38 92,43 91,51 97,53 99,56 97,59 94,61 91,58 87,56 81,54 71,48 61,43 51,33 38,28 25,18 8,5 -8,5 -17,15 -31,23 -40,31 -51,38 -59,43 -66,46 -74,51 -78,55 -82,54 -86,56 -89,56 -89,53 -91,51 -89,46 -87,43 -84,38 -81,41 -76,35 -71,38 -67,36 -63,33 -56,30 -53,31 -46,25 -41,26 -35,20 -31,18 -23,13 -18,12 -10,5 -2,3 -8,-5 -20,-18 -33,-25 -46,-33 -53,-41 -64,-46 -71,-51 -74,-56 -81,-55 -84,-56 -84,-56 -86,-56 -87,-54 -81,-48 -81,-43 -74,-36 -102,-38 -104,-30 -107,-18 -109,-13 -109,-2 -107,2 -104,5 -99,13 -94,13 -87,15 -76,18 -66,15 -53,13 -41,12 -25,8 -8,3 z"
   id="path66"
   inkscape:connector-curvature="0"
   style="fill:#e5e5e5;stroke:none" />
         <path
   d="m 10809,14983 5,-3 20,-5 28,-10 38,-10 46,-13 56,-12 58,-13 66,-13 69,-10 71,-10 71,-5 74,-3 71,3 69,7 69,16 61,20 -1655,1095 -102,-38 -104,-30 -107,-18 -109,-13 -109,-2 -107,2 -104,5 -99,13 -94,13 -87,15 -76,18 -66,15 -53,13 -41,12 -25,8 -8,3 z"
   id="path68"
   inkscape:connector-curvature="0"
   style="fill:#b2b2b2;stroke:none" />
         <path
   d="m 11681,14922 25,10 30,15 36,21 38,20 41,23 46,25 45,28 46,28 48,28 46,28 46,28 46,26 40,25 38,23 33,20 31,18 h -10 l -26,-3 -40,-2 h -54 -63 l -76,2 -82,5 -89,6 -94,10 -96,12 -100,18 -99,21 -96,25 -92,30 -89,36 -81,43 -81,56 -74,61 -64,69 -55,68 -49,74 -40,74 -36,74 -28,71 -23,66 -20,63 -13,59 -10,51 -8,40 -5,31 -2,18 v 7 l -28,-18 -31,-20 -35,-23 -38,-23 -41,-28 -43,-25 -44,-28 -45,-25 -43,-28 -44,-26 -43,-25 -38,-21 -36,-22 -33,-18 -30,-15 -23,-11 -43,-25 -28,-28 -15,-33 -5,-36 5,-38 17,-40 26,-44 35,-45 44,-49 53,-48 56,-48 63,-51 72,-51 73,-51 77,-48 81,-51 84,-48 86,-46 87,-46 86,-43 86,-41 84,-38 84,-33 81,-30 77,-28 73,-23 69,-20 64,-13 55,-8 51,-5 43,3 z"
   id="path70"
   inkscape:connector-curvature="0"
   style="fill:#cccccc;stroke:none" />
         <path
   d="m 10809,14983 v 0 l 5,-3 20,-5 28,-10 38,-10 46,-13 56,-12 58,-13 66,-13 69,-10 71,-10 71,-5 74,-3 71,3 69,7 69,16 61,20 v 0 l 83,38 92,43 91,51 97,53 99,56 97,59 94,61 91,58 87,56 81,54 71,48 61,43 51,33 38,28 25,18 8,5 v 0 l -8,5 -17,15 -31,23 -40,31 -51,38 -59,43 -66,46 -74,51 -78,55 -82,54 -86,56 -89,56 -89,53 -91,51 -89,46 -87,43 v 0 l -84,38 -81,41 -76,35 -71,38 -67,36 -63,33 -56,30 -53,31 -46,25 -41,26 -35,20 -31,18 -23,13 -18,12 -10,5 -2,3 v 0 l -8,-5 -20,-18 -33,-25 -46,-33 -53,-41 -64,-46 -71,-51 -74,-56 -81,-55 -84,-56 -84,-56 -86,-56 -87,-54 -81,-48 -81,-43 -74,-36 v 0 l -102,-38 -104,-30 -107,-18 -109,-13 -109,-2 -107,2 -104,5 -99,13 -94,13 -87,15 -76,18 -66,15 -53,13 -41,12 -25,8 -8,3 z"
   id="path72"
   inkscape:connector-curvature="0"
   style="fill:none;stroke:#000000" />
         <path
   d="m 8188,16477 552,-266 10,-6 28,-12 43,-21 56,-25 69,-31 76,-33 81,-35 84,-38 84,-38 82,-36 78,-33 71,-31 61,-25 49,-20 35,-13 18,-5 23,-5 46,-18 68,-25 84,-33 99,-41 110,-43 114,-49 119,-48 117,-48 115,-48 106,-44 95,-40 81,-33 61,-26 38,-18 15,-5 636,-221 111,54 56,-99 346,-156 422,34 28,48 -338,330 -303,79 -122,-13 -45,79 -1546,547 -1359,457 -435,132 h -234 z"
   id="path74"
   inkscape:connector-curvature="0"
   style="fill:#000000;stroke:none" />
         <path
   d="m 12316,15110 -15,15 -21,18 -23,18 -25,20 -23,21 -18,15 -12,10 -5,5 -293,76 -5,-2 -12,-5 -16,-8 -18,-5 -30,-5 -31,-3 -33,5 -28,8 -25,8 -20,7 -13,5 -5,3 -48,-127 5,-3 15,-5 20,-7 26,-11 28,-15 25,-15 26,-20 20,-21 13,-12 10,-16 7,-12 3,-6 272,-127 h 5 15 23 28 31 30 l 33,3 28,2 h 28 36 40 l 38,-2 38,-3 31,-2 20,-3 h 8 l 2,16 -345,129 -3,-2 -2,-3 -5,-2 -5,-3 h -8 l -5,8 -5,7 v 8 l 2,10 10,8 8,2 10,-2 5,-5 v -8 -5 -3 l 349,-129 5,15 -8,5 -18,15 -28,21 -33,25 -33,28 -30,25 -28,21 z"
   id="path76"
   inkscape:connector-curvature="0"
   style="fill:#e5e5e5;stroke:none" />
         <path
   d="m 12316,15110 v 0 l -15,15 -21,18 -23,18 -25,20 -23,21 -18,15 -12,10 -5,5 -293,76 v 0 l -5,-2 -12,-5 -16,-8 -18,-5 v 0 l -30,-5 -31,-3 -33,5 -28,8 -25,8 -20,7 -13,5 -5,3 -48,-127 v 0 l 5,-3 15,-5 20,-7 26,-11 28,-15 25,-15 26,-20 20,-21 v 0 l 13,-12 10,-16 7,-12 3,-6 272,-127 v 0 h 5 15 23 28 31 30 l 33,3 28,2 v 0 h 28 36 40 l 38,-2 38,-3 31,-2 20,-3 h 8 l 2,16 -345,129 v 0 l -3,-2 -2,-3 -5,-2 -5,-3 v 0 h -8 l -5,8 -5,7 v 8 0 l 2,10 10,8 8,2 10,-2 v 0 l 5,-5 v -8 -5 -3 l 349,-129 5,15 v 0 l -8,5 -18,15 -28,21 -33,25 -33,28 -30,25 -28,21 z"
   id="path78"
   inkscape:connector-curvature="0"
   style="fill:none;stroke:#000000" />
         <path
   d="m 11081,15628 -13,6 -33,10 -51,18 -68,25 -84,28 -97,33 -107,36 -114,40 -119,38 -122,44 -125,40 -122,38 -117,41 -112,33 -104,33 -94,28 -91,28 -102,30 -107,34 -112,35 -114,36 -114,38 -112,35 -110,33 -104,33 -99,28 -86,26 -79,20 -64,15 -48,11 h -33 l -13,-5 11,-13 38,-23 58,-33 79,-38 91,-46 105,-48 114,-54 117,-53 119,-53 117,-51 112,-49 102,-45 89,-38 73,-31 54,-23 30,-10 33,-13 59,-20 79,-33 96,-38 112,-43 122,-51 130,-51 129,-53 132,-54 125,-51 117,-48 101,-41 89,-35 66,-28 46,-18 15,-7 21,-3 h 20 l 18,8 18,10 15,12 15,16 10,15 8,18 8,15 12,33 10,33 8,18 5,38 -5,38 -20,33 z"
   id="path80"
   inkscape:connector-curvature="0"
   style="fill:#ffffff;stroke:none" />
         <path
   d="m 11081,15628 -13,6 -33,10 -51,18 -68,25 -84,28 -97,33 -107,36 -114,40 -119,38 -122,44 -125,40 -122,38 -117,41 -112,33 -104,33 -94,28 -91,28 -102,30 -107,34 -112,35 -114,36 -114,38 -112,35 -110,33 -104,33 -99,28 -86,26 -79,20 -64,15 -48,11 h -33 l -13,-5 11,-13 38,-23 58,-33 79,-38 91,-46 105,-48 114,-54 117,-53 119,-53 117,-51 112,-49 102,-45 89,-38 73,-31 54,-23 30,-10 33,-13 59,-20 79,-33 96,-38 112,-43 122,-51 130,-51 129,-53 132,-54 125,-51 117,-48 101,-41 89,-35 66,-28 46,-18 15,-7 21,-3 h 20 l 18,8 18,10 15,12 15,16 10,15 8,18 8,15 12,33 10,33 8,18 5,38 -5,38 -20,33 z"
   id="path82"
   inkscape:connector-curvature="0"
   style="fill:#cccccc;stroke:none" />
         <path
   d="m 11081,15628 v 0 l -13,6 -33,10 -51,18 -68,25 -84,28 -97,33 -107,36 -114,40 -119,38 -122,44 -125,40 -122,38 -117,41 -112,33 -104,33 -94,28 v 0 l -91,28 -102,30 -107,34 -112,35 -114,36 -114,38 -112,35 -110,33 -104,33 -99,28 -86,26 -79,20 -64,15 -48,11 h -33 l -13,-5 v 0 l 11,-13 38,-23 58,-33 79,-38 91,-46 105,-48 114,-54 117,-53 119,-53 117,-51 112,-49 102,-45 89,-38 73,-31 54,-23 30,-10 v 0 l 33,-13 59,-20 79,-33 96,-38 112,-43 122,-51 130,-51 129,-53 132,-54 125,-51 117,-48 101,-41 89,-35 66,-28 46,-18 15,-7 v 0 l 21,-3 h 20 l 18,8 18,10 15,12 15,16 10,15 8,18 v 0 l 8,15 12,33 10,33 8,18 v 0 l 5,38 -5,38 -20,33 z"
   id="path84"
   inkscape:connector-curvature="0"
   style="fill:none;stroke:#000000" />
         <path
   d="m 8211,16516 8,-8 23,-13 38,-18 51,-22 63,-28 77,-33 86,-36 97,-41 104,-43 112,-46 119,-45 125,-51 127,-51 132,-51 135,-53 134,-51 135,-54 135,-50 132,-51 129,-48 125,-49 119,-43 115,-43 104,-38 99,-36 89,-33 76,-25 66,-23 54,-18 40,-10 26,-5 h 10 l 8,15 12,33 10,33 8,18 -8,7 -22,13 -39,18 -50,20 -66,28 -77,28 -89,36 -96,35 -107,41 -114,41 -120,43 -124,46 -132,45 -133,49 -134,48 -138,48 -137,46 -134,48 -135,46 -130,43 -127,44 -122,40 -114,38 -110,36 -99,30 -89,28 -78,26 -66,20 -56,13 -41,10 -25,5 z"
   id="path86"
   inkscape:connector-curvature="0"
   style="fill:#999999;stroke:none" />
         <path
   d="m 11081,15628 -13,6 -33,10 -51,18 -68,25 -84,28 -97,33 -107,36 -114,40 -119,38 -122,44 -125,40 -122,38 -117,41 -112,33 -104,33 -94,28 -36,10 -48,18 -58,18 -71,25 -79,26 -84,30 -89,31 -89,30 -92,33 -91,31 -86,30 -82,28 -73,26 -67,22 -55,21 -41,12 -26,6 -33,5 -38,5 -40,5 -38,2 h -36 l -23,-7 -13,-10 11,-13 38,-18 61,-25 78,-31 94,-35 107,-39 115,-40 122,-41 119,-41 119,-40 112,-38 105,-33 91,-31 74,-23 56,-18 30,-10 33,-10 64,-23 86,-28 107,-35 122,-44 135,-45 139,-49 145,-48 143,-51 139,-45 127,-44 115,-40 96,-33 74,-26 48,-15 18,-5 5,38 -5,38 -20,33 z"
   id="path88"
   inkscape:connector-curvature="0"
   style="fill:#4c4c4c;stroke:none" />
         <path
   d="m 11739,15273 -38,-105 -13,-27 -15,-21 -20,-13 -21,-5 -25,-2 -26,5 -28,8 -30,10 -531,190 -28,13 -18,18 -10,15 -5,20 v 18 l 2,21 5,17 5,18 36,89 8,20 7,21 8,15 13,15 15,10 20,8 23,-3 31,-7 531,-193 30,-13 26,-13 23,-15 15,-18 13,-18 5,-22 v -26 z"
   id="path90"
   inkscape:connector-curvature="0"
   style="fill:#e5e5e5;stroke:none" />
         <path
   d="m 11739,15273 -760,269 8,20 7,21 8,15 13,15 15,10 20,8 23,-3 31,-7 531,-193 30,-13 26,-13 23,-15 15,-18 13,-18 5,-22 v -26 z"
   id="path92"
   inkscape:connector-curvature="0"
   style="fill:#7f7f7f;stroke:none" />
         <path
   d="m 11739,15273 -38,-105 -10,-2 -26,5 -38,13 -48,15 -59,18 -63,23 -69,25 -68,28 -72,28 -68,25 -64,26 -56,25 -48,21 -38,15 -23,13 -8,7 36,89 10,3 28,-5 38,-11 51,-15 59,-18 66,-20 68,-23 71,-23 69,-25 69,-26 63,-25 56,-23 48,-20 36,-15 23,-16 z"
   id="path94"
   inkscape:connector-curvature="0"
   style="fill:#cccccc;stroke:none" />
         <path
   d="m 11739,15273 -38,-105 v 0 l -13,-27 -15,-21 -20,-13 -21,-5 -25,-2 -26,5 -28,8 -30,10 -531,190 v 0 l -28,13 -18,18 -10,15 -5,20 v 18 l 2,21 5,17 5,18 36,89 v 0 l 8,20 7,21 8,15 13,15 15,10 20,8 23,-3 31,-7 531,-193 v 0 l 30,-13 26,-13 23,-15 15,-18 13,-18 5,-22 v -26 z"
   id="path96"
   inkscape:connector-curvature="0"
   style="fill:none;stroke:#000000" />
         <path
   d="m 11800,15072 -36,71 39,109 76,31 -26,-79 219,-117 -242,66 z"
   id="path98"
   inkscape:connector-curvature="0"
   style="fill:#b2b2b2;stroke:none" />
         <path
   d="m 10067,14838 1265,1235 36,38 36,39 35,35 36,36 33,30 33,33 33,31 30,28 31,25 30,26 31,25 30,23 28,20 28,18 28,20 26,16 25,15 28,15 25,13 26,12 28,13 25,10 26,10 25,8 28,10 25,8 26,5 25,8 28,5 26,5 25,2 25,3 v 68 h -1583 v -68 h 36 l 30,-5 31,-5 28,-8 22,-8 23,-12 18,-13 18,-15 28,-33 20,-31 10,-30 5,-31 -2,-28 -3,-28 -7,-25 -10,-23 -8,-13 -10,-15 -16,-18 -17,-20 -21,-20 -25,-26 -28,-28 -30,-30 -1152,-1124 v 1058 l 3,124 5,99 10,77 15,55 8,16 10,15 10,15 13,15 15,13 15,13 18,13 21,12 27,16 28,12 28,10 31,8 28,8 30,5 31,5 h 30 117 v 68 H 8621 v -68 h 122 l 50,-3 49,-5 45,-10 41,-15 36,-18 33,-23 30,-25 26,-31 28,-56 17,-86 13,-114 3,-145 v -2151 l -3,-124 -5,-99 -10,-79 -15,-56 -8,-15 -8,-15 -10,-13 -13,-15 -12,-13 -18,-13 -15,-12 -21,-13 -28,-15 -28,-13 -28,-10 -30,-8 -28,-8 -30,-5 -31,-2 h -30 -122 v -71 h 1481 v 71 h -117 -30 l -31,2 -30,5 -28,6 -31,10 -28,10 -28,10 -27,15 -21,10 -18,13 -15,15 -15,16 -13,15 -13,18 -10,17 -7,21 -13,53 -10,76 -5,97 -3,119 v 1032 l 15,-15 26,-20 30,-31 38,-35 46,-41 54,-51 61,-56 68,-63 89,-82 84,-78 81,-77 77,-71 71,-68 66,-64 61,-63 58,-56 51,-56 48,-51 44,-46 40,-46 36,-40 28,-36 28,-33 20,-30 31,-54 20,-51 10,-45 5,-44 -2,-30 -11,-28 -15,-28 -23,-25 -15,-11 -15,-10 -20,-7 -21,-8 -23,-3 -25,-5 -25,-2 h -31 -79 v -71 h 1213 v 71 h -28 l -26,2 -25,3 -26,2 -25,6 -23,5 -23,5 -23,7 -23,8 -25,10 -25,10 -26,13 -28,13 -30,17 -31,16 -30,20 -33,20 -36,26 -38,28 -38,30 -41,36 -43,35 -43,41 -46,43 -8,8 -12,10 -13,15 -18,18 -20,18 -26,25 -25,26 -30,30 -34,31 -35,38 -38,38 -41,41 -46,45 -48,49 -51,51 -53,55 z"
   id="path100"
   inkscape:connector-curvature="0"
   style="fill:#000000;stroke:none" />
        </g>
       </g>
      </g>
     </g>
    </g>
   </g>
  </g>
 </g>
</svg>