<?xml version="1.0" encoding="UTF-8" standalone="no"?>
<svg
   xmlns:ooo="http://xml.openoffice.org/svg/export"
   xmlns:dc="http://purl.org/dc/elements/1.1/"
   xmlns:cc="http://creativecommons.org/ns#"
   xmlns:rdf="http://www.w3.org/1999/02/22-rdf-syntax-ns#"
   xmlns:svg="http://www.w3.org/2000/svg"
   xmlns="http://www.w3.org/2000/svg"
   xmlns:sodipodi="http://sodipodi.sourceforge.net/DTD/sodipodi-0.dtd"
   xmlns:inkscape="http://www.inkscape.org/namespaces/inkscape"
   version="1.2"
   width="102.24mm"
   height="169.47mm"
   viewBox="0 0 10224 16947"
   preserveAspectRatio="xMidYMid"
   xml:space="preserve"
   id="svg91"
   sodipodi:docname="kidmusic.svg"
   style="fill-rule:evenodd;stroke-width:28.22200012;stroke-linejoin:round"
   inkscape:version="0.92.5 (2060ec1f9f, 2020-04-08)"><metadata
   id="metadata95"><rdf:RDF><cc:Work
       rdf:about=""><dc:format>image/svg+xml</dc:format><dc:type
         rdf:resource="http://purl.org/dc/dcmitype/StillImage" /></cc:Work></rdf:RDF></metadata><sodipodi:namedview
   pagecolor="#ffffff"
   bordercolor="#666666"
   borderopacity="1"
   objecttolerance="10"
   gridtolerance="10"
   guidetolerance="10"
   inkscape:pageopacity="0"
   inkscape:pageshadow="2"
   inkscape:window-width="664"
   inkscape:window-height="487"
   id="namedview93"
   showgrid="false"
   inkscape:zoom="0.2102413"
   inkscape:cx="193.20945"
   inkscape:cy="320.23937"
   inkscape:window-x="0"
   inkscape:window-y="0"
   inkscape:window-maximized="0"
   inkscape:current-layer="svg91" />
 <defs
   class="ClipPathGroup"
   id="defs8">
  <clipPath
   id="presentation_clip_path"
   clipPathUnits="userSpaceOnUse">
   <rect
   x="0"
   y="0"
   width="21000"
   height="29700"
   id="rect2" />
  </clipPath>
  <clipPath
   id="presentation_clip_path_shrink"
   clipPathUnits="userSpaceOnUse">
   <rect
   x="21"
   y="29"
   width="20958"
   height="29641"
   id="rect5" />
  </clipPath>
 </defs>
 <defs
   class="TextShapeIndex"
   id="defs12">
  <g
   ooo:slide="id1"
   ooo:id-list="id3"
   id="g10" />
 </defs>
 <defs
   class="EmbeddedBulletChars"
   id="defs44">
  <g
   id="bullet-char-template-57356"
   transform="matrix(4.8828125e-4,0,0,-4.8828125e-4,0,0)">
   <path
   d="M 580,1141 1163,571 580,0 -4,571 Z"
   id="path14"
   inkscape:connector-curvature="0" />
  </g>
  <g
   id="bullet-char-template-57354"
   transform="matrix(4.8828125e-4,0,0,-4.8828125e-4,0,0)">
   <path
   d="M 8,1128 H 1137 V 0 H 8 Z"
   id="path17"
   inkscape:connector-curvature="0" />
  </g>
  <g
   id="bullet-char-template-10146"
   transform="matrix(4.8828125e-4,0,0,-4.8828125e-4,0,0)">
   <path
   d="M 174,0 602,739 174,1481 1456,739 Z M 1358,739 309,1346 659,739 Z"
   id="path20"
   inkscape:connector-curvature="0" />
  </g>
  <g
   id="bullet-char-template-10132"
   transform="matrix(4.8828125e-4,0,0,-4.8828125e-4,0,0)">
   <path
   d="M 2015,739 1276,0 H 717 l 543,543 H 174 v 393 h 1086 l -543,545 h 557 z"
   id="path23"
   inkscape:connector-curvature="0" />
  </g>
  <g
   id="bullet-char-template-10007"
   transform="matrix(4.8828125e-4,0,0,-4.8828125e-4,0,0)">
   <path
   d="m 0,-2 c -7,16 -16,29 -25,39 l 381,530 c -94,256 -141,385 -141,387 0,25 13,38 40,38 9,0 21,-2 34,-5 21,4 42,12 65,25 l 27,-13 111,-251 280,301 64,-25 24,25 c 21,-10 41,-24 62,-43 C 886,937 835,863 770,784 769,783 710,716 594,584 L 774,223 c 0,-27 -21,-55 -63,-84 l 16,-20 C 717,90 699,76 672,76 641,76 570,178 457,381 L 164,-76 c -22,-34 -53,-51 -92,-51 -42,0 -63,17 -64,51 -7,9 -10,24 -10,44 0,9 1,19 2,30 z"
   id="path26"
   inkscape:connector-curvature="0" />
  </g>
  <g
   id="bullet-char-template-10004"
   transform="matrix(4.8828125e-4,0,0,-4.8828125e-4,0,0)">
   <path
   d="M 285,-33 C 182,-33 111,30 74,156 52,228 41,333 41,471 c 0,78 14,145 41,201 34,71 87,106 158,106 53,0 88,-31 106,-94 l 23,-176 c 8,-64 28,-97 59,-98 l 735,706 c 11,11 33,17 66,17 42,0 63,-15 63,-46 V 965 c 0,-36 -10,-64 -30,-84 L 442,47 C 390,-6 338,-33 285,-33 Z"
   id="path29"
   inkscape:connector-curvature="0" />
  </g>
  <g
   id="bullet-char-template-9679"
   transform="matrix(4.8828125e-4,0,0,-4.8828125e-4,0,0)">
   <path
   d="M 813,0 C 632,0 489,54 383,161 276,268 223,411 223,592 c 0,181 53,324 160,431 106,107 249,161 430,161 179,0 323,-54 432,-161 108,-107 162,-251 162,-431 0,-180 -54,-324 -162,-431 C 1136,54 992,0 813,0 Z"
   id="path32"
   inkscape:connector-curvature="0" />
  </g>
  <g
   id="bullet-char-template-8226"
   transform="matrix(4.8828125e-4,0,0,-4.8828125e-4,0,0)">
   <path
   d="m 346,457 c -73,0 -137,26 -191,78 -54,51 -81,114 -81,188 0,73 27,136 81,188 54,52 118,78 191,78 73,0 134,-26 185,-79 51,-51 77,-114 77,-187 0,-75 -25,-137 -76,-188 -50,-52 -112,-78 -186,-78 z"
   id="path35"
   inkscape:connector-curvature="0" />
  </g>
  <g
   id="bullet-char-template-8211"
   transform="matrix(4.8828125e-4,0,0,-4.8828125e-4,0,0)">
   <path
   d="M -4,459 H 1135 V 606 H -4 Z"
   id="path38"
   inkscape:connector-curvature="0" />
  </g>
  <g
   id="bullet-char-template-61548"
   transform="matrix(4.8828125e-4,0,0,-4.8828125e-4,0,0)">
   <path
   d="m 173,740 c 0,163 58,303 173,419 116,115 255,173 419,173 163,0 302,-58 418,-173 116,-116 174,-256 174,-419 0,-163 -58,-303 -174,-418 C 1067,206 928,148 765,148 601,148 462,206 346,322 231,437 173,577 173,740 Z"
   id="path41"
   inkscape:connector-curvature="0" />
  </g>
 </defs>
 <g
   id="g49"
   transform="translate(-5388,-6376)">
  <g
   id="id2"
   class="Master_Slide">
   <g
   id="bg-id2"
   class="Background" />
   <g
   id="bo-id2"
   class="BackgroundObjects" />
  </g>
 </g>
 <g
   class="SlideGroup"
   id="g89"
   transform="translate(-5388,-6376)">
  <g
   id="g87">
   <g
   id="container-id1">
    <g
   id="id1"
   class="Slide"
   clip-path="url(#presentation_clip_path)">
     <g
   class="Page"
   id="g83">
      <g
   class="Graphic"
   id="g81">
       <g
   id="id3">
        <rect
   class="BoundingBox"
   x="5388"
   y="6376"
   width="10224"
   height="16947"
   id="rect51"
   style="fill:none;stroke:none" />
        <defs
   id="defs56">
         <clipPath
   id="clip_path_1"
   clipPathUnits="userSpaceOnUse">
          <path
   d="M 5388,6376 H 15611 V 23322 H 5388 Z"
   id="path53"
   inkscape:connector-curvature="0" />
         </clipPath>
        </defs>
        <g
   clip-path="url(#clip_path_1)"
   id="g78">
         <path
   d="M 5388,6376 H 15612 V 23323 H 5388 Z"
   id="path58"
   inkscape:connector-curvature="0"
   style="fill:#ffffff;stroke:none" />
         <path
   d="m 14052,6991 473,866 269,795 56,275 -31,15 -25,5 h -20 l -16,-5 -15,-10 -81,-122 -82,-87 -91,-66 -91,-45 -102,-31 -107,-15 h -168 l -228,40 -275,92 -391,178 173,51 91,40 82,46 61,56 45,58 31,64 20,101 v 72 l -40,137 -31,71 -96,132 -122,117 -509,361 -386,223 -35,20 -51,16 -41,-21 -56,-50 -71,27 -30,23 -61,61 -51,76 -20,44 10,68 96,198 26,77 -41,45 -71,41 -20,3 -31,-13 -61,-46 -25,-25 -31,-46 -10,-25 -91,48 -31,43 -5,46 10,35 46,97 15,56 5,56 -213,523 -26,41 -66,50 -208,971 46,157 17,153 -63,681 330,843 36,61 147,2672 -20,21 -285,188 -61,81 -15,46 -46,162 -203,478 -25,102 -16,101 -5,107 21,112 -51,345 -81,336 -61,20 -41,25 -10,10 -5,11 -209,1803 102,137 20,21 31,20 101,20 97,36 66,61 20,30 71,214 36,25 41,15 35,21 249,96 244,92 15,30 77,112 -41,41 -46,30 -106,41 -127,20 -239,-5 -209,-20 h -35 l -178,-15 -61,-11 h -31 l -15,-15 -15,-10 -20,-31 -5,-25 h -224 l -51,66 -35,51 -651,-25 -25,-11 -21,-20 -35,-61 -8,-51 3,-101 20,-132 259,-803 -61,-1677 -30,-218 5,-66 20,-87 132,-289 117,-229 h 15 l 21,-5 15,-10 15,-21 41,-162 20,-148 v -259 l -20,-101 -10,-26 -21,-30 -20,-20 -25,5 h -16 l -50,20 -122,246 -107,28 -36,16 -76,71 -38,71 -208,305 -221,391 -143,325 -15,51 -41,96 -96,326 -46,50 -218,331 -168,360 -122,453 -36,391 16,254 25,122 158,51 66,330 25,25 181,92 73,25 41,20 76,26 31,15 45,15 41,21 71,55 31,36 101,168 -76,25 -117,26 -213,30 -183,10 -229,-10 -259,-51 -198,-76 -71,-46 -61,26 -148,91 -482,-25 35,-493 26,-122 55,-173 31,-35 71,-56 183,-1088 163,-1112 106,-371 107,-239 66,-112 122,-167 10,-5 20,-6 h 51 l 51,-15 97,-122 76,-157 66,-214 132,-487 46,-107 v -66 l -15,-15 -11,-16 -30,-30 -20,-26 10,-76 66,-239 170,-508 28,-132 15,-132 v -142 l -15,-142 -15,-158 v -188 l 147,-813 -51,-76 -56,-51 -76,-40 -101,-51 -56,-41 -77,-76 -111,-142 -158,-259 -117,-153 -112,-107 -66,-50 -116,-204 -117,-172 -31,-56 -107,-183 -91,-127 -5,-15 v -51 l -5,-31 -56,-56 -36,-76 -40,-300 -41,-76 -20,-5 -36,-35 -35,-51 v -432 l 10,-31 25,-35 117,-76 30,-41 6,-81 -11,-51 -20,-41 -25,-35 -41,-41 -86,-61 -5,-5 -31,5 h -35 l -36,5 h -36 l -35,-5 h -36 l -137,-20 -30,-10 -41,10 -15,15 -5,30 v 26 l -6,25 -25,10 -203,-91 -31,-10 -106,-56 -41,-31 -142,-147 -87,-122 -45,-107 -26,6 -41,33 -25,53 15,41 h -10 l -15,-11 -31,-30 -25,-178 -5,-173 36,-355 76,-341 76,-132 142,-178 315,-269 341,-244 66,-20 76,-5 61,10 61,20 30,13 61,23 h 31 l 36,-5 76,-51 25,-25 56,-36 36,-15 h 147 l -25,20 -11,20 -5,21 v 30 l 112,5 66,21 102,61 162,137 -20,30 h -20 l -15,-10 -41,-46 -31,-15 h -30 l 102,163 35,76 107,371 30,63 56,89 10,26 26,30 56,41 137,51 46,5 30,20 10,41 10,101 26,51 13,30 58,67 61,30 20,10 26,5 h 35 l 122,-20 99,-33 28,-15 10,-3 13,-20 28,-107 31,-10 40,-31 15,-20 31,-30 25,-26 150,-259 150,-41 422,-10 41,-5 91,-76 -122,-201 81,-38 -172,-208 132,-76 81,259 86,-51 143,221 183,-107 -132,-221 81,-50 -183,-199 142,-76 107,249 66,-41 142,224 168,-94 -158,-231 92,-41 -142,-198 116,-51 66,224 92,-56 147,239 1545,-879 290,-163 198,-147 203,-203 122,-183 71,-153 56,-162 26,-117 20,-188 v -203 h 5 z"
   id="path60"
   inkscape:connector-curvature="0"
   style="fill:#000000;stroke:none" />
         <path
   d="m 13234,9176 41,81 10,35 5,77 -5,40 -26,71 -76,107 -188,168 -798,467 -127,-259 -86,-122 -87,-86 -40,-26 -36,-5 -81,-101 513,-326 366,-162 102,-31 152,-25 147,5 46,10 87,31 z"
   id="path62"
   inkscape:connector-curvature="0"
   style="fill:#ffffff;stroke:none" />
         <path
   d="m 7324,9267 h 117 l 15,15 -5,10 -15,16 -56,20 -56,8 -15,-3 -15,-10 -6,-15 z"
   id="path64"
   inkscape:connector-curvature="0"
   style="fill:#ffffff;stroke:none" />
         <path
   d="m 10668,10344 -89,208 -49,-30 -30,-46 -25,-56 -5,-56 5,-50 30,-61 z"
   id="path66"
   inkscape:connector-curvature="0"
   style="fill:#ffffff;stroke:none" />
         <path
   d="m 11100,10380 -36,61 -41,25 h -22 l -34,-5 -25,-147 h 51 l 46,10 40,30 z"
   id="path68"
   inkscape:connector-curvature="0"
   style="fill:#ffffff;stroke:none" />
         <path
   d="m 9545,10745 -66,128 -36,121 v 145 l 31,97 50,94 46,56 81,71 135,76 186,66 86,10 51,447 -16,36 -20,20 -30,10 -31,5 -81,-15 -81,-25 -82,-15 -20,-122 -13,-56 -63,-107 -87,-112 -50,-20 h -16 l -10,-5 -20,-5 -15,-10 -56,-51 -16,5 h -15 l -35,10 -16,10 -183,-142 -30,20 -23,31 -58,91 -31,36 -41,30 -249,-127 -20,-15 -20,-25 -51,-107 295,-107 35,-25 33,-18 69,-74 -36,-203 v -61 l 26,-46 101,-66 163,-76 137,-25 h 31 l 35,15 z"
   id="path70"
   inkscape:connector-curvature="0"
   style="fill:#ffffff;stroke:none" />
         <path
   d="m 10685,10695 74,30 41,46 51,96 -16,51 -15,13 -20,13 h -51 l -20,-5 -21,-13 -91,-150 -5,-15 v -26 l 15,-20 z"
   id="path72"
   inkscape:connector-curvature="0"
   style="fill:#ffffff;stroke:none" />
         <path
   d="m 9758,10878 31,30 66,46 152,86 76,61 -66,290 -86,-5 -66,-16 -87,-40 -40,-31 -46,-58 -20,-43 -21,-107 21,-107 25,-53 z"
   id="path74"
   inkscape:connector-curvature="0"
   style="fill:#ffffff;stroke:none" />
         <path
   d="m 11379,9887 -8,-38 -20,-31 -30,-20 -38,-8 -36,8 -31,20 -22,31 -8,38 8,35 22,31 31,20 36,8 38,-8 30,-20 20,-31 z"
   id="path76"
   inkscape:connector-curvature="0"
   style="fill:#000000;stroke:none" />
        </g>
       </g>
      </g>
     </g>
    </g>
   </g>
  </g>
 </g>
</svg>