<?xml version="1.0" encoding="UTF-8" standalone="no"?>
<svg
   xmlns:ooo="http://xml.openoffice.org/svg/export"
   xmlns:dc="http://purl.org/dc/elements/1.1/"
   xmlns:cc="http://creativecommons.org/ns#"
   xmlns:rdf="http://www.w3.org/1999/02/22-rdf-syntax-ns#"
   xmlns:svg="http://www.w3.org/2000/svg"
   xmlns="http://www.w3.org/2000/svg"
   xmlns:sodipodi="http://sodipodi.sourceforge.net/DTD/sodipodi-0.dtd"
   xmlns:inkscape="http://www.inkscape.org/namespaces/inkscape"
   version="1.2"
   width="14.61mm"
   height="31.389999mm"
   viewBox="0 0 1461 3138.9999"
   preserveAspectRatio="xMidYMid"
   xml:space="preserve"
   id="svg74"
   sodipodi:docname="ladle.svg"
   style="fill-rule:evenodd;stroke-width:28.22200012;stroke-linejoin:round"
   inkscape:version="0.92.5 (2060ec1f9f, 2020-04-08)"><metadata
   id="metadata78"><rdf:RDF><cc:Work
       rdf:about=""><dc:format>image/svg+xml</dc:format><dc:type
         rdf:resource="http://purl.org/dc/dcmitype/StillImage" /></cc:Work></rdf:RDF></metadata><sodipodi:namedview
   pagecolor="#ffffff"
   bordercolor="#666666"
   borderopacity="1"
   objecttolerance="10"
   gridtolerance="10"
   guidetolerance="10"
   inkscape:pageopacity="0"
   inkscape:pageshadow="2"
   inkscape:window-width="664"
   inkscape:window-height="487"
   id="namedview76"
   showgrid="false"
   inkscape:zoom="0.2102413"
   inkscape:cx="27.628347"
   inkscape:cy="59.300786"
   inkscape:window-x="0"
   inkscape:window-y="0"
   inkscape:window-maximized="0"
   inkscape:current-layer="svg74" />
 <defs
   class="ClipPathGroup"
   id="defs8">
  <clipPath
   id="presentation_clip_path"
   clipPathUnits="userSpaceOnUse">
   <rect
   x="0"
   y="0"
   width="21000"
   height="29700"
   id="rect2" />
  </clipPath>
  <clipPath
   id="presentation_clip_path_shrink"
   clipPathUnits="userSpaceOnUse">
   <rect
   x="21"
   y="29"
   width="20958"
   height="29641"
   id="rect5" />
  </clipPath>
 </defs>
 <defs
   class="TextShapeIndex"
   id="defs12">
  <g
   ooo:slide="id1"
   ooo:id-list="id3"
   id="g10" />
 </defs>
 <defs
   class="EmbeddedBulletChars"
   id="defs44">
  <g
   id="bullet-char-template-57356"
   transform="matrix(4.8828125e-4,0,0,-4.8828125e-4,0,0)">
   <path
   d="M 580,1141 1163,571 580,0 -4,571 Z"
   id="path14"
   inkscape:connector-curvature="0" />
  </g>
  <g
   id="bullet-char-template-57354"
   transform="matrix(4.8828125e-4,0,0,-4.8828125e-4,0,0)">
   <path
   d="M 8,1128 H 1137 V 0 H 8 Z"
   id="path17"
   inkscape:connector-curvature="0" />
  </g>
  <g
   id="bullet-char-template-10146"
   transform="matrix(4.8828125e-4,0,0,-4.8828125e-4,0,0)">
   <path
   d="M 174,0 602,739 174,1481 1456,739 Z M 1358,739 309,1346 659,739 Z"
   id="path20"
   inkscape:connector-curvature="0" />
  </g>
  <g
   id="bullet-char-template-10132"
   transform="matrix(4.8828125e-4,0,0,-4.8828125e-4,0,0)">
   <path
   d="M 2015,739 1276,0 H 717 l 543,543 H 174 v 393 h 1086 l -543,545 h 557 z"
   id="path23"
   inkscape:connector-curvature="0" />
  </g>
  <g
   id="bullet-char-template-10007"
   transform="matrix(4.8828125e-4,0,0,-4.8828125e-4,0,0)">
   <path
   d="m 0,-2 c -7,16 -16,29 -25,39 l 381,530 c -94,256 -141,385 -141,387 0,25 13,38 40,38 9,0 21,-2 34,-5 21,4 42,12 65,25 l 27,-13 111,-251 280,301 64,-25 24,25 c 21,-10 41,-24 62,-43 C 886,937 835,863 770,784 769,783 710,716 594,584 L 774,223 c 0,-27 -21,-55 -63,-84 l 16,-20 C 717,90 699,76 672,76 641,76 570,178 457,381 L 164,-76 c -22,-34 -53,-51 -92,-51 -42,0 -63,17 -64,51 -7,9 -10,24 -10,44 0,9 1,19 2,30 z"
   id="path26"
   inkscape:connector-curvature="0" />
  </g>
  <g
   id="bullet-char-template-10004"
   transform="matrix(4.8828125e-4,0,0,-4.8828125e-4,0,0)">
   <path
   d="M 285,-33 C 182,-33 111,30 74,156 52,228 41,333 41,471 c 0,78 14,145 41,201 34,71 87,106 158,106 53,0 88,-31 106,-94 l 23,-176 c 8,-64 28,-97 59,-98 l 735,706 c 11,11 33,17 66,17 42,0 63,-15 63,-46 V 965 c 0,-36 -10,-64 -30,-84 L 442,47 C 390,-6 338,-33 285,-33 Z"
   id="path29"
   inkscape:connector-curvature="0" />
  </g>
  <g
   id="bullet-char-template-9679"
   transform="matrix(4.8828125e-4,0,0,-4.8828125e-4,0,0)">
   <path
   d="M 813,0 C 632,0 489,54 383,161 276,268 223,411 223,592 c 0,181 53,324 160,431 106,107 249,161 430,161 179,0 323,-54 432,-161 108,-107 162,-251 162,-431 0,-180 -54,-324 -162,-431 C 1136,54 992,0 813,0 Z"
   id="path32"
   inkscape:connector-curvature="0" />
  </g>
  <g
   id="bullet-char-template-8226"
   transform="matrix(4.8828125e-4,0,0,-4.8828125e-4,0,0)">
   <path
   d="m 346,457 c -73,0 -137,26 -191,78 -54,51 -81,114 -81,188 0,73 27,136 81,188 54,52 118,78 191,78 73,0 134,-26 185,-79 51,-51 77,-114 77,-187 0,-75 -25,-137 -76,-188 -50,-52 -112,-78 -186,-78 z"
   id="path35"
   inkscape:connector-curvature="0" />
  </g>
  <g
   id="bullet-char-template-8211"
   transform="matrix(4.8828125e-4,0,0,-4.8828125e-4,0,0)">
   <path
   d="M -4,459 H 1135 V 606 H -4 Z"
   id="path38"
   inkscape:connector-curvature="0" />
  </g>
  <g
   id="bullet-char-template-61548"
   transform="matrix(4.8828125e-4,0,0,-4.8828125e-4,0,0)">
   <path
   d="m 173,740 c 0,163 58,303 173,419 116,115 255,173 419,173 163,0 302,-58 418,-173 116,-116 174,-256 174,-419 0,-163 -58,-303 -174,-418 C 1067,206 928,148 765,148 601,148 462,206 346,322 231,437 173,577 173,740 Z"
   id="path41"
   inkscape:connector-curvature="0" />
  </g>
 </defs>
 <g
   id="g49"
   transform="translate(-9769,-13280)">
  <g
   id="id2"
   class="Master_Slide">
   <g
   id="bg-id2"
   class="Background" />
   <g
   id="bo-id2"
   class="BackgroundObjects" />
  </g>
 </g>
 <g
   class="SlideGroup"
   id="g72"
   transform="translate(-9769,-13280)">
  <g
   id="g70">
   <g
   id="container-id1">
    <g
   id="id1"
   class="Slide"
   clip-path="url(#presentation_clip_path)">
     <g
   class="Page"
   id="g66">
      <g
   class="Graphic"
   id="g64">
       <g
   id="id3">
        <rect
   class="BoundingBox"
   x="9769"
   y="13280"
   width="1461"
   height="3139"
   id="rect51"
   style="fill:none;stroke:none" />
        <path
   d="m 10558,15471 -18,-198 -18,-262 -10,-303 5,-315 23,-300 49,-259 84,-193 122,-102 61,-12 56,-6 48,8 43,15 36,23 31,28 25,31 18,35 10,36 5,33 -2,35 -11,31 -15,25 -23,21 -30,12 -38,6 -44,-6 -28,-17 -12,-23 -8,-28 -5,-28 -5,-26 -13,-20 -25,-13 -59,66 -46,140 -30,201 -16,249 -2,285 10,305 25,312 39,311 28,122 7,111 -7,99 -23,87 -38,79 -46,66 -59,56 -61,45 -71,36 -71,25 -74,18 -74,10 h -69 l -66,-10 -61,-15 -51,-23 -56,-43 -53,-61 -49,-71 -38,-77 -30,-76 -23,-68 -8,-59 5,-38 23,-43 25,-41 34,-35 35,-33 38,-31 44,-28 45,-23 51,-20 51,-18 54,-15 56,-13 58,-8 59,-5 61,-2 61,2 z"
   id="path53"
   inkscape:connector-curvature="0"
   style="fill:#000000;stroke:none" />
        <path
   d="m 10591,15517 -5,-49 -8,-86 -10,-122 -10,-147 -8,-168 -5,-183 -2,-188 5,-191 13,-185 22,-176 31,-157 46,-133 61,-101 74,-64 94,-23 112,28 -87,8 -71,48 -58,79 -46,109 -36,135 -28,153 -18,167 -7,176 -5,178 2,180 8,173 10,163 10,147 15,127 13,102 13,71 25,107 10,99 -5,86 -20,76 -31,66 -43,56 -51,49 -56,40 -61,31 -63,23 -67,15 -63,8 -61,2 -59,-5 -53,-10 -44,-18 -63,-43 -56,-56 -43,-64 -34,-68 -22,-64 -16,-56 -5,-40 v -23 l 23,-43 28,-39 31,-35 35,-33 38,-31 41,-25 43,-23 46,-20 49,-16 51,-15 50,-10 56,-5 56,-5 h 56 l 59,2 58,6 11,2 10,3 7,2 z"
   id="path55"
   inkscape:connector-curvature="0"
   style="fill:#ffffff;stroke:none" />
        <path
   d="m 10897,13671 20,13 13,20 5,26 7,30 8,28 13,23 23,15 38,3 41,-13 22,-25 11,-36 v -40 l -11,-38 -15,-36 -20,-23 -23,-10 h -18 l -20,2 -18,6 -18,7 -18,10 -15,10 -15,13 z"
   id="path57"
   inkscape:connector-curvature="0"
   style="fill:#000000;stroke:none" />
        <path
   d="m 9889,15776 15,-31 20,-30 28,-28 31,-28 38,-25 41,-23 43,-21 48,-17 51,-16 51,-12 54,-8 56,-5 56,-3 53,3 56,8 53,10 31,10 23,15 15,15 10,21 3,20 -3,23 -10,25 -15,23 -18,28 -25,26 -31,22 -33,26 -38,23 -43,23 -46,20 -49,18 -61,18 -58,12 -54,8 -51,2 h -43 l -41,-2 -35,-8 -31,-10 -28,-13 -23,-12 -17,-18 -13,-15 -10,-21 -5,-17 v -18 z"
   id="path59"
   inkscape:connector-curvature="0"
   style="fill:#000000;stroke:none" />
        <path
   d="m 11019,13788 15,-2 13,-8 7,-13 3,-15 -3,-15 -7,-13 -13,-7 -15,-3 -16,3 -12,7 -8,13 -2,15 2,15 8,13 12,8 z"
   id="path61"
   inkscape:connector-curvature="0"
   style="fill:#ffffff;stroke:none" />
       </g>
      </g>
     </g>
    </g>
   </g>
  </g>
 </g>
</svg>