<?xml version="1.0" encoding="UTF-8" standalone="no"?>
<svg
   xmlns:ooo="http://xml.openoffice.org/svg/export"
   xmlns:dc="http://purl.org/dc/elements/1.1/"
   xmlns:cc="http://creativecommons.org/ns#"
   xmlns:rdf="http://www.w3.org/1999/02/22-rdf-syntax-ns#"
   xmlns:svg="http://www.w3.org/2000/svg"
   xmlns="http://www.w3.org/2000/svg"
   xmlns:sodipodi="http://sodipodi.sourceforge.net/DTD/sodipodi-0.dtd"
   xmlns:inkscape="http://www.inkscape.org/namespaces/inkscape"
   version="1.2"
   width="107.19mm"
   height="17.48mm"
   viewBox="0 0 10719 1748"
   preserveAspectRatio="xMidYMid"
   xml:space="preserve"
   id="svg747"
   sodipodi:docname="letters2.svg"
   style="fill-rule:evenodd;stroke-width:28.22200012;stroke-linejoin:round"
   inkscape:version="0.92.5 (2060ec1f9f, 2020-04-08)"><metadata
   id="metadata751"><rdf:RDF><cc:Work
       rdf:about=""><dc:format>image/svg+xml</dc:format><dc:type
         rdf:resource="http://purl.org/dc/dcmitype/StillImage" /></cc:Work></rdf:RDF></metadata><sodipodi:namedview
   pagecolor="#ffffff"
   bordercolor="#666666"
   borderopacity="1"
   objecttolerance="10"
   gridtolerance="10"
   guidetolerance="10"
   inkscape:pageopacity="0"
   inkscape:pageshadow="2"
   inkscape:window-width="664"
   inkscape:window-height="487"
   id="namedview749"
   showgrid="false"
   inkscape:zoom="0.2102413"
   inkscape:cx="202.58268"
   inkscape:cy="33.033069"
   inkscape:window-x="0"
   inkscape:window-y="0"
   inkscape:window-maximized="0"
   inkscape:current-layer="svg747" />
 <defs
   class="ClipPathGroup"
   id="defs8">
  <clipPath
   id="presentation_clip_path"
   clipPathUnits="userSpaceOnUse">
   <rect
   x="0"
   y="0"
   width="21000"
   height="29700"
   id="rect2" />
  </clipPath>
  <clipPath
   id="presentation_clip_path_shrink"
   clipPathUnits="userSpaceOnUse">
   <rect
   x="21"
   y="29"
   width="20958"
   height="29641"
   id="rect5" />
  </clipPath>
 </defs>
 <defs
   class="TextShapeIndex"
   id="defs12">
  <g
   ooo:slide="id1"
   ooo:id-list="id3"
   id="g10" />
 </defs>
 <defs
   class="EmbeddedBulletChars"
   id="defs44">
  <g
   id="bullet-char-template-57356"
   transform="matrix(4.8828125e-4,0,0,-4.8828125e-4,0,0)">
   <path
   d="M 580,1141 1163,571 580,0 -4,571 Z"
   id="path14"
   inkscape:connector-curvature="0" />
  </g>
  <g
   id="bullet-char-template-57354"
   transform="matrix(4.8828125e-4,0,0,-4.8828125e-4,0,0)">
   <path
   d="M 8,1128 H 1137 V 0 H 8 Z"
   id="path17"
   inkscape:connector-curvature="0" />
  </g>
  <g
   id="bullet-char-template-10146"
   transform="matrix(4.8828125e-4,0,0,-4.8828125e-4,0,0)">
   <path
   d="M 174,0 602,739 174,1481 1456,739 Z M 1358,739 309,1346 659,739 Z"
   id="path20"
   inkscape:connector-curvature="0" />
  </g>
  <g
   id="bullet-char-template-10132"
   transform="matrix(4.8828125e-4,0,0,-4.8828125e-4,0,0)">
   <path
   d="M 2015,739 1276,0 H 717 l 543,543 H 174 v 393 h 1086 l -543,545 h 557 z"
   id="path23"
   inkscape:connector-curvature="0" />
  </g>
  <g
   id="bullet-char-template-10007"
   transform="matrix(4.8828125e-4,0,0,-4.8828125e-4,0,0)">
   <path
   d="m 0,-2 c -7,16 -16,29 -25,39 l 381,530 c -94,256 -141,385 -141,387 0,25 13,38 40,38 9,0 21,-2 34,-5 21,4 42,12 65,25 l 27,-13 111,-251 280,301 64,-25 24,25 c 21,-10 41,-24 62,-43 C 886,937 835,863 770,784 769,783 710,716 594,584 L 774,223 c 0,-27 -21,-55 -63,-84 l 16,-20 C 717,90 699,76 672,76 641,76 570,178 457,381 L 164,-76 c -22,-34 -53,-51 -92,-51 -42,0 -63,17 -64,51 -7,9 -10,24 -10,44 0,9 1,19 2,30 z"
   id="path26"
   inkscape:connector-curvature="0" />
  </g>
  <g
   id="bullet-char-template-10004"
   transform="matrix(4.8828125e-4,0,0,-4.8828125e-4,0,0)">
   <path
   d="M 285,-33 C 182,-33 111,30 74,156 52,228 41,333 41,471 c 0,78 14,145 41,201 34,71 87,106 158,106 53,0 88,-31 106,-94 l 23,-176 c 8,-64 28,-97 59,-98 l 735,706 c 11,11 33,17 66,17 42,0 63,-15 63,-46 V 965 c 0,-36 -10,-64 -30,-84 L 442,47 C 390,-6 338,-33 285,-33 Z"
   id="path29"
   inkscape:connector-curvature="0" />
  </g>
  <g
   id="bullet-char-template-9679"
   transform="matrix(4.8828125e-4,0,0,-4.8828125e-4,0,0)">
   <path
   d="M 813,0 C 632,0 489,54 383,161 276,268 223,411 223,592 c 0,181 53,324 160,431 106,107 249,161 430,161 179,0 323,-54 432,-161 108,-107 162,-251 162,-431 0,-180 -54,-324 -162,-431 C 1136,54 992,0 813,0 Z"
   id="path32"
   inkscape:connector-curvature="0" />
  </g>
  <g
   id="bullet-char-template-8226"
   transform="matrix(4.8828125e-4,0,0,-4.8828125e-4,0,0)">
   <path
   d="m 346,457 c -73,0 -137,26 -191,78 -54,51 -81,114 -81,188 0,73 27,136 81,188 54,52 118,78 191,78 73,0 134,-26 185,-79 51,-51 77,-114 77,-187 0,-75 -25,-137 -76,-188 -50,-52 -112,-78 -186,-78 z"
   id="path35"
   inkscape:connector-curvature="0" />
  </g>
  <g
   id="bullet-char-template-8211"
   transform="matrix(4.8828125e-4,0,0,-4.8828125e-4,0,0)">
   <path
   d="M -4,459 H 1135 V 606 H -4 Z"
   id="path38"
   inkscape:connector-curvature="0" />
  </g>
  <g
   id="bullet-char-template-61548"
   transform="matrix(4.8828125e-4,0,0,-4.8828125e-4,0,0)">
   <path
   d="m 173,740 c 0,163 58,303 173,419 116,115 255,173 419,173 163,0 302,-58 418,-173 116,-116 174,-256 174,-419 0,-163 -58,-303 -174,-418 C 1067,206 928,148 765,148 601,148 462,206 346,322 231,437 173,577 173,740 Z"
   id="path41"
   inkscape:connector-curvature="0" />
  </g>
 </defs>
 <g
   id="g49"
   transform="translate(-5140,-13976)">
  <g
   id="id2"
   class="Master_Slide">
   <g
   id="bg-id2"
   class="Background" />
   <g
   id="bo-id2"
   class="BackgroundObjects" />
  </g>
 </g>
 <g
   class="SlideGroup"
   id="g745"
   transform="translate(-5140,-13976)">
  <g
   id="g743">
   <g
   id="container-id1">
    <g
   id="id1"
   class="Slide"
   clip-path="url(#presentation_clip_path)">
     <g
   class="Page"
   id="g739">
      <g
   class="Graphic"
   id="g737">
       <g
   id="id3">
        <rect
   class="BoundingBox"
   x="5140"
   y="13976"
   width="10719"
   height="1748"
   id="rect51"
   style="fill:none;stroke:none" />
        <defs
   id="defs56">
         <clipPath
   id="clip_path_1"
   clipPathUnits="userSpaceOnUse">
          <path
   d="m 5140,13976 h 10718 v 1747 H 5140 Z"
   id="path53"
   inkscape:connector-curvature="0" />
         </clipPath>
        </defs>
        <g
   clip-path="url(#clip_path_1)"
   id="g734">
         <path
   d="m 7302,15640 338,-710 -1235,-588 -338,710 z"
   id="path58"
   inkscape:connector-curvature="0"
   style="fill:#ffffff;stroke:none" />
         <path
   d="m 7637,14938 -5,-10 -338,709 16,6 338,-710 -5,-10 5,10 v -8 l -5,-2 h -6 l -5,5 z"
   id="path60"
   inkscape:connector-curvature="0"
   style="fill:#000000;stroke:none" />
         <path
   d="m 6413,14345 -10,5 1234,588 6,-15 -1235,-588 -10,5 10,-5 h -8 l -2,5 v 5 l 5,5 z"
   id="path62"
   inkscape:connector-curvature="0"
   style="fill:#000000;stroke:none" />
         <path
   d="m 6070,15045 5,10 338,-710 -15,-5 -338,710 5,10 -5,-10 v 7 l 5,3 h 7 l 3,-5 z"
   id="path64"
   inkscape:connector-curvature="0"
   style="fill:#000000;stroke:none" />
         <path
   d="m 7294,15637 11,-5 -1235,-587 -5,15 1235,588 10,-5 -10,5 h 7 l 3,-5 v -8 l -5,-3 z"
   id="path66"
   inkscape:connector-curvature="0"
   style="fill:#000000;stroke:none" />
         <path
   d="m 7241,15599 81,-28 -63,-30 -81,30 z"
   id="path68"
   inkscape:connector-curvature="0"
   style="fill:#ff0066;stroke:none" />
         <path
   d="m 7112,15538 81,-28 -64,-30 -81,28 z"
   id="path70"
   inkscape:connector-curvature="0"
   style="fill:#1e99ea;stroke:none" />
         <path
   d="m 6979,15477 82,-28 -64,-30 -81,28 z"
   id="path72"
   inkscape:connector-curvature="0"
   style="fill:#ff0066;stroke:none" />
         <path
   d="m 6850,15414 81,-28 -63,-31 -82,31 z"
   id="path74"
   inkscape:connector-curvature="0"
   style="fill:#1e99ea;stroke:none" />
         <path
   d="m 6720,15353 82,-28 -64,-31 -81,28 z"
   id="path76"
   inkscape:connector-curvature="0"
   style="fill:#ff0066;stroke:none" />
         <path
   d="m 6591,15291 81,-30 -64,-31 -81,31 z"
   id="path78"
   inkscape:connector-curvature="0"
   style="fill:#1e99ea;stroke:none" />
         <path
   d="m 6459,15228 81,-28 -64,-31 -81,31 z"
   id="path80"
   inkscape:connector-curvature="0"
   style="fill:#ff0066;stroke:none" />
         <path
   d="m 6329,15167 81,-28 -63,-31 -81,28 z"
   id="path82"
   inkscape:connector-curvature="0"
   style="fill:#1e99ea;stroke:none" />
         <path
   d="m 6199,15106 82,-31 -64,-30 -81,30 z"
   id="path84"
   inkscape:connector-curvature="0"
   style="fill:#ff0066;stroke:none" />
         <path
   d="m 6413,14490 -31,-81 -30,63 30,82 z"
   id="path86"
   inkscape:connector-curvature="0"
   style="fill:#1e99ea;stroke:none" />
         <path
   d="m 6349,14622 -28,-81 -30,63 28,82 z"
   id="path88"
   inkscape:connector-curvature="0"
   style="fill:#ff0066;stroke:none" />
         <path
   d="m 6288,14752 -30,-81 -28,63 28,82 z"
   id="path90"
   inkscape:connector-curvature="0"
   style="fill:#1e99ea;stroke:none" />
         <path
   d="m 6225,14882 -28,-82 -31,64 31,81 z"
   id="path92"
   inkscape:connector-curvature="0"
   style="fill:#ff0066;stroke:none" />
         <path
   d="m 6164,15012 -28,-82 -31,64 28,79 z"
   id="path94"
   inkscape:connector-curvature="0"
   style="fill:#1e99ea;stroke:none" />
         <path
   d="m 6466,14381 -81,28 63,30 82,-28 z"
   id="path96"
   inkscape:connector-curvature="0"
   style="fill:#ff0066;stroke:none" />
         <path
   d="m 6596,14442 -82,28 64,30 81,-28 z"
   id="path98"
   inkscape:connector-curvature="0"
   style="fill:#1e99ea;stroke:none" />
         <path
   d="m 6725,14503 -81,30 64,31 81,-31 z"
   id="path100"
   inkscape:connector-curvature="0"
   style="fill:#ff0066;stroke:none" />
         <path
   d="m 6855,14566 -81,28 63,31 81,-28 z"
   id="path102"
   inkscape:connector-curvature="0"
   style="fill:#1e99ea;stroke:none" />
         <path
   d="m 6987,14627 -81,28 63,31 82,-28 z"
   id="path104"
   inkscape:connector-curvature="0"
   style="fill:#ff0066;stroke:none" />
         <path
   d="m 7117,14691 -82,28 64,30 81,-30 z"
   id="path106"
   inkscape:connector-curvature="0"
   style="fill:#1e99ea;stroke:none" />
         <path
   d="m 7246,14752 -81,28 63,31 82,-28 z"
   id="path108"
   inkscape:connector-curvature="0"
   style="fill:#ff0066;stroke:none" />
         <path
   d="m 7376,14813 -82,31 64,30 81,-30 z"
   id="path110"
   inkscape:connector-curvature="0"
   style="fill:#1e99ea;stroke:none" />
         <path
   d="m 7508,14877 -81,28 63,30 81,-30 z"
   id="path112"
   inkscape:connector-curvature="0"
   style="fill:#ff0066;stroke:none" />
         <path
   d="m 7297,15490 28,81 30,-61 -28,-81 z"
   id="path114"
   inkscape:connector-curvature="0"
   style="fill:#1e99ea;stroke:none" />
         <path
   d="m 7358,15360 28,82 30,-64 -28,-81 z"
   id="path116"
   inkscape:connector-curvature="0"
   style="fill:#ff0066;stroke:none" />
         <path
   d="m 7419,15230 30,82 31,-64 -31,-81 z"
   id="path118"
   inkscape:connector-curvature="0"
   style="fill:#1e99ea;stroke:none" />
         <path
   d="m 7482,15101 28,81 31,-64 -28,-81 z"
   id="path120"
   inkscape:connector-curvature="0"
   style="fill:#ff0066;stroke:none" />
         <path
   d="m 7543,14973 31,79 28,-61 -28,-81 z"
   id="path122"
   inkscape:connector-curvature="0"
   style="fill:#1e99ea;stroke:none" />
         <path
   d="m 7526,14963 -64,135 -117,-56 66,-132 z"
   id="path124"
   inkscape:connector-curvature="0"
   style="fill:#ffffff;stroke:none" />
         <path
   d="m 7460,15106 10,-5 63,-135 -15,-5 -63,135 10,-6 -10,6 v 7 l 5,3 h 7 l 3,-5 z"
   id="path126"
   inkscape:connector-curvature="0"
   style="fill:#000000;stroke:none" />
         <path
   d="m 7338,15040 5,10 117,56 5,-16 -117,-56 5,11 -5,-11 h -8 l -2,6 v 5 l 5,5 z"
   id="path128"
   inkscape:connector-curvature="0"
   style="fill:#000000;stroke:none" />
         <path
   d="m 7414,14902 -10,5 -66,133 15,5 66,-133 -10,5 10,-5 v -7 l -5,-3 h -5 l -5,5 z"
   id="path130"
   inkscape:connector-curvature="0"
   style="fill:#000000;stroke:none" />
         <path
   d="m 7533,14966 -5,-10 -114,-54 -5,15 114,54 -5,-10 5,10 h 8 l 2,-5 v -8 l -5,-2 z"
   id="path132"
   inkscape:connector-curvature="0"
   style="fill:#000000;stroke:none" />
         <path
   d="m 7139,14867 v 0 l -7,10 -8,7 -10,8 -10,8 -13,2 h -15 -10 l -15,-5 -6,15 16,5 15,6 15,-6 18,-2 15,-8 10,-7 13,-13 8,-15 v 0 z"
   id="path134"
   inkscape:connector-curvature="0"
   style="fill:#000000;stroke:none" />
         <path
   d="m 7109,14775 v 0 l 23,15 10,23 3,26 -6,28 16,5 10,-33 -8,-31 -15,-28 -28,-20 v 0 z"
   id="path136"
   inkscape:connector-curvature="0"
   style="fill:#000000;stroke:none" />
         <path
   d="m 7020,14805 v 0 l 8,-10 7,-7 13,-8 10,-8 10,-2 h 16 12 l 13,5 5,-15 -13,-5 -17,-6 -16,6 -15,2 -15,8 -13,7 -13,13 -7,15 v 0 z"
   id="path138"
   inkscape:connector-curvature="0"
   style="fill:#000000;stroke:none" />
         <path
   d="m 7051,14897 v 0 l -21,-15 -12,-23 -3,-26 5,-28 -15,-5 -10,33 7,31 18,28 25,20 v 0 z"
   id="path140"
   inkscape:connector-curvature="0"
   style="fill:#000000;stroke:none" />
         <path
   d="m 7338,14902 v 0 l -18,-18 -15,-12 -16,-13 -17,-8 -16,-7 -17,-5 -23,-6 -23,-2 v 15 l 23,3 17,5 18,5 16,8 12,7 15,13 16,13 17,12 v 0 z"
   id="path142"
   inkscape:connector-curvature="0"
   style="fill:#000000;stroke:none" />
         <path
   d="m 7482,14968 -27,-5 -23,-5 -16,-5 -17,-8 -13,-7 -15,-10 -16,-13 -17,-13 -11,10 18,18 16,13 15,10 18,8 17,7 21,5 23,5 27,6 z"
   id="path144"
   inkscape:connector-curvature="0"
   style="fill:#000000;stroke:none" />
         <path
   d="m 7333,14915 v 0 l -18,-18 -15,-13 -18,-10 -18,-7 -15,-8 -18,-5 -23,-5 -23,-3 v 15 l 23,3 18,5 18,5 15,8 18,7 12,11 16,12 17,13 v 0 z"
   id="path146"
   inkscape:connector-curvature="0"
   style="fill:#000000;stroke:none" />
         <path
   d="m 7475,14981 -28,-5 -23,-5 -15,-5 -18,-8 -13,-7 -15,-11 -15,-10 -15,-15 -11,10 16,15 15,16 15,10 18,7 18,8 20,5 23,5 28,5 z"
   id="path148"
   inkscape:connector-curvature="0"
   style="fill:#000000;stroke:none" />
         <path
   d="m 7325,14930 v 0 l -18,-18 -15,-12 -15,-11 -18,-7 -18,-8 -18,-5 -23,-5 -22,-5 v 15 l 22,5 18,5 18,5 18,8 13,8 15,10 15,13 18,12 v 0 z"
   id="path150"
   inkscape:connector-curvature="0"
   style="fill:#000000;stroke:none" />
         <path
   d="m 7467,14996 -25,-5 -23,-5 -18,-5 -15,-8 -13,-7 -15,-10 -15,-13 -18,-13 -10,10 18,18 15,13 15,10 18,8 15,7 23,5 23,5 25,6 z"
   id="path152"
   inkscape:connector-curvature="0"
   style="fill:#000000;stroke:none" />
         <path
   d="m 7317,14943 v 0 l -17,-18 -16,-13 -15,-10 -18,-7 -15,-8 -18,-5 -23,-5 -22,-3 v 15 l 22,3 18,5 18,5 15,8 13,7 15,11 15,12 18,13 v 0 z"
   id="path154"
   inkscape:connector-curvature="0"
   style="fill:#000000;stroke:none" />
         <path
   d="m 7462,15012 -28,-6 -23,-5 -15,-5 -18,-7 -12,-11 -16,-10 -15,-12 -18,-13 -10,10 18,18 15,13 15,10 18,10 18,8 20,5 23,5 28,5 z"
   id="path156"
   inkscape:connector-curvature="0"
   style="fill:#000000;stroke:none" />
         <path
   d="m 7312,14958 v 0 l -18,-18 -15,-12 -18,-11 -17,-7 -16,-8 -17,-5 -23,-5 -23,-3 v 16 l 23,2 18,5 17,5 16,8 17,8 13,10 15,13 18,12 v 0 z"
   id="path158"
   inkscape:connector-curvature="0"
   style="fill:#000000;stroke:none" />
         <path
   d="m 7455,15022 -28,-3 -23,-5 -16,-5 -17,-8 -13,-7 -15,-10 -16,-11 -15,-15 -10,10 15,16 16,15 15,10 18,8 17,7 21,5 23,5 28,3 z"
   id="path160"
   inkscape:connector-curvature="0"
   style="fill:#000000;stroke:none" />
         <path
   d="m 7305,14973 v 0 l -18,-17 -15,-13 -16,-10 -17,-10 -18,-6 -18,-7 -23,-3 -23,-5 v 15 l 23,6 18,2 18,8 17,5 13,10 15,10 16,13 17,13 v 0 z"
   id="path162"
   inkscape:connector-curvature="0"
   style="fill:#000000;stroke:none" />
         <path
   d="m 7447,15037 -25,-5 -23,-5 -18,-5 -15,-8 -18,-8 -13,-7 -15,-10 -15,-16 -11,11 16,15 15,15 18,8 18,7 15,8 23,5 23,5 25,5 z"
   id="path164"
   inkscape:connector-curvature="0"
   style="fill:#000000;stroke:none" />
         <path
   d="m 7297,14986 v 0 l -18,-18 -15,-12 -15,-11 -18,-7 -15,-8 -18,-5 -23,-5 -23,-3 v 16 l 23,2 18,5 18,5 15,8 13,8 15,10 15,13 18,12 v 0 z"
   id="path166"
   inkscape:connector-curvature="0"
   style="fill:#000000;stroke:none" />
         <path
   d="m 7442,15052 -28,-5 -23,-5 -15,-5 -18,-8 -13,-7 -15,-10 -15,-13 -18,-13 -10,10 18,18 15,13 15,10 18,8 18,7 20,5 23,5 28,6 z"
   id="path168"
   inkscape:connector-curvature="0"
   style="fill:#000000;stroke:none" />
         <path
   d="m 6758,14780 72,-148 -384,-183 -71,150 z"
   id="path170"
   inkscape:connector-curvature="0"
   style="fill:#ffffff;stroke:none" />
         <path
   d="m 6827,14640 -5,-10 -71,147 15,6 71,-148 -5,-10 5,10 v -8 l -5,-2 h -5 l -5,5 z"
   id="path172"
   inkscape:connector-curvature="0"
   style="fill:#000000;stroke:none" />
         <path
   d="m 6454,14452 -11,5 384,183 5,-15 -384,-183 -10,5 10,-5 h -7 l -3,5 v 5 l 5,5 z"
   id="path174"
   inkscape:connector-curvature="0"
   style="fill:#000000;stroke:none" />
         <path
   d="m 6377,14592 5,10 72,-150 -16,-5 -71,150 5,10 -5,-10 v 7 l 5,3 h 8 l 2,-5 z"
   id="path176"
   inkscape:connector-curvature="0"
   style="fill:#000000;stroke:none" />
         <path
   d="m 6751,14777 10,-5 -384,-180 -5,15 384,181 10,-5 -10,5 h 7 l 3,-5 v -8 l -5,-3 z"
   id="path178"
   inkscape:connector-curvature="0"
   style="fill:#000000;stroke:none" />
         <path
   d="m 8557,15480 257,-664 -1649,-636 -257,666 z"
   id="path180"
   inkscape:connector-curvature="0"
   style="fill:#f2f2f2;stroke:none" />
         <path
   d="m 8811,14823 -5,-10 -256,664 15,5 256,-664 -5,-10 5,10 v -7 l -5,-3 h -5 l -5,5 z"
   id="path182"
   inkscape:connector-curvature="0"
   style="fill:#000000;stroke:none" />
         <path
   d="m 7173,14182 -11,5 1649,636 5,-15 -1649,-636 -10,5 10,-5 h -7 l -3,5 v 5 l 5,5 z"
   id="path184"
   inkscape:connector-curvature="0"
   style="fill:#000000;stroke:none" />
         <path
   d="m 6911,14839 5,10 257,-667 -16,-5 -256,667 5,10 -5,-10 v 7 l 5,3 h 7 l 3,-5 z"
   id="path186"
   inkscape:connector-curvature="0"
   style="fill:#000000;stroke:none" />
         <path
   d="m 8550,15477 10,-5 -1649,-633 -5,15 1649,633 10,-5 -10,5 h 7 l 3,-5 v -7 l -5,-3 z"
   id="path188"
   inkscape:connector-curvature="0"
   style="fill:#000000;stroke:none" />
         <path
   d="m 7556,14521 48,-128 -414,-160 -48,127 z"
   id="path190"
   inkscape:connector-curvature="0"
   style="fill:#d8d8d8;stroke:none" />
         <path
   d="m 7602,14401 -5,-10 -48,127 15,5 48,-127 -5,-10 5,10 v -8 l -5,-2 h -5 l -5,5 z"
   id="path192"
   inkscape:connector-curvature="0"
   style="fill:#000000;stroke:none" />
         <path
   d="m 7198,14236 -10,5 414,160 5,-15 -414,-161 -10,5 10,-5 h -8 l -2,5 v 6 l 5,5 z"
   id="path194"
   inkscape:connector-curvature="0"
   style="fill:#000000;stroke:none" />
         <path
   d="m 7145,14353 5,10 48,-127 -15,-6 -49,128 5,10 -5,-10 v 7 l 5,3 h 8 l 3,-5 z"
   id="path196"
   inkscape:connector-curvature="0"
   style="fill:#000000;stroke:none" />
         <path
   d="m 7549,14518 10,-5 -414,-160 -6,15 415,160 10,-5 -10,5 h 7 l 3,-5 v -8 l -5,-2 z"
   id="path198"
   inkscape:connector-curvature="0"
   style="fill:#000000;stroke:none" />
         <path
   d="m 7516,14856 50,-127 5,-10 8,-5 h 10 l 8,2 546,212 8,5 5,5 v 7 11 l -49,122 -5,7 -5,3 -10,2 -10,-2 -549,-209 -7,-5 -3,-5 -2,-5 z"
   id="path200"
   inkscape:connector-curvature="0"
   style="fill:#d8d8d8;stroke:none" />
         <path
   d="m 7559,14729 v -2 l -51,127 15,5 51,-127 v -3 3 -8 l -5,-2 h -5 l -5,5 z"
   id="path202"
   inkscape:connector-curvature="0"
   style="fill:#000000;stroke:none" />
         <path
   d="m 7599,14709 v 0 l -10,-3 h -13 l -12,8 -5,15 h 15 l 5,-5 3,-2 h 7 l 5,2 v 0 0 h 8 l 2,-5 v -8 z"
   id="path204"
   inkscape:connector-curvature="0"
   style="fill:#000000;stroke:none" />
         <path
   d="m 8146,14920 v 0 l -547,-211 -5,15 547,211 v 0 0 h 7 l 3,-5 v -7 z"
   id="path206"
   inkscape:connector-curvature="0"
   style="fill:#000000;stroke:none" />
         <path
   d="m 8163,14958 v -2 l 3,-11 -3,-10 -7,-10 -10,-5 -5,15 5,5 h 2 l -2,5 2,11 v -3 3 l 3,5 5,2 5,-2 2,-5 z"
   id="path208"
   inkscape:connector-curvature="0"
   style="fill:#000000;stroke:none" />
         <path
   d="m 8115,15080 v 0 l 48,-122 -15,-5 -48,122 v 0 0 8 l 5,2 h 8 z"
   id="path210"
   inkscape:connector-curvature="0"
   style="fill:#000000;stroke:none" />
         <path
   d="m 8074,15096 v 0 l 13,5 13,-5 7,-6 8,-10 -15,-5 -3,5 h -2 -8 -7 v 0 0 h -8 l -3,5 v 5 z"
   id="path212"
   inkscape:connector-curvature="0"
   style="fill:#000000;stroke:none" />
         <path
   d="m 7526,14887 v 0 l 548,209 6,-16 -549,-208 v 0 0 h -8 l -2,5 v 5 z"
   id="path214"
   inkscape:connector-curvature="0"
   style="fill:#000000;stroke:none" />
         <path
   d="m 7508,14854 v 2 8 l 2,8 6,7 10,8 5,-15 -5,-3 v -2 l -3,-3 v -8 3 -3 l -2,-5 -5,-2 -6,2 -2,5 z"
   id="path216"
   inkscape:connector-curvature="0"
   style="fill:#000000;stroke:none" />
         <path
   d="m 8430,14767 v 0 l -7,10 -6,11 -10,5 -7,5 -13,5 h -10 -15 l -11,-3 -5,16 16,2 15,5 15,-5 13,-5 12,-5 11,-10 10,-10 7,-16 v 0 z"
   id="path218"
   inkscape:connector-curvature="0"
   style="fill:#000000;stroke:none" />
         <path
   d="m 8395,14688 v 0 l 20,13 13,18 5,23 -3,25 15,5 8,-30 -10,-28 -18,-23 -25,-18 v 0 z"
   id="path220"
   inkscape:connector-curvature="0"
   style="fill:#000000;stroke:none" />
         <path
   d="m 8318,14724 v 0 l 5,-10 8,-10 10,-8 8,-5 13,-5 h 10 12 l 11,2 5,-15 -16,-2 -12,-5 -16,5 -12,5 -13,5 -10,13 -13,10 -5,15 v 0 z"
   id="path222"
   inkscape:connector-curvature="0"
   style="fill:#000000;stroke:none" />
         <path
   d="m 8351,14800 v 0 l -20,-12 -13,-18 -2,-23 2,-23 -15,-5 -8,28 8,28 18,23 25,18 v 0 z"
   id="path224"
   inkscape:connector-curvature="0"
   style="fill:#000000;stroke:none" />
         <path
   d="m 8611,14783 v 0 l -16,-13 -15,-10 -18,-8 -15,-8 -18,-5 -18,-2 -17,-3 -21,-2 v 15 l 21,2 17,3 18,3 13,5 15,7 13,8 15,10 15,13 v 0 z"
   id="path226"
   inkscape:connector-curvature="0"
   style="fill:#000000;stroke:none" />
         <path
   d="m 8743,14836 -23,-3 -21,-5 -17,-2 -13,-5 -15,-8 -13,-8 -15,-10 -15,-12 -11,15 16,13 15,10 18,7 15,8 18,5 17,3 21,5 23,2 z"
   id="path228"
   inkscape:connector-curvature="0"
   style="fill:#000000;stroke:none" />
         <path
   d="m 8605,14795 v 0 l -15,-12 -15,-11 -18,-7 -15,-8 -18,-2 -18,-6 -17,-2 -21,-3 v 16 l 21,2 17,3 18,5 13,2 15,8 13,8 15,10 15,13 v 0 z"
   id="path230"
   inkscape:connector-curvature="0"
   style="fill:#000000;stroke:none" />
         <path
   d="m 8738,14849 -23,-3 -21,-2 -15,-5 -15,-6 -15,-5 -13,-10 -15,-10 -16,-13 -10,16 16,12 15,10 18,11 15,5 15,5 20,5 21,2 23,3 z"
   id="path232"
   inkscape:connector-curvature="0"
   style="fill:#000000;stroke:none" />
         <path
   d="m 8600,14811 v 0 l -15,-13 -15,-10 -18,-11 -15,-5 -15,-5 -21,-5 h -18 l -20,-2 v 15 l 20,2 h 18 l 16,6 15,5 15,5 13,10 15,10 15,13 v 0 z"
   id="path234"
   inkscape:connector-curvature="0"
   style="fill:#000000;stroke:none" />
         <path
   d="m 8732,14861 -25,-2 -20,-3 -15,-5 -16,-5 -12,-5 -13,-8 -15,-10 -16,-12 -10,15 15,13 16,10 17,7 13,5 15,6 21,5 20,2 25,3 z"
   id="path236"
   inkscape:connector-curvature="0"
   style="fill:#000000;stroke:none" />
         <path
   d="m 8595,14823 v 0 l -15,-12 -15,-11 -18,-7 -15,-8 -18,-5 -18,-3 -18,-2 -20,-3 v 16 l 20,2 18,3 18,2 13,5 15,8 13,8 15,10 15,13 v 0 z"
   id="path238"
   inkscape:connector-curvature="0"
   style="fill:#000000;stroke:none" />
         <path
   d="m 8727,14874 -25,-2 -20,-3 -16,-5 -15,-5 -13,-5 -12,-8 -15,-10 -16,-13 -10,16 15,12 16,10 17,8 13,5 15,5 21,5 20,3 25,2 z"
   id="path240"
   inkscape:connector-curvature="0"
   style="fill:#000000;stroke:none" />
         <path
   d="m 8590,14836 v 0 l -15,-13 -15,-10 -18,-8 -15,-7 -18,-5 -18,-3 -18,-2 -20,-3 v 15 l 20,3 18,2 18,3 13,5 15,8 13,7 15,11 15,12 v 0 z"
   id="path242"
   inkscape:connector-curvature="0"
   style="fill:#000000;stroke:none" />
         <path
   d="m 8722,14889 -25,-2 -20,-5 -18,-3 -13,-5 -13,-7 -12,-8 -16,-10 -15,-13 -10,15 15,13 16,10 17,8 13,7 18,6 18,2 20,5 25,3 z"
   id="path244"
   inkscape:connector-curvature="0"
   style="fill:#000000;stroke:none" />
         <path
   d="m 8585,14849 v 0 l -15,-13 -15,-10 -18,-8 -15,-7 -18,-3 -18,-5 -18,-3 -20,-2 v 15 l 20,3 18,2 18,5 13,3 15,7 12,8 16,10 15,13 v 0 z"
   id="path246"
   inkscape:connector-curvature="0"
   style="fill:#000000;stroke:none" />
         <path
   d="m 8717,14902 -25,-2 -20,-3 -16,-5 -15,-5 -13,-5 -12,-10 -16,-11 -15,-12 -10,15 15,13 15,10 18,10 13,5 15,5 21,5 20,3 25,2 z"
   id="path248"
   inkscape:connector-curvature="0"
   style="fill:#000000;stroke:none" />
         <path
   d="m 8580,14864 v 0 l -15,-13 -15,-10 -18,-10 -15,-5 -16,-5 -20,-5 h -18 l -20,-3 v 15 l 20,3 h 18 l 15,5 15,5 16,5 12,10 16,11 15,12 v 0 z"
   id="path250"
   inkscape:connector-curvature="0"
   style="fill:#000000;stroke:none" />
         <path
   d="m 8712,14915 -25,-3 -21,-2 -15,-5 -15,-5 -13,-5 -12,-8 -16,-10 -15,-13 -10,15 15,13 15,10 18,8 13,5 15,5 20,5 21,3 25,2 z"
   id="path252"
   inkscape:connector-curvature="0"
   style="fill:#000000;stroke:none" />
         <path
   d="m 8776,14836 -5,-10 -49,127 16,5 48,-127 -5,-10 5,10 v -8 l -5,-2 h -5 l -5,5 z"
   id="path254"
   inkscape:connector-curvature="0"
   style="fill:#000000;stroke:none" />
         <path
   d="m 8659,14783 -10,5 127,48 5,-15 -127,-49 -10,5 10,-5 h -8 l -2,5 v 6 l 5,5 z"
   id="path256"
   inkscape:connector-curvature="0"
   style="fill:#000000;stroke:none" />
         <path
   d="m 8605,14900 6,10 48,-127 -15,-6 -49,128 5,10 -5,-10 v 7 l 5,3 h 8 l 3,-5 z"
   id="path258"
   inkscape:connector-curvature="0"
   style="fill:#000000;stroke:none" />
         <path
   d="m 8722,14953 10,-5 -127,-48 -5,15 127,48 11,-5 -11,5 h 8 l 3,-5 v -7 l -6,-3 z"
   id="path260"
   inkscape:connector-curvature="0"
   style="fill:#000000;stroke:none" />
         <path
   d="m 7892,15034 h 2 l 5,-2 h 10 l 13,-3 10,3 26,2 35,8 48,10 54,13 58,13 64,12 66,16 66,15 63,13 59,15 51,10 45,10 33,8 23,5 8,3 -404,501 -86,38 z"
   id="path262"
   inkscape:connector-curvature="0"
   style="fill:#f4eadb;stroke:none" />
         <path
   d="m 7922,15022 v 0 l -13,2 h -10 l -7,3 v 0 15 h 5 l 2,-2 h 10 l 13,-3 v 0 z"
   id="path264"
   inkscape:connector-curvature="0"
   style="fill:#000000;stroke:none" />
         <path
   d="m 8638,15190 -7,-13 -8,-3 -23,-5 -33,-7 -45,-10 -51,-11 -59,-15 -63,-13 -66,-15 -66,-15 -64,-13 -58,-13 -54,-12 -48,-11 -35,-7 -26,-3 -10,-2 v 15 l 10,3 26,2 35,8 48,10 54,13 58,12 64,13 66,15 66,16 63,12 59,16 51,10 45,10 33,8 23,5 8,2 -8,-13 8,13 5,-2 2,-5 -2,-6 -5,-2 z"
   id="path266"
   inkscape:connector-curvature="0"
   style="fill:#000000;stroke:none" />
         <path
   d="m 8229,15693 6,-2 403,-501 -15,-11 -404,502 5,-3 -5,3 v 7 l 5,5 5,3 6,-5 z"
   id="path268"
   inkscape:connector-curvature="0"
   style="fill:#000000;stroke:none" />
         <path
   d="m 8133,15727 10,5 86,-39 -5,-15 -86,38 10,5 -10,-5 -5,3 v 8 l 2,5 h 8 z"
   id="path270"
   inkscape:connector-curvature="0"
   style="fill:#000000;stroke:none" />
         <path
   d="m 7892,15027 -8,10 249,690 15,-6 -249,-689 -7,10 7,-10 -2,-5 h -8 l -5,2 v 8 z"
   id="path272"
   inkscape:connector-curvature="0"
   style="fill:#000000;stroke:none" />
         <path
   d="m 9167,14569 h -3 l -5,5 -7,5 -10,8 -8,7 -18,23 -25,31 -36,38 -38,46 -43,51 -46,53 -46,53 -48,56 -46,54 -40,51 -38,43 -33,38 -26,28 -15,18 -5,8 688,99 87,-36 z"
   id="path274"
   inkscape:connector-curvature="0"
   style="fill:#f4eadb;stroke:none" />
         <path
   d="m 9147,14592 v 2 l 10,-7 7,-5 5,-6 v 0 l -5,-15 h -5 l -5,5 -7,5 -11,8 v 3 z"
   id="path276"
   inkscape:connector-curvature="0"
   style="fill:#000000;stroke:none" />
         <path
   d="m 8631,15177 7,13 6,-8 12,-18 26,-28 35,-38 38,-43 41,-51 46,-53 48,-56 46,-54 45,-53 44,-51 38,-46 33,-38 28,-31 18,-23 5,-7 -11,-10 -10,7 -18,23 -22,31 -38,38 -39,46 -43,50 -46,54 -45,53 -49,56 -45,54 -41,51 -38,43 -30,38 -26,28 -18,18 -5,7 8,13 -8,-13 v 8 l 5,5 5,3 5,-5 z"
   id="path278"
   inkscape:connector-curvature="0"
   style="fill:#000000;stroke:none" />
         <path
   d="m 9317,15276 h 2 l -688,-99 v 15 l 688,99 h 3 -3 l 5,-2 3,-5 -3,-5 -5,-3 z"
   id="path280"
   inkscape:connector-curvature="0"
   style="fill:#000000;stroke:none" />
         <path
   d="m 9398,15251 5,-10 -86,35 5,15 86,-35 5,-10 -5,10 5,-5 v -5 l -2,-5 h -8 z"
   id="path282"
   inkscape:connector-curvature="0"
   style="fill:#000000;stroke:none" />
         <path
   d="m 9169,14576 -10,-5 239,680 15,-5 -238,-680 -11,-5 11,5 -3,-5 h -8 l -5,3 v 7 z"
   id="path284"
   inkscape:connector-curvature="0"
   style="fill:#000000;stroke:none" />
         <path
   d="m 8141,15724 5,-5 12,-18 23,-25 28,-33 33,-39 38,-43 41,-48 41,-49 43,-48 40,-48 38,-46 36,-41 31,-35 25,-28 15,-21 10,-10 18,-18 15,-7 16,-3 h 15 l 10,3 28,2 38,5 48,5 56,8 64,8 66,7 68,8 69,10 66,8 61,7 56,8 48,5 36,3 23,5 h 7 z"
   id="path286"
   inkscape:connector-curvature="0"
   style="fill:#f4eadb;stroke:none" />
         <path
   d="m 8593,15182 h 2 l -12,10 -16,21 -25,28 -31,35 -35,41 -38,46 -41,48 -43,48 -41,49 -40,48 -38,43 -34,38 -27,34 -23,25 -13,18 -5,5 15,10 5,-5 13,-18 23,-25 28,-33 33,-38 38,-44 41,-48 40,-48 43,-49 41,-48 38,-46 36,-41 30,-35 26,-28 15,-21 7,-10 h 3 z"
   id="path288"
   inkscape:connector-curvature="0"
   style="fill:#000000;stroke:none" />
         <path
   d="m 8664,15152 v 0 h -15 l -18,2 -18,8 -20,20 15,10 15,-15 13,-8 13,-2 h 15 v 0 z"
   id="path290"
   inkscape:connector-curvature="0"
   style="fill:#000000;stroke:none" />
         <path
   d="m 9411,15258 -3,-15 h -7 l -23,-5 -36,-3 -48,-5 -56,-7 -61,-8 -66,-8 -69,-10 -68,-7 -66,-8 -64,-8 -56,-7 -48,-5 -38,-5 -28,-3 -10,-2 v 15 l 10,2 28,3 38,5 48,5 56,8 64,7 66,8 68,8 69,10 66,7 61,8 56,8 48,5 36,2 23,5 h 7 l -2,-15 2,15 5,-2 3,-5 -3,-5 -5,-3 z"
   id="path292"
   inkscape:connector-curvature="0"
   style="fill:#000000;stroke:none" />
         <path
   d="m 8133,15719 10,13 1268,-474 -5,-15 -1268,473 10,13 -10,-13 -5,3 v 8 l 2,5 h 8 z"
   id="path294"
   inkscape:connector-curvature="0"
   style="fill:#000000;stroke:none" />
         <path
   d="m 7892,15034 764,194 511,-659 z"
   id="path296"
   inkscape:connector-curvature="0"
   style="fill:#f4eadb;stroke:none" />
         <path
   d="m 8649,15223 7,-3 -764,-193 v 15 l 764,193 8,-2 -8,2 5,-2 3,-5 -3,-5 -5,-3 z"
   id="path298"
   inkscape:connector-curvature="0"
   style="fill:#000000;stroke:none" />
         <path
   d="m 9169,14576 -10,-12 -510,659 15,10 511,-659 -11,-13 11,13 v -8 l -3,-5 -8,-2 -5,5 z"
   id="path300"
   inkscape:connector-curvature="0"
   style="fill:#000000;stroke:none" />
         <path
   d="m 7892,15027 2,15 1275,-466 -5,-15 -1275,466 3,15 -3,-15 -5,2 v 8 l 2,5 h 8 z"
   id="path302"
   inkscape:connector-curvature="0"
   style="fill:#000000;stroke:none" />
         <path
   d="m 12871,15085 -124,-702 -1741,313 127,702 z"
   id="path304"
   inkscape:connector-curvature="0"
   style="fill:#f2f2f2;stroke:none" />
         <path
   d="m 12747,14391 -8,-8 125,702 h 15 l -125,-702 -7,-8 7,8 -2,-5 -5,-3 -5,3 -3,5 z"
   id="path306"
   inkscape:connector-curvature="0"
   style="fill:#000000;stroke:none" />
         <path
   d="m 11014,14696 -8,8 1741,-313 v -16 l -1741,313 -7,8 7,-8 -5,3 -2,5 2,5 5,3 z"
   id="path308"
   inkscape:connector-curvature="0"
   style="fill:#000000;stroke:none" />
         <path
   d="m 11133,15391 8,7 -127,-702 h -15 l 127,702 7,8 -7,-8 2,5 5,3 5,-3 3,-5 z"
   id="path310"
   inkscape:connector-curvature="0"
   style="fill:#000000;stroke:none" />
         <path
   d="m 12864,15085 7,-7 -1738,313 v 15 l 1738,-313 8,-8 -8,8 5,-3 3,-5 -3,-5 -5,-2 z"
   id="path312"
   inkscape:connector-curvature="0"
   style="fill:#000000;stroke:none" />
         <path
   d="m 11657,15090 -23,-132 v -10 l 5,-8 8,-5 7,-2 574,-105 h 11 l 7,3 5,8 3,7 25,132 v 8 l -5,8 -7,5 -11,2 -576,102 h -8 -8 l -5,-5 z"
   id="path314"
   inkscape:connector-curvature="0"
   style="fill:#d8d8d8;stroke:none" />
         <path
   d="m 11626,14961 v -3 l 23,132 h 15 l -22,-132 v -2 2 l -3,-5 -5,-2 -5,2 -3,5 z"
   id="path316"
   inkscape:connector-curvature="0"
   style="fill:#000000;stroke:none" />
         <path
   d="m 11654,14925 v 0 l -10,3 -10,7 -8,10 v 16 l 16,-5 v -5 l 2,-6 5,-2 5,-3 v 0 0 l 5,-2 3,-5 -3,-5 z"
   id="path318"
   inkscape:connector-curvature="0"
   style="fill:#000000;stroke:none" />
         <path
   d="m 12228,14821 v 0 l -574,104 v 15 l 574,-104 v 0 0 l 5,-3 3,-5 -3,-5 z"
   id="path320"
   inkscape:connector-curvature="0"
   style="fill:#000000;stroke:none" />
         <path
   d="m 12261,14846 v 0 l -2,-10 -8,-13 -12,-2 h -11 v 15 h 11 l 2,3 3,2 2,5 v 0 0 l 3,5 5,3 5,-3 z"
   id="path322"
   inkscape:connector-curvature="0"
   style="fill:#000000;stroke:none" />
         <path
   d="m 12289,14978 h -2 l -26,-132 h -15 l 26,132 h -3 3 l 2,6 5,2 5,-2 3,-6 z"
   id="path324"
   inkscape:connector-curvature="0"
   style="fill:#000000;stroke:none" />
         <path
   d="m 12256,15009 v 0 l 13,-3 10,-7 8,-10 2,-11 h -20 l 3,6 -3,5 -5,2 -8,3 v 0 0 l -5,2 -2,5 2,5 z"
   id="path326"
   inkscape:connector-curvature="0"
   style="fill:#000000;stroke:none" />
         <path
   d="m 11680,15111 v 0 l 576,-102 v -15 l -576,102 v 0 0 l -5,2 -3,5 3,5 z"
   id="path328"
   inkscape:connector-curvature="0"
   style="fill:#000000;stroke:none" />
         <path
   d="m 11649,15090 v 0 l 3,13 10,8 10,2 8,-2 v -15 l -8,-3 -5,3 v -3 l -3,-3 v 0 0 l -2,-5 -5,-2 -5,2 z"
   id="path330"
   inkscape:connector-curvature="0"
   style="fill:#000000;stroke:none" />
         <path
   d="m 12391,14541 v 0 28 l -10,18 -15,15 -21,10 v 15 l 31,-10 20,-20 10,-28 v -28 0 z"
   id="path332"
   inkscape:connector-curvature="0"
   style="fill:#000000;stroke:none" />
         <path
   d="m 12322,14495 v 0 h 13 10 l 13,5 10,5 5,5 8,11 7,10 3,10 h 15 l -2,-15 -8,-16 -8,-10 -10,-10 -15,-5 -13,-5 -15,-5 -13,5 v 0 z"
   id="path334"
   inkscape:connector-curvature="0"
   style="fill:#000000;stroke:none" />
         <path
   d="m 12274,14566 v 0 -28 l 10,-17 18,-16 20,-10 v -15 l -30,10 -23,20 -10,28 v 28 0 z"
   id="path336"
   inkscape:connector-curvature="0"
   style="fill:#000000;stroke:none" />
         <path
   d="m 12345,14612 v 0 h -15 -10 l -13,-5 -7,-5 -11,-5 -5,-8 -5,-13 -5,-10 h -15 l 5,16 5,12 10,13 10,10 13,5 13,5 15,5 15,-5 v 0 z"
   id="path338"
   inkscape:connector-curvature="0"
   style="fill:#000000;stroke:none" />
         <path
   d="m 12556,14465 v 0 l -20,-3 -18,-3 -18,3 -18,3 -15,2 -18,5 -17,8 -18,10 5,15 18,-10 18,-8 12,-5 15,-2 18,-3 18,3 18,-3 20,3 v 0 z"
   id="path340"
   inkscape:connector-curvature="0"
   style="fill:#000000;stroke:none" />
         <path
   d="m 12698,14437 -22,10 -18,10 -15,5 -18,3 -15,2 -16,-2 -18,2 -20,-2 v 15 l 20,2 18,3 16,-3 15,-2 18,-3 20,-5 18,-10 23,-10 z"
   id="path342"
   inkscape:connector-curvature="0"
   style="fill:#000000;stroke:none" />
         <path
   d="m 12559,14477 v 0 l -21,-2 -17,-3 -18,3 -18,2 -15,3 -18,5 -18,8 -18,10 6,15 17,-10 18,-8 13,-5 15,-2 18,-3 18,3 17,-3 21,3 v 0 z"
   id="path344"
   inkscape:connector-curvature="0"
   style="fill:#000000;stroke:none" />
         <path
   d="m 12701,14452 -23,10 -18,8 -17,5 -16,5 -15,-3 h -15 l -18,3 -20,-3 v 16 l 20,2 18,3 h 15 l 15,-3 21,-5 17,-5 18,-8 23,-10 z"
   id="path346"
   inkscape:connector-curvature="0"
   style="fill:#000000;stroke:none" />
         <path
   d="m 12561,14493 v 0 l -20,-3 -18,-3 -18,3 -17,3 -16,2 -17,5 -18,8 -18,10 5,15 18,-10 18,-8 12,-5 16,-2 17,-3 18,3 18,-3 20,3 v 0 z"
   id="path348"
   inkscape:connector-curvature="0"
   style="fill:#000000;stroke:none" />
         <path
   d="m 12704,14465 -23,10 -18,10 -15,5 -18,3 -15,2 -16,-2 -17,2 -21,-2 v 15 l 21,2 17,3 16,-3 15,-2 18,-3 20,-5 18,-10 23,-10 z"
   id="path350"
   inkscape:connector-curvature="0"
   style="fill:#000000;stroke:none" />
         <path
   d="m 12564,14505 v 0 l -21,-2 -17,-3 -18,3 -18,2 -18,5 -15,5 -18,8 -17,8 5,15 17,-8 18,-7 15,-5 13,-5 18,-3 18,3 17,-3 21,3 v 0 z"
   id="path352"
   inkscape:connector-curvature="0"
   style="fill:#000000;stroke:none" />
         <path
   d="m 12706,14480 -23,10 -18,8 -17,5 -16,5 -15,-3 h -15 l -18,3 -20,-3 v 16 l 20,2 18,3 h 15 l 15,-3 21,-5 17,-5 18,-8 23,-10 z"
   id="path354"
   inkscape:connector-curvature="0"
   style="fill:#000000;stroke:none" />
         <path
   d="m 12566,14521 v 0 l -20,-3 -18,-3 -18,3 -17,3 -16,2 -17,5 -18,8 -18,10 5,15 18,-10 18,-8 12,-5 16,-2 17,-3 18,3 18,-3 20,3 v 0 z"
   id="path356"
   inkscape:connector-curvature="0"
   style="fill:#000000;stroke:none" />
         <path
   d="m 12709,14493 -23,10 -18,10 -15,5 -18,3 -15,2 -16,-2 -17,2 -21,-2 v 15 l 21,2 17,3 16,-3 15,-2 18,-3 20,-5 18,-10 23,-10 z"
   id="path358"
   inkscape:connector-curvature="0"
   style="fill:#000000;stroke:none" />
         <path
   d="m 12569,14533 v 0 l -20,-2 -18,-3 -18,3 -18,2 -18,5 -15,5 -18,8 -17,8 5,15 17,-8 18,-7 15,-5 13,-6 18,-2 18,2 18,-2 20,2 v 0 z"
   id="path360"
   inkscape:connector-curvature="0"
   style="fill:#000000;stroke:none" />
         <path
   d="m 12711,14508 -23,10 -18,8 -17,5 -16,5 -15,-3 h -15 l -18,3 -20,-3 v 15 l 20,3 18,3 h 15 l 15,-3 21,-5 18,-5 17,-8 23,-10 z"
   id="path362"
   inkscape:connector-curvature="0"
   style="fill:#000000;stroke:none" />
         <path
   d="m 12571,14548 v 0 l -20,-2 -18,-3 -17,3 -18,2 -16,3 -17,5 -18,8 -18,10 5,15 18,-10 18,-8 12,-5 16,-2 18,-3 17,3 18,-3 20,3 v 0 z"
   id="path364"
   inkscape:connector-curvature="0"
   style="fill:#000000;stroke:none" />
         <path
   d="m 12714,14521 -23,10 -18,10 -15,5 -18,2 -15,3 -15,-3 -18,3 -21,-3 v 16 l 21,2 18,3 15,-3 15,-2 18,-3 20,-5 18,-10 23,-10 z"
   id="path366"
   inkscape:connector-curvature="0"
   style="fill:#000000;stroke:none" />
         <path
   d="m 12721,14421 -7,-7 25,134 h 15 l -25,-134 -8,-8 8,8 -3,-5 -5,-3 -5,3 -2,5 z"
   id="path368"
   inkscape:connector-curvature="0"
   style="fill:#000000;stroke:none" />
         <path
   d="m 12597,14439 -8,8 132,-26 v -15 l -132,25 -7,8 7,-8 -5,3 -2,5 2,5 5,3 z"
   id="path370"
   inkscape:connector-curvature="0"
   style="fill:#000000;stroke:none" />
         <path
   d="m 12612,14564 8,7 -23,-132 h -15 l 22,132 8,8 -8,-8 3,5 5,3 5,-3 3,-5 z"
   id="path372"
   inkscape:connector-curvature="0"
   style="fill:#000000;stroke:none" />
         <path
   d="m 12739,14548 8,-7 -135,23 v 15 l 135,-23 7,-8 -7,8 5,-2 2,-6 -2,-5 -5,-2 z"
   id="path374"
   inkscape:connector-curvature="0"
   style="fill:#000000;stroke:none" />
         <path
   d="m 5140,14439 h 3 5 10 l 12,3 11,2 23,10 33,16 43,20 51,23 55,25 59,28 61,28 58,31 59,28 56,25 48,23 41,21 30,15 20,10 8,2 -506,397 -91,18 z"
   id="path376"
   inkscape:connector-curvature="0"
   style="fill:#f4eadb;stroke:none" />
         <path
   d="m 5170,14431 v 3 l -12,-3 -10,-2 h -5 -3 v 20 h 3 5 l 10,-2 12,2 v 3 z"
   id="path378"
   inkscape:connector-curvature="0"
   style="fill:#000000;stroke:none" />
         <path
   d="m 5831,14757 -2,-15 -8,-3 -20,-10 -31,-15 -41,-20 -48,-23 -56,-26 -58,-28 -59,-30 -61,-28 -58,-28 -56,-26 -51,-23 -43,-20 -33,-15 -23,-10 -13,-6 v 21 h 8 l 23,10 33,15 43,21 51,23 56,25 58,28 61,28 59,30 58,28 56,26 48,23 41,20 30,15 21,11 7,2 -2,-15 2,15 h 8 l 3,-5 v -8 l -5,-2 z"
   id="path380"
   inkscape:connector-curvature="0"
   style="fill:#000000;stroke:none" />
         <path
   d="m 5320,15154 h 5 l 506,-397 -10,-15 -506,397 h 5 -5 l -5,5 3,5 5,5 h 7 z"
   id="path382"
   inkscape:connector-curvature="0"
   style="fill:#000000;stroke:none" />
         <path
   d="m 5221,15164 8,8 91,-18 v -15 l -91,18 8,7 -8,-7 -5,2 -3,5 3,5 5,3 z"
   id="path384"
   inkscape:connector-curvature="0"
   style="fill:#000000;stroke:none" />
         <path
   d="m 5140,14429 -8,10 89,725 h 16 l -89,-725 -8,10 8,-10 -3,-5 -5,-3 -5,3 -3,5 z"
   id="path386"
   inkscape:connector-curvature="0"
   style="fill:#000000;stroke:none" />
         <path
   d="m 6487,14269 h -3 l -5,2 -8,5 -12,5 -11,8 -20,15 -33,23 -41,31 -48,35 -53,41 -59,41 -58,43 -59,43 -55,43 -51,39 -48,35 -41,28 -31,23 -17,15 -8,5 648,255 94,-18 z"
   id="path388"
   inkscape:connector-curvature="0"
   style="fill:#f4eadb;stroke:none" />
         <path
   d="m 6461,14289 v 0 l 13,-5 10,-5 3,-3 v 0 -15 h -6 l -7,3 -5,5 -13,5 v 0 z"
   id="path390"
   inkscape:connector-curvature="0"
   style="fill:#000000;stroke:none" />
         <path
   d="m 5829,14742 2,15 8,-5 17,-15 31,-23 41,-28 48,-36 51,-38 56,-43 58,-43 58,-44 59,-40 53,-41 49,-36 40,-30 33,-23 21,-15 7,-8 -5,-15 -13,7 -20,16 -33,22 -41,31 -48,36 -53,40 -59,41 -58,43 -59,44 -55,43 -51,38 -49,36 -40,28 -31,23 -17,15 -8,5 2,15 -2,-15 -5,5 2,5 5,5 h 8 z"
   id="path392"
   inkscape:connector-curvature="0"
   style="fill:#000000;stroke:none" />
         <path
   d="m 6474,14996 h 2 l -647,-254 -6,15 648,255 h 3 -3 8 l 2,-6 v -7 l -5,-3 z"
   id="path394"
   inkscape:connector-curvature="0"
   style="fill:#000000;stroke:none" />
         <path
   d="m 6560,14986 8,-8 -94,18 v 16 l 94,-18 7,-8 -7,8 5,-3 2,-5 -2,-5 -5,-3 z"
   id="path396"
   inkscape:connector-curvature="0"
   style="fill:#000000;stroke:none" />
         <path
   d="m 6487,14276 -8,-7 81,717 h 15 l -81,-717 -7,-8 7,8 -2,-5 -5,-3 -6,3 -2,5 z"
   id="path398"
   inkscape:connector-curvature="0"
   style="fill:#000000;stroke:none" />
         <path
   d="m 5229,15164 5,-5 18,-13 28,-17 33,-28 43,-28 46,-36 48,-36 53,-38 51,-38 51,-38 48,-33 43,-33 39,-28 30,-23 23,-15 10,-8 20,-13 16,-5 h 15 l 15,5 10,5 26,8 35,13 46,17 56,21 58,20 64,23 66,23 63,23 64,23 58,20 54,21 43,15 33,12 23,8 7,3 z"
   id="path400"
   inkscape:connector-curvature="0"
   style="fill:#f4eadb;stroke:none" />
         <path
   d="m 5793,14739 v 0 l -10,8 -23,15 -31,23 -38,28 -43,33 -48,33 -51,38 -51,39 -53,38 -48,35 -46,36 -43,28 -33,28 -28,18 -18,13 -5,5 10,15 5,-5 18,-13 28,-18 33,-28 43,-28 46,-35 48,-36 53,-38 51,-38 51,-38 48,-34 43,-33 39,-28 30,-23 23,-15 10,-7 v 0 z"
   id="path402"
   inkscape:connector-curvature="0"
   style="fill:#000000;stroke:none" />
         <path
   d="m 5867,14727 v 0 l -18,-5 h -15 l -18,5 -23,12 10,16 18,-13 13,-5 h 15 l 13,5 v 0 z"
   id="path404"
   inkscape:connector-curvature="0"
   style="fill:#000000;stroke:none" />
         <path
   d="m 6570,14996 3,-15 -8,-3 -23,-7 -33,-13 -43,-15 -53,-20 -59,-21 -63,-23 -64,-23 -66,-23 -63,-22 -59,-21 -56,-20 -45,-18 -36,-13 -25,-7 -10,-5 -5,15 10,5 25,8 36,12 45,18 56,20 59,21 63,23 66,23 64,23 63,22 59,21 53,20 43,15 33,13 23,8 8,2 2,-15 -2,15 h 7 l 3,-5 v -7 l -5,-3 z"
   id="path406"
   inkscape:connector-curvature="0"
   style="fill:#000000;stroke:none" />
         <path
   d="m 5224,15157 5,15 1341,-176 v -15 l -1341,176 5,15 -5,-15 -5,2 -3,5 3,5 5,3 z"
   id="path408"
   inkscape:connector-curvature="0"
   style="fill:#000000;stroke:none" />
         <path
   d="m 5140,14439 701,359 646,-529 z"
   id="path410"
   inkscape:connector-curvature="0"
   style="fill:#f4eadb;stroke:none" />
         <path
   d="m 5836,14790 h 8 l -701,-359 -6,16 702,358 h 7 -7 7 l 3,-5 v -7 l -5,-3 z"
   id="path412"
   inkscape:connector-curvature="0"
   style="fill:#000000;stroke:none" />
         <path
   d="m 6487,14276 -6,-15 -645,529 10,15 646,-529 -5,-15 5,15 5,-5 -3,-7 -5,-3 h -8 z"
   id="path414"
   inkscape:connector-curvature="0"
   style="fill:#000000;stroke:none" />
         <path
   d="m 5143,14431 -3,16 1347,-171 v -15 l -1347,170 -3,16 3,-16 -5,3 -3,5 3,5 5,3 z"
   id="path416"
   inkscape:connector-curvature="0"
   style="fill:#000000;stroke:none" />
         <path
   d="m 12150,14933 h 2 5 l 8,2 13,3 10,5 23,10 33,18 40,23 51,25 53,28 56,31 61,33 59,30 56,33 53,28 48,26 38,23 31,15 20,10 8,5 -529,369 -94,13 z"
   id="path418"
   inkscape:connector-curvature="0"
   style="fill:#f4eadb;stroke:none" />
         <path
   d="m 12178,14930 h 2 l -15,-2 -8,-3 -5,-2 h -2 v 20 h 2 l 5,-3 8,3 10,2 h 3 z"
   id="path420"
   inkscape:connector-curvature="0"
   style="fill:#000000;stroke:none" />
         <path
   d="m 12823,15289 -3,-15 -7,-5 -21,-11 -30,-15 -38,-23 -48,-25 -54,-28 -56,-33 -58,-31 -61,-33 -56,-30 -53,-28 -51,-26 -41,-23 -33,-18 -23,-10 -12,-5 v 15 l 7,6 23,10 33,17 41,23 51,26 53,28 56,30 61,33 58,31 56,33 53,28 49,25 38,23 30,16 21,10 7,5 -2,-15 2,15 h 8 l 2,-5 v -8 l -5,-2 z"
   id="path422"
   inkscape:connector-curvature="0"
   style="fill:#000000;stroke:none" />
         <path
   d="m 12289,15658 h 5 l 529,-369 -10,-15 -529,369 h 5 -5 l -5,5 3,5 5,5 h 7 z"
   id="path424"
   inkscape:connector-curvature="0"
   style="fill:#000000;stroke:none" />
         <path
   d="m 12188,15663 7,8 94,-13 v -15 l -94,12 8,8 -8,-8 -5,3 -2,5 2,5 5,3 z"
   id="path426"
   inkscape:connector-curvature="0"
   style="fill:#000000;stroke:none" />
         <path
   d="m 12150,14923 -8,10 46,730 h 15 l -46,-730 -7,10 7,-10 -2,-5 -5,-3 -5,3 -3,5 z"
   id="path428"
   inkscape:connector-curvature="0"
   style="fill:#000000;stroke:none" />
         <path
   d="m 13504,14841 h -3 l -5,3 -7,2 -13,5 -10,5 -23,16 -36,23 -40,28 -51,33 -56,35 -59,38 -60,41 -61,38 -59,38 -53,36 -51,33 -41,28 -30,20 -21,13 -7,5 630,290 94,-10 z"
   id="path430"
   inkscape:connector-curvature="0"
   style="fill:#f4eadb;stroke:none" />
         <path
   d="m 13478,14859 v 0 l 13,-5 8,-3 5,-2 v 0 -16 h -5 l -5,3 -8,3 -13,5 v 0 z"
   id="path432"
   inkscape:connector-curvature="0"
   style="fill:#000000;stroke:none" />
         <path
   d="m 12820,15274 3,15 8,-5 20,-13 30,-20 41,-28 51,-33 53,-36 59,-38 61,-38 61,-41 58,-38 56,-36 51,-33 40,-28 36,-23 23,-15 7,-5 -5,-15 -12,5 -23,15 -36,23 -40,28 -51,33 -56,36 -59,38 -61,40 -61,39 -58,38 -53,35 -51,33 -41,28 -30,21 -21,13 -7,5 2,15 -2,-15 -5,5 2,5 5,5 h 8 z"
   id="path434"
   inkscape:connector-curvature="0"
   style="fill:#000000;stroke:none" />
         <path
   d="m 13448,15564 h 2 l -630,-290 -5,15 630,290 h 3 -3 8 l 3,-5 v -8 l -6,-2 z"
   id="path436"
   inkscape:connector-curvature="0"
   style="fill:#000000;stroke:none" />
         <path
   d="m 13534,15561 8,-7 -94,10 v 15 l 94,-10 8,-8 -8,8 5,-3 3,-5 -3,-5 -5,-2 z"
   id="path438"
   inkscape:connector-curvature="0"
   style="fill:#000000;stroke:none" />
         <path
   d="m 13504,14849 -8,-8 38,720 h 16 l -39,-720 -7,-8 7,8 -2,-5 -5,-3 -5,3 -3,5 z"
   id="path440"
   inkscape:connector-curvature="0"
   style="fill:#000000;stroke:none" />
         <path
   d="m 12195,15663 5,-5 21,-10 25,-18 38,-26 43,-28 49,-30 51,-36 53,-33 53,-35 54,-36 50,-33 46,-28 38,-26 33,-20 21,-15 12,-8 21,-10 17,-5 16,2 12,6 11,5 25,10 36,15 45,18 54,23 58,25 61,26 64,28 63,28 61,25 58,26 51,20 43,20 34,13 20,10 7,3 z"
   id="path442"
   inkscape:connector-curvature="0"
   style="fill:#f4eadb;stroke:none" />
         <path
   d="m 12782,15269 v 0 l -12,7 -21,15 -33,21 -38,25 -46,28 -50,33 -54,36 -53,36 -53,33 -51,35 -49,31 -43,28 -38,25 -25,18 -21,10 -5,5 10,16 6,-6 20,-10 25,-18 38,-25 44,-28 48,-30 51,-36 53,-33 53,-36 54,-35 51,-33 45,-28 38,-26 33,-20 21,-16 12,-7 v 0 z"
   id="path444"
   inkscape:connector-curvature="0"
   style="fill:#000000;stroke:none" />
         <path
   d="m 12856,15261 v 0 l -13,-5 -18,-3 -20,5 -23,11 10,15 18,-10 15,-5 13,2 13,5 v 0 z"
   id="path446"
   inkscape:connector-curvature="0"
   style="fill:#000000;stroke:none" />
         <path
   d="m 13544,15571 3,-15 -8,-2 -20,-11 -33,-12 -43,-21 -51,-20 -58,-26 -61,-25 -64,-28 -63,-28 -61,-25 -59,-26 -53,-23 -46,-18 -35,-15 -26,-10 -10,-5 -5,15 10,5 25,10 36,16 46,18 53,22 59,26 61,25 63,28 64,28 61,26 58,25 51,21 43,20 33,13 20,10 8,2 2,-15 -2,15 h 8 l 2,-5 v -7 l -5,-3 z"
   id="path448"
   inkscape:connector-curvature="0"
   style="fill:#000000;stroke:none" />
         <path
   d="m 12190,15655 5,16 1349,-100 v -15 l -1349,99 5,16 -5,-16 -5,3 -2,5 2,5 5,3 z"
   id="path450"
   inkscape:connector-curvature="0"
   style="fill:#000000;stroke:none" />
         <path
   d="m 12150,14933 681,397 673,-489 z"
   id="path452"
   inkscape:connector-curvature="0"
   style="fill:#f4eadb;stroke:none" />
         <path
   d="m 12825,15322 h 11 l -681,-397 -10,15 680,397 h 11 -11 8 l 5,-5 3,-5 -5,-5 z"
   id="path454"
   inkscape:connector-curvature="0"
   style="fill:#000000;stroke:none" />
         <path
   d="m 13504,14849 -5,-16 -674,489 11,15 673,-488 -5,-16 5,16 5,-5 -3,-8 -5,-3 h -7 z"
   id="path456"
   inkscape:connector-curvature="0"
   style="fill:#000000;stroke:none" />
         <path
   d="m 12155,14925 -5,15 1354,-91 v -16 l -1354,92 -5,15 5,-15 -5,3 -3,5 3,5 5,2 z"
   id="path458"
   inkscape:connector-curvature="0"
   style="fill:#000000;stroke:none" />
         <path
   d="m 15691,15541 168,-695 -1720,-412 -168,692 z"
   id="path460"
   inkscape:connector-curvature="0"
   style="fill:#f2f2f2;stroke:none" />
         <path
   d="m 15859,14854 -8,-8 -167,695 h 15 l 168,-695 -8,-7 8,7 -3,-5 -5,-2 -5,2 -3,5 z"
   id="path462"
   inkscape:connector-curvature="0"
   style="fill:#000000;stroke:none" />
         <path
   d="m 14147,14434 -8,8 1720,412 v -15 l -1720,-413 -8,8 8,-8 -5,3 -3,5 3,5 5,3 z"
   id="path464"
   inkscape:connector-curvature="0"
   style="fill:#000000;stroke:none" />
         <path
   d="m 13971,15118 8,8 168,-692 h -16 l -167,692 7,8 -7,-8 2,5 5,3 5,-3 3,-5 z"
   id="path466"
   inkscape:connector-curvature="0"
   style="fill:#000000;stroke:none" />
         <path
   d="m 15684,15541 7,-8 -1720,-415 v 16 l 1720,414 8,-7 -8,7 5,-2 3,-5 -3,-5 -5,-3 z"
   id="path468"
   inkscape:connector-curvature="0"
   style="fill:#000000;stroke:none" />
         <path
   d="m 14581,14749 33,-134 -432,-105 -33,135 z"
   id="path470"
   inkscape:connector-curvature="0"
   style="fill:#d8d8d8;stroke:none" />
         <path
   d="m 14614,14622 -8,-7 -33,134 h 16 l 33,-134 -8,-8 8,8 -3,-5 -5,-3 -5,3 -3,5 z"
   id="path472"
   inkscape:connector-curvature="0"
   style="fill:#000000;stroke:none" />
         <path
   d="m 14190,14510 -8,8 432,104 v -15 l -432,-104 -7,7 7,-7 -5,2 -2,5 2,5 5,3 z"
   id="path474"
   inkscape:connector-curvature="0"
   style="fill:#000000;stroke:none" />
         <path
   d="m 14149,14638 8,7 33,-135 h -15 l -33,135 7,8 -7,-8 2,5 5,3 5,-3 3,-5 z"
   id="path476"
   inkscape:connector-curvature="0"
   style="fill:#000000;stroke:none" />
         <path
   d="m 14573,14749 8,-7 -432,-104 v 15 l 432,104 8,-8 -8,8 5,-2 3,-6 -3,-5 -5,-2 z"
   id="path478"
   inkscape:connector-curvature="0"
   style="fill:#000000;stroke:none" />
         <path
   d="m 14576,15057 33,-132 5,-10 8,-5 h 7 8 l 569,135 8,2 5,5 2,8 v 10 l -30,132 -3,5 -7,6 -8,2 h -10 l -572,-137 -7,-3 -5,-5 -3,-5 z"
   id="path480"
   inkscape:connector-curvature="0"
   style="fill:#d8d8d8;stroke:none" />
         <path
   d="m 14601,14923 v 2 l -33,132 h 16 l 33,-132 v 3 -3 l -3,-5 -5,-3 -5,3 -3,5 z"
   id="path482"
   inkscape:connector-curvature="0"
   style="fill:#000000;stroke:none" />
         <path
   d="m 14637,14902 v 0 l -8,-2 -10,2 -13,8 -5,13 16,5 5,-8 2,-3 5,3 8,-3 v 0 0 l 5,-2 3,-5 -3,-5 z"
   id="path484"
   inkscape:connector-curvature="0"
   style="fill:#000000;stroke:none" />
         <path
   d="m 15206,15037 v 0 l -569,-135 v 15 l 569,135 v 0 0 l 5,-2 3,-5 -3,-5 z"
   id="path486"
   inkscape:connector-curvature="0"
   style="fill:#000000;stroke:none" />
         <path
   d="m 15229,15070 v 0 -10 l -3,-13 -7,-7 -13,-3 v 15 l 3,3 2,2 3,3 v 10 0 0 l 2,5 5,3 5,-3 z"
   id="path488"
   inkscape:connector-curvature="0"
   style="fill:#000000;stroke:none" />
         <path
   d="m 15198,15205 v -3 l 31,-132 h -15 l -31,132 v -2 2 l 3,5 5,3 5,-3 2,-5 z"
   id="path490"
   inkscape:connector-curvature="0"
   style="fill:#000000;stroke:none" />
         <path
   d="m 15163,15223 v 0 h 10 l 10,-3 10,-7 5,-8 -15,-5 v 2 l -5,3 -5,2 h -10 v 0 0 l -5,3 -3,5 3,5 z"
   id="path492"
   inkscape:connector-curvature="0"
   style="fill:#000000;stroke:none" />
         <path
   d="m 14591,15085 v 0 l 572,138 v -16 l -572,-137 v 0 0 l -5,3 -2,5 2,5 z"
   id="path494"
   inkscape:connector-curvature="0"
   style="fill:#000000;stroke:none" />
         <path
   d="m 14568,15057 v 0 8 l 3,10 8,8 12,2 v -15 l -2,-2 -3,-3 h -2 v -8 0 0 l -3,-5 -5,-2 -5,2 z"
   id="path496"
   inkscape:connector-curvature="0"
   style="fill:#000000;stroke:none" />
         <path
   d="m 15470,14851 v -2 l -5,12 -7,8 -6,10 -10,5 -10,8 -10,3 h -13 -12 v 15 l 12,5 13,-5 15,-3 15,-7 11,-11 10,-10 7,-12 6,-13 v -3 z"
   id="path498"
   inkscape:connector-curvature="0"
   style="fill:#000000;stroke:none" />
         <path
   d="m 15427,14777 h -2 l 20,13 15,15 10,21 v 25 h 16 v -25 l -11,-31 -20,-20 -25,-13 h -3 z"
   id="path500"
   inkscape:connector-curvature="0"
   style="fill:#000000;stroke:none" />
         <path
   d="m 15353,14821 v 0 l 5,-10 6,-11 7,-7 8,-8 13,-5 10,-3 h 12 13 v -15 l -13,-5 -12,5 -16,3 -12,5 -13,7 -13,13 -5,15 -5,16 v 0 z"
   id="path502"
   inkscape:connector-curvature="0"
   style="fill:#000000;stroke:none" />
         <path
   d="m 15397,14895 h 2 l -23,-13 -15,-15 -8,-21 v -25 h -15 v 25 l 8,31 20,20 28,13 h 3 z"
   id="path504"
   inkscape:connector-curvature="0"
   style="fill:#000000;stroke:none" />
         <path
   d="m 15653,14844 v 0 l -20,-11 -15,-7 -16,-8 -17,-5 -18,-2 -18,-3 h -18 l -20,3 v 15 l 20,-3 h 18 l 18,3 18,2 12,5 16,8 15,8 15,10 v 0 z"
   id="path506"
   inkscape:connector-curvature="0"
   style="fill:#000000;stroke:none" />
         <path
   d="m 15790,14877 -25,-3 -20,3 -18,-3 -15,-2 -13,-5 -15,-6 -16,-7 -15,-10 -10,15 20,10 16,8 15,5 18,5 15,2 18,3 20,3 25,-3 z"
   id="path508"
   inkscape:connector-curvature="0"
   style="fill:#000000;stroke:none" />
         <path
   d="m 15651,14856 v 0 l -21,-10 -17,-7 -16,-8 -17,-3 -18,-2 -15,-3 -18,-2 -21,2 v 16 l 21,2 18,-2 15,2 18,3 12,2 15,8 18,7 16,11 v 0 z"
   id="path510"
   inkscape:connector-curvature="0"
   style="fill:#000000;stroke:none" />
         <path
   d="m 15788,14889 h -26 -20 -18 l -15,-2 -13,-5 -15,-8 -15,-7 -15,-11 -10,16 20,10 15,7 15,8 18,5 15,3 h 18 l 20,5 26,-5 z"
   id="path512"
   inkscape:connector-curvature="0"
   style="fill:#000000;stroke:none" />
         <path
   d="m 15643,14872 h 3 l -21,-11 -15,-7 -15,-8 -18,-5 -18,-2 -18,-3 h -17 l -21,3 v 15 l 21,-3 h 17 l 18,3 18,2 13,5 15,8 15,8 15,10 h 3 z"
   id="path514"
   inkscape:connector-curvature="0"
   style="fill:#000000;stroke:none" />
         <path
   d="m 15785,14905 -25,-3 -20,3 -18,-3 -15,-2 -16,-5 -15,-6 -15,-7 -18,-10 -5,15 18,10 15,8 15,5 21,5 15,2 18,3 20,3 25,-3 z"
   id="path516"
   inkscape:connector-curvature="0"
   style="fill:#000000;stroke:none" />
         <path
   d="m 15643,14884 v 0 l -20,-10 -16,-7 -15,-8 -18,-5 -17,-3 -18,-2 h -18 l -20,2 v 16 l 20,-3 h 18 l 18,3 17,2 13,5 15,8 16,7 15,11 v 0 z"
   id="path518"
   inkscape:connector-curvature="0"
   style="fill:#000000;stroke:none" />
         <path
   d="m 15780,14917 h -25 -20 -18 l -16,-2 -12,-5 -15,-8 -16,-7 -15,-11 -10,16 20,10 15,7 16,8 17,5 16,3 h 18 l 20,5 25,-5 z"
   id="path520"
   inkscape:connector-curvature="0"
   style="fill:#000000;stroke:none" />
         <path
   d="m 15641,14900 v 0 l -21,-11 -18,-7 -15,-8 -18,-5 -17,-2 -16,-3 h -17 l -21,3 v 15 l 21,-3 h 17 l 16,3 17,2 13,5 15,8 18,8 15,10 v 0 z"
   id="path522"
   inkscape:connector-curvature="0"
   style="fill:#000000;stroke:none" />
         <path
   d="m 15778,14933 -26,-3 -20,3 -18,-3 -15,-2 -13,-5 -15,-6 -15,-7 -15,-10 -11,15 21,10 15,8 15,5 18,5 15,2 18,3 20,3 26,-3 z"
   id="path524"
   inkscape:connector-curvature="0"
   style="fill:#000000;stroke:none" />
         <path
   d="m 15635,14912 v 0 l -20,-10 -15,-7 -15,-8 -18,-5 -18,-3 -18,-2 h -18 l -20,2 v 16 l 20,-3 h 18 l 18,3 18,2 13,5 15,8 15,7 15,11 v 0 z"
   id="path526"
   inkscape:connector-curvature="0"
   style="fill:#000000;stroke:none" />
         <path
   d="m 15775,14945 h -25 -21 -17 l -16,-2 -15,-5 -15,-8 -15,-7 -16,-11 -10,16 21,10 15,7 15,8 20,5 16,3 h 17 l 21,5 25,-5 z"
   id="path528"
   inkscape:connector-curvature="0"
   style="fill:#000000;stroke:none" />
         <path
   d="m 15633,14925 v 0 l -20,-10 -16,-8 -15,-5 -18,-5 -17,-2 -18,-3 -18,-3 -20,3 v 15 l 20,3 18,-3 18,3 17,2 13,5 15,6 15,7 16,10 v 0 z"
   id="path530"
   inkscape:connector-curvature="0"
   style="fill:#000000;stroke:none" />
         <path
   d="m 15770,14961 -23,-3 -20,3 -20,-3 -16,-2 -12,-5 -16,-8 -15,-8 -15,-10 -10,15 20,11 15,7 16,8 17,5 16,2 20,3 20,2 23,-2 z"
   id="path532"
   inkscape:connector-curvature="0"
   style="fill:#000000;stroke:none" />
         <path
   d="m 15823,14874 -7,-7 -33,129 h 15 l 33,-129 -8,-8 8,8 -2,-6 -6,-2 -5,2 -2,6 z"
   id="path534"
   inkscape:connector-curvature="0"
   style="fill:#000000;stroke:none" />
         <path
   d="m 15699,14833 -8,8 132,33 v -15 l -132,-33 -7,7 7,-7 -5,2 -2,5 2,6 5,2 z"
   id="path536"
   inkscape:connector-curvature="0"
   style="fill:#000000;stroke:none" />
         <path
   d="m 15661,14958 7,8 31,-133 h -15 l -31,133 8,7 -8,-7 3,5 5,2 5,-2 2,-5 z"
   id="path538"
   inkscape:connector-curvature="0"
   style="fill:#000000;stroke:none" />
         <path
   d="m 15783,14996 7,-7 -129,-31 v 15 l 129,31 8,-8 -8,8 5,-3 3,-5 -3,-5 -5,-2 z"
   id="path540"
   inkscape:connector-curvature="0"
   style="fill:#000000;stroke:none" />
         <path
   d="m 11011,15587 133,-838 -2074,-325 -129,837 z"
   id="path542"
   inkscape:connector-curvature="0"
   style="fill:#ad7a5b;stroke:none" />
         <path
   d="m 11144,14757 -8,-8 -132,838 h 15 l 132,-838 -7,-7 7,7 -2,-5 -5,-2 -6,2 -2,5 z"
   id="path544"
   inkscape:connector-curvature="0"
   style="fill:#000000;stroke:none" />
         <path
   d="m 9078,14424 -8,7 2074,326 v -15 l -2074,-326 -7,8 7,-8 -5,3 -2,5 2,5 5,2 z"
   id="path546"
   inkscape:connector-curvature="0"
   style="fill:#000000;stroke:none" />
         <path
   d="m 8941,15253 7,8 130,-837 h -15 l -130,837 8,8 -8,-8 3,5 5,3 5,-3 2,-5 z"
   id="path548"
   inkscape:connector-curvature="0"
   style="fill:#000000;stroke:none" />
         <path
   d="m 11004,15587 7,-8 -2070,-326 v 16 l 2070,325 8,-7 -8,7 6,-2 2,-5 -2,-5 -6,-3 z"
   id="path550"
   inkscape:connector-curvature="0"
   style="fill:#000000;stroke:none" />
         <path
   d="m 9070,14424 1108,-283 966,608 z"
   id="path552"
   inkscape:connector-curvature="0"
   style="fill:#ad7a5b;stroke:none" />
         <path
   d="m 10183,14134 h -5 l -1108,282 v 15 l 1108,-282 h -5 5 l 5,-3 3,-5 -3,-5 -5,-2 z"
   id="path554"
   inkscape:connector-curvature="0"
   style="fill:#000000;stroke:none" />
         <path
   d="m 11144,14757 5,-15 -966,-608 -10,15 965,608 6,-15 -6,15 h 8 l 5,-5 3,-5 -5,-5 z"
   id="path556"
   inkscape:connector-curvature="0"
   style="fill:#000000;stroke:none" />
         <path
   d="m 9070,14416 v 15 l 2074,326 v -15 l -2074,-326 v 15 -15 l -5,3 -2,5 2,5 5,2 z"
   id="path558"
   inkscape:connector-curvature="0"
   style="fill:#000000;stroke:none" />
         <path
   d="m 9070,14424 3,2 10,3 13,5 15,8 15,7 33,21 46,30 61,38 71,44 79,50 84,54 84,53 86,54 81,53 76,49 69,43 59,38 45,28 28,18 10,7 -963,252 -134,-20 z"
   id="path560"
   inkscape:connector-curvature="0"
   style="fill:#ad7a5b;stroke:none" />
         <path
   d="m 9114,14434 v 0 l -16,-8 -12,-5 -11,-2 -2,-3 -5,15 2,3 11,3 12,5 15,7 v 0 z"
   id="path562"
   inkscape:connector-curvature="0"
   style="fill:#000000;stroke:none" />
         <path
   d="m 10041,15037 2,-15 -10,-8 -28,-18 -45,-28 -59,-38 -68,-43 -77,-48 -81,-54 -86,-53 -84,-54 -84,-53 -79,-51 -71,-43 -61,-38 -46,-31 -33,-20 -17,-8 -6,15 13,8 33,20 46,31 61,38 71,43 79,51 84,54 84,53 86,53 81,54 76,48 69,43 58,39 46,28 28,17 10,8 3,-15 -3,15 h 8 l 5,-5 3,-5 -6,-5 z"
   id="path564"
   inkscape:connector-curvature="0"
   style="fill:#000000;stroke:none" />
         <path
   d="m 9075,15289 h 3 l 963,-252 -5,-15 -963,252 h 2 -2 l -5,2 v 8 l 2,5 h 8 z"
   id="path566"
   inkscape:connector-curvature="0"
   style="fill:#000000;stroke:none" />
         <path
   d="m 8933,15261 8,8 134,20 v -15 l -134,-21 7,8 -7,-8 -5,3 -3,5 3,5 5,3 z"
   id="path568"
   inkscape:connector-curvature="0"
   style="fill:#000000;stroke:none" />
         <path
   d="m 9073,14416 -10,8 -130,837 h 15 l 130,-837 -10,7 10,-7 -3,-5 -5,-3 -5,3 -2,5 z"
   id="path570"
   inkscape:connector-curvature="0"
   style="fill:#000000;stroke:none" />
         <path
   d="m 8964,15246 10,-3 33,-8 51,-12 63,-18 76,-18 87,-23 94,-23 94,-23 96,-25 94,-23 89,-23 82,-20 71,-18 56,-13 38,-10 20,-5 18,-3 15,-2 13,2 h 10 l 13,6 10,2 7,8 11,5 15,10 30,20 49,31 58,38 71,43 76,51 84,51 84,56 84,54 81,50 76,51 69,44 56,35 46,28 28,18 10,8 z"
   id="path572"
   inkscape:connector-curvature="0"
   style="fill:#ad7a5b;stroke:none" />
         <path
   d="m 10018,14973 h -2 l -21,5 -35,11 -56,12 -71,18 -82,21 -89,22 -94,23 -96,26 -94,23 -94,23 -87,22 -76,18 -66,18 -48,13 -33,7 -10,3 v 15 l 10,-2 33,-8 53,-13 61,-17 76,-18 87,-23 94,-23 94,-23 96,-25 94,-23 89,-23 82,-21 71,-17 56,-13 40,-10 21,-5 h -3 z"
   id="path574"
   inkscape:connector-curvature="0"
   style="fill:#000000;stroke:none" />
         <path
   d="m 10120,14991 v 0 l -10,-5 -11,-8 -10,-2 -15,-5 h -10 l -13,-5 -15,5 -18,2 v 16 l 18,-3 h 15 13 10 l 10,5 10,3 5,7 11,5 v 0 z"
   id="path576"
   inkscape:connector-curvature="0"
   style="fill:#000000;stroke:none" />
         <path
   d="m 11032,15594 5,-15 -10,-8 -28,-17 -46,-28 -56,-36 -68,-43 -77,-51 -81,-51 -84,-54 -84,-56 -84,-50 -76,-51 -71,-44 -58,-38 -49,-30 -30,-21 -15,-10 -10,15 15,11 30,20 49,31 58,38 71,43 76,51 84,51 84,56 84,53 81,51 76,51 69,43 56,36 46,28 28,18 10,7 5,-15 -5,15 h 7 l 5,-5 3,-5 -5,-5 z"
   id="path578"
   inkscape:connector-curvature="0"
   style="fill:#000000;stroke:none" />
         <path
   d="m 8964,15238 v 15 l 2068,341 v -15 l -2068,-341 v 15 -15 l -5,3 -3,5 3,5 5,2 z"
   id="path580"
   inkscape:connector-curvature="0"
   style="fill:#000000;stroke:none" />
         <path
   d="m 11596,15648 15,-517 -1494,-331 -15,514 z"
   id="path582"
   inkscape:connector-curvature="0"
   style="fill:#ad7a5b;stroke:none" />
         <path
   d="m 11611,15139 -8,-8 -15,517 h 15 l 16,-517 -8,-7 8,7 -3,-5 -5,-2 -5,2 -3,5 z"
   id="path584"
   inkscape:connector-curvature="0"
   style="fill:#000000;stroke:none" />
         <path
   d="m 10125,14800 -8,8 1494,331 v -15 l -1494,-331 -7,7 7,-7 -5,2 -2,5 2,5 5,3 z"
   id="path586"
   inkscape:connector-curvature="0"
   style="fill:#000000;stroke:none" />
         <path
   d="m 10102,15307 8,7 15,-514 h -15 l -16,514 8,8 -8,-8 3,5 5,3 5,-3 3,-5 z"
   id="path588"
   inkscape:connector-curvature="0"
   style="fill:#000000;stroke:none" />
         <path
   d="m 11588,15648 8,-8 -1494,-333 v 15 l 1494,333 7,-7 -7,7 5,-2 2,-5 -2,-5 -5,-3 z"
   id="path590"
   inkscape:connector-curvature="0"
   style="fill:#000000;stroke:none" />
         <path
   d="m 11611,15131 236,-382 -1494,-333 -236,384 z"
   id="path592"
   inkscape:connector-curvature="0"
   style="fill:#ad7a5b;stroke:none" />
         <path
   d="m 11847,14757 -7,-13 -237,382 16,10 236,-381 -8,-13 8,13 v -8 l -3,-5 -7,-3 -5,5 z"
   id="path594"
   inkscape:connector-curvature="0"
   style="fill:#000000;stroke:none" />
         <path
   d="m 10361,14421 -8,3 1494,333 v -15 l -1494,-333 -7,2 7,-2 -5,2 -2,5 2,5 5,3 z"
   id="path596"
   inkscape:connector-curvature="0"
   style="fill:#000000;stroke:none" />
         <path
   d="m 10117,14793 8,12 236,-384 -15,-10 -236,384 7,13 -7,-13 v 8 l 5,5 5,3 5,-6 z"
   id="path598"
   inkscape:connector-curvature="0"
   style="fill:#000000;stroke:none" />
         <path
   d="m 11603,15126 8,-2 -1494,-331 v 15 l 1494,331 8,-3 -8,3 5,-3 3,-5 -3,-5 -5,-2 z"
   id="path600"
   inkscape:connector-curvature="0"
   style="fill:#000000;stroke:none" />
         <path
   d="m 11850,14749 v -440 l -1494,-333 -5,440 z"
   id="path602"
   inkscape:connector-curvature="0"
   style="fill:#ad7a5b;stroke:none" />
         <path
   d="m 11850,14317 -10,-8 v 440 h 20 v -440 l -10,-7 10,7 -3,-7 -7,-3 -8,3 -2,7 z"
   id="path604"
   inkscape:connector-curvature="0"
   style="fill:#000000;stroke:none" />
         <path
   d="m 10366,13976 -10,8 1494,333 v -15 l -1494,-334 -10,8 10,-8 -5,3 -3,5 3,5 5,3 z"
   id="path606"
   inkscape:connector-curvature="0"
   style="fill:#000000;stroke:none" />
         <path
   d="m 10351,14409 10,7 5,-440 h -20 l -5,440 10,8 -10,-8 2,8 8,2 7,-2 3,-8 z"
   id="path608"
   inkscape:connector-curvature="0"
   style="fill:#000000;stroke:none" />
         <path
   d="m 11840,14749 10,-7 -1499,-333 v 15 l 1499,333 10,-8 -10,8 5,-2 2,-6 -2,-5 -5,-2 z"
   id="path610"
   inkscape:connector-curvature="0"
   style="fill:#000000;stroke:none" />
         <path
   d="m 14192,15472 338,-707 -1235,-588 -337,710 z"
   id="path612"
   inkscape:connector-curvature="0"
   style="fill:#ffffff;stroke:none" />
         <path
   d="m 14528,14772 -5,-10 -338,708 15,5 338,-708 -5,-10 5,10 v -7 l -5,-3 h -5 l -5,5 z"
   id="path614"
   inkscape:connector-curvature="0"
   style="fill:#000000;stroke:none" />
         <path
   d="m 13303,14180 -10,5 1235,587 5,-15 -1235,-588 -10,5 10,-5 h -8 l -2,5 v 6 l 5,5 z"
   id="path616"
   inkscape:connector-curvature="0"
   style="fill:#000000;stroke:none" />
         <path
   d="m 12960,14879 5,10 338,-709 -15,-6 -338,710 5,11 -5,-11 v 8 l 5,3 h 8 l 2,-6 z"
   id="path618"
   inkscape:connector-curvature="0"
   style="fill:#000000;stroke:none" />
         <path
   d="m 14185,15470 10,-6 -1235,-585 -5,16 1235,585 10,-5 -10,5 h 7 l 3,-5 v -8 l -5,-3 z"
   id="path620"
   inkscape:connector-curvature="0"
   style="fill:#000000;stroke:none" />
         <path
   d="m 14131,15434 82,-28 -64,-31 -81,28 z"
   id="path622"
   inkscape:connector-curvature="0"
   style="fill:#ff0066;stroke:none" />
         <path
   d="m 14002,15373 81,-31 -63,-28 -82,28 z"
   id="path624"
   inkscape:connector-curvature="0"
   style="fill:#1e99ea;stroke:none" />
         <path
   d="m 13870,15312 81,-31 -64,-30 -81,30 z"
   id="path626"
   inkscape:connector-curvature="0"
   style="fill:#ff0066;stroke:none" />
         <path
   d="m 13740,15248 81,-28 -63,-30 -81,28 z"
   id="path628"
   inkscape:connector-curvature="0"
   style="fill:#1e99ea;stroke:none" />
         <path
   d="m 13611,15187 81,-30 -64,-28 -81,28 z"
   id="path630"
   inkscape:connector-curvature="0"
   style="fill:#ff0066;stroke:none" />
         <path
   d="m 13481,15124 81,-28 -63,-31 -82,28 z"
   id="path632"
   inkscape:connector-curvature="0"
   style="fill:#1e99ea;stroke:none" />
         <path
   d="m 13349,15062 81,-28 -63,-28 -82,26 z"
   id="path634"
   inkscape:connector-curvature="0"
   style="fill:#ff0066;stroke:none" />
         <path
   d="m 13219,15004 82,-31 -64,-30 -81,30 z"
   id="path636"
   inkscape:connector-curvature="0"
   style="fill:#1e99ea;stroke:none" />
         <path
   d="m 13090,14940 81,-28 -64,-30 -81,28 z"
   id="path638"
   inkscape:connector-curvature="0"
   style="fill:#ff0066;stroke:none" />
         <path
   d="m 13303,14325 -30,-82 -31,64 31,81 z"
   id="path640"
   inkscape:connector-curvature="0"
   style="fill:#1e99ea;stroke:none" />
         <path
   d="m 13240,14454 -28,-81 -31,64 28,81 z"
   id="path642"
   inkscape:connector-curvature="0"
   style="fill:#ff0066;stroke:none" />
         <path
   d="m 13179,14584 -31,-81 -28,63 28,82 z"
   id="path644"
   inkscape:connector-curvature="0"
   style="fill:#1e99ea;stroke:none" />
         <path
   d="m 13115,14716 -28,-81 -30,64 30,81 z"
   id="path646"
   inkscape:connector-curvature="0"
   style="fill:#ff0066;stroke:none" />
         <path
   d="m 13054,14846 -28,-81 -30,63 28,82 z"
   id="path648"
   inkscape:connector-curvature="0"
   style="fill:#1e99ea;stroke:none" />
         <path
   d="m 13356,14213 -81,30 64,31 81,-31 z"
   id="path650"
   inkscape:connector-curvature="0"
   style="fill:#ff0066;stroke:none" />
         <path
   d="m 13486,14276 -81,28 63,31 82,-31 z"
   id="path652"
   inkscape:connector-curvature="0"
   style="fill:#1e99ea;stroke:none" />
         <path
   d="m 13616,14337 -82,28 64,31 81,-28 z"
   id="path654"
   inkscape:connector-curvature="0"
   style="fill:#ff0066;stroke:none" />
         <path
   d="m 13745,14398 -81,31 63,30 82,-30 z"
   id="path656"
   inkscape:connector-curvature="0"
   style="fill:#1e99ea;stroke:none" />
         <path
   d="m 13877,14462 -81,28 64,31 81,-28 z"
   id="path658"
   inkscape:connector-curvature="0"
   style="fill:#ff0066;stroke:none" />
         <path
   d="m 14007,14523 -81,31 63,28 81,-28 z"
   id="path660"
   inkscape:connector-curvature="0"
   style="fill:#1e99ea;stroke:none" />
         <path
   d="m 14136,14584 -81,31 64,30 81,-30 z"
   id="path662"
   inkscape:connector-curvature="0"
   style="fill:#ff0066;stroke:none" />
         <path
   d="m 14266,14648 -81,28 63,30 82,-28 z"
   id="path664"
   inkscape:connector-curvature="0"
   style="fill:#1e99ea;stroke:none" />
         <path
   d="m 14398,14709 -81,30 61,28 81,-28 z"
   id="path666"
   inkscape:connector-curvature="0"
   style="fill:#ff0066;stroke:none" />
         <path
   d="m 14187,15325 28,81 31,-64 -28,-81 z"
   id="path668"
   inkscape:connector-curvature="0"
   style="fill:#1e99ea;stroke:none" />
         <path
   d="m 14248,15195 28,81 31,-63 -28,-82 z"
   id="path670"
   inkscape:connector-curvature="0"
   style="fill:#ff0066;stroke:none" />
         <path
   d="m 14309,15065 31,81 30,-63 -30,-79 z"
   id="path672"
   inkscape:connector-curvature="0"
   style="fill:#1e99ea;stroke:none" />
         <path
   d="m 14373,14935 28,82 30,-64 -28,-81 z"
   id="path674"
   inkscape:connector-curvature="0"
   style="fill:#ff0066;stroke:none" />
         <path
   d="m 14434,14805 30,82 28,-64 -28,-81 z"
   id="path676"
   inkscape:connector-curvature="0"
   style="fill:#1e99ea;stroke:none" />
         <path
   d="m 14416,14798 -64,137 -116,-56 66,-137 z"
   id="path678"
   inkscape:connector-curvature="0"
   style="fill:#ffffff;stroke:none" />
         <path
   d="m 14350,14943 10,-5 64,-138 -16,-5 -63,138 10,-5 -10,5 v 7 l 5,3 h 7 l 3,-5 z"
   id="path680"
   inkscape:connector-curvature="0"
   style="fill:#000000;stroke:none" />
         <path
   d="m 14228,14877 5,10 117,56 5,-15 -117,-56 5,10 -5,-10 h -8 l -2,5 v 5 l 5,5 z"
   id="path682"
   inkscape:connector-curvature="0"
   style="fill:#000000;stroke:none" />
         <path
   d="m 14304,14734 -10,5 -66,138 15,5 66,-138 -10,5 10,-5 v -7 l -5,-3 h -5 l -5,5 z"
   id="path684"
   inkscape:connector-curvature="0"
   style="fill:#000000;stroke:none" />
         <path
   d="m 14424,14800 -6,-10 -114,-56 -5,15 114,56 -5,-10 5,10 h 8 l 3,-5 v -7 l -6,-3 z"
   id="path686"
   inkscape:connector-curvature="0"
   style="fill:#000000;stroke:none" />
         <path
   d="m 14030,14699 v 0 l -8,10 -8,10 -10,8 -10,5 -13,5 h -15 l -10,-3 -15,-5 -5,15 15,5 15,3 h 15 l 18,-5 15,-5 11,-13 12,-10 8,-15 v 0 z"
   id="path688"
   inkscape:connector-curvature="0"
   style="fill:#000000;stroke:none" />
         <path
   d="m 13999,14610 v 0 l 23,15 10,23 3,25 -5,26 15,5 10,-31 -7,-30 -16,-28 -28,-21 v 0 z"
   id="path690"
   inkscape:connector-curvature="0"
   style="fill:#000000;stroke:none" />
         <path
   d="m 13910,14640 v 0 l 8,-10 8,-13 10,-5 12,-5 11,-5 h 15 l 13,2 12,6 5,-16 -12,-5 -18,-2 h -15 l -16,5 -12,5 -16,10 -12,13 -8,15 v 0 z"
   id="path692"
   inkscape:connector-curvature="0"
   style="fill:#000000;stroke:none" />
         <path
   d="m 13941,14729 v 0 l -21,-15 -12,-23 -3,-25 5,-26 -15,-5 -10,31 8,30 17,28 26,20 v 0 z"
   id="path694"
   inkscape:connector-curvature="0"
   style="fill:#000000;stroke:none" />
         <path
   d="m 14228,14734 v 0 l -18,-18 -15,-12 -15,-10 -18,-8 -15,-8 -18,-5 -23,-5 -23,-2 v 15 l 23,2 18,5 18,6 15,7 12,8 16,10 15,13 18,12 v 0 z"
   id="path696"
   inkscape:connector-curvature="0"
   style="fill:#000000;stroke:none" />
         <path
   d="m 14373,14800 -28,-5 -23,-5 -15,-5 -18,-8 -13,-7 -15,-10 -15,-13 -18,-13 -10,10 18,18 15,13 15,10 18,8 18,7 20,5 23,6 28,5 z"
   id="path698"
   inkscape:connector-curvature="0"
   style="fill:#000000;stroke:none" />
         <path
   d="m 14223,14749 v 0 l -18,-17 -15,-13 -18,-10 -18,-8 -15,-7 -18,-6 -23,-5 -23,-5 v 16 l 23,5 18,5 18,5 15,7 18,8 13,10 15,13 18,13 v 0 z"
   id="path700"
   inkscape:connector-curvature="0"
   style="fill:#000000;stroke:none" />
         <path
   d="m 14365,14816 -28,-5 -23,-6 -15,-5 -18,-7 -12,-8 -16,-10 -15,-10 -15,-16 -10,11 15,15 15,15 15,10 18,8 18,8 20,5 23,5 28,5 z"
   id="path702"
   inkscape:connector-curvature="0"
   style="fill:#000000;stroke:none" />
         <path
   d="m 14215,14762 v 0 l -18,-18 -15,-12 -15,-10 -18,-8 -18,-8 -17,-5 -23,-5 -23,-2 v 15 l 23,2 17,5 18,6 18,7 13,8 15,10 15,13 18,12 v 0 z"
   id="path704"
   inkscape:connector-curvature="0"
   style="fill:#000000;stroke:none" />
         <path
   d="m 14357,14831 -25,-5 -23,-5 -18,-5 -15,-8 -15,-10 -15,-10 -16,-11 -15,-15 -10,10 15,16 16,15 15,10 20,10 15,8 23,5 23,5 25,5 z"
   id="path706"
   inkscape:connector-curvature="0"
   style="fill:#000000;stroke:none" />
         <path
   d="m 14208,14777 v 0 l -18,-17 -15,-13 -16,-10 -17,-8 -16,-7 -18,-6 -22,-5 -23,-2 v 15 l 23,3 17,5 18,5 15,7 13,8 15,10 16,13 17,13 v 0 z"
   id="path708"
   inkscape:connector-curvature="0"
   style="fill:#000000;stroke:none" />
         <path
   d="m 14352,14844 -28,-5 -22,-6 -16,-5 -17,-7 -13,-8 -15,-10 -16,-13 -17,-13 -11,11 18,17 15,13 16,10 17,8 18,8 21,5 22,5 28,5 z"
   id="path710"
   inkscape:connector-curvature="0"
   style="fill:#000000;stroke:none" />
         <path
   d="m 14202,14793 v 0 l -17,-18 -16,-13 -15,-10 -20,-10 -15,-5 -18,-8 -23,-2 -23,-5 v 15 l 23,5 18,2 18,8 15,5 15,10 15,10 16,13 17,13 v 0 z"
   id="path712"
   inkscape:connector-curvature="0"
   style="fill:#000000;stroke:none" />
         <path
   d="m 14345,14859 -28,-5 -23,-5 -15,-5 -18,-8 -13,-8 -15,-10 -15,-10 -16,-15 -10,10 16,15 15,15 15,11 18,7 18,8 20,5 23,5 28,5 z"
   id="path714"
   inkscape:connector-curvature="0"
   style="fill:#000000;stroke:none" />
         <path
   d="m 14195,14805 v 0 l -18,-17 -15,-13 -15,-10 -18,-8 -18,-8 -18,-5 -23,-5 -22,-2 v 15 l 22,3 18,5 18,5 18,7 12,8 16,10 15,13 18,13 v 0 z"
   id="path716"
   inkscape:connector-curvature="0"
   style="fill:#000000;stroke:none" />
         <path
   d="m 14337,14874 -25,-5 -23,-5 -18,-5 -15,-8 -15,-10 -16,-10 -15,-10 -15,-16 -10,11 15,15 15,15 15,10 21,11 15,7 23,5 23,5 25,5 z"
   id="path718"
   inkscape:connector-curvature="0"
   style="fill:#000000;stroke:none" />
         <path
   d="m 14187,14821 v 0 l -18,-18 -15,-13 -15,-10 -18,-8 -15,-7 -18,-5 -23,-5 -23,-6 v 16 l 23,5 18,5 18,5 15,8 13,7 15,10 15,13 18,13 v 0 z"
   id="path720"
   inkscape:connector-curvature="0"
   style="fill:#000000;stroke:none" />
         <path
   d="m 14332,14887 -28,-5 -23,-5 -15,-5 -18,-8 -12,-8 -16,-10 -15,-13 -18,-12 -10,10 18,18 15,12 15,11 18,7 18,8 20,5 23,5 28,5 z"
   id="path722"
   inkscape:connector-curvature="0"
   style="fill:#000000;stroke:none" />
         <path
   d="m 13649,14615 71,-150 -384,-181 -71,147 z"
   id="path724"
   inkscape:connector-curvature="0"
   style="fill:#ffffff;stroke:none" />
         <path
   d="m 13717,14472 -5,-10 -71,150 15,5 71,-150 -5,-10 5,10 v -8 l -5,-2 h -5 l -5,5 z"
   id="path726"
   inkscape:connector-curvature="0"
   style="fill:#000000;stroke:none" />
         <path
   d="m 13344,14286 -10,6 383,180 5,-15 -383,-181 -10,5 10,-5 h -8 l -2,5 v 5 l 5,6 z"
   id="path728"
   inkscape:connector-curvature="0"
   style="fill:#000000;stroke:none" />
         <path
   d="m 13268,14424 5,10 71,-148 -15,-5 -72,148 5,10 -5,-10 v 8 l 5,2 h 8 l 3,-5 z"
   id="path730"
   inkscape:connector-curvature="0"
   style="fill:#000000;stroke:none" />
         <path
   d="m 13641,14612 10,-5 -383,-183 -6,15 384,183 10,-5 -10,5 h 8 l 2,-5 v -7 l -5,-3 z"
   id="path732"
   inkscape:connector-curvature="0"
   style="fill:#000000;stroke:none" />
        </g>
       </g>
      </g>
     </g>
    </g>
   </g>
  </g>
 </g>
</svg>