<?xml version="1.0" encoding="UTF-8" standalone="no"?>
<svg
   xmlns:ooo="http://xml.openoffice.org/svg/export"
   xmlns:dc="http://purl.org/dc/elements/1.1/"
   xmlns:cc="http://creativecommons.org/ns#"
   xmlns:rdf="http://www.w3.org/1999/02/22-rdf-syntax-ns#"
   xmlns:svg="http://www.w3.org/2000/svg"
   xmlns="http://www.w3.org/2000/svg"
   xmlns:sodipodi="http://sodipodi.sourceforge.net/DTD/sodipodi-0.dtd"
   xmlns:inkscape="http://www.inkscape.org/namespaces/inkscape"
   version="1.2"
   width="41.169998mm"
   height="10.52mm"
   viewBox="0 0 4116.9998 1052"
   preserveAspectRatio="xMidYMid"
   xml:space="preserve"
   id="svg129"
   sodipodi:docname="limosne1.svg"
   style="fill-rule:evenodd;stroke-width:28.22200012;stroke-linejoin:round"
   inkscape:version="0.92.5 (2060ec1f9f, 2020-04-08)"><metadata
   id="metadata133"><rdf:RDF><cc:Work
       rdf:about=""><dc:format>image/svg+xml</dc:format><dc:type
         rdf:resource="http://purl.org/dc/dcmitype/StillImage" /></cc:Work></rdf:RDF></metadata><sodipodi:namedview
   pagecolor="#ffffff"
   bordercolor="#666666"
   borderopacity="1"
   objecttolerance="10"
   gridtolerance="10"
   guidetolerance="10"
   inkscape:pageopacity="0"
   inkscape:pageshadow="2"
   inkscape:window-width="664"
   inkscape:window-height="487"
   id="namedview131"
   showgrid="false"
   inkscape:zoom="0.2102413"
   inkscape:cx="77.820473"
   inkscape:cy="19.880313"
   inkscape:window-x="0"
   inkscape:window-y="0"
   inkscape:window-maximized="0"
   inkscape:current-layer="svg129" />
 <defs
   class="ClipPathGroup"
   id="defs8">
  <clipPath
   id="presentation_clip_path"
   clipPathUnits="userSpaceOnUse">
   <rect
   x="0"
   y="0"
   width="21000"
   height="29700"
   id="rect2" />
  </clipPath>
  <clipPath
   id="presentation_clip_path_shrink"
   clipPathUnits="userSpaceOnUse">
   <rect
   x="21"
   y="29"
   width="20958"
   height="29641"
   id="rect5" />
  </clipPath>
 </defs>
 <defs
   class="TextShapeIndex"
   id="defs12">
  <g
   ooo:slide="id1"
   ooo:id-list="id3"
   id="g10" />
 </defs>
 <defs
   class="EmbeddedBulletChars"
   id="defs44">
  <g
   id="bullet-char-template-57356"
   transform="matrix(4.8828125e-4,0,0,-4.8828125e-4,0,0)">
   <path
   d="M 580,1141 1163,571 580,0 -4,571 Z"
   id="path14"
   inkscape:connector-curvature="0" />
  </g>
  <g
   id="bullet-char-template-57354"
   transform="matrix(4.8828125e-4,0,0,-4.8828125e-4,0,0)">
   <path
   d="M 8,1128 H 1137 V 0 H 8 Z"
   id="path17"
   inkscape:connector-curvature="0" />
  </g>
  <g
   id="bullet-char-template-10146"
   transform="matrix(4.8828125e-4,0,0,-4.8828125e-4,0,0)">
   <path
   d="M 174,0 602,739 174,1481 1456,739 Z M 1358,739 309,1346 659,739 Z"
   id="path20"
   inkscape:connector-curvature="0" />
  </g>
  <g
   id="bullet-char-template-10132"
   transform="matrix(4.8828125e-4,0,0,-4.8828125e-4,0,0)">
   <path
   d="M 2015,739 1276,0 H 717 l 543,543 H 174 v 393 h 1086 l -543,545 h 557 z"
   id="path23"
   inkscape:connector-curvature="0" />
  </g>
  <g
   id="bullet-char-template-10007"
   transform="matrix(4.8828125e-4,0,0,-4.8828125e-4,0,0)">
   <path
   d="m 0,-2 c -7,16 -16,29 -25,39 l 381,530 c -94,256 -141,385 -141,387 0,25 13,38 40,38 9,0 21,-2 34,-5 21,4 42,12 65,25 l 27,-13 111,-251 280,301 64,-25 24,25 c 21,-10 41,-24 62,-43 C 886,937 835,863 770,784 769,783 710,716 594,584 L 774,223 c 0,-27 -21,-55 -63,-84 l 16,-20 C 717,90 699,76 672,76 641,76 570,178 457,381 L 164,-76 c -22,-34 -53,-51 -92,-51 -42,0 -63,17 -64,51 -7,9 -10,24 -10,44 0,9 1,19 2,30 z"
   id="path26"
   inkscape:connector-curvature="0" />
  </g>
  <g
   id="bullet-char-template-10004"
   transform="matrix(4.8828125e-4,0,0,-4.8828125e-4,0,0)">
   <path
   d="M 285,-33 C 182,-33 111,30 74,156 52,228 41,333 41,471 c 0,78 14,145 41,201 34,71 87,106 158,106 53,0 88,-31 106,-94 l 23,-176 c 8,-64 28,-97 59,-98 l 735,706 c 11,11 33,17 66,17 42,0 63,-15 63,-46 V 965 c 0,-36 -10,-64 -30,-84 L 442,47 C 390,-6 338,-33 285,-33 Z"
   id="path29"
   inkscape:connector-curvature="0" />
  </g>
  <g
   id="bullet-char-template-9679"
   transform="matrix(4.8828125e-4,0,0,-4.8828125e-4,0,0)">
   <path
   d="M 813,0 C 632,0 489,54 383,161 276,268 223,411 223,592 c 0,181 53,324 160,431 106,107 249,161 430,161 179,0 323,-54 432,-161 108,-107 162,-251 162,-431 0,-180 -54,-324 -162,-431 C 1136,54 992,0 813,0 Z"
   id="path32"
   inkscape:connector-curvature="0" />
  </g>
  <g
   id="bullet-char-template-8226"
   transform="matrix(4.8828125e-4,0,0,-4.8828125e-4,0,0)">
   <path
   d="m 346,457 c -73,0 -137,26 -191,78 -54,51 -81,114 -81,188 0,73 27,136 81,188 54,52 118,78 191,78 73,0 134,-26 185,-79 51,-51 77,-114 77,-187 0,-75 -25,-137 -76,-188 -50,-52 -112,-78 -186,-78 z"
   id="path35"
   inkscape:connector-curvature="0" />
  </g>
  <g
   id="bullet-char-template-8211"
   transform="matrix(4.8828125e-4,0,0,-4.8828125e-4,0,0)">
   <path
   d="M -4,459 H 1135 V 606 H -4 Z"
   id="path38"
   inkscape:connector-curvature="0" />
  </g>
  <g
   id="bullet-char-template-61548"
   transform="matrix(4.8828125e-4,0,0,-4.8828125e-4,0,0)">
   <path
   d="m 173,740 c 0,163 58,303 173,419 116,115 255,173 419,173 163,0 302,-58 418,-173 116,-116 174,-256 174,-419 0,-163 -58,-303 -174,-418 C 1067,206 928,148 765,148 601,148 462,206 346,322 231,437 173,577 173,740 Z"
   id="path41"
   inkscape:connector-curvature="0" />
  </g>
 </defs>
 <g
   id="g49"
   transform="translate(-8441,-14324)">
  <g
   id="id2"
   class="Master_Slide">
   <g
   id="bg-id2"
   class="Background" />
   <g
   id="bo-id2"
   class="BackgroundObjects" />
  </g>
 </g>
 <g
   class="SlideGroup"
   id="g127"
   transform="translate(-8441,-14324)">
  <g
   id="g125">
   <g
   id="container-id1">
    <g
   id="id1"
   class="Slide"
   clip-path="url(#presentation_clip_path)">
     <g
   class="Page"
   id="g121">
      <g
   class="Graphic"
   id="g119">
       <g
   id="id3">
        <rect
   class="BoundingBox"
   x="8441"
   y="14324"
   width="4117"
   height="1052"
   id="rect51"
   style="fill:none;stroke:none" />
        <defs
   id="defs56">
         <clipPath
   id="clip_path_1"
   clipPathUnits="userSpaceOnUse">
          <path
   d="m 8441,14324 h 4116 v 1051 H 8441 Z"
   id="path53"
   inkscape:connector-curvature="0" />
         </clipPath>
        </defs>
        <g
   clip-path="url(#clip_path_1)"
   id="g116">
         <path
   d="m 12439,14719 7,-3 h 5 5 v 0 77 l 21,53 23,84 20,77 8,33 30,5 v 104 h -36 l -25,21 h -10 -33 -51 -69 -86 -102 -114 -130 -139 -150 -158 -165 -173 -175 -181 -180 -181 -183 -177 -176 -170 -163 -157 -148 -137 -127 -112 -99 -81 -66 -46 -28 l -3,-5 -7,-13 -10,-15 -13,-16 h -5 l -10,-2 -18,-3 -18,-5 v -33 l 8,-38 7,-28 5,-13 h 3 l 8,-3 12,-2 h 16 l 7,-15 15,-31 18,-41 21,-43 22,-48 21,-44 18,-38 12,-28 36,-5 35,-5 36,-5 38,-5 36,-5 35,-3 38,-2 33,-3 36,-3 33,-2 31,-3 30,-2 28,-3 25,-2 h 23 l 21,-3 28,-30 40,-41 48,-51 51,-56 49,-51 40,-46 31,-33 18,-18 h 27 l 59,-2 h 79 101 115 l 129,-3 h 135 140 137 135 127 112 96 76 51 23 15 18 l 21,3 22,5 23,5 23,7 26,13 22,15 49,36 56,46 63,48 61,49 59,46 45,35 31,26 13,10 17,2 31,3 46,5 55,5 64,8 71,7 76,6 79,7 79,8 76,7 71,8 66,8 59,5 46,7 35,3 21,5 z"
   id="path58"
   inkscape:connector-curvature="0"
   style="fill:#000000;stroke:none" />
         <path
   d="m 12451,14739 13,-2 10,-11 8,-15 2,-15 -2,-18 -8,-13 -10,-10 -13,-2 -12,2 -11,10 -7,13 -3,18 3,15 7,15 11,11 z"
   id="path60"
   inkscape:connector-curvature="0"
   style="fill:#000000;stroke:none" />
         <path
   d="m 8563,14574 h 13 l 38,-5 51,-6 61,-5 61,-5 56,-5 43,-5 20,-2 15,5 5,12 -5,13 -17,5 h -26 -43 -56 -58 -59 l -51,-2 h -35 z"
   id="path62"
   inkscape:connector-curvature="0"
   style="fill:#000000;stroke:none" />
         <path
   d="m 8784,14576 25,107 105,-7 -71,-100 z"
   id="path64"
   inkscape:connector-curvature="0"
   style="fill:#000000;stroke:none" />
         <path
   d="m 8487,15019 -5,16 -5,23 -3,25 -3,18 h 11 l 20,2 25,3 31,3 h 33 l 33,2 h 30 26 l 2,-25 v -31 l -2,-25 v -13 l -18,-3 h -23 -28 -30 -31 l -25,3 h -23 z"
   id="path66"
   inkscape:connector-curvature="0"
   style="fill:#ffffff;stroke:none" />
         <path
   d="m 8599,14918 -6,25 -7,20 -3,18 -2,10 h 18 22 l 21,3 h 7 l 3,-15 5,-18 3,-21 5,-22 z"
   id="path68"
   inkscape:connector-curvature="0"
   style="fill:#ffffff;stroke:none" />
         <path
   d="m 8670,14889 7,-30 5,-28 3,-18 3,-8 -11,-2 h -15 -15 l -13,2 -2,13 -8,21 -8,25 -10,28 z"
   id="path70"
   inkscape:connector-curvature="0"
   style="fill:#ffffff;stroke:none" />
         <path
   d="m 9501,14406 -224,264 h 1268 v -264 z"
   id="path72"
   inkscape:connector-curvature="0"
   style="fill:#ffffff;stroke:none" />
         <path
   d="m 10652,14406 v 264 h 785 l -307,-264 z"
   id="path74"
   inkscape:connector-curvature="0"
   style="fill:#ffffff;stroke:none" />
         <path
   d="m 9867,14795 h 20 l 10,-2 10,-3 5,-5 3,-8 -3,-7 -5,-8 -10,-2 -10,-3 h -20 z"
   id="path76"
   inkscape:connector-curvature="0"
   style="fill:#ffffff;stroke:none" />
         <path
   d="m 9846,14757 h -81 l -15,3 -15,2 -11,8 -5,7 5,8 11,5 15,3 15,2 h 81 z"
   id="path78"
   inkscape:connector-curvature="0"
   style="fill:#ffffff;stroke:none" />
         <path
   d="m 10052,14757 h -20 l -10,3 -10,2 -8,8 -3,7 3,8 8,5 10,3 10,2 h 20 z"
   id="path80"
   inkscape:connector-curvature="0"
   style="fill:#ffffff;stroke:none" />
         <path
   d="m 10070,14795 h 84 l 15,-2 15,-3 11,-5 5,-8 -5,-7 -11,-8 -15,-2 -15,-3 h -84 z"
   id="path82"
   inkscape:connector-curvature="0"
   style="fill:#ffffff;stroke:none" />
         <path
   d="m 10710,14757 h -20 l -10,3 -10,2 -8,8 -2,7 2,8 8,5 10,3 10,2 h 20 z"
   id="path84"
   inkscape:connector-curvature="0"
   style="fill:#ffffff;stroke:none" />
         <path
   d="m 10728,14795 h 84 l 15,-2 16,-3 10,-5 5,-8 -5,-7 -10,-8 -16,-2 -15,-3 h -84 z"
   id="path86"
   inkscape:connector-curvature="0"
   style="fill:#ffffff;stroke:none" />
         <path
   d="m 11666,15073 18,-31 H 8825 v 31 z"
   id="path88"
   inkscape:connector-curvature="0"
   style="fill:#ffffff;stroke:none" />
         <path
   d="m 9064,15170 v -16 l 2,-10 5,-13 3,-12 v 0 h 2521 l 15,-44 20,-38 26,-33 33,-28 35,-23 39,-18 43,-10 46,-2 53,5 51,15 45,20 39,31 33,38 25,41 15,46 5,51 h -533 v -8 -8 -7 -5 l -1990,-3 v 0 l 2,8 v 7 l 3,8 v 8 z"
   id="path90"
   inkscape:connector-curvature="0"
   style="fill:#ffffff;stroke:none" />
         <path
   d="m 12426,15030 h -43 -8 l -8,-3 -5,-5 -2,-8 -8,-76 v -10 l 3,-5 7,-5 10,-3 h 44 5 l 5,3 2,5 3,10 15,74 v 7 l -2,8 -5,5 z"
   id="path92"
   inkscape:connector-curvature="0"
   style="fill:#ffffff;stroke:none" />
         <path
   d="m 12474,14915 h -28 l 28,115 h 31 z"
   id="path94"
   inkscape:connector-curvature="0"
   style="fill:#ffffff;stroke:none" />
         <path
   d="m 12329,14915 10,115 h -45 l -3,-115 z"
   id="path96"
   inkscape:connector-curvature="0"
   style="fill:#ffffff;stroke:none" />
         <path
   d="m 12543,15055 v 84 h -5 -10 -16 -20 -18 -18 -12 -8 l -8,-13 -2,-28 v -28 l 10,-12 h 10 15 16 l 20,-3 h 18 13 10 z"
   id="path98"
   inkscape:connector-curvature="0"
   style="fill:#ffffff;stroke:none" />
         <path
   d="m 12451,14726 8,-2 8,-8 2,-10 3,-10 -3,-13 -2,-10 -8,-5 -8,-3 -10,3 -5,5 -5,10 -3,13 3,10 5,10 5,8 z"
   id="path100"
   inkscape:connector-curvature="0"
   style="fill:#ffffff;stroke:none" />
         <path
   d="m 9521,14436 -170,209 h 602 l -2,-209 z"
   id="path102"
   inkscape:connector-curvature="0"
   style="fill:#000000;stroke:none" />
         <path
   d="m 10004,14439 v 208 h 506 v -208 z"
   id="path104"
   inkscape:connector-curvature="0"
   style="fill:#000000;stroke:none" />
         <path
   d="m 10688,14441 v 206 h 676 l -249,-206 z"
   id="path106"
   inkscape:connector-curvature="0"
   style="fill:#000000;stroke:none" />
         <path
   d="m 11852,15376 45,-5 41,-10 38,-21 33,-25 25,-28 21,-36 13,-38 5,-41 -5,-41 -13,-38 -21,-35 -25,-31 -33,-25 -38,-18 -41,-10 -45,-6 -46,6 -41,10 -38,18 -31,25 -27,31 -21,35 -13,38 -5,41 5,41 13,38 21,36 27,28 31,25 38,21 41,10 z"
   id="path108"
   inkscape:connector-curvature="0"
   style="fill:#000000;stroke:none" />
         <path
   d="m 9447,15142 3,5 v 7 8 10 l -3,23 -7,21 -10,17 -16,16 -17,15 -21,10 -23,5 -23,3 -22,-3 -23,-5 -21,-10 -15,-15 -15,-16 -10,-17 -8,-21 -2,-23 v -10 -8 l 2,-7 3,-8 h -105 l -2,8 v 7 8 10 l 5,41 13,38 20,36 25,28 33,25 39,21 40,10 43,5 46,-5 41,-10 38,-21 33,-25 25,-28 21,-36 12,-38 6,-41 v -7 -8 -8 l -3,-7 z"
   id="path110"
   inkscape:connector-curvature="0"
   style="fill:#000000;stroke:none" />
         <path
   d="m 11852,15282 22,-3 23,-5 21,-10 17,-15 16,-16 10,-17 7,-21 3,-23 -3,-23 -7,-20 -10,-18 -16,-18 -17,-12 -21,-13 -23,-5 -22,-3 -23,3 -23,5 -21,13 -17,12 -16,18 -10,18 -7,20 -3,23 3,23 7,21 10,17 16,16 17,15 21,10 23,5 z"
   id="path112"
   inkscape:connector-curvature="0"
   style="fill:#ffffff;stroke:none" />
         <path
   d="m 9447,15142 3,5 v 7 8 10 l -3,23 -7,21 -10,17 -16,16 -17,15 -21,10 -23,5 -23,3 -22,-3 -23,-5 -21,-10 -15,-15 -15,-16 -10,-17 -8,-21 -2,-23 v -10 -8 l 2,-7 3,-8 z"
   id="path114"
   inkscape:connector-curvature="0"
   style="fill:#ffffff;stroke:none" />
        </g>
       </g>
      </g>
     </g>
    </g>
   </g>
  </g>
 </g>
</svg>