<?xml version="1.0" encoding="UTF-8" standalone="no"?>
<svg
   xmlns:ooo="http://xml.openoffice.org/svg/export"
   xmlns:dc="http://purl.org/dc/elements/1.1/"
   xmlns:cc="http://creativecommons.org/ns#"
   xmlns:rdf="http://www.w3.org/1999/02/22-rdf-syntax-ns#"
   xmlns:svg="http://www.w3.org/2000/svg"
   xmlns="http://www.w3.org/2000/svg"
   xmlns:sodipodi="http://sodipodi.sourceforge.net/DTD/sodipodi-0.dtd"
   xmlns:inkscape="http://www.inkscape.org/namespaces/inkscape"
   version="1.2"
   width="24.360001mm"
   height="26.67mm"
   viewBox="0 0 2436.0001 2667"
   preserveAspectRatio="xMidYMid"
   xml:space="preserve"
   id="svg139"
   sodipodi:docname="liteblb.svg"
   style="fill-rule:evenodd;stroke-width:28.22200012;stroke-linejoin:round"
   inkscape:version="0.92.5 (2060ec1f9f, 2020-04-08)"><metadata
   id="metadata143"><rdf:RDF><cc:Work
       rdf:about=""><dc:format>image/svg+xml</dc:format><dc:type
         rdf:resource="http://purl.org/dc/dcmitype/StillImage" /></cc:Work></rdf:RDF></metadata><sodipodi:namedview
   pagecolor="#ffffff"
   bordercolor="#666666"
   borderopacity="1"
   objecttolerance="10"
   gridtolerance="10"
   guidetolerance="10"
   inkscape:pageopacity="0"
   inkscape:pageshadow="2"
   inkscape:window-width="664"
   inkscape:window-height="487"
   id="namedview141"
   showgrid="false"
   inkscape:zoom="0.2102413"
   inkscape:cx="46.034647"
   inkscape:cy="50.381101"
   inkscape:window-x="0"
   inkscape:window-y="0"
   inkscape:window-maximized="0"
   inkscape:current-layer="svg139" />
 <defs
   class="ClipPathGroup"
   id="defs8">
  <clipPath
   id="presentation_clip_path"
   clipPathUnits="userSpaceOnUse">
   <rect
   x="0"
   y="0"
   width="21000"
   height="29700"
   id="rect2" />
  </clipPath>
  <clipPath
   id="presentation_clip_path_shrink"
   clipPathUnits="userSpaceOnUse">
   <rect
   x="21"
   y="29"
   width="20958"
   height="29641"
   id="rect5" />
  </clipPath>
 </defs>
 <defs
   class="TextShapeIndex"
   id="defs12">
  <g
   ooo:slide="id1"
   ooo:id-list="id3"
   id="g10" />
 </defs>
 <defs
   class="EmbeddedBulletChars"
   id="defs44">
  <g
   id="bullet-char-template-57356"
   transform="matrix(4.8828125e-4,0,0,-4.8828125e-4,0,0)">
   <path
   d="M 580,1141 1163,571 580,0 -4,571 Z"
   id="path14"
   inkscape:connector-curvature="0" />
  </g>
  <g
   id="bullet-char-template-57354"
   transform="matrix(4.8828125e-4,0,0,-4.8828125e-4,0,0)">
   <path
   d="M 8,1128 H 1137 V 0 H 8 Z"
   id="path17"
   inkscape:connector-curvature="0" />
  </g>
  <g
   id="bullet-char-template-10146"
   transform="matrix(4.8828125e-4,0,0,-4.8828125e-4,0,0)">
   <path
   d="M 174,0 602,739 174,1481 1456,739 Z M 1358,739 309,1346 659,739 Z"
   id="path20"
   inkscape:connector-curvature="0" />
  </g>
  <g
   id="bullet-char-template-10132"
   transform="matrix(4.8828125e-4,0,0,-4.8828125e-4,0,0)">
   <path
   d="M 2015,739 1276,0 H 717 l 543,543 H 174 v 393 h 1086 l -543,545 h 557 z"
   id="path23"
   inkscape:connector-curvature="0" />
  </g>
  <g
   id="bullet-char-template-10007"
   transform="matrix(4.8828125e-4,0,0,-4.8828125e-4,0,0)">
   <path
   d="m 0,-2 c -7,16 -16,29 -25,39 l 381,530 c -94,256 -141,385 -141,387 0,25 13,38 40,38 9,0 21,-2 34,-5 21,4 42,12 65,25 l 27,-13 111,-251 280,301 64,-25 24,25 c 21,-10 41,-24 62,-43 C 886,937 835,863 770,784 769,783 710,716 594,584 L 774,223 c 0,-27 -21,-55 -63,-84 l 16,-20 C 717,90 699,76 672,76 641,76 570,178 457,381 L 164,-76 c -22,-34 -53,-51 -92,-51 -42,0 -63,17 -64,51 -7,9 -10,24 -10,44 0,9 1,19 2,30 z"
   id="path26"
   inkscape:connector-curvature="0" />
  </g>
  <g
   id="bullet-char-template-10004"
   transform="matrix(4.8828125e-4,0,0,-4.8828125e-4,0,0)">
   <path
   d="M 285,-33 C 182,-33 111,30 74,156 52,228 41,333 41,471 c 0,78 14,145 41,201 34,71 87,106 158,106 53,0 88,-31 106,-94 l 23,-176 c 8,-64 28,-97 59,-98 l 735,706 c 11,11 33,17 66,17 42,0 63,-15 63,-46 V 965 c 0,-36 -10,-64 -30,-84 L 442,47 C 390,-6 338,-33 285,-33 Z"
   id="path29"
   inkscape:connector-curvature="0" />
  </g>
  <g
   id="bullet-char-template-9679"
   transform="matrix(4.8828125e-4,0,0,-4.8828125e-4,0,0)">
   <path
   d="M 813,0 C 632,0 489,54 383,161 276,268 223,411 223,592 c 0,181 53,324 160,431 106,107 249,161 430,161 179,0 323,-54 432,-161 108,-107 162,-251 162,-431 0,-180 -54,-324 -162,-431 C 1136,54 992,0 813,0 Z"
   id="path32"
   inkscape:connector-curvature="0" />
  </g>
  <g
   id="bullet-char-template-8226"
   transform="matrix(4.8828125e-4,0,0,-4.8828125e-4,0,0)">
   <path
   d="m 346,457 c -73,0 -137,26 -191,78 -54,51 -81,114 -81,188 0,73 27,136 81,188 54,52 118,78 191,78 73,0 134,-26 185,-79 51,-51 77,-114 77,-187 0,-75 -25,-137 -76,-188 -50,-52 -112,-78 -186,-78 z"
   id="path35"
   inkscape:connector-curvature="0" />
  </g>
  <g
   id="bullet-char-template-8211"
   transform="matrix(4.8828125e-4,0,0,-4.8828125e-4,0,0)">
   <path
   d="M -4,459 H 1135 V 606 H -4 Z"
   id="path38"
   inkscape:connector-curvature="0" />
  </g>
  <g
   id="bullet-char-template-61548"
   transform="matrix(4.8828125e-4,0,0,-4.8828125e-4,0,0)">
   <path
   d="m 173,740 c 0,163 58,303 173,419 116,115 255,173 419,173 163,0 302,-58 418,-173 116,-116 174,-256 174,-419 0,-163 -58,-303 -174,-418 C 1067,206 928,148 765,148 601,148 462,206 346,322 231,437 173,577 173,740 Z"
   id="path41"
   inkscape:connector-curvature="0" />
  </g>
 </defs>
 <g
   id="g49"
   transform="translate(-9282,-13516)">
  <g
   id="id2"
   class="Master_Slide">
   <g
   id="bg-id2"
   class="Background" />
   <g
   id="bo-id2"
   class="BackgroundObjects" />
  </g>
 </g>
 <g
   class="SlideGroup"
   id="g137"
   transform="translate(-9282,-13516)">
  <g
   id="g135">
   <g
   id="container-id1">
    <g
   id="id1"
   class="Slide"
   clip-path="url(#presentation_clip_path)">
     <g
   class="Page"
   id="g131">
      <g
   class="Graphic"
   id="g129">
       <g
   id="id3">
        <rect
   class="BoundingBox"
   x="9282"
   y="13516"
   width="2436"
   height="2667"
   id="rect51"
   style="fill:none;stroke:none" />
        <defs
   id="defs56">
         <clipPath
   id="clip_path_1"
   clipPathUnits="userSpaceOnUse">
          <path
   d="m 9282,13516 h 2435 v 2666 H 9282 Z"
   id="path53"
   inkscape:connector-curvature="0" />
         </clipPath>
        </defs>
        <g
   clip-path="url(#clip_path_1)"
   id="g126">
         <path
   d="m 10620,15608 -11,8 -10,8 -7,5 -3,2 -25,5 -33,5 -39,3 -38,3 h -35 -33 l -26,-3 -18,-5 -7,-3 -18,-5 -23,-7 -18,-16 -5,135 3,165 2,143 3,61 h 368 z"
   id="path58"
   inkscape:connector-curvature="0"
   style="fill:#ffffff;stroke:none" />
         <path
   d="m 10279,15766 v 48 l 30,-10 26,-10 23,-8 22,-7 18,-8 21,-5 17,-5 21,-3 20,-2 26,-5 25,-5 28,-5 25,-5 26,-6 23,-2 h 17 v -20 l -2,-16 -5,-7 v -3 l -31,8 -30,5 -28,5 -26,5 -25,3 -23,5 -23,2 -20,5 -26,5 -28,8 -25,8 -25,7 -21,8 -15,5 -10,3 z"
   id="path60"
   inkscape:connector-curvature="0"
   style="fill:#99adc1;stroke:none" />
         <path
   d="m 10279,15855 v 51 l 30,-10 26,-10 23,-11 22,-7 18,-8 21,-5 17,-5 21,-3 20,-2 26,-5 25,-5 28,-5 25,-3 26,-5 23,-3 h 17 v -20 l -2,-15 -5,-8 v -2 l -31,7 -30,5 -28,5 -26,6 -25,2 -23,5 -23,3 -20,5 -26,5 -28,8 -25,7 -25,5 -21,8 -15,5 -10,2 z"
   id="path62"
   inkscape:connector-curvature="0"
   style="fill:#99adc1;stroke:none" />
         <path
   d="m 10279,15939 v 48 l 30,-10 26,-10 23,-8 22,-7 18,-8 21,-5 17,-5 21,-3 20,-2 26,-5 25,-5 28,-5 25,-6 26,-5 23,-2 h 17 v -21 l -2,-15 -5,-7 v -3 l -31,8 -30,5 -28,5 -26,5 -25,2 -23,6 -23,2 -20,5 -26,5 -28,8 -25,8 -25,7 -21,8 -15,5 -10,2 z"
   id="path64"
   inkscape:connector-curvature="0"
   style="fill:#99adc1;stroke:none" />
         <path
   d="m 10279,16018 v 48 l 30,-10 26,-10 23,-8 22,-8 18,-7 21,-5 17,-5 21,-3 20,-2 26,-6 25,-5 28,-5 25,-5 26,-5 23,-2 h 17 v -21 l -2,-15 -5,-8 v -2 l -31,7 -30,6 -28,5 -26,5 -25,2 -23,5 -23,3 -20,5 -26,5 -28,8 -25,7 -25,8 -21,8 -15,5 -10,2 z"
   id="path66"
   inkscape:connector-curvature="0"
   style="fill:#99adc1;stroke:none" />
         <path
   d="m 10383,16064 5,20 h 5 10 11 l 15,-3 h 13 l 12,-2 13,-3 8,-2 20,-3 23,-5 23,-2 23,-3 22,-3 h 23 l 21,-2 h 17 v -20 l -2,-16 -5,-7 v -3 l -31,8 -30,5 -28,5 -26,5 -25,3 -23,5 -23,2 -20,5 -38,8 -13,5 -3,3 z"
   id="path68"
   inkscape:connector-curvature="0"
   style="fill:#99adc1;stroke:none" />
         <path
   d="m 10647,16152 v -40 h -368 v 40 z"
   id="path70"
   inkscape:connector-curvature="0"
   style="fill:#000000;stroke:none" />
         <path
   d="m 10469,16183 h 21 l 20,-3 15,-2 16,-3 12,-5 11,-2 5,-5 2,-5 -2,-6 -5,-5 -11,-2 -12,-3 -16,-2 -15,-3 -20,-2 h -21 -20 l -18,2 -17,3 -16,2 -10,3 -10,2 -5,5 -3,6 3,5 5,5 10,2 10,5 16,3 17,2 18,3 z"
   id="path72"
   inkscape:connector-curvature="0"
   style="fill:#000000;stroke:none" />
         <path
   d="m 10589,15631 -25,5 -33,5 -39,3 -38,3 h -35 -33 l -26,-3 -18,-5 -7,-3 -18,-5 -23,-7 -18,-16 -15,-20 -10,-28 -8,-41 -5,-53 -5,-30 -8,-26 -12,-25 -16,-23 -17,-23 -18,-23 -21,-23 -22,-23 -28,-33 -33,-43 -39,-51 -38,-56 -38,-58 -33,-54 -28,-50 -20,-44 -15,-45 -18,-62 -10,-76 2,-86 18,-92 41,-99 68,-99 104,-97 51,-35 51,-28 51,-23 51,-15 51,-13 51,-8 45,-5 h 46 l 43,3 46,7 46,11 46,12 48,21 46,22 48,28 48,34 110,96 73,99 46,94 21,92 2,84 -10,73 -15,62 -16,45 -20,44 -28,50 -33,54 -38,58 -38,56 -38,51 -33,43 -26,33 -23,23 -20,23 -20,23 -18,23 -15,23 -13,25 -8,26 -5,30 -5,53 -8,41 -10,28 -12,20 -11,8 -10,8 -7,5 z"
   id="path74"
   inkscape:connector-curvature="0"
   style="fill:#ffff4c;stroke:none" />
         <path
   d="m 10564,15489 -23,5 -28,3 -31,2 -33,3 h -33 -28 l -20,-3 -15,-5 h -6 l -15,-5 -20,-8 -18,-12 -13,-18 -7,-23 -8,-36 -5,-45 -3,-26 -7,-23 -10,-20 -13,-20 -15,-18 -18,-21 -18,-20 -18,-20 -23,-28 -30,-38 -31,-44 -33,-48 -33,-48 -28,-46 -25,-43 -15,-36 -16,-38 -12,-56 -11,-63 3,-74 15,-81 33,-84 61,-84 89,-84 44,-31 43,-23 43,-17 43,-16 43,-10 44,-7 40,-3 h 39 l 38,3 38,5 40,7 41,13 41,15 41,21 40,25 41,28 94,84 64,84 38,81 18,79 2,71 -8,64 -15,53 -13,38 -17,36 -23,43 -31,46 -30,48 -33,48 -33,44 -28,38 -23,28 -21,20 -17,20 -16,21 -15,18 -13,20 -10,20 -7,23 -5,26 -6,45 -5,36 -7,23 -13,18 -8,7 -7,5 -8,5 z"
   id="path76"
   inkscape:connector-curvature="0"
   style="fill:#ffe500;stroke:none" />
         <path
   d="m 10353,15507 -6,-3 18,8 23,2 h 28 33 l 33,-2 31,-3 28,-2 25,-5 -5,-26 -20,5 -28,3 -31,2 -33,3 h -33 -28 l -18,-3 -12,-2 -5,-3 z"
   id="path78"
   inkscape:connector-curvature="0"
   style="fill:#ffbf00;stroke:none" />
         <path
   d="m 10286,15479 v -3 l 21,15 23,11 15,5 h 8 v -26 h -3 l -15,-5 -18,-5 -15,-10 v -3 z"
   id="path80"
   inkscape:connector-curvature="0"
   style="fill:#ffbf00;stroke:none" />
         <path
   d="m 10248,15347 v 0 l 5,45 8,38 10,26 15,23 16,-21 -11,-12 -5,-21 -7,-33 -5,-45 v 0 z"
   id="path82"
   inkscape:connector-curvature="0"
   style="fill:#ffbf00;stroke:none" />
         <path
   d="m 10149,15186 v 0 l 18,21 18,20 17,20 16,18 12,18 8,20 8,21 2,23 h 26 l -3,-28 -7,-26 -13,-20 -13,-23 -15,-18 -18,-20 -18,-21 -18,-20 v 0 z"
   id="path84"
   inkscape:connector-curvature="0"
   style="fill:#ffbf00;stroke:none" />
         <path
   d="m 9928,14851 v 0 l 18,38 25,43 28,46 33,51 33,48 31,43 30,38 23,28 20,-15 -22,-28 -31,-38 -30,-43 -34,-49 -33,-45 -28,-46 -25,-43 -13,-33 v 0 z"
   id="path86"
   inkscape:connector-curvature="0"
   style="fill:#ffbf00;stroke:none" />
         <path
   d="m 10096,14274 v 0 l -92,86 -61,87 -35,86 -16,84 -2,74 10,66 13,56 15,38 25,-5 -15,-38 -13,-56 -10,-61 3,-74 15,-79 30,-81 61,-82 87,-81 v 0 z"
   id="path88"
   inkscape:connector-curvature="0"
   style="fill:#ffbf00;stroke:none" />
         <path
   d="m 10442,14164 v 0 h -39 l -40,3 -46,7 -43,11 -44,15 -45,20 -44,23 -45,31 15,20 41,-31 43,-22 41,-16 43,-15 43,-10 41,-8 40,-2 h 39 v 0 z"
   id="path90"
   inkscape:connector-curvature="0"
   style="fill:#ffbf00;stroke:none" />
         <path
   d="m 10770,14284 v 0 l -41,-28 -43,-26 -41,-22 -43,-16 -41,-12 -43,-8 -38,-5 -38,-3 v 26 l 38,2 38,5 38,8 41,13 38,15 40,18 39,25 40,28 v 0 z"
   id="path92"
   inkscape:connector-curvature="0"
   style="fill:#ffbf00;stroke:none" />
         <path
   d="m 10955,14853 v -2 l 13,-38 15,-54 8,-66 -3,-71 -18,-81 -40,-84 -66,-87 -94,-86 -16,20 94,82 61,81 36,79 18,76 2,71 -7,61 -16,54 -12,38 v -3 z"
   id="path94"
   inkscape:connector-curvature="0"
   style="fill:#ffbf00;stroke:none" />
         <path
   d="m 10734,15186 v 0 l 23,-28 28,-38 33,-43 33,-48 30,-51 31,-46 23,-43 20,-36 -25,-10 -16,36 -22,43 -31,46 -30,45 -33,49 -34,43 -28,38 -22,28 v 0 z"
   id="path96"
   inkscape:connector-curvature="0"
   style="fill:#ffbf00;stroke:none" />
         <path
   d="m 10632,15347 v 0 l 5,-23 8,-21 8,-20 12,-18 16,-18 15,-20 15,-20 23,-21 -20,-15 -18,20 -21,21 -15,20 -15,18 -13,23 -12,20 -8,26 -5,28 v 0 z"
   id="path98"
   inkscape:connector-curvature="0"
   style="fill:#ffbf00;stroke:none" />
         <path
   d="m 10599,15476 h -2 l 15,-20 10,-26 5,-38 5,-45 h -25 l -5,45 -5,33 -5,21 -11,15 h -2 z"
   id="path100"
   inkscape:connector-curvature="0"
   style="fill:#ffbf00;stroke:none" />
         <path
   d="m 10566,15502 3,-3 5,-2 7,-6 8,-5 10,-10 -20,-15 -5,5 -8,5 -8,5 v 3 l 3,-3 5,26 h 3 v -3 z"
   id="path102"
   inkscape:connector-curvature="0"
   style="fill:#ffbf00;stroke:none" />
         <path
   d="m 10431,15499 -119,-689 -21,3 120,689 z"
   id="path104"
   inkscape:connector-curvature="0"
   style="fill:#000000;stroke:none" />
         <path
   d="m 10472,15502 117,-689 -15,-3 -122,689 z"
   id="path106"
   inkscape:connector-curvature="0"
   style="fill:#000000;stroke:none" />
         <path
   d="m 10319,14836 51,-26 h -7 l 43,31 5,2 5,-2 69,-31 h -8 l 46,26 h 2 6 l 53,-16 -5,-18 -54,16 6,2 -44,-25 -5,-3 -2,3 -72,28 8,2 -43,-30 -5,-3 -5,3 -51,25 z"
   id="path108"
   inkscape:connector-curvature="0"
   style="fill:#ffffff;stroke:none" />
         <path
   d="m 10314,14894 51,-23 -7,-2 43,30 5,3 h 5 l 69,-31 h -8 l 46,23 2,3 h 5 l 54,-16 -5,-18 -54,16 h 5 l -43,-26 h -5 -2 l -72,31 h 8 l -43,-28 -5,-3 h -5 l -51,26 z"
   id="path110"
   inkscape:connector-curvature="0"
   style="fill:#ffffff;stroke:none" />
         <path
   d="m 9844,14080 -242,-287 v 0 l -2,-2 -3,-3 h -5 l -2,3 -3,2 v 5 3 l 3,2 v 0 l 239,290 v 0 l 2,3 h 5 3 l 2,-3 3,-2 3,-3 v -5 z"
   id="path112"
   inkscape:connector-curvature="0"
   style="fill:#ffbf00;stroke:none" />
         <path
   d="m 9613,14558 -321,-15 v 0 h -2 l -5,3 -3,2 v 3 2 l 3,5 5,3 h 2 v 0 l 321,15 v 0 h 2 l 3,-2 2,-3 v -2 -3 l -2,-5 -3,-3 z"
   id="path114"
   inkscape:connector-curvature="0"
   style="fill:#ffbf00;stroke:none" />
         <path
   d="m 10469,13910 v -384 0 -2 l -2,-5 -3,-3 h -2 -3 l -5,3 -2,5 v 2 0 384 0 3 l 2,5 5,2 h 3 2 l 3,-2 2,-5 z"
   id="path116"
   inkscape:connector-curvature="0"
   style="fill:#ffbf00;stroke:none" />
         <path
   d="m 11011,14060 257,-353 v 0 l 2,-3 v -2 l -2,-5 -3,-3 h -2 -3 -5 l -2,3 v 0 l -257,353 v 0 2 6 2 l 2,3 3,2 h 5 l 3,-2 z"
   id="path118"
   inkscape:connector-curvature="0"
   style="fill:#ffbf00;stroke:none" />
         <path
   d="m 11278,14431 432,-45 v 0 l 3,-3 2,-3 3,-2 v -3 -2 l -3,-5 h -5 -2 v 0 l -432,48 v 0 h -3 l -3,3 -2,2 v 3 2 l 2,5 h 6 z"
   id="path120"
   inkscape:connector-curvature="0"
   style="fill:#ffbf00;stroke:none" />
         <path
   d="m 11143,15024 354,190 v 0 h 2 5 3 l 2,-2 v -3 -5 l -2,-2 -3,-3 v 0 l -351,-191 v 0 h -2 -5 l -3,3 -2,2 v 3 3 2 z"
   id="path122"
   inkscape:connector-curvature="0"
   style="fill:#ffbf00;stroke:none" />
         <path
   d="m 9798,15087 -287,209 v 0 l -3,2 -2,3 v 5 l 2,2 3,3 h 2 5 3 v 0 l 290,-209 v 0 l 2,-2 v -5 -3 l -2,-2 -3,-3 -2,-2 h -5 z"
   id="path124"
   inkscape:connector-curvature="0"
   style="fill:#ffbf00;stroke:none" />
        </g>
       </g>
      </g>
     </g>
    </g>
   </g>
  </g>
 </g>
</svg>