<?xml version="1.0" encoding="UTF-8" standalone="no"?>
<svg
   xmlns:ooo="http://xml.openoffice.org/svg/export"
   xmlns:dc="http://purl.org/dc/elements/1.1/"
   xmlns:cc="http://creativecommons.org/ns#"
   xmlns:rdf="http://www.w3.org/1999/02/22-rdf-syntax-ns#"
   xmlns:svg="http://www.w3.org/2000/svg"
   xmlns="http://www.w3.org/2000/svg"
   xmlns:sodipodi="http://sodipodi.sourceforge.net/DTD/sodipodi-0.dtd"
   xmlns:inkscape="http://www.inkscape.org/namespaces/inkscape"
   version="1.2"
   width="63.5mm"
   height="49.48mm"
   viewBox="0 0 6350 4948"
   preserveAspectRatio="xMidYMid"
   xml:space="preserve"
   id="svg577"
   sodipodi:docname="longhalr.svg"
   style="fill-rule:evenodd;stroke-width:28.22200012;stroke-linejoin:round"
   inkscape:version="0.92.5 (2060ec1f9f, 2020-04-08)"><metadata
   id="metadata581"><rdf:RDF><cc:Work
       rdf:about=""><dc:format>image/svg+xml</dc:format><dc:type
         rdf:resource="http://purl.org/dc/dcmitype/StillImage" /></cc:Work></rdf:RDF></metadata><sodipodi:namedview
   pagecolor="#ffffff"
   bordercolor="#666666"
   borderopacity="1"
   objecttolerance="10"
   gridtolerance="10"
   guidetolerance="10"
   inkscape:pageopacity="0"
   inkscape:pageshadow="2"
   inkscape:window-width="664"
   inkscape:window-height="487"
   id="namedview579"
   showgrid="false"
   inkscape:zoom="0.2102413"
   inkscape:cx="120"
   inkscape:cy="93.50551"
   inkscape:window-x="0"
   inkscape:window-y="0"
   inkscape:window-maximized="0"
   inkscape:current-layer="svg577" />
 <defs
   class="ClipPathGroup"
   id="defs8">
  <clipPath
   id="presentation_clip_path"
   clipPathUnits="userSpaceOnUse">
   <rect
   x="0"
   y="0"
   width="21000"
   height="29700"
   id="rect2" />
  </clipPath>
  <clipPath
   id="presentation_clip_path_shrink"
   clipPathUnits="userSpaceOnUse">
   <rect
   x="21"
   y="29"
   width="20958"
   height="29641"
   id="rect5" />
  </clipPath>
 </defs>
 <defs
   class="TextShapeIndex"
   id="defs12">
  <g
   ooo:slide="id1"
   ooo:id-list="id3"
   id="g10" />
 </defs>
 <defs
   class="EmbeddedBulletChars"
   id="defs44">
  <g
   id="bullet-char-template-57356"
   transform="matrix(4.8828125e-4,0,0,-4.8828125e-4,0,0)">
   <path
   d="M 580,1141 1163,571 580,0 -4,571 Z"
   id="path14"
   inkscape:connector-curvature="0" />
  </g>
  <g
   id="bullet-char-template-57354"
   transform="matrix(4.8828125e-4,0,0,-4.8828125e-4,0,0)">
   <path
   d="M 8,1128 H 1137 V 0 H 8 Z"
   id="path17"
   inkscape:connector-curvature="0" />
  </g>
  <g
   id="bullet-char-template-10146"
   transform="matrix(4.8828125e-4,0,0,-4.8828125e-4,0,0)">
   <path
   d="M 174,0 602,739 174,1481 1456,739 Z M 1358,739 309,1346 659,739 Z"
   id="path20"
   inkscape:connector-curvature="0" />
  </g>
  <g
   id="bullet-char-template-10132"
   transform="matrix(4.8828125e-4,0,0,-4.8828125e-4,0,0)">
   <path
   d="M 2015,739 1276,0 H 717 l 543,543 H 174 v 393 h 1086 l -543,545 h 557 z"
   id="path23"
   inkscape:connector-curvature="0" />
  </g>
  <g
   id="bullet-char-template-10007"
   transform="matrix(4.8828125e-4,0,0,-4.8828125e-4,0,0)">
   <path
   d="m 0,-2 c -7,16 -16,29 -25,39 l 381,530 c -94,256 -141,385 -141,387 0,25 13,38 40,38 9,0 21,-2 34,-5 21,4 42,12 65,25 l 27,-13 111,-251 280,301 64,-25 24,25 c 21,-10 41,-24 62,-43 C 886,937 835,863 770,784 769,783 710,716 594,584 L 774,223 c 0,-27 -21,-55 -63,-84 l 16,-20 C 717,90 699,76 672,76 641,76 570,178 457,381 L 164,-76 c -22,-34 -53,-51 -92,-51 -42,0 -63,17 -64,51 -7,9 -10,24 -10,44 0,9 1,19 2,30 z"
   id="path26"
   inkscape:connector-curvature="0" />
  </g>
  <g
   id="bullet-char-template-10004"
   transform="matrix(4.8828125e-4,0,0,-4.8828125e-4,0,0)">
   <path
   d="M 285,-33 C 182,-33 111,30 74,156 52,228 41,333 41,471 c 0,78 14,145 41,201 34,71 87,106 158,106 53,0 88,-31 106,-94 l 23,-176 c 8,-64 28,-97 59,-98 l 735,706 c 11,11 33,17 66,17 42,0 63,-15 63,-46 V 965 c 0,-36 -10,-64 -30,-84 L 442,47 C 390,-6 338,-33 285,-33 Z"
   id="path29"
   inkscape:connector-curvature="0" />
  </g>
  <g
   id="bullet-char-template-9679"
   transform="matrix(4.8828125e-4,0,0,-4.8828125e-4,0,0)">
   <path
   d="M 813,0 C 632,0 489,54 383,161 276,268 223,411 223,592 c 0,181 53,324 160,431 106,107 249,161 430,161 179,0 323,-54 432,-161 108,-107 162,-251 162,-431 0,-180 -54,-324 -162,-431 C 1136,54 992,0 813,0 Z"
   id="path32"
   inkscape:connector-curvature="0" />
  </g>
  <g
   id="bullet-char-template-8226"
   transform="matrix(4.8828125e-4,0,0,-4.8828125e-4,0,0)">
   <path
   d="m 346,457 c -73,0 -137,26 -191,78 -54,51 -81,114 -81,188 0,73 27,136 81,188 54,52 118,78 191,78 73,0 134,-26 185,-79 51,-51 77,-114 77,-187 0,-75 -25,-137 -76,-188 -50,-52 -112,-78 -186,-78 z"
   id="path35"
   inkscape:connector-curvature="0" />
  </g>
  <g
   id="bullet-char-template-8211"
   transform="matrix(4.8828125e-4,0,0,-4.8828125e-4,0,0)">
   <path
   d="M -4,459 H 1135 V 606 H -4 Z"
   id="path38"
   inkscape:connector-curvature="0" />
  </g>
  <g
   id="bullet-char-template-61548"
   transform="matrix(4.8828125e-4,0,0,-4.8828125e-4,0,0)">
   <path
   d="m 173,740 c 0,163 58,303 173,419 116,115 255,173 419,173 163,0 302,-58 418,-173 116,-116 174,-256 174,-419 0,-163 -58,-303 -174,-418 C 1067,206 928,148 765,148 601,148 462,206 346,322 231,437 173,577 173,740 Z"
   id="path41"
   inkscape:connector-curvature="0" />
  </g>
 </defs>
 <g
   id="g49"
   transform="translate(-7325,-12376)">
  <g
   id="id2"
   class="Master_Slide">
   <g
   id="bg-id2"
   class="Background" />
   <g
   id="bo-id2"
   class="BackgroundObjects" />
  </g>
 </g>
 <g
   class="SlideGroup"
   id="g575"
   transform="translate(-7325,-12376)">
  <g
   id="g573">
   <g
   id="container-id1">
    <g
   id="id1"
   class="Slide"
   clip-path="url(#presentation_clip_path)">
     <g
   class="Page"
   id="g569">
      <g
   class="Graphic"
   id="g567">
       <g
   id="id3">
        <rect
   class="BoundingBox"
   x="7325"
   y="12376"
   width="6350"
   height="4948"
   id="rect51"
   style="fill:none;stroke:none" />
        <defs
   id="defs56">
         <clipPath
   id="clip_path_1"
   clipPathUnits="userSpaceOnUse">
          <path
   d="m 7325,12376 h 6349 v 4947 H 7325 Z"
   id="path53"
   inkscape:connector-curvature="0" />
         </clipPath>
        </defs>
        <g
   clip-path="url(#clip_path_1)"
   id="g564">
         <path
   d="m 8875,13240 -15,-2 -21,-6 -22,-5 -31,-7 -33,-5 -36,-3 -38,-2 -40,-3 -41,3 -43,5 -41,7 -40,10 -41,18 -38,21 -33,28 -33,33 -38,45 -49,59 -61,71 -68,84 -77,89 -78,94 -84,99 -81,96 -82,97 -76,89 -71,84 -61,74 -53,60 -39,49 -25,30 -10,10 -51,999 h 15 l 38,-2 h 64 l 79,-3 96,-2 107,-3 114,-5 117,-3 120,-2 114,-5 107,-3 99,-2 81,-3 66,-2 43,-3 18,-2 15,-8 13,-10 10,-8 3,-2 134,-1762 z"
   id="path58"
   inkscape:connector-curvature="0"
   style="fill:#7f99b2;stroke:none" />
         <path
   d="m 8336,13339 v 0 l 33,-33 31,-25 38,-21 38,-17 41,-11 38,-7 43,-5 h 41 40 l 38,2 36,3 33,5 28,8 23,5 20,5 15,2 6,-20 -16,-3 -20,-5 -23,-5 -33,-7 -33,-6 -36,-2 -38,-3 -40,-5 -41,5 -43,5 -43,8 -41,10 -43,18 -38,20 -36,31 -33,33 v 0 z"
   id="path60"
   inkscape:connector-curvature="0"
   style="fill:#000000;stroke:none" />
         <path
   d="m 7386,14462 -3,8 11,-10 25,-31 38,-48 53,-61 61,-74 72,-83 76,-89 81,-97 81,-97 84,-99 79,-94 76,-89 69,-83 61,-72 48,-58 38,-46 -15,-15 -38,46 -48,58 -61,71 -69,84 -76,89 -79,94 -84,99 -81,97 -81,96 -77,89 -71,84 -61,74 -53,61 -38,48 -26,31 -10,10 -2,7 2,-7 -2,5 v 2 z"
   id="path62"
   inkscape:connector-curvature="0"
   style="fill:#000000;stroke:none" />
         <path
   d="m 7325,15451 10,10 51,-999 h -20 l -51,999 10,10 -10,-10 -3,13 13,-3 z"
   id="path64"
   inkscape:connector-curvature="0"
   style="fill:#000000;stroke:none" />
         <path
   d="m 8601,15410 v 0 l -16,3 -43,2 -66,3 h -81 l -99,3 -107,5 -114,5 h -120 l -117,5 -114,5 h -107 l -96,2 -79,3 h -64 l -38,2 -15,3 v 20 l 15,3 38,-3 h 64 l 79,-2 96,-3 107,-5 114,-5 h 117 l 120,-5 114,-5 h 107 l 99,-3 81,-5 66,-2 43,-3 21,-2 v 0 z"
   id="path66"
   inkscape:connector-curvature="0"
   style="fill:#000000;stroke:none" />
         <path
   d="m 8634,15393 2,-8 -2,2 -11,8 -10,8 -12,7 5,21 17,-8 16,-13 10,-7 2,-3 3,-7 -3,7 3,-2 v -5 z"
   id="path68"
   inkscape:connector-curvature="0"
   style="fill:#000000;stroke:none" />
         <path
   d="m 8768,13629 v 2 l -134,1762 h 20 l 135,-1762 v 3 z"
   id="path70"
   inkscape:connector-curvature="0"
   style="fill:#000000;stroke:none" />
         <path
   d="m 8872,13250 -7,-12 -97,391 21,5 96,-391 -7,-13 7,13 5,-11 -12,-2 z"
   id="path72"
   inkscape:connector-curvature="0"
   style="fill:#000000;stroke:none" />
         <path
   d="m 8710,13337 -59,1901 127,-1607 67,-282 -6,-2 -10,-3 -18,-7 -20,-5 -23,-6 h -20 l -20,3 z"
   id="path74"
   inkscape:connector-curvature="0"
   style="fill:#fff9bf;stroke:none" />
         <path
   d="m 8641,15238 h 21 l 58,-1901 h -20 l -59,1901 h 21 z"
   id="path76"
   inkscape:connector-curvature="0"
   style="fill:#000000;stroke:none" />
         <path
   d="m 8768,13629 v 2 l -127,1607 h 21 l 127,-1607 v 3 z"
   id="path78"
   inkscape:connector-curvature="0"
   style="fill:#000000;stroke:none" />
         <path
   d="m 8839,13360 -5,-13 -66,282 21,5 66,-282 -5,-13 5,13 2,-8 -7,-5 z"
   id="path80"
   inkscape:connector-curvature="0"
   style="fill:#000000;stroke:none" />
         <path
   d="m 8720,13337 -3,7 13,-5 18,-2 h 20 l 21,5 20,5 18,7 10,3 2,3 11,-21 -8,-2 -10,-3 -18,-8 -20,-5 -26,-5 h -20 l -23,3 -23,10 -2,8 z"
   id="path82"
   inkscape:connector-curvature="0"
   style="fill:#000000;stroke:none" />
         <path
   d="m 8418,13372 -1042,1149 -43,859 1008,-104 z"
   id="path84"
   inkscape:connector-curvature="0"
   style="fill:#fff9bf;stroke:none" />
         <path
   d="m 7383,14521 -2,5 1042,-1149 -10,-10 -1042,1149 -3,5 3,-5 -3,2 v 3 z"
   id="path86"
   inkscape:connector-curvature="0"
   style="fill:#000000;stroke:none" />
         <path
   d="m 7333,15372 7,8 43,-859 h -15 l -43,859 8,7 -8,-7 -3,10 11,-3 z"
   id="path88"
   inkscape:connector-curvature="0"
   style="fill:#000000;stroke:none" />
         <path
   d="m 8334,15276 7,-8 -1008,104 v 15 l 1008,-104 8,-7 -8,7 h 8 v -7 z"
   id="path90"
   inkscape:connector-curvature="0"
   style="fill:#000000;stroke:none" />
         <path
   d="m 8423,13377 -13,-5 -76,1904 h 15 l 76,-1904 -12,-5 12,5 3,-25 -15,20 z"
   id="path92"
   inkscape:connector-curvature="0"
   style="fill:#000000;stroke:none" />
         <path
   d="m 7724,15870 -3,8 -5,18 -12,18 -21,10 h -12 l -16,2 h -12 l -13,-2 -13,-3 -10,-2 -8,-5 -5,-8 v 2 l -5,6 -7,5 -16,5 -12,2 h -16 l -20,3 -20,-3 -23,-2 -18,-8 -13,-13 -10,-17 -7,2 -21,5 -25,-7 -20,-33 -11,-59 v -74 l 11,-68 17,-46 18,-20 15,-10 13,-6 h 13 l -5,-111 587,-21 v 310 l -79,5 v 3 l -5,3 -5,5 -10,7 -13,8 -18,5 -20,2 -26,3 -25,-3 -18,-5 -15,-5 -10,-7 -8,-8 -5,-8 -2,-2 v -3 h -21 l -2,18 -3,36 -5,43 z"
   id="path94"
   inkscape:connector-curvature="0"
   style="fill:#000000;stroke:none" />
         <path
   d="m 7480,15751 -8,-3 h -12 l -13,3 -8,8 v 12 33 l 5,31 11,18 17,-21 13,-51 8,-58 -3,-48 -2,10 -3,20 -5,26 z"
   id="path96"
   inkscape:connector-curvature="0"
   style="fill:#ffffff;stroke:none" />
         <path
   d="m 7409,15728 -8,-3 -10,3 -10,3 -10,7 v 13 l 2,28 5,28 8,13 18,-16 10,-45 5,-54 v -43 l -3,8 -2,20 -5,20 z"
   id="path98"
   inkscape:connector-curvature="0"
   style="fill:#ffffff;stroke:none" />
         <path
   d="m 8019,15438 v 504 l -5,2 -13,3 -10,7 v 10 l 5,5 10,6 10,5 10,2 16,3 h 12 l 16,-5 15,-8 15,-15 -8,-10 -15,-5 h -7 v -504 z"
   id="path100"
   inkscape:connector-curvature="0"
   style="fill:#7f99b2;stroke:none" />
         <path
   d="m 8019,15949 10,-7 v -504 h -20 v 504 l 10,-8 v 15 h 10 v -7 z"
   id="path102"
   inkscape:connector-curvature="0"
   style="fill:#000000;stroke:none" />
         <path
   d="m 7998,15959 v 0 -2 l 5,-3 13,-2 3,-3 v -15 l -8,2 -13,3 -15,13 v 17 0 z"
   id="path104"
   inkscape:connector-curvature="0"
   style="fill:#000000;stroke:none" />
         <path
   d="m 8080,15964 v 0 l -13,8 -13,5 h -12 l -16,-2 -7,-3 -10,-5 -8,-5 -3,-3 -15,10 8,8 12,5 11,5 12,3 16,2 h 12 l 18,-5 18,-7 v 0 z"
   id="path106"
   inkscape:connector-curvature="0"
   style="fill:#000000;stroke:none" />
         <path
   d="m 8059,15942 11,7 h 7 l 10,5 h 5 l -12,10 10,16 18,-21 -11,-20 -20,-5 h -7 l 10,8 h -21 v 7 h 11 z"
   id="path108"
   inkscape:connector-curvature="0"
   style="fill:#000000;stroke:none" />
         <path
   d="m 8070,15448 -11,-10 v 504 h 21 v -504 l -10,-10 10,10 v -10 h -10 z"
   id="path110"
   inkscape:connector-curvature="0"
   style="fill:#000000;stroke:none" />
         <path
   d="m 8029,15438 -10,10 h 51 v -20 h -51 l -10,10 10,-10 h -10 v 10 z"
   id="path112"
   inkscape:connector-curvature="0"
   style="fill:#000000;stroke:none" />
         <path
   d="m 8118,15870 10,-68 15,-64 18,-48 20,-36 26,-28 25,-22 23,-16 20,-10 21,-8 20,-2 18,-3 h 18 17 21 l 23,-2 h 22 21 l 18,2 h 15 l 7,5 h 5 13 18 23 l 25,3 21,5 20,8 13,12 h 2 l 8,-2 12,-5 16,-3 23,-5 22,-2 31,-3 h 30 l 31,5 28,10 20,13 18,15 15,16 10,17 8,13 3,13 22,-8 21,-7 20,-6 18,-5 15,-2 13,-3 h 10 8 l 383,23 21,3 15,2 13,5 10,5 7,5 5,3 6,5 v 0 l 58,-333 -30,8 -23,73 -28,46 -33,26 -33,7 -31,-2 -25,-10 -18,-8 -5,-5 -23,43 -544,-10 -119,-122 v -20 l -3,2 -10,8 -13,10 -15,8 -10,2 h -20 l -28,3 h -36 l -41,2 -43,3 h -48 l -48,2 h -49 l -48,3 h -43 -38 l -33,2 h -26 -17 -5 v 399 l 5,5 10,11 15,12 z"
   id="path114"
   inkscape:connector-curvature="0"
   style="fill:#000000;stroke:none" />
         <path
   d="m 8911,15680 22,-8 21,-7 20,-6 18,-5 15,-2 13,-3 h 10 8 l 383,23 h 3 5 l 10,3 h 13 l 13,5 12,5 10,5 11,10 58,-333 -38,8 v 5 l -3,18 -5,23 -7,27 -13,28 -15,23 -23,18 -31,5 h -28 -22 l -13,-2 h -10 l -5,-3 -6,-5 -2,-5 -5,-5 -23,43 -544,-10 -119,-122 134,-1761 133,-549 12,-8 31,-15 46,-28 55,-30 59,-31 56,-33 51,-28 38,-20 18,-8 17,-8 23,-7 23,-5 25,-5 26,-5 28,-3 30,-3 31,-2 28,-3 h 33 30 l 31,3 28,2 30,3 28,3 36,5 48,7 61,10 69,13 78,13 82,13 86,12 86,16 87,15 84,12 81,13 71,13 66,10 54,8 40,7 28,3 21,5 25,5 28,10 28,13 30,18 33,20 33,25 33,28 33,36 34,41 30,45 30,54 28,58 26,66 23,74 18,81 719,221 -16,38 -86,31 43,414 h 8 l 20,3 33,2 41,5 51,5 53,6 61,7 64,5 60,8 64,7 58,6 54,5 46,5 38,5 30,2 15,3 16,2 25,6 31,7 40,8 43,10 49,10 51,13 50,10 54,13 48,12 48,11 41,10 38,7 28,8 23,5 10,3 18,7 10,8 5,13 3,15 2,145 10,294 8,293 2,132 16,5 40,15 56,23 66,28 66,28 59,28 46,23 22,15 11,43 12,94 18,132 15,148 16,150 12,134 10,100 3,50 -5,23 -15,33 -26,41 -33,43 -40,46 -46,46 -54,45 -55,41 -387,15 -5,8 -15,20 -20,28 -28,33 -31,33 -33,31 -30,25 -31,15 -15,6 -20,5 -26,2 -25,5 -31,5 -30,5 -33,5 -33,3 -33,5 -33,3 -31,5 h -30 l -31,2 h -25 -23 -18 l -40,-7 -49,-13 -56,-23 -58,-25 -56,-33 -51,-36 -40,-38 -28,-38 -1185,30 -2,13 -8,31 -10,43 -15,53 -18,56 -23,51 -25,43 -26,28 -17,10 -23,10 -31,13 -33,10 -38,13 -43,10 -43,10 -46,8 -48,7 -49,6 -50,2 -46,-2 -46,-3 -43,-8 -41,-12 -38,-16 -66,-61 -58,-99 -54,-124 -43,-132 -36,-130 -25,-109 -15,-79 -5,-28 -104,23 -66,20 -351,-96 -5,-8 -5,-18 -3,-23 8,-25 -226,-56 v 5 l -3,13 -8,20 -7,20 -13,23 -18,21 -20,15 -28,8 -30,2 h -33 -34 l -33,-2 -27,-6 -26,-7 -18,-15 -10,-18 -2,7 -8,13 -23,15 -35,11 -28,2 -41,5 h -46 -51 l -48,-7 -46,-18 -33,-31 -23,-45 -5,2 -15,8 -20,5 -26,2 -28,-2 -28,-15 -27,-28 -23,-46 -18,-64 -10,-78 -3,-87 3,-86 10,-87 15,-76 18,-63 25,-44 26,-28 25,-22 23,-16 20,-10 21,-8 20,-2 18,-3 h 18 17 21 l 23,-2 h 22 21 l 18,2 h 15 l 7,5 h 5 13 18 23 l 25,3 21,5 20,8 13,12 h 2 l 8,-2 12,-5 16,-3 23,-5 22,-2 31,-3 h 30 l 31,5 28,10 20,13 18,15 15,16 10,17 8,13 z"
   id="path116"
   inkscape:connector-curvature="0"
   style="fill:#ffffff;stroke:none" />
         <path
   d="m 9038,15639 v -2 h -8 l -10,2 -13,3 -18,2 -17,5 -21,5 -20,8 -23,8 5,20 23,-8 20,-7 21,-5 17,-5 13,-3 13,-3 10,3 h 8 v -3 z"
   id="path118"
   inkscape:connector-curvature="0"
   style="fill:#000000;stroke:none" />
         <path
   d="m 9421,15659 v 3 l -383,-23 v 20 l 383,23 v 3 z"
   id="path120"
   inkscape:connector-curvature="0"
   style="fill:#000000;stroke:none" />
         <path
   d="m 9487,15700 18,-8 -13,-10 -10,-7 -15,-5 -15,-5 h -13 l -10,-3 -5,-3 h -3 v 26 h 3 l 5,-3 10,3 h 13 l 10,5 10,5 10,3 8,10 18,-8 z"
   id="path122"
   inkscape:connector-curvature="0"
   style="fill:#000000;stroke:none" />
         <path
   d="m 9556,15377 -10,-10 -59,333 h 21 l 58,-333 -10,-10 10,10 5,-15 -15,5 z"
   id="path124"
   inkscape:connector-curvature="0"
   style="fill:#000000;stroke:none" />
         <path
   d="m 9528,15375 -10,10 38,-8 v -20 l -38,8 -10,10 10,-10 h -10 v 10 z"
   id="path126"
   inkscape:connector-curvature="0"
   style="fill:#000000;stroke:none" />
         <path
   d="m 9421,15535 v 0 l 33,-8 28,-20 18,-25 13,-31 7,-28 6,-25 2,-18 v -5 h -20 v 5 l -3,18 -5,20 -8,28 -12,25 -13,21 -18,15 -28,2 v 0 z"
   id="path128"
   inkscape:connector-curvature="0"
   style="fill:#000000;stroke:none" />
         <path
   d="m 9340,15507 -18,2 5,3 3,5 7,8 11,5 h 10 l 13,2 22,3 h 28 v -26 h -28 l -22,3 -13,-3 h -10 v 0 l -3,-2 -2,-5 -6,-8 -17,3 z"
   id="path130"
   inkscape:connector-curvature="0"
   style="fill:#000000;stroke:none" />
         <path
   d="m 9307,15555 10,-5 23,-43 -20,-10 -23,43 10,-5 v 20 l 5,3 5,-8 z"
   id="path132"
   inkscape:connector-curvature="0"
   style="fill:#000000;stroke:none" />
         <path
   d="m 8756,15543 7,2 544,10 v -20 l -544,-10 8,2 -15,16 2,2 h 5 z"
   id="path134"
   inkscape:connector-curvature="0"
   style="fill:#000000;stroke:none" />
         <path
   d="m 8634,15413 2,8 120,122 15,-16 -120,-122 3,8 h -20 l -3,2 5,6 z"
   id="path136"
   inkscape:connector-curvature="0"
   style="fill:#000000;stroke:none" />
         <path
   d="m 8768,13649 v 3 l -134,1761 h 20 l 135,-1761 v 2 z"
   id="path138"
   inkscape:connector-curvature="0"
   style="fill:#000000;stroke:none" />
         <path
   d="m 8906,13093 -6,7 -132,549 21,5 132,-549 -5,8 -10,-20 -6,2 v 5 z"
   id="path140"
   inkscape:connector-curvature="0"
   style="fill:#000000;stroke:none" />
         <path
   d="m 9254,12900 v 0 l -38,20 -51,28 -56,33 -59,30 -56,31 -45,28 -31,15 -12,8 10,20 12,-8 31,-15 46,-28 56,-30 58,-31 56,-33 51,-28 38,-20 v 0 z"
   id="path142"
   inkscape:connector-curvature="0"
   style="fill:#000000;stroke:none" />
         <path
   d="m 9688,12861 v 0 l -28,-2 -30,-3 -28,-2 -31,-5 h -30 -33 l -28,5 -31,2 -30,3 -28,2 -26,5 -28,6 -22,5 -23,7 -18,8 -20,8 10,20 15,-8 18,-7 23,-8 23,-5 22,-5 26,-5 28,-3 30,-2 31,-3 h 28 33 30 31 l 28,3 30,2 28,3 v 0 z"
   id="path144"
   inkscape:connector-curvature="0"
   style="fill:#000000;stroke:none" />
         <path
   d="m 10745,13032 v 0 l -28,-3 -40,-7 -54,-8 -66,-10 -71,-13 -81,-13 -84,-12 -87,-16 -86,-15 -86,-13 -82,-12 -78,-13 -69,-13 -61,-10 -48,-8 -36,-5 v 21 l 36,5 48,7 61,11 69,12 78,13 82,13 86,12 86,16 87,15 84,13 81,12 71,13 66,10 54,8 40,7 28,3 v 0 z"
   id="path146"
   inkscape:connector-curvature="0"
   style="fill:#000000;stroke:none" />
         <path
   d="m 11200,13611 8,10 -18,-84 -23,-73 -25,-66 -28,-61 -31,-54 -30,-45 -36,-44 -33,-35 -33,-28 -36,-28 -33,-21 -30,-17 -31,-13 -28,-10 -25,-5 -23,-5 v 20 l 18,5 25,5 28,10 26,13 30,18 33,20 31,23 33,28 33,36 30,38 31,45 30,54 28,56 26,66 23,73 17,79 8,10 z"
   id="path148"
   inkscape:connector-curvature="0"
   style="fill:#000000;stroke:none" />
         <path
   d="m 11927,13845 -8,-13 -719,-221 -5,20 719,222 -8,-13 21,5 5,-10 -13,-3 z"
   id="path150"
   inkscape:connector-curvature="0"
   style="fill:#000000;stroke:none" />
         <path
   d="m 11904,13891 8,-8 15,-38 -21,-5 -15,38 8,-8 5,21 5,-3 3,-5 z"
   id="path152"
   inkscape:connector-curvature="0"
   style="fill:#000000;stroke:none" />
         <path
   d="m 11825,13911 -7,10 86,-30 -5,-21 -87,31 -7,10 7,-10 -10,2 3,8 z"
   id="path154"
   inkscape:connector-curvature="0"
   style="fill:#000000;stroke:none" />
         <path
   d="m 11858,14315 10,10 -43,-414 h -20 l 43,414 10,10 -10,-10 v 10 h 10 z"
   id="path156"
   inkscape:connector-curvature="0"
   style="fill:#000000;stroke:none" />
         <path
   d="m 12554,14389 v 0 l -15,-3 -30,-2 -38,-5 -46,-6 -54,-5 -58,-5 -64,-7 -60,-8 -64,-5 -61,-8 -53,-5 -51,-5 -41,-5 -33,-2 -20,-3 h -8 v 20 h 8 l 20,3 33,2 41,6 51,5 53,5 61,7 64,5 60,8 64,8 58,5 54,5 46,5 38,5 30,3 15,2 v 0 z"
   id="path158"
   inkscape:connector-curvature="0"
   style="fill:#000000;stroke:none" />
         <path
   d="m 13152,14523 v 0 l -11,-2 -22,-5 -28,-8 -39,-7 -40,-11 -48,-10 -49,-12 -53,-13 -51,-10 -51,-13 -48,-10 -43,-10 -41,-8 -30,-8 -28,-5 -16,-2 v 20 l 16,3 23,5 30,7 41,8 43,10 48,10 51,13 51,10 53,13 48,13 49,10 40,10 38,8 28,7 23,5 10,3 v 0 z"
   id="path160"
   inkscape:connector-curvature="0"
   style="fill:#000000;stroke:none" />
         <path
   d="m 13197,14577 v 0 l -5,-18 -7,-15 -13,-13 -20,-8 -6,21 16,7 7,3 3,10 v 13 0 z"
   id="path162"
   inkscape:connector-curvature="0"
   style="fill:#000000;stroke:none" />
         <path
   d="m 13210,15431 8,10 -3,-132 -8,-293 -10,-294 v -145 h -25 l 5,145 10,294 8,293 2,132 8,10 -8,-10 v 7 l 8,3 z"
   id="path164"
   inkscape:connector-curvature="0"
   style="fill:#000000;stroke:none" />
         <path
   d="m 13589,15601 h -3 l -25,-20 -46,-23 -59,-28 -68,-28 -66,-28 -56,-23 -41,-15 -15,-5 -5,20 15,5 41,15 56,23 66,28 63,28 59,28 45,23 21,10 h -3 z"
   id="path166"
   inkscape:connector-curvature="0"
   style="fill:#000000;stroke:none" />
         <path
   d="m 13688,16457 v 0 l -5,-50 -11,-100 -12,-134 -15,-150 -16,-148 -18,-132 -12,-94 -10,-48 -21,10 10,38 13,94 18,132 15,148 15,150 13,134 10,100 v 50 0 z"
   id="path168"
   inkscape:connector-curvature="0"
   style="fill:#000000;stroke:none" />
         <path
   d="m 13401,16785 h 5 l 58,-43 53,-46 46,-45 41,-46 35,-46 26,-41 15,-35 8,-26 h -26 l -2,21 -15,30 -26,41 -30,41 -41,45 -46,46 -53,46 -54,38 h 6 v 20 h 2 3 z"
   id="path170"
   inkscape:connector-curvature="0"
   style="fill:#000000;stroke:none" />
         <path
   d="m 13024,16795 -10,5 387,-15 v -20 l -387,15 -10,5 10,-5 h -5 l -5,5 z"
   id="path172"
   inkscape:connector-curvature="0"
   style="fill:#000000;stroke:none" />
         <path
   d="m 12824,16994 v 0 l 33,-16 33,-28 33,-30 30,-33 28,-33 23,-31 15,-20 5,-8 -20,-10 -5,8 -15,20 -18,26 -28,33 -30,33 -33,30 -28,23 -28,15 v 0 z"
   id="path174"
   inkscape:connector-curvature="0"
   style="fill:#000000;stroke:none" />
         <path
   d="m 12384,17044 v 0 l 18,3 h 23 25 l 31,-3 30,-2 31,-5 33,-3 33,-5 33,-2 33,-5 30,-6 31,-5 25,-5 26,-2 23,-5 15,-5 -5,-21 -16,5 -17,5 -26,3 -25,5 -31,5 -30,5 -33,5 -33,3 -33,5 -33,2 -31,6 -30,-3 -31,3 h -25 -23 l -18,2 v 0 z"
   id="path176"
   inkscape:connector-curvature="0"
   style="fill:#000000;stroke:none" />
         <path
   d="m 12006,16831 -11,-5 31,41 41,38 53,38 56,33 61,25 56,23 48,13 43,7 v -20 l -38,-8 -48,-12 -56,-23 -56,-25 -56,-34 -48,-33 -41,-38 -25,-35 -10,-5 z"
   id="path178"
   inkscape:connector-curvature="0"
   style="fill:#000000;stroke:none" />
         <path
   d="m 10832,16851 -11,10 1185,-30 v -20 l -1185,30 -10,10 10,-10 h -10 v 10 z"
   id="path180"
   inkscape:connector-curvature="0"
   style="fill:#000000;stroke:none" />
         <path
   d="m 10699,17179 v 0 l 31,-33 25,-43 23,-53 18,-56 15,-54 10,-43 8,-30 3,-16 h -21 l -2,10 -8,31 -10,43 -15,54 -18,55 -23,49 -25,43 -21,23 v 0 z"
   id="path182"
   inkscape:connector-curvature="0"
   style="fill:#000000;stroke:none" />
         <path
   d="m 10054,17238 v 0 l 41,15 40,13 46,7 46,3 46,5 50,-5 49,-5 48,-8 46,-8 45,-10 44,-10 38,-13 33,-10 30,-13 26,-10 17,-10 -10,-20 -17,10 -21,10 -30,13 -33,10 -38,13 -44,10 -40,10 -46,8 -48,7 -49,5 h -50 -46 l -46,-2 -41,-8 -40,-12 -36,-16 v 0 z"
   id="path184"
   inkscape:connector-curvature="0"
   style="fill:#000000;stroke:none" />
         <path
   d="m 9759,16475 -12,-10 5,28 15,81 25,110 36,129 43,132 53,127 61,102 69,64 10,-21 -63,-58 -56,-97 -54,-122 -43,-132 -35,-130 -26,-109 -15,-76 -5,-28 -13,-10 13,10 v -13 l -13,3 z"
   id="path186"
   inkscape:connector-curvature="0"
   style="fill:#000000;stroke:none" />
         <path
   d="m 9655,16498 v 0 l 104,-23 -5,-20 -104,23 v 0 z"
   id="path188"
   inkscape:connector-curvature="0"
   style="fill:#000000;stroke:none" />
         <path
   d="m 9584,16518 h 5 l 66,-20 -5,-20 -66,20 h 5 l -5,20 3,3 2,-3 z"
   id="path190"
   inkscape:connector-curvature="0"
   style="fill:#000000;stroke:none" />
         <path
   d="m 9226,16417 7,5 351,96 5,-20 -351,-97 8,6 -20,10 2,5 h 5 z"
   id="path192"
   inkscape:connector-curvature="0"
   style="fill:#000000;stroke:none" />
         <path
   d="m 9228,16348 -5,-15 -10,30 3,23 5,21 5,10 20,-10 -5,-6 -5,-15 -3,-23 5,-20 -5,-15 z"
   id="path194"
   inkscape:connector-curvature="0"
   style="fill:#000000;stroke:none" />
         <path
   d="m 9015,16282 -13,10 226,56 5,-20 -226,-56 -13,10 13,-10 -13,-5 v 15 z"
   id="path196"
   inkscape:connector-curvature="0"
   style="fill:#000000;stroke:none" />
         <path
   d="m 8908,16417 v 0 l 33,-8 23,-18 20,-23 13,-22 8,-23 7,-21 3,-15 v -5 h -21 v 5 l -2,10 -8,21 -7,17 -13,23 -15,18 -18,13 -23,7 v 0 z"
   id="path198"
   inkscape:connector-curvature="0"
   style="fill:#000000;stroke:none" />
         <path
   d="m 8707,16361 -20,2 13,23 20,18 28,8 30,5 33,5 h 34 33 l 30,-5 v -21 h -30 -33 -34 -33 l -25,-5 -23,-7 -15,-13 -8,-13 -20,3 z"
   id="path200"
   inkscape:connector-curvature="0"
   style="fill:#000000;stroke:none" />
         <path
   d="m 8629,16417 v 0 l 38,-10 28,-18 10,-15 2,-13 h -20 l -3,2 -5,11 -17,12 -33,10 v 0 z"
   id="path202"
   inkscape:connector-curvature="0"
   style="fill:#000000;stroke:none" />
         <path
   d="m 8319,16323 -16,-8 23,48 38,36 49,18 50,7 51,3 46,-3 41,-5 28,-2 v -21 l -28,3 -41,5 -46,-3 -51,3 -45,-8 -44,-17 -28,-26 -22,-43 -16,-8 z"
   id="path204"
   inkscape:connector-curvature="0"
   style="fill:#000000;stroke:none" />
         <path
   d="m 8131,16241 v 0 l 22,49 31,30 33,18 30,5 26,-5 23,-5 17,-8 6,-2 -11,-21 -5,3 -12,8 -18,5 h -26 -25 l -23,-13 -25,-25 -23,-44 v 0 z"
   id="path206"
   inkscape:connector-curvature="0"
   style="fill:#000000;stroke:none" />
         <path
   d="m 8174,15647 v 0 l -28,48 -18,64 -15,78 -10,87 -6,86 6,87 10,78 18,66 20,-5 -18,-61 -10,-78 v -87 -86 l 10,-87 15,-73 18,-64 23,-38 v 0 z"
   id="path208"
   inkscape:connector-curvature="0"
   style="fill:#000000;stroke:none" />
         <path
   d="m 8352,15553 v 0 l -18,2 -18,3 -23,2 -20,8 -23,10 -25,18 -26,23 -25,28 15,15 25,-28 26,-23 20,-13 18,-10 20,-7 18,-3 18,-2 18,2 v 0 z"
   id="path210"
   inkscape:connector-curvature="0"
   style="fill:#000000;stroke:none" />
         <path
   d="m 8496,15560 8,3 -13,-8 h -17 l -18,-2 -21,-3 h -22 l -23,3 h -21 -17 v 25 h 17 21 l 23,-2 h 22 l 21,-3 18,3 h 12 l 3,2 7,3 z"
   id="path212"
   inkscape:connector-curvature="0"
   style="fill:#000000;stroke:none" />
         <path
   d="m 8631,15588 13,5 -18,-17 -23,-8 -23,-5 -25,-5 h -23 -18 -13 l -5,2 v 21 l 5,2 h 13 18 23 25 l 18,5 18,8 7,8 13,5 z"
   id="path214"
   inkscape:connector-curvature="0"
   style="fill:#000000;stroke:none" />
         <path
   d="m 8778,15568 v 0 l -30,-3 -31,5 -22,3 -23,5 -18,3 -13,5 -7,2 h -3 l 5,21 h 3 l 7,-3 13,-5 13,-3 23,-5 22,-2 h 31 l 30,-3 v 0 z"
   id="path216"
   inkscape:connector-curvature="0"
   style="fill:#000000;stroke:none" />
         <path
   d="m 8908,15670 13,10 -3,-15 -7,-16 -13,-20 -15,-15 -21,-18 -20,-13 -31,-10 -33,-5 v 20 l 28,5 26,11 20,12 15,13 16,15 7,15 8,11 2,10 13,10 -13,-10 3,18 10,-8 z"
   id="path218"
   inkscape:connector-curvature="0"
   style="fill:#000000;stroke:none" />
         <path
   d="m 9498,15700 -11,-10 -10,-5 -12,-5 -13,-5 h -13 l -10,-3 h -5 -3 l -383,-23 h -8 -10 l -13,3 -15,2 -18,5 -20,6 -21,7 -22,8 -28,15 -31,18 -25,23 -26,28 -23,33 -15,38 -10,46 -5,50 8,87 17,71 23,56 31,43 28,33 23,20 17,13 8,3 102,25 226,56 63,-15 38,7 115,-396 v 0 l -66,-20 -5,-8 -8,-18 -3,-23 8,-25 64,-15 38,10 v 0 z"
   id="path220"
   inkscape:connector-curvature="0"
   style="fill:#ccd6e0;stroke:none" />
         <path
   d="m 9421,15680 v 2 h 3 l 5,-2 10,2 h 13 l 10,5 13,5 7,6 8,7 15,-10 -13,-13 -12,-5 -13,-5 -15,-5 h -13 l -10,-2 -5,-3 h -3 v 3 z"
   id="path222"
   inkscape:connector-curvature="0"
   style="fill:#000000;stroke:none" />
         <path
   d="m 9038,15659 v -2 l 383,23 v -15 l -383,-23 v -3 z"
   id="path224"
   inkscape:connector-curvature="0"
   style="fill:#000000;stroke:none" />
         <path
   d="m 8913,15687 v 0 l 23,-7 20,-8 21,-5 15,-5 15,-3 13,-2 10,2 h 8 v -20 h -8 l -10,3 -13,2 -15,3 -20,5 -21,5 -20,8 -23,7 v 0 z"
   id="path226"
   inkscape:connector-curvature="0"
   style="fill:#000000;stroke:none" />
         <path
   d="m 8758,15931 v 0 l 3,-50 10,-44 15,-38 23,-30 23,-28 25,-21 28,-17 28,-16 -5,-15 -28,15 -33,18 -25,26 -28,28 -23,35 -15,38 -11,49 -7,50 v 0 z"
   id="path228"
   inkscape:connector-curvature="0"
   style="fill:#000000;stroke:none" />
         <path
   d="m 8903,16249 h 3 l -6,-3 -17,-12 -23,-18 -26,-33 -30,-41 -23,-56 -18,-68 -5,-87 h -20 l 10,87 18,73 23,56 30,46 31,33 22,23 18,13 10,2 h 3 -3 v 0 h 3 z"
   id="path230"
   inkscape:connector-curvature="0"
   style="fill:#000000;stroke:none" />
         <path
   d="m 9005,16274 v 0 l -102,-25 v 15 l 102,26 v 0 z"
   id="path232"
   inkscape:connector-curvature="0"
   style="fill:#000000;stroke:none" />
         <path
   d="m 9231,16330 v 0 l -226,-56 v 16 l 226,56 v 0 0 2 -2 z"
   id="path234"
   inkscape:connector-curvature="0"
   style="fill:#000000;stroke:none" />
         <path
   d="m 9294,16315 v 0 l -63,15 v 16 l 63,-16 v 0 -15 -2 z"
   id="path236"
   inkscape:connector-curvature="0"
   style="fill:#000000;stroke:none" />
         <path
   d="m 9325,16328 7,-5 -38,-8 v 15 l 38,8 8,-5 -8,5 5,2 3,-7 z"
   id="path238"
   inkscape:connector-curvature="0"
   style="fill:#000000;stroke:none" />
         <path
   d="m 9444,15942 -5,-11 -114,397 15,5 114,-397 -5,-10 5,10 3,-7 -8,-3 z"
   id="path240"
   inkscape:connector-curvature="0"
   style="fill:#000000;stroke:none" />
         <path
   d="m 9444,15942 3,-8 v 0 0 0 l 2,-8 5,10 3,-7 -8,-3 z"
   id="path242"
   inkscape:connector-curvature="0"
   style="fill:#000000;stroke:none" />
         <path
   d="m 9373,15919 5,2 66,21 5,-16 -66,-20 5,2 -15,11 3,2 h 2 z"
   id="path244"
   inkscape:connector-curvature="0"
   style="fill:#000000;stroke:none" />
         <path
   d="m 9373,15832 -8,3 -7,30 2,23 8,20 5,11 15,-11 -5,-5 -7,-15 -3,-23 8,-20 -8,2 z"
   id="path246"
   inkscape:connector-curvature="0"
   style="fill:#000000;stroke:none" />
         <path
   d="m 9439,15817 h -2 l -64,15 v 15 l 64,-15 h -3 l 5,-15 -2,-3 v 3 z"
   id="path248"
   inkscape:connector-curvature="0"
   style="fill:#000000;stroke:none" />
         <path
   d="m 9467,15835 10,-8 -38,-10 -5,15 38,10 10,-7 -10,7 10,3 v -10 z"
   id="path250"
   inkscape:connector-curvature="0"
   style="fill:#000000;stroke:none" />
         <path
   d="m 9467,15835 h 8 v 0 0 0 h 7 l -10,7 10,3 v -10 z"
   id="path252"
   inkscape:connector-curvature="0"
   style="fill:#000000;stroke:none" />
         <path
   d="m 9490,15705 v -5 l -23,135 h 15 l 23,-135 v -5 5 l 3,-2 -3,-3 z"
   id="path254"
   inkscape:connector-curvature="0"
   style="fill:#000000;stroke:none" />
         <path
   d="m 10821,16851 1185,-30 1008,-31 387,-15 55,-41 54,-45 46,-46 40,-46 33,-43 26,-41 15,-33 5,-23 -5,-83 -10,-135 -13,-130 -10,-73 -2788,73 h -5 -10 -20 -23 -31 -33 -35 l -36,-2 h -40 l -38,-3 -39,-5 -35,-2 -33,-6 -28,-5 -26,-7 -17,-8 81,409 v 132 l 5,11 18,28 30,38 38,43 51,43 56,38 69,28 z"
   id="path256"
   inkscape:connector-curvature="0"
   style="fill:#ccd6e0;stroke:none" />
         <path
   d="m 12006,16813 v 0 l -1185,31 v 15 l 1185,-31 v 0 z"
   id="path258"
   inkscape:connector-curvature="0"
   style="fill:#000000;stroke:none" />
         <path
   d="m 13014,16783 v 0 l -1008,30 v 15 l 1008,-30 v 0 z"
   id="path260"
   inkscape:connector-curvature="0"
   style="fill:#000000;stroke:none" />
         <path
   d="m 13395,16767 h 6 l -387,16 v 15 l 387,-15 h 5 -5 2 3 z"
   id="path262"
   inkscape:connector-curvature="0"
   style="fill:#000000;stroke:none" />
         <path
   d="m 13665,16457 v 0 l -3,21 -15,33 -25,38 -33,43 -39,46 -45,46 -54,43 -56,40 11,16 56,-41 53,-48 46,-46 43,-46 33,-43 25,-43 16,-33 7,-26 v 0 z"
   id="path264"
   inkscape:connector-curvature="0"
   style="fill:#000000;stroke:none" />
         <path
   d="m 13637,16043 -8,-7 10,73 13,130 10,135 3,83 h 20 l -7,-83 -11,-135 -12,-130 -10,-73 -8,-8 z"
   id="path266"
   inkscape:connector-curvature="0"
   style="fill:#000000;stroke:none" />
         <path
   d="m 10849,16117 v 0 l 2788,-74 v -15 l -2788,74 v 0 z"
   id="path268"
   inkscape:connector-curvature="0"
   style="fill:#000000;stroke:none" />
         <path
   d="m 10407,16071 -10,8 18,7 28,8 28,5 33,5 35,3 39,5 38,5 h 40 l 36,2 h 35 33 31 23 20 10 l 5,-2 v -15 l -5,-3 h -10 -20 -23 -31 -33 -35 l -36,-2 h -40 -38 l -39,-6 -35,-2 -33,-5 -28,-5 -23,-8 -18,-8 -10,8 z"
   id="path270"
   inkscape:connector-curvature="0"
   style="fill:#000000;stroke:none" />
         <path
   d="m 10491,16480 h -2 l -82,-409 h -15 l 81,409 h -2 20 -2 v 0 z"
   id="path272"
   inkscape:connector-curvature="0"
   style="fill:#000000;stroke:none" />
         <path
   d="m 10489,16610 2,2 v -132 h -20 v 132 l 2,3 -2,-3 2,3 v 0 z"
   id="path274"
   inkscape:connector-curvature="0"
   style="fill:#000000;stroke:none" />
         <path
   d="m 10821,16844 v -3 l -71,-7 -68,-28 -54,-39 -50,-40 -36,-43 -31,-39 -17,-27 -5,-8 -16,5 5,13 18,28 31,38 40,43 51,46 59,38 68,28 76,12 v -2 z"
   id="path276"
   inkscape:connector-curvature="0"
   style="fill:#000000;stroke:none" />
         <path
   d="m 13185,14577 -3,-15 -5,-13 -10,-8 -18,-7 -10,-3 -23,-5 -28,-8 -38,-7 -41,-10 -48,-11 -48,-12 -54,-13 -50,-10 -51,-13 -49,-10 -43,-10 -40,-8 -31,-7 -25,-6 -16,-2 -15,-3 -23,-2 -30,-3 -38,-5 -44,-5 -45,-5 -49,-5 -48,-5 -51,-5 -45,-5 -44,-3 -38,-5 -33,-2 -25,-3 -15,-3 h -5 -16 l -45,6 -61,5 -69,12 -71,18 -61,26 -46,33 -15,40 -5,226 -13,377 -15,353 -5,155 73,66 46,422 1520,-43 z"
   id="path278"
   inkscape:connector-curvature="0"
   style="fill:#7f99b2;stroke:none" />
         <path
   d="m 13149,14541 h -3 l 18,8 5,5 5,10 v 13 h 21 l -5,-18 -5,-15 -16,-10 -17,-8 h -3 z"
   id="path280"
   inkscape:connector-curvature="0"
   style="fill:#000000;stroke:none" />
         <path
   d="m 12554,14407 v 0 l 16,2 25,5 31,8 40,7 43,11 49,10 51,12 50,11 54,12 48,13 48,10 41,10 38,8 28,8 23,5 10,2 v -15 l -10,-3 -23,-5 -28,-7 -38,-8 -41,-10 -48,-10 -48,-13 -54,-13 -50,-10 -51,-13 -49,-10 -43,-10 -40,-7 -31,-8 -25,-5 -16,-3 v 0 z"
   id="path282"
   inkscape:connector-curvature="0"
   style="fill:#000000;stroke:none" />
         <path
   d="m 12006,14348 v 0 h 5 l 15,3 25,2 33,3 38,5 44,2 45,5 51,5 48,6 49,5 45,5 44,5 38,5 30,2 23,3 15,3 v -16 l -15,-2 -23,-3 -30,-2 -38,-5 -44,-6 -45,-5 -49,-5 -48,-5 -51,-5 -45,-5 -44,-2 -38,-6 -33,-2 -25,-3 -15,-2 h -5 v 0 z"
   id="path284"
   inkscape:connector-curvature="0"
   style="fill:#000000;stroke:none" />
         <path
   d="m 11632,14480 v 0 l 13,-35 40,-31 61,-25 69,-18 69,-13 61,-5 45,-5 h 16 v -15 h -16 l -45,5 -61,5 -69,13 -74,17 -61,26 -51,35 -17,46 v 0 z"
   id="path286"
   inkscape:connector-curvature="0"
   style="fill:#000000;stroke:none" />
         <path
   d="m 11589,15586 2,5 5,-155 16,-353 12,-377 8,-226 h -20 l -3,226 -13,377 -15,353 -5,155 3,5 -3,-5 -2,2 5,3 z"
   id="path288"
   inkscape:connector-curvature="0"
   style="fill:#000000;stroke:none" />
         <path
   d="m 11665,15657 -2,-5 -74,-66 -10,10 73,66 -2,-5 h 15 v -3 l -2,-2 z"
   id="path290"
   inkscape:connector-curvature="0"
   style="fill:#000000;stroke:none" />
         <path
   d="m 11703,16071 8,8 -46,-422 h -15 l 46,422 7,7 -7,-7 v 10 l 7,-3 z"
   id="path292"
   inkscape:connector-curvature="0"
   style="fill:#000000;stroke:none" />
         <path
   d="m 13215,16036 8,-8 -1520,43 v 15 l 1520,-43 7,-7 -7,7 h 10 l -3,-7 z"
   id="path294"
   inkscape:connector-curvature="0"
   style="fill:#000000;stroke:none" />
         <path
   d="m 13174,14577 h 3 l 38,1459 h 15 l -38,-1459 h 3 z"
   id="path296"
   inkscape:connector-curvature="0"
   style="fill:#000000;stroke:none" />
         <path
   d="m 8900,16264 h 3 l 102,26 v -16 l -102,-25 h 3 l -6,15 v 0 h 3 z"
   id="path298"
   inkscape:connector-curvature="0"
   style="fill:#000000;stroke:none" />
         <path
   d="m 8738,15931 v 0 l 10,87 18,73 23,56 30,46 31,33 22,23 18,13 10,2 6,-15 -6,-3 -17,-12 -23,-18 -26,-33 -30,-41 -23,-56 -18,-68 -5,-87 v 0 z"
   id="path300"
   inkscape:connector-curvature="0"
   style="fill:#000000;stroke:none" />
         <path
   d="m 8908,15672 -28,15 -33,18 -25,26 -28,28 -23,35 -15,38 -11,49 -7,50 h 20 l 3,-50 10,-44 15,-38 23,-30 23,-28 25,-21 28,-17 28,-16 z"
   id="path302"
   inkscape:connector-curvature="0"
   style="fill:#000000;stroke:none" />
         <path
   d="m 9238,16333 -56,-79 -35,-79 -23,-66 -5,-66 2,-58 13,-54 23,-45 31,-44 33,-35 35,-31 41,-28 33,-23 35,-15 33,-12 21,-8 h 18 v -20 l -18,5 -26,7 -33,13 -35,15 -38,23 -41,28 -36,36 -38,35 -30,43 -23,51 -13,59 -7,58 10,66 23,71 35,79 56,84 z"
   id="path304"
   inkscape:connector-curvature="0"
   style="fill:#000000;stroke:none" />
         <path
   d="m 11757,14503 v 0 l 2,-18 13,-17 23,-21 28,-20 30,-20 28,-16 28,-12 23,-8 v -15 l -28,7 -28,13 -33,15 -31,21 -28,20 -22,25 -18,23 -8,23 v 0 z"
   id="path306"
   inkscape:connector-curvature="0"
   style="fill:#000000;stroke:none" />
         <path
   d="m 11711,15886 7,-209 16,-465 12,-473 11,-236 h -21 l -5,236 -13,473 -15,465 -7,209 z"
   id="path308"
   inkscape:connector-curvature="0"
   style="fill:#000000;stroke:none" />
         <path
   d="m 11917,14658 v -15 l 2,-18 5,-15 8,-13 10,-10 13,-10 18,-5 20,-3 h 20 l 41,5 53,5 69,5 79,11 86,7 91,10 94,11 94,10 92,10 86,8 77,10 68,7 54,5 38,5 17,3 26,8 18,12 10,18 5,20 5,186 5,376 3,374 2,167 -30,59 -1149,15 -66,-58 z"
   id="path310"
   inkscape:connector-curvature="0"
   style="fill:#000066;stroke:none" />
         <path
   d="m 10888,16531 v 0 l -34,-2 h -33 -33 -33 l -30,-3 -31,-5 -28,-5 -28,-3 -27,-5 -23,-5 -23,-7 -21,-6 -17,-5 -21,-5 -12,-2 -11,-5 -5,15 11,5 17,3 16,5 17,5 21,5 23,7 28,5 27,6 28,2 28,5 31,5 30,3 33,5 h 33 33 l 34,-3 v 0 z"
   id="path312"
   inkscape:connector-curvature="0"
   style="fill:#000000;stroke:none" />
         <path
   d="m 13497,16435 v 0 h -13 l -25,2 h -38 -48 l -59,5 -68,3 -77,5 h -84 l -91,5 -97,5 -101,2 -107,6 -112,2 -112,5 -116,3 -115,5 -117,5 -117,2 -114,6 -112,2 -111,5 -105,3 -101,5 h -97 l -89,5 -84,5 -73,2 h -66 -56 l -46,6 h -36 l -22,2 v 15 l 22,3 36,-5 h 46 56 l 66,-5 73,-3 84,-5 h 89 l 97,-5 101,-5 105,-3 111,-5 112,-2 114,-5 117,-3 117,-5 115,-5 116,-3 112,-5 112,-2 107,-5 101,-3 97,-5 h 91 l 84,-5 77,-5 68,-3 h 59 48 l 38,-5 25,-2 h 13 v 0 z"
   id="path314"
   inkscape:connector-curvature="0"
   style="fill:#000000;stroke:none" />
         <path
   d="m 13657,16376 -5,3 -10,5 -18,7 -23,10 -25,11 -28,10 -25,7 -26,6 v 15 l 26,-5 30,-8 28,-10 25,-10 23,-10 18,-8 10,-5 5,-3 z"
   id="path316"
   inkscape:connector-curvature="0"
   style="fill:#000000;stroke:none" />
         <path
   d="m 9653,16488 104,-23 5,28 15,79 25,109 36,130 43,132 54,124 58,99 66,61 38,16 41,12 43,8 46,3 46,2 50,-2 49,-6 48,-7 46,-8 43,-10 43,-10 38,-13 33,-10 31,-13 23,-10 17,-10 26,-28 25,-43 23,-51 18,-56 15,-53 10,-43 8,-31 2,-13 -73,-10 -69,-28 -56,-38 -51,-43 -38,-43 -30,-38 -18,-28 -5,-11 v -132 l -81,-409 -5,-5 -8,-18 -10,-25 -5,-33 -10,-13 -21,-35 -20,-46 -10,-46 -3,-36 -10,-53 -18,-66 -28,-74 -35,-66 -46,-58 -59,-41 -68,-15 -74,28 -71,81 -66,117 -58,150 -51,168 -38,173 -26,172 z"
   id="path318"
   inkscape:connector-curvature="0"
   style="fill:#000000;stroke:none" />
         <path
   d="m 10290,16328 -2,35 -8,33 -5,31 -10,25 -10,21 -13,15 -15,8 h -15 l -26,-16 -15,-20 -5,-23 2,-28 v -15 l -2,-20 -5,-21 -10,-20 -16,-18 -17,-15 -26,-5 h -28 l -30,10 -26,20 -20,26 -15,30 -13,28 -8,26 -5,20 -2,13 -8,10 -13,-3 -12,-18 v -38 l 7,-28 16,-33 20,-35 25,-33 28,-28 31,-21 35,-5 33,10 26,11 10,-5 -5,-13 -15,-18 -23,-18 -26,-10 -30,-2 -26,15 6,-10 12,-18 21,-18 h 28 v -5 l 2,-13 -2,-15 -11,-10 -10,-13 -2,-15 10,-18 25,-18 18,-7 15,-8 16,-2 12,-3 13,3 13,5 10,10 10,12 10,18 15,23 16,28 15,31 13,35 10,41 7,43 z"
   id="path320"
   inkscape:connector-curvature="0"
   style="fill:#ffffff;stroke:none" />
         <path
   d="m 10059,16371 18,10 15,23 3,38 -13,48 v 6 h 8 l 7,-3 5,-8 16,-50 -6,-36 -15,-25 -18,-8 h -10 l -10,2 h -5 z"
   id="path322"
   inkscape:connector-curvature="0"
   style="fill:#ffffff;stroke:none" />
         <path
   d="m 13014,16790 -5,8 -15,20 -20,28 -28,33 -31,33 -33,31 -30,25 -31,15 -15,6 -20,5 -26,2 -25,5 -31,5 -30,5 -33,5 -33,3 -33,5 -33,3 -31,5 h -30 l -31,2 h -25 -23 -18 l -40,-7 -49,-13 -56,-23 -58,-25 -56,-33 -51,-36 -40,-38 -28,-38 z"
   id="path324"
   inkscape:connector-curvature="0"
   style="fill:#000000;stroke:none" />
         <path
   d="m 10400,16071 17,8 26,7 28,5 33,6 35,2 39,5 38,3 h 40 l 36,2 h 35 33 31 23 20 10 5 l 854,-30 -2,-5 -44,-402 -73,-66 5,-155 15,-353 13,-376 5,-227 15,-43 46,-33 61,-23 71,-17 69,-13 61,-5 45,-5 h 16 l -148,-31 -43,-414 86,-31 16,-38 -719,-221 -18,-81 -23,-74 -26,-66 -28,-58 -30,-54 -30,-45 -34,-41 -33,-36 -33,-28 -33,-25 -33,-20 -30,-18 -28,-13 -28,-10 -25,-5 -21,-5 -28,-3 -40,-7 -54,-8 -66,-10 -71,-13 -81,-13 -84,-12 -87,-15 -86,-16 -86,-12 -82,-13 -78,-13 -69,-13 -61,-10 -48,-7 -36,-5 -28,-3 -30,-3 -28,-2 -31,-3 h -30 -33 l -28,3 -31,2 -30,3 -28,3 -26,5 -25,5 -23,5 -23,7 -17,8 -18,8 -38,20 -51,28 -56,33 -59,31 -55,30 -46,28 -31,15 -12,8 -133,549 -134,1761 119,122 544,10 23,-43 5,5 2,5 6,5 5,3 h 10 l 13,2 h 22 28 l 31,-5 23,-18 15,-23 13,-28 7,-27 5,-23 3,-18 v -5 l 38,-8 -58,333 -23,135 -143,495 239,69 16,109 66,-20 7,-158 26,-172 38,-173 51,-168 58,-150 66,-117 71,-81 74,-28 68,15 59,41 46,58 35,69 26,71 17,66 11,53 5,36 10,41 15,40 20,36 16,23 v 10 l 5,23 7,28 z"
   id="path326"
   inkscape:connector-curvature="0"
   style="fill:#004cb2;stroke:none" />
         <path
   d="m 10849,16102 v 0 l -5,-3 h -10 -20 -23 -31 -33 -35 l -36,-2 h -40 -38 l -39,-6 -35,-2 -33,-5 -28,-5 -23,-8 -18,-8 -5,16 18,7 28,8 28,5 33,5 35,3 39,5 38,5 h 40 l 36,2 h 35 33 31 23 20 10 l 5,-2 v 0 z"
   id="path328"
   inkscape:connector-curvature="0"
   style="fill:#000000;stroke:none" />
         <path
   d="m 11696,16081 7,-10 -854,31 v 15 l 854,-31 8,-10 -8,10 h 15 l -7,-10 z"
   id="path330"
   inkscape:connector-curvature="0"
   style="fill:#000000;stroke:none" />
         <path
   d="m 11693,16074 v 2 l 3,5 15,-5 -3,-5 v 3 h -15 v 2 0 z"
   id="path332"
   inkscape:connector-curvature="0"
   style="fill:#000000;stroke:none" />
         <path
   d="m 11652,15677 -2,-5 43,402 h 15 l -43,-402 -2,-5 2,5 v -2 l -2,-3 z"
   id="path334"
   inkscape:connector-curvature="0"
   style="fill:#000000;stroke:none" />
         <path
   d="m 11576,15606 3,5 73,66 11,-10 -74,-66 2,5 h -15 l -2,3 5,2 z"
   id="path336"
   inkscape:connector-curvature="0"
   style="fill:#000000;stroke:none" />
         <path
   d="m 11612,14495 v 0 l -3,227 -13,376 -15,353 -5,155 h 15 l 5,-155 16,-353 12,-376 8,-227 v 0 z"
   id="path338"
   inkscape:connector-curvature="0"
   style="fill:#000000;stroke:none" />
         <path
   d="m 12006,14363 v -15 h -16 l -45,5 -61,5 -69,13 -74,18 -61,23 -51,35 -17,48 h 20 l 13,-38 40,-30 61,-23 69,-18 69,-13 61,-5 45,-5 h 16 v -15 15 l 68,-2 -68,-13 z"
   id="path340"
   inkscape:connector-curvature="0"
   style="fill:#000000;stroke:none" />
         <path
   d="m 11851,14325 7,8 148,30 v -15 l -148,-30 8,7 h -15 v 8 h 7 z"
   id="path342"
   inkscape:connector-curvature="0"
   style="fill:#000000;stroke:none" />
         <path
   d="m 11812,13903 -5,8 44,414 h 15 l -43,-414 -5,8 -6,-16 -7,3 2,5 z"
   id="path344"
   inkscape:connector-curvature="0"
   style="fill:#000000;stroke:none" />
         <path
   d="m 11894,13878 5,-5 -87,30 6,16 86,-31 5,-5 -5,5 h 5 v -5 z"
   id="path346"
   inkscape:connector-curvature="0"
   style="fill:#000000;stroke:none" />
         <path
   d="m 11914,13850 -5,-10 -15,38 15,5 15,-38 -5,-10 5,10 5,-8 -10,-2 z"
   id="path348"
   inkscape:connector-curvature="0"
   style="fill:#000000;stroke:none" />
         <path
   d="m 11190,13621 5,8 719,221 5,-15 -719,-221 5,7 h -15 v 8 h 5 z"
   id="path350"
   inkscape:connector-curvature="0"
   style="fill:#000000;stroke:none" />
         <path
   d="m 10745,13049 v 0 l 21,6 22,5 28,10 28,12 28,18 33,21 33,25 33,25 31,36 33,41 30,45 31,51 28,59 25,66 23,73 18,79 h 15 l -18,-84 -23,-73 -25,-66 -28,-59 -30,-56 -31,-45 -33,-41 -35,-36 -34,-30 -33,-26 -33,-20 -33,-18 -28,-12 -28,-11 -27,-5 -21,-5 v 0 z"
   id="path352"
   inkscape:connector-curvature="0"
   style="fill:#000000;stroke:none" />
         <path
   d="m 9688,12879 v 0 l 36,5 48,8 61,10 69,13 78,12 82,13 86,13 86,15 87,15 84,13 81,13 71,13 66,10 54,7 40,8 28,2 v -15 l -28,-2 -40,-8 -54,-8 -66,-10 -71,-12 -81,-13 -84,-13 -87,-15 -86,-15 -86,-13 -82,-13 -78,-12 -69,-13 -61,-10 -48,-8 -36,-5 v 0 z"
   id="path354"
   inkscape:connector-curvature="0"
   style="fill:#000000;stroke:none" />
         <path
   d="m 9261,12917 v 0 l 18,-7 18,-8 23,-8 20,-5 25,-5 26,-5 28,-2 30,-3 31,-2 h 28 33 30 31 l 28,2 30,3 28,2 v -15 l -28,-3 -30,-2 -28,-3 -31,-5 h -30 -33 l -28,5 -31,3 -30,2 -28,3 -26,5 -25,5 -25,5 -23,8 -18,7 -18,8 v 0 z"
   id="path356"
   inkscape:connector-curvature="0"
   style="fill:#000000;stroke:none" />
         <path
   d="m 8918,13103 -5,7 13,-7 30,-15 46,-28 56,-31 58,-30 56,-33 51,-28 38,-21 -5,-15 -38,20 -51,28 -56,33 -58,31 -56,30 -46,28 -30,16 -13,7 -5,8 5,-8 -5,3 v 5 z"
   id="path358"
   inkscape:connector-curvature="0"
   style="fill:#000000;stroke:none" />
         <path
   d="m 8786,13652 v 0 l 132,-549 h -15 l -132,549 v 0 z"
   id="path360"
   inkscape:connector-curvature="0"
   style="fill:#000000;stroke:none" />
         <path
   d="m 8649,15408 2,5 135,-1761 h -15 l -135,1761 3,5 -3,-5 -2,2 5,3 z"
   id="path362"
   inkscape:connector-curvature="0"
   style="fill:#000000;stroke:none" />
         <path
   d="m 8763,15527 5,3 -119,-122 -10,10 119,122 5,3 -5,-3 3,3 h 2 z"
   id="path364"
   inkscape:connector-curvature="0"
   style="fill:#000000;stroke:none" />
         <path
   d="m 9299,15543 8,-6 -544,-10 v 16 l 544,10 8,-5 -8,5 5,2 3,-7 z"
   id="path366"
   inkscape:connector-curvature="0"
   style="fill:#000000;stroke:none" />
         <path
   d="m 9337,15497 -15,2 -23,44 16,5 22,-44 -15,3 15,-10 -7,-13 -8,15 z"
   id="path368"
   inkscape:connector-curvature="0"
   style="fill:#000000;stroke:none" />
         <path
   d="m 9421,15512 v 0 h -28 l -22,3 -13,-3 h -10 v -3 l -3,-2 -2,-5 -6,-5 -15,10 5,5 3,5 7,8 11,2 h 10 l 13,3 22,2 h 28 v 0 z"
   id="path370"
   inkscape:connector-curvature="0"
   style="fill:#000000;stroke:none" />
         <path
   d="m 9518,15367 -8,8 v 5 l -2,18 -5,23 -8,25 -13,28 -12,20 -21,15 -28,3 v 20 l 33,-7 26,-21 18,-25 12,-28 8,-30 5,-23 3,-18 v -5 l -8,7 v -15 h -8 v 8 z"
   id="path372"
   inkscape:connector-curvature="0"
   style="fill:#000000;stroke:none" />
         <path
   d="m 9564,15367 -8,-7 -38,7 v 15 l 38,-7 -8,-8 h 16 l 2,-13 -10,6 z"
   id="path374"
   inkscape:connector-curvature="0"
   style="fill:#000000;stroke:none" />
         <path
   d="m 9505,15700 v 0 l 59,-333 h -16 l -58,333 v 0 z"
   id="path376"
   inkscape:connector-curvature="0"
   style="fill:#000000;stroke:none" />
         <path
   d="m 9482,15837 v -2 l 23,-135 h -15 l -23,135 v -3 z"
   id="path378"
   inkscape:connector-curvature="0"
   style="fill:#000000;stroke:none" />
         <path
   d="m 9335,16323 5,10 142,-496 -15,-5 -142,496 5,10 -5,-10 -3,7 8,3 z"
   id="path380"
   inkscape:connector-curvature="0"
   style="fill:#000000;stroke:none" />
         <path
   d="m 9579,16399 -5,-8 -239,-68 -5,15 239,69 -5,-8 h 15 v -8 h -5 z"
   id="path382"
   inkscape:connector-curvature="0"
   style="fill:#000000;stroke:none" />
         <path
   d="m 9584,16501 10,7 -15,-109 h -15 l 15,109 10,8 -10,-8 v 13 l 10,-5 z"
   id="path384"
   inkscape:connector-curvature="0"
   style="fill:#000000;stroke:none" />
         <path
   d="m 9642,16488 8,-8 -66,21 5,15 66,-20 8,-8 -8,8 8,-3 v -5 z"
   id="path386"
   inkscape:connector-curvature="0"
   style="fill:#000000;stroke:none" />
         <path
   d="m 10044,15431 v 0 l -79,30 -74,84 -66,120 -58,149 -51,168 -38,176 -25,172 -11,158 h 21 l 5,-158 25,-172 38,-171 51,-167 59,-150 66,-115 68,-79 69,-25 v 0 z"
   id="path388"
   inkscape:connector-curvature="0"
   style="fill:#000000;stroke:none" />
         <path
   d="m 10318,15850 v 0 l -5,-36 -10,-53 -18,-69 -25,-71 -36,-71 -48,-58 -61,-44 -71,-17 v 20 l 66,13 56,38 43,58 36,66 25,72 18,63 10,53 5,36 v 0 z"
   id="path390"
   inkscape:connector-curvature="0"
   style="fill:#000000;stroke:none" />
         <path
   d="m 10379,15990 -2,-5 -13,-23 -20,-33 -16,-41 -10,-38 h -15 l 10,43 15,41 21,38 18,23 -3,-5 z"
   id="path392"
   inkscape:connector-curvature="0"
   style="fill:#000000;stroke:none" />
         <path
   d="m 10402,16063 3,3 -13,-18 -8,-25 -5,-23 v -10 h -15 v 10 l 5,23 8,30 18,23 2,3 -2,-3 v 3 h 2 z"
   id="path394"
   inkscape:connector-curvature="0"
   style="fill:#000000;stroke:none" />
         <path
   d="m 13634,16036 -15,-153 -15,-135 -15,-99 -11,-43 -22,-15 -46,-23 -59,-28 -66,-28 -66,-28 -56,-23 -40,-15 -16,-5 16,605 z"
   id="path396"
   inkscape:connector-curvature="0"
   style="fill:#004cb2;stroke:none" />
         <path
   d="m 13571,15611 v 0 l 10,38 15,99 15,135 16,153 h 15 l -15,-153 -16,-135 -15,-99 -10,-48 v 0 z"
   id="path398"
   inkscape:connector-curvature="0"
   style="fill:#000000;stroke:none" />
         <path
   d="m 13215,15441 -10,7 15,6 41,15 56,23 66,28 66,28 58,28 46,22 18,13 15,-10 -28,-18 -46,-23 -58,-28 -66,-28 -66,-28 -56,-22 -41,-16 -15,-5 -10,8 10,-8 -13,-5 3,13 z"
   id="path400"
   inkscape:connector-curvature="0"
   style="fill:#000000;stroke:none" />
         <path
   d="m 13223,16038 7,8 -15,-605 h -15 l 15,605 8,7 -8,-7 v 10 l 8,-3 z"
   id="path402"
   inkscape:connector-curvature="0"
   style="fill:#000000;stroke:none" />
         <path
   d="m 13627,16036 7,-8 -411,10 v 15 l 411,-10 8,-7 -8,7 h 11 l -3,-7 z"
   id="path404"
   inkscape:connector-curvature="0"
   style="fill:#000000;stroke:none" />
         <path
   d="m 9703,15576 v 0 l -43,114 -33,122 -28,124 -18,120 -12,112 -8,96 -2,79 5,56 h 15 v -56 l -3,-79 8,-96 13,-112 17,-120 28,-124 33,-117 44,-114 v 0 z"
   id="path406"
   inkscape:connector-curvature="0"
   style="fill:#000000;stroke:none" />
         <path
   d="m 10387,15240 v 0 h -36 l -40,5 -44,3 -45,5 -49,7 -48,11 -51,12 -48,16 -48,20 -48,23 -49,25 -40,31 -41,38 -38,40 -33,46 -26,54 16,5 25,-49 33,-45 33,-41 41,-33 40,-31 44,-25 48,-23 48,-20 48,-15 46,-13 48,-10 49,-8 45,-5 44,-3 h 40 36 v 0 z"
   id="path408"
   inkscape:connector-curvature="0"
   style="fill:#000000;stroke:none" />
         <path
   d="m 10969,15316 v 0 l -38,-12 -38,-11 -41,-10 -41,-7 -40,-8 -41,-5 -41,-5 -40,-5 -41,-3 -38,-2 -36,-5 h -35 l -31,-3 h -30 -28 -23 v 20 h 23 28 30 l 31,3 h 35 36 l 38,3 41,2 40,5 41,5 41,5 40,8 41,8 36,10 38,10 38,13 v 0 z"
   id="path410"
   inkscape:connector-curvature="0"
   style="fill:#000000;stroke:none" />
         <path
   d="m 11660,15649 -8,-2 -17,-10 -31,-16 -41,-20 -48,-23 -53,-25 -56,-28 -61,-31 -61,-30 -61,-28 -59,-28 -53,-26 -48,-22 -41,-21 -33,-15 -20,-8 -5,16 20,7 33,15 41,21 48,23 53,25 59,28 61,28 61,30 61,31 56,28 53,25 48,23 41,21 30,15 18,10 8,3 z"
   id="path412"
   inkscape:connector-curvature="0"
   style="fill:#000000;stroke:none" />
         <path
   d="m 9587,16508 -351,-96 -5,-8 -5,-18 -3,-23 8,-25 63,-15 277,76 z"
   id="path414"
   inkscape:connector-curvature="0"
   style="fill:#7f99b2;stroke:none" />
         <path
   d="m 9228,16417 5,2 351,97 5,-15 -351,-97 5,3 -15,10 3,2 h 2 z"
   id="path416"
   inkscape:connector-curvature="0"
   style="fill:#000000;stroke:none" />
         <path
   d="m 9231,16330 -8,3 -7,30 2,23 5,21 5,10 15,-10 -5,-6 -5,-15 -2,-23 7,-20 -7,3 z"
   id="path418"
   inkscape:connector-curvature="0"
   style="fill:#000000;stroke:none" />
         <path
   d="m 9297,16315 h -3 l -63,15 v 16 l 63,-16 h -2 l 5,-15 -3,-2 v 2 z"
   id="path420"
   inkscape:connector-curvature="0"
   style="fill:#000000;stroke:none" />
         <path
   d="m 9579,16399 -5,-8 -277,-76 -5,15 277,77 -5,-8 h 15 v -8 h -5 z"
   id="path422"
   inkscape:connector-curvature="0"
   style="fill:#000000;stroke:none" />
         <path
   d="m 9584,16516 10,-8 -15,-109 h -15 l 15,109 10,-7 -5,15 13,5 -3,-13 z"
   id="path424"
   inkscape:connector-curvature="0"
   style="fill:#000000;stroke:none" />
         <path
   d="m 9599,15975 -218,-61 -5,-8 -8,-18 -3,-23 8,-25 64,-15 183,48 z"
   id="path426"
   inkscape:connector-curvature="0"
   style="fill:#7f99b2;stroke:none" />
         <path
   d="m 9373,15919 5,2 219,61 5,-15 -219,-61 5,2 -15,11 3,2 h 2 z"
   id="path428"
   inkscape:connector-curvature="0"
   style="fill:#000000;stroke:none" />
         <path
   d="m 9373,15832 -8,3 -7,30 2,23 8,20 5,11 15,-11 -5,-5 -7,-15 -3,-23 8,-20 -8,2 z"
   id="path430"
   inkscape:connector-curvature="0"
   style="fill:#000000;stroke:none" />
         <path
   d="m 9439,15817 h -2 l -64,15 v 15 l 64,-15 h -3 l 5,-15 -2,-3 v 3 z"
   id="path432"
   inkscape:connector-curvature="0"
   style="fill:#000000;stroke:none" />
         <path
   d="m 9627,15873 -5,-8 -183,-48 -5,15 183,49 -5,-8 h 15 l 3,-5 -8,-3 z"
   id="path434"
   inkscape:connector-curvature="0"
   style="fill:#000000;stroke:none" />
         <path
   d="m 9597,15982 10,-7 20,-102 h -15 l -20,102 10,-8 -5,15 10,3 v -10 z"
   id="path436"
   inkscape:connector-curvature="0"
   style="fill:#000000;stroke:none" />
         <path
   d="m 9825,14521 21,-5 20,-5 25,-3 26,-2 28,-5 h 28 l 30,-3 h 31 28 30 l 31,3 28,2 28,3 25,2 23,5 23,5 v 196 l 7,3 16,2 25,8 28,12 25,18 26,21 15,28 8,35 v 107 135 116 51 h -13 l -38,3 -54,2 -63,8 -69,8 -66,12 -56,16 -40,17 -176,-30 z"
   id="path438"
   inkscape:connector-curvature="0"
   style="fill:#7f99b2;stroke:none" />
         <path
   d="m 10260,14518 -8,-7 -25,-5 -23,-5 -25,-3 -28,-3 -28,-2 -31,-5 h -30 -28 -31 l -30,2 -28,3 -28,5 -26,3 -25,2 -20,5 -23,5 5,16 18,-6 20,-5 25,-2 26,-3 28,-5 28,3 30,-3 h 31 28 30 31 l 28,3 28,2 25,3 23,5 20,5 -7,-8 z"
   id="path440"
   inkscape:connector-curvature="0"
   style="fill:#000000;stroke:none" />
         <path
   d="m 10250,14706 10,8 v -196 h -20 v 196 l 10,8 -10,-8 v 8 h 10 z"
   id="path442"
   inkscape:connector-curvature="0"
   style="fill:#000000;stroke:none" />
         <path
   d="m 10410,14841 v 0 l -10,-38 -16,-31 -28,-22 -28,-18 -27,-13 -28,-8 -16,-2 -7,-3 v 16 l 7,2 16,3 22,7 28,13 23,18 23,18 15,25 5,33 v 0 z"
   id="path444"
   inkscape:connector-curvature="0"
   style="fill:#000000;stroke:none" />
         <path
   d="m 10400,15258 10,-8 v -51 -116 -135 -107 h -21 v 107 135 116 51 l 11,-7 v 15 h 10 v -8 z"
   id="path446"
   inkscape:connector-curvature="0"
   style="fill:#000000;stroke:none" />
         <path
   d="m 10001,15324 h 5 l 38,-18 53,-15 66,-13 69,-7 63,-8 54,-3 h 38 l 13,-2 v -15 l -13,-3 -38,5 -54,3 -63,7 -69,8 -66,13 -58,15 -43,18 h 5 z"
   id="path448"
   inkscape:connector-curvature="0"
   style="fill:#000000;stroke:none" />
         <path
   d="m 9815,15286 10,7 176,31 v -15 l -176,-31 11,8 h -21 v 7 h 10 z"
   id="path450"
   inkscape:connector-curvature="0"
   style="fill:#000000;stroke:none" />
         <path
   d="m 9823,14513 -8,8 v 765 h 21 v -765 l -8,8 -5,-16 -8,3 v 5 z"
   id="path452"
   inkscape:connector-curvature="0"
   style="fill:#000000;stroke:none" />
         <path
   d="m 9518,15375 v 5 l -3,18 -5,23 -7,27 -13,28 -15,23 -23,18 -31,5 h -28 -22 l -13,-2 h -10 l -5,-3 -6,-5 -2,-5 -5,-5 h 18 17 l 18,-3 18,-7 13,-13 12,-20 11,-33 2,-44 z"
   id="path454"
   inkscape:connector-curvature="0"
   style="fill:#000000;stroke:none" />
         <path
   d="m 9231,15329 43,31 46,20 56,7 53,6 51,-6 43,-5 36,-5 20,-2 v -15 l -20,2 -36,5 -43,5 h -51 -53 l -51,-7 -46,-21 -38,-25 z"
   id="path456"
   inkscape:connector-curvature="0"
   style="fill:#000000;stroke:none" />
         <path
   d="m 11884,13858 -699,-201 h -10 -26 -40 -54 -63 -71 -77 -78 -79 -76 l -74,2 h -66 -59 -45 l -33,3 h -18 l -31,8 -23,12 -15,23 -2,23 5,38 12,84 18,109 18,122 18,122 15,107 10,74 5,28 1464,-79 -33,-437 z"
   id="path458"
   inkscape:connector-curvature="0"
   style="fill:#000000;stroke:none" />
         <path
   d="m 9744,13840 v 625 l 452,-41 -7,-91 -21,-201 -20,-206 -10,-109 -3,-13 -7,-15 -8,-13 -10,-15 -15,-10 -16,-8 -15,-2 -20,2 -28,8 -41,13 -48,17 -51,16 -51,17 -40,13 -31,10 z"
   id="path460"
   inkscape:connector-curvature="0"
   style="fill:#000000;stroke:none" />
         <path
   d="m 10250,14485 -23,-5 -23,-5 -25,-2 -28,-5 -28,-3 h -31 -30 l -28,-3 -31,3 h -30 l -28,3 -28,2 -26,3 -25,5 -20,5 -21,5 v -66 l 21,-5 20,-5 25,-5 26,-3 28,-3 28,-2 h 30 l 31,-3 h 28 l 30,3 h 31 l 28,2 28,3 25,3 23,5 23,5 z"
   id="path462"
   inkscape:connector-curvature="0"
   style="fill:#7f99b2;stroke:none" />
         <path
   d="m 9815,14488 13,7 18,-5 20,-5 25,-5 26,-2 28,-3 h 28 30 l 31,-2 28,2 h 30 31 28 l 28,5 25,3 23,5 20,5 5,-15 -25,-5 -23,-5 -25,-3 -28,-5 -28,-5 h -31 -30 l -28,-3 -31,3 h -30 l -28,5 -28,2 -26,3 -25,5 -20,5 -23,5 13,8 h -21 v 13 l 13,-6 z"
   id="path464"
   inkscape:connector-curvature="0"
   style="fill:#000000;stroke:none" />
         <path
   d="m 9823,14414 -8,8 v 66 h 21 v -66 l -8,7 -5,-15 -8,3 v 5 z"
   id="path466"
   inkscape:connector-curvature="0"
   style="fill:#000000;stroke:none" />
         <path
   d="m 10260,14417 -10,-8 -23,-5 -23,-5 -25,-3 -28,-2 -28,-5 h -31 l -30,-3 h -28 l -31,3 h -30 l -28,5 -28,2 -26,3 -25,5 -20,5 -23,5 5,15 18,-5 20,-5 25,-5 26,-2 28,-3 h 28 30 l 31,-2 h 28 l 30,2 h 31 28 l 28,3 25,2 23,5 23,5 -10,-7 h 20 v -8 h -10 z"
   id="path468"
   inkscape:connector-curvature="0"
   style="fill:#000000;stroke:none" />
         <path
   d="m 10247,14493 13,-8 v -68 h -20 v 68 l 12,-7 -5,15 13,5 v -13 z"
   id="path470"
   inkscape:connector-curvature="0"
   style="fill:#000000;stroke:none" />
         <path
   d="m 11485,14348 v -216 l 7,-2 18,-8 25,-10 31,-10 33,-13 30,-13 26,-7 15,-8 20,-5 18,5 15,8 6,15 2,48 5,84 5,81 3,36 z"
   id="path472"
   inkscape:connector-curvature="0"
   style="fill:#ffffff;stroke:none" />
         <path
   d="m 11124,13614 v 0 l 23,-3 12,3 11,5 15,5 5,-15 -15,-6 -11,-5 -17,-2 -23,-3 v 0 z"
   id="path474"
   inkscape:connector-curvature="0"
   style="fill:#000000;stroke:none" />
         <path
   d="m 10270,13591 v 0 h 20 36 l 46,2 h 56 66 l 68,3 74,5 h 74 76 l 71,2 69,3 61,5 h 50 l 44,3 h 28 15 v -21 h -15 -28 l -44,-2 h -50 -61 l -69,-3 -71,-2 -76,-5 h -74 -74 l -68,-3 -66,-5 h -56 l -46,-3 h -36 -20 v 0 z"
   id="path476"
   inkscape:connector-curvature="0"
   style="fill:#000000;stroke:none" />
         <path
   d="m 9993,13624 v 0 l 33,-13 33,-8 38,-7 38,-3 38,-2 h 36 33 28 v -21 h -28 -33 l -36,6 -38,2 -38,3 -38,7 -38,8 -33,13 v 0 z"
   id="path478"
   inkscape:connector-curvature="0"
   style="fill:#000000;stroke:none" />
         <path
   d="m 9675,13830 v 0 l 11,-36 25,-33 43,-30 46,-28 53,-23 54,-23 48,-18 38,-15 -5,-15 -38,15 -48,18 -54,22 -53,23 -51,28 -43,36 -31,38 -10,41 v 0 z"
   id="path480"
   inkscape:connector-curvature="0"
   style="fill:#000000;stroke:none" />
         <path
   d="m 9637,15278 v 0 l 8,-229 13,-470 10,-483 7,-266 h -15 l -7,266 -11,483 -12,470 -8,229 v 0 z"
   id="path482"
   inkscape:connector-curvature="0"
   style="fill:#000000;stroke:none" />
         <path
   d="m 9678,15377 v 0 l -25,-5 -11,-28 -5,-33 v -33 h -15 v 33 l 5,38 15,33 36,16 v 0 z"
   id="path484"
   inkscape:connector-curvature="0"
   style="fill:#000000;stroke:none" />
         <path
   d="m 9841,15390 h -5 l -13,-3 -21,-2 h -22 l -28,-5 h -28 l -26,-3 h -20 v 21 h 20 l 26,2 h 28 28 l 22,5 21,-2 13,2 h 5 z"
   id="path486"
   inkscape:connector-curvature="0"
   style="fill:#000000;stroke:none" />
         <path
   d="m 11007,13288 -31,-43 -30,-43 -33,-38 -41,-36 -45,-30 -59,-26 -69,-17 -86,-13 -69,-3 -30,5 5,11 25,12 41,15 43,16 41,10 25,2 23,3 33,10 41,18 46,23 43,30 43,41 36,48 25,56 25,61 6,-25 -6,-56 z"
   id="path488"
   inkscape:connector-curvature="0"
   style="fill:#ffffff;stroke:none" />
         <path
   d="m 8710,14867 536,-95 -3,117 -536,89 z"
   id="path490"
   inkscape:connector-curvature="0"
   style="fill:#ffffff;stroke:none" />
         <path
   d="m 10395,14793 960,-54 170,-139 -1268,78 v 28 h 5 l 13,5 20,6 23,10 23,12 23,16 18,17 z"
   id="path492"
   inkscape:connector-curvature="0"
   style="fill:#ffffff;stroke:none" />
         <path
   d="m 9818,14706 -130,5 -2,125 132,-8 z"
   id="path494"
   inkscape:connector-curvature="0"
   style="fill:#ffffff;stroke:none" />
         <path
   d="m 8911,15680 -28,15 -31,18 -25,23 -26,28 -23,33 -15,38 -10,46 -5,50 8,87 17,71 23,56 31,43 28,33 23,20 17,13 8,3 102,25 v 5 l -3,13 -8,20 -7,20 -13,23 -18,21 -20,15 -28,8 -30,2 h -33 -34 l -33,-2 -27,-6 -26,-7 -18,-15 -10,-18 -2,7 -8,13 -23,15 -35,11 -28,2 -41,5 h -46 -51 l -48,-7 -46,-18 -33,-31 -23,-45 -5,2 -15,8 -20,5 -26,2 -28,-2 -28,-15 -27,-28 -23,-46 -18,-64 -10,-78 -3,-87 3,-86 10,-87 15,-76 18,-63 25,-44 26,-28 25,-22 23,-16 20,-10 21,-8 20,-2 18,-3 h 18 17 21 l 23,-2 h 22 21 l 18,2 h 15 l 7,5 h 5 13 18 23 l 25,3 21,5 20,8 13,12 h 2 l 8,-2 12,-5 16,-3 23,-5 22,-2 31,-3 h 30 l 31,5 28,10 20,13 18,15 15,16 10,17 8,13 z"
   id="path496"
   inkscape:connector-curvature="0"
   style="fill:#000000;stroke:none" />
         <path
   d="m 8425,15995 -10,-5 -13,-3 h -12 -16 l -15,3 -13,7 -10,8 -10,10 v 33 l 3,71 12,77 26,38 23,-8 20,-35 15,-54 13,-66 10,-71 5,-71 v -64 l -2,-48 -5,23 -11,51 -10,58 z"
   id="path498"
   inkscape:connector-curvature="0"
   style="fill:#ffffff;stroke:none" />
         <path
   d="m 8258,15944 -11,-2 -10,-3 h -12 -13 l -13,3 -13,5 -10,7 -10,10 v 28 l 5,66 10,66 23,36 21,-8 17,-30 13,-48 13,-59 7,-66 5,-63 v -56 l -2,-44 -5,21 -8,46 -7,50 z"
   id="path500"
   inkscape:connector-curvature="0"
   style="fill:#ffffff;stroke:none" />
         <path
   d="m 9518,15375 v 5 l -3,18 -5,23 -7,27 -13,28 -15,23 -23,18 -31,5 h -28 -22 l -13,-2 h -10 l -5,-3 -6,-5 -2,-5 -5,-5 -8,-10 -12,-23 -6,-38 11,-59 -3,-2 -8,-3 -7,-5 -13,-8 -13,-7 -12,-10 -13,-5 -10,-8 53,-1532 120,-51 10,-193 20,-430 18,-434 10,-219 5,-18 18,-15 20,-10 28,-10 26,-3 20,5 18,13 5,23 -8,234 -18,442 -17,427 -8,193 66,38 -43,1583 z"
   id="path502"
   inkscape:connector-curvature="0"
   style="fill:#ccd6e0;stroke:none" />
         <path
   d="m 9421,15532 v 0 l 33,-7 26,-21 18,-25 12,-28 8,-30 5,-23 3,-18 v -5 h -16 v 5 l -2,18 -5,23 -8,25 -13,28 -12,20 -21,15 -28,3 v 0 z"
   id="path504"
   inkscape:connector-curvature="0"
   style="fill:#000000;stroke:none" />
         <path
   d="m 9322,15507 v 0 l 5,5 3,5 7,8 11,2 h 10 l 13,3 22,2 h 28 v -20 h -28 l -22,3 -13,-3 h -10 v -3 l -3,-2 -2,-5 -6,-5 v 0 z"
   id="path506"
   inkscape:connector-curvature="0"
   style="fill:#000000;stroke:none" />
         <path
   d="m 9310,15380 -3,-10 -10,61 5,40 13,26 7,10 15,-10 -7,-10 -13,-21 -5,-35 10,-56 -2,-10 z"
   id="path508"
   inkscape:connector-curvature="0"
   style="fill:#000000;stroke:none" />
         <path
   d="m 9228,15324 3,8 12,7 11,5 12,10 13,8 13,8 10,5 8,2 v 3 l 10,-15 -5,-3 -8,-2 -5,-6 -13,-7 -12,-8 -13,-10 -15,-5 -8,-8 2,8 z"
   id="path510"
   inkscape:connector-curvature="0"
   style="fill:#000000;stroke:none" />
         <path
   d="m 9287,13784 -5,8 -54,1532 h 15 l 54,-1532 -5,7 -5,-15 -5,2 v 6 z"
   id="path512"
   inkscape:connector-curvature="0"
   style="fill:#000000;stroke:none" />
         <path
   d="m 9401,13741 5,-8 -119,51 5,15 119,-51 5,-7 -5,7 5,-2 v -5 z"
   id="path514"
   inkscape:connector-curvature="0"
   style="fill:#000000;stroke:none" />
         <path
   d="m 9457,12465 v 0 l -8,219 -17,434 -21,430 -10,193 h 15 l 10,-193 21,-430 18,-434 12,-219 v 0 z"
   id="path516"
   inkscape:connector-curvature="0"
   style="fill:#000000;stroke:none" />
         <path
   d="m 9617,12450 v 0 l -8,-28 -22,-16 -23,-7 -26,5 -30,10 -23,10 -20,18 -8,23 h 20 l 3,-13 15,-12 18,-11 25,-10 h 26 l 17,3 13,10 3,18 v 0 z"
   id="path518"
   inkscape:connector-curvature="0"
   style="fill:#000000;stroke:none" />
         <path
   d="m 9561,13738 3,8 7,-193 18,-427 18,-442 10,-234 h -20 l -5,234 -18,442 -18,427 -8,193 3,7 -3,-7 -2,5 5,2 z"
   id="path520"
   inkscape:connector-curvature="0"
   style="fill:#000000;stroke:none" />
         <path
   d="m 9630,13784 -3,-8 -66,-38 -10,15 66,39 -3,-8 h 16 l 2,-5 -5,-3 z"
   id="path522"
   inkscape:connector-curvature="0"
   style="fill:#000000;stroke:none" />
         <path
   d="m 9579,15375 8,-8 43,-1583 h -16 l -43,1583 8,-7 v 15 h 8 v -8 z"
   id="path524"
   inkscape:connector-curvature="0"
   style="fill:#000000;stroke:none" />
         <path
   d="m 9526,15375 -8,7 61,-7 v -15 l -61,7 -8,8 8,-8 h -8 v 8 z"
   id="path526"
   inkscape:connector-curvature="0"
   style="fill:#000000;stroke:none" />
         <path
   d="m 9556,13746 v -8 l -147,-5 v 15 l 147,5 z"
   id="path528"
   inkscape:connector-curvature="0"
   style="fill:#000000;stroke:none" />
         <path
   d="m 13596,15698 -345,-8 23,218 345,-2 z"
   id="path530"
   inkscape:connector-curvature="0"
   style="fill:#fff499;stroke:none" />
         <path
   d="m 13258,15690 -7,8 345,7 v -15 l -345,-8 -8,8 8,-8 -11,-2 3,10 z"
   id="path532"
   inkscape:connector-curvature="0"
   style="fill:#000000;stroke:none" />
         <path
   d="m 13274,15898 7,10 -23,-218 h -15 l 23,218 8,11 -8,-11 v 11 h 8 z"
   id="path534"
   inkscape:connector-curvature="0"
   style="fill:#000000;stroke:none" />
         <path
   d="m 13611,15906 8,-10 -345,2 v 21 l 345,-3 8,-10 -8,10 10,-2 -2,-8 z"
   id="path536"
   inkscape:connector-curvature="0"
   style="fill:#000000;stroke:none" />
         <path
   d="m 13596,15705 -7,-7 22,208 h 16 l -23,-208 -8,-8 8,8 v -8 h -8 z"
   id="path538"
   inkscape:connector-curvature="0"
   style="fill:#000000;stroke:none" />
         <path
   d="m 11551,15680 23,254 -664,-3 -266,-30 v -10 l 2,-26 3,-38 7,-43 13,-43 20,-38 26,-28 35,-10 h 36 30 26 l 18,2 15,3 7,2 6,3 h 2 z"
   id="path540"
   inkscape:connector-curvature="0"
   style="fill:#fff499;stroke:none" />
         <path
   d="m 11574,15944 7,-10 -23,-254 h -15 l 23,254 8,-10 v 20 h 10 l -3,-10 z"
   id="path542"
   inkscape:connector-curvature="0"
   style="fill:#000000;stroke:none" />
         <path
   d="m 10910,15939 v 3 l 664,2 v -20 l -664,-3 v 3 z"
   id="path544"
   inkscape:connector-curvature="0"
   style="fill:#000000;stroke:none" />
         <path
   d="m 10633,15901 11,7 266,31 v -15 l -266,-31 10,8 h -21 v 7 h 11 z"
   id="path546"
   inkscape:connector-curvature="0"
   style="fill:#000000;stroke:none" />
         <path
   d="m 10750,15657 v 0 l -40,10 -28,31 -21,40 -12,46 -8,43 -3,38 -2,26 -3,10 h 21 l -3,-10 3,-26 2,-38 8,-43 13,-41 20,-35 23,-26 30,-10 v 0 z"
   id="path548"
   inkscape:connector-curvature="0"
   style="fill:#000000;stroke:none" />
         <path
   d="m 10890,15665 3,2 h -3 l -5,-2 -10,-3 -15,-3 -18,-5 h -26 -30 l -36,3 v 15 l 36,3 h 30 26 18 l 15,2 5,3 5,2 h 3 l 2,3 -2,-3 h 2 v 3 z"
   id="path550"
   inkscape:connector-curvature="0"
   style="fill:#000000;stroke:none" />
         <path
   d="m 11558,15680 -7,-10 -661,-5 v 20 l 661,5 -8,-10 h 15 v -8 l -7,-2 z"
   id="path552"
   inkscape:connector-curvature="0"
   style="fill:#000000;stroke:none" />
         <path
   d="m 10910,15931 -266,-30 v -10 l 2,-26 3,-38 7,-43 13,-43 20,-38 26,-28 35,-10 h 36 30 26 l 18,2 15,3 7,2 6,3 h 2 z"
   id="path554"
   inkscape:connector-curvature="0"
   style="fill:#ff7f00;stroke:none" />
         <path
   d="m 10633,15901 11,7 266,31 v -15 l -266,-31 10,8 h -21 v 7 h 11 z"
   id="path556"
   inkscape:connector-curvature="0"
   style="fill:#000000;stroke:none" />
         <path
   d="m 10750,15657 v 0 l -40,10 -28,31 -21,40 -12,46 -8,43 -3,38 -2,26 -3,10 h 21 l -3,-10 3,-26 2,-38 8,-43 13,-41 20,-35 23,-26 30,-10 v 0 z"
   id="path558"
   inkscape:connector-curvature="0"
   style="fill:#000000;stroke:none" />
         <path
   d="m 10898,15675 -5,-8 h -3 l -5,-2 -10,-3 -15,-3 -18,-5 h -26 -30 l -36,3 v 15 l 36,3 h 30 26 18 l 15,2 5,3 5,2 h 3 l -6,-7 h 16 v -5 l -5,-3 z"
   id="path560"
   inkscape:connector-curvature="0"
   style="fill:#000000;stroke:none" />
         <path
   d="m 10910,15939 8,-8 -20,-256 h -16 l 21,256 7,-7 v 15 l 11,3 -3,-11 z"
   id="path562"
   inkscape:connector-curvature="0"
   style="fill:#000000;stroke:none" />
        </g>
       </g>
      </g>
     </g>
    </g>
   </g>
  </g>
 </g>
</svg>