<?xml version="1.0" encoding="UTF-8" standalone="no"?>
<svg
   xmlns:ooo="http://xml.openoffice.org/svg/export"
   xmlns:dc="http://purl.org/dc/elements/1.1/"
   xmlns:cc="http://creativecommons.org/ns#"
   xmlns:rdf="http://www.w3.org/1999/02/22-rdf-syntax-ns#"
   xmlns:svg="http://www.w3.org/2000/svg"
   xmlns="http://www.w3.org/2000/svg"
   xmlns:sodipodi="http://sodipodi.sourceforge.net/DTD/sodipodi-0.dtd"
   xmlns:inkscape="http://www.inkscape.org/namespaces/inkscape"
   version="1.2"
   width="34.52mm"
   height="22.959999mm"
   viewBox="0 0 3452 2295.9999"
   preserveAspectRatio="xMidYMid"
   xml:space="preserve"
   id="svg198"
   sodipodi:docname="lovebrds.svg"
   style="fill-rule:evenodd;stroke-width:28.22200012;stroke-linejoin:round"
   inkscape:version="0.92.5 (2060ec1f9f, 2020-04-08)"><metadata
   id="metadata202"><rdf:RDF><cc:Work
       rdf:about=""><dc:format>image/svg+xml</dc:format><dc:type
         rdf:resource="http://purl.org/dc/dcmitype/StillImage" /></cc:Work></rdf:RDF></metadata><sodipodi:namedview
   pagecolor="#ffffff"
   bordercolor="#666666"
   borderopacity="1"
   objecttolerance="10"
   gridtolerance="10"
   guidetolerance="10"
   inkscape:pageopacity="0"
   inkscape:pageshadow="2"
   inkscape:window-width="664"
   inkscape:window-height="487"
   id="namedview200"
   showgrid="false"
   inkscape:zoom="0.2102413"
   inkscape:cx="65.234647"
   inkscape:cy="43.388975"
   inkscape:window-x="0"
   inkscape:window-y="0"
   inkscape:window-maximized="0"
   inkscape:current-layer="svg198" />
 <defs
   class="ClipPathGroup"
   id="defs8">
  <clipPath
   id="presentation_clip_path"
   clipPathUnits="userSpaceOnUse">
   <rect
   x="0"
   y="0"
   width="21000"
   height="29700"
   id="rect2" />
  </clipPath>
  <clipPath
   id="presentation_clip_path_shrink"
   clipPathUnits="userSpaceOnUse">
   <rect
   x="21"
   y="29"
   width="20958"
   height="29641"
   id="rect5" />
  </clipPath>
 </defs>
 <defs
   class="TextShapeIndex"
   id="defs12">
  <g
   ooo:slide="id1"
   ooo:id-list="id3"
   id="g10" />
 </defs>
 <defs
   class="EmbeddedBulletChars"
   id="defs44">
  <g
   id="bullet-char-template-57356"
   transform="matrix(4.8828125e-4,0,0,-4.8828125e-4,0,0)">
   <path
   d="M 580,1141 1163,571 580,0 -4,571 Z"
   id="path14"
   inkscape:connector-curvature="0" />
  </g>
  <g
   id="bullet-char-template-57354"
   transform="matrix(4.8828125e-4,0,0,-4.8828125e-4,0,0)">
   <path
   d="M 8,1128 H 1137 V 0 H 8 Z"
   id="path17"
   inkscape:connector-curvature="0" />
  </g>
  <g
   id="bullet-char-template-10146"
   transform="matrix(4.8828125e-4,0,0,-4.8828125e-4,0,0)">
   <path
   d="M 174,0 602,739 174,1481 1456,739 Z M 1358,739 309,1346 659,739 Z"
   id="path20"
   inkscape:connector-curvature="0" />
  </g>
  <g
   id="bullet-char-template-10132"
   transform="matrix(4.8828125e-4,0,0,-4.8828125e-4,0,0)">
   <path
   d="M 2015,739 1276,0 H 717 l 543,543 H 174 v 393 h 1086 l -543,545 h 557 z"
   id="path23"
   inkscape:connector-curvature="0" />
  </g>
  <g
   id="bullet-char-template-10007"
   transform="matrix(4.8828125e-4,0,0,-4.8828125e-4,0,0)">
   <path
   d="m 0,-2 c -7,16 -16,29 -25,39 l 381,530 c -94,256 -141,385 -141,387 0,25 13,38 40,38 9,0 21,-2 34,-5 21,4 42,12 65,25 l 27,-13 111,-251 280,301 64,-25 24,25 c 21,-10 41,-24 62,-43 C 886,937 835,863 770,784 769,783 710,716 594,584 L 774,223 c 0,-27 -21,-55 -63,-84 l 16,-20 C 717,90 699,76 672,76 641,76 570,178 457,381 L 164,-76 c -22,-34 -53,-51 -92,-51 -42,0 -63,17 -64,51 -7,9 -10,24 -10,44 0,9 1,19 2,30 z"
   id="path26"
   inkscape:connector-curvature="0" />
  </g>
  <g
   id="bullet-char-template-10004"
   transform="matrix(4.8828125e-4,0,0,-4.8828125e-4,0,0)">
   <path
   d="M 285,-33 C 182,-33 111,30 74,156 52,228 41,333 41,471 c 0,78 14,145 41,201 34,71 87,106 158,106 53,0 88,-31 106,-94 l 23,-176 c 8,-64 28,-97 59,-98 l 735,706 c 11,11 33,17 66,17 42,0 63,-15 63,-46 V 965 c 0,-36 -10,-64 -30,-84 L 442,47 C 390,-6 338,-33 285,-33 Z"
   id="path29"
   inkscape:connector-curvature="0" />
  </g>
  <g
   id="bullet-char-template-9679"
   transform="matrix(4.8828125e-4,0,0,-4.8828125e-4,0,0)">
   <path
   d="M 813,0 C 632,0 489,54 383,161 276,268 223,411 223,592 c 0,181 53,324 160,431 106,107 249,161 430,161 179,0 323,-54 432,-161 108,-107 162,-251 162,-431 0,-180 -54,-324 -162,-431 C 1136,54 992,0 813,0 Z"
   id="path32"
   inkscape:connector-curvature="0" />
  </g>
  <g
   id="bullet-char-template-8226"
   transform="matrix(4.8828125e-4,0,0,-4.8828125e-4,0,0)">
   <path
   d="m 346,457 c -73,0 -137,26 -191,78 -54,51 -81,114 -81,188 0,73 27,136 81,188 54,52 118,78 191,78 73,0 134,-26 185,-79 51,-51 77,-114 77,-187 0,-75 -25,-137 -76,-188 -50,-52 -112,-78 -186,-78 z"
   id="path35"
   inkscape:connector-curvature="0" />
  </g>
  <g
   id="bullet-char-template-8211"
   transform="matrix(4.8828125e-4,0,0,-4.8828125e-4,0,0)">
   <path
   d="M -4,459 H 1135 V 606 H -4 Z"
   id="path38"
   inkscape:connector-curvature="0" />
  </g>
  <g
   id="bullet-char-template-61548"
   transform="matrix(4.8828125e-4,0,0,-4.8828125e-4,0,0)">
   <path
   d="m 173,740 c 0,163 58,303 173,419 116,115 255,173 419,173 163,0 302,-58 418,-173 116,-116 174,-256 174,-419 0,-163 -58,-303 -174,-418 C 1067,206 928,148 765,148 601,148 462,206 346,322 231,437 173,577 173,740 Z"
   id="path41"
   inkscape:connector-curvature="0" />
  </g>
 </defs>
 <g
   id="g49"
   transform="translate(-8774,-13702)">
  <g
   id="id2"
   class="Master_Slide">
   <g
   id="bg-id2"
   class="Background" />
   <g
   id="bo-id2"
   class="BackgroundObjects" />
  </g>
 </g>
 <g
   class="SlideGroup"
   id="g196"
   transform="translate(-8774,-13702)">
  <g
   id="g194">
   <g
   id="container-id1">
    <g
   id="id1"
   class="Slide"
   clip-path="url(#presentation_clip_path)">
     <g
   class="Page"
   id="g190">
      <g
   class="Graphic"
   id="g188">
       <g
   id="id3">
        <rect
   class="BoundingBox"
   x="8774"
   y="13702"
   width="3452"
   height="2296"
   id="rect51"
   style="fill:none;stroke:none" />
        <path
   d="m 11146,14289 -3,-25 -5,-20 -10,-23 -10,-18 -16,-15 -15,-11 -13,-7 -15,-3 -15,-35 -18,-46 -25,-53 -31,-56 -40,-56 -51,-51 -66,-41 -79,-30 -13,-13 -15,-13 -15,-13 -18,-10 -18,-10 -20,-7 -21,-8 -20,-5 -30,-3 -39,5 -40,13 -46,18 -46,28 -46,33 -43,38 -38,43 -15,21 -13,22 -13,23 -10,23 -2,18 v 18 23 l 2,23 8,28 10,25 20,20 26,18 15,8 10,10 8,13 5,12 5,28 -2,28 -8,28 -8,28 -7,23 -13,23 -18,23 -20,25 -21,31 -22,35 -21,44 -20,50 -23,82 -15,99 -10,120 v 144 l 5,56 10,49 13,45 15,39 15,35 13,33 10,28 3,28 2,64 5,76 3,71 -3,59 v 63 l 5,87 10,84 11,50 10,11 18,-5 17,-13 8,-13 15,3 15,-5 13,-11 8,-12 10,7 13,8 15,5 15,5 18,3 18,2 12,-2 13,-5 10,-16 10,-23 13,-25 15,-30 13,-28 10,-28 8,-21 3,-15 12,5 13,5 10,3 h 13 7 11 7 l 5,-3 v -30 l 13,-51 18,-61 25,-71 28,-69 28,-66 26,-59 22,-40 21,-31 20,-30 20,-28 21,-26 15,-25 15,-21 10,-15 8,-15 10,-23 13,-36 5,-38 -10,-25 18,-3 12,-5 11,-5 15,-2 20,-26 20,-35 16,-36 10,-30 13,-34 12,-35 13,-41 10,-40 23,-69 18,-87 10,-91 z"
   id="path53"
   inkscape:connector-curvature="0"
   style="fill:#d8ef93;stroke:none" />
        <path
   d="m 10317,14200 -5,-12 -8,-13 -10,-10 -15,-8 -26,-18 -20,-20 -10,-25 -8,-28 -2,-23 v -23 -18 l 2,-18 10,-23 13,-23 13,-22 15,-21 -7,15 -11,16 -5,15 3,13 7,5 13,2 h 15 l 18,-7 13,-5 13,-11 17,-10 18,-12 15,-11 18,-10 13,-10 13,-8 12,-5 13,-7 15,-8 18,-5 18,-5 20,-5 23,-3 h 26 l 22,-2 21,-8 18,-10 10,-10 5,-8 h 5 l 2,3 6,5 5,7 2,11 3,10 -3,10 h 8 l 5,2 5,3 v 5 l 10,-8 13,-7 7,-3 h 8 l 8,21 7,28 5,35 -2,36 7,-8 3,-7 3,-8 v -8 l 5,13 7,13 5,12 3,13 8,10 15,8 h 18 l 15,-8 7,-5 13,-2 h 13 l 18,2 15,5 15,8 13,13 8,12 -13,11 -13,15 -5,18 8,22 17,26 18,30 15,33 6,28 -18,6 -18,12 -20,15 -11,13 v 13 l -2,20 -5,28 -10,28 -18,28 -26,28 -38,20 -51,16 -5,15 -2,13 -5,12 -5,11 -8,-11 -5,-7 -5,-5 -5,-3 -3,18 -2,23 -8,20 -8,13 -2,-15 -8,-16 -7,-7 -10,-5 -11,20 -12,23 -13,20 -13,10 -2,-15 v -15 l -3,-13 -5,-5 -8,8 -5,10 -5,8 -7,2 v -10 -5 -5 l -5,-3 28,-23 20,-28 7,-33 -7,-35 15,-10 15,-16 16,-15 10,-15 12,-18 16,-18 12,-15 6,-8 h -18 l -8,13 -13,13 -10,12 -15,13 -13,13 -15,13 -13,10 -12,10 -16,8 -15,7 -18,3 -17,2 h -18 -18 l -13,-5 -10,-7 -3,7 3,8 5,7 5,3 h -10 l -8,-3 h -10 l -10,-2 -13,-3 -12,-5 -13,-5 -15,-5 -13,-2 -13,2 -10,5 -2,8 v -15 -11 -5 l 5,-5 -21,3 -12,2 -8,8 -5,8 v -21 l 5,-20 8,-15 10,-11 5,-20 -3,-41 -7,-38 z"
   id="path55"
   inkscape:connector-curvature="0"
   style="fill:#f27272;stroke:none" />
        <path
   d="m 10917,14920 18,-3 12,-5 11,-5 15,-2 20,-28 15,-33 11,-38 10,-31 5,-31 10,-55 10,-72 8,-81 2,-84 -2,-76 -13,-61 -23,-41 -2,10 -5,16 -3,10 -5,7 -5,-5 -3,-2 -2,-3 h -5 v 10 l -3,10 -2,6 v 2 l -8,-5 h -5 -5 v 0 l 2,13 3,7 v 8 l -3,5 -7,-2 -5,-6 -8,-2 h -8 l 5,10 11,10 7,13 5,15 v 51 97 l -5,106 -10,77 -13,48 -12,43 -13,33 -10,16 v -13 -13 l -3,-5 v -2 l -5,7 -2,5 -3,3 h -2 l -3,18 -8,20 -12,20 -16,13 -15,-3 -15,-5 -15,-2 -11,7 -7,8 -10,10 -13,13 -13,13 -15,10 -15,13 -13,7 -10,5 -13,5 -20,13 -23,15 -28,18 -30,18 -28,15 -26,8 -20,2 -23,-7 -8,-13 -5,-8 -18,-2 -5,-8 -7,-5 -10,-5 h -11 l -2,-10 -3,-10 -2,-8 v -2 l -13,5 -5,2 h -5 l -5,-5 v -15 l 2,-21 8,-12 8,-5 -6,-10 -5,-6 -2,-2 v 0 l -18,8 -18,12 -12,15 -3,16 -8,-5 -10,-8 -10,-10 -5,-15 -8,12 -5,13 v 15 l 5,16 -7,-3 -8,-3 -8,-5 -5,-5 -5,18 -5,20 v 23 l 10,18 5,8 6,7 2,11 8,10 10,10 13,8 22,7 31,3 h 33 l 25,-3 23,-5 18,-5 15,-5 13,-5 8,-3 10,-2 h 8 l 15,-3 18,-5 25,-8 28,-7 30,-10 33,-11 31,-10 25,-7 23,-10 23,-8 20,-8 18,-7 16,-8 10,-8 7,-5 -5,13 -12,25 -18,31 -21,33 -22,36 -21,30 -15,26 -8,15 10,-8 13,-15 18,-20 20,-21 18,-23 15,-20 13,-20 8,-13 7,-5 5,-3 h 6 l 5,8 12,-23 18,-36 15,-43 z"
   id="path57"
   inkscape:connector-curvature="0"
   style="fill:#59b200;stroke:none" />
        <path
   d="m 10769,15233 -22,40 -26,59 -28,66 -28,69 -25,71 -18,61 -13,51 v 30 l -5,3 h -7 -11 -7 -13 l -10,-3 -13,-5 -12,-5 -3,15 -8,21 -10,28 -13,28 -15,30 -13,25 -10,23 -10,16 -13,5 -12,2 -18,-2 -18,-3 -15,-5 -15,-5 -13,-8 -10,-7 -8,12 -13,11 -15,5 -15,-3 -8,13 -17,13 -18,5 -10,-11 -11,-50 -10,-84 -5,-87 v -63 l 5,15 8,20 5,23 10,23 10,23 13,15 15,13 21,2 7,18 15,18 16,8 h 20 l 8,12 5,11 5,5 2,2 8,-30 13,-44 15,-50 18,-56 15,-56 13,-49 7,-38 3,-23 v 13 15 l 2,13 8,5 v 23 l -13,56 -23,74 -28,76 18,-10 18,-13 15,-13 5,-10 h 8 l 13,-7 12,-11 13,-15 13,-15 13,-18 7,-15 8,-13 13,-23 25,-43 33,-56 36,-61 38,-61 33,-56 25,-38 z"
   id="path59"
   inkscape:connector-curvature="0"
   style="fill:#59b200;stroke:none" />
        <path
   d="m 10198,15324 -3,-28 -10,-28 -13,-33 -15,-35 -15,-39 -13,-45 -10,-49 -5,-56 v -144 l 10,-120 15,-99 23,-82 20,-50 21,-44 22,-35 21,-31 20,-25 18,-23 13,-23 7,-23 8,-28 8,-28 2,-28 -5,-28 13,23 7,38 3,41 -5,20 -10,11 -8,15 -5,20 v 21 l 5,-8 8,-8 12,-2 21,-3 -28,31 -23,30 -21,28 -15,28 -15,26 -10,25 -10,23 -11,20 -10,33 -7,49 -5,50 2,39 -30,106 -8,135 10,158 z"
   id="path61"
   inkscape:connector-curvature="0"
   style="fill:#59b200;stroke:none" />
        <path
   d="m 10564,14518 28,-23 20,-28 7,-33 -7,-35 15,-10 15,-16 16,-15 10,-15 12,-18 16,-18 12,-15 6,-8 h -18 l -8,13 -13,13 -10,12 -15,13 -13,13 -15,13 -13,10 -12,10 -16,8 -15,7 -18,3 -17,2 h -18 -18 l -13,-5 -10,-7 -3,7 3,8 5,7 5,3 h -10 l -8,-3 h -10 l -10,-2 -13,-3 -12,-5 -13,-5 -15,-5 7,13 10,10 18,10 21,8 20,10 13,13 7,12 3,13 -3,23 -2,38 v 38 l 7,23 13,5 8,-5 2,-10 3,-13 2,-15 11,-23 15,-18 z"
   id="path63"
   inkscape:connector-curvature="0"
   style="fill:#59b200;stroke:none" />
        <path
   d="m 11087,14628 23,-69 18,-87 10,-91 8,-92 -3,-25 -5,-20 -10,-23 -10,-18 -16,-15 -15,-11 -13,-7 -15,-3 -15,-35 -18,-46 -25,-53 -31,-56 -40,-56 -51,-51 -66,-41 -79,-30 -13,-13 -15,-13 -15,-13 -18,-10 -18,-10 -20,-7 -21,-8 -20,-5 -30,-3 -39,5 -40,13 -46,18 -46,28 -46,33 -43,38 -38,43 10,-5 10,-10 16,-13 15,-15 15,-15 18,-13 15,-13 13,-7 15,-10 13,-8 13,-5 12,-8 13,-5 13,-8 15,-5 15,-5 16,-5 15,-7 15,-5 18,-3 h 18 l 23,3 25,7 28,13 23,13 20,12 13,16 13,17 15,3 23,5 28,10 30,13 31,15 28,20 25,23 20,28 31,61 23,66 12,61 8,44 -2,33 -11,30 -15,26 -18,17 16,-2 15,-5 10,-8 13,-10 7,-13 8,-12 5,-13 3,-10 10,10 5,8 5,7 2,10 3,-17 5,-13 v -13 l -2,-10 10,8 12,10 13,12 10,16 10,20 8,23 3,28 v 33 l -11,-5 -7,-5 h -5 -3 l 15,43 6,51 2,48 v 43 l -2,21 -6,30 -5,36 z"
   id="path65"
   inkscape:connector-curvature="0"
   style="fill:#a5e24c;stroke:none" />
        <path
   d="m 10769,15233 21,-31 20,-30 20,-28 21,-26 15,-25 15,-21 10,-15 8,-15 10,-23 13,-36 5,-38 -10,-25 -3,48 -15,43 -18,36 -12,23 -5,-8 h -6 l -5,3 -7,5 -8,13 -13,20 -15,20 -18,23 -20,21 -18,20 -13,15 -10,8 -10,12 -18,23 -20,28 -20,33 -21,36 -17,36 -13,35 -8,33 10,-23 13,-28 18,-33 18,-35 23,-31 25,-30 28,-21 z"
   id="path67"
   inkscape:connector-curvature="0"
   style="fill:#a5e24c;stroke:none" />
        <path
   d="m 10897,14854 -3,18 -8,20 -12,20 -16,13 -15,-3 -15,-5 -15,-2 -11,7 -7,8 -10,10 -13,13 -13,13 -15,10 -15,13 -13,7 -10,5 -13,5 -20,13 -23,15 -28,18 -30,18 -28,15 -26,8 -20,2 -5,-15 -3,-15 -2,-13 v -5 l 10,5 7,5 6,3 h 5 v -18 -18 l -3,-15 v -13 l 5,8 5,7 3,6 5,2 2,-23 -2,-28 -10,-28 -18,-25 15,5 18,8 18,5 20,5 20,5 23,2 h 23 l 23,-5 25,-7 31,-11 30,-12 33,-16 31,-17 25,-21 23,-25 18,-31 v 18 13 13 z"
   id="path69"
   inkscape:connector-curvature="0"
   style="fill:#a5e24c;stroke:none" />
        <path
   d="m 10764,14854 23,-5 26,-10 25,-16 26,-20 20,-23 18,-28 12,-33 5,-36 -12,6 -10,10 -8,10 -3,10 -7,10 -15,8 -18,7 -13,3 -10,5 -8,10 -2,10 -3,13 10,-7 10,-3 h 6 l 5,3 -3,7 -5,10 -8,13 -10,10 -10,13 -13,10 -12,8 z"
   id="path71"
   inkscape:connector-curvature="0"
   style="fill:#a5e24c;stroke:none" />
        <path
   d="m 10787,14653 -10,20 -18,21 -25,20 -31,18 -33,12 -33,13 -28,8 h -25 l 2,-21 6,-25 12,-25 13,-26 15,-23 15,-23 16,-17 10,-13 v 18 15 l 2,15 5,10 v -10 l 6,-7 2,-5 v -3 l 5,18 3,12 5,13 5,8 -3,-10 3,-11 2,-7 v -3 l 11,13 5,10 5,5 5,5 2,-12 3,-11 5,-5 v -2 l 10,5 13,2 h 10 z"
   id="path73"
   inkscape:connector-curvature="0"
   style="fill:#a5e24c;stroke:none" />
        <path
   d="m 10205,14750 -2,-39 5,-50 7,-49 10,-33 11,-20 10,-23 10,-25 15,-26 15,-28 21,-28 23,-30 28,-31 -5,5 v 5 11 15 l 2,-8 10,-5 13,-2 13,2 7,13 10,10 18,10 21,8 20,10 13,13 7,12 3,13 -3,23 -2,38 v 38 l 7,23 13,5 8,-5 2,-10 3,-13 2,-15 11,-23 15,-18 18,-5 5,3 v 5 5 10 l 7,-2 5,-8 5,-10 8,-8 5,5 3,13 v 15 l 2,15 -33,41 -20,43 -13,38 -5,34 h -10 l -8,10 -7,17 -8,16 -3,-5 -5,-11 -7,-10 -13,-7 v 7 21 25 l -3,23 -15,15 -7,26 -5,25 v 18 l -3,-3 -8,-2 -7,-3 h -13 l 3,5 5,10 7,13 5,10 3,11 -5,12 -8,16 -7,10 -6,-10 -5,-6 -2,-2 v 0 l -18,8 -18,12 -12,15 -3,16 -8,-5 -10,-8 -10,-10 -5,-15 -8,12 -5,13 v 15 l 5,16 -7,-3 -8,-3 -8,-5 -5,-5 -5,18 -5,20 v 23 l 10,18 5,8 6,7 2,11 8,10 10,10 13,8 22,7 31,3 h 33 l 25,-3 23,-5 18,-5 15,-5 13,-5 8,-3 10,-2 h 8 l 15,-3 18,-5 25,-8 28,-7 30,-10 33,-11 31,-10 -10,16 -10,28 -11,33 -7,33 -8,20 -10,30 -18,36 -18,38 -20,38 -18,33 -12,26 -11,15 v -5 l -2,-8 -3,-10 -7,-10 -3,5 -10,10 -13,13 -17,13 v 5 10 l -3,15 -5,13 -3,-5 -2,-5 v -8 l -3,-10 -2,3 -8,5 -10,7 -5,10 -3,23 -7,38 -13,49 -15,56 -18,56 -15,50 -13,44 -8,30 -2,-2 -5,-5 -5,-11 -8,-12 h -20 l -16,-8 -15,-18 -7,-18 -21,-2 -15,-13 -13,-15 -10,-23 -10,-23 -5,-23 -8,-20 -5,-15 3,-59 -3,-71 -5,-76 -2,-64 -21,-175 -10,-158 8,-135 z"
   id="path75"
   inkscape:connector-curvature="0"
   style="fill:#a5e24c;stroke:none" />
        <path
   d="m 10355,14193 8,18 10,17 15,16 15,12 18,13 18,10 18,10 18,11 15,7 13,5 10,5 h 7 8 8 5 l 5,-2 -8,-8 -5,-7 -5,-11 -5,-10 -5,-7 -3,-8 -5,-8 -5,-5 -2,-5 v -5 -3 0 l 7,-7 3,-13 -5,-15 -11,-5 v -13 l 3,-15 5,-13 8,-13 2,-15 v -20 -18 l 5,-15 -15,-15 -18,-11 -15,-7 -18,-5 -18,-3 h -17 -16 l -17,3 -28,7 -18,13 -10,15 -13,15 -8,18 v 28 l 13,33 z"
   id="path77"
   inkscape:connector-curvature="0"
   style="fill:#f7efd8;stroke:none" />
        <path
   d="m 10581,14190 -5,-20 -10,-23 -13,-28 -20,-28 -2,18 -3,23 3,28 5,20 5,13 v 7 l -5,8 -5,5 v 5 l 2,8 3,2 2,3 8,-3 12,-7 16,-10 z"
   id="path79"
   inkscape:connector-curvature="0"
   style="fill:#f7efd8;stroke:none" />
        <path
   d="m 10533,14091 -2,18 -3,23 3,28 5,20 5,13 v 7 l -5,8 -5,5 v 5 l 2,8 3,2 2,3 3,18 -13,2 -10,3 -10,-3 h -3 l -2,-5 v -5 -3 0 l 7,-7 3,-13 -5,-15 -11,-5 v -13 l 3,-15 5,-13 8,-13 2,-15 v -20 -18 l 5,-15 3,2 5,5 3,3 z"
   id="path81"
   inkscape:connector-curvature="0"
   style="fill:#4c3300;stroke:none" />
        <path
   d="m 10355,14193 -5,-23 v -26 l 3,-22 7,-16 8,-7 5,-3 2,-2 -2,-6 -18,11 -10,20 -5,25 -3,23 -15,-23 -5,-22 -3,-21 3,-13 -8,18 v 28 l 13,33 z"
   id="path83"
   inkscape:connector-curvature="0"
   style="fill:#e0c187;stroke:none" />
        <path
   d="m 10520,14317 h 8 8 5 l 5,-2 -8,-8 -5,-7 -5,-11 -5,-10 2,10 3,13 -3,8 z"
   id="path85"
   inkscape:connector-curvature="0"
   style="fill:#e0c187;stroke:none" />
        <path
   d="m 10655,13852 -10,8 -13,10 -15,10 -13,3 -10,2 -10,5 -10,10 -5,10 -3,26 v 25 l 3,23 -3,21 h 8 7 l 11,-3 h 10 10 l 13,-3 h 7 10 l 16,-5 12,-15 8,-15 v -10 l -3,-13 v -20 l -2,-23 -3,-10 -7,-5 -3,-11 -5,-10 z"
   id="path87"
   inkscape:connector-curvature="0"
   style="fill:#f7efd8;stroke:none" />
        <path
   d="m 10619,13895 -10,5 -15,8 -10,13 -5,17 5,18 10,10 10,8 10,5 h 13 l 15,-7 11,-11 2,-17 -8,-18 -7,-10 -5,-8 -3,-3 3,-5 v -5 -5 -5 l -5,5 h -3 l -5,3 z"
   id="path89"
   inkscape:connector-curvature="0"
   style="fill:#000000;stroke:none" />
        <path
   d="m 10604,13954 5,-3 3,-2 5,-3 v -5 -5 l -5,-5 -3,-3 h -5 l -5,3 -2,5 -3,5 v 5 l 3,5 2,3 v 0 z"
   id="path91"
   inkscape:connector-curvature="0"
   style="fill:#ffffff;stroke:none" />
        <path
   d="m 10198,15324 7,-48 3,-61 v -56 l -5,-36 -3,-48 3,-89 7,-92 8,-61 5,-22 8,-31 10,-36 12,-38 13,-35 13,-33 13,-28 10,-16 15,-12 15,-16 13,-12 5,-10 -3,-8 -2,-10 -8,-3 -12,3 -11,10 -15,18 -20,23 -18,30 -18,33 -18,36 -12,38 -8,36 -30,106 -8,135 10,158 z"
   id="path93"
   inkscape:connector-curvature="0"
   style="fill:#006d00;stroke:none" />
        <path
   d="m 10912,14872 10,-16 13,-33 12,-43 13,-48 10,-77 5,-106 v -97 -51 l -5,-15 -7,-13 -11,-10 -5,-10 h 8 l 8,2 5,6 7,2 3,-5 v -8 l -3,-7 -2,-13 v 0 h 5 5 l 8,5 12,31 5,50 3,67 -8,61 -5,33 -2,45 -5,49 -8,51 -10,48 -15,43 -21,36 z"
   id="path95"
   inkscape:connector-curvature="0"
   style="fill:#006d00;stroke:none" />
        <path
   d="m 10162,14566 20,-50 21,-44 22,-35 21,-31 20,-25 18,-23 13,-23 7,-23 8,-28 8,-28 2,-28 -5,-28 13,23 7,38 3,41 -5,20 -10,11 -8,15 -5,20 v 21 l -10,10 -16,10 -17,15 -18,18 -23,20 -23,31 -23,35 -23,44 z"
   id="path97"
   inkscape:connector-curvature="0"
   style="fill:#006d00;stroke:none" />
        <path
   d="m 10355,14193 -13,-3 -12,-2 -10,5 -3,7 -5,-12 -8,-13 -10,-10 -15,-8 -26,-18 -20,-20 -10,-25 -8,-28 8,7 10,8 13,7 15,6 13,5 h 15 l 15,-3 13,-8 -8,18 v 28 l 13,33 z"
   id="path99"
   inkscape:connector-curvature="0"
   style="fill:#e54c3f;stroke:none" />
        <path
   d="m 10533,14091 25,25 16,26 10,23 8,20 2,20 v 16 l -2,12 -8,8 -13,5 -10,3 h -10 -10 l -3,-18 8,-3 12,-7 16,-10 7,-21 -5,-20 -10,-23 -13,-28 z"
   id="path101"
   inkscape:connector-curvature="0"
   style="fill:#e54c3f;stroke:none" />
        <path
   d="m 10378,14035 5,-5 10,-5 8,-3 7,3 6,5 v 3 2 l -3,3 h -5 -8 -10 z"
   id="path103"
   inkscape:connector-curvature="0"
   style="fill:#e54c3f;stroke:none" />
        <path
   d="m 10253,14221 3,-44 -3,-38 -5,-28 -10,-25 -10,-18 -13,-15 -12,-13 -11,-10 -5,-28 -12,-25 -23,-16 -28,-12 -13,-5 -13,-3 -15,-3 -13,-5 h -15 l -15,-2 -15,-3 h -16 -35 l -33,5 -33,8 -33,13 -31,15 -30,18 -31,18 -28,20 -13,13 -10,10 -12,13 -13,12 -18,23 -18,23 -15,25 -13,23 -12,21 -11,20 -5,18 -5,15 -5,18 -7,18 -13,17 -13,18 -13,15 -17,16 -16,10 -17,5 -16,5 -12,5 -13,10 -13,11 -10,12 -10,13 -10,15 -10,15 -28,41 -31,61 -33,74 -30,81 -31,84 -28,76 -23,64 -15,46 -20,86 -16,104 -7,97 -8,66 -2,74 2,109 5,102 5,56 8,15 13,18 12,18 13,20 v 20 l -2,28 v 33 l -3,36 v 46 38 30 l 3,13 5,5 h 7 l 8,-2 5,-8 v 3 l -3,7 3,8 8,2 12,-10 18,-20 20,-28 23,-33 23,-36 20,-30 16,-26 7,-15 13,3 15,-3 18,-7 23,-21 13,-15 20,-20 23,-28 28,-31 30,-33 31,-33 30,-33 28,-33 16,-18 12,-15 13,-15 10,-11 21,-22 15,-23 15,-18 15,-18 10,-18 13,-15 10,-15 10,-18 3,-13 3,-10 5,-8 10,-5 13,-5 10,-5 12,-5 16,3 5,-11 15,-10 15,-5 18,8 -2,-18 v -18 -18 -17 l 12,-11 8,-15 10,-20 18,-23 18,-10 15,-10 15,-11 15,-15 13,-13 10,-15 13,-15 10,-18 15,-25 13,-28 13,-26 12,-28 21,-81 5,-97 -3,-91 -5,-56 -5,-38 -7,-46 -3,-48 3,-49 5,-25 5,-18 7,-13 8,-10 8,-5 7,-5 10,-5 11,-5 v 2 l -3,6 -5,12 v 23 h 3 l 2,-2 8,-8 7,-10 10,-18 11,-28 10,-36 z"
   id="path105"
   inkscape:connector-curvature="0"
   style="fill:#d8ef93;stroke:none" />
        <path
   d="m 10253,14221 3,-44 -3,-38 -5,-28 -10,-25 -10,-18 -13,-15 -12,-13 -11,-10 -5,-28 -12,-25 -23,-16 -28,-12 -15,-3 -16,-2 h -20 l -18,2 -18,3 -17,5 -16,7 -10,11 -23,-6 -25,3 -28,8 -28,12 -28,18 -25,20 -26,23 -20,26 12,15 11,8 5,5 h 10 l -13,18 -15,7 -18,5 h -15 l 2,31 8,30 13,21 25,7 -2,8 -5,5 -6,2 -5,3 11,3 7,2 h 8 5 l -8,10 -10,13 -15,15 -20,16 -21,17 -20,13 -23,13 -20,7 2,11 3,10 7,5 8,2 -3,8 -2,8 v 7 5 l 13,-2 h 10 7 8 l -3,10 -2,8 v 5 l 2,7 8,-5 5,-5 3,-2 h 5 l 2,7 5,8 6,10 7,8 13,10 18,7 23,8 30,8 v 12 l -2,13 -6,10 -10,3 -12,-3 -11,-2 -10,-3 -5,-5 -10,3 -10,5 -10,7 -5,16 -11,-18 v -18 l 8,-10 5,-5 -18,-3 -12,3 -11,7 -10,18 v 10 l 8,11 10,10 13,10 12,13 16,10 12,10 8,10 h 18 15 l 13,8 7,10 3,13 3,12 5,10 7,11 5,-8 8,-5 5,-3 h 3 l 7,11 10,12 11,13 10,15 12,13 13,13 13,12 15,8 13,3 h 10 l 8,-3 10,-3 10,-7 8,-10 10,-13 12,-18 23,5 21,-20 15,-33 7,-31 6,-7 2,-8 5,-5 5,-5 -5,-38 -7,-46 -3,-48 3,-49 5,-25 5,-18 7,-13 8,-10 8,-5 7,-5 10,-5 11,-5 v 2 l -3,6 -5,12 v 23 h 3 l 2,-2 8,-8 7,-10 10,-18 11,-28 10,-36 z"
   id="path107"
   inkscape:connector-curvature="0"
   style="fill:#f27272;stroke:none" />
        <path
   d="m 10203,14325 v 2 l -3,6 -5,12 v 23 h 3 l 2,-2 8,-8 7,-10 10,-18 11,-28 10,-36 7,-45 -2,-21 -3,-23 -5,-25 -7,-25 -13,-26 -13,-23 -18,-20 -22,-18 -18,-7 -18,-6 -15,6 -13,15 -10,15 -13,23 -10,36 -8,58 10,13 13,10 13,13 13,10 10,12 10,11 8,7 2,8 10,-8 18,-5 h 15 l 11,10 5,13 2,15 v 18 z"
   id="path109"
   inkscape:connector-curvature="0"
   style="fill:#f7efd8;stroke:none" />
        <path
   d="m 10167,14345 8,-5 7,-5 10,-5 11,-5 -3,-15 -5,-13 -8,-10 -10,-5 -20,5 h -23 l -15,-5 -3,-21 -5,-7 -8,-8 -7,-8 -10,-5 -11,-7 -12,-5 -13,-5 -15,-3 -15,5 -11,10 -12,16 -8,15 8,2 7,-2 10,-3 16,3 10,7 10,16 10,20 8,20 2,16 5,12 8,5 10,6 h 13 l 15,-3 21,-5 z"
   id="path111"
   inkscape:connector-curvature="0"
   style="fill:#f7efd8;stroke:none" />
        <path
   d="m 9936,14012 -13,8 -18,13 -18,15 -12,15 -3,13 v 10 10 l 3,8 2,7 5,11 5,10 5,7 8,3 13,2 h 13 l 12,-7 15,-3 13,-2 10,2 11,3 2,-10 3,-11 2,-10 8,-2 7,-8 3,-10 v -10 l -5,-8 -8,-15 -7,-20 -21,-16 z"
   id="path113"
   inkscape:connector-curvature="0"
   style="fill:#f7efd8;stroke:none" />
        <path
   d="m 9910,14038 13,-3 23,3 23,10 15,20 3,15 -3,11 -5,5 -3,5 -7,5 -10,7 -16,6 -12,-3 -16,-10 -10,-13 -5,-18 3,-15 5,-8 5,-5 5,-2 h 2 v 0 -5 l -5,-3 z"
   id="path115"
   inkscape:connector-curvature="0"
   style="fill:#000000;stroke:none" />
        <path
   d="m 9943,14055 h 5 l 8,3 8,8 2,12 -10,3 -13,-3 -5,-7 z"
   id="path117"
   inkscape:connector-curvature="0"
   style="fill:#ffffff;stroke:none" />
        <path
   d="m 9750,14877 -8,10 -15,15 -18,18 -15,10 3,-8 -3,-5 h -7 l -11,5 -15,8 -18,13 -12,13 -8,15 -13,-31 -7,-33 5,-30 25,-23 -5,-5 -5,-5 -3,-3 v 0 l 13,-10 13,-10 13,-10 5,-8 5,8 2,10 8,10 15,5 -2,13 -3,18 -5,15 -8,7 21,-2 20,-8 18,-7 7,-11 3,-2 3,5 2,8 z"
   id="path119"
   inkscape:connector-curvature="0"
   style="fill:#a5e24c;stroke:none" />
        <path
   d="m 9224,15975 -5,8 -8,2 h -7 l -5,-5 -3,-13 v -30 -38 -46 l 8,-13 7,-12 10,-13 11,-13 12,-12 10,-11 13,-7 13,-8 10,3 h 8 2 l 5,-5 8,-18 8,-16 5,-7 h 5 l 5,10 2,13 3,12 7,6 11,-8 10,-13 13,-13 12,-17 13,-16 8,-17 5,-18 -3,-15 -10,10 -13,10 -12,5 -13,3 -13,2 -10,3 h -8 -2 l 2,-11 v -7 -3 l -7,-2 h -10 -11 -10 l -5,2 5,-20 10,-20 13,-16 13,-2 v 10 l 2,13 5,10 5,5 18,-10 18,-15 15,-11 h 16 l 2,11 8,12 10,10 15,8 h 13 l 18,-5 20,-10 23,-8 23,-13 20,-10 18,-7 10,-8 -13,13 -23,23 -27,30 -31,31 -30,33 -28,28 -21,20 -13,8 -10,2 -7,3 -8,-3 -5,-7 -10,15 -18,25 -20,33 -23,36 -23,35 -25,31 -21,25 z"
   id="path121"
   inkscape:connector-curvature="0"
   style="fill:#a5e24c;stroke:none" />
        <path
   d="m 9422,14966 15,-18 16,-31 18,-38 20,-43 13,-25 10,-26 12,-23 13,-23 18,-33 18,-35 12,-38 13,-41 8,-36 5,-33 v -28 l -5,-20 -8,-5 -10,-3 -10,5 -10,8 -13,10 -10,13 -13,13 -10,10 -10,-13 -13,-2 -15,7 -18,15 -8,-17 8,-26 20,-33 26,-33 25,-35 28,-31 18,-25 10,-16 5,-33 18,-35 18,-31 12,-15 -2,-10 8,-13 12,-13 18,-10 v -18 l 8,-20 7,-23 8,-23 -18,23 -18,23 -15,25 -13,23 -12,21 -11,20 -5,18 -5,15 -5,18 -7,18 -13,17 -13,18 -13,15 -17,16 -16,10 -17,5 -16,5 -12,5 -13,10 -13,11 -10,12 -10,13 -10,15 -10,15 -28,41 -31,61 -33,74 -30,81 -31,84 -28,76 -23,64 -15,46 -20,86 -16,104 -7,97 -8,66 -2,74 2,109 5,102 5,56 8,15 13,18 12,18 13,20 -13,-53 -5,-56 -2,-56 -5,-51 -3,-64 8,-86 12,-92 21,-73 -3,-18 v -15 l 3,-13 v -5 5 l 2,10 3,10 5,5 18,-12 12,-16 11,-20 5,-23 v -30 l 5,-54 7,-51 5,-35 -2,38 v 48 l -3,46 5,23 23,-13 21,-15 15,-20 5,-21 v -23 l 5,-25 3,-18 2,-7 v 5 l 3,15 v 20 l -3,21 15,-8 16,-10 15,-16 z"
   id="path123"
   inkscape:connector-curvature="0"
   style="fill:#a5e24c;stroke:none" />
        <path
   d="m 9926,15200 12,-11 8,-15 10,-20 18,-23 18,-10 15,-10 15,-11 15,-15 13,-13 10,-15 13,-15 10,-18 38,-122 15,-132 3,-104 -3,-49 -7,31 -15,33 -21,20 -23,-5 -12,18 -10,13 -8,10 -10,7 -10,3 -8,3 h -10 l -13,-3 -15,-8 -13,-12 -13,-13 -12,-13 -10,-15 -11,-13 -10,-12 -7,-11 h -3 l -5,3 -8,5 -5,8 -7,-11 -5,-10 -3,-12 -3,-13 -7,-10 -13,-8 h -15 -18 l 10,20 10,23 11,23 20,15 2,16 3,12 -3,11 -7,5 -5,7 v 16 l 5,15 5,13 v 10 l -3,15 -5,23 -7,23 -13,25 -13,23 -15,20 -15,16 2,-11 -2,-7 -3,-5 h -2 l -18,15 -21,18 -25,20 -28,23 -28,20 -28,21 -23,12 -17,8 12,8 13,7 15,5 15,3 16,2 h 17 l 13,-2 15,-5 -2,20 -8,18 -10,13 -10,7 h 18 l 18,-5 15,-5 12,-5 -2,13 -8,15 -10,13 -15,10 -10,13 -3,15 v 13 10 l -5,-3 -5,-5 h -5 l -8,3 -7,7 -3,10 v 13 l -5,8 -10,-10 -5,-11 -5,-10 -3,-10 -5,20 -2,18 v 18 l 2,18 -10,5 -10,8 -8,12 -5,16 -13,-8 -5,-10 3,-10 2,-8 -12,8 -13,10 -8,10 -10,5 -7,-5 -6,-18 3,-15 8,-13 -11,-5 h -12 l -16,5 -10,13 -7,-8 -5,-12 2,-13 5,-8 -10,8 -15,13 -13,15 -15,20 -15,23 -13,28 -10,31 -5,35 -3,28 3,20 5,16 5,10 10,13 8,12 2,13 -2,20 28,3 28,-8 30,-12 28,-18 25,-18 21,-15 18,-16 12,-7 13,-5 18,-8 18,-5 20,-8 20,-5 18,-7 13,-8 7,-8 -7,16 -8,12 -5,11 -10,7 10,-5 13,-10 12,-13 13,-15 13,-18 13,-15 15,-15 12,-13 3,-13 3,-10 5,-8 10,-5 13,-5 10,-5 12,-5 16,3 5,-11 15,-10 15,-5 18,8 -2,-18 v -18 -18 z"
   id="path125"
   inkscape:connector-curvature="0"
   style="fill:#a5e24c;stroke:none" />
        <path
   d="m 9928,15271 -18,-8 -15,5 -15,10 -5,11 -16,-3 -12,5 -10,5 -13,5 -10,5 -5,8 -3,10 -3,13 -12,13 -15,15 -13,15 -13,18 -13,15 -12,13 -13,10 -10,5 10,-7 5,-11 8,-12 7,-16 -7,8 -13,8 -18,7 -20,5 -20,8 -18,5 -18,8 -13,5 -12,7 -18,16 -21,15 -25,18 -28,18 -30,12 -28,8 -28,-3 2,-20 -2,-13 -8,-12 -10,-13 2,-20 8,-28 18,-23 25,-16 15,-10 16,-18 10,-20 5,-13 10,16 8,15 5,18 v 10 l 13,2 h 15 l 18,-2 20,-8 20,-7 18,-13 18,-15 15,-18 8,10 5,10 2,8 -2,7 18,-12 25,-21 28,-25 30,-31 28,-30 23,-33 18,-28 10,-28 5,15 3,18 -3,18 -5,12 18,-10 15,-15 8,-15 2,-15 3,17 3,18 v 15 l -3,13 v 0 l 13,-10 12,-13 6,-7 v 17 18 18 z"
   id="path127"
   inkscape:connector-curvature="0"
   style="fill:#59b200;stroke:none" />
        <path
   d="m 9643,15543 -28,33 -30,33 -31,33 -30,33 -28,31 -23,28 -20,20 -13,15 -23,21 -18,7 -15,3 -13,-3 -7,15 -16,26 -20,30 -23,36 -23,33 -20,28 -18,20 -12,10 -8,-2 -3,-8 3,-7 v -3 l 15,-13 21,-25 25,-31 23,-35 23,-36 20,-33 18,-25 10,-15 5,7 8,3 7,-3 10,-2 13,-8 21,-20 28,-28 30,-33 31,-31 27,-30 23,-23 13,-13 13,-8 12,-10 13,-10 z"
   id="path129"
   inkscape:connector-curvature="0"
   style="fill:#59b200;stroke:none" />
        <path
   d="m 9631,14610 20,-41 8,-38 v -36 l 2,-25 3,-3 h 5 7 l 13,5 -2,6 v 7 10 l 5,5 5,3 7,-3 5,-7 6,-8 2,10 -2,13 -8,13 -13,12 -5,16 8,17 7,21 -2,23 -10,12 -18,16 -18,17 -10,21 v 15 l 2,15 v 13 l -7,15 -8,33 -23,36 -33,41 -40,43 -46,51 -41,53 -35,59 -23,66 -8,5 -10,10 -13,13 -10,15 -15,15 -13,13 -15,13 -15,10 17,-15 23,-34 23,-38 26,-45 22,-46 23,-41 18,-33 13,-18 13,-12 12,-21 15,-23 16,-30 18,-28 15,-31 18,-25 15,-23 23,-36 17,-43 11,-35 z"
   id="path131"
   inkscape:connector-curvature="0"
   style="fill:#59b200;stroke:none" />
        <path
   d="m 9857,14778 -5,-13 -5,-15 v -16 l 5,-7 15,2 15,8 16,10 10,13 10,10 13,8 12,5 h 8 l 8,-5 12,-3 10,-3 h 8 l 5,6 5,7 3,3 5,2 -5,10 -5,18 -8,23 -10,26 -13,27 -18,26 -22,23 -28,18 5,-11 12,-12 11,-10 5,-11 2,-7 v -8 l 3,-5 v -3 l 12,-10 11,-10 5,-10 v -8 l -5,3 -6,2 h -2 l -5,3 5,-13 2,-12 v -11 l -2,-7 -15,2 -23,-5 -21,-10 -10,-20 -5,-10 -7,-3 h -11 z"
   id="path133"
   inkscape:connector-curvature="0"
   style="fill:#59b200;stroke:none" />
        <path
   d="m 10083,15024 -10,18 -13,15 -10,15 -13,13 -15,15 -15,11 -15,10 -18,10 20,-33 23,-53 18,-59 10,-48 8,15 5,10 5,5 2,3 18,-56 13,-74 5,-71 -3,-38 -7,5 h -8 l -10,-5 -10,-15 -8,15 -10,18 -10,12 -10,3 -11,-5 -10,-5 -10,-3 -5,-5 13,3 h 10 l 8,-3 10,-3 10,-7 8,-10 10,-13 12,-18 23,5 21,-20 15,-33 7,-31 3,49 -3,104 -15,132 z"
   id="path135"
   inkscape:connector-curvature="0"
   style="fill:#59b200;stroke:none" />
        <path
   d="m 9422,14966 -15,17 -15,16 -16,10 -15,8 3,-21 v -20 l -3,-15 v -5 l -2,7 -3,18 -5,25 v 23 l -5,21 -15,20 -21,15 -23,13 -5,-23 3,-46 v -48 l 2,-38 -5,35 -7,51 -5,54 v 30 l -5,23 -11,20 -12,16 -18,12 -5,-5 -3,-10 -2,-10 v -5 5 l -3,13 v 15 l 3,18 -21,73 -12,92 -8,86 3,64 5,51 2,56 5,56 13,53 3,-30 5,-59 7,-76 10,-89 13,-89 15,-82 18,-63 21,-38 17,-15 23,-34 23,-38 26,-45 22,-46 23,-41 18,-33 13,-18 13,-12 12,-21 15,-23 16,-30 18,-28 15,-31 18,-25 15,-23 23,-36 17,-43 11,-35 v -23 l -8,15 -8,15 -5,13 -2,13 -3,7 -7,18 -13,20 -15,26 -18,25 -18,28 -20,26 -23,20 -20,43 -18,38 -16,31 z"
   id="path137"
   inkscape:connector-curvature="0"
   style="fill:#006d00;stroke:none" />
        <path
   d="m 9974,15131 20,-33 23,-53 18,-59 10,-48 8,15 5,10 5,5 2,3 18,-56 13,-74 5,-71 -3,-38 8,23 5,35 v 46 l -5,56 -15,61 -26,61 -38,61 z"
   id="path139"
   inkscape:connector-curvature="0"
   style="fill:#006d00;stroke:none" />
        <path
   d="m 10065,14180 10,13 13,10 13,13 13,10 10,12 10,11 8,7 2,8 10,-8 18,-5 h 15 l 11,10 5,13 2,15 v 18 l -2,18 -3,-15 -5,-13 -8,-10 -10,-5 -20,5 h -23 l -15,-5 -3,-21 -5,-7 -8,-8 -7,-8 -10,-5 -11,-7 -12,-5 -13,-5 -15,-3 -5,-5 7,-10 13,-10 z"
   id="path141"
   inkscape:connector-curvature="0"
   style="fill:#4c3300;stroke:none" />
        <path
   d="m 10070,14429 -7,-13 -3,-15 v -12 l 5,-8 8,-10 -3,-16 -2,-15 v -18 l 2,16 5,12 8,5 10,6 h 13 l 15,-3 21,-5 25,-8 -18,8 -18,10 -15,15 -10,11 -10,7 -10,5 -11,10 z"
   id="path143"
   inkscape:connector-curvature="0"
   style="fill:#e54c3f;stroke:none" />
        <path
   d="m 10103,14053 -7,2 -8,3 -5,5 -2,5 v 8 l 2,5 v 5 2 z"
   id="path145"
   inkscape:connector-curvature="0"
   style="fill:#e54c3f;stroke:none" />
        <path
   d="m 10170,14040 22,18 18,20 13,23 13,26 7,25 5,25 3,23 2,21 3,-44 -3,-38 -5,-28 -10,-25 -10,-18 -13,-15 -12,-13 -11,-10 v 5 l -7,3 h -8 -10 z"
   id="path147"
   inkscape:connector-curvature="0"
   style="fill:#e0c187;stroke:none" />
        <path
   d="m 10215,14348 -7,10 -8,8 -2,2 h -3 v -23 l 5,-12 3,-6 v -2 10 10 l 2,5 z"
   id="path149"
   inkscape:connector-curvature="0"
   style="fill:#e0c187;stroke:none" />
        <path
   d="m 8774,15868 5,18 13,18 18,13 17,5 5,-8 8,-13 13,-15 15,-15 18,-20 20,-21 23,-20 23,-20 30,-23 41,-31 48,-33 54,-36 56,-35 56,-33 56,-28 50,-21 11,-2 10,-5 10,-3 10,-5 10,-2 8,-5 10,-3 10,-5 10,-3 8,-2 8,-5 7,-3 28,-10 26,-13 28,-10 28,-10 28,-10 27,-10 31,-10 30,-8 26,-8 28,-7 33,-8 30,-10 36,-8 36,-10 35,-10 36,-13 33,-10 35,-10 31,-10 33,-8 28,-10 25,-8 23,-7 18,-8 31,-13 33,-12 33,-13 30,-13 33,-13 33,-12 33,-13 31,-13 30,-12 31,-13 28,-13 28,-10 25,-13 23,-10 23,-10 20,-10 21,-10 25,-11 28,-12 30,-13 33,-15 36,-13 36,-15 35,-16 33,-12 36,-15 33,-13 30,-13 28,-13 28,-10 21,-10 17,-8 21,-10 25,-12 33,-18 36,-21 43,-22 43,-26 49,-25 48,-28 48,-28 46,-28 46,-28 43,-26 41,-23 35,-22 28,-18 23,-15 23,-16 28,-23 33,-25 38,-28 41,-31 40,-35 44,-33 43,-36 43,-33 41,-30 35,-31 33,-25 28,-23 21,-18 15,-13 5,-5 2,-10 v -10 l -2,-8 v -2 l -8,7 -18,16 -22,20 -33,28 -36,28 -41,33 -45,36 -46,38 -48,35 -49,36 -48,33 -46,33 -43,25 -38,23 -33,18 -28,10 10,-12 15,-21 18,-23 20,-25 21,-28 17,-25 16,-23 10,-18 8,-18 10,-23 5,-15 2,-8 h -17 l -11,18 -17,31 -26,38 -33,45 -43,54 -53,53 -64,59 -74,56 -48,33 -51,30 -48,31 -51,28 -48,28 -51,25 -51,23 -53,23 -51,23 -54,23 -53,23 -53,22 -56,23 -56,21 -59,25 -58,23 -26,10 -28,13 -25,10 -25,10 -28,10 -26,11 -25,10 -26,10 -5,2 h -2 -5 l -5,3 -13,5 -13,5 -15,5 -13,5 -12,8 -13,5 -15,5 -13,5 -5,3 h -5 -3 l -5,2 -36,13 -38,15 -35,13 -36,13 -35,12 -36,13 -36,13 -35,13 -38,10 -36,12 -35,11 -36,12 -36,10 -35,13 -38,10 -36,11 -33,10 -36,10 -33,10 -30,10 -33,10 -31,11 -30,10 -31,10 -7,2 -5,3 -8,3 -8,2 -53,20 -53,21 -54,23 -48,22 -48,26 -49,28 -45,28 -44,30 -63,49 -51,40 -41,36 -30,30 -23,23 -13,16 -7,10 z"
   id="path151"
   inkscape:connector-curvature="0"
   style="fill:#591900;stroke:none" />
        <path
   d="m 9422,15520 13,20 13,10 12,3 11,-3 20,36 18,23 15,10 h 10 l 5,-2 5,-3 3,-2 5,-3 7,-15 -5,-23 -10,-23 -7,-15 10,2 7,-2 5,-8 -2,-10 -5,-15 -8,-23 -10,-21 -8,-12 -5,-16 -2,-15 -3,-10 -5,-10 -15,-8 -15,-5 -16,-2 h -15 l -15,5 -13,5 -10,10 -8,10 -7,5 -3,18 3,20 2,13 28,-10 28,53 z"
   id="path153"
   inkscape:connector-curvature="0"
   style="fill:#e0c187;stroke:none" />
        <path
   d="m 9803,15337 21,-8 18,-5 20,3 15,15 15,18 13,15 10,15 11,10 7,8 10,3 10,-5 13,-8 15,23 13,5 10,-3 5,-5 5,-15 -5,-28 -17,-33 -33,-36 -8,-10 -10,-7 -8,-8 -5,-10 -18,-8 -15,5 -15,10 -5,11 -16,-3 -12,5 -10,5 -13,5 -10,5 -5,8 -3,10 z"
   id="path155"
   inkscape:connector-curvature="0"
   style="fill:#e0c187;stroke:none" />
        <path
   d="m 9399,15464 -2,-10 v -15 l 5,-13 10,-5 8,-13 10,-10 13,-8 15,-5 13,-2 12,5 10,10 8,15 10,13 5,10 5,13 5,13 8,12 3,10 5,11 2,10 v 10 l -5,8 -7,-3 -11,-10 -10,-21 -13,-22 -12,-21 -10,-12 5,25 12,38 16,38 10,23 10,15 13,13 10,10 v 13 l -3,5 -7,3 -10,-3 -13,-8 -13,-15 -15,-20 -13,-23 -10,-28 -13,-25 -7,-26 -8,-20 -3,-13 -2,-5 h -8 l -5,5 v 5 5 l 3,3 2,2 v 3 z"
   id="path157"
   inkscape:connector-curvature="0"
   style="fill:#f7efd8;stroke:none" />
        <path
   d="m 9422,15520 33,-13 5,10 v 11 l -2,7 -8,5 -13,3 -7,-5 -5,-10 z"
   id="path159"
   inkscape:connector-curvature="0"
   style="fill:#f7efd8;stroke:none" />
        <path
   d="m 10007,15416 2,-18 -5,-23 -17,-28 -26,-33 h -5 l -5,5 v 8 l 2,10 8,15 8,15 5,16 7,20 3,8 5,7 5,3 z"
   id="path161"
   inkscape:connector-curvature="0"
   style="fill:#f7efd8;stroke:none" />
        <path
   d="m 9910,15319 23,13 15,18 11,20 5,23 -16,5 -10,-5 -5,-13 -5,-20 -5,-13 -5,-8 -5,-10 z"
   id="path163"
   inkscape:connector-curvature="0"
   style="fill:#f7efd8;stroke:none" />
        <path
   d="m 9926,15400 -11,-10 -10,-15 -13,-15 -15,-18 -15,-15 -20,-3 -18,5 -21,8 8,-5 10,-8 10,-5 13,-2 10,-3 11,-3 10,3 5,5 12,18 16,23 12,23 z"
   id="path165"
   inkscape:connector-curvature="0"
   style="fill:#aa772b;stroke:none" />
        <path
   d="m 10261,15179 -2,-15 v -23 l 2,-23 3,-15 7,-20 8,-21 15,-17 23,-11 18,3 18,10 12,10 8,10 15,-2 10,2 5,8 v 15 16 12 5 3 l -5,2 h -2 -5 l -5,3 -3,20 -2,23 v 18 l 2,10 v 13 15 l -2,15 -6,16 -5,7 -10,5 -10,3 -15,-3 v 5 6 l -3,7 -2,5 -10,13 -13,5 -13,-3 -13,-15 -10,-33 v -33 l 3,-33 5,-23 -5,3 h -5 -3 z"
   id="path167"
   inkscape:connector-curvature="0"
   style="fill:#e0c187;stroke:none" />
        <path
   d="m 10909,14912 13,3 15,7 10,13 11,13 7,25 3,26 -3,25 -2,21 -5,-3 -3,-5 -5,-5 -3,-8 -2,-18 -5,-30 -15,-31 -36,-15 20,10 16,18 10,23 2,30 -5,16 -5,10 -8,2 h -2 l 2,-10 v -15 l -2,-15 -8,-18 -10,-13 -15,-12 -18,-11 -23,-5 10,-12 8,-3 8,3 h 12 l 8,-8 8,-5 5,-3 z"
   id="path169"
   inkscape:connector-curvature="0"
   style="fill:#e0c187;stroke:none" />
        <path
   d="m 10968,14938 -5,-16 -8,-10 -10,-5 -13,-5 h -13 l -10,3 -10,5 -10,5 -15,-8 h -21 l -17,8 -6,15 -10,10 -7,10 -3,8 5,8 10,-8 13,-5 h 8 l 5,3 20,5 15,10 13,18 5,22 v 11 10 l -2,7 -3,11 8,7 10,3 8,-3 7,-7 10,5 h 8 l 8,-5 5,-5 -5,-3 -3,-5 -5,-5 -3,-8 -2,-18 -5,-30 -15,-31 -36,-15 20,10 16,18 10,23 2,30 -5,16 -5,10 -8,2 h -2 l 2,-10 v -15 l -2,-15 -8,-18 -10,-13 -15,-12 -18,-11 -23,-5 10,-12 8,-3 8,3 h 12 l 8,-8 8,-5 5,-3 h 7 18 l 18,5 13,8 z"
   id="path171"
   inkscape:connector-curvature="0"
   style="fill:#aa772b;stroke:none" />
        <path
   d="m 10320,15286 -3,-8 v -10 -12 -16 l 3,8 5,10 5,10 5,5 v 5 6 l -3,7 -2,5 -3,-2 -2,-3 z"
   id="path173"
   inkscape:connector-curvature="0"
   style="fill:#aa772b;stroke:none" />
        <path
   d="m 10403,15090 v 16 12 5 3 l -17,5 -3,20 -2,23 v 18 l 2,10 v 13 15 l -2,15 -6,16 -5,-5 -2,-18 -3,-21 v -17 l -2,-16 2,-15 3,-15 7,-18 8,-13 8,-5 5,-10 5,-10 z"
   id="path175"
   inkscape:connector-curvature="0"
   style="fill:#aa772b;stroke:none" />
        <path
   d="m 10281,15284 -2,-26 5,-43 5,-41 10,-28 -2,-5 -3,-2 v -3 -2 l -2,-6 -3,-5 -3,-5 -2,-7 -3,-5 -2,-3 -5,3 v 7 l 2,8 3,2 2,3 v 5 h -5 l -5,3 -2,2 -3,3 -2,10 -3,12 v 13 5 l 18,-5 -5,23 -3,33 v 33 l 10,33 z"
   id="path177"
   inkscape:connector-curvature="0"
   style="fill:#aa772b;stroke:none" />
        <path
   d="m 10325,15134 -3,5 v 7 l -2,10 v 13 l 5,-13 5,-15 2,-13 5,-7 5,-5 3,-8 v -5 -8 l -3,-5 -2,-2 h -5 l -3,5 -2,10 -3,10 -2,13 z"
   id="path179"
   inkscape:connector-curvature="0"
   style="fill:#aa772b;stroke:none" />
        <path
   d="m 10388,15095 -13,3 -12,8 -13,15 -8,18 -2,10 -3,10 -2,15 -3,15 -2,23 v 23 l 5,18 5,10 15,8 10,-3 5,-5 v -7 l -2,-18 -3,-21 v -17 l -2,-16 2,-15 3,-15 7,-18 8,-13 5,-7 3,-8 v -8 z"
   id="path181"
   inkscape:connector-curvature="0"
   style="fill:#f7efd8;stroke:none" />
        <path
   d="m 10325,15134 -3,5 v 7 l -2,10 v 13 l -3,15 -3,21 v 17 l 3,18 v 16 12 10 l 3,8 -6,13 h -10 l -12,-5 -11,-10 -2,-26 5,-43 5,-41 10,-28 10,-12 8,-6 h 3 z"
   id="path183"
   inkscape:connector-curvature="0"
   style="fill:#f7efd8;stroke:none" />
        <path
   d="m 10963,15045 5,-11 2,-10 3,-13 2,-15 3,-18 v -15 l -5,-13 -5,-12 -10,-13 -13,-8 -18,-5 h -18 l 13,3 15,7 10,13 11,13 7,25 3,26 -3,25 z"
   id="path185"
   inkscape:connector-curvature="0"
   style="fill:#f7efd8;stroke:none" />
       </g>
      </g>
     </g>
    </g>
   </g>
  </g>
 </g>
</svg>