<?xml version="1.0" encoding="UTF-8" standalone="no"?>
<svg
   xmlns:ooo="http://xml.openoffice.org/svg/export"
   xmlns:dc="http://purl.org/dc/elements/1.1/"
   xmlns:cc="http://creativecommons.org/ns#"
   xmlns:rdf="http://www.w3.org/1999/02/22-rdf-syntax-ns#"
   xmlns:svg="http://www.w3.org/2000/svg"
   xmlns="http://www.w3.org/2000/svg"
   xmlns:sodipodi="http://sodipodi.sourceforge.net/DTD/sodipodi-0.dtd"
   xmlns:inkscape="http://www.inkscape.org/namespaces/inkscape"
   version="1.2"
   width="24.709999mm"
   height="24.77mm"
   viewBox="0 0 2470.9999 2477"
   preserveAspectRatio="xMidYMid"
   xml:space="preserve"
   id="svg181"
   sodipodi:docname="mailslot.svg"
   style="fill-rule:evenodd;stroke-width:28.22200012;stroke-linejoin:round"
   inkscape:version="0.92.5 (2060ec1f9f, 2020-04-08)"><metadata
   id="metadata185"><rdf:RDF><cc:Work
       rdf:about=""><dc:format>image/svg+xml</dc:format><dc:type
         rdf:resource="http://purl.org/dc/dcmitype/StillImage" /></cc:Work></rdf:RDF></metadata><sodipodi:namedview
   pagecolor="#ffffff"
   bordercolor="#666666"
   borderopacity="1"
   objecttolerance="10"
   gridtolerance="10"
   guidetolerance="10"
   inkscape:pageopacity="0"
   inkscape:pageshadow="2"
   inkscape:window-width="664"
   inkscape:window-height="487"
   id="namedview183"
   showgrid="false"
   inkscape:zoom="0.2102413"
   inkscape:cx="46.714962"
   inkscape:cy="46.79055"
   inkscape:window-x="0"
   inkscape:window-y="0"
   inkscape:window-maximized="0"
   inkscape:current-layer="svg181" />
 <defs
   class="ClipPathGroup"
   id="defs8">
  <clipPath
   id="presentation_clip_path"
   clipPathUnits="userSpaceOnUse">
   <rect
   x="0"
   y="0"
   width="21000"
   height="29700"
   id="rect2" />
  </clipPath>
  <clipPath
   id="presentation_clip_path_shrink"
   clipPathUnits="userSpaceOnUse">
   <rect
   x="21"
   y="29"
   width="20958"
   height="29641"
   id="rect5" />
  </clipPath>
 </defs>
 <defs
   class="TextShapeIndex"
   id="defs12">
  <g
   ooo:slide="id1"
   ooo:id-list="id3"
   id="g10" />
 </defs>
 <defs
   class="EmbeddedBulletChars"
   id="defs44">
  <g
   id="bullet-char-template-57356"
   transform="matrix(4.8828125e-4,0,0,-4.8828125e-4,0,0)">
   <path
   d="M 580,1141 1163,571 580,0 -4,571 Z"
   id="path14"
   inkscape:connector-curvature="0" />
  </g>
  <g
   id="bullet-char-template-57354"
   transform="matrix(4.8828125e-4,0,0,-4.8828125e-4,0,0)">
   <path
   d="M 8,1128 H 1137 V 0 H 8 Z"
   id="path17"
   inkscape:connector-curvature="0" />
  </g>
  <g
   id="bullet-char-template-10146"
   transform="matrix(4.8828125e-4,0,0,-4.8828125e-4,0,0)">
   <path
   d="M 174,0 602,739 174,1481 1456,739 Z M 1358,739 309,1346 659,739 Z"
   id="path20"
   inkscape:connector-curvature="0" />
  </g>
  <g
   id="bullet-char-template-10132"
   transform="matrix(4.8828125e-4,0,0,-4.8828125e-4,0,0)">
   <path
   d="M 2015,739 1276,0 H 717 l 543,543 H 174 v 393 h 1086 l -543,545 h 557 z"
   id="path23"
   inkscape:connector-curvature="0" />
  </g>
  <g
   id="bullet-char-template-10007"
   transform="matrix(4.8828125e-4,0,0,-4.8828125e-4,0,0)">
   <path
   d="m 0,-2 c -7,16 -16,29 -25,39 l 381,530 c -94,256 -141,385 -141,387 0,25 13,38 40,38 9,0 21,-2 34,-5 21,4 42,12 65,25 l 27,-13 111,-251 280,301 64,-25 24,25 c 21,-10 41,-24 62,-43 C 886,937 835,863 770,784 769,783 710,716 594,584 L 774,223 c 0,-27 -21,-55 -63,-84 l 16,-20 C 717,90 699,76 672,76 641,76 570,178 457,381 L 164,-76 c -22,-34 -53,-51 -92,-51 -42,0 -63,17 -64,51 -7,9 -10,24 -10,44 0,9 1,19 2,30 z"
   id="path26"
   inkscape:connector-curvature="0" />
  </g>
  <g
   id="bullet-char-template-10004"
   transform="matrix(4.8828125e-4,0,0,-4.8828125e-4,0,0)">
   <path
   d="M 285,-33 C 182,-33 111,30 74,156 52,228 41,333 41,471 c 0,78 14,145 41,201 34,71 87,106 158,106 53,0 88,-31 106,-94 l 23,-176 c 8,-64 28,-97 59,-98 l 735,706 c 11,11 33,17 66,17 42,0 63,-15 63,-46 V 965 c 0,-36 -10,-64 -30,-84 L 442,47 C 390,-6 338,-33 285,-33 Z"
   id="path29"
   inkscape:connector-curvature="0" />
  </g>
  <g
   id="bullet-char-template-9679"
   transform="matrix(4.8828125e-4,0,0,-4.8828125e-4,0,0)">
   <path
   d="M 813,0 C 632,0 489,54 383,161 276,268 223,411 223,592 c 0,181 53,324 160,431 106,107 249,161 430,161 179,0 323,-54 432,-161 108,-107 162,-251 162,-431 0,-180 -54,-324 -162,-431 C 1136,54 992,0 813,0 Z"
   id="path32"
   inkscape:connector-curvature="0" />
  </g>
  <g
   id="bullet-char-template-8226"
   transform="matrix(4.8828125e-4,0,0,-4.8828125e-4,0,0)">
   <path
   d="m 346,457 c -73,0 -137,26 -191,78 -54,51 -81,114 -81,188 0,73 27,136 81,188 54,52 118,78 191,78 73,0 134,-26 185,-79 51,-51 77,-114 77,-187 0,-75 -25,-137 -76,-188 -50,-52 -112,-78 -186,-78 z"
   id="path35"
   inkscape:connector-curvature="0" />
  </g>
  <g
   id="bullet-char-template-8211"
   transform="matrix(4.8828125e-4,0,0,-4.8828125e-4,0,0)">
   <path
   d="M -4,459 H 1135 V 606 H -4 Z"
   id="path38"
   inkscape:connector-curvature="0" />
  </g>
  <g
   id="bullet-char-template-61548"
   transform="matrix(4.8828125e-4,0,0,-4.8828125e-4,0,0)">
   <path
   d="m 173,740 c 0,163 58,303 173,419 116,115 255,173 419,173 163,0 302,-58 418,-173 116,-116 174,-256 174,-419 0,-163 -58,-303 -174,-418 C 1067,206 928,148 765,148 601,148 462,206 346,322 231,437 173,577 173,740 Z"
   id="path41"
   inkscape:connector-curvature="0" />
  </g>
 </defs>
 <g
   id="g49"
   transform="translate(-9264,-13611)">
  <g
   id="id2"
   class="Master_Slide">
   <g
   id="bg-id2"
   class="Background" />
   <g
   id="bo-id2"
   class="BackgroundObjects" />
  </g>
 </g>
 <g
   class="SlideGroup"
   id="g179"
   transform="translate(-9264,-13611)">
  <g
   id="g177">
   <g
   id="container-id1">
    <g
   id="id1"
   class="Slide"
   clip-path="url(#presentation_clip_path)">
     <g
   class="Page"
   id="g173">
      <g
   class="Graphic"
   id="g171">
       <g
   id="id3">
        <rect
   class="BoundingBox"
   x="9264"
   y="13611"
   width="2471"
   height="2477"
   id="rect51"
   style="fill:none;stroke:none" />
        <defs
   id="defs56">
         <clipPath
   id="clip_path_1"
   clipPathUnits="userSpaceOnUse">
          <path
   d="m 9264,13611 h 2470 v 2476 H 9264 Z"
   id="path53"
   inkscape:connector-curvature="0" />
         </clipPath>
        </defs>
        <g
   clip-path="url(#clip_path_1)"
   id="g168">
         <path
   d="M 11321,16088 H 9678 l -40,-3 -44,-5 -38,-12 -38,-13 -35,-18 -36,-20 -30,-26 -31,-28 -25,-28 -26,-33 -20,-35 -18,-36 -15,-38 -10,-38 -5,-41 -3,-43 v -1643 l 3,-43 5,-41 10,-38 15,-38 18,-36 20,-35 26,-33 25,-28 31,-28 30,-26 36,-20 35,-18 38,-13 38,-12 44,-5 40,-3 h 1643 l 40,3 44,5 38,12 38,13 35,18 36,20 30,26 31,28 25,28 26,33 20,35 18,36 15,38 10,38 5,41 3,43 v 1643 l -3,43 -5,41 -10,38 -15,38 -18,36 -20,35 -26,33 -25,28 -31,28 -30,26 -36,20 -35,18 -38,13 -38,12 -44,5 z"
   id="path58"
   inkscape:connector-curvature="0"
   style="fill:#000000;stroke:none" />
         <path
   d="M 11453,14895 H 9493 v -618 h 1960 z"
   id="path60"
   inkscape:connector-curvature="0"
   style="fill:#ffffff;stroke:none" />
         <path
   d="M 11346,14791 H 9602 v -415 h 1744 z"
   id="path62"
   inkscape:connector-curvature="0"
   style="fill:#ffffff;stroke:none" />
         <path
   d="m 9567,14341 v 486 h 1815 v -486 z"
   id="path64"
   inkscape:connector-curvature="0"
   style="fill:#000000;stroke:none" />
         <path
   d="M 11310,14755 H 9638 v -343 h 1672 z"
   id="path66"
   inkscape:connector-curvature="0"
   style="fill:#000000;stroke:none" />
         <path
   d="M 11206,14666 H 9739 v -139 h 1467 z"
   id="path68"
   inkscape:connector-curvature="0"
   style="fill:#000000;stroke:none" />
         <path
   d="m 9808,14593 h 142 l 130,-3 117,-2 h 109 l 99,-3 89,-3 82,-2 h 73 67 61 l 53,2 46,6 43,7 41,8 33,13 33,12 28,18 28,23 25,25 26,28 25,33 25,39 28,40 28,49 31,53 33,58 35,64 41,69 46,76 48,84 56,91 64,97 h -1315 l -5,-69 -23,-86 -38,-102 -48,-107 -53,-104 -54,-96 -46,-82 -35,-58 -10,-13 -18,-25 -23,-31 -28,-33 -28,-31 -25,-25 -21,-18 z"
   id="path70"
   inkscape:connector-curvature="0"
   style="fill:#ffffff;stroke:none" />
         <path
   d="m 10047,14954 -20,-36 -18,-33 -23,-35 -20,-34 -23,-33 -23,-33 -23,-33 -25,-30 -54,-51 -20,-13 7,3 6,-66 35,10 41,35 46,51 45,61 44,64 38,61 30,51 18,30 z"
   id="path72"
   inkscape:connector-curvature="0"
   style="fill:#000000;stroke:none" />
         <path
   d="m 10278,15511 -15,2 -13,-10 -7,-15 2,-13 33,36 -33,-36 -2,-46 -16,-63 -27,-77 -31,-81 -36,-81 -35,-74 -31,-59 -20,-40 61,-31 25,46 31,64 36,76 35,81 33,84 26,79 15,69 2,53 -33,-35 z"
   id="path74"
   inkscape:connector-curvature="0"
   style="fill:#000000;stroke:none" />
         <path
   d="m 11623,15460 28,48 -58,3 30,-51 -30,51 h -1315 v -71 h 1315 l -31,50 z"
   id="path76"
   inkscape:connector-curvature="0"
   style="fill:#000000;stroke:none" />
         <path
   d="m 11282,14867 44,74 40,74 44,76 40,74 41,76 43,74 43,74 46,71 -61,30 -46,-71 -40,-74 -44,-73 -40,-74 -41,-74 -41,-76 -40,-74 -43,-71 z"
   id="path78"
   inkscape:connector-curvature="0"
   style="fill:#000000;stroke:none" />
         <path
   d="m 10944,14557 8,3 v -3 l 10,3 13,7 10,5 46,26 46,28 40,33 38,38 36,38 33,43 31,44 27,45 -55,36 -18,-28 -21,-28 -20,-28 -20,-28 -23,-25 -23,-26 -25,-23 -26,-23 -74,-50 -10,-6 -15,-7 -10,-5 2,2 z"
   id="path80"
   inkscape:connector-curvature="0"
   style="fill:#000000;stroke:none" />
         <path
   d="m 9805,14626 3,-69 h 1136 v 71 H 9808 l 3,-68 z"
   id="path82"
   inkscape:connector-curvature="0"
   style="fill:#000000;stroke:none" />
         <path
   d="m 11234,15350 -79,-152 135,-10 76,155 z"
   id="path84"
   inkscape:connector-curvature="0"
   style="fill:#000000;stroke:none" />
         <path
   d="m 11290,15188 10,20 8,-10 z"
   id="path86"
   inkscape:connector-curvature="0"
   style="fill:#000000;stroke:none" />
         <path
   d="m 11308,15228 10,16 10,-10 z"
   id="path88"
   inkscape:connector-curvature="0"
   style="fill:#000000;stroke:none" />
         <path
   d="m 11328,15264 10,23 11,-13 z"
   id="path90"
   inkscape:connector-curvature="0"
   style="fill:#000000;stroke:none" />
         <path
   d="m 11349,15302 5,23 12,-10 z"
   id="path92"
   inkscape:connector-curvature="0"
   style="fill:#000000;stroke:none" />
         <path
   d="m 11194,15274 10,21 -18,-8 z"
   id="path94"
   inkscape:connector-curvature="0"
   style="fill:#000000;stroke:none" />
         <path
   d="m 11211,15310 10,20 -17,-10 z"
   id="path96"
   inkscape:connector-curvature="0"
   style="fill:#000000;stroke:none" />
         <path
   d="m 11176,15234 10,20 -20,-10 z"
   id="path98"
   inkscape:connector-curvature="0"
   style="fill:#000000;stroke:none" />
         <path
   d="m 11155,15198 11,18 -18,-10 z"
   id="path100"
   inkscape:connector-curvature="0"
   style="fill:#000000;stroke:none" />
         <path
   d="m 11366,15343 -28,2 21,8 z"
   id="path102"
   inkscape:connector-curvature="0"
   style="fill:#000000;stroke:none" />
         <path
   d="m 11310,15345 -25,3 20,10 z"
   id="path104"
   inkscape:connector-curvature="0"
   style="fill:#000000;stroke:none" />
         <path
   d="m 11262,15348 -30,2 17,11 z"
   id="path106"
   inkscape:connector-curvature="0"
   style="fill:#000000;stroke:none" />
         <path
   d="m 11290,15188 h -25 l 7,-10 z"
   id="path108"
   inkscape:connector-curvature="0"
   style="fill:#000000;stroke:none" />
         <path
   d="m 11237,15190 h -28 l 10,-10 z"
   id="path110"
   inkscape:connector-curvature="0"
   style="fill:#000000;stroke:none" />
         <path
   d="m 11181,15195 h -26 l 8,-10 z"
   id="path112"
   inkscape:connector-curvature="0"
   style="fill:#000000;stroke:none" />
         <path
   d="m 10632,14862 17,-2 11,2 10,8 7,7 8,8 8,13 10,15 13,20 10,23 12,23 11,21 10,17 5,16 2,10 6,18 2,15 -2,7 -13,-10 -10,-23 -8,-25 -10,-20 -20,-31 -16,-28 -12,-28 -16,-33 -5,-5 -2,-8 -5,-5 -6,-2 -7,-3 h -5 -3 z"
   id="path114"
   inkscape:connector-curvature="0"
   style="fill:#000000;stroke:none" />
         <path
   d="m 10711,14855 20,-3 7,3 11,7 10,8 7,7 16,26 17,36 18,35 16,31 5,15 10,28 5,23 -3,5 -17,-23 -18,-25 -18,-31 -15,-31 -16,-30 -17,-31 -18,-28 z"
   id="path116"
   inkscape:connector-curvature="0"
   style="fill:#000000;stroke:none" />
         <path
   d="m 10464,14865 15,-5 10,2 13,5 10,10 8,8 13,18 10,15 10,18 10,18 10,20 8,18 7,20 8,21 3,10 5,18 2,17 -2,8 -16,-8 -5,-20 -5,-25 -5,-18 -10,-15 -8,-18 -10,-18 -10,-20 -10,-18 -10,-18 -8,-15 -10,-13 -18,-15 h -5 l -5,2 h -3 z"
   id="path118"
   inkscape:connector-curvature="0"
   style="fill:#000000;stroke:none" />
         <path
   d="m 10543,14855 h 18 l 10,2 12,8 8,7 8,11 17,28 16,33 17,33 18,30 8,15 8,26 5,23 -3,7 -10,-10 -13,-20 -15,-28 -18,-33 -15,-33 -15,-31 -11,-25 -7,-15 -10,-8 -13,-8 -10,-5 z"
   id="path120"
   inkscape:connector-curvature="0"
   style="fill:#000000;stroke:none" />
         <path
   d="m 11023,14903 23,25 18,26 13,25 12,23 13,26 13,25 18,28 20,28 v 8 l -15,-3 -18,-13 -15,-20 -8,-33 -5,-33 -5,-33 -10,-31 -36,-38 -13,-8 z"
   id="path122"
   inkscape:connector-curvature="0"
   style="fill:#000000;stroke:none" />
         <path
   d="m 11099,14895 21,21 18,25 15,23 15,28 15,28 16,25 12,28 16,28 v 8 h -13 l -20,-15 -18,-31 -10,-30 v -31 l -3,-30 -13,-31 -33,-36 -12,-7 z"
   id="path124"
   inkscape:connector-curvature="0"
   style="fill:#000000;stroke:none" />
         <path
   d="m 11234,15350 -79,-152 135,-10 76,155 z"
   id="path126"
   inkscape:connector-curvature="0"
   style="fill:#000000;stroke:none" />
         <path
   d="m 11290,15188 10,20 8,-10 z"
   id="path128"
   inkscape:connector-curvature="0"
   style="fill:#000000;stroke:none" />
         <path
   d="m 11308,15228 10,16 10,-10 z"
   id="path130"
   inkscape:connector-curvature="0"
   style="fill:#000000;stroke:none" />
         <path
   d="m 11328,15264 10,23 11,-13 z"
   id="path132"
   inkscape:connector-curvature="0"
   style="fill:#000000;stroke:none" />
         <path
   d="m 11349,15302 5,23 12,-10 z"
   id="path134"
   inkscape:connector-curvature="0"
   style="fill:#000000;stroke:none" />
         <path
   d="m 11194,15274 10,21 -18,-8 z"
   id="path136"
   inkscape:connector-curvature="0"
   style="fill:#000000;stroke:none" />
         <path
   d="m 11211,15310 10,20 -17,-10 z"
   id="path138"
   inkscape:connector-curvature="0"
   style="fill:#000000;stroke:none" />
         <path
   d="m 11176,15234 10,20 -20,-10 z"
   id="path140"
   inkscape:connector-curvature="0"
   style="fill:#000000;stroke:none" />
         <path
   d="m 11155,15198 11,18 -18,-10 z"
   id="path142"
   inkscape:connector-curvature="0"
   style="fill:#000000;stroke:none" />
         <path
   d="m 11366,15343 -28,2 21,8 z"
   id="path144"
   inkscape:connector-curvature="0"
   style="fill:#000000;stroke:none" />
         <path
   d="m 11310,15345 -25,3 20,10 z"
   id="path146"
   inkscape:connector-curvature="0"
   style="fill:#000000;stroke:none" />
         <path
   d="m 11262,15348 -30,2 17,11 z"
   id="path148"
   inkscape:connector-curvature="0"
   style="fill:#000000;stroke:none" />
         <path
   d="m 11290,15188 h -25 l 7,-10 z"
   id="path150"
   inkscape:connector-curvature="0"
   style="fill:#000000;stroke:none" />
         <path
   d="m 11237,15190 h -28 l 10,-10 z"
   id="path152"
   inkscape:connector-curvature="0"
   style="fill:#000000;stroke:none" />
         <path
   d="m 11181,15195 h -26 l 8,-10 z"
   id="path154"
   inkscape:connector-curvature="0"
   style="fill:#000000;stroke:none" />
         <path
   d="m 10632,14862 17,-2 11,2 10,8 7,7 8,8 8,13 10,15 13,20 10,23 12,23 11,21 10,17 5,16 2,10 6,18 2,15 -2,7 -13,-10 -10,-23 -8,-25 -10,-20 -20,-31 -16,-28 -12,-28 -16,-33 -5,-5 -2,-8 -5,-5 -6,-2 -7,-3 h -5 -3 z"
   id="path156"
   inkscape:connector-curvature="0"
   style="fill:#000000;stroke:none" />
         <path
   d="m 10711,14855 20,-3 7,3 11,7 10,8 7,7 16,26 17,36 18,35 16,31 5,15 10,28 5,23 -3,5 -17,-23 -18,-25 -18,-31 -15,-31 -16,-30 -17,-31 -18,-28 z"
   id="path158"
   inkscape:connector-curvature="0"
   style="fill:#000000;stroke:none" />
         <path
   d="m 10464,14865 15,-5 10,2 13,5 10,10 8,8 13,18 10,15 10,18 10,18 10,20 8,18 7,20 8,21 3,10 5,18 2,17 -2,8 -16,-8 -5,-20 -5,-25 -5,-18 -10,-15 -8,-18 -10,-18 -10,-20 -10,-18 -10,-18 -8,-15 -10,-13 -18,-15 h -5 l -5,2 h -3 z"
   id="path160"
   inkscape:connector-curvature="0"
   style="fill:#000000;stroke:none" />
         <path
   d="m 10543,14855 h 18 l 10,2 12,8 8,7 8,11 17,28 16,33 17,33 18,30 8,15 8,26 5,23 -3,7 -10,-10 -13,-20 -15,-28 -18,-33 -15,-33 -15,-31 -11,-25 -7,-15 -10,-8 -13,-8 -10,-5 z"
   id="path162"
   inkscape:connector-curvature="0"
   style="fill:#000000;stroke:none" />
         <path
   d="m 11023,14903 23,25 18,26 13,25 12,23 13,26 13,25 18,28 20,28 v 8 l -15,-3 -18,-13 -15,-20 -8,-33 -5,-33 -5,-33 -10,-31 -36,-38 -13,-8 z"
   id="path164"
   inkscape:connector-curvature="0"
   style="fill:#000000;stroke:none" />
         <path
   d="m 11099,14895 21,21 18,25 15,23 15,28 15,28 16,25 12,28 16,28 v 8 h -13 l -20,-15 -18,-31 -10,-30 v -31 l -3,-30 -13,-31 -33,-36 -12,-7 z"
   id="path166"
   inkscape:connector-curvature="0"
   style="fill:#000000;stroke:none" />
        </g>
       </g>
      </g>
     </g>
    </g>
   </g>
  </g>
 </g>
</svg>