<?xml version="1.0" encoding="UTF-8" standalone="no"?>
<svg
   xmlns:ooo="http://xml.openoffice.org/svg/export"
   xmlns:dc="http://purl.org/dc/elements/1.1/"
   xmlns:cc="http://creativecommons.org/ns#"
   xmlns:rdf="http://www.w3.org/1999/02/22-rdf-syntax-ns#"
   xmlns:svg="http://www.w3.org/2000/svg"
   xmlns="http://www.w3.org/2000/svg"
   xmlns:sodipodi="http://sodipodi.sourceforge.net/DTD/sodipodi-0.dtd"
   xmlns:inkscape="http://www.inkscape.org/namespaces/inkscape"
   version="1.2"
   width="12.14mm"
   height="22.5mm"
   viewBox="0 0 1214 2250"
   preserveAspectRatio="xMidYMid"
   xml:space="preserve"
   id="svg261"
   sodipodi:docname="mailcrry.svg"
   style="fill-rule:evenodd;stroke-width:28.22200012;stroke-linejoin:round"
   inkscape:version="0.92.5 (2060ec1f9f, 2020-04-08)"><metadata
   id="metadata265"><rdf:RDF><cc:Work
       rdf:about=""><dc:format>image/svg+xml</dc:format><dc:type
         rdf:resource="http://purl.org/dc/dcmitype/StillImage" /></cc:Work></rdf:RDF></metadata><sodipodi:namedview
   pagecolor="#ffffff"
   bordercolor="#666666"
   borderopacity="1"
   objecttolerance="10"
   gridtolerance="10"
   guidetolerance="10"
   inkscape:pageopacity="0"
   inkscape:pageshadow="2"
   inkscape:window-width="664"
   inkscape:window-height="487"
   id="namedview263"
   showgrid="false"
   inkscape:zoom="0.2102413"
   inkscape:cx="22.941733"
   inkscape:cy="42.519683"
   inkscape:window-x="0"
   inkscape:window-y="0"
   inkscape:window-maximized="0"
   inkscape:current-layer="svg261" />
 <defs
   class="ClipPathGroup"
   id="defs8">
  <clipPath
   id="presentation_clip_path"
   clipPathUnits="userSpaceOnUse">
   <rect
   x="0"
   y="0"
   width="21000"
   height="29700"
   id="rect2" />
  </clipPath>
  <clipPath
   id="presentation_clip_path_shrink"
   clipPathUnits="userSpaceOnUse">
   <rect
   x="21"
   y="29"
   width="20958"
   height="29641"
   id="rect5" />
  </clipPath>
 </defs>
 <defs
   class="TextShapeIndex"
   id="defs12">
  <g
   ooo:slide="id1"
   ooo:id-list="id3"
   id="g10" />
 </defs>
 <defs
   class="EmbeddedBulletChars"
   id="defs44">
  <g
   id="bullet-char-template-57356"
   transform="matrix(4.8828125e-4,0,0,-4.8828125e-4,0,0)">
   <path
   d="M 580,1141 1163,571 580,0 -4,571 Z"
   id="path14"
   inkscape:connector-curvature="0" />
  </g>
  <g
   id="bullet-char-template-57354"
   transform="matrix(4.8828125e-4,0,0,-4.8828125e-4,0,0)">
   <path
   d="M 8,1128 H 1137 V 0 H 8 Z"
   id="path17"
   inkscape:connector-curvature="0" />
  </g>
  <g
   id="bullet-char-template-10146"
   transform="matrix(4.8828125e-4,0,0,-4.8828125e-4,0,0)">
   <path
   d="M 174,0 602,739 174,1481 1456,739 Z M 1358,739 309,1346 659,739 Z"
   id="path20"
   inkscape:connector-curvature="0" />
  </g>
  <g
   id="bullet-char-template-10132"
   transform="matrix(4.8828125e-4,0,0,-4.8828125e-4,0,0)">
   <path
   d="M 2015,739 1276,0 H 717 l 543,543 H 174 v 393 h 1086 l -543,545 h 557 z"
   id="path23"
   inkscape:connector-curvature="0" />
  </g>
  <g
   id="bullet-char-template-10007"
   transform="matrix(4.8828125e-4,0,0,-4.8828125e-4,0,0)">
   <path
   d="m 0,-2 c -7,16 -16,29 -25,39 l 381,530 c -94,256 -141,385 -141,387 0,25 13,38 40,38 9,0 21,-2 34,-5 21,4 42,12 65,25 l 27,-13 111,-251 280,301 64,-25 24,25 c 21,-10 41,-24 62,-43 C 886,937 835,863 770,784 769,783 710,716 594,584 L 774,223 c 0,-27 -21,-55 -63,-84 l 16,-20 C 717,90 699,76 672,76 641,76 570,178 457,381 L 164,-76 c -22,-34 -53,-51 -92,-51 -42,0 -63,17 -64,51 -7,9 -10,24 -10,44 0,9 1,19 2,30 z"
   id="path26"
   inkscape:connector-curvature="0" />
  </g>
  <g
   id="bullet-char-template-10004"
   transform="matrix(4.8828125e-4,0,0,-4.8828125e-4,0,0)">
   <path
   d="M 285,-33 C 182,-33 111,30 74,156 52,228 41,333 41,471 c 0,78 14,145 41,201 34,71 87,106 158,106 53,0 88,-31 106,-94 l 23,-176 c 8,-64 28,-97 59,-98 l 735,706 c 11,11 33,17 66,17 42,0 63,-15 63,-46 V 965 c 0,-36 -10,-64 -30,-84 L 442,47 C 390,-6 338,-33 285,-33 Z"
   id="path29"
   inkscape:connector-curvature="0" />
  </g>
  <g
   id="bullet-char-template-9679"
   transform="matrix(4.8828125e-4,0,0,-4.8828125e-4,0,0)">
   <path
   d="M 813,0 C 632,0 489,54 383,161 276,268 223,411 223,592 c 0,181 53,324 160,431 106,107 249,161 430,161 179,0 323,-54 432,-161 108,-107 162,-251 162,-431 0,-180 -54,-324 -162,-431 C 1136,54 992,0 813,0 Z"
   id="path32"
   inkscape:connector-curvature="0" />
  </g>
  <g
   id="bullet-char-template-8226"
   transform="matrix(4.8828125e-4,0,0,-4.8828125e-4,0,0)">
   <path
   d="m 346,457 c -73,0 -137,26 -191,78 -54,51 -81,114 -81,188 0,73 27,136 81,188 54,52 118,78 191,78 73,0 134,-26 185,-79 51,-51 77,-114 77,-187 0,-75 -25,-137 -76,-188 -50,-52 -112,-78 -186,-78 z"
   id="path35"
   inkscape:connector-curvature="0" />
  </g>
  <g
   id="bullet-char-template-8211"
   transform="matrix(4.8828125e-4,0,0,-4.8828125e-4,0,0)">
   <path
   d="M -4,459 H 1135 V 606 H -4 Z"
   id="path38"
   inkscape:connector-curvature="0" />
  </g>
  <g
   id="bullet-char-template-61548"
   transform="matrix(4.8828125e-4,0,0,-4.8828125e-4,0,0)">
   <path
   d="m 173,740 c 0,163 58,303 173,419 116,115 255,173 419,173 163,0 302,-58 418,-173 116,-116 174,-256 174,-419 0,-163 -58,-303 -174,-418 C 1067,206 928,148 765,148 601,148 462,206 346,322 231,437 173,577 173,740 Z"
   id="path41"
   inkscape:connector-curvature="0" />
  </g>
 </defs>
 <g
   id="g49"
   transform="translate(-9893,-13725)">
  <g
   id="id2"
   class="Master_Slide">
   <g
   id="bg-id2"
   class="Background" />
   <g
   id="bo-id2"
   class="BackgroundObjects" />
  </g>
 </g>
 <g
   class="SlideGroup"
   id="g259"
   transform="translate(-9893,-13725)">
  <g
   id="g257">
   <g
   id="container-id1">
    <g
   id="id1"
   class="Slide"
   clip-path="url(#presentation_clip_path)">
     <g
   class="Page"
   id="g253">
      <g
   class="Graphic"
   id="g251">
       <g
   id="id3">
        <rect
   class="BoundingBox"
   x="9893"
   y="13725"
   width="1214"
   height="2250"
   id="rect51"
   style="fill:none;stroke:none" />
        <defs
   id="defs56">
         <clipPath
   id="clip_path_1"
   clipPathUnits="userSpaceOnUse">
          <path
   d="m 9893,13725 h 1213 v 2249 H 9893 Z"
   id="path53"
   inkscape:connector-curvature="0" />
         </clipPath>
        </defs>
        <g
   clip-path="url(#clip_path_1)"
   id="g248">
         <path
   d="m 10763,14694 h 8 l 3,-5 v -8 l -5,-3 z"
   id="path58"
   inkscape:connector-curvature="0"
   style="fill:#000000;stroke:none" />
         <path
   d="m 10664,14638 5,12 94,44 6,-16 -95,-43 5,13 -5,-13 h -7 l -3,5 v 5 l 5,5 z"
   id="path60"
   inkscape:connector-curvature="0"
   style="fill:#000000;stroke:none" />
         <path
   d="m 10687,14617 -8,-5 -15,26 15,10 16,-26 z"
   id="path62"
   inkscape:connector-curvature="0"
   style="fill:#000000;stroke:none" />
         <path
   d="m 10695,14622 v -7 l -3,-5 -7,-3 -6,5 z"
   id="path64"
   inkscape:connector-curvature="0"
   style="fill:#000000;stroke:none" />
         <path
   d="m 10440,13954 v 0 l -30,28 -23,20 -10,26 2,15 13,13 20,5 28,-5 33,-13 -5,-15 -33,12 h -23 -15 l -3,-2 -2,-10 10,-16 18,-20 30,-23 v 0 z"
   id="path66"
   inkscape:connector-curvature="0"
   style="fill:#000000;stroke:none" />
         <path
   d="m 10679,13799 v 0 l -239,155 10,15 240,-155 v 0 0 l 5,-5 -3,-8 -5,-2 z"
   id="path68"
   inkscape:connector-curvature="0"
   style="fill:#000000;stroke:none" />
         <path
   d="m 10672,13898 v 15 l 38,-28 31,-30 20,-31 8,-25 -6,-21 -20,-10 -25,8 -39,23 11,15 33,-23 20,-2 h 5 l 5,10 -7,20 -21,25 -25,26 -38,28 v 15 z"
   id="path70"
   inkscape:connector-curvature="0"
   style="fill:#000000;stroke:none" />
         <path
   d="m 10814,14020 5,-18 -147,-104 -10,15 147,104 5,-17 -5,17 h 8 l 5,-5 2,-5 -5,-5 z"
   id="path72"
   inkscape:connector-curvature="0"
   style="fill:#000000;stroke:none" />
         <path
   d="m 10685,14005 v 0 l 12,5 21,2 20,5 h 23 20 l 16,3 h 12 5 v -20 h -5 -12 l -16,2 -20,-5 h -23 -20 l -16,-3 -7,-5 v 0 z"
   id="path74"
   inkscape:connector-curvature="0"
   style="fill:#000000;stroke:none" />
         <path
   d="m 10476,14091 h 2 l 11,-10 22,-13 34,-18 38,-15 38,-15 33,-10 23,-5 h 8 l 10,-16 h -18 l -28,5 -33,11 -38,15 -39,15 -33,18 -28,13 -15,15 h 3 z"
   id="path76"
   inkscape:connector-curvature="0"
   style="fill:#000000;stroke:none" />
         <path
   d="m 10473,14043 -10,-10 -2,12 -6,23 v 23 h 21 l -10,-10 5,5 v -18 l 5,-23 2,-7 -10,-10 10,10 v -8 l -5,-2 h -5 l -5,5 z"
   id="path78"
   inkscape:connector-curvature="0"
   style="fill:#000000;stroke:none" />
         <path
   d="m 10774,14012 -5,-5 -6,3 -5,5 v 7 z"
   id="path80"
   inkscape:connector-curvature="0"
   style="fill:#000000;stroke:none" />
         <path
   d="m 10702,14071 v 0 l 13,-3 13,-2 15,-3 13,-5 13,-5 7,-13 v -12 l -2,-16 -16,10 3,6 v 7 l -3,3 -7,5 -13,5 -10,2 -13,3 -13,-3 v 0 z"
   id="path82"
   inkscape:connector-curvature="0"
   style="fill:#000000;stroke:none" />
         <path
   d="m 10606,14101 v 0 l 7,-7 13,-8 10,-8 15,-5 11,-2 15,-3 13,3 h 12 v -21 h -12 l -13,3 -15,3 -16,2 -15,5 -15,8 -13,7 -13,13 v 0 z"
   id="path84"
   inkscape:connector-curvature="0"
   style="fill:#000000;stroke:none" />
         <path
   d="m 10532,14211 v 0 l 28,-21 20,-33 15,-33 11,-23 -16,-10 -10,28 -15,33 -20,28 -13,15 v 0 z"
   id="path86"
   inkscape:connector-curvature="0"
   style="fill:#000000;stroke:none" />
         <path
   d="m 10489,14259 v 0 l 2,-23 8,-15 15,-5 18,-5 v -16 l -23,5 -20,11 -13,20 -3,28 v 0 z"
   id="path88"
   inkscape:connector-curvature="0"
   style="fill:#000000;stroke:none" />
         <path
   d="m 10443,14376 v 0 l 20,-20 15,-31 11,-33 v -33 h -16 v 33 l -10,28 -15,25 -15,21 v 0 z"
   id="path90"
   inkscape:connector-curvature="0"
   style="fill:#000000;stroke:none" />
         <path
   d="m 10310,14353 v -3 l -10,16 8,15 13,13 20,7 23,8 23,-5 28,-8 28,-20 -10,-10 -23,15 -23,8 h -23 l -18,-3 -15,-8 -8,-7 -2,-5 v 0 -3 z"
   id="path92"
   inkscape:connector-curvature="0"
   style="fill:#000000;stroke:none" />
         <path
   d="m 10341,14221 v 0 l -13,30 v 33 36 l -18,33 11,10 22,-38 6,-41 -6,-33 8,-15 v 0 z"
   id="path94"
   inkscape:connector-curvature="0"
   style="fill:#000000;stroke:none" />
         <path
   d="m 10407,14175 v 0 3 l -5,5 -5,5 -13,7 -13,8 -10,8 -10,5 -10,5 10,15 5,-5 10,-5 16,-8 12,-7 13,-8 10,-10 5,-10 v -13 0 z"
   id="path96"
   inkscape:connector-curvature="0"
   style="fill:#000000;stroke:none" />
         <path
   d="m 10471,14078 -13,3 -13,5 -15,8 -10,12 -13,16 -5,17 v 16 l 5,20 15,-5 -5,-15 v -16 l 5,-12 8,-10 10,-8 10,-8 13,-5 8,-2 z"
   id="path98"
   inkscape:connector-curvature="0"
   style="fill:#000000;stroke:none" />
         <path
   d="m 10471,14094 5,-3 2,-5 -2,-5 -5,-3 z"
   id="path100"
   inkscape:connector-curvature="0"
   style="fill:#000000;stroke:none" />
         <path
   d="m 10713,14061 -3,-8 -8,-3 -7,3 -3,8 z"
   id="path102"
   inkscape:connector-curvature="0"
   style="fill:#000000;stroke:none" />
         <path
   d="m 10707,14139 v 3 l -5,-10 v -18 l 5,-23 6,-30 h -21 v 30 l -5,23 v 18 l 10,20 v 3 z"
   id="path104"
   inkscape:connector-curvature="0"
   style="fill:#000000;stroke:none" />
         <path
   d="m 10705,14218 -5,5 33,-20 5,-23 -10,-23 -21,-18 -10,16 16,12 10,13 v 13 l -28,15 -5,5 5,-5 -5,3 v 7 l 2,5 h 8 z"
   id="path106"
   inkscape:connector-curvature="0"
   style="fill:#000000;stroke:none" />
         <path
   d="m 10545,14310 38,7 33,-7 25,-10 23,-16 18,-17 10,-21 8,-15 5,-13 -15,-5 -5,13 -8,15 -10,15 -13,13 -18,15 -25,10 -28,3 -38,-3 z"
   id="path108"
   inkscape:connector-curvature="0"
   style="fill:#000000;stroke:none" />
         <path
   d="m 10545,14294 -6,3 -2,5 2,5 6,3 z"
   id="path110"
   inkscape:connector-curvature="0"
   style="fill:#000000;stroke:none" />
         <path
   d="m 10295,14366 5,-3 3,-5 -3,-5 -5,-3 z"
   id="path112"
   inkscape:connector-curvature="0"
   style="fill:#000000;stroke:none" />
         <path
   d="m 10079,14503 v 0 l 15,-28 20,-25 23,-21 28,-20 28,-18 33,-13 33,-7 36,-5 v -16 l -36,6 -38,7 -33,13 -33,18 -28,20 -23,25 -25,26 -15,33 v 0 z"
   id="path114"
   inkscape:connector-curvature="0"
   style="fill:#000000;stroke:none" />
         <path
   d="m 10005,14872 v 0 l -25,-23 -11,-41 5,-51 16,-56 23,-58 25,-54 23,-48 18,-38 -15,-5 -18,38 -23,48 -26,54 -23,58 -15,61 -5,51 10,46 36,33 v 0 z"
   id="path116"
   inkscape:connector-curvature="0"
   style="fill:#000000;stroke:none" />
         <path
   d="m 10231,14828 v 0 l -15,21 -15,18 -23,15 -28,10 -30,8 -39,-3 -35,-8 -41,-17 -5,15 41,18 40,7 39,3 35,-8 28,-10 28,-15 20,-23 16,-26 v 0 z"
   id="path118"
   inkscape:connector-curvature="0"
   style="fill:#000000;stroke:none" />
         <path
   d="m 10313,14645 v 0 l -10,21 -10,17 -8,23 -10,23 -10,23 -11,26 -12,25 -11,25 16,5 10,-25 13,-25 10,-26 10,-23 10,-23 8,-22 10,-18 10,-15 v 0 z"
   id="path120"
   inkscape:connector-curvature="0"
   style="fill:#000000;stroke:none" />
         <path
   d="m 10338,14462 v 0 l 11,33 -3,54 -15,56 -18,40 15,11 18,-46 15,-61 3,-54 -10,-43 v 0 z"
   id="path122"
   inkscape:connector-curvature="0"
   style="fill:#000000;stroke:none" />
         <path
   d="m 10445,14381 v 0 l -48,8 -33,5 -26,7 -15,13 -8,13 8,12 5,13 10,10 16,-10 -11,-10 -5,-8 -2,-7 2,-3 5,-7 21,-8 33,-5 48,-8 v 0 z"
   id="path124"
   inkscape:connector-curvature="0"
   style="fill:#000000;stroke:none" />
         <path
   d="m 10537,14383 8,-10 h -3 -5 -10 -13 l -15,3 -18,2 h -18 l -18,3 v 15 l 18,-2 h 18 l 18,-3 15,3 h 13 10 5 3 l 7,-11 -7,11 7,-3 3,-8 -3,-7 -7,-3 z"
   id="path126"
   inkscape:connector-curvature="0"
   style="fill:#000000;stroke:none" />
         <path
   d="m 10547,14366 -5,-8 -5,25 h 15 l 5,-25 -5,-8 5,8 -2,-5 -5,-3 -5,3 -3,5 z"
   id="path128"
   inkscape:connector-curvature="0"
   style="fill:#000000;stroke:none" />
         <path
   d="m 10476,14356 7,-3 16,3 25,2 23,8 5,-16 -28,-7 -25,-3 -16,-2 -7,-3 z"
   id="path130"
   inkscape:connector-curvature="0"
   style="fill:#000000;stroke:none" />
         <path
   d="m 10476,14335 -8,3 -2,7 2,8 8,3 z"
   id="path132"
   inkscape:connector-curvature="0"
   style="fill:#000000;stroke:none" />
         <path
   d="m 10537,14406 -3,-7 -7,-3 -8,3 -2,7 z"
   id="path134"
   inkscape:connector-curvature="0"
   style="fill:#000000;stroke:none" />
         <path
   d="m 10557,14549 v 0 l -12,-38 -8,-36 v -38 -31 h -20 v 31 l 5,38 7,41 13,38 v 0 z"
   id="path136"
   inkscape:connector-curvature="0"
   style="fill:#000000;stroke:none" />
         <path
   d="m 10618,14706 v 0 l -15,-30 -15,-46 -15,-46 -16,-35 -15,5 15,35 16,46 15,46 15,36 v 0 z"
   id="path138"
   inkscape:connector-curvature="0"
   style="fill:#000000;stroke:none" />
         <path
   d="m 10687,14851 -8,-15 -15,-38 -23,-46 -23,-46 -15,11 23,40 23,46 15,38 8,15 z"
   id="path140"
   inkscape:connector-curvature="0"
   style="fill:#000000;stroke:none" />
         <path
   d="m 10672,14856 5,5 h 5 l 5,-2 v -8 z"
   id="path142"
   inkscape:connector-curvature="0"
   style="fill:#000000;stroke:none" />
         <path
   d="m 10639,14902 v 8 l 5,2 h 7 l 3,-5 z"
   id="path144"
   inkscape:connector-curvature="0"
   style="fill:#000000;stroke:none" />
         <path
   d="m 10761,14785 -23,15 -20,16 -21,15 -15,18 -15,15 -13,13 -10,12 -5,13 15,5 5,-7 10,-13 8,-13 15,-15 15,-13 21,-15 20,-15 23,-16 z"
   id="path146"
   inkscape:connector-curvature="0"
   style="fill:#000000;stroke:none" />
         <path
   d="m 10771,14800 5,-5 -2,-7 -5,-3 h -8 z"
   id="path148"
   inkscape:connector-curvature="0"
   style="fill:#000000;stroke:none" />
         <path
   d="m 10751,14701 v 8 l 5,5 5,3 5,-6 z"
   id="path150"
   inkscape:connector-curvature="0"
   style="fill:#000000;stroke:none" />
         <path
   d="m 10845,14717 v 0 l 18,-23 2,-18 -13,-15 -17,-5 -21,5 -23,7 -22,13 -18,20 15,10 13,-15 18,-13 17,-7 h 21 12 3 l -3,13 -12,17 v 0 z"
   id="path152"
   inkscape:connector-curvature="0"
   style="fill:#000000;stroke:none" />
         <path
   d="m 10883,14762 v 0 l -18,10 -10,-12 -13,-26 3,-17 -10,-11 -8,28 13,36 25,23 33,-21 v 0 z"
   id="path154"
   inkscape:connector-curvature="0"
   style="fill:#000000;stroke:none" />
         <path
   d="m 10998,14694 v 0 l -13,-8 -15,-3 -18,6 -13,10 -13,12 -18,16 -12,17 -13,18 15,10 13,-17 13,-18 12,-15 13,-8 13,-10 8,-5 10,2 2,3 v 0 z"
   id="path156"
   inkscape:connector-curvature="0"
   style="fill:#000000;stroke:none" />
         <path
   d="m 10954,14851 v 0 l 18,-35 18,-44 10,-45 -2,-33 -16,10 3,23 -10,40 -18,44 -18,35 v 0 z"
   id="path158"
   inkscape:connector-curvature="0"
   style="fill:#000000;stroke:none" />
         <path
   d="m 10824,14887 v 0 l 11,-3 17,-2 h 18 l 18,-3 h 18 l 20,-5 16,-7 12,-16 -15,-5 -8,5 -10,8 -15,5 h -18 l -18,3 h -18 l -17,2 -16,3 v 0 z"
   id="path160"
   inkscape:connector-curvature="0"
   style="fill:#000000;stroke:none" />
         <path
   d="m 10733,15014 v 0 l 13,-13 10,-15 13,-20 12,-21 13,-20 13,-18 7,-15 10,-5 -5,-15 -15,10 -13,15 -12,18 -13,20 -13,21 -12,20 -11,15 -7,13 v 0 z"
   id="path162"
   inkscape:connector-curvature="0"
   style="fill:#000000;stroke:none" />
         <path
   d="m 10483,14869 -15,3 41,58 43,43 38,33 41,16 33,7 h 28 l 26,-5 15,-10 -10,-10 -10,5 -21,5 h -28 l -28,-8 -35,-15 -39,-28 -38,-43 -41,-59 -15,3 15,-3 -5,-5 -5,3 -5,5 v 8 z"
   id="path164"
   inkscape:connector-curvature="0"
   style="fill:#000000;stroke:none" />
         <path
   d="m 10422,15139 v 0 l -15,-31 -2,-33 2,-38 10,-33 16,-38 17,-36 18,-30 15,-31 -15,-5 -15,30 -18,31 -18,36 -15,38 -10,38 -8,38 8,38 15,36 v 0 z"
   id="path166"
   inkscape:connector-curvature="0"
   style="fill:#000000;stroke:none" />
         <path
   d="m 10723,15675 v 0 l -8,-38 -25,-56 -41,-76 -51,-87 -53,-86 -51,-82 -41,-66 -31,-45 -15,10 31,45 40,67 51,81 54,86 51,82 40,76 26,56 7,28 v 0 z"
   id="path168"
   inkscape:connector-curvature="0"
   style="fill:#000000;stroke:none" />
         <path
   d="m 10687,15703 -10,13 h 5 l 13,-3 18,-13 10,-25 -16,-5 -10,20 -7,8 -8,2 v 0 l -10,13 10,-13 h -8 l -2,6 v 5 l 5,5 z"
   id="path170"
   inkscape:connector-curvature="0"
   style="fill:#000000;stroke:none" />
         <path
   d="m 10695,15741 h 15 l -23,-38 -15,10 23,38 h 15 -15 l 5,5 7,-2 3,-5 v -8 z"
   id="path172"
   inkscape:connector-curvature="0"
   style="fill:#000000;stroke:none" />
         <path
   d="m 10878,15706 v 0 l 2,-26 -15,-20 h -23 l -28,5 -30,13 -33,17 -28,21 -28,25 15,10 23,-20 28,-20 28,-18 30,-13 23,-5 h 18 l 5,5 -2,20 v 0 z"
   id="path174"
   inkscape:connector-curvature="0"
   style="fill:#000000;stroke:none" />
         <path
   d="m 10802,15802 v 0 l 28,-28 20,-18 13,-12 10,-13 2,-10 v -8 l 3,-5 v -2 l -15,-6 v 8 l -3,5 v 8 l -2,5 -6,7 -12,13 -21,18 -28,23 v 0 z"
   id="path176"
   inkscape:connector-curvature="0"
   style="fill:#000000;stroke:none" />
         <path
   d="m 10593,15815 -13,-8 8,54 20,30 28,13 31,-5 33,-16 33,-22 36,-28 33,-31 -11,-15 -33,30 -35,28 -33,23 -28,15 -26,6 -18,-8 -15,-25 -8,-49 -12,-7 z"
   id="path178"
   inkscape:connector-curvature="0"
   style="fill:#000000;stroke:none" />
         <path
   d="m 10529,15840 13,5 51,-30 -10,-15 -51,30 13,5 -13,-5 -5,5 2,5 5,5 h 8 z"
   id="path180"
   inkscape:connector-curvature="0"
   style="fill:#000000;stroke:none" />
         <path
   d="m 10186,15205 v 0 l 38,53 51,84 58,99 59,112 51,109 46,92 30,63 10,23 16,-5 -11,-23 -30,-63 -46,-92 -51,-109 -58,-112 -59,-104 -51,-84 -43,-54 v 0 z"
   id="path182"
   inkscape:connector-curvature="0"
   style="fill:#000000;stroke:none" />
         <path
   d="m 10097,14905 -11,33 -5,33 v 35 l 11,44 12,40 21,41 25,38 36,36 10,-11 -31,-35 -25,-38 -20,-36 -13,-41 -10,-38 v -35 l 5,-33 10,-23 z"
   id="path184"
   inkscape:connector-curvature="0"
   style="fill:#000000;stroke:none" />
         <path
   d="m 10112,14915 v -8 l -3,-5 -7,-2 -5,5 z"
   id="path186"
   inkscape:connector-curvature="0"
   style="fill:#000000;stroke:none" />
         <path
   d="m 10173,15207 v -7 l -5,-3 h -5 l -5,5 z"
   id="path188"
   inkscape:connector-curvature="0"
   style="fill:#000000;stroke:none" />
         <path
   d="m 10015,15517 3,11 12,-21 18,-33 23,-41 21,-43 22,-48 23,-48 21,-46 15,-41 -15,-5 -16,41 -20,46 -23,48 -23,48 -20,43 -23,41 -18,28 -13,20 3,11 z"
   id="path190"
   inkscape:connector-curvature="0"
   style="fill:#000000;stroke:none" />
         <path
   d="m 10058,15568 v -12 l -43,-39 -10,11 43,38 v -13 13 h 5 l 5,-3 3,-2 -3,-5 z"
   id="path192"
   inkscape:connector-curvature="0"
   style="fill:#000000;stroke:none" />
         <path
   d="m 9990,15695 v 0 l -16,-15 -7,-13 2,-17 13,-18 15,-18 21,-18 20,-15 20,-13 -10,-15 -20,13 -20,15 -21,23 -20,18 -13,22 -2,23 7,23 21,21 v 0 z"
   id="path194"
   inkscape:connector-curvature="0"
   style="fill:#000000;stroke:none" />
         <path
   d="m 10122,15802 v 0 l -15,-13 -10,-12 -13,-16 -15,-10 -16,-12 -17,-13 -23,-15 -23,-16 -10,16 22,15 23,15 18,13 15,13 16,10 12,10 11,13 10,12 v 0 z"
   id="path196"
   inkscape:connector-curvature="0"
   style="fill:#000000;stroke:none" />
         <path
   d="m 10229,15850 v 0 l -8,6 h -15 l -13,-3 -15,-8 -15,-7 -15,-13 -16,-10 -10,-13 -15,10 15,13 15,15 16,13 20,8 15,7 18,3 h 15 l 18,-5 v 0 z"
   id="path198"
   inkscape:connector-curvature="0"
   style="fill:#000000;stroke:none" />
         <path
   d="m 10214,15784 v 0 l 30,13 10,15 -7,21 -18,17 10,16 23,-23 8,-31 -16,-30 -40,-13 v 0 z"
   id="path200"
   inkscape:connector-curvature="0"
   style="fill:#000000;stroke:none" />
         <path
   d="m 10142,15614 -12,8 5,48 10,51 25,43 44,20 v -15 l -33,-15 -21,-38 -10,-46 v -48 l -13,7 z"
   id="path202"
   inkscape:connector-curvature="0"
   style="fill:#000000;stroke:none" />
         <path
   d="m 10186,15639 h 7 l -51,-25 -5,15 51,26 h 8 -8 8 l 2,-5 v -8 l -5,-3 z"
   id="path204"
   inkscape:connector-curvature="0"
   style="fill:#000000;stroke:none" />
         <path
   d="m 10287,15375 v 15 l -5,31 -10,35 -13,44 -17,45 -18,41 -21,33 -17,20 10,16 23,-26 20,-38 18,-41 18,-45 12,-44 11,-40 5,-31 v -20 z"
   id="path206"
   inkscape:connector-curvature="0"
   style="fill:#000000;stroke:none" />
         <path
   d="m 10303,15370 -3,-5 h -7 l -6,2 v 8 z"
   id="path208"
   inkscape:connector-curvature="0"
   style="fill:#000000;stroke:none" />
         <path
   d="m 10578,14513 h -8 l -3,5 v 5 l 6,5 z"
   id="path210"
   inkscape:connector-curvature="0"
   style="fill:#000000;stroke:none" />
         <path
   d="m 10649,14460 v 0 l -10,12 -8,11 -8,12 -12,5 -10,8 -8,5 h -8 -7 l -5,15 12,5 13,-5 13,-5 10,-7 13,-10 12,-13 8,-10 10,-13 v 0 z"
   id="path212"
   inkscape:connector-curvature="0"
   style="fill:#000000;stroke:none" />
         <path
   d="m 10779,14437 v 0 l -18,2 -18,-2 -18,-3 h -15 l -18,3 -18,2 -12,8 -13,13 15,10 8,-8 7,-7 13,-3 18,3 h 15 l 18,-3 18,3 18,2 v 0 z"
   id="path214"
   inkscape:connector-curvature="0"
   style="fill:#000000;stroke:none" />
         <path
   d="m 10812,14516 v 0 l 20,-28 v -26 l -23,-18 -30,-7 v 20 l 25,3 13,7 v 16 l -15,17 v 0 z"
   id="path216"
   inkscape:connector-curvature="0"
   style="fill:#000000;stroke:none" />
         <path
   d="m 10730,14541 v 0 -8 l 3,-2 5,-3 13,3 h 12 l 16,-3 15,-5 18,-7 -10,-16 -13,8 -10,5 -16,-2 h -12 l -13,2 -15,3 -8,12 v 13 0 z"
   id="path218"
   inkscape:connector-curvature="0"
   style="fill:#000000;stroke:none" />
         <path
   d="m 10743,14628 h -2 l 22,-16 -5,-23 -17,-17 -11,-31 h -15 l 10,36 18,23 5,7 -7,5 h -3 z"
   id="path220"
   inkscape:connector-curvature="0"
   style="fill:#000000;stroke:none" />
         <path
   d="m 10669,14594 v 0 l 10,8 13,15 21,13 30,-2 -5,-16 -25,3 -11,-8 -12,-15 -16,-13 v 0 z"
   id="path222"
   inkscape:connector-curvature="0"
   style="fill:#000000;stroke:none" />
         <path
   d="m 10618,14638 5,-8 16,-20 15,-13 15,-3 5,-15 -25,3 -20,18 -21,20 -5,8 z"
   id="path224"
   inkscape:connector-curvature="0"
   style="fill:#000000;stroke:none" />
         <path
   d="m 10603,14628 v 7 l 5,5 5,3 5,-5 z"
   id="path226"
   inkscape:connector-curvature="0"
   style="fill:#000000;stroke:none" />
         <path
   d="m 10817,14439 v 5 l 2,3 3,3 h 5 z"
   id="path228"
   inkscape:connector-curvature="0"
   style="fill:#000000;stroke:none" />
         <path
   d="m 10870,14394 -10,2 -43,43 10,11 43,-44 -10,3 10,-3 3,-5 -3,-5 -5,-2 -5,2 z"
   id="path230"
   inkscape:connector-curvature="0"
   style="fill:#000000;stroke:none" />
         <path
   d="m 11054,14544 -3,-13 -181,-137 -10,15 181,137 -3,-13 3,13 h 7 l 6,-5 2,-5 -5,-5 z"
   id="path232"
   inkscape:connector-curvature="0"
   style="fill:#000000;stroke:none" />
         <path
   d="m 10886,14775 12,-3 156,-228 -16,-11 -155,229 13,-2 -13,2 v 8 l 5,5 5,3 5,-6 z"
   id="path234"
   inkscape:connector-curvature="0"
   style="fill:#000000;stroke:none" />
         <path
   d="m 10840,14737 -5,7 51,31 10,-15 -51,-31 z"
   id="path236"
   inkscape:connector-curvature="0"
   style="fill:#000000;stroke:none" />
         <path
   d="m 10845,14729 h -8 l -5,3 -2,7 5,5 z"
   id="path238"
   inkscape:connector-curvature="0"
   style="fill:#000000;stroke:none" />
         <path
   d="m 10942,14450 h -8 l -3,5 v 5 l 5,5 z"
   id="path240"
   inkscape:connector-curvature="0"
   style="fill:#000000;stroke:none" />
         <path
   d="m 11115,14549 -5,-13 -168,-86 -6,15 168,86 -5,-12 5,12 h 8 l 3,-5 v -7 l -5,-3 z"
   id="path242"
   inkscape:connector-curvature="0"
   style="fill:#000000;stroke:none" />
         <path
   d="m 10990,14699 8,5 117,-155 -16,-10 -117,155 z"
   id="path244"
   inkscape:connector-curvature="0"
   style="fill:#000000;stroke:none" />
         <path
   d="m 10982,14694 v 7 l 5,5 5,3 6,-5 z"
   id="path246"
   inkscape:connector-curvature="0"
   style="fill:#000000;stroke:none" />
        </g>
       </g>
      </g>
     </g>
    </g>
   </g>
  </g>
 </g>
</svg>