<?xml version="1.0" encoding="UTF-8" standalone="no"?>
<svg
   xmlns:ooo="http://xml.openoffice.org/svg/export"
   xmlns:dc="http://purl.org/dc/elements/1.1/"
   xmlns:cc="http://creativecommons.org/ns#"
   xmlns:rdf="http://www.w3.org/1999/02/22-rdf-syntax-ns#"
   xmlns:svg="http://www.w3.org/2000/svg"
   xmlns="http://www.w3.org/2000/svg"
   xmlns:sodipodi="http://sodipodi.sourceforge.net/DTD/sodipodi-0.dtd"
   xmlns:inkscape="http://www.inkscape.org/namespaces/inkscape"
   version="1.2"
   width="18.059999mm"
   height="12.7mm"
   viewBox="0 0 1805.9999 1270"
   preserveAspectRatio="xMidYMid"
   xml:space="preserve"
   id="svg169"
   sodipodi:docname="mansion.svg"
   style="fill-rule:evenodd;stroke-width:28.22200012;stroke-linejoin:round"
   inkscape:version="0.92.5 (2060ec1f9f, 2020-04-08)"><metadata
   id="metadata173"><rdf:RDF><cc:Work
       rdf:about=""><dc:format>image/svg+xml</dc:format><dc:type
         rdf:resource="http://purl.org/dc/dcmitype/StillImage" /></cc:Work></rdf:RDF></metadata><sodipodi:namedview
   pagecolor="#ffffff"
   bordercolor="#666666"
   borderopacity="1"
   objecttolerance="10"
   gridtolerance="10"
   guidetolerance="10"
   inkscape:pageopacity="0"
   inkscape:pageshadow="2"
   inkscape:window-width="664"
   inkscape:window-height="487"
   id="namedview171"
   showgrid="false"
   inkscape:zoom="0.2102413"
   inkscape:cx="34.129135"
   inkscape:cy="23.999998"
   inkscape:window-x="0"
   inkscape:window-y="0"
   inkscape:window-maximized="0"
   inkscape:current-layer="svg169" />
 <defs
   class="ClipPathGroup"
   id="defs8">
  <clipPath
   id="presentation_clip_path"
   clipPathUnits="userSpaceOnUse">
   <rect
   x="0"
   y="0"
   width="21000"
   height="29700"
   id="rect2" />
  </clipPath>
  <clipPath
   id="presentation_clip_path_shrink"
   clipPathUnits="userSpaceOnUse">
   <rect
   x="21"
   y="29"
   width="20958"
   height="29641"
   id="rect5" />
  </clipPath>
 </defs>
 <defs
   class="TextShapeIndex"
   id="defs12">
  <g
   ooo:slide="id1"
   ooo:id-list="id3"
   id="g10" />
 </defs>
 <defs
   class="EmbeddedBulletChars"
   id="defs44">
  <g
   id="bullet-char-template-57356"
   transform="matrix(4.8828125e-4,0,0,-4.8828125e-4,0,0)">
   <path
   d="M 580,1141 1163,571 580,0 -4,571 Z"
   id="path14"
   inkscape:connector-curvature="0" />
  </g>
  <g
   id="bullet-char-template-57354"
   transform="matrix(4.8828125e-4,0,0,-4.8828125e-4,0,0)">
   <path
   d="M 8,1128 H 1137 V 0 H 8 Z"
   id="path17"
   inkscape:connector-curvature="0" />
  </g>
  <g
   id="bullet-char-template-10146"
   transform="matrix(4.8828125e-4,0,0,-4.8828125e-4,0,0)">
   <path
   d="M 174,0 602,739 174,1481 1456,739 Z M 1358,739 309,1346 659,739 Z"
   id="path20"
   inkscape:connector-curvature="0" />
  </g>
  <g
   id="bullet-char-template-10132"
   transform="matrix(4.8828125e-4,0,0,-4.8828125e-4,0,0)">
   <path
   d="M 2015,739 1276,0 H 717 l 543,543 H 174 v 393 h 1086 l -543,545 h 557 z"
   id="path23"
   inkscape:connector-curvature="0" />
  </g>
  <g
   id="bullet-char-template-10007"
   transform="matrix(4.8828125e-4,0,0,-4.8828125e-4,0,0)">
   <path
   d="m 0,-2 c -7,16 -16,29 -25,39 l 381,530 c -94,256 -141,385 -141,387 0,25 13,38 40,38 9,0 21,-2 34,-5 21,4 42,12 65,25 l 27,-13 111,-251 280,301 64,-25 24,25 c 21,-10 41,-24 62,-43 C 886,937 835,863 770,784 769,783 710,716 594,584 L 774,223 c 0,-27 -21,-55 -63,-84 l 16,-20 C 717,90 699,76 672,76 641,76 570,178 457,381 L 164,-76 c -22,-34 -53,-51 -92,-51 -42,0 -63,17 -64,51 -7,9 -10,24 -10,44 0,9 1,19 2,30 z"
   id="path26"
   inkscape:connector-curvature="0" />
  </g>
  <g
   id="bullet-char-template-10004"
   transform="matrix(4.8828125e-4,0,0,-4.8828125e-4,0,0)">
   <path
   d="M 285,-33 C 182,-33 111,30 74,156 52,228 41,333 41,471 c 0,78 14,145 41,201 34,71 87,106 158,106 53,0 88,-31 106,-94 l 23,-176 c 8,-64 28,-97 59,-98 l 735,706 c 11,11 33,17 66,17 42,0 63,-15 63,-46 V 965 c 0,-36 -10,-64 -30,-84 L 442,47 C 390,-6 338,-33 285,-33 Z"
   id="path29"
   inkscape:connector-curvature="0" />
  </g>
  <g
   id="bullet-char-template-9679"
   transform="matrix(4.8828125e-4,0,0,-4.8828125e-4,0,0)">
   <path
   d="M 813,0 C 632,0 489,54 383,161 276,268 223,411 223,592 c 0,181 53,324 160,431 106,107 249,161 430,161 179,0 323,-54 432,-161 108,-107 162,-251 162,-431 0,-180 -54,-324 -162,-431 C 1136,54 992,0 813,0 Z"
   id="path32"
   inkscape:connector-curvature="0" />
  </g>
  <g
   id="bullet-char-template-8226"
   transform="matrix(4.8828125e-4,0,0,-4.8828125e-4,0,0)">
   <path
   d="m 346,457 c -73,0 -137,26 -191,78 -54,51 -81,114 -81,188 0,73 27,136 81,188 54,52 118,78 191,78 73,0 134,-26 185,-79 51,-51 77,-114 77,-187 0,-75 -25,-137 -76,-188 -50,-52 -112,-78 -186,-78 z"
   id="path35"
   inkscape:connector-curvature="0" />
  </g>
  <g
   id="bullet-char-template-8211"
   transform="matrix(4.8828125e-4,0,0,-4.8828125e-4,0,0)">
   <path
   d="M -4,459 H 1135 V 606 H -4 Z"
   id="path38"
   inkscape:connector-curvature="0" />
  </g>
  <g
   id="bullet-char-template-61548"
   transform="matrix(4.8828125e-4,0,0,-4.8828125e-4,0,0)">
   <path
   d="m 173,740 c 0,163 58,303 173,419 116,115 255,173 419,173 163,0 302,-58 418,-173 116,-116 174,-256 174,-419 0,-163 -58,-303 -174,-418 C 1067,206 928,148 765,148 601,148 462,206 346,322 231,437 173,577 173,740 Z"
   id="path41"
   inkscape:connector-curvature="0" />
  </g>
 </defs>
 <g
   id="g49"
   transform="translate(-9597,-14215)">
  <g
   id="id2"
   class="Master_Slide">
   <g
   id="bg-id2"
   class="Background" />
   <g
   id="bo-id2"
   class="BackgroundObjects" />
  </g>
 </g>
 <g
   class="SlideGroup"
   id="g167"
   transform="translate(-9597,-14215)">
  <g
   id="g165">
   <g
   id="container-id1">
    <g
   id="id1"
   class="Slide"
   clip-path="url(#presentation_clip_path)">
     <g
   class="Page"
   id="g161">
      <g
   class="Graphic"
   id="g159">
       <g
   id="id3">
        <rect
   class="BoundingBox"
   x="9597"
   y="14215"
   width="1806"
   height="1270"
   id="rect51"
   style="fill:none;stroke:none" />
        <defs
   id="defs56">
         <clipPath
   id="clip_path_1"
   clipPathUnits="userSpaceOnUse">
          <path
   d="m 9597,14215 h 1805 v 1269 H 9597 Z"
   id="path53"
   inkscape:connector-curvature="0" />
         </clipPath>
        </defs>
        <g
   clip-path="url(#clip_path_1)"
   id="g156">
         <path
   d="m 9676,15106 -3,379 h 250 206 475 140 631 v -382 l -31,-18 -35,-17 -38,-13 -44,-10 -48,-10 -51,-8 -56,-5 -58,-3 -28,-2 h -31 l -30,-3 h -33 -33 l -36,3 h -36 -35 -36 l -35,2 h -36 -33 -33 -33 -31 l -30,-2 -28,-3 h -31 -33 -30 -33 l -31,3 h -33 l -31,2 -33,3 -30,2 -31,3 -30,2 -28,6 -28,2 -26,5 -22,3 -59,10 -48,10 -44,10 -38,8 -35,8 -33,5 -36,5 z"
   id="path58"
   inkscape:connector-curvature="0"
   style="fill:#000000;stroke:none" />
         <path
   d="m 11273,14635 13,2 h 15 l 13,-2 13,-5 10,-8 10,-10 5,-10 5,-15 26,-34 7,-43 -7,-35 -26,-11 v -38 l -10,-30 -15,-23 -21,-15 -22,-8 -21,-3 -18,8 -12,10 -8,-10 -13,-10 -15,-8 -13,-2 3,-39 -10,-28 -21,-17 -25,-11 h -26 l -22,6 -16,12 -5,18 -18,-15 -20,-5 h -23 l -20,5 -18,13 -13,12 -10,18 -2,18 -41,13 -15,23 5,25 23,18 v 25 l 7,21 13,12 18,8 -26,46 -5,35 8,23 18,16 23,7 h 25 l 20,-5 13,-13 10,8 3,3 -3,5 -2,15 -16,-3 -15,3 -10,8 -10,10 -3,15 v 13 l 10,12 16,11 h -28 l -18,17 -10,31 10,41 8,12 12,11 13,10 13,5 12,5 11,-3 7,-7 3,-13 5,10 8,10 12,8 13,10 15,8 15,2 h 13 l 13,-5 v 49 l 2,86 3,97 3,81 h 25 l 18,3 15,5 15,10 -5,-66 -7,-89 -5,-107 v -125 l 7,-12 8,-3 7,3 8,2 15,13 h 18 l 15,-5 8,-8 15,3 10,-8 11,-13 12,-15 5,-20 -5,-18 -15,-15 -18,-5 -12,-3 v -8 l -3,-10 z"
   id="path60"
   inkscape:connector-curvature="0"
   style="fill:#000000;stroke:none" />
         <path
   d="m 11146,14347 13,8 7,13 -2,15 -18,8 -18,-5 -2,-16 5,-15 z"
   id="path62"
   inkscape:connector-curvature="0"
   style="fill:#ffffff;stroke:none" />
         <path
   d="m 11210,14426 12,8 8,13 -3,15 -15,8 -18,-6 -5,-15 8,-15 z"
   id="path64"
   inkscape:connector-curvature="0"
   style="fill:#ffffff;stroke:none" />
         <path
   d="m 11243,14518 12,8 8,15 -2,15 -16,8 -18,-8 -5,-15 8,-15 z"
   id="path66"
   inkscape:connector-curvature="0"
   style="fill:#ffffff;stroke:none" />
         <path
   d="m 11319,14492 13,8 7,15 -2,16 -18,7 -18,-7 -2,-16 5,-15 z"
   id="path68"
   inkscape:connector-curvature="0"
   style="fill:#ffffff;stroke:none" />
         <path
   d="m 11317,14424 12,7 8,13 -3,15 -17,8 -18,-5 -3,-15 5,-16 z"
   id="path70"
   inkscape:connector-curvature="0"
   style="fill:#ffffff;stroke:none" />
         <path
   d="m 10785,15083 h -89 v 71 l -38,331 h 140 l 17,-31 11,-43 -5,-41 -23,-33 20,-30 5,-31 -10,-28 -18,-15 13,-23 5,-25 -5,-26 -23,-15 13,-18 2,-18 -2,-15 z"
   id="path72"
   inkscape:connector-curvature="0"
   style="fill:#ffffff;stroke:none" />
         <path
   d="m 10459,15083 h -56 l -15,5 -18,13 -12,18 -8,25 -15,-8 h -18 l -15,3 -13,8 -15,10 -8,12 -8,16 -2,15 h -18 l -15,2 -13,8 -13,8 -7,12 -5,13 v 13 15 l -16,3 -15,5 -15,5 -13,10 -10,10 -8,13 -5,13 v 12 l -35,3 -31,10 -25,15 -21,23 -15,23 -8,26 -2,23 7,20 h 206 l 313,-331 h -33 z"
   id="path74"
   inkscape:connector-curvature="0"
   style="fill:#ffffff;stroke:none" />
         <path
   d="m 10167,15365 18,8 7,18 -2,15 -21,10 -20,-7 -5,-18 8,-18 z"
   id="path76"
   inkscape:connector-curvature="0"
   style="fill:#000000;stroke:none" />
         <path
   d="m 10190,15286 15,8 10,18 -2,15 -21,10 -20,-7 -5,-18 7,-18 z"
   id="path78"
   inkscape:connector-curvature="0"
   style="fill:#000000;stroke:none" />
         <path
   d="m 10269,15243 15,8 10,18 -3,17 -20,11 -20,-8 -5,-20 7,-18 z"
   id="path80"
   inkscape:connector-curvature="0"
   style="fill:#000000;stroke:none" />
         <path
   d="m 10314,15169 18,8 8,18 -3,15 -20,10 -20,-7 -6,-18 8,-18 z"
   id="path82"
   inkscape:connector-curvature="0"
   style="fill:#000000;stroke:none" />
         <path
   d="m 10386,15169 15,8 10,18 -3,15 -20,10 -20,-7 -5,-18 7,-18 z"
   id="path84"
   inkscape:connector-curvature="0"
   style="fill:#000000;stroke:none" />
         <path
   d="m 10752,15154 18,8 7,18 -2,15 -21,10 -20,-8 -5,-17 8,-18 z"
   id="path86"
   inkscape:connector-curvature="0"
   style="fill:#000000;stroke:none" />
         <path
   d="m 10782,15258 18,8 8,18 -3,15 -20,10 -20,-7 -6,-18 8,-18 z"
   id="path88"
   inkscape:connector-curvature="0"
   style="fill:#000000;stroke:none" />
         <path
   d="m 10729,15297 18,7 7,18 -2,18 -21,10 -20,-8 -5,-17 8,-21 z"
   id="path90"
   inkscape:connector-curvature="0"
   style="fill:#000000;stroke:none" />
         <path
   d="m 10757,15365 18,8 7,18 -2,15 -21,10 -20,-7 -5,-18 8,-18 z"
   id="path92"
   inkscape:connector-curvature="0"
   style="fill:#000000;stroke:none" />
         <path
   d="m 10808,14495 h 147 v -81 h 51 v 86 l 41,94 -31,21 v 22 456 h -279 -77 -46 -83 -72 -45 -303 v -456 -22 l -28,-21 69,-96 v -84 h 53 v 81 h 147 l 67,-81 68,81 h 183 l 72,-81 z"
   id="path94"
   inkscape:connector-curvature="0"
   style="fill:#ffffff;stroke:none" />
         <path
   d="m 10660,15154 v -61 h -46 -83 -72 v 61 h 28 z"
   id="path96"
   inkscape:connector-curvature="0"
   style="fill:#ffffff;stroke:none" />
         <path
   d="m 11047,14594 -41,-94 v -86 h -51 v 81 h -147 l -66,-81 -72,81 h -183 l -68,-81 -67,81 h -147 v -81 h -53 v 84 l -69,96 z"
   id="path98"
   inkscape:connector-curvature="0"
   style="fill:#000000;stroke:none" />
         <path
   d="m 10607,15093 h -87 v -163 h 87 z"
   id="path100"
   inkscape:connector-curvature="0"
   style="fill:#000000;stroke:none" />
         <path
   d="m 10111,14637 v -22 h 905 v 22 z"
   id="path102"
   inkscape:connector-curvature="0"
   style="fill:#000000;stroke:none" />
         <path
   d="m 10274,15050 v -364 h -122 v 364 z"
   id="path104"
   inkscape:connector-curvature="0"
   style="fill:#000000;stroke:none" />
         <path
   d="m 10434,15050 v -364 h -122 v 364 z"
   id="path106"
   inkscape:connector-curvature="0"
   style="fill:#000000;stroke:none" />
         <path
   d="m 10818,15050 v -364 h -122 v 364 z"
   id="path108"
   inkscape:connector-curvature="0"
   style="fill:#000000;stroke:none" />
         <path
   d="m 10978,15050 v -364 h -124 v 364 z"
   id="path110"
   inkscape:connector-curvature="0"
   style="fill:#000000;stroke:none" />
         <path
   d="m 10653,14897 v -211 h -181 v 211 z"
   id="path112"
   inkscape:connector-curvature="0"
   style="fill:#000000;stroke:none" />
         <path
   d="m 10660,15080 v 13 h -201 v -13 z"
   id="path114"
   inkscape:connector-curvature="0"
   style="fill:#000000;stroke:none" />
         <path
   d="m 10401,14808 v -87 h -56 v 87 z"
   id="path116"
   inkscape:connector-curvature="0"
   style="fill:#ffffff;stroke:none" />
         <path
   d="m 10589,14808 v -87 h -53 v 87 z"
   id="path118"
   inkscape:connector-curvature="0"
   style="fill:#ffffff;stroke:none" />
         <path
   d="m 10785,14808 v -87 h -56 v 87 z"
   id="path120"
   inkscape:connector-curvature="0"
   style="fill:#ffffff;stroke:none" />
         <path
   d="m 10940,14808 v -87 h -51 v 87 z"
   id="path122"
   inkscape:connector-curvature="0"
   style="fill:#ffffff;stroke:none" />
         <path
   d="m 10241,14808 v -87 h -56 v 87 z"
   id="path124"
   inkscape:connector-curvature="0"
   style="fill:#ffffff;stroke:none" />
         <path
   d="m 10401,14981 v -89 h -56 v 89 z"
   id="path126"
   inkscape:connector-curvature="0"
   style="fill:#ffffff;stroke:none" />
         <path
   d="m 10785,14981 v -89 h -56 v 89 z"
   id="path128"
   inkscape:connector-curvature="0"
   style="fill:#ffffff;stroke:none" />
         <path
   d="m 10943,14981 v -89 h -54 v 89 z"
   id="path130"
   inkscape:connector-curvature="0"
   style="fill:#ffffff;stroke:none" />
         <path
   d="m 10241,14981 v -89 h -56 v 89 z"
   id="path132"
   inkscape:connector-curvature="0"
   style="fill:#ffffff;stroke:none" />
         <path
   d="m 10617,14879 -53,-48 -59,48 z"
   id="path134"
   inkscape:connector-curvature="0"
   style="fill:#ffffff;stroke:none" />
         <path
   d="m 10490,14543 -69,-91 -74,91 h 28 v 51 h 21 l -3,-13 v -30 l 8,-31 23,-12 17,12 6,31 v 30 l -3,13 h 23 v -51 z"
   id="path136"
   inkscape:connector-curvature="0"
   style="fill:#ffffff;stroke:none" />
         <path
   d="m 10810,14543 -68,-91 -74,91 h 28 v 51 h 20 l -2,-13 v -30 l 7,-31 23,-12 18,12 5,31 v 30 l -2,13 h 22 v -51 z"
   id="path138"
   inkscape:connector-curvature="0"
   style="fill:#ffffff;stroke:none" />
         <path
   d="m 9887,15182 -3,-91 6,-110 -8,-104 -28,-82 -26,21 -30,12 -31,8 h -28 l -22,-5 -16,-18 -5,-25 5,-39 -30,-22 -13,-31 -2,-33 10,-33 15,-31 20,-28 21,-18 17,-5 8,-12 13,-10 15,-3 18,10 13,-15 -26,-31 v -40 l 15,-33 26,-11 -5,-35 15,-28 33,-18 41,-5 40,5 36,20 23,33 v 51 l 5,5 13,8 13,15 7,13 20,-15 26,5 25,18 23,30 16,33 2,38 -13,33 -30,28 5,18 8,16 7,12 13,13 38,20 13,46 -10,49 -36,17 -3,16 -7,12 -10,11 -11,10 -12,5 -13,2 -13,-5 -12,-7 -18,12 -23,3 -20,-3 -13,-12 -3,61 -2,89 5,97 10,83 h -20 l -18,-5 -13,-7 -10,-8 -13,-5 -10,-5 -15,2 z"
   id="path140"
   inkscape:connector-curvature="0"
   style="fill:#000000;stroke:none" />
         <path
   d="m 9834,14627 15,8 7,13 -2,15 -18,8 -18,-6 -5,-15 8,-15 z"
   id="path142"
   inkscape:connector-curvature="0"
   style="fill:#ffffff;stroke:none" />
         <path
   d="m 9818,14732 13,7 8,13 -3,15 -15,8 -18,-5 -5,-15 8,-16 z"
   id="path144"
   inkscape:connector-curvature="0"
   style="fill:#ffffff;stroke:none" />
         <path
   d="m 9905,14719 15,8 8,15 -3,15 -18,8 -17,-5 -3,-18 5,-15 z"
   id="path146"
   inkscape:connector-curvature="0"
   style="fill:#ffffff;stroke:none" />
         <path
   d="m 10070,14660 13,8 7,15 -2,16 -18,7 -18,-7 -2,-16 5,-15 z"
   id="path148"
   inkscape:connector-curvature="0"
   style="fill:#ffffff;stroke:none" />
         <path
   d="m 10042,14564 13,7 7,16 -2,15 -15,7 -18,-7 -5,-15 7,-16 z"
   id="path150"
   inkscape:connector-curvature="0"
   style="fill:#ffffff;stroke:none" />
         <path
   d="m 10017,14775 12,8 8,12 -2,16 -16,7 -18,-5 -5,-15 8,-15 z"
   id="path152"
   inkscape:connector-curvature="0"
   style="fill:#ffffff;stroke:none" />
         <path
   d="m 10093,14739 13,8 7,13 -2,15 -15,8 -18,-6 -5,-15 7,-15 z"
   id="path154"
   inkscape:connector-curvature="0"
   style="fill:#ffffff;stroke:none" />
        </g>
       </g>
      </g>
     </g>
    </g>
   </g>
  </g>
 </g>
</svg>