<?xml version="1.0" encoding="UTF-8" standalone="no"?>
<svg
   xmlns:ooo="http://xml.openoffice.org/svg/export"
   xmlns:dc="http://purl.org/dc/elements/1.1/"
   xmlns:cc="http://creativecommons.org/ns#"
   xmlns:rdf="http://www.w3.org/1999/02/22-rdf-syntax-ns#"
   xmlns:svg="http://www.w3.org/2000/svg"
   xmlns="http://www.w3.org/2000/svg"
   xmlns:sodipodi="http://sodipodi.sourceforge.net/DTD/sodipodi-0.dtd"
   xmlns:inkscape="http://www.inkscape.org/namespaces/inkscape"
   version="1.2"
   width="24.84mm"
   height="92.659996mm"
   viewBox="0 0 2484 9265.9996"
   preserveAspectRatio="xMidYMid"
   xml:space="preserve"
   id="svg103"
   sodipodi:docname="manwfile.svg"
   style="fill-rule:evenodd;stroke-width:28.22200012;stroke-linejoin:round"
   inkscape:version="0.92.5 (2060ec1f9f, 2020-04-08)"><metadata
   id="metadata107"><rdf:RDF><cc:Work
       rdf:about=""><dc:format>image/svg+xml</dc:format><dc:type
         rdf:resource="http://purl.org/dc/dcmitype/StillImage" /></cc:Work></rdf:RDF></metadata><sodipodi:namedview
   pagecolor="#ffffff"
   bordercolor="#666666"
   borderopacity="1"
   objecttolerance="10"
   gridtolerance="10"
   guidetolerance="10"
   inkscape:pageopacity="0"
   inkscape:pageshadow="2"
   inkscape:window-width="664"
   inkscape:window-height="487"
   id="namedview105"
   showgrid="false"
   inkscape:zoom="0.2102413"
   inkscape:cx="46.941733"
   inkscape:cy="175.10551"
   inkscape:window-x="0"
   inkscape:window-y="0"
   inkscape:window-maximized="0"
   inkscape:current-layer="svg103" />
 <defs
   class="ClipPathGroup"
   id="defs8">
  <clipPath
   id="presentation_clip_path"
   clipPathUnits="userSpaceOnUse">
   <rect
   x="0"
   y="0"
   width="21000"
   height="29700"
   id="rect2" />
  </clipPath>
  <clipPath
   id="presentation_clip_path_shrink"
   clipPathUnits="userSpaceOnUse">
   <rect
   x="21"
   y="29"
   width="20958"
   height="29641"
   id="rect5" />
  </clipPath>
 </defs>
 <defs
   class="TextShapeIndex"
   id="defs12">
  <g
   ooo:slide="id1"
   ooo:id-list="id3"
   id="g10" />
 </defs>
 <defs
   class="EmbeddedBulletChars"
   id="defs44">
  <g
   id="bullet-char-template-57356"
   transform="matrix(4.8828125e-4,0,0,-4.8828125e-4,0,0)">
   <path
   d="M 580,1141 1163,571 580,0 -4,571 Z"
   id="path14"
   inkscape:connector-curvature="0" />
  </g>
  <g
   id="bullet-char-template-57354"
   transform="matrix(4.8828125e-4,0,0,-4.8828125e-4,0,0)">
   <path
   d="M 8,1128 H 1137 V 0 H 8 Z"
   id="path17"
   inkscape:connector-curvature="0" />
  </g>
  <g
   id="bullet-char-template-10146"
   transform="matrix(4.8828125e-4,0,0,-4.8828125e-4,0,0)">
   <path
   d="M 174,0 602,739 174,1481 1456,739 Z M 1358,739 309,1346 659,739 Z"
   id="path20"
   inkscape:connector-curvature="0" />
  </g>
  <g
   id="bullet-char-template-10132"
   transform="matrix(4.8828125e-4,0,0,-4.8828125e-4,0,0)">
   <path
   d="M 2015,739 1276,0 H 717 l 543,543 H 174 v 393 h 1086 l -543,545 h 557 z"
   id="path23"
   inkscape:connector-curvature="0" />
  </g>
  <g
   id="bullet-char-template-10007"
   transform="matrix(4.8828125e-4,0,0,-4.8828125e-4,0,0)">
   <path
   d="m 0,-2 c -7,16 -16,29 -25,39 l 381,530 c -94,256 -141,385 -141,387 0,25 13,38 40,38 9,0 21,-2 34,-5 21,4 42,12 65,25 l 27,-13 111,-251 280,301 64,-25 24,25 c 21,-10 41,-24 62,-43 C 886,937 835,863 770,784 769,783 710,716 594,584 L 774,223 c 0,-27 -21,-55 -63,-84 l 16,-20 C 717,90 699,76 672,76 641,76 570,178 457,381 L 164,-76 c -22,-34 -53,-51 -92,-51 -42,0 -63,17 -64,51 -7,9 -10,24 -10,44 0,9 1,19 2,30 z"
   id="path26"
   inkscape:connector-curvature="0" />
  </g>
  <g
   id="bullet-char-template-10004"
   transform="matrix(4.8828125e-4,0,0,-4.8828125e-4,0,0)">
   <path
   d="M 285,-33 C 182,-33 111,30 74,156 52,228 41,333 41,471 c 0,78 14,145 41,201 34,71 87,106 158,106 53,0 88,-31 106,-94 l 23,-176 c 8,-64 28,-97 59,-98 l 735,706 c 11,11 33,17 66,17 42,0 63,-15 63,-46 V 965 c 0,-36 -10,-64 -30,-84 L 442,47 C 390,-6 338,-33 285,-33 Z"
   id="path29"
   inkscape:connector-curvature="0" />
  </g>
  <g
   id="bullet-char-template-9679"
   transform="matrix(4.8828125e-4,0,0,-4.8828125e-4,0,0)">
   <path
   d="M 813,0 C 632,0 489,54 383,161 276,268 223,411 223,592 c 0,181 53,324 160,431 106,107 249,161 430,161 179,0 323,-54 432,-161 108,-107 162,-251 162,-431 0,-180 -54,-324 -162,-431 C 1136,54 992,0 813,0 Z"
   id="path32"
   inkscape:connector-curvature="0" />
  </g>
  <g
   id="bullet-char-template-8226"
   transform="matrix(4.8828125e-4,0,0,-4.8828125e-4,0,0)">
   <path
   d="m 346,457 c -73,0 -137,26 -191,78 -54,51 -81,114 -81,188 0,73 27,136 81,188 54,52 118,78 191,78 73,0 134,-26 185,-79 51,-51 77,-114 77,-187 0,-75 -25,-137 -76,-188 -50,-52 -112,-78 -186,-78 z"
   id="path35"
   inkscape:connector-curvature="0" />
  </g>
  <g
   id="bullet-char-template-8211"
   transform="matrix(4.8828125e-4,0,0,-4.8828125e-4,0,0)">
   <path
   d="M -4,459 H 1135 V 606 H -4 Z"
   id="path38"
   inkscape:connector-curvature="0" />
  </g>
  <g
   id="bullet-char-template-61548"
   transform="matrix(4.8828125e-4,0,0,-4.8828125e-4,0,0)">
   <path
   d="m 173,740 c 0,163 58,303 173,419 116,115 255,173 419,173 163,0 302,-58 418,-173 116,-116 174,-256 174,-419 0,-163 -58,-303 -174,-418 C 1067,206 928,148 765,148 601,148 462,206 346,322 231,437 173,577 173,740 Z"
   id="path41"
   inkscape:connector-curvature="0" />
  </g>
 </defs>
 <g
   id="g49"
   transform="translate(-9258,-10217)">
  <g
   id="id2"
   class="Master_Slide">
   <g
   id="bg-id2"
   class="Background" />
   <g
   id="bo-id2"
   class="BackgroundObjects" />
  </g>
 </g>
 <g
   class="SlideGroup"
   id="g101"
   transform="translate(-9258,-10217)">
  <g
   id="g99">
   <g
   id="container-id1">
    <g
   id="id1"
   class="Slide"
   clip-path="url(#presentation_clip_path)">
     <g
   class="Page"
   id="g95">
      <g
   class="Graphic"
   id="g93">
       <g
   id="id3">
        <rect
   class="BoundingBox"
   x="9258"
   y="10217"
   width="2484"
   height="9266"
   id="rect51"
   style="fill:none;stroke:none" />
        <defs
   id="defs56">
         <clipPath
   id="clip_path_1"
   clipPathUnits="userSpaceOnUse">
          <path
   d="m 9258,10217 h 2483 v 9265 H 9258 Z"
   id="path53"
   inkscape:connector-curvature="0" />
         </clipPath>
        </defs>
        <g
   clip-path="url(#clip_path_1)"
   id="g90">
         <path
   d="m 9616,14379 -5,51 v 71 l 3,68 2,38 6,59 5,107 2,111 5,64 5,101 5,196 3,188 3,84 7,107 18,244 20,266 18,173 5,112 -5,132 -13,119 -5,77 3,25 10,33 13,41 18,40 15,44 12,40 11,36 2,28 v 203 389 388 204 l 5,25 13,28 15,31 18,28 15,27 13,26 3,23 -8,15 -15,18 -16,25 -17,31 -13,30 -13,33 -5,26 -2,20 7,13 18,15 23,13 33,12 41,13 43,13 48,10 54,7 55,11 56,7 56,5 56,5 56,5 51,3 48,3 h 41 38 l 84,-66 -10,-117 -23,-265 -23,-277 -10,-160 v -175 l -5,-315 -18,-310 -41,-160 -20,-20 -10,-23 2,-28 8,-26 13,-22 13,-21 7,-12 5,-6 v -101 l 3,-234 10,-257 15,-170 5,23 16,59 22,86 23,104 23,109 21,105 10,91 v 64 l -3,53 3,53 10,59 10,53 15,51 13,46 10,35 5,23 8,56 18,124 20,168 23,196 23,200 18,186 10,150 2,94 -5,142 -2,160 2,142 5,84 8,21 10,15 15,15 18,13 15,7 13,8 10,3 3,2 20,5 28,5 31,5 35,3 38,5 41,5 41,3 43,2 43,3 43,2 44,3 38,2 38,3 h 33 l 28,2 h 25 66 l -5,-53 -10,-140 -15,-200 -15,-232 -18,-236 -15,-211 -11,-160 -5,-81 v -53 l -2,-87 -8,-112 -7,-124 -11,-125 -15,-117 -18,-94 -23,-61 -17,-35 -5,-28 5,-18 12,-13 16,-7 15,-8 13,-10 7,-10 v -15 l -10,-18 -13,-20 -17,-26 -16,-25 -12,-28 -8,-31 2,-33 3,-188 -13,-327 -23,-331 -22,-198 -11,-97 8,-104 18,-94 23,-63 15,-41 5,-33 -3,-23 v -7 l 6,-54 2,-61 -2,-66 -6,-68 -10,-66 -12,-61 -21,-54 -25,-43 -38,13 -41,10 -43,13 -46,10 -46,10 -48,8 -48,10 -46,7 -48,8 -46,8 -46,5 -43,2 -41,5 -38,3 h -33 -31 l -63,-5 -66,-10 -69,-13 -71,-18 -71,-18 -71,-20 -72,-20 -68,-21 -66,-17 -64,-18 -58,-13 -56,-10 -51,-5 -43,2 -36,5 z"
   id="path58"
   inkscape:connector-curvature="0"
   style="fill:#00ff7f;stroke:none" />
         <path
   d="m 10801,11713 v 21 l -5,18 -15,15 -18,13 -25,15 -31,18 -38,22 -41,31 -48,30 -58,31 -61,23 -61,23 -56,15 -46,13 -33,7 -10,3 -44,152 -73,-157 h -8 l -20,-3 -23,-5 -15,-10 -5,-26 v -43 -48 -46 l -3,-7 -10,-18 -15,-10 -28,2 -16,10 -12,13 -13,18 -15,18 -16,17 -20,18 -23,15 -28,11 -18,5 -22,5 -28,7 -28,8 -33,8 -34,10 -33,10 -33,13 -33,12 -30,16 -31,15 -25,18 -23,20 -18,18 -13,23 -5,23 -7,127 -8,157 -2,147 -5,84 -3,99 3,166 12,152 26,64 25,-3 h 23 20 18 13 l 10,3 h 5 3 l 84,180 -8,48 -20,114 -21,133 -15,99 10,124 10,158 v 185 l -18,219 31,-16 36,-5 43,-2 51,5 56,10 58,13 64,18 66,17 68,21 72,20 71,20 71,18 71,18 69,13 66,10 63,5 h 31 33 l 38,-3 41,-5 43,-2 46,-5 46,-8 48,-8 46,-7 48,-10 48,-8 46,-10 46,-10 43,-13 41,-10 38,-13 h 2 l 5,-2 11,-6 10,-5 13,-5 12,-7 13,-8 10,-8 -35,-78 -34,-110 -27,-129 -21,-140 -18,-140 -10,-127 -5,-109 v -74 -17 l -2,-16 -6,-12 v -5 h 13 18 23 25 l 28,-3 28,-5 28,-8 26,-12 28,-16 33,-20 38,-20 40,-23 41,-20 41,-18 33,-13 30,-8 59,-2 -28,-130 5,-15 8,-33 2,-46 -5,-45 -15,-51 -31,-102 -38,-135 -46,-149 -43,-150 -38,-135 -28,-102 -13,-50 -5,-23 -7,-23 -13,-23 -13,-23 -12,-20 -18,-21 -16,-15 -17,-13 -13,-5 -20,-10 -26,-7 -33,-13 -33,-10 -38,-13 -38,-13 -41,-12 -41,-13 -35,-13 -36,-10 -30,-8 -26,-10 -20,-5 -13,-2 -5,-3 -28,-102 z"
   id="path60"
   inkscape:connector-curvature="0"
   style="fill:#d10033;stroke:none" />
         <path
   d="m 9779,18617 v 12 l -7,36 -21,46 -38,45 -33,26 -46,30 -56,33 -61,33 -61,36 -53,28 -43,23 -28,15 -23,23 -13,38 v 46 l 20,48 39,43 61,36 89,20 117,-3 63,-10 54,-12 50,-16 44,-17 38,-23 38,-21 33,-22 33,-26 33,-20 33,-23 36,-20 38,-18 40,-15 46,-13 51,-8 59,-5 101,-13 64,-25 35,-38 13,-41 -2,-38 -11,-35 -10,-23 -5,-10 h -38 -41 l -48,-3 -51,-3 -56,-5 -56,-5 -56,-5 -56,-7 -55,-11 -54,-7 -48,-10 -43,-13 -41,-13 -33,-12 -23,-13 z"
   id="path62"
   inkscape:connector-curvature="0"
   style="fill:#000000;stroke:none" />
         <path
   d="m 10893,18774 -3,5 -7,15 -16,23 -17,28 -21,31 -25,33 -28,30 -31,31 -35,30 -38,33 -39,38 -40,39 -36,40 -30,43 -21,41 -10,43 v 41 l 10,38 18,33 28,28 36,20 43,13 53,3 61,-8 64,-10 63,-10 56,-11 56,-15 49,-20 43,-33 38,-43 31,-61 30,-64 33,-48 36,-38 35,-28 33,-21 31,-12 30,-13 23,-10 21,-15 15,-21 13,-25 10,-28 5,-31 5,-25 v -23 l -3,-18 h -25 l -28,-2 h -33 l -38,-3 -38,-2 -44,-3 -43,-2 -43,-3 -43,-2 -41,-3 -41,-5 -38,-5 -35,-3 -31,-5 -28,-5 z"
   id="path64"
   inkscape:connector-curvature="0"
   style="fill:#000000;stroke:none" />
         <path
   d="m 9616,14379 -5,51 v 71 l 3,68 2,38 6,59 5,107 2,111 5,64 5,101 5,196 3,188 3,84 h -3 l -8,-3 -15,-5 -15,-7 -20,-8 -23,-13 -23,-12 -26,-18 -23,-23 -17,-33 -18,-41 -15,-45 -16,-44 -17,-43 -18,-38 -23,-30 -18,-33 -8,-49 v -58 l 6,-66 10,-64 10,-61 7,-50 3,-36 -10,-122 -18,-213 -20,-232 -10,-185 2,-71 10,-74 13,-71 18,-69 18,-66 17,-58 18,-54 15,-45 23,-102 13,-117 5,-99 3,-40 25,-3 h 23 20 18 13 l 10,3 h 5 3 l 84,180 -8,48 -20,114 -21,133 -15,99 10,124 10,158 v 185 z"
   id="path66"
   inkscape:connector-curvature="0"
   style="fill:#a54c38;stroke:none" />
         <path
   d="m 10138,11688 h 68 l 69,-10 64,-15 58,-23 51,-23 43,-25 31,-23 17,-18 23,-36 18,-33 8,-35 v -33 l -8,-44 -2,-58 2,-51 3,-30 -3,-26 -8,-40 -5,-44 3,-30 5,-13 8,-17 7,-18 10,-18 16,-15 15,-13 20,-5 26,2 38,18 18,28 v 36 l -8,35 -10,36 -13,30 -13,26 -7,18 v 12 28 l 7,33 13,36 18,35 15,33 18,31 13,25 7,18 28,241 v 21 l -5,18 -15,15 -18,13 -25,15 -31,18 -38,22 -41,31 -48,30 -58,31 -61,23 -61,23 -56,15 -46,13 -33,7 -10,3 -44,152 -73,-157 h -8 l -20,-3 -23,-5 -15,-10 -5,-26 v -43 -48 -46 l 25,-10 20,-18 13,-20 8,-25 5,-23 v -21 -15 z"
   id="path68"
   inkscape:connector-curvature="0"
   style="fill:#a54c38;stroke:none" />
         <path
   d="m 9924,11340 h 3 7 l 10,-3 16,-2 15,-3 20,-5 21,-7 23,-10 25,-6 28,6 33,12 30,18 34,18 28,20 22,15 18,8 54,8 48,-13 41,-26 35,-35 26,-41 20,-43 10,-38 v -31 l -2,-61 10,-73 10,-69 2,-56 -10,-23 -28,-17 -43,-18 -48,-15 -56,-13 -59,-10 -53,-5 -48,-3 -41,-7 -36,-16 -30,-20 -26,-28 -20,-28 -18,-28 -10,-25 -7,-23 -16,-33 -20,-21 -20,-5 -11,13 -7,23 -15,23 -21,23 -28,20 3,23 5,51 2,56 v 35 l -5,28 v 36 l 13,38 28,35 20,33 v 28 l -12,26 -8,18 -3,22 -2,41 5,56 20,69 8,17 5,21 3,15 z"
   id="path70"
   inkscape:connector-curvature="0"
   style="fill:#a54c38;stroke:none" />
         <path
   d="m 9967,15159 -17,10 -8,13 5,15 23,18 20,5 23,-3 31,-10 30,-13 28,-15 26,-18 17,-15 10,-10 3,5 5,10 10,13 16,10 22,10 h 26 l 35,-13 41,-25 3,3 10,7 15,8 20,7 h 26 l 28,-5 30,-15 33,-30 3,2 5,5 13,3 h 12 l 16,-5 20,-16 20,-25 21,-43 20,-41 15,-38 10,-33 11,-25 5,-36 5,-58 10,-61 20,-46 56,-41 5,-5 16,-10 25,-18 31,-23 38,-30 43,-31 46,-35 51,-38 48,-38 51,-41 48,-38 46,-38 43,-36 38,-33 31,-28 22,-23 34,-38 33,-38 30,-35 31,-36 25,-33 25,-28 21,-25 15,-18 8,-10 20,-26 28,-38 31,-46 30,-56 25,-58 16,-56 2,-56 -15,-112 -18,-106 -13,-82 -5,-33 -30,8 -33,13 -41,18 -41,20 -40,23 -38,20 -33,20 -28,16 -26,12 -28,8 -28,5 -28,3 h -25 -23 -18 -13 v 5 l 6,12 2,16 v 17 23 l -10,23 -13,18 -12,13 -16,17 -28,36 -35,51 -41,56 -41,61 -38,56 -33,48 -23,33 -25,30 -33,44 -43,50 -46,51 -46,51 -43,46 -33,35 -26,23 -10,-10 -89,71 v 13 l -2,2 -5,8 -11,13 -12,12 -18,16 -20,17 -23,13 -26,13 -25,10 -23,8 -20,10 -18,7 -15,11 -16,10 -15,12 -15,16 -15,15 -18,18 -16,15 -15,18 -18,15 -12,18 -16,12 -12,13 -13,13 -15,13 -18,12 -13,13 -12,10 -8,10 -3,10 3,8 10,5 15,5 18,3 h 23 l 23,-3 25,-5 23,-10 21,-13 12,-5 v 18 l -10,30 -18,41 -20,48 -20,46 -21,43 -12,31 -11,23 -10,25 -12,25 -16,28 -18,28 -20,28 -20,28 z"
   id="path72"
   inkscape:connector-curvature="0"
   style="fill:#a54c38;stroke:none" />
         <path
   d="m 10850,14582 -82,-122 -2,-18 -5,-15 -8,-15 -10,-16 -15,-10 -16,-7 -18,-5 -17,-3 -82,-122 -10,-10 -89,71 v 13 l 92,137 2,18 5,18 8,15 10,13 15,12 16,8 15,5 18,2 68,110 z"
   id="path74"
   inkscape:connector-curvature="0"
   style="fill:#000000;stroke:none" />
         <path
   d="m 9840,10687 28,-20 21,-23 15,-23 7,-23 11,-13 20,5 20,21 16,33 7,23 10,25 18,28 20,28 26,28 30,20 36,16 41,7 48,3 53,5 59,10 56,13 48,15 43,18 28,17 10,23 -2,56 -10,69 -10,73 2,61 v 31 l -10,38 -20,43 -26,41 -35,35 -41,26 -48,13 -54,-8 -18,-8 -22,-15 -28,-20 -34,-18 -30,-18 -33,-12 -28,-6 -25,6 -23,10 -21,7 -20,5 -15,3 -16,2 -10,3 h -7 -3 l -5,8 -5,15 3,23 17,23 5,5 8,10 5,13 -5,17 -13,26 -7,43 2,48 23,43 20,18 28,15 31,13 30,10 28,8 26,5 18,5 h 5 68 l 69,-10 64,-15 58,-23 51,-23 43,-25 31,-23 17,-18 23,-36 18,-33 8,-35 v -33 l -8,-44 -2,-58 2,-51 3,-30 -3,-26 -8,-40 -5,-44 3,-30 5,-13 8,-17 7,-18 10,-18 16,-15 15,-13 20,-5 26,2 38,18 18,28 v 36 l -8,35 -10,36 -13,30 -13,26 -7,18 v 12 28 l 7,33 13,36 18,35 15,33 18,31 13,25 7,18 h 5 l 13,3 18,2 23,-2 20,-8 18,-15 13,-23 5,-36 2,-58 10,-86 11,-102 12,-107 13,-107 8,-96 v -74 l -5,-45 -13,-36 -15,-51 -21,-58 -28,-64 -30,-61 -38,-56 -44,-43 -48,-25 -25,-8 -28,-10 -28,-8 -28,-10 -31,-7 -30,-11 -31,-7 -30,-5 -33,-8 -33,-5 -36,-3 -33,-2 h -36 -35 l -36,2 -38,5 -23,6 -28,7 -33,13 -33,15 -35,18 -36,20 -36,21 -35,22 -33,23 -31,26 -28,25 -20,26 -18,27 -13,23 -2,26 2,23 8,28 10,38 13,33 z"
   id="path76"
   inkscape:connector-curvature="0"
   style="fill:#000000;stroke:none" />
         <path
   d="m 10051,10954 28,7 18,-7 10,-10 10,-5 18,-3 h 20 23 l 23,3 21,5 17,5 16,7 7,8 h -12 -16 l -15,-3 h -18 -15 -15 l -16,3 -12,3 -10,5 -13,2 -13,3 h -13 -12 l -10,-5 -11,-8 z"
   id="path78"
   inkscape:connector-curvature="0"
   style="fill:#000000;stroke:none" />
         <path
   d="m 10105,11002 12,-2 16,-3 h 15 l 18,5 12,5 13,5 18,8 18,10 15,8 13,5 10,5 2,2 -137,13 -5,-5 -10,-10 -8,-21 z"
   id="path80"
   inkscape:connector-curvature="0"
   style="fill:#000000;stroke:none" />
         <path
   d="m 9960,11027 -13,-10 -20,-7 -16,-5 -10,2 5,10 3,13 v 10 l -5,13 10,5 h 15 l 15,-3 13,-2 3,-8 v -10 -5 z"
   id="path82"
   inkscape:connector-curvature="0"
   style="fill:#000000;stroke:none" />
         <path
   d="m 9952,11431 h 13 l 13,-5 12,-2 13,-5 13,-3 h 15 l 15,3 15,5 28,13 21,7 12,5 h 6 -3 l -10,3 -15,5 -18,2 -18,3 -20,2 h -18 l -13,-2 -20,-5 -15,-3 h -11 -2 l -8,-5 -5,-7 -2,-8 z"
   id="path84"
   inkscape:connector-curvature="0"
   style="fill:#a54c38;stroke:none" />
         <path
   d="m 9967,15159 26,-26 20,-28 20,-28 18,-28 16,-28 12,-25 10,-25 11,-23 12,-31 21,-43 20,-46 20,-48 18,-41 10,-30 v -18 l -12,5 -21,13 -23,10 -25,5 -23,3 h -23 l -18,-3 -15,-5 -10,-5 -3,-8 3,-10 8,-10 12,-10 13,-13 18,-12 15,-13 13,-13 12,-13 16,-12 12,-18 18,-15 15,-18 16,-15 18,-18 15,-15 15,-16 15,-12 16,-10 15,-11 18,-7 20,-10 23,-8 25,-10 26,-13 23,-13 20,-17 18,-16 12,-12 11,-13 5,-8 2,-2 v -13 l 89,-71 10,10 26,-23 33,-35 43,-46 46,-51 46,-51 43,-50 33,-44 25,-30 23,-33 33,-48 38,-56 41,-61 41,-56 35,-51 28,-36 16,-17 12,-13 13,-18 10,-23 v -23 l -1566,209 -165,28 167,658 186,808 z"
   id="path86"
   inkscape:connector-curvature="0"
   style="fill:#ffdd59;stroke:none" />
         <path
   d="m 10588,15042 v 0 l 734,-137 420,-74 -206,-884 -15,18 -21,25 -25,28 -25,33 -31,36 -30,35 -33,38 -34,38 -22,23 -31,28 -38,33 -43,36 -46,38 -48,38 -51,41 -48,38 -51,38 -46,35 -43,31 -38,30 -31,23 -25,18 -16,10 -5,5 -56,41 -20,46 -10,61 -5,58 -5,36 -11,25 -10,33 -15,38 z"
   id="path88"
   inkscape:connector-curvature="0"
   style="fill:#ffdd59;stroke:none" />
        </g>
       </g>
      </g>
     </g>
    </g>
   </g>
  </g>
 </g>
</svg>