<?xml version="1.0" encoding="UTF-8" standalone="no"?>
<svg
   xmlns:ooo="http://xml.openoffice.org/svg/export"
   xmlns:dc="http://purl.org/dc/elements/1.1/"
   xmlns:cc="http://creativecommons.org/ns#"
   xmlns:rdf="http://www.w3.org/1999/02/22-rdf-syntax-ns#"
   xmlns:svg="http://www.w3.org/2000/svg"
   xmlns="http://www.w3.org/2000/svg"
   xmlns:sodipodi="http://sodipodi.sourceforge.net/DTD/sodipodi-0.dtd"
   xmlns:inkscape="http://www.inkscape.org/namespaces/inkscape"
   version="1.2"
   width="185.83mm"
   height="187.75999mm"
   viewBox="0 0 18583 18775.999"
   preserveAspectRatio="xMidYMid"
   xml:space="preserve"
   id="svg383"
   sodipodi:docname="marquee2.svg"
   style="fill-rule:evenodd;stroke-width:28.22200012;stroke-linejoin:round"
   inkscape:version="0.92.5 (2060ec1f9f, 2020-04-08)"><metadata
   id="metadata387"><rdf:RDF><cc:Work
       rdf:about=""><dc:format>image/svg+xml</dc:format><dc:type
         rdf:resource="http://purl.org/dc/dcmitype/StillImage" /></cc:Work></rdf:RDF></metadata><sodipodi:namedview
   pagecolor="#ffffff"
   bordercolor="#666666"
   borderopacity="1"
   objecttolerance="10"
   gridtolerance="10"
   guidetolerance="10"
   inkscape:pageopacity="0"
   inkscape:pageshadow="2"
   inkscape:window-width="664"
   inkscape:window-height="487"
   id="namedview385"
   showgrid="false"
   inkscape:zoom="0.2102413"
   inkscape:cx="351.1937"
   inkscape:cy="354.82204"
   inkscape:window-x="0"
   inkscape:window-y="0"
   inkscape:window-maximized="0"
   inkscape:current-layer="svg383" />
 <defs
   class="ClipPathGroup"
   id="defs8">
  <clipPath
   id="presentation_clip_path"
   clipPathUnits="userSpaceOnUse">
   <rect
   x="0"
   y="0"
   width="21000"
   height="29700"
   id="rect2" />
  </clipPath>
  <clipPath
   id="presentation_clip_path_shrink"
   clipPathUnits="userSpaceOnUse">
   <rect
   x="21"
   y="29"
   width="20958"
   height="29641"
   id="rect5" />
  </clipPath>
 </defs>
 <defs
   class="TextShapeIndex"
   id="defs12">
  <g
   ooo:slide="id1"
   ooo:id-list="id3"
   id="g10" />
 </defs>
 <defs
   class="EmbeddedBulletChars"
   id="defs44">
  <g
   id="bullet-char-template-57356"
   transform="matrix(4.8828125e-4,0,0,-4.8828125e-4,0,0)">
   <path
   d="M 580,1141 1163,571 580,0 -4,571 Z"
   id="path14"
   inkscape:connector-curvature="0" />
  </g>
  <g
   id="bullet-char-template-57354"
   transform="matrix(4.8828125e-4,0,0,-4.8828125e-4,0,0)">
   <path
   d="M 8,1128 H 1137 V 0 H 8 Z"
   id="path17"
   inkscape:connector-curvature="0" />
  </g>
  <g
   id="bullet-char-template-10146"
   transform="matrix(4.8828125e-4,0,0,-4.8828125e-4,0,0)">
   <path
   d="M 174,0 602,739 174,1481 1456,739 Z M 1358,739 309,1346 659,739 Z"
   id="path20"
   inkscape:connector-curvature="0" />
  </g>
  <g
   id="bullet-char-template-10132"
   transform="matrix(4.8828125e-4,0,0,-4.8828125e-4,0,0)">
   <path
   d="M 2015,739 1276,0 H 717 l 543,543 H 174 v 393 h 1086 l -543,545 h 557 z"
   id="path23"
   inkscape:connector-curvature="0" />
  </g>
  <g
   id="bullet-char-template-10007"
   transform="matrix(4.8828125e-4,0,0,-4.8828125e-4,0,0)">
   <path
   d="m 0,-2 c -7,16 -16,29 -25,39 l 381,530 c -94,256 -141,385 -141,387 0,25 13,38 40,38 9,0 21,-2 34,-5 21,4 42,12 65,25 l 27,-13 111,-251 280,301 64,-25 24,25 c 21,-10 41,-24 62,-43 C 886,937 835,863 770,784 769,783 710,716 594,584 L 774,223 c 0,-27 -21,-55 -63,-84 l 16,-20 C 717,90 699,76 672,76 641,76 570,178 457,381 L 164,-76 c -22,-34 -53,-51 -92,-51 -42,0 -63,17 -64,51 -7,9 -10,24 -10,44 0,9 1,19 2,30 z"
   id="path26"
   inkscape:connector-curvature="0" />
  </g>
  <g
   id="bullet-char-template-10004"
   transform="matrix(4.8828125e-4,0,0,-4.8828125e-4,0,0)">
   <path
   d="M 285,-33 C 182,-33 111,30 74,156 52,228 41,333 41,471 c 0,78 14,145 41,201 34,71 87,106 158,106 53,0 88,-31 106,-94 l 23,-176 c 8,-64 28,-97 59,-98 l 735,706 c 11,11 33,17 66,17 42,0 63,-15 63,-46 V 965 c 0,-36 -10,-64 -30,-84 L 442,47 C 390,-6 338,-33 285,-33 Z"
   id="path29"
   inkscape:connector-curvature="0" />
  </g>
  <g
   id="bullet-char-template-9679"
   transform="matrix(4.8828125e-4,0,0,-4.8828125e-4,0,0)">
   <path
   d="M 813,0 C 632,0 489,54 383,161 276,268 223,411 223,592 c 0,181 53,324 160,431 106,107 249,161 430,161 179,0 323,-54 432,-161 108,-107 162,-251 162,-431 0,-180 -54,-324 -162,-431 C 1136,54 992,0 813,0 Z"
   id="path32"
   inkscape:connector-curvature="0" />
  </g>
  <g
   id="bullet-char-template-8226"
   transform="matrix(4.8828125e-4,0,0,-4.8828125e-4,0,0)">
   <path
   d="m 346,457 c -73,0 -137,26 -191,78 -54,51 -81,114 -81,188 0,73 27,136 81,188 54,52 118,78 191,78 73,0 134,-26 185,-79 51,-51 77,-114 77,-187 0,-75 -25,-137 -76,-188 -50,-52 -112,-78 -186,-78 z"
   id="path35"
   inkscape:connector-curvature="0" />
  </g>
  <g
   id="bullet-char-template-8211"
   transform="matrix(4.8828125e-4,0,0,-4.8828125e-4,0,0)">
   <path
   d="M -4,459 H 1135 V 606 H -4 Z"
   id="path38"
   inkscape:connector-curvature="0" />
  </g>
  <g
   id="bullet-char-template-61548"
   transform="matrix(4.8828125e-4,0,0,-4.8828125e-4,0,0)">
   <path
   d="m 173,740 c 0,163 58,303 173,419 116,115 255,173 419,173 163,0 302,-58 418,-173 116,-116 174,-256 174,-419 0,-163 -58,-303 -174,-418 C 1067,206 928,148 765,148 601,148 462,206 346,322 231,437 173,577 173,740 Z"
   id="path41"
   inkscape:connector-curvature="0" />
  </g>
 </defs>
 <g
   id="g49"
   transform="translate(-1208,-5462)">
  <g
   id="id2"
   class="Master_Slide">
   <g
   id="bg-id2"
   class="Background" />
   <g
   id="bo-id2"
   class="BackgroundObjects" />
  </g>
 </g>
 <g
   class="SlideGroup"
   id="g381"
   transform="translate(-1208,-5462)">
  <g
   id="g379">
   <g
   id="container-id1">
    <g
   id="id1"
   class="Slide"
   clip-path="url(#presentation_clip_path)">
     <g
   class="Page"
   id="g375">
      <g
   class="Graphic"
   id="g373">
       <g
   id="id3">
        <rect
   class="BoundingBox"
   x="1208"
   y="5462"
   width="18583"
   height="18776"
   id="rect51"
   style="fill:none;stroke:none" />
        <defs
   id="defs56">
         <clipPath
   id="clip_path_1"
   clipPathUnits="userSpaceOnUse">
          <path
   d="M 1208,5462 H 19790 V 24237 H 1208 Z"
   id="path53"
   inkscape:connector-curvature="0" />
         </clipPath>
        </defs>
        <g
   clip-path="url(#clip_path_1)"
   id="g370">
         <path
   d="m 3116,15842 14622,-208 71,348 z"
   id="path58"
   inkscape:connector-curvature="0"
   style="fill:#000000;stroke:none" />
         <path
   d="m 17754,15631 -16,-13 -14622,209 v 30 l 14622,-208 -15,-13 31,-5 -3,-15 -13,2 z"
   id="path60"
   inkscape:connector-curvature="0"
   style="fill:#000000;stroke:none" />
         <path
   d="m 17809,16000 16,-21 -71,-348 -31,5 71,348 15,-20 v 36 h 21 l -5,-21 z"
   id="path62"
   inkscape:connector-curvature="0"
   style="fill:#000000;stroke:none" />
         <path
   d="m 3116,15827 v 33 l 14693,140 v -36 L 3116,15824 v 33 z"
   id="path64"
   inkscape:connector-curvature="0"
   style="fill:#000000;stroke:none" />
         <path
   d="m 17599,20105 139,-4403 -419,140 z"
   id="path66"
   inkscape:connector-curvature="0"
   style="fill:#000000;stroke:none" />
         <path
   d="m 17743,15718 -20,-16 -140,4403 h 31 l 140,-4403 -21,-15 21,15 2,-23 -23,8 z"
   id="path68"
   inkscape:connector-curvature="0"
   style="fill:#000000;stroke:none" />
         <path
   d="m 17334,15842 -10,15 419,-139 -10,-31 -419,140 -10,15 10,-15 -13,5 3,10 z"
   id="path70"
   inkscape:connector-curvature="0"
   style="fill:#000000;stroke:none" />
         <path
   d="m 17583,20105 h 31 l -280,-4263 h -30 l 279,4263 h 31 z"
   id="path72"
   inkscape:connector-curvature="0"
   style="fill:#000000;stroke:none" />
         <path
   d="m 3466,19965 14133,140 -13922,211 z"
   id="path74"
   inkscape:connector-curvature="0"
   style="fill:#000000;stroke:none" />
         <path
   d="m 17599,20120 v -36 L 3466,19947 v 36 l 14133,140 v -33 z"
   id="path76"
   inkscape:connector-curvature="0"
   style="fill:#000000;stroke:none" />
         <path
   d="m 3665,20323 12,8 13922,-211 v -30 l -13922,210 13,8 -25,15 5,10 7,-2 z"
   id="path78"
   inkscape:connector-curvature="0"
   style="fill:#000000;stroke:none" />
         <path
   d="m 3466,19947 -12,26 211,350 25,-15 -211,-351 -13,26 v -36 h -30 l 18,26 z"
   id="path80"
   inkscape:connector-curvature="0"
   style="fill:#000000;stroke:none" />
         <path
   d="m 3395,15842 211,4263 -559,-4332 z"
   id="path82"
   inkscape:connector-curvature="0"
   style="fill:#000000;stroke:none" />
         <path
   d="m 3591,20105 h 30 l -210,-4263 h -31 l 211,4263 h 30 z"
   id="path84"
   inkscape:connector-curvature="0"
   style="fill:#000000;stroke:none" />
         <path
   d="m 3050,15758 -18,15 559,4332 h 30 l -559,-4332 -17,16 5,-31 -23,-5 5,20 z"
   id="path86"
   inkscape:connector-curvature="0"
   style="fill:#000000;stroke:none" />
         <path
   d="m 3411,15842 -13,-15 -348,-69 -5,31 348,68 -13,-15 h 31 v -13 l -13,-2 z"
   id="path88"
   inkscape:connector-curvature="0"
   style="fill:#000000;stroke:none" />
         <path
   d="m 7457,22904 -1331,-2588 280,-71 z"
   id="path90"
   inkscape:connector-curvature="0"
   style="fill:#000000;stroke:none" />
         <path
   d="m 6124,20300 -13,23 1331,2589 31,-15 -1332,-2589 -12,23 -5,-31 -23,5 10,18 z"
   id="path92"
   inkscape:connector-curvature="0"
   style="fill:#000000;stroke:none" />
         <path
   d="m 6421,20239 -18,-10 -279,71 5,31 279,-71 -18,-10 31,-11 -5,-15 -13,5 z"
   id="path94"
   inkscape:connector-curvature="0"
   style="fill:#000000;stroke:none" />
         <path
   d="m 7442,22912 31,-13 -1052,-2660 -31,11 1052,2659 31,-12 z"
   id="path96"
   inkscape:connector-curvature="0"
   style="fill:#000000;stroke:none" />
         <path
   d="M 1226,10243 3817,15842 1297,9964 Z"
   id="path98"
   inkscape:connector-curvature="0"
   style="fill:#000000;stroke:none" />
         <path
   d="m 3802,15847 30,-10 -2591,-5599 -30,10 2591,5599 30,-10 z"
   id="path100"
   inkscape:connector-curvature="0"
   style="fill:#000000;stroke:none" />
         <path
   d="m 1312,9966 -30,3 2520,5878 30,-10 -2520,-5879 -30,3 30,-3 -18,-48 -12,51 z"
   id="path102"
   inkscape:connector-curvature="0"
   style="fill:#000000;stroke:none" />
         <path
   d="m 1241,10238 v 8 l 71,-280 -30,-5 -71,279 v 8 -8 l -3,3 3,5 z"
   id="path104"
   inkscape:connector-curvature="0"
   style="fill:#000000;stroke:none" />
         <path
   d="m 5146,7723 -277,-71 1819,8121 z"
   id="path106"
   inkscape:connector-curvature="0"
   style="fill:#000000;stroke:none" />
         <path
   d="m 4881,7649 -17,18 279,71 5,-30 -279,-71 -18,17 18,-17 -26,-8 8,25 z"
   id="path108"
   inkscape:connector-curvature="0"
   style="fill:#000000;stroke:none" />
         <path
   d="m 6672,15776 31,-5 -1822,-8122 -30,5 1821,8122 31,-5 z"
   id="path110"
   inkscape:connector-curvature="0"
   style="fill:#000000;stroke:none" />
         <path
   d="m 5143,7738 -13,-13 1542,8051 31,-5 -1542,-8051 -13,-12 13,12 v -10 l -13,-2 z"
   id="path112"
   inkscape:connector-curvature="0"
   style="fill:#000000;stroke:none" />
         <path
   d="m 6337,15773 -1682,-8050 1121,6859 -696,-1260 696,2451 z"
   id="path114"
   inkscape:connector-curvature="0"
   style="fill:#000000;stroke:none" />
         <path
   d="m 4671,7720 -31,5 1682,8051 30,-5 -1681,-8051 -31,5 z"
   id="path116"
   inkscape:connector-curvature="0"
   style="fill:#000000;stroke:none" />
         <path
   d="m 5760,14590 31,-11 -1120,-6859 -31,5 1120,6860 31,-11 -31,16 46,78 -15,-89 z"
   id="path118"
   inkscape:connector-curvature="0"
   style="fill:#000000;stroke:none" />
         <path
   d="m 5092,13319 -30,11 698,1260 31,-16 -699,-1260 -30,10 30,-10 -66,-114 36,124 z"
   id="path120"
   inkscape:connector-curvature="0"
   style="fill:#000000;stroke:none" />
         <path
   d="m 5776,15756 15,15 -699,-2452 -30,5 698,2452 16,15 -16,-15 3,13 13,2 z"
   id="path122"
   inkscape:connector-curvature="0"
   style="fill:#000000;stroke:none" />
         <path
   d="m 6322,15776 15,-20 h -561 v 35 h 561 l 15,-20 -15,20 h 20 l -5,-20 z"
   id="path124"
   inkscape:connector-curvature="0"
   style="fill:#000000;stroke:none" />
         <path
   d="m 7107,20245 490,2730 -630,-2799 z"
   id="path126"
   inkscape:connector-curvature="0"
   style="fill:#000000;stroke:none" />
         <path
   d="m 7582,22978 30,-5 -490,-2734 -30,8 490,2731 30,-5 z"
   id="path128"
   inkscape:connector-curvature="0"
   style="fill:#000000;stroke:none" />
         <path
   d="m 6975,20161 -23,17 630,2800 30,-5 -630,-2800 -23,16 16,-28 -31,-16 8,33 z"
   id="path130"
   inkscape:connector-curvature="0"
   style="fill:#000000;stroke:none" />
         <path
   d="m 7122,20239 -8,-10 -139,-68 -16,28 140,71 -7,-13 30,-8 v -5 l -8,-5 z"
   id="path132"
   inkscape:connector-curvature="0"
   style="fill:#000000;stroke:none" />
         <path
   d="m 6967,20105 208,1400 -419,-1260 z"
   id="path134"
   inkscape:connector-curvature="0"
   style="fill:#000000;stroke:none" />
         <path
   d="m 7160,21507 31,-5 -209,-1400 -30,5 208,1400 31,-8 z"
   id="path136"
   inkscape:connector-curvature="0"
   style="fill:#000000;stroke:none" />
         <path
   d="m 6749,20232 -8,18 419,1257 31,-8 -420,-1260 -7,18 -15,-25 -13,7 5,11 z"
   id="path138"
   inkscape:connector-curvature="0"
   style="fill:#000000;stroke:none" />
         <path
   d="m 6982,20102 -23,-10 -210,140 15,25 211,-140 -23,-10 30,-5 -2,-25 -21,15 z"
   id="path140"
   inkscape:connector-curvature="0"
   style="fill:#000000;stroke:none" />
         <path
   d="M 1366,9542 3538,13462 1297,8772 Z"
   id="path142"
   inkscape:connector-curvature="0"
   style="fill:#000000;stroke:none" />
         <path
   d="m 3522,13469 31,-15 -2172,-3920 -31,15 2172,3920 31,-15 z"
   id="path144"
   inkscape:connector-curvature="0"
   style="fill:#000000;stroke:none" />
         <path
   d="m 1312,8772 -30,8 2240,4689 31,-15 -2241,-4689 -30,7 30,-7 -38,-82 8,89 z"
   id="path146"
   inkscape:connector-curvature="0"
   style="fill:#000000;stroke:none" />
         <path
   d="m 1381,9534 v 8 l -69,-770 h -30 l 68,770 v 7 -7 5 2 z"
   id="path148"
   inkscape:connector-curvature="0"
   style="fill:#000000;stroke:none" />
         <path
   d="M 1505,8279 3606,13533 1647,7723 Z"
   id="path150"
   inkscape:connector-curvature="0"
   style="fill:#000000;stroke:none" />
         <path
   d="m 3591,13538 30,-10 -2101,-5251 -30,10 2101,5251 30,-10 z"
   id="path152"
   inkscape:connector-curvature="0"
   style="fill:#000000;stroke:none" />
         <path
   d="m 1663,7725 -31,3 1959,5810 30,-10 -1958,-5810 -31,2 31,-2 -18,-56 -13,58 z"
   id="path154"
   inkscape:connector-curvature="0"
   style="fill:#000000;stroke:none" />
         <path
   d="m 1520,8277 v 7 l 143,-559 -31,-5 -142,559 v 8 -8 h -3 l 3,8 z"
   id="path156"
   inkscape:connector-curvature="0"
   style="fill:#000000;stroke:none" />
         <path
   d="M 1927,6671 3886,14303 1576,6813 Z"
   id="path158"
   inkscape:connector-curvature="0"
   style="fill:#000000;stroke:none" />
         <path
   d="m 3870,14308 31,-8 -1959,-7631 -30,5 1958,7631 31,-8 z"
   id="path160"
   inkscape:connector-curvature="0"
   style="fill:#000000;stroke:none" />
         <path
   d="m 1571,6798 -10,21 2309,7489 31,-11 -2309,-7489 -11,21 -10,-31 -12,3 2,18 z"
   id="path162"
   inkscape:connector-curvature="0"
   style="fill:#000000;stroke:none" />
         <path
   d="m 1942,6669 -20,-13 -351,142 10,31 351,-143 -20,-12 30,-5 -5,-21 -15,8 z"
   id="path164"
   inkscape:connector-curvature="0"
   style="fill:#000000;stroke:none" />
         <path
   d="M 4236,6882 5006,11084 3746,6532 Z"
   id="path166"
   inkscape:connector-curvature="0"
   style="fill:#000000;stroke:none" />
         <path
   d="m 4991,11086 30,-5 -770,-4201 -30,5 770,4201 30,-5 z"
   id="path168"
   inkscape:connector-curvature="0"
   style="fill:#000000;stroke:none" />
         <path
   d="m 3756,6519 -25,15 1260,4552 30,-5 -1260,-4552 -25,15 20,-25 -38,-28 13,43 z"
   id="path170"
   inkscape:connector-curvature="0"
   style="fill:#000000;stroke:none" />
         <path
   d="m 4251,6880 -5,-11 -490,-350 -20,25 490,351 -5,-10 30,-5 v -8 l -5,-3 z"
   id="path172"
   inkscape:connector-curvature="0"
   style="fill:#000000;stroke:none" />
         <path
   d="M 3538,8704 4869,13182 3886,9334 Z"
   id="path174"
   inkscape:connector-curvature="0"
   style="fill:#000000;stroke:none" />
         <path
   d="m 4851,13185 30,-5 -1328,-4479 -31,3 1329,4481 30,-5 z"
   id="path176"
   inkscape:connector-curvature="0"
   style="fill:#000000;stroke:none" />
         <path
   d="m 3870,9339 v -3 l 981,3849 30,-5 -980,-3849 v -5 5 -3 -2 z"
   id="path178"
   inkscape:connector-curvature="0"
   style="fill:#000000;stroke:none" />
         <path
   d="m 3553,8701 -31,10 348,628 31,-13 -348,-630 -31,8 31,-8 -66,-119 35,127 z"
   id="path180"
   inkscape:connector-curvature="0"
   style="fill:#000000;stroke:none" />
         <path
   d="m 14588,15563 1403,-7911 208,-351 z"
   id="path182"
   inkscape:connector-curvature="0"
   style="fill:#000000;stroke:none" />
         <path
   d="m 15975,7644 v 5 l -1402,7911 31,5 1402,-7911 v 5 l -31,-15 v 0 5 z"
   id="path184"
   inkscape:connector-curvature="0"
   style="fill:#000000;stroke:none" />
         <path
   d="m 16214,7304 -30,-10 -209,350 31,15 208,-350 -30,-10 30,5 18,-94 -48,84 z"
   id="path186"
   inkscape:connector-curvature="0"
   style="fill:#000000;stroke:none" />
         <path
   d="m 14573,15560 31,5 1610,-8261 -30,-5 -1611,8261 31,5 z"
   id="path188"
   inkscape:connector-curvature="0"
   style="fill:#000000;stroke:none" />
         <path
   d="m 16829,15773 2799,-5530 143,419 z"
   id="path190"
   inkscape:connector-curvature="0"
   style="fill:#000000;stroke:none" />
         <path
   d="m 19644,10238 -31,-3 -2799,5531 30,15 2800,-5530 -31,-3 31,-10 -13,-38 -18,35 z"
   id="path192"
   inkscape:connector-curvature="0"
   style="fill:#000000;stroke:none" />
         <path
   d="m 19788,10670 v -13 l -144,-419 -31,10 142,419 v -12 l 33,15 3,-8 -3,-5 z"
   id="path194"
   inkscape:connector-curvature="0"
   style="fill:#000000;stroke:none" />
         <path
   d="m 16814,15766 30,15 2944,-5111 -33,-15 -2941,5111 30,15 z"
   id="path196"
   inkscape:connector-curvature="0"
   style="fill:#000000;stroke:none" />
         <path
   d="m 13328,20176 -490,1959 772,-1959 z"
   id="path198"
   inkscape:connector-curvature="0"
   style="fill:#000000;stroke:none" />
         <path
   d="m 12823,22129 30,8 490,-1959 -30,-5 -490,1959 30,8 z"
   id="path200"
   inkscape:connector-curvature="0"
   style="fill:#000000;stroke:none" />
         <path
   d="m 13610,20194 -15,-23 -772,1958 30,11 772,-1959 -15,-23 15,23 11,-20 -26,-3 z"
   id="path202"
   inkscape:connector-curvature="0"
   style="fill:#000000;stroke:none" />
         <path
   d="m 13343,20178 -15,16 h 282 v -36 h -282 l -15,15 15,-15 -12,3 -3,12 z"
   id="path204"
   inkscape:connector-curvature="0"
   style="fill:#000000;stroke:none" />
         <path
   d="m 14520,20105 -1400,2380 1608,-2309 z"
   id="path206"
   inkscape:connector-curvature="0"
   style="fill:#000000;stroke:none" />
         <path
   d="m 13107,22478 28,15 1400,-2381 -31,-15 -1399,2381 28,15 z"
   id="path208"
   inkscape:connector-curvature="0"
   style="fill:#000000;stroke:none" />
         <path
   d="m 14723,20189 -8,-21 -1608,2310 26,15 1608,-2309 -8,-23 8,23 15,-16 -23,-7 z"
   id="path210"
   inkscape:connector-curvature="0"
   style="fill:#000000;stroke:none" />
         <path
   d="m 14535,20112 -20,8 208,69 10,-28 -208,-71 -21,7 21,-7 -13,-8 -8,15 z"
   id="path212"
   inkscape:connector-curvature="0"
   style="fill:#000000;stroke:none" />
         <path
   d="m 16621,7093 -841,4479 1120,-4410 z"
   id="path214"
   inkscape:connector-curvature="0"
   style="fill:#000000;stroke:none" />
         <path
   d="m 15764,11569 31,5 841,-4479 -31,-5 -841,4479 31,5 z"
   id="path216"
   inkscape:connector-curvature="0"
   style="fill:#000000;stroke:none" />
         <path
   d="m 16897,7177 -12,-18 -1121,4410 31,5 1120,-4410 -12,-18 12,18 5,-15 -17,-3 z"
   id="path218"
   inkscape:connector-curvature="0"
   style="fill:#000000;stroke:none" />
         <path
   d="m 16636,7095 -18,13 279,69 6,-31 -280,-68 -18,12 18,-12 -15,-5 -3,17 z"
   id="path220"
   inkscape:connector-curvature="0"
   style="fill:#000000;stroke:none" />
         <path
   d="m 18440,6882 -1891,5040 2030,-4829 z"
   id="path222"
   inkscape:connector-curvature="0"
   style="fill:#000000;stroke:none" />
         <path
   d="m 16534,11917 31,10 1890,-5040 -28,-10 -1893,5040 31,10 z"
   id="path224"
   inkscape:connector-curvature="0"
   style="fill:#000000;stroke:none" />
         <path
   d="m 18567,7101 -3,-13 -2030,4829 31,10 2029,-4829 -2,-13 2,13 3,-5 -5,-8 z"
   id="path226"
   inkscape:connector-curvature="0"
   style="fill:#000000;stroke:none" />
         <path
   d="m 18455,6887 -28,3 140,211 25,-16 -140,-211 -25,3 25,-3 -15,-30 -10,33 z"
   id="path228"
   inkscape:connector-curvature="0"
   style="fill:#000000;stroke:none" />
         <path
   d="m 19420,8561 -1750,3851 1890,-3429 z"
   id="path230"
   inkscape:connector-curvature="0"
   style="fill:#000000;stroke:none" />
         <path
   d="m 17655,12405 30,13 1750,-3852 -30,-10 -1750,3851 30,13 z"
   id="path232"
   inkscape:connector-curvature="0"
   style="fill:#000000;stroke:none" />
         <path
   d="m 19545,8988 v -13 l -1890,3430 30,15 1890,-3429 v -13 13 l 5,-8 -5,-5 z"
   id="path234"
   inkscape:connector-curvature="0"
   style="fill:#000000;stroke:none" />
         <path
   d="m 19435,8566 h -30 l 140,422 30,-10 -140,-422 h -30 30 l -12,-43 -18,43 z"
   id="path236"
   inkscape:connector-curvature="0"
   style="fill:#000000;stroke:none" />
         <path
   d="m 19560,9753 -1331,2591 1399,-2241 z"
   id="path238"
   inkscape:connector-curvature="0"
   style="fill:#000000;stroke:none" />
         <path
   d="m 18216,12336 28,16 1331,-2594 -30,-13 -1329,2591 25,16 z"
   id="path240"
   inkscape:connector-curvature="0"
   style="fill:#000000;stroke:none" />
         <path
   d="m 19613,10106 3,-10 -1400,2240 25,16 1400,-2241 3,-10 -3,10 5,-5 -2,-5 z"
   id="path242"
   inkscape:connector-curvature="0"
   style="fill:#000000;stroke:none" />
         <path
   d="m 19575,9758 -30,-3 68,351 31,-5 -69,-351 -30,-5 30,5 -8,-48 -22,43 z"
   id="path244"
   inkscape:connector-curvature="0"
   style="fill:#000000;stroke:none" />
         <path
   d="m 16689,15702 1679,-3503 -1468,2314 909,-2380 -1961,3709 z"
   id="path246"
   inkscape:connector-curvature="0"
   style="fill:#000000;stroke:none" />
         <path
   d="m 18381,12209 -28,-18 -1679,3504 30,15 1680,-3501 -28,-18 z"
   id="path248"
   inkscape:connector-curvature="0"
   style="fill:#000000;stroke:none" />
         <path
   d="m 16885,14508 28,13 1468,-2312 -25,-18 -1469,2315 28,12 -30,-10 -56,150 84,-137 z"
   id="path250"
   inkscape:connector-curvature="0"
   style="fill:#000000;stroke:none" />
         <path
   d="m 17825,12141 -31,-13 -909,2380 30,10 910,-2380 -31,-13 z"
   id="path252"
   inkscape:connector-curvature="0"
   style="fill:#000000;stroke:none" />
         <path
   d="m 15846,15827 18,23 1961,-3709 -31,-16 -1961,3709 18,23 -18,-23 -15,31 33,-8 z"
   id="path254"
   inkscape:connector-curvature="0"
   style="fill:#000000;stroke:none" />
         <path
   d="m 16674,15695 13,-8 -841,140 5,30 841,-139 12,-8 -12,8 h 7 l 5,-8 z"
   id="path256"
   inkscape:connector-curvature="0"
   style="fill:#000000;stroke:none" />
         <path
   d="m 14939,15702 561,-2588 -772,2728 z"
   id="path258"
   inkscape:connector-curvature="0"
   style="fill:#000000;stroke:none" />
         <path
   d="m 15516,13116 -31,-5 -561,2589 30,5 562,-2589 -31,-5 z"
   id="path260"
   inkscape:connector-curvature="0"
   style="fill:#000000;stroke:none" />
         <path
   d="m 14720,15829 23,16 773,-2729 -31,-5 -772,2728 23,16 -23,-16 -13,41 36,-25 z"
   id="path262"
   inkscape:connector-curvature="0"
   style="fill:#000000;stroke:none" />
         <path
   d="m 14924,15700 7,-10 -211,139 16,26 210,-140 8,-10 -8,10 8,-3 v -7 z"
   id="path264"
   inkscape:connector-curvature="0"
   style="fill:#000000;stroke:none" />
         <path
   d="m 13958,20176 -1260,2589 1751,-2589 z"
   id="path266"
   inkscape:connector-curvature="0"
   style="fill:#000000;stroke:none" />
         <path
   d="m 12686,22757 27,15 1260,-2588 -30,-16 -1260,2589 28,15 z"
   id="path268"
   inkscape:connector-curvature="0"
   style="fill:#000000;stroke:none" />
         <path
   d="m 14449,20194 -13,-26 -1750,2589 25,15 1750,-2588 -12,-26 12,26 21,-23 -33,-3 z"
   id="path270"
   inkscape:connector-curvature="0"
   style="fill:#000000;stroke:none" />
         <path
   d="m 13973,20184 -15,10 h 491 v -36 h -491 l -15,10 15,-10 h -10 l -5,10 z"
   id="path272"
   inkscape:connector-curvature="0"
   style="fill:#000000;stroke:none" />
         <path
   d="m 10099,23816 -1049,-3780 280,69 z"
   id="path274"
   inkscape:connector-curvature="0"
   style="fill:#000000;stroke:none" />
         <path
   d="m 9053,20021 -18,18 1049,3780 31,-5 -1050,-3783 -17,20 5,-30 -26,-8 8,26 z"
   id="path276"
   inkscape:connector-curvature="0"
   style="fill:#000000;stroke:none" />
         <path
   d="m 9345,20102 -13,-12 -279,-69 -5,30 279,69 -10,-13 28,-5 -3,-10 -10,-2 z"
   id="path278"
   inkscape:connector-curvature="0"
   style="fill:#000000;stroke:none" />
         <path
   d="m 10084,23819 31,-5 -770,-3712 -28,5 767,3712 31,-5 z"
   id="path280"
   inkscape:connector-curvature="0"
   style="fill:#000000;stroke:none" />
         <path
   d="m 10450,24235 1204,-4171 -277,71 z"
   id="path282"
   inkscape:connector-curvature="0"
   style="fill:#000000;stroke:none" />
         <path
   d="m 11657,20079 -16,-17 -1206,4171 30,5 1204,-4171 -17,-18 17,18 11,-26 -28,8 z"
   id="path284"
   inkscape:connector-curvature="0"
   style="fill:#000000;stroke:none" />
         <path
   d="m 11390,20135 -13,16 280,-72 -5,-30 -277,71 -16,13 16,-13 -13,3 -3,10 z"
   id="path286"
   inkscape:connector-curvature="0"
   style="fill:#000000;stroke:none" />
         <path
   d="m 10435,24233 30,5 925,-4103 -31,-2 -924,4100 30,5 z"
   id="path288"
   inkscape:connector-curvature="0"
   style="fill:#000000;stroke:none" />
         <path
   d="M 8001,15773 5689,7652 5760,7022 Z"
   id="path290"
   inkscape:connector-curvature="0"
   style="fill:#000000;stroke:none" />
         <path
   d="m 5674,7652 v 2 l 2312,8122 30,-5 -2311,-8122 v 3 h -31 -3 l 3,2 z"
   id="path292"
   inkscape:connector-curvature="0"
   style="fill:#000000;stroke:none" />
         <path
   d="m 5776,7019 -31,3 -71,630 h 31 l 71,-630 -31,2 31,-5 -21,-91 -10,94 z"
   id="path294"
   inkscape:connector-curvature="0"
   style="fill:#000000;stroke:none" />
         <path
   d="m 7986,15776 30,-5 -2240,-8752 -31,5 2241,8752 30,-5 z"
   id="path296"
   inkscape:connector-curvature="0"
   style="fill:#000000;stroke:none" />
         <path
   d="m 12353,15697 2311,-8121 -71,-630 z"
   id="path298"
   inkscape:connector-curvature="0"
   style="fill:#000000;stroke:none" />
         <path
   d="m 14649,7576 v -3 l -2312,8122 31,5 2312,-8122 v -2 2 l 2,-2 h -2 z"
   id="path300"
   inkscape:connector-curvature="0"
   style="fill:#000000;stroke:none" />
         <path
   d="m 14609,6948 -31,-2 71,630 h 31 l -71,-630 -31,-3 31,3 -11,-94 -20,91 z"
   id="path302"
   inkscape:connector-curvature="0"
   style="fill:#000000;stroke:none" />
         <path
   d="m 12337,15695 31,5 2241,-8752 -31,-5 -2241,8752 31,5 z"
   id="path304"
   inkscape:connector-curvature="0"
   style="fill:#000000;stroke:none" />
         <path
   d="m 12068,15634 1682,-6582 -1890,5461 698,-3289 -1671,4478 z"
   id="path306"
   inkscape:connector-curvature="0"
   style="fill:#000000;stroke:none" />
         <path
   d="m 13765,9057 -30,-8 -1682,6582 30,5 1682,-6582 -30,-8 z"
   id="path308"
   inkscape:connector-curvature="0"
   style="fill:#000000;stroke:none" />
         <path
   d="m 11845,14511 30,7 1890,-5461 -30,-11 -1890,5462 30,8 z"
   id="path310"
   inkscape:connector-curvature="0"
   style="fill:#000000;stroke:none" />
         <path
   d="m 12574,11229 -31,-8 -698,3290 30,5 699,-3290 -31,-7 z"
   id="path312"
   inkscape:connector-curvature="0"
   style="fill:#000000;stroke:none" />
         <path
   d="m 10887,15687 10,20 1677,-4478 -31,-10 -1671,4478 15,21 -15,-21 -10,23 25,-2 z"
   id="path314"
   inkscape:connector-curvature="0"
   style="fill:#000000;stroke:none" />
         <path
   d="m 12053,15631 15,-13 -1181,69 v 31 l 1181,-69 15,-13 -15,13 h 13 l 2,-13 z"
   id="path316"
   inkscape:connector-curvature="0"
   style="fill:#000000;stroke:none" />
         <path
   d="m 11019,20245 -694,3081 v -1890 l -279,490 -140,-1610 z"
   id="path318"
   inkscape:connector-curvature="0"
   style="fill:#000000;stroke:none" />
         <path
   d="m 10308,23326 33,3 693,-3082 -28,-8 -696,3084 33,3 h -35 v 142 l 33,-139 z"
   id="path320"
   inkscape:connector-curvature="0"
   style="fill:#000000;stroke:none" />
         <path
   d="m 10341,21444 -33,-8 v 1890 h 35 v -1890 l -33,-8 33,8 v -64 l -33,56 z"
   id="path322"
   inkscape:connector-curvature="0"
   style="fill:#000000;stroke:none" />
         <path
   d="m 10031,21926 30,8 280,-490 -31,-16 -279,491 30,7 h -30 l 2,56 28,-48 z"
   id="path324"
   inkscape:connector-curvature="0"
   style="fill:#000000;stroke:none" />
         <path
   d="m 9906,20300 -15,16 140,1610 h 30 l -139,-1610 -16,15 v -31 h -17 l 2,16 z"
   id="path326"
   inkscape:connector-curvature="0"
   style="fill:#000000;stroke:none" />
         <path
   d="m 11034,20247 -15,-18 -1113,71 v 31 l 1113,-71 -13,-21 28,8 5,-20 -20,2 z"
   id="path328"
   inkscape:connector-curvature="0"
   style="fill:#000000;stroke:none" />
         <path
   d="M 8367,15773 6477,8142 8926,15842 Z"
   id="path330"
   inkscape:connector-curvature="0"
   style="fill:#000000;stroke:none" />
         <path
   d="m 6492,8137 -30,8 1890,7631 30,-5 -1890,-7631 -30,7 z"
   id="path332"
   inkscape:connector-curvature="0"
   style="fill:#000000;stroke:none" />
         <path
   d="m 8926,15857 15,-20 -2449,-7700 -30,10 2448,7700 16,-20 v 30 l 23,5 -8,-25 z"
   id="path334"
   inkscape:connector-curvature="0"
   style="fill:#000000;stroke:none" />
         <path
   d="m 8352,15776 15,13 559,68 v -30 l -559,-69 15,13 -30,5 2,13 h 13 z"
   id="path336"
   inkscape:connector-curvature="0"
   style="fill:#000000;stroke:none" />
         <path
   d="m 7737,6813 841,5041 -562,-5602 z"
   id="path338"
   inkscape:connector-curvature="0"
   style="fill:#000000;stroke:none" />
         <path
   d="m 8562,11854 31,-3 -841,-5040 -30,5 840,5040 31,-2 z"
   id="path340"
   inkscape:connector-curvature="0"
   style="fill:#000000;stroke:none" />
         <path
   d="m 8032,6260 -31,-8 561,5602 h 31 l -561,-5602 -31,-8 31,8 -6,-61 -25,53 z"
   id="path342"
   inkscape:connector-curvature="0"
   style="fill:#000000;stroke:none" />
         <path
   d="m 7752,6811 v 10 l 280,-561 -31,-16 -279,562 v 10 -10 l -3,5 3,5 z"
   id="path344"
   inkscape:connector-curvature="0"
   style="fill:#000000;stroke:none" />
         <path
   d="m 12558,5482 -698,3430 978,-3359 z"
   id="path346"
   inkscape:connector-curvature="0"
   style="fill:#000000;stroke:none" />
         <path
   d="m 11845,8909 30,5 699,-3429 -31,-5 -698,3429 30,5 z"
   id="path348"
   inkscape:connector-curvature="0"
   style="fill:#000000;stroke:none" />
         <path
   d="m 12835,5569 -12,-18 -978,3358 30,5 978,-3358 -13,-18 13,18 5,-15 -18,-3 z"
   id="path350"
   inkscape:connector-curvature="0"
   style="fill:#000000;stroke:none" />
         <path
   d="m 12574,5485 -18,13 279,71 5,-31 -279,-71 -18,13 18,-13 -15,-5 -3,18 z"
   id="path352"
   inkscape:connector-curvature="0"
   style="fill:#000000;stroke:none" />
         <path
   d="m 13272,5896 -1623,5747 1905,-5675 z"
   id="path354"
   inkscape:connector-curvature="0"
   style="fill:#000000;stroke:none" />
         <path
   d="m 11634,11638 30,7 1624,-5746 -31,-5 -1623,5746 30,8 z"
   id="path356"
   inkscape:connector-curvature="0"
   style="fill:#000000;stroke:none" />
         <path
   d="m 13552,5983 -13,-21 -1905,5676 30,10 1906,-5675 -13,-21 13,21 5,-18 -18,-3 z"
   id="path358"
   inkscape:connector-curvature="0"
   style="fill:#000000;stroke:none" />
         <path
   d="m 13288,5899 -18,13 282,71 5,-31 -282,-71 -18,13 18,-13 -13,-5 -5,18 z"
   id="path360"
   inkscape:connector-curvature="0"
   style="fill:#000000;stroke:none" />
         <path
   d="m 10186,14653 -140,-6021 140,-840 z"
   id="path362"
   inkscape:connector-curvature="0"
   style="fill:#000000;stroke:none" />
         <path
   d="m 10031,8630 v 2 l 140,6021 h 30 l -140,-6021 v 3 l -30,-5 -3,2 h 3 z"
   id="path364"
   inkscape:connector-curvature="0"
   style="fill:#000000;stroke:none" />
         <path
   d="m 10204,7792 -33,-3 -140,841 30,5 140,-841 -33,-2 z"
   id="path366"
   inkscape:connector-curvature="0"
   style="fill:#000000;stroke:none" />
         <path
   d="m 10171,14653 h 33 V 7792 h -36 v 6861 h 33 z"
   id="path368"
   inkscape:connector-curvature="0"
   style="fill:#000000;stroke:none" />
        </g>
       </g>
      </g>
     </g>
    </g>
   </g>
  </g>
 </g>
</svg>