<?xml version="1.0" encoding="UTF-8" standalone="no"?>
<svg
   xmlns:ooo="http://xml.openoffice.org/svg/export"
   xmlns:dc="http://purl.org/dc/elements/1.1/"
   xmlns:cc="http://creativecommons.org/ns#"
   xmlns:rdf="http://www.w3.org/1999/02/22-rdf-syntax-ns#"
   xmlns:svg="http://www.w3.org/2000/svg"
   xmlns="http://www.w3.org/2000/svg"
   xmlns:sodipodi="http://sodipodi.sourceforge.net/DTD/sodipodi-0.dtd"
   xmlns:inkscape="http://www.inkscape.org/namespaces/inkscape"
   version="1.2"
   width="33.200001mm"
   height="18.389999mm"
   viewBox="0 0 3320.0001 1838.9999"
   preserveAspectRatio="xMidYMid"
   xml:space="preserve"
   id="svg172"
   sodipodi:docname="marquee1.svg"
   style="fill-rule:evenodd;stroke-width:28.22200012;stroke-linejoin:round"
   inkscape:version="0.92.5 (2060ec1f9f, 2020-04-08)"><metadata
   id="metadata176"><rdf:RDF><cc:Work
       rdf:about=""><dc:format>image/svg+xml</dc:format><dc:type
         rdf:resource="http://purl.org/dc/dcmitype/StillImage" /></cc:Work></rdf:RDF></metadata><sodipodi:namedview
   pagecolor="#ffffff"
   bordercolor="#666666"
   borderopacity="1"
   objecttolerance="10"
   gridtolerance="10"
   guidetolerance="10"
   inkscape:pageopacity="0"
   inkscape:pageshadow="2"
   inkscape:window-width="664"
   inkscape:window-height="487"
   id="namedview174"
   showgrid="false"
   inkscape:zoom="0.2102413"
   inkscape:cx="62.740158"
   inkscape:cy="34.733857"
   inkscape:window-x="0"
   inkscape:window-y="0"
   inkscape:window-maximized="0"
   inkscape:current-layer="svg172" />
 <defs
   class="ClipPathGroup"
   id="defs8">
  <clipPath
   id="presentation_clip_path"
   clipPathUnits="userSpaceOnUse">
   <rect
   x="0"
   y="0"
   width="21000"
   height="29700"
   id="rect2" />
  </clipPath>
  <clipPath
   id="presentation_clip_path_shrink"
   clipPathUnits="userSpaceOnUse">
   <rect
   x="21"
   y="29"
   width="20958"
   height="29641"
   id="rect5" />
  </clipPath>
 </defs>
 <defs
   class="TextShapeIndex"
   id="defs12">
  <g
   ooo:slide="id1"
   ooo:id-list="id3"
   id="g10" />
 </defs>
 <defs
   class="EmbeddedBulletChars"
   id="defs44">
  <g
   id="bullet-char-template-57356"
   transform="matrix(4.8828125e-4,0,0,-4.8828125e-4,0,0)">
   <path
   d="M 580,1141 1163,571 580,0 -4,571 Z"
   id="path14"
   inkscape:connector-curvature="0" />
  </g>
  <g
   id="bullet-char-template-57354"
   transform="matrix(4.8828125e-4,0,0,-4.8828125e-4,0,0)">
   <path
   d="M 8,1128 H 1137 V 0 H 8 Z"
   id="path17"
   inkscape:connector-curvature="0" />
  </g>
  <g
   id="bullet-char-template-10146"
   transform="matrix(4.8828125e-4,0,0,-4.8828125e-4,0,0)">
   <path
   d="M 174,0 602,739 174,1481 1456,739 Z M 1358,739 309,1346 659,739 Z"
   id="path20"
   inkscape:connector-curvature="0" />
  </g>
  <g
   id="bullet-char-template-10132"
   transform="matrix(4.8828125e-4,0,0,-4.8828125e-4,0,0)">
   <path
   d="M 2015,739 1276,0 H 717 l 543,543 H 174 v 393 h 1086 l -543,545 h 557 z"
   id="path23"
   inkscape:connector-curvature="0" />
  </g>
  <g
   id="bullet-char-template-10007"
   transform="matrix(4.8828125e-4,0,0,-4.8828125e-4,0,0)">
   <path
   d="m 0,-2 c -7,16 -16,29 -25,39 l 381,530 c -94,256 -141,385 -141,387 0,25 13,38 40,38 9,0 21,-2 34,-5 21,4 42,12 65,25 l 27,-13 111,-251 280,301 64,-25 24,25 c 21,-10 41,-24 62,-43 C 886,937 835,863 770,784 769,783 710,716 594,584 L 774,223 c 0,-27 -21,-55 -63,-84 l 16,-20 C 717,90 699,76 672,76 641,76 570,178 457,381 L 164,-76 c -22,-34 -53,-51 -92,-51 -42,0 -63,17 -64,51 -7,9 -10,24 -10,44 0,9 1,19 2,30 z"
   id="path26"
   inkscape:connector-curvature="0" />
  </g>
  <g
   id="bullet-char-template-10004"
   transform="matrix(4.8828125e-4,0,0,-4.8828125e-4,0,0)">
   <path
   d="M 285,-33 C 182,-33 111,30 74,156 52,228 41,333 41,471 c 0,78 14,145 41,201 34,71 87,106 158,106 53,0 88,-31 106,-94 l 23,-176 c 8,-64 28,-97 59,-98 l 735,706 c 11,11 33,17 66,17 42,0 63,-15 63,-46 V 965 c 0,-36 -10,-64 -30,-84 L 442,47 C 390,-6 338,-33 285,-33 Z"
   id="path29"
   inkscape:connector-curvature="0" />
  </g>
  <g
   id="bullet-char-template-9679"
   transform="matrix(4.8828125e-4,0,0,-4.8828125e-4,0,0)">
   <path
   d="M 813,0 C 632,0 489,54 383,161 276,268 223,411 223,592 c 0,181 53,324 160,431 106,107 249,161 430,161 179,0 323,-54 432,-161 108,-107 162,-251 162,-431 0,-180 -54,-324 -162,-431 C 1136,54 992,0 813,0 Z"
   id="path32"
   inkscape:connector-curvature="0" />
  </g>
  <g
   id="bullet-char-template-8226"
   transform="matrix(4.8828125e-4,0,0,-4.8828125e-4,0,0)">
   <path
   d="m 346,457 c -73,0 -137,26 -191,78 -54,51 -81,114 -81,188 0,73 27,136 81,188 54,52 118,78 191,78 73,0 134,-26 185,-79 51,-51 77,-114 77,-187 0,-75 -25,-137 -76,-188 -50,-52 -112,-78 -186,-78 z"
   id="path35"
   inkscape:connector-curvature="0" />
  </g>
  <g
   id="bullet-char-template-8211"
   transform="matrix(4.8828125e-4,0,0,-4.8828125e-4,0,0)">
   <path
   d="M -4,459 H 1135 V 606 H -4 Z"
   id="path38"
   inkscape:connector-curvature="0" />
  </g>
  <g
   id="bullet-char-template-61548"
   transform="matrix(4.8828125e-4,0,0,-4.8828125e-4,0,0)">
   <path
   d="m 173,740 c 0,163 58,303 173,419 116,115 255,173 419,173 163,0 302,-58 418,-173 116,-116 174,-256 174,-419 0,-163 -58,-303 -174,-418 C 1067,206 928,148 765,148 601,148 462,206 346,322 231,437 173,577 173,740 Z"
   id="path41"
   inkscape:connector-curvature="0" />
  </g>
 </defs>
 <g
   id="g49"
   transform="translate(-8840,-13930)">
  <g
   id="id2"
   class="Master_Slide">
   <g
   id="bg-id2"
   class="Background" />
   <g
   id="bo-id2"
   class="BackgroundObjects" />
  </g>
 </g>
 <g
   class="SlideGroup"
   id="g170"
   transform="translate(-8840,-13930)">
  <g
   id="g168">
   <g
   id="container-id1">
    <g
   id="id1"
   class="Slide"
   clip-path="url(#presentation_clip_path)">
     <g
   class="Page"
   id="g164">
      <g
   class="Graphic"
   id="g162">
       <g
   id="id3">
        <rect
   class="BoundingBox"
   x="8840"
   y="13930"
   width="3320"
   height="1839"
   id="rect51"
   style="fill:none;stroke:none" />
        <path
   d="m 11929,15499 -501,-173 h -925 v 16 h 922 l 491,170 z"
   id="path53"
   inkscape:connector-curvature="0"
   style="fill:#000000;stroke:none" />
        <path
   d="m 11875,15548 -493,-163 h -879 v 15 h 874 l 486,160 z"
   id="path55"
   inkscape:connector-curvature="0"
   style="fill:#000000;stroke:none" />
        <path
   d="m 11822,15599 -486,-156 h -833 v 16 h 828 l 478,152 z"
   id="path57"
   inkscape:connector-curvature="0"
   style="fill:#000000;stroke:none" />
        <path
   d="m 11766,15649 -475,-147 h -788 v 15 h 785 l 465,148 z"
   id="path59"
   inkscape:connector-curvature="0"
   style="fill:#000000;stroke:none" />
        <path
   d="m 11715,15700 -460,-140 h -752 v 16 h 749 l 448,137 z"
   id="path61"
   inkscape:connector-curvature="0"
   style="fill:#000000;stroke:none" />
        <path
   d="m 9071,15499 501,-173 h 931 v 16 h -926 l -490,170 z"
   id="path63"
   inkscape:connector-curvature="0"
   style="fill:#000000;stroke:none" />
        <path
   d="m 9125,15548 495,-163 h 883 v 15 h -880 l -483,160 z"
   id="path65"
   inkscape:connector-curvature="0"
   style="fill:#000000;stroke:none" />
        <path
   d="m 9178,15599 488,-156 h 837 v 16 h -834 l -476,152 z"
   id="path67"
   inkscape:connector-curvature="0"
   style="fill:#000000;stroke:none" />
        <path
   d="m 9234,15649 475,-147 h 794 v 15 h -791 l -463,148 z"
   id="path69"
   inkscape:connector-curvature="0"
   style="fill:#000000;stroke:none" />
        <path
   d="m 9287,15700 461,-140 h 755 v 16 h -753 l -450,137 z"
   id="path71"
   inkscape:connector-curvature="0"
   style="fill:#000000;stroke:none" />
        <path
   d="m 11680,15240 378,150 8,-3 8,-10 v -7 l -3,-11 -376,-147 h -10 l -5,10 -3,10 z"
   id="path73"
   inkscape:connector-curvature="0"
   style="fill:#000000;stroke:none" />
        <path
   d="m 11568,15263 462,186 8,-3 8,-8 v -10 l -3,-7 -460,-186 -10,5 -5,8 -3,10 z"
   id="path75"
   inkscape:connector-curvature="0"
   style="fill:#000000;stroke:none" />
        <path
   d="m 11341,15749 h -838 v -49 h 838 l 13,8 3,15 -3,18 z"
   id="path77"
   inkscape:connector-curvature="0"
   style="fill:#000000;stroke:none" />
        <path
   d="m 10968,15169 h -465 v 33 h 5 12 23 28 33 38 41 43 41 41 40 36 30 26 15 10 l 15,-5 6,-13 -6,-10 z"
   id="path79"
   inkscape:connector-curvature="0"
   style="fill:#000000;stroke:none" />
        <path
   d="m 9320,15240 -378,150 -8,-3 -5,-10 -3,-7 3,-11 379,-147 h 7 l 8,10 3,10 z"
   id="path81"
   inkscape:connector-curvature="0"
   style="fill:#000000;stroke:none" />
        <path
   d="m 9432,15263 -462,186 -8,-3 -5,-8 -3,-10 3,-7 463,-186 10,5 5,8 2,10 z"
   id="path83"
   inkscape:connector-curvature="0"
   style="fill:#000000;stroke:none" />
        <path
   d="m 9661,15749 h 842 v -49 h -842 l -10,8 -5,15 5,18 z"
   id="path85"
   inkscape:connector-curvature="0"
   style="fill:#000000;stroke:none" />
        <path
   d="m 9669,15131 12,2 21,10 15,31 8,58 v 0 h 778 v 33 h -834 z"
   id="path87"
   inkscape:connector-curvature="0"
   style="fill:#000000;stroke:none" />
        <path
   d="m 10035,15169 h 468 v 33 h -6 -15 -20 -28 -36 -38 -40 -44 -40 -44 -38 -35 -33 -26 -15 -10 l -13,-5 -5,-13 5,-10 z"
   id="path89"
   inkscape:connector-curvature="0"
   style="fill:#000000;stroke:none" />
        <path
   d="m 11331,15131 -12,2 -18,10 -15,31 -8,58 v 0 h -775 v 33 h 828 z"
   id="path91"
   inkscape:connector-curvature="0"
   style="fill:#000000;stroke:none" />
        <path
   d="m 10503,15169 v -89 l 17,7 8,23 5,31 v 28 z"
   id="path93"
   inkscape:connector-curvature="0"
   style="fill:#000000;stroke:none" />
        <path
   d="m 11026,15049 -25,-18 -28,-15 -31,-13 -33,-12 -33,-8 -35,-8 -33,-2 -36,2 31,-15 38,-7 43,2 43,8 43,12 41,16 33,17 25,18 z"
   id="path95"
   inkscape:connector-curvature="0"
   style="fill:#000000;stroke:none" />
        <path
   d="m 10952,15092 -15,-10 -18,-12 -20,-11 -23,-12 -23,-11 -23,-10 -22,-7 -23,-8 h 35 l 36,3 30,7 31,8 25,13 21,10 17,10 13,8 z"
   id="path97"
   inkscape:connector-curvature="0"
   style="fill:#000000;stroke:none" />
        <path
   d="m 10884,15133 -5,-8 -8,-10 -10,-10 -13,-13 -12,-12 -13,-10 -13,-13 -10,-8 13,3 17,5 18,7 18,8 18,10 18,10 12,8 11,8 z"
   id="path99"
   inkscape:connector-curvature="0"
   style="fill:#000000;stroke:none" />
        <path
   d="m 10503,15169 v -89 l -18,7 -8,23 -5,31 v 28 z"
   id="path101"
   inkscape:connector-curvature="0"
   style="fill:#000000;stroke:none" />
        <path
   d="m 9974,15049 25,-18 28,-15 31,-13 33,-12 33,-8 35,-8 33,-2 36,2 -31,-15 -38,-7 -43,2 -43,8 -43,12 -41,16 -33,17 -25,18 z"
   id="path103"
   inkscape:connector-curvature="0"
   style="fill:#000000;stroke:none" />
        <path
   d="m 10050,15092 15,-10 18,-12 18,-11 23,-12 23,-11 23,-10 22,-7 23,-8 h -35 l -36,3 -30,7 -28,8 -28,13 -21,10 -17,10 -13,8 z"
   id="path105"
   inkscape:connector-curvature="0"
   style="fill:#000000;stroke:none" />
        <path
   d="m 10116,15133 5,-8 10,-10 11,-10 12,-13 13,-12 13,-10 10,-13 10,-8 -13,3 -15,5 -18,7 -20,8 -18,10 -18,10 -12,8 -11,8 z"
   id="path107"
   inkscape:connector-curvature="0"
   style="fill:#000000;stroke:none" />
        <path
   d="m 11105,15232 v -140 l -23,21 v 119 z"
   id="path109"
   inkscape:connector-curvature="0"
   style="fill:#000000;stroke:none" />
        <path
   d="m 11992,15146 8,-10 7,-11 11,-5 10,-7 13,-3 10,-2 h 12 l 13,2 13,5 15,5 13,11 12,10 11,12 10,16 5,18 2,20 v 20 l -5,21 -5,17 -10,18 -15,13 -18,13 -20,7 -23,3 -38,-15 40,-11 33,-15 18,-20 13,-23 v -26 l -5,-22 -15,-23 -21,-21 13,18 8,18 2,20 -5,21 -10,20 -13,15 -18,10 -20,8 -23,5 h -23 -25 l -26,-2 -45,-13 -44,-21 -40,-25 -36,-30 -30,-34 -26,-30 -23,-31 -15,-25 -15,-23 -18,-23 -18,-20 -20,-21 -18,-17 -20,-13 -18,-10 -18,-5 h -15 -18 l -12,5 -16,5 -10,10 -10,10 -8,15 -2,16 v 23 l 7,20 13,13 20,7 h 18 l 10,-10 v -15 l -10,-15 21,-21 20,-7 h 23 l 23,7 20,16 18,20 12,25 6,26 v 15 l -3,18 -5,18 -10,20 -13,20 -18,16 -23,12 -30,5 h -48 l -41,-7 -33,-13 -31,-20 -25,-21 -20,-25 -18,-26 -15,-27 -21,10 -12,17 -6,21 -2,20 v 94 h -20 v -66 -28 l 2,-33 15,-35 33,-26 -2,-5 -3,-8 -2,-5 v -7 l -21,10 -17,13 -16,12 -10,16 -7,15 -5,18 -6,17 v 16 96 h -20 v -91 -18 l 3,-18 5,-20 7,-21 13,-17 18,-21 23,-15 30,-15 v -5 -5 -8 -8 l -28,8 -25,13 -23,17 -20,21 -18,25 -13,31 -8,30 -2,36 v 81 h -20 v -61 -33 l 5,-33 7,-33 16,-30 20,-28 28,-28 38,-28 48,-26 5,-15 11,-20 12,-21 21,-25 25,-21 28,-20 36,-13 38,-5 40,3 39,7 35,13 36,15 30,21 28,20 23,26 23,25 20,28 23,30 23,34 25,33 23,30 28,31 26,28 28,20 v 10 l -33,-20 -33,-28 -33,-33 -31,-36 -30,-38 -26,-33 -23,-28 -15,-23 -15,-18 -21,-18 -23,-17 -25,-18 -30,-13 -33,-10 -36,-8 h -38 l -43,8 -36,18 -28,23 -23,28 -15,33 -10,35 v 33 l 5,31 13,30 15,26 20,25 20,23 26,18 25,13 26,10 28,5 h 43 l 33,-13 20,-18 13,-22 5,-23 v -23 l -5,-21 -8,-15 3,21 v 20 l -8,18 -10,17 -18,13 -20,10 -23,5 h -30 l -31,-7 -28,-13 -23,-15 -20,-23 -15,-23 -11,-23 -7,-25 -3,-26 v -20 l 5,-20 8,-23 15,-23 16,-18 22,-18 31,-13 33,-7 h 38 l 33,7 33,13 31,18 25,23 23,20 18,23 15,18 10,15 18,23 23,31 28,33 33,35 35,33 36,31 36,23 17,7 18,3 16,3 12,-3 10,-5 8,-5 8,-5 5,-8 v -15 l -5,-15 -13,-11 -13,-2 41,-3 15,16 8,20 -8,25 -25,21 -18,5 -15,2 h -18 l -20,-2 -18,-5 -18,-8 -20,-10 -18,-10 -28,-21 -26,-20 -20,-23 -20,-25 -21,-26 -20,-28 -23,-30 -28,-33 -28,-33 -28,-26 -25,-20 -26,-13 -25,-10 -23,-5 h -25 l -23,2 -26,8 -20,10 -18,15 -12,18 -11,21 -5,22 v 23 l 3,26 5,20 10,18 13,15 13,15 17,11 16,10 17,5 18,2 h 13 l 13,-2 10,-5 13,-5 10,-8 7,-8 8,-10 5,-10 3,-20 -8,-21 -15,-12 h -26 l 8,12 2,18 -2,18 -18,15 -15,5 h -15 l -16,-2 -15,-8 -13,-7 -10,-8 -7,-10 -6,-8 -10,-30 3,-36 15,-38 36,-26 45,-10 41,5 36,18 33,28 33,38 30,41 31,41 30,43 33,36 31,30 28,23 28,15 25,13 26,8 23,5 22,2 h 21 l 20,-2 15,-3 18,-8 13,-7 10,-8 8,-12 2,-13 -2,-26 -11,-20 -15,-13 h -20 z"
   id="path111"
   inkscape:connector-curvature="0"
   style="fill:#000000;stroke:none" />
        <path
   d="m 9898,15232 v -140 l 20,21 v 119 z"
   id="path113"
   inkscape:connector-curvature="0"
   style="fill:#000000;stroke:none" />
        <path
   d="m 9008,15146 -8,-10 -7,-11 -8,-5 -10,-7 -13,-3 -13,-2 h -12 l -13,2 -13,5 -15,5 -13,11 -12,10 -11,12 -10,16 -5,18 -2,20 v 20 l 5,21 7,17 10,18 13,13 18,13 20,7 23,3 41,-15 -41,-11 -33,-15 -20,-20 -10,-23 -3,-26 8,-22 12,-23 21,-21 -10,18 -8,18 -3,20 5,21 11,20 12,15 18,10 20,8 23,5 h 23 26 l 25,-2 46,-13 43,-21 41,-25 35,-30 31,-34 25,-30 23,-31 15,-25 16,-23 15,-23 18,-20 20,-21 20,-17 18,-13 20,-10 18,-5 h 16 17 l 13,5 15,5 10,10 11,10 5,15 2,16 v 23 l -5,20 -13,13 -20,7 h -18 l -10,-10 v -15 l 10,-15 -20,-21 -20,-7 h -23 l -23,7 -20,16 -18,20 -13,25 -5,26 v 15 l 3,18 5,18 7,20 15,20 18,16 23,12 28,5 h 48 l 41,-7 36,-13 30,-20 26,-21 20,-25 18,-26 15,-27 20,10 13,17 5,21 3,20 v 94 h 20 v -66 -28 l -3,-33 -15,-35 -33,-26 v -5 l 3,-8 2,-5 3,-7 20,10 18,13 13,12 12,16 8,15 5,18 3,17 v 16 96 h 22 v -91 -18 l -2,-18 -5,-20 -8,-21 -13,-17 -17,-21 -23,-15 -31,-15 v -5 -5 -8 l -2,-8 28,8 25,13 23,17 20,21 18,25 13,31 8,30 2,36 v 81 h 20 v -61 -33 l -5,-33 -7,-33 -13,-30 -20,-28 -31,-28 -38,-28 -48,-26 -5,-15 -8,-20 -15,-21 -21,-25 -22,-21 -31,-20 -33,-13 -41,-5 -40,3 -39,7 -35,13 -36,15 -30,21 -28,20 -23,26 -23,25 -20,28 -21,30 -22,34 -26,33 -25,30 -26,31 -28,28 -25,20 -3,10 33,-20 36,-28 33,-33 31,-36 30,-38 25,-33 23,-28 16,-23 15,-18 18,-18 23,-17 27,-18 28,-13 33,-10 36,-8 h 41 l 40,8 36,18 31,23 22,28 16,33 7,35 3,33 -5,31 -13,30 -15,26 -21,25 -22,23 -23,18 -28,13 -26,10 -28,5 h -43 l -30,-13 -21,-18 -12,-22 -8,-23 v -23 l 5,-21 8,-15 -3,21 3,20 5,18 12,17 16,13 20,10 25,5 h 28 l 31,-7 28,-13 23,-15 20,-23 15,-23 11,-23 7,-25 5,-26 -2,-20 -3,-20 -10,-23 -13,-23 -18,-18 -22,-18 -28,-13 -36,-7 h -38 l -33,7 -33,13 -31,18 -25,23 -23,20 -18,23 -15,18 -10,15 -18,23 -23,31 -28,33 -33,35 -33,33 -38,31 -36,23 -17,7 -18,3 -13,3 -13,-3 -12,-5 -8,-5 -5,-5 -5,-8 -3,-15 8,-15 10,-11 13,-2 -38,-3 -16,16 -7,20 5,25 25,21 18,5 18,2 h 18 l 20,-2 18,-5 18,-8 20,-10 18,-10 28,-21 23,-20 20,-23 20,-25 21,-26 20,-28 25,-30 26,-33 28,-33 28,-26 25,-20 26,-13 25,-10 23,-5 h 25 l 23,2 26,8 22,10 16,15 15,18 8,21 5,22 v 23 l -3,26 -5,20 -10,18 -10,15 -16,15 -15,11 -15,10 -18,5 -18,2 h -12 l -13,-2 -13,-5 -13,-5 -10,-8 -7,-8 -5,-10 -5,-10 -3,-20 5,-21 15,-12 h 26 l -8,12 -2,18 5,18 17,15 16,5 h 15 l 15,-2 15,-8 13,-7 10,-8 8,-10 5,-8 8,-30 v -36 l -16,-38 -35,-26 -46,-10 -41,5 -38,18 -33,28 -33,38 -30,41 -31,41 -30,43 -31,36 -30,30 -31,23 -28,15 -25,13 -26,8 -23,5 -22,2 h -21 l -18,-2 -17,-3 -16,-8 -12,-7 -10,-8 -8,-12 -3,-13 v -26 l 11,-20 17,-13 h 21 z"
   id="path115"
   inkscape:connector-curvature="0"
   style="fill:#000000;stroke:none" />
        <path
   d="m 10625,15169 h -26 v -33 l -5,-33 -8,-31 -12,-25 -13,17 10,23 5,28 v 28 26 h -25 v -31 l -3,-38 -15,-33 -30,-13 v -196 h 10 l 10,3 8,5 7,3 -30,160 h 2 3 l 2,2 h 3 l 63,-168 5,3 8,5 5,5 5,5 -73,155 5,6 7,2 5,5 5,5 89,-142 5,5 8,5 5,8 5,5 -76,94 5,7 3,8 5,8 5,10 2,13 8,20 5,33 z"
   id="path117"
   inkscape:connector-curvature="0"
   style="fill:#000000;stroke:none" />
        <path
   d="m 10378,15169 h 25 v -33 l 5,-33 8,-31 13,-25 15,17 -10,23 -5,28 -3,28 v 26 h 26 v -31 l 5,-38 15,-33 31,-13 v -196 h -11 l -10,3 -7,5 -8,3 30,160 h -5 -2 l -3,2 h -2 l -61,-168 -8,3 -5,5 -8,5 -5,5 74,155 -5,6 -5,2 -5,5 -5,5 -92,-142 -5,5 -8,5 -5,8 -7,5 79,94 -6,7 -5,8 -2,8 -5,10 -5,13 -5,20 -5,33 z"
   id="path119"
   inkscape:connector-curvature="0"
   style="fill:#000000;stroke:none" />
        <path
   d="m 10655,14378 59,407 h 5 7 8 5 l -59,-392 -2,-15 -5,-18 -8,-15 -7,-13 -11,-13 -15,-10 -15,-5 -18,-3 3,28 15,3 15,10 15,15 z"
   id="path121"
   inkscape:connector-curvature="0"
   style="fill:#000000;stroke:none" />
        <path
   d="m 10810,14927 36,-2 -16,-171 h -5 l -5,3 -7,2 h -5 l 5,61 12,21 5,33 -5,33 z"
   id="path123"
   inkscape:connector-curvature="0"
   style="fill:#000000;stroke:none" />
        <path
   d="m 10759,14746 3,41 5,3 8,2 5,3 7,2 -2,-38 -8,-2 -8,-5 -5,-3 z"
   id="path125"
   inkscape:connector-curvature="0"
   style="fill:#000000;stroke:none" />
        <path
   d="m 10833,14711 -10,-3 -8,-7 -5,-13 v -13 l 3,-12 5,-8 10,-5 13,-3 10,3 10,5 5,10 3,13 v 247 l 33,5 v -31 -71 -79 -58 l -8,-39 -20,-20 -21,-8 -17,-2 -13,2 -18,8 -13,15 -5,26 v 12 l 3,16 5,12 13,8 h -28 l -16,-13 -7,-17 -3,-23 3,-13 2,-13 8,-13 8,-12 12,-10 16,-5 17,-6 21,-2 23,2 17,8 13,13 13,12 7,16 5,12 6,13 v 8 254 h 2 l 10,3 8,2 10,3 v -262 l -3,-23 -7,-26 -15,-20 -16,-18 -23,-15 -22,-10 -28,-3 -28,3 -8,2 h -5 l -5,3 -5,3 -8,2 -5,5 -8,3 -5,5 -15,-102 v 0 -3 -2 l -2,-3 17,8 13,18 5,18 3,7 5,44 23,-8 -5,-23 -3,-15 -10,-36 -20,-33 -36,-10 -8,-23 -12,-18 -18,-13 -23,-2 5,33 20,5 13,15 5,21 3,7 20,140 -8,13 -5,15 -2,18 v 13 l 2,18 5,22 18,21 28,12 h 21 l 20,-2 20,-8 13,-10 5,-13 3,-10 -6,-7 -5,-5 h -12 l -8,5 -5,7 z"
   id="path127"
   inkscape:connector-curvature="0"
   style="fill:#000000;stroke:none" />
        <path
   d="m 10345,14378 -59,407 h -5 -5 -7 -5 l 58,-392 3,-15 5,-18 7,-15 8,-13 10,-13 15,-10 16,-5 17,-3 -5,28 -12,3 -18,10 -13,15 z"
   id="path129"
   inkscape:connector-curvature="0"
   style="fill:#000000;stroke:none" />
        <path
   d="m 10192,14927 -35,-2 15,-171 h 3 l 5,3 7,2 h 5 l -5,61 -12,21 -3,33 5,33 z"
   id="path131"
   inkscape:connector-curvature="0"
   style="fill:#000000;stroke:none" />
        <path
   d="m 10243,14746 -2,41 -5,3 -8,2 -8,3 -5,2 3,-38 7,-2 6,-5 7,-3 z"
   id="path133"
   inkscape:connector-curvature="0"
   style="fill:#000000;stroke:none" />
        <path
   d="m 10167,14711 13,-3 7,-7 5,-13 v -13 l -2,-12 -8,-8 -10,-5 -13,-3 -10,3 -7,5 -8,10 -3,13 v 247 l -30,5 v -31 -71 -79 -58 l 8,-39 17,-20 23,-8 15,-2 16,2 15,8 15,15 5,26 v 12 l -2,16 -8,12 -13,8 h 28 l 18,-13 8,-17 v -23 l -3,-13 -2,-13 -8,-13 -8,-12 -12,-10 -16,-5 -17,-6 -21,-2 -20,2 -18,8 -15,13 -10,12 -10,16 -5,12 -6,13 v 8 254 h -2 l -8,3 -10,2 -10,3 v -262 l 3,-23 7,-26 15,-20 18,-18 21,-15 25,-10 25,-3 31,3 7,2 h 6 l 5,3 5,3 7,2 5,5 8,3 5,5 15,-102 v 0 -3 -2 -3 l -17,8 -11,18 -5,18 -2,7 -5,44 -23,-8 2,-23 3,-15 10,-36 23,-33 33,-10 10,-23 13,-18 15,-13 23,-2 -2,33 -21,5 -13,15 -7,21 -3,7 -20,140 8,13 5,15 5,18 v 13 l -3,18 -7,22 -18,21 -28,12 h -18 l -20,-2 -21,-8 -12,-10 -5,-13 v -10 l 2,-7 5,-5 h 10 l 11,5 2,7 z"
   id="path135"
   inkscape:connector-curvature="0"
   style="fill:#000000;stroke:none" />
        <path
   d="m 10996,15174 185,-183 13,-18 5,-18 -5,-20 -15,-16 -13,-5 h -13 l -10,5 -10,8 -13,15 3,11 7,5 8,-5 8,-8 7,-5 5,-3 8,3 5,10 v 10 l -8,10 -10,13 -175,168 8,2 5,6 5,7 z"
   id="path137"
   inkscape:connector-curvature="0"
   style="fill:#000000;stroke:none" />
        <path
   d="m 10503,13930 v 188 l 10,5 5,10 5,16 2,18 13,91 15,107 16,112 12,109 13,102 10,81 8,56 2,21 -30,-21 -81,-641 v 288 l 5,2 5,8 5,10 2,15 33,311 -5,-3 -7,-2 -8,-3 -8,-2 -22,-237 v 267 l 38,8 43,23 48,35 46,46 43,51 36,56 25,56 8,56 h 25 l -2,-23 -5,-26 -8,-25 -13,-28 -12,-28 -16,-25 -12,-23 -16,-18 8,-8 8,-7 10,-5 10,-6 -20,-2 -23,-13 -18,-20 -8,-31 5,-28 16,-15 17,-5 21,3 15,10 10,12 3,16 v 15 l -8,10 -13,5 -12,-2 -13,-13 8,-3 5,-7 v -10 l -8,-6 -10,-2 -10,5 -5,8 -3,10 3,13 7,12 16,10 22,6 23,-6 16,-15 7,-18 v -17 l -5,-16 -8,-15 -15,-13 -18,-10 -20,-5 -20,3 -21,10 -20,20 -132,-844 z"
   id="path139"
   inkscape:connector-curvature="0"
   style="fill:#000000;stroke:none" />
        <path
   d="m 11062,14986 43,-51 10,-21 v -20 l -7,-18 -16,-13 -15,-2 h -10 l -13,8 -7,7 -8,18 2,10 8,3 8,-5 5,-8 7,-5 6,-3 h 7 l 8,8 v 10 l -5,13 -10,15 -36,41 5,2 5,3 8,2 z"
   id="path141"
   inkscape:connector-curvature="0"
   style="fill:#000000;stroke:none" />
        <path
   d="m 10996,14955 38,-71 7,-21 -2,-20 -13,-15 -18,-10 h -15 l -10,2 -10,8 -8,10 -5,20 5,8 10,3 5,-8 3,-8 5,-7 8,-5 h 5 l 10,7 3,10 -3,13 -8,15 -33,59 8,2 8,3 5,3 z"
   id="path143"
   inkscape:connector-curvature="0"
   style="fill:#000000;stroke:none" />
        <path
   d="m 10004,15174 -185,-183 -13,-18 -3,-18 6,-20 12,-16 16,-5 h 12 l 10,5 11,8 10,15 v 11 l -8,5 -8,-5 -7,-8 -5,-5 -8,-3 -7,3 -6,10 v 10 l 8,10 10,13 173,168 -5,2 -8,6 -2,7 z"
   id="path145"
   inkscape:connector-curvature="0"
   style="fill:#000000;stroke:none" />
        <path
   d="m 10503,13930 v 188 l -11,5 -5,10 -5,16 -5,18 -13,91 -15,107 -13,112 -15,109 -13,102 -10,81 -7,56 -3,21 33,-21 82,-641 v 288 l -6,2 -7,8 -5,10 -3,15 -30,311 5,-3 7,-2 8,-3 8,-2 23,-237 v 267 l -39,8 -45,23 -49,35 -45,46 -44,51 -35,56 -26,56 -7,56 h -26 l 3,-23 5,-26 8,-25 12,-28 13,-28 13,-25 15,-23 15,-18 -7,-8 -11,-7 -7,-5 -10,-6 20,-2 23,-13 18,-20 7,-31 -5,-28 -15,-15 -20,-5 -21,3 -12,10 -11,12 -2,16 v 15 l 7,10 13,5 13,-2 13,-13 -11,-3 -5,-7 v -10 l 8,-6 13,-2 7,5 5,8 3,10 -3,13 -5,12 -15,10 -25,6 -23,-6 -16,-15 -5,-18 -2,-17 5,-16 8,-15 15,-13 18,-10 20,-5 20,3 21,10 20,20 135,-844 z"
   id="path147"
   inkscape:connector-curvature="0"
   style="fill:#000000;stroke:none" />
        <path
   d="m 9938,14986 -43,-51 -10,-21 v -20 l 7,-18 18,-13 15,-2 h 13 l 10,8 8,7 8,18 -5,10 -8,3 -5,-5 -5,-8 -8,-5 -5,-3 h -8 l -7,8 v 10 l 5,13 10,15 33,41 -2,2 -8,3 -5,2 z"
   id="path149"
   inkscape:connector-curvature="0"
   style="fill:#000000;stroke:none" />
        <path
   d="m 10004,14955 -38,-71 -5,-21 3,-20 10,-15 18,-10 h 15 l 13,2 7,8 8,10 5,20 -5,8 -8,3 -5,-8 -5,-8 -5,-7 -8,-5 h -5 l -7,7 -3,10 3,13 5,15 33,59 -5,2 -8,3 -8,3 z"
   id="path151"
   inkscape:connector-curvature="0"
   style="fill:#000000;stroke:none" />
        <path
   d="m 11995,15497 -275,252 -2,7 5,5 12,3 13,-3 26,-15 38,-25 51,-28 55,-31 59,-33 56,-30 51,-28 38,-21 z"
   id="path153"
   inkscape:connector-curvature="0"
   style="fill:#000000;stroke:none" />
        <path
   d="m 11380,15288 -153,313 v 8 l 5,2 10,3 10,-5 21,-21 28,-33 33,-38 38,-43 38,-46 36,-43 33,-38 28,-31 z"
   id="path155"
   inkscape:connector-curvature="0"
   style="fill:#000000;stroke:none" />
        <path
   d="m 9005,15497 275,252 5,7 -5,5 -13,3 -13,-3 -25,-15 -41,-25 -51,-28 -55,-31 -59,-33 -56,-30 -48,-28 -38,-21 z"
   id="path157"
   inkscape:connector-curvature="0"
   style="fill:#000000;stroke:none" />
        <path
   d="m 9623,15288 152,313 v 8 l -7,2 -8,3 -10,-5 -20,-21 -28,-33 -33,-38 -38,-43 -39,-46 -35,-43 -33,-38 -28,-31 z"
   id="path159"
   inkscape:connector-curvature="0"
   style="fill:#000000;stroke:none" />
       </g>
      </g>
     </g>
    </g>
   </g>
  </g>
 </g>
</svg>