<?xml version="1.0" encoding="UTF-8" standalone="no"?>
<svg
   xmlns:ooo="http://xml.openoffice.org/svg/export"
   xmlns:dc="http://purl.org/dc/elements/1.1/"
   xmlns:cc="http://creativecommons.org/ns#"
   xmlns:rdf="http://www.w3.org/1999/02/22-rdf-syntax-ns#"
   xmlns:svg="http://www.w3.org/2000/svg"
   xmlns="http://www.w3.org/2000/svg"
   xmlns:sodipodi="http://sodipodi.sourceforge.net/DTD/sodipodi-0.dtd"
   xmlns:inkscape="http://www.inkscape.org/namespaces/inkscape"
   version="1.2"
   width="16.690001mm"
   height="21.539999mm"
   viewBox="0 0 1669.0001 2153.9999"
   preserveAspectRatio="xMidYMid"
   xml:space="preserve"
   id="svg587"
   sodipodi:docname="micrscp.svg"
   style="fill-rule:evenodd;stroke-width:28.22200012;stroke-linejoin:round"
   inkscape:version="0.92.5 (2060ec1f9f, 2020-04-08)"><metadata
   id="metadata591"><rdf:RDF><cc:Work
       rdf:about=""><dc:format>image/svg+xml</dc:format><dc:type
         rdf:resource="http://purl.org/dc/dcmitype/StillImage" /></cc:Work></rdf:RDF></metadata><sodipodi:namedview
   pagecolor="#ffffff"
   bordercolor="#666666"
   borderopacity="1"
   objecttolerance="10"
   gridtolerance="10"
   guidetolerance="10"
   inkscape:pageopacity="0"
   inkscape:pageshadow="2"
   inkscape:window-width="664"
   inkscape:window-height="487"
   id="namedview589"
   showgrid="false"
   inkscape:zoom="0.2102413"
   inkscape:cx="31.559056"
   inkscape:cy="40.70551"
   inkscape:window-x="0"
   inkscape:window-y="0"
   inkscape:window-maximized="0"
   inkscape:current-layer="svg587" />
 <defs
   class="ClipPathGroup"
   id="defs8">
  <clipPath
   id="presentation_clip_path"
   clipPathUnits="userSpaceOnUse">
   <rect
   x="0"
   y="0"
   width="21000"
   height="29700"
   id="rect2" />
  </clipPath>
  <clipPath
   id="presentation_clip_path_shrink"
   clipPathUnits="userSpaceOnUse">
   <rect
   x="21"
   y="29"
   width="20958"
   height="29641"
   id="rect5" />
  </clipPath>
 </defs>
 <defs
   class="TextShapeIndex"
   id="defs12">
  <g
   ooo:slide="id1"
   ooo:id-list="id3"
   id="g10" />
 </defs>
 <defs
   class="EmbeddedBulletChars"
   id="defs44">
  <g
   id="bullet-char-template-57356"
   transform="matrix(4.8828125e-4,0,0,-4.8828125e-4,0,0)">
   <path
   d="M 580,1141 1163,571 580,0 -4,571 Z"
   id="path14"
   inkscape:connector-curvature="0" />
  </g>
  <g
   id="bullet-char-template-57354"
   transform="matrix(4.8828125e-4,0,0,-4.8828125e-4,0,0)">
   <path
   d="M 8,1128 H 1137 V 0 H 8 Z"
   id="path17"
   inkscape:connector-curvature="0" />
  </g>
  <g
   id="bullet-char-template-10146"
   transform="matrix(4.8828125e-4,0,0,-4.8828125e-4,0,0)">
   <path
   d="M 174,0 602,739 174,1481 1456,739 Z M 1358,739 309,1346 659,739 Z"
   id="path20"
   inkscape:connector-curvature="0" />
  </g>
  <g
   id="bullet-char-template-10132"
   transform="matrix(4.8828125e-4,0,0,-4.8828125e-4,0,0)">
   <path
   d="M 2015,739 1276,0 H 717 l 543,543 H 174 v 393 h 1086 l -543,545 h 557 z"
   id="path23"
   inkscape:connector-curvature="0" />
  </g>
  <g
   id="bullet-char-template-10007"
   transform="matrix(4.8828125e-4,0,0,-4.8828125e-4,0,0)">
   <path
   d="m 0,-2 c -7,16 -16,29 -25,39 l 381,530 c -94,256 -141,385 -141,387 0,25 13,38 40,38 9,0 21,-2 34,-5 21,4 42,12 65,25 l 27,-13 111,-251 280,301 64,-25 24,25 c 21,-10 41,-24 62,-43 C 886,937 835,863 770,784 769,783 710,716 594,584 L 774,223 c 0,-27 -21,-55 -63,-84 l 16,-20 C 717,90 699,76 672,76 641,76 570,178 457,381 L 164,-76 c -22,-34 -53,-51 -92,-51 -42,0 -63,17 -64,51 -7,9 -10,24 -10,44 0,9 1,19 2,30 z"
   id="path26"
   inkscape:connector-curvature="0" />
  </g>
  <g
   id="bullet-char-template-10004"
   transform="matrix(4.8828125e-4,0,0,-4.8828125e-4,0,0)">
   <path
   d="M 285,-33 C 182,-33 111,30 74,156 52,228 41,333 41,471 c 0,78 14,145 41,201 34,71 87,106 158,106 53,0 88,-31 106,-94 l 23,-176 c 8,-64 28,-97 59,-98 l 735,706 c 11,11 33,17 66,17 42,0 63,-15 63,-46 V 965 c 0,-36 -10,-64 -30,-84 L 442,47 C 390,-6 338,-33 285,-33 Z"
   id="path29"
   inkscape:connector-curvature="0" />
  </g>
  <g
   id="bullet-char-template-9679"
   transform="matrix(4.8828125e-4,0,0,-4.8828125e-4,0,0)">
   <path
   d="M 813,0 C 632,0 489,54 383,161 276,268 223,411 223,592 c 0,181 53,324 160,431 106,107 249,161 430,161 179,0 323,-54 432,-161 108,-107 162,-251 162,-431 0,-180 -54,-324 -162,-431 C 1136,54 992,0 813,0 Z"
   id="path32"
   inkscape:connector-curvature="0" />
  </g>
  <g
   id="bullet-char-template-8226"
   transform="matrix(4.8828125e-4,0,0,-4.8828125e-4,0,0)">
   <path
   d="m 346,457 c -73,0 -137,26 -191,78 -54,51 -81,114 -81,188 0,73 27,136 81,188 54,52 118,78 191,78 73,0 134,-26 185,-79 51,-51 77,-114 77,-187 0,-75 -25,-137 -76,-188 -50,-52 -112,-78 -186,-78 z"
   id="path35"
   inkscape:connector-curvature="0" />
  </g>
  <g
   id="bullet-char-template-8211"
   transform="matrix(4.8828125e-4,0,0,-4.8828125e-4,0,0)">
   <path
   d="M -4,459 H 1135 V 606 H -4 Z"
   id="path38"
   inkscape:connector-curvature="0" />
  </g>
  <g
   id="bullet-char-template-61548"
   transform="matrix(4.8828125e-4,0,0,-4.8828125e-4,0,0)">
   <path
   d="m 173,740 c 0,163 58,303 173,419 116,115 255,173 419,173 163,0 302,-58 418,-173 116,-116 174,-256 174,-419 0,-163 -58,-303 -174,-418 C 1067,206 928,148 765,148 601,148 462,206 346,322 231,437 173,577 173,740 Z"
   id="path41"
   inkscape:connector-curvature="0" />
  </g>
 </defs>
 <g
   id="g49"
   transform="translate(-9665,-13773)">
  <g
   id="id2"
   class="Master_Slide">
   <g
   id="bg-id2"
   class="Background" />
   <g
   id="bo-id2"
   class="BackgroundObjects" />
  </g>
 </g>
 <g
   class="SlideGroup"
   id="g585"
   transform="translate(-9665,-13773)">
  <g
   id="g583">
   <g
   id="container-id1">
    <g
   id="id1"
   class="Slide"
   clip-path="url(#presentation_clip_path)">
     <g
   class="Page"
   id="g579">
      <g
   class="Graphic"
   id="g577">
       <g
   id="id3">
        <rect
   class="BoundingBox"
   x="9665"
   y="13773"
   width="1669"
   height="2154"
   id="rect51"
   style="fill:none;stroke:none" />
        <defs
   id="defs56">
         <clipPath
   id="clip_path_1"
   clipPathUnits="userSpaceOnUse">
          <path
   d="m 9665,13773 h 1668 v 2153 H 9665 Z"
   id="path53"
   inkscape:connector-curvature="0" />
         </clipPath>
        </defs>
        <g
   clip-path="url(#clip_path_1)"
   id="g574">
         <path
   d="m 10772,15528 20,5 18,5 10,2 3,6 -3,5 -13,5 -17,5 -28,7 -13,3 -26,5 -35,8 -46,10 -53,10 -59,10 -61,10 -61,13 -64,13 -61,10 -56,10 -48,10 -43,8 -33,5 -21,3 -7,2 v 229 l -410,-178 v -211 l 651,-107 56,15 v -274 h 46 v -92 l 13,-5 20,-2 h 23 26 l 25,5 23,2 18,5 12,5 v 145 h -56 v 247 l 11,3 25,5 38,5 43,7 44,8 40,8 31,7 z"
   id="path58"
   inkscape:connector-curvature="0"
   style="fill:#d8e0ea;stroke:none" />
         <path
   d="m 10764,15579 v 0 l 28,-8 18,-5 15,-8 8,-12 -8,-13 -13,-5 -17,-5 -21,-5 -5,20 21,5 17,5 h 8 l -3,-2 3,-3 -10,3 -18,5 -28,7 v 0 z"
   id="path60"
   inkscape:connector-curvature="0"
   style="fill:#000000;stroke:none" />
         <path
   d="m 10085,15698 -10,10 7,-2 21,-3 33,-5 43,-8 48,-10 56,-10 61,-10 64,-13 61,-12 61,-11 59,-10 53,-10 46,-10 35,-8 26,-5 15,-2 -5,-21 -10,3 -26,5 -35,8 -46,10 -53,10 -59,10 -61,10 -61,13 -64,13 -61,10 -56,10 -48,10 -43,8 -33,5 -21,2 -7,3 -11,10 11,-10 -11,2 v 8 z"
   id="path62"
   inkscape:connector-curvature="0"
   style="fill:#000000;stroke:none" />
         <path
   d="m 10072,15937 13,-10 v -229 h -21 v 229 l 13,-10 -5,20 13,5 v -15 z"
   id="path64"
   inkscape:connector-curvature="0"
   style="fill:#000000;stroke:none" />
         <path
   d="m 9655,15749 7,10 410,178 5,-20 -409,-178 7,10 h -20 v 5 l 7,5 z"
   id="path66"
   inkscape:connector-curvature="0"
   style="fill:#000000;stroke:none" />
         <path
   d="m 9665,15528 -10,10 v 211 h 20 v -211 l -10,10 v -20 l -10,2 v 8 z"
   id="path68"
   inkscape:connector-curvature="0"
   style="fill:#000000;stroke:none" />
         <path
   d="m 10319,15421 h -3 l -651,107 v 20 l 651,-107 h -2 l 5,-20 h -3 v 0 z"
   id="path70"
   inkscape:connector-curvature="0"
   style="fill:#000000;stroke:none" />
         <path
   d="m 10362,15446 13,-10 -56,-15 -5,20 56,16 12,-11 -12,11 12,2 v -13 z"
   id="path72"
   inkscape:connector-curvature="0"
   style="fill:#000000;stroke:none" />
         <path
   d="m 10372,15162 -10,10 v 274 h 20 v -274 l -10,10 v -20 h -10 v 10 z"
   id="path74"
   inkscape:connector-curvature="0"
   style="fill:#000000;stroke:none" />
         <path
   d="m 10408,15172 10,-10 h -46 v 20 h 46 l 10,-10 -10,10 h 10 v -10 z"
   id="path76"
   inkscape:connector-curvature="0"
   style="fill:#000000;stroke:none" />
         <path
   d="m 10413,15073 -5,7 v 92 h 20 v -92 l -5,8 -10,-15 -5,2 v 5 z"
   id="path78"
   inkscape:connector-curvature="0"
   style="fill:#000000;stroke:none" />
         <path
   d="m 10589,15090 -6,-7 -15,-8 -20,-5 -23,-3 -25,-5 h -26 -23 l -23,3 -15,8 10,15 10,-3 18,-2 h 23 26 l 25,5 23,2 15,5 10,3 -5,-8 z"
   id="path80"
   inkscape:connector-curvature="0"
   style="fill:#000000;stroke:none" />
         <path
   d="m 10578,15245 11,-10 v -145 h -21 v 145 l 10,-10 v 20 h 11 v -10 z"
   id="path82"
   inkscape:connector-curvature="0"
   style="fill:#000000;stroke:none" />
         <path
   d="m 10533,15235 -11,10 h 56 v -20 h -56 l -10,10 10,-10 h -10 v 10 z"
   id="path84"
   inkscape:connector-curvature="0"
   style="fill:#000000;stroke:none" />
         <path
   d="m 10522,15472 11,10 v -247 h -21 v 247 l 10,10 -10,-10 v 8 l 10,2 z"
   id="path86"
   inkscape:connector-curvature="0"
   style="fill:#000000;stroke:none" />
         <path
   d="m 10774,15518 v 0 l -20,-3 -31,-8 -40,-7 -44,-8 -43,-7 -38,-6 -25,-5 -11,-2 v 20 l 11,3 25,5 38,5 43,7 44,8 40,8 31,7 15,3 v 0 z"
   id="path88"
   inkscape:connector-curvature="0"
   style="fill:#000000;stroke:none" />
         <path
   d="m 10047,15591 10,5 15,3 18,5 20,3 h 26 l 25,2 h 28 l 31,-2 28,-3 28,-3 25,-5 23,-5 20,-5 18,-5 15,-5 11,-8 2,-2 3,-3 2,-2 v -3 l -5,-7 -10,-5 -18,-6 -23,-5 -25,-2 -31,-3 h -33 l -35,3 -36,2 -33,5 -31,6 -25,7 -23,5 -15,8 -10,8 -3,7 v 3 l 3,2 2,3 z"
   id="path90"
   inkscape:connector-curvature="0"
   style="fill:#476684;stroke:none" />
         <path
   d="m 10220,15596 v 0 l -31,3 h -28 l -25,-3 h -26 l -20,-2 -15,-5 -16,-3 -7,-2 -10,15 12,8 16,2 20,5 20,3 h 26 l 25,2 h 28 l 31,-2 v 0 z"
   id="path92"
   inkscape:connector-curvature="0"
   style="fill:#000000;stroke:none" />
         <path
   d="m 10382,15558 v 3 l -10,5 -12,5 -18,5 -21,5 -20,5 -25,5 -28,3 -28,2 v 21 l 28,-3 28,-2 25,-5 25,-6 21,-5 18,-5 17,-5 11,-10 v 3 z"
   id="path94"
   inkscape:connector-curvature="0"
   style="fill:#000000;stroke:none" />
         <path
   d="m 10385,15558 v 0 h 3 l -3,-2 -3,2 v 0 l 11,21 5,-5 2,-3 3,-8 2,-5 v 0 z"
   id="path96"
   inkscape:connector-curvature="0"
   style="fill:#000000;stroke:none" />
         <path
   d="m 10215,15543 v 0 l 35,-3 h 33 l 31,3 25,3 21,5 17,5 8,2 v 0 h 20 l -10,-15 -13,-8 -17,-5 -26,-5 -25,-2 -31,-3 h -33 l -35,3 v 0 z"
   id="path98"
   inkscape:connector-curvature="0"
   style="fill:#000000;stroke:none" />
         <path
   d="m 10049,15581 v 0 -2 l 8,-5 13,-6 22,-5 23,-7 31,-5 33,-5 36,-3 v -20 l -36,2 -33,5 -31,5 -28,8 -23,5 -17,10 -13,10 -5,13 v 0 z"
   id="path100"
   inkscape:connector-curvature="0"
   style="fill:#000000;stroke:none" />
         <path
   d="m 10052,15584 v -3 0 l -3,-2 -2,2 h 2 -20 l 2,5 3,8 2,2 6,5 v -2 z"
   id="path102"
   inkscape:connector-curvature="0"
   style="fill:#000000;stroke:none" />
         <path
   d="m 10762,15568 25,-7 18,-5 13,-3 5,-5 v 0 28 59 66 38 l -3,18 -5,17 -13,18 -20,8 -707,127 v -229 l 7,-2 21,-3 33,-5 43,-8 48,-10 56,-10 61,-10 64,-13 61,-13 61,-10 59,-10 53,-10 46,-10 35,-8 26,-5 z"
   id="path104"
   inkscape:connector-curvature="0"
   style="fill:#476684;stroke:none" />
         <path
   d="m 10833,15548 -18,-8 v 3 l -13,3 -18,5 -25,7 5,21 26,-8 17,-5 13,-3 10,-7 -18,-8 h 21 v -28 l -18,20 z"
   id="path106"
   inkscape:connector-curvature="0"
   style="fill:#000000;stroke:none" />
         <path
   d="m 10833,15548 h -10 v 0 0 0 h -11 21 v -28 l -18,20 z"
   id="path108"
   inkscape:connector-curvature="0"
   style="fill:#000000;stroke:none" />
         <path
   d="m 10833,15739 v 0 -38 -66 -59 -28 h -21 v 28 59 66 38 0 z"
   id="path110"
   inkscape:connector-curvature="0"
   style="fill:#000000;stroke:none" />
         <path
   d="m 10782,15810 v 0 l 25,-10 18,-20 5,-23 3,-18 h -21 l -2,18 -5,12 -8,16 -15,5 v 0 z"
   id="path112"
   inkscape:connector-curvature="0"
   style="fill:#000000;stroke:none" />
         <path
   d="m 10064,15927 11,10 707,-127 v -20 l -707,127 10,10 h -21 v 13 l 11,-3 z"
   id="path114"
   inkscape:connector-curvature="0"
   style="fill:#000000;stroke:none" />
         <path
   d="m 10075,15688 -11,10 v 229 h 21 v -229 l -10,10 v -20 l -11,2 v 8 z"
   id="path116"
   inkscape:connector-curvature="0"
   style="fill:#000000;stroke:none" />
         <path
   d="m 10759,15558 -10,3 -26,5 -35,8 -46,10 -53,10 -59,10 -61,10 -61,13 -64,13 -61,10 -56,10 -48,10 -43,8 -33,5 -21,2 -7,3 v 20 l 7,-2 21,-3 33,-5 43,-8 48,-10 56,-10 61,-10 64,-13 61,-12 61,-11 59,-10 53,-10 46,-10 35,-8 26,-5 15,-2 z"
   id="path118"
   inkscape:connector-curvature="0"
   style="fill:#000000;stroke:none" />
         <path
   d="m 10393,14111 -212,59 -30,221 -25,25 v 84 h -59 v -79 h -66 l -3,49 3,61 7,69 8,73 13,69 15,58 15,44 21,23 h -49 v 86 20 h 168 l 38,-104 13,-2 10,-3 8,-8 5,-10 13,-30 23,-54 20,-48 10,-20 23,-3 28,3 31,7 30,8 31,13 25,15 18,15 10,20 -114,308 h -3 l 13,-5 20,-2 h 23 26 l 25,5 23,2 18,5 12,5 v 145 h -56 v 247 h 3 l 10,3 15,2 18,3 18,5 15,2 16,3 10,2 25,-12 26,-28 25,-46 25,-51 21,-56 18,-56 12,-51 5,-38 h -2 -36 l -25,-2 -21,-8 -22,-10 -18,-16 -15,-17 -11,-23 -7,-21 -3,-25 v -13 l 3,-15 5,-13 5,-12 h -31 l -23,-580 -190,-41 z"
   id="path120"
   inkscape:connector-curvature="0"
   style="fill:#3f6b99;stroke:none" />
         <path
   d="m 10192,14170 -8,10 211,-59 -5,-20 -211,59 -8,10 8,-10 -8,2 v 8 z"
   id="path122"
   inkscape:connector-curvature="0"
   style="fill:#000000;stroke:none" />
         <path
   d="m 10159,14399 2,-8 31,-221 h -21 l -30,221 2,-8 16,16 2,-3 v -5 z"
   id="path124"
   inkscape:connector-curvature="0"
   style="fill:#000000;stroke:none" />
         <path
   d="m 10136,14416 -3,8 26,-25 -16,-16 -25,26 -3,7 3,-7 -3,5 v 2 z"
   id="path126"
   inkscape:connector-curvature="0"
   style="fill:#000000;stroke:none" />
         <path
   d="m 10126,14510 10,-10 v -84 h -21 v 84 l 11,-10 v 20 h 10 v -10 z"
   id="path128"
   inkscape:connector-curvature="0"
   style="fill:#000000;stroke:none" />
         <path
   d="m 10057,14500 10,10 h 59 v -20 h -59 l 10,10 h -20 v 10 h 10 z"
   id="path130"
   inkscape:connector-curvature="0"
   style="fill:#000000;stroke:none" />
         <path
   d="m 10067,14432 -10,-11 v 79 h 20 v -79 l -10,-10 10,10 v -10 h -10 z"
   id="path132"
   inkscape:connector-curvature="0"
   style="fill:#000000;stroke:none" />
         <path
   d="m 10011,14421 -10,11 h 66 v -21 h -66 l -10,10 10,-10 h -10 v 10 z"
   id="path134"
   inkscape:connector-curvature="0"
   style="fill:#000000;stroke:none" />
         <path
   d="m 10080,14877 5,-18 -18,-20 -13,-41 -15,-56 -13,-69 -7,-73 -8,-69 -3,-61 3,-49 h -20 l -3,49 3,61 7,69 8,73 13,69 15,61 18,46 23,25 5,-18 v 21 h 43 l -38,-18 z"
   id="path136"
   inkscape:connector-curvature="0"
   style="fill:#000000;stroke:none" />
         <path
   d="m 10042,14867 -11,10 h 49 v -21 h -49 l -10,11 10,-11 h -10 v 11 z"
   id="path138"
   inkscape:connector-curvature="0"
   style="fill:#000000;stroke:none" />
         <path
   d="m 10042,14953 v 0 -86 h -21 v 86 0 z"
   id="path140"
   inkscape:connector-curvature="0"
   style="fill:#000000;stroke:none" />
         <path
   d="m 10031,14963 11,10 v -20 h -21 v 20 l 10,11 -10,-11 v 11 h 10 z"
   id="path142"
   inkscape:connector-curvature="0"
   style="fill:#000000;stroke:none" />
         <path
   d="m 10189,14971 10,-8 h -168 v 21 h 168 l 10,-8 -10,8 h 8 l 2,-8 z"
   id="path144"
   inkscape:connector-curvature="0"
   style="fill:#000000;stroke:none" />
         <path
   d="m 10237,14859 -10,8 -38,104 20,5 39,-104 -11,7 v -20 h -7 l -3,8 z"
   id="path146"
   inkscape:connector-curvature="0"
   style="fill:#000000;stroke:none" />
         <path
   d="m 10263,14844 v 0 l -3,7 -5,5 h -5 l -13,3 v 20 l 13,-2 15,-5 11,-11 7,-12 v 0 z"
   id="path148"
   inkscape:connector-curvature="0"
   style="fill:#000000;stroke:none" />
         <path
   d="m 10339,14683 -10,8 -10,20 -20,49 -23,53 -13,31 20,5 13,-31 23,-53 20,-49 10,-20 -10,8 v -21 l -7,3 -3,5 z"
   id="path150"
   inkscape:connector-curvature="0"
   style="fill:#000000;stroke:none" />
         <path
   d="m 10545,14775 v -5 l -12,-23 -21,-18 -25,-18 -33,-12 -31,-8 -33,-8 -28,-2 -23,2 v 21 l 23,-3 28,3 28,7 31,8 28,13 25,12 15,13 8,18 v -5 l 20,5 v -3 -2 z"
   id="path152"
   inkscape:connector-curvature="0"
   style="fill:#000000;stroke:none" />
         <path
   d="m 10421,15090 10,-7 114,-308 -20,-5 -115,308 11,-8 v 20 h 7 l 3,-7 z"
   id="path154"
   inkscape:connector-curvature="0"
   style="fill:#000000;stroke:none" />
         <path
   d="m 10413,15073 5,17 h 3 v -20 h -3 l 5,18 -10,-15 -33,17 h 38 z"
   id="path156"
   inkscape:connector-curvature="0"
   style="fill:#000000;stroke:none" />
         <path
   d="m 10589,15090 -6,-7 -15,-8 -20,-5 -23,-3 -25,-5 h -26 -23 l -23,3 -15,8 10,15 10,-3 18,-2 h 23 26 l 25,5 23,2 15,5 10,3 -5,-8 h 21 v -5 l -6,-2 z"
   id="path158"
   inkscape:connector-curvature="0"
   style="fill:#000000;stroke:none" />
         <path
   d="m 10578,15245 11,-10 v -145 h -21 v 145 l 10,-10 v 20 h 11 v -10 z"
   id="path160"
   inkscape:connector-curvature="0"
   style="fill:#000000;stroke:none" />
         <path
   d="m 10533,15235 -11,10 h 56 v -20 h -56 l -10,10 10,-10 h -10 v 10 z"
   id="path162"
   inkscape:connector-curvature="0"
   style="fill:#000000;stroke:none" />
         <path
   d="m 10522,15472 11,10 v -247 h -21 v 247 l 10,10 -10,-10 v 8 l 10,2 z"
   id="path164"
   inkscape:connector-curvature="0"
   style="fill:#000000;stroke:none" />
         <path
   d="m 10627,15492 h 2 l -12,-2 -16,-3 -12,-2 -21,-6 -18,-2 -15,-3 -10,-2 h -3 v 20 h 3 l 10,3 15,2 18,3 15,5 18,2 16,3 7,2 h 3 -3 3 v 0 z"
   id="path166"
   inkscape:connector-curvature="0"
   style="fill:#000000;stroke:none" />
         <path
   d="m 10784,15174 -10,-10 -5,38 -13,49 -17,55 -21,56 -23,49 -25,46 -23,25 -20,10 v 20 l 30,-15 28,-30 26,-46 28,-53 20,-56 18,-56 13,-54 5,-38 -11,-10 11,10 v -10 h -11 z"
   id="path168"
   inkscape:connector-curvature="0"
   style="fill:#000000;stroke:none" />
         <path
   d="m 10782,15174 v 0 h 2 v -20 h -2 v 0 z"
   id="path170"
   inkscape:connector-curvature="0"
   style="fill:#000000;stroke:none" />
         <path
   d="m 10746,15174 v 0 h 36 v -20 h -36 v 0 z"
   id="path172"
   inkscape:connector-curvature="0"
   style="fill:#000000;stroke:none" />
         <path
   d="m 10614,15042 v 0 l 3,25 7,23 13,26 15,20 21,15 25,13 23,8 25,2 v -20 l -25,-3 -18,-7 -20,-8 -16,-15 -15,-15 -7,-21 -8,-18 -3,-25 v 0 z"
   id="path174"
   inkscape:connector-curvature="0"
   style="fill:#000000;stroke:none" />
         <path
   d="m 10637,14999 -10,-13 -5,13 -5,12 -3,18 v 13 h 20 v -13 l 3,-12 5,-13 5,-13 -10,-13 z"
   id="path176"
   inkscape:connector-curvature="0"
   style="fill:#000000;stroke:none" />
         <path
   d="m 10596,14989 10,10 h 31 v -21 h -31 l 11,11 h -21 v 10 h 10 z"
   id="path178"
   inkscape:connector-curvature="0"
   style="fill:#000000;stroke:none" />
         <path
   d="m 10583,14419 -10,-10 23,580 h 21 l -23,-580 -11,-10 11,10 v -8 l -11,-2 z"
   id="path180"
   inkscape:connector-curvature="0"
   style="fill:#000000;stroke:none" />
         <path
   d="m 10382,14368 11,10 190,41 v -20 l -190,-41 10,10 h -21 v 8 l 11,2 z"
   id="path182"
   inkscape:connector-curvature="0"
   style="fill:#000000;stroke:none" />
         <path
   d="m 10395,14121 -13,-10 v 257 h 21 v -257 l -13,-10 13,10 v -12 l -13,2 z"
   id="path184"
   inkscape:connector-curvature="0"
   style="fill:#000000;stroke:none" />
         <path
   d="m 10395,15558 -5,-7 -10,-5 -18,-6 -23,-5 -25,-2 -31,-3 h -33 l -35,3 -36,2 -33,5 -31,6 -25,7 -23,5 -15,8 -10,8 -3,7 v 3 l 3,2 2,3 3,2 h -3 l 10,-7 16,-5 17,-5 21,-6 23,-5 25,-5 28,-2 31,-3 30,-2 h 28 l 26,2 h 25 l 20,3 18,5 15,2 11,5 v 0 l 2,-2 3,-3 2,-2 z"
   id="path186"
   inkscape:connector-curvature="0"
   style="fill:#000000;stroke:none" />
         <path
   d="m 10215,15543 v 0 l 35,-3 h 33 l 31,3 25,3 21,5 17,5 8,2 v 0 h 20 l -10,-15 -13,-8 -17,-5 -26,-5 -25,-2 -31,-3 h -33 l -35,3 v 0 z"
   id="path188"
   inkscape:connector-curvature="0"
   style="fill:#000000;stroke:none" />
         <path
   d="m 10049,15581 v 0 -2 l 8,-5 13,-6 22,-5 23,-7 31,-5 33,-5 36,-3 v -20 l -36,2 -33,5 -31,5 -28,8 -23,5 -17,10 -13,10 -5,13 v 0 z"
   id="path190"
   inkscape:connector-curvature="0"
   style="fill:#000000;stroke:none" />
         <path
   d="m 10047,15601 5,-20 v 0 l -3,-2 -2,2 h 2 -20 l 2,5 3,8 2,2 6,5 5,-20 v 20 h 43 l -41,-17 z"
   id="path192"
   inkscape:connector-curvature="0"
   style="fill:#000000;stroke:none" />
         <path
   d="m 10039,15584 5,17 h 3 v -20 h -3 l 5,18 -10,-15 -28,17 h 33 z"
   id="path194"
   inkscape:connector-curvature="0"
   style="fill:#000000;stroke:none" />
         <path
   d="m 10215,15543 v 0 l -31,3 -28,2 -25,5 -26,5 -20,5 -18,5 -18,6 -10,10 10,15 10,-5 13,-5 18,-5 20,-5 21,-5 25,-6 28,-2 31,-3 v 0 z"
   id="path196"
   inkscape:connector-curvature="0"
   style="fill:#000000;stroke:none" />
         <path
   d="m 10382,15558 11,3 -13,-8 -15,-2 -21,-5 -20,-3 h -25 l -26,-3 h -28 l -30,3 v 20 l 30,-2 h 28 l 26,2 h 25 l 20,3 16,5 15,3 7,2 11,3 -11,-3 6,5 2,-5 z"
   id="path198"
   inkscape:connector-curvature="0"
   style="fill:#000000;stroke:none" />
         <path
   d="m 10382,15558 6,10 v 0 0 0 l 5,11 -11,-3 6,5 2,-5 z"
   id="path200"
   inkscape:connector-curvature="0"
   style="fill:#000000;stroke:none" />
         <path
   d="m 10385,15558 v 0 h 3 l -3,-2 -3,2 v 0 l 11,21 5,-5 2,-3 3,-8 2,-5 v 0 z"
   id="path202"
   inkscape:connector-curvature="0"
   style="fill:#000000;stroke:none" />
         <path
   d="m 10418,15083 -5,5 -8,2 h -12 -16 l -20,-5 -20,-2 -23,-8 -23,-8 -23,-7 -20,-10 -18,-11 -18,-7 -10,-10 -10,-8 -5,-8 v -5 0 l 2,-2 5,-3 5,-2 h 8 v 0 l 5,5 8,7 10,5 13,8 15,8 15,7 18,8 18,8 15,5 15,5 15,2 16,5 12,3 h 13 l 10,3 h 11 v 0 l 2,2 v 3 2 z"
   id="path204"
   inkscape:connector-curvature="0"
   style="fill:#000000;stroke:none" />
         <path
   d="m 10288,15078 v 0 l 23,7 23,8 23,2 20,5 h 16 12 l 13,-5 10,-10 -20,-5 v 0 h -3 -12 -16 l -20,-5 -18,-2 -23,-8 -23,-8 v 0 z"
   id="path206"
   inkscape:connector-curvature="0"
   style="fill:#000000;stroke:none" />
         <path
   d="m 10176,14996 v 3 10 l 8,13 13,7 10,10 18,11 18,7 22,13 23,8 5,-21 -22,-7 -18,-8 -18,-13 -18,-5 -10,-10 -8,-8 -2,-2 v 0 2 z"
   id="path208"
   inkscape:connector-curvature="0"
   style="fill:#000000;stroke:none" />
         <path
   d="m 10176,14996 11,5 v 0 0 0 l 10,5 z"
   id="path210"
   inkscape:connector-curvature="0"
   style="fill:#000000;stroke:none" />
         <path
   d="m 10215,14989 -8,-5 h -8 l -7,5 -8,2 -8,5 21,10 h -3 l 3,-2 h 2 8 l -8,-5 16,-10 -3,-5 h -5 z"
   id="path212"
   inkscape:connector-curvature="0"
   style="fill:#000000;stroke:none" />
         <path
   d="m 10215,14989 -8,5 v 0 0 0 l -8,5 16,-10 -3,-5 h -5 z"
   id="path214"
   inkscape:connector-curvature="0"
   style="fill:#000000;stroke:none" />
         <path
   d="m 10311,15039 v 0 l -18,-7 -17,-8 -13,-7 -15,-6 -13,-7 -10,-5 -5,-8 -5,-2 -16,10 5,7 11,8 10,5 12,8 16,10 18,8 17,7 18,8 v 0 z"
   id="path216"
   inkscape:connector-curvature="0"
   style="fill:#000000;stroke:none" />
         <path
   d="m 10423,15065 -7,-3 h -11 l -10,-2 h -13 l -10,-3 -15,-5 -15,-2 -16,-5 -15,-6 -5,21 15,5 16,5 15,3 15,5 15,2 h 13 l 10,3 h 11 l -8,-3 15,-15 -5,-3 h -2 z"
   id="path218"
   inkscape:connector-curvature="0"
   style="fill:#000000;stroke:none" />
         <path
   d="m 10423,15065 -7,8 v 0 0 0 l -8,7 15,-15 -5,-3 h -2 z"
   id="path220"
   inkscape:connector-curvature="0"
   style="fill:#000000;stroke:none" />
         <path
   d="m 10428,15085 -2,5 2,-10 v -2 l -2,-5 -3,-8 -15,15 2,-2 h -2 v 2 l 2,-5 -2,5 2,-5 v 3 l -2,2 z"
   id="path222"
   inkscape:connector-curvature="0"
   style="fill:#000000;stroke:none" />
         <path
   d="m 10428,15085 -10,-2 v 0 0 0 l -10,-3 2,-5 v 3 l -2,2 z"
   id="path224"
   inkscape:connector-curvature="0"
   style="fill:#000000;stroke:none" />
         <path
   d="m 10782,15164 -26,-2 -20,-8 -23,-10 -18,-16 -15,-17 -10,-23 -8,-21 -2,-25 2,-23 8,-23 10,-20 15,-18 18,-15 23,-10 20,-8 26,-3 h -36 l -25,3 -21,8 -22,10 -18,15 -15,18 -11,20 -7,23 -3,23 3,25 7,21 11,23 15,17 18,16 22,10 21,8 25,2 z"
   id="path226"
   inkscape:connector-curvature="0"
   style="fill:#b2c4d6;stroke:none" />
         <path
   d="m 10650,15042 v 0 l 2,25 8,23 13,26 15,20 20,15 26,13 22,8 26,2 v -20 l -26,-3 -17,-7 -21,-8 -15,-15 -15,-15 -8,-21 -7,-18 -3,-25 v 0 z"
   id="path228"
   inkscape:connector-curvature="0"
   style="fill:#000000;stroke:none" />
         <path
   d="m 10782,14933 v -21 l -26,3 -22,7 -26,13 -20,15 -15,21 -13,23 -8,25 -2,23 h 20 l 3,-23 7,-20 8,-18 15,-15 15,-16 21,-7 17,-8 26,-2 v -21 z"
   id="path230"
   inkscape:connector-curvature="0"
   style="fill:#000000;stroke:none" />
         <path
   d="m 10746,14933 v 0 h 36 v -21 h -36 v 0 z"
   id="path232"
   inkscape:connector-curvature="0"
   style="fill:#000000;stroke:none" />
         <path
   d="m 10634,15042 v 0 l 3,-23 8,-20 7,-18 15,-15 16,-16 20,-7 18,-8 25,-2 v -21 l -25,3 -23,7 -25,13 -21,15 -15,21 -13,23 -7,25 -3,23 v 0 z"
   id="path234"
   inkscape:connector-curvature="0"
   style="fill:#000000;stroke:none" />
         <path
   d="m 10746,15154 v 0 l -25,-3 -18,-7 -20,-8 -16,-15 -15,-15 -7,-21 -8,-18 -3,-25 h -20 l 3,25 7,23 13,26 15,20 21,15 25,13 23,8 25,2 v 0 z"
   id="path236"
   inkscape:connector-curvature="0"
   style="fill:#000000;stroke:none" />
         <path
   d="m 10782,15174 v -20 h -36 v 20 h 36 v -20 z"
   id="path238"
   inkscape:connector-curvature="0"
   style="fill:#000000;stroke:none" />
         <path
   d="m 10418,15083 v -3 -2 -3 l -2,-2 -6,-8 -7,-8 -10,-5 -13,-7 -15,-8 -16,-8 -17,-7 -18,-5 -15,-6 -16,-5 -15,-2 -15,-5 -13,-3 h -13 l -10,-2 h -10 -8 l -5,2 -5,3 -2,2 12,-28 38,-104 13,-2 10,-3 8,-8 5,-10 13,-30 23,-54 20,-48 10,-20 23,-3 28,3 31,7 30,8 31,13 25,15 18,15 10,20 z"
   id="path240"
   inkscape:connector-curvature="0"
   style="fill:#b2c4d6;stroke:none" />
         <path
   d="m 10408,15078 v 2 l 2,-2 h -2 v 2 l 2,-5 16,15 2,-10 v -2 l -2,-5 -3,-8 v 2 z"
   id="path242"
   inkscape:connector-curvature="0"
   style="fill:#000000;stroke:none" />
         <path
   d="m 10311,15027 v 0 l 18,5 18,7 13,8 15,5 13,8 10,5 5,5 5,8 15,-11 -5,-7 -10,-10 -10,-5 -13,-8 -15,-10 -18,-8 -18,-8 -18,-5 v 0 z"
   id="path244"
   inkscape:connector-curvature="0"
   style="fill:#000000;stroke:none" />
         <path
   d="m 10207,15004 v 0 h 10 l 10,2 h 13 l 10,3 15,5 16,3 15,5 15,5 5,-21 -15,-5 -15,-5 -15,-2 -16,-5 -15,-3 h -13 l -10,-2 h -10 v 0 z"
   id="path246"
   inkscape:connector-curvature="0"
   style="fill:#000000;stroke:none" />
         <path
   d="m 10176,14999 21,7 h -3 l 3,-2 h 2 8 v -20 h -8 l -7,5 -8,2 -8,5 21,8 z"
   id="path248"
   inkscape:connector-curvature="0"
   style="fill:#000000;stroke:none" />
         <path
   d="m 10189,14971 v 0 l -13,28 21,5 12,-28 v 0 z"
   id="path250"
   inkscape:connector-curvature="0"
   style="fill:#000000;stroke:none" />
         <path
   d="m 10237,14859 -10,8 -38,104 20,5 39,-104 -11,7 v -20 h -7 l -3,8 z"
   id="path252"
   inkscape:connector-curvature="0"
   style="fill:#000000;stroke:none" />
         <path
   d="m 10263,14844 v 0 l -3,7 -5,5 h -5 l -13,3 v 20 l 13,-2 15,-5 11,-11 7,-12 v 0 z"
   id="path254"
   inkscape:connector-curvature="0"
   style="fill:#000000;stroke:none" />
         <path
   d="m 10339,14683 -10,8 -10,20 -20,49 -23,53 -13,31 20,5 13,-31 23,-53 20,-49 10,-20 -10,8 v -21 l -7,3 -3,5 z"
   id="path256"
   inkscape:connector-curvature="0"
   style="fill:#000000;stroke:none" />
         <path
   d="m 10545,14775 v -5 l -12,-23 -21,-18 -25,-18 -33,-12 -31,-8 -33,-8 -28,-2 -23,2 v 21 l 23,-3 28,3 28,7 31,8 28,13 25,12 15,13 8,18 v -5 l 20,5 v -3 -2 z"
   id="path258"
   inkscape:connector-curvature="0"
   style="fill:#000000;stroke:none" />
         <path
   d="m 10410,15075 18,10 117,-310 -20,-5 -117,310 18,10 -18,-10 -15,38 33,-28 z"
   id="path260"
   inkscape:connector-curvature="0"
   style="fill:#000000;stroke:none" />
         <path
   d="m 10370,14465 -5,38 -16,79 -12,76 -8,33 h 20 l 8,-33 13,-76 15,-79 5,-38 z"
   id="path262"
   inkscape:connector-curvature="0"
   style="fill:#000000;stroke:none" />
         <path
   d="m 10782,15164 18,-2 15,-3 15,-5 16,-8 25,-20 18,-26 10,-27 5,-31 -3,-23 -7,-23 -10,-20 -16,-18 -17,-15 -21,-10 -23,-8 -25,-3 -26,3 -20,8 -23,10 -18,15 -15,18 -10,20 -8,23 -2,23 2,25 8,21 10,23 15,17 18,16 23,10 20,8 z"
   id="path264"
   inkscape:connector-curvature="0"
   style="fill:#000000;stroke:none" />
         <path
   d="m 10840,15139 v 0 l -12,5 -16,5 -12,2 -18,3 v 20 l 18,-2 18,-3 15,-5 18,-10 v 0 z"
   id="path266"
   inkscape:connector-curvature="0"
   style="fill:#000000;stroke:none" />
         <path
   d="m 10894,15042 v 0 l -5,28 -8,25 -18,23 -23,21 11,15 28,-20 17,-28 13,-31 5,-33 v 0 z"
   id="path268"
   inkscape:connector-curvature="0"
   style="fill:#000000;stroke:none" />
         <path
   d="m 10782,14933 v 0 l 25,2 21,8 18,7 15,16 15,15 8,18 7,20 3,23 h 20 l -2,-23 -8,-25 -13,-23 -15,-21 -20,-15 -23,-13 -26,-7 -25,-3 v 0 z"
   id="path270"
   inkscape:connector-curvature="0"
   style="fill:#000000;stroke:none" />
         <path
   d="m 10670,15042 v 0 l 3,-23 7,-20 8,-18 15,-15 15,-16 21,-7 17,-8 26,-2 v -21 l -26,3 -22,7 -26,13 -20,15 -15,21 -13,23 -8,25 -2,23 v 0 z"
   id="path272"
   inkscape:connector-curvature="0"
   style="fill:#000000;stroke:none" />
         <path
   d="m 10782,15154 v 0 l -26,-3 -17,-7 -21,-8 -15,-15 -15,-15 -8,-21 -7,-18 -3,-25 h -20 l 2,25 8,23 13,26 15,20 20,15 26,13 22,8 26,2 v 0 z"
   id="path274"
   inkscape:connector-curvature="0"
   style="fill:#000000;stroke:none" />
         <path
   d="m 10497,13880 -104,231 -51,-5 130,-262 z"
   id="path276"
   inkscape:connector-curvature="0"
   style="fill:#476684;stroke:none" />
         <path
   d="m 10393,14121 10,-7 104,-232 -20,-5 -105,232 11,-8 v 20 h 5 l 5,-7 z"
   id="path278"
   inkscape:connector-curvature="0"
   style="fill:#000000;stroke:none" />
         <path
   d="m 10332,14104 10,12 51,5 v -20 l -51,-5 10,13 -20,-5 -6,10 16,2 z"
   id="path280"
   inkscape:connector-curvature="0"
   style="fill:#000000;stroke:none" />
         <path
   d="m 10479,13839 -18,3 -129,262 20,5 130,-262 -18,2 15,-10 -7,-15 -11,18 z"
   id="path282"
   inkscape:connector-curvature="0"
   style="fill:#000000;stroke:none" />
         <path
   d="m 10507,13882 -2,-7 -26,-36 -15,10 25,36 -2,-8 20,5 3,-2 -5,-5 z"
   id="path284"
   inkscape:connector-curvature="0"
   style="fill:#000000;stroke:none" />
         <path
   d="m 10192,14803 17,-3 16,-2 12,-8 13,-10 10,-13 8,-12 3,-16 2,-17 -2,-18 -3,-15 -8,-13 -10,-13 -13,-10 -12,-8 -16,-2 -17,-3 -18,3 -15,2 -13,8 -13,10 -10,13 -8,13 -2,15 -3,18 3,17 2,16 8,12 10,13 13,10 13,8 15,2 z"
   id="path286"
   inkscape:connector-curvature="0"
   style="fill:#284c70;stroke:none" />
         <path
   d="m 10263,14722 v 0 l -3,17 -2,13 -5,10 -10,10 -11,11 -10,5 -13,2 -17,3 v 20 l 17,-2 18,-3 16,-10 15,-10 10,-16 10,-15 3,-18 2,-17 v 0 z"
   id="path288"
   inkscape:connector-curvature="0"
   style="fill:#000000;stroke:none" />
         <path
   d="m 10192,14650 v 0 l 17,3 13,2 10,6 11,10 10,10 5,10 2,13 3,18 h 20 l -2,-18 -3,-18 -10,-15 -10,-16 -15,-10 -16,-10 -18,-2 -17,-3 v 0 z"
   id="path290"
   inkscape:connector-curvature="0"
   style="fill:#000000;stroke:none" />
         <path
   d="m 10120,14722 v 0 l 3,-18 3,-13 5,-10 10,-10 10,-10 10,-6 13,-2 18,-3 v -20 l -18,3 -18,2 -15,10 -15,10 -11,16 -10,15 -2,18 -3,18 v 0 z"
   id="path292"
   inkscape:connector-curvature="0"
   style="fill:#000000;stroke:none" />
         <path
   d="m 10192,14793 v 0 l -18,-3 -13,-2 -10,-5 -10,-11 -10,-10 -5,-10 -3,-13 -3,-17 h -20 l 3,17 2,18 10,15 11,16 15,10 15,10 18,3 18,2 v 0 z"
   id="path294"
   inkscape:connector-curvature="0"
   style="fill:#000000;stroke:none" />
         <path
   d="m 10846,15146 -16,8 -15,5 -15,3 -18,2 h 2 l -5,38 -12,51 -18,56 -21,56 -25,51 -25,46 -26,28 -25,12 v 0 l 23,5 25,3 23,5 20,3 21,2 15,5 h 10 l 8,3 23,7 17,3 11,5 v 5 0 20 49 53 33 l 33,-2 28,-3 25,-8 20,-10 13,-12 10,-18 5,-21 v -25 l -7,-41 -15,-61 -18,-73 -18,-82 -20,-74 -18,-66 -10,-43 z"
   id="path296"
   inkscape:connector-curvature="0"
   style="fill:#0a335b;stroke:none" />
         <path
   d="m 10782,15154 v 20 l 18,-2 18,-3 15,-5 18,-10 -11,-15 -12,5 -16,5 -12,2 -18,3 v 20 z"
   id="path298"
   inkscape:connector-curvature="0"
   style="fill:#000000;stroke:none" />
         <path
   d="m 10795,15164 -11,-10 h -2 v 20 h 2 l -10,-10 h 21 v -10 h -11 z"
   id="path300"
   inkscape:connector-curvature="0"
   style="fill:#000000;stroke:none" />
         <path
   d="m 10627,15492 v 20 l 30,-15 28,-30 26,-46 28,-53 20,-56 18,-56 13,-54 5,-38 h -21 l -5,38 -13,49 -17,55 -21,56 -23,49 -25,46 -23,25 -20,10 v 20 -20 l -102,3 102,17 z"
   id="path302"
   inkscape:connector-curvature="0"
   style="fill:#000000;stroke:none" />
         <path
   d="m 10627,15492 v 10 0 0 0 10 -20 l -102,3 102,17 z"
   id="path304"
   inkscape:connector-curvature="0"
   style="fill:#000000;stroke:none" />
         <path
   d="m 10774,15518 v 0 l -10,-3 h -10 l -15,-5 -21,-3 -20,-2 -23,-5 -25,-3 -23,-5 v 20 l 23,6 25,2 23,5 20,3 21,2 15,5 h 10 l 5,3 v 0 z"
   id="path306"
   inkscape:connector-curvature="0"
   style="fill:#000000;stroke:none" />
         <path
   d="m 10833,15548 -3,5 v -18 l -15,-7 -18,-3 -23,-7 -5,20 23,8 18,2 5,3 v -8 l -3,5 3,-5 -3,3 v 2 z"
   id="path308"
   inkscape:connector-curvature="0"
   style="fill:#000000;stroke:none" />
         <path
   d="m 10833,15548 h -10 v 0 0 0 h -11 l 3,-5 -3,3 v 2 z"
   id="path310"
   inkscape:connector-curvature="0"
   style="fill:#000000;stroke:none" />
         <path
   d="m 10823,15693 10,10 v -33 -53 -49 -20 h -21 v 20 49 53 33 l 11,10 -11,-10 v 10 h 11 z"
   id="path312"
   inkscape:connector-curvature="0"
   style="fill:#000000;stroke:none" />
         <path
   d="m 10947,15604 v 0 25 l -5,18 -7,16 -11,10 -17,7 -23,8 -28,2 -33,3 v 20 l 33,-2 28,-3 28,-7 23,-13 15,-15 13,-21 5,-23 v -25 0 z"
   id="path314"
   inkscape:connector-curvature="0"
   style="fill:#000000;stroke:none" />
         <path
   d="m 10851,15154 -16,-5 5,18 11,43 17,66 21,74 18,81 17,74 16,58 7,41 h 21 l -8,-41 -15,-63 -18,-74 -18,-81 -20,-74 -18,-66 -10,-43 -5,-18 -16,-5 16,5 -5,-13 -11,8 z"
   id="path316"
   inkscape:connector-curvature="0"
   style="fill:#000000;stroke:none" />
         <path
   d="m 10851,15154 -5,-8 v 0 0 0 l -6,-7 16,5 -5,-13 -11,8 z"
   id="path318"
   inkscape:connector-curvature="0"
   style="fill:#000000;stroke:none" />
         <path
   d="m 10637,14989 8,-16 10,-12 12,-11 13,-10 15,-7 16,-5 17,-6 h 18 36 v -2 l -92,-389 -63,-15 v 0 l -5,-130 -229,-61 v 43 l 190,41 23,580 z"
   id="path320"
   inkscape:connector-curvature="0"
   style="fill:#001947;stroke:none" />
         <path
   d="m 10746,14912 v 0 h -18 l -20,5 -15,5 -18,11 -13,10 -15,10 -10,15 -10,16 20,10 5,-16 10,-10 11,-10 12,-10 13,-5 15,-5 15,-5 h 18 v 0 z"
   id="path322"
   inkscape:connector-curvature="0"
   style="fill:#000000;stroke:none" />
         <path
   d="m 10772,14922 10,-10 h -36 v 21 h 36 l 10,-11 -10,11 h 10 v -11 z"
   id="path324"
   inkscape:connector-curvature="0"
   style="fill:#000000;stroke:none" />
         <path
   d="m 10772,14922 v -2 2 h 20 v -2 -3 3 0 -3 z"
   id="path326"
   inkscape:connector-curvature="0"
   style="fill:#000000;stroke:none" />
         <path
   d="m 10688,14541 -8,-8 92,389 20,-5 -92,-389 -7,-7 7,7 -2,-5 -5,-2 z"
   id="path328"
   inkscape:connector-curvature="0"
   style="fill:#000000;stroke:none" />
         <path
   d="m 10617,14516 7,10 64,15 5,-20 -64,-16 8,11 h -20 v 7 l 7,3 z"
   id="path330"
   inkscape:connector-curvature="0"
   style="fill:#000000;stroke:none" />
         <path
   d="m 10617,14516 h 10 v 0 0 0 h 10 -20 v 7 l 7,3 z"
   id="path332"
   inkscape:connector-curvature="0"
   style="fill:#000000;stroke:none" />
         <path
   d="m 10619,14396 -8,-10 6,130 h 20 l -5,-130 -8,-10 8,10 v -8 l -8,-2 z"
   id="path334"
   inkscape:connector-curvature="0"
   style="fill:#000000;stroke:none" />
         <path
   d="m 10403,14325 -13,10 229,61 5,-20 -229,-61 -13,10 13,-10 -13,-3 v 13 z"
   id="path336"
   inkscape:connector-curvature="0"
   style="fill:#000000;stroke:none" />
         <path
   d="m 10393,14358 10,10 v -43 h -21 v 43 l 11,10 -11,-10 v 8 l 11,2 z"
   id="path338"
   inkscape:connector-curvature="0"
   style="fill:#000000;stroke:none" />
         <path
   d="m 10594,14409 -11,-10 -190,-41 v 20 l 190,41 -10,-10 h 21 v -8 l -11,-2 z"
   id="path340"
   inkscape:connector-curvature="0"
   style="fill:#000000;stroke:none" />
         <path
   d="m 10606,14978 11,11 -23,-580 h -21 l 23,580 10,10 -10,-10 v 10 h 10 z"
   id="path342"
   inkscape:connector-curvature="0"
   style="fill:#000000;stroke:none" />
         <path
   d="m 10627,14984 10,-6 h -31 v 21 h 31 l 10,-5 -10,5 h 5 l 5,-5 z"
   id="path344"
   inkscape:connector-curvature="0"
   style="fill:#000000;stroke:none" />
         <path
   d="m 10627,14984 10,5 v 0 0 0 l 10,5 -10,5 h 5 l 5,-5 z"
   id="path346"
   inkscape:connector-curvature="0"
   style="fill:#000000;stroke:none" />
         <path
   d="m 10627,14984 10,5 v 0 0 0 l 10,5 -10,5 h 5 l 5,-5 z"
   id="path348"
   inkscape:connector-curvature="0"
   style="fill:#000000;stroke:none" />
         <path
   d="m 10823,15739 v -15 -11 -7 -3 0 l 33,-2 28,-3 25,-8 20,-10 16,-12 10,-18 5,-21 -3,-25 -10,-53 -10,-49 -10,-33 -3,-12 3,2 407,224 -552,117 20,-8 13,-18 5,-17 z"
   id="path350"
   inkscape:connector-curvature="0"
   style="fill:#000000;stroke:none" />
         <path
   d="m 10823,15693 -11,10 v 3 7 11 15 h 21 v -15 -11 -7 -3 l -10,10 v -20 h -11 v 10 z"
   id="path352"
   inkscape:connector-curvature="0"
   style="fill:#000000;stroke:none" />
         <path
   d="m 10823,15693 v 10 0 0 0 10 -20 h -11 v 10 z"
   id="path354"
   inkscape:connector-curvature="0"
   style="fill:#000000;stroke:none" />
         <path
   d="m 10947,15604 v 0 l 3,25 -5,18 -8,16 -13,10 -17,7 -23,8 -28,2 -33,3 v 20 l 33,-2 28,-3 28,-7 23,-13 17,-15 13,-21 5,-23 -2,-25 v 0 z"
   id="path356"
   inkscape:connector-curvature="0"
   style="fill:#000000;stroke:none" />
         <path
   d="m 10932,15449 -18,10 3,13 10,33 10,46 10,53 h 21 l -11,-53 -10,-51 -10,-33 -2,-13 -18,10 15,-15 -28,-26 10,36 z"
   id="path358"
   inkscape:connector-curvature="0"
   style="fill:#000000;stroke:none" />
         <path
   d="m 10932,15451 h 3 l -3,-2 -15,15 2,3 h 3 -3 3 v 0 z"
   id="path360"
   inkscape:connector-curvature="0"
   style="fill:#000000;stroke:none" />
         <path
   d="m 11334,15693 5,-18 -407,-224 -10,16 407,223 5,-17 v 20 l 31,-8 -26,-10 z"
   id="path362"
   inkscape:connector-curvature="0"
   style="fill:#000000;stroke:none" />
         <path
   d="m 10782,15790 v 20 l 552,-117 v -20 l -552,117 v 20 z"
   id="path364"
   inkscape:connector-curvature="0"
   style="fill:#000000;stroke:none" />
         <path
   d="m 10812,15739 -2,18 -5,12 -8,16 -15,5 v 20 l 25,-10 18,-20 5,-23 3,-18 z"
   id="path366"
   inkscape:connector-curvature="0"
   style="fill:#000000;stroke:none" />
         <path
   d="m 10548,15612 25,38 -2,38 -26,43 -38,38 -46,36 -45,33 -39,23 -23,15 -10,3 26,-21 33,-28 41,-38 38,-40 30,-44 18,-38 v -30 l -25,-21 z"
   id="path368"
   inkscape:connector-curvature="0"
   style="fill:#ffffff;stroke:none" />
         <path
   d="m 10357,15886 3,-2 22,-15 39,-23 45,-33 46,-36 41,-41 28,-46 2,-43 -30,-43 -10,15 20,33 -2,33 -23,41 -36,36 -46,35 -46,33 -38,23 -23,16 3,-3 5,20 v 0 l 3,-2 z"
   id="path370"
   inkscape:connector-curvature="0"
   style="fill:#000000;stroke:none" />
         <path
   d="m 10339,15871 8,18 10,-3 -5,-20 -10,3 7,17 -10,-15 -46,31 54,-13 z"
   id="path372"
   inkscape:connector-curvature="0"
   style="fill:#000000;stroke:none" />
         <path
   d="m 10505,15609 -3,20 18,16 v 23 l -15,35 -31,43 -38,39 -38,38 -33,28 -26,20 10,15 26,-20 33,-28 43,-38 38,-43 31,-44 20,-40 v -38 l -33,-26 -2,20 v -20 l -41,8 38,12 z"
   id="path374"
   inkscape:connector-curvature="0"
   style="fill:#000000;stroke:none" />
         <path
   d="m 10553,15604 -5,-3 -43,8 v 20 l 43,-7 -5,-3 10,-15 -3,-3 h -2 z"
   id="path376"
   inkscape:connector-curvature="0"
   style="fill:#000000;stroke:none" />
         <path
   d="m 10782,14922 -23,3 -18,8 -13,10 -10,15 -5,18 -5,20 -2,23 v 23 h -46 l 2,-23 8,-23 10,-20 15,-18 18,-15 23,-10 20,-8 z"
   id="path378"
   inkscape:connector-curvature="0"
   style="fill:#ffffff;stroke:none" />
         <path
   d="m 10706,15052 10,-10 v -23 l 2,-23 5,-18 5,-17 8,-11 10,-10 16,-5 20,-2 v -21 l -26,3 -20,10 -15,10 -13,21 -5,17 -5,23 -3,23 v 23 l 11,-10 v 20 h 10 v -10 z"
   id="path380"
   inkscape:connector-curvature="0"
   style="fill:#000000;stroke:none" />
         <path
   d="m 10650,15042 10,10 h 46 v -20 h -46 l 10,10 h -20 v 10 h 10 z"
   id="path382"
   inkscape:connector-curvature="0"
   style="fill:#000000;stroke:none" />
         <path
   d="m 10782,14933 v -21 l -26,3 -22,7 -26,13 -20,15 -15,21 -13,23 -8,25 -2,23 h 20 l 3,-23 7,-20 8,-18 15,-15 15,-16 21,-7 17,-8 26,-2 v -21 z"
   id="path384"
   inkscape:connector-curvature="0"
   style="fill:#000000;stroke:none" />
         <path
   d="m 10820,15126 -33,-26 41,-58 33,15 z"
   id="path386"
   inkscape:connector-curvature="0"
   style="fill:#ffffff;stroke:none" />
         <path
   d="m 10779,15095 3,13 33,26 10,-16 -33,-25 3,13 -16,-11 -7,5 10,8 z"
   id="path388"
   inkscape:connector-curvature="0"
   style="fill:#000000;stroke:none" />
         <path
   d="m 10830,15032 -10,5 -41,58 16,11 40,-59 -10,5 5,-20 -5,-3 -5,8 z"
   id="path390"
   inkscape:connector-curvature="0"
   style="fill:#000000;stroke:none" />
         <path
   d="m 10868,15062 -5,-15 -33,-15 -5,20 33,15 -5,-15 15,10 8,-7 -13,-8 z"
   id="path392"
   inkscape:connector-curvature="0"
   style="fill:#000000;stroke:none" />
         <path
   d="m 10815,15134 13,-3 40,-69 -15,-10 -41,69 13,-3 -10,16 8,7 5,-10 z"
   id="path394"
   inkscape:connector-curvature="0"
   style="fill:#000000;stroke:none" />
         <path
   d="m 10110,14722 3,-18 2,-15 8,-13 10,-13 13,-10 13,-8 15,-2 18,-3 v 82 z"
   id="path396"
   inkscape:connector-curvature="0"
   style="fill:#ffffff;stroke:none" />
         <path
   d="m 10202,14640 -10,-10 -18,3 -18,2 -15,10 -15,10 -11,16 -10,15 -2,18 -3,18 h 20 l 3,-18 3,-13 5,-10 10,-10 10,-10 10,-6 13,-2 18,-3 -11,-10 z"
   id="path398"
   inkscape:connector-curvature="0"
   style="fill:#000000;stroke:none" />
         <path
   d="m 10192,14732 10,-10 v -82 h -21 v 82 l 11,-11 v 21 h 10 v -10 z"
   id="path400"
   inkscape:connector-curvature="0"
   style="fill:#000000;stroke:none" />
         <path
   d="m 10100,14722 10,10 h 82 v -21 h -82 l 10,11 h -20 v 10 h 10 z"
   id="path402"
   inkscape:connector-curvature="0"
   style="fill:#000000;stroke:none" />
         <path
   d="m 10416,15073 -6,-8 -7,-8 -10,-5 -13,-7 -15,-8 -16,-8 -17,-7 -18,-5 -15,-6 -16,-5 -15,-2 -15,-5 -13,-3 h -13 l -10,-2 h -10 v 0 l 5,5 8,7 10,5 13,8 15,8 15,7 18,8 18,8 15,5 15,5 15,2 16,5 12,3 h 13 l 10,3 z"
   id="path404"
   inkscape:connector-curvature="0"
   style="fill:#ffffff;stroke:none" />
         <path
   d="m 10311,15027 v 0 l 18,5 18,7 13,8 15,5 13,8 10,5 5,5 5,8 15,-11 -5,-7 -10,-10 -10,-5 -13,-8 -15,-10 -18,-8 -18,-8 -18,-5 v 0 z"
   id="path406"
   inkscape:connector-curvature="0"
   style="fill:#000000;stroke:none" />
         <path
   d="m 10215,14989 -8,15 h 10 l 10,2 h 13 l 10,3 15,5 16,3 15,5 15,5 5,-21 -15,-5 -15,-5 -15,-2 -16,-5 -15,-3 h -13 l -10,-2 h -10 l -8,15 8,-15 h -20 l 12,15 z"
   id="path408"
   inkscape:connector-curvature="0"
   style="fill:#000000;stroke:none" />
         <path
   d="m 10215,14989 -8,5 v 0 0 0 l -8,5 8,-15 h -20 l 12,15 z"
   id="path410"
   inkscape:connector-curvature="0"
   style="fill:#000000;stroke:none" />
         <path
   d="m 10311,15039 v 0 l -18,-7 -17,-8 -13,-7 -15,-6 -13,-7 -10,-5 -5,-8 -5,-2 -16,10 5,7 11,8 10,5 12,8 16,10 18,8 17,7 18,8 v 0 z"
   id="path412"
   inkscape:connector-curvature="0"
   style="fill:#000000;stroke:none" />
         <path
   d="m 10408,15078 8,-16 h -11 l -10,-2 h -13 l -10,-3 -15,-5 -15,-2 -16,-5 -15,-6 -5,21 15,5 16,5 15,3 15,5 15,2 h 13 l 10,3 h 11 l 7,-16 -7,16 h 17 l -10,-16 z"
   id="path414"
   inkscape:connector-curvature="0"
   style="fill:#000000;stroke:none" />
         <path
   d="m 10408,15078 8,-5 v 0 0 0 l 7,-6 -7,16 h 17 l -10,-16 z"
   id="path416"
   inkscape:connector-curvature="0"
   style="fill:#000000;stroke:none" />
         <path
   d="m 10426,14887 -61,150 -44,-18 64,-150 z"
   id="path418"
   inkscape:connector-curvature="0"
   style="fill:#ffffff;stroke:none" />
         <path
   d="m 10362,15047 13,-8 61,-150 -20,-5 -62,150 13,-7 -5,20 8,3 5,-11 z"
   id="path420"
   inkscape:connector-curvature="0"
   style="fill:#000000;stroke:none" />
         <path
   d="m 10311,15017 8,12 43,18 5,-20 -43,-18 8,13 -21,-5 -2,7 10,5 z"
   id="path422"
   inkscape:connector-curvature="0"
   style="fill:#000000;stroke:none" />
         <path
   d="m 10388,14859 -13,8 -64,150 21,5 63,-150 -13,7 6,-20 -8,-3 -5,11 z"
   id="path424"
   inkscape:connector-curvature="0"
   style="fill:#000000;stroke:none" />
         <path
   d="m 10436,14889 -8,-12 -40,-18 -6,20 41,18 -7,-13 20,5 2,-7 -10,-5 z"
   id="path426"
   inkscape:connector-curvature="0"
   style="fill:#000000;stroke:none" />
         <path
   d="m 10235,14439 -3,-20 -61,5 v 20 z"
   id="path428"
   inkscape:connector-curvature="0"
   style="fill:#ffffff;stroke:none" />
         <path
   d="m 10232,14429 -10,-10 3,20 h 20 l -2,-20 -11,-10 11,10 -3,-10 h -8 z"
   id="path430"
   inkscape:connector-curvature="0"
   style="fill:#000000;stroke:none" />
         <path
   d="m 10181,14424 -10,10 61,-5 v -20 l -61,5 -10,10 10,-10 h -10 v 10 z"
   id="path432"
   inkscape:connector-curvature="0"
   style="fill:#000000;stroke:none" />
         <path
   d="m 10171,14434 10,10 v -20 h -20 v 20 l 10,11 -10,-11 v 11 h 10 z"
   id="path434"
   inkscape:connector-curvature="0"
   style="fill:#000000;stroke:none" />
         <path
   d="m 10225,14439 10,-10 -64,5 v 21 l 64,-6 10,-10 -10,10 h 13 l -3,-10 z"
   id="path436"
   inkscape:connector-curvature="0"
   style="fill:#000000;stroke:none" />
         <path
   d="m 10370,14437 -3,-41 -94,13 3,38 z"
   id="path438"
   inkscape:connector-curvature="0"
   style="fill:#ffffff;stroke:none" />
         <path
   d="m 10367,14406 -10,-10 3,41 h 20 l -3,-41 -10,-10 10,10 v -13 l -10,3 z"
   id="path440"
   inkscape:connector-curvature="0"
   style="fill:#000000;stroke:none" />
         <path
   d="m 10283,14409 -10,10 94,-13 v -20 l -94,13 -10,10 10,-10 -10,2 v 8 z"
   id="path442"
   inkscape:connector-curvature="0"
   style="fill:#000000;stroke:none" />
         <path
   d="m 10276,14437 10,10 -3,-38 h -20 l 2,38 11,10 -11,-10 v 10 h 11 z"
   id="path444"
   inkscape:connector-curvature="0"
   style="fill:#000000;stroke:none" />
         <path
   d="m 10360,14437 10,-10 -94,10 v 20 l 94,-10 10,-10 -10,10 h 10 v -10 z"
   id="path446"
   inkscape:connector-curvature="0"
   style="fill:#000000;stroke:none" />
         <path
   d="m 10031,14958 v -91 h 49 l -21,-23 -15,-44 -15,-58 -13,-69 -8,-73 -7,-69 -3,-61 3,-49 h 66 v 79 h 59 v -84 l 25,-25 30,-221 212,-59 -51,-5 130,-262 -6,-7 -7,-11 -13,-10 -13,-7 -17,-11 -21,-7 -23,-5 -25,-3 -21,36 -2,-10 -10,-8 -15,-8 -18,-5 -18,-5 -20,-2 h -18 l -13,2 -150,293 -293,53 36,262 -76,20 109,496 10,21 18,15 20,7 21,6 20,-3 15,-3 16,-5 12,-5 10,-5 8,-5 5,-2 3,-3 v 0 l 12,8 11,7 10,8 5,10 z"
   id="path448"
   inkscape:connector-curvature="0"
   style="fill:#d8e0ea;stroke:none" />
         <path
   d="m 10031,14856 -10,11 v 91 h 21 v -91 l -11,10 v -21 h -10 v 11 z"
   id="path450"
   inkscape:connector-curvature="0"
   style="fill:#000000;stroke:none" />
         <path
   d="m 10075,14874 5,-18 h -49 v 21 h 49 l 5,-18 -5,18 h 43 l -38,-18 z"
   id="path452"
   inkscape:connector-curvature="0"
   style="fill:#000000;stroke:none" />
         <path
   d="m 10001,14411 -10,10 -3,49 3,61 7,69 8,73 13,69 15,61 18,46 23,25 10,-15 -18,-20 -13,-41 -15,-56 -13,-69 -7,-73 -8,-69 -3,-61 3,-49 -10,11 v -21 h -10 v 10 z"
   id="path454"
   inkscape:connector-curvature="0"
   style="fill:#000000;stroke:none" />
         <path
   d="m 10077,14421 -10,-10 h -66 v 21 h 66 l -10,-11 h 20 v -10 h -10 z"
   id="path456"
   inkscape:connector-curvature="0"
   style="fill:#000000;stroke:none" />
         <path
   d="m 10067,14490 10,10 v -79 h -20 v 79 l 10,10 -10,-10 v 10 h 10 z"
   id="path458"
   inkscape:connector-curvature="0"
   style="fill:#000000;stroke:none" />
         <path
   d="m 10115,14500 11,-10 h -59 v 20 h 59 l 10,-10 -10,10 h 10 v -10 z"
   id="path460"
   inkscape:connector-curvature="0"
   style="fill:#000000;stroke:none" />
         <path
   d="m 10118,14409 -3,7 v 84 h 21 v -84 l -3,8 -15,-15 -3,5 v 2 z"
   id="path462"
   inkscape:connector-curvature="0"
   style="fill:#000000;stroke:none" />
         <path
   d="m 10141,14391 2,-8 -25,26 15,15 26,-25 2,-8 -2,8 2,-3 v -5 z"
   id="path464"
   inkscape:connector-curvature="0"
   style="fill:#000000;stroke:none" />
         <path
   d="m 10179,14160 -8,10 -30,221 h 20 l 31,-221 -8,10 -5,-20 -8,2 v 8 z"
   id="path466"
   inkscape:connector-curvature="0"
   style="fill:#000000;stroke:none" />
         <path
   d="m 10393,14121 -3,-20 -211,59 5,20 211,-59 -2,-20 2,20 54,-12 -56,-8 z"
   id="path468"
   inkscape:connector-curvature="0"
   style="fill:#000000;stroke:none" />
         <path
   d="m 10332,14104 10,12 51,5 v -20 l -51,-5 10,13 -20,-5 -6,10 16,2 z"
   id="path470"
   inkscape:connector-curvature="0"
   style="fill:#000000;stroke:none" />
         <path
   d="m 10461,13849 v -7 l -129,262 20,5 130,-262 v -8 8 l 2,-3 -2,-5 z"
   id="path472"
   inkscape:connector-curvature="0"
   style="fill:#000000;stroke:none" />
         <path
   d="m 10354,13788 -7,5 25,3 21,5 20,8 15,7 13,8 10,10 8,8 2,7 21,-10 -8,-8 -8,-12 -15,-10 -13,-8 -20,-13 -20,-7 -26,-5 -25,-3 -8,5 8,-5 h -5 l -3,5 z"
   id="path474"
   inkscape:connector-curvature="0"
   style="fill:#000000;stroke:none" />
         <path
   d="m 10316,13819 18,5 20,-36 -15,-10 -20,36 18,5 h -21 v 40 l 18,-35 z"
   id="path476"
   inkscape:connector-curvature="0"
   style="fill:#000000;stroke:none" />
         <path
   d="m 10220,13788 -5,5 10,-2 h 18 l 20,2 15,5 18,6 13,5 7,5 v 5 h 21 l -5,-15 -13,-11 -18,-10 -18,-5 -20,-5 -20,-3 h -18 l -16,3 -5,5 5,-5 -5,3 v 2 z"
   id="path478"
   inkscape:connector-curvature="0"
   style="fill:#000000;stroke:none" />
         <path
   d="m 10062,14086 8,-5 150,-293 -16,-10 -150,293 8,-6 v 21 h 5 l 3,-5 z"
   id="path480"
   inkscape:connector-curvature="0"
   style="fill:#000000;stroke:none" />
         <path
   d="m 9779,14129 -10,10 293,-53 v -21 l -293,54 -10,10 10,-10 -12,2 2,8 z"
   id="path482"
   inkscape:connector-curvature="0"
   style="fill:#000000;stroke:none" />
         <path
   d="m 9807,14401 8,-10 -36,-262 h -20 l 36,262 7,-10 5,20 8,-2 v -8 z"
   id="path484"
   inkscape:connector-curvature="0"
   style="fill:#000000;stroke:none" />
         <path
   d="m 9739,14411 -8,10 76,-20 -5,-20 -76,20 -8,10 8,-10 -10,3 2,7 z"
   id="path486"
   inkscape:connector-curvature="0"
   style="fill:#000000;stroke:none" />
         <path
   d="m 9848,14907 v 0 l -109,-496 h -21 l 110,496 v 0 z"
   id="path488"
   inkscape:connector-curvature="0"
   style="fill:#000000;stroke:none" />
         <path
   d="m 9907,14945 v 0 l -18,-5 -18,-5 -15,-13 -8,-15 h -20 l 13,26 20,17 23,11 23,5 v 0 z"
   id="path490"
   inkscape:connector-curvature="0"
   style="fill:#000000;stroke:none" />
         <path
   d="m 10001,14917 h -10 l -3,3 -5,2 -8,6 -7,2 -13,5 -15,5 -13,3 -20,2 v 21 l 20,-3 18,-2 15,-5 13,-6 13,-7 7,-5 5,-3 3,-2 h -10 l 10,-16 -5,-5 -5,5 z"
   id="path492"
   inkscape:connector-curvature="0"
   style="fill:#000000;stroke:none" />
         <path
   d="m 10001,14917 -5,8 v 0 0 0 l -5,8 10,-16 -5,-5 -5,5 z"
   id="path494"
   inkscape:connector-curvature="0"
   style="fill:#000000;stroke:none" />
         <path
   d="m 10034,14968 10,-12 -8,-13 -12,-10 -10,-8 -13,-8 -10,16 12,7 11,8 7,5 3,8 10,-13 v 20 h 15 l -5,-12 z"
   id="path496"
   inkscape:connector-curvature="0"
   style="fill:#000000;stroke:none" />
         <path
   d="m 10021,14958 10,10 h 3 v -20 h -3 l 11,10 h -21 v 10 h 10 z"
   id="path498"
   inkscape:connector-curvature="0"
   style="fill:#000000;stroke:none" />
         <path
   d="m 10080,14867 -21,-23 -15,-44 -15,-58 -13,-69 -8,-73 -7,-69 -3,-61 3,-49 v 3 l -10,107 5,135 20,127 38,74 z"
   id="path500"
   inkscape:connector-curvature="0"
   style="fill:#ffffff;stroke:none" />
         <path
   d="m 10011,14421 h -20 l -3,49 3,61 7,69 8,73 13,69 15,61 18,46 23,25 10,-15 -18,-20 -13,-41 -15,-56 -13,-69 -7,-73 -8,-69 -3,-61 3,-49 h -20 z"
   id="path502"
   inkscape:connector-curvature="0"
   style="fill:#000000;stroke:none" />
         <path
   d="m 10011,14424 v 0 -3 h -20 v 3 0 z"
   id="path504"
   inkscape:connector-curvature="0"
   style="fill:#000000;stroke:none" />
         <path
   d="m 10054,14856 5,3 -33,-69 -20,-124 -5,-135 10,-107 h -20 l -11,107 6,135 20,129 43,79 5,3 -5,-3 3,3 h 2 z"
   id="path506"
   inkscape:connector-curvature="0"
   style="fill:#000000;stroke:none" />
         <path
   d="m 10075,14874 5,-18 h -26 v 21 h 26 l 5,-18 -5,18 h 43 l -38,-18 z"
   id="path508"
   inkscape:connector-curvature="0"
   style="fill:#000000;stroke:none" />
         <path
   d="m 9909,14394 h -18 l -20,-245 59,-10 z"
   id="path510"
   inkscape:connector-curvature="0"
   style="fill:#999999;stroke:none" />
         <path
   d="m 9881,14394 10,10 h 18 v -21 h -18 l 11,11 h -21 v 10 h 10 z"
   id="path512"
   inkscape:connector-curvature="0"
   style="fill:#000000;stroke:none" />
         <path
   d="m 9871,14139 -10,10 20,245 h 21 l -21,-245 -10,11 v -21 l -10,3 v 7 z"
   id="path514"
   inkscape:connector-curvature="0"
   style="fill:#000000;stroke:none" />
         <path
   d="m 9940,14139 -10,-10 -59,10 v 21 l 59,-11 -11,-10 h 21 v -13 l -10,3 z"
   id="path516"
   inkscape:connector-curvature="0"
   style="fill:#000000;stroke:none" />
         <path
   d="m 9909,14404 10,-10 21,-255 h -21 l -20,255 10,-11 v 21 h 10 v -10 z"
   id="path518"
   inkscape:connector-curvature="0"
   style="fill:#000000;stroke:none" />
         <path
   d="m 10807,15533 -2,-59 -5,-122 -5,-122 -3,-68 h -20 l 2,68 5,122 5,122 3,59 z"
   id="path520"
   inkscape:connector-curvature="0"
   style="fill:#000000;stroke:none" />
         <path
   d="m 10484,14938 -15,-23 -18,-20 -23,-16 -28,-15 -30,-10 -33,-5 h -36 l -33,2 v 21 l 33,-3 h 36 l 28,5 30,10 23,11 23,15 13,15 10,18 z"
   id="path522"
   inkscape:connector-curvature="0"
   style="fill:#000000;stroke:none" />
         <path
   d="m 10466,14714 -10,-3 -63,161 20,5 64,-161 z"
   id="path524"
   inkscape:connector-curvature="0"
   style="fill:#000000;stroke:none" />
         <path
   d="m 10637,14989 h 10 l -10,-473 h -20 l 10,473 z"
   id="path526"
   inkscape:connector-curvature="0"
   style="fill:#000000;stroke:none" />
         <path
   d="m 10856,15055 10,-31 -8,-30 -20,-33 -31,-21 -5,21 21,15 15,23 8,25 -6,21 z"
   id="path528"
   inkscape:connector-curvature="0"
   style="fill:#000000;stroke:none" />
         <path
   d="m 10237,14867 v -11 h -157 v 21 h 157 z"
   id="path530"
   inkscape:connector-curvature="0"
   style="fill:#000000;stroke:none" />
         <path
   d="m 10400,14528 -7,5 -51,100 15,10 51,-99 -8,5 v -21 h -5 l -2,5 z"
   id="path532"
   inkscape:connector-curvature="0"
   style="fill:#000000;stroke:none" />
         <path
   d="m 10446,14538 -10,-10 h -36 v 21 h 36 l -10,-11 h 20 v -10 h -10 z"
   id="path534"
   inkscape:connector-curvature="0"
   style="fill:#000000;stroke:none" />
         <path
   d="m 10436,14559 10,10 v -31 h -20 v 31 l 10,10 -10,-10 v 10 h 10 z"
   id="path536"
   inkscape:connector-curvature="0"
   style="fill:#000000;stroke:none" />
         <path
   d="m 10454,14569 10,-10 h -28 v 20 h 28 l 10,-10 -10,10 h 10 v -10 z"
   id="path538"
   inkscape:connector-curvature="0"
   style="fill:#000000;stroke:none" />
         <path
   d="m 10466,14531 -12,10 v 28 h 20 v -28 l -13,10 5,-20 -12,-3 v 13 z"
   id="path540"
   inkscape:connector-curvature="0"
   style="fill:#000000;stroke:none" />
         <path
   d="m 10573,14564 -7,-10 -100,-23 -5,20 100,23 -8,-10 h 20 v -8 l -7,-2 z"
   id="path542"
   inkscape:connector-curvature="0"
   style="fill:#000000;stroke:none" />
         <path
   d="m 10578,15088 h 11 l -16,-524 h -20 l 15,524 z"
   id="path544"
   inkscape:connector-curvature="0"
   style="fill:#000000;stroke:none" />
         <path
   d="m 10001,14917 v 0 l -18,-10 -18,-7 -18,-8 -15,-5 -18,-5 -17,-3 -11,-2 h -10 v 20 h 10 l 11,3 12,2 18,5 15,5 18,8 18,8 13,5 v 0 z"
   id="path546"
   inkscape:connector-curvature="0"
   style="fill:#000000;stroke:none" />
         <path
   d="m 10044,14956 -8,-13 -12,-10 -10,-8 -13,-8 -10,16 12,7 11,8 7,5 3,8 z"
   id="path548"
   inkscape:connector-curvature="0"
   style="fill:#000000;stroke:none" />
         <path
   d="m 9891,14371 -2,-11 -84,21 5,20 84,-20 z"
   id="path550"
   inkscape:connector-curvature="0"
   style="fill:#000000;stroke:none" />
         <path
   d="m 10388,14462 10,-10 -270,36 v 20 l 270,-36 10,-10 -10,10 10,-2 v -8 z"
   id="path552"
   inkscape:connector-curvature="0"
   style="fill:#000000;stroke:none" />
         <path
   d="m 10398,14378 -10,-10 v 94 h 20 v -94 l -10,-10 10,10 v -10 h -10 z"
   id="path554"
   inkscape:connector-curvature="0"
   style="fill:#000000;stroke:none" />
         <path
   d="m 10151,14404 v 0 l 247,-26 v -20 l -247,25 v 0 z"
   id="path556"
   inkscape:connector-curvature="0"
   style="fill:#000000;stroke:none" />
         <path
   d="m 9914,14368 v 10 l 237,26 v -21 l -237,-25 z"
   id="path558"
   inkscape:connector-curvature="0"
   style="fill:#000000;stroke:none" />
         <path
   d="m 10008,14592 v 0 l -241,-15 v 20 l 241,15 v 0 z"
   id="path560"
   inkscape:connector-curvature="0"
   style="fill:#000000;stroke:none" />
         <path
   d="m 10326,14569 v -10 l -318,33 v 20 l 318,-33 z"
   id="path562"
   inkscape:connector-curvature="0"
   style="fill:#000000;stroke:none" />
         <path
   d="m 10301,13887 -5,-12 -13,-13 -18,-5 -20,-3 -20,-2 h -21 l -20,2 -18,3 5,20 13,-2 20,-3 h 21 l 20,3 15,2 13,5 8,3 v 2 z"
   id="path564"
   inkscape:connector-curvature="0"
   style="fill:#000000;stroke:none" />
         <path
   d="m 10438,13905 6,8 -8,-15 -13,-16 -20,-10 -21,-10 -22,-5 -23,-3 h -21 l -20,5 10,21 10,-5 h 21 l 23,2 17,5 21,11 15,5 8,10 2,5 5,7 -5,-7 v 5 l 5,2 z"
   id="path566"
   inkscape:connector-curvature="0"
   style="fill:#000000;stroke:none" />
         <path
   d="m 10472,13938 5,-7 -39,-26 -10,15 38,26 z"
   id="path568"
   inkscape:connector-curvature="0"
   style="fill:#000000;stroke:none" />
         <path
   d="m 10189,14099 8,-6 140,-272 -16,-10 -140,272 8,-5 v 21 h 5 l 3,-6 z"
   id="path570"
   inkscape:connector-curvature="0"
   style="fill:#000000;stroke:none" />
         <path
   d="m 9930,14137 v 10 l 259,-48 v -21 l -259,48 z"
   id="path572"
   inkscape:connector-curvature="0"
   style="fill:#000000;stroke:none" />
        </g>
       </g>
      </g>
     </g>
    </g>
   </g>
  </g>
 </g>
</svg>