<?xml version="1.0" encoding="UTF-8" standalone="no"?>
<svg
   xmlns:ooo="http://xml.openoffice.org/svg/export"
   xmlns:dc="http://purl.org/dc/elements/1.1/"
   xmlns:cc="http://creativecommons.org/ns#"
   xmlns:rdf="http://www.w3.org/1999/02/22-rdf-syntax-ns#"
   xmlns:svg="http://www.w3.org/2000/svg"
   xmlns="http://www.w3.org/2000/svg"
   xmlns:sodipodi="http://sodipodi.sourceforge.net/DTD/sodipodi-0.dtd"
   xmlns:inkscape="http://www.inkscape.org/namespaces/inkscape"
   version="1.2"
   width="18.75mm"
   height="22.299999mm"
   viewBox="0 0 1875 2229.9999"
   preserveAspectRatio="xMidYMid"
   xml:space="preserve"
   id="svg140"
   sodipodi:docname="mktbear.svg"
   style="fill-rule:evenodd;stroke-width:28.22200012;stroke-linejoin:round"
   inkscape:version="0.92.5 (2060ec1f9f, 2020-04-08)"><metadata
   id="metadata144"><rdf:RDF><cc:Work
       rdf:about=""><dc:format>image/svg+xml</dc:format><dc:type
         rdf:resource="http://purl.org/dc/dcmitype/StillImage" /></cc:Work></rdf:RDF></metadata><sodipodi:namedview
   pagecolor="#ffffff"
   bordercolor="#666666"
   borderopacity="1"
   objecttolerance="10"
   gridtolerance="10"
   guidetolerance="10"
   inkscape:pageopacity="0"
   inkscape:pageshadow="2"
   inkscape:window-width="664"
   inkscape:window-height="487"
   id="namedview142"
   showgrid="false"
   inkscape:zoom="0.2102413"
   inkscape:cx="35.451969"
   inkscape:cy="42.141731"
   inkscape:window-x="0"
   inkscape:window-y="0"
   inkscape:window-maximized="0"
   inkscape:current-layer="svg140" />
 <defs
   class="ClipPathGroup"
   id="defs8">
  <clipPath
   id="presentation_clip_path"
   clipPathUnits="userSpaceOnUse">
   <rect
   x="0"
   y="0"
   width="21000"
   height="29700"
   id="rect2" />
  </clipPath>
  <clipPath
   id="presentation_clip_path_shrink"
   clipPathUnits="userSpaceOnUse">
   <rect
   x="21"
   y="29"
   width="20958"
   height="29641"
   id="rect5" />
  </clipPath>
 </defs>
 <defs
   class="TextShapeIndex"
   id="defs12">
  <g
   ooo:slide="id1"
   ooo:id-list="id3"
   id="g10" />
 </defs>
 <defs
   class="EmbeddedBulletChars"
   id="defs44">
  <g
   id="bullet-char-template-57356"
   transform="matrix(4.8828125e-4,0,0,-4.8828125e-4,0,0)">
   <path
   d="M 580,1141 1163,571 580,0 -4,571 Z"
   id="path14"
   inkscape:connector-curvature="0" />
  </g>
  <g
   id="bullet-char-template-57354"
   transform="matrix(4.8828125e-4,0,0,-4.8828125e-4,0,0)">
   <path
   d="M 8,1128 H 1137 V 0 H 8 Z"
   id="path17"
   inkscape:connector-curvature="0" />
  </g>
  <g
   id="bullet-char-template-10146"
   transform="matrix(4.8828125e-4,0,0,-4.8828125e-4,0,0)">
   <path
   d="M 174,0 602,739 174,1481 1456,739 Z M 1358,739 309,1346 659,739 Z"
   id="path20"
   inkscape:connector-curvature="0" />
  </g>
  <g
   id="bullet-char-template-10132"
   transform="matrix(4.8828125e-4,0,0,-4.8828125e-4,0,0)">
   <path
   d="M 2015,739 1276,0 H 717 l 543,543 H 174 v 393 h 1086 l -543,545 h 557 z"
   id="path23"
   inkscape:connector-curvature="0" />
  </g>
  <g
   id="bullet-char-template-10007"
   transform="matrix(4.8828125e-4,0,0,-4.8828125e-4,0,0)">
   <path
   d="m 0,-2 c -7,16 -16,29 -25,39 l 381,530 c -94,256 -141,385 -141,387 0,25 13,38 40,38 9,0 21,-2 34,-5 21,4 42,12 65,25 l 27,-13 111,-251 280,301 64,-25 24,25 c 21,-10 41,-24 62,-43 C 886,937 835,863 770,784 769,783 710,716 594,584 L 774,223 c 0,-27 -21,-55 -63,-84 l 16,-20 C 717,90 699,76 672,76 641,76 570,178 457,381 L 164,-76 c -22,-34 -53,-51 -92,-51 -42,0 -63,17 -64,51 -7,9 -10,24 -10,44 0,9 1,19 2,30 z"
   id="path26"
   inkscape:connector-curvature="0" />
  </g>
  <g
   id="bullet-char-template-10004"
   transform="matrix(4.8828125e-4,0,0,-4.8828125e-4,0,0)">
   <path
   d="M 285,-33 C 182,-33 111,30 74,156 52,228 41,333 41,471 c 0,78 14,145 41,201 34,71 87,106 158,106 53,0 88,-31 106,-94 l 23,-176 c 8,-64 28,-97 59,-98 l 735,706 c 11,11 33,17 66,17 42,0 63,-15 63,-46 V 965 c 0,-36 -10,-64 -30,-84 L 442,47 C 390,-6 338,-33 285,-33 Z"
   id="path29"
   inkscape:connector-curvature="0" />
  </g>
  <g
   id="bullet-char-template-9679"
   transform="matrix(4.8828125e-4,0,0,-4.8828125e-4,0,0)">
   <path
   d="M 813,0 C 632,0 489,54 383,161 276,268 223,411 223,592 c 0,181 53,324 160,431 106,107 249,161 430,161 179,0 323,-54 432,-161 108,-107 162,-251 162,-431 0,-180 -54,-324 -162,-431 C 1136,54 992,0 813,0 Z"
   id="path32"
   inkscape:connector-curvature="0" />
  </g>
  <g
   id="bullet-char-template-8226"
   transform="matrix(4.8828125e-4,0,0,-4.8828125e-4,0,0)">
   <path
   d="m 346,457 c -73,0 -137,26 -191,78 -54,51 -81,114 -81,188 0,73 27,136 81,188 54,52 118,78 191,78 73,0 134,-26 185,-79 51,-51 77,-114 77,-187 0,-75 -25,-137 -76,-188 -50,-52 -112,-78 -186,-78 z"
   id="path35"
   inkscape:connector-curvature="0" />
  </g>
  <g
   id="bullet-char-template-8211"
   transform="matrix(4.8828125e-4,0,0,-4.8828125e-4,0,0)">
   <path
   d="M -4,459 H 1135 V 606 H -4 Z"
   id="path38"
   inkscape:connector-curvature="0" />
  </g>
  <g
   id="bullet-char-template-61548"
   transform="matrix(4.8828125e-4,0,0,-4.8828125e-4,0,0)">
   <path
   d="m 173,740 c 0,163 58,303 173,419 116,115 255,173 419,173 163,0 302,-58 418,-173 116,-116 174,-256 174,-419 0,-163 -58,-303 -174,-418 C 1067,206 928,148 765,148 601,148 462,206 346,322 231,437 173,577 173,740 Z"
   id="path41"
   inkscape:connector-curvature="0" />
  </g>
 </defs>
 <g
   id="g49"
   transform="translate(-9562,-13735)">
  <g
   id="id2"
   class="Master_Slide">
   <g
   id="bg-id2"
   class="Background" />
   <g
   id="bo-id2"
   class="BackgroundObjects" />
  </g>
 </g>
 <g
   class="SlideGroup"
   id="g138"
   transform="translate(-9562,-13735)">
  <g
   id="g136">
   <g
   id="container-id1">
    <g
   id="id1"
   class="Slide"
   clip-path="url(#presentation_clip_path)">
     <g
   class="Page"
   id="g132">
      <g
   class="Graphic"
   id="g130">
       <g
   id="id3">
        <rect
   class="BoundingBox"
   x="9562"
   y="13735"
   width="1875"
   height="2230"
   id="rect51"
   style="fill:none;stroke:none" />
        <path
   d="m 10837,15718 -39,-7 -38,-5 -35,-5 h -36 l -33,2 -33,5 -33,5 -31,8 -30,10 -28,13 -28,12 -28,13 -28,18 -26,15 -25,18 -26,20 -7,13 -8,18 -10,23 -20,23 -10,15 -31,8 -41,2 -46,-2 -43,-6 -33,-10 -18,-12 5,-16 -15,-20 15,-31 36,-38 43,-48 44,-51 33,-56 12,-63 -20,-64 -31,23 -28,18 -25,15 -25,13 -21,7 -20,3 -15,-3 -16,-10 -63,-96 -18,-120 13,-140 33,-152 35,-166 23,-173 v -178 l -38,-175 -23,-89 -145,23 -25,15 -31,13 -35,5 -39,-5 -38,-10 -38,-23 -38,-36 -33,-48 -10,-31 2,-28 13,-28 18,-20 13,-10 12,-8 15,-5 16,-5 15,-5 13,-5 12,-8 8,-10 23,-43 23,-48 23,-44 23,-43 28,-38 33,-28 40,-20 51,-8 h 44 43 l 41,-2 h 43 l 43,-3 h 43 l 41,-3 43,-2 41,-5 41,-3 43,-7 41,-5 40,-8 41,-8 38,-10 41,-10 -15,31 v 10 l 10,5 7,20 8,-10 10,-8 13,-2 15,2 -12,10 -11,11 -2,10 2,5 44,13 40,12 41,18 36,18 35,20 33,23 33,23 31,25 28,28 25,28 26,31 23,33 23,33 20,33 20,36 18,38 26,63 20,67 15,68 13,69 7,43 8,43 5,46 v 43 l -10,-12 -10,-11 -10,-12 -10,-10 -31,58 -8,61 3,64 13,56 38,185 20,191 10,188 5,191 8,28 18,25 25,20 31,18 33,21 30,20 28,28 18,30 8,31 -8,30 -18,26 -28,13 -25,5 -25,2 -26,3 -25,-3 h -26 l -23,-5 -23,-5 -20,-10 -33,-18 -41,-23 -48,-25 -51,-28 -51,-26 -46,-25 -40,-20 z"
   id="path53"
   inkscape:connector-curvature="0"
   style="fill:#000000;stroke:none" />
        <path
   d="m 10226,13971 18,-12 13,-10 5,-8 7,-8 21,-33 2,-28 -15,-25 -26,-18 -15,-5 h -15 -15 l -18,5 -18,5 -15,8 -18,10 -15,10 -8,13 3,18 10,15 10,8 8,-3 7,-8 10,-2 11,2 -23,23 -10,18 2,18 25,18 13,5 h 13 l 15,-5 z"
   id="path55"
   inkscape:connector-curvature="0"
   style="fill:#ffffff;stroke:none" />
        <path
   d="m 10226,13971 v 0 l 18,-12 13,-10 5,-8 7,-8 v 0 l 21,-33 2,-28 -15,-25 -26,-18 v 0 l -15,-5 h -15 -15 l -18,5 -18,5 -15,8 -18,10 -15,10 v 0 l -8,13 3,18 10,15 10,8 v 0 l 8,-3 7,-8 10,-2 11,2 v 0 l -23,23 -10,18 2,18 25,18 v 0 l 13,5 h 13 l 15,-5 z"
   id="path57"
   inkscape:connector-curvature="0"
   style="fill:none;stroke:#000000" />
        <path
   d="m 9710,13816 10,-12 15,-8 18,-5 18,-3 20,3 18,5 20,5 18,10 -13,8 -10,8 -5,7 -5,10 -8,16 -10,17 -18,26 -28,33 -7,2 -11,-5 -12,-10 -13,-15 -8,-18 -5,-23 5,-25 z"
   id="path59"
   inkscape:connector-curvature="0"
   style="fill:#000000;stroke:none" />
        <path
   d="m 9687,14205 10,-10 v -12 l -5,-13 -8,-10 -10,-8 -10,-5 -10,-3 -11,3 -10,2 -10,8 -8,8 -7,10 5,13 8,7 7,5 10,5 13,5 13,3 10,-3 z"
   id="path61"
   inkscape:connector-curvature="0"
   style="fill:#ffffff;stroke:none" />
        <path
   d="m 9687,14205 v 0 l 10,-10 v -12 l -5,-13 -8,-10 v 0 l -10,-8 -10,-5 -10,-3 -11,3 -10,2 -10,8 -8,8 -7,10 v 0 l 5,13 8,7 7,5 10,5 v 0 l 13,5 13,3 10,-3 z"
   id="path63"
   inkscape:connector-curvature="0"
   style="fill:none;stroke:#000000" />
        <path
   d="m 10223,14256 3,-2 10,-8 15,-10 13,-13 15,-18 13,-20 13,-20 5,-23 h -20 l -5,18 -8,15 -13,20 -15,13 -13,13 -10,10 -10,7 -3,3 z"
   id="path65"
   inkscape:connector-curvature="0"
   style="fill:#ffffff;stroke:none" />
        <path
   d="m 10124,15629 10,-10 -12,-2 -16,-5 -12,-6 -8,-10 -15,10 13,16 17,10 16,5 17,3 11,-11 -11,11 h 11 v -11 z"
   id="path67"
   inkscape:connector-curvature="0"
   style="fill:#000000;stroke:none" />
        <path
   d="m 10122,15622 h -3 5 l -2,2 2,5 v 0 h 21 v -5 l -3,-5 -2,-2 v -5 h -3 z"
   id="path69"
   inkscape:connector-curvature="0"
   style="fill:#000000;stroke:none" />
        <path
   d="m 10109,15573 -15,11 7,12 5,8 8,10 8,8 15,-10 -8,-8 -7,-10 -5,-8 -3,-7 -15,10 10,-16 -25,-20 10,31 z"
   id="path71"
   inkscape:connector-curvature="0"
   style="fill:#000000;stroke:none" />
        <path
   d="m 10170,15612 5,-18 h -18 l -17,-5 -16,-5 -15,-11 -10,16 15,10 20,10 23,5 h 18 l 5,-18 -5,18 31,-2 -26,-16 z"
   id="path73"
   inkscape:connector-curvature="0"
   style="fill:#000000;stroke:none" />
        <path
   d="m 10142,15556 -5,17 5,6 8,10 7,12 13,11 10,-16 -7,-5 -8,-12 -8,-11 -10,-10 -5,18 v -20 h -30 l 25,17 z"
   id="path75"
   inkscape:connector-curvature="0"
   style="fill:#000000;stroke:none" />
        <path
   d="m 10208,15589 5,-18 -12,-3 -16,-5 -23,-5 -20,-2 v 20 l 20,3 18,5 15,5 18,2 5,-18 -5,18 31,-5 -26,-13 z"
   id="path77"
   inkscape:connector-curvature="0"
   style="fill:#000000;stroke:none" />
        <path
   d="m 10167,15558 -2,-2 10,10 10,10 13,5 10,8 10,-16 -10,-7 -13,-5 -5,-5 -5,-11 -2,-2 z"
   id="path79"
   inkscape:connector-curvature="0"
   style="fill:#000000;stroke:none" />
        <path
   d="m 10155,15551 h 5 l 2,2 5,3 v 2 l 16,-15 -5,-3 -5,-2 -3,-3 -5,-5 z"
   id="path81"
   inkscape:connector-curvature="0"
   style="fill:#000000;stroke:none" />
        <path
   d="m 10554,14678 v 0 l -13,-53 8,-59 13,-58 10,-61 h -20 l -11,61 -12,58 -8,59 13,58 v 0 z"
   id="path83"
   inkscape:connector-curvature="0"
   style="fill:#ffffff;stroke:none" />
        <path
   d="m 10636,15345 v 0 l 2,-84 v -84 -84 l -5,-84 -10,-84 -15,-84 -23,-81 -31,-82 -20,5 30,82 23,81 16,79 10,84 5,84 v 84 84 l -3,84 v 0 z"
   id="path85"
   inkscape:connector-curvature="0"
   style="fill:#ffffff;stroke:none" />
        <path
   d="m 10694,15454 v -3 l -28,-17 -18,-28 -10,-26 -2,-35 h -21 l 3,35 10,36 23,33 33,23 v -3 z"
   id="path87"
   inkscape:connector-curvature="0"
   style="fill:#ffffff;stroke:none" />
        <path
   d="m 10773,15462 v 0 l -13,-3 h -10 -13 -10 -10 l -8,-3 -7,-2 h -8 l -10,15 13,5 7,3 13,2 h 10 10 13 10 l 8,3 v 0 z"
   id="path89"
   inkscape:connector-curvature="0"
   style="fill:#ffffff;stroke:none" />
        <path
   d="m 10806,15512 15,-10 -10,-10 -10,-10 -13,-13 -15,-7 -5,20 10,2 8,8 10,15 15,10 15,-10 -15,10 23,18 -8,-28 z"
   id="path91"
   inkscape:connector-curvature="0"
   style="fill:#ffffff;stroke:none" />
        <path
   d="m 10819,15446 -15,8 v 13 15 15 l 2,15 20,-5 -2,-10 v -15 -15 -13 l -15,8 10,-16 -15,-12 v 20 z"
   id="path93"
   inkscape:connector-curvature="0"
   style="fill:#ffffff;stroke:none" />
        <path
   d="m 10859,15474 6,-18 h -13 l -13,-2 -10,-3 -10,-5 -10,16 15,10 15,2 13,3 h 13 l 5,-18 -5,18 30,-5 -25,-13 z"
   id="path95"
   inkscape:connector-curvature="0"
   style="fill:#ffffff;stroke:none" />
        <path
   d="m 10839,15411 -5,17 5,8 3,10 7,16 10,12 11,-15 -5,-8 -3,-10 -8,-15 -10,-13 -5,18 v -20 l -23,5 18,12 z"
   id="path97"
   inkscape:connector-curvature="0"
   style="fill:#ffffff;stroke:none" />
        <path
   d="m 10905,15436 -5,-18 -13,3 -12,-5 -18,-5 h -18 v 20 h 18 l 13,5 17,5 23,-7 -5,-18 5,18 31,-18 h -36 z"
   id="path99"
   inkscape:connector-curvature="0"
   style="fill:#ffffff;stroke:none" />
        <path
   d="m 10885,15426 10,10 v 0 h 3 5 2 v -20 h -2 -5 -3 v 0 l 10,10 z"
   id="path101"
   inkscape:connector-curvature="0"
   style="fill:#ffffff;stroke:none" />
        <path
   d="m 10870,15383 -3,5 5,10 3,8 5,10 5,10 h 20 l -5,-15 -5,-16 -8,-7 v 0 l -2,5 z"
   id="path103"
   inkscape:connector-curvature="0"
   style="fill:#ffffff;stroke:none" />
        <path
   d="m 10941,15202 v 0 l -10,46 -18,46 -20,43 -23,46 15,10 28,-46 20,-48 18,-46 10,-51 v 0 z"
   id="path105"
   inkscape:connector-curvature="0"
   style="fill:#ffffff;stroke:none" />
        <path
   d="m 10915,15004 v 0 l 8,48 13,51 7,48 -2,51 h 20 l 3,-51 -8,-48 -13,-51 -7,-48 v 0 z"
   id="path107"
   inkscape:connector-curvature="0"
   style="fill:#ffffff;stroke:none" />
        <path
   d="m 10956,14816 -18,45 -15,46 -8,49 v 48 h 21 v -48 l 7,-44 16,-45 18,-46 z"
   id="path109"
   inkscape:connector-curvature="0"
   style="fill:#ffffff;stroke:none" />
        <path
   d="m 10188,14282 v 0 l -5,2 -16,8 -17,5 -23,8 -23,7 -23,5 -18,3 -15,-3 v 0 l -5,-2 -8,-3 -10,-2 -18,-3 -20,-2 -28,2 -31,3 -40,10"
   id="path111"
   inkscape:connector-curvature="0"
   style="fill:none;stroke:#ffffff" />
        <path
   d="m 10409,15561 -5,-5 13,15 13,13 15,10 15,12 18,11 20,12 26,13 23,10 28,10 28,11 30,12 36,10 38,13 41,10 43,13 48,13 5,-21 -48,-12 -43,-13 -41,-10 -38,-13 -36,-10 -30,-13 -28,-10 -28,-10 -23,-10 -21,-8 -20,-13 -18,-10 -15,-12 -10,-11 -13,-12 -13,-11 -5,-5 5,5 -2,-2 -3,-3 z"
   id="path113"
   inkscape:connector-curvature="0"
   style="fill:#ffffff;stroke:none" />
        <path
   d="m 10246,15411 -2,-3 13,28 12,23 10,18 13,20 21,13 22,15 33,18 41,18 5,-21 -40,-17 -28,-13 -23,-15 -16,-13 -12,-15 -10,-18 -8,-18 -13,-28 -2,-2 z"
   id="path115"
   inkscape:connector-curvature="0"
   style="fill:#ffffff;stroke:none" />
        <path
   d="m 10145,15205 v 0 l 7,28 13,28 10,28 18,25 13,25 15,23 13,26 12,23 16,-10 -13,-23 -13,-26 -15,-23 -13,-25 -13,-26 -10,-22 -12,-28 -8,-28 v 0 z"
   id="path117"
   inkscape:connector-curvature="0"
   style="fill:#ffffff;stroke:none" />
        <path
   d="m 10145,15111 v -3 23 23 l -3,25 3,26 20,-5 -3,-21 3,-25 v -23 -23 -2 z"
   id="path119"
   inkscape:connector-curvature="0"
   style="fill:#ffffff;stroke:none" />
        <path
   d="m 10119,14658 v 0 l 3,114 v 112 l 5,112 18,115 20,-5 -18,-110 -5,-112 v -112 l -2,-114 v 0 z"
   id="path121"
   inkscape:connector-curvature="0"
   style="fill:#ffffff;stroke:none" />
        <path
   d="m 10089,14432 12,38 11,71 5,71 2,46 h 21 l -3,-46 -5,-71 -10,-71 -18,-48 z"
   id="path123"
   inkscape:connector-curvature="0"
   style="fill:#ffffff;stroke:none" />
        <path
   d="m 10229,15523 v 0 l 15,-18 7,-26 -2,-33 -5,-53"
   id="path125"
   inkscape:connector-curvature="0"
   style="fill:none;stroke:#ffffff" />
        <path
   d="m 10035,14030 18,3 15,2 8,5 -3,8 -5,5 -2,7 -3,6 -2,5 -5,7 -6,5 -5,5 -10,3 -13,-3 -12,-5 -8,-10 -5,-13 -5,-2 -8,-3 -7,-2 -3,-3 10,-7 16,-8 15,-2 z"
   id="path127"
   inkscape:connector-curvature="0"
   style="fill:#ffffff;stroke:none" />
       </g>
      </g>
     </g>
    </g>
   </g>
  </g>
 </g>
</svg>