<?xml version="1.0" encoding="UTF-8" standalone="no"?>
<svg
   xmlns:ooo="http://xml.openoffice.org/svg/export"
   xmlns:dc="http://purl.org/dc/elements/1.1/"
   xmlns:cc="http://creativecommons.org/ns#"
   xmlns:rdf="http://www.w3.org/1999/02/22-rdf-syntax-ns#"
   xmlns:svg="http://www.w3.org/2000/svg"
   xmlns="http://www.w3.org/2000/svg"
   xmlns:sodipodi="http://sodipodi.sourceforge.net/DTD/sodipodi-0.dtd"
   xmlns:inkscape="http://www.inkscape.org/namespaces/inkscape"
   version="1.2"
   width="54.25mm"
   height="31.32mm"
   viewBox="0 0 5425 3132"
   preserveAspectRatio="xMidYMid"
   xml:space="preserve"
   id="svg186"
   sodipodi:docname="momsday.svg"
   style="fill-rule:evenodd;stroke-width:28.22200012;stroke-linejoin:round"
   inkscape:version="0.92.5 (2060ec1f9f, 2020-04-08)"><metadata
   id="metadata190"><rdf:RDF><cc:Work
       rdf:about=""><dc:format>image/svg+xml</dc:format><dc:type
         rdf:resource="http://purl.org/dc/dcmitype/StillImage" /></cc:Work></rdf:RDF></metadata><sodipodi:namedview
   pagecolor="#ffffff"
   bordercolor="#666666"
   borderopacity="1"
   objecttolerance="10"
   gridtolerance="10"
   guidetolerance="10"
   inkscape:pageopacity="0"
   inkscape:pageshadow="2"
   inkscape:window-width="664"
   inkscape:window-height="487"
   id="namedview188"
   showgrid="false"
   inkscape:zoom="0.2102413"
   inkscape:cx="102.53858"
   inkscape:cy="59.1874"
   inkscape:window-x="0"
   inkscape:window-y="0"
   inkscape:window-maximized="0"
   inkscape:current-layer="svg186" />
 <defs
   class="ClipPathGroup"
   id="defs8">
  <clipPath
   id="presentation_clip_path"
   clipPathUnits="userSpaceOnUse">
   <rect
   x="0"
   y="0"
   width="21000"
   height="29700"
   id="rect2" />
  </clipPath>
  <clipPath
   id="presentation_clip_path_shrink"
   clipPathUnits="userSpaceOnUse">
   <rect
   x="21"
   y="29"
   width="20958"
   height="29641"
   id="rect5" />
  </clipPath>
 </defs>
 <defs
   class="TextShapeIndex"
   id="defs12">
  <g
   ooo:slide="id1"
   ooo:id-list="id3"
   id="g10" />
 </defs>
 <defs
   class="EmbeddedBulletChars"
   id="defs44">
  <g
   id="bullet-char-template-57356"
   transform="matrix(4.8828125e-4,0,0,-4.8828125e-4,0,0)">
   <path
   d="M 580,1141 1163,571 580,0 -4,571 Z"
   id="path14"
   inkscape:connector-curvature="0" />
  </g>
  <g
   id="bullet-char-template-57354"
   transform="matrix(4.8828125e-4,0,0,-4.8828125e-4,0,0)">
   <path
   d="M 8,1128 H 1137 V 0 H 8 Z"
   id="path17"
   inkscape:connector-curvature="0" />
  </g>
  <g
   id="bullet-char-template-10146"
   transform="matrix(4.8828125e-4,0,0,-4.8828125e-4,0,0)">
   <path
   d="M 174,0 602,739 174,1481 1456,739 Z M 1358,739 309,1346 659,739 Z"
   id="path20"
   inkscape:connector-curvature="0" />
  </g>
  <g
   id="bullet-char-template-10132"
   transform="matrix(4.8828125e-4,0,0,-4.8828125e-4,0,0)">
   <path
   d="M 2015,739 1276,0 H 717 l 543,543 H 174 v 393 h 1086 l -543,545 h 557 z"
   id="path23"
   inkscape:connector-curvature="0" />
  </g>
  <g
   id="bullet-char-template-10007"
   transform="matrix(4.8828125e-4,0,0,-4.8828125e-4,0,0)">
   <path
   d="m 0,-2 c -7,16 -16,29 -25,39 l 381,530 c -94,256 -141,385 -141,387 0,25 13,38 40,38 9,0 21,-2 34,-5 21,4 42,12 65,25 l 27,-13 111,-251 280,301 64,-25 24,25 c 21,-10 41,-24 62,-43 C 886,937 835,863 770,784 769,783 710,716 594,584 L 774,223 c 0,-27 -21,-55 -63,-84 l 16,-20 C 717,90 699,76 672,76 641,76 570,178 457,381 L 164,-76 c -22,-34 -53,-51 -92,-51 -42,0 -63,17 -64,51 -7,9 -10,24 -10,44 0,9 1,19 2,30 z"
   id="path26"
   inkscape:connector-curvature="0" />
  </g>
  <g
   id="bullet-char-template-10004"
   transform="matrix(4.8828125e-4,0,0,-4.8828125e-4,0,0)">
   <path
   d="M 285,-33 C 182,-33 111,30 74,156 52,228 41,333 41,471 c 0,78 14,145 41,201 34,71 87,106 158,106 53,0 88,-31 106,-94 l 23,-176 c 8,-64 28,-97 59,-98 l 735,706 c 11,11 33,17 66,17 42,0 63,-15 63,-46 V 965 c 0,-36 -10,-64 -30,-84 L 442,47 C 390,-6 338,-33 285,-33 Z"
   id="path29"
   inkscape:connector-curvature="0" />
  </g>
  <g
   id="bullet-char-template-9679"
   transform="matrix(4.8828125e-4,0,0,-4.8828125e-4,0,0)">
   <path
   d="M 813,0 C 632,0 489,54 383,161 276,268 223,411 223,592 c 0,181 53,324 160,431 106,107 249,161 430,161 179,0 323,-54 432,-161 108,-107 162,-251 162,-431 0,-180 -54,-324 -162,-431 C 1136,54 992,0 813,0 Z"
   id="path32"
   inkscape:connector-curvature="0" />
  </g>
  <g
   id="bullet-char-template-8226"
   transform="matrix(4.8828125e-4,0,0,-4.8828125e-4,0,0)">
   <path
   d="m 346,457 c -73,0 -137,26 -191,78 -54,51 -81,114 -81,188 0,73 27,136 81,188 54,52 118,78 191,78 73,0 134,-26 185,-79 51,-51 77,-114 77,-187 0,-75 -25,-137 -76,-188 -50,-52 -112,-78 -186,-78 z"
   id="path35"
   inkscape:connector-curvature="0" />
  </g>
  <g
   id="bullet-char-template-8211"
   transform="matrix(4.8828125e-4,0,0,-4.8828125e-4,0,0)">
   <path
   d="M -4,459 H 1135 V 606 H -4 Z"
   id="path38"
   inkscape:connector-curvature="0" />
  </g>
  <g
   id="bullet-char-template-61548"
   transform="matrix(4.8828125e-4,0,0,-4.8828125e-4,0,0)">
   <path
   d="m 173,740 c 0,163 58,303 173,419 116,115 255,173 419,173 163,0 302,-58 418,-173 116,-116 174,-256 174,-419 0,-163 -58,-303 -174,-418 C 1067,206 928,148 765,148 601,148 462,206 346,322 231,437 173,577 173,740 Z"
   id="path41"
   inkscape:connector-curvature="0" />
  </g>
 </defs>
 <g
   id="g49"
   transform="translate(-7787,-13284)">
  <g
   id="id2"
   class="Master_Slide">
   <g
   id="bg-id2"
   class="Background" />
   <g
   id="bo-id2"
   class="BackgroundObjects" />
  </g>
 </g>
 <g
   class="SlideGroup"
   id="g184"
   transform="translate(-7787,-13284)">
  <g
   id="g182">
   <g
   id="container-id1">
    <g
   id="id1"
   class="Slide"
   clip-path="url(#presentation_clip_path)">
     <g
   class="Page"
   id="g178">
      <g
   class="Graphic"
   id="g176">
       <g
   id="id3">
        <rect
   class="BoundingBox"
   x="7787"
   y="13284"
   width="5425"
   height="3132"
   id="rect51"
   style="fill:none;stroke:none" />
        <path
   d="m 13194,16373 5,-173 -7,-173 -10,-175 -8,-171 v -178 l 2,-178 3,-178 v -178 -78 l -3,-77 -5,-78 v -77 -28 l 5,-28 3,-28 3,-28 5,-132 v -134 l -3,-133 -2,-132 v -185 l -6,-171 -10,-168 -18,-188 -25,-5 -25,-2 h -28 -26 -25 l -28,2 -25,3 h -26 -38 -38 l -36,-3 h -38 l -38,-2 h -38 l -36,-3 -38,-2 h -38 l -35,-3 h -39 l -35,-2 h -38 l -38,-3 h -36 -38 -71 -71 l -71,3 h -72 -71 l -71,2 h -69 l -71,3 -71,2 h -71 l -71,3 h -71 -71 l -69,2 h -71 -71 -41 -38 -41 l -38,-2 h -40 l -39,-3 h -38 l -40,-2 h -38 -41 l -38,-3 h -38 l -41,-2 h -38 -41 -38 -30 -41 -53 -64 -74 -83 -92 -97 l -104,2 h -109 -114 -117 -122 -122 l -122,3 h -125 -122 -122 -119 l -114,2 h -112 -107 -101 -94 l -87,3 h -76 -69 -58 -46 l -35,2 h -23 -8 l -15,163 v 165 l 5,165 5,163 -3,81 -5,82 -5,84 -2,81 2,79 5,76 5,79 3,79 -3,132 -2,132 -3,132 -2,133 2,218 10,219 8,218 3,219 -3,81 -5,112 -3,107 6,66 7,8 h 46 l 43,2 h 46 46 l 43,3 h 46 45 l 46,2 h 43 l 46,3 h 46 43 l 46,2 h 45 44 45 41 l 41,-2 40,-3 43,-2 41,-3 41,-2 40,-3 h 41 48 49 l 48,3 h 48 l 46,2 48,3 48,2 h 49 l 48,3 48,2 49,3 45,3 h 49 l 48,2 h 48 48 26 25 l 26,-2 h 25 26 l 25,-3 h 25 l 26,-3 25,-2 h 26 l 25,-3 h 25 26 l 25,-2 h 26 25 91 92 l 94,2 h 91 l 92,3 h 91 l 92,2 h 94 l 91,3 92,3 h 91 l 94,2 h 92 l 91,3 h 94 92 71 71 69 l 71,-3 h 71 71 l 69,-2 h 71 71 l 71,-3 h 71 69 l 71,-3 h 71 71 72 30 31 l 33,3 35,3 h 33 l 36,2 h 38 l 35,3 h 36 36 35 l 36,-3 33,-2 30,-6 33,-5 z"
   id="path53"
   inkscape:connector-curvature="0"
   style="fill:#cccccc;stroke:none" />
        <path
   d="m 9657,16319 -23,-129 -5,-97 10,-68 28,-51 38,-38 56,-36 66,-41 79,-53 -61,-59 -68,31 -64,38 -58,46 -51,48 -41,59 -30,63 -21,71 -7,77 7,40 18,36 23,35 23,33 h 10 10 10 l 11,-2 h 10 10 l 10,-3 z"
   id="path55"
   inkscape:connector-curvature="0"
   style="fill:#ffffff;stroke:none" />
        <path
   d="m 9459,16299 -20,-71 -8,-74 8,-74 20,-71 30,-68 44,-61 50,-56 59,-46 18,-13 20,-10 18,-8 20,-10 18,-10 18,-13 15,-12 15,-16 -18,-17 -22,-21 -28,-15 -33,-15 -36,-16 -41,-12 -43,-13 -41,-10 -45,-10 -43,-10 -44,-6 -40,-7 -38,-5 -36,-3 -30,-2 h -26 -30 l -28,2 -28,3 -28,2 -26,3 -28,5 -25,8 -25,5 -26,7 -25,8 -23,8 -26,10 -27,7 -26,10 -25,13 -28,10 -26,-20 3,-23 18,-23 23,-18 45,-25 43,-20 41,-16 41,-10 38,-7 38,-5 h 36 38 l 35,2 36,3 38,5 38,2 38,5 41,3 h 43 43 l -2,-76 -26,-74 -38,-69 -43,-61 -38,-51 -20,-40 2,-26 38,-10 13,3 15,7 15,11 13,5 33,43 31,43 25,48 25,46 18,51 15,51 11,51 2,53 15,15 h 3 l 20,-10 16,-71 20,-69 23,-68 25,-64 28,-63 36,-61 38,-59 43,-58 25,-28 33,-31 39,-30 40,-33 43,-28 44,-23 38,-16 35,-5 18,5 13,13 5,18 -5,18 -56,23 -53,28 -49,28 -43,33 -41,35 -35,38 -33,41 -28,43 -28,46 -23,46 -20,51 -18,50 -18,54 -15,53 -13,56 -10,59 43,25 41,25 38,26 38,25 38,26 36,28 38,30 38,36 h 10 l -5,-74 -5,-125 -5,-119 2,-61 13,-10 46,2 46,18 40,23 41,31 38,33 36,30 30,26 28,15 20,-18 21,-18 20,-18 20,-20 21,-23 15,-20 13,-26 10,-25 18,-5 20,2 23,13 25,13 26,15 25,13 23,7 20,-2 13,-23 2,-28 -2,-28 -3,-25 3,-38 10,-31 18,-30 20,-26 23,-23 26,-20 27,-23 28,-20 v -3 l 3,-2 v -3 -2 l -23,-18 -23,-18 -25,-15 -26,-18 -22,-15 -26,-16 -25,-15 -23,-18 -81,-66 -67,-71 -53,-79 -38,-84 -23,-89 -8,-94 11,-99 28,-104 -13,-3 h -28 l -36,3 -48,2 -53,6 -59,7 -63,8 -64,7 -66,8 -63,10 -61,10 -56,8 -51,10 -43,8 -31,7 -20,6 -43,17 -46,16 -43,15 -46,18 -43,15 -46,18 -43,17 -43,18 -43,18 -41,20 -43,23 -41,21 -41,25 -40,25 -38,28 -39,28 -40,36 -38,41 -36,40 -33,44 -33,45 -30,44 -33,45 -33,43 -77,105 -63,109 -54,114 -40,117 -31,120 -23,124 -10,128 -5,127 3,40 5,41 7,41 13,40 10,41 13,41 13,40 12,39 59,2 58,3 59,2 58,3 61,2 h 59 58 58 59 l 58,3 h 59 61 58 59 l 58,2 h 59 12 15 18 18 20 l 16,-2 12,-5 z"
   id="path57"
   inkscape:connector-curvature="0"
   style="fill:#6699ff;stroke:none" />
        <path
   d="m 12239,16309 7,-10 -28,-56 21,-33 18,-13 17,3 18,13 15,20 18,18 21,18 22,5 36,-8 18,-20 2,-28 -5,-33 -12,-33 -16,-31 -10,-25 -5,-13 5,-18 15,-10 23,-5 26,-3 25,-5 23,-10 15,-18 5,-30 -2,-28 -10,-23 -13,-20 -18,-16 -20,-20 -21,-20 -20,-26 -18,-35 16,-31 7,-35 3,-39 -5,-40 -11,-36 -20,-28 -28,-20 -35,-8 -18,5 -13,13 -13,18 -10,20 -10,21 -13,17 -17,13 -23,5 -18,-7 -8,-21 -7,-28 -5,-30 -8,-31 -10,-23 -21,-15 -27,3 -18,10 -16,20 -15,26 -15,30 -15,33 -16,28 -17,25 -21,21 -22,-5 -16,-10 -12,-16 -11,-17 -10,-16 -18,-15 -20,-10 -30,-5 -16,2 -17,5 -16,11 -15,10 -13,12 -10,16 -7,17 -3,16 8,38 15,23 18,20 12,28 -12,20 -23,13 -26,10 -28,5 -30,8 -23,13 -18,17 -5,28 5,18 11,15 17,13 21,10 22,11 23,5 21,2 17,3 26,23 8,22 -3,23 -13,23 -15,26 -15,25 -13,25 -5,28 8,13 15,15 18,13 12,5 23,-2 21,-8 17,-13 16,-15 17,-15 16,-15 17,-16 18,-10 15,5 13,10 8,16 2,17 -10,16 -13,20 -10,20 -7,18 40,8 41,5 38,8 38,5 41,5 38,2 h 41 z"
   id="path59"
   inkscape:connector-curvature="0"
   style="fill:#ff6600;stroke:none" />
        <path
   d="m 8321,16297 -16,-49 -12,-48 -16,-48 -10,-49 -10,-48 -8,-48 -2,-51 -3,-51 3,-92 8,-88 15,-89 20,-87 23,-86 28,-84 36,-84 38,-81 40,-79 46,-77 51,-73 53,-74 59,-69 58,-66 64,-63 66,-61 58,-49 59,-45 61,-44 61,-38 61,-33 60,-33 64,-28 64,-25 66,-23 66,-18 68,-18 69,-17 71,-13 71,-13 74,-10 76,-8 26,-2 25,-5 25,-5 26,-5 25,-6 26,-5 25,-5 25,-2 38,-5 36,-3 38,-5 38,-3 38,-2 39,-3 35,-2 38,-3 5,-7 -30,-21 -33,-17 -38,-18 -33,-23 -31,-31 -20,-35 -10,-49 2,-61 h -43 l -36,3 -33,-3 h -30 l -28,-5 -31,-10 -35,-15 -38,-23 -21,-13 -17,-15 -18,-15 -15,-18 -13,-18 -10,-20 -5,-23 -3,-23 3,-18 5,-20 5,-18 2,-18 -10,-10 -28,-15 -35,-20 -38,-28 -36,-33 -25,-44 -11,-50 16,-61 -5,-8 -168,-8 -8,5 -38,161 15,10 21,5 23,2 h 22 23 l 21,8 15,13 13,23 -26,84 -5,53 10,35 23,21 36,13 43,10 53,20 59,31 -10,25 -21,30 -28,34 -33,33 -33,28 -33,25 -33,18 -25,5 -16,-5 -25,-16 -25,-20 -31,-23 -30,-25 -31,-20 -25,-18 -18,-10 -15,20 -16,28 -15,33 -18,33 -17,33 -21,25 -20,18 -23,8 -13,-3 -17,-10 -21,-15 -25,-15 -25,-16 -28,-10 -31,-7 h -28 l -13,25 -10,31 -12,33 -11,35 -12,31 -16,30 -17,20 -23,16 -26,-8 -25,-10 -23,-10 -25,-8 -26,-7 -25,-6 -28,-2 -26,-3 -25,3 -18,10 -10,15 -5,18 -2,20 2,23 3,21 v 23 45 61 l 5,64 10,38 -23,31 -351,7 v 33 l 8,43 10,49 13,51 10,48 10,43 3,33 -3,20 -35,21 -39,18 -40,15 -41,13 -38,12 -41,16 -35,20 -36,23 10,33 21,33 23,35 25,36 25,33 21,33 15,31 5,25 -23,18 -28,25 -30,26 -33,30 -33,28 -28,28 -23,26 -18,20 20,25 23,23 23,21 26,20 25,20 25,21 23,22 23,23 -18,33 -23,28 -25,26 -28,25 -30,26 -26,25 -23,31 -15,35 25,20 28,21 28,18 28,20 26,20 20,23 20,28 13,31 -20,22 -21,23 -22,26 -21,23 -20,23 -20,25 -18,25 -15,26 20,7 33,8 43,5 48,5 49,3 40,-3 31,-2 z"
   id="path61"
   inkscape:connector-curvature="0"
   style="fill:#ffe50c;stroke:none" />
        <path
   d="m 10585,16309 -59,-101 -7,-6 -8,6 -3,20 3,28 2,30 3,21 h 18 18 l 15,2 z"
   id="path63"
   inkscape:connector-curvature="0"
   style="fill:#6699ff;stroke:none" />
        <path
   d="m 10902,16297 -23,-59 -30,-46 -36,-35 -38,-23 -46,-18 -48,-10 -53,-8 -59,-7 -10,7 v 5 l 21,5 22,8 26,8 23,12 20,13 15,15 8,21 -5,23 -18,12 -15,-5 -13,-5 -13,-8 -10,-7 -13,-8 -12,-7 -15,-6 -18,-2 25,36 26,28 20,25 23,18 28,15 28,10 38,5 46,3 h 12 l 15,-3 13,-2 13,-3 13,-2 15,-3 13,-2 z"
   id="path65"
   inkscape:connector-curvature="0"
   style="fill:#009933;stroke:none" />
        <path
   d="m 12656,16307 h 27 l 28,-3 h 31 28 30 l 28,3 h 31 28 30 28 31 28 30 l 28,-3 28,-2 28,-3 5,-2 -5,-186 -10,-8 -13,5 -13,5 -12,3 h -13 -13 l -15,-3 -13,-2 h -12 l -11,36 -15,33 -15,28 -20,25 -26,23 -28,15 -33,10 -38,3 h -18 l -12,-3 -11,-5 -10,-5 -7,-5 -8,-8 -10,-7 -13,-8 -79,56 v 3 h 3 v 2 z"
   id="path67"
   inkscape:connector-curvature="0"
   style="fill:#6699ff;stroke:none" />
        <path
   d="m 8100,16091 -26,-26 -25,-25 -23,-23 -23,-23 -23,-23 -23,-23 -25,-28 -26,-28 v -10 l 21,-28 23,-25 25,-23 25,-23 28,-20 26,-23 25,-21 26,-22 -21,-21 -25,-20 -28,-23 -31,-25 -28,-23 -22,-23 -21,-26 -10,-22 5,-18 21,-28 30,-33 38,-36 38,-35 38,-34 31,-27 18,-18 -13,-28 -20,-33 -26,-36 -28,-41 -25,-35 -20,-36 -16,-28 v -20 l 36,-28 38,-23 38,-23 41,-18 43,-20 41,-18 38,-23 38,-25 -5,-66 -21,-84 -22,-84 -18,-71 38,-25 43,-13 48,-5 51,-3 54,5 50,3 49,2 h 43 l 7,-53 v -61 l -5,-61 -2,-61 2,-56 18,-43 33,-31 56,-10 h 25 l 28,5 26,3 25,5 26,7 28,3 25,5 h 28 l 10,-30 15,-31 13,-28 10,-30 16,-51 15,-33 15,-18 20,-3 28,8 41,15 56,21 76,25 15,-15 16,-23 15,-28 15,-31 13,-28 12,-25 11,-20 7,-8 h 23 l 31,13 35,20 38,26 38,27 36,28 30,23 23,16 115,-92 v -5 l -8,-8 -23,-5 -25,-5 -31,-7 -30,-8 -31,-8 -25,-12 -23,-13 -13,-18 23,-173 -23,-7 -23,-3 h -22 l -21,-3 -20,-2 -18,-8 -18,-12 -15,-23 61,-201 h -2 v -3 h -3 v -2 l -56,2 -53,3 -56,2 h -56 l -53,3 -56,3 h -54 l -53,2 h -56 l -53,3 h -56 -54 l -55,2 h -56 -54 -56 -40 -41 l -41,-2 h -43 l -40,-3 h -41 l -41,-2 h -40 l -44,-3 h -40 l -41,-3 h -41 -43 -40 -41 -41 l -23,102 -5,150 5,153 5,117 -2,111 -3,112 -5,115 -2,112 2,55 5,56 3,56 2,56 -2,122 -3,120 -5,122 -2,119 2,186 8,183 8,183 2,180 3,23 2,23 3,23 2,23 -2,102 -5,101 -3,105 8,101 20,-2 25,-16 31,-25 30,-33 33,-33 28,-33 23,-28 z"
   id="path69"
   inkscape:connector-curvature="0"
   style="fill:#ff6d1e;stroke:none" />
        <path
   d="m 12798,16200 h 46 l 33,-10 20,-21 13,-22 5,-31 5,-30 5,-34 7,-33 11,-15 15,-7 18,5 17,7 18,13 18,10 15,10 13,3 15,-8 18,-18 15,-17 5,-13 -5,-132 -23,-23 -35,-8 -15,-15 v -18 l 10,-20 18,-18 20,-20 15,-13 5,-10 v -127 l -20,-21 -28,-5 -31,8 -33,13 -38,15 -40,10 -46,-3 -46,-17 -18,12 -17,13 -18,15 -18,13 -20,10 -18,10 -23,6 -23,2 -20,-2 -15,-6 -13,-10 -10,-10 -10,-10 -11,-10 -10,-10 -12,-8 -56,25 -3,46 3,43 -5,46 -18,41 40,40 33,41 26,41 13,38 v 41 l -13,43 -28,43 -41,48 15,59 23,28 28,5 33,-10 36,-21 35,-25 36,-18 33,-7 15,5 13,15 10,18 z"
   id="path71"
   inkscape:connector-curvature="0"
   style="fill:#ff99cc;stroke:none" />
        <path
   d="m 10956,16195 5,-76 12,-46 18,-23 21,-10 15,-3 12,-7 v -21 l -10,-38 -20,5 -28,10 -33,13 -36,15 -33,18 -33,15 -25,16 -20,12 v 11 l 25,12 23,15 20,18 23,18 18,18 15,15 15,10 11,8 z"
   id="path73"
   inkscape:connector-curvature="0"
   style="fill:#6699ff;stroke:none" />
        <path
   d="m 11670,16121 17,-35 -5,-6 -7,-2 -10,-5 -13,-3 -13,-5 -13,-2 -10,-3 -5,-2 -5,5 15,15 13,15 13,15 12,16 3,-3 h 3 2 z"
   id="path75"
   inkscape:connector-curvature="0"
   style="fill:#6699ff;stroke:none" />
        <path
   d="m 11192,15691 -3,-10 -10,-20 -12,-23 -6,-13 -48,23 -48,21 -48,22 -49,23 -48,23 -48,26 -49,23 -45,25 -49,28 -45,25 -46,28 -43,31 -43,28 -44,33 -43,33 -40,33 38,30 40,-17 41,-21 41,-28 38,-28 40,-28 41,-28 41,-28 38,-22 25,-13 26,-13 25,-13 25,-12 26,-13 25,-13 26,-10 25,-13 26,-10 25,-12 25,-11 26,-12 28,-10 25,-11 26,-12 z"
   id="path77"
   inkscape:connector-curvature="0"
   style="fill:#009933;stroke:none" />
        <path
   d="m 11639,15712 3,-3 v -2 -3 -2 l -66,-46 -64,13 -61,12 -61,16 -61,15 -61,18 -61,17 -61,23 -58,21 -59,25 -58,25 -56,28 -58,28 -54,31 -56,33 -53,36 -51,35 15,10 26,-2 30,-8 36,-18 35,-17 33,-18 26,-16 18,-10 35,-17 41,-18 46,-21 48,-17 48,-18 53,-18 54,-18 53,-18 56,-15 53,-15 54,-15 53,-13 48,-13 49,-10 45,-8 z"
   id="path79"
   inkscape:connector-curvature="0"
   style="fill:#009933;stroke:none" />
        <path
   d="m 12165,15966 20,-28 21,-30 15,-33 5,-36 -2,-18 -8,-18 -10,-15 -15,-13 -16,-10 -18,-7 -20,-3 -18,-3 -35,8 -38,20 -33,31 -26,36 -12,40 2,43 25,41 51,36 5,-3 13,-5 15,-5 21,-8 17,-7 18,-5 15,-5 z"
   id="path81"
   inkscape:connector-curvature="0"
   style="fill:#e5e5e5;stroke:none" />
        <path
   d="m 11540,15979 -5,-41 v -28 l 5,-20 10,-18 13,-13 15,-12 18,-18 20,-23 -322,76 h -3 v 3 2 3 l 33,2 33,5 31,13 30,13 31,15 30,15 28,16 30,15 z"
   id="path83"
   inkscape:connector-curvature="0"
   style="fill:#6699ff;stroke:none" />
        <path
   d="m 10414,15971 36,-20 33,-23 36,-20 33,-21 35,-20 36,-23 33,-18 35,-20 36,-20 35,-21 36,-18 36,-20 35,-18 36,-18 38,-17 35,-18 -53,-31 -25,11 -28,12 -33,16 -36,17 -38,21 -41,23 -38,22 -40,23 -41,26 -41,25 -35,23 -36,25 -33,23 -28,21 -23,20 -20,18 8,5 5,5 7,8 z"
   id="path85"
   inkscape:connector-curvature="0"
   style="fill:#009933;stroke:none" />
        <path
   d="m 12798,15923 74,-28 45,-36 21,-35 v -38 l -13,-34 -26,-25 -33,-18 -33,-7 -10,2 -12,3 -18,5 -18,7 -20,8 -16,8 -12,5 -5,5 -36,86 8,23 10,18 10,15 10,10 15,8 16,5 20,8 z"
   id="path87"
   inkscape:connector-curvature="0"
   style="fill:#e5e5e5;stroke:none" />
        <path
   d="m 10155,15821 3,-25 -5,-23 -11,-23 -12,-23 -13,-23 -10,-20 -3,-20 5,-21 23,-7 13,2 61,79 8,-38 v -41 l -11,-41 -17,-38 -23,-35 -31,-26 -38,-18 -40,-7 -18,15 -3,41 -2,51 v 56 l 5,55 12,54 23,41 33,27 z"
   id="path89"
   inkscape:connector-curvature="0"
   style="fill:#009933;stroke:none" />
        <path
   d="m 10325,15770 16,-20 10,-46 7,-46 3,-33 10,-7 10,-5 h 11 l 12,2 18,33 v 43 l -10,41 -8,36 41,-10 33,-31 23,-46 12,-53 3,-59 -5,-53 -18,-43 -28,-31 -30,26 -36,33 -38,43 -30,48 -26,51 -13,48 3,46 23,38 h 2 3 l 2,-2 z"
   id="path91"
   inkscape:connector-curvature="0"
   style="fill:#009933;stroke:none" />
        <path
   d="m 10536,15770 46,-20 43,-20 46,-23 43,-23 43,-26 41,-25 41,-28 40,-28 -20,-89 -41,15 -35,18 -36,23 -30,25 -31,28 -33,28 -30,26 -36,25 -13,26 -12,23 -15,20 -13,23 v 0 h 2 v 0 z"
   id="path93"
   inkscape:connector-curvature="0"
   style="fill:#009933;stroke:none" />
        <path
   d="m 11372,15412 26,-15 12,2 13,3 10,5 13,7 13,8 10,5 13,3 12,2 23,-7 23,-18 15,-26 8,-23 -3,-40 -10,-33 -13,-26 -12,-23 -15,-15 -13,-13 -10,-12 -3,-10 3,-11 5,-12 5,-10 2,-11 36,-28 25,-35 16,-36 5,-35 -8,-33 -20,-28 -33,-18 -49,-8 -20,3 -15,5 -13,7 -13,8 -7,8 -10,5 -11,2 -10,-2 -20,-28 -13,-33 -12,-33 -11,-33 -12,-28 -21,-23 -28,-18 -43,-5 -45,5 -36,13 -23,18 -15,25 -13,30 -10,34 -10,33 -13,35 -28,10 -18,-10 -23,-58 -33,-8 h -30 l -28,8 -23,15 -20,20 -13,23 -10,31 -3,33 3,17 10,16 13,15 13,15 10,13 7,15 3,15 -8,18 -28,16 -28,12 -28,15 -25,18 -20,21 -18,23 -10,30 -5,33 2,23 8,20 12,21 16,15 17,15 21,10 20,5 23,3 15,-3 21,-2 17,-3 h 13 l 20,13 8,23 3,28 2,33 8,30 18,26 33,18 53,7 23,-2 20,-8 18,-13 15,-15 10,-18 10,-20 8,-20 5,-23 13,-5 13,-5 10,-8 12,-8 11,5 7,6 8,7 7,8 3,25 -5,23 -3,18 -5,15 v 15 l 8,16 18,17 30,23 43,-5 31,-15 15,-20 8,-31 v -30 -36 -36 z"
   id="path95"
   inkscape:connector-curvature="0"
   style="fill:#ff99cc;stroke:none" />
        <path
   d="m 11957,15562 68,-99 -2,-10 -28,-11 -18,-7 -13,-3 -5,-5 -2,-8 -3,-10 -5,-15 -7,-23 10,-33 15,-33 20,-28 21,-28 25,-20 30,-18 34,-10 35,-5 31,35 20,31 8,25 v 23 l -11,23 -17,25 -21,31 -25,38 18,8 15,10 18,13 17,12 16,13 12,10 13,8 8,5 66,-48 -28,-87 10,-28 15,-15 18,-5 31,-3 27,-28 3,-33 -13,-30 -17,-31 h -16 l -10,13 -10,10 -13,5 -18,3 -22,-10 -11,-26 v -35 l 3,-41 -3,-41 -7,-35 -21,-26 -38,-10 -20,18 -20,18 -26,17 -25,13 -26,13 -27,10 -26,5 -28,3 -18,33 -25,30 -31,26 -35,20 -36,10 h -38 l -35,-10 -31,-28 -91,61 2,23 v 23 23 l 3,23 5,10 13,10 15,5 15,5 18,8 15,10 8,15 5,20 -5,11 -10,10 -18,7 -18,11 -20,10 -18,10 -10,15 -5,15 v 72 l 20,25 13,-3 17,-7 21,-13 25,-13 28,-12 31,-13 30,-8 31,-2 12,2 13,3 13,8 15,5 13,5 12,5 13,2 z"
   id="path97"
   inkscape:connector-curvature="0"
   style="fill:#9999ff;stroke:none" />
        <path
   d="m 11540,15577 3,-69 -89,-2 -23,79 12,10 h 6 l 12,-3 13,-2 15,-3 18,-2 13,-3 12,-2 z"
   id="path99"
   inkscape:connector-curvature="0"
   style="fill:#009933;stroke:none" />
        <path
   d="m 12912,15514 8,-11 7,-7 11,-8 7,-10 5,-168 26,-15 28,-18 25,-20 20,-23 13,-23 -2,-25 -18,-28 -38,-28 -18,2 h -20 l -21,3 -20,-3 -15,-5 -13,-10 -3,-15 3,-26 23,-23 15,-25 10,-28 3,-25 -5,-21 -16,-20 -25,-10 -38,-5 -43,5 -31,18 -23,20 -20,25 -18,28 -25,21 -31,17 -43,5 -18,-2 -15,-5 -15,-3 -18,-2 -5,5 -10,13 -15,17 -16,18 -17,23 -18,18 -16,18 -12,10 2,35 3,33 v 36 l -3,31 -7,30 -16,28 -22,25 -33,23 7,69 23,38 31,15 35,-2 38,-13 33,-15 28,-13 18,-5 33,13 36,84 30,-5 20,-11 13,-17 10,-21 10,-18 11,-17 15,-11 23,-5 15,3 15,5 13,8 13,10 15,7 15,6 15,2 z"
   id="path101"
   inkscape:connector-curvature="0"
   style="fill:#6666cc;stroke:none" />
        <path
   d="m 10615,15559 114,-86 v -10 l -7,-8 -10,-8 -10,-5 -11,-5 -15,8 -15,8 -13,10 -13,12 -12,13 -10,13 -11,15 -7,13 v 7 8 l 5,8 2,5 h 3 2 l 6,2 z"
   id="path103"
   inkscape:connector-curvature="0"
   style="fill:#009933;stroke:none" />
        <path
   d="m 13093,15473 10,-28 2,-41 v -40 l -5,-34 -18,3 -15,10 -13,15 -17,8 v 112 h 12 16 l 15,-3 z"
   id="path105"
   inkscape:connector-curvature="0"
   style="fill:#ff99cc;stroke:none" />
        <path
   d="m 12676,15366 68,-10 54,-23 38,-33 20,-41 3,-38 -13,-33 -28,-23 -46,-10 -43,5 -40,15 -36,26 -25,28 -16,33 3,35 20,36 z"
   id="path107"
   inkscape:connector-curvature="0"
   style="fill:#e5e5e5;stroke:none" />
        <path
   d="m 11194,15346 46,-5 38,-28 26,-46 15,-56 -3,-56 -15,-51 -33,-35 -53,-13 -59,10 -43,31 -25,40 -10,51 5,51 23,46 35,38 z"
   id="path109"
   inkscape:connector-curvature="0"
   style="fill:#e5e5e5;stroke:none" />
        <path
   d="m 11733,15058 15,8 13,10 10,13 10,13 11,12 12,11 16,7 20,3 33,-8 20,-18 8,-25 2,-31 v -28 l 3,-28 10,-20 20,-10 h 13 l 13,5 10,8 13,7 12,10 16,11 12,5 16,2 15,-7 7,-18 6,-21 v -17 l -8,-44 -20,-22 -21,-16 -7,-20 2,-20 5,-13 10,-10 13,-5 h 13 15 18 15 l 10,-5 8,-13 5,-15 v -13 l -3,-20 -7,-16 -13,-15 -13,-13 -17,-7 -18,-8 -18,-5 -18,-2 -12,-13 -8,-15 -8,-18 v -18 l 13,-20 5,-26 3,-25 v -26 l -54,-50 -20,2 -18,10 -15,13 -13,15 -15,18 -13,15 -18,10 -17,8 -21,-13 -10,-23 -2,-25 -3,-28 -7,-28 -11,-23 -23,-18 -35,-5 -36,8 -25,23 -15,30 -13,36 -10,36 -13,30 -20,23 -28,8 -18,-11 -18,-20 -18,-20 -17,-10 -31,5 -23,20 -20,30 -15,41 -10,43 -8,44 -5,35 v 28 l 13,15 7,21 8,17 5,21 46,5 43,5 43,8 38,15 31,20 25,31 15,38 5,53 -2,31 -8,38 -12,35 -16,28 v 3 3 l 3,2 2,3 16,-3 15,-10 13,-15 10,-18 12,-15 13,-18 15,-13 z"
   id="path111"
   inkscape:connector-curvature="0"
   style="fill:#6666cc;stroke:none" />
        <path
   d="m 13100,15089 10,-8 -2,-152 -10,-10 -61,23 -5,22 -5,31 -6,28 v 20 l 18,13 21,10 17,13 18,10 z"
   id="path113"
   inkscape:connector-curvature="0"
   style="fill:#9999ff;stroke:none" />
        <path
   d="m 12343,15086 8,-2 10,-3 12,-2 h 13 13 10 l 13,2 h 10 l 18,-12 15,-21 8,-20 7,-23 8,-23 7,-23 13,-20 15,-15 h 13 l 10,2 10,3 11,2 7,5 8,6 10,7 8,10 58,8 36,-31 20,-28 8,-30 v -28 l -8,-25 -10,-23 -10,-16 -3,-10 3,-20 5,-13 10,-10 13,-5 15,-3 15,-2 h 18 15 l 20,-5 16,-13 12,-18 8,-20 5,-20 -2,-21 -8,-18 -15,-10 -54,16 -30,-6 -13,-17 3,-28 12,-33 13,-36 13,-35 5,-28 -3,-16 -7,-12 -10,-11 -13,-7 -13,-5 -15,-5 h -15 l -13,2 -71,76 -18,-7 -15,-15 -13,-18 -10,-18 2,-18 3,-20 3,-18 v -18 l -6,-25 -10,-18 -18,-13 -25,-7 -28,2 -23,10 -18,16 -15,20 -12,20 -13,18 -15,13 -16,5 h -17 l -11,-15 -10,-18 -10,-15 -10,-13 -10,-10 -16,-10 -17,-6 -21,-2 -20,2 -23,6 -20,10 -23,12 -20,13 -21,18 -15,15 -10,18 -8,18 -5,18 -7,17 -8,18 18,36 10,40 5,44 -5,40 33,23 28,31 25,38 18,41 8,40 -5,38 -21,33 -40,26 -3,5 18,58 33,3 33,8 28,15 25,18 23,22 18,26 15,30 10,33 z"
   id="path115"
   inkscape:connector-curvature="0"
   style="fill:#ffaf28;stroke:none" />
        <path
   d="m 10727,14967 53,-107 -58,-43 -54,-41 -43,-43 -38,-48 -30,-51 -21,-59 -12,-66 -5,-76 v -20 l 2,-26 5,-30 8,-28 10,-28 13,-20 17,-13 23,-3 26,-18 25,-17 23,-23 23,-23 18,-23 15,-28 13,-28 7,-30 -20,-3 -18,3 -18,2 -17,5 -16,8 -17,8 -16,7 -18,8 -53,30 -48,36 -41,41 -33,43 -28,51 -20,53 -10,58 -5,67 5,68 18,64 25,61 35,53 41,51 48,46 51,43 56,41 10,5 8,7 10,8 10,5 10,8 11,5 10,5 z"
   id="path117"
   inkscape:connector-curvature="0"
   style="fill:#ffffff;stroke:none" />
        <path
   d="m 11743,14898 66,-15 44,-30 25,-39 5,-45 -8,-44 -22,-38 -36,-25 -46,-10 -30,5 -28,15 -26,25 -17,28 -13,33 -3,34 5,33 16,28 12,12 21,16 20,12 z"
   id="path119"
   inkscape:connector-curvature="0"
   style="fill:#e5e5e5;stroke:none" />
        <path
   d="m 12932,14845 23,-28 13,-20 10,-18 8,-15 10,-13 18,-10 25,-8 41,-8 20,-2 v -148 l -5,-12 -15,-10 -20,-6 h -26 l -25,6 -28,10 -28,20 -23,31 -3,53 -12,43 -18,33 -25,26 -23,17 -21,13 -15,8 -8,2 -2,21 10,15 z"
   id="path121"
   inkscape:connector-curvature="0"
   style="fill:#9999ff;stroke:none" />
        <path
   d="m 12396,14743 16,-2 10,-3 h 7 l 8,-2 8,-3 7,-5 8,-5 13,-10 22,-23 18,-31 13,-33 5,-33 -3,-30 -15,-26 -25,-17 -38,-6 -23,6 -26,12 -25,21 -25,22 -18,28 -15,26 -8,25 2,23 6,10 5,10 2,11 5,10 z"
   id="path123"
   inkscape:connector-curvature="0"
   style="fill:#e5e5e5;stroke:none" />
        <path
   d="m 11309,14677 5,-25 8,-26 7,-23 8,-25 10,-23 13,-23 15,-20 15,-20 -2,-23 -77,-64 -25,38 -5,84 7,92 13,61 z"
   id="path125"
   inkscape:connector-curvature="0"
   style="fill:#ffffff;stroke:none" />
        <path
   d="m 12157,15847 -30,-31 -18,3 -20,7 -15,13 -16,13 -10,17 -7,18 v 21 l 7,17 18,3 18,-3 18,-5 17,-12 16,-13 12,-15 8,-18 z"
   id="path127"
   inkscape:connector-curvature="0"
   style="fill:#ffaf0c;stroke:none" />
        <path
   d="m 12783,15839 50,-15 16,-23 -13,-21 -15,-2 h -16 l -12,5 -10,8 -8,10 -3,12 3,13 z"
   id="path129"
   inkscape:connector-curvature="0"
   style="fill:#ffaf0c;stroke:none" />
        <path
   d="m 12036,15371 17,-2 16,-8 10,-10 7,-10 5,-11 6,-12 7,-10 10,-11 -2,-5 -3,-7 -2,-5 -3,-5 h -2 l -3,-3 h -2 -3 l -20,15 -21,21 -15,22 -13,21 5,20 z"
   id="path131"
   inkscape:connector-curvature="0"
   style="fill:#ffaf0c;stroke:none" />
        <path
   d="m 12696,15290 h 10 l 13,-3 10,-5 10,-5 8,-5 10,-8 8,-7 7,-8 v -7 l -7,-11 -8,-2 h -7 -8 l -10,2 -10,8 -16,10 -12,13 -8,13 v 10 l 3,2 5,3 z"
   id="path133"
   inkscape:connector-curvature="0"
   style="fill:#ffaf0c;stroke:none" />
        <path
   d="m 11156,15147 -15,39 5,28 18,25 30,25 23,-5 18,-15 10,-25 3,-28 -8,-26 -15,-20 -28,-8 z"
   id="path135"
   inkscape:connector-curvature="0"
   style="fill:#ffaf0c;stroke:none" />
        <path
   d="m 13082,14830 v -11 l -35,-17 -26,28 v 10 l 11,15 h 15 l 13,-5 10,-10 z"
   id="path137"
   inkscape:connector-curvature="0"
   style="fill:#ffaf0c;stroke:none" />
        <path
   d="m 11807,14758 -18,-17 h -18 l -15,2 -13,5 -10,5 -5,11 -2,10 2,15 5,18 23,18 h 8 l 33,-28 z"
   id="path139"
   inkscape:connector-curvature="0"
   style="fill:#ffaf0c;stroke:none" />
        <path
   d="m 12414,14662 10,-10 16,-16 10,-17 5,-16 -10,-10 -13,-5 -13,3 -15,5 -10,12 -5,16 v 20 l 7,23 h 5 3 l 5,-3 z"
   id="path141"
   inkscape:connector-curvature="0"
   style="fill:#ffaf0c;stroke:none" />
        <path
   d="m 12930,14494 -13,-33 -15,-33 -18,-33 -15,-31 -18,-33 -13,-33 -7,-35 -3,-36 10,-7 18,-13 21,-13 22,-15 21,-13 23,-13 15,-10 13,-5 -8,-43 -20,-36 -21,-30 -17,-41 15,-20 20,-15 20,-16 23,-10 23,-10 23,-10 23,-13 20,-13 3,-5 v -7 -5 -5 l -18,-23 -20,-21 -26,-17 -25,-18 -23,-18 -20,-20 -18,-23 -8,-28 21,-26 20,-23 23,-22 25,-21 26,-20 25,-20 23,-21 25,-20 -5,-148 -28,-2 h -28 l -30,-3 h -28 l -28,-2 h -28 -28 -28 l -13,20 -12,18 -11,15 -10,18 -12,15 -13,15 -13,16 -18,18 -2,2 v 3 l -3,5 -2,2 7,10 56,46 31,59 7,63 -15,64 -35,63 -49,59 -63,43 -71,31 v 25 l 5,28 7,28 5,28 -7,41 -15,50 -18,46 -5,20 7,18 10,21 11,17 10,21 74,5 50,10 33,15 21,23 10,31 5,38 8,46 10,58 35,18 10,-5 13,-13 10,-13 z"
   id="path143"
   inkscape:connector-curvature="0"
   style="fill:#ffe50c;stroke:none" />
        <path
   d="m 13105,14476 5,-7 v -514 l -7,5 -16,5 -15,5 -18,8 -17,8 -16,7 -12,8 -5,5 35,81 23,54 8,33 -5,18 -21,10 -30,10 -43,18 -56,33 2,18 8,25 13,30 15,34 15,30 18,28 15,23 13,15 h 13 l 10,3 12,2 h 11 l 12,3 10,2 h 13 z"
   id="path145"
   inkscape:connector-curvature="0"
   style="fill:#ff6d1e;stroke:none" />
        <path
   d="m 10127,16304 -7,-13 -18,-12 -20,-16 -26,-15 -28,-12 -25,-13 -21,-8 -15,-2 -2,-11 12,-35 31,-5 33,7 35,16 36,17 38,21 38,18 41,10 43,2 v -25 l -13,-23 -28,-20 -33,-21 -35,-17 -33,-18 -26,-21 -15,-22 28,-21 41,5 48,23 56,33 53,41 49,41 40,33 28,22 5,-5 -7,-28 -11,-30 -17,-33 -18,-33 -20,-36 -26,-33 -28,-33 -28,-30 -30,-31 -31,-28 -33,-25 -30,-21 -33,-17 -33,-16 -31,-7 -30,-3 -46,5 -51,18 -53,23 -51,33 -46,38 -38,41 -23,46 -10,45 v 51 l 3,51 5,51 7,51 h 28 51 l 64,2 h 68 69 58 l 43,-2 z"
   id="path147"
   inkscape:connector-curvature="0"
   style="fill:#ff9b84;stroke:none" />
        <path
   d="m 11662,16297 5,-8 -23,-41 -33,-51 -43,-58 -51,-56 -53,-48 -56,-36 -51,-18 -46,8 11,23 12,20 15,20 13,21 15,20 16,20 12,23 13,21 -18,7 -30,-23 -33,-35 -36,-41 -35,-46 -36,-40 -38,-33 -33,-18 h -33 l -3,35 5,34 11,30 17,28 18,25 20,28 18,28 15,31 -2,13 -8,12 -7,10 -13,8 -15,-23 -15,-25 -21,-26 -20,-23 -23,-17 -25,-8 -26,5 -28,18 3,23 2,25 8,26 10,25 13,28 12,23 16,20 18,16 z"
   id="path149"
   inkscape:connector-curvature="0"
   style="fill:#ff9b84;stroke:none" />
        <path
   d="m 10897,14804 10,-2 13,-3 h 10 13 l 10,3 h 13 l 10,2 h 13 l 15,-7 18,-18 17,-23 13,-15 18,-16 18,-12 18,-10 20,-11 20,-10 21,-7 22,-8 21,-8 -5,-76 2,-76 8,-74 10,-76 -15,-5 -23,-5 -23,-3 -25,-2 -28,-3 -28,-3 -23,-2 -23,-8 -33,-15 -31,-20 -30,-21 -28,-23 -25,-22 -28,-23 -31,-21 -30,-20 -23,31 -23,30 -26,25 -27,26 -28,25 -26,23 -28,26 -28,25 -2,61 5,56 12,56 18,51 26,46 35,43 43,38 51,35 13,8 15,5 15,5 16,5 15,5 13,6 15,7 z"
   id="path151"
   inkscape:connector-curvature="0"
   style="fill:#ff9b84;stroke:none" />
        <path
   d="m 12061,13370 -5,-7 h -51 -48 -51 -51 l -48,2 h -51 -51 -48 l -51,3 h -51 -48 l -51,2 h -48 -51 -48 -51 -28 -30 l -28,-2 h -28 l -28,-3 h -31 l -28,-2 h -28 l -30,-3 h -28 l -28,-2 h -28 -31 l -27,2 h -28 l -28,3 -16,96 -5,110 3,109 2,99 3,64 5,56 10,53 13,51 18,43 20,41 25,35 31,33 33,28 38,23 41,21 45,17 51,13 54,8 58,5 61,2 56,-7 56,-21 58,-33 59,-45 58,-54 61,-61 56,-66 56,-71 53,-74 51,-76 46,-74 43,-74 38,-71 33,-63 26,-59 z"
   id="path153"
   inkscape:connector-curvature="0"
   style="fill:#ff9b84;stroke:none" />
        <path
   d="m 11558,14451 10,-28 15,-26 18,-25 18,-20 23,-18 25,-13 28,-10 31,-2 27,2 23,8 21,12 15,16 13,17 15,18 15,18 18,18 18,-10 15,-5 13,-8 12,-5 h 16 l 15,-3 15,3 20,5 21,-33 25,-33 26,-33 30,-31 31,-28 35,-20 36,-15 40,-5 23,2 23,8 18,10 18,13 15,10 15,10 13,3 h 10 l 20,-26 16,-7 12,-8 16,-8 15,-7 15,-8 15,-5 16,-5 17,-3 36,-40 15,-46 -2,-51 -8,-48 -10,-46 -5,-38 10,-33 30,-23 41,8 36,-6 33,-15 28,-23 22,-30 16,-36 12,-35 3,-38 -3,-28 -2,-21 -8,-13 -10,-7 -13,-5 -12,-5 -18,-8 -18,-13 -74,-5 -28,-18 8,-25 33,-33 46,-33 48,-36 41,-33 23,-25 -28,-8 -31,-5 -28,-2 -30,-5 -31,-3 h -30 l -31,-3 h -30 -31 -30 l -31,3 h -30 l -28,3 h -31 l -30,2 h -28 -18 l -18,3 h -17 l -18,2 -21,3 h -17 -18 -18 l -58,122 7,7 16,8 15,8 20,7 18,13 15,13 10,20 5,25 -5,49 -17,48 -28,41 -36,35 -41,26 -45,12 h -49 l -48,-15 -10,15 -8,16 -7,15 -8,15 -28,36 -28,38 -30,36 -28,35 -31,36 -33,35 -30,33 -33,33 -33,33 -33,31 -36,30 -38,28 -36,26 -40,25 -41,26 -41,20 -7,10 17,18 21,20 23,21 25,17 28,13 25,10 28,5 z"
   id="path155"
   inkscape:connector-curvature="0"
   style="fill:#af7f00;stroke:none" />
        <path
   d="m 10724,13978 -2,-53 -5,-51 -5,-51 -5,-51 v -51 l 2,-48 3,-51 v -48 l -16,-8 -15,3 -15,2 -15,3 -18,2 -41,-5 -33,-18 -28,-25 -20,-30 -18,-34 -15,-38 -15,-35 -13,-33 -33,5 -33,2 -33,3 h -33 l -33,2 h -33 -33 -33 -33 -33 -33 -36 l -33,-2 h -33 -33 -33 -20 l -26,2 -25,3 -28,5 -26,8 -20,12 -15,16 -5,23 10,40 25,31 38,18 41,10 46,5 38,2 30,3 16,2 17,21 3,18 -10,15 -18,18 -20,20 -21,18 -15,23 -5,25 5,36 15,28 26,20 28,15 33,13 35,7 36,6 h 30 23 l 21,-6 20,-5 20,-5 21,-10 17,-7 21,-11 17,-10 31,18 18,36 -8,10 -7,12 -11,11 -10,7 -5,36 v 33 l 3,35 7,36 26,20 28,16 25,12 25,8 23,5 h 26 25 l 26,-5 25,-5 23,-8 25,-10 26,-10 25,-13 28,-15 25,-13 z"
   id="path157"
   inkscape:connector-curvature="0"
   style="fill:#af7f00;stroke:none" />
        <path
   d="m 11357,13859 -41,22 -35,16 -33,7 h -31 l -30,-10 -26,-20 -28,-28 -27,-38 -28,10 -6,13 28,61 46,38 54,23 53,2 51,-7 38,-21 20,-30 z"
   id="path159"
   inkscape:connector-curvature="0"
   style="fill:#cccccc;stroke:none" />
        <path
   d="m 11537,13767 8,-38 -5,-8 -13,3 -23,7 -27,11 -36,12 -36,13 -35,10 -33,8 -28,2 -48,-7 -41,-18 -38,-28 -33,-33 -28,-31 -28,-28 -26,-17 -25,-8 -15,15 10,18 13,18 15,15 13,15 28,31 27,25 26,23 28,18 25,15 26,13 28,8 28,5 25,2 h 28 l 30,-5 28,-8 33,-10 31,-12 33,-16 z"
   id="path161"
   inkscape:connector-curvature="0"
   style="fill:#cccccc;stroke:none" />
        <path
   d="m 13105,13767 5,-150 v -3 l -2,-5 -5,-2 h -3 l -15,10 -13,10 -10,10 -8,13 -10,13 -7,13 -10,10 -13,12 86,69 z"
   id="path163"
   inkscape:connector-curvature="0"
   style="fill:#ff6d1e;stroke:none" />
        <path
   d="m 12127,13584 -23,-20 -20,-3 -18,13 -18,25 -15,28 -13,31 -10,28 -8,20 3,5 20,13 21,-5 17,-16 18,-25 16,-28 12,-28 10,-23 z"
   id="path165"
   inkscape:connector-curvature="0"
   style="fill:#ff99cc;stroke:none" />
        <path
   d="m 11776,13688 23,-7 8,-16 -3,-15 -10,-5 -10,-8 -15,-7 -16,-5 -17,-5 -13,2 -10,5 -5,13 2,5 3,10 2,10 3,5 z"
   id="path167"
   inkscape:connector-curvature="0"
   style="fill:#cccccc;stroke:none" />
        <path
   d="m 11487,13490 -28,-26 -33,6 h -31 l -25,-6 -28,-7 -26,-10 -25,-13 -25,-13 -28,-15 -18,10 -5,36 25,35 41,28 53,21 54,12 50,-2 36,-18 z"
   id="path169"
   inkscape:connector-curvature="0"
   style="fill:#cccccc;stroke:none" />
        <path
   d="m 10714,13416 5,-58 -23,-5 -22,-3 -23,-2 h -23 -23 -23 l -23,2 -23,3 v 20 l 3,23 10,23 13,20 18,20 17,16 21,10 20,2 13,-2 12,-5 11,-8 10,-10 7,-13 8,-10 8,-13 z"
   id="path171"
   inkscape:connector-curvature="0"
   style="fill:#ff99cc;stroke:none" />
        <path
   d="m 10956,13459 7,-20 -2,-15 -5,-8 -11,-5 h -15 l -15,3 -15,2 -16,5 v 3 l -2,2 v 3 l -3,2 -2,8 2,8 3,7 5,8 18,10 10,-2 15,-6 15,-2 z"
   id="path173"
   inkscape:connector-curvature="0"
   style="fill:#cccccc;stroke:none" />
       </g>
      </g>
     </g>
    </g>
   </g>
  </g>
 </g>
</svg>