<?xml version="1.0" encoding="UTF-8" standalone="no"?>
<svg
   xmlns:ooo="http://xml.openoffice.org/svg/export"
   xmlns:dc="http://purl.org/dc/elements/1.1/"
   xmlns:cc="http://creativecommons.org/ns#"
   xmlns:rdf="http://www.w3.org/1999/02/22-rdf-syntax-ns#"
   xmlns:svg="http://www.w3.org/2000/svg"
   xmlns="http://www.w3.org/2000/svg"
   xmlns:sodipodi="http://sodipodi.sourceforge.net/DTD/sodipodi-0.dtd"
   xmlns:inkscape="http://www.inkscape.org/namespaces/inkscape"
   version="1.2"
   width="38.560001mm"
   height="25.6mm"
   viewBox="0 0 3856.0001 2560"
   preserveAspectRatio="xMidYMid"
   xml:space="preserve"
   id="svg155"
   sodipodi:docname="mrchbnd1.svg"
   style="fill-rule:evenodd;stroke-width:28.22200012;stroke-linejoin:round"
   inkscape:version="0.92.5 (2060ec1f9f, 2020-04-08)"><metadata
   id="metadata159"><rdf:RDF><cc:Work
       rdf:about=""><dc:format>image/svg+xml</dc:format><dc:type
         rdf:resource="http://purl.org/dc/dcmitype/StillImage" /></cc:Work></rdf:RDF></metadata><sodipodi:namedview
   pagecolor="#ffffff"
   bordercolor="#666666"
   borderopacity="1"
   objecttolerance="10"
   gridtolerance="10"
   guidetolerance="10"
   inkscape:pageopacity="0"
   inkscape:pageshadow="2"
   inkscape:window-width="664"
   inkscape:window-height="487"
   id="namedview157"
   showgrid="false"
   inkscape:zoom="0.2102413"
   inkscape:cx="72.869292"
   inkscape:cy="48.377951"
   inkscape:window-x="0"
   inkscape:window-y="0"
   inkscape:window-maximized="0"
   inkscape:current-layer="svg155" />
 <defs
   class="ClipPathGroup"
   id="defs8">
  <clipPath
   id="presentation_clip_path"
   clipPathUnits="userSpaceOnUse">
   <rect
   x="0"
   y="0"
   width="21000"
   height="29700"
   id="rect2" />
  </clipPath>
  <clipPath
   id="presentation_clip_path_shrink"
   clipPathUnits="userSpaceOnUse">
   <rect
   x="21"
   y="29"
   width="20958"
   height="29641"
   id="rect5" />
  </clipPath>
 </defs>
 <defs
   class="TextShapeIndex"
   id="defs12">
  <g
   ooo:slide="id1"
   ooo:id-list="id3"
   id="g10" />
 </defs>
 <defs
   class="EmbeddedBulletChars"
   id="defs44">
  <g
   id="bullet-char-template-57356"
   transform="matrix(4.8828125e-4,0,0,-4.8828125e-4,0,0)">
   <path
   d="M 580,1141 1163,571 580,0 -4,571 Z"
   id="path14"
   inkscape:connector-curvature="0" />
  </g>
  <g
   id="bullet-char-template-57354"
   transform="matrix(4.8828125e-4,0,0,-4.8828125e-4,0,0)">
   <path
   d="M 8,1128 H 1137 V 0 H 8 Z"
   id="path17"
   inkscape:connector-curvature="0" />
  </g>
  <g
   id="bullet-char-template-10146"
   transform="matrix(4.8828125e-4,0,0,-4.8828125e-4,0,0)">
   <path
   d="M 174,0 602,739 174,1481 1456,739 Z M 1358,739 309,1346 659,739 Z"
   id="path20"
   inkscape:connector-curvature="0" />
  </g>
  <g
   id="bullet-char-template-10132"
   transform="matrix(4.8828125e-4,0,0,-4.8828125e-4,0,0)">
   <path
   d="M 2015,739 1276,0 H 717 l 543,543 H 174 v 393 h 1086 l -543,545 h 557 z"
   id="path23"
   inkscape:connector-curvature="0" />
  </g>
  <g
   id="bullet-char-template-10007"
   transform="matrix(4.8828125e-4,0,0,-4.8828125e-4,0,0)">
   <path
   d="m 0,-2 c -7,16 -16,29 -25,39 l 381,530 c -94,256 -141,385 -141,387 0,25 13,38 40,38 9,0 21,-2 34,-5 21,4 42,12 65,25 l 27,-13 111,-251 280,301 64,-25 24,25 c 21,-10 41,-24 62,-43 C 886,937 835,863 770,784 769,783 710,716 594,584 L 774,223 c 0,-27 -21,-55 -63,-84 l 16,-20 C 717,90 699,76 672,76 641,76 570,178 457,381 L 164,-76 c -22,-34 -53,-51 -92,-51 -42,0 -63,17 -64,51 -7,9 -10,24 -10,44 0,9 1,19 2,30 z"
   id="path26"
   inkscape:connector-curvature="0" />
  </g>
  <g
   id="bullet-char-template-10004"
   transform="matrix(4.8828125e-4,0,0,-4.8828125e-4,0,0)">
   <path
   d="M 285,-33 C 182,-33 111,30 74,156 52,228 41,333 41,471 c 0,78 14,145 41,201 34,71 87,106 158,106 53,0 88,-31 106,-94 l 23,-176 c 8,-64 28,-97 59,-98 l 735,706 c 11,11 33,17 66,17 42,0 63,-15 63,-46 V 965 c 0,-36 -10,-64 -30,-84 L 442,47 C 390,-6 338,-33 285,-33 Z"
   id="path29"
   inkscape:connector-curvature="0" />
  </g>
  <g
   id="bullet-char-template-9679"
   transform="matrix(4.8828125e-4,0,0,-4.8828125e-4,0,0)">
   <path
   d="M 813,0 C 632,0 489,54 383,161 276,268 223,411 223,592 c 0,181 53,324 160,431 106,107 249,161 430,161 179,0 323,-54 432,-161 108,-107 162,-251 162,-431 0,-180 -54,-324 -162,-431 C 1136,54 992,0 813,0 Z"
   id="path32"
   inkscape:connector-curvature="0" />
  </g>
  <g
   id="bullet-char-template-8226"
   transform="matrix(4.8828125e-4,0,0,-4.8828125e-4,0,0)">
   <path
   d="m 346,457 c -73,0 -137,26 -191,78 -54,51 -81,114 -81,188 0,73 27,136 81,188 54,52 118,78 191,78 73,0 134,-26 185,-79 51,-51 77,-114 77,-187 0,-75 -25,-137 -76,-188 -50,-52 -112,-78 -186,-78 z"
   id="path35"
   inkscape:connector-curvature="0" />
  </g>
  <g
   id="bullet-char-template-8211"
   transform="matrix(4.8828125e-4,0,0,-4.8828125e-4,0,0)">
   <path
   d="M -4,459 H 1135 V 606 H -4 Z"
   id="path38"
   inkscape:connector-curvature="0" />
  </g>
  <g
   id="bullet-char-template-61548"
   transform="matrix(4.8828125e-4,0,0,-4.8828125e-4,0,0)">
   <path
   d="m 173,740 c 0,163 58,303 173,419 116,115 255,173 419,173 163,0 302,-58 418,-173 116,-116 174,-256 174,-419 0,-163 -58,-303 -174,-418 C 1067,206 928,148 765,148 601,148 462,206 346,322 231,437 173,577 173,740 Z"
   id="path41"
   inkscape:connector-curvature="0" />
  </g>
 </defs>
 <g
   id="g49"
   transform="translate(-8572,-13570)">
  <g
   id="id2"
   class="Master_Slide">
   <g
   id="bg-id2"
   class="Background" />
   <g
   id="bo-id2"
   class="BackgroundObjects" />
  </g>
 </g>
 <g
   class="SlideGroup"
   id="g153"
   transform="translate(-8572,-13570)">
  <g
   id="g151">
   <g
   id="container-id1">
    <g
   id="id1"
   class="Slide"
   clip-path="url(#presentation_clip_path)">
     <g
   class="Page"
   id="g147">
      <g
   class="Graphic"
   id="g145">
       <g
   id="id3">
        <rect
   class="BoundingBox"
   x="8572"
   y="13570"
   width="3856"
   height="2560"
   id="rect51"
   style="fill:none;stroke:none" />
        <defs
   id="defs56">
         <clipPath
   id="clip_path_1"
   clipPathUnits="userSpaceOnUse">
          <path
   d="m 8572,13570 h 3855 v 2559 H 8572 Z"
   id="path53"
   inkscape:connector-curvature="0" />
         </clipPath>
        </defs>
        <g
   clip-path="url(#clip_path_1)"
   id="g142">
         <path
   d="m 9050,14211 10,2 10,3 8,2 10,3 163,33 20,5 48,10 26,5 193,43 89,18 38,10 86,18 72,15 477,102 384,84 21,5 355,76 39,11 35,5 28,7 18,3 -8,20 -10,28 -7,25 -6,21 -7,-3 -36,-5 -38,-7 -43,-8 -704,-137 -10,-3 -23,-2 -36,-8 -43,-8 -53,-10 -56,-10 -64,-10 -66,-13 -66,-13 -66,-12 -66,-13 -61,-10 -56,-10 -51,-11 -41,-7 -30,-5 h -8 l -5,-3 h -5 -5 l -239,-51 -10,3 -15,-3 -16,-2 -7,-10 -171,-38 -22,-3 -23,-5 -26,-3 -28,-5 -28,-2 -30,-3 -31,-2 h -30 l -31,-3 -30,3 h -31 l -28,2 -25,5 -25,5 -23,8 -21,10 -10,5 h -13 l -10,-2 -5,-13 v -25 -39 l 3,-50 7,-59 11,-43 15,-43 15,-38 18,-23 7,-5 11,-3 10,5 10,10 41,38 38,31 40,25 41,18 43,18 49,13 50,15 z"
   id="path58"
   inkscape:connector-curvature="0"
   style="fill:#000000;stroke:none" />
         <path
   d="m 11838,15098 10,2 13,11 8,10 5,10 8,10 12,8 15,5 h 13 l 15,-3 21,-2 h 15 l 10,5 -7,-10 -16,-3 h -17 l -18,3 -16,-5 -7,-13 -3,-15 -2,-18 -8,-18 -15,-10 -18,-5 h -15 -10 l -3,-8 v -13 l 3,-7 2,-3 h 8 10 l 15,-2 h 16 17 18 l 18,-3 18,-7 15,-11 13,-15 10,-18 10,-17 8,-18 5,-21 2,-15 -23,8 -2,33 -8,23 -15,15 -23,10 10,-15 15,-23 13,-25 10,-18 23,-8 3,-15 5,-15 2,-11 5,-10 26,-18 46,-33 58,-45 69,-51 66,-54 61,-45 46,-36 25,-20 -3,-54 -7,-53 -10,-53 -13,-51 -18,-51 -23,-51 -25,-51 -31,-51 -15,-25 -18,-23 -17,-25 -18,-23 -18,-21 -15,-20 -18,-20 -18,-21 23,-38 18,-33 18,-33 12,-33 8,-33 5,-33 v -36 l -3,-38 -2,-5 -3,-2 -7,-5 -8,-3 -5,-2 -8,-3 h -5 l -7,-3 -8,-22 -13,-21 -20,-15 -25,-10 -16,-3 -17,-2 h -21 l -20,2 -20,3 -21,2 -18,5 -15,3 h -10 l -10,-3 -8,-2 -5,2 -2,6 -3,10 -5,7 -5,3 h -5 -13 -13 -10 l -5,10 -2,10 2,10 5,8 -18,5 -17,3 -23,5 h -21 l -22,2 -21,-2 -18,-3 -15,-5 -7,5 h -8 -8 l -7,-2 -3,5 -2,5 -3,5 -3,5 -7,-8 -10,-5 -10,-5 h -6 l -2,3 -3,2 v 8 5 l 8,8 10,10 8,10 2,5 v 5 5 l 3,5 v 5 l 13,3 20,2 h 20 15 l -7,11 -8,7 -7,10 -8,8 -13,5 -18,5 -15,8 -10,2 8,3 7,5 8,3 5,5 23,-21 10,13 -10,8 -13,5 -13,5 -15,5 -15,5 -18,2 -20,3 h -20 l 22,36 39,-21 20,26 10,-8 20,-15 26,-18 15,-13 -3,8 -2,10 -3,8 v 2 l 21,3 10,-10 v 2 l 2,8 3,10 v 5 l -8,5 -10,10 -13,13 -15,18 -18,18 -17,20 -18,20 -20,21 -21,23 -20,20 -18,20 -13,15 h -10 l -10,3 -13,5 -10,8 -5,5 -2,7 -3,8 v 8 l -10,2 -8,8 -2,10 v 8 l -26,2 h -38 l -43,-2 -48,-3 h -44 -40 l -26,3 -12,5 2,12 10,18 21,21 22,20 26,23 23,20 23,15 15,13 -10,13 -10,12 -11,11 -5,5 -7,5 -8,5 -8,5 -5,5 v 3 0 2 3 10 10 8 5 l -2,7 -5,5 -13,3 h -18 l 8,8 2,2 5,5 3,5 -3,11 -2,7 -3,10 v 8 l -12,8 -13,10 -10,10 -8,10 -7,8 -11,7 -10,5 -10,5 -2,3 -6,3 -2,2 -5,3 -5,7 -3,8 -2,10 v 8 5 l 2,5 v 5 l 3,5 5,5 5,8 5,7 5,11 -10,10 -8,7 -10,13 -10,13 -8,20 -10,28 -7,25 -6,21 v 10 13 l 6,12 2,11 -2,2 -3,3 -3,2 -2,3 -13,18 -13,15 -7,13 -3,12 3,26 7,20 16,23 23,18 12,5 16,7 17,8 21,5 20,5 20,3 21,2 h 17 l 6,5 7,8 8,5 5,3 2,15 3,15 3,15 5,11 -18,12 -21,15 -20,13 -13,10 8,28 5,28 5,26 v 15 l 8,-5 10,-8 13,-10 12,-13 13,-10 13,-10 8,-5 5,-5 5,-5 7,-3 5,-5 h 5 l 44,-5 51,-8 53,-10 53,-10 51,-13 48,-15 44,-18 33,-17 17,12 18,13 18,10 z"
   id="path60"
   inkscape:connector-curvature="0"
   style="fill:#000000;stroke:none" />
         <path
   d="m 9510,14940 -13,5 -12,8 -13,13 -15,10 -18,15 -15,10 -18,13 -18,8 5,10 3,10 5,13 5,10 35,86 41,84 43,81 48,79 49,74 51,69 50,63 49,56 12,13 13,15 18,18 15,18 15,18 16,15 12,12 8,11 13,12 12,11 13,7 10,3 13,5 15,12 16,16 17,18 16,12 30,18 36,23 43,25 46,26 40,20 36,18 28,10 10,13 10,15 15,18 13,13 8,2 15,3 20,2 28,3 31,2 35,3 39,2 h 38 l 38,3 35,2 h 36 l 33,3 h 25 l 23,2 h 16 7 l 10,3 8,8 3,10 v 10 h 1093 l 25,-53 20,-56 16,-46 5,-28 5,-23 10,-33 13,-38 15,-38 15,-54 10,-81 8,-91 -3,-87 -5,-41 -10,-40 -15,-41 -15,-38 -18,-36 -18,-30 -15,-26 -13,-17 -18,2 -18,-5 -17,-10 -11,-10 3,-21 8,-33 5,-35 2,-23 -15,-13 -18,-10 -18,-13 -17,-12 -33,17 -44,18 -48,15 -51,13 -53,10 -53,10 -51,8 -44,5 h -5 l -5,5 -7,3 -5,5 -5,5 -8,5 -13,10 -13,10 -12,13 -13,10 -10,8 -8,5 v 10 l -2,10 -5,10 -5,11 -44,-3 -40,3 -41,7 -38,10 -36,13 -33,13 -30,15 -26,13 -23,13 -20,12 -15,10 -10,6 -13,7 -18,8 -20,12 -20,11 -23,10 -18,10 -15,8 -11,5 -12,5 -18,5 -28,7 -31,11 -35,10 -38,10 -38,13 -39,12 -10,-33 -15,-30 -13,-26 -15,-20 -15,-20 -15,-28 -16,-26 -7,-17 -5,-8 v -5 -5 -13 l -23,-8 7,-2 13,-3 8,-2 h 5 l -18,-31 -18,-30 -18,-33 -17,-31 -16,-28 -12,-25 -10,-18 -6,-13 -10,-25 -10,-41 -13,-40 -10,-31 -23,-8 -38,11 -51,23 -53,35 -56,38 -48,43 -38,39 -23,33 -26,-23 -23,-33 -25,-41 -23,-43 -20,-43 -18,-41 -15,-33 -10,-23 -8,-3 -8,-5 -7,-2 -10,-3 -26,10 -33,11 -38,12 -38,13 -38,13 -33,10 -28,13 z"
   id="path62"
   inkscape:connector-curvature="0"
   style="fill:#000000;stroke:none" />
         <path
   d="m 10285,14930 -23,-8 -38,11 -51,23 -53,35 -56,38 -48,43 -38,39 -23,33 10,-16 13,-20 12,-18 13,-20 13,-18 10,-15 8,-13 5,-10 h -26 l -15,-3 -8,-7 -7,-13 5,-20 2,-28 3,-31 v -23 l -33,-58 -15,-43 -8,-33 -3,-23 -2,-5 v -3 -5 l -3,-2 -2,-11 -5,-12 -3,-8 -2,-8 v -5 l -3,-5 v -5 l -2,-5 -3,-5 v -5 l -3,-5 v -5 -5 l -2,-8 -5,-10 -3,-10 -5,-18 -5,-20 -7,-18 -6,-21 -2,26 -8,23 -10,23 -10,22 -3,8 -5,8 -2,7 -3,5 -2,23 -8,21 -8,23 -10,20 -10,23 -13,18 -12,20 -13,18 5,7 3,8 v 10 10 l -26,10 -33,11 -38,12 -38,13 -38,13 -33,10 -28,13 -18,7 -3,-18 v -22 -21 -18 l -15,-7 -15,-13 -18,-13 -15,-7 7,-15 11,-18 10,-18 7,-13 v -43 l -2,-38 -3,-36 3,-43 2,-30 8,-36 8,-38 15,-36 h 5 5 l 5,3 h 8 l 30,5 41,7 51,11 56,10 61,10 66,13 66,12 66,13 66,13 64,10 56,10 53,10 43,8 36,8 23,2 10,3 -8,15 -2,15 -5,18 v 15 15 l -3,16 -3,12 -2,11 -8,22 -7,39 -8,38 v 20 l 5,13 10,23 8,20 v 13 l -3,5 -5,5 -2,5 z"
   id="path64"
   inkscape:connector-curvature="0"
   style="fill:#000000;stroke:none" />
         <path
   d="m 9627,14335 -89,-18 5,-12 5,-10 5,-11 8,-5 10,-2 h 13 l 12,2 11,3 5,2 5,5 5,6 2,5 v 7 l 3,10 v 11 z"
   id="path66"
   inkscape:connector-curvature="0"
   style="fill:#000000;stroke:none" />
         <path
   d="m 9751,14363 -86,-18 5,-17 8,-18 5,-18 2,-13 5,-12 11,-11 15,-7 20,-3 13,3 8,7 7,5 5,6 3,7 5,8 2,10 v 10 l -5,13 -7,18 -10,17 z"
   id="path68"
   inkscape:connector-curvature="0"
   style="fill:#000000;stroke:none" />
         <path
   d="m 10300,14480 -477,-102 2,-10 8,-10 5,-10 7,-10 11,-10 10,-11 10,-10 5,-2 h 8 12 l 11,2 7,3 8,5 5,7 5,8 v 5 5 l -3,10 -2,11 v 12 l 10,-2 h 13 12 l 8,2 h 8 l 10,3 10,2 10,3 8,5 10,10 10,10 5,11 10,-16 8,-23 10,-20 21,-10 17,-3 18,-2 13,2 13,8 10,10 12,13 11,10 5,5 17,-10 16,-8 h 15 l 10,5 10,16 13,28 13,30 z"
   id="path70"
   inkscape:connector-curvature="0"
   style="fill:#000000;stroke:none" />
         <path
   d="m 11327,14399 v -5 -8 -10 -10 l 5,5 3,7 3,11 v 10 h -3 -3 -2 z"
   id="path72"
   inkscape:connector-curvature="0"
   style="fill:#dbb2a5;stroke:none" />
         <path
   d="m 11355,14338 33,5 26,7 23,8 17,10 16,10 15,11 15,10 21,10 -18,-5 -15,-8 -16,-2 h -12 l -13,2 -10,5 -5,3 h -5 l -6,-3 -7,-2 -5,-3 h -5 l -5,3 -11,5 -7,2 -8,-2 -7,-10 -6,-5 -2,-3 v -5 l -3,-8 -5,-15 v -13 z"
   id="path74"
   inkscape:connector-curvature="0"
   style="fill:#dbb2a5;stroke:none" />
         <path
   d="m 11762,14610 -3,-23 -5,-26 -5,-25 -7,-18 h -10 l -16,-2 -18,-5 -20,-3 -20,-5 -21,-5 -15,-3 -12,-2 -3,10 -13,-18 -15,-15 -18,-15 -18,-13 -2,5 -5,8 -5,7 -5,5 -8,-2 h -8 l -7,-3 h -8 l -7,3 -8,5 -8,8 -7,7 -16,-13 -2,3 h -3 -2 -3 l 10,10 11,8 15,10 15,8 15,7 16,8 12,5 13,2 h 15 5 5 5 6 l 7,6 5,-11 h 8 l 5,3 h 3 l 5,2 v 6 l 2,10 v 10 5 l -5,-5 -5,-3 -8,-5 -7,-2 h -3 l -2,2 h -8 l -5,3 -3,-8 -2,-2 -5,-5 -3,-6 h -15 l 3,6 2,5 3,5 2,5 -10,-3 -13,-2 -15,-3 h -13 l -2,3 -3,2 -2,3 -3,2 8,3 5,5 2,3 5,5 -2,2 -3,3 -5,2 -2,3 h -15 -18 -21 l -20,2 -8,5 -7,6 -10,7 -11,8 6,-5 5,-8 7,-8 8,-10 -13,5 -15,5 -18,6 -15,5 -10,5 -5,7 -5,5 -8,8 -5,3 2,-16 -10,-10 -13,-10 -12,-18 18,18 17,5 13,5 8,3 10,-5 15,-11 18,-10 15,-12 10,-8 -30,-10 -8,-23 3,-23 5,-18 2,-10 v -10 l -2,-13 -3,-15 -7,-5 -8,-5 -8,-3 -7,-5 -8,13 -15,13 -18,15 -13,10 -12,8 -13,10 -10,10 -8,10 -7,8 -11,7 -10,5 -10,5 -2,3 -6,3 -2,2 -5,3 -3,17 13,13 18,10 h 15 l -13,8 -10,3 -13,2 h -12 l 12,5 16,5 17,5 11,3 5,5 10,8 10,10 5,5 5,2 8,3 h 5 l 8,2 -13,6 -10,10 -10,10 -6,7 -7,6 -8,2 h -7 -8 l -5,-2 -3,-6 -5,-2 -5,-5 -5,2 h -8 l -10,3 -10,2 5,3 5,5 5,5 5,3 6,2 h 2 l 8,3 h 7 l 5,2 5,8 3,5 3,8 5,7 5,10 7,11 13,5 3,-8 7,-8 8,-5 10,-5 3,-5 v -7 l 2,-11 5,-12 46,-8 10,10 13,16 13,10 10,7 -5,10 -8,8 -8,5 -5,3 h -7 l -5,-3 h -8 -10 l 7,-13 3,-15 3,-18 -3,-20 -46,8 v 45 l -5,31 -10,15 -5,8 -5,2 h -5 l -8,3 h -5 -3 v -5 -5 -8 l -7,5 -10,3 h -8 -10 l -10,-3 -10,-2 -11,-5 -10,-5 v 5 l -2,5 v 2 l -3,8 10,2 h 8 l 8,3 h 10 l -5,3 -5,2 -6,3 -7,2 2,10 v 10 8 l 3,10 -15,-7 -21,-5 h -17 -11 l -2,-3 2,-5 3,-5 v -5 l -13,18 -13,15 -7,13 -3,12 3,3 5,5 5,2 5,3 5,2 8,8 7,8 6,7 7,11 13,5 15,7 20,8 23,8 26,5 28,2 30,3 h 31 l 30,-5 31,-5 30,-8 28,-18 28,-18 28,-20 28,-20 28,-23 28,-26 28,-25 28,-28 -36,-36 -12,3 -11,2 h -12 l -10,3 h -13 -13 -10 l -13,-3 18,-5 18,-5 20,-7 18,-8 18,-10 15,-8 13,-7 10,-6 -8,13 -10,13 -10,15 -8,10 36,36 10,-13 15,-20 16,-20 15,-26 15,-23 13,-20 10,-18 5,-10 z"
   id="path76"
   inkscape:connector-curvature="0"
   style="fill:#dbb2a5;stroke:none" />
         <path
   d="m 11627,14887 21,-18 20,-15 20,-18 21,-20 17,-18 18,-18 18,-20 18,-18 7,10 11,8 10,2 h 12 l -15,10 -23,11 -17,12 -6,11 6,7 2,5 v 3 2 5 8 l -2,5 -3,3 h -5 -8 l -15,2 -15,5 -15,8 -18,10 -18,15 -15,23 -16,5 -17,5 -18,5 -15,3 10,-10 10,-8 10,-10 z"
   id="path78"
   inkscape:connector-curvature="0"
   style="fill:#dbb2a5;stroke:none" />
         <path
   d="m 11671,14920 -8,10 -8,10 -10,10 -13,8 -17,8 -21,7 -25,5 -31,8 -10,10 -13,13 -12,13 -10,12 -13,13 -10,10 -10,10 -6,5 23,-2 33,-5 39,-10 38,-16 40,-15 36,-18 28,-17 20,-21 -13,-5 -12,-7 -10,-16 z"
   id="path80"
   inkscape:connector-curvature="0"
   style="fill:#dbb2a5;stroke:none" />
         <path
   d="m 11704,14869 10,-5 15,-3 18,-5 20,-2 23,10 h 20 l 18,-5 13,-8 13,-12 7,-16 8,-12 5,-13 15,2 v 16 l -2,17 -5,21 -6,18 39,-11 20,-20 8,-25 v -23 l 10,20 v 18 18 l -5,15 -8,8 -13,7 -20,13 -25,10 -26,10 -30,10 -26,8 -25,3 -21,2 -17,-2 -16,-3 -12,-2 -8,-6 -8,-5 -2,-5 -3,-5 v -10 l 5,-10 3,-10 8,-8 7,15 -2,8 2,8 3,2 2,5 3,3 5,2 h 8 l 5,-2 5,-3 5,-7 2,-6 v -10 h -12 v 0 0 3 5 l -3,5 h -5 -3 l -2,-3 -3,-2 -2,-5 -5,-3 h -3 z"
   id="path82"
   inkscape:connector-curvature="0"
   style="fill:#dbb2a5;stroke:none" />
         <path
   d="m 12268,14272 -20,12 -36,18 -41,23 -45,25 -49,26 -40,23 -33,20 -21,13 5,5 5,2 5,6 6,2 17,-8 26,-15 28,-18 33,-20 33,-20 33,-18 30,-15 26,-13 -16,-5 11,-13 43,-30 81,35 -10,10 -15,8 -15,8 -16,5 -18,7 -15,5 -15,6 -15,7 -31,18 -28,18 -23,18 -20,17 -15,16 -15,10 -13,10 -8,5 -10,5 -13,5 -15,8 -18,7 -17,11 -16,7 -15,5 -13,5 v 11 10 l -2,10 v 8 l -13,10 5,20 10,31 8,28 5,22 -8,-17 -10,-21 -12,-23 -13,-25 -13,-25 -10,-21 -8,-18 -7,-12 17,-3 16,-7 12,-16 6,-25 v -13 l -6,-13 -10,-12 -20,-10 -8,-21 -7,-18 -10,-20 -21,-23 -15,-15 -15,-15 -18,-16 -18,-17 -18,-16 -15,-15 -13,-10 -10,-10 -10,-10 -13,-16 -18,-17 -17,-21 -21,-20 -17,-18 -18,-15 -13,-10 18,-23 18,-28 15,-26 8,-17 20,-21 18,-20 17,-20 18,-18 15,-18 13,-13 10,-10 8,-5 h 10 l 15,-2 h 16 10 l -8,10 15,12 -15,26 33,13 16,5 7,-11 10,6 -2,5 -3,10 -5,12 -2,13 7,33 8,-2 20,-5 21,-5 15,-3 v -10 l 5,-15 7,-16 16,-17 5,5 -5,10 -8,12 -2,11 -3,12 h 31 l -3,8 -5,10 -3,10 v 8 l 13,5 15,8 13,10 8,7 7,-5 8,-5 8,-2 7,-3 5,10 8,11 7,10 8,7 18,-12 23,-13 20,-18 13,-15 7,5 8,8 8,5 5,2 h 5 5 8 l 10,3 18,23 17,25 18,23 15,25 16,33 17,46 13,48 5,46 z"
   id="path84"
   inkscape:connector-curvature="0"
   style="fill:#cc0000;stroke:none" />
         <path
   d="m 11439,14948 28,-18 28,-18 28,-20 28,-20 28,-23 28,-26 28,-25 28,-28 25,-26 26,-27 25,-28 26,-33 28,-31 25,-36 28,-38 28,-38 5,15 8,26 7,23 5,15 -5,8 -7,10 -8,12 -10,13 -10,13 -13,15 -13,15 -13,16 -5,7 -5,8 -7,8 -5,5 -5,5 -3,5 -5,5 -5,5 -18,18 -18,20 -18,18 -17,18 -21,20 -20,18 -20,15 -21,18 -12,10 -13,10 -13,8 -10,10 -13,8 -12,7 -13,8 -13,5 -13,3 -15,2 -20,5 -23,3 -20,5 -18,2 -15,3 h -11 l 13,-8 10,-7 13,-5 z"
   id="path86"
   inkscape:connector-curvature="0"
   style="fill:#cc0000;stroke:none" />
         <path
   d="m 11671,14256 -11,-5 -10,-10 -13,-10 -7,-15 -15,-5 -11,-3 -12,-8 -16,-15 -12,-5 -15,-7 -16,-11 -7,-12 -26,2 h -38 l -43,-2 -48,-3 h -44 -40 l -26,3 -12,5 12,5 18,7 15,8 21,8 17,10 21,10 18,13 17,15 26,23 35,30 46,38 48,44 49,40 45,33 41,28 28,13 23,5 20,5 21,3 20,2 h 20 21 17 18 v -7 l -2,-10 -5,-11 -5,-7 -8,-8 -5,-5 -3,-10 -5,-13 -7,-7 -8,-11 -8,-12 -2,-10 -13,-3 -13,-8 -7,-10 -5,-18 h -13 l -13,-5 -15,-12 -15,-23 -16,-10 -10,-13 -10,-13 -7,-13 2,39 5,7 13,8 13,12 15,13 15,15 15,13 16,13 10,13 20,25 20,31 16,25 7,15 3,5 v 3 l -3,2 -7,-2 -8,-3 -15,-2 -18,-3 -20,-2 -21,-5 -20,-6 -18,-2 -13,-5 -15,-8 -10,-7 -5,-8 -5,-8 -8,-7 -10,-10 -13,-11 -12,-10 10,-10 7,-8 11,-10 10,-5 10,-5 10,-5 10,-3 h 10 v -2 h 3 v -3 0 l -25,-2 h -26 l -20,2 -18,3 -15,5 -10,3 -8,5 -5,2 -3,-2 -2,-5 -5,-3 -3,-3 13,-5 13,-5 17,-7 16,-8 15,-10 15,-8 13,-7 10,-5 z"
   id="path88"
   inkscape:connector-curvature="0"
   style="fill:#cc0000;stroke:none" />
         <path
   d="m 9406,15065 -5,-10 -5,-13 -3,-10 -5,-10 h 13 17 l 21,-3 23,-2 23,-8 22,-8 21,-12 18,-16 -11,13 -15,13 -20,15 -21,13 -20,12 -20,11 -18,10 z"
   id="path90"
   inkscape:connector-curvature="0"
   style="fill:#cc0000;stroke:none" />
         <path
   d="m 11770,15050 -33,17 -44,18 -48,15 -51,13 -53,10 -53,10 -51,8 -44,5 h -5 l -5,5 -7,3 -5,5 5,-8 5,-7 10,-5 18,-6 28,-5 38,-7 43,-10 48,-16 46,-15 43,-13 36,-15 25,-13 31,-12 15,2 8,10 z"
   id="path92"
   inkscape:connector-curvature="0"
   style="fill:#cc0000;stroke:none" />
         <path
   d="m 10921,15378 10,-6 15,-10 20,-12 23,-13 18,-5 23,-8 28,-10 28,-8 25,-5 28,-5 23,-2 18,2 -15,10 -16,13 -17,15 -16,13 -12,15 -10,16 -8,15 -3,12 -12,8 -13,10 -15,8 -13,8 -15,7 -13,5 -10,5 h -8 l -10,3 -15,2 -21,5 -25,6 -23,10 -25,7 -21,11 -17,12 -16,-2 -17,-8 -23,-5 -18,-3 18,-7 15,-8 15,-7 13,-8 13,-5 7,-8 8,-5 5,-2 8,-18 17,-13 21,-15 15,-13 z"
   id="path94"
   inkscape:connector-curvature="0"
   style="fill:#cc0000;stroke:none" />
         <path
   d="m 11373,15802 h -15 l -15,3 -18,2 h -15 l -11,-2 h -15 -20 l -26,2 v -25 l 3,-31 5,-30 8,-26 12,16 16,12 20,13 18,13 18,12 17,13 11,13 z"
   id="path96"
   inkscape:connector-curvature="0"
   style="fill:#cc0000;stroke:none" />
         <path
   d="m 11393,15487 -2,-10 v -11 l 2,-10 8,-7 26,-13 27,-13 31,-12 33,-13 33,-10 33,-5 28,-5 28,2 18,5 18,5 20,5 20,8 21,10 15,10 15,16 8,15 12,40 11,49 2,38 -10,15 -18,-2 -23,-3 h -17 l -8,3 10,7 18,21 18,20 2,18 -7,12 -13,8 -13,10 -13,8 -17,25 -13,31 -18,20 -20,5 -13,-5 -13,-2 -12,-6 -10,-5 -11,-2 -10,-5 -7,-3 -6,-2 -5,-23 -12,-13 -21,-20 -25,-21 -28,-22 -28,-21 -30,-18 -28,-10 -26,-5 8,10 10,13 13,13 12,12 13,13 13,10 10,8 8,2 h 7 l 10,3 11,3 15,2 15,8 18,7 18,13 17,13 5,23 -7,-3 -15,-7 -18,-11 -13,-7 -2,2 -3,3 -3,2 v 3 l 3,8 10,12 8,15 10,13 -13,5 -12,3 -16,5 -12,2 -16,3 -12,3 -11,2 h -7 l -20,-38 -23,-31 -28,-25 -26,-23 -25,-20 -23,-23 -15,-31 -5,-35 7,-5 5,-3 8,3 15,10 -5,-10 -5,-13 -3,-10 v -5 -8 l 6,-10 7,-13 5,-10 16,-5 20,-8 18,-2 z"
   id="path98"
   inkscape:connector-curvature="0"
   style="fill:#cc0000;stroke:none" />
         <path
   d="m 10715,15599 -33,5 -13,-8 -18,-2 -18,2 -17,5 -5,-7 -8,-8 -8,-5 -5,-3 -2,-12 -5,-11 -8,-7 -15,-3 h 15 l 15,3 10,7 11,18 h 10 l 12,-2 h 13 15 16 l 12,5 13,10 z"
   id="path100"
   inkscape:connector-curvature="0"
   style="fill:#cc0000;stroke:none" />
         <path
   d="m 10730,15677 -8,-5 v -7 -10 -11 l -2,-10 h -10 l -10,8 -11,13 -5,10 -10,12 -8,16 -10,15 -12,15 -11,16 -10,12 -10,10 -18,13 -17,5 h -16 l -12,-10 12,-23 13,-20 18,-18 18,-18 17,-13 16,-10 12,-10 8,-5 8,-8 v -5 l -6,-2 h -10 l -25,7 -28,13 -28,20 -25,21 -26,20 -18,18 -12,10 -5,3 2,-8 10,-13 16,-15 17,-18 18,-20 18,-18 18,-18 10,-12 -10,-13 -13,-5 h -15 l -21,2 -17,8 -21,8 -15,7 -15,5 5,-5 7,-5 6,-7 2,-8 -5,-5 -8,-8 -7,-10 -10,-10 -5,-10 2,-16 10,-12 10,-16 8,-12 3,-15 2,-16 v -10 l -5,-8 -8,-15 -12,-18 -16,-20 -12,-23 -13,-18 -10,-12 -5,-8 -3,-8 -2,-7 -5,-8 v -7 l -3,-8 -5,-10 -8,-8 -5,-7 33,-3 -25,-10 -8,-31 -18,-58 -17,-66 -16,-54 -10,-25 -10,-41 -13,-40 -10,-31 -23,-8 -38,11 -51,23 -53,35 -56,38 -48,43 -38,39 -23,33 7,33 11,43 7,48 8,38 13,36 17,48 21,49 20,45 18,-23 23,-25 30,-23 31,-25 35,-23 36,-21 35,-22 33,-18 -45,30 -41,31 -36,28 -28,25 -22,26 -18,22 -10,18 -3,18 5,31 15,56 21,63 15,53 -3,-30 v -46 l 3,-46 v -38 l 5,18 10,33 16,43 12,49 15,45 13,41 10,31 5,12 8,5 15,-2 16,-5 15,-5 13,12 20,18 18,18 12,13 5,2 h 8 l 10,-2 13,-3 13,-5 10,-5 13,-5 7,-5 18,10 15,8 15,7 11,5 h 10 l 13,-5 17,-7 18,-8 43,10 44,8 40,5 38,2 38,-2 36,-3 33,-5 31,-7 28,-8 28,-10 25,-8 23,-10 20,-10 18,-8 15,-7 13,-8 10,-5 13,-5 15,-5 13,-5 15,-5 13,-6 12,-2 11,-3 -3,-48 5,-36 13,-30 18,-28 2,-15 8,-21 12,-25 18,-23 3,-13 2,-12 5,-10 6,-8 -13,5 -13,5 -15,5 -15,3 -13,5 -13,5 -13,2 h -7 -13 l -13,5 -10,6 -5,10 v 10 l 5,8 8,10 8,10 -6,2 -10,3 h -12 -16 -15 -18 l -15,-3 -13,-2 h -12 l -16,2 -12,3 -16,8 -12,7 -13,8 -10,5 -8,5 -13,5 -12,3 h -10 -11 -10 l -10,5 -10,2 -8,3 -7,7 -8,11 -8,10 -5,7 -10,5 h -13 l -12,3 -13,-3 -13,69 v 15 l 3,26 v 23 15 l -5,2 h -5 l -8,3 h -5 l 3,-23 2,-28 3,-25 2,-13 10,5 z"
   id="path102"
   inkscape:connector-curvature="0"
   style="fill:#cc0000;stroke:none" />
         <path
   d="m 11526,14150 v -8 l 2,-10 8,-8 10,-2 15,2 21,10 20,13 18,13 -8,-13 -13,-18 -12,-15 -11,-13 -5,13 -2,-5 -3,-3 -5,-5 -5,-7 10,-8 13,-5 10,-3 h 10 l 3,3 2,5 6,3 2,5 13,10 18,15 17,18 21,20 17,21 18,17 13,16 10,10 10,10 13,10 15,15 18,16 18,17 18,16 15,15 15,15 21,23 10,20 7,18 8,21 20,10 10,12 6,13 v 13 l -3,7 -5,6 -8,7 -10,5 -10,5 h -13 l -15,-5 -13,-10 -5,-8 -2,-10 v -12 l 5,-13 -3,-5 -5,-8 -2,-5 -3,-5 h -13 l -2,-5 -8,-10 -10,-15 -3,-13 -12,-3 -8,-10 -8,-10 -7,-10 -3,-5 h -15 l 25,-18 13,13 8,10 7,10 5,10 8,15 15,21 21,17 23,13 -5,38 7,8 10,5 8,3 h 8 l 5,-3 5,-8 2,-10 -2,-10 -10,5 -16,3 -10,5 -7,2 5,-38 -3,-13 v -12 l -2,-8 -3,-7 -15,2 -10,-25 h -18 l -8,-18 -8,-5 -10,-8 -12,-8 -11,-7 -25,18 -5,-5 -8,-13 -10,-18 -5,-15 -23,5 -10,-13 -10,-15 -10,-18 -3,-13 -13,3 -5,-8 -7,-10 -5,-10 -5,-8 -16,11 -12,-8 -11,-10 -10,-13 -10,-10 -8,15 -10,-10 -10,-10 -7,-8 -3,-2 -10,7 z"
   id="path104"
   inkscape:connector-curvature="0"
   style="fill:#d8a500;stroke:none" />
         <path
   d="m 11790,13875 h 3 5 5 l 5,-2 2,-11 3,-12 5,-13 2,-8 3,-5 8,-7 10,-11 13,-10 12,-12 13,-11 10,-7 10,-8 v 48 l 5,-5 8,-7 10,-10 13,-11 10,-10 13,-10 10,-8 8,-5 10,-5 12,-7 18,-13 18,-10 20,-13 18,-13 18,-10 13,-10 -5,10 -16,15 -17,16 -23,15 -23,15 -21,13 -15,10 -10,5 -13,10 -15,21 -20,25 -21,33 3,-10 v -10 l -3,-10 -5,-11 v -48 l -12,15 -18,23 -15,26 -8,15 5,-5 8,-8 7,-7 5,-5 8,12 -8,8 -10,13 -10,15 -10,13 -8,10 15,12 -15,26 33,13 8,-21 13,-18 15,-17 15,-18 20,-15 18,-16 18,-12 18,-11 -15,13 -13,15 -13,18 -13,18 -12,20 -10,18 -8,13 -8,13 -2,5 -3,10 -5,12 -2,13 7,33 10,-18 18,-30 23,-33 20,-28 -7,20 -8,26 -7,28 -3,20 10,-28 15,-20 13,-16 10,-10 v 3 5 2 l -2,6 5,5 18,-21 -11,-10 11,-15 12,-15 18,-18 18,-15 20,-16 15,-15 16,-13 12,-10 -2,-30 -5,7 -10,10 -11,13 -12,10 -15,13 -13,13 -13,12 -13,11 8,-33 15,-31 18,-20 18,-18 -10,15 -8,18 -8,18 -7,15 7,-8 8,-10 10,-10 13,-13 10,-10 10,-13 10,-10 8,-10 15,-5 5,-10 3,-10 8,-16 7,-12 -5,23 -8,30 -7,28 -5,18 -8,10 -10,15 -13,16 -10,10 13,12 7,-10 13,-17 10,-18 8,-13 h 10 l 3,-5 2,-10 5,-18 8,-23 2,-2 3,-3 5,-5 3,-5 -3,23 -8,30 -10,28 -5,21 10,-11 13,-17 13,-16 12,-18 8,-17 3,-23 v -26 l -3,-20 -5,-2 -8,-3 h -5 l -7,-3 h -23 l -13,-28 -20,-17 -26,-10 -28,-6 -30,-2 -28,2 -25,3 h -21 -10 l -10,-3 -8,-2 -5,2 -2,6 -3,10 -5,7 -5,3 h -5 -13 -13 -10 l 8,18 7,-3 21,-2 23,-6 20,-7 -5,5 -10,8 -10,5 -11,5 -12,5 -10,5 -11,2 -10,3 -18,5 -17,3 -23,5 h -21 l -22,2 -21,-2 -18,-3 -15,-5 -7,5 h -8 -8 l -7,-2 -3,5 -2,5 -3,5 -3,5 -7,-8 -10,-5 -10,-5 h -6 l 6,10 5,13 7,10 10,13 13,8 15,2 h 18 l 18,-2 20,-3 21,-5 17,-5 16,-3 -21,8 -17,8 -13,10 -13,12 -10,13 -10,13 -10,13 -13,12 10,13 -10,8 -13,5 -13,5 -15,5 -15,5 -18,2 -20,3 h -20 l 12,18 18,-3 20,-2 26,-8 25,-8 28,-12 28,-13 26,-15 22,-18 -10,18 -10,15 -8,13 -7,7 5,16 v 2 l 2,8 3,10 z"
   id="path106"
   inkscape:connector-curvature="0"
   style="fill:#d8a500;stroke:none" />
         <path
   d="m 12171,13878 -7,12 -16,16 -15,15 -10,10 5,5 10,5 8,5 5,3 5,-18 8,-23 5,-18 z"
   id="path108"
   inkscape:connector-curvature="0"
   style="fill:#d8a500;stroke:none" />
         <path
   d="m 11820,15418 -2,-13 -8,-17 -7,-21 -13,-17 -15,-16 -18,-7 -18,2 -20,13 -10,-10 -11,-8 -10,-5 -12,-5 -13,-3 h -10 -8 -8 -12 -10 l -13,-2 -13,-3 -7,-2 -8,-3 h -13 -12 -13 -10 l -11,5 -5,5 h -15 -15 l -15,3 -18,2 -15,6 -16,5 -12,10 -11,10 h -12 l -15,3 -16,2 -15,5 -13,5 -10,8 -8,10 -5,10 -20,8 -18,15 -12,23 -6,25 -7,5 -5,8 -8,8 -7,10 -6,8 -5,10 -2,12 -3,13 -18,23 -12,25 -8,21 -2,15 -13,25 -10,23 -3,26 10,30 -2,23 2,23 3,20 2,16 -2,15 v 15 l 5,15 10,13 v -10 -13 -10 -10 l 10,15 8,13 8,7 5,6 5,5 5,5 7,2 6,3 v -21 l -3,-15 -3,-15 -7,-10 10,-10 5,-13 v -15 -18 -23 -20 -16 l 3,-12 h -5 l -3,10 -5,10 -5,10 -5,3 -3,-3 v -7 l 3,-11 2,-7 5,-8 11,-10 7,-13 8,-10 2,-10 3,-10 v -13 -15 l -18,7 v 13 l -28,26 -8,-23 36,-16 18,-7 7,-13 11,-20 10,-23 v -21 l -5,8 -5,8 -5,7 -8,5 -3,-2 v -5 l -2,-3 v -2 l 10,-5 8,-8 5,-5 5,-8 15,-10 15,-15 13,-18 5,-25 18,-13 18,-10 12,-13 6,-15 15,-10 18,-8 15,-5 13,-3 h 7 10 13 l 13,-2 h 12 l 13,-5 8,-3 5,-7 h 13 l 10,2 10,3 5,2 v -5 l 3,-5 2,-5 5,-3 h 5 10 l 11,3 h 12 l 13,3 10,5 10,5 5,5 8,7 h 5 l 5,-5 v -10 h 13 l 15,3 10,5 10,5 8,2 h 5 l 3,-2 2,-8 3,-5 h 7 l 11,8 7,5 8,10 13,13 7,7 5,-7 5,-13 h 8 l 13,13 z"
   id="path110"
   inkscape:connector-curvature="0"
   style="fill:#d8a500;stroke:none" />
         <path
   d="m 10684,14564 21,5 -5,41 17,7 38,8 46,10 49,10 48,13 46,8 38,10 28,5 12,2 -35,-5 -43,-5 -46,-5 -48,-7 -46,-5 -41,-8 -30,-5 -21,-3 -10,5 -10,8 -8,3 -7,2 h -5 l -3,-2 -3,-3 v -3 -20 l -27,-5 -44,-8 -56,-12 -58,-10 -56,-13 -48,-8 -36,-7 -15,-3 -5,-25 25,7 46,10 56,11 61,12 58,13 51,10 36,8 12,2 21,-2 z"
   id="path112"
   inkscape:connector-curvature="0"
   style="fill:#0a5b5b;stroke:none" />
         <path
   d="m 11162,14668 -28,-7 -7,22 -11,-2 -10,76 36,5 2,-18 8,-30 5,-28 z"
   id="path114"
   inkscape:connector-curvature="0"
   style="fill:#0a5b5b;stroke:none" />
         <path
   d="m 11071,14747 5,-20 12,2 13,-40 -13,-6 11,-27 -39,-11 -2,11 -3,10 -2,10 v 2 l -15,-2 -13,66 43,8 z"
   id="path116"
   inkscape:connector-curvature="0"
   style="fill:#0a5b5b;stroke:none" />
         <path
   d="m 9047,14226 3,-15 10,2 10,3 8,2 10,3 v 10 l -3,20 -2,23 v 18 h 8 l 10,3 15,5 h 10 l 8,-33 10,2 h 15 l 18,3 15,2 v 3 5 7 8 h 5 l 13,3 15,2 h 10 l 6,-5 5,-13 2,-17 3,-13 20,5 5,28 10,20 10,13 11,5 12,-56 26,5 -8,64 15,2 38,8 54,13 66,12 66,13 61,13 48,12 28,6 h -17 l -21,2 h -23 -23 -22 -18 l -16,-2 h -10 l -17,-3 -39,-8 -50,-10 -56,-12 -56,-11 -49,-10 -35,-7 -15,-3 -8,-5 -5,-3 -5,-2 -3,-3 -15,-2 -20,-5 -23,-3 -21,-5 -20,-5 -18,-3 -10,-2 h -5 l -8,-8 -17,-2 -3,7 -25,-2 5,-59 -56,-10 -61,-15 -59,-18 -53,-20 -48,-15 -41,-13 -28,-3 -13,5 5,-23 3,-22 5,-21 v -12 l 36,22 45,21 49,23 53,23 51,17 46,18 40,10 z"
   id="path118"
   inkscape:connector-curvature="0"
   style="fill:#0a5b5b;stroke:none" />
         <path
   d="m 8689,14040 -10,-10 -10,-5 -11,3 -7,5 v 33 l -5,45 -5,51 -11,51 -7,8 -5,-13 -10,-8 -13,11 -10,33 -3,38 10,20 h 13 l 10,-23 -2,18 -5,20 -5,18 -3,13 10,2 13,-30 7,-36 8,-28 5,-15 18,-2 13,-49 7,-45 5,-51 z"
   id="path120"
   inkscape:connector-curvature="0"
   style="fill:#0a5b5b;stroke:none" />
         <path
   d="m 8880,14305 h -26 l -25,-3 -31,3 h -30 -31 l -30,2 -31,3 -28,5 -10,23 36,-8 38,-8 38,-2 38,-3 36,-2 28,-3 17,-2 z"
   id="path122"
   inkscape:connector-curvature="0"
   style="fill:#0a5b5b;stroke:none" />
         <path
   d="m 9843,14622 -3,8 -5,8 -2,7 -3,5 v -15 -18 -17 l -2,-16 5,8 2,10 5,10 z"
   id="path124"
   inkscape:connector-curvature="0"
   style="fill:#c6e5f9;stroke:none" />
         <path
   d="m 9533,14460 h -8 l -5,-3 h -5 -5 l -15,36 -8,38 -8,36 -2,30 5,36 8,40 7,41 3,28 -5,5 -5,3 -5,5 -6,2 -7,13 -10,18 -11,18 -7,15 10,2 13,3 h 12 l 13,2 10,3 h 13 l 10,2 h 8 l 7,-25 11,-25 12,-21 18,-12 -15,-23 -10,-28 -8,-38 -5,-54 -15,-12 v -18 l 2,-26 3,-23 2,-15 -17,-20 25,-3 -3,-7 -5,-8 -2,-8 z"
   id="path126"
   inkscape:connector-curvature="0"
   style="fill:#c6e5f9;stroke:none" />
         <path
   d="m 9561,14279 10,-2 h 13 l 12,2 11,3 v 15 l -3,15 -3,13 -5,10 -7,8 -16,2 -12,3 h -10 l -5,-5 -3,-8 -3,-7 3,-8 3,-10 5,-13 5,-13 z"
   id="path128"
   inkscape:connector-curvature="0"
   style="fill:#c6e5f9;stroke:none" />
         <path
   d="m 9685,14279 5,-12 11,-11 15,-7 20,-3 18,10 10,13 5,13 3,10 -3,3 -5,-3 -7,-3 -13,-5 -13,-5 -13,-2 -15,-3 z"
   id="path130"
   inkscape:connector-curvature="0"
   style="fill:#c6e5f9;stroke:none" />
         <path
   d="m 9881,14305 h 8 12 l 11,2 7,3 8,5 5,7 5,8 v 5 l -13,5 -12,10 -16,11 -10,10 -7,-5 -13,-8 -10,-2 h -13 l 8,-13 7,-13 13,-15 z"
   id="path132"
   inkscape:connector-curvature="0"
   style="fill:#c6e5f9;stroke:none" />
         <path
   d="m 9985,14994 8,-8 10,-10 8,-13 7,-13 8,-7 18,-8 25,-10 28,-10 28,-10 31,-11 28,-7 22,-8 v -5 l -2,-5 v -5 l -3,-5 -2,-5 -3,-5 -5,-5 -5,-8 5,-15 5,-26 5,-25 3,-15 5,-13 5,-20 8,-21 5,-15 5,-20 7,-28 8,-31 3,-23 5,-5 7,-2 5,-5 6,-3 5,-5 5,-8 2,-10 5,-10 3,-13 -3,-10 -2,-7 -3,-6 -2,-7 -3,-8 v -10 -10 -13 l -2,-15 -5,-15 -8,-18 -18,-13 h -18 l -18,8 -7,7 2,13 11,20 12,26 10,23 -7,5 -10,10 -13,8 -8,7 v 10 l -5,11 -2,5 -5,2 -16,41 -2,20 -3,28 -2,26 -3,17 -2,-28 -3,-28 -2,-22 v -13 l 5,-3 h 5 2 l 5,3 16,-41 -5,-2 -8,-8 -8,-18 -5,-23 5,3 10,5 11,5 10,5 -8,-38 -2,-46 -11,-43 -22,-33 -13,-8 -13,-2 -18,2 -17,3 -6,10 -2,10 v 10 8 18 28 l 2,28 3,15 v 8 10 13 7 l -15,112 v 31 l 5,43 5,45 8,36 -3,-2 -5,-3 -3,-3 -2,-2 -8,-38 -7,-43 -5,-36 -3,-20 -3,-5 -5,-6 -2,-5 -5,-5 2,-5 3,-5 v -2 l 2,-5 5,7 8,8 8,10 5,5 15,-112 -8,-5 -5,-2 -5,-6 -5,-2 -5,-20 -8,-26 -5,-23 -5,-12 -5,-11 -10,-10 -10,-10 -8,-5 -10,-3 -10,-2 -10,-3 h -8 -15 l -13,5 -10,6 -5,10 5,12 10,11 13,10 15,7 3,21 5,17 2,18 3,13 -3,3 h -5 -2 -5 l -18,-28 -21,-31 -17,-25 -13,-13 -10,-5 h -15 l -13,2 -10,11 -5,12 -3,10 3,13 7,13 13,20 15,28 10,33 8,28 -3,8 v 7 l -2,8 -3,8 3,10 5,10 2,8 v 5 l 16,10 20,13 18,15 15,13 -18,-8 -17,-10 -18,-8 -10,-5 2,5 v 5 l 3,5 v 5 l 12,11 13,10 10,10 5,8 -7,2 h -5 -8 l -8,-2 3,2 v 5 3 l 2,5 8,7 5,5 8,8 2,5 5,26 11,25 10,23 10,20 2,10 3,11 -3,10 -2,7 v 23 l -3,31 -2,28 -5,20 z"
   id="path134"
   inkscape:connector-curvature="0"
   style="fill:#c6e5f9;stroke:none" />
         <path
   d="m 11917,14615 3,5 5,8 2,7 3,5 -3,13 -2,20 v 26 l 5,25 -10,-2 -11,-3 -10,-2 h -7 l -5,-18 -3,-21 v -25 l 3,-25 5,2 5,3 2,5 5,2 3,43 v -17 l 5,-21 3,-17 z"
   id="path136"
   inkscape:connector-curvature="0"
   style="fill:#661900;stroke:none" />
         <path
   d="m 11798,14722 5,-5 7,-8 5,-8 5,-7 8,10 10,7 13,8 10,5 -15,5 -15,3 -16,-3 z"
   id="path138"
   inkscape:connector-curvature="0"
   style="fill:#661900;stroke:none" />
         <path
   d="m 11762,14620 8,-13 7,-12 3,-13 5,-13 v 5 l 2,8 v 7 6 h 8 l 5,-3 5,-5 5,-3 5,-15 3,-15 v -18 -13 l -5,5 -8,3 -7,5 -8,5 -5,-8 -8,-5 -7,-2 -5,-3 2,26 v 20 l -2,20 -3,21 z"
   id="path140"
   inkscape:connector-curvature="0"
   style="fill:#661900;stroke:none" />
        </g>
       </g>
      </g>
     </g>
    </g>
   </g>
  </g>
 </g>
</svg>