<?xml version="1.0" encoding="UTF-8" standalone="no"?>
<svg
   xmlns:ooo="http://xml.openoffice.org/svg/export"
   xmlns:dc="http://purl.org/dc/elements/1.1/"
   xmlns:cc="http://creativecommons.org/ns#"
   xmlns:rdf="http://www.w3.org/1999/02/22-rdf-syntax-ns#"
   xmlns:svg="http://www.w3.org/2000/svg"
   xmlns="http://www.w3.org/2000/svg"
   xmlns:sodipodi="http://sodipodi.sourceforge.net/DTD/sodipodi-0.dtd"
   xmlns:inkscape="http://www.inkscape.org/namespaces/inkscape"
   version="1.2"
   width="43.43mm"
   height="23.289999mm"
   viewBox="0 0 4343 2328.9999"
   preserveAspectRatio="xMidYMid"
   xml:space="preserve"
   id="svg455"
   sodipodi:docname="mstletoe.svg"
   style="fill-rule:evenodd;stroke-width:28.22200012;stroke-linejoin:round"
   inkscape:version="0.92.5 (2060ec1f9f, 2020-04-08)"><metadata
   id="metadata459"><rdf:RDF><cc:Work
       rdf:about=""><dc:format>image/svg+xml</dc:format><dc:type
         rdf:resource="http://purl.org/dc/dcmitype/StillImage" /></cc:Work></rdf:RDF></metadata><sodipodi:namedview
   pagecolor="#ffffff"
   bordercolor="#666666"
   borderopacity="1"
   objecttolerance="10"
   gridtolerance="10"
   guidetolerance="10"
   inkscape:pageopacity="0"
   inkscape:pageshadow="2"
   inkscape:window-width="664"
   inkscape:window-height="487"
   id="namedview457"
   showgrid="false"
   inkscape:zoom="0.2102413"
   inkscape:cx="82.091339"
   inkscape:cy="43.993699"
   inkscape:window-x="0"
   inkscape:window-y="0"
   inkscape:window-maximized="0"
   inkscape:current-layer="svg455" />
 <defs
   class="ClipPathGroup"
   id="defs8">
  <clipPath
   id="presentation_clip_path"
   clipPathUnits="userSpaceOnUse">
   <rect
   x="0"
   y="0"
   width="21000"
   height="29700"
   id="rect2" />
  </clipPath>
  <clipPath
   id="presentation_clip_path_shrink"
   clipPathUnits="userSpaceOnUse">
   <rect
   x="21"
   y="29"
   width="20958"
   height="29641"
   id="rect5" />
  </clipPath>
 </defs>
 <defs
   class="TextShapeIndex"
   id="defs12">
  <g
   ooo:slide="id1"
   ooo:id-list="id3"
   id="g10" />
 </defs>
 <defs
   class="EmbeddedBulletChars"
   id="defs44">
  <g
   id="bullet-char-template-57356"
   transform="matrix(4.8828125e-4,0,0,-4.8828125e-4,0,0)">
   <path
   d="M 580,1141 1163,571 580,0 -4,571 Z"
   id="path14"
   inkscape:connector-curvature="0" />
  </g>
  <g
   id="bullet-char-template-57354"
   transform="matrix(4.8828125e-4,0,0,-4.8828125e-4,0,0)">
   <path
   d="M 8,1128 H 1137 V 0 H 8 Z"
   id="path17"
   inkscape:connector-curvature="0" />
  </g>
  <g
   id="bullet-char-template-10146"
   transform="matrix(4.8828125e-4,0,0,-4.8828125e-4,0,0)">
   <path
   d="M 174,0 602,739 174,1481 1456,739 Z M 1358,739 309,1346 659,739 Z"
   id="path20"
   inkscape:connector-curvature="0" />
  </g>
  <g
   id="bullet-char-template-10132"
   transform="matrix(4.8828125e-4,0,0,-4.8828125e-4,0,0)">
   <path
   d="M 2015,739 1276,0 H 717 l 543,543 H 174 v 393 h 1086 l -543,545 h 557 z"
   id="path23"
   inkscape:connector-curvature="0" />
  </g>
  <g
   id="bullet-char-template-10007"
   transform="matrix(4.8828125e-4,0,0,-4.8828125e-4,0,0)">
   <path
   d="m 0,-2 c -7,16 -16,29 -25,39 l 381,530 c -94,256 -141,385 -141,387 0,25 13,38 40,38 9,0 21,-2 34,-5 21,4 42,12 65,25 l 27,-13 111,-251 280,301 64,-25 24,25 c 21,-10 41,-24 62,-43 C 886,937 835,863 770,784 769,783 710,716 594,584 L 774,223 c 0,-27 -21,-55 -63,-84 l 16,-20 C 717,90 699,76 672,76 641,76 570,178 457,381 L 164,-76 c -22,-34 -53,-51 -92,-51 -42,0 -63,17 -64,51 -7,9 -10,24 -10,44 0,9 1,19 2,30 z"
   id="path26"
   inkscape:connector-curvature="0" />
  </g>
  <g
   id="bullet-char-template-10004"
   transform="matrix(4.8828125e-4,0,0,-4.8828125e-4,0,0)">
   <path
   d="M 285,-33 C 182,-33 111,30 74,156 52,228 41,333 41,471 c 0,78 14,145 41,201 34,71 87,106 158,106 53,0 88,-31 106,-94 l 23,-176 c 8,-64 28,-97 59,-98 l 735,706 c 11,11 33,17 66,17 42,0 63,-15 63,-46 V 965 c 0,-36 -10,-64 -30,-84 L 442,47 C 390,-6 338,-33 285,-33 Z"
   id="path29"
   inkscape:connector-curvature="0" />
  </g>
  <g
   id="bullet-char-template-9679"
   transform="matrix(4.8828125e-4,0,0,-4.8828125e-4,0,0)">
   <path
   d="M 813,0 C 632,0 489,54 383,161 276,268 223,411 223,592 c 0,181 53,324 160,431 106,107 249,161 430,161 179,0 323,-54 432,-161 108,-107 162,-251 162,-431 0,-180 -54,-324 -162,-431 C 1136,54 992,0 813,0 Z"
   id="path32"
   inkscape:connector-curvature="0" />
  </g>
  <g
   id="bullet-char-template-8226"
   transform="matrix(4.8828125e-4,0,0,-4.8828125e-4,0,0)">
   <path
   d="m 346,457 c -73,0 -137,26 -191,78 -54,51 -81,114 -81,188 0,73 27,136 81,188 54,52 118,78 191,78 73,0 134,-26 185,-79 51,-51 77,-114 77,-187 0,-75 -25,-137 -76,-188 -50,-52 -112,-78 -186,-78 z"
   id="path35"
   inkscape:connector-curvature="0" />
  </g>
  <g
   id="bullet-char-template-8211"
   transform="matrix(4.8828125e-4,0,0,-4.8828125e-4,0,0)">
   <path
   d="M -4,459 H 1135 V 606 H -4 Z"
   id="path38"
   inkscape:connector-curvature="0" />
  </g>
  <g
   id="bullet-char-template-61548"
   transform="matrix(4.8828125e-4,0,0,-4.8828125e-4,0,0)">
   <path
   d="m 173,740 c 0,163 58,303 173,419 116,115 255,173 419,173 163,0 302,-58 418,-173 116,-116 174,-256 174,-419 0,-163 -58,-303 -174,-418 C 1067,206 928,148 765,148 601,148 462,206 346,322 231,437 173,577 173,740 Z"
   id="path41"
   inkscape:connector-curvature="0" />
  </g>
 </defs>
 <g
   id="g49"
   transform="translate(-8328,-13685)">
  <g
   id="id2"
   class="Master_Slide">
   <g
   id="bg-id2"
   class="Background" />
   <g
   id="bo-id2"
   class="BackgroundObjects" />
  </g>
 </g>
 <g
   class="SlideGroup"
   id="g453"
   transform="translate(-8328,-13685)">
  <g
   id="g451">
   <g
   id="container-id1">
    <g
   id="id1"
   class="Slide"
   clip-path="url(#presentation_clip_path)">
     <g
   class="Page"
   id="g447">
      <g
   class="Graphic"
   id="g445">
       <g
   id="id3">
        <rect
   class="BoundingBox"
   x="8328"
   y="13685"
   width="4343"
   height="2329"
   id="rect51"
   style="fill:none;stroke:none" />
        <defs
   id="defs56">
         <clipPath
   id="clip_path_1"
   clipPathUnits="userSpaceOnUse">
          <path
   d="m 8328,13685 h 4342 v 2328 H 8328 Z"
   id="path53"
   inkscape:connector-curvature="0" />
         </clipPath>
        </defs>
        <g
   clip-path="url(#clip_path_1)"
   id="g442">
         <path
   d="m 10646,14242 15,-15 18,-18 17,-23 18,-18 18,13 20,15 28,13 33,15 38,13 44,12 50,11 59,7 63,5 74,3 h 81 l 89,-8 100,-10 106,-18 117,-23 127,-28 -51,18 -56,21 -58,20 -66,20 -69,18 -71,18 -73,15 -77,13 -76,7 -79,6 h -76 l -76,-8 -76,-13 -74,-20 -69,-26 z"
   id="path58"
   inkscape:connector-curvature="0"
   style="fill:#008400;stroke:none" />
         <path
   d="m 10719,14160 -10,3 -20,18 -18,23 -15,17 -15,16 10,10 15,-15 20,-18 18,-23 15,-18 -10,3 10,-3 3,-5 -3,-5 -5,-3 -5,3 z"
   id="path60"
   inkscape:connector-curvature="0"
   style="fill:#000000;stroke:none" />
         <path
   d="m 11764,14196 -3,-15 -127,28 -117,23 -106,17 -100,11 -89,7 -81,-2 h -74 l -63,-5 -59,-8 -50,-10 -41,-13 -38,-13 -33,-15 -26,-13 -20,-15 -18,-13 -10,16 18,12 20,16 31,12 33,16 38,12 46,13 50,10 59,8 63,5 74,5 81,-2 89,-8 100,-10 106,-18 117,-23 127,-28 -2,-15 2,15 5,-2 3,-6 -3,-5 -5,-2 z"
   id="path62"
   inkscape:connector-curvature="0"
   style="fill:#000000;stroke:none" />
         <path
   d="m 10641,14237 v 12 l 71,36 68,25 77,21 76,13 76,7 h 76 l 79,-5 76,-8 77,-12 73,-16 71,-17 72,-18 66,-20 58,-21 56,-20 51,-18 -5,-15 -51,18 -56,20 -58,20 -67,21 -66,17 -71,18 -73,15 -77,13 -76,8 -79,5 h -76 l -76,-8 -76,-12 -72,-21 -68,-25 -66,-36 v 13 -13 h -8 l -5,3 -3,7 6,5 z"
   id="path64"
   inkscape:connector-curvature="0"
   style="fill:#000000;stroke:none" />
         <path
   d="m 10973,14255 -5,2 v 8 l 3,5 h 8 z"
   id="path66"
   inkscape:connector-curvature="0"
   style="fill:#000000;stroke:none" />
         <path
   d="m 11151,14127 -15,16 -18,15 -17,18 -21,15 -23,18 -23,15 -28,15 -33,16 6,15 33,-15 28,-16 27,-15 23,-18 21,-20 17,-18 18,-15 15,-15 z"
   id="path68"
   inkscape:connector-curvature="0"
   style="fill:#000000;stroke:none" />
         <path
   d="m 11161,14138 3,-6 -3,-5 -5,-2 -5,2 z"
   id="path70"
   inkscape:connector-curvature="0"
   style="fill:#000000;stroke:none" />
         <path
   d="m 11128,14338 -5,3 -2,5 2,5 5,3 z"
   id="path72"
   inkscape:connector-curvature="0"
   style="fill:#000000;stroke:none" />
         <path
   d="m 11278,14438 -7,-16 -13,-12 -13,-13 -17,-18 -23,-13 -21,-10 -25,-10 -31,-8 v 16 l 26,7 25,10 21,11 17,12 18,13 13,13 8,13 7,10 z"
   id="path74"
   inkscape:connector-curvature="0"
   style="fill:#000000;stroke:none" />
         <path
   d="m 11263,14443 5,5 h 5 l 5,-3 v -7 z"
   id="path76"
   inkscape:connector-curvature="0"
   style="fill:#000000;stroke:none" />
         <path
   d="m 11553,14221 -5,3 v 8 l 2,5 h 8 z"
   id="path78"
   inkscape:connector-curvature="0"
   style="fill:#000000;stroke:none" />
         <path
   d="m 11736,14054 -10,28 -16,25 -17,25 -26,21 -28,23 -25,18 -31,15 -30,12 5,16 30,-13 31,-15 30,-18 28,-23 26,-25 23,-26 15,-30 10,-33 z"
   id="path80"
   inkscape:connector-curvature="0"
   style="fill:#000000;stroke:none" />
         <path
   d="m 11751,14054 -2,-5 -6,-3 -5,3 -2,5 z"
   id="path82"
   inkscape:connector-curvature="0"
   style="fill:#000000;stroke:none" />
         <path
   d="m 11588,14242 -7,2 -3,8 3,8 7,2 z"
   id="path84"
   inkscape:connector-curvature="0"
   style="fill:#000000;stroke:none" />
         <path
   d="m 11759,14277 -26,-12 -23,-8 -25,-8 -20,-2 -21,-3 -20,-2 h -18 -18 v 20 h 18 18 l 20,-2 21,2 20,3 20,7 23,8 21,13 z"
   id="path86"
   inkscape:connector-curvature="0"
   style="fill:#000000;stroke:none" />
         <path
   d="m 11749,14293 h 7 l 5,-5 3,-5 -5,-6 z"
   id="path88"
   inkscape:connector-curvature="0"
   style="fill:#000000;stroke:none" />
         <path
   d="m 11329,14562 23,-15 15,-23 3,-25 -5,-28 -8,-13 -7,-10 -11,-8 -12,-7 -13,-3 h -13 -15 l -13,5 -23,15 -12,23 -5,26 5,28 7,12 8,10 10,8 13,5 13,5 h 12 16 z"
   id="path90"
   inkscape:connector-curvature="0"
   style="fill:#cc004c;stroke:none" />
         <path
   d="m 11357,14473 v 0 l 3,26 v 23 l -13,20 -20,13 5,15 25,-18 18,-25 5,-28 -8,-31 v 0 z"
   id="path92"
   inkscape:connector-curvature="0"
   style="fill:#000000;stroke:none" />
         <path
   d="m 11276,14443 v 0 l 10,-5 15,2 13,-2 10,2 10,8 10,5 6,10 7,10 15,-5 -7,-15 -10,-10 -11,-10 -15,-8 -15,-3 -13,-2 -15,2 -15,5 v 0 z"
   id="path94"
   inkscape:connector-curvature="0"
   style="fill:#000000;stroke:none" />
         <path
   d="m 11245,14524 v 0 l -2,-25 2,-23 11,-21 20,-12 -5,-16 -26,18 -15,26 -8,28 8,30 v 0 z"
   id="path96"
   inkscape:connector-curvature="0"
   style="fill:#000000;stroke:none" />
         <path
   d="m 11327,14555 v 0 l -10,5 -16,-3 -12,3 -11,-5 -12,-6 -8,-5 -5,-10 -8,-10 -15,5 8,15 10,11 13,10 12,5 16,5 12,2 16,-2 15,-5 v 0 z"
   id="path98"
   inkscape:connector-curvature="0"
   style="fill:#000000;stroke:none" />
         <path
   d="m 11195,14140 22,-15 16,-23 2,-25 -5,-28 -8,-13 -7,-10 -10,-8 -13,-8 -13,-2 h -12 -16 l -12,5 -23,15 -13,23 -5,26 5,28 8,12 7,10 10,8 13,5 13,5 h 13 15 z"
   id="path100"
   inkscape:connector-curvature="0"
   style="fill:#cc004c;stroke:none" />
         <path
   d="m 11222,14051 v 0 l 3,26 v 22 l -13,21 -20,12 5,16 25,-18 18,-25 5,-28 -7,-31 v 0 z"
   id="path102"
   inkscape:connector-curvature="0"
   style="fill:#000000;stroke:none" />
         <path
   d="m 11141,14021 v 0 l 10,-5 16,2 12,-2 10,2 11,8 10,5 5,10 7,10 16,-5 -8,-15 -10,-10 -10,-11 -15,-7 -16,-3 -12,-2 -16,2 -15,5 v 0 z"
   id="path104"
   inkscape:connector-curvature="0"
   style="fill:#000000;stroke:none" />
         <path
   d="m 11111,14102 v 0 l -3,-25 3,-23 10,-21 20,-12 -5,-16 -25,18 -16,26 -7,28 7,30 v 0 z"
   id="path106"
   inkscape:connector-curvature="0"
   style="fill:#000000;stroke:none" />
         <path
   d="m 11192,14132 v 0 l -10,6 -15,-3 -13,3 -10,-6 -13,-5 -8,-5 -5,-10 -7,-10 -16,5 8,15 10,10 13,11 13,5 15,5 13,2 15,-2 15,-5 v 0 z"
   id="path108"
   inkscape:connector-curvature="0"
   style="fill:#000000;stroke:none" />
         <path
   d="m 11815,14069 22,-15 16,-23 5,-26 -5,-28 -8,-12 -10,-10 -10,-8 -13,-8 -13,-2 h -12 -16 l -12,5 -23,15 -13,23 -5,25 5,28 8,13 7,10 13,8 10,5 13,5 h 15 13 z"
   id="path110"
   inkscape:connector-curvature="0"
   style="fill:#cc004c;stroke:none" />
         <path
   d="m 11845,13980 v 0 l 3,25 -3,23 -13,21 -20,12 5,16 26,-18 17,-26 8,-28 -8,-30 v 0 z"
   id="path112"
   inkscape:connector-curvature="0"
   style="fill:#000000;stroke:none" />
         <path
   d="m 11761,13949 v 0 l 10,-5 16,3 12,-3 11,3 10,8 10,7 7,8 8,10 15,-5 -7,-15 -13,-13 -10,-8 -15,-7 -16,-3 -12,-2 -16,2 -15,5 v 0 z"
   id="path114"
   inkscape:connector-curvature="0"
   style="fill:#000000;stroke:none" />
         <path
   d="m 11731,14031 v 0 l -3,-26 3,-23 10,-20 20,-13 -5,-15 -25,18 -16,25 -7,28 7,31 v 0 z"
   id="path116"
   inkscape:connector-curvature="0"
   style="fill:#000000;stroke:none" />
         <path
   d="m 11812,14061 v 0 l -10,5 -13,-2 -15,2 -10,-5 -10,-5 -11,-7 -5,-8 -7,-10 -16,5 8,15 10,13 16,7 10,6 15,5 15,2 13,-2 15,-5 v 0 z"
   id="path118"
   inkscape:connector-curvature="0"
   style="fill:#000000;stroke:none" />
         <path
   d="m 11837,14410 23,-16 16,-23 2,-25 -5,-28 -8,-13 -7,-10 -10,-7 -13,-5 -13,-6 h -12 -16 l -12,6 -23,15 -13,23 -5,28 5,25 8,13 7,10 10,8 13,7 13,3 13,2 15,-2 z"
   id="path120"
   inkscape:connector-curvature="0"
   style="fill:#cc004c;stroke:none" />
         <path
   d="m 11865,14321 v 0 l 3,25 v 23 l -13,20 -20,13 5,15 25,-18 18,-25 5,-28 -7,-30 v 0 z"
   id="path122"
   inkscape:connector-curvature="0"
   style="fill:#000000;stroke:none" />
         <path
   d="m 11784,14290 v 0 l 10,-5 16,3 12,-3 10,5 13,5 8,5 5,10 7,11 16,-5 -8,-16 -10,-10 -13,-10 -13,-5 -15,-5 -12,-3 -16,3 -15,5 v 0 z"
   id="path124"
   inkscape:connector-curvature="0"
   style="fill:#000000;stroke:none" />
         <path
   d="m 11754,14371 v 0 l -3,-22 3,-26 10,-20 20,-13 -5,-15 -25,18 -16,25 -7,31 7,28 v 0 z"
   id="path126"
   inkscape:connector-curvature="0"
   style="fill:#000000;stroke:none" />
         <path
   d="m 11835,14402 v 0 l -13,5 h -12 -13 l -10,-2 -11,-8 -10,-5 -5,-10 -7,-11 -16,6 8,15 10,10 10,10 16,8 15,2 13,5 17,-5 13,-5 v 0 z"
   id="path128"
   inkscape:connector-curvature="0"
   style="fill:#000000;stroke:none" />
         <path
   d="m 11291,14260 5,-31 3,-33 2,-33 5,-33 5,-33 8,-36 13,-35 18,-36 22,-38 28,-36 38,-38 44,-38 56,-38 66,-38 76,-41 89,-38 -13,33 -13,33 -12,38 -16,41 -17,41 -21,40 -20,44 -25,40 -28,43 -31,39 -35,38 -39,35 -45,33 -49,31 -53,25 z"
   id="path130"
   inkscape:connector-curvature="0"
   style="fill:#008400;stroke:none" />
         <path
   d="m 11776,13688 -10,-11 -89,39 -76,40 -68,38 -56,38 -44,41 -38,38 -30,36 -23,41 -18,35 -13,36 -7,38 -5,33 -5,33 -3,33 -2,33 -6,31 h 16 l 5,-31 2,-33 3,-33 5,-33 5,-33 8,-33 12,-36 18,-35 23,-36 25,-36 39,-38 43,-35 56,-38 63,-39 76,-40 89,-38 -10,-11 10,11 5,-5 v -6 l -2,-5 h -8 z"
   id="path132"
   inkscape:connector-curvature="0"
   style="fill:#000000;stroke:none" />
         <path
   d="m 11283,14260 11,7 61,-20 53,-26 51,-30 46,-33 38,-38 38,-38 30,-38 28,-44 26,-43 20,-43 20,-41 18,-41 15,-40 13,-38 13,-33 12,-33 -15,-6 -12,34 -13,33 -13,38 -15,40 -18,41 -20,41 -21,43 -25,38 -28,43 -30,38 -33,39 -39,33 -45,33 -46,30 -53,26 -61,20 10,8 -10,-8 -6,3 v 7 l 3,5 h 8 z"
   id="path134"
   inkscape:connector-curvature="0"
   style="fill:#000000;stroke:none" />
         <path
   d="m 10933,14344 5,-16 15,-5 26,8 35,15 41,25 46,34 50,40 51,46 48,51 49,53 43,59 36,58 27,59 21,61 7,58 -7,56 -43,-18 -44,-20 -40,-20 -41,-26 -41,-28 -38,-28 -35,-33 -33,-35 -33,-39 -31,-40 -25,-46 -26,-46 -20,-51 -18,-56 -15,-55 z"
   id="path136"
   inkscape:connector-curvature="0"
   style="fill:#008400;stroke:none" />
         <path
   d="m 11423,14954 10,-8 11,-56 -11,-58 -20,-64 -28,-58 -35,-61 -44,-59 -50,-53 -49,-51 -51,-48 -50,-41 -46,-33 -43,-26 -36,-15 -28,-7 -20,7 -8,21 h 15 l 3,-11 10,-2 23,7 36,16 38,25 45,33 51,41 51,43 48,51 46,53 43,59 36,56 28,58 20,59 5,58 -5,56 10,-8 -10,8 3,5 5,3 5,-3 2,-5 z"
   id="path138"
   inkscape:connector-curvature="0"
   style="fill:#000000;stroke:none" />
         <path
   d="m 10925,14344 v 0 l 10,61 16,58 17,56 21,51 25,46 26,48 30,41 36,38 33,35 35,36 38,28 41,28 43,25 41,21 43,20 43,18 5,-16 -43,-17 -43,-21 -41,-20 -38,-25 -41,-28 -38,-28 -35,-31 -33,-35 -31,-39 -30,-40 -26,-44 -25,-45 -20,-51 -18,-56 -15,-53 -11,-61 v 0 z"
   id="path140"
   inkscape:connector-curvature="0"
   style="fill:#000000;stroke:none" />
         <path
   d="m 11324,14323 54,-5 h 53 l 56,10 56,13 53,20 53,26 54,25 48,31 48,33 44,35 38,36 35,36 28,33 23,35 18,31 10,28 -36,7 -38,5 h -43 l -43,-2 -43,-8 -46,-10 -48,-15 -46,-21 -46,-22 -46,-31 -45,-36 -43,-38 -41,-45 -38,-51 -36,-56 z"
   id="path142"
   inkscape:connector-curvature="0"
   style="fill:#008400;stroke:none" />
         <path
   d="m 11998,14717 5,-7 -11,-31 -17,-33 -23,-36 -31,-33 -35,-35 -38,-38 -44,-36 -48,-33 -51,-30 -53,-26 -53,-25 -54,-21 -58,-12 -56,-11 h -53 l -54,6 v 15 l 54,-5 h 53 l 56,10 53,13 54,20 53,25 53,26 46,30 48,33 43,36 39,33 35,36 26,33 22,35 18,28 10,26 5,-8 -5,8 3,5 5,2 5,-2 3,-5 z"
   id="path144"
   inkscape:connector-curvature="0"
   style="fill:#000000;stroke:none" />
         <path
   d="m 11324,14316 -7,10 33,63 35,59 38,51 43,45 44,41 45,36 46,30 48,23 46,20 48,16 49,10 43,7 43,6 43,-3 38,-5 39,-8 -6,-15 -33,8 -38,5 -43,-3 h -43 l -43,-7 -43,-11 -49,-15 -46,-20 -43,-23 -45,-31 -46,-35 -43,-36 -39,-46 -38,-50 -35,-54 -33,-63 -8,10 8,-10 -3,-5 h -7 l -5,2 v 8 z"
   id="path146"
   inkscape:connector-curvature="0"
   style="fill:#000000;stroke:none" />
         <path
   d="m 11759,14199 23,-21 30,-23 33,-25 38,-23 43,-20 49,-21 53,-15 56,-7 61,-3 63,8 69,15 74,28 73,38 79,53 84,69 84,84 -69,8 -68,5 -66,2 -64,3 h -63 -64 l -58,-5 -59,-5 -58,-8 -54,-10 -53,-16 -51,-15 -51,-20 -45,-20 -46,-28 z"
   id="path148"
   inkscape:connector-curvature="0"
   style="fill:#008400;stroke:none" />
         <path
   d="m 12671,14344 5,-13 -84,-84 -84,-71 -78,-54 -77,-38 -73,-28 -72,-15 -63,-8 -61,3 -56,8 -56,15 -48,20 -43,20 -41,23 -33,26 -31,23 -22,23 10,10 23,-18 30,-23 33,-25 36,-23 43,-21 48,-20 51,-15 56,-8 61,-2 63,7 67,15 73,28 71,39 79,53 84,66 84,84 5,-13 -5,13 h 5 l 5,-3 3,-2 -3,-5 z"
   id="path150"
   inkscape:connector-curvature="0"
   style="fill:#000000;stroke:none" />
         <path
   d="m 11754,14194 v 12 l 43,28 48,28 46,21 51,20 50,15 56,15 54,11 58,7 59,5 58,5 64,3 h 63 l 64,-5 66,-3 68,-5 69,-7 v -16 l -69,8 -68,5 -66,3 h -64 -63 l -64,2 -58,-5 -59,-5 -58,-8 -54,-10 -50,-15 -51,-15 -51,-21 -46,-20 -43,-28 -43,-28 v 13 -13 h -8 l -5,3 -2,7 5,5 z"
   id="path152"
   inkscape:connector-curvature="0"
   style="fill:#000000;stroke:none" />
         <path
   d="m 10541,14148 8,2 13,5 10,3 13,2 15,6 13,2 12,3 10,2 -2,21 -3,27 v 31 l 3,33 5,41 10,45 15,49 21,56 25,58 33,66 38,72 49,73 55,82 67,86 73,94 87,97 -41,-36 -43,-38 -46,-43 -48,-49 -49,-50 -48,-54 -48,-58 -46,-61 -43,-64 -41,-66 -35,-69 -31,-71 -23,-71 -17,-74 -11,-76 z"
   id="path154"
   inkscape:connector-curvature="0"
   style="fill:#008400;stroke:none" />
         <path
   d="m 10643,14173 -8,-7 -10,-3 -12,-3 -11,-2 -15,-5 -15,-3 -8,-2 -12,-5 -8,-3 -5,15 8,3 12,5 13,3 10,2 15,5 16,3 12,2 10,3 -7,-8 7,8 6,-3 2,-5 -2,-5 -6,-2 z"
   id="path156"
   inkscape:connector-curvature="0"
   style="fill:#000000;stroke:none" />
         <path
   d="m 11106,15111 10,-12 -84,-97 -74,-94 -66,-86 -56,-82 -48,-74 -38,-68 -33,-66 -26,-59 -20,-56 -15,-48 -10,-43 -5,-41 v -33 -31 -27 l 2,-21 h -15 l -3,21 -5,27 v 31 l 5,33 5,41 11,48 15,48 20,56 26,59 33,66 38,74 48,73 56,82 66,86 74,94 89,97 10,-13 -10,13 h 5 l 5,-3 2,-2 -2,-5 z"
   id="path158"
   inkscape:connector-curvature="0"
   style="fill:#000000;stroke:none" />
         <path
   d="m 10544,14140 -10,8 v 76 l 10,76 18,77 23,71 30,71 36,69 40,68 44,64 45,61 49,58 50,54 49,51 48,48 46,43 43,41 41,35 10,-15 -41,-35 -43,-36 -46,-43 -48,-49 -48,-50 -46,-54 -48,-58 -46,-61 -43,-64 -41,-63 -36,-69 -30,-71 -23,-72 -18,-71 -10,-76 v -76 l -10,7 10,-7 -2,-5 -6,-3 -5,3 -2,5 z"
   id="path160"
   inkscape:connector-curvature="0"
   style="fill:#000000;stroke:none" />
         <path
   d="m 10681,14443 -5,-3 -2,3 -3,5 v 5 z"
   id="path162"
   inkscape:connector-curvature="0"
   style="fill:#000000;stroke:none" />
         <path
   d="m 10879,14539 -20,-7 -23,-5 -25,-11 -23,-7 -28,-13 -23,-15 -28,-18 -28,-20 -10,10 28,25 28,18 28,15 28,13 23,8 25,10 23,5 20,8 z"
   id="path164"
   inkscape:connector-curvature="0"
   style="fill:#000000;stroke:none" />
         <path
   d="m 10874,14555 h 8 l 2,-6 v -7 l -5,-3 z"
   id="path166"
   inkscape:connector-curvature="0"
   style="fill:#000000;stroke:none" />
         <path
   d="m 10681,14621 -2,-5 h -8 l -5,2 v 8 z"
   id="path168"
   inkscape:connector-curvature="0"
   style="fill:#000000;stroke:none" />
         <path
   d="m 10666,14799 15,-31 10,-41 v -48 l -10,-58 -15,5 10,53 v 48 l -10,36 -15,25 z"
   id="path170"
   inkscape:connector-curvature="0"
   style="fill:#000000;stroke:none" />
         <path
   d="m 10651,14788 v 8 l 5,5 5,3 5,-5 z"
   id="path172"
   inkscape:connector-curvature="0"
   style="fill:#000000;stroke:none" />
         <path
   d="m 10986,14941 -5,-3 -2,3 -3,5 v 5 z"
   id="path174"
   inkscape:connector-curvature="0"
   style="fill:#000000;stroke:none" />
         <path
   d="m 11222,15017 -30,5 h -33 l -33,-5 -28,-10 -33,-13 -28,-17 -25,-18 -26,-18 -10,10 25,23 26,18 33,18 33,12 33,11 33,5 h 33 l 30,-5 z"
   id="path176"
   inkscape:connector-curvature="0"
   style="fill:#000000;stroke:none" />
         <path
   d="m 11222,15033 6,-3 2,-5 -2,-5 -6,-3 z"
   id="path178"
   inkscape:connector-curvature="0"
   style="fill:#000000;stroke:none" />
         <path
   d="m 10984,14982 -3,-5 h -8 l -5,2 v 8 z"
   id="path180"
   inkscape:connector-curvature="0"
   style="fill:#000000;stroke:none" />
         <path
   d="m 11029,15144 -2,-50 -10,-44 -18,-38 -15,-30 -16,5 16,30 17,38 11,39 2,50 z"
   id="path182"
   inkscape:connector-curvature="0"
   style="fill:#000000;stroke:none" />
         <path
   d="m 11014,15144 3,6 5,2 5,-2 2,-6 z"
   id="path184"
   inkscape:connector-curvature="0"
   style="fill:#000000;stroke:none" />
         <path
   d="m 10582,14903 10,8 13,5 13,2 12,-2 13,-3 13,-5 10,-8 10,-10 13,-25 2,-26 -7,-25 -18,-20 -13,-8 -12,-5 -13,-3 h -13 l -13,5 -12,3 -10,8 -11,10 -12,25 v 28 l 7,26 z"
   id="path186"
   inkscape:connector-curvature="0"
   style="fill:#cc004c;stroke:none" />
         <path
   d="m 10668,14885 v 0 l -7,8 -8,7 -12,5 -11,3 h -12 -10 l -13,-5 -8,-8 -10,16 13,7 12,5 16,5 12,-5 16,-2 12,-5 13,-8 13,-13 v 0 z"
   id="path188"
   inkscape:connector-curvature="0"
   style="fill:#000000;stroke:none" />
         <path
   d="m 10661,14801 v 0 l 15,15 8,23 -3,23 -13,23 16,10 12,-28 3,-28 -8,-28 -20,-25 v 0 z"
   id="path190"
   inkscape:connector-curvature="0"
   style="fill:#000000;stroke:none" />
         <path
   d="m 10577,14809 v 0 l 8,-8 7,-7 13,-3 10,-5 h 13 l 10,2 13,6 10,7 10,-15 -15,-8 -13,-5 -15,-2 h -13 l -15,5 -13,2 -13,8 -12,13 v 0 z"
   id="path192"
   inkscape:connector-curvature="0"
   style="fill:#000000;stroke:none" />
         <path
   d="m 10587,14895 v 0 l -15,-15 -8,-23 v -28 l 13,-20 -15,-10 -13,30 v 28 l 8,28 20,26 v 0 z"
   id="path194"
   inkscape:connector-curvature="0"
   style="fill:#000000;stroke:none" />
         <path
   d="m 10887,14585 13,8 12,5 13,2 13,-2 13,-3 12,-5 10,-7 11,-11 12,-23 3,-27 -8,-26 -18,-20 -12,-8 -13,-5 -13,-3 -12,3 -13,3 -13,5 -13,7 -10,10 -12,26 v 25 l 7,26 z"
   id="path196"
   inkscape:connector-curvature="0"
   style="fill:#cc004c;stroke:none" />
         <path
   d="m 10979,14567 h -3 l -8,8 -7,8 -13,5 -10,2 h -13 -10 l -13,-5 -10,-8 -10,16 15,7 13,5 15,5 13,-5 15,-2 13,-5 13,-8 12,-13 h -2 z"
   id="path198"
   inkscape:connector-curvature="0"
   style="fill:#000000;stroke:none" />
         <path
   d="m 10968,14483 v 0 l 16,16 7,23 -2,25 -10,20 10,10 15,-25 2,-30 -7,-28 -20,-26 v 0 z"
   id="path200"
   inkscape:connector-curvature="0"
   style="fill:#000000;stroke:none" />
         <path
   d="m 10882,14494 v 0 l 8,-8 10,-8 12,-5 11,-2 h 12 10 l 13,5 10,7 11,-15 -16,-8 -12,-5 -16,-5 -12,5 -16,3 -12,5 -16,8 -12,12 v 0 z"
   id="path202"
   inkscape:connector-curvature="0"
   style="fill:#000000;stroke:none" />
         <path
   d="m 10892,14577 v 0 l -15,-15 -8,-23 v -25 l 13,-20 -15,-11 -13,31 v 25 l 8,28 20,26 v 0 z"
   id="path204"
   inkscape:connector-curvature="0"
   style="fill:#000000;stroke:none" />
         <path
   d="m 11243,15096 13,8 12,5 13,2 13,-2 12,-3 13,-5 13,-7 10,-11 13,-22 v -26 l -8,-25 -18,-21 -12,-7 -13,-5 -13,-3 -13,3 -12,2 -13,5 -13,8 -10,10 -13,23 v 25 l 8,26 z"
   id="path206"
   inkscape:connector-curvature="0"
   style="fill:#cc004c;stroke:none" />
         <path
   d="m 11334,15078 v 0 l -7,8 -10,8 -13,5 -10,2 h -13 -10 l -13,-5 -10,-7 -10,15 15,7 13,5 15,6 13,-6 15,-2 13,-5 15,-8 13,-12 v 0 z"
   id="path208"
   inkscape:connector-curvature="0"
   style="fill:#000000;stroke:none" />
         <path
   d="m 11324,14997 v 0 l 15,15 8,23 v 23 l -13,20 16,11 12,-26 v -28 l -7,-28 -21,-25 v 0 z"
   id="path210"
   inkscape:connector-curvature="0"
   style="fill:#000000;stroke:none" />
         <path
   d="m 11238,15007 v 0 l 7,-7 11,-8 12,-5 10,-3 h 13 10 l 13,5 10,8 10,-15 -15,-8 -13,-5 -15,-5 -13,5 -15,3 -13,5 -15,7 -13,13 v 0 z"
   id="path212"
   inkscape:connector-curvature="0"
   style="fill:#000000;stroke:none" />
         <path
   d="m 11248,15089 v 0 l -15,-16 -8,-23 v -23 l 13,-20 -16,-10 -12,25 v 28 l 7,28 21,26 v 0 z"
   id="path214"
   inkscape:connector-curvature="0"
   style="fill:#000000;stroke:none" />
         <path
   d="m 10951,15277 12,7 13,5 13,3 15,-3 13,-2 12,-5 11,-8 10,-10 12,-25 v -26 l -7,-25 -18,-21 -13,-7 -12,-5 -13,-3 h -13 l -13,3 -12,5 -10,7 -11,10 -12,26 -3,25 8,26 z"
   id="path216"
   inkscape:connector-curvature="0"
   style="fill:#cc004c;stroke:none" />
         <path
   d="m 11042,15259 v 0 l -8,7 -7,8 -13,5 -10,3 h -15 -10 l -13,-5 -10,-8 -11,15 16,8 12,5 16,5 15,-5 15,-3 13,-5 13,-7 12,-13 v 0 z"
   id="path218"
   inkscape:connector-curvature="0"
   style="fill:#000000;stroke:none" />
         <path
   d="m 11032,15175 v 0 l 15,15 8,23 v 26 l -13,20 15,10 13,-30 v -26 l -8,-28 -20,-25 v 0 z"
   id="path220"
   inkscape:connector-curvature="0"
   style="fill:#000000;stroke:none" />
         <path
   d="m 10948,15183 v 0 l 8,-8 7,-8 13,-5 10,-2 h 13 l 10,2 13,5 10,8 10,-15 -15,-8 -13,-5 -15,-3 h -13 l -15,3 -13,5 -13,8 -12,12 v 0 z"
   id="path222"
   inkscape:connector-curvature="0"
   style="fill:#000000;stroke:none" />
         <path
   d="m 10956,15269 v 3 l -16,-21 -7,-23 2,-23 13,-22 -15,-11 -13,28 -2,28 7,28 20,26 v 2 z"
   id="path224"
   inkscape:connector-curvature="0"
   style="fill:#000000;stroke:none" />
         <path
   d="m 10829,14725 28,-10 30,-13 31,-13 30,-12 33,-11 36,-10 38,-5 38,-2 43,2 48,8 49,15 56,23 61,30 63,39 71,48 76,61 -35,5 -36,5 -40,5 -44,5 -43,5 -45,3 -49,2 -48,-2 -48,-5 -51,-8 -51,-15 -48,-18 -51,-23 -48,-30 -49,-36 z"
   id="path226"
   inkscape:connector-curvature="0"
   style="fill:#008400;stroke:none" />
         <path
   d="m 11560,14883 6,-16 -77,-61 -71,-48 -66,-38 -61,-31 -56,-23 -51,-15 -48,-7 -43,-6 -38,6 -38,5 -38,10 -34,10 -30,13 -31,12 -30,13 -28,10 5,16 28,-11 31,-12 30,-13 31,-13 33,-10 33,-10 38,-5 h 38 43 l 48,7 46,16 56,23 61,30 61,38 71,49 76,61 5,-16 -5,16 h 8 l 5,-6 3,-5 -5,-5 z"
   id="path228"
   inkscape:connector-curvature="0"
   style="fill:#000000;stroke:none" />
         <path
   d="m 10826,14717 -2,13 45,46 49,35 50,31 51,23 48,18 54,15 51,7 48,6 48,5 49,-5 45,-3 43,-5 44,-5 40,-5 36,-5 35,-5 v -16 l -35,5 -36,5 -40,6 -44,5 -43,5 -45,2 h -49 -48 l -48,-5 -51,-7 -48,-16 -49,-17 -51,-23 -45,-31 -49,-35 -45,-41 -3,13 3,-13 -5,-3 -3,3 -2,5 v 5 z"
   id="path230"
   inkscape:connector-curvature="0"
   style="fill:#000000;stroke:none" />
         <path
   d="m 10587,14450 26,8 7,64 -10,104 -28,129 -46,135 -63,125 -84,96 -99,56 -8,-91 3,-94 12,-97 28,-94 41,-92 56,-89 74,-83 z"
   id="path232"
   inkscape:connector-curvature="0"
   style="fill:#008400;stroke:none" />
         <path
   d="m 10282,15167 8,8 104,-56 86,-99 64,-127 46,-135 28,-132 12,-104 -10,-67 -38,-12 10,15 13,2 5,62 -8,104 -28,127 -45,135 -64,122 -81,94 -94,56 7,7 -7,-7 -5,2 -3,5 3,5 5,3 z"
   id="path234"
   inkscape:connector-curvature="0"
   style="fill:#000000;stroke:none" />
         <path
   d="m 10582,14443 v 0 l -91,79 -77,83 -56,92 -40,91 -28,97 -13,97 -5,94 10,91 h 15 l -5,-91 v -94 l 13,-97 28,-91 41,-92 56,-86 71,-84 91,-74 v 0 z"
   id="path236"
   inkscape:connector-curvature="0"
   style="fill:#000000;stroke:none" />
         <path
   d="m 10788,14786 53,91 33,110 13,114 -3,117 -17,110 -28,99 -33,78 -41,51 -48,-61 -38,-73 -26,-89 -12,-100 2,-106 25,-112 46,-115 z"
   id="path238"
   inkscape:connector-curvature="0"
   style="fill:#008400;stroke:none" />
         <path
   d="m 10760,15561 h 10 l 43,-53 33,-79 28,-101 18,-110 3,-117 -13,-114 -33,-112 -53,-94 -16,10 54,89 33,107 12,114 -2,117 -18,110 -28,96 -33,79 -38,48 h 10 -10 v 5 l 3,3 2,2 h 5 z"
   id="path240"
   inkscape:connector-curvature="0"
   style="fill:#000000;stroke:none" />
         <path
   d="m 10796,14781 h -16 l -73,117 -46,114 -26,115 -2,106 13,100 25,91 38,76 51,61 10,-10 -46,-61 -38,-71 -25,-86 -13,-100 3,-106 25,-110 46,-114 74,-112 h -16 16 v -8 l -3,-5 -8,-2 -5,5 z"
   id="path242"
   inkscape:connector-curvature="0"
   style="fill:#000000;stroke:none" />
         <path
   d="m 11103,15106 28,13 36,13 35,20 38,23 41,28 38,33 38,41 36,45 28,51 25,61 18,69 13,76 v 84 l -11,94 -20,104 -33,115 -76,-115 -66,-111 -61,-112 -46,-110 -38,-106 -23,-107 -8,-104 z"
   id="path244"
   inkscape:connector-curvature="0"
   style="fill:#008400;stroke:none" />
         <path
   d="m 11405,15981 16,-3 33,-117 20,-104 10,-94 v -84 l -12,-76 -18,-71 -26,-61 -28,-54 -35,-45 -41,-41 -38,-36 -41,-28 -38,-23 -38,-20 -35,-13 -28,-12 -5,15 27,13 36,12 33,21 38,23 41,28 38,30 36,41 35,46 28,48 25,61 18,66 13,76 v 84 l -10,94 -21,104 -33,112 16,-2 -16,2 v 8 l 6,2 h 7 l 3,-5 z"
   id="path246"
   inkscape:connector-curvature="0"
   style="fill:#000000;stroke:none" />
         <path
   d="m 11106,15099 -11,7 -10,105 10,104 23,109 38,107 46,109 61,112 66,115 76,114 16,-10 -77,-115 -66,-109 -61,-112 -45,-109 -38,-107 -23,-104 -5,-104 5,-105 -10,8 10,-8 -3,-5 -5,-2 -5,2 -3,5 z"
   id="path248"
   inkscape:connector-curvature="0"
   style="fill:#000000;stroke:none" />
         <path
   d="m 10353,14242 -15,-15 -18,-18 -20,-23 -15,-18 -18,13 -20,15 -28,13 -31,15 -40,13 -44,12 -50,11 -59,7 -63,5 -74,3 h -81 l -89,-8 -100,-10 -106,-18 -117,-23 -127,-28 51,18 56,21 58,20 66,20 69,18 71,18 73,15 77,13 76,7 79,6 h 76 l 76,-8 76,-13 74,-20 69,-26 z"
   id="path250"
   inkscape:connector-curvature="0"
   style="fill:#008400;stroke:none" />
         <path
   d="m 10290,14176 -13,-3 15,18 23,23 18,18 15,15 10,-10 -15,-16 -18,-17 -17,-23 -16,-18 -12,-3 12,3 -5,-5 -5,2 -5,6 v 7 z"
   id="path252"
   inkscape:connector-curvature="0"
   style="fill:#000000;stroke:none" />
         <path
   d="m 9240,14181 -2,15 127,28 117,23 106,18 100,10 89,8 81,2 74,-5 63,-5 59,-8 50,-10 46,-13 41,-12 30,-16 31,-12 20,-16 18,-12 -10,-16 -18,13 -20,15 -26,13 -30,15 -41,13 -41,13 -50,10 -59,8 -63,5 h -74 l -81,2 -89,-7 -100,-11 -106,-17 -117,-23 -127,-28 -3,15 3,-15 -5,2 -3,5 3,6 5,2 z"
   id="path254"
   inkscape:connector-curvature="0"
   style="fill:#000000;stroke:none" />
         <path
   d="m 10348,14247 v -13 l -66,36 -68,25 -72,21 -76,12 -76,8 h -76 l -79,-5 -76,-8 -77,-13 -73,-15 -71,-18 -66,-17 -67,-21 -58,-20 -56,-20 -51,-18 -5,15 51,18 56,20 58,21 66,20 72,18 71,17 73,16 77,12 76,8 79,5 h 76 l 76,-7 76,-13 77,-21 68,-25 71,-36 v -12 12 l 6,-5 -3,-7 -5,-3 h -8 z"
   id="path256"
   inkscape:connector-curvature="0"
   style="fill:#000000;stroke:none" />
         <path
   d="m 10020,14270 h 8 l 3,-5 v -8 l -5,-2 z"
   id="path258"
   inkscape:connector-curvature="0"
   style="fill:#000000;stroke:none" />
         <path
   d="m 9838,14138 15,15 18,15 17,18 21,20 20,18 30,15 28,16 33,15 6,-15 -33,-16 -28,-15 -26,-15 -20,-18 -21,-15 -17,-18 -18,-15 -15,-16 z"
   id="path260"
   inkscape:connector-curvature="0"
   style="fill:#000000;stroke:none" />
         <path
   d="m 9848,14127 -5,-2 -3,2 -2,5 v 6 z"
   id="path262"
   inkscape:connector-curvature="0"
   style="fill:#000000;stroke:none" />
         <path
   d="m 9871,14354 5,-3 2,-5 -2,-5 -5,-3 z"
   id="path264"
   inkscape:connector-curvature="0"
   style="fill:#000000;stroke:none" />
         <path
   d="m 9736,14443 7,-10 8,-13 13,-13 15,-13 18,-12 23,-11 25,-10 26,-7 v -16 l -31,8 -25,10 -23,10 -23,13 -15,18 -13,13 -13,12 -7,16 z"
   id="path266"
   inkscape:connector-curvature="0"
   style="fill:#000000;stroke:none" />
         <path
   d="m 9721,14438 v 7 l 5,3 h 7 l 3,-5 z"
   id="path268"
   inkscape:connector-curvature="0"
   style="fill:#000000;stroke:none" />
         <path
   d="m 9439,14237 h 7 l 3,-5 v -8 l -5,-3 z"
   id="path270"
   inkscape:connector-curvature="0"
   style="fill:#000000;stroke:none" />
         <path
   d="m 9245,14056 11,31 17,30 23,26 23,23 28,25 31,18 30,15 31,13 5,-16 -31,-12 -30,-15 -26,-18 -28,-21 -23,-23 -17,-25 -18,-25 -10,-31 z"
   id="path272"
   inkscape:connector-curvature="0"
   style="fill:#000000;stroke:none" />
         <path
   d="m 9261,14051 -3,-5 h -8 l -5,3 v 7 z"
   id="path274"
   inkscape:connector-curvature="0"
   style="fill:#000000;stroke:none" />
         <path
   d="m 9411,14262 7,-2 3,-8 -3,-8 -7,-2 z"
   id="path276"
   inkscape:connector-curvature="0"
   style="fill:#000000;stroke:none" />
         <path
   d="m 9250,14293 21,-13 20,-8 20,-7 23,-3 21,-2 20,2 h 18 18 v -20 h -18 -18 l -20,2 -21,3 -23,2 -25,8 -20,8 -26,12 z"
   id="path278"
   inkscape:connector-curvature="0"
   style="fill:#000000;stroke:none" />
         <path
   d="m 9240,14277 -5,6 3,5 5,5 h 7 z"
   id="path280"
   inkscape:connector-curvature="0"
   style="fill:#000000;stroke:none" />
         <path
   d="m 9667,14562 -23,-15 -12,-23 -5,-25 5,-28 7,-13 8,-10 10,-8 13,-7 12,-3 h 13 15 l 13,5 23,15 15,23 3,26 -5,28 -8,12 -8,10 -10,8 -12,5 -13,5 h -13 -15 z"
   id="path282"
   inkscape:connector-curvature="0"
   style="fill:#cc004c;stroke:none" />
         <path
   d="m 9624,14468 v 0 l -8,31 8,28 15,25 26,18 5,-15 -21,-13 -10,-20 -2,-23 2,-26 v 0 z"
   id="path284"
   inkscape:connector-curvature="0"
   style="fill:#000000;stroke:none" />
         <path
   d="m 9726,14427 v 0 l -16,-5 -15,-2 -13,2 -15,3 -15,8 -10,10 -10,10 -8,15 15,5 8,-10 5,-10 10,-5 10,-8 10,-2 13,2 15,-2 11,5 v 0 z"
   id="path286"
   inkscape:connector-curvature="0"
   style="fill:#000000;stroke:none" />
         <path
   d="m 9766,14529 v 0 l 8,-30 -5,-28 -18,-26 -25,-18 -5,16 20,12 13,21 v 23 l -3,25 v 0 z"
   id="path288"
   inkscape:connector-curvature="0"
   style="fill:#000000;stroke:none" />
         <path
   d="m 9665,14570 v 0 l 15,5 15,2 13,-2 15,-5 13,-5 13,-10 10,-11 7,-15 -15,-5 -8,10 -5,10 -7,5 -13,6 -10,5 -13,-3 -15,3 -10,-5 v 0 z"
   id="path290"
   inkscape:connector-curvature="0"
   style="fill:#000000;stroke:none" />
         <path
   d="m 9802,14140 -23,-15 -13,-23 -5,-25 5,-28 8,-13 8,-10 10,-8 12,-8 13,-2 h 13 15 l 13,5 23,15 15,23 2,26 -5,28 -7,12 -8,10 -10,8 -13,5 -12,5 h -13 -15 z"
   id="path292"
   inkscape:connector-curvature="0"
   style="fill:#cc004c;stroke:none" />
         <path
   d="m 9759,14046 v 0 l -8,31 8,28 15,25 25,18 5,-16 -20,-12 -10,-21 -3,-22 3,-26 v 0 z"
   id="path294"
   inkscape:connector-curvature="0"
   style="fill:#000000;stroke:none" />
         <path
   d="m 9860,14005 v 0 l -15,-5 -15,-2 -13,2 -15,3 -15,7 -10,11 -11,10 -7,15 15,5 8,-10 5,-10 10,-5 10,-8 10,-2 13,2 15,-2 10,5 v 0 z"
   id="path296"
   inkscape:connector-curvature="0"
   style="fill:#000000;stroke:none" />
         <path
   d="m 9901,14107 v 0 l 8,-30 -5,-28 -18,-26 -26,-18 -5,16 21,12 12,21 v 23 l -2,25 v 0 z"
   id="path298"
   inkscape:connector-curvature="0"
   style="fill:#000000;stroke:none" />
         <path
   d="m 9799,14148 v 0 l 16,5 15,2 13,-2 15,-5 13,-5 12,-11 10,-10 8,-15 -15,-5 -8,10 -5,10 -8,5 -12,5 -10,6 -13,-3 -15,3 -11,-6 v 0 z"
   id="path300"
   inkscape:connector-curvature="0"
   style="fill:#000000;stroke:none" />
         <path
   d="m 9182,14069 -23,-15 -13,-23 -5,-26 5,-28 8,-12 8,-10 10,-8 12,-8 13,-2 h 13 15 l 13,5 23,15 15,23 2,25 -5,28 -7,13 -8,10 -10,8 -13,5 -12,5 h -13 -15 z"
   id="path302"
   inkscape:connector-curvature="0"
   style="fill:#cc004c;stroke:none" />
         <path
   d="m 9139,13975 v 0 l -8,30 8,28 15,26 25,18 5,-16 -20,-12 -10,-21 -3,-23 3,-25 v 0 z"
   id="path304"
   inkscape:connector-curvature="0"
   style="fill:#000000;stroke:none" />
         <path
   d="m 9240,13934 v 0 l -15,-5 -15,-2 -13,2 -15,3 -15,7 -11,10 -10,11 -7,15 15,5 8,-10 5,-10 10,-5 10,-8 10,-3 13,3 15,-3 10,5 v 0 z"
   id="path306"
   inkscape:connector-curvature="0"
   style="fill:#000000;stroke:none" />
         <path
   d="m 9281,14036 v 0 l 8,-31 -5,-28 -18,-25 -26,-18 -5,15 21,13 12,20 v 23 l -2,26 v 0 z"
   id="path308"
   inkscape:connector-curvature="0"
   style="fill:#000000;stroke:none" />
         <path
   d="m 9179,14077 v 0 l 16,5 15,2 13,-2 15,-5 12,-6 13,-10 10,-10 8,-15 -15,-5 -8,10 -5,10 -8,5 -12,5 -10,5 -13,-2 -15,2 -11,-5 v 0 z"
   id="path310"
   inkscape:connector-curvature="0"
   style="fill:#000000;stroke:none" />
         <path
   d="m 9162,14410 -23,-16 -13,-23 -5,-25 5,-28 8,-13 7,-10 10,-7 13,-5 13,-6 h 12 16 l 12,6 23,15 16,23 2,28 -5,25 -8,13 -7,10 -10,8 -13,7 -13,3 -13,2 -15,-2 z"
   id="path312"
   inkscape:connector-curvature="0"
   style="fill:#cc004c;stroke:none" />
         <path
   d="m 9118,14316 v 0 l -7,30 7,28 16,25 25,18 5,-15 -20,-13 -10,-20 -3,-23 3,-25 v 0 z"
   id="path314"
   inkscape:connector-curvature="0"
   style="fill:#000000;stroke:none" />
         <path
   d="m 9220,14275 v 0 l -15,-5 -16,-3 -12,3 -15,5 -13,5 -13,10 -10,10 -8,16 16,5 7,-11 5,-10 8,-5 13,-5 10,-5 12,3 16,-3 10,5 v 0 z"
   id="path316"
   inkscape:connector-curvature="0"
   style="fill:#000000;stroke:none" />
         <path
   d="m 9261,14377 v 0 l 7,-28 -5,-31 -18,-25 -25,-18 -5,15 20,13 13,20 v 26 l -3,22 v 0 z"
   id="path318"
   inkscape:connector-curvature="0"
   style="fill:#000000;stroke:none" />
         <path
   d="m 9159,14417 v 0 l 13,5 17,5 13,-5 15,-2 16,-8 10,-10 10,-10 8,-15 -16,-6 -7,11 -5,10 -10,5 -11,8 -10,2 h -13 -12 l -13,-5 v 0 z"
   id="path320"
   inkscape:connector-curvature="0"
   style="fill:#000000;stroke:none" />
         <path
   d="m 9708,14260 -5,-31 -3,-33 -2,-33 -5,-33 -5,-33 -11,-36 -10,-35 -18,-36 -22,-38 -31,-36 -35,-38 -46,-38 -54,-38 -66,-38 -76,-41 -89,-38 13,33 13,33 12,38 16,41 17,41 18,40 23,44 25,40 26,43 33,39 33,38 41,35 43,33 51,31 53,25 z"
   id="path322"
   inkscape:connector-curvature="0"
   style="fill:#008400;stroke:none" />
         <path
   d="m 9238,13682 -10,11 89,38 76,40 63,39 54,38 45,35 36,38 28,36 23,36 18,35 10,36 10,33 5,33 5,33 3,33 2,33 5,31 h 16 l -6,-31 -2,-33 -3,-33 -5,-33 -5,-33 -10,-38 -10,-36 -18,-35 -23,-41 -33,-36 -35,-38 -46,-41 -54,-38 -68,-38 -76,-40 -89,-39 -10,11 10,-11 h -8 l -2,5 v 6 l 5,5 z"
   id="path324"
   inkscape:connector-curvature="0"
   style="fill:#000000;stroke:none" />
         <path
   d="m 9700,14260 10,-8 -61,-20 -53,-26 -48,-30 -43,-33 -41,-33 -31,-39 -33,-38 -25,-43 -25,-38 -23,-43 -18,-41 -18,-41 -15,-40 -13,-38 -13,-33 -12,-34 -15,6 12,33 13,33 13,38 15,40 18,41 17,41 23,43 26,43 25,44 33,38 36,38 40,38 44,33 53,30 53,26 61,20 11,-7 -11,7 h 8 l 3,-5 v -7 l -6,-3 z"
   id="path326"
   inkscape:connector-curvature="0"
   style="fill:#000000;stroke:none" />
         <path
   d="m 10064,14344 -3,-16 -15,-5 -28,8 -33,15 -43,25 -46,34 -48,40 -51,46 -48,51 -49,53 -43,59 -38,58 -28,59 -18,61 -7,58 5,56 43,-18 43,-20 41,-20 40,-26 41,-28 38,-28 36,-33 35,-35 31,-39 30,-40 28,-46 23,-46 23,-51 18,-56 13,-55 z"
   id="path328"
   inkscape:connector-curvature="0"
   style="fill:#008400;stroke:none" />
         <path
   d="m 9568,14938 10,8 -2,-56 5,-58 18,-59 28,-58 38,-56 43,-59 46,-53 48,-51 51,-43 48,-41 46,-33 40,-25 33,-16 26,-5 h 8 l 2,11 h 15 l -2,-21 -23,-10 -31,10 -33,15 -45,26 -46,33 -48,41 -51,48 -49,51 -50,53 -44,59 -38,61 -28,58 -17,64 -11,58 8,56 10,8 -10,-8 3,5 5,3 5,-3 2,-5 z"
   id="path330"
   inkscape:connector-curvature="0"
   style="fill:#000000;stroke:none" />
         <path
   d="m 10056,14344 v 0 l -10,61 -13,53 -18,56 -22,51 -23,45 -28,44 -31,40 -28,39 -35,35 -36,31 -38,28 -41,28 -38,25 -40,20 -44,21 -43,17 5,16 43,-18 44,-20 40,-21 43,-25 41,-28 38,-28 36,-36 35,-35 33,-38 31,-41 28,-48 23,-46 23,-51 17,-56 13,-58 10,-61 v 0 z"
   id="path332"
   inkscape:connector-curvature="0"
   style="fill:#000000;stroke:none" />
         <path
   d="m 9672,14323 -53,-5 h -53 l -56,10 -56,13 -54,20 -53,26 -53,25 -49,31 -48,33 -43,35 -38,36 -36,36 -28,33 -23,35 -17,31 -11,28 36,7 41,5 h 40 l 44,-2 45,-8 46,-10 46,-15 48,-21 46,-22 46,-31 45,-36 41,-38 41,-45 40,-51 33,-56 z"
   id="path334"
   inkscape:connector-curvature="0"
   style="fill:#008400;stroke:none" />
         <path
   d="m 9004,14702 5,8 10,-26 18,-28 23,-35 25,-33 36,-36 38,-33 43,-36 48,-33 46,-30 54,-26 53,-25 53,-20 54,-13 56,-10 h 53 l 53,5 v -15 l -53,-6 h -53 l -56,11 -59,12 -53,21 -53,25 -54,26 -51,30 -48,33 -43,36 -38,38 -36,35 -30,33 -23,36 -18,33 -10,31 5,7 -5,-7 2,5 5,2 6,-2 2,-5 z"
   id="path336"
   inkscape:connector-curvature="0"
   style="fill:#000000;stroke:none" />
         <path
   d="m 9672,14331 -7,-10 -33,63 -33,54 -41,50 -38,46 -41,36 -46,35 -45,31 -43,23 -49,20 -46,15 -43,11 -45,7 h -44 l -40,3 -41,-5 -33,-8 -5,15 38,8 41,5 40,3 44,-6 45,-7 49,-10 45,-16 49,-20 48,-23 46,-30 45,-36 41,-41 43,-45 41,-51 33,-59 33,-63 -8,-10 8,10 v -8 l -5,-2 h -5 l -5,5 z"
   id="path338"
   inkscape:connector-curvature="0"
   style="fill:#000000;stroke:none" />
         <path
   d="m 9240,14199 -23,-21 -30,-23 -33,-25 -41,-23 -43,-20 -48,-21 -51,-15 -56,-7 -61,-3 -66,8 -69,15 -71,28 -76,38 -76,53 -84,69 -84,84 69,8 66,5 66,2 66,3 h 63 61 l 61,-5 59,-5 56,-8 56,-10 53,-16 51,-15 51,-20 45,-20 46,-28 z"
   id="path340"
   inkscape:connector-curvature="0"
   style="fill:#008400;stroke:none" />
         <path
   d="m 8328,14328 5,13 84,-84 84,-66 76,-53 74,-39 71,-28 66,-15 66,-7 61,2 56,8 48,15 49,20 43,21 38,23 33,25 30,23 23,18 10,-10 -22,-23 -31,-23 -33,-26 -43,-23 -43,-20 -49,-20 -53,-15 -56,-8 -61,-3 -66,8 -71,15 -71,28 -79,38 -76,54 -84,71 -84,84 5,13 -5,-13 v 5 l 2,2 3,3 h 5 z"
   id="path342"
   inkscape:connector-curvature="0"
   style="fill:#000000;stroke:none" />
         <path
   d="m 9235,14204 v -13 l -43,28 -43,28 -46,20 -51,21 -51,15 -50,15 -56,10 -56,8 -59,5 -61,5 -61,-2 h -63 -66 l -66,-3 -66,-5 -69,-8 v 16 l 69,7 66,5 66,3 66,5 h 63 l 61,-3 61,-5 59,-5 56,-7 56,-11 56,-15 50,-15 51,-20 46,-21 48,-28 43,-28 v -12 12 l 5,-5 -2,-7 -5,-3 h -8 z"
   id="path344"
   inkscape:connector-curvature="0"
   style="fill:#000000;stroke:none" />
         <path
   d="m 10483,14150 -8,3 -12,5 -13,2 -13,6 -12,5 -16,2 -12,5 -11,3 5,20 3,26 v 30 36 l -5,40 -8,44 -12,50 -18,56 -23,61 -31,66 -35,72 -46,79 -53,83 -61,89 -71,94 -82,102 38,-35 44,-41 43,-46 46,-51 48,-53 46,-56 45,-59 46,-63 41,-66 35,-69 33,-68 28,-72 23,-73 13,-74 8,-76 z"
   id="path346"
   inkscape:connector-curvature="0"
   style="fill:#008400;stroke:none" />
         <path
   d="m 10394,14181 -5,7 10,-2 13,-5 15,-3 13,-5 12,-5 13,-2 13,-6 8,-2 -6,-15 -7,2 -13,5 -13,3 -12,5 -13,5 -15,3 -13,5 -10,2 -5,8 5,-8 -5,3 v 7 l 2,5 h 8 z"
   id="path348"
   inkscape:connector-curvature="0"
   style="fill:#000000;stroke:none" />
         <path
   d="m 9944,15124 13,10 81,-101 71,-95 61,-88 54,-84 46,-82 35,-71 31,-66 22,-61 18,-56 13,-53 8,-44 5,-40 2,-36 v -30 l -5,-26 -5,-20 h -15 l 5,20 v 26 30 l 2,36 -5,40 -7,44 -13,48 -18,56 -23,61 -30,66 -36,71 -45,76 -54,84 -61,89 -71,94 -81,102 12,10 -12,-10 v 8 l 5,5 5,2 5,-5 z"
   id="path350"
   inkscape:connector-curvature="0"
   style="fill:#000000;stroke:none" />
         <path
   d="m 10486,14158 -11,-8 3,77 -8,76 -12,74 -23,71 -28,71 -33,69 -36,68 -41,64 -45,63 -46,59 -46,56 -45,53 -46,51 -43,46 -44,41 -38,35 10,10 39,-35 43,-41 43,-46 46,-51 50,-53 46,-56 46,-58 46,-64 40,-69 36,-68 33,-69 28,-71 23,-76 13,-74 7,-76 -2,-77 -11,-7 11,7 -3,-5 -5,-2 -5,2 -3,5 z"
   id="path352"
   inkscape:connector-curvature="0"
   style="fill:#000000;stroke:none" />
         <path
   d="m 10361,14460 3,-5 -3,-5 -5,-2 -5,2 z"
   id="path354"
   inkscape:connector-curvature="0"
   style="fill:#000000;stroke:none" />
         <path
   d="m 10165,14570 21,-8 20,-7 23,-8 25,-10 28,-13 26,-18 28,-18 25,-28 -10,-10 -26,23 -28,18 -25,18 -23,13 -25,10 -23,7 -20,8 -21,8 z"
   id="path356"
   inkscape:connector-curvature="0"
   style="fill:#000000;stroke:none" />
         <path
   d="m 10160,14555 -5,2 v 8 l 3,5 h 7 z"
   id="path358"
   inkscape:connector-curvature="0"
   style="fill:#000000;stroke:none" />
         <path
   d="m 10374,14633 v -7 l -5,-3 h -5 l -6,5 z"
   id="path360"
   inkscape:connector-curvature="0"
   style="fill:#000000;stroke:none" />
         <path
   d="m 10397,14794 -13,-23 -13,-38 -2,-46 5,-54 -16,-5 -10,59 8,46 13,43 17,28 z"
   id="path362"
   inkscape:connector-curvature="0"
   style="fill:#000000;stroke:none" />
         <path
   d="m 10386,14804 h 5 l 6,-3 2,-2 -2,-5 z"
   id="path364"
   inkscape:connector-curvature="0"
   style="fill:#000000;stroke:none" />
         <path
   d="m 10079,14972 2,-6 -2,-5 -5,-2 -5,2 z"
   id="path366"
   inkscape:connector-curvature="0"
   style="fill:#000000;stroke:none" />
         <path
   d="m 9835,15063 33,5 30,-5 36,-5 33,-13 31,-12 30,-18 28,-21 23,-22 -10,-11 -23,18 -28,21 -25,17 -31,13 -33,13 -31,5 h -30 -33 z"
   id="path368"
   inkscape:connector-curvature="0"
   style="fill:#000000;stroke:none" />
         <path
   d="m 9835,15048 -5,2 -3,5 3,6 5,2 z"
   id="path370"
   inkscape:connector-curvature="0"
   style="fill:#000000;stroke:none" />
         <path
   d="m 10089,15005 v -8 l -5,-3 h -5 l -5,6 z"
   id="path372"
   inkscape:connector-curvature="0"
   style="fill:#000000;stroke:none" />
         <path
   d="m 10048,15165 v -51 l 11,-41 15,-38 15,-30 -15,-5 -15,30 -16,38 -10,46 v 51 z"
   id="path374"
   inkscape:connector-curvature="0"
   style="fill:#000000;stroke:none" />
         <path
   d="m 10033,15165 3,5 5,2 5,-2 2,-5 z"
   id="path376"
   inkscape:connector-curvature="0"
   style="fill:#000000;stroke:none" />
         <path
   d="m 10473,14905 -10,8 -13,5 -13,5 h -15 l -13,-2 -12,-5 -11,-8 -10,-10 -12,-23 -6,-28 8,-25 18,-21 10,-7 13,-6 12,-5 h 13 l 13,3 13,5 12,8 10,10 13,23 5,25 -7,26 z"
   id="path378"
   inkscape:connector-curvature="0"
   style="fill:#cc004c;stroke:none" />
         <path
   d="m 10371,14903 h -2 l 12,13 13,7 13,5 15,3 h 15 l 15,-5 13,-5 13,-10 -10,-11 -8,5 -13,6 -10,5 h -15 l -10,-3 -13,-5 -8,-8 -7,-7 h -3 z"
   id="path380"
   inkscape:connector-curvature="0"
   style="fill:#000000;stroke:none" />
         <path
   d="m 10379,14796 v -2 l -21,25 -10,28 8,30 15,26 10,-10 -10,-21 -2,-25 5,-23 15,-15 v -3 z"
   id="path382"
   inkscape:connector-curvature="0"
   style="fill:#000000;stroke:none" />
         <path
   d="m 10486,14804 h 2 l -13,-13 -15,-8 -13,-5 -15,-2 h -13 l -15,5 -13,5 -12,10 10,10 8,-5 12,-5 10,-5 h 13 l 10,3 13,5 10,7 8,8 h 2 z"
   id="path384"
   inkscape:connector-curvature="0"
   style="fill:#000000;stroke:none" />
         <path
   d="m 10478,14911 v 2 l 20,-28 10,-28 -7,-28 -15,-25 -11,10 11,20 2,23 -5,23 -15,18 v 2 z"
   id="path386"
   inkscape:connector-curvature="0"
   style="fill:#000000;stroke:none" />
         <path
   d="m 10153,14603 -13,7 -13,6 -12,2 h -13 l -13,-2 -13,-6 -12,-5 -10,-10 -13,-25 -3,-26 5,-25 18,-23 13,-8 13,-5 12,-2 h 13 l 13,2 12,3 13,8 10,10 13,25 2,26 -5,25 z"
   id="path388"
   inkscape:connector-curvature="0"
   style="fill:#cc004c;stroke:none" />
         <path
   d="m 10046,14600 h 2 l 11,13 15,5 13,5 15,3 h 13 l 15,-3 12,-5 16,-8 -10,-15 -11,8 -12,5 -10,2 h -13 l -10,-2 -13,-5 -10,-5 -10,-8 h 2 z"
   id="path390"
   inkscape:connector-curvature="0"
   style="fill:#000000;stroke:none" />
         <path
   d="m 10056,14488 v 3 l -20,25 -8,28 5,28 13,28 15,-10 -13,-23 v -23 l 3,-22 15,-21 v 3 z"
   id="path392"
   inkscape:connector-curvature="0"
   style="fill:#000000;stroke:none" />
         <path
   d="m 10168,14499 h -3 l -10,-13 -15,-8 -15,-2 -13,-3 h -13 l -15,3 -13,5 -15,7 10,16 10,-8 13,-5 10,-3 h 13 l 13,3 10,3 10,7 10,8 h -2 z"
   id="path394"
   inkscape:connector-curvature="0"
   style="fill:#000000;stroke:none" />
         <path
   d="m 10158,14610 v -2 l 20,-25 8,-28 -5,-28 -13,-28 -15,10 12,23 v 23 l -2,22 -15,21 v -3 z"
   id="path396"
   inkscape:connector-curvature="0"
   style="fill:#000000;stroke:none" />
         <path
   d="m 9820,15127 -13,7 -13,5 -12,5 h -13 l -13,-2 -13,-5 -12,-8 -10,-10 -13,-23 -5,-25 7,-26 18,-20 10,-8 13,-5 15,-5 h 13 l 13,3 12,5 13,5 10,10 13,23 3,28 -8,25 z"
   id="path398"
   inkscape:connector-curvature="0"
   style="fill:#cc004c;stroke:none" />
         <path
   d="m 9716,15124 h -3 l 13,13 15,7 13,6 15,2 h 13 l 15,-5 13,-5 15,-8 -10,-15 -11,8 -12,5 -10,5 h -13 l -10,-3 -13,-5 -10,-7 -8,-8 h -2 z"
   id="path400"
   inkscape:connector-curvature="0"
   style="fill:#000000;stroke:none" />
         <path
   d="m 9723,15020 v -3 l -20,26 -10,28 7,28 16,25 10,-10 -10,-20 -3,-23 5,-23 15,-15 v -3 z"
   id="path402"
   inkscape:connector-curvature="0"
   style="fill:#000000;stroke:none" />
         <path
   d="m 9835,15025 h -3 l -10,-13 -15,-5 -13,-5 -15,-2 h -13 l -17,5 -13,5 -13,10 10,10 8,-5 13,-5 12,-5 h 13 l 10,2 13,5 10,5 10,8 h -2 z"
   id="path404"
   inkscape:connector-curvature="0"
   style="fill:#000000;stroke:none" />
         <path
   d="m 9825,15134 v 0 l 18,-25 7,-28 -2,-31 -13,-25 -15,10 12,20 3,26 -8,23 -12,15 v 0 z"
   id="path406"
   inkscape:connector-curvature="0"
   style="fill:#000000;stroke:none" />
         <path
   d="m 10117,15294 -10,8 -13,5 -15,5 h -13 l -12,-2 -13,-5 -13,-8 -10,-10 -13,-23 -2,-28 7,-25 16,-21 12,-7 13,-6 13,-5 h 12 l 13,3 13,5 13,8 10,10 12,23 5,25 -7,26 z"
   id="path408"
   inkscape:connector-curvature="0"
   style="fill:#cc004c;stroke:none" />
         <path
   d="m 10010,15292 v 0 l 13,13 15,7 13,5 15,3 h 13 l 18,-5 12,-5 13,-10 -10,-11 -8,5 -12,6 -13,5 h -13 l -10,-3 -13,-5 -10,-8 -7,-7 v 0 z"
   id="path410"
   inkscape:connector-curvature="0"
   style="fill:#000000;stroke:none" />
         <path
   d="m 10020,15183 v 0 l -17,25 -8,28 3,30 12,26 16,-10 -13,-21 -3,-25 8,-23 13,-15 v 0 z"
   id="path412"
   inkscape:connector-curvature="0"
   style="fill:#000000;stroke:none" />
         <path
   d="m 10130,15193 h 2 l -12,-13 -16,-8 -12,-5 -16,-2 h -12 l -16,5 -12,5 -16,8 11,15 10,-8 13,-5 10,-5 h 12 l 11,3 12,5 10,7 8,8 h 3 z"
   id="path414"
   inkscape:connector-curvature="0"
   style="fill:#000000;stroke:none" />
         <path
   d="m 10122,15300 v 2 l 20,-28 11,-28 -8,-28 -15,-25 -10,10 10,20 2,23 -5,23 -15,18 v 2 z"
   id="path416"
   inkscape:connector-curvature="0"
   style="fill:#000000;stroke:none" />
         <path
   d="m 10219,14740 -31,-10 -30,-10 -31,-13 -33,-10 -33,-10 -35,-8 -36,-2 -41,-3 -43,5 -46,10 -50,18 -54,23 -58,33 -64,43 -68,51 -74,64 35,2 36,5 41,3 43,2 43,3 48,2 46,-2 48,-3 51,-7 49,-10 50,-16 49,-20 48,-25 48,-31 46,-38 z"
   id="path418"
   inkscape:connector-curvature="0"
   style="fill:#008400;stroke:none" />
         <path
   d="m 9492,14913 5,13 74,-61 68,-51 64,-43 56,-33 53,-23 51,-18 43,-10 43,-3 h 41 l 36,3 33,7 33,11 33,10 30,12 31,11 30,10 5,-15 -30,-11 -31,-10 -30,-13 -33,-10 -33,-10 -38,-7 -36,-3 -41,-5 -43,8 -48,10 -51,17 -53,23 -61,33 -64,44 -68,51 -74,66 5,12 -5,-12 v 5 l 2,2 3,3 h 5 z"
   id="path420"
   inkscape:connector-curvature="0"
   style="fill:#000000;stroke:none" />
         <path
   d="m 10216,14748 -2,-13 -46,46 -46,35 -48,31 -46,25 -48,21 -48,15 -49,10 -51,8 -48,2 h -46 -48 l -43,-2 -43,-3 -41,-2 -36,-5 -35,-3 v 15 l 35,3 36,5 41,2 43,3 43,3 48,5 46,-5 48,-3 51,-8 49,-10 53,-15 48,-20 51,-26 48,-30 46,-41 46,-46 -3,-12 3,12 2,-5 -2,-5 -5,-2 -5,2 z"
   id="path422"
   inkscape:connector-curvature="0"
   style="fill:#000000;stroke:none" />
         <path
   d="m 10450,14455 -15,-5 -13,13 -5,25 v 39 l 5,48 10,56 13,61 20,66 23,66 28,66 33,64 36,58 43,51 43,43 48,33 54,18 5,-91 -5,-94 -18,-95 -31,-94 -43,-89 -61,-86 -76,-79 z"
   id="path424"
   inkscape:connector-curvature="0"
   style="fill:#008400;stroke:none" />
         <path
   d="m 10765,15157 8,-7 -51,-18 -46,-33 -43,-41 -41,-51 -35,-56 -33,-63 -28,-66 -23,-67 -21,-66 -12,-58 -10,-56 -5,-48 v -39 l 5,-22 7,-8 8,5 10,-15 -23,-5 -18,17 -5,28 v 39 l 5,48 11,56 12,63 21,67 22,66 28,66 33,63 36,61 46,51 43,46 51,33 56,18 7,-8 -7,8 5,-3 2,-5 -2,-5 -5,-2 z"
   id="path426"
   inkscape:connector-curvature="0"
   style="fill:#000000;stroke:none" />
         <path
   d="m 10445,14463 v 0 l 94,71 74,79 61,86 43,87 30,91 18,95 3,94 -3,91 h 15 l 8,-91 -8,-94 -17,-95 -31,-96 -43,-92 -61,-86 -79,-79 -94,-76 v 0 z"
   id="path428"
   inkscape:connector-curvature="0"
   style="fill:#000000;stroke:none" />
         <path
   d="m 10259,14799 -50,94 -26,109 -8,114 8,117 23,110 30,99 39,76 43,51 43,-64 36,-76 22,-89 11,-99 -11,-107 -28,-112 -53,-111 z"
   id="path430"
   inkscape:connector-curvature="0"
   style="fill:#008400;stroke:none" />
         <path
   d="m 10310,15564 13,-3 -41,-48 -38,-74 -30,-96 -23,-110 -5,-117 5,-114 25,-107 51,-91 -15,-10 -51,96 -26,112 -10,114 10,117 23,110 31,101 38,79 46,54 12,-3 -12,3 h 7 l 5,-5 3,-5 -5,-6 z"
   id="path432"
   inkscape:connector-curvature="0"
   style="fill:#000000;stroke:none" />
         <path
   d="m 10267,14804 h -15 l 79,112 53,109 28,109 7,107 -7,99 -23,87 -36,76 -43,61 15,10 44,-66 35,-76 23,-92 13,-99 -13,-107 -28,-114 -53,-115 -79,-111 h -15 15 l -5,-6 -5,3 -5,5 v 8 z"
   id="path434"
   inkscape:connector-curvature="0"
   style="fill:#000000;stroke:none" />
         <path
   d="m 9959,15132 -27,12 -34,16 -38,20 -35,25 -41,31 -35,36 -36,40 -33,46 -28,53 -23,61 -15,69 -8,76 5,87 13,94 25,102 39,114 71,-117 61,-114 53,-115 43,-112 33,-109 18,-107 5,-104 z"
   id="path436"
   inkscape:connector-curvature="0"
   style="fill:#008400;stroke:none" />
         <path
   d="m 9680,16009 15,2 -38,-114 -25,-99 -13,-94 -3,-87 5,-76 16,-66 23,-61 28,-51 33,-46 33,-40 35,-33 41,-31 35,-25 36,-21 33,-15 28,-13 -5,-15 -28,13 -33,15 -41,20 -35,26 -41,30 -36,38 -38,41 -33,46 -28,56 -23,61 -15,71 -10,76 8,87 12,94 26,104 38,115 15,2 -15,-2 5,5 h 5 l 5,-3 v -8 z"
   id="path438"
   inkscape:connector-curvature="0"
   style="fill:#000000;stroke:none" />
         <path
   d="m 9962,15139 -10,-7 13,104 -6,104 -17,107 -33,107 -44,112 -53,114 -61,114 -71,115 15,10 71,-119 61,-115 54,-114 43,-112 33,-112 18,-107 5,-104 -13,-104 -10,-8 10,8 -2,-5 -6,-3 -5,3 -2,5 z"
   id="path440"
   inkscape:connector-curvature="0"
   style="fill:#000000;stroke:none" />
        </g>
       </g>
      </g>
     </g>
    </g>
   </g>
  </g>
 </g>
</svg>