<?xml version="1.0" encoding="UTF-8" standalone="no"?>
<svg
   xmlns:ooo="http://xml.openoffice.org/svg/export"
   xmlns:dc="http://purl.org/dc/elements/1.1/"
   xmlns:cc="http://creativecommons.org/ns#"
   xmlns:rdf="http://www.w3.org/1999/02/22-rdf-syntax-ns#"
   xmlns:svg="http://www.w3.org/2000/svg"
   xmlns="http://www.w3.org/2000/svg"
   xmlns:sodipodi="http://sodipodi.sourceforge.net/DTD/sodipodi-0.dtd"
   xmlns:inkscape="http://www.inkscape.org/namespaces/inkscape"
   version="1.2"
   width="25.1mm"
   height="16.969999mm"
   viewBox="0 0 2510 1696.9999"
   preserveAspectRatio="xMidYMid"
   xml:space="preserve"
   id="svg161"
   sodipodi:docname="mushrms.svg"
   style="fill-rule:evenodd;stroke-width:28.22200012;stroke-linejoin:round"
   inkscape:version="0.92.5 (2060ec1f9f, 2020-04-08)"><metadata
   id="metadata165"><rdf:RDF><cc:Work
       rdf:about=""><dc:format>image/svg+xml</dc:format><dc:type
         rdf:resource="http://purl.org/dc/dcmitype/StillImage" /></cc:Work></rdf:RDF></metadata><sodipodi:namedview
   pagecolor="#ffffff"
   bordercolor="#666666"
   borderopacity="1"
   objecttolerance="10"
   gridtolerance="10"
   guidetolerance="10"
   inkscape:pageopacity="0"
   inkscape:pageshadow="2"
   inkscape:window-width="664"
   inkscape:window-height="487"
   id="namedview163"
   showgrid="false"
   inkscape:zoom="0.2102413"
   inkscape:cx="47.433072"
   inkscape:cy="32.050392"
   inkscape:window-x="0"
   inkscape:window-y="0"
   inkscape:window-maximized="0"
   inkscape:current-layer="svg161" />
 <defs
   class="ClipPathGroup"
   id="defs8">
  <clipPath
   id="presentation_clip_path"
   clipPathUnits="userSpaceOnUse">
   <rect
   x="0"
   y="0"
   width="21000"
   height="29700"
   id="rect2" />
  </clipPath>
  <clipPath
   id="presentation_clip_path_shrink"
   clipPathUnits="userSpaceOnUse">
   <rect
   x="21"
   y="29"
   width="20958"
   height="29641"
   id="rect5" />
  </clipPath>
 </defs>
 <defs
   class="TextShapeIndex"
   id="defs12">
  <g
   ooo:slide="id1"
   ooo:id-list="id3"
   id="g10" />
 </defs>
 <defs
   class="EmbeddedBulletChars"
   id="defs44">
  <g
   id="bullet-char-template-57356"
   transform="matrix(4.8828125e-4,0,0,-4.8828125e-4,0,0)">
   <path
   d="M 580,1141 1163,571 580,0 -4,571 Z"
   id="path14"
   inkscape:connector-curvature="0" />
  </g>
  <g
   id="bullet-char-template-57354"
   transform="matrix(4.8828125e-4,0,0,-4.8828125e-4,0,0)">
   <path
   d="M 8,1128 H 1137 V 0 H 8 Z"
   id="path17"
   inkscape:connector-curvature="0" />
  </g>
  <g
   id="bullet-char-template-10146"
   transform="matrix(4.8828125e-4,0,0,-4.8828125e-4,0,0)">
   <path
   d="M 174,0 602,739 174,1481 1456,739 Z M 1358,739 309,1346 659,739 Z"
   id="path20"
   inkscape:connector-curvature="0" />
  </g>
  <g
   id="bullet-char-template-10132"
   transform="matrix(4.8828125e-4,0,0,-4.8828125e-4,0,0)">
   <path
   d="M 2015,739 1276,0 H 717 l 543,543 H 174 v 393 h 1086 l -543,545 h 557 z"
   id="path23"
   inkscape:connector-curvature="0" />
  </g>
  <g
   id="bullet-char-template-10007"
   transform="matrix(4.8828125e-4,0,0,-4.8828125e-4,0,0)">
   <path
   d="m 0,-2 c -7,16 -16,29 -25,39 l 381,530 c -94,256 -141,385 -141,387 0,25 13,38 40,38 9,0 21,-2 34,-5 21,4 42,12 65,25 l 27,-13 111,-251 280,301 64,-25 24,25 c 21,-10 41,-24 62,-43 C 886,937 835,863 770,784 769,783 710,716 594,584 L 774,223 c 0,-27 -21,-55 -63,-84 l 16,-20 C 717,90 699,76 672,76 641,76 570,178 457,381 L 164,-76 c -22,-34 -53,-51 -92,-51 -42,0 -63,17 -64,51 -7,9 -10,24 -10,44 0,9 1,19 2,30 z"
   id="path26"
   inkscape:connector-curvature="0" />
  </g>
  <g
   id="bullet-char-template-10004"
   transform="matrix(4.8828125e-4,0,0,-4.8828125e-4,0,0)">
   <path
   d="M 285,-33 C 182,-33 111,30 74,156 52,228 41,333 41,471 c 0,78 14,145 41,201 34,71 87,106 158,106 53,0 88,-31 106,-94 l 23,-176 c 8,-64 28,-97 59,-98 l 735,706 c 11,11 33,17 66,17 42,0 63,-15 63,-46 V 965 c 0,-36 -10,-64 -30,-84 L 442,47 C 390,-6 338,-33 285,-33 Z"
   id="path29"
   inkscape:connector-curvature="0" />
  </g>
  <g
   id="bullet-char-template-9679"
   transform="matrix(4.8828125e-4,0,0,-4.8828125e-4,0,0)">
   <path
   d="M 813,0 C 632,0 489,54 383,161 276,268 223,411 223,592 c 0,181 53,324 160,431 106,107 249,161 430,161 179,0 323,-54 432,-161 108,-107 162,-251 162,-431 0,-180 -54,-324 -162,-431 C 1136,54 992,0 813,0 Z"
   id="path32"
   inkscape:connector-curvature="0" />
  </g>
  <g
   id="bullet-char-template-8226"
   transform="matrix(4.8828125e-4,0,0,-4.8828125e-4,0,0)">
   <path
   d="m 346,457 c -73,0 -137,26 -191,78 -54,51 -81,114 -81,188 0,73 27,136 81,188 54,52 118,78 191,78 73,0 134,-26 185,-79 51,-51 77,-114 77,-187 0,-75 -25,-137 -76,-188 -50,-52 -112,-78 -186,-78 z"
   id="path35"
   inkscape:connector-curvature="0" />
  </g>
  <g
   id="bullet-char-template-8211"
   transform="matrix(4.8828125e-4,0,0,-4.8828125e-4,0,0)">
   <path
   d="M -4,459 H 1135 V 606 H -4 Z"
   id="path38"
   inkscape:connector-curvature="0" />
  </g>
  <g
   id="bullet-char-template-61548"
   transform="matrix(4.8828125e-4,0,0,-4.8828125e-4,0,0)">
   <path
   d="m 173,740 c 0,163 58,303 173,419 116,115 255,173 419,173 163,0 302,-58 418,-173 116,-116 174,-256 174,-419 0,-163 -58,-303 -174,-418 C 1067,206 928,148 765,148 601,148 462,206 346,322 231,437 173,577 173,740 Z"
   id="path41"
   inkscape:connector-curvature="0" />
  </g>
 </defs>
 <g
   id="g49"
   transform="translate(-9245,-14001)">
  <g
   id="id2"
   class="Master_Slide">
   <g
   id="bg-id2"
   class="Background" />
   <g
   id="bo-id2"
   class="BackgroundObjects" />
  </g>
 </g>
 <g
   class="SlideGroup"
   id="g159"
   transform="translate(-9245,-14001)">
  <g
   id="g157">
   <g
   id="container-id1">
    <g
   id="id1"
   class="Slide"
   clip-path="url(#presentation_clip_path)">
     <g
   class="Page"
   id="g153">
      <g
   class="Graphic"
   id="g151">
       <g
   id="id3">
        <rect
   class="BoundingBox"
   x="9245"
   y="14001"
   width="2510"
   height="1697"
   id="rect51"
   style="fill:none;stroke:none" />
        <defs
   id="defs56">
         <clipPath
   id="clip_path_1"
   clipPathUnits="userSpaceOnUse">
          <path
   d="m 9245,14001 h 2509 v 1696 H 9245 Z"
   id="path53"
   inkscape:connector-curvature="0" />
         </clipPath>
        </defs>
        <g
   clip-path="url(#clip_path_1)"
   id="g148">
         <path
   d="m 9515,14464 -64,79 -51,92 -38,104 -18,107 v 112 l 23,109 48,104 79,97 21,15 22,8 28,2 31,-2 30,-8 34,-12 33,-13 35,-18 36,-18 33,-23 35,-20 34,-23 30,-20 28,-21 28,-20 23,-18 23,-18 28,-22 28,-28 30,-28 33,-34 31,-38 28,-35 28,-41 23,-41 20,-40 15,-41 8,-41 2,-38 -7,-38 -15,-38 -26,-33 -33,-31 -36,-30 -40,-26 -46,-23 -46,-20 -48,-15 -48,-13 -51,-8 -51,-5 h -49 l -50,5 -46,10 -46,16 -43,23 -41,25 z"
   id="path58"
   inkscape:connector-curvature="0"
   style="fill:#eae5bf;stroke:none" />
         <path
   d="m 9515,14464 v 0 l -64,79 -51,92 -38,104 -18,107 v 112 l 23,109 48,104 79,97 v 0 l 21,15 22,8 28,2 31,-2 30,-8 34,-12 33,-13 35,-18 36,-18 33,-23 35,-20 34,-23 30,-20 28,-21 28,-20 23,-18 v 0 l 23,-18 28,-22 28,-28 30,-28 33,-34 31,-38 28,-35 28,-41 23,-41 20,-40 15,-41 8,-41 2,-38 -7,-38 -15,-38 -26,-33 v 0 l -33,-31 -36,-30 -40,-26 -46,-23 -46,-20 -48,-15 -48,-13 -51,-8 -51,-5 h -49 l -50,5 -46,10 -46,16 -43,23 -41,25 z"
   id="path60"
   inkscape:connector-curvature="0"
   style="fill:none;stroke:#000000" />
         <path
   d="m 9792,14800 -49,48 -53,54 -51,58 -46,56 -35,59 -26,53 -10,46 10,38 13,13 20,5 21,2 25,-5 31,-10 30,-13 31,-15 33,-18 33,-20 33,-20 33,-21 31,-20 27,-18 23,-18 21,-15 18,-10 35,-26 46,-40 48,-51 46,-59 41,-61 23,-61 5,-56 -23,-48 -33,-15 -49,5 -56,20 -61,33 -61,38 -53,36 -43,33 z"
   id="path62"
   inkscape:connector-curvature="0"
   style="fill:#c1841e;stroke:none" />
         <path
   d="m 9792,14800 v 0 l -49,48 -53,54 -51,58 -46,56 -35,59 -26,53 -10,46 10,38 v 0 l 13,13 20,5 21,2 25,-5 31,-10 30,-13 31,-15 33,-18 33,-20 33,-20 33,-21 31,-20 27,-18 23,-18 21,-15 18,-10 v 0 l 35,-26 46,-40 48,-51 46,-59 41,-61 23,-61 5,-56 -23,-48 v 0 l -33,-15 -49,5 -56,20 -61,33 -61,38 -53,36 -43,33 z"
   id="path64"
   inkscape:connector-curvature="0"
   style="fill:none;stroke:#000000" />
         <path
   d="m 10099,14619 -221,346 -346,247"
   id="path66"
   inkscape:connector-curvature="0"
   style="fill:none;stroke:#000000" />
         <path
   d="m 9581,15047 297,-82 -191,-58"
   id="path68"
   inkscape:connector-curvature="0"
   style="fill:none;stroke:#000000" />
         <path
   d="m 9878,14734 v 231 l 318,-269"
   id="path70"
   inkscape:connector-curvature="0"
   style="fill:none;stroke:#000000" />
         <path
   d="m 10117,14869 -239,96 -163,209"
   id="path72"
   inkscape:connector-curvature="0"
   style="fill:none;stroke:#000000" />
         <path
   d="m 9840,14879 -25,20 -26,26 -23,28 -17,28 -11,28 -2,28 7,27 21,23 23,23 17,28 13,33 8,33 5,36 2,36 v 35 l -2,33 8,31 30,28 46,23 51,12 h 56 l 50,-15 41,-33 26,-53 5,-69 -8,-69 -18,-71 -25,-66 -28,-61 -31,-54 -28,-38 -20,-23 -18,-12 -20,-8 -18,-8 -20,-2 -18,2 -18,3 -18,8 z"
   id="path74"
   inkscape:connector-curvature="0"
   style="fill:#eae5bf;stroke:none" />
         <path
   d="m 9840,14879 v 0 l -25,20 -26,26 -23,28 -17,28 -11,28 -2,28 7,27 21,23 v 0 l 23,23 17,28 13,33 8,33 5,36 2,36 v 35 l -2,33 v 0 l 8,31 30,28 46,23 51,12 h 56 l 50,-15 41,-33 26,-53 v 0 l 5,-69 -8,-69 -18,-71 -25,-66 -28,-61 -31,-54 -28,-38 -20,-23 v 0 l -18,-12 -20,-8 -18,-8 -20,-2 -18,2 -18,3 -18,8 z"
   id="path76"
   inkscape:connector-curvature="0"
   style="fill:none;stroke:#000000" />
         <path
   d="m 10977,14199 -64,39 -61,58 -53,76 -46,84 -30,89 -13,87 10,79 36,63 40,28 51,18 64,5 71,-5 76,-15 79,-23 81,-30 79,-41 74,-43 66,-49 59,-53 45,-56 33,-59 16,-58 -3,-59 -25,-58 -33,-46 -38,-38 -39,-28 -40,-23 -41,-13 -43,-7 -43,-3 h -44 l -40,8 -41,7 -38,10 -36,13 -33,13 -30,10 -26,13 z"
   id="path78"
   inkscape:connector-curvature="0"
   style="fill:#eae5bf;stroke:none" />
         <path
   d="m 10977,14199 v 0 l -64,39 -61,58 -53,76 -46,84 -30,89 -13,87 10,79 36,63 v 0 l 40,28 51,18 64,5 71,-5 76,-15 79,-23 81,-30 79,-41 74,-43 66,-49 59,-53 45,-56 33,-59 16,-58 -3,-59 -25,-58 v 0 l -33,-46 -38,-38 -39,-28 -40,-23 -41,-13 -43,-7 -43,-3 h -44 l -40,8 -41,7 -38,10 -36,13 -33,13 -30,10 -26,13 z"
   id="path80"
   inkscape:connector-curvature="0"
   style="fill:none;stroke:#000000" />
         <path
   d="m 11424,14627 -30,25 -36,23 -33,21 -35,20 -39,18 -38,18 -38,15 -38,15 13,56 5,56 v 56 l -5,56 10,28 33,28 48,20 59,8 61,-5 58,-26 51,-50 33,-82 5,-46 -5,-48 -12,-51 -16,-48 -18,-44 -15,-33 -13,-22 z"
   id="path82"
   inkscape:connector-curvature="0"
   style="fill:#eae5bf;stroke:none" />
         <path
   d="m 11424,14627 v 0 l -30,25 -36,23 -33,21 -35,20 -39,18 -38,18 -38,15 -38,15 v 0 l 13,56 5,56 v 56 l -5,56 v 0 l 10,28 33,28 48,20 59,8 61,-5 58,-26 51,-50 33,-82 v 0 l 5,-46 -5,-48 -12,-51 -16,-48 -18,-44 -15,-33 -13,-22 z"
   id="path84"
   inkscape:connector-curvature="0"
   style="fill:none;stroke:#000000" />
         <path
   d="m 10290,15024 -5,35 5,36 15,36 28,35 33,36 41,30 48,31 51,23 54,20 56,15 56,8 56,3 56,-8 50,-18 46,-25 41,-38 28,-54 2,-53 -20,-51 -38,-51 -48,-46 -56,-38 -56,-31 -51,-20 -48,-13 -56,-10 -56,-2 -56,7 -56,16 -49,28 -40,40 z"
   id="path86"
   inkscape:connector-curvature="0"
   style="fill:#eae5bf;stroke:none" />
         <path
   d="m 10290,15024 v 0 l -5,35 5,36 15,36 28,35 33,36 41,30 48,31 51,23 54,20 56,15 56,8 56,3 56,-8 50,-18 46,-25 41,-38 v 0 l 28,-54 2,-53 -20,-51 -38,-51 -48,-46 -56,-38 -56,-31 -51,-20 v 0 l -48,-13 -56,-10 -56,-2 -56,7 -56,16 -49,28 -40,40 z"
   id="path88"
   inkscape:connector-curvature="0"
   style="fill:none;stroke:#000000" />
         <path
   d="m 10613,15321 -20,-5 -21,-5 -20,-7 -18,-8 -20,-8 -18,-7 -20,-8 -18,-10 -38,41 -28,45 -18,51 -10,54 -3,53 3,46 10,43 13,31 23,20 33,13 43,5 43,-3 38,-7 33,-18 16,-26 -3,-33 -20,-76 -5,-74 5,-63 z"
   id="path90"
   inkscape:connector-curvature="0"
   style="fill:#eae5bf;stroke:none" />
         <path
   d="m 10613,15321 v 0 l -20,-5 -21,-5 -20,-7 -18,-8 -20,-8 -18,-7 -20,-8 -18,-10 v 0 l -38,41 -28,45 -18,51 -10,54 -3,53 3,46 10,43 13,31 v 0 l 23,20 33,13 43,5 43,-3 38,-7 33,-18 16,-26 -3,-33 v 0 l -20,-76 -5,-74 5,-63 z"
   id="path92"
   inkscape:connector-curvature="0"
   style="fill:none;stroke:#000000" />
         <path
   d="m 10595,15698 -2,-15 2,-18 5,-20 8,-23 13,-21 15,-20 18,-18 20,-13 -15,6 -13,2 -15,8 -13,5 -12,7 -11,11 -7,10 -8,12 3,-15 5,-18 10,-17 10,-18 15,-21 18,-15 18,-15 23,-10 -13,-3 h -13 l -15,3 -13,5 -15,5 -15,10 -15,8 -13,12 5,-17 10,-21 13,-20 18,-23 23,-20 28,-21 33,-15 38,-13 -23,-2 -26,2 -30,8 -31,18 -30,28 -31,40 -30,54 -28,69 2,-18 6,-28 7,-36 13,-38 13,-36 12,-35 16,-28 12,-21 -18,11 -22,20 -26,31 -23,40 -18,46 -5,59 5,63 26,71 z"
   id="path94"
   inkscape:connector-curvature="0"
   style="fill:#26f200;stroke:none" />
         <path
   d="m 10677,15558 -5,-15 -23,13 -21,20 -15,20 -13,23 -7,23 -5,23 -5,18 5,15 h 15 v -15 -18 l 5,-18 8,-23 12,-18 16,-20 15,-15 18,-13 -5,-15 5,15 5,-5 v -5 l -3,-5 h -7 z"
   id="path96"
   inkscape:connector-curvature="0"
   style="fill:#000000;stroke:none" />
         <path
   d="m 10572,15611 16,3 7,-10 8,-10 8,-8 10,-8 13,-5 15,-7 12,-3 16,-5 -5,-15 -16,5 -12,2 -16,8 -12,5 -16,8 -12,13 -8,10 -8,15 16,2 -16,-2 v 8 l 6,2 h 7 l 3,-5 z"
   id="path98"
   inkscape:connector-curvature="0"
   style="fill:#000000;stroke:none" />
         <path
   d="m 10682,15489 -3,-15 -25,10 -18,16 -18,17 -18,21 -10,20 -10,18 -5,20 -3,15 h 16 l 2,-15 5,-15 11,-18 10,-15 12,-20 18,-13 18,-15 20,-11 -2,-15 2,15 5,-5 v -5 l -2,-5 h -8 z"
   id="path100"
   inkscape:connector-curvature="0"
   style="fill:#000000;stroke:none" />
         <path
   d="m 10562,15520 13,8 13,-11 15,-7 13,-10 15,-6 13,-5 12,-2 h 13 l 13,2 v -15 l -13,-2 h -13 l -17,2 -13,5 -15,5 -18,10 -15,8 -13,15 13,8 -13,-8 v 5 l 2,3 3,3 h 5 z"
   id="path102"
   inkscape:connector-curvature="0"
   style="fill:#000000;stroke:none" />
         <path
   d="m 10738,15380 v -15 l -41,12 -36,16 -27,20 -23,23 -21,23 -12,23 -11,20 -5,18 16,5 5,-18 10,-20 13,-18 15,-23 23,-18 28,-20 30,-15 36,-13 v -15 15 l 5,-3 2,-5 -2,-5 -5,-2 z"
   id="path104"
   inkscape:connector-curvature="0"
   style="fill:#000000;stroke:none" />
         <path
   d="m 10499,15589 18,2 28,-69 30,-50 28,-41 31,-26 27,-17 28,-8 h 26 23 v -15 l -23,-5 -26,5 -33,7 -33,18 -30,31 -33,40 -31,56 -28,69 18,3 -18,-3 v 8 l 5,2 h 8 l 3,-5 z"
   id="path106"
   inkscape:connector-curvature="0"
   style="fill:#000000;stroke:none" />
         <path
   d="m 10593,15357 -8,-13 -15,21 -15,30 -13,36 -13,35 -12,39 -8,38 -5,28 -5,18 h 20 v -18 l 5,-28 8,-33 13,-38 12,-36 13,-36 15,-25 10,-20 -7,-13 7,13 3,-6 -3,-5 -5,-2 -5,2 z"
   id="path108"
   inkscape:connector-curvature="0"
   style="fill:#000000;stroke:none" />
         <path
   d="m 10509,15683 8,5 -26,-69 -2,-63 2,-59 18,-43 23,-38 23,-31 23,-18 15,-10 -5,-15 -21,10 -22,23 -28,30 -23,44 -18,48 -8,59 8,63 25,74 8,5 -8,-5 5,5 h 5 l 6,-3 v -7 z"
   id="path110"
   inkscape:connector-curvature="0"
   style="fill:#000000;stroke:none" />
         <path
   d="m 10588,15698 7,-8 -86,-7 v 15 l 86,8 8,-8 -8,8 5,-3 3,-5 -3,-5 -5,-3 z"
   id="path112"
   inkscape:connector-curvature="0"
   style="fill:#000000;stroke:none" />
         <path
   d="m 9972,15222 -17,33 -11,54 -2,63 7,64 18,53 28,33 41,3 56,-38 13,7 10,3 10,3 h 13 l 7,-3 10,-5 11,-8 7,-7 -7,-16 -5,-25 v -36 l 5,-38 10,-41 18,-40 25,-36 31,-28 -28,13 -26,20 -25,26 -21,28 -20,33 -15,33 -13,33 -10,35 -3,-48 3,-61 10,-71 15,-79 26,-79 35,-74 46,-63 56,-51 -46,28 -48,46 -48,58 -44,66 -38,77 -28,76 -15,79 -3,76 -17,-43 -13,-54 -10,-53 z"
   id="path114"
   inkscape:connector-curvature="0"
   style="fill:#26f200;stroke:none" />
         <path
   d="m 10097,15479 -10,3 -54,35 -35,-2 -23,-28 -18,-51 -8,-64 3,-63 10,-51 15,-31 -10,-10 -20,36 -10,56 -3,63 8,64 18,56 33,38 45,3 59,-41 -10,2 10,-2 2,-5 -2,-5 -5,-3 -5,3 z"
   id="path116"
   inkscape:connector-curvature="0"
   style="fill:#000000;stroke:none" />
         <path
   d="m 10168,15484 v -12 l -7,5 -11,7 -7,5 -5,3 h -13 l -10,-3 -8,-2 -10,-8 -10,15 15,8 13,3 10,2 h 13 l 10,-2 13,-5 10,-8 7,-10 v -13 13 l 3,-5 -3,-5 -5,-3 -5,3 z"
   id="path118"
   inkscape:connector-curvature="0"
   style="fill:#000000;stroke:none" />
         <path
   d="m 10252,15225 -8,-15 -33,30 -25,38 -18,41 -10,43 -5,38 v 36 l 5,28 10,20 10,-15 -5,-10 -5,-23 v -36 l 5,-38 10,-38 18,-41 26,-33 28,-25 -8,-15 8,15 5,-5 -3,-8 -5,-2 h -8 z"
   id="path120"
   inkscape:connector-curvature="0"
   style="fill:#000000;stroke:none" />
         <path
   d="m 10084,15438 h 15 l 11,-33 12,-33 16,-33 20,-30 20,-28 23,-26 26,-18 25,-12 -5,-15 -31,12 -25,23 -28,26 -20,28 -21,35 -15,33 -13,33 -10,38 h 15 -15 l 3,6 5,2 5,-2 2,-6 z"
   id="path122"
   inkscape:connector-curvature="0"
   style="fill:#000000;stroke:none" />
         <path
   d="m 10283,14919 -8,-15 -56,54 -48,63 -36,77 -25,81 -16,79 -10,71 -5,61 5,48 h 15 v -48 -61 l 11,-71 15,-79 25,-76 36,-72 43,-63 56,-49 -8,-15 8,15 5,-5 -2,-7 -5,-3 h -8 z"
   id="path124"
   inkscape:connector-curvature="0"
   style="fill:#000000;stroke:none" />
         <path
   d="m 10003,15421 15,-3 3,-76 15,-77 28,-76 38,-76 43,-64 46,-58 48,-44 44,-28 -6,-15 -48,28 -48,49 -51,58 -43,69 -38,76 -28,76 -16,82 -2,76 15,-2 -15,2 2,5 5,3 6,-3 2,-5 z"
   id="path126"
   inkscape:connector-curvature="0"
   style="fill:#000000;stroke:none" />
         <path
   d="m 9977,15227 -12,-5 -3,46 10,53 13,56 18,44 15,-5 -18,-44 -12,-51 -11,-53 3,-46 -13,-5 13,5 -3,-5 -5,-2 -5,2 -2,5 z"
   id="path128"
   inkscape:connector-curvature="0"
   style="fill:#000000;stroke:none" />
         <path
   d="m 11414,14828 -20,28 -15,33 -13,30 -10,34 -5,30 -5,28 v 28 l 2,23 8,20 12,18 21,13 23,10 25,3 26,-3 25,-13 23,-20 5,10 8,10 10,5 10,3 h 13 l 12,-5 13,-8 10,-10 21,-43 17,-71 5,-87 -15,-89 -2,36 -8,38 -10,38 -13,38 -13,38 -15,31 -15,23 -13,15 -5,-36 3,-43 2,-51 10,-56 13,-56 20,-56 26,-56 30,-48 -38,30 -35,41 -33,51 -28,54 -26,58 -18,53 -12,51 -5,44 -21,-44 -7,-58 -3,-61 z"
   id="path130"
   inkscape:connector-curvature="0"
   style="fill:#26f200;stroke:none" />
         <path
   d="m 11356,15062 v 0 -23 l -3,-28 5,-28 5,-30 11,-31 12,-31 16,-30 20,-28 -15,-10 -21,28 -15,35 -13,31 -10,36 -5,30 -5,28 -3,28 5,23 v 0 z"
   id="path132"
   inkscape:connector-curvature="0"
   style="fill:#000000;stroke:none" />
         <path
   d="m 11518,15087 -15,-2 -20,18 -23,12 h -23 -23 l -23,-10 -17,-10 -11,-15 -7,-18 h -16 l 8,23 15,20 23,15 23,11 28,5 28,-5 28,-13 25,-23 -15,-3 15,3 v -8 l -2,-5 -8,-2 -5,5 z"
   id="path134"
   inkscape:connector-curvature="0"
   style="fill:#000000;stroke:none" />
         <path
   d="m 11585,15090 v 0 l -8,8 -10,7 -10,5 h -13 l -8,-2 -7,-5 -5,-8 -6,-8 -15,5 5,13 10,13 13,5 13,3 h 13 l 15,-6 15,-7 13,-13 v 0 z"
   id="path136"
   inkscape:connector-curvature="0"
   style="fill:#000000;stroke:none" />
         <path
   d="m 11630,14805 -17,3 15,86 -5,87 -18,68 -20,41 15,10 20,-46 18,-73 5,-87 -15,-92 -18,3 18,-3 -3,-5 h -7 l -5,3 v 8 z"
   id="path138"
   inkscape:connector-curvature="0"
   style="fill:#000000;stroke:none" />
         <path
   d="m 11524,15062 12,8 16,-18 15,-26 15,-30 13,-38 13,-39 10,-40 7,-38 5,-36 h -20 v 36 l -8,38 -10,35 -12,39 -13,38 -15,30 -16,21 -10,12 13,8 -13,-8 -5,5 3,5 5,6 h 7 z"
   id="path140"
   inkscape:connector-curvature="0"
   style="fill:#000000;stroke:none" />
         <path
   d="m 11635,14668 -12,-13 -31,51 -25,56 -21,56 -12,58 -10,56 -3,51 -5,43 8,36 h 15 l -3,-36 v -43 l 3,-51 10,-56 13,-53 20,-56 26,-56 30,-46 -13,-13 13,13 v -8 l -3,-5 -7,-2 -5,5 z"
   id="path142"
   inkscape:connector-curvature="0"
   style="fill:#000000;stroke:none" />
         <path
   d="m 11427,15047 15,-5 5,-44 13,-48 18,-53 25,-59 28,-51 33,-51 33,-40 38,-28 -10,-16 -38,33 -38,41 -33,51 -28,56 -25,58 -18,54 -13,53 -5,44 15,-5 -15,5 2,5 6,2 5,-2 2,-5 z"
   id="path144"
   inkscape:connector-curvature="0"
   style="fill:#000000;stroke:none" />
         <path
   d="m 11422,14833 -15,-8 -11,54 3,61 8,61 20,46 15,-10 -20,-41 -8,-56 -2,-61 10,-49 -15,-7 15,7 v -7 l -5,-3 h -5 l -5,5 z"
   id="path146"
   inkscape:connector-curvature="0"
   style="fill:#000000;stroke:none" />
        </g>
       </g>
      </g>
     </g>
    </g>
   </g>
  </g>
 </g>
</svg>