<?xml version="1.0" encoding="UTF-8" standalone="no"?>
<svg
   xmlns:ooo="http://xml.openoffice.org/svg/export"
   xmlns:dc="http://purl.org/dc/elements/1.1/"
   xmlns:cc="http://creativecommons.org/ns#"
   xmlns:rdf="http://www.w3.org/1999/02/22-rdf-syntax-ns#"
   xmlns:svg="http://www.w3.org/2000/svg"
   xmlns="http://www.w3.org/2000/svg"
   xmlns:sodipodi="http://sodipodi.sourceforge.net/DTD/sodipodi-0.dtd"
   xmlns:inkscape="http://www.inkscape.org/namespaces/inkscape"
   version="1.2"
   width="23.52mm"
   height="23.799999mm"
   viewBox="0 0 2352 2379.9999"
   preserveAspectRatio="xMidYMid"
   xml:space="preserve"
   id="svg79"
   sodipodi:docname="musicsym.svg"
   style="fill-rule:evenodd;stroke-width:28.22200012;stroke-linejoin:round"
   inkscape:version="0.92.5 (2060ec1f9f, 2020-04-08)"><metadata
   id="metadata83"><rdf:RDF><cc:Work
       rdf:about=""><dc:format>image/svg+xml</dc:format><dc:type
         rdf:resource="http://purl.org/dc/dcmitype/StillImage" /></cc:Work></rdf:RDF></metadata><sodipodi:namedview
   pagecolor="#ffffff"
   bordercolor="#666666"
   borderopacity="1"
   objecttolerance="10"
   gridtolerance="10"
   guidetolerance="10"
   inkscape:pageopacity="0"
   inkscape:pageshadow="2"
   inkscape:window-width="664"
   inkscape:window-height="487"
   id="namedview81"
   showgrid="false"
   inkscape:zoom="0.2102413"
   inkscape:cx="44.447245"
   inkscape:cy="44.976376"
   inkscape:window-x="0"
   inkscape:window-y="0"
   inkscape:window-maximized="0"
   inkscape:current-layer="svg79" />
 <defs
   class="ClipPathGroup"
   id="defs8">
  <clipPath
   id="presentation_clip_path"
   clipPathUnits="userSpaceOnUse">
   <rect
   x="0"
   y="0"
   width="21000"
   height="29700"
   id="rect2" />
  </clipPath>
  <clipPath
   id="presentation_clip_path_shrink"
   clipPathUnits="userSpaceOnUse">
   <rect
   x="21"
   y="29"
   width="20958"
   height="29641"
   id="rect5" />
  </clipPath>
 </defs>
 <defs
   class="TextShapeIndex"
   id="defs12">
  <g
   ooo:slide="id1"
   ooo:id-list="id3"
   id="g10" />
 </defs>
 <defs
   class="EmbeddedBulletChars"
   id="defs44">
  <g
   id="bullet-char-template-57356"
   transform="matrix(4.8828125e-4,0,0,-4.8828125e-4,0,0)">
   <path
   d="M 580,1141 1163,571 580,0 -4,571 Z"
   id="path14"
   inkscape:connector-curvature="0" />
  </g>
  <g
   id="bullet-char-template-57354"
   transform="matrix(4.8828125e-4,0,0,-4.8828125e-4,0,0)">
   <path
   d="M 8,1128 H 1137 V 0 H 8 Z"
   id="path17"
   inkscape:connector-curvature="0" />
  </g>
  <g
   id="bullet-char-template-10146"
   transform="matrix(4.8828125e-4,0,0,-4.8828125e-4,0,0)">
   <path
   d="M 174,0 602,739 174,1481 1456,739 Z M 1358,739 309,1346 659,739 Z"
   id="path20"
   inkscape:connector-curvature="0" />
  </g>
  <g
   id="bullet-char-template-10132"
   transform="matrix(4.8828125e-4,0,0,-4.8828125e-4,0,0)">
   <path
   d="M 2015,739 1276,0 H 717 l 543,543 H 174 v 393 h 1086 l -543,545 h 557 z"
   id="path23"
   inkscape:connector-curvature="0" />
  </g>
  <g
   id="bullet-char-template-10007"
   transform="matrix(4.8828125e-4,0,0,-4.8828125e-4,0,0)">
   <path
   d="m 0,-2 c -7,16 -16,29 -25,39 l 381,530 c -94,256 -141,385 -141,387 0,25 13,38 40,38 9,0 21,-2 34,-5 21,4 42,12 65,25 l 27,-13 111,-251 280,301 64,-25 24,25 c 21,-10 41,-24 62,-43 C 886,937 835,863 770,784 769,783 710,716 594,584 L 774,223 c 0,-27 -21,-55 -63,-84 l 16,-20 C 717,90 699,76 672,76 641,76 570,178 457,381 L 164,-76 c -22,-34 -53,-51 -92,-51 -42,0 -63,17 -64,51 -7,9 -10,24 -10,44 0,9 1,19 2,30 z"
   id="path26"
   inkscape:connector-curvature="0" />
  </g>
  <g
   id="bullet-char-template-10004"
   transform="matrix(4.8828125e-4,0,0,-4.8828125e-4,0,0)">
   <path
   d="M 285,-33 C 182,-33 111,30 74,156 52,228 41,333 41,471 c 0,78 14,145 41,201 34,71 87,106 158,106 53,0 88,-31 106,-94 l 23,-176 c 8,-64 28,-97 59,-98 l 735,706 c 11,11 33,17 66,17 42,0 63,-15 63,-46 V 965 c 0,-36 -10,-64 -30,-84 L 442,47 C 390,-6 338,-33 285,-33 Z"
   id="path29"
   inkscape:connector-curvature="0" />
  </g>
  <g
   id="bullet-char-template-9679"
   transform="matrix(4.8828125e-4,0,0,-4.8828125e-4,0,0)">
   <path
   d="M 813,0 C 632,0 489,54 383,161 276,268 223,411 223,592 c 0,181 53,324 160,431 106,107 249,161 430,161 179,0 323,-54 432,-161 108,-107 162,-251 162,-431 0,-180 -54,-324 -162,-431 C 1136,54 992,0 813,0 Z"
   id="path32"
   inkscape:connector-curvature="0" />
  </g>
  <g
   id="bullet-char-template-8226"
   transform="matrix(4.8828125e-4,0,0,-4.8828125e-4,0,0)">
   <path
   d="m 346,457 c -73,0 -137,26 -191,78 -54,51 -81,114 -81,188 0,73 27,136 81,188 54,52 118,78 191,78 73,0 134,-26 185,-79 51,-51 77,-114 77,-187 0,-75 -25,-137 -76,-188 -50,-52 -112,-78 -186,-78 z"
   id="path35"
   inkscape:connector-curvature="0" />
  </g>
  <g
   id="bullet-char-template-8211"
   transform="matrix(4.8828125e-4,0,0,-4.8828125e-4,0,0)">
   <path
   d="M -4,459 H 1135 V 606 H -4 Z"
   id="path38"
   inkscape:connector-curvature="0" />
  </g>
  <g
   id="bullet-char-template-61548"
   transform="matrix(4.8828125e-4,0,0,-4.8828125e-4,0,0)">
   <path
   d="m 173,740 c 0,163 58,303 173,419 116,115 255,173 419,173 163,0 302,-58 418,-173 116,-116 174,-256 174,-419 0,-163 -58,-303 -174,-418 C 1067,206 928,148 765,148 601,148 462,206 346,322 231,437 173,577 173,740 Z"
   id="path41"
   inkscape:connector-curvature="0" />
  </g>
 </defs>
 <g
   id="g49"
   transform="translate(-9324,-13660)">
  <g
   id="id2"
   class="Master_Slide">
   <g
   id="bg-id2"
   class="Background" />
   <g
   id="bo-id2"
   class="BackgroundObjects" />
  </g>
 </g>
 <g
   class="SlideGroup"
   id="g77"
   transform="translate(-9324,-13660)">
  <g
   id="g75">
   <g
   id="container-id1">
    <g
   id="id1"
   class="Slide"
   clip-path="url(#presentation_clip_path)">
     <g
   class="Page"
   id="g71">
      <g
   class="Graphic"
   id="g69">
       <g
   id="id3">
        <rect
   class="BoundingBox"
   x="9324"
   y="13660"
   width="2352"
   height="2380"
   id="rect51"
   style="fill:none;stroke:none" />
        <defs
   id="defs56">
         <clipPath
   id="clip_path_1"
   clipPathUnits="userSpaceOnUse">
          <path
   d="m 9324,13660 h 2351 v 2379 H 9324 Z"
   id="path53"
   inkscape:connector-curvature="0" />
         </clipPath>
        </defs>
        <g
   clip-path="url(#clip_path_1)"
   id="g66">
         <path
   d="m 10852,14433 74,-732 114,-8 -20,137 48,41 49,53 40,64 26,74 v 84 l -28,89 -66,96 -112,99 -21,-17 33,-41 39,-53 35,-61 28,-69 13,-71 -8,-74 -35,-69 -69,-66 -102,547 -2,8 -10,20 -18,30 -26,33 -35,31 -41,25 -53,16 h -61 l -61,-16 -44,-30 -30,-36 -18,-40 -8,-41 3,-41 13,-33 20,-25 31,-21 38,-17 45,-13 51,-5 49,7 48,23 41,41 z"
   id="path58"
   inkscape:connector-curvature="0"
   style="fill:#000000;stroke:none" />
         <path
   d="m 10544,15142 1114,-549 18,71 -71,54 35,541 v 5 18 l -2,26 -5,30 -10,33 -18,33 -28,28 -38,26 -44,15 -43,3 -38,-11 -33,-17 -28,-26 -15,-35 -5,-39 7,-40 21,-38 23,-28 30,-23 33,-13 33,-3 38,3 38,13 41,20 -130,-455 -340,221 53,488 v 5 18 l -2,26 -8,30 -13,33 -18,33 -27,28 -39,23 -35,13 -38,5 h -38 l -34,-10 -25,-18 -18,-31 -7,-40 7,-56 15,-31 28,-25 36,-20 41,-16 43,-7 38,-3 31,5 22,8 -86,-415 -389,298 99,397 v 10 l 3,23 v 35 l -5,43 -16,44 -23,43 -38,35 -56,26 -48,13 -43,7 h -38 l -33,-7 -26,-18 -20,-31 -10,-43 -3,-56 13,-48 25,-33 41,-26 43,-12 49,-5 40,2 36,8 20,12 z"
   id="path60"
   inkscape:connector-curvature="0"
   style="fill:#000000;stroke:none" />
         <path
   d="m 9515,13736 63,18 59,41 46,58 35,69 23,76 8,74 -8,66 -25,51 -72,89 -68,89 -64,94 -53,97 -41,99 -25,104 -5,107 17,109 13,41 18,38 23,36 25,35 28,33 33,31 36,28 38,23 43,22 43,18 46,16 48,10 51,7 51,3 54,-3 53,-7 13,35 12,41 11,38 5,41 v 35 l -8,33 -15,26 -23,18 -26,7 h -27 l -26,-5 -23,-12 -18,-18 -10,-21 v -25 l 10,-31 18,18 23,3 20,-10 18,-21 10,-23 v -28 l -15,-28 -33,-22 -36,-11 -33,-2 -30,10 -28,15 -23,23 -15,26 -8,30 -2,31 10,38 20,35 28,33 36,28 38,23 43,10 48,3 46,-10 41,-23 33,-31 23,-38 12,-43 3,-51 -5,-56 -15,-58 -26,-61 61,-33 64,-49 56,-61 51,-68 35,-79 18,-84 -2,-87 -28,-89 -23,-40 -23,-36 -28,-33 -31,-28 -30,-25 -36,-23 -33,-15 -35,-16 -39,-7 -35,-5 h -38 l -38,2 -36,10 -38,13 -36,15 -33,23 -74,74 -38,86 -10,87 18,86 38,79 61,61 76,43 92,16 43,-5 38,-16 36,-23 28,-33 20,-38 13,-43 2,-46 -7,-48 -23,-46 -33,-35 -43,-23 -46,-5 -43,10 -39,33 -22,56 -8,81 58,-5 3,-25 3,-23 7,-21 8,-15 10,-10 13,-10 15,-5 h 18 l 17,2 18,10 16,13 12,18 8,20 2,26 -2,25 -8,28 -12,23 -18,20 -21,16 -22,7 -26,5 -30,-2 -31,-10 -36,-18 -27,-23 -23,-28 -18,-33 -10,-38 -3,-41 5,-43 18,-43 28,-41 38,-36 46,-23 51,-15 h 53 l 54,13 50,28 49,43 43,61 23,71 v 74 l -23,74 -36,66 -48,61 -53,48 -59,33 -53,18 -26,3 h -30 l -31,-3 -30,-2 -33,-8 -33,-10 -31,-16 -33,-15 -30,-20 -31,-23 -25,-28 -26,-30 -23,-36 -17,-38 -16,-43 -10,-49 -8,-96 11,-94 23,-84 33,-79 38,-69 40,-58 36,-51 33,-38 31,-46 22,-51 13,-56 5,-58 v -59 l -10,-58 -15,-54 -21,-46 -27,-43 -34,-43 -35,-41 -41,-33 -46,-28 -50,-20 -56,-10 -61,2 z"
   id="path62"
   inkscape:connector-curvature="0"
   style="fill:#000000;stroke:none" />
         <path
   d="m 9449,13680 551,1546 59,-20 -544,-1470 z"
   id="path64"
   inkscape:connector-curvature="0"
   style="fill:#000000;stroke:none" />
        </g>
       </g>
      </g>
     </g>
    </g>
   </g>
  </g>
 </g>
</svg>