<?xml version="1.0" encoding="UTF-8" standalone="no"?>
<svg
   xmlns:ooo="http://xml.openoffice.org/svg/export"
   xmlns:dc="http://purl.org/dc/elements/1.1/"
   xmlns:cc="http://creativecommons.org/ns#"
   xmlns:rdf="http://www.w3.org/1999/02/22-rdf-syntax-ns#"
   xmlns:svg="http://www.w3.org/2000/svg"
   xmlns="http://www.w3.org/2000/svg"
   xmlns:sodipodi="http://sodipodi.sourceforge.net/DTD/sodipodi-0.dtd"
   xmlns:inkscape="http://www.inkscape.org/namespaces/inkscape"
   version="1.2"
   width="26.389999mm"
   height="37.34mm"
   viewBox="0 0 2638.9999 3734"
   preserveAspectRatio="xMidYMid"
   xml:space="preserve"
   id="svg226"
   sodipodi:docname="mussels.svg"
   style="fill-rule:evenodd;stroke-width:28.22200012;stroke-linejoin:round"
   inkscape:version="0.92.5 (2060ec1f9f, 2020-04-08)"><metadata
   id="metadata230"><rdf:RDF><cc:Work
       rdf:about=""><dc:format>image/svg+xml</dc:format><dc:type
         rdf:resource="http://purl.org/dc/dcmitype/StillImage" /></cc:Work></rdf:RDF></metadata><sodipodi:namedview
   pagecolor="#ffffff"
   bordercolor="#666666"
   borderopacity="1"
   objecttolerance="10"
   gridtolerance="10"
   guidetolerance="10"
   inkscape:pageopacity="0"
   inkscape:pageshadow="2"
   inkscape:window-width="664"
   inkscape:window-height="487"
   id="namedview228"
   showgrid="false"
   inkscape:zoom="0.2102413"
   inkscape:cx="49.889765"
   inkscape:cy="70.563778"
   inkscape:window-x="0"
   inkscape:window-y="0"
   inkscape:window-maximized="0"
   inkscape:current-layer="svg226" />
 <defs
   class="ClipPathGroup"
   id="defs8">
  <clipPath
   id="presentation_clip_path"
   clipPathUnits="userSpaceOnUse">
   <rect
   x="0"
   y="0"
   width="21000"
   height="29700"
   id="rect2" />
  </clipPath>
  <clipPath
   id="presentation_clip_path_shrink"
   clipPathUnits="userSpaceOnUse">
   <rect
   x="21"
   y="29"
   width="20958"
   height="29641"
   id="rect5" />
  </clipPath>
 </defs>
 <defs
   class="TextShapeIndex"
   id="defs12">
  <g
   ooo:slide="id1"
   ooo:id-list="id3"
   id="g10" />
 </defs>
 <defs
   class="EmbeddedBulletChars"
   id="defs44">
  <g
   id="bullet-char-template-57356"
   transform="matrix(4.8828125e-4,0,0,-4.8828125e-4,0,0)">
   <path
   d="M 580,1141 1163,571 580,0 -4,571 Z"
   id="path14"
   inkscape:connector-curvature="0" />
  </g>
  <g
   id="bullet-char-template-57354"
   transform="matrix(4.8828125e-4,0,0,-4.8828125e-4,0,0)">
   <path
   d="M 8,1128 H 1137 V 0 H 8 Z"
   id="path17"
   inkscape:connector-curvature="0" />
  </g>
  <g
   id="bullet-char-template-10146"
   transform="matrix(4.8828125e-4,0,0,-4.8828125e-4,0,0)">
   <path
   d="M 174,0 602,739 174,1481 1456,739 Z M 1358,739 309,1346 659,739 Z"
   id="path20"
   inkscape:connector-curvature="0" />
  </g>
  <g
   id="bullet-char-template-10132"
   transform="matrix(4.8828125e-4,0,0,-4.8828125e-4,0,0)">
   <path
   d="M 2015,739 1276,0 H 717 l 543,543 H 174 v 393 h 1086 l -543,545 h 557 z"
   id="path23"
   inkscape:connector-curvature="0" />
  </g>
  <g
   id="bullet-char-template-10007"
   transform="matrix(4.8828125e-4,0,0,-4.8828125e-4,0,0)">
   <path
   d="m 0,-2 c -7,16 -16,29 -25,39 l 381,530 c -94,256 -141,385 -141,387 0,25 13,38 40,38 9,0 21,-2 34,-5 21,4 42,12 65,25 l 27,-13 111,-251 280,301 64,-25 24,25 c 21,-10 41,-24 62,-43 C 886,937 835,863 770,784 769,783 710,716 594,584 L 774,223 c 0,-27 -21,-55 -63,-84 l 16,-20 C 717,90 699,76 672,76 641,76 570,178 457,381 L 164,-76 c -22,-34 -53,-51 -92,-51 -42,0 -63,17 -64,51 -7,9 -10,24 -10,44 0,9 1,19 2,30 z"
   id="path26"
   inkscape:connector-curvature="0" />
  </g>
  <g
   id="bullet-char-template-10004"
   transform="matrix(4.8828125e-4,0,0,-4.8828125e-4,0,0)">
   <path
   d="M 285,-33 C 182,-33 111,30 74,156 52,228 41,333 41,471 c 0,78 14,145 41,201 34,71 87,106 158,106 53,0 88,-31 106,-94 l 23,-176 c 8,-64 28,-97 59,-98 l 735,706 c 11,11 33,17 66,17 42,0 63,-15 63,-46 V 965 c 0,-36 -10,-64 -30,-84 L 442,47 C 390,-6 338,-33 285,-33 Z"
   id="path29"
   inkscape:connector-curvature="0" />
  </g>
  <g
   id="bullet-char-template-9679"
   transform="matrix(4.8828125e-4,0,0,-4.8828125e-4,0,0)">
   <path
   d="M 813,0 C 632,0 489,54 383,161 276,268 223,411 223,592 c 0,181 53,324 160,431 106,107 249,161 430,161 179,0 323,-54 432,-161 108,-107 162,-251 162,-431 0,-180 -54,-324 -162,-431 C 1136,54 992,0 813,0 Z"
   id="path32"
   inkscape:connector-curvature="0" />
  </g>
  <g
   id="bullet-char-template-8226"
   transform="matrix(4.8828125e-4,0,0,-4.8828125e-4,0,0)">
   <path
   d="m 346,457 c -73,0 -137,26 -191,78 -54,51 -81,114 -81,188 0,73 27,136 81,188 54,52 118,78 191,78 73,0 134,-26 185,-79 51,-51 77,-114 77,-187 0,-75 -25,-137 -76,-188 -50,-52 -112,-78 -186,-78 z"
   id="path35"
   inkscape:connector-curvature="0" />
  </g>
  <g
   id="bullet-char-template-8211"
   transform="matrix(4.8828125e-4,0,0,-4.8828125e-4,0,0)">
   <path
   d="M -4,459 H 1135 V 606 H -4 Z"
   id="path38"
   inkscape:connector-curvature="0" />
  </g>
  <g
   id="bullet-char-template-61548"
   transform="matrix(4.8828125e-4,0,0,-4.8828125e-4,0,0)">
   <path
   d="m 173,740 c 0,163 58,303 173,419 116,115 255,173 419,173 163,0 302,-58 418,-173 116,-116 174,-256 174,-419 0,-163 -58,-303 -174,-418 C 1067,206 928,148 765,148 601,148 462,206 346,322 231,437 173,577 173,740 Z"
   id="path41"
   inkscape:connector-curvature="0" />
  </g>
 </defs>
 <g
   id="g49"
   transform="translate(-9180,-12983)">
  <g
   id="id2"
   class="Master_Slide">
   <g
   id="bg-id2"
   class="Background" />
   <g
   id="bo-id2"
   class="BackgroundObjects" />
  </g>
 </g>
 <g
   class="SlideGroup"
   id="g224"
   transform="translate(-9180,-12983)">
  <g
   id="g222">
   <g
   id="container-id1">
    <g
   id="id1"
   class="Slide"
   clip-path="url(#presentation_clip_path)">
     <g
   class="Page"
   id="g218">
      <g
   class="Graphic"
   id="g216">
       <g
   id="id3">
        <rect
   class="BoundingBox"
   x="9180"
   y="12983"
   width="2639"
   height="3734"
   id="rect51"
   style="fill:none;stroke:none" />
        <path
   d="m 9968,13565 -35,8 -36,7 -36,13 -38,15 -40,18 -39,20 -40,28 -43,31 -41,38 -43,43 -41,51 -43,59 -44,66 -43,76 -40,84 -44,94 -15,40 -18,51 -17,61 -18,69 -16,71 -10,74 -5,71 3,69 7,66 8,68 10,66 21,64 27,58 39,51 56,41 71,25 71,13 h 51 l 35,-8 26,-12 15,-15 10,-18 10,-16 11,-12 5,10 5,13 10,17 10,18 15,21 16,15 15,15 20,8 21,10 22,10 28,13 33,12 36,11 36,7 40,8 h 41 l 43,-3 41,-10 43,-18 43,-25 41,-33 41,-43 38,-56 35,-66 54,-145 30,-137 5,-125 -7,-117 -21,-99 -25,-87 -23,-68 -20,-48 -26,-128 -45,-116 -56,-107 -61,-94 -64,-77 -61,-58 -48,-38 z"
   id="path53"
   inkscape:connector-curvature="0"
   style="fill:#ffffff;stroke:none" />
        <path
   d="m 9933,13624 -26,2 -28,8 -25,10 -28,15 -28,18 -28,20 -31,21 -33,22 -61,49 -58,53 -54,61 -48,69 -46,76 -43,81 -43,89 -38,97 -16,41 -15,48 -18,56 -15,61 -15,66 -8,66 -5,69 3,66 10,63 15,64 23,61 25,56 34,51 40,40 43,33 49,21 40,10 h 41 l 36,-3 33,-10 30,-13 23,-20 15,-23 11,-25 -16,-59 -15,-76 -15,-89 -10,-91 -11,-94 -7,-92 -3,-79 3,-66 18,-99 28,-109 38,-115 45,-114 49,-112 48,-104 46,-94 z"
   id="path55"
   inkscape:connector-curvature="0"
   style="fill:#007284;stroke:none" />
        <path
   d="m 9694,15093 -54,23 -53,7 -54,-7 -50,-21 -46,-30 -38,-38 -33,-46 -21,-53 -10,-51 -5,-59 3,-63 7,-74 10,-76 13,-84 18,-87 20,-91 26,-87 28,-78 33,-66 33,-59 30,-48 31,-43 25,-36 20,-30 23,-31 31,-33 38,-33 43,-36 43,-30 41,-28 33,-20 28,-16 v 3 l -41,79 -43,91 -46,99 -43,104 -40,107 -33,104 -26,100 -15,91 -3,66 3,79 7,92 11,94 10,91 15,89 15,76 z"
   id="path57"
   inkscape:connector-curvature="0"
   style="fill:#ffffff;stroke:none" />
        <path
   d="m 9907,13669 -20,10 -23,11 -26,10 -27,15 -31,23 -31,30 -35,41 -38,56 -21,31 -25,35 -31,43 -30,49 -33,58 -31,66 -30,76 -23,87 -20,91 -18,89 -13,82 -10,78 -8,72 v 66 l 3,58 8,51 15,43 23,43 33,41 40,36 44,28 45,17 51,3 49,-15 -16,-59 -15,-76 -15,-89 -10,-91 -11,-94 -7,-92 -3,-79 3,-66 15,-91 26,-100 33,-104 40,-107 43,-106 46,-99 43,-92 z"
   id="path59"
   inkscape:connector-curvature="0"
   style="fill:#19bfcc;stroke:none" />
        <path
   d="m 9821,13847 -26,8 -38,13 -43,15 -46,23 -43,28 -36,33 -25,35 -10,43 10,77 20,53 18,43 8,36 -8,15 -15,13 -23,8 -26,7 -22,8 -23,10 -16,13 -5,17 11,18 12,18 13,18 13,15 10,18 10,15 5,15 3,16 -5,35 -18,41 -21,35 -20,26 20,18 18,17 15,18 16,18 12,18 13,18 13,17 10,18 8,-86 15,-132 20,-133 26,-91 15,-38 15,-56 21,-64 17,-71 21,-71 20,-66 20,-59 z"
   id="path61"
   inkscape:connector-curvature="0"
   style="fill:#ffffff;stroke:none" />
        <path
   d="m 9866,13913 -28,8 -35,13 -46,15 -46,23 -43,28 -35,33 -26,35 -10,44 10,76 20,53 18,43 8,36 -8,15 -15,13 -20,8 -26,10 -23,7 -23,11 -15,10 -5,18 23,35 23,33 20,33 8,31 -5,35 -15,41 -21,36 -20,25 20,18 15,18 18,17 15,18 13,18 13,18 10,18 10,17 5,-53 16,-97 22,-127 28,-145 33,-150 36,-139 41,-117 z"
   id="path63"
   inkscape:connector-curvature="0"
   style="fill:#f4e85b;stroke:none" />
        <path
   d="m 9620,14447 15,-91 26,-100 33,-104 40,-107 43,-104 46,-99 43,-91 41,-79 10,-23 21,-31 17,-33 13,-20 64,15 56,38 50,59 44,79 38,96 35,117 33,132 34,148 22,74 28,83 28,94 23,102 13,109 -5,117 -28,122 -56,127 -33,54 -36,46 -38,35 -41,28 -40,21 -41,15 -41,7 -40,3 h -41 l -38,-5 -38,-10 -36,-10 -33,-13 -28,-15 -28,-16 -23,-15 -40,-51 -33,-81 -28,-102 -23,-117 -15,-122 -11,-112 -5,-99 z"
   id="path65"
   inkscape:connector-curvature="0"
   style="fill:#007284;stroke:none" />
        <path
   d="m 9790,14643 21,25 27,26 34,23 38,17 40,16 41,7 41,-2 38,-10 33,-18 25,-16 21,-15 17,-18 11,-20 10,-23 5,-25 5,-31 -10,26 -13,23 -13,17 -15,16 -18,12 -17,11 -21,7 -25,8 -36,5 -35,2 h -36 l -33,-5 -33,-7 -33,-13 -33,-18 z"
   id="path67"
   inkscape:connector-curvature="0"
   style="fill:#ffffff;stroke:none" />
        <path
   d="m 9872,14099 7,25 10,38 16,41 22,36 31,28 41,10 56,-15 71,-46 15,-13 13,-15 12,-18 13,-18 8,-20 7,-20 5,-18 v -18 l -17,38 -26,38 -35,33 -38,23 -46,8 -51,-10 -56,-38 z"
   id="path69"
   inkscape:connector-curvature="0"
   style="fill:#ffffff;stroke:none" />
        <path
   d="m 9795,14302 8,33 20,41 31,41 38,40 46,33 56,23 61,3 66,-16 40,-17 33,-21 23,-20 18,-20 13,-18 7,-18 6,-15 2,-13 -20,28 -23,23 -28,18 -31,15 -33,13 -33,5 -33,2 -28,-5 -30,-7 -31,-11 -33,-12 -33,-15 -30,-21 -31,-23 -28,-30 z"
   id="path71"
   inkscape:connector-curvature="0"
   style="fill:#ffffff;stroke:none" />
        <path
   d="m 9734,14831 28,36 33,33 41,30 46,25 45,18 49,5 48,-5 48,-18 46,-30 38,-25 31,-26 23,-25 17,-26 13,-25 10,-31 11,-30 -18,33 -13,23 -10,18 -10,10 -13,10 -13,8 -18,10 -22,12 -33,18 -36,13 -33,8 -33,5 -33,2 -33,-2 -31,-3 -30,-5 -26,-8 -28,-7 -23,-10 -20,-8 -18,-10 -15,-8 -10,-7 z"
   id="path73"
   inkscape:connector-curvature="0"
   style="fill:#ffffff;stroke:none" />
        <path
   d="m 9841,15070 18,28 25,23 33,23 36,15 38,13 38,5 36,-3 30,-10 21,-13 20,-12 20,-13 18,-18 18,-15 18,-16 12,-17 11,-16 -39,36 -38,28 -43,15 -43,5 -48,-2 -54,-10 -58,-18 z"
   id="path75"
   inkscape:connector-curvature="0"
   style="fill:#ffffff;stroke:none" />
        <path
   d="m 9790,14635 23,26 33,20 38,18 46,12 46,8 h 46 l 45,-5 38,-13 28,-15 26,-18 20,-23 15,-22 13,-28 10,-31 5,-30 5,-36 -12,28 -13,25 -15,26 -15,23 -18,20 -18,18 -23,10 -25,8 -28,5 -33,5 -39,5 -40,2 h -43 l -41,-5 -38,-12 z"
   id="path77"
   inkscape:connector-curvature="0"
   style="fill:#19bfcc;stroke:none" />
        <path
   d="m 9859,14076 10,25 18,36 25,36 31,33 40,23 51,2 61,-18 71,-48 31,-41 13,-40 2,-39 3,-30 -38,79 -46,51 -48,28 -51,7 -51,-10 -48,-23 -41,-33 z"
   id="path79"
   inkscape:connector-curvature="0"
   style="fill:#19bfcc;stroke:none" />
        <path
   d="m 9803,14295 10,33 25,38 36,38 46,35 56,28 58,16 h 66 l 66,-23 44,-23 30,-25 26,-23 15,-26 10,-20 8,-20 5,-16 2,-15 -20,23 -23,23 -23,20 -23,18 -28,15 -30,13 -38,8 -44,5 h -43 l -38,-3 -35,-10 -36,-10 -33,-18 -31,-23 -30,-25 z"
   id="path81"
   inkscape:connector-curvature="0"
   style="fill:#19bfcc;stroke:none" />
        <path
   d="m 9701,14772 13,28 15,26 20,20 26,21 28,17 30,16 31,12 33,8 33,8 36,5 h 33 l 33,-3 33,-2 30,-8 26,-13 25,-13 41,-30 33,-28 23,-28 18,-28 12,-30 8,-33 7,-39 8,-40 -20,46 -21,38 -20,35 -18,28 -18,23 -20,20 -20,16 -21,10 -40,15 -38,13 -33,7 -31,3 h -28 l -23,-3 -23,-2 -17,-5 -21,-5 -25,-5 -26,-8 -28,-10 -28,-13 -25,-18 -28,-23 z"
   id="path83"
   inkscape:connector-curvature="0"
   style="fill:#19bfcc;stroke:none" />
        <path
   d="m 9846,15060 15,15 26,20 35,21 41,17 46,16 46,10 h 45 l 44,-13 25,-13 20,-17 21,-18 15,-23 15,-20 10,-21 11,-20 5,-15 -16,20 -15,18 -18,18 -18,12 -22,13 -21,10 -25,10 -26,5 -28,3 -28,3 -30,-3 -31,-3 -33,-7 -35,-10 -36,-13 z"
   id="path85"
   inkscape:connector-curvature="0"
   style="fill:#19bfcc;stroke:none" />
        <path
   d="m 9866,13588 -83,23 -79,35 -71,44 -64,56 -61,61 -53,68 -49,74 -43,79 -38,79 -33,83 -28,84 -23,82 -18,78 -12,79 -11,71 -5,66 -2,54 2,53 5,56 8,54 10,53 15,48 21,48 23,44 25,38 33,33 36,25 40,21 46,10 h 51 l 56,-8 61,-20 2,-3 3,-5 v -2 -5 l -3,-3 -5,-2 h -2 -5 l -99,15 -82,-21 -66,-50 -48,-74 -33,-87 -23,-94 -10,-94 v -86 l 5,-53 7,-64 13,-66 15,-74 21,-79 25,-78 31,-79 33,-82 40,-78 44,-77 50,-71 54,-66 61,-61 66,-51 71,-43 79,-33 v 0 -2 z"
   id="path87"
   inkscape:connector-curvature="0"
   style="fill:#000000;stroke:none" />
        <path
   d="m 9859,13669 -38,18 -36,26 -38,27 -36,34 -33,35 -33,38 -33,38 -28,41 -28,41 -28,40 -23,38 -20,39 -18,33 -15,28 -13,25 -7,20 -38,105 -33,104 -28,107 -18,106 -13,105 v 101 l 13,97 25,91 21,33 25,28 30,28 33,21 39,15 35,8 38,-3 36,-10 v -3 l -8,-5 -7,-5 h -8 -28 l -28,-8 -28,-12 -25,-18 -26,-23 -23,-20 -20,-26 -15,-23 -23,-89 -13,-86 v -86 l 10,-84 13,-87 20,-84 23,-83 23,-87 15,-48 16,-46 18,-43 20,-43 23,-44 25,-40 26,-41 28,-38 28,-38 30,-38 31,-36 33,-35 33,-33 33,-34 35,-33 36,-33 v 0 l -3,-2 z"
   id="path89"
   inkscape:connector-curvature="0"
   style="fill:#000000;stroke:none" />
        <path
   d="m 9788,13840 h -33 l -39,10 -38,20 -40,26 -36,30 -33,31 -25,30 -18,25 -15,39 v 38 l 10,38 15,33 15,33 10,30 v 26 l -15,23 -13,7 -15,13 -20,10 -18,13 -15,15 -10,15 -3,13 5,15 13,16 15,12 15,16 16,15 10,15 5,15 v 18 l -8,18 -18,28 -17,28 -16,28 -12,33 -3,15 8,13 10,13 13,7 17,10 16,8 15,10 10,10 13,23 5,26 2,22 8,18 8,10 7,8 5,3 h 8 l 10,-3 8,-8 2,-10 v -10 l -2,-20 -3,-23 -2,-26 -8,-25 -13,-23 -15,-20 -20,-15 -28,-11 2,-5 8,-17 8,-26 7,-33 v -36 l -7,-40 -21,-43 -35,-44 -8,-15 10,-7 26,-8 33,-8 33,-12 28,-18 18,-28 2,-41 -10,-38 -15,-36 -18,-33 -18,-35 -2,-31 10,-33 25,-33 33,-35 38,-33 38,-31 41,-20 33,-16 5,-5 -2,-7 -3,-8 z"
   id="path91"
   inkscape:connector-curvature="0"
   style="fill:#000000;stroke:none" />
        <path
   d="m 9994,13857 -18,23 2,38 18,33 28,6 28,-56 8,-97 -16,-89 -33,-48 h -33 l -25,23 -20,35 -13,46 -10,48 -8,51 -3,46 3,35 10,61 15,44 23,30 23,21 26,7 23,3 20,-3 15,-5 31,-30 20,-41 15,-54 8,-55 2,-59 -5,-53 -10,-51 -13,-38 -2,-5 -5,-5 h -5 -5 l -5,2 -3,5 -3,3 3,5 15,43 8,59 v 63 l -5,64 -13,56 -23,40 -28,18 -35,-13 -33,-45 -16,-61 -5,-72 5,-66 8,-35 13,-41 15,-28 13,-10 25,43 10,76 v 74 l -12,33 -16,-8 -10,-17 -5,-26 z"
   id="path93"
   inkscape:connector-curvature="0"
   style="fill:#000000;stroke:none" />
        <path
   d="m 9920,13601 41,-8 38,3 33,12 28,18 25,23 20,25 18,23 13,18 2,8 8,5 8,2 10,-2 5,-5 5,-8 v -8 -10 l -10,-30 -20,-36 -28,-35 -39,-31 -40,-20 -43,-8 -46,10 -41,33 -2,5 -3,3 v 5 l 3,5 2,3 5,2 h 3 z"
   id="path95"
   inkscape:connector-curvature="0"
   style="fill:#000000;stroke:none" />
        <path
   d="m 9828,15042 10,56 26,46 38,33 48,23 51,12 h 48 l 46,-10 33,-25 5,-5 5,-8 v -5 -5 l -5,-8 -5,-2 -7,-3 -8,3 -23,10 -30,10 -38,2 -39,-5 -40,-12 -41,-23 -36,-36 -30,-48 h -3 -2 z"
   id="path97"
   inkscape:connector-curvature="0"
   style="fill:#000000;stroke:none" />
        <path
   d="m 10375,14249 36,96 20,115 10,119 v 120 l -13,112 -23,96 -30,76 -38,44 -5,7 -3,10 5,13 8,8 10,5 h 10 l 10,-5 8,-5 48,-59 36,-89 23,-106 10,-122 -3,-125 -17,-125 -33,-111 -51,-94 5,-64 -8,-64 -18,-58 -28,-59 -33,-53 -38,-51 -40,-48 -44,-46 v 0 h -2 l -3,3 v 0 l 3,10 2,8 3,10 2,7 23,44 26,43 25,43 23,43 23,46 15,46 10,48 3,51 v 15 l 5,20 10,18 z"
   id="path99"
   inkscape:connector-curvature="0"
   style="fill:#000000;stroke:none" />
        <path
   d="m 9836,13865 5,-5 5,-5 h 5 5 l 5,2 3,5 v 8 5 l -3,10 v 11 l -2,10 v 10 l -5,41 v 40 l 5,41 7,41 11,38 17,38 21,35 25,31 41,30 38,11 36,-6 33,-20 30,-25 28,-33 20,-33 16,-31 v 0 h 2 3 v 0 l -15,64 -26,51 -33,38 -41,25 -40,10 -44,-2 -40,-13 -36,-28 -10,-13 -13,-17 -12,-21 -13,-28 -13,-28 -13,-33 -10,-35 -7,-39 -5,39 -3,48 v 56 l 5,56 8,58 15,56 20,48 28,39 56,43 56,20 54,3 50,-11 46,-17 38,-18 31,-18 18,-10 v 0 l 2,2 v 3 0 l -43,46 -48,33 -51,20 -56,10 -54,-2 -50,-13 -46,-20 -41,-28 -33,-36 -23,-43 -18,-43 -10,-49 -7,-45 -3,-46 v -41 l 3,-38 -11,66 -5,79 3,81 10,84 15,79 26,74 33,58 43,46 28,15 41,13 43,5 48,-2 51,-16 46,-30 46,-49 35,-66 v 0 h 3 2 v 3 l -23,79 -38,56 -53,38 -59,20 -63,8 -61,-8 -54,-18 -43,-25 -20,-23 -23,-30 -20,-39 -18,-45 -18,-51 -15,-54 -13,-58 -8,-59 -10,87 3,84 10,79 18,71 20,63 20,51 21,36 15,23 33,33 36,23 35,15 36,7 36,3 35,-3 36,-7 33,-13 33,-13 28,-17 28,-16 25,-17 23,-16 18,-15 15,-13 10,-7 -20,33 -23,33 -25,28 -28,23 -33,22 -31,18 -36,13 -33,8 -38,5 h -35 l -36,-3 -35,-10 -36,-15 -33,-18 -33,-25 -31,-31 -10,-13 -13,-20 -17,-31 -16,-35 -15,-41 -13,-48 -12,-51 -5,-56 -3,79 3,76 7,76 10,69 16,66 20,61 25,54 31,48 36,41 35,30 41,23 40,15 41,8 43,5 44,-3 40,-7 38,-13 39,-13 33,-17 30,-21 28,-20 20,-20 18,-21 10,-20 5,-8 8,-5 8,-2 10,2 8,5 5,8 v 7 11 l -5,25 -16,28 -20,28 -28,28 -36,23 -38,23 -43,20 -48,15 -49,8 -50,5 -51,-5 -54,-10 -51,-21 -48,-30 -48,-41 -43,-51 -36,-61 -30,-81 -28,-102 -18,-117 -5,-129 5,-140 23,-147 40,-153 18,-48 26,-66 33,-82 38,-89 38,-86 38,-81 33,-66 28,-46 v 0 h 3 v 0 0 l -16,28 -12,30 -18,36 -15,38 -18,43 -15,43 -16,49 -15,48 20,-38 18,-36 13,-28 z"
   id="path101"
   inkscape:connector-curvature="0"
   style="fill:#000000;stroke:none" />
        <path
   d="m 10436,16427 -36,21 -38,12 -35,10 -39,8 h -35 -36 l -33,-5 -33,-5 -30,-8 -28,-10 -28,-10 -23,-10 -20,-10 -16,-11 -12,-10 -8,-7 -13,-5 -18,-6 -20,-10 -23,-12 -25,-16 -23,-15 -20,-15 -16,-15 h 5 l 18,-3 18,-5 18,-5 -5,-3 -10,-10 -18,-13 -18,-15 v 0 -5 l 2,-7 6,-18 h -11 l -12,-3 -16,-2 -17,-5 -18,-6 -18,-7 -18,-13 -15,-13 13,-20 23,-20 33,-18 40,-18 49,-18 50,-12 54,-16 53,-10 54,-2 56,10 55,18 54,25 46,28 40,25 33,23 18,16 15,10 18,15 18,15 18,16 18,15 17,10 16,5 17,-3 18,-7 23,-13 23,-13 23,-10 23,-10 23,-5 20,3 18,7 5,-18 10,-15 15,-13 18,-10 23,-7 25,-3 28,3 31,5 2,-8 v -18 l -5,-23 -15,-17 -13,-28 5,-38 13,-41 13,-26 -18,-10 -15,-10 -18,-10 -15,-10 -10,-10 -8,-13 -3,-13 6,-13 22,-40 18,-31 5,-28 -10,-20 -13,-10 -20,-13 -20,-18 -18,-17 -15,-21 -5,-23 7,-20 23,-23 -15,3 h -15 -16 l -15,-3 -25,-5 -23,-5 -23,-8 -18,-10 -15,-13 -13,-15 -7,-18 -6,-20 -28,31 -15,15 -10,7 h -2 l -31,-5 -25,-2 h -23 l -21,2 -15,5 -13,6 -10,7 -7,10 v -51 l 2,-48 3,-48 5,-43 -3,-38 -5,-33 -15,-26 -28,-20 -33,-26 -31,-40 -28,-54 -17,-63 -8,-71 8,-74 25,-74 46,-71 15,-15 23,-16 30,-15 33,-15 36,-10 41,-10 40,-5 46,-3 43,3 44,5 43,12 41,18 38,23 33,31 30,40 23,46 23,-10 33,-10 33,-8 38,-5 36,5 35,10 28,23 23,36 23,38 36,33 40,28 46,23 46,15 46,10 38,3 30,-6 16,21 -3,15 -8,10 -5,5 23,33 26,31 25,30 28,33 23,33 20,36 18,41 8,45 10,77 v 86 l -8,84 -12,64 17,43 10,56 v 66 l -5,68 -12,69 -13,61 -15,51 -13,35 -8,8 -12,10 -18,10 -18,8 -20,8 -21,5 -17,2 -18,-2 -18,79 -31,68 -40,56 -48,43 -59,33 -61,23 -61,10 h -64 l -10,8 -12,13 -21,10 -23,13 -25,12 -31,13 -30,10 -36,8 -35,7 -38,3 h -39 l -40,-5 -41,-10 -38,-15 -38,-23 -38,-28 -31,-28 -23,-23 -15,-20 -10,-13 -5,-13 v -8 l 5,-7 z"
   id="path103"
   inkscape:connector-curvature="0"
   style="fill:#ffffff;stroke:none" />
        <path
   d="m 10853,16115 -3,10 -5,18 3,17 h 23 l 20,16 23,15 25,10 28,10 33,8 33,7 33,6 36,2 38,3 h 36 38 l 36,-3 38,-2 33,-3 35,-5 31,-5 -13,38 -15,36 -21,33 -22,28 -23,25 -28,20 -31,21 -30,15 -33,13 -33,10 -36,5 -33,5 h -36 l -33,-3 -33,-5 -30,-7 -61,-26 -51,-30 -41,-36 -30,-41 -23,-38 -18,-35 -10,-28 -5,-23 5,-20 8,-21 12,-20 15,-20 18,-16 23,-12 28,-5 28,5 v 5 7 l 5,10 z"
   id="path105"
   inkscape:connector-curvature="0"
   style="fill:#ffadd1;stroke:none" />
        <path
   d="m 11524,15738 5,49 v 53 l -5,56 -10,56 -13,53 -10,46 -13,38 -12,28 -13,13 -23,13 -25,10 -33,10 -39,10 -40,8 -43,5 -46,5 -49,2 -45,-2 -46,-3 -46,-5 -43,-10 -38,-13 -36,-17 -30,-21 h -26 l -10,-13 v -15 -7 l 5,-3 13,-8 2,-10 -10,-15 -18,-20 -7,-21 v -23 l 5,-17 15,5 18,2 15,3 18,5 h 18 l 18,2 h 17 l 18,-2 43,-3 44,-7 45,-8 46,-13 41,-12 38,-13 33,-13 25,-10 31,-15 30,-18 34,-18 30,-17 33,-23 31,-23 30,-26 z"
   id="path107"
   inkscape:connector-curvature="0"
   style="fill:#ffadd1;stroke:none" />
        <path
   d="m 11349,15169 20,23 20,25 21,26 17,28 18,28 16,30 10,33 5,36 7,79 -5,89 -12,83 -16,67 -28,30 -33,28 -30,23 -33,23 -36,23 -33,17 -33,18 -30,15 -39,16 -48,15 -53,13 -59,7 -56,8 h -53 l -41,-3 -30,-12 -28,-13 -15,-8 -8,-15 8,-36 12,-48 5,-40 -10,-34 -28,-22 -10,-5 -13,-11 -12,-15 -13,-15 -10,-18 -8,-18 -2,-20 2,-18 15,3 h 16 15 l 15,-3 h 13 l 15,-2 13,-3 13,-3 71,-15 63,-18 56,-20 51,-20 46,-23 40,-20 36,-23 31,-23 25,-23 23,-20 20,-21 15,-20 13,-18 13,-15 8,-15 7,-11 -2,-27 5,-28 10,-33 z"
   id="path109"
   inkscape:connector-curvature="0"
   style="fill:#ffadd1;stroke:none" />
        <path
   d="m 10563,15492 5,30 10,23 16,21 20,12 25,8 31,2 35,-2 41,-8 69,-15 63,-18 54,-15 48,-18 43,-18 36,-17 30,-18 26,-18 23,-18 17,-18 16,-15 12,-15 11,-15 7,-13 8,-13 7,-10 -2,-20 v -21 l 5,-20 8,-23 10,-20 13,-20 17,-18 21,-18 5,-5 7,-10 3,-18 -15,-20 -31,5 h -38 l -43,-11 -49,-15 -45,-23 -41,-28 -36,-33 -22,-38 -13,-23 -15,-20 -18,-13 -18,-10 -20,-8 -21,-2 h -23 l -20,2 3,51 v 54 l -11,58 -17,59 -28,66 -41,73 -53,79 -69,89 -15,21 -16,17 -12,16 z"
   id="path111"
   inkscape:connector-curvature="0"
   style="fill:#ffadd1;stroke:none" />
        <path
   d="m 10197,14826 15,-15 21,-18 22,-15 28,-16 31,-12 35,-11 36,-5 38,-5 38,3 41,5 41,13 40,20 44,25 40,33 41,44 38,50 8,56 v 59 l -5,58 -16,64 -25,71 -41,76 -56,87 -73,96 -31,33 -25,23 -18,15 -15,8 -11,3 -7,-3 -5,-2 v 0 h -26 l -17,-3 -16,5 -12,15 -3,-51 -5,-45 -5,-41 -8,-38 -12,-33 -16,-28 -23,-23 -28,-18 -33,-25 -35,-41 -28,-56 -23,-66 -10,-71 2,-74 23,-76 z"
   id="path113"
   inkscape:connector-curvature="0"
   style="fill:#ffadd1;stroke:none" />
        <path
   d="m 10901,16516 -10,8 -15,7 -21,11 -22,7 -28,8 -31,7 -36,6 -35,5 h -36 l -38,-3 -41,-8 -38,-10 -38,-15 -38,-20 -36,-28 -33,-33 -28,-33 -20,-26 -15,-18 -8,-17 -2,-10 2,-11 3,-7 7,-5 -15,-8 -15,-8 -15,-7 -16,-8 -12,-7 -10,-11 -3,-10 3,-15 7,-13 13,-7 13,-5 12,-3 13,-3 13,-2 7,-5 3,-8 -3,-7 -7,-8 -13,-5 -13,-5 -12,-5 -11,-8 -7,-10 -3,-15 8,-23 15,-3 13,8 7,5 18,15 23,20 28,23 31,26 28,23 30,17 26,13 h 20 l 18,-7 15,-11 15,-12 15,-13 16,-10 15,-5 13,2 15,10 8,28 12,41 23,46 31,48 35,48 43,39 51,27 z"
   id="path115"
   inkscape:connector-curvature="0"
   style="fill:#ffadd1;stroke:none" />
        <path
   d="m 10322,16455 -36,21 -38,12 -36,10 -38,8 h -36 -35 l -33,-5 -33,-5 -31,-8 -28,-10 -28,-10 -23,-10 -20,-10 -15,-11 -13,-7 -7,-8 -13,-5 -18,-5 -20,-10 -23,-13 -26,-15 -23,-15 -20,-16 -15,-15 h 5 l 18,-2 18,-6 20,-5 -5,-2 -13,-10 -15,-13 -18,-15 v 0 -5 l 3,-8 2,-18 -10,-2 -13,-3 -15,-2 -18,-3 -18,-5 -15,-10 -18,-10 -15,-13 10,-20 23,-21 33,-20 41,-18 48,-15 51,-15 53,-13 54,-10 56,-3 56,10 56,18 50,26 49,28 40,25 31,23 20,15 -25,-5 -15,18 -11,28 v 35 l 6,16 7,7 13,8 13,5 15,2 10,3 10,8 3,7 -10,13 -23,8 -23,12 -18,23 -3,15 6,11 10,7 12,8 16,5 17,2 18,6 z"
   id="path117"
   inkscape:connector-curvature="0"
   style="fill:#ffadd1;stroke:none" />
        <path
   d="m 9910,16183 23,-5 38,-8 45,-7 51,-8 54,-5 h 48 l 41,3 28,10 -31,-20 -41,-18 -43,-13 -43,-8 -43,-2 -41,2 -33,8 -23,15 -23,26 -7,12 v 8 z"
   id="path119"
   inkscape:connector-curvature="0"
   style="fill:#ff307f;stroke:none" />
        <path
   d="m 9999,16280 15,-8 15,-7 15,-8 16,-8 15,-5 15,-5 h 15 l 16,3 17,5 21,7 20,5 20,8 23,8 23,5 21,7 22,3 31,-5 8,-15 -3,-21 -2,-12 -28,-11 -28,-10 -31,-10 -30,-8 -31,-5 -28,-2 -28,2 -23,8 -20,10 -18,10 -15,11 -10,10 -10,10 -11,7 -7,11 z"
   id="path121"
   inkscape:connector-curvature="0"
   style="fill:#ff307f;stroke:none" />
        <path
   d="m 10016,16374 h 28 31 l 33,-3 30,-5 31,-5 28,-5 23,-5 20,-8 18,-5 15,-7 13,-3 15,-5 10,-3 h 11 10 7 l -28,-7 -30,-5 -31,-3 -30,-2 h -28 l -26,2 -20,5 -15,5 -13,5 -18,8 -17,3 -21,5 -20,2 h -20 -16 -12 l -16,13 3,10 15,5 z"
   id="path123"
   inkscape:connector-curvature="0"
   style="fill:#ff307f;stroke:none" />
        <path
   d="m 10377,16427 -7,10 -21,8 -25,8 -33,7 -33,8 -31,2 -25,6 h -18 l 5,-21 10,-18 16,-12 18,-13 20,-8 23,-7 20,-5 20,-5 h 26 l 20,5 13,12 z"
   id="path125"
   inkscape:connector-curvature="0"
   style="fill:#ff307f;stroke:none" />
        <path
   d="m 10489,15482 21,2 30,-15 36,-31 38,-43 38,-48 31,-51 22,-46 11,-40 h -23 l -16,-28 -12,-38 -10,-33 -11,28 -7,25 -10,25 -11,26 -10,25 -10,21 -10,20 -10,15 5,-51 7,-56 -2,-45 -31,-23 -7,48 -8,61 -5,51 -2,20 -23,-38 -21,-15 -17,-5 h -6 l 3,30 -3,31 -10,30 -12,28 -13,28 -10,26 -3,22 5,18 18,21 h 18 l 15,-3 z"
   id="path127"
   inkscape:connector-curvature="0"
   style="fill:#ff307f;stroke:none" />
        <path
   d="m 10693,15464 10,13 10,10 10,7 13,8 13,5 17,3 18,2 h 23 l 33,-2 46,-13 51,-15 56,-18 51,-23 43,-20 28,-23 7,-18 -50,-20 -36,-23 -25,-21 -16,-22 -12,-21 -8,-23 -8,-20 -12,-18 -26,13 -23,23 -25,28 -23,30 -23,31 -20,25 -21,23 -17,13 -16,7 -15,8 -15,5 -13,8 -10,7 -8,8 -5,10 z"
   id="path129"
   inkscape:connector-curvature="0"
   style="fill:#ff307f;stroke:none" />
        <path
   d="m 10866,15792 -21,-3 -10,31 5,43 26,30 12,3 16,3 20,2 h 25 26 l 30,-2 h 31 l 33,-6 33,-2 30,-8 31,-5 30,-7 28,-8 23,-10 21,-10 17,-13 -7,-38 -15,-21 -23,-12 -26,-13 -7,-10 v -13 l 7,-18 10,-17 11,-21 7,-18 v -20 l -10,-15 -18,-10 -18,-5 h -22 l -26,2 -23,8 -23,12 -17,13 -16,15 -15,23 -20,28 -26,31 -25,28 -28,25 -28,15 -26,5 z"
   id="path131"
   inkscape:connector-curvature="0"
   style="fill:#ff307f;stroke:none" />
        <path
   d="m 10909,16061 -3,26 -5,12 v 8 l 8,8 23,5 38,7 46,10 53,11 53,7 51,3 41,-5 30,-13 -5,-41 -2,-35 -15,-23 -39,-3 -28,8 -25,15 -28,15 -28,13 -33,8 h -36 l -45,-10 z"
   id="path133"
   inkscape:connector-curvature="0"
   style="fill:#ff307f;stroke:none" />
        <path
   d="m 10805,16211 17,8 31,13 35,15 41,15 43,15 44,13 38,10 33,3 -3,35 -5,21 -15,7 -26,3 -25,5 -15,13 -5,20 v 25 l -26,-5 -35,-18 -38,-22 -41,-31 -38,-30 -33,-31 -21,-25 -7,-21 5,-25 7,-15 13,-5 z"
   id="path135"
   inkscape:connector-curvature="0"
   style="fill:#ff307f;stroke:none" />
        <path
   d="m 10474,16313 15,5 18,2 20,3 h 21 20 l 20,-5 18,-5 13,-10 23,-16 h 20 l 18,16 13,30 10,36 10,33 13,28 20,23 h -30 l -26,-5 -20,-8 -20,-10 -18,-8 -18,-10 -15,-5 -18,-3 -28,3 -18,5 -10,8 -15,12 -18,-17 -18,-18 -13,-18 -10,-15 -5,-16 v -12 l 10,-13 z"
   id="path137"
   inkscape:connector-curvature="0"
   style="fill:#ff307f;stroke:none" />
        <path
   d="m 10225,14869 46,-30 48,-26 46,-20 48,-15 46,-11 43,-5 h 43 l 43,3 39,7 35,8 33,13 31,15 23,18 20,20 15,21 10,22 16,94 -5,92 -16,79 -15,56 -23,51 -30,45 -36,46 -35,38 -41,41 -41,38 -41,36 -40,38 -3,5 v 2 5 l 3,3 2,2 5,3 h 3 l 3,-3 55,-50 59,-51 56,-54 51,-56 48,-58 41,-64 33,-68 23,-76 10,-56 v -56 l -5,-56 -16,-59 -12,-30 -23,-31 -26,-25 -33,-25 -38,-21 -43,-18 -46,-12 -48,-10 -48,-3 -51,3 -51,10 -51,17 -51,23 -46,33 -45,39 -41,50 -3,3 -2,5 v 3 l 2,5 6,2 h 7 l 8,-2 z"
   id="path139"
   inkscape:connector-curvature="0"
   style="fill:#000000;stroke:none" />
        <path
   d="m 10840,14897 21,-8 22,-7 23,-5 23,-3 23,3 20,7 21,10 18,21 17,25 21,23 20,23 23,20 23,21 23,17 25,16 25,15 28,10 28,10 28,8 28,5 h 31 l 28,-3 30,-5 31,-7 7,-3 6,-5 2,-8 v -7 l -2,-8 -6,-2 -7,-3 h -8 -18 l -20,3 h -18 -20 -18 -20 l -18,-3 -18,-5 -28,-10 -28,-13 -25,-15 -23,-18 -23,-18 -23,-20 -20,-23 -18,-23 -8,-10 -10,-13 -10,-10 -10,-10 -10,-10 -13,-8 -13,-7 -12,-5 -23,-6 -21,-2 -22,2 -23,8 -18,8 -18,12 -13,18 z"
   id="path141"
   inkscape:connector-curvature="0"
   style="fill:#000000;stroke:none" />
        <path
   d="m 11422,15149 -2,-10 -10,-8 -16,-8 -15,-2 -20,5 -18,10 -20,18 -16,25 v 8 l 3,7 5,8 8,5 h 7 l 8,-2 8,-3 5,-8 2,-10 10,-18 23,-17 z"
   id="path143"
   inkscape:connector-curvature="0"
   style="fill:#000000;stroke:none" />
        <path
   d="m 11323,15215 -5,38 -15,38 -23,33 -25,33 -36,33 -36,28 -43,26 -43,25 -46,20 -48,18 -48,15 -46,13 -46,8 -43,5 -41,2 -35,-2 -13,-3 -13,-2 -15,-3 -13,-2 -15,-6 -10,-2 -8,-3 h -5 -10 l -10,3 -8,8 -2,7 2,15 8,16 15,10 20,10 21,8 20,5 20,5 h 16 48 l 51,-8 53,-10 54,-15 50,-21 54,-22 51,-26 45,-28 46,-30 38,-33 36,-33 28,-36 20,-33 13,-36 2,-35 -5,-36 v 0 h -2 z"
   id="path145"
   inkscape:connector-curvature="0"
   style="fill:#000000;stroke:none" />
        <path
   d="m 11410,15202 17,20 26,26 28,40 28,49 23,66 10,79 -3,96 -20,115 -3,12 3,11 5,7 10,5 10,3 13,-5 8,-5 7,-11 16,-53 12,-69 3,-73 -8,-79 -20,-76 -36,-72 -53,-58 -74,-43 h -2 l -3,2 v 5 z"
   id="path147"
   inkscape:connector-curvature="0"
   style="fill:#000000;stroke:none" />
        <path
   d="m 10843,15944 68,10 66,6 64,-3 56,-8 56,-10 51,-15 46,-15 43,-21 38,-20 35,-20 34,-21 27,-17 26,-18 20,-15 18,-13 13,-8 h 5 l 7,-2 8,2 3,5 -11,18 -15,20 -20,21 -23,23 -25,22 -31,23 -36,23 -38,21 -43,22 -46,18 -51,15 -55,13 -59,10 -63,5 -67,3 -71,-5 -25,-5 -21,-8 -15,-10 -7,-13 -8,-15 v -13 l 5,-12 8,-11 -13,-2 -13,-5 -12,-3 -13,-7 -13,-5 -8,-11 -5,-12 v -13 l 5,-25 13,-21 15,-20 18,-18 v -23 l -7,-18 -13,-12 -15,-13 -16,-10 -7,-10 v -13 l 15,-15 v 0 h 3 v 2 0 l -8,13 2,10 13,5 15,8 18,10 18,10 15,18 8,25 v 21 l -8,18 -12,15 -13,13 -10,10 -8,10 v 10 l 8,10 20,15 20,16 13,15 z"
   id="path149"
   inkscape:connector-curvature="0"
   style="fill:#000000;stroke:none" />
        <path
   d="m 10878,16170 41,13 43,10 46,8 46,10 46,5 48,5 48,3 h 46 43 l 46,-5 41,-8 38,-10 33,-13 33,-18 25,-20 23,-25 5,-5 5,-5 h 5 8 l 5,5 3,5 v 5 5 l -13,28 -15,23 -23,20 -26,18 -33,18 -35,10 -38,10 -44,8 -45,2 -51,3 -51,-3 -54,-7 -55,-8 -56,-13 -59,-15 -58,-18 -16,-5 -15,-8 -13,-10 -10,-15 -10,-5 -5,-8 -3,-17 11,-28 -31,-18 3,-28 17,-18 18,5 -5,8 -5,7 -2,8 2,8 8,2 10,5 10,5 5,10 v 16 18 15 z"
   id="path151"
   inkscape:connector-curvature="0"
   style="fill:#000000;stroke:none" />
        <path
   d="m 11537,15810 7,94 -5,73 -7,56 -3,41 3,10 2,8 8,7 10,3 h 10 l 8,-5 7,-8 3,-10 3,-8 5,-20 5,-33 5,-41 v -43 l -5,-46 -16,-45 -27,-41 -6,-3 -5,3 -2,5 z"
   id="path153"
   inkscape:connector-curvature="0"
   style="fill:#000000;stroke:none" />
        <path
   d="m 10800,16148 -13,-16 -18,-10 h -23 l -23,5 -20,13 -18,18 -13,23 v 28 l 3,10 5,7 8,6 7,2 10,-2 8,-6 5,-5 3,-10 2,-15 8,-13 7,-10 11,-8 10,-7 13,-5 12,-3 z"
   id="path155"
   inkscape:connector-curvature="0"
   style="fill:#000000;stroke:none" />
        <path
   d="m 10726,16290 5,30 13,34 15,35 20,33 23,31 28,28 28,22 33,21 43,18 46,12 43,8 h 43 l 44,-3 40,-7 38,-13 39,-18 35,-18 31,-22 28,-26 23,-25 20,-28 15,-28 10,-31 5,-30 v -8 -7 l -5,-5 -5,-3 h -5 -7 l -6,5 -5,5 -17,43 -23,38 -26,34 -25,27 -31,21 -28,18 -30,12 -33,8 -31,8 -30,2 h -31 l -28,-2 -25,-3 -26,-5 -20,-8 -18,-5 -43,-20 -35,-26 -26,-25 -20,-25 -18,-26 -20,-28 -23,-25 z"
   id="path157"
   inkscape:connector-curvature="0"
   style="fill:#000000;stroke:none" />
        <path
   d="m 10639,16232 -2,-11 -8,-10 -13,-5 h -12 l -16,3 -15,5 -15,12 -10,16 -8,5 h -15 l -18,-5 -20,-10 -21,-13 -22,-15 -23,-18 -21,-16 -7,-2 h -5 l -8,5 -5,5 -3,8 v 5 l 3,7 5,6 20,22 26,21 30,18 31,12 30,8 28,-3 23,-7 18,-21 10,-17 13,-11 h 13 z"
   id="path159"
   inkscape:connector-curvature="0"
   style="fill:#000000;stroke:none" />
        <path
   d="m 10573,15484 -5,-2 -7,12 -8,18 v 15 l 2,5 6,3 h 5 5 l 5,-3 2,-5 3,-5 -3,-5 -5,-7 v -8 -8 z"
   id="path161"
   inkscape:connector-curvature="0"
   style="fill:#000000;stroke:none" />
        <path
   d="m 10423,16293 -7,-8 -13,-5 -13,-5 -15,-5 -13,-3 -10,-5 -8,-5 -2,-5 2,-8 5,-5 6,-5 5,-2 -11,-6 -17,3 -13,13 v 20 l 5,10 10,10 10,5 13,6 13,7 13,5 12,5 10,8 6,2 h 7 l 5,-2 5,-3 3,-5 v -7 l -3,-5 z"
   id="path163"
   inkscape:connector-curvature="0"
   style="fill:#000000;stroke:none" />
        <path
   d="m 9833,16295 5,23 11,20 12,16 21,15 20,12 20,8 23,8 21,7 50,3 54,-3 51,-2 51,-10 50,-11 51,-15 49,-18 45,-20 3,-2 2,-6 v -2 -5 l -2,-5 -5,-3 h -3 -5 l -33,8 -30,10 -36,10 -33,8 -33,7 -36,8 -33,5 -35,3 -33,2 h -36 l -33,-5 -33,-5 -31,-10 -30,-13 -31,-18 z"
   id="path165"
   inkscape:connector-curvature="0"
   style="fill:#000000;stroke:none" />
        <path
   d="m 10395,16336 -10,7 -15,8 -10,10 v 18 h 15 13 l 15,2 13,6 12,7 10,10 11,13 7,18 v 10 l -2,8 -10,7 -11,5 36,18 33,20 33,18 33,18 33,18 36,18 35,12 41,13 31,5 30,3 h 28 l 31,-3 28,-2 30,-5 28,-3 31,-5 h 5 5 l 2,5 3,3 v 5 5 l -5,2 -5,5 -26,16 -28,12 -33,8 -35,5 h -39 -38 l -40,-5 -39,-8 -40,-12 -38,-13 -38,-18 -36,-20 -33,-26 -31,-28 -25,-30 -20,-33 -3,-3 -2,-5 -6,-5 -2,-8 -23,13 -25,13 -26,8 -25,10 -28,5 -28,5 h -28 -28 -26 l -28,-5 -27,-8 -26,-7 -23,-13 -25,-13 -21,-15 -20,-20 v 0 0 -3 0 0 -3 h 3 v 0 l 2,3 46,20 46,13 45,10 49,3 h 48 l 46,-8 48,-10 46,-15 -20,-8 -18,-10 -13,-15 -2,-23 12,-23 21,-15 22,-3 z"
   id="path167"
   inkscape:connector-curvature="0"
   style="fill:#000000;stroke:none" />
        <path
   d="m 9831,16239 5,13 10,10 10,10 10,8 h -5 l -7,2 h -8 -5 -3 v 3 2 0 l 18,8 16,8 17,5 21,5 17,2 18,3 18,-3 18,-5 20,-7 18,-8 20,-10 21,-8 17,-7 21,-5 h 23 l 20,2 25,8 26,7 25,11 28,5 26,5 25,2 h 28 l 25,-7 3,-3 5,-2 3,-6 v -5 l -3,-5 -5,-2 -3,-3 h -5 l -25,3 -23,-3 -23,-2 -23,-5 -23,-8 -25,-8 -23,-7 -23,-8 -25,-5 -28,3 -26,5 -25,10 -25,10 -23,13 -26,12 -23,11 -2,-8 -8,-5 -10,-5 -15,-5 -18,-3 -20,-8 -18,-7 -20,-13 17,-10 21,-13 23,-10 22,-10 28,-8 28,-7 31,-8 30,-5 31,-3 30,-2 31,-3 30,3 31,2 28,5 25,6 26,10 h 2 5 l 3,-3 v -2 -5 -3 l -3,-3 -2,-2 -15,-8 -18,-7 -21,-5 -22,-5 -26,-6 -25,-2 -28,-3 h -28 -28 l -31,5 -30,3 -31,8 -30,10 -28,12 -31,13 -28,18 -10,8 -7,7 -8,10 z"
   id="path169"
   inkscape:connector-curvature="0"
   style="fill:#000000;stroke:none" />
        <path
   d="m 9729,16181 18,7 15,8 15,2 18,6 16,2 15,3 h 15 18 2 l 5,2 3,5 v 3 2 l -3,5 -5,3 h -5 l -20,3 h -18 l -20,-3 -18,-5 -18,-8 -18,-10 -15,-10 -15,-15 -8,-8 -2,-8 v -7 l 2,-8 10,-23 18,-20 26,-20 33,-21 35,-18 44,-12 45,-10 49,-8 48,-3 51,3 53,8 48,15 51,20 46,28 43,36 38,43 -10,-5 -15,-8 -18,-12 -25,-13 -28,-15 -33,-16 -36,-12 -38,-13 -43,-8 -46,-5 h -46 l -51,5 -50,13 -51,23 -56,30 -54,41 -2,3 h -5 l -3,2 z"
   id="path171"
   inkscape:connector-curvature="0"
   style="fill:#000000;stroke:none" />
        <path
   d="m 10339,15609 -7,-18 v -33 -41 l -8,-38 -2,-38 10,-43 5,-43 -13,-31 -28,-30 -33,-44 -33,-50 -31,-59 -20,-61 -7,-61 10,-53 30,-49 5,-2 5,-5 h 5 l 6,2 5,5 2,5 v 6 l -2,5 -11,43 3,48 13,53 20,51 25,51 28,46 28,36 23,27 21,41 v 46 l -13,51 -8,48 -2,28 v 25 l -5,28 -8,26 8,-10 7,-8 10,-10 13,-8 13,-5 h 15 15 l 18,8 10,5 3,7 -3,6 -2,5 -10,7 -13,3 -15,-3 -18,-2 -18,2 -18,8 -15,10 z"
   id="path173"
   inkscape:connector-curvature="0"
   style="fill:#000000;stroke:none" />
        <path
   d="m 10586,13936 -8,23 -7,23 -8,25 -8,26 -10,25 -12,23 -13,23 -13,20 26,-25 25,-20 23,-16 23,-10 23,-10 20,-8 23,-7 23,-10 35,-13 46,-8 51,-5 58,-2 h 59 53 l 51,2 41,5 25,3 26,2 h 30 31 30 l 33,-2 31,-3 33,-5 33,-8 30,-7 31,-8 28,-12 25,-13 26,-15 20,-18 18,-18 23,-31 25,-40 28,-46 28,-53 23,-56 15,-56 8,-59 -5,-58 -5,-28 -8,-25 -5,-21 -5,-15 -8,43 -18,38 -17,31 -18,20 -23,23 -28,18 -31,15 -35,13 -43,10 -49,8 -56,5 -63,2 h -18 -20 -21 -20 -23 -23 -23 -22 l -49,3 -46,5 -43,7 -43,11 -41,12 -40,18 -36,15 -36,21 -33,20 -28,20 -25,21 -23,20 -20,20 -15,18 -13,18 -8,18 -5,12 -5,13 -3,15 z"
   id="path175"
   inkscape:connector-curvature="0"
   style="fill:#007284;stroke:none" />
        <path
   d="m 11598,13537 7,5 11,23 v 53 l -23,89 -26,54 -35,43 -46,38 -48,31 -51,23 -51,20 -46,15 -35,10 -33,5 -34,3 h -35 l -36,-5 -35,-5 -36,-8 -33,-10 -33,-13 -30,-10 -34,-5 -33,-3 h -30 l -31,3 -28,5 -28,5 -25,5 h -15 -18 -20 l -21,3 -20,2 -20,5 -21,8 -20,10 2,-18 3,-15 5,-13 5,-12 8,-18 13,-18 15,-18 20,-20 23,-20 25,-21 28,-20 33,-20 36,-21 36,-15 40,-18 41,-12 43,-11 43,-7 46,-5 49,-3 h 22 23 23 23 20 21 20 18 l 63,-2 56,-5 49,-8 43,-10 35,-13 31,-15 28,-18 z"
   id="path177"
   inkscape:connector-curvature="0"
   style="fill:#ffffff;stroke:none" />
        <path
   d="m 10586,13936 18,-13 15,-12 15,-10 16,-11 12,-7 13,-8 13,-2 15,-3 25,-8 26,-5 28,-2 30,-3 h 31 l 33,3 33,5 30,10 33,10 33,10 36,8 36,8 35,2 36,3 33,-3 33,-7 36,-11 45,-15 51,-20 51,-23 51,-31 43,-38 38,-43 26,-53 28,-84 12,-38 3,-8 v 0 l -23,23 -28,18 -31,15 -35,13 -43,10 -49,8 -56,5 -63,2 h -18 -20 -21 -20 -23 -23 -23 -22 l -49,3 -46,5 -43,7 -43,11 -41,12 -40,18 -36,15 -36,21 -33,20 -28,20 -25,21 -23,20 -20,20 -15,18 -13,18 -8,18 -5,12 -5,13 -3,15 z"
   id="path179"
   inkscape:connector-curvature="0"
   style="fill:#19bfcc;stroke:none" />
        <path
   d="m 10644,13883 16,2 17,-2 21,-3 23,-5 23,-5 20,-8 18,-5 12,-5 18,5 h 23 l 23,-2 23,-8 23,-7 23,-11 20,-12 15,-13 18,3 13,5 12,7 13,8 10,8 13,7 13,8 18,7 20,3 h 20 l 23,-5 26,-8 22,-12 23,-13 23,-18 21,-18 17,-20 18,-20 15,-18 11,-18 10,-18 5,-15 2,-10 v -10 l -30,-3 h -36 -40 -41 l -43,3 h -38 l -34,2 -28,3 -30,5 -43,10 -49,13 -53,17 -51,21 -48,20 -36,23 -25,20 -20,23 -21,23 -12,23 z"
   id="path181"
   inkscape:connector-curvature="0"
   style="fill:#ffffff;stroke:none" />
        <path
   d="m 10601,13878 h 13 l 18,-5 20,-8 20,-13 21,-12 20,-11 15,-10 13,-7 18,5 h 23 l 23,-3 25,-7 23,-8 20,-10 21,-13 15,-13 18,3 12,5 13,8 13,7 12,10 13,8 13,8 18,5 20,2 h 20 l 23,-5 23,-7 23,-13 23,-13 23,-18 20,-17 18,-21 18,-18 12,-15 11,-15 7,-15 5,-13 3,-10 v -8 h -18 -20 -21 -20 -23 -23 -23 -22 l -49,3 -46,5 -43,7 -43,11 -41,12 -40,18 -36,15 -36,21 -33,20 -28,20 -25,21 -23,20 -20,20 -15,18 -13,18 z"
   id="path183"
   inkscape:connector-curvature="0"
   style="fill:#f4e85b;stroke:none" />
        <path
   d="m 11100,13631 h 22 23 23 23 20 21 20 18 l 63,-2 56,-5 49,-8 43,-10 35,-13 31,-15 28,-18 23,-23 18,-20 17,-31 18,-38 8,-43 v -20 l -3,-21 -2,-20 -8,-20 -13,-31 -22,-38 -31,-41 -38,-40 -41,-41 -43,-33 -38,-28 -38,-18 -51,-15 -54,-13 -53,-10 -53,-8 -54,-2 h -51 l -45,5 -41,8 -20,5 -26,7 -25,5 -28,8 -31,10 -30,8 -33,10 -33,10 -31,10 -33,13 -30,10 -28,13 -28,10 -23,13 -23,10 -18,13 -76,58 -66,61 -56,61 -43,61 -38,59 -26,61 -20,58 -16,59 -7,53 -3,53 v 49 l 5,43 5,40 8,36 8,31 7,22 13,28 18,33 20,36 26,31 28,30 30,23 33,13 33,5 h 13 l 13,-5 10,-3 10,-8 10,-7 10,-10 11,-11 7,-10 13,-20 13,-23 12,-23 10,-25 8,-26 8,-25 7,-23 8,-23 2,-18 3,-15 5,-13 5,-12 8,-18 13,-18 15,-18 20,-20 23,-20 25,-21 28,-20 33,-20 36,-21 36,-15 40,-18 41,-12 43,-11 43,-7 46,-5 z"
   id="path185"
   inkscape:connector-curvature="0"
   style="fill:#ffffff;stroke:none" />
        <path
   d="m 10426,14132 -38,-3 -31,-10 -28,-15 -20,-20 -21,-28 -12,-28 -13,-33 -10,-36 -15,-135 5,-129 15,-115 20,-81 21,-61 28,-56 33,-48 40,-46 44,-41 45,-35 51,-33 51,-28 53,-26 54,-20 51,-18 51,-15 48,-15 43,-10 38,-8 36,-8 40,-7 46,-3 49,-2 h 48 l 51,5 53,7 51,10 48,13 31,13 30,20 33,26 31,30 25,31 26,30 20,31 13,25 28,81 2,66 -20,56 -33,41 -46,28 -51,20 -53,8 h -46 l -30,-3 -34,3 -35,3 -38,5 -38,5 -41,7 -41,8 -40,10 -26,8 -33,15 -38,15 -41,18 -38,18 -33,15 -23,13 -12,5 -26,15 -30,18 -28,18 -31,23 -25,22 -26,26 -20,25 -13,26 -18,51 -10,30 -5,23 -10,20 -5,13 -8,18 -10,20 -13,20 -17,21 -21,18 -25,12 z"
   id="path187"
   inkscape:connector-curvature="0"
   style="fill:#007284;stroke:none" />
        <path
   d="m 10418,13545 20,-3 28,-2 28,2 31,5 25,10 21,18 10,28 v 38 l 15,-40 8,-44 7,-35 13,-23 18,-3 15,3 18,5 20,8 18,10 20,10 23,13 21,12 23,-40 v -36 l -11,-30 -12,-23 h 35 l 26,7 17,11 16,12 7,18 8,15 8,18 10,15 h 58 l 41,-15 25,-23 10,-30 v -36 l -5,-33 -12,-30 -16,-23 21,7 18,11 15,10 15,15 13,15 13,15 10,18 7,16 23,5 21,5 h 17 18 l 18,-5 15,-5 18,-8 15,-10 8,-41 7,-33 8,-28 3,-20 25,38 20,43 11,43 -3,33 36,23 38,13 h 38 l 35,-13 31,-25 18,-46 5,-64 -10,-83 23,30 15,28 10,31 10,35 5,-30 -7,-44 -18,-48 -31,-51 -35,-48 -43,-38 -46,-26 -49,-5 16,13 15,13 15,13 13,12 13,15 10,18 7,18 6,20 -23,-22 -21,-21 -20,-15 -18,-10 -20,-5 -21,-3 h -20 l -23,5 31,23 20,20 15,21 11,20 5,18 2,15 v 15 11 l -43,-61 -46,-39 -43,-25 -38,-10 -36,-3 -28,3 -18,5 -5,2 41,21 31,20 15,26 7,22 3,23 -3,21 -5,15 -2,8 -18,-26 -23,-28 -23,-23 -25,-23 -31,-15 -30,-7 h -36 l -40,10 20,7 15,10 15,8 11,10 5,10 5,11 v 12 l -3,16 -33,-11 -33,-17 -38,-18 -38,-18 -43,-13 -46,-2 -54,12 -58,28 30,3 28,5 21,10 18,10 15,13 13,15 12,16 10,15 -20,-18 -23,-13 -23,-10 -25,-5 -23,-2 -25,5 -23,12 -23,18 23,3 25,5 23,7 20,8 18,8 15,5 11,5 2,2 -20,-2 -31,-5 -38,-3 -41,-2 -40,2 -38,5 -31,16 -20,20 38,2 30,8 26,13 18,10 12,13 8,12 5,8 v 2 l -53,-10 -46,-7 h -43 l -36,5 -30,12 -26,18 -20,26 z"
   id="path189"
   inkscape:connector-curvature="0"
   style="fill:#19bfcc;stroke:none" />
        <path
   d="m 11280,13380 -10,35 -10,36 -10,30 -11,31 -15,28 -20,25 -26,20 -33,21 -5,5 -2,5 v 5 5 l 12,3 h 21 l 20,-3 13,-2 33,-18 25,-21 18,-28 10,-27 8,-34 v -35 l -5,-41 -8,-40 h -2 v 0 z"
   id="path191"
   inkscape:connector-curvature="0"
   style="fill:#ffffff;stroke:none" />
        <path
   d="m 10886,13458 -10,44 -18,38 -23,33 -25,33 -28,30 -28,28 -28,33 -28,33 -3,5 v 5 6 l 3,5 10,-3 23,-13 20,-12 10,-10 31,-28 25,-28 23,-28 21,-26 12,-30 10,-33 5,-38 v -44 0 0 z"
   id="path193"
   inkscape:connector-curvature="0"
   style="fill:#ffffff;stroke:none" />
        <path
   d="m 11033,13413 11,48 v 41 l -8,33 -15,28 -18,22 -18,18 -15,15 -10,16 -3,7 -2,8 v 8 l 5,5 h 7 l 10,-3 11,-5 7,-5 16,-13 17,-18 21,-22 17,-28 11,-31 2,-38 -13,-41 -28,-48 v 0 h -2 z"
   id="path195"
   inkscape:connector-curvature="0"
   style="fill:#ffffff;stroke:none" />
        <path
   d="m 11499,13415 -3,36 -5,25 -10,20 -13,16 -15,15 -20,13 -21,15 -25,20 -5,8 -3,8 v 7 l 5,8 h 5 11 l 10,-5 12,-5 13,-5 13,-6 10,-5 5,-2 36,-28 20,-31 v -43 l -15,-63 v 0 h -3 z"
   id="path197"
   inkscape:connector-curvature="0"
   style="fill:#ffffff;stroke:none" />
        <path
   d="m 11486,13270 -5,-23 -3,-20 -7,-23 -8,-23 -10,-20 -13,-23 -18,-18 -20,-20 -25,-15 -33,-16 -39,-12 -45,-13 -54,-8 -61,-2 -68,-3 -79,3 h -3 v 2 l -2,3 v 2 3 h 2 v 3 h 3 63 l 59,2 53,5 46,8 43,10 36,13 33,12 28,16 25,15 21,18 20,20 15,20 13,21 10,20 10,23 8,23 v 0 l 2,-3 z"
   id="path199"
   inkscape:connector-curvature="0"
   style="fill:#ffffff;stroke:none" />
        <path
   d="m 10611,13997 16,-10 23,-13 25,-15 30,-18 36,-12 43,-11 46,-2 53,5 33,8 31,5 33,7 33,5 31,5 33,3 30,3 33,2 31,3 33,-3 30,-2 33,-3 31,-5 33,-8 30,-10 33,-13 59,-30 48,-36 43,-43 33,-48 28,-51 21,-56 12,-56 6,-58 v -5 l -3,-3 -5,-5 h -5 -5 l -5,3 -3,5 -2,5 -3,12 -8,31 -12,46 -21,53 -30,58 -41,59 -51,48 -66,38 -30,13 -31,8 -33,7 -30,5 -31,3 h -33 -30 l -31,-3 -33,-2 -30,-3 -34,-5 -30,-7 -31,-5 -33,-8 -30,-5 -31,-8 -40,-5 -41,3 -41,7 -38,13 -35,20 -31,23 -25,31 z"
   id="path201"
   inkscape:connector-curvature="0"
   style="fill:#000000;stroke:none" />
        <path
   d="m 10566,14091 17,-12 18,-13 21,-10 20,-11 20,-7 21,-8 22,-7 23,-5 28,-6 26,-2 28,-3 25,-2 h 26 27 l 26,2 h 25 26 l 28,3 h 25 l 26,2 h 25 25 28 l 26,-2 74,-8 66,-10 58,-13 51,-15 46,-18 40,-17 33,-21 31,-23 25,-23 21,-25 20,-23 15,-25 13,-26 13,-23 12,-25 11,-23 15,-51 8,-53 -3,-53 -13,-54 -2,-5 -3,-2 -5,-3 h -5 l -5,3 -3,5 -2,5 v 5 l 15,46 3,48 -5,51 -16,45 -15,31 -15,30 -15,28 -16,28 -20,26 -20,23 -23,23 -26,20 -30,20 -33,15 -38,16 -41,15 -46,10 -51,10 -56,8 -63,5 -28,3 h -28 -28 -26 l -27,-3 h -28 l -28,-3 h -26 -28 -28 -28 -25 l -28,3 -28,5 -26,5 -27,5 -21,5 -20,8 -20,10 -18,10 -21,13 -15,13 -15,15 z"
   id="path203"
   inkscape:connector-curvature="0"
   style="fill:#000000;stroke:none" />
        <path
   d="m 10721,13888 10,-8 10,-7 13,-5 15,-6 10,-2 13,-3 h 8 l 7,3 23,13 23,2 23,-2 23,-11 23,-10 17,-12 18,-13 15,-10 16,-5 12,5 13,12 15,13 18,15 20,13 26,8 30,-3 36,-10 36,-13 33,-17 30,-21 28,-23 23,-25 20,-31 13,-35 3,-8 v -7 l -6,-8 -5,-5 -7,-3 h -8 l -7,5 -8,5 -23,34 -25,33 -31,28 -30,20 -33,18 -31,10 -28,2 -25,-5 -16,-7 -15,-11 -13,-10 -12,-10 -16,-5 -15,-5 h -15 l -18,5 -13,8 -12,7 -13,8 -13,10 -12,10 -13,8 -13,5 -13,5 h -10 l -10,-2 -13,-6 -20,-2 h -13 l -15,2 -13,6 -12,7 -13,8 -13,10 -10,10 -8,13 v 2 l 6,3 2,2 z"
   id="path205"
   inkscape:connector-curvature="0"
   style="fill:#000000;stroke:none" />
        <path
   d="m 10365,13982 15,-13 8,-33 5,-46 -5,-50 -11,-49 -17,-38 -26,-20 -30,2 -28,26 -15,40 -6,49 6,56 12,61 21,58 28,54 35,45 5,3 5,2 h 8 l 5,-2 5,-5 v -8 -5 l -2,-5 -23,-33 -23,-41 -21,-48 -17,-51 -11,-51 -2,-48 10,-38 23,-31 20,21 16,58 7,64 -7,33 -11,-3 -5,-13 -2,-15 -5,-7 -8,10 -2,28 10,30 z"
   id="path207"
   inkscape:connector-curvature="0"
   style="fill:#000000;stroke:none" />
        <path
   d="m 10411,14089 17,-59 13,-68 5,-77 v -78 l -8,-72 -12,-61 -18,-43 -25,-23 -26,-5 -23,3 -23,7 -15,13 -15,18 -10,18 -3,20 v 20 l 3,5 2,8 5,3 5,2 8,-2 5,-3 3,-5 2,-5 5,-26 16,-22 20,-13 28,-3 20,16 15,38 13,53 8,69 2,71 -2,74 -8,68 -13,56 v 3 h 3 z"
   id="path209"
   inkscape:connector-curvature="0"
   style="fill:#000000;stroke:none" />
        <path
   d="m 10548,13954 -15,-41 v -56 l 5,-68 10,-71 7,-69 -2,-61 -13,-46 -33,-25 -33,-5 -33,5 -30,10 -31,13 -28,20 -30,18 -26,20 -28,20 -5,3 h -5 -5 l -3,-3 -2,-5 v -5 -2 l 2,-5 23,-23 26,-21 28,-20 28,-18 28,-15 30,-13 31,-7 33,-8 53,5 38,28 26,48 12,59 5,63 -2,67 -8,55 -10,46 15,-23 18,-23 18,-20 20,-20 23,-36 28,-38 33,-41 36,-43 33,-43 30,-43 23,-46 13,-46 v 0 h 2 3 v 0 36 l -5,35 -13,36 -15,36 -18,33 -23,30 -23,28 -23,28 21,-10 23,-10 20,-10 23,-11 20,-7 23,-8 20,-5 23,-5 11,-13 15,-15 18,-20 15,-26 15,-28 8,-35 2,-43 -7,-51 v 0 h 2 3 v 0 l 23,48 10,41 2,35 -5,31 -10,23 -10,17 -10,16 -8,7 13,-2 h 15 l 13,-3 h 15 l 15,-2 h 16 12 15 l 28,-23 26,-26 23,-28 18,-30 15,-33 15,-36 10,-33 13,-35 v 0 h 2 3 v 2 33 l -3,33 -2,33 -5,33 -10,31 -13,28 -20,28 -23,23 h 15 13 15 15 13 15 l 13,2 h 15 l 31,-15 30,-18 33,-18 28,-20 26,-23 20,-25 10,-31 3,-38 v -2 -3 l 2,-3 3,6 7,30 3,31 -8,28 -12,25 -18,23 -21,23 -25,18 -25,17 89,-12 68,-33 46,-49 25,-58 8,-64 -13,-68 -25,-64 -41,-58 -5,-5 -7,-6 -6,-5 v -2 h 6 l 7,2 8,5 5,6 41,50 30,49 20,45 13,44 3,40 -5,41 -13,36 -15,33 -23,30 -28,28 -31,23 -33,20 -33,16 -38,12 -36,8 -35,5 h -28 -33 -36 -38 -41 l -40,2 h -46 l -46,6 -46,5 -45,7 -46,10 -46,13 -43,15 -43,21 -41,25 -38,28 -28,26 -28,27 -28,31 -23,33 -20,31 -18,35 -13,33 -10,33 -13,38 -17,36 -26,28 -28,23 -30,12 -33,3 -33,-10 -34,-26 v 0 l -2,-2 h 2 3 l 33,2 33,-2 28,-10 28,-13 23,-20 18,-26 12,-30 8,-38 3,-21 2,-18 3,-17 z"
   id="path211"
   inkscape:connector-curvature="0"
   style="fill:#000000;stroke:none" />
        <path
   d="m 10263,13517 64,-54 58,-45 56,-38 51,-28 48,-23 43,-16 41,-10 38,-5 h 33 l 31,3 25,5 23,10 20,8 16,10 10,10 7,10 6,5 7,5 h 8 l 7,-5 6,-5 2,-5 v -8 l -2,-10 -8,-23 -13,-17 -18,-18 -22,-13 -28,-10 -31,-5 -36,-3 -38,5 -43,8 -43,15 -48,21 -49,28 -51,33 -53,43 -53,48 -56,59 20,-39 23,-35 25,-36 26,-35 30,-33 31,-31 35,-30 36,-31 5,5 5,3 5,2 5,-2 41,-26 41,-17 40,-13 38,-8 39,-2 35,2 36,5 30,13 31,13 28,17 25,21 23,23 18,25 15,26 13,25 10,28 v 0 l 3,-3 h 2 v 0 l -8,-48 -20,-46 -28,-43 -41,-38 -50,-28 -61,-18 -72,-7 -78,10 12,-8 13,-5 13,-8 12,-5 16,-5 12,-5 13,-7 15,-6 3,11 5,7 8,5 h 7 l 51,-2 h 48 46 l 41,5 41,5 35,5 31,10 30,8 26,13 25,10 20,12 18,11 15,12 16,13 10,13 7,10 v 0 h 3 v -3 0 l -8,-28 -23,-30 -35,-28 -46,-31 -56,-22 -66,-21 -76,-10 -84,-2 18,-3 18,-5 17,-3 18,-5 18,-2 18,-3 20,-2 18,-3 h 28 l 30,-2 31,2 35,3 36,2 38,8 38,7 38,11 39,12 35,18 33,18 33,23 31,28 25,30 23,36 18,40 v 0 l 2,-2 h 3 v 0 l -10,-36 -15,-35 -23,-38 -33,-33 -41,-31 -53,-28 -64,-23 -79,-15 43,5 44,5 40,10 41,13 41,18 35,18 36,25 33,28 5,3 h 5 5 l 3,-3 2,-5 3,-5 -3,-3 -2,-5 -11,-12 -10,-13 -12,-13 -16,-15 -17,-13 -21,-13 -23,-12 -25,-13 -31,-13 -30,-10 -33,-10 -38,-8 -41,-5 -43,-5 h -46 -51 l -101,8 -97,18 -92,25 -84,33 -78,38 -72,46 -66,46 -58,53 -54,53 -45,56 -41,56 -36,56 -28,54 -20,53 -15,48 -10,46 -5,86 2,82 13,71 20,63 26,56 33,44 35,30 38,20 h 3 v -2 -3 0 l -23,-33 -28,-51 -25,-66 -21,-76 -12,-86 v -97 l 15,-99 z"
   id="path213"
   inkscape:connector-curvature="0"
   style="fill:#000000;stroke:none" />
       </g>
      </g>
     </g>
    </g>
   </g>
  </g>
 </g>
</svg>