<?xml version="1.0" encoding="UTF-8" standalone="no"?>
<svg
   xmlns:ooo="http://xml.openoffice.org/svg/export"
   xmlns:dc="http://purl.org/dc/elements/1.1/"
   xmlns:cc="http://creativecommons.org/ns#"
   xmlns:rdf="http://www.w3.org/1999/02/22-rdf-syntax-ns#"
   xmlns:svg="http://www.w3.org/2000/svg"
   xmlns="http://www.w3.org/2000/svg"
   xmlns:sodipodi="http://sodipodi.sourceforge.net/DTD/sodipodi-0.dtd"
   xmlns:inkscape="http://www.inkscape.org/namespaces/inkscape"
   version="1.2"
   width="22.709999mm"
   height="17.27mm"
   viewBox="0 0 2270.9999 1727"
   preserveAspectRatio="xMidYMid"
   xml:space="preserve"
   id="svg279"
   sodipodi:docname="needle.svg"
   style="fill-rule:evenodd;stroke-width:28.22200012;stroke-linejoin:round"
   inkscape:version="0.92.5 (2060ec1f9f, 2020-04-08)"><metadata
   id="metadata283"><rdf:RDF><cc:Work
       rdf:about=""><dc:format>image/svg+xml</dc:format><dc:type
         rdf:resource="http://purl.org/dc/dcmitype/StillImage" /></cc:Work></rdf:RDF></metadata><sodipodi:namedview
   pagecolor="#ffffff"
   bordercolor="#666666"
   borderopacity="1"
   objecttolerance="10"
   gridtolerance="10"
   guidetolerance="10"
   inkscape:pageopacity="0"
   inkscape:pageshadow="2"
   inkscape:window-width="664"
   inkscape:window-height="487"
   id="namedview281"
   showgrid="false"
   inkscape:zoom="0.2102413"
   inkscape:cx="42.935434"
   inkscape:cy="32.617321"
   inkscape:window-x="0"
   inkscape:window-y="0"
   inkscape:window-maximized="0"
   inkscape:current-layer="svg279" />
 <defs
   class="ClipPathGroup"
   id="defs8">
  <clipPath
   id="presentation_clip_path"
   clipPathUnits="userSpaceOnUse">
   <rect
   x="0"
   y="0"
   width="21000"
   height="29700"
   id="rect2" />
  </clipPath>
  <clipPath
   id="presentation_clip_path_shrink"
   clipPathUnits="userSpaceOnUse">
   <rect
   x="21"
   y="29"
   width="20958"
   height="29641"
   id="rect5" />
  </clipPath>
 </defs>
 <defs
   class="TextShapeIndex"
   id="defs12">
  <g
   ooo:slide="id1"
   ooo:id-list="id3"
   id="g10" />
 </defs>
 <defs
   class="EmbeddedBulletChars"
   id="defs44">
  <g
   id="bullet-char-template-57356"
   transform="matrix(4.8828125e-4,0,0,-4.8828125e-4,0,0)">
   <path
   d="M 580,1141 1163,571 580,0 -4,571 Z"
   id="path14"
   inkscape:connector-curvature="0" />
  </g>
  <g
   id="bullet-char-template-57354"
   transform="matrix(4.8828125e-4,0,0,-4.8828125e-4,0,0)">
   <path
   d="M 8,1128 H 1137 V 0 H 8 Z"
   id="path17"
   inkscape:connector-curvature="0" />
  </g>
  <g
   id="bullet-char-template-10146"
   transform="matrix(4.8828125e-4,0,0,-4.8828125e-4,0,0)">
   <path
   d="M 174,0 602,739 174,1481 1456,739 Z M 1358,739 309,1346 659,739 Z"
   id="path20"
   inkscape:connector-curvature="0" />
  </g>
  <g
   id="bullet-char-template-10132"
   transform="matrix(4.8828125e-4,0,0,-4.8828125e-4,0,0)">
   <path
   d="M 2015,739 1276,0 H 717 l 543,543 H 174 v 393 h 1086 l -543,545 h 557 z"
   id="path23"
   inkscape:connector-curvature="0" />
  </g>
  <g
   id="bullet-char-template-10007"
   transform="matrix(4.8828125e-4,0,0,-4.8828125e-4,0,0)">
   <path
   d="m 0,-2 c -7,16 -16,29 -25,39 l 381,530 c -94,256 -141,385 -141,387 0,25 13,38 40,38 9,0 21,-2 34,-5 21,4 42,12 65,25 l 27,-13 111,-251 280,301 64,-25 24,25 c 21,-10 41,-24 62,-43 C 886,937 835,863 770,784 769,783 710,716 594,584 L 774,223 c 0,-27 -21,-55 -63,-84 l 16,-20 C 717,90 699,76 672,76 641,76 570,178 457,381 L 164,-76 c -22,-34 -53,-51 -92,-51 -42,0 -63,17 -64,51 -7,9 -10,24 -10,44 0,9 1,19 2,30 z"
   id="path26"
   inkscape:connector-curvature="0" />
  </g>
  <g
   id="bullet-char-template-10004"
   transform="matrix(4.8828125e-4,0,0,-4.8828125e-4,0,0)">
   <path
   d="M 285,-33 C 182,-33 111,30 74,156 52,228 41,333 41,471 c 0,78 14,145 41,201 34,71 87,106 158,106 53,0 88,-31 106,-94 l 23,-176 c 8,-64 28,-97 59,-98 l 735,706 c 11,11 33,17 66,17 42,0 63,-15 63,-46 V 965 c 0,-36 -10,-64 -30,-84 L 442,47 C 390,-6 338,-33 285,-33 Z"
   id="path29"
   inkscape:connector-curvature="0" />
  </g>
  <g
   id="bullet-char-template-9679"
   transform="matrix(4.8828125e-4,0,0,-4.8828125e-4,0,0)">
   <path
   d="M 813,0 C 632,0 489,54 383,161 276,268 223,411 223,592 c 0,181 53,324 160,431 106,107 249,161 430,161 179,0 323,-54 432,-161 108,-107 162,-251 162,-431 0,-180 -54,-324 -162,-431 C 1136,54 992,0 813,0 Z"
   id="path32"
   inkscape:connector-curvature="0" />
  </g>
  <g
   id="bullet-char-template-8226"
   transform="matrix(4.8828125e-4,0,0,-4.8828125e-4,0,0)">
   <path
   d="m 346,457 c -73,0 -137,26 -191,78 -54,51 -81,114 -81,188 0,73 27,136 81,188 54,52 118,78 191,78 73,0 134,-26 185,-79 51,-51 77,-114 77,-187 0,-75 -25,-137 -76,-188 -50,-52 -112,-78 -186,-78 z"
   id="path35"
   inkscape:connector-curvature="0" />
  </g>
  <g
   id="bullet-char-template-8211"
   transform="matrix(4.8828125e-4,0,0,-4.8828125e-4,0,0)">
   <path
   d="M -4,459 H 1135 V 606 H -4 Z"
   id="path38"
   inkscape:connector-curvature="0" />
  </g>
  <g
   id="bullet-char-template-61548"
   transform="matrix(4.8828125e-4,0,0,-4.8828125e-4,0,0)">
   <path
   d="m 173,740 c 0,163 58,303 173,419 116,115 255,173 419,173 163,0 302,-58 418,-173 116,-116 174,-256 174,-419 0,-163 -58,-303 -174,-418 C 1067,206 928,148 765,148 601,148 462,206 346,322 231,437 173,577 173,740 Z"
   id="path41"
   inkscape:connector-curvature="0" />
  </g>
 </defs>
 <g
   id="g49"
   transform="translate(-9364,-13986)">
  <g
   id="id2"
   class="Master_Slide">
   <g
   id="bg-id2"
   class="Background" />
   <g
   id="bo-id2"
   class="BackgroundObjects" />
  </g>
 </g>
 <g
   class="SlideGroup"
   id="g277"
   transform="translate(-9364,-13986)">
  <g
   id="g275">
   <g
   id="container-id1">
    <g
   id="id1"
   class="Slide"
   clip-path="url(#presentation_clip_path)">
     <g
   class="Page"
   id="g271">
      <g
   class="Graphic"
   id="g269">
       <g
   id="id3">
        <rect
   class="BoundingBox"
   x="9364"
   y="13986"
   width="2271"
   height="1727"
   id="rect51"
   style="fill:none;stroke:none" />
        <defs
   id="defs56">
         <clipPath
   id="clip_path_1"
   clipPathUnits="userSpaceOnUse">
          <path
   d="m 9364,13986 h 2270 v 1726 H 9364 Z"
   id="path53"
   inkscape:connector-curvature="0" />
         </clipPath>
        </defs>
        <g
   clip-path="url(#clip_path_1)"
   id="g266">
         <path
   d="m 10236,15421 -389,-532 -152,109 391,532 z"
   id="path58"
   inkscape:connector-curvature="0"
   style="fill:#ffffff;stroke:none" />
         <path
   d="m 9855,14899 -18,-2 389,531 20,-15 -389,-532 -17,-2 17,2 -7,-5 -10,3 -6,7 3,11 z"
   id="path60"
   inkscape:connector-curvature="0"
   style="fill:#000000;stroke:none" />
         <path
   d="m 9705,14991 -3,17 153,-109 -15,-20 -153,109 -3,18 3,-18 -5,8 2,10 8,5 10,-3 z"
   id="path62"
   inkscape:connector-curvature="0"
   style="fill:#000000;stroke:none" />
         <path
   d="m 10079,15520 17,2 -391,-531 -21,15 392,532 18,2 -18,-2 10,5 8,-3 5,-8 -3,-10 z"
   id="path64"
   inkscape:connector-curvature="0"
   style="fill:#000000;stroke:none" />
         <path
   d="m 10226,15428 3,-18 -150,110 15,20 150,-109 2,-18 -2,18 5,-10 -3,-8 -7,-5 -10,2 z"
   id="path66"
   inkscape:connector-curvature="0"
   style="fill:#000000;stroke:none" />
         <path
   d="m 11004,14451 -33,-58 -18,-53 -2,-46 18,-28 -1081,788 -18,28 3,43 17,54 33,58 z"
   id="path68"
   inkscape:connector-curvature="0"
   style="fill:#ffffff;stroke:none" />
         <path
   d="m 10976,14276 -15,-20 -23,35 3,51 18,56 35,61 20,-15 -30,-56 -18,-51 -2,-41 12,-20 -15,-20 15,20 5,-10 -2,-8 -8,-5 -10,3 z"
   id="path70"
   inkscape:connector-curvature="0"
   style="fill:#000000;stroke:none" />
         <path
   d="m 9896,15064 v 0 l 1080,-788 -15,-20 -1081,788 v 0 0 l -5,8 3,10 7,5 z"
   id="path72"
   inkscape:connector-curvature="0"
   style="fill:#000000;stroke:none" />
         <path
   d="m 9916,15227 18,3 -31,-56 -18,-51 -2,-38 13,-21 -16,-20 -23,36 3,48 18,56 35,61 18,3 -18,-3 10,5 8,-2 5,-8 -2,-10 z"
   id="path74"
   inkscape:connector-curvature="0"
   style="fill:#000000;stroke:none" />
         <path
   d="m 10994,14459 3,-18 -1081,786 15,21 1081,-786 2,-18 -2,18 5,-11 -3,-7 -7,-5 -10,2 z"
   id="path76"
   inkscape:connector-curvature="0"
   style="fill:#000000;stroke:none" />
         <path
   d="m 9639,15660 15,-28 v -46 l -20,-54 -33,-58 -23,-28 -21,-23 -25,-18 -20,-15 -23,-10 -21,-5 h -18 l -15,7 -18,28 3,46 18,54 35,58 23,28 21,23 25,18 23,15 20,10 21,5 h 17 z"
   id="path78"
   inkscape:connector-curvature="0"
   style="fill:#ffffff;stroke:none" />
         <path
   d="m 9590,15482 v 0 l 33,56 18,50 v 41 l -10,20 15,21 21,-36 v -51 l -23,-56 -33,-61 v 0 z"
   id="path80"
   inkscape:connector-curvature="0"
   style="fill:#000000;stroke:none" />
         <path
   d="m 9443,15393 v 0 l 10,-6 h 15 l 18,6 20,7 18,15 26,18 17,21 23,28 21,-16 -23,-28 -23,-25 -26,-18 -22,-15 -26,-13 -23,-5 h -20 l -20,10 v 0 z"
   id="path82"
   inkscape:connector-curvature="0"
   style="fill:#000000;stroke:none" />
         <path
   d="m 9484,15560 v 0 l -36,-56 -15,-50 -3,-41 13,-20 -15,-21 -23,36 2,51 21,56 35,61 v 0 z"
   id="path84"
   inkscape:connector-curvature="0"
   style="fill:#000000;stroke:none" />
         <path
   d="m 9631,15649 v 0 l -10,6 h -15 l -18,-6 -18,-7 -20,-15 -26,-18 -18,-21 -22,-28 -21,16 23,28 23,25 25,18 26,15 23,13 23,5 h 20 l 20,-10 v 0 z"
   id="path86"
   inkscape:connector-curvature="0"
   style="fill:#000000;stroke:none" />
         <path
   d="m 11170,14543 17,-28 -2,-46 -18,-53 -33,-59 -23,-28 -20,-23 -26,-17 -20,-16 -23,-10 -20,-5 h -18 l -15,8 -18,28 2,46 18,53 33,58 23,28 21,23 25,18 23,15 20,11 21,5 h 17 z"
   id="path88"
   inkscape:connector-curvature="0"
   style="fill:#ffffff;stroke:none" />
         <path
   d="m 11124,14365 v 0 l 30,56 18,51 3,40 -13,21 15,20 23,-35 -2,-51 -18,-56 -36,-61 v 0 z"
   id="path90"
   inkscape:connector-curvature="0"
   style="fill:#000000;stroke:none" />
         <path
   d="m 10976,14276 v 0 l 11,-5 h 15 l 18,5 20,8 18,15 25,18 18,20 23,28 20,-15 -23,-28 -23,-26 -25,-18 -23,-15 -25,-12 -23,-6 h -21 l -20,11 v 0 z"
   id="path92"
   inkscape:connector-curvature="0"
   style="fill:#000000;stroke:none" />
         <path
   d="m 11014,14444 v 0 l -30,-56 -18,-51 -2,-41 12,-20 -15,-20 -23,35 3,51 18,56 35,61 v 0 z"
   id="path94"
   inkscape:connector-curvature="0"
   style="fill:#000000;stroke:none" />
         <path
   d="m 11162,14533 v 0 l -10,5 h -15 l -18,-5 -18,-8 -20,-15 -26,-18 -18,-20 -23,-28 -20,15 23,28 23,25 25,18 26,16 23,12 23,5 h 20 l 20,-10 v 0 z"
   id="path96"
   inkscape:connector-curvature="0"
   style="fill:#000000;stroke:none" />
         <path
   d="m 11256,14268 -20,-23 -21,-15 -17,-5 -16,3 -134,81 -8,15 v 23 l 8,28 17,31 z"
   id="path98"
   inkscape:connector-curvature="0"
   style="fill:#ffffff;stroke:none" />
         <path
   d="m 11187,14238 h 3 8 l 12,2 18,13 18,23 20,-15 -23,-23 -23,-18 -22,-8 -23,5 h 2 -2 l -5,8 2,10 8,5 10,-2 z"
   id="path100"
   inkscape:connector-curvature="0"
   style="fill:#000000;stroke:none" />
         <path
   d="m 11055,14319 h -2 l 134,-81 -10,-21 -135,82 h -2 2 l -5,5 v 8 l 8,7 h 8 z"
   id="path102"
   inkscape:connector-curvature="0"
   style="fill:#000000;stroke:none" />
         <path
   d="m 11058,14395 18,3 -16,-28 -7,-23 v -20 l 2,-8 -15,-20 -13,23 v 25 l 8,33 20,33 18,3 -18,-3 10,5 8,-2 5,-8 -2,-10 z"
   id="path104"
   inkscape:connector-curvature="0"
   style="fill:#000000;stroke:none" />
         <path
   d="m 11246,14276 2,-18 -190,137 15,21 191,-138 2,-17 -2,17 5,-10 -3,-7 -7,-5 -11,2 z"
   id="path106"
   inkscape:connector-curvature="0"
   style="fill:#000000;stroke:none" />
         <path
   d="m 9888,15339 -333,244 -13,-7 -15,-8 -15,-10 -13,-10 -8,-16 -2,-17 v -16 l -5,-15 333,-244 z"
   id="path108"
   inkscape:connector-curvature="0"
   style="fill:#ffffff;stroke:none" />
         <path
   d="m 9547,15593 h 15 l 334,-244 -16,-20 -333,244 h 15 -15 l -5,8 3,10 7,5 10,-3 z"
   id="path110"
   inkscape:connector-curvature="0"
   style="fill:#000000;stroke:none" />
         <path
   d="m 9489,15555 v 0 l 15,13 18,10 15,8 10,7 15,-20 -15,-8 -15,-7 -13,-10 -10,-8 v 0 z"
   id="path112"
   inkscape:connector-curvature="0"
   style="fill:#000000;stroke:none" />
         <path
   d="m 9476,15474 -5,15 5,10 v 16 l 2,20 11,20 20,-15 -5,-10 -3,-15 v -16 l -5,-20 -5,15 5,-15 -7,-8 h -8 l -10,8 v 10 z"
   id="path114"
   inkscape:connector-curvature="0"
   style="fill:#000000;stroke:none" />
         <path
   d="m 9827,15232 -18,-2 -333,244 15,20 333,-244 -17,-2 17,2 5,-10 -2,-8 -8,-5 -10,3 z"
   id="path116"
   inkscape:connector-curvature="0"
   style="fill:#000000;stroke:none" />
         <path
   d="m 9896,15349 2,-18 -71,-99 -20,16 71,99 2,-18 -2,18 10,5 8,-3 5,-7 -3,-11 z"
   id="path118"
   inkscape:connector-curvature="0"
   style="fill:#000000;stroke:none" />
         <path
   d="m 11220,14271 -5,5 v 8 5 l 3,7 5,5 8,3 h 5 l 7,-5 361,-262 -12,10 -15,3 h -11 l -7,-3 -3,-8 5,-10 8,-12 13,-11 z"
   id="path120"
   inkscape:connector-curvature="0"
   style="fill:#ffffff;stroke:none" />
         <path
   d="m 11228,14289 v 0 -3 -2 -3 0 l -15,-20 -10,10 v 13 7 l 5,13 v 0 z"
   id="path122"
   inkscape:connector-curvature="0"
   style="fill:#000000;stroke:none" />
         <path
   d="m 11236,14289 v 2 h -5 2 -5 v -2 l -20,15 10,8 10,5 h 13 l 10,-11 v 3 -3 l 3,-7 -3,-8 -8,-2 -7,2 z"
   id="path124"
   inkscape:connector-curvature="0"
   style="fill:#000000;stroke:none" />
         <path
   d="m 11612,14047 -15,-20 -361,262 15,20 361,-262 -15,-20 15,20 5,-10 -2,-8 -8,-5 -10,3 z"
   id="path126"
   inkscape:connector-curvature="0"
   style="fill:#000000;stroke:none" />
         <path
   d="m 11551,14055 h -2 l 17,7 h 11 l 20,-2 15,-13 -15,-20 -10,7 -10,3 h -11 l 3,2 h -3 z"
   id="path128"
   inkscape:connector-curvature="0"
   style="fill:#000000;stroke:none" />
         <path
   d="m 11589,14017 -15,-21 -15,13 -8,15 -8,15 8,16 15,-16 h 3 l 2,-5 8,-10 10,-7 -15,-21 15,21 5,-11 -2,-7 -8,-5 -10,2 z"
   id="path130"
   inkscape:connector-curvature="0"
   style="fill:#000000;stroke:none" />
         <path
   d="m 11228,14281 v 0 l 361,-264 -15,-21 -361,265 v 0 0 l -5,7 2,10 8,6 z"
   id="path132"
   inkscape:connector-curvature="0"
   style="fill:#000000;stroke:none" />
         <path
   d="m 9974,15202 -10,-13 -7,-13 -8,-12 -8,-13 448,-326 8,13 7,13 8,15 10,13 z"
   id="path134"
   inkscape:connector-curvature="0"
   style="fill:#cccccc;stroke:none" />
         <path
   d="m 9934,15141 -5,15 10,13 7,12 8,16 10,12 21,-15 -11,-13 -7,-10 -8,-12 -5,-13 -5,15 5,-15 -8,-8 h -7 l -10,8 v 10 z"
   id="path136"
   inkscape:connector-curvature="0"
   style="fill:#000000;stroke:none" />
         <path
   d="m 10402,14820 -21,-5 -447,326 15,20 448,-325 -21,-6 21,6 5,-11 -3,-7 -8,-5 -10,2 z"
   id="path138"
   inkscape:connector-curvature="0"
   style="fill:#000000;stroke:none" />
         <path
   d="m 10430,14889 2,-18 -10,-10 -8,-15 -7,-13 -5,-13 -26,10 10,13 8,13 8,15 10,15 2,-17 -2,17 10,5 8,-2 5,-8 -3,-10 z"
   id="path140"
   inkscape:connector-curvature="0"
   style="fill:#000000;stroke:none" />
         <path
   d="m 9964,15209 18,3 448,-323 -16,-20 -447,323 18,2 -18,-2 -5,7 2,10 8,5 10,-2 z"
   id="path142"
   inkscape:connector-curvature="0"
   style="fill:#000000;stroke:none" />
         <path
   d="m 10442,14861 -33,-59 -18,-53 -2,-43 18,-28 -23,15 -18,28 3,46 17,53 36,59 z"
   id="path144"
   inkscape:connector-curvature="0"
   style="fill:#cccccc;stroke:none" />
         <path
   d="m 10414,14688 -15,-20 -23,35 3,49 18,56 35,61 20,-16 -30,-56 -18,-51 -2,-38 12,-20 -15,-20 15,20 5,-10 -2,-8 -8,-5 -10,3 z"
   id="path146"
   inkscape:connector-curvature="0"
   style="fill:#000000;stroke:none" />
         <path
   d="m 10391,14703 v 0 l 23,-15 -15,-20 -23,15 v 0 0 l -5,8 3,10 7,5 z"
   id="path148"
   inkscape:connector-curvature="0"
   style="fill:#000000;stroke:none" />
         <path
   d="m 10414,14869 18,2 -35,-56 -16,-51 -2,-40 12,-21 -15,-20 -23,36 3,50 20,56 36,61 18,3 -18,-3 10,5 8,-2 5,-8 -3,-10 z"
   id="path150"
   inkscape:connector-curvature="0"
   style="fill:#000000;stroke:none" />
         <path
   d="m 10432,14869 3,-18 -21,18 16,20 20,-18 2,-18 -2,18 5,-10 -3,-8 -7,-5 -10,3 z"
   id="path152"
   inkscape:connector-curvature="0"
   style="fill:#000000;stroke:none" />
         <path
   d="m 10575,14767 -23,-28 -21,-23 -25,-18 -20,-15 -23,-10 -21,-5 h -18 l -15,7 -2,3 -18,28 2,43 18,53 33,59 z"
   id="path154"
   inkscape:connector-curvature="0"
   style="fill:#ffffff;stroke:none" />
         <path
   d="m 10417,14683 v 2 l 10,-5 h 15 l 18,5 20,8 18,15 26,18 17,20 23,28 21,-15 -23,-28 -23,-25 -26,-18 -22,-15 -26,-13 -23,-5 h -20 l -20,10 v 3 -3 l -5,8 2,10 8,5 10,-3 z"
   id="path156"
   inkscape:connector-curvature="0"
   style="fill:#000000;stroke:none" />
         <path
   d="m 10414,14688 v -3 l 3,-2 -15,-15 -3,2 v -2 2 l -2,8 2,7 8,3 7,-3 z"
   id="path158"
   inkscape:connector-curvature="0"
   style="fill:#000000;stroke:none" />
         <path
   d="m 10435,14851 17,2 -30,-56 -18,-51 -2,-38 12,-20 -15,-20 -23,35 3,49 18,56 35,61 18,2 -18,-2 10,5 8,-3 5,-8 -3,-10 z"
   id="path160"
   inkscape:connector-curvature="0"
   style="fill:#000000;stroke:none" />
         <path
   d="m 10564,14774 3,-17 -132,94 15,20 132,-94 3,-18 -3,18 5,-10 -2,-8 -8,-5 -10,3 z"
   id="path162"
   inkscape:connector-curvature="0"
   style="fill:#000000;stroke:none" />
         <path
   d="m 10089,15329 -15,8 h -18 l -21,-6 -20,-10 -23,-15 -25,-18 -21,-23 -23,-28 318,-226 -10,-13 -7,-15 -8,-13 -8,-12 23,-16 5,13 8,13 8,12 10,13 107,-76 -11,-13 -7,-13 -8,-12 -8,-13 23,-18 8,13 8,13 7,12 10,13 105,-76 -10,-13 -8,-13 -8,-12 -5,-13 23,-18 5,13 8,13 7,15 11,13 101,-77 -7,-12 -8,-16 -8,-12 -7,-13 23,-15 5,12 7,13 8,13 10,12 107,-76 -10,-13 -8,-12 -7,-13 -8,-13 23,-18 7,13 8,13 8,13 10,12 104,-76 -10,-13 -8,-12 -7,-13 -5,-13 23,-18 5,13 7,13 8,15 10,13 104,-77 23,28 21,23 25,18 23,15 20,11 21,5 h 17 l 16,-8 z"
   id="path164"
   inkscape:connector-curvature="0"
   style="fill:#c6e5f9;stroke:none" />
         <path
   d="m 9916,15227 -3,18 23,28 23,25 26,18 25,15 23,13 23,5 h 20 l 20,-10 -15,-20 -10,5 h -15 l -18,-5 -18,-8 -20,-15 -26,-18 -17,-20 -23,-28 -3,18 3,-18 -8,-5 -10,2 -5,8 2,10 z"
   id="path166"
   inkscape:connector-curvature="0"
   style="fill:#000000;stroke:none" />
         <path
   d="m 10231,15019 3,-18 -318,226 15,21 318,-227 3,-18 -3,18 5,-10 -2,-8 -8,-5 -10,3 z"
   id="path168"
   inkscape:connector-curvature="0"
   style="fill:#000000;stroke:none" />
         <path
   d="m 10201,14947 -5,16 10,12 7,13 8,15 10,16 21,-16 -11,-10 -7,-15 -8,-13 -5,-12 -5,15 5,-15 -8,-8 h -7 l -10,8 v 10 z"
   id="path170"
   inkscape:connector-curvature="0"
   style="fill:#000000;stroke:none" />
         <path
   d="m 10244,14937 -20,-5 -23,15 15,21 23,-15 -21,-6 21,6 5,-11 -3,-7 -7,-5 -10,2 z"
   id="path172"
   inkscape:connector-curvature="0"
   style="fill:#000000;stroke:none" />
         <path
   d="m 10254,14983 18,3 -10,-13 -8,-10 -8,-13 -2,-13 -26,10 8,13 8,13 7,15 11,13 17,2 -17,-2 10,5 7,-3 5,-7 -2,-10 z"
   id="path174"
   inkscape:connector-curvature="0"
   style="fill:#000000;stroke:none" />
         <path
   d="m 10358,14925 3,-18 -107,76 15,20 107,-76 3,-18 -3,18 5,-10 -2,-8 -8,-5 -10,3 z"
   id="path176"
   inkscape:connector-curvature="0"
   style="fill:#000000;stroke:none" />
         <path
   d="m 10328,14856 -3,18 8,10 8,13 7,15 10,13 21,-16 -10,-12 -8,-11 -8,-12 -7,-16 -3,18 3,-18 -8,-5 -10,3 -5,7 2,11 z"
   id="path178"
   inkscape:connector-curvature="0"
   style="fill:#000000;stroke:none" />
         <path
   d="m 10369,14843 -18,-5 -23,18 15,20 23,-18 -18,-5 18,5 5,-10 -2,-7 -8,-5 -10,2 z"
   id="path180"
   inkscape:connector-curvature="0"
   style="fill:#000000;stroke:none" />
         <path
   d="m 10384,14889 18,2 -11,-12 -7,-10 -8,-13 -7,-13 -21,10 8,13 7,13 8,15 10,13 18,2 -18,-2 10,5 8,-3 5,-7 -2,-11 z"
   id="path182"
   inkscape:connector-curvature="0"
   style="fill:#000000;stroke:none" />
         <path
   d="m 10486,14830 2,-17 -104,76 15,20 104,-76 3,-18 -3,18 5,-10 -2,-8 -8,-5 -10,3 z"
   id="path184"
   inkscape:connector-curvature="0"
   style="fill:#000000;stroke:none" />
         <path
   d="m 10458,14762 -6,15 8,13 8,12 7,16 11,12 20,-15 -10,-13 -8,-10 -8,-12 -2,-13 -5,15 5,-15 -8,-8 h -7 l -11,8 v 10 z"
   id="path186"
   inkscape:connector-curvature="0"
   style="fill:#000000;stroke:none" />
         <path
   d="m 10501,14749 -21,-5 -22,18 15,20 23,-18 -21,-5 21,5 5,-10 -3,-8 -7,-5 -11,3 z"
   id="path188"
   inkscape:connector-curvature="0"
   style="fill:#000000;stroke:none" />
         <path
   d="m 10511,14797 18,3 -10,-10 -8,-16 -8,-12 -2,-13 -26,10 8,13 8,13 7,15 10,15 18,3 -18,-3 11,5 7,-2 5,-8 -2,-10 z"
   id="path190"
   inkscape:connector-curvature="0"
   style="fill:#000000;stroke:none" />
         <path
   d="m 10610,14736 3,-15 -102,76 15,21 102,-77 2,-15 -2,15 5,-10 -3,-7 -7,-5 -10,2 z"
   id="path192"
   inkscape:connector-curvature="0"
   style="fill:#000000;stroke:none" />
         <path
   d="m 10582,14668 -5,15 10,13 8,12 7,16 8,12 20,-10 -7,-13 -8,-15 -7,-13 -6,-12 -5,15 5,-15 -7,-8 h -8 l -10,8 v 10 z"
   id="path194"
   inkscape:connector-curvature="0"
   style="fill:#000000;stroke:none" />
         <path
   d="m 10625,14657 -20,-5 -23,16 15,20 23,-15 -20,-5 20,5 5,-10 -2,-8 -8,-5 -10,2 z"
   id="path196"
   inkscape:connector-curvature="0"
   style="fill:#000000;stroke:none" />
         <path
   d="m 10636,14703 17,3 -10,-13 -7,-10 -8,-13 -3,-13 -25,11 8,12 7,13 8,15 10,13 18,3 -18,-3 10,5 8,-2 5,-8 -3,-10 z"
   id="path198"
   inkscape:connector-curvature="0"
   style="fill:#000000;stroke:none" />
         <path
   d="m 10740,14645 2,-18 -106,76 15,21 107,-77 2,-18 -2,18 5,-10 -3,-8 -7,-5 -11,3 z"
   id="path200"
   inkscape:connector-curvature="0"
   style="fill:#000000;stroke:none" />
         <path
   d="m 10709,14576 -2,18 7,10 8,13 8,15 10,13 20,-16 -10,-12 -8,-10 -7,-13 -8,-15 -2,17 2,-17 -8,-5 -10,2 -5,8 3,10 z"
   id="path202"
   inkscape:connector-curvature="0"
   style="fill:#000000;stroke:none" />
         <path
   d="m 10750,14563 -18,-5 -23,18 16,20 22,-17 -17,-5 17,5 6,-11 -3,-7 -8,-5 -10,2 z"
   id="path204"
   inkscape:connector-curvature="0"
   style="fill:#000000;stroke:none" />
         <path
   d="m 10765,14609 18,3 -10,-13 -8,-10 -7,-13 -8,-13 -20,11 7,12 8,13 8,15 10,13 18,2 -18,-2 10,5 8,-3 5,-7 -3,-10 z"
   id="path206"
   inkscape:connector-curvature="0"
   style="fill:#000000;stroke:none" />
         <path
   d="m 10867,14551 3,-18 -105,76 16,20 104,-76 2,-18 -2,18 5,-10 -3,-8 -7,-5 -10,3 z"
   id="path208"
   inkscape:connector-curvature="0"
   style="fill:#000000;stroke:none" />
         <path
   d="m 10839,14482 -5,15 8,13 7,13 8,15 10,13 20,-16 -10,-12 -7,-11 -8,-12 -3,-13 -5,15 5,-15 -7,-8 h -8 l -10,8 v 10 z"
   id="path210"
   inkscape:connector-curvature="0"
   style="fill:#000000;stroke:none" />
         <path
   d="m 10882,14469 -20,-5 -23,18 15,20 23,-17 -20,-6 20,6 5,-11 -2,-7 -8,-5 -10,2 z"
   id="path212"
   inkscape:connector-curvature="0"
   style="fill:#000000;stroke:none" />
         <path
   d="m 10892,14518 18,2 -10,-10 -8,-15 -7,-13 -3,-13 -25,10 7,13 8,13 8,15 10,15 18,3 -18,-3 10,5 8,-2 5,-8 -3,-10 z"
   id="path214"
   inkscape:connector-curvature="0"
   style="fill:#000000;stroke:none" />
         <path
   d="m 11014,14444 -17,-3 -105,77 16,20 104,-76 -18,-3 18,3 5,-11 -3,-7 -7,-5 -10,2 z"
   id="path216"
   inkscape:connector-curvature="0"
   style="fill:#000000;stroke:none" />
         <path
   d="m 11177,14553 -15,-20 -10,5 h -15 l -18,-5 -18,-8 -20,-15 -26,-18 -18,-20 -23,-28 -20,15 23,28 23,25 25,18 26,16 23,12 23,5 h 20 l 20,-10 -15,-20 15,20 5,-10 -2,-8 -8,-5 -10,3 z"
   id="path218"
   inkscape:connector-curvature="0"
   style="fill:#000000;stroke:none" />
         <path
   d="m 10096,15339 v 0 l 1081,-786 -15,-20 -1081,786 v 0 0 l -5,7 3,11 7,5 z"
   id="path220"
   inkscape:connector-curvature="0"
   style="fill:#000000;stroke:none" />
         <path
   d="m 11604,14037 13,-10 10,-13 3,-10 -3,-8 -7,-5 h -10 l -13,5 -15,10 -13,11 -8,12 -5,10 3,8 7,3 h 11 l 15,-3 z"
   id="path222"
   inkscape:connector-curvature="0"
   style="fill:#ffffff;stroke:none" />
         <path
   d="m 11617,14001 3,3 h -3 v 5 l -7,10 -11,8 11,20 15,-13 13,-15 5,-15 -8,-15 3,2 z"
   id="path224"
   inkscape:connector-curvature="0"
   style="fill:#000000;stroke:none" />
         <path
   d="m 11589,14017 v 0 l 13,-11 10,-2 h 5 v -3 l 21,-10 -16,-13 h -15 l -15,8 -18,10 v 0 z"
   id="path226"
   inkscape:connector-curvature="0"
   style="fill:#000000;stroke:none" />
         <path
   d="m 11569,14039 h -3 3 l 2,-5 8,-10 10,-7 -15,-21 -15,13 -8,15 -8,15 8,16 h -2 z"
   id="path228"
   inkscape:connector-curvature="0"
   style="fill:#000000;stroke:none" />
         <path
   d="m 11599,14027 h -2 l -10,7 -10,3 h -11 l 3,2 -20,16 17,7 h 11 l 20,-2 15,-13 h -2 z"
   id="path230"
   inkscape:connector-curvature="0"
   style="fill:#000000;stroke:none" />
         <path
   d="m 10084,15530 -389,-532 -36,28 389,532 z"
   id="path232"
   inkscape:connector-curvature="0"
   style="fill:#cccccc;stroke:none" />
         <path
   d="m 9702,15008 -18,-2 390,532 20,-16 -389,-531 -18,-3 18,3 -8,-5 -10,2 -5,8 2,10 z"
   id="path234"
   inkscape:connector-curvature="0"
   style="fill:#000000;stroke:none" />
         <path
   d="m 9669,15019 -2,17 35,-28 -15,-20 -36,28 -2,18 2,-18 -5,8 3,10 7,5 11,-3 z"
   id="path236"
   inkscape:connector-curvature="0"
   style="fill:#000000;stroke:none" />
         <path
   d="m 10040,15548 18,2 -389,-531 -20,15 389,531 18,3 -18,-3 10,6 8,-3 5,-8 -3,-10 z"
   id="path238"
   inkscape:connector-curvature="0"
   style="fill:#000000;stroke:none" />
         <path
   d="m 10074,15538 2,-18 -36,28 16,20 35,-28 3,-18 -3,18 5,-10 -2,-8 -8,-5 -10,3 z"
   id="path240"
   inkscape:connector-curvature="0"
   style="fill:#000000;stroke:none" />
         <path
   d="m 9639,15660 -16,7 h -17 l -21,-5 -20,-10 -23,-15 -25,-18 -21,-23 -23,-28 -35,-58 -18,-54 -3,-46 18,-28 -38,28 -15,28 v 44 l 20,53 33,58 23,28 20,23 26,21 23,12 20,13 20,5 h 18 l 16,-7 z"
   id="path242"
   inkscape:connector-curvature="0"
   style="fill:#cccccc;stroke:none" />
         <path
   d="m 9463,15576 v 0 l 23,28 23,25 25,18 26,15 23,13 23,5 h 20 l 20,-10 -15,-21 -10,6 h -15 l -18,-6 -18,-7 -20,-15 -26,-18 -18,-21 -22,-28 v 0 z"
   id="path244"
   inkscape:connector-curvature="0"
   style="fill:#000000;stroke:none" />
         <path
   d="m 9443,15393 -15,-21 -23,36 2,51 21,56 35,61 21,-16 -36,-56 -15,-50 -3,-41 13,-20 -15,-21 15,21 5,-11 -3,-7 -7,-5 -10,2 z"
   id="path246"
   inkscape:connector-curvature="0"
   style="fill:#000000;stroke:none" />
         <path
   d="m 9405,15421 v 0 l 38,-28 -15,-21 -39,28 v 0 0 l -5,8 3,10 8,5 z"
   id="path248"
   inkscape:connector-curvature="0"
   style="fill:#000000;stroke:none" />
         <path
   d="m 9445,15586 v 0 l -33,-56 -17,-51 v -38 l 10,-20 -16,-21 -20,36 v 48 l 23,56 33,61 v 0 z"
   id="path250"
   inkscape:connector-curvature="0"
   style="fill:#000000;stroke:none" />
         <path
   d="m 9593,15677 v 0 l -10,5 h -16 l -15,-5 -20,-10 -20,-12 -26,-18 -18,-23 -23,-28 -20,15 23,28 23,23 25,23 26,13 20,15 25,5 h 21 l 20,-10 v 0 0 l 5,-10 -2,-8 -8,-5 z"
   id="path252"
   inkscape:connector-curvature="0"
   style="fill:#000000;stroke:none" />
         <path
   d="m 9646,15670 -15,-21 -38,28 15,21 38,-28 -15,-21 15,21 5,-10 -2,-8 -8,-5 -10,2 z"
   id="path254"
   inkscape:connector-curvature="0"
   style="fill:#000000;stroke:none" />
         <path
   d="m 11065,14406 13,15 10,10 13,10 13,8 10,5 10,3 h 10 l 8,-3 119,-102 8,-12 v -23 l -8,-23 -15,-26 z"
   id="path256"
   inkscape:connector-curvature="0"
   style="fill:#3893d1;stroke:none" />
         <path
   d="m 11144,14444 v 0 0 h -10 l -8,-3 -7,-2 -10,-8 -13,-10 -8,-8 -12,-15 -21,15 13,16 13,12 12,10 16,8 12,8 13,2 h 10 l 15,-5 v 0 0 l 6,-10 -3,-8 -8,-5 z"
   id="path258"
   inkscape:connector-curvature="0"
   style="fill:#000000;stroke:none" />
         <path
   d="m 11264,14342 v 0 l -120,102 15,20 120,-102 v 0 0 l 5,-10 -2,-7 -8,-5 z"
   id="path260"
   inkscape:connector-curvature="0"
   style="fill:#000000;stroke:none" />
         <path
   d="m 11264,14278 -18,-2 15,23 5,18 v 20 l -2,5 15,20 13,-20 v -25 l -10,-28 -16,-28 -18,-3 18,3 -7,-5 -11,2 -5,8 3,10 z"
   id="path262"
   inkscape:connector-curvature="0"
   style="fill:#000000;stroke:none" />
         <path
   d="m 11076,14398 -3,18 191,-138 -16,-20 -190,137 -3,18 3,-18 -5,8 2,10 8,5 10,-2 z"
   id="path264"
   inkscape:connector-curvature="0"
   style="fill:#000000;stroke:none" />
        </g>
       </g>
      </g>
     </g>
    </g>
   </g>
  </g>
 </g>
</svg>