<?xml version="1.0" encoding="UTF-8" standalone="no"?>
<svg
   xmlns:ooo="http://xml.openoffice.org/svg/export"
   xmlns:dc="http://purl.org/dc/elements/1.1/"
   xmlns:cc="http://creativecommons.org/ns#"
   xmlns:rdf="http://www.w3.org/1999/02/22-rdf-syntax-ns#"
   xmlns:svg="http://www.w3.org/2000/svg"
   xmlns="http://www.w3.org/2000/svg"
   xmlns:sodipodi="http://sodipodi.sourceforge.net/DTD/sodipodi-0.dtd"
   xmlns:inkscape="http://www.inkscape.org/namespaces/inkscape"
   version="1.2"
   width="190mm"
   height="267.20999mm"
   viewBox="0 0 19000 26720.999"
   preserveAspectRatio="xMidYMid"
   xml:space="preserve"
   id="svg113"
   sodipodi:docname="nwyrcupd.svg"
   style="fill-rule:evenodd;stroke-width:28.22200012;stroke-linejoin:round"
   inkscape:version="0.92.5 (2060ec1f9f, 2020-04-08)"><metadata
   id="metadata117"><rdf:RDF><cc:Work
       rdf:about=""><dc:format>image/svg+xml</dc:format><dc:type
         rdf:resource="http://purl.org/dc/dcmitype/StillImage" /></cc:Work></rdf:RDF></metadata><sodipodi:namedview
   pagecolor="#ffffff"
   bordercolor="#666666"
   borderopacity="1"
   objecttolerance="10"
   gridtolerance="10"
   guidetolerance="10"
   inkscape:pageopacity="0"
   inkscape:pageshadow="2"
   inkscape:window-width="664"
   inkscape:window-height="487"
   id="namedview115"
   showgrid="false"
   inkscape:zoom="0.2102413"
   inkscape:cx="359.05512"
   inkscape:cy="504.94488"
   inkscape:window-x="0"
   inkscape:window-y="0"
   inkscape:window-maximized="0"
   inkscape:current-layer="svg113" />
 <defs
   class="ClipPathGroup"
   id="defs8">
  <clipPath
   id="presentation_clip_path"
   clipPathUnits="userSpaceOnUse">
   <rect
   x="0"
   y="0"
   width="21000"
   height="29700"
   id="rect2" />
  </clipPath>
  <clipPath
   id="presentation_clip_path_shrink"
   clipPathUnits="userSpaceOnUse">
   <rect
   x="21"
   y="29"
   width="20958"
   height="29641"
   id="rect5" />
  </clipPath>
 </defs>
 <defs
   class="TextShapeIndex"
   id="defs12">
  <g
   ooo:slide="id1"
   ooo:id-list="id3"
   id="g10" />
 </defs>
 <defs
   class="EmbeddedBulletChars"
   id="defs44">
  <g
   id="bullet-char-template-57356"
   transform="matrix(4.8828125e-4,0,0,-4.8828125e-4,0,0)">
   <path
   d="M 580,1141 1163,571 580,0 -4,571 Z"
   id="path14"
   inkscape:connector-curvature="0" />
  </g>
  <g
   id="bullet-char-template-57354"
   transform="matrix(4.8828125e-4,0,0,-4.8828125e-4,0,0)">
   <path
   d="M 8,1128 H 1137 V 0 H 8 Z"
   id="path17"
   inkscape:connector-curvature="0" />
  </g>
  <g
   id="bullet-char-template-10146"
   transform="matrix(4.8828125e-4,0,0,-4.8828125e-4,0,0)">
   <path
   d="M 174,0 602,739 174,1481 1456,739 Z M 1358,739 309,1346 659,739 Z"
   id="path20"
   inkscape:connector-curvature="0" />
  </g>
  <g
   id="bullet-char-template-10132"
   transform="matrix(4.8828125e-4,0,0,-4.8828125e-4,0,0)">
   <path
   d="M 2015,739 1276,0 H 717 l 543,543 H 174 v 393 h 1086 l -543,545 h 557 z"
   id="path23"
   inkscape:connector-curvature="0" />
  </g>
  <g
   id="bullet-char-template-10007"
   transform="matrix(4.8828125e-4,0,0,-4.8828125e-4,0,0)">
   <path
   d="m 0,-2 c -7,16 -16,29 -25,39 l 381,530 c -94,256 -141,385 -141,387 0,25 13,38 40,38 9,0 21,-2 34,-5 21,4 42,12 65,25 l 27,-13 111,-251 280,301 64,-25 24,25 c 21,-10 41,-24 62,-43 C 886,937 835,863 770,784 769,783 710,716 594,584 L 774,223 c 0,-27 -21,-55 -63,-84 l 16,-20 C 717,90 699,76 672,76 641,76 570,178 457,381 L 164,-76 c -22,-34 -53,-51 -92,-51 -42,0 -63,17 -64,51 -7,9 -10,24 -10,44 0,9 1,19 2,30 z"
   id="path26"
   inkscape:connector-curvature="0" />
  </g>
  <g
   id="bullet-char-template-10004"
   transform="matrix(4.8828125e-4,0,0,-4.8828125e-4,0,0)">
   <path
   d="M 285,-33 C 182,-33 111,30 74,156 52,228 41,333 41,471 c 0,78 14,145 41,201 34,71 87,106 158,106 53,0 88,-31 106,-94 l 23,-176 c 8,-64 28,-97 59,-98 l 735,706 c 11,11 33,17 66,17 42,0 63,-15 63,-46 V 965 c 0,-36 -10,-64 -30,-84 L 442,47 C 390,-6 338,-33 285,-33 Z"
   id="path29"
   inkscape:connector-curvature="0" />
  </g>
  <g
   id="bullet-char-template-9679"
   transform="matrix(4.8828125e-4,0,0,-4.8828125e-4,0,0)">
   <path
   d="M 813,0 C 632,0 489,54 383,161 276,268 223,411 223,592 c 0,181 53,324 160,431 106,107 249,161 430,161 179,0 323,-54 432,-161 108,-107 162,-251 162,-431 0,-180 -54,-324 -162,-431 C 1136,54 992,0 813,0 Z"
   id="path32"
   inkscape:connector-curvature="0" />
  </g>
  <g
   id="bullet-char-template-8226"
   transform="matrix(4.8828125e-4,0,0,-4.8828125e-4,0,0)">
   <path
   d="m 346,457 c -73,0 -137,26 -191,78 -54,51 -81,114 -81,188 0,73 27,136 81,188 54,52 118,78 191,78 73,0 134,-26 185,-79 51,-51 77,-114 77,-187 0,-75 -25,-137 -76,-188 -50,-52 -112,-78 -186,-78 z"
   id="path35"
   inkscape:connector-curvature="0" />
  </g>
  <g
   id="bullet-char-template-8211"
   transform="matrix(4.8828125e-4,0,0,-4.8828125e-4,0,0)">
   <path
   d="M -4,459 H 1135 V 606 H -4 Z"
   id="path38"
   inkscape:connector-curvature="0" />
  </g>
  <g
   id="bullet-char-template-61548"
   transform="matrix(4.8828125e-4,0,0,-4.8828125e-4,0,0)">
   <path
   d="m 173,740 c 0,163 58,303 173,419 116,115 255,173 419,173 163,0 302,-58 418,-173 116,-116 174,-256 174,-419 0,-163 -58,-303 -174,-418 C 1067,206 928,148 765,148 601,148 462,206 346,322 231,437 173,577 173,740 Z"
   id="path41"
   inkscape:connector-curvature="0" />
  </g>
 </defs>
 <g
   id="g49"
   transform="translate(-1000,-1489)">
  <g
   id="id2"
   class="Master_Slide">
   <g
   id="bg-id2"
   class="Background" />
   <g
   id="bo-id2"
   class="BackgroundObjects" />
  </g>
 </g>
 <g
   class="SlideGroup"
   id="g111"
   transform="translate(-1000,-1489)">
  <g
   id="g109">
   <g
   id="container-id1">
    <g
   id="id1"
   class="Slide"
   clip-path="url(#presentation_clip_path)">
     <g
   class="Page"
   id="g105">
      <g
   class="Graphic"
   id="g103">
       <g
   id="id3">
        <rect
   class="BoundingBox"
   x="1000"
   y="1489"
   width="19000"
   height="26721"
   id="rect51"
   style="fill:none;stroke:none" />
        <defs
   id="defs56">
         <clipPath
   id="clip_path_1"
   clipPathUnits="userSpaceOnUse">
          <path
   d="M 1000,1489 H 19999 V 28209 H 1000 Z"
   id="path53"
   inkscape:connector-curvature="0" />
         </clipPath>
        </defs>
        <g
   clip-path="url(#clip_path_1)"
   id="g100">
         <path
   d="m 17863,10813 -54,-59 -76,-59 -94,-59 -101,-58 -99,-60 -95,-64 -71,-65 -47,-71 6,-12 18,-18 23,-17 36,-12 170,12 171,12 171,12 171,5 171,6 171,7 164,-7 171,-11 159,-12 165,-30 158,-34 159,-42 154,-59 153,-65 152,-83 148,-99 18,-12 17,-12 12,-18 11,-23 12,-24 7,-29 5,-35 v -42 l -5,-23 -7,-24 -17,-23 -23,-30 -24,-30 -30,-29 -29,-30 -30,-29 -123,6 h -130 l -135,-12 -136,-5 -136,-18 -141,-19 -141,-22 -141,-25 -141,-28 -142,-29 -146,-30 -142,-30 -146,-29 -142,-30 -141,-29 -142,-24 -141,-24 -141,-23 -136,-17 -136,-12 -129,-12 -130,-6 h -129 l -118,6 -118,12 -118,23 -112,24 -99,35 -101,47 -100,54 -89,65 -82,70 65,-142 71,-159 77,-171 75,-176 84,-189 76,-200 70,-201 65,-211 47,-213 35,-217 24,-218 -5,-218 -24,-218 -53,-213 -83,-211 -112,-206 -70,-64 -71,-60 -58,-53 -54,-47 -47,-47 -30,-53 -5,-60 5,-64 637,-1578 30,-30 35,-17 29,-24 35,-18 35,-18 37,-22 35,-30 40,-36 19,-94 v -95 -87 l -19,-82 -23,-77 -35,-84 -42,-75 -47,-71 -59,-77 -58,-70 -71,-77 -77,-76 -82,-72 -89,-82 -94,-77 -94,-82 -177,-136 -194,-129 -200,-130 -213,-123 -217,-117 -224,-107 -236,-101 -241,-94 -241,-82 -248,-70 -253,-54 -248,-47 -253,-23 -253,-12 -247,6 -248,29 -107,24 -99,18 -106,23 -101,24 -99,23 -101,24 -100,23 -94,29 -101,30 -87,30 -94,35 -89,41 -83,35 -82,48 -76,47 -77,47 -165,1885 -352,158 -325,160 -288,170 -260,171 -229,189 -195,188 -176,207 -141,212 -118,229 -94,242 -71,259 -41,271 -24,294 v 313 l 24,329 41,354 -165,-106 -165,-100 -164,-101 -159,-99 -166,-101 -164,-94 -166,-100 -164,-94 -165,-89 -165,-94 -165,-88 -171,-89 -171,-87 -176,-89 -177,-89 -176,-82 -42,5 -35,12 -36,25 -29,29 -24,41 -18,41 -5,47 -7,53 54,154 65,136 77,128 87,112 94,107 101,99 100,100 106,95 105,100 113,107 100,104 100,119 94,130 89,141 82,159 65,176 -41,94 -89,77 -112,65 -129,53 -136,59 -129,65 -112,77 -83,94 -11,28 -7,30 -5,30 v 29 35 l 5,36 7,41 11,47 30,42 41,23 53,12 h 53 65 59 l 59,12 59,23 41,12 30,35 18,47 -7,42 -35,64 -35,60 -36,64 -41,60 -35,58 -30,59 -24,54 -11,52 v 53 l 29,41 41,30 60,12 64,11 65,6 64,12 60,6 59,23 47,24 41,30 29,29 24,41 11,47 12,54 v 58 l -200,112 -212,101 -218,87 -223,83 -231,70 -235,65 -236,65 -247,59 -242,59 -247,65 -247,59 -248,70 -247,71 -248,83 -241,94 -241,99 -106,-52 -112,-42 -112,-28 -113,-19 -117,-11 -118,6 -112,5 -117,19 -112,23 -106,29 -106,35 -100,42 -95,35 -88,47 -82,42 -72,40 -388,300 -29,30 -30,36 -17,41 -7,47 v 47 l 24,42 47,40 70,25 47,17 47,5 h 54 l 53,7 54,6 40,12 42,22 23,42 -53,53 -59,59 -53,54 -59,58 -52,53 -59,59 -53,53 -54,53 -59,101 -29,111 -6,118 18,118 41,117 53,107 71,88 77,76 82,24 76,12 71,-7 64,-10 66,-24 58,-30 54,-35 52,-42 18,7 42,5 35,12 17,6 89,12 82,5 h 77 l 64,-11 65,-24 59,-23 59,-30 59,-29 54,-35 59,-36 57,-41 60,-36 71,-35 70,-30 77,-29 82,-23 47,-17 47,-36 35,-47 37,-53 34,-65 30,-65 23,-64 24,-65 124,65 124,52 129,54 130,40 136,36 134,29 136,24 142,18 141,5 141,7 142,-7 141,-5 147,-18 141,-24 141,-23 142,-35 148,-66 147,-58 129,-42 130,-41 123,-29 118,-18 118,-18 112,-5 113,-6 h 111 117 l 112,6 124,5 124,12 129,6 136,6 47,12 52,35 60,53 54,65 58,71 47,70 42,59 29,53 -71,88 -65,89 -65,94 -59,106 -58,106 -53,106 -48,118 -40,118 -47,117 -36,124 -36,130 -29,130 -30,128 -23,134 -17,130 -18,136 -71,99 -70,107 -66,94 -64,100 -59,99 -59,95 -54,101 -52,94 -47,100 -47,106 -47,100 -35,106 -42,112 -30,111 -29,119 -29,124 -29,193 -25,189 -17,189 -18,188 -12,189 -12,188 -5,189 -12,183 -6,182 -12,183 -5,182 -18,182 -12,177 -17,177 -24,177 -30,171 -41,135 -35,135 -24,136 -23,135 -12,136 -6,129 v 136 l 6,129 6,130 12,135 17,130 24,129 24,124 23,130 29,130 24,129 30,124 29,129 35,124 23,129 30,124 29,129 25,124 23,124 17,130 18,123 12,131 6,122 v 124 131 l -6,122 -18,130 12,177 12,176 6,172 12,176 v 171 l 5,171 6,171 6,164 6,166 12,170 12,165 18,165 23,159 24,165 29,165 41,159 -824,642 -77,42 -89,58 -94,76 -88,83 -76,94 -47,89 -13,89 35,76 72,76 76,71 71,59 82,47 89,36 94,17 112,5 124,-10 146,-18 142,-19 148,-17 146,-23 148,-24 142,-23 147,-24 146,-24 142,-24 148,-17 141,-18 147,-12 147,-5 148,-6 141,6 147,5 71,-35 70,-35 59,-42 53,-47 47,-52 36,-77 23,-82 6,-107 -6,-29 -23,-52 -29,-72 -36,-70 -41,-77 -30,-77 -24,-64 -5,-54 71,-146 65,-154 58,-152 54,-154 40,-153 42,-159 41,-153 30,-159 28,-159 24,-159 24,-159 23,-153 24,-159 18,-159 18,-159 17,-160 23,-152 18,-159 24,-154 23,-153 30,-154 29,-146 35,-147 42,-148 41,-147 53,-141 53,-142 65,-135 65,-135 77,-136 82,-129 94,-125 41,-29 36,-24 29,-18 29,-17 24,-12 18,-6 12,-5 h 5 l 159,152 153,166 153,170 141,177 142,183 134,188 136,194 124,201 124,206 117,206 112,218 113,218 105,224 94,223 101,231 88,235 29,129 35,119 42,117 47,112 47,106 47,106 47,107 48,99 41,106 35,100 23,107 19,106 11,105 -5,112 -18,118 -35,124 11,112 6,117 6,113 12,105 18,106 34,100 42,89 65,89 147,70 130,53 112,35 94,12 88,-6 76,-30 65,-40 65,-65 88,18 82,11 77,6 h 77 l 71,-6 70,-11 65,-18 65,-24 64,-23 60,-36 53,-35 53,-42 52,-40 54,-54 47,-53 47,-52 18,-94 23,-94 17,-84 12,-82 12,-77 12,-77 6,-70 v -71 l -6,-76 -6,-71 -18,-70 -17,-77 -30,-76 -35,-82 -47,-89 -52,-89 -48,-82 -29,-77 -24,-70 -6,-77 v -76 l 6,-83 17,-83 30,-88 35,-123 29,-130 30,-141 24,-153 23,-154 12,-164 12,-166 6,-164 v -171 l -12,-165 -11,-165 -24,-159 -35,-153 -35,-142 -48,-141 -59,-124 -12,-23 -12,-29 -11,-30 -6,-35 -12,-42 -12,-47 -12,-47 -11,-47 -48,-224 -59,-224 -58,-217 -64,-218 -60,-225 -64,-211 -65,-218 -59,-219 -54,-211 -47,-213 -40,-211 -35,-213 -25,-211 -5,-206 v -213 l 17,-206 -12,-118 -17,-112 -24,-117 -23,-118 -30,-124 -29,-117 -36,-119 -35,-123 -41,-123 -42,-119 -41,-123 -34,-118 -42,-124 -42,-118 -40,-123 -37,-118 v -12 -30 -28 -12 l 7,-82 6,-89 12,-83 12,-88 5,-82 12,-89 12,-88 11,-89 7,-88 5,-88 6,-94 6,-89 v -94 l -6,-89 v -95 l -11,-94 -12,-105 -12,-106 -6,-100 v -101 -94 l 6,-100 12,-94 12,-89 17,-94 23,-94 24,-88 30,-89 30,-93 40,-87 35,-94 48,-95 29,-70 30,-47 17,-24 24,-6 18,13 23,22 24,42 29,47 41,59 41,53 42,53 41,41 36,42 41,28 35,29 29,24 106,69 89,59 70,65 59,65 42,76 29,89 18,112 6,129 12,148 40,176 65,194 94,206 106,231 130,235 148,248 164,246 178,255 188,253 200,246 205,242 219,229 218,213 223,201 225,176 40,17 37,12 35,6 35,6 29,-6 35,-6 30,-12 35,-17 77,-42 71,-52 53,-65 52,-76 42,-77 35,-83 36,-82 29,-76 29,-65 24,-59 18,-59 18,-53 11,-47 6,-54 v -58 l -6,-59 -6,-65 -11,-71 -7,-64 -11,-71 -12,-65 -6,-71 -11,-64 -12,-72 -12,-64 -12,-70 -12,-65 -12,-71 -17,-65 -18,-64 -17,-72 -19,-64 -65,-71 -69,-64 -72,-66 -82,-47 -82,-41 -82,-29 -89,-12 h -94 -6 -6 -12 -6 l -12,-70 -11,-77 -18,-82 -18,-95 -17,-100 -24,-100 -17,-112 -24,-112 -23,-113 -24,-117 -23,-111 -25,-119 -29,-112 -23,-111 -17,-106 -25,-100 -23,-100 -24,-104 -29,-94 -35,-101 -36,-95 -41,-94 -42,-94 -47,-88 -47,-88 -47,-88 -47,-89 -53,-82 -52,-83 -59,-82 -53,-83 -60,-76 -53,-100 -47,-89 -41,-82 -35,-82 -29,-77 -12,-77 v -76 l 22,-83 107,-6 100,30 106,53 111,65 113,65 112,40 118,12 123,-35 18,-118 -12,-112 -35,-100 -47,-99 -53,-95 -59,-94 -47,-106 -42,-107 19,-111 40,-82 60,-54 76,-35 88,-23 h 106 l 112,5 124,12 123,18 130,23 130,12 130,12 h 123 l 118,-7 106,-28 94,-47 59,-30 53,-36 47,-35 42,-35 35,-47 35,-53 35,-54 30,-70 24,-59 17,-59 23,-53 19,-47 11,-54 6,-47 -6,-47 -11,-52 v -53 -41 l -7,-48 v -35 l -5,-41 -12,-36 -18,-41 z"
   id="path58"
   inkscape:connector-curvature="0"
   style="fill:#000000;stroke:none" />
         <path
   d="m 17756,10984 -82,-24 -82,-23 -77,-18 -76,-12 -72,-12 -76,-12 h -71 l -71,-5 -70,5 -77,7 -70,11 -71,12 -70,18 -77,23 -76,24 -77,29 -12,24 12,11 29,7 h 41 l 59,-7 71,-5 77,-6 88,-12 94,-6 94,-6 h 94 101 l 94,12 88,12 82,29 71,36 65,53 42,52 17,54 v 52 l -17,60 -30,64 -35,65 -42,71 -35,58 -41,66 -47,53 -53,47 -65,47 -76,29 -83,24 -100,6 h -82 l -83,-6 -83,-6 -82,-12 -77,-12 -82,-11 -71,-18 -76,-18 -29,-11 -36,-12 -36,-12 -35,-18 -35,-17 -30,-25 -29,-35 -24,-35 -82,-59 -94,-47 -100,-40 -101,-42 -88,-42 -76,-52 -47,-60 -18,-76 -35,12 -36,24 -30,23 -29,29 -24,30 -11,30 v 23 l 23,24 71,23 83,30 94,29 94,35 88,42 82,47 72,47 52,52 18,65 -29,42 -59,29 -77,24 -82,29 -77,24 -53,41 -23,54 23,94 24,94 29,94 30,94 41,95 41,87 53,84 59,75 30,77 -6,54 -36,23 -58,6 -71,-6 -71,-23 -65,-36 -53,-35 -77,-41 -76,-47 -71,-47 -71,-60 -65,-59 -64,-64 -59,-72 -58,-70 -59,-71 -54,-76 -47,-71 -53,-77 -42,-76 -47,-77 -40,-76 -35,-71 99,12 100,35 101,47 94,53 83,59 76,47 53,35 35,12 -11,-82 -24,-71 -41,-70 -54,-59 -64,-60 -77,-57 -82,-54 -82,-47 -94,-47 -89,-47 -89,-41 -88,-47 -88,-42 -77,-42 -65,-47 -59,-47 89,-105 88,-112 95,-118 94,-117 94,-124 95,-124 99,-124 100,-124 106,-123 112,-124 112,-118 118,-118 124,-111 124,-113 135,-99 136,-101 164,-77 177,-47 200,-28 207,-12 217,12 224,23 236,35 241,42 248,52 247,54 247,58 248,53 247,53 235,47 236,42 229,23 -100,118 -117,100 -124,76 -142,60 -148,47 -158,29 -158,24 -171,12 -171,5 h -176 l -172,-5 -176,-6 h -171 l -164,-6 -165,6 -154,11 -58,18 -42,36 -24,40 -5,47 5,54 19,47 23,35 29,30 65,76 77,65 76,59 83,53 82,42 71,40 70,42 59,40 v 19 35 41 z"
   id="path60"
   inkscape:connector-curvature="0"
   style="fill:#ffffff;stroke:none" />
         <path
   d="m 6260,27939 100,-6 94,-12 89,-12 89,-11 82,-19 76,-17 77,-18 77,-22 70,-18 77,-29 70,-25 76,-29 77,-23 77,-30 82,-35 89,-30 76,48 83,29 88,18 95,5 h 94 l 94,-5 100,-18 94,-18 100,-53 47,-82 -6,-95 -29,-99 -59,-113 -65,-105 -58,-95 -42,-83 71,-134 71,-148 64,-147 60,-154 59,-159 52,-159 53,-164 42,-166 41,-170 29,-171 29,-177 18,-176 19,-177 5,-177 v -176 l -5,-177 52,-112 47,-118 30,-118 17,-123 6,-119 v -117 l -6,-124 -17,-123 -25,-118 -29,-118 -35,-124 -40,-117 -37,-118 -47,-112 -40,-112 -42,-112 12,-17 30,-7 40,-5 h 59 l 53,12 29,40 25,59 12,72 10,75 13,72 17,64 35,53 19,19 29,5 35,5 41,-5 47,-5 42,-13 35,-17 30,-18 47,-88 41,-100 41,-101 41,-107 35,-104 36,-113 29,-118 30,-111 24,-119 23,-117 18,-118 17,-112 12,-117 12,-112 6,-107 v -106 l -106,-17 -101,-23 -99,-30 -101,-29 -100,-36 -100,-41 -94,-47 -94,-48 -94,-52 -89,-54 -89,-52 -82,-59 -87,-65 -77,-65 -77,-65 -77,-64 -99,-77 -94,-76 -84,-65 -77,-59 -75,-59 -72,-53 -64,-54 -59,-53 -65,-52 -52,-47 -60,-54 -59,-58 -59,-59 -58,-65 -65,-64 -66,-77 v -30 l 12,-35 35,-36 60,-11 106,141 117,135 141,136 148,129 160,124 158,118 166,113 164,104 166,95 147,89 146,76 124,65 112,59 94,40 65,30 42,18 106,17 111,7 h 118 l 113,-18 112,-24 111,-47 100,-52 89,-77 106,-89 94,-82 82,-77 83,-70 75,-71 71,-65 65,-70 70,-66 65,-70 71,-77 77,-88 76,-88 88,-101 89,-112 105,-124 113,-134 41,-18 29,-6 30,17 23,25 18,34 12,42 12,35 v 35 l -71,77 -76,77 -72,76 -70,77 -76,77 -72,77 -70,69 -71,77 -70,71 -77,76 -71,72 -65,76 -70,70 -71,71 -70,77 -64,70 -77,159 -53,159 -35,166 -12,158 6,165 18,165 35,159 53,159 59,159 70,153 82,147 89,148 94,141 100,130 99,129 107,118 82,-525 47,-34 42,-6 35,18 29,41 18,53 12,59 12,58 v 59 95 l 5,88 12,82 18,77 24,77 29,70 36,71 41,65 47,59 59,58 59,54 64,47 77,41 77,41 88,35 88,36 95,29 88,18 82,6 h 77 l 70,5 65,7 59,18 47,29 12,65 -12,47 -23,35 -36,24 -40,17 -59,18 -60,5 -59,12 -117,-29 -107,-35 -94,-42 -88,-40 -76,-42 -83,-47 -76,-47 -83,-53 29,159 35,153 47,153 54,153 59,147 65,148 70,142 71,146 70,147 72,154 70,153 65,153 64,159 59,165 47,165 42,176 35,89 35,88 42,83 35,70 41,60 48,40 59,29 65,13 800,82 v 53 l -6,48 -17,23 -30,12 -777,-24 -94,54 -54,87 -23,106 v 119 l 17,129 30,136 35,129 35,124 19,29 23,29 35,19 47,23 47,12 54,5 h 52 l 53,-5 30,-30 17,-35 19,-29 5,-36 6,-29 6,-42 v -35 -42 l 53,54 47,47 53,47 59,36 64,23 h 84 l 99,-23 124,-48 389,-165 47,-82 29,-106 12,-118 -5,-129 -18,-124 -36,-124 -47,-106 -65,-94 -53,-60 -47,-47 -35,-40 -36,-36 -23,-29 -29,-24 -23,-23 -30,-24 65,-211 52,-219 54,-230 35,-230 35,-241 24,-235 11,-248 v -241 l -6,-241 -17,-248 -30,-235 -41,-243 -58,-229 -66,-230 -76,-218 -94,-212 -18,-29 -24,-24 -29,-18 -35,-17 -42,-18 -40,-17 -47,-18 -42,-29 -35,-142 -36,-141 -23,-141 -24,-147 -18,-154 -17,-153 -12,-153 -12,-153 -12,-160 -5,-159 -7,-159 -5,-158 -6,-165 -6,-160 -6,-164 -6,-159 -6,-166 -12,-158 -12,-159 -17,-159 -18,-159 -23,-159 -24,-153 -35,-159 -35,-148 -42,-152 -41,-148 -53,-142 -59,-141 -70,-142 -72,-135 -82,-130 24,-159 23,-152 18,-153 12,-159 12,-154 11,-153 12,-159 7,-153 v -159 l 5,-154 v -159 -159 -164 l -5,-159 v -165 l -7,-165 -159,-176 -176,-151 -195,-136 -200,-112 -218,-106 -230,-82 -229,-77 -242,-65 -248,-54 -253,-52 -252,-42 -248,-47 -253,-40 -246,-42 -248,-47 -236,-47 -76,-6 -77,-6 -70,-12 -66,-6 -70,-11 -65,-12 -64,-12 -60,-6 -64,-12 -60,-12 -64,-5 -59,-7 -65,-5 h -64 -65 l -65,5 -59,60 -59,64 -59,72 -58,76 -59,77 -53,82 -54,88 -53,89 -41,94 -41,94 -36,94 -23,100 -17,101 -12,94 v 97 l 12,101 17,41 18,35 17,36 12,30 6,23 6,17 6,7 v 5 l -12,112 -35,94 -53,83 -66,64 -75,54 -84,52 -87,47 -84,47 -105,196 -100,199 -88,206 -84,218 -70,218 -59,231 -47,229 -35,230 -17,230 -7,235 12,236 24,229 47,230 58,230 84,217 105,218 -23,18 -30,12 -35,12 -42,17 -40,30 -42,35 -47,54 -41,70 -71,223 -53,231 -41,223 -30,230 -12,229 v 230 l 12,236 24,230 29,229 42,236 53,230 53,230 65,229 70,224 76,229 83,224 -23,84 -24,134 -18,171 -18,206 -12,236 -10,260 v 276 282 l 10,290 19,282 23,271 35,253 47,230 54,200 65,165 77,124 -18,106 -47,83 -71,70 -89,53 -95,53 -99,41 -100,48 -89,47 -29,29 -59,41 -48,42 -47,40 -35,42 -40,35 -42,41 -42,35 -47,30 -276,53 -24,6 -23,6 -24,17 -17,24 -18,30 -12,35 v 35 l 6,42 24,77 52,57 71,48 89,29 94,18 h 105 l 101,-11 z"
   id="path62"
   inkscape:connector-curvature="0"
   style="fill:#ffffff;stroke:none" />
         <path
   d="m 12786,14588 -7,-11 12,-24 12,-29 11,-35 12,-42 v -35 l -12,-35 -28,-36 -66,-53 -70,-59 -82,-65 -84,-59 -82,-58 -82,-54 -89,-52 -82,-42 -94,-59 -100,-52 -101,-48 -100,-53 -99,-41 -107,-47 -106,-42 -106,-40 -105,-35 -113,-37 -112,-29 -112,-29 -111,-29 -118,-30 -124,-24 -122,-23 -124,-24 -124,-17 -129,-18 -136,-18 -135,-12 -136,-12 -141,-11 -147,-12 -148,-5 -153,-12 -153,-7 -159,-6 h -160 l -164,-5 h -171 -171 v 41 l 7,41 5,42 6,35 12,41 5,36 12,35 12,35 147,17 153,18 147,19 148,17 154,18 152,17 148,18 152,17 154,18 153,24 147,23 153,18 154,24 146,29 154,23 146,30 153,30 147,34 148,37 147,35 148,40 141,42 147,47 141,47 141,53 136,53 142,60 135,64 129,65 136,70 129,77 z"
   id="path64"
   inkscape:connector-curvature="0"
   style="fill:#e2e2e2;stroke:none" />
         <path
   d="m 13451,11067 211,-30 189,-47 177,-65 165,-77 148,-89 141,-99 129,-112 118,-112 118,-123 111,-124 107,-124 105,-124 106,-124 107,-117 111,-112 119,-101 -148,95 -142,94 -146,94 -148,94 -147,94 -147,89 -153,89 -154,83 -153,81 -153,72 -158,70 -166,65 -164,53 -166,47 -171,41 -176,30 -12,71 12,58 29,59 41,47 54,47 64,35 71,36 z"
   id="path66"
   inkscape:connector-curvature="0"
   style="fill:#ffffff;stroke:none" />
         <path
   d="m 7002,7639 -5,-19 -13,-40 v -35 l 42,-19 77,54 82,64 82,70 89,77 94,77 94,89 88,82 94,88 89,88 89,95 77,88 75,82 71,89 59,77 53,76 42,71 29,41 23,48 18,40 24,42 11,47 12,47 12,47 5,53 12,100 13,95 12,99 5,94 5,100 7,101 v 94 l -7,100 77,-18 83,-12 83,-17 87,-12 84,-18 82,-5 82,-12 82,-6 -11,-317 -47,-295 -77,-278 -111,-247 -142,-229 -160,-218 -188,-194 -200,-189 -212,-171 -229,-165 -230,-153 -242,-148 -242,-146 -235,-142 -229,-148 -225,-141 -82,-40 -77,-42 -70,-42 -71,-47 -70,-40 -71,-42 -71,-41 -71,-41 -35,-6 -29,11 -23,36 -24,71 12,88 52,105 82,107 101,106 100,106 106,95 89,77 70,64 53,65 53,59 53,58 59,59 53,53 54,59 57,59 54,59 53,58 53,60 47,64 48,60 47,71 47,70 40,71 35,76 12,195 -34,129 -65,89 -101,64 -129,59 -154,71 -176,99 -189,148 -5,41 5,36 30,23 35,12 47,6 h 47 l 54,6 58,6 54,5 52,12 47,12 47,12 65,88 42,77 12,76 -18,72 -36,70 -47,71 -65,76 -76,83 7,77 34,35 70,12 h 84 l 88,-7 h 88 l 70,24 47,53 25,41 17,47 12,41 18,42 5,47 7,42 5,47 v 40 l 71,-35 71,-30 76,-34 70,-30 72,-30 64,-29 72,-23 70,-30 71,-24 70,-23 71,-24 70,-23 72,-18 70,-17 77,-19 70,-18 12,-76 6,-76 6,-83 v -82 -83 -88 l -12,-88 -12,-94 -18,-89 -17,-89 -30,-87 -29,-89 -41,-82 -42,-89 -52,-82 -60,-77 -41,-47 -47,-52 -53,-54 -64,-65 -65,-64 -65,-71 -71,-71 -77,-70 -70,-71 -71,-70 -77,-66 -65,-65 -70,-58 -59,-54 -59,-47 z"
   id="path68"
   inkscape:connector-curvature="0"
   style="fill:#ffffff;stroke:none" />
         <path
   d="m 10077,9871 141,-389 -52,-30 -65,-29 -66,-35 -70,-42 -71,-47 -76,-47 -76,-47 -77,-53 -77,-59 -77,-59 -70,-58 -71,-59 -65,-65 -64,-65 -59,-71 -48,-65 18,71 12,76 18,71 12,77 17,77 12,70 18,77 12,71 11,75 12,77 12,71 12,70 5,72 12,70 6,71 5,70 95,7 94,5 101,6 94,6 94,6 94,7 88,5 z"
   id="path70"
   inkscape:connector-curvature="0"
   style="fill:#ffffff;stroke:none" />
         <path
   d="m 14587,8929 101,22 112,18 117,7 h 130 l 118,-12 118,-25 100,-28 82,-36 47,-70 35,-83 24,-88 18,-100 12,-101 5,-99 v -95 -89 l -76,107 -95,94 -94,77 -105,52 -101,35 -106,7 -105,-17 -95,-47 -17,64 -30,59 -24,65 -29,58 -35,59 -36,59 -35,53 z"
   id="path72"
   inkscape:connector-curvature="0"
   style="fill:#ffffff;stroke:none" />
         <path
   d="m 1442,13658 -53,-12 -47,-23 -53,-42 -41,-52 -35,-66 -24,-70 -13,-77 7,-76 6,-24 12,-29 12,-24 17,-30 23,-23 17,-30 25,-22 17,-25 72,-76 105,-88 112,-94 106,-94 82,-95 41,-94 -17,-94 -89,-83 -105,17 -94,12 -83,7 -71,-7 -53,-17 -29,-30 -12,-41 18,-53 59,-47 64,-41 65,-47 65,-41 71,-36 65,-41 70,-35 71,-30 70,-30 71,-29 71,-30 71,-23 70,-17 71,-18 65,-12 70,-12 119,17 106,25 105,35 106,35 100,35 101,36 99,18 101,12 177,-72 181,-70 184,-71 183,-70 182,-71 188,-70 188,-66 189,-65 195,-53 194,-47 201,-41 205,-35 207,-23 206,-12 212,5 218,12 106,-88 106,-83 106,-76 112,-77 106,-77 117,-65 112,-64 112,-65 118,-59 117,-53 119,-52 117,-54 124,-40 118,-47 124,-37 124,-35 123,-35 130,-29 124,-24 129,-24 124,-23 129,-12 130,-17 129,-12 130,-7 129,-5 h 130 129 l 131,5 129,7 136,12 129,11 224,-606 -47,-89 -48,-82 -41,-77 -35,-77 -30,-76 -35,-77 -23,-70 -29,-77 -25,-71 -22,-76 -25,-76 -23,-77 -24,-77 -23,-88 -30,-83 -29,-94 -12,-82 v -77 l 12,-71 35,-65 42,-58 52,-53 72,-48 76,-47 35,-17 35,-23 30,-19 35,-18 24,-10 29,-19 29,-18 30,-10 -6,-60 -17,-53 -24,-41 -6,-12 -141,42 -129,40 -124,36 -112,11 -107,-17 -99,-53 -89,-100 -88,-153 -24,-83 -12,-100 v -112 l 18,-118 30,-117 47,-119 59,-111 77,-100 69,153 65,142 71,134 71,124 83,107 100,88 117,65 141,47 v -54 l -11,-40 -29,-24 -30,-23 -35,-18 -30,-29 -24,-36 -5,-53 124,-65 116,-52 118,-54 107,-65 94,-70 87,-94 71,-131 59,-164 12,-24 6,-30 6,-35 12,-29 5,-30 12,-23 12,-17 18,-7 300,-100 300,-70 301,-29 294,-7 283,24 283,47 265,70 259,95 242,111 224,124 211,142 188,153 166,166 141,170 118,177 88,176 18,136 5,100 v 70 l -11,66 -17,58 -30,65 -36,83 -47,112 47,29 83,-118 53,-94 35,-83 29,-64 30,-47 42,-35 64,-19 95,-11 77,18 76,29 76,35 71,42 59,52 47,59 23,71 v 82 l -59,101 -64,87 -71,77 -76,65 -77,53 -82,41 -95,30 -94,6 -64,11 h -65 -71 -65 l -65,-11 -64,-18 -72,-18 -64,-29 5,29 7,30 17,29 23,24 30,23 36,25 35,17 41,12 -88,123 -77,130 -76,135 -77,130 -70,129 -77,130 -71,129 -77,124 -82,118 -82,112 -94,107 -100,94 -106,87 -124,83 -130,65 -141,53 -89,5 -88,12 -88,18 -82,17 -89,18 -89,19 -87,17 -89,18 -89,12 -88,11 -89,6 h -94 l -94,-6 -94,-11 -95,-25 -99,-29 -106,-65 -100,-64 -107,-71 -99,-71 -106,-77 -107,-88 -100,-100 -106,-106 -35,65 -17,53 -7,41 v 12 l 59,59 59,64 59,60 65,53 58,59 65,52 66,59 64,53 70,54 65,52 71,47 71,54 64,47 71,53 77,47 70,47 -124,35 -82,42 -59,47 -28,47 -7,53 18,47 41,53 53,41 64,47 77,35 83,36 95,30 87,17 89,6 h 88 l 77,-12 83,-23 70,-24 59,-35 59,-35 53,-36 47,-41 53,-42 47,-41 53,53 53,48 53,41 53,41 53,36 59,35 59,29 65,23 94,7 100,5 94,13 94,10 89,12 94,18 95,24 87,23 h 7 l 12,12 23,12 24,12 29,23 35,18 36,30 29,29 77,70 77,77 75,76 77,89 71,88 71,94 71,101 59,106 58,112 59,118 47,118 42,124 35,129 35,135 18,141 17,142 148,207 129,205 124,207 112,211 106,218 88,218 89,218 76,222 70,230 60,229 53,230 48,235 47,236 34,241 30,248 30,248 40,-18 36,-12 41,-18 35,-12 30,-5 35,-12 29,-6 h 37 l 57,11 54,19 47,23 41,24 36,29 23,29 24,30 11,29 -5,100 -6,106 -18,107 -18,99 -29,101 -29,94 -42,88 -41,83 -6,6 -24,5 -28,12 -37,12 -40,6 h -47 l -42,-12 -35,-23 -6,-42 12,-41 12,-47 12,-41 17,-47 12,-47 6,-48 -6,-52 -18,-36 -11,-29 -7,-30 -5,-23 -6,-18 -12,-23 -17,-19 -24,-17 -53,-23 -54,-12 h -53 l -52,12 -42,17 -35,18 -29,17 -18,24 -29,53 -12,53 12,41 29,18 23,29 24,30 23,30 18,22 24,25 17,17 6,23 6,19 23,105 24,119 18,123 23,124 30,112 41,88 60,59 82,24 29,-36 23,-35 18,-35 12,-36 12,-35 17,-36 13,-35 17,-35 65,-54 59,-70 59,-83 53,-88 47,-100 42,-106 35,-101 22,-94 25,94 22,89 25,89 17,82 18,83 12,88 12,82 5,89 -29,58 -30,42 -30,29 -29,24 -23,12 -24,12 -18,12 -10,5 -107,419 -17,35 -18,29 -24,23 -23,18 -30,17 -29,12 -35,7 h -42 l -82,-12 -71,-29 -65,-48 -65,-52 -59,-66 -59,-76 -58,-83 -71,-82 -53,-65 -54,-64 -52,-65 -53,-71 -53,-71 -53,-71 -47,-76 -35,-70 -37,-77 -22,-77 -18,-82 v -77 l 5,-82 25,-77 35,-82 52,-83 -40,12 -42,12 -35,12 -35,5 -36,6 -30,6 h -28 -30 l -24,-12 -23,-17 -24,-12 -18,-18 -23,-17 -24,-18 -23,-17 -24,-19 -136,-112 -123,-123 -112,-130 -100,-134 -94,-136 -77,-147 -77,-148 -58,-154 -54,-159 -47,-152 -35,-165 -29,-159 -23,-166 -12,-158 -7,-165 v -157 l -28,-24 -37,-17 h -34 -30 l -30,5 -23,7 -24,5 h -11 l -83,-5 -77,-24 -70,-30 -65,-41 -59,-41 -41,-47 -35,-36 -18,-24 -65,-117 -47,-118 -35,-123 -24,-118 -12,-117 v -119 -112 l 7,-118 5,-117 12,-112 5,-112 v -111 -113 l -10,-112 -25,-105 -29,-107 -47,-12 -41,-5 -29,11 -24,19 -24,28 -12,30 -12,36 -5,28 v 89 l -6,89 -6,94 -6,88 -12,88 -5,95 -19,88 -11,88 -17,89 -19,82 -18,89 -23,87 -24,84 -29,82 -28,82 -30,77 -36,12 -41,5 -41,6 -41,-6 -42,-5 -41,-18 -48,-24 -40,-29 -124,-107 -129,-94 -131,-87 -134,-83 -136,-83 -136,-70 -142,-65 -141,-59 -141,-59 -147,-47 -147,-47 -148,-47 -147,-36 -146,-35 -154,-29 -147,-30 -152,-24 -153,-18 -154,-17 -153,-18 -153,-12 -153,-10 -154,-13 -153,-6 -152,-6 -154,-5 -153,-7 -153,-5 -153,-6 h -148 l -152,-6 -148,-6 17,-94 18,-89 19,-87 23,-89 24,-89 23,-88 24,-83 29,-88 29,-82 30,-83 29,-88 35,-83 37,-82 35,-88 34,-83 35,-88 -10,-47 -12,-41 -18,-36 -17,-24 -25,-17 -29,-6 -30,6 -29,12 -35,77 -30,76 -29,70 -29,77 -30,71 -29,76 -24,71 -23,70 -30,77 -24,77 -23,76 -18,77 -24,77 -17,82 -23,82 -18,84 -83,17 -88,11 -94,12 -94,7 -94,5 h -107 -100 l -101,-5 -106,-7 -105,-6 -101,-12 -99,-17 -100,-18 -101,-17 -94,-18 -88,-24 -160,94 -170,83 -177,71 -176,59 -189,47 -189,29 -194,29 -195,12 -193,12 h -189 l -194,-6 -189,-11 -182,-18 -183,-18 -172,-23 -164,-24 -35,-53 -29,-59 -24,-53 -24,-47 -24,-42 -29,-23 -35,-12 -48,12 -29,94 -30,88 -35,95 -47,94 -52,88 -54,83 -70,77 -71,71 -95,29 -112,47 -117,65 -118,65 -112,47 -94,29 -82,-6 -53,-58 11,-30 12,-29 24,-30 18,-24 29,-29 23,-36 35,-40 30,-54 -77,59 -70,60 -77,59 -71,52 -87,53 -101,41 -112,42 z"
   id="path74"
   inkscape:connector-curvature="0"
   style="fill:#ffffff;stroke:none" />
         <path
   d="m 12343,7055 -6,-76 -41,-54 -58,-47 -84,-29 -94,-30 -88,-23 -94,-30 -77,-29 -59,7 -40,17 -30,23 -17,35 -19,36 -17,41 -23,47 -42,47 101,-5 94,5 99,7 101,11 94,12 101,12 99,17 z"
   id="path76"
   inkscape:connector-curvature="0"
   style="fill:#000000;stroke:none" />
         <path
   d="m 12008,7320 64,53 47,53 35,53 25,47 v 47 l -18,42 -35,34 -66,30 -23,12 -17,12 h -24 l -24,6 h -23 l -30,-6 -23,-12 -24,-12 -65,-40 -70,-42 -71,-42 -70,-40 -77,-36 -77,-35 -82,-35 -89,-36 -40,-24 v -35 l 23,-29 52,-30 71,-23 83,-24 82,-18 83,-5 65,5 52,6 54,12 47,17 41,18 41,24 41,23 z"
   id="path78"
   inkscape:connector-curvature="0"
   style="fill:#000000;stroke:none" />
         <path
   d="m 13362,7768 h -70 l -65,17 -54,30 -52,35 -35,48 -17,52 -7,59 12,59 23,47 36,42 40,41 65,29 71,12 h 71 l 65,6 h 65 l 65,12 64,12 65,23 65,42 h 12 l 12,-7 11,-11 6,-12 -6,-95 -29,-94 -47,-88 -66,-82 -70,-71 -77,-53 -82,-36 z"
   id="path80"
   inkscape:connector-curvature="0"
   style="fill:#000000;stroke:none" />
         <path
   d="m 13086,7573 52,-28 72,-19 76,-6 h 88 l 89,13 94,12 88,10 88,18 42,-23 29,-17 24,-30 12,-24 v -29 l -12,-36 -24,-29 -29,-36 -18,-5 -24,-6 -23,-12 -36,-12 -35,-12 -35,-12 -42,-11 -41,-12 -70,6 -77,17 -70,30 -71,41 -65,53 -65,59 -53,77 -53,82 12,-12 35,-18 30,-17 z"
   id="path82"
   inkscape:connector-curvature="0"
   style="fill:#000000;stroke:none" />
         <path
   d="m 10136,6731 70,-24 83,-29 88,-35 94,-41 93,-41 89,-53 82,-54 72,-59 10,-129 -5,-107 -24,-87 -47,-71 -70,-65 -95,-65 -117,-64 -152,-77 -65,29 -71,42 -65,53 -59,64 -53,71 -41,76 -23,84 -12,82 v 64 l 12,59 11,65 24,59 29,65 36,59 47,65 z"
   id="path84"
   inkscape:connector-curvature="0"
   style="fill:#ffffff;stroke:none" />
         <path
   d="m 11400,3520 307,-1383 -5,-58 -19,-48 -28,-24 -36,-12 h -47 l -53,7 -59,11 -60,12 -5,6 -18,18 -35,35 -53,53 v 1355 h 36 l 28,6 24,5 z"
   id="path86"
   inkscape:connector-curvature="0"
   style="fill:#ffffff;stroke:none" />
         <path
   d="m 12868,8822 h -54 -58 l -59,-5 h -59 l -65,-7 -64,-12 -72,-17 -70,-18 -30,-12 -35,-11 -41,-18 -35,-24 -42,-23 -40,-29 -42,-36 -42,-41 h -28 l -36,12 -24,23 6,47 65,89 83,58 100,36 111,23 112,25 112,35 101,47 94,76 11,-12 30,-23 36,-36 40,-40 30,-37 18,-35 -13,-23 z"
   id="path88"
   inkscape:connector-curvature="0"
   style="fill:#000000;stroke:none" />
         <path
   d="m 2667,12398 -41,-42 -47,-29 -47,-24 -47,-6 h -42 l -47,12 -41,23 -36,30 -64,83 -18,94 6,112 24,112 23,112 12,111 -6,107 -47,94 106,-60 83,-69 58,-84 42,-94 34,-100 30,-112 30,-129 z"
   id="path90"
   inkscape:connector-curvature="0"
   style="fill:#000000;stroke:none" />
         <path
   d="m 12067,9929 52,-23 42,-30 40,-29 42,-35 35,-42 30,-47 35,-47 30,-53 23,-17 24,-7 24,-5 h 29 l 30,5 28,7 30,5 36,12 -19,-112 -40,-94 -65,-82 -77,-59 -94,-47 -106,-35 -106,-24 -106,-18 h -23 l -71,-6 h -94 l -106,6 -101,12 -82,23 -47,42 v 65 l 12,29 23,18 24,17 29,18 36,17 41,17 41,19 41,29 v 29 71 l 13,101 22,106 42,99 64,72 89,29 z"
   id="path92"
   inkscape:connector-curvature="0"
   style="fill:#000000;stroke:none" />
         <path
   d="m 15142,11343 70,-118 71,-129 65,-136 70,-129 71,-124 82,-112 82,-94 101,-77 47,-29 65,-35 70,-25 77,-17 h 71 l 70,12 53,35 41,59 30,-24 29,-28 30,-37 23,-40 12,-42 6,-47 v -41 l -18,-41 -441,53 -95,17 -89,25 -69,40 -65,47 -54,54 -47,59 -41,70 -35,71 -36,76 -35,76 -30,84 -34,75 -35,83 -42,77 -47,71 -53,71 -47,58 -54,47 -47,24 -18,12 7,35 11,23 24,12 23,6 30,-6 35,-5 36,-18 z"
   id="path94"
   inkscape:connector-curvature="0"
   style="fill:#000000;stroke:none" />
         <path
   d="m 12921,3964 783,-302 530,654 -47,-843 795,-323 -825,-223 -29,-831 -454,700 -818,-218 530,672 z"
   id="path96"
   inkscape:connector-curvature="0"
   style="fill:#e2e2e2;stroke:none" />
         <path
   d="m 12921,3964 783,-302 530,654 -47,-843 795,-323 -825,-223 -29,-831 -454,700 -818,-218 530,672 z"
   id="path98"
   inkscape:connector-curvature="0"
   style="fill:none;stroke:#ffffff" />
        </g>
       </g>
      </g>
     </g>
    </g>
   </g>
  </g>
 </g>
</svg>