<?xml version="1.0" encoding="UTF-8" standalone="no"?>
<svg
   xmlns:ooo="http://xml.openoffice.org/svg/export"
   xmlns:dc="http://purl.org/dc/elements/1.1/"
   xmlns:cc="http://creativecommons.org/ns#"
   xmlns:rdf="http://www.w3.org/1999/02/22-rdf-syntax-ns#"
   xmlns:svg="http://www.w3.org/2000/svg"
   xmlns="http://www.w3.org/2000/svg"
   xmlns:sodipodi="http://sodipodi.sourceforge.net/DTD/sodipodi-0.dtd"
   xmlns:inkscape="http://www.inkscape.org/namespaces/inkscape"
   version="1.2"
   width="46.150002mm"
   height="55.189999mm"
   viewBox="0 0 4615.0002 5518.9999"
   preserveAspectRatio="xMidYMid"
   xml:space="preserve"
   id="svg579"
   sodipodi:docname="o.svg"
   style="fill-rule:evenodd;stroke-width:28.22200012;stroke-linejoin:round"
   inkscape:version="0.92.5 (2060ec1f9f, 2020-04-08)"><metadata
   id="metadata583"><rdf:RDF><cc:Work
       rdf:about=""><dc:format>image/svg+xml</dc:format><dc:type
         rdf:resource="http://purl.org/dc/dcmitype/StillImage" /></cc:Work></rdf:RDF></metadata><sodipodi:namedview
   pagecolor="#ffffff"
   bordercolor="#666666"
   borderopacity="1"
   objecttolerance="10"
   gridtolerance="10"
   guidetolerance="10"
   inkscape:pageopacity="0"
   inkscape:pageshadow="2"
   inkscape:window-width="664"
   inkscape:window-height="487"
   id="namedview581"
   showgrid="false"
   inkscape:zoom="0.2102413"
   inkscape:cx="87.231497"
   inkscape:cy="104.27716"
   inkscape:window-x="0"
   inkscape:window-y="0"
   inkscape:window-maximized="0"
   inkscape:current-layer="svg579" />
 <defs
   class="ClipPathGroup"
   id="defs8">
  <clipPath
   id="presentation_clip_path"
   clipPathUnits="userSpaceOnUse">
   <rect
   x="0"
   y="0"
   width="21000"
   height="29700"
   id="rect2" />
  </clipPath>
  <clipPath
   id="presentation_clip_path_shrink"
   clipPathUnits="userSpaceOnUse">
   <rect
   x="21"
   y="29"
   width="20958"
   height="29641"
   id="rect5" />
  </clipPath>
 </defs>
 <defs
   class="TextShapeIndex"
   id="defs12">
  <g
   ooo:slide="id1"
   ooo:id-list="id3"
   id="g10" />
 </defs>
 <defs
   class="EmbeddedBulletChars"
   id="defs44">
  <g
   id="bullet-char-template-57356"
   transform="matrix(4.8828125e-4,0,0,-4.8828125e-4,0,0)">
   <path
   d="M 580,1141 1163,571 580,0 -4,571 Z"
   id="path14"
   inkscape:connector-curvature="0" />
  </g>
  <g
   id="bullet-char-template-57354"
   transform="matrix(4.8828125e-4,0,0,-4.8828125e-4,0,0)">
   <path
   d="M 8,1128 H 1137 V 0 H 8 Z"
   id="path17"
   inkscape:connector-curvature="0" />
  </g>
  <g
   id="bullet-char-template-10146"
   transform="matrix(4.8828125e-4,0,0,-4.8828125e-4,0,0)">
   <path
   d="M 174,0 602,739 174,1481 1456,739 Z M 1358,739 309,1346 659,739 Z"
   id="path20"
   inkscape:connector-curvature="0" />
  </g>
  <g
   id="bullet-char-template-10132"
   transform="matrix(4.8828125e-4,0,0,-4.8828125e-4,0,0)">
   <path
   d="M 2015,739 1276,0 H 717 l 543,543 H 174 v 393 h 1086 l -543,545 h 557 z"
   id="path23"
   inkscape:connector-curvature="0" />
  </g>
  <g
   id="bullet-char-template-10007"
   transform="matrix(4.8828125e-4,0,0,-4.8828125e-4,0,0)">
   <path
   d="m 0,-2 c -7,16 -16,29 -25,39 l 381,530 c -94,256 -141,385 -141,387 0,25 13,38 40,38 9,0 21,-2 34,-5 21,4 42,12 65,25 l 27,-13 111,-251 280,301 64,-25 24,25 c 21,-10 41,-24 62,-43 C 886,937 835,863 770,784 769,783 710,716 594,584 L 774,223 c 0,-27 -21,-55 -63,-84 l 16,-20 C 717,90 699,76 672,76 641,76 570,178 457,381 L 164,-76 c -22,-34 -53,-51 -92,-51 -42,0 -63,17 -64,51 -7,9 -10,24 -10,44 0,9 1,19 2,30 z"
   id="path26"
   inkscape:connector-curvature="0" />
  </g>
  <g
   id="bullet-char-template-10004"
   transform="matrix(4.8828125e-4,0,0,-4.8828125e-4,0,0)">
   <path
   d="M 285,-33 C 182,-33 111,30 74,156 52,228 41,333 41,471 c 0,78 14,145 41,201 34,71 87,106 158,106 53,0 88,-31 106,-94 l 23,-176 c 8,-64 28,-97 59,-98 l 735,706 c 11,11 33,17 66,17 42,0 63,-15 63,-46 V 965 c 0,-36 -10,-64 -30,-84 L 442,47 C 390,-6 338,-33 285,-33 Z"
   id="path29"
   inkscape:connector-curvature="0" />
  </g>
  <g
   id="bullet-char-template-9679"
   transform="matrix(4.8828125e-4,0,0,-4.8828125e-4,0,0)">
   <path
   d="M 813,0 C 632,0 489,54 383,161 276,268 223,411 223,592 c 0,181 53,324 160,431 106,107 249,161 430,161 179,0 323,-54 432,-161 108,-107 162,-251 162,-431 0,-180 -54,-324 -162,-431 C 1136,54 992,0 813,0 Z"
   id="path32"
   inkscape:connector-curvature="0" />
  </g>
  <g
   id="bullet-char-template-8226"
   transform="matrix(4.8828125e-4,0,0,-4.8828125e-4,0,0)">
   <path
   d="m 346,457 c -73,0 -137,26 -191,78 -54,51 -81,114 -81,188 0,73 27,136 81,188 54,52 118,78 191,78 73,0 134,-26 185,-79 51,-51 77,-114 77,-187 0,-75 -25,-137 -76,-188 -50,-52 -112,-78 -186,-78 z"
   id="path35"
   inkscape:connector-curvature="0" />
  </g>
  <g
   id="bullet-char-template-8211"
   transform="matrix(4.8828125e-4,0,0,-4.8828125e-4,0,0)">
   <path
   d="M -4,459 H 1135 V 606 H -4 Z"
   id="path38"
   inkscape:connector-curvature="0" />
  </g>
  <g
   id="bullet-char-template-61548"
   transform="matrix(4.8828125e-4,0,0,-4.8828125e-4,0,0)">
   <path
   d="m 173,740 c 0,163 58,303 173,419 116,115 255,173 419,173 163,0 302,-58 418,-173 116,-116 174,-256 174,-419 0,-163 -58,-303 -174,-418 C 1067,206 928,148 765,148 601,148 462,206 346,322 231,437 173,577 173,740 Z"
   id="path41"
   inkscape:connector-curvature="0" />
  </g>
 </defs>
 <g
   id="g49"
   transform="translate(-8192,-12090)">
  <g
   id="id2"
   class="Master_Slide">
   <g
   id="bg-id2"
   class="Background" />
   <g
   id="bo-id2"
   class="BackgroundObjects" />
  </g>
 </g>
 <g
   class="SlideGroup"
   id="g577"
   transform="translate(-8192,-12090)">
  <g
   id="g575">
   <g
   id="container-id1">
    <g
   id="id1"
   class="Slide"
   clip-path="url(#presentation_clip_path)">
     <g
   class="Page"
   id="g571">
      <g
   class="Graphic"
   id="g569">
       <g
   id="id3">
        <rect
   class="BoundingBox"
   x="8192"
   y="12090"
   width="4615"
   height="5519"
   id="rect51"
   style="fill:none;stroke:none" />
        <defs
   id="defs56">
         <clipPath
   id="clip_path_1"
   clipPathUnits="userSpaceOnUse">
          <path
   d="m 8192,12090 h 4614 v 5518 H 8192 Z"
   id="path53"
   inkscape:connector-curvature="0" />
         </clipPath>
        </defs>
        <g
   clip-path="url(#clip_path_1)"
   id="g566">
         <path
   d="m 8970,12626 -56,48 -54,51 -56,51 -53,56 -56,56 -53,56 -51,58 -51,61 -51,61 -48,61 -48,61 -43,64 -44,63 -40,64 -38,63 -36,64 114,109 112,107 115,109 111,109 115,110 112,109 111,109 112,109 112,110 109,109 112,112 112,109 109,112 112,112 109,109 110,112 109,111 112,112 109,112 109,112 107,112 109,111 109,115 110,112 106,114 110,112 109,114 107,112 109,114 107,112 109,114 107,115 23,25 23,28 20,28 23,28 20,30 20,28 23,28 21,26 63,-38 64,-44 63,-45 64,-46 63,-51 64,-51 63,-53 61,-56 61,-58 59,-59 56,-58 53,-61 51,-64 48,-61 43,-63 41,-64 -107,-127 -109,-129 -109,-128 -112,-127 -112,-127 -112,-127 -114,-127 -114,-124 -117,-125 -115,-127 -119,-122 -117,-124 -119,-125 -120,-122 -119,-122 -120,-122 -122,-119 -122,-122 -122,-119 -124,-120 -125,-117 -122,-117 -127,-117 -124,-116 -125,-115 -127,-114 -127,-112 -125,-114 -127,-112 -127,-109 -129,-110 z"
   id="path58"
   inkscape:connector-curvature="0"
   style="fill:#000000;stroke:none" />
         <path
   d="m 8202,13554 3,15 35,-61 38,-64 39,-63 43,-64 43,-63 48,-61 48,-61 51,-61 51,-61 51,-56 53,-56 56,-56 54,-56 56,-51 53,-50 53,-49 -15,-20 -58,48 -54,51 -56,51 -53,56 -56,56 -53,56 -51,61 -51,61 -51,61 -48,61 -48,61 -44,63 -43,64 -43,63 -38,64 -36,66 3,15 -3,-15 v 10 l 10,5 8,2 8,-7 z"
   id="path60"
   inkscape:connector-curvature="0"
   style="fill:#000000;stroke:none" />
         <path
   d="m 11727,17114 v 0 l -107,-115 -109,-114 -107,-112 -109,-114 -107,-112 -109,-114 -109,-112 -107,-115 -109,-111 -110,-115 -109,-112 -107,-111 -109,-112 -109,-112 -112,-112 -109,-112 -110,-111 -109,-110 -112,-111 -109,-112 -112,-110 -112,-111 -109,-110 -112,-109 -111,-109 -112,-109 -112,-110 -114,-109 -112,-109 -115,-109 -111,-107 -115,-109 -20,20 114,109 112,107 114,109 112,109 115,110 111,109 112,109 112,109 112,110 109,109 112,112 112,109 109,112 112,112 109,109 109,112 110,112 111,111 110,112 109,112 107,112 109,112 109,114 110,112 106,114 110,112 109,114 107,112 109,114 107,112 109,114 107,115 v 0 z"
   id="path62"
   inkscape:connector-curvature="0"
   style="fill:#000000;stroke:none" />
         <path
   d="m 11882,17332 18,5 -21,-25 -22,-28 -21,-28 -20,-31 -23,-28 -20,-28 -23,-28 -23,-27 -20,20 22,23 23,28 21,28 23,28 20,30 20,28 23,28 20,25 18,5 -18,-5 11,5 7,-2 5,-8 -2,-10 z"
   id="path64"
   inkscape:connector-curvature="0"
   style="fill:#000000;stroke:none" />
         <path
   d="m 12797,16481 -3,-15 -38,63 -43,64 -48,61 -51,63 -54,59 -55,58 -59,58 -61,59 -58,56 -64,53 -63,51 -64,51 -63,46 -64,45 -64,41 -63,38 15,25 64,-38 63,-45 64,-46 63,-46 64,-51 63,-51 64,-53 63,-56 61,-58 59,-59 56,-58 53,-64 51,-63 48,-61 44,-64 43,-63 -3,-15 3,15 2,-10 -7,-11 h -11 l -10,6 z"
   id="path66"
   inkscape:connector-curvature="0"
   style="fill:#000000;stroke:none" />
         <path
   d="m 8977,12636 h -15 l 127,110 130,109 127,109 124,112 125,114 129,112 125,114 124,115 125,117 127,117 122,116 125,117 124,120 122,119 122,122 122,120 119,121 120,122 119,122 120,125 117,124 119,122 114,127 117,125 115,124 114,125 112,127 112,127 112,127 109,127 109,130 107,127 20,-15 -107,-127 -109,-130 -109,-127 -112,-127 -112,-127 -112,-127 -114,-130 -114,-124 -117,-125 -115,-127 -119,-122 -117,-124 -119,-125 -120,-122 -119,-122 -120,-122 -122,-119 -122,-122 -122,-120 -124,-119 -125,-117 -122,-117 -127,-117 -124,-117 -125,-114 -129,-114 -125,-112 -124,-114 -130,-112 -127,-109 -130,-110 -127,-109 h -15 z"
   id="path68"
   inkscape:connector-curvature="0"
   style="fill:#000000;stroke:none" />
         <path
   d="m 8240,13541 120,112 119,112 117,111 120,112 116,112 120,114 117,112 117,114 117,115 116,114 117,117 117,114 117,115 115,117 116,116 115,117 114,117 114,117 112,120 115,116 114,120 112,117 112,119 111,120 112,119 110,122 109,119 112,122 106,120 110,122 109,122 107,122 58,-38 59,-41 58,-41 58,-45 59,-46 58,-49 56,-48 59,-53 53,-51 56,-53 51,-56 51,-54 48,-58 46,-56 43,-56 41,-58 -110,-127 -106,-125 -112,-124 -110,-125 -111,-124 -115,-125 -112,-124 -114,-122 -114,-122 -117,-122 -115,-122 -116,-120 -120,-122 -117,-119 -119,-119 -120,-120 -119,-119 -120,-117 -119,-117 -122,-117 -122,-117 -122,-117 -122,-114 -122,-114 -122,-115 -124,-114 -122,-114 -125,-112 -124,-112 -122,-112 -125,-112 -124,-109 -51,43 -51,46 -51,48 -53,49 -49,50 -50,54 -49,53 -48,56 -48,56 -43,56 -46,56 -41,58 -41,59 -35,58 -36,58 z"
   id="path70"
   inkscape:connector-curvature="0"
   style="fill:#e2e2e2;stroke:none" />
         <path
   d="m 8779,13094 48,28 -12,12 -21,18 -23,23 -25,23 -20,23 -16,23 -5,17 8,11 -53,-46 7,7 13,-5 18,-10 20,-18 20,-17 18,-18 15,-15 8,-8 3,-5 7,-10 5,-10 v -8 l -15,-8 v 0 l -3,-5 v -2 z"
   id="path72"
   inkscape:connector-curvature="0"
   style="fill:#494949;stroke:none" />
         <path
   d="m 8779,13094 48,28 v 0 l -12,12 -21,18 -23,23 -25,23 -20,23 -16,23 -5,17 8,11 -53,-46 v 0 l 7,7 13,-5 18,-10 20,-18 20,-17 18,-18 15,-15 8,-8 v 0 l 3,-5 7,-10 5,-10 v -8 l -15,-8 v 0 0 l -3,-5 v -2 z"
   id="path74"
   inkscape:connector-curvature="0"
   style="fill:none;stroke:#494949" />
         <path
   d="m 9463,13726 38,-5 35,33 -2,8 -10,15 -13,21 -18,22 -20,23 -21,21 -20,12 -18,5 -56,-43 6,-13 17,18 21,23 17,8 18,-10 10,-13 8,-13 3,-20 -3,-8 -3,-5 -5,-5 -5,-8 5,-10 11,3 h 15 18 17 l 13,-5 8,-8 -3,-13 -18,-17 -45,-11 z"
   id="path76"
   inkscape:connector-curvature="0"
   style="fill:#494949;stroke:none" />
         <path
   d="m 9463,13726 38,-5 35,33 v 0 l -2,8 -10,15 -13,21 -18,22 -20,23 -21,21 -20,12 -18,5 -56,-43 v 0 l 6,-13 17,18 21,23 17,8 v 0 l 18,-10 10,-13 8,-13 3,-20 v 0 l -3,-8 -3,-5 -5,-5 -5,-8 5,-10 v 0 l 11,3 h 15 18 17 l 13,-5 8,-8 -3,-13 -18,-17 -45,-11 z"
   id="path78"
   inkscape:connector-curvature="0"
   style="fill:none;stroke:#494949" />
         <path
   d="m 9803,14174 -35,30 -16,-18 33,-33 -53,-56 13,-12 152,-28 10,10 -89,91 11,11 -3,12 -13,5 z"
   id="path80"
   inkscape:connector-curvature="0"
   style="fill:#494949;stroke:none" />
         <path
   d="m 9803,14174 -35,30 -16,-18 33,-33 -53,-56 13,-12 152,-28 10,10 -89,91 v 0 l 11,11 -3,12 -13,5 z"
   id="path82"
   inkscape:connector-curvature="0"
   style="fill:none;stroke:#494949" />
         <path
   d="m 9801,14138 68,-69 -117,26 z"
   id="path84"
   inkscape:connector-curvature="0"
   style="fill:#e2e2e2;stroke:none" />
         <path
   d="m 9801,14138 68,-69 -117,26 z"
   id="path86"
   inkscape:connector-curvature="0"
   style="fill:none;stroke:#e2e2e2" />
         <path
   d="m 10220,14385 -25,10 -39,-38 -25,10 8,18 7,25 5,23 -5,20 -48,41 h -25 l -56,-49 v -5 l 7,-2 h 5 8 l 13,38 28,8 43,-31 5,-33 -28,-53 76,-28 z"
   id="path88"
   inkscape:connector-curvature="0"
   style="fill:#494949;stroke:none" />
         <path
   d="m 10220,14385 -25,10 -39,-38 -25,10 v 0 l 8,18 7,25 5,23 -5,20 -48,41 h -25 l -56,-49 v 0 -5 l 7,-2 h 5 8 l 13,38 28,8 43,-31 5,-33 -28,-53 76,-28 z"
   id="path90"
   inkscape:connector-curvature="0"
   style="fill:none;stroke:#494949" />
         <path
   d="m 10789,14944 79,76 -186,94 -15,-13 168,-81 -5,-8 -10,-10 -10,-8 -13,-10 -13,-7 -13,-8 -12,-3 -10,3 z"
   id="path92"
   inkscape:connector-curvature="0"
   style="fill:#494949;stroke:none" />
         <path
   d="m 10789,14944 79,76 -186,94 -15,-13 168,-81 v 0 l -5,-8 -10,-10 -10,-8 -13,-10 -13,-7 -13,-8 -12,-3 -10,3 z"
   id="path94"
   inkscape:connector-curvature="0"
   style="fill:none;stroke:#494949" />
         <path
   d="m 11056,15332 -8,-15 v -18 l 8,-18 8,-15 10,-5 13,-5 h 15 l 12,5 36,38 v 23 l -5,10 -10,8 -10,10 h -38 l -3,25 -8,23 -12,21 -21,12 -10,-5 -15,-7 -13,-8 -12,-8 -11,-10 -7,-12 v -13 l 7,-15 z"
   id="path96"
   inkscape:connector-curvature="0"
   style="fill:#494949;stroke:none" />
         <path
   d="m 11056,15332 v 0 l -8,-15 v -18 l 8,-18 8,-15 v 0 l 10,-5 13,-5 h 15 l 12,5 36,38 v 0 23 l -5,10 -10,8 -10,10 h -38 v 0 l -3,25 -8,23 -12,21 -21,12 v 0 l -10,-5 -15,-7 -13,-8 -12,-8 -11,-10 -7,-12 v -13 l 7,-15 z"
   id="path98"
   inkscape:connector-curvature="0"
   style="fill:none;stroke:#494949" />
         <path
   d="m 11076,15337 h 16 l 12,-5 13,-7 13,-11 2,-15 -18,-25 -7,-3 h -5 l -8,3 -5,2 -13,18 z"
   id="path100"
   inkscape:connector-curvature="0"
   style="fill:#e2e2e2;stroke:none" />
         <path
   d="m 11076,15337 v 0 h 16 l 12,-5 13,-7 13,-11 2,-15 -18,-25 v 0 l -7,-3 h -5 l -8,3 -5,2 -13,18 z"
   id="path102"
   inkscape:connector-curvature="0"
   style="fill:none;stroke:#e2e2e2" />
         <path
   d="m 11000,15393 23,21 h 10 l 23,-21 5,-25 -2,-15 -11,-8 -12,-3 -16,6 -12,10 -8,15 z"
   id="path104"
   inkscape:connector-curvature="0"
   style="fill:#e2e2e2;stroke:none" />
         <path
   d="m 11000,15393 23,21 h 10 l 23,-21 v 0 l 5,-25 -2,-15 -11,-8 -12,-3 -16,6 -12,10 -8,15 z"
   id="path106"
   inkscape:connector-curvature="0"
   style="fill:none;stroke:#e2e2e2" />
         <path
   d="m 11254,15711 13,8 15,7 15,3 h 18 16 l 17,-3 16,-7 15,-8 -43,-18 -11,-10 -2,-15 -3,-13 3,-13 61,-45 15,2 18,8 15,10 13,13 v 17 l -5,16 -10,15 -11,13 -12,12 -13,10 -13,13 -12,13 -13,2 -15,5 h -16 -12 z"
   id="path108"
   inkscape:connector-curvature="0"
   style="fill:#494949;stroke:none" />
         <path
   d="m 11254,15711 v 0 l 13,8 15,7 15,3 h 18 16 l 17,-3 16,-7 15,-8 -43,-18 v 0 l -11,-10 -2,-15 -3,-13 3,-13 61,-45 v 0 l 15,2 18,8 15,10 13,13 v 0 17 l -5,16 -10,15 -11,13 -12,12 -13,10 -13,13 -12,13 v 0 l -13,2 -15,5 h -16 -12 z"
   id="path110"
   inkscape:connector-curvature="0"
   style="fill:none;stroke:#494949" />
         <path
   d="m 11389,15706 41,-59 -3,-17 -13,-16 -17,-7 -16,5 -33,43 -2,20 7,18 16,13 z"
   id="path112"
   inkscape:connector-curvature="0"
   style="fill:#e2e2e2;stroke:none" />
         <path
   d="m 11389,15706 41,-59 v 0 l -3,-17 -13,-16 -17,-7 -16,5 -33,43 v 0 l -2,20 7,18 16,13 z"
   id="path114"
   inkscape:connector-curvature="0"
   style="fill:none;stroke:#e2e2e2" />
         <path
   d="m 11648,15848 43,26 -15,15 -20,18 -21,20 -22,20 -21,23 -12,20 -8,21 5,18 -56,-49 18,3 18,-5 12,-8 16,-13 15,-15 13,-15 15,-15 15,-16 5,-5 8,-7 5,-10 2,-8 z"
   id="path116"
   inkscape:connector-curvature="0"
   style="fill:#494949;stroke:none" />
         <path
   d="m 11648,15848 43,26 v 0 l -15,15 -20,18 -21,20 -22,20 -21,23 -12,20 -8,21 5,18 -56,-49 v 0 l 18,3 18,-5 12,-8 16,-13 15,-15 13,-15 15,-15 15,-16 v 0 l 5,-5 8,-7 5,-10 2,-8 z"
   id="path118"
   inkscape:connector-curvature="0"
   style="fill:none;stroke:#494949" />
         <path
   d="m 11681,16125 -15,-5 -28,-43 53,-92 61,3 38,10 16,20 v 23 l -18,26 -28,22 -38,23 z"
   id="path120"
   inkscape:connector-curvature="0"
   style="fill:#494949;stroke:none" />
         <path
   d="m 11681,16125 -15,-5 -28,-43 53,-92 v 0 l 61,3 38,10 16,20 v 23 l -18,26 -28,22 -38,23 z"
   id="path122"
   inkscape:connector-curvature="0"
   style="fill:none;stroke:#494949" />
         <path
   d="m 11763,15973 -56,30 -33,33 -18,33 v 28 l 15,15 28,-5 38,-30 46,-61 2,-13 -2,-18 -8,-10 z"
   id="path124"
   inkscape:connector-curvature="0"
   style="fill:#e2e2e2;stroke:none" />
         <path
   d="m 11763,15973 v 0 l -56,30 -33,33 -18,33 v 28 l 15,15 28,-5 38,-30 46,-61 v 0 l 2,-13 -2,-18 -8,-10 z"
   id="path126"
   inkscape:connector-curvature="0"
   style="fill:none;stroke:#e2e2e2" />
         <path
   d="m 12263,16488 48,23 -127,138 -2,7 2,5 5,8 6,2 -54,-50 15,7 18,-5 18,-13 20,-17 21,-23 17,-21 16,-20 12,-13 -2,-7 -5,-8 -8,-5 z"
   id="path128"
   inkscape:connector-curvature="0"
   style="fill:#494949;stroke:none" />
         <path
   d="m 12263,16488 48,23 -127,138 v 0 l -2,7 2,5 5,8 6,2 -54,-50 v 0 l 15,7 18,-5 18,-13 20,-17 21,-23 17,-21 16,-20 12,-13 v 0 l -2,-7 -5,-8 -8,-5 z"
   id="path130"
   inkscape:connector-curvature="0"
   style="fill:none;stroke:#494949" />
         <path
   d="m 11971,17124 v 0 l -104,-120 -107,-117 -104,-119 -107,-119 -107,-117 -106,-117 -110,-120 -106,-117 -110,-116 -109,-117 -109,-117 -110,-117 -109,-117 -112,-117 -111,-114 -112,-115 -112,-114 -112,-114 -114,-115 -112,-114 -114,-112 -115,-112 -114,-111 -114,-112 -117,-109 -115,-110 -117,-109 -117,-109 -116,-107 -117,-107 -117,-106 -120,-105"
   id="path132"
   inkscape:connector-curvature="0"
   style="fill:none;stroke:#000000" />
         <path
   d="m 11885,17144 170,-191"
   id="path134"
   inkscape:connector-curvature="0"
   style="fill:none;stroke:#000000" />
         <path
   d="m 11829,17088 119,-145"
   id="path136"
   inkscape:connector-curvature="0"
   style="fill:none;stroke:#000000" />
         <path
   d="m 11790,17009 120,-147"
   id="path138"
   inkscape:connector-curvature="0"
   style="fill:none;stroke:#000000" />
         <path
   d="m 11722,16948 122,-142"
   id="path140"
   inkscape:connector-curvature="0"
   style="fill:none;stroke:#000000" />
         <path
   d="m 11648,16895 125,-150"
   id="path142"
   inkscape:connector-curvature="0"
   style="fill:none;stroke:#000000" />
         <path
   d="m 11569,16844 171,-190"
   id="path144"
   inkscape:connector-curvature="0"
   style="fill:none;stroke:#000000" />
         <path
   d="m 11516,16763 175,-191"
   id="path146"
   inkscape:connector-curvature="0"
   style="fill:none;stroke:#000000" />
         <path
   d="m 11468,16697 124,-143"
   id="path148"
   inkscape:connector-curvature="0"
   style="fill:none;stroke:#000000" />
         <path
   d="m 11407,16631 119,-145"
   id="path150"
   inkscape:connector-curvature="0"
   style="fill:none;stroke:#000000" />
         <path
   d="m 11348,16577 120,-147"
   id="path152"
   inkscape:connector-curvature="0"
   style="fill:none;stroke:#000000" />
         <path
   d="m 11275,16516 124,-147"
   id="path154"
   inkscape:connector-curvature="0"
   style="fill:none;stroke:#000000" />
         <path
   d="m 11216,16445 173,-190"
   id="path156"
   inkscape:connector-curvature="0"
   style="fill:none;stroke:#000000" />
         <path
   d="m 11163,16366 117,-149"
   id="path158"
   inkscape:connector-curvature="0"
   style="fill:none;stroke:#000000" />
         <path
   d="m 11089,16313 127,-147"
   id="path160"
   inkscape:connector-curvature="0"
   style="fill:none;stroke:#000000" />
         <path
   d="m 11023,16257 119,-147"
   id="path162"
   inkscape:connector-curvature="0"
   style="fill:none;stroke:#000000" />
         <path
   d="m 10957,16176 119,-145"
   id="path164"
   inkscape:connector-curvature="0"
   style="fill:none;stroke:#000000" />
         <path
   d="m 10901,16089 165,-188"
   id="path166"
   inkscape:connector-curvature="0"
   style="fill:none;stroke:#000000" />
         <path
   d="m 10830,16018 127,-152"
   id="path168"
   inkscape:connector-curvature="0"
   style="fill:none;stroke:#000000" />
         <path
   d="m 10764,15968 122,-148"
   id="path170"
   inkscape:connector-curvature="0"
   style="fill:none;stroke:#000000" />
         <path
   d="m 10721,15896 119,-147"
   id="path172"
   inkscape:connector-curvature="0"
   style="fill:none;stroke:#000000" />
         <path
   d="m 10667,15840 122,-147"
   id="path174"
   inkscape:connector-curvature="0"
   style="fill:none;stroke:#000000" />
         <path
   d="m 10621,15754 138,-157"
   id="path176"
   inkscape:connector-curvature="0"
   style="fill:none;stroke:#000000" />
         <path
   d="m 10583,15693 122,-147"
   id="path178"
   inkscape:connector-curvature="0"
   style="fill:none;stroke:#000000" />
         <path
   d="m 10517,15642 120,-150"
   id="path180"
   inkscape:connector-curvature="0"
   style="fill:none;stroke:#000000" />
         <path
   d="m 10451,15574 127,-148"
   id="path182"
   inkscape:connector-curvature="0"
   style="fill:none;stroke:#000000" />
         <path
   d="m 10388,15513 124,-148"
   id="path184"
   inkscape:connector-curvature="0"
   style="fill:none;stroke:#000000" />
         <path
   d="m 10306,15457 173,-191"
   id="path186"
   inkscape:connector-curvature="0"
   style="fill:none;stroke:#000000" />
         <path
   d="m 10250,15388 122,-145"
   id="path188"
   inkscape:connector-curvature="0"
   style="fill:none;stroke:#000000" />
         <path
   d="m 10182,15332 122,-150"
   id="path190"
   inkscape:connector-curvature="0"
   style="fill:none;stroke:#000000" />
         <path
   d="m 10123,15271 120,-147"
   id="path192"
   inkscape:connector-curvature="0"
   style="fill:none;stroke:#000000" />
         <path
   d="m 10060,15205 122,-147"
   id="path194"
   inkscape:connector-curvature="0"
   style="fill:none;stroke:#000000" />
         <path
   d="m 9948,15086 119,-148"
   id="path196"
   inkscape:connector-curvature="0"
   style="fill:none;stroke:#000000" />
         <path
   d="m 9879,15020 125,-143"
   id="path198"
   inkscape:connector-curvature="0"
   style="fill:none;stroke:#000000" />
         <path
   d="m 9824,14949 121,-150"
   id="path200"
   inkscape:connector-curvature="0"
   style="fill:none;stroke:#000000" />
         <path
   d="m 9757,14890 128,-147"
   id="path202"
   inkscape:connector-curvature="0"
   style="fill:none;stroke:#000000" />
         <path
   d="m 9643,14778 125,-142"
   id="path204"
   inkscape:connector-curvature="0"
   style="fill:none;stroke:#000000" />
         <path
   d="m 9577,14720 127,-150"
   id="path206"
   inkscape:connector-curvature="0"
   style="fill:none;stroke:#000000" />
         <path
   d="m 9480,14654 125,-148"
   id="path208"
   inkscape:connector-curvature="0"
   style="fill:none;stroke:#000000" />
         <path
   d="m 9425,14570 124,-147"
   id="path210"
   inkscape:connector-curvature="0"
   style="fill:none;stroke:#000000" />
         <path
   d="m 9346,14529 173,-195"
   id="path212"
   inkscape:connector-curvature="0"
   style="fill:none;stroke:#000000" />
         <path
   d="m 9300,14466 119,-150"
   id="path214"
   inkscape:connector-curvature="0"
   style="fill:none;stroke:#000000" />
         <path
   d="m 9231,14410 120,-150"
   id="path216"
   inkscape:connector-curvature="0"
   style="fill:none;stroke:#000000" />
         <path
   d="m 9170,14339 122,-148"
   id="path218"
   inkscape:connector-curvature="0"
   style="fill:none;stroke:#000000" />
         <path
   d="m 9109,14275 122,-150"
   id="path220"
   inkscape:connector-curvature="0"
   style="fill:none;stroke:#000000" />
         <path
   d="m 9036,14219 170,-190"
   id="path222"
   inkscape:connector-curvature="0"
   style="fill:none;stroke:#000000" />
         <path
   d="m 8990,14138 119,-145"
   id="path224"
   inkscape:connector-curvature="0"
   style="fill:none;stroke:#000000" />
         <path
   d="m 8919,14077 124,-150"
   id="path226"
   inkscape:connector-curvature="0"
   style="fill:none;stroke:#000000" />
         <path
   d="m 8850,14006 120,-147"
   id="path228"
   inkscape:connector-curvature="0"
   style="fill:none;stroke:#000000" />
         <path
   d="m 8804,13935 120,-148"
   id="path230"
   inkscape:connector-curvature="0"
   style="fill:none;stroke:#000000" />
         <path
   d="m 8726,13884 165,-191"
   id="path232"
   inkscape:connector-curvature="0"
   style="fill:none;stroke:#000000" />
         <path
   d="m 8682,13803 128,-148"
   id="path234"
   inkscape:connector-curvature="0"
   style="fill:none;stroke:#000000" />
         <path
   d="m 8619,13747 124,-143"
   id="path236"
   inkscape:connector-curvature="0"
   style="fill:none;stroke:#000000" />
         <path
   d="m 8553,13686 119,-145"
   id="path238"
   inkscape:connector-curvature="0"
   style="fill:none;stroke:#000000" />
         <path
   d="m 8487,13625 122,-148"
   id="path240"
   inkscape:connector-curvature="0"
   style="fill:none;stroke:#000000" />
         <path
   d="m 8411,13574 165,-191"
   id="path242"
   inkscape:connector-curvature="0"
   style="fill:none;stroke:#000000" />
         <path
   d="m 8520,13508 -38,33"
   id="path244"
   inkscape:connector-curvature="0"
   style="fill:none;stroke:#000000" />
         <path
   d="m 8586,13574 -38,36"
   id="path246"
   inkscape:connector-curvature="0"
   style="fill:none;stroke:#000000" />
         <path
   d="m 8652,13635 -38,35"
   id="path248"
   inkscape:connector-curvature="0"
   style="fill:none;stroke:#000000" />
         <path
   d="m 8716,13698 -44,39"
   id="path250"
   inkscape:connector-curvature="0"
   style="fill:none;stroke:#000000" />
         <path
   d="m 8779,13765 -41,38"
   id="path252"
   inkscape:connector-curvature="0"
   style="fill:none;stroke:#000000" />
         <path
   d="m 8845,13831 -41,38"
   id="path254"
   inkscape:connector-curvature="0"
   style="fill:none;stroke:#000000" />
         <path
   d="m 8909,13894 -38,38"
   id="path256"
   inkscape:connector-curvature="0"
   style="fill:none;stroke:#000000" />
         <path
   d="m 8977,13958 -43,35"
   id="path258"
   inkscape:connector-curvature="0"
   style="fill:none;stroke:#000000" />
         <path
   d="m 9043,14019 -45,38"
   id="path260"
   inkscape:connector-curvature="0"
   style="fill:none;stroke:#000000" />
         <path
   d="m 9117,14069 -36,39"
   id="path262"
   inkscape:connector-curvature="0"
   style="fill:none;stroke:#000000" />
         <path
   d="m 9183,14130 -43,39"
   id="path264"
   inkscape:connector-curvature="0"
   style="fill:none;stroke:#000000" />
         <path
   d="m 9249,14196 -43,39"
   id="path266"
   inkscape:connector-curvature="0"
   style="fill:none;stroke:#000000" />
         <path
   d="m 9315,14260 -43,38"
   id="path268"
   inkscape:connector-curvature="0"
   style="fill:none;stroke:#000000" />
         <path
   d="m 9379,14324 -43,38"
   id="path270"
   inkscape:connector-curvature="0"
   style="fill:none;stroke:#000000" />
         <path
   d="m 9430,14377 -44,38"
   id="path272"
   inkscape:connector-curvature="0"
   style="fill:none;stroke:#000000" />
         <path
   d="m 9491,14440 -39,36"
   id="path274"
   inkscape:connector-curvature="0"
   style="fill:none;stroke:#000000" />
         <path
   d="m 9554,14501 -35,36"
   id="path276"
   inkscape:connector-curvature="0"
   style="fill:none;stroke:#000000" />
         <path
   d="m 9638,14585 -43,36"
   id="path278"
   inkscape:connector-curvature="0"
   style="fill:none;stroke:#000000" />
         <path
   d="m 9699,14651 -38,31"
   id="path280"
   inkscape:connector-curvature="0"
   style="fill:none;stroke:#000000" />
         <path
   d="m 9763,14712 -36,33"
   id="path282"
   inkscape:connector-curvature="0"
   style="fill:none;stroke:#000000" />
         <path
   d="m 9813,14761 -38,38"
   id="path284"
   inkscape:connector-curvature="0"
   style="fill:none;stroke:#000000" />
         <path
   d="m 9874,14822 -38,38"
   id="path286"
   inkscape:connector-curvature="0"
   style="fill:none;stroke:#000000" />
         <path
   d="m 9940,14888 -43,35"
   id="path288"
   inkscape:connector-curvature="0"
   style="fill:none;stroke:#000000" />
         <path
   d="m 10006,14951 -40,36"
   id="path290"
   inkscape:connector-curvature="0"
   style="fill:none;stroke:#000000" />
         <path
   d="m 10073,15015 -41,38"
   id="path292"
   inkscape:connector-curvature="0"
   style="fill:none;stroke:#000000" />
         <path
   d="m 10118,15063 -40,38"
   id="path294"
   inkscape:connector-curvature="0"
   style="fill:none;stroke:#000000" />
         <path
   d="m 10174,15124 -43,38"
   id="path296"
   inkscape:connector-curvature="0"
   style="fill:none;stroke:#000000" />
         <path
   d="m 10243,15190 -43,38"
   id="path298"
   inkscape:connector-curvature="0"
   style="fill:none;stroke:#000000" />
         <path
   d="m 10311,15256 -40,38"
   id="path300"
   inkscape:connector-curvature="0"
   style="fill:none;stroke:#000000" />
         <path
   d="m 10378,15327 -36,38"
   id="path302"
   inkscape:connector-curvature="0"
   style="fill:none;stroke:#000000" />
         <path
   d="m 10431,15383 -36,36"
   id="path304"
   inkscape:connector-curvature="0"
   style="fill:none;stroke:#000000" />
         <path
   d="m 10497,15447 -36,38"
   id="path306"
   inkscape:connector-curvature="0"
   style="fill:none;stroke:#000000" />
         <path
   d="m 10568,15513 -43,35"
   id="path308"
   inkscape:connector-curvature="0"
   style="fill:none;stroke:#000000" />
         <path
   d="m 10632,15579 -41,33"
   id="path310"
   inkscape:connector-curvature="0"
   style="fill:none;stroke:#000000" />
         <path
   d="m 10677,15645 -40,38"
   id="path312"
   inkscape:connector-curvature="0"
   style="fill:none;stroke:#000000" />
         <path
   d="m 10733,15698 -40,36"
   id="path314"
   inkscape:connector-curvature="0"
   style="fill:none;stroke:#000000" />
         <path
   d="m 10789,15754 -40,36"
   id="path316"
   inkscape:connector-curvature="0"
   style="fill:none;stroke:#000000" />
         <path
   d="m 10845,15810 -41,36"
   id="path318"
   inkscape:connector-curvature="0"
   style="fill:none;stroke:#000000" />
         <path
   d="m 10906,15866 -43,41"
   id="path320"
   inkscape:connector-curvature="0"
   style="fill:none;stroke:#000000" />
         <path
   d="m 10962,15940 -38,33"
   id="path322"
   inkscape:connector-curvature="0"
   style="fill:none;stroke:#000000" />
         <path
   d="m 11031,16018 -41,36"
   id="path324"
   inkscape:connector-curvature="0"
   style="fill:none;stroke:#000000" />
         <path
   d="m 11099,16089 -40,39"
   id="path326"
   inkscape:connector-curvature="0"
   style="fill:none;stroke:#000000" />
         <path
   d="m 11170,16171 -43,38"
   id="path328"
   inkscape:connector-curvature="0"
   style="fill:none;stroke:#000000" />
         <path
   d="m 11221,16232 -33,35"
   id="path330"
   inkscape:connector-curvature="0"
   style="fill:none;stroke:#000000" />
         <path
   d="m 11285,16300 -38,36"
   id="path332"
   inkscape:connector-curvature="0"
   style="fill:none;stroke:#000000" />
         <path
   d="m 11351,16369 -43,38"
   id="path334"
   inkscape:connector-curvature="0"
   style="fill:none;stroke:#000000" />
         <path
   d="m 11412,16440 -38,36"
   id="path336"
   inkscape:connector-curvature="0"
   style="fill:none;stroke:#000000" />
         <path
   d="m 11468,16494 -41,38"
   id="path338"
   inkscape:connector-curvature="0"
   style="fill:none;stroke:#000000" />
         <path
   d="m 11526,16565 -40,38"
   id="path340"
   inkscape:connector-curvature="0"
   style="fill:none;stroke:#000000" />
         <path
   d="m 11585,16626 -44,38"
   id="path342"
   inkscape:connector-curvature="0"
   style="fill:none;stroke:#000000" />
         <path
   d="m 11643,16692 -41,38"
   id="path344"
   inkscape:connector-curvature="0"
   style="fill:none;stroke:#000000" />
         <path
   d="m 11702,16758 -39,38"
   id="path346"
   inkscape:connector-curvature="0"
   style="fill:none;stroke:#000000" />
         <path
   d="m 11763,16829 -41,33"
   id="path348"
   inkscape:connector-curvature="0"
   style="fill:none;stroke:#000000" />
         <path
   d="m 11824,16895 -41,33"
   id="path350"
   inkscape:connector-curvature="0"
   style="fill:none;stroke:#000000" />
         <path
   d="m 11885,16959 -41,35"
   id="path352"
   inkscape:connector-curvature="0"
   style="fill:none;stroke:#000000" />
         <path
   d="m 11938,17019 -36,36"
   id="path354"
   inkscape:connector-curvature="0"
   style="fill:none;stroke:#000000" />
         <path
   d="m 8995,12857 -173,191"
   id="path356"
   inkscape:connector-curvature="0"
   style="fill:none;stroke:#000000" />
         <path
   d="m 9046,12923 -127,143"
   id="path358"
   inkscape:connector-curvature="0"
   style="fill:none;stroke:#000000" />
         <path
   d="m 9109,12972 -119,145"
   id="path360"
   inkscape:connector-curvature="0"
   style="fill:none;stroke:#000000" />
         <path
   d="m 9183,13030 -124,145"
   id="path362"
   inkscape:connector-curvature="0"
   style="fill:none;stroke:#000000" />
         <path
   d="m 9254,13086 -122,145"
   id="path364"
   inkscape:connector-curvature="0"
   style="fill:none;stroke:#000000" />
         <path
   d="m 9331,13137 -166,190"
   id="path366"
   inkscape:connector-curvature="0"
   style="fill:none;stroke:#000000" />
         <path
   d="m 9381,13216 -170,190"
   id="path368"
   inkscape:connector-curvature="0"
   style="fill:none;stroke:#000000" />
         <path
   d="m 9435,13274 -120,150"
   id="path370"
   inkscape:connector-curvature="0"
   style="fill:none;stroke:#000000" />
         <path
   d="m 9503,13327 -124,148"
   id="path372"
   inkscape:connector-curvature="0"
   style="fill:none;stroke:#000000" />
         <path
   d="m 9572,13383 -120,148"
   id="path374"
   inkscape:connector-curvature="0"
   style="fill:none;stroke:#000000" />
         <path
   d="m 9648,13444 -124,143"
   id="path376"
   inkscape:connector-curvature="0"
   style="fill:none;stroke:#000000" />
         <path
   d="m 9727,13493 -173,188"
   id="path378"
   inkscape:connector-curvature="0"
   style="fill:none;stroke:#000000" />
         <path
   d="m 9775,13576 -119,145"
   id="path380"
   inkscape:connector-curvature="0"
   style="fill:none;stroke:#000000" />
         <path
   d="m 9846,13630 -124,145"
   id="path382"
   inkscape:connector-curvature="0"
   style="fill:none;stroke:#000000" />
         <path
   d="m 9918,13681 -122,150"
   id="path384"
   inkscape:connector-curvature="0"
   style="fill:none;stroke:#000000" />
         <path
   d="m 9989,13742 -125,142"
   id="path386"
   inkscape:connector-curvature="0"
   style="fill:none;stroke:#000000" />
         <path
   d="m 10067,13792 -170,191"
   id="path388"
   inkscape:connector-curvature="0"
   style="fill:none;stroke:#000000" />
         <path
   d="m 10113,13889 -119,150"
   id="path390"
   inkscape:connector-curvature="0"
   style="fill:none;stroke:#000000" />
         <path
   d="m 10182,13940 -122,150"
   id="path392"
   inkscape:connector-curvature="0"
   style="fill:none;stroke:#000000" />
         <path
   d="m 10250,13996 -119,147"
   id="path394"
   inkscape:connector-curvature="0"
   style="fill:none;stroke:#000000" />
         <path
   d="m 10327,14054 -127,145"
   id="path396"
   inkscape:connector-curvature="0"
   style="fill:none;stroke:#000000" />
         <path
   d="m 10403,14108 -170,190"
   id="path398"
   inkscape:connector-curvature="0"
   style="fill:none;stroke:#000000" />
         <path
   d="m 10408,14204 -119,145"
   id="path400"
   inkscape:connector-curvature="0"
   style="fill:none;stroke:#000000" />
         <path
   d="m 10479,14257 -124,143"
   id="path402"
   inkscape:connector-curvature="0"
   style="fill:none;stroke:#000000" />
         <path
   d="m 10540,14318 -127,153"
   id="path404"
   inkscape:connector-curvature="0"
   style="fill:none;stroke:#000000" />
         <path
   d="m 10606,14379 -122,150"
   id="path406"
   inkscape:connector-curvature="0"
   style="fill:none;stroke:#000000" />
         <path
   d="m 10703,14418 -173,195"
   id="path408"
   inkscape:connector-curvature="0"
   style="fill:none;stroke:#000000" />
         <path
   d="m 10738,14506 -122,148"
   id="path410"
   inkscape:connector-curvature="0"
   style="fill:none;stroke:#000000" />
         <path
   d="m 10810,14560 -122,152"
   id="path412"
   inkscape:connector-curvature="0"
   style="fill:none;stroke:#000000" />
         <path
   d="m 10868,14621 -119,150"
   id="path414"
   inkscape:connector-curvature="0"
   style="fill:none;stroke:#000000" />
         <path
   d="m 10934,14687 -119,147"
   id="path416"
   inkscape:connector-curvature="0"
   style="fill:none;stroke:#000000" />
         <path
   d="m 11013,14740 -168,193"
   id="path418"
   inkscape:connector-curvature="0"
   style="fill:none;stroke:#000000" />
         <path
   d="m 11056,14814 -127,150"
   id="path420"
   inkscape:connector-curvature="0"
   style="fill:none;stroke:#000000" />
         <path
   d="m 11125,14877 -125,145"
   id="path422"
   inkscape:connector-curvature="0"
   style="fill:none;stroke:#000000" />
         <path
   d="m 11188,14938 -129,148"
   id="path424"
   inkscape:connector-curvature="0"
   style="fill:none;stroke:#000000" />
         <path
   d="m 11247,14997 -127,150"
   id="path426"
   inkscape:connector-curvature="0"
   style="fill:none;stroke:#000000" />
         <path
   d="m 11318,15048 -168,190"
   id="path428"
   inkscape:connector-curvature="0"
   style="fill:none;stroke:#000000" />
         <path
   d="m 11369,15137 -122,144"
   id="path430"
   inkscape:connector-curvature="0"
   style="fill:none;stroke:#000000" />
         <path
   d="m 11435,15195 -122,150"
   id="path432"
   inkscape:connector-curvature="0"
   style="fill:none;stroke:#000000" />
         <path
   d="m 11498,15271 -119,143"
   id="path434"
   inkscape:connector-curvature="0"
   style="fill:none;stroke:#000000" />
         <path
   d="m 11569,15327 -119,148"
   id="path436"
   inkscape:connector-curvature="0"
   style="fill:none;stroke:#000000" />
         <path
   d="m 11638,15378 -170,196"
   id="path438"
   inkscape:connector-curvature="0"
   style="fill:none;stroke:#000000" />
         <path
   d="m 11666,15462 -119,147"
   id="path440"
   inkscape:connector-curvature="0"
   style="fill:none;stroke:#000000" />
         <path
   d="m 11735,15523 -120,142"
   id="path442"
   inkscape:connector-curvature="0"
   style="fill:none;stroke:#000000" />
         <path
   d="m 11796,15586 -120,148"
   id="path444"
   inkscape:connector-curvature="0"
   style="fill:none;stroke:#000000" />
         <path
   d="m 11857,15655 -122,150"
   id="path446"
   inkscape:connector-curvature="0"
   style="fill:none;stroke:#000000" />
         <path
   d="m 11930,15706 -173,195"
   id="path448"
   inkscape:connector-curvature="0"
   style="fill:none;stroke:#000000" />
         <path
   d="m 11976,15787 -119,147"
   id="path450"
   inkscape:connector-curvature="0"
   style="fill:none;stroke:#000000" />
         <path
   d="m 12047,15848 -122,153"
   id="path452"
   inkscape:connector-curvature="0"
   style="fill:none;stroke:#000000" />
         <path
   d="m 12121,15924 -127,143"
   id="path454"
   inkscape:connector-curvature="0"
   style="fill:none;stroke:#000000" />
         <path
   d="m 12162,15990 -120,148"
   id="path456"
   inkscape:connector-curvature="0"
   style="fill:none;stroke:#000000" />
         <path
   d="m 12245,16044 -170,193"
   id="path458"
   inkscape:connector-curvature="0"
   style="fill:none;stroke:#000000" />
         <path
   d="m 12283,16128 -127,142"
   id="path460"
   inkscape:connector-curvature="0"
   style="fill:none;stroke:#000000" />
         <path
   d="m 12347,16181 -124,147"
   id="path462"
   inkscape:connector-curvature="0"
   style="fill:none;stroke:#000000" />
         <path
   d="m 12413,16242 -119,147"
   id="path464"
   inkscape:connector-curvature="0"
   style="fill:none;stroke:#000000" />
         <path
   d="m 9122,13602 h -13 l -10,-5 -12,-8 -11,-7 -10,-11 -10,-10 -8,-10 -5,-10 h 18 18 18 17 l 21,-3 18,-5 15,-5 18,-10 15,-41 -15,-33 -36,-15 -51,13 15,-3 16,3 15,2 15,5 13,33 -13,21 -15,12 -20,11 -23,5 -26,2 -25,3 h -23 -20 l 76,84 z"
   id="path466"
   inkscape:connector-curvature="0"
   style="fill:#666666;stroke:none" />
         <path
   d="m 9122,13602 v 0 h -13 l -10,-5 -12,-8 -11,-7 -10,-11 -10,-10 -8,-10 -5,-10 v 0 h 18 18 18 17 l 21,-3 18,-5 15,-5 18,-10 15,-41 -15,-33 -36,-15 -51,13 v 0 l 15,-3 16,3 15,2 15,5 13,33 v 0 l -13,21 -15,12 -20,11 -23,5 -26,2 -25,3 h -23 -20 l 76,84 z"
   id="path468"
   inkscape:connector-curvature="0"
   style="fill:none;stroke:#666666" />
         <path
   d="m 12342,16763 -41,20 -78,-81 15,-5 15,-3 15,-2 15,-3 h 16 15 15 l 15,3 46,-28 3,-15 -51,-41 -15,7 v -5 l 12,-12 26,-5 38,33 15,25 -2,23 -16,15 -28,10 -33,8 -38,2 -38,-2 13,15 13,13 15,13 15,12 5,3 8,-3 h 7 z"
   id="path470"
   inkscape:connector-curvature="0"
   style="fill:#494949;stroke:none" />
         <path
   d="m 12342,16763 -41,20 -78,-81 v 0 l 15,-5 15,-3 15,-2 15,-3 h 16 15 15 l 15,3 46,-28 3,-15 -51,-41 v 0 l -15,7 v -5 l 12,-12 26,-5 v 0 l 38,33 15,25 -2,23 -16,15 -28,10 -33,8 -38,2 -38,-2 v 0 l 13,15 13,13 15,13 15,12 v 0 l 5,3 8,-3 h 7 z"
   id="path472"
   inkscape:connector-curvature="0"
   style="fill:none;stroke:#494949" />
         <path
   d="m 8934,12852 v 0 l 117,110 117,106 119,110 117,109 117,109 117,109 117,112 114,109 117,112 117,109 114,112 117,112 115,112 114,114 117,112 114,114 112,112 114,115 115,114 112,114 111,117 112,114 112,115 112,117 109,117 109,116 110,117 109,117 109,117 107,119 107,117 106,120"
   id="path474"
   inkscape:connector-curvature="0"
   style="fill:none;stroke:#191919" />
         <path
   d="m 12477,16305 -122,148"
   id="path476"
   inkscape:connector-curvature="0"
   style="fill:none;stroke:#000000" />
         <path
   d="m 12555,16356 -167,193"
   id="path478"
   inkscape:connector-curvature="0"
   style="fill:none;stroke:#000000" />
         <path
   d="m 10433,14791 -2,18 15,-3 23,-10 13,-7 20,-41 -15,-36 -36,-17 54,-18 63,20 -13,-13 -15,-10 -18,-7 -17,-6 h -18 -18 l -18,6 -18,7 -5,23 8,8 15,2 18,5 8,33 z"
   id="path480"
   inkscape:connector-curvature="0"
   style="fill:#494949;stroke:none" />
         <path
   d="m 10433,14791 v 0 l -2,18 15,-3 23,-10 13,-7 20,-41 -15,-36 -36,-17 54,-18 63,20 v 0 l -13,-13 -15,-10 -18,-7 -17,-6 h -18 -18 l -18,6 -18,7 v 0 l -5,23 8,8 15,2 18,5 8,33 z"
   id="path482"
   inkscape:connector-curvature="0"
   style="fill:none;stroke:#494949" />
         <path
   d="m 10433,14705 6,-13 -13,-10 -13,-5 -5,12 -30,59 15,46 5,5 7,5 11,2 7,3 5,-3 5,-2 3,-8 -3,-5 -12,-8 -13,-7 -10,-8 -3,-10 z"
   id="path484"
   inkscape:connector-curvature="0"
   style="fill:#494949;stroke:none" />
         <path
   d="m 10433,14705 v 0 l 6,-13 -13,-10 -13,-5 -5,12 -30,59 15,46 v 0 l 5,5 7,5 11,2 7,3 v 0 l 5,-3 5,-2 3,-8 -3,-5 v 0 l -12,-8 -13,-7 -10,-8 -3,-10 z"
   id="path486"
   inkscape:connector-curvature="0"
   style="fill:none;stroke:#494949" />
         <path
   d="m 11966,16384 v 36 13 l 10,-6 5,-10 h -5 l 122,-132 -53,-18 7,3 5,8 3,10 -3,5 -89,91 z"
   id="path488"
   inkscape:connector-curvature="0"
   style="fill:#494949;stroke:none" />
         <path
   d="m 11966,16384 v 36 0 13 l 10,-6 5,-10 h -5 l 122,-132 -53,-18 v 0 l 7,3 5,8 3,10 -3,5 -89,91 z"
   id="path490"
   inkscape:connector-curvature="0"
   style="fill:none;stroke:#494949" />
         <path
   d="m 11966,16178 v 51 l 38,-35 -5,-3 -13,-5 -13,-5 z"
   id="path492"
   inkscape:connector-curvature="0"
   style="fill:#494949;stroke:none" />
         <path
   d="m 11966,16178 v 51 l 38,-35 v 0 l -5,-3 -13,-5 -13,-5 z"
   id="path494"
   inkscape:connector-curvature="0"
   style="fill:none;stroke:#494949" />
         <path
   d="m 11966,16229 v -51 0 8 l -3,8 -2,7 -104,92 -16,-8 51,56 -10,-18 z"
   id="path496"
   inkscape:connector-curvature="0"
   style="fill:#494949;stroke:none" />
         <path
   d="m 11966,16229 v -51 0 0 8 l -3,8 -2,7 -104,92 -16,-8 51,56 -10,-18 z"
   id="path498"
   inkscape:connector-curvature="0"
   style="fill:none;stroke:#494949" />
         <path
   d="m 11966,16420 v -36 l -15,8 -18,-13 z"
   id="path500"
   inkscape:connector-curvature="0"
   style="fill:#494949;stroke:none" />
         <path
   d="m 11966,16420 v -36 l -15,8 -18,-13 z"
   id="path502"
   inkscape:connector-curvature="0"
   style="fill:none;stroke:#494949" />
         <path
   d="m 10477,16971 h 15 48 l 71,-2 97,-10 109,-23 127,-36 132,-53 140,-77 137,-99 138,-127 124,-157 117,-191 97,-231 78,-272 51,-318 23,-363 -10,-417 -43,-360 -71,-310 -94,-260 -115,-218 -127,-178 -137,-142 -140,-112 -142,-84 -137,-58 -130,-41 -117,-23 -97,-13 -76,-5 h -48 -18 v -264 h 5 18 l 31,3 38,2 48,3 56,5 66,10 71,10 79,15 84,18 89,23 91,28 97,30 99,39 101,43 102,51 102,55 101,64 102,71 97,81 96,87 92,96 89,107 84,114 76,128 71,134 63,148 56,160 46,170 38,183 28,195 15,209 -5,216 -15,201 -28,190 -41,175 -48,166 -58,152 -69,142 -74,130 -81,119 -86,112 -94,102 -97,91 -99,84 -102,74 -104,68 -107,59 -104,53 -104,49 -104,40 -99,33 -97,31 -94,25 -89,20 -81,16 -76,12 -69,11 -61,7 -51,5 -40,3 -31,2 h -18 -7 z"
   id="path504"
   inkscape:connector-curvature="0"
   style="fill:#000000;stroke:none" />
         <path
   d="m 10507,16971 h -15 -48 l -72,-2 -94,-10 -111,-23 -125,-36 -135,-53 -137,-77 -137,-99 -135,-124 -127,-158 -114,-193 -99,-231 -77,-269 -53,-318 -23,-363 10,-417 44,-361 71,-310 94,-262 112,-218 127,-178 137,-142 140,-112 142,-81 137,-61 130,-38 117,-26 96,-13 77,-2 48,-3 h 18 l 2,-264 h -5 -18 l -30,3 -38,2 -49,3 -56,5 -66,10 -71,10 -79,15 -83,18 -89,23 -94,28 -97,33 -99,38 -99,43 -102,49 -104,58 -102,64 -99,71 -99,78 -96,89 -92,97 -89,104 -84,117 -76,125 -71,137 -64,147 -56,158 -45,170 -38,183 -28,195 -16,209 5,216 16,201 28,190 40,175 49,166 58,152 69,142 73,130 82,122 86,109 94,102 97,91 99,84 101,76 105,66 106,61 105,54 104,46 104,40 99,36 97,30 94,23 89,23 81,15 76,13 69,10 61,8 51,5 40,2 31,3 h 18 7 z"
   id="path506"
   inkscape:connector-curvature="0"
   style="fill:#000000;stroke:none" />
         <path
   d="m 9125,17274 -71,55 -67,44 -61,30 -55,18 -49,8 -43,-3 -38,-13 -33,-20 -28,-25 -20,-36 -16,-41 -10,-45 -5,-51 v -54 l 5,-55 13,-59 71,-107 79,-116 84,-125 89,-132 94,-140 96,-147 102,-153 104,-155 107,-162 109,-163 109,-165 112,-168 109,-168 112,-167 110,-165 109,-166 107,-160 104,-157 101,-153 97,-150 94,-139 89,-135 84,-127 79,-117 71,-109 63,-99 59,-87 48,-73 43,-64 31,-48 23,-33 12,-18 41,-56 46,-58 48,-61 56,-64 56,-61 61,-63 61,-61 61,-61 61,-61 61,-56 58,-56 56,-51 51,-46 48,-43 43,-38 36,-33 -20,76 -23,82 -28,83 -28,89 -31,87 -33,89 -35,86 -33,84 -33,81 -33,79 -33,71 -31,66 -28,56 -23,51 -23,41 -17,28 -84,127 -82,129 -81,127 -84,127 -81,125 -81,127 -82,124 -81,125 -81,124 -82,125 -81,124 -81,125 -82,124 -78,125 -82,124 -81,122 -81,125 -82,124 -81,125 -79,124 -81,127 -81,125 -84,124 -82,127 -81,128 -81,127 -84,127 -81,127 -84,129 -82,130 -83,129 z"
   id="path508"
   inkscape:connector-curvature="0"
   style="fill:#000000;stroke:none" />
         <path
   d="m 11867,12837 25,-66 33,-84 36,-96 40,-102 39,-102 40,-91 33,-76 31,-54 -36,36 -33,33 -35,35 -34,36 -35,36 -33,35 -36,36 -33,33 -35,35 -36,36 -35,33 -36,35 -36,34 -35,33 -36,33 -35,33 25,223 z"
   id="path510"
   inkscape:connector-curvature="0"
   style="fill:#666666;stroke:none" />
         <path
   d="m 11867,12837 v 0 l 25,-66 33,-84 36,-96 40,-102 39,-102 40,-91 33,-76 31,-54 v 0 l -36,36 -33,33 -35,35 -34,36 -35,36 -33,35 -36,36 -33,33 -35,35 -36,36 -35,33 -36,35 -36,34 -35,33 -36,33 -35,33 25,223 z"
   id="path512"
   inkscape:connector-curvature="0"
   style="fill:none;stroke:#666666" />
         <path
   d="m 11668,12837 443,-622 -488,475 z"
   id="path514"
   inkscape:connector-curvature="0"
   style="fill:#cecece;stroke:none" />
         <path
   d="m 11668,12837 443,-622 -488,475 z"
   id="path516"
   inkscape:connector-curvature="0"
   style="fill:none;stroke:#cecece" />
         <path
   d="m 11704,13165 -84,127 -81,127 -84,127 -81,127 -84,127 -81,127 -84,127 -82,130 -81,127 -84,129 -81,127 -81,130 -84,127 -82,130 -84,127 -81,127 -84,129 -84,127 -81,127 -84,130 -84,127 -83,127 -84,125 -87,127 -84,127 -86,124 -86,125 -84,127 -89,122 -87,124 -86,125 -89,122 -20,20 -31,20 -33,21 -41,18 -38,15 -38,12 -30,8 -26,3 -53,-8 -33,-25 -18,-36 -5,-46 3,-48 5,-48 7,-43 v -36 l 87,-127 84,-127 86,-125 86,-127 84,-127 87,-127 84,-127 86,-127 84,-127 86,-127 84,-127 86,-127 84,-130 84,-127 84,-127 86,-127 84,-129 84,-127 84,-127 84,-128 84,-129 84,-127 83,-130 84,-127 84,-129 84,-127 84,-130 84,-127 84,-130 84,-129 81,-127 84,-130 38,206 z"
   id="path518"
   inkscape:connector-curvature="0"
   style="fill:#e5e5e5;stroke:none" />
         <path
   d="m 9041,17235 v 0 l 89,-121 86,-125 87,-125 88,-121 84,-128 87,-124 86,-125 84,-127 86,-127 84,-124 84,-127 84,-127 84,-130 81,-127 84,-127 84,-130 81,-127 84,-127 81,-129 84,-127 84,-130 79,-127 84,-129 84,-128 78,-129 84,-127 82,-127 83,-127 82,-127 84,-127 81,-127 84,-127 -36,-26 -84,127 -81,127 -84,127 -81,127 -84,127 -81,127 -84,127 -84,130 -79,127 -84,130 -83,127 -79,129 -84,127 -81,130 -84,127 -82,127 -84,130 -83,127 -82,127 -84,129 -83,127 -84,127 -84,125 -87,127 -83,127 -87,125 -86,124 -84,127 -89,122 -86,125 -87,124 -89,122 v 0 z"
   id="path520"
   inkscape:connector-curvature="0"
   style="fill:#000000;stroke:none" />
         <path
   d="m 8766,17363 v 0 l 28,-3 33,-8 41,-15 38,-15 43,-18 36,-23 30,-20 26,-26 -36,-25 -15,15 -31,21 -30,17 -38,18 -38,15 -36,11 -28,7 -23,3 v 0 z"
   id="path522"
   inkscape:connector-curvature="0"
   style="fill:#000000;stroke:none" />
         <path
   d="m 8655,17037 -6,13 v 36 l -7,40 -5,51 -3,48 5,51 23,46 43,30 61,11 v -46 l -45,-5 -23,-21 -13,-25 -5,-41 2,-48 6,-46 7,-45 v -36 l -5,13 5,-13 -7,-18 -16,-5 -15,5 -8,18 z"
   id="path524"
   inkscape:connector-curvature="0"
   style="fill:#000000;stroke:none" />
         <path
   d="m 11397,12962 -41,-11 -84,130 -81,127 -84,130 -84,129 -84,127 -84,130 -84,127 -83,129 -84,128 -84,129 -84,127 -84,130 -84,127 -84,127 -83,127 -84,129 -87,128 -84,127 -83,127 -84,129 -87,127 -84,127 -86,127 -84,127 -86,127 -84,128 -87,127 -83,127 -87,127 -86,124 -84,127 -86,127 35,26 86,-127 84,-127 87,-125 86,-127 84,-127 86,-127 84,-127 87,-127 84,-127 86,-127 84,-127 86,-127 84,-130 84,-127 84,-127 86,-127 84,-130 84,-127 84,-127 84,-127 84,-129 83,-127 84,-130 84,-127 84,-130 84,-127 84,-129 84,-127 83,-130 84,-130 82,-127 83,-129 -40,-10 40,10 3,-18 -8,-13 -15,-5 -15,10 z"
   id="path526"
   inkscape:connector-curvature="0"
   style="fill:#000000;stroke:none" />
         <path
   d="m 11412,13147 23,20 -38,-205 -46,5 38,205 23,21 -23,-21 8,16 17,5 16,-8 5,-18 z"
   id="path528"
   inkscape:connector-curvature="0"
   style="fill:#000000;stroke:none" />
         <path
   d="m 11722,13178 -18,-36 -292,5 v 46 l 292,-5 -18,-36 18,36 18,-8 5,-15 -5,-15 -18,-8 z"
   id="path530"
   inkscape:connector-curvature="0"
   style="fill:#000000;stroke:none" />
         <path
   d="m 11717,13127 -87,127 -83,127 -87,127 -84,127 -84,127 -86,127 -84,127 -84,127 -84,130 -83,127 -84,127 -84,129 -84,127 -84,127 -84,130 -81,127 -84,130 -84,127 -84,127 -84,129 -81,127 -84,130 -84,127 -83,130 -82,127 -84,129 -84,127 -83,127 -82,130 -84,127 -83,130 -84,127 -237,127 -61,-10 -43,-44 2780,-4159 z"
   id="path532"
   inkscape:connector-curvature="0"
   style="fill:#a5a5a5;stroke:none" />
         <path
   d="m 11717,13127 v 0 l -87,127 -83,127 -87,127 -84,127 -84,127 -86,127 -84,127 -84,127 -84,130 -83,127 -84,127 -84,129 -84,127 -84,127 -84,130 -81,127 -84,130 -84,127 -84,127 -84,129 -81,127 -84,130 -84,127 -83,130 -82,127 -84,129 -84,127 -83,127 -82,130 -84,127 -83,130 -84,127 -237,127 -61,-10 -43,-44 2780,-4159 z"
   id="path534"
   inkscape:connector-curvature="0"
   style="fill:none;stroke:#a5a5a5" />
         <path
   d="m 11679,13208 188,-368 -211,7 -51,-140 -264,300 28,16 30,48 -51,91 31,5 25,3 21,2 17,3 13,8 10,10 8,20 7,28 3,5 3,3 7,2 h 5 l 94,-61 h 8 10 l 13,3 15,2 15,3 13,2 8,5 z"
   id="path536"
   inkscape:connector-curvature="0"
   style="fill:#e5e5e5;stroke:none" />
         <path
   d="m 11867,12855 -16,-23 -188,368 31,16 188,-369 -15,-23 15,23 v -12 l -8,-11 -12,-2 -11,10 z"
   id="path538"
   inkscape:connector-curvature="0"
   style="fill:#000000;stroke:none" />
         <path
   d="m 11641,12852 15,10 211,-7 v -31 l -211,8 15,10 -15,-10 -10,5 -5,10 5,10 10,5 z"
   id="path540"
   inkscape:connector-curvature="0"
   style="fill:#000000;stroke:none" />
         <path
   d="m 11618,12718 -28,-5 51,139 30,-10 -51,-140 -28,-5 28,5 -7,-10 h -11 l -10,8 -2,13 z"
   id="path542"
   inkscape:connector-curvature="0"
   style="fill:#000000;stroke:none" />
         <path
   d="m 11348,12992 5,25 265,-299 -26,-21 -264,300 5,26 -5,-26 -3,13 6,7 12,6 10,-6 z"
   id="path544"
   inkscape:connector-curvature="0"
   style="fill:#000000;stroke:none" />
         <path
   d="m 11381,13015 -5,-8 -28,-15 -15,31 28,15 -5,-8 5,8 h 13 l 10,-8 2,-13 -10,-10 z"
   id="path546"
   inkscape:connector-curvature="0"
   style="fill:#000000;stroke:none" />
         <path
   d="m 11414,13078 -2,-15 -31,-48 -25,15 30,48 -2,-15 2,15 11,6 10,-3 7,-8 -2,-10 z"
   id="path548"
   inkscape:connector-curvature="0"
   style="fill:#000000;stroke:none" />
         <path
   d="m 11351,13147 13,23 50,-92 -30,-15 -51,92 13,23 -13,-23 v 12 l 8,11 12,2 11,-10 z"
   id="path550"
   inkscape:connector-curvature="0"
   style="fill:#000000;stroke:none" />
         <path
   d="m 11498,13241 -2,-2 -8,-31 -8,-23 -15,-15 -18,-10 -22,-3 -21,-2 -25,-3 -28,-5 -5,31 33,5 25,2 21,3 12,2 8,5 5,5 8,18 7,26 -2,-3 z"
   id="path552"
   inkscape:connector-curvature="0"
   style="fill:#000000;stroke:none" />
         <path
   d="m 11491,13239 2,-3 h 3 l -3,-3 3,6 2,2 h -35 l 7,13 8,10 13,2 h 12 l 3,-2 -3,2 10,-7 v -13 l -7,-7 -13,-3 z"
   id="path554"
   inkscape:connector-curvature="0"
   style="fill:#000000;stroke:none" />
         <path
   d="m 11590,13175 -5,3 -94,61 15,25 94,-61 -5,2 5,-2 5,-10 v -10 l -10,-8 -10,3 z"
   id="path556"
   inkscape:connector-curvature="0"
   style="fill:#000000;stroke:none" />
         <path
   d="m 11663,13200 h 28 l -10,-10 -10,-5 -15,-2 -15,-3 -16,-2 -15,-3 -10,-3 -10,3 5,30 5,3 10,-3 10,3 15,3 16,2 10,3 5,5 v -5 h 28 -28 l 10,5 10,-3 8,-7 -3,-11 z"
   id="path558"
   inkscape:connector-curvature="0"
   style="fill:#000000;stroke:none" />
         <path
   d="m 11486,13310 h 61 l 45,-54 51,-7 -2600,3966 -2,3 -8,10 -13,15 -15,18 -18,18 -20,17 -20,16 -21,12 -17,8 -18,3 -20,5 h -18 l -18,2 h -13 -10 -2 z"
   id="path560"
   inkscape:connector-curvature="0"
   style="fill:#666666;stroke:none" />
         <path
   d="m 11486,13310 h 61 l 45,-54 51,-7 -2600,3966 v 0 l -2,3 -8,10 -13,15 -15,18 -18,18 -20,17 -20,16 -21,12 v 0 l -17,8 -18,3 -20,5 h -18 l -18,2 h -13 -10 -2 z"
   id="path562"
   inkscape:connector-curvature="0"
   style="fill:none;stroke:#666666" />
         <path
   d="m 9521,16582 -43,-48 -41,-48 -40,-48 -39,-51 -38,-54 -33,-58 -30,-66 -26,-71 -287,439 43,46 51,41 51,38 53,35 54,33 53,34 51,33 48,33 z"
   id="path564"
   inkscape:connector-curvature="0"
   style="fill:#000000;stroke:none" />
        </g>
       </g>
      </g>
     </g>
    </g>
   </g>
  </g>
 </g>
</svg>