<?xml version="1.0" encoding="UTF-8" standalone="no"?>
<svg
   xmlns:ooo="http://xml.openoffice.org/svg/export"
   xmlns:dc="http://purl.org/dc/elements/1.1/"
   xmlns:cc="http://creativecommons.org/ns#"
   xmlns:rdf="http://www.w3.org/1999/02/22-rdf-syntax-ns#"
   xmlns:svg="http://www.w3.org/2000/svg"
   xmlns="http://www.w3.org/2000/svg"
   xmlns:sodipodi="http://sodipodi.sourceforge.net/DTD/sodipodi-0.dtd"
   xmlns:inkscape="http://www.inkscape.org/namespaces/inkscape"
   version="1.2"
   width="46.200001mm"
   height="64.870003mm"
   viewBox="0 0 4620.0001 6487.0003"
   preserveAspectRatio="xMidYMid"
   xml:space="preserve"
   id="svg581"
   sodipodi:docname="o2.svg"
   style="fill-rule:evenodd;stroke-width:28.22200012;stroke-linejoin:round"
   inkscape:version="0.92.5 (2060ec1f9f, 2020-04-08)"><metadata
   id="metadata585"><rdf:RDF><cc:Work
       rdf:about=""><dc:format>image/svg+xml</dc:format><dc:type
         rdf:resource="http://purl.org/dc/dcmitype/StillImage" /></cc:Work></rdf:RDF></metadata><sodipodi:namedview
   pagecolor="#ffffff"
   bordercolor="#666666"
   borderopacity="1"
   objecttolerance="10"
   gridtolerance="10"
   guidetolerance="10"
   inkscape:pageopacity="0"
   inkscape:pageshadow="2"
   inkscape:window-width="664"
   inkscape:window-height="487"
   id="namedview583"
   showgrid="false"
   inkscape:zoom="0.2102413"
   inkscape:cx="87.307087"
   inkscape:cy="122.57008"
   inkscape:window-x="0"
   inkscape:window-y="0"
   inkscape:window-maximized="0"
   inkscape:current-layer="svg581" />
 <defs
   class="ClipPathGroup"
   id="defs8">
  <clipPath
   id="presentation_clip_path"
   clipPathUnits="userSpaceOnUse">
   <rect
   x="0"
   y="0"
   width="21000"
   height="29700"
   id="rect2" />
  </clipPath>
  <clipPath
   id="presentation_clip_path_shrink"
   clipPathUnits="userSpaceOnUse">
   <rect
   x="21"
   y="29"
   width="20958"
   height="29641"
   id="rect5" />
  </clipPath>
 </defs>
 <defs
   class="TextShapeIndex"
   id="defs12">
  <g
   ooo:slide="id1"
   ooo:id-list="id3"
   id="g10" />
 </defs>
 <defs
   class="EmbeddedBulletChars"
   id="defs44">
  <g
   id="bullet-char-template-57356"
   transform="matrix(4.8828125e-4,0,0,-4.8828125e-4,0,0)">
   <path
   d="M 580,1141 1163,571 580,0 -4,571 Z"
   id="path14"
   inkscape:connector-curvature="0" />
  </g>
  <g
   id="bullet-char-template-57354"
   transform="matrix(4.8828125e-4,0,0,-4.8828125e-4,0,0)">
   <path
   d="M 8,1128 H 1137 V 0 H 8 Z"
   id="path17"
   inkscape:connector-curvature="0" />
  </g>
  <g
   id="bullet-char-template-10146"
   transform="matrix(4.8828125e-4,0,0,-4.8828125e-4,0,0)">
   <path
   d="M 174,0 602,739 174,1481 1456,739 Z M 1358,739 309,1346 659,739 Z"
   id="path20"
   inkscape:connector-curvature="0" />
  </g>
  <g
   id="bullet-char-template-10132"
   transform="matrix(4.8828125e-4,0,0,-4.8828125e-4,0,0)">
   <path
   d="M 2015,739 1276,0 H 717 l 543,543 H 174 v 393 h 1086 l -543,545 h 557 z"
   id="path23"
   inkscape:connector-curvature="0" />
  </g>
  <g
   id="bullet-char-template-10007"
   transform="matrix(4.8828125e-4,0,0,-4.8828125e-4,0,0)">
   <path
   d="m 0,-2 c -7,16 -16,29 -25,39 l 381,530 c -94,256 -141,385 -141,387 0,25 13,38 40,38 9,0 21,-2 34,-5 21,4 42,12 65,25 l 27,-13 111,-251 280,301 64,-25 24,25 c 21,-10 41,-24 62,-43 C 886,937 835,863 770,784 769,783 710,716 594,584 L 774,223 c 0,-27 -21,-55 -63,-84 l 16,-20 C 717,90 699,76 672,76 641,76 570,178 457,381 L 164,-76 c -22,-34 -53,-51 -92,-51 -42,0 -63,17 -64,51 -7,9 -10,24 -10,44 0,9 1,19 2,30 z"
   id="path26"
   inkscape:connector-curvature="0" />
  </g>
  <g
   id="bullet-char-template-10004"
   transform="matrix(4.8828125e-4,0,0,-4.8828125e-4,0,0)">
   <path
   d="M 285,-33 C 182,-33 111,30 74,156 52,228 41,333 41,471 c 0,78 14,145 41,201 34,71 87,106 158,106 53,0 88,-31 106,-94 l 23,-176 c 8,-64 28,-97 59,-98 l 735,706 c 11,11 33,17 66,17 42,0 63,-15 63,-46 V 965 c 0,-36 -10,-64 -30,-84 L 442,47 C 390,-6 338,-33 285,-33 Z"
   id="path29"
   inkscape:connector-curvature="0" />
  </g>
  <g
   id="bullet-char-template-9679"
   transform="matrix(4.8828125e-4,0,0,-4.8828125e-4,0,0)">
   <path
   d="M 813,0 C 632,0 489,54 383,161 276,268 223,411 223,592 c 0,181 53,324 160,431 106,107 249,161 430,161 179,0 323,-54 432,-161 108,-107 162,-251 162,-431 0,-180 -54,-324 -162,-431 C 1136,54 992,0 813,0 Z"
   id="path32"
   inkscape:connector-curvature="0" />
  </g>
  <g
   id="bullet-char-template-8226"
   transform="matrix(4.8828125e-4,0,0,-4.8828125e-4,0,0)">
   <path
   d="m 346,457 c -73,0 -137,26 -191,78 -54,51 -81,114 -81,188 0,73 27,136 81,188 54,52 118,78 191,78 73,0 134,-26 185,-79 51,-51 77,-114 77,-187 0,-75 -25,-137 -76,-188 -50,-52 -112,-78 -186,-78 z"
   id="path35"
   inkscape:connector-curvature="0" />
  </g>
  <g
   id="bullet-char-template-8211"
   transform="matrix(4.8828125e-4,0,0,-4.8828125e-4,0,0)">
   <path
   d="M -4,459 H 1135 V 606 H -4 Z"
   id="path38"
   inkscape:connector-curvature="0" />
  </g>
  <g
   id="bullet-char-template-61548"
   transform="matrix(4.8828125e-4,0,0,-4.8828125e-4,0,0)">
   <path
   d="m 173,740 c 0,163 58,303 173,419 116,115 255,173 419,173 163,0 302,-58 418,-173 116,-116 174,-256 174,-419 0,-163 -58,-303 -174,-418 C 1067,206 928,148 765,148 601,148 462,206 346,322 231,437 173,577 173,740 Z"
   id="path41"
   inkscape:connector-curvature="0" />
  </g>
 </defs>
 <g
   id="g49"
   transform="translate(-8190,-11606)">
  <g
   id="id2"
   class="Master_Slide">
   <g
   id="bg-id2"
   class="Background" />
   <g
   id="bo-id2"
   class="BackgroundObjects" />
  </g>
 </g>
 <g
   class="SlideGroup"
   id="g579"
   transform="translate(-8190,-11606)">
  <g
   id="g577">
   <g
   id="container-id1">
    <g
   id="id1"
   class="Slide"
   clip-path="url(#presentation_clip_path)">
     <g
   class="Page"
   id="g573">
      <g
   class="Graphic"
   id="g571">
       <g
   id="id3">
        <rect
   class="BoundingBox"
   x="8190"
   y="11606"
   width="4620"
   height="6487"
   id="rect51"
   style="fill:none;stroke:none" />
        <defs
   id="defs56">
         <clipPath
   id="clip_path_1"
   clipPathUnits="userSpaceOnUse">
          <path
   d="m 8190,11606 h 4619 v 6486 H 8190 Z"
   id="path53"
   inkscape:connector-curvature="0" />
         </clipPath>
        </defs>
        <g
   clip-path="url(#clip_path_1)"
   id="g568">
         <path
   d="m 8970,13113 -56,48 -53,51 -56,51 -53,56 -56,53 -54,58 -53,59 -51,58 -51,61 -48,61 -46,64 -45,63 -44,64 -40,63 -38,64 -36,63 114,107 115,109 112,110 114,106 112,110 112,109 111,109 112,109 112,112 112,109 112,110 109,111 112,110 109,112 109,111 112,112 109,112 110,112 109,112 109,111 109,112 110,112 109,114 107,112 109,112 109,114 107,112 109,114 107,115 109,112 110,114 106,114 23,26 23,28 20,28 21,27 20,31 23,28 20,28 21,28 63,-41 64,-40 63,-46 64,-48 63,-49 66,-53 61,-53 64,-56 61,-59 58,-58 56,-61 53,-61 54,-61 46,-64 45,-63 41,-64 -109,-127 -110,-129 -109,-127 -112,-128 -111,-127 -112,-127 -115,-124 -114,-127 -117,-125 -117,-124 -117,-125 -117,-122 -119,-124 -119,-122 -120,-122 -122,-122 -122,-122 -122,-119 -122,-120 -124,-119 -122,-117 -125,-117 -124,-117 -125,-117 -127,-114 -124,-115 -128,-111 -127,-115 -127,-111 -127,-110 -127,-109 z"
   id="path58"
   inkscape:connector-curvature="0"
   style="fill:#000000;stroke:none" />
         <path
   d="m 8200,14040 3,15 35,-61 38,-63 39,-64 43,-63 45,-64 46,-63 48,-61 51,-61 51,-59 54,-55 53,-59 56,-53 53,-56 56,-51 53,-51 54,-48 -15,-20 -59,48 -53,51 -56,51 -54,55 -55,54 -54,58 -53,61 -51,59 -51,61 -48,61 -46,63 -46,64 -43,63 -43,64 -38,63 -36,66 3,16 -3,-16 v 10 l 10,6 8,2 8,-8 z"
   id="path60"
   inkscape:connector-curvature="0"
   style="fill:#000000;stroke:none" />
         <path
   d="m 11727,17600 v 0 l -106,-114 -110,-115 -109,-111 -107,-115 -109,-114 -107,-112 -109,-114 -109,-112 -107,-112 -109,-114 -109,-112 -110,-112 -109,-112 -109,-111 -110,-112 -109,-112 -112,-112 -109,-112 -109,-111 -112,-110 -109,-111 -112,-110 -112,-109 -112,-112 -112,-109 -111,-109 -112,-110 -112,-109 -114,-107 -112,-109 -114,-109 -115,-107 -20,21 114,106 115,110 111,109 115,106 112,110 111,109 112,109 112,110 112,111 112,110 111,109 110,112 112,109 109,112 109,112 112,111 109,112 109,112 110,112 109,112 109,111 110,112 109,114 107,112 109,112 109,114 107,112 109,115 107,114 109,112 109,114 107,114 v 0 z"
   id="path62"
   inkscape:connector-curvature="0"
   style="fill:#000000;stroke:none" />
         <path
   d="m 11880,17821 18,5 -21,-28 -20,-28 -23,-28 -20,-30 -21,-28 -20,-28 -23,-28 -23,-28 -20,20 23,23 23,28 20,28 20,28 21,31 23,28 20,27 20,28 18,6 -18,-6 11,6 7,-3 5,-8 -2,-10 z"
   id="path64"
   inkscape:connector-curvature="0"
   style="fill:#000000;stroke:none" />
         <path
   d="m 12800,16965 -3,-15 -38,63 -46,64 -45,63 -54,61 -53,61 -56,59 -58,58 -61,58 -61,56 -61,54 -66,53 -64,48 -64,49 -63,45 -64,38 -63,41 15,26 64,-41 63,-43 64,-46 63,-48 64,-49 66,-53 61,-53 66,-56 61,-59 58,-58 56,-64 54,-61 53,-61 46,-63 46,-64 43,-63 -3,-15 3,15 2,-10 -7,-11 h -11 l -10,6 z"
   id="path66"
   inkscape:connector-curvature="0"
   style="fill:#000000;stroke:none" />
         <path
   d="m 8978,13123 h -15 l 127,109 127,109 127,110 127,112 127,114 124,112 125,114 127,114 124,117 125,117 125,117 122,117 124,119 122,120 122,119 122,122 122,122 119,122 120,122 119,125 117,121 117,125 117,124 117,125 114,127 115,125 111,124 112,127 112,127 109,127 110,130 109,127 20,-15 -109,-127 -109,-130 -110,-127 -111,-127 -112,-127 -112,-130 -114,-124 -115,-127 -117,-125 -117,-124 -117,-125 -116,-122 -120,-124 -119,-122 -120,-122 -122,-122 -122,-122 -122,-120 -122,-119 -124,-119 -122,-117 -125,-117 -124,-117 -125,-117 -127,-114 -124,-115 -130,-111 -127,-115 -127,-112 -127,-109 -127,-109 -127,-109 h -15 z"
   id="path68"
   inkscape:connector-curvature="0"
   style="fill:#000000;stroke:none" />
         <path
   d="m 8241,14030 119,112 117,109 120,112 119,112 117,114 117,112 119,114 117,112 117,114 117,115 117,114 114,117 117,114 114,117 117,117 115,114 114,120 114,117 115,117 112,119 114,117 112,119 112,120 111,119 112,120 110,119 109,119 112,122 106,122 110,120 109,122 107,122 58,-38 59,-41 58,-41 58,-45 59,-46 58,-48 59,-49 56,-51 56,-50 53,-54 53,-56 49,-56 48,-55 46,-56 43,-56 40,-59 -106,-127 -110,-124 -111,-125 -110,-124 -111,-125 -112,-124 -115,-125 -111,-122 -117,-122 -115,-122 -117,-122 -116,-122 -117,-119 -117,-119 -120,-122 -119,-117 -120,-120 -119,-117 -122,-119 -119,-117 -122,-117 -122,-114 -122,-117 -122,-114 -122,-115 -125,-112 -122,-114 -124,-112 -125,-111 -122,-112 -124,-112 -125,-109 -51,43 -51,46 -53,48 -51,48 -51,51 -48,53 -51,54 -48,53 -46,56 -45,58 -44,56 -43,59 -38,58 -38,59 -33,61 z"
   id="path70"
   inkscape:connector-curvature="0"
   style="fill:#e2e2e2;stroke:none" />
         <path
   d="m 8780,13580 45,28 -12,13 -21,18 -23,23 -25,22 -20,23 -16,23 -5,18 8,10 -56,-48 8,8 12,-3 21,-13 20,-15 20,-18 18,-18 15,-15 8,-7 5,-5 8,-11 5,-10 v -7 l -15,-8 v 0 l -3,-5 v -3 z"
   id="path72"
   inkscape:connector-curvature="0"
   style="fill:#494949;stroke:none" />
         <path
   d="m 8780,13580 45,28 v 0 l -12,13 -21,18 -23,23 -25,22 -20,23 -16,23 -5,18 8,10 -56,-48 v 0 l 8,8 12,-3 21,-13 20,-15 20,-18 18,-18 15,-15 8,-7 v 0 l 5,-5 8,-11 5,-10 v -7 l -15,-8 v 0 0 l -3,-5 v -3 z"
   id="path74"
   inkscape:connector-curvature="0"
   style="fill:none;stroke:#494949" />
         <path
   d="m 9461,14213 38,-5 38,33 -3,8 -10,15 -15,20 -18,23 -18,23 -20,20 -20,13 -18,5 -56,-46 5,-10 18,15 20,23 18,8 15,-10 13,-10 5,-16 3,-20 v -8 l -6,-5 -2,-2 -5,-8 5,-10 8,2 h 15 18 17 l 16,-5 5,-7 -3,-13 -18,-18 -45,-10 z"
   id="path76"
   inkscape:connector-curvature="0"
   style="fill:#494949;stroke:none" />
         <path
   d="m 9461,14213 38,-5 38,33 v 0 l -3,8 -10,15 -15,20 -18,23 -18,23 -20,20 -20,13 -18,5 -56,-46 v 0 l 5,-10 18,15 20,23 18,8 v 0 l 15,-10 13,-10 5,-16 3,-20 v 0 -8 l -6,-5 -2,-2 -5,-8 5,-10 v 0 l 8,2 h 15 18 17 l 16,-5 5,-7 -3,-13 -18,-18 -45,-10 z"
   id="path78"
   inkscape:connector-curvature="0"
   style="fill:none;stroke:#494949" />
         <path
   d="m 9804,14660 -36,31 -15,-18 33,-33 -56,-56 13,-15 152,-28 10,10 -86,94 10,10 -2,13 -13,5 z"
   id="path80"
   inkscape:connector-curvature="0"
   style="fill:#494949;stroke:none" />
         <path
   d="m 9804,14660 -36,31 -15,-18 33,-33 -56,-56 13,-15 152,-28 10,10 -86,94 v 0 l 10,10 -2,13 -13,5 z"
   id="path82"
   inkscape:connector-curvature="0"
   style="fill:none;stroke:#494949" />
         <path
   d="m 9801,14625 69,-69 -117,23 z"
   id="path84"
   inkscape:connector-curvature="0"
   style="fill:#e2e2e2;stroke:none" />
         <path
   d="m 9801,14625 69,-69 -117,23 z"
   id="path86"
   inkscape:connector-curvature="0"
   style="fill:none;stroke:#e2e2e2" />
         <path
   d="m 10220,14871 -25,10 -41,-38 -25,10 8,18 7,26 5,22 -5,21 -46,38 h -25 l -56,-46 v -5 l 8,-3 h 5 7 l 13,36 28,8 41,-28 5,-33 -26,-54 74,-28 z"
   id="path88"
   inkscape:connector-curvature="0"
   style="fill:#494949;stroke:none" />
         <path
   d="m 10220,14871 -25,10 -41,-38 -25,10 v 0 l 8,18 7,26 5,22 -5,21 -46,38 h -25 l -56,-46 v 0 -5 l 8,-3 h 5 7 l 13,36 28,8 41,-28 5,-33 -26,-54 74,-28 z"
   id="path90"
   inkscape:connector-curvature="0"
   style="fill:none;stroke:#494949" />
         <path
   d="m 10787,15428 81,78 -185,92 -15,-10 167,-82 -7,-7 -8,-10 -13,-11 -10,-10 -12,-7 -13,-5 -13,-3 -10,3 z"
   id="path92"
   inkscape:connector-curvature="0"
   style="fill:#494949;stroke:none" />
         <path
   d="m 10787,15428 81,78 -185,92 -15,-10 167,-82 v 0 l -7,-7 -8,-10 -13,-11 -10,-10 -12,-7 -13,-5 -13,-3 -10,3 z"
   id="path94"
   inkscape:connector-curvature="0"
   style="fill:none;stroke:#494949" />
         <path
   d="m 11054,15816 -8,-12 3,-18 5,-18 10,-15 10,-5 13,-5 h 15 l 13,5 36,38 v 20 l -6,10 -10,8 -10,10 h -38 l -3,26 -7,25 -13,20 -20,13 -13,-5 -13,-8 -15,-7 -13,-8 -10,-10 -5,-13 -2,-15 7,-15 z"
   id="path96"
   inkscape:connector-curvature="0"
   style="fill:#494949;stroke:none" />
         <path
   d="m 11054,15816 v 0 l -8,-12 3,-18 5,-18 10,-15 v 0 l 10,-5 13,-5 h 15 l 13,5 36,38 v 0 20 l -6,10 -10,8 -10,10 h -38 v 0 l -3,26 -7,25 -13,20 -20,13 v 0 l -13,-5 -13,-8 -15,-7 -13,-8 -10,-10 -5,-13 -2,-15 7,-15 z"
   id="path98"
   inkscape:connector-curvature="0"
   style="fill:none;stroke:#494949" />
         <path
   d="m 11077,15821 h 15 l 13,-5 13,-7 12,-8 3,-15 -18,-26 -8,-2 h -5 l -7,2 -5,3 -13,18 z"
   id="path100"
   inkscape:connector-curvature="0"
   style="fill:#e2e2e2;stroke:none" />
         <path
   d="m 11077,15821 v 0 h 15 l 13,-5 13,-7 12,-8 3,-15 -18,-26 v 0 l -8,-2 h -5 l -7,2 -5,3 -13,18 z"
   id="path102"
   inkscape:connector-curvature="0"
   style="fill:none;stroke:#e2e2e2" />
         <path
   d="m 10998,15880 23,18 h 10 l 23,-21 8,-23 -5,-17 -11,-8 h -12 l -16,5 -12,10 -8,16 z"
   id="path104"
   inkscape:connector-curvature="0"
   style="fill:#e2e2e2;stroke:none" />
         <path
   d="m 10998,15880 23,18 h 10 l 23,-21 v 0 l 8,-23 -5,-17 -11,-8 h -12 l -16,5 -12,10 -8,16 z"
   id="path106"
   inkscape:connector-curvature="0"
   style="fill:none;stroke:#e2e2e2" />
         <path
   d="m 11252,16197 15,8 16,8 15,2 h 18 15 l 18,-2 15,-8 15,-8 -43,-17 -10,-10 -3,-13 -2,-15 2,-13 61,-48 16,5 17,7 16,10 12,13 -2,18 -5,15 -8,15 -10,13 -13,13 -12,10 -13,13 -13,12 -13,3 -15,5 h -15 -13 z"
   id="path108"
   inkscape:connector-curvature="0"
   style="fill:#494949;stroke:none" />
         <path
   d="m 11252,16197 v 0 l 15,8 16,8 15,2 h 18 15 l 18,-2 15,-8 15,-8 -43,-17 v 0 l -10,-10 -3,-13 -2,-15 2,-13 61,-48 v 0 l 16,5 17,7 16,10 12,13 v 0 l -2,18 -5,15 -8,15 -10,13 -13,13 -12,10 -13,13 -13,12 v 0 l -13,3 -15,5 h -15 -13 z"
   id="path110"
   inkscape:connector-curvature="0"
   style="fill:none;stroke:#494949" />
         <path
   d="m 11389,16192 41,-58 -5,-18 -13,-15 -15,-8 -15,5 -36,44 -2,20 10,18 15,12 z"
   id="path112"
   inkscape:connector-curvature="0"
   style="fill:#e2e2e2;stroke:none" />
         <path
   d="m 11389,16192 41,-58 v 0 l -5,-18 -13,-15 -15,-8 -15,5 -36,44 v 0 l -2,20 10,18 15,12 z"
   id="path114"
   inkscape:connector-curvature="0"
   style="fill:none;stroke:#e2e2e2" />
         <path
   d="m 11649,16335 40,25 -15,15 -18,16 -23,20 -22,20 -18,23 -13,20 -8,21 5,18 -55,-49 17,3 18,-5 13,-8 15,-13 13,-12 15,-16 13,-15 15,-15 5,-5 8,-8 5,-10 2,-5 z"
   id="path116"
   inkscape:connector-curvature="0"
   style="fill:#494949;stroke:none" />
         <path
   d="m 11649,16335 40,25 v 0 l -15,15 -18,16 -23,20 -22,20 -18,23 -13,20 -8,21 5,18 -55,-49 v 0 l 17,3 18,-5 13,-8 15,-13 13,-12 15,-16 13,-15 15,-15 v 0 l 5,-5 8,-8 5,-10 2,-5 z"
   id="path118"
   inkscape:connector-curvature="0"
   style="fill:none;stroke:#494949" />
         <path
   d="m 11679,16612 -15,-5 -28,-41 56,-97 61,3 38,13 15,17 -2,26 -18,25 -28,23 -36,23 z"
   id="path120"
   inkscape:connector-curvature="0"
   style="fill:#494949;stroke:none" />
         <path
   d="m 11679,16612 -15,-5 -28,-41 56,-97 v 0 l 61,3 38,13 15,17 -2,26 -18,25 -28,23 -36,23 z"
   id="path122"
   inkscape:connector-curvature="0"
   style="fill:none;stroke:#494949" />
         <path
   d="m 11763,16459 -56,28 -33,36 -18,33 v 25 l 16,15 27,-5 39,-30 45,-61 3,-13 -3,-15 -7,-10 z"
   id="path124"
   inkscape:connector-curvature="0"
   style="fill:#e2e2e2;stroke:none" />
         <path
   d="m 11763,16459 v 0 l -56,28 -33,36 -18,33 v 25 l 16,15 27,-5 39,-30 45,-61 v 0 l 3,-13 -3,-15 -7,-10 z"
   id="path126"
   inkscape:connector-curvature="0"
   style="fill:none;stroke:#e2e2e2" />
         <path
   d="m 12261,16975 48,23 -124,135 v 7 l 2,5 3,8 5,2 -56,-50 15,7 18,-5 20,-10 21,-20 18,-21 17,-20 16,-20 12,-13 v -8 l -7,-7 -5,-5 z"
   id="path128"
   inkscape:connector-curvature="0"
   style="fill:#494949;stroke:none" />
         <path
   d="m 12261,16975 48,23 -124,135 v 0 7 l 2,5 3,8 5,2 -56,-50 v 0 l 15,7 18,-5 20,-10 21,-20 18,-21 17,-20 16,-20 12,-13 v 0 -8 l -7,-7 -5,-5 z"
   id="path130"
   inkscape:connector-curvature="0"
   style="fill:none;stroke:#494949" />
         <path
   d="m 11974,17610 v 0 l -104,-119 -107,-117 -107,-120 -104,-119 -109,-117 -107,-117 -107,-119 -109,-117 -109,-117 -107,-117 -112,-117 -109,-117 -109,-116 -112,-117 -112,-115 -112,-114 -112,-114 -111,-115 -115,-114 -112,-114 -114,-112 -114,-112 -115,-112 -117,-112 -114,-109 -117,-109 -117,-109 -117,-110 -116,-106 -117,-107 -117,-107 -120,-104"
   id="path132"
   inkscape:connector-curvature="0"
   style="fill:none;stroke:#000000" />
         <path
   d="m 11882,17631 171,-191"
   id="path134"
   inkscape:connector-curvature="0"
   style="fill:none;stroke:#000000" />
         <path
   d="m 11829,17572 120,-142"
   id="path136"
   inkscape:connector-curvature="0"
   style="fill:none;stroke:#000000" />
         <path
   d="m 11791,17496 119,-150"
   id="path138"
   inkscape:connector-curvature="0"
   style="fill:none;stroke:#000000" />
         <path
   d="m 11722,17435 120,-142"
   id="path140"
   inkscape:connector-curvature="0"
   style="fill:none;stroke:#000000" />
         <path
   d="m 11649,17376 124,-144"
   id="path142"
   inkscape:connector-curvature="0"
   style="fill:none;stroke:#000000" />
         <path
   d="m 11570,17328 170,-190"
   id="path144"
   inkscape:connector-curvature="0"
   style="fill:none;stroke:#000000" />
         <path
   d="m 11517,17249 172,-190"
   id="path146"
   inkscape:connector-curvature="0"
   style="fill:none;stroke:#000000" />
         <path
   d="m 11466,17183 127,-142"
   id="path148"
   inkscape:connector-curvature="0"
   style="fill:none;stroke:#000000" />
         <path
   d="m 11405,17115 122,-143"
   id="path150"
   inkscape:connector-curvature="0"
   style="fill:none;stroke:#000000" />
         <path
   d="m 11346,17061 120,-147"
   id="path152"
   inkscape:connector-curvature="0"
   style="fill:none;stroke:#000000" />
         <path
   d="m 11275,17003 122,-150"
   id="path154"
   inkscape:connector-curvature="0"
   style="fill:none;stroke:#000000" />
         <path
   d="m 11214,16929 175,-190"
   id="path156"
   inkscape:connector-curvature="0"
   style="fill:none;stroke:#000000" />
         <path
   d="m 11161,16850 119,-149"
   id="path158"
   inkscape:connector-curvature="0"
   style="fill:none;stroke:#000000" />
         <path
   d="m 11090,16800 124,-148"
   id="path160"
   inkscape:connector-curvature="0"
   style="fill:none;stroke:#000000" />
         <path
   d="m 11021,16741 122,-145"
   id="path162"
   inkscape:connector-curvature="0"
   style="fill:none;stroke:#000000" />
         <path
   d="m 10957,16662 120,-147"
   id="path164"
   inkscape:connector-curvature="0"
   style="fill:none;stroke:#000000" />
         <path
   d="m 10902,16576 165,-188"
   id="path166"
   inkscape:connector-curvature="0"
   style="fill:none;stroke:#000000" />
         <path
   d="m 10830,16502 127,-147"
   id="path168"
   inkscape:connector-curvature="0"
   style="fill:none;stroke:#000000" />
         <path
   d="m 10762,16454 124,-150"
   id="path170"
   inkscape:connector-curvature="0"
   style="fill:none;stroke:#000000" />
         <path
   d="m 10721,16383 120,-147"
   id="path172"
   inkscape:connector-curvature="0"
   style="fill:none;stroke:#000000" />
         <path
   d="m 10668,16327 119,-147"
   id="path174"
   inkscape:connector-curvature="0"
   style="fill:none;stroke:#000000" />
         <path
   d="m 10622,16241 135,-160"
   id="path176"
   inkscape:connector-curvature="0"
   style="fill:none;stroke:#000000" />
         <path
   d="m 10581,16180 125,-150"
   id="path178"
   inkscape:connector-curvature="0"
   style="fill:none;stroke:#000000" />
         <path
   d="m 10518,16129 119,-150"
   id="path180"
   inkscape:connector-curvature="0"
   style="fill:none;stroke:#000000" />
         <path
   d="m 10452,16058 124,-145"
   id="path182"
   inkscape:connector-curvature="0"
   style="fill:none;stroke:#000000" />
         <path
   d="m 10386,15999 127,-150"
   id="path184"
   inkscape:connector-curvature="0"
   style="fill:none;stroke:#000000" />
         <path
   d="m 10307,15943 173,-190"
   id="path186"
   inkscape:connector-curvature="0"
   style="fill:none;stroke:#000000" />
         <path
   d="m 10251,15872 119,-142"
   id="path188"
   inkscape:connector-curvature="0"
   style="fill:none;stroke:#000000" />
         <path
   d="m 10182,15816 122,-147"
   id="path190"
   inkscape:connector-curvature="0"
   style="fill:none;stroke:#000000" />
         <path
   d="m 10121,15758 122,-150"
   id="path192"
   inkscape:connector-curvature="0"
   style="fill:none;stroke:#000000" />
         <path
   d="m 10060,15692 122,-148"
   id="path194"
   inkscape:connector-curvature="0"
   style="fill:none;stroke:#000000" />
         <path
   d="m 9946,15572 122,-150"
   id="path196"
   inkscape:connector-curvature="0"
   style="fill:none;stroke:#000000" />
         <path
   d="m 9880,15506 124,-142"
   id="path198"
   inkscape:connector-curvature="0"
   style="fill:none;stroke:#000000" />
         <path
   d="m 9824,15433 119,-148"
   id="path200"
   inkscape:connector-curvature="0"
   style="fill:none;stroke:#000000" />
         <path
   d="m 9758,15377 124,-150"
   id="path202"
   inkscape:connector-curvature="0"
   style="fill:none;stroke:#000000" />
         <path
   d="m 9644,15262 124,-139"
   id="path204"
   inkscape:connector-curvature="0"
   style="fill:none;stroke:#000000" />
         <path
   d="m 9578,15204 124,-147"
   id="path206"
   inkscape:connector-curvature="0"
   style="fill:none;stroke:#000000" />
         <path
   d="m 9478,15140 127,-149"
   id="path208"
   inkscape:connector-curvature="0"
   style="fill:none;stroke:#000000" />
         <path
   d="m 9425,15057 125,-148"
   id="path210"
   inkscape:connector-curvature="0"
   style="fill:none;stroke:#000000" />
         <path
   d="m 9346,15016 171,-196"
   id="path212"
   inkscape:connector-curvature="0"
   style="fill:none;stroke:#000000" />
         <path
   d="m 9298,14947 122,-145"
   id="path214"
   inkscape:connector-curvature="0"
   style="fill:none;stroke:#000000" />
         <path
   d="m 9232,14897 119,-153"
   id="path216"
   inkscape:connector-curvature="0"
   style="fill:none;stroke:#000000" />
         <path
   d="m 9171,14825 119,-147"
   id="path218"
   inkscape:connector-curvature="0"
   style="fill:none;stroke:#000000" />
         <path
   d="m 9110,14759 122,-147"
   id="path220"
   inkscape:connector-curvature="0"
   style="fill:none;stroke:#000000" />
         <path
   d="m 9034,14706 173,-193"
   id="path222"
   inkscape:connector-curvature="0"
   style="fill:none;stroke:#000000" />
         <path
   d="m 8990,14625 120,-145"
   id="path224"
   inkscape:connector-curvature="0"
   style="fill:none;stroke:#000000" />
         <path
   d="m 8919,14561 120,-147"
   id="path226"
   inkscape:connector-curvature="0"
   style="fill:none;stroke:#000000" />
         <path
   d="m 8848,14492 122,-149"
   id="path228"
   inkscape:connector-curvature="0"
   style="fill:none;stroke:#000000" />
         <path
   d="m 8802,14421 122,-147"
   id="path230"
   inkscape:connector-curvature="0"
   style="fill:none;stroke:#000000" />
         <path
   d="m 8724,14371 167,-191"
   id="path232"
   inkscape:connector-curvature="0"
   style="fill:none;stroke:#000000" />
         <path
   d="m 8683,14289 125,-150"
   id="path234"
   inkscape:connector-curvature="0"
   style="fill:none;stroke:#000000" />
         <path
   d="m 8617,14233 127,-145"
   id="path236"
   inkscape:connector-curvature="0"
   style="fill:none;stroke:#000000" />
         <path
   d="m 8553,14172 120,-142"
   id="path238"
   inkscape:connector-curvature="0"
   style="fill:none;stroke:#000000" />
         <path
   d="m 8487,14109 120,-145"
   id="path240"
   inkscape:connector-curvature="0"
   style="fill:none;stroke:#000000" />
         <path
   d="m 8409,14061 167,-194"
   id="path242"
   inkscape:connector-curvature="0"
   style="fill:none;stroke:#000000" />
         <path
   d="m 8520,13992 -38,38"
   id="path244"
   inkscape:connector-curvature="0"
   style="fill:none;stroke:#000000" />
         <path
   d="m 8586,14061 -38,33"
   id="path246"
   inkscape:connector-curvature="0"
   style="fill:none;stroke:#000000" />
         <path
   d="m 8650,14119 -38,38"
   id="path248"
   inkscape:connector-curvature="0"
   style="fill:none;stroke:#000000" />
         <path
   d="m 8716,14185 -43,38"
   id="path250"
   inkscape:connector-curvature="0"
   style="fill:none;stroke:#000000" />
         <path
   d="m 8780,14251 -41,38"
   id="path252"
   inkscape:connector-curvature="0"
   style="fill:none;stroke:#000000" />
         <path
   d="m 8843,14312 -41,41"
   id="path254"
   inkscape:connector-curvature="0"
   style="fill:none;stroke:#000000" />
         <path
   d="m 8909,14381 -40,38"
   id="path256"
   inkscape:connector-curvature="0"
   style="fill:none;stroke:#000000" />
         <path
   d="m 8975,14444 -40,36"
   id="path258"
   inkscape:connector-curvature="0"
   style="fill:none;stroke:#000000" />
         <path
   d="m 9039,14505 -41,36"
   id="path260"
   inkscape:connector-curvature="0"
   style="fill:none;stroke:#000000" />
         <path
   d="m 9118,14556 -39,38"
   id="path262"
   inkscape:connector-curvature="0"
   style="fill:none;stroke:#000000" />
         <path
   d="m 9184,14617 -44,38"
   id="path264"
   inkscape:connector-curvature="0"
   style="fill:none;stroke:#000000" />
         <path
   d="m 9247,14683 -40,38"
   id="path266"
   inkscape:connector-curvature="0"
   style="fill:none;stroke:#000000" />
         <path
   d="m 9313,14744 -43,38"
   id="path268"
   inkscape:connector-curvature="0"
   style="fill:none;stroke:#000000" />
         <path
   d="m 9379,14810 -43,38"
   id="path270"
   inkscape:connector-curvature="0"
   style="fill:none;stroke:#000000" />
         <path
   d="m 9430,14863 -43,39"
   id="path272"
   inkscape:connector-curvature="0"
   style="fill:none;stroke:#000000" />
         <path
   d="m 9489,14927 -39,33"
   id="path274"
   inkscape:connector-curvature="0"
   style="fill:none;stroke:#000000" />
         <path
   d="m 9555,14985 -38,39"
   id="path276"
   inkscape:connector-curvature="0"
   style="fill:none;stroke:#000000" />
         <path
   d="m 9639,15072 -44,35"
   id="path278"
   inkscape:connector-curvature="0"
   style="fill:none;stroke:#000000" />
         <path
   d="m 9697,15138 -36,28"
   id="path280"
   inkscape:connector-curvature="0"
   style="fill:none;stroke:#000000" />
         <path
   d="m 9763,15196 -38,36"
   id="path282"
   inkscape:connector-curvature="0"
   style="fill:none;stroke:#000000" />
         <path
   d="m 9814,15247 -38,38"
   id="path284"
   inkscape:connector-curvature="0"
   style="fill:none;stroke:#000000" />
         <path
   d="m 9875,15308 -38,38"
   id="path286"
   inkscape:connector-curvature="0"
   style="fill:none;stroke:#000000" />
         <path
   d="m 9938,15374 -43,33"
   id="path288"
   inkscape:connector-curvature="0"
   style="fill:none;stroke:#000000" />
         <path
   d="m 10007,15435 -41,36"
   id="path290"
   inkscape:connector-curvature="0"
   style="fill:none;stroke:#000000" />
         <path
   d="m 10073,15501 -41,38"
   id="path292"
   inkscape:connector-curvature="0"
   style="fill:none;stroke:#000000" />
         <path
   d="m 10116,15550 -38,38"
   id="path294"
   inkscape:connector-curvature="0"
   style="fill:none;stroke:#000000" />
         <path
   d="m 10172,15608 -43,38"
   id="path296"
   inkscape:connector-curvature="0"
   style="fill:none;stroke:#000000" />
         <path
   d="m 10243,15677 -43,38"
   id="path298"
   inkscape:connector-curvature="0"
   style="fill:none;stroke:#000000" />
         <path
   d="m 10312,15743 -41,38"
   id="path300"
   inkscape:connector-curvature="0"
   style="fill:none;stroke:#000000" />
         <path
   d="m 10375,15811 -35,38"
   id="path302"
   inkscape:connector-curvature="0"
   style="fill:none;stroke:#000000" />
         <path
   d="m 10431,15867 -35,38"
   id="path304"
   inkscape:connector-curvature="0"
   style="fill:none;stroke:#000000" />
         <path
   d="m 10497,15933 -35,38"
   id="path306"
   inkscape:connector-curvature="0"
   style="fill:none;stroke:#000000" />
         <path
   d="m 10566,15999 -41,33"
   id="path308"
   inkscape:connector-curvature="0"
   style="fill:none;stroke:#000000" />
         <path
   d="m 10632,16063 -43,35"
   id="path310"
   inkscape:connector-curvature="0"
   style="fill:none;stroke:#000000" />
         <path
   d="m 10678,16131 -41,39"
   id="path312"
   inkscape:connector-curvature="0"
   style="fill:none;stroke:#000000" />
         <path
   d="m 10734,16185 -41,33"
   id="path314"
   inkscape:connector-curvature="0"
   style="fill:none;stroke:#000000" />
         <path
   d="m 10787,16241 -38,33"
   id="path316"
   inkscape:connector-curvature="0"
   style="fill:none;stroke:#000000" />
         <path
   d="m 10846,16294 -44,38"
   id="path318"
   inkscape:connector-curvature="0"
   style="fill:none;stroke:#000000" />
         <path
   d="m 10907,16355 -44,38"
   id="path320"
   inkscape:connector-curvature="0"
   style="fill:none;stroke:#000000" />
         <path
   d="m 10963,16424 -39,35"
   id="path322"
   inkscape:connector-curvature="0"
   style="fill:none;stroke:#000000" />
         <path
   d="m 11026,16502 -38,38"
   id="path324"
   inkscape:connector-curvature="0"
   style="fill:none;stroke:#000000" />
         <path
   d="m 11100,16576 -41,38"
   id="path326"
   inkscape:connector-curvature="0"
   style="fill:none;stroke:#000000" />
         <path
   d="m 11171,16657 -43,36"
   id="path328"
   inkscape:connector-curvature="0"
   style="fill:none;stroke:#000000" />
         <path
   d="m 11219,16716 -35,38"
   id="path330"
   inkscape:connector-curvature="0"
   style="fill:none;stroke:#000000" />
         <path
   d="m 11285,16787 -40,36"
   id="path332"
   inkscape:connector-curvature="0"
   style="fill:none;stroke:#000000" />
         <path
   d="m 11351,16853 -43,38"
   id="path334"
   inkscape:connector-curvature="0"
   style="fill:none;stroke:#000000" />
         <path
   d="m 11410,16924 -36,38"
   id="path336"
   inkscape:connector-curvature="0"
   style="fill:none;stroke:#000000" />
         <path
   d="m 11466,16980 -41,38"
   id="path338"
   inkscape:connector-curvature="0"
   style="fill:none;stroke:#000000" />
         <path
   d="m 11527,17051 -41,38"
   id="path340"
   inkscape:connector-curvature="0"
   style="fill:none;stroke:#000000" />
         <path
   d="m 11583,17110 -41,38"
   id="path342"
   inkscape:connector-curvature="0"
   style="fill:none;stroke:#000000" />
         <path
   d="m 11641,17178 -38,38"
   id="path344"
   inkscape:connector-curvature="0"
   style="fill:none;stroke:#000000" />
         <path
   d="m 11702,17244 -41,38"
   id="path346"
   inkscape:connector-curvature="0"
   style="fill:none;stroke:#000000" />
         <path
   d="m 11763,17315 -41,31"
   id="path348"
   inkscape:connector-curvature="0"
   style="fill:none;stroke:#000000" />
         <path
   d="m 11824,17376 -41,41"
   id="path350"
   inkscape:connector-curvature="0"
   style="fill:none;stroke:#000000" />
         <path
   d="m 11882,17445 -40,33"
   id="path352"
   inkscape:connector-curvature="0"
   style="fill:none;stroke:#000000" />
         <path
   d="m 11938,17506 -40,33"
   id="path354"
   inkscape:connector-curvature="0"
   style="fill:none;stroke:#000000" />
         <path
   d="m 8996,13344 -176,191"
   id="path356"
   inkscape:connector-curvature="0"
   style="fill:none;stroke:#000000" />
         <path
   d="m 9044,13410 -125,142"
   id="path358"
   inkscape:connector-curvature="0"
   style="fill:none;stroke:#000000" />
         <path
   d="m 9110,13456 -120,147"
   id="path360"
   inkscape:connector-curvature="0"
   style="fill:none;stroke:#000000" />
         <path
   d="m 9184,13517 -127,142"
   id="path362"
   inkscape:connector-curvature="0"
   style="fill:none;stroke:#000000" />
         <path
   d="m 9252,13573 -119,142"
   id="path364"
   inkscape:connector-curvature="0"
   style="fill:none;stroke:#000000" />
         <path
   d="m 9331,13624 -165,190"
   id="path366"
   inkscape:connector-curvature="0"
   style="fill:none;stroke:#000000" />
         <path
   d="m 9382,13700 -170,190"
   id="path368"
   inkscape:connector-curvature="0"
   style="fill:none;stroke:#000000" />
         <path
   d="m 9435,13761 -122,147"
   id="path370"
   inkscape:connector-curvature="0"
   style="fill:none;stroke:#000000" />
         <path
   d="m 9501,13814 -122,147"
   id="path372"
   inkscape:connector-curvature="0"
   style="fill:none;stroke:#000000" />
         <path
   d="m 9572,13867 -122,150"
   id="path374"
   inkscape:connector-curvature="0"
   style="fill:none;stroke:#000000" />
         <path
   d="m 9649,13928 -127,145"
   id="path376"
   inkscape:connector-curvature="0"
   style="fill:none;stroke:#000000" />
         <path
   d="m 9725,13979 -170,188"
   id="path378"
   inkscape:connector-curvature="0"
   style="fill:none;stroke:#000000" />
         <path
   d="m 9776,14063 -120,145"
   id="path380"
   inkscape:connector-curvature="0"
   style="fill:none;stroke:#000000" />
         <path
   d="m 9847,14114 -127,147"
   id="path382"
   inkscape:connector-curvature="0"
   style="fill:none;stroke:#000000" />
         <path
   d="m 9916,14167 -120,145"
   id="path384"
   inkscape:connector-curvature="0"
   style="fill:none;stroke:#000000" />
         <path
   d="m 9989,14228 -124,143"
   id="path386"
   inkscape:connector-curvature="0"
   style="fill:none;stroke:#000000" />
         <path
   d="m 10068,14279 -173,191"
   id="path388"
   inkscape:connector-curvature="0"
   style="fill:none;stroke:#000000" />
         <path
   d="m 10111,14376 -117,144"
   id="path390"
   inkscape:connector-curvature="0"
   style="fill:none;stroke:#000000" />
         <path
   d="m 10182,14426 -122,148"
   id="path392"
   inkscape:connector-curvature="0"
   style="fill:none;stroke:#000000" />
         <path
   d="m 10251,14482 -122,145"
   id="path394"
   inkscape:connector-curvature="0"
   style="fill:none;stroke:#000000" />
         <path
   d="m 10325,14538 -125,148"
   id="path396"
   inkscape:connector-curvature="0"
   style="fill:none;stroke:#000000" />
         <path
   d="m 10403,14594 -170,188"
   id="path398"
   inkscape:connector-curvature="0"
   style="fill:none;stroke:#000000" />
         <path
   d="m 10409,14691 -120,145"
   id="path400"
   inkscape:connector-curvature="0"
   style="fill:none;stroke:#000000" />
         <path
   d="m 10480,14742 -127,144"
   id="path402"
   inkscape:connector-curvature="0"
   style="fill:none;stroke:#000000" />
         <path
   d="m 10538,14805 -124,150"
   id="path404"
   inkscape:connector-curvature="0"
   style="fill:none;stroke:#000000" />
         <path
   d="m 10604,14866 -119,150"
   id="path406"
   inkscape:connector-curvature="0"
   style="fill:none;stroke:#000000" />
         <path
   d="m 10703,14904 -173,196"
   id="path408"
   inkscape:connector-curvature="0"
   style="fill:none;stroke:#000000" />
         <path
   d="m 10739,14991 -122,149"
   id="path410"
   inkscape:connector-curvature="0"
   style="fill:none;stroke:#000000" />
         <path
   d="m 10807,15046 -119,150"
   id="path412"
   inkscape:connector-curvature="0"
   style="fill:none;stroke:#000000" />
         <path
   d="m 10868,15107 -119,150"
   id="path414"
   inkscape:connector-curvature="0"
   style="fill:none;stroke:#000000" />
         <path
   d="m 10935,15171 -122,150"
   id="path416"
   inkscape:connector-curvature="0"
   style="fill:none;stroke:#000000" />
         <path
   d="m 11011,15224 -165,193"
   id="path418"
   inkscape:connector-curvature="0"
   style="fill:none;stroke:#000000" />
         <path
   d="m 11054,15303 -125,147"
   id="path420"
   inkscape:connector-curvature="0"
   style="fill:none;stroke:#000000" />
         <path
   d="m 11125,15364 -127,147"
   id="path422"
   inkscape:connector-curvature="0"
   style="fill:none;stroke:#000000" />
         <path
   d="m 11184,15422 -125,150"
   id="path424"
   inkscape:connector-curvature="0"
   style="fill:none;stroke:#000000" />
         <path
   d="m 11245,15483 -125,148"
   id="path426"
   inkscape:connector-curvature="0"
   style="fill:none;stroke:#000000" />
         <path
   d="m 11318,15534 -167,191"
   id="path428"
   inkscape:connector-curvature="0"
   style="fill:none;stroke:#000000" />
         <path
   d="m 11369,15621 -124,147"
   id="path430"
   inkscape:connector-curvature="0"
   style="fill:none;stroke:#000000" />
         <path
   d="m 11433,15682 -120,147"
   id="path432"
   inkscape:connector-curvature="0"
   style="fill:none;stroke:#000000" />
         <path
   d="m 11499,15758 -120,140"
   id="path434"
   inkscape:connector-curvature="0"
   style="fill:none;stroke:#000000" />
         <path
   d="m 11570,15811 -122,150"
   id="path436"
   inkscape:connector-curvature="0"
   style="fill:none;stroke:#000000" />
         <path
   d="m 11636,15862 -170,196"
   id="path438"
   inkscape:connector-curvature="0"
   style="fill:none;stroke:#000000" />
         <path
   d="m 11664,15948 -117,145"
   id="path440"
   inkscape:connector-curvature="0"
   style="fill:none;stroke:#000000" />
         <path
   d="m 11735,16009 -122,143"
   id="path442"
   inkscape:connector-curvature="0"
   style="fill:none;stroke:#000000" />
         <path
   d="m 11796,16070 -122,148"
   id="path444"
   inkscape:connector-curvature="0"
   style="fill:none;stroke:#000000" />
         <path
   d="m 11857,16142 -122,147"
   id="path446"
   inkscape:connector-curvature="0"
   style="fill:none;stroke:#000000" />
         <path
   d="m 11931,16192 -173,196"
   id="path448"
   inkscape:connector-curvature="0"
   style="fill:none;stroke:#000000" />
         <path
   d="m 11976,16271 -119,150"
   id="path450"
   inkscape:connector-curvature="0"
   style="fill:none;stroke:#000000" />
         <path
   d="m 12045,16335 -119,150"
   id="path452"
   inkscape:connector-curvature="0"
   style="fill:none;stroke:#000000" />
         <path
   d="m 12119,16411 -125,142"
   id="path454"
   inkscape:connector-curvature="0"
   style="fill:none;stroke:#000000" />
         <path
   d="m 12162,16474 -119,150"
   id="path456"
   inkscape:connector-curvature="0"
   style="fill:none;stroke:#000000" />
         <path
   d="m 12246,16528 -170,193"
   id="path458"
   inkscape:connector-curvature="0"
   style="fill:none;stroke:#000000" />
         <path
   d="m 12284,16614 -127,142"
   id="path460"
   inkscape:connector-curvature="0"
   style="fill:none;stroke:#000000" />
         <path
   d="m 12347,16668 -124,147"
   id="path462"
   inkscape:connector-curvature="0"
   style="fill:none;stroke:#000000" />
         <path
   d="m 12414,16726 -122,150"
   id="path464"
   inkscape:connector-curvature="0"
   style="fill:none;stroke:#000000" />
         <path
   d="m 9123,14086 h -13 l -13,-5 -12,-5 -11,-8 -10,-10 -10,-10 -8,-8 -7,-10 h 18 20 18 l 20,-2 18,-3 18,-3 17,-7 18,-10 15,-41 -15,-36 -35,-15 -51,13 15,-3 15,3 16,2 15,8 12,33 -12,20 -15,13 -23,10 -23,5 -23,3 -26,2 h -22 -21 l 74,82 z"
   id="path466"
   inkscape:connector-curvature="0"
   style="fill:#666666;stroke:none" />
         <path
   d="m 9123,14086 v 0 h -13 l -13,-5 -12,-5 -11,-8 -10,-10 -10,-10 -8,-8 -7,-10 v 0 h 18 20 18 l 20,-2 18,-3 18,-3 17,-7 18,-10 15,-41 -15,-36 -35,-15 -51,13 v 0 l 15,-3 15,3 16,2 15,8 12,33 v 0 l -12,20 -15,13 -23,10 -23,5 -23,3 -26,2 h -22 -21 l 74,82 z"
   id="path468"
   inkscape:connector-curvature="0"
   style="fill:none;stroke:#666666" />
         <path
   d="m 12342,17249 -43,21 -76,-82 15,-5 13,-5 15,-2 15,-3 h 16 15 l 18,3 15,2 48,-30 v -15 l -51,-39 -15,8 -2,-8 12,-10 28,-5 38,31 16,25 -3,23 -15,15 -28,13 -36,8 -38,2 -38,-2 13,15 13,12 15,13 15,13 5,2 10,-2 h 8 z"
   id="path470"
   inkscape:connector-curvature="0"
   style="fill:#494949;stroke:none" />
         <path
   d="m 12342,17249 -43,21 -76,-82 v 0 l 15,-5 13,-5 15,-2 15,-3 h 16 15 l 18,3 15,2 48,-30 v -15 l -51,-39 v 0 l -15,8 -2,-8 12,-10 28,-5 v 0 l 38,31 16,25 -3,23 -15,15 -28,13 -36,8 -38,2 -38,-2 v 0 l 13,15 13,12 15,13 15,13 v 0 l 5,2 10,-2 h 8 z"
   id="path472"
   inkscape:connector-curvature="0"
   style="fill:none;stroke:#494949" />
         <path
   d="m 8935,13339 v 0 l 116,109 117,107 120,109 117,109 117,110 117,109 116,112 115,109 117,112 117,109 114,112 117,112 114,111 115,115 116,112 115,114 112,112 114,114 114,114 112,115 112,117 112,114 112,114 111,117 110,117 109,117 109,117 109,117 110,117 106,119 107,117 107,119"
   id="path474"
   inkscape:connector-curvature="0"
   style="fill:none;stroke:#191919" />
         <path
   d="m 12477,16792 -122,145"
   id="path476"
   inkscape:connector-curvature="0"
   style="fill:none;stroke:#000000" />
         <path
   d="m 12553,16843 -162,193"
   id="path478"
   inkscape:connector-curvature="0"
   style="fill:none;stroke:#000000" />
         <path
   d="m 10434,15278 -3,17 16,-2 23,-10 12,-8 21,-41 -16,-38 -35,-17 53,-18 61,20 -13,-13 -15,-10 -18,-5 -15,-5 h -20 -18 l -15,5 -18,8 -5,23 7,5 16,2 18,5 7,36 z"
   id="path480"
   inkscape:connector-curvature="0"
   style="fill:#494949;stroke:none" />
         <path
   d="m 10434,15278 v 0 l -3,17 16,-2 23,-10 12,-8 21,-41 -16,-38 -35,-17 53,-18 61,20 v 0 l -13,-13 -15,-10 -18,-5 -15,-5 h -20 -18 l -15,5 -18,8 v 0 l -5,23 7,5 16,2 18,5 7,36 z"
   id="path482"
   inkscape:connector-curvature="0"
   style="fill:none;stroke:#494949" />
         <path
   d="m 10434,15191 5,-12 -13,-13 -12,-3 -5,10 -34,61 16,46 7,5 8,5 10,3 8,2 5,-2 5,-3 2,-7 -2,-5 -13,-11 -15,-5 -10,-7 -3,-10 z"
   id="path484"
   inkscape:connector-curvature="0"
   style="fill:#494949;stroke:none" />
         <path
   d="m 10434,15191 v 0 l 5,-12 -13,-13 -12,-3 -5,10 -34,61 16,46 v 0 l 7,5 8,5 10,3 8,2 v 0 l 5,-2 5,-3 2,-7 -2,-5 v 0 l -13,-11 -15,-5 -10,-7 -3,-10 z"
   id="path486"
   inkscape:connector-curvature="0"
   style="fill:none;stroke:#494949" />
         <path
   d="m 11966,16871 v 33 13 l 10,-6 6,-10 h -6 l 120,-129 -51,-18 5,2 8,8 v 10 l -3,8 -86,89 z"
   id="path488"
   inkscape:connector-curvature="0"
   style="fill:#494949;stroke:none" />
         <path
   d="m 11966,16871 v 33 0 13 l 10,-6 6,-10 h -6 l 120,-129 -51,-18 v 0 l 5,2 8,8 v 10 l -3,8 -86,89 z"
   id="path490"
   inkscape:connector-curvature="0"
   style="fill:none;stroke:#494949" />
         <path
   d="m 11966,16665 v 48 l 38,-35 -5,-3 -12,-5 -13,-2 z"
   id="path492"
   inkscape:connector-curvature="0"
   style="fill:#494949;stroke:none" />
         <path
   d="m 11966,16665 v 48 l 38,-35 v 0 l -5,-3 -12,-5 -13,-2 z"
   id="path494"
   inkscape:connector-curvature="0"
   style="fill:none;stroke:#494949" />
         <path
   d="m 11966,16713 v -48 0 5 l -2,8 -3,7 -104,97 -18,-10 51,56 -10,-18 z"
   id="path496"
   inkscape:connector-curvature="0"
   style="fill:#494949;stroke:none" />
         <path
   d="m 11966,16713 v -48 0 0 5 l -2,8 -3,7 -104,97 -18,-10 51,56 -10,-18 z"
   id="path498"
   inkscape:connector-curvature="0"
   style="fill:none;stroke:#494949" />
         <path
   d="m 11966,16904 v -33 l -15,7 -18,-12 z"
   id="path500"
   inkscape:connector-curvature="0"
   style="fill:#494949;stroke:none" />
         <path
   d="m 11966,16904 v -33 l -15,7 -18,-12 z"
   id="path502"
   inkscape:connector-curvature="0"
   style="fill:none;stroke:#494949" />
         <path
   d="m 10477,17455 h 15 49 l 71,-2 96,-10 110,-23 127,-36 132,-53 140,-74 137,-99 137,-127 125,-158 117,-193 96,-228 79,-272 51,-318 23,-363 -11,-417 -43,-361 -71,-310 -94,-262 -114,-218 -127,-178 -138,-142 -139,-112 -143,-81 -137,-61 -130,-38 -116,-23 -97,-13 -76,-5 h -49 -17 l -3,-264 h 5 18 l 30,2 39,3 48,2 56,5 66,11 71,10 79,15 84,18 89,23 94,28 96,30 99,38 99,43 102,51 104,56 102,64 99,71 99,81 97,86 91,97 89,107 84,114 76,127 71,135 64,147 56,160 46,170 38,183 28,196 15,208 -5,216 -15,201 -28,191 -41,175 -48,165 -59,153 -68,142 -74,130 -81,119 -87,112 -94,101 -96,92 -100,84 -101,73 -104,69 -107,58 -104,54 -104,48 -105,41 -99,33 -96,30 -94,26 -89,20 -82,15 -76,13 -68,10 -61,8 -51,5 -41,2 -30,3 h -18 -8 z"
   id="path504"
   inkscape:connector-curvature="0"
   style="fill:#000000;stroke:none" />
         <path
   d="m 10508,17458 h -16 -48 l -71,-3 -97,-10 -109,-23 -127,-35 -132,-54 -140,-76 -137,-99 -137,-127 -125,-158 -117,-190 -96,-231 -79,-272 -51,-318 -23,-363 10,-417 44,-361 71,-310 94,-259 114,-219 127,-177 137,-143 140,-111 142,-84 138,-59 129,-40 117,-23 97,-13 76,-5 h 48 18 l 3,-264 h -5 -18 l -31,2 -38,3 -48,2 -56,5 -66,11 -71,10 -79,15 -84,18 -89,23 -94,28 -96,33 -100,38 -99,43 -101,48 -105,59 -101,63 -99,71 -99,79 -97,89 -91,97 -89,104 -84,117 -76,124 -72,137 -63,148 -56,157 -46,170 -38,183 -28,196 -15,208 5,216 15,201 28,191 41,175 48,165 59,153 68,142 74,130 81,122 87,109 94,101 96,92 99,84 102,76 104,66 107,61 104,53 104,46 104,41 100,35 96,31 94,23 89,23 81,15 77,13 68,10 61,7 51,5 41,3 30,2 h 18 8 z"
   id="path506"
   inkscape:connector-curvature="0"
   style="fill:#000000;stroke:none" />
         <path
   d="m 9125,17760 -71,56 -69,41 -61,30 -53,18 -51,8 -43,-3 -38,-10 -31,-20 -28,-28 -20,-36 -18,-41 -7,-45 -5,-49 v -53 l 5,-56 12,-58 72,-107 78,-117 84,-124 89,-133 92,-139 99,-148 101,-152 105,-155 104,-163 109,-162 109,-166 112,-167 112,-168 109,-168 112,-165 107,-165 107,-160 104,-158 101,-152 99,-150 92,-140 89,-134 84,-127 79,-117 71,-110 66,-99 56,-86 51,-74 40,-63 31,-49 23,-33 12,-17 41,-56 46,-61 50,-61 56,-61 56,-64 61,-61 61,-63 61,-61 61,-59 61,-56 59,-55 56,-51 50,-46 49,-43 43,-38 35,-33 -20,76 -25,81 -26,84 -30,86 -31,87 -33,89 -33,86 -35,84 -33,81 -33,79 -31,71 -30,66 -28,56 -26,51 -20,41 -18,28 -84,129 -81,127 -81,127 -84,127 -82,127 -81,125 -81,127 -82,124 -81,125 -81,124 -81,125 -82,124 -81,125 -79,122 -81,124 -82,125 -81,124 -81,125 -81,124 -79,125 -82,124 -81,125 -84,127 -81,125 -81,127 -82,127 -84,129 -81,127 -84,130 -81,129 -84,130 z"
   id="path508"
   inkscape:connector-curvature="0"
   style="fill:#000000;stroke:none" />
         <path
   d="m 11867,13324 26,-66 33,-84 35,-97 41,-101 38,-102 41,-92 33,-76 30,-53 -35,35 -33,33 -36,36 -33,36 -36,35 -35,36 -33,33 -36,35 -35,36 -33,36 -36,33 -36,35 -35,33 -36,33 -38,31 -35,33 25,223 z"
   id="path510"
   inkscape:connector-curvature="0"
   style="fill:#666666;stroke:none" />
         <path
   d="m 11867,13324 v 0 l 26,-66 33,-84 35,-97 41,-101 38,-102 41,-92 33,-76 30,-53 v 0 l -35,35 -33,33 -36,36 -33,36 -36,35 -35,36 -33,33 -36,35 -35,36 -33,36 -36,33 -36,35 -35,33 -36,33 -38,31 -35,33 25,223 z"
   id="path512"
   inkscape:connector-curvature="0"
   style="fill:none;stroke:#666666" />
         <path
   d="m 11669,13324 440,-623 -486,473 z"
   id="path514"
   inkscape:connector-curvature="0"
   style="fill:#cecece;stroke:none" />
         <path
   d="m 11669,13324 440,-623 -486,473 z"
   id="path516"
   inkscape:connector-curvature="0"
   style="fill:none;stroke:#cecece" />
         <path
   d="m 11705,13651 -84,127 -82,128 -83,127 -84,127 -82,127 -84,127 -81,127 -81,129 -84,127 -81,130 -82,127 -84,130 -81,127 -84,129 -81,127 -84,127 -81,130 -84,127 -84,127 -81,127 -84,127 -84,127 -86,127 -84,127 -84,125 -87,127 -86,124 -86,125 -87,124 -86,122 -87,125 -88,122 -21,20 -30,23 -36,20 -38,18 -41,15 -38,13 -33,8 -25,2 -54,-7 -30,-26 -18,-35 -5,-46 3,-48 7,-49 5,-43 v -35 l 87,-128 84,-127 86,-127 86,-127 84,-127 87,-127 86,-127 84,-127 86,-127 84,-127 84,-127 86,-127 84,-127 84,-127 87,-127 83,-130 84,-127 84,-127 87,-127 83,-129 84,-128 84,-127 84,-129 84,-127 84,-130 84,-127 81,-129 84,-127 84,-130 83,-130 82,-127 84,-129 40,206 z"
   id="path518"
   inkscape:connector-curvature="0"
   style="fill:#e5e5e5;stroke:none" />
         <path
   d="m 9041,17719 v 0 l 89,-121 87,-125 86,-122 86,-124 87,-125 86,-124 87,-128 84,-124 83,-127 87,-127 84,-127 84,-127 81,-127 84,-127 84,-127 81,-130 84,-127 81,-127 84,-130 81,-127 84,-129 84,-127 79,-130 84,-127 83,-130 79,-127 84,-127 81,-127 84,-127 84,-127 81,-127 84,-127 -35,-25 -84,127 -81,127 -84,127 -84,127 -81,127 -84,127 -84,127 -79,130 -84,127 -84,129 -78,127 -84,130 -82,127 -84,130 -81,127 -84,127 -81,129 -84,127 -84,127 -81,127 -84,127 -84,127 -86,128 -84,127 -84,124 -86,127 -87,125 -86,124 -87,125 -86,122 -86,124 -89,122 v 0 z"
   id="path520"
   inkscape:connector-curvature="0"
   style="fill:#000000;stroke:none" />
         <path
   d="m 8762,17849 v 0 l 28,-2 35,-8 41,-15 41,-16 40,-17 38,-23 33,-23 23,-26 -35,-25 -18,15 -28,23 -33,18 -36,18 -40,15 -36,10 -30,8 -23,2 v 0 z"
   id="path522"
   inkscape:connector-curvature="0"
   style="fill:#000000;stroke:none" />
         <path
   d="m 8653,17524 -6,15 v 33 l -5,41 -7,51 -3,48 5,51 23,43 41,33 61,10 v -46 l -46,-5 -20,-18 -13,-27 -5,-41 2,-48 8,-46 5,-46 v -38 l -5,15 5,-15 -7,-15 -18,-5 -15,7 -6,18 z"
   id="path524"
   inkscape:connector-curvature="0"
   style="fill:#000000;stroke:none" />
         <path
   d="m 11395,13448 -41,-10 -84,130 -81,127 -84,129 -84,130 -84,127 -81,129 -84,128 -84,129 -84,127 -84,130 -84,127 -83,127 -84,129 -87,127 -84,127 -83,128 -84,129 -87,127 -84,127 -83,127 -87,127 -84,127 -83,127 -87,127 -84,128 -86,127 -87,127 -83,127 -87,127 -86,127 -84,127 -86,127 35,25 86,-127 84,-127 87,-127 86,-127 84,-127 86,-127 87,-127 84,-127 86,-127 84,-127 84,-127 86,-127 84,-127 84,-127 86,-127 84,-130 84,-127 84,-127 86,-127 84,-130 84,-127 84,-127 84,-129 84,-128 83,-129 84,-127 82,-130 84,-127 83,-129 84,-130 82,-127 83,-130 -40,-10 40,10 3,-17 -8,-13 -15,-5 -15,10 z"
   id="path526"
   inkscape:connector-curvature="0"
   style="fill:#000000;stroke:none" />
         <path
   d="m 11412,13634 23,20 -40,-206 -46,5 40,206 23,20 -23,-20 8,15 18,5 15,-7 5,-18 z"
   id="path528"
   inkscape:connector-curvature="0"
   style="fill:#000000;stroke:none" />
         <path
   d="m 11722,13664 -17,-35 -293,5 v 45 l 293,-5 -18,-35 18,35 17,-7 5,-16 -5,-15 -17,-7 z"
   id="path530"
   inkscape:connector-curvature="0"
   style="fill:#000000;stroke:none" />
         <path
   d="m 11717,13613 -86,127 -84,127 -86,127 -84,128 -84,127 -87,127 -83,127 -84,127 -84,129 -84,127 -84,127 -84,130 -84,127 -83,127 -84,130 -84,127 -84,127 -81,129 -84,127 -84,130 -84,127 -84,127 -81,130 -84,127 -84,129 -81,127 -84,127 -84,130 -84,127 -81,127 -84,130 -84,127 -236,132 -66,-15 -38,-41 2780,-4162 z"
   id="path532"
   inkscape:connector-curvature="0"
   style="fill:#a5a5a5;stroke:none" />
         <path
   d="m 11717,13613 v 0 l -86,127 -84,127 -86,127 -84,128 -84,127 -87,127 -83,127 -84,127 -84,129 -84,127 -84,127 -84,130 -84,127 -83,127 -84,130 -84,127 -84,127 -81,129 -84,127 -84,130 -84,127 -84,127 -81,130 -84,127 -84,129 -81,127 -84,127 -84,130 -84,127 -81,127 -84,130 -84,127 -236,132 -66,-15 -38,-41 2780,-4162 z"
   id="path534"
   inkscape:connector-curvature="0"
   style="fill:none;stroke:#a5a5a5" />
         <path
   d="m 11677,13695 190,-369 -211,8 -51,-142 -264,302 28,15 28,48 -48,92 30,5 h 26 l 20,3 18,2 10,8 10,10 8,20 5,28 2,5 8,5 5,3 h 8 l 94,-64 h 7 11 l 12,3 15,2 13,5 13,3 8,5 z"
   id="path536"
   inkscape:connector-curvature="0"
   style="fill:#e5e5e5;stroke:none" />
         <path
   d="m 11867,13341 -15,-22 -191,368 31,15 190,-368 -15,-23 15,23 v -13 l -7,-10 -13,-3 -10,11 z"
   id="path538"
   inkscape:connector-curvature="0"
   style="fill:#000000;stroke:none" />
         <path
   d="m 11641,13339 15,10 211,-8 v -30 l -211,8 16,10 -16,-10 -10,5 -5,10 5,10 10,5 z"
   id="path540"
   inkscape:connector-curvature="0"
   style="fill:#000000;stroke:none" />
         <path
   d="m 11618,13202 -28,-5 51,142 31,-10 -51,-143 -28,-5 28,5 -8,-10 h -10 l -10,8 -3,13 z"
   id="path542"
   inkscape:connector-curvature="0"
   style="fill:#000000;stroke:none" />
         <path
   d="m 11349,13479 5,25 264,-302 -25,-21 -265,303 6,25 -6,-25 -2,12 5,8 13,5 10,-5 z"
   id="path544"
   inkscape:connector-curvature="0"
   style="fill:#000000;stroke:none" />
         <path
   d="m 11384,13502 -7,-8 -28,-15 -15,30 27,15 -7,-7 7,7 h 13 l 10,-7 3,-13 -10,-10 z"
   id="path546"
   inkscape:connector-curvature="0"
   style="fill:#000000;stroke:none" />
         <path
   d="m 11412,13565 v -15 l -28,-48 -30,15 28,48 v -15 15 l 10,10 13,-2 7,-10 v -13 z"
   id="path548"
   inkscape:connector-curvature="0"
   style="fill:#000000;stroke:none" />
         <path
   d="m 11351,13634 13,23 48,-92 -30,-15 -48,91 12,23 -12,-23 v 13 l 7,10 13,3 10,-10 z"
   id="path550"
   inkscape:connector-curvature="0"
   style="fill:#000000;stroke:none" />
         <path
   d="m 11491,13720 v 5 l -5,-30 -8,-26 -15,-15 -15,-10 -23,-3 -20,-5 -26,3 -28,-5 -5,30 33,5 26,3 h 20 l 13,2 5,5 5,5 8,16 5,25 v 5 z"
   id="path552"
   inkscape:connector-curvature="0"
   style="fill:#000000;stroke:none" />
         <path
   d="m 11491,13725 3,-2 v 0 -3 h -5 2 l -30,10 7,10 10,11 11,2 h 15 l 2,-2 -2,2 10,-8 v -12 l -8,-8 -12,-2 z"
   id="path554"
   inkscape:connector-curvature="0"
   style="fill:#000000;stroke:none" />
         <path
   d="m 11590,13659 -5,3 -94,63 15,26 94,-64 -5,3 5,-3 5,-10 v -10 l -10,-8 -10,3 z"
   id="path556"
   inkscape:connector-curvature="0"
   style="fill:#000000;stroke:none" />
         <path
   d="m 11661,13687 h 28 l -10,-10 -10,-5 -15,-3 -13,-5 -15,-2 -15,-3 -11,-2 -10,2 5,31 5,2 11,-2 10,2 15,3 13,5 10,2 5,5 v -5 h 28 -28 l 10,5 10,-2 8,-8 -3,-10 z"
   id="path558"
   inkscape:connector-curvature="0"
   style="fill:#000000;stroke:none" />
         <path
   d="m 11486,13796 h 61 l 46,-56 51,-5 -2603,3967 -2,2 -8,10 -13,16 -15,17 -18,18 -20,18 -20,15 -21,13 -17,5 -18,5 -20,3 -18,2 -18,3 h -13 -10 -2 z"
   id="path560"
   inkscape:connector-curvature="0"
   style="fill:#666666;stroke:none" />
         <path
   d="m 11486,13796 h 61 l 46,-56 51,-5 -2603,3967 v 0 l -2,2 -8,10 -13,16 -15,17 -18,18 -20,18 -20,15 -21,13 v 0 l -17,5 -18,5 -20,3 -18,2 -18,3 h -13 -10 -2 z"
   id="path562"
   inkscape:connector-curvature="0"
   style="fill:none;stroke:#666666" />
         <path
   d="m 9522,17066 -44,-48 -43,-46 -40,-48 -39,-51 -35,-53 -36,-58 -28,-67 -28,-71 -287,435 43,46 51,43 51,38 53,35 54,36 53,33 51,33 48,33 z"
   id="path564"
   inkscape:connector-curvature="0"
   style="fill:#000000;stroke:none" />
         <path
   d="m 9763,11606 h 742 l 371,1067 h -114 z"
   id="path566"
   inkscape:connector-curvature="0"
   style="fill:#000000;stroke:none" />
        </g>
       </g>
      </g>
     </g>
    </g>
   </g>
  </g>
 </g>
</svg>