<?xml version="1.0" encoding="UTF-8" standalone="no"?>
<svg
   xmlns:ooo="http://xml.openoffice.org/svg/export"
   xmlns:dc="http://purl.org/dc/elements/1.1/"
   xmlns:cc="http://creativecommons.org/ns#"
   xmlns:rdf="http://www.w3.org/1999/02/22-rdf-syntax-ns#"
   xmlns:svg="http://www.w3.org/2000/svg"
   xmlns="http://www.w3.org/2000/svg"
   xmlns:sodipodi="http://sodipodi.sourceforge.net/DTD/sodipodi-0.dtd"
   xmlns:inkscape="http://www.inkscape.org/namespaces/inkscape"
   version="1.2"
   width="46.150002mm"
   height="64.82mm"
   viewBox="0 0 4615.0002 6482"
   preserveAspectRatio="xMidYMid"
   xml:space="preserve"
   id="svg581"
   sodipodi:docname="o3.svg"
   style="fill-rule:evenodd;stroke-width:28.22200012;stroke-linejoin:round"
   inkscape:version="0.92.5 (2060ec1f9f, 2020-04-08)"><metadata
   id="metadata585"><rdf:RDF><cc:Work
       rdf:about=""><dc:format>image/svg+xml</dc:format><dc:type
         rdf:resource="http://purl.org/dc/dcmitype/StillImage" /></cc:Work></rdf:RDF></metadata><sodipodi:namedview
   pagecolor="#ffffff"
   bordercolor="#666666"
   borderopacity="1"
   objecttolerance="10"
   gridtolerance="10"
   guidetolerance="10"
   inkscape:pageopacity="0"
   inkscape:pageshadow="2"
   inkscape:window-width="664"
   inkscape:window-height="487"
   id="namedview583"
   showgrid="false"
   inkscape:zoom="0.2102413"
   inkscape:cx="87.231497"
   inkscape:cy="122.49449"
   inkscape:window-x="0"
   inkscape:window-y="0"
   inkscape:window-maximized="0"
   inkscape:current-layer="svg581" />
 <defs
   class="ClipPathGroup"
   id="defs8">
  <clipPath
   id="presentation_clip_path"
   clipPathUnits="userSpaceOnUse">
   <rect
   x="0"
   y="0"
   width="21000"
   height="29700"
   id="rect2" />
  </clipPath>
  <clipPath
   id="presentation_clip_path_shrink"
   clipPathUnits="userSpaceOnUse">
   <rect
   x="21"
   y="29"
   width="20958"
   height="29641"
   id="rect5" />
  </clipPath>
 </defs>
 <defs
   class="TextShapeIndex"
   id="defs12">
  <g
   ooo:slide="id1"
   ooo:id-list="id3"
   id="g10" />
 </defs>
 <defs
   class="EmbeddedBulletChars"
   id="defs44">
  <g
   id="bullet-char-template-57356"
   transform="matrix(4.8828125e-4,0,0,-4.8828125e-4,0,0)">
   <path
   d="M 580,1141 1163,571 580,0 -4,571 Z"
   id="path14"
   inkscape:connector-curvature="0" />
  </g>
  <g
   id="bullet-char-template-57354"
   transform="matrix(4.8828125e-4,0,0,-4.8828125e-4,0,0)">
   <path
   d="M 8,1128 H 1137 V 0 H 8 Z"
   id="path17"
   inkscape:connector-curvature="0" />
  </g>
  <g
   id="bullet-char-template-10146"
   transform="matrix(4.8828125e-4,0,0,-4.8828125e-4,0,0)">
   <path
   d="M 174,0 602,739 174,1481 1456,739 Z M 1358,739 309,1346 659,739 Z"
   id="path20"
   inkscape:connector-curvature="0" />
  </g>
  <g
   id="bullet-char-template-10132"
   transform="matrix(4.8828125e-4,0,0,-4.8828125e-4,0,0)">
   <path
   d="M 2015,739 1276,0 H 717 l 543,543 H 174 v 393 h 1086 l -543,545 h 557 z"
   id="path23"
   inkscape:connector-curvature="0" />
  </g>
  <g
   id="bullet-char-template-10007"
   transform="matrix(4.8828125e-4,0,0,-4.8828125e-4,0,0)">
   <path
   d="m 0,-2 c -7,16 -16,29 -25,39 l 381,530 c -94,256 -141,385 -141,387 0,25 13,38 40,38 9,0 21,-2 34,-5 21,4 42,12 65,25 l 27,-13 111,-251 280,301 64,-25 24,25 c 21,-10 41,-24 62,-43 C 886,937 835,863 770,784 769,783 710,716 594,584 L 774,223 c 0,-27 -21,-55 -63,-84 l 16,-20 C 717,90 699,76 672,76 641,76 570,178 457,381 L 164,-76 c -22,-34 -53,-51 -92,-51 -42,0 -63,17 -64,51 -7,9 -10,24 -10,44 0,9 1,19 2,30 z"
   id="path26"
   inkscape:connector-curvature="0" />
  </g>
  <g
   id="bullet-char-template-10004"
   transform="matrix(4.8828125e-4,0,0,-4.8828125e-4,0,0)">
   <path
   d="M 285,-33 C 182,-33 111,30 74,156 52,228 41,333 41,471 c 0,78 14,145 41,201 34,71 87,106 158,106 53,0 88,-31 106,-94 l 23,-176 c 8,-64 28,-97 59,-98 l 735,706 c 11,11 33,17 66,17 42,0 63,-15 63,-46 V 965 c 0,-36 -10,-64 -30,-84 L 442,47 C 390,-6 338,-33 285,-33 Z"
   id="path29"
   inkscape:connector-curvature="0" />
  </g>
  <g
   id="bullet-char-template-9679"
   transform="matrix(4.8828125e-4,0,0,-4.8828125e-4,0,0)">
   <path
   d="M 813,0 C 632,0 489,54 383,161 276,268 223,411 223,592 c 0,181 53,324 160,431 106,107 249,161 430,161 179,0 323,-54 432,-161 108,-107 162,-251 162,-431 0,-180 -54,-324 -162,-431 C 1136,54 992,0 813,0 Z"
   id="path32"
   inkscape:connector-curvature="0" />
  </g>
  <g
   id="bullet-char-template-8226"
   transform="matrix(4.8828125e-4,0,0,-4.8828125e-4,0,0)">
   <path
   d="m 346,457 c -73,0 -137,26 -191,78 -54,51 -81,114 -81,188 0,73 27,136 81,188 54,52 118,78 191,78 73,0 134,-26 185,-79 51,-51 77,-114 77,-187 0,-75 -25,-137 -76,-188 -50,-52 -112,-78 -186,-78 z"
   id="path35"
   inkscape:connector-curvature="0" />
  </g>
  <g
   id="bullet-char-template-8211"
   transform="matrix(4.8828125e-4,0,0,-4.8828125e-4,0,0)">
   <path
   d="M -4,459 H 1135 V 606 H -4 Z"
   id="path38"
   inkscape:connector-curvature="0" />
  </g>
  <g
   id="bullet-char-template-61548"
   transform="matrix(4.8828125e-4,0,0,-4.8828125e-4,0,0)">
   <path
   d="m 173,740 c 0,163 58,303 173,419 116,115 255,173 419,173 163,0 302,-58 418,-173 116,-116 174,-256 174,-419 0,-163 -58,-303 -174,-418 C 1067,206 928,148 765,148 601,148 462,206 346,322 231,437 173,577 173,740 Z"
   id="path41"
   inkscape:connector-curvature="0" />
  </g>
 </defs>
 <g
   id="g49"
   transform="translate(-8192,-11609)">
  <g
   id="id2"
   class="Master_Slide">
   <g
   id="bg-id2"
   class="Background" />
   <g
   id="bo-id2"
   class="BackgroundObjects" />
  </g>
 </g>
 <g
   class="SlideGroup"
   id="g579"
   transform="translate(-8192,-11609)">
  <g
   id="g577">
   <g
   id="container-id1">
    <g
   id="id1"
   class="Slide"
   clip-path="url(#presentation_clip_path)">
     <g
   class="Page"
   id="g573">
      <g
   class="Graphic"
   id="g571">
       <g
   id="id3">
        <rect
   class="BoundingBox"
   x="8192"
   y="11609"
   width="4615"
   height="6482"
   id="rect51"
   style="fill:none;stroke:none" />
        <defs
   id="defs56">
         <clipPath
   id="clip_path_1"
   clipPathUnits="userSpaceOnUse">
          <path
   d="m 8192,11609 h 4614 v 6481 H 8192 Z"
   id="path53"
   inkscape:connector-curvature="0" />
         </clipPath>
        </defs>
        <g
   clip-path="url(#clip_path_1)"
   id="g568">
         <path
   d="m 8970,13113 -54,49 -56,50 -53,51 -56,56 -53,53 -54,59 -53,58 -51,59 -51,61 -48,61 -48,63 -43,64 -44,63 -40,64 -38,63 -36,64 114,107 112,109 115,109 111,107 115,109 112,109 111,110 112,109 112,112 109,109 112,109 112,112 109,109 112,112 109,112 110,109 109,112 112,112 109,112 109,111 107,112 109,114 109,112 110,112 106,112 110,114 109,112 107,114 109,112 107,115 109,111 107,115 23,25 23,28 20,28 23,30 20,28 20,31 23,28 21,25 61,-40 63,-41 64,-46 66,-48 63,-48 64,-54 63,-53 61,-56 61,-58 59,-59 56,-61 53,-61 51,-61 48,-63 43,-64 41,-63 -107,-127 -109,-127 -109,-127 -112,-128 -112,-127 -112,-127 -114,-124 -114,-125 -117,-127 -115,-124 -119,-122 -117,-125 -119,-122 -120,-124 -119,-122 -120,-120 -122,-122 -122,-119 -122,-119 -124,-120 -125,-117 -122,-117 -127,-116 -124,-117 -125,-115 -127,-114 -127,-112 -125,-114 -127,-112 -127,-109 -129,-109 z"
   id="path58"
   inkscape:connector-curvature="0"
   style="fill:#000000;stroke:none" />
         <path
   d="m 8202,14041 3,15 35,-61 38,-64 39,-63 43,-64 43,-63 48,-64 48,-61 51,-61 51,-58 54,-56 53,-58 53,-54 56,-56 54,-50 55,-51 51,-49 -15,-20 -56,48 -56,51 -53,51 -56,56 -53,53 -54,59 -53,61 -51,58 -51,61 -48,61 -48,64 -44,63 -43,64 -43,63 -38,64 -36,66 3,15 -3,-15 v 10 l 10,5 8,3 8,-8 z"
   id="path60"
   inkscape:connector-curvature="0"
   style="fill:#000000;stroke:none" />
         <path
   d="m 11727,17596 v 0 l -107,-115 -109,-112 -107,-114 -109,-112 -107,-114 -109,-112 -109,-114 -107,-112 -109,-112 -110,-112 -109,-114 -107,-112 -109,-112 -109,-111 -112,-112 -109,-112 -110,-109 -109,-112 -112,-112 -109,-109 -112,-112 -112,-109 -109,-109 -112,-112 -111,-110 -112,-109 -112,-109 -114,-109 -112,-107 -115,-109 -111,-110 -115,-106 -20,20 114,107 112,109 114,109 112,107 115,109 111,110 112,109 112,109 112,112 109,109 112,109 112,112 109,109 112,112 109,112 109,109 110,112 111,112 110,112 109,112 107,111 109,115 109,111 110,112 106,112 110,114 109,112 107,115 109,111 107,115 109,111 107,115 v 0 z"
   id="path62"
   inkscape:connector-curvature="0"
   style="fill:#000000;stroke:none" />
         <path
   d="m 11882,17817 18,5 -21,-26 -22,-28 -21,-30 -20,-28 -23,-31 -20,-28 -23,-28 -23,-27 -20,20 22,23 23,28 21,28 23,30 20,28 20,31 23,27 20,26 18,5 -18,-5 11,5 7,-3 5,-7 -2,-10 z"
   id="path64"
   inkscape:connector-curvature="0"
   style="fill:#000000;stroke:none" />
         <path
   d="m 12797,16960 -3,-15 -38,64 -43,63 -48,64 -51,61 -54,61 -55,58 -59,58 -61,59 -58,56 -64,53 -63,54 -64,48 -66,48 -64,46 -63,38 -61,41 15,25 61,-41 64,-43 63,-46 66,-48 64,-48 63,-54 64,-53 63,-56 61,-58 59,-59 56,-63 53,-61 51,-61 48,-64 44,-63 43,-64 -3,-15 3,15 2,-10 -7,-10 h -11 l -10,5 z"
   id="path66"
   inkscape:connector-curvature="0"
   style="fill:#000000;stroke:none" />
         <path
   d="m 8977,13123 h -15 l 127,110 130,109 127,109 124,112 125,114 129,112 125,114 124,115 125,117 127,117 122,116 125,117 124,120 122,119 122,120 122,122 119,119 120,122 119,125 120,121 117,125 119,122 114,124 117,128 115,124 114,125 112,124 112,127 112,127 109,127 109,127 107,127 20,-15 -107,-127 -109,-127 -109,-127 -112,-127 -112,-127 -112,-130 -114,-124 -114,-125 -117,-127 -115,-124 -119,-122 -117,-125 -119,-122 -120,-124 -119,-122 -120,-120 -122,-122 -122,-119 -122,-120 -124,-119 -125,-117 -122,-117 -127,-117 -124,-116 -125,-115 -129,-114 -125,-112 -124,-114 -130,-112 -127,-109 -130,-110 -127,-109 h -15 z"
   id="path68"
   inkscape:connector-curvature="0"
   style="fill:#000000;stroke:none" />
         <path
   d="m 8243,14031 119,111 117,110 120,111 119,112 117,115 117,111 119,115 117,111 117,115 117,114 117,117 114,114 117,115 115,117 116,117 115,116 114,117 114,117 115,117 112,119 114,117 112,120 112,119 111,120 112,119 110,119 109,120 112,122 106,119 110,122 109,120 107,122 58,-38 59,-41 58,-41 58,-45 59,-46 58,-49 56,-48 59,-53 53,-51 56,-53 51,-56 51,-54 48,-58 46,-56 43,-56 41,-58 -110,-125 -106,-127 -112,-124 -110,-122 -111,-125 -115,-124 -112,-122 -114,-122 -114,-125 -117,-119 -115,-122 -116,-122 -120,-120 -117,-119 -119,-119 -120,-120 -119,-119 -120,-117 -119,-120 -122,-116 -122,-115 -122,-117 -122,-114 -122,-117 -122,-114 -124,-112 -122,-114 -125,-112 -124,-112 -122,-112 -125,-112 -124,-109 -51,43 -51,46 -51,48 -53,49 -49,50 -50,54 -49,53 -48,54 -46,55 -45,59 -44,56 -43,58 -38,59 -38,58 -33,61 z"
   id="path70"
   inkscape:connector-curvature="0"
   style="fill:#e2e2e2;stroke:none" />
         <path
   d="m 8779,13581 48,28 -12,12 -21,18 -23,23 -25,23 -20,23 -16,23 -7,17 7,11 -53,-49 8,8 12,-3 18,-12 21,-15 20,-18 18,-18 15,-15 7,-8 6,-5 7,-10 5,-10 v -8 l -15,-8 v 0 l -3,-5 v -2 z"
   id="path72"
   inkscape:connector-curvature="0"
   style="fill:#494949;stroke:none" />
         <path
   d="m 8779,13581 48,28 v 0 l -12,12 -21,18 -23,23 -25,23 -20,23 -16,23 -7,17 7,11 -53,-49 v 0 l 8,8 12,-3 18,-12 21,-15 20,-18 18,-18 15,-15 7,-8 v 0 l 6,-5 7,-10 5,-10 v -8 l -15,-8 v 0 0 l -3,-5 v -2 z"
   id="path74"
   inkscape:connector-curvature="0"
   style="fill:none;stroke:#494949" />
         <path
   d="m 9463,14213 38,-5 38,33 -3,8 -10,15 -15,21 -18,23 -20,22 -21,21 -20,12 -18,5 -56,-43 6,-12 17,17 21,21 17,7 18,-10 10,-10 8,-13 3,-20 -3,-8 -3,-5 -5,-5 -5,-7 5,-11 11,3 h 15 18 17 l 13,-5 8,-8 -3,-12 -18,-18 -45,-10 z"
   id="path76"
   inkscape:connector-curvature="0"
   style="fill:#494949;stroke:none" />
         <path
   d="m 9463,14213 38,-5 38,33 v 0 l -3,8 -10,15 -15,21 -18,23 -20,22 -21,21 -20,12 -18,5 -56,-43 v 0 l 6,-12 17,17 21,21 17,7 v 0 l 18,-10 10,-10 8,-13 3,-20 v 0 l -3,-8 -3,-5 -5,-5 -5,-7 5,-11 v 0 l 11,3 h 15 18 17 l 13,-5 8,-8 -3,-12 -18,-18 -45,-10 z"
   id="path78"
   inkscape:connector-curvature="0"
   style="fill:none;stroke:#494949" />
         <path
   d="m 9803,14661 -35,30 -13,-18 30,-33 -53,-56 13,-15 152,-25 10,7 -89,94 11,11 -3,12 -13,5 z"
   id="path80"
   inkscape:connector-curvature="0"
   style="fill:#494949;stroke:none" />
         <path
   d="m 9803,14661 -35,30 -13,-18 30,-33 -53,-56 13,-15 152,-25 10,7 -89,94 v 0 l 11,11 -3,12 -13,5 z"
   id="path82"
   inkscape:connector-curvature="0"
   style="fill:none;stroke:#494949" />
         <path
   d="m 9801,14625 68,-68 -114,22 z"
   id="path84"
   inkscape:connector-curvature="0"
   style="fill:#e2e2e2;stroke:none" />
         <path
   d="m 9801,14625 68,-68 -114,22 z"
   id="path86"
   inkscape:connector-curvature="0"
   style="fill:none;stroke:#e2e2e2" />
         <path
   d="m 10220,14872 -25,10 -39,-38 -25,10 8,18 7,25 5,23 -5,20 -48,41 h -25 l -56,-48 v -6 l 7,-2 h 5 8 l 13,38 28,8 43,-31 5,-33 -28,-53 76,-28 z"
   id="path88"
   inkscape:connector-curvature="0"
   style="fill:#494949;stroke:none" />
         <path
   d="m 10220,14872 -25,10 -39,-38 -25,10 v 0 l 8,18 7,25 5,23 -5,20 -48,41 h -25 l -56,-48 v 0 -6 l 7,-2 h 5 8 l 13,38 28,8 43,-31 5,-33 -28,-53 76,-28 z"
   id="path90"
   inkscape:connector-curvature="0"
   style="fill:none;stroke:#494949" />
         <path
   d="m 10789,15428 79,79 -186,94 -12,-13 167,-81 -7,-8 -8,-10 -12,-10 -11,-10 -12,-8 -13,-5 -13,-3 -10,3 z"
   id="path92"
   inkscape:connector-curvature="0"
   style="fill:#494949;stroke:none" />
         <path
   d="m 10789,15428 79,79 -186,94 -12,-13 167,-81 v 0 l -7,-8 -8,-10 -12,-10 -11,-10 -12,-8 -13,-5 -13,-3 -10,3 z"
   id="path94"
   inkscape:connector-curvature="0"
   style="fill:none;stroke:#494949" />
         <path
   d="m 11056,15819 -8,-15 3,-18 5,-17 8,-16 10,-5 13,-5 h 15 l 12,5 36,38 v 23 l -5,10 -10,8 -10,10 h -38 l -3,23 -8,25 -12,21 -18,12 -13,-5 -13,-7 -15,-8 -12,-7 -11,-11 -7,-12 v -13 l 7,-15 z"
   id="path96"
   inkscape:connector-curvature="0"
   style="fill:#494949;stroke:none" />
         <path
   d="m 11056,15819 v 0 l -8,-15 3,-18 5,-17 8,-16 v 0 l 10,-5 13,-5 h 15 l 12,5 36,38 v 0 23 l -5,10 -10,8 -10,10 h -38 v 0 l -3,23 -8,25 -12,21 -18,12 v 0 l -13,-5 -13,-7 -15,-8 -12,-7 -11,-11 -7,-12 v -13 l 7,-15 z"
   id="path98"
   inkscape:connector-curvature="0"
   style="fill:none;stroke:#494949" />
         <path
   d="m 11076,15824 h 16 l 12,-5 13,-7 13,-10 2,-16 -18,-25 -7,-3 h -5 l -8,3 -5,2 -13,18 z"
   id="path100"
   inkscape:connector-curvature="0"
   style="fill:#e2e2e2;stroke:none" />
         <path
   d="m 11076,15824 v 0 h 16 l 12,-5 13,-7 13,-10 2,-16 -18,-25 v 0 l -7,-3 h -5 l -8,3 -5,2 -13,18 z"
   id="path102"
   inkscape:connector-curvature="0"
   style="fill:none;stroke:#e2e2e2" />
         <path
   d="m 11000,15880 23,21 h 10 l 23,-23 5,-23 -2,-15 -11,-8 -12,-2 -16,7 -12,10 -8,16 z"
   id="path104"
   inkscape:connector-curvature="0"
   style="fill:#e2e2e2;stroke:none" />
         <path
   d="m 11000,15880 23,21 h 10 l 23,-23 v 0 l 5,-23 -2,-15 -11,-8 -12,-2 -16,7 -12,10 -8,16 z"
   id="path106"
   inkscape:connector-curvature="0"
   style="fill:none;stroke:#e2e2e2" />
         <path
   d="m 11254,16198 13,8 15,7 15,3 h 18 16 l 17,-3 16,-7 15,-8 -43,-18 -11,-10 -2,-13 -3,-15 3,-13 61,-48 15,5 18,8 15,10 13,13 v 17 l -5,16 -10,15 -11,13 -12,12 -13,11 -13,12 -12,13 -13,2 -15,6 h -16 -12 z"
   id="path108"
   inkscape:connector-curvature="0"
   style="fill:#494949;stroke:none" />
         <path
   d="m 11254,16198 v 0 l 13,8 15,7 15,3 h 18 16 l 17,-3 16,-7 15,-8 -43,-18 v 0 l -11,-10 -2,-13 -3,-15 3,-13 61,-48 v 0 l 15,5 18,8 15,10 13,13 v 0 17 l -5,16 -10,15 -11,13 -12,12 -13,11 -13,12 -12,13 v 0 l -13,2 -15,6 h -16 -12 z"
   id="path110"
   inkscape:connector-curvature="0"
   style="fill:none;stroke:#494949" />
         <path
   d="m 11389,16193 41,-59 -3,-17 -13,-16 -17,-7 -16,5 -35,43 -3,20 10,18 16,13 z"
   id="path112"
   inkscape:connector-curvature="0"
   style="fill:#e2e2e2;stroke:none" />
         <path
   d="m 11389,16193 41,-59 v 0 l -3,-17 -13,-16 -17,-7 -16,5 -35,43 v 0 l -3,20 10,18 16,13 z"
   id="path114"
   inkscape:connector-curvature="0"
   style="fill:none;stroke:#e2e2e2" />
         <path
   d="m 11648,16335 43,26 -15,15 -20,18 -21,17 -22,23 -21,21 -12,22 -8,18 5,18 -56,-46 18,3 18,-5 12,-8 16,-13 15,-15 13,-15 15,-15 15,-16 5,-5 8,-7 5,-10 2,-5 z"
   id="path116"
   inkscape:connector-curvature="0"
   style="fill:#494949;stroke:none" />
         <path
   d="m 11648,16335 43,26 v 0 l -15,15 -20,18 -21,17 -22,23 -21,21 -12,22 -8,18 5,18 -56,-46 v 0 l 18,3 18,-5 12,-8 16,-13 15,-15 13,-15 15,-15 15,-16 v 0 l 5,-5 8,-7 5,-10 2,-5 z"
   id="path118"
   inkscape:connector-curvature="0"
   style="fill:none;stroke:#494949" />
         <path
   d="m 11681,16612 -15,-5 -28,-41 56,-94 61,3 35,10 18,20 -2,23 -18,26 -28,25 -38,20 z"
   id="path120"
   inkscape:connector-curvature="0"
   style="fill:#494949;stroke:none" />
         <path
   d="m 11681,16612 -15,-5 -28,-41 56,-94 v 0 l 61,3 35,10 18,20 -2,23 -18,26 -28,25 -38,20 z"
   id="path122"
   inkscape:connector-curvature="0"
   style="fill:none;stroke:#494949" />
         <path
   d="m 11763,16462 -56,28 -33,33 -18,33 v 26 l 15,12 28,-5 38,-28 46,-61 2,-12 -2,-16 -8,-10 z"
   id="path124"
   inkscape:connector-curvature="0"
   style="fill:#e2e2e2;stroke:none" />
         <path
   d="m 11763,16462 v 0 l -56,28 -33,33 -18,33 v 26 l 15,12 28,-5 38,-28 46,-61 v 0 l 2,-12 -2,-16 -8,-10 z"
   id="path126"
   inkscape:connector-curvature="0"
   style="fill:none;stroke:#e2e2e2" />
         <path
   d="m 12263,16970 48,23 -127,138 -2,5 2,7 5,5 6,3 -54,-48 15,7 18,-5 18,-13 20,-17 21,-23 17,-21 16,-20 12,-13 -2,-7 -5,-8 -8,-5 z"
   id="path128"
   inkscape:connector-curvature="0"
   style="fill:#494949;stroke:none" />
         <path
   d="m 12263,16970 48,23 -127,138 v 0 l -2,5 2,7 5,5 6,3 -54,-48 v 0 l 15,7 18,-5 18,-13 20,-17 21,-23 17,-21 16,-20 12,-13 v 0 l -2,-7 -5,-8 -8,-5 z"
   id="path130"
   inkscape:connector-curvature="0"
   style="fill:none;stroke:#494949" />
         <path
   d="m 11971,17606 v 0 l -104,-117 -107,-120 -104,-117 -107,-119 -107,-117 -106,-119 -110,-117 -106,-117 -110,-117 -109,-117 -109,-117 -110,-117 -109,-114 -112,-117 -111,-114 -112,-117 -112,-114 -112,-112 -114,-115 -112,-114 -114,-112 -115,-111 -114,-112 -114,-112 -117,-109 -115,-110 -117,-109 -117,-109 -116,-107 -117,-107 -117,-106 -120,-104"
   id="path132"
   inkscape:connector-curvature="0"
   style="fill:none;stroke:#000000" />
         <path
   d="m 11885,17626 170,-191"
   id="path134"
   inkscape:connector-curvature="0"
   style="fill:none;stroke:#000000" />
         <path
   d="m 11829,17570 119,-145"
   id="path136"
   inkscape:connector-curvature="0"
   style="fill:none;stroke:#000000" />
         <path
   d="m 11790,17491 122,-147"
   id="path138"
   inkscape:connector-curvature="0"
   style="fill:none;stroke:#000000" />
         <path
   d="m 11722,17430 122,-142"
   id="path140"
   inkscape:connector-curvature="0"
   style="fill:none;stroke:#000000" />
         <path
   d="m 11648,17374 125,-147"
   id="path142"
   inkscape:connector-curvature="0"
   style="fill:none;stroke:#000000" />
         <path
   d="m 11569,17326 171,-190"
   id="path144"
   inkscape:connector-curvature="0"
   style="fill:none;stroke:#000000" />
         <path
   d="m 11516,17245 175,-191"
   id="path146"
   inkscape:connector-curvature="0"
   style="fill:none;stroke:#000000" />
         <path
   d="m 11468,17179 124,-143"
   id="path148"
   inkscape:connector-curvature="0"
   style="fill:none;stroke:#000000" />
         <path
   d="m 11407,17113 119,-145"
   id="path150"
   inkscape:connector-curvature="0"
   style="fill:none;stroke:#000000" />
         <path
   d="m 11346,17059 122,-147"
   id="path152"
   inkscape:connector-curvature="0"
   style="fill:none;stroke:#000000" />
         <path
   d="m 11280,16998 117,-147"
   id="path154"
   inkscape:connector-curvature="0"
   style="fill:none;stroke:#000000" />
         <path
   d="m 11216,16925 173,-191"
   id="path156"
   inkscape:connector-curvature="0"
   style="fill:none;stroke:#000000" />
         <path
   d="m 11160,16848 120,-149"
   id="path158"
   inkscape:connector-curvature="0"
   style="fill:none;stroke:#000000" />
         <path
   d="m 11089,16795 127,-147"
   id="path160"
   inkscape:connector-curvature="0"
   style="fill:none;stroke:#000000" />
         <path
   d="m 11023,16739 119,-142"
   id="path162"
   inkscape:connector-curvature="0"
   style="fill:none;stroke:#000000" />
         <path
   d="m 10957,16658 119,-142"
   id="path164"
   inkscape:connector-curvature="0"
   style="fill:none;stroke:#000000" />
         <path
   d="m 10901,16577 165,-188"
   id="path166"
   inkscape:connector-curvature="0"
   style="fill:none;stroke:#000000" />
         <path
   d="m 10832,16503 125,-147"
   id="path168"
   inkscape:connector-curvature="0"
   style="fill:none;stroke:#000000" />
         <path
   d="m 10764,16455 122,-150"
   id="path170"
   inkscape:connector-curvature="0"
   style="fill:none;stroke:#000000" />
         <path
   d="m 10721,16383 122,-147"
   id="path172"
   inkscape:connector-curvature="0"
   style="fill:none;stroke:#000000" />
         <path
   d="m 10670,16328 119,-148"
   id="path174"
   inkscape:connector-curvature="0"
   style="fill:none;stroke:#000000" />
         <path
   d="m 10624,16241 135,-160"
   id="path176"
   inkscape:connector-curvature="0"
   style="fill:none;stroke:#000000" />
         <path
   d="m 10583,16180 122,-147"
   id="path178"
   inkscape:connector-curvature="0"
   style="fill:none;stroke:#000000" />
         <path
   d="m 10517,16129 120,-150"
   id="path180"
   inkscape:connector-curvature="0"
   style="fill:none;stroke:#000000" />
         <path
   d="m 10451,16061 127,-148"
   id="path182"
   inkscape:connector-curvature="0"
   style="fill:none;stroke:#000000" />
         <path
   d="m 10388,16000 124,-150"
   id="path184"
   inkscape:connector-curvature="0"
   style="fill:none;stroke:#000000" />
         <path
   d="m 10306,15944 173,-191"
   id="path186"
   inkscape:connector-curvature="0"
   style="fill:none;stroke:#000000" />
         <path
   d="m 10250,15873 122,-143"
   id="path188"
   inkscape:connector-curvature="0"
   style="fill:none;stroke:#000000" />
         <path
   d="m 10184,15819 120,-150"
   id="path190"
   inkscape:connector-curvature="0"
   style="fill:none;stroke:#000000" />
         <path
   d="m 10123,15758 120,-147"
   id="path192"
   inkscape:connector-curvature="0"
   style="fill:none;stroke:#000000" />
         <path
   d="m 10060,15692 124,-147"
   id="path194"
   inkscape:connector-curvature="0"
   style="fill:none;stroke:#000000" />
         <path
   d="m 9948,15573 119,-150"
   id="path196"
   inkscape:connector-curvature="0"
   style="fill:none;stroke:#000000" />
         <path
   d="m 9879,15507 125,-142"
   id="path198"
   inkscape:connector-curvature="0"
   style="fill:none;stroke:#000000" />
         <path
   d="m 9824,15433 121,-147"
   id="path200"
   inkscape:connector-curvature="0"
   style="fill:none;stroke:#000000" />
         <path
   d="m 9760,15377 125,-150"
   id="path202"
   inkscape:connector-curvature="0"
   style="fill:none;stroke:#000000" />
         <path
   d="m 9643,15265 125,-142"
   id="path204"
   inkscape:connector-curvature="0"
   style="fill:none;stroke:#000000" />
         <path
   d="m 9577,15204 127,-147"
   id="path206"
   inkscape:connector-curvature="0"
   style="fill:none;stroke:#000000" />
         <path
   d="m 9480,15141 125,-150"
   id="path208"
   inkscape:connector-curvature="0"
   style="fill:none;stroke:#000000" />
         <path
   d="m 9425,15057 124,-147"
   id="path210"
   inkscape:connector-curvature="0"
   style="fill:none;stroke:#000000" />
         <path
   d="m 9346,15016 173,-195"
   id="path212"
   inkscape:connector-curvature="0"
   style="fill:none;stroke:#000000" />
         <path
   d="m 9300,14953 119,-150"
   id="path214"
   inkscape:connector-curvature="0"
   style="fill:none;stroke:#000000" />
         <path
   d="m 9231,14897 120,-150"
   id="path216"
   inkscape:connector-curvature="0"
   style="fill:none;stroke:#000000" />
         <path
   d="m 9170,14826 122,-148"
   id="path218"
   inkscape:connector-curvature="0"
   style="fill:none;stroke:#000000" />
         <path
   d="m 9112,14762 119,-150"
   id="path220"
   inkscape:connector-curvature="0"
   style="fill:none;stroke:#000000" />
         <path
   d="m 9036,14706 170,-190"
   id="path222"
   inkscape:connector-curvature="0"
   style="fill:none;stroke:#000000" />
         <path
   d="m 8990,14625 122,-145"
   id="path224"
   inkscape:connector-curvature="0"
   style="fill:none;stroke:#000000" />
         <path
   d="m 8919,14562 122,-148"
   id="path226"
   inkscape:connector-curvature="0"
   style="fill:none;stroke:#000000" />
         <path
   d="m 8850,14493 120,-150"
   id="path228"
   inkscape:connector-curvature="0"
   style="fill:none;stroke:#000000" />
         <path
   d="m 8804,14422 120,-148"
   id="path230"
   inkscape:connector-curvature="0"
   style="fill:none;stroke:#000000" />
         <path
   d="m 8723,14371 170,-191"
   id="path232"
   inkscape:connector-curvature="0"
   style="fill:none;stroke:#000000" />
         <path
   d="m 8682,14290 128,-150"
   id="path234"
   inkscape:connector-curvature="0"
   style="fill:none;stroke:#000000" />
         <path
   d="m 8619,14234 124,-142"
   id="path236"
   inkscape:connector-curvature="0"
   style="fill:none;stroke:#000000" />
         <path
   d="m 8553,14173 122,-142"
   id="path238"
   inkscape:connector-curvature="0"
   style="fill:none;stroke:#000000" />
         <path
   d="m 8487,14112 122,-148"
   id="path240"
   inkscape:connector-curvature="0"
   style="fill:none;stroke:#000000" />
         <path
   d="m 8411,14061 167,-191"
   id="path242"
   inkscape:connector-curvature="0"
   style="fill:none;stroke:#000000" />
         <path
   d="m 8520,13995 -38,36"
   id="path244"
   inkscape:connector-curvature="0"
   style="fill:none;stroke:#000000" />
         <path
   d="m 8586,14061 -38,36"
   id="path246"
   inkscape:connector-curvature="0"
   style="fill:none;stroke:#000000" />
         <path
   d="m 8652,14119 -38,39"
   id="path248"
   inkscape:connector-curvature="0"
   style="fill:none;stroke:#000000" />
         <path
   d="m 8716,14186 -41,38"
   id="path250"
   inkscape:connector-curvature="0"
   style="fill:none;stroke:#000000" />
         <path
   d="m 8779,14252 -41,38"
   id="path252"
   inkscape:connector-curvature="0"
   style="fill:none;stroke:#000000" />
         <path
   d="m 8845,14318 -41,35"
   id="path254"
   inkscape:connector-curvature="0"
   style="fill:none;stroke:#000000" />
         <path
   d="m 8909,14381 -38,38"
   id="path256"
   inkscape:connector-curvature="0"
   style="fill:none;stroke:#000000" />
         <path
   d="m 8975,14445 -41,35"
   id="path258"
   inkscape:connector-curvature="0"
   style="fill:none;stroke:#000000" />
         <path
   d="m 9041,14506 -43,38"
   id="path260"
   inkscape:connector-curvature="0"
   style="fill:none;stroke:#000000" />
         <path
   d="m 9117,14557 -36,38"
   id="path262"
   inkscape:connector-curvature="0"
   style="fill:none;stroke:#000000" />
         <path
   d="m 9183,14618 -43,38"
   id="path264"
   inkscape:connector-curvature="0"
   style="fill:none;stroke:#000000" />
         <path
   d="m 9249,14684 -43,38"
   id="path266"
   inkscape:connector-curvature="0"
   style="fill:none;stroke:#000000" />
         <path
   d="m 9315,14747 -43,36"
   id="path268"
   inkscape:connector-curvature="0"
   style="fill:none;stroke:#000000" />
         <path
   d="m 9379,14811 -43,38"
   id="path270"
   inkscape:connector-curvature="0"
   style="fill:none;stroke:#000000" />
         <path
   d="m 9430,14864 -44,38"
   id="path272"
   inkscape:connector-curvature="0"
   style="fill:none;stroke:#000000" />
         <path
   d="m 9491,14927 -39,36"
   id="path274"
   inkscape:connector-curvature="0"
   style="fill:none;stroke:#000000" />
         <path
   d="m 9554,14986 -35,38"
   id="path276"
   inkscape:connector-curvature="0"
   style="fill:none;stroke:#000000" />
         <path
   d="m 9638,15072 -43,36"
   id="path278"
   inkscape:connector-curvature="0"
   style="fill:none;stroke:#000000" />
         <path
   d="m 9699,15138 -38,31"
   id="path280"
   inkscape:connector-curvature="0"
   style="fill:none;stroke:#000000" />
         <path
   d="m 9763,15199 -36,33"
   id="path282"
   inkscape:connector-curvature="0"
   style="fill:none;stroke:#000000" />
         <path
   d="m 9813,15248 -38,38"
   id="path284"
   inkscape:connector-curvature="0"
   style="fill:none;stroke:#000000" />
         <path
   d="m 9874,15309 -38,38"
   id="path286"
   inkscape:connector-curvature="0"
   style="fill:none;stroke:#000000" />
         <path
   d="m 9940,15375 -43,35"
   id="path288"
   inkscape:connector-curvature="0"
   style="fill:none;stroke:#000000" />
         <path
   d="m 10006,15436 -38,38"
   id="path290"
   inkscape:connector-curvature="0"
   style="fill:none;stroke:#000000" />
         <path
   d="m 10073,15502 -41,38"
   id="path292"
   inkscape:connector-curvature="0"
   style="fill:none;stroke:#000000" />
         <path
   d="m 10118,15550 -40,38"
   id="path294"
   inkscape:connector-curvature="0"
   style="fill:none;stroke:#000000" />
         <path
   d="m 10174,15611 -43,36"
   id="path296"
   inkscape:connector-curvature="0"
   style="fill:none;stroke:#000000" />
         <path
   d="m 10243,15677 -43,38"
   id="path298"
   inkscape:connector-curvature="0"
   style="fill:none;stroke:#000000" />
         <path
   d="m 10311,15743 -40,38"
   id="path300"
   inkscape:connector-curvature="0"
   style="fill:none;stroke:#000000" />
         <path
   d="m 10378,15814 -36,36"
   id="path302"
   inkscape:connector-curvature="0"
   style="fill:none;stroke:#000000" />
         <path
   d="m 10433,15868 -35,38"
   id="path304"
   inkscape:connector-curvature="0"
   style="fill:none;stroke:#000000" />
         <path
   d="m 10497,15934 -36,38"
   id="path306"
   inkscape:connector-curvature="0"
   style="fill:none;stroke:#000000" />
         <path
   d="m 10568,16000 -43,35"
   id="path308"
   inkscape:connector-curvature="0"
   style="fill:none;stroke:#000000" />
         <path
   d="m 10632,16063 -41,36"
   id="path310"
   inkscape:connector-curvature="0"
   style="fill:none;stroke:#000000" />
         <path
   d="m 10677,16132 -40,38"
   id="path312"
   inkscape:connector-curvature="0"
   style="fill:none;stroke:#000000" />
         <path
   d="m 10733,16185 -40,36"
   id="path314"
   inkscape:connector-curvature="0"
   style="fill:none;stroke:#000000" />
         <path
   d="m 10789,16241 -38,36"
   id="path316"
   inkscape:connector-curvature="0"
   style="fill:none;stroke:#000000" />
         <path
   d="m 10845,16295 -41,38"
   id="path318"
   inkscape:connector-curvature="0"
   style="fill:none;stroke:#000000" />
         <path
   d="m 10906,16356 -43,38"
   id="path320"
   inkscape:connector-curvature="0"
   style="fill:none;stroke:#000000" />
         <path
   d="m 10962,16427 -38,35"
   id="path322"
   inkscape:connector-curvature="0"
   style="fill:none;stroke:#000000" />
         <path
   d="m 11028,16503 -38,38"
   id="path324"
   inkscape:connector-curvature="0"
   style="fill:none;stroke:#000000" />
         <path
   d="m 11099,16577 -38,38"
   id="path326"
   inkscape:connector-curvature="0"
   style="fill:none;stroke:#000000" />
         <path
   d="m 11173,16653 -46,38"
   id="path328"
   inkscape:connector-curvature="0"
   style="fill:none;stroke:#000000" />
         <path
   d="m 11221,16711 -35,38"
   id="path330"
   inkscape:connector-curvature="0"
   style="fill:none;stroke:#000000" />
         <path
   d="m 11285,16782 -38,36"
   id="path332"
   inkscape:connector-curvature="0"
   style="fill:none;stroke:#000000" />
         <path
   d="m 11351,16851 -43,38"
   id="path334"
   inkscape:connector-curvature="0"
   style="fill:none;stroke:#000000" />
         <path
   d="m 11412,16922 -38,36"
   id="path336"
   inkscape:connector-curvature="0"
   style="fill:none;stroke:#000000" />
         <path
   d="m 11468,16976 -41,38"
   id="path338"
   inkscape:connector-curvature="0"
   style="fill:none;stroke:#000000" />
         <path
   d="m 11526,17047 -35,38"
   id="path340"
   inkscape:connector-curvature="0"
   style="fill:none;stroke:#000000" />
         <path
   d="m 11582,17108 -41,35"
   id="path342"
   inkscape:connector-curvature="0"
   style="fill:none;stroke:#000000" />
         <path
   d="m 11643,17174 -41,38"
   id="path344"
   inkscape:connector-curvature="0"
   style="fill:none;stroke:#000000" />
         <path
   d="m 11704,17240 -41,38"
   id="path346"
   inkscape:connector-curvature="0"
   style="fill:none;stroke:#000000" />
         <path
   d="m 11763,17311 -41,33"
   id="path348"
   inkscape:connector-curvature="0"
   style="fill:none;stroke:#000000" />
         <path
   d="m 11824,17374 -41,39"
   id="path350"
   inkscape:connector-curvature="0"
   style="fill:none;stroke:#000000" />
         <path
   d="m 11885,17441 -41,35"
   id="path352"
   inkscape:connector-curvature="0"
   style="fill:none;stroke:#000000" />
         <path
   d="m 11940,17501 -40,36"
   id="path354"
   inkscape:connector-curvature="0"
   style="fill:none;stroke:#000000" />
         <path
   d="m 8995,13344 -173,191"
   id="path356"
   inkscape:connector-curvature="0"
   style="fill:none;stroke:#000000" />
         <path
   d="m 9046,13411 -127,142"
   id="path358"
   inkscape:connector-curvature="0"
   style="fill:none;stroke:#000000" />
         <path
   d="m 9112,13459 -122,145"
   id="path360"
   inkscape:connector-curvature="0"
   style="fill:none;stroke:#000000" />
         <path
   d="m 9183,13517 -124,145"
   id="path362"
   inkscape:connector-curvature="0"
   style="fill:none;stroke:#000000" />
         <path
   d="m 9254,13573 -122,142"
   id="path364"
   inkscape:connector-curvature="0"
   style="fill:none;stroke:#000000" />
         <path
   d="m 9331,13624 -166,191"
   id="path366"
   inkscape:connector-curvature="0"
   style="fill:none;stroke:#000000" />
         <path
   d="m 9381,13700 -170,193"
   id="path368"
   inkscape:connector-curvature="0"
   style="fill:none;stroke:#000000" />
         <path
   d="m 9435,13761 -120,148"
   id="path370"
   inkscape:connector-curvature="0"
   style="fill:none;stroke:#000000" />
         <path
   d="m 9503,13815 -124,147"
   id="path372"
   inkscape:connector-curvature="0"
   style="fill:none;stroke:#000000" />
         <path
   d="m 9572,13870 -120,148"
   id="path374"
   inkscape:connector-curvature="0"
   style="fill:none;stroke:#000000" />
         <path
   d="m 9648,13929 -124,145"
   id="path376"
   inkscape:connector-curvature="0"
   style="fill:none;stroke:#000000" />
         <path
   d="m 9727,13980 -173,188"
   id="path378"
   inkscape:connector-curvature="0"
   style="fill:none;stroke:#000000" />
         <path
   d="m 9775,14064 -119,144"
   id="path380"
   inkscape:connector-curvature="0"
   style="fill:none;stroke:#000000" />
         <path
   d="m 9846,14117 -124,145"
   id="path382"
   inkscape:connector-curvature="0"
   style="fill:none;stroke:#000000" />
         <path
   d="m 9918,14168 -122,150"
   id="path384"
   inkscape:connector-curvature="0"
   style="fill:none;stroke:#000000" />
         <path
   d="m 9989,14229 -125,142"
   id="path386"
   inkscape:connector-curvature="0"
   style="fill:none;stroke:#000000" />
         <path
   d="m 10067,14280 -170,190"
   id="path388"
   inkscape:connector-curvature="0"
   style="fill:none;stroke:#000000" />
         <path
   d="m 10113,14376 -119,150"
   id="path390"
   inkscape:connector-curvature="0"
   style="fill:none;stroke:#000000" />
         <path
   d="m 10184,14427 -124,147"
   id="path392"
   inkscape:connector-curvature="0"
   style="fill:none;stroke:#000000" />
         <path
   d="m 10250,14483 -119,147"
   id="path394"
   inkscape:connector-curvature="0"
   style="fill:none;stroke:#000000" />
         <path
   d="m 10327,14541 -127,145"
   id="path396"
   inkscape:connector-curvature="0"
   style="fill:none;stroke:#000000" />
         <path
   d="m 10408,14595 -175,188"
   id="path398"
   inkscape:connector-curvature="0"
   style="fill:none;stroke:#000000" />
         <path
   d="m 10411,14691 -122,145"
   id="path400"
   inkscape:connector-curvature="0"
   style="fill:none;stroke:#000000" />
         <path
   d="m 10479,14745 -124,142"
   id="path402"
   inkscape:connector-curvature="0"
   style="fill:none;stroke:#000000" />
         <path
   d="m 10540,14806 -127,152"
   id="path404"
   inkscape:connector-curvature="0"
   style="fill:none;stroke:#000000" />
         <path
   d="m 10606,14867 -122,149"
   id="path406"
   inkscape:connector-curvature="0"
   style="fill:none;stroke:#000000" />
         <path
   d="m 10703,14905 -173,195"
   id="path408"
   inkscape:connector-curvature="0"
   style="fill:none;stroke:#000000" />
         <path
   d="m 10738,14991 -119,150"
   id="path410"
   inkscape:connector-curvature="0"
   style="fill:none;stroke:#000000" />
         <path
   d="m 10810,15047 -122,152"
   id="path412"
   inkscape:connector-curvature="0"
   style="fill:none;stroke:#000000" />
         <path
   d="m 10868,15108 -117,150"
   id="path414"
   inkscape:connector-curvature="0"
   style="fill:none;stroke:#000000" />
         <path
   d="m 10934,15174 -119,147"
   id="path416"
   inkscape:connector-curvature="0"
   style="fill:none;stroke:#000000" />
         <path
   d="m 11013,15225 -168,193"
   id="path418"
   inkscape:connector-curvature="0"
   style="fill:none;stroke:#000000" />
         <path
   d="m 11056,15304 -127,147"
   id="path420"
   inkscape:connector-curvature="0"
   style="fill:none;stroke:#000000" />
         <path
   d="m 11125,15365 -125,147"
   id="path422"
   inkscape:connector-curvature="0"
   style="fill:none;stroke:#000000" />
         <path
   d="m 11186,15423 -125,150"
   id="path424"
   inkscape:connector-curvature="0"
   style="fill:none;stroke:#000000" />
         <path
   d="m 11247,15484 -127,147"
   id="path426"
   inkscape:connector-curvature="0"
   style="fill:none;stroke:#000000" />
         <path
   d="m 11318,15535 -168,190"
   id="path428"
   inkscape:connector-curvature="0"
   style="fill:none;stroke:#000000" />
         <path
   d="m 11369,15624 -122,145"
   id="path430"
   inkscape:connector-curvature="0"
   style="fill:none;stroke:#000000" />
         <path
   d="m 11435,15682 -122,150"
   id="path432"
   inkscape:connector-curvature="0"
   style="fill:none;stroke:#000000" />
         <path
   d="m 11498,15758 -119,143"
   id="path434"
   inkscape:connector-curvature="0"
   style="fill:none;stroke:#000000" />
         <path
   d="m 11569,15814 -119,148"
   id="path436"
   inkscape:connector-curvature="0"
   style="fill:none;stroke:#000000" />
         <path
   d="m 11638,15863 -170,198"
   id="path438"
   inkscape:connector-curvature="0"
   style="fill:none;stroke:#000000" />
         <path
   d="m 11666,15949 -119,145"
   id="path440"
   inkscape:connector-curvature="0"
   style="fill:none;stroke:#000000" />
         <path
   d="m 11735,16010 -120,142"
   id="path442"
   inkscape:connector-curvature="0"
   style="fill:none;stroke:#000000" />
         <path
   d="m 11796,16071 -120,150"
   id="path444"
   inkscape:connector-curvature="0"
   style="fill:none;stroke:#000000" />
         <path
   d="m 11857,16142 -122,147"
   id="path446"
   inkscape:connector-curvature="0"
   style="fill:none;stroke:#000000" />
         <path
   d="m 11930,16193 -173,196"
   id="path448"
   inkscape:connector-curvature="0"
   style="fill:none;stroke:#000000" />
         <path
   d="m 11976,16274 -119,148"
   id="path450"
   inkscape:connector-curvature="0"
   style="fill:none;stroke:#000000" />
         <path
   d="m 12047,16335 -122,153"
   id="path452"
   inkscape:connector-curvature="0"
   style="fill:none;stroke:#000000" />
         <path
   d="m 12121,16411 -127,143"
   id="path454"
   inkscape:connector-curvature="0"
   style="fill:none;stroke:#000000" />
         <path
   d="m 12162,16477 -120,148"
   id="path456"
   inkscape:connector-curvature="0"
   style="fill:none;stroke:#000000" />
         <path
   d="m 12245,16531 -170,185"
   id="path458"
   inkscape:connector-curvature="0"
   style="fill:none;stroke:#000000" />
         <path
   d="m 12283,16615 -127,137"
   id="path460"
   inkscape:connector-curvature="0"
   style="fill:none;stroke:#000000" />
         <path
   d="m 12350,16663 -127,147"
   id="path462"
   inkscape:connector-curvature="0"
   style="fill:none;stroke:#000000" />
         <path
   d="m 12413,16721 -119,150"
   id="path464"
   inkscape:connector-curvature="0"
   style="fill:none;stroke:#000000" />
         <path
   d="m 9122,14089 h -13 l -10,-5 -12,-5 -11,-10 -10,-11 -10,-7 -8,-10 -7,-10 h 18 20 18 l 17,-3 21,-3 18,-2 15,-8 18,-10 15,-41 -15,-35 -36,-15 -48,12 12,-2 16,2 15,3 15,8 13,33 -13,20 -15,13 -20,10 -23,5 -26,2 -25,3 h -23 -20 l 76,84 z"
   id="path466"
   inkscape:connector-curvature="0"
   style="fill:#666666;stroke:none" />
         <path
   d="m 9122,14089 v 0 h -13 l -10,-5 -12,-5 -11,-10 -10,-11 -10,-7 -8,-10 -7,-10 v 0 h 18 20 18 l 17,-3 21,-3 18,-2 15,-8 18,-10 15,-41 -15,-35 -36,-15 -48,12 v 0 l 12,-2 16,2 15,3 15,8 13,33 v 0 l -13,20 -15,13 -20,10 -23,5 -26,2 -25,3 h -23 -20 l 76,84 z"
   id="path468"
   inkscape:connector-curvature="0"
   style="fill:none;stroke:#666666" />
         <path
   d="m 12344,17245 -43,20 -78,-81 15,-5 15,-5 15,-3 h 15 l 16,-2 15,2 h 18 l 15,3 43,-31 3,-12 -49,-41 -15,7 -2,-5 12,-12 26,-5 38,30 15,28 -2,20 -16,16 -28,12 -33,8 -38,2 -38,-2 13,15 13,13 15,13 15,12 5,3 10,-3 h 8 z"
   id="path470"
   inkscape:connector-curvature="0"
   style="fill:#494949;stroke:none" />
         <path
   d="m 12344,17245 -43,20 -78,-81 v 0 l 15,-5 15,-5 15,-3 h 15 l 16,-2 15,2 h 18 l 15,3 43,-31 3,-12 -49,-41 v 0 l -15,7 -2,-5 12,-12 26,-5 v 0 l 38,30 15,28 -2,20 -16,16 -28,12 -33,8 -38,2 -38,-2 v 0 l 13,15 13,13 15,13 15,12 v 0 l 5,3 10,-3 h 8 z"
   id="path472"
   inkscape:connector-curvature="0"
   style="fill:none;stroke:#494949" />
         <path
   d="m 8934,13339 v 0 l 117,110 119,106 117,110 117,109 117,109 117,109 117,112 117,109 117,112 114,110 117,111 114,112 117,112 115,114 114,112 114,112 115,114 114,115 112,114 112,114 114,115 112,114 112,117 109,114 112,117 109,117 109,117 110,117 106,117 110,117 106,116 107,120"
   id="path474"
   inkscape:connector-curvature="0"
   style="fill:none;stroke:#191919" />
         <path
   d="m 12477,16787 -120,145"
   id="path476"
   inkscape:connector-curvature="0"
   style="fill:none;stroke:#000000" />
         <path
   d="m 12555,16838 -167,193"
   id="path478"
   inkscape:connector-curvature="0"
   style="fill:none;stroke:#000000" />
         <path
   d="m 10433,15278 -2,18 15,-3 23,-10 13,-7 20,-41 -15,-36 -36,-17 54,-18 63,20 -13,-13 -15,-10 -18,-7 -17,-5 h -18 -18 l -18,5 -18,7 -5,23 8,8 15,2 18,5 8,33 z"
   id="path480"
   inkscape:connector-curvature="0"
   style="fill:#494949;stroke:none" />
         <path
   d="m 10433,15278 v 0 l -2,18 15,-3 23,-10 13,-7 20,-41 -15,-36 -36,-17 54,-18 63,20 v 0 l -13,-13 -15,-10 -18,-7 -17,-5 h -18 -18 l -18,5 -18,7 v 0 l -5,23 8,8 15,2 18,5 8,33 z"
   id="path482"
   inkscape:connector-curvature="0"
   style="fill:none;stroke:#494949" />
         <path
   d="m 10433,15194 6,-12 -11,-13 -12,-5 -5,13 -33,58 15,46 7,5 8,5 8,2 7,3 8,-3 2,-2 3,-8 -3,-5 -12,-7 -13,-8 -10,-8 -3,-10 z"
   id="path484"
   inkscape:connector-curvature="0"
   style="fill:#494949;stroke:none" />
         <path
   d="m 10433,15194 v 0 l 6,-12 -11,-13 -12,-5 -5,13 -33,58 15,46 v 0 l 7,5 8,5 8,2 7,3 v 0 l 8,-3 2,-2 3,-8 -3,-5 v 0 l -12,-7 -13,-8 -10,-8 -3,-10 z"
   id="path486"
   inkscape:connector-curvature="0"
   style="fill:none;stroke:#494949" />
         <path
   d="m 11966,16866 v 36 10 l 10,-5 5,-8 h -5 l 122,-132 -53,-18 7,3 5,8 3,10 -3,7 -89,89 z"
   id="path488"
   inkscape:connector-curvature="0"
   style="fill:#494949;stroke:none" />
         <path
   d="m 11966,16866 v 36 0 10 l 10,-5 5,-8 h -5 l 122,-132 -53,-18 v 0 l 7,3 5,8 3,10 -3,7 -89,89 z"
   id="path490"
   inkscape:connector-curvature="0"
   style="fill:none;stroke:#494949" />
         <path
   d="m 11966,16660 v 49 l 38,-33 -5,-3 -13,-5 -13,-5 z"
   id="path492"
   inkscape:connector-curvature="0"
   style="fill:#494949;stroke:none" />
         <path
   d="m 11966,16660 v 49 l 38,-33 v 0 l -5,-3 -13,-5 -13,-5 z"
   id="path494"
   inkscape:connector-curvature="0"
   style="fill:none;stroke:#494949" />
         <path
   d="m 11966,16709 v -49 0 8 l -3,8 -2,7 -104,94 -16,-10 51,56 -10,-18 z"
   id="path496"
   inkscape:connector-curvature="0"
   style="fill:#494949;stroke:none" />
         <path
   d="m 11966,16709 v -49 0 0 8 l -3,8 -2,7 -104,94 -16,-10 51,56 -10,-18 z"
   id="path498"
   inkscape:connector-curvature="0"
   style="fill:none;stroke:#494949" />
         <path
   d="m 11966,16902 v -36 l -15,8 -18,-13 z"
   id="path500"
   inkscape:connector-curvature="0"
   style="fill:#494949;stroke:none" />
         <path
   d="m 11966,16902 v -36 l -15,8 -18,-13 z"
   id="path502"
   inkscape:connector-curvature="0"
   style="fill:none;stroke:#494949" />
         <path
   d="m 10477,17451 h 15 48 l 71,-3 97,-10 109,-23 127,-35 132,-54 140,-74 137,-99 138,-124 124,-158 117,-193 97,-228 78,-272 51,-315 23,-364 -10,-417 -43,-360 -71,-310 -94,-262 -115,-219 -127,-177 -137,-143 -140,-112 -142,-81 -137,-61 -130,-38 -117,-23 -97,-13 -76,-5 h -48 -18 v -264 h 5 18 l 31,3 38,2 48,3 56,5 66,10 71,10 79,15 84,18 89,23 91,28 97,31 99,38 101,43 102,51 102,56 101,63 102,71 97,82 96,86 92,96 89,107 84,115 76,127 71,134 63,148 56,160 46,170 38,183 28,196 15,208 -5,216 -15,201 -28,188 -41,175 -48,165 -58,153 -66,142 -77,130 -81,119 -86,112 -92,99 -96,91 -102,84 -102,76 -104,66 -104,61 -107,54 -104,46 -102,40 -101,33 -97,31 -94,25 -89,20 -81,16 -76,12 -69,11 -61,7 -51,5 -40,3 -31,2 h -18 -7 z"
   id="path504"
   inkscape:connector-curvature="0"
   style="fill:#000000;stroke:none" />
         <path
   d="m 10512,17453 h -18 -45 l -74,-2 -94,-10 -112,-23 -124,-36 -135,-53 -137,-74 -140,-99 -135,-127 -127,-158 -114,-190 -99,-229 -77,-272 -53,-315 -23,-363 10,-417 44,-361 71,-310 94,-261 112,-219 127,-178 137,-142 140,-112 142,-84 137,-58 130,-41 117,-23 96,-13 77,-5 h 48 18 l 2,-264 h -5 -18 l -30,3 -38,2 -49,3 -56,5 -66,10 -71,10 -79,15 -83,18 -89,23 -94,28 -94,33 -100,38 -101,43 -102,49 -101,58 -102,64 -102,71 -99,79 -94,88 -94,97 -86,104 -84,117 -79,125 -71,137 -64,147 -56,158 -45,170 -38,183 -28,196 -16,208 5,216 16,201 28,188 40,175 49,165 61,153 66,142 73,130 84,119 87,112 91,101 97,92 101,84 102,73 104,69 107,58 104,54 104,46 104,40 102,36 97,30 94,26 86,20 84,15 76,13 69,10 61,8 51,5 40,2 31,3 h 18 7 z"
   id="path506"
   inkscape:connector-curvature="0"
   style="fill:#000000;stroke:none" />
         <path
   d="m 9125,17756 -71,55 -69,44 -61,30 -53,18 -51,8 -44,-3 -38,-13 -30,-20 -28,-25 -20,-36 -18,-41 -8,-45 -5,-51 v -54 l 5,-55 13,-59 71,-107 79,-114 84,-124 89,-133 94,-139 96,-148 102,-152 104,-155 107,-160 109,-165 109,-166 112,-165 109,-167 112,-168 110,-165 109,-165 107,-161 104,-157 101,-155 97,-147 94,-140 89,-135 84,-127 79,-119 71,-107 63,-99 59,-87 48,-73 43,-64 31,-48 23,-33 12,-18 41,-56 46,-58 48,-61 56,-64 56,-61 61,-63 61,-61 61,-61 61,-61 61,-56 58,-56 56,-51 51,-46 48,-43 43,-38 36,-33 -20,76 -23,82 -28,83 -28,87 -33,89 -33,86 -33,87 -33,86 -36,81 -33,77 -30,71 -31,66 -28,58 -25,51 -21,38 -17,31 -84,127 -82,129 -81,127 -84,127 -81,125 -81,127 -82,124 -81,125 -81,124 -82,125 -81,124 -81,125 -82,124 -78,125 -82,122 -81,124 -81,125 -82,124 -81,125 -79,124 -81,125 -81,124 -84,128 -82,124 -81,127 -81,127 -84,127 -81,127 -84,130 -82,127 -83,132 z"
   id="path508"
   inkscape:connector-curvature="0"
   style="fill:#000000;stroke:none" />
         <path
   d="m 11867,13324 25,-66 33,-84 36,-96 40,-102 41,-102 38,-91 36,-76 30,-54 -35,36 -33,33 -36,36 -36,35 -33,36 -35,35 -36,36 -33,33 -35,35 -36,36 -35,33 -36,36 -36,33 -35,33 -38,33 -36,33 28,221 z"
   id="path510"
   inkscape:connector-curvature="0"
   style="fill:#666666;stroke:none" />
         <path
   d="m 11867,13324 v 0 l 25,-66 33,-84 36,-96 40,-102 41,-102 38,-91 36,-76 30,-54 v 0 l -35,36 -33,33 -36,36 -36,35 -33,36 -35,35 -36,36 -33,33 -35,35 -36,36 -35,33 -36,36 -36,33 -35,33 -38,33 -36,33 28,221 z"
   id="path512"
   inkscape:connector-curvature="0"
   style="fill:none;stroke:#666666" />
         <path
   d="m 11668,13324 443,-622 -488,475 z"
   id="path514"
   inkscape:connector-curvature="0"
   style="fill:#cecece;stroke:none" />
         <path
   d="m 11668,13324 443,-622 -488,475 z"
   id="path516"
   inkscape:connector-curvature="0"
   style="fill:none;stroke:#cecece" />
         <path
   d="m 11704,13652 -84,127 -81,127 -84,127 -81,127 -84,127 -81,127 -84,127 -82,130 -81,127 -84,129 -81,128 -81,129 -84,127 -82,127 -84,130 -81,127 -84,127 -84,130 -81,127 -84,127 -84,127 -83,127 -84,124 -87,127 -84,125 -86,127 -86,124 -84,125 -89,122 -87,124 -86,122 -89,122 -20,21 -31,22 -35,21 -39,18 -38,15 -38,12 -33,8 -25,3 -54,-8 -30,-25 -18,-36 -5,-46 3,-48 5,-48 7,-43 v -36 l 87,-127 84,-125 86,-127 86,-127 84,-124 87,-127 84,-127 86,-127 84,-127 86,-127 84,-127 84,-128 86,-127 84,-127 84,-127 86,-129 84,-127 84,-127 84,-127 84,-130 84,-127 84,-127 83,-130 84,-127 84,-129 84,-127 81,-130 84,-127 84,-130 84,-129 81,-127 84,-130 41,206 z"
   id="path518"
   inkscape:connector-curvature="0"
   style="fill:#e5e5e5;stroke:none" />
         <path
   d="m 9041,17715 v 0 l 89,-122 86,-122 87,-125 88,-121 84,-125 87,-124 86,-128 84,-124 86,-127 84,-125 84,-127 84,-127 84,-127 81,-127 84,-129 84,-127 81,-127 84,-130 81,-127 84,-127 84,-130 79,-127 84,-129 84,-127 78,-130 84,-127 82,-127 83,-127 82,-127 84,-127 81,-127 84,-127 -36,-26 -84,127 -81,127 -84,127 -81,127 -84,127 -81,128 -84,127 -84,129 -79,127 -84,130 -83,127 -79,129 -84,127 -81,128 -84,129 -82,127 -84,127 -83,130 -82,127 -84,127 -83,127 -84,127 -84,125 -87,127 -83,124 -87,127 -86,125 -84,124 -89,122 -86,125 -87,122 -89,122 v 0 z"
   id="path520"
   inkscape:connector-curvature="0"
   style="fill:#000000;stroke:none" />
         <path
   d="m 8764,17845 v 0 l 28,-3 35,-8 41,-15 38,-15 41,-18 38,-23 33,-23 23,-25 -36,-25 -18,15 -28,23 -33,17 -35,18 -38,15 -36,11 -30,7 -23,3 v 0 z"
   id="path522"
   inkscape:connector-curvature="0"
   style="fill:#000000;stroke:none" />
         <path
   d="m 8655,17519 -6,13 v 36 l -7,40 -5,51 -3,48 5,51 23,43 41,33 61,11 v -46 l -46,-5 -20,-18 -13,-28 -5,-41 2,-48 6,-46 7,-45 v -36 l -5,13 5,-13 -7,-18 -16,-5 -15,5 -8,18 z"
   id="path524"
   inkscape:connector-curvature="0"
   style="fill:#000000;stroke:none" />
         <path
   d="m 11394,13449 -41,-11 -83,130 -82,127 -84,130 -84,129 -83,127 -82,130 -84,127 -83,130 -84,127 -84,129 -84,127 -84,127 -84,130 -84,127 -83,127 -84,127 -87,130 -84,127 -83,127 -87,127 -84,127 -84,127 -86,127 -84,127 -86,127 -84,127 -87,127 -83,125 -87,127 -86,127 -84,124 -86,127 35,26 86,-127 84,-125 87,-127 86,-127 84,-124 86,-128 84,-127 87,-127 84,-127 86,-127 84,-127 84,-127 86,-127 84,-127 84,-127 86,-130 84,-127 84,-127 84,-127 84,-129 84,-127 83,-127 84,-130 84,-127 84,-130 84,-127 81,-129 84,-127 84,-130 84,-129 81,-128 84,-129 -41,-10 41,10 2,-18 -7,-13 -15,-5 -16,10 z"
   id="path526"
   inkscape:connector-curvature="0"
   style="fill:#000000;stroke:none" />
         <path
   d="m 11412,13634 23,20 -41,-205 -46,5 41,206 23,20 -23,-20 8,15 17,5 16,-8 5,-18 z"
   id="path528"
   inkscape:connector-curvature="0"
   style="fill:#000000;stroke:none" />
         <path
   d="m 11722,13665 -18,-36 -292,5 v 46 l 292,-5 -18,-36 18,36 18,-8 5,-15 -5,-15 -18,-8 z"
   id="path530"
   inkscape:connector-curvature="0"
   style="fill:#000000;stroke:none" />
         <path
   d="m 11717,13614 -87,127 -83,127 -87,127 -84,127 -84,127 -86,127 -84,127 -84,127 -84,130 -83,127 -84,127 -84,127 -84,130 -84,127 -84,127 -81,129 -84,127 -84,127 -84,130 -84,127 -81,127 -84,130 -84,127 -83,127 -82,129 -84,127 -84,127 -83,127 -82,130 -84,127 -83,127 -84,127 -237,132 -63,-15 -38,-41 2777,-4157 z"
   id="path532"
   inkscape:connector-curvature="0"
   style="fill:#a5a5a5;stroke:none" />
         <path
   d="m 11717,13614 v 0 l -87,127 -83,127 -87,127 -84,127 -84,127 -86,127 -84,127 -84,127 -84,130 -83,127 -84,127 -84,127 -84,130 -84,127 -84,127 -81,129 -84,127 -84,127 -84,130 -84,127 -81,127 -84,130 -84,127 -83,127 -82,129 -84,127 -84,127 -83,127 -82,130 -84,127 -83,127 -84,127 -237,132 -63,-15 -38,-41 2777,-4157 z"
   id="path534"
   inkscape:connector-curvature="0"
   style="fill:none;stroke:#a5a5a5" />
         <path
   d="m 11679,13695 188,-368 -211,7 -51,-142 -264,302 28,16 30,48 -51,91 31,5 25,3 h 21 l 17,3 13,7 10,13 8,18 5,28 2,5 6,5 5,2 h 7 l 97,-61 h 7 11 l 12,3 16,2 12,3 13,3 8,5 z"
   id="path536"
   inkscape:connector-curvature="0"
   style="fill:#e5e5e5;stroke:none" />
         <path
   d="m 11867,13342 -16,-23 -188,369 31,15 188,-369 -15,-23 15,23 v -12 l -8,-11 -12,-2 -11,10 z"
   id="path538"
   inkscape:connector-curvature="0"
   style="fill:#000000;stroke:none" />
         <path
   d="m 11641,13339 15,11 211,-8 v -31 l -211,8 15,10 -15,-10 -10,5 -5,10 5,10 10,6 z"
   id="path540"
   inkscape:connector-curvature="0"
   style="fill:#000000;stroke:none" />
         <path
   d="m 11618,13202 -28,-5 51,142 30,-10 -51,-142 -28,-5 28,5 -7,-10 h -11 l -10,7 -2,13 z"
   id="path542"
   inkscape:connector-curvature="0"
   style="fill:#000000;stroke:none" />
         <path
   d="m 11348,13479 5,26 265,-303 -26,-20 -264,302 5,26 -5,-26 -3,13 6,8 12,5 10,-5 z"
   id="path544"
   inkscape:connector-curvature="0"
   style="fill:#000000;stroke:none" />
         <path
   d="m 11381,13502 -5,-8 -28,-15 -15,31 28,15 -5,-8 5,8 h 13 l 10,-8 2,-12 -10,-11 z"
   id="path546"
   inkscape:connector-curvature="0"
   style="fill:#000000;stroke:none" />
         <path
   d="m 11414,13566 -2,-16 -31,-48 -25,15 30,49 -2,-16 2,16 11,5 10,-3 7,-8 -2,-10 z"
   id="path548"
   inkscape:connector-curvature="0"
   style="fill:#000000;stroke:none" />
         <path
   d="m 11351,13634 13,23 50,-91 -30,-16 -51,92 13,23 -13,-23 v 12 l 8,11 12,2 11,-10 z"
   id="path550"
   inkscape:connector-curvature="0"
   style="fill:#000000;stroke:none" />
         <path
   d="m 11496,13726 -3,-3 -5,-28 -8,-23 -15,-18 -18,-10 -22,-2 -21,-3 h -25 l -28,-5 -5,31 33,5 25,5 21,-3 12,3 8,5 5,8 8,12 5,28 -3,-2 z"
   id="path552"
   inkscape:connector-curvature="0"
   style="fill:#000000;stroke:none" />
         <path
   d="m 11491,13726 2,-3 v 0 h 3 l -3,-2 3,5 h -36 l 8,15 7,7 13,6 h 15 l 3,-3 -3,3 10,-8 v -13 l -7,-7 -13,-3 z"
   id="path554"
   inkscape:connector-curvature="0"
   style="fill:#000000;stroke:none" />
         <path
   d="m 11590,13662 -3,3 -96,61 15,25 96,-61 -2,3 2,-3 6,-10 v -10 l -11,-8 -10,3 z"
   id="path556"
   inkscape:connector-curvature="0"
   style="fill:#000000;stroke:none" />
         <path
   d="m 11663,13688 h 28 l -10,-11 -10,-5 -15,-2 -13,-3 -15,-2 -15,-3 -11,-2 -12,2 10,31 2,2 11,-2 10,2 15,3 13,2 10,3 5,5 v -5 h 28 -28 l 10,5 10,-3 8,-7 -3,-10 z"
   id="path558"
   inkscape:connector-curvature="0"
   style="fill:#000000;stroke:none" />
         <path
   d="m 11486,13797 h 61 l 45,-54 51,-7 -2602,3961 -3,3 -7,10 -11,15 -15,18 -18,18 -20,17 -20,16 -21,12 -17,5 -18,6 -20,2 -18,3 -18,2 h -13 -10 -2 z"
   id="path560"
   inkscape:connector-curvature="0"
   style="fill:#666666;stroke:none" />
         <path
   d="m 11486,13797 h 61 l 45,-54 51,-7 -2602,3961 v 0 l -3,3 -7,10 -11,15 -15,18 -18,18 -20,17 -20,16 -21,12 v 0 l -17,5 -18,6 -20,2 -18,3 -18,2 h -13 -10 -2 z"
   id="path562"
   inkscape:connector-curvature="0"
   style="fill:none;stroke:#666666" />
         <path
   d="m 9521,17064 -43,-48 -41,-48 -40,-48 -39,-51 -38,-54 -33,-55 -30,-64 -26,-71 -287,434 43,46 49,41 51,38 53,35 53,33 56,34 51,33 48,33 z"
   id="path564"
   inkscape:connector-curvature="0"
   style="fill:#000000;stroke:none" />
         <path
   d="m 11264,11609 h -742 l -371,1065 h 115 z"
   id="path566"
   inkscape:connector-curvature="0"
   style="fill:#000000;stroke:none" />
        </g>
       </g>
      </g>
     </g>
    </g>
   </g>
  </g>
 </g>
</svg>