<?xml version="1.0" encoding="UTF-8" standalone="no"?>
<svg
   xmlns:ooo="http://xml.openoffice.org/svg/export"
   xmlns:dc="http://purl.org/dc/elements/1.1/"
   xmlns:cc="http://creativecommons.org/ns#"
   xmlns:rdf="http://www.w3.org/1999/02/22-rdf-syntax-ns#"
   xmlns:svg="http://www.w3.org/2000/svg"
   xmlns="http://www.w3.org/2000/svg"
   xmlns:sodipodi="http://sodipodi.sourceforge.net/DTD/sodipodi-0.dtd"
   xmlns:inkscape="http://www.inkscape.org/namespaces/inkscape"
   version="1.2"
   width="46.130001mm"
   height="64.409996mm"
   viewBox="0 0 4613.0001 6440.9996"
   preserveAspectRatio="xMidYMid"
   xml:space="preserve"
   id="svg581"
   sodipodi:docname="o4.svg"
   style="fill-rule:evenodd;stroke-width:28.22200012;stroke-linejoin:round"
   inkscape:version="0.92.5 (2060ec1f9f, 2020-04-08)"><metadata
   id="metadata585"><rdf:RDF><cc:Work
       rdf:about=""><dc:format>image/svg+xml</dc:format><dc:type
         rdf:resource="http://purl.org/dc/dcmitype/StillImage" /></cc:Work></rdf:RDF></metadata><sodipodi:namedview
   pagecolor="#ffffff"
   bordercolor="#666666"
   borderopacity="1"
   objecttolerance="10"
   gridtolerance="10"
   guidetolerance="10"
   inkscape:pageopacity="0"
   inkscape:pageshadow="2"
   inkscape:window-width="664"
   inkscape:window-height="487"
   id="namedview583"
   showgrid="false"
   inkscape:zoom="0.2102413"
   inkscape:cx="87.193702"
   inkscape:cy="121.70079"
   inkscape:window-x="0"
   inkscape:window-y="0"
   inkscape:window-maximized="0"
   inkscape:current-layer="svg581" />
 <defs
   class="ClipPathGroup"
   id="defs8">
  <clipPath
   id="presentation_clip_path"
   clipPathUnits="userSpaceOnUse">
   <rect
   x="0"
   y="0"
   width="21000"
   height="29700"
   id="rect2" />
  </clipPath>
  <clipPath
   id="presentation_clip_path_shrink"
   clipPathUnits="userSpaceOnUse">
   <rect
   x="21"
   y="29"
   width="20958"
   height="29641"
   id="rect5" />
  </clipPath>
 </defs>
 <defs
   class="TextShapeIndex"
   id="defs12">
  <g
   ooo:slide="id1"
   ooo:id-list="id3"
   id="g10" />
 </defs>
 <defs
   class="EmbeddedBulletChars"
   id="defs44">
  <g
   id="bullet-char-template-57356"
   transform="matrix(4.8828125e-4,0,0,-4.8828125e-4,0,0)">
   <path
   d="M 580,1141 1163,571 580,0 -4,571 Z"
   id="path14"
   inkscape:connector-curvature="0" />
  </g>
  <g
   id="bullet-char-template-57354"
   transform="matrix(4.8828125e-4,0,0,-4.8828125e-4,0,0)">
   <path
   d="M 8,1128 H 1137 V 0 H 8 Z"
   id="path17"
   inkscape:connector-curvature="0" />
  </g>
  <g
   id="bullet-char-template-10146"
   transform="matrix(4.8828125e-4,0,0,-4.8828125e-4,0,0)">
   <path
   d="M 174,0 602,739 174,1481 1456,739 Z M 1358,739 309,1346 659,739 Z"
   id="path20"
   inkscape:connector-curvature="0" />
  </g>
  <g
   id="bullet-char-template-10132"
   transform="matrix(4.8828125e-4,0,0,-4.8828125e-4,0,0)">
   <path
   d="M 2015,739 1276,0 H 717 l 543,543 H 174 v 393 h 1086 l -543,545 h 557 z"
   id="path23"
   inkscape:connector-curvature="0" />
  </g>
  <g
   id="bullet-char-template-10007"
   transform="matrix(4.8828125e-4,0,0,-4.8828125e-4,0,0)">
   <path
   d="m 0,-2 c -7,16 -16,29 -25,39 l 381,530 c -94,256 -141,385 -141,387 0,25 13,38 40,38 9,0 21,-2 34,-5 21,4 42,12 65,25 l 27,-13 111,-251 280,301 64,-25 24,25 c 21,-10 41,-24 62,-43 C 886,937 835,863 770,784 769,783 710,716 594,584 L 774,223 c 0,-27 -21,-55 -63,-84 l 16,-20 C 717,90 699,76 672,76 641,76 570,178 457,381 L 164,-76 c -22,-34 -53,-51 -92,-51 -42,0 -63,17 -64,51 -7,9 -10,24 -10,44 0,9 1,19 2,30 z"
   id="path26"
   inkscape:connector-curvature="0" />
  </g>
  <g
   id="bullet-char-template-10004"
   transform="matrix(4.8828125e-4,0,0,-4.8828125e-4,0,0)">
   <path
   d="M 285,-33 C 182,-33 111,30 74,156 52,228 41,333 41,471 c 0,78 14,145 41,201 34,71 87,106 158,106 53,0 88,-31 106,-94 l 23,-176 c 8,-64 28,-97 59,-98 l 735,706 c 11,11 33,17 66,17 42,0 63,-15 63,-46 V 965 c 0,-36 -10,-64 -30,-84 L 442,47 C 390,-6 338,-33 285,-33 Z"
   id="path29"
   inkscape:connector-curvature="0" />
  </g>
  <g
   id="bullet-char-template-9679"
   transform="matrix(4.8828125e-4,0,0,-4.8828125e-4,0,0)">
   <path
   d="M 813,0 C 632,0 489,54 383,161 276,268 223,411 223,592 c 0,181 53,324 160,431 106,107 249,161 430,161 179,0 323,-54 432,-161 108,-107 162,-251 162,-431 0,-180 -54,-324 -162,-431 C 1136,54 992,0 813,0 Z"
   id="path32"
   inkscape:connector-curvature="0" />
  </g>
  <g
   id="bullet-char-template-8226"
   transform="matrix(4.8828125e-4,0,0,-4.8828125e-4,0,0)">
   <path
   d="m 346,457 c -73,0 -137,26 -191,78 -54,51 -81,114 -81,188 0,73 27,136 81,188 54,52 118,78 191,78 73,0 134,-26 185,-79 51,-51 77,-114 77,-187 0,-75 -25,-137 -76,-188 -50,-52 -112,-78 -186,-78 z"
   id="path35"
   inkscape:connector-curvature="0" />
  </g>
  <g
   id="bullet-char-template-8211"
   transform="matrix(4.8828125e-4,0,0,-4.8828125e-4,0,0)">
   <path
   d="M -4,459 H 1135 V 606 H -4 Z"
   id="path38"
   inkscape:connector-curvature="0" />
  </g>
  <g
   id="bullet-char-template-61548"
   transform="matrix(4.8828125e-4,0,0,-4.8828125e-4,0,0)">
   <path
   d="m 173,740 c 0,163 58,303 173,419 116,115 255,173 419,173 163,0 302,-58 418,-173 116,-116 174,-256 174,-419 0,-163 -58,-303 -174,-418 C 1067,206 928,148 765,148 601,148 462,206 346,322 231,437 173,577 173,740 Z"
   id="path41"
   inkscape:connector-curvature="0" />
  </g>
 </defs>
 <g
   id="g49"
   transform="translate(-8193,-11629)">
  <g
   id="id2"
   class="Master_Slide">
   <g
   id="bg-id2"
   class="Background" />
   <g
   id="bo-id2"
   class="BackgroundObjects" />
  </g>
 </g>
 <g
   class="SlideGroup"
   id="g579"
   transform="translate(-8193,-11629)">
  <g
   id="g577">
   <g
   id="container-id1">
    <g
   id="id1"
   class="Slide"
   clip-path="url(#presentation_clip_path)">
     <g
   class="Page"
   id="g573">
      <g
   class="Graphic"
   id="g571">
       <g
   id="id3">
        <rect
   class="BoundingBox"
   x="8193"
   y="11629"
   width="4613"
   height="6441"
   id="rect51"
   style="fill:none;stroke:none" />
        <defs
   id="defs56">
         <clipPath
   id="clip_path_1"
   clipPathUnits="userSpaceOnUse">
          <path
   d="m 8193,11629 h 4612 v 6440 H 8193 Z"
   id="path53"
   inkscape:connector-curvature="0" />
         </clipPath>
        </defs>
        <g
   clip-path="url(#clip_path_1)"
   id="g568">
         <path
   d="m 8971,13095 -54,48 -56,49 -53,53 -56,53 -53,56 -54,56 -53,59 -51,61 -51,61 -48,60 -48,61 -43,64 -44,64 -40,63 -38,64 -36,63 114,109 112,107 112,109 114,110 112,109 112,109 112,109 112,110 109,109 112,109 112,112 109,109 112,112 109,109 109,112 112,112 109,112 110,111 109,112 109,112 110,112 109,112 107,111 109,115 109,112 110,111 106,115 110,111 106,115 110,114 109,112 107,114 23,26 20,28 23,28 20,27 20,31 21,28 23,28 20,28 61,-41 63,-40 64,-46 66,-48 64,-51 63,-51 64,-56 61,-56 61,-56 58,-58 56,-61 53,-61 54,-64 46,-61 45,-63 41,-64 -107,-127 -109,-127 -112,-129 -109,-127 -112,-125 -114,-127 -115,-127 -114,-125 -114,-124 -117,-125 -117,-124 -120,-125 -117,-122 -119,-121 -120,-122 -122,-122 -122,-122 -122,-120 -122,-119 -122,-117 -124,-119 -125,-117 -124,-117 -125,-115 -124,-116 -127,-112 -125,-115 -127,-111 -127,-112 -127,-109 -127,-110 z"
   id="path58"
   inkscape:connector-curvature="0"
   style="fill:#000000;stroke:none" />
         <path
   d="m 8203,14020 3,15 35,-61 38,-63 39,-64 43,-63 43,-64 48,-61 49,-61 50,-61 51,-61 54,-56 53,-56 53,-56 56,-53 54,-53 53,-49 53,-48 -15,-20 -53,48 -59,48 -53,54 -56,53 -53,56 -54,56 -53,61 -51,61 -51,61 -48,61 -48,61 -44,63 -43,64 -43,63 -38,64 -36,66 3,15 -3,-15 v 10 l 10,5 8,3 8,-8 z"
   id="path60"
   inkscape:connector-curvature="0"
   style="fill:#000000;stroke:none" />
         <path
   d="m 11726,17580 v -3 l -107,-114 -109,-112 -110,-114 -106,-115 -110,-112 -106,-114 -110,-112 -109,-111 -109,-115 -107,-112 -109,-111 -109,-112 -110,-112 -109,-112 -109,-112 -110,-111 -111,-112 -110,-112 -109,-109 -112,-112 -109,-109 -112,-112 -112,-109 -109,-110 -112,-109 -112,-109 -112,-109 -111,-110 -115,-109 -112,-109 -111,-107 -115,-109 -20,20 114,110 112,106 112,109 114,110 112,109 112,109 112,109 112,110 109,109 112,109 112,112 109,109 112,112 109,109 109,112 112,112 109,112 110,112 109,111 109,112 109,112 110,112 107,112 109,114 109,112 109,111 107,115 109,112 107,114 109,114 110,112 106,114 v -2 z"
   id="path62"
   inkscape:connector-curvature="0"
   style="fill:#000000;stroke:none" />
         <path
   d="m 11878,17798 18,5 -20,-28 -23,-28 -20,-28 -21,-30 -20,-28 -23,-28 -20,-28 -23,-25 -21,15 23,25 21,28 23,28 20,28 20,31 21,28 22,28 21,27 18,6 -18,-6 10,6 8,-3 5,-8 -3,-10 z"
   id="path64"
   inkscape:connector-curvature="0"
   style="fill:#000000;stroke:none" />
         <path
   d="m 12796,16942 -3,-15 -38,63 -46,64 -45,61 -54,63 -53,61 -56,59 -58,58 -61,56 -59,56 -63,56 -64,51 -64,50 -66,49 -63,45 -64,38 -61,41 16,26 61,-41 63,-43 64,-46 66,-48 63,-51 64,-51 63,-56 64,-56 61,-56 58,-58 56,-64 54,-61 53,-63 46,-61 46,-64 43,-63 -3,-15 3,15 2,-10 -7,-10 h -11 l -10,5 z"
   id="path66"
   inkscape:connector-curvature="0"
   style="fill:#000000;stroke:none" />
         <path
   d="m 8978,13105 h -15 l 127,109 127,110 127,109 127,112 125,112 125,114 127,112 124,117 125,114 124,117 125,117 124,119 122,117 122,119 122,120 122,122 122,122 120,122 119,122 117,122 120,124 116,125 117,124 115,125 114,124 114,127 115,127 112,122 109,127 112,130 109,127 107,127 20,-15 -107,-127 -109,-127 -112,-130 -109,-127 -112,-127 -114,-127 -115,-127 -114,-125 -114,-124 -117,-125 -117,-124 -120,-125 -117,-122 -119,-122 -119,-122 -122,-122 -122,-122 -122,-119 -122,-119 -122,-117 -125,-120 -124,-117 -125,-116 -125,-115 -124,-117 -127,-111 -125,-115 -129,-112 -127,-111 -127,-110 -128,-109 -127,-109 h -15 z"
   id="path68"
   inkscape:connector-curvature="0"
   style="fill:#000000;stroke:none" />
         <path
   d="m 8244,14010 119,112 117,109 120,112 117,114 116,112 117,112 120,114 117,114 117,112 114,114 117,117 117,115 114,114 117,117 115,117 114,114 114,117 115,117 114,119 112,117 114,119 112,117 112,120 112,119 112,120 109,119 109,122 112,119 107,122 109,120 109,122 107,122 58,-38 59,-41 58,-41 59,-45 58,-46 59,-48 56,-49 58,-51 54,-53 55,-53 51,-54 51,-56 48,-55 46,-56 43,-59 41,-56 -109,-124 -107,-127 -112,-125 -109,-124 -112,-125 -114,-122 -112,-124 -115,-122 -114,-122 -117,-122 -114,-122 -117,-119 -117,-122 -119,-120 -120,-119 -117,-120 -119,-117 -122,-119 -120,-117 -122,-117 -119,-117 -122,-116 -122,-115 -122,-114 -122,-114 -125,-115 -122,-114 -124,-112 -122,-112 -125,-112 -122,-111 -124,-110 -51,44 -51,45 -51,49 -51,48 -51,51 -50,53 -49,53 -48,56 -46,56 -45,56 -44,59 -43,58 -38,58 -38,59 -33,58 z"
   id="path70"
   inkscape:connector-curvature="0"
   style="fill:#e2e2e2;stroke:none" />
         <path
   d="m 8780,13560 48,28 -12,13 -21,17 -23,23 -25,23 -20,26 -16,22 -7,16 7,12 -53,-48 8,8 12,-5 18,-10 21,-16 20,-20 18,-18 15,-15 8,-8 5,-5 7,-10 5,-10 v -8 l -15,-7 v 0 l -2,-5 v -3 z"
   id="path72"
   inkscape:connector-curvature="0"
   style="fill:#494949;stroke:none" />
         <path
   d="m 8780,13560 48,28 v 0 l -12,13 -21,17 -23,23 -25,23 -20,26 -16,22 -7,16 7,12 -53,-48 v 0 l 8,8 12,-5 18,-10 21,-16 20,-20 18,-18 15,-15 8,-8 v 0 l 5,-5 7,-10 5,-10 v -8 l -15,-7 v 0 0 l -2,-5 v -3 z"
   id="path74"
   inkscape:connector-curvature="0"
   style="fill:none;stroke:#494949" />
         <path
   d="m 9459,14195 40,-5 36,31 -3,7 -10,16 -15,22 -18,23 -20,23 -20,20 -21,13 -18,5 -55,-46 5,-10 17,16 21,22 18,8 17,-10 10,-10 8,-16 3,-20 -3,-7 -2,-6 -6,-5 -5,-7 5,-10 11,2 h 15 18 17 l 13,-5 8,-8 -3,-12 -18,-18 -45,-8 z"
   id="path76"
   inkscape:connector-curvature="0"
   style="fill:#494949;stroke:none" />
         <path
   d="m 9459,14195 40,-5 36,31 v 0 l -3,7 -10,16 -15,22 -18,23 -20,23 -20,20 -21,13 -18,5 -55,-46 v 0 l 5,-10 17,16 21,22 18,8 v 0 l 17,-10 10,-10 8,-16 3,-20 v 0 l -3,-7 -2,-6 -6,-5 -5,-7 5,-10 v 0 l 11,2 h 15 18 17 l 13,-5 8,-8 -3,-12 -18,-18 -45,-8 z"
   id="path78"
   inkscape:connector-curvature="0"
   style="fill:none;stroke:#494949" />
         <path
   d="m 9799,14640 -33,30 -15,-17 30,-31 -53,-56 13,-15 152,-28 10,10 -86,94 8,10 -3,11 -13,5 z"
   id="path80"
   inkscape:connector-curvature="0"
   style="fill:#494949;stroke:none" />
         <path
   d="m 9799,14640 -33,30 -15,-17 30,-31 -53,-56 13,-15 152,-28 10,10 -86,94 v 0 l 8,10 -3,11 -13,5 z"
   id="path82"
   inkscape:connector-curvature="0"
   style="fill:none;stroke:#494949" />
         <path
   d="m 9797,14607 68,-69 -114,23 z"
   id="path84"
   inkscape:connector-curvature="0"
   style="fill:#e2e2e2;stroke:none" />
         <path
   d="m 9797,14607 68,-69 -114,23 z"
   id="path86"
   inkscape:connector-curvature="0"
   style="fill:none;stroke:#e2e2e2" />
         <path
   d="m 10216,14851 -23,10 -40,-36 -26,11 8,17 7,23 5,23 -5,20 -48,41 h -25 l -56,-48 v -5 l 7,-3 h 5 8 l 13,38 28,8 43,-31 5,-33 -28,-50 76,-28 z"
   id="path88"
   inkscape:connector-curvature="0"
   style="fill:#494949;stroke:none" />
         <path
   d="m 10216,14851 -23,10 -40,-36 -26,11 v 0 l 8,17 7,23 5,23 -5,20 -48,41 h -25 l -56,-48 v 0 -5 l 7,-3 h 5 8 l 13,38 28,8 43,-31 5,-33 -28,-50 76,-28 z"
   id="path90"
   inkscape:connector-curvature="0"
   style="fill:none;stroke:#494949" />
         <path
   d="m 10785,15410 79,79 -185,91 -16,-13 171,-78 -8,-8 -8,-10 -12,-10 -13,-11 -13,-7 -12,-5 -13,-3 -10,3 z"
   id="path92"
   inkscape:connector-curvature="0"
   style="fill:#494949;stroke:none" />
         <path
   d="m 10785,15410 79,79 -185,91 -16,-13 171,-78 v 0 l -8,-8 -8,-10 -12,-10 -13,-11 -13,-7 -12,-5 -13,-3 -10,3 z"
   id="path94"
   inkscape:connector-curvature="0"
   style="fill:none;stroke:#494949" />
         <path
   d="m 11052,15798 -7,-15 2,-18 5,-17 10,-16 11,-5 12,-5 h 13 l 13,5 35,38 v 23 l -5,10 -10,8 -10,10 h -38 l -3,26 -5,25 -13,20 -20,13 -13,-5 -12,-8 -16,-7 -12,-8 -10,-10 -8,-13 v -15 l 8,-15 z"
   id="path96"
   inkscape:connector-curvature="0"
   style="fill:#494949;stroke:none" />
         <path
   d="m 11052,15798 v 0 l -7,-15 2,-18 5,-17 10,-16 v 0 l 11,-5 12,-5 h 13 l 13,5 35,38 v 0 23 l -5,10 -10,8 -10,10 h -38 v 0 l -3,26 -5,25 -13,20 -20,13 v 0 l -13,-5 -12,-8 -16,-7 -12,-8 -10,-10 -8,-13 v -15 l 8,-15 z"
   id="path98"
   inkscape:connector-curvature="0"
   style="fill:none;stroke:#494949" />
         <path
   d="m 11075,15804 h 13 l 13,-6 12,-7 13,-10 3,-16 -18,-25 -8,-2 h -5 l -8,2 -2,3 -13,17 z"
   id="path100"
   inkscape:connector-curvature="0"
   style="fill:#e2e2e2;stroke:none" />
         <path
   d="m 11075,15804 v 0 h 13 l 13,-6 12,-7 13,-10 3,-16 -18,-25 v 0 l -8,-2 h -5 l -8,2 -2,3 -13,17 z"
   id="path102"
   inkscape:connector-curvature="0"
   style="fill:none;stroke:#e2e2e2" />
         <path
   d="m 10996,15862 23,20 h 10 l 23,-23 5,-25 -2,-15 -10,-8 h -13 l -15,5 -13,10 -8,16 z"
   id="path104"
   inkscape:connector-curvature="0"
   style="fill:#e2e2e2;stroke:none" />
         <path
   d="m 10996,15862 23,20 h 10 l 23,-23 v 0 l 5,-25 -2,-15 -10,-8 h -13 l -15,5 -13,10 -8,16 z"
   id="path106"
   inkscape:connector-curvature="0"
   style="fill:none;stroke:#e2e2e2" />
         <path
   d="m 11251,16177 15,8 15,7 15,3 h 16 15 l 18,-3 15,-7 15,-8 -43,-18 -10,-10 -3,-13 -2,-12 2,-13 61,-48 15,5 18,7 15,11 13,12 v 18 l -5,15 -10,13 -10,13 -13,12 -13,11 -12,12 -13,13 -13,3 -15,5 h -15 -13 z"
   id="path108"
   inkscape:connector-curvature="0"
   style="fill:#494949;stroke:none" />
         <path
   d="m 11251,16177 v 0 l 15,8 15,7 15,3 h 16 15 l 18,-3 15,-7 15,-8 -43,-18 v 0 l -10,-10 -3,-13 -2,-12 2,-13 61,-48 v 0 l 15,5 18,7 15,11 13,12 v 0 18 l -5,15 -10,13 -10,13 -13,12 -13,11 -12,12 -13,13 v 0 l -13,3 -15,5 h -15 -13 z"
   id="path110"
   inkscape:connector-curvature="0"
   style="fill:none;stroke:#494949" />
         <path
   d="m 11385,16172 41,-56 -3,-18 -12,-15 -18,-8 -15,6 -36,43 -3,18 11,17 15,13 z"
   id="path112"
   inkscape:connector-curvature="0"
   style="fill:#e2e2e2;stroke:none" />
         <path
   d="m 11385,16172 41,-56 v 0 l -3,-18 -12,-15 -18,-8 -15,6 -36,43 v 0 l -3,18 11,17 15,13 z"
   id="path114"
   inkscape:connector-curvature="0"
   style="fill:none;stroke:#e2e2e2" />
         <path
   d="m 11644,16317 44,25 -16,13 -20,18 -20,18 -23,20 -20,20 -13,20 -8,21 5,18 -56,-49 18,3 18,-5 13,-8 15,-10 15,-13 13,-15 15,-15 15,-15 5,-6 8,-7 5,-8 3,-5 z"
   id="path116"
   inkscape:connector-curvature="0"
   style="fill:#494949;stroke:none" />
         <path
   d="m 11644,16317 44,25 v 0 l -16,13 -20,18 -20,18 -23,20 -20,20 -13,20 -8,21 5,18 -56,-49 v 0 l 18,3 18,-5 13,-8 15,-10 15,-13 13,-15 15,-15 15,-15 v 0 l 5,-6 8,-7 5,-8 3,-5 z"
   id="path118"
   inkscape:connector-curvature="0"
   style="fill:none;stroke:#494949" />
         <path
   d="m 11678,16586 -16,-5 -28,-38 56,-97 61,3 36,13 18,17 -3,26 -18,25 -28,23 -38,20 z"
   id="path120"
   inkscape:connector-curvature="0"
   style="fill:#494949;stroke:none" />
         <path
   d="m 11678,16586 -16,-5 -28,-38 56,-97 v 0 l 61,3 36,13 18,17 -3,26 -18,25 -28,23 -38,20 z"
   id="path122"
   inkscape:connector-curvature="0"
   style="fill:none;stroke:#494949" />
         <path
   d="m 11759,16436 -56,28 -33,36 -18,33 v 25 l 15,15 28,-5 38,-30 46,-61 3,-13 -3,-15 -7,-10 z"
   id="path124"
   inkscape:connector-curvature="0"
   style="fill:#e2e2e2;stroke:none" />
         <path
   d="m 11759,16436 v 0 l -56,28 -33,36 -18,33 v 25 l 15,15 28,-5 38,-30 46,-61 v 0 l 3,-13 -3,-15 -7,-10 z"
   id="path126"
   inkscape:connector-curvature="0"
   style="fill:none;stroke:#e2e2e2" />
         <path
   d="m 12260,16952 48,23 -127,135 -3,7 3,5 5,8 5,2 -53,-50 15,7 18,-5 17,-10 21,-20 20,-21 18,-20 15,-20 13,-13 -3,-8 -5,-7 -7,-5 z"
   id="path128"
   inkscape:connector-curvature="0"
   style="fill:#494949;stroke:none" />
         <path
   d="m 12260,16952 48,23 -127,135 v 0 l -3,7 3,5 5,8 5,2 -53,-50 v 0 l 15,7 18,-5 17,-10 21,-20 20,-21 18,-20 15,-20 13,-13 v 0 l -3,-8 -5,-7 -7,-5 z"
   id="path130"
   inkscape:connector-curvature="0"
   style="fill:none;stroke:#494949" />
         <path
   d="m 11967,17587 v 0 l -104,-117 -107,-119 -104,-117 -107,-119 -106,-117 -107,-120 -107,-117 -109,-116 -107,-117 -109,-117 -109,-117 -110,-117 -112,-117 -109,-114 -112,-117 -112,-114 -111,-115 -112,-114 -112,-114 -114,-112 -115,-112 -114,-112 -115,-112 -114,-111 -114,-110 -117,-109 -115,-109 -116,-109 -117,-107 -117,-107 -120,-107 -117,-104"
   id="path132"
   inkscape:connector-curvature="0"
   style="fill:none;stroke:#000000" />
         <path
   d="m 11881,17608 170,-191"
   id="path134"
   inkscape:connector-curvature="0"
   style="fill:none;stroke:#000000" />
         <path
   d="m 11825,17549 119,-142"
   id="path136"
   inkscape:connector-curvature="0"
   style="fill:none;stroke:#000000" />
         <path
   d="m 11787,17470 122,-147"
   id="path138"
   inkscape:connector-curvature="0"
   style="fill:none;stroke:#000000" />
         <path
   d="m 11721,17412 119,-145"
   id="path140"
   inkscape:connector-curvature="0"
   style="fill:none;stroke:#000000" />
         <path
   d="m 11644,17356 125,-147"
   id="path142"
   inkscape:connector-curvature="0"
   style="fill:none;stroke:#000000" />
         <path
   d="m 11566,17305 170,-190"
   id="path144"
   inkscape:connector-curvature="0"
   style="fill:none;stroke:#000000" />
         <path
   d="m 11512,17224 176,-191"
   id="path146"
   inkscape:connector-curvature="0"
   style="fill:none;stroke:#000000" />
         <path
   d="m 11464,17160 125,-144"
   id="path148"
   inkscape:connector-curvature="0"
   style="fill:none;stroke:#000000" />
         <path
   d="m 11403,17092 119,-143"
   id="path150"
   inkscape:connector-curvature="0"
   style="fill:none;stroke:#000000" />
         <path
   d="m 11342,17038 122,-147"
   id="path152"
   inkscape:connector-curvature="0"
   style="fill:none;stroke:#000000" />
         <path
   d="m 11273,16980 120,-150"
   id="path154"
   inkscape:connector-curvature="0"
   style="fill:none;stroke:#000000" />
         <path
   d="m 11212,16906 173,-190"
   id="path156"
   inkscape:connector-curvature="0"
   style="fill:none;stroke:#000000" />
         <path
   d="m 11157,16828 121,-150"
   id="path158"
   inkscape:connector-curvature="0"
   style="fill:none;stroke:#000000" />
         <path
   d="m 11088,16777 124,-150"
   id="path160"
   inkscape:connector-curvature="0"
   style="fill:none;stroke:#000000" />
         <path
   d="m 11019,16721 120,-148"
   id="path162"
   inkscape:connector-curvature="0"
   style="fill:none;stroke:#000000" />
         <path
   d="m 10953,16637 122,-145"
   id="path164"
   inkscape:connector-curvature="0"
   style="fill:none;stroke:#000000" />
         <path
   d="m 10897,16553 168,-185"
   id="path166"
   inkscape:connector-curvature="0"
   style="fill:none;stroke:#000000" />
         <path
   d="m 10829,16479 124,-142"
   id="path168"
   inkscape:connector-curvature="0"
   style="fill:none;stroke:#000000" />
         <path
   d="m 10760,16429 122,-143"
   id="path170"
   inkscape:connector-curvature="0"
   style="fill:none;stroke:#000000" />
         <path
   d="m 10717,16363 122,-148"
   id="path172"
   inkscape:connector-curvature="0"
   style="fill:none;stroke:#000000" />
         <path
   d="m 10663,16309 122,-150"
   id="path174"
   inkscape:connector-curvature="0"
   style="fill:none;stroke:#000000" />
         <path
   d="m 10620,16220 135,-157"
   id="path176"
   inkscape:connector-curvature="0"
   style="fill:none;stroke:#000000" />
         <path
   d="m 10580,16159 122,-147"
   id="path178"
   inkscape:connector-curvature="0"
   style="fill:none;stroke:#000000" />
         <path
   d="m 10513,16111 122,-152"
   id="path180"
   inkscape:connector-curvature="0"
   style="fill:none;stroke:#000000" />
         <path
   d="m 10447,16040 127,-145"
   id="path182"
   inkscape:connector-curvature="0"
   style="fill:none;stroke:#000000" />
         <path
   d="m 10384,15979 124,-147"
   id="path184"
   inkscape:connector-curvature="0"
   style="fill:none;stroke:#000000" />
         <path
   d="m 10303,15926 172,-194"
   id="path186"
   inkscape:connector-curvature="0"
   style="fill:none;stroke:#000000" />
         <path
   d="m 10247,15854 122,-142"
   id="path188"
   inkscape:connector-curvature="0"
   style="fill:none;stroke:#000000" />
         <path
   d="m 10181,15798 119,-147"
   id="path190"
   inkscape:connector-curvature="0"
   style="fill:none;stroke:#000000" />
         <path
   d="m 10120,15738 119,-148"
   id="path192"
   inkscape:connector-curvature="0"
   style="fill:none;stroke:#000000" />
         <path
   d="m 10056,15674 125,-150"
   id="path194"
   inkscape:connector-curvature="0"
   style="fill:none;stroke:#000000" />
         <path
   d="m 9944,15552 120,-147"
   id="path196"
   inkscape:connector-curvature="0"
   style="fill:none;stroke:#000000" />
         <path
   d="m 9876,15489 124,-145"
   id="path198"
   inkscape:connector-curvature="0"
   style="fill:none;stroke:#000000" />
         <path
   d="m 9820,15415 122,-148"
   id="path200"
   inkscape:connector-curvature="0"
   style="fill:none;stroke:#000000" />
         <path
   d="m 9756,15356 125,-147"
   id="path202"
   inkscape:connector-curvature="0"
   style="fill:none;stroke:#000000" />
         <path
   d="m 9639,15247 127,-145"
   id="path204"
   inkscape:connector-curvature="0"
   style="fill:none;stroke:#000000" />
         <path
   d="m 9573,15186 127,-147"
   id="path206"
   inkscape:connector-curvature="0"
   style="fill:none;stroke:#000000" />
         <path
   d="m 9477,15120 124,-147"
   id="path208"
   inkscape:connector-curvature="0"
   style="fill:none;stroke:#000000" />
         <path
   d="m 9421,15039 127,-150"
   id="path210"
   inkscape:connector-curvature="0"
   style="fill:none;stroke:#000000" />
         <path
   d="m 9344,14998 171,-196"
   id="path212"
   inkscape:connector-curvature="0"
   style="fill:none;stroke:#000000" />
         <path
   d="m 9301,14932 115,-147"
   id="path214"
   inkscape:connector-curvature="0"
   style="fill:none;stroke:#000000" />
         <path
   d="m 9233,14876 116,-150"
   id="path216"
   inkscape:connector-curvature="0"
   style="fill:none;stroke:#000000" />
         <path
   d="m 9172,14808 122,-150"
   id="path218"
   inkscape:connector-curvature="0"
   style="fill:none;stroke:#000000" />
         <path
   d="m 9113,14742 120,-148"
   id="path220"
   inkscape:connector-curvature="0"
   style="fill:none;stroke:#000000" />
         <path
   d="m 9037,14686 170,-191"
   id="path222"
   inkscape:connector-curvature="0"
   style="fill:none;stroke:#000000" />
         <path
   d="m 8991,14607 122,-148"
   id="path224"
   inkscape:connector-curvature="0"
   style="fill:none;stroke:#000000" />
         <path
   d="m 8920,14543 122,-147"
   id="path226"
   inkscape:connector-curvature="0"
   style="fill:none;stroke:#000000" />
         <path
   d="m 8851,14472 120,-147"
   id="path228"
   inkscape:connector-curvature="0"
   style="fill:none;stroke:#000000" />
         <path
   d="m 8806,14404 119,-150"
   id="path230"
   inkscape:connector-curvature="0"
   style="fill:none;stroke:#000000" />
         <path
   d="m 8724,14353 170,-191"
   id="path232"
   inkscape:connector-curvature="0"
   style="fill:none;stroke:#000000" />
         <path
   d="m 8686,14269 125,-147"
   id="path234"
   inkscape:connector-curvature="0"
   style="fill:none;stroke:#000000" />
         <path
   d="m 8620,14213 125,-142"
   id="path236"
   inkscape:connector-curvature="0"
   style="fill:none;stroke:#000000" />
         <path
   d="m 8554,14155 122,-145"
   id="path238"
   inkscape:connector-curvature="0"
   style="fill:none;stroke:#000000" />
         <path
   d="m 8488,14091 122,-145"
   id="path240"
   inkscape:connector-curvature="0"
   style="fill:none;stroke:#000000" />
         <path
   d="m 8412,14040 165,-190"
   id="path242"
   inkscape:connector-curvature="0"
   style="fill:none;stroke:#000000" />
         <path
   d="m 8521,13977 -36,33"
   id="path244"
   inkscape:connector-curvature="0"
   style="fill:none;stroke:#000000" />
         <path
   d="m 8587,14040 -36,36"
   id="path246"
   inkscape:connector-curvature="0"
   style="fill:none;stroke:#000000" />
         <path
   d="m 8653,14101 -38,38"
   id="path248"
   inkscape:connector-curvature="0"
   style="fill:none;stroke:#000000" />
         <path
   d="m 8717,14167 -41,36"
   id="path250"
   inkscape:connector-curvature="0"
   style="fill:none;stroke:#000000" />
         <path
   d="m 8780,14231 -41,38"
   id="path252"
   inkscape:connector-curvature="0"
   style="fill:none;stroke:#000000" />
         <path
   d="m 8846,14297 -40,38"
   id="path254"
   inkscape:connector-curvature="0"
   style="fill:none;stroke:#000000" />
         <path
   d="m 8912,14363 -40,38"
   id="path256"
   inkscape:connector-curvature="0"
   style="fill:none;stroke:#000000" />
         <path
   d="m 8976,14424 -41,35"
   id="path258"
   inkscape:connector-curvature="0"
   style="fill:none;stroke:#000000" />
         <path
   d="m 9042,14485 -43,38"
   id="path260"
   inkscape:connector-curvature="0"
   style="fill:none;stroke:#000000" />
         <path
   d="m 9121,14538 -38,38"
   id="path262"
   inkscape:connector-curvature="0"
   style="fill:none;stroke:#000000" />
         <path
   d="m 9187,14599 -46,36"
   id="path264"
   inkscape:connector-curvature="0"
   style="fill:none;stroke:#000000" />
         <path
   d="m 9250,14663 -43,38"
   id="path266"
   inkscape:connector-curvature="0"
   style="fill:none;stroke:#000000" />
         <path
   d="m 9316,14726 -43,38"
   id="path268"
   inkscape:connector-curvature="0"
   style="fill:none;stroke:#000000" />
         <path
   d="m 9375,14792 -36,38"
   id="path270"
   inkscape:connector-curvature="0"
   style="fill:none;stroke:#000000" />
         <path
   d="m 9426,14846 -44,35"
   id="path272"
   inkscape:connector-curvature="0"
   style="fill:none;stroke:#000000" />
         <path
   d="m 9487,14907 -38,35"
   id="path274"
   inkscape:connector-curvature="0"
   style="fill:none;stroke:#000000" />
         <path
   d="m 9553,14968 -38,38"
   id="path276"
   inkscape:connector-curvature="0"
   style="fill:none;stroke:#000000" />
         <path
   d="m 9634,15054 -43,33"
   id="path278"
   inkscape:connector-curvature="0"
   style="fill:none;stroke:#000000" />
         <path
   d="m 9695,15118 -38,30"
   id="path280"
   inkscape:connector-curvature="0"
   style="fill:none;stroke:#000000" />
         <path
   d="m 9761,15179 -38,35"
   id="path282"
   inkscape:connector-curvature="0"
   style="fill:none;stroke:#000000" />
         <path
   d="m 9809,15229 -35,38"
   id="path284"
   inkscape:connector-curvature="0"
   style="fill:none;stroke:#000000" />
         <path
   d="m 9870,15288 -38,38"
   id="path286"
   inkscape:connector-curvature="0"
   style="fill:none;stroke:#000000" />
         <path
   d="m 9937,15354 -44,35"
   id="path288"
   inkscape:connector-curvature="0"
   style="fill:none;stroke:#000000" />
         <path
   d="m 10003,15417 -39,38"
   id="path290"
   inkscape:connector-curvature="0"
   style="fill:none;stroke:#000000" />
         <path
   d="m 10069,15483 -38,36"
   id="path292"
   inkscape:connector-curvature="0"
   style="fill:none;stroke:#000000" />
         <path
   d="m 10114,15529 -40,38"
   id="path294"
   inkscape:connector-curvature="0"
   style="fill:none;stroke:#000000" />
         <path
   d="m 10170,15590 -43,38"
   id="path296"
   inkscape:connector-curvature="0"
   style="fill:none;stroke:#000000" />
         <path
   d="m 10239,15659 -41,38"
   id="path298"
   inkscape:connector-curvature="0"
   style="fill:none;stroke:#000000" />
         <path
   d="m 10308,15722 -41,38"
   id="path300"
   inkscape:connector-curvature="0"
   style="fill:none;stroke:#000000" />
         <path
   d="m 10374,15793 -36,39"
   id="path302"
   inkscape:connector-curvature="0"
   style="fill:none;stroke:#000000" />
         <path
   d="m 10430,15849 -36,38"
   id="path304"
   inkscape:connector-curvature="0"
   style="fill:none;stroke:#000000" />
         <path
   d="m 10493,15915 -35,36"
   id="path306"
   inkscape:connector-curvature="0"
   style="fill:none;stroke:#000000" />
         <path
   d="m 10564,15979 -43,35"
   id="path308"
   inkscape:connector-curvature="0"
   style="fill:none;stroke:#000000" />
         <path
   d="m 10630,16045 -43,36"
   id="path310"
   inkscape:connector-curvature="0"
   style="fill:none;stroke:#000000" />
         <path
   d="m 10674,16114 -39,35"
   id="path312"
   inkscape:connector-curvature="0"
   style="fill:none;stroke:#000000" />
         <path
   d="m 10730,16164 -41,36"
   id="path314"
   inkscape:connector-curvature="0"
   style="fill:none;stroke:#000000" />
         <path
   d="m 10785,16220 -40,36"
   id="path316"
   inkscape:connector-curvature="0"
   style="fill:none;stroke:#000000" />
         <path
   d="m 10844,16276 -43,38"
   id="path318"
   inkscape:connector-curvature="0"
   style="fill:none;stroke:#000000" />
         <path
   d="m 10902,16337 -40,36"
   id="path320"
   inkscape:connector-curvature="0"
   style="fill:none;stroke:#000000" />
         <path
   d="m 10958,16406 -38,30"
   id="path322"
   inkscape:connector-curvature="0"
   style="fill:none;stroke:#000000" />
         <path
   d="m 11024,16479 -38,39"
   id="path324"
   inkscape:connector-curvature="0"
   style="fill:none;stroke:#000000" />
         <path
   d="m 11096,16553 -39,36"
   id="path326"
   inkscape:connector-curvature="0"
   style="fill:none;stroke:#000000" />
         <path
   d="m 11167,16632 -44,38"
   id="path328"
   inkscape:connector-curvature="0"
   style="fill:none;stroke:#000000" />
         <path
   d="m 11218,16693 -36,38"
   id="path330"
   inkscape:connector-curvature="0"
   style="fill:none;stroke:#000000" />
         <path
   d="m 11284,16764 -39,33"
   id="path332"
   inkscape:connector-curvature="0"
   style="fill:none;stroke:#000000" />
         <path
   d="m 11347,16830 -43,38"
   id="path334"
   inkscape:connector-curvature="0"
   style="fill:none;stroke:#000000" />
         <path
   d="m 11408,16901 -38,38"
   id="path336"
   inkscape:connector-curvature="0"
   style="fill:none;stroke:#000000" />
         <path
   d="m 11464,16957 -41,38"
   id="path338"
   inkscape:connector-curvature="0"
   style="fill:none;stroke:#000000" />
         <path
   d="m 11522,17026 -38,38"
   id="path340"
   inkscape:connector-curvature="0"
   style="fill:none;stroke:#000000" />
         <path
   d="m 11578,17087 -40,38"
   id="path342"
   inkscape:connector-curvature="0"
   style="fill:none;stroke:#000000" />
         <path
   d="m 11639,17155 -40,38"
   id="path344"
   inkscape:connector-curvature="0"
   style="fill:none;stroke:#000000" />
         <path
   d="m 11700,17221 -40,36"
   id="path346"
   inkscape:connector-curvature="0"
   style="fill:none;stroke:#000000" />
         <path
   d="m 11759,17290 -38,33"
   id="path348"
   inkscape:connector-curvature="0"
   style="fill:none;stroke:#000000" />
         <path
   d="m 11820,17356 -41,38"
   id="path350"
   inkscape:connector-curvature="0"
   style="fill:none;stroke:#000000" />
         <path
   d="m 11881,17422 -41,33"
   id="path352"
   inkscape:connector-curvature="0"
   style="fill:none;stroke:#000000" />
         <path
   d="m 11937,17481 -41,35"
   id="path354"
   inkscape:connector-curvature="0"
   style="fill:none;stroke:#000000" />
         <path
   d="m 8996,13326 -173,191"
   id="path356"
   inkscape:connector-curvature="0"
   style="fill:none;stroke:#000000" />
         <path
   d="m 9047,13390 -127,145"
   id="path358"
   inkscape:connector-curvature="0"
   style="fill:none;stroke:#000000" />
         <path
   d="m 9113,13438 -122,145"
   id="path360"
   inkscape:connector-curvature="0"
   style="fill:none;stroke:#000000" />
         <path
   d="m 9187,13499 -127,142"
   id="path362"
   inkscape:connector-curvature="0"
   style="fill:none;stroke:#000000" />
         <path
   d="m 9255,13552 -119,145"
   id="path364"
   inkscape:connector-curvature="0"
   style="fill:none;stroke:#000000" />
         <path
   d="m 9334,13603 -168,191"
   id="path366"
   inkscape:connector-curvature="0"
   style="fill:none;stroke:#000000" />
         <path
   d="m 9377,13682 -165,191"
   id="path368"
   inkscape:connector-curvature="0"
   style="fill:none;stroke:#000000" />
         <path
   d="m 9431,13743 -115,147"
   id="path370"
   inkscape:connector-curvature="0"
   style="fill:none;stroke:#000000" />
         <path
   d="m 9502,13794 -127,150"
   id="path372"
   inkscape:connector-curvature="0"
   style="fill:none;stroke:#000000" />
         <path
   d="m 9568,13850 -119,147"
   id="path374"
   inkscape:connector-curvature="0"
   style="fill:none;stroke:#000000" />
         <path
   d="m 9644,13911 -124,142"
   id="path376"
   inkscape:connector-curvature="0"
   style="fill:none;stroke:#000000" />
         <path
   d="m 9723,13961 -170,189"
   id="path378"
   inkscape:connector-curvature="0"
   style="fill:none;stroke:#000000" />
         <path
   d="m 9774,14043 -122,147"
   id="path380"
   inkscape:connector-curvature="0"
   style="fill:none;stroke:#000000" />
         <path
   d="m 9842,14096 -124,145"
   id="path382"
   inkscape:connector-curvature="0"
   style="fill:none;stroke:#000000" />
         <path
   d="m 9914,14150 -122,147"
   id="path384"
   inkscape:connector-curvature="0"
   style="fill:none;stroke:#000000" />
         <path
   d="m 9987,14208 -127,145"
   id="path386"
   inkscape:connector-curvature="0"
   style="fill:none;stroke:#000000" />
         <path
   d="m 10064,14259 -171,190"
   id="path388"
   inkscape:connector-curvature="0"
   style="fill:none;stroke:#000000" />
         <path
   d="m 10109,14358 -117,147"
   id="path390"
   inkscape:connector-curvature="0"
   style="fill:none;stroke:#000000" />
         <path
   d="m 10181,14409 -125,147"
   id="path392"
   inkscape:connector-curvature="0"
   style="fill:none;stroke:#000000" />
         <path
   d="m 10247,14462 -120,150"
   id="path394"
   inkscape:connector-curvature="0"
   style="fill:none;stroke:#000000" />
         <path
   d="m 10323,14520 -125,145"
   id="path396"
   inkscape:connector-curvature="0"
   style="fill:none;stroke:#000000" />
         <path
   d="m 10402,14576 -173,188"
   id="path398"
   inkscape:connector-curvature="0"
   style="fill:none;stroke:#000000" />
         <path
   d="m 10407,14670 -122,148"
   id="path400"
   inkscape:connector-curvature="0"
   style="fill:none;stroke:#000000" />
         <path
   d="m 10475,14724 -124,142"
   id="path402"
   inkscape:connector-curvature="0"
   style="fill:none;stroke:#000000" />
         <path
   d="m 10536,14787 -124,150"
   id="path404"
   inkscape:connector-curvature="0"
   style="fill:none;stroke:#000000" />
         <path
   d="m 10602,14848 -122,150"
   id="path406"
   inkscape:connector-curvature="0"
   style="fill:none;stroke:#000000" />
         <path
   d="m 10699,14884 -173,195"
   id="path408"
   inkscape:connector-curvature="0"
   style="fill:none;stroke:#000000" />
         <path
   d="m 10735,14973 -120,147"
   id="path410"
   inkscape:connector-curvature="0"
   style="fill:none;stroke:#000000" />
         <path
   d="m 10806,15029 -122,150"
   id="path412"
   inkscape:connector-curvature="0"
   style="fill:none;stroke:#000000" />
         <path
   d="m 10864,15087 -119,153"
   id="path414"
   inkscape:connector-curvature="0"
   style="fill:none;stroke:#000000" />
         <path
   d="m 10930,15153 -119,147"
   id="path416"
   inkscape:connector-curvature="0"
   style="fill:none;stroke:#000000" />
         <path
   d="m 11009,15206 -165,194"
   id="path418"
   inkscape:connector-curvature="0"
   style="fill:none;stroke:#000000" />
         <path
   d="m 11052,15283 -124,150"
   id="path420"
   inkscape:connector-curvature="0"
   style="fill:none;stroke:#000000" />
         <path
   d="m 11121,15344 -125,150"
   id="path422"
   inkscape:connector-curvature="0"
   style="fill:none;stroke:#000000" />
         <path
   d="m 11182,15405 -125,147"
   id="path424"
   inkscape:connector-curvature="0"
   style="fill:none;stroke:#000000" />
         <path
   d="m 11245,15466 -129,147"
   id="path426"
   inkscape:connector-curvature="0"
   style="fill:none;stroke:#000000" />
         <path
   d="m 11314,15514 -168,193"
   id="path428"
   inkscape:connector-curvature="0"
   style="fill:none;stroke:#000000" />
         <path
   d="m 11365,15603 -120,145"
   id="path430"
   inkscape:connector-curvature="0"
   style="fill:none;stroke:#000000" />
         <path
   d="m 11431,15664 -122,147"
   id="path432"
   inkscape:connector-curvature="0"
   style="fill:none;stroke:#000000" />
         <path
   d="m 11497,15738 -122,144"
   id="path434"
   inkscape:connector-curvature="0"
   style="fill:none;stroke:#000000" />
         <path
   d="m 11566,15793 -120,148"
   id="path436"
   inkscape:connector-curvature="0"
   style="fill:none;stroke:#000000" />
         <path
   d="m 11634,15844 -170,196"
   id="path438"
   inkscape:connector-curvature="0"
   style="fill:none;stroke:#000000" />
         <path
   d="m 11662,15928 -119,147"
   id="path440"
   inkscape:connector-curvature="0"
   style="fill:none;stroke:#000000" />
         <path
   d="m 11731,15989 -120,145"
   id="path442"
   inkscape:connector-curvature="0"
   style="fill:none;stroke:#000000" />
         <path
   d="m 11792,16053 -120,147"
   id="path444"
   inkscape:connector-curvature="0"
   style="fill:none;stroke:#000000" />
         <path
   d="m 11853,16124 -122,147"
   id="path446"
   inkscape:connector-curvature="0"
   style="fill:none;stroke:#000000" />
         <path
   d="m 11929,16172 -175,196"
   id="path448"
   inkscape:connector-curvature="0"
   style="fill:none;stroke:#000000" />
         <path
   d="m 11972,16253 -119,148"
   id="path450"
   inkscape:connector-curvature="0"
   style="fill:none;stroke:#000000" />
         <path
   d="m 12044,16317 -120,145"
   id="path452"
   inkscape:connector-curvature="0"
   style="fill:none;stroke:#000000" />
         <path
   d="m 12117,16391 -127,139"
   id="path454"
   inkscape:connector-curvature="0"
   style="fill:none;stroke:#000000" />
         <path
   d="m 12160,16451 -122,148"
   id="path456"
   inkscape:connector-curvature="0"
   style="fill:none;stroke:#000000" />
         <path
   d="m 12242,16507 -171,191"
   id="path458"
   inkscape:connector-curvature="0"
   style="fill:none;stroke:#000000" />
         <path
   d="m 12280,16589 -125,145"
   id="path460"
   inkscape:connector-curvature="0"
   style="fill:none;stroke:#000000" />
         <path
   d="m 12346,16642 -127,147"
   id="path462"
   inkscape:connector-curvature="0"
   style="fill:none;stroke:#000000" />
         <path
   d="m 12410,16703 -120,147"
   id="path464"
   inkscape:connector-curvature="0"
   style="fill:none;stroke:#000000" />
         <path
   d="m 9126,14068 h -13 l -13,-5 -12,-5 -11,-10 -10,-10 -10,-8 -7,-10 -8,-10 h 18 20 18 l 18,-3 20,-2 18,-3 15,-7 18,-11 15,-38 -15,-35 -36,-16 -48,13 15,-2 15,2 13,3 15,7 13,33 -13,18 -15,13 -20,10 -23,5 -26,3 -25,2 h -23 -20 l 76,84 z"
   id="path466"
   inkscape:connector-curvature="0"
   style="fill:#666666;stroke:none" />
         <path
   d="m 9126,14068 v 0 h -13 l -13,-5 -12,-5 -11,-10 -10,-10 -10,-8 -7,-10 -8,-10 v 0 h 18 20 18 l 18,-3 20,-2 18,-3 15,-7 18,-11 15,-38 -15,-35 -36,-16 -48,13 v 0 l 15,-2 15,2 13,3 15,7 13,33 v 0 l -13,18 -15,13 -20,10 -23,5 -26,3 -25,2 h -23 -20 l 76,84 z"
   id="path468"
   inkscape:connector-curvature="0"
   style="fill:none;stroke:#666666" />
         <path
   d="m 12341,17224 -43,20 -79,-79 15,-5 15,-5 16,-2 h 15 l 15,-3 15,3 h 18 l 15,2 44,-30 2,-15 -48,-41 -15,8 -3,-6 13,-12 28,-5 35,33 16,25 v 23 l -18,15 -26,13 -35,8 -38,2 -38,-2 12,15 13,12 15,13 15,10 6,3 h 10 7 z"
   id="path470"
   inkscape:connector-curvature="0"
   style="fill:#494949;stroke:none" />
         <path
   d="m 12341,17224 -43,20 -79,-79 v 0 l 15,-5 15,-5 16,-2 h 15 l 15,-3 15,3 h 18 l 15,2 44,-30 2,-15 -48,-41 v 0 l -15,8 -3,-6 13,-12 28,-5 v 0 l 35,33 16,25 v 23 l -18,15 -26,13 -35,8 -38,2 -38,-2 v 0 l 12,15 13,12 15,13 15,10 v 0 l 6,3 h 10 7 z"
   id="path472"
   inkscape:connector-curvature="0"
   style="fill:none;stroke:#494949" />
         <path
   d="m 8935,13321 v 0 l 117,107 117,109 117,109 119,110 117,109 115,109 117,109 116,112 117,109 115,112 117,112 114,112 117,112 114,111 115,115 114,112 112,114 114,114 112,115 114,114 112,114 112,115 112,117 109,114 112,117 109,117 110,116 109,117 109,117 107,117 107,117 106,119"
   id="path474"
   inkscape:connector-curvature="0"
   style="fill:none;stroke:#191919" />
         <path
   d="m 12473,16769 -119,145"
   id="path476"
   inkscape:connector-curvature="0"
   style="fill:none;stroke:#000000" />
         <path
   d="m 12552,16817 -168,193"
   id="path478"
   inkscape:connector-curvature="0"
   style="fill:none;stroke:#000000" />
         <path
   d="m 10430,15260 -3,15 18,-2 20,-8 13,-8 20,-40 -15,-38 -36,-18 54,-18 63,20 -12,-12 -16,-11 -17,-7 -18,-5 h -18 -18 l -18,5 -17,7 -5,23 7,8 15,2 18,6 8,35 z"
   id="path480"
   inkscape:connector-curvature="0"
   style="fill:#494949;stroke:none" />
         <path
   d="m 10430,15260 v 0 l -3,15 18,-2 20,-8 13,-8 20,-40 -15,-38 -36,-18 54,-18 63,20 v 0 l -12,-12 -16,-11 -17,-7 -18,-5 h -18 -18 l -18,5 -17,7 v 0 l -5,23 7,8 15,2 18,6 8,35 z"
   id="path482"
   inkscape:connector-curvature="0"
   style="fill:none;stroke:#494949" />
         <path
   d="m 10430,15173 5,-12 -10,-13 -13,-5 -5,13 -33,61 15,45 8,5 7,6 10,2 8,3 5,-3 3,-2 2,-8 -2,-5 -11,-8 -15,-7 -10,-8 -3,-10 z"
   id="path484"
   inkscape:connector-curvature="0"
   style="fill:#494949;stroke:none" />
         <path
   d="m 10430,15173 v 0 l 5,-12 -10,-13 -13,-5 -5,13 -33,61 15,45 v 0 l 8,5 7,6 10,2 8,3 v 0 l 5,-3 3,-2 2,-8 -2,-5 v 0 l -11,-8 -15,-7 -10,-8 -3,-10 z"
   id="path486"
   inkscape:connector-curvature="0"
   style="fill:none;stroke:#494949" />
         <path
   d="m 11962,16845 v 36 13 l 10,-5 5,-11 h -5 l 122,-129 -53,-18 8,3 5,7 2,10 -2,8 -89,86 z"
   id="path488"
   inkscape:connector-curvature="0"
   style="fill:#494949;stroke:none" />
         <path
   d="m 11962,16845 v 36 0 13 l 10,-5 5,-11 h -5 l 122,-129 -53,-18 v 0 l 8,3 5,7 2,10 -2,8 -89,86 z"
   id="path490"
   inkscape:connector-curvature="0"
   style="fill:none;stroke:#494949" />
         <path
   d="m 11962,16640 v 50 l 38,-35 -5,-3 -12,-5 -13,-5 z"
   id="path492"
   inkscape:connector-curvature="0"
   style="fill:#494949;stroke:none" />
         <path
   d="m 11962,16640 v 50 l 38,-35 v 0 l -5,-3 -12,-5 -13,-5 z"
   id="path494"
   inkscape:connector-curvature="0"
   style="fill:none;stroke:#494949" />
         <path
   d="m 11962,16690 v -50 0 7 l -2,8 -3,7 -104,97 -15,-10 50,53 -10,-15 z"
   id="path496"
   inkscape:connector-curvature="0"
   style="fill:#494949;stroke:none" />
         <path
   d="m 11962,16690 v -50 0 0 7 l -2,8 -3,7 -104,97 -15,-10 50,53 -10,-15 z"
   id="path498"
   inkscape:connector-curvature="0"
   style="fill:none;stroke:#494949" />
         <path
   d="m 11962,16881 v -36 l -15,8 -15,-13 z"
   id="path500"
   inkscape:connector-curvature="0"
   style="fill:#494949;stroke:none" />
         <path
   d="m 11962,16881 v -36 l -15,8 -15,-13 z"
   id="path502"
   inkscape:connector-curvature="0"
   style="fill:none;stroke:#494949" />
         <path
   d="m 10473,17432 h 15 48 l 72,-2 96,-10 109,-23 127,-36 133,-53 139,-74 138,-99 137,-127 124,-158 117,-190 97,-229 79,-272 51,-315 22,-363 -10,-417 -43,-361 -71,-310 -94,-261 -115,-219 -127,-178 -137,-142 -140,-112 -142,-84 -137,-58 -130,-41 -117,-23 -96,-12 -77,-5 h -48 -18 v -265 h 5 18 l 31,3 38,3 48,2 56,5 66,10 71,10 79,16 84,17 89,23 91,28 97,33 99,38 102,44 101,48 102,58 102,64 101,71 97,79 97,89 91,96 89,104 84,117 76,125 71,137 64,147 56,158 46,170 38,183 28,196 15,208 -5,216 -15,201 -28,188 -41,175 -48,165 -59,153 -66,142 -76,130 -81,119 -87,112 -91,101 -97,92 -102,84 -101,73 -105,69 -104,58 -106,54 -105,46 -101,40 -102,36 -97,30 -94,26 -89,20 -81,15 -76,13 -69,10 -61,8 -51,5 -40,2 -31,3 h -18 -7 z"
   id="path504"
   inkscape:connector-curvature="0"
   style="fill:#000000;stroke:none" />
         <path
   d="m 10506,17432 h -15 -49 l -71,-2 -94,-10 -112,-23 -124,-36 -132,-53 -140,-74 -137,-99 -135,-125 -127,-157 -115,-193 -96,-229 -79,-272 -51,-315 -23,-363 10,-417 44,-361 71,-310 94,-261 114,-219 127,-178 135,-142 142,-112 143,-81 137,-61 127,-38 117,-23 97,-13 76,-5 h 48 18 v -264 h -5 -18 l -31,3 -38,2 -48,3 -56,5 -66,10 -71,10 -79,15 -84,18 -89,23 -91,28 -97,30 -99,38 -99,44 -102,50 -104,56 -102,64 -99,71 -99,81 -96,87 -92,96 -89,107 -81,114 -79,127 -71,135 -64,147 -56,160 -45,171 -38,183 -28,195 -16,209 5,216 16,200 28,188 40,176 49,165 58,152 69,143 73,129 82,120 86,111 92,99 96,92 102,84 102,76 104,66 104,61 107,53 104,46 102,41 101,33 97,30 91,26 89,20 82,15 76,13 68,10 61,8 51,5 41,2 30,3 h 18 8 z"
   id="path506"
   inkscape:connector-curvature="0"
   style="fill:#000000;stroke:none" />
         <path
   d="m 9126,17735 -71,56 -69,43 -61,30 -53,18 -49,8 -45,-3 -36,-13 -33,-17 -28,-28 -20,-36 -16,-41 -10,-45 -5,-49 v -53 l 8,-56 10,-58 71,-107 79,-114 81,-125 89,-135 94,-139 97,-145 101,-153 105,-157 106,-160 107,-163 112,-165 109,-168 112,-167 109,-168 110,-165 109,-165 107,-160 104,-158 102,-152 96,-148 94,-142 89,-135 84,-127 79,-117 71,-109 64,-96 58,-87 48,-76 43,-61 31,-48 23,-33 13,-18 40,-56 46,-61 48,-61 56,-61 56,-63 61,-61 61,-64 61,-61 61,-58 61,-59 59,-53 55,-51 51,-48 49,-43 43,-39 35,-33 -20,77 -23,81 -28,84 -28,89 -33,86 -33,89 -33,86 -33,84 -33,82 -33,78 -33,71 -31,67 -25,55 -25,51 -21,41 -17,28 -84,129 -82,127 -84,128 -81,127 -81,127 -82,124 -81,125 -81,127 -82,124 -81,125 -81,124 -82,125 -81,122 -81,124 -79,125 -81,124 -82,122 -81,125 -81,124 -82,125 -78,124 -82,125 -81,127 -81,124 -82,127 -84,127 -81,127 -81,127 -84,130 -81,127 -84,132 z"
   id="path508"
   inkscape:connector-curvature="0"
   style="fill:#000000;stroke:none" />
         <path
   d="m 11863,13303 25,-63 34,-84 35,-97 41,-104 40,-99 39,-91 35,-79 31,-53 -36,35 -33,33 -36,36 -35,35 -33,36 -36,36 -35,35 -33,36 -36,35 -36,33 -35,36 -36,33 -35,35 -36,33 -38,31 -36,33 28,224 z"
   id="path510"
   inkscape:connector-curvature="0"
   style="fill:#666666;stroke:none" />
         <path
   d="m 11863,13303 v 0 l 25,-63 34,-84 35,-97 41,-104 40,-99 39,-91 35,-79 31,-53 v 0 l -36,35 -33,33 -36,36 -35,35 -33,36 -36,36 -35,35 -33,36 -36,35 -36,33 -35,36 -36,33 -35,35 -36,33 -38,31 -36,33 28,224 z"
   id="path512"
   inkscape:connector-curvature="0"
   style="fill:none;stroke:#666666" />
         <path
   d="m 11665,13306 442,-625 -488,475 z"
   id="path514"
   inkscape:connector-curvature="0"
   style="fill:#cecece;stroke:none" />
         <path
   d="m 11665,13306 442,-625 -488,475 z"
   id="path516"
   inkscape:connector-curvature="0"
   style="fill:none;stroke:#cecece" />
         <path
   d="m 11700,13631 -83,127 -82,127 -84,127 -81,127 -84,127 -81,127 -84,127 -81,130 -82,127 -84,130 -81,127 -81,129 -84,127 -81,127 -82,130 -84,127 -84,130 -81,127 -84,127 -84,127 -84,127 -83,127 -84,127 -84,124 -84,127 -86,125 -84,124 -87,125 -86,124 -87,125 -88,122 -87,122 -20,20 -28,20 -36,21 -38,18 -41,15 -38,13 -33,10 -25,2 -54,-7 -30,-26 -18,-38 -5,-46 3,-48 7,-48 5,-43 v -36 l 87,-127 84,-125 86,-127 84,-127 86,-124 84,-127 84,-127 87,-127 83,-127 84,-127 87,-127 84,-127 83,-127 84,-127 87,-128 84,-127 83,-127 84,-127 84,-129 84,-127 84,-127 84,-130 84,-127 84,-127 83,-130 84,-127 82,-129 84,-127 83,-130 84,-129 82,-127 83,-130 44,203 z"
   id="path518"
   inkscape:connector-curvature="0"
   style="fill:#e5e5e5;stroke:none" />
         <path
   d="m 9042,17696 v 0 l 86,-121 89,-122 87,-125 86,-124 87,-125 83,-124 87,-125 84,-127 84,-124 83,-128 84,-127 84,-127 84,-127 84,-127 81,-127 84,-129 84,-127 84,-130 79,-127 84,-127 83,-130 79,-127 84,-129 84,-127 79,-130 84,-127 81,-127 84,-127 81,-127 84,-127 81,-127 84,-127 -35,-26 -84,128 -82,127 -83,127 -82,127 -84,127 -81,127 -84,127 -84,129 -79,127 -83,130 -84,127 -79,130 -84,127 -84,127 -79,129 -83,127 -84,130 -82,127 -84,127 -83,127 -84,127 -84,127 -84,127 -84,125 -84,127 -86,124 -84,125 -86,124 -87,125 -86,124 -89,122 -87,122 v 0 z"
   id="path520"
   inkscape:connector-curvature="0"
   style="fill:#000000;stroke:none" />
         <path
   d="m 8765,17826 v 0 l 30,-2 33,-11 41,-15 41,-15 40,-18 39,-23 30,-20 23,-26 -36,-25 -17,15 -26,21 -33,17 -36,18 -40,15 -36,11 -33,10 -20,2 v 0 z"
   id="path522"
   inkscape:connector-curvature="0"
   style="fill:#000000;stroke:none" />
         <path
   d="m 8656,17498 -6,16 v 33 l -5,40 -7,51 -3,48 5,51 23,46 41,33 61,10 v -46 l -46,-5 -20,-18 -13,-30 -5,-41 3,-48 7,-46 5,-45 v -39 l -5,16 5,-16 -7,-15 -18,-5 -15,8 -6,18 z"
   id="path524"
   inkscape:connector-curvature="0"
   style="fill:#000000;stroke:none" />
         <path
   d="m 11390,13430 -40,-10 -84,130 -82,127 -83,129 -84,130 -84,127 -81,130 -84,127 -84,129 -84,127 -84,127 -84,130 -84,127 -84,127 -83,130 -84,127 -84,127 -84,127 -87,127 -83,127 -84,127 -84,127 -87,127 -83,127 -84,127 -87,127 -84,127 -83,127 -87,125 -84,127 -86,127 -84,124 -86,127 35,26 87,-127 83,-125 87,-127 84,-127 86,-124 84,-127 84,-127 86,-128 84,-127 84,-127 86,-127 84,-127 84,-127 84,-127 86,-127 84,-127 84,-127 84,-127 84,-130 84,-127 84,-127 84,-129 83,-127 84,-127 84,-130 84,-127 81,-129 84,-128 84,-129 84,-130 81,-127 84,-129 -40,-10 40,10 3,-18 -8,-13 -15,-5 -15,10 z"
   id="path526"
   inkscape:connector-curvature="0"
   style="fill:#000000;stroke:none" />
         <path
   d="m 11411,13613 23,21 -44,-204 -45,6 43,203 23,20 -23,-20 7,15 18,5 15,-8 6,-17 z"
   id="path528"
   inkscape:connector-curvature="0"
   style="fill:#000000;stroke:none" />
         <path
   d="m 11718,13644 -18,-36 -289,5 v 46 l 289,-5 -17,-36 17,36 18,-8 5,-15 -5,-15 -18,-8 z"
   id="path530"
   inkscape:connector-curvature="0"
   style="fill:#000000;stroke:none" />
         <path
   d="m 11713,13593 -86,127 -84,127 -87,127 -83,127 -84,127 -87,130 -84,127 -83,127 -84,127 -84,130 -84,127 -84,127 -84,129 -84,127 -81,127 -84,130 -84,127 -84,127 -81,130 -84,127 -84,127 -81,129 -84,127 -84,127 -81,130 -84,127 -84,127 -81,127 -84,130 -84,127 -81,127 -84,127 -237,129 -63,-12 -38,-44 2773,-4154 z"
   id="path532"
   inkscape:connector-curvature="0"
   style="fill:#a5a5a5;stroke:none" />
         <path
   d="m 11713,13593 v 0 l -86,127 -84,127 -87,127 -83,127 -84,127 -87,130 -84,127 -83,127 -84,127 -84,130 -84,127 -84,127 -84,129 -84,127 -81,127 -84,130 -84,127 -84,127 -81,130 -84,127 -84,127 -81,129 -84,127 -84,127 -81,130 -84,127 -84,127 -81,127 -84,130 -84,127 -81,127 -84,127 -237,129 -63,-12 -38,-44 2773,-4154 z"
   id="path534"
   inkscape:connector-curvature="0"
   style="fill:none;stroke:#a5a5a5" />
         <path
   d="m 11675,13674 188,-368 -211,10 -51,-142 -264,302 30,15 28,46 -50,94 33,5 h 25 l 20,3 16,2 12,8 10,10 8,20 5,28 3,5 5,6 5,2 h 8 l 96,-63 h 8 10 l 13,2 15,3 13,5 12,2 8,3 z"
   id="path536"
   inkscape:connector-curvature="0"
   style="fill:#e5e5e5;stroke:none" />
         <path
   d="m 11863,13321 -15,-23 -188,369 30,15 188,-368 -15,-23 15,23 v -13 l -7,-10 -13,-3 -10,10 z"
   id="path538"
   inkscape:connector-curvature="0"
   style="fill:#000000;stroke:none" />
         <path
   d="m 11637,13321 15,10 211,-10 v -30 l -211,10 15,10 -15,-10 -10,5 -5,10 5,10 10,5 z"
   id="path540"
   inkscape:connector-curvature="0"
   style="fill:#000000;stroke:none" />
         <path
   d="m 11614,13184 -28,-5 51,142 30,-10 -50,-142 -28,-5 28,5 -8,-10 h -10 l -10,7 -3,13 z"
   id="path542"
   inkscape:connector-curvature="0"
   style="fill:#000000;stroke:none" />
         <path
   d="m 11345,13461 5,25 264,-302 -25,-20 -265,302 5,25 -5,-25 -2,13 5,7 12,5 11,-5 z"
   id="path544"
   inkscape:connector-curvature="0"
   style="fill:#000000;stroke:none" />
         <path
   d="m 11380,13484 -5,-8 -30,-15 -16,30 31,16 -5,-8 5,8 h 13 l 10,-8 2,-13 -10,-10 z"
   id="path546"
   inkscape:connector-curvature="0"
   style="fill:#000000;stroke:none" />
         <path
   d="m 11411,13545 -3,-15 -28,-46 -25,15 28,46 -3,-15 3,15 10,5 10,-3 8,-7 -3,-10 z"
   id="path548"
   inkscape:connector-curvature="0"
   style="fill:#000000;stroke:none" />
         <path
   d="m 11347,13616 13,23 51,-94 -31,-15 -51,94 13,22 -13,-22 v 12 l 8,10 13,3 10,-10 z"
   id="path550"
   inkscape:connector-curvature="0"
   style="fill:#000000;stroke:none" />
         <path
   d="m 11492,13707 -3,-2 -5,-28 -7,-26 -16,-15 -17,-10 -21,-2 -20,-6 -25,3 -31,-5 -5,30 36,5 25,3 h 20 l 11,3 7,5 5,5 8,15 5,28 -3,-3 z"
   id="path552"
   inkscape:connector-curvature="0"
   style="fill:#000000;stroke:none" />
         <path
   d="m 11487,13707 2,-2 v 0 h 3 l -3,-3 3,5 h -36 l 8,16 8,7 12,5 h 16 l 2,-2 -2,2 10,-7 v -13 l -8,-8 -13,-2 z"
   id="path554"
   inkscape:connector-curvature="0"
   style="fill:#000000;stroke:none" />
         <path
   d="m 11589,13641 -6,3 -96,63 15,26 97,-64 -5,3 5,-3 5,-10 v -10 l -10,-8 -11,3 z"
   id="path556"
   inkscape:connector-curvature="0"
   style="fill:#000000;stroke:none" />
         <path
   d="m 11660,13667 25,-3 -10,-7 -10,-3 -13,-3 -13,-5 -15,-2 -15,-3 -10,-2 -10,2 5,31 5,2 10,-2 10,2 15,3 13,5 13,3 5,2 v -2 l 25,-3 -25,3 10,5 10,-5 5,-11 -5,-10 z"
   id="path558"
   inkscape:connector-curvature="0"
   style="fill:#000000;stroke:none" />
         <path
   d="m 11482,13779 61,-3 46,-53 50,-5 -2597,3961 -3,2 -7,10 -10,16 -16,15 -17,20 -21,18 -20,15 -20,13 -18,5 -18,5 -20,3 -18,2 h -18 -13 -10 -2 z"
   id="path560"
   inkscape:connector-curvature="0"
   style="fill:#666666;stroke:none" />
         <path
   d="m 11482,13779 61,-3 46,-53 50,-5 -2597,3961 v 0 l -3,2 -7,10 -10,16 -16,15 -17,20 -21,18 -20,15 -20,13 v 0 l -18,5 -18,5 -20,3 -18,2 h -18 -13 -10 -2 z"
   id="path562"
   inkscape:connector-curvature="0"
   style="fill:none;stroke:#666666" />
         <path
   d="m 9517,17044 -43,-49 -41,-48 -40,-48 -36,-51 -36,-53 -33,-59 -30,-63 -25,-72 -288,437 44,46 48,41 51,38 53,35 53,36 54,33 51,31 45,33 z"
   id="path564"
   inkscape:connector-curvature="0"
   style="fill:#000000;stroke:none" />
         <path
   d="m 10236,11629 h 593 l 607,1113 h -97 l -899,-696 -714,696 h -97 z"
   id="path566"
   inkscape:connector-curvature="0"
   style="fill:#000000;stroke:none" />
        </g>
       </g>
      </g>
     </g>
    </g>
   </g>
  </g>
 </g>
</svg>