<?xml version="1.0" encoding="UTF-8" standalone="no"?>
<svg
   xmlns:ooo="http://xml.openoffice.org/svg/export"
   xmlns:dc="http://purl.org/dc/elements/1.1/"
   xmlns:cc="http://creativecommons.org/ns#"
   xmlns:rdf="http://www.w3.org/1999/02/22-rdf-syntax-ns#"
   xmlns:svg="http://www.w3.org/2000/svg"
   xmlns="http://www.w3.org/2000/svg"
   xmlns:sodipodi="http://sodipodi.sourceforge.net/DTD/sodipodi-0.dtd"
   xmlns:inkscape="http://www.inkscape.org/namespaces/inkscape"
   version="1.2"
   width="9.5799999mm"
   height="13.36mm"
   viewBox="0 0 957.99999 1336"
   preserveAspectRatio="xMidYMid"
   xml:space="preserve"
   id="svg259"
   sodipodi:docname="paintcns.svg"
   style="fill-rule:evenodd;stroke-width:28.22200012;stroke-linejoin:round"
   inkscape:version="0.92.5 (2060ec1f9f, 2020-04-08)"><metadata
   id="metadata263"><rdf:RDF><cc:Work
       rdf:about=""><dc:format>image/svg+xml</dc:format><dc:type
         rdf:resource="http://purl.org/dc/dcmitype/StillImage" /></cc:Work></rdf:RDF></metadata><sodipodi:namedview
   pagecolor="#ffffff"
   bordercolor="#666666"
   borderopacity="1"
   objecttolerance="10"
   gridtolerance="10"
   guidetolerance="10"
   inkscape:pageopacity="0"
   inkscape:pageshadow="2"
   inkscape:window-width="664"
   inkscape:window-height="487"
   id="namedview261"
   showgrid="false"
   inkscape:zoom="0.2102413"
   inkscape:cx="18.103938"
   inkscape:cy="25.247243"
   inkscape:window-x="0"
   inkscape:window-y="0"
   inkscape:window-maximized="0"
   inkscape:current-layer="svg259" />
 <defs
   class="ClipPathGroup"
   id="defs8">
  <clipPath
   id="presentation_clip_path"
   clipPathUnits="userSpaceOnUse">
   <rect
   x="0"
   y="0"
   width="21000"
   height="29700"
   id="rect2" />
  </clipPath>
  <clipPath
   id="presentation_clip_path_shrink"
   clipPathUnits="userSpaceOnUse">
   <rect
   x="21"
   y="29"
   width="20958"
   height="29641"
   id="rect5" />
  </clipPath>
 </defs>
 <defs
   class="TextShapeIndex"
   id="defs12">
  <g
   ooo:slide="id1"
   ooo:id-list="id3"
   id="g10" />
 </defs>
 <defs
   class="EmbeddedBulletChars"
   id="defs44">
  <g
   id="bullet-char-template-57356"
   transform="matrix(4.8828125e-4,0,0,-4.8828125e-4,0,0)">
   <path
   d="M 580,1141 1163,571 580,0 -4,571 Z"
   id="path14"
   inkscape:connector-curvature="0" />
  </g>
  <g
   id="bullet-char-template-57354"
   transform="matrix(4.8828125e-4,0,0,-4.8828125e-4,0,0)">
   <path
   d="M 8,1128 H 1137 V 0 H 8 Z"
   id="path17"
   inkscape:connector-curvature="0" />
  </g>
  <g
   id="bullet-char-template-10146"
   transform="matrix(4.8828125e-4,0,0,-4.8828125e-4,0,0)">
   <path
   d="M 174,0 602,739 174,1481 1456,739 Z M 1358,739 309,1346 659,739 Z"
   id="path20"
   inkscape:connector-curvature="0" />
  </g>
  <g
   id="bullet-char-template-10132"
   transform="matrix(4.8828125e-4,0,0,-4.8828125e-4,0,0)">
   <path
   d="M 2015,739 1276,0 H 717 l 543,543 H 174 v 393 h 1086 l -543,545 h 557 z"
   id="path23"
   inkscape:connector-curvature="0" />
  </g>
  <g
   id="bullet-char-template-10007"
   transform="matrix(4.8828125e-4,0,0,-4.8828125e-4,0,0)">
   <path
   d="m 0,-2 c -7,16 -16,29 -25,39 l 381,530 c -94,256 -141,385 -141,387 0,25 13,38 40,38 9,0 21,-2 34,-5 21,4 42,12 65,25 l 27,-13 111,-251 280,301 64,-25 24,25 c 21,-10 41,-24 62,-43 C 886,937 835,863 770,784 769,783 710,716 594,584 L 774,223 c 0,-27 -21,-55 -63,-84 l 16,-20 C 717,90 699,76 672,76 641,76 570,178 457,381 L 164,-76 c -22,-34 -53,-51 -92,-51 -42,0 -63,17 -64,51 -7,9 -10,24 -10,44 0,9 1,19 2,30 z"
   id="path26"
   inkscape:connector-curvature="0" />
  </g>
  <g
   id="bullet-char-template-10004"
   transform="matrix(4.8828125e-4,0,0,-4.8828125e-4,0,0)">
   <path
   d="M 285,-33 C 182,-33 111,30 74,156 52,228 41,333 41,471 c 0,78 14,145 41,201 34,71 87,106 158,106 53,0 88,-31 106,-94 l 23,-176 c 8,-64 28,-97 59,-98 l 735,706 c 11,11 33,17 66,17 42,0 63,-15 63,-46 V 965 c 0,-36 -10,-64 -30,-84 L 442,47 C 390,-6 338,-33 285,-33 Z"
   id="path29"
   inkscape:connector-curvature="0" />
  </g>
  <g
   id="bullet-char-template-9679"
   transform="matrix(4.8828125e-4,0,0,-4.8828125e-4,0,0)">
   <path
   d="M 813,0 C 632,0 489,54 383,161 276,268 223,411 223,592 c 0,181 53,324 160,431 106,107 249,161 430,161 179,0 323,-54 432,-161 108,-107 162,-251 162,-431 0,-180 -54,-324 -162,-431 C 1136,54 992,0 813,0 Z"
   id="path32"
   inkscape:connector-curvature="0" />
  </g>
  <g
   id="bullet-char-template-8226"
   transform="matrix(4.8828125e-4,0,0,-4.8828125e-4,0,0)">
   <path
   d="m 346,457 c -73,0 -137,26 -191,78 -54,51 -81,114 -81,188 0,73 27,136 81,188 54,52 118,78 191,78 73,0 134,-26 185,-79 51,-51 77,-114 77,-187 0,-75 -25,-137 -76,-188 -50,-52 -112,-78 -186,-78 z"
   id="path35"
   inkscape:connector-curvature="0" />
  </g>
  <g
   id="bullet-char-template-8211"
   transform="matrix(4.8828125e-4,0,0,-4.8828125e-4,0,0)">
   <path
   d="M -4,459 H 1135 V 606 H -4 Z"
   id="path38"
   inkscape:connector-curvature="0" />
  </g>
  <g
   id="bullet-char-template-61548"
   transform="matrix(4.8828125e-4,0,0,-4.8828125e-4,0,0)">
   <path
   d="m 173,740 c 0,163 58,303 173,419 116,115 255,173 419,173 163,0 302,-58 418,-173 116,-116 174,-256 174,-419 0,-163 -58,-303 -174,-418 C 1067,206 928,148 765,148 601,148 462,206 346,322 231,437 173,577 173,740 Z"
   id="path41"
   inkscape:connector-curvature="0" />
  </g>
 </defs>
 <g
   id="g49"
   transform="translate(-10021,-14182)">
  <g
   id="id2"
   class="Master_Slide">
   <g
   id="bg-id2"
   class="Background" />
   <g
   id="bo-id2"
   class="BackgroundObjects" />
  </g>
 </g>
 <g
   class="SlideGroup"
   id="g257"
   transform="translate(-10021,-14182)">
  <g
   id="g255">
   <g
   id="container-id1">
    <g
   id="id1"
   class="Slide"
   clip-path="url(#presentation_clip_path)">
     <g
   class="Page"
   id="g251">
      <g
   class="Graphic"
   id="g249">
       <g
   id="id3">
        <rect
   class="BoundingBox"
   x="10021"
   y="14182"
   width="958"
   height="1336"
   id="rect51"
   style="fill:none;stroke:none" />
        <defs
   id="defs56">
         <clipPath
   id="clip_path_1"
   clipPathUnits="userSpaceOnUse">
          <path
   d="m 10021,14182 h 957 v 1335 h -957 z"
   id="path53"
   inkscape:connector-curvature="0" />
         </clipPath>
        </defs>
        <g
   clip-path="url(#clip_path_1)"
   id="g246">
         <path
   d="m 10597,14416 v 84 191 204 122 l -5,7 -18,8 -26,8 -33,7 -40,5 -49,5 -53,3 h -56 -56 l -54,-3 -48,-5 -41,-5 -36,-7 -25,-8 -18,-8 -5,-7 v -16 -28 -38 -46 -86 -94 -94 -82 -43 -33 -23 -8 z"
   id="path58"
   inkscape:connector-curvature="0"
   style="fill:#ad7a5b;stroke:none" />
         <path
   d="m 10607,15017 v 0 -122 -204 -191 -84 h -20 v 84 191 204 122 0 z"
   id="path60"
   inkscape:connector-curvature="0"
   style="fill:#000000;stroke:none" />
         <path
   d="m 10317,15070 v 0 h 56 l 53,-5 49,-5 40,-5 36,-8 25,-7 21,-8 10,-15 h -20 v 0 l -16,7 -25,8 -31,8 -40,5 -49,5 h -53 -56 v 0 z"
   id="path62"
   inkscape:connector-curvature="0"
   style="fill:#000000;stroke:none" />
         <path
   d="m 10024,15017 v 0 l 10,15 20,8 28,7 36,8 41,5 48,5 54,5 h 56 v -20 h -56 -54 l -48,-5 -41,-5 -36,-8 -23,-8 -15,-7 v 0 0 z"
   id="path64"
   inkscape:connector-curvature="0"
   style="fill:#000000;stroke:none" />
         <path
   d="m 10024,14889 v 0 46 38 28 16 h 20 v -16 -28 -38 -46 0 z"
   id="path66"
   inkscape:connector-curvature="0"
   style="fill:#000000;stroke:none" />
         <path
   d="m 10024,14533 v 0 82 94 94 86 h 20 v -86 -94 -94 -82 0 z"
   id="path68"
   inkscape:connector-curvature="0"
   style="fill:#000000;stroke:none" />
         <path
   d="m 10034,14419 -10,7 v 8 23 33 43 h 20 v -43 -33 -23 -8 l -10,8 v -15 h -10 v 7 z"
   id="path70"
   inkscape:connector-curvature="0"
   style="fill:#000000;stroke:none" />
         <path
   d="m 10607,14416 -10,-8 -563,11 v 15 l 563,-10 -10,-8 h 20 v -10 l -10,2 z"
   id="path72"
   inkscape:connector-curvature="0"
   style="fill:#000000;stroke:none" />
         <path
   d="m 10355,14910 v -87 -94 -94 -81 l -41,10 -43,5 h -46 l -43,-3 -44,-5 -41,-7 -35,-11 -28,-10 v 82 94 94 86 l 20,13 36,13 43,8 49,2 50,3 49,-3 41,-5 z"
   id="path74"
   inkscape:connector-curvature="0"
   style="fill:#ffffff;stroke:none" />
         <path
   d="m 10357,14561 -12,-7 v 81 94 94 87 h 20 v -87 -94 -94 -81 l -13,-8 13,8 v -13 l -13,5 z"
   id="path76"
   inkscape:connector-curvature="0"
   style="fill:#000000;stroke:none" />
         <path
   d="m 10044,14533 -13,8 28,10 38,10 41,8 44,5 43,5 46,-3 43,-5 43,-10 -5,-15 -38,10 -43,5 -46,-2 h -43 l -44,-5 -41,-8 -33,-10 -28,-10 -12,7 12,-7 -12,-6 v 13 z"
   id="path78"
   inkscape:connector-curvature="0"
   style="fill:#000000;stroke:none" />
         <path
   d="m 10041,14884 3,5 v -86 -94 -94 -82 h -20 v 82 94 94 86 l 2,6 -2,-6 v 3 l 2,3 z"
   id="path80"
   inkscape:connector-curvature="0"
   style="fill:#000000;stroke:none" />
         <path
   d="m 10345,14910 7,-8 -30,10 -41,5 h -49 -50 l -49,-2 -41,-8 -35,-12 -16,-11 -15,11 26,15 35,13 46,7 49,3 50,5 49,-5 41,-5 35,-11 8,-7 -8,7 8,-2 v -5 z"
   id="path82"
   inkscape:connector-curvature="0"
   style="fill:#000000;stroke:none" />
         <path
   d="m 10317,14454 h -56 l -54,-2 -48,-5 -41,-5 -36,-8 -25,-8 -18,-7 -5,-11 5,-10 18,-7 25,-8 36,-8 41,-5 48,-5 54,-2 h 56 56 l 53,2 49,5 40,5 33,8 26,8 18,7 5,10 -5,11 -18,7 -26,8 -33,8 -40,5 -49,5 -53,2 z"
   id="path84"
   inkscape:connector-curvature="0"
   style="fill:#a5b7c9;stroke:none" />
         <path
   d="m 10024,14408 v 0 l 10,18 20,8 28,8 36,7 41,5 48,5 54,5 h 56 v -20 h -56 -54 l -48,-5 -41,-5 -36,-8 -23,-7 -15,-8 v -3 0 z"
   id="path86"
   inkscape:connector-curvature="0"
   style="fill:#000000;stroke:none" />
         <path
   d="m 10317,14352 v 0 h -56 l -54,6 -48,5 -41,5 -36,7 -28,8 -20,8 -10,17 h 20 v -2 l 15,-8 23,-7 36,-8 41,-5 48,-5 h 54 56 v 0 z"
   id="path88"
   inkscape:connector-curvature="0"
   style="fill:#000000;stroke:none" />
         <path
   d="m 10607,14408 v 0 l -10,-17 -21,-8 -25,-8 -36,-7 -40,-5 -49,-5 -53,-6 h -56 v 21 h 56 53 l 49,5 40,5 31,8 25,7 16,8 v 2 0 z"
   id="path90"
   inkscape:connector-curvature="0"
   style="fill:#000000;stroke:none" />
         <path
   d="m 10317,14464 v 0 h 56 l 53,-5 49,-5 40,-5 36,-7 25,-8 21,-8 10,-18 h -20 v 3 l -16,8 -25,7 -31,8 -40,5 -49,5 h -53 -56 v 0 z"
   id="path92"
   inkscape:connector-curvature="0"
   style="fill:#000000;stroke:none" />
         <path
   d="m 10597,14408 -5,11 -18,7 -26,8 -33,8 -40,5 -49,5 -53,2 h -56 -56 l -54,-2 -48,-5 -41,-5 -36,-8 -25,-8 -18,-7 -5,-11 -5,-2 -5,5 -3,8 v 10 l 5,10 20,8 29,7 35,8 43,5 51,5 57,3 h 56 56 l 56,-3 48,-5 43,-5 39,-8 28,-7 17,-8 6,-10 v -13 l -6,-8 -2,-2 z"
   id="path94"
   inkscape:connector-curvature="0"
   style="fill:#ff4733;stroke:none" />
         <path
   d="m 10317,14464 v 0 h 56 l 53,-5 49,-5 40,-5 36,-7 25,-8 21,-8 10,-18 h -20 v 3 l -16,8 -25,7 -31,8 -40,5 -49,5 h -53 -56 v 0 z"
   id="path96"
   inkscape:connector-curvature="0"
   style="fill:#000000;stroke:none" />
         <path
   d="m 10026,14414 -2,-6 10,18 20,8 28,8 36,7 41,5 48,5 54,5 h 56 v -20 h -56 -54 l -48,-5 -41,-5 -36,-8 -23,-7 -15,-8 v -3 l -3,-5 3,5 -3,-2 v -3 z"
   id="path98"
   inkscape:connector-curvature="0"
   style="fill:#000000;stroke:none" />
         <path
   d="m 10031,14429 v 0 l -2,-10 2,-3 -2,-2 h -3 l 15,-11 -12,-5 -13,8 -3,13 -2,10 v 0 z"
   id="path100"
   inkscape:connector-curvature="0"
   style="fill:#000000;stroke:none" />
         <path
   d="m 10317,14464 v 0 h -56 -57 l -51,-5 -43,-5 -35,-7 -26,-8 -18,-8 v -2 h -20 l 10,18 23,7 31,8 35,8 43,5 51,5 57,5 h 56 v 0 z"
   id="path102"
   inkscape:connector-curvature="0"
   style="fill:#000000;stroke:none" />
         <path
   d="m 10599,14429 v 0 2 l -15,8 -25,8 -39,7 -43,5 -48,5 h -56 -56 v 21 h 56 l 56,-5 48,-5 43,-5 39,-8 30,-8 21,-7 10,-18 v 0 z"
   id="path104"
   inkscape:connector-curvature="0"
   style="fill:#000000;stroke:none" />
         <path
   d="m 10607,14408 -5,6 v 2 l -5,-2 5,2 -3,13 h 21 l -3,-13 -5,-13 -10,-7 -10,7 -5,5 5,-5 -5,3 v 2 z"
   id="path106"
   inkscape:connector-curvature="0"
   style="fill:#000000;stroke:none" />
         <path
   d="m 10317,14475 h -36 l -36,-3 h -33 l -30,-2 -31,-3 -28,-5 -23,-3 -23,-5 v 21 l -2,12 -6,8 -5,5 -2,18 2,28 11,23 h 17 l 8,53 10,61 15,49 21,20 20,-15 16,-38 10,-46 5,-38 20,10 21,-3 15,-15 8,-36 v -17 -16 -10 -5 l 12,8 h 13 l 8,-11 2,-22 h 8 l 7,-6 3,-7 z"
   id="path108"
   inkscape:connector-curvature="0"
   style="fill:#ff4733;stroke:none" />
         <path
   d="m 10087,14454 -10,8 23,5 23,3 28,5 31,2 30,5 h 33 l 36,3 h 36 v -21 h -36 l -36,-2 h -33 -30 l -31,-3 -28,-5 -23,-2 -23,-5 -10,7 10,-7 -10,-5 v 12 z"
   id="path110"
   inkscape:connector-curvature="0"
   style="fill:#000000;stroke:none" />
         <path
   d="m 10069,14505 v 3 l 8,-8 5,-10 3,-15 2,-21 h -20 l 2,21 -2,10 -5,5 -3,2 v 3 z"
   id="path112"
   inkscape:connector-curvature="0"
   style="fill:#000000;stroke:none" />
         <path
   d="m 10100,14569 -13,-8 h -7 l -8,-15 v -28 l -3,-13 -10,-10 -7,23 5,28 12,30 h 28 l -12,-7 h 15 v -18 l -13,10 z"
   id="path114"
   inkscape:connector-curvature="0"
   style="fill:#000000;stroke:none" />
         <path
   d="m 10146,14742 v 0 l -13,-13 -15,-46 -10,-61 -8,-53 h -15 l 7,53 11,61 15,51 28,28 v 0 z"
   id="path116"
   inkscape:connector-curvature="0"
   style="fill:#000000;stroke:none" />
         <path
   d="m 10202,14607 -13,8 -5,38 -10,43 -15,36 -13,10 v 20 l 28,-20 15,-41 10,-48 5,-38 -12,7 10,-15 -13,-10 v 18 z"
   id="path118"
   inkscape:connector-curvature="0"
   style="fill:#000000;stroke:none" />
         <path
   d="m 10250,14571 v 0 l -5,33 -10,11 -18,2 -15,-10 -10,15 25,10 23,-2 21,-20 10,-39 v 0 z"
   id="path120"
   inkscape:connector-curvature="0"
   style="fill:#000000;stroke:none" />
         <path
   d="m 10266,14515 -16,8 v 5 10 16 17 h 21 v -17 -16 -10 -5 l -16,8 11,-16 -13,-12 -3,20 z"
   id="path122"
   inkscape:connector-curvature="0"
   style="fill:#000000;stroke:none" />
         <path
   d="m 10296,14490 -7,8 -3,20 -3,5 h -7 l -10,-8 -11,16 16,7 h 18 l 12,-15 3,-25 -8,7 v -15 l -10,-5 3,13 z"
   id="path124"
   inkscape:connector-curvature="0"
   style="fill:#000000;stroke:none" />
         <path
   d="m 10317,14485 -11,-10 v 7 l -2,5 -3,3 h -5 v 15 h 10 l 13,-7 3,-11 5,-12 -10,-11 10,11 v -11 h -10 z"
   id="path126"
   inkscape:connector-curvature="0"
   style="fill:#000000;stroke:none" />
         <path
   d="m 10505,14587 -18,-3 -15,-10 -10,-10 -5,-16 5,-15 10,-13 15,-7 18,-3 18,3 15,7 10,13 6,15 -6,16 -10,10 -15,10 z"
   id="path128"
   inkscape:connector-curvature="0"
   style="fill:#d8d8d8;stroke:none" />
         <path
   d="m 10446,14548 v 0 l 8,21 13,13 18,10 20,5 v -21 h -15 l -13,-10 -8,-7 -2,-11 v 0 z"
   id="path130"
   inkscape:connector-curvature="0"
   style="fill:#000000;stroke:none" />
         <path
   d="m 10505,14500 v 0 l -20,5 -18,8 -13,18 -8,17 h 21 l 2,-12 8,-8 13,-8 h 15 v 0 z"
   id="path132"
   inkscape:connector-curvature="0"
   style="fill:#000000;stroke:none" />
         <path
   d="m 10564,14548 v 0 l -8,-17 -13,-18 -18,-8 -20,-5 v 20 h 15 l 13,8 8,8 2,12 v 0 z"
   id="path134"
   inkscape:connector-curvature="0"
   style="fill:#000000;stroke:none" />
         <path
   d="m 10505,14597 v 0 l 20,-5 18,-10 13,-13 8,-21 h -21 l -2,11 -8,7 -13,10 h -15 v 0 z"
   id="path136"
   inkscape:connector-curvature="0"
   style="fill:#000000;stroke:none" />
         <path
   d="m 10500,14546 54,-48 43,-54 35,-58 18,-54 3,-51 -18,-40 -41,-26 -69,-10 -25,2 -31,6 -33,10 -35,15 -36,23 -33,25 -31,36 -28,43 h -23 l 21,-30 23,-33 28,-31 33,-28 38,-25 43,-18 46,-13 54,-5 68,10 46,28 23,43 3,54 -15,61 -34,61 -51,61 -66,54 -5,2 -5,-2 -3,-3 z"
   id="path138"
   inkscape:connector-curvature="0"
   style="fill:#000000;stroke:none" />
         <path
   d="m 10525,14215 v 0 l 67,8 38,23 15,35 -2,51 -18,51 -36,56 -41,53 -53,46 10,16 54,-51 45,-54 36,-61 18,-56 3,-51 -21,-46 -43,-28 -72,-12 v 0 z"
   id="path140"
   inkscape:connector-curvature="0"
   style="fill:#000000;stroke:none" />
         <path
   d="m 10273,14375 8,-7 28,-41 28,-36 33,-22 33,-23 36,-16 30,-10 31,-5 h 25 v -20 l -25,5 -31,5 -35,10 -36,15 -38,23 -33,28 -33,36 -28,46 7,-8 v 20 l 5,-2 3,-5 z"
   id="path142"
   inkscape:connector-curvature="0"
   style="fill:#000000;stroke:none" />
         <path
   d="m 10243,14363 7,12 h 23 v -20 h -23 l 8,13 -15,-5 -8,12 h 15 z"
   id="path144"
   inkscape:connector-curvature="0"
   style="fill:#000000;stroke:none" />
         <path
   d="m 10536,14172 v 0 l -54,7 -48,13 -44,18 -40,25 -33,31 -31,31 -23,33 -20,33 15,5 20,-28 23,-33 26,-31 33,-25 36,-26 43,-18 43,-12 54,-3 v 0 z"
   id="path146"
   inkscape:connector-curvature="0"
   style="fill:#000000;stroke:none" />
         <path
   d="m 10515,14561 v 0 l 67,-56 53,-61 33,-64 15,-63 -2,-56 -26,-46 -48,-30 -71,-13 v 20 l 66,8 43,25 21,41 2,51 -15,58 -33,59 -49,61 -66,51 v 0 z"
   id="path148"
   inkscape:connector-curvature="0"
   style="fill:#000000;stroke:none" />
         <path
   d="m 10495,14538 v 0 l -8,13 8,10 10,5 10,-5 -10,-15 v 0 0 l 3,5 -3,3 v 0 z"
   id="path150"
   inkscape:connector-curvature="0"
   style="fill:#000000;stroke:none" />
         <path
   d="m 10969,14877 v 84 188 201 122 l -5,10 -18,8 -26,8 -35,7 -41,5 -48,5 -54,3 h -56 -56 l -54,-3 -48,-5 -41,-5 -33,-7 -25,-8 -18,-8 -5,-10 v -15 -28 -38 -43 -87 -94 -94 -82 -43 -33 -23 -8 z"
   id="path152"
   inkscape:connector-curvature="0"
   style="fill:#ad7a5b;stroke:none" />
         <path
   d="m 10979,15472 v 0 -122 -201 -188 -84 h -20 v 84 188 201 122 0 z"
   id="path154"
   inkscape:connector-curvature="0"
   style="fill:#000000;stroke:none" />
         <path
   d="m 10686,15528 v 0 h 56 l 54,-5 48,-5 41,-5 35,-8 28,-7 21,-8 10,-18 h -20 v 3 l -16,7 -23,8 -35,8 -41,5 -48,5 h -54 -56 v 0 z"
   id="path156"
   inkscape:connector-curvature="0"
   style="fill:#000000;stroke:none" />
         <path
   d="m 10396,15472 v 0 l 10,18 20,8 26,7 35,8 41,5 48,5 54,5 h 56 v -20 h -56 -54 l -48,-5 -41,-5 -30,-8 -26,-8 -15,-7 v -3 0 z"
   id="path158"
   inkscape:connector-curvature="0"
   style="fill:#000000;stroke:none" />
         <path
   d="m 10396,15348 v 0 43 38 28 15 h 20 v -15 -28 -38 -43 0 z"
   id="path160"
   inkscape:connector-curvature="0"
   style="fill:#000000;stroke:none" />
         <path
   d="m 10396,14991 v 0 82 94 94 87 h 20 v -87 -94 -94 -82 0 z"
   id="path162"
   inkscape:connector-curvature="0"
   style="fill:#000000;stroke:none" />
         <path
   d="m 10406,14877 -10,7 v 8 23 33 43 h 20 v -43 -33 -23 -8 l -10,8 v -18 l -10,3 v 7 z"
   id="path164"
   inkscape:connector-curvature="0"
   style="fill:#000000;stroke:none" />
         <path
   d="m 10979,14877 -10,-8 -563,8 v 15 l 563,-8 -10,-7 h 20 l -3,-10 h -7 z"
   id="path166"
   inkscape:connector-curvature="0"
   style="fill:#000000;stroke:none" />
         <path
   d="m 10724,15368 v -89 -94 -92 -81 l -41,10 -43,2 -46,3 -43,-3 -43,-5 -39,-7 -35,-11 -28,-10 v 82 94 94 87 l 20,12 36,10 43,8 49,5 h 48 l 48,-2 41,-6 z"
   id="path168"
   inkscape:connector-curvature="0"
   style="fill:#ffffff;stroke:none" />
         <path
   d="m 10727,15019 -13,-7 v 81 92 94 89 h 20 v -89 -94 -92 -81 l -12,-8 12,8 v -13 l -12,5 z"
   id="path170"
   inkscape:connector-curvature="0"
   style="fill:#000000;stroke:none" />
         <path
   d="m 10416,14991 -13,8 28,10 38,10 39,8 43,5 43,5 46,-5 43,-3 44,-10 -5,-15 -39,10 -43,3 h -46 -43 l -43,-5 -39,-8 -33,-10 -28,-10 -12,7 12,-7 -10,-5 -2,12 z"
   id="path172"
   inkscape:connector-curvature="0"
   style="fill:#000000;stroke:none" />
         <path
   d="m 10411,15342 5,6 v -87 -94 -94 -82 h -20 v 82 94 94 87 l 5,5 -5,-5 v 2 l 5,3 z"
   id="path174"
   inkscape:connector-curvature="0"
   style="fill:#000000;stroke:none" />
         <path
   d="m 10714,15368 8,-8 -31,8 -41,5 h -48 l -48,2 -49,-5 -43,-7 -33,-10 -18,-11 -10,11 23,15 38,10 43,8 49,5 48,2 48,-5 41,-5 36,-8 7,-7 -7,7 7,-2 v -5 z"
   id="path176"
   inkscape:connector-curvature="0"
   style="fill:#000000;stroke:none" />
         <path
   d="m 10686,14912 h -56 l -54,-2 -48,-5 -41,-5 -33,-8 -25,-8 -18,-7 -5,-10 5,-11 18,-7 25,-8 33,-8 41,-5 48,-5 54,-2 h 56 56 l 54,2 48,5 41,5 35,8 26,8 18,7 5,11 -5,10 -18,7 -26,8 -35,8 -41,5 -48,5 -54,2 z"
   id="path178"
   inkscape:connector-curvature="0"
   style="fill:#a5b7c9;stroke:none" />
         <path
   d="m 10396,14867 v 0 l 10,17 20,8 26,8 35,7 41,5 48,5 54,6 h 56 v -21 h -56 -54 l -48,-5 -41,-5 -30,-8 -26,-7 -15,-8 v -2 0 z"
   id="path180"
   inkscape:connector-curvature="0"
   style="fill:#000000;stroke:none" />
         <path
   d="m 10686,14811 v 0 h -56 l -54,5 -48,5 -41,5 -35,7 -26,8 -20,8 -10,18 h 20 v -3 l 15,-8 26,-7 30,-8 41,-5 48,-5 h 54 56 v 0 z"
   id="path182"
   inkscape:connector-curvature="0"
   style="fill:#000000;stroke:none" />
         <path
   d="m 10979,14867 v 0 l -10,-18 -21,-8 -28,-8 -35,-7 -41,-5 -48,-5 -54,-5 h -56 v 20 h 56 54 l 48,5 41,5 35,8 23,7 16,8 v 3 0 z"
   id="path184"
   inkscape:connector-curvature="0"
   style="fill:#000000;stroke:none" />
         <path
   d="m 10686,14923 v 0 h 56 l 54,-6 48,-5 41,-5 35,-7 28,-8 21,-8 10,-17 h -20 v 2 l -16,8 -23,7 -35,8 -41,5 -48,5 h -54 -56 v 0 z"
   id="path186"
   inkscape:connector-curvature="0"
   style="fill:#000000;stroke:none" />
         <path
   d="m 10969,14867 -5,10 -18,7 -26,8 -35,8 -41,5 -48,5 -54,2 h -56 -56 l -54,-2 -48,-5 -41,-5 -33,-8 -25,-8 -18,-7 -5,-10 -5,-3 -5,5 -3,8 v 10 l 5,10 18,8 28,7 38,8 43,5 49,5 56,3 h 56 56 l 56,-3 49,-5 43,-5 38,-8 28,-7 18,-8 5,-10 v -13 l -5,-7 -3,-3 z"
   id="path188"
   inkscape:connector-curvature="0"
   style="fill:#004cb2;stroke:none" />
         <path
   d="m 10686,14923 v 0 h 56 l 54,-6 48,-5 41,-5 35,-7 28,-8 21,-8 10,-17 h -20 v 2 l -16,8 -23,7 -35,8 -41,5 -48,5 h -54 -56 v 0 z"
   id="path190"
   inkscape:connector-curvature="0"
   style="fill:#000000;stroke:none" />
         <path
   d="m 10401,14872 -5,-5 10,17 20,8 26,8 35,7 41,5 48,5 54,6 h 56 v -21 h -56 -54 l -48,-5 -41,-5 -30,-8 -26,-7 -15,-8 v -2 l -5,-6 5,6 v -3 l -5,-3 z"
   id="path192"
   inkscape:connector-curvature="0"
   style="fill:#000000;stroke:none" />
         <path
   d="m 10403,14887 v 0 l -2,-10 2,-3 -2,-2 v 0 l 10,-11 -10,-5 -13,8 -3,13 -2,10 v 0 z"
   id="path194"
   inkscape:connector-curvature="0"
   style="fill:#000000;stroke:none" />
         <path
   d="m 10686,14923 v 0 h -56 -56 l -49,-6 -43,-5 -38,-7 -26,-8 -15,-8 v -2 h -20 l 10,18 20,7 31,8 38,8 43,5 49,5 56,5 h 56 v 0 z"
   id="path196"
   inkscape:connector-curvature="0"
   style="fill:#000000;stroke:none" />
         <path
   d="m 10969,14887 v 0 2 l -15,8 -26,8 -38,7 -43,5 -49,6 h -56 -56 v 20 h 56 l 56,-5 49,-5 43,-5 38,-8 31,-8 20,-7 10,-18 v 0 z"
   id="path198"
   inkscape:connector-curvature="0"
   style="fill:#000000;stroke:none" />
         <path
   d="m 10979,14867 -3,2 -5,5 -5,-2 5,2 -2,13 h 20 l -2,-13 -5,-13 -11,-7 -10,10 -2,3 2,-3 -2,3 v 0 z"
   id="path200"
   inkscape:connector-curvature="0"
   style="fill:#000000;stroke:none" />
         <path
   d="m 10686,14933 h -36 l -35,-3 h -33 l -31,-2 -31,-3 -25,-5 -26,-3 -23,-5 v 21 12 l -5,8 -5,8 -5,15 5,28 10,23 h 18 l 5,53 11,59 17,48 21,21 20,-16 16,-38 10,-46 5,-38 13,10 10,-2 10,-16 5,-35 3,5 5,28 2,36 v 15 l 26,10 23,-48 12,-66 3,-51 h 5 l 3,-5 -3,-8 z"
   id="path202"
   inkscape:connector-curvature="0"
   style="fill:#004cb2;stroke:none" />
         <path
   d="m 10454,14912 -8,8 23,5 26,3 25,5 31,2 31,5 h 33 l 35,3 h 36 v -20 h -36 l -35,-3 h -33 -31 l -31,-3 -25,-5 -26,-2 -23,-5 -7,7 7,-7 -10,-5 3,12 z"
   id="path204"
   inkscape:connector-curvature="0"
   style="fill:#000000;stroke:none" />
         <path
   d="m 10439,14968 2,-2 8,-8 5,-13 3,-12 -3,-21 h -15 l -3,21 3,12 -5,3 -3,8 3,-3 z"
   id="path206"
   inkscape:connector-curvature="0"
   style="fill:#000000;stroke:none" />
         <path
   d="m 10472,15027 -13,-8 h -7 l -8,-18 -3,-25 -2,-8 -5,-15 -13,23 8,31 12,27 h 28 l -12,-7 h 18 l -3,-18 -13,10 z"
   id="path208"
   inkscape:connector-curvature="0"
   style="fill:#000000;stroke:none" />
         <path
   d="m 10518,15197 v 0 l -13,-12 -18,-49 -10,-56 -5,-53 h -15 l 5,53 10,61 18,49 28,28 v 0 z"
   id="path210"
   inkscape:connector-curvature="0"
   style="fill:#000000;stroke:none" />
         <path
   d="m 10574,15062 -13,8 -5,38 -10,44 -15,35 -13,10 v 21 l 28,-21 15,-40 10,-49 5,-38 -12,8 10,-16 -10,-10 -3,18 z"
   id="path212"
   inkscape:connector-curvature="0"
   style="fill:#000000;stroke:none" />
         <path
   d="m 10599,15027 v 0 l -5,33 -7,10 -3,3 -10,-11 -10,16 15,10 18,-3 13,-20 5,-38 v 0 z"
   id="path214"
   inkscape:connector-curvature="0"
   style="fill:#000000;stroke:none" />
         <path
   d="m 10625,15106 v 5 l 2,-15 -5,-36 -5,-28 -18,-5 h 16 l -13,5 5,28 v 36 l 3,15 v 5 -5 2 3 z"
   id="path216"
   inkscape:connector-curvature="0"
   style="fill:#000000;stroke:none" />
         <path
   d="m 10683,14948 -10,8 -2,51 -13,63 -20,43 -13,-7 -15,10 38,13 25,-54 13,-68 3,-51 -11,7 5,-15 -12,-8 2,16 z"
   id="path218"
   inkscape:connector-curvature="0"
   style="fill:#000000;stroke:none" />
         <path
   d="m 10686,14943 -10,-10 2,10 v 8 l 3,-3 h 2 l -5,15 h 13 l 8,-12 -5,-8 2,-10 -10,-10 10,10 v -10 h -10 z"
   id="path220"
   inkscape:connector-curvature="0"
   style="fill:#000000;stroke:none" />
         <path
   d="m 10875,15042 -21,-2 -15,-8 -10,-10 -3,-15 3,-16 10,-12 15,-8 21,-3 17,3 16,8 10,12 2,16 -2,15 -10,10 -16,8 z"
   id="path222"
   inkscape:connector-curvature="0"
   style="fill:#d8d8d8;stroke:none" />
         <path
   d="m 10816,15007 v 0 l 5,17 13,16 18,7 23,5 v -20 h -18 l -13,-8 -8,-5 v -12 0 z"
   id="path224"
   inkscape:connector-curvature="0"
   style="fill:#000000;stroke:none" />
         <path
   d="m 10875,14958 v 0 l -23,5 -18,8 -13,18 -5,18 h 20 v -13 l 8,-8 13,-7 h 18 v 0 z"
   id="path226"
   inkscape:connector-curvature="0"
   style="fill:#000000;stroke:none" />
         <path
   d="m 10931,15007 v 0 l -6,-18 -12,-18 -18,-8 -20,-5 v 21 h 15 l 13,7 7,8 v 13 0 z"
   id="path228"
   inkscape:connector-curvature="0"
   style="fill:#000000;stroke:none" />
         <path
   d="m 10875,15052 v 0 l 20,-5 18,-7 12,-16 6,-17 h -21 v 12 l -7,5 -13,8 h -15 v 0 z"
   id="path230"
   inkscape:connector-curvature="0"
   style="fill:#000000;stroke:none" />
         <path
   d="m 10864,15004 -7,-76 -21,-67 -33,-56 -41,-45 -45,-36 -51,-25 -49,-16 -46,-5 -20,3 -15,7 -13,13 -8,15 -2,23 7,26 16,30 28,33 h -26 l -15,-20 -18,-25 -10,-28 -8,-28 3,-26 13,-20 28,-15 40,-6 51,6 51,15 54,25 48,38 43,49 34,58 23,72 7,84 -2,5 -5,2 -8,-2 z"
   id="path232"
   inkscape:connector-curvature="0"
   style="fill:#000000;stroke:none" />
         <path
   d="m 10571,14688 v 0 l 46,3 46,15 48,26 46,33 39,46 33,53 20,64 5,76 h 21 l -11,-76 -20,-69 -33,-59 -43,-45 -46,-39 -54,-25 -51,-15 -46,-8 v 0 z"
   id="path234"
   inkscape:connector-curvature="0"
   style="fill:#000000;stroke:none" />
         <path
   d="m 10564,14839 5,-16 -26,-33 -15,-28 -8,-23 3,-20 8,-13 10,-10 13,-8 h 17 v -20 l -23,5 -17,8 -16,15 -7,18 -3,25 8,28 15,33 31,33 5,-15 v 21 l 23,-3 -18,-13 z"
   id="path236"
   inkscape:connector-curvature="0"
   style="fill:#000000;stroke:none" />
         <path
   d="m 10533,14833 5,6 h 26 v -21 h -26 l 5,5 -10,10 3,6 h 2 z"
   id="path238"
   inkscape:connector-curvature="0"
   style="fill:#000000;stroke:none" />
         <path
   d="m 10571,14650 v 0 l -43,8 -31,15 -15,26 -2,28 7,30 10,28 18,28 18,20 10,-10 -12,-20 -18,-23 -10,-28 -8,-25 2,-23 11,-16 25,-15 38,-2 v 0 z"
   id="path240"
   inkscape:connector-curvature="0"
   style="fill:#000000;stroke:none" />
         <path
   d="m 10892,15007 v 0 l -10,-84 -23,-74 -33,-61 -46,-49 -48,-40 -56,-26 -54,-15 -51,-8 v 21 l 51,2 49,15 51,26 48,35 41,49 33,56 23,69 5,84 v 0 z"
   id="path242"
   inkscape:connector-curvature="0"
   style="fill:#000000;stroke:none" />
         <path
   d="m 10854,15004 v 0 l 8,13 13,7 10,-7 7,-10 h -20 3 v -3 l -3,3 3,-3 v 0 z"
   id="path244"
   inkscape:connector-curvature="0"
   style="fill:#000000;stroke:none" />
        </g>
       </g>
      </g>
     </g>
    </g>
   </g>
  </g>
 </g>
</svg>