<?xml version="1.0" encoding="UTF-8" standalone="no"?>
<svg
   xmlns:ooo="http://xml.openoffice.org/svg/export"
   xmlns:dc="http://purl.org/dc/elements/1.1/"
   xmlns:cc="http://creativecommons.org/ns#"
   xmlns:rdf="http://www.w3.org/1999/02/22-rdf-syntax-ns#"
   xmlns:svg="http://www.w3.org/2000/svg"
   xmlns="http://www.w3.org/2000/svg"
   xmlns:sodipodi="http://sodipodi.sourceforge.net/DTD/sodipodi-0.dtd"
   xmlns:inkscape="http://www.inkscape.org/namespaces/inkscape"
   version="1.2"
   width="17.98mm"
   height="17.98mm"
   viewBox="0 0 1798 1798"
   preserveAspectRatio="xMidYMid"
   xml:space="preserve"
   id="svg99"
   sodipodi:docname="palette.svg"
   style="fill-rule:evenodd;stroke-width:28.22200012;stroke-linejoin:round"
   inkscape:version="0.92.5 (2060ec1f9f, 2020-04-08)"><metadata
   id="metadata103"><rdf:RDF><cc:Work
       rdf:about=""><dc:format>image/svg+xml</dc:format><dc:type
         rdf:resource="http://purl.org/dc/dcmitype/StillImage" /></cc:Work></rdf:RDF></metadata><sodipodi:namedview
   pagecolor="#ffffff"
   bordercolor="#666666"
   borderopacity="1"
   objecttolerance="10"
   gridtolerance="10"
   guidetolerance="10"
   inkscape:pageopacity="0"
   inkscape:pageshadow="2"
   inkscape:window-width="664"
   inkscape:window-height="487"
   id="namedview101"
   showgrid="false"
   inkscape:zoom="0.2102413"
   inkscape:cx="33.977954"
   inkscape:cy="33.977951"
   inkscape:window-x="0"
   inkscape:window-y="0"
   inkscape:window-maximized="0"
   inkscape:current-layer="svg99" />
 <defs
   class="ClipPathGroup"
   id="defs8">
  <clipPath
   id="presentation_clip_path"
   clipPathUnits="userSpaceOnUse">
   <rect
   x="0"
   y="0"
   width="21000"
   height="29700"
   id="rect2" />
  </clipPath>
  <clipPath
   id="presentation_clip_path_shrink"
   clipPathUnits="userSpaceOnUse">
   <rect
   x="21"
   y="29"
   width="20958"
   height="29641"
   id="rect5" />
  </clipPath>
 </defs>
 <defs
   class="TextShapeIndex"
   id="defs12">
  <g
   ooo:slide="id1"
   ooo:id-list="id3"
   id="g10" />
 </defs>
 <defs
   class="EmbeddedBulletChars"
   id="defs44">
  <g
   id="bullet-char-template-57356"
   transform="matrix(4.8828125e-4,0,0,-4.8828125e-4,0,0)">
   <path
   d="M 580,1141 1163,571 580,0 -4,571 Z"
   id="path14"
   inkscape:connector-curvature="0" />
  </g>
  <g
   id="bullet-char-template-57354"
   transform="matrix(4.8828125e-4,0,0,-4.8828125e-4,0,0)">
   <path
   d="M 8,1128 H 1137 V 0 H 8 Z"
   id="path17"
   inkscape:connector-curvature="0" />
  </g>
  <g
   id="bullet-char-template-10146"
   transform="matrix(4.8828125e-4,0,0,-4.8828125e-4,0,0)">
   <path
   d="M 174,0 602,739 174,1481 1456,739 Z M 1358,739 309,1346 659,739 Z"
   id="path20"
   inkscape:connector-curvature="0" />
  </g>
  <g
   id="bullet-char-template-10132"
   transform="matrix(4.8828125e-4,0,0,-4.8828125e-4,0,0)">
   <path
   d="M 2015,739 1276,0 H 717 l 543,543 H 174 v 393 h 1086 l -543,545 h 557 z"
   id="path23"
   inkscape:connector-curvature="0" />
  </g>
  <g
   id="bullet-char-template-10007"
   transform="matrix(4.8828125e-4,0,0,-4.8828125e-4,0,0)">
   <path
   d="m 0,-2 c -7,16 -16,29 -25,39 l 381,530 c -94,256 -141,385 -141,387 0,25 13,38 40,38 9,0 21,-2 34,-5 21,4 42,12 65,25 l 27,-13 111,-251 280,301 64,-25 24,25 c 21,-10 41,-24 62,-43 C 886,937 835,863 770,784 769,783 710,716 594,584 L 774,223 c 0,-27 -21,-55 -63,-84 l 16,-20 C 717,90 699,76 672,76 641,76 570,178 457,381 L 164,-76 c -22,-34 -53,-51 -92,-51 -42,0 -63,17 -64,51 -7,9 -10,24 -10,44 0,9 1,19 2,30 z"
   id="path26"
   inkscape:connector-curvature="0" />
  </g>
  <g
   id="bullet-char-template-10004"
   transform="matrix(4.8828125e-4,0,0,-4.8828125e-4,0,0)">
   <path
   d="M 285,-33 C 182,-33 111,30 74,156 52,228 41,333 41,471 c 0,78 14,145 41,201 34,71 87,106 158,106 53,0 88,-31 106,-94 l 23,-176 c 8,-64 28,-97 59,-98 l 735,706 c 11,11 33,17 66,17 42,0 63,-15 63,-46 V 965 c 0,-36 -10,-64 -30,-84 L 442,47 C 390,-6 338,-33 285,-33 Z"
   id="path29"
   inkscape:connector-curvature="0" />
  </g>
  <g
   id="bullet-char-template-9679"
   transform="matrix(4.8828125e-4,0,0,-4.8828125e-4,0,0)">
   <path
   d="M 813,0 C 632,0 489,54 383,161 276,268 223,411 223,592 c 0,181 53,324 160,431 106,107 249,161 430,161 179,0 323,-54 432,-161 108,-107 162,-251 162,-431 0,-180 -54,-324 -162,-431 C 1136,54 992,0 813,0 Z"
   id="path32"
   inkscape:connector-curvature="0" />
  </g>
  <g
   id="bullet-char-template-8226"
   transform="matrix(4.8828125e-4,0,0,-4.8828125e-4,0,0)">
   <path
   d="m 346,457 c -73,0 -137,26 -191,78 -54,51 -81,114 -81,188 0,73 27,136 81,188 54,52 118,78 191,78 73,0 134,-26 185,-79 51,-51 77,-114 77,-187 0,-75 -25,-137 -76,-188 -50,-52 -112,-78 -186,-78 z"
   id="path35"
   inkscape:connector-curvature="0" />
  </g>
  <g
   id="bullet-char-template-8211"
   transform="matrix(4.8828125e-4,0,0,-4.8828125e-4,0,0)">
   <path
   d="M -4,459 H 1135 V 606 H -4 Z"
   id="path38"
   inkscape:connector-curvature="0" />
  </g>
  <g
   id="bullet-char-template-61548"
   transform="matrix(4.8828125e-4,0,0,-4.8828125e-4,0,0)">
   <path
   d="m 173,740 c 0,163 58,303 173,419 116,115 255,173 419,173 163,0 302,-58 418,-173 116,-116 174,-256 174,-419 0,-163 -58,-303 -174,-418 C 1067,206 928,148 765,148 601,148 462,206 346,322 231,437 173,577 173,740 Z"
   id="path41"
   inkscape:connector-curvature="0" />
  </g>
 </defs>
 <g
   id="g49"
   transform="translate(-9601,-13951)">
  <g
   id="id2"
   class="Master_Slide">
   <g
   id="bg-id2"
   class="Background" />
   <g
   id="bo-id2"
   class="BackgroundObjects" />
  </g>
 </g>
 <g
   class="SlideGroup"
   id="g97"
   transform="translate(-9601,-13951)">
  <g
   id="g95">
   <g
   id="container-id1">
    <g
   id="id1"
   class="Slide"
   clip-path="url(#presentation_clip_path)">
     <g
   class="Page"
   id="g91">
      <g
   class="Graphic"
   id="g89">
       <g
   id="id3">
        <rect
   class="BoundingBox"
   x="9601"
   y="13951"
   width="1798"
   height="1798"
   id="rect51"
   style="fill:none;stroke:none" />
        <defs
   id="defs56">
         <clipPath
   id="clip_path_1"
   clipPathUnits="userSpaceOnUse">
          <path
   d="m 9601,13951 h 1797 v 1797 H 9601 Z"
   id="path53"
   inkscape:connector-curvature="0" />
         </clipPath>
        </defs>
        <g
   clip-path="url(#clip_path_1)"
   id="g86">
         <path
   d="m 11096,15749 61,-5 56,-18 54,-28 43,-38 38,-43 28,-51 18,-56 5,-61 v -1198 l -5,-61 -18,-56 -28,-51 -38,-43 -43,-38 -54,-28 -56,-18 -61,-5 H 9901 l -61,5 -56,18 -51,28 -43,38 -38,43 -28,51 -18,56 -5,61 v 1198 l 5,61 18,56 28,51 38,43 43,38 51,28 56,18 61,5 z"
   id="path58"
   inkscape:connector-curvature="0"
   style="fill:#000000;stroke:none" />
         <path
   d="m 10255,14844 78,5 84,7 87,13 86,13 87,15 86,18 84,20 82,21 73,20 71,23 62,25 53,23 43,26 33,25 21,25 5,23 -16,16 -40,7 -59,5 h -66 -69 l -63,-2 -54,-3 -30,-2 h -43 l -38,5 -31,7 -25,11 -16,12 -5,15 5,13 16,13 12,8 16,7 20,10 18,11 18,12 15,15 10,18 2,21 -5,10 -20,10 -28,10 -41,8 -48,5 -58,5 h -67 l -73,-3 -49,-2 -56,-8 -58,-10 -66,-15 -66,-15 -69,-21 -69,-23 -66,-25 -63,-26 -59,-28 -56,-33 -46,-30 -38,-36 -28,-35 -17,-36 -6,-38 3,-15 5,-16 10,-15 13,-15 18,-15 20,-16 28,-15 28,-13 36,-10 38,-12 46,-8 48,-8 53,-5 59,-2 66,-3 z"
   id="path60"
   inkscape:connector-curvature="0"
   style="fill:#ffffff;stroke:none" />
         <path
   d="m 10832,15055 -26,-5 -25,-5 -23,-8 -20,-10 -15,-8 -11,-8 -2,-7 7,-3 13,-2 h 13 13 15 l 13,2 h 15 l 13,-2 12,-3 h 18 l 25,3 28,10 34,10 27,13 21,13 13,12 -3,13 -15,10 -21,8 -22,7 -26,3 -23,-3 -23,-5 -15,-15 z"
   id="path62"
   inkscape:connector-curvature="0"
   style="fill:#000000;stroke:none" />
         <path
   d="m 10534,15225 26,-2 h 25 l 23,5 18,5 15,7 10,11 3,7 -5,8 -10,5 -13,2 -15,3 -13,3 -15,2 -13,3 -13,2 -10,8 -18,5 -25,2 -36,-2 -35,-5 -33,-5 -26,-10 -18,-11 v -12 l 13,-13 20,-13 28,-10 31,-10 30,-3 h 26 l 20,5 z"
   id="path64"
   inkscape:connector-curvature="0"
   style="fill:#000000;stroke:none" />
         <path
   d="m 10219,15121 -18,-8 -23,-5 h -23 l -25,5 -23,8 -18,10 -12,10 -6,13 6,10 15,8 23,7 25,5 26,6 25,2 20,3 13,2 18,-5 10,-18 -2,-25 z"
   id="path66"
   inkscape:connector-curvature="0"
   style="fill:#000000;stroke:none" />
         <path
   d="m 9980,14917 13,-5 h 12 l 13,-2 10,2 10,3 8,5 8,5 5,8 28,7 20,13 5,13 -15,10 -15,2 -18,6 -18,2 h -18 -18 -15 l -15,-5 -10,-5 -16,-18 -10,-23 8,-18 z"
   id="path68"
   inkscape:connector-curvature="0"
   style="fill:#000000;stroke:none" />
         <path
   d="m 10260,14897 h 25 28 l 31,5 30,3 28,7 18,8 10,10 -2,13 -18,10 -26,10 -33,5 -35,5 h -36 -30 l -23,-5 -13,-5 -8,-18 5,-23 16,-17 z"
   id="path70"
   inkscape:connector-curvature="0"
   style="fill:#000000;stroke:none" />
         <path
   d="m 9949,15050 -17,-11 -23,-7 -26,-5 h -23 -25 l -18,5 -13,7 -5,11 5,10 11,5 15,2 20,3 21,5 20,3 18,7 15,13 8,5 h 10 l 12,-3 11,-5 7,-10 v -10 l -5,-13 z"
   id="path72"
   inkscape:connector-curvature="0"
   style="fill:#000000;stroke:none" />
         <path
   d="m 10583,14973 -11,-7 -7,-8 -5,-8 -5,-10 -21,3 -23,7 -20,13 -18,18 -18,20 -12,18 -13,20 -5,21 -13,28 -18,10 -22,5 h -18 l 7,8 11,5 15,5 15,5 h 18 15 l 18,-3 15,-5 18,-7 20,-13 21,-18 23,-18 15,-20 15,-23 5,-23 z"
   id="path74"
   inkscape:connector-curvature="0"
   style="fill:#000000;stroke:none" />
         <path
   d="m 10555,14940 580,-712 12,-10 18,-5 h 18 l 15,5 15,10 11,13 5,18 -3,20 -643,694 -13,-7 -8,-8 -5,-8 z"
   id="path76"
   inkscape:connector-curvature="0"
   style="fill:#ffffff;stroke:none" />
         <path
   d="m 11127,14221 v 0 l -580,712 15,15 580,-712 v 0 z"
   id="path78"
   inkscape:connector-curvature="0"
   style="fill:#000000;stroke:none" />
         <path
   d="m 11234,14287 2,-5 3,-23 -5,-23 -13,-15 -18,-13 -20,-5 h -18 l -23,5 -15,13 15,15 10,-8 13,-5 h 18 l 10,5 13,8 7,10 5,13 -2,18 2,-6 z"
   id="path80"
   inkscape:connector-curvature="0"
   style="fill:#000000;stroke:none" />
         <path
   d="m 10578,14984 12,-3 644,-694 -16,-16 -643,695 13,-3 -10,21 5,5 7,-8 z"
   id="path82"
   inkscape:connector-curvature="0"
   style="fill:#000000;stroke:none" />
         <path
   d="m 10547,14933 -2,7 2,13 8,13 10,7 13,11 10,-21 -13,-5 -5,-8 -3,-2 -2,-8 -3,8 -15,-15 -5,5 3,2 z"
   id="path84"
   inkscape:connector-curvature="0"
   style="fill:#000000;stroke:none" />
        </g>
       </g>
      </g>
     </g>
    </g>
   </g>
  </g>
 </g>
</svg>