<?xml version="1.0" encoding="UTF-8" standalone="no"?>
<svg
   xmlns:ooo="http://xml.openoffice.org/svg/export"
   xmlns:dc="http://purl.org/dc/elements/1.1/"
   xmlns:cc="http://creativecommons.org/ns#"
   xmlns:rdf="http://www.w3.org/1999/02/22-rdf-syntax-ns#"
   xmlns:svg="http://www.w3.org/2000/svg"
   xmlns="http://www.w3.org/2000/svg"
   xmlns:sodipodi="http://sodipodi.sourceforge.net/DTD/sodipodi-0.dtd"
   xmlns:inkscape="http://www.inkscape.org/namespaces/inkscape"
   version="1.2"
   width="17.93mm"
   height="24.539999mm"
   viewBox="0 0 1793 2453.9999"
   preserveAspectRatio="xMidYMid"
   xml:space="preserve"
   id="svg123"
   sodipodi:docname="palmtre.svg"
   style="fill-rule:evenodd;stroke-width:28.22200012;stroke-linejoin:round"
   inkscape:version="0.92.5 (2060ec1f9f, 2020-04-08)"><metadata
   id="metadata127"><rdf:RDF><cc:Work
       rdf:about=""><dc:format>image/svg+xml</dc:format><dc:type
         rdf:resource="http://purl.org/dc/dcmitype/StillImage" /></cc:Work></rdf:RDF></metadata><sodipodi:namedview
   pagecolor="#ffffff"
   bordercolor="#666666"
   borderopacity="1"
   objecttolerance="10"
   gridtolerance="10"
   guidetolerance="10"
   inkscape:pageopacity="0"
   inkscape:pageshadow="2"
   inkscape:window-width="664"
   inkscape:window-height="487"
   id="namedview125"
   showgrid="false"
   inkscape:zoom="0.2102413"
   inkscape:cx="33.902363"
   inkscape:cy="46.374802"
   inkscape:window-x="0"
   inkscape:window-y="0"
   inkscape:window-maximized="0"
   inkscape:current-layer="svg123" />
 <defs
   class="ClipPathGroup"
   id="defs8">
  <clipPath
   id="presentation_clip_path"
   clipPathUnits="userSpaceOnUse">
   <rect
   x="0"
   y="0"
   width="21000"
   height="29700"
   id="rect2" />
  </clipPath>
  <clipPath
   id="presentation_clip_path_shrink"
   clipPathUnits="userSpaceOnUse">
   <rect
   x="21"
   y="29"
   width="20958"
   height="29641"
   id="rect5" />
  </clipPath>
 </defs>
 <defs
   class="TextShapeIndex"
   id="defs12">
  <g
   ooo:slide="id1"
   ooo:id-list="id3"
   id="g10" />
 </defs>
 <defs
   class="EmbeddedBulletChars"
   id="defs44">
  <g
   id="bullet-char-template-57356"
   transform="matrix(4.8828125e-4,0,0,-4.8828125e-4,0,0)">
   <path
   d="M 580,1141 1163,571 580,0 -4,571 Z"
   id="path14"
   inkscape:connector-curvature="0" />
  </g>
  <g
   id="bullet-char-template-57354"
   transform="matrix(4.8828125e-4,0,0,-4.8828125e-4,0,0)">
   <path
   d="M 8,1128 H 1137 V 0 H 8 Z"
   id="path17"
   inkscape:connector-curvature="0" />
  </g>
  <g
   id="bullet-char-template-10146"
   transform="matrix(4.8828125e-4,0,0,-4.8828125e-4,0,0)">
   <path
   d="M 174,0 602,739 174,1481 1456,739 Z M 1358,739 309,1346 659,739 Z"
   id="path20"
   inkscape:connector-curvature="0" />
  </g>
  <g
   id="bullet-char-template-10132"
   transform="matrix(4.8828125e-4,0,0,-4.8828125e-4,0,0)">
   <path
   d="M 2015,739 1276,0 H 717 l 543,543 H 174 v 393 h 1086 l -543,545 h 557 z"
   id="path23"
   inkscape:connector-curvature="0" />
  </g>
  <g
   id="bullet-char-template-10007"
   transform="matrix(4.8828125e-4,0,0,-4.8828125e-4,0,0)">
   <path
   d="m 0,-2 c -7,16 -16,29 -25,39 l 381,530 c -94,256 -141,385 -141,387 0,25 13,38 40,38 9,0 21,-2 34,-5 21,4 42,12 65,25 l 27,-13 111,-251 280,301 64,-25 24,25 c 21,-10 41,-24 62,-43 C 886,937 835,863 770,784 769,783 710,716 594,584 L 774,223 c 0,-27 -21,-55 -63,-84 l 16,-20 C 717,90 699,76 672,76 641,76 570,178 457,381 L 164,-76 c -22,-34 -53,-51 -92,-51 -42,0 -63,17 -64,51 -7,9 -10,24 -10,44 0,9 1,19 2,30 z"
   id="path26"
   inkscape:connector-curvature="0" />
  </g>
  <g
   id="bullet-char-template-10004"
   transform="matrix(4.8828125e-4,0,0,-4.8828125e-4,0,0)">
   <path
   d="M 285,-33 C 182,-33 111,30 74,156 52,228 41,333 41,471 c 0,78 14,145 41,201 34,71 87,106 158,106 53,0 88,-31 106,-94 l 23,-176 c 8,-64 28,-97 59,-98 l 735,706 c 11,11 33,17 66,17 42,0 63,-15 63,-46 V 965 c 0,-36 -10,-64 -30,-84 L 442,47 C 390,-6 338,-33 285,-33 Z"
   id="path29"
   inkscape:connector-curvature="0" />
  </g>
  <g
   id="bullet-char-template-9679"
   transform="matrix(4.8828125e-4,0,0,-4.8828125e-4,0,0)">
   <path
   d="M 813,0 C 632,0 489,54 383,161 276,268 223,411 223,592 c 0,181 53,324 160,431 106,107 249,161 430,161 179,0 323,-54 432,-161 108,-107 162,-251 162,-431 0,-180 -54,-324 -162,-431 C 1136,54 992,0 813,0 Z"
   id="path32"
   inkscape:connector-curvature="0" />
  </g>
  <g
   id="bullet-char-template-8226"
   transform="matrix(4.8828125e-4,0,0,-4.8828125e-4,0,0)">
   <path
   d="m 346,457 c -73,0 -137,26 -191,78 -54,51 -81,114 -81,188 0,73 27,136 81,188 54,52 118,78 191,78 73,0 134,-26 185,-79 51,-51 77,-114 77,-187 0,-75 -25,-137 -76,-188 -50,-52 -112,-78 -186,-78 z"
   id="path35"
   inkscape:connector-curvature="0" />
  </g>
  <g
   id="bullet-char-template-8211"
   transform="matrix(4.8828125e-4,0,0,-4.8828125e-4,0,0)">
   <path
   d="M -4,459 H 1135 V 606 H -4 Z"
   id="path38"
   inkscape:connector-curvature="0" />
  </g>
  <g
   id="bullet-char-template-61548"
   transform="matrix(4.8828125e-4,0,0,-4.8828125e-4,0,0)">
   <path
   d="m 173,740 c 0,163 58,303 173,419 116,115 255,173 419,173 163,0 302,-58 418,-173 116,-116 174,-256 174,-419 0,-163 -58,-303 -174,-418 C 1067,206 928,148 765,148 601,148 462,206 346,322 231,437 173,577 173,740 Z"
   id="path41"
   inkscape:connector-curvature="0" />
  </g>
 </defs>
 <g
   id="g49"
   transform="translate(-9603,-13623)">
  <g
   id="id2"
   class="Master_Slide">
   <g
   id="bg-id2"
   class="Background" />
   <g
   id="bo-id2"
   class="BackgroundObjects" />
  </g>
 </g>
 <g
   class="SlideGroup"
   id="g121"
   transform="translate(-9603,-13623)">
  <g
   id="g119">
   <g
   id="container-id1">
    <g
   id="id1"
   class="Slide"
   clip-path="url(#presentation_clip_path)">
     <g
   class="Page"
   id="g115">
      <g
   class="Graphic"
   id="g113">
       <g
   id="id3">
        <rect
   class="BoundingBox"
   x="9603"
   y="13623"
   width="1793"
   height="2454"
   id="rect51"
   style="fill:none;stroke:none" />
        <defs
   id="defs56">
         <clipPath
   id="clip_path_1"
   clipPathUnits="userSpaceOnUse">
          <path
   d="m 9603,13623 h 1792 v 2453 H 9603 Z"
   id="path53"
   inkscape:connector-curvature="0" />
         </clipPath>
        </defs>
        <g
   clip-path="url(#clip_path_1)"
   id="g110">
         <path
   d="m 11279,13778 -74,-33 -145,46 -53,-43 -137,15 -64,-41 -170,66 -26,-28 -160,-2 84,48 -178,-15 -115,-31 -218,46 -97,-28 -193,54 23,213 -36,89 23,305 -33,61 33,28 -5,285 -49,51 v 130 l 36,-66 8,353 -41,-41 69,349 -36,15 31,165 -46,115 51,43 -89,92 193,-54 97,28 218,-46 112,31 181,15 -84,-48 163,2 25,28 168,-66 64,43 137,-17 53,43 145,-46 74,33 3,-132 -49,-43 36,-72 5,-315 -36,-8 44,-71 v -442 l 38,-38 -36,-44 -23,-249 36,8 -18,-295 46,-155 -74,89 41,-260 z"
   id="path58"
   inkscape:connector-curvature="0"
   style="fill:#000000;stroke:none" />
         <path
   d="m 9669,15701 -23,-18 26,-102 23,-33 z"
   id="path60"
   inkscape:connector-curvature="0"
   style="fill:#000000;stroke:none" />
         <path
   d="m 9705,15520 -102,-147 25,-54 z"
   id="path62"
   inkscape:connector-curvature="0"
   style="fill:#000000;stroke:none" />
         <path
   d="m 9654,14950 -36,-71 h 36 z"
   id="path64"
   inkscape:connector-curvature="0"
   style="fill:#000000;stroke:none" />
         <path
   d="m 9664,14846 -5,-414 36,145 z"
   id="path66"
   inkscape:connector-curvature="0"
   style="fill:#000000;stroke:none" />
         <path
   d="m 9702,14045 -48,-275 48,36 z"
   id="path68"
   inkscape:connector-curvature="0"
   style="fill:#000000;stroke:none" />
         <path
   d="m 9812,13760 28,-45 22,48 z"
   id="path70"
   inkscape:connector-curvature="0"
   style="fill:#000000;stroke:none" />
         <path
   d="m 10076,16031 69,-51 249,54 -242,-23 z"
   id="path72"
   inkscape:connector-curvature="0"
   style="fill:#000000;stroke:none" />
         <path
   d="m 10641,15983 152,-5 150,18 -119,25 -41,-23 -140,31 z"
   id="path74"
   inkscape:connector-curvature="0"
   style="fill:#000000;stroke:none" />
         <path
   d="m 10109,13725 81,-33 229,25 18,31 -234,-31 z"
   id="path76"
   inkscape:connector-curvature="0"
   style="fill:#000000;stroke:none" />
         <path
   d="m 11271,13697 -211,38 181,-84 z"
   id="path78"
   inkscape:connector-curvature="0"
   style="fill:#000000;stroke:none" />
         <path
   d="m 10658,13664 112,15 -112,46 z"
   id="path80"
   inkscape:connector-curvature="0"
   style="fill:#000000;stroke:none" />
         <path
   d="m 11159,16006 -5,46 -117,-28 41,-23 z"
   id="path82"
   inkscape:connector-curvature="0"
   style="fill:#000000;stroke:none" />
         <path
   d="m 11299,13623 39,102 -31,435 89,-425 z"
   id="path84"
   inkscape:connector-curvature="0"
   style="fill:#000000;stroke:none" />
         <path
   d="m 11289,14205 76,222 -58,45 20,72 -38,20 z"
   id="path86"
   inkscape:connector-curvature="0"
   style="fill:#000000;stroke:none" />
         <path
   d="m 11292,14925 56,356 -66,-5 z"
   id="path88"
   inkscape:connector-curvature="0"
   style="fill:#000000;stroke:none" />
         <path
   d="m 11325,15507 -54,-114 49,-13 z"
   id="path90"
   inkscape:connector-curvature="0"
   style="fill:#000000;stroke:none" />
         <path
   d="m 9766,16064 129,-33 8,46 z"
   id="path92"
   inkscape:connector-curvature="0"
   style="fill:#000000;stroke:none" />
         <path
   d="m 11302,15912 v -122 l -43,-16 38,-61 61,44 z"
   id="path94"
   inkscape:connector-curvature="0"
   style="fill:#000000;stroke:none" />
         <path
   d="m 10297,15123 -79,-43 -104,196 -18,-94 -7,-79 2,-64 8,-48 10,-41 15,-30 13,-25 10,-23 21,-36 28,-38 35,-38 38,-44 36,-40 30,-43 21,-44 7,-40 -15,7 -15,8 -15,13 -16,12 -12,16 -13,17 -10,18 -8,18 -61,-15 -43,91 -94,-7 -36,81 -23,-15 -20,-21 -23,-17 -23,-21 -25,-15 -28,-13 -28,-5 -33,3 18,-33 22,-28 28,-26 31,-23 38,-17 38,-18 41,-15 43,-11 41,-10 43,-7 41,-8 38,-3 33,-2 33,-3 h 25 21 l -8,-15 -15,-15 -18,-13 -20,-13 -23,-12 -23,-10 -18,-11 -18,-7 h -94 l -84,-84 -58,94 -5,-3 -15,-10 -23,-13 -26,-17 -30,-16 -28,-12 -26,-11 -18,-2 28,-25 33,-28 39,-28 35,-26 36,-23 30,-18 23,-12 13,-5 13,-3 20,-2 28,-3 33,-3 31,-2 h 28 l 25,2 15,3 5,25 -17,44 -23,40 -11,18 3,-2 10,-3 15,-5 18,-8 18,-5 18,-5 h 15 10 l 8,8 10,10 13,18 10,18 13,22 10,28 10,28 5,28 10,-61 13,-84 20,-81 26,-56 15,-20 18,-23 23,-26 25,-22 31,-21 38,-12 46,-6 56,11 -18,17 -21,23 -22,23 -18,23 -21,23 -15,23 -13,18 -7,15 28,81 -155,288 35,28 36,35 33,38 33,44 28,45 23,54 15,58 10,64 -61,81 51,82 -97,76 112,112 -99,40 82,171 -117,-5 127,272 -397,-165 51,-87 56,-114 51,-135 43,-140 28,-142 10,-133 -15,-114 -46,-87 -13,49 -5,56 v 63 l 5,72 -107,-23 49,129 -94,11 z"
   id="path96"
   inkscape:connector-curvature="0"
   style="fill:#ffffff;stroke:none" />
         <path
   d="m 10536,14467 16,-28 17,-28 23,-30 26,-33 28,-31 30,-28 33,-28 36,-25 38,-20 41,-16 40,-10 41,-2 43,5 44,12 45,23 44,33 -168,196 -117,-41 -87,92 -17,-15 -21,-13 -20,-8 -23,-7 -25,-3 h -23 l -23,3 z"
   id="path98"
   inkscape:connector-curvature="0"
   style="fill:#ffffff;stroke:none" />
         <path
   d="m 10541,14556 39,-7 38,-3 35,3 36,5 36,10 33,15 30,21 31,25 25,28 23,36 18,38 15,45 13,49 7,53 v 59 l -2,63 -176,-119 -5,-41 -10,-43 -20,-49 -26,-45 -30,-44 -33,-40 -38,-33 z"
   id="path100"
   inkscape:connector-curvature="0"
   style="fill:#ffffff;stroke:none" />
         <path
   d="m 10432,14261 54,-140 12,107 -18,-7 -17,7 -18,15 z"
   id="path102"
   inkscape:connector-curvature="0"
   style="fill:#000000;stroke:none" />
         <path
   d="m 10786,14310 127,-26 -49,79 -2,-10 -8,-10 -7,-8 -11,-8 -12,-7 -13,-5 -13,-3 z"
   id="path104"
   inkscape:connector-curvature="0"
   style="fill:#000000;stroke:none" />
         <path
   d="m 9944,14676 13,-18 17,-15 21,-16 23,-12 20,-10 20,-8 18,-5 13,-3 -15,11 -13,15 -15,18 -13,17 -13,21 -10,18 -8,17 -5,16 -18,-13 -12,-13 -13,-13 z"
   id="path106"
   inkscape:connector-curvature="0"
   style="fill:#000000;stroke:none" />
         <path
   d="m 10834,14739 20,33 18,46 10,51 5,38 -7,8 -18,-18 -20,-23 -8,-13 5,-10 5,-28 3,-38 z"
   id="path108"
   inkscape:connector-curvature="0"
   style="fill:#000000;stroke:none" />
        </g>
       </g>
      </g>
     </g>
    </g>
   </g>
  </g>
 </g>
</svg>