<?xml version="1.0" encoding="UTF-8" standalone="no"?>
<svg
   xmlns:ooo="http://xml.openoffice.org/svg/export"
   xmlns:dc="http://purl.org/dc/elements/1.1/"
   xmlns:cc="http://creativecommons.org/ns#"
   xmlns:rdf="http://www.w3.org/1999/02/22-rdf-syntax-ns#"
   xmlns:svg="http://www.w3.org/2000/svg"
   xmlns="http://www.w3.org/2000/svg"
   xmlns:sodipodi="http://sodipodi.sourceforge.net/DTD/sodipodi-0.dtd"
   xmlns:inkscape="http://www.inkscape.org/namespaces/inkscape"
   version="1.2"
   width="25.120001mm"
   height="26.01mm"
   viewBox="0 0 2512.0001 2601"
   preserveAspectRatio="xMidYMid"
   xml:space="preserve"
   id="svg204"
   sodipodi:docname="paprclps.svg"
   style="fill-rule:evenodd;stroke-width:28.22200012;stroke-linejoin:round"
   inkscape:version="0.92.5 (2060ec1f9f, 2020-04-08)"><metadata
   id="metadata208"><rdf:RDF><cc:Work
       rdf:about=""><dc:format>image/svg+xml</dc:format><dc:type
         rdf:resource="http://purl.org/dc/dcmitype/StillImage" /></cc:Work></rdf:RDF></metadata><sodipodi:namedview
   pagecolor="#ffffff"
   bordercolor="#666666"
   borderopacity="1"
   objecttolerance="10"
   gridtolerance="10"
   guidetolerance="10"
   inkscape:pageopacity="0"
   inkscape:pageshadow="2"
   inkscape:window-width="664"
   inkscape:window-height="487"
   id="namedview206"
   showgrid="false"
   inkscape:zoom="0.2102413"
   inkscape:cx="47.470867"
   inkscape:cy="49.133857"
   inkscape:window-x="0"
   inkscape:window-y="0"
   inkscape:window-maximized="0"
   inkscape:current-layer="svg204" />
 <defs
   class="ClipPathGroup"
   id="defs8">
  <clipPath
   id="presentation_clip_path"
   clipPathUnits="userSpaceOnUse">
   <rect
   x="0"
   y="0"
   width="21000"
   height="29700"
   id="rect2" />
  </clipPath>
  <clipPath
   id="presentation_clip_path_shrink"
   clipPathUnits="userSpaceOnUse">
   <rect
   x="21"
   y="29"
   width="20958"
   height="29641"
   id="rect5" />
  </clipPath>
 </defs>
 <defs
   class="TextShapeIndex"
   id="defs12">
  <g
   ooo:slide="id1"
   ooo:id-list="id3"
   id="g10" />
 </defs>
 <defs
   class="EmbeddedBulletChars"
   id="defs44">
  <g
   id="bullet-char-template-57356"
   transform="matrix(4.8828125e-4,0,0,-4.8828125e-4,0,0)">
   <path
   d="M 580,1141 1163,571 580,0 -4,571 Z"
   id="path14"
   inkscape:connector-curvature="0" />
  </g>
  <g
   id="bullet-char-template-57354"
   transform="matrix(4.8828125e-4,0,0,-4.8828125e-4,0,0)">
   <path
   d="M 8,1128 H 1137 V 0 H 8 Z"
   id="path17"
   inkscape:connector-curvature="0" />
  </g>
  <g
   id="bullet-char-template-10146"
   transform="matrix(4.8828125e-4,0,0,-4.8828125e-4,0,0)">
   <path
   d="M 174,0 602,739 174,1481 1456,739 Z M 1358,739 309,1346 659,739 Z"
   id="path20"
   inkscape:connector-curvature="0" />
  </g>
  <g
   id="bullet-char-template-10132"
   transform="matrix(4.8828125e-4,0,0,-4.8828125e-4,0,0)">
   <path
   d="M 2015,739 1276,0 H 717 l 543,543 H 174 v 393 h 1086 l -543,545 h 557 z"
   id="path23"
   inkscape:connector-curvature="0" />
  </g>
  <g
   id="bullet-char-template-10007"
   transform="matrix(4.8828125e-4,0,0,-4.8828125e-4,0,0)">
   <path
   d="m 0,-2 c -7,16 -16,29 -25,39 l 381,530 c -94,256 -141,385 -141,387 0,25 13,38 40,38 9,0 21,-2 34,-5 21,4 42,12 65,25 l 27,-13 111,-251 280,301 64,-25 24,25 c 21,-10 41,-24 62,-43 C 886,937 835,863 770,784 769,783 710,716 594,584 L 774,223 c 0,-27 -21,-55 -63,-84 l 16,-20 C 717,90 699,76 672,76 641,76 570,178 457,381 L 164,-76 c -22,-34 -53,-51 -92,-51 -42,0 -63,17 -64,51 -7,9 -10,24 -10,44 0,9 1,19 2,30 z"
   id="path26"
   inkscape:connector-curvature="0" />
  </g>
  <g
   id="bullet-char-template-10004"
   transform="matrix(4.8828125e-4,0,0,-4.8828125e-4,0,0)">
   <path
   d="M 285,-33 C 182,-33 111,30 74,156 52,228 41,333 41,471 c 0,78 14,145 41,201 34,71 87,106 158,106 53,0 88,-31 106,-94 l 23,-176 c 8,-64 28,-97 59,-98 l 735,706 c 11,11 33,17 66,17 42,0 63,-15 63,-46 V 965 c 0,-36 -10,-64 -30,-84 L 442,47 C 390,-6 338,-33 285,-33 Z"
   id="path29"
   inkscape:connector-curvature="0" />
  </g>
  <g
   id="bullet-char-template-9679"
   transform="matrix(4.8828125e-4,0,0,-4.8828125e-4,0,0)">
   <path
   d="M 813,0 C 632,0 489,54 383,161 276,268 223,411 223,592 c 0,181 53,324 160,431 106,107 249,161 430,161 179,0 323,-54 432,-161 108,-107 162,-251 162,-431 0,-180 -54,-324 -162,-431 C 1136,54 992,0 813,0 Z"
   id="path32"
   inkscape:connector-curvature="0" />
  </g>
  <g
   id="bullet-char-template-8226"
   transform="matrix(4.8828125e-4,0,0,-4.8828125e-4,0,0)">
   <path
   d="m 346,457 c -73,0 -137,26 -191,78 -54,51 -81,114 -81,188 0,73 27,136 81,188 54,52 118,78 191,78 73,0 134,-26 185,-79 51,-51 77,-114 77,-187 0,-75 -25,-137 -76,-188 -50,-52 -112,-78 -186,-78 z"
   id="path35"
   inkscape:connector-curvature="0" />
  </g>
  <g
   id="bullet-char-template-8211"
   transform="matrix(4.8828125e-4,0,0,-4.8828125e-4,0,0)">
   <path
   d="M -4,459 H 1135 V 606 H -4 Z"
   id="path38"
   inkscape:connector-curvature="0" />
  </g>
  <g
   id="bullet-char-template-61548"
   transform="matrix(4.8828125e-4,0,0,-4.8828125e-4,0,0)">
   <path
   d="m 173,740 c 0,163 58,303 173,419 116,115 255,173 419,173 163,0 302,-58 418,-173 116,-116 174,-256 174,-419 0,-163 -58,-303 -174,-418 C 1067,206 928,148 765,148 601,148 462,206 346,322 231,437 173,577 173,740 Z"
   id="path41"
   inkscape:connector-curvature="0" />
  </g>
 </defs>
 <g
   id="g49"
   transform="translate(-9244,-13549)">
  <g
   id="id2"
   class="Master_Slide">
   <g
   id="bg-id2"
   class="Background" />
   <g
   id="bo-id2"
   class="BackgroundObjects" />
  </g>
 </g>
 <g
   class="SlideGroup"
   id="g202"
   transform="translate(-9244,-13549)">
  <g
   id="g200">
   <g
   id="container-id1">
    <g
   id="id1"
   class="Slide"
   clip-path="url(#presentation_clip_path)">
     <g
   class="Page"
   id="g196">
      <g
   class="Graphic"
   id="g194">
       <g
   id="id3">
        <rect
   class="BoundingBox"
   x="9244"
   y="13549"
   width="2512"
   height="2601"
   id="rect51"
   style="fill:none;stroke:none" />
        <path
   d="m 9862,15458 -8,-43 -33,-170 -35,-181 -36,-178 -33,-173 -31,-152 -25,-130 -18,-94 -10,-53 53,-8 5,31 18,81 23,125 33,155 33,178 38,190 39,191 35,183 h 5 5 5 5 v -8 l -2,-7 v -5 l -3,-8 -15,-84 -23,-104 -23,-119 -23,-123 -22,-114 -18,-91 -13,-67 -5,-22 38,-8 5,30 15,77 23,112 26,127 25,129 23,117 18,87 8,43 2,8 3,7 2,10 3,11 33,-3 38,-3 35,-2 41,-3 38,-2 41,-3 43,-2 41,-3 -10,43 -280,18 8,13 10,10 10,13 13,10 12,8 13,7 15,5 18,5 13,-10 15,-12 15,-11 21,-7 20,-8 23,-7 28,-6 28,-2 h 2 v 0 h 3 v 0 l 3,-5 5,-8 2,-5 3,-8 10,-43 2,-18 v -17 l -2,-18 -3,-18 -7,-41 -13,-71 -20,-96 -23,-120 -26,-130 -28,-134 -25,-138 -25,-129 -34,-16 -35,-15 -31,-15 -33,-15 -30,-16 -31,-12 -30,-16 -28,-12 -26,-13 -28,-13 -22,-10 -23,-13 -23,-10 -21,-7 -17,-11 -18,-7 v 5 5 5 l 2,5 -53,8 -3,-13 -2,-15 -3,-15 -2,-13 h -3 v 0 0 -3 l -53,-25 -51,-28 -46,-33 -38,-41 -28,-43 -15,-53 5,-64 23,-71 58,33 -12,30 -8,31 -3,30 6,33 17,34 31,33 46,35 63,36 59,30 12,5 16,8 17,8 21,10 20,10 26,10 25,13 25,13 28,12 31,13 33,15 30,15 36,16 33,18 38,15 36,18 -3,-8 v -5 l -2,-8 v -5 l -18,-10 -18,-8 -13,-5 -12,-5 -10,-5 -8,-2 -3,-3 h -2 l 18,-38 2,2 13,6 18,7 23,13 -13,-64 -10,-51 -8,-38 -5,-23 -13,-50 -20,-41 -26,-31 -27,-25 -34,-15 -38,-8 h -38 l -43,5 -28,8 -28,7 -25,16 -23,17 -18,28 -10,36 -8,46 3,58 -59,-30 v -43 l 3,-41 10,-38 18,-36 23,-33 35,-25 43,-23 56,-16 36,-5 41,3 40,8 44,17 40,31 36,43 30,56 23,76 5,26 8,43 10,58 15,74 36,18 41,18 40,20 46,20 43,21 46,23 46,20 43,20 41,21 40,17 36,18 33,13 28,13 20,10 16,8 10,5 18,7 25,8 31,5 h 35 l 33,-8 36,-15 30,-28 26,-41 12,-38 5,-35 -5,-33 -12,-31 -16,-25 -22,-23 -26,-18 -28,-15 -25,-10 -41,-21 -58,-28 -69,-30 -79,-38 -86,-41 -94,-43 -94,-43 -95,-46 -91,-41 -87,-41 -78,-38 -69,-30 -56,-28 -41,-18 -22,-10 -49,-21 -46,-7 h -40 l -36,10 -33,18 -28,25 -25,33 -21,36 -58,-33 18,-31 25,-33 31,-28 40,-25 46,-15 56,-5 66,10 74,28 23,10 40,20 54,26 66,30 76,36 84,38 89,41 92,43 91,43 92,43 86,38 79,38 71,34 61,27 46,23 33,16 61,38 43,38 26,43 10,41 2,38 -5,33 -7,23 -5,15 -18,33 -23,33 -28,26 -36,20 -38,13 -46,2 -53,-10 -58,-20 -23,-10 -26,-13 -28,-13 -33,-15 -33,-15 -35,-18 -36,-18 -36,-18 -38,-18 -38,-17 -38,-18 -38,-18 -36,-15 -35,-18 -36,-15 -30,-16 2,8 v 5 8 l 3,5 71,33 71,33 74,36 73,33 72,35 71,33 68,33 69,31 64,30 58,28 56,26 51,25 43,21 38,17 33,16 23,10 64,25 58,15 51,3 46,-5 38,-18 33,-28 31,-38 25,-46 20,-48 8,-46 v -43 l -10,-38 -23,-38 -36,-33 -45,-33 -61,-33 -1091,-512 18,-38 10,5 33,16 48,23 64,30 76,36 86,38 94,43 97,46 97,46 96,45 94,44 84,40 77,36 63,28 51,23 31,15 38,20 43,23 43,33 36,41 28,48 12,61 -7,74 -31,86 -48,74 -56,48 -58,23 -62,8 -58,-5 -51,-13 -41,-15 -27,-13 -11,-5 -23,-10 -27,-13 -39,-18 -45,-22 -54,-23 -56,-28 -63,-28 -66,-33 -72,-33 -73,-33 -77,-36 -76,-36 -76,-35 -76,-36 -77,-35 26,122 25,127 26,129 22,122 23,112 18,94 15,74 8,48 5,21 3,20 v 18 18 h 7 l 8,-3 h 8 10 l -160,-811 43,-8 5,21 10,58 18,87 20,109 26,127 28,137 28,140 25,138 56,-3 56,-5 53,-3 54,-2 50,-5 49,-3 46,-2 43,-3 38,-2 35,-3 34,-2 25,-3 h 23 l 15,-3 h 10 3 l 2,44 -584,38 2,5 v 5 8 l 3,5 63,-5 69,-3 74,-5 78,-5 82,-5 81,-5 81,-5 79,-5 77,-6 73,-5 66,-5 61,-2 51,-5 44,-3 h 30 l 20,-2 79,2 64,15 51,23 38,33 28,36 17,38 13,38 5,36 -5,76 -18,61 -33,43 -43,33 -48,23 -56,13 -59,8 -58,5 h -18 l -25,2 -33,3 -41,2 -46,3 -53,5 -59,2 -63,6 -69,2 -69,5 -73,5 -77,5 -76,5 -76,6 -79,5 -76,5 2,-56 82,-5 84,-5 81,-5 81,-6 82,-5 76,-5 71,-5 71,-5 64,-2 56,-6 51,-2 43,-3 36,-2 h 25 l 18,-3 h 5 l 84,-10 63,-15 46,-20 33,-23 18,-28 10,-33 5,-33 -2,-33 -5,-44 -11,-38 -17,-33 -23,-28 -31,-23 -35,-15 -46,-10 h -54 -17 l -31,2 -43,3 -51,2 -58,6 -69,5 -71,2 -77,5 -81,5 -81,5 -82,6 -81,5 -79,5 -74,5 -68,5 -64,2 -43,5 h -13 l -15,3 h -10 -13 -10 -10 l -10,3 h -8 l -15,17 -18,16 -18,12 -15,11 -15,7 -16,5 -10,3 -7,2 -18,3 -15,2 h -16 -17 l -11,21 -7,20 -3,25 v 26 l 10,48 18,38 26,26 30,20 31,10 30,8 26,2 h 20 8 10 l 15,-2 h 20 l 23,-3 26,-2 h 28 l 30,-3 -2,-12 -3,-16 -3,-12 -2,-13 -51,-265 43,-5 18,94 15,79 13,59 8,38 2,13 3,12 v 13 l 2,13 41,-3 43,-2 46,-3 46,-2 43,-3 43,-2 43,-3 41,-3 38,-2 36,-3 33,-2 25,-3 h 23 l 18,-2 h 10 3 l 2,38 h -2 -10 l -16,2 h -23 l -25,3 -31,2 -35,3 -36,3 -40,2 -44,3 -43,2 -46,3 -43,2 -46,5 -45,3 -44,2 v 6 5 5 5 l -2,56 -8,30 -13,31 -15,28 -23,25 -30,23 -38,23 -46,18 -53,12 -61,8 -56,-5 -46,-13 -38,-23 -31,-25 -25,-33 -23,-33 -15,-33 61,-5 20,33 23,28 23,23 30,15 31,10 33,3 h 38 l 41,-6 33,-7 30,-10 26,-13 23,-15 20,-18 15,-20 13,-23 10,-26 -28,3 h -30 l -28,2 -28,3 h -28 l -26,2 -28,3 h -25 l -26,3 -25,2 h -25 l -23,3 h -23 l -23,2 h -23 l -20,3 -61,5 -28,2 h -26 l -23,3 h -20 l -18,2 h -13 -10 -5 l -30,3 h -43 l -54,-8 -56,-15 -53,-28 -49,-43 -33,-66 -17,-89 2,-92 21,-71 35,-51 43,-38 49,-23 50,-15 49,-8 43,-2 h 13 15 20 l 23,-3 8,43 -66,3 -66,8 -56,12 -46,21 -33,25 -26,33 -17,41 -8,46 v 53 l 8,53 12,44 23,38 31,30 38,23 48,15 61,5 h 69 10 10 13 l 15,-2 h 15 16 l 17,-3 h 21 l -3,-15 -2,-15 -3,-10 -2,-10 -3,-13 -5,-26 -8,-38 -10,-48 -10,-56 -13,-64 -15,-73 -15,-77 56,-5 25,127 21,110 17,86 10,56 6,18 2,18 5,15 5,15 23,-2 h 23 l 23,-3 h 25 l 26,-2 25,-3 h 28 l 28,-2 28,-3 28,-3 h 28 l 31,-2 30,-3 31,-2 h 30 l 31,-3 v -5 -5 -5 -5 h -26 l -23,3 h -20 l -23,2 -20,3 h -18 l -18,2 h -15 l -64,-2 -51,-11 -40,-17 -33,-26 -26,-30 -15,-36 -10,-38 -5,-38 v -15 l 2,-23 5,-28 13,-31 -18,-5 -15,-7 -15,-13 -15,-13 -16,-13 -12,-17 -13,-21 -10,-23 h -28 z"
   id="path53"
   inkscape:connector-curvature="0"
   style="fill:#849eb5;stroke:none" />
        <path
   d="m 9676,13686 23,10 41,18 56,28 68,31 79,38 87,41 91,40 94,46 94,43 92,43 86,41 82,38 68,31 56,28 43,20 23,10 28,16 28,17 21,23 17,26 13,30 5,33 -5,36 -13,38 -25,41 -33,28 -33,15 -36,7 h -33 l -30,-5 -26,-7 -18,-8 -12,-8 -28,-10 -36,-17 -43,-21 -53,-25 -56,-26 -59,-28 -61,-28 -61,-28 -58,-28 -54,-25 -48,-23 -41,-18 -30,-15 -21,-10 -7,-3 -15,39 5,2 17,8 26,12 33,16 41,17 45,23 51,23 54,26 56,25 55,25 56,28 54,26 53,23 46,23 41,20 35,15 59,23 53,8 46,-3 38,-13 36,-20 28,-25 22,-31 18,-35 5,-16 8,-23 3,-33 -3,-38 -10,-40 -26,-44 -43,-38 -61,-38 -30,-15 -49,-23 -58,-28 -71,-33 -82,-38 -86,-38 -89,-44 -92,-43 -91,-43 -89,-41 -84,-38 -76,-35 -66,-31 -54,-25 -41,-21 -22,-10 -74,-28 -66,-10 -56,5 -46,15 -41,26 -30,28 -26,33 -17,30 -26,72 -2,63 12,53 28,44 38,40 49,33 51,28 53,26 33,15 59,28 78,38 94,43 110,51 119,56 125,59 127,61 127,58 125,59 114,53 104,48 89,41 72,36 48,22 23,11 28,12 40,16 54,12 58,5 59,-5 61,-25 56,-46 48,-76 30,-87 8,-73 -13,-61 -28,-49 -35,-40 -43,-33 -44,-23 -38,-21 -30,-15 -51,-23 -64,-28 -76,-35 -84,-41 -94,-43 -97,-46 -96,-46 -97,-45 -94,-44 -86,-38 -77,-35 -63,-31 -48,-23 -33,-15 -11,-5 -17,38 1090,511 61,33 46,33 36,33 23,38 10,38 v 44 l -8,45 -20,49 -26,46 -30,38 -33,28 -41,17 -43,5 -51,-2 -58,-15 -64,-26 -46,-20 -68,-33 -87,-41 -99,-46 -114,-53 -120,-56 -125,-58 -127,-61 -124,-59 -120,-56 -109,-51 -99,-45 -82,-39 -63,-30 -38,-18 -16,-7 -73,-39 -56,-38 -36,-35 -20,-36 -8,-33 v -33 l 10,-33 13,-31 20,-35 26,-33 28,-26 33,-18 35,-10 h 41 l 46,8 z"
   id="path55"
   inkscape:connector-curvature="0"
   style="fill:#6033ff;stroke:none" />
        <path
   d="m 10762,14185 v 0 l -23,-11 -43,-20 -56,-28 -69,-30 -81,-38 -87,-41 -91,-43 -94,-44 -94,-45 -92,-41 -86,-41 -79,-38 -69,-30 -56,-28 -40,-18 -23,-10 -5,15 23,10 40,18 56,28 69,30 79,39 86,40 92,41 94,46 94,43 91,43 87,41 81,38 69,30 56,28 43,21 23,10 v 0 z"
   id="path57"
   inkscape:connector-curvature="0"
   style="fill:#000000;stroke:none" />
        <path
   d="m 10861,14413 v 0 l 13,-40 7,-36 -7,-35 -13,-31 -18,-28 -23,-25 -28,-18 -30,-15 -5,15 25,15 28,18 18,20 18,23 12,31 3,30 -3,36 -12,35 v 0 z"
   id="path59"
   inkscape:connector-curvature="0"
   style="fill:#000000;stroke:none" />
        <path
   d="m 10617,14490 v 0 l 18,7 28,8 30,5 h 33 l 38,-8 36,-15 36,-30 25,-44 -15,-5 -26,39 -30,25 -31,15 -33,8 h -33 l -30,-5 -23,-8 -18,-8 v 0 z"
   id="path61"
   inkscape:connector-curvature="0"
   style="fill:#000000;stroke:none" />
        <path
   d="m 9958,14172 -10,5 8,3 20,10 31,15 40,18 49,23 53,25 59,28 61,28 61,28 58,28 56,25 53,26 44,20 35,18 28,10 13,8 5,-16 -13,-7 -28,-10 -35,-18 -43,-20 -54,-26 -56,-25 -58,-28 -61,-28 -61,-28 -59,-28 -53,-26 -48,-22 -41,-18 -31,-16 -20,-10 -8,-2 -10,5 10,-5 -7,-5 -3,10 z"
   id="path63"
   inkscape:connector-curvature="0"
   style="fill:#000000;stroke:none" />
        <path
   d="m 9938,14200 5,10 15,-38 -15,-5 -15,38 5,10 -5,-10 -5,8 10,2 z"
   id="path65"
   inkscape:connector-curvature="0"
   style="fill:#000000;stroke:none" />
        <path
   d="m 10607,14513 v 0 l -36,-16 -40,-20 -46,-23 -54,-23 -53,-25 -56,-28 -56,-26 -56,-25 -53,-25 -51,-23 -46,-23 -41,-18 -33,-15 -25,-13 -18,-8 -5,-2 -5,15 5,3 18,7 25,13 33,15 41,18 46,23 51,23 53,25 56,26 56,25 56,28 53,26 54,22 45,23 41,21 36,15 v 0 z"
   id="path67"
   inkscape:connector-curvature="0"
   style="fill:#000000;stroke:none" />
        <path
   d="m 10897,14421 v 0 l -18,33 -21,31 -27,23 -34,20 -35,13 -46,2 -51,-8 -58,-22 -5,15 58,23 56,7 46,-2 41,-13 38,-20 28,-28 25,-31 18,-38 v 0 z"
   id="path69"
   inkscape:connector-curvature="0"
   style="fill:#000000;stroke:none" />
        <path
   d="m 10775,14162 v 0 l 58,38 41,35 25,41 10,38 v 38 33 l -7,21 -5,15 15,5 5,-15 8,-26 5,-33 -5,-38 -11,-43 -25,-46 -46,-40 -63,-39 v 0 z"
   id="path71"
   inkscape:connector-curvature="0"
   style="fill:#000000;stroke:none" />
        <path
   d="m 9694,13656 v 0 l 23,10 41,20 53,26 66,30 76,36 84,38 89,41 92,43 91,43 89,43 87,38 81,39 71,33 59,28 48,22 31,16 5,-16 -31,-15 -48,-23 -59,-28 -71,-33 -81,-38 -87,-38 -89,-43 -91,-43 -92,-44 -89,-40 -84,-38 -76,-36 -66,-31 -53,-25 -41,-20 -23,-10 v 0 z"
   id="path73"
   inkscape:connector-curvature="0"
   style="fill:#000000;stroke:none" />
        <path
   d="m 9348,13750 v 0 l 18,-28 23,-33 30,-26 39,-25 43,-15 56,-5 63,10 74,28 5,-15 -74,-28 -68,-11 -56,5 -49,16 -43,25 -30,31 -28,33 -18,33 v 0 z"
   id="path75"
   inkscape:connector-curvature="0"
   style="fill:#000000;stroke:none" />
        <path
   d="m 9547,14098 v 0 l -54,-25 -48,-28 -48,-33 -36,-38 -28,-41 -13,-51 3,-63 25,-69 -15,-5 -25,74 -3,63 13,56 28,46 40,43 49,33 53,28 53,25 v 0 z"
   id="path77"
   inkscape:connector-curvature="0"
   style="fill:#000000;stroke:none" />
        <path
   d="m 10993,14777 v 0 l -23,-10 -48,-23 -71,-36 -89,-40 -104,-49 -115,-53 -124,-58 -127,-59 -128,-61 -124,-58 -120,-56 -109,-51 -94,-43 -79,-39 -58,-28 -33,-15 -6,15 34,16 58,28 79,38 94,43 109,51 120,56 124,58 127,61 128,59 124,58 115,54 104,48 89,41 71,35 48,23 23,10 v 0 z"
   id="path79"
   inkscape:connector-curvature="0"
   style="fill:#000000;stroke:none" />
        <path
   d="m 11387,14675 v 0 l -48,74 -53,43 -56,26 -59,2 -58,-2 -51,-13 -41,-15 -28,-13 -5,15 28,13 41,15 56,13 58,8 59,-8 66,-25 58,-49 49,-79 v 0 z"
   id="path81"
   inkscape:connector-curvature="0"
   style="fill:#000000;stroke:none" />
        <path
   d="m 11230,14299 v 0 l 38,20 41,23 43,31 33,40 28,46 12,59 -7,73 -31,84 16,5 30,-89 8,-73 -13,-64 -28,-51 -38,-40 -43,-36 -46,-23 -38,-20 v 0 z"
   id="path83"
   inkscape:connector-curvature="0"
   style="fill:#000000;stroke:none" />
        <path
   d="m 10139,13780 -10,5 10,6 33,15 48,23 64,30 76,36 87,38 94,43 96,46 97,46 97,45 94,44 84,40 76,36 63,28 51,23 31,15 5,-15 -31,-15 -51,-23 -63,-28 -76,-36 -84,-41 -94,-43 -97,-46 -97,-45 -96,-46 -94,-43 -87,-38 -76,-36 -64,-31 -48,-22 -33,-16 -10,-5 -10,5 10,-5 -5,-5 -5,10 z"
   id="path85"
   inkscape:connector-curvature="0"
   style="fill:#000000;stroke:none" />
        <path
   d="m 10116,13808 5,11 18,-39 -15,-5 -18,38 5,11 -5,-11 -5,6 10,5 z"
   id="path87"
   inkscape:connector-curvature="0"
   style="fill:#000000;stroke:none" />
        <path
   d="m 11207,14319 v 0 l -1091,-511 -5,16 1091,511 v 0 z"
   id="path89"
   inkscape:connector-curvature="0"
   style="fill:#000000;stroke:none" />
        <path
   d="m 11359,14642 v 0 l 21,-48 7,-48 v -44 l -10,-40 -23,-41 -38,-36 -46,-33 -63,-33 -5,16 58,33 46,33 33,30 23,36 10,35 v 44 l -8,43 -20,48 v 0 z"
   id="path91"
   inkscape:connector-curvature="0"
   style="fill:#000000;stroke:none" />
        <path
   d="m 11003,14739 v 0 l 64,25 61,16 51,5 46,-8 43,-18 33,-30 33,-38 25,-49 -15,-5 -25,43 -28,39 -33,25 -38,18 -41,2 h -51 l -56,-15 -63,-25 v 0 z"
   id="path93"
   inkscape:connector-curvature="0"
   style="fill:#000000;stroke:none" />
        <path
   d="m 9567,14065 v 0 l 15,8 38,18 64,30 81,38 99,46 110,51 119,56 125,58 127,61 124,59 120,56 114,53 100,46 86,41 69,33 45,20 6,-15 -46,-21 -69,-33 -86,-40 -100,-46 -114,-54 -119,-56 -125,-58 -127,-61 -125,-58 -119,-56 -110,-51 -99,-46 -81,-38 -64,-31 -38,-17 -15,-8 v 0 z"
   id="path95"
   inkscape:connector-curvature="0"
   style="fill:#000000;stroke:none" />
        <path
   d="m 9391,13778 v 0 l -12,30 -10,36 v 33 l 7,36 21,38 38,38 56,38 76,38 5,-15 -71,-38 -56,-38 -33,-33 -21,-34 -7,-30 v -33 l 10,-31 13,-30 v 0 z"
   id="path97"
   inkscape:connector-curvature="0"
   style="fill:#000000;stroke:none" />
        <path
   d="m 9679,13679 v 0 l -49,-21 -48,-7 h -41 l -38,10 -35,18 -28,28 -28,33 -21,38 16,5 20,-33 23,-33 28,-23 30,-18 33,-10 h 41 l 43,8 49,20 v 0 z"
   id="path99"
   inkscape:connector-curvature="0"
   style="fill:#000000;stroke:none" />
        <path
   d="m 9974,14022 12,69 28,134 36,181 41,201 38,201 35,180 28,137 13,72 5,33 v 33 l -5,30 -10,28 -18,28 -25,20 -31,18 -38,13 -48,2 -41,-7 -33,-18 -25,-25 -21,-28 -15,-28 -8,-23 -5,-21 -7,-43 -18,-86 -23,-117 -25,-130 -26,-127 -23,-112 -15,-76 -5,-31 -38,8 5,23 13,66 17,94 23,112 23,122 23,120 23,106 15,84 18,61 23,46 28,36 33,25 35,15 39,8 h 40 l 38,-5 16,-5 23,-8 30,-18 28,-23 25,-33 21,-45 7,-59 -7,-71 -16,-87 -27,-142 -36,-180 -38,-196 -41,-196 -33,-173 -25,-130 -13,-68 -23,-76 -30,-56 -36,-44 -41,-30 -43,-18 -41,-8 -40,-2 -36,5 -74,23 -51,33 -35,43 -20,48 -11,56 3,56 5,59 10,58 21,99 38,189 48,246 53,275 54,272 46,236 35,173 15,79 5,31 13,40 21,51 27,51 41,43 56,36 71,18 89,-8 89,-26 64,-38 41,-45 25,-51 10,-54 v -53 l -5,-48 -8,-44 -17,-86 -31,-153 -38,-193 -41,-211 -40,-206 -33,-175 -23,-122 -11,-46 -43,8 232,1184 10,67 v 58 l -8,48 -15,38 -26,33 -33,26 -43,20 -51,13 -53,5 h -46 l -43,-13 -38,-23 -31,-30 -28,-43 -20,-56 -18,-66 -23,-122 -40,-204 -51,-251 -54,-275 -50,-264 -44,-224 -30,-158 -13,-58 -13,-84 v -66 l 8,-51 15,-36 23,-25 26,-18 33,-13 33,-7 43,-5 h 38 l 38,7 33,15 28,26 26,30 20,41 z"
   id="path101"
   inkscape:connector-curvature="0"
   style="fill:#ff0033;stroke:none" />
        <path
   d="m 10213,15197 v 0 l -13,-72 -28,-137 -36,-180 -38,-201 -40,-201 -36,-181 -28,-134 -13,-69 h -15 l 13,69 28,134 35,181 41,201 38,201 36,180 28,137 12,72 v 0 z"
   id="path103"
   inkscape:connector-curvature="0"
   style="fill:#000000;stroke:none" />
        <path
   d="m 10083,15408 v 0 l 41,-13 33,-18 25,-23 21,-30 10,-28 5,-33 v -33 l -5,-33 h -16 l 6,33 v 33 l -6,28 -10,28 -15,25 -25,18 -28,18 -36,12 v 0 z"
   id="path105"
   inkscape:connector-curvature="0"
   style="fill:#000000;stroke:none" />
        <path
   d="m 9880,15252 v 0 l 5,23 7,23 16,31 20,28 28,28 35,17 44,8 48,-2 v -16 l -48,3 -38,-8 -31,-18 -23,-22 -20,-28 -15,-26 -8,-23 -5,-18 v 0 z"
   id="path107"
   inkscape:connector-curvature="0"
   style="fill:#000000;stroke:none" />
        <path
   d="m 9745,14538 -8,-8 5,31 16,76 22,112 26,127 25,130 23,117 18,86 8,43 h 15 l -8,-43 -18,-86 -22,-117 -26,-130 -25,-127 -23,-112 -15,-76 -5,-31 -8,-7 8,7 v -10 l -8,3 z"
   id="path109"
   inkscape:connector-curvature="0"
   style="fill:#000000;stroke:none" />
        <path
   d="m 9714,14538 -7,8 38,-8 v -15 l -38,7 -8,8 8,-8 h -10 l 2,8 z"
   id="path111"
   inkscape:connector-curvature="0"
   style="fill:#000000;stroke:none" />
        <path
   d="m 9857,15265 v 0 l -16,-84 -22,-106 -23,-120 -23,-122 -23,-112 -18,-94 -13,-66 -5,-23 h -15 l 5,23 13,66 18,94 23,112 22,122 23,120 23,106 15,84 v 0 z"
   id="path113"
   inkscape:connector-curvature="0"
   style="fill:#000000;stroke:none" />
        <path
   d="m 10103,15443 v 0 l -38,5 h -40 l -36,-7 -33,-16 -33,-23 -26,-35 -22,-43 -18,-59 h -16 l 18,64 23,48 31,36 33,28 38,15 41,8 h 40 l 38,-6 v 0 z"
   id="path115"
   inkscape:connector-curvature="0"
   style="fill:#000000;stroke:none" />
        <path
   d="m 10238,15189 v 0 l 5,71 -5,56 -20,43 -23,33 -28,21 -28,17 -23,8 -13,5 v 15 l 18,-5 23,-7 33,-18 28,-26 28,-33 20,-48 11,-61 -11,-71 v 0 z"
   id="path117"
   inkscape:connector-curvature="0"
   style="fill:#000000;stroke:none" />
        <path
   d="m 10009,14017 v 0 l 13,68 25,130 33,173 41,196 38,196 36,180 28,142 15,87 h 15 l -15,-87 -28,-142 -35,-180 -39,-196 -40,-196 -33,-173 -26,-130 -12,-68 v 0 z"
   id="path119"
   inkscape:connector-curvature="0"
   style="fill:#000000;stroke:none" />
        <path
   d="m 9727,13796 v 0 l 36,-3 h 40 l 38,8 44,18 38,27 33,44 30,53 23,74 h 16 l -23,-79 -31,-58 -38,-44 -43,-33 -43,-18 -44,-7 -40,-5 -36,7 v 0 z"
   id="path121"
   inkscape:connector-curvature="0"
   style="fill:#000000;stroke:none" />
        <path
   d="m 9562,14164 v 0 l -10,-58 -5,-59 -3,-56 10,-53 21,-46 33,-40 48,-33 71,-23 v -16 l -76,23 -54,33 -38,46 -20,51 -10,58 2,56 5,59 11,58 v 0 z"
   id="path123"
   inkscape:connector-curvature="0"
   style="fill:#000000;stroke:none" />
        <path
   d="m 9872,15733 v 0 l -15,-79 -36,-173 -46,-236 -53,-272 -53,-275 -49,-246 -38,-189 -20,-99 h -15 l 20,99 38,189 48,246 54,275 53,272 46,236 35,173 16,79 v 0 z"
   id="path125"
   inkscape:connector-curvature="0"
   style="fill:#000000;stroke:none" />
        <path
   d="m 10187,15987 v 0 l -89,8 -68,-18 -54,-35 -38,-41 -28,-48 -20,-51 -13,-38 -5,-31 h -15 l 5,31 13,43 20,51 28,53 43,46 59,35 73,18 89,-7 v 0 z"
   id="path127"
   inkscape:connector-curvature="0"
   style="fill:#000000;stroke:none" />
        <path
   d="m 10396,15636 v 0 l 7,44 5,48 v 53 l -10,51 -25,48 -38,44 -61,38 -87,25 v 16 l 92,-26 66,-38 43,-48 26,-54 10,-56 v -53 l -5,-48 -8,-44 v 0 z"
   id="path129"
   inkscape:connector-curvature="0"
   style="fill:#000000;stroke:none" />
        <path
   d="m 10169,14452 -7,-8 10,46 23,122 33,175 41,206 40,211 38,193 31,153 18,86 h 15 l -18,-86 -30,-153 -38,-193 -41,-211 -41,-206 -33,-175 -23,-122 -10,-46 -8,-8 8,8 v -10 l -8,2 z"
   id="path131"
   inkscape:connector-curvature="0"
   style="fill:#000000;stroke:none" />
        <path
   d="m 10134,14452 -8,7 43,-7 v -16 l -43,8 -7,8 7,-8 h -10 l 3,8 z"
   id="path133"
   inkscape:connector-curvature="0"
   style="fill:#000000;stroke:none" />
        <path
   d="m 10365,15636 v 0 l -231,-1184 h -15 l 231,1184 v 0 z"
   id="path135"
   inkscape:connector-curvature="0"
   style="fill:#000000;stroke:none" />
        <path
   d="m 10192,15947 v 0 l 54,-13 46,-20 33,-28 28,-36 15,-38 7,-51 v -58 l -10,-67 h -15 l 10,67 v 58 l -7,46 -16,38 -23,30 -33,23 -40,21 -49,12 v 0 z"
   id="path137"
   inkscape:connector-curvature="0"
   style="fill:#000000;stroke:none" />
        <path
   d="m 9908,15713 v 0 l 17,68 21,56 28,46 33,33 40,23 46,13 h 46 l 53,-5 v -16 l -53,5 h -46 l -40,-12 -36,-23 -28,-28 -28,-41 -20,-56 -18,-63 v 0 z"
   id="path139"
   inkscape:connector-curvature="0"
   style="fill:#000000;stroke:none" />
        <path
   d="m 9602,14157 v 0 l 13,58 31,158 43,224 51,264 53,275 51,251 41,204 23,122 h 15 l -23,-122 -41,-204 -51,-251 -53,-275 -51,-264 -43,-224 -31,-158 -12,-58 v 0 z"
   id="path141"
   inkscape:connector-curvature="0"
   style="fill:#000000;stroke:none" />
        <path
   d="m 9735,13849 v 0 l -36,8 -33,12 -28,21 -25,25 -16,38 -7,54 v 66 l 12,84 h 16 l -13,-84 v -66 l 8,-49 15,-33 20,-25 23,-15 33,-13 31,-8 v 0 z"
   id="path143"
   inkscape:connector-curvature="0"
   style="fill:#000000;stroke:none" />
        <path
   d="m 9981,14022 v 0 l -12,-53 -21,-44 -28,-30 -28,-28 -35,-15 -41,-8 h -38 l -43,5 v 15 l 43,-5 h 38 l 36,8 30,15 28,23 23,30 20,39 13,48 v 0 z"
   id="path145"
   inkscape:connector-curvature="0"
   style="fill:#000000;stroke:none" />
        <path
   d="m 11377,15303 -25,3 -46,2 -61,3 -76,5 -87,5 -94,8 -102,5 -104,7 -104,8 -102,5 -94,8 -89,5 -76,5 -61,3 -46,2 -28,3 -33,5 -30,7 -28,13 -26,18 -23,23 -15,28 -8,33 -2,40 10,49 18,38 25,25 31,21 30,10 31,7 25,3 h 21 15 l 28,-3 41,-2 48,-3 58,-5 61,-2 66,-5 67,-3 66,-5 63,-5 59,-3 53,-2 46,-3 33,-2 23,-3 h 7 l 3,41 h -5 l -18,2 h -30 l -36,3 -46,3 -51,2 -53,5 -61,3 -61,5 -61,2 -61,5 -61,3 -56,2 -53,6 -46,2 -38,3 h -64 l -51,-11 -40,-20 -34,-25 -25,-31 -15,-35 -10,-39 -5,-38 v -15 l 2,-25 8,-31 15,-35 25,-34 41,-30 53,-23 72,-13 35,-2 51,-3 69,-5 76,-5 89,-5 94,-5 102,-8 99,-5 102,-7 96,-5 92,-8 84,-5 73,-5 61,-3 44,-2 25,-3 79,3 63,15 51,23 38,33 28,35 18,41 10,38 5,36 -2,76 -20,59 -31,45 -43,31 -48,23 -56,12 -59,8 -58,5 -38,3 -64,5 -86,5 -105,5 -119,8 -132,10 -138,7 -140,11 -142,7 -135,10 -127,8 -114,8 -99,5 -77,5 -56,2 -25,3 -31,2 h -43 l -53,-7 -56,-15 -53,-28 -49,-44 -33,-66 -18,-89 3,-91 20,-71 36,-51 43,-36 48,-25 51,-13 49,-8 43,-2 35,-3 54,-2 71,-5 84,-8 94,-5 102,-8 106,-5 107,-7 107,-8 102,-5 94,-8 86,-5 69,-2 56,-5 33,-3 h 13 l 2,43 -1203,76 -66,8 -56,13 -45,20 -33,26 -26,33 -18,40 -7,46 v 53 l 7,54 13,43 23,38 30,31 39,23 48,15 61,8 h 69 l 50,-3 74,-5 94,-8 112,-5 125,-7 132,-11 137,-7 140,-10 137,-8 133,-10 119,-8 109,-5 89,-8 69,-2 46,-5 h 15 l 84,-10 66,-16 46,-20 33,-23 18,-28 10,-33 5,-33 -3,-33 -5,-43 -12,-38 -16,-33 -23,-28 -30,-23 -38,-15 -43,-11 z"
   id="path147"
   inkscape:connector-curvature="0"
   style="fill:#00ff3f;stroke:none" />
        <path
   d="m 10182,15387 v 0 l 28,-2 46,-3 61,-2 76,-5 89,-6 94,-7 102,-5 104,-8 104,-8 102,-5 94,-7 87,-5 76,-5 61,-3 46,-2 25,-3 v -15 l -25,2 -46,3 -61,2 -76,5 -87,6 -94,7 -102,5 -104,8 -104,7 -102,6 -94,7 -89,5 -76,5 -61,3 -46,2 -28,3 v 0 z"
   id="path149"
   inkscape:connector-curvature="0"
   style="fill:#000000;stroke:none" />
        <path
   d="m 10025,15547 v 0 l 2,-40 8,-31 15,-25 20,-21 23,-17 28,-13 28,-8 33,-5 v -15 l -33,5 -33,8 -28,12 -28,18 -25,26 -16,30 -7,36 -3,40 v 0 z"
   id="path151"
   inkscape:connector-curvature="0"
   style="fill:#000000;stroke:none" />
        <path
   d="m 10208,15692 v 0 l -21,-2 h -25 l -28,-8 -31,-10 -28,-20 -22,-23 -18,-36 -10,-46 h -16 l 10,51 18,41 28,28 33,20 31,10 33,8 25,5 21,-2 v 0 z"
   id="path153"
   inkscape:connector-curvature="0"
   style="fill:#000000;stroke:none" />
        <path
   d="m 10950,15654 -8,-7 h -7 l -23,2 -33,3 -46,2 -53,3 -59,2 -63,5 -66,5 -67,3 -66,5 -61,3 -58,5 -48,2 -41,3 h -28 l -15,2 v 16 l 15,2 28,-5 41,-2 48,-3 58,-5 61,-3 66,-5 67,-2 66,-5 63,-5 59,-3 53,-3 46,-2 33,-3 23,-2 h 7 l -7,-8 h 15 v -10 l -8,3 z"
   id="path155"
   inkscape:connector-curvature="0"
   style="fill:#000000;stroke:none" />
        <path
   d="m 10945,15703 8,-8 -3,-41 h -15 l 2,41 8,-8 v 16 h 10 l -2,-8 z"
   id="path157"
   inkscape:connector-curvature="0"
   style="fill:#000000;stroke:none" />
        <path
   d="m 10208,15748 v 0 l 38,-2 46,-3 53,-5 56,-2 61,-3 61,-5 61,-3 61,-5 61,-2 53,-5 51,-3 46,-2 h 36 30 l 18,-5 h 5 v -16 h -5 -18 -30 l -36,5 -46,3 -51,2 -53,6 -61,2 -61,5 -61,3 -61,5 -61,2 -56,3 -53,5 -46,2 -38,3 v 0 z"
   id="path159"
   inkscape:connector-curvature="0"
   style="fill:#000000;stroke:none" />
        <path
   d="m 9956,15542 v 0 l 5,38 10,41 15,38 28,31 33,28 44,20 53,10 h 64 v -15 h -64 l -48,-10 -38,-20 -33,-23 -23,-31 -16,-33 -10,-36 -5,-38 v 0 z"
   id="path161"
   inkscape:connector-curvature="0"
   style="fill:#000000;stroke:none" />
        <path
   d="m 10180,15329 v 0 l -74,12 -53,23 -44,33 -28,33 -15,39 -8,33 -2,25 v 15 h 15 v -15 l 3,-25 7,-28 16,-33 22,-33 39,-28 53,-23 69,-13 v 0 z"
   id="path163"
   inkscape:connector-curvature="0"
   style="fill:#000000;stroke:none" />
        <path
   d="m 11372,15252 v 0 l -25,3 -44,3 -61,2 -73,5 -84,5 -92,8 -96,5 -102,8 -99,5 -102,7 -94,5 -89,6 -76,5 -69,5 -51,2 -35,3 v 15 l 35,-3 51,-2 69,-5 76,-5 89,-5 94,-5 102,-8 99,-5 102,-8 96,-5 92,-7 84,-6 73,-5 61,-2 44,-3 25,-2 v 0 z"
   id="path165"
   inkscape:connector-curvature="0"
   style="fill:#000000;stroke:none" />
        <path
   d="m 11672,15484 v 0 l -5,-36 -10,-40 -18,-44 -30,-35 -39,-36 -53,-23 -66,-15 -79,-3 v 16 l 79,2 61,16 48,22 38,31 26,36 18,38 10,35 5,36 v 0 z"
   id="path167"
   inkscape:connector-curvature="0"
   style="fill:#000000;stroke:none" />
        <path
   d="m 11347,15751 v 0 l 58,-5 59,-8 58,-13 51,-22 43,-34 33,-48 21,-61 2,-76 h -15 l -3,76 -20,56 -28,43 -43,28 -46,23 -53,13 -59,7 -58,6 v 0 z"
   id="path169"
   inkscape:connector-curvature="0"
   style="fill:#000000;stroke:none" />
        <path
   d="m 9750,15853 v 0 l 25,-3 56,-3 77,-5 99,-5 114,-7 127,-8 135,-10 142,-8 140,-10 138,-8 132,-10 119,-7 105,-5 86,-6 64,-5 38,-2 v -15 l -38,2 -64,5 -86,5 -105,5 -119,8 -132,10 -138,8 -140,10 -142,8 -135,10 -127,7 -114,8 -99,5 -77,5 -56,3 -25,2 v 0 z"
   id="path171"
   inkscape:connector-curvature="0"
   style="fill:#000000;stroke:none" />
        <path
   d="m 9407,15598 v 0 l 18,92 33,68 50,46 56,28 59,15 53,8 43,3 31,-5 v -16 h -31 l -43,3 -53,-8 -54,-15 -50,-28 -46,-41 -33,-63 -18,-87 v 0 z"
   id="path173"
   inkscape:connector-curvature="0"
   style="fill:#000000;stroke:none" />
        <path
   d="m 9707,15293 v 0 l -43,3 -49,7 -53,13 -51,25 -43,39 -38,53 -21,74 -2,91 h 15 l 3,-91 20,-69 33,-48 43,-33 46,-26 48,-12 49,-8 43,-3 v 0 z"
   id="path175"
   inkscape:connector-curvature="0"
   style="fill:#000000;stroke:none" />
        <path
   d="m 10927,15222 -7,-8 -13,-2 -33,5 -56,5 -69,3 -86,5 -94,7 -102,5 -107,8 -107,8 -106,5 -102,7 -94,5 -84,8 -71,5 -54,3 -35,2 v 15 l 35,-2 54,-3 71,-5 84,-7 94,-5 102,-8 106,-5 107,-8 107,-7 102,-6 94,-7 86,-5 69,-3 56,-5 h 33 l 13,-2 -8,-8 h 18 l -3,-10 -7,2 z"
   id="path177"
   inkscape:connector-curvature="0"
   style="fill:#000000;stroke:none" />
        <path
   d="m 10922,15273 8,-8 -3,-43 h -15 l 2,43 8,-7 v 15 h 10 v -8 z"
   id="path179"
   inkscape:connector-curvature="0"
   style="fill:#000000;stroke:none" />
        <path
   d="m 9719,15349 v 0 l 1203,-76 v -15 l -1203,76 v 0 z"
   id="path181"
   inkscape:connector-curvature="0"
   style="fill:#000000;stroke:none" />
        <path
   d="m 9475,15580 v 0 -53 l 8,-43 18,-38 23,-33 33,-23 43,-21 53,-12 66,-8 v -15 l -66,7 -58,13 -48,21 -33,27 -28,34 -18,43 -8,48 v 53 0 z"
   id="path183"
   inkscape:connector-curvature="0"
   style="fill:#000000;stroke:none" />
        <path
   d="m 9758,15784 v 0 h -69 l -61,-8 -46,-15 -35,-23 -28,-28 -23,-35 -13,-41 -8,-54 h -15 l 8,54 12,46 23,40 33,33 41,23 51,16 61,7 h 69 v 0 z"
   id="path185"
   inkscape:connector-curvature="0"
   style="fill:#000000;stroke:none" />
        <path
   d="m 11339,15682 v 0 h -15 l -46,5 -69,3 -89,7 -109,6 -119,7 -133,10 -137,8 -140,10 -137,8 -132,10 -125,8 -112,5 -94,7 -74,5 -50,3 v 15 l 50,-2 74,-5 94,-8 112,-5 125,-8 132,-10 137,-8 140,-10 137,-7 133,-11 119,-7 109,-5 89,-8 69,-2 46,-6 h 15 v 0 z"
   id="path187"
   inkscape:connector-curvature="0"
   style="fill:#000000;stroke:none" />
        <path
   d="m 11591,15494 v 0 33 l -3,33 -10,31 -15,25 -31,20 -46,21 -63,15 -84,10 v 15 l 84,-10 69,-15 45,-20 36,-26 20,-30 10,-36 8,-33 -5,-33 v 0 z"
   id="path189"
   inkscape:connector-curvature="0"
   style="fill:#000000;stroke:none" />
        <path
   d="m 11377,15311 v 0 h 54 l 40,10 38,15 28,21 21,28 15,30 13,36 5,43 h 15 l -5,-43 -13,-41 -15,-35 -25,-28 -34,-26 -38,-15 -45,-10 h -54 v 0 z"
   id="path191"
   inkscape:connector-curvature="0"
   style="fill:#000000;stroke:none" />
       </g>
      </g>
     </g>
    </g>
   </g>
  </g>
 </g>
</svg>