<?xml version="1.0" encoding="UTF-8" standalone="no"?>
<svg
   xmlns:ooo="http://xml.openoffice.org/svg/export"
   xmlns:dc="http://purl.org/dc/elements/1.1/"
   xmlns:cc="http://creativecommons.org/ns#"
   xmlns:rdf="http://www.w3.org/1999/02/22-rdf-syntax-ns#"
   xmlns:svg="http://www.w3.org/2000/svg"
   xmlns="http://www.w3.org/2000/svg"
   xmlns:sodipodi="http://sodipodi.sourceforge.net/DTD/sodipodi-0.dtd"
   xmlns:inkscape="http://www.inkscape.org/namespaces/inkscape"
   version="1.2"
   width="16.309999mm"
   height="53.09mm"
   viewBox="0 0 1630.9999 5309"
   preserveAspectRatio="xMidYMid"
   xml:space="preserve"
   id="svg619"
   sodipodi:docname="paprtall.svg"
   style="fill-rule:evenodd;stroke-width:28.22200012;stroke-linejoin:round"
   inkscape:version="0.92.5 (2060ec1f9f, 2020-04-08)"><metadata
   id="metadata623"><rdf:RDF><cc:Work
       rdf:about=""><dc:format>image/svg+xml</dc:format><dc:type
         rdf:resource="http://purl.org/dc/dcmitype/StillImage" /></cc:Work></rdf:RDF></metadata><sodipodi:namedview
   pagecolor="#ffffff"
   bordercolor="#666666"
   borderopacity="1"
   objecttolerance="10"
   gridtolerance="10"
   guidetolerance="10"
   inkscape:pageopacity="0"
   inkscape:pageshadow="2"
   inkscape:window-width="664"
   inkscape:window-height="487"
   id="namedview621"
   showgrid="false"
   inkscape:zoom="0.2102413"
   inkscape:cx="30.840946"
   inkscape:cy="100.30866"
   inkscape:window-x="0"
   inkscape:window-y="0"
   inkscape:window-maximized="0"
   inkscape:current-layer="svg619" />
 <defs
   class="ClipPathGroup"
   id="defs8">
  <clipPath
   id="presentation_clip_path"
   clipPathUnits="userSpaceOnUse">
   <rect
   x="0"
   y="0"
   width="21000"
   height="29700"
   id="rect2" />
  </clipPath>
  <clipPath
   id="presentation_clip_path_shrink"
   clipPathUnits="userSpaceOnUse">
   <rect
   x="21"
   y="29"
   width="20958"
   height="29641"
   id="rect5" />
  </clipPath>
 </defs>
 <defs
   class="TextShapeIndex"
   id="defs12">
  <g
   ooo:slide="id1"
   ooo:id-list="id3"
   id="g10" />
 </defs>
 <defs
   class="EmbeddedBulletChars"
   id="defs44">
  <g
   id="bullet-char-template-57356"
   transform="matrix(4.8828125e-4,0,0,-4.8828125e-4,0,0)">
   <path
   d="M 580,1141 1163,571 580,0 -4,571 Z"
   id="path14"
   inkscape:connector-curvature="0" />
  </g>
  <g
   id="bullet-char-template-57354"
   transform="matrix(4.8828125e-4,0,0,-4.8828125e-4,0,0)">
   <path
   d="M 8,1128 H 1137 V 0 H 8 Z"
   id="path17"
   inkscape:connector-curvature="0" />
  </g>
  <g
   id="bullet-char-template-10146"
   transform="matrix(4.8828125e-4,0,0,-4.8828125e-4,0,0)">
   <path
   d="M 174,0 602,739 174,1481 1456,739 Z M 1358,739 309,1346 659,739 Z"
   id="path20"
   inkscape:connector-curvature="0" />
  </g>
  <g
   id="bullet-char-template-10132"
   transform="matrix(4.8828125e-4,0,0,-4.8828125e-4,0,0)">
   <path
   d="M 2015,739 1276,0 H 717 l 543,543 H 174 v 393 h 1086 l -543,545 h 557 z"
   id="path23"
   inkscape:connector-curvature="0" />
  </g>
  <g
   id="bullet-char-template-10007"
   transform="matrix(4.8828125e-4,0,0,-4.8828125e-4,0,0)">
   <path
   d="m 0,-2 c -7,16 -16,29 -25,39 l 381,530 c -94,256 -141,385 -141,387 0,25 13,38 40,38 9,0 21,-2 34,-5 21,4 42,12 65,25 l 27,-13 111,-251 280,301 64,-25 24,25 c 21,-10 41,-24 62,-43 C 886,937 835,863 770,784 769,783 710,716 594,584 L 774,223 c 0,-27 -21,-55 -63,-84 l 16,-20 C 717,90 699,76 672,76 641,76 570,178 457,381 L 164,-76 c -22,-34 -53,-51 -92,-51 -42,0 -63,17 -64,51 -7,9 -10,24 -10,44 0,9 1,19 2,30 z"
   id="path26"
   inkscape:connector-curvature="0" />
  </g>
  <g
   id="bullet-char-template-10004"
   transform="matrix(4.8828125e-4,0,0,-4.8828125e-4,0,0)">
   <path
   d="M 285,-33 C 182,-33 111,30 74,156 52,228 41,333 41,471 c 0,78 14,145 41,201 34,71 87,106 158,106 53,0 88,-31 106,-94 l 23,-176 c 8,-64 28,-97 59,-98 l 735,706 c 11,11 33,17 66,17 42,0 63,-15 63,-46 V 965 c 0,-36 -10,-64 -30,-84 L 442,47 C 390,-6 338,-33 285,-33 Z"
   id="path29"
   inkscape:connector-curvature="0" />
  </g>
  <g
   id="bullet-char-template-9679"
   transform="matrix(4.8828125e-4,0,0,-4.8828125e-4,0,0)">
   <path
   d="M 813,0 C 632,0 489,54 383,161 276,268 223,411 223,592 c 0,181 53,324 160,431 106,107 249,161 430,161 179,0 323,-54 432,-161 108,-107 162,-251 162,-431 0,-180 -54,-324 -162,-431 C 1136,54 992,0 813,0 Z"
   id="path32"
   inkscape:connector-curvature="0" />
  </g>
  <g
   id="bullet-char-template-8226"
   transform="matrix(4.8828125e-4,0,0,-4.8828125e-4,0,0)">
   <path
   d="m 346,457 c -73,0 -137,26 -191,78 -54,51 -81,114 -81,188 0,73 27,136 81,188 54,52 118,78 191,78 73,0 134,-26 185,-79 51,-51 77,-114 77,-187 0,-75 -25,-137 -76,-188 -50,-52 -112,-78 -186,-78 z"
   id="path35"
   inkscape:connector-curvature="0" />
  </g>
  <g
   id="bullet-char-template-8211"
   transform="matrix(4.8828125e-4,0,0,-4.8828125e-4,0,0)">
   <path
   d="M -4,459 H 1135 V 606 H -4 Z"
   id="path38"
   inkscape:connector-curvature="0" />
  </g>
  <g
   id="bullet-char-template-61548"
   transform="matrix(4.8828125e-4,0,0,-4.8828125e-4,0,0)">
   <path
   d="m 173,740 c 0,163 58,303 173,419 116,115 255,173 419,173 163,0 302,-58 418,-173 116,-116 174,-256 174,-419 0,-163 -58,-303 -174,-418 C 1067,206 928,148 765,148 601,148 462,206 346,322 231,437 173,577 173,740 Z"
   id="path41"
   inkscape:connector-curvature="0" />
  </g>
 </defs>
 <g
   id="g49"
   transform="translate(-9684,-12195)">
  <g
   id="id2"
   class="Master_Slide">
   <g
   id="bg-id2"
   class="Background" />
   <g
   id="bo-id2"
   class="BackgroundObjects" />
  </g>
 </g>
 <g
   class="SlideGroup"
   id="g617"
   transform="translate(-9684,-12195)">
  <g
   id="g615">
   <g
   id="container-id1">
    <g
   id="id1"
   class="Slide"
   clip-path="url(#presentation_clip_path)">
     <g
   class="Page"
   id="g611">
      <g
   class="Graphic"
   id="g609">
       <g
   id="id3">
        <rect
   class="BoundingBox"
   x="9684"
   y="12195"
   width="1631"
   height="5309"
   id="rect51"
   style="fill:none;stroke:none" />
        <defs
   id="defs56">
         <clipPath
   id="clip_path_1"
   clipPathUnits="userSpaceOnUse">
          <path
   d="m 9684,12195 h 1630 v 5308 H 9684 Z"
   id="path53"
   inkscape:connector-curvature="0" />
         </clipPath>
        </defs>
        <g
   clip-path="url(#clip_path_1)"
   id="g606">
         <path
   d="m 10737,17041 -10,6 -18,7 -17,10 -23,13 -21,10 -17,10 -16,8 -7,3 v 10 l 10,17 10,21 5,13 384,-171 -23,-58 h -5 l -12,5 -13,2 -13,3 -10,3 -20,10 -33,15 -36,15 -38,18 -36,15 -25,10 z"
   id="path58"
   inkscape:connector-curvature="0"
   style="fill:#ffffff;stroke:none" />
         <path
   d="m 10610,17118 h -2 l 10,-3 18,-10 17,-10 21,-10 23,-13 18,-8 15,-7 10,-5 -5,-21 -10,5 -21,8 -17,13 -23,12 -21,11 -18,10 -12,5 -5,2 h -3 z"
   id="path60"
   inkscape:connector-curvature="0"
   style="fill:#000000;stroke:none" />
         <path
   d="m 10631,17158 12,11 -5,-16 -13,-23 -7,-15 -8,3 -5,-21 -8,23 13,21 8,17 5,11 13,10 -13,-10 v 15 l 13,-5 z"
   id="path62"
   inkscape:connector-curvature="0"
   style="fill:#000000;stroke:none" />
         <path
   d="m 11007,17001 8,-13 -384,170 5,21 384,-171 7,-12 -7,12 10,-5 -3,-7 z"
   id="path64"
   inkscape:connector-curvature="0"
   style="fill:#000000;stroke:none" />
         <path
   d="m 10997,16950 -13,-8 23,59 20,-5 -22,-59 -13,-7 13,7 -6,-10 -7,3 z"
   id="path66"
   inkscape:connector-curvature="0"
   style="fill:#000000;stroke:none" />
         <path
   d="m 10951,16960 v 0 l 13,-2 15,-3 13,-5 h 5 l -5,-20 h -5 l -13,5 -10,2 -13,3 v 0 z"
   id="path68"
   inkscape:connector-curvature="0"
   style="fill:#000000;stroke:none" />
         <path
   d="m 10740,17052 v 0 l 15,-5 26,-11 35,-15 38,-18 36,-15 33,-15 21,-10 7,-3 v -20 l -13,2 -20,11 -33,15 -36,15 -38,18 -35,15 -26,10 -15,5 v 0 z"
   id="path70"
   inkscape:connector-curvature="0"
   style="fill:#000000;stroke:none" />
         <path
   d="m 10681,17189 16,-3 15,-7 10,-13 3,-15 -3,-16 -10,-10 -15,-7 -16,-3 -15,3 -13,7 -10,10 -2,16 2,15 10,13 13,7 z"
   id="path72"
   inkscape:connector-curvature="0"
   style="fill:#ffd659;stroke:none" />
         <path
   d="m 10715,17151 v 0 l -3,12 -5,8 -13,5 -13,3 v 20 l 18,-3 18,-10 15,-17 3,-18 v 0 z"
   id="path74"
   inkscape:connector-curvature="0"
   style="fill:#000000;stroke:none" />
         <path
   d="m 10681,17125 v 0 l 13,3 13,5 5,8 3,10 h 20 l -3,-21 -15,-12 -18,-10 -18,-3 v 0 z"
   id="path76"
   inkscape:connector-curvature="0"
   style="fill:#000000;stroke:none" />
         <path
   d="m 10651,17151 v 0 l 2,-10 6,-8 10,-5 12,-3 v -20 l -17,3 -16,10 -15,12 -2,21 v 0 z"
   id="path78"
   inkscape:connector-curvature="0"
   style="fill:#000000;stroke:none" />
         <path
   d="m 10681,17179 v 0 l -12,-3 -10,-5 -6,-8 -2,-12 h -20 l 2,18 15,17 16,10 17,3 v 0 z"
   id="path80"
   inkscape:connector-curvature="0"
   style="fill:#000000;stroke:none" />
         <path
   d="m 10951,16950 -10,3 -20,10 -33,15 -36,15 -38,18 -36,15 -25,10 -16,5 -5,-12 -15,-28 -20,-33 -26,-41 -23,-38 -20,-36 -15,-25 -8,-13 -13,-12 -15,-18 -23,-23 -23,-20 -25,-23 -23,-18 -15,-13 -13,-5 -10,-2 -10,-5 -13,-11 -13,-7 -13,-10 -10,-8 -7,-8 -3,-5 -13,-15 -20,-23 -18,-23 -10,-12 -15,-8 -18,-5 -15,-8 -10,-5 -8,-5 -10,-10 -13,-10 -18,-16 -15,-12 -15,-10 -16,-11 -10,-5 -18,-5 -20,-5 -18,-7 -15,-8 -18,-10 -23,-10 -20,-11 -13,-7 -10,-3 -15,-5 -16,-5 -10,-2 -7,-3 -8,-10 -5,-10 5,-13 13,-13 15,-12 18,-8 18,-3 h 10 l 13,3 h 12 l 13,2 h 10 l 8,6 7,2 5,5 8,-10 18,-5 h 20 l 21,8 12,5 18,5 18,10 15,18 10,2 13,8 13,7 13,11 12,10 13,12 8,11 5,7 18,8 20,8 20,12 16,10 -11,-7 -10,-5 -7,-5 -11,-5 -10,-6 -10,-10 -8,-7 -7,-8 -13,-15 -15,-18 -13,-15 -13,-10 -10,-8 -5,-8 -5,-2 v -3 -10 l 3,-8 5,-5 h 10 10 13 l 15,3 h 15 l 23,8 20,17 16,21 10,10 8,5 10,8 12,7 13,10 13,13 13,13 10,10 7,10 8,5 10,5 13,8 20,13 16,12 10,10 5,8 5,5 -13,-30 -20,-46 -23,-46 -15,-25 -10,-13 -8,-15 -3,-13 11,-8 10,-2 h 12 l 16,2 15,6 15,7 13,13 10,15 8,23 15,15 15,26 13,25 3,18 12,13 13,22 10,21 3,12 5,8 7,5 6,8 2,7 10,-7 13,-10 10,-5 8,-3 5,-10 13,-10 12,-13 8,-13 5,-12 5,-13 5,-10 8,-5 2,-18 3,-18 8,-20 17,-23 11,-13 10,-10 12,-10 11,-10 10,-8 13,-5 h 15 15 l 26,5 10,8 2,7 v 8 2 3 0 l -2,5 -5,10 -11,13 -12,15 -5,10 -3,10 -5,11 -5,12 -5,13 -5,10 -3,8 -2,2 h -3 l -2,11 -3,12 -3,13 -2,10 -3,10 v 18 20 l 3,16 5,10 3,13 2,15 v 10 l 3,13 5,10 2,13 v 12 l 13,18 18,33 15,43 13,54 5,48 -3,28 -2,18 -3,7 5,10 5,13 8,10 z"
   id="path82"
   inkscape:connector-curvature="0"
   style="fill:#ead1c9;stroke:none" />
         <path
   d="m 10727,17041 13,11 15,-5 26,-11 35,-15 38,-18 36,-15 33,-15 21,-10 7,-3 v -20 l -13,2 -20,11 -33,15 -36,15 -38,18 -35,15 -26,10 -15,5 13,10 h -21 l 3,13 10,-2 z"
   id="path84"
   inkscape:connector-curvature="0"
   style="fill:#000000;stroke:none" />
         <path
   d="m 10597,16820 -2,-2 10,15 15,25 21,36 23,38 25,41 20,33 13,28 5,7 h 21 l -6,-17 -17,-28 -21,-33 -25,-41 -23,-38 -20,-36 -16,-25 -5,-10 -2,-3 2,3 -2,-3 v 0 z"
   id="path86"
   inkscape:connector-curvature="0"
   style="fill:#000000;stroke:none" />
         <path
   d="m 10455,16693 v 0 l 8,3 15,13 23,17 25,23 21,21 22,22 16,18 12,10 16,-10 -13,-15 -15,-18 -23,-23 -26,-20 -25,-23 -23,-18 -15,-12 -18,-8 v 0 z"
   id="path88"
   inkscape:connector-curvature="0"
   style="fill:#000000;stroke:none" />
         <path
   d="m 10368,16635 -2,-8 5,10 10,11 10,7 13,10 13,8 13,10 12,8 13,2 v -20 l -8,-3 -7,-2 -13,-10 -13,-8 -12,-10 -11,-8 -5,-5 v 0 l -2,-7 2,7 v -2 l -2,-5 z"
   id="path90"
   inkscape:connector-curvature="0"
   style="fill:#000000;stroke:none" />
         <path
   d="m 10310,16561 h -3 l 11,10 17,23 21,23 12,18 16,-15 -13,-13 -20,-23 -18,-23 -10,-15 h -3 3 -3 v 0 z"
   id="path92"
   inkscape:connector-curvature="0"
   style="fill:#000000;stroke:none" />
         <path
   d="m 10251,16536 h -2 l 13,7 17,8 18,5 13,5 10,-15 -18,-10 -18,-5 -12,-8 -8,-3 h -2 z"
   id="path94"
   inkscape:connector-curvature="0"
   style="fill:#000000;stroke:none" />
         <path
   d="m 10152,16459 h -2 l 7,3 16,10 15,10 15,13 18,15 13,10 10,11 7,5 11,-16 -8,-5 -10,-10 -13,-10 -18,-15 -15,-13 -15,-10 -16,-10 -12,-8 h -3 z"
   id="path96"
   inkscape:connector-curvature="0"
   style="fill:#000000;stroke:none" />
         <path
   d="m 10076,16432 v 0 l 18,10 17,7 21,5 20,5 v -20 l -15,-5 -20,-5 -18,-8 -13,-5 v 0 z"
   id="path98"
   inkscape:connector-curvature="0"
   style="fill:#000000;stroke:none" />
         <path
   d="m 10007,16396 -5,-3 13,8 23,13 20,10 18,8 10,-16 -18,-12 -25,-11 -18,-7 -13,-8 -5,-2 5,2 -2,-2 h -3 z"
   id="path100"
   inkscape:connector-curvature="0"
   style="fill:#000000;stroke:none" />
         <path
   d="m 9956,16381 v 0 l 8,2 15,5 15,5 13,3 v -20 l -7,-3 -16,-5 -15,-5 -13,-3 v 0 z"
   id="path102"
   inkscape:connector-curvature="0"
   style="fill:#000000;stroke:none" />
         <path
   d="m 9933,16327 v 3 l -7,18 7,15 11,13 12,5 v -21 h -2 l -5,-7 -3,-5 3,-8 v 3 z"
   id="path104"
   inkscape:connector-curvature="0"
   style="fill:#000000;stroke:none" />
         <path
   d="m 10005,16289 v 0 l -21,3 -20,10 -18,13 -13,12 16,16 12,-13 13,-13 15,-5 16,-2 v 0 z"
   id="path106"
   inkscape:connector-curvature="0"
   style="fill:#000000;stroke:none" />
         <path
   d="m 10073,16315 21,-3 -11,-8 -7,-5 -10,-5 h -13 l -13,-2 h -12 l -13,-3 h -10 v 21 h 10 l 13,2 h 12 l 13,3 h 8 l 5,5 h 7 v 2 l 21,-2 -21,2 10,23 11,-25 z"
   id="path108"
   inkscape:connector-curvature="0"
   style="fill:#000000;stroke:none" />
         <path
   d="m 10152,16299 3,3 -26,-10 h -20 l -23,7 -13,16 21,5 2,-5 13,-3 h 20 l 16,5 2,3 z"
   id="path110"
   inkscape:connector-curvature="0"
   style="fill:#000000;stroke:none" />
         <path
   d="m 10213,16337 8,6 -18,-21 -20,-12 -18,-6 -13,-5 -5,21 13,5 18,5 15,7 13,16 7,5 -7,-5 2,5 h 5 z"
   id="path112"
   inkscape:connector-curvature="0"
   style="fill:#000000;stroke:none" />
         <path
   d="m 10302,16406 8,8 -8,-10 -7,-11 -13,-15 -15,-10 -13,-10 -13,-8 -15,-10 -13,-3 v 21 l 8,2 10,5 13,8 13,10 10,10 12,11 8,10 3,5 7,7 -7,-7 2,5 5,2 z"
   id="path114"
   inkscape:connector-curvature="0"
   style="fill:#000000;stroke:none" />
         <path
   d="m 10368,16462 13,-15 -18,-10 -20,-16 -23,-7 -18,-8 -5,20 18,8 18,8 20,10 13,10 13,-15 -11,15 72,51 -59,-66 z"
   id="path116"
   inkscape:connector-curvature="0"
   style="fill:#000000;stroke:none" />
         <path
   d="m 10333,16442 v 0 l 7,2 8,5 10,5 10,8 11,-15 -11,-8 -10,-5 -7,-5 -13,-8 v 0 z"
   id="path118"
   inkscape:connector-curvature="0"
   style="fill:#000000;stroke:none" />
         <path
   d="m 10292,16406 v 3 l 8,7 7,8 13,10 13,8 5,-21 -8,-2 -7,-10 -8,-8 -8,-8 v 3 z"
   id="path120"
   inkscape:connector-curvature="0"
   style="fill:#000000;stroke:none" />
         <path
   d="m 10241,16350 v 0 l 10,10 13,13 15,18 13,15 15,-10 -12,-15 -16,-18 -12,-18 -16,-10 v 0 z"
   id="path122"
   inkscape:connector-curvature="0"
   style="fill:#000000;stroke:none" />
         <path
   d="m 10216,16322 v 5 l 2,5 5,3 6,8 12,7 10,-15 -7,-8 -5,-7 -5,-3 h 2 v 5 h -20 v 3 h 2 z"
   id="path124"
   inkscape:connector-curvature="0"
   style="fill:#000000;stroke:none" />
         <path
   d="m 10297,16292 v 0 h -15 l -15,-3 h -13 -10 -13 l -10,10 -5,13 v 10 h 20 v -10 -2 0 h 8 10 13 l 15,2 h 15 v 0 z"
   id="path126"
   inkscape:connector-curvature="0"
   style="fill:#000000;stroke:none" />
         <path
   d="m 10371,16348 h -3 l -5,-5 -15,-23 -23,-18 -28,-10 v 20 l 18,5 18,18 15,18 15,15 h -2 z"
   id="path128"
   inkscape:connector-curvature="0"
   style="fill:#000000;stroke:none" />
         <path
   d="m 10458,16426 2,3 -8,-10 -10,-13 -12,-13 -13,-12 -15,-10 -13,-8 -10,-8 -8,-7 -10,20 7,3 11,7 12,8 11,10 12,13 13,12 10,8 8,10 2,3 -2,-3 v 3 h 2 z"
   id="path130"
   inkscape:connector-curvature="0"
   style="fill:#000000;stroke:none" />
         <path
   d="m 10508,16457 v 0 l -20,-13 -13,-7 -10,-5 -7,-6 -11,16 8,5 10,5 13,7 20,13 v 0 z"
   id="path132"
   inkscape:connector-curvature="0"
   style="fill:#000000;stroke:none" />
         <path
   d="m 10529,16503 18,-10 -6,-3 -5,-8 -10,-12 -18,-13 -10,15 13,13 10,8 5,7 5,8 18,-10 -18,10 28,30 -10,-40 z"
   id="path134"
   inkscape:connector-curvature="0"
   style="fill:#000000;stroke:none" />
         <path
   d="m 10460,16358 v 0 l 15,25 21,43 20,46 13,31 20,-5 -13,-31 -20,-46 -25,-48 -16,-25 v 0 z"
   id="path136"
   inkscape:connector-curvature="0"
   style="fill:#000000;stroke:none" />
         <path
   d="m 10455,16294 h 3 l -21,16 3,17 10,18 10,13 15,-10 -10,-13 -5,-13 -2,-7 v 0 h 2 z"
   id="path138"
   inkscape:connector-curvature="0"
   style="fill:#000000;stroke:none" />
         <path
   d="m 10562,16360 5,5 -8,-22 -12,-18 -16,-15 -18,-11 -15,-5 -18,-2 h -12 l -13,2 5,21 8,-3 h 12 l 13,3 15,5 13,5 10,10 8,13 8,23 5,5 -5,-5 2,2 3,3 z"
   id="path140"
   inkscape:connector-curvature="0"
   style="fill:#000000;stroke:none" />
         <path
   d="m 10605,16442 8,12 -3,-22 -15,-28 -15,-26 -18,-18 -10,16 12,12 16,26 10,23 2,12 8,13 -8,-13 -2,8 10,5 z"
   id="path142"
   inkscape:connector-curvature="0"
   style="fill:#000000;stroke:none" />
         <path
   d="m 10648,16513 3,7 -3,-15 -12,-23 -13,-23 -18,-17 -5,20 8,8 12,23 8,17 3,10 2,8 -2,-8 v 3 l 2,5 z"
   id="path144"
   inkscape:connector-curvature="0"
   style="fill:#000000;stroke:none" />
         <path
   d="m 10656,16541 15,5 -2,-10 -8,-10 -8,-6 -5,-7 -15,15 5,8 8,5 2,5 3,5 15,5 -15,-5 5,15 10,-10 z"
   id="path146"
   inkscape:connector-curvature="0"
   style="fill:#000000;stroke:none" />
         <path
   d="m 10692,16520 10,-7 -10,2 -13,8 -13,10 -10,8 10,15 10,-8 13,-10 8,-2 5,-3 10,-7 -10,7 h 7 l 3,-7 z"
   id="path148"
   inkscape:connector-curvature="0"
   style="fill:#000000;stroke:none" />
         <path
   d="m 10730,16472 v 3 l -5,10 -13,10 -13,13 -7,12 20,6 3,-8 12,-8 13,-15 10,-15 v 2 z"
   id="path150"
   inkscape:connector-curvature="0"
   style="fill:#000000;stroke:none" />
         <path
   d="m 10753,16434 10,-8 -15,11 -8,12 -5,13 -5,10 20,10 5,-15 5,-13 3,-7 v 0 l 10,-8 -10,8 h 7 l 3,-8 z"
   id="path152"
   inkscape:connector-curvature="0"
   style="fill:#000000;stroke:none" />
         <path
   d="m 10786,16350 v 0 l -18,26 -10,22 -3,21 -2,15 20,5 3,-20 2,-15 5,-18 18,-21 v 0 z"
   id="path154"
   inkscape:connector-curvature="0"
   style="fill:#000000;stroke:none" />
         <path
   d="m 10890,16292 v 0 h -15 -15 l -18,7 -10,8 -11,10 -12,10 -13,13 -10,10 15,15 10,-15 8,-7 13,-11 10,-10 10,-7 8,-3 h 15 15 v 0 z"
   id="path156"
   inkscape:connector-curvature="0"
   style="fill:#000000;stroke:none" />
         <path
   d="m 10938,16330 v 0 -8 l -5,-12 -15,-13 -28,-5 v 20 l 23,5 5,3 v 2 8 0 z"
   id="path158"
   inkscape:connector-curvature="0"
   style="fill:#000000;stroke:none" />
         <path
   d="m 10936,16343 v 0 -6 l 2,-2 v -3 -2 h -20 v 2 3 l 3,-3 -5,5 v 0 z"
   id="path160"
   inkscape:connector-curvature="0"
   style="fill:#000000;stroke:none" />
         <path
   d="m 10903,16391 v 0 l 2,-8 13,-15 10,-13 8,-12 -20,-6 -3,8 -10,13 -13,15 -8,13 v 0 z"
   id="path162"
   inkscape:connector-curvature="0"
   style="fill:#000000;stroke:none" />
         <path
   d="m 10885,16437 v 0 l 5,-13 5,-13 5,-10 3,-10 -21,-5 -2,10 -5,10 -5,13 -5,13 v 0 z"
   id="path164"
   inkscape:connector-curvature="0"
   style="fill:#000000;stroke:none" />
         <path
   d="m 10872,16454 -7,11 2,-3 8,-8 5,-7 5,-10 -20,-5 -5,10 v 7 l 2,-2 -2,-3 -8,10 8,-10 -8,3 v 7 z"
   id="path166"
   inkscape:connector-curvature="0"
   style="fill:#000000;stroke:none" />
         <path
   d="m 10862,16505 v -5 l 3,-10 2,-13 3,-12 2,-11 h -20 l -3,11 -2,12 -3,13 -2,10 v -5 z"
   id="path168"
   inkscape:connector-curvature="0"
   style="fill:#000000;stroke:none" />
         <path
   d="m 10862,16561 -2,-2 v -11 -20 -18 l 2,-5 -20,-10 -3,15 v 18 20 l 5,21 -2,-3 z"
   id="path170"
   inkscape:connector-curvature="0"
   style="fill:#000000;stroke:none" />
         <path
   d="m 10872,16609 v 3 -10 l -2,-15 -3,-16 -5,-10 -20,5 5,10 2,11 3,15 v 10 3 -3 0 3 z"
   id="path172"
   inkscape:connector-curvature="0"
   style="fill:#000000;stroke:none" />
         <path
   d="m 10880,16655 2,5 v -12 l -2,-16 -5,-10 -3,-13 -20,6 2,12 6,10 2,11 v 12 l 3,5 -3,-5 v 3 l 3,2 z"
   id="path174"
   inkscape:connector-curvature="0"
   style="fill:#000000;stroke:none" />
         <path
   d="m 10941,16808 v 0 l -13,-56 -15,-43 -20,-36 -13,-18 -15,10 12,18 16,31 15,43 13,51 v 0 z"
   id="path176"
   inkscape:connector-curvature="0"
   style="fill:#000000;stroke:none" />
         <path
   d="m 10938,16907 v 2 l 3,-7 3,-18 2,-28 -5,-48 h -20 l 5,48 -3,28 -2,18 -3,7 v 3 -3 0 3 z"
   id="path178"
   inkscape:connector-curvature="0"
   style="fill:#000000;stroke:none" />
         <path
   d="m 10951,16960 5,-20 -2,-3 -8,-10 -2,-10 -6,-10 -20,5 5,10 8,15 7,10 8,13 5,-20 v 20 h 43 l -40,-18 z"
   id="path180"
   inkscape:connector-curvature="0"
   style="fill:#000000;stroke:none" />
         <path
   d="m 10157,16358 -7,-8 -18,-18 -23,-17 -26,-13 -5,15 21,13 23,18 17,12 8,8 z"
   id="path182"
   inkscape:connector-curvature="0"
   style="fill:#000000;stroke:none" />
         <path
   d="m 10338,16447 -26,-26 -25,-17 -33,-18 -31,-13 -30,-13 -28,-5 -20,-5 h -13 v 15 h 13 l 20,6 23,5 30,12 31,13 28,18 25,18 21,20 z"
   id="path184"
   inkscape:connector-curvature="0"
   style="fill:#000000;stroke:none" />
         <path
   d="m 10491,16528 -11,-20 -20,-18 -20,-15 -28,-13 -26,-13 -25,-7 -21,-8 -20,-2 v 15 l 15,2 21,8 25,8 26,12 23,13 20,15 15,13 10,15 z"
   id="path186"
   inkscape:connector-curvature="0"
   style="fill:#000000;stroke:none" />
         <path
   d="m 10346,16365 7,-2 v 0 l 5,2 3,3 10,-15 -8,-3 -5,-2 h -5 l -7,2 z"
   id="path188"
   inkscape:connector-curvature="0"
   style="fill:#000000;stroke:none" />
         <path
   d="m 10534,16378 h 2 l 8,-2 5,2 5,3 v -21 l -5,3 -5,-3 -8,-2 h -2 z"
   id="path190"
   inkscape:connector-curvature="0"
   style="fill:#000000;stroke:none" />
         <path
   d="m 10585,16457 v 0 -3 h 7 l 5,3 6,-15 -11,-3 h -7 l -5,3 h -5 z"
   id="path192"
   inkscape:connector-curvature="0"
   style="fill:#000000;stroke:none" />
         <path
   d="m 10188,16355 h 5 8 l 5,-2 5,2 5,-15 -10,-3 -5,-2 h -8 -5 z"
   id="path194"
   inkscape:connector-curvature="0"
   style="fill:#000000;stroke:none" />
         <path
   d="m 9969,16368 v 0 h 8 l 12,3 16,7 7,5 10,-15 -12,-5 -16,-8 -17,-2 h -13 v 0 z"
   id="path196"
   inkscape:connector-curvature="0"
   style="fill:#000000;stroke:none" />
         <path
   d="m 9954,16378 h 7 l 8,-7 v -3 0 l -5,-15 -10,5 v 7 l 2,-2 h 3 z"
   id="path198"
   inkscape:connector-curvature="0"
   style="fill:#000000;stroke:none" />
         <path
   d="m 10229,16515 h 12 l 18,-2 13,-3 7,-2 v -15 l -7,2 -13,3 -18,2 h -7 z"
   id="path200"
   inkscape:connector-curvature="0"
   style="fill:#000000;stroke:none" />
         <path
   d="m 10389,16599 v 0 l 10,18 20,20 18,13 18,8 v -16 l -8,-7 -17,-13 -16,-15 -10,-13 v 0 z"
   id="path202"
   inkscape:connector-curvature="0"
   style="fill:#000000;stroke:none" />
         <path
   d="m 10348,16571 -2,-2 10,5 10,7 15,8 8,10 15,-5 -13,-15 -15,-13 -15,-7 h -5 l -3,-3 z"
   id="path204"
   inkscape:connector-curvature="0"
   style="fill:#000000;stroke:none" />
         <path
   d="m 10307,16554 v 0 h 8 l 13,7 12,5 8,5 5,-15 -7,-5 -13,-5 -13,-8 -13,-5 v 0 z"
   id="path206"
   inkscape:connector-curvature="0"
   style="fill:#000000;stroke:none" />
         <path
   d="m 10277,16548 5,-2 5,2 13,3 7,3 v -21 l -7,3 -8,-3 -10,-2 -5,-3 z"
   id="path208"
   inkscape:connector-curvature="0"
   style="fill:#000000;stroke:none" />
         <path
   d="m 10363,16617 v -2 l 5,12 13,10 10,13 8,5 10,-15 -7,-5 -11,-8 -7,-10 -5,-8 v -2 z"
   id="path210"
   inkscape:connector-curvature="0"
   style="fill:#000000;stroke:none" />
         <path
   d="m 10358,16576 h -2 l 2,11 3,12 2,18 16,-10 -3,-8 -2,-12 -3,-16 -13,-10 z"
   id="path212"
   inkscape:connector-curvature="0"
   style="fill:#000000;stroke:none" />
         <path
   d="m 10488,16658 -2,18 27,10 6,-16 -28,-10 -3,18 v -20 h -53 l 51,18 z"
   id="path214"
   inkscape:connector-curvature="0"
   style="fill:#000000;stroke:none" />
         <path
   d="m 10531,16673 v 3 l -12,-11 -8,-2 -13,-3 -10,-2 v 20 l 10,-2 8,2 7,3 8,5 v 2 z"
   id="path216"
   inkscape:connector-curvature="0"
   style="fill:#000000;stroke:none" />
         <path
   d="m 10610,16734 -7,-8 -8,-5 -10,-10 -13,-8 -13,-10 -10,-7 -10,-8 -8,-5 -10,15 8,5 10,8 10,8 13,10 13,7 10,10 7,6 3,2 z"
   id="path218"
   inkscape:connector-curvature="0"
   style="fill:#000000;stroke:none" />
         <path
   d="m 10582,16541 -13,-8 -10,-5 -12,-5 -18,-5 -18,-3 -15,-2 -10,-3 -11,-2 v 20 l 11,-2 10,2 15,3 18,2 12,5 13,5 10,5 3,3 z"
   id="path220"
   inkscape:connector-curvature="0"
   style="fill:#000000;stroke:none" />
         <path
   d="m 10618,16559 v 0 l -13,-11 -10,-12 -15,-8 -23,-2 v 15 l 18,2 10,8 10,8 13,15 v 0 z"
   id="path222"
   inkscape:connector-curvature="0"
   style="fill:#000000;stroke:none" />
         <path
   d="m 10704,16538 h 3 -3 l -10,5 -13,5 -17,6 -13,5 -15,2 h -13 l -5,-2 -10,15 15,2 h 13 l 15,-2 18,-5 18,-5 12,-5 10,-5 8,-6 h 3 z"
   id="path224"
   inkscape:connector-curvature="0"
   style="fill:#000000;stroke:none" />
         <path
   d="m 10709,16508 -2,10 -3,10 3,8 -3,2 16,10 2,-12 3,-8 -3,-10 3,-5 z"
   id="path226"
   inkscape:connector-curvature="0"
   style="fill:#000000;stroke:none" />
         <path
   d="m 10597,16561 3,3 18,5 15,2 18,-5 15,-5 15,-7 13,-8 10,-10 5,-10 -15,-6 -5,6 -5,5 -13,7 -10,8 -15,5 -13,5 -10,-2 -13,-6 3,3 -16,10 h 3 v 3 z"
   id="path228"
   inkscape:connector-curvature="0"
   style="fill:#000000;stroke:none" />
         <path
   d="m 10554,16538 h 3 18 l 10,8 5,5 7,10 16,-10 -8,-10 -10,-10 -20,-8 h -18 2 l -5,15 3,3 v -3 z"
   id="path230"
   inkscape:connector-curvature="0"
   style="fill:#000000;stroke:none" />
         <path
   d="m 10468,16520 12,-2 16,2 12,3 11,3 10,5 12,2 8,3 5,2 5,-15 -5,-3 -13,-2 -7,-3 -10,-5 -16,-2 -12,-3 -16,-2 -12,-3 z"
   id="path232"
   inkscape:connector-curvature="0"
   style="fill:#000000;stroke:none" />
         <path
   d="m 10610,16526 -18,-11 -17,-7 -21,-8 -25,-5 -23,-5 -20,-3 -18,-2 -16,2 v 16 l 16,2 18,-2 20,2 23,5 20,5 20,8 18,8 13,10 z"
   id="path234"
   inkscape:connector-curvature="0"
   style="fill:#000000;stroke:none" />
         <path
   d="m 10572,16503 -3,10 3,-3 h 10 l 10,3 16,5 15,5 10,8 8,10 15,-10 -13,-11 -15,-12 -15,-5 -16,-5 -15,-3 h -10 l -13,3 -2,15 z"
   id="path236"
   inkscape:connector-curvature="0"
   style="fill:#000000;stroke:none" />
         <path
   d="m 10900,16330 v 0 l 10,-5 h 6 v 2 l 5,5 15,-5 -5,-10 -10,-7 h -11 l -15,5 v 0 z"
   id="path238"
   inkscape:connector-curvature="0"
   style="fill:#000000;stroke:none" />
         <path
   d="m 10837,16358 7,15 5,-10 18,-10 18,-13 15,-10 -5,-15 -20,10 -18,12 -18,16 -10,10 8,15 -8,-15 -10,13 18,2 z"
   id="path240"
   inkscape:connector-curvature="0"
   style="fill:#000000;stroke:none" />
         <path
   d="m 10900,16381 -15,-13 -18,-3 -18,-5 -12,-2 v 20 l 12,-2 18,5 13,2 v -2 z"
   id="path242"
   inkscape:connector-curvature="0"
   style="fill:#000000;stroke:none" />
         <path
   d="m 10809,16660 h 20 l 20,-18 11,-22 7,-18 h -20 l -3,13 -10,17 -10,13 h -5 z"
   id="path244"
   inkscape:connector-curvature="0"
   style="fill:#000000;stroke:none" />
         <path
   d="m 10798,16673 23,-3 21,-10 12,-15 11,-13 -16,-5 -5,8 -12,10 -16,10 -18,3 z"
   id="path246"
   inkscape:connector-curvature="0"
   style="fill:#000000;stroke:none" />
         <path
   d="m 10852,16642 v 3 l 8,15 12,26 13,30 10,20 15,-5 -10,-20 -12,-30 -13,-26 -8,-15 v 2 z"
   id="path248"
   inkscape:connector-curvature="0"
   style="fill:#000000;stroke:none" />
         <path
   d="m 10842,16584 v 0 l 5,8 2,20 v 18 l 3,12 h 15 l -2,-12 v -18 l -3,-20 -5,-18 v 0 z"
   id="path250"
   inkscape:connector-curvature="0"
   style="fill:#000000;stroke:none" />
         <path
   d="m 10834,16495 v 0 l -5,25 v 26 l 5,23 8,15 15,-10 -8,-10 -5,-18 v -26 l 5,-15 v 0 z"
   id="path252"
   inkscape:connector-curvature="0"
   style="fill:#000000;stroke:none" />
         <path
   d="m 10844,16467 v -2 7 8 l -10,15 15,10 11,-20 5,-13 -5,-7 v -8 z"
   id="path254"
   inkscape:connector-curvature="0"
   style="fill:#000000;stroke:none" />
         <path
   d="m 10908,16935 -5,5 7,-5 11,-8 7,-5 5,-8 -10,-10 -5,3 -8,5 -10,7 -2,6 -5,5 z"
   id="path256"
   inkscape:connector-curvature="0"
   style="fill:#000000;stroke:none" />
         <path
   d="m 10918,16914 -5,3 -5,5 -5,3 5,10 -15,-5 10,10 10,-3 10,-5 5,-2 z"
   id="path258"
   inkscape:connector-curvature="0"
   style="fill:#000000;stroke:none" />
         <path
   d="m 10745,16970 h -5 l -13,-17 -20,-23 -23,-28 -23,-28 -20,-28 -16,-21 -10,-10 -15,10 10,11 15,20 21,28 23,28 23,28 20,23 18,17 15,11 z"
   id="path260"
   inkscape:connector-curvature="0"
   style="fill:#000000;stroke:none" />
         <path
   d="m 10753,17019 5,-18 -8,-8 -13,-18 -17,-22 -21,-28 -18,-28 -17,-23 -11,-16 -7,-7 -10,10 2,8 10,15 18,23 18,28 20,28 18,23 13,17 13,13 5,-18 v 21 l 33,-3 -28,-15 z"
   id="path262"
   inkscape:connector-curvature="0"
   style="fill:#000000;stroke:none" />
         <path
   d="m 10753,17019 v -3 l 2,-2 h -2 l -3,2 3,3 v -21 l -8,3 -8,7 -2,6 2,7 v -2 z"
   id="path264"
   inkscape:connector-curvature="0"
   style="fill:#000000;stroke:none" />
         <path
   d="m 10707,16986 5,7 10,15 15,13 16,-2 h -16 l 11,-8 -11,-13 -10,-15 -5,-8 z"
   id="path266"
   inkscape:connector-curvature="0"
   style="fill:#000000;stroke:none" />
         <path
   d="m 10435,16439 -3,3 5,2 8,-2 5,2 5,-15 -10,-3 -8,-2 -5,2 -13,8 z"
   id="path268"
   inkscape:connector-curvature="0"
   style="fill:#000000;stroke:none" />
         <path
   d="m 11017,16998 3,-2 7,-3 8,-5 8,-2 h 5 l 2,7 5,8 3,7 8,26 17,56 26,79 25,91 28,89 23,79 18,56 5,20 h -557 l -8,-43 -20,-99 -20,-102 -13,-56 v -15 l 10,-8 18,-7 15,-5 z"
   id="path270"
   inkscape:connector-curvature="0"
   style="fill:#004cb2;stroke:none" />
         <path
   d="m 11040,16975 v 0 l -10,3 -8,5 -5,5 -5,3 10,15 v -3 h 11 l 7,-5 5,-2 v 0 z"
   id="path272"
   inkscape:connector-curvature="0"
   style="fill:#000000;stroke:none" />
         <path
   d="m 11068,17003 v 0 l -2,-7 -5,-8 -6,-10 -15,-3 5,21 -5,-3 v 5 l 5,8 3,8 v 0 z"
   id="path274"
   inkscape:connector-curvature="0"
   style="fill:#000000;stroke:none" />
         <path
   d="m 11208,17514 10,-13 -5,-20 -18,-56 -22,-79 -28,-89 -26,-91 -25,-79 -18,-56 -8,-28 -20,11 7,22 18,56 26,79 25,92 28,89 23,78 18,56 5,21 10,-13 v 20 h 15 l -5,-13 z"
   id="path276"
   inkscape:connector-curvature="0"
   style="fill:#000000;stroke:none" />
         <path
   d="m 10641,17504 10,10 h 557 v -20 h -557 l 10,10 h -20 l 2,10 h 8 z"
   id="path278"
   inkscape:connector-curvature="0"
   style="fill:#000000;stroke:none" />
         <path
   d="m 10580,17207 v 0 l 12,53 21,102 20,99 8,43 h 20 l -8,-43 -20,-99 -20,-102 -13,-58 v 0 z"
   id="path280"
   inkscape:connector-curvature="0"
   style="fill:#000000;stroke:none" />
         <path
   d="m 10631,17158 v 0 l -16,5 -20,11 -15,12 v 21 l 20,-5 v -11 l 5,-2 15,-5 16,-5 v 0 z"
   id="path282"
   inkscape:connector-curvature="0"
   style="fill:#000000;stroke:none" />
         <path
   d="m 11012,16991 3,-3 -384,170 5,21 384,-171 2,-2 z"
   id="path284"
   inkscape:connector-curvature="0"
   style="fill:#000000;stroke:none" />
         <path
   d="m 11083,16162 156,140 -1466,-5 92,-155 z"
   id="path286"
   inkscape:connector-curvature="0"
   style="fill:#ffffff;stroke:none" />
         <path
   d="m 11239,16312 7,-18 -155,-139 -15,15 155,140 8,-18 v 20 h 28 l -21,-18 z"
   id="path288"
   inkscape:connector-curvature="0"
   style="fill:#000000;stroke:none" />
         <path
   d="m 9765,16292 8,15 1466,5 v -20 l -1466,-5 8,15 -16,-10 -10,15 h 18 z"
   id="path290"
   inkscape:connector-curvature="0"
   style="fill:#000000;stroke:none" />
         <path
   d="m 9865,16132 -8,5 -92,155 16,10 91,-155 -7,5 v -20 h -5 l -3,5 z"
   id="path292"
   inkscape:connector-curvature="0"
   style="fill:#000000;stroke:none" />
         <path
   d="m 11091,16155 -8,-3 -1218,-20 v 20 l 1218,20 -7,-2 15,-15 -5,-3 h -3 z"
   id="path294"
   inkscape:connector-curvature="0"
   style="fill:#000000;stroke:none" />
         <path
   d="m 11081,16132 155,139 -1465,-5 91,-155 z"
   id="path296"
   inkscape:connector-curvature="0"
   style="fill:#ffffff;stroke:none" />
         <path
   d="m 11236,16282 8,-18 -155,-140 -16,15 155,140 8,-18 v 21 h 28 l -20,-18 z"
   id="path298"
   inkscape:connector-curvature="0"
   style="fill:#000000;stroke:none" />
         <path
   d="m 9763,16261 8,16 1465,5 v -21 l -1465,-5 7,15 -15,-10 -10,16 h 18 z"
   id="path300"
   inkscape:connector-curvature="0"
   style="fill:#000000;stroke:none" />
         <path
   d="m 9862,16101 -8,5 -91,155 15,10 92,-155 -8,5 v -20 h -5 l -3,5 z"
   id="path302"
   inkscape:connector-curvature="0"
   style="fill:#000000;stroke:none" />
         <path
   d="m 11089,16124 -8,-3 -1219,-20 v 20 l 1219,21 -8,-3 16,-15 -6,-3 h -2 z"
   id="path304"
   inkscape:connector-curvature="0"
   style="fill:#000000;stroke:none" />
         <path
   d="m 11076,16101 155,140 -1466,-5 92,-155 z"
   id="path306"
   inkscape:connector-curvature="0"
   style="fill:#ffffff;stroke:none" />
         <path
   d="m 11231,16251 8,-18 -156,-139 -15,15 155,140 8,-18 v 20 h 28 l -20,-18 z"
   id="path308"
   inkscape:connector-curvature="0"
   style="fill:#000000;stroke:none" />
         <path
   d="m 9758,16231 7,15 1466,5 v -20 l -1466,-5 8,15 -15,-10 -10,15 h 17 z"
   id="path310"
   inkscape:connector-curvature="0"
   style="fill:#000000;stroke:none" />
         <path
   d="m 9857,16071 -8,5 -91,155 15,10 92,-155 -8,5 v -20 h -5 l -3,5 z"
   id="path312"
   inkscape:connector-curvature="0"
   style="fill:#000000;stroke:none" />
         <path
   d="m 11083,16094 -7,-3 -1219,-20 v 20 l 1219,20 -8,-2 15,-15 -5,-3 h -2 z"
   id="path314"
   inkscape:connector-curvature="0"
   style="fill:#000000;stroke:none" />
         <path
   d="m 11058,16048 155,140 -1465,-6 91,-155 z"
   id="path316"
   inkscape:connector-curvature="0"
   style="fill:#ffffff;stroke:none" />
         <path
   d="m 11213,16198 8,-18 -155,-140 -16,15 156,140 7,-18 v 21 h 28 l -20,-18 z"
   id="path318"
   inkscape:connector-curvature="0"
   style="fill:#000000;stroke:none" />
         <path
   d="m 9740,16177 8,16 1465,5 v -21 l -1465,-5 7,16 -15,-11 -10,16 h 18 z"
   id="path320"
   inkscape:connector-curvature="0"
   style="fill:#000000;stroke:none" />
         <path
   d="m 9839,16017 -7,5 -92,155 15,11 92,-155 -8,5 v -21 h -5 l -2,5 z"
   id="path322"
   inkscape:connector-curvature="0"
   style="fill:#000000;stroke:none" />
         <path
   d="m 11066,16040 -8,-2 -1219,-21 v 21 l 1219,20 -8,-3 16,-15 -5,-2 h -3 z"
   id="path324"
   inkscape:connector-curvature="0"
   style="fill:#000000;stroke:none" />
         <path
   d="m 11106,15936 158,140 -1465,-5 91,-155 z"
   id="path326"
   inkscape:connector-curvature="0"
   style="fill:#ffffff;stroke:none" />
         <path
   d="m 11264,16086 5,-18 -158,-140 -10,16 158,139 5,-17 v 20 h 28 l -23,-18 z"
   id="path328"
   inkscape:connector-curvature="0"
   style="fill:#000000;stroke:none" />
         <path
   d="m 9791,16066 8,15 1465,5 v -20 l -1465,-6 7,16 -15,-10 -10,15 h 18 z"
   id="path330"
   inkscape:connector-curvature="0"
   style="fill:#000000;stroke:none" />
         <path
   d="m 9890,15905 -8,6 -91,155 15,10 92,-155 -8,5 v -21 h -5 l -3,6 z"
   id="path332"
   inkscape:connector-curvature="0"
   style="fill:#000000;stroke:none" />
         <path
   d="m 11111,15928 -5,-2 -1216,-21 v 21 l 1216,20 -5,-2 10,-16 -2,-2 h -3 z"
   id="path334"
   inkscape:connector-curvature="0"
   style="fill:#000000;stroke:none" />
         <path
   d="m 11106,15875 158,142 -1465,-5 91,-157 z"
   id="path336"
   inkscape:connector-curvature="0"
   style="fill:#ffffff;stroke:none" />
         <path
   d="m 11264,16027 8,-17 -158,-143 -15,16 157,142 8,-18 v 20 h 28 l -20,-17 z"
   id="path338"
   inkscape:connector-curvature="0"
   style="fill:#000000;stroke:none" />
         <path
   d="m 9791,16007 8,15 1465,5 v -20 l -1465,-5 7,15 -15,-10 -10,15 h 18 z"
   id="path340"
   inkscape:connector-curvature="0"
   style="fill:#000000;stroke:none" />
         <path
   d="m 9890,15844 -8,6 -91,157 15,10 92,-157 -8,5 v -21 h -5 l -3,6 z"
   id="path342"
   inkscape:connector-curvature="0"
   style="fill:#000000;stroke:none" />
         <path
   d="m 11114,15867 -8,-2 -1216,-21 v 21 l 1216,20 -7,-2 15,-16 -5,-2 h -3 z"
   id="path344"
   inkscape:connector-curvature="0"
   style="fill:#000000;stroke:none" />
         <path
   d="m 11068,15794 155,142 -1465,-5 91,-158 z"
   id="path346"
   inkscape:connector-curvature="0"
   style="fill:#ffffff;stroke:none" />
         <path
   d="m 11223,15946 8,-18 -155,-142 -15,15 155,143 7,-18 v 20 h 28 l -20,-18 z"
   id="path348"
   inkscape:connector-curvature="0"
   style="fill:#000000;stroke:none" />
         <path
   d="m 9750,15926 8,15 1465,5 v -20 l -1465,-5 7,15 -15,-10 -10,15 h 18 z"
   id="path350"
   inkscape:connector-curvature="0"
   style="fill:#000000;stroke:none" />
         <path
   d="m 9849,15763 -7,5 -92,158 15,10 92,-158 -8,5 v -20 h -5 l -2,5 z"
   id="path352"
   inkscape:connector-curvature="0"
   style="fill:#000000;stroke:none" />
         <path
   d="m 11076,15786 -8,-3 -1219,-20 v 20 l 1219,21 -7,-3 15,-15 -5,-3 h -3 z"
   id="path354"
   inkscape:connector-curvature="0"
   style="fill:#000000;stroke:none" />
         <path
   d="m 11068,15695 155,139 -1465,-5 91,-155 z"
   id="path356"
   inkscape:connector-curvature="0"
   style="fill:#ffffff;stroke:none" />
         <path
   d="m 11223,15844 8,-17 -155,-140 -15,15 155,140 7,-18 v 20 h 28 l -20,-17 z"
   id="path358"
   inkscape:connector-curvature="0"
   style="fill:#000000;stroke:none" />
         <path
   d="m 9750,15824 8,15 1465,5 v -20 l -1465,-5 7,15 -15,-10 -10,15 h 18 z"
   id="path360"
   inkscape:connector-curvature="0"
   style="fill:#000000;stroke:none" />
         <path
   d="m 9849,15664 -7,5 -92,155 15,10 92,-155 -8,5 v -20 h -5 l -2,5 z"
   id="path362"
   inkscape:connector-curvature="0"
   style="fill:#000000;stroke:none" />
         <path
   d="m 11076,15687 -8,-3 -1219,-20 v 20 l 1219,21 -7,-3 15,-15 -5,-3 h -3 z"
   id="path364"
   inkscape:connector-curvature="0"
   style="fill:#000000;stroke:none" />
         <path
   d="m 11078,15593 156,140 -1466,-5 92,-155 z"
   id="path366"
   inkscape:connector-curvature="0"
   style="fill:#ffffff;stroke:none" />
         <path
   d="m 11234,15743 7,-18 -155,-140 -15,15 155,140 8,-18 v 21 h 28 l -21,-18 z"
   id="path368"
   inkscape:connector-curvature="0"
   style="fill:#000000;stroke:none" />
         <path
   d="m 9760,15722 8,16 1466,5 v -21 l -1466,-5 8,16 -16,-11 -10,16 h 18 z"
   id="path370"
   inkscape:connector-curvature="0"
   style="fill:#000000;stroke:none" />
         <path
   d="m 9860,15562 -8,5 -92,155 16,11 91,-155 -7,5 v -21 h -6 l -2,5 z"
   id="path372"
   inkscape:connector-curvature="0"
   style="fill:#000000;stroke:none" />
         <path
   d="m 11086,15585 -8,-2 -1218,-21 v 21 l 1218,20 -7,-3 15,-15 -5,-2 h -3 z"
   id="path374"
   inkscape:connector-curvature="0"
   style="fill:#000000;stroke:none" />
         <path
   d="m 11040,15484 155,139 -1465,-5 91,-155 z"
   id="path376"
   inkscape:connector-curvature="0"
   style="fill:#ffffff;stroke:none" />
         <path
   d="m 11195,15634 8,-18 -155,-140 -15,15 155,140 7,-18 v 21 h 28 l -20,-18 z"
   id="path378"
   inkscape:connector-curvature="0"
   style="fill:#000000;stroke:none" />
         <path
   d="m 9722,15613 8,15 1465,6 v -21 l -1465,-5 7,15 -15,-10 -10,15 h 18 z"
   id="path380"
   inkscape:connector-curvature="0"
   style="fill:#000000;stroke:none" />
         <path
   d="m 9821,15453 -7,5 -92,155 15,10 92,-155 -8,5 v -20 h -5 l -2,5 z"
   id="path382"
   inkscape:connector-curvature="0"
   style="fill:#000000;stroke:none" />
         <path
   d="m 11048,15476 -8,-3 -1219,-20 v 20 l 1219,21 -7,-3 15,-15 -5,-3 h -3 z"
   id="path384"
   inkscape:connector-curvature="0"
   style="fill:#000000;stroke:none" />
         <path
   d="m 11035,15453 155,140 -1465,-5 91,-155 z"
   id="path386"
   inkscape:connector-curvature="0"
   style="fill:#ffffff;stroke:none" />
         <path
   d="m 11190,15603 8,-18 -155,-140 -16,16 156,139 7,-17 v 20 h 28 l -20,-18 z"
   id="path388"
   inkscape:connector-curvature="0"
   style="fill:#000000;stroke:none" />
         <path
   d="m 9717,15583 8,15 1465,5 v -20 l -1465,-5 7,15 -15,-10 -10,15 h 18 z"
   id="path390"
   inkscape:connector-curvature="0"
   style="fill:#000000;stroke:none" />
         <path
   d="m 9816,15423 -7,5 -92,155 15,10 92,-155 -8,5 v -20 h -5 l -2,5 z"
   id="path392"
   inkscape:connector-curvature="0"
   style="fill:#000000;stroke:none" />
         <path
   d="m 11043,15445 -8,-2 -1219,-20 v 20 l 1219,20 -8,-2 16,-16 -5,-2 h -3 z"
   id="path394"
   inkscape:connector-curvature="0"
   style="fill:#000000;stroke:none" />
         <path
   d="m 11017,15400 156,139 -1466,-5 92,-155 z"
   id="path396"
   inkscape:connector-curvature="0"
   style="fill:#ffffff;stroke:none" />
         <path
   d="m 11173,15550 7,-18 -155,-140 -15,15 155,140 8,-18 v 21 h 27 l -20,-18 z"
   id="path398"
   inkscape:connector-curvature="0"
   style="fill:#000000;stroke:none" />
         <path
   d="m 9699,15529 8,16 1466,5 v -21 l -1466,-5 8,15 -16,-10 -10,16 h 18 z"
   id="path400"
   inkscape:connector-curvature="0"
   style="fill:#000000;stroke:none" />
         <path
   d="m 9799,15369 -8,5 -92,155 16,10 91,-155 -7,6 v -21 h -6 l -2,5 z"
   id="path402"
   inkscape:connector-curvature="0"
   style="fill:#000000;stroke:none" />
         <path
   d="m 11025,15392 -8,-2 -1218,-21 v 21 l 1218,20 -7,-3 15,-15 -5,-2 h -3 z"
   id="path404"
   inkscape:connector-curvature="0"
   style="fill:#000000;stroke:none" />
         <path
   d="m 11048,15341 155,140 -1466,-5 92,-155 z"
   id="path406"
   inkscape:connector-curvature="0"
   style="fill:#ffffff;stroke:none" />
         <path
   d="m 11203,15491 8,-18 -156,-139 -15,15 155,140 8,-18 v 20 h 28 l -20,-18 z"
   id="path408"
   inkscape:connector-curvature="0"
   style="fill:#000000;stroke:none" />
         <path
   d="m 9730,15471 7,15 1466,5 v -20 l -1466,-5 8,15 -15,-10 -10,15 h 17 z"
   id="path410"
   inkscape:connector-curvature="0"
   style="fill:#000000;stroke:none" />
         <path
   d="m 9829,15311 -8,5 -91,155 15,10 92,-155 -8,5 v -20 h -5 l -3,5 z"
   id="path412"
   inkscape:connector-curvature="0"
   style="fill:#000000;stroke:none" />
         <path
   d="m 11055,15334 -7,-3 -1219,-20 v 20 l 1219,20 -8,-2 15,-15 -5,-3 h -2 z"
   id="path414"
   inkscape:connector-curvature="0"
   style="fill:#000000;stroke:none" />
         <path
   d="m 11048,15240 155,142 -1466,-5 92,-158 z"
   id="path416"
   inkscape:connector-curvature="0"
   style="fill:#ffffff;stroke:none" />
         <path
   d="m 11203,15392 8,-18 -156,-142 -15,15 155,143 8,-18 v 20 h 28 l -20,-18 z"
   id="path418"
   inkscape:connector-curvature="0"
   style="fill:#000000;stroke:none" />
         <path
   d="m 9730,15372 7,15 1466,5 v -20 l -1466,-5 8,15 -15,-10 -10,15 h 17 z"
   id="path420"
   inkscape:connector-curvature="0"
   style="fill:#000000;stroke:none" />
         <path
   d="m 9829,15209 -8,5 -91,158 15,10 92,-158 -8,5 v -20 h -5 l -3,5 z"
   id="path422"
   inkscape:connector-curvature="0"
   style="fill:#000000;stroke:none" />
         <path
   d="m 11055,15232 -7,-3 -1219,-20 v 20 l 1219,21 -8,-3 15,-15 -5,-3 h -2 z"
   id="path424"
   inkscape:connector-curvature="0"
   style="fill:#000000;stroke:none" />
         <path
   d="m 11058,15138 155,142 -1465,-5 91,-155 z"
   id="path426"
   inkscape:connector-curvature="0"
   style="fill:#ffffff;stroke:none" />
         <path
   d="m 11213,15290 8,-17 -155,-143 -16,16 156,142 7,-18 v 20 h 28 l -20,-17 z"
   id="path428"
   inkscape:connector-curvature="0"
   style="fill:#000000;stroke:none" />
         <path
   d="m 9740,15270 8,15 1465,5 v -20 l -1465,-5 7,15 -15,-10 -10,15 h 18 z"
   id="path430"
   inkscape:connector-curvature="0"
   style="fill:#000000;stroke:none" />
         <path
   d="m 9839,15110 -7,5 -92,155 15,10 92,-155 -8,5 v -20 h -5 l -2,5 z"
   id="path432"
   inkscape:connector-curvature="0"
   style="fill:#000000;stroke:none" />
         <path
   d="m 11066,15130 -8,-2 -1219,-18 v 20 l 1219,18 -8,-2 16,-16 -5,-2 h -3 z"
   id="path434"
   inkscape:connector-curvature="0"
   style="fill:#000000;stroke:none" />
         <path
   d="m 11119,15057 155,139 -1465,-5 91,-155 z"
   id="path436"
   inkscape:connector-curvature="0"
   style="fill:#ffffff;stroke:none" />
         <path
   d="m 11274,15207 8,-18 -155,-140 -16,15 156,140 7,-18 v 21 h 28 l -20,-18 z"
   id="path438"
   inkscape:connector-curvature="0"
   style="fill:#000000;stroke:none" />
         <path
   d="m 9801,15186 8,15 1465,6 v -21 l -1465,-5 7,15 -15,-10 -10,15 h 18 z"
   id="path440"
   inkscape:connector-curvature="0"
   style="fill:#000000;stroke:none" />
         <path
   d="m 9900,15026 -7,5 -92,155 15,10 92,-155 -8,5 v -20 h -5 l -2,5 z"
   id="path442"
   inkscape:connector-curvature="0"
   style="fill:#000000;stroke:none" />
         <path
   d="m 11127,15049 -8,-3 -1219,-20 v 20 l 1219,21 -8,-3 16,-15 -5,-3 h -3 z"
   id="path444"
   inkscape:connector-curvature="0"
   style="fill:#000000;stroke:none" />
         <path
   d="m 11078,14975 156,140 -1466,-5 92,-155 z"
   id="path446"
   inkscape:connector-curvature="0"
   style="fill:#ffffff;stroke:none" />
         <path
   d="m 11234,15125 7,-18 -155,-139 -15,15 155,140 8,-18 v 20 h 28 l -21,-18 z"
   id="path448"
   inkscape:connector-curvature="0"
   style="fill:#000000;stroke:none" />
         <path
   d="m 9760,15105 8,15 1466,5 v -20 l -1466,-5 8,15 -16,-10 -10,15 h 18 z"
   id="path450"
   inkscape:connector-curvature="0"
   style="fill:#000000;stroke:none" />
         <path
   d="m 9860,14945 -8,5 -92,155 16,10 91,-155 -7,5 v -20 h -6 l -2,5 z"
   id="path452"
   inkscape:connector-curvature="0"
   style="fill:#000000;stroke:none" />
         <path
   d="m 11086,14968 -8,-3 -1218,-20 v 20 l 1218,20 -7,-2 15,-15 -5,-3 h -3 z"
   id="path454"
   inkscape:connector-curvature="0"
   style="fill:#000000;stroke:none" />
         <path
   d="m 11078,14874 156,142 -1466,-5 92,-158 z"
   id="path456"
   inkscape:connector-curvature="0"
   style="fill:#ffffff;stroke:none" />
         <path
   d="m 11234,15026 7,-18 -155,-142 -15,15 155,143 8,-18 v 20 h 28 l -21,-18 z"
   id="path458"
   inkscape:connector-curvature="0"
   style="fill:#000000;stroke:none" />
         <path
   d="m 9760,15006 8,15 1466,5 v -20 l -1466,-5 8,15 -16,-10 -10,15 h 18 z"
   id="path460"
   inkscape:connector-curvature="0"
   style="fill:#000000;stroke:none" />
         <path
   d="m 9860,14843 -8,5 -92,158 16,10 91,-158 -7,5 v -20 h -6 l -2,5 z"
   id="path462"
   inkscape:connector-curvature="0"
   style="fill:#000000;stroke:none" />
         <path
   d="m 11086,14866 -8,-3 -1218,-20 v 20 l 1218,21 -7,-3 15,-15 -5,-3 h -3 z"
   id="path464"
   inkscape:connector-curvature="0"
   style="fill:#000000;stroke:none" />
         <path
   d="m 11017,14846 158,142 -1466,-5 92,-158 z"
   id="path466"
   inkscape:connector-curvature="0"
   style="fill:#ffffff;stroke:none" />
         <path
   d="m 11175,14998 8,-18 -158,-142 -15,15 157,143 8,-18 v 20 h 28 l -20,-18 z"
   id="path468"
   inkscape:connector-curvature="0"
   style="fill:#000000;stroke:none" />
         <path
   d="m 9702,14978 7,15 1466,5 v -20 l -1466,-5 8,15 -15,-10 -10,15 h 17 z"
   id="path470"
   inkscape:connector-curvature="0"
   style="fill:#000000;stroke:none" />
         <path
   d="m 9801,14815 -8,5 -91,158 15,10 92,-158 -8,6 v -21 h -5 l -3,5 z"
   id="path472"
   inkscape:connector-curvature="0"
   style="fill:#000000;stroke:none" />
         <path
   d="m 11025,14838 -8,-2 -1216,-21 v 21 l 1216,20 -7,-3 15,-15 -5,-2 h -3 z"
   id="path474"
   inkscape:connector-curvature="0"
   style="fill:#000000;stroke:none" />
         <path
   d="m 11012,14815 158,143 -1466,-6 92,-157 z"
   id="path476"
   inkscape:connector-curvature="0"
   style="fill:#ffffff;stroke:none" />
         <path
   d="m 11170,14968 8,-18 -158,-142 -15,15 157,142 8,-18 v 21 h 28 l -20,-18 z"
   id="path478"
   inkscape:connector-curvature="0"
   style="fill:#000000;stroke:none" />
         <path
   d="m 9697,14947 7,16 1466,5 v -21 l -1466,-5 8,16 -15,-11 -10,16 h 17 z"
   id="path480"
   inkscape:connector-curvature="0"
   style="fill:#000000;stroke:none" />
         <path
   d="m 9796,14785 -8,5 -91,157 15,11 92,-158 -8,5 v -20 h -5 l -3,5 z"
   id="path482"
   inkscape:connector-curvature="0"
   style="fill:#000000;stroke:none" />
         <path
   d="m 11020,14808 -8,-3 -1216,-20 v 20 l 1216,20 -7,-2 15,-15 -5,-3 h -3 z"
   id="path484"
   inkscape:connector-curvature="0"
   style="fill:#000000;stroke:none" />
         <path
   d="m 10994,14762 158,142 -1465,-5 91,-155 z"
   id="path486"
   inkscape:connector-curvature="0"
   style="fill:#ffffff;stroke:none" />
         <path
   d="m 11152,14914 8,-17 -158,-143 -15,15 158,143 7,-18 v 20 h 28 l -20,-17 z"
   id="path488"
   inkscape:connector-curvature="0"
   style="fill:#000000;stroke:none" />
         <path
   d="m 9679,14894 8,15 1465,5 v -20 l -1465,-5 7,15 -15,-10 -10,15 h 18 z"
   id="path490"
   inkscape:connector-curvature="0"
   style="fill:#000000;stroke:none" />
         <path
   d="m 9778,14734 -7,5 -92,155 15,10 92,-155 -8,5 v -20 h -5 l -2,5 z"
   id="path492"
   inkscape:connector-curvature="0"
   style="fill:#000000;stroke:none" />
         <path
   d="m 11002,14754 -8,-2 -1216,-18 v 20 l 1216,18 -7,-3 15,-15 -5,-2 h -3 z"
   id="path494"
   inkscape:connector-curvature="0"
   style="fill:#000000;stroke:none" />
         <path
   d="m 11017,14653 156,139 -1466,-5 92,-155 z"
   id="path496"
   inkscape:connector-curvature="0"
   style="fill:#ffffff;stroke:none" />
         <path
   d="m 11173,14802 7,-17 -155,-140 -15,15 155,140 8,-18 v 20 h 27 l -20,-17 z"
   id="path498"
   inkscape:connector-curvature="0"
   style="fill:#000000;stroke:none" />
         <path
   d="m 9699,14782 8,15 1466,5 v -20 l -1466,-5 8,15 -16,-10 -10,15 h 18 z"
   id="path500"
   inkscape:connector-curvature="0"
   style="fill:#000000;stroke:none" />
         <path
   d="m 9799,14622 -8,5 -92,155 16,10 91,-155 -7,5 v -20 h -6 l -2,5 z"
   id="path502"
   inkscape:connector-curvature="0"
   style="fill:#000000;stroke:none" />
         <path
   d="m 11025,14645 -8,-3 -1218,-20 v 20 l 1218,21 -7,-3 15,-15 -5,-3 h -3 z"
   id="path504"
   inkscape:connector-curvature="0"
   style="fill:#000000;stroke:none" />
         <path
   d="m 11017,14592 156,139 -1466,-5 92,-155 z"
   id="path506"
   inkscape:connector-curvature="0"
   style="fill:#ffffff;stroke:none" />
         <path
   d="m 11173,14741 7,-17 -155,-140 -15,15 155,140 8,-18 v 20 h 27 l -20,-17 z"
   id="path508"
   inkscape:connector-curvature="0"
   style="fill:#000000;stroke:none" />
         <path
   d="m 9699,14721 8,15 1466,5 v -20 l -1466,-5 8,15 -16,-10 -10,15 h 18 z"
   id="path510"
   inkscape:connector-curvature="0"
   style="fill:#000000;stroke:none" />
         <path
   d="m 9799,14561 -8,5 -92,155 16,10 91,-155 -7,5 v -20 h -6 l -2,5 z"
   id="path512"
   inkscape:connector-curvature="0"
   style="fill:#000000;stroke:none" />
         <path
   d="m 11025,14584 -8,-3 -1218,-20 v 20 l 1218,21 -7,-3 15,-15 -5,-3 h -3 z"
   id="path514"
   inkscape:connector-curvature="0"
   style="fill:#000000;stroke:none" />
         <path
   d="m 10994,14513 156,137 -1466,-5 92,-153 z"
   id="path516"
   inkscape:connector-curvature="0"
   style="fill:#ffffff;stroke:none" />
         <path
   d="m 11150,14660 5,-18 -156,-137 -10,15 156,138 5,-18 v 20 h 28 l -23,-18 z"
   id="path518"
   inkscape:connector-curvature="0"
   style="fill:#000000;stroke:none" />
         <path
   d="m 9676,14640 8,15 1466,5 v -20 l -1466,-5 8,15 -16,-10 -10,15 h 18 z"
   id="path520"
   inkscape:connector-curvature="0"
   style="fill:#000000;stroke:none" />
         <path
   d="m 9776,14482 -8,5 -92,153 16,10 91,-152 -7,5 v -21 h -5 l -3,5 z"
   id="path522"
   inkscape:connector-curvature="0"
   style="fill:#000000;stroke:none" />
         <path
   d="m 10999,14505 -5,-2 -1218,-21 v 21 l 1218,20 -5,-3 10,-15 -2,-2 h -3 z"
   id="path524"
   inkscape:connector-curvature="0"
   style="fill:#000000;stroke:none" />
         <path
   d="m 11005,14411 155,140 -1466,-5 92,-155 z"
   id="path526"
   inkscape:connector-curvature="0"
   style="fill:#ffffff;stroke:none" />
         <path
   d="m 11160,14561 7,-18 -155,-140 -15,16 155,140 8,-18 v 20 h 28 l -21,-18 z"
   id="path528"
   inkscape:connector-curvature="0"
   style="fill:#000000;stroke:none" />
         <path
   d="m 9687,14541 7,15 1466,5 v -20 l -1466,-5 8,15 -15,-10 -11,15 h 18 z"
   id="path530"
   inkscape:connector-curvature="0"
   style="fill:#000000;stroke:none" />
         <path
   d="m 9786,14381 -8,5 -91,155 15,10 91,-155 -7,5 v -20 h -5 l -3,5 z"
   id="path532"
   inkscape:connector-curvature="0"
   style="fill:#000000;stroke:none" />
         <path
   d="m 11012,14403 -7,-2 -1219,-20 v 20 l 1219,20 -8,-2 15,-16 -5,-2 h -2 z"
   id="path534"
   inkscape:connector-curvature="0"
   style="fill:#000000;stroke:none" />
         <path
   d="m 11066,14327 155,143 -1466,-6 92,-157 z"
   id="path536"
   inkscape:connector-curvature="0"
   style="fill:#ffffff;stroke:none" />
         <path
   d="m 11221,14480 7,-18 -155,-142 -15,15 155,142 8,-18 v 21 h 28 l -21,-18 z"
   id="path538"
   inkscape:connector-curvature="0"
   style="fill:#000000;stroke:none" />
         <path
   d="m 9748,14459 7,16 1466,5 v -21 l -1466,-5 8,16 -15,-11 -11,16 h 18 z"
   id="path540"
   inkscape:connector-curvature="0"
   style="fill:#000000;stroke:none" />
         <path
   d="m 9847,14297 -8,5 -91,157 15,11 91,-158 -7,5 v -20 h -5 l -3,5 z"
   id="path542"
   inkscape:connector-curvature="0"
   style="fill:#000000;stroke:none" />
         <path
   d="m 11073,14320 -7,-3 -1219,-20 v 20 l 1219,20 -8,-2 15,-15 -5,-3 h -2 z"
   id="path544"
   inkscape:connector-curvature="0"
   style="fill:#000000;stroke:none" />
         <path
   d="m 11078,13949 186,96 -1422,351 51,-173 z"
   id="path546"
   inkscape:connector-curvature="0"
   style="fill:#ffffff;stroke:none" />
         <path
   d="m 11267,14055 2,-17 -186,-97 -10,15 186,97 3,-18 5,20 28,-7 -26,-10 z"
   id="path548"
   inkscape:connector-curvature="0"
   style="fill:#000000;stroke:none" />
         <path
   d="m 9832,14393 12,13 1423,-351 -5,-20 -1423,351 13,12 -20,-5 -6,18 18,-5 z"
   id="path550"
   inkscape:connector-curvature="0"
   style="fill:#000000;stroke:none" />
         <path
   d="m 9890,14213 -8,8 -50,172 20,5 51,-172 -8,7 -5,-20 -5,2 -3,6 z"
   id="path552"
   inkscape:connector-curvature="0"
   style="fill:#000000;stroke:none" />
         <path
   d="m 11083,13941 -7,-3 -1186,275 5,20 1186,-274 -8,-3 10,-15 -5,-3 h -2 z"
   id="path554"
   inkscape:connector-curvature="0"
   style="fill:#000000;stroke:none" />
         <path
   d="m 11043,13900 221,150 -1402,-190 51,-173 z"
   id="path556"
   inkscape:connector-curvature="0"
   style="fill:#ffffff;stroke:none" />
         <path
   d="m 11264,14060 5,-17 -221,-150 -10,15 221,150 5,-18 v 20 l 43,5 -38,-22 z"
   id="path558"
   inkscape:connector-curvature="0"
   style="fill:#000000;stroke:none" />
         <path
   d="m 9852,13857 10,13 1402,190 v -20 l -1402,-191 10,13 -20,-5 -3,10 13,3 z"
   id="path560"
   inkscape:connector-curvature="0"
   style="fill:#000000;stroke:none" />
         <path
   d="m 9913,13677 -10,7 -51,173 20,5 51,-173 -10,8 v -20 l -8,-3 -2,10 z"
   id="path562"
   inkscape:connector-curvature="0"
   style="fill:#000000;stroke:none" />
         <path
   d="m 11048,13893 -5,-3 -1130,-213 v 20 l 1130,213 -5,-2 10,-15 -3,-3 h -2 z"
   id="path564"
   inkscape:connector-curvature="0"
   style="fill:#000000;stroke:none" />
         <path
   d="m 11099,13412 185,97 -1422,351 51,-173 z"
   id="path566"
   inkscape:connector-curvature="0"
   style="fill:#ffffff;stroke:none" />
         <path
   d="m 11287,13519 3,-18 -186,-96 -10,15 185,97 3,-18 5,20 28,-8 -25,-10 z"
   id="path568"
   inkscape:connector-curvature="0"
   style="fill:#000000;stroke:none" />
         <path
   d="m 9852,13857 13,13 1422,-351 -5,-20 -1422,350 12,13 -20,-5 -5,18 18,-5 z"
   id="path570"
   inkscape:connector-curvature="0"
   style="fill:#000000;stroke:none" />
         <path
   d="m 9910,13677 -7,7 -51,173 20,5 51,-173 -7,8 -6,-20 -5,2 -2,5 z"
   id="path572"
   inkscape:connector-curvature="0"
   style="fill:#000000;stroke:none" />
         <path
   d="m 11104,13405 -8,-3 -1186,275 6,20 1185,-275 -7,-2 10,-15 -5,-3 h -3 z"
   id="path574"
   inkscape:connector-curvature="0"
   style="fill:#000000;stroke:none" />
         <path
   d="m 11099,13412 185,97 -1391,-175 51,-173 z"
   id="path576"
   inkscape:connector-curvature="0"
   style="fill:#ffffff;stroke:none" />
         <path
   d="m 11284,13519 6,-18 -186,-96 -10,15 185,97 5,-18 v 20 l 56,5 -50,-23 z"
   id="path578"
   inkscape:connector-curvature="0"
   style="fill:#000000;stroke:none" />
         <path
   d="m 9882,13331 11,13 1391,175 v -20 l -1391,-176 10,13 -21,-5 -2,10 13,3 z"
   id="path580"
   inkscape:connector-curvature="0"
   style="fill:#000000;stroke:none" />
         <path
   d="m 9944,13151 -11,7 -51,173 21,5 51,-173 -10,8 v -20 l -8,-3 -3,10 z"
   id="path582"
   inkscape:connector-curvature="0"
   style="fill:#000000;stroke:none" />
         <path
   d="m 11104,13405 -5,-3 -1155,-251 v 20 l 1155,251 -5,-2 10,-15 -3,-3 h -2 z"
   id="path584"
   inkscape:connector-curvature="0"
   style="fill:#000000;stroke:none" />
         <path
   d="m 11129,12884 186,99 -1422,351 51,-173 z"
   id="path586"
   inkscape:connector-curvature="0"
   style="fill:#ffffff;stroke:none" />
         <path
   d="m 11318,12993 2,-18 -186,-99 -10,15 186,99 2,-17 6,20 28,-8 -26,-10 z"
   id="path588"
   inkscape:connector-curvature="0"
   style="fill:#000000;stroke:none" />
         <path
   d="m 9882,13331 13,13 1423,-351 -6,-20 -1422,350 13,13 -21,-5 -5,18 18,-5 z"
   id="path590"
   inkscape:connector-curvature="0"
   style="fill:#000000;stroke:none" />
         <path
   d="m 9941,13151 -8,7 -51,173 21,5 51,-173 -8,8 -5,-20 -5,2 -3,5 z"
   id="path592"
   inkscape:connector-curvature="0"
   style="fill:#000000;stroke:none" />
         <path
   d="m 11134,12876 -7,-2 -1186,277 5,20 1186,-277 -8,-3 10,-15 -5,-2 h -2 z"
   id="path594"
   inkscape:connector-curvature="0"
   style="fill:#000000;stroke:none" />
         <path
   d="m 9872,12195 102,689 1338,101 -244,-566 z"
   id="path596"
   inkscape:connector-curvature="0"
   style="fill:#ffffff;stroke:none" />
         <path
   d="m 9974,12874 10,10 -102,-689 h -20 l 102,689 10,10 -10,-10 2,10 h 8 z"
   id="path598"
   inkscape:connector-curvature="0"
   style="fill:#000000;stroke:none" />
         <path
   d="m 11302,12988 10,-13 -1338,-101 v 20 l 1338,102 11,-13 -11,13 18,2 -7,-15 z"
   id="path600"
   inkscape:connector-curvature="0"
   style="fill:#000000;stroke:none" />
         <path
   d="m 11068,12429 -10,-8 244,567 21,-5 -245,-567 -10,-8 10,8 -2,-5 -8,-3 z"
   id="path602"
   inkscape:connector-curvature="0"
   style="fill:#000000;stroke:none" />
         <path
   d="m 9882,12195 -10,10 1196,224 v -21 l -1196,-223 -10,10 10,-10 -12,-3 2,13 z"
   id="path604"
   inkscape:connector-curvature="0"
   style="fill:#000000;stroke:none" />
        </g>
       </g>
      </g>
     </g>
    </g>
   </g>
  </g>
 </g>
</svg>