<?xml version="1.0" encoding="UTF-8" standalone="no"?>
<svg
   xmlns:ooo="http://xml.openoffice.org/svg/export"
   xmlns:dc="http://purl.org/dc/elements/1.1/"
   xmlns:cc="http://creativecommons.org/ns#"
   xmlns:rdf="http://www.w3.org/1999/02/22-rdf-syntax-ns#"
   xmlns:svg="http://www.w3.org/2000/svg"
   xmlns="http://www.w3.org/2000/svg"
   xmlns:sodipodi="http://sodipodi.sourceforge.net/DTD/sodipodi-0.dtd"
   xmlns:inkscape="http://www.inkscape.org/namespaces/inkscape"
   version="1.2"
   width="18.9mm"
   height="13mm"
   viewBox="0 0 1890 1300"
   preserveAspectRatio="xMidYMid"
   xml:space="preserve"
   id="svg84"
   sodipodi:docname="penguin4.svg"
   style="fill-rule:evenodd;stroke-width:28.22200012;stroke-linejoin:round"
   inkscape:version="0.92.5 (2060ec1f9f, 2020-04-08)"><metadata
   id="metadata88"><rdf:RDF><cc:Work
       rdf:about=""><dc:format>image/svg+xml</dc:format><dc:type
         rdf:resource="http://purl.org/dc/dcmitype/StillImage" /></cc:Work></rdf:RDF></metadata><sodipodi:namedview
   pagecolor="#ffffff"
   bordercolor="#666666"
   borderopacity="1"
   objecttolerance="10"
   gridtolerance="10"
   guidetolerance="10"
   inkscape:pageopacity="0"
   inkscape:pageshadow="2"
   inkscape:window-width="664"
   inkscape:window-height="487"
   id="namedview86"
   showgrid="false"
   inkscape:zoom="0.2102413"
   inkscape:cx="35.716536"
   inkscape:cy="24.566928"
   inkscape:window-x="0"
   inkscape:window-y="0"
   inkscape:window-maximized="0"
   inkscape:current-layer="svg84" />
 <defs
   class="ClipPathGroup"
   id="defs8">
  <clipPath
   id="presentation_clip_path"
   clipPathUnits="userSpaceOnUse">
   <rect
   x="0"
   y="0"
   width="21000"
   height="29700"
   id="rect2" />
  </clipPath>
  <clipPath
   id="presentation_clip_path_shrink"
   clipPathUnits="userSpaceOnUse">
   <rect
   x="21"
   y="29"
   width="20958"
   height="29641"
   id="rect5" />
  </clipPath>
 </defs>
 <defs
   class="TextShapeIndex"
   id="defs12">
  <g
   ooo:slide="id1"
   ooo:id-list="id3"
   id="g10" />
 </defs>
 <defs
   class="EmbeddedBulletChars"
   id="defs44">
  <g
   id="bullet-char-template-57356"
   transform="matrix(4.8828125e-4,0,0,-4.8828125e-4,0,0)">
   <path
   d="M 580,1141 1163,571 580,0 -4,571 Z"
   id="path14"
   inkscape:connector-curvature="0" />
  </g>
  <g
   id="bullet-char-template-57354"
   transform="matrix(4.8828125e-4,0,0,-4.8828125e-4,0,0)">
   <path
   d="M 8,1128 H 1137 V 0 H 8 Z"
   id="path17"
   inkscape:connector-curvature="0" />
  </g>
  <g
   id="bullet-char-template-10146"
   transform="matrix(4.8828125e-4,0,0,-4.8828125e-4,0,0)">
   <path
   d="M 174,0 602,739 174,1481 1456,739 Z M 1358,739 309,1346 659,739 Z"
   id="path20"
   inkscape:connector-curvature="0" />
  </g>
  <g
   id="bullet-char-template-10132"
   transform="matrix(4.8828125e-4,0,0,-4.8828125e-4,0,0)">
   <path
   d="M 2015,739 1276,0 H 717 l 543,543 H 174 v 393 h 1086 l -543,545 h 557 z"
   id="path23"
   inkscape:connector-curvature="0" />
  </g>
  <g
   id="bullet-char-template-10007"
   transform="matrix(4.8828125e-4,0,0,-4.8828125e-4,0,0)">
   <path
   d="m 0,-2 c -7,16 -16,29 -25,39 l 381,530 c -94,256 -141,385 -141,387 0,25 13,38 40,38 9,0 21,-2 34,-5 21,4 42,12 65,25 l 27,-13 111,-251 280,301 64,-25 24,25 c 21,-10 41,-24 62,-43 C 886,937 835,863 770,784 769,783 710,716 594,584 L 774,223 c 0,-27 -21,-55 -63,-84 l 16,-20 C 717,90 699,76 672,76 641,76 570,178 457,381 L 164,-76 c -22,-34 -53,-51 -92,-51 -42,0 -63,17 -64,51 -7,9 -10,24 -10,44 0,9 1,19 2,30 z"
   id="path26"
   inkscape:connector-curvature="0" />
  </g>
  <g
   id="bullet-char-template-10004"
   transform="matrix(4.8828125e-4,0,0,-4.8828125e-4,0,0)">
   <path
   d="M 285,-33 C 182,-33 111,30 74,156 52,228 41,333 41,471 c 0,78 14,145 41,201 34,71 87,106 158,106 53,0 88,-31 106,-94 l 23,-176 c 8,-64 28,-97 59,-98 l 735,706 c 11,11 33,17 66,17 42,0 63,-15 63,-46 V 965 c 0,-36 -10,-64 -30,-84 L 442,47 C 390,-6 338,-33 285,-33 Z"
   id="path29"
   inkscape:connector-curvature="0" />
  </g>
  <g
   id="bullet-char-template-9679"
   transform="matrix(4.8828125e-4,0,0,-4.8828125e-4,0,0)">
   <path
   d="M 813,0 C 632,0 489,54 383,161 276,268 223,411 223,592 c 0,181 53,324 160,431 106,107 249,161 430,161 179,0 323,-54 432,-161 108,-107 162,-251 162,-431 0,-180 -54,-324 -162,-431 C 1136,54 992,0 813,0 Z"
   id="path32"
   inkscape:connector-curvature="0" />
  </g>
  <g
   id="bullet-char-template-8226"
   transform="matrix(4.8828125e-4,0,0,-4.8828125e-4,0,0)">
   <path
   d="m 346,457 c -73,0 -137,26 -191,78 -54,51 -81,114 -81,188 0,73 27,136 81,188 54,52 118,78 191,78 73,0 134,-26 185,-79 51,-51 77,-114 77,-187 0,-75 -25,-137 -76,-188 -50,-52 -112,-78 -186,-78 z"
   id="path35"
   inkscape:connector-curvature="0" />
  </g>
  <g
   id="bullet-char-template-8211"
   transform="matrix(4.8828125e-4,0,0,-4.8828125e-4,0,0)">
   <path
   d="M -4,459 H 1135 V 606 H -4 Z"
   id="path38"
   inkscape:connector-curvature="0" />
  </g>
  <g
   id="bullet-char-template-61548"
   transform="matrix(4.8828125e-4,0,0,-4.8828125e-4,0,0)">
   <path
   d="m 173,740 c 0,163 58,303 173,419 116,115 255,173 419,173 163,0 302,-58 418,-173 116,-116 174,-256 174,-419 0,-163 -58,-303 -174,-418 C 1067,206 928,148 765,148 601,148 462,206 346,322 231,437 173,577 173,740 Z"
   id="path41"
   inkscape:connector-curvature="0" />
  </g>
 </defs>
 <g
   id="g49"
   transform="translate(-9555,-14200)">
  <g
   id="id2"
   class="Master_Slide">
   <g
   id="bg-id2"
   class="Background" />
   <g
   id="bo-id2"
   class="BackgroundObjects" />
  </g>
 </g>
 <g
   class="SlideGroup"
   id="g82"
   transform="translate(-9555,-14200)">
  <g
   id="g80">
   <g
   id="container-id1">
    <g
   id="id1"
   class="Slide"
   clip-path="url(#presentation_clip_path)">
     <g
   class="Page"
   id="g76">
      <g
   class="Graphic"
   id="g74">
       <g
   id="id3">
        <rect
   class="BoundingBox"
   x="9555"
   y="14200"
   width="1890"
   height="1300"
   id="rect51"
   style="fill:none;stroke:none" />
        <path
   d="m 10038,14928 3,2 5,10 8,13 10,18 12,18 13,17 13,18 15,13 21,18 30,30 38,36 41,38 46,38 43,33 41,26 35,12 31,6 28,5 23,2 20,3 h 20 l 21,-3 23,-2 25,-3 28,-5 31,-5 30,-10 31,-13 30,-13 28,-17 28,-18 26,-21 22,-20 18,-15 13,-16 13,-15 7,-15 8,-18 5,-20 3,-26 v -48 l -8,-38 -13,-33 -13,-31 -7,-10 -13,-10 -20,-15 -23,-16 -31,-17 -33,-18 -33,-21 -38,-17 -36,-21 -38,-18 -35,-15 -33,-18 -31,-12 -28,-11 -23,-7 -15,-5 -23,-8 -20,-8 -18,-10 -18,-10 -23,-5 -30,-5 h -38 l -54,5 -53,10 -44,13 -35,15 -23,18 -20,18 -11,18 -7,17 -5,18 -3,51 3,64 5,56 z"
   id="path53"
   inkscape:connector-curvature="0"
   style="fill:#000000;stroke:none" />
        <path
   d="m 10471,15213 -16,-6 -15,-5 -15,-7 -15,-8 -13,-8 -15,-7 -18,-10 -18,-13 -8,10 -12,13 -16,13 -17,15 -23,20 -26,23 -33,31 -35,35 -21,21 -25,17 -26,18 -30,15 -33,16 -33,15 -33,13 -36,12 -36,13 -35,10 -36,8 -33,8 -33,7 -30,5 -28,3 -26,2 h -41 l -25,-5 -13,-7 -2,-11 5,-12 10,-16 18,-12 18,-13 23,-13 28,-15 30,-18 33,-18 33,-20 31,-20 28,-18 20,-18 20,-23 31,-33 36,-38 38,-43 38,-44 35,-40 31,-36 23,-25 -41,-31 -48,-33 -48,-35 -51,-39 -51,-48 -46,-56 -43,-71 -33,-84 -18,-104 v -102 l 5,-94 -8,-87 16,-2 15,2 15,3 15,7 16,8 10,13 10,12 5,16 v 15 13 10 7 l 8,6 12,5 h 23 36 23 25 l 28,-3 h 28 l 33,3 h 33 l 39,2 38,5 38,8 41,10 43,13 43,18 43,20 46,23 46,30 46,33 30,-7 33,-3 31,3 30,5 28,8 26,10 20,7 15,5 13,3 h 20 21 l 23,-3 23,-2 25,-5 20,-3 21,-2 h 17 16 l 15,2 13,3 10,7 10,8 10,10 8,13 -15,-8 -13,-5 -15,-2 h -13 l -15,2 -13,5 -13,5 -13,6 -15,5 -23,10 -23,10 -28,15 -25,13 -23,18 -20,15 -13,18 31,10 35,8 41,10 41,7 38,8 38,5 30,3 h 26 l 25,-3 h 38 l 44,-2 48,-3 h 46 l 43,-2 36,-3 23,-3 20,-2 20,-3 h 21 l 17,3 11,5 v 10 l -8,13 -25,18 -18,10 -23,10 -26,10 -25,10 -31,11 -33,10 -33,10 -35,8 -38,10 -39,5 -40,7 -39,3 -40,5 h -41 -38 l -41,-2 8,10 8,15 7,15 10,18 13,31 8,33 7,35 v 38 l -7,36 -18,36 -26,35 -38,31 -23,13 -30,12 -36,13 -40,8 -44,7 h -48 l -48,-2 z"
   id="path55"
   inkscape:connector-curvature="0"
   style="fill:#000000;stroke:none" />
        <path
   d="m 10852,14897 13,31 8,33 7,35 v 38 l -7,36 -18,36 -26,35 -38,31 -23,13 -30,12 -36,13 -40,8 -44,7 h -48 l -48,-2 -51,-10 18,-13 17,-18 18,-23 18,-28 15,-25 13,-28 8,-26 5,-23 7,-23 16,-22 22,-23 34,-23 38,-21 43,-12 51,-8 z"
   id="path57"
   inkscape:connector-curvature="0"
   style="fill:#ffffff;stroke:none" />
        <path
   d="m 10715,14757 -5,-20 -5,-26 2,-25 13,-33 -5,43 8,43 2,26 z"
   id="path59"
   inkscape:connector-curvature="0"
   style="fill:#ffffff;stroke:none" />
        <path
   d="m 10374,14737 -2,-54 5,-45 12,-39 21,-33 23,-28 28,-20 30,-18 31,-13 -39,8 -35,20 -31,31 -23,36 -17,38 -11,40 -2,41 z"
   id="path61"
   inkscape:connector-curvature="0"
   style="fill:#ffffff;stroke:none" />
        <path
   d="m 10926,14531 h -18 l -28,5 -33,7 -38,8 -38,10 -33,10 -28,11 -18,7 -8,8 -2,8 5,5 13,-5 15,-8 20,-8 28,-10 33,-13 36,-10 33,-10 33,-10 z"
   id="path63"
   inkscape:connector-curvature="0"
   style="fill:#ffffff;stroke:none" />
        <path
   d="m 10400,15179 -8,-2 -15,-10 -18,-8 -13,-10 38,-10 28,-21 18,-23 10,-27 3,-28 v -28 l -5,-23 -5,-21 2,-15 5,-15 5,-13 8,-13 13,-12 12,-13 18,-13 23,-10 10,-8 5,-7 -2,-8 -5,-13 -10,-10 -16,-10 -18,-10 -22,-10 -26,-33 -13,-59 11,-74 35,-63 28,-23 36,-13 38,-8 38,-2 36,5 33,5 25,10 18,10 h -3 l -5,3 -2,3 v 0 l -18,-6 -28,-7 -33,-3 h -38 l -41,5 -35,16 -31,25 -20,38 -11,49 v 38 l 8,30 18,26 20,17 26,13 25,8 26,7 17,3 21,-5 25,-5 26,-8 28,-7 25,-3 h 23 l 20,8 8,2 h 5 l 5,3 10,15 -18,3 -20,2 -23,3 -25,2 -26,5 -25,8 -26,8 -25,12 -36,26 -25,38 -23,46 -20,48 -18,51 -23,48 -25,41 z"
   id="path65"
   inkscape:connector-curvature="0"
   style="fill:#ffffff;stroke:none" />
        <path
   d="m 10130,14994 15,-33 18,-31 18,-28 12,-18 -5,-10 -5,-2 -7,5 -11,7 -7,5 -13,11 -13,12 -12,16 -10,15 -11,10 -7,10 -3,3 z"
   id="path67"
   inkscape:connector-curvature="0"
   style="fill:#ffffff;stroke:none" />
        <path
   d="m 10585,14640 13,-5 10,-8 5,-10 v -10 l -2,-13 -8,-10 -10,-5 h -13 l -13,3 -7,7 -8,10 v 13 l 5,10 8,10 10,6 z"
   id="path69"
   inkscape:connector-curvature="0"
   style="fill:#ffffff;stroke:none" />
        <path
   d="m 10585,14625 5,-3 5,-2 3,-5 2,-8 -2,-8 -3,-5 -7,-2 h -5 l -8,2 -5,3 -3,5 -2,8 2,7 5,5 6,3 z"
   id="path71"
   inkscape:connector-curvature="0"
   style="fill:#000000;stroke:none" />
       </g>
      </g>
     </g>
    </g>
   </g>
  </g>
 </g>
</svg>