<?xml version="1.0" encoding="UTF-8" standalone="no"?>
<svg
   xmlns:ooo="http://xml.openoffice.org/svg/export"
   xmlns:dc="http://purl.org/dc/elements/1.1/"
   xmlns:cc="http://creativecommons.org/ns#"
   xmlns:rdf="http://www.w3.org/1999/02/22-rdf-syntax-ns#"
   xmlns:svg="http://www.w3.org/2000/svg"
   xmlns="http://www.w3.org/2000/svg"
   xmlns:sodipodi="http://sodipodi.sourceforge.net/DTD/sodipodi-0.dtd"
   xmlns:inkscape="http://www.inkscape.org/namespaces/inkscape"
   version="1.2"
   width="14.71mm"
   height="28.5mm"
   viewBox="0 0 1471 2850"
   preserveAspectRatio="xMidYMid"
   xml:space="preserve"
   id="svg717"
   sodipodi:docname="people7.svg"
   style="fill-rule:evenodd;stroke-width:28.22200012;stroke-linejoin:round"
   inkscape:version="0.92.5 (2060ec1f9f, 2020-04-08)"><metadata
   id="metadata721"><rdf:RDF><cc:Work
       rdf:about=""><dc:format>image/svg+xml</dc:format><dc:type
         rdf:resource="http://purl.org/dc/dcmitype/StillImage" /></cc:Work></rdf:RDF></metadata><sodipodi:namedview
   pagecolor="#ffffff"
   bordercolor="#666666"
   borderopacity="1"
   objecttolerance="10"
   gridtolerance="10"
   guidetolerance="10"
   inkscape:pageopacity="0"
   inkscape:pageshadow="2"
   inkscape:window-width="664"
   inkscape:window-height="487"
   id="namedview719"
   showgrid="false"
   inkscape:zoom="0.2102413"
   inkscape:cx="27.817324"
   inkscape:cy="53.858266"
   inkscape:window-x="0"
   inkscape:window-y="0"
   inkscape:window-maximized="0"
   inkscape:current-layer="svg717" />
 <defs
   class="ClipPathGroup"
   id="defs8">
  <clipPath
   id="presentation_clip_path"
   clipPathUnits="userSpaceOnUse">
   <rect
   x="0"
   y="0"
   width="21000"
   height="29700"
   id="rect2" />
  </clipPath>
  <clipPath
   id="presentation_clip_path_shrink"
   clipPathUnits="userSpaceOnUse">
   <rect
   x="21"
   y="29"
   width="20958"
   height="29641"
   id="rect5" />
  </clipPath>
 </defs>
 <defs
   class="TextShapeIndex"
   id="defs12">
  <g
   ooo:slide="id1"
   ooo:id-list="id3"
   id="g10" />
 </defs>
 <defs
   class="EmbeddedBulletChars"
   id="defs44">
  <g
   id="bullet-char-template-57356"
   transform="matrix(4.8828125e-4,0,0,-4.8828125e-4,0,0)">
   <path
   d="M 580,1141 1163,571 580,0 -4,571 Z"
   id="path14"
   inkscape:connector-curvature="0" />
  </g>
  <g
   id="bullet-char-template-57354"
   transform="matrix(4.8828125e-4,0,0,-4.8828125e-4,0,0)">
   <path
   d="M 8,1128 H 1137 V 0 H 8 Z"
   id="path17"
   inkscape:connector-curvature="0" />
  </g>
  <g
   id="bullet-char-template-10146"
   transform="matrix(4.8828125e-4,0,0,-4.8828125e-4,0,0)">
   <path
   d="M 174,0 602,739 174,1481 1456,739 Z M 1358,739 309,1346 659,739 Z"
   id="path20"
   inkscape:connector-curvature="0" />
  </g>
  <g
   id="bullet-char-template-10132"
   transform="matrix(4.8828125e-4,0,0,-4.8828125e-4,0,0)">
   <path
   d="M 2015,739 1276,0 H 717 l 543,543 H 174 v 393 h 1086 l -543,545 h 557 z"
   id="path23"
   inkscape:connector-curvature="0" />
  </g>
  <g
   id="bullet-char-template-10007"
   transform="matrix(4.8828125e-4,0,0,-4.8828125e-4,0,0)">
   <path
   d="m 0,-2 c -7,16 -16,29 -25,39 l 381,530 c -94,256 -141,385 -141,387 0,25 13,38 40,38 9,0 21,-2 34,-5 21,4 42,12 65,25 l 27,-13 111,-251 280,301 64,-25 24,25 c 21,-10 41,-24 62,-43 C 886,937 835,863 770,784 769,783 710,716 594,584 L 774,223 c 0,-27 -21,-55 -63,-84 l 16,-20 C 717,90 699,76 672,76 641,76 570,178 457,381 L 164,-76 c -22,-34 -53,-51 -92,-51 -42,0 -63,17 -64,51 -7,9 -10,24 -10,44 0,9 1,19 2,30 z"
   id="path26"
   inkscape:connector-curvature="0" />
  </g>
  <g
   id="bullet-char-template-10004"
   transform="matrix(4.8828125e-4,0,0,-4.8828125e-4,0,0)">
   <path
   d="M 285,-33 C 182,-33 111,30 74,156 52,228 41,333 41,471 c 0,78 14,145 41,201 34,71 87,106 158,106 53,0 88,-31 106,-94 l 23,-176 c 8,-64 28,-97 59,-98 l 735,706 c 11,11 33,17 66,17 42,0 63,-15 63,-46 V 965 c 0,-36 -10,-64 -30,-84 L 442,47 C 390,-6 338,-33 285,-33 Z"
   id="path29"
   inkscape:connector-curvature="0" />
  </g>
  <g
   id="bullet-char-template-9679"
   transform="matrix(4.8828125e-4,0,0,-4.8828125e-4,0,0)">
   <path
   d="M 813,0 C 632,0 489,54 383,161 276,268 223,411 223,592 c 0,181 53,324 160,431 106,107 249,161 430,161 179,0 323,-54 432,-161 108,-107 162,-251 162,-431 0,-180 -54,-324 -162,-431 C 1136,54 992,0 813,0 Z"
   id="path32"
   inkscape:connector-curvature="0" />
  </g>
  <g
   id="bullet-char-template-8226"
   transform="matrix(4.8828125e-4,0,0,-4.8828125e-4,0,0)">
   <path
   d="m 346,457 c -73,0 -137,26 -191,78 -54,51 -81,114 -81,188 0,73 27,136 81,188 54,52 118,78 191,78 73,0 134,-26 185,-79 51,-51 77,-114 77,-187 0,-75 -25,-137 -76,-188 -50,-52 -112,-78 -186,-78 z"
   id="path35"
   inkscape:connector-curvature="0" />
  </g>
  <g
   id="bullet-char-template-8211"
   transform="matrix(4.8828125e-4,0,0,-4.8828125e-4,0,0)">
   <path
   d="M -4,459 H 1135 V 606 H -4 Z"
   id="path38"
   inkscape:connector-curvature="0" />
  </g>
  <g
   id="bullet-char-template-61548"
   transform="matrix(4.8828125e-4,0,0,-4.8828125e-4,0,0)">
   <path
   d="m 173,740 c 0,163 58,303 173,419 116,115 255,173 419,173 163,0 302,-58 418,-173 116,-116 174,-256 174,-419 0,-163 -58,-303 -174,-418 C 1067,206 928,148 765,148 601,148 462,206 346,322 231,437 173,577 173,740 Z"
   id="path41"
   inkscape:connector-curvature="0" />
  </g>
 </defs>
 <g
   id="g49"
   transform="translate(-9764,-13425)">
  <g
   id="id2"
   class="Master_Slide">
   <g
   id="bg-id2"
   class="Background" />
   <g
   id="bo-id2"
   class="BackgroundObjects" />
  </g>
 </g>
 <g
   class="SlideGroup"
   id="g715"
   transform="translate(-9764,-13425)">
  <g
   id="g713">
   <g
   id="container-id1">
    <g
   id="id1"
   class="Slide"
   clip-path="url(#presentation_clip_path)">
     <g
   class="Page"
   id="g709">
      <g
   class="Graphic"
   id="g707">
       <g
   id="id3">
        <rect
   class="BoundingBox"
   x="9764"
   y="13425"
   width="1471"
   height="2850"
   id="rect51"
   style="fill:none;stroke:none" />
        <defs
   id="defs56">
         <clipPath
   id="clip_path_1"
   clipPathUnits="userSpaceOnUse">
          <path
   d="m 9764,13425 h 1470 v 2849 H 9764 Z"
   id="path53"
   inkscape:connector-curvature="0" />
         </clipPath>
        </defs>
        <g
   clip-path="url(#clip_path_1)"
   id="g704">
         <path
   d="m 10785,13982 -8,-46 -10,-46 -16,-46 -17,-40 -8,-15 -8,-13 -7,-13 -10,-13 -18,-22 -21,-21 -20,-18 -23,-17 -25,-13 -28,-13 -31,-7 -30,-6 h -16 -15 -15 -13 -13 l -10,3 h -13 l -10,3 -10,2 -10,3 -10,5 -10,2 -28,13 -26,15 -23,18 -20,20 -18,23 -15,23 -13,23 -13,25 -7,18 -8,21 -5,20 -3,23 -17,7 -13,18 -5,26 v 30 l 5,18 5,15 8,15 7,13 13,8 13,2 12,-2 18,-10 5,35 13,33 18,28 28,26 10,5 8,5 7,7 10,6 13,7 15,5 16,8 15,2 18,6 18,2 20,3 h 23 23 l 20,-3 23,-5 18,-8 20,-5 18,-10 15,-10 16,-10 10,-8 7,-8 11,-7 7,-8 15,-15 13,-15 15,-16 13,-17 13,10 h 18 l 18,-10 12,-16 8,-17 5,-18 3,-18 z"
   id="path58"
   inkscape:connector-curvature="0"
   style="fill:#bc6d56;stroke:none" />
         <path
   d="m 10726,13806 v 0 l 18,41 15,46 10,43 8,46 h 15 l -7,-46 -11,-48 -15,-46 -18,-41 v 0 z"
   id="path60"
   inkscape:connector-curvature="0"
   style="fill:#000000;stroke:none" />
         <path
   d="m 10693,13756 v 0 l 10,12 8,13 7,10 8,15 15,-5 -7,-15 -8,-15 -8,-13 -10,-13 v 0 z"
   id="path62"
   inkscape:connector-curvature="0"
   style="fill:#000000;stroke:none" />
         <path
   d="m 10505,13644 v -3 l 30,5 28,8 28,13 23,12 23,18 20,15 21,21 15,23 15,-11 -20,-23 -21,-20 -20,-20 -23,-18 -28,-13 -28,-12 -33,-8 -30,-5 v -3 z"
   id="path64"
   inkscape:connector-curvature="0"
   style="fill:#000000;stroke:none" />
         <path
   d="m 10446,13644 v -3 l 13,3 h 15 15 16 v -21 h -16 -15 -15 l -13,3 v -3 3 l -5,2 -3,5 3,6 5,2 z"
   id="path66"
   inkscape:connector-curvature="0"
   style="fill:#000000;stroke:none" />
         <path
   d="m 10362,13659 v 0 l 10,-3 10,-5 8,-2 10,-3 10,-2 h 13 l 10,-3 13,3 v -21 l -13,3 -10,2 h -13 l -10,3 -10,2 -13,3 -10,5 -10,3 v 0 0 l -5,2 v 8 l 2,5 z"
   id="path68"
   inkscape:connector-curvature="0"
   style="fill:#000000;stroke:none" />
         <path
   d="m 10212,13814 v 0 l 13,-25 12,-21 16,-23 15,-23 20,-20 23,-15 23,-15 28,-13 -5,-15 -28,12 -28,16 -23,20 -20,20 -21,23 -15,23 -13,25 -12,26 v 0 0 8 l 5,2 h 7 z"
   id="path70"
   inkscape:connector-curvature="0"
   style="fill:#000000;stroke:none" />
         <path
   d="m 10181,13900 11,-7 v -23 l 5,-18 7,-20 8,-18 -15,-5 -8,18 -8,20 -5,23 -5,23 10,-8 -10,8 3,7 7,3 8,-3 3,-7 z"
   id="path72"
   inkscape:connector-curvature="0"
   style="fill:#000000;stroke:none" />
         <path
   d="m 10153,13974 v 0 -30 l 5,-23 11,-13 12,-8 v -15 l -23,8 -15,23 -5,28 v 30 0 z"
   id="path74"
   inkscape:connector-curvature="0"
   style="fill:#000000;stroke:none" />
         <path
   d="m 10235,14033 -13,-8 -15,10 h -10 -11 l -10,-5 -5,-10 -7,-15 -6,-16 -5,-15 h -15 l 5,20 5,16 8,15 10,15 15,10 16,6 15,-6 20,-10 -12,-7 12,7 5,-5 -2,-7 -5,-3 h -8 z"
   id="path76"
   inkscape:connector-curvature="0"
   style="fill:#000000;stroke:none" />
         <path
   d="m 10296,14147 v 0 l -26,-23 -17,-25 -13,-33 -5,-33 h -15 l 5,38 12,33 18,30 31,28 v 0 z"
   id="path78"
   inkscape:connector-curvature="0"
   style="fill:#000000;stroke:none" />
         <path
   d="m 10329,14170 h 3 l -11,-5 -7,-8 -10,-5 -8,-5 -10,15 12,5 6,5 7,8 10,5 h 3 z"
   id="path80"
   inkscape:connector-curvature="0"
   style="fill:#000000;stroke:none" />
         <path
   d="m 10464,14200 v 0 h -23 -20 l -18,-2 -18,-5 -13,-3 -15,-7 -15,-5 -13,-8 -5,15 13,8 15,5 15,8 18,2 18,5 18,3 20,5 h 23 v 0 z"
   id="path82"
   inkscape:connector-curvature="0"
   style="fill:#000000;stroke:none" />
         <path
   d="m 10611,14152 v 0 l -15,10 -15,10 -15,11 -21,5 -18,7 -20,5 h -20 -23 v 21 h 23 l 20,-5 26,-5 17,-8 21,-5 20,-10 15,-10 16,-11 v 0 0 l 5,-5 -3,-7 -5,-3 z"
   id="path84"
   inkscape:connector-curvature="0"
   style="fill:#000000;stroke:none" />
         <path
   d="m 10647,14124 v 0 l -8,5 -10,8 -7,7 -11,8 11,15 10,-7 7,-8 11,-8 7,-10 v 0 0 l 3,-5 -3,-5 -5,-2 z"
   id="path86"
   inkscape:connector-curvature="0"
   style="fill:#000000;stroke:none" />
         <path
   d="m 10716,14063 -15,-2 -13,17 -13,16 -13,15 -15,15 10,10 16,-15 12,-15 18,-15 13,-18 -15,-3 15,3 v -8 l -3,-5 -7,-2 -5,5 z"
   id="path88"
   inkscape:connector-curvature="0"
   style="fill:#000000;stroke:none" />
         <path
   d="m 10762,14048 v 0 l -11,10 -15,10 h -13 l -7,-5 -15,5 17,15 h 23 l 21,-10 15,-20 v 0 z"
   id="path90"
   inkscape:connector-curvature="0"
   style="fill:#000000;stroke:none" />
         <path
   d="m 10777,13982 h -3 l 3,15 -3,18 -5,15 -7,18 15,5 8,-18 5,-20 2,-18 3,-15 h -3 3 l -3,-8 -7,-2 -8,2 -3,8 z"
   id="path92"
   inkscape:connector-curvature="0"
   style="fill:#000000;stroke:none" />
         <path
   d="m 9917,15159 -16,-5 -12,-5 -13,-5 -13,-8 -12,-8 -13,-7 -10,-8 -11,-7 -20,40 -18,43 -10,39 -5,25 3,23 7,33 10,28 13,20 13,-18 15,-22 20,-26 21,-25 18,-28 17,-28 11,-28 z"
   id="path94"
   inkscape:connector-curvature="0"
   style="fill:#bc6d56;stroke:none" />
         <path
   d="m 9825,15111 h -13 l 11,10 10,7 12,8 13,8 15,7 13,5 13,5 15,6 5,-16 -15,-5 -13,-5 -12,-5 -11,-8 -12,-7 -13,-8 -10,-7 -10,-6 h -13 13 l -6,-2 -2,2 -3,6 v 5 z"
   id="path96"
   inkscape:connector-curvature="0"
   style="fill:#000000;stroke:none" />
         <path
   d="m 9774,15253 v 0 l 3,-25 10,-36 18,-43 20,-38 -15,-11 -21,44 -17,43 -11,41 -7,25 v 0 z"
   id="path98"
   inkscape:connector-curvature="0"
   style="fill:#000000;stroke:none" />
         <path
   d="m 9789,15352 h 13 l -10,-18 -10,-28 -8,-30 v -23 h -20 l 5,23 8,35 10,28 15,23 h 13 -13 5 l 5,-2 3,-3 -3,-5 z"
   id="path100"
   inkscape:connector-curvature="0"
   style="fill:#000000;stroke:none" />
         <path
   d="m 9914,15167 -5,-8 -5,20 -10,28 -18,26 -18,28 -20,25 -21,25 -15,23 -13,18 16,10 12,-18 16,-22 20,-26 20,-25 18,-28 18,-31 10,-28 5,-25 -5,-8 8,8 -3,-8 -7,-2 -8,2 -2,8 z"
   id="path102"
   inkscape:connector-curvature="0"
   style="fill:#000000;stroke:none" />
         <path
   d="m 11006,15067 15,-7 15,-8 18,-8 18,-12 15,-10 18,-13 15,-13 16,-13 v 21 28 l -3,30 v 26 l 18,12 15,18 16,23 12,26 5,30 v 36 l -10,38 -18,40 -20,-10 -18,-12 -18,-18 -15,-26 -13,-28 -7,-30 -3,-36 v -40 l -20,-5 -21,-11 -17,-15 z"
   id="path104"
   inkscape:connector-curvature="0"
   style="fill:#bc6d56;stroke:none" />
         <path
   d="m 11143,14983 -12,-5 -16,11 -15,12 -18,13 -15,10 -15,13 -18,7 -15,8 -16,8 5,15 16,-8 15,-7 18,-8 20,-13 15,-10 18,-12 16,-13 15,-15 -13,-6 13,6 2,-6 -2,-5 -5,-2 -5,2 z"
   id="path106"
   inkscape:connector-curvature="0"
   style="fill:#000000;stroke:none" />
         <path
   d="m 11138,15080 3,8 2,-26 3,-30 v -28 l -3,-21 h -15 l -2,21 v 28 l -3,30 3,26 2,7 -2,-7 2,5 5,2 5,-2 3,-5 z"
   id="path108"
   inkscape:connector-curvature="0"
   style="fill:#000000;stroke:none" />
         <path
   d="m 11169,15319 10,-5 18,-41 10,-40 v -36 l -5,-33 -13,-28 -15,-23 -18,-18 -18,-15 -10,15 18,11 13,17 15,23 13,23 5,28 v 36 l -10,35 -18,41 10,-5 -10,5 v 8 l 5,2 h 7 l 3,-5 z"
   id="path110"
   inkscape:connector-curvature="0"
   style="fill:#000000;stroke:none" />
         <path
   d="m 11077,15118 -7,-7 -3,40 5,36 8,33 12,28 16,28 20,20 18,13 23,10 5,-15 -18,-10 -18,-13 -15,-15 -15,-23 -13,-28 -8,-28 v -36 l -2,-40 -8,-8 8,8 -3,-5 -5,-3 -5,3 -2,5 z"
   id="path112"
   inkscape:connector-curvature="0"
   style="fill:#000000;stroke:none" />
         <path
   d="m 11003,15060 -5,12 16,13 17,18 23,10 23,5 v -15 l -18,-5 -17,-10 -18,-13 -10,-13 -6,13 6,-13 -6,-5 -5,3 -5,5 v 7 z"
   id="path114"
   inkscape:connector-curvature="0"
   style="fill:#000000;stroke:none" />
         <path
   d="m 10617,14160 -16,10 -15,10 -18,10 -20,5 -18,8 -23,5 -20,3 h -23 -23 l -20,-3 -18,-2 -18,-6 -15,-2 -16,-8 -15,-5 -13,-7 -10,22 -2,31 7,28 23,20 18,5 18,5 20,5 21,3 17,5 16,8 12,10 8,13 10,-13 10,-10 13,-8 13,-8 13,-7 10,-5 10,-5 8,-5 15,-11 15,-22 15,-31 z"
   id="path116"
   inkscape:connector-curvature="0"
   style="fill:#bc6d56;stroke:none" />
         <path
   d="m 10464,14221 v 0 h 23 l 20,-5 26,-5 17,-8 21,-5 20,-10 15,-10 16,-11 -11,-15 -15,10 -15,10 -15,11 -21,5 -18,7 -20,5 h -20 -23 v 0 z"
   id="path118"
   inkscape:connector-curvature="0"
   style="fill:#000000;stroke:none" />
         <path
   d="m 10334,14183 -10,2 13,8 15,5 15,8 18,2 18,5 18,3 20,5 h 23 v -21 h -23 -20 l -18,-2 -18,-5 -13,-3 -15,-7 -15,-5 -13,-8 -10,2 10,-2 h -8 l -2,5 v 5 l 5,5 z"
   id="path120"
   inkscape:connector-curvature="0"
   style="fill:#000000;stroke:none" />
         <path
   d="m 10347,14272 v 0 l -18,-18 -8,-23 3,-31 10,-17 -15,-11 -10,28 -3,31 8,33 28,23 v 0 z"
   id="path122"
   inkscape:connector-curvature="0"
   style="fill:#000000;stroke:none" />
         <path
   d="m 10466,14328 16,2 -10,-15 -13,-13 -18,-8 -20,-5 -21,-2 -18,-5 -17,-5 -18,-5 -5,15 18,5 17,5 23,5 21,3 15,5 13,7 12,8 5,10 16,3 -16,-3 6,5 h 5 l 5,-2 v -8 z"
   id="path124"
   inkscape:connector-curvature="0"
   style="fill:#000000;stroke:none" />
         <path
   d="m 10555,14264 v 0 l -5,5 -10,5 -10,5 -15,8 -13,7 -13,8 -10,13 -13,13 16,10 7,-13 11,-8 12,-7 13,-8 10,-8 10,-5 10,-5 11,-5 v 0 z"
   id="path126"
   inkscape:connector-curvature="0"
   style="fill:#000000;stroke:none" />
         <path
   d="m 10622,14167 -13,-7 -10,46 -16,30 -12,20 -16,8 11,15 15,-12 18,-26 15,-30 10,-51 -13,-8 13,8 -2,-5 -5,-3 -6,3 -2,5 z"
   id="path128"
   inkscape:connector-curvature="0"
   style="fill:#000000;stroke:none" />
         <path
   d="m 10446,13633 h -13 l -10,3 h -13 l -10,3 -10,2 -10,3 -10,5 -10,2 -28,13 -26,15 -23,18 -20,20 -18,23 -15,23 -13,23 -13,25 -33,-5 -28,-12 -25,-21 -18,-28 -10,-30 -3,-33 8,-33 20,-33 23,-21 31,-15 35,-10 36,-8 36,-2 h 33 25 20 l 11,-18 15,-23 20,-20 26,-18 25,-15 31,-10 h 30 l 31,10 30,15 31,18 30,15 28,18 28,15 26,15 23,13 18,10 17,10 16,16 12,17 11,18 2,21 -2,22 -11,21 -20,23 38,33 31,38 18,43 10,41 -5,35 -16,31 -30,20 -43,8 -8,-46 -10,-46 -16,-46 -17,-40 -8,-15 -8,-13 -7,-13 -10,-13 -18,-22 -21,-21 -20,-18 -23,-17 -25,-13 -28,-13 -31,-7 -30,-6 h -16 -15 -15 z"
   id="path130"
   inkscape:connector-curvature="0"
   style="fill:#f2bf3f;stroke:none" />
         <path
   d="m 10362,13659 v 0 l 10,-3 10,-5 8,-2 10,-3 10,-2 h 13 l 10,-3 13,3 v -21 l -13,3 -10,2 h -13 l -10,3 -10,2 -13,3 -10,5 -10,3 v 0 0 l -5,2 v 8 l 2,5 z"
   id="path132"
   inkscape:connector-curvature="0"
   style="fill:#000000;stroke:none" />
         <path
   d="m 10204,13822 8,-8 13,-25 12,-21 16,-23 15,-23 20,-20 23,-15 23,-15 28,-13 -5,-15 -28,12 -28,16 -23,20 -20,20 -21,23 -15,23 -13,25 -12,26 7,-8 -7,8 v 8 l 5,2 h 7 l 3,-5 z"
   id="path134"
   inkscape:connector-curvature="0"
   style="fill:#000000;stroke:none" />
         <path
   d="m 10108,13611 v 0 l -21,35 -7,36 2,33 10,33 21,30 25,23 31,13 35,8 v -21 l -30,-2 -26,-13 -25,-18 -15,-25 -11,-28 -2,-33 7,-31 21,-30 v 0 z"
   id="path136"
   inkscape:connector-curvature="0"
   style="fill:#000000;stroke:none" />
         <path
   d="m 10347,13557 7,-7 h -20 -25 -33 l -36,5 -36,7 -38,10 -33,16 -25,23 15,10 20,-18 28,-15 33,-10 36,-8 h 36 33 25 20 l 8,-8 -8,8 8,-3 3,-7 -3,-8 -8,-2 z"
   id="path138"
   inkscape:connector-curvature="0"
   style="fill:#000000;stroke:none" />
         <path
   d="m 10545,13458 v 0 l -33,-10 h -30 l -33,10 -28,15 -26,18 -23,23 -15,23 -10,20 15,5 10,-15 16,-23 17,-18 26,-17 23,-16 28,-10 h 30 l 28,10 v 0 z"
   id="path140"
   inkscape:connector-curvature="0"
   style="fill:#000000;stroke:none" />
         <path
   d="m 10759,13578 v 0 l -18,-11 -20,-12 -28,-16 -26,-15 -30,-18 -31,-15 -30,-18 -31,-15 -5,15 31,16 30,17 31,16 25,17 31,16 23,15 25,13 18,10 v 0 z"
   id="path142"
   inkscape:connector-curvature="0"
   style="fill:#000000;stroke:none" />
         <path
   d="m 10787,13725 v 13 l 23,-23 10,-23 5,-25 -5,-23 -10,-21 -13,-17 -18,-18 -20,-10 -5,15 15,10 13,13 13,17 10,16 v 18 20 l -10,18 -18,23 v 12 -12 5 l 2,2 3,3 h 5 z"
   id="path144"
   inkscape:connector-curvature="0"
   style="fill:#000000;stroke:none" />
         <path
   d="m 10777,13982 8,10 45,-10 33,-23 18,-33 5,-38 -10,-44 -18,-45 -33,-38 -38,-36 -10,15 38,31 28,38 18,41 10,38 -5,33 -13,28 -28,18 -40,5 7,10 -7,-10 -8,2 -3,8 3,7 8,3 z"
   id="path146"
   inkscape:connector-curvature="0"
   style="fill:#000000;stroke:none" />
         <path
   d="m 10726,13806 v 0 l 18,41 15,46 10,43 8,46 h 15 l -7,-46 -11,-48 -15,-46 -18,-41 v 0 z"
   id="path148"
   inkscape:connector-curvature="0"
   style="fill:#000000;stroke:none" />
         <path
   d="m 10693,13756 v 0 l 10,12 8,13 7,10 8,15 15,-5 -7,-15 -8,-15 -8,-13 -10,-13 v 0 z"
   id="path150"
   inkscape:connector-curvature="0"
   style="fill:#000000;stroke:none" />
         <path
   d="m 10505,13644 v -3 l 30,5 28,8 28,13 23,12 23,18 20,15 21,21 15,23 15,-11 -20,-23 -21,-20 -20,-20 -23,-18 -28,-13 -28,-12 -33,-8 -30,-5 v -3 z"
   id="path152"
   inkscape:connector-curvature="0"
   style="fill:#000000;stroke:none" />
         <path
   d="m 10446,13644 v -3 l 13,3 h 15 15 16 v -21 h -16 -15 -15 l -13,3 v -3 3 l -5,2 -3,5 3,6 5,2 z"
   id="path154"
   inkscape:connector-curvature="0"
   style="fill:#000000;stroke:none" />
         <path
   d="m 10785,13982 -8,-46 -10,-46 -16,-46 -17,-40 -3,43 v 46 43 l 3,36 7,-18 13,-8 15,5 z"
   id="path156"
   inkscape:connector-curvature="0"
   style="fill:#260000;stroke:none" />
         <path
   d="m 10741,13804 -15,2 18,41 15,46 10,43 8,46 h 15 l -7,-46 -11,-48 -15,-46 -18,-41 -15,3 15,-3 -2,-5 h -8 l -5,3 v 7 z"
   id="path158"
   inkscape:connector-curvature="0"
   style="fill:#000000;stroke:none" />
         <path
   d="m 10726,13972 h 15 v -36 -43 -46 -43 h -15 l -5,43 v 46 43 l 5,36 h 15 -15 l 3,5 5,2 5,-2 2,-5 z"
   id="path160"
   inkscape:connector-curvature="0"
   style="fill:#000000;stroke:none" />
         <path
   d="m 10777,13982 15,-3 -15,-33 -23,-7 -20,10 -8,23 h 15 l 8,-13 5,-5 8,2 15,28 15,-2 -15,2 5,5 h 5 l 5,-2 v -8 z"
   id="path162"
   inkscape:connector-curvature="0"
   style="fill:#000000;stroke:none" />
         <path
   d="m 10701,13750 -18,-22 -21,-21 -20,-18 -23,-17 -25,-13 -28,-13 -31,-7 -30,-6 h -16 -15 -15 -13 l 13,26 18,23 20,23 25,17 31,13 41,10 48,5 z"
   id="path164"
   inkscape:connector-curvature="0"
   style="fill:#260000;stroke:none" />
         <path
   d="m 10505,13644 v -3 l 30,5 28,8 28,13 23,12 23,18 20,15 21,21 15,23 15,-11 -20,-23 -21,-20 -20,-20 -23,-18 -28,-13 -28,-12 -33,-8 -30,-5 v -3 z"
   id="path166"
   inkscape:connector-curvature="0"
   style="fill:#000000;stroke:none" />
         <path
   d="m 10454,13631 -8,10 13,3 h 15 15 16 v -21 h -16 -15 -15 l -13,3 -8,10 8,-10 -5,2 -3,5 3,6 5,2 z"
   id="path168"
   inkscape:connector-curvature="0"
   style="fill:#000000;stroke:none" />
         <path
   d="m 10693,13756 8,-13 h -59 l -48,-5 -39,-10 -30,-13 -23,-15 -18,-23 -18,-23 -12,-23 -16,5 13,28 18,23 23,23 28,20 30,13 44,10 48,5 h 59 l 7,-13 -7,13 5,-2 2,-6 -2,-5 -5,-2 z"
   id="path170"
   inkscape:connector-curvature="0"
   style="fill:#000000;stroke:none" />
         <path
   d="m 10181,13893 3,-23 5,-20 8,-21 7,-18 13,-25 13,-23 15,-23 18,-23 20,-20 23,-18 26,-15 28,-13 -31,23 -28,28 -25,33 -21,36 -18,43 -10,43 -5,49 3,48 -44,18 v -21 -20 -20 z"
   id="path172"
   inkscape:connector-curvature="0"
   style="fill:#260000;stroke:none" />
         <path
   d="m 10197,13809 v 0 l -8,18 -8,20 -5,23 -5,23 h 21 v -23 l 5,-18 7,-20 8,-18 v 0 0 -8 l -5,-2 h -5 z"
   id="path174"
   inkscape:connector-curvature="0"
   style="fill:#000000;stroke:none" />
         <path
   d="m 10365,13659 -8,-15 -28,12 -28,16 -23,20 -20,20 -21,23 -15,23 -13,25 -12,26 15,5 13,-25 12,-21 16,-23 15,-23 20,-20 23,-15 23,-15 28,-13 -8,-15 8,15 5,-5 v -5 l -2,-5 h -8 z"
   id="path176"
   inkscape:connector-curvature="0"
   style="fill:#000000;stroke:none" />
         <path
   d="m 10227,13961 5,-7 v -48 l 3,-49 10,-40 18,-44 20,-33 26,-33 25,-25 31,-23 -11,-15 -30,23 -31,30 -25,33 -20,38 -18,43 -10,46 -8,49 5,48 5,-8 -5,8 3,5 5,2 5,-2 2,-5 z"
   id="path178"
   inkscape:connector-curvature="0"
   style="fill:#000000;stroke:none" />
         <path
   d="m 10174,13972 10,7 43,-18 -5,-15 -43,18 10,8 -10,-8 -5,3 v 7 l 2,5 h 8 z"
   id="path180"
   inkscape:connector-curvature="0"
   style="fill:#000000;stroke:none" />
         <path
   d="m 10171,13893 v 0 18 20 20 l 3,21 h 15 l 3,-21 v -20 -20 -18 0 0 l -3,-8 -8,-2 -7,2 z"
   id="path182"
   inkscape:connector-curvature="0"
   style="fill:#000000;stroke:none" />
         <path
   d="m 10311,13834 15,-20 18,-15 23,-13 21,-5 h 20 l 15,5 10,15 v 21 l -12,-11 -16,-7 -15,-5 h -15 l -18,2 -15,8 -16,10 z"
   id="path184"
   inkscape:connector-curvature="0"
   style="fill:#260000;stroke:none" />
         <path
   d="m 10428,13827 13,-5 v -23 l -13,-21 -20,-5 h -20 l -23,5 -26,13 -18,18 -17,23 15,5 13,-18 17,-13 21,-12 18,-5 h 20 l 10,5 8,10 v 18 l 12,-5 -12,5 2,5 5,2 5,-2 3,-5 z"
   id="path186"
   inkscape:connector-curvature="0"
   style="fill:#000000;stroke:none" />
         <path
   d="m 10304,13832 15,7 13,-12 15,-10 13,-8 15,-3 h 15 l 13,5 13,8 12,8 10,-10 -12,-13 -18,-8 -18,-5 h -15 l -21,3 -17,7 -16,10 -17,18 15,8 -15,-8 v 8 l 5,5 5,2 5,-5 z"
   id="path188"
   inkscape:connector-curvature="0"
   style="fill:#000000;stroke:none" />
         <path
   d="m 10675,13834 -15,-20 -18,-15 -20,-13 -21,-5 h -20 l -15,5 -11,15 v 21 l 13,-11 13,-7 15,-5 h 18 l 15,2 16,8 15,10 z"
   id="path190"
   inkscape:connector-curvature="0"
   style="fill:#260000;stroke:none" />
         <path
   d="m 10550,13817 13,5 v -18 l 8,-10 10,-5 h 20 l 18,5 18,12 18,13 12,18 16,-5 -18,-23 -18,-18 -23,-13 -23,-5 h -20 l -20,5 -13,21 v 23 l 13,5 -13,-5 2,5 5,2 6,-2 2,-5 z"
   id="path192"
   inkscape:connector-curvature="0"
   style="fill:#000000;stroke:none" />
         <path
   d="m 10667,13837 16,-8 -18,-18 -15,-10 -18,-7 -18,-3 h -18 l -18,5 -15,8 -13,13 11,10 12,-8 10,-8 13,-5 h 18 l 13,3 12,8 16,10 12,12 16,-7 -16,7 6,5 7,-2 3,-5 v -8 z"
   id="path194"
   inkscape:connector-curvature="0"
   style="fill:#000000;stroke:none" />
         <path
   d="m 10321,13872 11,13 10,13 10,8 13,2 15,-5 18,-13 15,-10 10,-8 -13,-2 h -12 -13 l -13,-3 -12,3 h -13 -13 z"
   id="path196"
   inkscape:connector-curvature="0"
   style="fill:#000000;stroke:none" />
         <path
   d="m 10365,13898 v 0 h -11 l -7,-5 -8,-13 -10,-13 -15,11 10,12 13,13 12,10 16,5 v 0 z"
   id="path198"
   inkscape:connector-curvature="0"
   style="fill:#000000;stroke:none" />
         <path
   d="m 10423,13880 v -15 l -15,7 -15,11 -16,12 -12,3 v 20 l 17,-7 21,-13 15,-10 5,-8 v -15 15 l 5,-2 3,-6 -3,-5 -5,-2 z"
   id="path200"
   inkscape:connector-curvature="0"
   style="fill:#000000;stroke:none" />
         <path
   d="m 10329,13867 -8,13 13,-2 13,2 13,-2 h 12 13 l 13,2 12,-2 13,2 v -15 l -13,-3 -12,-2 -13,2 -13,-5 -12,5 -13,-2 -13,2 -13,3 -7,13 7,-13 -5,2 -2,5 2,6 5,2 z"
   id="path202"
   inkscape:connector-curvature="0"
   style="fill:#000000;stroke:none" />
         <path
   d="m 10662,13875 -10,13 -10,12 -13,8 -10,3 -15,-5 -15,-13 -16,-10 -10,-8 10,-3 h 13 13 l 12,-2 13,2 h 13 13 z"
   id="path204"
   inkscape:connector-curvature="0"
   style="fill:#000000;stroke:none" />
         <path
   d="m 10619,13921 v 0 l 13,-5 15,-10 13,-13 10,-13 -15,-10 -10,13 -8,12 -10,5 h -8 v 0 z"
   id="path206"
   inkscape:connector-curvature="0"
   style="fill:#000000;stroke:none" />
         <path
   d="m 10563,13867 -2,16 7,7 15,10 16,13 20,8 v -21 l -10,-2 -15,-13 -16,-10 -12,-8 -3,16 3,-16 h -8 l -3,5 v 6 l 6,5 z"
   id="path208"
   inkscape:connector-curvature="0"
   style="fill:#000000;stroke:none" />
         <path
   d="m 10670,13880 -8,-13 -12,-2 -13,-3 -13,3 -13,-5 -12,5 -13,-3 -13,3 -10,2 v 16 l 10,-3 13,3 13,-3 h 12 13 l 13,3 13,-3 12,3 -7,-13 7,13 5,-3 3,-5 -3,-5 -5,-3 z"
   id="path210"
   inkscape:connector-curvature="0"
   style="fill:#000000;stroke:none" />
         <path
   d="m 10375,14033 18,7 28,5 33,5 h 33 l 38,-2 33,-8 31,-7 25,-16 -5,28 -15,23 -28,18 -36,10 -38,3 -41,-8 -41,-23 z"
   id="path212"
   inkscape:connector-curvature="0"
   style="fill:#ffffff;stroke:none" />
         <path
   d="m 10622,14017 -13,-7 -23,15 -28,8 -33,7 h -38 l -33,3 -33,-5 -26,-5 -15,-8 -10,15 20,8 31,5 33,5 33,3 38,-5 33,-8 33,-8 28,-15 -13,-8 13,8 5,-5 -2,-8 -5,-2 h -8 z"
   id="path214"
   inkscape:connector-curvature="0"
   style="fill:#000000;stroke:none" />
         <path
   d="m 10380,14025 -13,13 38,38 44,23 43,7 38,-2 38,-10 31,-21 18,-25 5,-31 h -16 l -5,26 -12,20 -26,15 -33,11 -38,2 -38,-8 -38,-22 -34,-33 -12,12 12,-12 -5,-6 -5,3 -5,5 v 8 z"
   id="path216"
   inkscape:connector-curvature="0"
   style="fill:#000000;stroke:none" />
         <path
   d="m 10291,14155 10,5 8,5 7,7 10,6 -10,22 -2,31 7,28 23,20 18,5 18,5 20,5 21,3 17,5 16,8 12,10 8,13 10,-13 10,-10 13,-8 13,-8 13,-7 10,-5 10,-5 8,-5 15,-11 15,-22 15,-31 11,-48 10,-8 7,-8 11,-7 7,-8 10,5 5,10 6,16 2,15 5,25 8,33 13,31 12,15 8,3 h 8 l 12,2 10,3 13,5 13,10 8,13 2,18 20,2 23,5 21,10 20,13 13,20 7,26 -2,30 -13,39 18,20 20,25 26,28 28,33 25,33 28,31 23,30 20,28 11,16 5,10 5,10 2,5 -7,23 -13,23 -13,20 -7,13 5,5 5,8 5,7 8,10 10,16 12,15 11,18 10,15 10,18 5,18 5,15 3,12 -16,13 -15,13 -18,13 -15,10 -18,12 -18,8 -15,8 -15,7 -15,-5 -18,-7 -15,-8 -5,-3 -13,13 -13,13 -15,8 -13,7 -2,15 v 16 l -3,15 v 18 l -3,18 -2,15 -3,15 -5,15 -10,21 -13,17 -17,16 -23,7 -23,-28 -41,-33 -51,-30 -53,-33 -54,-28 -46,-28 -33,-26 -15,-17 -2,-11 v -15 -23 -25 -20 l 2,-23 v -23 -23 -15 -18 -15 l 3,-16 v -23 -22 -23 -21 -17 -18 -18 -18 -46 l -3,-43 -2,-35 -6,-31 v 53 l -2,56 -5,56 -8,56 -2,15 -3,16 -2,15 -3,15 -3,13 v 13 l -2,10 -3,13 -2,12 -5,16 -3,15 -2,12 -8,26 -5,25 -8,23 -7,23 -5,13 -3,13 -5,12 -5,13 -13,33 -13,25 -12,21 -11,12 -17,16 -21,12 -18,11 -17,10 -18,5 -15,5 -16,5 -12,3 -3,35 -3,36 -2,33 -3,18 -10,-18 -20,-13 -26,-5 -28,-5 -28,-8 -20,-15 -13,-23 -2,-38 -18,-3 -13,-2 -15,-5 -20,-5 -11,-3 -10,-2 -10,-3 -8,-2 -10,-3 -10,-2 -10,-6 -10,-2 -16,-5 -12,-5 -13,-5 -13,-8 -12,-8 -13,-7 -10,-8 -11,-7 -10,-11 -10,-10 -8,-10 -5,-10 8,-13 10,-15 8,-18 10,-18 5,-7 8,-11 5,-7 5,-10 5,-10 8,-11 7,-10 5,-10 5,-10 6,-8 5,-7 5,-11 10,-17 8,-16 7,-15 3,-10 -18,-23 -13,-33 -13,-33 -5,-28 5,-8 6,-10 7,-13 10,-12 13,-18 13,-18 15,-18 15,-20 16,-15 17,-18 18,-13 18,-12 3,-18 5,-21 10,-17 10,-21 10,-15 13,-15 13,-13 12,-8 v -10 l 5,-15 11,-13 12,-15 16,-15 17,-13 21,-15 25,-13 v -20 l 5,-23 11,-20 12,-23 13,-18 15,-18 16,-15 z"
   id="path218"
   inkscape:connector-curvature="0"
   style="fill:#a50000;stroke:none" />
         <path
   d="m 10334,14183 -2,-13 -11,-5 -7,-8 -10,-5 -8,-5 -10,15 12,5 6,5 7,8 10,5 -2,-13 2,13 h 8 l 5,-5 3,-5 -5,-5 z"
   id="path220"
   inkscape:connector-curvature="0"
   style="fill:#000000;stroke:none" />
         <path
   d="m 10347,14272 v 0 l -18,-18 -8,-23 3,-31 10,-17 -15,-11 -10,28 -3,31 8,33 28,23 v 0 z"
   id="path222"
   inkscape:connector-curvature="0"
   style="fill:#000000;stroke:none" />
         <path
   d="m 10466,14328 16,2 -10,-15 -13,-13 -18,-8 -20,-5 -21,-2 -18,-5 -17,-5 -18,-5 -5,15 18,5 17,5 23,5 21,3 15,5 13,7 12,8 5,10 16,3 -16,-3 6,5 h 5 l 5,-2 v -8 z"
   id="path224"
   inkscape:connector-curvature="0"
   style="fill:#000000;stroke:none" />
         <path
   d="m 10555,14264 v 0 l -5,5 -10,5 -10,5 -15,8 -13,7 -13,8 -10,13 -13,13 16,10 7,-13 11,-8 12,-7 13,-8 10,-8 10,-5 10,-5 11,-5 v 0 z"
   id="path226"
   inkscape:connector-curvature="0"
   style="fill:#000000;stroke:none" />
         <path
   d="m 10611,14152 -2,8 -10,46 -16,30 -12,20 -16,8 11,15 15,-12 18,-26 15,-30 10,-51 -2,7 2,-7 -2,-5 -5,-3 -6,3 -2,5 z"
   id="path228"
   inkscape:connector-curvature="0"
   style="fill:#000000;stroke:none" />
         <path
   d="m 10652,14122 -5,2 -8,5 -10,8 -7,7 -11,8 11,15 10,-7 7,-8 11,-8 7,-10 -5,3 5,-3 3,-5 -3,-5 -5,-2 -5,2 z"
   id="path230"
   inkscape:connector-curvature="0"
   style="fill:#000000;stroke:none" />
         <path
   d="m 10683,14175 v 0 l -3,-15 -5,-18 -8,-13 -15,-7 v 15 l 5,2 3,8 5,13 2,15 v 0 z"
   id="path232"
   inkscape:connector-curvature="0"
   style="fill:#000000;stroke:none" />
         <path
   d="m 10716,14272 h -3 l -5,-11 -13,-30 -7,-31 -5,-25 h -16 l 6,25 7,36 13,31 20,20 h -2 z"
   id="path234"
   inkscape:connector-curvature="0"
   style="fill:#000000;stroke:none" />
         <path
   d="m 10754,14279 v 0 l -13,-2 -12,-3 h -8 l -5,-2 -5,15 10,2 h 8 l 12,3 8,2 v 0 0 h 8 l 2,-5 v -7 z"
   id="path236"
   inkscape:connector-curvature="0"
   style="fill:#000000;stroke:none" />
         <path
   d="m 10787,14322 10,11 -5,-21 -10,-15 -13,-13 -15,-5 -5,15 10,6 13,7 5,10 v 16 l 10,10 -10,-10 2,7 8,3 8,-3 2,-7 z"
   id="path238"
   inkscape:connector-curvature="0"
   style="fill:#000000;stroke:none" />
         <path
   d="m 10881,14472 3,8 13,-41 2,-30 -8,-28 -15,-23 -23,-15 -20,-10 -26,-5 -20,-6 v 21 h 20 l 21,5 20,10 18,10 10,18 8,23 -3,30 -12,36 2,8 -2,-8 v 8 l 5,2 h 7 l 3,-5 z"
   id="path240"
   inkscape:connector-curvature="0"
   style="fill:#000000;stroke:none" />
         <path
   d="m 11072,14701 v 0 l -20,-28 -23,-30 -28,-31 -26,-33 -28,-33 -25,-28 -20,-25 -21,-21 -10,11 15,20 21,25 25,28 28,33 26,33 28,31 22,30 21,28 v 0 z"
   id="path242"
   inkscape:connector-curvature="0"
   style="fill:#000000;stroke:none" />
         <path
   d="m 11095,14747 h 3 l -6,-8 -5,-10 -5,-12 -10,-16 -15,10 10,16 5,7 5,10 v 3 h 3 z"
   id="path244"
   inkscape:connector-curvature="0"
   style="fill:#000000;stroke:none" />
         <path
   d="m 11052,14821 2,10 8,-13 13,-20 12,-26 8,-25 h -15 l -8,20 -13,21 -12,20 -8,13 3,10 -3,-10 v 7 l 5,5 5,3 5,-5 z"
   id="path246"
   inkscape:connector-curvature="0"
   style="fill:#000000;stroke:none" />
         <path
   d="m 11077,14851 v 0 l -7,-10 -6,-8 -5,-7 -7,-5 -10,10 2,5 5,8 5,7 8,10 v 0 0 l 5,6 8,-3 2,-5 z"
   id="path248"
   inkscape:connector-curvature="0"
   style="fill:#000000;stroke:none" />
         <path
   d="m 11120,14917 v -2 l -10,-15 -10,-18 -13,-15 -10,-16 -15,10 10,16 13,15 10,18 10,15 v -3 3 l 5,5 8,-2 2,-6 v -7 z"
   id="path250"
   inkscape:connector-curvature="0"
   style="fill:#000000;stroke:none" />
         <path
   d="m 11141,14989 5,-6 -5,-15 -5,-15 -5,-18 -11,-18 -15,5 10,18 5,18 6,15 v 10 l 5,-5 -5,5 2,8 8,3 7,-3 3,-8 z"
   id="path252"
   inkscape:connector-curvature="0"
   style="fill:#000000;stroke:none" />
         <path
   d="m 11003,15075 h 5 l 16,-8 15,-7 18,-8 20,-13 15,-10 18,-12 16,-13 15,-15 -10,-11 -16,11 -15,12 -18,13 -15,10 -15,13 -18,7 -15,8 -16,8 h 5 -5 l -5,2 v 8 l 3,5 h 7 z"
   id="path254"
   inkscape:connector-curvature="0"
   style="fill:#000000;stroke:none" />
         <path
   d="m 10960,15050 -10,2 5,3 15,7 18,8 15,5 5,-15 -15,-5 -18,-8 -15,-8 -5,-2 -10,2 10,-2 h -8 l -2,5 v 5 l 5,5 z"
   id="path256"
   inkscape:connector-curvature="0"
   style="fill:#000000;stroke:none" />
         <path
   d="m 10907,15085 -5,8 12,-8 18,-7 13,-16 15,-12 -15,-11 -10,13 -13,10 -13,8 -12,8 -6,7 6,-7 -6,2 v 8 l 3,5 h 8 z"
   id="path258"
   inkscape:connector-curvature="0"
   style="fill:#000000;stroke:none" />
         <path
   d="m 10902,15149 h 2 l -2,-18 2,-15 v -16 l 3,-15 h -16 l -2,15 v 16 l -3,15 -2,18 h 2 -2 l 2,7 8,3 8,-3 2,-7 z"
   id="path260"
   inkscape:connector-curvature="0"
   style="fill:#000000;stroke:none" />
         <path
   d="m 10889,15215 v 0 l 5,-18 3,-15 2,-15 3,-18 h -16 l -2,18 -3,15 -2,15 -5,13 v 0 0 7 l 5,3 h 7 z"
   id="path262"
   inkscape:connector-curvature="0"
   style="fill:#000000;stroke:none" />
         <path
   d="m 10810,15276 8,5 25,-8 20,-17 16,-18 10,-23 -15,-5 -11,18 -10,17 -15,13 -20,8 7,5 -7,-5 -5,2 -3,5 3,5 5,3 z"
   id="path264"
   inkscape:connector-curvature="0"
   style="fill:#000000;stroke:none" />
         <path
   d="m 10494,15050 v 2 l 18,20 33,28 49,28 53,28 51,33 51,31 41,30 20,26 15,-5 -25,-31 -41,-35 -51,-31 -56,-33 -53,-28 -44,-28 -33,-23 -12,-15 v 3 z"
   id="path266"
   inkscape:connector-curvature="0"
   style="fill:#000000;stroke:none" />
         <path
   d="m 10489,14976 v 0 25 23 l 3,15 2,11 h 16 l -3,-11 3,-15 v -23 -25 0 0 l -3,-8 -7,-2 -8,2 z"
   id="path268"
   inkscape:connector-curvature="0"
   style="fill:#000000;stroke:none" />
         <path
   d="m 10492,14887 v 0 23 23 l -3,23 v 20 h 21 v -20 l 2,-23 v -23 -23 0 0 l -2,-8 -8,-2 -8,2 z"
   id="path270"
   inkscape:connector-curvature="0"
   style="fill:#000000;stroke:none" />
         <path
   d="m 10494,14823 h 3 l -3,16 -2,15 v 18 15 h 20 v -15 -18 l -2,-15 2,-16 h 3 -3 l -2,-5 -5,-2 -5,2 -3,5 z"
   id="path272"
   inkscape:connector-curvature="0"
   style="fill:#000000;stroke:none" />
         <path
   d="m 10494,14734 v 0 21 23 22 23 h 21 v -23 -22 -23 -21 0 0 l -3,-7 -7,-3 -8,3 z"
   id="path274"
   inkscape:connector-curvature="0"
   style="fill:#000000;stroke:none" />
         <path
   d="m 10494,14663 v 0 18 18 18 17 h 21 v -17 -18 -18 -18 0 0 l -3,-7 -7,-3 -8,3 z"
   id="path276"
   inkscape:connector-curvature="0"
   style="fill:#000000;stroke:none" />
         <path
   d="m 10502,14508 h -15 l 5,31 2,35 v 43 46 h 21 v -46 l -5,-43 -3,-35 -5,-31 h -15 15 l -2,-5 -6,-3 -5,3 -2,5 z"
   id="path278"
   inkscape:connector-curvature="0"
   style="fill:#000000;stroke:none" />
         <path
   d="m 10487,14729 v 0 l 7,-56 6,-56 5,-56 -3,-53 h -15 l -3,53 v 56 l -5,56 -7,56 v 0 z"
   id="path280"
   inkscape:connector-curvature="0"
   style="fill:#000000;stroke:none" />
         <path
   d="m 10477,14790 v 0 l 2,-15 3,-15 2,-16 3,-15 h -15 l -3,15 -3,16 -2,15 -3,15 v 0 z"
   id="path282"
   inkscape:connector-curvature="0"
   style="fill:#000000;stroke:none" />
         <path
   d="m 10469,14841 v -2 l 3,-13 2,-10 v -13 l 3,-13 h -16 l -2,13 v 13 l -3,10 -2,13 v -3 z"
   id="path284"
   inkscape:connector-curvature="0"
   style="fill:#000000;stroke:none" />
         <path
   d="m 10456,14897 v -3 l 3,-12 2,-15 5,-13 3,-13 -15,-5 -3,13 -5,18 -2,15 -3,12 v -2 z"
   id="path286"
   inkscape:connector-curvature="0"
   style="fill:#000000;stroke:none" />
         <path
   d="m 10428,14994 v 0 l 8,-23 8,-23 5,-28 7,-23 -15,-5 -8,28 -5,23 -7,23 -8,23 v 0 z"
   id="path288"
   inkscape:connector-curvature="0"
   style="fill:#000000;stroke:none" />
         <path
   d="m 10410,15044 v 0 l 6,-12 5,-13 2,-13 5,-12 -15,-5 -5,12 -3,13 -5,13 -5,12 v 0 z"
   id="path290"
   inkscape:connector-curvature="0"
   style="fill:#000000;stroke:none" />
         <path
   d="m 10360,15141 v -2 l 12,-13 13,-23 13,-25 12,-34 -15,-5 -13,33 -12,26 -13,18 -8,12 v -2 z"
   id="path292"
   inkscape:connector-curvature="0"
   style="fill:#000000;stroke:none" />
         <path
   d="m 10230,15200 -10,7 15,-2 15,-5 15,-6 18,-5 18,-10 20,-10 21,-13 18,-15 -11,-15 -17,15 -21,13 -15,10 -18,10 -18,5 -15,5 -15,5 -10,3 -11,8 11,-8 -6,2 -2,6 2,5 6,2 z"
   id="path294"
   inkscape:connector-curvature="0"
   style="fill:#000000;stroke:none" />
         <path
   d="m 10202,15322 h 18 v -18 l 2,-33 3,-36 5,-35 h -21 v 35 l -2,36 -3,33 -5,18 h 18 -18 l 3,7 7,3 8,-3 3,-7 z"
   id="path296"
   inkscape:connector-curvature="0"
   style="fill:#000000;stroke:none" />
         <path
   d="m 10062,15207 -8,-10 3,38 12,28 26,18 30,8 28,5 23,5 18,10 8,13 h 15 l -13,-23 -23,-16 -28,-5 -28,-5 -25,-7 -15,-13 -13,-18 -3,-38 -7,-10 7,10 -2,-5 -5,-3 -5,3 -3,5 z"
   id="path298"
   inkscape:connector-curvature="0"
   style="fill:#000000;stroke:none" />
         <path
   d="m 9996,15189 v 0 l 17,5 16,6 15,2 18,5 v -20 h -18 l -10,-3 -16,-5 -22,-5 v 0 0 l -5,3 -3,5 3,5 z"
   id="path300"
   inkscape:connector-curvature="0"
   style="fill:#000000;stroke:none" />
         <path
   d="m 9914,15167 v 0 l 10,2 11,5 12,3 8,2 8,3 12,2 10,3 11,2 v -15 l -11,-2 -10,-3 -7,-2 -8,-3 -13,-3 -7,-2 -11,-5 -10,-3 v 0 0 h -7 l -3,5 v 5 z"
   id="path302"
   inkscape:connector-curvature="0"
   style="fill:#000000;stroke:none" />
         <path
   d="m 9812,15113 v -2 l 11,10 10,7 12,8 13,8 15,7 13,5 13,5 15,6 5,-16 -15,-5 -13,-5 -12,-5 -11,-8 -12,-7 -13,-8 -10,-7 -10,-6 v -2 2 l -6,-2 -2,2 -3,6 v 5 z"
   id="path304"
   inkscape:connector-curvature="0"
   style="fill:#000000;stroke:none" />
         <path
   d="m 9777,15062 v 5 l 5,13 7,10 13,10 10,13 11,-15 -11,-8 -7,-10 -8,-10 -5,-8 v 5 -5 l -3,-5 h -7 l -5,3 v 7 z"
   id="path306"
   inkscape:connector-curvature="0"
   style="fill:#000000;stroke:none" />
         <path
   d="m 9812,14996 v 3 l -10,18 -7,17 -11,13 -7,15 15,5 8,-10 10,-18 7,-17 11,-18 v 2 -2 -8 l -5,-2 h -6 l -5,5 z"
   id="path308"
   inkscape:connector-curvature="0"
   style="fill:#000000;stroke:none" />
         <path
   d="m 9835,14963 v -2 l -5,12 -5,5 -8,11 -5,7 16,10 5,-7 7,-10 5,-11 6,-7 v -3 3 -8 l -3,-5 -8,-2 -5,5 z"
   id="path310"
   inkscape:connector-curvature="0"
   style="fill:#000000;stroke:none" />
         <path
   d="m 9861,14920 v 0 l -5,10 -8,10 -8,10 -5,13 16,5 5,-7 7,-11 8,-10 5,-10 v 0 0 -8 l -3,-5 -7,-2 z"
   id="path312"
   inkscape:connector-curvature="0"
   style="fill:#000000;stroke:none" />
         <path
   d="m 9881,14887 v -3 l -5,13 -5,5 -5,10 -5,8 15,10 5,-13 5,-5 5,-10 5,-8 v -2 2 -7 l -2,-5 -8,-3 -5,5 z"
   id="path314"
   inkscape:connector-curvature="0"
   style="fill:#000000;stroke:none" />
         <path
   d="m 9912,14836 -3,-5 -2,8 -8,15 -8,15 -10,18 15,5 11,-18 7,-15 8,-15 2,-13 -2,-5 2,5 -2,-5 -5,-3 -5,3 -3,5 z"
   id="path316"
   inkscape:connector-curvature="0"
   style="fill:#000000;stroke:none" />
         <path
   d="m 9861,14711 v 3 l 5,30 13,34 12,33 21,25 10,-10 -15,-20 -13,-34 -13,-33 -5,-25 v 3 -3 l -3,-5 -5,-3 -5,3 -2,5 z"
   id="path318"
   inkscape:connector-curvature="0"
   style="fill:#000000;stroke:none" />
         <path
   d="m 9889,14666 v 0 l -10,12 -8,16 -5,10 -5,7 15,6 5,-8 5,-10 8,-10 10,-13 v 0 0 -8 l -3,-5 -7,-2 z"
   id="path320"
   inkscape:connector-curvature="0"
   style="fill:#000000;stroke:none" />
         <path
   d="m 10013,14539 3,-8 -18,13 -18,12 -17,21 -18,15 -16,20 -15,18 -13,18 -12,18 15,10 13,-18 12,-18 16,-18 15,-20 13,-15 18,-15 17,-13 18,-13 3,-7 -3,7 5,-5 -2,-8 -5,-2 h -8 z"
   id="path322"
   inkscape:connector-curvature="0"
   style="fill:#000000;stroke:none" />
         <path
   d="m 10090,14411 2,-7 -12,7 -13,16 -15,15 -11,18 -10,20 -10,18 -5,23 -3,18 h 16 l 2,-18 5,-18 10,-18 11,-20 10,-13 10,-15 13,-10 12,-8 3,-8 -3,8 6,-5 -3,-8 -5,-2 h -8 z"
   id="path324"
   inkscape:connector-curvature="0"
   style="fill:#000000;stroke:none" />
         <path
   d="m 10197,14302 5,-8 -28,13 -21,15 -17,13 -16,18 -15,15 -10,15 -5,18 v 10 h 15 v -10 l 5,-12 10,-11 10,-15 16,-13 18,-12 20,-16 23,-12 5,-8 -5,8 5,-5 v -5 l -3,-6 h -7 z"
   id="path326"
   inkscape:connector-curvature="0"
   style="fill:#000000;stroke:none" />
         <path
   d="m 10296,14147 h -10 l -16,10 -15,18 -18,18 -12,18 -13,25 -10,20 -5,26 v 20 h 15 v -20 l 5,-21 10,-20 13,-20 13,-18 12,-18 16,-13 15,-10 h -10 10 l 5,-5 -3,-7 -5,-3 h -7 z"
   id="path328"
   inkscape:connector-curvature="0"
   style="fill:#000000;stroke:none" />
         <path
   d="m 10220,15200 -3,35 -3,36 -2,33 -3,18 -10,-18 -20,-13 -26,-5 -28,-5 -28,-8 -20,-15 -13,-23 -2,-38 15,3 18,2 20,3 h 23 23 23 l 20,-3 z"
   id="path330"
   inkscape:connector-curvature="0"
   style="fill:#a50000;stroke:none" />
         <path
   d="m 10202,15322 h 18 v -18 l 2,-33 3,-36 5,-35 h -21 v 35 l -2,36 -3,33 -5,18 h 18 -18 l 3,7 7,3 8,-3 3,-7 z"
   id="path332"
   inkscape:connector-curvature="0"
   style="fill:#000000;stroke:none" />
         <path
   d="m 10062,15189 -8,8 3,38 12,28 26,18 30,8 28,5 23,5 18,10 8,13 h 15 l -13,-23 -23,-16 -28,-5 -28,-5 -25,-7 -15,-13 -13,-18 -3,-38 -7,8 7,-8 -2,-5 -5,-3 -5,3 -3,5 z"
   id="path334"
   inkscape:connector-curvature="0"
   style="fill:#000000;stroke:none" />
         <path
   d="m 10230,15200 -13,-8 -13,2 h -20 -23 -23 -23 -20 l -18,-2 -15,-3 v 16 l 15,2 18,3 20,5 h 23 23 23 l 20,-5 18,-3 -13,-7 13,7 5,-5 v -5 l -2,-5 h -8 z"
   id="path336"
   inkscape:connector-curvature="0"
   style="fill:#000000;stroke:none" />
         <path
   d="m 10884,15019 18,-8 15,-10 18,-10 18,-10 -11,-23 13,-8 15,-10 18,-12 18,-13 15,-15 18,-16 15,-15 16,-13 -8,-10 -5,-7 -5,-8 -5,-5 7,-13 13,-20 13,-23 7,-23 -2,-5 -5,-10 -5,-10 -11,-16 -10,21 -12,17 -13,16 -13,18 3,2 5,8 5,10 5,10 -13,20 -18,21 -22,23 -26,22 -25,21 -26,18 -23,15 -18,10 -33,-38 -38,-33 -48,-23 -51,-18 -51,-10 -51,-8 -46,-5 h -40 l -3,16 v 15 18 15 l 51,-3 51,5 51,8 51,13 48,18 48,25 44,30 z"
   id="path338"
   inkscape:connector-curvature="0"
   style="fill:#ff4c00;stroke:none" />
         <path
   d="m 10945,14983 5,-10 -18,10 -20,11 -13,10 -18,7 5,16 18,-8 18,-10 15,-10 18,-10 5,-11 -5,11 5,-6 v -5 l -2,-5 h -8 z"
   id="path340"
   inkscape:connector-curvature="0"
   style="fill:#000000;stroke:none" />
         <path
   d="m 10940,14950 -5,11 10,22 15,-5 -10,-22 -5,10 5,-10 -3,-6 h -7 l -5,3 v 8 z"
   id="path342"
   inkscape:connector-curvature="0"
   style="fill:#000000;stroke:none" />
         <path
   d="m 11062,14861 2,-10 -15,13 -15,15 -18,15 -15,13 -18,13 -18,13 -15,10 -10,7 5,16 15,-8 15,-10 18,-13 18,-13 15,-17 18,-16 15,-15 16,-13 2,-10 -2,10 2,-5 -2,-5 -5,-2 -6,2 z"
   id="path344"
   inkscape:connector-curvature="0"
   style="fill:#000000;stroke:none" />
         <path
   d="m 11039,14821 3,10 2,5 5,8 5,7 8,10 15,-10 -7,-10 -6,-8 -5,-7 -7,-5 2,10 -2,-10 -5,-3 -3,3 -2,5 v 5 z"
   id="path346"
   inkscape:connector-curvature="0"
   style="fill:#000000;stroke:none" />
         <path
   d="m 11077,14747 h 3 l -8,20 -13,21 -12,20 -8,13 15,10 8,-13 13,-20 12,-26 8,-25 h 3 z"
   id="path348"
   inkscape:connector-curvature="0"
   style="fill:#000000;stroke:none" />
         <path
   d="m 11072,14709 -15,2 10,16 5,7 5,10 v 3 h 21 l -6,-8 -5,-10 -5,-12 -10,-16 -15,3 15,-3 -5,-5 -5,3 -5,5 v 7 z"
   id="path350"
   inkscape:connector-curvature="0"
   style="fill:#000000;stroke:none" />
         <path
   d="m 11024,14772 v 11 l 12,-18 13,-15 13,-18 10,-23 -15,-5 -10,18 -13,17 -13,16 -13,17 v 11 -11 8 l 6,5 5,3 5,-5 z"
   id="path352"
   inkscape:connector-curvature="0"
   style="fill:#000000;stroke:none" />
         <path
   d="m 11042,14811 v -5 l -6,-11 -5,-10 -5,-10 -2,-3 -16,11 3,2 5,5 5,10 5,11 v -5 5 l 5,5 h 5 l 6,-3 v -7 z"
   id="path354"
   inkscape:connector-curvature="0"
   style="fill:#000000;stroke:none" />
         <path
   d="m 10856,14963 10,3 20,-10 23,-16 26,-18 25,-20 26,-25 22,-23 21,-21 13,-22 -16,-5 -12,17 -16,21 -23,23 -25,20 -25,20 -26,18 -23,15 -15,10 10,3 -10,-3 -5,3 v 8 l 2,5 h 8 z"
   id="path356"
   inkscape:connector-curvature="0"
   style="fill:#000000;stroke:none" />
         <path
   d="m 10512,14823 -7,10 40,-2 46,5 51,8 48,10 51,18 46,22 38,31 31,38 15,-10 -36,-38 -38,-36 -51,-23 -51,-17 -53,-11 -51,-7 -46,-5 -40,-3 -8,10 8,-10 -8,3 -3,7 3,8 8,2 z"
   id="path358"
   inkscape:connector-curvature="0"
   style="fill:#000000;stroke:none" />
         <path
   d="m 10502,14879 10,8 v -15 -18 l -2,-15 2,-16 h -15 l -3,16 -2,15 v 18 15 l 10,7 -10,-7 2,7 8,3 8,-3 2,-7 z"
   id="path360"
   inkscape:connector-curvature="0"
   style="fill:#000000;stroke:none" />
         <path
   d="m 10881,15011 8,3 -38,-38 -44,-31 -50,-25 -49,-18 -53,-13 -51,-7 -51,-8 -51,5 v 15 h 51 l 51,3 51,8 48,12 48,18 46,26 44,30 38,33 7,3 -7,-3 h 5 l 5,-2 2,-3 -2,-5 z"
   id="path362"
   inkscape:connector-curvature="0"
   style="fill:#000000;stroke:none" />
         <path
   d="m 9868,14925 5,-10 6,-8 5,-7 5,-11 18,8 22,13 21,12 23,13 20,18 20,18 13,20 10,20 10,-12 13,-10 15,-16 18,-12 21,-16 23,-12 22,-16 26,-12 28,-13 30,-13 34,-10 33,-10 35,-8 38,-7 39,-3 40,-2 -2,12 -5,16 -3,15 -2,12 -23,-2 h -23 l -28,2 -28,6 -31,5 -33,10 -30,13 -33,10 -31,15 -31,15 -28,15 -28,18 -22,16 -21,17 -18,18 -12,15 -13,-23 -15,-22 -21,-21 -23,-20 -22,-15 -23,-18 -23,-13 z"
   id="path364"
   inkscape:connector-curvature="0"
   style="fill:#ff4c00;stroke:none" />
         <path
   d="m 9891,14882 -10,2 -5,13 -5,5 -5,10 -5,8 15,10 5,-13 5,-5 5,-10 5,-8 -10,3 10,-3 v -7 l -2,-5 -8,-3 -5,5 z"
   id="path366"
   inkscape:connector-curvature="0"
   style="fill:#000000;stroke:none" />
         <path
   d="m 10029,15006 15,3 -10,-20 -13,-23 -23,-21 -20,-17 -23,-13 -20,-13 -26,-13 -18,-7 -5,15 18,8 20,12 21,13 23,13 20,18 18,15 12,18 11,20 15,3 -15,-3 5,5 h 5 l 5,-2 v -8 z"
   id="path368"
   inkscape:connector-curvature="0"
   style="fill:#000000;stroke:none" />
         <path
   d="m 10469,14841 -8,-13 -40,5 -39,3 -38,8 -38,7 -33,10 -33,11 -31,12 -28,13 -28,13 -23,15 -22,13 -21,15 -18,13 -15,17 -13,11 -12,12 15,11 8,-13 12,-10 16,-13 17,-13 21,-15 23,-13 23,-15 22,-13 28,-12 31,-13 33,-10 33,-10 33,-8 38,-8 39,-2 h 40 l -7,-13 7,13 8,-3 3,-7 -3,-8 -8,-3 z"
   id="path370"
   inkscape:connector-curvature="0"
   style="fill:#000000;stroke:none" />
         <path
   d="m 10449,14902 7,-8 3,-12 2,-15 5,-13 3,-13 -15,-5 -3,13 -5,18 -2,15 -3,12 8,-7 -8,7 3,6 5,2 5,-2 2,-6 z"
   id="path372"
   inkscape:connector-curvature="0"
   style="fill:#000000;stroke:none" />
         <path
   d="m 10021,15070 15,2 10,-15 18,-18 21,-15 23,-15 28,-18 25,-15 31,-15 30,-16 33,-10 31,-13 30,-10 31,-5 28,-5 h 28 23 23 v -15 l -23,-5 h -23 l -28,5 -28,5 -31,5 -35,10 -31,13 -33,10 -31,15 -30,16 -31,15 -28,18 -23,15 -20,20 -18,18 -15,15 15,3 -15,-3 v 8 l 5,5 5,3 5,-6 z"
   id="path374"
   inkscape:connector-curvature="0"
   style="fill:#000000;stroke:none" />
         <path
   d="m 9861,14920 5,13 20,10 21,13 22,17 23,16 23,17 18,21 15,23 13,20 15,-5 -12,-26 -16,-22 -23,-21 -22,-23 -23,-15 -23,-18 -26,-12 -20,-11 5,13 -5,-13 h -8 l -2,5 v 6 l 5,5 z"
   id="path376"
   inkscape:connector-curvature="0"
   style="fill:#000000;stroke:none" />
         <path
   d="m 9917,14831 -18,-23 -13,-33 -13,-33 -5,-28 5,-8 6,-10 7,-13 10,-12 11,33 12,30 10,26 11,20 z"
   id="path378"
   inkscape:connector-curvature="0"
   style="fill:#ff4c00;stroke:none" />
         <path
   d="m 9861,14711 v 3 l 5,30 13,34 12,33 21,25 10,-10 -15,-20 -13,-34 -13,-33 -5,-25 v 3 -3 l -3,-5 -5,-3 -5,3 -2,5 z"
   id="path380"
   inkscape:connector-curvature="0"
   style="fill:#000000;stroke:none" />
         <path
   d="m 9904,14668 -15,-2 -10,12 -8,16 -5,10 -5,7 15,6 5,-8 5,-10 8,-10 10,-13 -15,-3 15,3 v -8 l -3,-5 -7,-2 -5,5 z"
   id="path382"
   inkscape:connector-curvature="0"
   style="fill:#000000;stroke:none" />
         <path
   d="m 9947,14783 v -5 l -10,-21 -10,-25 -13,-31 -10,-33 -15,5 10,33 13,31 10,25 10,21 v -5 5 l 5,5 h 5 l 5,-3 v -7 z"
   id="path384"
   inkscape:connector-curvature="0"
   style="fill:#000000;stroke:none" />
         <path
   d="m 9912,14836 12,-3 23,-50 -15,-5 -23,50 13,-2 -13,2 v 8 l 5,3 h 8 l 2,-6 z"
   id="path386"
   inkscape:connector-curvature="0"
   style="fill:#000000;stroke:none" />
         <path
   d="m 10181,14478 h 11 l 10,-3 h 10 l 13,-3 15,-2 13,-3 h 15 l 15,-2 23,28 26,35 30,41 31,41 28,38 25,35 20,28 13,18 -2,15 -3,16 -2,15 -3,15 -23,-38 -33,-41 -36,-45 -40,-46 -41,-43 -41,-41 -38,-33 z"
   id="path388"
   inkscape:connector-curvature="0"
   style="fill:#f2bf3f;stroke:none" />
         <path
   d="m 10291,14460 -8,-3 -15,3 h -15 l -13,2 -15,3 -13,2 h -10 l -10,3 h -11 v 15 h 11 l 10,-2 h 10 l 13,-3 15,-2 13,-3 h 15 l 15,-3 -7,-2 7,2 5,-2 3,-5 -3,-5 -5,-3 z"
   id="path390"
   inkscape:connector-curvature="0"
   style="fill:#000000;stroke:none" />
         <path
   d="m 10487,14729 v -5 l -13,-18 -20,-28 -26,-35 -28,-38 -30,-41 -31,-41 -25,-35 -23,-28 -15,10 22,28 26,35 30,41 31,41 28,38 25,36 21,28 13,17 v -5 5 l 5,5 7,-2 3,-5 v -8 z"
   id="path392"
   inkscape:connector-curvature="0"
   style="fill:#000000;stroke:none" />
         <path
   d="m 10461,14795 16,-5 2,-15 3,-15 2,-16 3,-15 h -15 l -3,15 -3,16 -2,15 -3,15 16,-5 -16,5 3,5 5,3 5,-3 3,-5 z"
   id="path394"
   inkscape:connector-curvature="0"
   style="fill:#000000;stroke:none" />
         <path
   d="m 10181,14470 -5,15 36,26 38,30 41,41 41,43 38,46 35,46 33,40 23,38 16,-10 -23,-38 -33,-41 -36,-45 -43,-46 -41,-43 -41,-41 -38,-36 -36,-25 -5,15 5,-15 h -7 l -5,2 -3,8 5,5 z"
   id="path396"
   inkscape:connector-curvature="0"
   style="fill:#000000;stroke:none" />
         <path
   d="m 10505,14734 v -17 -18 -18 -18 l 20,-25 28,-33 36,-38 35,-41 38,-41 33,-35 26,-28 18,-21 18,3 17,2 16,5 17,6 -43,40 -43,46 -43,46 -44,43 -38,43 -35,41 -31,33 z"
   id="path398"
   inkscape:connector-curvature="0"
   style="fill:#f2bf3f;stroke:none" />
         <path
   d="m 10497,14658 -3,5 v 18 18 18 17 h 21 v -17 -18 -18 -18 l -3,5 3,-5 -3,-7 -7,-3 -8,3 -3,7 z"
   id="path400"
   inkscape:connector-curvature="0"
   style="fill:#000000;stroke:none" />
         <path
   d="m 10739,14394 -8,2 -15,21 -26,27 -33,36 -38,41 -36,40 -35,39 -31,33 -20,25 15,10 21,-25 25,-33 36,-38 35,-41 38,-41 34,-35 25,-28 20,-21 -7,3 7,-3 v -7 l -2,-5 -8,-3 -5,5 z"
   id="path402"
   inkscape:connector-curvature="0"
   style="fill:#000000;stroke:none" />
         <path
   d="m 10813,14422 -3,-13 -18,-5 -18,-5 -17,-3 -18,-2 v 15 l 18,2 17,3 13,5 18,5 -3,-13 3,13 h 8 l 2,-5 v -8 l -5,-2 z"
   id="path404"
   inkscape:connector-curvature="0"
   style="fill:#000000;stroke:none" />
         <path
   d="m 10494,14734 16,5 25,-25 31,-33 38,-41 35,-43 44,-43 43,-46 43,-46 44,-40 -11,-11 -43,41 -43,46 -43,46 -44,43 -40,43 -34,41 -30,33 -25,25 15,5 -15,-5 v 5 l 2,3 3,2 h 5 z"
   id="path406"
   inkscape:connector-curvature="0"
   style="fill:#000000;stroke:none" />
         <path
   d="m 10889,15047 5,10 v 8 l 3,10 2,10 13,-7 15,-8 13,-13 13,-13 5,3 15,8 18,7 15,5 15,-7 15,-8 18,-8 18,-12 15,-10 18,-13 15,-13 16,-13 -3,-12 -5,-15 -5,-18 -10,-18 -15,15 -16,13 -18,15 -15,10 -15,13 -18,10 -18,10 -20,8 -13,5 -12,5 -11,5 -12,5 -11,5 -12,3 -8,2 z"
   id="path408"
   inkscape:connector-curvature="0"
   style="fill:#f2bf3f;stroke:none" />
         <path
   d="m 10897,15078 10,5 -3,-8 -2,-10 v -10 l -5,-13 -16,10 5,8 v 5 l 3,10 2,13 11,5 -11,-5 6,5 h 5 l 5,-3 v -7 z"
   id="path410"
   inkscape:connector-curvature="0"
   style="fill:#000000;stroke:none" />
         <path
   d="m 10955,15037 -10,2 -10,13 -13,10 -13,8 -12,8 5,15 12,-8 18,-7 13,-16 15,-12 -10,2 10,-2 v -8 l -2,-5 -8,-3 -5,5 z"
   id="path412"
   inkscape:connector-curvature="0"
   style="fill:#000000;stroke:none" />
         <path
   d="m 11003,15060 h 5 l -15,-5 -18,-8 -15,-8 -5,-2 -5,15 5,3 15,7 18,8 15,5 h 5 -5 8 l 3,-5 v -8 l -6,-2 z"
   id="path414"
   inkscape:connector-curvature="0"
   style="fill:#000000;stroke:none" />
         <path
   d="m 11126,14983 5,-5 -16,11 -15,12 -18,13 -15,10 -15,13 -18,7 -15,8 -16,8 5,15 16,-8 15,-7 18,-8 20,-13 15,-10 18,-12 16,-13 15,-15 5,-6 -5,6 2,-6 -2,-5 -5,-2 -5,2 z"
   id="path416"
   inkscape:connector-curvature="0"
   style="fill:#000000;stroke:none" />
         <path
   d="m 11118,14925 -13,-3 10,18 5,18 6,15 v 10 h 20 l -5,-15 -5,-15 -5,-18 -11,-18 -12,-2 12,2 -2,-5 h -8 l -5,3 v 7 z"
   id="path418"
   inkscape:connector-curvature="0"
   style="fill:#000000;stroke:none" />
         <path
   d="m 10981,15022 v 0 l 20,-8 18,-10 20,-10 15,-13 16,-10 17,-15 16,-16 15,-15 -10,-10 -16,15 -15,10 -18,16 -15,10 -15,12 -15,11 -18,10 -21,7 v 0 0 l -5,3 v 8 l 3,5 z"
   id="path420"
   inkscape:connector-curvature="0"
   style="fill:#000000;stroke:none" />
         <path
   d="m 10897,15042 -8,13 13,-3 5,-2 15,-3 10,-5 13,-5 10,-5 13,-5 13,-5 -6,-16 -12,5 -13,6 -10,5 -13,5 -10,5 -10,2 -10,3 -8,2 -8,13 8,-13 -5,3 -3,5 3,5 5,3 z"
   id="path422"
   inkscape:connector-curvature="0"
   style="fill:#000000;stroke:none" />
         <path
   d="m 10502,15050 -2,-11 v -15 -23 -25 l 40,-8 h 46 l 48,3 54,12 53,23 54,33 51,49 48,61 -3,18 -2,15 -3,15 -5,15 -33,-40 -41,-41 -43,-38 -48,-33 -51,-23 -54,-13 -53,5 z"
   id="path424"
   inkscape:connector-curvature="0"
   style="fill:#f2bf3f;stroke:none" />
         <path
   d="m 10500,14968 -11,8 v 25 23 l 3,15 2,11 h 16 l -3,-11 3,-15 v -23 -25 l -10,7 10,-7 -3,-8 -7,-2 -8,2 -3,8 z"
   id="path426"
   inkscape:connector-curvature="0"
   style="fill:#000000;stroke:none" />
         <path
   d="m 10902,15149 v -5 l -51,-61 -51,-51 -56,-33 -54,-23 -56,-13 -48,-5 -46,3 -40,7 v 15 l 40,-7 46,2 h 48 l 51,13 54,23 51,33 51,46 45,61 v -5 5 l 5,5 8,-3 3,-5 v -7 z"
   id="path428"
   inkscape:connector-curvature="0"
   style="fill:#000000;stroke:none" />
         <path
   d="m 10874,15217 15,-2 5,-18 3,-15 2,-15 3,-18 h -16 l -2,18 -3,15 -2,15 -5,13 15,-3 -15,3 v 7 l 5,3 h 7 l 3,-5 z"
   id="path430"
   inkscape:connector-curvature="0"
   style="fill:#000000;stroke:none" />
         <path
   d="m 10494,15050 11,7 53,-20 53,-5 51,12 51,23 46,33 43,36 41,41 31,40 15,-10 -36,-40 -40,-41 -44,-41 -51,-33 -51,-23 -56,-12 -53,5 -58,20 10,8 -10,-8 -6,2 v 8 l 3,5 h 8 z"
   id="path432"
   inkscape:connector-curvature="0"
   style="fill:#000000;stroke:none" />
         <path
   d="m 9820,15001 5,-7 8,-11 5,-7 5,-10 20,12 26,16 28,20 30,23 28,25 23,26 18,28 8,28 30,-23 46,-28 53,-28 59,-28 61,-26 56,-17 51,-8 41,5 -5,13 -3,13 -5,12 -5,13 -38,-3 -49,8 -53,13 -54,20 -53,26 -43,27 -33,34 -18,30 -18,-3 -13,-2 -15,-5 -20,-5 -8,-23 -15,-28 -21,-25 -25,-26 -28,-25 -28,-21 -28,-17 z"
   id="path434"
   inkscape:connector-curvature="0"
   style="fill:#f2bf3f;stroke:none" />
         <path
   d="m 9848,14958 -13,3 -5,12 -5,5 -8,11 -5,7 16,10 5,-7 7,-10 5,-11 6,-7 -13,2 13,-2 v -8 l -3,-5 -8,-2 -5,5 z"
   id="path436"
   inkscape:connector-curvature="0"
   style="fill:#000000;stroke:none" />
         <path
   d="m 10018,15136 13,8 -7,-31 -18,-30 -26,-26 -28,-28 -30,-23 -28,-20 -26,-15 -20,-13 -10,15 20,13 26,15 28,21 30,22 28,23 21,26 17,25 8,26 13,7 -13,-7 2,5 6,2 5,-2 2,-5 z"
   id="path438"
   inkscape:connector-curvature="0"
   style="fill:#000000;stroke:none" />
         <path
   d="m 10428,14994 -5,-11 -43,-7 -51,10 -59,18 -61,25 -58,28 -54,28 -48,28 -31,23 11,15 30,-23 43,-28 54,-28 58,-28 62,-25 53,-18 51,-5 38,3 -5,-10 5,10 h 8 l 2,-5 v -8 l -5,-3 z"
   id="path440"
   inkscape:connector-curvature="0"
   style="fill:#000000;stroke:none" />
         <path
   d="m 10403,15050 7,-6 6,-12 5,-13 2,-13 5,-12 -15,-5 -5,12 -3,13 -5,13 -5,12 8,-5 -8,5 v 8 l 5,3 h 8 l 2,-6 z"
   id="path442"
   inkscape:connector-curvature="0"
   style="fill:#000000;stroke:none" />
         <path
   d="m 10062,15207 7,-7 18,-28 31,-31 40,-28 54,-25 53,-21 51,-12 49,-8 38,3 v -16 l -38,-2 -49,7 -56,13 -53,20 -54,26 -45,28 -36,35 -18,33 8,-7 -8,7 v 8 l 5,3 h 8 l 2,-5 z"
   id="path444"
   inkscape:connector-curvature="0"
   style="fill:#000000;stroke:none" />
         <path
   d="m 9988,15182 8,7 17,5 16,6 15,2 18,5 v -20 h -18 l -10,-3 -16,-5 -22,-5 7,8 -7,-8 -5,3 -3,5 3,5 5,2 z"
   id="path446"
   inkscape:connector-curvature="0"
   style="fill:#000000;stroke:none" />
         <path
   d="m 9812,14996 5,13 21,15 28,18 28,20 28,23 25,26 18,25 15,25 8,21 h 15 l -7,-26 -16,-30 -23,-26 -25,-25 -28,-28 -28,-20 -28,-18 -25,-15 5,12 -5,-12 h -8 l -3,5 v 5 l 5,5 z"
   id="path448"
   inkscape:connector-curvature="0"
   style="fill:#000000;stroke:none" />
         <path
   d="m 10354,13550 -7,2 -3,8 3,7 7,3 z"
   id="path450"
   inkscape:connector-curvature="0"
   style="fill:#000000;stroke:none" />
         <path
   d="m 10787,13728 -20,-21 -21,-18 -23,-15 -28,-15 -28,-15 -28,-16 -28,-12 -28,-13 -30,-10 -31,-10 -30,-11 -31,-7 -28,-5 -28,-5 -25,-5 h -26 v 20 h 26 25 l 28,5 28,5 26,8 30,10 31,10 30,10 28,13 28,13 28,15 28,15 23,15 23,16 21,17 20,16 z"
   id="path452"
   inkscape:connector-curvature="0"
   style="fill:#000000;stroke:none" />
         <path
   d="m 10777,13738 h 5 l 5,-3 3,-2 -3,-5 z"
   id="path454"
   inkscape:connector-curvature="0"
   style="fill:#000000;stroke:none" />
         <path
   d="m 9932,14778 v 7 l 5,3 h 8 l 2,-5 z"
   id="path456"
   inkscape:connector-curvature="0"
   style="fill:#000000;stroke:none" />
         <path
   d="m 9988,14666 -10,20 -15,31 -18,33 -13,28 15,5 13,-28 18,-33 15,-31 10,-20 z"
   id="path458"
   inkscape:connector-curvature="0"
   style="fill:#000000;stroke:none" />
         <path
   d="m 10003,14671 v -8 l -5,-2 h -5 l -5,5 z"
   id="path460"
   inkscape:connector-curvature="0"
   style="fill:#000000;stroke:none" />
         <path
   d="m 10003,15182 v 7 l 5,3 h 8 l 2,-5 z"
   id="path462"
   inkscape:connector-curvature="0"
   style="fill:#000000;stroke:none" />
         <path
   d="m 10105,14767 -23,56 -20,61 -16,66 -12,61 -10,59 -8,48 -8,41 -5,23 15,5 6,-28 7,-41 8,-48 10,-59 13,-61 15,-61 20,-61 23,-56 z"
   id="path464"
   inkscape:connector-curvature="0"
   style="fill:#000000;stroke:none" />
         <path
   d="m 10120,14772 v -7 l -5,-3 h -5 l -5,5 z"
   id="path466"
   inkscape:connector-curvature="0"
   style="fill:#000000;stroke:none" />
         <path
   d="m 10744,14683 -5,-5 -5,3 -5,5 v 8 z"
   id="path468"
   inkscape:connector-curvature="0"
   style="fill:#000000;stroke:none" />
         <path
   d="m 10897,15047 -8,-36 -15,-40 -18,-49 -21,-50 -25,-54 -23,-51 -23,-43 -20,-41 -15,11 20,35 23,43 23,51 25,54 21,51 17,48 16,41 7,30 z"
   id="path470"
   inkscape:connector-curvature="0"
   style="fill:#000000;stroke:none" />
         <path
   d="m 10881,15047 3,5 5,3 5,-3 3,-5 z"
   id="path472"
   inkscape:connector-curvature="0"
   style="fill:#000000;stroke:none" />
         <path
   d="m 10851,14752 -5,-5 -5,3 -6,5 v 7 z"
   id="path474"
   inkscape:connector-curvature="0"
   style="fill:#000000;stroke:none" />
         <path
   d="m 11011,15062 -15,-23 -21,-33 -22,-43 -23,-46 -23,-48 -21,-46 -20,-40 -15,-31 -16,10 16,26 20,40 20,46 23,48 23,46 23,43 21,39 20,22 z"
   id="path476"
   inkscape:connector-curvature="0"
   style="fill:#000000;stroke:none" />
         <path
   d="m 11001,15072 h 5 l 5,-2 3,-3 -3,-5 z"
   id="path478"
   inkscape:connector-curvature="0"
   style="fill:#000000;stroke:none" />
         <path
   d="m 10973,14686 -5,-5 -5,2 -5,6 v 7 z"
   id="path480"
   inkscape:connector-curvature="0"
   style="fill:#000000;stroke:none" />
         <path
   d="m 11054,14821 -10,-13 -10,-15 -10,-21 -13,-17 -10,-21 -10,-20 -10,-15 -8,-13 -15,10 7,13 10,15 11,15 10,21 12,23 11,15 10,20 10,13 z"
   id="path482"
   inkscape:connector-curvature="0"
   style="fill:#000000;stroke:none" />
         <path
   d="m 11039,14831 5,5 8,-3 2,-5 v -7 z"
   id="path484"
   inkscape:connector-curvature="0"
   style="fill:#000000;stroke:none" />
         <path
   d="m 10739,14401 18,3 17,2 16,5 17,6 21,10 18,12 17,18 13,21 13,-39 2,-30 -7,-26 -13,-20 -20,-13 -21,-10 -23,-5 -20,-2 -2,-18 -8,-13 -13,-10 -13,-5 -10,-3 -12,-2 h -8 l -8,-3 -12,-15 -13,-31 -8,-33 -5,-25 -2,-15 -6,-16 -5,-10 -10,-5 -7,8 -11,7 -7,8 -10,8 -11,48 -15,31 -15,22 -15,11 -8,5 -10,5 -10,5 -13,7 -13,8 -13,8 -10,10 -10,13 -8,-13 -12,-10 -16,-8 -17,-5 -21,-3 -20,-5 -18,-5 -18,-5 -23,-20 -7,-28 2,-31 10,-22 -10,-6 -7,-7 -8,-5 -10,-5 -15,10 -16,15 -15,18 -13,18 -12,23 -11,20 -5,23 v 20 l -25,13 -21,15 -17,13 -16,15 -12,15 -11,13 -5,15 v 10 l -12,8 -13,13 -13,15 -10,15 -10,21 -10,17 -5,21 -3,18 18,-6 20,-5 18,-10 20,-7 21,-11 20,-10 20,-7 23,-5 h 11 l 10,-3 h 10 l 13,-3 15,-2 13,-3 h 15 l 15,-2 28,-5 28,-5 28,-8 28,-8 26,-10 23,-12 20,-13 18,-18 h 12 l 13,-3 10,-7 5,-10 13,10 13,10 13,8 15,5 15,2 18,3 h 18 20 10 l 8,-3 h 13 10 13 12 13 z"
   id="path486"
   inkscape:connector-curvature="0"
   style="fill:#bfa572;stroke:none" />
         <path
   d="m 10810,14409 v 0 l -18,-5 -18,-5 -17,-3 -18,-2 v 15 l 18,2 17,3 13,5 18,5 v 0 0 h 8 l 2,-5 v -8 z"
   id="path488"
   inkscape:connector-curvature="0"
   style="fill:#000000;stroke:none" />
         <path
   d="m 10869,14475 h 15 l -13,-23 -20,-20 -18,-13 -23,-10 -5,15 18,10 18,13 15,15 13,18 h 15 -15 l 5,5 h 5 l 5,-2 v -8 z"
   id="path490"
   inkscape:connector-curvature="0"
   style="fill:#000000;stroke:none" />
         <path
   d="m 10777,14333 10,10 h 20 l 21,5 20,10 18,10 10,18 8,23 -3,30 -12,36 15,5 13,-41 2,-30 -8,-28 -15,-23 -23,-15 -20,-10 -26,-5 -20,-6 10,11 -10,-11 -8,3 -2,8 2,7 8,3 z"
   id="path492"
   inkscape:connector-curvature="0"
   style="fill:#000000;stroke:none" />
         <path
   d="m 10749,14294 v 0 l 10,6 13,7 5,10 v 16 h 20 l -5,-21 -10,-15 -13,-13 -15,-5 v 0 0 h -8 l -2,5 v 5 z"
   id="path494"
   inkscape:connector-curvature="0"
   style="fill:#000000;stroke:none" />
         <path
   d="m 10713,14287 h -2 l 10,2 h 8 l 12,3 8,2 5,-15 -13,-2 -12,-3 h -8 l -5,-2 h -3 z"
   id="path496"
   inkscape:connector-curvature="0"
   style="fill:#000000;stroke:none" />
         <path
   d="m 10667,14175 v 0 l 6,25 7,36 13,31 20,20 v -15 l -5,-11 -13,-30 -7,-31 -5,-25 v 0 z"
   id="path498"
   inkscape:connector-curvature="0"
   style="fill:#000000;stroke:none" />
         <path
   d="m 10657,14134 -5,3 5,2 3,8 5,13 2,15 h 16 l -3,-15 -5,-18 -8,-13 -15,-7 -5,2 5,-2 -5,2 -2,5 2,5 5,3 z"
   id="path500"
   inkscape:connector-curvature="0"
   style="fill:#000000;stroke:none" />
         <path
   d="m 10624,14160 -2,7 10,-7 7,-8 11,-8 7,-10 -10,-10 -8,5 -10,8 -7,7 -11,8 -2,8 2,-8 -5,5 3,5 5,5 h 8 z"
   id="path502"
   inkscape:connector-curvature="0"
   style="fill:#000000;stroke:none" />
         <path
   d="m 10566,14279 v 0 l 15,-12 18,-26 15,-30 10,-51 h -15 l -10,46 -16,30 -12,20 -16,8 v 0 z"
   id="path504"
   inkscape:connector-curvature="0"
   style="fill:#000000;stroke:none" />
         <path
   d="m 10466,14335 16,3 7,-13 11,-8 12,-7 13,-8 10,-8 10,-5 10,-5 11,-5 -11,-15 -5,5 -10,5 -10,5 -15,8 -13,7 -13,8 -10,13 -13,13 16,2 -16,-2 v 7 l 6,5 5,3 5,-5 z"
   id="path506"
   inkscape:connector-curvature="0"
   style="fill:#000000;stroke:none" />
         <path
   d="m 10342,14287 v 0 l 18,5 17,5 23,5 21,3 15,5 13,7 12,8 5,10 16,-5 -10,-15 -13,-13 -18,-8 -20,-5 -21,-2 -18,-5 -17,-5 -18,-5 v 0 z"
   id="path508"
   inkscape:connector-curvature="0"
   style="fill:#000000;stroke:none" />
         <path
   d="m 10321,14185 -2,-13 -10,28 -3,31 8,33 28,23 5,-15 -18,-18 -8,-23 3,-31 10,-17 -2,-13 2,13 v -8 l -2,-5 -8,-3 -5,5 z"
   id="path510"
   inkscape:connector-curvature="0"
   style="fill:#000000;stroke:none" />
         <path
   d="m 10296,14162 h -10 l 12,5 6,5 7,8 10,5 11,-15 -11,-5 -7,-8 -10,-5 -8,-5 h -10 10 -8 l -5,3 -2,7 5,5 z"
   id="path512"
   inkscape:connector-curvature="0"
   style="fill:#000000;stroke:none" />
         <path
   d="m 10207,14310 5,-8 v -20 l 5,-21 10,-20 13,-20 13,-18 12,-18 16,-13 15,-10 -10,-15 -16,10 -15,18 -18,18 -12,18 -13,25 -10,20 -5,26 v 20 l 5,-8 -5,8 2,5 5,3 5,-3 3,-5 z"
   id="path514"
   inkscape:connector-curvature="0"
   style="fill:#000000;stroke:none" />
         <path
   d="m 10102,14419 3,-8 v -10 l 5,-12 10,-11 10,-15 16,-13 18,-12 20,-16 23,-12 -5,-16 -28,13 -21,15 -17,13 -16,18 -15,15 -10,15 -5,18 v 10 l 2,-7 -2,7 2,6 5,2 5,-2 3,-6 z"
   id="path516"
   inkscape:connector-curvature="0"
   style="fill:#000000;stroke:none" />
         <path
   d="m 10021,14531 8,8 2,-18 5,-18 10,-18 11,-20 10,-13 10,-15 13,-10 12,-8 -10,-15 -12,7 -13,16 -15,15 -11,18 -10,20 -10,18 -5,23 -3,18 8,7 -10,-7 2,7 8,3 8,-3 2,-7 z"
   id="path518"
   inkscape:connector-curvature="0"
   style="fill:#000000;stroke:none" />
         <path
   d="m 10181,14470 v 0 l -25,5 -20,8 -21,10 -20,10 -21,8 -17,10 -21,5 -15,5 v 15 l 20,-5 21,-5 18,-10 20,-8 20,-10 21,-10 20,-8 20,-5 v 0 z"
   id="path520"
   inkscape:connector-curvature="0"
   style="fill:#000000;stroke:none" />
         <path
   d="m 10283,14457 v 0 l -15,3 h -15 l -13,2 -15,3 -13,2 h -10 l -10,3 h -11 v 15 h 11 l 10,-2 h 10 l 13,-3 15,-2 13,-3 h 15 l 15,-3 v 0 0 l 5,-2 3,-5 -3,-5 z"
   id="path522"
   inkscape:connector-curvature="0"
   style="fill:#000000;stroke:none" />
         <path
   d="m 10484,14378 -10,3 -15,15 -21,13 -20,13 -25,10 -28,7 -26,8 -28,5 -28,5 v 15 l 28,-5 28,-5 31,-7 28,-8 25,-10 26,-13 20,-13 20,-20 -10,3 10,-3 v -8 l -2,-5 -8,-2 -5,5 z"
   id="path524"
   inkscape:connector-curvature="0"
   style="fill:#000000;stroke:none" />
         <path
   d="m 10527,14361 -12,2 -5,8 -5,5 -11,2 h -10 l -5,16 h 15 l 16,-3 15,-10 5,-13 -13,3 13,-3 v -7 l -5,-3 h -5 l -5,5 z"
   id="path526"
   inkscape:connector-curvature="0"
   style="fill:#000000;stroke:none" />
         <path
   d="m 10647,14396 v 0 l -20,-2 -18,2 -18,-2 -15,-3 -13,-5 -10,-8 -13,-10 -13,-7 -10,10 13,12 13,11 15,7 18,5 15,3 18,2 18,3 20,-3 v 0 z"
   id="path528"
   inkscape:connector-curvature="0"
   style="fill:#000000;stroke:none" />
         <path
   d="m 10739,14394 v 0 l -13,-3 h -13 -12 -13 -10 l -13,3 -8,2 h -10 v 15 h 10 l 8,-2 13,2 h 10 13 12 13 l 13,-2 v 0 0 l 5,-3 2,-5 -2,-5 z"
   id="path530"
   inkscape:connector-curvature="0"
   style="fill:#000000;stroke:none" />
         <path
   d="m 10818,15273 -23,-28 -41,-33 -51,-30 -53,-33 -54,-28 -46,-28 -33,-26 -15,-17 -2,-11 v -15 -23 -25 -20 l 2,-23 v -23 -23 -15 -18 -15 l 3,-16 v -23 -22 -23 -21 -17 -18 -18 -18 -46 l -3,-43 -2,-35 -6,-31 v 53 l -2,56 -5,56 -8,56 -2,15 -3,16 -2,15 -3,15 -3,13 v 13 l -2,10 -3,13 -2,12 -5,16 -3,15 -2,12 -8,26 -5,25 -8,23 -7,23 -5,13 -3,13 -5,12 -5,13 -13,33 -13,25 -12,21 -11,12 -17,16 -21,12 -18,11 -17,10 -18,5 -15,5 -16,5 -12,3 -3,35 -3,36 -2,33 -3,18 -5,84 -7,119 -3,114 5,56 5,5 8,11 13,10 12,12 16,13 17,13 21,10 23,13 23,7 28,8 28,3 h 30 5 l 8,-3 h 8 7 l 5,-71 10,-84 21,-79 28,-56 20,61 18,64 15,61 10,48 h 21 l 18,-2 15,-8 15,-8 13,-7 13,-8 10,-5 7,-3 h 11 10 10 13 l 12,-2 h 13 l 10,-3 13,-2 25,-5 18,-8 13,-8 3,-10 -11,-63 -10,-112 -5,-122 z"
   id="path532"
   inkscape:connector-curvature="0"
   style="fill:#bfa572;stroke:none" />
         <path
   d="m 10494,15050 v 2 l 18,20 33,28 49,28 53,28 51,33 51,31 41,30 20,26 15,-5 -25,-31 -41,-35 -51,-31 -56,-33 -53,-28 -44,-28 -33,-23 -12,-15 v 3 z"
   id="path534"
   inkscape:connector-curvature="0"
   style="fill:#000000;stroke:none" />
         <path
   d="m 10489,14976 v 0 25 23 l 3,15 2,11 h 16 l -3,-11 3,-15 v -23 -25 0 0 l -3,-8 -7,-2 -8,2 z"
   id="path536"
   inkscape:connector-curvature="0"
   style="fill:#000000;stroke:none" />
         <path
   d="m 10492,14887 v 0 23 23 l -3,23 v 20 h 21 v -20 l 2,-23 v -23 -23 0 0 l -2,-8 -8,-2 -8,2 z"
   id="path538"
   inkscape:connector-curvature="0"
   style="fill:#000000;stroke:none" />
         <path
   d="m 10494,14823 h 3 l -3,16 -2,15 v 18 15 h 20 v -15 -18 l -2,-15 2,-16 h 3 -3 l -2,-5 -5,-2 -5,2 -3,5 z"
   id="path540"
   inkscape:connector-curvature="0"
   style="fill:#000000;stroke:none" />
         <path
   d="m 10494,14734 v 0 21 23 22 23 h 21 v -23 -22 -23 -21 0 0 l -3,-7 -7,-3 -8,3 z"
   id="path542"
   inkscape:connector-curvature="0"
   style="fill:#000000;stroke:none" />
         <path
   d="m 10494,14663 v 0 18 18 18 17 h 21 v -17 -18 -18 -18 0 0 l -3,-7 -7,-3 -8,3 z"
   id="path544"
   inkscape:connector-curvature="0"
   style="fill:#000000;stroke:none" />
         <path
   d="m 10502,14508 h -15 l 5,31 2,35 v 43 46 h 21 v -46 l -5,-43 -3,-35 -5,-31 h -15 15 l -2,-5 -6,-3 -5,3 -2,5 z"
   id="path546"
   inkscape:connector-curvature="0"
   style="fill:#000000;stroke:none" />
         <path
   d="m 10487,14729 v 0 l 7,-56 6,-56 5,-56 -3,-53 h -15 l -3,53 v 56 l -5,56 -7,56 v 0 z"
   id="path548"
   inkscape:connector-curvature="0"
   style="fill:#000000;stroke:none" />
         <path
   d="m 10477,14790 v 0 l 2,-15 3,-15 2,-16 3,-15 h -15 l -3,15 -3,16 -2,15 -3,15 v 0 z"
   id="path550"
   inkscape:connector-curvature="0"
   style="fill:#000000;stroke:none" />
         <path
   d="m 10469,14841 v -2 l 3,-13 2,-10 v -13 l 3,-13 h -16 l -2,13 v 13 l -3,10 -2,13 v -3 z"
   id="path552"
   inkscape:connector-curvature="0"
   style="fill:#000000;stroke:none" />
         <path
   d="m 10456,14897 v -3 l 3,-12 2,-15 5,-13 3,-13 -15,-5 -3,13 -5,18 -2,15 -3,12 v -2 z"
   id="path554"
   inkscape:connector-curvature="0"
   style="fill:#000000;stroke:none" />
         <path
   d="m 10428,14994 v 0 l 8,-23 8,-23 5,-28 7,-23 -15,-5 -8,28 -5,23 -7,23 -8,23 v 0 z"
   id="path556"
   inkscape:connector-curvature="0"
   style="fill:#000000;stroke:none" />
         <path
   d="m 10410,15044 v 0 l 6,-12 5,-13 2,-13 5,-12 -15,-5 -5,12 -3,13 -5,13 -5,12 v 0 z"
   id="path558"
   inkscape:connector-curvature="0"
   style="fill:#000000;stroke:none" />
         <path
   d="m 10360,15141 v -2 l 12,-13 13,-23 13,-25 12,-34 -15,-5 -13,33 -12,26 -13,18 -8,12 v -2 z"
   id="path560"
   inkscape:connector-curvature="0"
   style="fill:#000000;stroke:none" />
         <path
   d="m 10230,15200 -10,7 15,-2 15,-5 15,-6 18,-5 18,-10 20,-10 21,-13 18,-15 -11,-15 -17,15 -21,13 -15,10 -18,10 -18,5 -15,5 -15,5 -10,3 -11,8 11,-8 -6,2 -2,6 2,5 6,2 z"
   id="path562"
   inkscape:connector-curvature="0"
   style="fill:#000000;stroke:none" />
         <path
   d="m 10217,15322 h 3 v -18 l 2,-33 3,-36 5,-35 h -21 v 35 l -2,36 -3,33 -5,18 h 3 -3 l 3,7 7,3 8,-3 3,-7 z"
   id="path564"
   inkscape:connector-curvature="0"
   style="fill:#000000;stroke:none" />
         <path
   d="m 10204,15690 v 0 -51 -114 l 8,-119 5,-84 h -15 l -5,84 -8,119 -5,114 10,61 v 0 z"
   id="path566"
   inkscape:connector-curvature="0"
   style="fill:#000000;stroke:none" />
         <path
   d="m 10242,15726 v 0 l -12,-10 -13,-10 -5,-11 -8,-5 -10,10 3,6 10,10 13,10 12,15 v 0 0 h 8 l 5,-5 3,-5 z"
   id="path568"
   inkscape:connector-curvature="0"
   style="fill:#000000;stroke:none" />
         <path
   d="m 10423,15789 v 3 l -30,-3 h -28 l -26,-7 -23,-8 -23,-13 -17,-10 -18,-12 -16,-13 -10,15 16,13 17,13 23,10 23,12 23,8 31,8 28,5 30,-3 v 3 -3 l 5,-2 3,-5 -3,-6 -5,-2 z"
   id="path570"
   inkscape:connector-curvature="0"
   style="fill:#000000;stroke:none" />
         <path
   d="m 10441,15797 10,-10 h -7 l -8,2 -8,3 -5,-3 v 21 l 5,-3 8,-2 8,2 h 7 l 10,-10 -10,10 8,-2 2,-8 -2,-8 -8,-2 z"
   id="path572"
   inkscape:connector-curvature="0"
   style="fill:#000000;stroke:none" />
         <path
   d="m 10522,15505 -12,-3 -31,59 -20,81 -10,84 -8,71 h 20 l 3,-71 10,-84 20,-76 26,-54 -13,-2 13,2 2,-5 -2,-5 -5,-2 -5,2 z"
   id="path574"
   inkscape:connector-curvature="0"
   style="fill:#000000;stroke:none" />
         <path
   d="m 10578,15733 8,8 -10,-48 -15,-64 -18,-63 -21,-61 -15,5 20,61 18,63 16,59 10,48 7,8 -7,-8 2,5 5,3 5,-3 3,-5 z"
   id="path576"
   inkscape:connector-curvature="0"
   style="fill:#000000;stroke:none" />
         <path
   d="m 10690,15690 v 0 l -10,5 -10,5 -15,8 -10,8 -16,7 -15,8 -15,2 h -21 v 16 h 21 l 20,-3 15,-7 16,-8 15,-8 10,-7 10,-5 h 5 v 0 z"
   id="path578"
   inkscape:connector-curvature="0"
   style="fill:#000000;stroke:none" />
         <path
   d="m 10782,15685 v 0 l -13,3 -10,2 h -13 l -12,3 -13,-3 h -10 -10 -11 v 21 h 11 10 10 l 13,-3 12,-2 h 13 l 10,-3 13,-3 v 0 z"
   id="path580"
   inkscape:connector-curvature="0"
   style="fill:#000000;stroke:none" />
         <path
   d="m 10833,15665 v -3 l -3,5 -7,5 -18,8 -23,5 v 15 l 28,-5 18,-7 18,-10 2,-16 v -2 z"
   id="path582"
   inkscape:connector-curvature="0"
   style="fill:#000000;stroke:none" />
         <path
   d="m 10810,15276 v -3 l -5,92 8,122 10,112 10,66 15,-5 -10,-61 -10,-112 -3,-122 v -92 -2 2 l -2,-5 -5,-2 -5,2 -3,5 z"
   id="path584"
   inkscape:connector-curvature="0"
   style="fill:#000000;stroke:none" />
         <path
   d="m 10354,16138 13,-59 18,-96 23,-105 15,-78 -23,5 -25,5 -26,2 h -28 l -25,-2 -23,-3 -25,-5 -21,-5 -10,79 -13,89 -12,84 -11,68 11,8 15,10 23,8 23,7 25,6 h 28 l 26,-6 z"
   id="path586"
   inkscape:connector-curvature="0"
   style="fill:#ff4c00;stroke:none" />
         <path
   d="m 10426,15807 -10,-7 -16,78 -23,105 -17,96 -13,59 h 15 l 13,-59 18,-96 23,-105 15,-78 -10,-8 10,8 -3,-6 -5,-2 -5,2 -2,6 z"
   id="path588"
   inkscape:connector-curvature="0"
   style="fill:#000000;stroke:none" />
         <path
   d="m 10235,15797 -10,8 23,5 25,5 23,2 25,5 h 28 l 26,-5 25,-5 26,-5 -5,-15 -21,5 -25,5 h -26 -28 -25 l -23,-2 -25,-6 -18,-5 -10,8 10,-8 h -8 l -2,5 v 6 l 5,5 z"
   id="path590"
   inkscape:connector-curvature="0"
   style="fill:#000000;stroke:none" />
         <path
   d="m 10186,16112 3,5 10,-68 13,-84 13,-89 10,-79 h -15 l -11,79 -12,89 -13,84 -10,68 2,5 -2,-5 2,5 5,3 5,-3 3,-5 z"
   id="path592"
   inkscape:connector-curvature="0"
   style="fill:#000000;stroke:none" />
         <path
   d="m 10347,16138 2,-8 -20,13 -23,5 h -28 l -23,-5 -23,-8 -23,-7 -12,-11 -11,-5 -10,10 10,11 18,10 23,7 23,8 28,5 h 28 l 28,-5 26,-13 2,-7 -2,7 5,-5 -3,-7 -5,-3 h -8 z"
   id="path594"
   inkscape:connector-curvature="0"
   style="fill:#000000;stroke:none" />
         <path
   d="m 10800,16100 -5,-54 -5,-94 -5,-109 -3,-102 -18,3 -20,7 -26,8 -28,10 -30,10 -26,13 -25,10 -20,10 17,94 18,105 15,89 8,58 h 8 18 l 22,-5 26,-5 28,-10 23,-10 18,-13 z"
   id="path596"
   inkscape:connector-curvature="0"
   style="fill:#ff4c00;stroke:none" />
         <path
   d="m 10782,15749 -8,-8 3,102 5,109 5,94 5,54 h 15 l -5,-54 -5,-94 -5,-109 -2,-102 -8,-8 10,8 -2,-8 -8,-2 -8,2 -2,8 z"
   id="path598"
   inkscape:connector-curvature="0"
   style="fill:#000000;stroke:none" />
         <path
   d="m 10596,15812 -5,8 20,-10 26,-10 25,-13 31,-10 28,-10 25,-8 21,-8 15,-2 v -16 l -20,3 -21,8 -25,7 -28,10 -31,11 -25,12 -26,10 -20,11 -5,7 5,-7 -5,2 v 8 l 2,5 h 8 z"
   id="path600"
   inkscape:connector-curvature="0"
   style="fill:#000000;stroke:none" />
         <path
   d="m 10652,16150 3,8 -8,-58 -15,-89 -18,-105 -18,-94 h -15 l 18,94 18,105 15,89 7,58 3,8 -3,-8 3,5 5,3 5,-3 3,-5 z"
   id="path602"
   inkscape:connector-curvature="0"
   style="fill:#000000;stroke:none" />
         <path
   d="m 10792,16100 v -3 l -7,13 -16,10 -23,10 -28,10 -23,5 -22,5 -18,-2 -3,2 -10,16 13,2 18,-2 22,-5 28,-5 28,-11 23,-10 21,-15 12,-18 v -2 2 -8 l -5,-2 h -5 l -5,5 z"
   id="path604"
   inkscape:connector-curvature="0"
   style="fill:#000000;stroke:none" />
         <path
   d="m 10354,16138 -22,12 -26,6 h -28 l -25,-6 -23,-7 -23,-8 -15,-10 -11,-8 -7,3 -13,5 -13,3 -15,5 -15,5 -13,5 -10,2 -8,3 -10,5 -5,10 -3,10 v 16 l -20,2 -18,5 -15,10 -15,13 -10,13 -8,15 -3,13 -2,12 h 15 28 l 36,-2 h 40 39 l 33,-3 h 25 8 l 30,-45 38,38 72,-5 v -21 l 2,-33 5,-33 z"
   id="path606"
   inkscape:connector-curvature="0"
   style="fill:#000000;stroke:none" />
         <path
   d="m 10184,16125 -8,-3 10,11 18,10 23,7 23,8 28,5 h 28 l 28,-5 26,-13 -11,-15 -20,13 -23,5 h -28 l -23,-5 -23,-8 -23,-7 -12,-11 -11,-5 -7,-2 7,2 -5,-2 -2,2 -3,5 v 5 z"
   id="path608"
   inkscape:connector-curvature="0"
   style="fill:#000000;stroke:none" />
         <path
   d="m 10090,16156 h -3 l 10,-3 11,-3 12,-5 16,-5 15,-5 13,-2 12,-5 8,-3 -5,-15 -8,2 -13,5 -12,3 -16,5 -15,5 -13,5 -10,3 -5,2 h -2 z"
   id="path610"
   inkscape:connector-curvature="0"
   style="fill:#000000;stroke:none" />
         <path
   d="m 10069,16199 8,-10 v -16 l 3,-7 2,-8 8,-2 -5,-16 -13,8 -8,13 -2,12 v 16 l 7,-11 -7,11 2,5 5,2 5,-2 3,-5 z"
   id="path612"
   inkscape:connector-curvature="0"
   style="fill:#000000;stroke:none" />
         <path
   d="m 9978,16262 10,10 v -12 l 3,-10 7,-13 8,-13 15,-10 13,-10 15,-5 h 20 v -21 l -20,5 -20,6 -18,10 -15,15 -13,13 -8,17 -2,16 -5,12 10,11 -10,-11 2,8 8,3 7,-3 3,-8 z"
   id="path614"
   inkscape:connector-curvature="0"
   style="fill:#000000;stroke:none" />
         <path
   d="m 10194,16262 8,-2 -8,-3 h -25 l -33,3 h -39 -40 l -36,2 h -28 -15 v 21 h 15 28 l 36,-3 h 40 39 l 33,-2 h 25 l 8,-3 7,-3 -7,6 7,-3 3,-8 -3,-7 -7,-3 z"
   id="path616"
   inkscape:connector-curvature="0"
   style="fill:#000000;stroke:none" />
         <path
   d="m 10237,16217 h -12 l -31,45 15,10 31,-45 h -13 13 v -8 l -3,-5 -7,-3 -5,6 z"
   id="path618"
   inkscape:connector-curvature="0"
   style="fill:#000000;stroke:none" />
         <path
   d="m 10270,16252 6,3 -39,-38 -10,10 38,38 5,2 -5,-2 h 5 l 6,-3 2,-2 -2,-5 z"
   id="path620"
   inkscape:connector-curvature="0"
   style="fill:#000000;stroke:none" />
         <path
   d="m 10332,16255 10,-8 -72,5 v 15 l 72,-5 10,-7 -10,7 5,-2 2,-5 -2,-5 -5,-3 z"
   id="path622"
   inkscape:connector-curvature="0"
   style="fill:#000000;stroke:none" />
         <path
   d="m 10360,16145 -13,-10 -5,33 -5,33 -5,33 v 21 h 20 v -21 -33 l 5,-33 5,-28 -13,-10 13,10 v -7 l -5,-3 h -5 l -5,5 z"
   id="path624"
   inkscape:connector-curvature="0"
   style="fill:#000000;stroke:none" />
         <path
   d="m 10800,16100 7,15 18,15 26,13 28,15 28,13 28,10 25,10 18,8 23,12 13,18 5,21 2,20 h -208 l -46,-43 -28,48 h -10 l -16,-3 h -18 l -22,-2 -23,-3 -21,-5 -18,-2 -12,-3 2,-18 5,-17 5,-18 8,-15 8,-11 7,-7 5,-8 8,-5 h 8 18 l 22,-5 26,-5 28,-10 23,-10 18,-13 z"
   id="path626"
   inkscape:connector-curvature="0"
   style="fill:#000000;stroke:none" />
         <path
   d="m 10981,16191 v 0 l -18,-8 -26,-10 -28,-10 -28,-13 -28,-15 -23,-13 -15,-12 -8,-10 h -15 l 8,20 20,18 28,12 28,16 28,12 28,11 26,10 17,7 v 0 z"
   id="path628"
   inkscape:connector-curvature="0"
   style="fill:#000000;stroke:none" />
         <path
   d="m 11021,16280 10,-10 -5,-20 -5,-23 -15,-23 -25,-13 -6,15 21,13 10,13 5,18 v 20 l 10,-10 -10,10 3,8 7,2 8,-2 2,-8 z"
   id="path630"
   inkscape:connector-curvature="0"
   style="fill:#000000;stroke:none" />
         <path
   d="m 10807,16275 6,5 h 208 v -20 h -208 l 5,5 -5,-5 -8,2 -3,8 3,8 8,2 z"
   id="path632"
   inkscape:connector-curvature="0"
   style="fill:#000000;stroke:none" />
         <path
   d="m 10774,16232 h -12 l 45,43 11,-10 -46,-43 h -13 13 l -5,-3 -3,3 -2,5 v 5 z"
   id="path634"
   inkscape:connector-curvature="0"
   style="fill:#000000;stroke:none" />
         <path
   d="m 10739,16285 7,-5 28,-48 -15,-10 -28,48 8,-5 -8,5 v 8 l 5,5 5,2 5,-5 z"
   id="path636"
   inkscape:connector-curvature="0"
   style="fill:#000000;stroke:none" />
         <path
   d="m 10591,16257 5,8 15,2 18,3 21,5 23,3 22,2 h 18 l 16,3 10,2 v -20 l -10,2 -16,-2 h -18 l -22,-3 -23,-2 -21,-5 -18,-3 -10,-2 5,7 -5,-7 h -7 l -3,5 v 5 l 5,5 z"
   id="path638"
   inkscape:connector-curvature="0"
   style="fill:#000000;stroke:none" />
         <path
   d="m 10611,16183 v 3 l -7,15 -5,18 -5,20 -3,18 h 15 l 3,-18 5,-15 5,-18 8,-15 v 3 -3 -8 l -5,-2 h -5 l -6,5 z"
   id="path640"
   inkscape:connector-curvature="0"
   style="fill:#000000;stroke:none" />
         <path
   d="m 10652,16150 h -7 l -11,8 -7,8 -8,7 -8,10 16,11 7,-11 8,-7 3,-8 5,-2 h -8 8 l 5,-5 v -5 l -3,-6 h -7 z"
   id="path642"
   inkscape:connector-curvature="0"
   style="fill:#000000;stroke:none" />
         <path
   d="m 10807,16100 -15,-3 -7,13 -16,10 -23,10 -28,10 -23,5 -22,5 -18,-2 -3,2 -10,16 13,2 18,-2 22,-5 28,-5 28,-11 23,-10 21,-15 12,-18 -15,-2 15,2 v -8 l -5,-2 h -5 l -5,5 z"
   id="path644"
   inkscape:connector-curvature="0"
   style="fill:#000000;stroke:none" />
         <path
   d="m 10482,14386 h 12 l 13,-3 10,-7 5,-10 v -23 l -7,-18 -15,-5 -26,13 -13,15 v 18 l 8,12 z"
   id="path646"
   inkscape:connector-curvature="0"
   style="fill:#8c5900;stroke:none" />
         <path
   d="m 10515,14366 v -3 l -5,8 -5,5 -11,2 h -10 l -5,16 h 15 l 16,-3 15,-10 5,-13 v -2 2 -7 l -5,-3 h -5 l -5,5 z"
   id="path648"
   inkscape:connector-curvature="0"
   style="fill:#000000;stroke:none" />
         <path
   d="m 10479,14340 v 0 l 21,-12 10,2 5,13 v 23 h 15 v -23 l -10,-23 -20,-8 -31,13 v 0 z"
   id="path650"
   inkscape:connector-curvature="0"
   style="fill:#000000;stroke:none" />
         <path
   d="m 10484,14378 v 0 l -10,-5 -5,-7 v -16 l 10,-10 -10,-15 -15,20 v 21 l 10,17 15,11 v 0 0 h 8 l 2,-5 v -8 z"
   id="path652"
   inkscape:connector-curvature="0"
   style="fill:#000000;stroke:none" />
         <path
   d="m 10713,14279 8,3 h 8 l 12,2 10,3 -12,13 -13,12 -15,13 -16,10 -20,8 -25,5 h -31 l -36,-3 26,-5 20,-5 18,-5 18,-8 15,-7 13,-10 10,-11 z"
   id="path654"
   inkscape:connector-curvature="0"
   style="fill:#8c5900;stroke:none" />
         <path
   d="m 10757,14292 -3,-13 -13,-2 -12,-3 h -8 l -5,-2 -5,15 10,2 h 8 l 12,3 8,2 -3,-12 3,12 h 8 l 2,-5 v -7 l -5,-3 z"
   id="path656"
   inkscape:connector-curvature="0"
   style="fill:#000000;stroke:none" />
         <path
   d="m 10583,14338 v 15 l 36,5 31,-2 28,-6 20,-7 18,-10 15,-16 13,-12 13,-13 -11,-10 -12,12 -13,13 -15,10 -13,11 -20,7 -23,5 -31,-2 h -36 v 15 -15 l -5,2 -2,5 2,5 5,3 z"
   id="path658"
   inkscape:connector-curvature="0"
   style="fill:#000000;stroke:none" />
         <path
   d="m 10716,14272 -10,2 -11,15 -7,11 -13,7 -13,8 -17,7 -18,6 -18,5 -26,5 v 15 l 26,-5 23,-5 18,-5 17,-8 18,-8 13,-12 13,-10 10,-16 -10,3 10,-3 v -7 l -3,-5 -7,-3 -5,5 z"
   id="path660"
   inkscape:connector-curvature="0"
   style="fill:#000000;stroke:none" />
         <path
   d="m 10583,14310 6,-8 12,-15 13,-18 5,-13 3,16 v 17 l -13,13 z"
   id="path662"
   inkscape:connector-curvature="0"
   style="fill:#8c5900;stroke:none" />
         <path
   d="m 10627,14256 h -18 l -3,8 -12,18 -13,15 -5,8 15,10 5,-8 13,-15 13,-18 7,-18 h -18 18 l -2,-7 -8,-3 -8,3 -2,7 z"
   id="path664"
   inkscape:connector-curvature="0"
   style="fill:#000000;stroke:none" />
         <path
   d="m 10576,14305 7,12 28,-7 18,-18 v -20 l -2,-16 h -16 l 3,16 v 15 l -8,7 -23,8 8,13 -8,-15 -7,2 -3,8 3,7 7,3 z"
   id="path666"
   inkscape:connector-curvature="0"
   style="fill:#000000;stroke:none" />
         <path
   d="m 10212,14419 2,-15 6,-15 5,-13 5,-13 10,10 13,13 15,13 13,5 -21,2 -18,3 -17,5 z"
   id="path668"
   inkscape:connector-curvature="0"
   style="fill:#8c5900;stroke:none" />
         <path
   d="m 10237,14358 -15,3 -5,12 -5,13 -5,18 -5,15 h 20 v -15 l 5,-13 5,-13 5,-12 -15,2 15,-2 v -8 l -5,-2 h -5 l -5,5 z"
   id="path670"
   inkscape:connector-curvature="0"
   style="fill:#000000;stroke:none" />
         <path
   d="m 10281,14414 v -20 l -8,-3 -15,-10 -13,-13 -8,-10 -15,10 13,10 13,13 15,15 18,8 v -20 20 l 7,-3 3,-7 -3,-8 -7,-2 z"
   id="path672"
   inkscape:connector-curvature="0"
   style="fill:#000000;stroke:none" />
         <path
   d="m 10202,14419 12,8 13,-5 15,-5 18,-3 h 21 v -20 l -21,5 -18,2 -20,5 -13,5 13,8 -13,-8 -5,3 v 8 l 3,5 h 7 z"
   id="path674"
   inkscape:connector-curvature="0"
   style="fill:#000000;stroke:none" />
         <path
   d="m 10255,14322 33,-33 3,3 7,10 13,13 15,15 18,15 21,13 20,13 20,7 -23,-5 -22,-7 -21,-8 -20,-8 -18,-7 -18,-8 -15,-7 z"
   id="path676"
   inkscape:connector-curvature="0"
   style="fill:#8c5900;stroke:none" />
         <path
   d="m 10296,14284 h -13 l -33,33 10,11 33,-34 h -12 12 l 3,-5 -3,-5 -5,-2 -5,2 z"
   id="path678"
   inkscape:connector-curvature="0"
   style="fill:#000000;stroke:none" />
         <path
   d="m 10405,14386 v -15 l -17,-8 -18,-13 -21,-12 -17,-13 -16,-15 -12,-13 -6,-10 -2,-3 -15,10 2,3 10,10 13,13 15,15 18,18 21,13 22,12 23,8 v -15 15 l 5,-3 3,-5 -3,-5 -5,-2 z"
   id="path680"
   inkscape:connector-curvature="0"
   style="fill:#000000;stroke:none" />
         <path
   d="m 10250,14317 3,13 12,5 16,8 17,7 18,8 21,8 20,7 23,8 25,5 v -15 l -20,-5 -23,-8 -20,-8 -21,-7 -17,-8 -18,-7 -16,-8 -12,-5 2,13 -2,-13 h -8 l -2,5 v 5 l 5,5 z"
   id="path682"
   inkscape:connector-curvature="0"
   style="fill:#000000;stroke:none" />
         <path
   d="m 10423,15800 h -30 l -28,-3 -28,-8 -23,-7 -23,-13 -21,-10 -17,-13 -16,-13 -2,11 -3,12 -2,21 -3,20 21,5 25,5 23,3 25,2 h 28 l 26,-2 25,-5 z"
   id="path684"
   inkscape:connector-curvature="0"
   style="fill:#8c5900;stroke:none" />
         <path
   d="m 10245,15733 -13,8 16,13 17,13 23,10 23,12 23,8 31,8 28,5 30,-3 v -15 l -30,-3 h -28 l -26,-7 -23,-8 -23,-13 -17,-10 -18,-12 -16,-13 -12,7 12,-7 h -7 l -5,2 -3,8 5,5 z"
   id="path686"
   inkscape:connector-curvature="0"
   style="fill:#000000;stroke:none" />
         <path
   d="m 10230,15789 5,8 2,-20 3,-21 2,-12 3,-11 h -15 l -3,11 -2,12 -3,21 -2,20 5,8 -5,-8 2,5 5,3 5,-3 3,-5 z"
   id="path688"
   inkscape:connector-curvature="0"
   style="fill:#000000;stroke:none" />
         <path
   d="m 10423,15807 -2,-15 -21,5 -25,5 h -26 -28 -25 l -23,-2 -25,-6 -18,-5 -5,16 23,5 25,5 23,2 25,5 h 28 l 26,-5 25,-5 26,-5 -3,-15 3,15 5,-5 v -5 l -3,-5 h -7 z"
   id="path690"
   inkscape:connector-curvature="0"
   style="fill:#000000;stroke:none" />
         <path
   d="m 10782,15741 v -13 -12 -10 -13 l -13,2 -10,3 h -13 l -12,2 h -13 -10 -10 -11 l -7,3 -10,5 -13,8 -13,7 -15,8 -15,8 -18,2 h -21 l 3,13 2,18 3,17 3,23 20,-10 25,-10 26,-13 30,-10 28,-10 26,-8 20,-7 z"
   id="path692"
   inkscape:connector-curvature="0"
   style="fill:#8c5900;stroke:none" />
         <path
   d="m 10782,15700 -10,-7 v 13 10 12 13 h 20 v -13 -12 -10 -13 l -10,-8 10,8 -2,-8 -8,-2 -8,2 -2,8 z"
   id="path694"
   inkscape:connector-curvature="0"
   style="fill:#000000;stroke:none" />
         <path
   d="m 10690,15711 v 0 h 11 10 10 l 13,-3 12,-2 h 13 l 10,-3 13,-3 v -15 l -13,3 -10,2 h -13 l -12,3 -13,-3 h -10 -10 -11 v 0 z"
   id="path696"
   inkscape:connector-curvature="0"
   style="fill:#000000;stroke:none" />
         <path
   d="m 10586,15741 -8,8 h 21 l 20,-3 15,-7 16,-8 15,-8 10,-7 10,-5 h 5 v -21 l -10,5 -10,5 -15,8 -10,8 -16,7 -15,8 -15,2 h -21 l -7,8 7,-8 -5,3 -2,5 2,5 5,3 z"
   id="path698"
   inkscape:connector-curvature="0"
   style="fill:#000000;stroke:none" />
         <path
   d="m 10586,15805 10,7 -2,-23 -3,-17 -2,-18 -3,-13 h -15 l 2,13 3,18 2,17 3,23 10,8 -10,-8 2,5 6,3 5,-3 2,-5 z"
   id="path700"
   inkscape:connector-curvature="0"
   style="fill:#000000;stroke:none" />
         <path
   d="m 10772,15741 10,-8 -20,3 -21,8 -25,7 -28,10 -31,11 -25,12 -26,10 -20,11 5,15 20,-10 26,-10 25,-13 31,-10 28,-10 25,-8 21,-8 15,-2 10,-8 -10,8 5,-3 3,-5 -3,-5 -5,-3 z"
   id="path702"
   inkscape:connector-curvature="0"
   style="fill:#000000;stroke:none" />
        </g>
       </g>
      </g>
     </g>
    </g>
   </g>
  </g>
 </g>
</svg>