<?xml version="1.0" encoding="UTF-8" standalone="no"?>
<svg
   xmlns:ooo="http://xml.openoffice.org/svg/export"
   xmlns:dc="http://purl.org/dc/elements/1.1/"
   xmlns:cc="http://creativecommons.org/ns#"
   xmlns:rdf="http://www.w3.org/1999/02/22-rdf-syntax-ns#"
   xmlns:svg="http://www.w3.org/2000/svg"
   xmlns="http://www.w3.org/2000/svg"
   xmlns:sodipodi="http://sodipodi.sourceforge.net/DTD/sodipodi-0.dtd"
   xmlns:inkscape="http://www.inkscape.org/namespaces/inkscape"
   version="1.2"
   width="14.94mm"
   height="28.24mm"
   viewBox="0 0 1494 2824"
   preserveAspectRatio="xMidYMid"
   xml:space="preserve"
   id="svg489"
   sodipodi:docname="people2.svg"
   style="fill-rule:evenodd;stroke-width:28.22200012;stroke-linejoin:round"
   inkscape:version="0.92.5 (2060ec1f9f, 2020-04-08)"><metadata
   id="metadata493"><rdf:RDF><cc:Work
       rdf:about=""><dc:format>image/svg+xml</dc:format><dc:type
         rdf:resource="http://purl.org/dc/dcmitype/StillImage" /></cc:Work></rdf:RDF></metadata><sodipodi:namedview
   pagecolor="#ffffff"
   bordercolor="#666666"
   borderopacity="1"
   objecttolerance="10"
   gridtolerance="10"
   guidetolerance="10"
   inkscape:pageopacity="0"
   inkscape:pageshadow="2"
   inkscape:window-width="664"
   inkscape:window-height="487"
   id="namedview491"
   showgrid="false"
   inkscape:zoom="0.2102413"
   inkscape:cx="28.233072"
   inkscape:cy="53.366928"
   inkscape:window-x="0"
   inkscape:window-y="0"
   inkscape:window-maximized="0"
   inkscape:current-layer="svg489" />
 <defs
   class="ClipPathGroup"
   id="defs8">
  <clipPath
   id="presentation_clip_path"
   clipPathUnits="userSpaceOnUse">
   <rect
   x="0"
   y="0"
   width="21000"
   height="29700"
   id="rect2" />
  </clipPath>
  <clipPath
   id="presentation_clip_path_shrink"
   clipPathUnits="userSpaceOnUse">
   <rect
   x="21"
   y="29"
   width="20958"
   height="29641"
   id="rect5" />
  </clipPath>
 </defs>
 <defs
   class="TextShapeIndex"
   id="defs12">
  <g
   ooo:slide="id1"
   ooo:id-list="id3"
   id="g10" />
 </defs>
 <defs
   class="EmbeddedBulletChars"
   id="defs44">
  <g
   id="bullet-char-template-57356"
   transform="matrix(4.8828125e-4,0,0,-4.8828125e-4,0,0)">
   <path
   d="M 580,1141 1163,571 580,0 -4,571 Z"
   id="path14"
   inkscape:connector-curvature="0" />
  </g>
  <g
   id="bullet-char-template-57354"
   transform="matrix(4.8828125e-4,0,0,-4.8828125e-4,0,0)">
   <path
   d="M 8,1128 H 1137 V 0 H 8 Z"
   id="path17"
   inkscape:connector-curvature="0" />
  </g>
  <g
   id="bullet-char-template-10146"
   transform="matrix(4.8828125e-4,0,0,-4.8828125e-4,0,0)">
   <path
   d="M 174,0 602,739 174,1481 1456,739 Z M 1358,739 309,1346 659,739 Z"
   id="path20"
   inkscape:connector-curvature="0" />
  </g>
  <g
   id="bullet-char-template-10132"
   transform="matrix(4.8828125e-4,0,0,-4.8828125e-4,0,0)">
   <path
   d="M 2015,739 1276,0 H 717 l 543,543 H 174 v 393 h 1086 l -543,545 h 557 z"
   id="path23"
   inkscape:connector-curvature="0" />
  </g>
  <g
   id="bullet-char-template-10007"
   transform="matrix(4.8828125e-4,0,0,-4.8828125e-4,0,0)">
   <path
   d="m 0,-2 c -7,16 -16,29 -25,39 l 381,530 c -94,256 -141,385 -141,387 0,25 13,38 40,38 9,0 21,-2 34,-5 21,4 42,12 65,25 l 27,-13 111,-251 280,301 64,-25 24,25 c 21,-10 41,-24 62,-43 C 886,937 835,863 770,784 769,783 710,716 594,584 L 774,223 c 0,-27 -21,-55 -63,-84 l 16,-20 C 717,90 699,76 672,76 641,76 570,178 457,381 L 164,-76 c -22,-34 -53,-51 -92,-51 -42,0 -63,17 -64,51 -7,9 -10,24 -10,44 0,9 1,19 2,30 z"
   id="path26"
   inkscape:connector-curvature="0" />
  </g>
  <g
   id="bullet-char-template-10004"
   transform="matrix(4.8828125e-4,0,0,-4.8828125e-4,0,0)">
   <path
   d="M 285,-33 C 182,-33 111,30 74,156 52,228 41,333 41,471 c 0,78 14,145 41,201 34,71 87,106 158,106 53,0 88,-31 106,-94 l 23,-176 c 8,-64 28,-97 59,-98 l 735,706 c 11,11 33,17 66,17 42,0 63,-15 63,-46 V 965 c 0,-36 -10,-64 -30,-84 L 442,47 C 390,-6 338,-33 285,-33 Z"
   id="path29"
   inkscape:connector-curvature="0" />
  </g>
  <g
   id="bullet-char-template-9679"
   transform="matrix(4.8828125e-4,0,0,-4.8828125e-4,0,0)">
   <path
   d="M 813,0 C 632,0 489,54 383,161 276,268 223,411 223,592 c 0,181 53,324 160,431 106,107 249,161 430,161 179,0 323,-54 432,-161 108,-107 162,-251 162,-431 0,-180 -54,-324 -162,-431 C 1136,54 992,0 813,0 Z"
   id="path32"
   inkscape:connector-curvature="0" />
  </g>
  <g
   id="bullet-char-template-8226"
   transform="matrix(4.8828125e-4,0,0,-4.8828125e-4,0,0)">
   <path
   d="m 346,457 c -73,0 -137,26 -191,78 -54,51 -81,114 -81,188 0,73 27,136 81,188 54,52 118,78 191,78 73,0 134,-26 185,-79 51,-51 77,-114 77,-187 0,-75 -25,-137 -76,-188 -50,-52 -112,-78 -186,-78 z"
   id="path35"
   inkscape:connector-curvature="0" />
  </g>
  <g
   id="bullet-char-template-8211"
   transform="matrix(4.8828125e-4,0,0,-4.8828125e-4,0,0)">
   <path
   d="M -4,459 H 1135 V 606 H -4 Z"
   id="path38"
   inkscape:connector-curvature="0" />
  </g>
  <g
   id="bullet-char-template-61548"
   transform="matrix(4.8828125e-4,0,0,-4.8828125e-4,0,0)">
   <path
   d="m 173,740 c 0,163 58,303 173,419 116,115 255,173 419,173 163,0 302,-58 418,-173 116,-116 174,-256 174,-419 0,-163 -58,-303 -174,-418 C 1067,206 928,148 765,148 601,148 462,206 346,322 231,437 173,577 173,740 Z"
   id="path41"
   inkscape:connector-curvature="0" />
  </g>
 </defs>
 <g
   id="g49"
   transform="translate(-9753,-13438)">
  <g
   id="id2"
   class="Master_Slide">
   <g
   id="bg-id2"
   class="Background" />
   <g
   id="bo-id2"
   class="BackgroundObjects" />
  </g>
 </g>
 <g
   class="SlideGroup"
   id="g487"
   transform="translate(-9753,-13438)">
  <g
   id="g485">
   <g
   id="container-id1">
    <g
   id="id1"
   class="Slide"
   clip-path="url(#presentation_clip_path)">
     <g
   class="Page"
   id="g481">
      <g
   class="Graphic"
   id="g479">
       <g
   id="id3">
        <rect
   class="BoundingBox"
   x="9753"
   y="13438"
   width="1494"
   height="2824"
   id="rect51"
   style="fill:none;stroke:none" />
        <defs
   id="defs56">
         <clipPath
   id="clip_path_1"
   clipPathUnits="userSpaceOnUse">
          <path
   d="m 9753,13438 h 1493 v 2823 H 9753 Z"
   id="path53"
   inkscape:connector-curvature="0" />
         </clipPath>
        </defs>
        <g
   clip-path="url(#clip_path_1)"
   id="g476">
         <path
   d="m 10690,14127 5,23 12,18 18,15 23,5 23,-5 20,-13 13,-18 5,-23 -5,-22 -13,-18 -17,-13 -23,-5 -23,2 -18,13 -15,18 -5,23 h -36 l 3,-20 7,-18 8,-16 13,-12 15,-13 15,-8 18,-5 20,-2 18,2 18,8 15,8 15,12 11,16 10,15 5,18 v 20 l -3,20 -7,18 -8,15 -13,13 -15,13 -15,7 -18,5 h -20 l -18,-2 -18,-5 -15,-10 -16,-13 -10,-13 -10,-18 -5,-17 v -18 z"
   id="path58"
   inkscape:connector-curvature="0"
   style="fill:#e0b71e;stroke:none" />
         <path
   d="m 10748,14178 v 2 l -20,-5 -15,-13 -11,-15 -2,-20 h -21 l 8,25 15,21 21,17 25,5 v 3 z"
   id="path60"
   inkscape:connector-curvature="0"
   style="fill:#000000;stroke:none" />
         <path
   d="m 10799,14129 h 3 l -5,21 -11,15 -17,10 -21,3 v 20 l 26,-8 23,-15 15,-20 5,-26 h 2 z"
   id="path62"
   inkscape:connector-curvature="0"
   style="fill:#000000;stroke:none" />
         <path
   d="m 10751,14079 v 2 l 20,3 15,10 11,15 2,20 h 20 l -7,-25 -15,-20 -21,-16 -25,-7 v 2 -2 l -8,2 -2,8 2,8 8,2 z"
   id="path64"
   inkscape:connector-curvature="0"
   style="fill:#000000;stroke:none" />
         <path
   d="m 10690,14137 7,-10 5,-20 13,-16 15,-10 21,-2 v -16 l -26,3 -20,15 -18,20 -5,26 8,-10 -8,10 3,5 5,2 5,-2 2,-5 z"
   id="path66"
   inkscape:connector-curvature="0"
   style="fill:#000000;stroke:none" />
         <path
   d="m 10646,14127 8,10 h 36 v -20 h -36 l 8,10 -8,-10 -8,2 -2,8 2,7 8,3 z"
   id="path68"
   inkscape:connector-curvature="0"
   style="fill:#000000;stroke:none" />
         <path
   d="m 10753,14025 v -2 l -20,5 -20,5 -18,7 -16,16 -15,12 -7,18 -8,18 -3,23 h 16 l 2,-18 8,-18 7,-12 11,-13 15,-10 13,-8 15,-5 h 20 v -3 3 l 8,-3 2,-7 -2,-8 -8,-2 z"
   id="path70"
   inkscape:connector-curvature="0"
   style="fill:#000000;stroke:none" />
         <path
   d="m 10853,14132 v 0 -20 l -6,-21 -10,-18 -12,-15 -16,-15 -18,-8 -17,-7 -21,-3 v 15 l 16,3 17,8 13,7 15,10 8,16 10,12 5,16 v 20 0 z"
   id="path72"
   inkscape:connector-curvature="0"
   style="fill:#000000;stroke:none" />
         <path
   d="m 10746,14234 v -3 h 20 l 20,-5 18,-8 15,-15 16,-13 7,-17 8,-18 3,-23 h -16 l -2,18 -8,18 -8,12 -10,13 -15,10 -13,8 -15,5 h -20 v -3 z"
   id="path74"
   inkscape:connector-curvature="0"
   style="fill:#000000;stroke:none" />
         <path
   d="m 10654,14117 -8,10 v 18 l 5,20 11,20 12,13 16,15 17,10 21,6 18,5 v -21 h -18 l -15,-5 -13,-10 -15,-10 -8,-13 -10,-15 -5,-15 v -18 l -8,10 10,-10 -2,-8 -8,-2 -8,2 -2,8 z"
   id="path76"
   inkscape:connector-curvature="0"
   style="fill:#000000;stroke:none" />
         <path
   d="m 10700,14127 -10,-10 h -36 v 20 h 36 l -11,-10 11,10 7,-3 3,-7 -3,-8 -7,-2 z"
   id="path78"
   inkscape:connector-curvature="0"
   style="fill:#000000;stroke:none" />
         <path
   d="m 10293,14091 -23,3 -18,13 -15,17 -6,23 6,23 12,20 18,13 23,5 23,-5 20,-13 13,-17 5,-21 -5,-23 -13,-20 -18,-13 -22,-5 2,-38 18,3 18,7 15,8 15,13 10,15 11,15 5,18 v 20 l -3,21 -7,17 -8,16 -13,12 -15,13 -15,8 -18,5 h -21 l -17,-3 -18,-5 -15,-10 -16,-13 -10,-12 -10,-18 -5,-18 v -18 l 2,-20 8,-18 8,-15 12,-13 16,-13 15,-7 18,-5 20,-3 z"
   id="path80"
   inkscape:connector-curvature="0"
   style="fill:#e0b71e;stroke:none" />
         <path
   d="m 10242,14147 h -3 l 5,-20 13,-15 15,-11 21,-2 v -15 l -26,2 -20,15 -18,21 -5,25 h -3 z"
   id="path82"
   inkscape:connector-curvature="0"
   style="fill:#000000;stroke:none" />
         <path
   d="m 10290,14198 v 0 l -20,-3 -16,-10 -10,-17 -2,-21 h -21 l 8,26 15,22 21,16 25,7 v 0 z"
   id="path84"
   inkscape:connector-curvature="0"
   style="fill:#000000;stroke:none" />
         <path
   d="m 10341,14152 h 2 l -5,18 -10,15 -18,10 -20,3 v 20 l 25,-7 23,-16 16,-20 5,-23 h 2 -2 l -3,-5 -5,-2 -5,2 -3,5 z"
   id="path86"
   inkscape:connector-curvature="0"
   style="fill:#000000;stroke:none" />
         <path
   d="m 10285,14091 8,10 20,3 15,10 10,18 3,20 h 20 l -7,-25 -16,-23 -20,-15 -25,-8 7,10 -7,-10 -8,3 -3,7 3,8 8,2 z"
   id="path88"
   inkscape:connector-curvature="0"
   style="fill:#000000;stroke:none" />
         <path
   d="m 10295,14046 -8,7 -2,38 h 15 l 3,-38 -8,8 8,-8 -3,-5 -5,-2 -5,2 -3,5 z"
   id="path90"
   inkscape:connector-curvature="0"
   style="fill:#000000;stroke:none" />
         <path
   d="m 10394,14152 v 0 -20 l -5,-20 -10,-18 -13,-15 -15,-16 -18,-7 -18,-8 -20,-2 v 15 l 15,2 18,8 13,8 15,10 8,15 10,13 5,15 v 20 0 h -2 l 2,8 8,2 7,-2 3,-8 z"
   id="path92"
   inkscape:connector-curvature="0"
   style="fill:#000000;stroke:none" />
         <path
   d="m 10287,14254 v -3 h 21 l 20,-5 18,-7 15,-16 16,-12 7,-18 8,-18 2,-23 h -15 l -2,18 -8,18 -8,13 -10,12 -15,10 -13,8 -15,5 h -21 v -2 z"
   id="path94"
   inkscape:connector-curvature="0"
   style="fill:#000000;stroke:none" />
         <path
   d="m 10188,14147 v 0 18 l 5,20 10,21 13,12 15,16 18,10 21,5 17,5 v -20 h -17 l -16,-5 -12,-11 -16,-10 -7,-13 -10,-15 -6,-15 v -18 0 z"
   id="path96"
   inkscape:connector-curvature="0"
   style="fill:#000000;stroke:none" />
         <path
   d="m 10303,14053 -8,-10 -20,5 -21,5 -17,8 -16,15 -15,13 -8,18 -7,17 -3,23 h 15 l 3,-18 8,-17 7,-13 10,-13 16,-10 12,-8 16,-5 h 20 l -8,-10 8,10 8,-2 2,-8 -2,-7 -8,-3 z"
   id="path98"
   inkscape:connector-curvature="0"
   style="fill:#000000;stroke:none" />
         <path
   d="m 10293,14099 7,-8 3,-38 h -16 l -2,38 8,-7 -8,7 2,5 6,3 5,-3 2,-5 z"
   id="path100"
   inkscape:connector-curvature="0"
   style="fill:#000000;stroke:none" />
         <path
   d="m 10389,14269 -15,5 -15,8 -16,8 -17,5 -18,7 -15,8 -16,10 -15,8 -5,5 -5,2 -8,5 -5,5 -10,328 38,-33 43,-23 44,-17 43,-11 43,-2 41,5 38,13 33,20 5,-8 10,-12 16,-13 20,-13 26,-12 30,-8 41,-5 46,2 28,5 25,8 20,13 16,15 12,18 13,20 8,23 5,23 2,20 3,21 2,23 v 20 20 21 l -2,17 v 18 l 8,41 15,43 23,46 23,45 28,46 28,41 28,36 28,30 2,61 10,74 21,63 30,28 18,-30 18,-26 15,-25 13,-28 2,-33 -7,-36 -21,-45 -35,-56 2,-33 -5,-36 -7,-36 -11,-38 -12,-35 -13,-33 -10,-28 -8,-21 -10,-35 -8,-43 -5,-56 -5,-74 -2,-20 -8,-23 -13,-26 -12,-28 -18,-28 -21,-28 -23,-28 -25,-28 -28,-27 -28,-28 -30,-26 -34,-23 -20,-12 -20,-13 -21,-10 -17,-10 -21,-11 -20,-7 -18,-8 -20,-5 v -13 l -3,-23 v -22 -18 l 28,-15 26,-21 20,-23 18,-25 12,-28 13,-25 10,-23 8,-23 10,-38 8,-44 -3,-45 -10,-46 -23,-31 -30,-28 -39,-25 -43,-23 -48,-15 -54,-8 h -58 l -64,8 -20,20 -26,23 -25,26 -23,27 -25,26 -21,25 -15,21 -13,20 -2,28 v 28 25 l 5,26 5,20 5,23 10,25 13,23 20,26 26,25 33,23 40,20 v 21 l -2,23 -5,22 z"
   id="path102"
   inkscape:connector-curvature="0"
   style="fill:#8c3319;stroke:none" />
         <path
   d="m 10267,14335 v 0 l 15,-7 16,-11 12,-7 18,-8 18,-5 15,-7 16,-8 15,-5 -5,-15 -16,5 -15,7 -15,8 -18,5 -18,8 -18,7 -15,10 -15,8 v 0 0 l -5,5 2,5 5,5 z"
   id="path104"
   inkscape:connector-curvature="0"
   style="fill:#000000;stroke:none" />
         <path
   d="m 10247,14345 -3,8 5,-5 8,-5 5,-3 5,-5 -10,-15 -5,5 -5,3 -8,5 -5,5 -3,7 3,-7 -5,5 2,5 6,5 h 7 z"
   id="path106"
   inkscape:connector-curvature="0"
   style="fill:#000000;stroke:none" />
         <path
   d="m 10224,14668 13,5 10,-328 h -16 l -10,328 13,5 -13,-5 3,5 5,3 5,-3 3,-5 z"
   id="path108"
   inkscape:connector-curvature="0"
   style="fill:#000000;stroke:none" />
         <path
   d="m 10545,14623 12,-6 -35,-20 -41,-13 -41,-7 -43,5 -46,10 -43,18 -46,23 -38,35 10,10 38,-30 41,-23 43,-18 41,-10 h 43 l 41,3 36,12 30,21 13,-5 -13,5 h 8 l 5,-5 2,-5 -5,-6 z"
   id="path110"
   inkscape:connector-curvature="0"
   style="fill:#000000;stroke:none" />
         <path
   d="m 10746,14549 v 0 l -46,-5 -41,7 -33,8 -25,13 -23,12 -16,16 -12,12 -5,11 15,5 5,-5 8,-13 15,-10 18,-13 25,-13 28,-7 41,-3 h 46 v 0 z"
   id="path112"
   inkscape:connector-curvature="0"
   style="fill:#000000;stroke:none" />
         <path
   d="m 10880,14681 v 0 l -5,-25 -7,-23 -13,-23 -13,-18 -17,-18 -23,-13 -28,-7 -28,-5 v 15 l 28,5 23,8 17,12 13,13 13,18 13,18 7,23 5,20 v 0 0 l 3,5 5,3 5,-3 z"
   id="path114"
   inkscape:connector-curvature="0"
   style="fill:#000000;stroke:none" />
         <path
   d="m 10891,14765 v 0 -20 l -5,-23 -3,-21 -3,-20 h -15 l 3,20 2,21 v 23 20 0 0 l 3,7 7,3 8,-3 z"
   id="path116"
   inkscape:connector-curvature="0"
   style="fill:#000000;stroke:none" />
         <path
   d="m 10886,14841 h 2 l -2,-18 2,-17 3,-21 v -20 h -21 v 20 l 3,21 -3,17 -2,18 h 2 -2 l 2,8 8,2 8,-2 2,-8 z"
   id="path118"
   inkscape:connector-curvature="0"
   style="fill:#000000;stroke:none" />
         <path
   d="m 11066,15169 -2,-5 -26,-31 -28,-35 -28,-41 -28,-43 -23,-46 -23,-46 -15,-43 -7,-38 h -16 l 8,43 15,44 23,45 23,46 28,48 28,41 28,36 31,30 -3,-5 3,5 h 5 l 5,-2 2,-3 -2,-5 z"
   id="path120"
   inkscape:connector-curvature="0"
   style="fill:#000000;stroke:none" />
         <path
   d="m 11115,15393 7,-5 -23,-23 -20,-61 -10,-74 -3,-61 h -15 l 3,61 10,74 20,66 38,33 8,-5 -8,7 8,-2 2,-8 -2,-7 -8,-3 z"
   id="path122"
   inkscape:connector-curvature="0"
   style="fill:#000000;stroke:none" />
         <path
   d="m 11117,15116 v 5 l 36,53 20,46 8,33 -3,33 -12,25 -16,23 -18,26 -17,33 15,5 18,-28 18,-26 15,-28 13,-30 2,-33 -8,-38 -20,-46 -36,-58 v 5 -5 l -5,-6 -5,3 -5,5 v 8 z"
   id="path124"
   inkscape:connector-curvature="0"
   style="fill:#000000;stroke:none" />
         <path
   d="m 11054,14859 v 0 l 7,20 10,28 13,33 13,36 10,35 8,36 2,36 v 33 h 15 l 6,-33 -8,-36 -8,-36 -10,-40 -13,-36 -12,-33 -11,-28 -7,-20 v 0 z"
   id="path126"
   inkscape:connector-curvature="0"
   style="fill:#000000;stroke:none" />
         <path
   d="m 11026,14648 v 0 l 5,74 5,56 7,43 11,38 15,-5 -10,-33 -8,-43 -5,-56 -5,-74 v 0 z"
   id="path128"
   inkscape:connector-curvature="0"
   style="fill:#000000;stroke:none" />
         <path
   d="m 10990,14556 v -2 l 13,28 12,25 8,21 3,20 h 15 l -3,-20 -7,-26 -13,-25 -13,-28 v -3 3 l -2,-5 h -8 l -5,2 v 8 z"
   id="path130"
   inkscape:connector-curvature="0"
   style="fill:#000000;stroke:none" />
         <path
   d="m 10786,14343 v 0 l 33,23 31,23 28,28 28,28 23,28 23,27 20,28 18,28 15,-10 -18,-28 -20,-28 -23,-28 -28,-28 -28,-28 -28,-28 -30,-27 -33,-23 v 0 0 h -8 l -5,2 -3,8 z"
   id="path132"
   inkscape:connector-curvature="0"
   style="fill:#000000;stroke:none" />
         <path
   d="m 10623,14259 11,8 17,5 18,7 21,8 20,10 18,10 20,10 18,13 20,13 11,-15 -21,-13 -23,-13 -20,-10 -18,-10 -20,-10 -21,-8 -17,-8 -23,-5 10,8 -10,-8 -5,3 -3,5 3,5 5,3 z"
   id="path134"
   inkscape:connector-curvature="0"
   style="fill:#000000;stroke:none" />
         <path
   d="m 10629,14175 -6,8 -2,18 v 22 l 5,23 -3,13 h 21 l -3,-13 v -23 -22 l -2,-18 -5,7 5,-7 -3,-5 -5,-3 -5,3 -3,5 z"
   id="path136"
   inkscape:connector-curvature="0"
   style="fill:#000000;stroke:none" />
         <path
   d="m 10758,13997 v 0 l -7,23 -10,23 -13,25 -13,28 -18,23 -18,23 -25,18 -25,15 5,15 30,-15 26,-23 23,-23 17,-28 13,-28 13,-25 10,-23 8,-23 v 0 0 -7 l -5,-3 h -6 z"
   id="path138"
   inkscape:connector-curvature="0"
   style="fill:#000000;stroke:none" />
         <path
   d="m 10763,13832 v -3 l 11,44 2,45 -7,44 -11,35 16,5 10,-40 7,-44 -2,-45 -10,-49 v -2 2 l -3,-5 h -7 l -6,3 v 7 z"
   id="path140"
   inkscape:connector-curvature="0"
   style="fill:#000000;stroke:none" />
         <path
   d="m 10417,13710 -5,3 64,-8 h 58 l 54,8 46,15 40,23 39,25 30,25 20,31 16,-10 -26,-31 -30,-30 -38,-26 -46,-22 -51,-16 -54,-7 h -58 l -64,7 -5,3 5,-3 -5,3 -2,5 2,5 5,3 z"
   id="path142"
   inkscape:connector-curvature="0"
   style="fill:#000000;stroke:none" />
         <path
   d="m 10252,13893 v 3 l 13,-18 15,-21 18,-25 25,-25 23,-28 25,-26 26,-23 20,-20 -10,-10 -20,20 -26,23 -25,25 -23,28 -26,26 -22,25 -16,21 -12,22 v 3 -3 8 l 5,3 h 7 l 3,-5 z"
   id="path144"
   inkscape:connector-curvature="0"
   style="fill:#000000;stroke:none" />
         <path
   d="m 10254,14000 v -3 l -5,-23 3,-25 v -28 -28 h -15 l -6,28 v 28 l 3,25 5,28 v -2 2 l 5,5 h 5 l 5,-2 v -8 z"
   id="path146"
   inkscape:connector-curvature="0"
   style="fill:#000000;stroke:none" />
         <path
   d="m 10410,14185 -8,-7 -38,-21 -33,-23 -26,-22 -18,-26 -12,-20 -10,-26 -6,-20 -5,-20 h -15 l 5,20 5,26 10,25 13,25 23,26 26,28 33,23 43,20 -8,-8 8,8 h 8 l 2,-5 v -8 l -5,-2 z"
   id="path148"
   inkscape:connector-curvature="0"
   style="fill:#000000;stroke:none" />
         <path
   d="m 10392,14277 5,-8 2,-18 6,-22 5,-23 v -21 h -21 v 21 23 l -5,22 -2,18 5,-7 -5,7 2,5 5,3 5,-3 3,-5 z"
   id="path150"
   inkscape:connector-curvature="0"
   style="fill:#000000;stroke:none" />
         <path
   d="m 10746,16013 -16,2 -17,3 -18,5 -16,3 -17,2 -18,5 -21,3 -17,2 12,54 8,61 8,53 10,23 h 13 l 28,2 h 38 l 40,3 h 46 41 33 23 l 8,-28 -8,-30 -15,-31 -21,-20 -10,-8 -13,-5 -12,-5 -13,-5 -15,-3 h -16 l -12,-2 h -13 l -5,-21 -5,-20 -5,-23 z"
   id="path152"
   inkscape:connector-curvature="0"
   style="fill:#8c3319;stroke:none" />
         <path
   d="m 10613,16036 -7,10 17,-3 21,-2 18,-5 17,-3 16,-2 18,-5 17,-3 16,-2 v -16 l -16,3 -17,2 -18,5 -16,3 -17,3 -18,5 -21,2 -17,3 -8,10 8,-10 -5,2 -3,5 3,5 5,3 z"
   id="path154"
   inkscape:connector-curvature="0"
   style="fill:#000000;stroke:none" />
         <path
   d="m 10644,16221 v -2 l -3,-13 -7,-53 -8,-61 -13,-56 -15,5 13,51 7,61 8,53 18,33 v -2 z"
   id="path156"
   inkscape:connector-curvature="0"
   style="fill:#000000;stroke:none" />
         <path
   d="m 10898,16229 8,-3 -23,-2 h -33 -41 -46 l -40,-3 h -38 -28 -13 v 16 h 13 l 28,5 h 38 l 40,2 h 46 41 33 l 23,-2 8,-3 -8,5 8,-2 2,-8 -2,-8 -8,-2 z"
   id="path158"
   inkscape:connector-curvature="0"
   style="fill:#000000;stroke:none" />
         <path
   d="m 10865,16132 v 0 l 18,18 15,28 5,28 -5,23 16,10 10,-33 -10,-33 -16,-33 -23,-23 v 0 z"
   id="path160"
   inkscape:connector-curvature="0"
   style="fill:#000000;stroke:none" />
         <path
   d="m 10758,16099 8,8 13,-3 12,3 h 16 l 12,2 13,6 13,5 13,5 7,7 10,-15 -12,-8 -13,-5 -13,-5 -12,-5 -18,-2 h -16 l -12,-3 -13,-2 8,7 -8,-7 -8,2 -2,8 2,7 8,3 z"
   id="path162"
   inkscape:connector-curvature="0"
   style="fill:#000000;stroke:none" />
         <path
   d="m 10746,16021 -8,-6 5,18 5,23 5,20 5,23 16,-5 -5,-18 -6,-20 -5,-23 -5,-23 -7,-5 7,5 -2,-5 h -8 l -5,3 v 7 z"
   id="path164"
   inkscape:connector-curvature="0"
   style="fill:#000000;stroke:none" />
         <path
   d="m 10196,16041 18,2 17,5 18,3 18,3 h 18 l 20,2 18,3 h 20 l -2,10 -5,13 -3,12 -5,15 -2,11 -5,10 -3,10 -3,10 -12,38 -10,33 -11,26 -5,15 h -35 l -41,-3 -41,-2 -40,-3 -39,-2 -35,-3 -26,-2 -18,-3 v -15 l 8,-15 10,-18 13,-18 13,-15 15,-13 13,-13 10,-5 8,-2 10,-5 12,-5 13,-5 13,-6 13,-5 12,-7 10,-5 8,-3 8,-5 5,-5 2,-5 3,-8 v -7 l -3,-8 z"
   id="path166"
   inkscape:connector-curvature="0"
   style="fill:#8c3319;stroke:none" />
         <path
   d="m 10351,16061 -8,-10 h -20 l -18,-3 -20,-2 h -18 l -18,-3 -18,-2 -17,-5 -18,-3 v 15 l 18,3 17,5 18,3 18,2 h 18 l 20,3 18,2 h 20 l -7,-10 7,13 8,-3 3,-7 -3,-8 -8,-3 z"
   id="path168"
   inkscape:connector-curvature="0"
   style="fill:#000000;stroke:none" />
         <path
   d="m 10336,16112 v -3 l 5,-12 2,-13 6,-13 2,-10 -15,-5 -3,10 -5,13 -2,13 -5,17 v -2 2 l 2,6 5,2 5,-2 3,-6 z"
   id="path170"
   inkscape:connector-curvature="0"
   style="fill:#000000;stroke:none" />
         <path
   d="m 10323,16153 v -3 l 3,-10 2,-8 5,-10 3,-10 -15,-5 -3,10 -5,10 -3,13 -2,10 v -2 2 l 2,5 5,3 6,-3 2,-5 z"
   id="path172"
   inkscape:connector-curvature="0"
   style="fill:#000000;stroke:none" />
         <path
   d="m 10277,16272 8,-7 5,-16 10,-25 10,-33 13,-38 -15,-5 -13,38 -10,33 -10,25 -5,15 7,-7 -7,7 v 8 l 5,3 h 7 l 3,-5 z"
   id="path174"
   inkscape:connector-curvature="0"
   style="fill:#000000;stroke:none" />
         <path
   d="m 9995,16244 7,8 18,2 26,3 35,2 39,3 40,3 41,2 41,5 h 35 v -20 h -35 -41 l -41,-3 -40,-2 -39,-3 -35,-2 -26,-3 -18,-2 8,7 -8,-7 -5,2 -2,5 2,5 5,3 z"
   id="path176"
   inkscape:connector-curvature="0"
   style="fill:#000000;stroke:none" />
         <path
   d="m 10081,16125 v 0 l -12,5 -13,15 -15,13 -16,15 -12,18 -11,20 -7,18 v 15 h 15 v -15 l 8,-13 10,-15 13,-18 10,-15 15,-13 13,-10 7,-5 v 0 z"
   id="path178"
   inkscape:connector-curvature="0"
   style="fill:#000000;stroke:none" />
         <path
   d="m 10173,16084 v 0 l -10,5 -13,8 -13,5 -12,5 -13,5 -13,5 -10,5 -8,3 5,15 8,-3 10,-5 13,-5 13,-5 12,-5 13,-5 13,-8 10,-5 v 0 z"
   id="path180"
   inkscape:connector-curvature="0"
   style="fill:#000000;stroke:none" />
         <path
   d="m 10191,16074 h -3 v 0 l -2,2 -5,6 -8,2 5,15 8,-2 10,-5 7,-8 6,-10 h -3 z"
   id="path182"
   inkscape:connector-curvature="0"
   style="fill:#000000;stroke:none" />
         <path
   d="m 10196,16033 -8,10 3,11 2,5 v 7 l -2,8 h 15 l 3,-8 v -7 l -3,-11 -3,-10 -7,10 7,-10 -2,-5 h -8 l -5,3 v 7 z"
   id="path184"
   inkscape:connector-curvature="0"
   style="fill:#000000;stroke:none" />
         <path
   d="m 9921,15118 3,-96 v -82 l 2,-61 v -30 l -18,28 -18,33 -15,35 -15,36 -13,35 -10,34 -8,25 -2,18 -26,30 -23,33 -17,33 -3,33 10,41 16,43 20,38 18,18 18,-15 17,-36 11,-45 v -36 l 2,-28 15,-30 21,-28 z"
   id="path186"
   inkscape:connector-curvature="0"
   style="fill:#8c3319;stroke:none" />
         <path
   d="m 9934,14854 -18,-5 v 30 l -3,61 v 82 96 h 16 l 5,-96 v -82 l 2,-61 v -30 l -18,-5 18,5 -2,-8 -8,-2 -8,2 -2,8 z"
   id="path188"
   inkscape:connector-curvature="0"
   style="fill:#000000;stroke:none" />
         <path
   d="m 9832,15098 5,-5 v -18 l 8,-23 10,-33 13,-36 15,-35 15,-36 18,-30 18,-28 -16,-10 -17,28 -18,35 -15,36 -16,35 -12,36 -11,33 -7,28 -5,18 5,-5 -5,5 2,7 8,3 7,-3 3,-7 z"
   id="path190"
   inkscape:connector-curvature="0"
   style="fill:#000000;stroke:none" />
         <path
   d="m 9766,15222 v 0 l 2,-30 18,-31 23,-33 23,-30 -10,-10 -28,30 -23,33 -18,36 -3,35 v 0 z"
   id="path192"
   inkscape:connector-curvature="0"
   style="fill:#000000;stroke:none" />
         <path
   d="m 9822,15352 v 3 l -10,-16 -21,-35 -15,-43 -10,-39 h -16 l 11,44 15,43 20,40 26,21 v 2 z"
   id="path194"
   inkscape:connector-curvature="0"
   style="fill:#000000;stroke:none" />
         <path
   d="m 9860,15230 v 0 36 l -10,43 -18,33 -10,10 v 20 l 25,-20 18,-38 10,-48 v -36 0 z"
   id="path196"
   inkscape:connector-curvature="0"
   style="fill:#000000;stroke:none" />
         <path
   d="m 9913,15118 v -2 l -15,23 -20,27 -16,34 -2,30 h 15 l 3,-25 15,-28 20,-28 16,-28 v -3 3 -8 l -5,-2 h -6 l -5,5 z"
   id="path198"
   inkscape:connector-curvature="0"
   style="fill:#000000;stroke:none" />
         <path
   d="m 10244,13893 -33,-46 -66,-89 74,-35 -3,-38 -119,-18 114,-79 69,25 125,-99 76,84 216,-160 13,28 13,30 5,28 2,23 h 21 l 23,5 30,5 31,11 30,15 31,20 28,28 25,33 -15,10 -15,11 -16,12 -17,13 -18,15 -15,15 -18,18 -16,16 -15,12 -13,13 -10,15 -10,13 -23,-31 -30,-28 -39,-25 -43,-23 -48,-15 -54,-8 h -58 l -64,8 -20,20 -26,23 -25,26 -23,27 -25,26 -21,25 -15,21 z"
   id="path200"
   inkscape:connector-curvature="0"
   style="fill:#26d8d8;stroke:none" />
         <path
   d="m 10203,13852 v 0 l 34,46 15,-10 -33,-46 v 0 0 l -5,-5 -5,3 -6,5 z"
   id="path202"
   inkscape:connector-curvature="0"
   style="fill:#000000;stroke:none" />
         <path
   d="m 10142,13751 -5,12 66,89 16,-10 -66,-89 -6,13 6,-13 -6,-5 -5,3 -5,5 v 7 z"
   id="path204"
   inkscape:connector-curvature="0"
   style="fill:#000000;stroke:none" />
         <path
   d="m 10211,13723 5,-8 -74,36 5,15 74,-36 5,-7 -5,7 5,-5 v -5 l -2,-5 h -8 z"
   id="path206"
   inkscape:connector-curvature="0"
   style="fill:#000000;stroke:none" />
         <path
   d="m 10216,13692 -7,-7 2,38 h 15 l -2,-38 -8,-8 8,8 -3,-6 -5,-2 -5,2 -2,6 z"
   id="path208"
   inkscape:connector-curvature="0"
   style="fill:#000000;stroke:none" />
         <path
   d="m 10092,13659 5,15 119,18 v -15 l -119,-18 5,15 -5,-15 -5,3 -3,5 3,5 5,2 z"
   id="path210"
   inkscape:connector-curvature="0"
   style="fill:#000000;stroke:none" />
         <path
   d="m 10214,13580 h -8 l -114,79 10,15 114,-78 h -7 7 l 5,-5 -2,-8 -5,-3 h -8 z"
   id="path212"
   inkscape:connector-curvature="0"
   style="fill:#000000;stroke:none" />
         <path
   d="m 10275,13606 h 7 l -68,-26 -5,16 68,25 h 8 -8 8 l 2,-5 v -8 l -5,-2 z"
   id="path214"
   inkscape:connector-curvature="0"
   style="fill:#000000;stroke:none" />
         <path
   d="m 10410,13509 -11,-2 -124,99 10,15 125,-99 -11,-3 11,3 5,-5 -3,-8 -5,-2 h -8 z"
   id="path216"
   inkscape:connector-curvature="0"
   style="fill:#000000;stroke:none" />
         <path
   d="m 10476,13591 10,2 -76,-84 -11,10 77,84 10,3 -10,-3 h 5 l 5,-2 3,-3 -3,-5 z"
   id="path218"
   inkscape:connector-curvature="0"
   style="fill:#000000;stroke:none" />
         <path
   d="m 10705,13433 -13,-3 -216,161 10,15 216,-160 -12,-3 12,3 5,-5 -2,-8 -5,-3 h -8 z"
   id="path220"
   inkscape:connector-curvature="0"
   style="fill:#000000;stroke:none" />
         <path
   d="m 10730,13537 11,10 -6,-23 -5,-30 -12,-31 -13,-30 -15,10 12,26 13,30 5,25 v 23 l 10,10 -10,-10 3,8 7,2 8,-2 3,-8 z"
   id="path222"
   inkscape:connector-curvature="0"
   style="fill:#000000;stroke:none" />
         <path
   d="m 10954,13672 3,-13 -26,-33 -30,-30 -31,-21 -33,-15 -33,-10 -30,-5 -23,-5 -21,-3 v 20 l 21,-2 23,5 30,5 28,10 28,16 31,20 25,25 26,33 2,-12 -2,12 5,5 7,-2 3,-5 v -8 z"
   id="path224"
   inkscape:connector-curvature="0"
   style="fill:#000000;stroke:none" />
         <path
   d="m 10825,13781 v -2 l 15,-16 18,-17 15,-16 18,-12 17,-13 16,-13 15,-10 15,-10 -10,-15 -15,10 -15,10 -16,13 -18,12 -17,18 -16,15 -17,18 -16,15 v -2 2 6 l 3,2 2,3 h 6 z"
   id="path226"
   inkscape:connector-curvature="0"
   style="fill:#000000;stroke:none" />
         <path
   d="m 10763,13832 h 16 l 10,-13 10,-15 10,-13 16,-10 -11,-15 -15,15 -15,13 -10,15 -11,13 h 16 -16 v 7 l 6,6 5,2 5,-5 z"
   id="path228"
   inkscape:connector-curvature="0"
   style="fill:#000000;stroke:none" />
         <path
   d="m 10417,13710 -5,3 64,-8 h 58 l 54,8 46,15 40,23 39,25 30,25 20,31 16,-10 -26,-31 -30,-30 -38,-26 -46,-22 -51,-16 -54,-7 h -58 l -64,7 -5,3 5,-3 -5,3 -2,5 2,5 5,3 z"
   id="path230"
   inkscape:connector-curvature="0"
   style="fill:#000000;stroke:none" />
         <path
   d="m 10237,13898 15,-2 13,-18 15,-21 18,-25 25,-25 23,-28 25,-26 26,-23 20,-20 -10,-10 -20,20 -26,23 -25,25 -23,28 -26,26 -22,25 -16,21 -12,22 15,-2 -15,2 v 8 l 5,3 h 7 l 3,-5 z"
   id="path232"
   inkscape:connector-curvature="0"
   style="fill:#000000;stroke:none" />
         <path
   d="m 10219,13723 -3,-38 -5,-97 69,25 10,5 15,6 16,5 17,5 16,7 15,5 13,6 7,2 -28,10 -28,10 -28,13 -28,10 -23,10 -17,8 -13,5 z"
   id="path234"
   inkscape:connector-curvature="0"
   style="fill:#1999e5;stroke:none" />
         <path
   d="m 10209,13685 v 0 l 2,38 h 15 l -2,-38 v 0 0 l -3,-6 -5,-2 -5,2 z"
   id="path236"
   inkscape:connector-curvature="0"
   style="fill:#000000;stroke:none" />
         <path
   d="m 10214,13580 -11,8 6,97 h 15 l -5,-97 -10,8 10,-8 -3,-5 -5,-3 -5,3 -3,5 z"
   id="path238"
   inkscape:connector-curvature="0"
   style="fill:#000000;stroke:none" />
         <path
   d="m 10282,13606 v 0 l -68,-26 -5,16 68,25 v 0 0 h 8 l 2,-5 v -8 z"
   id="path240"
   inkscape:connector-curvature="0"
   style="fill:#000000;stroke:none" />
         <path
   d="m 10392,13662 v -16 l -8,-2 -13,-5 -15,-5 -15,-8 -18,-5 -15,-5 -15,-5 -11,-5 -5,15 10,5 16,5 15,5 18,5 15,8 15,5 13,5 8,3 v -16 16 h 7 l 3,-5 v -8 l -5,-3 z"
   id="path242"
   inkscape:connector-curvature="0"
   style="fill:#000000;stroke:none" />
         <path
   d="m 10211,13723 10,7 5,-2 13,-5 18,-8 23,-10 28,-10 28,-13 28,-10 28,-10 -5,-16 -28,11 -28,10 -28,12 -28,11 -23,10 -18,7 -13,6 -5,2 10,8 -10,-8 -5,3 v 7 l 3,5 h 7 z"
   id="path244"
   inkscape:connector-curvature="0"
   style="fill:#000000;stroke:none" />
         <path
   d="m 10730,13547 -2,-23 -5,-28 -13,-30 -13,-28 -216,160 28,-13 28,-7 30,-10 28,-8 31,-5 33,-3 36,-2 z"
   id="path246"
   inkscape:connector-curvature="0"
   style="fill:#1999e5;stroke:none" />
         <path
   d="m 10702,13446 -12,-3 12,26 13,30 5,25 v 23 h 21 l -6,-23 -5,-30 -12,-31 -13,-30 -13,-3 13,3 -5,-5 -5,2 -5,5 v 8 z"
   id="path248"
   inkscape:connector-curvature="0"
   style="fill:#000000;stroke:none" />
         <path
   d="m 10478,13591 8,15 216,-160 -10,-16 -216,161 7,15 -7,-15 -5,5 2,5 5,5 h 8 z"
   id="path250"
   inkscape:connector-curvature="0"
   style="fill:#000000;stroke:none" />
         <path
   d="m 10720,13547 10,-7 -35,2 -36,3 -33,2 -31,5 -30,8 -31,10 -28,8 -28,13 5,15 28,-13 28,-8 31,-10 25,-7 31,-5 33,-3 36,-3 35,-2 11,-8 -11,10 8,-2 3,-8 -3,-7 -8,-3 z"
   id="path252"
   inkscape:connector-curvature="0"
   style="fill:#000000;stroke:none" />
         <path
   d="m 10211,13847 33,46 -2,28 v 28 25 l 5,26 -16,-38 -10,-39 -7,-40 z"
   id="path254"
   inkscape:connector-curvature="0"
   style="fill:#000000;stroke:none" />
         <path
   d="m 10252,13893 v -5 l -33,-46 -16,10 34,46 v -5 5 l 5,5 7,-2 3,-5 v -8 z"
   id="path256"
   inkscape:connector-curvature="0"
   style="fill:#000000;stroke:none" />
         <path
   d="m 10239,14002 15,-5 -5,-23 3,-25 v -28 -28 h -15 l -6,28 v 28 l 3,25 5,28 15,-5 -15,5 5,5 h 5 l 5,-2 v -8 z"
   id="path258"
   inkscape:connector-curvature="0"
   style="fill:#000000;stroke:none" />
         <path
   d="m 10219,13842 -18,5 5,36 8,40 10,41 15,38 15,-5 -15,-38 -10,-36 -8,-40 v -36 l -18,5 18,-5 -2,-7 -8,-3 -8,3 -2,7 z"
   id="path260"
   inkscape:connector-curvature="0"
   style="fill:#000000;stroke:none" />
         <path
   d="m 10771,13827 10,-13 10,-15 13,-13 15,-12 6,55 -6,59 -15,58 -38,54 10,-38 8,-44 -3,-45 z"
   id="path262"
   inkscape:connector-curvature="0"
   style="fill:#000000;stroke:none" />
         <path
   d="m 10827,13774 -13,-8 -15,15 -15,13 -10,15 -11,13 16,10 10,-13 10,-15 10,-13 16,-10 -13,-7 13,7 5,-5 -3,-8 -5,-2 h -8 z"
   id="path264"
   inkscape:connector-curvature="0"
   style="fill:#000000;stroke:none" />
         <path
   d="m 10758,13997 13,8 41,-56 15,-61 8,-59 -8,-55 h -15 l 2,55 -2,59 -15,56 -36,51 13,7 -13,-7 v 5 l 2,2 3,3 h 5 z"
   id="path266"
   inkscape:connector-curvature="0"
   style="fill:#000000;stroke:none" />
         <path
   d="m 10763,13822 v 7 l 11,44 2,45 -7,44 -11,35 16,5 10,-40 7,-44 -2,-45 -10,-49 v 8 -8 l -3,-5 h -7 l -6,3 v 7 z"
   id="path268"
   inkscape:connector-curvature="0"
   style="fill:#000000;stroke:none" />
         <path
   d="m 10315,13903 13,5 h 13 13 l 12,-5 11,-7 10,-8 7,-13 5,-15 13,-31 18,-20 20,-15 18,-3 18,5 15,13 10,23 v 30 h -12 -13 l -13,3 -12,5 -11,5 -10,8 -10,7 -8,11 -7,10 -13,5 -13,7 -15,3 h -15 l -16,-3 -15,-7 z"
   id="path270"
   inkscape:connector-curvature="0"
   style="fill:#1999e5;stroke:none" />
         <path
   d="m 10392,13857 v 0 l -5,16 -8,10 -8,5 -7,8 -10,5 -13,-3 -13,3 -10,-5 -5,15 15,5 13,2 13,-2 15,-5 13,-8 12,-10 8,-15 5,-16 v 0 z"
   id="path272"
   inkscape:connector-curvature="0"
   style="fill:#000000;stroke:none" />
         <path
   d="m 10468,13781 v 3 l -20,2 -23,18 -20,20 -13,33 15,5 13,-27 15,-21 18,-13 15,-2 v 2 z"
   id="path274"
   inkscape:connector-curvature="0"
   style="fill:#000000;stroke:none" />
         <path
   d="m 10511,13870 8,-8 v -30 l -10,-28 -20,-15 -21,-8 v 20 l 15,3 11,10 10,18 v 30 l 7,-7 -7,7 2,6 5,2 6,-2 2,-6 z"
   id="path276"
   inkscape:connector-curvature="0"
   style="fill:#000000;stroke:none" />
         <path
   d="m 10430,13906 v 0 l 5,-10 10,-6 10,-7 8,-5 13,-5 10,-3 13,3 12,-3 v -15 l -12,-3 -13,3 -15,2 -13,5 -13,6 -10,7 -10,10 -10,11 v 0 z"
   id="path278"
   inkscape:connector-curvature="0"
   style="fill:#000000;stroke:none" />
         <path
   d="m 10318,13896 -10,12 15,15 18,8 18,3 h 15 l 18,-3 13,-8 15,-5 10,-12 -15,-10 -5,7 -11,5 -12,8 -13,2 h -15 l -13,-2 -13,-8 -10,-10 -10,13 10,-13 -5,-5 -5,3 -5,5 v 7 z"
   id="path280"
   inkscape:connector-curvature="0"
   style="fill:#000000;stroke:none" />
         <path
   d="m 10751,13883 -21,5 -15,-8 -8,-15 -7,-28 -10,-25 -16,-11 -17,-2 h -18 l -18,2 -18,13 -10,23 -3,31 13,-3 13,-3 13,-2 h 12 10 l 11,2 7,8 8,8 13,15 17,10 18,-2 z"
   id="path282"
   inkscape:connector-curvature="0"
   style="fill:#1999e5;stroke:none" />
         <path
   d="m 10692,13837 v 0 l 8,31 10,17 20,11 23,-6 -5,-15 -18,5 -10,-5 -5,-13 -8,-25 v 0 z"
   id="path284"
   inkscape:connector-curvature="0"
   style="fill:#000000;stroke:none" />
         <path
   d="m 10639,13807 v 2 l 18,-2 15,2 10,8 10,20 h 15 l -10,-30 -20,-13 -20,-3 -18,-2 v 2 z"
   id="path286"
   inkscape:connector-curvature="0"
   style="fill:#000000;stroke:none" />
         <path
   d="m 10590,13860 8,8 3,-31 10,-18 12,-10 16,-2 v -16 l -21,3 -23,15 -10,28 -2,31 7,7 -7,-7 2,5 5,2 5,-2 3,-5 z"
   id="path288"
   inkscape:connector-curvature="0"
   style="fill:#000000;stroke:none" />
         <path
   d="m 10685,13873 v 0 l -11,-8 -10,-10 -13,-3 -10,-2 -12,2 -13,3 -13,2 -13,3 v 15 l 13,-2 13,-3 13,-2 12,2 10,-2 8,2 5,5 5,8 v 0 z"
   id="path290"
   inkscape:connector-curvature="0"
   style="fill:#000000;stroke:none" />
         <path
   d="m 10753,13890 -7,-12 -23,15 -16,3 -12,-11 -10,-12 -16,10 16,18 22,10 21,-3 28,-20 -8,-13 8,13 2,-5 -2,-5 -5,-3 -5,3 z"
   id="path292"
   inkscape:connector-curvature="0"
   style="fill:#000000;stroke:none" />
         <path
   d="m 10453,14025 23,8 25,2 26,-2 23,-5 23,-5 20,-3 18,3 10,10 v 7 l -8,8 -15,8 -20,2 -26,3 -30,-5 -33,-10 z"
   id="path294"
   inkscape:connector-curvature="0"
   style="fill:#b20000;stroke:none" />
         <path
   d="m 10629,14030 v -2 l -16,-13 -20,-5 -20,5 -23,5 -23,5 h -26 -25 l -21,-7 -5,15 26,7 25,6 26,-6 23,-5 23,-5 h 20 15 l 5,8 v -3 z"
   id="path296"
   inkscape:connector-curvature="0"
   style="fill:#000000;stroke:none" />
         <path
   d="m 10455,14018 -7,15 38,20 36,10 30,8 26,-5 23,-3 17,-7 11,-13 v -13 l -16,5 v 3 l -5,2 -13,8 -17,3 h -26 l -30,-3 -31,-10 -33,-20 -8,15 8,-15 h -8 l -5,2 -2,8 5,5 z"
   id="path298"
   inkscape:connector-curvature="0"
   style="fill:#000000;stroke:none" />
         <path
   d="m 10397,13652 -3,-6 h -7 l -5,3 v 8 z"
   id="path300"
   inkscape:connector-curvature="0"
   style="fill:#000000;stroke:none" />
         <path
   d="m 10412,13705 8,-3 -23,-50 -15,5 23,50 z"
   id="path302"
   inkscape:connector-curvature="0"
   style="fill:#000000;stroke:none" />
         <path
   d="m 10405,13707 5,6 h 5 l 5,-3 v -8 z"
   id="path304"
   inkscape:connector-curvature="0"
   style="fill:#000000;stroke:none" />
         <path
   d="m 10229,14673 33,-28 38,-22 36,-18 38,-13 38,-5 h 38 l 36,5 33,13 10,5 8,5 8,5 7,5 3,-5 5,-5 7,-8 8,-7 10,-8 13,-10 15,-8 21,-7 23,-8 25,-3 31,-2 33,2 28,5 25,8 20,13 16,15 12,18 13,20 8,23 5,23 2,20 3,21 2,23 v 20 20 21 l -2,17 v 18 l -5,64 -5,84 -5,104 -5,119 -3,36 v 38 36 l -2,38 -6,180 -2,173 v 155 l 5,125 -13,2 -10,3 -13,2 -12,3 -13,2 -15,3 -13,2 -15,3 -16,2 -17,3 -18,5 -16,3 -17,2 -18,5 -21,3 -17,2 -33,5 -31,3 -33,5 -33,3 -33,2 h -33 l -33,3 h -34 -20 l -18,-3 -20,-2 h -18 l -18,-3 -18,-3 -17,-5 -18,-2 -13,-5 -13,-3 -15,-5 -10,-5 -13,-5 -12,-8 -11,-5 -10,-7 5,-99 3,-125 5,-117 2,-66 13,2 13,3 h 18 l 15,-3 13,-2 12,-5 11,-5 2,-10 5,-61 3,-112 5,-115 2,-73 v -92 l 3,-157 v -168 z"
   id="path306"
   inkscape:connector-curvature="0"
   style="fill:#1999e5;stroke:none" />
         <path
   d="m 10522,14597 v 0 l -33,-13 -39,-5 h -38 l -38,5 -41,13 -35,18 -41,23 -33,30 10,10 33,-25 36,-23 35,-18 36,-12 38,-5 h 38 l 33,5 34,12 v 0 0 h 7 l 3,-5 v -7 z"
   id="path308"
   inkscape:connector-curvature="0"
   style="fill:#000000;stroke:none" />
         <path
   d="m 10545,14623 12,-6 -7,-5 -8,-5 -10,-5 -10,-5 -5,15 10,5 5,6 7,5 8,5 13,-5 -13,5 h 8 l 5,-5 2,-5 -5,-6 z"
   id="path310"
   inkscape:connector-curvature="0"
   style="fill:#000000;stroke:none" />
         <path
   d="m 10570,14595 v -3 l -8,10 -7,8 -8,5 -2,8 15,5 2,-3 3,-5 8,-8 7,-5 v -2 z"
   id="path312"
   inkscape:connector-curvature="0"
   style="fill:#000000;stroke:none" />
         <path
   d="m 10746,14549 v 0 l -33,-5 -31,5 -25,2 -26,8 -20,8 -18,7 -13,10 -10,11 10,10 10,-5 13,-11 13,-7 20,-8 21,-7 25,-3 h 31 33 v 0 z"
   id="path314"
   inkscape:connector-curvature="0"
   style="fill:#000000;stroke:none" />
         <path
   d="m 10880,14681 v 0 l -5,-25 -7,-23 -13,-23 -13,-18 -17,-18 -23,-13 -28,-7 -28,-5 v 15 l 28,5 23,8 17,12 13,13 13,18 13,18 7,23 5,20 v 0 0 l 3,5 5,3 5,-3 z"
   id="path316"
   inkscape:connector-curvature="0"
   style="fill:#000000;stroke:none" />
         <path
   d="m 10891,14765 v 0 -20 l -5,-23 -3,-21 -3,-20 h -15 l 3,20 2,21 v 23 20 0 0 l 3,7 7,3 8,-3 z"
   id="path318"
   inkscape:connector-curvature="0"
   style="fill:#000000;stroke:none" />
         <path
   d="m 10886,14841 h 2 l -2,-18 2,-17 3,-21 v -20 h -21 v 20 l 3,21 -3,17 -2,18 h 2 -2 l 2,8 8,2 8,-2 2,-8 z"
   id="path320"
   inkscape:connector-curvature="0"
   style="fill:#000000;stroke:none" />
         <path
   d="m 10865,15212 v 0 l 5,-119 5,-104 5,-84 6,-64 h -16 l -5,64 -5,84 -5,104 -5,119 v 0 0 l 3,5 5,3 5,-3 z"
   id="path322"
   inkscape:connector-curvature="0"
   style="fill:#000000;stroke:none" />
         <path
   d="m 10860,15360 v 0 l 5,-38 v -36 -38 -36 h -15 l -5,36 v 38 36 38 0 h -3 l 3,7 8,3 7,-3 3,-7 z"
   id="path324"
   inkscape:connector-curvature="0"
   style="fill:#000000;stroke:none" />
         <path
   d="m 10850,16000 8,-7 -3,-125 v -155 -173 l 5,-180 h -15 l -5,180 -5,173 v 155 l 7,125 8,-8 -8,8 3,5 5,2 5,-2 3,-5 z"
   id="path326"
   inkscape:connector-curvature="0"
   style="fill:#000000;stroke:none" />
         <path
   d="m 10746,16021 v 0 l 15,-3 13,-3 15,-2 13,-3 12,-2 13,-3 10,-2 13,-3 v -15 l -13,2 -10,3 -13,3 -12,2 -13,3 -15,2 -13,3 -15,2 v 0 0 l -5,3 -3,5 3,5 z"
   id="path328"
   inkscape:connector-curvature="0"
   style="fill:#000000;stroke:none" />
         <path
   d="m 10606,16046 v 0 l 17,-3 21,-2 18,-5 17,-3 16,-2 18,-5 17,-3 16,-2 v -16 l -16,3 -17,2 -18,5 -16,3 -17,3 -18,5 -21,2 -17,3 v 0 0 l -5,2 -3,5 3,5 z"
   id="path330"
   inkscape:connector-curvature="0"
   style="fill:#000000;stroke:none" />
         <path
   d="m 10343,16066 v 3 h 34 l 33,-3 h 33 l 33,-5 33,-2 33,-5 31,-3 33,-5 v -15 l -33,5 -31,2 -33,5 -33,3 h -33 -33 l -33,2 h -34 v 3 -3 l -7,3 -3,8 3,7 7,3 z"
   id="path332"
   inkscape:connector-curvature="0"
   style="fill:#000000;stroke:none" />
         <path
   d="m 10193,16048 h 3 l 18,3 17,5 18,3 18,2 h 18 l 20,3 18,2 h 20 v -15 h -20 l -18,-3 -20,-2 h -18 l -18,-3 -18,-2 -17,-5 -18,-3 h 2 -2 l -5,3 -3,5 3,5 5,2 z"
   id="path334"
   inkscape:connector-curvature="0"
   style="fill:#000000;stroke:none" />
         <path
   d="m 10092,15998 2,7 10,8 13,5 13,8 12,5 11,5 15,5 13,2 12,5 5,-15 -12,-5 -13,-2 -15,-5 -11,-6 -12,-5 -13,-7 -8,-5 -10,-8 3,8 -3,-8 h -7 l -5,3 -3,7 5,5 z"
   id="path336"
   inkscape:connector-curvature="0"
   style="fill:#000000;stroke:none" />
         <path
   d="m 10117,15583 -10,8 -3,66 -5,117 -2,125 -5,99 h 15 l 5,-99 2,-125 6,-117 2,-66 -10,8 10,-8 -2,-5 -6,-3 -5,3 -2,5 z"
   id="path338"
   inkscape:connector-curvature="0"
   style="fill:#000000;stroke:none" />
         <path
   d="m 10203,15571 v 0 l -2,5 -5,2 -13,5 -10,3 -15,2 h -18 l -13,-2 -10,-3 -5,16 15,2 13,3 h 18 l 15,-3 15,-2 13,-6 15,-7 3,-15 v 0 z"
   id="path340"
   inkscape:connector-curvature="0"
   style="fill:#000000;stroke:none" />
         <path
   d="m 10216,15210 h 3 l -3,73 -5,115 -2,112 -6,61 h 16 l 5,-61 2,-112 5,-115 3,-73 h 3 z"
   id="path342"
   inkscape:connector-curvature="0"
   style="fill:#000000;stroke:none" />
         <path
   d="m 10224,14668 -5,5 v 120 168 l -3,157 v 92 h 21 v -92 l 2,-157 v -168 -120 l -5,5 5,-5 -2,-7 -8,-3 -8,3 -2,7 z"
   id="path344"
   inkscape:connector-curvature="0"
   style="fill:#000000;stroke:none" />
         <path
   d="m 10343,16059 h -20 l -18,-3 -20,-2 h -18 l -18,-3 -18,-3 -17,-5 -18,-2 -13,-5 -13,-3 -15,-5 -10,-5 -13,-5 -12,-8 -11,-5 -10,-7 5,-99 3,-125 5,-117 2,-66 13,2 13,3 h 18 l 15,-3 13,-2 12,-5 11,-5 2,-10 5,-61 3,-112 5,-115 2,-73 41,-66 43,-64 46,-66 46,-69 41,-73 33,-82 28,-86 15,-99 10,5 8,5 8,5 7,5 3,-5 5,-5 7,-8 8,-7 3,48 -3,48 -5,49 -5,40 36,59 38,45 43,41 43,41 41,43 38,51 31,63 23,84 -3,36 v 38 36 l -2,38 -23,-61 -28,-64 -36,-66 -38,-69 -41,-66 -46,-66 -46,-61 -48,-58 -33,89 -43,119 -51,145 -46,163 -36,175 -23,178 v 175 z"
   id="path346"
   inkscape:connector-curvature="0"
   style="fill:#26d8d8;stroke:none" />
         <path
   d="m 10193,16048 h 3 l 18,3 17,5 18,3 18,2 h 18 l 20,3 18,2 h 20 v -15 h -20 l -18,-3 -20,-2 h -18 l -18,-3 -18,-2 -17,-5 -18,-3 h 2 -2 l -5,3 -3,5 3,5 5,2 z"
   id="path348"
   inkscape:connector-curvature="0"
   style="fill:#000000;stroke:none" />
         <path
   d="m 10092,15998 2,7 10,8 13,5 13,8 12,5 11,5 15,5 13,2 12,5 5,-15 -12,-5 -13,-2 -15,-5 -11,-6 -12,-5 -13,-7 -8,-5 -10,-8 3,8 -3,-8 h -7 l -5,3 -3,7 5,5 z"
   id="path350"
   inkscape:connector-curvature="0"
   style="fill:#000000;stroke:none" />
         <path
   d="m 10117,15583 -10,8 -3,66 -5,117 -2,125 -5,99 h 15 l 5,-99 2,-125 6,-117 2,-66 -10,8 10,-8 -2,-5 -6,-3 -5,3 -2,5 z"
   id="path352"
   inkscape:connector-curvature="0"
   style="fill:#000000;stroke:none" />
         <path
   d="m 10203,15571 v 0 l -2,5 -5,2 -13,5 -10,3 -15,2 h -18 l -13,-2 -10,-3 -5,16 15,2 13,3 h 18 l 15,-3 15,-2 13,-6 15,-7 3,-15 v 0 z"
   id="path354"
   inkscape:connector-curvature="0"
   style="fill:#000000;stroke:none" />
         <path
   d="m 10219,15205 v 5 l -3,73 -5,115 -2,112 -6,61 h 16 l 5,-61 2,-112 5,-115 3,-73 v 5 l 3,-5 -3,-8 -8,-2 -7,2 -3,8 z"
   id="path356"
   inkscape:connector-curvature="0"
   style="fill:#000000;stroke:none" />
         <path
   d="m 10522,14597 -11,8 -15,99 -28,84 -33,81 -41,71 -45,69 -46,66 -44,64 -40,66 15,10 41,-66 43,-64 46,-66 46,-69 40,-76 33,-81 28,-89 16,-99 -10,7 10,-7 -3,-5 -5,-3 -5,3 -3,5 z"
   id="path358"
   inkscape:connector-curvature="0"
   style="fill:#000000;stroke:none" />
         <path
   d="m 10545,14623 12,-6 -7,-5 -8,-5 -10,-5 -10,-5 -5,15 10,5 5,6 7,5 8,5 13,-5 -13,5 h 8 l 5,-5 2,-5 -5,-6 z"
   id="path360"
   inkscape:connector-curvature="0"
   style="fill:#000000;stroke:none" />
         <path
   d="m 10583,14600 -13,-8 -8,10 -7,8 -8,5 -2,8 15,5 2,-3 3,-5 8,-8 7,-5 -13,-7 13,7 5,-5 -2,-7 -5,-3 h -8 z"
   id="path362"
   inkscape:connector-curvature="0"
   style="fill:#000000;stroke:none" />
         <path
   d="m 10573,14783 v 2 l 5,-40 5,-49 5,-48 -5,-48 h -16 v 48 48 l -5,49 -5,40 v 3 -3 l 3,5 5,3 5,-3 3,-5 z"
   id="path364"
   inkscape:connector-curvature="0"
   style="fill:#000000;stroke:none" />
         <path
   d="m 10865,15212 v 0 l -23,-86 -30,-66 -38,-51 -44,-43 -43,-41 -43,-41 -36,-45 -35,-56 -16,5 36,61 41,45 43,41 43,41 38,43 39,51 30,61 23,81 v 0 0 l 3,5 5,3 5,-3 z"
   id="path366"
   inkscape:connector-curvature="0"
   style="fill:#000000;stroke:none" />
         <path
   d="m 10845,15362 15,-2 5,-38 v -36 -38 -36 h -15 l -5,36 v 38 36 38 l 15,-3 -18,3 3,7 8,3 7,-3 3,-7 z"
   id="path368"
   inkscape:connector-curvature="0"
   style="fill:#000000;stroke:none" />
         <path
   d="m 10555,14851 -16,3 49,58 46,61 45,66 41,66 38,67 36,66 28,63 23,61 15,-5 -23,-61 -28,-63 -35,-67 -39,-71 -40,-66 -46,-66 -46,-61 -48,-58 -16,2 16,-2 -5,-5 -5,2 -6,5 v 8 z"
   id="path370"
   inkscape:connector-curvature="0"
   style="fill:#000000;stroke:none" />
         <path
   d="m 10343,16066 8,-10 -28,-163 v -175 l 23,-178 36,-175 45,-160 51,-145 44,-120 33,-89 -16,-5 -33,89 -43,120 -51,145 -46,165 -35,175 -23,178 v 175 l 28,168 7,-10 -7,10 5,5 h 5 l 5,-2 v -8 z"
   id="path372"
   inkscape:connector-curvature="0"
   style="fill:#000000;stroke:none" />
         <path
   d="m 10880,14765 v -20 l -2,-23 -3,-21 -2,-20 23,-5 20,-10 20,-16 18,-15 16,-20 12,-20 10,-21 6,-23 12,28 13,26 8,23 2,20 -13,25 -17,23 -21,18 -20,18 -20,15 -23,10 -21,5 z"
   id="path374"
   inkscape:connector-curvature="0"
   style="fill:#e0b71e;stroke:none" />
         <path
   d="m 10873,14673 -8,8 3,20 2,21 v 23 20 h 21 v -20 l -5,-23 -3,-21 -3,-20 -7,8 7,-8 -2,-5 -5,-3 -5,3 -3,5 z"
   id="path376"
   inkscape:connector-curvature="0"
   style="fill:#000000;stroke:none" />
         <path
   d="m 11005,14549 -15,2 -5,21 -10,20 -13,18 -13,20 -18,13 -20,15 -18,10 -20,5 v 16 l 25,-5 23,-11 21,-15 17,-18 18,-20 13,-23 10,-20 5,-26 -15,3 15,-3 -2,-5 -5,-2 -6,2 -2,5 z"
   id="path378"
   inkscape:connector-curvature="0"
   style="fill:#000000;stroke:none" />
         <path
   d="m 11041,14650 v -2 l -3,-20 -7,-26 -13,-25 -13,-28 -15,5 13,28 12,25 8,21 3,20 v -3 3 l 2,5 5,3 5,-3 3,-5 z"
   id="path380"
   inkscape:connector-curvature="0"
   style="fill:#000000;stroke:none" />
         <path
   d="m 10870,14765 10,10 18,-5 23,-5 26,-10 20,-16 20,-17 21,-21 20,-23 13,-28 -15,-5 -13,23 -15,23 -21,15 -20,18 -21,15 -20,11 -18,5 h -18 l 11,10 -11,-10 -7,2 -3,8 3,7 7,3 z"
   id="path382"
   inkscape:connector-curvature="0"
   style="fill:#000000;stroke:none" />
         <path
   d="m 10791,14335 -20,-12 -20,-13 -21,-10 -17,-10 -21,-11 -20,-7 -18,-8 -20,-5 -8,20 -18,18 -30,15 -36,5 -41,3 -40,-8 -39,-17 -33,-26 -15,5 -15,8 -16,8 -17,5 -18,7 -15,8 -16,10 -15,8 18,17 25,18 26,15 30,16 33,12 33,11 39,7 38,5 38,3 h 38 l 38,-5 39,-10 38,-13 33,-18 33,-23 z"
   id="path384"
   inkscape:connector-curvature="0"
   style="fill:#e0b71e;stroke:none" />
         <path
   d="m 10641,14259 -7,8 17,5 18,7 21,8 20,10 18,10 20,10 18,13 20,13 11,-15 -21,-13 -23,-13 -20,-10 -18,-10 -20,-10 -21,-8 -17,-8 -23,-5 -8,8 8,-8 -5,3 -3,5 3,5 5,3 z"
   id="path386"
   inkscape:connector-curvature="0"
   style="fill:#000000;stroke:none" />
         <path
   d="m 10392,14277 -8,-3 33,28 41,18 43,8 41,-3 38,-5 33,-15 21,-21 7,-25 h -15 l -8,15 -15,16 -28,15 -33,5 -41,2 -38,-7 -36,-18 -33,-23 -7,-2 7,2 -5,-2 -2,2 -3,5 v 5 z"
   id="path388"
   inkscape:connector-curvature="0"
   style="fill:#000000;stroke:none" />
         <path
   d="m 10267,14323 v 12 l 15,-7 16,-11 12,-7 18,-8 18,-5 15,-7 16,-8 15,-5 -5,-15 -16,5 -15,7 -15,8 -18,5 -18,8 -18,7 -15,10 -15,8 v 13 -13 l -5,5 2,5 5,5 h 8 z"
   id="path390"
   inkscape:connector-curvature="0"
   style="fill:#000000;stroke:none" />
         <path
   d="m 10786,14343 v -13 l -30,26 -33,22 -31,18 -38,13 -36,10 -38,5 -38,-2 h -38 l -38,-5 -39,-8 -30,-10 -33,-13 -31,-15 -23,-15 -25,-18 -18,-15 -10,10 18,20 25,18 28,15 31,15 33,13 35,10 39,8 38,5 38,5 38,-3 38,-5 41,-10 38,-12 36,-18 33,-23 31,-31 v -12 12 l 2,-5 -2,-5 -6,-2 -5,2 z"
   id="path392"
   inkscape:connector-curvature="0"
   style="fill:#000000;stroke:none" />
         <path
   d="m 10198,16074 -2,5 -5,5 -8,5 -8,3 18,10 21,7 20,11 20,7 18,10 18,6 15,5 10,2 3,-10 3,-10 5,-10 2,-11 -15,-2 -18,-3 -18,-2 -20,-5 -18,-5 -15,-5 -15,-5 z"
   id="path394"
   inkscape:connector-curvature="0"
   style="fill:#e0b71e;stroke:none" />
         <path
   d="m 10178,16084 v 15 l 8,-2 10,-5 7,-8 6,-10 h -21 v 0 l -2,2 -5,6 -8,2 v 15 -15 l -5,3 v 7 l 2,5 h 8 z"
   id="path396"
   inkscape:connector-curvature="0"
   style="fill:#000000;stroke:none" />
         <path
   d="m 10308,16150 7,-7 -7,-3 -15,-5 -18,-5 -18,-10 -20,-8 -21,-10 -20,-8 -18,-10 -5,15 18,10 20,8 20,10 21,8 18,10 17,5 16,5 12,3 8,-8 -8,8 6,-3 2,-5 -2,-5 -6,-2 z"
   id="path398"
   inkscape:connector-curvature="0"
   style="fill:#000000;stroke:none" />
         <path
   d="m 10328,16117 -7,-10 -3,10 -5,10 -3,13 -2,10 h 15 l 3,-10 2,-8 5,-10 3,-10 -8,-10 8,10 v -8 l -5,-2 h -5 l -5,5 z"
   id="path400"
   inkscape:connector-curvature="0"
   style="fill:#000000;stroke:none" />
         <path
   d="m 10209,16074 -16,8 13,7 15,5 16,5 17,5 23,5 18,3 18,3 15,2 v -15 l -15,-3 -18,-2 -18,-3 -18,-5 -17,-5 -16,-5 -15,-5 -8,-8 -15,8 15,-8 h -7 l -5,3 -3,7 5,6 z"
   id="path402"
   inkscape:connector-curvature="0"
   style="fill:#000000;stroke:none" />
         <path
   d="m 10366,14363 11,-2 10,-5 5,-8 2,-13 -2,-10 -5,-10 -8,-5 -13,-3 -10,3 -10,5 -5,10 -3,10 3,10 5,11 10,5 z"
   id="path404"
   inkscape:connector-curvature="0"
   style="fill:#d80000;stroke:none" />
         <path
   d="m 10384,14335 v 0 10 l -2,3 -8,5 h -8 v 20 l 13,-5 13,-5 7,-12 6,-16 v 0 z"
   id="path406"
   inkscape:connector-curvature="0"
   style="fill:#000000;stroke:none" />
         <path
   d="m 10366,14317 v 0 h 11 l 2,3 5,8 v 7 h 21 l -6,-12 -5,-13 -12,-8 -16,-5 v 0 z"
   id="path408"
   inkscape:connector-curvature="0"
   style="fill:#000000;stroke:none" />
         <path
   d="m 10349,14335 v 0 -7 l 2,-8 8,-3 h 7 v -20 l -12,5 -13,8 -8,13 -5,12 v 0 z"
   id="path410"
   inkscape:connector-curvature="0"
   style="fill:#000000;stroke:none" />
         <path
   d="m 10366,14353 v 0 h -7 l -8,-2 -2,-8 v -8 h -21 l 5,13 8,13 13,7 12,5 v 0 z"
   id="path412"
   inkscape:connector-curvature="0"
   style="fill:#000000;stroke:none" />
         <path
   d="m 10453,14391 h 13 l 10,-5 5,-10 2,-10 -2,-13 -5,-10 -10,-5 -11,-3 -10,3 -10,5 -5,10 -3,10 v 10 l 6,11 10,5 z"
   id="path414"
   inkscape:connector-curvature="0"
   style="fill:#d80000;stroke:none" />
         <path
   d="m 10473,14366 v 0 7 l -2,8 -5,3 h -13 v 15 h 13 l 15,-8 8,-13 5,-12 v 0 z"
   id="path416"
   inkscape:connector-curvature="0"
   style="fill:#000000;stroke:none" />
         <path
   d="m 10455,14345 v 0 h 8 l 8,3 2,8 v 10 h 21 l -5,-15 -8,-13 -13,-8 -13,-5 v 0 z"
   id="path418"
   inkscape:connector-curvature="0"
   style="fill:#000000;stroke:none" />
         <path
   d="m 10435,14363 h 3 v -7 l 2,-8 8,-3 h 7 v -20 l -12,5 -13,8 -8,13 -5,12 h 3 z"
   id="path420"
   inkscape:connector-curvature="0"
   style="fill:#000000;stroke:none" />
         <path
   d="m 10453,14384 v -3 h -8 l -7,-3 -3,-5 v -10 h -15 v 10 l 7,16 13,7 13,5 v -2 z"
   id="path422"
   inkscape:connector-curvature="0"
   style="fill:#000000;stroke:none" />
         <path
   d="m 10539,14401 11,-2 10,-5 7,-10 3,-11 -3,-10 -5,-10 -10,-8 -10,-2 -10,2 -10,6 -8,10 -3,10 3,10 5,10 10,8 z"
   id="path424"
   inkscape:connector-curvature="0"
   style="fill:#d80000;stroke:none" />
         <path
   d="m 10560,14373 h 2 l -2,8 -5,5 -8,5 h -8 v 21 l 13,-6 13,-5 10,-15 3,-13 h 2 z"
   id="path426"
   inkscape:connector-curvature="0"
   style="fill:#000000;stroke:none" />
         <path
   d="m 10542,14353 v 0 h 8 l 5,5 5,8 v 7 h 20 l -5,-12 -5,-13 -15,-10 -13,-5 v 0 z"
   id="path428"
   inkscape:connector-curvature="0"
   style="fill:#000000;stroke:none" />
         <path
   d="m 10522,14371 v 0 -8 l 5,-5 7,-5 h 8 v -20 l -13,5 -12,5 -11,15 -5,13 v 0 z"
   id="path430"
   inkscape:connector-curvature="0"
   style="fill:#000000;stroke:none" />
         <path
   d="m 10539,14391 v 3 l -7,-3 -5,-5 -5,-8 v -7 h -21 l 5,13 5,12 16,10 12,3 v 3 z"
   id="path432"
   inkscape:connector-curvature="0"
   style="fill:#000000;stroke:none" />
         <path
   d="m 10623,14384 11,-3 10,-5 7,-10 3,-10 -3,-11 -5,-10 -10,-7 -10,-3 -10,3 -10,5 -8,10 -3,10 3,10 5,10 10,8 z"
   id="path434"
   inkscape:connector-curvature="0"
   style="fill:#d80000;stroke:none" />
         <path
   d="m 10644,14356 v 0 7 l -5,5 -8,5 h -8 v 21 l 13,-5 13,-5 10,-16 5,-12 v 0 z"
   id="path436"
   inkscape:connector-curvature="0"
   style="fill:#000000;stroke:none" />
         <path
   d="m 10626,14335 v -2 l 8,2 5,5 5,8 v 8 h 20 l -5,-13 -5,-13 -15,-10 -13,-3 v -2 z"
   id="path438"
   inkscape:connector-curvature="0"
   style="fill:#000000;stroke:none" />
         <path
   d="m 10606,14353 h -3 l 3,-8 5,-5 7,-5 h 8 v -20 l -13,5 -12,5 -11,15 -2,13 h -3 z"
   id="path440"
   inkscape:connector-curvature="0"
   style="fill:#000000;stroke:none" />
         <path
   d="m 10623,14373 v 0 h -7 l -5,-5 -5,-7 v -8 h -21 l 5,13 5,12 16,11 12,5 v 0 z"
   id="path442"
   inkscape:connector-curvature="0"
   style="fill:#000000;stroke:none" />
         <path
   d="m 10707,14351 13,-3 10,-5 5,-8 3,-12 -3,-11 -5,-10 -10,-5 -10,-2 -10,2 -10,5 -5,10 -3,11 v 10 l 5,10 10,5 z"
   id="path444"
   inkscape:connector-curvature="0"
   style="fill:#d80000;stroke:none" />
         <path
   d="m 10728,14323 v 0 10 l -3,2 -7,5 h -11 v 21 l 16,-5 12,-5 8,-13 5,-15 v 0 z"
   id="path446"
   inkscape:connector-curvature="0"
   style="fill:#000000;stroke:none" />
         <path
   d="m 10710,14305 v 0 h 8 l 7,2 3,8 v 8 h 20 l -5,-13 -8,-13 -12,-7 -13,-6 v 0 z"
   id="path448"
   inkscape:connector-curvature="0"
   style="fill:#000000;stroke:none" />
         <path
   d="m 10690,14323 h 2 v -8 l 3,-8 7,-2 h 8 v -21 l -13,6 -12,7 -8,13 -5,13 h 2 z"
   id="path450"
   inkscape:connector-curvature="0"
   style="fill:#000000;stroke:none" />
         <path
   d="m 10707,14340 v 0 h -7 l -8,-2 -2,-5 v -10 h -16 v 10 l 8,15 13,8 12,5 v 0 z"
   id="path452"
   inkscape:connector-curvature="0"
   style="fill:#000000;stroke:none" />
         <path
   d="m 10114,15591 13,2 13,3 h 18 l 15,-3 13,-2 12,-5 11,-5 2,-10 5,-61 3,-112 5,-115 2,-73 v -92 l 3,-157 v -168 -120 l 10,-328 -36,33 -38,41 -40,48 -41,56 -41,64 -41,76 -38,87 -38,99 v 30 l -2,61 v 82 l -3,96 -3,176 -2,167 -3,132 v 67 h 28 l 28,2 h 26 25 l 21,-2 h 17 l 8,-3 3,-5 -11,-13 -10,-20 -7,-15 2,-8 13,-3 18,-2 h 20 z"
   id="path454"
   inkscape:connector-curvature="0"
   style="fill:#d80000;stroke:none" />
         <path
   d="m 10203,15571 v 0 l -2,5 -5,2 -13,5 -10,3 -15,2 h -18 l -13,-2 -10,-3 -5,16 15,2 13,3 h 18 l 15,-3 15,-2 13,-6 15,-7 3,-15 v 0 z"
   id="path456"
   inkscape:connector-curvature="0"
   style="fill:#000000;stroke:none" />
         <path
   d="m 10216,15210 h 3 l -3,73 -5,115 -2,112 -6,61 h 16 l 5,-61 2,-112 5,-115 3,-73 h 3 z"
   id="path458"
   inkscape:connector-curvature="0"
   style="fill:#000000;stroke:none" />
         <path
   d="m 10221,14673 h -2 v 120 168 l -3,157 v 92 h 21 v -92 l 2,-157 v -168 -120 h -2 2 l -2,-7 -8,-3 -8,3 -2,7 z"
   id="path460"
   inkscape:connector-curvature="0"
   style="fill:#000000;stroke:none" />
         <path
   d="m 10244,14353 -13,-8 -10,328 h 16 l 10,-328 -13,-7 13,7 -3,-5 -5,-2 -5,2 -3,5 z"
   id="path462"
   inkscape:connector-curvature="0"
   style="fill:#000000;stroke:none" />
         <path
   d="m 9936,14849 -2,2 38,-99 38,-86 41,-74 41,-64 40,-55 38,-49 39,-40 35,-31 -10,-15 -36,35 -38,41 -43,48 -41,56 -40,64 -41,79 -38,86 -39,99 -2,3 2,-3 v 8 l 6,2 h 7 l 3,-5 z"
   id="path464"
   inkscape:connector-curvature="0"
   style="fill:#000000;stroke:none" />
         <path
   d="m 9931,15118 h -2 l 5,-96 v -82 l 2,-61 v -30 h -20 v 30 l -3,61 v 82 96 h -2 v 0 l 2,8 8,2 8,-2 z"
   id="path466"
   inkscape:connector-curvature="0"
   style="fill:#000000;stroke:none" />
         <path
   d="m 9913,15652 11,8 v -67 l 2,-132 3,-167 2,-176 h -20 l -3,176 -2,167 -3,132 v 67 l 10,7 -10,-7 3,7 7,3 8,-3 3,-7 z"
   id="path468"
   inkscape:connector-curvature="0"
   style="fill:#000000;stroke:none" />
         <path
   d="m 10061,15657 v 0 -8 l -3,3 h -17 -21 -25 -26 l -28,-3 -28,3 v 15 l 28,3 28,2 h 26 25 l 21,-5 h 17 l 13,-2 5,-18 v 0 z"
   id="path470"
   inkscape:connector-curvature="0"
   style="fill:#000000;stroke:none" />
         <path
   d="m 10043,15588 v -2 l -10,18 8,17 10,23 10,13 15,-10 -10,-13 -10,-18 -8,-12 -5,2 v -2 z"
   id="path472"
   inkscape:connector-curvature="0"
   style="fill:#000000;stroke:none" />
         <path
   d="m 10117,15583 h -3 l -20,-2 -20,2 -18,3 -13,2 v 16 l 13,-3 18,-2 20,2 20,-2 h -2 2 l 6,-3 2,-5 -2,-5 -6,-3 z"
   id="path474"
   inkscape:connector-curvature="0"
   style="fill:#000000;stroke:none" />
        </g>
       </g>
      </g>
     </g>
    </g>
   </g>
  </g>
 </g>
</svg>