<?xml version="1.0" encoding="UTF-8" standalone="no"?>
<svg
   xmlns:ooo="http://xml.openoffice.org/svg/export"
   xmlns:dc="http://purl.org/dc/elements/1.1/"
   xmlns:cc="http://creativecommons.org/ns#"
   xmlns:rdf="http://www.w3.org/1999/02/22-rdf-syntax-ns#"
   xmlns:svg="http://www.w3.org/2000/svg"
   xmlns="http://www.w3.org/2000/svg"
   xmlns:sodipodi="http://sodipodi.sourceforge.net/DTD/sodipodi-0.dtd"
   xmlns:inkscape="http://www.inkscape.org/namespaces/inkscape"
   version="1.2"
   width="14.88mm"
   height="26.870001mm"
   viewBox="0 0 1488 2687.0001"
   preserveAspectRatio="xMidYMid"
   xml:space="preserve"
   id="svg471"
   sodipodi:docname="people5.svg"
   style="fill-rule:evenodd;stroke-width:28.22200012;stroke-linejoin:round"
   inkscape:version="0.92.5 (2060ec1f9f, 2020-04-08)"><metadata
   id="metadata475"><rdf:RDF><cc:Work
       rdf:about=""><dc:format>image/svg+xml</dc:format><dc:type
         rdf:resource="http://purl.org/dc/dcmitype/StillImage" /></cc:Work></rdf:RDF></metadata><sodipodi:namedview
   pagecolor="#ffffff"
   bordercolor="#666666"
   borderopacity="1"
   objecttolerance="10"
   gridtolerance="10"
   guidetolerance="10"
   inkscape:pageopacity="0"
   inkscape:pageshadow="2"
   inkscape:window-width="664"
   inkscape:window-height="487"
   id="namedview473"
   showgrid="false"
   inkscape:zoom="0.2102413"
   inkscape:cx="28.119686"
   inkscape:cy="50.759054"
   inkscape:window-x="0"
   inkscape:window-y="0"
   inkscape:window-maximized="0"
   inkscape:current-layer="svg471" />
 <defs
   class="ClipPathGroup"
   id="defs8">
  <clipPath
   id="presentation_clip_path"
   clipPathUnits="userSpaceOnUse">
   <rect
   x="0"
   y="0"
   width="21000"
   height="29700"
   id="rect2" />
  </clipPath>
  <clipPath
   id="presentation_clip_path_shrink"
   clipPathUnits="userSpaceOnUse">
   <rect
   x="21"
   y="29"
   width="20958"
   height="29641"
   id="rect5" />
  </clipPath>
 </defs>
 <defs
   class="TextShapeIndex"
   id="defs12">
  <g
   ooo:slide="id1"
   ooo:id-list="id3"
   id="g10" />
 </defs>
 <defs
   class="EmbeddedBulletChars"
   id="defs44">
  <g
   id="bullet-char-template-57356"
   transform="matrix(4.8828125e-4,0,0,-4.8828125e-4,0,0)">
   <path
   d="M 580,1141 1163,571 580,0 -4,571 Z"
   id="path14"
   inkscape:connector-curvature="0" />
  </g>
  <g
   id="bullet-char-template-57354"
   transform="matrix(4.8828125e-4,0,0,-4.8828125e-4,0,0)">
   <path
   d="M 8,1128 H 1137 V 0 H 8 Z"
   id="path17"
   inkscape:connector-curvature="0" />
  </g>
  <g
   id="bullet-char-template-10146"
   transform="matrix(4.8828125e-4,0,0,-4.8828125e-4,0,0)">
   <path
   d="M 174,0 602,739 174,1481 1456,739 Z M 1358,739 309,1346 659,739 Z"
   id="path20"
   inkscape:connector-curvature="0" />
  </g>
  <g
   id="bullet-char-template-10132"
   transform="matrix(4.8828125e-4,0,0,-4.8828125e-4,0,0)">
   <path
   d="M 2015,739 1276,0 H 717 l 543,543 H 174 v 393 h 1086 l -543,545 h 557 z"
   id="path23"
   inkscape:connector-curvature="0" />
  </g>
  <g
   id="bullet-char-template-10007"
   transform="matrix(4.8828125e-4,0,0,-4.8828125e-4,0,0)">
   <path
   d="m 0,-2 c -7,16 -16,29 -25,39 l 381,530 c -94,256 -141,385 -141,387 0,25 13,38 40,38 9,0 21,-2 34,-5 21,4 42,12 65,25 l 27,-13 111,-251 280,301 64,-25 24,25 c 21,-10 41,-24 62,-43 C 886,937 835,863 770,784 769,783 710,716 594,584 L 774,223 c 0,-27 -21,-55 -63,-84 l 16,-20 C 717,90 699,76 672,76 641,76 570,178 457,381 L 164,-76 c -22,-34 -53,-51 -92,-51 -42,0 -63,17 -64,51 -7,9 -10,24 -10,44 0,9 1,19 2,30 z"
   id="path26"
   inkscape:connector-curvature="0" />
  </g>
  <g
   id="bullet-char-template-10004"
   transform="matrix(4.8828125e-4,0,0,-4.8828125e-4,0,0)">
   <path
   d="M 285,-33 C 182,-33 111,30 74,156 52,228 41,333 41,471 c 0,78 14,145 41,201 34,71 87,106 158,106 53,0 88,-31 106,-94 l 23,-176 c 8,-64 28,-97 59,-98 l 735,706 c 11,11 33,17 66,17 42,0 63,-15 63,-46 V 965 c 0,-36 -10,-64 -30,-84 L 442,47 C 390,-6 338,-33 285,-33 Z"
   id="path29"
   inkscape:connector-curvature="0" />
  </g>
  <g
   id="bullet-char-template-9679"
   transform="matrix(4.8828125e-4,0,0,-4.8828125e-4,0,0)">
   <path
   d="M 813,0 C 632,0 489,54 383,161 276,268 223,411 223,592 c 0,181 53,324 160,431 106,107 249,161 430,161 179,0 323,-54 432,-161 108,-107 162,-251 162,-431 0,-180 -54,-324 -162,-431 C 1136,54 992,0 813,0 Z"
   id="path32"
   inkscape:connector-curvature="0" />
  </g>
  <g
   id="bullet-char-template-8226"
   transform="matrix(4.8828125e-4,0,0,-4.8828125e-4,0,0)">
   <path
   d="m 346,457 c -73,0 -137,26 -191,78 -54,51 -81,114 -81,188 0,73 27,136 81,188 54,52 118,78 191,78 73,0 134,-26 185,-79 51,-51 77,-114 77,-187 0,-75 -25,-137 -76,-188 -50,-52 -112,-78 -186,-78 z"
   id="path35"
   inkscape:connector-curvature="0" />
  </g>
  <g
   id="bullet-char-template-8211"
   transform="matrix(4.8828125e-4,0,0,-4.8828125e-4,0,0)">
   <path
   d="M -4,459 H 1135 V 606 H -4 Z"
   id="path38"
   inkscape:connector-curvature="0" />
  </g>
  <g
   id="bullet-char-template-61548"
   transform="matrix(4.8828125e-4,0,0,-4.8828125e-4,0,0)">
   <path
   d="m 173,740 c 0,163 58,303 173,419 116,115 255,173 419,173 163,0 302,-58 418,-173 116,-116 174,-256 174,-419 0,-163 -58,-303 -174,-418 C 1067,206 928,148 765,148 601,148 462,206 346,322 231,437 173,577 173,740 Z"
   id="path41"
   inkscape:connector-curvature="0" />
  </g>
 </defs>
 <g
   id="g49"
   transform="translate(-9756,-13506)">
  <g
   id="id2"
   class="Master_Slide">
   <g
   id="bg-id2"
   class="Background" />
   <g
   id="bo-id2"
   class="BackgroundObjects" />
  </g>
 </g>
 <g
   class="SlideGroup"
   id="g469"
   transform="translate(-9756,-13506)">
  <g
   id="g467">
   <g
   id="container-id1">
    <g
   id="id1"
   class="Slide"
   clip-path="url(#presentation_clip_path)">
     <g
   class="Page"
   id="g463">
      <g
   class="Graphic"
   id="g461">
       <g
   id="id3">
        <rect
   class="BoundingBox"
   x="9756"
   y="13506"
   width="1488"
   height="2687"
   id="rect51"
   style="fill:none;stroke:none" />
        <defs
   id="defs56">
         <clipPath
   id="clip_path_1"
   clipPathUnits="userSpaceOnUse">
          <path
   d="m 9756,13506 h 1487 v 2686 H 9756 Z"
   id="path53"
   inkscape:connector-curvature="0" />
         </clipPath>
        </defs>
        <g
   clip-path="url(#clip_path_1)"
   id="g458">
         <path
   d="m 10176,13793 v -10 l 2,-10 v -8 l 3,-10 10,-38 15,-36 23,-35 26,-33 33,-31 38,-25 46,-20 50,-13 44,-3 43,5 46,16 43,22 41,31 35,38 28,46 18,53 5,36 3,38 -5,43 -11,43 -2,11 -3,10 -5,12 -5,11 -5,15 -8,15 -7,15 -8,16 -2,5 -3,5 -2,5 -3,5 -15,25 -18,23 -20,21 -21,15 5,41 3,38 2,33 3,25 -13,31 -28,20 -38,13 -43,5 -43,-5 -44,-13 -38,-23 -25,-30 7,-28 11,-33 7,-26 3,-13 -13,-12 -15,-16 -13,-12 -15,-15 -13,-16 -15,-15 -13,-15 -13,-15 -2,-3 -3,-5 -2,-3 -3,-2 -20,-31 -18,-33 -13,-35 -7,-33 -3,-21 v -18 -20 z"
   id="path58"
   inkscape:connector-curvature="0"
   style="fill:#d89972;stroke:none" />
         <path
   d="m 10173,13755 v 0 l -2,10 v 8 l -3,10 -2,10 h 20 l -3,-10 3,-10 v -8 l 2,-10 v 0 z"
   id="path60"
   inkscape:connector-curvature="0"
   style="fill:#000000;stroke:none" />
         <path
   d="m 10422,13516 v 0 l -53,13 -46,20 -40,26 -34,33 -28,33 -22,38 -16,35 -10,41 h 15 l 11,-35 15,-36 23,-33 23,-33 33,-28 35,-26 46,-20 48,-13 v 0 z"
   id="path62"
   inkscape:connector-curvature="0"
   style="fill:#000000;stroke:none" />
         <path
   d="m 10728,13732 v 0 l -18,-56 -28,-48 -38,-38 -41,-33 -46,-23 -48,-15 -43,-8 -44,5 v 15 h 44 l 43,3 43,15 41,23 41,28 33,38 28,43 17,51 v 0 z"
   id="path64"
   inkscape:connector-curvature="0"
   style="fill:#000000;stroke:none" />
         <path
   d="m 10720,13892 v 3 l 10,-46 8,-43 -5,-38 -5,-36 h -16 l 5,36 v 38 l -2,43 -10,41 v 2 z"
   id="path66"
   inkscape:connector-curvature="0"
   style="fill:#000000;stroke:none" />
         <path
   d="m 10705,13938 v 0 l 5,-10 5,-13 2,-12 3,-11 h -15 l -3,11 -2,7 -5,13 -6,10 v 0 z"
   id="path68"
   inkscape:connector-curvature="0"
   style="fill:#000000;stroke:none" />
         <path
   d="m 10677,13999 v 3 l 7,-18 8,-15 8,-16 5,-15 -16,-5 -5,15 -7,16 -8,15 -7,13 v 2 -2 7 l 5,5 5,3 5,-5 z"
   id="path70"
   inkscape:connector-curvature="0"
   style="fill:#000000;stroke:none" />
         <path
   d="m 10667,14020 v 2 l 2,-8 3,-5 2,-5 3,-5 -15,-5 -3,5 -3,5 -2,5 -3,3 v 2 -2 8 l 5,5 6,2 5,-5 z"
   id="path72"
   inkscape:connector-curvature="0"
   style="fill:#000000;stroke:none" />
         <path
   d="m 10593,14101 -3,7 21,-15 20,-23 20,-23 16,-27 -16,-6 -15,23 -15,23 -21,18 -20,15 -2,8 2,-8 -5,5 3,5 5,5 h 7 z"
   id="path74"
   inkscape:connector-curvature="0"
   style="fill:#000000;stroke:none" />
         <path
   d="m 10606,14238 v 0 l -3,-25 -3,-33 -2,-38 -5,-41 h -15 l 5,41 2,38 3,33 2,25 v 0 0 l 3,5 5,3 5,-3 z"
   id="path76"
   inkscape:connector-curvature="0"
   style="fill:#000000;stroke:none" />
         <path
   d="m 10318,14233 v 5 l 28,36 41,23 46,12 43,8 43,-8 41,-12 33,-23 13,-36 h -16 l -12,26 -23,17 -36,13 -43,3 -43,-3 -41,-13 -36,-23 -23,-25 v 5 -5 l -2,-5 h -8 l -5,2 v 8 z"
   id="path78"
   inkscape:connector-curvature="0"
   style="fill:#000000;stroke:none" />
         <path
   d="m 10349,14142 -3,-6 -2,11 -8,25 -10,33 -8,28 15,5 8,-28 10,-33 8,-25 2,-16 -2,-5 2,5 -2,-5 -5,-2 -5,2 -3,5 z"
   id="path80"
   inkscape:connector-curvature="0"
   style="fill:#000000;stroke:none" />
         <path
   d="m 10237,14022 v 3 l 12,15 16,15 15,15 13,16 15,15 13,13 15,15 13,13 10,-11 -13,-12 -15,-16 -13,-12 -15,-16 -13,-15 -15,-15 -10,-15 -13,-16 v 3 z"
   id="path82"
   inkscape:connector-curvature="0"
   style="fill:#000000;stroke:none" />
         <path
   d="m 10227,14012 v -3 l 5,5 v 3 l 2,5 h 3 l 15,-5 -3,-5 -2,-5 -5,-3 v 0 -2 z"
   id="path84"
   inkscape:connector-curvature="0"
   style="fill:#000000;stroke:none" />
         <path
   d="m 10168,13875 v 0 l 8,35 12,36 18,35 21,31 15,-10 -21,-31 -17,-30 -13,-36 -8,-30 v 0 z"
   id="path86"
   inkscape:connector-curvature="0"
   style="fill:#000000;stroke:none" />
         <path
   d="m 10166,13793 h 2 l -5,23 v 20 l 3,18 2,21 h 15 l -2,-21 2,-18 v -20 -23 h 3 z"
   id="path88"
   inkscape:connector-curvature="0"
   style="fill:#000000;stroke:none" />
         <path
   d="m 10585,16089 18,-3 20,-5 18,-5 21,-5 17,-8 18,-5 18,-7 18,-8 10,13 10,12 10,11 13,10 13,10 12,8 13,5 10,5 13,2 18,8 20,5 21,10 20,8 15,10 10,13 5,10 -28,2 h -43 l -53,3 h -59 -56 -51 -38 -20 l -5,-23 -5,-28 -3,-25 z"
   id="path90"
   inkscape:connector-curvature="0"
   style="fill:#d89972;stroke:none" />
         <path
   d="m 10740,16038 -10,-3 -18,8 -17,8 -18,5 -18,7 -20,5 -18,6 -18,5 -18,2 v 15 l 18,-2 23,-5 18,-5 20,-5 18,-8 18,-5 17,-8 18,-7 -10,-3 10,3 5,-5 v -6 l -2,-5 h -8 z"
   id="path92"
   inkscape:connector-curvature="0"
   style="fill:#000000;stroke:none" />
         <path
   d="m 10827,16109 v 0 l -10,-5 -13,-5 -10,-8 -13,-10 -13,-7 -10,-11 -7,-12 -11,-13 -15,10 10,13 13,13 10,10 13,12 13,11 15,7 13,5 10,5 v 0 z"
   id="path94"
   inkscape:connector-curvature="0"
   style="fill:#000000;stroke:none" />
         <path
   d="m 10946,16190 11,-7 -8,-15 -13,-13 -18,-13 -20,-7 -20,-11 -21,-5 -17,-7 -13,-3 -5,15 12,3 18,8 21,5 20,10 20,7 13,8 8,13 2,5 10,-8 -10,8 3,7 7,3 8,-3 3,-7 z"
   id="path96"
   inkscape:connector-curvature="0"
   style="fill:#000000;stroke:none" />
         <path
   d="m 10590,16190 8,8 h 20 38 51 56 59 l 53,-2 h 43 l 28,-6 v -15 h -28 -43 l -53,3 h -59 -56 -51 -38 -20 l 8,7 -8,-7 -8,2 -2,8 2,8 8,2 z"
   id="path98"
   inkscape:connector-curvature="0"
   style="fill:#000000;stroke:none" />
         <path
   d="m 10585,16081 -10,8 v 23 l 5,25 5,28 5,25 16,-5 -6,-20 -5,-28 v -25 -23 l -10,7 10,-7 -2,-8 -8,-2 -7,2 -3,8 z"
   id="path100"
   inkscape:connector-curvature="0"
   style="fill:#000000;stroke:none" />
         <path
   d="m 10880,14787 8,-33 10,-33 13,-33 13,-30 12,-33 13,-31 13,-25 12,-26 23,46 21,56 15,63 5,59 15,18 21,25 17,28 21,31 18,35 12,36 10,38 3,38 20,20 16,21 15,20 13,18 7,20 5,18 v 15 l -2,18 -10,30 -11,26 -12,18 -13,5 -10,-10 -3,-23 -2,-28 -10,-23 -13,-20 -15,-23 -18,-21 -18,-15 -15,-8 -18,-15 -20,-20 -21,-23 -18,-25 -15,-28 -10,-23 -3,-23 -15,-18 -15,-15 -13,-15 -13,-16 -10,-15 -10,-18 -10,-15 z"
   id="path102"
   inkscape:connector-curvature="0"
   style="fill:#d89972;stroke:none" />
         <path
   d="m 10982,14538 -15,3 -13,25 -13,25 -12,31 -13,33 -13,31 -13,33 -10,33 -7,35 h 15 l 8,-30 10,-33 12,-33 13,-31 13,-33 13,-30 12,-26 13,-25 -15,2 15,-2 v -8 l -5,-2 h -5 l -5,5 z"
   id="path104"
   inkscape:connector-curvature="0"
   style="fill:#000000;stroke:none" />
         <path
   d="m 11043,14762 5,5 -7,-59 -16,-66 -20,-56 -23,-48 -15,10 23,43 20,56 15,61 3,59 5,5 -5,-5 2,8 8,2 8,-2 2,-8 z"
   id="path106"
   inkscape:connector-curvature="0"
   style="fill:#000000;stroke:none" />
         <path
   d="m 11160,15011 3,5 -3,-38 -10,-41 -13,-35 -18,-39 -20,-30 -18,-28 -20,-25 -18,-18 -10,10 13,18 20,25 18,28 20,31 18,33 13,35 10,36 2,38 3,5 -5,-5 2,8 8,2 8,-2 2,-8 z"
   id="path108"
   inkscape:connector-curvature="0"
   style="fill:#000000;stroke:none" />
         <path
   d="m 11236,15169 v 0 l 3,-21 v -15 l -5,-20 -8,-21 -13,-20 -15,-20 -15,-21 -23,-20 -10,10 18,20 15,21 15,20 13,15 8,21 5,15 v 15 l -3,15 v 0 z"
   id="path110"
   inkscape:connector-curvature="0"
   style="fill:#000000;stroke:none" />
         <path
   d="m 11183,15255 v 0 l 18,-10 15,-21 10,-25 10,-30 -15,-6 -10,31 -10,25 -10,16 h -8 v 0 z"
   id="path112"
   inkscape:connector-curvature="0"
   style="fill:#000000;stroke:none" />
         <path
   d="m 11150,15166 v 0 l 10,18 3,28 2,25 18,18 v -20 l -3,-3 -2,-20 -3,-28 -10,-28 v 0 z"
   id="path114"
   inkscape:connector-curvature="0"
   style="fill:#000000;stroke:none" />
         <path
   d="m 11091,15090 h -2 l 18,12 15,21 15,23 13,20 15,-10 -13,-21 -15,-22 -20,-21 -18,-18 h -3 3 -8 l -5,3 -2,8 5,5 z"
   id="path116"
   inkscape:connector-curvature="0"
   style="fill:#000000;stroke:none" />
         <path
   d="m 10969,14922 -2,-5 2,25 10,23 16,31 18,25 22,23 21,20 18,18 17,8 5,-16 -12,-7 -18,-13 -20,-20 -18,-23 -18,-25 -15,-26 -10,-23 -3,-20 -3,-5 6,5 -3,-8 -8,-2 -7,2 -3,8 z"
   id="path118"
   inkscape:connector-curvature="0"
   style="fill:#000000;stroke:none" />
         <path
   d="m 10873,14787 v 3 l 7,18 10,17 11,18 10,15 13,16 15,15 15,15 15,18 10,-10 -15,-18 -15,-15 -10,-16 -13,-15 -10,-15 -10,-18 -10,-13 -8,-17 v 2 -2 l -3,-5 h -7 l -5,2 v 8 z"
   id="path120"
   inkscape:connector-curvature="0"
   style="fill:#000000;stroke:none" />
         <path
   d="m 10013,14513 -13,25 -13,26 -10,22 -7,23 -13,38 -13,44 -10,43 -8,38 -15,28 -18,33 -15,36 -13,35 -12,38 -8,41 -5,38 -3,36 -10,20 -5,28 -5,36 v 35 l 3,36 10,33 18,23 25,15 13,-13 15,-18 13,-20 10,-25 8,-28 2,-33 -2,-38 -8,-41 13,-15 15,-18 13,-18 15,-20 13,-23 12,-23 10,-26 8,-27 10,-11 10,-12 11,-13 10,-13 7,-10 11,-13 10,-12 10,-11 v 0 -48 l -5,-46 -10,-40 -11,-38 -15,-36 -15,-30 -18,-28 z"
   id="path122"
   inkscape:connector-curvature="0"
   style="fill:#d89972;stroke:none" />
         <path
   d="m 9977,14612 v 0 l 8,-23 10,-23 13,-25 13,-26 -16,-5 -12,26 -13,25 -10,23 -8,23 v 0 0 7 l 5,3 h 8 z"
   id="path124"
   inkscape:connector-curvature="0"
   style="fill:#000000;stroke:none" />
         <path
   d="m 9934,14777 v -5 l 8,-38 10,-41 13,-43 12,-38 -15,-5 -13,38 -12,43 -11,46 -7,38 v -5 5 l 2,5 5,3 6,-3 2,-5 z"
   id="path126"
   inkscape:connector-curvature="0"
   style="fill:#000000;stroke:none" />
         <path
   d="m 9845,15062 v -5 l 3,-36 5,-38 7,-38 13,-38 13,-36 15,-35 18,-34 15,-25 -15,-10 -15,30 -18,33 -16,36 -12,36 -13,38 -8,43 -5,38 -2,36 v -5 l -3,5 3,7 7,3 8,-3 3,-7 z"
   id="path128"
   inkscape:connector-curvature="0"
   style="fill:#000000;stroke:none" />
         <path
   d="m 9868,15275 h 5 l -20,-12 -16,-21 -10,-30 v -36 l -2,-35 5,-36 5,-25 10,-18 -15,-10 -10,22 -5,31 -6,36 -2,35 5,36 10,35 20,26 31,18 h 5 -8 8 l 3,-6 v -7 l -5,-3 z"
   id="path130"
   inkscape:connector-curvature="0"
   style="fill:#000000;stroke:none" />
         <path
   d="m 9919,15062 -3,7 8,39 v 38 33 l -8,25 -10,26 -13,17 -12,18 -13,10 10,16 13,-16 18,-17 12,-23 11,-26 7,-30 5,-33 -5,-38 -7,-44 -3,8 3,-8 -3,-5 h -8 l -5,3 v 7 z"
   id="path132"
   inkscape:connector-curvature="0"
   style="fill:#000000;stroke:none" />
         <path
   d="m 10018,14891 -3,3 -7,28 -10,25 -13,23 -13,21 -15,20 -13,18 -15,18 -10,15 10,10 15,-15 15,-18 13,-18 15,-20 13,-26 13,-23 10,-25 8,-28 -3,3 3,-3 v -8 l -5,-2 h -5 l -6,5 z"
   id="path134"
   inkscape:connector-curvature="0"
   style="fill:#000000;stroke:none" />
         <path
   d="m 10094,14802 3,-5 -10,11 -13,12 -10,13 -8,10 -10,13 -10,13 -8,12 -10,10 10,11 10,-11 13,-12 10,-13 10,-13 8,-10 10,-13 8,-12 10,-10 3,-6 -3,6 3,-6 -3,-5 -5,-2 -5,2 z"
   id="path136"
   inkscape:connector-curvature="0"
   style="fill:#000000;stroke:none" />
         <path
   d="m 10094,14802 h 8 v 0 0 0 h 8 l -3,6 3,-6 -3,-5 -5,-2 -5,2 z"
   id="path138"
   inkscape:connector-curvature="0"
   style="fill:#000000;stroke:none" />
         <path
   d="m 10021,14515 -16,3 16,23 17,25 16,31 15,35 10,38 10,38 5,46 v 48 h 16 v -48 l -6,-46 -10,-43 -10,-38 -15,-36 -15,-30 -18,-31 -15,-22 -16,2 16,-2 -6,-5 -5,2 -5,5 v 8 z"
   id="path140"
   inkscape:connector-curvature="0"
   style="fill:#000000;stroke:none" />
         <path
   d="m 10305,16025 13,-7 13,-8 10,-5 13,-8 38,-10 33,-2 30,5 23,10 18,15 10,20 3,26 -3,30 3,21 5,25 -3,20 -15,11 -23,2 -38,3 -53,5 -59,2 -58,5 -54,5 -40,3 h -23 l 2,-10 18,-15 23,-13 25,-10 18,-5 15,-8 18,-5 16,-5 12,-8 10,-5 6,-8 2,-7 -2,-18 v -18 l -3,-15 z"
   id="path142"
   inkscape:connector-curvature="0"
   style="fill:#d89972;stroke:none" />
         <path
   d="m 10351,15990 h -2 l -11,7 -10,5 -15,8 -10,8 5,15 15,-8 10,-7 11,-5 15,-8 h -3 3 l 5,-5 -3,-8 -5,-2 h -7 z"
   id="path144"
   inkscape:connector-curvature="0"
   style="fill:#000000;stroke:none" />
         <path
   d="m 10517,16091 h -3 l 5,-30 -5,-28 -10,-23 -21,-18 -25,-10 -33,-8 -33,5 -41,11 5,15 36,-10 h 33 l 28,2 20,10 16,13 10,18 v 23 30 h -3 3 l 2,5 5,3 5,-3 3,-5 z"
   id="path146"
   inkscape:connector-curvature="0"
   style="fill:#000000;stroke:none" />
         <path
   d="m 10496,16175 v 0 l 23,-13 5,-25 -7,-25 v -21 h -21 l 5,21 3,25 v 15 l -8,8 v 0 z"
   id="path148"
   inkscape:connector-curvature="0"
   style="fill:#000000;stroke:none" />
         <path
   d="m 10140,16196 8,7 h 23 l 40,-5 54,-5 58,-5 59,-3 53,-5 38,-2 23,-3 v -15 l -23,2 -38,3 -53,5 -59,3 -58,5 -54,5 h -40 -23 l 7,7 -7,-7 -8,2 -2,8 2,8 8,2 z"
   id="path150"
   inkscape:connector-curvature="0"
   style="fill:#000000;stroke:none" />
         <path
   d="m 10214,16137 v 0 l -26,10 -25,13 -20,18 -3,18 15,-6 3,-2 15,-13 20,-13 26,-10 v 0 z"
   id="path152"
   inkscape:connector-curvature="0"
   style="fill:#000000;stroke:none" />
         <path
   d="m 10305,16094 v 0 l -2,5 -3,2 -7,6 -13,7 -15,5 -18,5 -15,8 -18,5 5,15 18,-5 15,-7 18,-5 15,-6 13,-7 13,-5 7,-13 3,-10 v 0 z"
   id="path154"
   inkscape:connector-curvature="0"
   style="fill:#000000;stroke:none" />
         <path
   d="m 10303,16018 -5,7 2,18 3,15 v 18 l 2,18 h 16 l -3,-18 v -18 l -2,-15 -3,-18 -5,8 5,-8 -2,-5 -6,-2 -5,2 -2,5 z"
   id="path156"
   inkscape:connector-curvature="0"
   style="fill:#000000;stroke:none" />
         <path
   d="m 10013,14513 8,-13 7,-15 8,-13 7,-13 6,-7 7,-11 8,-10 10,-10 23,-23 28,-28 28,-25 33,-26 33,-25 36,-23 35,-20 36,-15 25,30 38,23 44,13 43,5 43,-5 38,-13 28,-20 13,-31 25,3 31,10 38,15 43,23 46,30 48,39 51,45 54,54 10,20 13,20 10,23 7,23 -12,26 -13,25 -13,31 -12,33 -13,30 -13,33 -10,33 -8,33 -2,10 v 13 l -3,10 -2,13 h -18 l -18,-3 -18,-5 -15,-5 -13,-5 -12,-5 -11,-8 -10,-7 -10,147 3,216 17,255 36,261 13,77 15,71 18,68 18,67 -11,10 -15,12 -15,11 -15,10 -18,13 -21,10 -20,10 -20,10 -18,8 -18,7 -18,5 -17,8 -21,5 -18,5 -20,5 -18,3 h -10 l -8,2 h -10 -10 -13 -10 -7 -11 l 3,-30 -3,-26 -10,-20 -18,-15 -23,-10 -30,-5 -33,2 -38,10 -13,8 -10,5 -13,8 -13,7 -25,10 -25,11 -23,7 -26,5 -23,3 h -17 l -16,-3 -10,-10 -5,-15 5,-15 8,-16 12,-15 13,-15 8,-15 5,-16 -5,-15 -13,-8 -20,3 -23,8 -28,15 -33,15 -33,18 -33,13 -33,7 -31,5 h -28 l -25,-2 -23,-5 -21,-5 -17,-8 -13,-10 -13,-8 26,-43 15,-66 10,-81 8,-95 10,-99 13,-101 20,-99 30,-102 41,-99 54,-102 71,-99 89,-99 -3,-31 -2,-35 -3,-28 -2,-13 -16,25 -20,21 -20,12 -18,8 2,-10 v -8 -7 l 3,-11 v -48 l -5,-46 -10,-40 -11,-38 -15,-36 -15,-30 -18,-28 z"
   id="path158"
   inkscape:connector-curvature="0"
   style="fill:#ff003f;stroke:none" />
         <path
   d="m 10036,14454 v 3 l -8,10 -7,15 -8,15 -8,13 16,5 7,-12 8,-16 7,-10 8,-15 v 2 -2 -8 l -5,-2 h -5 l -5,5 z"
   id="path160"
   inkscape:connector-curvature="0"
   style="fill:#000000;stroke:none" />
         <path
   d="m 10069,14416 h -3 l -10,10 -7,10 -8,11 -5,7 15,10 5,-7 8,-10 7,-11 11,-10 h -3 3 v -7 l -3,-5 -8,-3 -5,5 z"
   id="path162"
   inkscape:connector-curvature="0"
   style="fill:#000000;stroke:none" />
         <path
   d="m 10333,14233 -10,-5 -35,15 -39,21 -35,22 -33,26 -33,25 -28,28 -28,28 -23,23 10,10 23,-23 28,-28 28,-22 33,-26 33,-25 36,-23 33,-21 35,-15 -10,-5 10,5 5,-5 v -5 l -2,-5 h -8 z"
   id="path164"
   inkscape:connector-curvature="0"
   style="fill:#000000;stroke:none" />
         <path
   d="m 10598,14230 -8,8 -12,26 -23,17 -36,13 -43,3 -43,-3 -41,-13 -36,-23 -23,-25 -15,5 28,36 41,23 46,12 43,8 43,-8 41,-12 33,-23 13,-36 -8,8 8,-8 -3,-5 -5,-3 -5,3 -3,5 z"
   id="path166"
   inkscape:connector-curvature="0"
   style="fill:#000000;stroke:none" />
         <path
   d="m 10941,14452 h -2 l -54,-54 -51,-48 -48,-38 -46,-31 -45,-23 -39,-15 -33,-10 -25,-3 v 16 l 25,2 28,10 38,16 41,23 46,30 48,38 51,43 54,54 h -3 3 5 l 5,-3 2,-2 -2,-5 z"
   id="path168"
   inkscape:connector-curvature="0"
   style="fill:#000000;stroke:none" />
         <path
   d="m 10982,14546 v -5 l -8,-23 -10,-23 -13,-20 -10,-23 -15,10 10,18 13,20 10,23 8,23 v -5 5 l 5,5 h 5 l 5,-3 v -7 z"
   id="path170"
   inkscape:connector-curvature="0"
   style="fill:#000000;stroke:none" />
         <path
   d="m 10888,14787 v 0 l 8,-30 10,-33 12,-33 13,-31 13,-33 13,-30 12,-26 13,-25 -15,-5 -13,25 -13,25 -12,31 -13,33 -13,31 -13,33 -10,33 -7,35 v 0 0 l 2,5 5,3 5,-3 z"
   id="path172"
   inkscape:connector-curvature="0"
   style="fill:#000000;stroke:none" />
         <path
   d="m 10873,14843 7,-10 3,-13 2,-10 v -13 l 3,-10 h -15 l -3,10 v 13 l -2,10 -3,13 8,-10 -8,10 3,5 5,3 5,-3 2,-5 z"
   id="path174"
   inkscape:connector-curvature="0"
   style="fill:#000000;stroke:none" />
         <path
   d="m 10801,14828 v 0 l 16,5 20,5 18,3 18,2 v -20 l -18,2 -18,-2 -15,-5 -15,-5 v 0 0 h -8 l -3,5 v 5 z"
   id="path176"
   inkscape:connector-curvature="0"
   style="fill:#000000;stroke:none" />
         <path
   d="m 10766,14795 -13,7 10,8 13,8 13,5 12,5 6,-15 -13,-5 -13,-6 -8,-7 -10,-8 -12,8 12,-8 h -7 l -5,3 -3,7 5,5 z"
   id="path178"
   inkscape:connector-curvature="0"
   style="fill:#000000;stroke:none" />
         <path
   d="m 10812,15674 v 0 l -36,-261 -18,-255 -2,-216 10,-147 h -15 l -11,147 3,216 18,255 35,261 v 0 0 l 3,5 5,3 5,-3 z"
   id="path180"
   inkscape:connector-curvature="0"
   style="fill:#000000;stroke:none" />
         <path
   d="m 10873,15962 2,-8 -18,-66 -17,-66 -16,-71 -12,-77 h -16 l 13,77 15,71 18,71 18,66 2,-7 -2,7 5,5 h 5 l 5,-2 v -8 z"
   id="path182"
   inkscape:connector-curvature="0"
   style="fill:#000000;stroke:none" />
         <path
   d="m 10735,16051 v 0 l 21,-11 20,-10 23,-10 18,-13 15,-10 15,-10 15,-15 11,-10 -11,-10 -10,10 -15,10 -15,10 -15,10 -18,13 -18,10 -20,10 -21,10 v 0 0 l -5,3 v 8 l 3,5 z"
   id="path184"
   inkscape:connector-curvature="0"
   style="fill:#000000;stroke:none" />
         <path
   d="m 10585,16096 v 0 l 18,-2 23,-5 18,-5 20,-5 18,-8 18,-5 17,-8 18,-7 -5,-16 -18,8 -17,8 -18,5 -18,7 -20,5 -18,6 -18,5 -18,2 v 0 0 l -5,3 -2,5 2,5 z"
   id="path186"
   inkscape:connector-curvature="0"
   style="fill:#000000;stroke:none" />
         <path
   d="m 10499,16091 7,10 h 11 7 10 13 10 l 10,-2 8,-3 h 10 v -15 h -10 l -8,3 -10,-3 h -10 -13 -10 -7 -11 l 8,10 -8,-10 -7,3 -3,7 3,8 7,2 z"
   id="path188"
   inkscape:connector-curvature="0"
   style="fill:#000000;stroke:none" />
         <path
   d="m 10359,16005 h -3 l 36,-10 h 33 l 28,2 20,10 16,13 10,18 v 23 30 h 15 l 5,-30 -5,-28 -10,-23 -21,-18 -25,-10 -33,-8 -33,5 -41,11 h -2 2 l -5,2 v 8 l 3,5 h 7 z"
   id="path190"
   inkscape:connector-curvature="0"
   style="fill:#000000;stroke:none" />
         <path
   d="m 10308,16033 v 0 l 15,-8 10,-7 11,-5 15,-8 -10,-15 -11,7 -10,5 -15,8 -10,8 v 0 0 l -5,2 v 8 l 2,5 z"
   id="path192"
   inkscape:connector-curvature="0"
   style="fill:#000000;stroke:none" />
         <path
   d="m 10132,16053 v 0 l 16,13 18,2 h 17 l 23,-2 28,-5 23,-8 26,-10 25,-10 -5,-15 -26,10 -25,10 -23,8 -23,5 -23,2 h -17 l -13,-2 -5,-8 v 0 z"
   id="path194"
   inkscape:connector-curvature="0"
   style="fill:#000000;stroke:none" />
         <path
   d="m 10173,15931 v 0 l 3,10 -3,13 -7,13 -13,15 -13,15 -8,18 -7,18 7,20 16,-10 -3,-10 3,-13 7,-13 13,-15 13,-15 7,-18 8,-18 -8,-20 v 0 z"
   id="path196"
   inkscape:connector-curvature="0"
   style="fill:#000000;stroke:none" />
         <path
   d="m 9965,16005 v 0 l 35,-8 33,-12 33,-18 33,-15 28,-16 21,-7 20,-3 5,5 15,-10 -20,-10 -20,2 -26,8 -28,15 -33,16 -33,17 -33,13 -30,8 v 0 z"
   id="path198"
   inkscape:connector-curvature="0"
   style="fill:#000000;stroke:none" />
         <path
   d="m 9789,15959 v 13 l 13,7 13,11 20,7 23,5 23,5 25,6 28,-3 31,-5 v -15 l -31,5 -28,-3 h -25 l -23,-5 -18,-5 -15,-8 -13,-10 -13,-7 v 12 -12 h -7 l -5,2 -3,8 5,5 z"
   id="path200"
   inkscape:connector-curvature="0"
   style="fill:#000000;stroke:none" />
         <path
   d="m 9845,15679 v 0 l -8,95 -10,81 -15,63 -23,41 10,10 28,-45 15,-69 11,-81 7,-95 v 0 z"
   id="path202"
   inkscape:connector-curvature="0"
   style="fill:#000000;stroke:none" />
         <path
   d="m 10171,14879 5,-5 -92,99 -71,99 -54,104 -40,99 -31,105 -20,99 -13,101 -10,99 h 15 l 10,-99 13,-101 21,-99 30,-100 41,-99 53,-99 71,-99 87,-99 5,-5 -5,5 2,-5 -2,-5 -5,-3 -5,3 z"
   id="path204"
   inkscape:connector-curvature="0"
   style="fill:#000000;stroke:none" />
         <path
   d="m 10178,14775 -15,-3 3,13 2,28 3,35 v 31 h 20 l -5,-31 -3,-35 -2,-28 -3,-13 -15,-3 15,3 -2,-5 -5,-3 -5,3 -3,5 z"
   id="path206"
   inkscape:connector-curvature="0"
   style="fill:#000000;stroke:none" />
         <path
   d="m 10089,14838 10,8 18,-8 23,-13 23,-23 15,-27 -15,-6 -15,23 -18,18 -18,13 -18,7 10,8 -10,-8 -5,3 v 8 l 3,5 h 7 z"
   id="path208"
   inkscape:connector-curvature="0"
   style="fill:#000000;stroke:none" />
         <path
   d="m 10094,14802 v 0 l -2,11 -3,7 3,8 -3,10 h 15 l 3,-10 3,-8 -3,-7 3,-11 v 0 0 l -3,-5 -5,-2 -5,2 z"
   id="path210"
   inkscape:connector-curvature="0"
   style="fill:#000000;stroke:none" />
         <path
   d="m 10005,14510 v 8 l 16,23 17,25 16,31 15,35 10,38 10,38 5,46 v 48 h 16 v -48 l -6,-46 -10,-43 -10,-38 -15,-36 -15,-30 -18,-31 -15,-22 v 7 -7 l -6,-5 -5,2 -5,5 v 8 z"
   id="path212"
   inkscape:connector-curvature="0"
   style="fill:#000000;stroke:none" />
         <path
   d="m 10326,14236 -13,-6 -15,3 -21,8 -20,12 -20,13 -13,13 -10,15 2,10 11,5 17,-2 21,-8 20,-13 20,-12 16,-16 7,-12 z"
   id="path214"
   inkscape:connector-curvature="0"
   style="fill:#e0b71e;stroke:none" />
         <path
   d="m 10224,14299 v 0 l -3,-2 11,-13 10,-10 20,-13 18,-13 20,-7 13,-3 8,3 10,-11 -18,-7 -18,2 -20,8 -23,13 -20,12 -16,16 -10,18 3,17 v 0 z"
   id="path216"
   inkscape:connector-curvature="0"
   style="fill:#000000;stroke:none" />
         <path
   d="m 10321,14241 v 0 5 l -8,7 -13,13 -20,13 -18,13 -20,7 -15,3 -3,-3 -15,10 18,8 20,-3 20,-7 23,-13 21,-13 17,-17 8,-18 -5,-16 v 0 z"
   id="path218"
   inkscape:connector-curvature="0"
   style="fill:#000000;stroke:none" />
         <path
   d="m 10394,14289 -10,-5 -12,2 -16,8 -15,10 -15,13 -8,13 -5,10 5,10 10,5 16,-2 15,-8 13,-10 12,-13 10,-13 3,-12 z"
   id="path220"
   inkscape:connector-curvature="0"
   style="fill:#e0b71e;stroke:none" />
         <path
   d="m 10323,14345 v 0 -5 l 3,-8 5,-10 15,-10 15,-10 13,-8 10,-2 5,2 11,-10 -16,-8 -15,3 -18,7 -15,11 -15,15 -10,15 -8,13 10,15 v 0 z"
   id="path222"
   inkscape:connector-curvature="0"
   style="fill:#000000;stroke:none" />
         <path
   d="m 10389,14294 v 3 h -2 v 10 l -8,10 -13,13 -12,7 -13,8 -13,2 -5,-2 -10,10 15,8 18,-3 18,-7 13,-13 12,-13 13,-15 5,-15 -7,-16 v 3 z"
   id="path224"
   inkscape:connector-curvature="0"
   style="fill:#000000;stroke:none" />
         <path
   d="m 10453,14299 13,13 7,30 -5,33 -20,13 -20,-13 v -33 l 10,-30 z"
   id="path226"
   inkscape:connector-curvature="0"
   style="fill:#e0b71e;stroke:none" />
         <path
   d="m 10448,14398 v 0 l 28,-20 7,-36 -10,-33 -20,-20 v 20 l 5,5 5,28 -2,31 -13,5 v 0 z"
   id="path228"
   inkscape:connector-curvature="0"
   style="fill:#000000;stroke:none" />
         <path
   d="m 10453,14289 v 0 l -23,18 -10,35 v 36 l 28,20 v -20 l -13,-5 v -31 l 10,-25 8,-8 v 0 z"
   id="path230"
   inkscape:connector-curvature="0"
   style="fill:#000000;stroke:none" />
         <path
   d="m 10534,14294 16,5 7,23 3,28 -10,15 -16,-5 -10,-23 -2,-25 z"
   id="path232"
   inkscape:connector-curvature="0"
   style="fill:#e0b71e;stroke:none" />
         <path
   d="m 10552,14373 v 0 l 15,-23 -2,-28 -8,-28 -25,-8 5,16 5,2 8,18 2,28 -5,8 v 0 z"
   id="path234"
   inkscape:connector-curvature="0"
   style="fill:#000000;stroke:none" />
         <path
   d="m 10532,14286 v 0 l -18,26 3,28 12,25 23,8 -5,-15 -8,-3 -7,-20 -3,-23 8,-10 v 0 z"
   id="path236"
   inkscape:connector-curvature="0"
   style="fill:#000000;stroke:none" />
         <path
   d="m 10580,14261 5,-3 h 10 l 11,8 12,8 13,10 8,10 2,13 -2,10 -8,5 -13,3 -10,-6 -13,-7 -10,-13 -7,-13 -3,-12 z"
   id="path238"
   inkscape:connector-curvature="0"
   style="fill:#e0b71e;stroke:none" />
         <path
   d="m 10646,14322 v 0 l 5,-15 -5,-15 -10,-13 -13,-13 -12,-8 -13,-7 h -13 l -13,7 16,6 -3,2 h 8 l 7,8 13,7 13,8 5,8 v 10 5 0 z"
   id="path240"
   inkscape:connector-curvature="0"
   style="fill:#000000;stroke:none" />
         <path
   d="m 10572,14258 v -2 l -5,18 3,15 8,15 12,13 16,10 12,5 16,-2 12,-8 -15,-10 -3,2 -10,3 -7,-5 -11,-5 -7,-13 -8,-10 -2,-10 5,-8 v -2 z"
   id="path242"
   inkscape:connector-curvature="0"
   style="fill:#000000;stroke:none" />
         <path
   d="m 10697,13936 5,-11 5,-12 3,-10 2,-11 11,-43 5,-43 -3,-38 -5,-36 -18,-53 -28,-46 -35,-38 -41,-31 -43,-22 -46,-16 -43,-5 -44,3 -50,13 -46,20 -38,25 -33,31 -26,33 -23,35 -15,36 -10,38 -3,10 v 8 l -2,10 v 10 l -3,23 v 20 18 l 3,21 33,-49 38,-38 41,-33 40,-28 38,-28 31,-28 23,-33 8,-38 17,41 33,33 46,30 48,31 49,35 41,44 27,53 z"
   id="path244"
   inkscape:connector-curvature="0"
   style="fill:#000000;stroke:none" />
         <path
   d="m 10705,13890 v 2 l -3,11 -2,7 -5,13 -6,10 16,5 5,-10 5,-13 2,-12 3,-11 v 3 z"
   id="path246"
   inkscape:connector-curvature="0"
   style="fill:#000000;stroke:none" />
         <path
   d="m 10712,13732 v 0 l 5,36 v 38 l -2,43 -10,41 15,5 10,-46 8,-43 -5,-38 -5,-36 v 0 z"
   id="path248"
   inkscape:connector-curvature="0"
   style="fill:#000000;stroke:none" />
         <path
   d="m 10422,13531 v 0 h 44 l 43,3 43,15 41,23 41,28 33,38 28,43 17,51 h 16 l -18,-56 -28,-48 -38,-38 -41,-33 -46,-23 -48,-15 -43,-8 -44,5 v 0 z"
   id="path250"
   inkscape:connector-curvature="0"
   style="fill:#000000;stroke:none" />
         <path
   d="m 10188,13755 v 0 l 11,-35 15,-36 23,-33 23,-33 33,-28 35,-26 46,-20 48,-13 v -15 l -53,13 -46,20 -40,26 -34,33 -28,33 -22,38 -16,35 -10,41 v 0 z"
   id="path252"
   inkscape:connector-curvature="0"
   style="fill:#000000;stroke:none" />
         <path
   d="m 10183,13793 h 3 l -3,-10 3,-10 v -8 l 2,-10 h -15 l -2,10 v 8 l -3,10 -2,10 h 2 z"
   id="path254"
   inkscape:connector-curvature="0"
   style="fill:#000000;stroke:none" />
         <path
   d="m 10168,13872 15,3 -2,-21 2,-18 v -20 -23 h -15 l -5,23 v 20 l 3,18 2,21 15,2 -15,-2 3,5 5,2 5,-2 2,-5 z"
   id="path256"
   inkscape:connector-curvature="0"
   style="fill:#000000;stroke:none" />
         <path
   d="m 10435,13600 h -15 l -8,36 -23,30 -28,26 -38,28 -40,27 -41,36 -41,38 -33,51 15,5 33,-46 36,-38 41,-30 40,-28 39,-28 33,-31 23,-35 7,-41 h -15 18 l -3,-8 -7,-2 -8,2 -3,8 z"
   id="path258"
   inkscape:connector-curvature="0"
   style="fill:#000000;stroke:none" />
         <path
   d="m 10689,13933 16,3 -8,-72 -28,-55 -43,-44 -48,-38 -49,-30 -46,-31 -30,-30 -18,-36 h -15 l 18,46 35,35 46,31 48,30 49,33 38,44 28,51 7,66 16,2 -16,-2 3,5 5,2 5,-2 3,-5 z"
   id="path260"
   inkscape:connector-curvature="0"
   style="fill:#000000;stroke:none" />
         <path
   d="m 10712,13892 11,-43 5,-43 -3,-38 -5,-36 84,92 53,124 23,148 -2,160 -28,165 -56,160 -77,148 -101,127 -69,79 -64,86 -55,97 -49,99 -38,107 -30,109 -18,112 -5,112 5,89 10,86 20,84 31,81 -26,16 -30,15 -33,12 -31,11 -30,7 -28,3 -21,-3 -15,-10 -5,-15 5,-15 8,-16 12,-15 13,-15 8,-15 5,-16 -5,-15 -13,-8 -20,3 -23,8 -28,15 -33,15 -33,18 -33,13 -33,7 -31,5 h -28 l -25,-2 -23,-5 -21,-5 -17,-8 -13,-10 -13,-8 26,-43 15,-66 10,-81 8,-95 10,-99 13,-101 20,-99 30,-102 41,-99 54,-102 71,-99 89,-99 56,-59 58,-63 59,-66 56,-69 56,-74 51,-71 48,-74 46,-71 40,-71 33,-66 26,-66 20,-59 10,-56 v -48 l -7,-41 z"
   id="path262"
   inkscape:connector-curvature="0"
   style="fill:#ffffff;stroke:none" />
         <path
   d="m 10725,13725 -13,7 5,36 v 38 l -2,43 -10,41 15,5 10,-46 8,-43 -5,-38 -5,-36 -13,8 13,-8 -3,-5 -5,-2 -5,2 -3,5 z"
   id="path264"
   inkscape:connector-curvature="0"
   style="fill:#000000;stroke:none" />
         <path
   d="m 10621,14861 v 0 l 104,-127 76,-150 56,-163 28,-165 3,-160 -23,-150 -53,-127 -87,-94 -10,15 81,89 54,122 23,145 -3,160 -28,165 -56,158 -76,145 -99,127 v 0 z"
   id="path266"
   inkscape:connector-curvature="0"
   style="fill:#000000;stroke:none" />
         <path
   d="m 10298,15657 v 0 l 2,-112 18,-112 31,-107 38,-107 48,-99 56,-94 64,-86 66,-79 -10,-10 -72,79 -63,86 -56,99 -48,99 -39,107 -30,112 -18,112 -8,112 v 0 0 l 3,7 8,3 7,-3 z"
   id="path268"
   inkscape:connector-curvature="0"
   style="fill:#000000;stroke:none" />
         <path
   d="m 10359,16005 2,-10 -30,-82 -20,-81 -11,-86 -2,-89 h -21 l 8,89 10,86 21,86 30,82 3,-10 -3,10 5,5 h 5 l 5,-3 v -7 z"
   id="path270"
   inkscape:connector-curvature="0"
   style="fill:#000000;stroke:none" />
         <path
   d="m 10132,16053 v 0 l 21,13 23,5 28,-5 33,-8 30,-10 33,-13 31,-15 28,-15 -10,-15 -23,15 -31,15 -33,13 -30,10 -28,8 h -28 -18 l -10,-8 v 0 z"
   id="path272"
   inkscape:connector-curvature="0"
   style="fill:#000000;stroke:none" />
         <path
   d="m 10173,15931 v 0 l 3,10 -3,13 -7,13 -13,15 -13,15 -8,18 -7,18 7,20 16,-10 -3,-10 3,-13 7,-13 13,-15 13,-15 7,-18 8,-18 -8,-20 v 0 z"
   id="path274"
   inkscape:connector-curvature="0"
   style="fill:#000000;stroke:none" />
         <path
   d="m 9965,16005 v 0 l 35,-8 33,-12 33,-18 33,-15 28,-16 21,-7 20,-3 5,5 15,-10 -20,-10 -20,2 -26,8 -28,15 -33,16 -33,17 -33,13 -30,8 v 0 z"
   id="path276"
   inkscape:connector-curvature="0"
   style="fill:#000000;stroke:none" />
         <path
   d="m 9789,15959 v 13 l 13,7 13,11 20,7 23,5 23,5 25,6 28,-3 31,-5 v -15 l -31,5 -28,-3 h -25 l -23,-5 -18,-5 -15,-8 -13,-10 -13,-7 v 12 -12 h -7 l -5,2 -3,8 5,5 z"
   id="path278"
   inkscape:connector-curvature="0"
   style="fill:#000000;stroke:none" />
         <path
   d="m 9845,15679 v 0 l -8,95 -10,81 -15,63 -23,41 10,10 28,-45 15,-69 11,-81 7,-95 v 0 z"
   id="path280"
   inkscape:connector-curvature="0"
   style="fill:#000000;stroke:none" />
         <path
   d="m 10176,14874 v 0 l -92,99 -71,99 -54,104 -40,99 -31,105 -20,99 -13,101 -10,99 h 15 l 10,-99 13,-101 21,-99 30,-100 41,-99 53,-99 71,-99 87,-99 v 0 z"
   id="path282"
   inkscape:connector-curvature="0"
   style="fill:#000000;stroke:none" />
         <path
   d="m 10705,13890 2,7 18,31 8,38 v 48 l -10,54 -21,58 -25,66 -33,66 -41,69 -46,71 -48,74 -51,71 -56,74 -56,69 -56,66 -58,63 -56,59 10,10 56,-59 58,-63 61,-66 56,-69 56,-74 51,-71 48,-74 46,-71 41,-73 33,-67 25,-66 21,-58 10,-59 v -48 l -8,-43 -23,-36 3,8 -3,-8 -5,-2 -2,2 -3,5 v 5 z"
   id="path284"
   inkscape:connector-curvature="0"
   style="fill:#000000;stroke:none" />
         <path
   d="m 10013,14513 8,-13 7,-15 8,-13 7,-13 33,-76 23,-69 16,-61 10,-56 5,-48 v -43 -38 -33 l -3,-66 v -74 l 13,-64 36,-38 v -10 l 2,-10 v -8 l 3,-10 -36,38 -30,43 -23,44 -16,48 -12,53 -8,56 -7,64 -3,68 -8,59 -12,56 -18,56 -15,56 -16,53 -12,54 -3,53 8,53 7,-23 10,-22 13,-26 z"
   id="path286"
   inkscape:connector-curvature="0"
   style="fill:#ffffff;stroke:none" />
         <path
   d="m 10036,14457 v 0 l -8,10 -7,15 -8,15 -8,13 16,5 7,-12 8,-16 7,-10 8,-15 v 0 0 -8 l -5,-2 h -5 z"
   id="path288"
   inkscape:connector-curvature="0"
   style="fill:#000000;stroke:none" />
         <path
   d="m 10120,14035 v 0 33 38 l 2,43 -5,48 -10,56 -15,59 -23,68 -33,77 15,5 33,-76 23,-69 15,-64 10,-56 6,-48 2,-43 v -38 -33 0 z"
   id="path290"
   inkscape:connector-curvature="0"
   style="fill:#000000;stroke:none" />
         <path
   d="m 10166,13793 7,-7 -41,43 -12,66 -3,74 3,66 h 20 l -2,-66 -3,-74 13,-61 30,-33 8,-8 -8,8 5,-5 v -5 l -2,-5 h -8 z"
   id="path292"
   inkscape:connector-curvature="0"
   style="fill:#000000;stroke:none" />
         <path
   d="m 10186,13760 -13,-5 -2,10 v 8 l -3,10 -2,10 h 20 l -3,-10 3,-10 v -8 l 2,-10 -12,-5 12,5 -2,-5 -5,-3 -5,3 -3,5 z"
   id="path294"
   inkscape:connector-curvature="0"
   style="fill:#000000;stroke:none" />
         <path
   d="m 10054,14169 v 0 l 2,-68 8,-64 7,-56 13,-50 15,-49 23,-40 31,-44 33,-38 -10,-10 -38,38 -31,43 -23,46 -15,48 -13,56 -7,56 -8,64 -3,68 v 0 z"
   id="path296"
   inkscape:connector-curvature="0"
   style="fill:#000000;stroke:none" />
         <path
   d="m 9962,14607 15,2 -7,-53 2,-53 13,-51 15,-54 15,-56 18,-56 13,-58 8,-59 h -16 l -7,59 -13,53 -18,56 -15,56 -15,54 -13,56 -3,53 8,53 15,3 -15,-3 3,5 5,3 5,-3 2,-5 z"
   id="path298"
   inkscape:connector-curvature="0"
   style="fill:#000000;stroke:none" />
         <path
   d="m 10005,14510 v 0 l -12,26 -13,25 -10,23 -8,23 15,5 8,-23 10,-23 13,-25 13,-26 v 0 0 -7 l -6,-3 h -5 z"
   id="path300"
   inkscape:connector-curvature="0"
   style="fill:#000000;stroke:none" />
         <path
   d="m 10669,13997 -2,5 -3,5 -2,5 -3,5 -5,38 2,41 16,23 35,-8 26,-20 7,-18 -5,-13 -12,-13 -18,-12 -18,-10 -13,-13 z"
   id="path302"
   inkscape:connector-curvature="0"
   style="fill:#e0b71e;stroke:none" />
         <path
   d="m 10667,14017 v 5 l 2,-8 3,-5 2,-5 3,-5 -15,-5 -3,5 -3,5 -2,5 -3,3 v 5 -5 8 l 5,5 6,2 5,-5 z"
   id="path304"
   inkscape:connector-curvature="0"
   style="fill:#000000;stroke:none" />
         <path
   d="m 10702,14103 v 0 l -28,8 -10,-18 v -38 l 3,-38 h -16 l -7,38 5,43 20,28 43,-7 v 0 z"
   id="path306"
   inkscape:connector-curvature="0"
   style="fill:#000000;stroke:none" />
         <path
   d="m 10677,13999 -15,-2 5,20 15,15 18,10 17,13 11,10 5,8 -8,13 -23,17 10,16 28,-23 8,-23 -5,-18 -15,-15 -18,-13 -18,-10 -10,-10 -5,-10 -15,-3 17,3 -2,-8 -8,-3 -7,3 -3,8 z"
   id="path308"
   inkscape:connector-curvature="0"
   style="fill:#000000;stroke:none" />
         <path
   d="m 10244,14020 -2,-3 -3,-5 -2,-3 -3,-2 -10,18 -13,20 -15,20 -10,23 -10,20 v 18 l 7,13 21,8 h 38 l 18,-8 5,-15 -5,-23 -11,-23 -10,-23 -2,-20 z"
   id="path310"
   inkscape:connector-curvature="0"
   style="fill:#e0b71e;stroke:none" />
         <path
   d="m 10242,14009 h -15 l 5,5 v 3 l 2,5 h 3 l 15,-5 -3,-5 -2,-5 -5,-3 v 0 h -15 15 l -3,-5 h -7 l -5,3 v 7 z"
   id="path312"
   inkscape:connector-curvature="0"
   style="fill:#000000;stroke:none" />
         <path
   d="m 10204,14139 v 0 l -16,-8 -5,-5 v -15 l 10,-20 11,-21 15,-20 13,-20 10,-21 -15,-5 -11,16 -12,20 -16,20 -10,26 -10,20 v 20 l 10,21 26,7 v 0 z"
   id="path314"
   inkscape:connector-curvature="0"
   style="fill:#000000;stroke:none" />
         <path
   d="m 10237,14022 2,-10 -10,23 3,23 10,23 10,22 3,21 v 10 l -13,5 h -38 v 15 h 38 l 23,-10 10,-20 -8,-26 -10,-23 -10,-22 -3,-18 5,-8 3,-10 -3,10 6,-5 -3,-8 -5,-2 h -8 z"
   id="path316"
   inkscape:connector-curvature="0"
   style="fill:#000000;stroke:none" />
         <path
   d="m 10445,13806 16,-3 12,-7 8,-13 2,-15 -2,-15 -8,-13 -12,-8 -16,-2 -15,2 -10,8 -10,13 -3,15 3,15 10,13 10,7 z"
   id="path318"
   inkscape:connector-curvature="0"
   style="fill:#ff003f;stroke:none" />
         <path
   d="m 10473,13768 v 0 13 l -5,10 -10,5 h -13 v 20 l 18,-5 15,-10 11,-15 5,-18 v 0 z"
   id="path320"
   inkscape:connector-curvature="0"
   style="fill:#000000;stroke:none" />
         <path
   d="m 10445,13740 v 0 h 13 l 10,5 5,10 v 13 h 21 l -5,-18 -11,-15 -15,-10 -18,-5 v 0 z"
   id="path322"
   inkscape:connector-curvature="0"
   style="fill:#000000;stroke:none" />
         <path
   d="m 10417,13768 v 0 -13 l 8,-10 8,-5 h 12 v -20 l -17,5 -13,10 -13,15 -5,18 v 0 z"
   id="path324"
   inkscape:connector-curvature="0"
   style="fill:#000000;stroke:none" />
         <path
   d="m 10445,13796 v 0 h -12 l -8,-5 -8,-10 v -13 h -20 l 5,18 13,15 13,10 17,5 v 0 z"
   id="path326"
   inkscape:connector-curvature="0"
   style="fill:#000000;stroke:none" />
         <path
   d="m 10247,13928 23,5 13,-8 7,-20 5,-23 10,-25 18,-18 33,-10 51,2 3,18 v 18 15 15 l -33,-7 -26,5 -25,10 -18,15 -18,13 -15,8 h -13 z"
   id="path328"
   inkscape:connector-curvature="0"
   style="fill:#ffffff;stroke:none" />
         <path
   d="m 10415,13831 -8,-7 -51,-3 -35,10 -23,21 -10,28 -5,23 -8,17 -5,5 -21,-5 -5,16 26,5 20,-10 8,-23 5,-23 10,-23 13,-15 30,-11 51,3 -7,-8 7,8 5,-3 3,-5 -3,-5 -5,-2 z"
   id="path330"
   inkscape:connector-curvature="0"
   style="fill:#000000;stroke:none" />
         <path
   d="m 10407,13905 13,-8 v -15 -15 l -3,-18 -2,-18 h -15 l 2,18 -2,18 v 15 15 l 12,-7 -12,7 2,8 8,3 7,-3 3,-8 z"
   id="path332"
   inkscape:connector-curvature="0"
   style="fill:#000000;stroke:none" />
         <path
   d="m 10249,13920 -10,13 21,15 h 17 l 18,-7 18,-13 18,-15 23,-10 23,-3 30,5 5,-15 -35,-10 -28,7 -28,10 -18,16 -18,12 -13,8 h -7 l -10,-10 -11,13 11,-13 -6,-5 -5,2 -5,5 v 8 z"
   id="path334"
   inkscape:connector-curvature="0"
   style="fill:#000000;stroke:none" />
         <path
   d="m 10662,13910 -23,8 -13,-8 -8,-18 -7,-22 -13,-23 -20,-18 -33,-8 -51,10 v 18 l 2,18 v 15 l 3,15 30,-10 h 28 l 23,8 23,13 18,10 15,7 13,-2 z"
   id="path336"
   inkscape:connector-curvature="0"
   style="fill:#ffffff;stroke:none" />
         <path
   d="m 10504,13831 -8,8 49,-8 30,5 15,16 13,20 8,23 7,20 21,13 28,-10 -11,-15 -17,5 -5,-3 -8,-15 -8,-23 -12,-25 -26,-21 -35,-10 -54,13 -8,7 8,-7 -5,2 v 8 l 3,5 h 7 z"
   id="path338"
   inkscape:connector-curvature="0"
   style="fill:#000000;stroke:none" />
         <path
   d="m 10496,13890 10,7 -2,-15 v -15 l -3,-18 3,-18 h -21 l 3,18 3,18 v 15 l 2,15 10,8 -10,-8 3,6 5,2 5,-2 2,-6 z"
   id="path340"
   inkscape:connector-curvature="0"
   style="fill:#000000;stroke:none" />
         <path
   d="m 10667,13918 -13,-10 -10,7 -8,3 -13,-8 -17,-10 -23,-13 -26,-7 h -28 l -33,10 5,15 28,-10 h 28 l 21,8 22,12 18,10 18,8 18,-2 15,-18 -13,-10 13,10 v -8 l -5,-2 h -5 l -5,5 z"
   id="path342"
   inkscape:connector-curvature="0"
   style="fill:#000000;stroke:none" />
         <path
   d="m 10377,14017 10,-5 10,-5 10,-8 8,-7 10,-3 10,-3 10,6 8,7 18,-15 18,5 17,15 21,16 -10,5 -11,5 -7,5 -8,7 -8,8 -10,8 -10,5 -13,2 -20,-7 -15,-16 -18,-17 z"
   id="path344"
   inkscape:connector-curvature="0"
   style="fill:#b20019;stroke:none" />
         <path
   d="m 10445,13994 h 16 l -11,-10 -15,-5 -10,2 -13,3 -10,8 -10,7 -8,5 -10,5 5,16 10,-5 13,-6 10,-7 5,-8 8,-2 10,-3 5,5 5,5 h 16 -16 l 5,5 8,-2 3,-5 v -8 z"
   id="path346"
   inkscape:connector-curvature="0"
   style="fill:#000000;stroke:none" />
         <path
   d="m 10527,14027 5,-15 -21,-15 -20,-16 -23,-5 -23,18 16,10 12,-12 13,5 15,15 21,15 5,-15 -5,15 h 7 l 5,-5 3,-5 -5,-5 z"
   id="path348"
   inkscape:connector-curvature="0"
   style="fill:#000000;stroke:none" />
         <path
   d="m 10450,14073 v 0 l 16,-3 12,-5 11,-7 7,-11 8,-5 5,-5 10,-5 8,-5 v -15 l -13,5 -10,5 -10,5 -8,10 -8,5 -10,8 -7,5 -11,3 v 0 z"
   id="path350"
   inkscape:connector-curvature="0"
   style="fill:#000000;stroke:none" />
         <path
   d="m 10374,14009 3,18 15,5 18,15 15,18 25,8 v -15 l -15,-8 -15,-13 -18,-20 -25,-10 2,18 -2,-18 -8,2 -3,8 3,8 8,2 z"
   id="path352"
   inkscape:connector-curvature="0"
   style="fill:#000000;stroke:none" />
         <path
   d="m 10804,15674 13,77 15,71 18,68 18,67 -11,10 -15,12 -15,11 -15,10 -18,13 -21,10 -20,10 -20,10 -18,8 -18,7 -18,5 -17,8 -21,5 -18,5 -20,5 -18,3 h -10 l -8,2 h -10 -10 -13 -10 -7 -11 l 3,-30 -3,-26 -10,-20 -18,-15 -23,-10 -30,-5 -33,2 -38,10 -31,-81 -20,-84 -10,-86 -5,-89 43,-13 41,-8 h 38 l 35,3 28,7 23,16 15,17 3,23 5,23 15,18 28,10 36,3 43,-5 51,-16 53,-25 z"
   id="path354"
   inkscape:connector-curvature="0"
   style="fill:#ffffff;stroke:none" />
         <path
   d="m 10873,15962 2,-8 -18,-66 -17,-66 -16,-71 -12,-77 h -16 l 13,77 15,71 18,71 18,66 2,-7 -2,7 5,5 h 5 l 5,-2 v -8 z"
   id="path356"
   inkscape:connector-curvature="0"
   style="fill:#000000;stroke:none" />
         <path
   d="m 10735,16051 v 0 l 21,-11 20,-10 23,-10 18,-13 15,-10 15,-10 15,-15 11,-10 -11,-10 -10,10 -15,10 -15,10 -15,10 -18,13 -18,10 -20,10 -21,10 v 0 0 l -5,3 v 8 l 3,5 z"
   id="path358"
   inkscape:connector-curvature="0"
   style="fill:#000000;stroke:none" />
         <path
   d="m 10585,16096 v 0 l 18,-2 23,-5 18,-5 20,-5 18,-8 18,-5 17,-8 18,-7 -5,-16 -18,8 -17,8 -18,5 -18,7 -20,5 -18,6 -18,5 -18,2 v 0 0 l -5,3 -2,5 2,5 z"
   id="path360"
   inkscape:connector-curvature="0"
   style="fill:#000000;stroke:none" />
         <path
   d="m 10499,16091 7,10 h 11 7 10 13 10 l 10,-2 8,-3 h 10 v -15 h -10 l -8,3 -10,-3 h -10 -13 -10 -7 -11 l 8,10 -8,-10 -7,3 -3,7 3,8 7,2 z"
   id="path362"
   inkscape:connector-curvature="0"
   style="fill:#000000;stroke:none" />
         <path
   d="m 10346,16000 10,5 36,-10 h 33 l 28,2 20,10 16,13 10,18 v 23 30 h 15 l 5,-30 -5,-28 -10,-23 -21,-18 -25,-10 -33,-8 -33,5 -41,11 10,5 -10,-5 -5,2 v 8 l 3,5 h 7 z"
   id="path364"
   inkscape:connector-curvature="0"
   style="fill:#000000;stroke:none" />
         <path
   d="m 10285,15649 -8,8 8,89 10,86 21,86 30,82 15,-5 -30,-82 -20,-81 -11,-86 -2,-89 -8,7 8,-7 -3,-8 -7,-3 -8,3 -3,8 z"
   id="path366"
   inkscape:connector-curvature="0"
   style="fill:#000000;stroke:none" />
         <path
   d="m 10522,15702 v 0 l -3,-25 -18,-23 -25,-15 -31,-8 -35,-5 -38,3 -41,7 -46,13 5,15 41,-12 41,-8 38,2 h 35 l 26,8 20,15 13,13 2,20 v 0 z"
   id="path368"
   inkscape:connector-curvature="0"
   style="fill:#000000;stroke:none" />
         <path
   d="m 10812,15674 -13,-7 -56,35 -54,26 -48,15 -43,3 h -36 l -23,-11 -12,-12 -5,-21 h -16 l 5,26 18,23 33,10 36,5 43,-8 54,-15 53,-25 61,-36 -13,-8 13,8 5,-5 -2,-8 -5,-2 h -8 z"
   id="path370"
   inkscape:connector-curvature="0"
   style="fill:#000000;stroke:none" />
         <path
   d="m 10934,14457 10,20 13,20 10,23 7,23 -12,26 -13,25 -13,31 -12,33 -13,30 -13,33 -10,33 -8,33 -2,10 v 13 l -3,10 -2,13 h -18 l -18,-3 -18,-5 -15,-5 8,-40 10,-46 15,-48 15,-49 21,-48 17,-48 23,-44 z"
   id="path372"
   inkscape:connector-curvature="0"
   style="fill:#ffffff;stroke:none" />
         <path
   d="m 10982,14546 v -5 l -8,-23 -10,-23 -13,-20 -10,-23 -15,10 10,18 13,20 10,23 8,23 v -5 5 l 5,5 h 5 l 5,-3 v -7 z"
   id="path374"
   inkscape:connector-curvature="0"
   style="fill:#000000;stroke:none" />
         <path
   d="m 10888,14787 v 0 l 8,-30 10,-33 12,-33 13,-31 13,-33 13,-30 12,-26 13,-25 -15,-5 -13,25 -13,25 -12,31 -13,33 -13,31 -13,33 -10,33 -7,35 v 0 0 l 2,5 5,3 5,-3 z"
   id="path376"
   inkscape:connector-curvature="0"
   style="fill:#000000;stroke:none" />
         <path
   d="m 10873,14843 7,-10 3,-13 2,-10 v -13 l 3,-10 h -15 l -3,10 v 13 l -2,10 -3,13 8,-10 -8,10 3,5 5,3 5,-3 2,-5 z"
   id="path378"
   inkscape:connector-curvature="0"
   style="fill:#000000;stroke:none" />
         <path
   d="m 10796,14820 5,8 16,5 20,5 18,3 18,2 v -20 l -18,2 -18,-2 -15,-5 -15,-5 5,7 -5,-7 h -8 l -3,5 v 5 l 5,5 z"
   id="path380"
   inkscape:connector-curvature="0"
   style="fill:#000000;stroke:none" />
         <path
   d="m 10941,14452 -15,2 -20,41 -23,43 -18,48 -20,49 -16,48 -15,48 -10,49 -8,40 h 16 l 7,-40 10,-44 16,-48 15,-48 20,-49 18,-48 23,-43 20,-41 -15,3 15,-3 v -7 l -5,-3 h -5 l -5,5 z"
   id="path382"
   inkscape:connector-curvature="0"
   style="fill:#000000;stroke:none" />
         <path
   d="m 10171,14772 -16,25 -20,21 -20,12 -18,8 2,-10 v -10 -8 l 3,-10 v -48 l -5,-46 -10,-41 -11,-38 -15,-36 -15,-30 -18,-25 -15,-23 8,-13 7,-15 8,-13 7,-13 6,-7 7,-11 8,-10 10,-10 18,26 15,30 18,36 15,43 13,46 10,53 8,56 z"
   id="path384"
   inkscape:connector-curvature="0"
   style="fill:#ffffff;stroke:none" />
         <path
   d="m 10089,14838 10,8 18,-8 23,-13 23,-23 15,-27 -15,-6 -15,23 -18,18 -18,13 -18,7 10,8 -10,-8 -5,3 v 8 l 3,5 h 7 z"
   id="path386"
   inkscape:connector-curvature="0"
   style="fill:#000000;stroke:none" />
         <path
   d="m 10094,14800 v 0 l -2,10 -3,8 3,10 -3,10 h 15 l 3,-10 3,-10 -3,-8 3,-10 v 0 0 l -3,-5 -5,-3 -5,3 z"
   id="path388"
   inkscape:connector-curvature="0"
   style="fill:#000000;stroke:none" />
         <path
   d="m 10005,14510 v 8 l 16,23 17,25 16,28 15,36 10,38 10,38 5,46 v 48 h 16 v -48 l -6,-46 -10,-43 -10,-38 -15,-36 -15,-33 -18,-26 -15,-22 v 7 -7 l -6,-5 -5,2 -5,5 v 8 z"
   id="path390"
   inkscape:connector-curvature="0"
   style="fill:#000000;stroke:none" />
         <path
   d="m 10036,14454 v 3 l -8,10 -7,15 -8,15 -8,13 16,5 7,-12 8,-16 7,-10 8,-15 v 2 -2 -8 l -5,-2 h -5 l -5,5 z"
   id="path392"
   inkscape:connector-curvature="0"
   style="fill:#000000;stroke:none" />
         <path
   d="m 10082,14416 h -16 l -10,10 -7,10 -8,11 -5,7 15,10 5,-7 8,-10 7,-11 11,-10 h -16 16 v -7 l -3,-5 -8,-3 -5,5 z"
   id="path394"
   inkscape:connector-curvature="0"
   style="fill:#000000;stroke:none" />
         <path
   d="m 10178,14775 v -3 -61 l -7,-56 -11,-53 -12,-49 -16,-43 -17,-35 -16,-34 -17,-25 -16,10 18,26 15,28 18,35 15,43 13,44 10,53 8,56 v 61 -3 l -3,3 3,8 8,2 7,-2 3,-8 z"
   id="path396"
   inkscape:connector-curvature="0"
   style="fill:#000000;stroke:none" />
         <path
   d="m 9965,15997 -31,5 h -28 l -25,-2 -23,-5 -21,-5 -17,-8 -13,-10 -13,-8 26,-43 15,-66 10,-81 8,-95 10,-99 13,-101 20,-99 30,-102 41,-99 54,-102 71,-99 89,-99 -38,48 -41,56 -36,64 -35,68 -33,71 -28,77 -26,78 -23,82 -15,79 -13,81 -5,79 v 76 l 8,71 15,69 23,63 z"
   id="path398"
   inkscape:connector-curvature="0"
   style="fill:#e0b71e;stroke:none" />
         <path
   d="m 9789,15959 v 13 l 13,7 13,11 20,7 23,5 23,5 25,6 28,-3 31,-5 v -15 l -31,5 -28,-3 h -25 l -23,-5 -18,-5 -15,-8 -13,-10 -13,-7 v 12 -12 h -7 l -5,2 -3,8 5,5 z"
   id="path400"
   inkscape:connector-curvature="0"
   style="fill:#000000;stroke:none" />
         <path
   d="m 9845,15679 v 0 l -8,95 -10,81 -15,63 -23,41 10,10 28,-45 15,-69 11,-81 7,-95 v 0 z"
   id="path402"
   inkscape:connector-curvature="0"
   style="fill:#000000;stroke:none" />
         <path
   d="m 10186,14884 -10,-10 -92,99 -71,99 -54,104 -40,99 -31,105 -20,99 -13,101 -10,99 h 15 l 10,-99 13,-101 21,-99 30,-100 41,-99 53,-99 71,-99 87,-99 -10,-10 10,10 2,-5 -2,-5 -5,-3 -5,3 z"
   id="path404"
   inkscape:connector-curvature="0"
   style="fill:#000000;stroke:none" />
         <path
   d="m 9965,16005 7,-13 -30,-53 -23,-64 -15,-66 -8,-71 v -76 l 5,-79 13,-81 15,-79 23,-79 25,-79 28,-76 33,-71 36,-69 36,-61 40,-56 36,-48 -10,-10 -41,48 -41,56 -35,66 -36,69 -33,71 -28,76 -25,79 -23,84 -16,79 -12,81 -5,79 v 76 l 7,71 16,71 22,64 31,58 8,-12 -8,12 5,5 8,-2 2,-5 v -8 z"
   id="path406"
   inkscape:connector-curvature="0"
   style="fill:#000000;stroke:none" />
         <path
   d="m 11147,14947 5,-25 v -23 l -5,-15 -12,-10 -23,5 -23,23 -18,35 -15,43 -8,41 3,36 10,20 h 23 l 10,5 -36,3 -17,-21 -6,-38 8,-46 15,-48 23,-41 28,-25 28,-5 23,18 5,30 -5,31 -8,25 z"
   id="path408"
   inkscape:connector-curvature="0"
   style="fill:#000000;stroke:none" />
         <path
   d="m 11132,14881 h 3 l 5,8 5,10 v 23 l -5,23 15,5 5,-28 v -23 l -5,-20 -20,-13 h 2 z"
   id="path410"
   inkscape:connector-curvature="0"
   style="fill:#000000;stroke:none" />
         <path
   d="m 11086,15069 h -5 -15 l -8,-12 -2,-36 7,-38 16,-43 17,-33 21,-21 15,-5 5,-15 -30,5 -26,26 -18,38 -15,43 -7,43 2,36 13,28 h 30 -5 5 l 5,-5 v -6 l -2,-5 h -8 z"
   id="path412"
   inkscape:connector-curvature="0"
   style="fill:#000000;stroke:none" />
         <path
   d="m 11096,15090 v -16 l -10,-5 -5,16 10,5 v -16 16 h 8 l 3,-5 v -8 l -6,-3 z"
   id="path414"
   inkscape:connector-curvature="0"
   style="fill:#000000;stroke:none" />
         <path
   d="m 11140,14853 v 0 l -33,5 -33,28 -23,44 -16,50 -10,46 8,41 23,25 40,-2 -5,-16 -30,3 -13,-15 -2,-36 5,-46 15,-45 23,-38 23,-23 23,-5 v 0 z"
   id="path416"
   inkscape:connector-curvature="0"
   style="fill:#000000;stroke:none" />
         <path
   d="m 11145,14968 h 15 l 8,-28 7,-31 -7,-35 -28,-21 -5,16 17,15 3,25 -3,31 -7,23 h 15 -15 v 7 l 5,3 h 8 l 2,-5 z"
   id="path418"
   inkscape:connector-curvature="0"
   style="fill:#000000;stroke:none" />
         <path
   d="m 11140,14945 v 5 l 5,18 15,-5 -5,-18 v 5 -5 l -3,-5 h -7 l -5,2 v 8 z"
   id="path420"
   inkscape:connector-curvature="0"
   style="fill:#000000;stroke:none" />
         <path
   d="m 9827,15077 -40,-41 -13,-45 10,-41 31,-31 25,-5 28,5 33,16 31,20 25,28 20,30 8,34 -5,33 -13,22 -10,11 -13,5 h -10 v -10 l 28,-13 10,-36 -13,-48 -40,-48 -23,-16 -20,-10 -21,-5 -15,-2 -15,2 -10,5 -11,8 -7,7 -10,28 5,33 17,31 23,18 z"
   id="path422"
   inkscape:connector-curvature="0"
   style="fill:#000000;stroke:none" />
         <path
   d="m 9812,14912 v 0 l -36,35 -12,44 15,50 43,44 10,-16 -38,-38 -10,-40 8,-39 25,-25 v 0 z"
   id="path424"
   inkscape:connector-curvature="0"
   style="fill:#000000;stroke:none" />
         <path
   d="m 9987,15082 v 0 l 8,-35 -10,-36 -20,-33 -28,-31 -33,-20 -34,-15 -30,-8 -28,8 5,15 23,-3 25,3 33,15 28,21 23,25 21,28 5,31 -3,30 v 0 z"
   id="path426"
   inkscape:connector-curvature="0"
   style="fill:#000000;stroke:none" />
         <path
   d="m 9924,15118 10,10 10,-3 18,-5 13,-12 12,-26 -15,-5 -13,20 -7,8 -8,5 -10,-2 10,10 -10,-10 -8,2 -2,8 2,7 8,3 z"
   id="path428"
   inkscape:connector-curvature="0"
   style="fill:#000000;stroke:none" />
         <path
   d="m 9934,15097 -10,11 v 10 h 20 v -10 l -10,10 10,-10 -2,-8 -8,-3 -8,3 -2,8 z"
   id="path430"
   inkscape:connector-curvature="0"
   style="fill:#000000;stroke:none" />
         <path
   d="m 9914,14970 v 0 l 38,43 10,46 -8,31 -20,7 v 21 l 36,-18 12,-41 -15,-51 -43,-53 v 0 z"
   id="path432"
   inkscape:connector-curvature="0"
   style="fill:#000000;stroke:none" />
         <path
   d="m 9804,14958 v 0 l 5,-6 11,-7 7,-5 h 13 15 l 18,5 18,10 23,15 10,-15 -23,-15 -23,-10 -23,-6 -15,-5 -18,5 -13,6 -10,7 -10,10 v 0 z"
   id="path434"
   inkscape:connector-curvature="0"
   style="fill:#000000;stroke:none" />
         <path
   d="m 9840,15064 -5,-10 -18,-15 -18,-28 -5,-31 10,-22 -15,-11 -10,33 5,36 18,33 28,20 -5,-10 5,10 h 7 l 3,-5 v -7 l -5,-3 z"
   id="path436"
   inkscape:connector-curvature="0"
   style="fill:#000000;stroke:none" />
         <path
   d="m 9822,15085 13,-5 5,-16 -15,-5 -5,15 12,-5 -12,5 v 8 l 5,3 h 7 l 3,-5 z"
   id="path438"
   inkscape:connector-curvature="0"
   style="fill:#000000;stroke:none" />
         <path
   d="m 9848,14965 -21,-18 -15,-17 -5,-21 v -18 l 5,-20 13,-18 15,-15 18,-13 25,-5 31,5 30,16 33,22 26,28 20,31 8,36 -5,33 -13,17 -15,11 -18,2 -18,-2 13,-13 h 18 l 12,-8 8,-15 5,-20 -5,-23 -8,-26 -18,-25 -28,-23 -22,-15 -23,-10 -18,-5 -15,-3 -13,3 -10,2 -10,8 -8,7 -13,28 -5,26 8,23 20,17 z"
   id="path440"
   inkscape:connector-curvature="0"
   style="fill:#000000;stroke:none" />
         <path
   d="m 9855,14818 v 0 l -20,12 -18,18 -13,21 -5,22 v 18 l 5,23 18,20 20,21 11,-15 -21,-16 -12,-15 -5,-18 v -18 l 5,-17 12,-16 13,-12 15,-13 v 0 z"
   id="path442"
   inkscape:connector-curvature="0"
   style="fill:#000000;stroke:none" />
         <path
   d="m 10033,14993 v 0 l 8,-35 -10,-39 -21,-33 -28,-30 -33,-23 -33,-15 -33,-8 -28,8 5,15 23,-3 28,3 28,15 33,23 23,26 20,27 6,34 -3,30 v 0 z"
   id="path444"
   inkscape:connector-curvature="0"
   style="fill:#000000;stroke:none" />
         <path
   d="m 9957,15013 5,13 18,5 20,-5 18,-13 15,-20 -15,-5 -10,15 -13,8 h -15 -18 l 5,13 -5,-13 -5,2 -3,6 3,5 5,2 z"
   id="path446"
   inkscape:connector-curvature="0"
   style="fill:#000000;stroke:none" />
         <path
   d="m 9977,14998 -7,3 -13,12 10,11 13,-13 -8,2 8,-2 2,-5 -2,-5 -5,-3 -5,3 z"
   id="path448"
   inkscape:connector-curvature="0"
   style="fill:#000000;stroke:none" />
         <path
   d="m 9954,14874 v 0 l 28,20 16,23 7,25 3,21 -3,17 -5,13 -7,5 h -16 l -5,15 h 21 l 17,-10 11,-17 7,-23 -7,-26 -8,-25 -20,-28 -28,-26 v 0 z"
   id="path450"
   inkscape:connector-curvature="0"
   style="fill:#000000;stroke:none" />
         <path
   d="m 9848,14858 v 0 l 5,-5 7,-7 8,-3 h 13 15 l 15,5 23,10 20,16 11,-16 -26,-15 -23,-10 -20,-5 -15,-5 -13,5 -13,2 -13,8 -10,10 v 0 z"
   id="path452"
   inkscape:connector-curvature="0"
   style="fill:#000000;stroke:none" />
         <path
   d="m 9858,14947 -5,-7 -16,-16 -5,-17 3,-23 13,-26 -16,-10 -12,31 -8,28 10,28 26,20 -6,-8 6,8 h 7 l 3,-5 v -8 l -5,-2 z"
   id="path454"
   inkscape:connector-curvature="0"
   style="fill:#000000;stroke:none" />
         <path
   d="m 9842,14973 13,-8 3,-18 h -16 l -2,18 13,-7 -13,7 2,5 6,3 5,-3 2,-5 z"
   id="path456"
   inkscape:connector-curvature="0"
   style="fill:#000000;stroke:none" />
        </g>
       </g>
      </g>
     </g>
    </g>
   </g>
  </g>
 </g>
</svg>