<?xml version="1.0" encoding="UTF-8" standalone="no"?>
<svg
   xmlns:ooo="http://xml.openoffice.org/svg/export"
   xmlns:dc="http://purl.org/dc/elements/1.1/"
   xmlns:cc="http://creativecommons.org/ns#"
   xmlns:rdf="http://www.w3.org/1999/02/22-rdf-syntax-ns#"
   xmlns:svg="http://www.w3.org/2000/svg"
   xmlns="http://www.w3.org/2000/svg"
   xmlns:sodipodi="http://sodipodi.sourceforge.net/DTD/sodipodi-0.dtd"
   xmlns:inkscape="http://www.inkscape.org/namespaces/inkscape"
   version="1.2"
   width="14.48mm"
   height="26.719999mm"
   viewBox="0 0 1448 2671.9999"
   preserveAspectRatio="xMidYMid"
   xml:space="preserve"
   id="svg533"
   sodipodi:docname="people14.svg"
   style="fill-rule:evenodd;stroke-width:28.22200012;stroke-linejoin:round"
   inkscape:version="0.92.5 (2060ec1f9f, 2020-04-08)"><metadata
   id="metadata537"><rdf:RDF><cc:Work
       rdf:about=""><dc:format>image/svg+xml</dc:format><dc:type
         rdf:resource="http://purl.org/dc/dcmitype/StillImage" /></cc:Work></rdf:RDF></metadata><sodipodi:namedview
   pagecolor="#ffffff"
   bordercolor="#666666"
   borderopacity="1"
   objecttolerance="10"
   gridtolerance="10"
   guidetolerance="10"
   inkscape:pageopacity="0"
   inkscape:pageshadow="2"
   inkscape:window-width="664"
   inkscape:window-height="487"
   id="namedview535"
   showgrid="false"
   inkscape:zoom="0.2102413"
   inkscape:cx="27.36378"
   inkscape:cy="50.494487"
   inkscape:window-x="0"
   inkscape:window-y="0"
   inkscape:window-maximized="0"
   inkscape:current-layer="svg533" />
 <defs
   class="ClipPathGroup"
   id="defs8">
  <clipPath
   id="presentation_clip_path"
   clipPathUnits="userSpaceOnUse">
   <rect
   x="0"
   y="0"
   width="21000"
   height="29700"
   id="rect2" />
  </clipPath>
  <clipPath
   id="presentation_clip_path_shrink"
   clipPathUnits="userSpaceOnUse">
   <rect
   x="21"
   y="29"
   width="20958"
   height="29641"
   id="rect5" />
  </clipPath>
 </defs>
 <defs
   class="TextShapeIndex"
   id="defs12">
  <g
   ooo:slide="id1"
   ooo:id-list="id3"
   id="g10" />
 </defs>
 <defs
   class="EmbeddedBulletChars"
   id="defs44">
  <g
   id="bullet-char-template-57356"
   transform="matrix(4.8828125e-4,0,0,-4.8828125e-4,0,0)">
   <path
   d="M 580,1141 1163,571 580,0 -4,571 Z"
   id="path14"
   inkscape:connector-curvature="0" />
  </g>
  <g
   id="bullet-char-template-57354"
   transform="matrix(4.8828125e-4,0,0,-4.8828125e-4,0,0)">
   <path
   d="M 8,1128 H 1137 V 0 H 8 Z"
   id="path17"
   inkscape:connector-curvature="0" />
  </g>
  <g
   id="bullet-char-template-10146"
   transform="matrix(4.8828125e-4,0,0,-4.8828125e-4,0,0)">
   <path
   d="M 174,0 602,739 174,1481 1456,739 Z M 1358,739 309,1346 659,739 Z"
   id="path20"
   inkscape:connector-curvature="0" />
  </g>
  <g
   id="bullet-char-template-10132"
   transform="matrix(4.8828125e-4,0,0,-4.8828125e-4,0,0)">
   <path
   d="M 2015,739 1276,0 H 717 l 543,543 H 174 v 393 h 1086 l -543,545 h 557 z"
   id="path23"
   inkscape:connector-curvature="0" />
  </g>
  <g
   id="bullet-char-template-10007"
   transform="matrix(4.8828125e-4,0,0,-4.8828125e-4,0,0)">
   <path
   d="m 0,-2 c -7,16 -16,29 -25,39 l 381,530 c -94,256 -141,385 -141,387 0,25 13,38 40,38 9,0 21,-2 34,-5 21,4 42,12 65,25 l 27,-13 111,-251 280,301 64,-25 24,25 c 21,-10 41,-24 62,-43 C 886,937 835,863 770,784 769,783 710,716 594,584 L 774,223 c 0,-27 -21,-55 -63,-84 l 16,-20 C 717,90 699,76 672,76 641,76 570,178 457,381 L 164,-76 c -22,-34 -53,-51 -92,-51 -42,0 -63,17 -64,51 -7,9 -10,24 -10,44 0,9 1,19 2,30 z"
   id="path26"
   inkscape:connector-curvature="0" />
  </g>
  <g
   id="bullet-char-template-10004"
   transform="matrix(4.8828125e-4,0,0,-4.8828125e-4,0,0)">
   <path
   d="M 285,-33 C 182,-33 111,30 74,156 52,228 41,333 41,471 c 0,78 14,145 41,201 34,71 87,106 158,106 53,0 88,-31 106,-94 l 23,-176 c 8,-64 28,-97 59,-98 l 735,706 c 11,11 33,17 66,17 42,0 63,-15 63,-46 V 965 c 0,-36 -10,-64 -30,-84 L 442,47 C 390,-6 338,-33 285,-33 Z"
   id="path29"
   inkscape:connector-curvature="0" />
  </g>
  <g
   id="bullet-char-template-9679"
   transform="matrix(4.8828125e-4,0,0,-4.8828125e-4,0,0)">
   <path
   d="M 813,0 C 632,0 489,54 383,161 276,268 223,411 223,592 c 0,181 53,324 160,431 106,107 249,161 430,161 179,0 323,-54 432,-161 108,-107 162,-251 162,-431 0,-180 -54,-324 -162,-431 C 1136,54 992,0 813,0 Z"
   id="path32"
   inkscape:connector-curvature="0" />
  </g>
  <g
   id="bullet-char-template-8226"
   transform="matrix(4.8828125e-4,0,0,-4.8828125e-4,0,0)">
   <path
   d="m 346,457 c -73,0 -137,26 -191,78 -54,51 -81,114 -81,188 0,73 27,136 81,188 54,52 118,78 191,78 73,0 134,-26 185,-79 51,-51 77,-114 77,-187 0,-75 -25,-137 -76,-188 -50,-52 -112,-78 -186,-78 z"
   id="path35"
   inkscape:connector-curvature="0" />
  </g>
  <g
   id="bullet-char-template-8211"
   transform="matrix(4.8828125e-4,0,0,-4.8828125e-4,0,0)">
   <path
   d="M -4,459 H 1135 V 606 H -4 Z"
   id="path38"
   inkscape:connector-curvature="0" />
  </g>
  <g
   id="bullet-char-template-61548"
   transform="matrix(4.8828125e-4,0,0,-4.8828125e-4,0,0)">
   <path
   d="m 173,740 c 0,163 58,303 173,419 116,115 255,173 419,173 163,0 302,-58 418,-173 116,-116 174,-256 174,-419 0,-163 -58,-303 -174,-418 C 1067,206 928,148 765,148 601,148 462,206 346,322 231,437 173,577 173,740 Z"
   id="path41"
   inkscape:connector-curvature="0" />
  </g>
 </defs>
 <g
   id="g49"
   transform="translate(-9776,-13514)">
  <g
   id="id2"
   class="Master_Slide">
   <g
   id="bg-id2"
   class="Background" />
   <g
   id="bo-id2"
   class="BackgroundObjects" />
  </g>
 </g>
 <g
   class="SlideGroup"
   id="g531"
   transform="translate(-9776,-13514)">
  <g
   id="g529">
   <g
   id="container-id1">
    <g
   id="id1"
   class="Slide"
   clip-path="url(#presentation_clip_path)">
     <g
   class="Page"
   id="g525">
      <g
   class="Graphic"
   id="g523">
       <g
   id="id3">
        <rect
   class="BoundingBox"
   x="9776"
   y="13514"
   width="1448"
   height="2672"
   id="rect51"
   style="fill:none;stroke:none" />
        <defs
   id="defs56">
         <clipPath
   id="clip_path_1"
   clipPathUnits="userSpaceOnUse">
          <path
   d="m 9776,13514 h 1447 v 2671 H 9776 Z"
   id="path53"
   inkscape:connector-curvature="0" />
         </clipPath>
        </defs>
        <g
   clip-path="url(#clip_path_1)"
   id="g520">
         <path
   d="m 10435,16039 -18,5 -18,5 -17,7 -18,5 -18,-17 -23,-16 -25,-12 -26,-11 -28,-2 -28,-3 -23,5 -23,8 -2,15 -8,16 -23,12 -40,13 -23,8 -21,12 -17,13 -13,15 -8,16 -5,15 -2,15 2,10 h 28 l 36,-2 h 40 l 44,-3 h 40 36 31 20 l 8,-43 45,5 v 33 h 11 10 10 l 10,-2 10,-3 h 10 11 7 l 8,-25 5,-31 3,-33 z"
   id="path58"
   inkscape:connector-curvature="0"
   style="fill:#000000;stroke:none" />
         <path
   d="m 10356,16067 10,2 18,-5 18,-8 18,-5 18,-5 -5,-15 -18,5 -18,5 -18,8 -18,5 10,2 -10,-2 -5,2 v 8 l 3,5 h 7 z"
   id="path60"
   inkscape:connector-curvature="0"
   style="fill:#000000;stroke:none" />
         <path
   d="m 10181,16013 -8,8 23,-8 20,-2 h 28 l 28,2 23,10 23,13 23,15 15,16 15,-11 -20,-20 -23,-15 -28,-13 -28,-10 -28,-3 -28,-5 -25,8 -23,7 -8,8 8,-8 -5,3 v 8 l 2,5 h 8 z"
   id="path62"
   inkscape:connector-curvature="0"
   style="fill:#000000;stroke:none" />
         <path
   d="m 10099,16077 h -2 l 43,-13 25,-15 11,-18 5,-18 h -21 v 13 l -5,13 -20,10 -38,12 h -3 z"
   id="path64"
   inkscape:connector-curvature="0"
   style="fill:#000000;stroke:none" />
         <path
   d="m 10010,16166 8,5 v -8 -15 l 5,-13 7,-13 11,-15 17,-10 18,-13 23,-7 -5,-16 -23,8 -23,13 -18,15 -15,15 -7,18 -6,18 -5,15 5,13 8,5 -8,-5 6,5 h 5 l 5,-3 v -7 z"
   id="path66"
   inkscape:connector-curvature="0"
   style="fill:#000000;stroke:none" />
         <path
   d="m 10277,16168 8,-7 -20,-3 h -31 -36 -40 l -44,3 h -40 l -36,2 -28,3 v 15 l 28,2 36,-2 h 40 l 44,-3 h 40 36 31 l 20,-2 8,-8 -8,8 5,-3 3,-5 -3,-5 -5,-2 z"
   id="path68"
   inkscape:connector-curvature="0"
   style="fill:#000000;stroke:none" />
         <path
   d="m 10293,16117 -8,8 -8,43 h 16 l 7,-43 -7,8 7,-8 -2,-5 -5,-3 -5,3 -3,5 z"
   id="path70"
   inkscape:connector-curvature="0"
   style="fill:#000000;stroke:none" />
         <path
   d="m 10349,16130 -11,-8 -45,-5 v 16 l 45,5 -10,-8 10,8 5,-3 3,-5 -3,-5 -5,-3 z"
   id="path72"
   inkscape:connector-curvature="0"
   style="fill:#000000;stroke:none" />
         <path
   d="m 10338,16155 11,8 v -33 h -21 v 33 l 10,8 -10,-8 3,8 7,2 8,-2 3,-8 z"
   id="path74"
   inkscape:connector-curvature="0"
   style="fill:#000000;stroke:none" />
         <path
   d="m 10410,16155 7,-5 -7,-2 h -11 l -10,2 -10,3 -10,2 -10,-2 h -10 l -11,2 v 16 l 11,2 h 10 l 10,-2 10,-3 10,-2 10,2 h 11 l 7,-2 8,-5 -8,5 5,-3 3,-5 -3,-5 -5,-3 z"
   id="path76"
   inkscape:connector-curvature="0"
   style="fill:#000000;stroke:none" />
         <path
   d="m 10438,16046 -11,-7 -2,30 -3,33 -5,31 -7,22 15,6 8,-28 5,-31 2,-33 3,-30 -10,-8 10,8 -3,-6 -5,-2 -5,2 -3,6 z"
   id="path78"
   inkscape:connector-curvature="0"
   style="fill:#000000;stroke:none" />
         <path
   d="m 10819,16049 -28,-10 -28,-8 -30,-5 -31,-5 -30,-5 h -31 -30 -31 v 38 l 3,46 2,38 3,20 h 10 l 15,3 h 16 l 15,2 15,3 h 13 l 10,2 h 8 l 2,-35 48,12 3,28 18,3 h 28 l 35,2 39,3 38,2 h 33 l 28,3 h 15 l 3,-18 -3,-18 -7,-15 -13,-18 -21,-17 -28,-16 -38,-17 z"
   id="path80"
   inkscape:connector-curvature="0"
   style="fill:#000000;stroke:none" />
         <path
   d="m 10590,16016 -10,7 31,3 h 30 l 31,-3 30,5 31,5 30,6 26,7 28,10 5,-15 -28,-10 -31,-8 -30,-5 -31,-5 -30,-5 -31,-3 h -30 l -31,3 -10,8 10,-8 -5,3 -2,5 2,5 5,2 z"
   id="path82"
   inkscape:connector-curvature="0"
   style="fill:#000000;stroke:none" />
         <path
   d="m 10588,16150 7,5 -2,-17 -3,-38 v -46 -38 h -20 v 38 l 5,46 3,38 2,23 8,5 -8,-5 5,5 h 5 l 5,-3 v -8 z"
   id="path84"
   inkscape:connector-curvature="0"
   style="fill:#000000;stroke:none" />
         <path
   d="m 10682,16168 8,-7 h -8 l -10,-3 h -13 l -15,-3 -15,-2 h -16 l -15,-3 h -10 v 16 h 10 l 15,2 h 16 l 15,3 15,2 h 13 l 10,3 h 8 l 7,-8 -7,8 5,-3 2,-5 -2,-5 -5,-2 z"
   id="path86"
   inkscape:connector-curvature="0"
   style="fill:#000000;stroke:none" />
         <path
   d="m 10695,16125 -11,8 -2,35 h 15 l 3,-35 -10,7 10,-7 -3,-5 -5,-3 -5,3 -3,5 z"
   id="path88"
   inkscape:connector-curvature="0"
   style="fill:#000000;stroke:none" />
         <path
   d="m 10748,16145 -5,-7 -48,-13 -5,15 48,13 -5,-8 5,8 h 8 l 2,-5 v -8 l -5,-2 z"
   id="path90"
   inkscape:connector-curvature="0"
   style="fill:#000000;stroke:none" />
         <path
   d="m 10743,16166 8,7 -3,-28 h -15 l 2,28 8,8 -8,-8 3,5 5,3 5,-3 3,-5 z"
   id="path92"
   inkscape:connector-curvature="0"
   style="fill:#000000;stroke:none" />
         <path
   d="m 10970,16186 7,-10 h -15 l -28,-3 h -33 -38 l -39,-2 -35,-5 h -28 -18 v 15 l 18,5 h 28 35 l 39,3 38,5 h 33 l 28,2 h 15 l 8,-10 -8,10 8,-2 2,-8 -2,-8 -8,-2 z"
   id="path94"
   inkscape:connector-curvature="0"
   style="fill:#000000;stroke:none" />
         <path
   d="m 10817,16056 v 0 l 51,18 38,18 25,15 21,15 10,18 8,13 v 15 18 h 15 l 5,-18 -5,-20 -8,-18 -15,-18 -20,-20 -31,-15 -38,-18 -51,-18 v 0 0 h -8 l -2,5 v 5 z"
   id="path96"
   inkscape:connector-curvature="0"
   style="fill:#000000;stroke:none" />
         <path
   d="m 10359,13753 -10,33 -11,36 -5,35 -5,38 3,41 10,38 15,38 26,36 25,30 20,28 13,23 10,21 5,17 3,18 v 15 16 h -8 -7 -8 l -10,2 -10,3 h -10 l -13,2 -10,5 -13,3 -13,5 -10,8 -13,5 -15,10 -13,10 -12,10 -13,13 v -79 -74 l -5,-63 -5,-51 -10,-51 -8,-58 -3,-54 21,-33 15,-10 13,-10 12,-10 13,-10 10,-11 8,-7 10,-10 z"
   id="path98"
   inkscape:connector-curvature="0"
   style="fill:#ffffff;stroke:none" />
         <path
   d="m 10389,14043 h -2 l -23,-33 -15,-38 -11,-36 v -41 l 3,-38 5,-35 10,-33 10,-33 -15,-6 -10,33 -10,39 -5,35 -8,38 5,41 10,41 16,38 28,38 h -3 z"
   id="path100"
   inkscape:connector-curvature="0"
   style="fill:#000000;stroke:none" />
         <path
   d="m 10458,14226 8,-10 2,-16 -2,-15 -3,-18 -5,-20 -10,-20 -13,-26 -20,-28 -26,-30 -15,10 25,30 21,28 13,21 10,20 5,15 2,18 -2,15 2,16 8,-10 -10,10 2,7 8,3 8,-3 2,-7 z"
   id="path102"
   inkscape:connector-curvature="0"
   style="fill:#000000;stroke:none" />
         <path
   d="m 10425,14226 v 0 l 10,-3 8,3 h 7 8 v -20 h -8 -7 l -8,2 -10,3 v 0 0 l -5,2 -3,5 3,5 z"
   id="path104"
   inkscape:connector-curvature="0"
   style="fill:#000000;stroke:none" />
         <path
   d="m 10338,14256 v 0 l 11,-5 10,-7 12,-5 13,-3 10,-5 11,-3 h 10 l 10,-2 v -15 l -10,2 h -10 l -16,3 -10,5 -13,2 -12,5 -11,8 -15,5 v 0 0 l -5,5 3,5 5,5 z"
   id="path106"
   inkscape:connector-curvature="0"
   style="fill:#000000;stroke:none" />
         <path
   d="m 10272,14292 16,5 10,-13 12,-7 13,-10 15,-11 -10,-15 -15,10 -13,10 -12,13 -16,13 16,5 -16,-5 v 7 l 5,6 5,2 6,-5 z"
   id="path108"
   inkscape:connector-curvature="0"
   style="fill:#000000;stroke:none" />
         <path
   d="m 10262,14025 v 0 l 5,51 5,63 -2,74 2,79 h 16 l 2,-79 -2,-74 -6,-63 -5,-51 v 0 z"
   id="path110"
   inkscape:connector-curvature="0"
   style="fill:#000000;stroke:none" />
         <path
   d="m 10265,13822 v 0 l -23,40 2,54 8,58 10,51 h 15 l -10,-51 -7,-58 -3,-54 18,-25 v 0 z"
   id="path112"
   inkscape:connector-curvature="0"
   style="fill:#000000;stroke:none" />
         <path
   d="m 10366,13756 -12,-8 -8,8 -10,10 -8,7 -10,10 -13,8 -12,10 -13,10 -15,11 10,15 15,-10 13,-10 13,-11 12,-12 10,-11 8,-7 10,-10 8,-8 -13,-8 13,8 2,-5 -2,-5 -5,-3 -5,3 z"
   id="path114"
   inkscape:connector-curvature="0"
   style="fill:#000000;stroke:none" />
         <path
   d="m 10746,14185 -6,-35 -7,-44 -5,-48 -3,-53 v -59 l 8,-56 13,-58 25,-54 10,8 13,8 13,7 12,8 13,10 10,5 10,5 8,5 -2,38 5,39 12,38 16,40 12,26 13,33 15,41 13,48 8,53 2,61 -7,69 -21,71 -10,-13 -13,-12 -15,-16 -18,-15 -20,-15 -20,-13 -21,-15 -18,-13 -10,-10 -10,-8 -10,-7 -8,-5 v -13 l -2,-13 -3,-15 z"
   id="path116"
   inkscape:connector-curvature="0"
   style="fill:#ffffff;stroke:none" />
         <path
   d="m 10776,13771 -13,5 -25,53 -13,61 -7,56 -3,59 5,53 5,48 8,44 5,35 h 15 l -5,-35 -8,-44 -5,-48 v -53 l -2,-59 7,-56 13,-56 26,-53 -13,5 13,-5 v -8 l -5,-2 h -6 l -5,5 z"
   id="path118"
   inkscape:connector-curvature="0"
   style="fill:#000000;stroke:none" />
         <path
   d="m 10868,13834 -5,-7 -8,-5 -10,-5 -8,-6 -13,-10 -12,-7 -13,-8 -13,-8 -10,-7 -10,15 10,8 13,7 13,8 12,8 13,10 13,5 10,5 8,5 -6,-8 6,8 h 7 l 3,-5 v -8 l -5,-2 z"
   id="path120"
   inkscape:connector-curvature="0"
   style="fill:#000000;stroke:none" />
         <path
   d="m 10898,13987 v 0 l -15,-41 -13,-35 -2,-39 v -38 h -16 l -5,38 8,39 13,40 15,41 v 0 z"
   id="path122"
   inkscape:connector-curvature="0"
   style="fill:#000000;stroke:none" />
         <path
   d="m 10919,14396 15,-2 20,-74 8,-69 -3,-61 -7,-53 -13,-51 -15,-41 -13,-33 -13,-25 -15,5 13,25 12,33 16,41 12,46 8,53 3,61 -8,69 -20,69 15,-3 -15,3 v 7 l 5,3 h 7 l 3,-5 z"
   id="path124"
   inkscape:connector-curvature="0"
   style="fill:#000000;stroke:none" />
         <path
   d="m 10786,14287 v 0 l 18,13 20,15 21,13 20,15 18,13 15,15 13,12 8,13 15,-10 -13,-13 -13,-12 -15,-16 -18,-17 -20,-16 -20,-12 -21,-16 -18,-12 v 0 0 h -7 l -5,2 -3,8 z"
   id="path126"
   inkscape:connector-curvature="0"
   style="fill:#000000;stroke:none" />
         <path
   d="m 10743,14249 5,7 8,5 10,8 10,8 10,10 10,-15 -10,-11 -10,-7 -10,-8 -8,-5 5,8 -5,-8 h -7 l -5,3 -3,7 5,5 z"
   id="path128"
   inkscape:connector-curvature="0"
   style="fill:#000000;stroke:none" />
         <path
   d="m 10738,14185 v 0 l 2,23 3,15 3,13 -3,13 h 20 l -2,-13 -3,-13 -2,-15 -3,-23 v 0 0 l -2,-5 -5,-2 -6,2 z"
   id="path130"
   inkscape:connector-curvature="0"
   style="fill:#000000;stroke:none" />
         <path
   d="m 10359,13753 28,-8 38,-7 41,-10 43,-11 46,-7 40,-8 39,-5 h 30 l 8,8 10,7 15,10 15,11 16,12 15,11 15,12 13,10 10,8 13,8 13,7 12,8 13,10 10,5 10,5 8,5 18,-12 15,-56 5,-64 -5,-33 h -10 l -8,5 -5,8 v 2 l -15,-15 -23,-18 -25,-20 -28,-23 -28,-20 -23,-18 -21,-13 -10,-7 -5,-18 -13,-8 -12,5 -5,18 -28,3 -39,7 -45,8 -49,10 -46,10 -40,8 -33,10 -18,5 -5,-15 -10,-5 -13,2 -15,18 -11,43 3,59 15,46 z"
   id="path132"
   inkscape:connector-curvature="0"
   style="fill:#ffffff;stroke:none" />
         <path
   d="m 10669,13692 -5,-3 h -30 l -39,6 -40,7 -46,8 -43,10 -41,10 -38,8 -28,7 v 16 l 28,-8 38,-8 41,-10 43,-10 46,-8 40,-7 39,-5 h 30 l -5,-3 5,5 8,-2 2,-8 -2,-8 -8,-2 z"
   id="path134"
   inkscape:connector-curvature="0"
   style="fill:#000000;stroke:none" />
         <path
   d="m 10776,13771 v 2 l -13,-12 -15,-13 -15,-10 -15,-13 -16,-10 -15,-10 -10,-8 -8,-5 -10,10 8,10 10,8 15,10 15,10 16,13 15,10 15,13 13,7 v 3 -3 h 5 l 5,-2 3,-3 -3,-5 z"
   id="path136"
   inkscape:connector-curvature="0"
   style="fill:#000000;stroke:none" />
         <path
   d="m 10865,13829 -2,-2 -8,-5 -10,-5 -8,-6 -13,-10 -12,-7 -13,-8 -13,-8 -10,-7 -10,15 10,8 13,7 13,8 12,8 13,10 13,5 10,5 8,5 -3,-3 3,3 h 7 l 3,-5 v -8 l -5,-2 z"
   id="path138"
   inkscape:connector-curvature="0"
   style="fill:#000000;stroke:none" />
         <path
   d="m 10891,13677 v 0 l -3,25 -2,64 -16,53 -5,10 -10,10 31,-15 15,-58 7,-64 -12,-41 v 0 z"
   id="path140"
   inkscape:connector-curvature="0"
   style="fill:#000000;stroke:none" />
         <path
   d="m 10865,13689 13,-5 v 0 l 2,-5 6,-2 h 5 l 5,-16 h -16 l -10,8 -7,10 v 5 l 12,-5 -12,5 2,5 5,3 5,-3 3,-5 z"
   id="path142"
   inkscape:connector-curvature="0"
   style="fill:#000000;stroke:none" />
         <path
   d="m 10690,13550 5,7 7,8 21,13 23,17 28,21 28,23 25,20 23,18 15,12 10,-10 -15,-18 -23,-17 -25,-21 -28,-23 -28,-20 -23,-18 -21,-12 -12,-8 5,8 -5,-8 h -8 l -2,5 v 5 l 5,5 z"
   id="path144"
   inkscape:connector-curvature="0"
   style="fill:#000000;stroke:none" />
         <path
   d="m 10662,13555 10,-8 2,-13 5,-2 5,5 6,13 h 15 l -5,-23 -21,-10 -20,7 -8,23 11,-8 -11,8 3,8 8,2 7,-2 3,-8 z"
   id="path146"
   inkscape:connector-curvature="0"
   style="fill:#000000;stroke:none" />
         <path
   d="m 10356,13608 10,8 18,-5 31,-11 40,-7 46,-10 49,-11 45,-7 39,-8 28,-2 v -16 l -28,3 -39,8 -45,7 -49,10 -46,11 -40,7 -36,10 -18,5 10,8 -10,-8 -5,3 v 8 l 3,5 h 7 z"
   id="path148"
   inkscape:connector-curvature="0"
   style="fill:#000000;stroke:none" />
         <path
   d="m 10328,13611 v 2 l 13,-15 8,-3 2,3 5,10 h 15 l -5,-20 -17,-8 -18,3 -18,20 v 3 z"
   id="path150"
   inkscape:connector-curvature="0"
   style="fill:#000000;stroke:none" />
         <path
   d="m 10359,13745 h -5 l -21,5 -12,-40 -3,-59 10,-40 -15,-5 -10,45 2,59 18,51 h 41 -5 5 l 5,-5 -3,-8 -5,-3 h -7 z"
   id="path152"
   inkscape:connector-curvature="0"
   style="fill:#000000;stroke:none" />
         <path
   d="m 10863,13720 -3,15 -2,18 -3,18 -3,18 v 12 13 l 3,10 5,10 18,-12 15,-56 5,-64 -5,-33 h -10 l -8,5 -5,8 v 2 l -2,8 v 10 l -3,8 z"
   id="path154"
   inkscape:connector-curvature="0"
   style="fill:#000000;stroke:none" />
         <path
   d="m 10863,13789 h -3 l 3,-18 2,-18 3,-18 2,-15 h -15 l -3,15 -2,18 -3,18 -2,18 h -3 3 l 2,5 5,2 6,-2 2,-5 z"
   id="path156"
   inkscape:connector-curvature="0"
   style="fill:#000000;stroke:none" />
         <path
   d="m 10865,13829 h 3 l -5,-7 -3,-8 3,-13 v -12 h -21 v 12 l 3,13 2,13 5,12 h 3 -3 l 6,6 7,-3 3,-5 v -8 z"
   id="path158"
   inkscape:connector-curvature="0"
   style="fill:#000000;stroke:none" />
         <path
   d="m 10891,13677 v 0 l -3,25 -2,64 -16,53 -5,10 -10,10 31,-15 15,-58 7,-64 -12,-41 v 0 z"
   id="path160"
   inkscape:connector-curvature="0"
   style="fill:#000000;stroke:none" />
         <path
   d="m 10878,13684 v 0 0 l 2,-5 6,-2 h 5 l 5,-16 h -16 l -10,8 -7,10 v 5 0 0 l 2,5 5,3 5,-3 z"
   id="path162"
   inkscape:connector-curvature="0"
   style="fill:#000000;stroke:none" />
         <path
   d="m 10870,13720 v 0 l 3,-8 2,-10 v -10 l 3,-8 h -15 l -3,8 v 10 l -2,5 -3,13 v 0 0 l 3,5 5,3 5,-3 z"
   id="path164"
   inkscape:connector-curvature="0"
   style="fill:#000000;stroke:none" />
         <path
   d="m 10679,13667 3,-13 2,-15 3,-16 3,-15 2,-15 3,-15 v -16 l 2,-12 -5,-18 -13,-8 -12,5 -5,18 v 10 13 13 l -3,15 -2,15 v 13 l -3,15 v 13 18 12 l 3,11 5,5 h 5 l 5,-8 2,-10 z"
   id="path166"
   inkscape:connector-curvature="0"
   style="fill:#000000;stroke:none" />
         <path
   d="m 10682,13608 v 0 l -3,15 -2,16 -3,15 -2,10 15,5 3,-15 2,-15 3,-16 2,-15 v 0 0 l -2,-5 -5,-3 -6,3 z"
   id="path168"
   inkscape:connector-curvature="0"
   style="fill:#000000;stroke:none" />
         <path
   d="m 10690,13550 v 0 l -3,12 v 16 l -3,15 -2,15 h 15 l 3,-15 2,-15 v -16 l 3,-12 v 0 0 l -3,-5 -5,-3 -5,3 z"
   id="path170"
   inkscape:connector-curvature="0"
   style="fill:#000000;stroke:none" />
         <path
   d="m 10669,13547 h 3 l 2,-13 5,-2 5,5 6,13 h 15 l -5,-23 -21,-10 -20,7 -8,23 h 3 -3 l 3,8 8,2 7,-2 3,-8 z"
   id="path172"
   inkscape:connector-curvature="0"
   style="fill:#000000;stroke:none" />
         <path
   d="m 10667,13598 v 0 l 2,-15 3,-13 v -13 l -3,-10 h -15 l -3,10 v 13 l 3,13 -3,15 v 0 z"
   id="path174"
   inkscape:connector-curvature="0"
   style="fill:#000000;stroke:none" />
         <path
   d="m 10662,13654 h 2 l -2,-13 2,-15 v -13 l 3,-15 h -16 l -2,15 v 13 l -3,15 -2,13 h 2 z"
   id="path176"
   inkscape:connector-curvature="0"
   style="fill:#000000;stroke:none" />
         <path
   d="m 10664,13692 v 0 0 l -2,-8 2,-12 -2,-18 h -16 l -2,18 2,12 3,13 10,10 v 0 z"
   id="path178"
   inkscape:connector-curvature="0"
   style="fill:#000000;stroke:none" />
         <path
   d="m 10672,13664 v 3 l -5,12 -3,10 -2,3 h 2 l -5,15 h 13 l 7,-12 3,-11 5,-17 v 2 -2 l -3,-6 -5,-2 -5,2 -2,6 z"
   id="path180"
   inkscape:connector-curvature="0"
   style="fill:#000000;stroke:none" />
         <path
   d="m 10369,13644 v 15 20 l -3,18 -2,20 -3,11 v 7 10 l -2,8 -31,3 -15,-46 -3,-59 11,-43 15,-18 13,-2 10,5 5,15 2,8 v 7 l 3,10 z"
   id="path182"
   inkscape:connector-curvature="0"
   style="fill:#000000;stroke:none" />
         <path
   d="m 10371,13717 v 0 l 3,-20 3,-18 2,-20 v -15 h -20 v 15 l 2,20 -2,18 -3,20 v 0 0 l 3,5 5,3 5,-3 z"
   id="path184"
   inkscape:connector-curvature="0"
   style="fill:#000000;stroke:none" />
         <path
   d="m 10364,13761 2,-8 3,-8 2,-10 -2,-7 2,-11 h -15 l -2,11 -3,7 3,10 -3,8 3,-8 -3,8 3,5 5,3 5,-3 2,-5 z"
   id="path186"
   inkscape:connector-curvature="0"
   style="fill:#000000;stroke:none" />
         <path
   d="m 10313,13603 v 3 l -10,45 2,59 18,51 h 41 l -10,-16 -21,5 -12,-40 -3,-59 10,-40 v 2 z"
   id="path188"
   inkscape:connector-curvature="0"
   style="fill:#000000;stroke:none" />
         <path
   d="m 10371,13608 v 0 l -5,-20 -17,-8 -18,3 -18,20 15,10 13,-15 8,-3 2,3 5,10 v 0 0 l 3,5 5,3 5,-3 z"
   id="path190"
   inkscape:connector-curvature="0"
   style="fill:#000000;stroke:none" />
         <path
   d="m 10379,13644 v 0 l -2,-11 -3,-10 v -7 l -3,-8 h -15 l 3,8 v 7 l 2,10 -2,11 v 0 0 l 2,7 8,3 8,-3 z"
   id="path192"
   inkscape:connector-curvature="0"
   style="fill:#000000;stroke:none" />
         <path
   d="m 10863,13720 2,-10 3,-8 v -10 l 2,-8 -15,-15 -23,-18 -25,-20 -28,-23 -28,-20 -23,-18 -21,-13 -10,-7 -2,12 v 16 l -3,15 -2,15 17,10 21,13 25,15 28,18 26,18 25,15 18,13 z"
   id="path194"
   inkscape:connector-curvature="0"
   style="fill:#4c0000;stroke:none" />
         <path
   d="m 10865,13689 -2,-5 -3,8 v 10 l -2,5 -3,13 h 15 l 3,-8 2,-10 v -10 l 3,-8 -3,-5 3,5 -3,-5 -5,-2 -5,2 -2,5 z"
   id="path196"
   inkscape:connector-curvature="0"
   style="fill:#000000;stroke:none" />
         <path
   d="m 10705,13550 -10,7 7,8 21,13 23,17 28,21 28,23 25,20 23,18 15,12 10,-10 -15,-18 -23,-17 -25,-21 -28,-23 -28,-20 -23,-18 -21,-12 -12,-8 -10,8 10,-8 h -8 l -2,5 v 5 l 5,5 z"
   id="path198"
   inkscape:connector-curvature="0"
   style="fill:#000000;stroke:none" />
         <path
   d="m 10692,13600 5,8 3,-15 2,-15 v -16 l 3,-12 h -15 l -3,12 v 16 l -3,15 -2,15 5,8 -5,-8 2,5 6,3 5,-3 2,-5 z"
   id="path200"
   inkscape:connector-curvature="0"
   style="fill:#000000;stroke:none" />
         <path
   d="m 10855,13720 13,-8 -13,-10 -18,-13 -25,-15 -26,-18 -28,-17 -25,-16 -21,-12 -20,-11 -5,16 15,10 21,13 25,15 28,18 26,17 25,16 18,12 13,11 12,-8 -12,8 h 7 l 5,-6 3,-5 -5,-5 z"
   id="path202"
   inkscape:connector-curvature="0"
   style="fill:#000000;stroke:none" />
         <path
   d="m 10662,13547 -28,3 -39,7 -45,8 -49,10 -46,10 -40,8 -33,10 -18,5 2,8 v 7 l 3,10 v 11 l 25,-5 36,-6 43,-7 44,-8 43,-7 41,-5 35,-6 23,-2 3,-15 v -13 -13 z"
   id="path204"
   inkscape:connector-curvature="0"
   style="fill:#4c0000;stroke:none" />
         <path
   d="m 10371,13608 -5,8 18,-5 31,-11 40,-7 46,-10 49,-11 45,-7 39,-8 28,-2 v -16 l -28,3 -39,8 -45,7 -49,10 -46,11 -40,7 -36,10 -18,5 -5,8 5,-8 -5,3 v 8 l 3,5 h 7 z"
   id="path206"
   inkscape:connector-curvature="0"
   style="fill:#000000;stroke:none" />
         <path
   d="m 10369,13636 10,8 -2,-11 -3,-10 v -7 l -3,-8 h -15 l 3,8 v 7 l 2,10 -2,11 10,7 -10,-7 2,7 8,3 8,-3 2,-7 z"
   id="path208"
   inkscape:connector-curvature="0"
   style="fill:#000000;stroke:none" />
         <path
   d="m 10651,13598 8,-8 -23,3 -35,5 -41,5 -43,8 -44,7 -43,8 -36,5 -25,5 v 15 l 25,-5 36,-5 43,-8 44,-7 43,-8 41,-5 35,-5 23,-2 8,-8 -8,10 8,-2 2,-8 -2,-8 -8,-2 z"
   id="path210"
   inkscape:connector-curvature="0"
   style="fill:#000000;stroke:none" />
         <path
   d="m 10662,13555 -8,-8 -3,10 v 13 l 3,13 -3,15 h 16 l 2,-15 3,-13 v -13 l -3,-10 -7,-8 7,8 -2,-5 -5,-3 -5,3 -3,5 z"
   id="path212"
   inkscape:connector-curvature="0"
   style="fill:#000000;stroke:none" />
         <path
   d="m 10664,13697 8,8 10,7 15,10 15,11 16,12 15,11 15,12 13,10 10,8 13,8 13,7 12,8 13,10 10,5 10,5 8,5 -5,-10 -3,-10 v -13 -12 l -17,-16 -21,-15 -25,-18 -26,-18 -28,-17 -23,-16 -20,-12 -13,-10 -5,15 -2,10 -5,8 h -5 z"
   id="path214"
   inkscape:connector-curvature="0"
   style="fill:#4c0000;stroke:none" />
         <path
   d="m 10776,13771 v 2 l -13,-12 -15,-13 -15,-10 -15,-13 -16,-10 -15,-10 -10,-8 -8,-5 -10,10 8,10 10,8 15,10 15,10 16,13 15,10 15,13 13,7 v 3 -3 h 5 l 5,-2 3,-3 -3,-5 z"
   id="path216"
   inkscape:connector-curvature="0"
   style="fill:#000000;stroke:none" />
         <path
   d="m 10852,13839 11,-12 -8,-5 -10,-5 -8,-6 -13,-10 -12,-7 -13,-8 -13,-8 -10,-7 -10,15 10,8 13,7 13,8 12,8 13,10 13,5 10,5 8,5 10,-13 -10,13 h 7 l 3,-5 v -8 l -5,-2 z"
   id="path218"
   inkscape:connector-curvature="0"
   style="fill:#000000;stroke:none" />
         <path
   d="m 10847,13794 -5,-5 v 12 l 3,13 2,13 5,12 16,-10 -5,-7 -3,-8 3,-13 v -12 l -5,-6 5,6 -3,-8 -8,-3 -7,3 -3,8 z"
   id="path220"
   inkscape:connector-curvature="0"
   style="fill:#000000;stroke:none" />
         <path
   d="m 10687,13667 -13,5 13,12 20,13 23,15 28,18 26,18 25,18 21,15 17,13 11,-11 -18,-17 -21,-16 -25,-17 -26,-18 -28,-18 -22,-15 -21,-13 -13,-8 -12,6 12,-6 -5,-2 -2,2 -3,6 v 5 z"
   id="path222"
   inkscape:connector-curvature="0"
   style="fill:#000000;stroke:none" />
         <path
   d="m 10657,13695 2,12 h 13 l 7,-12 3,-11 5,-17 h -15 l -5,12 -3,10 -2,3 h 2 l 3,13 -3,-13 h -7 l -3,5 v 5 l 5,5 z"
   id="path224"
   inkscape:connector-curvature="0"
   style="fill:#000000;stroke:none" />
         <path
   d="m 10669,13692 h -10 l -2,3 10,10 2,-3 h -10 10 l 3,-5 -3,-5 -5,-3 -5,3 z"
   id="path226"
   inkscape:connector-curvature="0"
   style="fill:#000000;stroke:none" />
         <path
   d="m 10359,13753 28,-8 38,-7 41,-10 43,-11 46,-7 40,-8 39,-5 h 30 l -2,3 -5,-5 -3,-11 v -12 -18 l -28,5 -36,5 -40,10 -44,10 -43,11 -41,7 -33,10 -25,5 -3,11 v 7 10 z"
   id="path228"
   inkscape:connector-curvature="0"
   style="fill:#4c0000;stroke:none" />
         <path
   d="m 10669,13702 -5,-13 h -30 l -39,6 -40,7 -46,8 -43,10 -41,10 -38,8 -28,7 v 16 l 28,-8 38,-8 41,-10 43,-10 46,-8 40,-7 39,-5 h 30 l -5,-13 5,15 8,-2 2,-8 -2,-8 -8,-2 z"
   id="path230"
   inkscape:connector-curvature="0"
   style="fill:#000000;stroke:none" />
         <path
   d="m 10659,13707 8,-2 2,-3 -10,-10 -2,3 7,-3 -7,3 v 5 l 2,2 3,3 h 5 z"
   id="path232"
   inkscape:connector-curvature="0"
   style="fill:#000000;stroke:none" />
         <path
   d="m 10654,13661 -8,-7 -2,18 2,12 3,13 10,10 5,-15 v 0 l -2,-8 2,-12 -2,-18 -8,-8 8,8 -3,-5 -5,-3 -5,3 -3,5 z"
   id="path234"
   inkscape:connector-curvature="0"
   style="fill:#000000;stroke:none" />
         <path
   d="m 10371,13717 -7,8 28,-5 30,-10 41,-8 43,-10 44,-10 40,-10 36,-5 28,-6 v -15 l -28,5 -36,5 -40,11 -44,10 -43,10 -41,8 -35,10 -23,5 -8,7 8,-7 -5,2 -3,5 3,5 5,3 z"
   id="path236"
   inkscape:connector-curvature="0"
   style="fill:#000000;stroke:none" />
         <path
   d="m 10359,13745 7,8 3,-8 2,-10 -2,-7 2,-11 h -15 l -2,11 -3,7 3,10 -3,8 8,8 -8,-8 3,5 5,3 5,-3 2,-5 z"
   id="path238"
   inkscape:connector-curvature="0"
   style="fill:#000000;stroke:none" />
         <path
   d="m 10280,14292 13,-13 12,-10 13,-10 15,-10 13,-5 10,-8 13,-5 13,-3 10,-5 13,-2 h 10 l 10,-3 v 28 l 5,31 5,30 8,31 15,51 18,48 23,48 23,46 25,46 23,40 25,39 21,33 33,-41 25,-46 23,-51 15,-51 13,-53 10,-48 5,-49 6,-43 2,-15 3,-15 v -16 l 2,-12 8,5 10,7 10,8 10,10 18,13 21,15 20,13 20,15 18,15 15,16 13,12 10,13 18,23 15,20 16,23 15,21 10,22 10,23 8,21 5,23 8,48 10,56 10,53 13,41 5,15 7,18 13,23 13,25 13,31 12,28 13,30 13,31 10,28 8,28 5,22 2,21 -2,2 -5,5 -3,3 -5,5 -18,20 -18,26 -18,28 -17,30 -16,28 -12,28 -16,28 -10,28 -10,26 -8,25 -2,25 -3,21 -7,-5 -8,-5 -8,-5 -7,-6 -21,-12 -20,-10 -20,-11 -21,-10 -20,-10 -15,-8 -13,-5 -8,-2 v 157 206 l 3,188 -3,110 -5,-5 -7,-3 -5,-5 -8,-2 -33,-18 -36,-13 -38,-13 -38,-5 -38,-2 -38,2 -39,8 -38,15 -15,-89 -15,-114 -11,-115 -5,-86 -10,102 -5,124 -2,117 -3,79 -28,-8 -33,-2 h -38 l -38,2 -39,3 -38,5 -35,2 -33,3 h -16 -12 l -11,-3 -10,-2 5,-170 5,-181 v -152 -97 l -20,-3 h -20 l -23,3 -26,2 -23,6 -25,7 -23,10 -20,11 -10,5 -8,7 -10,8 -8,8 -8,-49 -7,-61 -8,-68 -10,-69 -8,-46 -5,-46 -7,-38 -5,-30 -3,-8 v -8 l -3,-7 -2,-5 2,-18 8,-18 5,-15 10,-18 16,-25 15,-23 18,-21 18,-20 15,-20 18,-15 15,-13 15,-10 3,-64 15,-63 30,-69 36,-64 43,-63 49,-56 48,-46 z"
   id="path240"
   inkscape:connector-curvature="0"
   style="fill:#f2e0a5;stroke:none" />
         <path
   d="m 10328,14241 v 0 l -15,10 -13,10 -12,13 -16,13 16,10 10,-13 12,-7 13,-10 15,-11 v 0 0 l 5,-5 -2,-7 -5,-3 z"
   id="path242"
   inkscape:connector-curvature="0"
   style="fill:#000000;stroke:none" />
         <path
   d="m 10435,14218 -10,-7 -10,2 h -10 l -16,3 -10,5 -13,2 -12,5 -11,8 -15,5 10,15 11,-5 10,-7 12,-5 13,-3 10,-5 11,-3 h 10 l 10,-2 -10,-8 10,8 5,-3 3,-5 -3,-5 -5,-2 z"
   id="path244"
   inkscape:connector-curvature="0"
   style="fill:#000000;stroke:none" />
         <path
   d="m 10450,14338 v -3 l -7,-28 -5,-30 -5,-31 2,-28 h -20 l 2,28 5,31 5,30 8,33 v -2 2 l 5,5 h 5 l 5,-2 v -8 z"
   id="path246"
   inkscape:connector-curvature="0"
   style="fill:#000000;stroke:none" />
         <path
   d="m 10611,14683 h 12 l -20,-33 -25,-38 -23,-38 -26,-46 -23,-45 -23,-49 -17,-48 -16,-48 h -15 l 15,53 18,48 23,49 23,45 25,46 23,43 26,39 20,33 h 13 -13 l 5,5 8,-3 2,-5 v -8 z"
   id="path248"
   inkscape:connector-curvature="0"
   style="fill:#000000;stroke:none" />
         <path
   d="m 10738,14307 v 0 l -5,43 -5,49 -10,48 -13,51 -15,51 -23,51 -26,43 -30,40 10,11 36,-41 25,-48 23,-51 15,-51 13,-56 10,-48 5,-49 5,-43 v 0 0 l -2,-5 -5,-2 -6,2 z"
   id="path250"
   inkscape:connector-curvature="0"
   style="fill:#000000;stroke:none" />
         <path
   d="m 10758,14241 -12,8 -3,12 v 16 l -3,15 -2,15 h 15 l 3,-15 2,-15 v -16 l 3,-12 -13,7 13,-7 -3,-5 -5,-3 -5,3 -2,5 z"
   id="path252"
   inkscape:connector-curvature="0"
   style="fill:#000000;stroke:none" />
         <path
   d="m 10796,14272 v 0 l -10,-11 -10,-7 -10,-8 -8,-5 -10,15 8,5 10,8 10,8 10,10 v 0 0 h 8 l 5,-5 3,-5 z"
   id="path254"
   inkscape:connector-curvature="0"
   style="fill:#000000;stroke:none" />
         <path
   d="m 10934,14386 v 0 l -13,-13 -13,-12 -15,-16 -18,-17 -20,-16 -20,-12 -21,-16 -18,-12 -10,15 18,13 20,15 21,13 20,15 18,13 15,15 13,12 8,13 v 0 0 l 5,5 7,-2 3,-5 z"
   id="path256"
   inkscape:connector-curvature="0"
   style="fill:#000000;stroke:none" />
         <path
   d="m 11031,14567 v 0 l -5,-26 -8,-20 -10,-23 -10,-26 -16,-20 -15,-23 -15,-20 -18,-23 -15,10 17,23 16,20 15,23 15,21 10,20 11,23 7,20 5,21 v 0 z"
   id="path258"
   inkscape:connector-curvature="0"
   style="fill:#000000;stroke:none" />
         <path
   d="m 11071,14762 v 0 l -12,-38 -11,-53 -10,-56 -7,-48 h -16 l 8,48 10,56 10,53 13,43 v 0 z"
   id="path260"
   inkscape:connector-curvature="0"
   style="fill:#000000;stroke:none" />
         <path
   d="m 11160,14963 v 0 l -12,-30 -13,-31 -13,-28 -13,-30 -12,-26 -13,-23 -8,-17 -5,-16 -15,5 5,16 8,17 12,23 13,26 13,30 13,28 12,31 13,30 v 0 0 l 5,5 h 5 l 5,-2 z"
   id="path262"
   inkscape:connector-curvature="0"
   style="fill:#000000;stroke:none" />
         <path
   d="m 11183,15070 5,-5 -5,-21 -5,-22 -7,-31 -11,-28 -15,5 10,28 8,26 5,22 v 21 l 5,-5 -5,5 3,7 7,3 8,-3 2,-7 z"
   id="path264"
   inkscape:connector-curvature="0"
   style="fill:#000000;stroke:none" />
         <path
   d="m 11168,15085 v 0 l 5,-5 3,-2 5,-6 2,-2 -10,-10 -2,2 -6,5 -2,3 -5,5 v 0 0 5 l 2,3 3,2 z"
   id="path266"
   inkscape:connector-curvature="0"
   style="fill:#000000;stroke:none" />
         <path
   d="m 11099,15187 v 0 l 18,-28 18,-28 18,-25 15,-21 -10,-10 -21,20 -17,26 -18,28 -18,33 v 0 0 7 l 5,3 h 8 z"
   id="path268"
   inkscape:connector-curvature="0"
   style="fill:#000000;stroke:none" />
         <path
   d="m 11013,15400 13,-7 v -21 l 2,-25 8,-23 10,-25 10,-28 15,-28 13,-28 15,-28 -15,-5 -15,28 -13,28 -15,28 -10,28 -11,25 -7,28 -3,25 -5,21 13,-8 -13,8 3,7 7,3 8,-3 3,-7 z"
   id="path270"
   inkscape:connector-curvature="0"
   style="fill:#000000;stroke:none" />
         <path
   d="m 10980,15380 v 0 l 7,5 8,5 8,5 10,5 5,-15 -5,-5 -8,-5 -7,-5 -8,-5 v 0 0 h -8 l -5,2 -2,8 z"
   id="path272"
   inkscape:connector-curvature="0"
   style="fill:#000000;stroke:none" />
         <path
   d="m 10855,15304 -10,7 7,3 13,5 15,8 21,10 20,10 21,10 20,10 18,13 10,-15 -23,-13 -20,-10 -21,-10 -20,-10 -20,-11 -16,-7 -12,-5 -8,-3 -10,8 10,-8 h -8 l -2,5 v 5 l 5,5 z"
   id="path274"
   inkscape:connector-curvature="0"
   style="fill:#000000;stroke:none" />
         <path
   d="m 10842,15972 13,-7 5,-110 -2,-188 v -206 l -3,-157 h -15 l -3,157 v 206 l 3,188 v 110 l 12,-8 -12,8 2,5 5,2 5,-2 3,-5 z"
   id="path276"
   inkscape:connector-curvature="0"
   style="fill:#000000;stroke:none" />
         <path
   d="m 10819,15957 v 0 l 5,3 6,5 7,2 5,5 10,-15 -5,-5 -7,-2 -5,-6 -11,-2 v 0 0 h -7 l -3,5 v 5 z"
   id="path278"
   inkscape:connector-curvature="0"
   style="fill:#000000;stroke:none" />
         <path
   d="m 10517,15927 10,5 38,-15 36,-8 h 38 38 l 38,5 36,13 35,12 33,18 5,-15 -33,-18 -35,-13 -41,-12 -38,-5 -38,-5 -38,5 -41,7 -38,16 10,5 -10,-5 -5,2 v 8 l 2,5 h 8 z"
   id="path280"
   inkscape:connector-curvature="0"
   style="fill:#000000;stroke:none" />
         <path
   d="m 10486,15520 h -15 l 5,86 10,115 15,114 16,92 15,-5 -15,-87 -16,-114 -10,-115 -5,-86 h -15 18 l -3,-8 -8,-2 -7,2 -3,8 z"
   id="path282"
   inkscape:connector-curvature="0"
   style="fill:#000000;stroke:none" />
         <path
   d="m 10455,15950 11,-8 5,-79 v -117 l 5,-124 10,-102 h -15 l -10,102 -6,124 -5,117 v 79 l 11,-8 -13,8 2,8 8,2 8,-2 2,-8 z"
   id="path284"
   inkscape:connector-curvature="0"
   style="fill:#000000;stroke:none" />
         <path
   d="m 10176,15957 v -2 l 33,-3 35,-2 38,-6 39,-2 h 38 38 33 l 25,8 6,-16 -31,-7 -33,-5 h -38 l -38,5 -39,2 -38,5 -35,3 -33,2 v -2 0 l -8,2 -3,8 3,8 z"
   id="path286"
   inkscape:connector-curvature="0"
   style="fill:#000000;stroke:none" />
         <path
   d="m 10120,15942 5,8 12,2 11,3 12,2 h 16 v -20 h -16 l -12,2 -11,-2 -7,-3 5,8 -5,-8 h -8 l -2,5 v 5 l 5,6 z"
   id="path288"
   inkscape:connector-curvature="0"
   style="fill:#000000;stroke:none" />
         <path
   d="m 10137,15350 -7,-8 -3,97 v 152 l -2,181 -5,170 h 15 l 5,-170 8,-181 v -152 l -3,-97 -8,-8 11,8 -3,-8 -8,-2 -7,2 -3,8 z"
   id="path290"
   inkscape:connector-curvature="0"
   style="fill:#000000;stroke:none" />
         <path
   d="m 9962,15385 v 0 l 18,-10 22,-10 26,-8 20,-5 26,-2 h 23 l 20,-3 20,3 v -16 l -20,-2 -20,-3 -23,5 -26,3 -25,5 -26,8 -23,10 -22,10 v 0 0 l -5,5 2,5 5,5 z"
   id="path292"
   inkscape:connector-curvature="0"
   style="fill:#000000;stroke:none" />
         <path
   d="m 9913,15406 16,5 5,-5 10,-8 8,-8 10,-5 -10,-15 -11,5 -7,8 -10,7 -11,10 16,6 -16,-6 v 8 l 6,5 5,3 5,-5 z"
   id="path294"
   inkscape:connector-curvature="0"
   style="fill:#000000;stroke:none" />
         <path
   d="m 9880,15159 v 0 l 11,69 7,68 8,61 7,49 h 16 l -8,-49 -8,-61 -7,-68 -10,-69 v 0 0 l -3,-5 -5,-3 -5,3 z"
   id="path296"
   inkscape:connector-curvature="0"
   style="fill:#000000;stroke:none" />
         <path
   d="m 9855,14999 v 0 l 5,30 8,38 5,46 7,46 h 16 l -8,-46 -5,-46 -8,-38 -5,-30 v 0 0 l -2,-5 -5,-3 -6,3 z"
   id="path298"
   inkscape:connector-curvature="0"
   style="fill:#000000;stroke:none" />
         <path
   d="m 9847,14971 v 2 l 3,5 2,5 v 8 l 3,8 h 15 l -2,-8 v -8 l -3,-10 -2,-5 v 3 -3 l -3,-5 h -8 l -5,3 v 7 z"
   id="path300"
   inkscape:connector-curvature="0"
   style="fill:#000000;stroke:none" />
         <path
   d="m 9873,14900 v 0 l -10,17 -6,16 -7,17 -3,21 h 16 l 2,-15 8,-18 5,-16 10,-17 v 0 0 -8 l -5,-3 h -5 z"
   id="path302"
   inkscape:connector-curvature="0"
   style="fill:#000000;stroke:none" />
         <path
   d="m 10002,14755 3,-8 -15,10 -16,13 -17,18 -18,20 -18,20 -18,21 -15,23 -15,28 15,5 15,-23 16,-23 17,-20 18,-21 13,-20 18,-13 15,-13 15,-10 3,-7 -3,7 5,-5 -2,-7 -5,-3 h -8 z"
   id="path304"
   inkscape:connector-curvature="0"
   style="fill:#000000;stroke:none" />
         <path
   d="m 10272,14287 3,-3 -46,41 -48,46 -51,56 -44,63 -35,66 -31,69 -15,66 -3,64 h 16 l 2,-64 16,-61 30,-69 36,-61 43,-63 46,-56 48,-46 46,-35 3,-3 -3,3 5,-6 -2,-7 -6,-3 h -7 z"
   id="path306"
   inkscape:connector-curvature="0"
   style="fill:#000000;stroke:none" />
         <path
   d="m 10822,15950 -33,-18 -36,-13 -38,-13 -38,-5 -38,-2 -38,2 -39,8 -38,15 -15,-89 -15,-114 -11,-115 -5,-86 -10,102 -5,124 -2,117 -3,79 -28,-8 -33,-2 h -38 l -38,2 -39,3 -38,5 -35,2 -33,3 -6,66 23,-8 23,-5 28,3 28,2 26,11 25,12 23,16 18,17 18,-5 17,-7 18,-5 18,-5 18,-6 18,-2 18,-5 20,-3 18,-2 18,-3 17,-2 h 18 31 30 31 l 30,5 31,5 30,5 28,8 28,10 z"
   id="path308"
   inkscape:connector-curvature="0"
   style="fill:#ffffff;stroke:none" />
         <path
   d="m 10517,15927 10,5 38,-15 36,-8 h 38 38 l 38,5 36,13 35,12 33,18 5,-15 -33,-18 -35,-13 -41,-12 -38,-5 -38,-5 -38,5 -41,7 -38,16 10,5 -10,-5 -5,2 v 8 l 2,5 h 8 z"
   id="path310"
   inkscape:connector-curvature="0"
   style="fill:#000000;stroke:none" />
         <path
   d="m 10486,15520 h -15 l 5,86 10,115 15,114 16,92 15,-5 -15,-87 -16,-114 -10,-115 -5,-86 h -15 18 l -3,-8 -8,-2 -7,2 -3,8 z"
   id="path312"
   inkscape:connector-curvature="0"
   style="fill:#000000;stroke:none" />
         <path
   d="m 10455,15950 11,-8 5,-79 v -117 l 5,-124 10,-102 h -15 l -10,102 -6,124 -5,117 v 79 l 11,-8 -13,8 2,8 8,2 8,-2 2,-8 z"
   id="path314"
   inkscape:connector-curvature="0"
   style="fill:#000000;stroke:none" />
         <path
   d="m 10183,15947 -7,8 33,-3 35,-2 38,-6 39,-2 h 38 38 33 l 25,8 6,-16 -31,-7 -33,-5 h -38 l -38,5 -39,2 -38,5 -35,3 -33,2 -8,8 8,-10 -8,2 -3,8 3,8 8,2 z"
   id="path316"
   inkscape:connector-curvature="0"
   style="fill:#000000;stroke:none" />
         <path
   d="m 10168,16005 10,8 5,-66 h -15 l -5,66 10,8 -10,-8 2,5 5,3 6,-3 2,-5 z"
   id="path318"
   inkscape:connector-curvature="0"
   style="fill:#000000;stroke:none" />
         <path
   d="m 10361,16054 10,2 -20,-20 -23,-15 -28,-13 -28,-10 -28,-3 -28,-5 -25,8 -23,7 5,16 23,-8 20,-2 h 28 l 28,2 23,10 23,13 23,15 15,16 10,2 -10,-2 5,5 8,-3 2,-5 v -8 z"
   id="path320"
   inkscape:connector-curvature="0"
   style="fill:#000000;stroke:none" />
         <path
   d="m 10433,16031 v 0 l -18,5 -18,5 -18,8 -18,5 5,15 18,-5 18,-8 18,-5 18,-5 v 0 0 l 5,-5 v -5 l -3,-5 z"
   id="path322"
   inkscape:connector-curvature="0"
   style="fill:#000000;stroke:none" />
         <path
   d="m 10580,16008 v 0 h -18 l -17,3 -18,2 -18,3 -20,2 -18,5 -18,3 -20,5 5,15 15,-5 18,-2 18,-6 20,-2 18,-3 18,-2 17,-3 h 18 v 0 3 l 8,-3 2,-7 -2,-8 -8,-3 z"
   id="path324"
   inkscape:connector-curvature="0"
   style="fill:#000000;stroke:none" />
         <path
   d="m 10812,16049 10,-8 -28,-10 -31,-8 -30,-5 -31,-5 -30,-5 -31,-3 h -30 l -31,3 v 15 l 31,3 h 30 l 31,-3 30,5 31,5 30,6 26,7 28,10 10,-7 -10,7 h 7 l 3,-5 v -7 l -5,-3 z"
   id="path326"
   inkscape:connector-curvature="0"
   style="fill:#000000;stroke:none" />
         <path
   d="m 10819,15957 -5,-7 -2,99 h 15 l 3,-99 -6,-8 8,8 -2,-8 -8,-3 -8,3 -2,8 z"
   id="path328"
   inkscape:connector-curvature="0"
   style="fill:#000000;stroke:none" />
         <path
   d="m 10425,14218 v 28 l 5,31 5,30 8,31 15,51 18,48 23,48 23,46 25,46 23,40 25,39 21,33 33,-41 25,-46 23,-51 15,-51 13,-53 10,-48 5,-49 6,-43 2,-15 3,-15 v -16 l 2,-12 v -13 l -2,-13 -3,-15 -2,-23 -11,10 -12,11 -21,12 -23,15 -22,16 -26,15 -23,15 -20,15 -8,-5 -15,-7 -15,-10 -18,-13 -21,-10 -20,-13 -18,-10 -15,-10 h -8 -7 -8 z"
   id="path330"
   inkscape:connector-curvature="0"
   style="fill:#ffffff;stroke:none" />
         <path
   d="m 10450,14338 v -3 l -7,-28 -5,-30 -5,-31 2,-28 h -20 l 2,28 5,31 5,30 8,33 v -2 2 l 5,5 h 5 l 5,-2 v -8 z"
   id="path332"
   inkscape:connector-curvature="0"
   style="fill:#000000;stroke:none" />
         <path
   d="m 10611,14683 h 12 l -20,-33 -25,-38 -23,-38 -26,-46 -23,-45 -23,-49 -17,-48 -16,-48 h -15 l 15,53 18,48 23,49 23,45 25,46 23,43 26,39 20,33 h 13 -13 l 5,5 8,-3 2,-5 v -8 z"
   id="path334"
   inkscape:connector-curvature="0"
   style="fill:#000000;stroke:none" />
         <path
   d="m 10738,14307 v 0 l -5,43 -5,49 -10,48 -13,51 -15,51 -23,51 -26,43 -30,40 10,11 36,-41 25,-48 23,-51 15,-51 13,-56 10,-48 5,-49 5,-43 v 0 0 l -2,-5 -5,-2 -6,2 z"
   id="path336"
   inkscape:connector-curvature="0"
   style="fill:#000000;stroke:none" />
         <path
   d="m 10743,14249 h 3 l -3,12 v 16 l -3,15 -2,15 h 15 l 3,-15 2,-15 v -16 l 3,-12 h 2 -2 l -3,-5 -5,-3 -5,3 -2,5 z"
   id="path338"
   inkscape:connector-curvature="0"
   style="fill:#000000;stroke:none" />
         <path
   d="m 10753,14190 -15,-5 2,23 3,15 3,13 -3,13 h 20 l -2,-13 -3,-13 -2,-15 -3,-23 -15,-5 15,5 -2,-5 -5,-2 -6,2 -2,5 z"
   id="path340"
   inkscape:connector-curvature="0"
   style="fill:#000000;stroke:none" />
         <path
   d="m 10583,14302 h 10 l 20,-15 23,-15 26,-16 22,-15 23,-15 21,-13 12,-13 13,-10 -15,-10 -8,10 -12,8 -21,13 -23,15 -23,15 -25,15 -23,16 -20,15 h 10 -10 l -5,5 2,5 5,5 h 8 z"
   id="path342"
   inkscape:connector-curvature="0"
   style="fill:#000000;stroke:none" />
         <path
   d="m 10458,14226 -5,-3 15,10 18,11 23,12 18,11 18,12 15,10 18,8 5,5 10,-15 -10,-5 -13,-8 -15,-10 -18,-13 -23,-10 -18,-13 -18,-10 -15,-10 -5,-2 5,2 h -8 l -5,3 -2,7 5,5 z"
   id="path344"
   inkscape:connector-curvature="0"
   style="fill:#000000;stroke:none" />
         <path
   d="m 10435,14218 -10,8 10,-3 8,3 h 7 8 v -20 h -8 -7 l -8,2 -10,3 -10,7 10,-7 -5,2 -3,5 3,5 5,3 z"
   id="path346"
   inkscape:connector-curvature="0"
   style="fill:#000000;stroke:none" />
         <path
   d="m 11153,14966 10,28 8,28 5,22 2,21 -2,2 -5,5 -3,3 -5,5 -18,20 -18,26 -18,28 -17,30 -16,28 -12,28 -16,28 -10,28 -10,26 -8,25 -2,25 -3,21 -7,-5 -8,-5 -8,-5 -7,-6 10,-48 15,-53 21,-59 25,-58 25,-59 26,-53 23,-43 z"
   id="path348"
   inkscape:connector-curvature="0"
   style="fill:#4c0000;stroke:none" />
         <path
   d="m 11183,15070 5,-5 -5,-21 -5,-22 -7,-31 -11,-28 -15,5 10,28 8,26 5,22 v 21 l 5,-5 -5,5 3,7 7,3 8,-3 2,-7 z"
   id="path350"
   inkscape:connector-curvature="0"
   style="fill:#000000;stroke:none" />
         <path
   d="m 11168,15085 v 0 l 5,-5 3,-2 5,-6 2,-2 -10,-10 -2,2 -6,5 -2,3 -5,5 v 0 0 5 l 2,3 3,2 z"
   id="path352"
   inkscape:connector-curvature="0"
   style="fill:#000000;stroke:none" />
         <path
   d="m 11099,15187 v 0 l 18,-28 18,-28 18,-25 15,-21 -10,-10 -21,20 -17,26 -18,28 -18,33 v 0 0 7 l 5,3 h 8 z"
   id="path354"
   inkscape:connector-curvature="0"
   style="fill:#000000;stroke:none" />
         <path
   d="m 11013,15400 13,-7 v -21 l 2,-25 8,-23 10,-25 10,-28 15,-28 13,-28 15,-28 -15,-5 -15,28 -13,28 -15,28 -10,28 -11,25 -7,28 -3,25 -5,21 13,-8 -13,8 3,7 7,3 8,-3 3,-7 z"
   id="path356"
   inkscape:connector-curvature="0"
   style="fill:#000000;stroke:none" />
         <path
   d="m 10977,15372 3,8 7,5 8,5 8,5 10,5 5,-15 -5,-5 -8,-5 -7,-5 -8,-5 2,7 -2,-7 h -8 l -5,2 -2,8 5,5 z"
   id="path358"
   inkscape:connector-curvature="0"
   style="fill:#000000;stroke:none" />
         <path
   d="m 11160,14963 -15,-2 -23,33 -23,45 -25,54 -26,58 -25,59 -20,58 -16,56 -10,48 h 15 l 11,-48 15,-51 20,-58 26,-59 25,-58 26,-54 22,-40 23,-33 -15,-3 15,3 v -8 l -2,-5 -8,-2 -5,5 z"
   id="path360"
   inkscape:connector-curvature="0"
   style="fill:#000000;stroke:none" />
         <path
   d="m 9957,15378 -10,5 -8,7 -10,8 -8,8 -8,-49 -7,-61 -8,-68 -10,-69 -8,-46 -5,-46 -7,-38 -5,-30 -3,-8 v -8 l -3,-7 -2,-5 2,-18 8,-18 5,-15 10,-18 16,41 12,51 16,56 12,63 11,64 7,68 3,66 z"
   id="path362"
   inkscape:connector-curvature="0"
   style="fill:#4c0000;stroke:none" />
         <path
   d="m 9913,15406 16,5 5,-5 10,-8 8,-8 10,-5 -10,-15 -11,5 -7,8 -10,7 -11,10 16,6 -16,-6 v 8 l 6,5 5,3 5,-5 z"
   id="path364"
   inkscape:connector-curvature="0"
   style="fill:#000000;stroke:none" />
         <path
   d="m 9880,15159 v 0 l 11,69 7,68 8,61 7,49 h 16 l -8,-49 -8,-61 -7,-68 -10,-69 v 0 0 l -3,-5 -5,-3 -5,3 z"
   id="path366"
   inkscape:connector-curvature="0"
   style="fill:#000000;stroke:none" />
         <path
   d="m 9855,14999 v 0 l 5,30 8,38 5,46 7,46 h 16 l -8,-46 -5,-46 -8,-38 -5,-30 v 0 0 l -2,-5 -5,-3 -6,3 z"
   id="path368"
   inkscape:connector-curvature="0"
   style="fill:#000000;stroke:none" />
         <path
   d="m 9847,14971 v 2 l 3,5 2,5 v 8 l 3,8 h 15 l -2,-8 v -8 l -3,-10 -2,-5 v 3 -3 l -3,-5 h -8 l -5,3 v 7 z"
   id="path370"
   inkscape:connector-curvature="0"
   style="fill:#000000;stroke:none" />
         <path
   d="m 9888,14900 h -15 l -10,17 -6,16 -7,17 -3,21 h 16 l 2,-15 8,-18 5,-16 10,-17 h -15 15 v -8 l -5,-3 h -5 l -5,6 z"
   id="path372"
   inkscape:connector-curvature="0"
   style="fill:#000000;stroke:none" />
         <path
   d="m 9962,15385 2,-7 3,-67 -5,-66 -8,-68 -10,-64 -13,-63 -15,-59 -13,-51 -15,-40 -15,5 15,40 13,51 15,54 13,63 10,64 8,68 v 66 l 2,67 3,-8 -3,8 3,5 5,2 5,-2 2,-5 z"
   id="path374"
   inkscape:connector-curvature="0"
   style="fill:#000000;stroke:none" />
         <path
   d="m 10791,14279 -10,-10 -10,-8 -10,-7 -8,-5 -2,12 v 16 l -3,15 -2,15 -6,43 -5,49 -10,48 -13,53 -15,51 -23,51 -25,46 -33,41 -21,-33 -25,-39 -23,-40 -25,-46 -23,-46 -23,-48 -18,-48 -15,-51 -8,-31 -5,-30 -5,-31 v -28 l -10,3 h -10 l -13,2 -10,5 -13,3 -13,5 -10,8 -13,5 28,109 44,114 50,120 56,114 49,107 38,99 18,84 -5,64 33,-82 15,-71 -2,-66 -21,-76 38,-56 36,-53 28,-51 23,-54 15,-58 10,-64 5,-68 z"
   id="path376"
   inkscape:connector-curvature="0"
   style="fill:#4c0000;stroke:none" />
         <path
   d="m 10761,14249 -13,7 8,5 10,8 10,8 10,10 10,-15 -10,-11 -10,-7 -10,-8 -8,-5 -12,8 12,-8 h -7 l -5,3 -3,7 5,5 z"
   id="path378"
   inkscape:connector-curvature="0"
   style="fill:#000000;stroke:none" />
         <path
   d="m 10753,14307 v 0 l 3,-15 2,-15 v -16 l 3,-12 h -15 l -3,12 v 16 l -3,15 -2,15 v 0 0 l 2,5 6,3 5,-3 z"
   id="path380"
   inkscape:connector-curvature="0"
   style="fill:#000000;stroke:none" />
         <path
   d="m 10608,14694 h 13 l 36,-41 25,-48 23,-51 15,-51 13,-56 10,-48 5,-49 5,-43 h -15 l -5,43 -5,49 -10,48 -13,51 -15,51 -23,51 -26,43 -30,40 h 12 -12 v 6 l 2,2 3,3 h 5 z"
   id="path382"
   inkscape:connector-curvature="0"
   style="fill:#000000;stroke:none" />
         <path
   d="m 10435,14340 v -2 l 15,53 18,48 23,49 23,45 25,46 23,43 26,39 20,33 15,-11 -20,-33 -25,-38 -23,-38 -26,-46 -23,-45 -23,-49 -17,-48 -16,-48 v -3 3 l -2,-5 -5,-3 -5,3 -3,5 z"
   id="path384"
   inkscape:connector-curvature="0"
   style="fill:#000000;stroke:none" />
         <path
   d="m 10425,14226 -10,-8 2,28 5,31 5,30 8,33 15,-5 -7,-28 -5,-30 -5,-31 2,-28 -10,-7 10,7 -2,-7 -8,-3 -8,3 -2,7 z"
   id="path386"
   inkscape:connector-curvature="0"
   style="fill:#000000;stroke:none" />
         <path
   d="m 10341,14249 -3,7 11,-5 10,-7 12,-5 13,-3 10,-5 11,-3 h 10 l 10,-2 v -15 l -10,2 h -10 l -16,3 -10,5 -13,2 -12,5 -11,8 -15,5 -2,8 2,-8 -5,5 3,5 5,5 h 7 z"
   id="path388"
   inkscape:connector-curvature="0"
   style="fill:#000000;stroke:none" />
         <path
   d="m 10603,15057 15,5 5,-66 -17,-86 -39,-99 -48,-107 -56,-115 -51,-119 -43,-114 -28,-107 h -15 l 28,112 43,114 51,119 56,115 48,107 38,99 18,81 -5,61 15,5 -15,-5 v 8 l 5,2 h 8 l 2,-5 z"
   id="path390"
   inkscape:connector-curvature="0"
   style="fill:#000000;stroke:none" />
         <path
   d="m 10629,14760 v 7 l 20,74 2,66 -15,69 -33,81 15,5 33,-81 16,-74 -3,-66 -20,-79 v 8 -8 l -3,-5 h -7 l -5,3 v 7 z"
   id="path392"
   inkscape:connector-curvature="0"
   style="fill:#000000;stroke:none" />
         <path
   d="m 10786,14287 -2,-8 v 82 l -5,68 -11,64 -15,56 -23,53 -28,48 -35,54 -38,56 15,10 38,-56 36,-53 28,-54 22,-53 16,-61 10,-64 5,-68 v -82 l -3,-7 3,7 -3,-5 -5,-2 -5,2 -2,5 z"
   id="path394"
   inkscape:connector-curvature="0"
   style="fill:#000000;stroke:none" />
         <path
   d="m 10445,14330 h -7 l -3,5 v 5 l 5,5 z"
   id="path396"
   inkscape:connector-curvature="0"
   style="fill:#000000;stroke:none" />
         <path
   d="m 10532,14381 10,-5 -3,-3 -10,-2 -12,-8 -16,-7 -15,-8 -18,-8 -13,-5 -10,-5 -5,15 10,5 13,6 18,7 15,8 15,7 13,8 10,3 3,2 10,-5 -10,5 h 8 l 2,-5 v -8 l -5,-2 z"
   id="path398"
   inkscape:connector-curvature="0"
   style="fill:#000000;stroke:none" />
         <path
   d="m 10578,14289 -8,-2 -38,94 15,5 38,-94 z"
   id="path400"
   inkscape:connector-curvature="0"
   style="fill:#000000;stroke:none" />
         <path
   d="m 10585,14292 v -8 l -5,-2 h -5 l -5,5 z"
   id="path402"
   inkscape:connector-curvature="0"
   style="fill:#000000;stroke:none" />
         <path
   d="m 10608,14287 -2,-5 h -8 l -5,2 v 8 z"
   id="path404"
   inkscape:connector-curvature="0"
   style="fill:#000000;stroke:none" />
         <path
   d="m 10626,14366 13,5 -31,-84 -15,5 30,84 13,5 -13,-5 6,5 h 5 l 5,-3 v -7 z"
   id="path406"
   inkscape:connector-curvature="0"
   style="fill:#000000;stroke:none" />
         <path
   d="m 10740,14307 -5,3 -7,5 -16,5 -17,10 -21,10 -17,8 -18,10 -13,8 10,15 13,-8 13,-10 17,-7 21,-11 18,-10 15,-5 13,-5 v -3 z"
   id="path408"
   inkscape:connector-curvature="0"
   style="fill:#000000;stroke:none" />
         <path
   d="m 10746,14322 5,-5 v -5 l -3,-5 h -8 z"
   id="path410"
   inkscape:connector-curvature="0"
   style="fill:#000000;stroke:none" />
         <path
   d="m 10181,14569 -3,-5 h -8 l -5,3 v 7 z"
   id="path412"
   inkscape:connector-curvature="0"
   style="fill:#000000;stroke:none" />
         <path
   d="m 10155,14849 v 0 l 18,-71 15,-77 3,-73 -10,-59 -16,5 11,54 -3,73 -15,77 -18,66 v 0 z"
   id="path414"
   inkscape:connector-curvature="0"
   style="fill:#000000;stroke:none" />
         <path
   d="m 10148,15342 -3,-107 -3,-145 v -145 l 13,-96 -15,-5 -13,101 -5,145 3,145 2,107 z"
   id="path416"
   inkscape:connector-curvature="0"
   style="fill:#000000;stroke:none" />
         <path
   d="m 10127,15342 3,8 7,2 8,-2 3,-8 z"
   id="path418"
   inkscape:connector-curvature="0"
   style="fill:#000000;stroke:none" />
         <path
   d="m 10860,14607 -2,-5 -6,-2 -5,2 -2,5 z"
   id="path420"
   inkscape:connector-curvature="0"
   style="fill:#000000;stroke:none" />
         <path
   d="m 10855,15304 5,-145 -2,-203 v -201 l 2,-148 h -15 l -8,148 v 201 l 3,203 v 145 z"
   id="path422"
   inkscape:connector-curvature="0"
   style="fill:#000000;stroke:none" />
         <path
   d="m 10840,15304 2,5 5,2 5,-2 3,-5 z"
   id="path424"
   inkscape:connector-curvature="0"
   style="fill:#000000;stroke:none" />
         <path
   d="m 10623,14686 -2,-5 h -8 l -5,2 v 8 z"
   id="path426"
   inkscape:connector-curvature="0"
   style="fill:#000000;stroke:none" />
         <path
   d="m 10644,14762 -5,-18 -5,-22 -5,-18 -6,-18 -15,5 5,18 5,18 5,17 6,23 z"
   id="path428"
   inkscape:connector-curvature="0"
   style="fill:#000000;stroke:none" />
         <path
   d="m 10629,14767 5,5 h 5 l 5,-2 v -8 z"
   id="path430"
   inkscape:connector-curvature="0"
   style="fill:#000000;stroke:none" />
         <path
   d="m 10359,13753 -10,33 -11,36 -5,35 -5,38 3,41 10,38 15,38 26,36 25,30 20,28 13,23 10,21 5,17 3,18 v 15 16 l 15,10 18,10 20,13 21,10 18,13 15,10 15,7 8,5 20,-15 23,-15 26,-15 22,-16 23,-15 21,-12 12,-11 11,-10 -6,-35 -7,-44 -5,-48 -3,-53 v -59 l 8,-56 13,-58 25,-54 -13,-10 -15,-12 -15,-11 -16,-12 -15,-11 -15,-10 -10,-7 -8,-8 h -30 l -39,5 -40,8 -46,7 -43,11 -41,10 -38,7 z"
   id="path432"
   inkscape:connector-curvature="0"
   style="fill:#b7664c;stroke:none" />
         <path
   d="m 10389,14043 h -2 l -23,-33 -15,-38 -11,-36 v -41 l 3,-38 5,-35 10,-33 10,-33 -15,-6 -10,33 -10,39 -5,35 -8,38 5,41 10,41 16,38 28,38 h -3 z"
   id="path434"
   inkscape:connector-curvature="0"
   style="fill:#000000;stroke:none" />
         <path
   d="m 10463,14208 3,8 2,-16 -2,-15 -3,-18 -5,-20 -10,-20 -13,-26 -20,-28 -26,-30 -15,10 25,30 21,28 13,21 10,20 5,15 2,18 -2,15 2,16 3,7 -5,-7 2,7 8,3 8,-3 2,-7 z"
   id="path436"
   inkscape:connector-curvature="0"
   style="fill:#000000;stroke:none" />
         <path
   d="m 10583,14287 h 10 l -10,-5 -13,-8 -15,-10 -18,-13 -23,-10 -18,-13 -18,-10 -15,-10 -10,15 15,10 18,11 23,12 18,11 18,12 15,10 18,8 5,5 h 10 -10 7 l 5,-5 3,-5 -5,-5 z"
   id="path438"
   inkscape:connector-curvature="0"
   style="fill:#000000;stroke:none" />
         <path
   d="m 10738,14185 v -5 l -8,10 -12,8 -21,13 -23,15 -23,15 -25,15 -23,16 -20,15 10,15 20,-15 23,-15 26,-16 22,-15 23,-15 21,-13 12,-13 13,-10 v -5 5 -7 l -2,-5 -8,-3 -5,5 z"
   id="path440"
   inkscape:connector-curvature="0"
   style="fill:#000000;stroke:none" />
         <path
   d="m 10766,13783 -3,-7 -25,53 -13,61 -7,56 -3,59 5,53 5,48 8,44 5,35 h 15 l -5,-35 -8,-44 -5,-48 v -53 l -2,-59 7,-56 13,-56 26,-53 -3,-8 3,8 v -8 l -5,-2 h -6 l -5,5 z"
   id="path442"
   inkscape:connector-curvature="0"
   style="fill:#000000;stroke:none" />
         <path
   d="m 10664,13705 -5,-3 8,10 10,8 15,10 15,10 16,13 15,10 15,13 13,7 10,-10 -13,-12 -15,-13 -15,-10 -15,-13 -16,-10 -15,-10 -10,-8 -8,-5 -5,-3 5,3 -5,-3 -2,3 -3,5 v 5 z"
   id="path444"
   inkscape:connector-curvature="0"
   style="fill:#000000;stroke:none" />
         <path
   d="m 10366,13756 -7,5 28,-8 38,-8 41,-10 43,-10 46,-8 40,-7 39,-5 h 30 v -16 h -30 l -39,6 -40,7 -46,8 -43,10 -41,10 -38,8 -28,7 -8,5 8,-5 -5,3 -3,5 3,5 5,3 z"
   id="path446"
   inkscape:connector-curvature="0"
   style="fill:#000000;stroke:none" />
         <path
   d="m 11092,15184 17,-30 18,-28 18,-26 18,-20 20,53 18,51 8,46 -5,33 -8,18 -8,20 -10,18 -7,5 -3,-13 -5,-17 -10,-16 -10,-20 -13,-18 -13,-20 -13,-18 z"
   id="path448"
   inkscape:connector-curvature="0"
   style="fill:#b7664c;stroke:none" />
         <path
   d="m 11171,15078 -13,-3 -21,20 -17,26 -18,28 -18,33 15,5 18,-28 18,-28 18,-25 15,-21 -13,-2 13,2 3,-5 -3,-5 -5,-3 -5,3 z"
   id="path450"
   inkscape:connector-curvature="0"
   style="fill:#000000;stroke:none" />
         <path
   d="m 11211,15266 v 2 l 8,-38 -10,-48 -18,-51 -20,-53 -16,5 21,53 17,51 6,43 -3,28 v 3 z"
   id="path452"
   inkscape:connector-curvature="0"
   style="fill:#000000;stroke:none" />
         <path
   d="m 11163,15324 8,8 15,-8 10,-20 8,-21 7,-17 -15,-5 -8,17 -7,21 -10,15 v 3 l 7,7 -7,-7 -6,2 -2,5 2,5 6,3 z"
   id="path454"
   inkscape:connector-curvature="0"
   style="fill:#000000;stroke:none" />
         <path
   d="m 11084,15182 v 7 l 13,18 12,18 13,20 13,18 10,18 10,15 5,15 3,13 h 15 l -2,-13 -5,-20 -11,-15 -10,-23 -13,-18 -12,-20 -13,-18 -13,-18 v 8 -8 l -5,-5 -5,3 -5,5 v 7 z"
   id="path456"
   inkscape:connector-curvature="0"
   style="fill:#000000;stroke:none" />
         <path
   d="m 9863,14999 5,30 7,38 5,46 8,46 -23,33 -20,33 -16,31 -7,27 -10,-12 -13,-31 -13,-38 -7,-30 2,-16 5,-20 10,-20 11,-21 15,-23 13,-25 15,-23 z"
   id="path458"
   inkscape:connector-curvature="0"
   style="fill:#b7664c;stroke:none" />
         <path
   d="m 9870,14999 -2,-5 -5,-3 -6,3 -2,5 z"
   id="path460"
   inkscape:connector-curvature="0"
   style="fill:#000000;stroke:none" />
         <path
   d="m 9896,15164 v -5 l -8,-46 -5,-46 -8,-38 -5,-30 h -15 l 5,30 8,38 5,46 7,46 v -5 5 l 3,5 5,3 5,-3 3,-5 z"
   id="path462"
   inkscape:connector-curvature="0"
   style="fill:#000000;stroke:none" />
         <path
   d="m 9822,15291 7,-8 8,-25 15,-30 21,-31 23,-33 -16,-10 -23,33 -20,35 -15,31 -8,30 8,-7 -8,7 3,6 5,2 5,-2 2,-6 z"
   id="path464"
   inkscape:connector-curvature="0"
   style="fill:#000000;stroke:none" />
         <path
   d="m 9771,15172 v 0 l 8,33 12,38 13,30 18,18 v -15 l -3,-8 -12,-30 -13,-38 -8,-28 v 0 z"
   id="path466"
   inkscape:connector-curvature="0"
   style="fill:#000000;stroke:none" />
         <path
   d="m 9855,14996 -13,23 -15,23 -13,25 -15,23 -10,23 -10,20 -6,23 -2,16 h 15 l 3,-16 5,-17 10,-21 10,-18 15,-22 13,-26 15,-23 13,-28 z"
   id="path468"
   inkscape:connector-curvature="0"
   style="fill:#000000;stroke:none" />
         <path
   d="m 9870,15001 v -7 l -5,-3 h -5 l -5,5 z"
   id="path470"
   inkscape:connector-curvature="0"
   style="fill:#000000;stroke:none" />
         <path
   d="m 10425,13829 2,-20 8,-15 13,-11 13,-2 12,5 8,10 5,15 3,16 h -8 l -18,2 h -23 z"
   id="path472"
   inkscape:connector-curvature="0"
   style="fill:#000000;stroke:none" />
         <path
   d="m 10461,13773 v 0 l -16,3 -18,13 -7,17 -3,23 h 16 l 2,-18 8,-12 7,-8 11,-2 v 0 z"
   id="path474"
   inkscape:connector-curvature="0"
   style="fill:#000000;stroke:none" />
         <path
   d="m 10489,13834 10,-7 -5,-16 -5,-17 -11,-16 -17,-5 v 16 l 7,5 5,5 5,12 v 16 l 11,-8 -11,8 3,7 8,3 7,-3 3,-7 z"
   id="path476"
   inkscape:connector-curvature="0"
   style="fill:#000000;stroke:none" />
         <path
   d="m 10417,13829 8,8 15,2 23,-2 18,-3 h 8 v -15 h -8 l -18,3 -23,-3 -15,3 8,7 -8,-7 -5,2 -3,5 3,5 5,3 z"
   id="path478"
   inkscape:connector-curvature="0"
   style="fill:#000000;stroke:none" />
         <path
   d="m 10687,13829 -3,-20 -7,-18 -13,-10 -13,-3 -12,5 -10,11 -6,15 v 15 h 8 l 18,3 20,2 z"
   id="path480"
   inkscape:connector-curvature="0"
   style="fill:#000000;stroke:none" />
         <path
   d="m 10651,13786 v 3 h 11 l 7,7 8,15 2,18 h 16 l -3,-23 -8,-20 -17,-13 -16,-5 v 3 z"
   id="path482"
   inkscape:connector-curvature="0"
   style="fill:#000000;stroke:none" />
         <path
   d="m 10623,13817 8,7 v -15 l 5,-10 8,-8 7,-5 v -15 l -17,5 -13,13 -5,20 v 15 l 7,8 -7,-8 2,5 5,3 6,-3 2,-5 z"
   id="path484"
   inkscape:connector-curvature="0"
   style="fill:#000000;stroke:none" />
         <path
   d="m 10679,13829 8,-10 -18,3 -20,-3 -18,-2 h -8 v 15 h 8 l 18,2 20,3 18,2 8,-10 -8,10 8,-2 2,-8 -2,-7 -8,-3 z"
   id="path486"
   inkscape:connector-curvature="0"
   style="fill:#000000;stroke:none" />
         <path
   d="m 10616,13974 h -13 l -13,-2 h -12 -16 l -12,2 h -16 -12 l -13,3 10,20 13,13 13,7 17,3 18,-3 15,-7 13,-15 z"
   id="path488"
   inkscape:connector-curvature="0"
   style="fill:#47000a;stroke:none" />
         <path
   d="m 10517,13974 -8,10 13,-2 12,2 16,-2 12,-3 16,3 12,-3 13,3 h 13 v -15 h -13 l -13,-3 -12,-3 -16,3 -12,3 -16,-3 -12,3 -13,2 -8,10 8,-10 -5,3 -3,5 3,5 5,2 z"
   id="path490"
   inkscape:connector-curvature="0"
   style="fill:#000000;stroke:none" />
         <path
   d="m 10562,14012 v -2 h -15 l -10,-8 -10,-10 -10,-18 -16,5 10,23 16,15 15,8 20,5 v -2 z"
   id="path492"
   inkscape:connector-curvature="0"
   style="fill:#000000;stroke:none" />
         <path
   d="m 10616,13982 -8,-8 -7,18 -11,10 -12,8 -16,2 v 16 l 21,-3 18,-8 15,-20 7,-23 -7,-7 7,7 -2,-5 -5,-2 -5,2 -3,5 z"
   id="path494"
   inkscape:connector-curvature="0"
   style="fill:#000000;stroke:none" />
         <path
   d="m 10616,13974 h -13 l -13,-2 h -12 -16 l -12,2 h -16 -12 l -13,3 -13,2 -13,3 -10,2 -10,3 5,-5 10,-8 13,-10 15,-10 16,-8 17,-7 13,-6 10,-2 h 11 l 12,5 16,5 15,8 13,7 15,8 13,10 10,10 -10,-2 -13,-3 -13,-2 z"
   id="path496"
   inkscape:connector-curvature="0"
   style="fill:#000000;stroke:none" />
         <path
   d="m 10509,13984 v 0 l 13,-2 12,2 16,-2 12,-3 16,3 12,-3 13,3 h 13 v -15 h -13 l -13,-3 -12,-3 -16,3 -12,3 -16,-3 -12,3 -13,2 v 0 0 l -5,3 -3,5 3,5 z"
   id="path498"
   inkscape:connector-curvature="0"
   style="fill:#000000;stroke:none" />
         <path
   d="m 10458,13982 8,13 7,-3 10,-3 13,-2 13,-3 v -15 l -13,3 -13,2 -10,3 -12,2 7,13 -7,-13 -6,3 v 7 l 3,6 h 8 z"
   id="path500"
   inkscape:connector-curvature="0"
   style="fill:#000000;stroke:none" />
         <path
   d="m 10562,13921 v 2 l -12,3 -13,5 -18,8 -18,7 -15,10 -13,11 -10,7 -5,8 10,10 5,-3 10,-7 13,-10 15,-11 13,-7 18,-8 13,-5 7,-2 v 2 z"
   id="path502"
   inkscape:connector-curvature="0"
   style="fill:#000000;stroke:none" />
         <path
   d="m 10664,13992 8,-13 -10,-10 -13,-13 -18,-7 -13,-8 -15,-8 -15,-5 -15,-5 -11,-2 v 20 l 11,-2 10,5 15,5 15,7 13,8 13,8 12,7 11,10 7,-12 -7,12 h 5 l 5,-2 2,-3 -2,-5 z"
   id="path504"
   inkscape:connector-curvature="0"
   style="fill:#000000;stroke:none" />
         <path
   d="m 10616,13982 v 0 l 15,2 13,3 13,2 7,3 5,-15 -12,-3 -13,-2 -13,-3 -15,-2 v 0 0 l -5,2 -3,5 3,5 z"
   id="path506"
   inkscape:connector-curvature="0"
   style="fill:#000000;stroke:none" />
         <path
   d="m 10486,14091 15,3 h 18 l 20,-3 h 26 l 23,-2 20,-6 18,-2 15,-5 -35,23 -5,10 -11,23 -12,28 -8,20 -13,-25 -10,-23 -8,-18 -2,-8 h -5 l -13,-5 -15,-2 z"
   id="path508"
   inkscape:connector-curvature="0"
   style="fill:#000000;stroke:none" />
         <path
   d="m 10646,14083 -7,-15 -13,5 -18,3 -20,5 h -23 -26 l -20,5 h -18 l -15,-3 v 16 l 15,2 h 18 20 26 l 23,-5 20,-5 18,-2 18,-6 -8,-15 8,15 5,-5 v -5 l -3,-5 h -7 z"
   id="path510"
   inkscape:connector-curvature="0"
   style="fill:#000000;stroke:none" />
         <path
   d="m 10613,14101 -2,5 35,-23 -10,-15 -35,23 -3,5 3,-5 -6,5 3,5 5,5 h 8 z"
   id="path512"
   inkscape:connector-curvature="0"
   style="fill:#000000;stroke:none" />
         <path
   d="m 10562,14183 16,-3 7,-18 13,-28 10,-23 5,-10 -15,-5 -5,10 -10,23 -13,28 -8,23 16,-2 -16,2 3,5 5,3 5,-3 3,-5 z"
   id="path514"
   inkscape:connector-curvature="0"
   style="fill:#000000;stroke:none" />
         <path
   d="m 10537,14114 -8,-5 3,8 7,17 11,23 12,26 16,-5 -13,-26 -10,-23 -8,-18 -2,-7 -8,-5 8,5 -3,-5 h -8 l -5,2 v 8 z"
   id="path516"
   inkscape:connector-curvature="0"
   style="fill:#000000;stroke:none" />
         <path
   d="m 10486,14083 -3,16 18,7 16,3 12,5 h 8 v -15 h -3 l -12,-5 -16,-3 -17,-8 -3,16 3,-16 h -8 l -3,6 v 5 l 5,5 z"
   id="path518"
   inkscape:connector-curvature="0"
   style="fill:#000000;stroke:none" />
        </g>
       </g>
      </g>
     </g>
    </g>
   </g>
  </g>
 </g>
</svg>