<?xml version="1.0" encoding="UTF-8" standalone="no"?>
<svg
   xmlns:ooo="http://xml.openoffice.org/svg/export"
   xmlns:dc="http://purl.org/dc/elements/1.1/"
   xmlns:cc="http://creativecommons.org/ns#"
   xmlns:rdf="http://www.w3.org/1999/02/22-rdf-syntax-ns#"
   xmlns:svg="http://www.w3.org/2000/svg"
   xmlns="http://www.w3.org/2000/svg"
   xmlns:sodipodi="http://sodipodi.sourceforge.net/DTD/sodipodi-0.dtd"
   xmlns:inkscape="http://www.inkscape.org/namespaces/inkscape"
   version="1.2"
   width="22.559999mm"
   height="21.74mm"
   viewBox="0 0 2255.9999 2174"
   preserveAspectRatio="xMidYMid"
   xml:space="preserve"
   id="svg143"
   sodipodi:docname="plumber2.svg"
   style="fill-rule:evenodd;stroke-width:28.22200012;stroke-linejoin:round"
   inkscape:version="0.92.5 (2060ec1f9f, 2020-04-08)"><metadata
   id="metadata147"><rdf:RDF><cc:Work
       rdf:about=""><dc:format>image/svg+xml</dc:format><dc:type
         rdf:resource="http://purl.org/dc/dcmitype/StillImage" /></cc:Work></rdf:RDF></metadata><sodipodi:namedview
   pagecolor="#ffffff"
   bordercolor="#666666"
   borderopacity="1"
   objecttolerance="10"
   gridtolerance="10"
   guidetolerance="10"
   inkscape:pageopacity="0"
   inkscape:pageshadow="2"
   inkscape:window-width="664"
   inkscape:window-height="487"
   id="namedview145"
   showgrid="false"
   inkscape:zoom="0.2102413"
   inkscape:cx="42.633072"
   inkscape:cy="41.083463"
   inkscape:window-x="0"
   inkscape:window-y="0"
   inkscape:window-maximized="0"
   inkscape:current-layer="svg143" />
 <defs
   class="ClipPathGroup"
   id="defs8">
  <clipPath
   id="presentation_clip_path"
   clipPathUnits="userSpaceOnUse">
   <rect
   x="0"
   y="0"
   width="21000"
   height="29700"
   id="rect2" />
  </clipPath>
  <clipPath
   id="presentation_clip_path_shrink"
   clipPathUnits="userSpaceOnUse">
   <rect
   x="21"
   y="29"
   width="20958"
   height="29641"
   id="rect5" />
  </clipPath>
 </defs>
 <defs
   class="TextShapeIndex"
   id="defs12">
  <g
   ooo:slide="id1"
   ooo:id-list="id3"
   id="g10" />
 </defs>
 <defs
   class="EmbeddedBulletChars"
   id="defs44">
  <g
   id="bullet-char-template-57356"
   transform="matrix(4.8828125e-4,0,0,-4.8828125e-4,0,0)">
   <path
   d="M 580,1141 1163,571 580,0 -4,571 Z"
   id="path14"
   inkscape:connector-curvature="0" />
  </g>
  <g
   id="bullet-char-template-57354"
   transform="matrix(4.8828125e-4,0,0,-4.8828125e-4,0,0)">
   <path
   d="M 8,1128 H 1137 V 0 H 8 Z"
   id="path17"
   inkscape:connector-curvature="0" />
  </g>
  <g
   id="bullet-char-template-10146"
   transform="matrix(4.8828125e-4,0,0,-4.8828125e-4,0,0)">
   <path
   d="M 174,0 602,739 174,1481 1456,739 Z M 1358,739 309,1346 659,739 Z"
   id="path20"
   inkscape:connector-curvature="0" />
  </g>
  <g
   id="bullet-char-template-10132"
   transform="matrix(4.8828125e-4,0,0,-4.8828125e-4,0,0)">
   <path
   d="M 2015,739 1276,0 H 717 l 543,543 H 174 v 393 h 1086 l -543,545 h 557 z"
   id="path23"
   inkscape:connector-curvature="0" />
  </g>
  <g
   id="bullet-char-template-10007"
   transform="matrix(4.8828125e-4,0,0,-4.8828125e-4,0,0)">
   <path
   d="m 0,-2 c -7,16 -16,29 -25,39 l 381,530 c -94,256 -141,385 -141,387 0,25 13,38 40,38 9,0 21,-2 34,-5 21,4 42,12 65,25 l 27,-13 111,-251 280,301 64,-25 24,25 c 21,-10 41,-24 62,-43 C 886,937 835,863 770,784 769,783 710,716 594,584 L 774,223 c 0,-27 -21,-55 -63,-84 l 16,-20 C 717,90 699,76 672,76 641,76 570,178 457,381 L 164,-76 c -22,-34 -53,-51 -92,-51 -42,0 -63,17 -64,51 -7,9 -10,24 -10,44 0,9 1,19 2,30 z"
   id="path26"
   inkscape:connector-curvature="0" />
  </g>
  <g
   id="bullet-char-template-10004"
   transform="matrix(4.8828125e-4,0,0,-4.8828125e-4,0,0)">
   <path
   d="M 285,-33 C 182,-33 111,30 74,156 52,228 41,333 41,471 c 0,78 14,145 41,201 34,71 87,106 158,106 53,0 88,-31 106,-94 l 23,-176 c 8,-64 28,-97 59,-98 l 735,706 c 11,11 33,17 66,17 42,0 63,-15 63,-46 V 965 c 0,-36 -10,-64 -30,-84 L 442,47 C 390,-6 338,-33 285,-33 Z"
   id="path29"
   inkscape:connector-curvature="0" />
  </g>
  <g
   id="bullet-char-template-9679"
   transform="matrix(4.8828125e-4,0,0,-4.8828125e-4,0,0)">
   <path
   d="M 813,0 C 632,0 489,54 383,161 276,268 223,411 223,592 c 0,181 53,324 160,431 106,107 249,161 430,161 179,0 323,-54 432,-161 108,-107 162,-251 162,-431 0,-180 -54,-324 -162,-431 C 1136,54 992,0 813,0 Z"
   id="path32"
   inkscape:connector-curvature="0" />
  </g>
  <g
   id="bullet-char-template-8226"
   transform="matrix(4.8828125e-4,0,0,-4.8828125e-4,0,0)">
   <path
   d="m 346,457 c -73,0 -137,26 -191,78 -54,51 -81,114 -81,188 0,73 27,136 81,188 54,52 118,78 191,78 73,0 134,-26 185,-79 51,-51 77,-114 77,-187 0,-75 -25,-137 -76,-188 -50,-52 -112,-78 -186,-78 z"
   id="path35"
   inkscape:connector-curvature="0" />
  </g>
  <g
   id="bullet-char-template-8211"
   transform="matrix(4.8828125e-4,0,0,-4.8828125e-4,0,0)">
   <path
   d="M -4,459 H 1135 V 606 H -4 Z"
   id="path38"
   inkscape:connector-curvature="0" />
  </g>
  <g
   id="bullet-char-template-61548"
   transform="matrix(4.8828125e-4,0,0,-4.8828125e-4,0,0)">
   <path
   d="m 173,740 c 0,163 58,303 173,419 116,115 255,173 419,173 163,0 302,-58 418,-173 116,-116 174,-256 174,-419 0,-163 -58,-303 -174,-418 C 1067,206 928,148 765,148 601,148 462,206 346,322 231,437 173,577 173,740 Z"
   id="path41"
   inkscape:connector-curvature="0" />
  </g>
 </defs>
 <g
   id="g49"
   transform="translate(-9372,-13763)">
  <g
   id="id2"
   class="Master_Slide">
   <g
   id="bg-id2"
   class="Background" />
   <g
   id="bo-id2"
   class="BackgroundObjects" />
  </g>
 </g>
 <g
   class="SlideGroup"
   id="g141"
   transform="translate(-9372,-13763)">
  <g
   id="g139">
   <g
   id="container-id1">
    <g
   id="id1"
   class="Slide"
   clip-path="url(#presentation_clip_path)">
     <g
   class="Page"
   id="g135">
      <g
   class="Graphic"
   id="g133">
       <g
   id="id3">
        <rect
   class="BoundingBox"
   x="9372"
   y="13763"
   width="2256"
   height="2174"
   id="rect51"
   style="fill:none;stroke:none" />
        <defs
   id="defs56">
         <clipPath
   id="clip_path_1"
   clipPathUnits="userSpaceOnUse">
          <path
   d="m 9372,13763 h 2255 v 2173 H 9372 Z"
   id="path53"
   inkscape:connector-curvature="0" />
         </clipPath>
        </defs>
        <g
   clip-path="url(#clip_path_1)"
   id="g130">
         <path
   d="m 11282,14269 -5,-48 -15,-46 -21,-43 -30,-36 -36,-30 -43,-21 -46,-15 -48,-5 H 9614 l -49,5 -45,15 -41,21 -36,30 -30,36 -23,43 -13,46 -5,48 v 1424 l 5,48 13,46 23,43 30,36 36,30 41,21 45,15 49,5 h 1424 l 48,-5 46,-15 43,-21 36,-30 30,-36 21,-43 15,-46 5,-48 z"
   id="path58"
   inkscape:connector-curvature="0"
   style="fill:#00145b;stroke:none" />
         <path
   d="m 11282,14269 v 0 l -5,-48 -15,-46 -21,-43 -30,-36 -36,-30 -43,-21 -46,-15 -48,-5 H 9614 v 0 l -49,5 -45,15 -41,21 -36,30 -30,36 -23,43 -13,46 -5,48 v 1424 0 l 5,48 13,46 23,43 30,36 36,30 41,21 45,15 49,5 h 1424 v 0 l 48,-5 46,-15 43,-21 36,-30 30,-36 21,-43 15,-46 5,-48 z"
   id="path60"
   inkscape:connector-curvature="0"
   style="fill:none;stroke:#000000" />
         <path
   d="m 11038,14038 v 0 l 46,2 45,15 41,21 33,28 28,33 21,40 15,46 2,46 h 26 l -8,-51 -15,-46 -20,-45 -33,-39 -39,-33 -45,-20 -46,-15 -51,-8 v 0 0 l -8,5 -2,8 2,8 z"
   id="path62"
   inkscape:connector-curvature="0"
   style="fill:#000000;stroke:none" />
         <path
   d="m 9614,14038 v 0 h 1424 v -26 H 9614 v 0 0 l -8,5 -3,8 3,8 z"
   id="path64"
   inkscape:connector-curvature="0"
   style="fill:#000000;stroke:none" />
         <path
   d="m 9385,14269 v 0 l 2,-48 13,-44 23,-40 28,-33 33,-28 38,-21 46,-15 46,-2 v -26 l -51,8 -46,15 -43,20 -38,33 -33,39 -23,45 -13,49 -8,48 v 0 0 l 5,8 8,2 8,-2 z"
   id="path66"
   inkscape:connector-curvature="0"
   style="fill:#000000;stroke:none" />
         <path
   d="m 9385,15693 v 0 -1424 h -26 v 1424 0 0 l 5,8 8,2 8,-2 z"
   id="path68"
   inkscape:connector-curvature="0"
   style="fill:#000000;stroke:none" />
         <path
   d="m 9614,15924 v 0 l -46,-2 -46,-16 -38,-20 -33,-28 -28,-33 -23,-41 -13,-43 -2,-48 h -26 l 8,48 13,49 23,45 33,38 38,33 43,21 46,15 51,8 v 0 0 l 7,-5 5,-8 -5,-8 z"
   id="path70"
   inkscape:connector-curvature="0"
   style="fill:#000000;stroke:none" />
         <path
   d="m 11038,15924 v 0 H 9614 v 26 h 1424 v 0 0 l 8,-5 5,-8 -5,-8 z"
   id="path72"
   inkscape:connector-curvature="0"
   style="fill:#000000;stroke:none" />
         <path
   d="m 11269,15693 v 0 l -2,46 -15,45 -21,41 -28,33 -33,28 -41,20 -45,16 -46,2 v 26 l 51,-8 46,-15 45,-21 39,-33 33,-38 20,-45 15,-46 8,-51 v 0 0 l -5,-8 -8,-5 -8,5 z"
   id="path74"
   inkscape:connector-curvature="0"
   style="fill:#000000;stroke:none" />
         <path
   d="m 11269,14269 v 0 1424 h 26 v -1424 0 0 l -5,-8 -8,-5 -8,5 z"
   id="path76"
   inkscape:connector-curvature="0"
   style="fill:#000000;stroke:none" />
         <path
   d="m 10148,14561 -18,56 -18,44 -18,35 -15,31 -10,25 -8,26 3,25 7,30 13,21 15,15 21,8 23,2 23,-2 20,-10 18,-18 15,-23 5,-26 -3,-28 -12,-28 -13,-27 -18,-34 -15,-35 -10,-41 z"
   id="path78"
   inkscape:connector-curvature="0"
   style="fill:#ffffff;stroke:none" />
         <path
   d="m 10148,14561 v 0 l -18,56 -18,44 -18,35 -15,31 -10,25 -8,26 3,25 7,30 v 0 l 13,21 15,15 21,8 23,2 23,-2 20,-10 18,-18 15,-23 v 0 l 5,-26 -3,-28 -12,-28 -13,-27 -18,-34 -15,-35 -10,-41 z"
   id="path80"
   inkscape:connector-curvature="0"
   style="fill:none;stroke:#000000" />
         <path
   d="m 11274,14368 v -102 l -5,-45 -10,-41 -20,-38 -26,-36 3,3 h -1111 v 257 h 1169 z"
   id="path82"
   inkscape:connector-curvature="0"
   style="fill:#b24c33;stroke:none" />
         <path
   d="m 11274,14368 v -102 0 l -5,-45 -10,-41 -20,-38 -26,-36 3,3 h -1111 v 257 h 1169 z"
   id="path84"
   inkscape:connector-curvature="0"
   style="fill:none;stroke:#000000" />
         <path
   d="m 10812,14233 -61,-61 -62,-58 -58,-56 -56,-53 -51,-51 -46,-46 -38,-38 -33,-33 -30,-23 -33,-18 -33,-8 -36,-2 -33,5 -31,10 -30,18 -26,20 -25,26 -28,28 -28,30 -28,28 -28,26 -23,25 -20,20 -15,16 -21,40 -7,61 7,69 38,61 23,-23 38,-38 46,-46 48,-51 46,-48 38,-41 28,-28 11,-10 7,8 18,18 23,20 25,28 33,30 33,34 39,35 35,36 38,35 36,36 33,33 28,28 25,23 18,20 13,10 5,5 z"
   id="path86"
   inkscape:connector-curvature="0"
   style="fill:#8ca3ba;stroke:none" />
         <path
   d="m 10812,14233 v 0 l -61,-61 -62,-58 -58,-56 -56,-53 -51,-51 -46,-46 -38,-38 -33,-33 v 0 l -30,-23 -33,-18 -33,-8 -36,-2 -33,5 -31,10 -30,18 -26,20 v 0 l -25,26 -28,28 -28,30 -28,28 -28,26 -23,25 -20,20 -15,16 v 0 l -21,40 -7,61 7,69 38,61 v 0 l 23,-23 38,-38 46,-46 48,-51 46,-48 38,-41 28,-28 11,-10 v 0 l 7,8 18,18 23,20 25,28 33,30 33,34 39,35 35,36 38,35 36,36 33,33 28,28 25,23 18,20 13,10 5,5 z"
   id="path88"
   inkscape:connector-curvature="0"
   style="fill:none;stroke:#000000" />
         <path
   d="m 10590,14345 10,10 26,26 41,38 53,53 64,61 71,72 79,76 78,79 84,79 82,81 76,76 74,69 63,63 56,56 44,41 28,28 28,41 5,38 -16,35 -28,28 -35,21 -38,10 -36,-3 -30,-15 -21,-20 -33,-33 -48,-46 -56,-56 -64,-64 -71,-71 -76,-73 -79,-77 -79,-76 -76,-76 -74,-72 -69,-66 -61,-61 -51,-48 -38,-41 -28,-25 -38,30 -41,13 -43,5 -40,-7 -39,-11 -33,-17 -25,-18 -18,-18 445,-455 15,15 23,20 23,26 26,23 23,23 20,20 13,13 5,5 z"
   id="path90"
   inkscape:connector-curvature="0"
   style="fill:#8ca3ba;stroke:none" />
         <path
   d="m 10590,14345 v 0 l 10,10 26,26 41,38 53,53 64,61 71,72 79,76 78,79 84,79 82,81 76,76 74,69 63,63 56,56 44,41 28,28 v 0 l 28,41 5,38 -16,35 -28,28 -35,21 -38,10 -36,-3 -30,-15 v 0 l -21,-20 -33,-33 -48,-46 -56,-56 -64,-64 -71,-71 -76,-73 -79,-77 -79,-76 -76,-76 -74,-72 -69,-66 -61,-61 -51,-48 -38,-41 -28,-25 v 0 l -38,30 -41,13 -43,5 -40,-7 -39,-11 -33,-17 -25,-18 -18,-18 445,-455 v 0 l 15,15 23,20 23,26 26,23 23,23 20,20 13,13 5,5 z"
   id="path92"
   inkscape:connector-curvature="0"
   style="fill:none;stroke:#000000" />
         <path
   d="m 9375,14905 h 264 v -257 h -264 z"
   id="path94"
   inkscape:connector-curvature="0"
   style="fill:#b24c33;stroke:none" />
         <path
   d="m 9375,14905 h 264 v -257 h -264 z"
   id="path96"
   inkscape:connector-curvature="0"
   style="fill:none;stroke:#000000" />
         <path
   d="m 10010,14546 v -71 h -256 v 71 z"
   id="path98"
   inkscape:connector-curvature="0"
   style="fill:#b24c33;stroke:none" />
         <path
   d="m 10010,14546 v -71 h -256 v 71 z"
   id="path100"
   inkscape:connector-curvature="0"
   style="fill:none;stroke:#000000" />
         <path
   d="m 10023,14546 -8,76 -22,72 -36,66 -46,56 -58,45 -64,36 -71,23 -76,8 v -303 l 15,-3 15,-2 13,-8 10,-10 10,-13 8,-12 2,-16 3,-15 z"
   id="path102"
   inkscape:connector-curvature="0"
   style="fill:#b24c33;stroke:none" />
         <path
   d="m 10023,14546 v 0 l -8,76 -22,72 -36,66 -46,56 -58,45 -64,36 -71,23 -76,8 v -303 0 l 15,-3 15,-2 13,-8 10,-10 10,-13 8,-12 2,-16 3,-15 z"
   id="path104"
   inkscape:connector-curvature="0"
   style="fill:none;stroke:#000000" />
         <path
   d="m 9723,14475 8,-76 23,-72 35,-66 46,-56 56,-45 66,-36 71,-23 77,-7 v 302 l -16,3 -15,2 -13,8 -12,10 -11,13 -7,12 -3,16 -2,15 z"
   id="path106"
   inkscape:connector-curvature="0"
   style="fill:#b24c33;stroke:none" />
         <path
   d="m 9723,14475 v 0 l 8,-76 23,-72 35,-66 46,-56 56,-45 66,-36 71,-23 77,-7 v 302 0 l -16,3 -15,2 -13,8 -12,10 -11,13 -7,12 -3,16 -2,15 z"
   id="path108"
   inkscape:connector-curvature="0"
   style="fill:none;stroke:#000000" />
         <path
   d="m 9629,15505 20,23 23,20 23,18 25,15 26,13 25,10 28,5 28,5 28,3 h 28 l 28,-3 28,-8 26,-7 28,-13 25,-13 23,-17 43,-41 31,-48 23,-54 10,-56 v -56 l -13,-56 -20,-56 -33,-50 -107,-130 -21,-23 -22,-20 -23,-18 -26,-15 -25,-13 -28,-10 -26,-8 -28,-5 -30,-3 h -28 l -28,6 -28,5 -25,10 -28,10 -26,15 -23,18 -40,41 -34,48 -20,51 -10,56 v 56 l 10,56 23,56 33,51 z"
   id="path110"
   inkscape:connector-curvature="0"
   style="fill:#f9e8e0;stroke:none" />
         <path
   d="m 9629,15505 v 0 l 20,23 23,20 23,18 25,15 26,13 25,10 28,5 28,5 28,3 h 28 l 28,-3 28,-8 26,-7 28,-13 25,-13 23,-17 v 0 l 43,-41 31,-48 23,-54 10,-56 v -56 l -13,-56 -20,-56 -33,-50 -107,-130 v 0 l -21,-23 -22,-20 -23,-18 -26,-15 -25,-13 -28,-10 -26,-8 -28,-5 -30,-3 h -28 l -28,6 -28,5 -25,10 -28,10 -26,15 -23,18 v 0 l -40,41 -34,48 -20,51 -10,56 v 56 l 10,56 23,56 33,51 z"
   id="path112"
   inkscape:connector-curvature="0"
   style="fill:none;stroke:#000000" />
         <path
   d="m 9741,15932 h 1289 l 49,-5 45,-15 44,-21 35,-30 31,-36 20,-41 15,-45 5,-49 v -104 -5 l -368,-119 -54,-621 -305,-30 23,574 -10,-2 -28,-3 -41,-5 -51,-5 -53,-5 -56,-5 -48,-3 -41,-2 -21,2 -27,8 -36,10 -38,15 -43,21 -44,23 -48,25 -46,28 -46,30 -43,34 -41,35 -38,36 -30,35 -26,38 -17,36 -8,38 v 51 l 10,46 15,35 21,31 z"
   id="path114"
   inkscape:connector-curvature="0"
   style="fill:#ffbf4c;stroke:none" />
         <path
   d="m 9741,15932 h 1289 v 0 l 49,-5 45,-15 44,-21 35,-30 31,-36 20,-41 15,-45 5,-49 v -104 -5 l -368,-119 -54,-621 -305,-30 23,574 v 0 l -10,-2 -28,-3 -41,-5 -51,-5 -53,-5 -56,-5 -48,-3 -41,-2 v 0 l -21,2 -27,8 -36,10 -38,15 -43,21 -44,23 -48,25 -46,28 -46,30 -43,34 -41,35 -38,36 -30,35 -26,38 -17,36 -8,38 v 0 51 l 10,46 15,35 21,31 z"
   id="path116"
   inkscape:connector-curvature="0"
   style="fill:none;stroke:#000000" />
         <path
   d="m 11028,15131 -36,51 -53,76 -64,89 -69,97 -63,94 -54,79 -38,53 -12,20 -8,3 -25,8 -39,10 -50,12 -62,16 -66,17 -71,21 -74,20 -76,20 -74,18 -68,21 -64,15 -56,15 -46,13 -30,7 -18,6 -33,5 -36,-3 -30,-10 -28,-15 -26,-23 -22,-28 -16,-31 -10,-33 -2,-35 2,-33 10,-33 18,-28 20,-26 26,-23 30,-15 33,-10 23,-5 36,-8 41,-7 48,-11 53,-10 56,-13 59,-12 61,-13 56,-10 56,-13 51,-10 45,-10 39,-8 28,-5 17,-2 8,-3 51,-61 46,-61 45,-61 44,-64 43,-61 46,-63 43,-64 48,-63 z"
   id="path118"
   inkscape:connector-curvature="0"
   style="fill:#ffbf4c;stroke:none" />
         <path
   d="m 11028,15131 v 0 l -36,51 -53,76 -64,89 -69,97 -63,94 -54,79 -38,53 -12,20 v 0 l -8,3 -25,8 -39,10 -50,12 -62,16 -66,17 -71,21 -74,20 -76,20 -74,18 -68,21 -64,15 -56,15 -46,13 -30,7 -18,6 v 0 l -33,5 -36,-3 -30,-10 -28,-15 -26,-23 -22,-28 -16,-31 -10,-33 v 0 l -2,-35 2,-33 10,-33 18,-28 20,-26 26,-23 30,-15 33,-10 v 0 l 23,-5 36,-8 41,-7 48,-11 53,-10 56,-13 59,-12 61,-13 56,-10 56,-13 51,-10 45,-10 39,-8 28,-5 17,-2 8,-3 v 0 l 51,-61 46,-61 45,-61 44,-64 43,-61 46,-63 43,-64 48,-63 z"
   id="path120"
   inkscape:connector-curvature="0"
   style="fill:none;stroke:#000000" />
         <path
   d="m 10791,14933 54,-66 50,-54 49,-43 46,-28 45,-15 h 44 l 43,15 43,30 31,44 7,45 -12,49 -26,48 -33,48 -38,46 -36,41 -30,38 z"
   id="path122"
   inkscape:connector-curvature="0"
   style="fill:#f9e8e0;stroke:none" />
         <path
   d="m 10791,14933 v 0 l 54,-66 50,-54 49,-43 46,-28 45,-15 h 44 l 43,15 43,30 v 0 l 31,44 7,45 -12,49 -26,48 -33,48 -38,46 -36,41 -30,38 z"
   id="path124"
   inkscape:connector-curvature="0"
   style="fill:none;stroke:#000000" />
         <path
   d="m 10631,14572 -41,48 -28,38 -17,33 -8,31 2,25 13,28 26,31 35,35 41,31 38,12 36,-2 35,-10 33,-21 31,-20 28,-23 28,-20 25,-21 26,-23 23,-25 17,-30 8,-36 v -38 l -15,-41 -31,-46 -41,-38 -40,-20 -41,-8 -41,8 -38,15 -38,26 -35,28 z"
   id="path126"
   inkscape:connector-curvature="0"
   style="fill:#f9e8e0;stroke:none" />
         <path
   d="m 10631,14572 v 0 l -41,48 -28,38 -17,33 -8,31 2,25 13,28 26,31 35,35 v 0 l 41,31 38,12 36,-2 35,-10 33,-21 31,-20 28,-23 28,-20 v 0 l 25,-21 26,-23 23,-25 17,-30 8,-36 v -38 l -15,-41 -31,-46 v 0 l -41,-38 -40,-20 -41,-8 -41,8 -38,15 -38,26 -35,28 z"
   id="path128"
   inkscape:connector-curvature="0"
   style="fill:none;stroke:#000000" />
        </g>
       </g>
      </g>
     </g>
    </g>
   </g>
  </g>
 </g>
</svg>