<?xml version="1.0" encoding="UTF-8" standalone="no"?>
<svg
   xmlns:ooo="http://xml.openoffice.org/svg/export"
   xmlns:dc="http://purl.org/dc/elements/1.1/"
   xmlns:cc="http://creativecommons.org/ns#"
   xmlns:rdf="http://www.w3.org/1999/02/22-rdf-syntax-ns#"
   xmlns:svg="http://www.w3.org/2000/svg"
   xmlns="http://www.w3.org/2000/svg"
   xmlns:sodipodi="http://sodipodi.sourceforge.net/DTD/sodipodi-0.dtd"
   xmlns:inkscape="http://www.inkscape.org/namespaces/inkscape"
   version="1.2"
   width="38.48mm"
   height="33.02mm"
   viewBox="0 0 3848 3302"
   preserveAspectRatio="xMidYMid"
   xml:space="preserve"
   id="svg241"
   sodipodi:docname="printer2.svg"
   style="fill-rule:evenodd;stroke-width:28.22200012;stroke-linejoin:round"
   inkscape:version="0.92.5 (2060ec1f9f, 2020-04-08)"><metadata
   id="metadata245"><rdf:RDF><cc:Work
       rdf:about=""><dc:format>image/svg+xml</dc:format><dc:type
         rdf:resource="http://purl.org/dc/dcmitype/StillImage" /></cc:Work></rdf:RDF></metadata><sodipodi:namedview
   pagecolor="#ffffff"
   bordercolor="#666666"
   borderopacity="1"
   objecttolerance="10"
   gridtolerance="10"
   guidetolerance="10"
   inkscape:pageopacity="0"
   inkscape:pageshadow="2"
   inkscape:window-width="664"
   inkscape:window-height="487"
   id="namedview243"
   showgrid="false"
   inkscape:zoom="0.2102413"
   inkscape:cx="72.718111"
   inkscape:cy="62.399998"
   inkscape:window-x="0"
   inkscape:window-y="0"
   inkscape:window-maximized="0"
   inkscape:current-layer="svg241" />
 <defs
   class="ClipPathGroup"
   id="defs8">
  <clipPath
   id="presentation_clip_path"
   clipPathUnits="userSpaceOnUse">
   <rect
   x="0"
   y="0"
   width="21000"
   height="29700"
   id="rect2" />
  </clipPath>
  <clipPath
   id="presentation_clip_path_shrink"
   clipPathUnits="userSpaceOnUse">
   <rect
   x="21"
   y="29"
   width="20958"
   height="29641"
   id="rect5" />
  </clipPath>
 </defs>
 <defs
   class="TextShapeIndex"
   id="defs12">
  <g
   ooo:slide="id1"
   ooo:id-list="id3"
   id="g10" />
 </defs>
 <defs
   class="EmbeddedBulletChars"
   id="defs44">
  <g
   id="bullet-char-template-57356"
   transform="matrix(4.8828125e-4,0,0,-4.8828125e-4,0,0)">
   <path
   d="M 580,1141 1163,571 580,0 -4,571 Z"
   id="path14"
   inkscape:connector-curvature="0" />
  </g>
  <g
   id="bullet-char-template-57354"
   transform="matrix(4.8828125e-4,0,0,-4.8828125e-4,0,0)">
   <path
   d="M 8,1128 H 1137 V 0 H 8 Z"
   id="path17"
   inkscape:connector-curvature="0" />
  </g>
  <g
   id="bullet-char-template-10146"
   transform="matrix(4.8828125e-4,0,0,-4.8828125e-4,0,0)">
   <path
   d="M 174,0 602,739 174,1481 1456,739 Z M 1358,739 309,1346 659,739 Z"
   id="path20"
   inkscape:connector-curvature="0" />
  </g>
  <g
   id="bullet-char-template-10132"
   transform="matrix(4.8828125e-4,0,0,-4.8828125e-4,0,0)">
   <path
   d="M 2015,739 1276,0 H 717 l 543,543 H 174 v 393 h 1086 l -543,545 h 557 z"
   id="path23"
   inkscape:connector-curvature="0" />
  </g>
  <g
   id="bullet-char-template-10007"
   transform="matrix(4.8828125e-4,0,0,-4.8828125e-4,0,0)">
   <path
   d="m 0,-2 c -7,16 -16,29 -25,39 l 381,530 c -94,256 -141,385 -141,387 0,25 13,38 40,38 9,0 21,-2 34,-5 21,4 42,12 65,25 l 27,-13 111,-251 280,301 64,-25 24,25 c 21,-10 41,-24 62,-43 C 886,937 835,863 770,784 769,783 710,716 594,584 L 774,223 c 0,-27 -21,-55 -63,-84 l 16,-20 C 717,90 699,76 672,76 641,76 570,178 457,381 L 164,-76 c -22,-34 -53,-51 -92,-51 -42,0 -63,17 -64,51 -7,9 -10,24 -10,44 0,9 1,19 2,30 z"
   id="path26"
   inkscape:connector-curvature="0" />
  </g>
  <g
   id="bullet-char-template-10004"
   transform="matrix(4.8828125e-4,0,0,-4.8828125e-4,0,0)">
   <path
   d="M 285,-33 C 182,-33 111,30 74,156 52,228 41,333 41,471 c 0,78 14,145 41,201 34,71 87,106 158,106 53,0 88,-31 106,-94 l 23,-176 c 8,-64 28,-97 59,-98 l 735,706 c 11,11 33,17 66,17 42,0 63,-15 63,-46 V 965 c 0,-36 -10,-64 -30,-84 L 442,47 C 390,-6 338,-33 285,-33 Z"
   id="path29"
   inkscape:connector-curvature="0" />
  </g>
  <g
   id="bullet-char-template-9679"
   transform="matrix(4.8828125e-4,0,0,-4.8828125e-4,0,0)">
   <path
   d="M 813,0 C 632,0 489,54 383,161 276,268 223,411 223,592 c 0,181 53,324 160,431 106,107 249,161 430,161 179,0 323,-54 432,-161 108,-107 162,-251 162,-431 0,-180 -54,-324 -162,-431 C 1136,54 992,0 813,0 Z"
   id="path32"
   inkscape:connector-curvature="0" />
  </g>
  <g
   id="bullet-char-template-8226"
   transform="matrix(4.8828125e-4,0,0,-4.8828125e-4,0,0)">
   <path
   d="m 346,457 c -73,0 -137,26 -191,78 -54,51 -81,114 -81,188 0,73 27,136 81,188 54,52 118,78 191,78 73,0 134,-26 185,-79 51,-51 77,-114 77,-187 0,-75 -25,-137 -76,-188 -50,-52 -112,-78 -186,-78 z"
   id="path35"
   inkscape:connector-curvature="0" />
  </g>
  <g
   id="bullet-char-template-8211"
   transform="matrix(4.8828125e-4,0,0,-4.8828125e-4,0,0)">
   <path
   d="M -4,459 H 1135 V 606 H -4 Z"
   id="path38"
   inkscape:connector-curvature="0" />
  </g>
  <g
   id="bullet-char-template-61548"
   transform="matrix(4.8828125e-4,0,0,-4.8828125e-4,0,0)">
   <path
   d="m 173,740 c 0,163 58,303 173,419 116,115 255,173 419,173 163,0 302,-58 418,-173 116,-116 174,-256 174,-419 0,-163 -58,-303 -174,-418 C 1067,206 928,148 765,148 601,148 462,206 346,322 231,437 173,577 173,740 Z"
   id="path41"
   inkscape:connector-curvature="0" />
  </g>
 </defs>
 <g
   id="g49"
   transform="translate(-8576,-13199)">
  <g
   id="id2"
   class="Master_Slide">
   <g
   id="bg-id2"
   class="Background" />
   <g
   id="bo-id2"
   class="BackgroundObjects" />
  </g>
 </g>
 <g
   class="SlideGroup"
   id="g239"
   transform="translate(-8576,-13199)">
  <g
   id="g237">
   <g
   id="container-id1">
    <g
   id="id1"
   class="Slide"
   clip-path="url(#presentation_clip_path)">
     <g
   class="Page"
   id="g233">
      <g
   class="Graphic"
   id="g231">
       <g
   id="id3">
        <rect
   class="BoundingBox"
   x="8576"
   y="13199"
   width="3848"
   height="3302"
   id="rect51"
   style="fill:none;stroke:none" />
        <defs
   id="defs56">
         <clipPath
   id="clip_path_1"
   clipPathUnits="userSpaceOnUse">
          <path
   d="m 8576,13199 h 3847 v 3301 H 8576 Z"
   id="path53"
   inkscape:connector-curvature="0" />
         </clipPath>
        </defs>
        <g
   clip-path="url(#clip_path_1)"
   id="g228">
         <path
   d="m 9626,14694 v -82 l -247,-744 -323,-504 -472,26 322,503 249,745 v 81 z"
   id="path58"
   inkscape:connector-curvature="0"
   style="fill:#ffffff;stroke:none" />
         <path
   d="m 9613,14615 v -3 82 h 25 v -82 -2 2 l -5,-7 -7,-5 -8,5 -5,7 z"
   id="path60"
   inkscape:connector-curvature="0"
   style="fill:#000000;stroke:none" />
         <path
   d="m 9369,13873 -3,-3 247,745 25,-5 -246,-745 -3,-3 3,3 -5,-8 -10,-2 -8,5 -3,10 z"
   id="path62"
   inkscape:connector-curvature="0"
   style="fill:#000000;stroke:none" />
         <path
   d="m 9056,13377 -10,-8 323,504 20,-11 -322,-503 -11,-7 11,7 -6,-5 h -7 l -8,8 v 7 z"
   id="path64"
   inkscape:connector-curvature="0"
   style="fill:#000000;stroke:none" />
         <path
   d="m 8594,13385 -10,17 472,-25 v -25 l -472,25 -11,18 11,-18 -8,5 -3,8 3,7 8,5 z"
   id="path66"
   inkscape:connector-curvature="0"
   style="fill:#000000;stroke:none" />
         <path
   d="m 8919,13890 -2,-2 -323,-503 -21,10 323,503 -2,-3 2,3 5,5 h 10 l 6,-8 v -7 z"
   id="path68"
   inkscape:connector-curvature="0"
   style="fill:#000000;stroke:none" />
         <path
   d="m 9168,14638 v -3 l -249,-745 -25,5 249,745 v -2 2 l 5,8 h 10 l 8,-3 2,-10 z"
   id="path70"
   inkscape:connector-curvature="0"
   style="fill:#000000;stroke:none" />
         <path
   d="m 9155,14706 13,13 v -81 h -25 v 81 l 12,13 -12,-13 5,8 7,2 8,-2 5,-8 z"
   id="path72"
   inkscape:connector-curvature="0"
   style="fill:#000000;stroke:none" />
         <path
   d="m 9613,14694 13,-13 -471,25 v 26 l 471,-26 12,-12 -12,12 7,-5 5,-7 -5,-8 -7,-5 z"
   id="path74"
   inkscape:connector-curvature="0"
   style="fill:#000000;stroke:none" />
         <path
   d="m 8584,13390 322,503 249,745 v 81 l -571,-735 z"
   id="path76"
   inkscape:connector-curvature="0"
   style="fill:#ffffff;stroke:none" />
         <path
   d="m 8919,13890 -2,-2 -323,-503 -21,10 323,503 -2,-3 2,3 5,5 h 10 l 6,-8 v -7 z"
   id="path78"
   inkscape:connector-curvature="0"
   style="fill:#000000;stroke:none" />
         <path
   d="m 9168,14638 v -3 l -249,-745 -25,5 249,745 v -2 2 l 5,8 h 10 l 8,-3 2,-10 z"
   id="path80"
   inkscape:connector-curvature="0"
   style="fill:#000000;stroke:none" />
         <path
   d="m 9145,14727 23,-8 v -81 h -25 v 81 l 23,-8 -23,8 5,8 7,2 8,-2 5,-8 z"
   id="path82"
   inkscape:connector-curvature="0"
   style="fill:#000000;stroke:none" />
         <path
   d="m 8571,13984 2,8 572,735 21,-16 -572,-734 2,7 -2,-7 -8,-5 -10,2 -5,8 2,10 z"
   id="path84"
   inkscape:connector-curvature="0"
   style="fill:#000000;stroke:none" />
         <path
   d="m 8594,13385 -23,5 v 594 h 25 v -594 l -23,5 23,-5 -5,-8 -7,-5 -8,5 -5,8 z"
   id="path86"
   inkscape:connector-curvature="0"
   style="fill:#000000;stroke:none" />
         <path
   d="m 9155,14638 471,-26 z"
   id="path88"
   inkscape:connector-curvature="0"
   style="fill:#ffffff;stroke:none" />
         <path
   d="m 9155,14625 -7,5 -3,8 3,7 7,5 z"
   id="path90"
   inkscape:connector-curvature="0"
   style="fill:#000000;stroke:none" />
         <path
   d="m 9626,14612 v -12 l -471,25 v 25 l 471,-25 z"
   id="path92"
   inkscape:connector-curvature="0"
   style="fill:#000000;stroke:none" />
         <path
   d="m 9626,14625 7,-5 5,-8 -5,-7 -7,-5 z"
   id="path94"
   inkscape:connector-curvature="0"
   style="fill:#000000;stroke:none" />
         <path
   d="m 12424,14528 v -81 l -247,-745 -322,-503 -471,25 321,504 249,742 v 84 z"
   id="path96"
   inkscape:connector-curvature="0"
   style="fill:#ffffff;stroke:none" />
         <path
   d="m 12411,14450 v -3 81 h 26 v -81 -2 2 l -5,-8 -8,-5 -8,5 -5,8 z"
   id="path98"
   inkscape:connector-curvature="0"
   style="fill:#000000;stroke:none" />
         <path
   d="m 12167,13707 -2,-2 246,745 26,-5 -247,-745 -2,-3 2,3 -5,-8 -10,-2 -8,5 -2,10 z"
   id="path100"
   inkscape:connector-curvature="0"
   style="fill:#000000;stroke:none" />
         <path
   d="m 11855,13212 -10,-8 322,503 21,-10 -323,-503 -10,-8 10,8 -5,-5 h -8 l -7,7 v 8 z"
   id="path102"
   inkscape:connector-curvature="0"
   style="fill:#000000;stroke:none" />
         <path
   d="m 11395,13219 -11,18 471,-25 v -26 l -471,26 -10,18 10,-18 -7,5 -3,7 3,8 7,5 z"
   id="path104"
   inkscape:connector-curvature="0"
   style="fill:#000000;stroke:none" />
         <path
   d="m 11717,13725 -2,-2 -320,-504 -21,11 321,503 -3,-3 3,3 5,5 h 10 l 5,-8 v -7 z"
   id="path106"
   inkscape:connector-curvature="0"
   style="fill:#000000;stroke:none" />
         <path
   d="m 11967,14470 v -3 l -250,-742 -25,5 249,743 v -3 3 l 5,7 h 10 l 8,-2 3,-11 z"
   id="path108"
   inkscape:connector-curvature="0"
   style="fill:#000000;stroke:none" />
         <path
   d="m 11954,14541 13,13 v -84 h -26 v 84 l 13,13 -13,-13 5,7 8,3 7,-3 6,-7 z"
   id="path110"
   inkscape:connector-curvature="0"
   style="fill:#000000;stroke:none" />
         <path
   d="m 12411,14528 13,-12 -470,25 v 26 l 470,-26 13,-13 -13,13 8,-5 5,-8 -5,-7 -8,-5 z"
   id="path112"
   inkscape:connector-curvature="0"
   style="fill:#000000;stroke:none" />
         <path
   d="m 11384,13224 321,504 249,742 v 84 l -570,-735 z"
   id="path114"
   inkscape:connector-curvature="0"
   style="fill:#ffffff;stroke:none" />
         <path
   d="m 11717,13725 -2,-2 -320,-504 -21,11 321,503 -3,-3 3,3 5,5 h 10 l 5,-8 v -7 z"
   id="path116"
   inkscape:connector-curvature="0"
   style="fill:#000000;stroke:none" />
         <path
   d="m 11967,14470 v -3 l -250,-742 -25,5 249,743 v -3 3 l 5,7 h 10 l 8,-2 3,-11 z"
   id="path118"
   inkscape:connector-curvature="0"
   style="fill:#000000;stroke:none" />
         <path
   d="m 11944,14561 23,-7 v -84 h -26 v 84 l 23,-8 -23,8 5,7 8,3 7,-3 6,-7 z"
   id="path120"
   inkscape:connector-curvature="0"
   style="fill:#000000;stroke:none" />
         <path
   d="m 11372,13819 2,8 570,734 20,-15 -569,-734 2,7 -2,-7 -8,-5 -10,2 -5,8 2,10 z"
   id="path122"
   inkscape:connector-curvature="0"
   style="fill:#000000;stroke:none" />
         <path
   d="m 11395,13219 -23,5 v 595 h 25 v -595 l -23,6 23,-6 -5,-7 -8,-5 -7,5 -5,7 z"
   id="path124"
   inkscape:connector-curvature="0"
   style="fill:#000000;stroke:none" />
         <path
   d="m 11705,13728 -321,-504 -2328,140 323,504 z"
   id="path126"
   inkscape:connector-curvature="0"
   style="fill:#ffffff;stroke:none" />
         <path
   d="m 11384,13237 -10,-7 321,503 20,-10 -320,-504 -11,-7 11,7 -5,-5 h -8 l -8,8 v 8 z"
   id="path128"
   inkscape:connector-curvature="0"
   style="fill:#000000;stroke:none" />
         <path
   d="m 9067,13359 -11,18 2328,-140 v -25 l -2328,140 -10,17 10,-17 -7,5 -3,7 3,8 7,5 z"
   id="path130"
   inkscape:connector-curvature="0"
   style="fill:#000000;stroke:none" />
         <path
   d="m 9379,13855 10,7 -322,-503 -21,10 323,504 10,7 -10,-7 5,5 h 10 l 5,-8 v -8 z"
   id="path132"
   inkscape:connector-curvature="0"
   style="fill:#000000;stroke:none" />
         <path
   d="m 11695,13733 10,-18 -2326,140 v 25 l 2326,-140 10,-17 -10,17 7,-5 5,-7 -5,-8 -7,-5 z"
   id="path134"
   inkscape:connector-curvature="0"
   style="fill:#000000;stroke:none" />
         <path
   d="m 11705,13728 -2326,140 198,602 2219,-132 v -99 z"
   id="path136"
   inkscape:connector-curvature="0"
   style="fill:#ffffff;stroke:none" />
         <path
   d="m 9392,13865 -13,15 2326,-140 v -25 l -2326,140 -13,15 13,-15 -7,5 -3,8 3,7 7,5 z"
   id="path138"
   inkscape:connector-curvature="0"
   style="fill:#000000;stroke:none" />
         <path
   d="m 9577,14457 13,10 -198,-602 -26,5 199,603 12,10 -12,-10 5,7 h 10 l 8,-2 2,-11 z"
   id="path140"
   inkscape:connector-curvature="0"
   style="fill:#000000;stroke:none" />
         <path
   d="m 11784,14338 12,-13 -2219,132 v 26 l 2219,-132 13,-13 -13,13 8,-6 5,-7 -5,-8 -8,-5 z"
   id="path142"
   inkscape:connector-curvature="0"
   style="fill:#000000;stroke:none" />
         <path
   d="m 11784,14239 v 0 99 h 25 v -99 0 0 l -5,-8 -8,-5 -7,5 z"
   id="path144"
   inkscape:connector-curvature="0"
   style="fill:#000000;stroke:none" />
         <path
   d="m 11705,13740 -13,-12 92,511 h 25 l -92,-511 -12,-13 12,13 -5,-8 -7,-5 -8,5 -5,8 z"
   id="path146"
   inkscape:connector-curvature="0"
   style="fill:#000000;stroke:none" />
         <path
   d="m 11954,14470 470,-23 z"
   id="path148"
   inkscape:connector-curvature="0"
   style="fill:#ffffff;stroke:none" />
         <path
   d="m 11954,14457 -8,5 -2,8 2,8 8,5 z"
   id="path150"
   inkscape:connector-curvature="0"
   style="fill:#000000;stroke:none" />
         <path
   d="m 12424,14447 v -13 l -470,23 v 26 l 470,-23 z"
   id="path152"
   inkscape:connector-curvature="0"
   style="fill:#000000;stroke:none" />
         <path
   d="m 12424,14460 8,-5 5,-8 -5,-8 -8,-5 z"
   id="path154"
   inkscape:connector-curvature="0"
   style="fill:#000000;stroke:none" />
         <path
   d="m 9560,14358 -8,3 -3,7 3,8 8,2 z"
   id="path156"
   inkscape:connector-curvature="0"
   style="fill:#000000;stroke:none" />
         <path
   d="m 11781,14236 v -10 l -2221,132 v 20 l 2221,-132 z"
   id="path158"
   inkscape:connector-curvature="0"
   style="fill:#000000;stroke:none" />
         <path
   d="m 11781,14246 8,-2 2,-8 -2,-8 -8,-2 z"
   id="path160"
   inkscape:connector-curvature="0"
   style="fill:#000000;stroke:none" />
         <path
   d="m 9824,14183 8,-3 2,-7 -2,-8 -8,-3 z"
   id="path162"
   inkscape:connector-curvature="0"
   style="fill:#000000;stroke:none" />
         <path
   d="m 9608,14193 10,8 206,-18 v -21 l -206,18 10,8 -10,-8 -8,3 -2,7 2,8 8,3 z"
   id="path164"
   inkscape:connector-curvature="0"
   style="fill:#000000;stroke:none" />
         <path
   d="m 9519,13868 -3,-6 92,331 20,-5 -91,-331 -3,-5 3,5 -5,-7 h -8 l -5,5 -3,7 z"
   id="path166"
   inkscape:connector-curvature="0"
   style="fill:#000000;stroke:none" />
         <path
   d="m 9427,13751 -7,17 99,100 15,-16 -99,-99 -8,18 8,-18 -8,-2 -7,2 -3,8 3,7 z"
   id="path168"
   inkscape:connector-curvature="0"
   style="fill:#000000;stroke:none" />
         <path
   d="m 11458,13646 -7,-2 -2024,107 v 20 l 2024,-107 -8,-2 8,2 7,-2 3,-8 -3,-8 -7,-2 z"
   id="path170"
   inkscape:connector-curvature="0"
   style="fill:#000000;stroke:none" />
         <path
   d="m 11550,13735 -3,-7 -89,-82 -15,16 89,81 -3,-8 3,8 8,3 7,-3 3,-8 -3,-7 z"
   id="path172"
   inkscape:connector-curvature="0"
   style="fill:#000000;stroke:none" />
         <path
   d="m 11606,14076 10,-10 -66,-331 h -21 l 66,331 11,-10 -11,10 3,7 8,3 7,-3 3,-7 z"
   id="path174"
   inkscape:connector-curvature="0"
   style="fill:#000000;stroke:none" />
         <path
   d="m 11451,14084 v 10 l 155,-18 v -20 l -155,17 z"
   id="path176"
   inkscape:connector-curvature="0"
   style="fill:#000000;stroke:none" />
         <path
   d="m 11451,14073 -8,3 -3,8 3,7 8,3 z"
   id="path178"
   inkscape:connector-curvature="0"
   style="fill:#000000;stroke:none" />
         <path
   d="m 11517,15009 -3,-325 -5,-247 -10,-186 -18,-137 -25,-102 -38,-83 -49,-79 -61,-89 -1631,91 61,89 48,79 35,84 26,102 18,137 10,183 5,246 2,326 z"
   id="path180"
   inkscape:connector-curvature="0"
   style="fill:#ffffff;stroke:none" />
         <path
   d="m 11308,13773 -10,-5 61,87 48,79 36,81 25,99 18,137 10,186 5,247 3,325 h 25 l -2,-325 -5,-247 -10,-186 -18,-137 -26,-104 -40,-87 -49,-78 -61,-92 -10,-5 10,5 -7,-5 -10,3 -5,7 2,10 z"
   id="path182"
   inkscape:connector-curvature="0"
   style="fill:#000000;stroke:none" />
         <path
   d="m 9687,13845 -10,20 1631,-92 v -25 l -1631,92 -11,20 11,-20 -8,5 -3,7 3,8 8,5 z"
   id="path184"
   inkscape:connector-curvature="0"
   style="fill:#000000;stroke:none" />
         <path
   d="m 9882,15085 13,13 -2,-326 -6,-246 -10,-183 -17,-137 -26,-105 -38,-86 -48,-79 -61,-91 -21,15 61,86 49,79 33,81 25,100 18,137 10,183 5,246 3,326 12,13 -12,-13 5,7 7,3 8,-3 5,-7 z"
   id="path186"
   inkscape:connector-curvature="0"
   style="fill:#000000;stroke:none" />
         <path
   d="m 11504,15009 13,-13 -1635,89 v 26 l 1635,-89 12,-13 -12,13 7,-6 5,-7 -5,-8 -7,-5 z"
   id="path188"
   inkscape:connector-curvature="0"
   style="fill:#000000;stroke:none" />
         <path
   d="m 11705,13728 472,-26 z"
   id="path190"
   inkscape:connector-curvature="0"
   style="fill:#ffffff;stroke:none" />
         <path
   d="m 11705,13715 -8,5 -2,8 2,7 8,5 z"
   id="path192"
   inkscape:connector-curvature="0"
   style="fill:#000000;stroke:none" />
         <path
   d="m 12177,13702 v -12 l -472,25 v 25 l 472,-25 z"
   id="path194"
   inkscape:connector-curvature="0"
   style="fill:#000000;stroke:none" />
         <path
   d="m 12177,13715 8,-5 5,-8 -5,-7 -8,-5 z"
   id="path196"
   inkscape:connector-curvature="0"
   style="fill:#000000;stroke:none" />
         <path
   d="m 8904,13893 470,-25 z"
   id="path198"
   inkscape:connector-curvature="0"
   style="fill:#ffffff;stroke:none" />
         <path
   d="m 8904,13880 -8,5 -2,8 2,8 8,5 z"
   id="path200"
   inkscape:connector-curvature="0"
   style="fill:#000000;stroke:none" />
         <path
   d="m 9374,13868 v -13 l -470,25 v 26 l 470,-26 z"
   id="path202"
   inkscape:connector-curvature="0"
   style="fill:#000000;stroke:none" />
         <path
   d="m 9374,13880 8,-5 5,-7 -5,-8 -8,-5 z"
   id="path204"
   inkscape:connector-curvature="0"
   style="fill:#000000;stroke:none" />
         <path
   d="m 12157,13860 -310,15 186,509 310,-16 z"
   id="path206"
   inkscape:connector-curvature="0"
   style="fill:#000000;stroke:none" />
         <path
   d="m 12094,14264 -11,-28 -58,3 13,28 z"
   id="path208"
   inkscape:connector-curvature="0"
   style="fill:#ffffff;stroke:none" />
         <path
   d="m 12177,14259 -10,-28 -58,3 10,28 z"
   id="path210"
   inkscape:connector-curvature="0"
   style="fill:#ffffff;stroke:none" />
         <path
   d="m 12259,14256 -10,-28 -59,3 13,28 z"
   id="path212"
   inkscape:connector-curvature="0"
   style="fill:#ffffff;stroke:none" />
         <path
   d="m 12068,14183 -10,-31 -58,3 10,30 z"
   id="path214"
   inkscape:connector-curvature="0"
   style="fill:#ffffff;stroke:none" />
         <path
   d="m 12152,14178 -13,-28 -56,2 11,28 z"
   id="path216"
   inkscape:connector-curvature="0"
   style="fill:#ffffff;stroke:none" />
         <path
   d="m 12233,14173 -10,-28 -58,2 10,28 z"
   id="path218"
   inkscape:connector-curvature="0"
   style="fill:#ffffff;stroke:none" />
         <path
   d="m 12043,14099 -10,-28 -59,2 10,28 z"
   id="path220"
   inkscape:connector-curvature="0"
   style="fill:#ffffff;stroke:none" />
         <path
   d="m 12124,14094 -10,-28 -59,2 13,28 z"
   id="path222"
   inkscape:connector-curvature="0"
   style="fill:#ffffff;stroke:none" />
         <path
   d="m 12208,14091 -10,-28 -59,3 11,28 z"
   id="path224"
   inkscape:connector-curvature="0"
   style="fill:#ffffff;stroke:none" />
         <path
   d="m 8782,14244 170,216 v 1311 l 2819,-147 -206,-262 v -84 h 84 l 206,249 v -1113 l 99,140 h 66 v 1141 l 343,440 v 117 h -91 l -410,-503 -2905,183 290,455 v 114 h -99 l -572,-958 v -66 h 91 l 115,172 z"
   id="path226"
   inkscape:connector-curvature="0"
   style="fill:#000000;stroke:none" />
        </g>
       </g>
      </g>
     </g>
    </g>
   </g>
  </g>
 </g>
</svg>