<?xml version="1.0" encoding="UTF-8" standalone="no"?>
<svg
   xmlns:ooo="http://xml.openoffice.org/svg/export"
   xmlns:dc="http://purl.org/dc/elements/1.1/"
   xmlns:cc="http://creativecommons.org/ns#"
   xmlns:rdf="http://www.w3.org/1999/02/22-rdf-syntax-ns#"
   xmlns:svg="http://www.w3.org/2000/svg"
   xmlns="http://www.w3.org/2000/svg"
   xmlns:sodipodi="http://sodipodi.sourceforge.net/DTD/sodipodi-0.dtd"
   xmlns:inkscape="http://www.inkscape.org/namespaces/inkscape"
   version="1.2"
   width="105.89mm"
   height="16.870001mm"
   viewBox="0 0 10589 1687.0001"
   preserveAspectRatio="xMidYMid"
   xml:space="preserve"
   id="svg123"
   sodipodi:docname="readbrdr.svg"
   style="fill-rule:evenodd;stroke-width:28.22200012;stroke-linejoin:round"
   inkscape:version="0.92.5 (2060ec1f9f, 2020-04-08)"><metadata
   id="metadata127"><rdf:RDF><cc:Work
       rdf:about=""><dc:format>image/svg+xml</dc:format><dc:type
         rdf:resource="http://purl.org/dc/dcmitype/StillImage" /></cc:Work></rdf:RDF></metadata><sodipodi:namedview
   pagecolor="#ffffff"
   bordercolor="#666666"
   borderopacity="1"
   objecttolerance="10"
   gridtolerance="10"
   guidetolerance="10"
   inkscape:pageopacity="0"
   inkscape:pageshadow="2"
   inkscape:window-width="664"
   inkscape:window-height="487"
   id="namedview125"
   showgrid="false"
   inkscape:zoom="0.2102413"
   inkscape:cx="200.12598"
   inkscape:cy="31.861416"
   inkscape:window-x="0"
   inkscape:window-y="0"
   inkscape:window-maximized="0"
   inkscape:current-layer="svg123" />
 <defs
   class="ClipPathGroup"
   id="defs8">
  <clipPath
   id="presentation_clip_path"
   clipPathUnits="userSpaceOnUse">
   <rect
   x="0"
   y="0"
   width="21000"
   height="29700"
   id="rect2" />
  </clipPath>
  <clipPath
   id="presentation_clip_path_shrink"
   clipPathUnits="userSpaceOnUse">
   <rect
   x="21"
   y="29"
   width="20958"
   height="29641"
   id="rect5" />
  </clipPath>
 </defs>
 <defs
   class="TextShapeIndex"
   id="defs12">
  <g
   ooo:slide="id1"
   ooo:id-list="id3"
   id="g10" />
 </defs>
 <defs
   class="EmbeddedBulletChars"
   id="defs44">
  <g
   id="bullet-char-template-57356"
   transform="matrix(4.8828125e-4,0,0,-4.8828125e-4,0,0)">
   <path
   d="M 580,1141 1163,571 580,0 -4,571 Z"
   id="path14"
   inkscape:connector-curvature="0" />
  </g>
  <g
   id="bullet-char-template-57354"
   transform="matrix(4.8828125e-4,0,0,-4.8828125e-4,0,0)">
   <path
   d="M 8,1128 H 1137 V 0 H 8 Z"
   id="path17"
   inkscape:connector-curvature="0" />
  </g>
  <g
   id="bullet-char-template-10146"
   transform="matrix(4.8828125e-4,0,0,-4.8828125e-4,0,0)">
   <path
   d="M 174,0 602,739 174,1481 1456,739 Z M 1358,739 309,1346 659,739 Z"
   id="path20"
   inkscape:connector-curvature="0" />
  </g>
  <g
   id="bullet-char-template-10132"
   transform="matrix(4.8828125e-4,0,0,-4.8828125e-4,0,0)">
   <path
   d="M 2015,739 1276,0 H 717 l 543,543 H 174 v 393 h 1086 l -543,545 h 557 z"
   id="path23"
   inkscape:connector-curvature="0" />
  </g>
  <g
   id="bullet-char-template-10007"
   transform="matrix(4.8828125e-4,0,0,-4.8828125e-4,0,0)">
   <path
   d="m 0,-2 c -7,16 -16,29 -25,39 l 381,530 c -94,256 -141,385 -141,387 0,25 13,38 40,38 9,0 21,-2 34,-5 21,4 42,12 65,25 l 27,-13 111,-251 280,301 64,-25 24,25 c 21,-10 41,-24 62,-43 C 886,937 835,863 770,784 769,783 710,716 594,584 L 774,223 c 0,-27 -21,-55 -63,-84 l 16,-20 C 717,90 699,76 672,76 641,76 570,178 457,381 L 164,-76 c -22,-34 -53,-51 -92,-51 -42,0 -63,17 -64,51 -7,9 -10,24 -10,44 0,9 1,19 2,30 z"
   id="path26"
   inkscape:connector-curvature="0" />
  </g>
  <g
   id="bullet-char-template-10004"
   transform="matrix(4.8828125e-4,0,0,-4.8828125e-4,0,0)">
   <path
   d="M 285,-33 C 182,-33 111,30 74,156 52,228 41,333 41,471 c 0,78 14,145 41,201 34,71 87,106 158,106 53,0 88,-31 106,-94 l 23,-176 c 8,-64 28,-97 59,-98 l 735,706 c 11,11 33,17 66,17 42,0 63,-15 63,-46 V 965 c 0,-36 -10,-64 -30,-84 L 442,47 C 390,-6 338,-33 285,-33 Z"
   id="path29"
   inkscape:connector-curvature="0" />
  </g>
  <g
   id="bullet-char-template-9679"
   transform="matrix(4.8828125e-4,0,0,-4.8828125e-4,0,0)">
   <path
   d="M 813,0 C 632,0 489,54 383,161 276,268 223,411 223,592 c 0,181 53,324 160,431 106,107 249,161 430,161 179,0 323,-54 432,-161 108,-107 162,-251 162,-431 0,-180 -54,-324 -162,-431 C 1136,54 992,0 813,0 Z"
   id="path32"
   inkscape:connector-curvature="0" />
  </g>
  <g
   id="bullet-char-template-8226"
   transform="matrix(4.8828125e-4,0,0,-4.8828125e-4,0,0)">
   <path
   d="m 346,457 c -73,0 -137,26 -191,78 -54,51 -81,114 -81,188 0,73 27,136 81,188 54,52 118,78 191,78 73,0 134,-26 185,-79 51,-51 77,-114 77,-187 0,-75 -25,-137 -76,-188 -50,-52 -112,-78 -186,-78 z"
   id="path35"
   inkscape:connector-curvature="0" />
  </g>
  <g
   id="bullet-char-template-8211"
   transform="matrix(4.8828125e-4,0,0,-4.8828125e-4,0,0)">
   <path
   d="M -4,459 H 1135 V 606 H -4 Z"
   id="path38"
   inkscape:connector-curvature="0" />
  </g>
  <g
   id="bullet-char-template-61548"
   transform="matrix(4.8828125e-4,0,0,-4.8828125e-4,0,0)">
   <path
   d="m 173,740 c 0,163 58,303 173,419 116,115 255,173 419,173 163,0 302,-58 418,-173 116,-116 174,-256 174,-419 0,-163 -58,-303 -174,-418 C 1067,206 928,148 765,148 601,148 462,206 346,322 231,437 173,577 173,740 Z"
   id="path41"
   inkscape:connector-curvature="0" />
  </g>
 </defs>
 <g
   id="g49"
   transform="translate(-5205,-14006)">
  <g
   id="id2"
   class="Master_Slide">
   <g
   id="bg-id2"
   class="Background" />
   <g
   id="bo-id2"
   class="BackgroundObjects" />
  </g>
 </g>
 <g
   class="SlideGroup"
   id="g121"
   transform="translate(-5205,-14006)">
  <g
   id="g119">
   <g
   id="container-id1">
    <g
   id="id1"
   class="Slide"
   clip-path="url(#presentation_clip_path)">
     <g
   class="Page"
   id="g115">
      <g
   class="Graphic"
   id="g113">
       <g
   id="id3">
        <rect
   class="BoundingBox"
   x="5205"
   y="14006"
   width="10589"
   height="1687"
   id="rect51"
   style="fill:none;stroke:none" />
        <defs
   id="defs56">
         <clipPath
   id="clip_path_1"
   clipPathUnits="userSpaceOnUse">
          <path
   d="m 5205,14006 h 10588 v 1686 H 5205 Z"
   id="path53"
   inkscape:connector-curvature="0" />
         </clipPath>
        </defs>
        <g
   clip-path="url(#clip_path_1)"
   id="g110">
         <path
   d="M 15794,15693 V 14304 H 5205 v 1389 z"
   id="path58"
   inkscape:connector-curvature="0"
   style="fill:#000000;stroke:none" />
         <path
   d="M 15725,15622 V 14377 H 5279 v 1245 z"
   id="path60"
   inkscape:connector-curvature="0"
   style="fill:#5bed7f;stroke:none" />
         <path
   d="m 14633,15243 -15,-13 -16,-20 -17,-28 -18,-31 -18,-28 -15,-31 -10,-22 -8,-16 -8,-17 -12,-26 -18,-36 -18,-38 -20,-35 -20,-33 -21,-26 -15,-15 -15,-5 -18,-3 -20,3 h -16 l -17,-3 -13,-5 -13,-13 -5,-22 -7,-46 -3,-38 v -39 l -5,-38 -10,-40 -13,-49 -10,-53 7,-56 18,-49 21,-33 17,-17 16,-3 15,10 7,21 3,25 -3,25 -2,23 2,33 8,36 13,33 7,10 13,16 15,20 18,18 15,23 18,20 13,20 8,18 7,15 8,13 10,13 10,13 10,15 13,13 10,15 13,18 25,30 43,48 59,64 63,66 61,69 56,56 38,43 21,21 10,12 13,26 10,30 7,36 3,38 -5,36 -15,33 -28,23 -39,10 -38,-5 -38,-16 -35,-25 -36,-31 -30,-35 -23,-36 z"
   id="path62"
   inkscape:connector-curvature="0"
   style="fill:#000000;stroke:none" />
         <path
   d="m 14420,15176 35,8 38,8 36,7 35,5 33,8 28,8 26,7 20,8 -13,-46 -5,-66 v -64 l 3,-43 2,-51 3,-81 -5,-82 -13,-50 -13,-16 -12,-18 -18,-17 -15,-21 -13,-20 -10,-23 -5,-25 5,-26 10,-23 13,-20 12,-18 13,-15 15,-18 13,-15 10,-18 10,-18 8,-33 10,-36 15,-38 31,-40 20,-18 15,-13 13,-8 10,-2 h 8 5 l 5,5 5,2 5,16 -2,20 -10,23 -11,23 -5,23 -7,35 -8,39 -2,28 2,30 5,48 5,54 v 43 l -2,31 2,30 3,33 5,38 10,39 18,66 25,84 31,91 30,89 26,79 17,59 11,28 2,13 3,20 v 23 l -5,23 -11,25 -17,20 -28,16 -38,10 h -16 l -25,2 h -36 -45 -51 -56 -61 -61 -64 -61 -58 -53 l -46,-2 h -41 -30 l -18,-3 -41,5 h -43 l -43,-2 -38,-5 -38,-5 -31,-8 -25,-5 -18,-3 h -20 l -31,3 -38,3 -40,5 -44,5 -35,2 -31,5 h -17 -26 -20 l -21,-2 -20,-8 -23,-10 -28,-15 -33,-23 -40,-28 -8,-5 -10,-8 -10,-10 -13,-10 -13,-10 -10,-11 -10,-7 -8,-8 -61,51 -5,-3 -17,-5 -21,-10 -20,-20 -18,25 -18,28 -20,28 -23,28 -23,28 -23,23 -22,18 -21,13 -23,2 -25,-5 -25,-10 -26,-15 -25,-18 -23,-18 -20,-20 -16,-16 -18,-17 -20,-23 -23,-31 -23,-30 -25,-31 -23,-30 -20,-26 -18,-18 -15,-15 -15,-13 -13,-10 -13,-13 -10,-10 -10,-12 -8,-16 -7,-18 -8,-10 -8,-10 -10,-7 -5,-8 -5,-13 -3,-23 3,-23 10,-20 8,-20 5,-31 2,-28 3,-18 5,-5 h 8 l 5,8 5,13 7,-8 8,2 8,16 2,20 8,-8 7,6 8,12 v 18 l -5,20 -8,26 -7,20 -3,8 8,-10 10,-10 5,-13 5,-8 5,-5 5,5 3,13 -3,18 -2,10 -5,10 -3,10 -2,3 17,7 18,11 13,10 13,10 10,10 10,10 5,13 3,13 10,10 12,13 13,12 15,13 13,13 15,13 13,12 15,13 18,13 20,10 26,10 25,8 23,10 23,10 15,10 8,13 7,-28 18,-38 18,-36 13,-20 -21,-18 -2,-20 7,-18 16,-10 10,-5 10,-8 10,-10 13,-10 10,-13 10,-13 10,-15 11,-15 v -21 l 7,-23 18,-23 25,-10 -10,-7 -20,-18 -26,-15 -17,-11 h -8 -10 -10 -13 l -13,3 -12,2 -11,3 -7,5 h -18 l -18,-8 -15,-15 3,-15 2,-8 -2,-7 -3,-8 -8,-5 -5,-5 -2,-5 v -8 l 7,-5 -10,-15 v -8 l 5,-7 8,-13 v -5 l -3,-5 -5,-3 -10,-8 -7,-10 v -10 l 2,-8 8,-2 7,-3 5,-7 8,-5 5,-8 8,-8 2,-7 v -8 l -5,-8 -5,-7 -2,-8 2,-7 3,-8 5,-13 7,-18 8,-22 8,-18 -8,-10 -8,-16 -5,-20 3,-20 10,-21 20,-18 33,-12 51,-5 -8,10 3,7 3,8 2,3 5,-8 10,-5 16,-5 20,-5 18,-3 h 20 l 15,3 13,5 10,7 13,5 15,3 18,3 h 15 13 l 13,-6 7,-5 -5,11 -10,10 -8,7 -5,3 h 21 l 17,2 18,8 10,13 13,13 18,7 h 15 l 13,-7 -5,12 -8,10 -15,11 -13,2 10,5 h 10 11 l 2,-2 -5,25 -5,20 -5,13 -8,10 15,-7 13,-13 8,-15 5,-13 10,23 3,23 -3,23 -10,18 2,15 -2,18 -13,15 -20,10 h 13 l 10,-2 h 7 3 l -8,25 -15,23 -23,10 -23,-5 10,8 8,7 5,3 3,2 -16,11 -15,5 h -13 -5 l 21,7 15,5 15,5 10,8 8,5 5,5 v 8 l -2,7 15,11 12,10 13,10 13,13 10,12 13,13 10,13 10,10 18,13 25,13 33,17 41,16 38,17 41,16 33,10 28,7 28,8 22,3 16,2 10,3 h 7 l 6,-3 h 7 l 8,-2 v -23 l 10,-8 18,-10 23,-8 28,-7 30,-8 33,-5 h 36 l 35,3 46,5 36,10 27,13 23,12 18,15 18,11 15,7 18,3 20,-3 h 21 l 17,-2 21,-3 h 15 l 13,-2 h 7 3 l 7,20 5,25 3,21 z"
   id="path64"
   inkscape:connector-curvature="0"
   style="fill:#000000;stroke:none" />
         <path
   d="m 12654,15098 38,28 262,-46 -104,-369 -293,142 z"
   id="path66"
   inkscape:connector-curvature="0"
   style="fill:#000000;stroke:none" />
         <path
   d="m 12667,15077 33,26 231,-41 -92,-326 -259,125 z"
   id="path68"
   inkscape:connector-curvature="0"
   style="fill:#ffffff;stroke:none" />
         <path
   d="m 12537,14813 117,285 229,-77 -110,-409 z"
   id="path70"
   inkscape:connector-curvature="0"
   style="fill:#000000;stroke:none" />
         <path
   d="m 15527,15525 -25,-5 -36,-5 -40,-5 -49,-5 -48,-3 -48,-2 -46,2 -38,3 -38,2 -43,-2 -49,-5 -50,-5 -49,-6 -43,-2 h -38 l -28,5 -30,8 -41,7 -51,5 -56,5 -56,3 -53,-3 -51,-5 -40,-7 -23,-5 -28,-5 -33,-3 -38,-3 -41,-2 -43,-3 -46,-2 h -48 l -46,-3 h -46 -40 -41 -36 -30 l -23,3 h -18 -15 -18 -23 -22 -26 l -28,-3 h -28 -30 l -31,-2 h -30 l -31,2 h -30 l -31,3 -30,2 -28,3 -28,5 -28,5 -28,5 -33,5 -30,5 -33,3 -36,5 -33,3 -33,5 -31,2 -30,3 h -31 l -25,2 h -25 -21 -17 l -13,-2 -15,-3 -21,-2 -25,-3 -31,-2 h -33 l -35,-3 -38,-3 h -38 l -41,-2 h -38 l -36,-3 h -35 l -31,-2 h -28 -23 -15 -30 l -31,-3 -30,-2 -31,-3 h -28 l -20,-2 -15,-3 h -5 l 106,-81 13,2 25,3 36,2 43,3 48,2 56,3 56,2 61,3 61,3 59,2 h 55 l 51,3 46,2 h 36 l 28,3 h 17 66 61 61 56 l 54,-3 h 50 l 49,-2 45,-3 41,-2 h 41 l 35,-3 33,-3 h 31 l 28,-2 h 25 20 31 l 46,2 63,3 79,3 86,2 94,3 99,5 102,2 102,3 h 99 l 91,2 87,-2 73,-3 59,-2 43,-5 25,-8 18,5 33,3 41,2 h 50 l 49,-2 48,-3 41,-2 28,-3 z"
   id="path72"
   inkscape:connector-curvature="0"
   style="fill:#000000;stroke:none" />
         <path
   d="m 8896,15624 v -12 -13 l -2,-13 v -15 -36 l 2,-33 5,-28 8,-28 8,-23 15,-20 15,-18 21,-13 2,-48 -46,-10 v -5 l -2,-13 -3,-18 3,-18 -36,-15 -20,-25 -10,-28 -3,-26 5,-35 13,-28 18,-26 12,-35 -17,-13 -16,-10 -15,-8 -15,-5 -15,-8 -18,-5 -18,-7 -20,-13 -28,-26 -3,-25 8,-23 13,-18 5,-7 5,-5 7,-8 11,-5 7,-8 13,-10 13,-10 15,-13 -8,-33 -12,-43 -13,-43 -10,-28 h 2 l 5,-3 8,-5 13,-3 30,-35 84,-10 23,-18 20,-18 18,-13 18,-10 15,-8 15,-7 18,-5 20,-8 21,-5 h 23 l 20,3 20,2 18,8 18,7 18,5 15,6 12,-31 41,15 31,-40 -44,7 -35,-5 -31,-13 -25,-23 -20,-22 -16,-26 -7,-20 -3,-16 8,3 10,3 h 13 10 l 13,-3 12,-3 16,-2 12,-5 -10,-3 -20,-7 -23,-10 -13,-13 31,2 33,-10 35,-18 36,-25 33,-28 30,-26 23,-22 15,-16 13,-10 10,-8 13,-5 13,-2 10,-3 h 13 l 10,3 12,2 -2,-2 -3,-8 -7,-5 -8,-5 26,-5 h 22 l 23,5 23,10 26,13 22,18 26,20 25,23 36,43 5,31 -10,20 -13,10 v 36 l -8,20 -7,13 -10,13 -3,15 3,15 7,13 8,10 5,10 -5,8 -13,3 h -13 -10 l -5,7 3,13 -3,13 -7,7 -11,5 h -15 l -15,-2 2,2 8,5 8,8 2,8 -2,5 -3,2 -7,3 -8,2 -8,11 -10,15 -15,10 -20,-5 -11,-5 -12,-8 -18,-5 -20,-5 -21,5 -15,15 -10,21 v 15 3 l -3,5 v 7 10 l 8,13 13,13 22,15 31,18 33,20 20,23 13,26 5,28 3,28 -3,25 -2,26 -3,20 8,13 20,30 20,38 13,39 -51,35 13,28 2,43 -7,44 -15,35 -11,10 -12,6 -16,2 h -17 l -18,-2 -18,-6 -15,-7 -15,-8 -11,38 -17,23 -26,16 -20,5 2,10 3,20 3,20 -8,11 h -13 -12 l -18,-3 -21,-13 v 3 l -2,8 -5,10 -8,10 5,5 16,18 17,18 23,20 15,28 16,46 15,56 23,56 z"
   id="path74"
   inkscape:connector-curvature="0"
   style="fill:#000000;stroke:none" />
         <path
   d="m 8802,14675 13,26 18,48 23,61 20,61 3,3 10,2 12,8 16,5 18,10 17,8 13,10 13,8 5,-13 7,-13 11,-15 15,-18 7,-15 13,-8 h 15 l 18,5 15,10 16,13 12,13 8,13 3,-6 5,-10 7,-12 13,-11 8,3 15,5 18,13 15,18 -10,-69 -16,-79 -20,-71 -18,-46 h -25 l -43,5 -54,8 -61,7 -58,8 -48,8 -36,5 z"
   id="path76"
   inkscape:connector-curvature="0"
   style="fill:#ffffff;stroke:none" />
         <path
   d="m 12039,15624 v -48 l -5,-53 -13,-49 -17,-41 -31,-43 -23,-30 -15,-18 -5,-8 v -18 l 2,-17 3,-16 v -5 l -13,-5 -10,-2 -8,-3 h -2 l -5,-23 -3,-38 8,-43 20,-36 15,3 16,5 17,2 16,5 18,3 15,2 15,3 13,-3 23,-5 20,-10 15,-13 8,-15 -8,-20 -15,-26 -18,-20 -8,-8 16,6 h 10 8 l 7,-3 8,-10 2,-26 -7,-35 -26,-38 -5,-11 -7,-15 -8,-15 -10,-21 -15,-15 -18,-10 -23,-2 -31,7 3,-13 5,-20 10,-23 10,-28 13,-25 15,-26 16,-23 15,-17 -28,-6 -36,-10 -43,-15 -41,-15 -38,-15 -33,-13 -23,-10 -7,-3 -13,23 -15,28 -10,25 -5,11 -11,-13 -12,-13 -10,-13 -11,-15 -12,-10 -13,-8 -15,-5 -18,3 -20,5 -21,2 -23,3 -22,3 -21,2 -17,3 h -11 -5 l -2,-23 -3,-21 -2,-12 v -5 l -36,17 -5,-25 -5,-23 -3,-18 3,-13 13,-10 10,-15 10,-13 13,-2 7,7 8,13 8,15 7,18 8,18 12,15 16,10 17,3 h 21 18 l 17,3 16,2 12,3 13,5 10,7 8,5 18,8 h 25 l 30,-8 28,-15 23,-25 13,-33 -3,-39 -22,-48 -3,20 -8,21 -15,15 -20,-2 -10,-11 -10,-15 -13,-18 -15,-18 -18,-17 -23,-16 -25,-7 -33,-3 12,-7 3,-21 -3,-23 -12,-17 -3,10 -8,10 -7,5 -10,3 -13,-6 -13,-12 -10,-21 -3,-25 v -15 l -5,-21 -7,-20 -13,-20 -18,-16 -18,-15 -22,-5 h -26 l -10,-18 -18,-10 -25,3 -20,17 -8,-33 -18,-28 -25,-18 -31,-12 -33,-5 -30,5 -26,15 -20,25 h -10 -18 l -23,3 -25,8 -23,12 -20,16 -16,22 -7,31 h 10 l 10,3 5,5 3,2 -13,3 -15,10 -16,13 -12,15 -8,20 v 26 l 13,25 25,31 3,-18 5,-18 10,-13 15,3 16,5 h 12 10 l 3,-3 -8,18 -5,23 -2,21 5,15 7,10 3,13 -3,12 -5,13 -12,15 -8,11 -5,10 8,12 7,6 h 8 l 7,2 v 10 l -2,10 v 8 l 5,8 18,5 20,2 h 8 l 5,-2 v -3 l -5,13 -5,8 -8,7 -10,3 -5,5 v 5 l 5,8 7,5 6,2 2,5 3,8 -3,10 5,15 10,13 18,8 20,-5 13,-5 15,-3 h 18 l 18,3 18,7 20,8 18,10 18,15 -13,13 -18,10 -15,8 -8,2 26,26 -13,7 -15,13 -16,13 -17,13 -18,15 -15,18 -11,15 -7,15 -3,36 -2,63 2,67 5,40 -7,-2 h -10 l -13,2 -8,5 -5,6 -7,2 -3,13 3,20 -13,-18 -20,-23 -18,-20 -13,-15 -8,-8 -10,-18 -12,-23 -16,-25 -12,-25 -13,-26 -8,-18 -5,-10 3,-18 2,-23 3,-25 -3,-15 -2,-16 v -22 l 5,-26 10,-18 3,-7 -3,-5 -8,-6 -10,3 -10,8 -5,5 -5,10 -3,10 -2,15 v 16 l -5,12 -8,5 -13,-5 -10,-12 -10,-13 -2,-5 -11,-21 -12,-30 -13,-31 -5,-22 -8,-8 -10,2 -7,8 -3,18 5,23 5,25 8,21 7,15 -7,-5 -13,-10 -15,-8 -13,-13 -15,-10 -13,-10 -10,-8 -5,-7 -8,-8 -10,2 -5,8 v 15 l -10,-2 -8,2 -2,11 5,15 7,7 8,11 10,10 13,10 10,10 10,8 10,7 8,6 h -10 l -13,-3 h -13 l -12,-3 -15,-2 h -13 l -8,-3 h -7 l -8,3 -5,5 v 8 l 7,5 8,2 13,5 15,3 15,2 16,3 12,3 10,2 h 3 l 13,26 10,25 13,20 20,16 23,10 17,5 8,2 8,5 10,23 18,39 20,38 13,25 12,31 18,51 15,53 11,38 5,15 12,18 18,23 23,21 23,17 25,16 23,7 23,-2 20,-13 16,-23 7,-18 3,-7 7,7 11,10 12,6 13,7 13,3 h 12 l 13,-3 10,-7 21,-26 17,-25 10,-23 6,-8 7,23 15,25 18,23 18,13 10,5 13,3 13,5 12,7 16,6 10,10 10,7 5,13 5,43 -23,21 -23,23 -18,25 -7,25 -3,23 -5,36 -10,46 -15,58 z"
   id="path78"
   inkscape:connector-curvature="0"
   style="fill:#000000;stroke:none" />
         <path
   d="m 11694,14981 17,2 23,3 h 26 25 25 21 l 18,-3 h 10 l 5,-33 7,-43 8,-44 10,-27 -20,-11 -31,-7 -38,-10 -40,-8 -46,-8 -43,-5 h -43 l -41,3 -3,35 v 49 l 3,43 v 20 l 13,-2 -6,-3 -2,-5 v -5 l 8,-3 17,3 16,8 15,12 10,13 10,13 13,7 7,3 z"
   id="path80"
   inkscape:connector-curvature="0"
   style="fill:#ffffff;stroke:none" />
         <path
   d="m 11709,15054 15,3 20,5 21,8 23,5 22,7 18,8 15,8 11,5 -3,30 v 51 46 20 l -33,-2 -41,-3 -40,-2 h -43 l -41,-3 h -31 -22 -8 l -5,-48 -5,-59 -3,-46 v -20 l 15,3 21,-3 20,-2 15,-8 16,-5 h 20 15 z"
   id="path82"
   inkscape:connector-curvature="0"
   style="fill:#ffffff;stroke:none" />
         <path
   d="m 11694,14981 2,-6 8,-5 7,3 3,10 -3,23 -5,31 -2,30 -3,18 -5,5 -5,2 -5,-2 -3,-10 3,-23 5,-33 3,-31 z"
   id="path84"
   inkscape:connector-curvature="0"
   style="fill:#000000;stroke:none" />
         <path
   d="m 11709,14978 v 20 33 34 22 l 2,8 8,3 5,-3 3,-8 v -22 -34 -33 -17 l -3,-8 -5,-3 h -5 z"
   id="path86"
   inkscape:connector-curvature="0"
   style="fill:#000000;stroke:none" />
         <path
   d="m 10019,15624 5,-48 11,-43 17,-41 18,-36 18,-35 15,-33 13,-31 2,-30 v -44 -61 l -2,-61 -10,-53 -18,18 -25,17 -34,18 -35,15 -36,16 -33,15 -25,10 -18,10 -15,8 -15,10 -18,10 -18,8 -18,3 h -17 l -16,-8 -12,-15 -16,-31 -2,-30 2,-26 10,-25 13,-23 15,-16 13,-15 13,-7 13,-11 17,-17 23,-21 23,-25 20,-23 21,-23 15,-15 10,-10 8,-11 12,-15 18,-23 18,-25 20,-26 18,-28 15,-25 13,-20 20,-31 16,-15 15,-5 23,2 h 12 l 11,-5 12,-5 13,-8 10,-7 13,-8 15,-10 15,-8 5,-5 8,5 8,8 h 7 l 3,-13 v -28 l -3,-28 -2,-23 -26,-17 -17,-34 -8,-33 8,-25 -28,-33 -5,-41 10,-38 25,-23 -8,-25 6,-31 10,-30 18,-23 12,-11 15,-5 16,-5 20,-2 h 18 l 15,2 15,3 13,2 8,3 h 2 l 5,-5 3,-3 7,-7 11,-5 20,-8 28,-8 25,-2 h 23 l 18,2 18,5 12,11 11,10 7,12 8,13 2,-2 3,-11 2,-10 v -10 l 21,36 2,43 -7,41 -16,23 v 10 l 3,20 v 26 l -3,12 -5,10 v 18 l 3,16 10,12 8,10 -3,8 -10,10 -10,3 -8,2 -2,11 v 10 10 l -3,8 -8,7 -7,5 -3,13 v 18 l -10,23 -18,12 h -28 -15 l -7,11 -6,15 -2,18 15,7 8,10 2,13 v 10 l 3,5 8,6 7,7 10,8 13,5 13,5 15,5 15,3 26,10 17,20 11,23 10,20 7,11 10,10 18,13 18,10 18,12 20,11 15,12 16,10 17,11 23,15 28,13 28,12 28,13 28,13 20,7 16,8 20,33 -3,59 -15,56 -23,30 -12,5 -13,5 -15,3 h -16 l -17,-3 h -16 l -17,-5 -16,-5 -17,-7 -23,-8 -23,-10 -28,-13 -28,-10 -25,-13 -26,-13 -20,-15 -15,36 -18,58 -13,61 -5,39 18,66 13,101 10,110 5,81 z"
   id="path88"
   inkscape:connector-curvature="0"
   style="fill:#000000;stroke:none" />
         <path
   d="m 9714,14662 23,49 28,63 33,74 31,87 28,94 25,99 18,104 10,107 28,8 31,13 33,12 35,16 38,15 38,18 38,18 39,17 35,21 36,18 33,17 30,18 26,18 22,15 16,13 12,13 11,-13 17,-18 23,-18 26,-20 28,-20 33,-23 33,-21 35,-23 36,-20 33,-20 33,-21 33,-17 28,-16 25,-12 21,-11 15,-5 5,-66 15,-94 26,-112 30,-122 38,-120 43,-107 46,-89 51,-56 -20,-2 h -26 l -28,2 -33,6 -35,5 -39,10 -40,13 -43,15 -46,18 -46,20 -46,25 -48,31 -48,33 -46,38 -46,41 -45,48 -44,-23 -45,-20 -54,-20 -53,-18 -58,-18 -56,-15 -59,-13 -58,-13 -56,-10 -51,-8 -48,-7 -46,-8 -38,-5 -30,-2 -23,-3 z"
   id="path90"
   inkscape:connector-curvature="0"
   style="fill:#000000;stroke:none" />
         <path
   d="m 9811,14726 20,41 26,56 25,63 28,74 25,82 21,84 18,91 7,92 23,7 28,11 28,10 30,12 33,16 34,15 33,15 33,16 30,15 31,18 27,15 26,15 23,13 18,15 15,10 10,11 25,-26 41,-30 53,-39 61,-35 59,-38 56,-31 45,-25 33,-13 6,-59 10,-81 20,-97 23,-107 30,-104 36,-94 38,-76 43,-49 -18,-2 -20,2 -23,3 -28,5 -30,7 -31,11 -35,12 -36,16 -38,17 -38,21 -41,25 -38,26 -40,30 -41,33 -41,38 -38,41 -35,-20 -44,-18 -43,-18 -48,-18 -48,-15 -51,-15 -51,-13 -48,-13 -49,-10 -45,-10 -43,-8 -36,-7 -33,-5 -28,-3 -20,-5 z"
   id="path92"
   inkscape:connector-curvature="0"
   style="fill:#ffffff;stroke:none" />
         <path
   d="m 9806,15001 -3,-20 -2,-21 v -18 l 2,-12 v -13 -15 l 3,-16 13,-12 12,-5 13,-3 13,-5 15,-5 15,-3 13,-2 10,-3 h 10 l 13,8 8,13 v 12 l -13,8 7,8 8,10 v 10 l -8,10 6,8 2,10 -2,13 -8,7 8,8 2,10 -2,10 -8,8 -13,8 -12,5 -13,5 -5,2 5,8 2,2 v 3 0 l -7,31 -5,38 -3,35 3,26 v 10 l -3,15 -5,18 -10,18 -10,15 -16,18 -17,13 -18,7 -18,5 -15,3 h -13 l -7,-3 -8,-5 -8,-7 -2,-11 -5,-10 -13,-33 -18,-41 -7,-40 15,-33 15,-16 15,-12 16,-13 12,-15 10,-10 11,-13 5,-13 2,-10 z"
   id="path94"
   inkscape:connector-curvature="0"
   style="fill:#000000;stroke:none" />
         <path
   d="m 11033,14662 -13,-25 -15,-13 -15,3 -10,18 -16,-5 h -20 l -20,2 -15,3 -11,5 -7,12 v 13 l 10,10 -18,5 -10,16 -3,15 11,13 -13,5 -10,13 v 15 l 15,15 -15,3 -8,12 v 13 l 10,10 16,5 7,3 5,2 h 3 l -8,11 -2,15 -3,20 v 15 l -18,34 -23,45 -17,49 -3,40 10,33 13,36 13,28 7,18 8,10 18,8 20,-5 20,-21 10,-12 11,-16 12,-12 13,-13 13,-15 10,-16 5,-17 3,-21 -6,-28 -10,-41 -12,-38 -8,-28 3,-20 10,-26 15,-25 13,-23 12,-25 16,-33 7,-44 z"
   id="path96"
   inkscape:connector-curvature="0"
   style="fill:#000000;stroke:none" />
         <path
   d="m 6315,15243 15,-13 18,-20 18,-28 18,-31 18,-28 15,-31 10,-22 8,-16 7,-17 13,-26 18,-36 18,-38 20,-35 20,-33 20,-26 16,-15 15,-5 18,-3 18,3 h 17 l 16,-3 15,-5 10,-13 8,-22 7,-46 3,-38 2,-39 3,-38 10,-40 13,-49 10,-53 -8,-56 -20,-49 -18,-33 -18,-17 -15,-3 -15,10 -8,21 -2,25 2,25 3,23 -5,33 -8,36 -10,33 -8,10 -12,16 -16,20 -17,18 -18,23 -15,20 -16,20 -7,18 -8,15 -8,13 -7,13 -10,13 -11,15 -12,13 -13,15 -13,18 -25,30 -43,48 -56,64 -64,66 -61,69 -55,56 -39,43 -20,21 -10,12 -13,26 -10,30 -8,36 -2,38 5,36 15,33 28,23 36,10 38,-5 38,-16 38,-25 33,-31 31,-35 22,-36 z"
   id="path98"
   inkscape:connector-curvature="0"
   style="fill:#000000;stroke:none" />
         <path
   d="m 6529,15176 -36,8 -38,8 -36,7 -35,5 -31,8 -30,8 -26,7 -20,8 13,-46 5,-66 2,-64 -2,-43 -3,-51 -2,-81 2,-82 13,-50 13,-16 15,-18 15,-17 18,-21 13,-20 10,-23 2,-25 -5,-26 -10,-23 -10,-20 -15,-18 -13,-15 -13,-18 -12,-15 -10,-18 -11,-18 -7,-33 -8,-36 -18,-38 -30,-40 -20,-18 -16,-13 -12,-8 -11,-2 h -7 -5 l -5,5 -5,2 -8,16 5,20 8,23 10,23 7,23 8,35 5,39 3,28 -3,30 -5,48 -3,54 v 43 l 3,31 -3,30 -2,33 -5,38 -10,39 -21,66 -25,84 -28,91 -30,89 -26,79 -18,59 -10,28 -2,13 -3,20 v 23 l 5,23 10,25 18,20 28,16 38,10 h 15 l 26,2 h 35 46 51 56 61 61 63 61 59 53 l 46,-2 h 40 31 l 18,-3 40,5 h 44 l 40,-2 41,-5 35,-5 33,-8 26,-5 18,-3 h 20 l 30,3 36,3 43,5 41,5 38,2 28,5 h 18 25 23 l 20,-2 21,-8 22,-10 28,-15 33,-23 41,-28 8,-5 10,-8 10,-10 13,-10 10,-10 13,-11 10,-7 7,-8 61,51 8,-3 15,-5 21,-10 20,-20 15,25 20,28 21,28 20,28 23,28 25,23 21,18 23,13 22,2 26,-5 25,-10 26,-15 25,-18 23,-18 20,-20 15,-16 16,-17 20,-23 23,-31 25,-30 23,-31 26,-30 20,-26 18,-18 15,-15 13,-13 15,-10 10,-13 13,-10 10,-12 8,-16 7,-18 5,-10 10,-10 11,-7 5,-8 5,-13 v -23 -23 l -10,-20 -11,-20 -5,-31 -2,-28 -3,-18 -5,-5 h -5 l -8,8 -5,13 -7,-8 -8,2 -5,16 -3,20 -7,-8 -10,6 -5,12 v 18 l 5,20 7,26 8,20 2,8 -10,-10 -7,-10 -8,-13 -2,-8 -6,-5 -5,5 -5,13 3,18 5,10 5,10 3,10 2,3 -18,7 -17,11 -13,10 -13,10 -10,10 -8,10 -7,13 -3,13 -10,10 -13,13 -12,12 -16,13 -12,13 -16,13 -15,12 -13,13 -17,13 -21,10 -25,10 -25,8 -23,10 -23,10 -15,10 -8,13 -8,-28 -17,-38 -18,-36 -13,-20 18,-18 5,-20 -10,-18 -13,-10 -10,-5 -10,-8 -10,-10 -13,-10 -10,-13 -13,-13 -10,-15 -8,-15 v -21 l -10,-23 -15,-23 -26,-10 11,-7 20,-18 23,-15 18,-11 h 7 10 13 13 l 10,3 13,2 10,3 7,5 h 18 l 20,-8 13,-15 v -15 l -2,-8 2,-7 3,-8 7,-5 5,-5 3,-5 -3,-8 -7,-5 10,-15 3,-8 -6,-7 -7,-13 -3,-5 3,-5 7,-3 8,-8 8,-10 2,-10 -2,-8 -8,-2 -8,-3 -5,-7 -7,-5 -8,-8 -5,-8 -3,-7 v -8 l 6,-8 5,-7 2,-8 -2,-7 -5,-8 -6,-13 -5,-18 -7,-22 -8,-18 8,-10 7,-16 5,-20 -2,-20 -10,-21 -21,-18 -33,-12 -50,-5 7,10 -2,7 -3,8 -2,3 -5,-8 -11,-5 -15,-5 -20,-5 -21,-3 h -17 l -18,3 -10,5 -10,7 -13,5 -18,3 -15,3 h -15 -16 l -10,-6 -7,-5 5,11 10,10 7,7 6,3 h -21 l -18,2 -17,8 -11,13 -12,13 -18,7 h -15 l -13,-7 3,12 10,10 12,11 16,2 -10,5 h -11 -10 l -2,-2 5,25 2,20 8,13 8,10 -16,-7 -12,-13 -11,-15 -5,-13 -7,23 -3,23 3,23 7,18 -2,15 5,18 10,15 20,10 h -10 l -10,-2 h -10 -3 l 8,25 18,23 23,10 22,-5 -10,8 -7,7 -5,3 -3,2 15,11 16,5 h 10 5 l -21,7 -15,5 -15,5 -10,8 -8,5 -2,5 v 8 l 2,7 -15,11 -13,10 -12,10 -13,13 -10,12 -13,13 -10,13 -10,10 -18,13 -26,13 -33,17 -40,16 -38,17 -41,16 -33,10 -28,7 -28,8 -23,3 -15,2 -10,3 h -8 l -5,-3 h -7 l -8,-2 v -23 l -10,-8 -18,-10 -23,-8 -28,-7 -30,-8 -33,-5 h -36 l -38,3 -43,5 -36,10 -28,13 -23,12 -17,15 -18,11 -15,7 -18,3 -21,-3 h -20 l -18,-2 -17,-3 h -18 l -13,-2 h -8 -2 l -8,20 -7,25 -3,21 z"
   id="path100"
   inkscape:connector-curvature="0"
   style="fill:#000000;stroke:none" />
         <path
   d="m 8294,15098 -35,28 -262,-46 102,-369 294,142 z"
   id="path102"
   inkscape:connector-curvature="0"
   style="fill:#000000;stroke:none" />
         <path
   d="m 8284,15077 -33,26 -234,-41 92,-326 262,125 z"
   id="path104"
   inkscape:connector-curvature="0"
   style="fill:#ffffff;stroke:none" />
         <path
   d="m 8411,14813 -117,285 -228,-77 111,-409 z"
   id="path106"
   inkscape:connector-curvature="0"
   style="fill:#000000;stroke:none" />
         <path
   d="m 5423,15525 26,-5 35,-5 41,-5 48,-5 49,-3 48,-2 43,2 38,3 38,2 44,-2 48,-5 51,-5 48,-6 46,-2 h 38 l 28,5 30,8 41,7 51,5 55,5 56,3 54,-3 51,-5 40,-7 21,-5 27,-5 33,-3 39,-3 43,-2 43,-3 46,-2 h 45 l 49,-3 h 43 43 41 35 31 l 23,3 h 17 16 17 23 23 26 l 28,-3 h 27 31 l 30,-2 h 31 l 30,2 h 31 l 30,3 31,2 28,3 28,5 28,5 28,5 33,5 30,5 33,3 33,5 33,3 33,5 33,2 31,3 h 28 l 25,2 h 26 20 18 l 12,-2 16,-3 20,-2 25,-3 31,-2 h 33 l 38,-3 38,-3 h 38 l 38,-2 h 41 l 36,-3 h 35 l 31,-2 h 28 22 16 30 l 31,-3 30,-2 31,-3 h 28 l 20,-2 15,-3 h 5 l -107,-81 -12,2 -26,3 -35,2 -43,3 -49,2 -56,3 -58,2 -58,3 -61,3 -59,2 h -56 l -51,3 -45,2 h -38 l -26,3 h -18 -66 -61 -61 -55 l -54,-3 h -51 l -48,-2 -46,-3 -40,-2 h -41 l -35,-3 -34,-3 h -30 l -28,-2 h -25 -21 -30 l -48,2 -64,3 -76,3 -87,2 -94,3 -101,5 -102,2 -101,3 h -97 l -94,2 -84,-2 -73,-3 -61,-2 -44,-5 -25,-8 -18,5 -30,3 -43,2 h -49 l -51,-2 -45,-3 -41,-2 -28,-3 z"
   id="path108"
   inkscape:connector-curvature="0"
   style="fill:#000000;stroke:none" />
        </g>
       </g>
      </g>
     </g>
    </g>
   </g>
  </g>
 </g>
</svg>