<?xml version="1.0" encoding="UTF-8" standalone="no"?>
<svg
   xmlns:ooo="http://xml.openoffice.org/svg/export"
   xmlns:dc="http://purl.org/dc/elements/1.1/"
   xmlns:cc="http://creativecommons.org/ns#"
   xmlns:rdf="http://www.w3.org/1999/02/22-rdf-syntax-ns#"
   xmlns:svg="http://www.w3.org/2000/svg"
   xmlns="http://www.w3.org/2000/svg"
   xmlns:sodipodi="http://sodipodi.sourceforge.net/DTD/sodipodi-0.dtd"
   xmlns:inkscape="http://www.inkscape.org/namespaces/inkscape"
   version="1.2"
   width="25.6mm"
   height="24.459999mm"
   viewBox="0 0 2560 2445.9999"
   preserveAspectRatio="xMidYMid"
   xml:space="preserve"
   id="svg187"
   sodipodi:docname="recycle4.svg"
   style="fill-rule:evenodd;stroke-width:28.22200012;stroke-linejoin:round"
   inkscape:version="0.92.5 (2060ec1f9f, 2020-04-08)"><metadata
   id="metadata191"><rdf:RDF><cc:Work
       rdf:about=""><dc:format>image/svg+xml</dc:format><dc:type
         rdf:resource="http://purl.org/dc/dcmitype/StillImage" /></cc:Work></rdf:RDF></metadata><sodipodi:namedview
   pagecolor="#ffffff"
   bordercolor="#666666"
   borderopacity="1"
   objecttolerance="10"
   gridtolerance="10"
   guidetolerance="10"
   inkscape:pageopacity="0"
   inkscape:pageshadow="2"
   inkscape:window-width="664"
   inkscape:window-height="487"
   id="namedview189"
   showgrid="false"
   inkscape:zoom="0.2102413"
   inkscape:cx="48.377954"
   inkscape:cy="46.22362"
   inkscape:window-x="0"
   inkscape:window-y="0"
   inkscape:window-maximized="0"
   inkscape:current-layer="svg187" />
 <defs
   class="ClipPathGroup"
   id="defs8">
  <clipPath
   id="presentation_clip_path"
   clipPathUnits="userSpaceOnUse">
   <rect
   x="0"
   y="0"
   width="21000"
   height="29700"
   id="rect2" />
  </clipPath>
  <clipPath
   id="presentation_clip_path_shrink"
   clipPathUnits="userSpaceOnUse">
   <rect
   x="21"
   y="29"
   width="20958"
   height="29641"
   id="rect5" />
  </clipPath>
 </defs>
 <defs
   class="TextShapeIndex"
   id="defs12">
  <g
   ooo:slide="id1"
   ooo:id-list="id3"
   id="g10" />
 </defs>
 <defs
   class="EmbeddedBulletChars"
   id="defs44">
  <g
   id="bullet-char-template-57356"
   transform="matrix(4.8828125e-4,0,0,-4.8828125e-4,0,0)">
   <path
   d="M 580,1141 1163,571 580,0 -4,571 Z"
   id="path14"
   inkscape:connector-curvature="0" />
  </g>
  <g
   id="bullet-char-template-57354"
   transform="matrix(4.8828125e-4,0,0,-4.8828125e-4,0,0)">
   <path
   d="M 8,1128 H 1137 V 0 H 8 Z"
   id="path17"
   inkscape:connector-curvature="0" />
  </g>
  <g
   id="bullet-char-template-10146"
   transform="matrix(4.8828125e-4,0,0,-4.8828125e-4,0,0)">
   <path
   d="M 174,0 602,739 174,1481 1456,739 Z M 1358,739 309,1346 659,739 Z"
   id="path20"
   inkscape:connector-curvature="0" />
  </g>
  <g
   id="bullet-char-template-10132"
   transform="matrix(4.8828125e-4,0,0,-4.8828125e-4,0,0)">
   <path
   d="M 2015,739 1276,0 H 717 l 543,543 H 174 v 393 h 1086 l -543,545 h 557 z"
   id="path23"
   inkscape:connector-curvature="0" />
  </g>
  <g
   id="bullet-char-template-10007"
   transform="matrix(4.8828125e-4,0,0,-4.8828125e-4,0,0)">
   <path
   d="m 0,-2 c -7,16 -16,29 -25,39 l 381,530 c -94,256 -141,385 -141,387 0,25 13,38 40,38 9,0 21,-2 34,-5 21,4 42,12 65,25 l 27,-13 111,-251 280,301 64,-25 24,25 c 21,-10 41,-24 62,-43 C 886,937 835,863 770,784 769,783 710,716 594,584 L 774,223 c 0,-27 -21,-55 -63,-84 l 16,-20 C 717,90 699,76 672,76 641,76 570,178 457,381 L 164,-76 c -22,-34 -53,-51 -92,-51 -42,0 -63,17 -64,51 -7,9 -10,24 -10,44 0,9 1,19 2,30 z"
   id="path26"
   inkscape:connector-curvature="0" />
  </g>
  <g
   id="bullet-char-template-10004"
   transform="matrix(4.8828125e-4,0,0,-4.8828125e-4,0,0)">
   <path
   d="M 285,-33 C 182,-33 111,30 74,156 52,228 41,333 41,471 c 0,78 14,145 41,201 34,71 87,106 158,106 53,0 88,-31 106,-94 l 23,-176 c 8,-64 28,-97 59,-98 l 735,706 c 11,11 33,17 66,17 42,0 63,-15 63,-46 V 965 c 0,-36 -10,-64 -30,-84 L 442,47 C 390,-6 338,-33 285,-33 Z"
   id="path29"
   inkscape:connector-curvature="0" />
  </g>
  <g
   id="bullet-char-template-9679"
   transform="matrix(4.8828125e-4,0,0,-4.8828125e-4,0,0)">
   <path
   d="M 813,0 C 632,0 489,54 383,161 276,268 223,411 223,592 c 0,181 53,324 160,431 106,107 249,161 430,161 179,0 323,-54 432,-161 108,-107 162,-251 162,-431 0,-180 -54,-324 -162,-431 C 1136,54 992,0 813,0 Z"
   id="path32"
   inkscape:connector-curvature="0" />
  </g>
  <g
   id="bullet-char-template-8226"
   transform="matrix(4.8828125e-4,0,0,-4.8828125e-4,0,0)">
   <path
   d="m 346,457 c -73,0 -137,26 -191,78 -54,51 -81,114 -81,188 0,73 27,136 81,188 54,52 118,78 191,78 73,0 134,-26 185,-79 51,-51 77,-114 77,-187 0,-75 -25,-137 -76,-188 -50,-52 -112,-78 -186,-78 z"
   id="path35"
   inkscape:connector-curvature="0" />
  </g>
  <g
   id="bullet-char-template-8211"
   transform="matrix(4.8828125e-4,0,0,-4.8828125e-4,0,0)">
   <path
   d="M -4,459 H 1135 V 606 H -4 Z"
   id="path38"
   inkscape:connector-curvature="0" />
  </g>
  <g
   id="bullet-char-template-61548"
   transform="matrix(4.8828125e-4,0,0,-4.8828125e-4,0,0)">
   <path
   d="m 173,740 c 0,163 58,303 173,419 116,115 255,173 419,173 163,0 302,-58 418,-173 116,-116 174,-256 174,-419 0,-163 -58,-303 -174,-418 C 1067,206 928,148 765,148 601,148 462,206 346,322 231,437 173,577 173,740 Z"
   id="path41"
   inkscape:connector-curvature="0" />
  </g>
 </defs>
 <g
   id="g49"
   transform="translate(-9220,-13627)">
  <g
   id="id2"
   class="Master_Slide">
   <g
   id="bg-id2"
   class="Background" />
   <g
   id="bo-id2"
   class="BackgroundObjects" />
  </g>
 </g>
 <g
   class="SlideGroup"
   id="g185"
   transform="translate(-9220,-13627)">
  <g
   id="g183">
   <g
   id="container-id1">
    <g
   id="id1"
   class="Slide"
   clip-path="url(#presentation_clip_path)">
     <g
   class="Page"
   id="g179">
      <g
   class="Graphic"
   id="g177">
       <g
   id="id3">
        <rect
   class="BoundingBox"
   x="9220"
   y="13627"
   width="2560"
   height="2446"
   id="rect51"
   style="fill:none;stroke:none" />
        <defs
   id="defs56">
         <clipPath
   id="clip_path_1"
   clipPathUnits="userSpaceOnUse">
          <path
   d="m 9220,13627 h 2559 v 2445 H 9220 Z"
   id="path53"
   inkscape:connector-curvature="0" />
         </clipPath>
        </defs>
        <g
   clip-path="url(#clip_path_1)"
   id="g174">
         <path
   d="m 10183,15842 h -7 -20 -34 -38 -45 -46 -46 -43 l -74,-11 -69,-25 -58,-41 -48,-56 -31,-71 -13,-81 11,-92 35,-101 h 526 z"
   id="path58"
   inkscape:connector-curvature="0"
   style="fill:#000000;stroke:none" />
         <path
   d="m 9573,15661 -15,-86 3,-84 20,-84 33,-79 38,-71 41,-69 41,-58 33,-49 195,120 -234,-435 -508,-33 178,122 -20,33 -21,41 -23,41 -20,43 -13,43 -7,43 v 41 l 12,35 39,72 43,78 46,79 43,79 38,69 30,58 21,38 z"
   id="path60"
   inkscape:connector-curvature="0"
   style="fill:#000000;stroke:none" />
         <path
   d="m 11544,14692 2,8 10,18 18,28 18,33 23,38 23,41 23,40 20,38 28,69 10,74 -8,71 -28,69 -45,61 -66,48 -84,36 -107,17 -254,-455 z"
   id="path62"
   inkscape:connector-curvature="0"
   style="fill:#000000;stroke:none" />
         <path
   d="m 11681,15313 -33,30 -33,26 -38,20 -39,15 -40,13 -41,10 -43,8 -41,2 -43,3 h -41 -40 l -38,-3 -39,-2 -33,-3 -33,-2 -28,-3 8,-229 -264,415 221,460 20,-214 h 38 43 49 l 46,-5 45,-7 41,-16 36,-20 25,-28 43,-69 48,-76 49,-79 48,-76 41,-66 35,-56 23,-36 z"
   id="path64"
   inkscape:connector-curvature="0"
   style="fill:#000000;stroke:none" />
         <path
   d="m 9861,14090 5,-8 10,-18 15,-25 20,-36 23,-35 23,-41 26,-41 20,-35 20,-31 26,-28 28,-25 30,-20 31,-18 35,-13 36,-8 36,-2 h 38 l 38,7 38,13 38,21 38,22 36,33 35,36 33,46 -267,450 z"
   id="path66"
   inkscape:connector-curvature="0"
   style="fill:#000000;stroke:none" />
         <path
   d="m 10328,13660 82,31 71,45 61,61 53,66 44,72 35,68 31,66 25,54 -203,109 493,20 287,-422 -193,92 -20,-36 -21,-38 -25,-38 -28,-41 -31,-33 -30,-28 -36,-20 -38,-8 -38,-2 h -43 l -46,-3 -46,-2 h -45 l -46,-3 h -46 l -43,-2 -41,-3 h -41 l -33,-2 h -30 l -26,-3 h -17 -11 z"
   id="path68"
   inkscape:connector-curvature="0"
   style="fill:#000000;stroke:none" />
         <path
   d="m 9789,14537 333,651 -5,8 -2,13 v 10 l 7,10 23,15 31,13 35,7 46,3 49,-3 58,-10 61,-20 66,-31 46,-25 41,-31 33,-27 30,-31 23,-31 15,-27 10,-26 5,-20 v -31 l -7,-20 -13,-15 -23,-5 -312,-634 2,-30 -13,-25 -25,-18 -41,-10 h -51 l -66,10 -73,20 -87,36 -46,25 -48,31 -48,35 -41,41 -30,38 -16,41 5,33 z"
   id="path70"
   inkscape:connector-curvature="0"
   style="fill:#000000;stroke:none" />
         <path
   d="m 10196,15061 -173,-351 -15,3 170,351 z"
   id="path72"
   inkscape:connector-curvature="0"
   style="fill:#d6eaef;stroke:none" />
         <path
   d="m 10000,14662 -22,-46 -16,3 23,48 z"
   id="path74"
   inkscape:connector-curvature="0"
   style="fill:#d6eaef;stroke:none" />
         <path
   d="m 9955,14568 -21,-41 -15,5 20,41 h 3 l 5,-3 5,-2 z"
   id="path76"
   inkscape:connector-curvature="0"
   style="fill:#d6eaef;stroke:none" />
         <path
   d="m 10257,15183 15,33 -17,3 -16,-33 z"
   id="path78"
   inkscape:connector-curvature="0"
   style="fill:#d6eaef;stroke:none" />
         <path
   d="m 10237,15142 -20,-38 h -18 l 20,41 z"
   id="path80"
   inkscape:connector-curvature="0"
   style="fill:#d6eaef;stroke:none" />
         <path
   d="m 10153,14486 -15,8 -13,8 -13,5 -12,7 -13,5 -13,6 -13,5 -10,5 -17,-41 12,-5 13,-8 13,-5 12,-5 13,-5 13,-8 10,-5 13,-7 z"
   id="path82"
   inkscape:connector-curvature="0"
   style="fill:#d6eaef;stroke:none" />
         <path
   d="m 10074,14583 23,46 13,-5 12,-8 16,-5 12,-8 13,-5 13,-7 10,-5 10,-6 -20,-45 -13,5 -13,7 -12,8 -16,5 -12,8 -13,5 -13,5 z"
   id="path84"
   inkscape:connector-curvature="0"
   style="fill:#d6eaef;stroke:none" />
         <path
   d="m 10120,14677 173,366 13,-5 10,-2 12,-5 16,-6 12,-5 13,-5 10,-5 13,-7 -173,-374 -8,5 -12,5 -13,8 -13,5 -15,7 -15,8 -13,5 z"
   id="path86"
   inkscape:connector-curvature="0"
   style="fill:#d6eaef;stroke:none" />
         <path
   d="m 10311,15084 20,43 8,-2 12,-5 13,-3 13,-5 12,-5 16,-5 12,-8 13,-8 -20,-43 -10,5 -11,5 -10,5 -12,8 -13,5 -15,5 -13,5 z"
   id="path88"
   inkscape:connector-curvature="0"
   style="fill:#d6eaef;stroke:none" />
         <path
   d="m 10367,15203 -18,-35 12,-5 16,-3 12,-5 13,-5 13,-5 13,-5 12,-5 10,-8 18,41 -12,5 -11,5 -15,8 -13,2 -12,5 -13,5 -13,3 z"
   id="path90"
   inkscape:connector-curvature="0"
   style="fill:#d6eaef;stroke:none" />
         <path
   d="m 10316,14375 -8,10 -10,7 -13,8 -13,10 -20,-41 10,-10 13,-7 10,-8 10,-10 z"
   id="path92"
   inkscape:connector-curvature="0"
   style="fill:#d6eaef;stroke:none" />
         <path
   d="m 10316,14504 -21,-46 44,-35 22,43 z"
   id="path94"
   inkscape:connector-curvature="0"
   style="fill:#d6eaef;stroke:none" />
         <path
   d="m 10504,14906 -165,-353 45,-36 163,336 z"
   id="path96"
   inkscape:connector-curvature="0"
   style="fill:#d6eaef;stroke:none" />
         <path
   d="m 10544,14992 -20,-43 43,-56 21,43 z"
   id="path98"
   inkscape:connector-curvature="0"
   style="fill:#d6eaef;stroke:none" />
         <path
   d="m 10585,15081 -23,-45 46,-56 23,45 z"
   id="path100"
   inkscape:connector-curvature="0"
   style="fill:#d6eaef;stroke:none" />
         <path
   d="m 10239,14308 16,-15 10,-13 5,-15 -3,-10 -17,-10 h -28 l -36,5 -43,10 -43,15 -41,13 -36,15 -28,13 -23,13 -30,18 -33,20 -33,20 -31,26 -20,23 -13,22 3,18 18,10 h 33 l 40,-10 51,-15 56,-23 56,-25 56,-28 48,-31 -38,-68 36,-3 33,51 2,-3 3,-2 2,-3 3,-2 -23,-44 26,-5 z"
   id="path102"
   inkscape:connector-curvature="0"
   style="fill:#5badbc;stroke:none" />
         <path
   d="m 10631,15025 -23,-45 15,-21 23,46 z"
   id="path104"
   inkscape:connector-curvature="0"
   style="fill:#5badbc;stroke:none" />
         <path
   d="m 10567,14893 21,43 15,-17 -20,-44 z"
   id="path106"
   inkscape:connector-curvature="0"
   style="fill:#5badbc;stroke:none" />
         <path
   d="m 10384,14517 163,336 15,-18 -160,-336 z"
   id="path108"
   inkscape:connector-curvature="0"
   style="fill:#5badbc;stroke:none" />
         <path
   d="m 10339,14423 22,43 18,-18 -20,-43 z"
   id="path110"
   inkscape:connector-curvature="0"
   style="fill:#5badbc;stroke:none" />
         <path
   d="m 10051,14535 -7,2 -8,5 -8,3 -7,2 -21,-40 8,-3 10,-5 8,-2 8,-3 z"
   id="path112"
   inkscape:connector-curvature="0"
   style="fill:#5badbc;stroke:none" />
         <path
   d="m 10064,14642 -23,-49 33,-10 23,46 z"
   id="path114"
   inkscape:connector-curvature="0"
   style="fill:#5badbc;stroke:none" />
         <path
   d="m 10257,15053 -170,-363 33,-13 173,366 z"
   id="path116"
   inkscape:connector-curvature="0"
   style="fill:#5badbc;stroke:none" />
         <path
   d="m 10295,15135 -17,-41 33,-10 20,43 z"
   id="path118"
   inkscape:connector-curvature="0"
   style="fill:#5badbc;stroke:none" />
         <path
   d="m 10333,15211 -17,-36 33,-7 18,35 z"
   id="path120"
   inkscape:connector-curvature="0"
   style="fill:#5badbc;stroke:none" />
         <path
   d="m 10153,15066 -170,-348 -13,2 -13,3 h -15 l -13,2 176,341 h 12 13 10 z"
   id="path122"
   inkscape:connector-curvature="0"
   style="fill:#5badbc;stroke:none" />
         <path
   d="m 9960,14672 -23,-48 -13,2 h -15 l -15,3 h -13 l 25,51 13,-3 15,-2 h 13 z"
   id="path124"
   inkscape:connector-curvature="0"
   style="fill:#5badbc;stroke:none" />
         <path
   d="m 9914,14578 -20,-41 -13,3 h -15 l -16,2 h -12 l 20,44 15,-3 16,-3 h 15 z"
   id="path126"
   inkscape:connector-curvature="0"
   style="fill:#5badbc;stroke:none" />
         <path
   d="m 10211,15188 16,31 h -8 -10 l -13,2 h -13 l -17,-33 h 12 13 10 z"
   id="path128"
   inkscape:connector-curvature="0"
   style="fill:#5badbc;stroke:none" />
         <path
   d="m 10191,15147 -20,-40 h -10 -13 -10 l -13,2 20,38 h 13 13 10 z"
   id="path130"
   inkscape:connector-curvature="0"
   style="fill:#5badbc;stroke:none" />
         <path
   d="m 10272,14410 -12,10 -15,10 -16,11 -15,10 -15,7 -16,11 -15,10 -15,7 -20,-40 15,-8 18,-10 15,-10 15,-8 13,-10 15,-10 15,-10 13,-11 z"
   id="path132"
   inkscape:connector-curvature="0"
   style="fill:#5badbc;stroke:none" />
         <path
   d="m 10196,14580 -20,-45 13,-8 15,-10 18,-10 17,-10 18,-13 15,-10 13,-8 10,-8 21,46 -13,8 -13,10 -18,13 -17,10 -18,13 -18,10 -13,7 z"
   id="path134"
   inkscape:connector-curvature="0"
   style="fill:#5badbc;stroke:none" />
         <path
   d="m 10392,15003 -173,-374 15,-10 21,-11 17,-10 18,-12 18,-11 13,-10 10,-7 8,-5 165,353 -10,10 -11,10 -12,16 -15,12 -16,13 -15,15 -18,10 z"
   id="path136"
   inkscape:connector-curvature="0"
   style="fill:#5badbc;stroke:none" />
         <path
   d="m 10430,15086 -20,-43 15,-10 15,-10 18,-13 15,-13 16,-12 15,-13 13,-13 7,-10 20,43 -10,11 -12,12 -16,13 -15,15 -15,13 -18,13 -15,10 z"
   id="path138"
   inkscape:connector-curvature="0"
   style="fill:#5badbc;stroke:none" />
         <path
   d="m 10468,15168 -18,-41 16,-10 15,-10 15,-10 15,-13 16,-13 12,-13 13,-10 10,-12 23,45 -13,11 -12,12 -16,13 -15,13 -18,12 -15,11 -15,10 z"
   id="path140"
   inkscape:connector-curvature="0"
   style="fill:#5badbc;stroke:none" />
         <path
   d="m 10295,14334 21,41 5,-6 5,-5 2,-5 5,-5 -17,-38 -5,5 -5,3 -6,5 z"
   id="path142"
   inkscape:connector-curvature="0"
   style="fill:#5badbc;stroke:none" />
         <path
   d="m 11249,14865 20,-2 15,-8 8,-8 5,-10 3,-12 -3,-11 -5,-12 -5,-10 2,-8 5,-13 6,-15 7,-10 -7,-21 -6,-22 -2,-23 -3,-16 -10,-12 -10,-18 -10,-20 -3,-18 -15,-21 -13,-25 -10,-23 -7,-18 -11,-7 -12,-11 -16,-12 -12,-13 -16,-15 -15,-15 -13,-16 -10,-12 -15,-6 -20,-10 -18,-10 -20,-13 -21,-12 -18,-13 -17,-10 -16,-10 -10,5 -12,5 -16,5 -15,2 -18,6 h -18 -17 -18 v 25 l -8,25 -10,28 -13,26 16,23 12,35 10,36 6,28 -56,-13 -51,-5 -43,-5 -36,3 -31,2 -22,5 -18,8 -13,10 -13,23 -7,28 5,28 15,25 -13,36 -17,51 -16,53 -7,38 h -16 l -17,5 -8,21 13,43 18,25 25,26 28,23 36,20 35,20 36,18 35,15 33,13 23,8 33,10 36,7 41,8 45,8 46,5 46,5 43,2 h 41 l 38,-2 33,-5 25,-8 18,-13 8,-17 -3,-23 -15,-26 10,-43 15,-53 13,-54 z"
   id="path144"
   inkscape:connector-curvature="0"
   style="fill:#000000;stroke:none" />
         <path
   d="m 10776,14799 13,5 20,5 20,5 13,3 -56,234 -13,-3 -10,-2 -13,-5 -12,-3 z"
   id="path146"
   inkscape:connector-curvature="0"
   style="fill:#84565e;stroke:none" />
         <path
   d="m 10641,14738 13,8 13,5 12,7 13,6 13,5 12,5 13,7 13,5 -43,237 -18,-8 -18,-7 -15,-11 -16,-7 -15,-10 -12,-8 -13,-10 -10,-8 z"
   id="path148"
   inkscape:connector-curvature="0"
   style="fill:#84565e;stroke:none" />
         <path
   d="m 10989,14685 -7,-5 -5,-3 -8,-2 h -5 v -6 l -3,-5 -2,-2 -3,-5 206,-127 8,7 7,10 8,11 5,10 z"
   id="path150"
   inkscape:connector-curvature="0"
   style="fill:#84565e;stroke:none" />
         <path
   d="m 11040,14736 -5,-8 -7,-10 -8,-8 -10,-10 195,-109 6,10 7,7 5,11 5,10 z"
   id="path152"
   inkscape:connector-curvature="0"
   style="fill:#84565e;stroke:none" />
         <path
   d="m 10583,14954 -11,-10 -7,-8 -8,-7 -5,-10 56,-201 8,5 7,5 8,5 10,5 z"
   id="path154"
   inkscape:connector-curvature="0"
   style="fill:#ccbabc;stroke:none" />
         <path
   d="m 10616,14664 -8,-10 -5,-18 v -15 l 3,-15 7,-8 13,-5 20,-5 31,-5 35,3 46,5 53,12 61,21 13,12 15,21 13,23 8,28 12,2 16,8 17,7 16,8 15,10 13,13 10,13 5,15 15,2 18,6 15,10 18,15 -53,-3 -59,-7 -61,-15 -58,-16 -56,-18 -49,-17 -35,-13 -18,-10 8,-23 7,-31 8,-28 v -10 h -8 l -12,-2 -11,-3 -5,3 -2,12 -3,23 -5,26 -2,12 -5,-2 -5,-3 -6,-5 -5,-2 5,-18 6,-23 2,-20 -2,-8 h -8 -10 -13 -5 v 10 l -3,16 -5,15 z"
   id="path156"
   inkscape:connector-curvature="0"
   style="fill:#84565e;stroke:none" />
         <path
   d="m 10743,14786 7,3 11,5 7,3 8,2 -38,239 -10,-5 -8,-2 -10,-6 -10,-2 z"
   id="path158"
   inkscape:connector-curvature="0"
   style="fill:#ccbabc;stroke:none" />
         <path
   d="m 10786,15053 56,-236 48,15 46,13 46,10 43,8 43,5 46,2 h 46 45 l -50,219 -44,5 -43,3 h -46 l -48,-3 -48,-8 -48,-7 -46,-13 z"
   id="path160"
   inkscape:connector-curvature="0"
   style="fill:#ccbabc;stroke:none" />
         <path
   d="m 11162,14530 -206,127 -15,-26 -18,-23 -18,-20 -17,-10 v -31 l -5,-38 -13,-40 -18,-33 8,-13 5,-13 2,-13 3,-12 h 10 10 l 13,-3 15,-2 13,-3 10,-2 10,-3 8,-5 10,8 13,7 15,10 15,10 18,11 15,10 16,5 12,2 5,6 5,7 11,10 12,13 13,13 13,15 15,18 z"
   id="path162"
   inkscape:connector-curvature="0"
   style="fill:#ccbabc;stroke:none" />
         <path
   d="m 11205,14591 -195,109 -5,-5 -5,-3 -6,-5 -5,-2 201,-117 5,5 3,5 5,8 z"
   id="path164"
   inkscape:connector-curvature="0"
   style="fill:#ccbabc;stroke:none" />
         <path
   d="m 11040,14736 188,-107 13,25 10,26 8,25 7,28 -7,23 -10,25 -13,23 -13,8 h -7 -8 -10 l -13,-3 h -13 l -10,-5 -10,-2 -8,-5 -10,-11 -10,-10 -15,-10 -15,-8 -16,-10 -12,-7 -16,-3 z"
   id="path166"
   inkscape:connector-curvature="0"
   style="fill:#ccbabc;stroke:none" />
         <path
   d="m 11025,15058 43,-155 33,5 -43,150 z"
   id="path168"
   inkscape:connector-curvature="0"
   style="fill:#000000;stroke:none" />
         <path
   d="m 11099,15058 30,-150 33,3 -38,145 z"
   id="path170"
   inkscape:connector-curvature="0"
   style="fill:#000000;stroke:none" />
         <path
   d="m 10956,14568 -20,-28 -18,-41 -10,-43 13,-31 28,-5 40,16 46,28 48,43 46,51 41,56 30,61 13,58 -20,18 -10,-59 -26,-56 -35,-53 -44,-48 -40,-41 -41,-28 -33,-15 -23,2 -5,21 10,28 15,28 11,17 z"
   id="path172"
   inkscape:connector-curvature="0"
   style="fill:#000000;stroke:none" />
        </g>
       </g>
      </g>
     </g>
    </g>
   </g>
  </g>
 </g>
</svg>