<?xml version="1.0" encoding="UTF-8" standalone="no"?>
<svg
   xmlns:ooo="http://xml.openoffice.org/svg/export"
   xmlns:dc="http://purl.org/dc/elements/1.1/"
   xmlns:cc="http://creativecommons.org/ns#"
   xmlns:rdf="http://www.w3.org/1999/02/22-rdf-syntax-ns#"
   xmlns:svg="http://www.w3.org/2000/svg"
   xmlns="http://www.w3.org/2000/svg"
   xmlns:sodipodi="http://sodipodi.sourceforge.net/DTD/sodipodi-0.dtd"
   xmlns:inkscape="http://www.inkscape.org/namespaces/inkscape"
   version="1.2"
   width="29.059999mm"
   height="44.810001mm"
   viewBox="0 0 2905.9999 4481.0001"
   preserveAspectRatio="xMidYMid"
   xml:space="preserve"
   id="svg245"
   sodipodi:docname="rockstar.svg"
   style="fill-rule:evenodd;stroke-width:28.22200012;stroke-linejoin:round"
   inkscape:version="0.92.5 (2060ec1f9f, 2020-04-08)"><metadata
   id="metadata249"><rdf:RDF><cc:Work
       rdf:about=""><dc:format>image/svg+xml</dc:format><dc:type
         rdf:resource="http://purl.org/dc/dcmitype/StillImage" /></cc:Work></rdf:RDF></metadata><sodipodi:namedview
   pagecolor="#ffffff"
   bordercolor="#666666"
   borderopacity="1"
   objecttolerance="10"
   gridtolerance="10"
   guidetolerance="10"
   inkscape:pageopacity="0"
   inkscape:pageshadow="2"
   inkscape:window-width="664"
   inkscape:window-height="487"
   id="namedview247"
   showgrid="false"
   inkscape:zoom="0.2102413"
   inkscape:cx="54.916536"
   inkscape:cy="84.661416"
   inkscape:window-x="0"
   inkscape:window-y="0"
   inkscape:window-maximized="0"
   inkscape:current-layer="svg245" />
 <defs
   class="ClipPathGroup"
   id="defs8">
  <clipPath
   id="presentation_clip_path"
   clipPathUnits="userSpaceOnUse">
   <rect
   x="0"
   y="0"
   width="21000"
   height="29700"
   id="rect2" />
  </clipPath>
  <clipPath
   id="presentation_clip_path_shrink"
   clipPathUnits="userSpaceOnUse">
   <rect
   x="21"
   y="29"
   width="20958"
   height="29641"
   id="rect5" />
  </clipPath>
 </defs>
 <defs
   class="TextShapeIndex"
   id="defs12">
  <g
   ooo:slide="id1"
   ooo:id-list="id3"
   id="g10" />
 </defs>
 <defs
   class="EmbeddedBulletChars"
   id="defs44">
  <g
   id="bullet-char-template-57356"
   transform="matrix(4.8828125e-4,0,0,-4.8828125e-4,0,0)">
   <path
   d="M 580,1141 1163,571 580,0 -4,571 Z"
   id="path14"
   inkscape:connector-curvature="0" />
  </g>
  <g
   id="bullet-char-template-57354"
   transform="matrix(4.8828125e-4,0,0,-4.8828125e-4,0,0)">
   <path
   d="M 8,1128 H 1137 V 0 H 8 Z"
   id="path17"
   inkscape:connector-curvature="0" />
  </g>
  <g
   id="bullet-char-template-10146"
   transform="matrix(4.8828125e-4,0,0,-4.8828125e-4,0,0)">
   <path
   d="M 174,0 602,739 174,1481 1456,739 Z M 1358,739 309,1346 659,739 Z"
   id="path20"
   inkscape:connector-curvature="0" />
  </g>
  <g
   id="bullet-char-template-10132"
   transform="matrix(4.8828125e-4,0,0,-4.8828125e-4,0,0)">
   <path
   d="M 2015,739 1276,0 H 717 l 543,543 H 174 v 393 h 1086 l -543,545 h 557 z"
   id="path23"
   inkscape:connector-curvature="0" />
  </g>
  <g
   id="bullet-char-template-10007"
   transform="matrix(4.8828125e-4,0,0,-4.8828125e-4,0,0)">
   <path
   d="m 0,-2 c -7,16 -16,29 -25,39 l 381,530 c -94,256 -141,385 -141,387 0,25 13,38 40,38 9,0 21,-2 34,-5 21,4 42,12 65,25 l 27,-13 111,-251 280,301 64,-25 24,25 c 21,-10 41,-24 62,-43 C 886,937 835,863 770,784 769,783 710,716 594,584 L 774,223 c 0,-27 -21,-55 -63,-84 l 16,-20 C 717,90 699,76 672,76 641,76 570,178 457,381 L 164,-76 c -22,-34 -53,-51 -92,-51 -42,0 -63,17 -64,51 -7,9 -10,24 -10,44 0,9 1,19 2,30 z"
   id="path26"
   inkscape:connector-curvature="0" />
  </g>
  <g
   id="bullet-char-template-10004"
   transform="matrix(4.8828125e-4,0,0,-4.8828125e-4,0,0)">
   <path
   d="M 285,-33 C 182,-33 111,30 74,156 52,228 41,333 41,471 c 0,78 14,145 41,201 34,71 87,106 158,106 53,0 88,-31 106,-94 l 23,-176 c 8,-64 28,-97 59,-98 l 735,706 c 11,11 33,17 66,17 42,0 63,-15 63,-46 V 965 c 0,-36 -10,-64 -30,-84 L 442,47 C 390,-6 338,-33 285,-33 Z"
   id="path29"
   inkscape:connector-curvature="0" />
  </g>
  <g
   id="bullet-char-template-9679"
   transform="matrix(4.8828125e-4,0,0,-4.8828125e-4,0,0)">
   <path
   d="M 813,0 C 632,0 489,54 383,161 276,268 223,411 223,592 c 0,181 53,324 160,431 106,107 249,161 430,161 179,0 323,-54 432,-161 108,-107 162,-251 162,-431 0,-180 -54,-324 -162,-431 C 1136,54 992,0 813,0 Z"
   id="path32"
   inkscape:connector-curvature="0" />
  </g>
  <g
   id="bullet-char-template-8226"
   transform="matrix(4.8828125e-4,0,0,-4.8828125e-4,0,0)">
   <path
   d="m 346,457 c -73,0 -137,26 -191,78 -54,51 -81,114 -81,188 0,73 27,136 81,188 54,52 118,78 191,78 73,0 134,-26 185,-79 51,-51 77,-114 77,-187 0,-75 -25,-137 -76,-188 -50,-52 -112,-78 -186,-78 z"
   id="path35"
   inkscape:connector-curvature="0" />
  </g>
  <g
   id="bullet-char-template-8211"
   transform="matrix(4.8828125e-4,0,0,-4.8828125e-4,0,0)">
   <path
   d="M -4,459 H 1135 V 606 H -4 Z"
   id="path38"
   inkscape:connector-curvature="0" />
  </g>
  <g
   id="bullet-char-template-61548"
   transform="matrix(4.8828125e-4,0,0,-4.8828125e-4,0,0)">
   <path
   d="m 173,740 c 0,163 58,303 173,419 116,115 255,173 419,173 163,0 302,-58 418,-173 116,-116 174,-256 174,-419 0,-163 -58,-303 -174,-418 C 1067,206 928,148 765,148 601,148 462,206 346,322 231,437 173,577 173,740 Z"
   id="path41"
   inkscape:connector-curvature="0" />
  </g>
 </defs>
 <g
   id="g49"
   transform="translate(-9047,-12609)">
  <g
   id="id2"
   class="Master_Slide">
   <g
   id="bg-id2"
   class="Background" />
   <g
   id="bo-id2"
   class="BackgroundObjects" />
  </g>
 </g>
 <g
   class="SlideGroup"
   id="g243"
   transform="translate(-9047,-12609)">
  <g
   id="g241">
   <g
   id="container-id1">
    <g
   id="id1"
   class="Slide"
   clip-path="url(#presentation_clip_path)">
     <g
   class="Page"
   id="g237">
      <g
   class="Graphic"
   id="g235">
       <g
   id="id3">
        <rect
   class="BoundingBox"
   x="9047"
   y="12609"
   width="2906"
   height="4481"
   id="rect51"
   style="fill:none;stroke:none" />
        <defs
   id="defs56">
         <clipPath
   id="clip_path_1"
   clipPathUnits="userSpaceOnUse">
          <path
   d="m 9047,12609 h 2905 v 4480 H 9047 Z"
   id="path53"
   inkscape:connector-curvature="0" />
         </clipPath>
        </defs>
        <g
   clip-path="url(#clip_path_1)"
   id="g232">
         <path
   d="m 11536,13582 20,-12 21,-13 20,-10 20,-8 18,-7 15,-8 16,-5 10,-3 18,-5 10,-10 v -23 l -8,-40 -10,-28 -13,-28 -15,-28 -18,-28 -18,-26 -17,-23 -16,-17 -10,-10 -38,-26 -48,-23 -56,-23 -59,-23 -56,-17 -50,-16 -44,-12 -28,-8 -33,-5 -30,-8 -31,-2 -28,-3 h -25 l -18,3 -13,5 -5,8 8,33 15,56 16,61 2,48 33,7 36,11 35,12 36,16 38,17 36,18 33,18 35,20 33,23 31,20 28,21 28,23 23,20 23,20 17,21 z"
   id="path58"
   inkscape:connector-curvature="0"
   style="fill:#006666;stroke:none" />
         <path
   d="m 11630,13460 8,-2 7,-5 3,-5 2,-8 -2,-10 -3,-5 -7,-5 -8,-3 -10,3 -5,5 -5,5 -3,10 3,8 5,5 5,5 z"
   id="path60"
   inkscape:connector-curvature="0"
   style="fill:#ffe500;stroke:none" />
         <path
   d="m 11073,13168 10,-2 6,-5 5,-6 2,-10 -2,-10 -5,-5 -6,-5 -10,-3 -10,3 -5,5 -5,5 -3,10 3,10 5,6 5,5 z"
   id="path62"
   inkscape:connector-curvature="0"
   style="fill:#ffe500;stroke:none" />
         <path
   d="m 11340,13539 36,3 28,-3 25,-7 18,-11 15,-15 13,-15 8,-20 7,-21 13,-53 18,-64 12,-61 8,-45 10,-13 8,-15 5,-26 10,-38 23,-2 15,-18 8,-26 5,-22 5,-23 5,-28 -2,-21 -16,-2 11,-48 7,-64 -5,-61 -15,-46 -13,-15 -13,-15 -12,-13 -16,-13 -17,-10 -21,-10 -23,-8 -28,-5 -27,-2 h -26 l -20,2 -21,5 -17,8 -16,10 -15,10 -18,10 -30,39 -21,56 -12,63 -5,48 h -16 l -7,18 -5,28 -3,23 -2,25 v 26 l 10,23 20,7 -2,38 -3,26 v 18 l 8,12 -5,49 -6,63 -2,66 -3,54 v 20 20 l 5,21 11,17 15,18 20,15 28,11 z"
   id="path64"
   inkscape:connector-curvature="0"
   style="fill:#c68470;stroke:none" />
         <path
   d="m 11462,12767 h 13 l 10,-8 8,-8 5,-12 v -13 l -5,-10 -8,-8 -13,-5 h -12 l -10,5 -11,8 -5,12 v 13 l 8,13 8,8 z"
   id="path66"
   inkscape:connector-curvature="0"
   style="fill:#c68470;stroke:none" />
         <path
   d="m 11366,13405 h 12 l 11,-8 7,-8 5,-12 v -13 l -5,-10 -7,-8 -13,-5 h -13 l -10,5 -8,8 -5,12 v 13 l 5,13 8,7 z"
   id="path68"
   inkscape:connector-curvature="0"
   style="fill:#c68470;stroke:none" />
         <path
   d="m 11544,13224 v 3 0 l -3,2 v 3 l -15,12 -15,11 -21,12 -20,8 -20,10 -21,5 -20,3 -18,-3 -8,-2 h -2 l 5,-3 h 8 17 18 l 21,-5 20,-8 18,-10 20,-12 18,-13 z"
   id="path70"
   inkscape:connector-curvature="0"
   style="fill:#000000;stroke:none" />
         <path
   d="m 11572,12978 -11,-8 -7,-10 -13,-5 -15,-5 h -18 -13 -12 l -11,2 -5,3 -2,5 2,2 h 8 13 12 13 l 8,3 12,5 13,5 13,3 10,5 10,5 5,2 v -5 z"
   id="path72"
   inkscape:connector-curvature="0"
   style="fill:#000000;stroke:none" />
         <path
   d="m 11442,13082 h -3 -5 -5 l -5,2 h -5 -5 l -8,-2 -2,-3 -3,-2 -5,-3 -5,-2 -8,-3 -2,3 v 5 l 2,2 h 3 3 v 3 h 2 l 5,2 3,3 h 5 l 5,2 5,3 h 8 l 7,-3 8,-2 h 8 5 5 2 l 5,-5 v -3 -5 l -2,-2 -3,5 -2,2 -3,3 h -5 z"
   id="path74"
   inkscape:connector-curvature="0"
   style="fill:#000000;stroke:none" />
         <path
   d="m 11289,12934 13,-5 10,-5 16,-2 h 15 l 18,2 12,5 13,5 8,5 2,6 3,5 -3,2 -7,-2 -13,-5 -13,-6 h -13 -7 -13 -15 -13 l -10,3 h -10 -8 l 3,-5 z"
   id="path76"
   inkscape:connector-curvature="0"
   style="fill:#000000;stroke:none" />
         <path
   d="m 11399,13171 -31,-8 -20,-10 -13,-10 -7,-8 v -2 -3 -2 -3 l 10,-3 h 10 10 8 10 10 l 10,3 h 8 l 18,3 17,5 21,7 18,8 v 2 3 2 l -3,3 -3,3 -5,5 -7,2 -8,3 -10,2 h -13 -12 z"
   id="path78"
   inkscape:connector-curvature="0"
   style="fill:#000000;stroke:none" />
         <path
   d="m 11399,13166 -26,-5 -17,-8 -11,-5 -5,-5 v -5 l 3,-3 v -5 -2 h 15 15 16 l 15,2 15,3 15,2 13,5 13,5 v 3 5 2 6 l -8,5 -10,2 h -18 z"
   id="path80"
   inkscape:connector-curvature="0"
   style="fill:#ffffff;stroke:none" />
         <path
   d="m 11419,13199 h 5 5 3 5 l 5,2 h 3 l -3,3 h -8 l -10,2 h -13 -10 l -7,-2 h -5 l -6,-3 v -2 h 8 10 8 8 z"
   id="path82"
   inkscape:connector-curvature="0"
   style="fill:#000000;stroke:none" />
         <path
   d="m 11300,12990 -3,-2 v -3 -2 h -2 7 l 5,2 8,-2 13,-3 7,-2 h 8 7 l 8,2 8,3 5,2 2,5 5,5 5,3 3,5 -3,3 -5,-3 -7,-3 -5,-2 h -8 -8 l -7,-3 -5,-2 -8,-3 h -8 l -5,3 h -7 -5 z"
   id="path84"
   inkscape:connector-curvature="0"
   style="fill:#000000;stroke:none" />
         <path
   d="m 11546,13028 3,-2 2,-3 h 3 v -2 h -8 l -5,-3 h -8 l -10,-7 -5,-5 -7,-3 -8,-3 h -8 -7 l -5,3 -5,3 -8,2 -5,3 -3,5 v 2 h 8 8 7 5 l 8,3 h 8 7 8 l 5,2 5,3 h 5 l 5,2 z"
   id="path86"
   inkscape:connector-curvature="0"
   style="fill:#000000;stroke:none" />
         <path
   d="m 11462,12767 h 13 l 10,-8 8,-8 5,-12 v -13 l -5,-10 -8,-8 -13,-5 h -12 l -13,5 -8,10 -5,10 v 13 l 8,13 8,8 z"
   id="path88"
   inkscape:connector-curvature="0"
   style="fill:#000000;stroke:none" />
         <path
   d="m 11345,12792 h 13 l 15,-3 18,3 h 15 l 18,3 15,2 13,3 13,2 13,3 10,2 15,5 13,5 15,8 15,8 18,7 20,8 28,18 10,18 -2,25 -3,28 -5,25 -7,16 -3,10 5,5 h 18 l 20,-10 23,-18 23,-23 23,-23 20,-20 16,-18 7,-13 10,-23 5,-28 6,-25 2,-15 -2,-8 -6,-7 -10,-3 -7,-3 -8,-5 -5,-5 -5,-5 -5,-5 -3,-8 -5,-7 -2,-5 -5,-5 -8,-5 -13,-3 -12,-5 -8,-5 -5,-5 -5,-5 -5,-3 h -5 -8 l -8,-2 -10,-3 -8,-8 -7,-2 -3,-3 -5,3 -7,2 h -11 l -7,-2 -5,-3 -5,-5 -8,-5 -8,-5 -10,-2 h -7 l -6,2 -5,3 h -7 -5 l -5,-3 -3,-5 -8,-5 -7,-5 -5,-3 h -10 l -13,-2 -15,-5 h -13 l -13,-3 h -10 l -8,3 -12,5 -13,2 -15,-2 -10,-5 -11,-8 h -12 l -13,3 -10,7 -10,5 -13,5 h -13 l -7,-5 -8,-5 h -13 l -13,5 -7,11 -5,27 v 46 l -3,46 3,30 v 26 l 5,35 5,36 8,28 2,8 h 5 l 5,-8 v -15 -13 l 3,-15 5,-15 8,-18 12,-15 18,-13 20,-10 z"
   id="path90"
   inkscape:connector-curvature="0"
   style="fill:#000000;stroke:none" />
         <path
   d="m 10898,14602 -15,7 -13,13 -15,18 -13,20 -13,23 -12,23 -11,23 -10,23 -10,45 -3,59 6,63 12,69 13,71 18,69 15,61 13,53 12,43 13,39 13,30 10,28 13,25 10,26 13,23 10,25 13,46 5,43 v 43 l 7,54 8,28 8,28 12,28 13,25 13,23 12,20 11,18 7,15 10,31 3,43 v 48 l -5,54 2,28 8,35 10,36 15,40 16,44 17,43 18,46 18,43 28,106 18,128 12,111 11,61 12,26 13,20 13,18 15,8 18,-13 20,-36 18,-45 5,-46 -8,-56 -7,-81 -3,-102 13,-117 13,-114 v -100 l -10,-86 -16,-74 -10,-35 -13,-38 -12,-41 -16,-41 -12,-35 -13,-33 -10,-26 -5,-15 v -119 l 7,-224 v -267 l -30,-257 -13,-45 -15,-46 -26,-46 -30,-43 -43,-33 -54,-18 -66,-5 z"
   id="path92"
   inkscape:connector-curvature="0"
   style="fill:#c68470;stroke:none" />
         <path
   d="m 11269,16734 -2,-13 2,-10 5,-10 10,-8 13,-2 13,2 10,6 8,10 2,12 -2,13 -8,10 -10,8 -13,2 -10,-2 -10,-8 z"
   id="path94"
   inkscape:connector-curvature="0"
   style="fill:#c68470;stroke:none" />
         <path
   d="m 10997,14747 -2,-13 2,-13 8,-10 10,-8 13,-2 12,2 10,8 6,10 2,13 -2,10 -6,10 -10,8 -12,2 -13,-2 -10,-5 z"
   id="path96"
   inkscape:connector-curvature="0"
   style="fill:#c68470;stroke:none" />
         <path
   d="m 11236,16592 10,-3 15,5 16,5 15,11 15,12 15,13 11,15 7,16 13,25 13,23 15,20 15,20 13,16 20,23 26,28 25,30 26,31 22,28 16,20 2,13 -5,7 -8,8 -7,7 -13,8 -10,10 -13,5 -10,5 -10,5 -10,3 -13,3 h -15 -15 l -16,-3 -15,-5 -13,-5 -12,-8 -18,-18 -15,-20 -16,-23 -10,-23 -10,-20 -8,-18 -7,-15 -5,-8 -16,-15 -23,-20 -17,-23 -8,-18 v -20 l 5,-26 5,-30 v -26 -22 -21 l 5,-15 z"
   id="path98"
   inkscape:connector-curvature="0"
   style="fill:#c68470;stroke:none" />
         <path
   d="m 11310,16752 -13,2 -13,-5 -10,-5 -5,-10 -2,-13 2,-12 8,-10 10,-8 13,-3 12,5 10,8 6,10 2,13 -2,10 -8,10 z"
   id="path100"
   inkscape:connector-curvature="0"
   style="fill:#c68470;stroke:none" />
         <path
   d="m 11211,16663 -3,25 -5,31 -3,28 3,20 10,18 18,18 18,20 15,23 8,13 7,17 13,23 15,21 13,23 13,20 12,15 11,10 12,8 18,5 23,8 23,5 25,5 23,2 h 20 16 l 23,-5 12,-10 5,-10 3,-18 -3,-18 -2,-15 -5,-15 -5,-13 -8,-10 -18,-20 -20,-26 -26,-28 -22,-30 -23,-26 -16,-20 -10,-13 -10,-17 -8,-16 -7,-10 -3,-5 -12,13 -16,10 -20,5 -23,3 -23,-6 -25,-10 -23,-20 z"
   id="path102"
   inkscape:connector-curvature="0"
   style="fill:#000000;stroke:none" />
         <path
   d="m 11172,16666 16,12 20,15 28,18 33,18 31,13 33,10 28,2 25,-7 20,-13 16,-15 15,-18 10,-15 8,-18 5,-15 2,-15 v -11 l -12,-104 -21,-203 -20,-206 -8,-119 -5,-56 -10,-64 -15,-51 -15,-20 -13,-5 -10,-15 -8,-26 -3,-33 -2,-38 -3,-33 -5,-31 -10,-25 -10,-30 -5,-46 v -61 l -3,-71 3,-82 v -86 l -3,-89 -5,-92 -7,-89 -16,-86 -20,-79 -28,-71 -36,-61 -48,-43 -58,-31 -71,-10 -77,8 -58,25 -43,36 -26,51 -15,58 -3,69 5,73 11,79 17,97 18,86 20,74 16,56 20,53 23,64 18,58 7,38 v 21 23 l 5,22 11,21 12,20 5,18 -2,23 -5,23 -3,33 v 40 l 13,41 23,28 28,18 20,15 8,25 -10,44 -13,43 2,33 8,28 5,33 5,38 13,46 18,51 20,50 20,51 18,43 16,36 5,23 2,58 5,92 5,86 z"
   id="path104"
   inkscape:connector-curvature="0"
   style="fill:#006666;stroke:none" />
         <path
   d="m 10705,14551 -33,-23 -36,-13 -41,-10 h -40 l -44,10 -40,18 -38,28 -36,38 -28,43 -23,51 -18,59 -17,58 -13,61 -10,53 -8,49 -5,35 -5,92 -3,135 v 132 86 l -5,74 -12,99 -13,94 -13,58 -10,21 -13,30 -20,38 -20,41 -21,43 -18,44 -15,35 -10,31 -13,78 -10,120 -5,132 5,125 5,104 -5,86 -10,71 -5,49 v 38 l 2,35 8,23 13,8 15,-5 18,-15 18,-18 15,-21 15,-28 13,-40 10,-41 5,-38 3,-25 7,-41 10,-48 13,-54 13,-56 13,-51 12,-40 10,-28 13,-23 13,-23 13,-28 15,-28 10,-28 13,-28 7,-28 5,-25 13,-74 20,-99 16,-91 10,-54 15,-30 15,-33 16,-33 15,-36 13,-30 10,-31 7,-25 3,-18 3,-33 5,-33 5,-31 7,-25 13,-31 28,-63 38,-87 43,-99 44,-101 38,-97 28,-76 12,-51 5,-69 v -61 l -7,-53 -10,-48 -13,-39 -15,-30 -18,-23 z"
   id="path106"
   inkscape:connector-curvature="0"
   style="fill:#c68470;stroke:none" />
         <path
   d="m 10583,14693 5,-13 v -10 l -5,-12 -5,-11 -13,-5 h -13 l -10,3 -10,10 -5,10 v 13 l 2,13 10,10 11,5 h 12 l 10,-3 z"
   id="path108"
   inkscape:connector-curvature="0"
   style="fill:#c68470;stroke:none" />
         <path
   d="m 10148,16823 8,-13 v -12 l -3,-10 -10,-11 -13,-5 h -13 l -10,3 -10,10 -5,10 v 13 l 2,10 11,10 10,8 h 13 l 10,-3 z"
   id="path110"
   inkscape:connector-curvature="0"
   style="fill:#c68470;stroke:none" />
         <path
   d="m 10125,16704 15,7 18,18 18,20 7,21 3,20 3,18 2,18 5,20 5,30 5,36 -2,33 -15,18 -11,2 h -12 l -10,3 -11,3 -10,2 -10,3 -13,5 -10,5 -15,10 -18,10 -23,15 -25,16 -26,12 -25,10 -23,8 h -23 l -20,-2 -23,-6 -23,-7 -20,-5 -21,-8 -15,-7 -13,-8 -5,-8 v -15 l 8,-15 13,-15 12,-13 8,-8 10,-7 10,-8 13,-8 13,-7 15,-5 13,-8 10,-5 15,-5 15,-8 18,-7 15,-11 16,-7 15,-10 10,-11 8,-7 5,-13 10,-18 10,-23 13,-22 15,-23 15,-18 18,-10 z"
   id="path112"
   inkscape:connector-curvature="0"
   style="fill:#c68470;stroke:none" />
         <path
   d="m 10120,16836 -13,-5 -7,-8 -8,-10 v -13 l 5,-12 8,-11 10,-5 h 13 l 12,5 10,8 6,10 v 13 l -6,13 -7,7 -10,8 z"
   id="path114"
   inkscape:connector-curvature="0"
   style="fill:#c68470;stroke:none" />
         <path
   d="m 10005,16836 -15,15 -25,15 -31,16 -35,17 -33,18 -33,20 -23,16 -16,18 -10,15 -10,15 -10,20 v 26 l 8,7 20,5 25,6 33,5 36,2 h 33 28 l 23,-5 18,-10 23,-10 25,-15 28,-16 25,-15 23,-13 21,-7 15,-5 23,-5 20,-6 15,-7 8,-10 v -18 -31 l -3,-35 -7,-36 -26,10 -22,11 -26,7 -23,5 -23,3 -25,-3 -26,-7 z"
   id="path116"
   inkscape:connector-curvature="0"
   style="fill:#000000;stroke:none" />
         <path
   d="m 9764,17047 8,7 20,5 25,6 33,5 36,2 h 33 28 l 23,-5 18,-10 23,-10 25,-15 28,-16 25,-15 23,-13 21,-7 15,-5 23,-5 20,-6 15,-7 8,-10 -5,20 -8,15 -7,13 -3,2 -58,16 -5,-16 -23,16 -26,15 -23,13 -20,12 -23,11 -18,7 -17,5 -13,3 h -18 l -28,2 h -33 l -33,-2 -33,-3 -28,-7 -20,-11 z"
   id="path118"
   inkscape:connector-curvature="0"
   style="fill:#666666;stroke:none" />
         <path
   d="m 9970,16856 15,8 33,10 43,5 51,5 51,-2 48,-13 39,-23 28,-38 10,-23 10,-33 10,-36 v -25 l -2,-25 v -36 l 5,-43 7,-41 10,-36 16,-58 20,-76 23,-84 20,-84 18,-74 13,-56 2,-30 -5,-33 -2,-43 2,-38 10,-26 11,-20 10,-21 10,-20 13,-18 12,-17 13,-26 5,-25 3,-28 7,-36 23,-74 33,-101 38,-120 41,-124 41,-117 35,-102 28,-74 18,-66 13,-73 5,-82 -8,-81 -20,-74 -38,-58 -56,-41 -79,-15 -81,8 -66,25 -51,36 -41,50 -31,56 -22,66 -18,69 -13,74 -13,84 -10,104 -13,117 -12,114 -10,109 -11,92 -5,69 -5,33 -5,30 -5,33 v 33 l 3,26 v 22 l -5,26 -11,25 -12,26 -16,28 -17,35 -18,41 -15,38 -21,107 -20,173 -18,172 -10,117 -5,59 -8,43 -7,33 -11,23 -7,28 -8,43 -7,48 z"
   id="path120"
   inkscape:connector-curvature="0"
   style="fill:#006666;stroke:none" />
         <path
   d="m 9472,13305 -8,13 -10,8 -13,2 -18,-5 -12,-2 -16,-5 -17,-8 -21,-5 -18,-8 -15,-7 -13,-5 -5,-6 -5,-7 -10,-15 -13,-21 -15,-20 -15,-23 -15,-20 -16,-16 -10,-10 -13,-7 -12,-8 -16,-8 -15,-7 -18,-10 -12,-8 -16,-5 -10,-5 -17,-8 -16,-7 -10,-8 -2,-10 5,-5 7,-3 10,-2 13,-3 h 13 15 13 13 l 12,3 13,2 10,3 13,2 10,5 10,3 10,2 8,3 10,3 10,2 h 10 l 13,3 10,2 11,3 10,2 5,3 7,5 11,13 12,17 13,21 15,20 13,18 13,15 7,10 8,8 13,10 15,10 15,15 13,16 10,15 5,15 z"
   id="path122"
   inkscape:connector-curvature="0"
   style="fill:#c68470;stroke:none" />
         <path
   d="m 9400,13277 8,-10 10,-7 10,-5 13,2 10,8 8,10 2,13 -2,12 -5,11 -10,5 -13,5 -13,-3 -10,-7 -8,-11 -2,-10 z"
   id="path124"
   inkscape:connector-curvature="0"
   style="fill:#c68470;stroke:none" />
         <path
   d="m 11028,13303 2,33 -5,30 -13,31 -17,28 -31,25 -41,18 -53,13 -64,7 -28,3 -25,3 -25,2 -26,3 -23,2 -20,5 -20,3 -16,2 -25,5 -41,5 -51,8 -58,8 -56,7 -51,5 -38,3 h -20 -11 -12 l -13,3 h -13 l -15,2 h -15 l -15,-2 -16,-3 -17,-3 -21,-5 h -23 l -23,-2 -28,-3 -25,-2 h -25 l -23,-3 -26,-2 h -28 l -30,-3 -31,-2 -35,-6 -36,-7 -38,-10 -38,-18 -43,-20 -46,-23 -48,-26 -46,-23 -41,-20 -38,-20 -25,-13 -18,-10 -26,-26 -2,-30 18,-23 33,-5 28,5 30,3 33,5 31,2 33,3 33,5 30,2 h 33 l 31,3 30,2 h 31 l 25,3 h 26 l 25,3 h 20 18 l 41,2 33,3 28,7 20,8 18,10 18,10 18,8 20,7 20,8 18,3 15,2 h 16 l 12,-2 13,-3 13,-2 15,-6 15,-5 18,-5 18,-5 20,-7 21,-8 22,-8 23,-7 23,-10 36,-11 41,-10 40,-5 41,-5 38,-5 33,-3 25,-2 16,-5 10,-5 13,-8 15,-10 15,-8 18,-10 20,-10 21,-5 22,-5 51,-3 h 44 l 40,8 33,13 28,17 23,26 15,30 z"
   id="path126"
   inkscape:connector-curvature="0"
   style="fill:#c68470;stroke:none" />
         <path
   d="m 9398,13293 v -13 l 7,-13 8,-7 13,-3 h 13 l 10,5 7,10 5,13 v 13 l -5,10 -10,8 -13,5 -12,-3 -10,-5 -8,-10 z"
   id="path128"
   inkscape:connector-curvature="0"
   style="fill:#c68470;stroke:none" />
         <path
   d="m 10829,13349 v -13 l 8,-10 7,-8 13,-5 h 13 l 10,5 8,10 5,13 v 13 l -5,10 -10,8 -13,5 h -13 l -10,-8 -8,-8 z"
   id="path130"
   inkscape:connector-curvature="0"
   style="fill:#c68470;stroke:none" />
         <path
   d="m 10776,13102 -15,3 -13,2 -13,5 -10,5 -10,5 -10,8 -11,5 -12,8 -21,12 -20,11 -18,7 h -15 l -10,-2 -15,-5 -18,-5 -21,-3 -22,3 -26,7 -25,13 -26,25 -23,5 -28,8 -33,8 -33,5 -33,7 -30,5 -26,6 -15,2 -10,3 -8,2 -7,3 -5,2 -11,3 -12,-3 -18,-5 -23,-10 -25,-10 -21,-8 -17,-2 -16,-3 h -12 -16 l -15,3 h -15 -23 -36 -43 l -48,-3 h -49 l -45,-2 -41,-3 -28,-3 -23,-5 -23,-5 -23,-5 -22,-5 -21,-5 -15,-2 h -13 l -7,2 -21,31 -18,30 -12,28 -8,28 -5,30 -2,34 v 35 l 5,43 30,10 28,13 28,10 25,13 23,10 18,8 13,7 10,3 h 10 l 13,3 h 15 l 18,2 20,3 18,5 18,5 15,5 13,8 18,7 17,8 18,7 21,8 17,8 21,5 18,2 20,3 25,2 28,3 31,2 28,3 h 28 20 l 15,-3 18,-5 h 15 l 13,3 13,8 15,2 33,5 46,5 53,5 56,5 54,5 50,3 39,5 h 27 39 l 40,-2 44,-6 43,-7 40,-10 36,-13 28,-15 28,-21 33,-28 36,-30 35,-31 33,-30 31,-25 20,-23 13,-13 7,-15 8,-21 5,-28 5,-30 -2,-31 -10,-30 -18,-28 -31,-20 -33,-16 -28,-12 -25,-8 -18,-8 -18,-5 -13,-7 -10,-5 -7,-8 -8,-8 -10,-5 -10,-5 -10,-2 -11,-3 h -10 -10 z"
   id="path132"
   inkscape:connector-curvature="0"
   style="fill:#006666;stroke:none" />
         <path
   d="m 10702,13638 31,-33 33,-35 33,-41 33,-41 30,-43 26,-38 18,-38 10,-36 -28,-12 -3,7 -13,21 -17,33 -26,40 -33,49 -40,56 -46,58 -54,61 z"
   id="path134"
   inkscape:connector-curvature="0"
   style="fill:#ffe500;stroke:none" />
         <path
   d="m 10529,13331 26,61 15,63 8,61 5,54 28,-8 -3,-56 -10,-61 -15,-61 -23,-63 z"
   id="path136"
   inkscape:connector-curvature="0"
   style="fill:#ffe500;stroke:none" />
         <path
   d="m 10964,13305 10,-2 5,-5 5,-5 3,-10 -3,-8 -5,-8 -5,-2 -10,-3 -8,3 -5,2 -5,8 -2,8 2,10 5,5 5,5 z"
   id="path138"
   inkscape:connector-curvature="0"
   style="fill:#ffe500;stroke:none" />
         <path
   d="m 10445,13206 -12,18 -8,15 -10,13 -8,15 -10,16 -8,20 -10,25 -10,33 -46,5 10,-48 18,-41 21,-35 22,-26 z"
   id="path140"
   inkscape:connector-curvature="0"
   style="fill:#ffe500;stroke:none" />
         <path
   d="m 9711,13476 -3,12 v 13 13 13 l 36,2 v -13 -10 -12 l 2,-13 z"
   id="path142"
   inkscape:connector-curvature="0"
   style="fill:#ffe500;stroke:none" />
         <path
   d="m 9787,13280 5,-13 8,-12 5,-13 5,-13 -28,-2 -3,2 -7,8 -11,15 -10,23 z"
   id="path144"
   inkscape:connector-curvature="0"
   style="fill:#ffe500;stroke:none" />
         <path
   d="m 9739,13303 -3,13 -5,12 -3,13 -5,15 38,10 3,-12 3,-16 5,-15 5,-15 z"
   id="path146"
   inkscape:connector-curvature="0"
   style="fill:#ffe500;stroke:none" />
         <path
   d="m 9718,13397 -2,13 v 15 l -3,13 -2,15 35,2 3,-12 2,-16 v -12 l 3,-16 z"
   id="path148"
   inkscape:connector-curvature="0"
   style="fill:#ffe500;stroke:none" />
         <path
   d="m 10750,13186 11,-3 5,-5 5,-5 2,-10 -2,-10 -5,-5 -5,-5 -11,-3 -7,3 -5,5 -5,5 -3,10 3,10 5,5 5,5 z"
   id="path150"
   inkscape:connector-curvature="0"
   style="fill:#ffe500;stroke:none" />
         <path
   d="m 11396,13303 -23,-5 -30,-5 -31,-5 -33,-8 -33,-3 -30,-2 -26,-3 -20,3 -15,2 h -13 -10 l -10,-2 -13,-3 -10,-5 -13,-5 -13,-5 -15,-5 -18,-8 -20,-7 -18,-5 -20,-8 -18,-2 -15,-6 h -13 l -25,3 -26,8 -25,7 -21,13 -20,13 -18,15 -12,15 -11,18 -15,38 -15,48 -13,46 -10,33 -15,31 -21,40 -22,46 -16,43 -10,36 -18,69 -20,86 -23,97 -25,96 -21,84 -17,66 -11,33 -7,18 -13,25 -15,31 -18,33 -18,33 -15,33 -13,33 -7,28 -16,76 -17,94 -11,82 v 35 l 38,18 39,15 38,13 40,13 36,10 36,10 30,8 28,5 31,5 35,7 38,5 41,8 43,5 43,5 44,3 43,2 43,3 h 41 l 38,-3 33,-2 31,-5 25,-5 20,-11 16,-10 7,-112 -2,-139 -13,-130 -10,-76 -5,-15 -3,-13 3,-15 5,-21 12,-28 16,-33 10,-30 7,-18 3,-8 5,-2 8,-5 7,-3 33,-15 36,-18 33,-20 33,-26 33,-25 28,-23 26,-23 20,-20 28,-18 30,-20 31,-26 28,-28 28,-28 20,-28 15,-22 8,-18 v -15 l -5,-18 -8,-18 -12,-20 -13,-18 -15,-23 -13,-20 -10,-23 -10,-26 -11,-25 -12,-28 -13,-28 -13,-28 -10,-25 -10,-23 -5,-21 -5,-17 -8,-23 -10,-23 -15,-23 -16,-23 -20,-18 -25,-15 z"
   id="path152"
   inkscape:connector-curvature="0"
   style="fill:#c68470;stroke:none" />
         <path
   d="m 11363,13405 h 13 l 13,-6 7,-7 5,-13 v -13 l -2,-12 -10,-8 -11,-5 h -12 l -13,5 -8,8 -5,12 v 13 l 3,10 7,10 z"
   id="path154"
   inkscape:connector-curvature="0"
   style="fill:#c68470;stroke:none" />
         <path
   d="m 10855,13377 h 12 l 13,-5 8,-8 5,-13 v -13 l -5,-10 -8,-10 -13,-5 h -12 l -11,5 -10,8 -5,12 v 13 l 5,10 8,11 z"
   id="path156"
   inkscape:connector-curvature="0"
   style="fill:#c68470;stroke:none" />
         <path
   d="m 11551,13895 h 13 l 10,-5 10,-8 5,-12 v -13 l -5,-10 -7,-10 -13,-5 h -13 l -10,5 -10,7 -5,13 v 13 l 5,10 8,10 z"
   id="path158"
   inkscape:connector-curvature="0"
   style="fill:#c68470;stroke:none" />
         <path
   d="m 10550,14706 h 12 l 13,-5 8,-8 5,-13 v -12 l -3,-10 -7,-11 -13,-5 h -13 l -13,5 -7,8 -5,13 v 12 l 5,11 7,10 z"
   id="path160"
   inkscape:connector-curvature="0"
   style="fill:#c68470;stroke:none" />
         <path
   d="m 11020,14764 h 13 l 12,-5 8,-7 5,-13 v -13 l -2,-10 -11,-10 -10,-5 h -13 l -12,5 -8,8 -5,12 v 13 l 3,10 7,10 z"
   id="path162"
   inkscape:connector-curvature="0"
   style="fill:#c68470;stroke:none" />
         <path
   d="m 10478,14251 36,25 36,23 40,21 43,17 44,18 45,13 49,13 48,10 48,10 49,5 51,5 48,5 h 48 48 l 49,-2 46,-5 v -8 l 2,-3 3,-2 h 5 l 5,-3 2,-7 3,-11 -3,-15 -5,-15 -5,-15 -2,-16 2,-17 8,-26 7,-33 11,-33 12,-18 10,-5 21,-5 23,-10 28,-13 28,-10 30,-15 26,-13 20,-15 -59,-61 -30,-69 -3,-71 21,-74 35,-73 49,-74 56,-71 61,-64 -13,-33 -13,-33 -10,-25 -8,-20 -58,73 -56,54 -53,40 -51,26 -49,15 -45,5 -44,-3 -43,-7 -23,-8 -28,-10 -25,-15 -20,-21 -16,-25 -5,-30 10,-39 28,-40 33,-41 28,-33 23,-28 21,-20 15,-18 10,-15 10,-10 10,-11 h -15 -15 -15 l -16,-2 -12,-5 -8,-3 h -5 -3 l -17,26 -16,28 -15,25 -13,23 -12,20 -13,21 -10,15 -13,13 -36,27 -38,34 -43,35 -46,36 -48,30 -48,26 -49,17 -45,5 -16,51 -20,77 -23,91 -25,99 -28,94 -23,82 -20,61 -13,30 -3,8 -2,5 2,7 z"
   id="path164"
   inkscape:connector-curvature="0"
   style="fill:#ffffff;stroke:none" />
         <path
   d="m 10486,14238 -10,18 -15,23 -13,25 -15,28 -16,31 -15,30 -10,28 -8,23 -7,31 -13,40 -13,49 -12,53 -11,48 -7,43 v 31 l 5,15 10,3 15,5 26,7 28,8 30,10 38,10 36,13 41,10 38,13 40,10 36,10 33,8 31,8 25,7 20,3 13,2 h 13 l 18,3 h 22 28 31 33 36 35 l 36,-3 h 33 l 33,-2 h 30 l 28,-3 21,-2 17,-5 11,-3 22,-23 11,-35 2,-44 -2,-43 -5,-71 -11,-102 -12,-94 -5,-53 h -18 l 2,20 5,43 3,49 3,28 -18,2 -26,3 -30,2 h -31 l -30,3 h -28 -26 l -17,-3 7,-43 3,-46 2,-40 -2,-23 -15,-3 -16,-2 h -18 l -15,-3 v 48 l -2,44 -5,38 -8,25 h -20 -18 l -15,-2 -13,-3 h -13 l -13,-2 -7,-3 h -10 l -11,15 -15,10 -20,6 -28,-3 -18,-5 -15,-5 -15,-5 -16,-8 -10,-7 -10,-8 -3,-10 v -13 l -17,-5 -16,-5 -17,-5 -13,-5 -13,-5 -13,-8 -10,-5 -7,-8 10,-35 13,-41 17,-41 23,-43 -18,-10 -15,-8 -15,-5 -13,-5 -15,36 -20,46 -21,48 -15,40 -25,-10 -21,-7 -12,-8 -11,-8 11,-22 12,-23 10,-23 13,-23 10,-20 10,-18 8,-15 5,-11 z"
   id="path166"
   inkscape:connector-curvature="0"
   style="fill:#006666;stroke:none" />
         <path
   d="m 10661,14500 v 13 l 3,10 10,8 10,7 16,8 15,5 15,5 18,5 28,3 20,-6 15,-10 11,-15 -28,-5 -21,-3 -15,-5 -5,-5 3,-25 7,-54 13,-48 13,-23 17,3 23,2 21,5 7,3 -2,-13 -8,-12 -13,-11 -20,-7 -15,-3 -16,-2 -17,-3 -18,-2 h -18 l -15,2 -10,8 -8,10 -10,28 -10,38 -10,43 z"
   id="path168"
   inkscape:connector-curvature="0"
   style="fill:#7f99b2;stroke:none" />
         <path
   d="m 10496,14248 -5,11 -8,15 -10,18 -10,20 -13,23 -10,23 -12,23 -11,22 11,8 12,8 21,7 25,10 13,-38 18,-43 17,-41 18,-35 -18,-8 -12,-7 -13,-8 z"
   id="path170"
   inkscape:connector-curvature="0"
   style="fill:#000000;stroke:none" />
         <path
   d="m 11193,14401 2,20 5,43 3,49 3,28 -18,2 -26,3 -30,2 h -31 l -30,3 h -28 -26 l -17,-3 7,-43 3,-46 2,-40 -2,-23 23,2 h 25 l 28,3 h 25 26 23 20 z"
   id="path172"
   inkscape:connector-curvature="0"
   style="fill:#000000;stroke:none" />
         <path
   d="m 10946,14388 v 48 l -2,44 -5,38 -8,25 h -20 -18 l -15,-2 -13,-3 h -13 l -13,-2 -7,-3 h -10 l -28,-5 -21,-3 -15,-5 -5,-5 3,-25 7,-54 13,-48 13,-23 17,3 23,2 21,5 7,3 h 13 l 15,3 h 13 l 13,2 10,3 h 10 l 8,2 z"
   id="path174"
   inkscape:connector-curvature="0"
   style="fill:#000000;stroke:none" />
         <path
   d="m 10611,14304 -21,41 -15,38 -13,38 -7,33 7,8 10,5 13,8 13,5 13,5 17,5 16,5 17,5 6,-46 10,-43 10,-38 10,-28 -8,-5 -10,-3 -12,-7 -11,-5 -12,-5 -13,-6 -10,-5 z"
   id="path176"
   inkscape:connector-curvature="0"
   style="fill:#000000;stroke:none" />
         <path
   d="m 11132,14775 15,7 18,10 15,8 18,8 15,7 15,5 13,5 13,3 5,-64 5,-45 8,-31 7,-25 h 13 l 18,-8 15,-13 13,-20 15,-36 25,-73 36,-102 41,-114 43,-117 41,-104 35,-79 26,-43 22,-21 28,-25 31,-31 25,-33 18,-38 5,-46 -7,-53 -26,-61 -15,-25 -20,-31 -21,-30 -15,-31 -8,-15 -10,-15 -10,-18 -10,-18 -10,-18 -10,-15 -11,-13 -10,-12 -35,40 -51,54 -61,63 -66,66 -66,71 -56,69 -44,64 -22,53 -18,114 -10,132 -6,130 3,102 8,96 5,117 2,112 z"
   id="path178"
   inkscape:connector-curvature="0"
   style="fill:#006666;stroke:none" />
         <path
   d="m 10445,14309 11,-20 7,-15 8,-13 7,-10 -2,-3 -3,-5 v -2 -3 -2 -3 l 3,-2 2,-5 16,-39 17,-61 23,-76 23,-84 23,-81 18,-71 15,-56 8,-28 46,-26 43,-27 43,-28 46,-28 40,-31 41,-33 41,-30 38,-33 38,-31 33,-33 33,-31 28,-30 28,-28 23,-28 20,-25 18,-26 -25,-5 -26,-10 -25,-10 -26,-13 -25,-13 -25,-10 -23,-10 -21,-8 -25,-5 -36,-5 -43,3 -51,5 -53,13 -59,22 -56,34 -53,45 -51,54 -46,50 -40,49 -38,46 -36,43 -33,40 -31,33 -25,31 -23,25 -23,21 -18,20 -12,15 -13,18 -8,13 -7,15 -3,15 -18,21 -22,22 -26,28 -25,28 -23,31 -20,28 -13,25 -5,21 2,35 3,33 2,28 v 21 l -17,22 -21,23 -15,21 -3,12 28,36 31,33 28,28 28,25 25,21 26,15 20,10 15,3 h 13 l 10,-3 5,-2 h 3 l 15,-31 15,-23 8,-18 5,-17 h 15 l 18,2 20,5 21,5 25,8 23,8 25,10 z"
   id="path180"
   inkscape:connector-curvature="0"
   style="fill:#006666;stroke:none" />
         <path
   d="m 11145,13885 -18,114 -10,132 -6,130 3,102 8,96 5,117 2,112 3,87 5,2 8,5 7,3 8,5 -3,-160 -7,-122 -8,-89 -5,-54 v -78 l 2,-135 11,-145 15,-122 z"
   id="path182"
   inkscape:connector-curvature="0"
   style="fill:#ffe500;stroke:none" />
         <path
   d="m 10201,14353 h 13 l 10,-3 5,-2 h 3 l 15,-31 15,-23 8,-18 5,-17 36,-100 43,-91 48,-81 54,-74 53,-69 51,-58 51,-54 48,-48 28,-30 35,-38 41,-44 41,-48 38,-51 33,-48 25,-48 16,-44 -28,-12 -5,7 -11,23 -20,33 -28,43 -33,54 -43,56 -48,61 -56,63 -56,59 -59,63 -58,66 -59,66 -51,67 -43,63 -33,61 -20,56 -10,46 -16,48 -17,51 z"
   id="path184"
   inkscape:connector-curvature="0"
   style="fill:#ffe500;stroke:none" />
         <path
   d="m 10201,13783 28,-10 33,-13 33,-7 33,-10 31,-5 30,-8 28,-3 23,-2 3,35 -36,3 -35,5 -39,5 -40,10 -38,13 -38,15 -39,15 -35,21 z"
   id="path186"
   inkscape:connector-curvature="0"
   style="fill:#ffe500;stroke:none" />
         <path
   d="m 10529,13331 26,61 15,63 8,61 5,54 28,-8 -3,-56 -10,-61 -15,-61 -23,-63 z"
   id="path188"
   inkscape:connector-curvature="0"
   style="fill:#ffe500;stroke:none" />
         <path
   d="m 11259,13765 18,-7 20,-10 20,-10 26,-13 30,-13 31,-13 35,-12 41,-13 3,13 5,10 2,7 v 3 l -40,13 -33,15 -34,10 -27,13 -26,10 -23,10 -23,10 -20,8 z"
   id="path190"
   inkscape:connector-curvature="0"
   style="fill:#ffe500;stroke:none" />
         <path
   d="m 11521,13638 10,-2 5,-5 5,-5 3,-8 -3,-10 -5,-5 -5,-5 -10,-3 -8,3 -7,5 -3,5 -3,10 3,8 3,5 7,5 z"
   id="path192"
   inkscape:connector-curvature="0"
   style="fill:#ffe500;stroke:none" />
         <path
   d="m 10906,13849 h 12 26 l 33,-7 43,-10 48,-18 54,-21 58,-28 59,-33 12,-12 8,-10 8,-8 5,-8 -44,23 -50,26 -51,25 -54,25 -51,21 -45,12 -36,3 -25,-8 -10,-28 7,-48 20,-63 26,-69 30,-71 28,-61 26,-48 13,-26 -21,20 -13,13 -10,8 -7,7 -33,69 -28,69 -26,63 -20,56 -10,51 -5,41 5,30 z"
   id="path194"
   inkscape:connector-curvature="0"
   style="fill:#000000;stroke:none" />
         <path
   d="m 10936,13987 -3,17 -5,16 -7,12 -10,13 -13,10 -13,8 -15,5 -18,2 -18,-2 -15,-5 -15,-8 -13,-10 -10,-13 -8,-12 -5,-16 -2,-17 2,-18 5,-15 8,-16 10,-12 13,-11 15,-7 15,-5 18,-3 18,3 15,5 13,7 13,11 10,12 7,16 5,15 3,18 h 31 l -3,-23 -8,-23 -10,-18 -13,-18 -17,-12 -18,-11 -23,-7 -23,-3 -23,3 -23,7 -17,11 -18,12 -13,18 -10,18 -8,23 -2,23 2,22 8,23 10,18 13,18 18,13 17,10 23,7 23,3 23,-3 23,-7 18,-10 17,-13 13,-18 10,-18 8,-23 3,-22 z"
   id="path196"
   inkscape:connector-curvature="0"
   style="fill:#ea33c1;stroke:none" />
         <path
   d="m 10936,14027 -74,-53 31,-69 -33,-10 -38,99 -61,10 17,33 64,-25 46,56 z"
   id="path198"
   inkscape:connector-curvature="0"
   style="fill:#ea33c1;stroke:none" />
         <path
   d="m 10890,13887 10,-2 8,-5 5,-10 3,-10 -3,-11 -5,-7 -8,-5 -10,-3 -10,3 -10,5 -5,7 -3,11 3,10 5,10 10,5 z"
   id="path200"
   inkscape:connector-curvature="0"
   style="fill:#ea33c1;stroke:none" />
         <path
   d="m 11048,13677 18,-28 25,-33 28,-36 28,-36 28,-33 23,-28 18,-17 5,-8 28,-74 7,13 8,10 10,10 10,10 11,8 10,5 12,5 16,5 -82,36 -173,213 -33,31 -12,-5 z"
   id="path202"
   inkscape:connector-curvature="0"
   style="fill:#d8d8d8;stroke:none" />
         <path
   d="m 11333,13450 -16,-5 -12,-5 -10,-5 -11,-8 -10,-10 -10,-10 -8,-10 -7,-13 2,-20 5,-18 11,-15 12,-15 8,-8 10,-13 13,-15 12,-13 13,-12 15,-11 13,-5 h 10 l 13,5 15,6 13,7 15,10 13,10 8,8 7,8 v 7 l -7,21 -11,23 -15,25 -18,23 -17,23 -21,18 -18,12 z"
   id="path204"
   inkscape:connector-curvature="0"
   style="fill:#000000;stroke:none" />
         <path
   d="m 11066,13704 -21,54 -7,66 2,79 13,81 20,86 23,82 28,76 28,66 41,79 51,74 56,71 61,68 63,67 69,63 66,66 66,61 66,64 61,66 54,63 50,66 41,69 31,71 17,74 8,79 -3,73 -10,64 -15,58 -20,49 -28,45 -31,39 -33,33 -38,28 -41,25 -43,20 -46,21 -48,17 -48,16 -51,15 -48,15 -51,15 -5,-25 51,-15 48,-15 48,-16 48,-15 46,-15 46,-18 41,-20 40,-23 36,-26 33,-33 30,-35 26,-43 18,-49 15,-56 10,-63 3,-74 -8,-74 -18,-73 -33,-69 -40,-66 -49,-64 -56,-63 -61,-61 -66,-61 -66,-61 -69,-64 -66,-63 -66,-66 -61,-66 -56,-72 -51,-73 -40,-77 -33,-78 -31,-82 -25,-86 -18,-86 -10,-82 v -79 l 10,-68 25,-59 z"
   id="path206"
   inkscape:connector-curvature="0"
   style="fill:#000000;stroke:none" />
         <path
   d="m 11320,13399 10,-10 13,-15 13,-15 12,-18 10,-15 11,-13 5,-10 2,-3 -23,-12 -78,91 z"
   id="path208"
   inkscape:connector-curvature="0"
   style="fill:#d8d8d8;stroke:none" />
         <path
   d="m 11320,13824 -10,15 -15,8 -18,5 -18,-5 -10,-5 -13,-5 -13,-8 -15,-8 -15,-7 -15,-10 -16,-5 -12,-8 -13,-5 -15,-8 -18,-10 -18,-8 -18,-7 -15,-8 -13,-7 -7,-3 -18,-5 -18,-8 -10,-12 v -18 l 10,-15 18,-21 23,-20 23,-26 25,-20 25,-20 18,-13 13,-5 h 15 l 15,5 16,8 10,12 8,13 15,20 18,28 17,31 18,30 15,26 13,20 8,13 7,15 5,18 v 18 z"
   id="path210"
   inkscape:connector-curvature="0"
   style="fill:#c68470;stroke:none" />
         <path
   d="m 11251,13796 8,-10 10,-8 10,-2 13,2 10,8 8,10 2,13 -2,12 -8,11 -10,5 -13,2 -12,-2 -11,-8 -5,-10 -2,-10 z"
   id="path212"
   inkscape:connector-curvature="0"
   style="fill:#c68470;stroke:none" />
         <path
   d="m 11200,14050 -5,79 8,91 13,87 10,56 7,28 13,40 18,51 23,54 23,50 25,41 23,26 20,7 28,-15 26,-23 23,-30 20,-39 18,-38 15,-40 13,-39 10,-33 8,-30 12,-36 10,-38 13,-40 13,-39 10,-33 8,-28 5,-20 7,-30 5,-33 6,-28 7,-21 31,-68 15,-59 5,-48 -5,-43 -8,-26 -12,-25 -18,-23 -21,-20 -22,-16 -28,-10 -31,-5 -33,5 -25,10 -26,16 -20,17 -18,21 -15,23 -10,20 -8,20 -5,16 -5,33 -5,45 -3,46 v 36 l -10,-41 -10,-43 -10,-33 -5,-26 -5,-28 -11,-33 -17,-23 -31,-5 -18,8 -10,13 -5,20 -3,25 -5,36 -7,64 -10,68 z"
   id="path214"
   inkscape:connector-curvature="0"
   style="fill:#c68470;stroke:none" />
         <path
   d="m 11249,13816 v -12 l 5,-13 7,-10 11,-5 h 12 l 13,5 8,7 5,13 v 13 l -3,10 -7,10 -13,5 h -13 l -10,-5 -10,-8 z"
   id="path216"
   inkscape:connector-curvature="0"
   style="fill:#c68470;stroke:none" />
         <path
   d="m 11526,13870 v -13 l 5,-10 8,-10 12,-5 h 13 l 10,2 10,10 5,10 v 13 l -5,13 -7,10 -13,5 h -13 l -10,-5 -10,-8 z"
   id="path218"
   inkscape:connector-curvature="0"
   style="fill:#c68470;stroke:none" />
         <path
   d="m 11747,13677 -23,-11 -38,-5 -51,-5 h -53 l -56,5 -51,13 -41,18 -25,30 -13,18 -18,36 -15,56 -2,89 -8,-41 -8,-46 -10,-35 -7,-13 -13,5 -28,10 -36,18 -38,18 -41,20 -33,20 -22,16 -11,10 v 45 l 5,49 6,48 7,48 10,46 16,41 17,38 21,33 5,13 2,23 5,27 8,26 8,25 10,26 7,25 3,15 3,13 10,28 15,38 18,43 18,44 20,35 18,28 18,13 15,2 20,-2 23,-5 23,-8 20,-10 21,-10 17,-13 13,-13 15,-12 26,-21 30,-20 33,-23 33,-23 26,-23 18,-20 5,-18 -3,-40 -5,-49 -2,-43 2,-28 15,-46 16,-48 12,-48 13,-48 8,-46 2,-43 v -39 l -5,-30 13,-13 12,-15 16,-15 12,-18 13,-18 10,-15 5,-18 v -15 l -5,-36 -10,-38 -10,-33 -8,-18 -12,-5 -13,-2 -13,-5 z"
   id="path220"
   inkscape:connector-curvature="0"
   style="fill:#006666;stroke:none" />
         <path
   d="m 11717,14203 -26,-3 -23,-8 -20,-12 -18,-15 -15,-21 -10,-20 -8,-23 -2,-25 2,-26 8,-25 10,-21 18,-20 17,-15 21,-10 25,-8 26,-3 h 5 7 8 l 5,3 3,15 2,13 v 13 10 l -18,-5 -20,2 -15,5 -15,8 -16,13 -10,12 -5,18 -3,18 v 13 l 6,18 7,17 18,16 8,-8 20,-15 20,-21 18,-20 -2,20 -6,18 -2,15 -3,13 -7,8 -3,5 -5,5 v 2 l 8,3 z"
   id="path222"
   inkscape:connector-curvature="0"
   style="fill:#ea33c1;stroke:none" />
         <path
   d="m 11401,14009 8,-7 8,-8 7,-7 8,-8 30,46 -7,5 -8,5 -8,8 -7,5 z"
   id="path224"
   inkscape:connector-curvature="0"
   style="fill:#ffe500;stroke:none" />
         <path
   d="m 11249,14096 12,-5 16,-5 12,-8 16,-5 15,41 -13,7 -15,5 -15,8 -13,5 z"
   id="path226"
   inkscape:connector-curvature="0"
   style="fill:#ffe500;stroke:none" />
         <path
   d="m 11226,14154 -13,5 -15,6 -15,2 -13,3 -13,-46 13,-3 15,-2 15,-5 13,-5 z"
   id="path228"
   inkscape:connector-curvature="0"
   style="fill:#ffe500;stroke:none" />
         <path
   d="m 11335,14055 13,-7 10,-8 13,-8 10,-7 23,40 -13,8 -10,8 -13,7 -12,8 z"
   id="path230"
   inkscape:connector-curvature="0"
   style="fill:#ffe500;stroke:none" />
        </g>
       </g>
      </g>
     </g>
    </g>
   </g>
  </g>
 </g>
</svg>