<?xml version="1.0" encoding="UTF-8" standalone="no"?>
<svg
   xmlns:ooo="http://xml.openoffice.org/svg/export"
   xmlns:dc="http://purl.org/dc/elements/1.1/"
   xmlns:cc="http://creativecommons.org/ns#"
   xmlns:rdf="http://www.w3.org/1999/02/22-rdf-syntax-ns#"
   xmlns:svg="http://www.w3.org/2000/svg"
   xmlns="http://www.w3.org/2000/svg"
   xmlns:sodipodi="http://sodipodi.sourceforge.net/DTD/sodipodi-0.dtd"
   xmlns:inkscape="http://www.inkscape.org/namespaces/inkscape"
   version="1.2"
   width="28.75mm"
   height="31.75mm"
   viewBox="0 0 2875 3175"
   preserveAspectRatio="xMidYMid"
   xml:space="preserve"
   id="svg387"
   sodipodi:docname="rodeo.svg"
   style="fill-rule:evenodd;stroke-width:28.22200012;stroke-linejoin:round"
   inkscape:version="0.92.5 (2060ec1f9f, 2020-04-08)"><metadata
   id="metadata391"><rdf:RDF><cc:Work
       rdf:about=""><dc:format>image/svg+xml</dc:format><dc:type
         rdf:resource="http://purl.org/dc/dcmitype/StillImage" /></cc:Work></rdf:RDF></metadata><sodipodi:namedview
   pagecolor="#ffffff"
   bordercolor="#666666"
   borderopacity="1"
   objecttolerance="10"
   gridtolerance="10"
   guidetolerance="10"
   inkscape:pageopacity="0"
   inkscape:pageshadow="2"
   inkscape:window-width="664"
   inkscape:window-height="487"
   id="namedview389"
   showgrid="false"
   inkscape:zoom="0.2102413"
   inkscape:cx="54.349607"
   inkscape:cy="59.981101"
   inkscape:window-x="0"
   inkscape:window-y="0"
   inkscape:window-maximized="0"
   inkscape:current-layer="svg387" />
 <defs
   class="ClipPathGroup"
   id="defs8">
  <clipPath
   id="presentation_clip_path"
   clipPathUnits="userSpaceOnUse">
   <rect
   x="0"
   y="0"
   width="21000"
   height="29700"
   id="rect2" />
  </clipPath>
  <clipPath
   id="presentation_clip_path_shrink"
   clipPathUnits="userSpaceOnUse">
   <rect
   x="21"
   y="29"
   width="20958"
   height="29641"
   id="rect5" />
  </clipPath>
 </defs>
 <defs
   class="TextShapeIndex"
   id="defs12">
  <g
   ooo:slide="id1"
   ooo:id-list="id3"
   id="g10" />
 </defs>
 <defs
   class="EmbeddedBulletChars"
   id="defs44">
  <g
   id="bullet-char-template-57356"
   transform="matrix(4.8828125e-4,0,0,-4.8828125e-4,0,0)">
   <path
   d="M 580,1141 1163,571 580,0 -4,571 Z"
   id="path14"
   inkscape:connector-curvature="0" />
  </g>
  <g
   id="bullet-char-template-57354"
   transform="matrix(4.8828125e-4,0,0,-4.8828125e-4,0,0)">
   <path
   d="M 8,1128 H 1137 V 0 H 8 Z"
   id="path17"
   inkscape:connector-curvature="0" />
  </g>
  <g
   id="bullet-char-template-10146"
   transform="matrix(4.8828125e-4,0,0,-4.8828125e-4,0,0)">
   <path
   d="M 174,0 602,739 174,1481 1456,739 Z M 1358,739 309,1346 659,739 Z"
   id="path20"
   inkscape:connector-curvature="0" />
  </g>
  <g
   id="bullet-char-template-10132"
   transform="matrix(4.8828125e-4,0,0,-4.8828125e-4,0,0)">
   <path
   d="M 2015,739 1276,0 H 717 l 543,543 H 174 v 393 h 1086 l -543,545 h 557 z"
   id="path23"
   inkscape:connector-curvature="0" />
  </g>
  <g
   id="bullet-char-template-10007"
   transform="matrix(4.8828125e-4,0,0,-4.8828125e-4,0,0)">
   <path
   d="m 0,-2 c -7,16 -16,29 -25,39 l 381,530 c -94,256 -141,385 -141,387 0,25 13,38 40,38 9,0 21,-2 34,-5 21,4 42,12 65,25 l 27,-13 111,-251 280,301 64,-25 24,25 c 21,-10 41,-24 62,-43 C 886,937 835,863 770,784 769,783 710,716 594,584 L 774,223 c 0,-27 -21,-55 -63,-84 l 16,-20 C 717,90 699,76 672,76 641,76 570,178 457,381 L 164,-76 c -22,-34 -53,-51 -92,-51 -42,0 -63,17 -64,51 -7,9 -10,24 -10,44 0,9 1,19 2,30 z"
   id="path26"
   inkscape:connector-curvature="0" />
  </g>
  <g
   id="bullet-char-template-10004"
   transform="matrix(4.8828125e-4,0,0,-4.8828125e-4,0,0)">
   <path
   d="M 285,-33 C 182,-33 111,30 74,156 52,228 41,333 41,471 c 0,78 14,145 41,201 34,71 87,106 158,106 53,0 88,-31 106,-94 l 23,-176 c 8,-64 28,-97 59,-98 l 735,706 c 11,11 33,17 66,17 42,0 63,-15 63,-46 V 965 c 0,-36 -10,-64 -30,-84 L 442,47 C 390,-6 338,-33 285,-33 Z"
   id="path29"
   inkscape:connector-curvature="0" />
  </g>
  <g
   id="bullet-char-template-9679"
   transform="matrix(4.8828125e-4,0,0,-4.8828125e-4,0,0)">
   <path
   d="M 813,0 C 632,0 489,54 383,161 276,268 223,411 223,592 c 0,181 53,324 160,431 106,107 249,161 430,161 179,0 323,-54 432,-161 108,-107 162,-251 162,-431 0,-180 -54,-324 -162,-431 C 1136,54 992,0 813,0 Z"
   id="path32"
   inkscape:connector-curvature="0" />
  </g>
  <g
   id="bullet-char-template-8226"
   transform="matrix(4.8828125e-4,0,0,-4.8828125e-4,0,0)">
   <path
   d="m 346,457 c -73,0 -137,26 -191,78 -54,51 -81,114 -81,188 0,73 27,136 81,188 54,52 118,78 191,78 73,0 134,-26 185,-79 51,-51 77,-114 77,-187 0,-75 -25,-137 -76,-188 -50,-52 -112,-78 -186,-78 z"
   id="path35"
   inkscape:connector-curvature="0" />
  </g>
  <g
   id="bullet-char-template-8211"
   transform="matrix(4.8828125e-4,0,0,-4.8828125e-4,0,0)">
   <path
   d="M -4,459 H 1135 V 606 H -4 Z"
   id="path38"
   inkscape:connector-curvature="0" />
  </g>
  <g
   id="bullet-char-template-61548"
   transform="matrix(4.8828125e-4,0,0,-4.8828125e-4,0,0)">
   <path
   d="m 173,740 c 0,163 58,303 173,419 116,115 255,173 419,173 163,0 302,-58 418,-173 116,-116 174,-256 174,-419 0,-163 -58,-303 -174,-418 C 1067,206 928,148 765,148 601,148 462,206 346,322 231,437 173,577 173,740 Z"
   id="path41"
   inkscape:connector-curvature="0" />
  </g>
 </defs>
 <g
   id="g49"
   transform="translate(-9062,-13262)">
  <g
   id="id2"
   class="Master_Slide">
   <g
   id="bg-id2"
   class="Background" />
   <g
   id="bo-id2"
   class="BackgroundObjects" />
  </g>
 </g>
 <g
   class="SlideGroup"
   id="g385"
   transform="translate(-9062,-13262)">
  <g
   id="g383">
   <g
   id="container-id1">
    <g
   id="id1"
   class="Slide"
   clip-path="url(#presentation_clip_path)">
     <g
   class="Page"
   id="g379">
      <g
   class="Graphic"
   id="g377">
       <g
   id="id3">
        <rect
   class="BoundingBox"
   x="9062"
   y="13262"
   width="2875"
   height="3175"
   id="rect51"
   style="fill:none;stroke:none" />
        <defs
   id="defs56">
         <clipPath
   id="clip_path_1"
   clipPathUnits="userSpaceOnUse">
          <path
   d="m 9062,13262 h 2874 v 3174 H 9062 Z"
   id="path53"
   inkscape:connector-curvature="0" />
         </clipPath>
        </defs>
        <g
   clip-path="url(#clip_path_1)"
   id="g374">
         <path
   d="m 9062,14993 v -1062 l 8,-74 20,-69 33,-63 46,-54 53,-45 64,-34 68,-20 74,-7 h 2140 l 74,7 69,20 63,34 56,45 43,54 36,63 20,69 8,74 v 1062 z"
   id="path58"
   inkscape:connector-curvature="0"
   style="fill:#00e5e5;stroke:none" />
         <path
   d="m 9049,13931 v 0 1062 h 26 v -1062 0 0 l -5,-8 -8,-5 -8,5 z"
   id="path60"
   inkscape:connector-curvature="0"
   style="fill:#000000;stroke:none" />
         <path
   d="m 9428,13552 v 0 l -74,10 -71,20 -66,33 -56,49 -48,56 -33,66 -21,71 -10,74 h 26 l 5,-74 20,-66 33,-61 43,-51 51,-43 61,-33 66,-21 74,-5 v 0 0 l 8,-5 5,-7 -5,-8 z"
   id="path62"
   inkscape:connector-curvature="0"
   style="fill:#000000;stroke:none" />
         <path
   d="m 11568,13552 v 0 H 9428 v 25 h 2140 v 0 0 l 8,-5 5,-7 -5,-8 z"
   id="path64"
   inkscape:connector-curvature="0"
   style="fill:#000000;stroke:none" />
         <path
   d="m 11950,13931 v 0 l -10,-74 -21,-71 -35,-66 -46,-56 -59,-49 -66,-33 -71,-20 -74,-10 v 25 l 74,5 66,21 61,33 54,43 40,51 36,61 20,66 5,74 v 0 0 l 5,7 8,3 8,-3 z"
   id="path66"
   inkscape:connector-curvature="0"
   style="fill:#000000;stroke:none" />
         <path
   d="m 11937,15006 13,-13 v -1062 h -26 v 1062 l 13,-13 -13,13 5,8 8,2 8,-2 5,-8 z"
   id="path68"
   inkscape:connector-curvature="0"
   style="fill:#000000;stroke:none" />
         <path
   d="m 9049,14993 13,13 h 2875 v -26 H 9062 l 13,13 -13,-13 -8,5 -2,8 2,8 8,5 z"
   id="path70"
   inkscape:connector-curvature="0"
   style="fill:#000000;stroke:none" />
         <path
   d="m 11937,14993 v 1078 l -8,74 -20,68 -36,64 -43,53 -56,46 -63,33 -69,20 -74,8 H 9428 l -74,-8 -68,-20 -64,-33 -53,-46 -46,-53 -33,-64 -20,-68 -8,-74 v -1078 z"
   id="path72"
   inkscape:connector-curvature="0"
   style="fill:#ffd893;stroke:none" />
         <path
   d="m 11950,16071 v 0 -1078 h -26 v 1078 0 0 l 5,8 8,2 8,-2 z"
   id="path74"
   inkscape:connector-curvature="0"
   style="fill:#000000;stroke:none" />
         <path
   d="m 11568,16450 v 0 l 74,-10 71,-21 66,-33 59,-48 46,-56 35,-66 21,-71 10,-74 h -26 l -5,74 -20,66 -36,61 -40,51 -54,43 -61,33 -66,20 -74,5 v 0 0 l -7,5 -3,8 3,8 z"
   id="path76"
   inkscape:connector-curvature="0"
   style="fill:#000000;stroke:none" />
         <path
   d="m 9428,16450 v 0 h 2140 v -26 H 9428 v 0 0 l -8,5 -2,8 2,8 z"
   id="path78"
   inkscape:connector-curvature="0"
   style="fill:#000000;stroke:none" />
         <path
   d="m 9049,16071 v 0 l 10,74 21,71 33,66 48,56 56,48 66,33 71,21 74,10 v -26 l -74,-5 -66,-20 -61,-33 -51,-43 -43,-51 -33,-61 -20,-66 -5,-74 v 0 0 l -5,-8 -8,-5 -8,5 z"
   id="path80"
   inkscape:connector-curvature="0"
   style="fill:#000000;stroke:none" />
         <path
   d="m 9062,14980 -13,13 v 1078 h 26 v -1078 l -13,13 13,-13 -5,-8 -8,-5 -8,5 -5,8 z"
   id="path82"
   inkscape:connector-curvature="0"
   style="fill:#000000;stroke:none" />
         <path
   d="m 11950,14993 -13,-13 H 9062 v 26 h 2875 l -13,-13 13,13 8,-5 5,-8 -5,-8 -8,-5 z"
   id="path84"
   inkscape:connector-curvature="0"
   style="fill:#000000;stroke:none" />
         <path
   d="m 11520,14330 43,-5 38,-13 36,-18 33,-28 26,-30 20,-36 10,-41 5,-43 -5,-43 -10,-38 -20,-36 -26,-33 -33,-25 -36,-21 -38,-10 -43,-5 -43,5 -41,10 -35,21 -31,25 -28,33 -18,36 -12,38 -5,43 5,43 12,41 18,36 28,30 31,28 35,18 41,13 z"
   id="path86"
   inkscape:connector-curvature="0"
   style="fill:#ffff00;stroke:none" />
         <path
   d="m 11718,14116 v 0 l -2,43 -10,38 -21,34 -23,27 -30,26 -33,18 -38,12 -41,3 v 25 l 46,-7 38,-13 38,-18 36,-30 28,-33 20,-38 10,-44 8,-43 v 0 z"
   id="path88"
   inkscape:connector-curvature="0"
   style="fill:#000000;stroke:none" />
         <path
   d="m 11520,13918 v 0 l 43,2 36,11 33,20 30,23 23,30 21,33 10,36 2,43 h 26 l -8,-43 -10,-41 -20,-38 -28,-35 -36,-28 -38,-21 -41,-10 -43,-8 v 0 z"
   id="path90"
   inkscape:connector-curvature="0"
   style="fill:#000000;stroke:none" />
         <path
   d="m 11319,14116 v 0 l 3,-41 13,-38 17,-33 26,-30 28,-23 33,-20 38,-11 43,-2 v -26 l -43,8 -43,10 -38,21 -33,28 -31,35 -18,38 -12,38 -8,46 v 0 z"
   id="path92"
   inkscape:connector-curvature="0"
   style="fill:#000000;stroke:none" />
         <path
   d="m 11520,14317 v 0 l -41,-3 -40,-12 -33,-18 -28,-26 -26,-27 -17,-34 -13,-40 -3,-41 h -25 l 8,46 12,41 18,38 31,33 33,30 38,18 40,13 46,7 v 0 z"
   id="path94"
   inkscape:connector-curvature="0"
   style="fill:#000000;stroke:none" />
         <path
   d="m 11568,16455 v 0 l 77,-10 71,-21 66,-35 58,-49 46,-56 38,-66 21,-71 10,-76 h -36 l -5,71 -20,66 -33,61 -41,51 -53,43 -61,31 -66,20 -72,5 v 0 0 l -12,5 -5,13 5,13 z"
   id="path96"
   inkscape:connector-curvature="0"
   style="fill:#000000;stroke:none" />
         <path
   d="m 9428,16455 v 0 h 2140 v -36 H 9428 v 0 0 l -13,5 -5,13 5,13 z"
   id="path98"
   inkscape:connector-curvature="0"
   style="fill:#000000;stroke:none" />
         <path
   d="m 9044,16071 v 0 l 10,76 21,71 35,66 49,56 56,49 66,35 71,21 76,10 v -36 l -71,-5 -66,-20 -61,-31 -51,-43 -43,-51 -31,-61 -20,-66 -5,-71 v 0 0 l -5,-13 -13,-5 -13,5 z"
   id="path100"
   inkscape:connector-curvature="0"
   style="fill:#000000;stroke:none" />
         <path
   d="m 9044,13931 v 0 2140 h 36 v -2140 0 0 l -5,-13 -13,-5 -13,5 z"
   id="path102"
   inkscape:connector-curvature="0"
   style="fill:#000000;stroke:none" />
         <path
   d="m 9428,13547 v 0 l -76,10 -71,20 -66,36 -56,48 -49,56 -35,66 -21,71 -10,77 h 36 l 5,-72 20,-66 31,-61 43,-51 51,-43 61,-30 66,-21 71,-5 v 0 0 l 13,-5 5,-12 -5,-13 z"
   id="path104"
   inkscape:connector-curvature="0"
   style="fill:#000000;stroke:none" />
         <path
   d="m 11568,13547 v 0 H 9428 v 35 h 2140 v 0 0 l 13,-5 5,-12 -5,-13 z"
   id="path106"
   inkscape:connector-curvature="0"
   style="fill:#000000;stroke:none" />
         <path
   d="m 11955,13931 v 0 l -10,-77 -21,-71 -38,-66 -46,-56 -58,-48 -66,-36 -71,-20 -77,-10 v 35 l 72,5 66,21 61,30 53,43 41,51 33,61 20,66 5,72 v 0 0 l 5,12 13,5 13,-5 z"
   id="path108"
   inkscape:connector-curvature="0"
   style="fill:#000000;stroke:none" />
         <path
   d="m 11955,16071 v 0 -2140 h -36 v 2140 0 0 l 5,13 13,5 13,-5 z"
   id="path110"
   inkscape:connector-curvature="0"
   style="fill:#000000;stroke:none" />
         <path
   d="m 10419,15781 -7,150 28,5 33,3 38,2 38,3 h 41 43 43 43 l 41,-3 h 41 l 38,-2 h 35 l 31,-3 28,-2 h 23 l 15,-3 -23,-30 -28,-28 -30,-31 -31,-28 -28,-23 -23,-17 -17,-13 -6,-5 z"
   id="path112"
   inkscape:connector-curvature="0"
   style="fill:#000000;stroke:none" />
         <path
   d="m 10412,15921 10,10 8,-150 h -21 l -7,150 10,10 -10,-10 -3,10 h 13 z"
   id="path114"
   inkscape:connector-curvature="0"
   style="fill:#000000;stroke:none" />
         <path
   d="m 10961,15936 10,-15 -15,3 -23,-3 -28,5 h -31 -35 l -38,3 h -41 l -41,2 h -43 -43 -43 -41 -38 l -38,-2 -33,-3 -28,-5 v 20 l 28,5 33,3 38,2 38,6 h 41 43 43 43 l 41,-3 h 41 l 38,-3 h 35 l 31,-5 h 28 l 23,-2 15,-3 10,-15 -10,15 h 20 l -10,-15 z"
   id="path116"
   inkscape:connector-curvature="0"
   style="fill:#000000;stroke:none" />
         <path
   d="m 10785,15766 h -5 l 3,2 20,13 21,18 28,23 30,28 31,30 28,28 20,28 20,-10 -25,-33 -28,-28 -31,-30 -30,-28 -28,-23 -26,-18 -15,-13 -7,-7 h -6 6 l -3,-3 -3,3 z"
   id="path118"
   inkscape:connector-curvature="0"
   style="fill:#000000;stroke:none" />
         <path
   d="m 10430,15781 -11,10 366,-25 v -20 l -366,25 -10,10 10,-10 h -10 v 10 z"
   id="path120"
   inkscape:connector-curvature="0"
   style="fill:#000000;stroke:none" />
         <path
   d="m 9433,15756 -5,5 -18,13 -23,17 -28,23 -30,28 -31,31 -28,28 -22,30 15,3 h 23 l 28,2 30,3 h 36 l 38,2 h 41 l 43,3 h 43 43 41 43 l 38,-3 38,-2 33,-3 28,-5 -7,-150 z"
   id="path122"
   inkscape:connector-curvature="0"
   style="fill:#000000;stroke:none" />
         <path
   d="m 9248,15921 10,15 20,-28 28,-28 31,-30 30,-28 28,-23 20,-18 21,-13 2,-2 -10,-20 -8,7 -15,13 -25,18 -28,23 -31,28 -30,30 -28,28 -26,33 11,15 -11,-15 -10,15 h 21 z"
   id="path124"
   inkscape:connector-curvature="0"
   style="fill:#000000;stroke:none" />
         <path
   d="m 9799,15931 10,-10 -28,5 -33,3 -38,2 h -38 -43 -41 -43 -43 l -43,-2 h -41 l -38,-3 h -36 -30 l -28,-5 -23,3 -15,-3 v 20 l 15,3 23,2 h 28 l 30,5 h 36 l 38,3 h 41 l 43,3 h 43 43 41 43 l 38,-6 38,-2 33,-3 28,-5 11,-10 -11,10 h 13 l -2,-10 z"
   id="path126"
   inkscape:connector-curvature="0"
   style="fill:#000000;stroke:none" />
         <path
   d="m 9802,15791 -10,-10 7,150 h 21 l -8,-150 -10,-10 10,10 v -10 h -10 z"
   id="path128"
   inkscape:connector-curvature="0"
   style="fill:#000000;stroke:none" />
         <path
   d="m 9438,15766 h -5 l 369,25 v -20 l -369,-25 h -5 5 l -2,-3 -3,3 z"
   id="path130"
   inkscape:connector-curvature="0"
   style="fill:#000000;stroke:none" />
         <path
   d="m 10419,15781 -7,-112 -18,-104 -28,-91 -38,-79 -46,-66 -53,-46 -59,-31 -61,-7 -61,7 -56,31 -53,46 -46,66 -38,79 -28,91 -18,104 -7,112 -369,-25 -28,-13 -20,-25 -13,-33 -8,-39 3,-40 10,-36 18,-28 28,-20 36,-31 17,-43 v -43 l -17,-36 -11,-15 -2,-23 v -25 l 7,-28 13,-28 15,-20 21,-18 23,-8 33,-8 28,-10 20,-15 15,-20 8,-21 5,-25 -3,-25 -7,-28 v -26 l 12,-25 23,-23 31,-23 33,-20 33,-13 33,-10 h 25 593 25 l 31,10 35,13 33,20 28,23 23,23 10,25 v 26 l -5,28 -2,25 5,25 7,21 16,20 20,15 28,10 33,8 23,8 20,18 15,20 13,28 8,28 2,25 -5,23 -10,15 -18,36 v 43 l 18,43 36,31 28,20 17,28 11,36 2,40 -8,39 -12,33 -21,25 -28,13 z"
   id="path132"
   inkscape:connector-curvature="0"
   style="fill:#c97016;stroke:none" />
         <path
   d="m 10109,15255 v 0 l 59,8 56,30 51,43 43,64 38,76 28,92 18,101 5,112 h 25 l -10,-112 -18,-106 -28,-92 -38,-81 -48,-69 -56,-48 -61,-31 -64,-7 v 0 z"
   id="path134"
   inkscape:connector-curvature="0"
   style="fill:#000000;stroke:none" />
         <path
   d="m 9802,15791 12,-10 6,-112 17,-101 28,-92 38,-76 44,-64 50,-43 54,-30 58,-8 v -20 l -63,7 -59,31 -56,48 -48,69 -38,81 -28,92 -18,106 -10,112 13,-10 v 20 l 10,3 2,-13 z"
   id="path136"
   inkscape:connector-curvature="0"
   style="fill:#000000;stroke:none" />
         <path
   d="m 9431,15766 h 2 l 369,25 v -20 l -369,-25 h 3 z"
   id="path138"
   inkscape:connector-curvature="0"
   style="fill:#000000;stroke:none" />
         <path
   d="m 9420,15512 v 0 l -33,23 -20,30 -10,41 -3,40 8,41 13,36 23,28 33,15 5,-20 -23,-11 -18,-22 -13,-31 -7,-36 2,-40 10,-31 16,-25 23,-18 v 0 z"
   id="path140"
   inkscape:connector-curvature="0"
   style="fill:#000000;stroke:none" />
         <path
   d="m 9451,15377 v 0 l 15,30 v 41 l -18,38 -28,26 6,20 43,-36 18,-48 v -46 l -21,-40 v 0 z"
   id="path142"
   inkscape:connector-curvature="0"
   style="fill:#000000;stroke:none" />
         <path
   d="m 9525,15194 v 0 l -28,8 -23,20 -18,23 -13,30 -7,31 -3,25 5,26 13,20 15,-15 -7,-10 v -21 l -3,-25 8,-26 12,-25 13,-18 18,-15 18,-8 v 0 z"
   id="path144"
   inkscape:connector-curvature="0"
   style="fill:#000000;stroke:none" />
         <path
   d="m 9614,15054 v 0 l 7,26 v 25 l -2,23 -8,18 -13,17 -17,13 -26,10 -30,8 v 20 l 35,-7 31,-11 23,-17 17,-23 8,-23 8,-28 -5,-25 -8,-31 v 0 z"
   id="path146"
   inkscape:connector-curvature="0"
   style="fill:#000000;stroke:none" />
         <path
   d="m 9814,14899 v 3 h -25 l -36,10 -35,12 -33,21 -33,25 -26,26 -12,28 v 30 l 20,-5 v -20 l 13,-23 20,-21 28,-20 33,-20 31,-13 30,-10 h 25 v 2 z"
   id="path148"
   inkscape:connector-curvature="0"
   style="fill:#000000;stroke:none" />
         <path
   d="m 10407,14902 v -3 h -593 v 25 h 593 v -2 z"
   id="path150"
   inkscape:connector-curvature="0"
   style="fill:#000000;stroke:none" />
         <path
   d="m 10602,15054 v 0 -28 l -10,-30 -25,-26 -31,-25 -33,-21 -38,-12 -33,-10 h -25 v 20 h 25 l 28,10 33,13 33,20 26,20 20,21 10,20 v 23 0 z"
   id="path152"
   inkscape:connector-curvature="0"
   style="fill:#000000;stroke:none" />
         <path
   d="m 10694,15194 v 0 l -31,-8 -25,-10 -18,-13 -12,-17 -8,-18 -3,-23 v -25 l 5,-26 -20,-5 -5,31 -5,25 8,28 7,23 18,23 23,17 30,11 36,7 v 0 z"
   id="path154"
   inkscape:connector-curvature="0"
   style="fill:#000000;stroke:none" />
         <path
   d="m 10768,15377 v 0 l 12,-20 8,-26 -5,-25 -8,-31 -12,-30 -18,-23 -23,-20 -28,-8 v 20 l 18,8 18,15 12,18 13,25 8,26 v 25 l -3,21 -8,10 v 0 z"
   id="path156"
   inkscape:connector-curvature="0"
   style="fill:#000000;stroke:none" />
         <path
   d="m 10798,15512 v 0 l -28,-26 -18,-38 v -41 l 16,-30 -16,-15 -20,40 v 46 l 18,48 43,36 v 0 z"
   id="path158"
   inkscape:connector-curvature="0"
   style="fill:#000000;stroke:none" />
         <path
   d="m 10785,15766 h 3 l 33,-15 23,-28 13,-36 7,-41 -2,-40 -10,-41 -21,-30 -33,-23 -5,20 23,18 15,25 10,31 3,40 -8,36 -12,31 -18,22 -23,11 h 2 z"
   id="path160"
   inkscape:connector-curvature="0"
   style="fill:#000000;stroke:none" />
         <path
   d="m 10407,15781 12,10 366,-25 v -20 l -366,25 13,10 h -25 l 2,13 10,-3 z"
   id="path162"
   inkscape:connector-curvature="0"
   style="fill:#000000;stroke:none" />
         <path
   d="m 10333,14241 92,-87 96,221 -188,-58 -252,297 -322,-376 z"
   id="path164"
   inkscape:connector-curvature="0"
   style="fill:#ff1900;stroke:none" />
         <path
   d="m 10435,14152 -18,-5 -92,86 16,15 91,-86 -18,-5 21,-5 -8,-18 -10,13 z"
   id="path166"
   inkscape:connector-curvature="0"
   style="fill:#000000;stroke:none" />
         <path
   d="m 10519,14386 12,-13 -96,-221 -21,5 97,221 13,-13 -5,21 22,7 -10,-20 z"
   id="path168"
   inkscape:connector-curvature="0"
   style="fill:#000000;stroke:none" />
         <path
   d="m 10341,14325 -11,2 189,59 5,-21 -188,-58 -11,2 11,-2 -6,-3 -5,5 z"
   id="path170"
   inkscape:connector-curvature="0"
   style="fill:#000000;stroke:none" />
         <path
   d="m 10074,14622 h 15 l 252,-297 -16,-16 -251,298 h 15 l -15,15 7,10 8,-10 z"
   id="path172"
   inkscape:connector-curvature="0"
   style="fill:#000000;stroke:none" />
         <path
   d="m 9759,14225 -8,21 323,376 15,-15 -323,-376 -7,20 v -26 h -26 l 18,21 z"
   id="path174"
   inkscape:connector-curvature="0"
   style="fill:#000000;stroke:none" />
         <path
   d="m 10325,14233 8,-5 -574,-3 v 26 l 574,2 8,-5 -8,5 h 3 l 5,-5 z"
   id="path176"
   inkscape:connector-curvature="0"
   style="fill:#000000;stroke:none" />
         <path
   d="m 10343,13803 h -488 v -101 l 488,2 z"
   id="path178"
   inkscape:connector-curvature="0"
   style="fill:#000066;stroke:none" />
         <path
   d="m 9842,13803 13,13 h 488 v -25 h -488 l 13,12 -13,-12 -8,5 -2,7 2,8 8,5 z"
   id="path180"
   inkscape:connector-curvature="0"
   style="fill:#000000;stroke:none" />
         <path
   d="m 9855,13689 -13,13 v 101 h 26 v -101 l -13,12 13,-12 -5,-8 -8,-5 -8,5 -5,8 z"
   id="path182"
   inkscape:connector-curvature="0"
   style="fill:#000000;stroke:none" />
         <path
   d="m 10356,13704 -13,-12 -488,-3 v 25 l 488,3 -13,-13 13,13 8,-5 5,-8 -5,-7 -8,-5 z"
   id="path184"
   inkscape:connector-curvature="0"
   style="fill:#000000;stroke:none" />
         <path
   d="m 10343,13816 13,-13 v -99 h -26 v 99 l 13,-12 -13,12 6,8 7,3 8,-3 5,-8 z"
   id="path186"
   inkscape:connector-curvature="0"
   style="fill:#000000;stroke:none" />
         <path
   d="m 10635,14108 -2,36 v 33 31 l -8,25 -15,25 -25,18 -41,16 -56,7 33,76 -188,-58 -252,297 -272,-317 h -28 -30 -31 -30 -31 -33 l -30,2 -31,3 -28,2 -28,5 -28,8 -22,8 -23,10 -21,10 -17,15 -16,15 -20,31 -15,33 -16,36 -10,40 -7,43 -5,49 -3,51 v 53 h 244 v -41 l -2,-40 2,-36 13,-30 28,-26 43,-18 71,-7 97,5 v 101 130 114 49 h 577 v -394 h 28 30 31 l 30,2 h 31 l 30,-2 h 31 l 30,-3 31,-2 25,-5 28,-5 23,-8 23,-10 20,-10 18,-16 15,-15 21,-30 17,-34 16,-35 15,-41 10,-43 8,-48 2,-51 3,-54 z"
   id="path188"
   inkscape:connector-curvature="0"
   style="fill:#ffffff;stroke:none" />
         <path
   d="m 10498,14297 -10,12 59,-7 43,-16 28,-20 17,-28 8,-30 3,-31 v -33 -36 h -21 l -5,36 v 33 l 3,31 -8,20 -13,23 -22,15 -39,15 -53,8 -10,13 10,-13 h -18 l 8,13 z"
   id="path190"
   inkscape:connector-curvature="0"
   style="fill:#000000;stroke:none" />
         <path
   d="m 10519,14386 12,-13 -33,-76 -20,5 33,76 13,-13 -5,21 22,7 -10,-20 z"
   id="path192"
   inkscape:connector-curvature="0"
   style="fill:#000000;stroke:none" />
         <path
   d="m 10341,14325 -11,2 189,59 5,-21 -188,-58 -11,2 11,-2 -6,-3 -5,5 z"
   id="path194"
   inkscape:connector-curvature="0"
   style="fill:#000000;stroke:none" />
         <path
   d="m 10074,14622 h 15 l 252,-297 -16,-16 -251,298 h 15 l -15,15 7,10 8,-10 z"
   id="path196"
   inkscape:connector-curvature="0"
   style="fill:#000000;stroke:none" />
         <path
   d="m 9809,14309 -7,-5 272,318 15,-15 -272,-318 -8,-5 8,5 -3,-5 h -5 z"
   id="path198"
   inkscape:connector-curvature="0"
   style="fill:#000000;stroke:none" />
         <path
   d="m 9390,14383 v 0 l 15,-15 15,-13 21,-10 20,-10 23,-8 28,-8 25,-5 28,-2 31,-3 h 30 33 31 30 31 30 28 v -25 h -28 -30 -31 -30 -31 -33 l -30,5 -31,3 -28,2 -30,5 -28,8 -23,7 -25,11 -21,10 -20,18 -15,15 v 0 z"
   id="path200"
   inkscape:connector-curvature="0"
   style="fill:#000000;stroke:none" />
         <path
   d="m 9306,14698 13,13 v -53 -51 l 5,-49 7,-40 11,-41 15,-33 15,-33 18,-28 -15,-15 -23,33 -15,33 -16,38 -10,41 -8,45 -5,49 -5,51 v 53 l 13,13 -13,-13 v 13 h 13 z"
   id="path202"
   inkscape:connector-curvature="0"
   style="fill:#000000;stroke:none" />
         <path
   d="m 9540,14711 10,-13 h -244 v 26 h 244 l 10,-13 -10,13 10,-3 3,-10 z"
   id="path204"
   inkscape:connector-curvature="0"
   style="fill:#000000;stroke:none" />
         <path
   d="m 9814,14518 -12,-10 -97,-8 -74,10 -45,18 -33,30 -13,33 -5,39 2,40 3,41 h 20 l 3,-41 -3,-40 v -33 l 13,-28 23,-21 40,-18 69,-5 97,3 -13,-10 h 25 v -10 h -12 z"
   id="path206"
   inkscape:connector-curvature="0"
   style="fill:#000000;stroke:none" />
         <path
   d="m 9802,14899 12,13 v -49 -114 -130 -101 h -25 v 101 130 114 49 l 13,12 -13,-12 v 12 h 13 z"
   id="path208"
   inkscape:connector-curvature="0"
   style="fill:#000000;stroke:none" />
         <path
   d="m 10366,14912 13,-13 h -577 v 25 h 577 l 12,-12 -12,12 h 12 v -12 z"
   id="path210"
   inkscape:connector-curvature="0"
   style="fill:#000000;stroke:none" />
         <path
   d="m 10379,14505 -13,13 v 394 h 25 v -394 l -12,12 v -25 h -13 v 13 z"
   id="path212"
   inkscape:connector-curvature="0"
   style="fill:#000000;stroke:none" />
         <path
   d="m 10796,14436 v 0 l -16,16 -15,12 -20,11 -21,10 -22,7 -26,5 -25,6 -31,2 h -30 -31 l -30,3 h -31 l -30,-3 h -31 -30 -28 v 25 h 28 30 31 l 30,3 h 31 l 30,-3 h 31 l 30,-5 31,-2 25,-5 31,-5 23,-8 25,-10 20,-10 21,-18 15,-15 v 0 z"
   id="path214"
   inkscape:connector-curvature="0"
   style="fill:#000000;stroke:none" />
         <path
   d="m 10895,14121 -13,-13 v 54 l -2,51 -8,48 -10,41 -16,40 -15,33 -18,33 -17,28 15,16 23,-33 18,-33 15,-39 15,-40 10,-46 8,-48 2,-51 5,-54 -12,-12 12,12 v -12 h -12 z"
   id="path216"
   inkscape:connector-curvature="0"
   style="fill:#000000;stroke:none" />
         <path
   d="m 10646,14108 -11,13 h 260 v -25 h -260 l -10,12 10,-12 h -10 v 12 z"
   id="path218"
   inkscape:connector-curvature="0"
   style="fill:#000000;stroke:none" />
         <path
   d="m 10348,13880 71,-8 59,-18 43,-23 31,-30 15,-31 v -30 l -15,-26 -33,-22 -28,-8 -21,8 -12,15 -13,23 -13,25 -18,23 -25,18 -41,7 h -493 l -41,-7 -28,-18 -17,-23 -13,-25 -13,-23 -12,-18 -21,-8 -28,8 -30,23 -18,28 v 30 l 18,31 28,28 45,23 59,18 71,7 z"
   id="path220"
   inkscape:connector-curvature="0"
   style="fill:#ffffff;stroke:none" />
         <path
   d="m 10513,13702 v 0 l 31,20 13,20 v 26 l -13,28 -28,25 -41,23 -56,18 -71,8 v 20 l 71,-8 61,-18 46,-22 33,-36 18,-33 v -36 l -18,-30 -35,-26 v 0 z"
   id="path222"
   inkscape:connector-curvature="0"
   style="fill:#000000;stroke:none" />
         <path
   d="m 10348,13816 v -2 l 43,-8 31,-20 20,-26 13,-25 13,-23 7,-10 16,-5 22,5 11,-21 -33,-10 -26,10 -18,21 -12,23 -13,25 -15,20 -21,16 -38,7 v -2 0 l -7,5 -3,7 3,8 z"
   id="path224"
   inkscape:connector-curvature="0"
   style="fill:#000000;stroke:none" />
         <path
   d="m 9855,13814 v 2 h 493 v -25 h -493 v 2 -2 l -8,5 -2,7 2,8 8,5 z"
   id="path226"
   inkscape:connector-curvature="0"
   style="fill:#000000;stroke:none" />
         <path
   d="m 9687,13699 h -2 l 25,-5 13,3 10,15 13,23 13,25 20,26 33,20 43,8 v -21 l -38,-7 -23,-16 -15,-20 -13,-25 -13,-23 -15,-21 -28,-12 -30,10 h -3 z"
   id="path228"
   inkscape:connector-curvature="0"
   style="fill:#000000;stroke:none" />
         <path
   d="m 9855,13864 v 3 l -71,-8 -56,-17 -43,-23 -26,-26 -15,-25 v -26 l 15,-22 28,-21 -10,-20 -33,25 -20,33 v 36 l 20,36 31,30 48,23 61,18 71,7 v 3 0 l 8,-5 5,-8 -5,-7 z"
   id="path230"
   inkscape:connector-curvature="0"
   style="fill:#000000;stroke:none" />
         <path
   d="m 10348,13870 v -3 l -493,-3 v 26 l 493,2 v -2 2 l 8,-5 5,-7 -5,-8 -8,-5 z"
   id="path232"
   inkscape:connector-curvature="0"
   style="fill:#000000;stroke:none" />
         <path
   d="m 10343,13702 3,-49 v -61 l 2,-68 -5,-69 -10,-63 -18,-51 -33,-33 -46,-10 -33,7 -25,10 -18,18 -13,18 -10,15 -10,15 -13,11 -15,5 -15,-5 -13,-11 -10,-15 -10,-15 -15,-18 -16,-18 -25,-10 -33,-7 -46,10 -33,33 -18,51 -10,63 -5,69 3,68 v 61 l 2,49 z"
   id="path234"
   inkscape:connector-curvature="0"
   style="fill:#ffffff;stroke:none" />
         <path
   d="m 10236,13308 v 0 l 41,10 28,28 18,48 10,61 3,69 -3,68 v 61 l -3,49 h 26 l 2,-49 v -61 l 3,-68 -8,-69 -10,-66 -18,-53 -38,-38 -51,-11 v 0 z"
   id="path236"
   inkscape:connector-curvature="0"
   style="fill:#000000;stroke:none" />
         <path
   d="m 10099,13409 v 0 l 20,-7 16,-13 12,-18 11,-15 10,-15 15,-15 23,-11 30,-7 v -21 l -35,8 -28,10 -20,21 -16,20 -10,15 -8,13 -10,7 -10,3 v 0 z"
   id="path238"
   inkscape:connector-curvature="0"
   style="fill:#000000;stroke:none" />
         <path
   d="m 9962,13308 v 0 l 30,7 23,11 13,15 15,18 8,12 13,18 15,13 20,7 v -25 l -10,-3 -10,-7 -8,-13 -13,-18 -15,-17 -18,-21 -28,-10 -35,-8 v 0 z"
   id="path240"
   inkscape:connector-curvature="0"
   style="fill:#000000;stroke:none" />
         <path
   d="m 9855,13689 13,13 -3,-49 v -61 l -2,-68 2,-69 10,-61 18,-48 28,-28 41,-10 v -21 l -51,11 -38,38 -18,53 -10,66 -8,69 3,68 v 61 l 2,49 13,12 -13,-12 v 12 h 13 z"
   id="path242"
   inkscape:connector-curvature="0"
   style="fill:#000000;stroke:none" />
         <path
   d="m 10330,13702 13,-13 h -488 v 25 h 488 l 13,-12 -13,12 h 13 v -12 z"
   id="path244"
   inkscape:connector-curvature="0"
   style="fill:#000000;stroke:none" />
         <path
   d="m 9855,13877 -2,143 5,50 15,49 20,43 31,38 35,31 44,22 45,16 49,5 48,-5 48,-16 41,-22 35,-31 31,-38 23,-41 15,-48 5,-51 v -142 z"
   id="path246"
   inkscape:connector-curvature="0"
   style="fill:#d67070;stroke:none" />
         <path
   d="m 9865,14020 h -2 l 2,-143 h -20 l -3,143 h -2 v 0 l 5,7 8,3 7,-3 z"
   id="path248"
   inkscape:connector-curvature="0"
   style="fill:#000000;stroke:none" />
         <path
   d="m 10097,14261 v 0 l -46,-3 -46,-15 -41,-23 -33,-28 -28,-35 -20,-41 -15,-46 -3,-50 h -25 l 7,50 16,51 20,46 33,41 38,33 46,23 46,15 51,7 v 0 z"
   id="path250"
   inkscape:connector-curvature="0"
   style="fill:#000000;stroke:none" />
         <path
   d="m 10330,14022 v 0 l -2,51 -15,46 -23,38 -28,35 -33,28 -38,23 -49,15 -45,3 v 25 l 50,-7 49,-15 43,-23 38,-33 33,-41 23,-43 15,-51 8,-51 v 0 0 l -5,-8 -8,-5 -7,5 z"
   id="path252"
   inkscape:connector-curvature="0"
   style="fill:#000000;stroke:none" />
         <path
   d="m 10343,13892 -13,-12 v 142 h 26 v -142 l -13,-13 13,13 -5,-8 -8,-5 -7,5 -6,8 z"
   id="path254"
   inkscape:connector-curvature="0"
   style="fill:#000000;stroke:none" />
         <path
   d="m 9865,13877 -10,13 488,2 v -25 l -488,-3 -10,13 10,-13 -8,6 -2,7 2,8 8,5 z"
   id="path256"
   inkscape:connector-curvature="0"
   style="fill:#000000;stroke:none" />
         <path
   d="m 9398,14897 28,5 27,12 23,23 23,28 15,36 16,40 7,44 3,45 -3,49 -7,45 -16,41 -15,33 -23,31 -23,23 -27,12 -28,5 -28,-5 -26,-12 -25,-23 -21,-31 -17,-33 -13,-41 -8,-45 -2,-49 2,-45 8,-44 13,-40 17,-36 21,-28 25,-23 26,-12 28,-5 v -69 l -46,8 -41,20 -38,30 -33,44 -28,50 -20,59 -13,66 -5,69 5,71 13,63 20,61 28,51 33,43 38,31 41,20 46,8 45,-8 44,-20 38,-31 33,-43 28,-51 20,-61 13,-63 5,-71 -5,-69 -13,-66 -20,-59 -28,-50 -33,-44 -38,-30 -44,-20 -45,-8 z"
   id="path258"
   inkscape:connector-curvature="0"
   style="fill:#510000;stroke:none" />
         <path
   d="m 9553,15130 v 0 l -5,-45 -8,-46 -15,-41 -16,-38 -25,-30 -25,-26 -31,-13 -30,-7 v 25 l 25,3 25,12 21,21 20,25 15,33 16,41 7,41 v 45 0 z"
   id="path260"
   inkscape:connector-curvature="0"
   style="fill:#000000;stroke:none" />
         <path
   d="m 9398,15382 v 0 l 30,-8 31,-12 25,-26 25,-33 16,-35 15,-41 8,-48 5,-49 h -26 v 49 l -7,43 -16,41 -15,30 -20,28 -21,20 -25,13 -25,3 v 0 z"
   id="path262"
   inkscape:connector-curvature="0"
   style="fill:#000000;stroke:none" />
         <path
   d="m 9245,15130 v 0 l 5,49 8,48 12,41 18,35 23,33 28,26 28,12 31,8 v -25 l -26,-3 -23,-13 -23,-20 -17,-28 -18,-30 -13,-41 -8,-43 v -49 0 z"
   id="path264"
   inkscape:connector-curvature="0"
   style="fill:#000000;stroke:none" />
         <path
   d="m 9385,14897 13,-13 -31,7 -28,13 -28,26 -23,30 -18,38 -12,41 -8,46 -5,45 h 25 v -45 l 8,-41 13,-41 18,-33 17,-25 23,-21 23,-12 26,-3 12,-12 -12,12 h 12 v -12 z"
   id="path266"
   inkscape:connector-curvature="0"
   style="fill:#000000;stroke:none" />
         <path
   d="m 9398,14841 -13,-13 v 69 h 25 v -69 l -12,-13 12,13 v -13 h -12 z"
   id="path268"
   inkscape:connector-curvature="0"
   style="fill:#000000;stroke:none" />
         <path
   d="m 9187,15174 v 0 l 2,-69 13,-64 20,-56 28,-50 31,-41 35,-28 38,-20 44,-5 v -26 l -49,10 -43,21 -41,33 -35,45 -28,51 -21,61 -12,69 -8,69 v 0 z"
   id="path270"
   inkscape:connector-curvature="0"
   style="fill:#000000;stroke:none" />
         <path
   d="m 9398,15509 v 0 l -44,-5 -38,-20 -35,-28 -31,-41 -28,-48 -20,-61 -13,-61 -2,-71 h -26 l 8,71 12,66 21,61 28,53 35,46 41,33 43,20 49,11 v 0 z"
   id="path272"
   inkscape:connector-curvature="0"
   style="fill:#000000;stroke:none" />
         <path
   d="m 9611,15174 v 0 l -2,71 -13,61 -21,61 -27,48 -31,41 -36,28 -40,20 -43,5 v 26 l 48,-11 46,-20 40,-33 36,-46 28,-53 20,-61 13,-66 7,-71 v 0 z"
   id="path274"
   inkscape:connector-curvature="0"
   style="fill:#000000;stroke:none" />
         <path
   d="m 9410,14828 -12,13 43,5 40,20 36,28 31,41 27,50 21,56 13,64 2,69 h 25 l -7,-69 -13,-69 -20,-61 -28,-51 -36,-45 -40,-33 -46,-21 -48,-10 -13,13 13,-13 h -13 v 13 z"
   id="path276"
   inkscape:connector-curvature="0"
   style="fill:#000000;stroke:none" />
         <path
   d="m 9398,14884 12,13 v -69 h -25 v 69 l 13,12 -13,-12 v 12 h 13 z"
   id="path278"
   inkscape:connector-curvature="0"
   style="fill:#000000;stroke:none" />
         <path
   d="m 10770,13565 15,27 18,26 18,23 23,20 25,20 26,18 30,18 31,13 33,15 35,10 39,10 38,8 43,8 43,5 46,2 48,3 92,-3 78,-10 64,-18 53,-23 41,-30 28,-36 18,-38 2,-43 -5,-23 -7,-20 -13,-21 -18,-17 -20,-18 -23,-18 -25,-15 -28,-16 -33,-15 -31,-10 -36,-10 -35,-10 -36,-5 -35,-5 -38,-6 h -36 -36 l -35,3 -36,5 -35,8 -33,7 -33,8 -34,10 -30,13 -31,13 -28,15 -27,15 -26,15 -23,18 -23,15 -20,21 -18,18 -43,66 -25,35 -18,41 -8,43 5,46 16,46 22,43 39,40 45,34 56,33 56,38 53,40 51,49 44,51 35,58 23,64 8,68 v 20 l -3,28 -5,34 -10,40 -13,41 -18,46 -23,45 -30,46 -36,48 -45,44 -56,43 -64,38 -76,33 -87,28 -99,23 -112,13 -78,5 -74,2 h -69 -66 l -61,-5 -56,-5 -51,-5 -48,-8 -46,-7 -40,-10 -38,-11 -36,-10 -33,-10 -31,-8 -25,-10 -25,-10 -44,-15 -38,-8 h -33 l -30,5 -26,13 -23,15 -20,18 -20,20 -43,-58 25,-26 33,-22 41,-18 43,-10 46,-5 48,5 48,12 51,23 31,15 45,16 54,15 63,13 71,15 77,10 81,10 86,5 h 87 l 89,-2 86,-8 87,-15 79,-20 76,-31 71,-35 61,-46 99,-102 64,-99 30,-99 3,-94 -31,-89 -56,-82 -84,-73 -106,-66 -97,-66 -58,-74 -28,-76 v -77 l 12,-71 26,-58 28,-41 23,-23 20,-20 25,-23 31,-23 33,-23 35,-20 41,-21 46,-20 48,-18 49,-12 55,-13 56,-8 59,-5 h 63 l 64,5 69,10 68,16 66,20 54,28 43,30 35,36 26,36 15,40 8,38 -3,41 -10,38 -18,38 -25,33 -31,31 -40,25 -44,23 -53,13 -56,8 -68,5 h -67 -61 l -61,-5 -56,-8 -50,-10 -51,-10 -43,-16 -44,-15 -40,-18 -36,-20 -30,-20 -31,-23 -25,-23 -23,-23 -18,-25 z"
   id="path280"
   inkscape:connector-curvature="0"
   style="fill:#510000;stroke:none" />
         <path
   d="m 11281,13781 v 0 l -48,-3 -46,-3 -43,-5 -43,-7 -36,-8 -38,-10 -36,-10 -30,-15 -31,-13 -30,-18 -26,-15 -22,-21 -23,-20 -16,-20 -17,-26 -16,-28 -20,11 15,28 18,25 20,25 23,21 28,20 26,20 30,18 31,13 35,15 36,10 38,10 41,8 43,8 43,5 46,2 48,3 v 0 z"
   id="path282"
   inkscape:connector-curvature="0"
   style="fill:#000000;stroke:none" />
         <path
   d="m 11647,13590 v 0 l -2,41 -18,35 -26,33 -38,28 -51,23 -61,18 -78,10 -92,3 v 20 l 92,-3 78,-10 67,-18 55,-22 44,-34 30,-38 18,-40 3,-46 v 0 z"
   id="path284"
   inkscape:connector-curvature="0"
   style="fill:#000000;stroke:none" />
         <path
   d="m 11238,13394 v 0 l 36,-2 38,5 35,5 33,5 36,10 35,10 31,10 30,16 28,15 26,15 20,15 21,18 17,18 11,18 7,18 5,20 h 21 l -6,-25 -7,-23 -15,-23 -18,-18 -21,-18 -25,-20 -25,-15 -28,-16 -36,-15 -30,-10 -36,-10 -36,-10 -38,-6 -35,-5 -38,-5 -36,-2 v 0 z"
   id="path286"
   inkscape:connector-curvature="0"
   style="fill:#000000;stroke:none" />
         <path
   d="m 10780,13570 -2,2 18,-18 20,-20 20,-13 23,-18 26,-15 28,-15 28,-15 27,-13 31,-13 33,-10 33,-7 33,-8 33,-8 36,-5 h 35 36 v -25 h -36 l -35,5 -36,5 -38,8 -33,7 -33,8 -33,10 -31,13 -33,12 -28,16 -28,15 -25,15 -23,18 -25,18 -21,20 -17,18 -3,2 z"
   id="path288"
   inkscape:connector-curvature="0"
   style="fill:#000000;stroke:none" />
         <path
   d="m 10735,13638 2,-2 43,-66 -20,-11 -43,67 2,-3 16,15 v 0 l 2,-2 z"
   id="path290"
   inkscape:connector-curvature="0"
   style="fill:#000000;stroke:none" />
         <path
   d="m 10808,13948 v 0 l -43,-30 -35,-38 -23,-41 -16,-46 -2,-43 5,-41 18,-38 23,-33 -16,-15 -28,38 -17,43 -11,46 8,48 15,46 23,46 41,43 48,36 v 0 z"
   id="path292"
   inkscape:connector-curvature="0"
   style="fill:#000000;stroke:none" />
         <path
   d="m 11141,14360 v 0 l -10,-71 -23,-66 -35,-59 -46,-53 -51,-48 -56,-43 -56,-39 -56,-33 -10,21 56,33 56,38 51,38 51,48 40,49 36,58 23,61 5,66 v 0 z"
   id="path294"
   inkscape:connector-curvature="0"
   style="fill:#000000;stroke:none" />
         <path
   d="m 10452,14940 v 0 l 112,-13 102,-23 86,-28 79,-33 64,-38 58,-46 46,-43 38,-51 31,-46 23,-45 17,-49 13,-40 10,-43 5,-34 5,-28 v -20 h -25 v 20 28 l -5,34 -10,38 -13,40 -18,44 -23,45 -30,46 -33,46 -46,43 -53,41 -64,38 -74,33 -86,28 -97,23 -112,12 v 0 z"
   id="path296"
   inkscape:connector-curvature="0"
   style="fill:#000000;stroke:none" />
         <path
   d="m 9672,14848 v 0 l 25,10 26,11 30,7 33,10 36,11 38,10 43,10 46,7 48,8 51,5 56,5 61,5 66,3 h 69 l 74,-5 78,-5 v -21 l -78,5 h -74 -69 l -66,3 -61,-5 -56,-5 -51,-5 -48,-8 -46,-7 -38,-11 -38,-10 -35,-10 -33,-10 -31,-8 -25,-10 -26,-10 v 0 z"
   id="path298"
   inkscape:connector-curvature="0"
   style="fill:#000000;stroke:none" />
         <path
   d="m 9431,14891 17,3 21,-20 20,-18 20,-13 23,-13 28,-5 h 33 l 36,8 43,15 5,-20 -43,-15 -41,-8 h -33 l -33,5 -28,13 -25,18 -21,17 -20,21 18,2 -20,10 10,13 7,-10 z"
   id="path300"
   inkscape:connector-curvature="0"
   style="fill:#000000;stroke:none" />
         <path
   d="m 9390,14820 -3,13 44,58 20,-10 -43,-58 -3,13 -15,-16 -8,8 5,5 z"
   id="path302"
   inkscape:connector-curvature="0"
   style="fill:#000000;stroke:none" />
         <path
   d="m 9738,14777 v 0 l -53,-23 -51,-13 -48,-7 -46,7 -46,11 -43,17 -36,26 -25,25 15,16 26,-26 30,-20 38,-18 41,-10 46,-3 48,3 46,13 48,22 v 0 z"
   id="path304"
   inkscape:connector-curvature="0"
   style="fill:#000000;stroke:none" />
         <path
   d="m 10869,14721 v 0 l -58,43 -71,36 -74,30 -79,21 -84,15 -86,8 h -89 -87 l -86,-3 -81,-10 -77,-10 -68,-15 -64,-13 -53,-15 -46,-16 -28,-15 -10,20 33,16 46,15 53,15 64,13 73,15 77,10 81,10 86,8 h 87 l 89,-5 86,-8 89,-15 79,-20 79,-31 71,-35 64,-49 v 0 z"
   id="path306"
   inkscape:connector-curvature="0"
   style="fill:#000000;stroke:none" />
         <path
   d="m 10791,14035 v 0 l 106,66 82,71 53,79 31,84 -3,94 -30,94 -62,96 -99,102 16,15 99,-101 66,-102 30,-104 3,-94 -31,-94 -58,-84 -87,-76 -106,-67 v 0 z"
   id="path308"
   inkscape:connector-curvature="0"
   style="fill:#000000;stroke:none" />
         <path
   d="m 10694,13531 3,-2 -26,25 -30,44 -26,61 -13,73 v 77 l 28,81 61,76 100,69 10,-21 -94,-63 -56,-71 -28,-71 v -77 l 12,-68 26,-56 25,-38 21,-21 2,-2 -2,2 h 2 v -2 z"
   id="path310"
   inkscape:connector-curvature="0"
   style="fill:#000000;stroke:none" />
         <path
   d="m 11467,13354 v 0 l -71,-16 -69,-10 -64,-5 h -63 l -59,5 -56,8 -58,12 -48,13 -49,18 -48,20 -41,21 -35,20 -33,23 -33,25 -26,23 -20,20 15,16 21,-21 25,-23 28,-20 33,-23 36,-20 40,-20 43,-21 49,-18 48,-12 53,-13 56,-8 59,-5 h 63 l 64,5 69,11 66,15 v 0 z"
   id="path312"
   inkscape:connector-curvature="0"
   style="fill:#000000;stroke:none" />
         <path
   d="m 11431,13852 v 0 l 56,-8 56,-13 46,-22 43,-28 30,-31 28,-36 18,-40 10,-41 3,-41 -8,-40 -15,-43 -28,-39 -35,-35 -46,-33 -56,-28 -66,-20 -5,20 66,20 51,28 40,28 36,36 23,33 15,38 8,35 -3,41 -10,36 -18,35 -23,31 -30,30 -38,23 -41,23 -51,13 -56,7 v 0 z"
   id="path314"
   inkscape:connector-curvature="0"
   style="fill:#000000;stroke:none" />
         <path
   d="m 10717,13636 20,28 23,23 25,22 34,26 30,20 36,20 43,18 43,16 43,15 54,10 50,10 56,8 61,5 61,2 67,-2 68,-5 v -21 l -68,5 -67,-2 -61,2 -61,-5 -56,-7 -50,-10 -49,-11 -43,-15 -43,-15 -38,-18 -36,-20 -30,-21 -28,-20 -26,-23 -23,-23 -15,-22 z"
   id="path316"
   inkscape:connector-curvature="0"
   style="fill:#000000;stroke:none" />
         <path
   d="m 10719,13653 28,-5 23,-15 15,-23 6,-28 -6,-28 -15,-23 -23,-15 -28,-5 -28,5 -22,15 -16,23 -5,28 5,28 16,23 22,15 z"
   id="path318"
   inkscape:connector-curvature="0"
   style="fill:#510000;stroke:none" />
         <path
   d="m 10778,13582 v 0 l -3,26 -12,18 -18,12 -26,3 v 25 l 31,-7 28,-18 18,-28 7,-31 v 0 z"
   id="path320"
   inkscape:connector-curvature="0"
   style="fill:#000000;stroke:none" />
         <path
   d="m 10719,13524 v 0 l 26,2 18,13 12,18 3,25 h 25 l -7,-30 -18,-28 -28,-18 -31,-8 v 0 z"
   id="path322"
   inkscape:connector-curvature="0"
   style="fill:#000000;stroke:none" />
         <path
   d="m 10661,13582 v 0 l 2,-25 13,-18 18,-13 25,-2 v -26 l -30,8 -28,18 -18,28 -8,30 v 0 z"
   id="path324"
   inkscape:connector-curvature="0"
   style="fill:#000000;stroke:none" />
         <path
   d="m 10719,13641 v 0 l -25,-3 -18,-12 -13,-18 -2,-26 h -26 l 8,31 18,28 28,18 30,7 v 0 z"
   id="path326"
   inkscape:connector-curvature="0"
   style="fill:#000000;stroke:none" />
         <path
   d="m 9306,14711 v 53 l 3,49 2,40 8,36 12,28 18,20 26,13 33,5 35,-5 28,-18 23,-25 20,-31 16,-38 10,-41 8,-43 2,-43 z"
   id="path328"
   inkscape:connector-curvature="0"
   style="fill:#d67070;stroke:none" />
         <path
   d="m 9408,14942 v 0 l -31,-2 -20,-10 -15,-18 -13,-26 -8,-33 -2,-40 v -49 -53 h -26 v 53 l 5,49 3,40 8,38 12,31 21,23 30,15 36,8 v 0 z"
   id="path330"
   inkscape:connector-curvature="0"
   style="fill:#000000;stroke:none" />
         <path
   d="m 9550,14724 -10,-13 -3,43 -7,41 -10,41 -16,35 -17,28 -23,25 -23,16 -33,2 v 26 l 38,-8 33,-20 23,-26 23,-33 15,-40 10,-41 8,-46 2,-43 -10,-13 10,13 3,-10 -13,-3 z"
   id="path332"
   inkscape:connector-curvature="0"
   style="fill:#000000;stroke:none" />
         <path
   d="m 9319,14711 -13,13 h 244 v -26 h -244 l -13,13 13,-13 h -13 v 13 z"
   id="path334"
   inkscape:connector-curvature="0"
   style="fill:#000000;stroke:none" />
         <path
   d="m 10895,14108 v -53 l -5,-46 -5,-40 -11,-36 -15,-28 -20,-20 -28,-13 -33,-5 -51,3 -38,15 -26,25 -12,33 -10,38 -3,41 v 43 l -3,43 z"
   id="path336"
   inkscape:connector-curvature="0"
   style="fill:#d67070;stroke:none" />
         <path
   d="m 10778,13877 v 0 l 30,5 26,13 15,15 15,26 10,33 6,40 5,46 -3,53 h 25 l -2,-53 -5,-46 -5,-40 -10,-38 -16,-31 -25,-25 -31,-13 -35,-5 v 0 z"
   id="path338"
   inkscape:connector-curvature="0"
   style="fill:#000000;stroke:none" />
         <path
   d="m 10635,14096 11,12 5,-43 v -43 -41 l 10,-35 13,-31 20,-20 33,-15 51,-3 v -20 l -51,2 -43,16 -31,30 -12,36 -11,40 -5,41 v 43 43 l 10,13 -10,-13 -2,11 12,2 z"
   id="path340"
   inkscape:connector-curvature="0"
   style="fill:#000000;stroke:none" />
         <path
   d="m 10882,14108 13,-12 h -260 v 25 h 260 l 12,-13 -12,13 h 12 v -13 z"
   id="path342"
   inkscape:connector-curvature="0"
   style="fill:#000000;stroke:none" />
         <path
   d="m 11472,16432 -10,-38 -11,-49 -10,-48 -10,-38 48,13 54,-3 56,-12 56,-23 51,-31 48,-35 38,-41 28,-41 -20,-30 -33,-33 -46,-33 -51,-28 -56,-23 -56,-18 -56,-5 -48,5 58,-66 31,-76 5,-82 -15,-84 -33,-81 -49,-74 -61,-61 -68,-45 23,40 15,59 7,68 v 74 l -15,69 -28,61 -43,43 -61,18 -3,-13 -5,-10 -5,-8 -10,-5 -13,-2 -15,-3 -23,-3 h -25 -465 -26 l -23,3 -15,3 -13,2 -10,5 -5,8 -5,10 -2,13 -61,-18 -44,-43 -25,-61 -15,-69 v -74 l 7,-68 16,-59 22,-40 -68,45 -61,61 -49,74 -33,81 -17,84 7,82 28,76 59,66 -49,-5 -53,5 -58,18 -56,23 -51,28 -46,33 -33,33 -20,30 28,41 40,41 49,35 50,31 56,23 56,12 54,3 48,-13 -10,38 -10,48 -11,49 -10,38 z"
   id="path344"
   inkscape:connector-curvature="0"
   style="fill:#7f0000;stroke:none" />
         <path
   d="m 11434,16249 -13,13 10,38 10,48 10,48 11,38 20,-5 -10,-38 -10,-48 -11,-48 -10,-38 -12,12 5,-20 -21,-10 8,23 z"
   id="path346"
   inkscape:connector-curvature="0"
   style="fill:#000000;stroke:none" />
         <path
   d="m 11800,16089 v -8 l -26,38 -38,41 -46,33 -50,30 -54,23 -53,13 -54,3 -45,-13 -5,20 50,13 54,-3 58,-12 59,-23 51,-31 50,-38 39,-41 30,-43 v -7 7 l 3,-5 -3,-2 z"
   id="path348"
   inkscape:connector-curvature="0"
   style="fill:#000000;stroke:none" />
         <path
   d="m 11436,15913 10,18 46,-2 56,2 53,18 54,23 51,28 43,30 33,33 18,26 20,-5 -23,-36 -33,-33 -48,-36 -51,-28 -58,-22 -59,-18 -56,-8 -51,8 10,18 -15,-16 -43,33 53,-15 z"
   id="path350"
   inkscape:connector-curvature="0"
   style="fill:#000000;stroke:none" />
         <path
   d="m 11319,15344 -12,18 66,43 61,61 45,71 33,79 16,81 -5,79 -31,74 -56,63 15,16 61,-69 31,-79 5,-84 -15,-86 -33,-84 -51,-76 -61,-61 -71,-49 -13,18 13,-18 -51,-25 38,43 z"
   id="path352"
   inkscape:connector-curvature="0"
   style="fill:#000000;stroke:none" />
         <path
   d="m 11200,15784 10,10 66,-18 48,-48 28,-64 16,-71 v -74 l -8,-68 -15,-61 -26,-46 -15,15 20,36 16,56 7,68 v 74 l -15,66 -28,59 -38,38 -56,18 10,10 h -20 v 12 l 10,-2 z"
   id="path354"
   inkscape:connector-curvature="0"
   style="fill:#000000;stroke:none" />
         <path
   d="m 11111,15753 v 0 h 25 23 l 15,3 11,2 5,3 2,5 5,8 3,10 h 20 l -2,-16 -5,-12 -8,-10 -15,-8 -16,-3 -15,-2 -23,-5 h -25 v 0 z"
   id="path356"
   inkscape:connector-curvature="0"
   style="fill:#000000;stroke:none" />
         <path
   d="m 10646,15753 v 0 h 465 v -25 h -465 v 0 z"
   id="path358"
   inkscape:connector-curvature="0"
   style="fill:#000000;stroke:none" />
         <path
   d="m 10547,15794 10,-8 2,-12 5,-8 3,-5 5,-3 10,-2 15,-3 h 23 26 v -25 h -26 l -23,5 -15,2 -15,3 -15,8 -8,10 -5,12 -3,13 11,-7 v 20 l 7,2 3,-10 z"
   id="path360"
   inkscape:connector-curvature="0"
   style="fill:#000000;stroke:none" />
         <path
   d="m 10452,15362 -12,-18 -26,46 -15,61 -8,68 v 74 l 16,71 25,64 48,48 67,18 v -20 l -56,-18 -39,-38 -25,-59 -15,-66 v -74 l 7,-68 16,-56 20,-36 -13,-18 13,18 38,-43 -51,25 z"
   id="path362"
   inkscape:connector-curvature="0"
   style="fill:#000000;stroke:none" />
         <path
   d="m 10310,15931 10,-18 -56,-63 -28,-74 -7,-79 18,-81 33,-79 45,-71 61,-61 66,-43 -10,-21 -71,49 -61,61 -51,76 -33,84 -18,86 8,84 28,79 61,69 10,-18 -5,20 54,15 -44,-33 z"
   id="path364"
   inkscape:connector-curvature="0"
   style="fill:#000000;stroke:none" />
         <path
   d="m 9957,16081 v 8 l 18,-26 33,-33 43,-30 51,-28 53,-23 56,-18 53,-2 46,2 5,-20 -51,-8 -53,8 -61,18 -58,22 -51,28 -49,36 -33,33 -23,36 v 7 -7 l -2,2 2,5 z"
   id="path366"
   inkscape:connector-curvature="0"
   style="fill:#000000;stroke:none" />
         <path
   d="m 10338,16262 -13,-13 -45,13 -54,-3 -53,-13 -54,-23 -50,-30 -46,-33 -41,-41 -25,-38 -21,10 31,43 41,41 50,38 51,31 59,23 58,12 54,3 50,-13 -12,-12 20,5 10,-23 -23,10 z"
   id="path368"
   inkscape:connector-curvature="0"
   style="fill:#000000;stroke:none" />
         <path
   d="m 10287,16419 10,15 11,-38 10,-48 10,-48 10,-38 -20,-5 -10,38 -11,48 -10,48 -10,38 10,16 -10,-16 -5,16 h 15 z"
   id="path370"
   inkscape:connector-curvature="0"
   style="fill:#000000;stroke:none" />
         <path
   d="m 11462,16434 10,-15 h -1185 v 26 h 1185 l 10,-16 -10,16 h 18 l -8,-16 z"
   id="path372"
   inkscape:connector-curvature="0"
   style="fill:#000000;stroke:none" />
        </g>
       </g>
      </g>
     </g>
    </g>
   </g>
  </g>
 </g>
</svg>