<?xml version="1.0" encoding="UTF-8" standalone="no"?>
<svg
   xmlns:ooo="http://xml.openoffice.org/svg/export"
   xmlns:dc="http://purl.org/dc/elements/1.1/"
   xmlns:cc="http://creativecommons.org/ns#"
   xmlns:rdf="http://www.w3.org/1999/02/22-rdf-syntax-ns#"
   xmlns:svg="http://www.w3.org/2000/svg"
   xmlns="http://www.w3.org/2000/svg"
   xmlns:sodipodi="http://sodipodi.sourceforge.net/DTD/sodipodi-0.dtd"
   xmlns:inkscape="http://www.inkscape.org/namespaces/inkscape"
   version="1.2"
   width="18.92mm"
   height="21.34mm"
   viewBox="0 0 1892 2134"
   preserveAspectRatio="xMidYMid"
   xml:space="preserve"
   id="svg97"
   sodipodi:docname="roses1.svg"
   style="fill-rule:evenodd;stroke-width:28.22200012;stroke-linejoin:round"
   inkscape:version="0.92.5 (2060ec1f9f, 2020-04-08)"><metadata
   id="metadata101"><rdf:RDF><cc:Work
       rdf:about=""><dc:format>image/svg+xml</dc:format><dc:type
         rdf:resource="http://purl.org/dc/dcmitype/StillImage" /></cc:Work></rdf:RDF></metadata><sodipodi:namedview
   pagecolor="#ffffff"
   bordercolor="#666666"
   borderopacity="1"
   objecttolerance="10"
   gridtolerance="10"
   guidetolerance="10"
   inkscape:pageopacity="0"
   inkscape:pageshadow="2"
   inkscape:window-width="664"
   inkscape:window-height="487"
   id="namedview99"
   showgrid="false"
   inkscape:zoom="0.2102413"
   inkscape:cx="35.754332"
   inkscape:cy="40.327557"
   inkscape:window-x="0"
   inkscape:window-y="0"
   inkscape:window-maximized="0"
   inkscape:current-layer="svg97" />
 <defs
   class="ClipPathGroup"
   id="defs8">
  <clipPath
   id="presentation_clip_path"
   clipPathUnits="userSpaceOnUse">
   <rect
   x="0"
   y="0"
   width="21000"
   height="29700"
   id="rect2" />
  </clipPath>
  <clipPath
   id="presentation_clip_path_shrink"
   clipPathUnits="userSpaceOnUse">
   <rect
   x="21"
   y="29"
   width="20958"
   height="29641"
   id="rect5" />
  </clipPath>
 </defs>
 <defs
   class="TextShapeIndex"
   id="defs12">
  <g
   ooo:slide="id1"
   ooo:id-list="id3"
   id="g10" />
 </defs>
 <defs
   class="EmbeddedBulletChars"
   id="defs44">
  <g
   id="bullet-char-template-57356"
   transform="matrix(4.8828125e-4,0,0,-4.8828125e-4,0,0)">
   <path
   d="M 580,1141 1163,571 580,0 -4,571 Z"
   id="path14"
   inkscape:connector-curvature="0" />
  </g>
  <g
   id="bullet-char-template-57354"
   transform="matrix(4.8828125e-4,0,0,-4.8828125e-4,0,0)">
   <path
   d="M 8,1128 H 1137 V 0 H 8 Z"
   id="path17"
   inkscape:connector-curvature="0" />
  </g>
  <g
   id="bullet-char-template-10146"
   transform="matrix(4.8828125e-4,0,0,-4.8828125e-4,0,0)">
   <path
   d="M 174,0 602,739 174,1481 1456,739 Z M 1358,739 309,1346 659,739 Z"
   id="path20"
   inkscape:connector-curvature="0" />
  </g>
  <g
   id="bullet-char-template-10132"
   transform="matrix(4.8828125e-4,0,0,-4.8828125e-4,0,0)">
   <path
   d="M 2015,739 1276,0 H 717 l 543,543 H 174 v 393 h 1086 l -543,545 h 557 z"
   id="path23"
   inkscape:connector-curvature="0" />
  </g>
  <g
   id="bullet-char-template-10007"
   transform="matrix(4.8828125e-4,0,0,-4.8828125e-4,0,0)">
   <path
   d="m 0,-2 c -7,16 -16,29 -25,39 l 381,530 c -94,256 -141,385 -141,387 0,25 13,38 40,38 9,0 21,-2 34,-5 21,4 42,12 65,25 l 27,-13 111,-251 280,301 64,-25 24,25 c 21,-10 41,-24 62,-43 C 886,937 835,863 770,784 769,783 710,716 594,584 L 774,223 c 0,-27 -21,-55 -63,-84 l 16,-20 C 717,90 699,76 672,76 641,76 570,178 457,381 L 164,-76 c -22,-34 -53,-51 -92,-51 -42,0 -63,17 -64,51 -7,9 -10,24 -10,44 0,9 1,19 2,30 z"
   id="path26"
   inkscape:connector-curvature="0" />
  </g>
  <g
   id="bullet-char-template-10004"
   transform="matrix(4.8828125e-4,0,0,-4.8828125e-4,0,0)">
   <path
   d="M 285,-33 C 182,-33 111,30 74,156 52,228 41,333 41,471 c 0,78 14,145 41,201 34,71 87,106 158,106 53,0 88,-31 106,-94 l 23,-176 c 8,-64 28,-97 59,-98 l 735,706 c 11,11 33,17 66,17 42,0 63,-15 63,-46 V 965 c 0,-36 -10,-64 -30,-84 L 442,47 C 390,-6 338,-33 285,-33 Z"
   id="path29"
   inkscape:connector-curvature="0" />
  </g>
  <g
   id="bullet-char-template-9679"
   transform="matrix(4.8828125e-4,0,0,-4.8828125e-4,0,0)">
   <path
   d="M 813,0 C 632,0 489,54 383,161 276,268 223,411 223,592 c 0,181 53,324 160,431 106,107 249,161 430,161 179,0 323,-54 432,-161 108,-107 162,-251 162,-431 0,-180 -54,-324 -162,-431 C 1136,54 992,0 813,0 Z"
   id="path32"
   inkscape:connector-curvature="0" />
  </g>
  <g
   id="bullet-char-template-8226"
   transform="matrix(4.8828125e-4,0,0,-4.8828125e-4,0,0)">
   <path
   d="m 346,457 c -73,0 -137,26 -191,78 -54,51 -81,114 -81,188 0,73 27,136 81,188 54,52 118,78 191,78 73,0 134,-26 185,-79 51,-51 77,-114 77,-187 0,-75 -25,-137 -76,-188 -50,-52 -112,-78 -186,-78 z"
   id="path35"
   inkscape:connector-curvature="0" />
  </g>
  <g
   id="bullet-char-template-8211"
   transform="matrix(4.8828125e-4,0,0,-4.8828125e-4,0,0)">
   <path
   d="M -4,459 H 1135 V 606 H -4 Z"
   id="path38"
   inkscape:connector-curvature="0" />
  </g>
  <g
   id="bullet-char-template-61548"
   transform="matrix(4.8828125e-4,0,0,-4.8828125e-4,0,0)">
   <path
   d="m 173,740 c 0,163 58,303 173,419 116,115 255,173 419,173 163,0 302,-58 418,-173 116,-116 174,-256 174,-419 0,-163 -58,-303 -174,-418 C 1067,206 928,148 765,148 601,148 462,206 346,322 231,437 173,577 173,740 Z"
   id="path41"
   inkscape:connector-curvature="0" />
  </g>
 </defs>
 <g
   id="g49"
   transform="translate(-9554,-13783)">
  <g
   id="id2"
   class="Master_Slide">
   <g
   id="bg-id2"
   class="Background" />
   <g
   id="bo-id2"
   class="BackgroundObjects" />
  </g>
 </g>
 <g
   class="SlideGroup"
   id="g95"
   transform="translate(-9554,-13783)">
  <g
   id="g93">
   <g
   id="container-id1">
    <g
   id="id1"
   class="Slide"
   clip-path="url(#presentation_clip_path)">
     <g
   class="Page"
   id="g89">
      <g
   class="Graphic"
   id="g87">
       <g
   id="id3">
        <rect
   class="BoundingBox"
   x="9554"
   y="13783"
   width="1892"
   height="2134"
   id="rect51"
   style="fill:none;stroke:none" />
        <defs
   id="defs56">
         <clipPath
   id="clip_path_1"
   clipPathUnits="userSpaceOnUse">
          <path
   d="m 9554,13783 h 1891 v 2133 H 9554 Z"
   id="path53"
   inkscape:connector-curvature="0" />
         </clipPath>
        </defs>
        <g
   clip-path="url(#clip_path_1)"
   id="g84">
         <path
   d="m 9846,14058 11,-21 12,-23 13,-17 18,-21 15,-15 15,-15 16,-10 12,-5 3,-16 -3,-12 -7,-6 -10,-5 -16,3 -18,2 -17,6 -18,7 -26,21 -17,33 -3,45 z"
   id="path58"
   inkscape:connector-curvature="0"
   style="fill:#b20019;stroke:none" />
         <path
   d="m 10228,14516 10,-26 13,-20 13,-21 17,-15 16,-13 17,-7 21,-3 h 20 l -28,-10 -33,-2 h -38 l -43,5 -46,10 -48,13 -49,15 -51,18 -48,20 -48,20 -43,21 -44,20 -35,20 -31,21 -25,17 -18,16 -8,68 -12,77 -8,76 -3,61 -2,38 -8,41 v 33 l 10,18 51,-5 41,-31 33,-51 20,-66 5,-69 -10,-68 -30,-61 -51,-46 v -3 l 10,3 h 18 25 28 l 31,-8 30,-10 31,-18 33,-15 38,-8 h 46 l 46,3 h 43 l 38,-8 33,-17 z"
   id="path60"
   inkscape:connector-curvature="0"
   style="fill:#b20019;stroke:none" />
         <path
   d="m 10388,14828 v -63 -82 l 3,-76 7,-53 5,-26 -2,-23 -5,-20 -10,-15 -16,-10 h -17 l -23,10 -23,20 -10,18 -8,20 -8,21 -10,22 -15,21 -23,18 -33,17 -51,11 -28,2 -25,-2 -23,-3 -23,-5 h -23 l -25,3 -23,7 -28,15 -13,8 -13,8 -12,5 -16,5 -12,2 h -13 -10 l -10,-2 30,33 18,41 5,45 -3,49 -10,48 -15,46 -15,41 -18,30 43,-2 41,10 33,12 35,16 39,15 43,10 53,3 66,-13 41,-13 26,-15 15,-13 10,-12 5,-13 10,-13 13,-10 25,-10 23,-21 13,-33 8,-43 z"
   id="path62"
   inkscape:connector-curvature="0"
   style="fill:#b20019;stroke:none" />
         <path
   d="m 9956,13989 18,-13 17,-15 16,-15 10,-18 7,-18 3,-18 -8,-20 -12,-20 -8,-5 -13,-5 -12,-3 h -18 l -15,3 -16,2 -12,5 -8,5 18,-23 20,-15 20,-13 23,-5 18,-2 18,2 15,5 13,11 18,28 10,38 2,43 -2,46 -3,28 v 30 l 5,33 13,36 23,33 33,33 46,31 63,25 39,13 40,17 41,23 43,26 41,28 38,33 36,35 30,39 26,40 17,41 8,43 v 46 l -13,46 -23,46 -38,48 -53,46 -18,15 -18,13 -15,7 -13,5 -7,-5 -5,-15 v -28 l 5,-41 7,-84 10,-76 8,-69 v -61 l -18,-45 -38,-33 -66,-18 h -99 l -46,5 -46,7 -48,13 -43,13 -44,13 -38,12 -33,13 -28,10 -12,-40 -13,-46 -13,-51 -5,-56 3,-59 15,-63 33,-66 z"
   id="path64"
   inkscape:connector-curvature="0"
   style="fill:#b20019;stroke:none" />
         <path
   d="m 9874,13862 -15,-15 -18,-11 -23,-10 -22,-5 h -28 l -26,5 -28,13 -28,18 -28,40 -10,54 5,48 18,31 10,12 8,16 5,20 7,20 13,21 18,18 28,12 38,8 v -33 l 5,-21 8,-17 5,-18 -15,-23 -13,-28 -10,-28 -5,-30 5,-28 18,-28 30,-23 z"
   id="path66"
   inkscape:connector-curvature="0"
   style="fill:#b20019;stroke:none" />
         <path
   d="m 9839,14488 -18,5 -15,7 -10,8 -13,8 -10,7 -10,8 -13,7 -13,8 -25,-13 -23,-15 -23,-20 -20,-26 -18,-28 -13,-35 -10,-44 -8,-48 v -61 l 8,-51 18,-51 17,-68 16,48 20,33 23,23 23,10 23,5 23,3 h 15 13 v 56 l 7,79 15,81 z"
   id="path68"
   inkscape:connector-curvature="0"
   style="fill:#b20019;stroke:none" />
         <path
   d="m 9564,15228 28,5 23,7 18,11 15,10 13,10 10,15 13,15 15,16 18,15 23,10 25,8 28,5 h 28 l 25,2 26,-2 h 23 l 25,5 31,13 28,20 23,28 12,36 3,38 -15,43 -33,46 40,-41 26,-43 12,-43 3,-44 -13,-43 -18,-41 -30,-38 -36,-35 -40,-28 -46,-26 -49,-18 -53,-10 h -51 l -53,8 -49,18 z"
   id="path70"
   inkscape:connector-curvature="0"
   style="fill:#b20019;stroke:none" />
         <path
   d="m 9554,15273 33,36 25,48 21,59 18,61 20,56 28,51 38,35 56,18 23,3 h 20 l 21,-3 20,-5 18,-5 20,-10 15,-13 16,-15 12,-23 11,-28 2,-31 -5,-30 -13,-28 -20,-20 -31,-16 -40,-5 h -44 -35 l -31,-5 -25,-5 -20,-10 -18,-10 -15,-13 -16,-18 -12,-18 -16,-15 -12,-15 -16,-10 -12,-10 -13,-6 -13,-2 z"
   id="path72"
   inkscape:connector-curvature="0"
   style="fill:#b20019;stroke:none" />
         <path
   d="m 10658,14640 2,-89 -10,-74 -23,-63 -33,-51 -41,-43 -48,-38 -51,-31 -53,-28 -56,-28 -51,-25 -48,-31 -44,-33 -33,-41 -25,-48 -13,-58 3,-69 40,-15 31,-8 23,-5 18,-5 h 20 l 23,-3 33,-5 48,-7 56,-3 54,8 48,17 38,26 26,35 10,41 -10,46 -36,51 -28,35 -13,31 -5,30 5,31 13,28 18,30 20,28 23,31 25,30 23,34 21,35 15,41 10,41 v 45 l -8,51 z"
   id="path74"
   inkscape:connector-curvature="0"
   style="fill:#b20019;stroke:none" />
         <path
   d="m 10935,14378 -5,61 7,61 18,66 23,67 31,66 30,68 33,69 28,69 26,66 15,66 5,66 -8,61 -23,61 -40,56 -64,54 -84,48 -33,-107 -23,-125 -15,-129 -8,-135 v -132 l 11,-122 15,-107 23,-87 -49,94 -33,115 -20,130 -10,139 v 143 l 10,140 18,135 25,119 -63,-64 -51,-68 -38,-76 -26,-82 -15,-81 -5,-87 5,-84 10,-84 20,-81 26,-76 30,-72 36,-63 38,-56 43,-46 44,-33 z"
   id="path76"
   inkscape:connector-curvature="0"
   style="fill:#4cd163;stroke:none" />
         <path
   d="m 10106,15408 41,-15 33,3 28,12 28,18 33,15 43,11 56,-3 76,-20 -20,23 -23,15 -21,15 -22,10 -18,8 -21,2 -12,3 h -13 l -10,-3 -18,-5 -20,-7 -26,-5 h -25 l -31,5 -28,15 -30,25 43,5 41,6 38,7 36,10 30,16 25,25 21,36 13,48 -21,-28 -20,-18 -21,-13 -20,-5 -20,-2 -18,2 -15,3 -16,2 -17,3 -21,8 -23,7 -22,5 -28,5 -28,3 -26,-5 -28,-10 23,-16 20,-17 18,-23 15,-28 13,-33 8,-33 2,-41 z"
   id="path78"
   inkscape:connector-curvature="0"
   style="fill:#4cd163;stroke:none" />
         <path
   d="m 9989,15652 h -18 l -20,3 -26,5 -25,8 -26,15 -17,18 -13,28 -3,33 v 25 l -5,23 -7,23 -13,20 -13,21 -20,18 -20,12 -26,13 92,-18 58,-30 33,-38 15,-44 8,-40 5,-41 13,-33 z"
   id="path80"
   inkscape:connector-curvature="0"
   style="fill:#4cd163;stroke:none" />
         <path
   d="m 10909,15668 -17,12 -26,11 -30,12 -36,13 -41,10 -43,10 -48,8 -51,5 -53,3 h -54 l -56,-5 -56,-8 -56,-15 -56,-18 -53,-26 -53,-33 -18,8 -18,3 -15,2 h -13 l 36,28 38,23 38,20 41,18 40,15 44,13 45,8 46,7 46,3 48,2 48,-2 51,-5 54,-8 53,-10 54,-10 55,-15 21,-6 28,-5 35,-7 36,-8 38,-5 38,-2 36,5 30,10 -12,-8 -13,-10 -18,-13 -15,-15 -15,-18 -16,-18 -10,-20 -7,-20 -74,-18 -66,-28 -64,-38 -56,-46 -48,-51 -46,-58 -38,-61 -33,-64 -26,-64 -20,-63 -15,-64 -8,-58 -2,-54 2,-48 10,-41 16,-30 -8,12 -13,11 -15,10 -18,7 -15,6 -15,5 h -13 -8 l -2,15 -5,20 -5,26 -8,25 -13,28 -15,23 -18,18 -23,10 18,36 18,38 20,40 23,44 23,40 28,46 28,43 31,44 35,43 36,43 40,41 46,38 49,38 50,36 56,33 z"
   id="path82"
   inkscape:connector-curvature="0"
   style="fill:#4cd163;stroke:none" />
        </g>
       </g>
      </g>
     </g>
    </g>
   </g>
  </g>
 </g>
</svg>