<?xml version="1.0" encoding="UTF-8" standalone="no"?>
<svg
   xmlns:ooo="http://xml.openoffice.org/svg/export"
   xmlns:dc="http://purl.org/dc/elements/1.1/"
   xmlns:cc="http://creativecommons.org/ns#"
   xmlns:rdf="http://www.w3.org/1999/02/22-rdf-syntax-ns#"
   xmlns:svg="http://www.w3.org/2000/svg"
   xmlns="http://www.w3.org/2000/svg"
   xmlns:sodipodi="http://sodipodi.sourceforge.net/DTD/sodipodi-0.dtd"
   xmlns:inkscape="http://www.inkscape.org/namespaces/inkscape"
   version="1.2"
   width="52.91mm"
   height="40.790001mm"
   viewBox="0 0 5291 4079.0001"
   preserveAspectRatio="xMidYMid"
   xml:space="preserve"
   id="svg155"
   sodipodi:docname="salboat2.svg"
   style="fill-rule:evenodd;stroke-width:28.22200012;stroke-linejoin:round"
   inkscape:version="0.92.5 (2060ec1f9f, 2020-04-08)"><metadata
   id="metadata159"><rdf:RDF><cc:Work
       rdf:about=""><dc:format>image/svg+xml</dc:format><dc:type
         rdf:resource="http://purl.org/dc/dcmitype/StillImage" /></cc:Work></rdf:RDF></metadata><sodipodi:namedview
   pagecolor="#ffffff"
   bordercolor="#666666"
   borderopacity="1"
   objecttolerance="10"
   gridtolerance="10"
   guidetolerance="10"
   inkscape:pageopacity="0"
   inkscape:pageshadow="2"
   inkscape:window-width="664"
   inkscape:window-height="487"
   id="namedview157"
   showgrid="false"
   inkscape:zoom="0.2102413"
   inkscape:cx="100.0063"
   inkscape:cy="77.064565"
   inkscape:window-x="0"
   inkscape:window-y="0"
   inkscape:window-maximized="0"
   inkscape:current-layer="svg155" />
 <defs
   class="ClipPathGroup"
   id="defs8">
  <clipPath
   id="presentation_clip_path"
   clipPathUnits="userSpaceOnUse">
   <rect
   x="0"
   y="0"
   width="21000"
   height="29700"
   id="rect2" />
  </clipPath>
  <clipPath
   id="presentation_clip_path_shrink"
   clipPathUnits="userSpaceOnUse">
   <rect
   x="21"
   y="29"
   width="20958"
   height="29641"
   id="rect5" />
  </clipPath>
 </defs>
 <defs
   class="TextShapeIndex"
   id="defs12">
  <g
   ooo:slide="id1"
   ooo:id-list="id3"
   id="g10" />
 </defs>
 <defs
   class="EmbeddedBulletChars"
   id="defs44">
  <g
   id="bullet-char-template-57356"
   transform="matrix(4.8828125e-4,0,0,-4.8828125e-4,0,0)">
   <path
   d="M 580,1141 1163,571 580,0 -4,571 Z"
   id="path14"
   inkscape:connector-curvature="0" />
  </g>
  <g
   id="bullet-char-template-57354"
   transform="matrix(4.8828125e-4,0,0,-4.8828125e-4,0,0)">
   <path
   d="M 8,1128 H 1137 V 0 H 8 Z"
   id="path17"
   inkscape:connector-curvature="0" />
  </g>
  <g
   id="bullet-char-template-10146"
   transform="matrix(4.8828125e-4,0,0,-4.8828125e-4,0,0)">
   <path
   d="M 174,0 602,739 174,1481 1456,739 Z M 1358,739 309,1346 659,739 Z"
   id="path20"
   inkscape:connector-curvature="0" />
  </g>
  <g
   id="bullet-char-template-10132"
   transform="matrix(4.8828125e-4,0,0,-4.8828125e-4,0,0)">
   <path
   d="M 2015,739 1276,0 H 717 l 543,543 H 174 v 393 h 1086 l -543,545 h 557 z"
   id="path23"
   inkscape:connector-curvature="0" />
  </g>
  <g
   id="bullet-char-template-10007"
   transform="matrix(4.8828125e-4,0,0,-4.8828125e-4,0,0)">
   <path
   d="m 0,-2 c -7,16 -16,29 -25,39 l 381,530 c -94,256 -141,385 -141,387 0,25 13,38 40,38 9,0 21,-2 34,-5 21,4 42,12 65,25 l 27,-13 111,-251 280,301 64,-25 24,25 c 21,-10 41,-24 62,-43 C 886,937 835,863 770,784 769,783 710,716 594,584 L 774,223 c 0,-27 -21,-55 -63,-84 l 16,-20 C 717,90 699,76 672,76 641,76 570,178 457,381 L 164,-76 c -22,-34 -53,-51 -92,-51 -42,0 -63,17 -64,51 -7,9 -10,24 -10,44 0,9 1,19 2,30 z"
   id="path26"
   inkscape:connector-curvature="0" />
  </g>
  <g
   id="bullet-char-template-10004"
   transform="matrix(4.8828125e-4,0,0,-4.8828125e-4,0,0)">
   <path
   d="M 285,-33 C 182,-33 111,30 74,156 52,228 41,333 41,471 c 0,78 14,145 41,201 34,71 87,106 158,106 53,0 88,-31 106,-94 l 23,-176 c 8,-64 28,-97 59,-98 l 735,706 c 11,11 33,17 66,17 42,0 63,-15 63,-46 V 965 c 0,-36 -10,-64 -30,-84 L 442,47 C 390,-6 338,-33 285,-33 Z"
   id="path29"
   inkscape:connector-curvature="0" />
  </g>
  <g
   id="bullet-char-template-9679"
   transform="matrix(4.8828125e-4,0,0,-4.8828125e-4,0,0)">
   <path
   d="M 813,0 C 632,0 489,54 383,161 276,268 223,411 223,592 c 0,181 53,324 160,431 106,107 249,161 430,161 179,0 323,-54 432,-161 108,-107 162,-251 162,-431 0,-180 -54,-324 -162,-431 C 1136,54 992,0 813,0 Z"
   id="path32"
   inkscape:connector-curvature="0" />
  </g>
  <g
   id="bullet-char-template-8226"
   transform="matrix(4.8828125e-4,0,0,-4.8828125e-4,0,0)">
   <path
   d="m 346,457 c -73,0 -137,26 -191,78 -54,51 -81,114 -81,188 0,73 27,136 81,188 54,52 118,78 191,78 73,0 134,-26 185,-79 51,-51 77,-114 77,-187 0,-75 -25,-137 -76,-188 -50,-52 -112,-78 -186,-78 z"
   id="path35"
   inkscape:connector-curvature="0" />
  </g>
  <g
   id="bullet-char-template-8211"
   transform="matrix(4.8828125e-4,0,0,-4.8828125e-4,0,0)">
   <path
   d="M -4,459 H 1135 V 606 H -4 Z"
   id="path38"
   inkscape:connector-curvature="0" />
  </g>
  <g
   id="bullet-char-template-61548"
   transform="matrix(4.8828125e-4,0,0,-4.8828125e-4,0,0)">
   <path
   d="m 173,740 c 0,163 58,303 173,419 116,115 255,173 419,173 163,0 302,-58 418,-173 116,-116 174,-256 174,-419 0,-163 -58,-303 -174,-418 C 1067,206 928,148 765,148 601,148 462,206 346,322 231,437 173,577 173,740 Z"
   id="path41"
   inkscape:connector-curvature="0" />
  </g>
 </defs>
 <g
   id="g49"
   transform="translate(-7854,-12810)">
  <g
   id="id2"
   class="Master_Slide">
   <g
   id="bg-id2"
   class="Background" />
   <g
   id="bo-id2"
   class="BackgroundObjects" />
  </g>
 </g>
 <g
   class="SlideGroup"
   id="g153"
   transform="translate(-7854,-12810)">
  <g
   id="g151">
   <g
   id="container-id1">
    <g
   id="id1"
   class="Slide"
   clip-path="url(#presentation_clip_path)">
     <g
   class="Page"
   id="g147">
      <g
   class="Graphic"
   id="g145">
       <g
   id="id3">
        <rect
   class="BoundingBox"
   x="7854"
   y="12810"
   width="5291"
   height="4079"
   id="rect51"
   style="fill:none;stroke:none" />
        <defs
   id="defs56">
         <clipPath
   id="clip_path_1"
   clipPathUnits="userSpaceOnUse">
          <path
   d="m 7854,12810 h 5290 v 4078 H 7854 Z"
   id="path53"
   inkscape:connector-curvature="0" />
         </clipPath>
        </defs>
        <g
   clip-path="url(#clip_path_1)"
   id="g142">
         <path
   d="m 12271,13323 33,166 25,175 18,180 10,186 -7,183 -16,180 -28,173 -38,163 -18,68 -22,72 -23,71 -23,68 -23,71 -25,67 -28,66 -28,61 -49,94 -43,89 -48,86 -43,81 -46,82 -48,84 -51,83 -54,87 -5,5 -5,-3 -5,-2 v -8 l 54,-86 50,-84 49,-81 48,-82 41,-81 45,-86 46,-89 48,-94 28,-61 26,-67 25,-66 26,-71 22,-68 23,-74 21,-66 20,-69 38,-162 28,-173 15,-178 3,-183 -8,-183 -15,-181 -28,-172 -33,-166 3,-7 5,-3 h 5 z"
   id="path58"
   inkscape:connector-curvature="0"
   style="fill:#000000;stroke:none" />
         <path
   d="m 12271,13323 33,166 25,175 18,180 10,186 -7,183 -16,180 -28,173 -38,163 -18,68 -22,72 -23,71 -23,68 -23,71 -25,67 -28,66 -28,61 -49,94 -43,89 -48,86 -43,81 -46,82 -48,84 -51,83 -54,87 -5,5 -5,-3 -5,-2 v -8 l 54,-86 50,-84 49,-81 48,-82 41,-81 45,-86 46,-89 48,-94 28,-61 26,-67 25,-66 26,-71 22,-68 23,-74 21,-66 20,-69 38,-162 28,-173 15,-178 3,-183 -8,-183 -15,-181 -28,-172 -33,-166 3,-7 5,-3 h 5 z"
   id="path60"
   inkscape:connector-curvature="0"
   style="fill:none;stroke:#000000" />
         <path
   d="m 12268,13341 28,109 31,110 30,109 23,107 28,109 25,109 26,110 28,109 23,109 25,112 25,107 26,112 25,116 26,112 25,115 26,114 20,86 23,89 20,89 23,92 23,91 18,94 15,94 13,97 -3,5 -5,3 h -5 l -5,-6 -10,-96 -18,-94 -18,-94 -20,-92 -23,-91 -23,-92 -23,-86 -18,-86 -28,-115 -23,-114 -27,-112 -23,-112 -28,-112 -26,-109 -23,-114 -25,-107 -25,-109 -28,-110 -26,-109 -25,-109 -28,-109 -28,-110 -28,-109 -28,-109 v -5 l 5,-5 8,2 z"
   id="path62"
   inkscape:connector-curvature="0"
   style="fill:#000000;stroke:none" />
         <path
   d="m 12268,13341 28,109 31,110 30,109 23,107 28,109 25,109 26,110 28,109 23,109 25,112 25,107 26,112 25,116 26,112 25,115 26,114 20,86 23,89 20,89 23,92 23,91 18,94 15,94 13,97 -3,5 -5,3 h -5 l -5,-6 -10,-96 -18,-94 -18,-94 -20,-92 -23,-91 -23,-92 -23,-86 -18,-86 -28,-115 -23,-114 -27,-112 -23,-112 -28,-112 -26,-109 -23,-114 -25,-107 -25,-109 -28,-110 -26,-109 -25,-109 -28,-109 -28,-110 -28,-109 -28,-109 v -5 l 5,-5 8,2 z"
   id="path64"
   inkscape:connector-curvature="0"
   style="fill:none;stroke:#000000" />
         <path
   d="m 11689,15964 h 79 l 81,-3 79,-2 76,-3 79,-2 76,-5 76,-5 74,-8 76,-8 74,-10 71,-7 74,-13 71,-10 71,-16 69,-12 71,-16 10,3 8,8 -3,12 -10,8 -69,15 -68,13 -72,13 -71,10 -73,10 -74,8 -74,7 -76,8 -76,5 -76,5 -77,3 -79,2 -78,3 -79,2 h -76 -84 l -5,-2 -3,-5 3,-6 z"
   id="path66"
   inkscape:connector-curvature="0"
   style="fill:#000000;stroke:none" />
         <path
   d="m 11689,15964 h 79 l 81,-3 79,-2 76,-3 79,-2 76,-5 76,-5 74,-8 76,-8 74,-10 71,-7 74,-13 71,-10 71,-16 69,-12 71,-16 10,3 8,8 -3,12 -10,8 -69,15 -68,13 -72,13 -71,10 -73,10 -74,8 -74,7 -76,8 -76,5 -76,5 -77,3 -79,2 -78,3 -79,2 h -76 -84 l -5,-2 -3,-5 3,-6 z"
   id="path68"
   inkscape:connector-curvature="0"
   style="fill:none;stroke:#000000" />
         <path
   d="m 13122,15842 -56,18 -53,20 -56,18 -53,20 -56,21 -56,20 -56,20 -56,18 -56,20 -56,21 -61,17 -58,18 -59,15 -61,16 -61,15 -61,13 -43,7 -41,8 -43,8 -40,7 -44,8 -43,10 -43,8 -41,7 -43,8 -43,7 -43,8 -44,8 -43,7 -45,5 -41,8 -46,5 -56,8 -56,7 -56,5 -56,8 -55,8 -59,5 -56,7 -58,5 -59,6 -56,7 -58,5 -59,5 -58,5 -61,6 -58,5 -59,5 -61,5 -58,5 -61,2 -61,5 -61,3 -61,5 -61,3 -64,2 -61,3 -63,2 h -64 l -61,3 h -63 l -64,2 h -66 -63 l -13,-5 -3,-10 8,-10 13,-5 h 63 64 l 63,-3 h 64 l 63,-2 h 64 l 61,-3 61,-2 63,-3 61,-2 61,-5 59,-3 61,-3 61,-5 58,-5 61,-2 59,-5 58,-5 59,-6 58,-5 58,-5 59,-5 58,-7 56,-5 59,-6 56,-7 55,-8 56,-5 56,-8 56,-5 56,-7 56,-8 43,-5 43,-8 44,-5 43,-7 43,-8 43,-8 43,-7 44,-8 43,-7 41,-8 43,-8 43,-7 41,-8 43,-8 40,-7 44,-8 61,-12 61,-16 61,-15 58,-15 59,-18 58,-18 58,-18 59,-17 53,-18 59,-20 53,-18 56,-21 56,-17 56,-18 53,-21 56,-17 h 8 l 2,2 v 8 z"
   id="path70"
   inkscape:connector-curvature="0"
   style="fill:#000000;stroke:none" />
         <path
   d="m 13122,15842 -56,18 -53,20 -56,18 -53,20 -56,21 -56,20 -56,20 -56,18 -56,20 -56,21 -61,17 -58,18 -59,15 -61,16 -61,15 -61,13 -43,7 -41,8 -43,8 -40,7 -44,8 -43,10 -43,8 -41,7 -43,8 -43,7 -43,8 -44,8 -43,7 -45,5 -41,8 -46,5 -56,8 -56,7 -56,5 -56,8 -55,8 -59,5 -56,7 -58,5 -59,6 -56,7 -58,5 -59,5 -58,5 -61,6 -58,5 -59,5 -61,5 -58,5 -61,2 -61,5 -61,3 -61,5 -61,3 -64,2 -61,3 -63,2 h -64 l -61,3 h -63 l -64,2 h -66 -63 l -13,-5 -3,-10 8,-10 13,-5 h 63 64 l 63,-3 h 64 l 63,-2 h 64 l 61,-3 61,-2 63,-3 61,-2 61,-5 59,-3 61,-3 61,-5 58,-5 61,-2 59,-5 58,-5 59,-6 58,-5 58,-5 59,-5 58,-7 56,-5 59,-6 56,-7 55,-8 56,-5 56,-8 56,-5 56,-7 56,-8 43,-5 43,-8 44,-5 43,-7 43,-8 43,-8 43,-7 44,-8 43,-7 41,-8 43,-8 43,-7 41,-8 43,-8 40,-7 44,-8 61,-12 61,-16 61,-15 58,-15 59,-18 58,-18 58,-18 59,-17 53,-18 59,-20 53,-18 56,-21 56,-17 56,-18 53,-21 56,-17 h 8 l 2,2 v 8 z"
   id="path72"
   inkscape:connector-curvature="0"
   style="fill:none;stroke:#000000" />
         <path
   d="m 10624,15923 -76,8 -82,10 -86,15 -91,18 -92,20 -91,21 -92,23 -91,22 -87,26 -84,23 -76,20 -71,20 -61,21 -53,15 -44,13 -30,7 -8,3 h -5 v 0 l 5,-3 31,-10 43,-13 56,-17 63,-21 74,-23 81,-25 87,-28 89,-28 94,-25 96,-28 94,-23 97,-23 91,-20 87,-18 84,-13 76,-7 3,5 -8,12 -13,16 z"
   id="path74"
   inkscape:connector-curvature="0"
   style="fill:#000000;stroke:none" />
         <path
   d="m 10624,15923 -76,8 -82,10 -86,15 -91,18 -92,20 -91,21 -92,23 -91,22 -87,26 -84,23 -76,20 -71,20 -61,21 -53,15 -44,13 -30,7 -8,3 h -5 v 0 l 5,-3 31,-10 43,-13 56,-17 63,-21 74,-23 81,-25 87,-28 89,-28 94,-25 96,-28 94,-23 97,-23 91,-20 87,-18 84,-13 76,-7 3,5 -8,12 -13,16 z"
   id="path76"
   inkscape:connector-curvature="0"
   style="fill:none;stroke:#000000" />
         <path
   d="m 9427,16205 20,21 21,15 25,15 26,13 25,18 30,23 31,30 30,41 6,10 -6,10 -10,3 -7,-8 -33,-41 -28,-30 -28,-23 -26,-18 -23,-15 -22,-18 -21,-20 -20,-26 v -5 h 2 6 z"
   id="path78"
   inkscape:connector-curvature="0"
   style="fill:#000000;stroke:none" />
         <path
   d="m 9427,16205 20,21 21,15 25,15 26,13 25,18 30,23 31,30 30,41 6,10 -6,10 -10,3 -7,-8 -33,-41 -28,-30 -28,-23 -26,-18 -23,-15 -22,-18 -21,-20 -20,-26 v -5 h 2 6 z"
   id="path80"
   inkscape:connector-curvature="0"
   style="fill:none;stroke:#000000" />
         <path
   d="m 13142,15867 -48,41 -40,36 -34,33 -27,30 -34,33 -30,36 -33,38 -38,46 -3,5 h -2 v -3 l 5,-5 38,-48 30,-43 28,-41 26,-38 28,-38 30,-38 38,-39 49,-43 7,3 8,12 5,13 z"
   id="path82"
   inkscape:connector-curvature="0"
   style="fill:#000000;stroke:none" />
         <path
   d="m 13142,15867 -48,41 -40,36 -34,33 -27,30 -34,33 -30,36 -33,38 -38,46 -3,5 h -2 v -3 l 5,-5 38,-48 30,-43 28,-41 26,-38 28,-38 30,-38 38,-39 49,-43 7,3 8,12 5,13 z"
   id="path84"
   inkscape:connector-curvature="0"
   style="fill:none;stroke:#000000" />
         <path
   d="m 9951,16172 28,-12 25,-11 25,-10 26,-7 25,-11 23,-7 25,-8 26,-7 25,-8 26,-5 25,-8 28,-5 28,-7 31,-8 33,-5 33,-8 71,-15 15,3 5,7 v 10 l -13,5 -71,16 -33,7 -33,8 -28,5 -30,5 -26,5 -28,8 -25,5 -25,5 -26,5 -23,8 -25,7 -26,8 -25,8 -25,10 -26,10 -28,10 h -7 l -3,-3 -3,-7 z"
   id="path86"
   inkscape:connector-curvature="0"
   style="fill:#000000;stroke:none" />
         <path
   d="m 9951,16172 28,-12 25,-11 25,-10 26,-7 25,-11 23,-7 25,-8 26,-7 25,-8 26,-5 25,-8 28,-5 28,-7 31,-8 33,-5 33,-8 71,-15 15,3 5,7 v 10 l -13,5 -71,16 -33,7 -33,8 -28,5 -30,5 -26,5 -28,8 -25,5 -25,5 -26,5 -23,8 -25,7 -26,8 -25,8 -25,10 -26,10 -28,10 h -7 l -3,-3 -3,-7 z"
   id="path88"
   inkscape:connector-curvature="0"
   style="fill:none;stroke:#000000" />
         <path
   d="m 10352,16198 28,-3 31,-5 30,-2 31,-3 30,-5 33,-3 31,-2 33,-3 30,-2 31,-3 33,-2 h 30 l 28,-3 31,-2 h 28 l 27,-3 39,-2 40,-6 41,-5 41,-7 40,-8 41,-5 38,-5 38,-3 36,-2 33,-3 33,-5 33,-2 30,-5 31,-3 30,-5 31,-5 28,-5 30,-5 31,-5 28,-8 30,-5 31,-5 30,-8 33,-5 31,-5 35,-8 33,-7 38,-8 36,-10 33,-8 33,-10 28,-10 15,-2 8,7 3,10 -11,10 -28,11 -33,10 -35,7 -36,11 -38,7 -38,8 -36,7 -30,6 -33,7 -31,5 -30,8 -31,5 -30,5 -31,8 -30,5 -28,5 -31,5 -30,5 -31,3 -33,5 -30,2 -36,5 -33,3 -35,2 -38,3 -39,5 -40,5 -41,5 -41,8 -40,5 -41,5 -38,2 h -28 l -28,3 h -30 -31 l -30,3 h -31 -30 -33 -31 l -33,2 h -30 l -33,3 -31,2 h -30 l -31,5 -28,3 h -2 v -3 0 z"
   id="path90"
   inkscape:connector-curvature="0"
   style="fill:#000000;stroke:none" />
         <path
   d="m 10352,16198 28,-3 31,-5 30,-2 31,-3 30,-5 33,-3 31,-2 33,-3 30,-2 31,-3 33,-2 h 30 l 28,-3 31,-2 h 28 l 27,-3 39,-2 40,-6 41,-5 41,-7 40,-8 41,-5 38,-5 38,-3 36,-2 33,-3 33,-5 33,-2 30,-5 31,-3 30,-5 31,-5 28,-5 30,-5 31,-5 28,-8 30,-5 31,-5 30,-8 33,-5 31,-5 35,-8 33,-7 38,-8 36,-10 33,-8 33,-10 28,-10 15,-2 8,7 3,10 -11,10 -28,11 -33,10 -35,7 -36,11 -38,7 -38,8 -36,7 -30,6 -33,7 -31,5 -30,8 -31,5 -30,5 -31,8 -30,5 -28,5 -31,5 -30,5 -31,3 -33,5 -30,2 -36,5 -33,3 -35,2 -38,3 -39,5 -40,5 -41,5 -41,8 -40,5 -41,5 -38,2 h -28 l -28,3 h -30 -31 l -30,3 h -31 -30 -33 -31 l -33,2 h -30 l -33,3 -31,2 h -30 l -31,5 -28,3 h -2 v -3 0 z"
   id="path92"
   inkscape:connector-curvature="0"
   style="fill:none;stroke:#000000" />
         <path
   d="m 9422,16228 -28,38 -13,36 -2,36 7,33 18,25 28,23 33,13 43,5 h 13 3 l -8,-3 h -13 -58 l -43,-10 -33,-20 -18,-28 -5,-33 7,-39 21,-40 33,-46 7,-2 5,2 6,5 z"
   id="path94"
   inkscape:connector-curvature="0"
   style="fill:#000000;stroke:none" />
         <path
   d="m 9422,16228 -28,38 -13,36 -2,36 7,33 18,25 28,23 33,13 43,5 h 13 3 l -8,-3 h -13 -58 l -43,-10 -33,-20 -18,-28 -5,-33 7,-39 21,-40 33,-46 7,-2 5,2 6,5 z"
   id="path96"
   inkscape:connector-curvature="0"
   style="fill:none;stroke:#000000" />
         <path
   d="m 9407,16411 7,3 h 11 l 7,2 h 8 l 15,3 15,5 13,2 15,6 13,5 13,2 15,5 15,3 13,2 20,5 26,5 28,8 33,5 38,8 38,7 38,8 38,8 38,7 38,5 33,8 31,5 25,3 21,2 15,3 h 2 v 2 3 h -2 l -15,-3 -21,-2 -25,-3 -31,-5 -35,-2 -36,-6 -40,-7 -39,-5 -40,-5 -38,-5 -36,-8 -36,-5 -30,-5 -25,-3 -21,-5 -12,-2 -16,-5 -15,-3 -13,-5 -12,-5 -16,-5 -12,-3 -16,-5 -15,-2 -7,-3 -8,-5 -10,-3 -8,-5 -2,-2 v -5 l 2,-3 z"
   id="path98"
   inkscape:connector-curvature="0"
   style="fill:#000000;stroke:none" />
         <path
   d="m 9407,16411 7,3 h 11 l 7,2 h 8 l 15,3 15,5 13,2 15,6 13,5 13,2 15,5 15,3 13,2 20,5 26,5 28,8 33,5 38,8 38,7 38,8 38,8 38,7 38,5 33,8 31,5 25,3 21,2 15,3 h 2 v 2 3 h -2 l -15,-3 -21,-2 -25,-3 -31,-5 -35,-2 -36,-6 -40,-7 -39,-5 -40,-5 -38,-5 -36,-8 -36,-5 -30,-5 -25,-3 -21,-5 -12,-2 -16,-5 -15,-3 -13,-5 -12,-5 -16,-5 -12,-3 -16,-5 -15,-2 -7,-3 -8,-5 -10,-3 -8,-5 -2,-2 v -5 l 2,-3 z"
   id="path100"
   inkscape:connector-curvature="0"
   style="fill:none;stroke:#000000" />
         <path
   d="m 12253,12820 -58,112 -59,114 -56,117 -53,117 -51,120 -51,119 -48,120 -51,121 -48,120 -49,119 -48,117 -48,120 -48,117 -51,114 -51,112 -53,109 -44,87 -43,83 -40,82 -44,81 -45,79 -46,79 -51,86 -56,84 -33,51 -35,51 -36,48 -36,48 -35,48 -36,49 -38,48 -35,48 -39,46 -38,48 -38,46 -35,46 -39,46 -38,48 -38,46 -38,45 -5,3 -8,-3 -2,-5 v -5 l 38,-46 38,-45 38,-49 38,-45 36,-46 38,-46 38,-48 38,-46 36,-48 38,-46 36,-48 35,-49 36,-48 35,-51 36,-48 33,-51 56,-84 48,-86 48,-79 44,-79 43,-81 43,-81 41,-84 43,-87 53,-109 51,-112 51,-114 51,-119 51,-117 45,-117 49,-120 48,-119 48,-122 51,-120 48,-119 54,-122 53,-114 56,-117 56,-115 61,-111 5,-3 h 10 l 3,3 z"
   id="path102"
   inkscape:connector-curvature="0"
   style="fill:#000000;stroke:none" />
         <path
   d="m 12253,12820 -58,112 -59,114 -56,117 -53,117 -51,120 -51,119 -48,120 -51,121 -48,120 -49,119 -48,117 -48,120 -48,117 -51,114 -51,112 -53,109 -44,87 -43,83 -40,82 -44,81 -45,79 -46,79 -51,86 -56,84 -33,51 -35,51 -36,48 -36,48 -35,48 -36,49 -38,48 -35,48 -39,46 -38,48 -38,46 -35,46 -39,46 -38,48 -38,46 -38,45 -5,3 -8,-3 -2,-5 v -5 l 38,-46 38,-45 38,-49 38,-45 36,-46 38,-46 38,-48 38,-46 36,-48 38,-46 36,-48 35,-49 36,-48 35,-51 36,-48 33,-51 56,-84 48,-86 48,-79 44,-79 43,-81 43,-81 41,-84 43,-87 53,-109 51,-112 51,-114 51,-119 51,-117 45,-117 49,-120 48,-119 48,-122 51,-120 48,-119 54,-122 53,-114 56,-117 56,-115 61,-111 5,-3 h 10 l 3,3 z"
   id="path104"
   inkscape:connector-curvature="0"
   style="fill:none;stroke:#000000" />
         <path
   d="m 12256,12851 -41,231 -41,229 -35,231 -33,229 -33,228 -33,227 -31,231 -30,229 -11,76 -12,74 -16,73 -15,74 -15,71 -15,74 -13,73 -13,77 -10,73 -13,67 -15,68 -13,66 -15,66 -15,66 -15,72 -13,71 -5,5 h -5 l -5,-3 -3,-5 13,-71 18,-69 12,-68 16,-66 12,-66 18,-66 10,-69 10,-71 13,-79 13,-74 15,-73 15,-72 16,-73 15,-74 13,-74 10,-76 30,-229 31,-231 33,-226 35,-229 31,-229 35,-231 44,-229 38,-233 2,-3 10,-3 3,6 z"
   id="path106"
   inkscape:connector-curvature="0"
   style="fill:#000000;stroke:none" />
         <path
   d="m 12256,12851 -41,231 -41,229 -35,231 -33,229 -33,228 -33,227 -31,231 -30,229 -11,76 -12,74 -16,73 -15,74 -15,71 -15,74 -13,73 -13,77 -10,73 -13,67 -15,68 -13,66 -15,66 -15,66 -15,72 -13,71 -5,5 h -5 l -5,-3 -3,-5 13,-71 18,-69 12,-68 16,-66 12,-66 18,-66 10,-69 10,-71 13,-79 13,-74 15,-73 15,-72 16,-73 15,-74 13,-74 10,-76 30,-229 31,-231 33,-226 35,-229 31,-229 35,-231 44,-229 38,-233 2,-3 10,-3 3,6 z"
   id="path108"
   inkscape:connector-curvature="0"
   style="fill:none;stroke:#000000" />
         <path
   d="m 11788,15834 -79,16 -79,17 -78,18 -79,18 -76,15 -77,18 -76,18 -76,18 -76,17 -79,18 -76,18 -77,15 -78,18 -79,15 -79,15 -81,16 -110,10 -7,-3 -3,-5 v -5 l 5,-5 110,-23 81,-15 79,-15 79,-13 78,-18 77,-15 78,-15 77,-16 76,-17 76,-16 79,-17 76,-16 76,-17 79,-16 79,-17 79,-16 78,-17 8,2 3,5 v 5 z"
   id="path110"
   inkscape:connector-curvature="0"
   style="fill:#000000;stroke:none" />
         <path
   d="m 11788,15834 -79,16 -79,17 -78,18 -79,18 -76,15 -77,18 -76,18 -76,18 -76,17 -79,18 -76,18 -77,15 -78,18 -79,15 -79,15 -81,16 -110,10 -7,-3 -3,-5 v -5 l 5,-5 110,-23 81,-15 79,-15 79,-13 78,-18 77,-15 78,-15 77,-16 76,-17 76,-16 79,-17 76,-16 76,-17 79,-16 79,-17 79,-16 78,-17 8,2 3,5 v 5 z"
   id="path112"
   inkscape:connector-curvature="0"
   style="fill:none;stroke:#000000" />
         <path
   d="m 7966,16703 43,-17 46,-18 46,-15 48,-18 48,-15 48,-13 49,-15 50,-13 49,-13 51,-12 53,-13 51,-10 53,-11 51,-10 53,-10 54,-7 56,-8 50,-8 49,-5 45,-2 41,-3 38,3 33,2 28,5 26,10 20,13 15,15 10,21 8,25 v 28 l -3,33 -10,38 38,3 39,-3 40,-2 43,-5 44,-8 40,-8 43,-7 41,-8 43,-10 46,-10 46,-10 48,-11 48,-10 46,-10 51,-10 48,-13 49,-10 48,-10 51,-10 48,-10 46,-11 48,-10 46,-10 45,-10 13,-3 20,-5 28,-7 36,-8 38,-8 43,-7 49,-10 48,-8 48,-5 51,-5 48,-5 h 46 l 43,2 38,5 33,8 26,13 18,18 2,20 -2,23 -5,20 v 18 l 7,18 28,10 48,5 h 33 l 39,-3 43,-2 45,-5 54,-8 53,-8 59,-10 61,-10 66,-10 66,-13 68,-15 69,-13 71,-15 74,-18 76,-15 71,-18 74,-15 71,-18 74,-18 71,-17 71,-16 69,-17 66,-18 66,-15 61,-16 58,-15 56,-15 54,-13 48,-13 43,-12 41,-10 33,-11 v 13 l -36,10 -38,10 -43,13 -48,13 -54,15 -56,15 -58,16 -61,15 -66,18 -66,17 -69,18 -71,18 -71,18 -74,18 -71,17 -74,18 -71,18 -76,18 -74,15 -71,15 -69,15 -68,16 -66,12 -64,13 -63,10 -56,10 -56,8 -51,8 -48,5 -43,2 -39,3 h -33 l -53,-5 -30,-10 -16,-18 v -18 l 3,-23 2,-20 -5,-23 -20,-20 -25,-13 -31,-8 -36,-5 h -40 -43 l -46,5 -48,5 -46,8 -46,8 -46,7 -40,10 -38,8 -33,8 -26,7 -20,5 -13,3 -46,10 -45,10 -46,10 -48,11 -49,10 -48,10 -48,10 -49,10 -48,13 -51,10 -48,10 -46,10 -48,11 -46,10 -45,10 -44,10 -43,8 -46,5 -45,5 -46,2 h -46 l -46,3 h -43 l -38,-3 8,-35 2,-31 -2,-25 -5,-23 -13,-20 -15,-16 -18,-12 -26,-8 -28,-7 -30,-3 -36,-3 h -38 l -43,3 -43,5 -48,5 -51,8 -54,7 -53,11 -51,10 -53,10 -51,10 -51,10 -51,13 -50,13 -46,12 -54,16 -48,15 -46,15 -48,15 -46,16 -45,17 -44,18 h -7 l -3,-2 -2,-5 z"
   id="path114"
   inkscape:connector-curvature="0"
   style="fill:#000000;stroke:none" />
         <path
   d="m 7966,16703 43,-17 46,-18 46,-15 48,-18 48,-15 48,-13 49,-15 50,-13 49,-13 51,-12 53,-13 51,-10 53,-11 51,-10 53,-10 54,-7 56,-8 50,-8 49,-5 45,-2 41,-3 38,3 33,2 28,5 26,10 20,13 15,15 10,21 8,25 v 28 l -3,33 -10,38 38,3 39,-3 40,-2 43,-5 44,-8 40,-8 43,-7 41,-8 43,-10 46,-10 46,-10 48,-11 48,-10 46,-10 51,-10 48,-13 49,-10 48,-10 51,-10 48,-10 46,-11 48,-10 46,-10 45,-10 13,-3 20,-5 28,-7 36,-8 38,-8 43,-7 49,-10 48,-8 48,-5 51,-5 48,-5 h 46 l 43,2 38,5 33,8 26,13 18,18 2,20 -2,23 -5,20 v 18 l 7,18 28,10 48,5 h 33 l 39,-3 43,-2 45,-5 54,-8 53,-8 59,-10 61,-10 66,-10 66,-13 68,-15 69,-13 71,-15 74,-18 76,-15 71,-18 74,-15 71,-18 74,-18 71,-17 71,-16 69,-17 66,-18 66,-15 61,-16 58,-15 56,-15 54,-13 48,-13 43,-12 41,-10 33,-11 v 13 l -36,10 -38,10 -43,13 -48,13 -54,15 -56,15 -58,16 -61,15 -66,18 -66,17 -69,18 -71,18 -71,18 -74,18 -71,17 -74,18 -71,18 -76,18 -74,15 -71,15 -69,15 -68,16 -66,12 -64,13 -63,10 -56,10 -56,8 -51,8 -48,5 -43,2 -39,3 h -33 l -53,-5 -30,-10 -16,-18 v -18 l 3,-23 2,-20 -5,-23 -20,-20 -25,-13 -31,-8 -36,-5 h -40 -43 l -46,5 -48,5 -46,8 -46,8 -46,7 -40,10 -38,8 -33,8 -26,7 -20,5 -13,3 -46,10 -45,10 -46,10 -48,11 -49,10 -48,10 -48,10 -49,10 -48,13 -51,10 -48,10 -46,10 -48,11 -46,10 -45,10 -44,10 -43,8 -46,5 -45,5 -46,2 h -46 l -46,3 h -43 l -38,-3 8,-35 2,-31 -2,-25 -5,-23 -13,-20 -15,-16 -18,-12 -26,-8 -28,-7 -30,-3 -36,-3 h -38 l -43,3 -43,5 -48,5 -51,8 -54,7 -53,11 -51,10 -53,10 -51,10 -51,10 -51,13 -50,13 -46,12 -54,16 -48,15 -46,15 -48,15 -46,16 -45,17 -44,18 h -7 l -3,-2 -2,-5 z"
   id="path116"
   inkscape:connector-curvature="0"
   style="fill:none;stroke:#000000" />
         <path
   d="m 7910,16787 43,-17 46,-18 46,-15 48,-18 48,-16 48,-12 49,-15 51,-13 48,-13 51,-13 53,-12 51,-10 53,-11 51,-10 53,-10 54,-8 56,-7 51,-8 48,-5 46,-2 40,-3 h 38 l 33,5 28,5 26,10 20,13 15,15 10,21 8,22 v 31 l -2,33 -11,38 h 39 38 l 40,-5 44,-5 43,-5 40,-8 44,-7 40,-8 43,-10 46,-10 46,-10 48,-11 48,-10 46,-10 51,-10 48,-13 49,-10 48,-10 51,-10 48,-11 46,-10 48,-10 46,-10 46,-10 12,-3 21,-5 28,-7 35,-8 38,-10 43,-8 49,-7 48,-8 48,-8 51,-5 48,-2 46,-3 43,3 38,5 34,10 25,13 18,17 2,21 -2,23 -5,20 v 18 l 7,18 28,10 48,5 h 34 l 38,-3 43,-5 48,-5 53,-10 56,-10 59,-10 63,-13 66,-15 69,-16 71,-15 71,-18 74,-20 76,-18 74,-20 76,-20 77,-21 73,-20 76,-20 74,-21 71,-20 71,-20 69,-18 66,-21 66,-17 59,-18 58,-15 53,-16 49,-15 46,-13 38,-10 35,-10 v 8 l -35,10 -38,10 -46,13 -49,15 -53,15 -58,18 -59,18 -63,18 -66,20 -72,20 -68,21 -74,22 -74,21 -73,23 -76,20 -77,20 -76,23 -71,21 -79,20 -74,18 -71,17 -71,18 -69,18 -63,15 -64,13 -61,13 -56,10 -50,7 -49,8 -45,5 -38,3 h -34 l -53,-5 -30,-13 -16,-15 v -21 l 3,-20 2,-23 -5,-20 -17,-21 -26,-12 -30,-8 -38,-5 h -41 -43 l -46,3 -46,7 -48,5 -46,8 -46,10 -40,8 -38,7 -33,8 -26,8 -20,5 -13,2 -46,10 -45,13 -46,10 -48,10 -49,11 -48,10 -48,10 -48,10 -49,10 -51,10 -48,11 -46,10 -48,10 -46,10 -45,10 -44,10 -43,8 -43,5 -48,5 -46,5 h -46 l -46,3 h -43 l -38,-3 8,-35 2,-31 -2,-28 -5,-23 -13,-17 -15,-16 -18,-12 -25,-11 -28,-7 -31,-3 -35,-2 -39,2 -43,3 -43,5 -48,5 -51,8 -53,7 -54,10 -51,11 -53,10 -51,10 -51,10 -51,13 -50,13 -49,12 -50,15 -49,16 -45,15 -49,15 -46,15 -45,18 -43,18 h -8 l -3,-2 -2,-6 z"
   id="path118"
   inkscape:connector-curvature="0"
   style="fill:#000000;stroke:none" />
         <path
   d="m 7910,16787 43,-17 46,-18 46,-15 48,-18 48,-16 48,-12 49,-15 51,-13 48,-13 51,-13 53,-12 51,-10 53,-11 51,-10 53,-10 54,-8 56,-7 51,-8 48,-5 46,-2 40,-3 h 38 l 33,5 28,5 26,10 20,13 15,15 10,21 8,22 v 31 l -2,33 -11,38 h 39 38 l 40,-5 44,-5 43,-5 40,-8 44,-7 40,-8 43,-10 46,-10 46,-10 48,-11 48,-10 46,-10 51,-10 48,-13 49,-10 48,-10 51,-10 48,-11 46,-10 48,-10 46,-10 46,-10 12,-3 21,-5 28,-7 35,-8 38,-10 43,-8 49,-7 48,-8 48,-8 51,-5 48,-2 46,-3 43,3 38,5 34,10 25,13 18,17 2,21 -2,23 -5,20 v 18 l 7,18 28,10 48,5 h 34 l 38,-3 43,-5 48,-5 53,-10 56,-10 59,-10 63,-13 66,-15 69,-16 71,-15 71,-18 74,-20 76,-18 74,-20 76,-20 77,-21 73,-20 76,-20 74,-21 71,-20 71,-20 69,-18 66,-21 66,-17 59,-18 58,-15 53,-16 49,-15 46,-13 38,-10 35,-10 v 8 l -35,10 -38,10 -46,13 -49,15 -53,15 -58,18 -59,18 -63,18 -66,20 -72,20 -68,21 -74,22 -74,21 -73,23 -76,20 -77,20 -76,23 -71,21 -79,20 -74,18 -71,17 -71,18 -69,18 -63,15 -64,13 -61,13 -56,10 -50,7 -49,8 -45,5 -38,3 h -34 l -53,-5 -30,-13 -16,-15 v -21 l 3,-20 2,-23 -5,-20 -17,-21 -26,-12 -30,-8 -38,-5 h -41 -43 l -46,3 -46,7 -48,5 -46,8 -46,10 -40,8 -38,7 -33,8 -26,8 -20,5 -13,2 -46,10 -45,13 -46,10 -48,10 -49,11 -48,10 -48,10 -48,10 -49,10 -51,10 -48,11 -46,10 -48,10 -46,10 -45,10 -44,10 -43,8 -43,5 -48,5 -46,5 h -46 l -46,3 h -43 l -38,-3 8,-35 2,-31 -2,-28 -5,-23 -13,-17 -15,-16 -18,-12 -25,-11 -28,-7 -31,-3 -35,-2 -39,2 -43,3 -43,5 -48,5 -51,8 -53,7 -54,10 -51,11 -53,10 -51,10 -51,10 -51,13 -50,13 -49,12 -50,15 -49,16 -45,15 -49,15 -46,15 -45,18 -43,18 h -8 l -3,-2 -2,-6 z"
   id="path120"
   inkscape:connector-curvature="0"
   style="fill:none;stroke:#000000" />
         <path
   d="m 7857,16876 43,-17 45,-18 46,-16 49,-17 48,-16 48,-12 48,-16 51,-12 48,-13 51,-13 54,-12 51,-11 53,-10 51,-10 53,-10 53,-8 56,-7 51,-8 48,-5 46,-3 41,-2 38,2 33,3 28,5 25,10 21,13 15,15 10,21 5,25 3,28 -5,33 -8,38 38,3 38,-3 41,-2 43,-6 43,-7 41,-8 43,-7 41,-8 43,-10 46,-10 46,-11 48,-10 46,-10 48,-10 51,-10 48,-13 48,-10 49,-10 48,-10 48,-11 48,-10 46,-10 46,-10 46,-10 12,-3 23,-5 28,-7 33,-8 41,-8 43,-7 48,-11 49,-7 48,-5 51,-5 48,-5 h 46 l 43,2 38,5 33,8 26,13 15,17 5,21 -5,23 -5,20 v 18 l 10,17 25,11 51,5 h 33 l 38,-3 46,-7 48,-8 54,-10 58,-13 61,-13 64,-17 68,-18 71,-18 72,-20 76,-21 74,-23 78,-22 77,-26 78,-23 79,-25 79,-23 76,-25 76,-26 77,-23 71,-25 71,-23 69,-20 66,-23 63,-21 56,-17 56,-18 51,-15 43,-13 41,-13 35,-10 v 8 l -35,10 -41,13 -43,12 -51,18 -56,18 -56,18 -63,20 -66,23 -69,23 -66,25 -76,23 -77,25 -73,26 -79,25 -79,26 -76,25 -79,25 -79,26 -76,23 -76,23 -74,23 -74,22 -68,18 -69,21 -66,15 -61,15 -56,13 -56,10 -48,8 -43,7 -41,3 h -33 l -56,-5 -30,-11 -13,-17 -3,-18 6,-23 v -20 l -6,-23 -17,-21 -26,-12 -30,-8 -36,-5 h -40 -44 l -45,5 -49,5 -45,8 -46,7 -46,8 -41,10 -38,8 -33,7 -25,8 -20,5 -13,3 -46,10 -46,10 -45,10 -49,10 -48,11 -48,10 -49,10 -48,10 -51,13 -48,10 -48,10 -49,10 -45,10 -49,11 -45,10 -44,10 -43,8 -43,5 -46,5 -48,2 h -46 l -43,3 h -43 l -41,-3 8,-35 5,-31 -3,-25 -7,-23 -10,-20 -16,-16 -20,-12 -23,-8 -28,-8 -33,-2 -33,-3 h -41 l -40,3 -46,5 -48,5 -51,8 -53,7 -51,10 -54,11 -50,10 -54,10 -51,10 -50,13 -49,12 -51,13 -48,15 -48,16 -48,15 -46,15 -46,15 -46,18 -43,18 h -7 l -3,-3 v -5 z"
   id="path122"
   inkscape:connector-curvature="0"
   style="fill:#000000;stroke:none" />
         <path
   d="m 7857,16876 43,-17 45,-18 46,-16 49,-17 48,-16 48,-12 48,-16 51,-12 48,-13 51,-13 54,-12 51,-11 53,-10 51,-10 53,-10 53,-8 56,-7 51,-8 48,-5 46,-3 41,-2 38,2 33,3 28,5 25,10 21,13 15,15 10,21 5,25 3,28 -5,33 -8,38 38,3 38,-3 41,-2 43,-6 43,-7 41,-8 43,-7 41,-8 43,-10 46,-10 46,-11 48,-10 46,-10 48,-10 51,-10 48,-13 48,-10 49,-10 48,-10 48,-11 48,-10 46,-10 46,-10 46,-10 12,-3 23,-5 28,-7 33,-8 41,-8 43,-7 48,-11 49,-7 48,-5 51,-5 48,-5 h 46 l 43,2 38,5 33,8 26,13 15,17 5,21 -5,23 -5,20 v 18 l 10,17 25,11 51,5 h 33 l 38,-3 46,-7 48,-8 54,-10 58,-13 61,-13 64,-17 68,-18 71,-18 72,-20 76,-21 74,-23 78,-22 77,-26 78,-23 79,-25 79,-23 76,-25 76,-26 77,-23 71,-25 71,-23 69,-20 66,-23 63,-21 56,-17 56,-18 51,-15 43,-13 41,-13 35,-10 v 8 l -35,10 -41,13 -43,12 -51,18 -56,18 -56,18 -63,20 -66,23 -69,23 -66,25 -76,23 -77,25 -73,26 -79,25 -79,26 -76,25 -79,25 -79,26 -76,23 -76,23 -74,23 -74,22 -68,18 -69,21 -66,15 -61,15 -56,13 -56,10 -48,8 -43,7 -41,3 h -33 l -56,-5 -30,-11 -13,-17 -3,-18 6,-23 v -20 l -6,-23 -17,-21 -26,-12 -30,-8 -36,-5 h -40 -44 l -45,5 -49,5 -45,8 -46,7 -46,8 -41,10 -38,8 -33,7 -25,8 -20,5 -13,3 -46,10 -46,10 -45,10 -49,10 -48,11 -48,10 -49,10 -48,10 -51,13 -48,10 -48,10 -49,10 -45,10 -49,11 -45,10 -44,10 -43,8 -43,5 -46,5 -48,2 h -46 l -43,3 h -43 l -41,-3 8,-35 5,-31 -3,-25 -7,-23 -10,-20 -16,-16 -20,-12 -23,-8 -28,-8 -33,-2 -33,-3 h -41 l -40,3 -46,5 -48,5 -51,8 -53,7 -51,10 -54,11 -50,10 -54,10 -51,10 -50,13 -49,12 -51,13 -48,15 -48,16 -48,15 -46,15 -46,15 -46,18 -43,18 h -7 l -3,-3 v -5 z"
   id="path124"
   inkscape:connector-curvature="0"
   style="fill:none;stroke:#000000" />
         <path
   d="m 10116,15992 -13,-3 -15,-2 -18,-3 h -18 l -20,-2 -20,-3 -21,-2 h -20 -41 -45 l -54,2 -53,5 -59,8 -58,7 -59,11 -58,10 -58,13 -54,10 -48,12 -43,11 -38,12 -28,10 -21,11 -10,7 -5,15 3,16 7,18 8,15 5,15 -3,15 -10,16 -25,17 -33,13 -43,8 -49,2 h -48 l -53,-2 -51,-3 h -46 -41 l -43,5 -51,8 -53,13 -56,12 -61,15 -61,18 -63,18 -64,20 -64,23 -63,23 -61,26 -59,22 -55,26 -54,28 -46,25 -43,26 h -7 l -5,-3 -3,-5 5,-5 43,-26 49,-27 50,-26 59,-25 58,-28 61,-23 64,-26 63,-22 64,-23 63,-21 64,-17 61,-18 56,-13 56,-13 48,-7 46,-5 h 38 l 46,2 48,3 51,2 h 48 46 l 43,-7 33,-10 23,-16 10,-15 v -13 l -5,-15 -8,-13 -5,-15 -5,-13 5,-15 10,-10 23,-10 28,-13 38,-10 46,-13 51,-12 53,-13 59,-13 61,-10 61,-10 61,-8 58,-7 56,-6 54,-5 h 48 40 l 23,3 31,2 30,3 31,3 33,5 25,2 26,3 15,2 v 0 l -5,3 h -10 l -13,2 h -13 l -12,3 h -11 z"
   id="path126"
   inkscape:connector-curvature="0"
   style="fill:#000000;stroke:none" />
         <path
   d="m 10116,15992 -13,-3 -15,-2 -18,-3 h -18 l -20,-2 -20,-3 -21,-2 h -20 -41 -45 l -54,2 -53,5 -59,8 -58,7 -59,11 -58,10 -58,13 -54,10 -48,12 -43,11 -38,12 -28,10 -21,11 -10,7 -5,15 3,16 7,18 8,15 5,15 -3,15 -10,16 -25,17 -33,13 -43,8 -49,2 h -48 l -53,-2 -51,-3 h -46 -41 l -43,5 -51,8 -53,13 -56,12 -61,15 -61,18 -63,18 -64,20 -64,23 -63,23 -61,26 -59,22 -55,26 -54,28 -46,25 -43,26 h -7 l -5,-3 -3,-5 5,-5 43,-26 49,-27 50,-26 59,-25 58,-28 61,-23 64,-26 63,-22 64,-23 63,-21 64,-17 61,-18 56,-13 56,-13 48,-7 46,-5 h 38 l 46,2 48,3 51,2 h 48 46 l 43,-7 33,-10 23,-16 10,-15 v -13 l -5,-15 -8,-13 -5,-15 -5,-13 5,-15 10,-10 23,-10 28,-13 38,-10 46,-13 51,-12 53,-13 59,-13 61,-10 61,-10 61,-8 58,-7 56,-6 54,-5 h 48 40 l 23,3 31,2 30,3 31,3 33,5 25,2 26,3 15,2 v 0 l -5,3 h -10 l -13,2 h -13 l -12,3 h -11 z"
   id="path128"
   inkscape:connector-curvature="0"
   style="fill:none;stroke:#000000" />
         <path
   d="m 9900,15913 h -41 -46 l -53,3 -53,5 -59,7 -58,8 -61,10 -59,10 -56,13 -53,10 -48,13 -43,10 -39,13 -30,10 -20,10 -11,8 -5,15 3,15 7,18 11,15 5,15 -3,16 -10,15 -25,18 -36,12 -43,8 -46,3 h -51 l -53,-3 -51,-2 h -46 -40 l -44,5 -48,7 -53,13 -59,13 -58,15 -61,18 -64,18 -63,20 -64,23 -63,23 -61,25 -56,23 -59,25 -53,28 -46,26 -43,25 h -8 l -5,-2 -2,-6 5,-5 43,-25 48,-28 51,-25 59,-26 58,-28 61,-23 64,-25 63,-23 64,-23 63,-20 64,-18 58,-18 59,-12 53,-13 48,-8 46,-5 h 41 l 46,3 48,2 51,3 h 48 46 l 40,-8 33,-10 23,-15 10,-16 3,-12 -5,-15 -8,-13 -5,-15 -5,-13 5,-15 10,-11 21,-10 30,-12 36,-13 43,-13 48,-15 54,-13 55,-12 59,-13 58,-10 59,-11 58,-7 56,-8 51,-5 h 48 41 15 l 21,3 25,2 30,3 36,2 36,5 40,3 38,2 41,6 38,2 36,5 30,3 31,2 23,3 15,2 h 10 -3 -10 -20 l -23,-2 h -30 l -36,-3 h -36 l -40,-2 h -41 l -38,-3 h -38 l -38,-2 h -31 -28 l -20,-3 z"
   id="path130"
   inkscape:connector-curvature="0"
   style="fill:#000000;stroke:none" />
         <path
   d="m 9900,15913 h -41 -46 l -53,3 -53,5 -59,7 -58,8 -61,10 -59,10 -56,13 -53,10 -48,13 -43,10 -39,13 -30,10 -20,10 -11,8 -5,15 3,15 7,18 11,15 5,15 -3,16 -10,15 -25,18 -36,12 -43,8 -46,3 h -51 l -53,-3 -51,-2 h -46 -40 l -44,5 -48,7 -53,13 -59,13 -58,15 -61,18 -64,18 -63,20 -64,23 -63,23 -61,25 -56,23 -59,25 -53,28 -46,26 -43,25 h -8 l -5,-2 -2,-6 5,-5 43,-25 48,-28 51,-25 59,-26 58,-28 61,-23 64,-25 63,-23 64,-23 63,-20 64,-18 58,-18 59,-12 53,-13 48,-8 46,-5 h 41 l 46,3 48,2 51,3 h 48 46 l 40,-8 33,-10 23,-15 10,-16 3,-12 -5,-15 -8,-13 -5,-15 -5,-13 5,-15 10,-11 21,-10 30,-12 36,-13 43,-13 48,-15 54,-13 55,-12 59,-13 58,-10 59,-11 58,-7 56,-8 51,-5 h 48 41 15 l 21,3 25,2 30,3 36,2 36,5 40,3 38,2 41,6 38,2 36,5 30,3 31,2 23,3 15,2 h 10 -3 -10 -20 l -23,-2 h -30 l -36,-3 h -36 l -40,-2 h -41 l -38,-3 h -38 l -38,-2 h -31 -28 l -20,-3 z"
   id="path132"
   inkscape:connector-curvature="0"
   style="fill:none;stroke:#000000" />
         <path
   d="m 12014,13943 -46,74 -43,71 -43,66 -46,64 -43,61 -48,56 -51,63 -53,64 h 38 l 40,-3 h 36 l 35,3 31,5 28,10 20,15 13,21 v 38 l -15,38 -26,41 -33,38 -35,35 -36,31 -30,28 -23,20 -41,38 -38,38 -38,39 -38,38 -38,35 -36,41 -36,38 -35,41 -36,40 -33,41 -33,41 -33,43 -30,43 -31,46 -30,46 -28,45 -3,28 3,28 7,26 21,20 81,2 46,11 12,15 -10,20 -28,21 -38,22 -40,23 -36,23 -31,28 -30,26 -25,22 -28,23 -26,23 -28,23 -28,23 -30,25 -41,64 -10,8 -10,-3 -10,-8 2,-10 38,-68 31,-26 30,-25 28,-23 28,-23 28,-25 28,-23 31,-26 30,-28 26,-15 30,-15 28,-15 23,-16 10,-12 -5,-11 -28,-7 -56,-3 -30,-28 -13,-30 -8,-36 v -35 l 28,-49 31,-45 33,-46 30,-43 33,-44 36,-40 35,-41 36,-41 36,-40 38,-38 35,-41 43,-38 36,-38 38,-38 41,-38 41,-39 22,-20 31,-25 33,-28 35,-36 31,-35 25,-36 13,-38 v -36 l -10,-20 -18,-13 -25,-10 -31,-5 h -35 -36 -35 -36 l 53,-64 49,-63 48,-61 43,-64 41,-66 43,-68 41,-74 45,-71 5,-5 h 8 l 5,5 z"
   id="path134"
   inkscape:connector-curvature="0"
   style="fill:#000000;stroke:none" />
         <path
   d="m 12014,13943 -46,74 -43,71 -43,66 -46,64 -43,61 -48,56 -51,63 -53,64 h 38 l 40,-3 h 36 l 35,3 31,5 28,10 20,15 13,21 v 38 l -15,38 -26,41 -33,38 -35,35 -36,31 -30,28 -23,20 -41,38 -38,38 -38,39 -38,38 -38,35 -36,41 -36,38 -35,41 -36,40 -33,41 -33,41 -33,43 -30,43 -31,46 -30,46 -28,45 -3,28 3,28 7,26 21,20 81,2 46,11 12,15 -10,20 -28,21 -38,22 -40,23 -36,23 -31,28 -30,26 -25,22 -28,23 -26,23 -28,23 -28,23 -30,25 -41,64 -10,8 -10,-3 -10,-8 2,-10 38,-68 31,-26 30,-25 28,-23 28,-23 28,-25 28,-23 31,-26 30,-28 26,-15 30,-15 28,-15 23,-16 10,-12 -5,-11 -28,-7 -56,-3 -30,-28 -13,-30 -8,-36 v -35 l 28,-49 31,-45 33,-46 30,-43 33,-44 36,-40 35,-41 36,-41 36,-40 38,-38 35,-41 43,-38 36,-38 38,-38 41,-38 41,-39 22,-20 31,-25 33,-28 35,-36 31,-35 25,-36 13,-38 v -36 l -10,-20 -18,-13 -25,-10 -31,-5 h -35 -36 -35 -36 l 53,-64 49,-63 48,-61 43,-64 41,-66 43,-68 41,-74 45,-71 5,-5 h 8 l 5,5 z"
   id="path136"
   inkscape:connector-curvature="0"
   style="fill:none;stroke:#000000" />
         <path
   d="m 12517,14846 -25,33 -28,40 -36,41 -40,51 -41,51 -38,53 -38,53 -33,54 -28,51 -18,48 -8,43 5,38 21,31 40,25 54,15 74,6 -8,43 -10,35 -18,31 -20,23 -26,23 -30,20 -36,23 -43,25 -31,26 -28,25 -27,28 -28,28 -26,28 -28,30 -23,31 -23,30 -5,5 -7,-2 -5,-3 2,-7 23,-33 23,-31 28,-30 25,-31 28,-28 28,-28 28,-28 31,-25 40,-23 38,-20 28,-18 28,-20 23,-21 18,-25 13,-33 7,-41 -78,-5 -56,-15 -38,-26 -21,-33 -7,-38 7,-46 18,-50 25,-49 36,-53 36,-56 40,-53 41,-54 38,-48 36,-46 30,-40 23,-36 8,-5 h 5 l 7,5 z"
   id="path138"
   inkscape:connector-curvature="0"
   style="fill:#000000;stroke:none" />
         <path
   d="m 12517,14846 -25,33 -28,40 -36,41 -40,51 -41,51 -38,53 -38,53 -33,54 -28,51 -18,48 -8,43 5,38 21,31 40,25 54,15 74,6 -8,43 -10,35 -18,31 -20,23 -26,23 -30,20 -36,23 -43,25 -31,26 -28,25 -27,28 -28,28 -26,28 -28,30 -23,31 -23,30 -5,5 -7,-2 -5,-3 2,-7 23,-33 23,-31 28,-30 25,-31 28,-28 28,-28 28,-28 31,-25 40,-23 38,-20 28,-18 28,-20 23,-21 18,-25 13,-33 7,-41 -78,-5 -56,-15 -38,-26 -21,-33 -7,-38 7,-46 18,-50 25,-49 36,-53 36,-56 40,-53 41,-54 38,-48 36,-46 30,-40 23,-36 8,-5 h 5 l 7,5 z"
   id="path140"
   inkscape:connector-curvature="0"
   style="fill:none;stroke:#000000" />
        </g>
       </g>
      </g>
     </g>
    </g>
   </g>
  </g>
 </g>
</svg>