<?xml version="1.0" encoding="UTF-8" standalone="no"?>
<svg
   xmlns:ooo="http://xml.openoffice.org/svg/export"
   xmlns:dc="http://purl.org/dc/elements/1.1/"
   xmlns:cc="http://creativecommons.org/ns#"
   xmlns:rdf="http://www.w3.org/1999/02/22-rdf-syntax-ns#"
   xmlns:svg="http://www.w3.org/2000/svg"
   xmlns="http://www.w3.org/2000/svg"
   xmlns:sodipodi="http://sodipodi.sourceforge.net/DTD/sodipodi-0.dtd"
   xmlns:inkscape="http://www.inkscape.org/namespaces/inkscape"
   version="1.2"
   width="20.799999mm"
   height="23.01mm"
   viewBox="0 0 2079.9999 2301"
   preserveAspectRatio="xMidYMid"
   xml:space="preserve"
   id="svg405"
   sodipodi:docname="satellit.svg"
   style="fill-rule:evenodd;stroke-width:28.22200012;stroke-linejoin:round"
   inkscape:version="0.92.5 (2060ec1f9f, 2020-04-08)"><metadata
   id="metadata409"><rdf:RDF><cc:Work
       rdf:about=""><dc:format>image/svg+xml</dc:format><dc:type
         rdf:resource="http://purl.org/dc/dcmitype/StillImage" /></cc:Work></rdf:RDF></metadata><sodipodi:namedview
   pagecolor="#ffffff"
   bordercolor="#666666"
   borderopacity="1"
   objecttolerance="10"
   gridtolerance="10"
   guidetolerance="10"
   inkscape:pageopacity="0"
   inkscape:pageshadow="2"
   inkscape:window-width="664"
   inkscape:window-height="487"
   id="namedview407"
   showgrid="false"
   inkscape:zoom="0.2102413"
   inkscape:cx="39.307088"
   inkscape:cy="43.464565"
   inkscape:window-x="0"
   inkscape:window-y="0"
   inkscape:window-maximized="0"
   inkscape:current-layer="svg405" />
 <defs
   class="ClipPathGroup"
   id="defs8">
  <clipPath
   id="presentation_clip_path"
   clipPathUnits="userSpaceOnUse">
   <rect
   x="0"
   y="0"
   width="21000"
   height="29700"
   id="rect2" />
  </clipPath>
  <clipPath
   id="presentation_clip_path_shrink"
   clipPathUnits="userSpaceOnUse">
   <rect
   x="21"
   y="29"
   width="20958"
   height="29641"
   id="rect5" />
  </clipPath>
 </defs>
 <defs
   class="TextShapeIndex"
   id="defs12">
  <g
   ooo:slide="id1"
   ooo:id-list="id3"
   id="g10" />
 </defs>
 <defs
   class="EmbeddedBulletChars"
   id="defs44">
  <g
   id="bullet-char-template-57356"
   transform="matrix(4.8828125e-4,0,0,-4.8828125e-4,0,0)">
   <path
   d="M 580,1141 1163,571 580,0 -4,571 Z"
   id="path14"
   inkscape:connector-curvature="0" />
  </g>
  <g
   id="bullet-char-template-57354"
   transform="matrix(4.8828125e-4,0,0,-4.8828125e-4,0,0)">
   <path
   d="M 8,1128 H 1137 V 0 H 8 Z"
   id="path17"
   inkscape:connector-curvature="0" />
  </g>
  <g
   id="bullet-char-template-10146"
   transform="matrix(4.8828125e-4,0,0,-4.8828125e-4,0,0)">
   <path
   d="M 174,0 602,739 174,1481 1456,739 Z M 1358,739 309,1346 659,739 Z"
   id="path20"
   inkscape:connector-curvature="0" />
  </g>
  <g
   id="bullet-char-template-10132"
   transform="matrix(4.8828125e-4,0,0,-4.8828125e-4,0,0)">
   <path
   d="M 2015,739 1276,0 H 717 l 543,543 H 174 v 393 h 1086 l -543,545 h 557 z"
   id="path23"
   inkscape:connector-curvature="0" />
  </g>
  <g
   id="bullet-char-template-10007"
   transform="matrix(4.8828125e-4,0,0,-4.8828125e-4,0,0)">
   <path
   d="m 0,-2 c -7,16 -16,29 -25,39 l 381,530 c -94,256 -141,385 -141,387 0,25 13,38 40,38 9,0 21,-2 34,-5 21,4 42,12 65,25 l 27,-13 111,-251 280,301 64,-25 24,25 c 21,-10 41,-24 62,-43 C 886,937 835,863 770,784 769,783 710,716 594,584 L 774,223 c 0,-27 -21,-55 -63,-84 l 16,-20 C 717,90 699,76 672,76 641,76 570,178 457,381 L 164,-76 c -22,-34 -53,-51 -92,-51 -42,0 -63,17 -64,51 -7,9 -10,24 -10,44 0,9 1,19 2,30 z"
   id="path26"
   inkscape:connector-curvature="0" />
  </g>
  <g
   id="bullet-char-template-10004"
   transform="matrix(4.8828125e-4,0,0,-4.8828125e-4,0,0)">
   <path
   d="M 285,-33 C 182,-33 111,30 74,156 52,228 41,333 41,471 c 0,78 14,145 41,201 34,71 87,106 158,106 53,0 88,-31 106,-94 l 23,-176 c 8,-64 28,-97 59,-98 l 735,706 c 11,11 33,17 66,17 42,0 63,-15 63,-46 V 965 c 0,-36 -10,-64 -30,-84 L 442,47 C 390,-6 338,-33 285,-33 Z"
   id="path29"
   inkscape:connector-curvature="0" />
  </g>
  <g
   id="bullet-char-template-9679"
   transform="matrix(4.8828125e-4,0,0,-4.8828125e-4,0,0)">
   <path
   d="M 813,0 C 632,0 489,54 383,161 276,268 223,411 223,592 c 0,181 53,324 160,431 106,107 249,161 430,161 179,0 323,-54 432,-161 108,-107 162,-251 162,-431 0,-180 -54,-324 -162,-431 C 1136,54 992,0 813,0 Z"
   id="path32"
   inkscape:connector-curvature="0" />
  </g>
  <g
   id="bullet-char-template-8226"
   transform="matrix(4.8828125e-4,0,0,-4.8828125e-4,0,0)">
   <path
   d="m 346,457 c -73,0 -137,26 -191,78 -54,51 -81,114 -81,188 0,73 27,136 81,188 54,52 118,78 191,78 73,0 134,-26 185,-79 51,-51 77,-114 77,-187 0,-75 -25,-137 -76,-188 -50,-52 -112,-78 -186,-78 z"
   id="path35"
   inkscape:connector-curvature="0" />
  </g>
  <g
   id="bullet-char-template-8211"
   transform="matrix(4.8828125e-4,0,0,-4.8828125e-4,0,0)">
   <path
   d="M -4,459 H 1135 V 606 H -4 Z"
   id="path38"
   inkscape:connector-curvature="0" />
  </g>
  <g
   id="bullet-char-template-61548"
   transform="matrix(4.8828125e-4,0,0,-4.8828125e-4,0,0)">
   <path
   d="m 173,740 c 0,163 58,303 173,419 116,115 255,173 419,173 163,0 302,-58 418,-173 116,-116 174,-256 174,-419 0,-163 -58,-303 -174,-418 C 1067,206 928,148 765,148 601,148 462,206 346,322 231,437 173,577 173,740 Z"
   id="path41"
   inkscape:connector-curvature="0" />
  </g>
 </defs>
 <g
   id="g49"
   transform="translate(-9460,-13699)">
  <g
   id="id2"
   class="Master_Slide">
   <g
   id="bg-id2"
   class="Background" />
   <g
   id="bo-id2"
   class="BackgroundObjects" />
  </g>
 </g>
 <g
   class="SlideGroup"
   id="g403"
   transform="translate(-9460,-13699)">
  <g
   id="g401">
   <g
   id="container-id1">
    <g
   id="id1"
   class="Slide"
   clip-path="url(#presentation_clip_path)">
     <g
   class="Page"
   id="g397">
      <g
   class="Graphic"
   id="g395">
       <g
   id="id3">
        <rect
   class="BoundingBox"
   x="9460"
   y="13699"
   width="2080"
   height="2301"
   id="rect51"
   style="fill:none;stroke:none" />
        <defs
   id="defs56">
         <clipPath
   id="clip_path_1"
   clipPathUnits="userSpaceOnUse">
          <path
   d="m 9460,13699 h 2079 v 2300 H 9460 Z"
   id="path53"
   inkscape:connector-curvature="0" />
         </clipPath>
        </defs>
        <g
   clip-path="url(#clip_path_1)"
   id="g392">
         <path
   d="m 10772,14604 15,226 18,18 735,-493 -5,-38 -92,-198 z"
   id="path58"
   inkscape:connector-curvature="0"
   style="fill:#ffffff;stroke:none" />
         <path
   d="m 10792,14825 3,5 -15,-226 h -16 l 16,226 2,6 -2,-6 v 3 l 2,3 z"
   id="path60"
   inkscape:connector-curvature="0"
   style="fill:#000000;stroke:none" />
         <path
   d="m 10800,14841 10,2 -18,-18 -10,11 18,17 10,3 -10,-3 5,8 5,-5 z"
   id="path62"
   inkscape:connector-curvature="0"
   style="fill:#000000;stroke:none" />
         <path
   d="m 11532,14355 3,-8 -735,494 10,15 735,-493 3,-8 -3,8 5,-5 -2,-3 z"
   id="path64"
   inkscape:connector-curvature="0"
   style="fill:#000000;stroke:none" />
         <path
   d="m 11527,14319 v -2 l 5,38 h 16 l -5,-38 v -3 3 -3 0 z"
   id="path66"
   inkscape:connector-curvature="0"
   style="fill:#000000;stroke:none" />
         <path
   d="m 11448,14126 -12,-5 91,198 16,-5 -92,-198 -13,-5 13,5 -5,-13 -8,8 z"
   id="path68"
   inkscape:connector-curvature="0"
   style="fill:#000000;stroke:none" />
         <path
   d="m 10780,14604 -3,8 671,-486 -10,-15 -671,486 -3,7 3,-7 -5,5 2,2 z"
   id="path70"
   inkscape:connector-curvature="0"
   style="fill:#000000;stroke:none" />
         <path
   d="m 10772,14581 666,-480 -84,-216 -605,470 z"
   id="path72"
   inkscape:connector-curvature="0"
   style="fill:#ffffff;stroke:none" />
         <path
   d="m 11431,14103 2,-10 -666,481 10,15 666,-481 3,-10 -3,10 5,-5 -2,-5 z"
   id="path74"
   inkscape:connector-curvature="0"
   style="fill:#000000;stroke:none" />
         <path
   d="m 11359,13892 -12,-5 84,216 15,-5 -84,-216 -13,-5 13,5 -5,-13 -8,8 z"
   id="path76"
   inkscape:connector-curvature="0"
   style="fill:#000000;stroke:none" />
         <path
   d="m 10757,14355 -3,8 605,-471 -10,-15 -605,470 -2,8 2,-8 -5,5 3,3 z"
   id="path78"
   inkscape:connector-curvature="0"
   style="fill:#000000;stroke:none" />
         <path
   d="m 10767,14574 13,7 -23,-226 h -15 l 22,226 13,8 -13,-8 v 18 l 13,-10 z"
   id="path80"
   inkscape:connector-curvature="0"
   style="fill:#000000;stroke:none" />
         <path
   d="m 10749,14332 593,-463 -61,-170 -550,463 z"
   id="path82"
   inkscape:connector-curvature="0"
   style="fill:#ffffff;stroke:none" />
         <path
   d="m 11334,13872 3,-10 -593,462 10,16 593,-463 2,-10 -2,10 5,-5 -3,-5 z"
   id="path84"
   inkscape:connector-curvature="0"
   style="fill:#000000;stroke:none" />
         <path
   d="m 11286,13707 -13,-5 61,170 15,-5 -61,-171 -12,-5 12,5 -5,-12 -7,7 z"
   id="path86"
   inkscape:connector-curvature="0"
   style="fill:#000000;stroke:none" />
         <path
   d="m 10739,14162 -3,7 550,-462 -10,-16 -550,463 -2,8 2,-8 -5,5 3,3 z"
   id="path88"
   inkscape:connector-curvature="0"
   style="fill:#000000;stroke:none" />
         <path
   d="m 10744,14324 13,8 -18,-170 h -15 l 18,170 12,8 -12,-8 v 18 l 12,-10 z"
   id="path90"
   inkscape:connector-curvature="0"
   style="fill:#000000;stroke:none" />
         <path
   d="m 11535,14317 -5,-8 -748,514 10,15 748,-514 z"
   id="path92"
   inkscape:connector-curvature="0"
   style="fill:#000000;stroke:none" />
         <path
   d="m 9569,15466 -109,277 18,23 610,-394 41,-244 -5,-18 z"
   id="path94"
   inkscape:connector-curvature="0"
   style="fill:#ffffff;stroke:none" />
         <path
   d="m 9468,15738 v 8 l 109,-277 -15,-5 -110,277 v 7 -7 l -2,2 2,5 z"
   id="path96"
   inkscape:connector-curvature="0"
   style="fill:#000000;stroke:none" />
         <path
   d="m 9473,15758 12,3 -17,-23 -16,10 18,23 13,3 -13,-3 8,8 5,-5 z"
   id="path98"
   inkscape:connector-curvature="0"
   style="fill:#000000;stroke:none" />
         <path
   d="m 10080,15372 3,-8 -610,394 10,16 610,-394 3,-8 -3,8 3,-3 v -5 z"
   id="path100"
   inkscape:connector-curvature="0"
   style="fill:#000000;stroke:none" />
         <path
   d="m 10121,15130 v -2 l -41,244 h 16 l 40,-244 v -3 3 h 3 l -3,-3 z"
   id="path102"
   inkscape:connector-curvature="0"
   style="fill:#000000;stroke:none" />
         <path
   d="m 10129,15118 -13,-5 5,17 15,-5 -5,-17 -12,-6 12,6 -2,-13 -10,7 z"
   id="path104"
   inkscape:connector-curvature="0"
   style="fill:#000000;stroke:none" />
         <path
   d="m 9577,15469 -3,5 555,-356 -10,-16 -555,356 -2,6 2,-6 -2,3 v 3 z"
   id="path106"
   inkscape:connector-curvature="0"
   style="fill:#000000;stroke:none" />
         <path
   d="m 9580,15438 554,-343 41,-209 -506,303 z"
   id="path108"
   inkscape:connector-curvature="0"
   style="fill:#ffffff;stroke:none" />
         <path
   d="m 10126,15095 3,-8 -555,343 11,16 554,-344 2,-7 -2,7 2,-2 v -5 z"
   id="path110"
   inkscape:connector-curvature="0"
   style="fill:#000000;stroke:none" />
         <path
   d="m 10180,14894 -13,-8 -41,209 h 15 l 41,-209 -13,-7 13,7 5,-17 -18,10 z"
   id="path112"
   inkscape:connector-curvature="0"
   style="fill:#000000;stroke:none" />
         <path
   d="m 9676,15191 -2,6 506,-303 -11,-15 -506,302 -2,5 2,-5 -2,3 v 2 z"
   id="path114"
   inkscape:connector-curvature="0"
   style="fill:#000000;stroke:none" />
         <path
   d="m 9574,15430 13,11 89,-250 -15,-5 -89,250 13,10 -13,-10 -10,25 23,-15 z"
   id="path116"
   inkscape:connector-curvature="0"
   style="fill:#000000;stroke:none" />
         <path
   d="m 9676,15174 501,-300 31,-201 -466,277 z"
   id="path118"
   inkscape:connector-curvature="0"
   style="fill:#ffffff;stroke:none" />
         <path
   d="m 10169,14874 3,-8 -501,300 10,15 501,-300 3,-7 -3,7 3,-2 v -5 z"
   id="path120"
   inkscape:connector-curvature="0"
   style="fill:#000000;stroke:none" />
         <path
   d="m 10213,14680 -13,-7 -31,201 h 16 l 30,-201 -13,-8 13,8 5,-18 -18,10 z"
   id="path122"
   inkscape:connector-curvature="0"
   style="fill:#000000;stroke:none" />
         <path
   d="m 9750,14952 -3,6 466,-278 -11,-15 -465,277 -2,5 2,-5 -2,3 v 2 z"
   id="path124"
   inkscape:connector-curvature="0"
   style="fill:#000000;stroke:none" />
         <path
   d="m 9671,15166 13,10 66,-224 -15,-5 -66,224 12,10 -12,-10 -8,23 20,-13 z"
   id="path126"
   inkscape:connector-curvature="0"
   style="fill:#000000;stroke:none" />
         <path
   d="m 11077,15039 89,89 8,112 -135,127 -107,-107 148,-140 z"
   id="path128"
   inkscape:connector-curvature="0"
   style="fill:#ffffff;stroke:none" />
         <path
   d="m 11174,15128 -3,-5 -89,-89 -10,10 89,89 -2,-5 h 15 v -3 l -3,-2 z"
   id="path130"
   inkscape:connector-curvature="0"
   style="fill:#000000;stroke:none" />
         <path
   d="m 11179,15245 2,-5 -7,-112 h -15 l 7,112 3,-5 10,10 5,-3 -3,-2 z"
   id="path132"
   inkscape:connector-curvature="0"
   style="fill:#000000;stroke:none" />
         <path
   d="m 11034,15372 h 10 l 135,-127 -10,-10 -135,127 h 10 l -10,10 5,8 5,-8 z"
   id="path134"
   inkscape:connector-curvature="0"
   style="fill:#000000;stroke:none" />
         <path
   d="m 10927,15255 v 10 l 107,107 10,-10 -107,-107 v 10 l -10,-10 -7,5 7,5 z"
   id="path136"
   inkscape:connector-curvature="0"
   style="fill:#000000;stroke:none" />
         <path
   d="m 11072,15120 3,-5 -148,140 10,10 148,-140 2,-5 -2,5 5,-2 v -3 z"
   id="path138"
   inkscape:connector-curvature="0"
   style="fill:#000000;stroke:none" />
         <path
   d="m 11082,15034 -12,5 2,81 h 15 l -2,-81 -13,5 10,-10 -15,-18 v 23 z"
   id="path140"
   inkscape:connector-curvature="0"
   style="fill:#000000;stroke:none" />
         <path
   d="m 11064,15133 -5,5 110,107 10,-10 -109,-107 z"
   id="path142"
   inkscape:connector-curvature="0"
   style="fill:#000000;stroke:none" />
         <path
   d="m 11362,15573 10,-3 26,-12 17,-23 v -36 l -249,-252 -71,69 z"
   id="path144"
   inkscape:connector-curvature="0"
   style="fill:#ffffff;stroke:none" />
         <path
   d="m 11410,15504 -2,-2 v 30 l -15,18 -23,13 -8,2 v 15 l 13,-2 28,-13 20,-28 v -40 l -3,-3 z"
   id="path146"
   inkscape:connector-curvature="0"
   style="fill:#000000;stroke:none" />
         <path
   d="m 11171,15252 h -10 l 249,252 10,-10 -249,-252 h -10 10 l -5,-7 -5,7 z"
   id="path148"
   inkscape:connector-curvature="0"
   style="fill:#000000;stroke:none" />
         <path
   d="m 11100,15311 v 10 l 71,-69 -10,-10 -71,69 v 10 -10 l -8,5 8,5 z"
   id="path150"
   inkscape:connector-curvature="0"
   style="fill:#000000;stroke:none" />
         <path
   d="m 11362,15565 5,3 -267,-257 -10,10 267,257 5,2 -5,-2 2,5 3,-3 z"
   id="path152"
   inkscape:connector-curvature="0"
   style="fill:#000000;stroke:none" />
         <path
   d="m 11413,15611 10,-5 15,-18 10,-18 6,-17 -8,-18 -13,-13 -18,-8 h -20 l -18,8 -15,13 -8,18 v 20 z"
   id="path154"
   inkscape:connector-curvature="0"
   style="fill:#ffffff;stroke:none" />
         <path
   d="m 11446,15553 v 0 l -5,15 -10,15 -13,18 h -5 v 20 l 15,-10 18,-18 10,-20 5,-20 v 0 z"
   id="path156"
   inkscape:connector-curvature="0"
   style="fill:#000000;stroke:none" />
         <path
   d="m 11395,15522 v 0 h 20 l 13,8 10,10 8,13 h 15 l -7,-23 -16,-16 -23,-7 h -20 v 0 z"
   id="path158"
   inkscape:connector-curvature="0"
   style="fill:#000000;stroke:none" />
         <path
   d="m 11362,15573 v -20 l 8,-13 12,-10 13,-8 v -15 l -23,7 -18,16 -7,23 v 20 z"
   id="path160"
   inkscape:connector-curvature="0"
   style="fill:#000000;stroke:none" />
         <path
   d="m 11484,15992 23,-2 13,-18 2,-28 -5,-36 -5,-27 -13,-39 -12,-48 -16,-51 -20,-51 -18,-45 -20,-36 -18,-20 -15,-11 -31,-7 -43,-3 -51,3 -56,5 -53,10 -48,8 -39,7 -22,5 -18,6 -16,5 -15,5 -10,7 -5,11 -5,10 v 12 l 5,13 8,13 12,15 21,18 23,20 27,23 31,26 36,25 35,25 38,26 41,25 41,23 40,20 41,21 41,15 38,13 z"
   id="path162"
   inkscape:connector-curvature="0"
   style="fill:#ffffff;stroke:none" />
         <path
   d="m 11509,15908 v 0 l 3,36 v 25 l -8,13 -20,3 v 15 l 25,-3 18,-22 5,-31 -7,-36 v 0 z"
   id="path164"
   inkscape:connector-curvature="0"
   style="fill:#000000;stroke:none" />
         <path
   d="m 11390,15598 v 0 l 15,18 21,33 17,46 21,51 15,51 13,48 12,38 5,25 h 16 l -5,-30 -13,-38 -13,-48 -15,-51 -20,-51 -18,-46 -21,-38 -20,-23 v 0 z"
   id="path166"
   inkscape:connector-curvature="0"
   style="fill:#000000;stroke:none" />
         <path
   d="m 11377,15588 h -2 l 15,10 10,-15 -15,-10 h -3 z"
   id="path168"
   inkscape:connector-curvature="0"
   style="fill:#000000;stroke:none" />
         <path
   d="m 11037,15616 v 0 l 22,-5 39,-8 48,-7 53,-10 56,-6 h 51 43 l 28,8 5,-15 -33,-8 -43,-5 -51,5 -56,5 -53,10 -48,8 -39,8 -22,5 v 0 z"
   id="path170"
   inkscape:connector-curvature="0"
   style="fill:#000000;stroke:none" />
         <path
   d="m 10981,15675 v 0 l -5,-11 v -12 l 5,-8 5,-8 5,-5 15,-5 15,-5 16,-5 v -15 l -21,5 -15,5 -15,5 -16,10 -5,13 -5,13 v 12 l 5,16 v 0 z"
   id="path172"
   inkscape:connector-curvature="0"
   style="fill:#000000;stroke:none" />
         <path
   d="m 11484,15985 v 0 l -36,-8 -38,-13 -40,-15 -41,-20 -41,-21 -38,-22 -41,-26 -38,-25 -35,-26 -36,-25 -30,-26 -28,-22 -23,-18 -21,-18 -10,-15 -7,-10 -16,5 8,15 15,15 21,18 22,23 28,23 31,25 36,26 35,25 38,25 41,26 43,23 41,20 41,20 40,16 38,12 41,8 v 0 z"
   id="path174"
   inkscape:connector-curvature="0"
   style="fill:#000000;stroke:none" />
         <path
   d="m 11215,15855 50,31 51,28 43,22 41,18 36,15 25,11 18,2 h 8 l -3,-5 -13,-13 -23,-17 -28,-21 -35,-25 -43,-28 -46,-31 -51,-33 -56,-33 -51,-30 -43,-23 -38,-20 -31,-16 -23,-10 -15,-5 -5,-3 3,8 12,13 21,20 28,23 33,28 40,31 46,30 z"
   id="path176"
   inkscape:connector-curvature="0"
   style="fill:#ffffff;stroke:none" />
         <path
   d="m 11479,15977 v 3 -5 l -15,-3 -26,-10 -35,-15 -41,-18 -43,-23 -51,-28 -48,-31 -11,16 54,30 51,28 43,23 41,18 35,15 26,10 20,3 15,-5 v 2 z"
   id="path178"
   inkscape:connector-curvature="0"
   style="fill:#000000;stroke:none" />
         <path
   d="m 11240,15817 v 0 l 51,33 46,31 43,27 35,26 28,20 23,18 10,10 3,-5 15,10 -2,-15 -16,-15 -22,-18 -28,-20 -36,-26 -43,-28 -46,-30 -51,-33 v 0 z"
   id="path180"
   inkscape:connector-curvature="0"
   style="fill:#000000;stroke:none" />
         <path
   d="m 10991,15672 -8,8 h 3 l 15,5 23,10 30,15 38,20 44,23 48,31 56,33 10,-15 -56,-33 -53,-31 -43,-23 -39,-20 -30,-15 -23,-11 -15,-5 -8,-5 -7,8 z"
   id="path182"
   inkscape:connector-curvature="0"
   style="fill:#000000;stroke:none" />
         <path
   d="m 11220,15847 v 0 l -49,-33 -45,-30 -41,-31 -33,-28 -28,-20 -21,-20 -10,-13 h -2 l -15,-5 2,15 15,13 21,20 28,26 33,28 40,30 46,31 48,33 v 0 z"
   id="path184"
   inkscape:connector-curvature="0"
   style="fill:#000000;stroke:none" />
         <path
   d="m 11153,15936 -2,3 v 3 2 3 l 2,7 3,5 5,3 8,2 h 5 l 5,-2 2,-3 3,-2 3,-5 81,-125 -33,-23 -76,127 z"
   id="path186"
   inkscape:connector-curvature="0"
   style="fill:#ffffff;stroke:none" />
         <path
   d="m 11161,15947 v 0 -3 -2 h -2 v 0 l -11,-11 -5,5 -2,6 v 2 3 0 z"
   id="path188"
   inkscape:connector-curvature="0"
   style="fill:#000000;stroke:none" />
         <path
   d="m 11169,15954 v 0 h -5 -3 v -2 -5 h -20 l 5,10 5,7 8,5 10,6 v 0 z"
   id="path190"
   inkscape:connector-curvature="0"
   style="fill:#000000;stroke:none" />
         <path
   d="m 11176,15954 v 0 0 h -2 v 3 l -5,-3 v 21 l 5,-3 10,-3 3,-5 5,-5 v 0 z"
   id="path192"
   inkscape:connector-curvature="0"
   style="fill:#000000;stroke:none" />
         <path
   d="m 11179,15947 v 2 l -3,5 16,5 2,-5 v 3 z"
   id="path194"
   inkscape:connector-curvature="0"
   style="fill:#000000;stroke:none" />
         <path
   d="m 11263,15835 -3,-13 -81,125 15,10 82,-125 -3,-13 3,13 5,-7 -8,-6 z"
   id="path196"
   inkscape:connector-curvature="0"
   style="fill:#000000;stroke:none" />
         <path
   d="m 11242,15809 -12,3 33,23 10,-16 -33,-22 -13,2 13,-2 -8,-5 -5,7 z"
   id="path198"
   inkscape:connector-curvature="0"
   style="fill:#000000;stroke:none" />
         <path
   d="m 11164,15936 h 2 l 76,-127 -15,-10 -76,127 h 2 l 11,10 h 2 v 0 z"
   id="path200"
   inkscape:connector-curvature="0"
   style="fill:#000000;stroke:none" />
         <path
   d="m 11159,15942 v 0 l 5,-6 -11,-10 -5,5 v 0 z"
   id="path202"
   inkscape:connector-curvature="0"
   style="fill:#000000;stroke:none" />
         <path
   d="m 10754,14792 -20,-371 -328,361 -5,318 z"
   id="path204"
   inkscape:connector-curvature="0"
   style="fill:#ffffff;stroke:none" />
         <path
   d="m 10739,14426 -13,-5 21,371 h 15 l -20,-371 -13,-5 13,5 v -23 l -13,18 z"
   id="path206"
   inkscape:connector-curvature="0"
   style="fill:#000000;stroke:none" />
         <path
   d="m 10414,14782 -3,5 328,-361 -10,-10 -328,361 -3,5 3,-5 -3,3 -2,2 z"
   id="path208"
   inkscape:connector-curvature="0"
   style="fill:#000000;stroke:none" />
         <path
   d="m 10396,15092 12,8 6,-318 h -16 l -5,318 13,8 -15,-8 v 20 l 15,-12 z"
   id="path210"
   inkscape:connector-curvature="0"
   style="fill:#000000;stroke:none" />
         <path
   d="m 10747,14792 2,-7 -353,307 10,16 353,-308 3,-8 -3,8 5,-5 -2,-3 z"
   id="path212"
   inkscape:connector-curvature="0"
   style="fill:#000000;stroke:none" />
         <path
   d="m 10401,15100 341,343 340,-328 -30,-432 -247,165 -53,-58 z"
   id="path214"
   inkscape:connector-curvature="0"
   style="fill:#ffffff;stroke:none" />
         <path
   d="m 10736,15438 h 11 l -341,-343 -10,10 340,343 h 11 -11 l 6,8 5,-8 z"
   id="path216"
   inkscape:connector-curvature="0"
   style="fill:#000000;stroke:none" />
         <path
   d="m 11075,15115 2,-5 -341,328 11,10 340,-328 3,-5 -3,5 5,-2 -2,-3 z"
   id="path218"
   inkscape:connector-curvature="0"
   style="fill:#000000;stroke:none" />
         <path
   d="m 11057,14691 -13,-8 31,432 h 15 l -31,-432 -12,-8 12,8 v -18 l -12,10 z"
   id="path220"
   inkscape:connector-curvature="0"
   style="fill:#000000;stroke:none" />
         <path
   d="m 10800,14853 10,3 247,-165 -10,-16 -247,166 10,2 -10,10 5,8 5,-5 z"
   id="path222"
   inkscape:connector-curvature="0"
   style="fill:#000000;stroke:none" />
         <path
   d="m 10757,14795 h -10 l 53,58 10,-10 -53,-58 h -10 10 l -5,-8 -5,8 z"
   id="path224"
   inkscape:connector-curvature="0"
   style="fill:#000000;stroke:none" />
         <path
   d="m 10406,15095 v 10 l 351,-310 -10,-10 -351,310 v 10 -10 l -8,5 8,5 z"
   id="path226"
   inkscape:connector-curvature="0"
   style="fill:#000000;stroke:none" />
         <path
   d="m 9666,14439 564,567 166,-69 168,-140 162,-358 -574,-570 -115,11 -157,147 z"
   id="path228"
   inkscape:connector-curvature="0"
   style="fill:#ffffff;stroke:none" />
         <path
   d="m 10228,14998 8,3 -565,-567 -10,10 564,567 8,2 -8,-2 5,5 3,-3 z"
   id="path230"
   inkscape:connector-curvature="0"
   style="fill:#000000;stroke:none" />
         <path
   d="m 10391,14930 h 2 l -165,68 5,15 165,-68 h 3 -3 3 v 0 z"
   id="path232"
   inkscape:connector-curvature="0"
   style="fill:#000000;stroke:none" />
         <path
   d="m 10556,14795 2,-5 -167,140 10,15 168,-140 2,-5 -2,5 2,-3 v -2 z"
   id="path234"
   inkscape:connector-curvature="0"
   style="fill:#000000;stroke:none" />
         <path
   d="m 10721,14444 -2,-8 -163,359 15,5 163,-359 -3,-7 3,7 2,-2 -5,-5 z"
   id="path236"
   inkscape:connector-curvature="0"
   style="fill:#000000;stroke:none" />
         <path
   d="m 10152,13877 -5,-3 574,570 10,-10 -574,-570 -5,-2 5,2 -3,-5 -2,3 z"
   id="path238"
   inkscape:connector-curvature="0"
   style="fill:#000000;stroke:none" />
         <path
   d="m 10042,13885 -5,2 115,-10 v -15 l -115,10 -5,2 5,-2 h -2 l -3,2 z"
   id="path240"
   inkscape:connector-curvature="0"
   style="fill:#000000;stroke:none" />
         <path
   d="m 9887,14030 -2,2 157,-147 -10,-11 -158,148 -2,2 2,-2 h -2 v 2 z"
   id="path242"
   inkscape:connector-curvature="0"
   style="fill:#000000;stroke:none" />
         <path
   d="m 9671,14434 3,7 213,-411 -15,-6 -214,412 3,8 -3,-8 -2,3 5,5 z"
   id="path244"
   inkscape:connector-curvature="0"
   style="fill:#000000;stroke:none" />
         <path
   d="m 10388,14937 5,-5 -559,-562 -10,10 559,562 z"
   id="path246"
   inkscape:connector-curvature="0"
   style="fill:#000000;stroke:none" />
         <path
   d="m 10556,14797 5,-5 -570,-569 -10,10 570,569 z"
   id="path248"
   inkscape:connector-curvature="0"
   style="fill:#000000;stroke:none" />
         <path
   d="m 10225,14195 -45,18 -61,111 106,107 39,-28 53,-119 z"
   id="path250"
   inkscape:connector-curvature="0"
   style="fill:#ffffff;stroke:none" />
         <path
   d="m 10187,14215 -5,5 46,-18 -5,-15 -46,18 -5,5 5,-5 h -2 l -3,5 z"
   id="path252"
   inkscape:connector-curvature="0"
   style="fill:#000000;stroke:none" />
         <path
   d="m 10124,14319 2,8 61,-112 -15,-5 -61,112 2,8 -2,-8 -3,2 5,6 z"
   id="path254"
   inkscape:connector-curvature="0"
   style="fill:#000000;stroke:none" />
         <path
   d="m 10220,14424 10,2 -106,-107 -11,11 107,106 10,3 -10,-3 5,8 5,-5 z"
   id="path256"
   inkscape:connector-curvature="0"
   style="fill:#000000;stroke:none" />
         <path
   d="m 10256,14401 2,-5 -38,28 10,15 39,-28 2,-5 -2,5 2,-3 v -2 z"
   id="path258"
   inkscape:connector-curvature="0"
   style="fill:#000000;stroke:none" />
         <path
   d="m 10312,14289 -3,-8 -53,120 15,5 54,-120 -3,-7 3,7 2,-2 -5,-5 z"
   id="path260"
   inkscape:connector-curvature="0"
   style="fill:#000000;stroke:none" />
         <path
   d="m 10228,14202 -8,-2 92,89 10,-10 -92,-89 -7,-3 7,3 -5,-5 -2,2 z"
   id="path262"
   inkscape:connector-curvature="0"
   style="fill:#000000;stroke:none" />
         <path
   d="m 10180,14299 2,8 51,-110 -15,-5 -51,110 2,7 -2,-7 -3,2 5,5 z"
   id="path264"
   inkscape:connector-curvature="0"
   style="fill:#000000;stroke:none" />
         <path
   d="m 10269,14398 5,-5 -94,-94 -11,10 95,94 z"
   id="path266"
   inkscape:connector-curvature="0"
   style="fill:#000000;stroke:none" />
         <path
   d="m 10375,14340 -45,20 -61,109 106,107 41,-28 53,-117 z"
   id="path268"
   inkscape:connector-curvature="0"
   style="fill:#ffffff;stroke:none" />
         <path
   d="m 10337,14363 -5,5 46,-21 -5,-15 -46,20 -5,6 5,-6 h -2 l -3,6 z"
   id="path270"
   inkscape:connector-curvature="0"
   style="fill:#000000;stroke:none" />
         <path
   d="m 10274,14464 2,8 61,-109 -15,-5 -61,109 3,7 -3,-7 -3,2 6,5 z"
   id="path272"
   inkscape:connector-curvature="0"
   style="fill:#000000;stroke:none" />
         <path
   d="m 10370,14569 10,2 -106,-107 -10,10 106,107 10,3 -10,-3 5,8 5,-5 z"
   id="path274"
   inkscape:connector-curvature="0"
   style="fill:#000000;stroke:none" />
         <path
   d="m 10408,14546 3,-5 -41,28 10,15 41,-28 3,-5 -3,5 3,-3 v -2 z"
   id="path276"
   inkscape:connector-curvature="0"
   style="fill:#000000;stroke:none" />
         <path
   d="m 10464,14436 -2,-7 -54,117 16,5 53,-117 -2,-8 2,8 3,-3 -5,-5 z"
   id="path278"
   inkscape:connector-curvature="0"
   style="fill:#000000;stroke:none" />
         <path
   d="m 10378,14347 -8,-2 94,91 11,-10 -95,-91 -7,-3 7,3 -5,-5 -2,2 z"
   id="path280"
   inkscape:connector-curvature="0"
   style="fill:#000000;stroke:none" />
         <path
   d="m 10330,14444 2,8 51,-110 -15,-5 -51,110 2,7 -2,-7 -3,2 5,5 z"
   id="path282"
   inkscape:connector-curvature="0"
   style="fill:#000000;stroke:none" />
         <path
   d="m 10421,14546 5,-5 -96,-97 -11,10 97,97 z"
   id="path284"
   inkscape:connector-curvature="0"
   style="fill:#000000;stroke:none" />
         <path
   d="m 10525,14487 -45,21 -64,111 109,107 39,-28 50,-119 z"
   id="path286"
   inkscape:connector-curvature="0"
   style="fill:#ffffff;stroke:none" />
         <path
   d="m 10487,14510 -5,5 46,-20 -5,-15 -46,20 -5,5 5,-5 h -2 l -3,5 z"
   id="path288"
   inkscape:connector-curvature="0"
   style="fill:#000000;stroke:none" />
         <path
   d="m 10421,14614 3,8 63,-112 -15,-5 -64,112 3,7 -3,-7 -2,2 5,5 z"
   id="path290"
   inkscape:connector-curvature="0"
   style="fill:#000000;stroke:none" />
         <path
   d="m 10520,14719 11,2 -110,-107 -10,10 109,107 11,3 -11,-3 5,8 6,-5 z"
   id="path292"
   inkscape:connector-curvature="0"
   style="fill:#000000;stroke:none" />
         <path
   d="m 10556,14696 2,-5 -38,28 11,15 38,-28 2,-5 -2,5 2,-3 v -2 z"
   id="path294"
   inkscape:connector-curvature="0"
   style="fill:#000000;stroke:none" />
         <path
   d="m 10609,14584 -2,-8 -51,120 15,5 51,-120 -2,-7 2,7 3,-2 -5,-5 z"
   id="path296"
   inkscape:connector-curvature="0"
   style="fill:#000000;stroke:none" />
         <path
   d="m 10528,14495 -8,-3 89,92 11,-10 -89,-92 -8,-2 8,2 -6,-5 -2,3 z"
   id="path298"
   inkscape:connector-curvature="0"
   style="fill:#000000;stroke:none" />
         <path
   d="m 10480,14594 2,8 51,-112 -15,-5 -51,112 2,7 -2,-7 -3,2 5,5 z"
   id="path300"
   inkscape:connector-curvature="0"
   style="fill:#000000;stroke:none" />
         <path
   d="m 10569,14693 5,-5 -94,-94 -11,10 95,94 z"
   id="path302"
   inkscape:connector-curvature="0"
   style="fill:#000000;stroke:none" />
         <path
   d="m 10337,14019 -46,21 -61,109 107,107 41,-28 53,-120 z"
   id="path304"
   inkscape:connector-curvature="0"
   style="fill:#ffffff;stroke:none" />
         <path
   d="m 10299,14042 -5,5 46,-20 -5,-15 -46,20 -5,5 5,-5 h -3 l -2,5 z"
   id="path306"
   inkscape:connector-curvature="0"
   style="fill:#000000;stroke:none" />
         <path
   d="m 10236,14144 2,8 61,-110 -15,-5 -61,109 2,8 -2,-8 -3,3 5,5 z"
   id="path308"
   inkscape:connector-curvature="0"
   style="fill:#000000;stroke:none" />
         <path
   d="m 10332,14248 10,3 -106,-107 -11,10 107,107 10,2 -10,-2 5,8 5,-6 z"
   id="path310"
   inkscape:connector-curvature="0"
   style="fill:#000000;stroke:none" />
         <path
   d="m 10370,14225 3,-5 -41,28 10,15 41,-28 3,-5 -3,5 3,-2 v -3 z"
   id="path312"
   inkscape:connector-curvature="0"
   style="fill:#000000;stroke:none" />
         <path
   d="m 10426,14113 -2,-7 -54,119 16,5 53,-119 -3,-8 3,8 3,-3 -6,-5 z"
   id="path314"
   inkscape:connector-curvature="0"
   style="fill:#000000;stroke:none" />
         <path
   d="m 10340,14027 -8,-3 94,89 10,-10 -94,-89 -7,-2 7,2 -5,-5 -2,3 z"
   id="path316"
   inkscape:connector-curvature="0"
   style="fill:#000000;stroke:none" />
         <path
   d="m 10291,14124 3,7 51,-109 -15,-5 -51,109 2,8 -2,-8 -3,3 5,5 z"
   id="path318"
   inkscape:connector-curvature="0"
   style="fill:#000000;stroke:none" />
         <path
   d="m 10383,14223 5,-5 -97,-94 -10,10 97,94 z"
   id="path320"
   inkscape:connector-curvature="0"
   style="fill:#000000;stroke:none" />
         <path
   d="m 10490,14164 -46,21 -61,109 107,107 38,-28 53,-117 z"
   id="path322"
   inkscape:connector-curvature="0"
   style="fill:#ffffff;stroke:none" />
         <path
   d="m 10452,14187 -5,5 45,-20 -5,-15 -45,20 -6,5 6,-5 h -3 l -3,5 z"
   id="path324"
   inkscape:connector-curvature="0"
   style="fill:#000000;stroke:none" />
         <path
   d="m 10388,14289 3,7 61,-109 -16,-5 -61,109 3,8 -3,-8 -2,3 5,5 z"
   id="path326"
   inkscape:connector-curvature="0"
   style="fill:#000000;stroke:none" />
         <path
   d="m 10485,14393 10,3 -107,-107 -10,10 107,107 10,2 -10,-2 5,7 5,-5 z"
   id="path328"
   inkscape:connector-curvature="0"
   style="fill:#000000;stroke:none" />
         <path
   d="m 10520,14370 3,-5 -38,28 10,15 38,-28 3,-5 -3,5 3,-2 v -3 z"
   id="path330"
   inkscape:connector-curvature="0"
   style="fill:#000000;stroke:none" />
         <path
   d="m 10576,14261 -2,-8 -54,117 16,5 53,-117 -3,-7 3,7 3,-2 -6,-5 z"
   id="path332"
   inkscape:connector-curvature="0"
   style="fill:#000000;stroke:none" />
         <path
   d="m 10492,14172 -7,-3 91,92 10,-10 -91,-92 -8,-2 8,2 -5,-5 -3,3 z"
   id="path334"
   inkscape:connector-curvature="0"
   style="fill:#000000;stroke:none" />
         <path
   d="m 10444,14269 3,7 50,-109 -15,-5 -51,109 3,8 -3,-8 -2,3 5,5 z"
   id="path336"
   inkscape:connector-curvature="0"
   style="fill:#000000;stroke:none" />
         <path
   d="m 10533,14370 5,-5 -94,-96 -10,10 94,96 z"
   id="path338"
   inkscape:connector-curvature="0"
   style="fill:#000000;stroke:none" />
         <path
   d="m 10635,14312 -46,20 -58,112 104,107 40,-28 54,-120 z"
   id="path340"
   inkscape:connector-curvature="0"
   style="fill:#ffffff;stroke:none" />
         <path
   d="m 10597,14335 -5,5 45,-21 -5,-15 -46,20 -5,6 5,-6 h -2 l -3,6 z"
   id="path342"
   inkscape:connector-curvature="0"
   style="fill:#000000;stroke:none" />
         <path
   d="m 10536,14439 2,8 59,-112 -16,-5 -58,111 2,8 -2,-8 -3,3 5,5 z"
   id="path344"
   inkscape:connector-curvature="0"
   style="fill:#000000;stroke:none" />
         <path
   d="m 10630,14543 10,3 -104,-107 -11,10 105,107 10,2 -10,-2 5,7 5,-5 z"
   id="path346"
   inkscape:connector-curvature="0"
   style="fill:#000000;stroke:none" />
         <path
   d="m 10668,14520 2,-5 -40,28 10,15 41,-28 2,-5 -2,5 2,-2 v -3 z"
   id="path348"
   inkscape:connector-curvature="0"
   style="fill:#000000;stroke:none" />
         <path
   d="m 10724,14408 -3,-7 -53,119 15,5 53,-119 -2,-8 2,8 3,-3 -5,-5 z"
   id="path350"
   inkscape:connector-curvature="0"
   style="fill:#000000;stroke:none" />
         <path
   d="m 10637,14319 -7,-2 94,91 10,-10 -94,-91 -8,-3 8,3 -5,-5 -3,2 z"
   id="path352"
   inkscape:connector-curvature="0"
   style="fill:#000000;stroke:none" />
         <path
   d="m 10592,14419 2,7 48,-112 -15,-5 -48,112 2,8 -2,-8 -3,3 5,5 z"
   id="path354"
   inkscape:connector-curvature="0"
   style="fill:#000000;stroke:none" />
         <path
   d="m 10678,14518 5,-5 -91,-94 -11,10 92,94 z"
   id="path356"
   inkscape:connector-curvature="0"
   style="fill:#000000;stroke:none" />
         <path
   d="m 9819,14368 2,-3 -158,66 6,16 157,-67 3,-2 -3,2 h 3 v -2 z"
   id="path358"
   inkscape:connector-curvature="0"
   style="fill:#000000;stroke:none" />
         <path
   d="m 9969,14223 2,-3 -152,148 10,10 152,-148 3,-2 -3,2 h 3 v -2 z"
   id="path360"
   inkscape:connector-curvature="0"
   style="fill:#000000;stroke:none" />
         <path
   d="m 10152,13869 -8,-2 -175,356 15,5 175,-356 z"
   id="path362"
   inkscape:connector-curvature="0"
   style="fill:#000000;stroke:none" />
         <path
   d="m 10683,14530 -119,267 -168,140 -26,10 59,61 5,-2 15,-8 23,-10 28,-15 33,-23 33,-23 33,-30 33,-36 31,-36 23,-35 23,-33 15,-33 12,-33 8,-33 5,-34 v -35 z"
   id="path364"
   inkscape:connector-curvature="0"
   style="fill:#ffffff;stroke:none" />
         <path
   d="m 10569,14805 2,-5 120,-267 -16,-5 -119,267 2,-5 11,15 2,-3 v -2 z"
   id="path366"
   inkscape:connector-curvature="0"
   style="fill:#000000;stroke:none" />
         <path
   d="m 10398,14945 h 3 l 168,-140 -11,-15 -167,140 h 2 l 5,15 h 3 v 0 z"
   id="path368"
   inkscape:connector-curvature="0"
   style="fill:#000000;stroke:none" />
         <path
   d="m 10375,14942 -2,13 25,-10 -5,-15 -25,10 -3,12 3,-12 -13,5 10,7 z"
   id="path370"
   inkscape:connector-curvature="0"
   style="fill:#000000;stroke:none" />
         <path
   d="m 10426,15001 8,2 -59,-61 -10,10 59,61 7,3 -7,-3 2,6 5,-3 z"
   id="path372"
   inkscape:connector-curvature="0"
   style="fill:#000000;stroke:none" />
         <path
   d="m 10625,14856 v 0 l -31,35 -33,28 -33,23 -33,23 -26,15 -22,11 -16,7 -5,3 5,15 5,-3 16,-7 23,-10 30,-16 33,-22 33,-23 33,-33 36,-36 v 0 z"
   id="path374"
   inkscape:connector-curvature="0"
   style="fill:#000000;stroke:none" />
         <path
   d="m 10744,14594 -2,-5 v 35 l -6,34 -7,30 -13,33 -15,31 -23,33 -23,35 -30,36 15,10 30,-36 23,-35 23,-33 15,-36 13,-33 8,-35 5,-34 v -35 l -3,-5 3,5 v -3 l -3,-2 z"
   id="path376"
   inkscape:connector-curvature="0"
   style="fill:#000000;stroke:none" />
         <path
   d="m 10691,14533 -13,2 66,59 10,-10 -66,-59 -13,3 13,-3 -7,-10 -6,13 z"
   id="path378"
   inkscape:connector-curvature="0"
   style="fill:#000000;stroke:none" />
         <path
   d="m 11082,15113 5,-5 -279,-265 -10,10 279,265 z"
   id="path380"
   inkscape:connector-curvature="0"
   style="fill:#000000;stroke:none" />
         <path
   d="m 10734,14421 20,371 33,38 -30,-391 z"
   id="path382"
   inkscape:connector-curvature="0"
   style="fill:#ffffff;stroke:none" />
         <path
   d="m 10762,14787 v 5 l -20,-371 h -16 l 21,371 v 5 -5 3 2 z"
   id="path384"
   inkscape:connector-curvature="0"
   style="fill:#000000;stroke:none" />
         <path
   d="m 10780,14830 15,-5 -33,-38 -15,10 33,39 15,-6 -15,6 18,22 -3,-28 z"
   id="path386"
   inkscape:connector-curvature="0"
   style="fill:#000000;stroke:none" />
         <path
   d="m 10752,14447 -3,-8 31,391 h 15 l -31,-391 -2,-8 2,8 v -5 l -2,-3 z"
   id="path388"
   inkscape:connector-curvature="0"
   style="fill:#000000;stroke:none" />
         <path
   d="m 10742,14421 -13,8 23,18 10,-16 -23,-18 -13,8 13,-8 -15,-12 2,20 z"
   id="path390"
   inkscape:connector-curvature="0"
   style="fill:#000000;stroke:none" />
        </g>
       </g>
      </g>
     </g>
    </g>
   </g>
  </g>
 </g>
</svg>