<?xml version="1.0" encoding="UTF-8" standalone="no"?>
<svg
   xmlns:ooo="http://xml.openoffice.org/svg/export"
   xmlns:dc="http://purl.org/dc/elements/1.1/"
   xmlns:cc="http://creativecommons.org/ns#"
   xmlns:rdf="http://www.w3.org/1999/02/22-rdf-syntax-ns#"
   xmlns:svg="http://www.w3.org/2000/svg"
   xmlns="http://www.w3.org/2000/svg"
   xmlns:sodipodi="http://sodipodi.sourceforge.net/DTD/sodipodi-0.dtd"
   xmlns:inkscape="http://www.inkscape.org/namespaces/inkscape"
   version="1.2"
   width="25.1mm"
   height="41.43mm"
   viewBox="0 0 2510 4143"
   preserveAspectRatio="xMidYMid"
   xml:space="preserve"
   id="svg195"
   sodipodi:docname="scary.svg"
   style="fill-rule:evenodd;stroke-width:28.22200012;stroke-linejoin:round"
   inkscape:version="0.92.5 (2060ec1f9f, 2020-04-08)"><metadata
   id="metadata199"><rdf:RDF><cc:Work
       rdf:about=""><dc:format>image/svg+xml</dc:format><dc:type
         rdf:resource="http://purl.org/dc/dcmitype/StillImage" /></cc:Work></rdf:RDF></metadata><sodipodi:namedview
   pagecolor="#ffffff"
   bordercolor="#666666"
   borderopacity="1"
   objecttolerance="10"
   gridtolerance="10"
   guidetolerance="10"
   inkscape:pageopacity="0"
   inkscape:pageshadow="2"
   inkscape:window-width="664"
   inkscape:window-height="487"
   id="namedview197"
   showgrid="false"
   inkscape:zoom="0.2102413"
   inkscape:cx="47.433072"
   inkscape:cy="78.274014"
   inkscape:window-x="0"
   inkscape:window-y="0"
   inkscape:window-maximized="0"
   inkscape:current-layer="svg195" />
 <defs
   class="ClipPathGroup"
   id="defs8">
  <clipPath
   id="presentation_clip_path"
   clipPathUnits="userSpaceOnUse">
   <rect
   x="0"
   y="0"
   width="21000"
   height="29700"
   id="rect2" />
  </clipPath>
  <clipPath
   id="presentation_clip_path_shrink"
   clipPathUnits="userSpaceOnUse">
   <rect
   x="21"
   y="29"
   width="20958"
   height="29641"
   id="rect5" />
  </clipPath>
 </defs>
 <defs
   class="TextShapeIndex"
   id="defs12">
  <g
   ooo:slide="id1"
   ooo:id-list="id3"
   id="g10" />
 </defs>
 <defs
   class="EmbeddedBulletChars"
   id="defs44">
  <g
   id="bullet-char-template-57356"
   transform="matrix(4.8828125e-4,0,0,-4.8828125e-4,0,0)">
   <path
   d="M 580,1141 1163,571 580,0 -4,571 Z"
   id="path14"
   inkscape:connector-curvature="0" />
  </g>
  <g
   id="bullet-char-template-57354"
   transform="matrix(4.8828125e-4,0,0,-4.8828125e-4,0,0)">
   <path
   d="M 8,1128 H 1137 V 0 H 8 Z"
   id="path17"
   inkscape:connector-curvature="0" />
  </g>
  <g
   id="bullet-char-template-10146"
   transform="matrix(4.8828125e-4,0,0,-4.8828125e-4,0,0)">
   <path
   d="M 174,0 602,739 174,1481 1456,739 Z M 1358,739 309,1346 659,739 Z"
   id="path20"
   inkscape:connector-curvature="0" />
  </g>
  <g
   id="bullet-char-template-10132"
   transform="matrix(4.8828125e-4,0,0,-4.8828125e-4,0,0)">
   <path
   d="M 2015,739 1276,0 H 717 l 543,543 H 174 v 393 h 1086 l -543,545 h 557 z"
   id="path23"
   inkscape:connector-curvature="0" />
  </g>
  <g
   id="bullet-char-template-10007"
   transform="matrix(4.8828125e-4,0,0,-4.8828125e-4,0,0)">
   <path
   d="m 0,-2 c -7,16 -16,29 -25,39 l 381,530 c -94,256 -141,385 -141,387 0,25 13,38 40,38 9,0 21,-2 34,-5 21,4 42,12 65,25 l 27,-13 111,-251 280,301 64,-25 24,25 c 21,-10 41,-24 62,-43 C 886,937 835,863 770,784 769,783 710,716 594,584 L 774,223 c 0,-27 -21,-55 -63,-84 l 16,-20 C 717,90 699,76 672,76 641,76 570,178 457,381 L 164,-76 c -22,-34 -53,-51 -92,-51 -42,0 -63,17 -64,51 -7,9 -10,24 -10,44 0,9 1,19 2,30 z"
   id="path26"
   inkscape:connector-curvature="0" />
  </g>
  <g
   id="bullet-char-template-10004"
   transform="matrix(4.8828125e-4,0,0,-4.8828125e-4,0,0)">
   <path
   d="M 285,-33 C 182,-33 111,30 74,156 52,228 41,333 41,471 c 0,78 14,145 41,201 34,71 87,106 158,106 53,0 88,-31 106,-94 l 23,-176 c 8,-64 28,-97 59,-98 l 735,706 c 11,11 33,17 66,17 42,0 63,-15 63,-46 V 965 c 0,-36 -10,-64 -30,-84 L 442,47 C 390,-6 338,-33 285,-33 Z"
   id="path29"
   inkscape:connector-curvature="0" />
  </g>
  <g
   id="bullet-char-template-9679"
   transform="matrix(4.8828125e-4,0,0,-4.8828125e-4,0,0)">
   <path
   d="M 813,0 C 632,0 489,54 383,161 276,268 223,411 223,592 c 0,181 53,324 160,431 106,107 249,161 430,161 179,0 323,-54 432,-161 108,-107 162,-251 162,-431 0,-180 -54,-324 -162,-431 C 1136,54 992,0 813,0 Z"
   id="path32"
   inkscape:connector-curvature="0" />
  </g>
  <g
   id="bullet-char-template-8226"
   transform="matrix(4.8828125e-4,0,0,-4.8828125e-4,0,0)">
   <path
   d="m 346,457 c -73,0 -137,26 -191,78 -54,51 -81,114 -81,188 0,73 27,136 81,188 54,52 118,78 191,78 73,0 134,-26 185,-79 51,-51 77,-114 77,-187 0,-75 -25,-137 -76,-188 -50,-52 -112,-78 -186,-78 z"
   id="path35"
   inkscape:connector-curvature="0" />
  </g>
  <g
   id="bullet-char-template-8211"
   transform="matrix(4.8828125e-4,0,0,-4.8828125e-4,0,0)">
   <path
   d="M -4,459 H 1135 V 606 H -4 Z"
   id="path38"
   inkscape:connector-curvature="0" />
  </g>
  <g
   id="bullet-char-template-61548"
   transform="matrix(4.8828125e-4,0,0,-4.8828125e-4,0,0)">
   <path
   d="m 173,740 c 0,163 58,303 173,419 116,115 255,173 419,173 163,0 302,-58 418,-173 116,-116 174,-256 174,-419 0,-163 -58,-303 -174,-418 C 1067,206 928,148 765,148 601,148 462,206 346,322 231,437 173,577 173,740 Z"
   id="path41"
   inkscape:connector-curvature="0" />
  </g>
 </defs>
 <g
   id="g49"
   transform="translate(-9245,-12778)">
  <g
   id="id2"
   class="Master_Slide">
   <g
   id="bg-id2"
   class="Background" />
   <g
   id="bo-id2"
   class="BackgroundObjects" />
  </g>
 </g>
 <g
   class="SlideGroup"
   id="g193"
   transform="translate(-9245,-12778)">
  <g
   id="g191">
   <g
   id="container-id1">
    <g
   id="id1"
   class="Slide"
   clip-path="url(#presentation_clip_path)">
     <g
   class="Page"
   id="g187">
      <g
   class="Graphic"
   id="g185">
       <g
   id="id3">
        <rect
   class="BoundingBox"
   x="9245"
   y="12778"
   width="2510"
   height="4143"
   id="rect51"
   style="fill:none;stroke:none" />
        <defs
   id="defs56">
         <clipPath
   id="clip_path_1"
   clipPathUnits="userSpaceOnUse">
          <path
   d="m 9245,12778 h 2509 v 4142 H 9245 Z"
   id="path53"
   inkscape:connector-curvature="0" />
         </clipPath>
        </defs>
        <g
   clip-path="url(#clip_path_1)"
   id="g182">
         <path
   d="m 9787,15325 38,7 43,11 41,12 40,13 41,15 36,18 33,20 28,23 23,26 15,30 8,33 -3,36 -13,40 -25,44 -36,51 -51,53 41,-28 41,-28 40,-23 36,-23 36,-15 30,-15 28,-8 26,-2 20,2 18,8 12,15 8,23 3,33 -3,38 -10,48 -15,59 30,-36 28,-30 28,-23 26,-15 22,-8 h 23 l 18,8 18,17 10,23 -5,23 -10,26 -21,22 -22,21 -23,15 -21,13 -17,5 12,51 18,-26 18,-10 h 18 l 12,8 11,15 7,20 3,23 -5,23 17,-18 21,-13 23,-10 20,-2 15,7 13,13 8,20 -3,33 43,-25 -20,-38 -8,-51 8,-48 25,-33 26,-10 35,-3 41,10 46,28 48,48 49,74 48,107 43,140 -8,-46 -5,-48 v -49 -48 l 8,-46 8,-40 15,-36 20,-28 26,-18 30,-5 38,8 44,20 50,38 59,56 66,74 74,97 -18,-39 -15,-35 -18,-38 -13,-36 -10,-33 -8,-30 v -31 l 5,-28 13,-23 21,-20 30,-15 43,-13 54,-8 66,-2 81,5 97,8 -41,-11 -43,-10 -48,-10 -51,-13 -51,-15 -54,-13 -53,-15 -53,-18 -51,-15 -49,-18 -45,-18 -44,-17 -40,-18 -33,-18 -28,-18 -21,-17 8,27 3,34 -3,35 -8,36 -15,35 -25,28 -38,26 -51,15 -54,2 -38,-10 -28,-20 -13,-25 3,-26 15,-23 33,-20 49,-8 -36,-2 h -41 l -43,-8 -43,-13 -43,-20 -41,-36 -36,-50 -33,-69 v 31 l -5,27 -10,26 -10,18 -13,17 -15,11 -18,5 h -18 l -20,-8 -20,-18 -18,-30 -13,-38 v -46 l 15,-59 33,-66 56,-76 -23,5 -30,5 -38,5 -43,5 -49,6 -53,5 -54,2 -55,5 -56,5 -56,3 -56,2 h -51 -49 -40 l -38,-2 z"
   id="path58"
   inkscape:connector-curvature="0"
   style="fill:#000000;stroke:none" />
         <path
   d="m 9283,16169 41,-5 h 43 l 43,5 36,10 25,20 13,33 -5,46 -25,63 30,-40 31,-33 28,-26 22,-12 h 21 l 15,15 10,33 5,53 8,-23 10,-17 10,-16 8,-10 10,-7 10,-5 13,2 10,5 10,23 -10,28 -15,25 -15,13 15,23 10,-23 h 15 l 16,13 5,23 12,-21 18,-12 18,2 10,26 18,-18 -15,-15 -11,-23 -5,-26 8,-20 10,-8 15,-7 h 21 l 25,5 31,15 35,28 39,43 43,61 -21,-43 -15,-46 -5,-43 8,-36 23,-20 40,3 66,25 94,61 -27,-30 -23,-31 -21,-28 -5,-28 10,-25 31,-26 53,-23 87,-20 -43,3 -51,2 -54,5 h -56 -53 l -46,-2 -41,-5 -28,-11 13,28 8,33 -10,39 -39,33 -22,10 h -21 l -15,-5 -10,-10 -3,-13 3,-13 13,-15 22,-10 -17,5 -18,5 -23,2 -23,3 -23,-5 -25,-10 -28,-18 -26,-28 8,28 -3,25 -10,16 -15,7 h -10 l -13,-5 -13,-10 -12,-18 -8,-20 v -31 l 5,-35 15,-46 -25,13 -38,18 -46,20 -51,20 -53,21 -49,17 -43,13 z"
   id="path60"
   inkscape:connector-curvature="0"
   style="fill:#000000;stroke:none" />
         <path
   d="m 9741,16202 -15,-5 -13,-8 -10,-5 -5,-5 -8,13 -5,12 2,13 11,10 v -8 -7 l 5,-8 7,-5 -2,5 -3,10 v 11 l 5,5 h 8 l 10,-8 8,-10 z"
   id="path62"
   inkscape:connector-curvature="0"
   style="fill:#ffffff;stroke:none" />
         <path
   d="m 9741,16202 v 0 l -15,-5 -13,-8 -10,-5 -5,-5 v 0 l -8,13 -5,12 2,13 11,10 v 0 -8 -7 l 5,-8 7,-5 v 0 l -2,5 -3,10 v 11 l 5,5 v 0 h 8 l 10,-8 8,-10 z"
   id="path64"
   inkscape:connector-curvature="0"
   style="fill:none;stroke:#000000" />
         <path
   d="m 9815,16199 -13,5 h -13 l -13,3 -12,-3 -3,10 -2,13 5,8 10,7 5,-5 3,-7 2,-5 v -8 l 5,5 v 5 l -2,8 -3,7 10,-2 10,-8 8,-15 z"
   id="path66"
   inkscape:connector-curvature="0"
   style="fill:#ffffff;stroke:none" />
         <path
   d="m 9815,16199 v 0 l -13,5 h -13 l -13,3 -12,-3 v 0 l -3,10 -2,13 5,8 10,7 v 0 l 5,-5 3,-7 2,-5 v -8 0 l 5,5 v 5 l -2,8 -3,7 v 0 l 10,-2 10,-8 8,-15 z"
   id="path68"
   inkscape:connector-curvature="0"
   style="fill:none;stroke:#000000" />
         <path
   d="m 10636,15668 -28,-20 -20,-21 -16,-18 -7,-12 -23,18 -15,28 -3,25 15,20 v -12 l 8,-13 13,-13 18,-5 -11,10 -7,18 -3,15 3,13 5,3 10,2 10,-2 13,-3 13,-5 10,-8 10,-10 z"
   id="path70"
   inkscape:connector-curvature="0"
   style="fill:#ffffff;stroke:none" />
         <path
   d="m 10636,15668 v 0 l -28,-20 -20,-21 -16,-18 -7,-12 v 0 l -23,18 -15,28 -3,25 15,20 v 0 -12 l 8,-13 13,-13 18,-5 v 0 l -11,10 -7,18 -3,15 3,13 v 0 l 5,3 10,2 10,-2 13,-3 13,-5 10,-8 10,-10 z"
   id="path72"
   inkscape:connector-curvature="0"
   style="fill:none;stroke:#000000" />
         <path
   d="m 10778,15711 h -12 -13 l -15,-2 -13,-3 -13,-2 -12,-6 -11,-2 -12,-5 -16,18 -7,20 2,18 16,18 12,-6 11,-10 10,-12 5,-13 2,10 -2,15 -5,13 -10,10 7,3 h 13 l 10,-3 13,-7 12,-8 11,-13 10,-15 z"
   id="path74"
   inkscape:connector-curvature="0"
   style="fill:#ffffff;stroke:none" />
         <path
   d="m 10778,15711 v 0 h -12 -13 l -15,-2 -13,-3 -13,-2 -12,-6 -11,-2 -12,-5 v 0 l -16,18 -7,20 2,18 16,18 v 0 l 12,-6 11,-10 10,-12 5,-13 v 0 l 2,10 -2,15 -5,13 -10,10 v 0 l 7,3 h 13 l 10,-3 13,-7 12,-8 11,-13 10,-15 z"
   id="path76"
   inkscape:connector-curvature="0"
   style="fill:none;stroke:#000000" />
         <path
   d="m 10735,14949 31,-28 33,-28 35,-23 33,-13 h 36 l 28,18 28,38 18,66 v -51 l 2,-43 5,-35 11,-28 15,-13 20,2 28,21 38,40 -10,-43 -2,-33 10,-20 20,-8 20,10 13,26 3,30 -5,21 25,7 -5,-25 13,-10 20,2 18,15 -3,-25 5,-20 18,-8 23,13 3,-26 -23,-2 -23,-10 -18,-18 -8,-21 3,-12 10,-15 15,-13 23,-13 33,-5 h 46 l 56,10 71,21 -43,-23 -38,-26 -33,-30 -15,-33 5,-28 33,-28 71,-18 109,-13 -40,-5 -39,-7 -33,-11 -22,-17 -8,-26 8,-38 30,-53 53,-71 -33,30 -35,33 -41,36 -41,35 -43,33 -38,26 -36,23 -28,10 13,5 15,7 16,11 12,12 11,16 5,20 -3,23 -8,25 -12,23 -15,13 -18,5 -13,-3 -10,-7 -5,-13 v -18 l 10,-23 -10,16 -10,15 -16,18 -18,12 -20,13 -25,8 h -33 l -38,-5 22,17 13,21 5,20 -7,15 -8,5 -15,5 h -16 l -20,-7 -20,-13 -18,-20 -20,-33 -16,-43 -10,25 -20,36 -23,45 -26,49 -30,48 -28,46 -25,35 z"
   id="path78"
   inkscape:connector-curvature="0"
   style="fill:#000000;stroke:none" />
         <path
   d="m 11114,14689 -15,5 -15,6 h -13 -8 l 3,15 7,15 11,8 h 12 l -5,-5 -5,-8 v -8 l 3,-10 2,8 3,7 7,8 6,3 5,-6 5,-12 2,-13 z"
   id="path80"
   inkscape:connector-curvature="0"
   style="fill:#ffffff;stroke:none" />
         <path
   d="m 11114,14689 v 0 l -15,5 -15,6 h -13 -8 v 0 l 3,15 7,15 11,8 h 12 v 0 l -5,-5 -5,-8 v -8 l 3,-10 v 0 l 2,8 3,7 7,8 6,3 v 0 l 5,-6 5,-12 2,-13 z"
   id="path82"
   inkscape:connector-curvature="0"
   style="fill:none;stroke:#000000" />
         <path
   d="m 11170,14644 -8,10 -7,10 -10,8 -11,7 6,10 5,11 7,5 13,-3 v -8 -7 l -3,-5 -5,-8 5,3 6,5 2,5 3,7 7,-7 3,-10 -3,-16 z"
   id="path84"
   inkscape:connector-curvature="0"
   style="fill:#ffffff;stroke:none" />
         <path
   d="m 11170,14644 v 0 l -8,10 -7,10 -10,8 -11,7 v 0 l 6,10 5,11 7,5 13,-3 v 0 -8 -7 l -3,-5 -5,-8 v 0 l 5,3 6,5 2,5 3,7 v 0 l 7,-7 3,-10 -3,-16 z"
   id="path86"
   inkscape:connector-curvature="0"
   style="fill:none;stroke:#000000" />
         <path
   d="m 9339,12854 -30,3 40,328 51,297 56,275 66,251 71,229 74,206 76,188 79,168 79,147 79,130 74,114 68,99 64,84 56,69 48,56 38,45 26,-20 -38,-46 -49,-56 -56,-68 -63,-84 -69,-94 -74,-115 -73,-129 -79,-148 -79,-162 -76,-188 -74,-206 -71,-224 -66,-252 -56,-274 -51,-297 -41,-323 -30,2 z"
   id="path88"
   inkscape:connector-curvature="0"
   style="fill:#000000;stroke:none" />
         <path
   d="m 10295,12778 -30,-10 -49,53 -58,49 -61,38 -71,33 -71,23 -79,17 -77,13 h -76 l -76,3 -69,-8 -66,-13 -56,-18 -46,-22 -35,-26 -26,-25 -10,-31 -30,5 15,41 30,36 41,30 51,23 61,18 66,12 74,8 76,3 76,-5 82,-13 79,-18 76,-23 76,-33 66,-43 59,-48 53,-59 -30,-10 h 35 l -2,-51 -28,41 z"
   id="path90"
   inkscape:connector-curvature="0"
   style="fill:#000000;stroke:none" />
         <path
   d="m 11056,12816 -26,-5 -56,36 -61,33 -61,28 -61,20 -63,15 -61,10 -61,3 h -59 l -53,-5 -51,-13 -43,-15 -34,-20 -33,-26 -20,-28 -15,-33 -3,-38 h -35 l 7,43 16,43 30,33 33,31 43,25 49,16 51,12 58,5 59,6 61,-8 66,-10 63,-16 66,-20 67,-28 61,-33 61,-41 -26,-5 31,-15 -11,-18 -15,13 z"
   id="path92"
   inkscape:connector-curvature="0"
   style="fill:#000000;stroke:none" />
         <path
   d="m 11676,12857 -13,-31 -96,41 -84,33 -74,28 -61,20 -51,16 -46,7 -35,3 h -31 l -20,-5 -20,-8 -13,-13 -15,-20 -16,-20 -12,-28 -16,-31 -17,-33 -31,15 18,33 15,31 18,28 15,25 16,21 22,17 26,13 30,5 31,5 41,-7 45,-8 56,-15 61,-21 74,-27 84,-34 97,-40 -13,-31 z"
   id="path94"
   inkscape:connector-curvature="0"
   style="fill:#000000;stroke:none" />
         <path
   d="m 10328,15543 28,-12 -12,-105 2,-132 18,-152 33,-170 48,-189 61,-195 74,-204 87,-208 94,-203 106,-204 115,-195 125,-181 134,-168 138,-147 147,-125 150,-96 -15,-31 -155,102 -148,125 -142,152 -135,168 -125,185 -119,196 -107,203 -94,209 -86,208 -74,204 -61,200 -49,188 -33,171 -17,157 -3,132 13,110 28,-13 -26,20 46,56 -18,-68 z"
   id="path96"
   inkscape:connector-curvature="0"
   style="fill:#000000;stroke:none" />
         <path
   d="m 10328,15541 28,-13 -28,-117 -17,-134 -3,-150 3,-163 15,-170 25,-178 36,-186 46,-191 50,-193 62,-188 68,-188 76,-185 82,-176 89,-170 94,-160 99,-145 -25,-20 -99,150 -100,160 -89,170 -81,180 -76,186 -69,188 -61,193 -51,193 -46,191 -35,186 -26,183 -15,170 -8,163 8,150 18,139 28,122 28,-12 -26,15 61,102 -33,-115 z"
   id="path98"
   inkscape:connector-curvature="0"
   style="fill:#000000;stroke:none" />
         <path
   d="m 10265,12768 -102,165 -76,183 -56,193 -36,201 -23,206 -7,208 10,211 20,206 28,203 36,191 40,181 46,165 46,150 48,127 46,107 43,76 26,-15 -38,-77 -46,-101 -48,-127 -46,-145 -46,-165 -41,-181 -35,-191 -28,-198 -21,-206 -5,-211 3,-208 23,-206 35,-196 56,-188 77,-178 96,-160 z"
   id="path100"
   inkscape:connector-curvature="0"
   style="fill:#000000;stroke:none" />
         <path
   d="m 10728,13403 -28,-12 -11,66 6,58 15,53 30,39 38,33 44,23 51,10 h 45 v -31 h -45 l -41,-10 -38,-18 -28,-28 -26,-33 -15,-43 -5,-53 10,-61 -28,-13 28,13 23,-87 -51,74 z"
   id="path102"
   inkscape:connector-curvature="0"
   style="fill:#000000;stroke:none" />
         <path
   d="m 10028,13520 -30,-7 2,38 18,35 31,26 43,10 48,5 h 54 l 58,-8 61,-12 64,-16 66,-20 61,-23 58,-25 54,-28 45,-31 39,-30 28,-31 -26,-20 -23,25 -38,31 -41,25 -53,28 -53,26 -61,23 -61,20 -64,15 -61,13 -53,7 h -54 l -43,-5 -33,-10 -20,-15 -13,-20 -3,-33 -30,-8 30,8 13,-89 -43,81 z"
   id="path104"
   inkscape:connector-curvature="0"
   style="fill:#000000;stroke:none" />
         <path
   d="m 9410,13546 23,35 28,28 33,23 41,15 43,10 48,8 46,5 49,-5 48,-5 46,-10 48,-13 41,-15 40,-18 33,-25 28,-28 23,-31 -30,-15 -18,25 -23,23 -28,21 -36,17 -40,16 -43,12 -46,10 -43,6 h -49 -46 l -43,-8 -38,-10 -36,-15 -27,-18 -23,-23 -18,-26 z"
   id="path106"
   inkscape:connector-curvature="0"
   style="fill:#000000;stroke:none" />
         <path
   d="m 10005,14115 -28,10 -20,51 -33,51 -48,40 -51,31 -56,18 -56,-3 -46,-20 -35,-41 -31,15 46,51 61,26 61,2 66,-18 61,-35 53,-46 39,-56 20,-66 -28,10 25,-20 -23,-33 -5,43 z"
   id="path108"
   inkscape:connector-curvature="0"
   style="fill:#000000;stroke:none" />
         <path
   d="m 10504,13965 h -28 l -23,28 -28,30 -25,26 -34,28 -30,23 -33,20 -33,18 -36,15 -33,13 -33,7 h -35 -28 l -31,-7 -25,-13 -23,-15 -21,-23 -25,20 25,28 28,21 31,12 35,8 34,5 35,-5 38,-8 38,-12 36,-16 38,-17 33,-26 36,-23 33,-28 30,-30 28,-31 23,-33 h -28 l 31,-15 -15,-25 -13,25 z"
   id="path110"
   inkscape:connector-curvature="0"
   style="fill:#000000;stroke:none" />
         <path
   d="m 10766,13899 -41,43 -43,38 -36,31 -35,18 -31,5 -25,-5 -26,-21 -25,-43 -31,15 31,49 35,30 41,10 41,-10 40,-23 41,-30 43,-38 46,-49 z"
   id="path112"
   inkscape:connector-curvature="0"
   style="fill:#000000;stroke:none" />
         <path
   d="m 10374,14517 -28,2 23,23 31,13 h 28 l 30,-13 33,-25 31,-39 33,-50 38,-67 -31,-15 -33,66 -33,46 -30,38 -23,21 -21,7 h -17 l -16,-7 -17,-18 -28,2 28,-2 -16,-21 -12,23 z"
   id="path114"
   inkscape:connector-curvature="0"
   style="fill:#000000;stroke:none" />
         <path
   d="m 10069,14628 -31,-5 23,43 41,16 h 46 l 48,-16 51,-27 48,-34 46,-43 33,-45 -30,-16 -28,41 -41,38 -43,33 -46,23 -43,15 h -36 l -25,-10 -13,-23 -31,-5 31,5 -10,-43 -21,38 z"
   id="path116"
   inkscape:connector-curvature="0"
   style="fill:#000000;stroke:none" />
         <path
   d="m 9794,14740 38,21 39,7 38,-2 38,-13 35,-23 31,-30 31,-31 25,-41 -31,-15 -20,36 -25,30 -31,26 -30,17 -28,13 -33,3 -28,-8 -33,-15 z"
   id="path118"
   inkscape:connector-curvature="0"
   style="fill:#000000;stroke:none" />
         <path
   d="m 11506,16733 h -5 l -13,-3 -20,-2 -23,-5 -28,-8 -26,-13 -25,-15 -20,-18 -21,28 -5,33 8,36 18,28 28,18 h 38 l 43,-26 z"
   id="path120"
   inkscape:connector-curvature="0"
   style="fill:#ffffff;stroke:none" />
         <path
   d="m 11351,16677 -13,-3 23,21 28,15 25,13 31,7 23,5 20,3 13,3 h 5 v -16 h -5 l -13,-2 -20,-3 -23,-5 -26,-8 -25,-12 -23,-15 -18,-16 -13,-2 13,2 -7,-7 -6,5 z"
   id="path122"
   inkscape:connector-curvature="0"
   style="fill:#000000;stroke:none" />
         <path
   d="m 11506,16741 -8,-13 -48,51 -41,25 h -33 l -25,-15 -16,-26 -5,-33 3,-30 18,-23 -11,-15 -22,33 -8,35 10,38 20,31 31,20 h 43 l 46,-25 53,-56 -7,-13 7,13 11,-13 h -18 z"
   id="path124"
   inkscape:connector-curvature="0"
   style="fill:#000000;stroke:none" />
         <path
   d="m 11541,16733 11,-3 15,-2 15,-8 20,-7 18,-13 18,-13 18,-15 15,-18 20,36 3,35 -10,33 -23,26 -31,12 h -30 l -33,-20 z"
   id="path126"
   inkscape:connector-curvature="0"
   style="fill:#ffffff;stroke:none" />
         <path
   d="m 11676,16649 h -13 l -12,18 -18,13 -18,12 -15,13 -20,8 -16,7 -12,3 -11,2 v 16 l 11,-3 17,-3 16,-7 20,-8 20,-13 18,-12 18,-18 18,-18 h -13 l 10,-10 -5,-10 -8,10 z"
   id="path128"
   inkscape:connector-curvature="0"
   style="fill:#000000;stroke:none" />
         <path
   d="m 11541,16725 -7,10 28,46 35,23 h 33 l 36,-13 25,-30 11,-36 -3,-38 -23,-38 -10,10 18,33 2,33 -10,31 -20,20 -26,13 h -28 l -30,-18 -23,-41 -8,11 v -16 h -12 l 5,10 z"
   id="path130"
   inkscape:connector-curvature="0"
   style="fill:#000000;stroke:none" />
         <path
   d="m 11363,16786 8,-2 8,-5 2,-11 3,-12 -3,-10 -2,-11 -8,-5 -8,-2 -7,2 -5,5 -5,11 -3,10 3,12 5,11 5,5 z"
   id="path132"
   inkscape:connector-curvature="0"
   style="fill:#000000;stroke:none" />
         <path
   d="m 11374,16756 v 0 12 l -3,6 -3,2 h -5 v 20 l 11,-5 12,-7 3,-16 5,-12 v 0 z"
   id="path134"
   inkscape:connector-curvature="0"
   style="fill:#000000;stroke:none" />
         <path
   d="m 11363,16738 v 0 h 5 l 3,3 3,5 v 10 h 20 l -5,-10 -3,-16 -12,-7 -11,-5 v 0 z"
   id="path136"
   inkscape:connector-curvature="0"
   style="fill:#000000;stroke:none" />
         <path
   d="m 11353,16756 v 0 -8 l 5,-7 3,-3 h 2 v -20 l -12,5 -8,7 -5,13 -5,13 v 0 z"
   id="path138"
   inkscape:connector-curvature="0"
   style="fill:#000000;stroke:none" />
         <path
   d="m 11363,16776 v 0 h -2 l -3,-2 -5,-8 v -10 h -20 l 5,15 5,13 8,7 12,5 v 0 z"
   id="path140"
   inkscape:connector-curvature="0"
   style="fill:#000000;stroke:none" />
         <path
   d="m 11602,16786 8,-2 5,-5 3,-11 2,-12 -2,-10 -3,-11 -5,-5 -8,-2 -7,2 -5,5 -5,11 -3,10 3,12 5,11 5,5 z"
   id="path142"
   inkscape:connector-curvature="0"
   style="fill:#000000;stroke:none" />
         <path
   d="m 11610,16756 v 0 12 l -2,8 h -3 -3 v 20 l 13,-5 8,-10 2,-13 5,-12 v 0 z"
   id="path144"
   inkscape:connector-curvature="0"
   style="fill:#000000;stroke:none" />
         <path
   d="m 11602,16738 v 0 h 3 3 l 2,8 v 10 h 20 l -5,-10 -2,-13 -8,-10 -13,-5 v 0 z"
   id="path146"
   inkscape:connector-curvature="0"
   style="fill:#000000;stroke:none" />
         <path
   d="m 11592,16756 v 0 -8 l 5,-7 3,-3 h 2 v -20 l -12,5 -8,7 -5,13 -5,13 v 0 z"
   id="path148"
   inkscape:connector-curvature="0"
   style="fill:#000000;stroke:none" />
         <path
   d="m 11602,16776 v 0 h -2 l -3,-2 -5,-8 v -10 h -20 l 5,15 5,13 8,7 12,5 v 0 z"
   id="path150"
   inkscape:connector-curvature="0"
   style="fill:#000000;stroke:none" />
         <path
   d="m 9624,13523 41,2 43,3 43,5 41,5 43,10 38,13 38,13 31,20 25,20 21,28 12,31 3,38 -5,40 -18,49 -31,56 -40,61 73,-69 67,-56 61,-41 51,-20 38,5 28,33 10,71 -8,110 23,-41 25,-36 23,-25 23,-20 21,-13 22,-3 21,6 20,15 13,23 v 23 l -10,28 -16,25 -17,23 -21,20 -20,15 -15,8 20,48 13,-28 18,-15 15,-2 15,7 13,13 10,20 5,23 v 23 l 15,-23 18,-15 20,-13 18,-5 21,3 12,10 13,23 3,30 38,-30 -26,-36 -15,-48 v -49 l 20,-38 23,-15 33,-8 41,6 51,17 53,41 61,66 64,97 66,132 -15,-43 -10,-49 -11,-45 -5,-49 -2,-45 2,-41 11,-38 15,-28 23,-23 28,-10 h 38 l 46,15 58,28 66,46 76,63 89,84 -22,-35 -23,-33 -21,-34 -20,-33 -15,-33 -13,-30 -5,-28 v -28 l 10,-25 18,-23 28,-21 38,-17 53,-18 67,-13 78,-8 97,-7 -41,-3 -45,-2 -49,-5 -53,-5 -54,-6 -53,-5 -56,-7 -53,-8 -54,-7 -51,-11 -48,-7 -46,-13 -40,-10 -39,-13 -30,-13 -23,-15 10,26 10,33 3,35 v 36 l -13,35 -20,33 -33,31 -48,23 -51,10 -41,-3 -31,-15 -15,-23 -2,-25 12,-26 31,-25 46,-15 -36,5 -41,5 h -43 l -46,-5 -45,-15 -46,-28 -46,-46 -41,-64 3,31 v 28 l -5,25 -8,23 -10,18 -13,13 -15,7 -18,3 -20,-5 -26,-16 -20,-25 -18,-36 -7,-45 5,-59 23,-71 43,-84 -23,8 -31,10 -35,10 -43,13 -46,13 -51,12 -53,13 -56,13 -56,12 -54,13 -53,10 -51,10 -48,6 -41,7 -36,3 z"
   id="path152"
   inkscape:connector-curvature="0"
   style="fill:#000000;stroke:none" />
         <path
   d="m 10517,13729 -16,-8 -12,-8 -13,-7 -13,-8 -10,-8 -8,-7 -5,-8 -2,-5 -21,23 -12,28 2,25 18,21 v -16 l 5,-15 10,-12 18,-11 -10,13 -5,18 v 18 l 5,12 15,3 23,-10 20,-18 z"
   id="path154"
   inkscape:connector-curvature="0"
   style="fill:#ffffff;stroke:none" />
         <path
   d="m 10517,13729 v 0 l -16,-8 -12,-8 -13,-7 -13,-8 -10,-8 -8,-7 -5,-8 -2,-5 v 0 l -21,23 -12,28 2,25 18,21 v 0 -16 l 5,-15 10,-12 18,-11 v 0 l -10,13 -5,18 v 18 l 5,12 v 0 l 15,3 23,-10 20,-18 z"
   id="path156"
   inkscape:connector-curvature="0"
   style="fill:none;stroke:#000000" />
         <path
   d="m 10664,13749 -13,2 -12,3 h -13 -13 l -13,-3 h -12 l -13,-2 -13,-3 -12,21 -5,20 5,18 17,15 13,-8 10,-12 5,-13 3,-15 5,10 v 15 l -3,15 -7,11 h 18 l 23,-13 17,-23 z"
   id="path158"
   inkscape:connector-curvature="0"
   style="fill:#ffffff;stroke:none" />
         <path
   d="m 10664,13749 v 0 l -13,2 -12,3 h -13 -13 l -13,-3 h -12 l -13,-2 -13,-3 v 0 l -12,21 -5,20 5,18 17,15 v 0 l 13,-8 10,-12 5,-13 3,-15 v 0 l 5,10 v 15 l -3,15 -7,11 v 0 h 18 l 23,-13 17,-23 z"
   id="path160"
   inkscape:connector-curvature="0"
   style="fill:none;stroke:#000000" />
         <path
   d="m 9578,15073 h -7 l -18,-2 -28,-5 -36,-8 -35,-13 -39,-15 -35,-20 -28,-28 -28,40 -10,46 10,48 28,41 38,25 h 53 l 64,-35 z"
   id="path162"
   inkscape:connector-curvature="0"
   style="fill:#ffffff;stroke:none" />
         <path
   d="m 9359,14992 -17,-3 30,31 38,20 41,18 36,13 35,7 31,5 18,3 h 7 v -26 h -7 l -18,-2 -26,-5 -35,-8 -36,-12 -36,-13 -33,-21 -25,-25 -18,-2 18,2 -10,-10 -8,8 z"
   id="path164"
   inkscape:connector-curvature="0"
   style="fill:#000000;stroke:none" />
         <path
   d="m 9578,15086 -10,-20 -69,71 -58,33 h -49 l -33,-21 -22,-38 -11,-43 11,-41 22,-35 -15,-20 -33,45 -10,51 10,53 33,44 43,30 h 59 l 69,-38 73,-76 -10,-21 10,21 16,-18 -26,-3 z"
   id="path166"
   inkscape:connector-curvature="0"
   style="fill:#000000;stroke:none" />
         <path
   d="m 9626,15073 16,-2 20,-8 23,-8 28,-12 25,-16 28,-17 23,-23 21,-26 30,51 5,48 -18,49 -30,33 -43,20 h -46 l -43,-28 z"
   id="path168"
   inkscape:connector-curvature="0"
   style="fill:#ffffff;stroke:none" />
         <path
   d="m 9817,14954 h -18 l -20,25 -20,20 -26,18 -25,16 -28,10 -20,7 -21,8 -13,2 v 26 l 18,-3 21,-7 25,-8 28,-15 25,-15 31,-18 25,-26 21,-25 h -18 l 15,-15 -7,-13 -11,13 z"
   id="path170"
   inkscape:connector-curvature="0"
   style="fill:#000000;stroke:none" />
         <path
   d="m 9626,15060 -12,18 40,64 51,33 h 51 l 48,-23 34,-38 20,-54 -5,-50 -36,-56 -15,15 25,46 5,45 -15,44 -28,28 -38,17 h -41 l -35,-22 -36,-59 -13,18 v -26 l -17,3 5,15 z"
   id="path172"
   inkscape:connector-curvature="0"
   style="fill:#000000;stroke:none" />
         <path
   d="m 9375,15147 10,-3 10,-10 5,-13 3,-15 -3,-15 -5,-13 -10,-10 -10,-2 -10,2 -8,10 -5,13 -3,15 3,15 5,13 8,10 z"
   id="path174"
   inkscape:connector-curvature="0"
   style="fill:#000000;stroke:none" />
         <path
   d="m 9375,15147 v 0 l 10,-3 10,-10 5,-13 3,-15 v 0 l -3,-15 -5,-13 -10,-10 -10,-2 v 0 l -10,2 -8,10 -5,13 -3,15 v 0 l 3,15 5,13 8,10 z"
   id="path176"
   inkscape:connector-curvature="0"
   style="fill:none;stroke:#000000" />
         <path
   d="m 9713,15147 10,-3 10,-10 5,-13 3,-15 -3,-15 -5,-13 -10,-10 -10,-2 -10,2 -8,10 -5,13 -3,15 3,15 5,13 8,10 z"
   id="path178"
   inkscape:connector-curvature="0"
   style="fill:#000000;stroke:none" />
         <path
   d="m 9713,15147 v 0 l 10,-3 10,-10 5,-13 3,-15 v 0 l -3,-15 -5,-13 -10,-10 -10,-2 v 0 l -10,2 -8,10 -5,13 -3,15 v 0 l 3,15 5,13 8,10 z"
   id="path180"
   inkscape:connector-curvature="0"
   style="fill:none;stroke:#000000" />
        </g>
       </g>
      </g>
     </g>
    </g>
   </g>
  </g>
 </g>
</svg>