<?xml version="1.0" encoding="UTF-8" standalone="no"?>
<svg
   xmlns:ooo="http://xml.openoffice.org/svg/export"
   xmlns:dc="http://purl.org/dc/elements/1.1/"
   xmlns:cc="http://creativecommons.org/ns#"
   xmlns:rdf="http://www.w3.org/1999/02/22-rdf-syntax-ns#"
   xmlns:svg="http://www.w3.org/2000/svg"
   xmlns="http://www.w3.org/2000/svg"
   xmlns:sodipodi="http://sodipodi.sourceforge.net/DTD/sodipodi-0.dtd"
   xmlns:inkscape="http://www.inkscape.org/namespaces/inkscape"
   version="1.2"
   width="26.26mm"
   height="38.91mm"
   viewBox="0 0 2626 3891"
   preserveAspectRatio="xMidYMid"
   xml:space="preserve"
   id="svg193"
   sodipodi:docname="scn_frst.svg"
   style="fill-rule:evenodd;stroke-width:28.22200012;stroke-linejoin:round"
   inkscape:version="0.92.5 (2060ec1f9f, 2020-04-08)"><metadata
   id="metadata197"><rdf:RDF><cc:Work
       rdf:about=""><dc:format>image/svg+xml</dc:format><dc:type
         rdf:resource="http://purl.org/dc/dcmitype/StillImage" /></cc:Work></rdf:RDF></metadata><sodipodi:namedview
   pagecolor="#ffffff"
   bordercolor="#666666"
   borderopacity="1"
   objecttolerance="10"
   gridtolerance="10"
   guidetolerance="10"
   inkscape:pageopacity="0"
   inkscape:pageshadow="2"
   inkscape:window-width="664"
   inkscape:window-height="487"
   id="namedview195"
   showgrid="false"
   inkscape:zoom="0.2102413"
   inkscape:cx="49.625198"
   inkscape:cy="73.511809"
   inkscape:window-x="0"
   inkscape:window-y="0"
   inkscape:window-maximized="0"
   inkscape:current-layer="svg193" />
 <defs
   class="ClipPathGroup"
   id="defs8">
  <clipPath
   id="presentation_clip_path"
   clipPathUnits="userSpaceOnUse">
   <rect
   x="0"
   y="0"
   width="21000"
   height="29700"
   id="rect2" />
  </clipPath>
  <clipPath
   id="presentation_clip_path_shrink"
   clipPathUnits="userSpaceOnUse">
   <rect
   x="21"
   y="29"
   width="20958"
   height="29641"
   id="rect5" />
  </clipPath>
 </defs>
 <defs
   class="TextShapeIndex"
   id="defs12">
  <g
   ooo:slide="id1"
   ooo:id-list="id3"
   id="g10" />
 </defs>
 <defs
   class="EmbeddedBulletChars"
   id="defs44">
  <g
   id="bullet-char-template-57356"
   transform="matrix(4.8828125e-4,0,0,-4.8828125e-4,0,0)">
   <path
   d="M 580,1141 1163,571 580,0 -4,571 Z"
   id="path14"
   inkscape:connector-curvature="0" />
  </g>
  <g
   id="bullet-char-template-57354"
   transform="matrix(4.8828125e-4,0,0,-4.8828125e-4,0,0)">
   <path
   d="M 8,1128 H 1137 V 0 H 8 Z"
   id="path17"
   inkscape:connector-curvature="0" />
  </g>
  <g
   id="bullet-char-template-10146"
   transform="matrix(4.8828125e-4,0,0,-4.8828125e-4,0,0)">
   <path
   d="M 174,0 602,739 174,1481 1456,739 Z M 1358,739 309,1346 659,739 Z"
   id="path20"
   inkscape:connector-curvature="0" />
  </g>
  <g
   id="bullet-char-template-10132"
   transform="matrix(4.8828125e-4,0,0,-4.8828125e-4,0,0)">
   <path
   d="M 2015,739 1276,0 H 717 l 543,543 H 174 v 393 h 1086 l -543,545 h 557 z"
   id="path23"
   inkscape:connector-curvature="0" />
  </g>
  <g
   id="bullet-char-template-10007"
   transform="matrix(4.8828125e-4,0,0,-4.8828125e-4,0,0)">
   <path
   d="m 0,-2 c -7,16 -16,29 -25,39 l 381,530 c -94,256 -141,385 -141,387 0,25 13,38 40,38 9,0 21,-2 34,-5 21,4 42,12 65,25 l 27,-13 111,-251 280,301 64,-25 24,25 c 21,-10 41,-24 62,-43 C 886,937 835,863 770,784 769,783 710,716 594,584 L 774,223 c 0,-27 -21,-55 -63,-84 l 16,-20 C 717,90 699,76 672,76 641,76 570,178 457,381 L 164,-76 c -22,-34 -53,-51 -92,-51 -42,0 -63,17 -64,51 -7,9 -10,24 -10,44 0,9 1,19 2,30 z"
   id="path26"
   inkscape:connector-curvature="0" />
  </g>
  <g
   id="bullet-char-template-10004"
   transform="matrix(4.8828125e-4,0,0,-4.8828125e-4,0,0)">
   <path
   d="M 285,-33 C 182,-33 111,30 74,156 52,228 41,333 41,471 c 0,78 14,145 41,201 34,71 87,106 158,106 53,0 88,-31 106,-94 l 23,-176 c 8,-64 28,-97 59,-98 l 735,706 c 11,11 33,17 66,17 42,0 63,-15 63,-46 V 965 c 0,-36 -10,-64 -30,-84 L 442,47 C 390,-6 338,-33 285,-33 Z"
   id="path29"
   inkscape:connector-curvature="0" />
  </g>
  <g
   id="bullet-char-template-9679"
   transform="matrix(4.8828125e-4,0,0,-4.8828125e-4,0,0)">
   <path
   d="M 813,0 C 632,0 489,54 383,161 276,268 223,411 223,592 c 0,181 53,324 160,431 106,107 249,161 430,161 179,0 323,-54 432,-161 108,-107 162,-251 162,-431 0,-180 -54,-324 -162,-431 C 1136,54 992,0 813,0 Z"
   id="path32"
   inkscape:connector-curvature="0" />
  </g>
  <g
   id="bullet-char-template-8226"
   transform="matrix(4.8828125e-4,0,0,-4.8828125e-4,0,0)">
   <path
   d="m 346,457 c -73,0 -137,26 -191,78 -54,51 -81,114 -81,188 0,73 27,136 81,188 54,52 118,78 191,78 73,0 134,-26 185,-79 51,-51 77,-114 77,-187 0,-75 -25,-137 -76,-188 -50,-52 -112,-78 -186,-78 z"
   id="path35"
   inkscape:connector-curvature="0" />
  </g>
  <g
   id="bullet-char-template-8211"
   transform="matrix(4.8828125e-4,0,0,-4.8828125e-4,0,0)">
   <path
   d="M -4,459 H 1135 V 606 H -4 Z"
   id="path38"
   inkscape:connector-curvature="0" />
  </g>
  <g
   id="bullet-char-template-61548"
   transform="matrix(4.8828125e-4,0,0,-4.8828125e-4,0,0)">
   <path
   d="m 173,740 c 0,163 58,303 173,419 116,115 255,173 419,173 163,0 302,-58 418,-173 116,-116 174,-256 174,-419 0,-163 -58,-303 -174,-418 C 1067,206 928,148 765,148 601,148 462,206 346,322 231,437 173,577 173,740 Z"
   id="path41"
   inkscape:connector-curvature="0" />
  </g>
 </defs>
 <g
   id="g49"
   transform="translate(-9187,-12904)">
  <g
   id="id2"
   class="Master_Slide">
   <g
   id="bg-id2"
   class="Background" />
   <g
   id="bo-id2"
   class="BackgroundObjects" />
  </g>
 </g>
 <g
   class="SlideGroup"
   id="g191"
   transform="translate(-9187,-12904)">
  <g
   id="g189">
   <g
   id="container-id1">
    <g
   id="id1"
   class="Slide"
   clip-path="url(#presentation_clip_path)">
     <g
   class="Page"
   id="g185">
      <g
   class="Graphic"
   id="g183">
       <g
   id="id3">
        <rect
   class="BoundingBox"
   x="9187"
   y="12904"
   width="2626"
   height="3891"
   id="rect51"
   style="fill:none;stroke:none" />
        <defs
   id="defs56">
         <clipPath
   id="clip_path_1"
   clipPathUnits="userSpaceOnUse">
          <path
   d="m 9187,12904 h 2625 v 3890 H 9187 Z"
   id="path53"
   inkscape:connector-curvature="0" />
         </clipPath>
        </defs>
        <g
   clip-path="url(#clip_path_1)"
   id="g180">
         <path
   d="m 11526,14294 12,48 13,51 13,51 13,51 22,130 18,132 13,137 3,137 v 23 23 25 23 l -3,23 v 20 23 l -3,23 -10,115 -15,114 -20,109 -26,107 -30,104 -33,102 -38,96 -41,92 -13,25 -10,23 -13,23 -12,23 -26,46 -25,43 -28,43 -28,41 -31,40 -30,39 -31,38 -33,35 -12,13 -16,13 -12,15 -16,13 -35,33 -38,30 -39,31 -40,28 -41,25 -41,23 -40,20 -43,18 -23,10 -26,8 -23,7 -22,8 -26,5 -23,5 -25,5 -23,5 -15,3 h -13 l -15,2 h -13 l -15,3 h -16 -12 -15 -16 -15 -15 l -15,-3 h -16 l -12,-2 -16,-3 h -12 l -16,-2 -15,-3 -13,-2 -15,-3 -10,-2 -13,-3 -10,-5 -13,-2 -10,-6 -13,-2 -10,-5 -12,-3 -44,-15 -40,-18 -41,-20 -41,-23 -38,-23 -40,-28 -36,-28 -38,-30 -36,-31 -35,-35 -36,-36 -33,-38 -33,-38 -33,-43 -31,-41 -30,-46 -74,-124 -63,-135 -56,-142 -49,-153 -38,-157 -28,-166 -17,-172 -6,-176 3,-84 3,-84 7,-81 8,-81 12,-82 13,-78 18,-77 18,-76 10,-35 10,-36 10,-36 13,-35 10,-36 13,-33 15,-35 13,-33 25,-59 26,-56 28,-53 28,-53 30,-51 31,-49 33,-45 33,-46 35,-43 36,-43 38,-39 38,-38 38,-33 41,-33 41,-30 43,-28 13,-10 15,-8 13,-8 15,-7 30,-18 33,-15 31,-13 33,-13 33,-10 33,-10 33,-8 33,-7 13,-3 12,-2 11,-3 h 12 l 13,-2 h 13 l 13,-3 h 12 l 10,-3 h 13 13 13 25 l 23,3 25,3 26,2 25,3 23,5 25,5 23,5 13,2 10,3 13,5 13,3 10,5 12,2 11,5 12,5 28,11 28,12 28,15 26,13 28,15 28,18 25,15 25,18 26,21 25,17 26,21 25,23 23,22 25,23 23,23 23,26 10,10 10,12 8,11 10,12 33,41 31,43 33,46 28,46 30,48 28,51 26,51 25,53 13,31 13,30 12,31 13,30 13,33 10,33 13,33 z"
   id="path58"
   inkscape:connector-curvature="0"
   style="fill:#009900;stroke:none" />
         <path
   d="m 11195,13661 -15,188 -5,183 v 178 l 8,168 10,158 12,144 13,135 13,117 15,122 23,145 28,160 30,165 28,163 28,147 21,125 10,94 -13,25 -10,23 -13,23 -12,23 -26,46 -25,43 -28,43 -28,41 -31,40 -30,39 -31,38 -33,35 -12,13 -16,13 -12,15 -16,13 -35,33 -38,30 -39,31 -40,28 -41,25 -41,23 -40,20 -43,18 -23,10 -26,8 -23,7 -22,8 -26,5 -23,5 -25,5 -23,5 -15,3 h -13 l -15,2 h -13 l -15,3 h -16 -12 -15 -16 -15 -15 l -15,-3 h -16 l -12,-2 -16,-3 h -12 l -16,-2 -15,-3 -13,-2 -15,-3 -10,-2 -13,-3 -10,-5 -13,-2 -10,-6 -13,-2 -10,-5 -12,-3 -44,-15 -40,-18 -41,-20 -41,-23 -38,-23 -40,-28 -36,-28 -38,-30 -36,-31 -35,-35 -36,-36 -33,-38 -33,-38 -33,-43 -31,-41 -30,-46 5,-73 13,-102 17,-117 23,-125 23,-129 23,-122 20,-109 16,-87 15,-96 18,-138 20,-162 20,-178 21,-181 20,-167 18,-145 13,-110 12,-96 16,-115 15,-124 18,-122 12,-117 16,-102 10,-81 5,-48 13,-10 15,-8 13,-8 15,-7 -8,157 -10,191 -10,226 -8,262 3,302 12,341 28,381 49,425 7,-6 18,-10 28,-15 28,-18 31,-20 25,-20 20,-18 5,-13 3,-43 8,-74 7,-94 3,-96 v -181 l -3,-292 v -305 l 3,-224 5,-229 2,-310 5,-279 8,-132 13,-3 12,-2 11,-3 h 12 l 8,196 5,251 8,288 10,307 15,308 20,287 31,254 43,198 15,66 18,74 18,69 18,45 23,-145 15,-155 10,-147 5,-114 3,-176 2,-279 3,-295 v -216 l 2,-209 11,-264 7,-229 5,-96 13,2 10,3 13,5 13,3 10,5 12,2 11,5 12,5 16,160 17,176 16,183 17,180 16,168 12,147 11,120 7,76 8,74 15,101 18,125 20,132 18,135 18,119 10,102 5,69 3,50 5,49 10,48 13,48 12,46 13,46 10,43 8,41 -3,-249 3,-209 5,-165 5,-127 5,-94 8,-158 12,-198 16,-224 15,-226 15,-208 18,-173 15,-114 10,10 10,12 8,11 z"
   id="path60"
   inkscape:connector-curvature="0"
   style="fill:#995933;stroke:none" />
         <path
   d="m 11414,16053 13,-28 12,-28 10,-25 13,-28 21,-49 17,-48 18,-51 15,-51 5,-20 6,-20 5,-21 5,-20 5,-20 5,-23 5,-20 5,-23 8,-31 5,-33 7,-30 5,-33 6,-28 5,-31 2,-30 5,-31 3,-28 2,-30 3,-31 2,-28 3,-23 v -23 -20 l 3,-23 v -23 -25 -23 -23 l -3,-96 -5,-97 -8,-97 -12,-94 -16,-91 -18,-89 -20,-86 -25,-87 -18,140 -23,208 -28,252 -25,274 -26,272 -20,239 -13,188 -5,107 z"
   id="path62"
   inkscape:connector-curvature="0"
   style="fill:#260000;stroke:none" />
         <path
   d="m 10189,16749 -92,-38 -89,-46 -84,-58 -81,-69 -76,-76 -74,-84 -69,-94 -63,-99 -56,-109 -54,-115 -45,-119 -41,-127 -33,-132 -26,-135 -17,-140 -13,-145 -3,-33 v -33 -33 -33 -25 -26 -22 l 3,-26 3,-48 2,-51 5,-48 5,-49 5,-38 5,-38 5,-38 6,-38 12,-64 13,-61 15,-63 18,-59 18,-58 18,-59 20,-55 23,-56 25,145 36,177 43,196 43,203 46,196 43,175 38,140 31,97 25,66 18,61 18,61 18,61 15,63 18,64 18,71 25,74 30,84 41,96 43,99 49,100 43,96 38,87 31,71 17,51 z"
   id="path64"
   inkscape:connector-curvature="0"
   style="fill:#260000;stroke:none" />
         <path
   d="m 11526,14294 -10,-33 -13,-33 -10,-33 -13,-33 -13,-30 -12,-31 -13,-30 -13,-31 -10,43 -10,54 -8,58 -5,56 -33,-10 -13,7 -7,-7 -18,-15 -20,-18 -13,-18 -92,28 h 3 l 8,2 12,6 15,7 16,8 18,10 15,13 12,15 -15,10 -10,-8 -13,-10 -12,-7 -13,-10 -15,-8 -13,-5 -13,-8 -10,-2 15,-13 92,-28 38,-31 5,8 8,23 12,25 8,26 33,10 -13,-36 -10,-38 -7,-38 -5,-30 -31,7 -36,10 -38,16 -40,17 -44,21 -38,23 -35,25 -31,28 13,10 15,10 18,11 18,7 -18,3 -18,7 -20,8 -21,10 -20,10 -20,10 -18,11 -18,5 21,10 20,10 15,8 15,10 13,13 13,15 10,18 13,20 12,25 16,26 20,25 25,21 36,15 51,7 63,-5 84,-20 61,-33 16,-31 12,-38 5,-40 -5,-28 -76,-8 5,48 -10,41 -13,33 -5,25 -15,6 -18,2 -15,-2 -13,-3 -69,-8 -12,-5 -13,-7 -18,-5 -25,2 13,-7 20,-13 23,-18 23,-15 22,-18 21,-18 15,-15 10,-10 h 5 l 5,2 3,3 -5,7 -8,8 -10,13 -13,18 -12,17 -13,18 -13,18 -10,15 -8,10 69,8 10,-13 13,-20 15,-20 13,-23 13,-23 10,-23 7,-15 3,-13 76,8 15,12 13,16 8,20 2,20 -5,21 -12,17 -18,18 -31,13 -61,33 3,10 5,13 2,10 3,10 20,-5 23,-5 23,-10 25,-13 21,-15 18,-15 17,-21 11,-20 -13,-51 -13,-51 -13,-51 -12,-48 -41,-10 20,23 8,18 3,15 -6,13 -22,-13 -26,-10 -23,-5 -20,-3 -23,3 -20,2 -18,8 -18,5 -23,10 -25,10 -28,8 -31,8 -28,5 -25,2 h -20 l -18,-2 -23,-8 -3,-8 8,-5 13,-2 13,2 12,3 h 18 l 15,-3 18,-2 18,-3 15,-5 15,-2 21,-8 28,-13 30,-15 36,-13 33,-12 30,-8 28,-3 18,8 z"
   id="path66"
   inkscape:connector-curvature="0"
   style="fill:#77ea38;stroke:none" />
         <path
   d="m 9556,14142 10,-36 10,-23 13,-12 17,-6 11,3 5,8 2,12 v 16 l -7,17 -11,21 -17,23 -26,20 -12,2 -11,3 -12,5 -11,5 -10,8 -7,5 -10,5 -11,5 -17,3 -21,-3 -15,-10 -5,-18 2,-10 6,-10 7,-8 10,-5 13,-3 15,-2 h 13 l 15,2 -15,-17 -3,-23 3,-18 10,-10 13,-3 15,3 15,15 z"
   id="path68"
   inkscape:connector-curvature="0"
   style="fill:#ed87db;stroke:none" />
         <path
   d="m 9665,14208 -20,-31 -16,-35 3,-31 35,-10 23,5 13,8 5,15 v 15 l -5,18 -10,18 -13,15 z"
   id="path70"
   inkscape:connector-curvature="0"
   style="fill:#ed87db;stroke:none" />
         <path
   d="m 9856,14152 2,-18 10,-15 10,-10 13,-5 10,5 8,12 -3,23 -12,33 -10,13 -16,13 -12,15 -16,10 -15,13 -15,7 -15,3 h -13 l -13,-13 8,-15 15,-15 18,-10 -13,-13 -2,-18 2,-18 10,-15 13,-10 13,-3 12,11 z"
   id="path72"
   inkscape:connector-curvature="0"
   style="fill:#ed87db;stroke:none" />
         <path
   d="m 10184,14205 15,-28 20,-20 20,-10 16,-3 12,8 -2,18 -13,28 -33,38 23,-10 23,-3 15,3 8,10 -5,12 -16,16 -33,17 -50,18 -11,-7 -12,-8 -11,-8 -12,-5 -13,-5 -13,-5 -12,-2 -13,-5 -10,-8 -5,-10 2,-13 5,-10 10,-10 13,-3 18,3 18,12 -5,-33 17,-23 21,6 z"
   id="path74"
   inkscape:connector-curvature="0"
   style="fill:#ed87db;stroke:none" />
         <path
   d="m 9449,14109 5,-21 8,-20 7,-18 15,-15 16,-10 17,-8 21,-2 25,5 -7,15 -11,15 -15,13 -13,10 -17,10 -16,10 -17,8 z"
   id="path76"
   inkscape:connector-curvature="0"
   style="fill:#ed87db;stroke:none" />
         <path
   d="m 9449,14109 -13,33 -15,35 -13,33 -10,36 -13,35 -10,36 -10,36 -10,35 18,-15 25,-18 31,-20 30,-23 28,-18 28,-18 20,-10 16,-5 12,-2 h 23 28 l 33,2 h 33 l 36,3 35,2 31,3 33,2 41,3 40,5 43,2 41,6 36,5 28,5 15,5 23,15 43,33 59,43 68,49 69,50 61,46 48,38 28,23 3,-38 -39,-28 -40,-33 -41,-30 -41,-33 -38,-31 -33,-25 -28,-23 -17,-18 25,5 28,3 33,7 33,5 30,5 26,5 20,8 10,5 16,15 20,26 20,28 16,25 28,-7 33,-11 38,-7 38,-10 35,-5 34,-8 27,-3 18,-2 -33,-3 -28,-2 -28,-5 -28,-3 h -25 -28 l -31,3 -33,2 -25,-18 -28,-20 -33,-20 -36,-23 -33,-20 -30,-18 -26,-16 -20,-10 -18,-7 -20,-5 -20,-8 -23,-5 -23,-5 -23,-5 -20,-3 h -18 -21 l -22,-2 h -26 l -25,-3 -28,-2 h -26 l -22,-3 h -18 l 28,-18 33,-23 35,-25 38,-25 33,-23 28,-23 23,-18 13,-13 -33,18 -36,18 -40,18 -38,20 -39,20 -35,21 -31,23 -25,20 h -51 l -46,-3 -45,-2 -39,-3 -35,-2 -31,-5 -23,-8 -15,-5 -12,-8 -16,-7 -15,-11 -18,-10 -15,-10 -15,-10 -13,-10 z"
   id="path78"
   inkscape:connector-curvature="0"
   style="fill:#260000;stroke:none" />
         <path
   d="m 11472,13791 -5,8 -2,10 5,10 10,10 15,10 23,10 28,13 38,10 -5,10 -5,13 -3,10 v 13 l -20,5 -20,8 -23,7 -25,8 -23,8 -18,5 -18,5 -10,5 -15,25 -16,31 -15,28 -15,18 h -18 l -20,-3 -21,-5 -20,-5 -20,-8 -18,-5 -15,-8 -13,-5 -28,16 -38,17 -41,16 -48,17 -46,13 -46,13 -38,8 h -33 l -2,-28 v -31 -30 -28 l 5,-3 10,-8 18,-10 25,-15 28,-18 33,-20 38,-23 41,-23 41,-25 43,-28 43,-26 43,-25 43,-25 39,-23 38,-23 33,-21 -38,6 -46,12 -48,16 -46,17 -41,16 -35,15 -23,10 -8,3 -71,-21 -26,59 -160,84 3,-69 13,-13 20,-23 30,-28 33,-30 34,-28 25,-26 20,-17 8,-8 -5,-25 -170,91 -23,-13 320,-287 -3,-38 -190,135 -36,-41 -25,20 33,49 -127,112 28,-404 -28,2 -13,79 -20,152 -21,150 -7,69 -16,-10 -28,-21 -35,-22 -38,-26 -41,-23 -33,-20 -23,-15 -8,-5 -27,28 7,5 23,12 31,21 35,25 41,25 35,26 31,23 20,18 -28,33 16,48 12,79 5,101 3,125 -15,2 -21,5 -25,3 -28,3 -28,2 h -23 l -20,3 h -10 l -16,-8 -12,-15 -16,-21 -12,-17 -33,5 h -28 l -28,-5 -26,-8 -23,-13 -20,-15 -20,-15 -16,-15 -17,-33 2,-26 8,-18 10,-10 5,-5 v -10 l -5,-10 -5,-10 -87,15 -68,-3 -54,-10 -40,-20 -31,-28 -20,-33 -13,-31 -10,-33 -38,8 h -31 -25 l -23,-3 -18,-7 -18,-5 -20,-11 -18,-7 18,-8 23,-10 25,-13 26,-15 23,-13 23,-15 17,-10 13,-8 8,5 7,6 3,5 2,2 8,-25 10,-28 10,-21 13,-10 13,-2 25,-3 h 33 l 38,-2 39,2 33,8 25,7 10,16 5,17 5,18 5,18 11,18 7,13 13,12 15,5 h 18 l 23,-5 23,-7 20,-11 18,-12 10,-21 v -28 l -13,-35 -28,-43 13,-10 13,-11 13,-7 10,-10 10,-8 10,-8 8,-7 5,-10 12,-18 16,-18 18,-13 25,-10 2,23 8,23 13,23 18,20 22,18 26,10 h 28 l 33,-10 28,-18 20,-23 13,-25 5,-28 v -28 l -5,-26 -3,-22 -5,-18 -2,-36 v -43 l 2,-36 10,-15 13,-2 21,-5 27,-6 28,-5 31,-5 25,-2 h 18 l 8,2 10,28 10,54 v 58 l -18,51 8,5 10,5 13,8 13,7 12,8 10,5 8,3 3,2 12,-13 16,-15 15,-15 18,-18 15,-15 13,-13 10,-10 5,-3 h 5 13 l 17,3 21,3 18,2 h 17 l 11,3 5,2 v 10 l -3,16 v 12 l 3,5 h 12 l 26,-2 20,-3 10,3 -5,10 -15,25 -18,33 -23,39 -23,38 -17,33 -13,23 -3,10 5,5 8,7 13,13 12,13 13,15 10,10 10,10 6,3 h 10 10 10 l 5,-3 5,-5 10,-12 13,-16 15,-17 13,-18 13,-13 10,-10 5,-3 13,11 20,12 20,13 13,5 13,-5 18,-5 17,-8 8,-2 v 43 56 l -5,56 z"
   id="path80"
   inkscape:connector-curvature="0"
   style="fill:#19e50c;stroke:none" />
         <path
   d="m 11472,13791 8,-43 5,-56 v -56 -43 l -8,2 -17,8 -18,5 -13,5 -13,-5 -20,-13 -20,-12 -13,-11 -5,3 -10,10 -13,13 -13,18 -15,17 -13,16 -10,12 -5,5 -5,3 h -10 -10 -10 l -6,-3 -10,-10 -10,-10 -13,-15 -12,-13 -13,-13 -8,-7 -5,-5 3,-10 13,-23 17,-33 23,-38 23,-39 18,-33 15,-25 5,-10 -10,-3 -20,3 -26,2 h -12 l -3,-5 v -12 l 3,-16 v -10 l -5,-2 -11,-3 h -17 l -18,-2 -21,-3 -17,-3 h -13 -5 l -5,3 -10,10 -13,13 -15,15 -18,18 -15,15 -16,15 -12,13 -3,-2 -8,-3 -10,-5 -12,-8 -13,-7 -13,-8 -10,-5 -8,-5 18,-51 v -58 l -10,-54 -10,-28 -8,-2 h -18 l -25,2 -31,5 -28,5 -27,6 -21,5 -13,2 -10,15 -2,36 v 43 l 2,36 5,18 3,22 5,26 v 28 l -5,28 -13,25 -20,23 -28,18 -33,10 h -28 l -26,-10 -22,-18 -18,-20 -13,-23 -8,-23 -2,-23 -25,10 -18,13 -16,18 -12,18 -5,10 -8,7 -10,8 -10,8 -10,10 -13,7 -13,11 -13,10 28,43 13,35 v 28 l -10,21 -18,12 -20,11 -23,7 -23,5 h -18 l -15,-5 -13,-12 -7,-13 -11,-18 -5,-18 -5,-18 -5,-17 -10,-16 -25,-7 -33,-8 -39,-2 -38,2 h -33 l -25,3 -13,2 -13,10 -10,21 -10,28 -8,25 -2,-2 -3,-5 -7,-6 -8,-5 -13,8 -17,10 -23,15 -23,13 -26,15 -25,13 -23,10 -18,8 -2,-18 2,-23 8,-25 13,-28 12,-23 13,-23 10,-15 8,-10 15,-8 18,-5 h 18 15 l 3,-28 10,-23 15,-20 20,-13 10,-5 11,-3 12,-2 h 11 l 10,2 h 10 l 10,6 10,2 10,3 11,-3 h 15 l 15,-5 15,-5 16,-8 17,-7 16,-8 -16,-25 -17,-38 -16,-39 -15,-30 8,-3 10,-7 10,-5 10,-8 10,-8 11,-10 10,-7 7,-8 -23,-15 -17,-21 -16,-20 -12,-20 -11,-23 -5,-23 -5,-20 v -21 l 46,-17 41,-8 h 38 l 33,8 28,12 25,13 21,15 17,13 v -15 -18 -20 l 3,-18 h 20 21 l 17,5 21,5 18,5 15,8 15,7 15,8 16,-23 17,-25 18,-28 23,-31 20,-28 26,-28 23,-23 25,-20 13,15 13,15 7,16 8,12 101,-2 72,20 45,38 31,44 20,45 21,38 22,26 h 36 l -20,-41 v -35 l 18,-28 30,-18 18,-3 h 20 l 15,5 18,11 13,12 10,18 8,20 2,26 13,-5 13,-5 12,-5 16,-8 10,-5 13,-3 7,-2 5,2 10,8 13,13 13,10 15,10 15,20 16,28 10,31 10,12 h 13 12 l 13,3 8,3 7,12 10,23 8,20 v 16 l -8,15 -12,23 -10,30 2,31 5,15 8,13 7,10 13,10 10,5 13,3 15,-3 16,-7 10,-23 12,-23 11,-20 10,-13 18,33 20,46 20,48 16,38 7,-3 h 10 l 13,-2 h 13 12 l 13,-3 h 8 l 7,-5 8,23 10,31 15,33 13,33 15,35 16,31 10,25 10,15 h -8 -7 -8 -2 l -11,13 -12,15 -16,13 -20,15 -20,11 -23,10 -23,5 -20,2 -13,-15 -15,-18 -16,-12 -17,-13 -23,-8 -23,-5 -31,5 z"
   id="path82"
   inkscape:connector-curvature="0"
   style="fill:#b2f259;stroke:none" />
         <path
   d="m 11414,16053 -18,35 -15,34 -20,35 -18,33 -21,33 -20,31 -20,33 -21,30 -15,21 -15,20 -15,20 -16,21 -15,17 -18,21 -15,17 -18,18 -12,13 -16,13 -12,15 -16,13 -35,33 -38,30 -39,31 -40,28 -41,25 -41,23 -40,20 -43,18 -23,10 -26,8 -23,7 -22,8 -26,5 -23,5 -25,5 -23,5 -15,3 h -13 l -15,2 h -13 l -15,3 h -16 -12 -15 -16 -15 -15 l -15,-3 h -16 l -12,-2 -16,-3 h -12 l -16,-2 -15,-3 -13,-2 -15,-3 -10,-2 -13,-3 -10,-5 -13,-2 -10,-6 -13,-2 -10,-5 -12,-3 12,-106 21,-21 28,-25 30,-26 31,-28 30,-30 28,-31 23,-33 18,-30 10,-28 15,-36 18,-45 20,-54 21,-58 23,-61 22,-64 21,-61 5,-18 7,-20 8,-18 5,-17 10,-39 10,-33 11,-33 7,-28 16,-58 15,-61 15,-66 13,-69 10,-71 10,-76 8,-82 2,-86 3,-71 5,-94 5,-117 8,-130 v -15 -13 -15 l 2,-13 v -38 l 3,-38 v -38 l 2,-41 3,-45 v -46 l 2,-46 v -46 l 3,-71 v -73 -69 -66 l -3,-125 -5,-101 -12,-79 -16,-48 28,-33 -20,-18 -31,-23 -35,-26 -41,-25 -35,-25 -31,-21 -23,-12 -7,-5 27,-28 8,5 23,15 33,20 41,23 38,26 35,22 28,21 16,10 7,-69 21,-150 20,-152 13,-79 28,-2 -28,404 127,-112 -33,-49 25,-20 36,41 190,-135 3,38 -320,287 23,13 170,-91 5,25 -8,8 -20,17 -25,26 -34,28 -33,30 -30,28 -20,23 -13,13 -3,69 160,-84 26,-59 71,21 8,-3 23,-10 35,-15 41,-16 46,-17 48,-16 46,-12 38,-6 -33,21 -38,23 -39,23 -43,25 -43,25 -43,26 -43,28 -41,25 -41,23 -38,23 -33,20 -28,18 -25,15 -18,10 -10,8 -5,3 v 28 30 31 l 2,28 v 17 l 3,18 v 18 18 l 2,35 5,36 3,38 2,36 11,76 10,76 13,76 12,74 15,76 16,74 18,74 17,73 5,21 5,17 6,21 5,20 12,41 13,43 13,41 12,43 13,41 13,40 13,41 12,41 8,25 8,23 7,23 8,25 25,76 28,72 26,71 25,66 25,63 23,61 23,59 23,53 z"
   id="path84"
   inkscape:connector-curvature="0"
   style="fill:#260000;stroke:none" />
         <path
   d="m 10293,13435 30,-35 v 5 12 l 13,21 28,25 -33,48 z"
   id="path86"
   inkscape:connector-curvature="0"
   style="fill:#260000;stroke:none" />
         <path
   d="m 10237,13760 18,-5 10,3 23,8 35,7 41,10 43,11 38,7 31,3 h 20 l -2,56 15,7 20,13 26,15 28,15 22,18 23,13 18,10 8,5 2,10 -7,16 -8,15 -5,7 -15,-7 -41,-23 -58,-33 -69,-38 -71,-41 -64,-41 -51,-35 z"
   id="path88"
   inkscape:connector-curvature="0"
   style="fill:#260000;stroke:none" />
         <path
   d="m 10677,13392 -3,-28 -7,-64 -13,-71 -15,-48 30,-3 13,44 15,53 8,59 5,53 z"
   id="path90"
   inkscape:connector-curvature="0"
   style="fill:#260000;stroke:none" />
         <path
   d="m 11134,16472 -12,13 -16,13 -12,15 -16,13 -30,-28 -31,-31 -25,-28 -26,-28 -25,-33 -23,-33 -25,-38 -26,-41 28,-106 8,-92 -10,-79 -26,-58 -15,61 -15,81 -10,82 -3,68 -8,81 -15,120 -20,147 -20,163 -23,10 -26,8 -23,7 -22,8 -26,5 -23,5 -25,5 -23,5 10,-35 13,-33 15,-33 18,-33 18,-36 20,-35 23,-41 23,-46 48,-114 33,-115 23,-117 13,-116 7,-117 v -120 l -2,-119 -5,-122 h 25 l 15,86 18,109 20,130 28,135 33,137 46,127 54,109 z"
   id="path92"
   inkscape:connector-curvature="0"
   style="fill:#842626;stroke:none" />
         <path
   d="m 10944,15196 17,-20 11,31 20,71 23,89 15,73 8,41 12,56 23,74 31,81 40,94 51,99 61,102 74,101 -5,-2 -15,-3 -23,-5 -26,-7 -28,-10 -28,-8 -25,-10 -18,-10 -15,-72 -20,-71 -21,-68 -20,-66 -20,-61 -16,-59 -15,-48 -8,-43 -7,-41 -10,-48 -10,-51 -11,-51 -12,-51 -11,-43 -12,-38 z"
   id="path94"
   inkscape:connector-curvature="0"
   style="fill:#842626;stroke:none" />
         <path
   d="m 10395,16792 h -16 l -12,-2 -16,-3 h -12 l -16,-2 -15,-3 -13,-2 -15,-3 -13,-20 -5,-23 v -25 l 10,-28 21,-28 30,-28 41,-31 53,-30 -25,28 -23,28 -15,28 -8,30 -2,31 7,28 16,28 z"
   id="path96"
   inkscape:connector-curvature="0"
   style="fill:#842626;stroke:none" />
         <path
   d="m 10534,15984 3,-10 7,-10 11,-10 12,-8 16,-10 17,-8 16,-7 17,-10 18,-11 26,-12 25,-13 33,-15 33,-16 33,-17 36,-18 33,-20 33,-21 38,-25 38,-33 38,-41 36,-53 33,-69 30,-86 23,-104 11,15 10,20 7,15 3,5 -10,56 -10,51 -11,48 -12,41 -18,38 -23,36 -25,35 -34,33 -38,31 -43,28 -46,25 -45,26 -49,23 -40,20 -36,18 -28,15 -23,13 -23,17 -23,16 -22,12 -23,8 -21,3 -17,-5 z"
   id="path98"
   inkscape:connector-curvature="0"
   style="fill:#a53300;stroke:none" />
         <path
   d="m 10735,14721 -25,13 -10,28 7,30 23,23 18,8 20,15 23,15 25,21 26,17 25,21 26,18 23,12 23,10 20,13 20,13 18,13 18,17 15,18 13,20 10,26 13,-20 v -26 l -5,-28 -13,-25 -33,-38 -43,-36 -49,-33 -48,-25 -48,-26 -41,-18 -33,-15 -18,-13 z"
   id="path100"
   inkscape:connector-curvature="0"
   style="fill:#a53300;stroke:none" />
         <path
   d="m 10740,14614 -18,-15 -15,-15 -13,-20 -7,-26 v -25 l 10,-28 18,-31 33,-30 35,-31 31,-30 28,-28 20,-28 16,-28 10,-25 5,-26 v -25 l 25,28 15,33 -5,40 -30,51 -20,26 -23,25 -21,23 -18,20 -20,18 -18,15 -15,13 -18,13 v 30 l -2,33 -3,31 z"
   id="path102"
   inkscape:connector-curvature="0"
   style="fill:#a53300;stroke:none" />
         <path
   d="m 9571,14800 74,66 73,64 79,61 76,58 79,53 82,51 81,48 81,44 82,38 81,35 79,28 81,26 81,18 79,12 79,5 h 76 l 33,-2 41,-8 48,-10 51,-10 59,-15 58,-16 61,-17 61,-21 61,-20 61,-20 56,-23 53,-26 51,-23 41,-22 36,-26 28,-23 -3,23 v 20 23 l -3,23 -81,33 -76,28 -71,28 -66,23 -64,23 -58,20 -54,18 -51,13 -48,15 -46,10 -43,8 -43,7 -41,5 -38,3 -41,3 h -38 -38 l -46,-3 -48,-5 -51,-8 -58,-12 -61,-16 -66,-20 -72,-28 -76,-30 -81,-41 -87,-48 -89,-56 -96,-64 -99,-76 -107,-84 -109,-97 z"
   id="path104"
   inkscape:connector-curvature="0"
   style="fill:#870000;stroke:none" />
         <path
   d="m 10450,15672 23,7 18,8 15,8 11,12 5,13 v 13 l -3,15 -8,18 -15,20 -15,10 -18,5 h -18 l -17,3 -18,2 -15,8 -11,15 -7,18 2,20 5,18 13,15 18,16 20,10 26,10 28,5 h 30 l 31,-8 33,-15 33,-18 30,-25 28,-28 28,-30 20,-36 21,-51 15,-61 13,-66 12,-66 13,-64 15,-53 21,-41 28,-20 -36,-8 -41,-2 h -40 l -43,2 -46,6 -43,5 -46,10 -43,10 -44,10 -40,13 -38,13 -39,12 -30,13 -31,15 -22,10 -21,13 -7,5 -5,5 -8,5 -8,5 -25,23 -26,28 -17,26 -13,30 -10,31 v 33 l 7,33 18,33 8,10 7,10 8,10 8,8 23,20 22,15 23,8 21,3 h 20 l 15,-5 15,-8 13,-10 15,-21 3,-17 -3,-16 -7,-12 -10,-13 -5,-10 2,-13 10,-15 8,-8 10,-2 13,-3 15,-2 h 13 l 15,2 h 13 z"
   id="path106"
   inkscape:connector-curvature="0"
   style="fill:#19e50c;stroke:none" />
         <path
   d="m 9983,15601 h -26 l -18,2 -15,8 -10,7 -5,8 -3,10 -2,10 v 8 l 10,33 18,25 10,26 -18,30 -10,8 -13,7 -12,3 -13,3 -15,2 h -16 l -15,-2 -15,-3 -15,-3 -21,-2 -17,-5 -16,-8 -15,-10 -13,-15 -5,-21 v -27 l 5,-39 5,-35 8,-36 8,-35 10,-36 10,-33 18,-30 18,-28 25,-31 33,-41 41,-40 48,-43 51,-39 58,-33 64,-20 63,-8 -5,39 -2,43 2,46 11,48 10,25 10,31 13,35 12,38 8,41 8,46 2,48 -5,51 -8,36 -7,33 -13,25 -10,23 -13,18 -13,12 -12,8 -13,3 -23,-3 -25,-5 -23,-10 -21,-13 -15,-15 -10,-18 -2,-18 7,-20 5,-15 5,-16 v -17 l -2,-21 -8,-15 -13,-15 -20,-10 z"
   id="path108"
   inkscape:connector-curvature="0"
   style="fill:#19e50c;stroke:none" />
         <path
   d="m 10339,15857 -44,15 -40,23 -31,26 -25,30 -18,28 -5,26 2,20 16,10 h 23 l 12,-15 8,-23 8,-28 10,-33 15,-31 28,-27 z"
   id="path110"
   inkscape:connector-curvature="0"
   style="fill:#19e50c;stroke:none" />
         <path
   d="m 10293,15997 13,-20 22,-13 26,-5 25,2 23,11 13,20 5,28 -13,38 -5,-23 -10,-18 -15,-15 -18,-10 -20,-3 -18,-2 -15,2 z"
   id="path112"
   inkscape:connector-curvature="0"
   style="fill:#19e50c;stroke:none" />
         <path
   d="m 10328,16094 -2,25 7,23 18,13 31,-3 18,-8 15,-10 15,-12 10,-13 10,-13 11,-13 7,-10 8,-10 10,-20 v -21 l -13,-10 h -28 l -5,-5 3,-7 7,-11 21,-12 15,-5 15,-8 18,-5 23,-5 23,-5 h 25 28 l 31,5 30,7 28,13 23,15 20,18 18,20 15,21 13,23 10,20 18,48 8,54 -8,53 -30,48 -26,23 -30,31 -36,35 -33,41 -30,51 -23,58 -13,66 2,79 -43,-43 -48,-33 -48,-28 -49,-23 -48,-18 -46,-12 -43,-13 -41,-10 -38,-13 -38,-18 -33,-23 -28,-28 -20,-30 -10,-36 2,-40 18,-44 25,-45 26,-38 20,-36 21,-28 20,-25 20,-18 21,-15 20,-13 20,-8 21,-5 h 15 l 10,5 8,8 2,10 -2,15 z"
   id="path114"
   inkscape:connector-curvature="0"
   style="fill:#19e50c;stroke:none" />
         <path
   d="m 10509,15641 v -28 l 8,-33 15,-38 25,-38 33,-36 43,-30 54,-26 68,-15 13,10 -40,16 -39,12 -35,18 -31,23 -30,28 -28,36 -28,45 z"
   id="path116"
   inkscape:connector-curvature="0"
   style="fill:#006600;stroke:none" />
         <path
   d="m 10003,15570 5,-46 10,-48 16,-46 20,-48 20,-46 26,-46 25,-43 25,-43 -63,53 -48,54 -31,51 -15,48 -8,43 v 43 l 8,38 z"
   id="path118"
   inkscape:connector-curvature="0"
   style="fill:#006600;stroke:none" />
         <path
   d="m 10463,16155 -5,33 5,22 18,21 28,18 15,10 13,18 10,22 5,26 v 33 l -8,35 -17,41 -28,46 12,-54 11,-61 -3,-55 -15,-36 -15,-10 -16,-10 -17,-13 -11,-13 -7,-12 -3,-18 10,-18 z"
   id="path120"
   inkscape:connector-curvature="0"
   style="fill:#006600;stroke:none" />
         <path
   d="m 9970,15941 v -30 l 3,-33 7,-34 13,-35 15,-33 20,-31 26,-28 30,-22 -17,38 -13,43 -10,43 v 48 l 10,-7 10,-8 13,-5 12,-5 13,-5 15,-3 13,-2 h 15 l -30,33 -23,35 -13,36 -2,41 h 18 l 15,2 12,3 13,5 10,10 11,13 5,15 5,20 -18,-5 -15,-2 -18,-3 -18,3 h -15 l -15,5 -11,5 -10,5 82,33 63,43 46,51 30,53 21,51 7,43 3,28 -5,13 -10,-13 -8,-38 -13,-43 -23,-36 13,54 8,56 -3,45 -18,23 -12,-2 -8,-10 -2,-18 -6,-23 -5,-25 -10,-28 -18,-28 -28,-28 -33,-26 -33,-23 -30,-17 -31,-13 -25,-5 -25,2 -21,13 -18,23 49,51 40,71 26,86 15,89 v 87 l -15,76 -36,58 -53,31 23,-48 12,-59 3,-51 -13,-23 -12,21 -3,48 -13,51 -35,25 -16,-23 8,-55 15,-77 8,-71 -5,-69 -13,-68 -18,-61 -30,-46 -3,18 -2,20 -5,18 -5,20 -11,18 -15,18 -18,18 -20,12 13,-73 -3,-66 -13,-54 -20,-30 -18,35 -12,49 -8,50 -8,54 -7,51 -10,40 -18,31 -26,15 -15,-5 -10,-25 v -41 l 13,-64 -28,16 -21,30 -12,41 -11,46 -7,43 -10,38 -13,25 -20,10 -31,-30 -2,-74 12,-89 23,-73 28,-51 31,-41 33,-30 30,-26 28,-20 18,-15 10,-13 -5,-13 -10,-5 -15,-2 h -23 l -26,5 -25,5 -31,10 -28,13 -28,17 -27,21 -26,23 -25,20 -26,18 -23,15 -20,10 -18,3 -15,-8 -8,-15 3,-15 8,-16 17,-20 26,-18 30,-20 38,-20 46,-23 -7,-8 -13,-5 -13,-3 -15,3 -15,3 -16,5 -17,5 -16,7 -15,8 -15,8 -15,5 -13,5 -10,2 h -11 -5 l -5,-5 v -10 l 10,-20 21,-26 30,-25 41,-28 53,-23 69,-18 81,-10 3,-10 v -13 l -5,-13 -10,-15 -16,-15 -17,-13 -26,-12 -28,-13 -43,-13 -36,-7 h -33 -25 l -20,2 h -16 l -12,-5 -8,-10 v -18 l 8,-18 17,-12 28,-13 33,-3 41,3 48,10 51,23 -5,-28 -13,-23 -20,-18 -28,-12 -33,-8 -35,-5 -39,-3 -35,3 -33,2 -28,-2 -23,-5 -13,-8 -5,-10 3,-15 12,-16 23,-17 33,-13 36,-5 43,5 41,13 40,15 41,20 33,23 26,23 22,25 21,26 20,25 20,26 18,20 16,15 12,10 10,3 6,-5 v -10 l -6,-13 -10,-15 -12,-18 -13,-18 -15,-15 -16,-15 16,-5 h 20 l 23,7 28,10 30,18 33,23 38,31 41,38 -8,-31 -7,-38 -13,-41 -7,-43 -8,-41 -3,-33 5,-22 13,-13 15,8 11,22 7,38 10,49 13,48 20,48 26,44 z"
   id="path122"
   inkscape:connector-curvature="0"
   style="fill:#77ea38;stroke:none" />
         <path
   d="m 9688,15931 h 28 l 25,2 26,11 25,12 20,16 21,20 17,25 16,26 15,-13 13,-8 12,-7 16,-8 15,-5 15,-2 18,-3 h 20 l -20,13 -18,17 -20,18 -15,18 -13,18 -10,20 -8,18 -2,15 -16,-18 -23,-15 -22,-10 -31,-8 -30,-5 -36,-2 -41,2 -40,8 22,-13 26,-10 23,-8 25,-5 23,-2 25,2 21,3 23,5 -13,-20 -13,-18 -15,-20 -18,-18 -20,-16 -20,-15 -23,-12 z"
   id="path124"
   inkscape:connector-curvature="0"
   style="fill:#00b200;stroke:none" />
         <path
   d="m 11302,14658 20,45 21,46 18,48 12,54 8,61 2,71 -5,86 -15,105 -43,-84 -31,-66 -17,-59 -8,-51 2,-51 8,-55 13,-67 z"
   id="path126"
   inkscape:connector-curvature="0"
   style="fill:#b2f259;stroke:none" />
         <path
   d="m 11589,14848 -2,54 -10,61 -16,66 -20,68 -25,69 -28,61 -28,56 -31,40 v -58 -64 l 8,-63 10,-64 20,-63 28,-59 41,-55 z"
   id="path128"
   inkscape:connector-curvature="0"
   style="fill:#b2f259;stroke:none" />
         <path
   d="m 11147,14897 33,35 38,43 38,49 38,56 36,60 31,67 25,71 15,76 -46,-38 -45,-43 -44,-54 -40,-56 -33,-63 -26,-66 -15,-69 z"
   id="path130"
   inkscape:connector-curvature="0"
   style="fill:#b2f259;stroke:none" />
         <path
   d="m 11000,15102 48,18 48,20 46,26 48,35 46,51 48,64 46,84 51,106 -59,-43 -61,-45 -58,-49 -53,-48 -51,-51 -44,-56 -33,-53 z"
   id="path132"
   inkscape:connector-curvature="0"
   style="fill:#b2f259;stroke:none" />
         <path
   d="m 11010,15400 20,5 25,2 23,5 26,6 28,5 28,7 28,10 28,11 30,12 28,13 28,18 28,20 25,23 26,25 25,31 23,33 -25,-5 -26,-5 -25,-5 -26,-8 -25,-10 -25,-10 -26,-13 -25,-13 -26,-15 -25,-15 -28,-18 -25,-20 -28,-21 -28,-20 -28,-23 z"
   id="path134"
   inkscape:connector-curvature="0"
   style="fill:#b2f259;stroke:none" />
         <path
   d="m 10954,15555 28,-3 h 28 28 l 28,3 30,5 31,5 30,8 31,10 30,12 31,16 30,17 31,21 28,25 30,26 31,30 28,36 -33,-5 -33,-8 -34,-8 -33,-7 -33,-10 -30,-13 -33,-13 -31,-13 -30,-15 -31,-15 -28,-15 -28,-16 -25,-17 -25,-18 -23,-20 z"
   id="path136"
   inkscape:connector-curvature="0"
   style="fill:#b2f259;stroke:none" />
         <path
   d="m 10966,15824 23,-7 26,-8 23,-8 23,-5 25,-2 23,-3 h 25 26 25 l 28,5 28,3 28,7 30,8 34,8 30,10 36,12 -18,11 -23,7 -25,8 -28,8 -31,2 -30,3 -33,2 h -31 l -33,-2 -33,-3 -31,-5 -28,-8 -28,-7 -22,-10 -21,-13 z"
   id="path138"
   inkscape:connector-curvature="0"
   style="fill:#b2f259;stroke:none" />
         <path
   d="m 11081,16233 15,-58 26,-59 30,-55 43,-54 49,-46 55,-43 62,-30 68,-23 -30,56 -36,56 -43,56 -46,53 -48,48 -49,43 -48,33 z"
   id="path140"
   inkscape:connector-curvature="0"
   style="fill:#b2f259;stroke:none" />
         <path
   d="m 11617,15331 3,-28 2,-30 3,-31 2,-28 3,-23 v -23 -20 l 3,-23 -26,33 -28,41 -30,48 -26,49 -25,50 -21,49 -15,45 -5,36 20,-18 23,-18 23,-20 23,-20 20,-21 21,-17 15,-18 z"
   id="path142"
   inkscape:connector-curvature="0"
   style="fill:#b2f259;stroke:none" />
         <path
   d="m 11599,15451 -5,33 -7,30 -5,33 -8,31 -18,10 -18,10 -17,13 -18,10 5,-18 8,-23 7,-23 10,-23 13,-25 15,-23 18,-20 z"
   id="path144"
   inkscape:connector-curvature="0"
   style="fill:#b2f259;stroke:none" />
         <path
   d="m 11554,15664 -5,20 -5,21 -6,20 -5,20 -10,3 h -7 -8 -3 l 13,-20 10,-23 13,-21 z"
   id="path146"
   inkscape:connector-curvature="0"
   style="fill:#b2f259;stroke:none" />
         <path
   d="m 11261,16317 21,-30 20,-33 20,-31 21,-33 18,-33 20,-35 15,-34 18,-35 13,-28 12,-28 10,-25 13,-28 -40,33 -44,38 -40,46 -36,50 -36,54 -25,58 -20,61 -13,61 15,-2 13,-8 15,-8 z"
   id="path148"
   inkscape:connector-curvature="0"
   style="fill:#b2f259;stroke:none" />
         <path
   d="m 9502,15196 h 28 l 31,3 33,2 33,3 33,5 35,5 39,8 35,7 36,11 35,12 36,13 36,18 33,18 30,20 31,25 28,26 -44,2 h -43 l -38,-2 -41,-3 -35,-7 -36,-8 -35,-10 -34,-10 -30,-13 -33,-15 -28,-16 -28,-17 -28,-18 -28,-18 -25,-20 z"
   id="path150"
   inkscape:connector-curvature="0"
   style="fill:#b2f259;stroke:none" />
         <path
   d="m 9787,14904 25,-5 28,-5 28,-5 28,-5 31,-5 h 30 l 31,-3 h 33 l 30,3 33,5 33,7 31,11 33,12 33,16 33,17 31,23 -21,8 -23,5 -25,2 h -28 l -31,-2 -33,-3 -33,-2 -33,-8 -35,-5 -36,-7 -35,-8 -33,-10 -36,-8 -31,-10 -30,-8 z"
   id="path152"
   inkscape:connector-curvature="0"
   style="fill:#b2f259;stroke:none" />
         <path
   d="m 9639,15008 34,-12 33,-8 33,-5 35,-3 h 36 l 33,3 35,5 34,5 30,5 31,8 27,7 26,11 23,7 20,8 15,5 13,5 -25,5 -28,5 -28,3 -31,2 h -30 -28 l -31,-2 -30,-3 -31,-2 -30,-5 -31,-6 -28,-5 -28,-7 -28,-8 -25,-7 z"
   id="path154"
   inkscape:connector-curvature="0"
   style="fill:#b2f259;stroke:none" />
         <path
   d="m 9545,15120 33,-5 34,-2 33,-6 h 33 33 33 l 33,3 35,3 33,7 33,8 31,7 33,13 31,15 30,16 31,20 27,20 -27,3 -31,2 -30,3 h -31 -30 l -31,-3 -33,-2 -31,-3 -33,-7 -33,-5 -33,-11 -33,-10 -35,-12 -33,-16 -36,-18 z"
   id="path156"
   inkscape:connector-curvature="0"
   style="fill:#b2f259;stroke:none" />
         <path
   d="m 9815,14797 25,-10 31,-12 30,-11 33,-10 33,-10 36,-8 36,-7 35,-5 36,-3 33,-2 h 35 l 31,2 30,5 31,8 25,10 23,15 -23,13 -25,10 -28,10 -31,8 -33,8 -33,2 -35,5 -36,3 h -35 -36 -36 l -33,-3 -33,-2 -30,-5 -31,-6 z"
   id="path158"
   inkscape:connector-curvature="0"
   style="fill:#b2f259;stroke:none" />
         <path
   d="m 9848,14747 20,-33 21,-31 20,-33 23,-28 25,-23 28,-20 28,-13 33,-5 36,-2 33,-3 h 35 l 36,3 38,5 36,10 35,18 38,22 -38,21 -40,18 -44,10 -45,7 -51,3 -56,-3 -64,-5 -66,-10 -12,13 -11,12 -12,16 -10,12 -11,11 -10,12 -7,8 z"
   id="path160"
   inkscape:connector-curvature="0"
   style="fill:#b2f259;stroke:none" />
         <path
   d="m 9800,14752 -18,-41 -18,-48 -13,-56 -5,-59 -2,-58 10,-53 18,-51 28,-41 15,41 13,45 10,51 7,56 v 56 l -7,56 -15,53 z"
   id="path162"
   inkscape:connector-curvature="0"
   style="fill:#b2f259;stroke:none" />
         <path
   d="m 9578,14396 26,41 25,45 28,51 26,56 23,56 15,56 5,58 -3,56 -33,-38 -30,-46 -31,-53 -23,-56 -20,-58 -10,-59 -5,-56 z"
   id="path164"
   inkscape:connector-curvature="0"
   style="fill:#b2f259;stroke:none" />
         <path
   d="m 9418,14536 21,15 20,18 20,25 21,25 20,28 20,26 18,23 15,18 31,40 20,61 8,74 -5,74 -26,-36 -28,-41 -33,-48 -30,-51 -31,-58 -28,-61 -20,-64 z"
   id="path166"
   inkscape:connector-curvature="0"
   style="fill:#b2f259;stroke:none" />
         <path
   d="m 9421,15323 43,11 41,12 38,16 38,15 38,15 33,20 33,21 33,20 28,26 28,25 26,28 23,30 20,33 18,36 17,38 13,41 -28,-10 -30,-13 -31,-15 -33,-16 -35,-20 -33,-23 -36,-23 -33,-25 -33,-25 -33,-31 -31,-28 -28,-30 -28,-31 -23,-33 -20,-30 z"
   id="path168"
   inkscape:connector-curvature="0"
   style="fill:#b2f259;stroke:none" />
         <path
   d="m 9373,15435 56,28 53,36 53,46 49,58 45,74 41,91 38,115 31,137 -66,-56 -61,-64 -56,-73 -49,-79 -45,-81 -36,-82 -31,-79 z"
   id="path170"
   inkscape:connector-curvature="0"
   style="fill:#b2f259;stroke:none" />
         <path
   d="m 9276,15163 -3,-33 v -33 -33 -33 -25 -26 -22 l 3,-26 18,31 18,33 17,35 13,41 10,46 5,53 v 66 l -10,76 -25,-38 -18,-38 -15,-36 z"
   id="path172"
   inkscape:connector-curvature="0"
   style="fill:#b2f259;stroke:none" />
         <path
   d="m 9312,14584 -6,38 -5,38 -5,38 -5,38 18,44 20,48 26,53 23,54 23,50 25,44 20,38 18,25 5,-61 -7,-68 -16,-74 -20,-74 -28,-74 -31,-63 -27,-56 z"
   id="path174"
   inkscape:connector-curvature="0"
   style="fill:#b2f259;stroke:none" />
         <path
   d="m 10593,16139 -10,-7 -3,-16 8,-12 17,-5 6,-16 7,-15 8,-10 5,-5 8,5 7,13 8,15 2,10 v 10 l 3,13 5,10 5,3 5,-3 5,-10 3,-10 -3,-13 -15,-5 -3,-15 8,-8 18,10 h 5 l 5,-5 3,-5 v -5 l -8,-8 -5,-12 -3,-10 13,-8 h 18 l 5,8 -3,15 -5,15 v 0 3 l -2,5 v 5 l 10,-10 13,-8 h 10 l 10,8 2,10 -5,10 -12,8 -16,2 -5,5 v 3 l 5,2 6,3 10,2 h 10 l 7,5 v 11 l -10,12 -12,5 -13,-7 -8,-15 -12,7 -13,13 -10,13 -8,12 3,8 2,10 v 13 l -5,15 8,-18 2,-15 5,-8 10,-2 11,5 5,15 5,20 10,21 10,-13 8,-13 10,-15 8,-13 -8,-5 -3,-7 3,-5 10,-3 13,3 5,7 v 10 l -10,8 -16,20 13,-7 8,-8 7,-5 6,-8 5,-5 5,-2 5,2 5,5 5,8 v 5 l -3,3 -7,2 5,10 2,5 v 8 l -2,3 h -5 -8 l -2,-5 -3,-6 -20,18 -23,23 -20,15 -11,5 -5,-7 -7,-13 -5,-15 -8,-8 -5,21 -13,17 -15,13 -20,8 -6,28 -12,28 -16,28 -17,25 v 28 l -5,25 -5,21 -8,17 2,13 -2,15 -8,21 -15,18 v 10 l -3,7 -5,8 -7,3 -10,-3 -3,-8 v -10 l 8,-7 7,-8 8,-10 2,-8 6,-5 -11,5 -10,5 -5,3 h -2 v 7 l -5,8 -8,3 h -10 l -8,-6 -2,-10 7,-7 h 10 l 21,-18 -16,5 h -15 -13 -5 l -5,8 -10,-3 -10,-8 -3,-10 6,-7 7,-5 8,-3 7,5 16,3 h 20 l 15,-3 13,-2 v -23 l 2,-23 3,-23 13,-25 -5,-31 2,-30 8,-31 18,-23 -11,-18 -2,-23 v -20 l 2,-18 -12,-12 -10,-16 -11,-15 -7,-18 h -8 l -5,3 -5,5 h -3 l -2,8 -8,2 h -7 l -8,-7 -3,-11 6,-10 7,-5 h 10 26 l -5,-5 -5,-8 -3,-7 -2,-3 -11,3 -7,-5 -5,-8 2,-8 8,-7 10,-3 8,3 2,10 18,18 2,-15 -5,-11 v -10 l 5,-10 11,-2 10,2 7,8 v 10 l -7,10 -3,8 v 7 l -2,10 v 13 l 2,13 5,10 8,8 5,7 3,-7 v -8 l 2,-5 z"
   id="path176"
   inkscape:connector-curvature="0"
   style="fill:#e50019;stroke:none" />
         <path
   d="m 10628,16137 h 5 l 6,-3 2,-5 v -5 -5 l -2,-5 -6,-3 -5,-2 -5,2 -5,3 -2,5 -3,5 3,5 2,5 5,3 z"
   id="path178"
   inkscape:connector-curvature="0"
   style="fill:#660000;stroke:none" />
        </g>
       </g>
      </g>
     </g>
    </g>
   </g>
  </g>
 </g>
</svg>