<?xml version="1.0" encoding="UTF-8" standalone="no"?>
<svg
   xmlns:ooo="http://xml.openoffice.org/svg/export"
   xmlns:dc="http://purl.org/dc/elements/1.1/"
   xmlns:cc="http://creativecommons.org/ns#"
   xmlns:rdf="http://www.w3.org/1999/02/22-rdf-syntax-ns#"
   xmlns:svg="http://www.w3.org/2000/svg"
   xmlns="http://www.w3.org/2000/svg"
   xmlns:sodipodi="http://sodipodi.sourceforge.net/DTD/sodipodi-0.dtd"
   xmlns:inkscape="http://www.inkscape.org/namespaces/inkscape"
   version="1.2"
   width="23.6mm"
   height="35.259998mm"
   viewBox="0 0 2360 3525.9998"
   preserveAspectRatio="xMidYMid"
   xml:space="preserve"
   id="svg135"
   sodipodi:docname="scn_snow.svg"
   style="fill-rule:evenodd;stroke-width:28.22200012;stroke-linejoin:round"
   inkscape:version="0.92.5 (2060ec1f9f, 2020-04-08)"><metadata
   id="metadata139"><rdf:RDF><cc:Work
       rdf:about=""><dc:format>image/svg+xml</dc:format><dc:type
         rdf:resource="http://purl.org/dc/dcmitype/StillImage" /></cc:Work></rdf:RDF></metadata><sodipodi:namedview
   pagecolor="#ffffff"
   bordercolor="#666666"
   borderopacity="1"
   objecttolerance="10"
   gridtolerance="10"
   guidetolerance="10"
   inkscape:pageopacity="0"
   inkscape:pageshadow="2"
   inkscape:window-width="664"
   inkscape:window-height="487"
   id="namedview137"
   showgrid="false"
   inkscape:zoom="0.2102413"
   inkscape:cx="44.598426"
   inkscape:cy="66.633069"
   inkscape:window-x="0"
   inkscape:window-y="0"
   inkscape:window-maximized="0"
   inkscape:current-layer="svg135" />
 <defs
   class="ClipPathGroup"
   id="defs8">
  <clipPath
   id="presentation_clip_path"
   clipPathUnits="userSpaceOnUse">
   <rect
   x="0"
   y="0"
   width="21000"
   height="29700"
   id="rect2" />
  </clipPath>
  <clipPath
   id="presentation_clip_path_shrink"
   clipPathUnits="userSpaceOnUse">
   <rect
   x="21"
   y="29"
   width="20958"
   height="29641"
   id="rect5" />
  </clipPath>
 </defs>
 <defs
   class="TextShapeIndex"
   id="defs12">
  <g
   ooo:slide="id1"
   ooo:id-list="id3"
   id="g10" />
 </defs>
 <defs
   class="EmbeddedBulletChars"
   id="defs44">
  <g
   id="bullet-char-template-57356"
   transform="matrix(4.8828125e-4,0,0,-4.8828125e-4,0,0)">
   <path
   d="M 580,1141 1163,571 580,0 -4,571 Z"
   id="path14"
   inkscape:connector-curvature="0" />
  </g>
  <g
   id="bullet-char-template-57354"
   transform="matrix(4.8828125e-4,0,0,-4.8828125e-4,0,0)">
   <path
   d="M 8,1128 H 1137 V 0 H 8 Z"
   id="path17"
   inkscape:connector-curvature="0" />
  </g>
  <g
   id="bullet-char-template-10146"
   transform="matrix(4.8828125e-4,0,0,-4.8828125e-4,0,0)">
   <path
   d="M 174,0 602,739 174,1481 1456,739 Z M 1358,739 309,1346 659,739 Z"
   id="path20"
   inkscape:connector-curvature="0" />
  </g>
  <g
   id="bullet-char-template-10132"
   transform="matrix(4.8828125e-4,0,0,-4.8828125e-4,0,0)">
   <path
   d="M 2015,739 1276,0 H 717 l 543,543 H 174 v 393 h 1086 l -543,545 h 557 z"
   id="path23"
   inkscape:connector-curvature="0" />
  </g>
  <g
   id="bullet-char-template-10007"
   transform="matrix(4.8828125e-4,0,0,-4.8828125e-4,0,0)">
   <path
   d="m 0,-2 c -7,16 -16,29 -25,39 l 381,530 c -94,256 -141,385 -141,387 0,25 13,38 40,38 9,0 21,-2 34,-5 21,4 42,12 65,25 l 27,-13 111,-251 280,301 64,-25 24,25 c 21,-10 41,-24 62,-43 C 886,937 835,863 770,784 769,783 710,716 594,584 L 774,223 c 0,-27 -21,-55 -63,-84 l 16,-20 C 717,90 699,76 672,76 641,76 570,178 457,381 L 164,-76 c -22,-34 -53,-51 -92,-51 -42,0 -63,17 -64,51 -7,9 -10,24 -10,44 0,9 1,19 2,30 z"
   id="path26"
   inkscape:connector-curvature="0" />
  </g>
  <g
   id="bullet-char-template-10004"
   transform="matrix(4.8828125e-4,0,0,-4.8828125e-4,0,0)">
   <path
   d="M 285,-33 C 182,-33 111,30 74,156 52,228 41,333 41,471 c 0,78 14,145 41,201 34,71 87,106 158,106 53,0 88,-31 106,-94 l 23,-176 c 8,-64 28,-97 59,-98 l 735,706 c 11,11 33,17 66,17 42,0 63,-15 63,-46 V 965 c 0,-36 -10,-64 -30,-84 L 442,47 C 390,-6 338,-33 285,-33 Z"
   id="path29"
   inkscape:connector-curvature="0" />
  </g>
  <g
   id="bullet-char-template-9679"
   transform="matrix(4.8828125e-4,0,0,-4.8828125e-4,0,0)">
   <path
   d="M 813,0 C 632,0 489,54 383,161 276,268 223,411 223,592 c 0,181 53,324 160,431 106,107 249,161 430,161 179,0 323,-54 432,-161 108,-107 162,-251 162,-431 0,-180 -54,-324 -162,-431 C 1136,54 992,0 813,0 Z"
   id="path32"
   inkscape:connector-curvature="0" />
  </g>
  <g
   id="bullet-char-template-8226"
   transform="matrix(4.8828125e-4,0,0,-4.8828125e-4,0,0)">
   <path
   d="m 346,457 c -73,0 -137,26 -191,78 -54,51 -81,114 -81,188 0,73 27,136 81,188 54,52 118,78 191,78 73,0 134,-26 185,-79 51,-51 77,-114 77,-187 0,-75 -25,-137 -76,-188 -50,-52 -112,-78 -186,-78 z"
   id="path35"
   inkscape:connector-curvature="0" />
  </g>
  <g
   id="bullet-char-template-8211"
   transform="matrix(4.8828125e-4,0,0,-4.8828125e-4,0,0)">
   <path
   d="M -4,459 H 1135 V 606 H -4 Z"
   id="path38"
   inkscape:connector-curvature="0" />
  </g>
  <g
   id="bullet-char-template-61548"
   transform="matrix(4.8828125e-4,0,0,-4.8828125e-4,0,0)">
   <path
   d="m 173,740 c 0,163 58,303 173,419 116,115 255,173 419,173 163,0 302,-58 418,-173 116,-116 174,-256 174,-419 0,-163 -58,-303 -174,-418 C 1067,206 928,148 765,148 601,148 462,206 346,322 231,437 173,577 173,740 Z"
   id="path41"
   inkscape:connector-curvature="0" />
  </g>
 </defs>
 <g
   id="g49"
   transform="translate(-9320,-13087)">
  <g
   id="id2"
   class="Master_Slide">
   <g
   id="bg-id2"
   class="Background" />
   <g
   id="bo-id2"
   class="BackgroundObjects" />
  </g>
 </g>
 <g
   class="SlideGroup"
   id="g133"
   transform="translate(-9320,-13087)">
  <g
   id="g131">
   <g
   id="container-id1">
    <g
   id="id1"
   class="Slide"
   clip-path="url(#presentation_clip_path)">
     <g
   class="Page"
   id="g127">
      <g
   class="Graphic"
   id="g125">
       <g
   id="id3">
        <rect
   class="BoundingBox"
   x="9320"
   y="13087"
   width="2360"
   height="3526"
   id="rect51"
   style="fill:none;stroke:none" />
        <defs
   id="defs56">
         <clipPath
   id="clip_path_1"
   clipPathUnits="userSpaceOnUse">
          <path
   d="m 9320,13087 h 2359 v 3525 H 9320 Z"
   id="path53"
   inkscape:connector-curvature="0" />
         </clipPath>
        </defs>
        <g
   clip-path="url(#clip_path_1)"
   id="g122">
         <path
   d="m 9356,14424 35,8 41,10 43,13 48,12 49,18 51,15 53,21 53,20 54,23 53,25 51,26 54,30 48,31 48,30 46,36 41,36 7,-51 13,-59 13,-58 15,-64 18,-66 23,-69 23,-68 25,-71 30,-72 34,-68 35,-69 38,-68 44,-64 45,-64 49,-58 53,-53 v 30 l 3,31 5,30 10,33 13,33 22,36 28,33 39,35 20,-30 18,-33 15,-31 10,-33 18,8 15,8 13,7 5,3 8,-18 7,-20 8,-23 13,-21 12,-17 13,-18 15,-13 18,-10 v 18 l 3,20 5,18 7,18 13,17 13,13 20,13 23,5 43,-56 31,-69 20,-73 13,-79 5,-81 -3,-79 -7,-74 -13,-66 -28,-23 -28,-23 -30,-23 -31,-20 -30,-18 -31,-18 -31,-17 -30,-16 -31,-12 -33,-13 -33,-10 -33,-10 -33,-8 -33,-8 -33,-5 -33,-5 -10,-2 h -10 l -13,-3 h -10 -10 -13 -10 -10 l -61,3 -62,7 -61,10 -58,18 -59,20 -58,23 -56,28 -53,33 -54,38 -51,39 -51,45 -48,46 -46,51 -45,56 -44,56 -40,61 -51,84 -48,91 -46,94 -38,99 -39,105 -30,106 -26,110 z"
   id="path58"
   inkscape:connector-curvature="0"
   style="fill:#8ce5f2;stroke:none" />
         <path
   d="m 10986,14358 38,-15 38,-13 38,-15 38,-18 38,-18 36,-20 36,-20 33,-23 33,-26 33,-28 30,-30 28,-33 28,-38 26,-41 25,-43 23,-49 -15,-35 -15,-38 -18,-36 -18,-33 -18,-35 -18,-34 -17,-30 -21,-33 -30,-48 -33,-46 -33,-46 -33,-43 -36,-41 -38,-38 -36,-36 -38,-35 10,53 8,61 2,64 v 66 l -2,46 -5,48 -10,46 -11,43 -15,43 -18,38 -23,36 -25,33 -23,-8 -20,-10 -15,-15 -11,-15 -7,-18 -5,-20 -3,-18 v -18 l -18,10 -15,13 -13,18 -12,17 -13,21 -8,23 -7,20 -8,18 -5,-3 -13,-7 -15,-8 -18,-8 -10,33 -15,31 -18,33 -20,30 -39,-35 -28,-33 -22,-36 -13,-33 -10,-33 -5,-30 -3,-31 v -30 l -53,53 -49,58 -45,64 -44,64 -38,68 -35,69 -34,68 -30,72 -25,71 -23,68 -23,69 -18,66 -15,64 -13,58 -13,59 -7,51 10,10 10,10 13,10 10,13 10,10 10,10 10,13 11,10 17,20 18,21 18,23 15,25 31,-76 33,-66 35,-61 39,-56 40,-49 43,-40 44,-38 45,-34 49,-30 48,-25 48,-26 51,-20 51,-21 51,-17 51,-18 z"
   id="path60"
   inkscape:connector-curvature="0"
   style="fill:#0099bf;stroke:none" />
         <path
   d="m 11367,13654 21,33 17,30 18,34 18,35 18,33 18,36 15,38 15,35 -23,49 -25,43 -26,41 -28,38 -28,33 -30,30 -33,28 -33,26 -33,23 -36,20 -36,20 -38,18 -38,18 -38,15 -38,13 -38,15 20,-33 18,-33 23,-36 23,-33 25,-33 31,-30 33,-31 40,-30 -12,-5 -11,-8 -7,-10 -8,-8 31,-20 28,-20 25,-26 23,-28 18,-30 15,-31 13,-35 7,-39 11,-63 10,-43 10,-36 z"
   id="path62"
   inkscape:connector-curvature="0"
   style="fill:#dbf9e0;stroke:none" />
         <path
   d="m 10932,13850 11,15 15,15 20,10 23,8 25,-33 23,-36 18,-38 15,-43 11,-43 10,-46 5,-48 2,-46 v 107 l 3,122 13,117 35,84 -10,17 -18,13 -18,8 -12,-3 -10,-10 -11,-10 -12,-10 -11,-11 -12,11 -15,10 -13,7 -13,8 -13,8 -10,5 -10,5 -8,7 -22,-45 -16,-51 -2,-54 z"
   id="path64"
   inkscape:connector-curvature="0"
   style="fill:#dbf9e0;stroke:none" />
         <path
   d="m 10589,13756 v 30 l 3,31 5,30 10,33 13,33 22,36 28,33 39,35 20,-30 18,-33 15,-31 10,-33 18,8 15,8 13,7 5,3 v 20 l -3,26 -5,27 -5,26 -10,23 -13,18 -20,12 -23,3 23,58 18,56 5,64 -8,81 -10,-5 -13,-5 -12,-8 -13,-7 -13,-8 -12,-8 -11,-7 -7,-8 -5,-33 -5,-28 -8,-23 -10,-20 -13,-18 -18,-18 -23,-17 -28,-21 8,-79 v -96 l -3,-94 z"
   id="path66"
   inkscape:connector-curvature="0"
   style="fill:#dbf9e0;stroke:none" />
         <path
   d="m 10208,14864 -11,-10 -10,-13 -10,-10 -10,-10 -10,-13 -13,-10 -10,-10 -10,-10 25,-44 31,-53 28,-56 28,-58 27,-56 23,-51 18,-43 13,-31 8,18 15,10 15,3 23,-11 23,-15 23,-28 25,-38 26,-48 33,30 35,23 36,18 38,13 36,10 33,13 28,12 23,18 -11,15 -12,10 -18,8 -23,5 -23,8 -25,7 -28,11 -28,17 -33,23 -36,26 -33,25 -31,18 -22,10 -13,-5 2,-20 18,-41 -46,43 -35,48 -28,54 -23,51 -20,48 -18,41 -21,30 z"
   id="path68"
   inkscape:connector-curvature="0"
   style="fill:#dbf9e0;stroke:none" />
         <path
   d="m 10208,14864 -11,-10 -10,-13 -10,-10 -10,-10 -10,-13 -13,-10 -10,-10 -10,-10 -41,-36 -46,-36 -48,-30 -48,-31 -54,-30 -51,-26 -53,-25 -54,-23 -53,-20 -53,-21 -51,-15 -49,-18 -48,-12 -43,-13 -41,-10 -35,-8 -5,38 -6,41 -5,41 -5,40 -7,66 -3,67 -5,66 v 68 l 5,160 15,156 23,152 31,147 35,125 39,117 48,114 51,107 56,102 61,94 66,86 71,79 74,74 79,63 81,56 84,46 86,36 92,25 91,18 95,5 h 38 l 38,-3 38,-5 36,-7 38,-8 35,-10 38,-10 36,-13 36,-15 35,-18 33,-18 36,-18 33,-22 33,-23 33,-23 33,-26 51,-45 48,-49 49,-51 45,-55 44,-59 43,-63 38,-64 38,-69 33,-66 31,-66 28,-69 28,-73 23,-71 23,-77 17,-76 18,-79 23,-124 15,-127 10,-128 3,-132 -3,-112 -7,-111 -10,-107 -16,-107 -5,-30 -7,-31 -5,-31 -8,-33 -5,-28 -8,-30 -7,-28 -8,-28 -3,-10 -2,-8 -3,-10 -2,-8 -18,-55 -18,-54 -18,-51 -20,-51 -23,49 -25,43 -26,41 -28,38 -28,33 -30,30 -33,28 -33,26 -33,23 -36,20 -36,20 -38,18 -38,18 -38,15 -38,13 -38,15 -51,18 -51,18 -51,17 -51,21 -51,20 -48,26 -48,25 -49,30 -45,34 -44,38 -43,40 -40,49 -39,56 -35,61 -33,66 -31,76 -15,-25 -18,-23 -18,-21 z"
   id="path70"
   inkscape:connector-curvature="0"
   style="fill:#ffffff;stroke:none" />
         <path
   d="m 11072,16394 -33,26 -33,23 -33,23 -33,22 -36,18 -33,18 -35,18 -36,15 -36,13 -38,10 -35,10 -38,8 -36,7 -38,5 -38,3 h -38 l -95,-5 -91,-18 -92,-25 -86,-36 -84,-46 -81,-56 -79,-63 -74,-74 -71,-79 -66,-86 -61,-94 -56,-102 -51,-107 -48,-114 -39,-117 -35,-125 33,-33 35,-25 39,-18 40,-10 43,-5 44,3 45,5 49,10 46,18 48,17 48,26 49,25 48,28 48,31 46,33 46,33 86,71 79,71 76,74 72,76 63,74 64,71 58,69 56,66 56,58 51,54 53,43 51,35 49,26 53,15 h 51 z"
   id="path72"
   inkscape:connector-curvature="0"
   style="fill:#7fccf2;stroke:none" />
         <path
   d="m 11080,14966 41,48 22,53 8,59 -5,61 -18,61 -30,63 -41,59 -48,56 -54,51 -61,43 -66,35 -66,23 -69,13 -68,-2 -69,-18 -64,-36 -15,-71 -18,-71 -17,-71 -21,-69 -23,-69 -28,-66 -30,-63 -36,-61 10,-33 16,-31 15,-33 20,-33 23,-33 26,-33 25,-31 28,-30 30,-31 31,-30 33,-26 33,-28 33,-22 36,-23 33,-18 33,-18 35,-15 39,-15 33,-13 35,-13 33,-13 31,-10 33,-10 30,-10 31,-13 30,-10 28,-13 28,-15 28,-15 28,-18 28,-20 26,-23 46,-41 45,-33 44,-30 43,-26 43,-18 43,-15 46,-10 46,-3 2,8 3,10 2,8 3,10 -23,18 -23,18 -25,17 -28,16 -31,15 -33,8 -35,5 -41,-3 -20,23 -23,23 -23,23 -28,20 -33,20 -38,18 -46,21 -54,17 39,5 40,3 41,-5 41,-10 38,-16 35,-20 33,-28 28,-33 31,5 h 30 l 34,-2 33,-8 30,-8 31,-7 25,-10 23,-11 8,33 5,31 7,31 5,30 -30,5 -28,10 -26,18 -22,20 -21,26 -20,25 -15,26 -16,23 -25,30 -31,23 -30,15 -33,13 -31,10 -23,13 -12,15 -3,20 -25,-2 -28,-3 -28,-2 -28,-3 h -31 l -28,3 h -30 l -28,5 -31,5 -28,10 -28,10 -25,13 -28,18 -23,20 -23,23 -23,28 -30,48 -18,46 -10,43 -3,36 8,40 15,28 18,23 20,10 21,6 h 28 l 28,-6 33,-10 33,-17 33,-28 33,-36 z"
   id="path74"
   inkscape:connector-curvature="0"
   style="fill:#7fccf2;stroke:none" />
         <path
   d="m 10744,14607 15,-7 18,-13 10,-8 5,-5 h 16 20 l 28,-2 28,-5 31,-8 30,-10 31,-18 25,-23 -5,25 -13,26 -23,28 -30,23 -36,15 -43,8 -51,-5 z"
   id="path76"
   inkscape:connector-curvature="0"
   style="fill:#ffffff;stroke:none" />
         <path
   d="m 11680,14851 -3,132 -10,128 -15,127 -23,124 -18,-112 -35,-91 -49,-71 -58,-51 -61,-31 -61,-15 -56,3 -46,17 -25,-45 -26,-26 -23,-12 -23,-3 -20,8 -20,10 -15,13 -13,10 -28,48 -33,36 -33,28 -33,17 -33,10 -28,6 h -28 l -21,-6 -20,-10 -18,-23 -15,-28 -8,-40 33,25 44,13 h 45 l 51,-15 49,-23 45,-38 38,-46 31,-59 15,6 15,2 h 21 l 20,-2 23,-8 26,-13 25,-18 30,-25 36,20 41,21 43,15 48,10 49,5 h 53 l 56,-7 z"
   id="path78"
   inkscape:connector-curvature="0"
   style="fill:#0099bf;stroke:none" />
         <path
   d="m 11629,15362 -18,79 -17,76 -23,77 -23,71 -28,73 -28,69 -31,66 -33,66 -30,38 -28,34 -28,33 -28,28 -28,25 -26,23 -25,23 -25,17 -26,16 -25,12 -26,13 -28,8 -28,7 -28,6 -28,2 h -30 l -33,-2 -33,-3 -36,-10 -36,-13 -38,-18 -35,-23 -36,-28 -35,-35 -36,-41 -33,-48 -33,-56 -28,-64 -26,-73 -25,-82 -20,-91 -16,-102 64,36 69,18 68,2 69,-13 66,-23 66,-35 61,-43 54,-51 48,-56 41,-59 30,-63 18,-61 5,-61 -8,-59 -22,-53 -41,-48 13,-10 15,-13 20,-10 20,-8 23,3 23,12 26,26 25,45 46,-17 56,-3 61,15 61,31 58,51 49,71 35,91 z"
   id="path80"
   inkscape:connector-curvature="0"
   style="fill:#c4eff7;stroke:none" />
         <path
   d="m 10197,15230 -38,-48 -38,-49 -41,-48 -40,-46 -44,-45 -43,-46 -46,-41 -45,-40 -13,-11 -10,-10 -13,-7 -13,-11 -10,-10 -13,-7 -10,-11 -12,-7 -11,-8 -12,-7 -10,-8 -13,-8 -10,-7 -13,-5 -10,-8 -13,-5 -10,-8 -13,-5 -10,-7 -13,-6 -20,-10 -20,-7 -18,-8 -21,-8 -17,-5 -21,-5 -18,-5 -20,-5 -15,-2 -15,-3 h -16 l -15,-3 h -15 -15 -13 l -15,3 15,46 18,45 23,46 28,38 38,36 51,25 63,16 79,2 18,28 20,26 20,22 23,18 26,18 23,13 23,10 22,8 23,7 23,5 26,8 20,10 20,10 18,15 15,21 13,25 28,13 28,8 25,7 23,8 26,7 20,8 23,13 z"
   id="path82"
   inkscape:connector-curvature="0"
   style="fill:#c4eff7;stroke:none" />
         <path
   d="m 10401,15545 -15,-30 -18,-31 -21,-33 -20,-35 -23,-36 -25,-36 -26,-35 -25,-36 -10,38 -13,44 -5,35 20,23 18,8 20,7 23,8 23,13 23,15 26,20 22,28 z"
   id="path84"
   inkscape:connector-curvature="0"
   style="fill:#c4eff7;stroke:none" />
         <path
   d="m 9656,13621 -16,23 -15,25 -15,23 -15,25 -13,28 -15,26 -13,28 -15,30 -10,18 -8,20 -8,18 -7,18 -8,18 -5,15 -8,15 -7,21 -10,30 -13,28 -10,31 -11,30 -7,31 -10,30 -11,33 -7,31 -5,18 -3,17 -5,18 -5,18 -8,33 -5,36 -7,33 -5,35 -5,38 -6,41 -5,41 -5,40 18,8 18,8 18,5 17,5 21,5 20,5 18,2 h 20 l 3,11 -5,12 -5,11 -3,2 20,5 18,5 21,5 17,5 21,8 18,8 20,7 20,10 13,6 10,7 13,5 10,8 13,5 10,8 13,5 10,7 13,8 10,8 12,7 11,8 12,7 10,11 13,7 10,10 13,11 13,7 10,10 13,11 2,-28 3,-33 7,-31 5,-20 13,2 15,8 16,10 20,13 10,5 13,2 10,3 h 13 l 13,-3 10,-5 10,-5 8,-7 10,-18 5,-21 -3,-20 -10,-23 -13,-20 -7,-18 -5,-15 -5,-15 -8,-8 v -10 l 5,-10 10,-5 13,2 13,3 10,7 10,13 13,-5 10,-13 5,-23 -5,-33 -10,-28 -8,-23 -13,-17 -17,-16 -18,-17 -10,-16 v -12 l 10,-13 12,-10 16,-3 12,5 13,8 v -15 l 5,-11 5,-12 5,-10 5,-23 -5,-38 -15,-44 -33,-40 -20,-21 -21,-20 -7,-18 5,-13 18,8 17,-2 16,-11 5,-12 v -18 -20 l -5,-21 -5,-20 -11,-23 -7,-31 -8,-30 -2,-23 5,-15 10,-8 13,3 15,18 18,-31 7,-38 -10,-48 -30,-54 -28,-48 -8,-33 5,-20 10,-11 10,-7 8,-10 3,-13 -5,-13 -13,-15 -15,-20 -16,-23 -12,-23 -16,-26 -12,-30 -16,-26 -10,-22 -7,12 -11,13 -10,15 -13,15 -15,18 -12,13 -16,15 -12,10 7,8 8,8 15,5 h 20 l -5,28 -7,18 -10,12 -18,13 -21,15 -17,15 -13,13 -5,13 v 10 l 5,8 7,5 16,-3 18,-5 15,-5 7,3 v 15 l -7,25 -13,26 -18,28 -23,23 -22,20 -13,18 -8,15 3,13 7,10 13,5 h 15 26 l 2,20 -5,15 -10,16 -20,12 -16,3 h -15 l -20,-5 -15,-8 -16,-12 -12,-13 -6,-18 3,-20 13,-3 12,-7 8,-8 5,-8 5,-10 3,-10 v -13 l -3,-15 -5,-15 -5,-16 -2,-17 2,-21 8,-2 7,-8 v -10 l -7,-13 -16,-15 -17,-18 -16,-23 z"
   id="path86"
   inkscape:connector-curvature="0"
   style="fill:#ffffff;stroke:none" />
         <path
   d="m 9506,13903 7,-18 8,-18 8,-20 10,-18 7,5 8,11 5,12 3,16 -3,12 -8,10 -17,5 z"
   id="path88"
   inkscape:connector-curvature="0"
   style="fill:#007272;stroke:none" />
         <path
   d="m 9399,14216 7,-31 11,-33 10,-30 7,-31 11,-30 10,-31 13,-28 10,-30 10,10 13,7 15,3 15,3 h 15 l 13,5 8,12 v 18 l -5,13 -5,15 -8,15 -10,16 -10,17 -16,16 -15,15 -15,15 18,15 15,13 7,13 -2,10 -15,13 -21,12 -23,8 h -12 l -3,-8 -7,-7 -13,-5 z"
   id="path90"
   inkscape:connector-curvature="0"
   style="fill:#007272;stroke:none" />
         <path
   d="m 9356,14424 5,-35 7,-33 5,-36 8,-33 18,-5 18,-3 20,-2 h 18 l 20,2 18,5 18,5 15,11 13,-11 12,-12 11,-8 5,-5 17,20 11,18 7,18 3,18 -13,2 -15,3 -18,2 h -15 l -18,3 -18,2 -15,6 -15,5 -16,5 -12,7 -16,5 -15,8 -15,8 -15,7 -18,10 z"
   id="path92"
   inkscape:connector-curvature="0"
   style="fill:#007272;stroke:none" />
         <path
   d="m 9722,14762 -10,-7 -13,-5 -10,-8 -13,-5 -10,-8 -13,-5 -10,-7 -13,-6 5,-17 3,-21 v -17 l -5,-8 -10,-3 -13,-2 h -13 l -7,-5 -6,-10 -5,-16 -7,-15 -5,-15 10,-10 7,-11 8,-7 3,-8 10,13 13,10 12,10 16,5 20,3 23,-3 28,-5 28,-5 28,-2 25,2 23,8 15,13 -7,22 -8,21 -10,20 -13,18 -10,-3 -10,-2 -10,-5 -11,-5 -10,-3 -10,-5 -10,-3 h -13 l 26,26 12,23 -5,25 z"
   id="path94"
   inkscape:connector-curvature="0"
   style="fill:#007272;stroke:none" />
         <path
   d="m 9879,14755 -5,20 -7,31 -3,33 -2,28 -13,-11 -10,-10 -13,-7 -13,-11 3,-43 2,-38 6,-38 v -28 l 12,23 13,20 13,15 z"
   id="path96"
   inkscape:connector-curvature="0"
   style="fill:#007272;stroke:none" />
         <path
   d="m 10009,14595 -10,5 -5,10 v 10 l 8,8 -13,-3 -13,-3 -13,-2 -10,-3 -10,-2 -10,-3 -10,-2 h -10 l -23,-3 -18,-7 -15,-16 -5,-23 15,-5 15,-7 13,-8 12,-10 11,-8 10,-7 7,-8 6,-8 7,-12 8,-8 h 5 l 7,5 11,15 12,26 11,33 z"
   id="path98"
   inkscape:connector-curvature="0"
   style="fill:#007272;stroke:none" />
         <path
   d="m 10080,14356 -5,10 -5,12 -5,11 v 15 l -13,-8 -12,-5 -16,3 -12,10 -10,13 v 12 l 10,16 18,17 -23,-12 -18,-13 -15,-10 -13,-3 h -13 l -15,-2 h -18 l -18,2 16,-15 15,-15 7,-13 -5,-8 -10,-2 -10,-3 -13,-2 -12,-5 -11,-5 -12,-8 -8,-8 -8,-10 -5,-23 v -25 l 3,-23 8,-8 10,5 15,11 20,17 28,23 18,10 20,13 21,13 23,10 20,8 20,2 h 18 z"
   id="path100"
   inkscape:connector-curvature="0"
   style="fill:#007272;stroke:none" />
         <path
   d="m 10035,14043 5,20 5,21 v 20 18 l -5,12 -16,11 -17,2 -18,-8 -5,13 7,18 21,20 20,21 -10,5 -10,5 -13,5 h -13 -12 l -13,-3 -8,-7 -7,-13 -18,3 -21,2 h -20 -20 l -18,-5 -15,-5 -13,-13 -5,-15 15,-13 18,-5 h 18 l 20,-7 13,-6 10,-7 13,-8 12,-5 11,-8 7,-7 8,-5 2,-5 v -13 l 3,-10 2,-10 11,-5 15,-6 13,-2 15,-5 z"
   id="path102"
   inkscape:connector-curvature="0"
   style="fill:#007272;stroke:none" />
         <path
   d="m 10035,13763 -28,-48 -8,-33 5,-20 10,-11 -15,-10 -15,-18 -16,-15 -10,-15 -12,20 -16,26 -17,23 -16,17 18,8 18,8 20,7 18,10 18,11 15,12 15,13 11,13 h -23 l -8,15 -8,15 -12,15 -13,16 -13,17 -10,16 -10,15 -8,13 21,-10 22,-6 16,6 10,12 10,13 15,10 18,10 13,16 18,-31 7,-38 -10,-48 z"
   id="path104"
   inkscape:connector-curvature="0"
   style="fill:#007272;stroke:none" />
         <path
   d="m 9773,13956 -16,3 h -15 l -20,-5 -15,-8 -16,-12 -12,-13 -6,-18 3,-20 -10,5 -13,5 -10,2 -10,5 -10,3 -8,3 -10,2 h -10 v 15 18 15 l 2,13 18,8 20,10 26,5 25,5 h 23 l 26,-5 20,-13 z"
   id="path106"
   inkscape:connector-curvature="0"
   style="fill:#007272;stroke:none" />
         <path
   d="m 9709,13740 -2,21 2,17 5,16 5,15 3,15 v 13 l -3,10 -5,10 -5,-10 -8,-13 -10,-10 -10,-10 -10,-10 -13,-10 -10,-8 -10,-8 15,-12 13,-13 10,-10 5,-13 5,5 8,3 7,2 z"
   id="path108"
   inkscape:connector-curvature="0"
   style="fill:#007272;stroke:none" />
         <path
   d="m 9432,14518 8,-10 7,-10 10,-10 11,-8 10,-8 12,-7 13,-5 13,-3 -5,23 2,23 3,23 -3,15 -10,-2 -10,-3 -8,-3 -10,-5 -10,-2 -10,-5 -10,-3 z"
   id="path110"
   inkscape:connector-curvature="0"
   style="fill:#007272;stroke:none" />
         <path
   d="m 9897,13974 5,28 8,28 8,31 -3,28 -18,5 -18,2 h -17 -16 l -15,-2 -15,-3 -13,-7 -10,-8 13,-10 12,-13 16,-13 15,-12 15,-16 15,-12 11,-13 z"
   id="path112"
   inkscape:connector-curvature="0"
   style="fill:#007272;stroke:none" />
         <path
   d="m 9574,14147 5,-20 11,-18 12,-13 23,-7 15,-3 h 18 l 18,-2 20,-3 18,-5 18,-8 15,-12 13,-16 3,28 7,23 5,20 3,21 -13,7 -13,6 -10,2 h -10 -10 l -10,-2 -13,-3 -13,-5 -13,-5 -15,-3 -12,-2 -16,-3 h -15 l -13,3 -15,7 z"
   id="path114"
   inkscape:connector-curvature="0"
   style="fill:#007272;stroke:none" />
         <path
   d="m 9628,14282 7,-23 11,-15 7,-13 10,-15 13,-16 13,-7 h 12 l 13,5 8,10 5,15 2,16 3,17 5,16 10,7 13,5 15,3 -5,15 -10,8 -18,5 -20,2 -18,-2 -13,-8 -7,-10 -8,-13 -5,-12 -5,-8 -5,-5 -8,-5 -5,7 -10,11 -8,7 z"
   id="path116"
   inkscape:connector-curvature="0"
   style="fill:#007272;stroke:none" />
         <path
   d="m 9587,14447 10,-15 13,-15 10,-13 10,-13 13,-7 10,-8 13,-5 13,-3 h 12 l 10,5 11,5 10,8 10,10 10,13 13,13 13,15 17,-5 18,-5 13,-3 h 13 l -8,26 -10,25 -15,20 -26,11 -15,2 h -18 -18 -15 l -15,-2 h -13 l -13,-6 -10,-2 -18,-8 -20,-10 -18,-15 z"
   id="path118"
   inkscape:connector-curvature="0"
   style="fill:#007272;stroke:none" />
         <path
   d="m 9862,13789 10,-13 20,-13 21,-10 22,-2 v 20 23 l -2,18 -5,10 h -13 l -20,-5 -23,-11 z"
   id="path120"
   inkscape:connector-curvature="0"
   style="fill:#007272;stroke:none" />
        </g>
       </g>
      </g>
     </g>
    </g>
   </g>
  </g>
 </g>
</svg>