<?xml version="1.0" encoding="UTF-8" standalone="no"?>
<svg
   xmlns:ooo="http://xml.openoffice.org/svg/export"
   xmlns:dc="http://purl.org/dc/elements/1.1/"
   xmlns:cc="http://creativecommons.org/ns#"
   xmlns:rdf="http://www.w3.org/1999/02/22-rdf-syntax-ns#"
   xmlns:svg="http://www.w3.org/2000/svg"
   xmlns="http://www.w3.org/2000/svg"
   xmlns:sodipodi="http://sodipodi.sourceforge.net/DTD/sodipodi-0.dtd"
   xmlns:inkscape="http://www.inkscape.org/namespaces/inkscape"
   version="1.2"
   width="11.73mm"
   height="23.700001mm"
   viewBox="0 0 1173 2370.0001"
   preserveAspectRatio="xMidYMid"
   xml:space="preserve"
   id="svg72"
   sodipodi:docname="seahors2.svg"
   style="fill-rule:evenodd;stroke-width:28.22200012;stroke-linejoin:round"
   inkscape:version="0.92.5 (2060ec1f9f, 2020-04-08)"><metadata
   id="metadata76"><rdf:RDF><cc:Work
       rdf:about=""><dc:format>image/svg+xml</dc:format><dc:type
         rdf:resource="http://purl.org/dc/dcmitype/StillImage" /></cc:Work></rdf:RDF></metadata><sodipodi:namedview
   pagecolor="#ffffff"
   bordercolor="#666666"
   borderopacity="1"
   objecttolerance="10"
   gridtolerance="10"
   guidetolerance="10"
   inkscape:pageopacity="0"
   inkscape:pageshadow="2"
   inkscape:window-width="664"
   inkscape:window-height="487"
   id="namedview74"
   showgrid="false"
   inkscape:zoom="0.2102413"
   inkscape:cx="22.185828"
   inkscape:cy="44.7874"
   inkscape:window-x="0"
   inkscape:window-y="0"
   inkscape:window-maximized="0"
   inkscape:current-layer="svg72" />
 <defs
   class="ClipPathGroup"
   id="defs8">
  <clipPath
   id="presentation_clip_path"
   clipPathUnits="userSpaceOnUse">
   <rect
   x="0"
   y="0"
   width="21000"
   height="29700"
   id="rect2" />
  </clipPath>
  <clipPath
   id="presentation_clip_path_shrink"
   clipPathUnits="userSpaceOnUse">
   <rect
   x="21"
   y="29"
   width="20958"
   height="29641"
   id="rect5" />
  </clipPath>
 </defs>
 <defs
   class="TextShapeIndex"
   id="defs12">
  <g
   ooo:slide="id1"
   ooo:id-list="id3"
   id="g10" />
 </defs>
 <defs
   class="EmbeddedBulletChars"
   id="defs44">
  <g
   id="bullet-char-template-57356"
   transform="matrix(4.8828125e-4,0,0,-4.8828125e-4,0,0)">
   <path
   d="M 580,1141 1163,571 580,0 -4,571 Z"
   id="path14"
   inkscape:connector-curvature="0" />
  </g>
  <g
   id="bullet-char-template-57354"
   transform="matrix(4.8828125e-4,0,0,-4.8828125e-4,0,0)">
   <path
   d="M 8,1128 H 1137 V 0 H 8 Z"
   id="path17"
   inkscape:connector-curvature="0" />
  </g>
  <g
   id="bullet-char-template-10146"
   transform="matrix(4.8828125e-4,0,0,-4.8828125e-4,0,0)">
   <path
   d="M 174,0 602,739 174,1481 1456,739 Z M 1358,739 309,1346 659,739 Z"
   id="path20"
   inkscape:connector-curvature="0" />
  </g>
  <g
   id="bullet-char-template-10132"
   transform="matrix(4.8828125e-4,0,0,-4.8828125e-4,0,0)">
   <path
   d="M 2015,739 1276,0 H 717 l 543,543 H 174 v 393 h 1086 l -543,545 h 557 z"
   id="path23"
   inkscape:connector-curvature="0" />
  </g>
  <g
   id="bullet-char-template-10007"
   transform="matrix(4.8828125e-4,0,0,-4.8828125e-4,0,0)">
   <path
   d="m 0,-2 c -7,16 -16,29 -25,39 l 381,530 c -94,256 -141,385 -141,387 0,25 13,38 40,38 9,0 21,-2 34,-5 21,4 42,12 65,25 l 27,-13 111,-251 280,301 64,-25 24,25 c 21,-10 41,-24 62,-43 C 886,937 835,863 770,784 769,783 710,716 594,584 L 774,223 c 0,-27 -21,-55 -63,-84 l 16,-20 C 717,90 699,76 672,76 641,76 570,178 457,381 L 164,-76 c -22,-34 -53,-51 -92,-51 -42,0 -63,17 -64,51 -7,9 -10,24 -10,44 0,9 1,19 2,30 z"
   id="path26"
   inkscape:connector-curvature="0" />
  </g>
  <g
   id="bullet-char-template-10004"
   transform="matrix(4.8828125e-4,0,0,-4.8828125e-4,0,0)">
   <path
   d="M 285,-33 C 182,-33 111,30 74,156 52,228 41,333 41,471 c 0,78 14,145 41,201 34,71 87,106 158,106 53,0 88,-31 106,-94 l 23,-176 c 8,-64 28,-97 59,-98 l 735,706 c 11,11 33,17 66,17 42,0 63,-15 63,-46 V 965 c 0,-36 -10,-64 -30,-84 L 442,47 C 390,-6 338,-33 285,-33 Z"
   id="path29"
   inkscape:connector-curvature="0" />
  </g>
  <g
   id="bullet-char-template-9679"
   transform="matrix(4.8828125e-4,0,0,-4.8828125e-4,0,0)">
   <path
   d="M 813,0 C 632,0 489,54 383,161 276,268 223,411 223,592 c 0,181 53,324 160,431 106,107 249,161 430,161 179,0 323,-54 432,-161 108,-107 162,-251 162,-431 0,-180 -54,-324 -162,-431 C 1136,54 992,0 813,0 Z"
   id="path32"
   inkscape:connector-curvature="0" />
  </g>
  <g
   id="bullet-char-template-8226"
   transform="matrix(4.8828125e-4,0,0,-4.8828125e-4,0,0)">
   <path
   d="m 346,457 c -73,0 -137,26 -191,78 -54,51 -81,114 -81,188 0,73 27,136 81,188 54,52 118,78 191,78 73,0 134,-26 185,-79 51,-51 77,-114 77,-187 0,-75 -25,-137 -76,-188 -50,-52 -112,-78 -186,-78 z"
   id="path35"
   inkscape:connector-curvature="0" />
  </g>
  <g
   id="bullet-char-template-8211"
   transform="matrix(4.8828125e-4,0,0,-4.8828125e-4,0,0)">
   <path
   d="M -4,459 H 1135 V 606 H -4 Z"
   id="path38"
   inkscape:connector-curvature="0" />
  </g>
  <g
   id="bullet-char-template-61548"
   transform="matrix(4.8828125e-4,0,0,-4.8828125e-4,0,0)">
   <path
   d="m 173,740 c 0,163 58,303 173,419 116,115 255,173 419,173 163,0 302,-58 418,-173 116,-116 174,-256 174,-419 0,-163 -58,-303 -174,-418 C 1067,206 928,148 765,148 601,148 462,206 346,322 231,437 173,577 173,740 Z"
   id="path41"
   inkscape:connector-curvature="0" />
  </g>
 </defs>
 <g
   id="g49"
   transform="translate(-9913,-13665)">
  <g
   id="id2"
   class="Master_Slide">
   <g
   id="bg-id2"
   class="Background" />
   <g
   id="bo-id2"
   class="BackgroundObjects" />
  </g>
 </g>
 <g
   class="SlideGroup"
   id="g70"
   transform="translate(-9913,-13665)">
  <g
   id="g68">
   <g
   id="container-id1">
    <g
   id="id1"
   class="Slide"
   clip-path="url(#presentation_clip_path)">
     <g
   class="Page"
   id="g64">
      <g
   class="Graphic"
   id="g62">
       <g
   id="id3">
        <rect
   class="BoundingBox"
   x="9913"
   y="13665"
   width="1173"
   height="2370"
   id="rect51"
   style="fill:none;stroke:none" />
        <path
   d="m 10002,15153 h 5 l 10,-5 18,-13 20,-15 26,-21 30,-23 36,-20 41,-23 10,28 3,25 -3,28 -8,28 -12,23 -18,21 -18,15 -20,10 -26,18 -2,35 7,44 v 51 l -7,33 -8,17 -10,6 h -10 l -11,-3 h -10 l -10,3 -13,12 -10,21 -5,28 v 33 l 10,38 13,38 8,30 -8,21 -28,2 -10,10 -3,31 13,38 31,28 20,20 10,26 -2,25 -11,13 -12,8 -8,7 -2,10 5,11 10,12 15,8 20,10 26,5 20,3 18,5 15,5 10,8 8,7 v 5 l -2,8 -11,8 -7,7 2,5 8,8 15,8 18,2 18,3 20,-3 18,-5 33,-10 h 20 l 8,13 -3,15 v 12 l 8,11 15,5 21,2 23,-5 23,-7 17,-13 16,-20 23,-26 22,-8 16,6 5,7 2,13 16,-5 22,-18 18,-36 8,-17 13,-21 12,-12 13,7 15,5 8,-35 v -49 l -13,-40 -12,-26 -3,-20 8,-15 25,-8 10,-3 3,-10 -3,-12 -7,-16 -13,-17 -15,-16 -18,-12 -21,-8 -20,-13 -15,-20 -5,-26 2,-25 3,-20 -10,-13 -18,-3 -18,5 -13,8 -15,5 -15,5 h -18 -15 l -10,-2 -6,-5 3,-11 8,-22 -5,-11 -21,3 -38,20 -15,13 -10,18 -11,20 -10,18 -7,15 -8,10 h -10 l -10,-10 -26,-12 -18,22 -5,39 16,35 20,23 15,18 3,15 -13,5 h -10 l -5,8 -5,10 2,13 10,15 16,13 25,12 36,11 h 28 l 25,-6 18,-7 15,-13 8,-15 2,-13 -7,-10 -16,-8 -38,-17 -23,-23 -7,-26 5,-28 15,-20 26,-13 h 33 l 40,15 26,23 15,28 8,31 2,33 -7,35 -11,34 -15,30 -18,25 -23,21 -28,13 -33,5 -33,-3 -35,-10 -38,-18 -36,-25 -36,-36 -23,-33 -15,-36 -5,-38 3,-40 7,-41 15,-43 21,-44 25,-40 28,-41 31,-41 33,-35 35,-36 36,-30 33,-28 36,-26 30,-18 79,-50 66,-72 56,-84 39,-94 17,-101 -5,-102 -33,-99 -63,-94 -77,-92 -61,-84 -43,-73 -26,-64 -7,-56 5,-43 23,-33 38,-21 10,26 18,20 25,13 31,10 33,5 h 33 l 31,3 h 25 l 23,2 25,8 28,13 26,15 25,18 23,22 21,23 17,26 11,15 12,10 16,5 12,3 13,-3 10,-5 10,-7 5,-11 5,-10 6,-10 7,-8 10,-10 11,-7 12,-8 13,-5 15,-8 10,-7 6,-11 -6,-10 -10,-7 -15,-5 -18,-3 -23,3 -23,7 -15,-12 -20,-16 -23,-15 -26,-18 -25,-20 -20,-18 -16,-18 -10,-18 -5,-17 -8,-18 -7,-20 -10,-18 -13,-16 -13,-15 -13,-13 -15,-7 -15,-8 -13,-10 -12,-15 -11,-15 -7,-16 -5,-20 -3,-20 5,-21 3,-28 -10,-20 -16,-13 -20,-5 -26,5 -22,13 -23,28 -18,38 -5,8 -10,5 -13,5 h -15 l -21,2 h -25 -26 -30 l -28,3 -26,5 -20,8 -13,7 -10,8 -5,10 3,8 7,7 8,5 5,8 v 8 l -5,10 -8,7 -15,8 -18,8 -23,7 -23,8 -15,13 -13,15 -7,13 -5,12 v 13 l 5,8 7,2 13,8 v 18 l -13,23 -20,25 -20,38 -5,43 7,39 15,7 18,-2 5,15 -5,30 -20,41 -18,46 -2,38 7,25 15,8 h 13 l 5,13 -5,23 -20,38 -10,35 7,23 16,13 12,13 -5,18 -13,20 -17,23 -13,23 -8,-3 -12,-8 -21,-5 -20,-10 -23,-10 -20,-10 -21,-10 -15,-13 -20,-18 -13,-5 2,10 23,21 11,12 12,11 16,12 15,10 15,11 15,7 13,8 13,7 18,18 7,21 -10,17 -20,13 -18,3 -21,5 -22,7 -23,5 -23,6 -21,5 -15,5 -10,2 -5,5 8,3 20,2 h 28 15 l 15,-2 h 13 15 13 15 13 15 l 26,8 18,12 5,18 -13,15 -15,10 -21,13 -25,15 -26,18 -27,18 -23,18 -18,15 -10,13 2,2 10,-2 13,-8 20,-7 13,-6 18,-5 18,-5 20,-2 20,-5 21,-3 h 18 15 l 20,10 5,23 -5,31 -15,28 -13,15 -20,15 -23,15 -25,16 -23,15 -21,15 -15,10 -8,8 -7,10 -8,10 -5,8 z"
   id="path53"
   inkscape:connector-curvature="0"
   style="fill:#bfbfff;stroke:none" />
        <path
   d="m 10002,15153 v -8 l 5,-10 8,-8 7,-10 8,-8 15,-10 21,-15 23,-15 25,-16 23,-15 20,-15 13,-15 15,-28 5,-31 -5,-23 -20,-10 h -15 -18 l -21,3 -20,5 -20,2 -18,5 -18,5 -13,6 -20,7 -13,8 -10,2 -2,-2 10,-13 18,-15 23,-18 27,-18 26,-18 25,-15 21,-13 15,-10 13,-15 -5,-18 -18,-12 -26,-8 h -15 -13 -15 -13 -15 -13 l -15,2 h -15 -28 l -20,-2 -8,-3 5,-5 10,-2 15,-5 21,-5 23,-6 23,-5 22,-7 21,-5 18,-3 20,-13 10,-17 -7,-21 -18,-18 -13,-7 -13,-8 -15,-7 -15,-11 -15,-12 -16,-10 -12,-11 -11,-12 -20,-21 -10,-2 2,12 11,16 20,35 -3,44 -15,40 -25,38 -13,13 -8,10 v 10 l 16,6 35,22 15,36 -2,46 -15,48 -3,10 3,8 7,5 21,8 15,10 10,23 3,28 -8,30 -13,28 -12,28 -6,20 z"
   id="path55"
   inkscape:connector-curvature="0"
   style="fill:#6666ff;stroke:none" />
        <path
   d="m 10002,15153 v 0 -8 l 5,-10 8,-8 7,-10 v 0 l 8,-8 15,-10 21,-15 23,-15 25,-16 23,-15 20,-15 13,-15 v 0 l 15,-28 5,-31 -5,-23 -20,-10 v 0 h -15 -18 l -21,3 -20,5 -20,2 -18,5 -18,5 -13,6 v 0 l -20,7 -13,8 -10,2 -2,-2 v 0 l 10,-13 18,-15 23,-18 27,-18 26,-18 25,-15 21,-13 15,-10 v 0 l 13,-15 -5,-18 -18,-12 -26,-8 v 0 h -15 -13 -15 -13 -15 -13 l -15,2 h -15 v 0 h -28 l -20,-2 -8,-3 5,-5 v 0 l 10,-2 15,-5 21,-5 23,-6 23,-5 22,-7 21,-5 18,-3 v 0 l 20,-13 10,-17 -7,-21 -18,-18 v 0 l -13,-7 -13,-8 -15,-7 -15,-11 -15,-12 -16,-10 -12,-11 -11,-12 v 0 l -20,-21 -10,-2 2,12 11,16 v 0 l 20,35 -3,44 -15,40 -25,38 v 0 l -13,13 -8,10 v 10 l 16,6 v 0 l 35,22 15,36 -2,46 -15,48 v 0 l -3,10 3,8 7,5 21,8 v 0 l 15,10 10,23 3,28 -8,30 v 0 l -13,28 -12,28 -6,20 z"
   id="path57"
   inkscape:connector-curvature="0"
   style="fill:none;stroke:#bfbfff" />
        <path
   d="m 10674,14016 -18,-8 -13,-12 -7,-16 v -17 l 7,-16 13,-10 18,-5 18,3 17,7 16,10 5,16 2,17 -7,16 -13,10 -18,5 z"
   id="path59"
   inkscape:connector-curvature="0"
   style="fill:#6666ff;stroke:none" />
       </g>
      </g>
     </g>
    </g>
   </g>
  </g>
 </g>
</svg>