<?xml version="1.0" encoding="UTF-8" standalone="no"?>
<svg
   xmlns:ooo="http://xml.openoffice.org/svg/export"
   xmlns:dc="http://purl.org/dc/elements/1.1/"
   xmlns:cc="http://creativecommons.org/ns#"
   xmlns:rdf="http://www.w3.org/1999/02/22-rdf-syntax-ns#"
   xmlns:svg="http://www.w3.org/2000/svg"
   xmlns="http://www.w3.org/2000/svg"
   xmlns:sodipodi="http://sodipodi.sourceforge.net/DTD/sodipodi-0.dtd"
   xmlns:inkscape="http://www.inkscape.org/namespaces/inkscape"
   version="1.2"
   width="162.53mm"
   height="168.02mm"
   viewBox="0 0 16253 16802"
   preserveAspectRatio="xMidYMid"
   xml:space="preserve"
   id="svg123"
   sodipodi:docname="shwrtoon.svg"
   style="fill-rule:evenodd;stroke-width:28.22200012;stroke-linejoin:round"
   inkscape:version="0.92.5 (2060ec1f9f, 2020-04-08)"><metadata
   id="metadata127"><rdf:RDF><cc:Work
       rdf:about=""><dc:format>image/svg+xml</dc:format><dc:type
         rdf:resource="http://purl.org/dc/dcmitype/StillImage" /></cc:Work></rdf:RDF></metadata><sodipodi:namedview
   pagecolor="#ffffff"
   bordercolor="#666666"
   borderopacity="1"
   objecttolerance="10"
   gridtolerance="10"
   guidetolerance="10"
   inkscape:pageopacity="0"
   inkscape:pageshadow="2"
   inkscape:window-width="664"
   inkscape:window-height="487"
   id="namedview125"
   showgrid="false"
   inkscape:zoom="0.2102413"
   inkscape:cx="307.1622"
   inkscape:cy="317.51811"
   inkscape:window-x="0"
   inkscape:window-y="0"
   inkscape:window-maximized="0"
   inkscape:current-layer="svg123" />
 <defs
   class="ClipPathGroup"
   id="defs8">
  <clipPath
   id="presentation_clip_path"
   clipPathUnits="userSpaceOnUse">
   <rect
   x="0"
   y="0"
   width="21000"
   height="29700"
   id="rect2" />
  </clipPath>
  <clipPath
   id="presentation_clip_path_shrink"
   clipPathUnits="userSpaceOnUse">
   <rect
   x="21"
   y="29"
   width="20958"
   height="29641"
   id="rect5" />
  </clipPath>
 </defs>
 <defs
   class="TextShapeIndex"
   id="defs12">
  <g
   ooo:slide="id1"
   ooo:id-list="id3"
   id="g10" />
 </defs>
 <defs
   class="EmbeddedBulletChars"
   id="defs44">
  <g
   id="bullet-char-template-57356"
   transform="matrix(4.8828125e-4,0,0,-4.8828125e-4,0,0)">
   <path
   d="M 580,1141 1163,571 580,0 -4,571 Z"
   id="path14"
   inkscape:connector-curvature="0" />
  </g>
  <g
   id="bullet-char-template-57354"
   transform="matrix(4.8828125e-4,0,0,-4.8828125e-4,0,0)">
   <path
   d="M 8,1128 H 1137 V 0 H 8 Z"
   id="path17"
   inkscape:connector-curvature="0" />
  </g>
  <g
   id="bullet-char-template-10146"
   transform="matrix(4.8828125e-4,0,0,-4.8828125e-4,0,0)">
   <path
   d="M 174,0 602,739 174,1481 1456,739 Z M 1358,739 309,1346 659,739 Z"
   id="path20"
   inkscape:connector-curvature="0" />
  </g>
  <g
   id="bullet-char-template-10132"
   transform="matrix(4.8828125e-4,0,0,-4.8828125e-4,0,0)">
   <path
   d="M 2015,739 1276,0 H 717 l 543,543 H 174 v 393 h 1086 l -543,545 h 557 z"
   id="path23"
   inkscape:connector-curvature="0" />
  </g>
  <g
   id="bullet-char-template-10007"
   transform="matrix(4.8828125e-4,0,0,-4.8828125e-4,0,0)">
   <path
   d="m 0,-2 c -7,16 -16,29 -25,39 l 381,530 c -94,256 -141,385 -141,387 0,25 13,38 40,38 9,0 21,-2 34,-5 21,4 42,12 65,25 l 27,-13 111,-251 280,301 64,-25 24,25 c 21,-10 41,-24 62,-43 C 886,937 835,863 770,784 769,783 710,716 594,584 L 774,223 c 0,-27 -21,-55 -63,-84 l 16,-20 C 717,90 699,76 672,76 641,76 570,178 457,381 L 164,-76 c -22,-34 -53,-51 -92,-51 -42,0 -63,17 -64,51 -7,9 -10,24 -10,44 0,9 1,19 2,30 z"
   id="path26"
   inkscape:connector-curvature="0" />
  </g>
  <g
   id="bullet-char-template-10004"
   transform="matrix(4.8828125e-4,0,0,-4.8828125e-4,0,0)">
   <path
   d="M 285,-33 C 182,-33 111,30 74,156 52,228 41,333 41,471 c 0,78 14,145 41,201 34,71 87,106 158,106 53,0 88,-31 106,-94 l 23,-176 c 8,-64 28,-97 59,-98 l 735,706 c 11,11 33,17 66,17 42,0 63,-15 63,-46 V 965 c 0,-36 -10,-64 -30,-84 L 442,47 C 390,-6 338,-33 285,-33 Z"
   id="path29"
   inkscape:connector-curvature="0" />
  </g>
  <g
   id="bullet-char-template-9679"
   transform="matrix(4.8828125e-4,0,0,-4.8828125e-4,0,0)">
   <path
   d="M 813,0 C 632,0 489,54 383,161 276,268 223,411 223,592 c 0,181 53,324 160,431 106,107 249,161 430,161 179,0 323,-54 432,-161 108,-107 162,-251 162,-431 0,-180 -54,-324 -162,-431 C 1136,54 992,0 813,0 Z"
   id="path32"
   inkscape:connector-curvature="0" />
  </g>
  <g
   id="bullet-char-template-8226"
   transform="matrix(4.8828125e-4,0,0,-4.8828125e-4,0,0)">
   <path
   d="m 346,457 c -73,0 -137,26 -191,78 -54,51 -81,114 -81,188 0,73 27,136 81,188 54,52 118,78 191,78 73,0 134,-26 185,-79 51,-51 77,-114 77,-187 0,-75 -25,-137 -76,-188 -50,-52 -112,-78 -186,-78 z"
   id="path35"
   inkscape:connector-curvature="0" />
  </g>
  <g
   id="bullet-char-template-8211"
   transform="matrix(4.8828125e-4,0,0,-4.8828125e-4,0,0)">
   <path
   d="M -4,459 H 1135 V 606 H -4 Z"
   id="path38"
   inkscape:connector-curvature="0" />
  </g>
  <g
   id="bullet-char-template-61548"
   transform="matrix(4.8828125e-4,0,0,-4.8828125e-4,0,0)">
   <path
   d="m 173,740 c 0,163 58,303 173,419 116,115 255,173 419,173 163,0 302,-58 418,-173 116,-116 174,-256 174,-419 0,-163 -58,-303 -174,-418 C 1067,206 928,148 765,148 601,148 462,206 346,322 231,437 173,577 173,740 Z"
   id="path41"
   inkscape:connector-curvature="0" />
  </g>
 </defs>
 <g
   id="g49"
   transform="translate(-2373,-6449)">
  <g
   id="id2"
   class="Master_Slide">
   <g
   id="bg-id2"
   class="Background" />
   <g
   id="bo-id2"
   class="BackgroundObjects" />
  </g>
 </g>
 <g
   class="SlideGroup"
   id="g121"
   transform="translate(-2373,-6449)">
  <g
   id="g119">
   <g
   id="container-id1">
    <g
   id="id1"
   class="Slide"
   clip-path="url(#presentation_clip_path)">
     <g
   class="Page"
   id="g115">
      <g
   class="Graphic"
   id="g113">
       <g
   id="id3">
        <rect
   class="BoundingBox"
   x="2373"
   y="6449"
   width="16253"
   height="16802"
   id="rect51"
   style="fill:none;stroke:none" />
        <defs
   id="defs56">
         <clipPath
   id="clip_path_1"
   clipPathUnits="userSpaceOnUse">
          <path
   d="M 2373,6449 H 18625 V 23250 H 2373 Z"
   id="path53"
   inkscape:connector-curvature="0" />
         </clipPath>
        </defs>
        <g
   clip-path="url(#clip_path_1)"
   id="g110">
         <path
   d="m 6895,6449 h 7209 l 234,5 229,20 223,33 224,46 218,56 216,69 211,81 203,91 201,102 193,112 190,122 183,134 178,143 170,149 165,161 155,170 150,175 143,185 134,191 127,201 120,205 109,216 99,219 91,226 82,229 71,236 61,241 51,247 40,249 28,254 18,259 5,261 v 6626 l -5,259 -18,259 -28,254 -40,249 -51,246 -61,239 -71,239 -82,231 -91,224 -99,218 -109,213 -120,209 -127,198 -134,193 -143,185 -150,178 -155,168 -165,160 -170,150 -178,145 -183,132 -190,122 -193,111 -201,102 -203,94 -211,79 -216,68 -218,59 -224,46 -223,33 -229,17 -234,8 H 6895 l -231,-8 -229,-17 -224,-33 -223,-46 -219,-59 -213,-68 -211,-79 -206,-94 -200,-102 -193,-111 -188,-122 -186,-132 -178,-145 -170,-150 -322,-328 -290,-363 -264,-391 -117,-209 -109,-213 -102,-218 -91,-224 -79,-231 -74,-239 -61,-239 -51,-246 -38,-249 -30,-254 -18,-259 -5,-259 v -6626 l 5,-261 18,-259 30,-254 38,-249 51,-247 61,-241 74,-236 79,-229 91,-226 102,-219 109,-216 117,-205 127,-201 137,-191 140,-185 150,-175 157,-170 165,-161 170,-149 178,-143 186,-134 188,-122 193,-112 200,-102 206,-91 211,-81 213,-69 219,-56 223,-46 224,-33 229,-20 z"
   id="path58"
   inkscape:connector-curvature="0"
   style="fill:#ffffff;stroke:none" />
         <path
   d="m 11551,6914 v 63 l -20,72 -8,71 -23,73 -20,61 -23,71 -20,72 -10,73 53,-30 61,-31 61,-30 58,-41 51,-43 74,-41 53,-20 69,-31 -10,72 -21,63 -20,59 -33,73 -30,64 -31,61 v 71 l 10,63 41,-23 53,-10 h 41 40 l 51,10 54,13 40,21 31,20 51,-54 53,-50 61,-54 51,-48 63,-43 61,-41 61,-40 64,-33 71,-28 71,-21 74,-23 71,-10 73,-10 h 72 l 81,10 73,10 102,33 97,51 68,61 74,74 61,91 51,84 40,102 43,101 v 64 l 11,51 v 53 l 20,51 v 51 61 53 l -20,61 -44,-10 -30,-31 -20,-30 -31,-43 -155,289 94,104 92,92 83,114 92,92 91,114 84,112 92,104 83,114 82,112 84,112 71,114 84,114 71,115 81,122 74,114 61,114 -341,-124 84,145 92,142 93,145 102,144 94,145 92,145 104,152 91,155 104,155 82,166 83,165 82,165 73,185 72,176 60,185 54,196 40,101 31,104 30,102 21,94 20,102 20,104 23,94 21,101 10,94 20,102 20,84 21,91 20,104 20,82 31,94 33,81 20,124 10,112 31,104 30,112 21,104 40,104 43,107 31,114 61,11 41,10 53,20 41,10 40,31 51,10 53,20 h 51 l 61,-30 53,-51 51,-61 41,-74 51,-40 53,-26 71,10 82,36 114,84 114,81 92,114 83,112 61,125 41,134 10,143 v 144 l -81,41 -74,43 -71,51 -81,41 -74,50 -61,64 -61,51 -53,61 10,84 -20,61 -41,63 -61,61 -53,51 -61,61 -41,73 -10,72 -20,40 -33,33 -31,31 -30,30 -41,21 -41,30 -43,10 -40,21 -31,53 -41,61 -30,51 -43,53 -41,58 -51,44 -51,40 -63,43 h -41 -50 l -51,-10 h -43 -51 l -41,-12 -41,12 -43,10 -617,328 -81,-20 -84,-13 -102,-7 h -94 l -91,7 -94,13 -82,40 -73,54 43,145 51,122 81,114 94,102 92,83 104,82 111,73 125,61 124,61 122,54 135,50 124,59 135,51 122,76 114,71 112,74 53,50 61,41 51,51 64,53 51,51 40,51 41,63 43,51 41,61 40,64 31,61 20,71 20,63 23,71 10,72 11,73 -21,61 -23,61 v 64 l -10,50 v 61 64 l 10,61 v 61 63 61 61 54 l -10,61 -10,61 -20,63 -31,51 -30,71 -51,64 -53,50 -71,41 -72,41 -73,33 -71,30 -74,20 -371,-83 -61,104 -81,71 -94,53 -92,41 -114,20 -114,21 -112,10 -104,10 -145,-10 -122,-10 -124,-31 -102,-41 -94,-53 -91,-51 -84,-61 -71,-73 -84,-71 -61,-72 -71,-73 -74,-71 -81,-84 -84,-61 -81,-71 -105,-54 -91,-40 -104,-41 -109,-41 -107,-30 -112,-43 -114,-31 -114,-40 -112,-41 -104,-41 -102,-43 -94,-61 -91,-71 -74,-74 -61,-91 -61,-104 -43,-115 -21,-81 -7,-81 18,-84 10,-71 23,-74 30,-81 23,-71 28,-74 20,-71 31,-64 10,-73 v -69 -73 l -20,-82 -31,-73 -51,-61 h -53 l -31,10 -30,30 -28,21 -23,33 -30,30 -31,10 -33,10 -10,-61 v -63 l -10,-51 -10,-71 v -64 -60 -74 l -11,-61 v -61 l -10,-74 -10,-61 -10,-61 -20,-63 -21,-51 -20,-51 -33,-61 -61,31 -81,10 -59,-10 h -81 l -61,-10 -61,10 -53,30 -21,51 -10,74 -10,81 10,71 10,64 21,61 30,61 23,63 28,51 33,61 31,53 40,61 21,51 30,63 20,61 16,59 12,76 -178,-43 v 53 l 8,51 31,41 20,40 30,43 41,41 25,51 23,41 31,63 30,61 31,58 20,67 31,71 20,71 10,73 v 82 l 15,73 v 72 l -15,71 -10,73 -20,72 -21,73 -20,61 -41,61 -51,74 -58,61 -71,51 -74,53 -81,41 -71,40 -84,31 -81,40 -84,33 -81,41 -84,30 -82,41 -83,41 -82,43 -81,41 -74,61 -101,94 -115,111 -91,94 -104,112 -104,104 -89,104 -107,102 -102,94 -114,81 -112,82 -114,63 -124,61 -133,51 -144,23 -155,20 -165,-10 -145,10 -122,-20 -125,-43 -114,-61 -112,-82 -94,-94 -91,-91 -84,-104 h -81 l -84,-10 -71,-21 -71,-30 -74,-43 -61,-51 -71,-51 -64,-61 -40,-64 -21,-71 -10,-83 v -82 -84 -81 l -30,-81 -43,-64 -21,-81 -10,-84 v -81 l 20,-84 21,-71 23,-71 40,-74 41,-71 41,-61 40,-63 54,-61 50,-61 51,-54 53,-61 51,-51 51,-53 -71,20 -74,23 -71,21 -71,30 -74,20 -71,21 -84,20 -71,20 -81,11 -84,20 h -71 l -84,13 -71,-13 -84,-10 -71,-21 -81,-30 -54,-10 -50,-21 -51,-20 -41,-30 -53,-31 -41,-33 -51,-30 -53,-31 -30,71 -41,64 -41,61 -40,61 -44,63 -40,61 -51,61 -41,64 -43,50 -51,61 -40,64 -41,61 -43,61 -51,63 -41,61 -40,61 -74,84 -81,81 -84,84 -91,82 -94,63 -102,31 -114,20 -122,-20 -74,-31 -71,-43 -74,-31 -71,-40 -71,-41 -64,-43 -61,-41 -71,-51 -53,-50 -61,-54 -61,-50 -53,-61 -51,-51 -41,-74 -40,-71 -44,-74 v -81 l 23,-84 21,-71 40,-61 31,-74 40,-61 44,-50 40,-64 61,-61 51,-51 64,-56 60,-58 51,-51 64,-51 61,-56 61,-50 53,-51 61,-53 61,-51 64,-49 60,-40 61,-54 64,-50 51,-51 -84,-10 -51,-66 -61,-69 -40,-81 -44,-64 -61,-30 -81,10 -94,63 -41,11 -40,-11 h -33 l -41,-22 -30,-21 -21,-20 -30,-10 -31,-10 -33,-82 -20,-73 -10,-82 10,-83 10,-82 23,-71 41,-74 40,-71 31,-40 51,-44 53,-40 61,-41 41,-30 20,-54 -10,-50 -41,-72 -10,-94 10,-81 41,-74 43,-81 41,-71 20,-84 -20,-91 -64,-104 10,-72 v -83 l 13,-72 10,-73 31,-61 40,-61 51,-41 74,-23 61,-20 h 50 64 l 51,20 51,23 50,21 44,30 40,20 21,71 40,34 h 51 l 53,-23 51,-21 61,-30 53,-20 61,-11 41,21 h 51 l 43,10 51,10 51,20 40,21 44,33 30,61 61,-41 84,-30 81,-34 84,-30 81,-20 81,-21 84,-30 71,-41 -81,-84 -61,-91 -43,-114 -20,-115 -10,-111 v -115 l 30,-122 30,-104 64,-135 81,-132 77,-114 99,-114 94,-92 122,-73 134,-51 155,-26 20,-61 31,-73 30,-61 21,-74 23,-71 30,-71 20,-64 31,-71 20,-71 21,-74 30,-71 23,-63 20,-71 31,-71 10,-74 30,-71 -30,-21 -10,21 -31,20 h -33 l -30,10 h -31 l -20,21 -18,10 -13,40 h -20 l -20,-10 -10,-10 -23,-20 33,-186 30,-175 41,-175 51,-176 53,-175 61,-162 61,-155 74,-166 81,-155 84,-165 81,-155 81,-155 84,-152 92,-155 94,-155 81,-155 10,-10 33,-41 31,-61 40,-63 51,-71 64,-74 40,-71 51,-53 -31,-11 -20,-7 h -30 l -44,7 h -30 -30 -21 l -20,-17 61,-135 61,-135 73,-124 82,-122 73,-125 92,-124 94,-122 81,-124 94,-125 92,-122 94,-114 91,-125 84,-122 91,-124 71,-125 84,-121 -50,-74 -44,-81 -30,-82 -41,-86 -20,-79 -10,-94 -10,-81 10,-74 -31,-51 -30,11 -23,30 -31,20 -30,21 -20,23 -31,10 -20,-10 -43,-23 22,-71 v -82 l 21,-76 20,-79 20,-73 31,-82 41,-61 53,-63 51,-41 51,-40 60,-31 54,-30 61,-23 61,-21 63,-10 61,-10 h 61 74 l 61,10 h 61 l 73,10 61,21 64,23 61,20 20,20 41,31 30,20 54,20 40,31 31,30 20,33 10,31 41,-31 43,-43 41,-51 40,-50 41,-41 43,-53 41,-21 51,-20 40,185 44,-33 30,-38 31,-40 30,-44 31,-40 30,-51 36,-41 28,-53 60,-41 51,-51 43,-50 51,-64 41,-51 61,-50 53,-44 z"
   id="path60"
   inkscape:connector-curvature="0"
   style="fill:#000000;stroke:none" />
         <path
   d="m 11356,7585 416,-237 -20,49 -18,73 -23,74 -20,71 -10,71 -10,64 v 40 31 l 114,-41 91,-10 71,10 61,10 44,31 40,20 13,31 h 8 l 81,-92 104,-94 104,-91 112,-84 114,-61 135,-53 132,-18 155,10 104,20 102,41 94,41 81,73 61,71 64,94 40,92 41,101 40,290 -30,-10 -20,-10 h -21 l -20,-10 -20,-11 -21,-10 -20,-10 -20,-10 v 41 50 l -13,44 -10,40 -10,41 -31,30 -20,41 -31,33 -17,-23 -44,-30 -43,-21 h -30 l 40,94 54,82 61,73 71,71 74,72 71,73 73,81 51,84 61,71 61,61 64,74 50,69 51,73 64,74 50,69 61,86 51,71 43,74 61,81 51,61 41,74 53,81 51,61 41,74 h -31 l -30,-11 -41,-10 -43,-12 -41,-8 -40,-10 h -41 l -31,18 92,157 94,153 102,144 104,155 101,155 94,145 102,152 94,155 91,145 94,165 82,145 73,165 71,176 61,162 64,186 41,185 50,94 41,102 33,104 30,104 31,112 20,114 31,102 10,114 30,114 13,112 20,114 21,112 30,104 21,115 30,111 31,105 10,101 23,94 20,102 30,94 31,91 30,104 21,87 20,104 43,41 51,20 51,20 51,23 53,10 61,10 51,21 53,30 102,82 94,104 71,114 61,122 53,114 31,135 10,132 v 124 41 31 l -10,43 -11,30 -10,31 -10,30 -20,41 -23,30 v -71 l -10,-81 v -74 l -21,-81 -10,-74 -20,-71 -41,-61 -40,-63 h -64 l 10,73 33,92 21,84 20,91 10,94 10,81 -10,105 -30,81 -11,51 -22,43 -21,51 -30,40 -31,31 -20,43 -41,30 -43,31 v -61 -53 -61 -61 -54 l -20,-61 -20,-50 -31,-44 10,-40 v -41 l -10,-30 -30,-31 -21,-30 -20,-33 -10,-31 v -41 l -33,-10 -21,10 -20,11 -20,10 30,84 31,91 33,81 20,94 20,92 v 94 104 l -20,102 -30,40 -33,64 -21,51 -30,61 -31,53 -40,41 -54,40 -71,20 h -124 l 33,-60 10,-54 20,-71 10,-61 v -63 -72 l -10,-50 -10,-74 -10,-61 -20,-61 -23,-64 -31,-60 -30,-61 -41,-54 -30,-51 -54,-50 -51,-31 -50,-20 -51,-33 -54,-21 -50,-20 -61,-10 h -54 l -61,10 -411,280 -41,-44 -33,-50 -20,-51 -10,-61 -10,-64 -11,-61 v -61 l -10,-73 61,-92 43,-114 41,-114 20,-112 31,-125 10,-111 10,-115 20,-114 11,-122 12,-119 21,-125 v -122 -124 l 10,-125 v -122 l -10,-124 v -125 l -10,-122 -11,-134 -12,-115 -11,-122 -10,-104 -20,-124 -10,-102 -51,-73 -30,-72 -41,-81 -43,-84 -51,-61 -51,-61 -74,-43 -91,-20 -31,-81 -43,-64 -30,-81 -41,-71 -40,-74 -41,-81 -43,-74 -41,-71 -41,-81 -40,-74 -41,-71 -43,-74 -51,-71 -41,-71 -40,-74 -43,-71 -21,-51 -20,-43 -30,-51 -21,-51 -30,-40 -31,-54 -33,-40 -40,-41 -31,10 -30,21 v 30 l 10,20 51,94 61,102 63,94 61,102 51,94 53,81 51,104 51,92 63,94 51,91 41,94 61,102 43,94 51,101 51,94 50,104 23,61 20,51 -20,41 -23,33 -30,40 -41,41 -30,31 -31,40 -216,104 -218,102 -226,84 -226,71 -237,63 -236,61 -239,41 -246,41 -246,33 -249,10 -247,10 -246,10 -244,-10 -257,-10 -246,-20 -249,-33 -112,-21 -104,-20 -114,-20 -112,-21 -114,-30 -102,-21 -114,-20 -115,-33 -111,-30 -105,-21 -101,-30 -114,-41 -92,-43 -114,-41 -92,-61 -104,-50 -94,-44 -91,-50 -94,-41 -82,-51 -81,-43 -94,-51 -91,-61 -84,-73 20,-92 31,-104 33,-102 30,-94 31,-91 30,-94 41,-102 43,-84 30,-91 51,-94 41,-81 51,-94 43,-82 51,-94 61,-91 53,-84 v -30 -31 -20 l -23,-31 -51,71 -40,74 -41,71 -41,71 -43,74 -40,71 -41,74 -41,81 -43,71 -30,74 -31,81 -41,74 -30,71 -30,94 -34,71 -30,81 -102,44 -94,50 -71,51 -63,84 -61,71 -41,92 -40,94 -21,104 -23,101 -20,105 -10,111 -10,115 -10,101 -21,115 -10,114 -10,102 v 134 145 155 l 10,152 v 145 l 10,155 21,155 20,150 30,155 33,142 41,155 41,145 50,145 54,132 61,135 71,134 v 51 l -10,51 -21,53 -20,51 -20,51 -41,40 -43,44 -41,30 -61,10 h -40 l -21,-30 -10,-31 -13,-43 v -41 l -10,-50 -10,-41 -40,-114 -51,-92 -61,-94 -84,-71 -92,-63 -104,-51 -114,-31 -112,-20 -165,-20 -135,20 -101,81 -84,104 -71,122 -74,125 -71,114 -81,102 h -54 l -40,-61 -31,-51 -20,-64 -20,-50 -8,-71 v -64 -61 l 8,-71 v -64 l 20,-71 20,-61 10,-63 31,-71 30,-64 21,-61 33,-51 51,-94 61,-81 73,-71 82,-53 94,-61 101,-31 94,-20 112,-10 30,-99 33,-105 41,-101 41,-94 40,-92 31,-104 33,-101 20,-105 10,-50 21,-51 20,-54 20,-50 10,-51 11,-51 20,-63 20,-51 v -31 l 10,-20 23,-33 21,-10 20,-31 10,-10 -10,-20 -31,-21 -43,21 -30,20 -31,10 -30,21 -31,20 -30,23 -43,10 h -41 l 20,-165 31,-155 33,-165 51,-155 50,-155 61,-153 64,-155 71,-144 74,-145 71,-145 71,-142 84,-135 81,-145 74,-134 71,-143 81,-134 43,-84 51,-71 41,-71 51,-74 43,-71 51,-61 40,-74 41,-84 185,-142 -30,-20 h -41 l -51,10 -53,10 -51,31 -51,10 -50,10 h -54 l 74,-135 71,-142 94,-124 81,-135 82,-122 94,-124 81,-125 94,-122 91,-124 105,-127 91,-110 84,-124 101,-135 94,-122 82,-124 94,-145 30,-20 31,-41 30,-30 33,-33 21,-31 43,-30 28,-41 30,-31 -40,-30 h -31 l -30,30 -44,21 -20,38 -30,33 -31,30 -30,33 -41,31 -20,30 -33,31 -21,28 -51,-59 -40,-71 -41,-73 -33,-72 -20,-83 -10,-92 10,-84 20,-81 20,-30 23,-21 21,-20 v -43 l -54,10 -40,20 -41,13 -41,20 -40,21 -33,20 -41,20 -41,21 11,-115 30,-91 41,-104 63,-82 61,-84 81,-60 84,-51 82,-41 114,-20 114,-10 h 102 l 104,20 91,20 94,51 92,61 74,74 30,20 20,51 31,30 h 41 l 40,-20 43,-31 31,-40 20,-41 31,-43 20,-41 30,-40 33,-31 21,21 10,17 v 33 41 l 10,30 10,34 10,10 31,10 84,-64 73,-71 59,-91 74,-94 60,-92 72,-94 73,-61 92,-63 z"
   id="path62"
   inkscape:connector-curvature="0"
   style="fill:#ffffff;stroke:none" />
         <path
   d="m 11572,8232 50,-40 38,-41 51,-30 51,-11 61,-10 h 53 l 61,10 51,21 43,20 41,20 33,21 8,40 20,33 23,41 7,41 21,30 v 41 l -10,30 v 43 l -11,31 -7,28 v 33 l 7,30 11,33 h 43 l 43,51 38,69 51,96 43,112 31,114 20,102 v 94 l -41,145 -53,122 -61,124 -81,115 -94,101 -105,94 -111,71 -125,41 h -30 -41 l -41,13 -33,10 -35,18 -31,12 h -38 l -33,-12 v 43 l -10,40 10,41 v 43 31 40 l 10,31 v 41 l 72,53 66,41 63,40 61,31 61,20 53,10 71,-20 74,-31 71,-50 64,-61 71,-64 61,-71 61,-74 84,-61 81,-51 94,-40 71,-64 51,-71 43,-73 31,-84 20,-79 30,-94 21,-81 30,-84 h 31 l -10,94 -11,101 -30,94 -31,102 -30,84 -51,91 -63,64 -82,51 -30,20 -33,30 -31,18 -40,23 -31,10 -40,23 -44,20 -30,21 -41,51 -40,61 -31,53 -43,51 -38,51 -51,40 -53,20 -74,13 -102,31 -83,-11 -72,-33 -61,-40 -58,-54 -61,-17 h -61 l -74,51 -61,10 -50,30 -64,20 -51,23 -61,21 -63,10 h -59 l -63,-21 -53,-33 -41,-30 -51,-41 -41,-40 -43,-41 -40,-43 -31,-41 -30,-51 -74,-30 -81,-31 -82,-33 -73,-30 -71,-41 -74,-61 -51,-53 -51,-71 -20,-71 -10,-74 -33,-61 -21,-71 -20,-74 -7,-71 -13,-84 v -71 h 84 l 10,102 v 94 l 10,81 10,94 20,81 41,84 41,71 73,64 72,61 83,40 92,41 81,33 84,31 71,50 64,61 40,94 41,21 41,30 53,31 41,30 61,20 h 50 54 l 61,-30 226,-132 v -351 l -82,-12 -73,-18 -92,-23 -61,-31 -83,-30 -72,-30 -63,-41 -61,-53 -61,-41 -64,-51 -50,-61 -51,-63 -51,-61 -43,-72 -31,-83 -40,-71 -21,-94 -10,-92 v -94 l 21,-81 30,-84 31,-81 40,-74 53,-71 31,-41 41,-33 40,-18 54,-33 40,-40 41,-61 20,-64 21,-112 20,-40 43,-43 41,-51 51,-51 40,-41 54,-30 50,-23 61,-20 h 43 l 51,10 61,10 51,10 43,33 41,31 30,40 z"
   id="path64"
   inkscape:connector-curvature="0"
   style="fill:#000000;stroke:none" />
         <path
   d="m 11866,8738 257,-74 71,64 53,71 41,84 41,81 10,84 10,91 v 94 102 l -41,94 -40,91 -41,92 -53,94 -61,73 -72,72 -83,61 -92,53 -63,41 -69,20 -74,20 -68,10 -69,10 -86,-10 h -71 l -82,-20 -73,-10 -71,-31 -74,-30 -69,-20 -63,-44 -74,-40 -51,-41 -61,-41 -63,-94 -61,-81 -61,-104 -43,-102 -31,-106 v -102 l 11,-112 53,-114 30,-61 31,-51 40,-43 31,-43 41,-38 43,-41 40,-41 41,-43 31,21 20,33 33,20 30,10 41,20 h 43 l 38,11 44,10 50,-10 61,-11 54,-20 50,-30 51,-33 41,-31 43,-30 31,-31 30,31 41,40 40,33 38,28 51,33 51,31 51,10 z"
   id="path66"
   inkscape:connector-curvature="0"
   style="fill:#ffffff;stroke:none" />
         <path
   d="m 8129,12891 105,82 104,71 111,63 115,61 112,51 114,64 104,61 112,61 114,53 112,51 104,40 114,41 112,43 125,41 111,30 125,41 114,20 132,31 125,33 114,20 132,31 125,10 124,20 125,20 134,11 122,10 125,10 h 132 l 124,10 h 120 122 134 l 125,-10 h 122 l 124,-10 125,-10 121,-21 115,-10 124,-20 112,-21 114,-20 112,-10 104,-33 104,-20 102,-31 114,-30 92,-31 104,-41 102,-33 104,-30 91,-41 104,-40 92,-51 104,-43 91,-41 105,-41 40,-30 41,-41 43,-43 41,-51 40,-40 31,-41 30,-64 10,-50 74,61 51,63 41,71 40,71 23,84 20,82 21,83 v 82 l 10,94 v 91 84 l 10,91 v 94 l 10,82 10,84 31,81 -10,195 -10,196 -11,196 -20,190 -20,196 -31,195 -33,196 -40,185 -41,176 -61,185 -64,165 -81,165 -94,166 -101,144 -125,145 -135,132 -81,-51 -81,-50 -94,-54 -81,-30 -94,-21 -82,-30 -94,-10 -91,-10 -94,-11 h -92 l -94,11 h -101 l -94,10 -102,10 -104,10 -102,20 -73,31 -82,43 -73,41 -71,40 -71,41 -74,53 -61,41 -61,61 -64,51 -58,74 -53,60 -54,61 -40,74 -41,71 -41,84 -30,81 -53,18 -59,23 h -53 -54 l -55,-10 -49,-13 -66,-18 -51,-20 -71,-135 -73,-132 -82,-124 -94,-114 -101,-102 -115,-94 -122,-81 -134,-74 -114,-31 -122,-10 h -125 l -124,21 -112,40 -104,64 -92,71 -84,84 h -81 -74 -81 l -74,10 h -81 l -71,10 -74,10 -71,10 -84,-83 -81,-82 -81,-94 -84,-71 -81,-71 -84,-84 -71,-71 -94,-84 -61,-71 -81,-81 -64,-94 -71,-92 -51,-94 -53,-101 -51,-115 -41,-124 -53,-145 -41,-152 -40,-145 -41,-165 -20,-165 -21,-171 -23,-175 v -165 -175 -176 -175 l 23,-175 11,-163 20,-165 20,-165 20,-155 21,-81 20,-74 41,-81 33,-74 51,-71 50,-61 61,-53 84,-41 z"
   id="path68"
   inkscape:connector-curvature="0"
   style="fill:#ffffff;stroke:none" />
         <path
   d="m 8264,13333 -30,-20 -21,-10 -30,10 -31,10 -23,10 -20,31 -20,20 -10,21 -11,104 v 91 l 21,104 20,82 33,94 41,71 61,73 71,51 h 53 l 20,-30 21,-54 20,-40 v -41 l -10,-41 v -40 l 41,-23 10,43 10,41 10,40 v 41 53 41 l -20,41 -21,30 -61,10 h -50 l -44,-10 -40,-40 -41,-31 -40,-41 -31,-43 -43,-40 -20,-72 -31,-83 -30,-82 -21,-71 -10,-84 10,-91 21,-84 40,-71 21,-31 20,-22 43,-11 h 31 40 l 31,23 20,31 z"
   id="path70"
   inkscape:connector-curvature="0"
   style="fill:#000000;stroke:none" />
         <path
   d="m 14976,13765 -11,115 -30,111 -41,105 -63,104 -71,81 -82,94 -94,71 -91,61 h -53 l -41,-10 -31,-41 -30,-40 -10,-31 10,-43 v -31 l 10,-30 20,-31 11,-30 30,-30 10,-34 41,34 v 30 l -10,51 -31,51 -20,53 v 41 l 30,20 h 84 l 82,-74 73,-71 71,-81 71,-84 44,-81 30,-94 10,-112 -10,-104 h -30 -33 l -21,10 -30,10 -21,10 -20,21 -30,10 -21,10 h -33 l 23,-51 31,-41 30,-30 51,-31 h 30 44 l 30,11 20,10 31,10 20,20 10,21 z"
   id="path72"
   inkscape:connector-curvature="0"
   style="fill:#000000;stroke:none" />
         <path
   d="m 17666,15719 v 165 l -412,330 -23,-134 -40,-115 -51,-122 -51,-114 -53,-104 -71,-102 -72,-94 -83,-91 50,-21 64,-43 51,-61 51,-51 53,-40 61,-33 71,12 74,61 71,51 71,61 53,64 51,71 41,74 30,81 43,71 z"
   id="path74"
   inkscape:connector-curvature="0"
   style="fill:#ffffff;stroke:none" />
         <path
   d="m 7471,16110 31,41 30,40 31,54 23,50 20,61 20,64 11,51 10,61 -165,269 -61,-30 -64,-34 -71,-20 -61,-20 -74,-31 -61,-20 -73,-20 -71,-21 -72,-10 -73,-23 h -71 l -61,-20 h -74 -71 l -64,10 -71,10 54,-81 50,-81 51,-104 51,-82 64,-94 60,-71 82,-73 94,-41 h 81 l 74,10 71,10 81,21 64,30 71,23 63,30 z"
   id="path76"
   inkscape:connector-curvature="0"
   style="fill:#ffffff;stroke:none" />
         <path
   d="m 9006,17243 -82,10 -104,31 -81,20 -84,23 -91,30 -84,31 -81,40 -84,31 -81,-91 -92,-84 -84,-92 -81,-94 -84,-73 -101,-82 -105,-61 -114,-61 33,-40 20,-33 31,-41 20,-20 31,-10 h 40 l 44,10 40,30 61,-20 51,-20 53,-21 51,-40 51,-31 43,-43 31,-51 40,-51 z"
   id="path78"
   inkscape:connector-curvature="0"
   style="fill:#ffffff;stroke:none" />
         <path
   d="m 16037,16781 21,71 20,71 v 84 71 l -10,84 -10,81 -21,71 -20,74 -94,51 -81,40 -84,54 -81,40 -82,51 -83,51 -92,43 -94,51 10,-94 -10,-102 -20,-104 -31,-91 -40,-94 -54,-82 -61,-73 -81,-71 -33,-21 -20,-20 -31,-10 -30,-10 -31,-21 -30,-20 -21,-13 -22,-20 73,-61 82,-61 83,-74 92,-61 94,-50 81,-64 104,-61 92,-51 84,10 71,11 81,30 74,41 61,53 50,61 54,61 z"
   id="path80"
   inkscape:connector-curvature="0"
   style="fill:#ffffff;stroke:none" />
         <path
   d="m 14976,16697 -133,74 -83,91 -61,124 -41,133 -33,134 -41,135 -40,124 -84,112 -10,-51 -31,-51 -20,-53 -20,-51 -31,-50 -10,-64 v -61 l 10,-61 81,-84 74,-81 71,-84 71,-81 54,-104 61,-92 50,-104 44,-102 z"
   id="path82"
   inkscape:connector-curvature="0"
   style="fill:#ffffff;stroke:none" />
         <path
   d="m 4791,16687 v 40 l 11,21 22,23 21,10 20,20 20,10 21,31 10,20 41,-10 43,-21 40,-20 31,-10 40,-20 31,-10 43,-13 41,-21 h 91 l 66,11 59,23 40,30 41,30 33,31 41,30 40,11 94,-41 82,-41 91,-30 84,-43 91,-21 94,-30 92,-20 84,-21 94,-10 91,-10 h 92 93 l 92,10 84,10 101,31 84,20 82,30 83,34 82,40 73,31 82,40 71,41 73,43 72,51 83,51 61,51 71,63 84,71 71,74 74,81 81,81 71,84 115,-40 104,-54 102,-40 114,-31 102,-40 104,-31 111,-23 115,-30 104,-21 112,-10 114,-10 112,-10 h 114 l 114,10 h 122 l 125,20 30,21 41,30 33,23 41,20 40,21 31,30 20,38 20,43 v 74 71 l 11,64 22,71 21,61 20,63 20,61 21,71 10,54 10,71 v 51 63 l -20,61 -31,51 -51,64 -63,50 -92,11 -104,20 -91,20 -94,10 -92,31 -94,20 -91,23 -84,20 -91,18 -84,33 -92,20 -94,21 -81,10 -104,20 -92,21 -93,10 -41,53 10,31 20,20 21,28 73,33 61,18 61,35 64,31 71,30 61,41 63,20 72,31 73,33 61,30 71,31 64,30 71,20 71,21 84,18 61,15 61,38 43,33 41,30 40,31 31,30 30,44 13,61 10,71 v 73 l -10,71 -23,84 -20,71 -21,72 -20,73 -30,71 -31,74 -30,61 -44,71 -40,74 -38,51 -43,71 -54,53 -40,61 -61,61 -61,20 -64,10 -71,13 -64,10 h -71 -71 l -73,-10 -72,-23 -104,-50 -101,-72 -104,-73 -102,-71 -94,-72 -92,-83 -94,-72 -81,-83 -94,-82 -91,-83 -84,-92 -81,-84 -84,-81 -82,-81 -81,-84 -84,-81 -61,61 -63,50 -61,54 -71,50 -74,41 -71,41 -71,30 -74,33 -71,31 -84,20 -81,20 -84,21 -81,10 h -81 -84 -92 l -73,-31 -82,-30 -71,-31 -84,-43 -71,-51 -73,-40 -72,-61 -53,-64 -51,64 -51,71 -50,71 -44,74 -50,71 -41,74 -41,71 -53,61 -41,83 -50,72 -41,73 -43,61 -61,71 -51,64 -51,71 -63,61 -61,74 -61,61 -74,71 -71,53 -84,51 -81,30 -84,31 h -102 l -134,-71 -145,-71 -132,-84 -115,-81 -124,-105 -102,-101 -83,-115 -82,-134 10,-71 21,-84 20,-71 31,-71 43,-64 51,-61 50,-61 61,-74 64,-50 51,-51 71,-64 63,-50 61,-61 61,-44 64,-50 61,-51 61,-51 63,-53 51,-51 51,-51 43,-53 61,-41 61,-43 74,-38 -135,-41 -84,-53 -71,-61 -51,-71 -30,-74 -33,-61 -31,-41 -40,-33 -31,33 -30,18 -31,23 -33,20 -30,10 -31,11 -41,10 h -40 l -33,-10 -31,-11 -30,-20 -21,-20 -20,-21 -20,-30 -10,-33 -21,-31 v -91 l 21,-94 20,-81 41,-74 40,-81 64,-61 51,-64 71,-51 53,-10 31,-30 10,-31 -21,-53 -20,-51 -23,-61 v -63 l 13,-61 10,-61 20,-64 31,-51 30,-50 31,-31 30,-33 21,-30 -10,-41 -31,-30 -20,-31 -21,-41 -10,-53 -10,-41 v -50 l -10,-41 -10,-43 20,-41 v -51 l 10,-40 21,-44 20,-40 20,-31 43,-20 41,-20 h 41 40 41 43 l 41,20 40,10 31,10 z"
   id="path84"
   inkscape:connector-curvature="0"
   style="fill:#ffffff;stroke:none" />
         <path
   d="m 14173,17223 20,51 31,53 30,51 20,68 23,76 10,61 21,61 20,64 -20,20 -31,31 -23,30 -10,41 -10,30 -20,44 v 50 41 l 53,61 61,13 61,10 51,-10 63,10 41,30 31,51 20,114 114,122 114,115 133,91 144,94 145,71 145,84 152,61 155,69 155,76 145,71 145,84 132,81 124,104 115,109 101,138 84,144 21,51 10,51 20,64 10,50 v 61 64 61 l -20,51 -41,-71 -53,-61 -51,-64 -71,-51 -74,-40 -81,-44 -74,-30 -71,-31 -10,21 -10,10 -10,30 10,23 81,51 74,51 71,51 74,63 61,61 61,74 53,71 51,81 10,94 v 92 l 10,104 v 91 l -20,104 -10,82 -31,84 -43,81 -51,30 -41,33 -40,31 -54,41 -50,30 -51,20 -64,11 -51,-11 -40,11 h -41 l -30,-11 -33,-10 -31,-10 -30,-20 -31,-10 -30,-11 20,-71 31,-73 30,-72 20,-73 21,-71 10,-82 13,-83 -23,-92 -41,-104 -61,-81 -74,-94 -71,-82 -81,-73 -104,-51 -92,-51 -104,-43 -30,23 10,30 10,41 10,30 94,31 82,43 71,51 63,51 61,73 51,71 63,82 41,84 v 121 l -20,125 -31,114 -53,122 -61,104 -71,105 -94,91 -92,71 -83,33 -72,10 -83,10 -72,11 -83,10 h -82 l -71,-10 -84,-11 -81,-10 -74,-20 -71,-23 -71,-30 -73,-31 -61,-41 -74,-40 -51,-43 -71,-92 -74,-104 -81,-81 -81,-84 -84,-71 -92,-71 -94,-64 -101,-61 -104,-51 -102,-53 -114,-41 -104,-40 -112,-31 -115,-30 -111,-31 -115,-23 -81,-40 -74,-51 -81,-51 -74,-63 -81,-51 -61,-71 -53,-74 -41,-81 -40,-84 -8,-81 -13,-84 13,-71 8,-71 20,-74 30,-61 31,-71 30,-74 33,-61 11,-74 20,-61 10,-71 -10,-63 -20,-71 -31,-82 -33,-33 -10,-40 v -51 l 10,-41 10,-43 -10,-30 -30,-31 h -61 l -8,31 -33,20 -20,20 -23,13 -28,20 -33,10 -18,21 -33,10 -20,-94 -11,-102 -10,-104 v -91 l -10,-104 -13,-92 -20,-94 -41,-81 11,-94 30,-81 43,-84 41,-71 51,-72 51,-76 63,-68 61,-51 71,-64 74,-50 81,-51 74,-43 81,-41 71,-41 74,-30 81,-31 h 84 81 l 74,-10 h 71 l 81,-10 77,-13 h 78 74 71 71 l 74,13 71,20 71,21 64,20 71,30 61,41 23,41 40,23 31,20 z"
   id="path86"
   inkscape:connector-curvature="0"
   style="fill:#ffffff;stroke:none" />
         <path
   d="m 11201,17604 50,94 33,101 v 94 l -12,102 -31,104 -10,102 10,104 43,102 31,63 30,51 41,61 41,53 20,61 33,51 31,74 12,61 h -33 l -18,-11 -35,-10 -31,-10 h -40 -31 l -20,10 -31,21 v 30 18 l 11,33 30,10 10,33 21,10 10,18 10,23 30,61 41,63 43,71 41,61 41,64 40,71 26,71 33,74 30,71 20,84 21,71 10,81 v 84 l -10,81 -21,84 -20,82 -41,73 -38,71 -50,61 -49,54 -66,50 -61,41 -71,31 -74,43 -71,30 -71,31 -73,30 -72,31 -73,30 -71,33 -72,31 -63,40 -145,92 -122,104 -124,114 -125,122 -122,125 -124,124 -125,122 -122,125 -134,114 -135,91 -142,94 -155,71 -155,51 -175,21 h -186 l -195,-21 -94,-10 -71,-20 -61,-41 -64,-51 -51,-53 -61,-51 -53,-61 -71,-53 -10,-61 -31,-61 -10,-64 -20,-61 -21,-61 v -63 -61 l 11,-71 30,-84 30,-91 51,-74 64,-81 71,-61 71,-64 84,-41 71,-30 20,-20 v -21 -43 -30 l -71,20 -71,30 -63,34 -61,50 -74,51 -51,51 -61,63 -40,61 -34,61 -30,74 -20,71 -21,74 -10,81 v 94 l 10,71 21,82 -51,10 h -51 l -53,-21 -51,-20 -51,-20 -51,-31 -53,-20 -41,-10 -71,-94 -33,-92 -20,-104 v -112 l 10,-104 23,-114 30,-102 31,-104 30,-61 41,-61 41,-53 43,-41 51,-40 50,-31 64,-30 61,-44 10,-20 v -10 -31 l 10,-20 -104,10 -81,31 -71,40 -64,54 -51,71 -50,61 -54,84 -51,81 -48,175 -33,-81 -10,-84 v -71 l 10,-81 20,-74 31,-71 41,-74 53,-71 51,-61 61,-73 61,-51 53,-71 61,-54 51,-61 53,-51 51,-53 135,-41 81,61 84,74 81,71 71,84 84,61 71,84 84,71 81,71 71,74 84,71 81,61 94,74 82,61 94,60 81,54 104,51 92,30 104,10 h 101 l 104,-10 105,-30 91,-41 81,-64 87,-60 28,-72 40,-73 44,-71 40,-82 51,-73 41,-82 40,-73 33,-82 31,-83 20,-82 20,-84 11,-81 v -91 l -11,-94 -20,-82 -30,-83 -54,-61 -61,-41 -61,-43 -73,-41 -82,-41 -81,-30 -94,-20 -81,-44 -94,-30 -92,-31 -94,-20 -81,-43 -84,-28 -81,-43 -74,-41 -71,-51 81,-20 94,-30 82,-11 84,-22 91,-21 84,-20 81,-10 84,-10 91,-21 84,-10 92,-20 84,-21 81,-10 91,-20 84,-33 92,-20 53,-31 41,-30 30,-41 31,-53 20,-41 20,-51 v -51 -53 l -10,-112 -10,-114 -20,-112 -21,-104 -20,-114 -31,-102 -20,-117 -30,-89 -44,-53 -50,-30 -51,-31 -51,-30 -64,-11 -61,-20 -60,-10 -74,-10 51,-54 53,-40 51,-31 61,-30 73,-21 72,-10 71,10 73,11 125,40 112,41 114,63 112,61 94,82 91,94 64,111 z"
   id="path88"
   inkscape:connector-curvature="0"
   style="fill:#ffffff;stroke:none" />
         <path
   d="m 15202,17522 12,21 11,30 v 21 30 31 30 23 30 l -44,-10 -40,10 -41,11 h -41 -30 l -33,-11 -20,-20 -21,-33 10,-51 -10,-40 -10,-31 -20,-41 -21,-33 -20,-43 -30,-18 -23,-40 -51,-20 -41,-31 -20,-33 -10,-41 10,-50 10,-41 10,-53 10,-41 31,-41 84,41 71,41 71,43 53,61 41,61 51,73 20,82 z"
   id="path90"
   inkscape:connector-curvature="0"
   style="fill:#ffffff;stroke:none" />
         <path
   d="m 5627,17253 41,61 33,64 18,61 22,83 v 72 81 84 l -10,71 -30,74 -64,60 -50,72 -72,73 -73,51 -84,41 -81,40 -92,23 -84,-23 -61,-30 -63,-31 -41,-40 -40,-51 -41,-53 -31,-41 -33,-31 -81,-20 -61,-20 -53,-31 -31,-33 -30,-43 -21,-28 -10,-40 v -31 l 31,31 40,40 31,28 33,43 41,23 40,21 h 51 l 64,-11 20,61 30,51 41,51 51,53 53,31 41,30 51,21 63,20 71,-20 82,-41 83,-41 82,-53 63,-61 61,-81 41,-84 33,-92 v -63 -51 -51 l -23,-51 -10,-53 -10,-41 -21,-50 -20,-41 -41,-33 -53,-30 -51,-31 -51,-30 -63,-11 -61,-10 h -51 l -61,10 -43,11 -41,20 -30,20 -41,31 -30,20 -23,10 -20,-10 v -30 l -72,-41 h -50 l -54,10 -30,31 -41,20 -20,10 -10,-10 v -51 l 61,-41 50,-10 h 54 l 40,10 31,21 20,20 h 21 l 30,-10 94,-61 104,-31 92,-12 h 81 l 84,23 73,30 61,31 z"
   id="path92"
   inkscape:connector-curvature="0"
   style="fill:#000000;stroke:none" />
         <path
   d="m 14821,17573 33,51 10,20 10,31 -10,33 -10,20 -23,21 -21,10 h -30 -61 l -51,30 -53,41 -51,40 -51,54 -53,30 -61,21 -61,-11 10,-81 31,-53 61,-61 63,-41 61,-53 51,-61 30,-61 v -94 l 23,-20 h 31 l 30,7 31,23 20,20 20,33 21,31 z"
   id="path94"
   inkscape:connector-curvature="0"
   style="fill:#ffffff;stroke:none" />
         <path
   d="m 12113,8326 v 41 41 30 33 l -8,41 -13,30 -20,31 -20,30 -31,21 -43,22 -41,11 h -40 l -51,7 -53,-7 -41,-11 -41,-22 -40,-21 -44,-40 -25,-51 -10,-41 -20,-53 10,-51 20,-51 25,-40 44,-64 50,-41 72,-20 h 73 l 81,20 74,31 51,51 z"
   id="path96"
   inkscape:connector-curvature="0"
   style="fill:#ffffff;stroke:none" />
         <path
   d="m 11752,8377 v 10 31 l -10,20 -41,23 -51,-43 10,-51 21,-20 h 40 z"
   id="path98"
   inkscape:connector-curvature="0"
   style="fill:#000000;stroke:none" />
         <path
   d="m 11511,8222 v 43 51 l -11,41 -10,40 -18,31 -35,43 -18,31 -23,40 -40,31 -51,30 -43,21 -51,22 -41,11 h -40 -54 l -61,-11 -40,-33 -31,-40 -10,-31 -10,-40 v -41 l 10,-43 10,-51 31,-61 195,-196 h 41 61 43 51 l 40,11 41,20 33,30 z"
   id="path100"
   inkscape:connector-curvature="0"
   style="fill:#ffffff;stroke:none" />
         <path
   d="m 11396,8367 v 10 31 l -20,53 -20,51 -61,-104 10,-51 30,-21 h 31 z"
   id="path102"
   inkscape:connector-curvature="0"
   style="fill:#000000;stroke:none" />
         <path
   d="m 7771,19758 h -23 l -30,10 -20,20 -31,11 -30,20 -31,20 h -33 l -30,-10 20,-30 23,-31 20,-20 31,-26 30,-7 h 31 l 40,7 z"
   id="path104"
   inkscape:connector-curvature="0"
   style="fill:#ffffff;stroke:none" />
         <path
   d="m 4855,17533 -31,20 -33,-10 -20,-21 v -43 l 20,-33 33,13 21,10 10,31 z"
   id="path106"
   inkscape:connector-curvature="0"
   style="fill:#000000;stroke:none" />
         <path
   d="m 4814,17708 -33,10 -30,-10 -21,-23 v -41 l 21,-20 h 30 l 21,10 12,31 z"
   id="path108"
   inkscape:connector-curvature="0"
   style="fill:#000000;stroke:none" />
        </g>
       </g>
      </g>
     </g>
    </g>
   </g>
  </g>
 </g>
</svg>