<?xml version="1.0" encoding="UTF-8" standalone="no"?>
<svg
   xmlns:ooo="http://xml.openoffice.org/svg/export"
   xmlns:dc="http://purl.org/dc/elements/1.1/"
   xmlns:cc="http://creativecommons.org/ns#"
   xmlns:rdf="http://www.w3.org/1999/02/22-rdf-syntax-ns#"
   xmlns:svg="http://www.w3.org/2000/svg"
   xmlns="http://www.w3.org/2000/svg"
   xmlns:sodipodi="http://sodipodi.sourceforge.net/DTD/sodipodi-0.dtd"
   xmlns:inkscape="http://www.inkscape.org/namespaces/inkscape"
   version="1.2"
   width="20.620001mm"
   height="19.51mm"
   viewBox="0 0 2062.0001 1951"
   preserveAspectRatio="xMidYMid"
   xml:space="preserve"
   id="svg79"
   sodipodi:docname="skater.svg"
   style="fill-rule:evenodd;stroke-width:28.22200012;stroke-linejoin:round"
   inkscape:version="0.92.5 (2060ec1f9f, 2020-04-08)"><metadata
   id="metadata83"><rdf:RDF><cc:Work
       rdf:about=""><dc:format>image/svg+xml</dc:format><dc:type
         rdf:resource="http://purl.org/dc/dcmitype/StillImage" /></cc:Work></rdf:RDF></metadata><sodipodi:namedview
   pagecolor="#ffffff"
   bordercolor="#666666"
   borderopacity="1"
   objecttolerance="10"
   gridtolerance="10"
   guidetolerance="10"
   inkscape:pageopacity="0"
   inkscape:pageshadow="2"
   inkscape:window-width="664"
   inkscape:window-height="487"
   id="namedview81"
   showgrid="false"
   inkscape:zoom="0.2102413"
   inkscape:cx="38.96693"
   inkscape:cy="36.850392"
   inkscape:window-x="0"
   inkscape:window-y="0"
   inkscape:window-maximized="0"
   inkscape:current-layer="svg79" />
 <defs
   class="ClipPathGroup"
   id="defs8">
  <clipPath
   id="presentation_clip_path"
   clipPathUnits="userSpaceOnUse">
   <rect
   x="0"
   y="0"
   width="21000"
   height="29700"
   id="rect2" />
  </clipPath>
  <clipPath
   id="presentation_clip_path_shrink"
   clipPathUnits="userSpaceOnUse">
   <rect
   x="21"
   y="29"
   width="20958"
   height="29641"
   id="rect5" />
  </clipPath>
 </defs>
 <defs
   class="TextShapeIndex"
   id="defs12">
  <g
   ooo:slide="id1"
   ooo:id-list="id3"
   id="g10" />
 </defs>
 <defs
   class="EmbeddedBulletChars"
   id="defs44">
  <g
   id="bullet-char-template-57356"
   transform="matrix(4.8828125e-4,0,0,-4.8828125e-4,0,0)">
   <path
   d="M 580,1141 1163,571 580,0 -4,571 Z"
   id="path14"
   inkscape:connector-curvature="0" />
  </g>
  <g
   id="bullet-char-template-57354"
   transform="matrix(4.8828125e-4,0,0,-4.8828125e-4,0,0)">
   <path
   d="M 8,1128 H 1137 V 0 H 8 Z"
   id="path17"
   inkscape:connector-curvature="0" />
  </g>
  <g
   id="bullet-char-template-10146"
   transform="matrix(4.8828125e-4,0,0,-4.8828125e-4,0,0)">
   <path
   d="M 174,0 602,739 174,1481 1456,739 Z M 1358,739 309,1346 659,739 Z"
   id="path20"
   inkscape:connector-curvature="0" />
  </g>
  <g
   id="bullet-char-template-10132"
   transform="matrix(4.8828125e-4,0,0,-4.8828125e-4,0,0)">
   <path
   d="M 2015,739 1276,0 H 717 l 543,543 H 174 v 393 h 1086 l -543,545 h 557 z"
   id="path23"
   inkscape:connector-curvature="0" />
  </g>
  <g
   id="bullet-char-template-10007"
   transform="matrix(4.8828125e-4,0,0,-4.8828125e-4,0,0)">
   <path
   d="m 0,-2 c -7,16 -16,29 -25,39 l 381,530 c -94,256 -141,385 -141,387 0,25 13,38 40,38 9,0 21,-2 34,-5 21,4 42,12 65,25 l 27,-13 111,-251 280,301 64,-25 24,25 c 21,-10 41,-24 62,-43 C 886,937 835,863 770,784 769,783 710,716 594,584 L 774,223 c 0,-27 -21,-55 -63,-84 l 16,-20 C 717,90 699,76 672,76 641,76 570,178 457,381 L 164,-76 c -22,-34 -53,-51 -92,-51 -42,0 -63,17 -64,51 -7,9 -10,24 -10,44 0,9 1,19 2,30 z"
   id="path26"
   inkscape:connector-curvature="0" />
  </g>
  <g
   id="bullet-char-template-10004"
   transform="matrix(4.8828125e-4,0,0,-4.8828125e-4,0,0)">
   <path
   d="M 285,-33 C 182,-33 111,30 74,156 52,228 41,333 41,471 c 0,78 14,145 41,201 34,71 87,106 158,106 53,0 88,-31 106,-94 l 23,-176 c 8,-64 28,-97 59,-98 l 735,706 c 11,11 33,17 66,17 42,0 63,-15 63,-46 V 965 c 0,-36 -10,-64 -30,-84 L 442,47 C 390,-6 338,-33 285,-33 Z"
   id="path29"
   inkscape:connector-curvature="0" />
  </g>
  <g
   id="bullet-char-template-9679"
   transform="matrix(4.8828125e-4,0,0,-4.8828125e-4,0,0)">
   <path
   d="M 813,0 C 632,0 489,54 383,161 276,268 223,411 223,592 c 0,181 53,324 160,431 106,107 249,161 430,161 179,0 323,-54 432,-161 108,-107 162,-251 162,-431 0,-180 -54,-324 -162,-431 C 1136,54 992,0 813,0 Z"
   id="path32"
   inkscape:connector-curvature="0" />
  </g>
  <g
   id="bullet-char-template-8226"
   transform="matrix(4.8828125e-4,0,0,-4.8828125e-4,0,0)">
   <path
   d="m 346,457 c -73,0 -137,26 -191,78 -54,51 -81,114 -81,188 0,73 27,136 81,188 54,52 118,78 191,78 73,0 134,-26 185,-79 51,-51 77,-114 77,-187 0,-75 -25,-137 -76,-188 -50,-52 -112,-78 -186,-78 z"
   id="path35"
   inkscape:connector-curvature="0" />
  </g>
  <g
   id="bullet-char-template-8211"
   transform="matrix(4.8828125e-4,0,0,-4.8828125e-4,0,0)">
   <path
   d="M -4,459 H 1135 V 606 H -4 Z"
   id="path38"
   inkscape:connector-curvature="0" />
  </g>
  <g
   id="bullet-char-template-61548"
   transform="matrix(4.8828125e-4,0,0,-4.8828125e-4,0,0)">
   <path
   d="m 173,740 c 0,163 58,303 173,419 116,115 255,173 419,173 163,0 302,-58 418,-173 116,-116 174,-256 174,-419 0,-163 -58,-303 -174,-418 C 1067,206 928,148 765,148 601,148 462,206 346,322 231,437 173,577 173,740 Z"
   id="path41"
   inkscape:connector-curvature="0" />
  </g>
 </defs>
 <g
   id="g49"
   transform="translate(-9469,-13874)">
  <g
   id="id2"
   class="Master_Slide">
   <g
   id="bg-id2"
   class="Background" />
   <g
   id="bo-id2"
   class="BackgroundObjects" />
  </g>
 </g>
 <g
   class="SlideGroup"
   id="g77"
   transform="translate(-9469,-13874)">
  <g
   id="g75">
   <g
   id="container-id1">
    <g
   id="id1"
   class="Slide"
   clip-path="url(#presentation_clip_path)">
     <g
   class="Page"
   id="g71">
      <g
   class="Graphic"
   id="g69">
       <g
   id="id3">
        <rect
   class="BoundingBox"
   x="9469"
   y="13874"
   width="2062"
   height="1951"
   id="rect51"
   style="fill:none;stroke:none" />
        <defs
   id="defs56">
         <clipPath
   id="clip_path_1"
   clipPathUnits="userSpaceOnUse">
          <path
   d="m 9469,13874 h 2061 v 1950 H 9469 Z"
   id="path53"
   inkscape:connector-curvature="0" />
         </clipPath>
        </defs>
        <g
   clip-path="url(#clip_path_1)"
   id="g66">
         <path
   d="m 10717,15637 -5,-26 -10,-17 -13,-11 -17,-5 -13,-2 -13,-3 -15,-5 -18,-8 -15,-7 -13,-10 -13,-11 -10,-7 -15,-15 -13,-13 -10,-8 -5,-2 13,-41 -21,-13 6,-58 12,-87 18,-86 18,-61 10,-21 10,-20 13,-20 10,-21 8,-20 5,-15 -3,-16 -7,-12 -11,-16 -17,-25 -26,-28 -30,-30 -33,-28 -31,-26 -28,-20 -18,-10 13,-8 10,-8 10,-10 3,-2 -15,-21 -21,-23 -28,-25 -28,-28 -30,-23 -31,-23 -22,-15 -18,-10 h 28 30 l 33,-3 28,-2 28,-3 23,-5 18,-5 13,-5 10,10 20,10 23,10 28,11 28,10 25,7 26,8 18,5 20,-30 23,15 30,20 38,26 41,25 41,23 40,23 34,20 28,13 48,-3 53,-10 54,-15 53,-18 48,-20 44,-18 33,-20 20,-16 15,5 15,6 18,2 21,3 h 17 l 18,-3 15,-2 13,-6 15,-10 16,-2 15,2 23,3 h 20 l 10,-5 v -8 l -10,-13 -8,-7 -7,-8 -10,-8 -8,-7 -13,-8 -10,-5 -13,-5 -15,-3 15,-5 13,-2 h 13 10 10 10 l 8,2 h 8 l 7,-2 -7,-13 -13,-10 -18,-8 h -10 -10 -15 -13 l -13,3 h -15 l -10,2 h -10 l -21,3 -23,-3 -12,-7 v -8 l 10,-7 7,-8 11,-8 12,-10 10,-15 v -15 l -10,-8 -12,8 -18,12 -23,8 -18,5 -10,8 -5,20 -10,25 -11,23 -5,10 -15,8 -18,10 -20,10 -25,11 -28,10 -31,7 -35,6 h -41 l -36,-3 h -25 l -15,-3 h -8 -5 v 0 h 2 v 0 l -25,-17 -31,-23 -33,-23 -35,-20 -31,-21 -25,-15 -18,-10 -5,-5 -3,-8 -10,-10 -18,-13 -20,-15 -23,-15 -23,-13 -15,-10 -13,-5 h 11 12 l 16,2 15,3 15,2 15,5 13,3 8,5 17,5 21,-5 18,-8 5,-15 2,-13 10,-10 11,-5 2,-10 v -13 l 5,-10 10,-5 h 11 l 12,-3 8,-7 2,-10 -5,-11 -12,-7 -8,-10 -3,-11 3,-10 5,-12 3,-16 v -15 -5 h 12 18 l 20,-3 23,-7 21,-10 20,-13 15,-20 8,-23 2,-33 h -10 l -15,15 -10,13 -3,5 -7,7 -10,8 -13,8 -15,5 -16,2 h -18 l -20,-7 v -39 l -10,-35 -18,-26 -23,-23 -28,-17 -28,-11 -30,-5 h -31 l -30,5 -31,6 -28,10 -25,15 -20,20 -11,26 3,35 15,41 -13,10 -2,21 5,20 10,15 h -18 l -15,3 -10,5 h -5 l -8,-18 -12,-13 -21,-2 -23,5 v -15 l -5,-26 -10,-28 -10,-33 -15,-30 -16,-31 -12,-20 -16,-13 -33,8 -12,-23 -23,-28 -31,-28 -33,-31 -35,-28 -33,-20 -31,-15 -25,-5 -28,2 -31,5 -30,8 -31,10 -30,10 -26,13 -23,13 -20,15 -20,18 -23,25 -26,26 -25,28 -26,25 -22,20 -18,16 -13,5 h -13 -15 l -18,-3 -17,-2 h -18 l -18,-3 -13,-3 h -7 -16 l -15,6 -15,7 -18,13 -15,13 -13,7 -10,5 -10,3 -5,2 2,8 10,10 13,3 18,-5 25,-16 21,-12 10,-5 18,7 -16,10 -10,11 -10,12 -8,16 -5,15 -5,15 -5,10 -8,10 -2,8 10,8 18,2 20,-2 10,-5 13,-8 10,-10 13,-10 10,-11 10,-10 13,-7 10,-3 10,-2 11,-3 12,-5 10,-3 13,-2 h 10 13 l 13,5 20,15 15,15 16,11 h 20 l 10,-8 -5,-8 -10,-12 -10,-13 -3,-18 -2,-15 -5,-13 -13,-7 13,-11 12,-10 15,-10 13,-10 15,-8 16,-5 18,-8 17,-2 21,-3 25,-7 28,-8 28,-10 25,-13 26,-12 18,-13 15,-13 5,13 10,18 15,20 18,18 15,18 16,15 10,10 2,3 -20,12 -20,18 -15,13 -8,5 18,2 15,6 15,5 13,7 10,10 8,8 5,10 v 10 l -3,11 -5,12 -7,16 -11,12 -12,13 -16,10 -20,8 h -20 l -41,-3 h -41 -40 l -36,3 -33,2 -25,5 -23,6 -13,10 20,5 16,20 10,23 5,25 h -31 l -33,8 -35,10 -36,16 -33,20 -28,23 -23,25 -15,26 -10,28 -8,30 -5,33 v 33 l 8,33 15,31 28,30 38,28 5,28 10,33 21,28 25,18 3,28 v 28 l -3,23 -5,15 15,5 18,5 h 20 18 l 21,-2 h 12 l 13,-3 h 2 l 16,18 20,21 23,20 25,18 26,20 25,15 23,13 20,8 -22,28 -21,33 -18,38 -5,35 5,39 11,38 7,35 3,31 h -15 -13 l -13,2 -10,3 -10,3 -8,2 -7,5 -6,3 v 10 l 11,10 10,10 5,3 46,7 -18,11 -13,12 -2,13 7,10 13,10 2,11 v 12 l -7,13 -10,20 -11,23 -2,31 5,28 h 41 48 56 53 51 43 28 11 v -21 l -3,-15 -8,-10 -12,-5 h -11 l -12,-5 -15,-5 -16,-5 -18,-8 -15,-8 -12,-7 -13,-5 -21,-16 -15,-20 -10,-15 -3,-5 6,-8 12,-13 18,-15 15,-10 3,-5 -3,-5 -7,-10 -10,-8 -13,-8 -10,-7 -13,-5 -10,-3 5,-23 7,-28 11,-35 12,-39 13,-35 13,-33 13,-28 12,-18 15,-33 6,-41 -8,-33 -15,-23 -10,-18 -11,-23 -15,-22 -15,-23 -15,-23 -13,-18 -8,-10 -2,-5 23,10 17,10 18,8 15,5 13,5 8,5 5,3 h 2 l 28,20 31,20 30,18 33,18 28,15 28,15 21,11 15,7 -25,21 -18,20 -16,25 -12,26 -8,28 -2,25 v 21 l 2,20 13,43 15,56 10,56 v 46 l -23,-8 h -22 l -18,3 -8,2 -8,46 31,10 -15,13 33,28 -13,18 -5,28 v 33 28 z"
   id="path58"
   inkscape:connector-curvature="0"
   style="fill:#000000;stroke:none" />
         <path
   d="m 10832,15637 h -918 l -13,-3 -15,-2 -18,-8 -15,-8 -15,-10 -13,-10 -10,-8 -8,-10 -13,-7 -17,7 -11,18 3,23 8,10 10,13 15,10 18,10 20,10 23,5 26,6 27,2 h 23 39 48 61 71 74 79 81 81 79 71 66 56 46 31 15 13 12 13 l 13,-2 h 10 l 13,-6 10,-2 7,-8 6,-18 -11,-15 -15,-10 -15,3 -15,10 -16,2 h -15 z"
   id="path60"
   inkscape:connector-curvature="0"
   style="fill:#000000;stroke:none" />
         <path
   d="m 10016,15825 25,-5 20,-15 13,-21 5,-25 -5,-26 -13,-20 -20,-13 -25,-5 -26,5 -20,13 -15,20 -5,26 5,25 15,21 20,15 z"
   id="path62"
   inkscape:connector-curvature="0"
   style="fill:#000000;stroke:none" />
         <path
   d="m 10628,15825 26,-5 20,-15 15,-21 6,-25 -6,-26 -15,-20 -20,-13 -26,-5 -25,5 -20,13 -13,20 -5,26 5,25 13,21 20,15 z"
   id="path64"
   inkscape:connector-curvature="0"
   style="fill:#000000;stroke:none" />
        </g>
       </g>
      </g>
     </g>
    </g>
   </g>
  </g>
 </g>
</svg>