<?xml version="1.0" encoding="UTF-8" standalone="no"?>
<svg
   xmlns:ooo="http://xml.openoffice.org/svg/export"
   xmlns:dc="http://purl.org/dc/elements/1.1/"
   xmlns:cc="http://creativecommons.org/ns#"
   xmlns:rdf="http://www.w3.org/1999/02/22-rdf-syntax-ns#"
   xmlns:svg="http://www.w3.org/2000/svg"
   xmlns="http://www.w3.org/2000/svg"
   xmlns:sodipodi="http://sodipodi.sourceforge.net/DTD/sodipodi-0.dtd"
   xmlns:inkscape="http://www.inkscape.org/namespaces/inkscape"
   version="1.2"
   width="26.77mm"
   height="41mm"
   viewBox="0 0 2677 4100"
   preserveAspectRatio="xMidYMid"
   xml:space="preserve"
   id="svg464"
   sodipodi:docname="skeletn2.svg"
   style="fill-rule:evenodd;stroke-width:28.22200012;stroke-linejoin:round"
   inkscape:version="0.92.5 (2060ec1f9f, 2020-04-08)"><metadata
   id="metadata468"><rdf:RDF><cc:Work
       rdf:about=""><dc:format>image/svg+xml</dc:format><dc:type
         rdf:resource="http://purl.org/dc/dcmitype/StillImage" /></cc:Work></rdf:RDF></metadata><sodipodi:namedview
   pagecolor="#ffffff"
   bordercolor="#666666"
   borderopacity="1"
   objecttolerance="10"
   gridtolerance="10"
   guidetolerance="10"
   inkscape:pageopacity="0"
   inkscape:pageshadow="2"
   inkscape:window-width="664"
   inkscape:window-height="487"
   id="namedview466"
   showgrid="false"
   inkscape:zoom="0.2102413"
   inkscape:cx="50.607875"
   inkscape:cy="77.480313"
   inkscape:window-x="0"
   inkscape:window-y="0"
   inkscape:window-maximized="0"
   inkscape:current-layer="svg464" />
 <defs
   class="ClipPathGroup"
   id="defs8">
  <clipPath
   id="presentation_clip_path"
   clipPathUnits="userSpaceOnUse">
   <rect
   x="0"
   y="0"
   width="21000"
   height="29700"
   id="rect2" />
  </clipPath>
  <clipPath
   id="presentation_clip_path_shrink"
   clipPathUnits="userSpaceOnUse">
   <rect
   x="21"
   y="29"
   width="20958"
   height="29641"
   id="rect5" />
  </clipPath>
 </defs>
 <defs
   class="TextShapeIndex"
   id="defs12">
  <g
   ooo:slide="id1"
   ooo:id-list="id3"
   id="g10" />
 </defs>
 <defs
   class="EmbeddedBulletChars"
   id="defs44">
  <g
   id="bullet-char-template-57356"
   transform="matrix(4.8828125e-4,0,0,-4.8828125e-4,0,0)">
   <path
   d="M 580,1141 1163,571 580,0 -4,571 Z"
   id="path14"
   inkscape:connector-curvature="0" />
  </g>
  <g
   id="bullet-char-template-57354"
   transform="matrix(4.8828125e-4,0,0,-4.8828125e-4,0,0)">
   <path
   d="M 8,1128 H 1137 V 0 H 8 Z"
   id="path17"
   inkscape:connector-curvature="0" />
  </g>
  <g
   id="bullet-char-template-10146"
   transform="matrix(4.8828125e-4,0,0,-4.8828125e-4,0,0)">
   <path
   d="M 174,0 602,739 174,1481 1456,739 Z M 1358,739 309,1346 659,739 Z"
   id="path20"
   inkscape:connector-curvature="0" />
  </g>
  <g
   id="bullet-char-template-10132"
   transform="matrix(4.8828125e-4,0,0,-4.8828125e-4,0,0)">
   <path
   d="M 2015,739 1276,0 H 717 l 543,543 H 174 v 393 h 1086 l -543,545 h 557 z"
   id="path23"
   inkscape:connector-curvature="0" />
  </g>
  <g
   id="bullet-char-template-10007"
   transform="matrix(4.8828125e-4,0,0,-4.8828125e-4,0,0)">
   <path
   d="m 0,-2 c -7,16 -16,29 -25,39 l 381,530 c -94,256 -141,385 -141,387 0,25 13,38 40,38 9,0 21,-2 34,-5 21,4 42,12 65,25 l 27,-13 111,-251 280,301 64,-25 24,25 c 21,-10 41,-24 62,-43 C 886,937 835,863 770,784 769,783 710,716 594,584 L 774,223 c 0,-27 -21,-55 -63,-84 l 16,-20 C 717,90 699,76 672,76 641,76 570,178 457,381 L 164,-76 c -22,-34 -53,-51 -92,-51 -42,0 -63,17 -64,51 -7,9 -10,24 -10,44 0,9 1,19 2,30 z"
   id="path26"
   inkscape:connector-curvature="0" />
  </g>
  <g
   id="bullet-char-template-10004"
   transform="matrix(4.8828125e-4,0,0,-4.8828125e-4,0,0)">
   <path
   d="M 285,-33 C 182,-33 111,30 74,156 52,228 41,333 41,471 c 0,78 14,145 41,201 34,71 87,106 158,106 53,0 88,-31 106,-94 l 23,-176 c 8,-64 28,-97 59,-98 l 735,706 c 11,11 33,17 66,17 42,0 63,-15 63,-46 V 965 c 0,-36 -10,-64 -30,-84 L 442,47 C 390,-6 338,-33 285,-33 Z"
   id="path29"
   inkscape:connector-curvature="0" />
  </g>
  <g
   id="bullet-char-template-9679"
   transform="matrix(4.8828125e-4,0,0,-4.8828125e-4,0,0)">
   <path
   d="M 813,0 C 632,0 489,54 383,161 276,268 223,411 223,592 c 0,181 53,324 160,431 106,107 249,161 430,161 179,0 323,-54 432,-161 108,-107 162,-251 162,-431 0,-180 -54,-324 -162,-431 C 1136,54 992,0 813,0 Z"
   id="path32"
   inkscape:connector-curvature="0" />
  </g>
  <g
   id="bullet-char-template-8226"
   transform="matrix(4.8828125e-4,0,0,-4.8828125e-4,0,0)">
   <path
   d="m 346,457 c -73,0 -137,26 -191,78 -54,51 -81,114 -81,188 0,73 27,136 81,188 54,52 118,78 191,78 73,0 134,-26 185,-79 51,-51 77,-114 77,-187 0,-75 -25,-137 -76,-188 -50,-52 -112,-78 -186,-78 z"
   id="path35"
   inkscape:connector-curvature="0" />
  </g>
  <g
   id="bullet-char-template-8211"
   transform="matrix(4.8828125e-4,0,0,-4.8828125e-4,0,0)">
   <path
   d="M -4,459 H 1135 V 606 H -4 Z"
   id="path38"
   inkscape:connector-curvature="0" />
  </g>
  <g
   id="bullet-char-template-61548"
   transform="matrix(4.8828125e-4,0,0,-4.8828125e-4,0,0)">
   <path
   d="m 173,740 c 0,163 58,303 173,419 116,115 255,173 419,173 163,0 302,-58 418,-173 116,-116 174,-256 174,-419 0,-163 -58,-303 -174,-418 C 1067,206 928,148 765,148 601,148 462,206 346,322 231,437 173,577 173,740 Z"
   id="path41"
   inkscape:connector-curvature="0" />
  </g>
 </defs>
 <g
   id="g49"
   transform="translate(-9161,-12800)">
  <g
   id="id2"
   class="Master_Slide">
   <g
   id="bg-id2"
   class="Background" />
   <g
   id="bo-id2"
   class="BackgroundObjects" />
  </g>
 </g>
 <g
   class="SlideGroup"
   id="g462"
   transform="translate(-9161,-12800)">
  <g
   id="g460">
   <g
   id="container-id1">
    <g
   id="id1"
   class="Slide"
   clip-path="url(#presentation_clip_path)">
     <g
   class="Page"
   id="g456">
      <g
   class="Graphic"
   id="g454">
       <g
   id="id3">
        <rect
   class="BoundingBox"
   x="9161"
   y="12800"
   width="2677"
   height="4100"
   id="rect51"
   style="fill:none;stroke:none" />
        <path
   d="m 10900,14661 -3,-13 -7,-8 -10,-7 -16,-5 -12,-3 -16,-5 -12,-3 -11,-5 -10,-5 -10,-5 -13,-5 -15,-2 -15,-3 -18,-3 h -18 -20 l -28,-10 -10,-28 2,-33 5,-33 3,-25 -3,-23 -7,-18 -10,-10 -8,-10 -5,-10 -5,-11 v -15 l 10,13 13,13 15,7 20,3 23,7 18,18 10,28 8,23 7,18 16,13 20,2 25,-10 8,46 -10,7 -3,18 5,15 18,3 13,-13 3,-12 -11,-13 -15,-5 -8,-46 13,-8 13,-2 10,-3 10,3 10,2 11,3 10,2 h 10 10 l 10,-2 10,-3 11,-2 10,-3 10,3 13,2 12,8 -10,46 -13,5 -10,13 3,12 13,13 15,-3 7,-15 -5,-18 -10,-7 10,-46 23,10 23,-2 15,-13 8,-18 8,-23 10,-28 18,-18 22,-7 21,-3 18,-7 10,-13 10,-13 v 15 l -5,11 -5,10 -10,10 -8,10 -8,18 -2,23 2,25 5,33 3,33 -10,28 -28,10 h -21 -17 l -18,3 -15,3 -16,2 -12,5 -10,5 -11,5 -10,5 -13,3 -15,5 -13,3 -15,5 -10,7 -8,8 z"
   id="path53"
   inkscape:connector-curvature="0"
   style="fill:#8caa93;stroke:none" />
        <path
   d="m 10963,14399 -2,10 -10,8 -10,2 -13,3 -8,2 -2,3 v 7 l 2,8 v 8 l -2,5 -5,5 h -8 -8 l -5,-5 -2,-5 2,-8 3,-8 v -7 l -5,-3 -8,-2 -13,-3 -10,-2 -7,-8 -3,-10 5,-8 13,-5 18,-5 h 23 l 20,3 18,2 12,5 z"
   id="path55"
   inkscape:connector-curvature="0"
   style="fill:#8caa93;stroke:none" />
        <path
   d="m 10963,14287 -2,10 -10,8 -10,5 h -13 l -8,2 -2,5 v 6 l 2,10 v 7 l -2,5 -5,3 -8,3 -8,-3 -5,-3 -2,-5 2,-7 3,-10 v -6 l -5,-5 -8,-2 h -13 l -10,-5 -7,-8 -3,-10 5,-8 13,-5 18,-2 h 23 20 l 18,2 12,5 z"
   id="path57"
   inkscape:connector-curvature="0"
   style="fill:#8caa93;stroke:none" />
        <path
   d="m 10963,14178 -2,10 -10,7 -10,3 -13,3 -8,2 -2,3 v 7 l 2,8 v 8 l -2,5 -5,5 h -8 -8 l -5,-5 -2,-5 2,-8 3,-8 v -7 l -5,-3 -8,-2 -13,-3 -10,-3 -7,-7 -3,-10 5,-8 13,-5 18,-5 h 23 l 20,2 18,3 12,5 z"
   id="path59"
   inkscape:connector-curvature="0"
   style="fill:#8caa93;stroke:none" />
        <path
   d="m 10963,14066 -2,10 -10,8 -10,5 h -13 l -8,2 -2,5 v 5 l 2,11 v 7 l -2,5 -5,3 -8,2 -8,-2 -5,-3 -2,-5 2,-7 3,-11 v -5 l -5,-5 -8,-2 h -13 l -10,-5 -7,-8 -3,-10 5,-8 13,-5 18,-2 h 23 20 l 18,2 12,5 z"
   id="path61"
   inkscape:connector-curvature="0"
   style="fill:#8caa93;stroke:none" />
        <path
   d="m 10905,13641 h -8 l -5,-5 -2,-5 2,-7 3,-8 v -8 l -5,-2 -8,-3 -13,-2 -10,-3 -7,-7 -3,-11 -5,11 v 10 l -3,10 3,5 3,8 2,5 v 5 h -8 l -10,-3 -5,3 -5,7 -2,8 v 10 l 5,5 2,3 h 8 7 6 l 2,5 v 5 l 3,8 5,2 7,5 h 8 15 l 5,5 5,3 8,2 8,-2 5,-3 5,-5 h 15 8 l 10,-5 5,-2 2,-8 v -8 l 3,-2 3,-3 h 5 7 l 8,-2 2,-5 3,-11 -3,-7 -5,-8 h -10 l -10,3 h -5 v -5 l 2,-5 3,-8 3,-5 v -10 -10 l -6,-11 -2,11 -10,7 -10,3 -13,2 -8,3 -2,2 v 8 l 2,8 v 7 l -2,5 -5,5 z"
   id="path63"
   inkscape:connector-curvature="0"
   style="fill:#8caa93;stroke:none" />
        <path
   d="m 10905,13313 h -8 l -5,-5 -2,-5 2,-7 3,-8 v -8 l -5,-2 -8,-3 -13,-2 -10,-3 -7,-7 -3,-11 -5,11 v 10 l -3,10 3,8 3,5 2,7 v 5 l -8,-2 -10,-3 -5,3 -5,7 -2,11 v 7 l 5,5 2,3 h 8 7 6 l 2,5 v 5 l 3,8 5,2 7,5 h 8 15 l 5,5 5,3 8,2 8,-2 5,-3 5,-5 h 15 8 l 10,-5 5,-2 2,-8 v -5 l 3,-5 3,-3 h 5 7 l 8,-2 2,-5 3,-10 -3,-8 -5,-8 h -10 l -10,3 h -5 v -5 l 2,-5 3,-5 3,-8 v -10 -10 l -6,-11 -2,11 -10,7 -10,3 -13,2 -8,3 -2,2 v 8 l 2,8 v 7 l -2,5 -5,5 z"
   id="path65"
   inkscape:connector-curvature="0"
   style="fill:#568272;stroke:none" />
        <path
   d="m 10900,14079 h -8 l -5,-3 -5,-5 -15,-13 -31,36 -35,28 -38,15 -39,10 -35,3 h -33 l -26,-3 -15,-2 -20,-11 -18,-20 -8,-23 5,-25 -22,-15 -11,-28 v -31 l 13,-25 -18,-23 -7,-28 5,-31 20,-20 -10,-18 v -25 l 5,-28 20,-20 -17,-8 -16,-13 -12,-18 -11,-20 -7,-23 -8,-25 v -23 -26 l 5,-20 10,-15 16,-13 18,-7 20,-6 18,-2 h 20 15 l 8,-8 8,-7 10,-5 12,-8 18,-3 21,-2 h 25 l 30,2 13,-5 15,-7 18,-5 21,-5 20,-3 23,-3 20,3 18,3 18,-3 20,-3 20,3 23,3 21,5 17,5 16,7 12,5 31,-2 h 25 l 21,2 17,3 13,8 10,5 8,7 8,8 h 15 20 l 20,2 18,6 21,7 15,13 10,15 5,20 v 26 23 l -8,25 -7,23 -10,20 -13,18 -15,13 -18,8 20,20 5,28 -2,25 -8,18 21,20 5,31 -8,28 -18,23 13,25 v 31 l -13,28 -20,15 5,25 -10,23 -18,20 -20,11 -16,2 -25,3 h -33 l -36,-3 -38,-10 -38,-15 -38,-28 -31,-36 -12,13 -8,5 -5,3 z"
   id="path67"
   inkscape:connector-curvature="0"
   style="fill:#60897c;stroke:none" />
        <path
   d="m 10951,14737 v -33 l 2,-26 10,-15 13,-7 10,-3 13,5 10,10 5,13 -15,-3 -20,8 -21,20 z"
   id="path69"
   inkscape:connector-curvature="0"
   style="fill:#60897c;stroke:none" />
        <path
   d="m 10849,14737 v -33 l -2,-26 -11,-15 -10,-7 -13,-3 -12,5 -10,10 -5,13 15,-3 20,8 20,20 z"
   id="path71"
   inkscape:connector-curvature="0"
   style="fill:#60897c;stroke:none" />
        <path
   d="m 10963,14506 -2,10 -10,7 -10,3 -13,2 -8,3 -2,3 v 7 l 2,8 v 7 l -2,6 -5,5 h -8 -8 l -5,-5 -2,-6 2,-7 3,-8 v -7 l -5,-3 -8,-3 -13,-2 -10,-3 -7,-7 -3,-10 5,-8 13,-5 18,-5 h 23 l 20,2 18,3 12,5 z"
   id="path73"
   inkscape:connector-curvature="0"
   style="fill:#60897c;stroke:none" />
        <path
   d="m 10963,13471 -2,10 -10,8 -10,2 -13,3 -8,2 -2,3 v 8 l 2,7 v 8 l -2,5 -5,5 h -8 -8 l -5,-5 -2,-5 2,-8 3,-7 v -8 l -5,-3 -8,-2 -13,-3 -10,-2 -7,-8 -3,-10 5,-8 13,-5 18,-5 h 23 l 20,3 18,2 12,5 z"
   id="path75"
   inkscape:connector-curvature="0"
   style="fill:#60897c;stroke:none" />
        <path
   d="m 10963,13362 -2,10 -10,8 -10,2 -13,3 -8,2 -2,3 v 7 l 2,8 v 8 l -2,5 -5,5 h -8 -8 l -5,-5 -2,-5 2,-8 3,-8 v -7 l -5,-3 -8,-2 -13,-3 -10,-2 -7,-8 -3,-10 5,-8 13,-5 18,-5 h 23 l 20,2 18,3 12,5 z"
   id="path77"
   inkscape:connector-curvature="0"
   style="fill:#60897c;stroke:none" />
        <path
   d="m 10963,13580 -2,11 -10,7 -10,3 -13,2 -8,3 -2,2 v 8 l 2,8 v 7 l -2,5 -5,5 h -8 -8 l -5,-5 -2,-5 2,-7 3,-8 v -8 l -5,-2 -8,-3 -13,-2 -10,-3 -7,-7 -3,-11 5,-7 13,-5 18,-5 h 23 l 20,2 18,3 12,5 z"
   id="path79"
   inkscape:connector-curvature="0"
   style="fill:#60897c;stroke:none" />
        <path
   d="m 10900,14661 -3,-13 -7,-8 -10,-7 -16,-5 -12,-3 -16,-5 -12,-3 -11,-5 -10,-5 -10,-5 -13,-5 -15,-2 -15,-3 -18,-3 h -18 -20 l -28,-10 -10,-28 2,-33 5,-33 3,-25 -3,-23 -7,-18 -10,-10 -8,-10 -5,-10 -5,-11 v -15 l -13,-7 -15,-3 -18,5 -13,13 -7,18 -3,17 3,21 12,15 16,13 12,10 11,13 2,20 v 20 16 l 5,10 3,10 2,10 v 10 l -5,10 -5,8 -7,13 -6,18 3,12 15,3 26,-3 h 20 l 13,10 5,18 2,28 5,26 v 20 l -15,13 -15,12 v 13 l 10,13 18,5 18,5 12,8 8,10 3,15 40,-41 -12,-18 5,-22 10,-31 13,-38 5,-13 10,-10 12,-5 13,3 10,7 11,15 2,26 v 33 l -8,28 -7,18 -10,10 -13,5 -13,2 -10,-2 -10,-3 -8,-5 -40,41 7,18 18,18 23,10 23,-5 15,-21 10,-20 15,-15 31,-8 8,-5 2,-8 -2,-12 -3,-13 v -20 l 3,-18 7,-8 13,10 13,-10 7,8 3,18 v 20 l -3,13 -2,12 2,8 8,5 30,8 16,15 10,20 13,21 22,5 26,-10 18,-18 7,-18 -40,-41 -8,5 -10,3 -10,2 -13,-2 -13,-5 -10,-10 -8,-18 -7,-28 v -33 l 2,-26 10,-15 13,-7 10,-3 13,5 10,10 5,13 13,38 10,31 5,22 -12,18 40,41 3,-15 7,-10 11,-8 17,-5 18,-5 13,-13 v -13 l -15,-12 -16,-13 v -20 l 5,-26 3,-28 5,-18 13,-10 h 20 l 26,3 15,-3 2,-12 -5,-18 -7,-13 -8,-8 -3,-10 -2,-10 2,-10 6,-10 5,-10 v -16 -20 l 2,-20 10,-13 16,-10 15,-13 13,-15 2,-21 -2,-17 -8,-18 -15,-13 -16,-5 -17,3 -13,7 v 15 l -5,11 -5,10 -10,10 -8,10 -8,18 -2,23 2,25 5,33 3,33 -10,28 -28,10 h -21 -17 l -18,3 -15,3 -16,2 -12,5 -10,5 -11,5 -10,5 -13,3 -15,5 -13,3 -15,5 -10,7 -8,8 z"
   id="path81"
   inkscape:connector-curvature="0"
   style="fill:#c9d3c9;stroke:none" />
        <path
   d="m 10905,14460 h -8 l -5,-5 -2,-5 2,-8 3,-8 v -7 l -5,-3 -8,-2 -13,-3 -10,-2 -7,-8 -3,-10 -5,10 v 10 l -3,10 3,8 3,5 -3,3 -5,2 -8,-2 h -10 l -13,2 -10,8 -2,10 2,8 8,5 h 7 l 11,-3 7,3 10,2 6,8 2,7 3,8 5,3 7,5 h 8 15 l 5,5 5,2 8,3 8,-3 5,-2 5,-5 h 15 8 l 10,-5 5,-3 2,-8 3,-7 5,-8 8,-2 7,-3 11,3 h 7 l 8,-5 2,-8 -2,-10 -10,-8 -11,-2 h -10 l -10,2 -5,-2 v -3 -5 l 3,-8 v -10 -10 l -6,-10 -2,10 -10,8 -10,2 -13,3 -8,2 -2,3 v 7 l 2,8 v 8 l -2,5 -5,5 z"
   id="path83"
   inkscape:connector-curvature="0"
   style="fill:#c9d3c9;stroke:none" />
        <path
   d="m 10905,14351 -8,-3 -5,-3 -2,-5 2,-7 3,-10 v -6 l -5,-5 -8,-2 h -13 l -10,-5 -7,-8 -3,-10 -5,10 v 10 l -3,10 3,8 3,5 -3,5 h -5 l -8,-2 h -10 l -13,2 -10,10 -2,11 2,7 8,3 h 7 11 7 l 10,5 6,5 2,8 3,7 5,5 7,3 h 8 l 15,2 5,3 5,5 8,3 8,-3 5,-5 5,-3 15,-2 h 8 l 10,-3 5,-5 2,-7 3,-8 5,-5 8,-5 h 7 11 7 l 8,-3 2,-7 -2,-11 -10,-10 -11,-2 h -10 l -10,2 h -5 v -5 -5 l 3,-8 v -10 -10 l -6,-10 -2,10 -10,8 -10,5 h -13 l -8,2 -2,5 v 6 l 2,10 v 7 l -2,5 -5,3 z"
   id="path85"
   inkscape:connector-curvature="0"
   style="fill:#c9d3c9;stroke:none" />
        <path
   d="m 10905,14239 h -8 l -5,-5 -2,-5 2,-8 3,-8 v -7 l -5,-3 -8,-2 -13,-3 -10,-3 -7,-7 -3,-10 -5,10 v 10 l -3,10 3,8 3,5 -3,2 -5,3 -8,-3 h -10 l -13,3 -10,8 -2,10 2,7 8,5 h 7 l 11,-2 7,2 10,3 6,8 2,7 3,8 5,2 7,6 h 8 15 l 5,5 5,2 8,3 8,-3 5,-2 5,-5 h 15 8 l 10,-6 5,-2 2,-8 3,-7 5,-8 8,-3 7,-2 11,2 h 7 l 8,-5 2,-7 -2,-10 -10,-8 -11,-3 h -10 l -10,3 -5,-3 v -2 -5 l 3,-8 v -10 -10 l -6,-10 -2,10 -10,7 -10,3 -13,3 -8,2 -2,3 v 7 l 2,8 v 8 l -2,5 -5,5 z"
   id="path87"
   inkscape:connector-curvature="0"
   style="fill:#c9d3c9;stroke:none" />
        <path
   d="m 10905,14129 -8,-2 -5,-3 -2,-5 2,-7 3,-11 v -5 l -5,-5 -8,-2 h -13 l -10,-5 -7,-8 -3,-10 -5,10 v 10 l -3,10 3,8 3,5 -3,5 h -5 l -8,-2 h -10 l -13,2 -10,10 -2,10 2,8 8,3 h 7 11 7 l 10,5 6,5 2,7 3,8 5,5 7,3 h 8 l 15,2 5,3 5,5 8,2 8,-2 5,-5 5,-3 15,-2 h 8 l 10,-3 5,-5 2,-8 3,-7 5,-5 8,-5 h 7 11 7 l 8,-3 2,-8 -2,-10 -10,-10 -11,-2 h -10 l -10,2 h -5 v -5 -5 l 3,-8 v -10 -10 l -6,-10 -2,10 -10,8 -10,5 h -13 l -8,2 -2,5 v 5 l 2,11 v 7 l -2,5 -5,3 z"
   id="path89"
   inkscape:connector-curvature="0"
   style="fill:#c9d3c9;stroke:none" />
        <path
   d="m 10905,13423 h -8 l -5,-5 -2,-5 2,-8 3,-8 v -7 l -5,-3 -8,-2 -13,-3 -10,-2 -7,-8 -3,-10 -5,10 v 10 l -3,10 3,5 3,8 2,8 v 5 l -8,-3 -10,-2 -5,2 -5,8 -2,7 v 11 l 5,5 2,2 h 8 7 6 l 2,5 v 5 l 3,8 5,3 7,5 h 8 15 l 5,5 5,2 8,3 8,-3 5,-2 5,-5 h 15 8 l 10,-5 5,-3 2,-8 v -5 l 3,-5 3,-2 h 5 7 l 8,-3 2,-5 3,-10 -3,-8 -5,-7 h -10 l -10,2 h -5 v -5 l 2,-5 3,-8 3,-5 v -10 -10 l -6,-10 -2,10 -10,8 -10,2 -13,3 -8,2 -2,3 v 7 l 2,8 v 8 l -2,5 -5,5 z"
   id="path91"
   inkscape:connector-curvature="0"
   style="fill:#c9d3c9;stroke:none" />
        <path
   d="m 10905,13532 h -8 l -5,-5 -2,-5 2,-8 3,-7 v -8 l -5,-3 -8,-2 -13,-3 -10,-2 -7,-8 -3,-10 -5,10 v 10 l -3,11 3,5 3,7 2,5 v 5 h -8 l -10,-2 -5,2 -5,8 -2,8 v 10 l 5,5 2,2 h 8 7 6 l 2,6 v 5 l 3,7 5,3 7,5 h 8 15 l 5,5 5,3 8,2 8,-2 5,-3 5,-5 h 15 8 l 10,-5 5,-3 2,-7 v -5 l 3,-6 3,-2 h 5 7 l 8,-3 2,-5 3,-10 -3,-7 -5,-8 h -10 l -10,2 h -5 v -5 l 2,-5 3,-7 3,-5 v -11 -10 l -6,-10 -2,10 -10,8 -10,2 -13,3 -8,2 -2,3 v 8 l 2,7 v 8 l -2,5 -5,5 z"
   id="path93"
   inkscape:connector-curvature="0"
   style="fill:#c9d3c9;stroke:none" />
        <path
   d="m 10900,14079 h -8 l -5,-3 -5,-5 -15,-13 -3,-5 -5,-10 -5,-13 -2,-7 -26,48 -33,36 -35,20 -39,13 -35,7 h -31 -25 l -13,-2 -20,-11 -18,-20 -8,-23 5,-25 3,5 5,10 8,10 10,8 18,10 20,5 h 25 l 31,-2 20,-5 21,-13 17,-13 18,-18 13,-15 13,-20 7,-18 5,-15 -38,38 -38,23 -38,15 -36,5 -30,3 -26,-6 -17,-2 -11,-5 -22,-15 -11,-28 v -31 l 13,-25 -2,5 v 7 11 l 5,10 7,7 16,11 20,5 30,2 h 41 l 36,-7 30,-13 26,-15 20,-16 18,-20 10,-18 8,-18 -39,31 -40,18 -41,12 -38,3 h -38 l -31,-5 -23,-5 -15,-5 -18,-23 -7,-28 5,-31 20,-20 v 13 l 10,20 16,18 30,10 18,3 25,2 33,-2 33,-6 36,-7 31,-15 30,-23 20,-31 -15,13 -25,15 -38,15 -41,11 -46,5 -43,-3 -41,-13 -33,-25 -10,-18 v -25 l 5,-28 20,-20 -5,22 16,23 28,21 40,12 49,5 53,-5 51,-20 48,-33 -28,10 -35,8 -39,2 h -40 l -38,-2 -36,-8 -28,-13 -18,-15 -15,-33 2,-30 13,-26 21,-23 -8,33 18,31 35,25 46,18 48,8 51,-3 43,-18 31,-30 -25,10 -39,8 -43,2 -46,-5 -43,-13 -33,-25 -23,-36 -2,-50 7,-39 13,-25 18,-15 18,-10 17,-3 h 16 l 12,3 8,2 -23,8 -20,18 -15,28 -8,38 5,23 10,20 18,15 25,15 31,11 33,2 41,-2 43,-8 5,-5 8,-5 10,-5 10,-3 h 10 l 10,5 8,5 2,8 44,8 40,2 36,-2 30,-11 23,-15 21,-15 10,-20 5,-23 -8,-38 -15,-28 -20,-18 -23,-8 7,-2 13,-3 h 15 l 18,3 18,10 18,15 12,25 8,39 -2,50 -23,36 -33,25 -44,13 -45,5 -44,-2 -38,-8 -25,-10 30,30 44,18 50,3 51,-8 46,-18 33,-25 18,-31 -8,-33 23,23 13,26 v 30 l -15,33 -18,15 -28,13 -36,8 -38,2 h -41 l -38,-2 -35,-8 -28,-10 48,33 51,20 53,5 49,-5 40,-12 31,-21 15,-23 -5,-22 20,20 5,28 -2,25 -8,18 -33,25 -41,13 -45,3 -46,-5 -41,-11 -35,-15 -28,-15 -16,-13 21,31 28,23 33,15 35,7 33,6 31,2 28,-2 18,-3 30,-10 18,-18 10,-20 v -13 l 21,20 5,31 -8,28 -18,23 -15,5 -23,5 -30,5 h -39 l -40,-3 -41,-12 -41,-18 -38,-31 8,18 10,18 18,20 20,16 26,15 30,13 36,7 h 40 l 31,-2 20,-5 15,-11 11,-7 5,-10 v -11 -7 l -3,-5 13,25 v 31 l -13,28 -20,15 -10,5 -21,2 -25,6 -31,-3 -35,-5 -38,-15 -38,-23 -39,-38 6,15 7,18 13,20 13,15 17,18 18,13 20,13 21,5 30,2 h 28 l 21,-5 15,-10 13,-8 7,-10 5,-10 3,-5 5,25 -10,23 -18,20 -20,11 -16,2 h -22 -34 l -35,-7 -36,-13 -35,-20 -33,-36 -26,-48 -2,7 -5,13 -8,10 -3,5 -12,13 -8,5 -5,3 z"
   id="path95"
   inkscape:connector-curvature="0"
   style="fill:#c9d3c9;stroke:none" />
        <path
   d="m 10796,14157 -26,5 h -25 -26 l -22,-2 -23,-3 -18,-2 -13,-3 -10,-2 -10,2 -5,10 5,16 15,12 23,8 25,3 26,-3 23,-5 20,-8 18,-7 15,-10 z"
   id="path97"
   inkscape:connector-curvature="0"
   style="fill:#c9d3c9;stroke:none" />
        <path
   d="m 11004,14157 26,5 h 25 25 l 23,-2 23,-3 18,-2 13,-3 10,-2 10,2 5,10 -5,16 -15,12 -23,8 -26,3 -25,-3 -23,-5 -20,-8 -18,-7 -15,-10 z"
   id="path99"
   inkscape:connector-curvature="0"
   style="fill:#c9d3c9;stroke:none" />
        <path
   d="m 10963,13252 -2,11 -10,7 -10,3 -13,2 -8,3 -2,2 v 8 l 2,8 v 7 l -2,5 -5,5 h -8 -8 l -5,-5 -2,-5 2,-7 3,-8 v -8 l -5,-2 -8,-3 -13,-2 -10,-3 -7,-7 -3,-11 5,-7 13,-5 18,-5 h 23 l 20,2 18,3 12,5 z"
   id="path101"
   inkscape:connector-curvature="0"
   style="fill:#c9d3c9;stroke:none" />
        <path
   d="m 10549,13626 5,33 -7,36 -16,28 -28,10 h -15 l -15,2 -13,3 -13,2 -12,8 -10,5 -11,8 -7,10 -13,20 -20,36 -28,51 -31,56 -28,58 -28,54 -20,45 -10,28 -8,33 -2,28 2,23 3,20 v 21 l -3,23 -10,17 -25,8 -23,-5 -11,-10 -7,-13 -13,-2 -23,2 -23,-5 -17,-13 -5,-25 2,-13 8,-10 7,-10 10,-8 11,-10 15,-13 13,-12 15,-21 20,-30 26,-46 30,-56 33,-61 31,-63 30,-59 23,-51 18,-35 13,-28 12,-28 10,-26 13,-23 13,-22 13,-18 12,-15 16,-11 28,-5 20,13 13,15 5,16 5,7 5,8 7,10 z"
   id="path103"
   inkscape:connector-curvature="0"
   style="fill:#c9d3c9;stroke:none" />
        <path
   d="m 10186,14292 25,-8 10,-17 3,-23 v -21 l -3,-20 -2,-23 2,-28 8,-33 10,-28 20,-45 28,-54 28,-58 31,-56 28,-51 20,-36 13,-20 7,-10 11,-8 10,-5 12,-8 13,-2 13,-3 15,-2 h 15 l 28,-10 16,-28 7,-36 -5,-33 v 20 l -5,18 -8,13 -20,5 h -13 -12 -16 l -12,3 -13,2 -13,8 -12,10 -13,15 -15,28 -26,43 -28,56 -33,61 -30,64 -28,56 -21,43 -12,28 -13,30 -13,33 -5,28 3,21 7,18 3,22 -3,23 z"
   id="path105"
   inkscape:connector-curvature="0"
   style="fill:#8caa93;stroke:none" />
        <path
   d="m 9601,14589 -3,8 -5,8 -10,10 -13,10 -12,8 -13,2 -13,-5 -10,-10 -13,-23 -2,-13 v -7 -5 l -5,-13 -5,-20 -3,-18 5,-15 15,-8 18,-3 h 15 l 13,5 10,13 10,18 6,18 -3,5 v 2 l 5,11 8,12 z"
   id="path107"
   inkscape:connector-curvature="0"
   style="fill:#c9d3c9;stroke:none" />
        <path
   d="m 9499,14506 -5,15 3,18 5,20 5,13 v 5 7 l 2,13 13,23 10,10 13,5 13,-2 12,-8 13,-10 10,-10 5,-8 3,-8 -10,13 -23,13 h -18 l -8,-23 11,-3 10,-5 7,-10 v -15 l -7,10 -10,5 -11,3 -12,-8 -8,-13 3,-15 2,-13 3,-5 -11,-2 -7,-8 -10,-5 z"
   id="path109"
   inkscape:connector-curvature="0"
   style="fill:#8caa93;stroke:none" />
        <path
   d="m 9535,14628 7,2 8,5 3,8 -6,10 -12,13 -10,20 -8,18 -3,13 v 12 l -2,13 -8,5 -13,-8 h -7 l -5,-2 -5,-5 v -10 l 5,-11 5,-5 5,-10 5,-12 5,-16 5,-15 v -10 -8 l 3,-7 7,-8 11,-3 z"
   id="path111"
   inkscape:connector-curvature="0"
   style="fill:#c9d3c9;stroke:none" />
        <path
   d="m 9491,14737 6,5 2,8 v 5 l -8,7 -7,3 h -3 v 0 h -2 l -5,5 -10,8 -8,7 -8,5 h -5 -5 l -2,-5 -3,-5 -5,-5 v -5 -8 l 8,-2 7,-5 5,-3 3,-5 7,-8 8,-7 10,-5 h 10 z"
   id="path113"
   inkscape:connector-curvature="0"
   style="fill:#c9d3c9;stroke:none" />
        <path
   d="m 9436,14778 2,7 -2,8 -3,7 h -8 -7 -8 -7 -6 l -7,3 -8,-3 -5,-2 -2,-3 2,-5 10,-5 10,-2 8,-5 8,-8 7,-5 8,2 z"
   id="path115"
   inkscape:connector-curvature="0"
   style="fill:#c9d3c9;stroke:none" />
        <path
   d="m 9415,14640 5,8 3,8 -3,7 -10,3 -15,2 -20,5 -16,8 -10,8 -5,10 -8,7 -7,-2 -8,-15 -7,-5 -6,-8 v -8 l 8,-7 10,-3 h 8 l 10,-2 10,-6 10,-10 11,-7 7,-5 5,-5 5,-6 h 11 l 7,8 z"
   id="path117"
   inkscape:connector-curvature="0"
   style="fill:#c9d3c9;stroke:none" />
        <path
   d="m 9321,14686 3,5 v 8 l -3,5 -10,2 -10,3 h -8 l -5,2 h -5 l -8,3 -10,5 -12,5 -8,3 h -5 l -3,-5 -2,-3 v -8 l -5,-5 v -7 l 5,-5 5,-3 10,-2 15,-3 13,-2 10,-6 10,-5 10,-2 11,2 z"
   id="path119"
   inkscape:connector-curvature="0"
   style="fill:#c9d3c9;stroke:none" />
        <path
   d="m 9237,14711 v 8 l -2,8 -5,2 h -8 l -8,-2 -2,-5 h -5 -8 -5 l -8,-3 -5,-5 v -5 l 3,-3 8,-2 h 7 l 8,-3 7,-5 11,-2 7,5 z"
   id="path121"
   inkscape:connector-curvature="0"
   style="fill:#c9d3c9;stroke:none" />
        <path
   d="m 9403,14592 5,8 v 7 l -3,8 -10,2 -18,-2 -20,2 -18,6 -10,5 -8,10 -7,5 -8,-3 -5,-15 -5,-8 -3,-7 v -8 l 8,-5 h 10 8 l 10,-2 10,-6 13,-5 10,-5 10,-5 5,-5 8,-5 10,3 8,7 z"
   id="path123"
   inkscape:connector-curvature="0"
   style="fill:#c9d3c9;stroke:none" />
        <path
   d="m 9301,14620 2,8 v 7 l -2,5 -10,3 h -11 -7 -5 -5 l -8,2 -13,5 -10,6 h -10 -5 l -3,-3 -2,-5 2,-5 -2,-8 v -7 l 2,-5 h 8 10 l 13,-3 13,-5 10,-3 10,-5 13,-2 7,2 z"
   id="path125"
   inkscape:connector-curvature="0"
   style="fill:#c9d3c9;stroke:none" />
        <path
   d="m 9214,14640 3,8 -3,8 -2,5 -8,2 -7,-2 -5,-3 h -6 l -5,3 h -7 -5 l -5,-5 -3,-3 3,-5 5,-3 7,-2 8,-5 8,-5 7,-5 8,2 z"
   id="path127"
   inkscape:connector-curvature="0"
   style="fill:#c9d3c9;stroke:none" />
        <path
   d="m 9397,14539 6,7 v 8 l -3,8 -10,2 -15,-2 -18,2 -18,5 -10,5 -8,8 -7,5 h -6 l -5,-15 -5,-8 -2,-8 v -7 l 7,-5 h 8 8 l 10,-3 10,-2 13,-5 10,-6 7,-5 6,-5 5,-2 h 10 l 7,7 z"
   id="path129"
   inkscape:connector-curvature="0"
   style="fill:#c9d3c9;stroke:none" />
        <path
   d="m 9303,14567 3,5 v 7 l -3,5 -7,3 -10,2 h -8 -5 -5 l -8,3 -10,5 -10,5 -8,3 h -5 l -2,-3 -3,-2 v -8 l -3,-5 v -5 l 3,-5 5,-3 10,-2 13,-3 10,-2 10,-5 10,-6 11,-5 10,3 z"
   id="path131"
   inkscape:connector-curvature="0"
   style="fill:#c9d3c9;stroke:none" />
        <path
   d="m 9225,14592 2,8 -2,5 -3,5 -5,2 h -8 l -5,-2 h -2 l -5,2 -8,3 -8,-3 -5,-2 -2,-3 2,-5 5,-2 5,-5 8,-3 8,-5 7,-5 h 8 z"
   id="path133"
   inkscape:connector-curvature="0"
   style="fill:#c9d3c9;stroke:none" />
        <path
   d="m 9395,14500 v 8 l -3,5 -5,5 -7,-2 -13,-8 -13,-5 -12,-3 h -11 l -7,3 -8,3 -5,-6 3,-12 v -8 -5 l 2,-5 h 8 l 7,3 5,2 6,3 h 10 10 10 8 l 5,-3 h 5 l 7,5 3,8 z"
   id="path135"
   inkscape:connector-curvature="0"
   style="fill:#c9d3c9;stroke:none" />
        <path
   d="m 9316,14485 v 5 5 l -2,3 -8,2 h -10 l -5,-2 h -5 -3 -5 l -10,2 -10,3 h -5 -6 l -2,-3 v -5 l 2,-5 -2,-5 v -5 l 5,-2 h 5 8 10 10 l 8,-3 7,-2 h 10 l 6,2 z"
   id="path137"
   inkscape:connector-curvature="0"
   style="fill:#c9d3c9;stroke:none" />
        <path
   d="m 9247,14490 v 5 5 l -2,6 h -5 l -5,-3 h -5 -3 -5 -5 -5 l -3,-5 -2,-3 2,-2 3,-3 7,-2 6,-3 5,-2 7,-3 5,3 z"
   id="path139"
   inkscape:connector-curvature="0"
   style="fill:#c9d3c9;stroke:none" />
        <path
   d="m 9390,14503 -3,8 3,10 5,5 10,-3 8,-2 10,-3 h 13 12 13 10 10 l 5,3 11,5 7,2 8,-2 v -18 l 2,-8 3,-10 -5,-5 -8,-2 h -10 l -8,2 -10,3 h -10 l -18,-3 -15,-5 -15,-2 -10,-5 -8,-3 -8,5 -5,10 z"
   id="path141"
   inkscape:connector-curvature="0"
   style="fill:#c9d3c9;stroke:none" />
        <path
   d="m 9397,14546 v 8 l 3,10 5,5 10,-2 8,-3 10,-5 13,-3 h 12 l 11,-2 h 12 8 l 5,2 10,6 h 10 l 5,-6 v -15 l 3,-7 v -11 l -5,-5 -10,-2 -10,2 -6,3 -7,2 h -13 -18 l -17,-2 -16,-3 -7,-2 h -8 l -8,2 -5,13 z"
   id="path143"
   inkscape:connector-curvature="0"
   style="fill:#c9d3c9;stroke:none" />
        <path
   d="m 9403,14595 2,7 3,10 7,5 10,-5 16,-10 23,-7 22,-8 h 13 l 10,2 h 13 l 5,-5 -5,-15 v -10 -8 l -5,-7 h -10 l -10,5 -6,5 -7,5 -13,3 -18,2 h -15 -15 l -10,-2 h -8 l -8,7 -2,10 z"
   id="path145"
   inkscape:connector-curvature="0"
   style="fill:#c9d3c9;stroke:none" />
        <path
   d="m 9415,14643 v 7 l 5,11 8,5 8,-5 7,-5 10,-6 11,-5 12,-5 10,-2 11,-3 h 10 5 l 10,3 h 10 l 5,-5 -2,-18 v -8 l -3,-7 -5,-8 h -8 l -10,5 -7,3 -8,5 -13,2 -15,3 h -18 -15 -8 -7 l -8,7 -2,11 z"
   id="path147"
   inkscape:connector-curvature="0"
   style="fill:#c9d3c9;stroke:none" />
        <path
   d="m 9491,14739 h -7 l -5,-2 -5,-5 v -10 l 5,-11 5,-5 5,-10 5,-12 5,-16 5,-12 v -8 -10 l 3,-8 7,-10 11,-3 10,11 -5,-3 -5,-2 -6,2 -5,8 v 7 5 l 3,5 -3,8 -5,13 -5,13 -5,15 -5,10 -5,10 -5,8 v 10 z"
   id="path149"
   inkscape:connector-curvature="0"
   style="fill:#8caa93;stroke:none" />
        <path
   d="m 9433,14780 -5,-5 v -5 -8 l 8,-2 7,-5 5,-3 3,-5 7,-8 8,-7 10,-5 h 10 l 5,10 -5,-3 h -5 l -5,3 -5,5 -2,5 -3,3 -5,5 -5,2 -8,5 -10,5 -5,8 z"
   id="path151"
   inkscape:connector-curvature="0"
   style="fill:#8caa93;stroke:none" />
        <path
   d="m 9375,14795 2,-5 10,-5 10,-2 8,-5 8,-8 7,-5 8,2 8,11 -6,-6 h -5 -7 l -3,6 -5,5 -5,5 -8,2 h -5 -5 -5 l -5,3 z"
   id="path153"
   inkscape:connector-curvature="0"
   style="fill:#8caa93;stroke:none" />
        <path
   d="m 9321,14689 -7,-5 -6,-8 v -8 l 8,-7 10,-3 h 8 l 10,-2 10,-6 10,-7 11,-8 5,-5 5,-7 7,-3 h 11 l 7,5 5,15 -2,-5 -5,-5 -5,-2 h -6 l -5,5 -2,5 -3,5 -7,2 -11,5 -10,6 -10,7 -10,5 -10,3 -8,2 -5,5 z"
   id="path155"
   inkscape:connector-curvature="0"
   style="fill:#8caa93;stroke:none" />
        <path
   d="m 9235,14711 -5,-5 v -7 l 5,-5 5,-3 10,-2 15,-3 13,-2 10,-6 10,-5 10,-2 11,2 2,13 -5,-5 -5,-3 -5,3 -5,3 -8,2 -10,5 -13,3 -7,2 -10,3 -11,2 -7,5 z"
   id="path157"
   inkscape:connector-curvature="0"
   style="fill:#8caa93;stroke:none" />
        <path
   d="m 9181,14709 3,-3 8,-2 h 7 l 8,-3 7,-5 11,-2 7,5 5,12 -5,-5 -5,-5 h -8 l -2,3 -5,5 h -3 l -5,2 -5,-2 h -2 -5 -8 z"
   id="path159"
   inkscape:connector-curvature="0"
   style="fill:#8caa93;stroke:none" />
        <path
   d="m 9301,14625 -5,-8 -3,-7 v -8 l 8,-5 h 10 8 l 10,-2 10,-6 13,-5 10,-5 7,-5 8,-5 5,-2 h 10 l 8,7 3,18 -3,-5 -3,-8 -5,-2 h -7 l -5,2 -3,5 -2,3 -8,5 -10,3 -13,5 -13,2 -7,3 -10,2 -11,3 -5,5 z"
   id="path161"
   inkscape:connector-curvature="0"
   style="fill:#8caa93;stroke:none" />
        <path
   d="m 9214,14643 -2,-8 v -7 l 2,-5 h 8 10 l 13,-3 13,-5 10,-3 10,-5 13,-2 7,2 3,13 -3,-5 h -5 -7 l -6,2 -7,3 -10,5 -10,3 -11,2 h -7 l -13,3 -8,2 z"
   id="path163"
   inkscape:connector-curvature="0"
   style="fill:#8caa93;stroke:none" />
        <path
   d="m 9161,14653 3,-5 5,-3 7,-2 8,-5 8,-5 7,-5 8,2 7,10 -5,-5 h -5 -7 l -3,5 -2,5 -6,3 h -2 -5 -5 -5 l -5,2 z"
   id="path165"
   inkscape:connector-curvature="0"
   style="fill:#8caa93;stroke:none" />
        <path
   d="m 9303,14572 -5,-8 -2,-8 v -7 l 7,-5 h 8 8 l 10,-3 10,-2 10,-5 10,-6 5,-2 8,-8 8,-2 h 10 l 7,7 v 16 l -2,-5 -3,-6 -5,-2 h -5 l -5,2 -2,6 -3,2 -8,3 -10,2 -10,5 -13,5 -7,3 h -10 l -8,2 -5,6 z"
   id="path167"
   inkscape:connector-curvature="0"
   style="fill:#8caa93;stroke:none" />
        <path
   d="m 9222,14592 -3,-5 v -5 l 3,-5 5,-3 10,-2 13,-3 10,-2 10,-5 10,-6 11,-5 10,3 2,13 -2,-5 h -5 l -8,2 -5,3 -5,2 -10,3 -10,5 -11,2 -7,3 h -10 l -8,5 z"
   id="path169"
   inkscape:connector-curvature="0"
   style="fill:#8caa93;stroke:none" />
        <path
   d="m 9174,14607 2,-5 5,-2 5,-5 8,-3 8,-5 7,-5 h 8 l 8,10 -6,-5 h -5 -7 l -3,5 -2,5 -3,3 -5,2 h -2 -6 l -5,3 h -5 z"
   id="path171"
   inkscape:connector-curvature="0"
   style="fill:#8caa93;stroke:none" />
        <path
   d="m 9314,14488 v -8 -5 l 2,-5 h 8 l 7,3 5,2 6,3 h 10 10 10 8 l 5,-3 h 5 l 7,5 3,8 -5,12 v -5 -5 l -3,-2 -5,-3 h -5 l -2,3 h -5 -6 l -7,-3 h -10 -10 l -8,-2 -5,-3 -8,-2 -5,2 z"
   id="path173"
   inkscape:connector-curvature="0"
   style="fill:#8caa93;stroke:none" />
        <path
   d="m 9247,14490 -2,-5 v -5 l 5,-2 h 5 8 10 10 l 8,-3 7,-2 h 10 l 6,2 2,10 -2,-5 -6,-2 h -2 l -5,2 -8,3 h -7 l -8,2 h -8 -7 -8 -8 z"
   id="path175"
   inkscape:connector-curvature="0"
   style="fill:#8caa93;stroke:none" />
        <path
   d="m 9207,14495 2,-2 3,-3 7,-2 6,-3 5,-2 7,-3 5,3 5,7 -2,-2 -5,-3 h -5 l -3,3 -2,2 -3,3 h -5 -3 -2 -5 -3 z"
   id="path177"
   inkscape:connector-curvature="0"
   style="fill:#8caa93;stroke:none" />
        <path
   d="m 9512,14508 2,-8 3,-10 -5,-5 -8,-2 h -10 l -8,2 -10,3 h -10 l -15,-3 -18,-2 -15,-5 -10,-5 h -8 l -8,2 -5,10 3,18 v -8 l 2,-7 5,-5 h 6 l 7,2 3,3 5,5 h 5 13 l 20,2 18,3 h 12 l 8,-3 h 10 l 8,3 z"
   id="path179"
   inkscape:connector-curvature="0"
   style="fill:#8caa93;stroke:none" />
        <path
   d="m 9519,14541 3,-7 v -11 l -5,-5 -10,-2 -10,2 -6,3 -7,2 h -13 -15 l -15,-2 -16,-3 -10,-2 h -7 l -11,5 -5,10 5,15 v -7 -5 l 6,-6 5,-2 h 7 l 5,2 3,6 h 7 13 l 18,-3 h 18 12 l 11,-3 h 7 l 8,3 z"
   id="path181"
   inkscape:connector-curvature="0"
   style="fill:#8caa93;stroke:none" />
        <path
   d="m 9522,14569 v -10 -8 l -5,-7 h -10 l -10,5 -6,5 -7,5 -13,3 -15,2 h -15 -16 l -10,-2 h -7 l -8,7 -5,10 8,16 -3,-6 3,-7 2,-5 5,-3 h 8 5 l 5,3 h 5 l 13,-3 18,-5 17,-2 13,-3 8,-5 10,-3 7,3 z"
   id="path183"
   inkscape:connector-curvature="0"
   style="fill:#8caa93;stroke:none" />
        <path
   d="m 9535,14615 v -8 l -3,-7 -5,-8 h -8 l -10,5 -7,3 -8,5 -13,2 -15,3 -15,2 h -13 l -13,-2 h -7 l -8,7 -2,11 7,15 -2,-8 v -5 l 2,-7 5,-3 h 8 l 5,3 5,2 5,-2 13,-3 20,-3 18,-2 10,-3 10,-5 11,-2 h 7 z"
   id="path185"
   inkscape:connector-curvature="0"
   style="fill:#8caa93;stroke:none" />
        <path
   d="m 10165,14305 v 20 l -7,26 -21,17 -28,5 -18,-2 -15,-3 h -18 -15 l -15,3 -18,2 -18,3 -17,5 -23,8 -33,15 -44,18 -45,20 -46,20 -43,21 -33,12 -21,8 -25,10 -18,10 -13,16 -10,15 -13,10 -15,5 -15,-5 -10,-8 -3,-10 5,-15 16,-18 30,-20 20,-13 26,-13 28,-12 28,-13 28,-13 25,-12 26,-8 17,-8 21,-7 30,-10 33,-16 36,-12 35,-16 31,-15 25,-13 18,-10 13,-7 18,-8 17,-8 18,-2 h 18 l 15,2 13,11 z"
   id="path187"
   inkscape:connector-curvature="0"
   style="fill:#c9d3c9;stroke:none" />
        <path
   d="m 10104,14231 5,20 v 23 l -10,21 -28,7 h -18 -17 l -21,3 -20,2 -23,5 -23,3 -23,8 -25,7 -28,10 -28,11 -33,15 -36,15 -33,20 -35,21 -33,25 -31,26 -25,25 -23,18 -16,10 -15,8 -10,5 -10,-3 -8,-2 -7,-8 -13,-15 -8,-18 10,-18 36,-23 25,-13 23,-12 23,-10 21,-13 20,-10 18,-13 18,-10 15,-13 18,-13 25,-12 33,-16 33,-15 36,-12 30,-13 31,-13 20,-8 15,-5 18,-5 15,-5 13,-5 15,-5 10,-5 13,-3 8,-5 15,-7 h 15 l 13,7 z"
   id="path189"
   inkscape:connector-curvature="0"
   style="fill:#c9d3c9;stroke:none" />
        <path
   d="m 10165,14305 -10,15 -18,13 -20,5 h -18 -8 -12 l -13,2 -15,3 -18,2 -15,6 -16,2 -15,5 -20,5 -31,13 -38,15 -40,18 -44,18 -40,18 -33,15 -26,10 -20,8 -15,10 -18,7 -13,8 -13,8 -10,7 -7,8 -5,8 -8,10 -10,10 -13,5 -15,-3 10,8 15,5 15,-5 13,-10 10,-15 13,-16 18,-10 25,-10 21,-8 33,-12 43,-21 46,-20 45,-20 44,-18 33,-15 23,-8 17,-5 18,-3 18,-2 15,-3 h 15 18 l 15,3 18,2 28,-5 21,-17 7,-26 z"
   id="path191"
   inkscape:connector-curvature="0"
   style="fill:#8caa93;stroke:none" />
        <path
   d="m 9530,14526 7,8 8,2 10,3 10,-5 15,-8 16,-10 23,-18 25,-25 31,-26 33,-25 35,-21 33,-20 36,-15 33,-15 28,-11 28,-10 25,-7 23,-8 23,-3 23,-5 20,-2 21,-3 h 17 18 l 28,-7 10,-21 v -23 l -5,-20 v 13 l -7,12 -16,8 -20,5 -13,3 -18,5 -20,5 -20,5 -23,8 -26,7 -25,8 -28,7 -30,11 -31,12 -36,18 -33,18 -33,18 -30,20 -26,18 -20,15 -18,15 -17,13 -18,15 -18,13 -15,10 -13,8 -13,5 z"
   id="path193"
   inkscape:connector-curvature="0"
   style="fill:#8caa93;stroke:none" />
        <path
   d="m 11256,13631 v 31 l 13,35 20,26 28,5 15,-3 h 15 13 l 15,3 13,5 10,5 10,5 11,8 15,17 28,33 33,46 38,51 38,53 36,51 28,41 15,25 13,33 5,28 v 23 l 2,21 3,20 5,20 13,18 25,3 23,-8 10,-13 5,-12 13,-6 23,-2 20,-8 15,-15 3,-25 -5,-13 -8,-10 -10,-5 -10,-8 -15,-8 -13,-10 -18,-12 -18,-18 -23,-28 -33,-41 -38,-51 -41,-56 -43,-56 -38,-53 -30,-46 -23,-33 -18,-25 -15,-26 -16,-25 -15,-20 -15,-21 -15,-15 -16,-13 -17,-7 h -28 l -18,12 -10,21 -3,15 -2,8 -5,10 -8,7 z"
   id="path195"
   inkscape:connector-curvature="0"
   style="fill:#c9d3c9;stroke:none" />
        <path
   d="m 11716,14234 -25,-3 -13,-18 -5,-20 -3,-20 -2,-21 v -23 l -5,-28 -13,-33 -15,-25 -28,-41 -36,-51 -38,-53 -38,-51 -33,-46 -28,-33 -15,-17 -11,-8 -10,-5 -10,-5 -13,-5 -15,-3 h -13 -15 l -15,3 -28,-5 -20,-26 -13,-35 v -31 l 5,18 5,18 13,10 20,2 13,-2 h 12 l 13,-3 h 15 l 13,3 13,5 15,8 13,12 20,26 31,40 38,51 40,56 41,56 36,51 28,41 15,25 18,31 18,28 10,25 -3,20 -5,21 3,22 7,23 z"
   id="path197"
   inkscape:connector-curvature="0"
   style="fill:#8caa93;stroke:none" />
        <path
   d="m 11556,14701 h -8 l -10,5 -13,8 -10,8 -10,12 -5,13 v 13 l 8,12 20,16 10,5 h 8 l 5,2 10,11 18,7 20,8 13,-3 10,-12 8,-18 5,-16 -3,-12 -10,-13 -15,-13 -16,-10 h -5 -2 l -8,-7 -10,-11 z"
   id="path199"
   inkscape:connector-curvature="0"
   style="fill:#c9d3c9;stroke:none" />
        <path
   d="m 11612,14818 -13,3 -20,-8 -18,-7 -10,-11 -5,-2 h -8 l -10,-5 -20,-16 -8,-12 v -13 l 5,-13 10,-12 10,-8 13,-8 10,-5 h 8 l -18,8 -15,18 -3,20 18,10 5,-7 8,-11 10,-5 15,5 -10,6 -8,7 -5,10 5,13 13,10 15,3 13,-3 h 5 v 10 l 3,11 2,10 z"
   id="path201"
   inkscape:connector-curvature="0"
   style="fill:#a0baa5;stroke:none" />
        <path
   d="m 11487,14765 -2,-5 -8,-5 -8,-3 -10,8 -13,15 -15,15 -15,10 -13,6 -10,2 -13,5 -2,8 7,10 3,8 3,7 7,3 8,-3 10,-7 5,-8 8,-5 12,-8 16,-7 10,-8 10,-3 8,-2 7,-3 5,-10 v -10 z"
   id="path203"
   inkscape:connector-curvature="0"
   style="fill:#c9d3c9;stroke:none" />
        <path
   d="m 11388,14831 -5,-3 -8,-2 -5,2 -5,11 -2,7 v 0 0 3 l -3,7 -5,11 -5,10 -5,10 v 5 l 2,2 5,3 h 6 l 7,5 h 5 l 8,-2 2,-8 v -8 l 3,-7 5,-5 5,-8 5,-10 5,-10 -2,-8 z"
   id="path205"
   inkscape:connector-curvature="0"
   style="fill:#c9d3c9;stroke:none" />
        <path
   d="m 11360,14894 h -8 l -7,3 -5,5 v 8 l 2,7 3,8 v 8 5 7 l 2,8 5,5 h 6 l 2,-5 3,-8 2,-10 3,-10 5,-8 2,-10 -2,-7 z"
   id="path207"
   inkscape:connector-curvature="0"
   style="fill:#c9d3c9;stroke:none" />
        <path
   d="m 11459,14869 -5,-5 -10,-3 h -8 l -2,11 -5,17 -5,18 -11,18 -7,8 -10,5 -5,7 v 8 l 12,8 5,7 8,5 h 8 l 7,-5 5,-10 v -8 l 3,-7 7,-10 11,-13 7,-10 5,-8 5,-2 6,-6 v -10 l -6,-10 z"
   id="path209"
   inkscape:connector-curvature="0"
   style="fill:#c9d3c9;stroke:none" />
        <path
   d="m 11408,14961 -5,-3 -7,-3 -5,6 -6,7 -2,10 v 8 l -3,8 v 5 l -5,7 -5,8 -5,10 -2,8 v 5 l 2,2 3,3 h 7 l 5,5 h 8 l 5,-3 3,-7 2,-10 5,-11 5,-10 5,-10 6,-10 5,-13 -3,-7 z"
   id="path211"
   inkscape:connector-curvature="0"
   style="fill:#c9d3c9;stroke:none" />
        <path
   d="m 11378,15042 h -8 -7 l -5,5 v 8 l 2,7 3,3 v 5 7 6 l 2,7 5,5 h 5 l 3,-2 2,-8 3,-8 2,-7 6,-8 2,-10 -2,-5 z"
   id="path213"
   inkscape:connector-curvature="0"
   style="fill:#c9d3c9;stroke:none" />
        <path
   d="m 11510,14894 -8,-7 -10,-3 -7,3 -3,10 -2,15 -8,21 -8,15 -7,7 -11,8 -7,8 v 7 l 15,8 5,5 8,5 7,3 6,-8 5,-8 v -10 l 2,-7 8,-11 10,-10 8,-10 7,-7 5,-3 5,-8 v -7 l -5,-10 z"
   id="path215"
   inkscape:connector-curvature="0"
   style="fill:#c9d3c9;stroke:none" />
        <path
   d="m 11457,14986 -5,-5 h -6 -7 l -5,10 -5,10 v 8 l -3,5 v 5 l -5,8 -5,7 -8,10 -5,8 v 5 l 3,5 5,3 h 5 l 5,5 h 8 l 5,-3 5,-7 2,-10 5,-11 6,-10 7,-10 5,-10 5,-10 -2,-8 z"
   id="path217"
   inkscape:connector-curvature="0"
   style="fill:#c9d3c9;stroke:none" />
        <path
   d="m 11419,15062 -8,-2 -8,-3 -5,3 -2,7 v 8 5 5 l -3,5 -5,8 v 7 l 3,6 5,2 5,-2 2,-6 5,-5 5,-7 8,-5 5,-8 v -8 z"
   id="path219"
   inkscape:connector-curvature="0"
   style="fill:#c9d3c9;stroke:none" />
        <path
   d="m 11558,14910 -5,-5 -10,-3 h -8 l -2,10 -3,16 -5,17 -10,16 -7,7 -8,5 -8,8 v 8 l 13,7 5,5 8,5 h 7 l 5,-5 5,-7 v -8 l 3,-8 8,-10 7,-10 8,-10 8,-8 5,-2 5,-5 v -11 l -5,-7 z"
   id="path221"
   inkscape:connector-curvature="0"
   style="fill:#c9d3c9;stroke:none" />
        <path
   d="m 11510,14996 -5,-5 -5,-2 -8,2 -5,8 -5,10 v 7 l -2,6 v 5 l -6,5 -7,7 -5,8 -5,8 v 5 5 l 5,2 h 5 l 5,5 h 5 8 l 2,-7 3,-10 5,-11 7,-10 8,-7 8,-8 5,-8 -3,-10 z"
   id="path223"
   inkscape:connector-curvature="0"
   style="fill:#c9d3c9;stroke:none" />
        <path
   d="m 11467,15065 -5,-3 -5,-2 -8,2 -3,5 v 8 l -2,5 v 3 l -3,5 -2,5 v 7 5 l 2,6 5,-3 6,-5 5,-5 5,-5 7,-5 5,-5 v -8 z"
   id="path225"
   inkscape:connector-curvature="0"
   style="fill:#c9d3c9;stroke:none" />
        <path
   d="m 11596,14922 -5,-2 -7,-3 -5,3 -3,8 v 12 l -2,15 -5,13 -6,8 -7,7 -3,6 v 7 l 13,3 5,5 5,2 h 8 l 2,-5 3,-7 v -8 l 2,-5 3,-10 5,-10 5,-8 3,-5 5,-5 2,-5 v -5 l -5,-8 z"
   id="path227"
   inkscape:connector-curvature="0"
   style="fill:#c9d3c9;stroke:none" />
        <path
   d="m 11569,14999 -6,-3 -2,-2 h -5 l -5,7 -5,8 v 5 l -3,2 v 6 l -5,5 -5,5 -5,5 -5,5 v 5 3 l 2,2 h 5 l 3,5 5,3 5,-3 3,-5 2,-8 5,-7 8,-8 5,-5 5,-8 5,-5 v -7 z"
   id="path229"
   inkscape:connector-curvature="0"
   style="fill:#c9d3c9;stroke:none" />
        <path
   d="m 11530,15052 -5,-2 -5,-3 h -5 l -2,5 v 5 l -3,5 v 3 l -2,2 -3,5 -3,5 v 6 l 3,2 h 5 l 3,-2 5,-6 5,-2 7,-5 5,-3 v -7 z"
   id="path231"
   inkscape:connector-curvature="0"
   style="fill:#c9d3c9;stroke:none" />
        <path
   d="m 11591,14925 h -7 l -10,-3 -5,-7 5,-10 10,-16 7,-22 5,-23 v -16 l -2,-10 -3,-10 8,-5 15,3 h 8 8 l 7,5 v 10 l -5,10 -2,5 -3,8 -3,12 -2,18 v 15 16 l 2,10 v 7 l -7,8 -10,3 z"
   id="path233"
   inkscape:connector-curvature="0"
   style="fill:#c9d3c9;stroke:none" />
        <path
   d="m 11551,14910 -8,-3 -8,-5 -5,-5 5,-10 11,-15 10,-23 7,-21 v -15 l -2,-10 2,-13 6,-2 15,5 h 7 11 l 5,5 v 10 l -5,10 -6,5 -5,8 -2,13 -3,17 -2,16 v 15 10 5 l -8,8 -10,2 z"
   id="path235"
   inkscape:connector-curvature="0"
   style="fill:#c9d3c9;stroke:none" />
        <path
   d="m 11505,14892 -8,-3 -7,-7 -3,-8 5,-7 16,-13 12,-21 10,-20 5,-13 v -12 -10 l 8,-3 15,8 8,2 10,3 3,7 -3,8 -5,8 -5,5 -8,7 -5,10 -5,16 -5,18 -2,12 -3,10 -3,8 -5,5 h -12 z"
   id="path237"
   inkscape:connector-curvature="0"
   style="fill:#c9d3c9;stroke:none" />
        <path
   d="m 11462,14872 -10,-3 -8,-8 v -7 l 5,-8 15,-13 13,-22 10,-21 3,-12 v -11 l 2,-10 8,-5 13,8 7,2 10,3 5,7 -2,8 -5,8 -5,5 -8,7 -5,13 -5,15 -5,16 -3,15 -2,10 -3,8 -7,5 h -11 z"
   id="path239"
   inkscape:connector-curvature="0"
   style="fill:#c9d3c9;stroke:none" />
        <path
   d="m 11385,14831 3,8 3,7 7,3 8,-3 10,-7 5,-8 8,-5 12,-8 13,-7 10,-5 10,-6 8,-2 8,-3 7,-10 v -10 l -10,-10 3,5 2,5 v 8 l -7,5 -8,2 h -5 -5 l -5,5 -10,8 -16,5 -12,8 -8,7 -8,8 -7,8 h -10 z"
   id="path241"
   inkscape:connector-curvature="0"
   style="fill:#8caa93;stroke:none" />
        <path
   d="m 11358,14897 7,5 h 5 l 8,-2 2,-8 v -8 l 3,-7 5,-5 5,-8 5,-10 5,-10 -2,-8 -13,-5 5,5 v 5 l -2,5 -3,5 -3,5 -5,3 -2,5 -3,5 -2,10 -3,10 -5,8 z"
   id="path243"
   inkscape:connector-curvature="0"
   style="fill:#8caa93;stroke:none" />
        <path
   d="m 11358,14958 2,-5 3,-8 2,-10 3,-10 5,-8 2,-10 -2,-7 -13,-6 5,6 3,5 v 7 l -3,5 -5,5 -2,6 v 7 5 5 5 5 z"
   id="path245"
   inkscape:connector-curvature="0"
   style="fill:#8caa93;stroke:none" />
        <path
   d="m 11403,14961 5,7 8,5 h 8 l 7,-5 5,-10 v -8 l 3,-7 7,-10 8,-13 8,-8 5,-7 7,-3 6,-8 v -10 l -6,-10 -15,-5 5,3 5,5 3,7 -3,5 -5,5 -5,3 -2,3 -5,5 -6,10 -7,10 -8,10 -5,10 -2,8 -5,8 -6,5 z"
   id="path247"
   inkscape:connector-curvature="0"
   style="fill:#8caa93;stroke:none" />
        <path
   d="m 11375,15042 5,5 h 8 l 5,-3 3,-7 2,-10 5,-11 5,-10 5,-10 6,-10 5,-13 -3,-7 -13,-5 5,5 v 5 l -2,7 -3,5 -5,6 -2,10 -5,10 -3,10 -2,8 -6,10 -2,5 z"
   id="path249"
   inkscape:connector-curvature="0"
   style="fill:#8caa93;stroke:none" />
        <path
   d="m 11375,15095 3,-2 2,-8 3,-8 2,-7 6,-8 2,-10 -2,-5 -13,-5 5,2 2,8 v 5 l -5,5 -2,5 -3,3 v 5 2 6 5 5 z"
   id="path251"
   inkscape:connector-curvature="0"
   style="fill:#8caa93;stroke:none" />
        <path
   d="m 11454,14986 5,5 8,5 7,3 6,-8 5,-8 v -10 l 2,-7 8,-11 7,-10 8,-10 5,-5 8,-5 5,-5 2,-10 -5,-10 -15,-6 5,3 5,5 3,5 -3,8 -7,5 h -3 l -5,2 -5,6 -5,10 -8,10 -5,13 -5,7 -5,10 -3,8 -7,5 z"
   id="path253"
   inkscape:connector-curvature="0"
   style="fill:#8caa93;stroke:none" />
        <path
   d="m 11416,15065 5,5 h 8 l 5,-3 5,-7 2,-10 5,-11 6,-10 7,-10 5,-10 5,-10 -2,-8 -10,-5 5,5 v 5 l -3,5 -5,5 -5,8 -5,8 -5,10 -3,7 -5,8 -2,10 -5,8 z"
   id="path255"
   inkscape:connector-curvature="0"
   style="fill:#8caa93;stroke:none" />
        <path
   d="m 11396,15113 5,-2 2,-6 5,-5 5,-7 8,-5 5,-8 v -8 l -7,-10 2,8 v 5 l -2,8 -6,2 h -5 l -2,5 -3,3 v 2 5 l -2,5 -3,6 z"
   id="path257"
   inkscape:connector-curvature="0"
   style="fill:#8caa93;stroke:none" />
        <path
   d="m 11505,14996 5,5 8,5 h 7 l 5,-5 5,-7 v -8 l 3,-8 8,-10 7,-10 5,-8 5,-7 8,-3 5,-7 3,-8 -5,-10 -16,-5 5,2 6,5 2,5 -2,6 -6,5 -5,2 -5,3 -2,5 -5,7 -8,11 -5,12 -5,8 -3,8 -5,7 -5,5 z"
   id="path259"
   inkscape:connector-curvature="0"
   style="fill:#8caa93;stroke:none" />
        <path
   d="m 11467,15067 5,5 h 5 8 l 2,-7 3,-10 5,-11 7,-10 8,-7 8,-8 5,-8 -3,-10 -10,-5 3,5 v 5 l -3,5 -2,5 -6,6 -5,7 -7,8 -3,7 -5,8 -5,10 -5,5 z"
   id="path261"
   inkscape:connector-curvature="0"
   style="fill:#8caa93;stroke:none" />
        <path
   d="m 11441,15111 5,-3 6,-5 5,-5 5,-5 7,-5 5,-5 v -8 l -7,-10 2,5 v 7 l -2,6 -5,2 h -5 l -3,3 -2,5 v 2 l -3,3 -3,5 -2,5 z"
   id="path263"
   inkscape:connector-curvature="0"
   style="fill:#8caa93;stroke:none" />
        <path
   d="m 11566,14999 5,5 5,2 h 8 l 2,-5 3,-7 v -8 l 2,-5 3,-10 5,-8 5,-8 3,-5 5,-5 2,-5 v -7 l -5,-8 -13,-3 6,3 5,3 2,5 -2,5 -3,2 -5,3 -3,2 -2,5 -3,8 -2,8 -5,10 -3,7 v 8 l -2,8 -5,2 z"
   id="path265"
   inkscape:connector-curvature="0"
   style="fill:#8caa93;stroke:none" />
        <path
   d="m 11530,15052 3,5 5,3 5,-3 3,-5 2,-8 5,-7 8,-8 5,-5 5,-8 5,-5 v -7 l -7,-5 2,2 v 5 l -2,3 -3,5 -5,5 -5,5 -5,8 -3,5 -5,5 -2,8 -6,5 z"
   id="path267"
   inkscape:connector-curvature="0"
   style="fill:#8caa93;stroke:none" />
        <path
   d="m 11505,15085 h 5 l 3,-2 5,-6 5,-2 7,-5 5,-3 v -7 l -5,-8 3,5 v 5 l -5,3 -3,2 h -5 l -2,3 -3,2 v 3 l -2,2 -3,3 -2,5 z"
   id="path269"
   inkscape:connector-curvature="0"
   style="fill:#8caa93;stroke:none" />
        <path
   d="m 11614,14806 h 8 8 l 7,5 v 10 l -5,10 -2,5 -3,8 -3,12 -2,16 v 15 15 l 2,10 v 8 l -7,8 -10,5 -16,-8 8,3 h 8 l 5,-3 2,-8 v -7 l -2,-5 -3,-3 v -8 l 3,-12 2,-18 3,-18 2,-13 3,-7 2,-10 v -8 z"
   id="path271"
   inkscape:connector-curvature="0"
   style="fill:#8caa93;stroke:none" />
        <path
   d="m 11584,14793 h 7 11 l 5,5 v 10 l -5,10 -6,5 -5,8 -2,13 -3,15 -2,15 v 15 11 7 l -8,8 -10,2 -15,-7 7,2 h 5 l 8,-2 3,-5 v -8 -5 l -3,-5 v -8 l 5,-12 3,-18 5,-18 2,-10 5,-8 3,-10 v -8 z"
   id="path273"
   inkscape:connector-curvature="0"
   style="fill:#8caa93;stroke:none" />
        <path
   d="m 11558,14783 8,2 10,3 3,7 -3,8 -5,8 -5,5 -8,7 -5,10 -5,16 -5,15 -2,13 v 10 l -3,7 -8,6 -12,2 -13,-10 5,2 8,3 5,-3 5,-5 2,-7 -2,-5 v -5 l 2,-5 5,-13 8,-15 5,-18 8,-10 5,-8 5,-8 3,-7 z"
   id="path275"
   inkscape:connector-curvature="0"
   style="fill:#8caa93;stroke:none" />
        <path
   d="m 11513,14760 7,2 10,3 5,7 -2,8 -5,8 -5,5 -8,7 -5,13 -5,15 -5,13 -3,15 -2,11 -3,7 -7,5 -11,3 -12,-10 5,2 h 7 6 l 5,-5 v -8 -5 -5 l 2,-5 5,-13 8,-15 5,-18 5,-10 8,-7 5,-8 v -10 z"
   id="path277"
   inkscape:connector-curvature="0"
   style="fill:#8caa93;stroke:none" />
        <path
   d="m 11726,14099 -20,2 -23,13 -18,23 v 28 l 10,33 3,31 v 33 l -3,38 -5,23 -7,35 -13,46 -13,48 -15,48 -13,44 -7,35 -6,23 -5,23 -7,20 -13,16 -15,12 -8,16 -2,15 5,13 10,10 13,2 12,-7 16,-21 17,-30 18,-48 18,-61 15,-56 10,-46 13,-51 15,-74 21,-71 15,-46 13,-30 5,-38 -8,-33 z"
   id="path279"
   inkscape:connector-curvature="0"
   style="fill:#c9d3c9;stroke:none" />
        <path
   d="m 11807,14150 -22,-3 -23,3 -18,12 -3,28 3,39 2,40 v 46 l -7,48 -5,28 -8,33 -10,36 -10,35 -15,36 -18,38 -18,36 -23,33 -36,53 -12,33 v 23 l 12,13 18,12 18,3 18,-13 18,-38 17,-51 18,-48 16,-41 17,-33 18,-48 20,-69 18,-71 13,-51 8,-35 5,-31 2,-25 8,-20 2,-18 v -15 l -10,-11 z"
   id="path281"
   inkscape:connector-curvature="0"
   style="fill:#c9d3c9;stroke:none" />
        <path
   d="m 11726,14099 -15,13 -8,17 -5,21 3,18 2,20 v 30 l -2,33 -3,31 -13,53 -20,84 -23,87 -15,63 -13,38 -10,31 -13,23 -12,15 -10,13 -11,10 -2,12 5,16 -10,-10 -5,-13 2,-15 8,-16 15,-12 13,-16 7,-20 5,-23 6,-23 7,-35 13,-44 15,-48 13,-48 13,-46 7,-35 5,-23 3,-38 v -33 l -3,-31 -10,-33 v -28 l 18,-23 23,-13 z"
   id="path283"
   inkscape:connector-curvature="0"
   style="fill:#8caa93;stroke:none" />
        <path
   d="m 11596,14760 -12,-13 v -23 l 12,-33 36,-53 23,-33 18,-36 18,-38 15,-36 10,-35 10,-36 8,-33 5,-28 7,-48 v -46 l -2,-40 -3,-39 3,-28 18,-12 23,-3 22,3 h -12 l -10,7 -8,16 -3,22 -2,34 -5,40 -8,51 -7,56 -6,30 -10,33 -10,39 -13,35 -15,33 -13,33 -15,28 -13,23 -22,38 -21,38 -15,33 z"
   id="path285"
   inkscape:connector-curvature="0"
   style="fill:#8caa93;stroke:none" />
        <path
   d="m 11047,16509 -15,5 -10,12 -10,16 -8,15 -7,10 -8,5 -8,5 -7,3 -8,10 -3,13 v 17 l 8,16 15,10 18,2 15,-2 16,-10 5,10 10,10 15,5 h 15 l 3,13 5,7 5,8 8,5 15,8 20,18 16,20 12,18 5,12 3,8 5,5 h 8 l 5,5 18,-7 17,-8 8,-5 8,15 7,8 8,7 5,3 5,2 5,8 3,5 v 8 l 5,2 5,3 5,2 h 2 l -2,8 2,5 5,3 8,2 8,5 10,5 10,8 8,5 7,5 h 11 l 7,-2 3,-6 h 10 l 5,-5 5,-7 v -10 h 8 l 7,-8 3,-8 v -10 h 7 l 6,-5 2,-8 v -10 l -5,-7 -3,-5 -2,-3 -3,-5 -2,-5 -3,-5 -5,-3 -5,-2 v -8 l -5,-5 -8,-5 -7,-5 -5,-5 -8,-5 -8,-5 -5,-5 v -6 -7 l -2,-3 h -5 l -3,-5 -2,-7 -8,-6 -8,-5 -5,-2 -10,-8 -13,-10 -15,-13 -15,-12 -13,-11 -10,-10 -5,-5 -10,-10 -13,-8 -10,-7 -8,-8 -7,-5 -8,-2 -5,-3 -3,-8 v -7 l -5,-5 -2,-3 -3,-2 -5,-18 -13,-18 -17,-13 -18,3 -18,7 -15,3 -15,3 z"
   id="path287"
   inkscape:connector-curvature="0"
   style="fill:#8caa93;stroke:none" />
        <path
   d="m 11119,16514 2,7 10,10 10,11 h 13 l -5,2 -5,5 -5,3 -8,5 -7,5 -5,2 -8,3 -10,-3 -10,-2 h -13 l -10,5 -5,8 -5,10 v 13 l 7,7 h 26 l 2,15 -2,13 -8,10 -15,3 -16,-5 -10,-5 -5,-8 -5,-10 -13,15 -20,10 -18,-7 -5,-33 h 13 l 18,-3 12,-8 8,-10 v -15 l 5,-18 8,-10 12,-5 16,5 15,5 15,5 13,3 8,-5 5,-10 v -13 z"
   id="path289"
   inkscape:connector-curvature="0"
   style="fill:#c9d3c9;stroke:none" />
        <path
   d="m 11106,16638 -5,5 -5,10 2,11 8,10 18,15 25,25 20,23 11,18 5,8 10,5 h 10 l 10,-3 8,-7 10,-5 5,-8 -8,-10 -15,-10 -15,-13 -15,-13 -11,-13 -10,-10 -10,-12 -7,-11 -6,-7 -5,-5 -7,-5 h -13 z"
   id="path291"
   inkscape:connector-curvature="0"
   style="fill:#c9d3c9;stroke:none" />
        <path
   d="m 11116,16585 -5,5 -5,10 v 8 l 7,5 13,5 13,7 8,13 10,10 7,8 10,10 13,15 15,13 13,15 15,13 11,10 5,5 5,5 h 5 l 5,-5 5,-5 v -5 l -3,-7 -7,-8 -8,-8 -7,-7 -13,-13 -15,-15 -16,-18 -15,-15 -15,-16 -10,-12 -5,-8 -8,-10 -8,-8 -10,-2 z"
   id="path293"
   inkscape:connector-curvature="0"
   style="fill:#c9d3c9;stroke:none" />
        <path
   d="m 11159,16575 -2,5 v 5 l 5,10 7,10 8,8 15,12 16,18 17,18 16,18 15,18 13,12 5,8 7,8 5,2 h 8 l 5,-2 v -5 -8 l -5,-5 -5,-5 -15,-13 -21,-25 -23,-26 -15,-18 -13,-12 -12,-18 -16,-13 z"
   id="path295"
   inkscape:connector-curvature="0"
   style="fill:#c9d3c9;stroke:none" />
        <path
   d="m 11218,16610 7,8 10,10 11,15 12,13 13,15 13,13 10,10 5,5 5,8 5,5 h 3 l 5,-3 5,-7 2,-5 -2,-3 -8,-8 -10,-7 -13,-10 -15,-10 -13,-13 -15,-13 -13,-10 -10,-8 z"
   id="path297"
   inkscape:connector-curvature="0"
   style="fill:#c9d3c9;stroke:none" />
        <path
   d="m 11261,16758 8,7 12,10 10,11 5,5 6,7 7,5 8,8 h 5 l 2,-5 v -8 l -2,-7 -5,-8 -10,-8 -11,-10 -10,-10 -5,-10 -5,-3 h -10 l -8,8 z"
   id="path299"
   inkscape:connector-curvature="0"
   style="fill:#c9d3c9;stroke:none" />
        <path
   d="m 11309,16732 h -7 l -8,3 -5,5 2,7 11,11 12,12 10,13 8,10 5,5 h 8 l 5,-5 -3,-7 -10,-13 -10,-18 -10,-15 z"
   id="path301"
   inkscape:connector-curvature="0"
   style="fill:#c9d3c9;stroke:none" />
        <path
   d="m 11319,16722 5,13 11,18 12,17 8,11 h 5 3 l 2,-3 v -5 l -5,-13 -10,-18 -10,-15 -5,-10 -3,-3 h -5 l -5,6 z"
   id="path303"
   inkscape:connector-curvature="0"
   style="fill:#c9d3c9;stroke:none" />
        <path
   d="m 11360,16742 5,8 5,10 3,8 2,2 8,-10 z"
   id="path305"
   inkscape:connector-curvature="0"
   style="fill:#c9d3c9;stroke:none" />
        <path
   d="m 11332,16816 -2,3 v 7 10 l 5,8 7,8 5,7 5,8 3,2 3,-2 v -10 l -3,-18 -18,-25 z"
   id="path307"
   inkscape:connector-curvature="0"
   style="fill:#c9d3c9;stroke:none" />
        <path
   d="m 11350,16801 -3,2 v 8 10 l 5,8 8,7 5,8 5,8 3,2 2,-2 v -10 l -5,-18 -15,-26 z"
   id="path309"
   inkscape:connector-curvature="0"
   style="fill:#c9d3c9;stroke:none" />
        <path
   d="m 11370,16783 -5,3 v 7 10 l 5,8 8,8 7,7 6,8 2,2 3,-2 v -10 l -5,-18 -18,-25 z"
   id="path311"
   inkscape:connector-curvature="0"
   style="fill:#c9d3c9;stroke:none" />
        <path
   d="m 11383,16770 -3,3 3,5 2,5 6,8 5,7 5,8 2,5 3,3 v -8 -13 l -8,-15 z"
   id="path313"
   inkscape:connector-curvature="0"
   style="fill:#c9d3c9;stroke:none" />
        <path
   d="m 11251,16763 -5,-8 h -11 l -7,3 -8,7 -5,5 -7,5 -8,3 -8,5 -2,5 v 8 l 5,7 7,5 13,6 15,5 11,7 5,8 2,8 3,7 2,8 h 8 l 8,-5 7,-10 8,-8 7,-3 5,-2 6,-5 v -10 l -8,-11 -13,-7 -10,-5 -10,-10 z"
   id="path315"
   inkscape:connector-curvature="0"
   style="fill:#c9d3c9;stroke:none" />
        <path
   d="m 11281,16829 -7,7 -11,11 -7,7 5,10 10,5 h 13 7 l 5,3 11,8 15,7 15,5 13,-2 2,-8 -5,-10 -7,-10 -5,-8 -5,-12 -13,-18 -15,-8 z"
   id="path317"
   inkscape:connector-curvature="0"
   style="fill:#c9d3c9;stroke:none" />
        <path
   d="m 11291,16831 -7,3 -8,8 -7,10 -8,5 h -8 l -2,-8 -3,-7 -2,-8 -5,-8 -11,-7 -15,-5 -13,-6 -7,-5 -5,-7 v -8 l 2,-5 8,-5 8,-3 7,-5 5,-5 -10,8 -5,10 -3,10 8,5 13,5 12,5 11,8 5,8 5,7 5,5 13,3 z"
   id="path319"
   inkscape:connector-curvature="0"
   style="fill:#a0baa5;stroke:none" />
        <path
   d="m 11350,16890 -13,2 -15,-5 -15,-7 -11,-8 -5,-3 h -7 -13 l -10,-5 -5,-10 7,-7 11,-11 7,-7 -7,10 -3,8 3,7 7,3 13,2 8,3 7,7 5,6 8,5 10,7 10,5 z"
   id="path321"
   inkscape:connector-curvature="0"
   style="fill:#a0baa5;stroke:none" />
        <path
   d="m 11284,15654 h -13 l -13,3 -12,5 -11,8 -10,12 -5,13 -5,18 3,20 10,33 7,28 -2,33 -15,59 -10,23 -13,28 -18,38 -18,43 -18,48 -17,51 -13,51 -10,53 -13,84 -13,54 -15,33 -23,28 -13,15 -12,18 -10,17 -8,16 -3,17 3,18 13,13 23,13 25,7 23,5 20,-2 15,-5 13,-8 8,-15 2,-18 v -23 l -5,-53 v -61 l 5,-59 5,-53 6,-31 10,-40 15,-46 15,-51 21,-51 17,-48 23,-43 21,-36 20,-30 18,-26 17,-25 13,-25 13,-21 10,-18 8,-15 5,-13 2,-12 -2,-13 -3,-13 -10,-12 -13,-13 -15,-10 -23,-10 z"
   id="path323"
   inkscape:connector-curvature="0"
   style="fill:#c9d3c9;stroke:none" />
        <path
   d="m 11403,15693 -12,2 -13,3 -13,7 -13,8 -10,10 -10,13 -8,13 -5,17 -5,31 -2,25 2,23 3,23 -3,46 -12,68 -23,74 -23,61 -13,31 -20,43 -21,51 -22,50 -23,54 -21,46 -17,38 -11,23 -10,25 v 18 l 10,18 16,15 20,13 h 20 l 13,-13 5,-28 v -33 l 3,-33 7,-36 18,-45 15,-34 21,-43 23,-48 22,-56 26,-56 20,-53 18,-49 10,-40 10,-66 5,-54 8,-43 13,-33 15,-33 13,-28 v -20 z"
   id="path325"
   inkscape:connector-curvature="0"
   style="fill:#c9d3c9;stroke:none" />
        <path
   d="m 11030,16547 -23,-13 -13,-13 -3,-18 3,-17 8,-16 10,-17 12,-18 13,-15 23,-28 15,-33 13,-54 13,-84 10,-53 13,-51 17,-51 18,-48 18,-43 18,-38 13,-28 10,-23 15,-59 2,-33 -7,-28 -10,-33 -3,-20 5,-18 5,-13 10,-12 11,-8 12,-5 13,-3 h 13 l -18,16 -10,23 v 25 l 10,23 18,18 10,18 2,20 -12,23 -13,18 -15,27 -21,34 -17,35 -21,38 -17,36 -13,33 -8,25 -12,54 -18,66 -16,68 -10,59 -2,46 -5,35 -13,26 -20,22 -23,23 -13,23 -5,28 z"
   id="path327"
   inkscape:connector-curvature="0"
   style="fill:#8caa93;stroke:none" />
        <path
   d="m 11403,15693 -12,2 -13,3 -13,7 -13,8 -10,10 -10,13 -8,13 -5,17 -5,31 -2,25 2,23 3,23 -3,46 -12,68 -23,74 -23,61 -13,31 -20,43 -21,51 -22,50 -23,54 -21,46 -17,38 -11,23 -10,25 v 18 l 10,18 16,15 v -28 l 10,-41 20,-48 26,-53 15,-31 15,-33 18,-38 18,-38 17,-36 16,-35 12,-33 8,-26 15,-53 16,-61 12,-61 5,-49 5,-45 13,-51 18,-46 z"
   id="path329"
   inkscape:connector-curvature="0"
   style="fill:#8caa93;stroke:none" />
        <path
   d="m 11154,14630 -10,-5 -8,-5 h -7 -10 l -18,3 -23,5 -15,15 -5,28 2,28 5,23 8,17 20,16 23,12 13,5 10,-2 13,-3 h 12 l 13,5 10,16 8,30 5,64 2,94 3,96 3,72 7,78 13,115 10,112 3,66 -13,43 -15,43 -11,38 13,31 15,10 11,10 12,5 8,3 10,2 8,-2 5,-3 7,-5 21,3 18,-3 15,-5 h 15 20 l 23,-8 16,-17 5,-26 -5,-28 -13,-25 -15,-18 -16,-15 -15,-13 -15,-23 -15,-43 -11,-74 -7,-132 -3,-178 v -163 -86 l 3,-28 2,-20 5,-18 8,-13 5,-10 v -15 l -8,-18 -5,-18 -7,-18 -13,-15 -15,-10 -18,-5 -13,2 -10,3 -13,5 -10,5 -10,5 -10,5 -8,3 h -7 l -11,-10 -2,-13 -5,-13 z"
   id="path331"
   inkscape:connector-curvature="0"
   style="fill:#c9d3c9;stroke:none" />
        <path
   d="m 11360,15685 h -15 l -15,5 -18,3 -21,-3 -7,5 -5,3 -8,2 -10,-2 -8,-3 -12,-5 -11,-10 -15,-10 -13,-31 11,-38 15,-43 13,-43 -3,-66 -10,-112 -13,-115 -7,-78 -3,-72 -3,-96 -2,-94 -5,-64 -8,-30 -10,-16 -13,-5 h -12 l -13,3 -10,2 -13,-5 -23,-12 -20,-16 -8,-17 -5,-23 -2,-28 2,18 8,15 7,13 16,5 17,2 h 16 l 12,5 13,5 15,8 16,3 12,-6 16,-15 15,-13 15,-2 10,5 3,13 -8,12 -2,13 2,13 8,7 7,8 3,13 -5,15 -10,18 -8,33 -3,53 3,61 3,56 2,87 5,122 5,124 8,87 8,48 2,43 -5,33 -10,23 -15,20 -6,21 8,20 28,15 18,3 h 13 l 10,-5 7,-5 5,-3 h 11 l 10,8 z"
   id="path333"
   inkscape:connector-curvature="0"
   style="fill:#8caa93;stroke:none" />
        <path
   d="m 11312,15632 -23,15 -13,30 5,33 36,16 20,7 15,-7 13,-16 5,-20 v -23 l -10,-18 -18,-15 z"
   id="path335"
   inkscape:connector-curvature="0"
   style="fill:#c9d3c9;stroke:none" />
        <path
   d="m 11317,15726 -36,-16 -5,-33 13,-30 23,-15 -8,15 -2,28 5,28 z"
   id="path337"
   inkscape:connector-curvature="0"
   style="fill:#a0baa5;stroke:none" />
        <path
   d="m 11261,13537 -8,5 -10,3 h -15 -15 -18 -18 l -15,2 -15,3 -16,5 -18,5 -20,8 -18,5 -17,7 -18,5 -13,8 -10,3 -15,10 -16,7 -15,8 -13,3 -15,2 -13,10 -7,13 -3,15 5,13 5,8 5,5 h 8 15 l 21,-3 18,-8 15,-10 10,-10 13,-13 15,-10 15,-7 10,-3 13,-5 15,-3 16,-5 17,-2 16,-3 h 15 l 13,3 12,2 h 13 l 15,3 h 15 13 l 13,-3 13,-2 10,-8 15,-15 13,-15 5,-21 -5,-17 -13,-11 h -15 l -13,6 z"
   id="path339"
   inkscape:connector-curvature="0"
   style="fill:#c9d3c9;stroke:none" />
        <path
   d="m 10539,13537 8,5 12,3 h 13 18 15 18 l 15,2 15,3 16,5 17,5 21,8 17,5 18,7 18,5 13,8 10,3 15,10 15,7 16,8 12,3 16,2 12,10 8,13 v 15 l -5,13 -3,8 -7,5 h -8 -13 l -20,-3 -20,-8 -13,-10 -10,-10 -13,-13 -15,-10 -15,-7 -11,-3 -12,-5 -15,-3 -16,-5 -18,-2 -15,-3 h -15 l -13,3 -12,2 h -13 l -15,3 h -13 -15 l -13,-3 -10,-2 -10,-8 -16,-15 -12,-15 -5,-21 5,-17 12,-11 h 13 l 13,6 z"
   id="path341"
   inkscape:connector-curvature="0"
   style="fill:#c9d3c9;stroke:none" />
        <path
   d="m 11312,13535 5,17 -5,21 -13,15 -15,15 -10,8 -13,2 -13,3 h -13 -15 l -15,-3 h -13 l -12,-2 -13,-3 h -15 l -16,3 -17,2 -16,5 -15,3 -13,5 -10,3 -15,7 -15,10 -13,13 -10,10 -15,10 -18,8 -21,3 h -15 -8 l -5,-5 -5,-8 -5,-13 8,5 h 7 l 11,3 10,-3 h 10 l 13,-5 10,-5 10,-5 10,-8 8,-7 7,-8 11,-5 7,-8 10,-5 11,-5 12,-5 16,-5 15,-5 15,-2 15,-6 16,-2 h 15 15 13 l 13,2 15,3 h 12 13 13 l 10,-3 8,-2 5,-5 7,-10 11,-11 7,-12 z"
   id="path343"
   inkscape:connector-curvature="0"
   style="fill:#8caa93;stroke:none" />
        <path
   d="m 10491,13535 -5,17 5,21 12,15 16,15 10,8 10,2 13,3 h 15 13 l 15,-3 h 13 l 12,-2 13,-3 h 15 l 15,3 18,2 16,5 15,3 12,5 11,3 15,7 15,10 13,13 10,10 13,10 20,8 20,3 h 13 8 l 7,-5 3,-8 5,-13 -5,5 h -8 l -10,3 -10,-3 h -10 l -13,-5 -10,-5 -10,-5 -10,-8 -8,-7 -8,-8 -10,-5 -7,-8 -11,-5 -12,-5 -13,-5 -13,-5 -15,-5 -15,-2 -16,-6 -17,-2 h -16 -15 -13 l -12,2 -13,3 h -13 -10 -13 l -10,-3 -7,-2 -5,-5 -8,-10 -10,-11 -8,-12 z"
   id="path345"
   inkscape:connector-curvature="0"
   style="fill:#8caa93;stroke:none" />
        <path
   d="m 10933,13413 -8,12 -5,16 -5,15 -7,15 -8,10 -10,3 h -13 l -13,-5 -12,-3 -13,3 -10,5 -10,5 h -11 l -10,-5 -7,-8 -3,-10 -5,-10 -8,-10 -10,-8 -10,-5 -8,-5 -5,-8 -2,-7 v -8 -8 -7 l -3,-8 -5,-8 -5,-7 -5,-13 v -10 l 2,-8 3,-15 v -20 l -3,-23 -2,-13 -10,-18 2,-10 8,-2 h 13 l 10,2 10,10 5,13 -5,10 -8,13 -2,15 v 18 l 2,18 -7,10 v 13 l 5,10 10,5 5,15 8,8 h 10 l 8,-18 v 10 l 2,10 5,11 8,2 7,-8 3,-12 v -16 -5 l 2,23 6,10 5,3 h 7 l 5,-5 3,-13 v -15 -15 l 5,12 5,13 8,10 7,3 5,-10 -2,-16 -3,-15 -2,-8 5,13 5,10 5,5 5,3 5,-5 v -10 -18 l -2,-18 2,13 5,7 5,3 5,3 6,-8 v -13 l -3,-15 -3,-5 6,13 2,7 h 5 l 5,-2 13,-8 8,15 v 33 z"
   id="path347"
   inkscape:connector-curvature="0"
   style="fill:#a0baa5;stroke:none" />
        <path
   d="m 10902,13311 3,-8 3,-5 2,-2 h 5 l 3,5 2,10 3,10 -3,8 -5,2 h -5 l -2,-7 z"
   id="path349"
   inkscape:connector-curvature="0"
   style="fill:#c9d3c9;stroke:none" />
        <path
   d="m 10862,13346 v -7 l 7,-8 8,-5 h 8 l 2,18 v 18 10 l -5,5 -5,-3 -5,-5 -5,-10 z"
   id="path351"
   inkscape:connector-curvature="0"
   style="fill:#c9d3c9;stroke:none" />
        <path
   d="m 10811,13369 2,-7 11,-8 h 7 l 8,3 v 15 15 l -3,13 -5,5 h -7 l -5,-3 -6,-10 z"
   id="path353"
   inkscape:connector-curvature="0"
   style="fill:#c9d3c9;stroke:none" />
        <path
   d="m 10755,13372 v -5 l 5,-8 3,-5 v -2 l 7,-3 8,5 5,10 3,13 -8,18 h -10 l -8,-8 z"
   id="path355"
   inkscape:connector-curvature="0"
   style="fill:#c9d3c9;stroke:none" />
        <path
   d="m 10885,13326 v -7 l 2,-8 8,-3 7,3 3,5 3,15 v 13 l -6,8 -5,-3 -5,-3 -5,-7 z"
   id="path357"
   inkscape:connector-curvature="0"
   style="fill:#c9d3c9;stroke:none" />
        <path
   d="m 10839,13357 v -8 l 8,-8 h 7 l 8,5 2,8 3,15 2,16 -5,10 -7,-3 -8,-10 -5,-13 z"
   id="path359"
   inkscape:connector-curvature="0"
   style="fill:#c9d3c9;stroke:none" />
        <path
   d="m 10786,13377 2,-10 8,-5 7,2 8,5 v 5 16 l -3,12 -7,8 -8,-2 -5,-11 -2,-10 z"
   id="path361"
   inkscape:connector-curvature="0"
   style="fill:#c9d3c9;stroke:none" />
        <path
   d="m 10747,13334 h 8 l 5,2 3,8 v 8 2 l -3,5 -5,8 v 5 l -10,-5 -5,-10 v -13 z"
   id="path363"
   inkscape:connector-curvature="0"
   style="fill:#c9d3c9;stroke:none" />
        <path
   d="m 10920,13329 3,-8 -3,-10 -2,-10 -3,-5 v -3 l 3,-2 5,-6 5,-5 5,-7 2,-8 v -10 -10 -13 l -2,-13 -8,-10 -10,-5 -10,-2 v -8 l 5,-10 13,-13 20,-8 23,3 18,8 5,12 -3,16 3,17 10,18 13,15 12,16 6,15 -6,15 -10,13 -10,8 -10,12 -13,15 -10,16 -13,18 -10,12 -10,13 -5,8 8,-44 v -33 l -8,-15 z"
   id="path365"
   inkscape:connector-curvature="0"
   style="fill:#568272;stroke:none" />
        <path
   d="m 10760,13400 5,5 8,3 h 5 l 5,-6 5,8 10,8 h 10 l 5,-5 8,5 h 8 l 10,-8 5,-10 8,5 h 10 l 10,-5 5,-13 v 8 10 10 5 l -3,-5 -2,-2 -5,-3 h -5 l -5,3 -5,2 -3,8 -2,7 -3,-5 -5,-2 h -5 -5 -5 l -5,5 -3,7 -3,11 -2,-8 -5,-10 -8,-5 -5,-3 h -2 l -3,3 -2,5 v 5 l -3,-8 -5,-10 -5,-2 -3,7 -2,-5 -5,-7 -3,-6 z"
   id="path367"
   inkscape:connector-curvature="0"
   style="fill:#568272;stroke:none" />
        <path
   d="m 10702,13285 5,6 5,5 2,2 v 0 l 3,10 5,5 5,8 5,3 5,2 5,-2 3,-3 h 2 l 3,5 8,3 h 5 l 5,-3 7,5 h 8 l 10,-2 5,-5 10,2 11,-5 10,-8 2,-10 5,3 8,-3 5,-7 5,-13 5,5 h 10 l 5,-8 3,-10 5,-5 5,-5 v -5 -3 h 15 l 18,-7 15,-13 8,-13 3,-12 7,-10 10,-6 h 13 l 5,3 5,5 5,5 h 6 l 5,-5 7,-10 5,-10 8,-8 13,-5 12,-8 13,-15 10,-28 3,-23 v -25 l -3,-31 -5,-33 -10,-33 -13,-33 -20,-30 -23,-31 -28,-25 -33,-18 -33,-10 -36,-5 h -35 l -38,7 -38,13 -39,20 -12,8 -16,13 -17,15 -16,15 -15,21 -13,20 -7,23 -3,25 -2,41 -3,25 -7,16 -8,7 -5,10 -5,11 v 12 l 10,16 13,15 10,18 2,12 3,13 v 5 5 l -3,10 v 10 13 l 3,15 5,11 10,7 3,3 17,5 16,2 12,3 z"
   id="path369"
   inkscape:connector-curvature="0"
   style="fill:#c9d3c9;stroke:none" />
        <path
   d="m 11022,13171 -8,8 -5,10 -7,10 -5,5 h -6 l -5,-5 -5,-5 -5,-3 h -13 l -10,6 -7,10 -3,12 -8,13 -15,13 -18,7 h -15 v 3 5 l -5,5 -5,5 -3,10 -5,8 h -10 l -5,-5 -5,13 -5,7 -8,3 -5,-3 -2,10 -10,8 -11,5 -10,-2 -5,5 -10,2 h -8 l -7,-5 -5,3 h -5 l -8,-3 -3,-5 h -2 l -3,3 -5,2 -5,-2 -5,-3 -5,-8 -5,-5 -3,-10 v 0 l -2,-2 -5,-5 -5,-6 -11,-2 -12,-3 -16,-2 -17,-5 -10,-8 -6,-13 -5,-12 v -16 16 l 5,12 8,11 13,2 12,-5 8,-10 5,-13 5,-7 5,2 11,3 h 7 8 l -5,15 -3,15 v 13 l 8,5 h 12 l 16,-8 10,-12 5,-26 13,18 10,10 13,3 20,-5 23,-8 15,-5 5,-8 v -7 h 5 l 3,-3 v -8 l -8,-10 -15,-10 -15,-7 -13,2 -5,13 -3,-3 -2,-2 -5,-3 h -3 l -7,-13 -8,-12 -8,-10 -7,-8 -5,-5 -3,-5 -3,-8 -2,-7 10,10 10,10 13,7 13,6 12,2 h 18 13 l 8,-2 -3,10 5,12 10,11 h 18 v 10 l 5,10 5,8 8,2 h 7 l 11,-8 10,-7 5,-10 5,-10 8,-6 10,-5 12,-2 13,-5 8,-8 7,-10 6,-10 7,-10 13,-11 7,-5 3,-7 -3,-5 -5,-5 -7,2 -10,5 -11,8 -10,5 h -12 l -13,-3 -13,-5 -10,-2 h -10 -8 l -5,-3 -5,-7 -5,-13 -5,-18 -3,-23 v -25 l 10,-31 28,-35 3,28 8,33 17,25 33,8 31,-18 10,-33 v -36 l -10,-28 18,28 12,46 8,51 v 41 l -5,25 -10,18 -13,12 z"
   id="path371"
   inkscape:connector-curvature="0"
   style="fill:#a0baa5;stroke:none" />
        <path
   d="m 10669,13044 -8,5 -5,10 -5,10 -3,8 15,3 16,2 18,5 10,5 2,-5 3,-2 5,-3 h 5 l -15,-7 -18,-11 -15,-10 z"
   id="path373"
   inkscape:connector-curvature="0"
   style="fill:#a0baa5;stroke:none" />
        <path
   d="m 10755,13049 5,10 15,-10 16,-13 12,-10 8,-5 8,-7 10,-6 15,-2 15,5 3,-10 v -13 l -3,-13 -2,-5 -16,3 -15,5 -13,10 -10,8 -10,12 -18,18 -12,15 z"
   id="path375"
   inkscape:connector-curvature="0"
   style="fill:#a0baa5;stroke:none" />
        <path
   d="m 10727,13179 v -5 l 5,-3 h 3 l 2,3 3,7 2,13 v 13 l 3,7 v 5 l -3,5 h -7 l -5,-2 -6,-10 v -13 l 3,-10 z"
   id="path377"
   inkscape:connector-curvature="0"
   style="fill:#3f3f3f;stroke:none" />
        <path
   d="m 10750,13174 2,10 3,13 3,12 5,10 7,3 10,-3 6,-5 -3,-7 -8,-8 -7,-10 -3,-8 -5,-7 -2,-5 -3,-3 -5,3 z"
   id="path379"
   inkscape:connector-curvature="0"
   style="fill:#3f3f3f;stroke:none" />
        <path
   d="m 10648,13115 -12,3 -13,5 -5,7 v 13 l 7,15 5,16 8,10 8,5 12,2 18,-2 18,-5 13,-8 5,-10 5,-10 v -13 l -3,-7 -5,-8 -5,-8 -7,-2 -11,-3 h -10 -10 -10 z"
   id="path381"
   inkscape:connector-curvature="0"
   style="fill:#3f3f3f;stroke:none" />
        <path
   d="m 10765,13102 -5,3 -2,8 2,7 5,10 8,11 10,7 8,8 15,2 h 10 10 l 13,-2 13,-5 12,-5 10,-8 6,-8 5,-10 v -20 l -5,-18 -6,-13 -10,-7 -10,-3 h -13 l -12,3 -13,7 -13,11 -12,7 -16,8 z"
   id="path383"
   inkscape:connector-curvature="0"
   style="fill:#3f3f3f;stroke:none" />
        <path
   d="m 10707,13176 -13,8 -18,5 -18,2 -12,-2 -8,-5 -8,-10 -5,-16 -7,-15 v -13 l 5,-7 13,-5 12,-3 -10,5 -8,8 -2,10 2,8 6,10 7,10 8,10 12,5 h 16 l 15,-2 8,-3 z"
   id="path385"
   inkscape:connector-curvature="0"
   style="fill:#75997a;stroke:none" />
        <path
   d="m 10885,13120 -5,10 -6,8 -10,8 -12,5 -13,5 -13,2 h -10 -10 l -15,-2 -8,-8 -10,-7 -8,-11 -5,-10 -2,-7 2,-8 5,-3 3,13 5,10 5,11 10,7 8,5 10,3 h 13 12 l 16,-3 12,-7 13,-8 z"
   id="path387"
   inkscape:connector-curvature="0"
   style="fill:#75997a;stroke:none" />
        <path
   d="m 10877,13270 -3,10 -5,8 h -10 l -5,-5 -2,-10 2,-13 v -8 l 5,-5 5,3 8,8 2,10 z"
   id="path389"
   inkscape:connector-curvature="0"
   style="fill:#c9d3c9;stroke:none" />
        <path
   d="m 10831,13303 -2,10 -10,8 -11,5 -10,-2 -2,-18 2,-18 3,-13 5,-5 7,3 8,7 5,13 z"
   id="path391"
   inkscape:connector-curvature="0"
   style="fill:#c9d3c9;stroke:none" />
        <path
   d="m 10768,13326 -5,3 h -5 l -8,-3 -3,-5 -5,-13 -2,-10 v -7 l 2,-6 8,3 8,8 7,15 z"
   id="path393"
   inkscape:connector-curvature="0"
   style="fill:#c9d3c9;stroke:none" />
        <path
   d="m 10747,13321 h -2 l -3,3 -5,2 -5,-2 -5,-3 -5,-8 -5,-5 -3,-10 v -2 l 3,-5 2,-3 h 5 l 6,3 7,7 5,10 z"
   id="path395"
   inkscape:connector-curvature="0"
   style="fill:#c9d3c9;stroke:none" />
        <path
   d="m 10831,13303 -2,-10 -3,-15 3,-10 5,-8 7,3 8,7 3,10 2,3 -5,13 -5,7 -8,3 z"
   id="path397"
   inkscape:connector-curvature="0"
   style="fill:#c9d3c9;stroke:none" />
        <path
   d="m 10768,13326 v -13 -17 l 2,-16 5,-7 11,7 5,16 5,17 2,11 -5,5 -10,2 h -8 z"
   id="path399"
   inkscape:connector-curvature="0"
   style="fill:#c9d3c9;stroke:none" />
        <path
   d="m 10656,14602 13,3 h 7 l 5,5 10,5 13,13 15,17 5,21 -10,25 -10,13 -10,10 -8,8 -7,7 -8,5 -10,5 -10,3 h -15 l -23,-3 -16,-5 -7,-7 -8,-10 -10,-8 h -13 l -18,8 -22,20 -18,20 -23,31 -26,35 -30,41 -28,41 -28,38 -25,33 -18,23 -21,23 -30,35 -36,43 -38,46 -38,46 -33,41 -25,33 -16,20 -15,41 -10,45 -13,38 -28,16 -33,2 -20,-5 -13,-7 -7,-16 -21,-7 -10,-13 -13,-13 -12,-7 -16,-13 -12,-20 -3,-23 10,-23 10,-10 11,-10 12,-8 11,-8 12,-2 10,-5 h 11 l 10,-3 h 10 l 10,-2 10,-3 15,-8 16,-10 20,-15 23,-23 28,-30 36,-46 45,-61 51,-71 54,-74 48,-71 40,-61 34,-49 15,-25 15,-23 10,-20 5,-18 v -15 l 3,-13 10,-10 13,-13 18,-10 17,-10 18,-5 h 18 l 18,7 15,16 13,20 7,20 13,11 13,-3 10,-8 13,-7 z"
   id="path401"
   inkscape:connector-curvature="0"
   style="fill:#c9d3c9;stroke:none" />
        <path
   d="m 9891,15360 12,7 13,13 10,13 21,7 7,16 13,7 20,5 33,-2 28,-16 13,-38 10,-45 15,-41 16,-20 25,-33 33,-41 38,-46 38,-46 36,-43 30,-35 21,-23 18,-23 25,-33 28,-38 28,-41 30,-41 26,-35 23,-31 18,-20 22,-20 18,-8 h 13 l 10,8 8,10 7,7 16,5 23,3 h 15 l 10,-3 10,-5 8,-5 7,-7 8,-8 10,-10 10,-13 -15,13 -13,10 -12,5 -16,-5 -15,-8 -13,-7 -15,-5 -15,-3 h -13 l -13,-7 -10,-13 -2,-21 -5,-20 -13,-10 -13,-3 -7,11 -3,15 -5,13 -8,7 -10,3 -12,2 -8,10 -3,16 -2,20 -3,13 -10,20 -13,20 -15,23 -18,26 -17,25 -21,23 -15,23 -20,28 -31,40 -35,46 -39,51 -38,51 -38,48 -30,38 -23,28 -18,21 -15,17 -13,18 -13,15 -10,16 -5,15 -5,13 v 12 l 2,26 -7,20 -18,10 -33,-2 -18,-8 -7,-7 -6,-8 -2,-10 -5,-5 -8,-5 h -12 z"
   id="path403"
   inkscape:connector-curvature="0"
   style="fill:#8caa93;stroke:none" />
        <path
   d="m 9906,15337 10,-5 10,-3 h 15 13 l 13,8 13,7 10,16 7,17 8,36 5,25 15,31 41,43 18,15 25,23 33,26 36,30 38,36 38,38 36,41 30,43 28,38 21,30 20,23 15,18 15,13 16,10 15,8 15,7 18,8 20,10 18,10 15,13 11,15 2,15 -5,18 -13,21 -20,20 -18,13 -18,7 -17,3 -16,-3 -12,-7 -13,-16 -8,-20 -10,-25 -10,-26 -13,-25 -15,-28 -13,-26 -15,-25 -15,-23 -16,-23 -17,-25 -28,-31 -33,-35 -36,-36 -41,-38 -38,-33 -38,-31 -35,-22 -34,-18 -27,-16 -26,-17 -25,-13 -21,-13 -15,-12 -13,-11 -10,-10 -13,-23 v -28 l 18,-33 z"
   id="path405"
   inkscape:connector-curvature="0"
   style="fill:#c9d3c9;stroke:none" />
        <path
   d="m 9814,15426 13,-5 13,-3 h 12 l 16,3 15,5 13,5 12,10 13,13 20,25 13,20 8,23 7,23 8,15 13,23 20,26 26,28 25,30 25,28 26,23 23,20 28,23 35,31 41,33 46,38 43,36 38,33 31,25 20,15 20,18 8,18 v 18 l -8,22 -10,21 -18,7 -20,-2 -18,-23 -8,-15 -5,-15 -7,-16 -8,-12 -10,-13 -15,-15 -16,-18 -20,-18 -28,-23 -38,-30 -43,-33 -43,-39 -46,-38 -43,-38 -39,-35 -27,-33 -21,-28 -18,-28 -15,-23 -15,-21 -13,-20 -13,-15 -12,-13 -13,-13 -15,-10 -13,-10 -15,-10 -10,-10 -5,-8 -3,-10 8,-8 z"
   id="path407"
   inkscape:connector-curvature="0"
   style="fill:#c9d3c9;stroke:none" />
        <path
   d="m 10531,16021 13,-21 5,-18 -2,-15 -11,-15 -15,-13 -18,-10 -20,-10 -18,-8 -15,-7 -15,-8 -16,-10 -15,-13 -15,-18 -20,-23 -21,-30 -28,-38 -30,-43 -36,-41 -38,-38 -38,-36 -36,-30 -33,-26 -25,-23 -18,-15 -41,-43 -15,-31 -5,-25 -8,-36 -7,-17 -10,-16 -13,-7 -13,-8 h -13 -15 l -10,3 -10,5 23,7 18,16 10,20 v 25 l -5,23 -3,23 8,18 20,18 18,10 28,18 30,20 36,23 33,25 33,26 25,23 18,17 15,21 21,20 23,25 23,28 22,26 23,28 18,25 15,23 13,20 10,21 10,15 11,13 12,10 11,10 12,5 15,5 16,3 15,7 13,6 10,10 10,10 8,13 5,12 z"
   id="path409"
   inkscape:connector-curvature="0"
   style="fill:#8caa93;stroke:none" />
        <path
   d="m 9814,15426 13,-5 13,-3 h 12 l 16,3 15,5 13,5 12,10 13,13 20,25 13,20 8,23 7,23 8,15 13,23 20,26 26,28 25,30 25,28 26,23 23,20 28,23 35,31 41,33 46,38 43,36 38,33 31,25 20,15 20,18 8,18 v 18 l -8,22 -2,-12 -10,-13 -11,-15 -15,-15 -20,-18 -21,-18 -22,-18 -23,-18 -28,-20 -31,-23 -30,-25 -33,-28 -33,-26 -28,-25 -26,-23 -20,-20 -18,-18 -18,-23 -20,-23 -23,-23 -20,-25 -18,-23 -15,-20 -11,-21 -10,-20 -12,-20 -18,-21 -15,-20 -21,-18 -18,-12 -17,-13 z"
   id="path411"
   inkscape:connector-curvature="0"
   style="fill:#8caa93;stroke:none" />
        <path
   d="m 10511,16046 15,5 13,10 13,18 7,13 8,7 7,5 8,5 5,3 8,8 5,15 2,15 -7,18 -13,10 -15,3 h -15 l -16,-8 -5,10 -10,10 -13,8 h -17 l -3,13 -2,7 -6,8 -7,5 -15,10 -16,18 -17,20 -11,21 -5,12 -2,8 -3,5 -7,3 -6,5 -17,-5 -21,-8 -7,-3 -5,16 -8,10 -5,8 -8,2 -5,3 -2,7 -3,5 v 5 l -2,5 -6,6 -5,2 h -2 v 5 l -3,5 -2,5 -8,3 -7,5 -11,5 -10,8 -5,7 -8,5 h -10 -7 l -3,-7 h -10 l -8,-3 -5,-7 v -11 h -7 l -8,-5 -5,-7 v -10 h -5 l -8,-3 -5,-8 v -10 l 5,-7 3,-5 5,-6 v -5 l 2,-5 3,-5 5,-2 5,-5 v -6 l 5,-7 5,-5 5,-5 8,-5 8,-6 5,-7 5,-5 v -5 -8 l 2,-2 h 5 l 3,-6 2,-7 6,-5 7,-5 5,-5 10,-8 13,-13 13,-12 13,-13 12,-13 10,-10 6,-8 10,-7 10,-10 10,-11 8,-7 7,-5 5,-3 5,-2 3,-8 v -8 l 3,-5 2,-2 3,-3 2,-18 13,-20 18,-13 h 17 l 18,5 16,3 15,2 z"
   id="path413"
   inkscape:connector-curvature="0"
   style="fill:#8caa93;stroke:none" />
        <path
   d="m 10442,16056 -2,8 -10,12 -11,11 -12,2 7,3 5,2 6,5 7,3 8,5 7,2 h 8 l 8,-2 10,-3 h 13 l 10,3 7,8 5,10 3,12 -10,8 h -26 v 15 l 3,13 10,8 13,2 15,-5 10,-5 5,-8 5,-10 13,13 20,8 16,-8 2,-33 -13,2 -15,-5 -12,-5 -8,-10 v -13 l -8,-17 -10,-11 -13,-2 -15,5 -13,5 -15,8 -13,2 -10,-5 -5,-10 v -13 z"
   id="path415"
   inkscape:connector-curvature="0"
   style="fill:#c9d3c9;stroke:none" />
        <path
   d="m 10463,16181 5,5 5,7 v 11 l -8,12 -18,18 -20,25 -20,26 -8,18 -5,7 -8,5 -10,3 -10,-3 -10,-7 -10,-5 -5,-5 7,-11 15,-12 13,-16 13,-12 10,-13 8,-13 10,-12 5,-11 5,-7 5,-8 10,-2 10,-3 z"
   id="path417"
   inkscape:connector-curvature="0"
   style="fill:#c9d3c9;stroke:none" />
        <path
   d="m 10447,16127 8,5 8,11 v 7 l -11,8 -12,5 -10,7 -8,13 -8,10 -7,8 -10,13 -13,15 -13,15 -13,15 -10,13 -10,10 -5,8 -5,5 h -8 l -5,-5 -2,-5 -3,-5 3,-5 7,-8 8,-10 8,-8 10,-12 12,-18 16,-18 12,-18 13,-15 10,-15 5,-8 8,-10 8,-8 7,-2 z"
   id="path419"
   inkscape:connector-curvature="0"
   style="fill:#c9d3c9;stroke:none" />
        <path
   d="m 10407,16122 2,3 v 7 l -5,11 -7,10 -8,10 -10,13 -16,17 -15,21 -15,20 -15,15 -10,16 -6,7 -7,8 -5,2 h -8 l -5,-2 v -5 -5 l 5,-5 5,-6 13,-15 18,-25 20,-28 15,-21 10,-15 13,-18 15,-12 z"
   id="path421"
   inkscape:connector-curvature="0"
   style="fill:#c9d3c9;stroke:none" />
        <path
   d="m 10351,16163 -15,20 -23,28 -23,28 -13,18 -8,8 -2,5 h -5 l -5,-3 -5,-5 v -5 -5 l 7,-8 10,-7 13,-11 13,-12 15,-16 13,-12 10,-10 10,-8 z"
   id="path423"
   inkscape:connector-curvature="0"
   style="fill:#c9d3c9;stroke:none" />
        <path
   d="m 10320,16310 -7,10 -13,11 -10,10 -5,7 -5,8 -8,8 -8,5 h -5 l -2,-5 2,-8 v -8 l 5,-7 8,-8 10,-10 8,-10 5,-10 7,-5 h 11 l 7,5 z"
   id="path425"
   inkscape:connector-curvature="0"
   style="fill:#c9d3c9;stroke:none" />
        <path
   d="m 10267,16290 8,-3 10,3 5,5 -3,8 -10,12 -10,13 -10,15 -8,11 -5,2 h -8 l -2,-2 2,-8 8,-13 8,-18 10,-15 z"
   id="path427"
   inkscape:connector-curvature="0"
   style="fill:#c9d3c9;stroke:none" />
        <path
   d="m 10219,16303 -6,7 -2,10 -3,11 -2,2 -10,-7 z"
   id="path429"
   inkscape:connector-curvature="0"
   style="fill:#c9d3c9;stroke:none" />
        <path
   d="m 10252,16374 2,2 3,8 v 10 l -5,10 -8,8 -5,8 -5,7 -3,3 -2,-3 v -10 l 2,-18 16,-25 z"
   id="path431"
   inkscape:connector-curvature="0"
   style="fill:#c9d3c9;stroke:none" />
        <path
   d="m 10234,16361 2,3 3,7 v 10 l -5,8 -8,8 -5,10 -5,8 -3,2 -2,-2 v -11 l 2,-17 16,-28 z"
   id="path433"
   inkscape:connector-curvature="0"
   style="fill:#c9d3c9;stroke:none" />
        <path
   d="m 10213,16343 3,3 3,8 v 10 l -6,10 -7,7 -5,8 -5,8 -3,2 -2,-2 v -10 l 2,-18 15,-26 z"
   id="path435"
   inkscape:connector-curvature="0"
   style="fill:#c9d3c9;stroke:none" />
        <path
   d="m 10198,16336 h 3 v 5 l -5,5 -3,8 -5,7 -5,8 -3,7 -2,3 v -8 -12 l 5,-16 z"
   id="path437"
   inkscape:connector-curvature="0"
   style="fill:#c9d3c9;stroke:none" />
        <path
   d="m 10330,16315 6,-7 h 7 l 8,2 7,5 8,5 8,6 7,2 8,5 2,5 v 5 l -2,8 -10,5 -10,5 -13,10 -13,8 -5,8 v 7 l -2,8 -3,5 -8,2 -7,-5 -8,-7 -8,-8 h -7 l -8,-2 -5,-6 v -10 l 8,-12 10,-8 10,-8 10,-10 z"
   id="path439"
   inkscape:connector-curvature="0"
   style="fill:#c9d3c9;stroke:none" />
        <path
   d="m 10302,16384 11,8 10,7 7,8 -5,10 -10,5 h -10 -8 l -7,5 -8,10 -15,8 -15,8 -11,-3 -5,-8 5,-10 8,-10 5,-7 5,-16 8,-18 15,-7 z"
   id="path441"
   inkscape:connector-curvature="0"
   style="fill:#c9d3c9;stroke:none" />
        <path
   d="m 10257,16277 -5,15 -11,18 -7,18 -8,10 -5,3 h -2 l -3,-5 v -5 l 3,-11 10,-17 7,-18 5,-10 3,-3 h 5 l 5,3 z"
   id="path443"
   inkscape:connector-curvature="0"
   style="fill:#c9d3c9;stroke:none" />
        <path
   d="m 10295,16389 h 7 l 8,8 8,7 7,5 8,-2 3,-5 2,-8 v -7 l 5,-8 13,-8 13,-10 10,-5 10,-5 2,-8 v -5 l -2,-5 -8,-5 -7,-2 -8,-6 -8,-5 11,8 7,10 3,8 -8,5 -13,5 -10,8 -10,7 -5,10 -3,8 -5,5 -12,3 z"
   id="path445"
   inkscape:connector-curvature="0"
   style="fill:#8caa93;stroke:none" />
        <path
   d="m 10241,16450 11,3 15,-8 15,-8 8,-10 7,-5 h 8 10 l 10,-5 5,-10 -7,-8 -10,-7 -11,-8 8,8 5,7 v 8 l -10,2 -13,6 -7,5 -5,7 -5,5 -8,8 -8,8 -10,5 z"
   id="path447"
   inkscape:connector-curvature="0"
   style="fill:#8caa93;stroke:none" />
        <path
   d="m 9870,15329 13,-2 15,5 13,10 13,13 7,15 v 15 l -7,18 -18,13 -15,15 h -18 l -15,-8 -16,-18 -7,-17 v -23 l 10,-21 z"
   id="path449"
   inkscape:connector-curvature="0"
   style="fill:#c9d3c9;stroke:none" />
        <path
   d="m 9906,15416 18,-13 7,-18 v -15 l -7,-15 -13,-13 -13,-10 -15,-5 -13,2 13,10 13,23 10,26 z"
   id="path451"
   inkscape:connector-curvature="0"
   style="fill:#a0baa5;stroke:none" />
       </g>
      </g>
     </g>
    </g>
   </g>
  </g>
 </g>
</svg>