<?xml version="1.0" encoding="UTF-8" standalone="no"?>
<svg
   xmlns:ooo="http://xml.openoffice.org/svg/export"
   xmlns:dc="http://purl.org/dc/elements/1.1/"
   xmlns:cc="http://creativecommons.org/ns#"
   xmlns:rdf="http://www.w3.org/1999/02/22-rdf-syntax-ns#"
   xmlns:svg="http://www.w3.org/2000/svg"
   xmlns="http://www.w3.org/2000/svg"
   xmlns:sodipodi="http://sodipodi.sourceforge.net/DTD/sodipodi-0.dtd"
   xmlns:inkscape="http://www.inkscape.org/namespaces/inkscape"
   version="1.2"
   width="24.559999mm"
   height="43.889999mm"
   viewBox="0 0 2455.9999 4388.9999"
   preserveAspectRatio="xMidYMid"
   xml:space="preserve"
   id="svg475"
   sodipodi:docname="skeletn1.svg"
   style="fill-rule:evenodd;stroke-width:28.22200012;stroke-linejoin:round"
   inkscape:version="0.92.5 (2060ec1f9f, 2020-04-08)"><metadata
   id="metadata479"><rdf:RDF><cc:Work
       rdf:about=""><dc:format>image/svg+xml</dc:format><dc:type
         rdf:resource="http://purl.org/dc/dcmitype/StillImage" /></cc:Work></rdf:RDF></metadata><sodipodi:namedview
   pagecolor="#ffffff"
   bordercolor="#666666"
   borderopacity="1"
   objecttolerance="10"
   gridtolerance="10"
   guidetolerance="10"
   inkscape:pageopacity="0"
   inkscape:pageshadow="2"
   inkscape:window-width="664"
   inkscape:window-height="487"
   id="namedview477"
   showgrid="false"
   inkscape:zoom="0.2102413"
   inkscape:cx="46.412599"
   inkscape:cy="82.922833"
   inkscape:window-x="0"
   inkscape:window-y="0"
   inkscape:window-maximized="0"
   inkscape:current-layer="svg475" />
 <defs
   class="ClipPathGroup"
   id="defs8">
  <clipPath
   id="presentation_clip_path"
   clipPathUnits="userSpaceOnUse">
   <rect
   x="0"
   y="0"
   width="21000"
   height="29700"
   id="rect2" />
  </clipPath>
  <clipPath
   id="presentation_clip_path_shrink"
   clipPathUnits="userSpaceOnUse">
   <rect
   x="21"
   y="29"
   width="20958"
   height="29641"
   id="rect5" />
  </clipPath>
 </defs>
 <defs
   class="TextShapeIndex"
   id="defs12">
  <g
   ooo:slide="id1"
   ooo:id-list="id3"
   id="g10" />
 </defs>
 <defs
   class="EmbeddedBulletChars"
   id="defs44">
  <g
   id="bullet-char-template-57356"
   transform="matrix(4.8828125e-4,0,0,-4.8828125e-4,0,0)">
   <path
   d="M 580,1141 1163,571 580,0 -4,571 Z"
   id="path14"
   inkscape:connector-curvature="0" />
  </g>
  <g
   id="bullet-char-template-57354"
   transform="matrix(4.8828125e-4,0,0,-4.8828125e-4,0,0)">
   <path
   d="M 8,1128 H 1137 V 0 H 8 Z"
   id="path17"
   inkscape:connector-curvature="0" />
  </g>
  <g
   id="bullet-char-template-10146"
   transform="matrix(4.8828125e-4,0,0,-4.8828125e-4,0,0)">
   <path
   d="M 174,0 602,739 174,1481 1456,739 Z M 1358,739 309,1346 659,739 Z"
   id="path20"
   inkscape:connector-curvature="0" />
  </g>
  <g
   id="bullet-char-template-10132"
   transform="matrix(4.8828125e-4,0,0,-4.8828125e-4,0,0)">
   <path
   d="M 2015,739 1276,0 H 717 l 543,543 H 174 v 393 h 1086 l -543,545 h 557 z"
   id="path23"
   inkscape:connector-curvature="0" />
  </g>
  <g
   id="bullet-char-template-10007"
   transform="matrix(4.8828125e-4,0,0,-4.8828125e-4,0,0)">
   <path
   d="m 0,-2 c -7,16 -16,29 -25,39 l 381,530 c -94,256 -141,385 -141,387 0,25 13,38 40,38 9,0 21,-2 34,-5 21,4 42,12 65,25 l 27,-13 111,-251 280,301 64,-25 24,25 c 21,-10 41,-24 62,-43 C 886,937 835,863 770,784 769,783 710,716 594,584 L 774,223 c 0,-27 -21,-55 -63,-84 l 16,-20 C 717,90 699,76 672,76 641,76 570,178 457,381 L 164,-76 c -22,-34 -53,-51 -92,-51 -42,0 -63,17 -64,51 -7,9 -10,24 -10,44 0,9 1,19 2,30 z"
   id="path26"
   inkscape:connector-curvature="0" />
  </g>
  <g
   id="bullet-char-template-10004"
   transform="matrix(4.8828125e-4,0,0,-4.8828125e-4,0,0)">
   <path
   d="M 285,-33 C 182,-33 111,30 74,156 52,228 41,333 41,471 c 0,78 14,145 41,201 34,71 87,106 158,106 53,0 88,-31 106,-94 l 23,-176 c 8,-64 28,-97 59,-98 l 735,706 c 11,11 33,17 66,17 42,0 63,-15 63,-46 V 965 c 0,-36 -10,-64 -30,-84 L 442,47 C 390,-6 338,-33 285,-33 Z"
   id="path29"
   inkscape:connector-curvature="0" />
  </g>
  <g
   id="bullet-char-template-9679"
   transform="matrix(4.8828125e-4,0,0,-4.8828125e-4,0,0)">
   <path
   d="M 813,0 C 632,0 489,54 383,161 276,268 223,411 223,592 c 0,181 53,324 160,431 106,107 249,161 430,161 179,0 323,-54 432,-161 108,-107 162,-251 162,-431 0,-180 -54,-324 -162,-431 C 1136,54 992,0 813,0 Z"
   id="path32"
   inkscape:connector-curvature="0" />
  </g>
  <g
   id="bullet-char-template-8226"
   transform="matrix(4.8828125e-4,0,0,-4.8828125e-4,0,0)">
   <path
   d="m 346,457 c -73,0 -137,26 -191,78 -54,51 -81,114 -81,188 0,73 27,136 81,188 54,52 118,78 191,78 73,0 134,-26 185,-79 51,-51 77,-114 77,-187 0,-75 -25,-137 -76,-188 -50,-52 -112,-78 -186,-78 z"
   id="path35"
   inkscape:connector-curvature="0" />
  </g>
  <g
   id="bullet-char-template-8211"
   transform="matrix(4.8828125e-4,0,0,-4.8828125e-4,0,0)">
   <path
   d="M -4,459 H 1135 V 606 H -4 Z"
   id="path38"
   inkscape:connector-curvature="0" />
  </g>
  <g
   id="bullet-char-template-61548"
   transform="matrix(4.8828125e-4,0,0,-4.8828125e-4,0,0)">
   <path
   d="m 173,740 c 0,163 58,303 173,419 116,115 255,173 419,173 163,0 302,-58 418,-173 116,-116 174,-256 174,-419 0,-163 -58,-303 -174,-418 C 1067,206 928,148 765,148 601,148 462,206 346,322 231,437 173,577 173,740 Z"
   id="path41"
   inkscape:connector-curvature="0" />
  </g>
 </defs>
 <g
   id="g49"
   transform="translate(-9272,-12655)">
  <g
   id="id2"
   class="Master_Slide">
   <g
   id="bg-id2"
   class="Background" />
   <g
   id="bo-id2"
   class="BackgroundObjects" />
  </g>
 </g>
 <g
   class="SlideGroup"
   id="g473"
   transform="translate(-9272,-12655)">
  <g
   id="g471">
   <g
   id="container-id1">
    <g
   id="id1"
   class="Slide"
   clip-path="url(#presentation_clip_path)">
     <g
   class="Page"
   id="g467">
      <g
   class="Graphic"
   id="g465">
       <g
   id="id3">
        <rect
   class="BoundingBox"
   x="9272"
   y="12655"
   width="2456"
   height="4389"
   id="rect51"
   style="fill:none;stroke:none" />
        <defs
   id="defs56">
         <clipPath
   id="clip_path_1"
   clipPathUnits="userSpaceOnUse">
          <path
   d="m 9272,12655 h 2455 v 4388 H 9272 Z"
   id="path53"
   inkscape:connector-curvature="0" />
         </clipPath>
        </defs>
        <g
   clip-path="url(#clip_path_1)"
   id="g462">
         <path
   d="m 11713,12721 5,56 -15,51 -11,53 16,51 -16,51 5,53 8,51 18,51 -15,53 -3,51 -2,51 25,53 -23,51 5,51 -7,51 10,53 -28,51 20,51 -5,53 -5,51 2,51 21,51 -31,50 26,54 5,51 -31,50 26,51 -21,51 36,51 -15,53 -21,51 8,54 -10,48 20,53 -2,51 20,51 -15,53 -13,48 13,54 2,51 -10,51 3,53 5,51 2,51 10,48 -28,51 -2,50 23,51 10,49 -33,50 25,54 -12,51 -16,50 8,51 8,54 -3,50 -8,49 13,51 -23,48 5,51 21,51 -21,50 5,51 23,51 5,51 -2,51 -20,51 15,50 -5,49 -23,50 13,51 -8,51 10,48 -18,51 16,51 15,51 -8,51 5,48 -25,51 10,48 20,46 -33,46 5,48 28,43 -2,53 -61,3 -54,-38 -50,10 -54,13 h -53 -51 l -53,12 -51,-10 -54,-7 -51,-8 -53,-5 -51,-8 -53,23 -51,-12 -51,-6 -53,23 -51,-5 -51,5 h -53 l -54,-10 -53,13 -48,-15 -51,-3 h -54 l -51,10 -53,-7 -51,22 h -51 l -50,-22 -51,7 -51,8 -48,-10 -54,12 -51,-12 -51,10 -50,2 -49,3 -48,-18 -53,3 -49,-5 -48,20 -51,-13 -48,10 -48,-7 -49,2 -35,-12 7,-46 -5,-51 -7,-51 -18,-53 2,-51 33,-53 -28,-51 21,-51 2,-53 -10,-51 8,-51 -23,-51 -3,-53 3,-51 2,-51 13,-53 13,-51 2,-51 -15,-53 -8,-51 18,-51 -28,-51 13,-51 -10,-53 18,-48 10,-54 v -50 l -23,-51 8,-51 -6,-54 3,-50 23,-51 -3,-51 v -51 l 3,-53 -3,-51 3,-51 -20,-51 -11,-48 23,-53 -2,-51 -16,-54 26,-48 v -53 l -20,-51 -18,-51 5,-48 7,-53 -12,-49 12,-51 11,-53 12,-51 3,-51 2,-50 -33,-54 23,-51 v -48 l -7,-51 -21,-48 5,-51 31,-51 -8,-51 -10,-50 -23,-51 38,-51 -23,-51 -5,-51 -2,-51 23,-48 -23,-51 7,-50 6,-51 17,-49 -30,-50 25,-51 3,-51 -28,-48 10,-51 23,-48 -8,-51 -30,-46 7,-46 -2,-48 v -43 l 13,-38 53,7 51,-7 51,20 53,-38 53,23 51,2 54,10 50,-5 54,-28 51,13 53,-8 51,13 53,13 51,-26 54,18 50,13 54,-5 51,-15 53,-8 51,3 h 53 l 51,17 h 51 l 51,-7 51,5 53,-15 51,22 51,-12 h 51 l 51,2 50,-23 51,-2 51,18 53,7 h 51 l 49,13 50,-20 49,22 53,-38 48,8 49,13 48,-21 51,23 46,10 48,-17 z"
   id="path58"
   inkscape:connector-curvature="0"
   style="fill:#000000;stroke:none" />
         <path
   d="m 11642,12673 7,53 -18,51 -10,53 15,51 -15,51 8,53 7,51 18,51 -18,53 -2,51 -3,51 26,53 -23,51 5,51 -8,53 11,51 -26,51 18,53 -5,51 -5,51 2,54 21,48 -31,51 26,53 5,51 -28,51 23,50 -21,51 36,54 -15,51 -21,50 8,54 -8,51 18,50 -3,51 21,51 -13,53 -15,51 13,51 2,51 -8,51 v 53 l 6,51 5,51 7,51 -28,48 v 51 l 21,50 10,49 -31,51 23,53 -13,51 -15,51 8,50 10,54 -5,51 -8,48 13,51 -23,51 5,50 23,49 -23,51 5,50 23,54 8,48 -5,51 -21,51 16,51 -5,48 -23,53 12,48 -5,51 8,49 -15,50 15,51 13,51 -8,51 5,48 -25,51 10,48 20,46 -33,46 5,48 31,43 -3,54 -63,2 -54,-38 -51,10 -50,13 -54,2 -53,-2 -54,13 -50,-11 -54,-7 -51,-8 -53,-2 -51,-8 -51,20 -53,-10 -51,-5 -51,20 -53,-5 -51,5 h -54 l -50,-10 -51,13 -54,-15 -50,-3 -51,3 -51,7 -54,-7 -53,25 h -51 l -48,-25 -54,7 -50,8 -49,-10 -53,13 -51,-13 -51,10 -51,3 -48,2 -48,-18 -54,3 -48,-3 -48,18 -49,-13 -50,11 -46,-6 h -51 l -33,-10 5,-48 -5,-51 -8,-51 -17,-53 2,-51 33,-51 -28,-53 23,-51 v -51 l -8,-53 6,-51 -21,-51 -5,-53 3,-51 2,-51 13,-53 13,-51 2,-51 -15,-53 -8,-51 18,-51 -28,-51 13,-50 -10,-51 17,-51 11,-53 2,-51 -25,-51 7,-51 -5,-53 3,-51 25,-51 -2,-51 -3,-51 3,-53 -3,-51 5,-51 -23,-48 -10,-51 23,-53 -2,-51 -16,-51 26,-51 v -53 l -21,-48 -17,-54 5,-48 7,-51 -12,-51 12,-50 10,-51 16,-51 v -53 l 2,-51 -30,-51 23,-51 -3,-51 -8,-51 -20,-48 8,-51 28,-51 -8,-50 -10,-51 -23,-51 38,-51 -23,-48 -5,-54 -2,-50 23,-49 -23,-50 7,-51 5,-49 18,-48 -30,-53 25,-51 3,-51 -28,-48 10,-51 23,-48 -8,-51 -30,-46 10,-46 -5,-45 2,-46 10,-38 54,7 53,-7 51,20 51,-38 53,23 54,2 50,11 54,-6 51,-27 53,15 51,-8 53,10 51,13 51,-25 53,17 51,13 54,-5 51,-15 53,-8 51,3 h 53 l 54,17 h 48 l 53,-7 49,5 53,-15 53,25 51,-15 h 48 l 54,2 48,-20 51,-5 53,20 51,5 51,3 51,10 48,-18 49,21 53,-38 48,10 49,12 48,-22 51,22 45,11 49,-18 z"
   id="path60"
   inkscape:connector-curvature="0"
   style="fill:#cc3333;stroke:none" />
         <path
   d="m 10665,14663 -2,-13 -8,-8 -10,-7 -13,-3 -15,-5 -13,-2 -12,-3 -11,-5 -10,-5 -10,-5 -13,-5 -15,-3 -18,-2 -15,-3 h -20 -21 l -28,-10 -7,-28 2,-33 5,-33 3,-26 -3,-22 -7,-18 -10,-10 -11,-11 -5,-10 -5,-12 v -16 l 10,13 13,13 15,10 23,2 21,8 17,18 13,25 8,26 7,18 16,12 20,3 25,-10 8,45 -10,8 -5,18 5,15 15,3 15,-13 v -13 l -7,-13 -13,-5 -8,-45 11,-8 12,-5 h 10 11 l 7,2 10,3 13,3 h 10 10 l 11,-3 10,-3 10,-2 h 10 10 l 10,5 13,8 -7,45 -16,5 -7,13 v 13 l 15,13 15,-3 8,-15 -5,-18 -10,-8 7,-45 26,10 20,-3 15,-12 10,-18 8,-26 10,-25 18,-18 20,-8 23,-2 15,-10 13,-13 10,-13 v 16 l -5,12 -5,10 -10,11 -10,10 -5,18 -5,22 2,26 8,33 2,33 -10,28 -28,10 h -20 -18 l -18,3 -15,2 -15,3 -13,5 -13,5 -10,5 -10,5 -13,3 -12,2 -16,5 -12,3 -11,7 -7,8 z"
   id="path62"
   inkscape:connector-curvature="0"
   style="fill:#000000;stroke:none" />
         <path
   d="m 10726,14403 -2,11 -8,7 -10,3 -13,2 -7,3 -5,2 v 8 l 2,8 3,7 -3,5 -5,5 h -8 -7 l -5,-5 -3,-5 v -7 l 3,-8 v -8 l -3,-2 -8,-3 -12,-2 -10,-3 -11,-7 -2,-11 5,-7 13,-5 17,-5 h 23 l 21,2 17,3 13,5 z"
   id="path64"
   inkscape:connector-curvature="0"
   style="fill:#000000;stroke:none" />
         <path
   d="m 10726,14292 -2,10 -8,7 -10,3 -13,3 -7,2 -5,5 v 5 l 2,10 3,8 -3,3 -5,5 h -8 -7 l -5,-5 -3,-3 v -8 l 3,-10 v -5 l -3,-5 -8,-2 -12,-3 -10,-3 -11,-7 -2,-10 5,-8 13,-5 17,-5 h 23 l 21,2 17,3 13,5 z"
   id="path66"
   inkscape:connector-curvature="0"
   style="fill:#000000;stroke:none" />
         <path
   d="m 10726,14182 -2,11 -8,7 -10,3 -13,2 -7,3 -5,2 v 8 l 2,8 3,7 -3,5 -5,5 h -8 -7 l -5,-5 -3,-5 v -7 l 3,-8 v -8 l -3,-2 -8,-3 -12,-2 -10,-3 -11,-7 -2,-11 5,-7 13,-5 17,-5 h 23 l 21,2 17,3 13,5 z"
   id="path68"
   inkscape:connector-curvature="0"
   style="fill:#000000;stroke:none" />
         <path
   d="m 10726,14071 -2,10 -8,7 -10,3 -13,2 -7,3 -5,5 v 5 l 2,10 3,8 -3,2 -5,6 h -8 -7 l -5,-6 -3,-2 v -8 l 3,-10 v -5 l -3,-5 -8,-3 -12,-2 -10,-3 -11,-7 -2,-10 5,-8 13,-5 17,-5 h 23 l 21,2 17,3 13,5 z"
   id="path70"
   inkscape:connector-curvature="0"
   style="fill:#000000;stroke:none" />
         <path
   d="m 10670,13646 -7,-2 -5,-3 -3,-5 v -8 l 3,-10 v -5 l -3,-5 -8,-3 h -12 l -10,-5 -11,-7 -2,-10 -5,10 v 10 10 l 2,8 3,7 2,5 -2,6 h -5 l -8,-3 -7,3 -3,5 -3,10 v 10 l 3,5 h 5 5 8 2 l 3,5 v 5 l 2,8 8,5 8,2 7,3 h 16 l 5,5 5,3 7,2 8,-2 5,-3 5,-5 h 15 l 8,-3 8,-2 5,-5 2,-8 v -5 l 3,-5 h 2 8 8 l 5,-3 2,-5 3,-10 -3,-10 -5,-5 -7,-3 -11,3 -5,3 -2,-6 2,-5 5,-7 3,-8 v -10 l -3,-10 -5,-10 -2,10 -8,7 -10,5 h -13 l -7,3 -5,5 v 5 l 2,10 3,8 -3,5 -5,3 z"
   id="path72"
   inkscape:connector-curvature="0"
   style="fill:#000000;stroke:none" />
         <path
   d="m 10670,13318 h -7 l -5,-5 -3,-5 v -7 l 3,-8 v -8 l -3,-2 -8,-3 -12,-2 -10,-3 -11,-8 -2,-10 -5,8 v 10 10 l 2,8 3,8 2,5 -2,5 h -5 l -8,-3 -7,3 -3,7 -3,8 v 10 l 3,5 h 5 5 8 2 l 3,5 v 5 l 2,8 8,5 8,3 7,2 h 16 l 5,5 5,3 7,2 8,-2 5,-3 5,-5 h 15 l 8,-2 8,-3 5,-5 2,-8 v -5 l 3,-5 h 2 8 8 l 5,-2 2,-5 3,-11 -3,-10 -5,-5 -7,-2 -11,2 -5,3 -2,-5 2,-5 5,-8 3,-8 v -10 l -3,-10 -5,-8 -2,10 -8,8 -10,3 -13,2 -7,3 -5,2 v 8 l 2,8 3,7 -3,5 -5,5 z"
   id="path74"
   inkscape:connector-curvature="0"
   style="fill:#000000;stroke:none" />
         <path
   d="m 10665,14083 h -7 l -5,-2 -8,-5 -13,-13 -30,36 -36,27 -35,16 -39,10 -38,2 h -30 l -26,-2 -15,-3 -23,-12 -18,-21 -7,-23 5,-22 -23,-16 -10,-28 v -33 l 12,-25 -20,-20 -5,-28 5,-31 20,-20 -10,-18 -2,-25 7,-28 18,-21 -18,-7 -15,-13 -13,-18 -10,-20 -7,-23 -5,-25 -3,-23 v -26 l 5,-20 10,-15 16,-13 20,-8 20,-5 21,-2 h 17 18 l 8,-8 7,-8 11,-5 12,-7 18,-3 20,-5 h 26 l 30,3 13,-5 13,-5 18,-6 20,-5 20,-2 21,-3 h 22 l 18,3 18,-3 h 20 l 21,3 23,2 17,5 18,6 15,5 13,5 31,-3 h 25 l 23,5 15,3 16,7 10,5 7,8 5,8 h 18 18 l 20,2 21,5 20,8 15,13 10,15 6,20 v 26 l -3,23 -5,25 -8,23 -10,20 -13,18 -15,13 -18,7 18,21 8,28 -3,25 -10,18 20,20 8,31 -8,28 -20,20 13,25 v 33 l -10,28 -23,16 5,22 -8,23 -18,21 -23,12 -15,3 -25,2 h -33 l -36,-2 -38,-10 -38,-16 -36,-27 -30,-36 -13,13 -8,5 -5,2 z"
   id="path76"
   inkscape:connector-curvature="0"
   style="fill:#000000;stroke:none" />
         <path
   d="m 10716,14739 -2,-33 5,-23 7,-15 13,-8 13,-2 12,5 11,10 5,13 -16,-6 -20,8 -20,20 z"
   id="path78"
   inkscape:connector-curvature="0"
   style="fill:#000000;stroke:none" />
         <path
   d="m 10612,14739 2,-33 -5,-23 -7,-15 -10,-8 -13,-2 -13,5 -10,10 -5,13 15,-6 20,8 18,20 z"
   id="path80"
   inkscape:connector-curvature="0"
   style="fill:#000000;stroke:none" />
         <path
   d="m 10726,14510 -2,10 -8,8 -10,3 -13,2 -7,3 -5,2 v 8 l 2,7 3,8 -3,5 -5,5 h -8 -7 l -5,-5 -3,-5 v -8 l 3,-7 v -8 l -3,-2 -8,-3 -12,-2 -10,-3 -11,-8 -2,-10 5,-7 13,-5 17,-6 h 23 l 21,3 17,3 13,5 z"
   id="path82"
   inkscape:connector-curvature="0"
   style="fill:#000000;stroke:none" />
         <path
   d="m 10726,13473 -2,13 -8,8 -10,2 -13,3 -7,2 -5,3 v 7 l 2,8 3,8 -3,5 -5,5 h -8 -7 l -5,-5 -3,-5 v -8 l 3,-8 v -7 l -3,-3 -8,-2 -12,-3 -10,-2 -11,-8 -2,-13 5,-7 13,-5 17,-3 h 23 l 21,3 17,2 13,5 z"
   id="path84"
   inkscape:connector-curvature="0"
   style="fill:#000000;stroke:none" />
         <path
   d="m 10726,13367 -2,10 -8,7 -10,3 -13,2 -7,3 -5,3 v 7 l 2,8 3,7 -3,6 -5,5 h -8 -7 l -5,-5 -3,-6 v -7 l 3,-8 v -7 l -3,-3 -8,-3 -12,-2 -10,-3 -11,-7 -2,-10 5,-8 13,-5 17,-5 h 23 l 21,2 17,3 13,5 z"
   id="path86"
   inkscape:connector-curvature="0"
   style="fill:#000000;stroke:none" />
         <path
   d="m 10726,13583 -2,10 -8,7 -10,5 h -13 l -7,3 -5,5 v 5 l 2,10 3,8 -3,5 -5,3 -8,2 -7,-2 -5,-3 -3,-5 v -8 l 3,-10 v -5 l -3,-5 -8,-3 h -12 l -10,-5 -11,-7 -2,-10 5,-8 13,-5 17,-3 h 23 l 21,3 17,2 13,6 z"
   id="path88"
   inkscape:connector-curvature="0"
   style="fill:#000000;stroke:none" />
         <path
   d="m 10665,14663 -2,-13 -8,-8 -10,-7 -13,-3 -15,-5 -13,-2 -12,-3 -11,-5 -10,-5 -10,-5 -13,-5 -15,-3 -18,-2 -15,-3 h -20 -21 l -28,-10 -7,-28 2,-33 5,-33 3,-26 -3,-22 -7,-18 -10,-10 -11,-11 -5,-10 -5,-12 v -16 l -12,-7 h -16 l -18,5 -15,13 -7,17 v 18 l 2,20 13,16 15,12 15,11 11,12 2,21 v 20 15 l 5,10 3,11 2,10 -2,10 -3,7 -5,11 -8,12 -7,16 2,15 18,2 23,-2 h 20 l 16,10 5,18 2,28 5,25 -2,20 -15,13 -16,13 3,13 10,12 18,5 18,5 12,8 8,10 2,16 41,-41 -13,-18 3,-23 13,-30 10,-38 5,-13 10,-10 13,-5 13,2 10,8 7,15 5,23 -2,33 -15,46 -21,17 h -23 l -15,-7 -41,41 8,17 18,18 23,10 23,-5 12,-20 11,-20 15,-16 28,-7 10,-5 2,-8 -2,-13 -3,-12 -2,-21 5,-18 8,-7 12,7 10,-7 11,7 2,18 v 21 l -5,12 v 13 8 l 10,5 31,7 15,16 10,20 13,20 23,5 23,-10 17,-18 8,-17 -41,-41 -7,2 -10,5 h -11 -10 l -12,-5 -11,-12 -10,-18 -5,-28 -2,-33 5,-23 7,-15 13,-8 13,-2 12,5 11,10 5,13 10,38 13,30 2,23 -13,18 41,41 3,-16 7,-10 13,-8 18,-5 18,-5 10,-12 2,-13 -15,-13 -15,-13 -3,-20 5,-25 3,-28 5,-18 15,-10 h 21 l 22,2 18,-2 3,-15 -8,-16 -8,-12 -5,-11 -2,-7 -3,-10 3,-10 5,-11 2,-10 3,-15 -3,-20 3,-21 13,-12 12,-11 16,-12 12,-16 3,-20 v -18 l -8,-17 -15,-13 -18,-5 h -15 l -13,7 v 16 l -5,12 -5,10 -10,11 -10,10 -5,18 -5,22 2,26 8,33 2,33 -10,28 -28,10 h -20 -18 l -18,3 -15,2 -15,3 -13,5 -13,5 -10,5 -10,5 -13,3 -12,2 -16,5 -12,3 -11,7 -7,8 z"
   id="path90"
   inkscape:connector-curvature="0"
   style="fill:#ffffff;stroke:none" />
         <path
   d="m 10670,14464 h -7 l -5,-5 -3,-5 v -7 l 3,-8 v -8 l -3,-2 -8,-3 -12,-2 -10,-3 -11,-7 -2,-11 -5,8 v 10 10 l 2,8 v 5 5 l -5,3 -10,-3 -10,-2 -8,5 -10,7 -2,11 2,7 8,5 h 7 l 8,-2 8,2 7,3 5,7 3,6 2,7 8,5 8,3 7,2 h 16 l 5,5 5,3 7,2 8,-2 5,-3 5,-5 h 15 l 8,-2 8,-3 5,-5 2,-7 3,-6 7,-7 8,-3 8,-2 10,2 h 7 l 8,-5 3,-7 -3,-11 -10,-7 -13,-5 -10,2 -8,3 -5,-3 -2,-5 2,-5 3,-8 v -10 l -3,-10 -5,-8 -2,11 -8,7 -10,3 -13,2 -7,3 -5,2 v 8 l 2,8 3,7 -3,5 -5,5 z"
   id="path92"
   inkscape:connector-curvature="0"
   style="fill:#ffffff;stroke:none" />
         <path
   d="m 10670,14353 h -7 l -5,-5 -3,-3 v -8 l 3,-10 v -5 l -3,-5 -8,-2 -12,-3 -10,-3 -11,-7 -2,-10 -5,10 v 10 10 l 2,8 v 5 2 l -5,3 -10,-3 h -10 l -8,3 -10,10 -2,10 2,8 8,2 h 7 8 8 l 7,6 5,5 3,7 2,8 8,2 8,5 h 7 l 16,3 5,3 5,5 7,2 8,-2 5,-5 5,-3 15,-3 h 8 l 8,-5 5,-2 2,-8 3,-7 7,-5 8,-6 h 8 10 7 l 8,-2 3,-8 -3,-10 -10,-10 -13,-3 h -10 l -8,3 -5,-3 -2,-2 2,-5 3,-8 v -10 l -3,-10 -5,-10 -2,10 -8,7 -10,3 -13,3 -7,2 -5,5 v 5 l 2,10 3,8 -3,3 -5,5 z"
   id="path94"
   inkscape:connector-curvature="0"
   style="fill:#ffffff;stroke:none" />
         <path
   d="m 10670,14243 h -7 l -5,-5 -3,-5 v -7 l 3,-8 v -8 l -3,-2 -8,-3 -12,-2 -10,-3 -11,-7 -2,-11 -5,8 v 10 10 l 2,8 v 5 5 l -5,3 -10,-3 -10,-2 -8,5 -10,7 -2,10 2,8 8,5 h 7 l 8,-2 8,2 7,3 5,5 3,7 2,8 8,5 8,3 7,2 h 16 l 5,5 5,3 7,2 8,-2 5,-3 5,-5 h 15 l 8,-2 8,-3 5,-5 2,-8 3,-7 7,-5 8,-3 8,-2 10,2 h 7 l 8,-5 3,-8 -3,-10 -10,-7 -13,-5 -10,2 -8,3 -5,-3 -2,-5 2,-5 3,-8 v -10 l -3,-10 -5,-8 -2,11 -8,7 -10,3 -13,2 -7,3 -5,2 v 8 l 2,8 3,7 -3,5 -5,5 z"
   id="path96"
   inkscape:connector-curvature="0"
   style="fill:#ffffff;stroke:none" />
         <path
   d="m 10670,14132 h -7 l -5,-6 -3,-2 v -8 l 3,-10 v -5 l -3,-5 -8,-3 -12,-2 -10,-3 -11,-7 -2,-10 -5,10 v 10 10 l 2,8 v 5 2 l -5,3 -10,-3 h -10 l -8,3 -10,10 -2,10 2,8 8,2 h 7 8 8 l 7,5 5,6 3,7 2,8 8,2 8,5 h 7 l 16,3 5,2 5,6 7,2 8,-2 5,-6 5,-2 15,-3 h 8 l 8,-5 5,-2 2,-8 3,-7 7,-6 8,-5 h 8 10 7 l 8,-2 3,-8 -3,-10 -10,-10 -13,-3 h -10 l -8,3 -5,-3 -2,-2 2,-5 3,-8 v -10 l -3,-10 -5,-10 -2,10 -8,7 -10,3 -13,2 -7,3 -5,5 v 5 l 2,10 3,8 -3,2 -5,6 z"
   id="path98"
   inkscape:connector-curvature="0"
   style="fill:#ffffff;stroke:none" />
         <path
   d="m 10670,13428 h -7 l -5,-5 -3,-6 v -7 l 3,-8 v -7 l -3,-3 -8,-3 -12,-2 -10,-3 -11,-7 -2,-10 -5,7 v 10 11 l 2,7 3,8 2,5 -2,5 h -5 l -8,-3 -7,3 -3,8 -3,7 v 10 l 3,5 h 5 5 8 2 l 3,6 v 5 l 2,7 8,5 8,3 7,2 h 16 l 5,5 5,3 7,3 8,-3 5,-3 5,-5 h 15 l 8,-2 8,-3 5,-5 2,-7 v -5 l 3,-6 h 2 8 8 l 5,-2 2,-5 3,-10 -3,-10 -5,-6 -7,-2 -11,2 -5,3 -2,-5 2,-5 5,-8 3,-7 v -11 l -3,-10 -5,-7 -2,10 -8,7 -10,3 -13,2 -7,3 -5,3 v 7 l 2,8 3,7 -3,6 -5,5 z"
   id="path100"
   inkscape:connector-curvature="0"
   style="fill:#ffffff;stroke:none" />
         <path
   d="m 10670,13537 h -7 l -5,-5 -3,-5 v -8 l 3,-8 v -7 l -3,-3 -8,-2 -12,-3 -10,-2 -11,-8 -2,-13 -5,10 v 11 10 l 2,7 3,8 2,5 -2,5 h -5 l -8,-2 -7,2 -3,8 -3,7 v 11 l 3,5 h 5 5 8 2 l 3,5 v 5 l 2,8 8,5 8,2 7,3 h 16 l 5,5 5,2 7,3 8,-3 5,-2 5,-5 h 15 l 8,-3 8,-2 5,-5 2,-8 v -5 l 3,-5 h 2 8 8 l 5,-3 2,-5 3,-10 -3,-10 -5,-5 -7,-3 -11,3 -5,2 -2,-5 2,-5 5,-8 3,-7 v -10 l -3,-11 -5,-10 -2,13 -8,8 -10,2 -13,3 -7,2 -5,3 v 7 l 2,8 3,8 -3,5 -5,5 z"
   id="path102"
   inkscape:connector-curvature="0"
   style="fill:#ffffff;stroke:none" />
         <path
   d="m 10665,14083 h -7 l -5,-2 -8,-5 -13,-13 -2,-5 -5,-10 -8,-13 -3,-8 -22,49 -34,33 -33,23 -38,12 -35,8 h -31 -25 l -13,-3 -23,-12 -18,-21 -7,-23 5,-22 2,5 3,10 10,7 10,11 18,7 20,5 26,3 30,-3 21,-7 20,-10 20,-16 18,-15 13,-18 13,-18 7,-17 5,-16 -38,39 -41,22 -35,16 -36,5 -30,2 -28,-5 -18,-2 -10,-5 -23,-16 -10,-28 v -33 l 12,-25 -2,5 v 10 10 l 5,8 8,10 15,10 23,5 30,3 h 41 l 36,-8 30,-12 26,-16 20,-15 18,-20 10,-18 7,-18 -38,31 -40,17 -41,13 -41,3 h -38 l -30,-5 -26,-8 -13,-5 -20,-20 -5,-28 5,-31 20,-20 v 12 l 8,18 18,18 30,13 18,2 h 28 31 l 35,-5 33,-10 33,-15 28,-21 21,-30 -16,13 -25,15 -36,15 -40,10 -46,5 -46,-2 -40,-13 -34,-25 -10,-18 -2,-25 7,-28 18,-21 -5,23 15,23 31,20 41,13 48,5 53,-7 51,-18 46,-36 -28,10 -33,8 -38,5 h -41 l -38,-5 -33,-8 -28,-10 -18,-15 -15,-33 v -31 l 13,-28 22,-20 -7,33 18,31 33,25 45,18 51,7 51,-5 41,-15 30,-33 -25,13 -38,7 -43,3 -46,-5 -43,-15 -34,-23 -22,-36 -3,-51 8,-38 12,-25 18,-15 18,-11 18,-5 h 18 l 10,3 7,2 -23,11 -20,17 -15,28 -5,38 5,23 10,21 18,15 23,15 30,10 36,3 38,-3 43,-7 5,-5 8,-8 10,-5 10,-3 h 10 l 8,5 8,8 5,8 43,7 41,3 35,-3 31,-10 23,-15 17,-15 11,-21 5,-23 -5,-38 -16,-28 -20,-17 -23,-11 8,-2 10,-3 h 18 l 18,5 17,11 18,15 13,25 7,38 -2,51 -23,36 -33,23 -43,15 -46,5 -43,-3 -38,-7 -28,-13 30,33 43,15 51,5 51,-7 46,-18 33,-25 18,-31 -8,-33 23,20 13,28 v 31 l -16,33 -17,15 -28,10 -33,8 -39,5 h -40 l -38,-5 -36,-8 -28,-10 48,36 51,18 54,7 48,-5 41,-13 30,-20 15,-23 -5,-23 18,21 8,28 -3,25 -10,18 -33,25 -41,13 -45,2 -46,-5 -41,-10 -36,-15 -27,-15 -16,-13 23,30 28,21 33,15 36,10 33,5 h 30 28 l 18,-2 31,-13 17,-18 8,-18 v -12 l 20,20 8,31 -8,28 -20,20 -13,5 -23,8 -33,5 h -35 l -41,-3 -43,-13 -41,-17 -38,-31 8,18 10,18 18,20 20,15 25,16 31,12 36,8 h 40 l 31,-3 23,-5 15,-10 10,-10 3,-8 2,-10 -2,-10 -3,-5 13,25 v 33 l -10,28 -23,16 -10,5 -18,2 -28,5 -31,-2 -35,-5 -36,-16 -41,-22 -38,-39 5,16 10,17 13,18 13,18 18,15 18,16 20,10 20,7 31,3 28,-3 20,-5 15,-7 13,-11 8,-7 2,-10 3,-5 5,22 -8,23 -18,21 -23,12 -12,3 h -26 -30 l -36,-8 -38,-12 -36,-23 -30,-33 -25,-49 -3,8 -5,13 -8,10 -2,5 -13,13 -8,5 -5,2 z"
   id="path104"
   inkscape:connector-curvature="0"
   style="fill:#ffffff;stroke:none" />
         <path
   d="m 10564,14162 -26,5 h -25 -26 l -25,-2 -20,-3 -21,-2 -13,-3 -10,-3 -10,3 -5,10 5,15 18,13 23,8 25,2 23,-2 23,-5 23,-8 18,-8 12,-10 z"
   id="path106"
   inkscape:connector-curvature="0"
   style="fill:#ffffff;stroke:none" />
         <path
   d="m 10767,14162 25,5 h 26 25 l 26,-2 20,-3 20,-2 13,-3 10,-3 10,3 5,10 -5,15 -17,13 -23,8 -23,2 -26,-2 -22,-5 -21,-8 -20,-8 -13,-10 z"
   id="path108"
   inkscape:connector-curvature="0"
   style="fill:#ffffff;stroke:none" />
         <path
   d="m 10726,13257 -2,10 -8,8 -10,3 -13,2 -7,3 -5,2 v 8 l 2,8 3,7 -3,5 -5,5 h -8 -7 l -5,-5 -3,-5 v -7 l 3,-8 v -8 l -3,-2 -8,-3 -12,-2 -10,-3 -11,-8 -2,-10 5,-7 13,-5 17,-5 h 23 l 21,2 17,3 13,5 z"
   id="path110"
   inkscape:connector-curvature="0"
   style="fill:#ffffff;stroke:none" />
         <path
   d="m 10314,13631 5,30 -7,36 -15,28 -28,13 h -16 -15 l -13,5 -12,2 -13,5 -10,8 -10,8 -8,7 -13,21 -20,38 -28,50 -31,56 -30,59 -25,53 -21,43 -12,31 -8,33 -3,28 3,23 2,20 3,20 -3,23 -12,18 -26,8 -23,-5 -10,-11 -7,-12 -13,-3 -23,3 -20,-5 -18,-13 -5,-25 2,-13 5,-10 8,-10 10,-8 10,-10 16,-13 12,-13 16,-20 20,-30 25,-46 31,-56 33,-61 30,-64 31,-58 25,-51 18,-36 13,-27 10,-28 13,-26 12,-23 11,-23 12,-17 16,-16 15,-10 28,-5 20,13 13,15 5,15 5,8 5,8 8,10 z"
   id="path112"
   inkscape:connector-curvature="0"
   style="fill:#ffffff;stroke:none" />
         <path
   d="m 9948,14297 26,-8 12,-18 3,-23 -3,-20 -2,-20 -3,-23 3,-28 8,-33 12,-31 21,-43 25,-53 30,-59 31,-56 28,-50 20,-38 13,-21 8,-7 10,-8 10,-8 13,-5 12,-2 13,-5 h 15 16 l 28,-13 15,-28 7,-36 -5,-30 v 20 l -5,18 -10,13 -20,5 h -13 -13 -12 l -16,2 -12,3 -13,8 -13,10 -10,15 -15,28 -26,43 -28,56 -33,61 -30,64 -28,55 -20,44 -13,25 -15,33 -11,33 -7,28 5,18 8,18 2,23 -5,25 z"
   id="path114"
   inkscape:connector-curvature="0"
   style="fill:#000000;stroke:none" />
         <path
   d="m 9686,13674 6,-18 -3,-28 -13,-25 -28,-5 -25,10 -10,8 -3,5 -5,5 -13,5 -15,10 -15,15 -5,13 5,15 10,16 13,10 12,5 18,-3 18,-7 15,-11 3,-5 2,-2 11,-5 12,-3 z"
   id="path116"
   inkscape:connector-curvature="0"
   style="fill:#ffffff;stroke:none" />
         <path
   d="m 9557,13669 5,-13 15,-15 15,-10 13,-5 5,-5 3,-5 10,-8 25,-10 28,5 13,25 3,28 -6,18 v -18 l -7,-23 -15,-12 -21,12 8,8 5,10 -3,13 -10,10 3,-10 -5,-13 -8,-7 -13,-3 -12,5 -11,13 -5,13 -2,5 -8,-5 -13,-3 h -7 z"
   id="path118"
   inkscape:connector-curvature="0"
   style="fill:#000000;stroke:none" />
         <path
   d="m 9664,13603 5,2 h 10 l 5,-5 2,-10 3,-18 5,-22 5,-18 5,-13 10,-10 5,-10 v -8 l -15,-2 -5,-6 -7,-2 h -8 l -5,10 -3,10 v 10 l -2,11 -5,12 -8,16 -5,10 -5,10 -5,5 -3,8 v 10 l 5,10 z"
   id="path120"
   inkscape:connector-curvature="0"
   style="fill:#ffffff;stroke:none" />
         <path
   d="m 9704,13491 h 5 l 5,-2 3,-8 v -10 l -3,-8 v 0 h -2 v -2 l -3,-8 v -13 l -2,-12 -3,-8 -5,-3 -2,-2 h -5 l -6,5 h -5 l -7,5 -3,5 3,8 5,7 v 5 8 8 l 2,12 3,11 8,5 z"
   id="path122"
   inkscape:connector-curvature="0"
   style="fill:#ffffff;stroke:none" />
         <path
   d="m 9686,13423 8,-6 5,-5 v -7 l -5,-5 -5,-5 -8,-6 -5,-5 -2,-5 -5,-5 -5,-2 -6,-3 -5,3 v 5 l 3,7 5,11 3,10 2,7 3,8 5,5 z"
   id="path124"
   inkscape:connector-curvature="0"
   style="fill:#ffffff;stroke:none" />
         <path
   d="m 9580,13514 10,-3 7,-5 3,-5 -5,-10 -13,-13 -10,-17 -5,-16 -3,-12 3,-10 -3,-11 -7,-5 -16,8 h -7 l -10,2 -5,6 2,10 5,7 5,5 3,8 5,13 2,15 6,10 v 10 8 l 2,8 8,5 h 10 z"
   id="path126"
   inkscape:connector-curvature="0"
   style="fill:#ffffff;stroke:none" />
         <path
   d="m 9539,13417 5,-2 5,-5 3,-5 -5,-10 -8,-8 -5,-5 -3,-5 -5,-3 -5,-7 -2,-13 -5,-10 -6,-8 -5,-2 h -2 l -5,2 -5,5 -5,3 -6,2 v 8 l 3,5 8,8 7,10 5,12 5,11 6,10 7,10 8,5 z"
   id="path128"
   inkscape:connector-curvature="0"
   style="fill:#ffffff;stroke:none" />
         <path
   d="m 9493,13341 5,-5 3,-8 v -5 l -8,-5 h -7 l -6,-2 h -2 l -5,-5 -5,-5 -8,-3 h -5 l -5,5 v 5 l 5,5 5,5 5,8 3,8 5,7 7,3 z"
   id="path130"
   inkscape:connector-curvature="0"
   style="fill:#ffffff;stroke:none" />
         <path
   d="m 9539,13542 8,-3 7,-7 v -8 l -5,-7 -13,-11 -15,-15 -7,-15 -6,-10 v -10 l -2,-11 -8,-5 -12,10 -8,3 -10,3 -5,7 2,8 8,7 5,5 8,6 5,12 5,13 5,10 2,10 3,8 2,8 8,2 h 10 z"
   id="path132"
   inkscape:connector-curvature="0"
   style="fill:#ffffff;stroke:none" />
         <path
   d="m 9483,13453 5,-3 5,-5 v -7 l -5,-8 -8,-7 -5,-6 -2,-5 -5,-2 -5,-8 -5,-10 -5,-10 -6,-8 -5,-2 h -5 l -2,2 -5,5 -5,3 -6,5 v 5 l 3,8 8,7 7,10 8,11 8,10 5,10 7,10 8,3 z"
   id="path134"
   inkscape:connector-curvature="0"
   style="fill:#ffffff;stroke:none" />
         <path
   d="m 9430,13379 7,-2 5,-8 v -5 l -5,-5 -7,-5 -5,-3 h -3 l -3,-5 -5,-7 -5,-3 -7,-2 -5,2 v 5 l 2,5 3,8 2,10 3,8 2,7 8,5 z"
   id="path136"
   inkscape:connector-curvature="0"
   style="fill:#ffffff;stroke:none" />
         <path
   d="m 9501,13578 7,-3 8,-5 v -8 l -5,-7 -13,-11 -12,-15 -8,-12 -5,-11 v -10 l -3,-10 -7,-3 -13,8 -8,3 -7,2 -5,8 2,7 8,8 5,5 5,5 5,10 5,13 5,10 3,8 2,8 3,5 7,5 h 11 z"
   id="path138"
   inkscape:connector-curvature="0"
   style="fill:#ffffff;stroke:none" />
         <path
   d="m 9447,13494 6,-3 5,-5 2,-5 -5,-8 -5,-7 -5,-5 -5,-5 -3,-3 -5,-8 -2,-10 -5,-10 -6,-8 -2,-2 h -5 l -3,2 -5,6 -5,2 -5,3 -3,7 6,5 5,8 7,10 5,10 5,10 6,11 5,7 7,5 z"
   id="path140"
   inkscape:connector-curvature="0"
   style="fill:#ffffff;stroke:none" />
         <path
   d="m 9404,13425 8,-5 5,-5 v -8 l -3,-5 -7,-2 -5,-3 -3,-2 -2,-6 -3,-5 -5,-5 -8,-2 -2,2 -3,5 3,5 2,8 3,8 v 7 l 2,11 5,5 z"
   id="path142"
   inkscape:connector-curvature="0"
   style="fill:#ffffff;stroke:none" />
         <path
   d="m 9473,13605 5,-5 2,-7 -2,-5 -8,-3 -12,-2 -13,-8 -13,-5 -5,-8 -5,-7 -5,-5 h -8 l -5,10 -5,5 -5,5 v 5 l 5,5 8,3 5,2 7,3 8,5 8,7 7,5 5,6 3,5 5,2 8,3 5,-5 z"
   id="path144"
   inkscape:connector-curvature="0"
   style="fill:#ffffff;stroke:none" />
         <path
   d="m 9404,13565 5,-5 3,-3 v -5 l -5,-5 -8,-5 -5,-5 h -3 l -5,-3 -2,-5 -5,-7 -5,-8 -5,-5 -5,-3 h -6 l -2,3 v 5 l -5,3 -3,5 v 5 l 5,5 8,2 5,8 8,8 5,7 5,8 7,5 h 6 z"
   id="path146"
   inkscape:connector-curvature="0"
   style="fill:#ffffff;stroke:none" />
         <path
   d="m 9356,13517 5,-6 3,-5 v -2 l -3,-5 -5,-3 -5,-2 h -3 l -2,-5 -3,-3 -5,-3 h -8 -2 v 6 l 2,5 3,5 3,5 2,7 3,6 5,2 z"
   id="path148"
   inkscape:connector-curvature="0"
   style="fill:#ffffff;stroke:none" />
         <path
   d="m 9470,13600 5,-7 8,-5 h 8 l 7,7 10,16 18,17 18,16 10,5 13,2 10,5 v 8 l -10,13 -3,7 -5,5 -7,5 -8,-5 -8,-7 -5,-8 -5,-5 -7,-8 -16,-7 -15,-10 -13,-8 -10,-3 -5,-2 -5,-10 3,-10 z"
   id="path150"
   inkscape:connector-curvature="0"
   style="fill:#ffffff;stroke:none" />
         <path
   d="m 9506,13572 5,-7 8,-5 h 7 l 5,10 10,15 16,20 15,16 13,7 10,3 10,5 v 8 l -13,12 -2,8 -5,8 -8,2 -8,-5 -5,-8 -5,-10 -5,-7 -7,-8 -16,-10 -12,-10 -16,-8 -7,-3 -5,-5 -3,-10 3,-10 z"
   id="path152"
   inkscape:connector-curvature="0"
   style="fill:#ffffff;stroke:none" />
         <path
   d="m 9541,13539 8,-5 8,-5 7,3 5,10 8,18 10,20 13,18 10,10 10,5 8,8 v 7 l -13,11 -5,5 -7,5 -8,2 -8,-5 -5,-10 v -8 l -5,-7 -8,-10 -10,-13 -12,-13 -11,-10 -7,-5 -5,-5 -3,-10 5,-8 z"
   id="path154"
   inkscape:connector-curvature="0"
   style="fill:#ffffff;stroke:none" />
         <path
   d="m 9582,13511 5,-7 10,-3 h 8 l 5,10 5,18 13,23 13,18 10,10 10,5 8,8 -3,7 -13,8 -5,8 -5,5 -7,2 -8,-7 -5,-8 -3,-8 -2,-7 -8,-10 -10,-13 -13,-13 -12,-10 -8,-5 -3,-5 -2,-10 5,-10 z"
   id="path156"
   inkscape:connector-curvature="0"
   style="fill:#ffffff;stroke:none" />
         <path
   d="m 9704,13489 -5,-6 -7,-2 h -8 l -5,10 -3,10 v 10 l -2,11 -5,12 -8,13 -3,10 -5,10 -5,8 -5,8 v 10 l 5,7 16,3 -6,-3 -5,-2 -2,-5 v -8 l 5,-7 5,-3 3,-3 2,-7 5,-13 5,-15 8,-13 2,-10 v -10 l 3,-10 5,-8 z"
   id="path158"
   inkscape:connector-curvature="0"
   style="fill:#000000;stroke:none" />
         <path
   d="m 9686,13420 h -5 l -7,5 -3,5 3,8 5,7 v 5 8 8 l 2,12 3,11 8,5 12,-3 h -5 l -5,-5 -2,-5 v -8 -5 -5 -5 l -3,-5 -3,-10 -5,-10 v -10 z"
   id="path160"
   inkscape:connector-curvature="0"
   style="fill:#000000;stroke:none" />
         <path
   d="m 9653,13372 v 5 l 3,7 5,11 3,10 2,7 3,8 5,5 12,-2 h -5 l -5,-6 -5,-5 v -5 -5 l -2,-7 -3,-6 -2,-2 -6,-3 -2,-5 -3,-5 z"
   id="path162"
   inkscape:connector-curvature="0"
   style="fill:#000000;stroke:none" />
         <path
   d="m 9541,13415 h -7 l -10,2 -5,6 2,10 5,7 5,5 3,8 5,13 2,12 6,11 v 10 7 l 2,8 8,8 h 10 l 13,-8 -5,3 h -6 -7 l -3,-8 v -8 -5 l 3,-2 -3,-8 -5,-10 -2,-13 -5,-13 -6,-7 -5,-8 -5,-7 v -8 z"
   id="path164"
   inkscape:connector-curvature="0"
   style="fill:#000000;stroke:none" />
         <path
   d="m 9491,13341 -5,3 -6,2 v 8 l 3,5 8,8 7,10 5,12 5,11 6,10 7,10 8,5 10,-8 h -5 l -5,-2 -5,-5 -3,-5 -2,-8 -5,-10 -6,-10 -5,-8 -5,-7 -7,-8 -3,-8 z"
   id="path166"
   inkscape:connector-curvature="0"
   style="fill:#000000;stroke:none" />
         <path
   d="m 9450,13308 v 5 l 5,5 5,5 5,8 3,8 5,7 7,3 13,-8 -7,3 -6,-3 -5,-2 -2,-5 v -6 l -3,-5 -2,-2 -3,-3 h -5 l -5,-5 -2,-2 z"
   id="path168"
   inkscape:connector-curvature="0"
   style="fill:#000000;stroke:none" />
         <path
   d="m 9486,13450 -8,3 -10,3 -5,7 2,8 8,7 5,5 8,6 5,12 5,13 5,10 2,8 3,10 2,5 8,5 10,3 13,-13 -5,2 -5,3 h -8 l -5,-5 -2,-8 2,-5 v -5 l -2,-5 -6,-10 -7,-10 -8,-13 -5,-8 -8,-7 -5,-8 v -7 z"
   id="path170"
   inkscape:connector-curvature="0"
   style="fill:#000000;stroke:none" />
         <path
   d="m 9430,13379 -5,3 -6,5 v 5 l 3,8 8,7 7,10 8,11 8,10 5,10 7,10 8,3 10,-8 -8,3 -5,-3 -2,-5 -3,-5 -2,-8 -8,-10 -5,-10 -5,-8 -8,-7 -7,-8 -3,-8 z"
   id="path172"
   inkscape:connector-curvature="0"
   style="fill:#000000;stroke:none" />
         <path
   d="m 9397,13336 v 5 l 2,5 3,8 2,10 3,8 2,7 8,5 13,-5 h -5 l -6,-2 -5,-5 v -5 -5 -6 l -2,-2 -3,-3 -5,-2 -5,-5 -2,-3 z"
   id="path174"
   inkscape:connector-curvature="0"
   style="fill:#000000;stroke:none" />
         <path
   d="m 9450,13491 -8,3 -7,2 -5,8 2,7 8,8 5,5 5,5 5,10 5,11 5,10 3,7 v 8 l 5,8 7,5 h 11 l 10,-10 -5,2 -5,3 h -8 l -3,-5 -2,-8 v -5 -3 l -3,-5 -5,-10 -5,-10 -5,-10 -5,-8 -8,-8 -5,-7 v -8 z"
   id="path176"
   inkscape:connector-curvature="0"
   style="fill:#000000;stroke:none" />
         <path
   d="m 9404,13423 -5,2 -5,3 -3,7 6,5 5,8 7,10 5,10 5,10 6,11 5,7 7,5 10,-7 -5,2 -5,-2 -2,-5 -3,-6 -2,-7 -5,-10 -6,-8 -5,-8 -5,-7 -5,-8 -2,-7 z"
   id="path178"
   inkscape:connector-curvature="0"
   style="fill:#000000;stroke:none" />
         <path
   d="m 9379,13379 -3,5 3,5 2,8 3,8 v 7 l 2,11 5,5 13,-3 -5,-2 -5,-3 -3,-5 v -5 -5 -5 l -2,-3 -3,-2 -2,-3 -3,-5 -2,-5 z"
   id="path180"
   inkscape:connector-curvature="0"
   style="fill:#000000;stroke:none" />
         <path
   d="m 9404,13560 -5,5 -5,5 v 5 l 5,5 8,3 5,2 7,3 8,5 8,7 7,5 5,6 3,5 5,2 8,3 5,-5 5,-11 -3,6 -5,2 -2,3 -5,-3 -3,-5 -2,-3 -3,-5 -3,-2 -7,-5 -8,-5 -7,-5 -8,-5 -8,-3 -5,-3 -5,-5 z"
   id="path182"
   inkscape:connector-curvature="0"
   style="fill:#000000;stroke:none" />
         <path
   d="m 9356,13514 -5,3 -3,5 v 5 l 5,5 8,2 5,8 8,8 5,7 5,8 7,5 h 6 l 7,-5 -5,2 -5,-2 -3,-3 -2,-5 -3,-5 -7,-8 -5,-5 -5,-5 -5,-5 -6,-5 -5,-5 z"
   id="path184"
   inkscape:connector-curvature="0"
   style="fill:#000000;stroke:none" />
         <path
   d="m 9328,13483 v 6 l 2,5 3,5 3,5 2,7 3,6 5,2 10,-2 h -5 l -5,-3 -3,-3 v -5 -2 l -2,-5 v -3 h -3 l -2,-2 -3,-5 -5,-3 z"
   id="path186"
   inkscape:connector-curvature="0"
   style="fill:#000000;stroke:none" />
         <path
   d="m 9567,13677 -3,7 -5,5 -7,5 -8,-5 -8,-7 -5,-8 -5,-5 -7,-8 -16,-7 -12,-10 -16,-5 -10,-6 -5,-2 -5,-10 3,-10 12,-11 -5,5 -2,6 v 7 l 5,5 7,3 h 5 l 6,2 5,3 10,8 15,10 15,10 8,7 5,8 8,8 7,2 z"
   id="path188"
   inkscape:connector-curvature="0"
   style="fill:#000000;stroke:none" />
         <path
   d="m 9592,13656 -2,8 -5,8 -8,2 -8,-5 -5,-8 -5,-10 -5,-7 -7,-8 -13,-10 -13,-10 -13,-5 -10,-6 -5,-5 -5,-7 3,-13 15,-8 -5,6 -5,5 v 7 l 5,5 7,3 h 3 l 5,2 5,3 10,10 13,10 15,13 8,10 5,8 5,7 8,3 z"
   id="path190"
   inkscape:connector-curvature="0"
   style="fill:#000000;stroke:none" />
         <path
   d="m 9615,13639 -5,5 -7,5 -8,2 -8,-5 -5,-10 v -8 l -5,-7 -8,-10 -10,-13 -10,-10 -10,-10 -10,-6 -5,-5 v -10 l 2,-10 15,-8 -5,3 -2,5 -3,8 3,5 7,5 h 3 l 5,2 3,5 7,13 13,13 13,15 5,10 5,8 5,8 5,5 z"
   id="path192"
   inkscape:connector-curvature="0"
   style="fill:#000000;stroke:none" />
         <path
   d="m 9653,13608 -5,8 -5,5 -7,2 -8,-7 -5,-8 -3,-8 -2,-7 -8,-10 -10,-13 -10,-10 -13,-10 -8,-6 -5,-7 -2,-10 5,-10 15,-6 -5,3 -5,5 -3,8 3,5 8,5 h 2 l 5,2 5,5 8,11 13,15 10,13 7,10 3,10 5,8 8,5 z"
   id="path194"
   inkscape:connector-curvature="0"
   style="fill:#000000;stroke:none" />
         <path
   d="m 9923,14259 15,-16 10,-25 -2,-25 -21,-23 -12,-8 -13,-10 -13,-10 -12,-13 -11,-10 -10,-13 -12,-15 -11,-15 -12,-21 -16,-33 -20,-43 -20,-46 -23,-45 -18,-41 -18,-33 -10,-20 -13,-23 -5,-21 v -17 l 3,-21 -3,-15 -7,-13 -16,-7 h -12 l -11,5 -5,15 v 25 l 8,36 8,23 10,25 13,28 12,28 13,28 13,26 10,22 10,18 10,21 15,25 18,33 18,33 15,36 16,30 12,28 5,18 5,15 8,18 8,15 12,15 13,13 15,8 h 16 z"
   id="path196"
   inkscape:connector-curvature="0"
   style="fill:#ffffff;stroke:none" />
         <path
   d="m 9829,14274 18,-13 15,-18 5,-20 -13,-23 -12,-13 -16,-12 -12,-15 -16,-16 -15,-18 -13,-17 -15,-21 -13,-23 -15,-25 -13,-28 -15,-30 -15,-36 -15,-36 -11,-40 -10,-38 -5,-41 -7,-64 -11,-35 -15,-15 -18,-3 -20,3 -18,10 -2,20 10,41 20,51 18,45 15,41 8,38 5,20 10,28 15,33 16,34 15,33 18,30 12,28 13,20 18,31 15,25 13,26 7,17 8,16 13,10 13,2 z"
   id="path198"
   inkscape:connector-curvature="0"
   style="fill:#ffffff;stroke:none" />
         <path
   d="m 9923,14259 5,-18 -5,-20 -13,-18 -13,-13 -15,-13 -18,-23 -20,-25 -18,-25 -10,-18 -18,-31 -18,-35 -20,-41 -20,-43 -18,-38 -15,-33 -13,-26 -15,-35 -13,-33 -5,-26 v -20 -15 l -3,-13 -5,-13 -12,-7 h 12 l 16,7 7,13 3,15 -3,21 v 17 l 5,21 13,23 10,20 18,33 18,41 23,45 20,46 20,43 16,33 12,21 11,15 12,15 10,13 11,10 12,13 13,10 13,10 12,8 21,23 2,25 -10,25 z"
   id="path200"
   inkscape:connector-curvature="0"
   style="fill:#000000;stroke:none" />
         <path
   d="m 9592,13674 18,3 15,15 11,35 7,64 5,41 10,38 11,40 15,36 15,36 15,30 13,28 15,25 13,23 15,21 13,17 15,18 16,16 12,15 16,12 12,13 13,23 -5,20 -15,18 -18,13 10,-8 3,-15 -6,-15 -12,-18 -10,-10 -11,-15 -10,-16 -13,-20 -12,-20 -13,-23 -15,-23 -15,-23 -16,-28 -15,-30 -15,-36 -13,-36 -13,-35 -10,-33 -7,-31 -6,-25 -7,-46 -8,-43 -12,-36 z"
   id="path202"
   inkscape:connector-curvature="0"
   style="fill:#000000;stroke:none" />
         <path
   d="m 11021,13636 v 30 l 13,34 20,25 28,8 15,-3 h 16 12 l 13,3 13,5 13,5 10,5 10,7 15,18 26,33 35,46 38,51 38,53 34,51 27,41 16,25 12,33 6,28 2,23 v 18 l 3,23 5,20 15,18 25,2 23,-10 10,-13 3,-10 13,-5 23,-2 20,-8 15,-15 3,-26 -5,-12 -8,-11 -8,-5 -12,-7 -13,-8 -15,-10 -16,-13 -17,-18 -23,-27 -33,-41 -38,-51 -41,-56 -43,-56 -38,-53 -31,-46 -23,-33 -18,-25 -15,-26 -15,-25 -15,-21 -16,-20 -15,-15 -15,-13 -18,-7 h -28 l -20,12 -10,18 -3,15 -3,8 -5,10 -5,10 z"
   id="path204"
   inkscape:connector-curvature="0"
   style="fill:#ffffff;stroke:none" />
         <path
   d="m 11481,14238 -25,-2 -15,-18 -5,-20 -3,-23 v -18 l -2,-23 -6,-28 -12,-33 -16,-25 -27,-41 -34,-51 -38,-53 -38,-51 -35,-46 -26,-33 -15,-18 -10,-7 -10,-5 -13,-5 -13,-5 -13,-3 h -12 -16 l -15,3 -28,-8 -20,-25 -13,-34 v -30 l 5,18 5,18 11,10 20,2 13,-2 12,-3 h 16 12 l 16,3 12,5 15,7 13,13 21,23 30,41 36,51 40,55 41,59 36,51 28,40 15,23 18,31 17,30 11,26 v 20 l -5,20 v 23 l 7,21 z"
   id="path206"
   inkscape:connector-curvature="0"
   style="fill:#000000;stroke:none" />
         <path
   d="m 11321,14706 h -7 l -11,5 -12,5 -13,10 -10,10 -5,13 v 13 l 7,13 21,17 10,5 h 7 l 8,3 10,8 18,10 18,7 15,-2 10,-13 8,-18 5,-15 -3,-13 -10,-12 -15,-13 -15,-10 h -8 -2 l -8,-8 -10,-10 z"
   id="path208"
   inkscape:connector-curvature="0"
   style="fill:#ffffff;stroke:none" />
         <path
   d="m 11377,14823 -15,2 -18,-7 -18,-10 -10,-8 -8,-3 h -7 l -10,-5 -21,-17 -7,-13 v -13 l 5,-13 10,-10 13,-10 12,-5 11,-5 h 7 l -18,8 -15,17 -5,21 20,10 5,-10 8,-8 10,-5 16,2 -11,6 -7,7 -5,13 2,13 13,10 15,2 13,-2 h 5 v 10 l 5,10 3,10 z"
   id="path210"
   inkscape:connector-curvature="0"
   style="fill:#000000;stroke:none" />
         <path
   d="m 11253,14769 -6,-7 -5,-5 h -10 l -7,7 -13,16 -15,15 -16,10 -12,5 -13,3 -10,5 -5,7 10,11 v 7 l 5,8 8,2 7,-5 8,-7 7,-5 6,-8 12,-8 16,-7 12,-5 10,-3 8,-3 8,-5 5,-7 v -10 z"
   id="path212"
   inkscape:connector-curvature="0"
   style="fill:#ffffff;stroke:none" />
         <path
   d="m 11151,14836 -5,-3 -5,-3 -5,3 -5,8 -3,7 v 3 0 2 l -5,8 -5,10 -5,10 -3,8 v 8 l 3,2 2,3 h 8 l 5,5 h 8 l 5,-3 2,-7 3,-8 2,-8 3,-5 5,-7 5,-11 5,-10 -2,-10 z"
   id="path214"
   inkscape:connector-curvature="0"
   style="fill:#ffffff;stroke:none" />
         <path
   d="m 11125,14899 h -7 l -8,3 -5,5 v 5 l 3,10 2,8 v 7 5 8 l 3,5 2,5 5,3 5,-5 3,-8 3,-10 2,-10 5,-8 3,-10 -3,-8 z"
   id="path216"
   inkscape:connector-curvature="0"
   style="fill:#ffffff;stroke:none" />
         <path
   d="m 11225,14874 -8,-5 -8,-3 h -7 l -5,10 -3,18 -8,18 -7,18 -8,7 -10,5 -8,8 v 8 l 16,7 5,5 7,5 8,3 8,-8 2,-7 3,-11 2,-7 8,-10 8,-11 7,-10 8,-7 5,-3 5,-5 v -10 l -5,-10 z"
   id="path218"
   inkscape:connector-curvature="0"
   style="fill:#ffffff;stroke:none" />
         <path
   d="m 11174,14965 -5,-2 -8,-3 -5,3 -5,10 -3,10 -2,8 v 5 5 l -5,7 -5,11 -5,10 -6,7 v 5 l 6,3 2,2 h 8 l 5,6 h 7 l 5,-3 3,-8 3,-10 2,-12 8,-11 5,-10 5,-10 2,-10 -2,-8 z"
   id="path220"
   inkscape:connector-curvature="0"
   style="fill:#ffffff;stroke:none" />
         <path
   d="m 11141,15044 h -8 l -8,2 -2,6 v 7 l 2,8 3,2 v 5 5 8 l 3,8 2,5 h 5 l 5,-3 3,-7 v -8 l 2,-8 5,-7 3,-10 -3,-8 z"
   id="path222"
   inkscape:connector-curvature="0"
   style="fill:#ffffff;stroke:none" />
         <path
   d="m 11273,14899 -5,-8 -10,-2 -8,2 -3,11 -5,15 -5,18 -10,17 -7,8 -11,5 -5,8 v 7 l 13,8 5,8 8,5 h 7 l 8,-5 5,-11 v -7 l 3,-8 7,-10 10,-10 8,-10 5,-8 5,-5 5,-5 v -10 l -5,-8 z"
   id="path224"
   inkscape:connector-curvature="0"
   style="fill:#ffffff;stroke:none" />
         <path
   d="m 11222,14991 -5,-6 -8,-2 -5,2 -5,8 -5,10 v 8 l -2,8 v 5 l -6,5 -5,10 -7,7 -5,8 v 8 l 2,2 3,3 h 7 l 5,5 h 8 5 l 3,-8 2,-10 5,-13 8,-10 5,-7 8,-11 5,-10 -3,-7 z"
   id="path226"
   inkscape:connector-curvature="0"
   style="fill:#ffffff;stroke:none" />
         <path
   d="m 11181,15067 -7,-3 -5,-2 -8,2 -3,8 v 7 6 5 l -2,5 -3,5 v 7 l 3,6 2,5 6,-3 5,-5 5,-5 5,-8 7,-5 6,-7 v -8 z"
   id="path228"
   inkscape:connector-curvature="0"
   style="fill:#ffffff;stroke:none" />
         <path
   d="m 11324,14914 -8,-5 -8,-2 h -7 l -3,10 -2,15 -8,18 -7,15 -8,8 -8,5 -7,7 v 8 l 12,8 5,5 8,5 h 8 l 5,-5 5,-8 v -10 l 2,-8 8,-7 8,-10 7,-11 8,-7 5,-3 3,-5 2,-10 -8,-8 z"
   id="path230"
   inkscape:connector-curvature="0"
   style="fill:#ffffff;stroke:none" />
         <path
   d="m 11275,15001 -5,-5 -5,-3 -7,3 -5,7 -6,10 -2,6 v 5 l -3,2 -5,8 -5,7 -7,11 -5,7 v 5 l 2,3 3,2 h 7 l 5,5 5,3 5,-3 6,-5 2,-10 5,-10 5,-13 8,-7 8,-5 5,-11 v -7 z"
   id="path232"
   inkscape:connector-curvature="0"
   style="fill:#ffffff;stroke:none" />
         <path
   d="m 11232,15069 -7,-2 -5,-3 h -8 l -3,8 v 7 6 2 l -2,5 -5,5 v 8 5 l 5,3 h 5 l 2,-6 6,-5 7,-5 8,-5 5,-5 v -8 z"
   id="path234"
   inkscape:connector-curvature="0"
   style="fill:#ffffff;stroke:none" />
         <path
   d="m 11362,14927 -8,-3 -5,-2 -7,2 v 8 13 l -3,15 -5,13 -5,7 -8,5 -2,6 v 7 l 12,5 5,5 6,3 5,-3 5,-5 v -7 l 2,-5 v -8 l 5,-8 5,-10 6,-7 2,-8 5,-3 3,-5 v -7 l -5,-5 z"
   id="path236"
   inkscape:connector-curvature="0"
   style="fill:#ffffff;stroke:none" />
         <path
   d="m 11334,15003 -5,-2 -3,-3 h -5 l -5,5 -5,8 -3,8 v 2 l -2,5 -5,3 -5,5 -5,7 -5,5 v 3 5 l 5,3 h 5 l 2,5 5,2 5,-2 3,-5 3,-8 5,-8 7,-7 5,-8 5,-5 6,-8 v -5 z"
   id="path238"
   inkscape:connector-curvature="0"
   style="fill:#ffffff;stroke:none" />
         <path
   d="m 11296,15057 -5,-3 -5,-2 h -5 l -3,5 v 5 l -3,2 v 5 l -2,3 -3,5 -2,5 v 5 l 2,3 5,-3 3,-2 5,-3 5,-5 5,-3 8,-5 v -5 z"
   id="path240"
   inkscape:connector-curvature="0"
   style="fill:#ffffff;stroke:none" />
         <path
   d="m 11357,14930 h -8 l -10,-3 -5,-8 5,-10 10,-18 8,-22 2,-23 v -13 l -2,-10 v -10 l 5,-5 15,2 h 10 8 l 8,5 v 8 l -6,10 -2,8 -5,7 -3,13 v 18 15 15 l 3,10 v 5 l -8,8 -10,5 z"
   id="path242"
   inkscape:connector-curvature="0"
   style="fill:#ffffff;stroke:none" />
         <path
   d="m 11316,14914 -8,-2 -10,-5 -2,-5 5,-11 10,-15 10,-23 5,-23 3,-12 -3,-10 v -13 l 5,-5 18,5 h 8 l 7,2 8,5 v 11 l -5,7 -5,8 -5,8 -3,10 -2,17 -3,18 v 16 7 8 l -7,7 -11,3 z"
   id="path244"
   inkscape:connector-curvature="0"
   style="fill:#ffffff;stroke:none" />
         <path
   d="m 11270,14897 -10,-3 -7,-8 v -7 l 5,-8 15,-13 13,-22 10,-21 2,-13 v -10 l 3,-10 7,-5 13,10 h 8 l 10,3 5,7 -2,8 -6,8 -5,7 -7,5 -5,13 -5,15 -6,16 -2,15 -3,10 -2,8 -8,5 h -10 z"
   id="path246"
   inkscape:connector-curvature="0"
   style="fill:#ffffff;stroke:none" />
         <path
   d="m 11225,14874 -8,-3 -8,-5 v -8 l 5,-7 13,-13 13,-23 10,-20 5,-13 v -10 -10 l 8,-5 15,7 8,3 10,2 5,8 -3,8 -7,7 -5,5 -5,8 -6,10 -5,15 -5,18 -5,13 v 10 l -2,8 -8,5 h -13 z"
   id="path248"
   inkscape:connector-curvature="0"
   style="fill:#ffffff;stroke:none" />
         <path
   d="m 11151,14836 v 7 l 5,8 8,2 7,-5 8,-7 7,-5 6,-8 12,-8 13,-7 13,-5 7,-3 10,-3 8,-5 8,-7 v -10 l -10,-11 2,6 3,5 -3,5 -5,5 -8,2 h -5 l -5,3 -7,2 -11,8 -12,8 -13,7 -8,8 -7,8 -10,5 -8,2 z"
   id="path250"
   inkscape:connector-curvature="0"
   style="fill:#000000;stroke:none" />
         <path
   d="m 11123,14902 5,5 h 8 l 5,-3 2,-7 3,-8 2,-8 3,-5 5,-7 5,-11 5,-10 -2,-10 -13,-2 5,2 v 5 8 l -3,5 -2,5 -5,2 -3,6 -2,5 -3,10 -5,10 -2,8 z"
   id="path252"
   inkscape:connector-curvature="0"
   style="fill:#000000;stroke:none" />
         <path
   d="m 11120,14963 5,-5 3,-8 3,-10 2,-10 5,-8 3,-10 -3,-8 -13,-5 6,5 2,5 v 8 l -5,2 -3,5 -2,8 v 5 5 5 5 8 z"
   id="path254"
   inkscape:connector-curvature="0"
   style="fill:#000000;stroke:none" />
         <path
   d="m 11169,14965 5,5 7,5 8,3 8,-8 2,-7 3,-11 2,-7 8,-10 8,-11 5,-10 5,-5 7,-5 5,-5 3,-10 -5,-10 -15,-5 5,2 5,5 2,8 -2,5 -5,5 h -5 l -5,3 -3,5 -8,10 -7,13 -5,10 -5,7 -3,11 -5,7 -5,5 z"
   id="path256"
   inkscape:connector-curvature="0"
   style="fill:#000000;stroke:none" />
         <path
   d="m 11141,15046 5,6 h 7 l 5,-3 3,-8 3,-10 2,-12 8,-11 5,-10 5,-10 2,-10 -2,-8 -10,-5 5,5 v 5 l -3,5 -2,5 -5,8 -5,10 -6,10 -2,8 -3,8 -2,10 -5,7 z"
   id="path258"
   inkscape:connector-curvature="0"
   style="fill:#000000;stroke:none" />
         <path
   d="m 11138,15100 5,-3 3,-7 v -8 l 2,-8 5,-7 3,-10 -3,-8 -12,-5 5,5 5,5 v 8 l -5,5 -5,2 v 5 l -3,3 3,5 v 5 5 5 z"
   id="path260"
   inkscape:connector-curvature="0"
   style="fill:#000000;stroke:none" />
         <path
   d="m 11217,14988 5,8 8,5 h 7 l 8,-5 5,-11 v -7 l 3,-8 7,-10 8,-10 7,-10 6,-5 7,-5 3,-6 2,-10 -5,-10 -15,-5 5,3 5,5 3,5 -3,5 -5,5 -5,2 -3,3 -5,5 -5,10 -7,10 -8,11 -5,10 -3,10 -5,8 -5,5 z"
   id="path262"
   inkscape:connector-curvature="0"
   style="fill:#000000;stroke:none" />
         <path
   d="m 11181,15067 5,5 h 8 5 l 3,-8 2,-10 5,-13 8,-10 5,-7 8,-11 5,-10 -3,-7 -10,-5 5,5 v 5 l -2,5 -5,5 -6,5 -5,10 -5,8 -5,7 -2,11 -3,10 -5,7 z"
   id="path264"
   inkscape:connector-curvature="0"
   style="fill:#000000;stroke:none" />
         <path
   d="m 11158,15118 6,-3 5,-5 5,-5 5,-8 7,-5 6,-7 v -8 l -11,-10 5,7 v 5 l -2,6 -5,2 -5,3 -3,2 -2,5 -3,3 v 5 l -2,5 -3,5 z"
   id="path266"
   inkscape:connector-curvature="0"
   style="fill:#000000;stroke:none" />
         <path
   d="m 11270,15001 5,5 8,5 h 8 l 5,-5 5,-8 v -10 l 2,-8 8,-7 8,-10 5,-11 5,-5 7,-5 6,-5 v -10 l -6,-8 -12,-5 5,3 5,5 2,5 -2,5 -5,5 h -5 l -5,3 -3,5 -5,10 -8,10 -5,10 -5,8 -2,8 -5,10 -5,5 z"
   id="path268"
   inkscape:connector-curvature="0"
   style="fill:#000000;stroke:none" />
         <path
   d="m 11232,15069 5,5 5,3 5,-3 6,-5 2,-10 5,-10 5,-13 8,-7 8,-5 5,-11 v -7 l -11,-5 3,5 v 2 l -3,5 -5,6 -5,7 -5,8 -5,7 -5,8 -3,8 -5,10 -5,5 z"
   id="path270"
   inkscape:connector-curvature="0"
   style="fill:#000000;stroke:none" />
         <path
   d="m 11207,15113 h 5 l 2,-6 6,-5 7,-5 8,-5 5,-5 v -8 l -8,-10 3,5 v 8 l -3,3 -5,2 -5,3 -2,2 -3,3 -3,2 v 5 l -2,5 -3,6 z"
   id="path272"
   inkscape:connector-curvature="0"
   style="fill:#000000;stroke:none" />
         <path
   d="m 11331,15003 5,5 6,3 5,-3 5,-5 v -7 l 2,-5 v -8 l 5,-8 5,-7 3,-8 5,-5 3,-5 2,-5 v -10 l -5,-5 -10,-3 h 5 l 3,5 2,3 v 5 l -2,5 -6,2 -2,3 -3,5 -2,8 -5,7 -3,10 -2,8 -3,8 v 7 l -5,3 z"
   id="path274"
   inkscape:connector-curvature="0"
   style="fill:#000000;stroke:none" />
         <path
   d="m 11296,15057 2,5 5,2 5,-2 3,-5 3,-8 5,-8 7,-7 5,-8 5,-5 6,-8 v -5 l -8,-5 2,3 v 5 l -2,2 -3,6 -5,5 -5,5 -5,5 -5,5 -3,7 -5,8 -2,5 z"
   id="path276"
   inkscape:connector-curvature="0"
   style="fill:#000000;stroke:none" />
         <path
   d="m 11270,15090 5,-3 3,-2 5,-3 5,-5 5,-3 8,-5 v -5 l -5,-7 v 5 5 l -3,2 -2,3 h -5 -3 l -2,2 -3,3 v 5 l -3,3 -2,2 z"
   id="path278"
   inkscape:connector-curvature="0"
   style="fill:#000000;stroke:none" />
         <path
   d="m 11377,14810 h 10 8 l 8,5 v 8 l -6,10 -2,8 -5,7 -3,13 v 15 15 16 l 3,10 v 7 l -8,8 -10,5 -15,-7 7,2 6,-2 7,-3 3,-5 v -8 l -3,-5 -2,-2 v -8 l 2,-13 3,-17 v -18 l 2,-13 5,-10 3,-8 -3,-7 z"
   id="path280"
   inkscape:connector-curvature="0"
   style="fill:#000000;stroke:none" />
         <path
   d="m 11349,14795 h 8 l 7,2 8,5 v 11 l -5,7 -5,8 -5,8 -3,10 -2,15 -3,15 v 15 11 7 l -7,8 -11,5 -15,-8 8,3 h 5 l 7,-3 3,-7 v -8 l -3,-5 -2,-3 2,-7 6,-13 2,-18 5,-17 3,-11 5,-7 2,-10 v -8 z"
   id="path282"
   inkscape:connector-curvature="0"
   style="fill:#000000;stroke:none" />
         <path
   d="m 11321,14787 h 8 l 10,3 5,7 -2,8 -6,8 -5,7 -7,5 -5,13 -5,15 -6,16 -2,12 -3,10 -2,8 -8,5 -10,3 -13,-10 5,2 8,3 5,-3 5,-5 v -8 -5 -5 l 3,-5 5,-13 7,-15 6,-18 5,-10 7,-7 5,-8 v -8 z"
   id="path284"
   inkscape:connector-curvature="0"
   style="fill:#000000;stroke:none" />
         <path
   d="m 11278,14764 8,3 10,2 5,8 -3,8 -7,7 -5,5 -5,8 -6,10 -5,15 -5,16 -5,15 v 10 l -2,8 -8,5 h -13 l -12,-10 7,2 5,3 h 8 l 2,-5 3,-8 v -5 l -3,-5 3,-5 8,-13 5,-18 7,-18 5,-10 8,-7 5,-8 v -8 z"
   id="path286"
   inkscape:connector-curvature="0"
   style="fill:#000000;stroke:none" />
         <path
   d="m 11492,14104 h -11 l -12,2 -13,5 -10,8 -10,10 -5,10 -3,15 3,16 7,30 5,33 v 33 l -2,38 -5,23 -8,36 -13,46 -12,48 -16,48 -12,43 -8,36 -5,23 -5,23 -10,20 -13,15 -13,13 -7,13 -3,15 5,13 10,10 10,2 16,-7 12,-18 18,-33 21,-48 17,-59 16,-56 10,-46 10,-53 18,-71 20,-71 15,-46 13,-30 5,-39 -7,-33 z"
   id="path288"
   inkscape:connector-curvature="0"
   style="fill:#ffffff;stroke:none" />
         <path
   d="m 11570,14152 -20,-3 -23,5 -18,13 -5,28 5,36 3,43 -3,46 -7,48 -5,28 -8,30 -8,36 -12,36 -13,38 -18,38 -18,35 -23,33 -35,54 -13,33 v 20 l 13,15 18,11 17,2 18,-13 18,-35 18,-51 15,-48 15,-41 18,-33 18,-48 20,-69 18,-71 13,-51 7,-36 6,-30 5,-25 7,-21 3,-18 -3,-15 -7,-12 z"
   id="path290"
   inkscape:connector-curvature="0"
   style="fill:#ffffff;stroke:none" />
         <path
   d="m 11492,14104 -16,12 -10,18 -2,20 2,18 3,21 v 30 l -3,33 -2,31 -13,53 -20,84 -23,86 -18,61 -10,38 -13,31 -13,25 -10,15 -10,13 -10,10 -3,13 5,13 -10,-10 -5,-13 3,-15 7,-13 13,-13 13,-15 10,-20 5,-23 5,-23 8,-36 12,-43 16,-48 12,-48 13,-46 8,-36 5,-23 2,-38 v -33 l -5,-33 -7,-30 -3,-16 3,-15 5,-10 10,-10 10,-8 13,-5 12,-2 z"
   id="path292"
   inkscape:connector-curvature="0"
   style="fill:#000000;stroke:none" />
         <path
   d="m 11362,14764 -13,-15 v -20 l 13,-33 35,-54 23,-33 18,-35 18,-38 13,-38 12,-36 8,-36 8,-30 5,-28 7,-48 3,-46 -3,-43 -5,-36 5,-28 18,-13 23,-5 20,3 -12,2 -11,8 -7,15 -3,23 v 31 l -5,43 -7,51 -8,56 -5,30 -10,33 -10,36 -13,35 -15,36 -13,30 -15,28 -13,23 -26,41 -20,38 -13,33 z"
   id="path294"
   inkscape:connector-curvature="0"
   style="fill:#000000;stroke:none" />
         <path
   d="m 10813,16513 -16,5 -12,13 -10,15 -8,15 -5,8 -8,7 -7,3 -8,5 -8,10 -5,13 3,18 7,15 13,10 18,3 18,-3 12,-10 6,10 12,10 13,5 h 18 l 2,13 3,8 5,7 10,5 15,8 18,18 15,18 13,17 5,13 5,8 5,5 8,2 5,5 18,-7 18,-8 7,-5 8,13 8,10 5,8 7,2 5,3 3,7 2,5 3,5 5,6 5,2 5,3 h 3 l -3,5 3,5 2,5 8,2 10,3 10,8 10,5 8,7 8,5 h 7 l 8,-2 5,-8 h 8 l 7,-5 5,-8 v -10 h 8 l 8,-5 2,-7 v -11 h 8 l 5,-5 2,-7 v -10 l -5,-8 -2,-5 -5,-3 -3,-5 v -5 l -2,-5 -5,-2 -8,-6 v -5 l -5,-7 -5,-5 -8,-3 -5,-5 -8,-5 -7,-8 -5,-5 -3,-5 v -5 l -2,-2 h -5 l -3,-6 -3,-7 -5,-5 -7,-5 -5,-3 -13,-8 -13,-10 -12,-12 -16,-13 -12,-13 -13,-7 -5,-8 -10,-8 -11,-10 -10,-7 -10,-6 -8,-5 -5,-2 -5,-3 -2,-7 -3,-8 -2,-5 -3,-3 -2,-2 -5,-18 -13,-18 -18,-12 -20,2 -18,8 -13,2 -15,3 z"
   id="path296"
   inkscape:connector-curvature="0"
   style="fill:#000000;stroke:none" />
         <path
   d="m 10881,16515 5,11 11,10 10,10 h 13 l -8,2 -3,6 -5,2 -7,5 -8,5 -8,3 -7,2 -8,-2 -10,-3 h -13 l -10,5 -8,8 -5,10 v 13 l 11,7 h 25 l 2,13 -2,13 -8,10 -15,3 -15,-3 -10,-8 -8,-5 -5,-10 -13,15 -18,8 -20,-5 -5,-33 h 15 l 15,-5 13,-8 8,-10 v -13 l 5,-17 10,-11 13,-5 15,3 15,7 13,6 h 15 l 8,-6 2,-10 v -12 z"
   id="path298"
   inkscape:connector-curvature="0"
   style="fill:#ffffff;stroke:none" />
         <path
   d="m 10871,16642 -5,6 -5,10 3,10 7,10 18,15 25,23 21,26 10,15 5,10 8,5 h 10 l 10,-5 10,-5 10,-5 3,-8 -8,-10 -15,-13 -15,-12 -13,-13 -10,-13 -10,-10 -10,-10 -8,-10 -5,-8 -5,-8 -10,-2 h -11 z"
   id="path300"
   inkscape:connector-curvature="0"
   style="fill:#ffffff;stroke:none" />
         <path
   d="m 10881,16589 -5,5 -5,8 v 10 l 8,5 13,5 10,8 10,10 10,10 5,8 13,12 13,13 12,15 16,13 12,15 10,10 5,6 6,5 7,-3 5,-5 5,-5 v -5 l -2,-5 -8,-8 -10,-7 -8,-8 -10,-13 -15,-15 -15,-18 -16,-15 -15,-18 -10,-13 -5,-7 -8,-8 -7,-7 -10,-3 z"
   id="path302"
   inkscape:connector-curvature="0"
   style="fill:#ffffff;stroke:none" />
         <path
   d="m 10922,16579 -2,2 2,8 5,10 8,10 7,8 13,13 15,18 18,17 18,18 15,18 13,13 5,7 8,5 5,5 h 7 l 3,-5 2,-5 -2,-5 -3,-5 -5,-5 -15,-13 -20,-25 -23,-26 -15,-17 -13,-16 -15,-15 -16,-13 z"
   id="path304"
   inkscape:connector-curvature="0"
   style="fill:#ffffff;stroke:none" />
         <path
   d="m 10983,16615 5,7 10,10 13,16 13,12 12,15 11,13 10,10 5,5 8,8 2,3 5,2 5,-5 5,-5 v -5 l -2,-5 -8,-5 -10,-8 -13,-10 -12,-13 -16,-12 -12,-11 -13,-10 -10,-7 z"
   id="path306"
   inkscape:connector-curvature="0"
   style="fill:#ffffff;stroke:none" />
         <path
   d="m 11024,16762 7,8 13,7 10,10 8,8 5,8 8,5 7,5 h 5 l 3,-5 v -8 l -5,-8 -5,-5 -8,-7 -10,-10 -10,-11 -5,-10 -8,-5 -10,3 -8,7 z"
   id="path308"
   inkscape:connector-curvature="0"
   style="fill:#ffffff;stroke:none" />
         <path
   d="m 11075,16736 -8,-2 -8,2 -5,8 3,8 10,10 10,13 13,12 7,10 6,3 h 7 l 3,-3 -3,-7 -7,-13 -11,-18 -10,-15 z"
   id="path310"
   inkscape:connector-curvature="0"
   style="fill:#ffffff;stroke:none" />
         <path
   d="m 11085,16726 5,13 10,18 10,18 8,7 5,3 h 5 l 3,-5 v -5 l -6,-11 -10,-17 -10,-16 -5,-10 -3,-2 h -7 l -5,5 z"
   id="path312"
   inkscape:connector-curvature="0"
   style="fill:#ffffff;stroke:none" />
         <path
   d="m 11125,16747 3,7 5,8 5,10 3,3 7,-11 z"
   id="path314"
   inkscape:connector-curvature="0"
   style="fill:#ffffff;stroke:none" />
         <path
   d="m 11097,16818 -2,5 v 8 10 l 5,7 8,8 5,8 5,7 2,3 3,-3 v -10 l -5,-18 -15,-25 z"
   id="path316"
   inkscape:connector-curvature="0"
   style="fill:#ffffff;stroke:none" />
         <path
   d="m 11115,16803 -5,5 v 7 10 l 5,8 8,8 8,7 5,8 2,2 3,-2 v -10 l -5,-18 -18,-25 z"
   id="path318"
   inkscape:connector-curvature="0"
   style="fill:#ffffff;stroke:none" />
         <path
   d="m 11133,16785 -2,2 v 8 10 l 5,10 7,8 5,8 5,5 3,2 2,-2 v -11 l -2,-15 -18,-25 z"
   id="path320"
   inkscape:connector-curvature="0"
   style="fill:#ffffff;stroke:none" />
         <path
   d="m 11148,16775 -2,2 2,5 3,5 2,8 5,8 8,7 3,5 2,3 v -8 -13 l -7,-15 z"
   id="path322"
   inkscape:connector-curvature="0"
   style="fill:#ffffff;stroke:none" />
         <path
   d="m 11014,16767 -6,-8 h -7 l -8,3 -7,8 -8,5 -8,5 -7,2 -5,5 -3,5 v 8 l 3,5 10,5 13,5 12,8 13,8 5,7 3,8 2,7 3,5 7,3 8,-5 8,-10 7,-8 8,-2 5,-3 5,-8 v -7 l -8,-10 -12,-8 -11,-5 -12,-10 z"
   id="path324"
   inkscape:connector-curvature="0"
   style="fill:#ffffff;stroke:none" />
         <path
   d="m 11047,16831 -11,10 -10,7 -5,10 5,11 10,5 13,-3 h 8 l 5,5 8,8 15,8 15,5 13,-3 2,-8 -2,-10 -10,-10 -6,-8 -5,-15 -10,-18 -15,-7 z"
   id="path326"
   inkscape:connector-curvature="0"
   style="fill:#ffffff;stroke:none" />
         <path
   d="m 11057,16836 -8,2 -7,8 -8,10 -8,5 -7,-3 -3,-5 -2,-7 -3,-8 -5,-7 -13,-8 -12,-8 -13,-5 -10,-5 -3,-5 v -8 l 3,-5 5,-5 7,-2 8,-5 8,-5 -11,7 -5,10 -2,8 7,5 13,5 13,5 7,8 6,7 5,11 7,5 13,2 z"
   id="path328"
   inkscape:connector-curvature="0"
   style="fill:#000000;stroke:none" />
         <path
   d="m 11113,16894 -13,3 -15,-5 -15,-8 -8,-8 -5,-5 h -8 l -13,3 -10,-5 -5,-11 5,-10 10,-7 11,-10 -8,10 -3,7 v 8 l 11,2 12,3 8,5 8,8 5,5 7,5 10,8 11,5 z"
   id="path330"
   inkscape:connector-curvature="0"
   style="fill:#000000;stroke:none" />
         <path
   d="m 11047,15659 -23,2 -23,13 -15,23 -3,38 10,36 5,25 v 36 l -17,56 -8,23 -15,30 -16,38 -17,43 -21,46 -15,51 -15,53 -8,54 -13,84 -15,50 -15,33 -23,28 -13,16 -10,17 -13,18 -5,18 -5,18 5,18 13,12 20,13 26,8 23,5 20,-3 18,-5 10,-8 10,-15 3,-18 v -22 l -5,-56 v -59 l 2,-58 8,-54 5,-30 10,-41 13,-46 18,-50 17,-51 21,-49 23,-43 20,-35 20,-31 18,-28 18,-25 13,-23 12,-20 10,-21 6,-15 5,-13 2,-10 v -13 l -5,-15 -8,-12 -12,-11 -18,-12 -20,-8 z"
   id="path332"
   inkscape:connector-curvature="0"
   style="fill:#ffffff;stroke:none" />
         <path
   d="m 11169,15697 -13,3 -13,2 -15,8 -10,7 -10,11 -11,12 -7,13 -5,18 -5,30 -3,26 v 23 l 5,22 -2,44 -16,68 -20,76 -23,61 -13,31 -20,43 -20,51 -23,51 -23,53 -20,46 -18,38 -10,23 -10,25 v 18 l 10,18 15,15 18,13 h 20 l 15,-13 5,-28 v -33 l 3,-33 8,-35 17,-46 16,-33 17,-43 23,-51 26,-54 23,-56 23,-53 17,-51 11,-40 10,-66 5,-54 7,-40 11,-36 17,-31 13,-28 v -20 z"
   id="path334"
   inkscape:connector-curvature="0"
   style="fill:#ffffff;stroke:none" />
         <path
   d="m 10792,16551 -20,-13 -13,-12 -5,-18 5,-18 5,-18 13,-18 10,-17 13,-16 23,-28 15,-33 15,-50 13,-84 8,-54 15,-53 15,-51 21,-46 17,-43 16,-38 15,-30 8,-23 17,-56 v -36 l -5,-25 -10,-36 3,-38 15,-23 23,-13 23,-2 -16,15 -10,23 v 23 l 10,23 16,18 12,20 v 20 l -10,23 -13,18 -15,28 -20,33 -18,35 -20,39 -18,35 -13,33 -7,26 -13,50 -18,67 -18,68 -7,61 -3,46 -5,33 -13,28 -20,23 -23,20 -13,26 -5,27 z"
   id="path336"
   inkscape:connector-curvature="0"
   style="fill:#000000;stroke:none" />
         <path
   d="m 11169,15697 -13,3 -13,2 -15,8 -10,7 -10,11 -11,12 -7,13 -5,18 -5,30 -3,26 v 23 l 5,22 -2,44 -16,68 -20,76 -23,61 -13,31 -20,43 -20,51 -23,51 -23,53 -20,46 -18,38 -10,23 -10,25 v 18 l 10,18 15,15 -3,-30 13,-41 21,-46 25,-53 15,-31 15,-33 18,-38 18,-38 18,-38 13,-36 12,-33 8,-25 15,-53 18,-61 13,-59 5,-48 5,-46 10,-51 18,-45 z"
   id="path338"
   inkscape:connector-curvature="0"
   style="fill:#000000;stroke:none" />
         <path
   d="m 10920,14635 -11,-5 -7,-5 h -8 -10 l -18,2 -23,5 -18,15 -5,28 3,28 5,23 8,18 20,15 23,13 15,3 h 10 l 13,-3 h 13 l 12,5 11,15 7,31 5,63 3,94 v 97 l 5,69 8,78 10,117 10,112 2,66 -10,43 -15,44 -10,38 13,30 15,10 10,8 13,5 7,5 h 10 8 l 5,-2 8,-5 20,2 18,-2 15,-6 h 15 21 l 23,-10 15,-18 2,-25 -5,-28 -12,-23 -16,-18 -12,-15 -16,-13 -15,-22 -15,-44 -13,-73 -7,-132 -3,-178 v -163 l 3,-86 2,-28 3,-23 5,-15 7,-13 5,-13 -2,-15 -5,-15 -8,-18 -7,-18 -11,-15 -15,-10 -20,-5 h -10 l -11,5 -12,5 -10,5 -11,5 -10,5 h -7 -8 l -10,-8 -3,-12 -5,-13 z"
   id="path340"
   inkscape:connector-curvature="0"
   style="fill:#ffffff;stroke:none" />
         <path
   d="m 11125,15689 h -15 l -15,6 -18,2 -20,-2 -8,5 -5,2 h -8 -10 l -7,-5 -13,-5 -10,-8 -15,-10 -13,-30 10,-38 15,-44 10,-43 -2,-66 -10,-112 -10,-117 -8,-78 -5,-69 v -97 l -3,-94 -5,-63 -7,-31 -11,-15 -12,-5 h -13 l -13,3 h -10 l -15,-3 -23,-13 -20,-15 -8,-18 -5,-23 -3,-28 5,18 6,15 10,11 12,5 18,2 h 18 l 13,5 12,8 16,8 12,2 16,-5 12,-15 16,-13 17,-2 11,5 2,12 -8,13 -2,13 2,12 8,8 8,8 v 10 l -5,18 -11,17 -7,33 v 54 l 2,61 3,56 2,84 6,124 5,125 7,86 5,48 3,41 -3,36 -12,22 -13,21 -8,20 10,20 28,16 18,2 h 13 l 10,-5 8,-5 5,-2 h 10 l 10,7 z"
   id="path342"
   inkscape:connector-curvature="0"
   style="fill:#000000;stroke:none" />
         <path
   d="m 11077,15636 -25,15 -13,31 8,33 35,13 21,7 15,-5 13,-15 5,-23 -3,-20 -8,-21 -20,-12 z"
   id="path344"
   inkscape:connector-curvature="0"
   style="fill:#ffffff;stroke:none" />
         <path
   d="m 11082,15728 -35,-13 -8,-33 13,-31 25,-15 -7,15 -3,26 5,28 z"
   id="path346"
   inkscape:connector-curvature="0"
   style="fill:#000000;stroke:none" />
         <path
   d="m 11026,13542 -7,2 -11,3 -15,3 h -15 -18 -18 l -17,2 -16,3 -15,5 -18,5 -18,5 -20,8 -18,7 -15,5 -13,5 -10,5 -15,11 -15,7 -18,8 h -13 l -13,2 -12,11 -8,12 -2,18 5,13 5,7 5,3 7,2 h 16 l 20,-2 18,-8 15,-10 10,-10 13,-13 13,-10 18,-8 10,-2 12,-5 16,-5 15,-3 18,-5 h 15 l 15,-2 13,2 13,3 12,2 16,3 h 12 l 16,-3 h 12 l 10,-5 11,-5 17,-15 13,-15 5,-21 -5,-18 -13,-10 h -15 l -13,5 z"
   id="path348"
   inkscape:connector-curvature="0"
   style="fill:#ffffff;stroke:none" />
         <path
   d="m 10304,13542 8,2 10,3 15,3 h 16 17 18 l 18,2 15,3 15,5 18,5 21,5 17,8 18,7 15,5 13,5 10,5 16,11 15,7 15,8 h 13 l 12,2 13,11 10,12 v 18 l -5,13 -2,7 -8,3 -8,2 h -12 l -21,-2 -17,-8 -16,-10 -10,-10 -10,-13 -15,-10 -15,-8 -11,-2 -12,-5 -16,-5 -17,-3 -18,-5 h -15 l -16,-2 -12,2 -13,3 -13,2 -15,3 h -13 l -15,-3 h -13 l -10,-5 -10,-5 -15,-15 -13,-15 -5,-21 2,-18 13,-10 h 15 l 13,5 z"
   id="path350"
   inkscape:connector-curvature="0"
   style="fill:#ffffff;stroke:none" />
         <path
   d="m 11077,13539 5,18 -5,21 -13,15 -17,15 -11,5 -10,5 h -12 l -16,3 h -12 l -16,-3 -12,-2 -13,-3 -13,-2 -15,2 h -15 l -18,5 -15,3 -16,5 -12,5 -10,2 -18,8 -13,10 -13,13 -10,10 -15,10 -18,8 -20,2 h -16 l -7,-2 -5,-3 -5,-7 -5,-13 7,5 h 8 l 10,3 10,-3 10,-2 13,-3 10,-5 10,-8 8,-7 8,-8 7,-5 10,-8 8,-5 10,-5 13,-5 13,-5 15,-5 15,-5 15,-3 16,-5 15,-2 h 15 15 13 l 13,2 h 15 l 13,3 13,-3 h 10 l 10,-2 8,-3 5,-5 10,-10 10,-10 8,-10 z"
   id="path352"
   inkscape:connector-curvature="0"
   style="fill:#000000;stroke:none" />
         <path
   d="m 10253,13539 -2,18 5,21 13,15 15,15 10,5 10,5 h 13 l 15,3 h 13 l 15,-3 13,-2 13,-3 12,-2 16,2 h 15 l 18,5 17,3 16,5 12,5 11,2 15,8 15,10 10,13 10,10 16,10 17,8 21,2 h 12 l 8,-2 8,-3 2,-7 5,-13 -15,5 h -20 l -21,-5 -17,-13 -11,-7 -7,-8 -8,-5 -10,-8 -8,-5 -10,-5 -12,-5 -13,-5 -15,-5 -16,-5 -15,-3 -15,-5 -15,-2 h -16 -15 -13 l -12,2 h -13 l -13,3 -13,-3 h -12 l -10,-2 -8,-3 -5,-5 -10,-10 -8,-10 -10,-10 z"
   id="path354"
   inkscape:connector-curvature="0"
   style="fill:#000000;stroke:none" />
         <path
   d="m 10698,13417 -7,13 -5,15 -5,16 -8,15 -8,10 -10,3 -13,-3 -12,-3 -13,-2 -13,2 -10,6 -10,5 h -8 l -10,-5 -8,-8 -2,-10 -5,-10 -10,-11 -10,-7 -11,-8 -5,-5 -5,-5 -2,-8 v -7 -8 -10 l -3,-8 -5,-7 -8,-8 -2,-10 -3,-10 3,-8 2,-15 v -23 l -2,-23 -3,-13 -7,-17 2,-8 8,-2 h 13 l 10,2 10,10 5,13 -5,10 -8,10 -2,18 v 18 l 2,18 -7,10 v 13 l 5,10 10,5 2,12 11,8 h 10 l 7,-18 v 10 l 3,11 2,10 8,2 8,-5 2,-15 v -13 -5 l 3,23 5,10 8,3 h 5 l 5,-5 2,-13 v -15 l -2,-15 5,12 7,13 8,8 8,2 5,-8 -3,-15 -2,-15 -3,-8 5,13 5,10 5,5 5,3 3,-5 3,-13 -3,-15 -3,-18 6,10 2,8 5,5 h 8 l 2,-5 v -15 l -2,-13 v -5 l 2,12 5,6 6,2 5,-2 12,-8 8,15 v 33 z"
   id="path356"
   inkscape:connector-curvature="0"
   style="fill:#000000;stroke:none" />
         <path
   d="m 10668,13316 v -8 l 2,-5 5,-2 h 6 l 2,5 3,10 2,10 -2,8 -5,2 -6,-2 -5,-6 z"
   id="path358"
   inkscape:connector-curvature="0"
   style="fill:#ffffff;stroke:none" />
         <path
   d="m 10627,13351 v -7 l 5,-8 8,-5 h 7 l 3,18 3,15 -3,13 -3,5 -5,-3 -5,-5 -5,-10 z"
   id="path360"
   inkscape:connector-curvature="0"
   style="fill:#ffffff;stroke:none" />
         <path
   d="m 10576,13374 3,-10 7,-5 h 11 l 5,3 2,15 v 15 l -2,13 -5,5 h -5 l -8,-3 -5,-10 z"
   id="path362"
   inkscape:connector-curvature="0"
   style="fill:#ffffff;stroke:none" />
         <path
   d="m 10523,13377 v -5 l 5,-8 3,-5 v -3 l 7,-2 8,5 5,8 2,12 -7,18 h -10 l -11,-8 z"
   id="path364"
   inkscape:connector-curvature="0"
   style="fill:#ffffff;stroke:none" />
         <path
   d="m 10647,13331 v -8 l 6,-7 7,-3 8,3 v 5 l 2,13 v 15 l -2,5 h -8 l -5,-5 -2,-8 z"
   id="path366"
   inkscape:connector-curvature="0"
   style="fill:#ffffff;stroke:none" />
         <path
   d="m 10602,13362 v -8 l 10,-8 h 7 l 8,5 3,8 2,15 3,15 -5,8 -8,-2 -8,-8 -7,-13 z"
   id="path368"
   inkscape:connector-curvature="0"
   style="fill:#ffffff;stroke:none" />
         <path
   d="m 10553,13379 3,-10 5,-2 h 8 l 7,7 v 5 13 l -2,15 -8,5 -8,-2 -2,-10 -3,-11 z"
   id="path370"
   inkscape:connector-curvature="0"
   style="fill:#ffffff;stroke:none" />
         <path
   d="m 10515,13339 h 8 l 5,2 3,5 v 10 3 l -3,5 -5,8 v 5 l -10,-5 -5,-10 v -13 z"
   id="path372"
   inkscape:connector-curvature="0"
   style="fill:#ffffff;stroke:none" />
         <path
   d="m 10686,13334 2,-8 -2,-10 -3,-10 -2,-5 v -3 l 2,-3 5,-7 5,-5 5,-5 3,-11 v -10 -10 -13 l -3,-12 -7,-10 -10,-3 -11,-3 v -7 l 5,-10 13,-13 20,-8 h 21 l 18,8 7,13 -2,15 2,18 8,20 13,15 12,16 5,12 -5,16 -10,15 -8,7 -12,13 -10,15 -13,16 -13,17 -10,13 -8,13 -5,7 8,-43 v -33 l -8,-15 z"
   id="path374"
   inkscape:connector-curvature="0"
   style="fill:#000000;stroke:none" />
         <path
   d="m 10528,13405 5,5 5,2 h 5 l 5,-5 5,8 11,8 h 10 l 7,-6 5,6 h 11 l 7,-8 5,-10 8,5 h 10 l 8,-8 5,-13 2,11 v 10 10 l -2,5 -3,-5 -2,-5 h -3 -5 l -5,2 -5,3 -5,8 -3,7 v -5 l -5,-5 h -5 -5 l -5,3 -3,2 -2,8 -3,12 -2,-10 -5,-7 -8,-8 h -8 -2 l -3,3 v 5 5 l -2,-10 -5,-8 -5,-5 -5,8 -3,-6 -2,-5 -3,-5 z"
   id="path376"
   inkscape:connector-curvature="0"
   style="fill:#ffffff;stroke:none" />
         <path
   d="m 10467,13288 8,7 5,3 2,5 v 0 l 3,8 5,7 5,5 5,5 5,3 5,-3 3,-2 h 2 l 3,2 5,3 8,3 5,-3 5,5 h 10 l 10,-2 5,-6 8,3 10,-8 8,-7 5,-10 5,2 h 5 l 7,-7 3,-13 8,5 10,-3 5,-7 2,-8 5,-5 3,-5 v -5 -3 h 18 l 18,-7 15,-13 7,-13 3,-12 8,-11 10,-7 h 10 l 5,2 8,5 5,5 5,3 5,-5 5,-10 8,-13 7,-8 10,-2 16,-8 12,-15 11,-30 2,-23 -2,-26 -3,-28 -5,-33 -10,-33 -13,-33 -18,-33 -25,-30 -28,-26 -31,-15 -33,-13 -35,-5 -36,3 -38,7 -38,13 -38,20 -13,8 -15,13 -15,12 -16,18 -15,21 -13,20 -7,23 -3,25 -2,41 -5,25 -6,15 -7,8 -8,8 -5,10 v 13 l 10,15 16,15 7,18 5,15 v 10 5 8 10 10 13 l 3,15 5,10 7,8 3,3 18,5 h 15 l 13,2 z"
   id="path378"
   inkscape:connector-curvature="0"
   style="fill:#ffffff;stroke:none" />
         <path
   d="m 10787,13173 -7,8 -8,13 -5,10 -5,5 -5,-3 -5,-5 -8,-5 -5,-2 h -10 l -10,7 -8,11 -3,12 -7,13 -15,13 -18,7 h -18 v 3 5 l -3,5 -5,5 -2,8 -5,7 -10,3 -8,-5 -3,13 -7,7 h -5 l -5,-2 -5,10 -8,7 -10,8 -8,-3 -5,6 -10,2 h -10 l -5,-5 -5,3 -8,-3 -5,-3 -3,-2 h -2 l -3,2 -5,3 -5,-3 -5,-5 -5,-5 -5,-7 -3,-8 v 0 l -2,-5 -5,-3 -8,-7 -10,-3 -13,-2 h -15 l -18,-5 -10,-8 -5,-13 -3,-12 v -16 13 l 5,13 5,10 13,5 13,-5 10,-10 5,-13 5,-8 5,3 10,3 h 8 8 l -5,15 -3,15 v 10 l 8,5 h 10 l 15,-5 13,-13 2,-25 13,15 10,10 13,6 23,-6 20,-7 15,-8 5,-5 v -7 h 6 l 2,-3 v -8 l -10,-10 -13,-10 -15,-8 h -10 l -5,13 -3,-2 -5,-3 h -5 -3 l -5,-13 -7,-12 -8,-11 -7,-7 -6,-5 -5,-8 -2,-8 v -7 l 10,10 10,10 10,10 13,5 h 15 16 12 l 8,-2 -3,10 5,15 11,10 h 17 v 11 l 3,10 8,7 7,3 h 8 l 10,-8 10,-10 5,-10 5,-8 8,-7 10,-3 13,-2 13,-5 7,-8 8,-10 5,-13 7,-10 13,-8 8,-5 2,-7 -2,-5 -5,-6 -8,3 -10,5 -10,8 -13,5 h -10 l -13,-3 -13,-5 -10,-2 -10,-3 h -7 l -8,-2 -5,-6 -3,-12 -5,-18 -5,-23 v -25 l 10,-31 28,-35 3,28 10,33 18,25 33,8 28,-18 12,-33 -2,-38 -8,-26 18,28 13,46 7,51 v 40 l -7,26 -10,18 -11,12 z"
   id="path380"
   inkscape:connector-curvature="0"
   style="fill:#000000;stroke:none" />
         <path
   d="m 10434,13046 -5,8 -8,10 -2,10 -3,8 h 13 l 18,2 15,8 10,5 3,-5 2,-2 8,-3 h 5 l -18,-8 -18,-10 -15,-12 z"
   id="path382"
   inkscape:connector-curvature="0"
   style="fill:#000000;stroke:none" />
         <path
   d="m 10520,13054 5,10 16,-13 15,-12 13,-10 7,-5 8,-6 10,-7 h 15 l 16,5 2,-10 -2,-16 -3,-12 v -5 l -15,2 -15,8 -13,7 -8,11 -10,12 -18,18 -15,15 z"
   id="path384"
   inkscape:connector-curvature="0"
   style="fill:#000000;stroke:none" />
         <path
   d="m 10492,13184 3,-5 2,-3 6,-3 2,3 v 8 l 3,12 v 13 l 2,10 v 5 l -2,5 h -5 l -6,-2 -5,-13 v -10 l 3,-13 z"
   id="path386"
   inkscape:connector-curvature="0"
   style="fill:#000000;stroke:none" />
         <path
   d="m 10518,13176 v 13 l 2,12 5,13 3,10 8,3 10,-3 5,-7 -3,-8 -7,-8 -5,-7 -5,-8 -3,-7 -3,-6 -5,-2 h -2 z"
   id="path388"
   inkscape:connector-curvature="0"
   style="fill:#000000;stroke:none" />
         <path
   d="m 10414,13120 -13,3 -10,5 -8,7 3,13 7,15 5,13 5,10 11,8 h 12 18 l 15,-5 13,-8 8,-10 2,-13 3,-10 -3,-10 -5,-8 -5,-7 -8,-3 -10,-2 h -10 -10 -10 z"
   id="path390"
   inkscape:connector-curvature="0"
   style="fill:#000000;stroke:none" />
         <path
   d="m 10533,13107 -5,3 -3,8 v 7 l 6,10 7,10 10,8 10,8 16,2 h 20 l 23,-7 20,-13 10,-20 v -21 l -2,-18 -8,-12 -7,-8 -11,-2 h -12 l -13,5 -10,7 -13,8 -15,10 -13,8 z"
   id="path392"
   inkscape:connector-curvature="0"
   style="fill:#000000;stroke:none" />
         <path
   d="m 10472,13181 -13,8 -15,5 h -18 -12 l -11,-8 -5,-10 -5,-13 -7,-15 -3,-13 8,-7 10,-5 13,-3 -11,5 -5,5 -2,10 2,11 5,10 5,10 11,10 12,5 h 13 l 15,-2 8,-3 z"
   id="path394"
   inkscape:connector-curvature="0"
   style="fill:#000000;stroke:none" />
         <path
   d="m 10647,13123 -10,20 -20,13 -23,7 h -20 l -16,-2 -10,-8 -10,-8 -7,-10 -6,-10 v -7 l 3,-8 5,-3 3,11 5,12 5,10 10,8 8,5 10,3 h 10 13 l 12,-5 13,-6 13,-10 z"
   id="path396"
   inkscape:connector-curvature="0"
   style="fill:#000000;stroke:none" />
         <path
   d="m 10642,13275 -2,8 -5,7 -10,3 -8,-5 v -10 -13 l 2,-10 6,-3 5,3 7,7 3,11 z"
   id="path398"
   inkscape:connector-curvature="0"
   style="fill:#ffffff;stroke:none" />
         <path
   d="m 10597,13306 -5,10 -8,7 -10,8 -8,-3 -2,-17 v -18 l 5,-13 5,-5 h 5 l 7,10 6,10 z"
   id="path400"
   inkscape:connector-curvature="0"
   style="fill:#ffffff;stroke:none" />
         <path
   d="m 10536,13331 -5,3 -8,-3 -5,-3 -3,-2 -5,-13 -2,-10 -3,-10 5,-5 8,2 7,11 8,15 z"
   id="path402"
   inkscape:connector-curvature="0"
   style="fill:#ffffff;stroke:none" />
         <path
   d="m 10515,13326 h -2 l -3,2 -5,3 -5,-3 -5,-5 -5,-5 -5,-7 -3,-8 v -2 l 3,-6 2,-2 3,-3 7,3 6,10 7,10 z"
   id="path404"
   inkscape:connector-curvature="0"
   style="fill:#ffffff;stroke:none" />
         <path
   d="m 10597,13306 -3,-11 v -12 -13 l 5,-5 8,2 5,8 2,8 3,5 -3,13 -7,7 h -5 z"
   id="path406"
   inkscape:connector-curvature="0"
   style="fill:#ffffff;stroke:none" />
         <path
   d="m 10536,13331 -3,-13 3,-17 2,-16 5,-7 8,7 7,16 6,17 2,10 -5,6 -10,2 h -10 z"
   id="path408"
   inkscape:connector-curvature="0"
   style="fill:#ffffff;stroke:none" />
         <path
   d="m 10421,14607 13,2 h 8 l 7,5 8,6 15,12 15,18 5,20 -12,26 -11,12 -7,11 -8,7 -7,8 -8,5 -10,5 -10,3 h -16 l -25,-3 -13,-8 -10,-5 -8,-10 -10,-7 -12,-3 -18,8 -23,20 -18,20 -23,31 -25,35 -31,41 -28,41 -28,38 -25,33 -18,23 -20,23 -31,35 -35,43 -38,46 -39,48 -33,41 -25,33 -15,20 -16,41 -10,43 -15,38 -28,18 -33,3 -20,-5 -13,-8 -8,-15 -17,-10 -13,-13 -10,-10 -13,-10 -18,-11 -13,-20 -2,-23 10,-25 10,-10 10,-11 13,-5 13,-7 13,-3 10,-5 h 10 l 10,-2 h 10 l 10,-3 11,-2 15,-8 15,-10 20,-16 23,-22 28,-31 36,-46 46,-61 50,-71 51,-76 49,-71 43,-61 33,-48 15,-26 13,-23 10,-20 8,-15 v -16 l 2,-12 10,-10 13,-13 18,-10 15,-10 18,-8 h 18 l 17,8 16,15 12,23 13,20 13,10 13,-2 10,-8 10,-8 z"
   id="path410"
   inkscape:connector-curvature="0"
   style="fill:#ffffff;stroke:none" />
         <path
   d="m 9656,15362 13,10 10,10 13,13 17,10 8,15 13,8 20,5 33,-3 28,-18 15,-38 10,-43 16,-41 15,-20 25,-33 33,-41 39,-48 38,-46 35,-43 31,-35 20,-23 18,-23 25,-33 28,-38 28,-41 31,-41 25,-35 23,-31 18,-20 23,-20 18,-8 12,3 10,7 8,10 10,5 13,8 25,3 h 16 l 10,-3 10,-5 8,-5 7,-8 8,-7 7,-11 11,-12 -13,12 -13,11 -15,2 -15,-2 -16,-11 -12,-5 -13,-5 -15,-2 -15,-3 -13,-7 -10,-11 -3,-20 -5,-20 -13,-10 -12,-3 -8,10 -3,15 -5,13 -7,8 -13,2 h -10 l -8,10 -2,16 -3,23 -5,12 -8,18 -12,23 -18,23 -18,25 -18,23 -20,26 -15,22 -21,28 -30,41 -33,46 -38,51 -41,50 -36,49 -30,38 -23,28 -18,20 -15,18 -13,15 -12,18 -11,15 -5,13 -5,15 v 13 25 l -7,21 -18,10 -31,-3 -18,-7 -7,-8 -5,-10 -5,-8 -3,-7 -7,-3 -13,-2 z"
   id="path412"
   inkscape:connector-curvature="0"
   style="fill:#000000;stroke:none" />
         <path
   d="m 9669,15341 10,-5 13,-5 h 12 l 15,3 13,5 13,10 10,13 8,20 7,33 5,28 16,30 40,44 18,15 26,23 33,25 35,31 36,33 38,38 36,40 33,44 25,40 23,31 18,23 17,17 16,13 15,10 15,8 16,8 17,7 21,10 17,11 16,12 7,13 5,18 -5,18 -15,20 -20,20 -18,13 -18,8 -15,2 -15,-2 -16,-11 -10,-15 -10,-20 -8,-26 -12,-25 -13,-25 -13,-26 -15,-25 -15,-26 -16,-23 -12,-22 -18,-26 -28,-30 -33,-36 -38,-38 -38,-38 -41,-33 -38,-28 -36,-23 -30,-18 -31,-18 -25,-15 -23,-15 -20,-13 -18,-13 -13,-10 -10,-10 -10,-23 v -28 l 15,-33 z"
   id="path414"
   inkscape:connector-curvature="0"
   style="fill:#ffffff;stroke:none" />
         <path
   d="m 9580,15430 12,-5 13,-2 h 13 l 15,2 15,3 13,7 13,10 12,13 18,26 15,20 8,20 8,23 7,18 13,23 20,25 23,28 28,31 26,28 25,22 23,21 25,23 36,30 41,33 45,38 44,36 38,33 33,25 20,16 21,17 7,18 -2,18 -5,23 -13,20 -15,8 -21,-5 -18,-23 -7,-15 -8,-16 -7,-12 -8,-13 -10,-15 -13,-16 -15,-15 -21,-18 -28,-22 -38,-31 -43,-33 -46,-38 -45,-38 -44,-41 -38,-35 -28,-34 -20,-27 -18,-26 -15,-23 -13,-23 -13,-17 -12,-16 -13,-12 -13,-13 -15,-10 -15,-10 -13,-11 -10,-10 -8,-7 v -11 l 5,-7 z"
   id="path416"
   inkscape:connector-curvature="0"
   style="fill:#ffffff;stroke:none" />
         <path
   d="m 10294,16025 15,-20 5,-18 -5,-18 -7,-13 -16,-12 -17,-11 -21,-10 -17,-7 -16,-8 -15,-8 -15,-10 -16,-13 -17,-17 -18,-23 -23,-31 -25,-40 -33,-44 -36,-40 -38,-38 -36,-33 -35,-31 -33,-25 -26,-23 -18,-15 -40,-44 -16,-30 -5,-28 -7,-33 -8,-20 -10,-13 -13,-10 -13,-5 -15,-3 h -12 l -13,5 -10,5 23,5 20,18 10,20 v 26 l -8,23 v 23 l 8,17 20,16 18,10 28,18 31,20 35,23 33,25 31,26 28,23 18,20 15,18 20,23 20,25 26,25 23,28 20,26 20,25 16,26 12,20 11,20 10,15 10,13 10,10 10,10 16,6 15,5 15,2 15,5 13,8 10,8 10,10 5,12 6,16 z"
   id="path418"
   inkscape:connector-curvature="0"
   style="fill:#000000;stroke:none" />
         <path
   d="m 9580,15430 12,-5 13,-2 h 13 l 15,2 15,3 13,7 13,10 12,13 18,26 15,20 8,20 8,23 7,18 13,23 20,25 23,28 28,31 26,28 25,22 23,21 25,23 36,30 41,33 45,38 44,36 38,33 33,25 20,16 21,17 7,18 -2,18 -5,23 -3,-13 -10,-13 -10,-15 -18,-18 -18,-15 -20,-18 -23,-17 -26,-18 -25,-21 -31,-22 -33,-26 -33,-28 -30,-25 -31,-26 -25,-22 -18,-21 -18,-18 -20,-22 -20,-23 -21,-26 -20,-23 -18,-23 -15,-22 -10,-18 -10,-21 -16,-20 -15,-20 -18,-21 -18,-17 -17,-13 -18,-13 z"
   id="path420"
   inkscape:connector-curvature="0"
   style="fill:#000000;stroke:none" />
         <path
   d="m 10276,16050 16,5 12,11 10,15 11,13 7,10 8,5 7,5 8,2 8,8 5,15 2,16 -7,15 -13,12 -18,3 h -18 l -15,-8 -5,11 -8,10 -15,7 h -15 l -3,13 -2,8 -5,7 -8,5 -15,11 -18,17 -15,21 -10,20 -5,13 -3,7 -5,5 -8,3 -5,5 -15,-5 -20,-8 -8,-2 -5,12 -8,11 -5,7 -7,5 -6,3 -2,5 -3,8 -2,5 -3,5 -5,2 -5,3 h -2 l 2,7 -2,6 -3,5 -8,2 -7,5 -10,5 -11,8 -7,8 -8,5 h -7 l -8,-3 -5,-5 h -8 l -7,-2 -5,-8 v -10 h -8 l -8,-5 -5,-8 v -10 h -7 l -6,-3 -5,-7 v -10 l 3,-11 5,-5 3,-2 2,-5 v -5 l 3,-6 5,-2 5,-5 v -5 l 5,-8 8,-5 5,-5 5,-5 7,-8 8,-5 3,-7 2,-6 v -5 l 3,-2 h 5 v -8 l 5,-5 5,-7 7,-6 6,-2 10,-10 12,-10 13,-13 13,-13 13,-13 10,-10 5,-7 7,-10 11,-11 10,-7 7,-8 8,-5 8,-3 5,-2 v -8 l 2,-7 3,-5 2,-3 3,-2 2,-18 13,-21 18,-12 h 18 l 18,5 15,2 h 15 z"
   id="path422"
   inkscape:connector-curvature="0"
   style="fill:#000000;stroke:none" />
         <path
   d="m 10205,16060 -2,8 -8,13 -10,10 -13,3 8,2 5,3 2,2 8,3 8,5 7,2 8,3 7,-3 11,-2 12,-3 10,3 8,7 5,11 3,12 -8,8 -25,2 -3,16 5,12 8,8 15,3 15,-6 11,-7 5,-8 5,-10 12,13 21,10 18,-8 2,-35 -13,2 -17,-2 -13,-8 -10,-8 v -15 l -5,-15 -11,-13 -12,-2 -16,5 -15,7 -15,6 -13,2 -7,-2 -5,-11 v -12 z"
   id="path424"
   inkscape:connector-curvature="0"
   style="fill:#ffffff;stroke:none" />
         <path
   d="m 10228,16185 5,5 5,8 v 10 l -7,10 -18,18 -23,25 -18,26 -10,17 -3,11 -10,5 -10,2 -10,-5 -10,-5 -11,-5 -2,-5 5,-10 15,-13 16,-15 12,-15 10,-13 8,-10 8,-13 7,-10 5,-8 5,-7 11,-3 10,-3 z"
   id="path426"
   inkscape:connector-curvature="0"
   style="fill:#ffffff;stroke:none" />
         <path
   d="m 10213,16132 7,5 5,7 v 11 l -7,5 -13,7 -10,8 -8,10 -10,13 -5,7 -10,13 -13,13 -13,15 -12,15 -13,15 -8,11 -5,7 -5,5 h -7 l -6,-5 -5,-5 v -5 l 3,-8 8,-7 7,-8 8,-7 10,-13 13,-18 15,-18 13,-17 12,-18 11,-13 5,-8 5,-10 7,-7 11,-3 z"
   id="path428"
   inkscape:connector-curvature="0"
   style="fill:#ffffff;stroke:none" />
         <path
   d="m 10169,16127 6,2 v 8 l -6,10 -7,10 -8,8 -12,15 -13,15 -18,21 -15,20 -13,15 -10,15 -5,8 -8,8 -5,5 h -8 l -5,-3 -2,-5 2,-5 3,-8 5,-5 13,-12 20,-28 20,-26 13,-20 10,-15 13,-18 15,-13 z"
   id="path430"
   inkscape:connector-curvature="0"
   style="fill:#ffffff;stroke:none" />
         <path
   d="m 10114,16165 -16,20 -20,28 -23,28 -15,18 -5,7 -3,5 -5,3 -5,-3 -5,-7 v -5 -3 l 8,-7 10,-8 12,-10 13,-13 13,-15 13,-13 12,-10 8,-10 z"
   id="path432"
   inkscape:connector-curvature="0"
   style="fill:#ffffff;stroke:none" />
         <path
   d="m 10083,16315 -8,7 -10,10 -10,13 -5,8 -5,5 -8,7 -7,6 -5,2 -3,-5 v -8 l 3,-7 5,-8 7,-8 10,-12 8,-10 5,-11 8,-5 10,3 8,5 z"
   id="path434"
   inkscape:connector-curvature="0"
   style="fill:#ffffff;stroke:none" />
         <path
   d="m 10032,16294 8,-2 h 7 l 6,7 -3,8 -8,13 -10,12 -10,16 -8,10 -5,2 h -7 l -5,-2 2,-8 8,-13 10,-17 10,-16 z"
   id="path436"
   inkscape:connector-curvature="0"
   style="fill:#ffffff;stroke:none" />
         <path
   d="m 9984,16307 -5,8 -5,10 -3,10 -2,2 -8,-10 z"
   id="path438"
   inkscape:connector-curvature="0"
   style="fill:#ffffff;stroke:none" />
         <path
   d="m 10014,16378 5,3 v 7 10 l -2,8 -8,8 -5,10 -5,8 -2,2 -3,-2 v -11 l 3,-17 15,-26 z"
   id="path440"
   inkscape:connector-curvature="0"
   style="fill:#ffffff;stroke:none" />
         <path
   d="m 9997,16365 5,3 v 8 10 l -3,7 -7,8 -6,8 -5,7 -2,3 -3,-3 v -10 l 3,-18 15,-25 z"
   id="path442"
   inkscape:connector-curvature="0"
   style="fill:#ffffff;stroke:none" />
         <path
   d="m 9976,16348 3,2 2,8 v 10 l -2,8 -8,7 -5,10 -5,8 -3,3 -2,-3 v -10 l 2,-18 16,-25 z"
   id="path444"
   inkscape:connector-curvature="0"
   style="fill:#ffffff;stroke:none" />
         <path
   d="m 9961,16337 3,3 v 5 l -3,5 -5,8 -5,7 -5,8 -3,5 -2,3 v -5 -16 l 5,-15 z"
   id="path446"
   inkscape:connector-curvature="0"
   style="fill:#ffffff;stroke:none" />
         <path
   d="m 10093,16320 5,-8 h 10 l 8,3 8,5 7,5 8,5 8,2 7,3 3,5 v 8 l -3,7 -10,5 -13,5 -12,8 -11,10 -5,8 v 7 l -2,8 -3,5 -7,3 -11,-5 -7,-8 -8,-8 -7,-2 h -5 l -6,-8 -2,-10 8,-10 12,-8 10,-7 11,-11 z"
   id="path448"
   inkscape:connector-curvature="0"
   style="fill:#ffffff;stroke:none" />
         <path
   d="m 10068,16388 10,8 10,8 8,7 -5,10 -11,5 h -10 -10 l -5,6 -8,10 -15,7 -15,5 h -10 l -5,-7 5,-10 5,-11 5,-10 5,-12 10,-18 15,-10 z"
   id="path450"
   inkscape:connector-curvature="0"
   style="fill:#ffffff;stroke:none" />
         <path
   d="m 10022,16282 -5,12 -10,21 -8,17 -7,11 h -6 -2 l -3,-3 -2,-5 5,-10 8,-18 10,-18 2,-10 5,-3 h 5 l 5,3 z"
   id="path452"
   inkscape:connector-curvature="0"
   style="fill:#ffffff;stroke:none" />
         <path
   d="m 10058,16391 7,2 8,8 7,8 11,5 7,-3 3,-5 2,-8 v -7 l 5,-8 11,-10 12,-8 13,-5 10,-5 3,-7 v -8 l -3,-5 -7,-3 -8,-2 -8,-5 -7,-5 10,7 8,10 2,8 -8,5 -12,5 -10,8 -11,8 -5,7 -5,10 -5,5 -13,3 z"
   id="path454"
   inkscape:connector-curvature="0"
   style="fill:#000000;stroke:none" />
         <path
   d="m 10007,16454 h 10 l 15,-5 15,-7 8,-10 5,-6 h 10 10 l 11,-5 5,-10 -8,-7 -10,-8 -10,-8 7,8 5,8 -2,7 -8,3 -12,5 -8,5 -8,5 -5,5 -5,8 -10,7 -10,5 z"
   id="path456"
   inkscape:connector-curvature="0"
   style="fill:#000000;stroke:none" />
         <path
   d="m 9633,15334 15,-3 16,5 12,10 13,13 5,15 v 16 l -8,15 -17,13 -13,15 -18,2 -18,-7 -12,-18 -11,-20 v -21 l 11,-20 z"
   id="path458"
   inkscape:connector-curvature="0"
   style="fill:#ffffff;stroke:none" />
         <path
   d="m 9669,15418 17,-13 8,-15 v -16 l -5,-15 -13,-13 -12,-10 -16,-5 -15,3 13,10 12,23 11,25 z"
   id="path460"
   inkscape:connector-curvature="0"
   style="fill:#000000;stroke:none" />
        </g>
       </g>
      </g>
     </g>
    </g>
   </g>
  </g>
 </g>
</svg>