<?xml version="1.0" encoding="UTF-8" standalone="no"?>
<svg
   xmlns:ooo="http://xml.openoffice.org/svg/export"
   xmlns:dc="http://purl.org/dc/elements/1.1/"
   xmlns:cc="http://creativecommons.org/ns#"
   xmlns:rdf="http://www.w3.org/1999/02/22-rdf-syntax-ns#"
   xmlns:svg="http://www.w3.org/2000/svg"
   xmlns="http://www.w3.org/2000/svg"
   xmlns:sodipodi="http://sodipodi.sourceforge.net/DTD/sodipodi-0.dtd"
   xmlns:inkscape="http://www.inkscape.org/namespaces/inkscape"
   version="1.2"
   width="31.52mm"
   height="38.709999mm"
   viewBox="0 0 3152 3870.9999"
   preserveAspectRatio="xMidYMid"
   xml:space="preserve"
   id="svg219"
   sodipodi:docname="skier7.svg"
   style="fill-rule:evenodd;stroke-width:28.22200012;stroke-linejoin:round"
   inkscape:version="0.92.5 (2060ec1f9f, 2020-04-08)"><metadata
   id="metadata223"><rdf:RDF><cc:Work
       rdf:about=""><dc:format>image/svg+xml</dc:format><dc:type
         rdf:resource="http://purl.org/dc/dcmitype/StillImage" /></cc:Work></rdf:RDF></metadata><sodipodi:namedview
   pagecolor="#ffffff"
   bordercolor="#666666"
   borderopacity="1"
   objecttolerance="10"
   gridtolerance="10"
   guidetolerance="10"
   inkscape:pageopacity="0"
   inkscape:pageshadow="2"
   inkscape:window-width="664"
   inkscape:window-height="487"
   id="namedview221"
   showgrid="false"
   inkscape:zoom="0.2102413"
   inkscape:cx="59.565355"
   inkscape:cy="73.133857"
   inkscape:window-x="0"
   inkscape:window-y="0"
   inkscape:window-maximized="0"
   inkscape:current-layer="svg219" />
 <defs
   class="ClipPathGroup"
   id="defs8">
  <clipPath
   id="presentation_clip_path"
   clipPathUnits="userSpaceOnUse">
   <rect
   x="0"
   y="0"
   width="21000"
   height="29700"
   id="rect2" />
  </clipPath>
  <clipPath
   id="presentation_clip_path_shrink"
   clipPathUnits="userSpaceOnUse">
   <rect
   x="21"
   y="29"
   width="20958"
   height="29641"
   id="rect5" />
  </clipPath>
 </defs>
 <defs
   class="TextShapeIndex"
   id="defs12">
  <g
   ooo:slide="id1"
   ooo:id-list="id3"
   id="g10" />
 </defs>
 <defs
   class="EmbeddedBulletChars"
   id="defs44">
  <g
   id="bullet-char-template-57356"
   transform="matrix(4.8828125e-4,0,0,-4.8828125e-4,0,0)">
   <path
   d="M 580,1141 1163,571 580,0 -4,571 Z"
   id="path14"
   inkscape:connector-curvature="0" />
  </g>
  <g
   id="bullet-char-template-57354"
   transform="matrix(4.8828125e-4,0,0,-4.8828125e-4,0,0)">
   <path
   d="M 8,1128 H 1137 V 0 H 8 Z"
   id="path17"
   inkscape:connector-curvature="0" />
  </g>
  <g
   id="bullet-char-template-10146"
   transform="matrix(4.8828125e-4,0,0,-4.8828125e-4,0,0)">
   <path
   d="M 174,0 602,739 174,1481 1456,739 Z M 1358,739 309,1346 659,739 Z"
   id="path20"
   inkscape:connector-curvature="0" />
  </g>
  <g
   id="bullet-char-template-10132"
   transform="matrix(4.8828125e-4,0,0,-4.8828125e-4,0,0)">
   <path
   d="M 2015,739 1276,0 H 717 l 543,543 H 174 v 393 h 1086 l -543,545 h 557 z"
   id="path23"
   inkscape:connector-curvature="0" />
  </g>
  <g
   id="bullet-char-template-10007"
   transform="matrix(4.8828125e-4,0,0,-4.8828125e-4,0,0)">
   <path
   d="m 0,-2 c -7,16 -16,29 -25,39 l 381,530 c -94,256 -141,385 -141,387 0,25 13,38 40,38 9,0 21,-2 34,-5 21,4 42,12 65,25 l 27,-13 111,-251 280,301 64,-25 24,25 c 21,-10 41,-24 62,-43 C 886,937 835,863 770,784 769,783 710,716 594,584 L 774,223 c 0,-27 -21,-55 -63,-84 l 16,-20 C 717,90 699,76 672,76 641,76 570,178 457,381 L 164,-76 c -22,-34 -53,-51 -92,-51 -42,0 -63,17 -64,51 -7,9 -10,24 -10,44 0,9 1,19 2,30 z"
   id="path26"
   inkscape:connector-curvature="0" />
  </g>
  <g
   id="bullet-char-template-10004"
   transform="matrix(4.8828125e-4,0,0,-4.8828125e-4,0,0)">
   <path
   d="M 285,-33 C 182,-33 111,30 74,156 52,228 41,333 41,471 c 0,78 14,145 41,201 34,71 87,106 158,106 53,0 88,-31 106,-94 l 23,-176 c 8,-64 28,-97 59,-98 l 735,706 c 11,11 33,17 66,17 42,0 63,-15 63,-46 V 965 c 0,-36 -10,-64 -30,-84 L 442,47 C 390,-6 338,-33 285,-33 Z"
   id="path29"
   inkscape:connector-curvature="0" />
  </g>
  <g
   id="bullet-char-template-9679"
   transform="matrix(4.8828125e-4,0,0,-4.8828125e-4,0,0)">
   <path
   d="M 813,0 C 632,0 489,54 383,161 276,268 223,411 223,592 c 0,181 53,324 160,431 106,107 249,161 430,161 179,0 323,-54 432,-161 108,-107 162,-251 162,-431 0,-180 -54,-324 -162,-431 C 1136,54 992,0 813,0 Z"
   id="path32"
   inkscape:connector-curvature="0" />
  </g>
  <g
   id="bullet-char-template-8226"
   transform="matrix(4.8828125e-4,0,0,-4.8828125e-4,0,0)">
   <path
   d="m 346,457 c -73,0 -137,26 -191,78 -54,51 -81,114 -81,188 0,73 27,136 81,188 54,52 118,78 191,78 73,0 134,-26 185,-79 51,-51 77,-114 77,-187 0,-75 -25,-137 -76,-188 -50,-52 -112,-78 -186,-78 z"
   id="path35"
   inkscape:connector-curvature="0" />
  </g>
  <g
   id="bullet-char-template-8211"
   transform="matrix(4.8828125e-4,0,0,-4.8828125e-4,0,0)">
   <path
   d="M -4,459 H 1135 V 606 H -4 Z"
   id="path38"
   inkscape:connector-curvature="0" />
  </g>
  <g
   id="bullet-char-template-61548"
   transform="matrix(4.8828125e-4,0,0,-4.8828125e-4,0,0)">
   <path
   d="m 173,740 c 0,163 58,303 173,419 116,115 255,173 419,173 163,0 302,-58 418,-173 116,-116 174,-256 174,-419 0,-163 -58,-303 -174,-418 C 1067,206 928,148 765,148 601,148 462,206 346,322 231,437 173,577 173,740 Z"
   id="path41"
   inkscape:connector-curvature="0" />
  </g>
 </defs>
 <g
   id="g49"
   transform="translate(-8924,-12914)">
  <g
   id="id2"
   class="Master_Slide">
   <g
   id="bg-id2"
   class="Background" />
   <g
   id="bo-id2"
   class="BackgroundObjects" />
  </g>
 </g>
 <g
   class="SlideGroup"
   id="g217"
   transform="translate(-8924,-12914)">
  <g
   id="g215">
   <g
   id="container-id1">
    <g
   id="id1"
   class="Slide"
   clip-path="url(#presentation_clip_path)">
     <g
   class="Page"
   id="g211">
      <g
   class="Graphic"
   id="g209">
       <g
   id="id3">
        <rect
   class="BoundingBox"
   x="8924"
   y="12914"
   width="3152"
   height="3871"
   id="rect51"
   style="fill:none;stroke:none" />
        <defs
   id="defs56">
         <clipPath
   id="clip_path_1"
   clipPathUnits="userSpaceOnUse">
          <path
   d="m 8924,12914 h 3151 v 3870 H 8924 Z"
   id="path53"
   inkscape:connector-curvature="0" />
         </clipPath>
        </defs>
        <g
   clip-path="url(#clip_path_1)"
   id="g206">
         <path
   d="m 9534,16117 -15,2 -13,8 -13,10 -10,15 -10,15 -10,16 -8,10 -10,10 -13,5 h -12 l -16,-3 -17,-5 -18,-5 -15,-5 -13,-5 -13,-2 h -13 -12 -16 l -15,2 h -12 l -13,-2 -10,-3 -5,-5 -13,-15 -15,-18 -13,-23 2,-30 -15,-6 -13,-2 h -15 l -12,8 -11,5 -12,7 -16,5 -17,5 h -18 l -15,-2 -11,-8 -7,-12 -13,-39 -25,-43 -21,-46 -10,-43 10,-48 18,-28 15,-13 3,-7 -13,-8 -18,-10 -15,-15 -7,-23 5,-28 7,-28 5,-31 -7,-35 -10,-36 2,-30 13,-23 18,-15 12,-11 5,-12 -5,-13 -12,-15 -21,-26 -15,-40 v -41 l 20,-38 21,-18 25,-20 25,-23 28,-20 28,-21 26,-18 23,-10 17,-2 h 16 15 l 13,-3 12,-2 13,-8 10,-8 8,-10 5,-15 5,-18 10,-15 13,-13 18,-13 20,-10 23,-7 28,-3 30,-2 h 33 l 34,5 35,5 31,7 30,11 26,15 22,18 16,20 12,20 13,18 13,15 10,10 10,8 10,8 8,5 8,2 15,13 13,20 5,26 -13,33 -26,48 v 28 l 18,5 28,-18 13,-10 13,-2 10,2 10,10 5,8 10,10 13,8 15,7 18,8 15,5 15,3 16,2 25,5 18,10 10,16 v 20 l -2,20 5,21 10,18 20,17 20,21 8,15 v 18 l -13,12 -20,18 -18,21 -12,22 2,16 10,17 3,23 -5,18 -10,8 -11,-3 -10,-2 -15,-5 -13,-3 -15,-5 h -15 l -13,-3 -10,3 -13,2 -13,3 -17,3 h -16 -15 l -15,-3 -10,-5 -8,-8 -20,-25 -23,-8 -20,5 -6,21 3,20 3,31 5,35 10,26 10,27 v 36 l -5,31 -13,15 -15,5 -15,10 -13,15 -3,18 v 13 l -2,13 -5,15 -10,15 -16,13 -20,10 -25,8 z"
   id="path58"
   inkscape:connector-curvature="0"
   style="fill:#c6f9f9;stroke:none" />
         <path
   d="m 10170,14170 -21,28 -12,35 -6,38 v 41 l 6,41 10,40 17,38 21,31 20,23 26,23 30,25 36,25 38,26 43,25 43,21 48,17 26,8 28,10 33,13 36,13 35,15 38,13 38,15 41,15 41,15 40,16 38,12 41,13 36,13 38,10 33,8 30,5 11,2 12,3 16,7 12,8 13,8 8,10 5,10 v 10 l -8,10 -10,13 -15,13 -16,17 -17,21 -21,23 -18,25 -15,31 -15,33 -15,35 -13,41 -15,43 -13,51 -15,63 -13,74 -15,87 -5,17 -8,31 -13,41 -15,48 -18,48 -20,51 -18,46 -20,40 -8,38 3,54 13,48 20,23 h 18 l 7,-10 5,-10 8,-10 10,-18 5,-28 13,-36 18,-38 15,-28 20,-38 23,-51 31,-58 30,-61 36,-66 35,-66 36,-61 36,-61 38,-69 35,-66 36,-64 33,-58 25,-46 23,-36 13,-17 10,-13 13,-18 13,-25 12,-28 8,-31 5,-28 -5,-25 -10,-23 -21,-20 -23,-26 -27,-25 -34,-31 -35,-28 -38,-33 -41,-30 -43,-31 -41,-30 -38,-26 -36,-25 -27,-23 -28,-20 -23,-18 -23,-15 -18,-13 -48,-30 -51,-31 -54,-30 -50,-28 -54,-28 -53,-26 -51,-23 -51,-20 -48,-15 -48,-13 -46,-10 -41,-3 h -38 l -36,8 -30,15 z"
   id="path60"
   inkscape:connector-curvature="0"
   style="fill:#004cb2;stroke:none" />
         <path
   d="m 10360,14375 8,-10 5,-12 -3,-13 -5,-10 -10,-8 -13,-2 h -12 l -10,7 -8,10 -3,11 v 12 l 8,13 10,8 10,2 h 13 z"
   id="path62"
   inkscape:connector-curvature="0"
   style="fill:#004cb2;stroke:none" />
         <path
   d="m 10830,15888 8,-10 3,-13 v -13 l -8,-10 -10,-8 -10,-2 h -13 l -13,7 -7,11 -3,10 3,13 5,10 10,7 13,5 12,-2 z"
   id="path64"
   inkscape:connector-curvature="0"
   style="fill:#004cb2;stroke:none" />
         <path
   d="m 11847,16467 18,-2 20,-3 21,-2 23,-5 22,-8 21,-8 18,-10 15,-10 -5,20 -10,21 -13,20 -20,20 -21,16 -23,12 -23,10 -22,3 -13,-3 -28,-10 -38,-15 -54,-18 -63,-25 -71,-28 -84,-33 -92,-36 -96,-40 -107,-41 -109,-46 -115,-46 -119,-48 -122,-48 -122,-51 -125,-48 -122,-51 -122,-51 -122,-48 -117,-49 -112,-45 -109,-44 -102,-43 -96,-38 -89,-35 -79,-33 -71,-28 -59,-26 -48,-20 -33,-13 -23,-10 -7,-3 73,-43 8,3 20,10 36,13 46,20 55,23 69,28 76,30 87,36 94,38 99,41 104,43 109,46 115,48 117,46 117,50 122,49 119,48 117,48 117,49 114,45 112,46 107,43 102,41 94,38 86,36 82,30 68,28 61,23 49,18 38,15 25,8 z"
   id="path66"
   inkscape:connector-curvature="0"
   style="fill:#99007f;stroke:none" />
         <path
   d="m 12007,16442 -2,20 -10,21 -16,20 -17,20 -23,15 -23,13 -23,8 -23,2 -13,-2 -25,-10 -41,-13 -51,-20 -63,-26 -74,-28 -81,-33 -92,-35 -99,-39 -104,-43 -109,-43 -117,-46 -117,-48 -122,-48 -122,-51 -125,-51 -122,-48 -122,-51 -122,-48 -117,-49 -112,-45 -109,-44 -102,-43 -96,-38 -89,-36 -79,-33 -71,-28 -59,-25 -48,-20 -33,-13 -23,-10 -7,-3 -5,-23 7,3 23,10 33,13 48,20 59,26 71,28 79,33 89,35 96,38 102,43 109,44 112,45 117,49 122,48 122,51 122,51 125,48 122,51 122,48 119,48 115,46 109,46 107,41 96,40 92,36 84,33 71,28 63,25 54,18 38,15 28,10 13,3 22,-3 23,-10 23,-12 21,-16 20,-20 13,-20 10,-21 5,-20 z"
   id="path68"
   inkscape:connector-curvature="0"
   style="fill:#000066;stroke:none" />
         <path
   d="m 10813,15801 h -16 l -17,8 -21,13 -20,17 -20,18 -18,18 -15,18 -8,15 -5,13 -3,13 3,12 5,15 10,13 13,15 20,13 26,10 35,16 38,20 36,23 38,23 33,25 33,20 28,18 23,13 18,5 15,5 15,5 15,3 h 13 l 10,-3 8,-2 5,-5 v -8 l -5,-8 -8,-7 -10,-11 -13,-7 -12,-10 -10,-8 -11,-8 -10,-10 -12,-18 -16,-22 -17,-26 -18,-25 -16,-26 -15,-20 -10,-15 -8,-15 -10,-21 -12,-20 -16,-26 -15,-20 -15,-20 -18,-15 z"
   id="path70"
   inkscape:connector-curvature="0"
   style="fill:#004cb2;stroke:none" />
         <path
   d="m 10797,15893 13,2 10,-5 10,-5 8,-10 3,-13 -3,-12 -5,-11 -10,-5 -13,-2 -13,2 -10,5 -7,11 -3,12 3,13 7,10 z"
   id="path72"
   inkscape:connector-curvature="0"
   style="fill:#004cb2;stroke:none" />
         <path
   d="m 11082,16213 -5,-2 -15,-6 -18,-10 -25,-12 -31,-13 -33,-18 -33,-20 -38,-21 -36,-20 -38,-20 -35,-21 -34,-20 -27,-18 -26,-17 -20,-16 -15,-12 -8,10 -18,20 -15,20 -5,11 7,2 16,8 23,10 30,13 36,15 38,15 40,18 44,18 43,17 41,16 38,18 35,12 28,13 23,10 15,5 5,3 z"
   id="path74"
   inkscape:connector-curvature="0"
   style="fill:#000066;stroke:none" />
         <path
   d="m 10653,15967 15,12 20,16 26,17 27,18 34,20 35,21 38,20 36,20 38,21 33,20 33,18 31,13 25,12 18,10 15,6 5,2 8,-2 10,-8 10,-8 10,-12 8,-16 5,-15 -3,-18 -10,-17 -18,-21 -25,-30 -30,-31 -31,-35 -28,-33 -23,-28 -18,-23 -5,-13 3,-18 2,-15 5,-15 6,-18 12,-38 18,-46 15,-36 5,-15 -71,-56 -56,56 3,-86 -56,-56 -18,63 -20,51 -18,36 -8,20 -5,-2 -7,-3 -5,3 -6,5 -10,10 -12,13 -8,15 3,10 -11,8 -12,10 -16,13 -12,15 -13,15 -13,15 -7,16 -5,15 2,28 5,23 10,15 z"
   id="path76"
   inkscape:connector-curvature="0"
   style="fill:#99007f;stroke:none" />
         <path
   d="m 10996,15695 -59,-49 -56,56 3,-86 -43,-41 15,-76 51,41 5,68 46,-33 63,46 z"
   id="path78"
   inkscape:connector-curvature="0"
   style="fill:#ffffff;stroke:none" />
         <path
   d="m 10714,15781 -3,-10 8,-15 12,-13 10,-10 6,-5 5,-3 7,3 5,2 82,69 2,15 -25,31 -10,2 z"
   id="path80"
   inkscape:connector-curvature="0"
   style="fill:#f27fd8;stroke:none" />
         <path
   d="m 10945,15900 -94,69 30,33 89,-66 z"
   id="path82"
   inkscape:connector-curvature="0"
   style="fill:#f27fd8;stroke:none" />
         <path
   d="m 11659,14116 h -13 l -10,5 -10,8 -5,13 v 12 l 8,13 7,8 13,5 10,5 23,10 28,15 33,18 33,18 31,15 20,10 10,5 h 8 7 l 8,-5 8,-10 17,-25 18,-31 18,-25 8,-18 -3,-23 -5,-35 -10,-34 -8,-12 -7,5 -6,7 -2,11 -3,7 v 13 l -2,18 -5,15 -8,10 -8,5 -10,5 -10,3 -10,-3 -10,-2 -21,-5 -25,-8 -25,-5 -28,-5 -28,-5 -21,-5 z"
   id="path84"
   inkscape:connector-curvature="0"
   style="fill:#e5b2bf;stroke:none" />
         <path
   d="m 11685,14154 -6,13 -7,8 -10,5 h -13 l -13,-5 -7,-8 -8,-13 v -12 l 5,-13 10,-8 10,-5 h 13 l 13,5 7,8 6,13 z"
   id="path86"
   inkscape:connector-curvature="0"
   style="fill:#e5b2bf;stroke:none" />
         <path
   d="m 11123,13605 33,-58 46,-33 45,-10 49,10 38,25 28,41 7,51 -15,58 -8,15 -12,21 -13,23 -15,25 -13,26 -13,22 -10,23 -5,21 -8,25 -10,31 -15,35 -15,33 -15,36 -13,33 -13,25 -10,23 -5,10 v 8 l 5,5 13,-3 33,-2 40,-3 44,3 43,2 48,3 43,2 44,3 h 40 15 l 18,-3 16,-2 17,-3 16,-5 17,-2 13,-3 15,-2 13,-3 13,5 10,8 8,10 2,13 v 12 l -5,11 -10,7 -26,13 -30,13 -36,12 -38,11 -38,12 -43,10 -43,11 -46,10 -43,10 -44,8 -40,7 -41,5 -38,5 -33,3 -28,2 h -25 -26 -25 l -23,3 h -20 -18 l -16,-3 -10,-5 -7,-7 -5,-18 v -20 l 2,-23 3,-33 7,-33 13,-49 18,-61 20,-66 20,-66 18,-61 16,-51 12,-33 18,-48 18,-48 15,-46 z"
   id="path88"
   inkscape:connector-curvature="0"
   style="fill:#e5b2bf;stroke:none" />
         <path
   d="m 11667,14177 10,-7 8,-11 v -12 l -3,-13 -8,-10 -10,-5 -13,-3 -12,3 -10,7 -5,11 -3,12 5,13 8,10 10,5 10,3 z"
   id="path90"
   inkscape:connector-curvature="0"
   style="fill:#e5b2bf;stroke:none" />
         <path
   d="m 11242,13669 10,-8 5,-10 v -10 l -2,-13 -8,-10 -10,-8 h -13 l -12,3 -10,8 -6,10 -2,12 5,13 8,10 10,5 13,3 z"
   id="path92"
   inkscape:connector-curvature="0"
   style="fill:#e5b2bf;stroke:none" />
         <path
   d="m 11616,14203 -31,10 -33,10 -33,13 -38,7 -35,10 -41,11 -38,7 -38,8 -38,8 -36,5 -36,5 -35,5 -31,2 -28,3 -25,2 h -20 -26 -25 l -23,3 h -20 -18 l -16,-3 -10,-5 -7,-7 -5,-18 v -20 l 2,-23 3,-33 7,-33 13,-49 18,-61 20,-66 20,-66 18,-61 16,-51 12,-33 18,-48 18,-48 15,-46 13,-36 33,-58 46,-33 45,-10 49,10 38,25 28,41 7,51 -15,58 -8,15 -12,21 -13,23 -15,25 -13,26 -13,22 -10,23 -5,21 -8,25 -10,31 -15,35 -15,33 -15,36 -13,33 -13,25 -10,23 -5,10 v 8 l 5,5 13,-3 33,-2 40,-3 44,3 43,2 48,3 43,2 44,3 h 40 8 10 l 10,-3 h 10 l 8,-2 10,-3 h 10 l 10,-2 13,15 8,18 5,20 z"
   id="path94"
   inkscape:connector-curvature="0"
   style="fill:#004cb2;stroke:none" />
         <path
   d="m 9493,12917 49,5 124,63 36,-71 33,18 -36,71 2181,1151 -10,21 -2191,-1136 -38,68 -31,-18 38,-68 -122,-66 z"
   id="path96"
   inkscape:connector-curvature="0"
   style="fill:#99007f;stroke:none" />
         <path
   d="m 11720,13694 10,5 8,-2 8,-5 5,-8 v 0 0 0 l 2,-2 5,2 h 5 8 l 5,-5 8,-5 7,-5 8,-3 8,3 5,5 5,3 7,2 8,3 18,-8 7,-20 5,-26 8,-23 5,-10 10,-10 11,-8 10,-10 12,-7 11,-11 12,-7 8,-5 25,-28 23,-36 18,-43 13,-46 2,-48 -7,-48 -18,-49 -33,-43 -41,-35 -41,-26 -40,-13 -38,-5 -41,5 -38,13 -36,20 -33,26 -28,30 -23,28 -17,28 -13,26 -10,23 -8,22 -2,18 -6,13 -5,15 -10,15 -10,13 -15,13 -18,13 -20,10 -26,7 -30,11 -31,10 -28,12 -23,13 -22,15 -16,16 -12,15 -8,18 v 15 l 5,23 8,18 12,17 18,13 20,10 28,8 31,2 38,-2 28,-3 25,-2 23,-3 21,-2 h 20 15 l 13,5 8,5 15,20 18,21 20,15 20,7 18,-5 15,-10 11,-13 z"
   id="path98"
   inkscape:connector-curvature="0"
   style="fill:#e5b2bf;stroke:none" />
         <path
   d="m 11364,13603 10,10 11,3 h 12 l 13,-3 8,-10 5,-10 v -13 l -5,-13 -11,-10 -10,-2 h -12 l -11,5 -10,7 -5,10 v 13 z"
   id="path100"
   inkscape:connector-curvature="0"
   style="fill:#e5b2bf;stroke:none" />
         <path
   d="m 11837,13257 10,10 10,5 h 13 l 13,-5 10,-10 3,-10 v -13 l -6,-12 -7,-8 -13,-5 h -10 l -13,5 -10,10 -5,10 v 13 z"
   id="path102"
   inkscape:connector-curvature="0"
   style="fill:#e5b2bf;stroke:none" />
         <path
   d="m 11852,13494 10,2 13,5 10,5 13,8 8,7 5,8 -3,10 -5,10 -2,3 -5,3 h -3 v -8 -10 l -5,-13 -8,-8 -7,-5 -5,-2 -8,-5 -5,-3 -5,-2 -5,-3 -3,-5 h 3 z"
   id="path104"
   inkscape:connector-curvature="0"
   style="fill:#000000;stroke:none" />
         <path
   d="m 11850,13567 v 3 5 2 l -3,3 v 0 h -2 v -5 l -3,-3 -5,-12 -2,-13 -3,-10 -5,-10 -5,-8 2,-3 h 3 l 8,5 7,11 10,10 10,7 11,6 7,2 5,3 v 2 l -7,3 h -5 l -5,-3 h -8 l -3,-2 -2,2 h -3 l -2,3 z"
   id="path106"
   inkscape:connector-curvature="0"
   style="fill:#000000;stroke:none" />
         <path
   d="m 11723,13638 v 0 0 0 3 10 l -5,13 -3,13 5,17 10,5 8,-2 8,-5 5,-8 v 0 0 0 l 2,-2 5,2 h 5 8 l 5,-5 -8,-10 -15,-10 -15,-13 z"
   id="path108"
   inkscape:connector-curvature="0"
   style="fill:#ff3384;stroke:none" />
         <path
   d="m 11723,13641 5,10 7,13 8,13 8,7 v 0 0 0 l 2,-2 -7,-8 -11,-15 -7,-13 -5,-8 v 0 0 0 z"
   id="path110"
   inkscape:connector-curvature="0"
   style="fill:#000000;stroke:none" />
         <path
   d="m 11982,13506 -5,-5 -13,-10 -15,-10 -15,-13 -18,-13 -15,-10 -11,-10 -7,-2 -18,5 -8,10 -17,23 -21,30 -12,26 -6,33 v 10 l -2,23 2,25 8,15 18,3 25,-3 21,-7 7,-3 3,-2 2,-5 3,-6 v -7 h -8 l -12,2 -18,3 h -10 l -5,-13 v -20 -23 l 2,-15 10,-16 13,-20 15,-20 5,-8 16,-2 71,50 h 5 l 5,-5 2,-5 z"
   id="path112"
   inkscape:connector-curvature="0"
   style="fill:#ed4cc9;stroke:none" />
         <path
   d="m 11807,13527 12,-26 21,-30 17,-23 8,-10 -5,-8 -18,-18 -25,-25 -36,-33 -41,-36 -45,-33 -49,-30 -50,-23 -8,18 -8,20 -7,18 -8,7 -2,10 10,8 25,18 36,25 40,33 44,36 40,38 31,33 z"
   id="path114"
   inkscape:connector-curvature="0"
   style="fill:#000000;stroke:none" />
         <path
   d="m 11563,13305 -16,16 -12,25 -6,28 13,23 8,2 10,6 13,2 10,3 13,2 15,3 13,2 15,3 -18,13 -13,12 -7,10 -8,8 -8,8 -10,7 -12,5 -16,3 -25,2 -18,-2 -13,-5 -10,-5 -5,-8 -8,-5 -5,-5 h -10 -12 -13 -13 l -13,-3 -10,-2 -7,-3 -8,-5 -3,-2 -5,-3 -7,-2 h -8 -10 -10 -13 l -13,-3 -12,-5 -16,-8 -17,-5 -18,-7 -15,-8 -16,-8 -10,-10 -5,-12 3,-13 10,-28 2,-23 -10,-18 -23,-10 10,-10 11,-10 12,-8 13,-5 15,-3 13,-2 13,-3 h 10 l 18,3 15,8 13,7 10,10 7,13 8,8 5,7 8,3 7,-3 8,-10 8,-10 12,-15 13,-16 15,-10 18,-10 20,-2 23,2 18,8 13,12 12,13 11,15 7,13 8,13 z"
   id="path116"
   inkscape:connector-curvature="0"
   style="fill:#4c0000;stroke:none" />
         <path
   d="m 11738,13443 -28,-26 -31,-25 -30,-23 -25,-20 -26,-18 -18,-13 -12,-10 -5,-3 -16,16 -12,25 -6,28 13,23 18,5 23,5 28,5 28,5 28,5 28,5 23,8 z"
   id="path118"
   inkscape:connector-curvature="0"
   style="fill:#004cb2;stroke:none" />
         <path
   d="m 11603,13234 51,23 46,31 46,35 38,33 33,31 25,25 18,18 5,8 18,-5 5,2 13,8 12,10 16,10 15,13 15,12 13,8 7,8 18,-18 15,-20 13,-23 5,-16 v -15 l 3,-15 2,-18 5,-10 5,-8 v -12 -16 l -5,-12 -5,-16 -2,-15 -3,-15 -5,-18 -2,-10 -5,-15 -6,-18 -7,-18 -13,-18 -13,-15 -15,-13 -20,-10 -21,-7 -17,-8 -18,-8 -13,-7 -13,-8 -10,-8 -7,-7 -8,-5 -5,-5 -8,-3 -7,-5 -10,-2 h -11 -12 l -10,2 -13,3 -15,5 -18,7 -18,5 -20,8 -21,8 -15,7 -13,8 -5,8 -10,15 -13,25 -10,33 z"
   id="path120"
   inkscape:connector-curvature="0"
   style="fill:#004cb2;stroke:none" />
         <path
   d="m 11402,13689 16,3 h 15 l 18,-3 12,-2 16,-3 10,-2 7,-3 6,-2 2,-41 v -36 l -2,-33 -6,-28 -12,-25 -16,-23 -25,-18 -30,-13 -21,6 -18,7 -17,10 -18,11 -18,12 -15,10 -15,13 -13,8 -3,20 -2,23 2,23 8,23 13,23 25,17 33,16 z"
   id="path122"
   inkscape:connector-curvature="0"
   style="fill:#004cb2;stroke:none" />
         <path
   d="m 11461,13521 -18,-12 -25,-13 -33,-15 -36,-13 -41,-10 -40,-10 -41,-5 -41,-3 -51,3 -55,10 -59,13 -61,17 -61,23 -66,28 -64,31 -66,33 -63,35 -64,38 -63,39 -59,40 -58,43 -51,44 -51,43 -43,43 -48,56 -41,61 -33,66 -23,69 -13,68 5,66 21,61 40,54 13,10 18,15 20,13 23,15 26,13 25,10 23,8 23,2 25,-2 28,-8 31,-13 30,-15 31,-15 30,-21 23,-17 20,-18 26,-31 25,-43 28,-48 28,-53 25,-49 23,-46 21,-35 17,-23 18,-15 26,-18 30,-20 33,-18 38,-18 39,-13 38,-10 38,-2 12,2 21,3 20,7 20,8 23,5 21,8 15,5 13,2 h 10 l 10,-5 8,-7 7,-11 23,-30 31,-36 38,-43 40,-43 41,-41 38,-35 31,-31 20,-20 25,-38 18,-46 v -48 z"
   id="path124"
   inkscape:connector-curvature="0"
   style="fill:#004cb2;stroke:none" />
         <path
   d="m 11369,13608 11,8 12,2 13,-2 10,-8 8,-10 v -13 l -3,-13 -7,-10 -11,-7 -10,-3 -12,3 -11,7 -7,10 -3,13 3,13 z"
   id="path126"
   inkscape:connector-curvature="0"
   style="fill:#004cb2;stroke:none" />
         <path
   d="m 11204,13664 10,7 13,3 13,-3 10,-7 7,-10 3,-13 -3,-13 -7,-10 -10,-8 -13,-2 -13,2 -10,8 -8,10 -2,13 2,13 z"
   id="path128"
   inkscape:connector-curvature="0"
   style="fill:#004cb2;stroke:none" />
         <path
   d="m 10317,14373 10,8 13,2 13,-2 10,-8 7,-10 3,-13 -3,-13 -7,-10 -10,-5 -13,-2 -13,2 -10,8 -8,10 -2,13 2,10 z"
   id="path130"
   inkscape:connector-curvature="0"
   style="fill:#004cb2;stroke:none" />
         <path
   d="m 11242,13478 41,5 36,16 30,25 23,31 13,35 5,41 -5,40 -16,41 -10,15 -13,21 -15,20 -15,20 -15,21 -16,17 -12,11 -10,7 -33,5 -49,-2 -56,-10 -63,-18 -59,-20 -48,-26 -36,-28 -12,-28 10,-33 25,-35 38,-41 49,-38 53,-36 56,-30 53,-18 51,-8 v -40 l -51,-3 -53,5 -53,8 -54,10 -51,15 -50,15 -44,16 -40,17 -33,13 -31,15 -33,18 -33,15 -33,18 -30,18 -31,18 -30,18 -31,15 -28,18 -25,17 -23,16 -23,15 -18,13 -18,12 -12,11 -6,10 -2,7 5,11 10,10 8,12 13,23 15,31 18,35 17,33 16,33 17,28 13,16 18,12 23,18 28,20 28,21 28,18 25,15 18,7 h 10 l 10,-12 10,-18 8,-13 8,-7 h 10 13 12 l 13,-5 10,-6 20,-12 26,-15 30,-16 28,-15 26,-13 20,-7 10,-3 10,3 23,5 28,5 33,5 33,5 h 31 25 l 16,-5 17,-15 31,-33 40,-44 44,-48 43,-48 38,-41 28,-33 15,-18 5,-35 v -41 l -7,-46 -16,-43 -25,-41 -30,-35 -41,-28 -48,-18 -11,-2 h -7 -3 v 0 z"
   id="path132"
   inkscape:connector-curvature="0"
   style="fill:#e5eaef;stroke:none" />
         <path
   d="m 11237,13496 38,5 31,15 28,21 20,28 13,33 2,35 -5,38 -15,36 -8,13 -12,18 -13,17 -13,21 -15,17 -13,16 -10,12 -10,5 -28,6 -46,-6 -51,-7 -56,-15 -53,-18 -43,-23 -31,-25 -12,-26 7,-28 23,-35 36,-36 43,-36 48,-30 51,-28 48,-15 46,-8 5,-18 -51,8 -53,18 -56,30 -53,36 -49,38 -38,41 -25,35 -10,33 12,28 36,28 48,26 59,20 63,18 56,10 49,2 33,-5 10,-7 12,-11 16,-17 15,-21 15,-20 15,-20 13,-21 10,-15 16,-41 5,-40 -5,-41 -13,-35 -23,-31 -30,-25 -36,-16 -41,-5 z"
   id="path134"
   inkscape:connector-curvature="0"
   style="fill:#000000;stroke:none" />
         <path
   d="m 10846,13999 96,-48 54,-13 -10,-48 22,-5 11,25 10,13 15,8 20,2 3,18 -117,25 -97,49 z"
   id="path136"
   inkscape:connector-curvature="0"
   style="fill:#000000;stroke:none" />
         <path
   d="m 9618,13158 48,5 125,64 35,-72 33,16 -35,71 2181,1151 -10,23 -2191,-1139 -39,72 -30,-18 38,-69 -122,-66 z"
   id="path138"
   inkscape:connector-curvature="0"
   style="fill:#99007f;stroke:none" />
         <path
   d="m 11804,14276 -10,-7 -13,-3 -13,3 -10,7 -7,11 -3,10 3,12 7,11 5,10 13,23 15,30 16,33 17,33 16,31 10,20 5,10 5,5 10,5 h 8 l 12,-5 13,-5 15,-7 16,-6 17,-5 13,-5 15,-7 11,-3 5,-5 12,-20 18,-33 10,-33 v -16 h -7 l -10,3 -8,8 -8,5 -7,10 -11,10 -15,13 -10,2 h -8 l -10,-2 -12,-3 -8,-7 -8,-11 -10,-15 -18,-18 -17,-23 -21,-20 -18,-18 -15,-17 z"
   id="path140"
   inkscape:connector-curvature="0"
   style="fill:#e5b2bf;stroke:none" />
         <path
   d="m 11804,14322 -10,8 h -13 l -13,-3 -10,-7 -7,-11 -3,-12 3,-10 7,-11 10,-7 13,-3 13,3 10,7 8,11 2,12 -2,13 z"
   id="path142"
   inkscape:connector-curvature="0"
   style="fill:#e5b2bf;stroke:none" />
         <path
   d="m 11115,13616 20,-64 34,-41 40,-17 46,-3 43,15 33,28 21,43 v 54 l -6,25 -5,31 -7,33 -3,28 -7,86 -16,92 -17,91 -23,89 -3,15 v 16 l 5,10 8,10 28,15 30,8 36,5 38,5 41,5 45,5 49,13 48,15 23,8 25,5 28,2 28,3 28,5 26,2 23,6 15,5 5,5 7,2 6,5 5,8 2,13 v 15 l -5,13 -10,10 -3,2 h -2 -3 -2 l -15,5 -21,3 -28,5 -33,3 -35,2 h -41 l -41,3 h -43 l -46,2 h -43 -41 -40 l -36,-2 h -30 -26 l -20,-3 -31,-2 -30,-3 -26,-2 -22,-6 -21,-2 -15,-5 -10,-5 -8,-5 -7,-13 -6,-15 -2,-16 -3,-25 3,-69 5,-117 5,-127 8,-91 5,-66 7,-71 8,-59 z"
   id="path144"
   inkscape:connector-curvature="0"
   style="fill:#e5b2bf;stroke:none" />
         <path
   d="m 11794,14327 10,-7 8,-11 v -12 l -3,-13 -8,-10 -10,-5 -12,-3 -13,3 -10,7 -5,11 v 12 l 2,13 8,10 10,8 h 10 z"
   id="path146"
   inkscape:connector-curvature="0"
   style="fill:#e5b2bf;stroke:none" />
         <path
   d="m 11240,13671 10,-10 7,-10 v -10 l -2,-13 -8,-10 -10,-8 h -13 l -12,3 -10,8 -6,10 -2,12 5,13 8,10 10,5 10,3 z"
   id="path148"
   inkscape:connector-curvature="0"
   style="fill:#e5b2bf;stroke:none" />
         <path
   d="m 11692,14353 -28,2 h -28 l -30,3 h -31 -33 l -33,2 h -33 -30 -33 -31 l -28,-2 h -25 -26 -20 l -18,-3 h -15 l -31,-2 -30,-3 -26,-2 -22,-6 -21,-2 -15,-5 -10,-5 -8,-5 -7,-13 -6,-15 -2,-16 -3,-25 3,-69 5,-117 5,-127 8,-91 5,-66 7,-71 8,-59 5,-40 20,-64 34,-41 40,-17 46,-3 43,15 33,28 21,43 v 54 l -6,25 -5,31 -7,33 -3,28 -7,86 -16,92 -17,91 -23,89 -3,15 v 16 l 5,10 8,10 28,15 30,8 36,5 38,5 41,5 45,5 49,13 48,15 10,5 13,3 15,2 15,3 16,2 15,3 h 18 l 15,2 8,31 v 28 l -8,25 z"
   id="path150"
   inkscape:connector-curvature="0"
   style="fill:#004cb2;stroke:none" />
         <path
   d="m 11087,13887 23,-5 20,-2 21,-3 20,3 18,5 15,8 13,7 10,13 v 28 l -3,20 -2,10 v 3 l -18,-5 -20,-3 -18,-2 h -18 -18 l -17,2 -16,3 -15,5 z"
   id="path152"
   inkscape:connector-curvature="0"
   style="fill:#ed4cc9;stroke:none" />
         <path
   d="m 11080,14020 12,5 16,5 17,5 18,5 18,3 20,2 h 18 20 v 28 l -2,20 -3,11 v 2 l -20,3 -18,2 -20,3 h -21 -17 -16 l -15,-5 -10,-5 z"
   id="path154"
   inkscape:connector-curvature="0"
   style="fill:#ed4cc9;stroke:none" />
         <path
   d="m 11074,14152 8,7 15,6 18,2 20,3 21,2 h 23 l 17,3 16,2 v 28 18 l -3,10 v 3 l -23,5 -23,2 -17,3 h -18 -15 -16 l -12,-5 -13,-5 z"
   id="path156"
   inkscape:connector-curvature="0"
   style="fill:#ed4cc9;stroke:none" />
         <path
   d="m 10256,14119 -31,18 -25,25 -20,33 -18,38 -10,41 -5,40 v 39 l 7,38 10,28 16,33 18,35 20,38 25,39 31,38 33,38 35,33 21,18 23,20 25,25 25,26 28,28 31,28 28,28 33,30 30,28 31,31 33,28 30,25 28,25 31,23 28,21 25,17 18,16 20,23 13,25 -5,20 -10,8 -15,8 -18,7 -23,8 -23,13 -25,12 -28,18 -28,23 -26,25 -28,28 -28,28 -30,36 -33,43 -36,51 -40,61 -49,74 -10,15 -20,25 -28,33 -33,36 -36,41 -38,38 -35,35 -34,28 -22,33 -18,51 -8,48 10,28 16,5 10,-2 10,-8 13,-7 7,-5 8,-8 8,-10 10,-13 10,-13 13,-15 12,-15 18,-13 23,-18 36,-30 43,-36 48,-40 53,-46 56,-46 59,-46 56,-43 58,-43 61,-48 61,-46 56,-46 54,-41 43,-33 30,-25 21,-10 15,-8 20,-10 20,-18 23,-23 21,-23 15,-25 8,-25 -3,-26 -10,-25 -13,-33 -15,-36 -18,-38 -23,-41 -23,-43 -23,-43 -27,-46 -28,-43 -23,-41 -21,-38 -20,-33 -15,-28 -16,-25 -12,-23 -13,-18 -33,-48 -36,-46 -35,-48 -38,-48 -38,-46 -39,-43 -38,-44 -38,-38 -40,-33 -39,-30 -35,-26 -38,-20 -36,-13 -35,-7 h -34 z"
   id="path158"
   inkscape:connector-curvature="0"
   style="fill:#004cb2;stroke:none" />
         <path
   d="m 10350,14381 10,-6 8,-10 5,-10 -3,-13 -5,-12 -10,-8 -13,-2 h -12 l -10,7 -8,10 -3,11 v 12 l 5,13 11,8 12,2 z"
   id="path160"
   inkscape:connector-curvature="0"
   style="fill:#004cb2;stroke:none" />
         <path
   d="m 10187,15956 13,-5 8,-10 2,-13 v -12 l -7,-10 -11,-8 -10,-3 h -12 l -13,5 -8,11 -2,12 2,13 5,10 10,8 11,5 z"
   id="path162"
   inkscape:connector-curvature="0"
   style="fill:#004cb2;stroke:none" />
         <path
   d="m 10838,15158 -10,8 -15,8 -18,7 -23,8 -23,13 -25,12 -28,18 -28,23 -26,25 -28,28 -28,28 -30,36 -33,43 -36,51 -40,61 -49,74 -5,7 -10,13 -10,15 -15,18 v -3 l -69,87 58,76 95,-76 30,-38 31,-38 35,-39 38,-38 38,-38 39,-35 38,-36 38,-33 35,-31 36,-30 33,-23 28,-23 25,-18 21,-12 15,-8 10,-2 23,-3 13,-8 2,-7 v -8 l 16,-7 7,-11 -5,-7 -15,-3 -8,-20 -7,-13 -16,-7 -20,-3 h -15 l -18,-3 -18,-5 -18,-5 -12,-5 -11,-7 v -8 z"
   id="path164"
   inkscape:connector-curvature="0"
   style="fill:#ed4cc9;stroke:none" />
         <path
   d="m 10653,14968 27,-3 26,-5 28,-5 23,-8 23,-7 17,-8 13,-2 8,-3 15,5 18,10 18,13 17,18 16,18 15,17 10,13 5,8 -15,-3 h -23 l -25,3 -26,5 -28,7 -23,5 -17,6 -11,5 -10,-11 -15,-10 -15,-12 -18,-13 -18,-13 -15,-13 -13,-10 z"
   id="path166"
   inkscape:connector-curvature="0"
   style="fill:#ed4cc9;stroke:none" />
         <path
   d="m 10426,14749 28,-2 33,-6 36,-5 33,-10 30,-7 26,-5 18,-6 10,-2 15,5 18,10 18,13 17,18 18,17 13,18 10,15 5,8 -18,-2 h -28 l -35,5 -38,7 -38,8 -33,8 -26,7 -13,3 -10,-10 -12,-13 -16,-13 -15,-15 -13,-13 -12,-13 -13,-12 z"
   id="path168"
   inkscape:connector-curvature="0"
   style="fill:#ed4cc9;stroke:none" />
         <path
   d="m 10304,14635 31,7 33,3 33,-5 35,-8 33,-7 28,-8 21,-8 h 13 l 7,3 h 10 l 10,5 11,10 -8,-25 -10,-23 -8,-23 -10,-20 -10,-16 -13,-15 -13,-8 -12,-2 -16,2 -17,6 -21,7 -17,8 -21,7 -18,8 -17,5 -16,3 h -15 l -15,-3 -20,-2 -18,-5 -21,-6 -17,-5 -18,-10 -15,-10 10,15 10,16 10,17 13,16 13,17 12,18 15,18 z"
   id="path170"
   inkscape:connector-curvature="0"
   style="fill:#ed4cc9;stroke:none" />
         <path
   d="m 11657,16691 17,-3 21,-2 20,-5 23,-8 23,-7 20,-8 18,-10 15,-10 -2,20 -11,23 -15,20 -18,18 -20,18 -23,12 -23,11 -23,2 -12,-2 -28,-8 -41,-15 -51,-18 -63,-23 -74,-25 -84,-31 -91,-33 -102,-38 -104,-38 -112,-41 -117,-43 -120,-46 -122,-43 -124,-48 -125,-46 -124,-46 -125,-48 -122,-43 -117,-46 -114,-43 -112,-41 -102,-38 -96,-38 -89,-33 -82,-31 -71,-25 -58,-23 -48,-18 -36,-15 -23,-8 -8,-2 72,-43 7,2 21,8 35,12 46,18 58,23 69,26 79,30 86,33 94,36 99,38 107,40 112,41 114,43 120,46 119,43 120,46 122,46 119,46 120,43 114,43 115,43 106,41 102,35 97,36 86,33 81,31 72,25 61,20 48,18 38,13 25,7 z"
   id="path172"
   inkscape:connector-curvature="0"
   style="fill:#99007f;stroke:none" />
         <path
   d="m 11817,16660 -3,21 -10,23 -13,20 -17,18 -21,18 -23,12 -23,10 -22,3 -13,-3 -28,-7 -41,-15 -51,-18 -63,-23 -74,-26 -84,-30 -91,-33 -102,-38 -104,-38 -112,-41 -117,-43 -119,-46 -122,-43 -125,-48 -125,-46 -124,-46 -125,-48 -122,-43 -117,-46 -114,-43 -112,-41 -102,-38 -96,-38 -89,-33 -81,-31 -72,-25 -58,-23 -48,-18 -36,-15 -23,-8 -7,-2 -6,-23 8,2 23,8 36,15 48,18 58,23 71,25 82,31 89,33 96,38 102,38 112,41 114,43 117,46 122,43 125,48 124,46 125,46 124,48 122,43 120,46 117,43 112,41 104,38 102,38 91,33 84,31 74,25 63,23 51,18 41,15 28,8 12,2 23,-2 23,-11 23,-12 20,-18 18,-18 15,-20 11,-23 2,-20 z"
   id="path174"
   inkscape:connector-curvature="0"
   style="fill:#000066;stroke:none" />
         <path
   d="m 10182,15865 h -15 l -18,8 -20,12 -20,18 -21,18 -18,18 -15,17 -7,16 -6,12 -2,13 2,13 6,15 10,13 12,15 21,13 25,10 36,15 35,20 38,23 36,23 36,26 33,20 28,18 23,12 17,6 16,5 15,5 15,2 h 13 l 10,-2 8,-3 5,-5 v -8 l -5,-7 -8,-8 -10,-10 -13,-8 -13,-10 -10,-7 -10,-8 -10,-10 -13,-18 -15,-23 -18,-25 -18,-26 -15,-25 -15,-20 -10,-16 -8,-15 -10,-20 -13,-21 -15,-25 -15,-20 -16,-21 -17,-15 z"
   id="path176"
   inkscape:connector-curvature="0"
   style="fill:#004cb2;stroke:none" />
         <path
   d="m 10167,15956 13,3 10,-5 10,-5 8,-10 2,-13 -2,-13 -5,-10 -11,-8 -12,-2 -13,2 -10,8 -8,10 -2,13 2,13 8,10 z"
   id="path178"
   inkscape:connector-curvature="0"
   style="fill:#004cb2;stroke:none" />
         <path
   d="m 10060,16063 15,13 21,15 25,18 31,18 33,20 35,23 36,20 38,21 36,20 35,18 31,17 30,16 26,12 17,11 16,5 5,2 7,-2 11,-8 10,-10 10,-13 8,-13 5,-17 -3,-16 -10,-17 -18,-21 -25,-30 -31,-31 -30,-35 -28,-33 -23,-28 -18,-26 -5,-12 3,-16 5,-10 10,-10 10,-10 10,-10 13,-13 15,-15 15,-18 16,-15 12,-13 10,-10 3,-3 -74,-61 -86,26 28,-61 -59,-56 -17,20 -18,20 -18,21 -18,15 -15,18 -10,13 -8,10 -5,7 -5,-5 -5,-2 -8,2 -5,5 -10,10 -10,16 -10,12 2,13 -10,8 -10,10 -15,13 -13,12 -13,16 -12,17 -8,16 -5,15 v 28 l 5,20 10,15 z"
   id="path180"
   inkscape:connector-curvature="0"
   style="fill:#99007f;stroke:none" />
         <path
   d="m 10490,16312 -5,-2 -16,-5 -17,-11 -26,-12 -30,-16 -31,-17 -35,-18 -36,-20 -38,-21 -36,-20 -35,-23 -33,-20 -31,-18 -25,-18 -21,-15 -15,-13 -7,10 -18,21 -15,20 -6,13 8,2 15,8 23,10 31,13 35,12 38,18 44,15 43,18 43,18 41,18 38,15 35,15 28,11 23,10 16,5 5,2 z"
   id="path182"
   inkscape:connector-curvature="0"
   style="fill:#000066;stroke:none" />
         <path
   d="m 10459,15847 -61,-51 -86,26 28,-61 -43,-44 53,-71 51,41 -5,56 66,-8 58,51 z"
   id="path184"
   inkscape:connector-curvature="0"
   style="fill:#ffffff;stroke:none" />
         <path
   d="m 10121,15880 -2,-13 10,-12 10,-16 10,-10 5,-5 8,-2 5,2 5,5 81,66 3,18 -23,31 -13,2 z"
   id="path186"
   inkscape:connector-curvature="0"
   style="fill:#f27fd8;stroke:none" />
         <path
   d="m 10353,16000 -94,66 30,33 89,-66 z"
   id="path188"
   inkscape:connector-curvature="0"
   style="fill:#f27fd8;stroke:none" />
         <path
   d="m 9310,15939 v -16 l 3,-15 8,-10 12,-5 16,-3 15,-5 10,-5 8,-5 v -10 -13 l -8,-15 -10,-10 33,12 35,13 36,13 36,13 33,10 25,10 20,8 11,2 2,10 v 10 l -5,8 -13,3 h -10 -13 -10 -12 l -11,2 -5,3 -2,2 5,3 7,7 -5,11 -7,12 v 16 z"
   id="path190"
   inkscape:connector-curvature="0"
   style="fill:#c6f9f9;stroke:none" />
         <path
   d="m 9481,15618 v -12 l 5,-8 5,-5 13,-3 15,-2 13,-5 10,-5 7,-5 10,-8 13,-8 10,-7 -2,-8 30,13 31,10 28,10 28,10 23,8 17,5 16,5 7,3 5,10 v 10 l -7,8 -13,2 -18,-2 h -15 l -15,2 -10,10 -11,13 -7,8 -5,10 v 13 z"
   id="path192"
   inkscape:connector-curvature="0"
   style="fill:#c6f9f9;stroke:none" />
         <path
   d="m 9404,15593 6,-18 7,-15 3,-13 -5,-10 -8,-8 -3,-5 6,-2 12,-3 15,-2 11,-5 7,-8 3,-10 -28,-13 -31,-13 -30,-15 -31,-15 -25,-10 -23,-10 -15,-8 -5,-3 -102,54 18,51 z"
   id="path194"
   inkscape:connector-curvature="0"
   style="fill:#c6f9f9;stroke:none" />
         <path
   d="m 9155,15875 8,-13 5,-12 -3,-13 -5,-8 -2,-2 2,-5 h 5 8 8 l 7,-5 5,-5 3,-8 -5,-10 -3,-13 3,-8 5,-5 -20,-7 -26,-10 -23,-8 -23,-10 -20,-8 -15,-8 -10,-2 -5,-3 -82,51 10,36 z"
   id="path196"
   inkscape:connector-curvature="0"
   style="fill:#c6f9f9;stroke:none" />
         <path
   d="m 10083,15956 -20,-15 -15,-10 -11,-13 -2,-12 -5,-11 -13,-5 -20,3 -21,10 -20,10 -23,3 -18,-3 -12,-10 -13,-13 -20,-7 -18,2 -10,13 -3,23 3,23 12,25 18,15 15,16 8,17 3,21 v 18 l 2,7 8,8 7,5 11,5 12,8 13,5 13,2 12,5 13,5 15,5 13,6 15,5 13,5 10,2 5,3 h 3 z"
   id="path198"
   inkscape:connector-curvature="0"
   style="fill:#c6f9f9;stroke:none" />
         <path
   d="m 10126,15677 3,-26 -3,-30 -5,-26 -15,-10 -15,5 -10,11 -8,10 -8,5 -10,5 -7,10 v 13 l 5,10 17,18 23,20 21,5 z"
   id="path200"
   inkscape:connector-curvature="0"
   style="fill:#c6f9f9;stroke:none" />
         <path
   d="m 10403,16091 11,3 10,2 h 12 l 13,3 10,5 13,2 10,8 10,8 11,10 10,12 12,11 11,10 12,7 13,6 13,2 15,-2 18,-6 18,-10 17,-10 18,-13 15,-12 13,-8 10,-2 5,2 5,8 8,10 10,13 13,12 13,13 17,13 18,7 21,8 20,2 20,-2 18,-3 18,-5 15,-2 13,-3 13,-2 7,2 18,3 20,-8 10,-13 -5,-12 -10,-8 -15,-15 -15,-18 -21,-20 -20,-18 -20,-18 -21,-13 -17,-5 -23,-5 -26,-7 -28,-11 -28,-15 -28,-12 -23,-16 -20,-15 -13,-15 -12,-28 -8,-26 -13,-20 -28,-8 h -17 l -18,-2 -13,2 -10,-2 h -10 l -8,-3 -5,-5 -2,-7 -6,-11 -10,-7 -10,-5 -13,-5 h -12 -13 l -15,2 -10,5 -13,8 -15,5 -18,8 -15,7 -16,10 -12,8 -8,10 -5,13 v 18 l 2,23 8,28 10,30 10,31 18,28 21,20 z"
   id="path202"
   inkscape:connector-curvature="0"
   style="fill:#c6f9f9;stroke:none" />
         <path
   d="m 10373,16239 -23,-3 h -15 l -15,5 -13,13 -8,10 -13,10 -10,13 -12,13 -13,12 -10,8 -13,7 h -8 l -15,-2 -15,5 -10,10 2,15 8,8 8,5 12,3 13,2 h 13 15 13 l 12,3 13,2 13,8 12,8 16,7 12,8 13,5 13,2 h 10 l 23,-7 23,-8 15,-10 v -15 l -8,-23 -10,-26 -7,-25 -6,-20 -5,-16 -10,-15 -10,-7 z"
   id="path204"
   inkscape:connector-curvature="0"
   style="fill:#c6f9f9;stroke:none" />
        </g>
       </g>
      </g>
     </g>
    </g>
   </g>
  </g>
 </g>
</svg>