<?xml version="1.0" encoding="UTF-8" standalone="no"?>
<svg
   xmlns:ooo="http://xml.openoffice.org/svg/export"
   xmlns:dc="http://purl.org/dc/elements/1.1/"
   xmlns:cc="http://creativecommons.org/ns#"
   xmlns:rdf="http://www.w3.org/1999/02/22-rdf-syntax-ns#"
   xmlns:svg="http://www.w3.org/2000/svg"
   xmlns="http://www.w3.org/2000/svg"
   xmlns:sodipodi="http://sodipodi.sourceforge.net/DTD/sodipodi-0.dtd"
   xmlns:inkscape="http://www.inkscape.org/namespaces/inkscape"
   version="1.2"
   width="22.379999mm"
   height="25.65mm"
   viewBox="0 0 2237.9999 2565"
   preserveAspectRatio="xMidYMid"
   xml:space="preserve"
   id="svg121"
   sodipodi:docname="sktebrd1.svg"
   style="fill-rule:evenodd;stroke-width:28.22200012;stroke-linejoin:round"
   inkscape:version="0.92.5 (2060ec1f9f, 2020-04-08)"><metadata
   id="metadata125"><rdf:RDF><cc:Work
       rdf:about=""><dc:format>image/svg+xml</dc:format><dc:type
         rdf:resource="http://purl.org/dc/dcmitype/StillImage" /></cc:Work></rdf:RDF></metadata><sodipodi:namedview
   pagecolor="#ffffff"
   bordercolor="#666666"
   borderopacity="1"
   objecttolerance="10"
   gridtolerance="10"
   guidetolerance="10"
   inkscape:pageopacity="0"
   inkscape:pageshadow="2"
   inkscape:window-width="664"
   inkscape:window-height="487"
   id="namedview123"
   showgrid="false"
   inkscape:zoom="0.2102413"
   inkscape:cx="42.292914"
   inkscape:cy="48.453542"
   inkscape:window-x="0"
   inkscape:window-y="0"
   inkscape:window-maximized="0"
   inkscape:current-layer="svg121" />
 <defs
   class="ClipPathGroup"
   id="defs8">
  <clipPath
   id="presentation_clip_path"
   clipPathUnits="userSpaceOnUse">
   <rect
   x="0"
   y="0"
   width="21000"
   height="29700"
   id="rect2" />
  </clipPath>
  <clipPath
   id="presentation_clip_path_shrink"
   clipPathUnits="userSpaceOnUse">
   <rect
   x="21"
   y="29"
   width="20958"
   height="29641"
   id="rect5" />
  </clipPath>
 </defs>
 <defs
   class="TextShapeIndex"
   id="defs12">
  <g
   ooo:slide="id1"
   ooo:id-list="id3"
   id="g10" />
 </defs>
 <defs
   class="EmbeddedBulletChars"
   id="defs44">
  <g
   id="bullet-char-template-57356"
   transform="matrix(4.8828125e-4,0,0,-4.8828125e-4,0,0)">
   <path
   d="M 580,1141 1163,571 580,0 -4,571 Z"
   id="path14"
   inkscape:connector-curvature="0" />
  </g>
  <g
   id="bullet-char-template-57354"
   transform="matrix(4.8828125e-4,0,0,-4.8828125e-4,0,0)">
   <path
   d="M 8,1128 H 1137 V 0 H 8 Z"
   id="path17"
   inkscape:connector-curvature="0" />
  </g>
  <g
   id="bullet-char-template-10146"
   transform="matrix(4.8828125e-4,0,0,-4.8828125e-4,0,0)">
   <path
   d="M 174,0 602,739 174,1481 1456,739 Z M 1358,739 309,1346 659,739 Z"
   id="path20"
   inkscape:connector-curvature="0" />
  </g>
  <g
   id="bullet-char-template-10132"
   transform="matrix(4.8828125e-4,0,0,-4.8828125e-4,0,0)">
   <path
   d="M 2015,739 1276,0 H 717 l 543,543 H 174 v 393 h 1086 l -543,545 h 557 z"
   id="path23"
   inkscape:connector-curvature="0" />
  </g>
  <g
   id="bullet-char-template-10007"
   transform="matrix(4.8828125e-4,0,0,-4.8828125e-4,0,0)">
   <path
   d="m 0,-2 c -7,16 -16,29 -25,39 l 381,530 c -94,256 -141,385 -141,387 0,25 13,38 40,38 9,0 21,-2 34,-5 21,4 42,12 65,25 l 27,-13 111,-251 280,301 64,-25 24,25 c 21,-10 41,-24 62,-43 C 886,937 835,863 770,784 769,783 710,716 594,584 L 774,223 c 0,-27 -21,-55 -63,-84 l 16,-20 C 717,90 699,76 672,76 641,76 570,178 457,381 L 164,-76 c -22,-34 -53,-51 -92,-51 -42,0 -63,17 -64,51 -7,9 -10,24 -10,44 0,9 1,19 2,30 z"
   id="path26"
   inkscape:connector-curvature="0" />
  </g>
  <g
   id="bullet-char-template-10004"
   transform="matrix(4.8828125e-4,0,0,-4.8828125e-4,0,0)">
   <path
   d="M 285,-33 C 182,-33 111,30 74,156 52,228 41,333 41,471 c 0,78 14,145 41,201 34,71 87,106 158,106 53,0 88,-31 106,-94 l 23,-176 c 8,-64 28,-97 59,-98 l 735,706 c 11,11 33,17 66,17 42,0 63,-15 63,-46 V 965 c 0,-36 -10,-64 -30,-84 L 442,47 C 390,-6 338,-33 285,-33 Z"
   id="path29"
   inkscape:connector-curvature="0" />
  </g>
  <g
   id="bullet-char-template-9679"
   transform="matrix(4.8828125e-4,0,0,-4.8828125e-4,0,0)">
   <path
   d="M 813,0 C 632,0 489,54 383,161 276,268 223,411 223,592 c 0,181 53,324 160,431 106,107 249,161 430,161 179,0 323,-54 432,-161 108,-107 162,-251 162,-431 0,-180 -54,-324 -162,-431 C 1136,54 992,0 813,0 Z"
   id="path32"
   inkscape:connector-curvature="0" />
  </g>
  <g
   id="bullet-char-template-8226"
   transform="matrix(4.8828125e-4,0,0,-4.8828125e-4,0,0)">
   <path
   d="m 346,457 c -73,0 -137,26 -191,78 -54,51 -81,114 -81,188 0,73 27,136 81,188 54,52 118,78 191,78 73,0 134,-26 185,-79 51,-51 77,-114 77,-187 0,-75 -25,-137 -76,-188 -50,-52 -112,-78 -186,-78 z"
   id="path35"
   inkscape:connector-curvature="0" />
  </g>
  <g
   id="bullet-char-template-8211"
   transform="matrix(4.8828125e-4,0,0,-4.8828125e-4,0,0)">
   <path
   d="M -4,459 H 1135 V 606 H -4 Z"
   id="path38"
   inkscape:connector-curvature="0" />
  </g>
  <g
   id="bullet-char-template-61548"
   transform="matrix(4.8828125e-4,0,0,-4.8828125e-4,0,0)">
   <path
   d="m 173,740 c 0,163 58,303 173,419 116,115 255,173 419,173 163,0 302,-58 418,-173 116,-116 174,-256 174,-419 0,-163 -58,-303 -174,-418 C 1067,206 928,148 765,148 601,148 462,206 346,322 231,437 173,577 173,740 Z"
   id="path41"
   inkscape:connector-curvature="0" />
  </g>
 </defs>
 <g
   id="g49"
   transform="translate(-9381,-13567)">
  <g
   id="id2"
   class="Master_Slide">
   <g
   id="bg-id2"
   class="Background" />
   <g
   id="bo-id2"
   class="BackgroundObjects" />
  </g>
 </g>
 <g
   class="SlideGroup"
   id="g119"
   transform="translate(-9381,-13567)">
  <g
   id="g117">
   <g
   id="container-id1">
    <g
   id="id1"
   class="Slide"
   clip-path="url(#presentation_clip_path)">
     <g
   class="Page"
   id="g113">
      <g
   class="Graphic"
   id="g111">
       <g
   id="id3">
        <rect
   class="BoundingBox"
   x="9381"
   y="13567"
   width="2238"
   height="2565"
   id="rect51"
   style="fill:none;stroke:none" />
        <defs
   id="defs56">
         <clipPath
   id="clip_path_1"
   clipPathUnits="userSpaceOnUse">
          <path
   d="m 9381,13567 h 2237 v 2564 H 9381 Z"
   id="path53"
   inkscape:connector-curvature="0" />
         </clipPath>
        </defs>
        <g
   clip-path="url(#clip_path_1)"
   id="g108">
         <path
   d="m 9780,15293 -295,41 v 18 22 26 l 5,25 11,31 15,30 23,36 33,38 46,38 58,43 71,44 89,45 107,49 125,50 147,54 168,56 51,13 48,10 43,5 h 39 l 35,-3 33,-5 26,-10 23,-10 17,-13 13,-15 8,-15 5,-16 -3,-17 -7,-18 -13,-18 -18,-15 -25,-16 -31,-17 -38,-16 -43,-17 -49,-18 -53,-21 -56,-22 -61,-26 -64,-28 -66,-33 -68,-38 -69,-41 -71,-48 -69,-53 -71,-59 z"
   id="path58"
   inkscape:connector-curvature="0"
   style="fill:#ffcc00;stroke:none" />
         <path
   d="m 9549,15575 2,3 3,5 10,10 15,15 21,18 28,20 35,26 44,28 53,30 64,36 76,36 89,40 102,41 114,43 130,46 147,48 -38,-5 -46,-10 -53,-10 -59,-16 -63,-17 -66,-21 -69,-23 -71,-28 -74,-27 -71,-34 -71,-35 -72,-41 -66,-43 -63,-46 -59,-48 -53,-53 z"
   id="path60"
   inkscape:connector-curvature="0"
   style="fill:#ffcc00;stroke:none" />
         <path
   d="m 9587,15705 74,25 18,89 -79,13 -54,-71 z"
   id="path62"
   inkscape:connector-curvature="0"
   style="fill:#ff0000;stroke:none" />
         <path
   d="m 10325,16020 35,66 -53,46 -84,-41 25,-76 z"
   id="path64"
   inkscape:connector-curvature="0"
   style="fill:#ff0000;stroke:none" />
         <path
   d="m 10462,13920 13,-2 33,-5 48,-5 h 58 l 64,10 64,23 58,40 46,61 15,64 20,127 18,168 21,190 12,189 11,170 2,127 -8,66 -28,-18 -30,-20 -38,-18 -41,-18 -43,-17 -46,-16 -48,-15 -49,-15 -45,-13 -46,-10 -46,-13 -41,-7 -35,-8 -33,-5 -28,-3 -21,-2 -33,-10 -35,-28 -36,-36 -35,-46 -34,-45 -27,-49 -26,-40 -20,-33 38,-23 38,-26 38,-30 36,-31 30,-30 26,-33 18,-33 10,-33 5,-46 7,-69 13,-81 15,-87 21,-81 25,-69 31,-48 z"
   id="path66"
   inkscape:connector-curvature="0"
   style="fill:#7f0000;stroke:none" />
         <path
   d="m 10792,14081 59,-69 313,175 -56,148 -92,-77 -150,8 z"
   id="path68"
   inkscape:connector-curvature="0"
   style="fill:#ff7f00;stroke:none" />
         <path
   d="m 10439,15169 -137,12 175,407 74,-109 -38,-153 -10,-91 z"
   id="path70"
   inkscape:connector-curvature="0"
   style="fill:#ff7f00;stroke:none" />
         <path
   d="m 10408,15578 -208,142 -26,71 178,51 102,-81 94,2 18,-139 51,-214 -226,-56 z"
   id="path72"
   inkscape:connector-curvature="0"
   style="fill:#000000;stroke:none" />
         <path
   d="m 10729,14767 84,206 -455,185 -72,-10 -30,-104 30,-56 z"
   id="path74"
   inkscape:connector-curvature="0"
   style="fill:#000000;stroke:none" />
         <path
   d="m 11159,14243 196,191 -59,43 -247,-155 z"
   id="path76"
   inkscape:connector-curvature="0"
   style="fill:#ff7f00;stroke:none" />
         <path
   d="m 11370,14462 -102,96 -5,51 79,-12 2,144 46,31 15,-135 41,160 43,-5 -43,-170 79,132 48,-23 -96,-147 106,102 36,-8 -158,-186 z"
   id="path78"
   inkscape:connector-curvature="0"
   style="fill:#000000;stroke:none" />
         <path
   d="m 10391,14096 -5,-104 -377,-8 -53,127 79,-23 170,71 z"
   id="path80"
   inkscape:connector-curvature="0"
   style="fill:#ff007f;stroke:none" />
         <path
   d="m 9913,14019 -250,-2 66,66 278,48 z"
   id="path82"
   inkscape:connector-curvature="0"
   style="fill:#007fff;stroke:none" />
         <path
   d="m 9676,14093 -5,112 -23,43 -28,-73 -127,66 -48,-26 111,-76 -160,38 -15,-41 170,-40 -157,-8 v -53 l 175,15 -140,-46 -10,-35 214,53 z"
   id="path84"
   inkscape:connector-curvature="0"
   style="fill:#000000;stroke:none" />
         <path
   d="m 9999,14945 -120,43 84,163 115,12 20,-43 z"
   id="path86"
   inkscape:connector-curvature="0"
   style="fill:#000000;stroke:none" />
         <path
   d="m 10477,14647 54,181 -624,122 -66,-23 -10,-69 41,-109 z"
   id="path88"
   inkscape:connector-curvature="0"
   style="fill:#ff7f00;stroke:none" />
         <path
   d="m 10121,15382 -18,109 -104,23 -104,69 -168,-66 35,-74 206,-89 -48,-196 239,46 z"
   id="path90"
   inkscape:connector-curvature="0"
   style="fill:#007fff;stroke:none" />
         <path
   d="m 9971,14686 148,330 272,-104 -120,79 308,239 300,-339 -394,-292 z"
   id="path92"
   inkscape:connector-curvature="0"
   style="fill:#007fff;stroke:none" />
         <path
   d="m 10317,13971 191,-15 363,94 -5,38 -12,102 -18,145 -21,168 -20,167 -20,150 -13,112 -8,48 -76,3 -61,-3 -48,-12 -38,-18 -31,-20 -23,-28 -15,-28 -13,-33 -7,-31 -8,-33 -10,-30 -10,-31 -13,-25 -21,-21 -25,-15 -36,-10 3,-127 -3,-229 -2,-221 z"
   id="path94"
   inkscape:connector-curvature="0"
   style="fill:#ffcc00;stroke:none" />
         <path
   d="m 10462,13920 -244,51 h -453 l 84,270 201,-74 249,15 -5,21 -10,50 -21,72 -25,83 -33,87 -38,76 -46,59 -48,28 46,10 38,20 35,23 28,25 23,23 18,21 10,15 3,5 30,-61 28,-69 26,-71 22,-74 18,-68 13,-64 8,-53 2,-41 v -89 l 10,-114 13,-107 z"
   id="path96"
   inkscape:connector-curvature="0"
   style="fill:#e50000;stroke:none" />
         <path
   d="m 10790,13979 -3,53 -12,107 -26,142 -30,163 -36,163 -35,145 -34,109 -28,58 67,28 63,26 59,28 56,25 45,28 33,31 23,28 5,30 23,-84 10,-114 v -132 l -5,-140 -10,-132 -10,-115 -10,-86 -5,-41 28,28 38,38 41,43 40,41 38,41 31,33 23,23 7,7 191,-223 -307,-267 z"
   id="path98"
   inkscape:connector-curvature="0"
   style="fill:#e50000;stroke:none" />
         <path
   d="m 10734,13615 -160,54 -31,101 28,49 -86,183 183,106 13,-137 58,13 41,-20 35,-51 39,2 25,-104 36,-76 z"
   id="path100"
   inkscape:connector-curvature="0"
   style="fill:#000000;stroke:none" />
         <path
   d="m 10711,13758 221,53 -33,84 -7,8 -8,5 -5,-3 -3,-10 v -20 l -2,-18 -3,-13 h -7 l -8,8 -8,10 -10,13 -12,12 -13,5 -15,-2 -16,-8 -12,-12 -6,-18 v -18 l 3,-13 5,-12 v -3 l -10,-5 -10,-3 -15,-2 -16,-3 h -15 l -10,-2 h -3 z"
   id="path102"
   inkscape:connector-curvature="0"
   style="fill:#ffcc00;stroke:none" />
         <path
   d="m 10566,13648 h -13 l -22,-5 -34,-2 h -35 -36 l -30,5 -21,10 -7,15 10,18 30,15 44,10 51,6 53,5 48,2 38,-2 23,-3 5,-5 -7,-10 -15,-10 -21,-16 -20,-12 -21,-10 -15,-8 z"
   id="path104"
   inkscape:connector-curvature="0"
   style="fill:#00007f;stroke:none" />
         <path
   d="m 10922,13758 h -7 -21 -30 -38 l -44,-3 -48,-5 -51,-10 -48,-13 -31,-10 -23,-10 -15,-10 -10,-11 -8,-7 -2,-8 -3,-2 v -3 l 199,-99 132,43 2,5 11,10 10,16 12,20 11,23 7,25 v 26 z"
   id="path106"
   inkscape:connector-curvature="0"
   style="fill:#007fff;stroke:none" />
        </g>
       </g>
      </g>
     </g>
    </g>
   </g>
  </g>
 </g>
</svg>