<?xml version="1.0" encoding="UTF-8" standalone="no"?>
<svg
   xmlns:ooo="http://xml.openoffice.org/svg/export"
   xmlns:dc="http://purl.org/dc/elements/1.1/"
   xmlns:cc="http://creativecommons.org/ns#"
   xmlns:rdf="http://www.w3.org/1999/02/22-rdf-syntax-ns#"
   xmlns:svg="http://www.w3.org/2000/svg"
   xmlns="http://www.w3.org/2000/svg"
   xmlns:sodipodi="http://sodipodi.sourceforge.net/DTD/sodipodi-0.dtd"
   xmlns:inkscape="http://www.inkscape.org/namespaces/inkscape"
   version="1.2"
   width="19.15mm"
   height="17.42mm"
   viewBox="0 0 1915 1742"
   preserveAspectRatio="xMidYMid"
   xml:space="preserve"
   id="svg78"
   sodipodi:docname="snowflk8.svg"
   style="fill-rule:evenodd;stroke-width:28.22200012;stroke-linejoin:round"
   inkscape:version="0.92.5 (2060ec1f9f, 2020-04-08)"><metadata
   id="metadata82"><rdf:RDF><cc:Work
       rdf:about=""><dc:format>image/svg+xml</dc:format><dc:type
         rdf:resource="http://purl.org/dc/dcmitype/StillImage" /></cc:Work></rdf:RDF></metadata><sodipodi:namedview
   pagecolor="#ffffff"
   bordercolor="#666666"
   borderopacity="1"
   objecttolerance="10"
   gridtolerance="10"
   guidetolerance="10"
   inkscape:pageopacity="0"
   inkscape:pageshadow="2"
   inkscape:window-width="664"
   inkscape:window-height="487"
   id="namedview80"
   showgrid="false"
   inkscape:zoom="0.2102413"
   inkscape:cx="36.207875"
   inkscape:cy="32.919683"
   inkscape:window-x="0"
   inkscape:window-y="0"
   inkscape:window-maximized="0"
   inkscape:current-layer="svg78" />
 <defs
   class="ClipPathGroup"
   id="defs8">
  <clipPath
   id="presentation_clip_path"
   clipPathUnits="userSpaceOnUse">
   <rect
   x="0"
   y="0"
   width="21000"
   height="29700"
   id="rect2" />
  </clipPath>
  <clipPath
   id="presentation_clip_path_shrink"
   clipPathUnits="userSpaceOnUse">
   <rect
   x="21"
   y="29"
   width="20958"
   height="29641"
   id="rect5" />
  </clipPath>
 </defs>
 <defs
   class="TextShapeIndex"
   id="defs12">
  <g
   ooo:slide="id1"
   ooo:id-list="id3"
   id="g10" />
 </defs>
 <defs
   class="EmbeddedBulletChars"
   id="defs44">
  <g
   id="bullet-char-template-57356"
   transform="matrix(4.8828125e-4,0,0,-4.8828125e-4,0,0)">
   <path
   d="M 580,1141 1163,571 580,0 -4,571 Z"
   id="path14"
   inkscape:connector-curvature="0" />
  </g>
  <g
   id="bullet-char-template-57354"
   transform="matrix(4.8828125e-4,0,0,-4.8828125e-4,0,0)">
   <path
   d="M 8,1128 H 1137 V 0 H 8 Z"
   id="path17"
   inkscape:connector-curvature="0" />
  </g>
  <g
   id="bullet-char-template-10146"
   transform="matrix(4.8828125e-4,0,0,-4.8828125e-4,0,0)">
   <path
   d="M 174,0 602,739 174,1481 1456,739 Z M 1358,739 309,1346 659,739 Z"
   id="path20"
   inkscape:connector-curvature="0" />
  </g>
  <g
   id="bullet-char-template-10132"
   transform="matrix(4.8828125e-4,0,0,-4.8828125e-4,0,0)">
   <path
   d="M 2015,739 1276,0 H 717 l 543,543 H 174 v 393 h 1086 l -543,545 h 557 z"
   id="path23"
   inkscape:connector-curvature="0" />
  </g>
  <g
   id="bullet-char-template-10007"
   transform="matrix(4.8828125e-4,0,0,-4.8828125e-4,0,0)">
   <path
   d="m 0,-2 c -7,16 -16,29 -25,39 l 381,530 c -94,256 -141,385 -141,387 0,25 13,38 40,38 9,0 21,-2 34,-5 21,4 42,12 65,25 l 27,-13 111,-251 280,301 64,-25 24,25 c 21,-10 41,-24 62,-43 C 886,937 835,863 770,784 769,783 710,716 594,584 L 774,223 c 0,-27 -21,-55 -63,-84 l 16,-20 C 717,90 699,76 672,76 641,76 570,178 457,381 L 164,-76 c -22,-34 -53,-51 -92,-51 -42,0 -63,17 -64,51 -7,9 -10,24 -10,44 0,9 1,19 2,30 z"
   id="path26"
   inkscape:connector-curvature="0" />
  </g>
  <g
   id="bullet-char-template-10004"
   transform="matrix(4.8828125e-4,0,0,-4.8828125e-4,0,0)">
   <path
   d="M 285,-33 C 182,-33 111,30 74,156 52,228 41,333 41,471 c 0,78 14,145 41,201 34,71 87,106 158,106 53,0 88,-31 106,-94 l 23,-176 c 8,-64 28,-97 59,-98 l 735,706 c 11,11 33,17 66,17 42,0 63,-15 63,-46 V 965 c 0,-36 -10,-64 -30,-84 L 442,47 C 390,-6 338,-33 285,-33 Z"
   id="path29"
   inkscape:connector-curvature="0" />
  </g>
  <g
   id="bullet-char-template-9679"
   transform="matrix(4.8828125e-4,0,0,-4.8828125e-4,0,0)">
   <path
   d="M 813,0 C 632,0 489,54 383,161 276,268 223,411 223,592 c 0,181 53,324 160,431 106,107 249,161 430,161 179,0 323,-54 432,-161 108,-107 162,-251 162,-431 0,-180 -54,-324 -162,-431 C 1136,54 992,0 813,0 Z"
   id="path32"
   inkscape:connector-curvature="0" />
  </g>
  <g
   id="bullet-char-template-8226"
   transform="matrix(4.8828125e-4,0,0,-4.8828125e-4,0,0)">
   <path
   d="m 346,457 c -73,0 -137,26 -191,78 -54,51 -81,114 -81,188 0,73 27,136 81,188 54,52 118,78 191,78 73,0 134,-26 185,-79 51,-51 77,-114 77,-187 0,-75 -25,-137 -76,-188 -50,-52 -112,-78 -186,-78 z"
   id="path35"
   inkscape:connector-curvature="0" />
  </g>
  <g
   id="bullet-char-template-8211"
   transform="matrix(4.8828125e-4,0,0,-4.8828125e-4,0,0)">
   <path
   d="M -4,459 H 1135 V 606 H -4 Z"
   id="path38"
   inkscape:connector-curvature="0" />
  </g>
  <g
   id="bullet-char-template-61548"
   transform="matrix(4.8828125e-4,0,0,-4.8828125e-4,0,0)">
   <path
   d="m 173,740 c 0,163 58,303 173,419 116,115 255,173 419,173 163,0 302,-58 418,-173 116,-116 174,-256 174,-419 0,-163 -58,-303 -174,-418 C 1067,206 928,148 765,148 601,148 462,206 346,322 231,437 173,577 173,740 Z"
   id="path41"
   inkscape:connector-curvature="0" />
  </g>
 </defs>
 <g
   id="g49"
   transform="translate(-9542,-13979)">
  <g
   id="id2"
   class="Master_Slide">
   <g
   id="bg-id2"
   class="Background" />
   <g
   id="bo-id2"
   class="BackgroundObjects" />
  </g>
 </g>
 <g
   class="SlideGroup"
   id="g76"
   transform="translate(-9542,-13979)">
  <g
   id="g74">
   <g
   id="container-id1">
    <g
   id="id1"
   class="Slide"
   clip-path="url(#presentation_clip_path)">
     <g
   class="Page"
   id="g70">
      <g
   class="Graphic"
   id="g68">
       <g
   id="id3">
        <rect
   class="BoundingBox"
   x="9542"
   y="13979"
   width="1915"
   height="1742"
   id="rect51"
   style="fill:none;stroke:none" />
        <path
   d="m 10781,14889 h 7 20 28 34 l 33,3 h 33 28 17 13 l 10,3 13,5 10,5 10,5 8,10 8,8 5,10 7,23 8,23 8,15 2,7 -10,18 -20,38 -18,44 7,25 23,-3 23,-20 16,-25 7,-10 3,5 5,17 7,23 11,26 12,25 13,23 13,13 15,2 10,-10 v -18 l -5,-25 -10,-26 -13,-25 -10,-23 -10,-15 -3,-5 h 3 l 10,2 13,3 18,2 h 15 15 l 13,-2 7,-8 v -10 l -7,-10 -16,-10 -17,-10 -23,-8 -21,-10 -20,-5 -15,-5 -13,-23 -10,-31 -3,-25 13,-15 10,-3 10,-3 11,-5 h 10 l 23,3 25,2 h 18 8 l 2,6 10,12 10,15 16,18 18,18 15,15 12,8 13,-3 8,-22 -10,-28 -16,-26 -7,-10 h 7 l 16,3 25,2 h 28 28 l 25,-5 18,-5 8,-13 -5,-13 -15,-7 -26,-3 -28,-2 -28,2 h -23 l -18,3 h -7 l 7,-10 18,-28 13,-31 -3,-23 -10,-2 -12,2 -16,10 -17,13 -16,15 -18,18 -12,13 -10,13 -13,2 h -15 -18 l -15,-2 -16,-3 -10,-5 -5,-8 v -10 l 3,-10 5,-10 2,-10 5,-8 16,-18 15,-20 10,-15 5,-5 h 5 15 21 25 l 23,-3 20,-5 16,-10 5,-10 -3,-11 -10,-7 -13,-8 -15,-2 -18,-3 h -12 -11 -2 l 5,-5 10,-13 15,-18 18,-22 15,-23 13,-23 5,-18 -5,-13 -13,-2 -15,7 -18,18 -17,23 -16,23 -12,20 -11,16 -2,5 -5,-13 -10,-28 -18,-28 -21,-13 -12,18 v 41 l 5,46 7,35 -7,13 -8,18 -13,20 -12,20 -15,18 -18,15 -18,11 -18,5 -30,2 -39,3 -43,2 -46,5 -45,3 -39,2 -33,3 -20,3 z"
   id="path53"
   inkscape:connector-curvature="0"
   style="fill:#89b5d3;stroke:none" />
        <path
   d="m 10671,14638 5,-5 10,-18 16,-23 17,-28 21,-31 18,-25 15,-23 10,-15 8,-10 7,-8 10,-8 13,-5 10,-5 11,-2 12,-3 10,3 23,5 23,5 18,2 8,3 2,5 5,13 10,20 13,20 13,21 15,15 13,10 h 13 l 10,-20 -3,-31 -13,-28 -5,-10 5,3 18,2 23,8 28,5 28,3 h 26 l 17,-6 11,-10 -3,-12 -15,-11 -23,-7 -28,-5 -28,-3 -26,-2 -15,-3 h -7 l 10,-10 18,-23 17,-28 3,-23 -8,-5 -12,3 -18,5 -18,10 -20,13 -18,12 -18,13 -13,10 h -12 -16 l -15,-2 -15,-5 -13,-6 -10,-7 -5,-8 v -10 l 2,-10 3,-10 5,-13 5,-8 15,-17 13,-21 10,-15 5,-5 h 5 16 l 20,-3 25,-2 23,-3 21,-5 12,-10 5,-10 -5,-10 -10,-11 -13,-5 -15,-2 h -15 -13 -10 -2 l 5,-5 10,-13 15,-18 15,-23 16,-25 10,-20 2,-21 -5,-13 -13,-2 -15,10 -18,18 -15,23 -15,23 -13,23 -7,15 -3,5 -5,-13 -13,-28 -18,-28 -20,-10 -13,18 v 38 l 8,46 10,35 -13,26 -20,25 -20,18 -18,-5 -5,-8 -8,-10 -5,-10 -5,-8 -8,-23 -7,-22 -8,-16 -2,-7 2,-5 10,-13 11,-18 12,-20 10,-21 8,-20 3,-18 -8,-10 h -23 l -23,20 -18,23 -7,10 -5,-22 -16,-51 -22,-46 -28,-18 -11,28 13,48 20,49 11,23 h -3 l -10,-3 -13,-2 -18,-3 -15,-3 h -15 l -13,3 -8,8 v 10 l 8,10 13,13 18,10 20,10 23,10 18,8 15,5 18,30 20,44 10,45 -7,39 -16,25 -17,31 -21,35 -20,38 -23,38 -18,34 -15,28 -10,17 z"
   id="path55"
   inkscape:connector-curvature="0"
   style="fill:#89b5d3;stroke:none" />
        <path
   d="m 10402,14589 -3,-7 -10,-18 -13,-26 -15,-27 -15,-34 -13,-28 -13,-25 -7,-15 -8,-23 -3,-26 3,-22 13,-18 15,-18 18,-18 10,-15 5,-5 h 5 l 15,2 h 21 25 l 26,-2 20,-3 15,-7 5,-11 -2,-12 -10,-8 -13,-7 -15,-3 -18,-3 -13,-2 h -10 -3 l 5,-5 13,-13 15,-18 21,-20 15,-23 13,-20 7,-21 -5,-12 -12,-3 -18,8 -18,18 -18,20 -18,20 -15,21 -10,15 -3,5 -2,-13 -10,-28 -16,-28 -20,-12 -13,15 -2,40 5,46 5,36 -8,10 -7,13 -11,12 -10,11 -12,7 -11,5 -10,3 -10,-5 -8,-8 -7,-7 -5,-11 -5,-7 -11,-21 -7,-22 -10,-16 -3,-7 10,-18 18,-41 13,-43 -8,-26 -23,3 -20,23 -18,23 -5,12 -2,-5 -6,-17 -10,-21 -10,-25 -15,-26 -13,-20 -15,-13 -15,-2 -8,10 v 18 l 8,23 12,25 13,26 13,20 10,15 2,5 h -2 l -10,-2 h -16 -15 -18 l -15,2 -13,5 -7,8 v 10 l 10,10 15,8 21,10 22,8 21,5 20,7 15,3 16,25 12,28 6,26 -13,13 -10,2 -11,3 h -12 -10 l -23,-5 -23,-6 -18,-2 -8,-3 -2,-5 -8,-12 -10,-21 -10,-20 -15,-18 -13,-18 -13,-7 h -13 l -10,20 5,30 11,28 5,11 -5,-3 -18,-2 -23,-8 -28,-5 -28,-3 h -26 l -17,5 -11,11 3,12 15,10 23,8 28,5 28,5 h 26 l 15,3 h 7 l -10,10 -18,23 -17,28 v 23 l 7,5 13,-3 18,-7 18,-11 20,-12 18,-13 15,-13 13,-10 h 15 18 25 l 23,3 26,5 20,10 18,10 12,15 16,23 15,28 20,33 21,33 17,31 18,30 15,23 11,18 z"
   id="path57"
   inkscape:connector-curvature="0"
   style="fill:#89b5d3;stroke:none" />
        <path
   d="m 10218,14849 h -20 -28 -35 -41 l -43,-3 h -39 -35 l -28,3 -18,5 -18,13 -15,15 -15,20 -13,20 -13,21 -7,18 -5,12 10,36 7,43 v 38 l -12,18 -21,-10 -17,-28 -13,-25 -5,-13 -3,5 -7,15 -13,23 -15,23 -16,20 -17,18 -16,10 -12,-2 -5,-13 2,-18 13,-23 15,-23 15,-22 16,-18 10,-13 5,-5 h -3 -10 -13 -17 l -16,-3 -12,-5 -11,-10 -5,-10 5,-10 13,-10 20,-5 23,-3 26,-3 20,-2 h 15 5 l 6,-5 10,-15 12,-21 16,-18 5,-7 5,-13 2,-10 3,-10 v -10 l -8,-6 -10,-5 -15,-2 -15,-3 h -16 l -15,3 -13,2 -10,13 -15,15 -15,18 -16,15 -17,16 -16,10 -12,2 -8,-2 -2,-23 10,-31 15,-28 8,-10 h -8 l -15,3 -26,2 -28,3 -28,-3 -23,-2 -17,-5 -5,-13 7,-13 18,-7 23,-5 28,-3 h 28 25 l 16,3 h 7 l -7,-11 -18,-22 -10,-28 7,-23 13,-3 13,5 17,13 18,18 15,18 13,17 10,11 3,5 h 8 17 23 26 10 l 10,-3 10,-5 10,-3 10,-15 -2,-25 -13,-31 -15,-23 -15,-5 -21,-5 -20,-7 -20,-8 -21,-8 -15,-10 -10,-10 v -10 l 8,-8 12,-5 16,-2 h 17 l 16,2 h 15 l 10,3 h 3 l -3,-5 -10,-16 -13,-20 -13,-26 -12,-25 -5,-23 v -18 l 7,-10 h 13 l 15,13 15,20 13,26 10,25 11,23 5,18 2,5 5,-13 18,-23 20,-23 23,-2 8,25 -13,44 -20,40 -10,18 2,8 10,15 8,23 10,23 5,10 8,7 8,8 12,5 10,5 13,5 10,3 h 13 18 25 l 33,-3 36,-2 h 33 l 28,-3 h 20 8 z"
   id="path59"
   inkscape:connector-curvature="0"
   style="fill:#89b5d3;stroke:none" />
        <path
   d="m 10295,15062 -3,5 -10,18 -15,26 -18,28 -18,30 -18,28 -12,23 -10,15 -8,10 -8,8 -10,8 -10,7 -10,5 -10,3 -13,3 -10,-3 -23,-3 -26,-5 -17,-2 h -8 l -3,-5 -7,-13 -10,-20 -13,-21 -13,-18 -15,-17 -13,-8 h -13 l -10,23 8,28 10,28 8,10 -5,-2 -18,-3 -26,-5 -25,-5 -28,-3 -25,3 -21,5 -7,10 2,13 15,10 23,5 28,5 28,3 26,2 h 15 8 l -8,10 -20,26 -16,28 v 23 l 8,5 13,-3 17,-7 18,-11 18,-15 18,-13 15,-15 13,-10 h 13 15 l 15,3 15,2 13,5 10,8 8,7 v 11 l -3,10 -2,10 -5,13 -3,7 -13,21 -15,17 -7,18 -6,5 h -5 l -15,3 h -20 l -26,5 -23,5 -20,8 -13,7 -5,13 5,10 11,8 15,2 15,3 h 15 16 l 10,-3 h 2 l -5,5 -10,13 -13,21 -15,25 -15,23 -10,23 -3,20 8,13 12,2 16,-10 15,-20 15,-23 13,-23 13,-23 7,-15 3,-5 5,13 15,25 18,25 20,11 13,-18 -3,-41 -12,-43 -10,-36 12,-25 18,-28 20,-15 18,2 8,8 8,10 5,10 5,8 7,23 10,22 8,16 3,7 -11,18 -22,38 -16,44 5,25 23,-3 23,-20 15,-23 8,-10 3,5 5,18 7,23 11,25 12,26 13,20 13,13 15,2 8,-10 v -18 l -6,-23 -10,-25 -10,-25 -13,-23 -7,-16 -3,-5 h 3 l 10,3 13,2 17,3 h 16 15 l 13,-5 7,-8 v -10 l -7,-10 -13,-10 -20,-10 -21,-11 -20,-7 -20,-5 -16,-5 -20,-31 -20,-41 -13,-48 5,-38 13,-26 18,-30 17,-36 21,-38 20,-35 18,-31 15,-28 8,-18 z"
   id="path61"
   inkscape:connector-curvature="0"
   style="fill:#89b5d3;stroke:none" />
        <path
   d="m 10580,15100 2,8 10,15 13,26 18,28 15,30 18,28 13,23 7,15 10,23 3,26 -5,23 -10,20 -16,18 -15,18 -10,17 -5,5 h -5 -15 -21 -23 l -23,3 -20,5 -15,10 -5,10 5,11 10,7 13,5 15,3 18,2 h 13 10 2 l -5,5 -10,13 -18,18 -15,23 -18,23 -10,23 -5,20 5,13 13,2 15,-10 15,-15 18,-23 15,-23 13,-20 10,-16 3,-5 5,13 10,28 18,28 20,10 13,-18 v -38 l -5,-46 -8,-35 13,-23 20,-25 20,-16 21,3 7,7 8,8 8,8 5,7 10,23 13,21 10,15 2,7 -10,18 -15,44 -13,43 10,25 23,-5 21,-23 12,-25 5,-13 3,5 8,18 10,20 13,26 15,25 15,18 15,13 h 16 l 7,-10 -2,-18 -8,-23 -13,-26 -15,-22 -13,-21 -10,-15 -5,-5 h 3 10 l 15,2 h 15 l 18,-2 15,-3 13,-5 5,-7 v -11 l -10,-7 -15,-10 -21,-8 -22,-8 -21,-5 -20,-5 -15,-2 -18,-23 -13,-28 -5,-26 10,-15 10,-2 13,-3 h 10 10 l 23,3 23,5 18,2 h 8 l 2,5 8,13 10,18 15,20 13,20 15,16 15,7 h 13 l 10,-23 -7,-30 -13,-26 -8,-10 5,3 18,2 26,5 25,3 28,3 25,-3 21,-5 7,-10 -5,-13 -15,-10 -23,-5 -28,-5 -28,-3 h -25 -15 -8 l 10,-10 18,-25 15,-28 v -23 l -7,-5 -13,2 -18,8 -18,13 -18,12 -17,15 -16,13 -12,10 -16,3 h -17 -26 -23 l -25,-5 -21,-8 -17,-7 -13,-16 -15,-23 -18,-30 -20,-33 -21,-36 -18,-33 -17,-30 -13,-26 -10,-15 z"
   id="path63"
   inkscape:connector-curvature="0"
   style="fill:#89b5d3;stroke:none" />
        <path
   d="m 10295,15062 -15,8 -13,8 -15,10 -16,10 -12,8 -13,10 -10,7 -10,5 -11,6 h -15 -15 l -15,-6 -11,-7 -7,-13 2,-15 13,-18 h -20 l -21,-5 -12,-8 -11,-12 -2,-13 2,-13 11,-15 17,-13 -30,-18 -8,-22 16,-21 30,-18 15,-7 18,-10 15,-8 18,-10 13,-10 15,-8 10,-8 10,-7 -2,-87 -15,-7 -16,-8 -15,-8 -15,-7 -15,-5 -16,-5 -12,-6 -11,-5 -17,-20 -13,-28 8,-25 35,-5 -10,-18 -8,-18 v -18 l 5,-13 11,-10 12,-7 h 18 l 23,7 -2,-20 2,-15 8,-13 7,-8 13,-2 13,2 15,8 15,13 13,12 15,11 16,12 17,10 16,11 12,10 13,7 8,8 56,-13 2,-33 v -35 l -2,-31 v -25 l 2,-13 8,-13 7,-12 13,-11 13,-5 13,3 10,10 10,20 13,-17 12,-13 16,-8 15,-2 13,5 10,10 7,15 3,23 30,-15 21,5 10,20 v 38 l -3,33 -2,28 -3,26 -2,25 53,21 15,-8 16,-8 15,-7 15,-10 13,-8 13,-8 12,-7 11,-8 10,-2 h 15 15 l 13,7 13,8 2,10 -2,15 -13,18 23,3 18,5 12,10 11,10 2,15 -2,16 -13,12 -18,15 28,21 8,18 -16,20 -30,20 -15,8 -16,5 -15,8 -13,7 -12,5 -13,5 -10,3 -8,3 26,50 12,11 15,7 16,8 15,7 13,6 15,7 13,5 10,5 18,18 10,31 -8,23 -35,5 10,17 5,18 v 18 l -5,13 -10,10 -16,5 -17,-3 -23,-7 2,20 -2,18 -8,10 -8,8 -12,2 -13,-2 -15,-10 -16,-13 -12,-10 -13,-10 -15,-8 -15,-5 -16,-8 -12,-5 -11,-5 -7,-5 -66,30 -3,34 3,33 5,33 2,25 -2,10 -5,13 -11,13 -10,10 -12,8 -13,-3 -13,-8 -10,-20 -10,20 -13,13 -15,8 -13,2 -15,-2 -10,-10 -11,-16 -2,-23 -18,11 -15,5 h -13 l -10,-5 -8,-8 -5,-13 v -15 l 3,-20 5,-31 -5,-30 -5,-23 v -21 z"
   id="path65"
   inkscape:connector-curvature="0"
   style="fill:#89b5d3;stroke:none" />
       </g>
      </g>
     </g>
    </g>
   </g>
  </g>
 </g>
</svg>