<?xml version="1.0" encoding="UTF-8" standalone="no"?>
<svg
   xmlns:ooo="http://xml.openoffice.org/svg/export"
   xmlns:dc="http://purl.org/dc/elements/1.1/"
   xmlns:cc="http://creativecommons.org/ns#"
   xmlns:rdf="http://www.w3.org/1999/02/22-rdf-syntax-ns#"
   xmlns:svg="http://www.w3.org/2000/svg"
   xmlns="http://www.w3.org/2000/svg"
   xmlns:sodipodi="http://sodipodi.sourceforge.net/DTD/sodipodi-0.dtd"
   xmlns:inkscape="http://www.inkscape.org/namespaces/inkscape"
   version="1.2"
   width="29.459999mm"
   height="29.639999mm"
   viewBox="0 0 2945.9999 2963.9999"
   preserveAspectRatio="xMidYMid"
   xml:space="preserve"
   id="svg163"
   sodipodi:docname="spring.svg"
   style="fill-rule:evenodd;stroke-width:28.22200012;stroke-linejoin:round"
   inkscape:version="0.92.5 (2060ec1f9f, 2020-04-08)"><metadata
   id="metadata167"><rdf:RDF><cc:Work
       rdf:about=""><dc:format>image/svg+xml</dc:format><dc:type
         rdf:resource="http://purl.org/dc/dcmitype/StillImage" /></cc:Work></rdf:RDF></metadata><sodipodi:namedview
   pagecolor="#ffffff"
   bordercolor="#666666"
   borderopacity="1"
   objecttolerance="10"
   gridtolerance="10"
   guidetolerance="10"
   inkscape:pageopacity="0"
   inkscape:pageshadow="2"
   inkscape:window-width="664"
   inkscape:window-height="487"
   id="namedview165"
   showgrid="false"
   inkscape:zoom="0.2102413"
   inkscape:cx="55.672442"
   inkscape:cy="56.012597"
   inkscape:window-x="0"
   inkscape:window-y="0"
   inkscape:window-maximized="0"
   inkscape:current-layer="svg163" />
 <defs
   class="ClipPathGroup"
   id="defs8">
  <clipPath
   id="presentation_clip_path"
   clipPathUnits="userSpaceOnUse">
   <rect
   x="0"
   y="0"
   width="21000"
   height="29700"
   id="rect2" />
  </clipPath>
  <clipPath
   id="presentation_clip_path_shrink"
   clipPathUnits="userSpaceOnUse">
   <rect
   x="21"
   y="29"
   width="20958"
   height="29641"
   id="rect5" />
  </clipPath>
 </defs>
 <defs
   class="TextShapeIndex"
   id="defs12">
  <g
   ooo:slide="id1"
   ooo:id-list="id3"
   id="g10" />
 </defs>
 <defs
   class="EmbeddedBulletChars"
   id="defs44">
  <g
   id="bullet-char-template-57356"
   transform="matrix(4.8828125e-4,0,0,-4.8828125e-4,0,0)">
   <path
   d="M 580,1141 1163,571 580,0 -4,571 Z"
   id="path14"
   inkscape:connector-curvature="0" />
  </g>
  <g
   id="bullet-char-template-57354"
   transform="matrix(4.8828125e-4,0,0,-4.8828125e-4,0,0)">
   <path
   d="M 8,1128 H 1137 V 0 H 8 Z"
   id="path17"
   inkscape:connector-curvature="0" />
  </g>
  <g
   id="bullet-char-template-10146"
   transform="matrix(4.8828125e-4,0,0,-4.8828125e-4,0,0)">
   <path
   d="M 174,0 602,739 174,1481 1456,739 Z M 1358,739 309,1346 659,739 Z"
   id="path20"
   inkscape:connector-curvature="0" />
  </g>
  <g
   id="bullet-char-template-10132"
   transform="matrix(4.8828125e-4,0,0,-4.8828125e-4,0,0)">
   <path
   d="M 2015,739 1276,0 H 717 l 543,543 H 174 v 393 h 1086 l -543,545 h 557 z"
   id="path23"
   inkscape:connector-curvature="0" />
  </g>
  <g
   id="bullet-char-template-10007"
   transform="matrix(4.8828125e-4,0,0,-4.8828125e-4,0,0)">
   <path
   d="m 0,-2 c -7,16 -16,29 -25,39 l 381,530 c -94,256 -141,385 -141,387 0,25 13,38 40,38 9,0 21,-2 34,-5 21,4 42,12 65,25 l 27,-13 111,-251 280,301 64,-25 24,25 c 21,-10 41,-24 62,-43 C 886,937 835,863 770,784 769,783 710,716 594,584 L 774,223 c 0,-27 -21,-55 -63,-84 l 16,-20 C 717,90 699,76 672,76 641,76 570,178 457,381 L 164,-76 c -22,-34 -53,-51 -92,-51 -42,0 -63,17 -64,51 -7,9 -10,24 -10,44 0,9 1,19 2,30 z"
   id="path26"
   inkscape:connector-curvature="0" />
  </g>
  <g
   id="bullet-char-template-10004"
   transform="matrix(4.8828125e-4,0,0,-4.8828125e-4,0,0)">
   <path
   d="M 285,-33 C 182,-33 111,30 74,156 52,228 41,333 41,471 c 0,78 14,145 41,201 34,71 87,106 158,106 53,0 88,-31 106,-94 l 23,-176 c 8,-64 28,-97 59,-98 l 735,706 c 11,11 33,17 66,17 42,0 63,-15 63,-46 V 965 c 0,-36 -10,-64 -30,-84 L 442,47 C 390,-6 338,-33 285,-33 Z"
   id="path29"
   inkscape:connector-curvature="0" />
  </g>
  <g
   id="bullet-char-template-9679"
   transform="matrix(4.8828125e-4,0,0,-4.8828125e-4,0,0)">
   <path
   d="M 813,0 C 632,0 489,54 383,161 276,268 223,411 223,592 c 0,181 53,324 160,431 106,107 249,161 430,161 179,0 323,-54 432,-161 108,-107 162,-251 162,-431 0,-180 -54,-324 -162,-431 C 1136,54 992,0 813,0 Z"
   id="path32"
   inkscape:connector-curvature="0" />
  </g>
  <g
   id="bullet-char-template-8226"
   transform="matrix(4.8828125e-4,0,0,-4.8828125e-4,0,0)">
   <path
   d="m 346,457 c -73,0 -137,26 -191,78 -54,51 -81,114 -81,188 0,73 27,136 81,188 54,52 118,78 191,78 73,0 134,-26 185,-79 51,-51 77,-114 77,-187 0,-75 -25,-137 -76,-188 -50,-52 -112,-78 -186,-78 z"
   id="path35"
   inkscape:connector-curvature="0" />
  </g>
  <g
   id="bullet-char-template-8211"
   transform="matrix(4.8828125e-4,0,0,-4.8828125e-4,0,0)">
   <path
   d="M -4,459 H 1135 V 606 H -4 Z"
   id="path38"
   inkscape:connector-curvature="0" />
  </g>
  <g
   id="bullet-char-template-61548"
   transform="matrix(4.8828125e-4,0,0,-4.8828125e-4,0,0)">
   <path
   d="m 173,740 c 0,163 58,303 173,419 116,115 255,173 419,173 163,0 302,-58 418,-173 116,-116 174,-256 174,-419 0,-163 -58,-303 -174,-418 C 1067,206 928,148 765,148 601,148 462,206 346,322 231,437 173,577 173,740 Z"
   id="path41"
   inkscape:connector-curvature="0" />
  </g>
 </defs>
 <g
   id="g49"
   transform="translate(-9027,-13368)">
  <g
   id="id2"
   class="Master_Slide">
   <g
   id="bg-id2"
   class="Background" />
   <g
   id="bo-id2"
   class="BackgroundObjects" />
  </g>
 </g>
 <g
   class="SlideGroup"
   id="g161"
   transform="translate(-9027,-13368)">
  <g
   id="g159">
   <g
   id="container-id1">
    <g
   id="id1"
   class="Slide"
   clip-path="url(#presentation_clip_path)">
     <g
   class="Page"
   id="g155">
      <g
   class="Graphic"
   id="g153">
       <g
   id="id3">
        <rect
   class="BoundingBox"
   x="9027"
   y="13368"
   width="2946"
   height="2964"
   id="rect51"
   style="fill:none;stroke:none" />
        <defs
   id="defs56">
         <clipPath
   id="clip_path_1"
   clipPathUnits="userSpaceOnUse">
          <path
   d="m 9027,13368 h 2945 v 2963 H 9027 Z"
   id="path53"
   inkscape:connector-curvature="0" />
         </clipPath>
        </defs>
        <g
   clip-path="url(#clip_path_1)"
   id="g150">
         <path
   d="m 11818,16332 20,-5 18,-10 13,-16 5,-17 v -2870 l -5,-18 -13,-15 -18,-10 -20,-3 H 9083 l -20,3 -18,10 -13,15 -5,18 v 2870 l 5,17 13,16 18,10 20,5 z"
   id="path58"
   inkscape:connector-curvature="0"
   style="fill:#ffffff;stroke:none" />
         <path
   d="m 10547,16228 h 51 l 58,-3 h 66 72 l 76,-2 h 79 78 l 79,-3 h 76 l 74,-2 h 69 61 l 56,-3 h 46 33 22 -40 l -41,-2 h -43 l -38,-3 -41,-3 -38,-2 -38,-3 -36,-2 -35,-3 -31,-2 -30,-3 h -26 l -25,-2 -21,-3 h -17 -13 l 18,-2 h 25 l 31,-3 h 33 38 l 38,-3 h 43 43 44 43 41 40 36 30 28 23 l -28,-5 -30,-5 -36,-2 -36,-5 -38,-5 -38,-5 -38,-6 -41,-5 -38,-5 -35,-5 -33,-5 -31,-2 -28,-6 -23,-2 -17,-3 -13,-2 h 30 38 41 46 51 l 51,2 h 50 54 51 48 l 46,3 h 43 35 33 23 18 l -41,-5 -40,-5 -46,-5 -48,-5 -49,-5 -48,-6 -46,-5 -48,-5 -46,-5 -40,-5 -41,-2 -36,-6 -30,-2 h -25 l -18,-3 h -13 36 40 41 43 l 43,-2 h 44 43 l 43,-3 h 41 38 35 l 31,-2 h 28 23 18 12 l -28,-5 -30,-3 -33,-5 -38,-5 -39,-3 -38,-5 -40,-5 -41,-5 -38,-2 -38,-5 -33,-3 -33,-5 -28,-3 -26,-2 -20,-3 -13,-2 33,-3 38,-2 39,-3 40,-2 h 43 l 44,-3 h 43 41 40 l 41,-3 h 35 33 28 26 20 13 l -23,-2 -28,-3 -33,-5 -33,-2 -38,-3 -38,-2 -41,-3 -38,-2 -38,-3 -38,-2 -36,-3 -33,-3 -28,-2 h -23 l -20,-3 h -13 l 18,-2 h 20 28 l 33,-3 h 36 35 41 l 41,-2 h 38 38 36 35 l 28,-3 h 26 20 l 13,-2 -18,-3 -23,-2 -28,-6 -30,-2 -34,-3 -35,-5 -36,-2 -38,-3 -35,-2 -36,-5 -31,-3 -30,-2 -25,-3 -23,-3 h -16 l -10,-2 28,-3 h 31 l 33,-2 35,-3 36,-5 38,-2 38,-5 38,-3 36,-3 36,-5 30,-2 31,-5 22,-3 21,-2 h 15 l 10,-3 -15,-2 -20,-3 h -26 l -28,-2 h -30 l -36,-3 h -33 l -36,-3 h -35 l -33,-2 h -33 l -31,-3 -25,-2 -23,-3 -18,-2 -13,-3 h 16 l 20,-2 25,-3 31,-2 h 33 l 36,-3 35,-3 38,-2 38,-3 36,-2 33,-3 31,-2 h 28 l 22,-3 h 18 10 l -38,-10 -48,-8 -56,-10 -58,-7 -59,-8 -53,-8 -43,-10 -34,-7 h 36 l 43,-6 49,-5 50,-7 49,-8 40,-7 36,-3 25,-3 -25,-5 -36,-5 -43,-2 -46,-5 -48,-3 -43,-5 -36,-3 -25,-5 28,-2 41,-3 48,-5 53,-2 56,-3 54,-2 43,-3 33,-2 -33,-6 -46,-7 -53,-8 -56,-7 -54,-8 -51,-8 -40,-5 -26,-2 39,-5 50,-5 59,-6 61,-7 58,-5 54,-8 38,-2 23,-3 -31,-5 -41,-5 -48,-3 -51,-2 h -48 -43 l -31,-3 -17,-2 h 28 l 40,-3 48,-5 54,-2 51,-3 45,-5 36,-3 h 18 l -41,-10 -48,-7 -51,-6 -53,-5 -51,-5 -41,-5 -33,-5 -15,-5 h 41 48 l 56,-3 h 53 l 53,-2 44,-3 h 33 l 20,-2 -33,-5 -41,-5 -45,-5 -46,-8 -46,-5 -38,-5 -31,-5 -17,-5 33,-3 40,-5 46,-5 48,-5 46,-5 38,-5 31,-3 20,-2 -20,-3 -36,-5 -46,-3 -50,-2 -51,-5 -43,-3 -36,-2 -20,-3 25,-5 38,-5 51,-3 53,-5 51,-2 49,-5 35,-3 18,-5 -23,-2 -41,-3 -53,-5 -56,-5 -56,-5 -46,-5 -33,-5 h -12 l 20,-3 38,-2 48,-3 59,-5 56,-3 48,-2 36,-3 17,-2 -20,-10 -30,-11 -33,-10 -39,-10 -35,-8 -33,-10 -26,-5 -15,-7 23,-5 31,-8 30,-3 36,-5 30,-2 28,-3 23,-2 15,-3 -20,-5 -31,-8 -38,-10 -43,-10 -43,-13 -43,-10 -36,-7 -28,-8 41,-3 40,-2 44,-5 43,-3 38,-2 36,-5 25,-3 20,-3 -35,-5 -38,-5 -39,-5 -40,-5 -36,-5 -30,-5 -26,-5 -15,-3 43,-5 43,-7 41,-5 41,-6 33,-2 30,-5 21,-3 h 15 l -38,-5 -43,-10 -41,-10 -41,-10 -35,-8 -33,-10 -23,-5 -15,-3 27,-5 39,-5 48,-5 51,-2 51,-6 48,-2 35,-5 26,-5 v 630 l -46,-89 -2,155 h -87 l 102,76 -66,41 81,107 -150,-81 150,183 -252,-26 244,115 -236,109 262,-8 v 209 l -5,17 -13,16 -18,10 -20,5 h -104 l 114,-208 -244,175 41,-76 -176,89 -53,-61 -81,48 -224,-20 86,53 h -383 l 147,-61 -346,41 -51,-41 v -8 l 3,-12 v -13 z"
   id="path60"
   inkscape:connector-curvature="0"
   style="fill:#000000;stroke:none" />
         <path
   d="m 10547,16228 h -18 l -15,2 h -15 -10 -13 -8 -5 -5 -20 -38 l -54,-2 h -68 -79 l -87,-3 h -91 l -97,-2 -96,-3 h -94 l -89,-2 h -82 -73 l -61,-3 h -46 -28 41 l 43,-2 43,-3 41,-3 40,-2 41,-3 38,-5 38,-2 36,-3 33,-5 30,-2 28,-3 26,-3 h 23 l 17,-2 h 13 l -18,-3 h -25 -31 l -35,-2 h -38 l -43,2 h -44 -43 -46 l -45,3 h -44 -38 l -38,2 h -33 -28 -23 l 28,-5 33,-2 36,-5 40,-3 41,-5 41,-2 43,-3 41,-2 40,-6 41,-2 36,-3 33,-2 30,-3 h 23 l 20,-2 13,-3 h -76 -74 l -66,-2 h -64 -55 l -54,-3 h -48 l -43,-2 -41,-3 h -36 l -33,-3 h -28 -22 l -21,-2 h -18 -15 l 41,-5 48,-5 51,-3 53,-5 56,-5 59,-2 58,-6 59,-2 56,-5 53,-3 48,-2 h 43 l 39,-3 30,-2 h 26 12 l -63,-3 -64,-2 h -61 l -56,-3 -56,-3 -53,-2 h -51 l -46,-3 -43,-2 h -41 l -33,-3 h -33 l -25,-2 h -20 -18 -10 l 28,-5 35,-3 41,-5 43,-5 48,-3 49,-5 50,-5 51,-5 51,-2 48,-5 46,-3 41,-5 35,-3 31,-2 23,-3 15,-2 -35,-3 -41,-2 -46,-3 -48,-2 h -51 l -53,-3 h -54 -53 -54 l -48,-3 h -46 -43 -35 -31 -23 -15 l 25,-2 33,-5 39,-5 43,-3 48,-5 51,-7 53,-6 54,-5 50,-5 51,-5 49,-5 43,-2 38,-6 33,-2 23,-3 h 15 -18 -28 -35 -41 l -46,3 h -50 l -54,2 -53,3 -54,3 -50,2 h -51 l -43,3 h -41 -33 -23 -15 l 20,-3 28,-5 33,-5 41,-5 45,-8 49,-7 48,-5 51,-8 51,-8 48,-7 46,-5 40,-6 36,-5 28,-5 20,-2 13,-3 h -28 l -36,-2 h -40 -46 -48 -51 -51 -51 -51 -48 -46 -38 -35 -28 l -21,-3 h -10 l 15,-2 23,-3 28,-2 33,-6 36,-2 41,-3 38,-5 43,-2 41,-5 38,-3 38,-2 33,-6 30,-2 26,-5 20,-3 13,-2 -15,-3 h -23 -28 -33 l -38,-2 h -41 -41 -43 -43 l -43,2 h -39 -35 -31 -25 -20 -11 l 21,-5 28,-5 35,-5 41,-5 46,-8 51,-5 50,-5 54,-8 51,-5 53,-7 48,-5 44,-5 40,-6 33,-5 26,-5 17,-5 h -20 -25 -36 l -38,-2 h -43 l -46,-3 h -46 l -48,-2 -48,-3 -46,-2 h -43 l -41,-3 h -33 l -28,-3 h -23 -13 l 26,-5 41,-5 48,-5 53,-5 51,-5 48,-5 41,-5 25,-5 -28,-3 -43,-2 -56,-3 h -58 l -64,-2 -56,-3 h -48 l -35,-2 17,-3 26,-3 30,-2 36,-3 41,-5 45,-2 46,-3 46,-5 46,-2 45,-3 41,-5 41,-3 33,-2 28,-3 23,-2 h 12 l -20,-3 h -26 l -35,-2 -38,-5 -43,-3 -49,-2 -48,-6 -48,-2 -49,-5 -48,-3 -43,-5 -38,-2 -36,-3 -28,-2 -20,-3 h -10 l 30,-8 38,-7 46,-5 51,-8 46,-5 40,-5 31,-5 15,-5 h -28 -38 l -48,2 h -51 l -48,3 -44,2 h -33 -17 l 40,-10 54,-10 61,-13 61,-10 55,-10 51,-8 36,-7 18,-5 h -44 l -55,2 -59,3 -63,5 -59,2 -51,3 h -38 -20 l 33,-5 38,-8 46,-10 45,-10 44,-8 38,-10 28,-8 18,-5 -33,-2 -41,-3 -46,-2 h -46 l -43,-3 h -38 l -30,-2 h -21 l 18,-3 28,-5 33,-5 38,-5 36,-5 35,-3 26,-2 17,-3 -20,-5 -33,-5 -35,-3 -41,-2 -41,-3 -35,-2 -28,-5 -16,-3 18,-2 26,-5 30,-6 33,-5 31,-7 25,-5 15,-3 8,-2 -13,-3 -23,-3 -28,-2 -33,-3 -30,-2 -28,-3 h -23 l -10,-2 25,-10 38,-11 46,-10 51,-12 48,-11 46,-10 33,-7 20,-8 -28,-5 -35,-5 -46,-3 -46,-2 -48,-3 -38,-2 h -31 l -17,-3 10,-2 18,-3 25,-5 28,-5 36,-5 38,-5 38,-8 43,-8 41,-7 40,-5 41,-8 36,-8 33,-5 28,-5 20,-5 15,-2 h -23 -25 l -33,-3 h -33 -38 -41 -38 l -41,-2 h -40 -39 -35 l -31,-3 h -28 -22 l -18,-3 h -10 l 40,-5 54,-7 63,-8 66,-7 61,-8 54,-8 40,-5 21,-2 -23,-3 -26,-2 -30,-3 -31,-3 -30,-2 -33,-3 h -33 l -31,-2 h -33 -28 l -28,-3 h -25 -20 -16 -12 -8 l 43,-5 56,-5 61,-7 66,-8 59,-5 53,-5 38,-3 20,-2 -15,-5 -20,-6 -26,-5 -28,-2 -33,-5 -33,-3 -35,-5 -36,-2 -35,-5 -36,-3 -30,-3 -31,-2 -25,-3 -23,-2 -15,-3 -11,-2 h -5 -5 -7 -3 v 137 l 76,79 -56,76 61,13 -81,94 v 231 l 61,5 -33,82 130,-26 -138,127 130,15 -122,54 53,53 -45,41 122,163 -158,-66 v 343 l 5,17 13,16 18,10 20,5 h 102 l -117,-257 218,237 -35,-130 109,122 94,-61 -20,61 170,-46 -8,46 135,-46 v 54 l 76,-61 46,48 303,-20 -206,53 h 363 l -135,-74 244,66 122,-53 v -8 l 3,-15 v -13 z"
   id="path62"
   inkscape:connector-curvature="0"
   style="fill:#000000;stroke:none" />
         <path
   d="m 10578,13442 -168,-74 h 195 v 31 43 38 23 h -33 -30 -25 l -26,-3 h -18 -17 -11 -7 -21 -38 -53 -66 l -76,3 h -84 -92 -94 l -94,2 h -91 -89 l -82,3 h -71 -58 -46 -28 46 56 66 68 77 l 76,2 h 79 78 79 l 74,3 h 69 l 61,2 53,3 46,3 30,2 21,5 -31,5 -46,5 -56,3 -66,2 -73,3 h -79 l -84,2 h -84 -84 -84 -76 -71 l -64,-2 h -53 -41 -28 l 33,5 49,3 58,5 66,5 74,5 81,2 82,5 83,6 84,2 79,5 74,3 68,5 56,2 49,3 33,2 17,3 h -81 -86 -92 -89 -91 -92 -89 -84 l -81,2 h -76 -71 -61 -54 -43 -30 -21 l 48,6 64,2 76,5 89,3 97,5 102,2 106,3 107,2 104,3 102,3 94,2 84,3 h 71 l 58,2 h 39 20 l -74,5 -84,5 -89,5 -94,6 -96,5 -99,2 -97,5 -97,3 -91,2 -87,5 -78,3 h -69 l -58,2 -49,3 h -30 -18 l 31,3 38,5 43,2 51,3 56,2 56,3 h 61 l 58,2 58,3 h 59 l 53,2 h 49 l 40,3 36,3 h 28 l 15,2 -36,3 -43,2 -51,3 -53,2 -58,3 h -61 l -61,2 h -64 l -58,3 h -59 -53 -51 -41 l -35,2 h -26 -15 l 25,3 31,5 38,5 41,3 45,5 49,5 51,5 48,5 48,5 48,3 46,5 41,2 35,5 28,3 h 23 l 16,2 h -18 l -26,3 h -33 l -38,-3 h -46 -45 l -51,-2 -51,-3 h -48 l -51,-2 h -46 l -41,-3 h -38 -30 -23 -15 l 17,8 21,7 25,6 28,5 28,5 26,2 22,5 18,3 -28,5 -30,8 -31,7 -33,8 -30,7 -26,8 -23,5 -15,3 26,5 25,2 23,5 h 23 l 23,3 20,5 20,3 18,5 -23,2 -25,5 -28,5 -28,5 -26,6 -25,5 -20,2 h -16 l 28,8 28,7 23,8 23,8 23,5 20,7 23,8 26,10 h -28 l -23,5 -18,5 -13,11 -12,7 -11,8 -12,5 -16,2 16,8 15,8 15,7 13,10 13,8 15,8 15,7 15,5 -17,3 h -21 l -20,-3 -20,-2 h -23 l -23,-3 h -23 l -25,3 22,5 18,8 15,7 11,8 10,7 13,8 12,5 15,3 -27,2 -23,5 -21,5 -17,8 -13,8 -13,5 -13,5 -12,2 h 33 l 33,3 30,2 28,3 26,5 20,5 15,3 10,5 h -22 l -28,2 -31,3 -33,2 -30,3 -26,3 -23,2 h -12 l 33,10 25,5 25,5 21,6 15,2 13,5 12,3 8,5 h -33 l -28,2 -25,3 -23,2 -18,3 -15,2 h -13 l -10,3 28,5 33,5 33,8 33,7 33,8 28,8 20,5 15,5 -30,2 -33,5 -36,6 -33,2 -33,5 -28,3 -23,2 -15,3 21,2 33,5 38,6 45,5 44,5 40,2 31,3 20,2 -23,5 -35,3 -44,5 -48,3 -48,2 -41,3 -33,5 -18,2 18,5 28,5 38,8 38,5 39,8 35,5 23,2 8,3 -16,2 -25,3 -36,3 h -38 -40 l -33,2 h -28 l -13,3 25,7 38,8 49,8 51,7 50,8 46,7 36,5 20,8 -28,5 -38,8 -46,5 -48,8 -48,5 -41,5 -31,5 -17,2 17,5 28,8 36,10 41,10 38,13 40,10 33,8 26,8 -38,2 -41,3 -41,2 -38,3 -33,5 -30,2 -26,3 -17,2 40,5 51,6 59,7 58,5 58,8 49,5 38,3 20,2 -48,8 -56,5 -61,5 -58,5 -56,5 -49,3 -35,2 h -18 l 20,3 23,5 28,2 31,5 30,3 33,5 33,5 33,3 33,5 31,5 28,2 25,5 23,3 18,2 h 15 l 8,3 -16,5 -20,3 -25,2 -28,3 -33,2 -36,3 -35,2 -39,3 h -35 l -36,2 -35,3 -31,3 -25,2 -23,3 -18,2 -10,3 h -5 -8 -5 -5 v -148 l 61,16 -46,-61 74,-18 -58,-102 -21,-91 28,-64 48,-242 -86,110 v -155 l 211,-102 h -183 l 48,-41 -48,-53 53,5 -53,-94 61,13 -61,-66 122,-49 -130,-12 89,-61 -109,5 v -242 l 5,-15 13,-13 18,-10 20,-5 h 208 l -203,211 259,-183 -28,94 127,-94 -25,81 114,-68 33,48 61,-53 239,73 -142,-109 h 330 l -134,97 264,-77 13,61 74,-61 7,69 69,-69 z"
   id="path64"
   inkscape:connector-curvature="0"
   style="fill:#000000;stroke:none" />
         <path
   d="m 10605,13503 h 59 63 l 67,2 h 71 71 74 73 72 l 71,3 h 63 61 56 48 39 30 20 -50 l -69,2 -84,5 -97,3 -106,5 -112,5 -117,5 -117,5 -117,8 -109,5 -104,5 -94,3 -79,5 -64,2 -46,3 h -22 l 28,7 53,6 74,5 h 89 104 l 114,-3 120,-2 124,-6 125,-5 122,-5 117,-5 104,-5 91,-2 77,-6 53,-2 h 33 l -35,5 -54,5 -68,5 -79,5 -92,5 -96,5 -102,6 -102,5 -101,5 -100,5 -91,5 -84,5 -71,5 -56,3 -41,2 -20,3 h 84 94 99 l 104,-3 h 107 107 l 109,-2 h 104 102 l 94,-3 h 86 79 l 66,-3 h 54 38 20 l -46,6 -58,2 -71,5 -82,3 -89,5 -91,2 -97,3 -94,2 -96,3 -89,3 -84,2 -76,3 h -64 l -51,2 h -38 -18 l 69,3 76,2 79,3 86,2 87,3 86,2 89,3 h 84 l 81,3 79,2 69,3 63,2 h 51 l 43,3 h 31 15 l -30,5 -36,2 -43,5 -46,3 -51,5 -56,3 -53,5 -56,2 -56,3 -51,5 -50,2 -44,3 -40,2 -31,3 -25,3 -16,2 36,3 41,2 48,3 51,2 56,3 h 56 l 58,2 h 59 l 56,3 h 55 49 46 40 l 33,2 h 26 15 l -26,3 -30,5 -38,3 -41,2 -46,3 -45,2 -51,3 -48,2 -49,3 h -48 l -43,2 -41,3 h -36 -30 l -20,2 h -16 l 18,3 h 26 l 33,3 h 38 l 43,2 h 46 51 l 48,3 h 51 l 48,2 h 46 40 l 36,3 h 31 l 22,2 h 16 l -18,3 -26,2 -33,5 -35,3 -38,2 h -41 l -43,3 -43,3 -44,2 h -40 l -41,3 -36,2 h -30 l -23,3 h -20 l -10,2 28,3 33,2 35,3 41,2 43,6 43,5 46,5 43,5 43,5 41,5 38,5 36,3 30,5 23,2 18,3 h 10 l -15,2 -20,3 h -23 l -28,2 h -31 l -33,3 h -35 -33 -36 l -33,2 h -31 -30 l -26,3 -20,3 -18,2 -12,3 h 15 l 20,2 26,3 28,2 33,3 33,2 35,5 38,3 36,2 36,3 33,3 30,2 28,3 h 20 l 18,2 h 10 l -17,5 -21,3 -25,5 -26,2 -28,6 -30,2 -31,3 -33,5 -30,2 -31,3 -30,5 -25,2 -26,6 -23,2 -18,5 -15,5 36,5 43,8 53,8 54,7 51,5 48,5 38,5 h 25 l -25,6 -33,7 -43,5 -46,5 -46,5 -43,3 -33,5 -25,5 25,3 41,2 48,3 h 53 l 54,2 51,3 43,2 33,3 -33,5 -41,8 -48,7 -51,10 -48,11 -46,7 -36,5 -25,3 38,2 46,5 53,6 56,5 53,5 46,5 38,5 21,2 -31,8 -41,3 -48,5 h -51 l -48,2 -43,3 -31,2 -17,3 h 28 l 40,2 48,3 54,2 51,3 45,3 36,2 h 18 l -38,10 -44,5 -48,5 -46,6 -43,2 -35,5 -28,3 -16,5 h 41 l 46,2 48,3 48,2 44,3 38,2 h 30 l 18,3 -30,5 -41,8 -43,7 -46,8 -43,10 -38,8 -28,7 -18,5 33,3 41,3 43,5 46,2 43,3 38,2 h 30 l 18,3 -20,5 -36,5 -43,8 -48,10 -49,7 -43,8 -33,5 -20,3 23,2 40,3 h 46 54 50 44 35 l 18,2 -23,3 -38,5 -51,8 -53,10 -54,7 -45,8 -31,5 -13,3 18,2 h 38 49 53 53 l 49,3 h 35 15 l -25,7 -36,10 -48,11 -48,10 -51,7 -43,11 -36,7 -20,8 28,5 38,5 43,5 49,3 45,5 41,2 30,3 18,2 -18,5 -28,6 -33,10 -35,10 -38,10 -38,8 -31,10 -25,5 38,2 38,6 38,2 36,5 30,5 31,5 23,3 17,2 -28,11 -33,5 -38,7 -40,3 -41,5 -36,2 -30,3 -21,5 21,3 33,5 40,5 46,7 46,5 41,3 30,5 h 18 l -38,5 -41,5 -41,8 -38,2 -38,6 -30,5 -23,2 -15,3 28,7 40,5 49,11 50,7 49,8 45,10 36,5 23,8 v -532 l -74,-55 48,-74 -122,-54 122,-35 -68,-46 61,-48 -94,-209 127,140 v -208 l -209,-13 176,-41 -127,-40 142,-49 -178,-183 8,5 18,13 28,20 33,23 33,23 30,18 28,15 18,5 v -127 l -5,-12 -10,-16 -13,-10 -15,-5 h -321 l 148,130 -318,-102 -53,41 -28,-41 -94,74 v -82 l -110,82 28,-82 -94,69 -48,-61 -8,69 -61,-61 -221,12 143,-48 h -189 v 25 44 43 z"
   id="path66"
   inkscape:connector-curvature="0"
   style="fill:#000000;stroke:none" />
         <path
   d="m 10344,15432 -8,-61 -8,-76 -15,-89 -15,-94 -18,-94 -23,-89 -25,-79 -26,-64 -17,-33 -23,-40 -28,-51 -36,-59 -38,-63 -43,-66 -46,-71 -46,-72 -50,-71 -51,-71 -51,-69 -51,-61 -51,-58 -48,-48 -46,-44 -43,-30 -15,-8 -13,-7 -15,-8 -16,-5 -12,-5 -10,-3 -13,-2 h -8 l -12,7 -18,21 -18,35 -15,51 -10,69 2,84 18,101 38,122 46,133 45,132 41,127 38,119 41,112 38,97 41,79 43,58 23,23 23,25 25,23 26,23 28,23 30,23 33,20 33,21 38,17 38,16 41,12 46,10 46,8 50,3 h 54 z"
   id="path68"
   inkscape:connector-curvature="0"
   style="fill:#000000;stroke:none" />
         <path
   d="m 10313,15452 18,6 h 18 l 20,2 20,-2 21,-3 18,-5 20,-5 15,-8 5,33 3,38 -3,33 -15,23 5,41 10,69 15,91 18,102 21,104 22,102 21,89 23,66 h -23 -23 -18 -15 l -13,2 h -13 -12 -13 l -10,-48 -18,-89 -23,-117 -25,-132 -23,-130 -23,-119 -15,-92 z"
   id="path70"
   inkscape:connector-curvature="0"
   style="fill:#000000;stroke:none" />
         <path
   d="m 10344,15432 -8,-61 -8,-76 -15,-89 -15,-94 -18,-94 -23,-89 -25,-79 -26,-64 23,-50 26,-59 30,-63 33,-67 36,-71 35,-73 41,-74 38,-74 38,-71 36,-69 33,-63 33,-59 28,-53 23,-43 20,-36 13,-25 18,-36 17,-33 18,-25 18,-23 15,-18 18,-10 18,-8 20,-2 23,5 31,12 30,28 33,44 33,63 28,87 21,114 15,145 2,160 -10,158 -20,150 -31,139 -33,128 -38,109 -38,86 -36,64 -17,23 -21,25 -20,20 -23,23 -25,21 -26,20 -28,18 -28,18 -33,15 -33,15 -35,15 -38,13 -41,10 -41,10 -46,8 z"
   id="path72"
   inkscape:connector-curvature="0"
   style="fill:#000000;stroke:none" />
         <path
   d="m 10585,14039 -48,89 -54,99 -53,102 -53,102 -51,101 -48,94 -41,87 -31,73 -12,-22 -16,-31 -20,-36 -23,-40 -28,-43 -28,-49 -30,-51 -33,-50 -36,-56 -38,-54 -36,-56 -38,-56 -40,-53 -38,-51 -41,-51 -38,-45 7,-23 8,-23 8,-28 10,-26 13,-25 12,-23 15,-20 16,-15 7,-5 13,-3 13,-3 h 12 l 16,-2 12,-5 16,-5 15,-10 20,-13 33,-13 41,-5 43,3 46,17 43,36 36,61 28,86 12,-45 18,-44 18,-45 23,-41 23,-36 28,-33 30,-25 36,-20 35,-13 36,-5 30,-3 34,5 27,8 26,13 23,18 18,22 22,31 21,25 18,23 12,18 -12,23 -13,25 -13,26 -15,25 -13,26 -13,22 -10,23 z"
   id="path74"
   inkscape:connector-curvature="0"
   style="fill:#000000;stroke:none" />
         <path
   d="m 10382,13709 -36,20 -30,25 -28,33 -23,36 -23,41 -18,45 -18,44 -12,45 -28,-86 -36,-61 -43,-36 -46,-17 -43,-3 -41,5 -33,13 -20,13 20,-23 26,-26 30,-20 33,-20 38,-16 36,-10 38,-5 38,3 36,2 h 33 l 28,-5 28,-8 25,-5 h 23 l 23,3 z"
   id="path76"
   inkscape:connector-curvature="0"
   style="fill:#000000;stroke:none" />
         <path
   d="m 10295,15361 -5,-53 -10,-69 -13,-81 -15,-84 -15,-84 -20,-82 -23,-71 -23,-56 -15,-28 -21,-38 -28,-45 -30,-54 -33,-56 -38,-61 -41,-63 -43,-64 -46,-66 -43,-64 -46,-58 -46,-58 -45,-51 -44,-44 -43,-38 -38,-28 -13,-7 -15,-8 -13,-5 -12,-5 -11,-5 -12,-3 -10,-2 h -8 l -10,7 -18,18 -15,33 -16,46 -7,61 2,76 18,92 33,109 43,120 39,117 35,116 38,107 33,99 36,89 38,69 38,53 20,21 21,23 23,20 23,23 25,20 28,18 30,20 31,18 33,15 33,13 38,13 41,7 40,8 46,2 h 49 z"
   id="path78"
   inkscape:connector-curvature="0"
   style="fill:#ffffff;stroke:none" />
         <path
   d="m 10369,15348 -5,-53 -10,-69 -13,-81 -15,-84 -15,-84 -21,-81 -23,-71 -22,-56 20,-46 23,-51 28,-58 28,-61 33,-64 33,-66 35,-66 33,-66 36,-64 33,-61 31,-58 27,-54 26,-45 23,-41 15,-33 13,-23 18,-33 15,-28 15,-23 15,-20 16,-15 15,-11 18,-5 17,-2 21,2 25,13 31,23 28,41 28,58 25,79 20,101 13,130 3,145 -11,142 -17,135 -26,127 -30,112 -36,99 -33,76 -33,56 -15,23 -18,21 -20,20 -18,20 -23,18 -23,18 -25,18 -28,15 -28,15 -31,13 -33,13 -33,10 -35,10 -39,8 -40,7 z"
   id="path80"
   inkscape:connector-curvature="0"
   style="fill:#ffffff;stroke:none" />
         <path
   d="m 10547,14067 -43,81 -48,87 -49,91 -48,94 -46,89 -43,87 -38,76 -28,66 -10,-20 -16,-28 -17,-31 -21,-35 -25,-41 -26,-43 -27,-46 -28,-46 -33,-50 -34,-49 -33,-51 -33,-48 -35,-48 -36,-49 -33,-43 -35,-43 5,-18 7,-23 8,-22 8,-26 10,-23 12,-20 13,-18 15,-13 8,-5 10,-2 10,-3 h 13 l 13,-2 12,-3 16,-8 12,-7 18,-10 31,-3 35,3 41,12 41,26 38,43 33,59 25,81 13,-43 13,-46 17,-48 18,-49 23,-43 26,-36 28,-30 30,-20 33,-13 31,-5 28,-3 27,5 28,8 23,13 21,15 17,20 18,28 18,23 15,20 13,16 -10,20 -13,23 -13,23 -10,25 -12,23 -11,20 -10,21 z"
   id="path82"
   inkscape:connector-curvature="0"
   style="fill:#ffffff;stroke:none" />
         <path
   d="m 10328,13719 -28,15 -22,20 -18,26 -15,28 -16,30 -12,36 -11,35 -10,36 -25,-64 -28,-48 -28,-30 -31,-21 -28,-7 h -28 l -20,7 -15,8 15,-18 15,-13 18,-10 21,-7 22,-5 h 23 28 l 28,5 h 28 l 26,-3 20,-7 20,-11 18,-7 18,-5 18,2 z"
   id="path84"
   inkscape:connector-curvature="0"
   style="fill:#ffffff;stroke:none" />
         <path
   d="m 10949,13968 -13,-28 -18,-33 -20,-36 -23,-30 -25,-21 -31,-7 -33,13 -38,35 10,23 15,28 15,33 16,38 15,41 10,46 10,45 3,49 5,-41 3,-56 -6,-53 -5,-44 18,122 10,84 5,64 -2,53 10,-56 8,-56 2,-53 -2,-51 10,153 7,142 v 132 l -17,112 28,-163 12,-106 5,-69 -2,-41 10,44 8,63 5,69 v 53 l 5,-150 2,-145 -2,-122 z"
   id="path86"
   inkscape:connector-curvature="0"
   style="fill:#000000;stroke:none" />
         <path
   d="m 10684,13958 -10,23 -18,33 -23,45 -28,54 -30,61 -33,66 -36,69 -33,71 -35,71 -36,66 -30,64 -31,55 -25,51 -18,38 -15,28 -8,13 10,31 10,40 13,46 13,51 13,48 10,48 7,39 5,30 18,15 21,16 20,12 23,11 20,10 20,12 16,11 15,10 -15,-31 -16,-30 -15,-28 -13,-28 -15,-26 -13,-25 -17,-23 -16,-20 21,10 18,8 15,7 15,8 10,5 10,5 8,8 8,7 -21,-25 -15,-23 -15,-20 -13,-21 -15,-18 -13,-15 -15,-18 -18,-15 26,15 27,18 28,23 28,20 26,26 23,25 20,26 13,25 -21,-46 -12,-35 -13,-33 -13,-28 -10,-26 -15,-28 -18,-28 -23,-30 18,7 15,3 13,3 h 10 l 10,2 10,5 11,8 7,13 -10,-28 -2,-23 -13,-28 -36,-41 26,15 30,23 33,33 36,38 33,46 30,54 21,61 12,66 -7,-74 -16,-66 -22,-56 -26,-51 -28,-43 -28,-36 -25,-28 -20,-23 h 15 15 l 15,3 16,2 17,6 18,10 15,12 18,21 -10,-26 -10,-25 -8,-23 -10,-20 -13,-21 -15,-20 -15,-23 -21,-23 18,3 18,5 15,5 16,5 12,8 13,7 13,13 12,15 -10,-25 -5,-23 -7,-23 -6,-18 -10,-17 -12,-16 -16,-15 -23,-15 21,2 23,8 20,10 20,18 21,20 23,28 25,31 28,35 -15,-33 -23,-33 -23,-35 -26,-36 -25,-30 -23,-26 -20,-18 -15,-10 15,-5 13,-2 15,-3 h 15 l 13,3 12,5 13,5 13,7 -13,-15 -13,-15 -12,-15 -10,-13 -16,-13 -12,-10 -16,-8 -15,-5 13,-5 10,-2 h 13 12 13 l 10,2 10,5 11,5 -8,-23 -15,-22 -15,-18 -18,-13 h 15 l 15,-2 13,2 h 13 10 l 10,3 8,2 7,5 -7,-23 -11,-23 -15,-17 -20,-10 10,-6 10,-2 8,-3 10,-2 h 10 10 l 8,5 10,5 -10,-20 -18,-23 -18,-18 -15,-10 18,7 18,11 20,15 18,15 18,18 17,20 13,18 13,18 -13,-26 -13,-22 -12,-21 -10,-20 -11,-18 -10,-15 -7,-15 -8,-13 15,7 13,13 13,15 15,18 -10,-33 -16,-30 -17,-28 -18,-21 15,5 10,3 8,5 10,15 -2,-17 -6,-16 -7,-12 -10,-13 -13,-10 -13,-10 -12,-11 z"
   id="path88"
   inkscape:connector-curvature="0"
   style="fill:#000000;stroke:none" />
         <path
   d="m 10382,15315 -3,-40 -2,-54 -3,-51 -5,-35 10,10 10,13 16,15 15,15 15,15 15,16 13,12 10,10 -23,-12 -20,-8 -18,-5 -10,-8 18,26 10,15 10,13 18,7 -20,3 h -21 l -15,-3 -7,-7 15,15 12,15 11,8 12,5 h 16 l 20,-8 25,-15 33,-25 -7,15 -10,15 -13,13 -13,13 -20,7 -26,5 -30,-2 z"
   id="path90"
   inkscape:connector-curvature="0"
   style="fill:#000000;stroke:none" />
         <path
   d="m 10669,15145 5,-13 10,-10 13,-10 10,-13 -10,48 -15,46 -21,36 -25,28 15,-31 8,-30 5,-28 z"
   id="path92"
   inkscape:connector-curvature="0"
   style="fill:#000000;stroke:none" />
         <path
   d="m 10750,14649 v -5 l 5,-2 h 11 7 l 5,45 3,54 -5,56 -18,61 5,-59 v -61 l -2,-51 z"
   id="path94"
   inkscape:connector-curvature="0"
   style="fill:#000000;stroke:none" />
         <path
   d="m 10865,14746 v 63 l -10,102 -16,97 -10,53 -18,20 -5,8 -2,5 -10,10 22,-84 21,-106 18,-105 z"
   id="path96"
   inkscape:connector-curvature="0"
   style="fill:#000000;stroke:none" />
         <path
   d="m 10903,14685 5,33 3,48 v 48 l -6,33 13,-43 5,-43 -5,-41 z"
   id="path98"
   inkscape:connector-curvature="0"
   style="fill:#000000;stroke:none" />
         <path
   d="m 9556,14403 7,5 5,2 5,5 6,5 v 39 l 2,40 8,46 12,43 -17,-46 -13,-50 -10,-46 z"
   id="path100"
   inkscape:connector-curvature="0"
   style="fill:#000000;stroke:none" />
         <path
   d="m 9690,14987 8,16 8,17 10,21 13,20 10,18 12,18 11,17 12,13 -23,-61 -22,-66 -21,-69 -18,-71 -15,-68 -15,-67 -10,-58 -10,-51 12,79 18,91 13,79 10,46 -18,-38 -20,-59 -15,-66 -11,-58 8,71 18,86 20,82 z"
   id="path102"
   inkscape:connector-curvature="0"
   style="fill:#000000;stroke:none" />
         <path
   d="m 9568,13998 -15,-7 -18,-8 -23,-5 h -25 l -23,15 -20,28 -13,46 -7,69 10,38 15,53 15,64 21,66 17,66 21,58 17,51 18,33 -15,-51 -15,-58 -16,-61 -15,-61 -12,-58 -13,-51 -8,-41 -5,-28 13,18 7,15 11,13 20,12 -10,-20 -10,-25 -11,-31 -7,-30 -5,-31 v -28 l 7,-25 18,-20 -5,35 -2,31 5,28 10,22 v -22 -23 -23 l 2,-21 8,-17 13,-13 17,-5 z"
   id="path104"
   inkscape:connector-curvature="0"
   style="fill:#000000;stroke:none" />
         <path
   d="m 9584,14016 17,13 23,20 23,23 28,26 26,28 25,25 23,25 18,21 -10,10 -13,13 -13,15 -15,15 -13,18 -13,15 -7,15 -5,13 2,-30 5,-28 11,-28 12,-23 -25,5 -18,7 -15,13 -10,23 2,-33 10,-28 13,-23 15,-15 -12,-3 -13,-2 h -15 l -16,5 -15,8 -15,17 -10,28 -8,38 v -40 l 5,-43 18,-41 33,-20 -15,2 h -13 -15 -13 l -13,3 -10,5 -7,7 -6,13 13,-41 5,-30 8,-23 z"
   id="path106"
   inkscape:connector-curvature="0"
   style="fill:#000000;stroke:none" />
         <path
   d="m 9782,14222 30,43 46,72 59,91 63,99 64,99 56,89 40,69 23,38 -15,13 -15,12 -16,18 -15,18 -15,20 -15,23 -13,23 -10,26 v -31 l 10,-33 13,-36 17,-33 -15,11 -15,10 -18,12 -18,16 -15,20 -15,20 -13,26 -7,30 7,-33 10,-33 13,-30 13,-28 15,-26 13,-23 15,-15 15,-13 -20,11 -20,7 -21,10 -18,11 -20,10 -15,12 -15,18 -16,21 8,-23 10,-23 13,-26 13,-22 12,-23 13,-18 10,-15 10,-8 -12,5 -13,3 -13,2 -13,5 -12,5 -15,10 -13,18 -15,23 5,-20 7,-21 8,-17 10,-18 10,-18 13,-13 13,-12 12,-8 -17,5 -16,3 -15,2 -15,3 -15,7 -16,13 -15,20 -18,28 5,-25 5,-28 11,-28 10,-28 10,-25 13,-23 12,-21 13,-15 -13,5 -15,5 -13,8 -15,5 -10,8 -10,7 -8,11 -5,10 3,-41 10,-41 13,-33 20,-25 -15,5 -21,13 -20,15 -23,20 -23,21 -20,22 -15,26 -13,23 8,-41 7,-43 18,-41 28,-35 h -15 l -16,2 -15,13 -18,23 3,-26 2,-28 11,-30 15,-28 -20,8 -16,7 -12,10 -16,18 16,-38 12,-28 13,-18 25,-12 h -10 l -10,2 h -13 l -10,3 -13,5 -10,5 -7,5 -5,10 12,-20 10,-23 13,-23 10,-20 11,-21 10,-18 7,-12 z"
   id="path108"
   inkscape:connector-curvature="0"
   style="fill:#000000;stroke:none" />
         <path
   d="m 10168,14863 8,28 13,48 15,61 13,71 12,69 13,66 8,51 2,30 -13,-5 -12,-2 h -15 -16 l -15,5 -15,5 -10,10 -11,10 13,-41 13,-43 15,-40 15,-31 -10,5 -13,8 -12,7 -16,11 -12,10 -13,12 -10,11 -10,10 10,-23 8,-28 10,-25 10,-26 10,-23 10,-20 10,-18 11,-13 -18,11 -18,17 -23,23 -20,26 -21,30 -17,28 -13,23 -10,20 15,-43 15,-38 18,-38 15,-33 16,-31 15,-28 12,-20 13,-18 -10,5 -10,5 -10,5 -10,8 -11,10 -10,10 -10,13 -8,15 13,-33 10,-33 10,-28 11,-28 10,-23 10,-20 10,-15 z"
   id="path110"
   inkscape:connector-curvature="0"
   style="fill:#000000;stroke:none" />
         <path
   d="m 9970,15282 -10,-10 -10,-20 -13,-26 -13,-30 -12,-36 -11,-35 -10,-39 -7,-35 5,53 7,59 10,53 11,31 7,5 16,12 17,11 z"
   id="path112"
   inkscape:connector-curvature="0"
   style="fill:#000000;stroke:none" />
         <path
   d="m 10143,14031 18,23 17,21 16,23 5,33 5,-28 8,-26 7,-25 13,-26 v 102 l 10,107 15,91 21,64 -18,-28 -21,-43 -15,-51 -7,-41 5,143 v 101 l 2,74 3,53 -18,-152 -13,-115 -7,-81 -5,-51 -8,71 -8,51 -10,36 -13,23 8,-79 3,-99 -3,-97 z"
   id="path114"
   inkscape:connector-curvature="0"
   style="fill:#000000;stroke:none" />
         <path
   d="m 10008,14146 18,28 20,46 21,56 22,63 21,66 15,59 13,48 2,33 -7,-10 -10,-15 -8,-13 -8,-10 -7,-36 -11,-43 -12,-46 -15,-51 -13,-48 -15,-48 -13,-44 z"
   id="path116"
   inkscape:connector-curvature="0"
   style="fill:#000000;stroke:none" />
         <path
   d="m 10026,13899 8,3 h 7 l 8,5 10,8 10,33 15,48 13,58 3,51 -16,-61 -17,-61 -21,-53 z"
   id="path118"
   inkscape:connector-curvature="0"
   style="fill:#000000;stroke:none" />
         <path
   d="m 9947,13894 -10,3 -10,2 -10,5 -11,5 -12,6 -8,5 -7,2 -8,5 -8,43 v 51 l 13,54 38,61 -18,-51 -7,-36 -3,-28 3,-28 7,26 5,20 8,18 13,15 -3,-25 -5,-28 v -28 -23 l 10,28 10,20 8,18 13,13 -13,-38 -10,-46 -3,-43 z"
   id="path120"
   inkscape:connector-curvature="0"
   style="fill:#000000;stroke:none" />
         <path
   d="m 9815,14001 v 10 l 5,15 5,21 8,23 12,25 13,23 15,23 21,20 -15,-13 -18,-15 -16,-15 -12,-18 -13,-18 -10,-15 -8,-13 -2,-10 2,-2 3,-11 5,-15 z"
   id="path122"
   inkscape:connector-curvature="0"
   style="fill:#000000;stroke:none" />
         <path
   d="m 10377,13787 25,-5 23,-5 23,-2 25,5 23,7 26,16 25,23 25,30 -2,51 -10,58 -21,61 -38,56 10,-28 11,-30 10,-31 7,-33 -7,21 -13,20 -15,20 -15,18 -16,15 -15,18 -13,13 -10,13 23,-39 23,-33 18,-28 15,-28 10,-22 8,-23 2,-21 -2,-20 -13,33 -10,25 -13,21 -15,20 5,-28 v -28 -30 l -8,-28 -12,-28 -21,-23 -30,-18 z"
   id="path124"
   inkscape:connector-curvature="0"
   style="fill:#000000;stroke:none" />
         <path
   d="m 10372,13823 -13,20 -18,36 -20,46 -18,51 -15,58 -10,61 -3,61 8,56 5,-41 7,-45 11,-51 10,-49 12,-45 16,-41 15,-33 18,-20 -10,35 -11,31 -7,28 v 30 l 12,-23 11,-18 10,-12 10,-13 8,-10 7,-8 8,-5 10,-5 -13,23 -10,23 -7,20 -6,21 26,-34 15,-22 13,-18 15,-8 -8,-15 -7,-15 -10,-16 -13,-15 -10,-13 -13,-10 -13,-10 z"
   id="path126"
   inkscape:connector-curvature="0"
   style="fill:#000000;stroke:none" />
         <path
   d="m 10402,14034 -18,33 -20,48 -15,61 -8,66 20,-63 21,-59 18,-45 12,-26 v -2 l -5,-3 -2,-5 z"
   id="path128"
   inkscape:connector-curvature="0"
   style="fill:#000000;stroke:none" />
         <path
   d="m 10110,13749 15,3 18,5 20,2 h 18 20 18 l 13,-5 13,-5 2,10 -8,16 -10,18 -10,17 -2,-10 -3,-7 -8,-8 -12,-8 -8,23 -5,20 3,23 5,21 -18,-28 -15,-23 -8,-20 -3,-16 -7,5 -5,3 -3,2 -2,6 -8,-11 -5,-12 -3,-11 z"
   id="path130"
   inkscape:connector-curvature="0"
   style="fill:#000000;stroke:none" />
         <path
   d="m 10949,16225 28,-23 43,-45 56,-72 63,-94 69,-111 69,-130 66,-148 58,-160 48,-175 36,-186 15,-193 -5,-203 -30,-206 -59,-214 -91,-213 -127,-214 12,107 3,127 -5,142 -16,158 -25,168 -33,175 -41,181 -48,180 -56,181 -63,175 -69,168 -74,160 -79,145 -83,127 -89,112 -92,86 h 26 27 34 35 41 l 38,-2 h 43 41 40 39 l 35,-3 h 33 31 23 20 z"
   id="path132"
   inkscape:connector-curvature="0"
   style="fill:#000000;stroke:none" />
         <path
   d="m 10346,16228 v -33 l -7,-51 -16,-66 -23,-76 -33,-84 -40,-92 -49,-94 -58,-94 -69,-91 -76,-84 -86,-79 -99,-64 -107,-51 -120,-33 -129,-15 -143,10 72,33 68,38 66,44 61,45 56,51 54,56 48,59 43,61 38,66 36,68 28,72 23,76 17,76 13,81 5,82 v 84 h 21 22 26 25 28 l 31,2 h 28 30 31 28 l 30,3 h 28 28 25 23 z"
   id="path134"
   inkscape:connector-curvature="0"
   style="fill:#000000;stroke:none" />
         <path
   d="m 11094,15971 10,-20 10,-28 13,-33 15,-44 18,-50 17,-56 26,-66 25,-74 -20,43 -26,51 -33,58 -40,64 -43,69 -49,71 -53,73 -53,77 27,-36 31,-51 28,-63 30,-74 31,-76 28,-76 28,-74 25,-64 -18,33 -20,36 -25,33 -28,33 -28,33 -28,28 -28,25 -28,23 18,-28 15,-30 15,-36 18,-38 15,-41 16,-45 15,-49 18,-50 -21,38 -30,48 -36,53 -41,59 -43,61 -45,53 -41,49 -36,38 26,-41 28,-51 28,-56 30,-58 28,-59 23,-53 20,-43 13,-28 66,-132 56,-161 51,-180 38,-196 30,-203 21,-201 10,-198 -3,-183 66,112 51,116 36,117 25,122 16,122 5,120 -5,122 -13,117 -18,114 -23,112 -25,104 -31,99 -30,95 -31,83 -30,74 -28,64 -8,20 -13,25 -12,31 -18,30 -18,33 -15,28 -15,21 z"
   id="path136"
   inkscape:connector-curvature="0"
   style="fill:#ffffff;stroke:none" />
         <path
   d="m 10140,15747 -28,-45 -30,-49 -33,-45 -36,-46 -38,-46 -38,-41 -43,-40 -43,-38 -49,-34 -48,-30 -53,-25 -54,-21 -56,-18 -61,-10 -61,-2 -63,2 40,18 39,23 38,23 35,28 36,28 35,33 36,33 33,33 33,35 31,36 30,38 31,36 30,38 28,38 28,38 25,36 11,18 15,25 20,33 21,38 17,43 18,46 13,46 7,46 6,-87 2,-74 -2,-55 -8,-33 15,20 18,30 20,36 21,41 17,43 16,40 12,36 5,26 -10,-87 -20,-89 -25,-71 -18,-38 20,33 23,38 20,36 23,38 18,38 15,33 10,28 5,23 -2,-44 -8,-43 -10,-45 -13,-44 -15,-40 -18,-41 -15,-36 z"
   id="path138"
   inkscape:connector-curvature="0"
   style="fill:#ffffff;stroke:none" />
         <path
   d="m 11330,15267 28,-104 23,-110 12,-114 8,-120 -2,-122 -11,-124 -20,-127 -30,-130 17,89 10,102 3,109 v 115 l -8,111 -10,105 -15,91 -15,74 -13,66 -15,66 -18,64 -18,58 -18,53 -17,46 -16,38 -12,31 17,-26 18,-28 21,-33 17,-35 18,-36 18,-38 15,-36 z"
   id="path140"
   inkscape:connector-curvature="0"
   style="fill:#000000;stroke:none" />
         <path
   d="m 11152,15435 46,-135 40,-147 33,-158 26,-165 13,-168 v -165 l -13,-163 -31,-155 18,89 8,99 -3,112 -10,119 -15,130 -21,135 -22,140 -26,142 -13,46 -17,66 -21,79 -23,83 -22,82 -21,73 -18,56 -7,33 13,-22 12,-26 16,-30 12,-31 13,-30 13,-33 10,-28 z"
   id="path142"
   inkscape:connector-curvature="0"
   style="fill:#000000;stroke:none" />
         <path
   d="m 10051,15785 -28,-40 -33,-41 -30,-41 -36,-40 -35,-38 -36,-41 -38,-38 -36,-36 -38,-33 -35,-33 -36,-30 -35,-26 -34,-23 -30,-20 -31,-15 -25,-10 43,15 41,20 41,23 40,25 41,28 38,28 38,33 36,34 35,35 36,36 33,38 30,38 31,38 28,38 25,38 26,38 15,28 13,33 10,34 8,27 -16,-27 -18,-34 -20,-35 z"
   id="path144"
   inkscape:connector-curvature="0"
   style="fill:#000000;stroke:none" />
         <path
   d="m 10117,15750 -22,-36 -26,-33 -25,-35 -26,-36 -30,-33 -31,-33 -30,-33 -33,-31 -33,-30 -36,-28 -35,-28 -39,-25 -35,-23 -41,-21 -38,-20 -41,-15 26,10 28,13 30,17 31,21 33,23 33,25 33,28 35,28 34,33 35,33 33,36 33,35 31,38 33,41 28,38 28,41 12,18 21,33 23,33 17,25 -10,-25 -18,-33 -17,-31 z"
   id="path146"
   inkscape:connector-curvature="0"
   style="fill:#000000;stroke:none" />
         <path
   d="m 9942,15719 -23,-35 -23,-33 -23,-33 -22,-33 -26,-33 -25,-31 -28,-30 -28,-31 -28,-28 -31,-25 -33,-26 -33,-23 -33,-20 -38,-20 -36,-18 -40,-15 25,10 26,13 28,15 28,18 28,22 28,23 30,26 28,25 30,31 31,30 28,33 28,36 30,35 28,39 28,38 26,40 5,8 10,10 10,15 10,18 13,15 10,18 10,16 8,10 -10,-26 -18,-33 -18,-30 z"
   id="path148"
   inkscape:connector-curvature="0"
   style="fill:#000000;stroke:none" />
        </g>
       </g>
      </g>
     </g>
    </g>
   </g>
  </g>
 </g>
</svg>