<?xml version="1.0" encoding="UTF-8" standalone="no"?>
<svg
   xmlns:ooo="http://xml.openoffice.org/svg/export"
   xmlns:dc="http://purl.org/dc/elements/1.1/"
   xmlns:cc="http://creativecommons.org/ns#"
   xmlns:rdf="http://www.w3.org/1999/02/22-rdf-syntax-ns#"
   xmlns:svg="http://www.w3.org/2000/svg"
   xmlns="http://www.w3.org/2000/svg"
   xmlns:sodipodi="http://sodipodi.sourceforge.net/DTD/sodipodi-0.dtd"
   xmlns:inkscape="http://www.inkscape.org/namespaces/inkscape"
   version="1.2"
   width="17.93mm"
   height="20.5mm"
   viewBox="0 0 1793 2050"
   preserveAspectRatio="xMidYMid"
   xml:space="preserve"
   id="svg207"
   sodipodi:docname="stopwtch.svg"
   style="fill-rule:evenodd;stroke-width:28.22200012;stroke-linejoin:round"
   inkscape:version="0.92.5 (2060ec1f9f, 2020-04-08)"><metadata
   id="metadata211"><rdf:RDF><cc:Work
       rdf:about=""><dc:format>image/svg+xml</dc:format><dc:type
         rdf:resource="http://purl.org/dc/dcmitype/StillImage" /></cc:Work></rdf:RDF></metadata><sodipodi:namedview
   pagecolor="#ffffff"
   bordercolor="#666666"
   borderopacity="1"
   objecttolerance="10"
   gridtolerance="10"
   guidetolerance="10"
   inkscape:pageopacity="0"
   inkscape:pageshadow="2"
   inkscape:window-width="664"
   inkscape:window-height="487"
   id="namedview209"
   showgrid="false"
   inkscape:zoom="0.2102413"
   inkscape:cx="33.902363"
   inkscape:cy="38.740156"
   inkscape:window-x="0"
   inkscape:window-y="0"
   inkscape:window-maximized="0"
   inkscape:current-layer="svg207" />
 <defs
   class="ClipPathGroup"
   id="defs8">
  <clipPath
   id="presentation_clip_path"
   clipPathUnits="userSpaceOnUse">
   <rect
   x="0"
   y="0"
   width="21000"
   height="29700"
   id="rect2" />
  </clipPath>
  <clipPath
   id="presentation_clip_path_shrink"
   clipPathUnits="userSpaceOnUse">
   <rect
   x="21"
   y="29"
   width="20958"
   height="29641"
   id="rect5" />
  </clipPath>
 </defs>
 <defs
   class="TextShapeIndex"
   id="defs12">
  <g
   ooo:slide="id1"
   ooo:id-list="id3"
   id="g10" />
 </defs>
 <defs
   class="EmbeddedBulletChars"
   id="defs44">
  <g
   id="bullet-char-template-57356"
   transform="matrix(4.8828125e-4,0,0,-4.8828125e-4,0,0)">
   <path
   d="M 580,1141 1163,571 580,0 -4,571 Z"
   id="path14"
   inkscape:connector-curvature="0" />
  </g>
  <g
   id="bullet-char-template-57354"
   transform="matrix(4.8828125e-4,0,0,-4.8828125e-4,0,0)">
   <path
   d="M 8,1128 H 1137 V 0 H 8 Z"
   id="path17"
   inkscape:connector-curvature="0" />
  </g>
  <g
   id="bullet-char-template-10146"
   transform="matrix(4.8828125e-4,0,0,-4.8828125e-4,0,0)">
   <path
   d="M 174,0 602,739 174,1481 1456,739 Z M 1358,739 309,1346 659,739 Z"
   id="path20"
   inkscape:connector-curvature="0" />
  </g>
  <g
   id="bullet-char-template-10132"
   transform="matrix(4.8828125e-4,0,0,-4.8828125e-4,0,0)">
   <path
   d="M 2015,739 1276,0 H 717 l 543,543 H 174 v 393 h 1086 l -543,545 h 557 z"
   id="path23"
   inkscape:connector-curvature="0" />
  </g>
  <g
   id="bullet-char-template-10007"
   transform="matrix(4.8828125e-4,0,0,-4.8828125e-4,0,0)">
   <path
   d="m 0,-2 c -7,16 -16,29 -25,39 l 381,530 c -94,256 -141,385 -141,387 0,25 13,38 40,38 9,0 21,-2 34,-5 21,4 42,12 65,25 l 27,-13 111,-251 280,301 64,-25 24,25 c 21,-10 41,-24 62,-43 C 886,937 835,863 770,784 769,783 710,716 594,584 L 774,223 c 0,-27 -21,-55 -63,-84 l 16,-20 C 717,90 699,76 672,76 641,76 570,178 457,381 L 164,-76 c -22,-34 -53,-51 -92,-51 -42,0 -63,17 -64,51 -7,9 -10,24 -10,44 0,9 1,19 2,30 z"
   id="path26"
   inkscape:connector-curvature="0" />
  </g>
  <g
   id="bullet-char-template-10004"
   transform="matrix(4.8828125e-4,0,0,-4.8828125e-4,0,0)">
   <path
   d="M 285,-33 C 182,-33 111,30 74,156 52,228 41,333 41,471 c 0,78 14,145 41,201 34,71 87,106 158,106 53,0 88,-31 106,-94 l 23,-176 c 8,-64 28,-97 59,-98 l 735,706 c 11,11 33,17 66,17 42,0 63,-15 63,-46 V 965 c 0,-36 -10,-64 -30,-84 L 442,47 C 390,-6 338,-33 285,-33 Z"
   id="path29"
   inkscape:connector-curvature="0" />
  </g>
  <g
   id="bullet-char-template-9679"
   transform="matrix(4.8828125e-4,0,0,-4.8828125e-4,0,0)">
   <path
   d="M 813,0 C 632,0 489,54 383,161 276,268 223,411 223,592 c 0,181 53,324 160,431 106,107 249,161 430,161 179,0 323,-54 432,-161 108,-107 162,-251 162,-431 0,-180 -54,-324 -162,-431 C 1136,54 992,0 813,0 Z"
   id="path32"
   inkscape:connector-curvature="0" />
  </g>
  <g
   id="bullet-char-template-8226"
   transform="matrix(4.8828125e-4,0,0,-4.8828125e-4,0,0)">
   <path
   d="m 346,457 c -73,0 -137,26 -191,78 -54,51 -81,114 -81,188 0,73 27,136 81,188 54,52 118,78 191,78 73,0 134,-26 185,-79 51,-51 77,-114 77,-187 0,-75 -25,-137 -76,-188 -50,-52 -112,-78 -186,-78 z"
   id="path35"
   inkscape:connector-curvature="0" />
  </g>
  <g
   id="bullet-char-template-8211"
   transform="matrix(4.8828125e-4,0,0,-4.8828125e-4,0,0)">
   <path
   d="M -4,459 H 1135 V 606 H -4 Z"
   id="path38"
   inkscape:connector-curvature="0" />
  </g>
  <g
   id="bullet-char-template-61548"
   transform="matrix(4.8828125e-4,0,0,-4.8828125e-4,0,0)">
   <path
   d="m 173,740 c 0,163 58,303 173,419 116,115 255,173 419,173 163,0 302,-58 418,-173 116,-116 174,-256 174,-419 0,-163 -58,-303 -174,-418 C 1067,206 928,148 765,148 601,148 462,206 346,322 231,437 173,577 173,740 Z"
   id="path41"
   inkscape:connector-curvature="0" />
  </g>
 </defs>
 <g
   id="g49"
   transform="translate(-9603,-13825)">
  <g
   id="id2"
   class="Master_Slide">
   <g
   id="bg-id2"
   class="Background" />
   <g
   id="bo-id2"
   class="BackgroundObjects" />
  </g>
 </g>
 <g
   class="SlideGroup"
   id="g205"
   transform="translate(-9603,-13825)">
  <g
   id="g203">
   <g
   id="container-id1">
    <g
   id="id1"
   class="Slide"
   clip-path="url(#presentation_clip_path)">
     <g
   class="Page"
   id="g199">
      <g
   class="Graphic"
   id="g197">
       <g
   id="id3">
        <rect
   class="BoundingBox"
   x="9603"
   y="13825"
   width="1793"
   height="2050"
   id="rect51"
   style="fill:none;stroke:none" />
        <defs
   id="defs56">
         <clipPath
   id="clip_path_1"
   clipPathUnits="userSpaceOnUse">
          <path
   d="m 9603,13825 h 1792 v 2049 H 9603 Z"
   id="path53"
   inkscape:connector-curvature="0" />
         </clipPath>
        </defs>
        <g
   clip-path="url(#clip_path_1)"
   id="g194">
         <path
   d="m 10603,14288 -82,5 -79,10 -76,21 -74,25 -68,36 -67,38 -61,45 -56,51 -53,56 -46,61 -38,66 -33,69 -28,74 -20,76 -10,79 -6,81 6,82 10,79 20,76 28,71 33,71 38,64 46,61 53,56 56,53 61,46 67,38 68,33 74,28 76,21 79,10 82,5 81,-5 79,-10 76,-21 71,-28 71,-33 64,-38 61,-46 59,-53 50,-56 46,-61 38,-64 33,-71 28,-71 21,-76 10,-79 5,-82 -5,-81 -10,-79 -21,-76 -28,-74 -33,-69 -38,-66 -46,-61 -50,-56 -59,-51 -61,-45 -64,-38 -71,-36 -71,-25 -76,-21 -79,-10 z"
   id="path58"
   inkscape:connector-curvature="0"
   style="fill:#e0ba47;stroke:none" />
         <path
   d="m 9819,15081 v 0 l 5,-81 10,-76 21,-77 28,-71 30,-68 38,-64 46,-61 51,-56 56,-48 61,-46 64,-38 68,-33 72,-26 76,-20 76,-10 82,-5 v -26 l -82,5 -81,10 -77,21 -76,25 -69,38 -68,39 -61,45 -56,54 -56,56 -46,61 -38,68 -36,69 -28,76 -20,77 -10,81 -5,81 v 0 z"
   id="path60"
   inkscape:connector-curvature="0"
   style="fill:#000000;stroke:none" />
         <path
   d="m 10603,15862 v 0 l -82,-5 -76,-10 -76,-20 -72,-28 -68,-31 -64,-38 -61,-46 -56,-51 -51,-56 -46,-61 -38,-61 -30,-71 -28,-69 -21,-76 -10,-76 -5,-82 h -25 l 5,82 10,81 20,77 28,73 36,72 38,66 46,61 56,56 56,56 61,45 68,39 69,35 76,28 77,20 81,11 82,5 v 0 z"
   id="path62"
   inkscape:connector-curvature="0"
   style="fill:#000000;stroke:none" />
         <path
   d="m 11383,15081 v 0 l -5,82 -10,76 -20,76 -28,69 -31,71 -38,61 -46,61 -48,56 -59,51 -61,46 -61,38 -71,31 -69,28 -76,20 -76,10 -81,5 v 26 l 81,-5 81,-11 77,-20 73,-28 72,-35 66,-39 61,-45 58,-56 54,-56 45,-61 39,-66 35,-72 28,-73 20,-77 11,-81 5,-82 v 0 z"
   id="path64"
   inkscape:connector-curvature="0"
   style="fill:#000000;stroke:none" />
         <path
   d="m 10603,14301 v 0 l 81,5 76,10 76,20 69,26 71,33 61,38 61,46 59,48 48,56 46,61 38,64 31,68 28,71 20,77 10,76 5,81 h 26 l -5,-81 -11,-81 -20,-77 -28,-76 -35,-69 -39,-68 -45,-61 -54,-56 -58,-54 -61,-45 -66,-39 -72,-38 -73,-25 -77,-21 -81,-10 -81,-5 v 0 z"
   id="path66"
   inkscape:connector-curvature="0"
   style="fill:#000000;stroke:none" />
         <path
   d="m 10603,15687 61,-3 61,-10 58,-15 53,-21 54,-25 51,-30 46,-34 43,-40 40,-43 34,-46 30,-51 25,-54 21,-53 15,-58 10,-62 3,-61 -3,-61 -10,-61 -15,-58 -21,-56 -25,-53 -30,-51 -34,-46 -40,-43 -43,-39 -46,-35 -51,-31 -54,-25 -53,-20 -58,-16 -61,-10 -61,-2 -62,2 -61,10 -58,16 -56,20 -53,25 -51,31 -46,35 -43,39 -38,43 -36,46 -31,51 -25,53 -20,56 -16,58 -10,61 -2,61 2,61 10,62 16,58 20,53 25,54 31,51 36,46 38,43 43,40 46,34 51,30 53,25 56,21 58,15 61,10 z"
   id="path68"
   inkscape:connector-curvature="0"
   style="fill:#ffffff;stroke:none" />
         <path
   d="m 10603,15687 v 0 l 61,-3 61,-10 58,-15 53,-21 54,-25 51,-30 46,-34 43,-40 40,-43 34,-46 30,-51 25,-54 21,-53 15,-58 10,-62 3,-61 v 0 l -3,-61 -10,-61 -15,-58 -21,-56 -25,-53 -30,-51 -34,-46 -40,-43 -43,-39 -46,-35 -51,-31 -54,-25 -53,-20 -58,-16 -61,-10 -61,-2 v 0 l -62,2 -61,10 -58,16 -56,20 -53,25 -51,31 -46,35 -43,39 -38,43 -36,46 -31,51 -25,53 -20,56 -16,58 -10,61 -2,61 v 0 l 2,61 10,62 16,58 20,53 25,54 31,51 36,46 38,43 43,40 46,34 51,30 53,25 56,21 58,15 61,10 z"
   id="path70"
   inkscape:connector-curvature="0"
   style="fill:none;stroke:#000000" />
         <path
   d="m 10338,14535 28,53"
   id="path72"
   inkscape:connector-curvature="0"
   style="fill:none;stroke:#000000" />
         <path
   d="m 10101,14741 51,30"
   id="path74"
   inkscape:connector-curvature="0"
   style="fill:none;stroke:#000000" />
         <path
   d="m 9997,15036 61,2"
   id="path76"
   inkscape:connector-curvature="0"
   style="fill:none;stroke:#000000" />
         <path
   d="m 10056,15343 53,-28"
   id="path78"
   inkscape:connector-curvature="0"
   style="fill:none;stroke:#000000" />
         <path
   d="m 10262,15580 30,-51"
   id="path80"
   inkscape:connector-curvature="0"
   style="fill:none;stroke:#000000" />
         <path
   d="m 10557,15684 2,-61"
   id="path82"
   inkscape:connector-curvature="0"
   style="fill:none;stroke:#000000" />
         <path
   d="m 10864,15626 -28,-54"
   id="path84"
   inkscape:connector-curvature="0"
   style="fill:none;stroke:#000000" />
         <path
   d="m 11101,15422 -51,-33"
   id="path86"
   inkscape:connector-curvature="0"
   style="fill:none;stroke:#000000" />
         <path
   d="m 11205,15125 -61,-3"
   id="path88"
   inkscape:connector-curvature="0"
   style="fill:none;stroke:#000000" />
         <path
   d="m 11147,14817 -54,28"
   id="path90"
   inkscape:connector-curvature="0"
   style="fill:none;stroke:#000000" />
         <path
   d="m 10943,14580 -33,51"
   id="path92"
   inkscape:connector-curvature="0"
   style="fill:none;stroke:#000000" />
         <path
   d="m 10646,14476 -3,61"
   id="path94"
   inkscape:connector-curvature="0"
   style="fill:none;stroke:#000000" />
         <path
   d="m 10175,14420 h -7 -8 -8 -7 l -61,-5 -56,-18 -51,-28 -43,-35 -36,-44 -28,-50 -18,-56 -5,-61 5,-59 18,-56 28,-51 36,-46 43,-35 51,-28 56,-18 61,-5 58,5 56,18 51,28 46,35 35,46 28,51 18,56 5,59 -2,28 -3,28 -7,28 -8,25 -13,25 -13,23 -15,23 -18,21 -12,-8 -8,-10 -5,-13 v -15 l 23,-33 15,-38 13,-41 2,-43 -5,-51 -15,-46 -23,-41 -30,-38 -36,-30 -41,-21 -48,-15 -48,-5 -51,5 -46,15 -43,21 -36,30 -30,38 -23,41 -15,46 -6,51 6,50 15,46 23,43 30,36 36,31 43,22 46,16 51,5 h 5 7 8 l 5,-3 8,16 2,12 v 13 z"
   id="path96"
   inkscape:connector-curvature="0"
   style="fill:#000000;stroke:none" />
         <path
   d="m 10399,14120 v 0 l -5,-51 -15,-51 -23,-43 -31,-38 -38,-31 -46,-25 -48,-15 -51,-5 v 0 l -51,5 -51,15 -43,25 -38,31 -30,38 -26,43 -15,51 -5,51"
   id="path98"
   inkscape:connector-curvature="0"
   style="fill:none;stroke:#e0ba47" />
         <path
   d="m 10066,14059 8,-18 35,-5 8,-8 28,-2 5,-13 25,-2 8,-11 h 43 l 5,-12 82,163 -18,38 61,135 -26,20 -25,15 -25,15 -26,13 -23,10 -20,8 -18,5 -13,3 -45,-97 -34,-38 -40,-5 -84,-171 5,-10 13,-2 7,-13 h 16 l 17,-18 z"
   id="path100"
   inkscape:connector-curvature="0"
   style="fill:#e0ba47;stroke:none" />
         <path
   d="m 9768,14860 v 3 l -2,7 -5,11 v 10 l -16,-3 v -5 -10 l 3,-13 5,-13 -125,-30 3,-8 5,-7 5,-8 8,-5 124,28 v 10 10 l -2,13 z"
   id="path102"
   inkscape:connector-curvature="0"
   style="fill:#e0ba47;stroke:none" />
         <path
   d="m 10035,13886 v -3 h -7 l -10,3 -13,3 -15,7 -16,8 -17,10 -13,13 -26,30 -17,33 -16,33 -7,33 2,18 13,-18 15,-28 10,-20 3,-5 5,-10 8,-13 10,-15 15,-15 18,-21 23,-18 30,-17 z"
   id="path104"
   inkscape:connector-curvature="0"
   style="fill:#e0ba47;stroke:none" />
         <path
   d="m 10402,14166 v 23 l -8,33 -13,25 -15,10 -5,-5 2,-10 8,-10 5,-8 8,-17 5,-23 7,-16 z"
   id="path106"
   inkscape:connector-curvature="0"
   style="fill:#e0ba47;stroke:none" />
         <path
   d="m 9628,14817 3,-8 5,-7 5,-8 8,-5 z"
   id="path108"
   inkscape:connector-curvature="0"
   style="fill:#ffffff;stroke:none" />
         <path
   d="m 10381,14687 -15,3 -13,-3 -10,-10 -8,-13 -5,-12 v -16 l 3,-12 13,-13 2,-3 h 5 5 5 l 3,3 h 5 l 3,2 2,6 -15,7 v -2 l -3,-3 h -5 l -2,3 -5,5 -3,5 3,7 2,8 v 0 -2 l 3,-3 2,-5 5,-3 11,-2 10,2 7,5 8,8 2,13 v 10 l -5,10 -10,5 -5,-10 3,-2 2,-6 v -5 l -2,-7 -5,-5 -3,-3 -5,-2 -5,2 -3,3 -2,5 v 5 5 l 5,5 5,5 h 5 5 z"
   id="path110"
   inkscape:connector-curvature="0"
   style="fill:#000000;stroke:none" />
         <path
   d="m 10402,14583 -11,8 -5,12 v 13 l 8,18 10,18 10,10 13,2 13,-5 10,-7 5,-11 v -15 l -8,-18 -10,-15 -10,-10 -13,-3 -12,3 5,13 7,-3 5,5 5,8 8,10 5,13 3,10 -3,5 -5,5 h -5 l -5,-2 -5,-8 -8,-13 -5,-13 -2,-7 v -5 l 5,-5 z"
   id="path112"
   inkscape:connector-curvature="0"
   style="fill:#000000;stroke:none" />
         <path
   d="m 10628,14598 v -2 l 2,-3 3,-2 5,-3 8,-3 h 10 l 10,6 8,10 2,10 v 10 l -5,10 -13,10 -10,3 h -10 l -8,-5 -7,-8 15,-7 3,2 2,3 h 5 5 l 5,-3 3,-5 v -8 l -3,-5 -2,-2 -5,-5 h -5 -5 -3 l -2,2 -3,3 v 5 l -13,5 -15,-43 41,-21 7,13 -30,15 z"
   id="path114"
   inkscape:connector-curvature="0"
   style="fill:#000000;stroke:none" />
         <path
   d="m 10821,14692 h 3 l 7,-5 5,-5 v -5 -5 l 13,-8 36,77 -15,5 -26,-51 -18,10 z"
   id="path116"
   inkscape:connector-curvature="0"
   style="fill:#000000;stroke:none" />
         <path
   d="m 10971,14883 h 3 l 7,-5 3,-8 3,-5 -3,-5 13,-5 35,74 -15,7 -23,-50 -18,7 z"
   id="path118"
   inkscape:connector-curvature="0"
   style="fill:#000000;stroke:none" />
         <path
   d="m 11048,14868 2,-3 3,-2 2,-3 5,-2 8,-3 h 10 l 8,5 7,10 3,8 v 10 l -5,13 -10,7 -11,3 h -10 l -7,-3 -8,-10 15,-5 3,3 2,2 h 5 6 l 2,-5 3,-5 v -5 l -3,-5 -2,-5 -3,-3 -5,-2 -5,2 h -3 l -2,3 -3,2 v 6 l -15,5 -13,-44 41,-20 5,13 -31,15 z"
   id="path120"
   inkscape:connector-curvature="0"
   style="fill:#000000;stroke:none" />
         <path
   d="m 11017,15135 -2,-15 2,-13 5,-8 8,-2 10,-3 h 10 l 8,5 7,8 3,10 v 10 l -3,8 -2,5 -5,8 -3,7 -2,3 v 5 l 30,-18 8,15 -51,23 -3,-5 -2,-10 2,-10 5,-13 6,-10 5,-8 v -7 l -3,-5 -2,-3 -3,-5 h -5 l -5,2 -5,6 v 2 5 l 2,5 z"
   id="path122"
   inkscape:connector-curvature="0"
   style="fill:#000000;stroke:none" />
         <path
   d="m 10946,15369 -3,-15 3,-13 5,-8 8,-2 10,-3 h 12 l 8,3 5,10 3,10 v 8 l -3,7 -2,8 -5,8 -3,5 -3,5 v 2 l 34,-15 5,13 -51,25 -3,-5 v -10 -10 l 5,-13 5,-10 5,-8 v -7 -5 l -2,-3 -5,-5 h -3 l -5,2 -5,6 -2,2 v 5 l 2,5 z"
   id="path124"
   inkscape:connector-curvature="0"
   style="fill:#000000;stroke:none" />
         <path
   d="m 11022,15338 v -2 l 3,-5 2,-3 5,-2 h 8 10 l 10,5 8,10 2,8 v 10 l -5,12 -12,8 -11,3 h -10 l -7,-6 -8,-7 15,-8 5,5 3,3 h 5 l 3,-3 5,-2 2,-5 v -5 l -2,-5 -3,-6 -5,-2 -5,-3 -5,3 h -3 l -2,2 -3,3 v 5 l -12,5 -16,-43 41,-20 8,12 -31,16 z"
   id="path126"
   inkscape:connector-curvature="0"
   style="fill:#000000;stroke:none" />
         <path
   d="m 10778,15549 h 3 l 5,-2 2,-3 3,-5 -3,-7 -2,-3 -3,-2 h -5 -5 l -5,5 v 5 5 l 2,2 -15,8 -2,-10 2,-10 5,-8 10,-8 8,-2 10,-3 8,5 7,8 v 5 5 5 l -2,5 v 0 h 2 6 l 7,3 5,8 3,10 -3,12 -5,8 -10,8 -8,2 h -10 l -10,-2 -10,-13 15,-8 v 0 l 3,5 2,3 5,3 8,-3 2,-3 3,-2 v -5 -8 l -5,-5 h -5 -8 l -5,3 z"
   id="path128"
   inkscape:connector-curvature="0"
   style="fill:#000000;stroke:none" />
         <path
   d="m 10524,15572 2,-2 5,-3 3,-2 2,-5 -2,-5 v -3 l -3,-3 -5,-2 -5,2 -5,6 v 5 5 2 l -13,5 -2,-10 v -10 l 5,-8 10,-7 8,-3 h 10 l 7,5 8,8 3,5 v 5 l -3,5 -2,3 v 0 h 2 l 8,2 5,3 5,7 2,11 -2,10 -5,7 -10,8 -5,3 -11,2 -10,-5 -10,-13 13,-5 v 0 l 2,3 3,5 5,2 8,-2 2,-3 5,-5 v -5 l -2,-5 -5,-5 h -6 -7 l -5,3 z"
   id="path130"
   inkscape:connector-curvature="0"
   style="fill:#000000;stroke:none" />
         <path
   d="m 10580,15544 v -2 l 2,-3 3,-2 5,-3 7,-2 h 11 l 7,5 8,10 2,10 v 10 l -5,10 -10,11 -10,2 h -10 l -8,-5 -7,-8 15,-7 2,2 3,3 h 5 5 l 5,-3 3,-5 v -7 l -3,-5 -5,-3 -2,-5 h -6 -5 -2 l -3,2 -2,3 v 5 l -13,5 -15,-43 40,-20 6,12 -28,16 z"
   id="path132"
   inkscape:connector-curvature="0"
   style="fill:#000000;stroke:none" />
         <path
   d="m 10315,15483 -5,-12 -5,-11 -3,-7 -2,-3 v 0 l -3,41 18,-8 5,10 -28,16 -7,-13 7,-58 15,-11 23,49 8,-5 5,12 -8,3 8,18 -15,7 -8,-18 z"
   id="path134"
   inkscape:connector-curvature="0"
   style="fill:#000000;stroke:none" />
         <path
   d="m 10188,15265 2,-3 3,-3 3,-2 5,-3 7,-2 h 10 l 8,5 8,10 2,8 v 12 l -5,11 -10,10 -10,2 -10,-2 -8,-3 -8,-10 16,-5 2,3 3,2 h 5 5 l 5,-5 3,-5 v -5 l -3,-5 -5,-5 -3,-3 -5,-2 -5,2 h -2 l -3,3 -2,2 v 5 l -13,5 -15,-43 40,-20 5,13 -30,15 z"
   id="path136"
   inkscape:connector-curvature="0"
   style="fill:#000000;stroke:none" />
         <path
   d="m 10094,15069 2,-3 3,-2 2,-3 3,-2 8,-3 h 10 l 10,5 8,10 2,8 v 10 l -5,13 -13,7 -7,3 h -10 l -8,-3 -8,-10 13,-5 5,3 3,2 h 5 2 l 5,-5 3,-5 v -5 l -3,-5 -2,-5 -5,-3 -5,-2 -5,2 v 0 l -3,3 -3,2 -2,5 -13,6 -15,-44 43,-20 5,13 -30,15 z"
   id="path138"
   inkscape:connector-curvature="0"
   style="fill:#000000;stroke:none" />
         <path
   d="m 10160,14827 3,-2 v -3 l 2,-3 5,-2 8,-3 h 10 l 10,5 8,11 2,10 v 10 l -5,10 -13,10 -7,3 h -10 l -10,-5 -8,-8 15,-7 5,2 3,3 h 5 2 l 5,-3 3,-5 v -8 l -3,-5 -2,-2 -5,-5 h -5 -5 -3 l -2,2 -3,3 v 5 l -13,5 -15,-43 41,-21 7,13 -30,15 z"
   id="path140"
   inkscape:connector-curvature="0"
   style="fill:#000000;stroke:none" />
         <path
   d="m 10218,14799 3,-2 v -3 l 3,-2 5,-3 7,-3 h 10 l 11,6 7,10 3,10 v 10 l -5,10 -13,10 -8,3 h -10 l -10,-5 -8,-8 16,-7 5,2 2,3 h 5 3 l 5,-3 3,-5 v -8 l -3,-5 -3,-2 -5,-5 h -5 -5 -2 l -3,2 -2,3 v 5 l -13,5 -15,-43 40,-21 8,13 -31,15 z"
   id="path142"
   inkscape:connector-curvature="0"
   style="fill:#000000;stroke:none" />
         <path
   d="m 10898,14641 -11,8 -5,13 v 13 l 8,17 10,16 10,10 10,5 13,-5 10,-8 5,-10 v -15 l -7,-18 -10,-15 -11,-11 -10,-2 -12,2 5,13 5,-2 5,5 5,7 7,11 6,12 2,10 v 5 l -5,6 h -8 l -5,-3 -5,-8 -5,-12 -5,-13 -2,-8 v -7 l 5,-3 z"
   id="path144"
   inkscape:connector-curvature="0"
   style="fill:#000000;stroke:none" />
         <path
   d="m 11088,15069 -10,7 -5,11 v 15 l 8,18 10,15 10,10 13,3 12,-3 11,-8 5,-10 v -15 l -8,-18 -10,-15 -10,-10 -13,-3 -13,3 5,10 h 8 l 5,2 5,8 8,13 5,13 2,7 -2,8 -5,2 -5,3 -5,-5 -5,-8 -8,-10 -5,-13 -3,-10 v -5 l 5,-5 z"
   id="path146"
   inkscape:connector-curvature="0"
   style="fill:#000000;stroke:none" />
         <path
   d="m 10348,15410 -10,7 -5,10 v 16 l 8,17 10,16 10,10 13,2 12,-2 10,-8 6,-10 -3,-15 -5,-18 -10,-15 -10,-10 -13,-3 -13,3 5,10 h 8 l 5,2 5,8 8,13 5,12 2,8 -2,8 -5,2 -5,3 -5,-5 -6,-8 -7,-10 -5,-13 -3,-10 v -5 l 5,-5 z"
   id="path148"
   inkscape:connector-curvature="0"
   style="fill:#000000;stroke:none" />
         <path
   d="m 10152,15303 -5,-13 -5,-10 -2,-8 -3,-2 v 0 l -2,40 17,-7 5,10 -28,15 -7,-13 5,-58 18,-8 23,46 7,-5 5,13 -7,5 7,15 -15,8 -8,-18 z"
   id="path150"
   inkscape:connector-curvature="0"
   style="fill:#000000;stroke:none" />
         <path
   d="m 10829,15488 -10,8 -5,10 v 13 l 7,18 10,18 11,10 10,2 12,-2 11,-8 5,-13 v -12 l -8,-18 -10,-18 -10,-10 -10,-3 -13,5 5,11 h 5 l 8,2 5,8 5,12 5,13 2,8 v 5 l -5,5 -5,3 -5,-6 -7,-7 -6,-10 -5,-13 -2,-10 v -5 l 5,-5 z"
   id="path152"
   inkscape:connector-curvature="0"
   style="fill:#000000;stroke:none" />
         <path
   d="m 10150,15005 -10,8 -5,10 v 15 l 7,18 10,15 11,10 10,3 12,-3 11,-7 5,-10 v -16 l -8,-17 -10,-16 -10,-10 -10,-2 -13,2 5,13 5,-3 5,3 5,7 8,13 5,13 2,10 v 5 l -5,3 -5,2 -5,-2 -7,-8 -6,-13 -5,-12 -2,-11 v -5 l 5,-2 z"
   id="path154"
   inkscape:connector-curvature="0"
   style="fill:#000000;stroke:none" />
         <path
   d="m 10190,14176 -15,-33 -25,-48 -23,-46 -10,-21 15,-2 3,5 10,18 10,23 15,25 13,26 13,25 7,18 5,7 5,3 h 5 l 6,-5 v -8 l -16,-33 -25,-51 -23,-45 -10,-21 h 10 l 3,5 10,16 10,22 15,26 13,28 13,23 7,18 5,7 8,5 h 8 l 5,-5 v -7 l -18,-36 -26,-51 -20,-43 -10,-21 h 7 l 3,6 10,17 10,23 16,28 15,28 13,23 10,20 5,8 8,5 12,-2 8,-5 -3,-16 -15,-33 -23,-46 -20,-43 -10,-18 2,-7 82,163 -18,38 h -5 l -8,-3 -13,3 -7,5 7,28 26,48 25,48 10,23 -10,8 -10,-23 -20,-51 -26,-51 -18,-25 -12,-3 -10,5 -8,8 v 8 l 5,7 10,18 10,26 16,25 12,25 13,23 8,18 2,5 -2,3 -5,2 -11,5 -12,8 -13,8 -15,7 -18,8 -15,5 -66,-127 h -3 l -5,5 v 8 l 8,20 -34,-38 -40,-5 -84,-171 5,-10 13,-2 7,-13 h 16 l 17,-18 18,3 76,145 8,2 h 8 l 7,-5 v -10 l -78,-153 17,-2 82,147 5,5 7,-2 5,-5 z"
   id="path156"
   inkscape:connector-curvature="0"
   style="fill:#000000;stroke:none" />
         <path
   d="m 10193,14438 5,-3 10,-2 21,-8 20,-10 25,-10 28,-15 26,-18 23,-18 -5,10 -11,21 -17,25 -23,15 -13,3 -13,5 -12,2 h -16 l -12,3 h -13 -13 z"
   id="path158"
   inkscape:connector-curvature="0"
   style="fill:#000000;stroke:none" />
         <path
   d="m 9862,14883 -94,-23 v 3 l -2,7 -5,11 v 10 l -16,-3 v -5 -10 l 3,-13 5,-13 -125,-30 -5,10 -7,26 -5,33 v 30 l 2,8 3,2 2,3 h 3 l 7,2 13,3 20,2 21,6 23,2 18,5 12,3 h 5 l 11,-10 96,20 v -5 l 3,-15 5,-26 z"
   id="path160"
   inkscape:connector-curvature="0"
   style="fill:#000000;stroke:none" />
         <path
   d="m 10681,14451 -2,-3 -8,-7 -7,-11 -8,-12 -3,-11 3,-5 13,-2 23,2 15,3 18,5 20,3 20,5 23,5 26,7 25,8 28,8 31,12 30,16 31,15 33,20 35,23 33,26 38,30 36,33 -5,-15 -3,-3 -7,-10 -15,-13 -18,-17 -26,-21 -28,-23 -33,-23 -38,-22 -43,-23 -46,-23 -51,-18 -56,-18 -58,-10 -61,-8 h -66 l -69,8 -69,15 -66,21 -63,25 -61,33 -56,41 -54,43 -48,48 -43,51 -39,56 -35,59 -28,61 -20,63 -18,66 -10,67 -3,66 5,68 -8,5 -12,11 -13,12 -5,18 v 5 l 15,64 18,63 25,59 31,56 33,56 38,48 43,48 49,44 48,38 53,35 56,31 61,25 61,18 64,16 66,10 69,2 76,-5 71,-10 72,-18 68,-25 64,-31 61,-38 58,-43 54,-49 46,-50 43,-59 38,-61 30,-64 26,-68 18,-71 10,-74 5,-76 -3,-51 -5,-51 -7,-51 -13,-48 -15,-46 -18,-46 -20,-43 -26,-43 v 5 l 3,5 5,7 2,16 v 12 l -48,-68 h -3 -5 -7 l -8,5 3,2 5,10 5,11 5,7 -36,-30 h -2 -8 l -10,2 -8,3 5,7 18,23 23,36 26,48 28,56 22,66 18,74 10,79 h 3 l 8,-5 7,-13 8,-28 v 5 18 28 l -3,36 -5,43 -10,48 -13,54 -15,56 -25,58 -28,59 -36,58 -46,56 -53,51 -61,48 -74,44 -84,33 5,-11 5,-17 -2,-16 -23,-2 -20,5 -21,5 -23,5 -23,3 -20,2 -20,3 h -21 -17 l 7,10 8,20 -3,23 -28,10 h -15 -25 l -31,-2 -36,-3 -40,-7 -46,-8 -48,-10 -49,-18 -53,-20 -51,-23 -51,-31 -51,-38 -45,-43 -44,-51 -40,-59 -33,-66 2,-5 8,-10 15,-10 18,-3 -10,-20 -26,-51 -25,-79 -10,-91 v 2 l -3,-12 v -28 l 3,-41 7,-48 13,-59 18,-64 25,-66 36,-66 46,-66 58,-61 71,-53 84,-49 104,-35 120,-21 z"
   id="path162"
   inkscape:connector-curvature="0"
   style="fill:#000000;stroke:none" />
         <path
   d="m 9644,14794 7,-5 117,25 -7,5 z"
   id="path164"
   inkscape:connector-curvature="0"
   style="fill:#000000;stroke:none" />
         <path
   d="m 10496,15038 38,-2 35,-13 31,-18 28,-23 23,-28 18,-30 12,-36 3,-38 -3,-38 -12,-36 -18,-30 -23,-28 -28,-23 -31,-18 -35,-13 -38,-2 -38,2 -36,13 -31,18 -28,23 -22,28 -18,30 -13,36 -3,38 3,38 13,36 18,30 22,28 28,23 31,18 36,13 z"
   id="path166"
   inkscape:connector-curvature="0"
   style="fill:#f7edd1;stroke:none" />
         <path
   d="m 10496,15038 v 0 l 38,-2 35,-13 31,-18 28,-23 23,-28 18,-30 12,-36 3,-38 v 0 l -3,-38 -12,-36 -18,-30 -23,-28 -28,-23 -31,-18 -35,-13 -38,-2 v 0 l -38,2 -36,13 -31,18 -28,23 -22,28 -18,30 -13,36 -3,38 v 0 l 3,38 13,36 18,30 22,28 28,23 31,18 36,13 z"
   id="path168"
   inkscape:connector-curvature="0"
   style="fill:none;stroke:#000000" />
         <path
   d="m 10414,14682 16,23"
   id="path170"
   inkscape:connector-curvature="0"
   style="fill:none;stroke:#000000" />
         <path
   d="m 10330,14764 26,12"
   id="path172"
   inkscape:connector-curvature="0"
   style="fill:none;stroke:#000000" />
         <path
   d="m 10313,14881 28,-6"
   id="path174"
   inkscape:connector-curvature="0"
   style="fill:none;stroke:#000000" />
         <path
   d="m 10363,14982 21,-20"
   id="path176"
   inkscape:connector-curvature="0"
   style="fill:none;stroke:#000000" />
         <path
   d="m 10468,15036 2,-26"
   id="path178"
   inkscape:connector-curvature="0"
   style="fill:none;stroke:#000000" />
         <path
   d="m 10580,15018 -5,-18"
   id="path180"
   inkscape:connector-curvature="0"
   style="fill:none;stroke:#000000" />
         <path
   d="m 10661,14939 -23,-13"
   id="path182"
   inkscape:connector-curvature="0"
   style="fill:none;stroke:#000000" />
         <path
   d="m 10681,14827 -25,5"
   id="path184"
   inkscape:connector-curvature="0"
   style="fill:none;stroke:#000000" />
         <path
   d="m 10633,14725 -18,18"
   id="path186"
   inkscape:connector-curvature="0"
   style="fill:none;stroke:#000000" />
         <path
   d="m 10536,14667 -5,28"
   id="path188"
   inkscape:connector-curvature="0"
   style="fill:none;stroke:#000000" />
         <path
   d="m 10524,14825 5,5 2,5 3,7 v 8 l -3,10 -2,10 -5,8 -8,8 v -3 l 18,48 -21,8 -15,-48 v 0 h -2 v 0 0 0 l -16,-3 -12,-10 -10,-13 -3,-15 3,-10 2,-10 8,-8 7,-5 v 0 l -38,-130 h 5 l 46,125 v 0 h 3 2 v 0 h 3 2 5 3 l 2,2 3,3 v 0 h -3 -2 -3 -2 l -5,2 v 3 h 5 l 5,3 7,2 6,8 5,5 2,-3 v -2 l -2,-3 v -2 l -3,-5 v -3 z"
   id="path190"
   inkscape:connector-curvature="0"
   style="fill:#b20000;stroke:none" />
         <path
   d="m 10608,15122 15,-2 15,-11 10,-12 5,-18 v -15 l -7,-13 -10,-13 -13,-7 v 0 l 20,-102 -28,-3 -15,102 v 0 l -15,5 -13,8 -10,15 -5,15 v 16 l 7,12 8,10 13,11 v 0 l -87,534 13,2 z"
   id="path192"
   inkscape:connector-curvature="0"
   style="fill:#000000;stroke:none" />
        </g>
       </g>
      </g>
     </g>
    </g>
   </g>
  </g>
 </g>
</svg>