<?xml version="1.0" encoding="UTF-8" standalone="no"?>
<svg
   xmlns:ooo="http://xml.openoffice.org/svg/export"
   xmlns:dc="http://purl.org/dc/elements/1.1/"
   xmlns:cc="http://creativecommons.org/ns#"
   xmlns:rdf="http://www.w3.org/1999/02/22-rdf-syntax-ns#"
   xmlns:svg="http://www.w3.org/2000/svg"
   xmlns="http://www.w3.org/2000/svg"
   xmlns:sodipodi="http://sodipodi.sourceforge.net/DTD/sodipodi-0.dtd"
   xmlns:inkscape="http://www.inkscape.org/namespaces/inkscape"
   version="1.2"
   width="39.419998mm"
   height="27.84mm"
   viewBox="0 0 3941.9998 2784"
   preserveAspectRatio="xMidYMid"
   xml:space="preserve"
   id="svg89"
   sodipodi:docname="stpatty.svg"
   style="fill-rule:evenodd;stroke-width:28.22200012;stroke-linejoin:round"
   inkscape:version="0.92.5 (2060ec1f9f, 2020-04-08)"><metadata
   id="metadata93"><rdf:RDF><cc:Work
       rdf:about=""><dc:format>image/svg+xml</dc:format><dc:type
         rdf:resource="http://purl.org/dc/dcmitype/StillImage" /></cc:Work></rdf:RDF></metadata><sodipodi:namedview
   pagecolor="#ffffff"
   bordercolor="#666666"
   borderopacity="1"
   objecttolerance="10"
   gridtolerance="10"
   guidetolerance="10"
   inkscape:pageopacity="0"
   inkscape:pageshadow="2"
   inkscape:window-width="664"
   inkscape:window-height="487"
   id="namedview91"
   showgrid="false"
   inkscape:zoom="0.2102413"
   inkscape:cx="74.494489"
   inkscape:cy="52.611022"
   inkscape:window-x="0"
   inkscape:window-y="0"
   inkscape:window-maximized="0"
   inkscape:current-layer="svg89" />
 <defs
   class="ClipPathGroup"
   id="defs8">
  <clipPath
   id="presentation_clip_path"
   clipPathUnits="userSpaceOnUse">
   <rect
   x="0"
   y="0"
   width="21000"
   height="29700"
   id="rect2" />
  </clipPath>
  <clipPath
   id="presentation_clip_path_shrink"
   clipPathUnits="userSpaceOnUse">
   <rect
   x="21"
   y="29"
   width="20958"
   height="29641"
   id="rect5" />
  </clipPath>
 </defs>
 <defs
   class="TextShapeIndex"
   id="defs12">
  <g
   ooo:slide="id1"
   ooo:id-list="id3"
   id="g10" />
 </defs>
 <defs
   class="EmbeddedBulletChars"
   id="defs44">
  <g
   id="bullet-char-template-57356"
   transform="matrix(4.8828125e-4,0,0,-4.8828125e-4,0,0)">
   <path
   d="M 580,1141 1163,571 580,0 -4,571 Z"
   id="path14"
   inkscape:connector-curvature="0" />
  </g>
  <g
   id="bullet-char-template-57354"
   transform="matrix(4.8828125e-4,0,0,-4.8828125e-4,0,0)">
   <path
   d="M 8,1128 H 1137 V 0 H 8 Z"
   id="path17"
   inkscape:connector-curvature="0" />
  </g>
  <g
   id="bullet-char-template-10146"
   transform="matrix(4.8828125e-4,0,0,-4.8828125e-4,0,0)">
   <path
   d="M 174,0 602,739 174,1481 1456,739 Z M 1358,739 309,1346 659,739 Z"
   id="path20"
   inkscape:connector-curvature="0" />
  </g>
  <g
   id="bullet-char-template-10132"
   transform="matrix(4.8828125e-4,0,0,-4.8828125e-4,0,0)">
   <path
   d="M 2015,739 1276,0 H 717 l 543,543 H 174 v 393 h 1086 l -543,545 h 557 z"
   id="path23"
   inkscape:connector-curvature="0" />
  </g>
  <g
   id="bullet-char-template-10007"
   transform="matrix(4.8828125e-4,0,0,-4.8828125e-4,0,0)">
   <path
   d="m 0,-2 c -7,16 -16,29 -25,39 l 381,530 c -94,256 -141,385 -141,387 0,25 13,38 40,38 9,0 21,-2 34,-5 21,4 42,12 65,25 l 27,-13 111,-251 280,301 64,-25 24,25 c 21,-10 41,-24 62,-43 C 886,937 835,863 770,784 769,783 710,716 594,584 L 774,223 c 0,-27 -21,-55 -63,-84 l 16,-20 C 717,90 699,76 672,76 641,76 570,178 457,381 L 164,-76 c -22,-34 -53,-51 -92,-51 -42,0 -63,17 -64,51 -7,9 -10,24 -10,44 0,9 1,19 2,30 z"
   id="path26"
   inkscape:connector-curvature="0" />
  </g>
  <g
   id="bullet-char-template-10004"
   transform="matrix(4.8828125e-4,0,0,-4.8828125e-4,0,0)">
   <path
   d="M 285,-33 C 182,-33 111,30 74,156 52,228 41,333 41,471 c 0,78 14,145 41,201 34,71 87,106 158,106 53,0 88,-31 106,-94 l 23,-176 c 8,-64 28,-97 59,-98 l 735,706 c 11,11 33,17 66,17 42,0 63,-15 63,-46 V 965 c 0,-36 -10,-64 -30,-84 L 442,47 C 390,-6 338,-33 285,-33 Z"
   id="path29"
   inkscape:connector-curvature="0" />
  </g>
  <g
   id="bullet-char-template-9679"
   transform="matrix(4.8828125e-4,0,0,-4.8828125e-4,0,0)">
   <path
   d="M 813,0 C 632,0 489,54 383,161 276,268 223,411 223,592 c 0,181 53,324 160,431 106,107 249,161 430,161 179,0 323,-54 432,-161 108,-107 162,-251 162,-431 0,-180 -54,-324 -162,-431 C 1136,54 992,0 813,0 Z"
   id="path32"
   inkscape:connector-curvature="0" />
  </g>
  <g
   id="bullet-char-template-8226"
   transform="matrix(4.8828125e-4,0,0,-4.8828125e-4,0,0)">
   <path
   d="m 346,457 c -73,0 -137,26 -191,78 -54,51 -81,114 -81,188 0,73 27,136 81,188 54,52 118,78 191,78 73,0 134,-26 185,-79 51,-51 77,-114 77,-187 0,-75 -25,-137 -76,-188 -50,-52 -112,-78 -186,-78 z"
   id="path35"
   inkscape:connector-curvature="0" />
  </g>
  <g
   id="bullet-char-template-8211"
   transform="matrix(4.8828125e-4,0,0,-4.8828125e-4,0,0)">
   <path
   d="M -4,459 H 1135 V 606 H -4 Z"
   id="path38"
   inkscape:connector-curvature="0" />
  </g>
  <g
   id="bullet-char-template-61548"
   transform="matrix(4.8828125e-4,0,0,-4.8828125e-4,0,0)">
   <path
   d="m 173,740 c 0,163 58,303 173,419 116,115 255,173 419,173 163,0 302,-58 418,-173 116,-116 174,-256 174,-419 0,-163 -58,-303 -174,-418 C 1067,206 928,148 765,148 601,148 462,206 346,322 231,437 173,577 173,740 Z"
   id="path41"
   inkscape:connector-curvature="0" />
  </g>
 </defs>
 <g
   id="g49"
   transform="translate(-8529,-13458)">
  <g
   id="id2"
   class="Master_Slide">
   <g
   id="bg-id2"
   class="Background" />
   <g
   id="bo-id2"
   class="BackgroundObjects" />
  </g>
 </g>
 <g
   class="SlideGroup"
   id="g87"
   transform="translate(-8529,-13458)">
  <g
   id="g85">
   <g
   id="container-id1">
    <g
   id="id1"
   class="Slide"
   clip-path="url(#presentation_clip_path)">
     <g
   class="Page"
   id="g81">
      <g
   class="Graphic"
   id="g79">
       <g
   id="id3">
        <rect
   class="BoundingBox"
   x="8529"
   y="13458"
   width="3942"
   height="2784"
   id="rect51"
   style="fill:none;stroke:none" />
        <defs
   id="defs56">
         <clipPath
   id="clip_path_1"
   clipPathUnits="userSpaceOnUse">
          <path
   d="m 8529,13458 h 3941 v 2783 H 8529 Z"
   id="path53"
   inkscape:connector-curvature="0" />
         </clipPath>
        </defs>
        <g
   clip-path="url(#clip_path_1)"
   id="g76">
         <path
   d="m 11655,14480 -38,-79 -41,-84 -43,-86 -43,-84 -51,-86 -53,-84 -56,-82 -64,-76 -71,-71 -76,-64 -81,-58 -92,-49 -102,-35 -109,-26 -117,-12 h -129 l -133,12 -127,23 -122,31 -117,38 -109,46 -102,53 -96,56 -89,59 -81,63 -72,66 -63,69 -56,66 -46,69 -35,66 -28,63 -16,61 -15,120 -7,119 v 120 l 5,117 7,109 13,104 10,94 10,82 49,25 53,26 61,22 69,23 73,18 79,21 84,15 86,12 92,13 94,8 96,5 100,2 h 99 l 99,-5 102,-7 101,-13 99,-15 97,-23 96,-23 95,-31 88,-35 87,-41 81,-43 79,-53 71,-56 66,-61 59,-72 53,-73 43,-82 38,-89 28,-96 z"
   id="path58"
   inkscape:connector-curvature="0"
   style="fill:#33ff00;stroke:none" />
         <path
   d="m 11538,14239 54,-8 58,-3 64,5 68,11 66,17 69,26 69,30 66,41 63,46 59,56 53,63 46,74 38,81 28,89 20,100 5,109 -10,112 -25,109 -41,104 -53,102 -66,97 -77,91 -84,84 -94,79 -96,74 -102,63 -102,59 -104,48 -104,38 -99,28 -97,20 -89,8 -83,-3 -84,-7 -79,-18 -76,-20 -74,-26 -74,-28 -71,-30 -71,-31 -71,-33 -69,-30 -69,-28 -71,-28 -68,-23 -71,-18 -72,-10 -73,-5 -36,2 -36,3 -35,8 -38,10 -36,12 -38,13 -41,13 -40,15 -43,15 -46,16 -46,12 -51,13 -51,13 -56,7 -58,8 -64,3 -63,-3 -59,-8 -58,-15 -53,-23 -51,-25 -48,-31 -44,-33 -38,-38 -35,-38 -33,-43 -28,-41 -23,-43 -18,-43 -13,-41 -10,-38 -2,-38 v -38 l 7,-41 10,-46 16,-46 20,-48 25,-46 28,-48 33,-46 38,-43 39,-41 45,-38 46,-30 51,-28 53,-18 56,-13 59,-5 v -33 l -3,-30 -2,-26 v -23 l -82,10 -76,18 -69,28 -63,33 -59,38 -53,46 -48,48 -41,51 -38,56 -31,56 -28,59 -20,56 -18,55 -10,56 -7,51 -3,49 3,38 12,43 18,43 25,48 31,49 36,48 40,51 46,46 51,45 56,41 56,38 61,33 63,28 66,21 69,12 68,5 64,-2 58,-5 56,-8 51,-10 51,-13 46,-15 46,-13 43,-15 40,-15 41,-15 38,-16 36,-10 38,-10 35,-10 36,-3 36,-2 73,5 72,10 71,18 68,23 71,28 69,28 69,30 71,33 71,31 71,30 74,28 74,26 76,20 79,18 84,7 83,3 92,-8 99,-23 104,-30 110,-43 111,-54 115,-61 109,-71 107,-79 101,-84 97,-91 84,-97 74,-99 63,-107 46,-107 28,-111 10,-112 -8,-140 -20,-125 -30,-112 -44,-99 -50,-86 -61,-74 -67,-63 -71,-51 -76,-44 -79,-33 -81,-25 -81,-15 -82,-10 h -79 l -73,2 -71,10 10,18 10,23 13,20 z"
   id="path60"
   inkscape:connector-curvature="0"
   style="fill:#33ff00;stroke:none" />
         <path
   d="m 10618,15802 104,-13 102,-17 97,-26 91,-30 89,-36 81,-43 77,-51 73,-56 64,-61 58,-69 54,-73 45,-82 36,-84 31,-91 22,-97 13,-104 v -84 -107 -106 -92 l -10,-20 -8,-18 -10,-20 -10,-21 h 28 l 33,3 36,5 38,10 40,10 41,18 41,20 40,28 39,33 38,41 33,46 28,56 25,66 20,71 13,84 5,94 -5,97 -23,94 -38,89 -48,86 -59,81 -68,77 -77,71 -78,64 -84,58 -87,53 -83,46 -82,38 -76,31 -74,25 -63,15 -54,6 h -23 -22 l -26,-3 -25,-5 -28,-5 -31,-5 -30,-5 -31,-8 -33,-10 -33,-8 -35,-10 -33,-10 -36,-10 -38,-13 -36,-10 z"
   id="path62"
   inkscape:connector-curvature="0"
   style="fill:#00b200;stroke:none" />
         <path
   d="m 9675,15652 -28,-10 -28,-13 -30,-10 -28,-13 -28,-12 -28,-13 -31,-13 -27,-15 -28,-13 -28,-15 -28,-15 -31,-13 -28,-18 -28,-15 -28,-15 -28,-18 v -51 -61 -61 -48 l -5,-51 -7,-53 -8,-56 -8,-61 -56,30 -61,36 -58,45 -53,54 -44,61 -33,68 -17,77 2,84 15,76 23,61 31,51 35,38 41,30 46,21 51,10 53,5 h 58 l 59,-5 63,-10 64,-13 66,-13 66,-15 66,-15 z"
   id="path64"
   inkscape:connector-curvature="0"
   style="fill:#00b200;stroke:none" />
         <path
   d="m 10618,15802 -48,-15 -46,-15 -48,-16 -48,-15 -49,-15 -51,-13 -48,-15 -48,-13 -48,-10 -46,-13 -48,-7 -46,-10 -46,-6 -43,-5 -43,-5 h -41 -23 l -23,3 -25,2 -23,3 -25,2 -26,3 -25,5 -26,5 -28,-10 -28,-13 -30,-10 -28,-13 -28,-12 -28,-13 -31,-13 -27,-15 -28,-13 -28,-15 -28,-15 -31,-13 -28,-18 -28,-15 -28,-15 -28,-18 v -51 -61 -61 -48 l 49,25 53,26 61,22 69,23 73,18 79,21 84,15 86,12 92,13 94,8 96,5 100,2 h 99 l 99,-5 102,-7 101,-13 99,-15 97,-23 96,-23 95,-31 88,-35 87,-41 81,-43 79,-53 71,-56 66,-61 59,-72 53,-73 43,-82 38,-89 28,-96 18,-102 v 92 106 107 84 l -13,104 -22,97 -31,91 -36,87 -45,79 -54,73 -58,69 -64,61 -73,56 -77,51 -81,43 -89,38 -91,31 -97,23 -102,20 z"
   id="path66"
   inkscape:connector-curvature="0"
   style="fill:#ffffff;stroke:none" />
         <path
   d="m 11617,14401 h 28 l 33,3 36,5 38,10 40,10 41,18 41,20 40,28 39,33 38,41 33,46 28,56 25,66 20,71 13,84 5,94 -5,97 -23,94 -38,89 -48,86 -59,81 -68,77 -77,71 -78,64 -84,58 -87,53 -83,46 -82,38 -76,31 -74,25 -63,15 -54,6 -53,-3 -58,-8 -67,-12 -71,-18 -76,-20 -81,-26 -82,-25 -86,-28 -86,-28 -89,-26 -87,-25 -86,-23 -87,-18 -81,-15 -79,-10 -76,-3 -74,3 -76,10 -79,15 -79,18 -78,18 -79,15 -76,15 -74,11 -69,2 -66,-2 -61,-16 -53,-25 -46,-38 -38,-54 -31,-68 -20,-89 -2,-84 17,-77 33,-68 44,-61 53,-54 58,-45 61,-36 56,-30 -2,-36 -3,-43 -5,-41 -2,-28 -59,5 -56,13 -53,18 -51,28 -46,30 -45,38 -39,41 -38,43 -33,46 -28,48 -25,46 -20,48 -16,46 -10,46 -7,41 v 38 l 2,38 10,38 13,41 18,43 23,43 28,41 33,43 35,38 38,38 44,33 48,31 51,25 53,23 58,15 59,8 63,3 64,-3 58,-8 56,-7 51,-13 51,-13 46,-12 46,-16 43,-15 40,-15 41,-13 38,-13 36,-12 38,-10 35,-8 36,-3 36,-2 73,5 72,10 71,18 68,23 71,28 69,28 69,30 71,33 71,31 71,30 74,28 74,26 76,20 79,18 84,7 83,3 89,-8 97,-20 99,-28 104,-38 104,-48 102,-59 102,-63 96,-74 94,-79 84,-84 77,-91 66,-97 53,-102 41,-104 25,-109 10,-112 -5,-109 -20,-100 -28,-89 -38,-81 -46,-74 -53,-63 -59,-56 -63,-46 -66,-41 -69,-30 -69,-26 -66,-17 -68,-11 -64,-5 -58,3 -54,8 10,20 11,20 12,26 10,23 13,25 8,20 10,16 z"
   id="path68"
   inkscape:connector-curvature="0"
   style="fill:#ffffff;stroke:none" />
         <path
   d="m 9993,14739 25,97 8,89 -5,79 -18,68 -30,56 -36,46 -43,31 -48,15 -33,2 -31,-5 -28,-12 -25,-18 -23,-26 -18,-28 -15,-35 -13,-41 -38,15 -38,11 -36,5 -33,-3 -30,-7 -28,-13 -23,-21 -21,-27 -17,-49 -10,-53 5,-56 17,-59 36,-53 58,-48 79,-41 104,-30 -50,-3 -49,-3 -45,-10 -41,-10 -41,-13 -35,-17 -31,-18 -28,-21 -25,-20 -23,-23 -18,-23 -13,-25 -12,-25 -5,-26 -3,-23 v -25 l 8,-33 15,-28 20,-23 26,-18 30,-15 36,-8 38,-5 41,3 -3,-44 5,-43 10,-40 16,-39 20,-33 25,-25 31,-20 33,-11 48,-2 51,15 48,28 43,43 39,59 27,76 18,92 5,109 5,-97 18,-81 28,-66 33,-51 41,-38 46,-23 48,-10 h 48 l 33,7 28,16 23,20 18,25 13,33 7,34 5,40 -2,41 40,-3 33,3 28,10 26,13 18,18 15,22 10,28 8,33 2,26 v 23 l -5,25 -7,26 -13,23 -15,25 -18,23 -23,20 -26,21 -30,17 -33,18 -38,13 -41,13 -43,7 -48,8 -51,2 58,38 59,51 56,61 48,72 41,73 28,74 15,71 v 66 h -23 -20 -21 -20 -18 -18 -15 -13 l 23,-38 5,-56 -10,-66 -28,-74 -40,-66 -51,-58 -66,-41 z"
   id="path70"
   inkscape:connector-curvature="0"
   style="fill:#ffffff;stroke:none" />
         <path
   d="m 11121,16204 -83,-3 -84,-7 -79,-18 -76,-20 -74,-26 -74,-28 -71,-30 -71,-31 -71,-33 -69,-30 -69,-28 -71,-28 -68,-23 -71,-18 -72,-10 -73,-5 -36,2 -36,3 -35,10 -38,10 -36,10 -38,16 -41,15 -40,15 -43,15 -46,13 -46,15 -51,13 -51,10 -56,8 -58,5 -64,2 51,8 54,5 53,8 56,7 56,8 58,10 59,8 61,7 61,11 61,7 61,8 61,10 63,8 64,7 63,8 64,8 63,7 61,8 64,5 64,8 61,5 63,5 61,5 61,2 59,5 58,3 h 58 59 53 56 l 54,-3 z"
   id="path72"
   inkscape:connector-curvature="0"
   style="fill:#006600;stroke:none" />
         <path
   d="m 10166,15645 v -354 h 465 v 354 h -465 l -3,5 -2,7 -3,5 -2,5 30,8 48,13 59,15 63,18 64,20 58,18 49,13 30,10 h 257 v -631 h -831 v 486 l 28,5 25,3 26,5 25,5 23,2 20,5 15,3 11,2 2,-5 3,-5 2,-7 z"
   id="path74"
   inkscape:connector-curvature="0"
   style="fill:#006600;stroke:none" />
        </g>
       </g>
      </g>
     </g>
    </g>
   </g>
  </g>
 </g>
</svg>