<?xml version="1.0" encoding="UTF-8" standalone="no"?>
<svg
   xmlns:ooo="http://xml.openoffice.org/svg/export"
   xmlns:dc="http://purl.org/dc/elements/1.1/"
   xmlns:cc="http://creativecommons.org/ns#"
   xmlns:rdf="http://www.w3.org/1999/02/22-rdf-syntax-ns#"
   xmlns:svg="http://www.w3.org/2000/svg"
   xmlns="http://www.w3.org/2000/svg"
   xmlns:sodipodi="http://sodipodi.sourceforge.net/DTD/sodipodi-0.dtd"
   xmlns:inkscape="http://www.inkscape.org/namespaces/inkscape"
   version="1.2"
   width="30.84mm"
   height="39.93mm"
   viewBox="0 0 3084 3993"
   preserveAspectRatio="xMidYMid"
   xml:space="preserve"
   id="svg83"
   sodipodi:docname="stretch1.svg"
   style="fill-rule:evenodd;stroke-width:28.22200012;stroke-linejoin:round"
   inkscape:version="0.92.5 (2060ec1f9f, 2020-04-08)"><metadata
   id="metadata87"><rdf:RDF><cc:Work
       rdf:about=""><dc:format>image/svg+xml</dc:format><dc:type
         rdf:resource="http://purl.org/dc/dcmitype/StillImage" /></cc:Work></rdf:RDF></metadata><sodipodi:namedview
   pagecolor="#ffffff"
   bordercolor="#666666"
   borderopacity="1"
   objecttolerance="10"
   gridtolerance="10"
   guidetolerance="10"
   inkscape:pageopacity="0"
   inkscape:pageshadow="2"
   inkscape:window-width="664"
   inkscape:window-height="487"
   id="namedview85"
   showgrid="false"
   inkscape:zoom="0.2102413"
   inkscape:cx="58.280316"
   inkscape:cy="75.439368"
   inkscape:window-x="0"
   inkscape:window-y="0"
   inkscape:window-maximized="0"
   inkscape:current-layer="svg83" />
 <defs
   class="ClipPathGroup"
   id="defs8">
  <clipPath
   id="presentation_clip_path"
   clipPathUnits="userSpaceOnUse">
   <rect
   x="0"
   y="0"
   width="21000"
   height="29700"
   id="rect2" />
  </clipPath>
  <clipPath
   id="presentation_clip_path_shrink"
   clipPathUnits="userSpaceOnUse">
   <rect
   x="21"
   y="29"
   width="20958"
   height="29641"
   id="rect5" />
  </clipPath>
 </defs>
 <defs
   class="TextShapeIndex"
   id="defs12">
  <g
   ooo:slide="id1"
   ooo:id-list="id3"
   id="g10" />
 </defs>
 <defs
   class="EmbeddedBulletChars"
   id="defs44">
  <g
   id="bullet-char-template-57356"
   transform="matrix(4.8828125e-4,0,0,-4.8828125e-4,0,0)">
   <path
   d="M 580,1141 1163,571 580,0 -4,571 Z"
   id="path14"
   inkscape:connector-curvature="0" />
  </g>
  <g
   id="bullet-char-template-57354"
   transform="matrix(4.8828125e-4,0,0,-4.8828125e-4,0,0)">
   <path
   d="M 8,1128 H 1137 V 0 H 8 Z"
   id="path17"
   inkscape:connector-curvature="0" />
  </g>
  <g
   id="bullet-char-template-10146"
   transform="matrix(4.8828125e-4,0,0,-4.8828125e-4,0,0)">
   <path
   d="M 174,0 602,739 174,1481 1456,739 Z M 1358,739 309,1346 659,739 Z"
   id="path20"
   inkscape:connector-curvature="0" />
  </g>
  <g
   id="bullet-char-template-10132"
   transform="matrix(4.8828125e-4,0,0,-4.8828125e-4,0,0)">
   <path
   d="M 2015,739 1276,0 H 717 l 543,543 H 174 v 393 h 1086 l -543,545 h 557 z"
   id="path23"
   inkscape:connector-curvature="0" />
  </g>
  <g
   id="bullet-char-template-10007"
   transform="matrix(4.8828125e-4,0,0,-4.8828125e-4,0,0)">
   <path
   d="m 0,-2 c -7,16 -16,29 -25,39 l 381,530 c -94,256 -141,385 -141,387 0,25 13,38 40,38 9,0 21,-2 34,-5 21,4 42,12 65,25 l 27,-13 111,-251 280,301 64,-25 24,25 c 21,-10 41,-24 62,-43 C 886,937 835,863 770,784 769,783 710,716 594,584 L 774,223 c 0,-27 -21,-55 -63,-84 l 16,-20 C 717,90 699,76 672,76 641,76 570,178 457,381 L 164,-76 c -22,-34 -53,-51 -92,-51 -42,0 -63,17 -64,51 -7,9 -10,24 -10,44 0,9 1,19 2,30 z"
   id="path26"
   inkscape:connector-curvature="0" />
  </g>
  <g
   id="bullet-char-template-10004"
   transform="matrix(4.8828125e-4,0,0,-4.8828125e-4,0,0)">
   <path
   d="M 285,-33 C 182,-33 111,30 74,156 52,228 41,333 41,471 c 0,78 14,145 41,201 34,71 87,106 158,106 53,0 88,-31 106,-94 l 23,-176 c 8,-64 28,-97 59,-98 l 735,706 c 11,11 33,17 66,17 42,0 63,-15 63,-46 V 965 c 0,-36 -10,-64 -30,-84 L 442,47 C 390,-6 338,-33 285,-33 Z"
   id="path29"
   inkscape:connector-curvature="0" />
  </g>
  <g
   id="bullet-char-template-9679"
   transform="matrix(4.8828125e-4,0,0,-4.8828125e-4,0,0)">
   <path
   d="M 813,0 C 632,0 489,54 383,161 276,268 223,411 223,592 c 0,181 53,324 160,431 106,107 249,161 430,161 179,0 323,-54 432,-161 108,-107 162,-251 162,-431 0,-180 -54,-324 -162,-431 C 1136,54 992,0 813,0 Z"
   id="path32"
   inkscape:connector-curvature="0" />
  </g>
  <g
   id="bullet-char-template-8226"
   transform="matrix(4.8828125e-4,0,0,-4.8828125e-4,0,0)">
   <path
   d="m 346,457 c -73,0 -137,26 -191,78 -54,51 -81,114 -81,188 0,73 27,136 81,188 54,52 118,78 191,78 73,0 134,-26 185,-79 51,-51 77,-114 77,-187 0,-75 -25,-137 -76,-188 -50,-52 -112,-78 -186,-78 z"
   id="path35"
   inkscape:connector-curvature="0" />
  </g>
  <g
   id="bullet-char-template-8211"
   transform="matrix(4.8828125e-4,0,0,-4.8828125e-4,0,0)">
   <path
   d="M -4,459 H 1135 V 606 H -4 Z"
   id="path38"
   inkscape:connector-curvature="0" />
  </g>
  <g
   id="bullet-char-template-61548"
   transform="matrix(4.8828125e-4,0,0,-4.8828125e-4,0,0)">
   <path
   d="m 173,740 c 0,163 58,303 173,419 116,115 255,173 419,173 163,0 302,-58 418,-173 116,-116 174,-256 174,-419 0,-163 -58,-303 -174,-418 C 1067,206 928,148 765,148 601,148 462,206 346,322 231,437 173,577 173,740 Z"
   id="path41"
   inkscape:connector-curvature="0" />
  </g>
 </defs>
 <g
   id="g49"
   transform="translate(-8958,-12853)">
  <g
   id="id2"
   class="Master_Slide">
   <g
   id="bg-id2"
   class="Background" />
   <g
   id="bo-id2"
   class="BackgroundObjects" />
  </g>
 </g>
 <g
   class="SlideGroup"
   id="g81"
   transform="translate(-8958,-12853)">
  <g
   id="g79">
   <g
   id="container-id1">
    <g
   id="id1"
   class="Slide"
   clip-path="url(#presentation_clip_path)">
     <g
   class="Page"
   id="g75">
      <g
   class="Graphic"
   id="g73">
       <g
   id="id3">
        <rect
   class="BoundingBox"
   x="8958"
   y="12853"
   width="3084"
   height="3993"
   id="rect51"
   style="fill:none;stroke:none" />
        <defs
   id="defs56">
         <clipPath
   id="clip_path_1"
   clipPathUnits="userSpaceOnUse">
          <path
   d="m 8958,12853 h 3083 v 3992 H 8958 Z"
   id="path53"
   inkscape:connector-curvature="0" />
         </clipPath>
        </defs>
        <g
   clip-path="url(#clip_path_1)"
   id="g70">
         <path
   d="m 11457,13476 -12,5 -16,5 -15,8 -15,12 -18,15 -18,16 -20,23 -23,22 -43,49 -44,53 -43,51 -40,51 -36,46 -31,38 -20,30 -10,18 -8,15 -10,18 -15,23 -15,23 -13,25 -15,21 -13,20 -8,13 -17,20 -33,41 -44,50 -48,59 -48,58 -44,54 -30,40 -15,26 -16,5 -12,18 -16,17 -22,6 -28,-28 -31,-23 -30,-21 -33,-20 -33,-15 -36,-13 -36,-13 -35,-12 -33,-8 -36,-10 -30,-10 -33,-8 -28,-10 -26,-10 -23,-13 -20,-13 -38,-28 -43,-25 -46,-23 -46,-23 -41,-20 -35,-18 -28,-15 -15,-13 -13,-18 -15,-28 -18,-33 -23,-38 -23,-38 -28,-38 -28,-33 -30,-28 28,-56 7,-48 -7,-38 -18,-33 -26,-28 -28,-23 -28,-21 -25,-17 -8,-39 -12,-45 -21,-46 -25,-46 -33,-43 -33,-41 -38,-35 -41,-28 -46,-13 -53,3 -59,15 -56,23 -56,30 -48,31 -41,30 -25,26 15,12 21,21 20,20 15,18 v 15 l 5,13 3,15 2,15 -2,18 -5,26 -8,27 -8,18 v 8 l 8,2 10,3 10,3 6,15 7,23 5,28 5,20 8,13 13,7 15,3 13,-3 35,-2 28,25 21,43 10,56 5,61 v 54 l -3,43 -7,20 -11,18 -15,33 -18,43 -17,49 -21,48 -12,43 -11,36 -5,17 3,13 7,18 11,20 12,21 16,22 15,23 15,23 18,18 15,23 13,35 13,41 15,46 13,48 15,48 18,44 20,38 10,38 18,53 25,64 28,66 31,66 28,61 25,51 21,35 12,49 31,78 43,97 53,104 54,104 48,92 38,69 21,38 7,25 13,26 18,25 20,28 20,23 21,23 15,15 8,13 10,23 23,48 25,66 33,79 33,84 31,81 28,74 23,56 -6,17 -10,21 -12,20 -16,20 -15,21 -18,17 -12,13 -13,8 -13,7 -15,8 -20,8 -23,10 -23,10 -23,8 -26,10 -22,7 -21,8 -18,8 -12,7 -10,8 -8,8 -3,7 v 10 l 3,13 h 25 l 38,-3 44,-2 51,-3 48,-2 43,-3 36,-5 23,-2 17,-3 26,3 h 25 l 28,2 28,5 28,3 23,2 h 18 l 25,-7 18,-21 10,-28 8,-25 -3,-30 -12,-36 -16,-36 -10,-28 -13,-33 -22,-45 -18,-44 v -33 l -5,-28 -3,-45 -5,-61 -10,-66 v -94 l -13,-84 -20,-77 -26,-66 -28,-56 -28,-48 -22,-35 -21,-26 -18,-35 -22,-56 -26,-74 -25,-81 -23,-79 -21,-71 -15,-56 -7,-33 33,-110 7,-94 -10,-78 -25,-67 -36,-55 -38,-44 -36,-33 -30,-23 -26,-20 -28,-28 -28,-35 -27,-41 -26,-41 -23,-43 -18,-38 -10,-36 -10,-73 -5,-89 5,-89 10,-77 26,13 33,18 40,23 44,25 40,26 41,25 33,25 23,18 23,16 28,12 30,13 36,10 35,10 31,10 28,11 23,7 25,8 36,13 46,10 50,12 49,13 48,13 41,10 33,10 -15,18 -13,15 -10,15 -3,6 v 12 l 5,26 15,28 28,15 8,8 10,10 15,10 13,10 15,10 13,8 8,5 2,2 h 3 5 l 10,-2 10,-3 13,-2 13,-3 12,-5 11,-5 10,-2 10,-3 13,-3 10,-2 10,-5 10,-8 8,-10 5,-15 5,-8 8,-7 12,-8 16,-10 15,-8 15,-10 15,-13 10,-10 13,-15 13,-15 8,-13 7,-13 15,-25 33,-46 49,-53 51,-61 53,-61 48,-54 38,-40 21,-23 10,-16 13,-15 15,-15 15,-15 15,-16 18,-12 18,-10 18,-11 5,59 -5,94 -8,97 -5,71 -18,25 -23,36 -28,40 -27,49 -28,48 -28,46 -23,40 -18,31 -8,91 13,138 20,134 10,79 -2,36 -10,63 -13,87 -15,94 -18,99 -18,94 -15,79 -13,56 -20,35 -20,46 -21,56 -20,58 -15,59 -13,53 -10,48 -3,36 -2,76 -8,102 -10,99 -10,66 v 41 l -8,53 -13,54 -10,48 -2,5 v 2 3 l -3,3 -18,45 -5,38 8,26 15,20 20,13 23,5 21,5 h 15 18 20 l 25,-3 h 28 28 26 23 l 18,3 22,3 39,5 45,5 49,2 48,5 h 46 l 33,3 18,-3 20,-7 13,-13 10,-15 v -18 l -5,-10 -5,-8 -8,-7 -10,-6 h -8 -13 l -12,-5 -16,-7 -53,-26 -48,-23 -43,-17 -39,-16 -33,-12 -25,-13 -23,-13 -15,-12 -18,-21 -10,-23 v -25 l 7,-38 11,-41 30,-74 41,-99 48,-111 48,-110 46,-99 36,-76 20,-38 23,-43 20,-51 16,-49 2,-35 v -28 l 8,-28 13,-26 15,-15 12,-18 18,-40 23,-56 26,-66 25,-66 23,-61 18,-51 12,-31 13,-43 18,-79 25,-101 26,-115 25,-114 26,-104 17,-79 13,-46 31,-91 15,-127 2,-148 -7,-152 -15,-148 -16,-127 -15,-94 -8,-43 -2,-15 2,-16 8,-10 10,-12 10,-11 13,-10 10,-7 10,-8 11,-8 15,-5 20,-5 23,-5 20,-5 23,-8 21,-7 17,-13 21,-28 2,-28 -2,-25 v -21 l 7,-15 8,-13 5,-12 v -8 l -13,-28 -2,-41 5,-38 5,-30 5,-10 8,-13 12,-13 16,-12 15,-13 13,-13 12,-13 8,-10 -20,-15 -36,-23 -46,-28 -51,-30 -53,-31 -53,-25 -51,-21 -41,-10 h -33 l -30,8 -28,15 -28,23 -26,28 -25,30 -26,34 -28,33 -20,38 -10,43 2,46 8,48 13,48 15,43 15,39 10,30 -12,10 -10,10 -8,11 -3,2 -10,13 -7,20 -11,23 -17,25 7,-5 10,-2 8,-3 z"
   id="path58"
   inkscape:connector-curvature="0"
   style="fill:#000000;stroke:none" />
         <path
   d="m 9205,14017 -11,18 -15,33 -18,43 -17,48 -21,51 -12,46 -11,33 -5,20 3,13 7,18 11,20 12,23 16,23 15,23 15,23 18,20 15,25 13,34 13,43 15,45 13,49 15,48 18,46 20,38 10,41 18,53 25,66 28,69 31,66 28,63 25,51 21,36 12,51 31,78 43,99 53,107 54,104 48,94 38,72 21,38 7,25 13,28 18,28 20,26 20,25 21,23 15,18 8,10 10,23 23,50 25,69 33,81 33,84 31,84 28,74 23,58 22,11 23,5 h 23 l 23,-5 23,-6 23,-7 20,-10 21,-8 -8,-43 -13,-79 -13,-94 -15,-81 v -97 l -13,-89 -17,-79 -26,-71 -25,-61 -28,-51 -26,-38 -17,-28 -18,-35 -26,-59 -25,-71 -28,-81 -28,-82 -23,-71 -15,-56 -8,-33 33,-112 8,-94 -10,-81 -23,-66 -36,-53 -38,-41 -35,-33 -31,-26 -25,-20 -31,-28 -30,-33 -31,-41 -28,-40 -25,-41 -18,-38 -13,-36 -10,-76 -5,-91 5,-92 10,-76 -7,-8 -8,-5 -8,-2 -7,-5 -26,15 -35,23 -41,23 -43,22 -46,18 -41,8 -38,-5 -28,-21 -15,-43 v -58 l 15,-74 23,-76 26,-74 30,-63 26,-51 17,-26 -30,46 -28,46 -28,46 -28,40 -23,36 -23,28 -18,18 z"
   id="path60"
   inkscape:connector-curvature="0"
   style="fill:#ff007f;stroke:none" />
         <path
   d="m 11500,13374 -10,-30 -15,-39 -15,-43 -13,-48 -8,-48 -2,-46 10,-43 20,-38 28,-33 26,-34 25,-30 26,-28 28,-23 28,-15 30,-8 h 33 l 41,10 51,21 53,25 53,31 51,30 46,28 36,23 20,15 -8,10 -12,13 -13,13 -15,13 -16,12 -12,13 -8,13 -5,10 -13,-5 -20,-5 h -20 l -23,2 -21,13 -15,18 -10,28 v 40 h -8 l -7,3 -10,2 h -8 v -28 l -13,-30 -23,-28 -28,-20 h -30 l -31,25 -25,61 -18,99 -15,8 -18,10 -18,8 -20,7 -18,8 -15,5 -15,3 z"
   id="path62"
   inkscape:connector-curvature="0"
   style="fill:#ff007f;stroke:none" />
         <path
   d="m 11422,13468 25,-8 25,-5 23,3 18,2 18,8 13,8 10,5 7,7 23,21 33,30 33,38 31,46 23,54 10,63 -5,71 -28,79 -25,25 -28,18 -33,13 -36,2 -38,-2 -38,-8 -41,-12 -38,-16 -15,18 -18,20 -23,23 -23,23 -25,21 -21,17 -20,11 -13,7 5,56 v 89 l -5,94 -5,69 15,5 23,5 28,7 31,8 33,10 38,8 38,10 38,13 41,10 35,10 39,13 33,10 28,13 25,10 20,13 13,10 31,-94 15,-127 2,-153 -7,-157 -15,-150 -16,-130 -15,-94 -8,-46 -15,-20 -15,-18 -18,-15 -20,-15 -21,-13 -20,-13 -23,-10 -23,-8 -17,-5 -21,-5 -20,-2 -18,-3 -18,-2 -12,-3 h -11 -2 z"
   id="path64"
   inkscape:connector-curvature="0"
   style="fill:#ffcc00;stroke:none" />
         <path
   d="m 11556,15209 13,-43 18,-81 25,-105 26,-117 25,-116 26,-107 17,-82 13,-45 -13,-10 -20,-13 -25,-10 -28,-13 -33,-10 -39,-13 -35,-10 -41,-10 -38,-13 -38,-10 -38,-8 -33,-10 -31,-8 -28,-7 -23,-5 -15,-5 -18,25 -23,36 -28,45 -27,46 -28,51 -28,46 -23,40 -18,33 -8,95 13,139 20,138 10,81 16,-3 15,-7 15,-10 16,-8 7,-3 v 3 l -2,10 7,18 23,5 28,8 36,7 33,8 35,7 28,8 23,3 15,2 13,-23 13,-28 10,-25 10,-20 15,30 23,33 18,31 8,23 h 7 l 18,2 23,5 z"
   id="path66"
   inkscape:connector-curvature="0"
   style="fill:#8e21ff;stroke:none" />
         <path
   d="m 9029,13453 -15,-18 -20,-20 -21,-21 -15,-12 25,-26 41,-30 48,-31 56,-30 56,-23 59,-15 53,-3 46,13 41,28 38,35 33,41 33,43 25,46 21,46 12,45 8,39 25,17 28,21 28,23 26,28 18,33 7,38 -7,48 -28,56 -18,-10 -23,-15 -31,-18 -30,-16 -38,-10 -38,-5 -41,3 -41,15 -38,10 -30,-10 -26,-20 -23,-33 -18,-36 -15,-38 -18,-36 -15,-25 -18,-23 -17,-20 -23,-21 -23,-20 -23,-15 -23,-15 -25,-8 z"
   id="path68"
   inkscape:connector-curvature="0"
   style="fill:#00ff7f;stroke:none" />
        </g>
       </g>
      </g>
     </g>
    </g>
   </g>
  </g>
 </g>
</svg>