<?xml version="1.0" encoding="UTF-8" standalone="no"?>
<svg
   xmlns:ooo="http://xml.openoffice.org/svg/export"
   xmlns:dc="http://purl.org/dc/elements/1.1/"
   xmlns:cc="http://creativecommons.org/ns#"
   xmlns:rdf="http://www.w3.org/1999/02/22-rdf-syntax-ns#"
   xmlns:svg="http://www.w3.org/2000/svg"
   xmlns="http://www.w3.org/2000/svg"
   xmlns:sodipodi="http://sodipodi.sourceforge.net/DTD/sodipodi-0.dtd"
   xmlns:inkscape="http://www.inkscape.org/namespaces/inkscape"
   version="1.2"
   width="29.719999mm"
   height="19.299999mm"
   viewBox="0 0 2971.9999 1929.9999"
   preserveAspectRatio="xMidYMid"
   xml:space="preserve"
   id="svg141"
   sodipodi:docname="stretch3.svg"
   style="fill-rule:evenodd;stroke-width:28.22200012;stroke-linejoin:round"
   inkscape:version="0.92.5 (2060ec1f9f, 2020-04-08)"><metadata
   id="metadata145"><rdf:RDF><cc:Work
       rdf:about=""><dc:format>image/svg+xml</dc:format><dc:type
         rdf:resource="http://purl.org/dc/dcmitype/StillImage" /></cc:Work></rdf:RDF></metadata><sodipodi:namedview
   pagecolor="#ffffff"
   bordercolor="#666666"
   borderopacity="1"
   objecttolerance="10"
   gridtolerance="10"
   guidetolerance="10"
   inkscape:pageopacity="0"
   inkscape:pageshadow="2"
   inkscape:window-width="664"
   inkscape:window-height="487"
   id="namedview143"
   showgrid="false"
   inkscape:zoom="0.2102413"
   inkscape:cx="56.16378"
   inkscape:cy="36.472439"
   inkscape:window-x="0"
   inkscape:window-y="0"
   inkscape:window-maximized="0"
   inkscape:current-layer="svg141" />
 <defs
   class="ClipPathGroup"
   id="defs8">
  <clipPath
   id="presentation_clip_path"
   clipPathUnits="userSpaceOnUse">
   <rect
   x="0"
   y="0"
   width="21000"
   height="29700"
   id="rect2" />
  </clipPath>
  <clipPath
   id="presentation_clip_path_shrink"
   clipPathUnits="userSpaceOnUse">
   <rect
   x="21"
   y="29"
   width="20958"
   height="29641"
   id="rect5" />
  </clipPath>
 </defs>
 <defs
   class="TextShapeIndex"
   id="defs12">
  <g
   ooo:slide="id1"
   ooo:id-list="id3"
   id="g10" />
 </defs>
 <defs
   class="EmbeddedBulletChars"
   id="defs44">
  <g
   id="bullet-char-template-57356"
   transform="matrix(4.8828125e-4,0,0,-4.8828125e-4,0,0)">
   <path
   d="M 580,1141 1163,571 580,0 -4,571 Z"
   id="path14"
   inkscape:connector-curvature="0" />
  </g>
  <g
   id="bullet-char-template-57354"
   transform="matrix(4.8828125e-4,0,0,-4.8828125e-4,0,0)">
   <path
   d="M 8,1128 H 1137 V 0 H 8 Z"
   id="path17"
   inkscape:connector-curvature="0" />
  </g>
  <g
   id="bullet-char-template-10146"
   transform="matrix(4.8828125e-4,0,0,-4.8828125e-4,0,0)">
   <path
   d="M 174,0 602,739 174,1481 1456,739 Z M 1358,739 309,1346 659,739 Z"
   id="path20"
   inkscape:connector-curvature="0" />
  </g>
  <g
   id="bullet-char-template-10132"
   transform="matrix(4.8828125e-4,0,0,-4.8828125e-4,0,0)">
   <path
   d="M 2015,739 1276,0 H 717 l 543,543 H 174 v 393 h 1086 l -543,545 h 557 z"
   id="path23"
   inkscape:connector-curvature="0" />
  </g>
  <g
   id="bullet-char-template-10007"
   transform="matrix(4.8828125e-4,0,0,-4.8828125e-4,0,0)">
   <path
   d="m 0,-2 c -7,16 -16,29 -25,39 l 381,530 c -94,256 -141,385 -141,387 0,25 13,38 40,38 9,0 21,-2 34,-5 21,4 42,12 65,25 l 27,-13 111,-251 280,301 64,-25 24,25 c 21,-10 41,-24 62,-43 C 886,937 835,863 770,784 769,783 710,716 594,584 L 774,223 c 0,-27 -21,-55 -63,-84 l 16,-20 C 717,90 699,76 672,76 641,76 570,178 457,381 L 164,-76 c -22,-34 -53,-51 -92,-51 -42,0 -63,17 -64,51 -7,9 -10,24 -10,44 0,9 1,19 2,30 z"
   id="path26"
   inkscape:connector-curvature="0" />
  </g>
  <g
   id="bullet-char-template-10004"
   transform="matrix(4.8828125e-4,0,0,-4.8828125e-4,0,0)">
   <path
   d="M 285,-33 C 182,-33 111,30 74,156 52,228 41,333 41,471 c 0,78 14,145 41,201 34,71 87,106 158,106 53,0 88,-31 106,-94 l 23,-176 c 8,-64 28,-97 59,-98 l 735,706 c 11,11 33,17 66,17 42,0 63,-15 63,-46 V 965 c 0,-36 -10,-64 -30,-84 L 442,47 C 390,-6 338,-33 285,-33 Z"
   id="path29"
   inkscape:connector-curvature="0" />
  </g>
  <g
   id="bullet-char-template-9679"
   transform="matrix(4.8828125e-4,0,0,-4.8828125e-4,0,0)">
   <path
   d="M 813,0 C 632,0 489,54 383,161 276,268 223,411 223,592 c 0,181 53,324 160,431 106,107 249,161 430,161 179,0 323,-54 432,-161 108,-107 162,-251 162,-431 0,-180 -54,-324 -162,-431 C 1136,54 992,0 813,0 Z"
   id="path32"
   inkscape:connector-curvature="0" />
  </g>
  <g
   id="bullet-char-template-8226"
   transform="matrix(4.8828125e-4,0,0,-4.8828125e-4,0,0)">
   <path
   d="m 346,457 c -73,0 -137,26 -191,78 -54,51 -81,114 -81,188 0,73 27,136 81,188 54,52 118,78 191,78 73,0 134,-26 185,-79 51,-51 77,-114 77,-187 0,-75 -25,-137 -76,-188 -50,-52 -112,-78 -186,-78 z"
   id="path35"
   inkscape:connector-curvature="0" />
  </g>
  <g
   id="bullet-char-template-8211"
   transform="matrix(4.8828125e-4,0,0,-4.8828125e-4,0,0)">
   <path
   d="M -4,459 H 1135 V 606 H -4 Z"
   id="path38"
   inkscape:connector-curvature="0" />
  </g>
  <g
   id="bullet-char-template-61548"
   transform="matrix(4.8828125e-4,0,0,-4.8828125e-4,0,0)">
   <path
   d="m 173,740 c 0,163 58,303 173,419 116,115 255,173 419,173 163,0 302,-58 418,-173 116,-116 174,-256 174,-419 0,-163 -58,-303 -174,-418 C 1067,206 928,148 765,148 601,148 462,206 346,322 231,437 173,577 173,740 Z"
   id="path41"
   inkscape:connector-curvature="0" />
  </g>
 </defs>
 <g
   id="g49"
   transform="translate(-9014,-13885)">
  <g
   id="id2"
   class="Master_Slide">
   <g
   id="bg-id2"
   class="Background" />
   <g
   id="bo-id2"
   class="BackgroundObjects" />
  </g>
 </g>
 <g
   class="SlideGroup"
   id="g139"
   transform="translate(-9014,-13885)">
  <g
   id="g137">
   <g
   id="container-id1">
    <g
   id="id1"
   class="Slide"
   clip-path="url(#presentation_clip_path)">
     <g
   class="Page"
   id="g133">
      <g
   class="Graphic"
   id="g131">
       <g
   id="id3">
        <rect
   class="BoundingBox"
   x="9014"
   y="13885"
   width="2972"
   height="1930"
   id="rect51"
   style="fill:none;stroke:none" />
        <defs
   id="defs56">
         <clipPath
   id="clip_path_1"
   clipPathUnits="userSpaceOnUse">
          <path
   d="m 9014,13885 h 2971 v 1929 H 9014 Z"
   id="path53"
   inkscape:connector-curvature="0" />
         </clipPath>
        </defs>
        <g
   clip-path="url(#clip_path_1)"
   id="g128">
         <path
   d="m 10967,14114 15,56 5,63 -13,66 -30,54 -13,13 -15,12 -16,10 -15,13 -18,10 -12,13 -13,10 -8,10 -12,23 -11,23 -7,21 -3,12 -5,16 -7,12 -11,3 -10,-3 -12,-7 -11,-11 -7,-2 -8,8 -5,10 -8,7 -7,5 -16,-5 -2,8 -5,5 -5,3 h -10 -11 l -7,2 -8,5 -5,5 -8,8 -7,8 -13,7 -13,3 -15,-3 -13,-7 -15,-13 -13,-21 -7,-12 -5,-13 -8,-10 -7,-3 -23,11 -31,10 -35,12 -36,8 -38,5 -36,3 -35,-3 -28,-10 -23,-15 -18,-21 -10,-25 -8,-26 v -25 l 3,-25 10,-21 15,-15 20,-15 26,-18 30,-18 28,-20 28,-18 23,-15 21,-13 10,-5 18,-13 15,-20 18,-23 15,-25 13,-26 12,-25 8,-26 8,-17 10,-18 15,-23 25,-23 28,-20 33,-21 33,-18 33,-10 34,-5 h 40 l 36,5 33,8 28,13 28,20 25,28 23,38 z"
   id="path58"
   inkscape:connector-curvature="0"
   style="fill:#7c3d28;stroke:none" />
         <path
   d="m 10331,14483 10,7 10,5 h 13 l 10,-5 10,-10 5,-10 v -13 l -5,-13 -10,-7 -10,-5 h -13 l -12,5 -11,10 -2,10 v 13 z"
   id="path60"
   inkscape:connector-curvature="0"
   style="fill:#7c3d28;stroke:none" />
         <path
   d="m 10626,14104 10,7 10,5 h 13 l 10,-5 10,-10 3,-10 v -13 l -5,-12 -10,-8 -11,-5 h -12 l -11,5 -10,10 -2,10 v 13 z"
   id="path62"
   inkscape:connector-curvature="0"
   style="fill:#7c3d28;stroke:none" />
         <path
   d="m 10829,14419 10,-3 5,-7 3,-8 -8,-10 -12,-13 -16,-10 -15,-10 -15,-8 -8,-2 h -2 l 2,5 10,8 13,10 13,10 13,10 5,8 2,5 3,5 v 2 l -5,3 h -3 v 2 l 3,3 z"
   id="path64"
   inkscape:connector-curvature="0"
   style="fill:#000000;stroke:none" />
         <path
   d="m 10794,14429 h 5 2 5 3 5 l 3,-2 -3,-3 -5,-2 -10,-6 -13,-7 -10,-10 -8,-11 -2,-5 v -2 l -3,2 v 5 l 3,6 5,10 5,7 2,8 3,5 2,3 v 5 l -2,5 v 2 l 2,3 v 0 -3 l 3,-2 v -3 -2 l 3,-3 v 0 h 2 z"
   id="path66"
   inkscape:connector-curvature="0"
   style="fill:#000000;stroke:none" />
         <path
   d="m 10694,14556 -5,-7 -5,-5 -7,-5 -5,-13 2,-3 v 0 l -2,-2 h -3 l -2,-3 h -3 -3 -2 -3 v 3 l 3,2 h 5 l 3,8 5,8 5,7 5,5 5,3 2,2 5,3 v 2 -2 0 0 z"
   id="path68"
   inkscape:connector-curvature="0"
   style="fill:#000000;stroke:none" />
         <path
   d="m 10631,14111 10,5 h 13 l 10,-2 10,-8 8,-10 v -13 l -3,-12 -7,-11 -11,-5 h -12 l -13,3 -10,8 -5,10 -3,12 5,13 z"
   id="path70"
   inkscape:connector-curvature="0"
   style="fill:#000000;stroke:none" />
         <path
   d="m 10651,14223 5,5 11,-2 10,-5 15,-8 13,-15 10,-18 7,-13 h 13 l 18,3 20,-3 16,-7 12,-3 13,3 15,7 13,10 10,11 10,10 13,7 15,5 13,6 10,7 8,5 2,8 3,8 2,5 8,2 5,5 10,5 5,5 3,11 2,10 -2,10 2,8 3,5 8,2 h 10 l 10,-2 8,-5 7,-6 5,-7 3,-3 h 5 8 l 7,3 10,-3 11,-7 10,-13 2,-18 3,-15 2,-20 5,-21 8,-15 8,-10 v -13 l -5,-13 -11,-15 -7,-13 -5,-12 -5,-13 -3,-10 -2,-8 -11,-10 -15,-10 -13,-8 -12,-7 -16,-11 -12,-10 -5,-10 -8,-10 -10,-13 -15,-10 -11,-3 -12,-2 -13,-8 -13,-10 -12,-13 -11,-12 -7,-5 h -10 -8 -5 l -8,-3 -7,-5 -11,-5 -7,-5 -10,-3 -13,-2 -13,-3 h -15 l -15,3 -13,7 -10,8 -13,13 -20,10 -23,13 -23,12 -25,13 -21,10 -15,10 -10,8 -10,15 -13,18 -13,15 -7,10 -5,6 -6,10 -5,10 -2,8 -5,5 -10,10 -11,10 -5,8 -2,7 -3,10 -2,11 -3,5 -5,12 -10,21 -8,25 3,20 18,11 20,17 18,13 12,3 13,-13 15,-25 11,-26 7,-10 10,-5 11,-8 10,-5 12,-2 13,2 13,5 13,10 z"
   id="path72"
   inkscape:connector-curvature="0"
   style="fill:#000000;stroke:none" />
         <path
   d="m 9327,15723 25,13 31,10 30,5 33,6 h 33 l 31,-3 25,-5 21,-10 17,-16 23,-15 23,-20 23,-20 23,-21 20,-20 18,-18 13,-18 20,-40 20,-46 18,-51 18,-51 13,-48 10,-43 5,-36 2,-23 v -33 -25 l 3,-16 8,-10 10,-8 20,-12 26,-15 28,-18 30,-21 25,-20 23,-20 16,-18 7,-10 8,-5 10,-5 15,-3 h 10 11 10 l 12,-3 h 13 l 13,-5 10,-2 10,-8 13,-7 15,-13 21,-15 22,-16 21,-20 20,-20 20,-21 16,-23 15,-28 18,-33 23,-40 23,-41 22,-41 23,-38 18,-33 13,-25 18,-46 7,-46 -10,-46 -33,-38 -31,-18 -35,-15 -43,-12 -46,-8 -46,-3 h -46 l -43,3 -38,8 -43,12 -46,18 -46,20 -51,26 -50,28 -51,30 -51,33 -53,38 -51,41 -51,41 -48,46 -46,45 -46,49 -41,48 -38,51 -35,53 -26,46 -41,79 -43,104 -35,117 -21,125 8,119 43,107 z"
   id="path74"
   inkscape:connector-curvature="0"
   style="fill:#7c3d28;stroke:none" />
         <path
   d="m 9411,15589 12,5 h 13 l 10,-5 8,-10 5,-13 v -13 l -5,-10 -10,-8 -13,-5 h -13 l -10,5 -8,10 -5,13 v 10 l 5,11 z"
   id="path76"
   inkscape:connector-curvature="0"
   style="fill:#7c3d28;stroke:none" />
         <path
   d="m 10158,14587 13,5 h 10 l 13,-5 7,-10 5,-13 v -13 l -5,-10 -10,-8 -13,-5 h -12 l -10,5 -11,11 -2,12 v 13 l 5,10 z"
   id="path78"
   inkscape:connector-curvature="0"
   style="fill:#7c3d28;stroke:none" />
         <path
   d="m 10339,14493 12,2 h 13 l 10,-5 8,-10 5,-13 v -10 l -5,-13 -10,-7 -13,-5 h -13 l -10,5 -8,10 -5,13 v 12 l 5,11 z"
   id="path80"
   inkscape:connector-curvature="0"
   style="fill:#7c3d28;stroke:none" />
         <path
   d="m 9833,15184 -11,3 -20,2 -23,3 -28,3 -28,2 -25,-2 -23,-3 -15,-5 -18,-10 -38,-18 -56,-28 -64,-28 -66,-25 -63,-18 -56,-10 -38,7 -23,38 -23,49 -26,56 -22,61 -18,66 -13,68 v 67 l 8,66 20,58 25,51 33,43 36,33 36,26 33,20 30,13 23,5 64,5 61,-10 56,-18 48,-28 43,-33 38,-38 28,-41 23,-41 10,-25 18,-38 15,-43 18,-54 15,-56 13,-58 5,-59 z"
   id="path82"
   inkscape:connector-curvature="0"
   style="fill:#007fe5;stroke:none" />
         <path
   d="m 9833,15184 -11,3 -20,2 -23,3 -28,3 -28,2 -25,-2 -23,-3 -15,-5 -18,-10 -38,-18 -56,-28 -64,-28 -66,-25 -63,-18 -56,-10 -38,7 43,-74 46,-71 50,-68 54,-61 56,-61 58,-56 59,-51 58,-46 61,-43 56,-38 59,-36 53,-28 51,-25 48,-21 43,-17 38,-11 13,-2 18,-3 18,-2 h 20 18 20 l 18,2 18,3 7,-10 16,-5 23,-6 25,-7 25,-3 23,8 16,8 10,12 7,13 13,20 15,31 16,38 12,46 5,48 -2,53 -18,54 -25,56 -33,58 -39,59 -40,53 -41,51 -43,41 -41,30 -38,21 -36,12 -33,13 -28,15 -25,15 -23,16 -20,12 -18,13 -13,10 -12,11 -16,7 -17,8 -16,5 -12,7 -13,8 -10,8 z"
   id="path84"
   inkscape:connector-curvature="0"
   style="fill:#ffbf00;stroke:none" />
         <path
   d="m 9276,15584 7,43 18,38 28,33 33,25 38,21 41,15 41,8 h 40 l 28,-3 39,-7 48,-8 53,-10 54,-8 50,-8 44,-7 30,-3 28,-2 28,-3 28,-5 31,-5 28,-5 25,-5 25,-5 21,-5 23,-5 28,-5 35,-6 36,-7 40,-5 44,-8 43,-5 41,-3 38,-2 h 33 l 25,2 h 26 l 20,3 20,5 21,3 20,5 25,7 36,8 46,13 48,12 51,11 51,7 51,8 h 43 l 20,-3 26,-2 25,-5 25,-5 28,-6 28,-7 28,-8 31,-7 28,-8 28,-8 28,-7 25,-8 26,-5 25,-5 20,-5 21,-3 38,-5 41,-5 43,-5 38,-5 35,-3 31,-5 25,-2 13,-3 26,-10 25,-13 20,-12 18,-16 15,-15 13,-15 5,-10 3,-8 -3,-5 -7,-8 -13,-7 -15,-8 -16,-5 -18,-5 -17,-5 h -16 -25 -41 l -56,2 h -61 l -66,3 h -58 l -54,-3 -35,-2 -28,-5 -31,-3 -35,-5 -38,-2 -41,-6 -41,-2 -40,-3 -41,-2 -41,-3 -38,-2 h -35 l -34,-3 -27,-2 -26,-3 h -18 l -12,-2 -21,-5 -23,-8 -25,-8 -25,-10 -26,-8 -28,-7 -23,-8 -23,-2 -25,-3 -31,-2 -35,-6 -41,-2 -38,-5 -38,-3 -36,-5 -28,-5 -15,-2 -20,-3 -26,-5 -28,-5 -30,-5 -36,-5 -33,-5 -38,-5 -36,-3 -35,-5 -36,-5 -33,-3 -30,-2 -28,-3 h -23 -20 l -74,5 -66,8 -59,10 -53,13 -46,15 -41,15 -35,18 -28,20 -26,23 -20,23 -15,26 -13,25 -8,28 -5,31 -2,30 z"
   id="path86"
   inkscape:connector-curvature="0"
   style="fill:#7c3d28;stroke:none" />
         <path
   d="m 9459,15561 -5,-13 -8,-10 -10,-8 h -13 l -12,3 -8,7 -8,11 v 12 l 3,13 8,10 10,5 12,3 13,-3 10,-7 5,-11 z"
   id="path88"
   inkscape:connector-curvature="0"
   style="fill:#7c3d28;stroke:none" />
         <path
   d="m 11653,15505 -5,-13 -8,-10 -10,-8 h -13 l -12,3 -11,7 -5,11 -2,12 5,13 8,10 10,5 12,3 13,-3 10,-7 5,-11 z"
   id="path90"
   inkscape:connector-curvature="0"
   style="fill:#7c3d28;stroke:none" />
         <path
   d="m 9294,15731 17,18 21,15 25,13 28,10 36,8 43,7 48,3 h 56 59 53 48 46 l 38,2 36,3 30,2 26,3 20,-36 20,-61 16,-81 10,-89 10,-92 5,-78 3,-64 v -33 l -26,-5 -25,-3 -31,-5 -30,-2 -31,-3 -35,-2 -36,-3 h -33 -38 -36 l -35,3 -36,5 -33,5 -33,7 -30,11 -31,10 -58,28 -56,38 -51,46 -41,53 -25,61 -8,64 18,71 z"
   id="path92"
   inkscape:connector-curvature="0"
   style="fill:#007fe5;stroke:none" />
         <path
   d="m 11546,15523 8,12 15,16 20,15 26,13 15,10 15,7 16,10 15,8 18,8 17,5 18,5 h 21 28 20 l 10,-5 5,-15 v -16 -17 l 3,-28 7,-34 16,-53 15,-71 15,-76 5,-72 v -63 l -2,-61 -5,-46 -16,-18 -10,8 -15,18 -15,25 -16,31 -15,30 -15,33 -13,26 -8,17 -25,33 -33,36 -36,41 -33,40 -30,39 -23,35 -15,31 z"
   id="path94"
   inkscape:connector-curvature="0"
   style="fill:#7c3d28;stroke:none" />
         <path
   d="m 11650,15497 -5,-13 -10,-7 -13,-3 h -12 l -10,5 -8,11 -3,12 v 13 l 5,10 11,8 10,5 13,-3 12,-5 8,-7 2,-13 z"
   id="path96"
   inkscape:connector-curvature="0"
   style="fill:#7c3d28;stroke:none" />
         <path
   d="m 11592,15617 -10,12 -5,11 v 10 l 12,2 h 11 l 17,3 23,5 23,5 26,5 22,8 23,2 16,3 15,-3 13,-2 15,-5 15,-8 13,-8 12,-5 8,-5 5,-5 3,-53 5,-64 7,-66 13,-58 13,-54 5,-51 2,-46 -2,-35 -5,-38 -5,-49 -5,-45 -3,-26 -10,-10 -15,-2 -21,7 -15,26 -8,20 -7,23 -10,25 -13,26 -13,25 -10,23 -13,20 -10,16 -12,15 -21,23 -23,28 -23,25 -22,28 -21,23 -15,18 -8,10 -5,13 v 12 l 5,13 10,8 8,5 10,7 10,16 8,17 3,21 -3,25 -13,26 z"
   id="path98"
   inkscape:connector-curvature="0"
   style="fill:#0000b2;stroke:none" />
         <path
   d="m 11874,15057 3,26 5,45 5,49 5,38 2,35 -2,46 -5,51 -13,54 -13,58 -7,66 -5,64 -3,53 15,8 13,5 h 13 l 15,-3 3,-61 v -76 l 2,-74 5,-53 5,-43 3,-56 v -51 l -3,-38 -5,-39 -7,-48 -13,-41 z"
   id="path100"
   inkscape:connector-curvature="0"
   style="fill:#ffdd7f;stroke:none" />
         <path
   d="m 11673,15439 -7,-3 -21,-10 -20,-15 -18,-21 31,-35 5,5 12,13 23,15 28,10 z"
   id="path102"
   inkscape:connector-curvature="0"
   style="fill:#ffcc33;stroke:none" />
         <path
   d="m 11717,15385 -8,-2 -18,-13 -23,-15 -15,-21 30,-33 6,5 10,13 20,15 31,11 z"
   id="path104"
   inkscape:connector-curvature="0"
   style="fill:#ffcc33;stroke:none" />
         <path
   d="m 11760,15332 -8,-3 -18,-10 -20,-15 -15,-20 28,-36 2,5 13,10 18,15 28,11 z"
   id="path106"
   inkscape:connector-curvature="0"
   style="fill:#ffcc33;stroke:none" />
         <path
   d="m 11648,15479 10,-15 15,-23 21,-25 23,-31 25,-30 20,-28 18,-26 13,-17 7,-13 11,-10 10,-5 12,-3 13,-3 15,3 16,3 17,5 v 30 l -5,36 -5,35 -10,39 -7,25 -6,28 -2,28 -3,28 h -17 l -21,2 -18,3 -20,8 -20,7 -18,15 -23,18 -20,26 -13,12 -13,11 -15,5 -13,5 h -15 -13 l -15,-3 -10,-2 28,-33 13,-33 v -26 l -8,-23 10,-5 5,-5 5,-5 z"
   id="path108"
   inkscape:connector-curvature="0"
   style="fill:#ffffff;stroke:none" />
         <path
   d="m 11577,15632 5,-5 2,-3 5,-5 3,-2 25,-28 13,-26 3,-25 -3,-21 -8,-17 -10,-16 -10,-7 -8,-5 -7,-5 -3,-5 -5,-11 v -7 l -2,-3 h -8 -8 -7 -8 -33 l -38,3 h -38 -41 -38 -33 -28 -20 l -21,-3 -30,-5 -36,-5 -35,-5 -36,-3 -30,-5 h -21 -10 l 3,16 10,35 10,43 2,49 -10,61 -17,43 -16,25 -2,11 18,-3 38,-5 53,-10 61,-10 66,-13 61,-8 54,-7 35,-5 h 20 l 23,-3 h 21 l 23,-3 h 17 l 21,-2 h 15 15 z"
   id="path110"
   inkscape:connector-curvature="0"
   style="fill:#ccd6e0;stroke:none" />
         <path
   d="m 11175,15431 8,59 5,66 -5,68 -21,56 26,-5 23,-2 17,-5 h 8 l 13,-51 7,-59 v -61 l -15,-58 z"
   id="path112"
   inkscape:connector-curvature="0"
   style="fill:#b20000;stroke:none" />
         <path
   d="m 11297,15444 13,51 2,56 -5,58 -10,48 23,-2 20,-5 13,-3 h 5 l 10,-43 8,-43 v -51 l -15,-64 z"
   id="path114"
   inkscape:connector-curvature="0"
   style="fill:#b20000;stroke:none" />
         <path
   d="m 11490,15001 -2,16 5,10 10,10 15,8 13,5 15,5 21,5 17,7 21,5 15,6 13,2 h 7 l 10,-5 16,-5 23,-8 25,-7 25,-8 23,-5 23,-5 h 15 l 13,2 15,3 18,3 18,2 18,3 15,5 15,2 10,3 21,5 18,5 h 12 l 8,-8 -5,-12 -15,-18 -23,-15 -21,-16 -10,-7 -10,-5 -13,-6 -10,-5 -13,-2 -10,-5 -10,-3 -8,-5 -15,-10 -20,-10 -20,-8 -13,-5 h -10 l -16,3 -22,7 -23,5 -23,8 -23,8 -18,2 -13,3 h -10 -18 -17 l -21,2 -20,3 -18,7 -13,11 z"
   id="path116"
   inkscape:connector-curvature="0"
   style="fill:#7c3d28;stroke:none" />
         <path
   d="m 11567,15022 2,-13 -5,-10 -8,-10 -10,-8 h -13 l -12,2 -10,8 -6,13 v 10 l 3,13 8,7 10,8 h 13 l 12,-3 10,-7 z"
   id="path118"
   inkscape:connector-curvature="0"
   style="fill:#7c3d28;stroke:none" />
         <path
   d="m 10036,14460 -13,30 -7,31 v 33 l 10,33 18,33 30,33 43,30 59,31 25,10 23,13 23,10 23,13 20,10 18,10 15,10 16,8 22,13 36,20 46,25 53,28 48,28 46,23 36,15 18,8 10,3 10,5 13,7 12,5 13,8 15,5 16,3 15,2 18,3 17,5 23,5 26,5 23,8 25,7 26,8 22,5 23,8 28,7 28,10 31,11 33,7 35,5 38,3 44,-3 48,-5 51,-5 53,-5 51,-5 48,-5 41,-5 31,-5 17,-3 33,-13 16,-28 -10,-25 -31,-18 -28,-5 -30,-7 -31,-8 -30,-8 -31,-7 -33,-11 -31,-7 -30,-10 -31,-11 -28,-7 -27,-10 -26,-10 -23,-8 -23,-8 -20,-7 -18,-5 -38,-13 -33,-5 -25,-3 h -23 l -21,3 -20,2 -20,3 h -21 l -23,-3 -17,-2 -16,-5 -12,-5 -13,-5 -10,-8 -10,-8 -13,-7 -13,-11 -15,-12 -15,-13 -18,-13 -15,-15 -18,-15 -20,-15 -18,-18 -28,-23 -36,-20 -35,-23 -39,-18 -33,-18 -30,-15 -23,-10 -13,-11 -7,-10 -8,-10 -10,-15 -10,-13 -16,-15 -15,-15 -18,-13 -20,-13 -46,-20 -43,-15 -38,-8 h -36 l -33,8 -30,12 -26,23 z"
   id="path120"
   inkscape:connector-curvature="0"
   style="fill:#7c3d28;stroke:none" />
         <path
   d="m 11564,15027 3,-13 v -13 l -6,-10 -10,-8 -12,-2 h -13 l -10,5 -8,10 -5,13 2,10 6,10 10,8 12,2 h 13 l 10,-5 z"
   id="path122"
   inkscape:connector-curvature="0"
   style="fill:#7c3d28;stroke:none" />
         <path
   d="m 10204,14574 5,-13 -3,-12 -5,-10 -10,-8 -13,-3 h -12 l -10,5 -8,11 -3,12 v 13 l 5,10 11,8 12,2 h 13 l 10,-5 z"
   id="path124"
   inkscape:connector-curvature="0"
   style="fill:#7c3d28;stroke:none" />
         <path
   d="m 10646,14645 -20,-15 -26,-15 -28,-15 -28,-18 -27,-16 -23,-12 -21,-10 -12,-11 -16,-10 -23,-20 -28,-23 -33,-28 -33,-25 -35,-23 -28,-18 -26,-8 -20,-2 -23,-3 -20,-2 h -23 l -23,2 -25,10 -26,13 -25,20 -26,26 -17,28 -13,30 -5,33 v 33 l 7,31 18,31 26,27 33,26 40,25 41,23 46,21 40,17 36,18 31,15 20,13 20,15 28,18 31,21 35,20 33,18 31,12 20,11 10,2 23,-25 21,-33 20,-41 18,-43 12,-44 11,-40 5,-33 z"
   id="path126"
   inkscape:connector-curvature="0"
   style="fill:#ffbf00;stroke:none" />
        </g>
       </g>
      </g>
     </g>
    </g>
   </g>
  </g>
 </g>
</svg>