<?xml version="1.0" encoding="UTF-8" standalone="no"?>
<svg
   xmlns:ooo="http://xml.openoffice.org/svg/export"
   xmlns:dc="http://purl.org/dc/elements/1.1/"
   xmlns:cc="http://creativecommons.org/ns#"
   xmlns:rdf="http://www.w3.org/1999/02/22-rdf-syntax-ns#"
   xmlns:svg="http://www.w3.org/2000/svg"
   xmlns="http://www.w3.org/2000/svg"
   xmlns:sodipodi="http://sodipodi.sourceforge.net/DTD/sodipodi-0.dtd"
   xmlns:inkscape="http://www.inkscape.org/namespaces/inkscape"
   version="1.2"
   width="19.280001mm"
   height="34.16mm"
   viewBox="0 0 1928.0001 3416"
   preserveAspectRatio="xMidYMid"
   xml:space="preserve"
   id="svg107"
   sodipodi:docname="strmach.svg"
   style="fill-rule:evenodd;stroke-width:28.22200012;stroke-linejoin:round"
   inkscape:version="0.92.5 (2060ec1f9f, 2020-04-08)"><metadata
   id="metadata111"><rdf:RDF><cc:Work
       rdf:about=""><dc:format>image/svg+xml</dc:format><dc:type
         rdf:resource="http://purl.org/dc/dcmitype/StillImage" /></cc:Work></rdf:RDF></metadata><sodipodi:namedview
   pagecolor="#ffffff"
   bordercolor="#666666"
   borderopacity="1"
   objecttolerance="10"
   gridtolerance="10"
   guidetolerance="10"
   inkscape:pageopacity="0"
   inkscape:pageshadow="2"
   inkscape:window-width="664"
   inkscape:window-height="487"
   id="namedview109"
   showgrid="false"
   inkscape:zoom="0.2102413"
   inkscape:cx="36.434647"
   inkscape:cy="64.554329"
   inkscape:window-x="0"
   inkscape:window-y="0"
   inkscape:window-maximized="0"
   inkscape:current-layer="svg107" />
 <defs
   class="ClipPathGroup"
   id="defs8">
  <clipPath
   id="presentation_clip_path"
   clipPathUnits="userSpaceOnUse">
   <rect
   x="0"
   y="0"
   width="21000"
   height="29700"
   id="rect2" />
  </clipPath>
  <clipPath
   id="presentation_clip_path_shrink"
   clipPathUnits="userSpaceOnUse">
   <rect
   x="21"
   y="29"
   width="20958"
   height="29641"
   id="rect5" />
  </clipPath>
 </defs>
 <defs
   class="TextShapeIndex"
   id="defs12">
  <g
   ooo:slide="id1"
   ooo:id-list="id3"
   id="g10" />
 </defs>
 <defs
   class="EmbeddedBulletChars"
   id="defs44">
  <g
   id="bullet-char-template-57356"
   transform="matrix(4.8828125e-4,0,0,-4.8828125e-4,0,0)">
   <path
   d="M 580,1141 1163,571 580,0 -4,571 Z"
   id="path14"
   inkscape:connector-curvature="0" />
  </g>
  <g
   id="bullet-char-template-57354"
   transform="matrix(4.8828125e-4,0,0,-4.8828125e-4,0,0)">
   <path
   d="M 8,1128 H 1137 V 0 H 8 Z"
   id="path17"
   inkscape:connector-curvature="0" />
  </g>
  <g
   id="bullet-char-template-10146"
   transform="matrix(4.8828125e-4,0,0,-4.8828125e-4,0,0)">
   <path
   d="M 174,0 602,739 174,1481 1456,739 Z M 1358,739 309,1346 659,739 Z"
   id="path20"
   inkscape:connector-curvature="0" />
  </g>
  <g
   id="bullet-char-template-10132"
   transform="matrix(4.8828125e-4,0,0,-4.8828125e-4,0,0)">
   <path
   d="M 2015,739 1276,0 H 717 l 543,543 H 174 v 393 h 1086 l -543,545 h 557 z"
   id="path23"
   inkscape:connector-curvature="0" />
  </g>
  <g
   id="bullet-char-template-10007"
   transform="matrix(4.8828125e-4,0,0,-4.8828125e-4,0,0)">
   <path
   d="m 0,-2 c -7,16 -16,29 -25,39 l 381,530 c -94,256 -141,385 -141,387 0,25 13,38 40,38 9,0 21,-2 34,-5 21,4 42,12 65,25 l 27,-13 111,-251 280,301 64,-25 24,25 c 21,-10 41,-24 62,-43 C 886,937 835,863 770,784 769,783 710,716 594,584 L 774,223 c 0,-27 -21,-55 -63,-84 l 16,-20 C 717,90 699,76 672,76 641,76 570,178 457,381 L 164,-76 c -22,-34 -53,-51 -92,-51 -42,0 -63,17 -64,51 -7,9 -10,24 -10,44 0,9 1,19 2,30 z"
   id="path26"
   inkscape:connector-curvature="0" />
  </g>
  <g
   id="bullet-char-template-10004"
   transform="matrix(4.8828125e-4,0,0,-4.8828125e-4,0,0)">
   <path
   d="M 285,-33 C 182,-33 111,30 74,156 52,228 41,333 41,471 c 0,78 14,145 41,201 34,71 87,106 158,106 53,0 88,-31 106,-94 l 23,-176 c 8,-64 28,-97 59,-98 l 735,706 c 11,11 33,17 66,17 42,0 63,-15 63,-46 V 965 c 0,-36 -10,-64 -30,-84 L 442,47 C 390,-6 338,-33 285,-33 Z"
   id="path29"
   inkscape:connector-curvature="0" />
  </g>
  <g
   id="bullet-char-template-9679"
   transform="matrix(4.8828125e-4,0,0,-4.8828125e-4,0,0)">
   <path
   d="M 813,0 C 632,0 489,54 383,161 276,268 223,411 223,592 c 0,181 53,324 160,431 106,107 249,161 430,161 179,0 323,-54 432,-161 108,-107 162,-251 162,-431 0,-180 -54,-324 -162,-431 C 1136,54 992,0 813,0 Z"
   id="path32"
   inkscape:connector-curvature="0" />
  </g>
  <g
   id="bullet-char-template-8226"
   transform="matrix(4.8828125e-4,0,0,-4.8828125e-4,0,0)">
   <path
   d="m 346,457 c -73,0 -137,26 -191,78 -54,51 -81,114 -81,188 0,73 27,136 81,188 54,52 118,78 191,78 73,0 134,-26 185,-79 51,-51 77,-114 77,-187 0,-75 -25,-137 -76,-188 -50,-52 -112,-78 -186,-78 z"
   id="path35"
   inkscape:connector-curvature="0" />
  </g>
  <g
   id="bullet-char-template-8211"
   transform="matrix(4.8828125e-4,0,0,-4.8828125e-4,0,0)">
   <path
   d="M -4,459 H 1135 V 606 H -4 Z"
   id="path38"
   inkscape:connector-curvature="0" />
  </g>
  <g
   id="bullet-char-template-61548"
   transform="matrix(4.8828125e-4,0,0,-4.8828125e-4,0,0)">
   <path
   d="m 173,740 c 0,163 58,303 173,419 116,115 255,173 419,173 163,0 302,-58 418,-173 116,-116 174,-256 174,-419 0,-163 -58,-303 -174,-418 C 1067,206 928,148 765,148 601,148 462,206 346,322 231,437 173,577 173,740 Z"
   id="path41"
   inkscape:connector-curvature="0" />
  </g>
 </defs>
 <g
   id="g49"
   transform="translate(-9536,-13142)">
  <g
   id="id2"
   class="Master_Slide">
   <g
   id="bg-id2"
   class="Background" />
   <g
   id="bo-id2"
   class="BackgroundObjects" />
  </g>
 </g>
 <g
   class="SlideGroup"
   id="g105"
   transform="translate(-9536,-13142)">
  <g
   id="g103">
   <g
   id="container-id1">
    <g
   id="id1"
   class="Slide"
   clip-path="url(#presentation_clip_path)">
     <g
   class="Page"
   id="g99">
      <g
   class="Graphic"
   id="g97">
       <g
   id="id3">
        <rect
   class="BoundingBox"
   x="9536"
   y="13142"
   width="1928"
   height="3416"
   id="rect51"
   style="fill:none;stroke:none" />
        <defs
   id="defs56">
         <clipPath
   id="clip_path_1"
   clipPathUnits="userSpaceOnUse">
          <path
   d="m 9536,13142 h 1927 v 3415 H 9536 Z"
   id="path53"
   inkscape:connector-curvature="0" />
         </clipPath>
        </defs>
        <g
   clip-path="url(#clip_path_1)"
   id="g94">
         <path
   d="m 10057,14512 8,-10 8,-13 10,-15 10,-15 13,-16 12,-15 16,-13 18,-12 22,-13 21,-13 20,-12 20,-16 18,-12 18,-16 18,-15 15,-13 10,-7 10,-8 8,-7 10,-8 13,-10 18,-13 15,-15 20,-15 16,-18 15,-16 10,-17 8,-16 18,23 22,28 23,28 21,31 20,30 18,26 13,23 7,17 3,16 5,20 2,20 3,21 2,15 v 10 10 5 l -43,46 -53,56 -59,63 -61,67 -58,71 -51,68 -41,66 -23,59 -5,18 -2,17 v 16 l 5,15 18,20 20,21 18,20 18,18 17,20 16,18 15,15 15,13 20,13 21,12 23,13 28,18 28,23 30,30 36,36 35,48 -5,30 5,8 16,20 17,26 13,23 -2,10 -5,13 -6,12 -7,10 -10,11 -11,15 -15,15 -15,15 -5,5 -5,3 -8,5 -5,5 -15,10 -15,11 -18,10 -18,7 -8,8 -2,13 5,12 7,16 8,5 10,5 16,2 15,5 h 18 l 17,3 h 18 18 l 20,-3 21,-2 25,-3 26,-2 22,-5 21,-3 18,-5 12,-2 13,-6 20,-7 21,-13 25,-10 23,-13 20,-12 18,-11 13,-7 -5,-13 -5,-10 -8,-10 -10,-5 3,-18 -3,-15 -3,-13 -5,-10 -5,-16 -10,-20 -10,-18 -8,-12 -7,-5 -11,-6 -7,-2 -3,-3 -15,-25 -18,-31 -20,-28 -20,-27 -11,-11 -7,-10 -8,-7 -8,-8 -27,-3 -13,-20 -15,-25 -16,-23 -15,-26 -15,-23 -13,-20 -15,-20 -15,-15 -13,-13 -15,-15 -18,-16 -18,-15 -20,-18 -18,-15 -16,-13 -12,-12 -3,-3 -2,-2 -3,-3 -2,-3 5,-5 5,-7 5,-5 7,-5 11,-8 10,-8 13,-5 12,-7 10,-5 13,-6 10,-2 11,-5 17,-8 31,-12 35,-16 39,-18 38,-20 35,-23 26,-20 13,-20 10,28 15,38 15,40 15,46 16,43 12,41 13,36 5,25 8,43 8,43 10,41 12,33 16,23 20,23 20,23 13,23 15,50 18,61 18,61 15,41 10,26 13,27 8,26 5,23 2,23 v 25 23 18 l -17,10 v 38 l -3,48 -5,49 -8,33 -10,20 -7,18 -8,15 -5,15 -10,26 -16,40 -20,38 -18,23 -15,11 -15,7 -13,10 -3,13 6,20 10,21 17,17 28,11 h 21 20 l 21,-3 22,-5 26,-5 23,-10 20,-10 23,-16 23,-17 23,-18 25,-18 26,-18 23,-15 20,-18 13,-13 10,-12 -8,-8 -5,-8 -5,-2 -3,-3 v -10 -12 l -2,-11 -5,-10 -10,-15 -16,-23 -12,-20 -5,-16 v -45 l -3,-49 v -43 l -3,-25 -35,-10 2,-69 3,-102 -3,-104 -10,-74 -10,-22 -10,-23 -10,-21 -10,-20 -13,-18 -10,-18 -11,-12 -7,-10 v -33 l -5,-44 -3,-45 -5,-51 -2,-38 -6,-39 -2,-27 -5,-23 -10,-59 -16,-86 -10,-87 5,-63 16,-46 10,-48 v -59 l -21,-71 -12,-25 -16,-23 -17,-26 -18,-22 -21,-23 -20,-21 -20,-17 -18,-18 -18,-15 -15,-13 -10,-10 -8,-8 18,-30 23,-31 18,-23 12,-15 8,-8 8,-12 v -18 l -3,-28 -10,-36 -18,-40 -20,-44 -23,-43 -23,-41 -15,-40 -13,-38 -10,-33 -5,-28 -8,-21 -13,-17 -17,-13 -13,-8 -15,-10 -21,-8 -18,-7 -17,-8 -13,-7 -15,-8 -11,-5 -10,-5 -10,-5 -10,-8 -10,-8 -10,-7 -11,-8 -7,-10 -8,-8 10,-5 13,-5 13,-5 12,-5 16,-5 12,-3 13,-2 h 13 v -15 -18 l -5,-18 -8,-20 -10,-18 -13,-20 -18,-21 -20,-20 -8,-20 -7,-26 -10,-25 -16,-26 -17,-23 -26,-20 -30,-15 -36,-10 -36,-3 -33,-2 -30,2 -26,3 -22,7 -23,8 -18,8 -21,10 -17,10 -21,13 -17,12 -18,13 -13,18 -13,18 -7,20 -3,23 8,38 20,20 20,8 h 13 v 10 l 3,8 5,7 5,5 5,6 8,5 7,7 8,5 -5,16 -5,17 -5,18 -6,15 -2,11 2,7 11,5 h 23 l -3,5 v 5 l 3,3 2,5 3,3 5,2 2,3 h 3 l -3,5 v 5 5 2 l 5,3 8,3 8,2 2,5 v 8 l 3,5 2,8 8,7 13,3 12,-3 13,-2 10,-5 v 17 l 10,-5 11,-5 12,-5 13,-8 13,-7 10,-5 13,-8 7,-5 26,38 -5,5 -6,5 -5,5 -5,5 -30,44 -23,48 -15,51 -5,51 2,53 3,46 2,35 -2,26 -5,23 -8,20 -5,20 -3,18 -23,15 -25,21 -25,25 -23,26 -23,25 -21,25 -17,23 -13,18 -13,15 -13,18 -15,18 -15,18 -15,17 -13,16 -10,12 -10,8 -18,13 -21,15 -20,10 -15,8 -10,-3 -11,-2 -12,-3 -13,-2 -13,-3 h -10 -10 l -8,3 -12,7 -16,10 -10,16 -10,12 -8,11 -2,10 v 12 l 5,13 10,13 8,10 7,10 8,5 13,5 18,5 20,5 20,3 h 10 l 13,-3 13,-2 15,-3 13,-5 15,-5 10,-7 z"
   id="path58"
   inkscape:connector-curvature="0"
   style="fill:#000000;stroke:none" />
         <path
   d="m 9862,15028 -107,1238 -219,86 v 38 l 145,26 333,-120 806,104 -185,77 v 56 l 152,25 677,-310 v -51 l -104,-15 -64,28 v -46 l -239,-23 -112,-10 -71,-8 -109,44 -176,-21 -158,-183 298,-213 158,5 35,-33 v -31 l -422,-25 -51,23 v 46 l 148,10 -196,137 -38,-686 -3,-23 -10,-188 -280,-49 -53,21 30,-384 102,38 15,-2 16,-13 7,-20 -5,-18 -125,-54 13,-175 -109,20 -5,54 -10,-5 -13,-3 h -10 -13 l -10,5 -10,5 -8,8 -8,10 -109,-46 -18,16 -8,-3 -12,-8 -10,-7 7,-10 84,-23 43,28 110,-21 109,-20 153,-36 -112,-109 -326,51 -5,5 -7,13 -3,23 13,28 -8,2 -18,3 -23,5 -25,7 -28,16 -15,28 v 28 l 15,17 20,10 36,16 41,20 45,20 46,21 38,15 26,13 10,5 -38,478 z"
   id="path60"
   inkscape:connector-curvature="0"
   style="fill:#000000;stroke:none" />
         <path
   d="m 10304,14293 10,-7 10,-8 8,-7 10,-8 18,8 18,5 13,5 5,2 15,-10 188,76 3,16 5,20 2,20 3,21 -244,-94 5,-16 z"
   id="path62"
   inkscape:connector-curvature="0"
   style="fill:#000000;stroke:none" />
         <path
   d="m 10360,15173 3,40 -21,-20 -25,-25 -26,-26 -25,-25 -20,-26 -18,-25 -8,-20 3,-18 18,20 20,21 18,20 18,18 17,20 16,18 15,15 z"
   id="path64"
   inkscape:connector-curvature="0"
   style="fill:#ffffff;stroke:none" />
         <path
   d="m 10607,15518 7,-10 6,-12 5,-13 2,-10 8,12 10,11 8,10 10,10 10,8 10,5 10,5 h 10 l 23,-13 21,-25 18,-28 10,-21 h 20 l 5,16 10,38 16,40 12,26 -7,7 -13,13 -13,13 -12,15 -18,13 -18,10 -20,5 h -21 l -15,-10 -15,-10 -16,-13 -15,-10 -13,-13 -12,-15 -13,-13 -10,-15 15,-18 z"
   id="path66"
   inkscape:connector-curvature="0"
   style="fill:#ffffff;stroke:none" />
         <path
   d="m 10533,15592 5,-5 8,-5 5,-3 5,-5 10,11 13,10 15,12 18,13 15,13 15,10 13,8 10,5 -17,7 -23,8 -28,3 -31,2 h -28 l -25,-2 -18,-3 -8,-5 -5,-8 v -7 l 3,-5 5,-3 13,-8 20,-10 15,-10 8,-8 -3,-5 -5,-5 -2,-2 z"
   id="path68"
   inkscape:connector-curvature="0"
   style="fill:#ffffff;stroke:none" />
         <path
   d="m 10429,14980 -3,-3 -2,-2 -3,-3 -2,-3 5,-5 5,-7 5,-5 7,-5 -12,2 -18,5 -18,8 -15,5 -18,8 -13,5 -10,7 -5,5 v 5 l 3,3 5,2 h 2 3 l 10,-2 13,-3 15,-2 13,-3 15,-5 10,-2 z"
   id="path70"
   inkscape:connector-curvature="0"
   style="fill:#ffffff;stroke:none" />
         <path
   d="m 11014,15963 5,-15 8,-15 7,-18 10,-20 10,7 11,8 12,5 16,5 12,5 16,3 15,5 15,2 13,-5 13,-7 10,-8 7,-5 13,25 13,31 15,30 13,26 -15,12 -21,13 -15,13 -5,5 -18,-3 -23,-5 -25,-7 -28,-8 -23,-8 -23,-7 -15,-8 -10,-5 -3,-15 v -18 l 3,-10 v -5 z"
   id="path72"
   inkscape:connector-curvature="0"
   style="fill:#ffffff;stroke:none" />
         <path
   d="m 11060,15727 17,-10 16,2 15,3 h 15 18 15 l 15,-3 11,-2 10,-5 35,10 -38,7 3,36 2,43 3,46 v 28 l -15,2 -18,8 -15,10 -16,13 -15,-5 -13,-8 -15,-5 -8,-7 3,-36 3,-41 5,-40 5,-28 z"
   id="path74"
   inkscape:connector-curvature="0"
   style="fill:#ffffff;stroke:none" />
         <path
   d="m 11075,14919 5,23 2,27 6,39 2,38 h -23 v 20 l 3,18 2,18 5,15 -17,8 -21,7 -18,8 -15,2 -18,3 -15,2 -15,-2 -13,-3 -8,-35 -10,-41 -12,-48 -13,-46 -10,-46 -13,-38 -8,-30 -5,-21 -7,-30 -5,-41 5,-43 23,-43 h 12 16 l 12,-3 15,-5 11,-5 12,-5 8,-5 8,-5 10,10 7,10 6,10 2,10 v 18 l 3,28 2,33 8,33 13,38 15,41 18,31 z"
   id="path76"
   inkscape:connector-curvature="0"
   style="fill:#ffffff;stroke:none" />
         <path
   d="m 10856,14179 8,8 10,10 15,13 18,15 -8,15 21,20 25,36 26,43 22,48 13,51 3,49 -16,43 -33,35 v -15 l -5,-18 -7,-23 -13,-20 -13,-23 -12,-20 -13,-15 -10,-11 -26,-20 -25,-20 -23,-15 -26,-13 -22,-10 -26,-8 -23,-8 -28,-5 -43,23 -15,-28 -18,-35 -20,-38 -21,-39 -20,-38 -20,-33 -18,-30 -16,-21 13,-55 18,-49 15,-38 8,-23 18,-20 17,-28 16,-33 v -31 l -8,-17 -10,-26 -13,-28 -12,-28 -16,-28 -18,-23 -15,-17 -15,-8 -20,-5 -16,-3 h -15 l -13,5 5,-5 5,-5 6,-5 5,-5 h 12 l 13,-2 h 13 l 13,2 12,5 10,5 11,10 10,13 10,15 13,16 15,17 15,16 15,18 13,17 13,16 8,17 12,26 18,15 18,5 23,-2 20,-11 10,-20 v -28 l -5,-35 -5,-16 -5,-18 -10,-20 -10,-25 -16,-23 -15,-23 -20,-20 -21,-18 11,5 15,8 13,7 17,8 13,23 15,28 18,28 15,30 16,31 10,25 10,20 3,16 v 33 56 l 2,63 3,64 7,58 10,51 16,38 z"
   id="path78"
   inkscape:connector-curvature="0"
   style="fill:#ffffff;stroke:none" />
         <path
   d="m 10444,13155 -36,-3 -33,-2 -30,2 -26,3 -22,7 -23,8 -18,8 -21,10 28,2 -15,10 -15,11 -13,10 -13,13 -10,15 -7,18 -3,20 v 25 l 31,-20 30,-15 28,-13 33,-13 36,-10 41,-10 50,-8 59,-12 -13,-8 -13,-8 -12,-5 -16,-5 -15,-5 -15,-2 -18,-3 h -15 l 15,-8 18,-5 18,-2 z"
   id="path80"
   inkscape:connector-curvature="0"
   style="fill:#ffffff;stroke:none" />
         <path
   d="m 10337,13600 v 17 l 10,-5 11,-5 12,-5 13,-8 13,-7 10,-5 13,-8 7,-5 23,-10 26,-13 28,-15 28,-18 28,-18 25,-17 23,-18 18,-18 -3,-25 -8,-23 -10,-18 -12,-20 -11,-18 -10,-16 -7,-15 -3,-12 -5,-13 -15,-13 -18,-10 -13,-10 -7,2 -23,3 -33,7 -39,8 -43,10 -43,16 -41,15 -35,18 10,25 7,28 13,25 15,23 18,31 18,40 10,51 z"
   id="path82"
   inkscape:connector-curvature="0"
   style="fill:#ffffff;stroke:none" />
         <path
   d="m 10576,15396 5,-30 16,-8 15,-7 18,-10 15,-13 15,-13 10,-13 6,-15 v -18 l 27,3 8,8 8,7 7,10 11,11 -18,17 7,13 21,25 23,33 15,23 -8,5 -5,3 -5,5 -8,10 -10,13 -10,15 -13,13 -7,10 -8,-13 -13,-15 -12,-18 -13,-20 -13,-18 -12,-15 -11,-13 -5,-7 -12,7 -16,5 -15,8 z"
   id="path84"
   inkscape:connector-curvature="0"
   style="fill:#ffffff;stroke:none" />
         <path
   d="m 10991,16057 15,8 15,5 21,8 18,5 20,5 18,5 15,2 13,3 -16,8 -17,10 -21,12 -15,13 -8,8 -5,5 -5,5 -5,5 -10,3 h -13 -15 -13 -10 l -13,-5 -7,-3 -5,-8 -3,-5 v -5 -5 -5 l 3,-13 10,-10 h 18 l 25,10 -2,-15 -3,-18 -5,-15 z"
   id="path86"
   inkscape:connector-curvature="0"
   style="fill:#ffffff;stroke:none" />
         <path
   d="m 10360,14797 31,-44 40,-53 49,-56 51,-58 50,-54 49,-48 40,-41 31,-28 -20,-20 -26,20 v -20 l 5,-20 8,-18 10,-10 28,2 31,10 30,18 28,23 25,23 23,23 16,23 10,18 10,30 5,31 3,28 v 20 l -21,7 -23,11 -20,10 -18,13 -18,12 -17,13 -18,13 -15,15 -23,18 -38,25 -44,28 -51,28 -48,31 -48,22 -38,21 -28,10 -16,-13 -20,-20 -15,-20 z"
   id="path88"
   inkscape:connector-curvature="0"
   style="fill:#ffffff;stroke:none" />
         <path
   d="m 9821,16202 8,-129 343,-247 -3,201 -236,162 v 26 z"
   id="path90"
   inkscape:connector-curvature="0"
   style="fill:#ffffff;stroke:none" />
         <path
   d="m 10050,16230 168,-117 94,145 z"
   id="path92"
   inkscape:connector-curvature="0"
   style="fill:#ffffff;stroke:none" />
        </g>
       </g>
      </g>
     </g>
    </g>
   </g>
  </g>
 </g>
</svg>