<?xml version="1.0" encoding="UTF-8" standalone="no"?>
<svg
   xmlns:ooo="http://xml.openoffice.org/svg/export"
   xmlns:dc="http://purl.org/dc/elements/1.1/"
   xmlns:cc="http://creativecommons.org/ns#"
   xmlns:rdf="http://www.w3.org/1999/02/22-rdf-syntax-ns#"
   xmlns:svg="http://www.w3.org/2000/svg"
   xmlns="http://www.w3.org/2000/svg"
   xmlns:sodipodi="http://sodipodi.sourceforge.net/DTD/sodipodi-0.dtd"
   xmlns:inkscape="http://www.inkscape.org/namespaces/inkscape"
   version="1.2"
   width="17.809999mm"
   height="20.219999mm"
   viewBox="0 0 1780.9999 2021.9999"
   preserveAspectRatio="xMidYMid"
   xml:space="preserve"
   id="svg295"
   sodipodi:docname="strolwlk.svg"
   style="fill-rule:evenodd;stroke-width:28.22200012;stroke-linejoin:round"
   inkscape:version="0.92.5 (2060ec1f9f, 2020-04-08)"><metadata
   id="metadata299"><rdf:RDF><cc:Work
       rdf:about=""><dc:format>image/svg+xml</dc:format><dc:type
         rdf:resource="http://purl.org/dc/dcmitype/StillImage" /></cc:Work></rdf:RDF></metadata><sodipodi:namedview
   pagecolor="#ffffff"
   bordercolor="#666666"
   borderopacity="1"
   objecttolerance="10"
   gridtolerance="10"
   guidetolerance="10"
   inkscape:pageopacity="0"
   inkscape:pageshadow="2"
   inkscape:window-width="664"
   inkscape:window-height="487"
   id="namedview297"
   showgrid="false"
   inkscape:zoom="0.2102413"
   inkscape:cx="33.675592"
   inkscape:cy="38.211022"
   inkscape:window-x="0"
   inkscape:window-y="0"
   inkscape:window-maximized="0"
   inkscape:current-layer="svg295" />
 <defs
   class="ClipPathGroup"
   id="defs8">
  <clipPath
   id="presentation_clip_path"
   clipPathUnits="userSpaceOnUse">
   <rect
   x="0"
   y="0"
   width="21000"
   height="29700"
   id="rect2" />
  </clipPath>
  <clipPath
   id="presentation_clip_path_shrink"
   clipPathUnits="userSpaceOnUse">
   <rect
   x="21"
   y="29"
   width="20958"
   height="29641"
   id="rect5" />
  </clipPath>
 </defs>
 <defs
   class="TextShapeIndex"
   id="defs12">
  <g
   ooo:slide="id1"
   ooo:id-list="id3"
   id="g10" />
 </defs>
 <defs
   class="EmbeddedBulletChars"
   id="defs44">
  <g
   id="bullet-char-template-57356"
   transform="matrix(4.8828125e-4,0,0,-4.8828125e-4,0,0)">
   <path
   d="M 580,1141 1163,571 580,0 -4,571 Z"
   id="path14"
   inkscape:connector-curvature="0" />
  </g>
  <g
   id="bullet-char-template-57354"
   transform="matrix(4.8828125e-4,0,0,-4.8828125e-4,0,0)">
   <path
   d="M 8,1128 H 1137 V 0 H 8 Z"
   id="path17"
   inkscape:connector-curvature="0" />
  </g>
  <g
   id="bullet-char-template-10146"
   transform="matrix(4.8828125e-4,0,0,-4.8828125e-4,0,0)">
   <path
   d="M 174,0 602,739 174,1481 1456,739 Z M 1358,739 309,1346 659,739 Z"
   id="path20"
   inkscape:connector-curvature="0" />
  </g>
  <g
   id="bullet-char-template-10132"
   transform="matrix(4.8828125e-4,0,0,-4.8828125e-4,0,0)">
   <path
   d="M 2015,739 1276,0 H 717 l 543,543 H 174 v 393 h 1086 l -543,545 h 557 z"
   id="path23"
   inkscape:connector-curvature="0" />
  </g>
  <g
   id="bullet-char-template-10007"
   transform="matrix(4.8828125e-4,0,0,-4.8828125e-4,0,0)">
   <path
   d="m 0,-2 c -7,16 -16,29 -25,39 l 381,530 c -94,256 -141,385 -141,387 0,25 13,38 40,38 9,0 21,-2 34,-5 21,4 42,12 65,25 l 27,-13 111,-251 280,301 64,-25 24,25 c 21,-10 41,-24 62,-43 C 886,937 835,863 770,784 769,783 710,716 594,584 L 774,223 c 0,-27 -21,-55 -63,-84 l 16,-20 C 717,90 699,76 672,76 641,76 570,178 457,381 L 164,-76 c -22,-34 -53,-51 -92,-51 -42,0 -63,17 -64,51 -7,9 -10,24 -10,44 0,9 1,19 2,30 z"
   id="path26"
   inkscape:connector-curvature="0" />
  </g>
  <g
   id="bullet-char-template-10004"
   transform="matrix(4.8828125e-4,0,0,-4.8828125e-4,0,0)">
   <path
   d="M 285,-33 C 182,-33 111,30 74,156 52,228 41,333 41,471 c 0,78 14,145 41,201 34,71 87,106 158,106 53,0 88,-31 106,-94 l 23,-176 c 8,-64 28,-97 59,-98 l 735,706 c 11,11 33,17 66,17 42,0 63,-15 63,-46 V 965 c 0,-36 -10,-64 -30,-84 L 442,47 C 390,-6 338,-33 285,-33 Z"
   id="path29"
   inkscape:connector-curvature="0" />
  </g>
  <g
   id="bullet-char-template-9679"
   transform="matrix(4.8828125e-4,0,0,-4.8828125e-4,0,0)">
   <path
   d="M 813,0 C 632,0 489,54 383,161 276,268 223,411 223,592 c 0,181 53,324 160,431 106,107 249,161 430,161 179,0 323,-54 432,-161 108,-107 162,-251 162,-431 0,-180 -54,-324 -162,-431 C 1136,54 992,0 813,0 Z"
   id="path32"
   inkscape:connector-curvature="0" />
  </g>
  <g
   id="bullet-char-template-8226"
   transform="matrix(4.8828125e-4,0,0,-4.8828125e-4,0,0)">
   <path
   d="m 346,457 c -73,0 -137,26 -191,78 -54,51 -81,114 -81,188 0,73 27,136 81,188 54,52 118,78 191,78 73,0 134,-26 185,-79 51,-51 77,-114 77,-187 0,-75 -25,-137 -76,-188 -50,-52 -112,-78 -186,-78 z"
   id="path35"
   inkscape:connector-curvature="0" />
  </g>
  <g
   id="bullet-char-template-8211"
   transform="matrix(4.8828125e-4,0,0,-4.8828125e-4,0,0)">
   <path
   d="M -4,459 H 1135 V 606 H -4 Z"
   id="path38"
   inkscape:connector-curvature="0" />
  </g>
  <g
   id="bullet-char-template-61548"
   transform="matrix(4.8828125e-4,0,0,-4.8828125e-4,0,0)">
   <path
   d="m 173,740 c 0,163 58,303 173,419 116,115 255,173 419,173 163,0 302,-58 418,-173 116,-116 174,-256 174,-419 0,-163 -58,-303 -174,-418 C 1067,206 928,148 765,148 601,148 462,206 346,322 231,437 173,577 173,740 Z"
   id="path41"
   inkscape:connector-curvature="0" />
  </g>
 </defs>
 <g
   id="g49"
   transform="translate(-9609,-13839)">
  <g
   id="id2"
   class="Master_Slide">
   <g
   id="bg-id2"
   class="Background" />
   <g
   id="bo-id2"
   class="BackgroundObjects" />
  </g>
 </g>
 <g
   class="SlideGroup"
   id="g293"
   transform="translate(-9609,-13839)">
  <g
   id="g291">
   <g
   id="container-id1">
    <g
   id="id1"
   class="Slide"
   clip-path="url(#presentation_clip_path)">
     <g
   class="Page"
   id="g287">
      <g
   class="Graphic"
   id="g285">
       <g
   id="id3">
        <rect
   class="BoundingBox"
   x="9609"
   y="13839"
   width="1781"
   height="2022"
   id="rect51"
   style="fill:none;stroke:none" />
        <defs
   id="defs56">
         <clipPath
   id="clip_path_1"
   clipPathUnits="userSpaceOnUse">
          <path
   d="m 9609,13839 h 1780 v 2021 H 9609 Z"
   id="path53"
   inkscape:connector-curvature="0" />
         </clipPath>
        </defs>
        <g
   clip-path="url(#clip_path_1)"
   id="g282">
         <path
   d="m 10645,13959 v 12 l 28,-20 27,-15 31,-13 28,-8 h 31 l 33,-2 30,5 31,7 28,8 28,13 28,13 23,17 22,16 21,15 20,20 13,18 15,-10 -18,-18 -20,-20 -20,-21 -23,-15 -28,-18 -28,-12 -28,-13 -33,-8 -31,-7 -30,-6 -33,-2 -31,5 -33,8 -31,12 -33,16 -28,20 v 13 -13 l -5,5 3,5 5,5 h 8 z"
   id="path58"
   inkscape:connector-curvature="0"
   style="fill:#000000;stroke:none" />
         <path
   d="m 10784,14251 v 0 l -5,-30 -7,-39 -13,-38 -18,-40 -18,-39 -23,-40 -25,-36 -30,-30 -11,10 26,30 25,36 23,35 18,39 18,40 12,38 8,34 v 30 0 z"
   id="path60"
   inkscape:connector-curvature="0"
   style="fill:#000000;stroke:none" />
         <path
   d="m 10723,14399 v 0 l 8,-26 20,-33 21,-38 12,-51 h -20 l -8,46 -20,38 -20,33 -13,31 v 0 z"
   id="path62"
   inkscape:connector-curvature="0"
   style="fill:#000000;stroke:none" />
         <path
   d="m 10866,14485 15,-3 -18,-25 -23,-18 -28,-12 -30,-6 -26,-5 -20,-5 -13,-5 v -7 h -20 l 10,17 18,11 25,5 26,5 25,5 23,13 23,12 13,21 15,-3 -15,3 5,5 h 5 l 5,-3 v -8 z"
   id="path64"
   inkscape:connector-curvature="0"
   style="fill:#000000;stroke:none" />
         <path
   d="m 10820,14304 v 0 l 26,28 20,31 5,46 -5,76 h 15 l 10,-76 -10,-51 -20,-36 -31,-28 v 0 z"
   id="path66"
   inkscape:connector-curvature="0"
   style="fill:#000000;stroke:none" />
         <path
   d="m 10853,14213 v 0 18 l -5,10 -13,7 -10,8 -10,10 -8,10 v 13 l 13,15 10,-10 -7,-10 v -2 l 2,-6 10,-5 11,-7 12,-13 10,-15 6,-23 v 0 z"
   id="path68"
   inkscape:connector-curvature="0"
   style="fill:#000000;stroke:none" />
         <path
   d="m 11067,14045 13,-13 -56,-28 h -46 l -41,18 -33,33 -20,43 -16,44 -10,40 -5,31 h 21 v -31 l 10,-35 15,-43 20,-39 28,-28 31,-17 h 41 l 50,28 13,-13 -13,13 h 8 l 5,-6 3,-5 -5,-5 z"
   id="path70"
   inkscape:connector-curvature="0"
   style="fill:#000000;stroke:none" />
         <path
   d="m 10690,14022 v -8 l -5,-2 h -5 l -5,5 z"
   id="path72"
   inkscape:connector-curvature="0"
   style="fill:#000000;stroke:none" />
         <path
   d="m 10675,14124 3,-5 2,-10 v -26 -33 l 10,-28 -15,-5 -10,33 -5,33 v 26 l 2,10 3,-5 -3,5 3,5 5,2 5,-2 3,-5 z"
   id="path74"
   inkscape:connector-curvature="0"
   style="fill:#000000;stroke:none" />
         <path
   d="m 10675,14190 v 0 l -23,-5 -2,-15 10,-26 15,-20 -10,-10 -20,25 -11,31 8,25 33,15 v 0 z"
   id="path76"
   inkscape:connector-curvature="0"
   style="fill:#000000;stroke:none" />
         <path
   d="m 10716,14261 v 0 -25 l -5,-21 -13,-17 -23,-8 v 20 l 13,3 7,8 5,15 v 25 0 z"
   id="path78"
   inkscape:connector-curvature="0"
   style="fill:#000000;stroke:none" />
         <path
   d="m 10764,14279 -10,3 h -20 l -16,-6 -2,-15 h -16 l 8,26 26,10 h 20 l 10,-3 z"
   id="path80"
   inkscape:connector-curvature="0"
   style="fill:#000000;stroke:none" />
         <path
   d="m 10764,14294 5,-2 3,-5 -3,-5 -5,-3 z"
   id="path82"
   inkscape:connector-curvature="0"
   style="fill:#000000;stroke:none" />
         <path
   d="m 11036,14022 -5,-2 -2,2 -3,5 v 5 z"
   id="path84"
   inkscape:connector-curvature="0"
   style="fill:#000000;stroke:none" />
         <path
   d="m 11069,14109 -5,12 18,-12 5,-18 -2,-13 -5,-15 -13,-13 -10,-10 -13,-13 -8,-5 -10,10 8,10 13,8 10,10 7,13 5,10 3,8 -5,7 -8,8 -5,13 5,-13 -5,3 v 7 l 3,5 h 7 z"
   id="path86"
   inkscape:connector-curvature="0"
   style="fill:#000000;stroke:none" />
         <path
   d="m 11059,14213 -10,10 31,-15 10,-31 -8,-35 -13,-33 -15,10 13,28 2,30 -5,21 -15,5 -10,10 10,-10 -8,2 -2,8 2,8 8,2 z"
   id="path88"
   inkscape:connector-curvature="0"
   style="fill:#000000;stroke:none" />
         <path
   d="m 11001,14261 -13,3 28,10 23,-10 13,-23 7,-28 h -20 l -3,23 -7,18 -13,5 -18,-11 -13,3 13,-3 h -7 l -6,3 -2,8 5,5 z"
   id="path90"
   inkscape:connector-curvature="0"
   style="fill:#000000;stroke:none" />
         <path
   d="m 10907,14292 v 0 l 10,7 12,5 11,-5 12,-2 11,-5 15,-8 10,-13 13,-10 -16,-10 -7,10 -10,8 -11,7 -10,6 -7,2 h -11 -7 l -5,-2 v 0 z"
   id="path92"
   inkscape:connector-curvature="0"
   style="fill:#000000;stroke:none" />
         <path
   d="m 10894,14264 -10,-8 2,5 3,5 5,13 13,13 10,-10 -8,-13 -5,-8 -3,-5 h 3 l -10,-8 10,8 -3,-8 -7,-2 -8,2 -2,8 z"
   id="path94"
   inkscape:connector-curvature="0"
   style="fill:#000000;stroke:none" />
         <path
   d="m 10858,14208 -12,25 15,21 20,7 13,3 v -16 l -8,-2 -15,-8 -10,-5 7,-15 z"
   id="path96"
   inkscape:connector-curvature="0"
   style="fill:#000000;stroke:none" />
         <path
   d="m 10868,14218 3,-5 -3,-5 -5,-3 -5,3 z"
   id="path98"
   inkscape:connector-curvature="0"
   style="fill:#000000;stroke:none" />
         <path
   d="m 10756,14846 3,5 5,3 5,-3 3,-5 z"
   id="path100"
   inkscape:connector-curvature="0"
   style="fill:#000000;stroke:none" />
         <path
   d="m 10805,14434 -26,82 -17,111 -11,117 5,102 h 16 v -102 l 5,-117 18,-111 25,-77 z"
   id="path102"
   inkscape:connector-curvature="0"
   style="fill:#000000;stroke:none" />
         <path
   d="m 10820,14439 v -7 l -5,-3 h -5 l -5,5 z"
   id="path104"
   inkscape:connector-curvature="0"
   style="fill:#000000;stroke:none" />
         <path
   d="m 10960,14584 -3,-7 -7,-3 -8,3 -2,7 z"
   id="path106"
   inkscape:connector-curvature="0"
   style="fill:#000000;stroke:none" />
         <path
   d="m 10665,14887 -3,15 100,-15 73,-26 56,-35 36,-43 18,-49 10,-53 5,-48 v -49 h -20 v 49 48 l -11,48 -17,43 -31,39 -51,35 -68,26 -100,15 -2,15 2,-15 -5,2 -2,6 2,5 5,2 z"
   id="path108"
   inkscape:connector-curvature="0"
   style="fill:#000000;stroke:none" />
         <path
   d="m 10764,15144 8,10 10,-51 5,-46 -5,-35 -10,-36 -16,-30 -25,-26 -28,-23 -38,-20 -5,15 33,20 28,18 20,26 15,25 11,31 v 35 46 l -11,51 8,10 -8,-10 3,5 5,3 5,-3 3,-5 z"
   id="path110"
   inkscape:connector-curvature="0"
   style="fill:#000000;stroke:none" />
         <path
   d="m 11153,14635 16,84 2,74 -2,63 -11,54 -20,51 -25,38 -28,35 -36,28 -33,23 -41,21 -38,15 -38,10 -38,8 -36,5 h -33 -28 v 20 h 28 l 33,-5 36,-5 38,-8 43,-10 38,-15 41,-20 38,-23 36,-33 33,-36 25,-43 21,-51 10,-59 8,-63 -8,-74 -15,-84 z"
   id="path112"
   inkscape:connector-curvature="0"
   style="fill:#000000;stroke:none" />
         <path
   d="m 11169,14635 -3,-5 -5,-3 -5,3 -3,5 z"
   id="path114"
   inkscape:connector-curvature="0"
   style="fill:#000000;stroke:none" />
         <path
   d="m 10665,14902 5,-5 v -5 l -3,-5 h -7 z"
   id="path116"
   inkscape:connector-curvature="0"
   style="fill:#000000;stroke:none" />
         <path
   d="m 10609,15136 v 0 l -15,-23 -11,-30 -7,-31 2,-33 8,-33 18,-30 25,-28 36,-26 -5,-15 -41,25 -30,33 -18,36 -8,38 -2,33 7,36 10,30 16,28 v 0 z"
   id="path118"
   inkscape:connector-curvature="0"
   style="fill:#000000;stroke:none" />
         <path
   d="m 10706,15118 v 0 l 2,16 -2,15 -8,7 -15,8 h -18 -18 l -20,-10 -18,-18 -15,10 23,23 25,10 23,5 23,-5 20,-7 13,-18 7,-20 -7,-21 v 0 z"
   id="path120"
   inkscape:connector-curvature="0"
   style="fill:#000000;stroke:none" />
         <path
   d="m 10746,15067 -7,-7 -28,5 -21,10 3,18 13,25 15,-5 -13,-25 -2,-8 h 5 l 28,-5 -8,-8 z"
   id="path122"
   inkscape:connector-curvature="0"
   style="fill:#000000;stroke:none" />
         <path
   d="m 10716,15431 5,8 25,-372 h -15 l -25,372 5,7 -5,-7 2,5 5,2 5,-2 3,-5 z"
   id="path124"
   inkscape:connector-curvature="0"
   style="fill:#000000;stroke:none" />
         <path
   d="m 11301,15452 2,-8 -17,13 -26,12 -30,10 -31,8 -35,8 -39,2 -40,5 -41,-2 -43,2 -44,-5 -43,-5 -43,-7 -43,-11 -38,-10 -39,-15 -35,-18 -5,15 35,18 38,15 44,11 43,10 43,7 43,6 44,5 43,2 41,-2 40,-5 39,-3 35,-8 36,-7 30,-10 26,-13 23,-13 2,-7 -2,7 5,-5 -3,-8 -5,-2 h -8 z"
   id="path126"
   inkscape:connector-curvature="0"
   style="fill:#000000;stroke:none" />
         <path
   d="m 10960,14294 71,54 66,84 61,109 54,135 43,160 31,183 15,206 v 227 h 15 v -227 l -15,-206 -31,-183 -43,-165 -53,-135 -61,-115 -72,-83 -76,-59 z"
   id="path128"
   inkscape:connector-curvature="0"
   style="fill:#000000;stroke:none" />
         <path
   d="m 10965,14279 h -8 l -2,5 v 5 l 5,5 z"
   id="path130"
   inkscape:connector-curvature="0"
   style="fill:#000000;stroke:none" />
         <path
   d="m 10769,14655 5,-5 -2,-7 -5,-3 h -8 z"
   id="path132"
   inkscape:connector-curvature="0"
   style="fill:#000000;stroke:none" />
         <path
   d="m 10594,14785 v 0 l 20,-13 20,-12 21,-16 23,-17 20,-18 23,-18 25,-18 23,-18 -10,-15 -23,18 -25,18 -23,18 -21,17 -22,18 -21,15 -20,13 -21,13 v 0 z"
   id="path134"
   inkscape:connector-curvature="0"
   style="fill:#000000;stroke:none" />
         <path
   d="m 10553,14795 -10,3 10,10 v 0 l 15,-5 26,-18 -11,-15 -25,18 -10,5 -5,5 10,10 -10,3 10,-3 2,-5 -2,-5 -5,-3 -5,3 z"
   id="path136"
   inkscape:connector-curvature="0"
   style="fill:#000000;stroke:none" />
         <path
   d="m 10619,14859 -8,-8 -15,-15 -23,-20 -20,-21 -10,16 20,15 23,20 15,15 8,8 z"
   id="path138"
   inkscape:connector-curvature="0"
   style="fill:#000000;stroke:none" />
         <path
   d="m 10609,14869 h 5 l 5,-2 3,-3 -3,-5 z"
   id="path140"
   inkscape:connector-curvature="0"
   style="fill:#000000;stroke:none" />
         <path
   d="m 10354,15037 3,5 5,3 5,-3 3,-5 z"
   id="path142"
   inkscape:connector-curvature="0"
   style="fill:#000000;stroke:none" />
         <path
   d="m 10220,14989 v 0 l 28,-31 25,-15 h 20 l 21,13 15,17 15,21 8,23 2,20 h 16 l -3,-20 -7,-28 -16,-26 -20,-23 -25,-12 h -31 l -31,15 -33,35 v 0 z"
   id="path144"
   inkscape:connector-curvature="0"
   style="fill:#000000;stroke:none" />
         <path
   d="m 10189,15014 v 0 l 3,-2 10,-6 7,-10 11,-7 -16,-11 -5,8 -7,5 -11,5 -2,3 v 0 0 l -5,5 2,5 5,5 z"
   id="path146"
   inkscape:connector-curvature="0"
   style="fill:#000000;stroke:none" />
         <path
   d="m 10176,15070 v 0 -18 -18 l 5,-12 8,-8 -10,-15 -13,18 -5,17 -5,18 5,23 v 0 z"
   id="path148"
   inkscape:connector-curvature="0"
   style="fill:#000000;stroke:none" />
         <path
   d="m 10283,15144 h -28 -20 l -15,-10 -16,-11 -10,-15 -7,-13 -6,-15 -5,-10 -15,5 5,10 5,16 8,17 15,16 15,15 21,10 25,5 28,-5 z"
   id="path150"
   inkscape:connector-curvature="0"
   style="fill:#000000;stroke:none" />
         <path
   d="m 10283,15159 5,-3 3,-5 -3,-5 -5,-2 z"
   id="path152"
   inkscape:connector-curvature="0"
   style="fill:#000000;stroke:none" />
         <path
   d="m 10288,14950 v 8 l 5,3 h 8 l 3,-5 z"
   id="path154"
   inkscape:connector-curvature="0"
   style="fill:#000000;stroke:none" />
         <path
   d="m 10278,14902 v 0 h 5 l 5,15 v 18 15 l 16,6 5,-21 -5,-23 -11,-20 -20,-5 v 0 z"
   id="path156"
   inkscape:connector-curvature="0"
   style="fill:#000000;stroke:none" />
         <path
   d="m 10273,14912 v 0 l -2,-2 v 0 l -3,-3 10,-5 -5,-15 -15,10 -8,13 5,10 8,8 v 0 z"
   id="path158"
   inkscape:connector-curvature="0"
   style="fill:#000000;stroke:none" />
         <path
   d="m 10273,14912 h 3 -3 v 0 0 l -10,16 10,5 10,-5 3,-6 h 2 z"
   id="path160"
   inkscape:connector-curvature="0"
   style="fill:#000000;stroke:none" />
         <path
   d="m 10288,14922 v -7 l -2,-5 -8,-3 -5,5 z"
   id="path162"
   inkscape:connector-curvature="0"
   style="fill:#000000;stroke:none" />
         <path
   d="m 10181,15136 6,-5 -3,-8 -5,-2 h -8 z"
   id="path164"
   inkscape:connector-curvature="0"
   style="fill:#000000;stroke:none" />
         <path
   d="m 10103,15200 v 0 l 2,-5 5,-5 10,-8 11,-8 12,-10 13,-10 13,-8 12,-10 -10,-15 -12,10 -13,8 -13,10 -13,10 -10,8 -10,7 -10,10 -3,11 v 0 z"
   id="path166"
   inkscape:connector-curvature="0"
   style="fill:#000000;stroke:none" />
         <path
   d="m 10031,15215 v 0 l 31,3 18,-3 15,-3 8,-12 -16,-5 -2,2 -5,3 -18,-3 -31,-2 v 0 z"
   id="path168"
   inkscape:connector-curvature="0"
   style="fill:#000000;stroke:none" />
         <path
   d="m 9912,15263 5,3 -10,-21 v -15 l 10,-7 15,-8 h 26 28 25 20 v -20 h -20 -25 -28 l -26,5 -25,7 -16,18 v 20 l 11,31 5,3 -5,-3 5,5 7,-2 3,-6 v -7 z"
   id="path170"
   inkscape:connector-curvature="0"
   style="fill:#000000;stroke:none" />
         <path
   d="m 9902,15317 v 0 l 17,-18 11,-13 -3,-15 -15,-8 -5,16 10,2 h -3 l -5,8 -18,12 v 0 z"
   id="path172"
   inkscape:connector-curvature="0"
   style="fill:#000000;stroke:none" />
         <path
   d="m 9820,15413 h 3 l 2,-2 5,-10 11,-13 12,-15 13,-16 13,-17 10,-13 13,-10 -11,-16 -12,16 -16,12 -12,18 -13,15 -13,16 -10,12 -5,11 -3,2 h 3 -3 v 8 l 6,5 5,2 5,-5 z"
   id="path174"
   inkscape:connector-curvature="0"
   style="fill:#000000;stroke:none" />
         <path
   d="m 9741,15441 v 0 l 38,-7 23,-8 16,-8 2,-5 -10,-10 h -3 l -10,8 -23,7 -33,8 v 0 z"
   id="path176"
   inkscape:connector-curvature="0"
   style="fill:#000000;stroke:none" />
         <path
   d="m 9680,15515 -18,-23 -5,-15 3,-13 8,-5 12,-7 18,-6 20,-2 23,-3 v -15 l -23,3 -20,2 -23,5 -18,8 -12,15 -3,18 5,20 18,28 z"
   id="path178"
   inkscape:connector-curvature="0"
   style="fill:#000000;stroke:none" />
         <path
   d="m 9665,15525 5,5 8,-2 2,-5 v -8 z"
   id="path180"
   inkscape:connector-curvature="0"
   style="fill:#000000;stroke:none" />
         <path
   d="m 10202,15271 v -8 l -3,-5 -7,-2 -5,5 z"
   id="path182"
   inkscape:connector-curvature="0"
   style="fill:#000000;stroke:none" />
         <path
   d="m 10095,15319 v 0 l 20,-2 16,-3 h 12 l 13,-5 13,-5 10,-8 10,-12 13,-13 -15,-10 -8,12 -10,8 -10,8 -8,5 -8,5 h -12 l -16,2 -20,-2 v 0 z"
   id="path184"
   inkscape:connector-curvature="0"
   style="fill:#000000;stroke:none" />
         <path
   d="m 9952,15368 v 0 l 8,-11 10,-10 16,-10 20,-8 20,-5 23,-5 h 23 23 v -20 h -23 l -23,5 -23,5 -25,5 -21,8 -20,10 -15,15 -8,15 v 0 z"
   id="path186"
   inkscape:connector-curvature="0"
   style="fill:#000000;stroke:none" />
         <path
   d="m 10029,15408 v 0 l -23,8 h -20 -13 l -10,-8 -8,-7 -5,-8 v -13 l 2,-12 -15,-6 -2,18 v 13 l 5,18 12,13 16,7 18,5 20,-5 28,-7 v 0 z"
   id="path188"
   inkscape:connector-curvature="0"
   style="fill:#000000;stroke:none" />
         <path
   d="m 10125,15411 v 0 l -10,2 -7,-2 -10,-5 -16,-3 -10,-2 h -13 l -17,2 -13,5 5,16 13,-6 12,-2 h 13 l 10,2 10,3 11,5 12,3 10,2 v 0 z"
   id="path190"
   inkscape:connector-curvature="0"
   style="fill:#000000;stroke:none" />
         <path
   d="m 10225,15355 v 0 l -13,15 -13,15 -15,8 -13,8 -12,5 -13,5 -10,2 -11,-2 v 20 l 11,-2 15,-3 13,-5 12,-5 18,-8 15,-12 13,-16 18,-15 v 0 z"
   id="path192"
   inkscape:connector-curvature="0"
   style="fill:#000000;stroke:none" />
         <path
   d="m 10332,15251 -3,2 -8,5 -12,10 -16,16 -17,17 -18,16 -18,20 -15,18 15,10 15,-18 13,-20 18,-15 18,-18 15,-10 13,-11 7,-5 3,-2 z"
   id="path194"
   inkscape:connector-curvature="0"
   style="fill:#000000;stroke:none" />
         <path
   d="m 10342,15266 5,-5 -3,-8 -5,-2 h -7 z"
   id="path196"
   inkscape:connector-curvature="0"
   style="fill:#000000;stroke:none" />
         <path
   d="m 9937,15413 3,-5 -3,-5 -5,-2 -5,2 z"
   id="path198"
   inkscape:connector-curvature="0"
   style="fill:#000000;stroke:none" />
         <path
   d="m 9884,15518 v 2 l 10,-23 10,-30 15,-28 18,-26 -10,-10 -23,26 -15,33 -10,30 -10,18 v 3 z"
   id="path200"
   inkscape:connector-curvature="0"
   style="fill:#000000;stroke:none" />
         <path
   d="m 9810,15558 v 0 l 31,-5 20,-7 13,-13 10,-15 -15,-5 -6,10 -12,7 -16,8 -25,5 v 0 z"
   id="path202"
   inkscape:connector-curvature="0"
   style="fill:#000000;stroke:none" />
         <path
   d="m 9785,15655 v 0 l -13,-5 -5,-8 v -15 -18 l 7,-18 11,-15 15,-10 10,-8 v -15 l -20,8 -16,15 -15,20 -8,18 -5,23 5,20 11,18 23,5 v 0 z"
   id="path204"
   inkscape:connector-curvature="0"
   style="fill:#000000;stroke:none" />
         <path
   d="m 9874,15642 h -3 l -5,3 -8,2 -10,5 -10,3 h -15 -18 -20 v 15 l 20,5 18,-5 h 15 l 15,-2 10,-5 8,-3 5,-2 h 3 z"
   id="path206"
   inkscape:connector-curvature="0"
   style="fill:#000000;stroke:none" />
         <path
   d="m 9879,15658 5,-6 v -5 l -3,-5 h -7 z"
   id="path208"
   inkscape:connector-curvature="0"
   style="fill:#000000;stroke:none" />
         <path
   d="m 10339,15291 -2,-5 -5,-2 -6,2 -2,5 z"
   id="path210"
   inkscape:connector-curvature="0"
   style="fill:#000000;stroke:none" />
         <path
   d="m 10057,15571 102,-5 73,-25 51,-39 33,-45 16,-51 5,-46 5,-41 -3,-28 h -15 l -3,28 v 41 l -5,46 -15,46 -28,40 -46,33 -68,26 -102,5 z"
   id="path212"
   inkscape:connector-curvature="0"
   style="fill:#000000;stroke:none" />
         <path
   d="m 10057,15556 -5,2 -3,5 3,6 5,2 z"
   id="path214"
   inkscape:connector-curvature="0"
   style="fill:#000000;stroke:none" />
         <path
   d="m 9970,15622 v 5 l 3,3 2,2 h 5 z"
   id="path216"
   inkscape:connector-curvature="0"
   style="fill:#000000;stroke:none" />
         <path
   d="m 10614,14940 -5,-5 -639,687 10,10 639,-687 z"
   id="path218"
   inkscape:connector-curvature="0"
   style="fill:#000000;stroke:none" />
         <path
   d="m 10619,14945 3,-5 -3,-5 -5,-2 -5,2 z"
   id="path220"
   inkscape:connector-curvature="0"
   style="fill:#000000;stroke:none" />
         <path
   d="m 10232,15436 -2,-5 h -8 l -5,3 v 7 z"
   id="path222"
   inkscape:connector-curvature="0"
   style="fill:#000000;stroke:none" />
         <path
   d="m 10311,15632 8,-2 -87,-194 -15,5 87,194 z"
   id="path224"
   inkscape:connector-curvature="0"
   style="fill:#000000;stroke:none" />
         <path
   d="m 10304,15635 5,5 h 5 l 5,-3 v -7 z"
   id="path226"
   inkscape:connector-curvature="0"
   style="fill:#000000;stroke:none" />
         <path
   d="m 10449,15754 v 0 21 l -5,15 -11,15 -7,13 -16,10 -15,10 -15,5 h -20 v 21 l 20,-6 20,-5 21,-10 15,-15 13,-13 10,-20 5,-20 5,-21 v 0 z"
   id="path228"
   inkscape:connector-curvature="0"
   style="fill:#000000;stroke:none" />
         <path
   d="m 10360,15663 v 0 h 20 l 15,5 15,10 16,10 7,15 11,13 5,18 v 20 h 20 l -5,-20 -5,-23 -10,-18 -13,-15 -15,-15 -21,-11 -20,-5 -20,-5 v 0 z"
   id="path230"
   inkscape:connector-curvature="0"
   style="fill:#000000;stroke:none" />
         <path
   d="m 10268,15754 v 0 -20 l 5,-18 10,-13 10,-15 16,-10 12,-10 18,-5 h 21 v -21 l -21,5 -23,5 -17,11 -16,15 -15,15 -10,18 -5,23 -5,20 v 0 z"
   id="path232"
   inkscape:connector-curvature="0"
   style="fill:#000000;stroke:none" />
         <path
   d="m 10360,15843 v 0 h -21 l -18,-5 -12,-10 -16,-10 -10,-13 -10,-15 -5,-15 v -21 h -20 l 5,21 5,20 10,20 15,13 16,15 17,10 23,5 21,6 v 0 z"
   id="path234"
   inkscape:connector-curvature="0"
   style="fill:#000000;stroke:none" />
         <path
   d="m 10039,15759 v 0 21 l -5,17 -10,13 -10,15 -16,11 -12,10 -18,5 h -21 v 20 l 21,-5 23,-5 17,-10 16,-15 15,-16 10,-17 5,-23 5,-21 v 0 z"
   id="path236"
   inkscape:connector-curvature="0"
   style="fill:#000000;stroke:none" />
         <path
   d="m 9947,15668 v 0 h 21 l 18,5 12,10 16,10 10,15 10,13 5,18 v 20 h 20 l -5,-20 -5,-23 -10,-18 -15,-15 -16,-15 -17,-10 -23,-6 -21,-5 v 0 z"
   id="path238"
   inkscape:connector-curvature="0"
   style="fill:#000000;stroke:none" />
         <path
   d="m 9858,15759 v 0 -20 l 5,-18 11,-13 10,-15 13,-10 15,-10 15,-5 h 20 v -21 l -20,5 -20,6 -21,10 -12,15 -16,15 -10,18 -5,23 -5,20 v 0 z"
   id="path240"
   inkscape:connector-curvature="0"
   style="fill:#000000;stroke:none" />
         <path
   d="m 9947,15851 v 0 h -20 l -15,-5 -15,-10 -13,-11 -10,-15 -11,-13 -5,-17 v -21 h -20 l 5,21 5,23 10,17 16,16 12,15 21,10 20,5 20,5 v 0 z"
   id="path242"
   inkscape:connector-curvature="0"
   style="fill:#000000;stroke:none" />
         <path
   d="m 10945,15515 -3,-5 -5,-3 -5,3 -3,5 z"
   id="path244"
   inkscape:connector-curvature="0"
   style="fill:#000000;stroke:none" />
         <path
   d="m 10950,15713 v 0 l -5,-38 -5,-51 v -53 l 5,-56 h -16 l -5,56 v 53 l 5,51 6,38 v 0 z"
   id="path246"
   inkscape:connector-curvature="0"
   style="fill:#000000;stroke:none" />
         <path
   d="m 10838,15825 v 0 h 25 l 23,-7 23,-10 18,-18 10,-21 10,-17 3,-21 v -18 h -15 v 18 l -3,16 -10,17 -10,16 -13,12 -18,11 -18,7 h -25 v 0 z"
   id="path248"
   inkscape:connector-curvature="0"
   style="fill:#000000;stroke:none" />
         <path
   d="m 10637,15739 v 0 l -10,33 5,25 28,16 33,7 38,3 41,5 h 35 l 31,-3 v -15 l -31,-2 h -35 -41 l -38,-3 -28,-8 -18,-10 -5,-15 10,-23 v 0 z"
   id="path250"
   inkscape:connector-curvature="0"
   style="fill:#000000;stroke:none" />
         <path
   d="m 10751,15693 v 0 l -12,3 h -16 l -15,2 -15,5 -15,5 -16,5 -12,13 -13,13 15,10 8,-13 13,-7 10,-5 15,-5 15,-6 10,-2 h 16 l 12,-3 v 0 z"
   id="path252"
   inkscape:connector-curvature="0"
   style="fill:#000000;stroke:none" />
         <path
   d="m 10779,15479 18,67 8,50 v 39 l -8,25 -10,15 -13,8 -12,8 -11,2 v 15 l 16,-2 17,-8 13,-12 15,-21 8,-30 v -39 l -8,-50 -17,-72 z"
   id="path254"
   inkscape:connector-curvature="0"
   style="fill:#000000;stroke:none" />
         <path
   d="m 10795,15474 -3,-5 h -8 l -5,3 v 7 z"
   id="path256"
   inkscape:connector-curvature="0"
   style="fill:#000000;stroke:none" />
         <path
   d="m 11250,15487 -2,-5 h -8 l -5,3 v 7 z"
   id="path258"
   inkscape:connector-curvature="0"
   style="fill:#000000;stroke:none" />
         <path
   d="m 11337,15569 v 0 l -11,-6 -10,-7 -10,-8 -13,-10 -12,-8 -11,-12 -10,-16 -10,-15 -15,5 10,21 10,15 15,13 13,12 13,10 10,8 15,8 10,5 v 0 z"
   id="path260"
   inkscape:connector-curvature="0"
   style="fill:#000000;stroke:none" />
         <path
   d="m 11337,15688 v 0 l 33,-28 2,-33 -13,-36 -22,-22 -6,15 13,18 13,25 -3,28 -23,18 v 0 z"
   id="path262"
   inkscape:connector-curvature="0"
   style="fill:#000000;stroke:none" />
         <path
   d="m 11209,15790 v 0 l 11,-13 12,-13 16,-12 15,-16 18,-12 17,-16 18,-10 21,-10 -6,-15 -20,10 -23,10 -18,15 -17,18 -16,15 -15,13 -13,13 -10,8 v 0 z"
   id="path264"
   inkscape:connector-curvature="0"
   style="fill:#000000;stroke:none" />
         <path
   d="m 11059,15719 h -2 l -21,25 8,23 20,13 31,10 33,5 33,5 25,-5 23,-5 -10,-15 -13,5 h -25 -33 l -33,-5 -26,-11 -15,-7 -2,-8 15,-15 h -3 3 l 5,-5 -3,-8 -5,-2 h -7 z"
   id="path266"
   inkscape:connector-curvature="0"
   style="fill:#000000;stroke:none" />
         <path
   d="m 11179,15660 v 0 l -5,8 -10,5 -16,10 -12,8 -18,10 -21,5 -20,7 -18,6 5,15 18,-5 20,-8 21,-5 18,-10 17,-8 16,-10 10,-10 10,-13 v 0 z"
   id="path268"
   inkscape:connector-curvature="0"
   style="fill:#000000;stroke:none" />
         <path
   d="m 11057,15528 30,20 28,21 23,17 15,21 13,17 10,16 3,12 v 8 l 15,5 v -13 l -2,-17 -11,-21 -12,-18 -21,-20 -23,-23 -28,-20 -30,-20 z"
   id="path270"
   inkscape:connector-curvature="0"
   style="fill:#000000;stroke:none" />
         <path
   d="m 11067,15513 h -8 l -5,2 -2,8 5,5 z"
   id="path272"
   inkscape:connector-curvature="0"
   style="fill:#000000;stroke:none" />
         <path
   d="m 10548,14811 5,-3 2,-5 -2,-5 -5,-3 z"
   id="path274"
   inkscape:connector-curvature="0"
   style="fill:#000000;stroke:none" />
         <path
   d="m 10479,14889 3,-7 -3,-15 v -16 l 5,-12 5,-11 13,-7 10,-8 15,-2 h 21 v -16 h -21 l -20,3 -15,7 -13,13 -10,15 -5,18 v 16 l 2,20 3,-8 -3,8 6,5 h 5 l 5,-3 v -7 z"
   id="path276"
   inkscape:connector-curvature="0"
   style="fill:#000000;stroke:none" />
         <path
   d="m 10375,14989 5,5 99,-105 -10,-10 -99,105 z"
   id="path278"
   inkscape:connector-curvature="0"
   style="fill:#000000;stroke:none" />
         <path
   d="m 10370,14984 v 5 l 2,2 3,3 h 5 z"
   id="path280"
   inkscape:connector-curvature="0"
   style="fill:#000000;stroke:none" />
        </g>
       </g>
      </g>
     </g>
    </g>
   </g>
  </g>
 </g>
</svg>