<?xml version="1.0" encoding="UTF-8" standalone="no"?>
<svg
   xmlns:ooo="http://xml.openoffice.org/svg/export"
   xmlns:dc="http://purl.org/dc/elements/1.1/"
   xmlns:cc="http://creativecommons.org/ns#"
   xmlns:rdf="http://www.w3.org/1999/02/22-rdf-syntax-ns#"
   xmlns:svg="http://www.w3.org/2000/svg"
   xmlns="http://www.w3.org/2000/svg"
   xmlns:sodipodi="http://sodipodi.sourceforge.net/DTD/sodipodi-0.dtd"
   xmlns:inkscape="http://www.inkscape.org/namespaces/inkscape"
   version="1.2"
   width="52.119999mm"
   height="53.799999mm"
   viewBox="0 0 5211.9999 5379.9999"
   preserveAspectRatio="xMidYMid"
   xml:space="preserve"
   id="svg213"
   sodipodi:docname="strwbry1.svg"
   style="fill-rule:evenodd;stroke-width:28.22200012;stroke-linejoin:round"
   inkscape:version="0.92.5 (2060ec1f9f, 2020-04-08)"><metadata
   id="metadata217"><rdf:RDF><cc:Work
       rdf:about=""><dc:format>image/svg+xml</dc:format><dc:type
         rdf:resource="http://purl.org/dc/dcmitype/StillImage" /></cc:Work></rdf:RDF></metadata><sodipodi:namedview
   pagecolor="#ffffff"
   bordercolor="#666666"
   borderopacity="1"
   objecttolerance="10"
   gridtolerance="10"
   guidetolerance="10"
   inkscape:pageopacity="0"
   inkscape:pageshadow="2"
   inkscape:window-width="664"
   inkscape:window-height="487"
   id="namedview215"
   showgrid="false"
   inkscape:zoom="0.2102413"
   inkscape:cx="98.494489"
   inkscape:cy="101.66929"
   inkscape:window-x="0"
   inkscape:window-y="0"
   inkscape:window-maximized="0"
   inkscape:current-layer="svg213" />
 <defs
   class="ClipPathGroup"
   id="defs8">
  <clipPath
   id="presentation_clip_path"
   clipPathUnits="userSpaceOnUse">
   <rect
   x="0"
   y="0"
   width="21000"
   height="29700"
   id="rect2" />
  </clipPath>
  <clipPath
   id="presentation_clip_path_shrink"
   clipPathUnits="userSpaceOnUse">
   <rect
   x="21"
   y="29"
   width="20958"
   height="29641"
   id="rect5" />
  </clipPath>
 </defs>
 <defs
   class="TextShapeIndex"
   id="defs12">
  <g
   ooo:slide="id1"
   ooo:id-list="id3"
   id="g10" />
 </defs>
 <defs
   class="EmbeddedBulletChars"
   id="defs44">
  <g
   id="bullet-char-template-57356"
   transform="matrix(4.8828125e-4,0,0,-4.8828125e-4,0,0)">
   <path
   d="M 580,1141 1163,571 580,0 -4,571 Z"
   id="path14"
   inkscape:connector-curvature="0" />
  </g>
  <g
   id="bullet-char-template-57354"
   transform="matrix(4.8828125e-4,0,0,-4.8828125e-4,0,0)">
   <path
   d="M 8,1128 H 1137 V 0 H 8 Z"
   id="path17"
   inkscape:connector-curvature="0" />
  </g>
  <g
   id="bullet-char-template-10146"
   transform="matrix(4.8828125e-4,0,0,-4.8828125e-4,0,0)">
   <path
   d="M 174,0 602,739 174,1481 1456,739 Z M 1358,739 309,1346 659,739 Z"
   id="path20"
   inkscape:connector-curvature="0" />
  </g>
  <g
   id="bullet-char-template-10132"
   transform="matrix(4.8828125e-4,0,0,-4.8828125e-4,0,0)">
   <path
   d="M 2015,739 1276,0 H 717 l 543,543 H 174 v 393 h 1086 l -543,545 h 557 z"
   id="path23"
   inkscape:connector-curvature="0" />
  </g>
  <g
   id="bullet-char-template-10007"
   transform="matrix(4.8828125e-4,0,0,-4.8828125e-4,0,0)">
   <path
   d="m 0,-2 c -7,16 -16,29 -25,39 l 381,530 c -94,256 -141,385 -141,387 0,25 13,38 40,38 9,0 21,-2 34,-5 21,4 42,12 65,25 l 27,-13 111,-251 280,301 64,-25 24,25 c 21,-10 41,-24 62,-43 C 886,937 835,863 770,784 769,783 710,716 594,584 L 774,223 c 0,-27 -21,-55 -63,-84 l 16,-20 C 717,90 699,76 672,76 641,76 570,178 457,381 L 164,-76 c -22,-34 -53,-51 -92,-51 -42,0 -63,17 -64,51 -7,9 -10,24 -10,44 0,9 1,19 2,30 z"
   id="path26"
   inkscape:connector-curvature="0" />
  </g>
  <g
   id="bullet-char-template-10004"
   transform="matrix(4.8828125e-4,0,0,-4.8828125e-4,0,0)">
   <path
   d="M 285,-33 C 182,-33 111,30 74,156 52,228 41,333 41,471 c 0,78 14,145 41,201 34,71 87,106 158,106 53,0 88,-31 106,-94 l 23,-176 c 8,-64 28,-97 59,-98 l 735,706 c 11,11 33,17 66,17 42,0 63,-15 63,-46 V 965 c 0,-36 -10,-64 -30,-84 L 442,47 C 390,-6 338,-33 285,-33 Z"
   id="path29"
   inkscape:connector-curvature="0" />
  </g>
  <g
   id="bullet-char-template-9679"
   transform="matrix(4.8828125e-4,0,0,-4.8828125e-4,0,0)">
   <path
   d="M 813,0 C 632,0 489,54 383,161 276,268 223,411 223,592 c 0,181 53,324 160,431 106,107 249,161 430,161 179,0 323,-54 432,-161 108,-107 162,-251 162,-431 0,-180 -54,-324 -162,-431 C 1136,54 992,0 813,0 Z"
   id="path32"
   inkscape:connector-curvature="0" />
  </g>
  <g
   id="bullet-char-template-8226"
   transform="matrix(4.8828125e-4,0,0,-4.8828125e-4,0,0)">
   <path
   d="m 346,457 c -73,0 -137,26 -191,78 -54,51 -81,114 -81,188 0,73 27,136 81,188 54,52 118,78 191,78 73,0 134,-26 185,-79 51,-51 77,-114 77,-187 0,-75 -25,-137 -76,-188 -50,-52 -112,-78 -186,-78 z"
   id="path35"
   inkscape:connector-curvature="0" />
  </g>
  <g
   id="bullet-char-template-8211"
   transform="matrix(4.8828125e-4,0,0,-4.8828125e-4,0,0)">
   <path
   d="M -4,459 H 1135 V 606 H -4 Z"
   id="path38"
   inkscape:connector-curvature="0" />
  </g>
  <g
   id="bullet-char-template-61548"
   transform="matrix(4.8828125e-4,0,0,-4.8828125e-4,0,0)">
   <path
   d="m 173,740 c 0,163 58,303 173,419 116,115 255,173 419,173 163,0 302,-58 418,-173 116,-116 174,-256 174,-419 0,-163 -58,-303 -174,-418 C 1067,206 928,148 765,148 601,148 462,206 346,322 231,437 173,577 173,740 Z"
   id="path41"
   inkscape:connector-curvature="0" />
  </g>
 </defs>
 <g
   id="g49"
   transform="translate(-7894,-12160)">
  <g
   id="id2"
   class="Master_Slide">
   <g
   id="bg-id2"
   class="Background" />
   <g
   id="bo-id2"
   class="BackgroundObjects" />
  </g>
 </g>
 <g
   class="SlideGroup"
   id="g211"
   transform="translate(-7894,-12160)">
  <g
   id="g209">
   <g
   id="container-id1">
    <g
   id="id1"
   class="Slide"
   clip-path="url(#presentation_clip_path)">
     <g
   class="Page"
   id="g205">
      <g
   class="Graphic"
   id="g203">
       <g
   id="id3">
        <rect
   class="BoundingBox"
   x="7894"
   y="12160"
   width="5212"
   height="5380"
   id="rect51"
   style="fill:none;stroke:none" />
        <defs
   id="defs56">
         <clipPath
   id="clip_path_1"
   clipPathUnits="userSpaceOnUse">
          <path
   d="m 7894,12160 h 5211 v 5379 H 7894 Z"
   id="path53"
   inkscape:connector-curvature="0" />
         </clipPath>
        </defs>
        <g
   clip-path="url(#clip_path_1)"
   id="g200">
         <path
   d="m 10550,14307 17,-20 23,-20 26,-18 30,-15 31,-16 33,-15 35,-12 36,-13 33,-10 35,-11 33,-7 31,-8 28,-7 25,-5 21,-6 17,-2 -12,-15 -16,-18 -20,-23 -23,-25 -25,-26 -26,-23 -22,-23 -21,-17 -58,-38 -51,-23 -46,-16 -40,-5 -41,3 -41,2 -40,5 h -44 l -22,-5 -28,-7 -28,-15 -31,-18 -30,-23 -33,-26 -33,-25 -33,-30 -34,-28 -35,-28 -33,-28 -36,-26 -33,-25 -30,-20 -31,-18 -30,-13 18,-5 17,-5 18,-3 18,-2 20,-3 h 21 l 22,3 23,2 28,8 38,10 44,13 50,15 54,18 53,15 54,13 50,13 92,15 61,7 33,-2 10,-10 -20,-13 -41,-18 -69,-20 -89,-18 -25,-5 -30,-8 -31,-7 -33,-10 -36,-13 -35,-13 -36,-13 -35,-12 -33,-16 -31,-15 -30,-12 -26,-16 -20,-12 -18,-16 -10,-10 -5,-13 -5,-68 -8,-97 -5,-101 v -77 l 15,26 26,23 33,20 35,20 44,21 43,17 48,16 46,12 48,13 43,8 41,7 38,5 31,3 h 22 l 16,-5 5,-5 -5,-21 -16,-17 -22,-16 -28,-15 -36,-10 -38,-10 -43,-10 -43,-10 -46,-11 -43,-10 -44,-12 -38,-16 -33,-15 -28,-20 -23,-23 -12,-28 -8,-28 -13,-36 -12,-40 -5,-38 12,-13 38,-8 54,-5 h 63 l 61,3 h 54 38 l 13,-5 -21,-23 -40,-13 -56,-3 -61,3 -64,5 h -53 l -38,-5 -16,-15 -7,-54 -16,-71 -12,-71 -5,-56 23,15 30,13 41,13 40,7 41,6 33,2 25,-2 11,-3 -3,-18 -15,-13 -28,-10 -33,-7 -36,-8 -33,-8 -28,-7 -17,-10 -18,-44 -8,-73 3,-94 7,-107 23,41 33,35 41,26 43,23 41,17 40,13 33,13 23,10 18,23 18,40 20,54 21,61 20,58 18,51 17,33 16,13 5,-18 -8,-43 -18,-59 -20,-68 -20,-66 -18,-59 -8,-40 5,-13 16,7 22,18 26,23 30,28 31,31 33,33 33,28 30,25 26,38 20,64 13,78 10,82 8,81 10,66 13,46 15,15 12,-25 v -61 l -7,-87 -10,-94 -10,-91 -8,-76 -3,-49 11,-7 20,17 25,26 31,25 30,28 31,31 25,30 20,28 13,26 3,35 -5,56 -11,69 -10,73 -7,69 -3,58 3,41 12,13 16,-15 15,-41 10,-56 13,-64 10,-66 8,-58 10,-46 10,-23 v 49 l 15,45 26,44 33,43 30,43 31,41 20,45 8,46 -8,36 -20,43 -28,48 -28,48 -28,46 -23,41 -10,30 7,18 h 21 l 23,-15 25,-31 25,-38 28,-40 23,-44 23,-35 18,-26 28,74 2,76 -12,77 -23,71 -28,63 -23,51 -15,38 v 18 l 30,15 28,3 28,-3 23,-10 20,-15 18,-20 10,-26 5,-28 v -20 -28 -38 l 3,-46 5,-48 8,-54 12,-56 18,-58 23,-56 28,-53 38,-49 43,-45 54,-38 63,-28 74,-21 86,-7 -10,15 -18,23 -20,30 -18,31 -18,30 -10,26 -2,20 10,10 20,-5 23,-20 28,-31 28,-38 25,-38 23,-36 20,-30 13,-18 13,-13 18,-10 20,-10 23,-10 28,-10 25,-10 31,-11 28,-12 17,-8 18,-7 21,-11 20,-7 20,-10 21,-8 17,-8 16,-5 -13,16 -20,22 -28,33 -31,39 -35,43 -36,45 -38,51 -36,51 -35,51 -31,48 -28,46 -23,41 -15,35 -7,31 2,20 13,10 h 18 l 20,-10 23,-20 20,-28 23,-36 25,-40 26,-44 25,-48 28,-48 28,-49 31,-48 33,-46 33,-40 35,-38 38,-33 38,-23 16,-5 18,-5 20,-3 20,-2 23,-3 h 25 26 25 23 l 23,3 h 20 21 l 17,2 h 18 l 18,-2 18,-3 -28,20 -33,26 -33,25 -33,31 -36,30 -33,33 -35,36 -31,35 -30,36 -28,38 -23,36 -18,35 -15,38 -8,33 v 33 l 5,33 21,33 27,-17 31,-54 36,-79 40,-91 46,-86 48,-72 54,-43 53,-20 53,-18 51,-10 51,-10 46,-8 45,-7 39,-8 35,-10 -30,35 -44,44 -55,45 -56,49 -51,45 -41,41 -20,28 7,15 28,-2 36,-21 46,-33 45,-38 49,-38 46,-36 38,-25 33,-13 h 28 l 28,5 30,8 28,10 31,10 30,8 31,5 30,-2 -41,53 -38,48 -33,41 -33,35 -30,28 -31,23 -28,21 -28,12 -30,10 -36,8 -35,5 -36,3 -33,5 -25,5 -18,10 -8,13 8,12 23,11 35,7 43,3 46,2 46,-5 38,-5 31,-10 -13,18 -15,20 -16,18 -15,20 -18,21 -17,17 -16,18 -15,15 -8,3 -17,2 h -23 -33 -36 -38 -43 -43 -46 l -41,3 h -40 l -36,3 -31,5 -25,5 -15,5 -8,7 3,8 10,8 20,5 26,7 30,5 36,3 38,5 40,3 44,2 h 40 l 41,3 h 38 33 l 31,-3 23,-2 15,-3 12,3 -10,17 -25,28 -33,36 -41,38 -38,33 -33,28 -20,15 -13,3 -20,-3 -31,-5 -35,-7 -44,-13 -45,-13 -49,-13 -50,-12 -51,-13 -49,-13 -45,-12 -41,-8 -36,-8 -30,-2 h -20 l -11,5 v 10 l 13,10 21,13 27,15 36,18 41,18 45,15 46,18 48,18 49,15 46,13 43,10 38,10 30,5 26,3 h 15 l -36,25 -38,28 -40,25 -41,26 -43,23 -38,20 -38,15 -34,13 -17,2 -26,-2 -30,-8 -33,-10 -38,-15 -38,-15 -44,-18 -40,-18 -41,-18 -41,-18 -38,-12 -35,-16 -31,-7 -28,-5 -20,-3 -13,5 -5,10 8,11 18,15 25,15 33,18 38,20 41,18 45,20 46,18 46,21 43,15 43,15 36,13 33,12 25,6 16,5 -18,7 -23,10 -28,13 -30,10 -34,13 -38,10 -40,8 -41,5 -48,5 -49,-3 -50,-5 -51,-10 -56,-15 -56,-20 -58,-31 -61,-36 -49,-27 -51,-16 -53,-5 -46,10 -43,31 -30,51 -18,73 -3,105 8,30 20,43 33,49 38,58 46,61 51,61 53,64 54,63 18,25 v 34 l -13,33 -23,33 -25,25 -26,13 -23,-3 -12,-20 -11,-31 -15,-23 -15,-20 -18,-15 -18,-13 -17,-7 -16,-6 -12,-2 -66,28 -64,38 -64,43 -63,51 -59,56 -55,63 -54,69 -48,74 -41,79 -35,83 -28,87 -21,91 -12,97 v 96 l 7,102 21,104 -3,18 -10,15 -13,18 -18,13 -17,10 -18,5 h -15 l -11,-8 -30,-147 -13,-137 3,-130 18,-119 30,-109 38,-102 48,-94 56,-84 61,-79 64,-68 66,-61 66,-54 64,-46 58,-38 53,-33 46,-25 -25,-64 -28,-53 -31,-43 -33,-36 -33,-28 -38,-23 -35,-12 -39,-8 h -40 l -41,5 -41,10 -38,16 -40,20 -41,25 -38,28 -38,31 -16,2 -15,-5 -18,-7 -17,-11 -16,-12 -12,-16 -8,-15 z"
   id="path58"
   inkscape:connector-curvature="0"
   style="fill:#003300;stroke:none" />
         <path
   d="m 9670,13947 -30,25 -38,33 -38,38 -36,41 -25,40 -11,39 13,30 41,20 48,8 38,-3 26,-17 15,-31 10,-38 v -53 l -5,-61 -8,-71 92,5 2,58 v 61 l -5,61 -12,59 -28,45 -41,36 -61,18 -81,-5 -49,-18 -33,-31 -20,-38 -5,-46 8,-50 22,-49 36,-45 51,-39 28,-28 15,-35 -5,-41 -23,-43 -41,-38 -66,-33 -86,-20 -112,-6 -58,8 -56,15 -49,26 -45,33 -43,35 -44,41 -40,43 -41,46 -43,43 -46,43 -48,38 -51,36 -59,28 -60,20 -72,13 -76,3 -76,-8 -69,-18 -61,-28 -51,-33 -40,-38 -31,-43 -20,-46 -10,-46 2,-48 13,-48 28,-43 38,-41 53,-36 67,-30 81,-23 96,-13 -83,31 -72,30 -55,38 -46,36 -31,41 -18,40 -10,38 3,39 10,38 20,35 28,31 36,28 41,23 48,15 53,13 56,2 87,-5 73,-15 64,-23 56,-28 48,-36 43,-38 41,-40 38,-44 38,-43 38,-41 41,-40 43,-36 51,-30 58,-23 66,-15 77,-8 h 33 l 30,3 31,2 28,8 25,5 25,10 26,10 25,13 23,13 23,17 23,16 23,20 23,20 25,23 23,23 25,25 51,-12 61,-8 71,-2 h 79 l 84,5 89,7 91,10 92,13 94,13 89,15 84,15 81,16 71,12 61,13 53,13 39,10 12,15 23,23 20,20 13,16 -25,-6 -41,-10 -58,-12 -69,-16 -79,-15 -89,-15 -94,-18 -96,-15 -99,-15 -97,-11 -97,-10 -88,-5 h -82 l -73,3 -61,10 -46,18 z"
   id="path60"
   inkscape:connector-curvature="0"
   style="fill:#003300;stroke:none" />
         <path
   d="m 10659,14480 15,-25 15,-48 16,-61 12,-72 5,-71 -5,-71 -18,-58 -30,-46 -13,46 -20,48 -23,51 -30,51 -31,48 -30,41 -28,35 -28,23 10,-58 -3,-67 -15,-73 -25,-74 -36,-69 -46,-58 -56,-46 -61,-28 21,51 15,59 13,66 7,68 5,64 -2,58 -3,46 -10,30 -28,-66 -40,-53 -54,-46 -58,-38 -56,-33 -51,-30 -41,-33 -25,-36 -5,46 2,58 8,66 20,69 31,66 43,56 61,46 76,22 26,8 28,10 33,13 35,15 36,18 41,20 38,26 40,25 38,28 36,33 36,33 33,36 30,38 25,41 23,43 16,46 20,20 28,20 33,21 36,20 38,18 40,12 38,8 h 39 l -41,-36 -31,-43 -23,-48 -20,-51 -18,-51 -20,-46 -25,-38 -36,-28 33,-17 33,-11 31,-5 30,3 33,2 33,8 33,5 38,8 -23,-28 -33,-31 -38,-30 -45,-31 -49,-23 -51,-15 -50,-7 z"
   id="path62"
   inkscape:connector-curvature="0"
   style="fill:#003300;stroke:none" />
         <path
   d="m 10870,15626 40,-2 h 41 43 l 38,-5 38,-10 28,-23 23,-38 13,-56 25,45 13,41 3,33 -5,26 -16,22 -20,18 -25,18 -28,13 -28,12 -28,13 -26,15 -23,16 -15,17 -7,21 v 28 l 10,30 20,-30 31,-16 35,-10 38,-5 38,-10 33,-15 26,-28 18,-46 7,84 -12,69 -28,58 -39,46 -45,35 -49,28 -45,21 -38,15 56,41 45,45 33,51 26,56 17,61 6,66 v 71 l -11,74 -25,-61 -33,-56 -41,-53 -45,-46 -49,-41 -48,-35 -43,-28 -38,-23 -28,46 -18,55 -5,64 5,66 10,69 18,71 23,68 25,64 -68,-25 -56,-44 -44,-61 -33,-73 -22,-84 -18,-89 -10,-89 -5,-89 -79,23 -56,25 -41,33 -28,38 -20,41 -18,46 -15,48 -23,54 -8,-61 3,-64 13,-61 20,-58 25,-54 26,-43 28,-36 23,-25 22,-15 21,-10 18,-6 17,-5 13,-2 10,-3 5,-7 3,-10 -3,-13 -7,-13 -10,-13 -16,-10 -20,-10 -23,-13 -28,-10 -28,-10 h -38 l -51,18 -61,28 -61,33 -61,38 -56,36 -40,27 -26,18 33,-89 49,-73 56,-59 58,-43 61,-33 53,-20 46,-13 33,-8 h 25 l 26,5 25,11 26,12 28,18 25,18 28,20 25,20 11,8 h 15 l 18,-5 17,-10 18,-13 13,-18 10,-15 3,-18 10,-25 7,-26 11,-22 15,-21 18,-18 25,-15 33,-12 z"
   id="path64"
   inkscape:connector-curvature="0"
   style="fill:#003300;stroke:none" />
         <path
   d="m 11414,14732 12,20 23,3 26,-13 25,-25 23,-33 13,-33 v -34 l -18,-25 12,-56 21,-61 33,-56 40,-56 51,-45 61,-36 71,-20 79,-3 -38,31 -38,35 -33,41 -25,43 -23,46 -13,46 -5,40 5,41 36,-5 h 33 33 l 33,2 30,5 31,8 28,10 28,13 25,15 23,21 23,20 20,25 18,31 18,33 15,35 13,41 -41,-20 -38,-16 -41,-15 -38,-15 -36,-10 -38,-8 -33,-7 -33,-6 h -33 -30 -28 l -26,6 -23,5 -22,10 -18,10 -18,13 15,71 31,68 38,61 48,56 56,46 59,33 61,23 60,8 -55,5 h -54 -51 l -45,-3 -44,-5 -38,-8 -35,-7 -33,-10 -28,-11 -28,-12 -23,-15 -20,-13 -18,-15 -15,-18 -16,-15 -10,-18 -40,51 -11,71 13,86 18,92 15,89 -2,78 -31,59 -71,33 28,-51 -8,-69 -33,-81 -40,-89 -39,-91 -22,-92 10,-81 51,-69 -39,-5 -43,5 -43,15 -38,26 -26,33 -10,41 10,53 36,58 -33,-15 -25,-23 -23,-25 -18,-33 -13,-33 -5,-38 v -38 l 8,-39 15,-35 23,-36 30,-33 39,-30 48,-23 58,-18 66,-13 z"
   id="path66"
   inkscape:connector-curvature="0"
   style="fill:#003300;stroke:none" />
         <path
   d="m 10677,14867 -16,-46 -23,-43 -25,-41 -30,-38 -33,-36 -36,-33 -36,-33 -38,-28 -40,-25 -38,-26 -41,-20 -36,-18 -35,-15 -33,-13 -28,-10 -26,-8 -45,3 -44,3 -45,7 -44,13 -40,18 -36,23 -30,28 -23,35 -23,74 -5,68 v 64 l -13,56 -13,35 -12,49 -10,58 -6,61 v 64 l 11,58 20,51 33,38 61,38 53,26 51,12 h 46 l 43,-7 43,-16 44,-22 43,-28 28,-16 30,-15 33,-13 36,-12 38,-13 38,-15 38,-15 36,-18 35,-18 33,-23 31,-25 25,-28 23,-33 15,-38 13,-44 z"
   id="path68"
   inkscape:connector-curvature="0"
   style="fill:#000000;stroke:none" />
         <path
   d="m 11126,16521 -25,-61 -33,-56 -41,-53 -45,-46 -49,-41 -48,-35 -43,-28 -38,-23 -28,46 -18,55 -5,64 5,66 10,69 18,71 23,68 25,64 -68,-25 -56,-44 -44,-61 -33,-73 -22,-84 -18,-89 -10,-89 -5,-89 -79,23 -56,25 -41,33 -28,38 -20,41 -18,46 -15,48 -23,54 -8,-61 3,-64 13,-61 20,-58 25,-54 26,-43 28,-36 23,-25 22,-15 21,-10 18,-6 17,-5 13,-2 10,-3 5,-7 3,-10 -3,-13 -7,-13 -10,-13 -16,-10 -20,-10 -23,-13 -28,-10 -28,-10 -30,-2 -44,12 -48,21 -51,25 -53,33 -51,30 -46,31 -38,25 -15,49 -13,45 -15,46 -15,43 -10,46 -10,46 -3,48 v 54 l 15,99 26,94 40,91 46,87 53,83 59,79 58,76 59,72 25,35 23,36 23,38 18,35 17,36 21,36 20,33 23,33 25,30 33,26 36,25 43,20 51,18 59,13 71,7 78,3 79,-3 69,-10 58,-15 49,-20 40,-23 36,-28 28,-33 23,-36 20,-35 18,-38 15,-41 15,-41 18,-38 18,-41 20,-38 26,-38 55,-71 54,-71 51,-74 48,-73 38,-77 28,-84 15,-91 v -99 l -7,-54 -11,-53 -15,-51 -20,-53 -23,-51 -25,-48 -31,-43 -33,-44 -35,-40 -39,-33 -38,-33 -43,-26 -46,-18 -45,-15 -46,-7 h -48 l -21,43 -25,38 -33,33 -33,25 -36,21 -35,17 -33,16 -28,10 56,41 45,45 33,51 26,56 17,61 6,66 v 71 z"
   id="path70"
   inkscape:connector-curvature="0"
   style="fill:#000000;stroke:none" />
         <path
   d="m 12427,14447 69,69 64,76 58,84 51,89 46,91 38,97 33,99 25,97 21,99 12,94 5,89 -2,86 -8,79 -15,71 -23,64 -30,50 -36,36 -53,30 -66,28 -79,23 -89,18 -99,13 -102,10 -107,3 h -109 l -109,-8 -107,-13 -104,-18 -97,-22 -86,-31 -79,-36 -66,-43 -102,-96 -73,-102 -41,-104 -15,-109 10,-110 30,-106 56,-105 72,-99 -51,69 -10,81 22,92 39,91 40,89 33,81 8,69 -28,51 71,-33 31,-59 2,-78 -15,-89 -18,-92 -13,-86 11,-71 40,-51 10,18 16,15 15,18 18,15 20,13 23,15 28,12 28,11 33,10 35,7 38,8 44,5 45,3 h 51 54 l 55,-5 -60,-8 -61,-23 -59,-33 -56,-46 -48,-56 -38,-61 -31,-68 -15,-71 18,-13 18,-10 22,-10 23,-5 26,-6 h 28 30 33 l 33,6 33,7 38,8 36,10 38,15 41,15 38,16 41,20 -13,-41 -15,-35 -18,-33 -18,-31 -20,-25 -23,-20 -23,-21 -25,-15 -28,-13 -28,-10 -31,-8 -30,-5 -33,-2 h -33 -33 l -36,5 -5,-48 10,-51 20,-54 31,-53 35,-15 36,-13 41,-13 40,-12 44,-8 45,-8 43,-2 h 46 l 46,2 43,6 46,10 41,15 40,20 41,23 35,31 z"
   id="path72"
   inkscape:connector-curvature="0"
   style="fill:#000000;stroke:none" />
         <path
   d="m 10659,14818 -18,-35 -20,-33 -26,-33 -25,-31 -28,-30 -28,-28 -31,-26 -33,-23 -30,-23 -33,-20 -33,-20 -31,-15 -30,-16 -31,-15 -28,-10 -25,-10 -41,7 -53,5 -64,11 -63,20 -58,36 -46,58 -28,84 v 114 l -3,33 -12,49 -16,61 -10,68 -5,71 13,69 28,58 56,49 48,23 43,7 h 43 l 41,-10 38,-18 38,-20 41,-23 41,-25 22,-13 28,-10 28,-13 33,-13 33,-12 33,-13 36,-15 36,-18 30,-21 33,-22 28,-26 25,-28 21,-33 18,-35 10,-41 z"
   id="path74"
   inkscape:connector-curvature="0"
   style="fill:#ed000a;stroke:none" />
         <path
   d="m 11126,16521 11,-74 v -71 l -6,-66 -17,-61 -26,-56 -33,-51 -45,-45 -56,-41 20,-8 20,-7 26,-11 25,-12 23,-16 25,-17 26,-18 23,-23 56,10 50,15 46,23 43,26 38,28 36,33 31,35 27,38 23,39 23,40 15,41 16,41 12,40 8,38 8,38 2,36 -5,69 -23,71 -33,71 -43,76 -48,76 -49,77 -45,78 -38,82 -16,40 -17,39 -16,40 -17,36 -21,35 -20,33 -20,31 -23,28 -26,28 -25,23 -31,20 -30,15 -33,16 -36,10 -40,5 -41,2 -71,-2 -64,-10 -53,-16 -48,-20 -41,-25 -36,-26 -28,-30 -25,-33 -20,-31 -18,-33 -18,-33 -13,-30 -12,-28 -13,-26 -13,-23 -15,-17 -64,-67 -58,-71 -53,-71 -49,-79 -40,-78 -33,-84 -26,-87 -15,-89 -5,-66 2,-63 8,-61 13,-59 18,-56 22,-58 28,-58 31,-61 33,-21 36,-18 33,-17 30,-16 31,-10 28,-7 22,-5 18,2 28,10 28,10 23,13 20,10 16,10 10,13 7,13 3,13 -3,10 -5,7 -10,3 -13,2 -17,5 -18,6 -21,10 -22,15 -23,25 -28,36 -26,43 -25,54 -20,58 -13,61 -3,64 8,61 23,-54 15,-48 18,-46 20,-41 28,-38 41,-33 56,-25 79,-23 5,89 10,89 18,89 22,84 33,73 44,61 56,44 68,25 -25,-64 -23,-68 -18,-71 -10,-69 -5,-66 5,-64 18,-55 28,-46 38,23 43,28 48,35 49,41 45,46 41,53 33,56 z"
   id="path76"
   inkscape:connector-curvature="0"
   style="fill:#ed000a;stroke:none" />
         <path
   d="m 11716,14582 36,-5 h 33 33 l 33,2 30,5 31,8 28,10 28,13 25,15 23,21 23,20 20,25 18,31 18,33 15,35 13,41 -41,-20 -38,-16 -41,-15 -38,-15 -36,-10 -38,-8 -33,-7 -33,-6 h -33 -30 -28 l -26,6 -23,5 -22,10 -18,10 -18,13 15,71 31,68 38,61 48,56 56,46 59,33 61,23 60,8 -55,5 h -54 -51 l -45,-3 -44,-5 -38,-8 -35,-7 -33,-10 -28,-11 -28,-12 -23,-15 -20,-13 -18,-15 -15,-18 -16,-15 -10,-18 -40,51 -11,71 13,86 18,92 15,89 -2,78 -31,59 -71,33 23,-31 7,-38 -7,-43 -18,-48 -23,-54 -28,-56 -25,-58 -23,-58 -15,38 -13,40 -8,44 -2,43 2,43 8,43 10,46 18,43 23,41 28,40 35,41 41,36 48,33 54,30 58,28 69,23 73,18 77,18 78,12 79,10 81,6 82,5 h 79 l 78,-3 74,-5 71,-10 66,-10 59,-18 56,-18 45,-23 38,-25 28,-28 36,-76 13,-105 -3,-122 -20,-129 -28,-130 -36,-119 -40,-102 -38,-74 -23,-33 -28,-40 -33,-46 -41,-51 -46,-51 -51,-50 -53,-49 -56,-43 -61,-36 -63,-25 -66,-18 -69,-2 -69,12 -68,31 -71,51 z"
   id="path78"
   inkscape:connector-curvature="0"
   style="fill:#ed000a;stroke:none" />
         <path
   d="m 10212,14521 7,2 10,3 11,5 10,3 10,5 10,2 10,5 8,5 -21,8 -17,8 -16,7 -10,8 -10,10 -8,8 -5,7 -2,8 -3,-25 v -23 l 5,-23 z"
   id="path80"
   inkscape:connector-curvature="0"
   style="fill:#000000;stroke:none" />
         <path
   d="m 10054,14516 8,2 10,3 10,5 10,3 10,5 10,2 11,5 7,5 -20,8 -18,8 -15,7 -10,8 -10,10 -8,8 -5,7 -3,8 -2,-23 v -25 l 5,-23 z"
   id="path82"
   inkscape:connector-curvature="0"
   style="fill:#000000;stroke:none" />
         <path
   d="m 9924,14623 8,2 10,5 10,3 11,5 10,2 10,5 10,6 8,5 -21,7 -17,8 -16,7 -12,8 -11,10 -7,8 -5,7 -3,8 v -25 -23 l 5,-23 z"
   id="path84"
   inkscape:connector-curvature="0"
   style="fill:#000000;stroke:none" />
         <path
   d="m 10379,14569 8,5 10,5 10,8 10,5 11,8 10,7 10,8 8,5 -8,5 -8,8 -12,5 -11,2 -12,5 -13,6 -15,5 -15,5 5,-31 5,-20 2,-18 z"
   id="path86"
   inkscape:connector-curvature="0"
   style="fill:#000000;stroke:none" />
         <path
   d="m 10379,14762 16,13 17,18 18,18 15,15 -10,5 -13,8 -15,5 -18,7 -17,5 -21,8 -20,5 -18,8 21,-36 17,-28 18,-25 z"
   id="path88"
   inkscape:connector-curvature="0"
   style="fill:#000000;stroke:none" />
         <path
   d="m 10234,14673 8,3 10,8 10,5 11,7 10,8 10,5 10,8 8,5 -8,7 -8,5 -12,5 -10,6 -13,5 -13,5 -15,2 -15,5 5,-30 5,-18 2,-18 z"
   id="path90"
   inkscape:connector-curvature="0"
   style="fill:#000000;stroke:none" />
         <path
   d="m 10489,14663 7,5 10,5 11,8 10,8 10,7 10,5 10,8 8,5 -8,5 -10,8 -10,5 -13,5 -13,5 -12,3 -16,5 -15,5 5,-31 5,-20 5,-18 z"
   id="path92"
   inkscape:connector-curvature="0"
   style="fill:#000000;stroke:none" />
         <path
   d="m 9947,15080 8,5 10,5 10,8 10,7 11,8 10,5 10,8 8,5 -8,7 -13,8 -13,8 -15,7 -18,8 -15,8 -18,7 -15,5 8,-33 13,-25 10,-26 z"
   id="path94"
   inkscape:connector-curvature="0"
   style="fill:#000000;stroke:none" />
         <path
   d="m 10514,14963 -10,-15 -13,-18 -13,-18 -12,-12 -8,38 -8,30 -12,18 -13,13 h 10 l 13,-3 10,-2 13,-5 10,-3 13,-8 10,-7 z"
   id="path96"
   inkscape:connector-curvature="0"
   style="fill:#000000;stroke:none" />
         <path
   d="m 10171,15171 -10,-15 -13,-20 -13,-18 -12,-15 -8,41 -8,30 -12,20 -13,13 10,-2 13,-3 10,-3 13,-2 10,-5 13,-5 10,-8 z"
   id="path98"
   inkscape:connector-curvature="0"
   style="fill:#000000;stroke:none" />
         <path
   d="m 9866,14973 8,3 10,2 10,5 10,3 10,5 10,3 11,5 7,5 -20,7 -18,8 -15,8 -13,7 -10,10 -8,8 -5,8 -2,7 v -23 -25 l 5,-23 z"
   id="path100"
   inkscape:connector-curvature="0"
   style="fill:#000000;stroke:none" />
         <path
   d="m 9932,14790 8,5 10,5 10,8 10,5 10,8 10,7 11,8 7,5 -7,5 -8,8 -13,5 -10,2 -13,6 -12,5 -15,5 -16,5 5,-31 5,-20 3,-18 z"
   id="path102"
   inkscape:connector-curvature="0"
   style="fill:#000000;stroke:none" />
         <path
   d="m 10082,14686 8,5 10,5 10,8 10,5 10,8 10,7 11,8 7,5 -7,8 -13,7 -13,8 -15,7 -15,8 -16,8 -17,7 -16,5 5,-33 13,-28 10,-23 z"
   id="path104"
   inkscape:connector-curvature="0"
   style="fill:#000000;stroke:none" />
         <path
   d="m 10036,14933 8,2 10,8 10,5 10,7 11,8 10,5 10,8 7,5 -7,5 -8,8 -10,5 -10,5 -13,5 -13,2 -12,5 -15,6 2,-31 5,-18 3,-18 z"
   id="path106"
   inkscape:connector-curvature="0"
   style="fill:#000000;stroke:none" />
         <path
   d="m 10181,14821 8,5 10,2 10,5 10,3 10,5 11,3 10,5 7,5 -20,7 -18,8 -15,8 -13,7 -10,8 -5,8 -5,7 -3,8 -2,-23 v -23 l 5,-23 z"
   id="path108"
   inkscape:connector-curvature="0"
   style="fill:#000000;stroke:none" />
         <path
   d="m 10209,14950 8,3 10,8 10,5 10,7 10,8 10,5 11,8 7,5 -7,7 -11,5 -10,5 -12,6 -13,5 -13,5 -15,2 -15,5 5,-30 5,-18 5,-18 z"
   id="path110"
   inkscape:connector-curvature="0"
   style="fill:#000000;stroke:none" />
         <path
   d="m 10382,15044 -10,-15 -13,-18 -13,-20 -12,-13 -8,41 -8,28 -12,20 -13,13 h 13 l 12,-3 10,-2 13,-5 10,-3 11,-7 10,-8 z"
   id="path112"
   inkscape:connector-curvature="0"
   style="fill:#000000;stroke:none" />
         <path
   d="m 10547,14900 -10,-13 -15,-18 -16,-18 -10,-15 23,3 h 18 l 18,2 15,-2 10,-3 10,-3 8,-5 7,-5 -7,23 -13,21 -15,17 z"
   id="path114"
   inkscape:connector-curvature="0"
   style="fill:#000000;stroke:none" />
         <path
   d="m 10303,15952 3,2 5,10 10,11 13,15 12,18 13,15 13,15 12,13 -33,12 -33,18 -35,18 -33,20 -28,23 -26,21 -15,17 -5,16 8,-36 10,-36 12,-38 16,-33 18,-33 20,-28 20,-23 z"
   id="path116"
   inkscape:connector-curvature="0"
   style="fill:#000000;stroke:none" />
         <path
   d="m 10123,16277 h 12 16 l 12,2 h 13 l 13,3 15,3 h 13 12 l -23,48 -22,51 -18,48 -8,43 -25,-63 -10,-54 v -45 z"
   id="path118"
   inkscape:connector-curvature="0"
   style="fill:#000000;stroke:none" />
         <path
   d="m 10257,16483 h 13 15 16 17 16 17 16 17 l -12,53 -5,61 v 56 l 7,38 -28,-33 -25,-30 -23,-31 -15,-30 -16,-26 -7,-23 -3,-20 z"
   id="path120"
   inkscape:connector-curvature="0"
   style="fill:#000000;stroke:none" />
         <path
   d="m 10410,16285 h 12 l 13,2 h 13 l 13,3 10,2 h 12 l 13,3 h 13 l -13,71 -13,76 -7,61 -3,26 -33,-69 -20,-71 -10,-64 z"
   id="path122"
   inkscape:connector-curvature="0"
   style="fill:#000000;stroke:none" />
         <path
   d="m 10456,16610 17,-3 18,-2 18,-5 18,-3 17,-5 16,-2 15,-6 15,-2 -12,69 -13,76 -5,66 5,43 -21,-36 -17,-30 -16,-28 -15,-25 -13,-26 -10,-25 -10,-28 z"
   id="path124"
   inkscape:connector-curvature="0"
   style="fill:#000000;stroke:none" />
         <path
   d="m 10804,16417 10,-13 10,-15 13,-15 12,-18 13,-18 13,-18 10,-15 10,-10 -5,76 3,84 7,76 13,51 -18,-18 -18,-23 -15,-25 -13,-26 -12,-25 -13,-20 -10,-18 z"
   id="path126"
   inkscape:connector-curvature="0"
   style="fill:#000000;stroke:none" />
         <path
   d="m 10966,16546 -5,-5 h 8 15 l 23,3 h 25 l 23,2 23,-2 15,-5 -2,53 -5,66 -8,61 -2,43 -11,-25 -12,-31 -13,-35 -15,-33 -15,-31 -13,-28 -15,-20 z"
   id="path128"
   inkscape:connector-curvature="0"
   style="fill:#000000;stroke:none" />
         <path
   d="m 11093,16061 -10,-3 v -5 l 10,-5 18,-10 18,-10 20,-10 16,-10 10,-11 20,18 18,15 15,18 15,15 16,16 12,12 10,8 11,5 -31,-5 -30,-5 -31,-8 -28,-7 -25,-5 -23,-8 -18,-3 z"
   id="path130"
   inkscape:connector-curvature="0"
   style="fill:#000000;stroke:none" />
         <path
   d="m 11147,16203 12,-7 13,-5 15,-6 16,-2 h 12 l 16,-3 h 12 l 13,-2 8,56 5,73 v 72 l -3,50 -13,-33 -15,-33 -12,-35 -13,-36 -13,-30 -15,-28 -18,-18 z"
   id="path132"
   inkscape:connector-curvature="0"
   style="fill:#000000;stroke:none" />
         <path
   d="m 11365,16259 18,-25 20,-31 16,-25 7,-10 13,20 13,28 17,30 16,33 15,34 15,27 13,26 8,18 -28,-21 -28,-20 -26,-18 -20,-18 -20,-15 -18,-13 -15,-12 z"
   id="path134"
   inkscape:connector-curvature="0"
   style="fill:#000000;stroke:none" />
         <path
   d="m 11355,16429 h 15 23 23 26 22 18 13 5 l -13,28 -12,31 -13,35 -15,36 -13,33 -10,33 -10,28 -6,20 -20,-61 -18,-73 -12,-69 z"
   id="path136"
   inkscape:connector-curvature="0"
   style="fill:#000000;stroke:none" />
         <path
   d="m 11167,16564 13,-5 15,-8 15,-2 13,-5 15,-3 h 13 l 13,-2 h 10 l -8,48 -15,58 -15,61 -8,49 -15,-54 -10,-53 -13,-46 z"
   id="path138"
   inkscape:connector-curvature="0"
   style="fill:#000000;stroke:none" />
         <path
   d="m 11309,16737 h 13 13 18 15 18 15 15 10 l -12,18 -16,23 -17,25 -18,28 -16,25 -15,23 -10,16 -2,5 -3,-54 -3,-51 -2,-43 z"
   id="path140"
   inkscape:connector-curvature="0"
   style="fill:#000000;stroke:none" />
         <path
   d="m 10771,16783 12,-10 16,-13 17,-13 18,-15 20,-10 18,-13 18,-10 15,-8 10,43 8,56 8,59 10,51 -26,-18 -25,-21 -25,-17 -21,-21 -23,-15 -17,-13 -18,-10 z"
   id="path142"
   inkscape:connector-curvature="0"
   style="fill:#000000;stroke:none" />
         <path
   d="m 10572,16900 16,-11 15,-10 15,-10 18,-10 18,-10 15,-8 15,-7 15,-8 -5,43 3,56 v 56 l 2,43 -20,-20 -18,-21 -17,-17 -18,-18 -15,-15 -13,-13 -15,-13 z"
   id="path144"
   inkscape:connector-curvature="0"
   style="fill:#000000;stroke:none" />
         <path
   d="m 10194,16755 15,-13 20,-18 21,-18 17,-15 28,46 21,46 12,40 11,38 -26,-10 -23,-12 -20,-16 -18,-15 -15,-15 -15,-13 -16,-13 z"
   id="path146"
   inkscape:connector-curvature="0"
   style="fill:#000000;stroke:none" />
         <path
   d="m 10387,17006 10,-5 13,-10 18,-13 20,-15 20,-15 18,-13 13,-10 7,-8 8,23 10,69 10,79 3,53 -20,-13 -21,-15 -20,-18 -20,-18 -21,-20 -18,-20 -17,-15 z"
   id="path148"
   inkscape:connector-curvature="0"
   style="fill:#000000;stroke:none" />
         <path
   d="m 10588,17202 5,-10 10,-13 15,-13 15,-15 18,-15 18,-15 13,-13 12,-10 11,18 15,25 18,31 20,35 18,36 18,33 12,25 10,20 -38,-17 -35,-18 -38,-20 -33,-18 -28,-16 -26,-15 -18,-10 z"
   id="path150"
   inkscape:connector-curvature="0"
   style="fill:#000000;stroke:none" />
         <path
   d="m 10776,17011 10,-7 15,-10 20,-13 23,-13 23,-13 21,-10 17,-7 13,-8 v 66 l -3,89 -2,87 v 48 l -18,-23 -20,-31 -21,-30 -20,-31 -18,-30 -17,-28 -13,-20 z"
   id="path152"
   inkscape:connector-curvature="0"
   style="fill:#000000;stroke:none" />
         <path
   d="m 11004,16917 h 13 20 l 26,3 h 28 25 l 23,2 h 20 11 l -8,13 -10,18 -13,25 -13,31 -15,30 -13,31 -15,25 -13,21 -17,-41 -18,-59 -18,-58 z"
   id="path154"
   inkscape:connector-curvature="0"
   style="fill:#000000;stroke:none" />
         <path
   d="m 11157,17052 h 10 13 l 12,-2 h 16 12 l 13,-3 h 10 8 l -10,23 -13,25 -15,28 -13,31 -15,30 -13,26 -7,22 -8,18 -5,-48 v -61 l 2,-56 z"
   id="path156"
   inkscape:connector-curvature="0"
   style="fill:#000000;stroke:none" />
         <path
   d="m 10867,17260 h 10 16 20 23 23 20 18 10 l -8,21 -12,23 -13,23 -13,25 -15,23 -10,20 -10,18 -8,13 -15,-41 -13,-46 -15,-46 z"
   id="path158"
   inkscape:connector-curvature="0"
   style="fill:#000000;stroke:none" />
         <path
   d="m 11896,14480 16,23 20,31 18,33 15,20 18,-13 18,-15 22,-18 21,-18 20,-17 18,-16 13,-12 10,-8 -28,3 -31,2 h -33 l -30,3 h -31 -25 -20 z"
   id="path160"
   inkscape:connector-curvature="0"
   style="fill:#000000;stroke:none" />
         <path
   d="m 12077,14615 7,-10 13,-13 18,-15 20,-18 18,-18 18,-15 15,-13 8,-7 15,43 18,56 15,51 10,35 -28,-13 -28,-10 -25,-12 -26,-13 -20,-10 -20,-8 -15,-8 z"
   id="path162"
   inkscape:connector-curvature="0"
   style="fill:#000000;stroke:none" />
         <path
   d="m 12252,14760 10,-8 16,-10 20,-15 20,-16 23,-17 18,-13 18,-13 10,-7 13,61 12,63 10,56 5,36 -27,-18 -28,-18 -28,-18 -23,-15 -23,-15 -20,-13 -16,-13 z"
   id="path164"
   inkscape:connector-curvature="0"
   style="fill:#000000;stroke:none" />
         <path
   d="m 12397,14902 -8,31 -10,48 -10,46 -8,33 h 21 30 l 33,-3 h 38 l 36,-2 30,-3 h 26 l 15,-3 -25,-20 -28,-23 -31,-23 -28,-22 -25,-23 -23,-16 -20,-12 z"
   id="path166"
   inkscape:connector-curvature="0"
   style="fill:#000000;stroke:none" />
         <path
   d="m 12194,14790 -13,26 -15,40 -15,41 -11,25 21,6 20,7 25,5 26,3 23,5 23,5 17,2 16,3 -16,-23 -15,-23 -18,-28 -15,-25 -15,-23 -13,-23 -15,-15 z"
   id="path168"
   inkscape:connector-curvature="0"
   style="fill:#000000;stroke:none" />
         <path
   d="m 11919,14844 -12,10 -18,13 -18,15 -20,18 -18,20 -18,15 -15,13 -8,10 18,10 28,13 33,15 36,15 35,16 33,12 23,13 15,8 -12,-26 -13,-30 -13,-31 -13,-30 -12,-31 -13,-28 -10,-23 z"
   id="path170"
   inkscape:connector-curvature="0"
   style="fill:#000000;stroke:none" />
         <path
   d="m 12135,14973 -10,10 -10,16 -13,20 -12,23 -16,20 -12,23 -11,15 -10,13 23,8 28,12 36,13 35,15 36,13 30,13 26,10 15,5 -10,-25 -18,-31 -18,-36 -20,-35 -20,-33 -18,-31 -18,-22 z"
   id="path172"
   inkscape:connector-curvature="0"
   style="fill:#000000;stroke:none" />
         <path
   d="m 12397,15100 -13,18 -12,20 -13,21 -13,20 -10,20 -10,21 -8,18 -7,15 28,10 35,10 36,10 35,10 33,8 26,8 18,5 7,2 -20,-28 -21,-30 -20,-33 -20,-33 -15,-33 -16,-26 -12,-20 z"
   id="path174"
   inkscape:connector-curvature="0"
   style="fill:#000000;stroke:none" />
         <path
   d="m 12549,15240 11,-2 12,-3 18,-5 18,-3 18,-5 18,-2 15,-5 10,-3 5,66 10,79 13,74 13,48 -21,-18 -25,-25 -26,-31 -28,-33 -22,-33 -21,-35 -12,-33 z"
   id="path176"
   inkscape:connector-curvature="0"
   style="fill:#000000;stroke:none" />
         <path
   d="m 12669,15520 -10,10 -15,13 -16,17 -15,18 -18,18 -15,15 -15,13 -10,7 17,8 18,10 20,8 18,7 21,8 15,8 13,5 10,5 -5,-48 -3,-49 -5,-43 z"
   id="path178"
   inkscape:connector-curvature="0"
   style="fill:#000000;stroke:none" />
         <path
   d="m 12420,15334 -18,26 -20,43 -21,51 -12,45 23,10 30,8 36,8 40,5 h 41 38 l 36,-5 30,-10 -25,-11 -31,-17 -30,-26 -33,-25 -28,-28 -26,-28 -20,-26 z"
   id="path180"
   inkscape:connector-curvature="0"
   style="fill:#000000;stroke:none" />
         <path
   d="m 12171,15225 -10,10 -10,15 -16,18 -18,20 -15,18 -12,18 -11,13 -7,10 18,20 25,18 30,20 36,18 33,18 33,13 25,12 21,8 -23,-31 -20,-35 -18,-36 -18,-35 -15,-36 -13,-30 -10,-26 z"
   id="path182"
   inkscape:connector-curvature="0"
   style="fill:#000000;stroke:none" />
         <path
   d="m 11868,15189 -7,8 -13,13 -13,17 -12,21 -13,23 -10,20 -8,18 -5,15 18,13 28,12 33,8 38,5 36,5 33,3 25,2 15,3 -25,-26 -23,-30 -25,-31 -23,-30 -21,-26 -15,-22 -10,-16 z"
   id="path184"
   inkscape:connector-curvature="0"
   style="fill:#000000;stroke:none" />
         <path
   d="m 11495,15235 15,-20 23,-28 20,-31 13,-18 15,18 18,26 25,28 26,30 23,31 23,25 15,20 10,13 -23,-5 -30,-10 -36,-15 -35,-16 -34,-17 -30,-13 -23,-13 z"
   id="path186"
   inkscape:connector-curvature="0"
   style="fill:#000000;stroke:none" />
         <path
   d="m 11513,15509 10,-10 15,-12 15,-18 18,-21 15,-20 16,-18 15,-12 10,-11 10,13 13,18 18,25 20,31 18,28 18,25 12,21 10,12 -27,-5 -34,-7 -35,-11 -36,-7 -35,-10 -31,-5 -23,-6 z"
   id="path188"
   inkscape:connector-curvature="0"
   style="fill:#000000;stroke:none" />
         <path
   d="m 11607,15568 -5,30 -11,56 -10,54 -5,35 26,-2 33,-5 35,-8 41,-8 41,-5 33,-7 28,-5 15,-3 -23,-10 -28,-15 -36,-21 -33,-23 -35,-20 -28,-20 -23,-15 z"
   id="path190"
   inkscape:connector-curvature="0"
   style="fill:#000000;stroke:none" />
         <path
   d="m 11896,15438 -7,8 -13,13 -15,15 -13,15 -15,18 -15,18 -13,15 -8,10 23,10 31,13 38,18 43,18 41,20 33,15 28,13 12,5 -17,-23 -21,-30 -23,-36 -25,-36 -23,-33 -18,-30 -15,-23 z"
   id="path192"
   inkscape:connector-curvature="0"
   style="fill:#000000;stroke:none" />
         <path
   d="m 12156,15499 -11,31 -20,46 -20,48 -15,38 h 25 33 l 41,-3 40,-2 h 41 l 36,-3 h 25 13 l -26,-17 -28,-21 -28,-23 -25,-23 -26,-22 -22,-21 -18,-15 z"
   id="path194"
   inkscape:connector-curvature="0"
   style="fill:#000000;stroke:none" />
         <path
   d="m 12384,15659 -17,11 -6,40 -5,51 -5,38 31,-5 35,-5 36,-5 38,-5 36,-8 33,-7 28,-8 17,-8 -22,-5 -31,-10 -33,-13 -33,-12 -33,-16 -31,-15 -22,-10 z"
   id="path196"
   inkscape:connector-curvature="0"
   style="fill:#000000;stroke:none" />
         <path
   d="m 12006,15685 -8,23 -10,35 -8,41 -2,33 25,3 h 33 38 l 41,-3 41,-3 35,-5 33,-7 23,-8 -30,-8 -36,-7 -36,-13 -35,-15 -33,-15 -31,-16 -23,-17 z"
   id="path198"
   inkscape:connector-curvature="0"
   style="fill:#000000;stroke:none" />
        </g>
       </g>
      </g>
     </g>
    </g>
   </g>
  </g>
 </g>
</svg>