<?xml version="1.0" encoding="UTF-8" standalone="no"?>
<svg
   xmlns:ooo="http://xml.openoffice.org/svg/export"
   xmlns:dc="http://purl.org/dc/elements/1.1/"
   xmlns:cc="http://creativecommons.org/ns#"
   xmlns:rdf="http://www.w3.org/1999/02/22-rdf-syntax-ns#"
   xmlns:svg="http://www.w3.org/2000/svg"
   xmlns="http://www.w3.org/2000/svg"
   xmlns:sodipodi="http://sodipodi.sourceforge.net/DTD/sodipodi-0.dtd"
   xmlns:inkscape="http://www.inkscape.org/namespaces/inkscape"
   version="1.2"
   width="21.16mm"
   height="29.309999mm"
   viewBox="0 0 2116 2930.9999"
   preserveAspectRatio="xMidYMid"
   xml:space="preserve"
   id="svg225"
   sodipodi:docname="sundae1.svg"
   style="fill-rule:evenodd;stroke-width:28.22200012;stroke-linejoin:round"
   inkscape:version="0.92.5 (2060ec1f9f, 2020-04-08)"><metadata
   id="metadata229"><rdf:RDF><cc:Work
       rdf:about=""><dc:format>image/svg+xml</dc:format><dc:type
         rdf:resource="http://purl.org/dc/dcmitype/StillImage" /></cc:Work></rdf:RDF></metadata><sodipodi:namedview
   pagecolor="#ffffff"
   bordercolor="#666666"
   borderopacity="1"
   objecttolerance="10"
   gridtolerance="10"
   guidetolerance="10"
   inkscape:pageopacity="0"
   inkscape:pageshadow="2"
   inkscape:window-width="664"
   inkscape:window-height="487"
   id="namedview227"
   showgrid="false"
   inkscape:zoom="0.2102413"
   inkscape:cx="39.987403"
   inkscape:cy="55.370077"
   inkscape:window-x="0"
   inkscape:window-y="0"
   inkscape:window-maximized="0"
   inkscape:current-layer="svg225" />
 <defs
   class="ClipPathGroup"
   id="defs8">
  <clipPath
   id="presentation_clip_path"
   clipPathUnits="userSpaceOnUse">
   <rect
   x="0"
   y="0"
   width="21000"
   height="29700"
   id="rect2" />
  </clipPath>
  <clipPath
   id="presentation_clip_path_shrink"
   clipPathUnits="userSpaceOnUse">
   <rect
   x="21"
   y="29"
   width="20958"
   height="29641"
   id="rect5" />
  </clipPath>
 </defs>
 <defs
   class="TextShapeIndex"
   id="defs12">
  <g
   ooo:slide="id1"
   ooo:id-list="id3"
   id="g10" />
 </defs>
 <defs
   class="EmbeddedBulletChars"
   id="defs44">
  <g
   id="bullet-char-template-57356"
   transform="matrix(4.8828125e-4,0,0,-4.8828125e-4,0,0)">
   <path
   d="M 580,1141 1163,571 580,0 -4,571 Z"
   id="path14"
   inkscape:connector-curvature="0" />
  </g>
  <g
   id="bullet-char-template-57354"
   transform="matrix(4.8828125e-4,0,0,-4.8828125e-4,0,0)">
   <path
   d="M 8,1128 H 1137 V 0 H 8 Z"
   id="path17"
   inkscape:connector-curvature="0" />
  </g>
  <g
   id="bullet-char-template-10146"
   transform="matrix(4.8828125e-4,0,0,-4.8828125e-4,0,0)">
   <path
   d="M 174,0 602,739 174,1481 1456,739 Z M 1358,739 309,1346 659,739 Z"
   id="path20"
   inkscape:connector-curvature="0" />
  </g>
  <g
   id="bullet-char-template-10132"
   transform="matrix(4.8828125e-4,0,0,-4.8828125e-4,0,0)">
   <path
   d="M 2015,739 1276,0 H 717 l 543,543 H 174 v 393 h 1086 l -543,545 h 557 z"
   id="path23"
   inkscape:connector-curvature="0" />
  </g>
  <g
   id="bullet-char-template-10007"
   transform="matrix(4.8828125e-4,0,0,-4.8828125e-4,0,0)">
   <path
   d="m 0,-2 c -7,16 -16,29 -25,39 l 381,530 c -94,256 -141,385 -141,387 0,25 13,38 40,38 9,0 21,-2 34,-5 21,4 42,12 65,25 l 27,-13 111,-251 280,301 64,-25 24,25 c 21,-10 41,-24 62,-43 C 886,937 835,863 770,784 769,783 710,716 594,584 L 774,223 c 0,-27 -21,-55 -63,-84 l 16,-20 C 717,90 699,76 672,76 641,76 570,178 457,381 L 164,-76 c -22,-34 -53,-51 -92,-51 -42,0 -63,17 -64,51 -7,9 -10,24 -10,44 0,9 1,19 2,30 z"
   id="path26"
   inkscape:connector-curvature="0" />
  </g>
  <g
   id="bullet-char-template-10004"
   transform="matrix(4.8828125e-4,0,0,-4.8828125e-4,0,0)">
   <path
   d="M 285,-33 C 182,-33 111,30 74,156 52,228 41,333 41,471 c 0,78 14,145 41,201 34,71 87,106 158,106 53,0 88,-31 106,-94 l 23,-176 c 8,-64 28,-97 59,-98 l 735,706 c 11,11 33,17 66,17 42,0 63,-15 63,-46 V 965 c 0,-36 -10,-64 -30,-84 L 442,47 C 390,-6 338,-33 285,-33 Z"
   id="path29"
   inkscape:connector-curvature="0" />
  </g>
  <g
   id="bullet-char-template-9679"
   transform="matrix(4.8828125e-4,0,0,-4.8828125e-4,0,0)">
   <path
   d="M 813,0 C 632,0 489,54 383,161 276,268 223,411 223,592 c 0,181 53,324 160,431 106,107 249,161 430,161 179,0 323,-54 432,-161 108,-107 162,-251 162,-431 0,-180 -54,-324 -162,-431 C 1136,54 992,0 813,0 Z"
   id="path32"
   inkscape:connector-curvature="0" />
  </g>
  <g
   id="bullet-char-template-8226"
   transform="matrix(4.8828125e-4,0,0,-4.8828125e-4,0,0)">
   <path
   d="m 346,457 c -73,0 -137,26 -191,78 -54,51 -81,114 -81,188 0,73 27,136 81,188 54,52 118,78 191,78 73,0 134,-26 185,-79 51,-51 77,-114 77,-187 0,-75 -25,-137 -76,-188 -50,-52 -112,-78 -186,-78 z"
   id="path35"
   inkscape:connector-curvature="0" />
  </g>
  <g
   id="bullet-char-template-8211"
   transform="matrix(4.8828125e-4,0,0,-4.8828125e-4,0,0)">
   <path
   d="M -4,459 H 1135 V 606 H -4 Z"
   id="path38"
   inkscape:connector-curvature="0" />
  </g>
  <g
   id="bullet-char-template-61548"
   transform="matrix(4.8828125e-4,0,0,-4.8828125e-4,0,0)">
   <path
   d="m 173,740 c 0,163 58,303 173,419 116,115 255,173 419,173 163,0 302,-58 418,-173 116,-116 174,-256 174,-419 0,-163 -58,-303 -174,-418 C 1067,206 928,148 765,148 601,148 462,206 346,322 231,437 173,577 173,740 Z"
   id="path41"
   inkscape:connector-curvature="0" />
  </g>
 </defs>
 <g
   id="g49"
   transform="translate(-9442,-13384)">
  <g
   id="id2"
   class="Master_Slide">
   <g
   id="bg-id2"
   class="Background" />
   <g
   id="bo-id2"
   class="BackgroundObjects" />
  </g>
 </g>
 <g
   class="SlideGroup"
   id="g223"
   transform="translate(-9442,-13384)">
  <g
   id="g221">
   <g
   id="container-id1">
    <g
   id="id1"
   class="Slide"
   clip-path="url(#presentation_clip_path)">
     <g
   class="Page"
   id="g217">
      <g
   class="Graphic"
   id="g215">
       <g
   id="id3">
        <rect
   class="BoundingBox"
   x="9442"
   y="13384"
   width="2116"
   height="2931"
   id="rect51"
   style="fill:none;stroke:none" />
        <defs
   id="defs56">
         <clipPath
   id="clip_path_1"
   clipPathUnits="userSpaceOnUse">
          <path
   d="m 9442,13384 h 2115 v 2930 H 9442 Z"
   id="path53"
   inkscape:connector-curvature="0" />
         </clipPath>
        </defs>
        <g
   clip-path="url(#clip_path_1)"
   id="g212">
         <path
   d="m 11283,15087 -28,26 -30,25 -36,23 -38,20 -41,21 -43,20 -41,18 -43,18 -43,15 -41,15 -38,13 -33,12 -33,13 -25,13 -23,10 -16,10 -5,59 -5,76 -2,76 v 59 l 12,2 16,3 h 18 l 20,2 h 20 21 l 20,3 h 18 l 10,2 18,5 23,11 28,12 33,16 33,15 35,18 38,17 36,21 36,18 33,17 30,16 26,12 20,13 15,8 8,5 10,20 3,33 -3,33 -8,20 -7,8 -13,13 -20,18 -26,22 -30,26 -33,28 -33,28 -36,30 -38,31 -33,30 -36,26 -30,25 -26,23 -23,18 -17,10 -11,8 -12,2 -28,5 h -38 l -49,3 -56,2 h -61 -66 -66 -66 -66 -59 l -56,-2 -45,-3 h -39 l -25,-2 -13,-3 -23,-15 -40,-36 -56,-50 -61,-56 -64,-59 -58,-53 -44,-46 -25,-25 -10,-21 -5,-30 v -26 l 5,-15 25,-18 46,-30 58,-38 67,-41 66,-38 61,-36 46,-25 25,-10 h 15 l 18,-3 23,3 h 23 23 l 23,2 20,-2 h 15 l 3,-51 2,-76 -5,-79 -7,-64 -16,-10 -20,-13 -28,-10 -31,-13 -33,-12 -38,-13 -40,-15 -44,-15 -43,-18 -43,-18 -43,-20 -44,-23 -38,-23 -38,-26 -36,-25 -30,-31 -36,-53 -40,-86 -44,-112 -45,-122 -44,-122 -35,-110 -28,-86 -18,-48 3,-3 v 0 0 0 l 7,-7 13,-11 15,-10 18,-12 30,-21 36,-23 41,-23 40,-25 46,-25 46,-28 46,-26 48,-28 46,-23 43,-25 41,-20 35,-21 33,-18 28,-12 23,-10 16,-5 12,-3 h 26 l 38,-3 h 46 56 58 66 l 66,3 h 67 66 l 61,3 56,2 h 51 l 40,3 31,2 18,3 17,5 28,12 38,16 46,20 51,23 56,25 61,28 59,28 58,28 56,28 53,26 46,23 41,17 30,16 18,10 8,2 38,28 -8,28 -7,28 -18,71 -28,107 -36,125 -40,129 -46,122 -46,105 z"
   id="path58"
   inkscape:connector-curvature="0"
   style="fill:#000000;stroke:none" />
         <path
   d="m 10088,14025 15,-3 h 28 l 41,-2 h 46 56 61 l 66,-3 h 66 l 66,3 h 64 61 l 56,2 h 48 l 38,3 h 31 l 15,2 13,5 25,8 33,15 38,18 46,20 51,23 53,26 54,25 53,25 51,26 48,23 44,23 35,17 31,16 20,12 8,5 20,59 -5,30 -13,64 -20,81 -28,97 -33,102 -41,99 -46,91 -53,71 -38,36 -38,33 -44,33 -45,28 -46,28 -46,23 -46,25 -46,21 -43,20 -40,18 -36,15 -36,15 -28,13 -25,13 -18,12 -10,11 -13,124 -2,130 5,112 18,78 -23,18 -18,18 -18,20 -20,18 -31,15 -38,8 -53,3 -72,-6 v 3 5 l 3,10 8,10 15,11 23,10 38,7 51,5 h 30 l 36,-2 33,-3 36,-7 35,-8 36,-10 33,-13 30,-12 28,-13 23,-15 21,-16 15,-15 10,-15 3,-15 -3,-16 -13,-12 -23,-18 -20,-13 -18,-8 -18,-7 -17,-3 -18,-2 -15,-3 -18,-5 v -7 -11 l -3,-12 v -11 h 13 18 l 18,3 17,3 h 16 l 17,2 13,3 h 8 l 28,10 48,23 64,30 68,36 66,38 59,33 41,25 12,13 -15,18 -41,35 -58,49 -66,51 -69,50 -61,46 -48,33 -26,16 -12,2 -23,3 h -36 l -41,2 h -50 l -54,3 h -58 -61 -59 -58 -54 l -51,-3 h -43 l -33,-2 h -25 l -13,-3 -26,-15 -48,-33 -58,-46 -66,-51 -64,-51 -53,-45 -39,-36 -12,-20 12,-18 39,-28 53,-33 58,-36 64,-35 53,-31 41,-23 20,-10 h 13 15 21 23 20 l 18,3 h 15 l 10,2 13,8 v 13 l -10,12 -13,15 -15,16 -15,15 -13,13 -5,10 13,2 15,-2 18,-13 20,-15 18,-20 18,-21 12,-23 10,-17 16,-77 7,-119 v -117 l -15,-64 -10,-5 -15,-7 -23,-8 -26,-10 -30,-10 -36,-13 -38,-15 -38,-18 -43,-15 -44,-21 -43,-20 -41,-25 -43,-23 -40,-28 -36,-28 -36,-31 -61,-71 -56,-91 -48,-102 -41,-104 -33,-99 -28,-87 -18,-63 -10,-39 31,-50 10,-6 18,-12 28,-15 33,-21 38,-23 46,-25 46,-26 48,-28 48,-25 46,-28 46,-23 38,-23 35,-17 28,-16 21,-7 z"
   id="path60"
   inkscape:connector-curvature="0"
   style="fill:#ffffff;stroke:none" />
         <path
   d="m 9615,14459 5,8 8,23 12,35 16,44 20,53 25,58 33,64 41,66 51,64 59,66 71,58 81,56 94,46 107,38 122,25 137,13 138,-5 124,-18 107,-35 97,-44 84,-53 71,-61 61,-63 51,-69 43,-66 36,-66 28,-61 20,-56 18,-46 13,-36 10,-20 7,-8 3,11 v 25 l -8,38 -15,51 -20,58 -31,67 -38,68 -46,71 -56,72 -66,68 -76,64 -89,56 -99,45 -112,36 -125,20 -140,5 -145,-12 -129,-28 -115,-41 -96,-51 -87,-58 -71,-64 -61,-68 -51,-72 -38,-68 -31,-69 -23,-61 -15,-58 -10,-46 -5,-38 v -23 z"
   id="path62"
   inkscape:connector-curvature="0"
   style="fill:#000000;stroke:none" />
         <path
   d="m 10525,15319 h 36 l 28,-8 25,-8 21,-12 15,-11 10,-12 5,-10 3,-8 -8,2 -12,3 -16,5 -18,5 -20,8 -20,5 -23,2 h -20 -23 l -23,-5 -23,-2 -23,-5 -20,-5 -18,-5 -13,-3 h -10 l 2,5 6,8 10,10 15,13 20,10 28,7 31,8 z"
   id="path64"
   inkscape:connector-curvature="0"
   style="fill:#000000;stroke:none" />
         <path
   d="m 10561,15354 -10,3 -15,5 -16,5 -17,2 v 74 l 2,140 13,137 28,66 5,-107 7,-139 3,-127 z"
   id="path66"
   inkscape:connector-curvature="0"
   style="fill:#000000;stroke:none" />
         <path
   d="m 10325,14866 38,10 35,5 36,3 h 35 l 36,-3 33,-5 31,-7 30,-11 28,-10 28,-12 26,-16 22,-12 21,-16 18,-12 15,-16 13,-12 15,-8 23,-10 28,-10 30,-11 28,-7 28,-5 h 21 l 10,2 5,26 -5,48 -16,69 -28,78 -43,79 -61,74 -79,58 -101,36 -56,8 h -54 l -51,-8 -48,-10 -46,-15 -43,-21 -41,-20 -35,-25 -33,-26 -28,-25 -26,-26 -20,-25 -15,-23 -10,-20 -8,-18 v -13 l 8,-5 22,-5 31,-8 36,-7 38,-5 33,-5 28,-3 z"
   id="path68"
   inkscape:connector-curvature="0"
   style="fill:#000000;stroke:none" />
         <path
   d="m 10314,14894 13,5 18,8 23,10 28,10 33,10 40,5 46,-2 51,-8 51,-15 43,-20 38,-21 31,-23 25,-23 18,-20 15,-18 8,-15 8,-8 15,-5 18,-7 23,-5 22,-5 21,-6 h 15 10 v 16 l -7,35 -18,54 -31,63 -45,66 -61,59 -84,51 -105,30 -40,5 -41,-2 -38,-5 -41,-11 -36,-12 -38,-16 -33,-15 -33,-20 -30,-18 -26,-20 -23,-18 -20,-18 -15,-15 -10,-10 -8,-10 v -6 l 10,-5 18,-7 28,-5 28,-5 30,-3 26,-2 20,-3 z"
   id="path70"
   inkscape:connector-curvature="0"
   style="fill:#ffd14c;stroke:none" />
         <path
   d="m 9879,14340 8,2 13,11 13,17 17,18 13,20 13,18 7,15 3,11 -10,78 12,69 34,61 48,48 56,39 61,25 56,13 51,-3 h 12 l 21,5 23,5 22,10 23,11 18,7 15,10 6,6 -3,15 -18,28 -25,38 -38,38 -46,38 -54,33 -58,23 -64,8 -38,-3 -38,-7 -38,-13 -41,-18 -38,-20 -38,-23 -36,-28 -33,-31 -30,-33 -28,-35 -23,-38 -20,-41 -16,-41 -7,-40 -5,-44 2,-43 15,-69 23,-55 31,-44 30,-35 33,-23 28,-18 23,-10 z"
   id="path72"
   inkscape:connector-curvature="0"
   style="fill:#000000;stroke:none" />
         <path
   d="m 9933,14462 -15,23 -18,33 -18,46 -10,50 v 56 l 13,59 30,56 51,51 58,38 56,17 49,6 43,-6 38,-12 33,-18 26,-20 17,-16 11,-5 12,-2 16,2 15,5 12,5 13,8 8,5 2,5 -5,10 -18,23 -27,28 -36,31 -43,30 -49,26 -56,12 h -61 l -58,-15 -64,-28 -61,-41 -58,-50 -51,-61 -41,-66 -25,-74 -5,-79 10,-56 18,-48 23,-38 25,-31 28,-23 23,-15 18,-10 10,-3 15,13 23,28 20,30 z"
   id="path74"
   inkscape:connector-curvature="0"
   style="fill:#ffd14c;stroke:none" />
         <path
   d="m 10238,14828 -41,-3 -45,-10 -46,-18 -46,-25 -43,-38 -38,-48 -33,-61 -23,-74 -16,79 16,71 35,61 54,48 58,36 64,15 58,-5 z"
   id="path76"
   inkscape:connector-curvature="0"
   style="fill:#ff9933;stroke:none" />
         <path
   d="m 10492,14584 21,20 20,15 20,11 18,10 18,12 20,21 18,28 18,43 5,41 -13,45 -25,44 -36,43 -45,41 -51,33 -56,28 -54,20 -53,15 -54,10 -53,10 -48,3 -41,3 -36,-3 -22,-8 -13,-12 -5,-18 -3,-10 -7,-5 -16,-5 -10,-13 -2,-18 -3,-20 -15,-13 -21,-13 -12,-25 2,-46 23,-79 10,-20 16,-28 15,-31 13,-38 15,-45 23,-49 28,-40 33,-41 38,-31 41,-22 43,-16 h 43 l 61,10 43,16 31,18 18,20 10,20 10,23 8,23 z"
   id="path78"
   inkscape:connector-curvature="0"
   style="fill:#000000;stroke:none" />
         <path
   d="m 10467,14632 15,13 15,10 18,5 21,8 17,7 16,16 12,22 11,31 2,33 -8,31 -15,30 -23,28 -28,28 -35,25 -36,23 -41,21 -43,17 -43,16 -46,12 -40,11 -41,7 -36,3 h -33 l -25,-3 -16,-7 -7,-11 -8,-7 -23,-8 -12,-10 2,-15 v -16 l -15,-10 -8,-5 -2,-7 -3,-11 -13,-10 -7,-28 10,-48 23,-48 23,-33 10,-18 13,-33 17,-43 21,-49 28,-45 33,-41 43,-31 51,-12 h 61 l 46,12 30,18 21,23 15,25 10,28 10,26 z"
   id="path80"
   inkscape:connector-curvature="0"
   style="fill:#f20c59;stroke:none" />
         <path
   d="m 10454,14836 -15,-8 -5,-10 2,-13 8,-15 18,-21 20,-15 15,-7 11,2 -5,13 -16,18 -18,17 -7,13 10,-2 13,-6 10,-2 h 8 l -3,15 -13,13 -18,8 z"
   id="path82"
   inkscape:connector-curvature="0"
   style="fill:#000000;stroke:none" />
         <path
   d="m 10360,14795 -13,-5 -5,-13 5,-13 8,-17 18,-21 20,-15 18,-5 10,2 -5,13 -15,18 -18,18 -5,10 h 8 l 10,-3 h 10 l 5,3 -3,13 -15,7 -18,5 z"
   id="path84"
   inkscape:connector-curvature="0"
   style="fill:#000000;stroke:none" />
         <path
   d="m 10370,14652 -15,-5 -5,-10 5,-12 10,-16 8,-10 15,-13 18,-10 h 15 l -2,10 -16,18 -15,18 -8,13 11,-3 10,-2 7,-3 6,3 v 12 l -11,5 -17,5 z"
   id="path86"
   inkscape:connector-curvature="0"
   style="fill:#000000;stroke:none" />
         <path
   d="m 10332,14947 -10,-10 -3,-10 6,-13 10,-15 17,-20 21,-16 15,-7 15,2 v 13 l -20,20 -23,21 -8,15 h 8 l 10,-5 h 10 l 8,2 -5,8 -13,10 -20,8 z"
   id="path88"
   inkscape:connector-curvature="0"
   style="fill:#000000;stroke:none" />
         <path
   d="m 10182,14586 -10,-5 -5,-7 2,-13 11,-15 7,-8 10,-10 13,-8 13,-2 v 7 l -10,16 -13,15 -5,13 10,-3 5,-2 h 5 l 3,2 v 10 l -10,8 -13,2 z"
   id="path90"
   inkscape:connector-curvature="0"
   style="fill:#000000;stroke:none" />
         <path
   d="m 10261,14754 -15,-7 -5,-13 5,-15 10,-18 7,-10 16,-13 18,-13 h 15 l -3,13 -15,20 -15,21 -8,12 10,-2 13,-5 10,-5 3,5 -5,10 -13,10 -15,8 z"
   id="path92"
   inkscape:connector-curvature="0"
   style="fill:#000000;stroke:none" />
         <path
   d="m 10131,14726 -12,-7 -8,-13 2,-15 8,-16 15,-20 16,-15 12,-10 h 10 l 3,12 -13,21 -18,23 -7,15 10,-3 10,-5 10,-2 h 8 v 12 l -15,13 -18,8 z"
   id="path94"
   inkscape:connector-curvature="0"
   style="fill:#000000;stroke:none" />
         <path
   d="m 10230,14924 -12,-2 -5,-10 v -15 l 7,-18 16,-26 20,-20 18,-13 h 12 v 13 l -17,23 -18,25 -8,13 10,-3 10,-2 8,-3 5,3 v 13 l -13,10 -17,7 z"
   id="path96"
   inkscape:connector-curvature="0"
   style="fill:#000000;stroke:none" />
         <path
   d="m 10106,14991 -15,-5 -6,-11 3,-12 10,-16 8,-10 13,-18 15,-10 h 12 v 13 l -10,18 -15,20 -5,10 h 10 l 10,-2 h 10 l 6,2 -3,13 -13,5 -15,3 z"
   id="path98"
   inkscape:connector-curvature="0"
   style="fill:#000000;stroke:none" />
         <path
   d="m 10116,14874 -15,-8 -5,-13 2,-17 10,-18 8,-13 18,-20 18,-16 h 15 v 18 l -15,23 -18,23 -8,18 10,-3 13,-5 h 8 l 5,5 -5,10 -13,8 -15,5 z"
   id="path100"
   inkscape:connector-curvature="0"
   style="fill:#000000;stroke:none" />
         <path
   d="m 10022,14891 -10,-2 -5,-8 2,-12 8,-16 5,-7 10,-13 13,-10 12,-3 v 10 l -7,16 -13,15 -2,13 7,-3 8,-2 5,-3 2,3 v 10 l -7,7 -13,5 z"
   id="path102"
   inkscape:connector-curvature="0"
   style="fill:#000000;stroke:none" />
         <path
   d="m 10266,14614 -10,-7 -3,-13 3,-13 10,-17 15,-23 16,-18 17,-13 13,3 3,15 -18,23 -18,20 -8,18 h 11 l 10,-3 10,-2 5,5 -5,10 -13,10 -20,8 z"
   id="path104"
   inkscape:connector-curvature="0"
   style="fill:#000000;stroke:none" />
         <path
   d="m 10464,14632 -2,8 -3,18 3,22 5,28 10,33 13,36 15,38 20,38 23,38 28,39 33,35 39,33 40,28 49,23 50,18 59,7 69,-2 61,-13 56,-23 48,-30 43,-38 38,-44 31,-48 25,-48 21,-48 17,-49 11,-43 7,-41 3,-33 v -25 l -5,-18 -8,-5 -20,5 -28,10 -31,16 -33,17 -33,21 -31,17 -22,16 -13,10 -26,15 -25,10 -28,10 -30,6 -28,2 -31,3 h -30 l -31,-5 -28,-3 -28,-8 -25,-5 -26,-10 -23,-7 -18,-11 -17,-10 -13,-10 -20,-5 -26,-5 -28,-5 -28,-5 -28,-5 h -23 -17 z"
   id="path106"
   inkscape:connector-curvature="0"
   style="fill:#000000;stroke:none" />
         <path
   d="m 10828,15026 46,5 43,-5 41,-10 40,-18 39,-23 35,-25 33,-31 31,-35 28,-36 23,-35 20,-38 18,-39 10,-35 8,-36 5,-33 -3,-28 -13,5 -17,10 -21,11 -23,12 -22,16 -21,12 -18,13 -10,13 -25,58 -31,46 -35,33 -36,25 -38,13 -38,5 h -41 l -38,-10 -36,-13 -35,-17 -31,-23 -28,-26 -23,-25 -17,-26 -11,-25 -5,-25 -10,-6 -18,-5 -20,-5 -23,-5 -23,-5 -20,-2 -15,-3 -11,3 v 15 l 11,40 22,54 36,61 46,63 61,61 74,46 z"
   id="path108"
   inkscape:connector-curvature="0"
   style="fill:#ffd14c;stroke:none" />
         <path
   d="m 10848,14825 41,3 38,-8 36,-12 30,-16 26,-17 18,-18 10,-16 2,-10 -43,18 -46,13 -48,5 h -48 l -51,-5 -48,-13 -46,-15 -44,-21 v 8 l 8,10 15,18 21,18 25,20 31,15 35,16 z"
   id="path110"
   inkscape:connector-curvature="0"
   style="fill:#ff9933;stroke:none" />
         <path
   d="m 10653,14228 5,-5 15,-8 20,-7 23,-5 26,-6 20,-2 h 18 l 10,2 33,26 33,18 36,10 35,5 h 33 l 36,-5 33,-10 31,-13 30,-18 28,-18 25,-23 23,-22 21,-23 15,-26 10,-23 8,-22 5,-11 13,-15 15,-18 18,-17 17,-16 18,-15 13,-10 8,-3 12,11 21,27 20,41 23,48 15,59 8,63 -3,61 -20,61 -18,34 -25,33 -28,30 -31,28 -35,25 -39,23 -40,23 -41,15 -43,16 -46,10 -43,5 -46,3 -43,-6 -41,-7 -41,-15 -38,-21 -56,-43 -40,-43 -28,-46 -16,-43 -10,-38 -2,-33 v -26 z"
   id="path112"
   inkscape:connector-curvature="0"
   style="fill:#000000;stroke:none" />
         <path
   d="m 10785,14228 15,25 23,31 33,33 43,33 51,23 56,13 64,-3 68,-25 59,-39 41,-43 25,-40 15,-44 3,-38 -3,-38 -5,-30 -7,-23 2,-23 20,-26 21,-20 15,-5 8,10 12,26 13,35 15,46 8,53 v 54 l -10,58 -26,54 -17,22 -21,23 -25,23 -28,23 -31,20 -30,21 -36,15 -35,15 -39,13 -38,10 -38,5 -41,3 -38,-3 -38,-7 -38,-11 -36,-17 -48,-31 -36,-35 -25,-39 -15,-35 -10,-33 -3,-28 -3,-21 3,-10 5,-5 13,-5 18,-5 17,-2 18,-6 h 18 13 z"
   id="path114"
   inkscape:connector-curvature="0"
   style="fill:#ffd14c;stroke:none" />
         <path
   d="m 11245,14106 -18,36 -28,38 -35,33 -43,30 -51,26 -61,15 -69,2 -76,-7 30,25 36,21 33,10 38,5 h 36 l 33,-8 35,-10 31,-15 30,-21 26,-20 23,-25 17,-26 13,-28 5,-28 3,-25 z"
   id="path116"
   inkscape:connector-curvature="0"
   style="fill:#ff9933;stroke:none" />
         <path
   d="m 11146,14223 25,2 23,3 h 21 l 20,3 18,5 20,5 18,10 20,13 23,17 23,26 20,35 16,41 5,51 -8,58 -28,69 -46,79 -53,73 -48,54 -44,38 -38,25 -33,13 -28,5 h -23 -17 l -16,-5 -18,-10 -17,-13 -21,-20 -15,-20 -18,-23 -12,-26 -11,-23 -12,-28 -18,-28 -23,-30 -20,-33 -21,-38 -15,-38 -8,-46 3,-48 10,-44 10,-38 16,-35 17,-31 21,-25 25,-23 28,-18 33,-10 31,-5 h 25 l 26,2 22,5 21,8 23,8 23,5 z"
   id="path118"
   inkscape:connector-curvature="0"
   style="fill:#000000;stroke:none" />
         <path
   d="m 11126,14264 h 28 25 25 l 28,2 26,8 25,15 26,25 28,39 15,38 3,40 -8,44 -15,43 -23,43 -28,43 -31,41 -30,38 -28,33 -26,28 -23,18 -20,15 -18,10 -18,5 h -17 l -16,-2 -25,-8 -20,-18 -16,-20 -12,-23 -13,-25 -10,-23 -13,-23 -13,-18 -15,-15 -15,-15 -15,-21 -16,-23 -12,-28 -8,-33 -8,-40 v -49 l 3,-28 8,-27 12,-31 18,-28 18,-25 23,-21 25,-12 28,-8 26,-3 20,3 18,5 15,8 13,7 15,8 18,5 z"
   id="path120"
   inkscape:connector-curvature="0"
   style="fill:#f20c59;stroke:none" />
         <path
   d="m 10965,14370 21,-7 12,-21 3,-20 -8,-13 -10,8 -2,10 -3,8 -2,2 -11,-15 v -25 l -2,-23 -13,-8 -10,18 3,33 7,33 z"
   id="path122"
   inkscape:connector-curvature="0"
   style="fill:#000000;stroke:none" />
         <path
   d="m 11067,14444 20,-10 16,-20 2,-21 -7,-13 -11,8 -2,10 -3,10 -2,3 -8,-15 -5,-28 -7,-26 -13,-2 -5,18 2,33 10,33 z"
   id="path124"
   inkscape:connector-curvature="0"
   style="fill:#000000;stroke:none" />
         <path
   d="m 10922,14482 23,-7 15,-18 5,-21 -7,-12 -10,7 -5,10 -6,8 -5,3 -7,-16 -5,-28 -11,-25 -12,-3 -5,21 5,30 10,33 z"
   id="path126"
   inkscape:connector-curvature="0"
   style="fill:#000000;stroke:none" />
         <path
   d="m 11159,14530 23,-7 17,-18 8,-20 -10,-13 -10,8 -8,7 -5,8 -3,2 -7,-15 v -25 l -5,-23 -16,-5 -7,15 2,33 8,33 z"
   id="path128"
   inkscape:connector-curvature="0"
   style="fill:#000000;stroke:none" />
         <path
   d="m 11204,14426 23,-5 18,-13 8,-12 -10,-10 -11,5 -5,5 -2,2 h -5 l -5,-12 -3,-23 -2,-21 -13,-5 -8,16 v 27 l 5,28 z"
   id="path130"
   inkscape:connector-curvature="0"
   style="fill:#000000;stroke:none" />
         <path
   d="m 11016,14566 23,-8 15,-20 3,-23 -8,-15 -10,8 -2,12 -3,10 -5,3 -8,-15 -2,-28 -5,-23 -13,-3 -8,18 v 33 l 8,31 z"
   id="path132"
   inkscape:connector-curvature="0"
   style="fill:#000000;stroke:none" />
         <path
   d="m 11128,14340 18,-3 13,-7 5,-11 -5,-7 -10,2 -6,3 -5,2 h -2 l -5,-7 -3,-15 -5,-13 -8,-3 -5,11 3,17 5,18 z"
   id="path134"
   inkscape:connector-curvature="0"
   style="fill:#000000;stroke:none" />
         <path
   d="m 11131,14642 23,-5 12,-12 5,-16 -7,-10 -10,5 -5,5 -3,5 h -5 l -5,-12 -5,-28 -5,-23 -13,-3 -8,16 3,30 7,31 z"
   id="path136"
   inkscape:connector-curvature="0"
   style="fill:#000000;stroke:none" />
         <path
   d="m 11062,14729 23,-5 15,-13 5,-15 -7,-10 -11,5 -5,5 -5,5 h -2 l -8,-13 -5,-20 -8,-21 -12,-2 -5,15 2,26 10,27 z"
   id="path138"
   inkscape:connector-curvature="0"
   style="fill:#000000;stroke:none" />
         <path
   d="m 11248,14586 20,-7 15,-13 5,-13 -7,-10 -10,5 -5,5 -3,5 h -5 l -5,-10 v -23 l -3,-17 -12,-3 -6,13 -2,25 5,26 z"
   id="path140"
   inkscape:connector-curvature="0"
   style="fill:#000000;stroke:none" />
         <path
   d="m 11296,14482 20,-5 13,-10 5,-10 -7,-5 -11,5 -2,2 -3,3 h -5 l -5,-10 v -21 -15 l -13,-2 -5,10 -2,23 5,20 z"
   id="path142"
   inkscape:connector-curvature="0"
   style="fill:#000000;stroke:none" />
         <path
   d="m 10960,14642 23,-7 13,-13 5,-13 -8,-10 -10,5 -5,8 -2,2 h -5 l -6,-12 -2,-21 -5,-15 -13,-5 -5,15 3,23 7,26 z"
   id="path144"
   inkscape:connector-curvature="0"
   style="fill:#000000;stroke:none" />
         <path
   d="m 10848,14175 26,2 h 23 l 20,3 20,2 18,3 21,7 17,8 21,13 23,18 23,27 20,34 15,40 5,51 -7,58 -26,72 -46,78 -56,74 -48,54 -43,38 -38,23 -33,15 -28,5 h -23 -18 l -15,-5 -18,-10 -18,-13 -20,-20 -15,-21 -18,-23 -13,-25 -10,-23 -13,-28 -18,-28 -20,-30 -20,-33 -21,-38 -12,-39 -8,-45 2,-49 8,-43 13,-38 13,-36 17,-30 21,-26 25,-22 28,-18 31,-10 30,-5 26,-3 25,3 23,7 20,5 23,8 23,7 z"
   id="path146"
   inkscape:connector-curvature="0"
   style="fill:#000000;stroke:none" />
         <path
   d="m 10828,14215 h 28 25 26 l 28,3 25,7 26,16 25,25 28,38 15,38 3,41 -8,43 -15,43 -23,44 -28,43 -30,41 -31,38 -28,33 -25,28 -23,17 -20,16 -18,10 -18,5 h -18 l -15,-3 -26,-10 -20,-15 -15,-20 -13,-23 -13,-26 -10,-22 -12,-23 -13,-18 -15,-15 -16,-18 -15,-18 -13,-23 -12,-28 -11,-33 -5,-41 v -48 l 3,-28 7,-30 13,-28 18,-28 18,-26 23,-20 23,-13 28,-7 25,-3 20,3 18,5 15,7 13,8 15,8 18,5 z"
   id="path148"
   inkscape:connector-curvature="0"
   style="fill:#f20c59;stroke:none" />
         <path
   d="m 10668,14322 20,-10 15,-20 3,-21 -8,-13 -10,8 -5,10 -2,8 -3,2 -8,-12 v -26 l -2,-23 -15,-7 -11,18 3,33 8,33 z"
   id="path150"
   inkscape:connector-curvature="0"
   style="fill:#000000;stroke:none" />
         <path
   d="m 10772,14393 20,-7 13,-21 3,-20 -8,-13 -10,8 -3,10 -2,8 -3,2 -7,-15 -5,-28 -8,-23 -13,-2 -5,17 3,33 10,33 z"
   id="path152"
   inkscape:connector-curvature="0"
   style="fill:#000000;stroke:none" />
         <path
   d="m 10625,14434 23,-8 17,-18 5,-20 -10,-13 -10,8 -5,8 -5,7 -3,3 -10,-15 -5,-28 -10,-23 -13,-3 -2,18 5,33 10,33 z"
   id="path154"
   inkscape:connector-curvature="0"
   style="fill:#000000;stroke:none" />
         <path
   d="m 10861,14480 23,-8 18,-18 7,-20 -10,-13 -10,8 -8,10 -5,8 -2,2 -8,-15 v -26 l -5,-22 -15,-6 -8,16 3,33 7,30 z"
   id="path156"
   inkscape:connector-curvature="0"
   style="fill:#000000;stroke:none" />
         <path
   d="m 10907,14378 23,-5 18,-13 7,-15 -7,-10 -13,5 -5,5 -3,5 h -5 l -5,-13 -2,-23 -3,-20 -13,-5 -7,15 v 26 l 5,30 z"
   id="path158"
   inkscape:connector-curvature="0"
   style="fill:#000000;stroke:none" />
         <path
   d="m 10721,14515 23,-7 15,-21 3,-23 -10,-15 -10,8 -3,12 -2,11 -6,2 -7,-15 -3,-26 -5,-22 -13,-3 -7,18 2,30 8,33 z"
   id="path160"
   inkscape:connector-curvature="0"
   style="fill:#000000;stroke:none" />
         <path
   d="m 10831,14292 17,-3 13,-8 5,-10 -5,-7 -7,2 -8,3 h -3 -5 l -5,-8 -2,-15 -5,-10 -8,-3 -5,10 2,18 5,18 z"
   id="path162"
   inkscape:connector-curvature="0"
   style="fill:#000000;stroke:none" />
         <path
   d="m 10833,14594 23,-8 13,-12 5,-13 -8,-10 -10,5 -5,5 -3,5 h -5 l -5,-15 -5,-26 -5,-22 -13,-6 -7,18 2,31 8,30 z"
   id="path164"
   inkscape:connector-curvature="0"
   style="fill:#000000;stroke:none" />
         <path
   d="m 10765,14680 25,-5 13,-12 5,-16 -8,-10 -10,5 -5,5 -3,5 h -5 l -7,-12 -5,-23 -6,-18 -15,-2 -5,15 3,25 10,28 z"
   id="path166"
   inkscape:connector-curvature="0"
   style="fill:#000000;stroke:none" />
         <path
   d="m 10950,14538 21,-8 15,-12 5,-13 -8,-10 -10,5 -5,5 -3,5 h -5 l -5,-13 v -20 l -2,-18 -13,-2 -5,12 -3,26 5,25 z"
   id="path168"
   inkscape:connector-curvature="0"
   style="fill:#000000;stroke:none" />
         <path
   d="m 11001,14434 18,-5 13,-10 5,-11 -8,-7 -10,5 -3,5 -2,3 h -3 l -5,-13 v -18 l -2,-15 -13,-3 -5,10 -3,21 5,23 z"
   id="path170"
   inkscape:connector-curvature="0"
   style="fill:#000000;stroke:none" />
         <path
   d="m 10665,14594 21,-8 15,-12 2,-13 -7,-10 -10,5 -5,5 -3,5 h -5 l -5,-13 -3,-20 -5,-18 -12,-2 -6,15 3,23 8,25 z"
   id="path172"
   inkscape:connector-curvature="0"
   style="fill:#000000;stroke:none" />
         <path
   d="m 10531,15054 20,-13 33,-38 41,-61 38,-81 28,-94 12,-102 -10,-107 -38,-104 -35,-56 -39,-45 -43,-41 -46,-33 -48,-28 -48,-18 -51,-13 -51,-5 h -53 l -49,8 -51,15 -45,20 -46,26 -41,35 -35,39 -34,45 21,11 30,15 38,20 49,26 53,30 56,36 59,40 58,49 66,68 49,71 38,69 25,66 21,59 12,45 8,33 z"
   id="path174"
   inkscape:connector-curvature="0"
   style="fill:#000000;stroke:none" />
         <path
   d="m 10564,14406 43,69 28,78 18,82 2,84 -7,83 -23,79 -33,69 -46,61 -38,-114 17,-34 13,-38 5,-40 -2,-44 -10,-43 -16,-46 -20,-43 -28,-43 -33,-38 -36,-36 -43,-28 -48,-25 -54,-15 -56,-10 -61,2 -63,10 -87,-33 41,-35 43,-28 41,-23 43,-18 41,-13 41,-7 38,-5 40,2 36,5 36,10 35,13 33,18 31,18 28,23 28,25 z"
   id="path176"
   inkscape:connector-curvature="0"
   style="fill:#ffd14c;stroke:none" />
         <path
   d="m 10391,14556 30,33 26,36 22,38 16,38 10,38 8,36 v 35 l -6,31 -22,-51 -36,-56 -43,-59 -51,-61 -56,-53 -59,-46 -56,-35 -55,-21 5,-2 15,-5 23,-3 h 33 l 38,8 48,18 51,33 z"
   id="path178"
   inkscape:connector-curvature="0"
   style="fill:#ff9933;stroke:none" />
         <path
   d="m 9775,14103 23,-12 18,-13 13,-13 15,-12 13,-11 15,-10 20,-7 28,-5 h 26 l 30,5 31,10 30,23 33,30 31,41 28,53 25,66 13,71 v 67 l -10,55 -11,51 -2,18 v 23 l -3,31 -5,30 -12,33 -16,31 -25,28 -36,20 -35,13 -31,5 -30,-5 -26,-8 -23,-13 -23,-12 -17,-18 -18,-16 -21,-12 -30,-18 -38,-18 -41,-23 -41,-30 -40,-33 -36,-43 -30,-54 -18,-41 -10,-38 -5,-35 2,-31 5,-28 13,-25 18,-23 20,-20 31,-23 28,-18 28,-10 25,-8 20,-5 21,-5 17,-3 z"
   id="path180"
   inkscape:connector-curvature="0"
   style="fill:#000000;stroke:none" />
         <path
   d="m 9803,14162 26,-13 20,-18 15,-15 10,-15 v -10 l -10,-3 -23,5 -35,18 28,-23 15,-15 10,-13 13,-10 13,-5 17,-3 h 18 l 18,3 18,5 18,8 17,7 16,10 28,26 25,35 23,41 20,48 13,51 8,54 -3,50 -8,51 -7,38 v 41 41 l -8,33 -7,15 -11,18 -10,15 -13,18 -12,15 -13,10 -10,11 -10,2 -28,-2 -23,-11 -23,-15 -20,-18 -21,-17 -18,-18 -17,-13 -16,-10 -33,-10 -38,-16 -41,-22 -38,-26 -38,-35 -30,-41 -23,-48 -10,-56 v -44 l 5,-35 12,-31 13,-25 18,-18 20,-15 23,-8 23,-5 -5,13 3,7 10,6 12,2 h 18 l 21,-2 17,-6 z"
   id="path182"
   inkscape:connector-curvature="0"
   style="fill:#f20c59;stroke:none" />
         <path
   d="m 9963,14228 18,-13 3,-23 -5,-23 -11,-15 -5,8 v 13 12 l -2,5 -18,-7 -13,-21 -15,-20 h -10 l 2,23 16,28 23,25 z"
   id="path184"
   inkscape:connector-curvature="0"
   style="fill:#000000;stroke:none" />
         <path
   d="m 10050,14393 13,-18 2,-30 -8,-26 -12,-7 -5,13 2,12 5,13 -2,5 -16,-8 -12,-22 -13,-21 h -15 l -3,8 3,10 5,13 10,15 13,15 10,13 13,10 z"
   id="path186"
   inkscape:connector-curvature="0"
   style="fill:#000000;stroke:none" />
         <path
   d="m 10068,14503 12,-11 5,-20 v -18 l -10,-15 -7,5 -3,10 v 10 l -5,5 -13,-10 -7,-18 -11,-10 h -7 v 18 l 13,26 17,22 z"
   id="path188"
   inkscape:connector-curvature="0"
   style="fill:#000000;stroke:none" />
         <path
   d="m 10004,14627 13,-18 5,-23 -3,-17 -10,-13 -5,5 -2,10 -3,10 -3,5 -15,-7 -13,-21 -10,-20 h -10 v 23 l 13,28 23,28 z"
   id="path190"
   inkscape:connector-curvature="0"
   style="fill:#000000;stroke:none" />
         <path
   d="m 9953,14462 18,-18 3,-23 -6,-18 -12,-12 -5,5 -3,10 v 10 l -2,5 -16,-7 -12,-26 -13,-20 -15,5 -3,7 5,13 5,15 10,16 13,15 13,13 10,7 z"
   id="path192"
   inkscape:connector-curvature="0"
   style="fill:#000000;stroke:none" />
         <path
   d="m 9872,14564 10,-21 v -23 l -5,-17 -13,-11 -5,8 v 10 l 3,13 -3,5 -15,-5 -15,-18 -13,-15 -13,2 -2,8 5,13 7,12 10,13 13,10 13,10 13,6 z"
   id="path194"
   inkscape:connector-curvature="0"
   style="fill:#000000;stroke:none" />
         <path
   d="m 9757,14503 16,-16 5,-20 -3,-23 -13,-13 -7,8 v 13 10 l -3,5 -15,-10 -13,-21 -12,-15 -13,3 2,20 16,28 23,23 z"
   id="path196"
   inkscape:connector-curvature="0"
   style="fill:#000000;stroke:none" />
         <path
   d="m 9831,14398 10,-20 v -25 l -7,-23 -16,-8 -5,13 5,10 3,10 v 5 l -15,-5 -16,-23 -17,-18 h -16 l -2,8 2,10 8,15 13,13 12,15 16,13 12,8 z"
   id="path198"
   inkscape:connector-curvature="0"
   style="fill:#000000;stroke:none" />
         <path
   d="m 9892,14314 18,-12 3,-23 -6,-23 -10,-15 -5,7 v 13 15 l -2,5 -16,-12 -12,-23 -13,-21 h -13 l 3,23 15,31 20,28 z"
   id="path200"
   inkscape:connector-curvature="0"
   style="fill:#000000;stroke:none" />
         <path
   d="m 9768,14276 12,-12 5,-21 v -20 l -10,-10 -7,5 -3,10 v 10 l -3,3 -15,-10 -13,-16 -10,-15 h -10 v 20 l 15,26 21,23 z"
   id="path202"
   inkscape:connector-curvature="0"
   style="fill:#000000;stroke:none" />
         <path
   d="m 9707,14347 17,-20 3,-25 -8,-18 -12,-13 -6,5 -2,13 v 13 l -3,5 -15,-8 -15,-23 -15,-18 -16,6 -2,10 5,10 7,15 13,15 13,13 13,13 12,5 z"
   id="path204"
   inkscape:connector-curvature="0"
   style="fill:#000000;stroke:none" />
         <path
   d="m 9498,14292 51,33 5,2 13,8 20,12 28,16 30,17 36,23 41,21 40,23 41,25 41,23 41,20 35,21 36,15 28,15 23,8 15,5 20,2 h 33 l 46,3 59,2 63,3 71,2 77,3 76,3 76,2 77,3 h 68 l 64,2 h 56 46 l 30,-2 18,-3 15,-5 23,-10 28,-15 36,-18 40,-21 43,-22 46,-26 46,-25 48,-26 44,-25 43,-23 41,-20 33,-18 28,-15 20,-11 13,-5 71,-38 13,8 12,8 8,7 5,5 v 5 l -3,8 -2,8 -3,7 -81,41 -15,7 -23,16 -28,15 -36,20 -40,23 -44,26 -45,25 -49,25 -46,26 -45,25 -44,23 -38,21 -35,17 -28,16 -21,10 -12,5 -16,2 h -30 l -43,3 h -56 -64 l -71,-3 h -74 l -79,-2 h -79 l -73,-3 -74,-2 -66,-3 -59,-2 -45,-3 -36,-2 -20,-3 -16,-5 -23,-10 -30,-15 -36,-18 -38,-21 -43,-25 -46,-23 -46,-28 -45,-25 -44,-23 -40,-23 -36,-20 -30,-18 -23,-13 -16,-10 -5,-3 -76,-40 3,-3 v 0 0 0 l 7,-7 13,-11 15,-10 z"
   id="path206"
   inkscape:connector-curvature="0"
   style="fill:#000000;stroke:none" />
         <path
   d="m 10302,13437 10,-15 15,-10 20,-10 23,-8 31,-2 30,-3 h 33 l 36,3 74,12 58,21 43,30 31,33 18,38 2,38 -10,39 -20,38 91,12 74,23 54,33 38,36 23,41 15,38 2,33 -2,28 71,10 59,33 40,43 28,56 8,56 -10,53 -33,46 -54,33 -48,16 -43,5 -38,-3 -31,-2 -33,-3 h -28 l -31,8 -33,20 -28,25 -17,26 -13,28 -10,25 -10,26 -13,22 -18,18 -25,13 -31,8 -30,5 -31,2 -33,-5 -31,-5 -28,-13 -30,-15 -28,-23 -33,23 -43,13 -46,5 -48,-5 -44,-15 -35,-31 -21,-43 -5,-56 -53,18 -48,7 -46,-2 -41,-10 -36,-16 -30,-23 -23,-25 -20,-30 -10,-34 -6,-35 3,-33 13,-33 18,-33 28,-28 38,-23 45,-20 -2,-59 10,-48 15,-41 26,-30 30,-23 36,-15 38,-6 h 43 l -23,-33 -10,-35 3,-38 18,-33 28,-28 40,-21 54,-7 63,7 13,-12 v -16 l -10,-15 -18,-15 -18,-18 -18,-15 -10,-13 z"
   id="path208"
   inkscape:connector-curvature="0"
   style="fill:#000000;stroke:none" />
         <path
   d="m 10327,13437 5,-10 20,-7 31,-3 38,3 43,5 44,10 43,13 38,15 23,15 20,15 18,21 13,20 7,23 v 28 l -5,25 -12,31 -13,2 -15,5 -13,3 -13,5 -15,8 -13,7 -15,10 -13,11 -2,7 5,3 5,2 h 7 l 64,-10 h 59 l 50,3 44,12 38,16 30,17 26,26 18,25 10,28 2,28 -5,31 -10,28 -20,28 -28,25 -33,23 -44,18 -12,7 -5,8 2,8 13,2 53,-2 44,-11 35,-10 28,-18 23,-15 18,-18 13,-15 10,-13 48,23 38,28 26,28 15,31 5,30 -3,28 -10,26 -15,20 -23,15 -28,10 -30,5 h -33 -34 l -33,3 -30,5 -28,10 -36,23 -33,28 -28,31 -28,33 -23,30 -25,26 -25,17 -28,8 -56,5 -44,-2 -30,-8 -21,-10 -12,-10 -10,-8 -8,-8 -5,-2 -15,2 -28,11 -33,10 -41,5 -38,-3 -38,-20 -33,-41 -23,-66 -51,15 -49,5 -40,-5 -38,-10 -31,-20 -23,-23 -13,-31 -7,-33 2,-33 5,-28 8,-22 10,-21 13,-15 13,-13 12,-10 11,-5 28,43 40,36 51,28 56,18 59,12 56,3 53,-5 43,-13 28,-13 26,-7 25,-5 23,-5 h 20 l 18,2 15,3 8,5 18,15 23,20 30,21 36,12 35,3 39,-10 40,-28 36,-51 -54,23 -43,7 -35,-5 -28,-12 -26,-18 -23,-15 -25,-16 -31,-7 h -30 l -23,7 -20,10 -23,13 -31,10 -41,5 -53,-2 -74,-10 -45,-13 -41,-15 -33,-21 -28,-25 -21,-23 -15,-25 -10,-26 -3,-20 3,-20 5,-18 10,-18 13,-18 20,-15 23,-13 31,-10 38,-8 91,16 72,7 h 51 l 35,-5 23,-7 13,-11 5,-10 5,-10 -53,10 h -51 l -46,-7 -43,-16 -33,-17 -26,-23 -18,-23 -2,-26 13,-43 25,-23 33,-10 h 36 l 38,3 33,-3 28,-7 15,-21 3,-28 -11,-20 -17,-18 -23,-13 -23,-10 -23,-10 -15,-5 z"
   id="path210"
   inkscape:connector-curvature="0"
   style="fill:#ffffff;stroke:none" />
        </g>
       </g>
      </g>
     </g>
    </g>
   </g>
  </g>
 </g>
</svg>