<?xml version="1.0" encoding="UTF-8" standalone="no"?>
<svg
   xmlns:ooo="http://xml.openoffice.org/svg/export"
   xmlns:dc="http://purl.org/dc/elements/1.1/"
   xmlns:cc="http://creativecommons.org/ns#"
   xmlns:rdf="http://www.w3.org/1999/02/22-rdf-syntax-ns#"
   xmlns:svg="http://www.w3.org/2000/svg"
   xmlns="http://www.w3.org/2000/svg"
   xmlns:sodipodi="http://sodipodi.sourceforge.net/DTD/sodipodi-0.dtd"
   xmlns:inkscape="http://www.inkscape.org/namespaces/inkscape"
   version="1.2"
   width="24.889999mm"
   height="25.959999mm"
   viewBox="0 0 2488.9999 2595.9999"
   preserveAspectRatio="xMidYMid"
   xml:space="preserve"
   id="svg173"
   sodipodi:docname="sunrise.svg"
   style="fill-rule:evenodd;stroke-width:28.22200012;stroke-linejoin:round"
   inkscape:version="0.92.5 (2060ec1f9f, 2020-04-08)"><metadata
   id="metadata177"><rdf:RDF><cc:Work
       rdf:about=""><dc:format>image/svg+xml</dc:format><dc:type
         rdf:resource="http://purl.org/dc/dcmitype/StillImage" /></cc:Work></rdf:RDF></metadata><sodipodi:namedview
   pagecolor="#ffffff"
   bordercolor="#666666"
   borderopacity="1"
   objecttolerance="10"
   gridtolerance="10"
   guidetolerance="10"
   inkscape:pageopacity="0"
   inkscape:pageshadow="2"
   inkscape:window-width="664"
   inkscape:window-height="487"
   id="namedview175"
   showgrid="false"
   inkscape:zoom="0.2102413"
   inkscape:cx="47.055119"
   inkscape:cy="49.058266"
   inkscape:window-x="0"
   inkscape:window-y="0"
   inkscape:window-maximized="0"
   inkscape:current-layer="svg173" />
 <defs
   class="ClipPathGroup"
   id="defs8">
  <clipPath
   id="presentation_clip_path"
   clipPathUnits="userSpaceOnUse">
   <rect
   x="0"
   y="0"
   width="21000"
   height="29700"
   id="rect2" />
  </clipPath>
  <clipPath
   id="presentation_clip_path_shrink"
   clipPathUnits="userSpaceOnUse">
   <rect
   x="21"
   y="29"
   width="20958"
   height="29641"
   id="rect5" />
  </clipPath>
 </defs>
 <defs
   class="TextShapeIndex"
   id="defs12">
  <g
   ooo:slide="id1"
   ooo:id-list="id3"
   id="g10" />
 </defs>
 <defs
   class="EmbeddedBulletChars"
   id="defs44">
  <g
   id="bullet-char-template-57356"
   transform="matrix(4.8828125e-4,0,0,-4.8828125e-4,0,0)">
   <path
   d="M 580,1141 1163,571 580,0 -4,571 Z"
   id="path14"
   inkscape:connector-curvature="0" />
  </g>
  <g
   id="bullet-char-template-57354"
   transform="matrix(4.8828125e-4,0,0,-4.8828125e-4,0,0)">
   <path
   d="M 8,1128 H 1137 V 0 H 8 Z"
   id="path17"
   inkscape:connector-curvature="0" />
  </g>
  <g
   id="bullet-char-template-10146"
   transform="matrix(4.8828125e-4,0,0,-4.8828125e-4,0,0)">
   <path
   d="M 174,0 602,739 174,1481 1456,739 Z M 1358,739 309,1346 659,739 Z"
   id="path20"
   inkscape:connector-curvature="0" />
  </g>
  <g
   id="bullet-char-template-10132"
   transform="matrix(4.8828125e-4,0,0,-4.8828125e-4,0,0)">
   <path
   d="M 2015,739 1276,0 H 717 l 543,543 H 174 v 393 h 1086 l -543,545 h 557 z"
   id="path23"
   inkscape:connector-curvature="0" />
  </g>
  <g
   id="bullet-char-template-10007"
   transform="matrix(4.8828125e-4,0,0,-4.8828125e-4,0,0)">
   <path
   d="m 0,-2 c -7,16 -16,29 -25,39 l 381,530 c -94,256 -141,385 -141,387 0,25 13,38 40,38 9,0 21,-2 34,-5 21,4 42,12 65,25 l 27,-13 111,-251 280,301 64,-25 24,25 c 21,-10 41,-24 62,-43 C 886,937 835,863 770,784 769,783 710,716 594,584 L 774,223 c 0,-27 -21,-55 -63,-84 l 16,-20 C 717,90 699,76 672,76 641,76 570,178 457,381 L 164,-76 c -22,-34 -53,-51 -92,-51 -42,0 -63,17 -64,51 -7,9 -10,24 -10,44 0,9 1,19 2,30 z"
   id="path26"
   inkscape:connector-curvature="0" />
  </g>
  <g
   id="bullet-char-template-10004"
   transform="matrix(4.8828125e-4,0,0,-4.8828125e-4,0,0)">
   <path
   d="M 285,-33 C 182,-33 111,30 74,156 52,228 41,333 41,471 c 0,78 14,145 41,201 34,71 87,106 158,106 53,0 88,-31 106,-94 l 23,-176 c 8,-64 28,-97 59,-98 l 735,706 c 11,11 33,17 66,17 42,0 63,-15 63,-46 V 965 c 0,-36 -10,-64 -30,-84 L 442,47 C 390,-6 338,-33 285,-33 Z"
   id="path29"
   inkscape:connector-curvature="0" />
  </g>
  <g
   id="bullet-char-template-9679"
   transform="matrix(4.8828125e-4,0,0,-4.8828125e-4,0,0)">
   <path
   d="M 813,0 C 632,0 489,54 383,161 276,268 223,411 223,592 c 0,181 53,324 160,431 106,107 249,161 430,161 179,0 323,-54 432,-161 108,-107 162,-251 162,-431 0,-180 -54,-324 -162,-431 C 1136,54 992,0 813,0 Z"
   id="path32"
   inkscape:connector-curvature="0" />
  </g>
  <g
   id="bullet-char-template-8226"
   transform="matrix(4.8828125e-4,0,0,-4.8828125e-4,0,0)">
   <path
   d="m 346,457 c -73,0 -137,26 -191,78 -54,51 -81,114 -81,188 0,73 27,136 81,188 54,52 118,78 191,78 73,0 134,-26 185,-79 51,-51 77,-114 77,-187 0,-75 -25,-137 -76,-188 -50,-52 -112,-78 -186,-78 z"
   id="path35"
   inkscape:connector-curvature="0" />
  </g>
  <g
   id="bullet-char-template-8211"
   transform="matrix(4.8828125e-4,0,0,-4.8828125e-4,0,0)">
   <path
   d="M -4,459 H 1135 V 606 H -4 Z"
   id="path38"
   inkscape:connector-curvature="0" />
  </g>
  <g
   id="bullet-char-template-61548"
   transform="matrix(4.8828125e-4,0,0,-4.8828125e-4,0,0)">
   <path
   d="m 173,740 c 0,163 58,303 173,419 116,115 255,173 419,173 163,0 302,-58 418,-173 116,-116 174,-256 174,-419 0,-163 -58,-303 -174,-418 C 1067,206 928,148 765,148 601,148 462,206 346,322 231,437 173,577 173,740 Z"
   id="path41"
   inkscape:connector-curvature="0" />
  </g>
 </defs>
 <g
   id="g49"
   transform="translate(-9255,-13552)">
  <g
   id="id2"
   class="Master_Slide">
   <g
   id="bg-id2"
   class="Background" />
   <g
   id="bo-id2"
   class="BackgroundObjects" />
  </g>
 </g>
 <g
   class="SlideGroup"
   id="g171"
   transform="translate(-9255,-13552)">
  <g
   id="g169">
   <g
   id="container-id1">
    <g
   id="id1"
   class="Slide"
   clip-path="url(#presentation_clip_path)">
     <g
   class="Page"
   id="g165">
      <g
   class="Graphic"
   id="g163">
       <g
   id="id3">
        <rect
   class="BoundingBox"
   x="9255"
   y="13552"
   width="2489"
   height="2596"
   id="rect51"
   style="fill:none;stroke:none" />
        <defs
   id="defs56">
         <clipPath
   id="clip_path_1"
   clipPathUnits="userSpaceOnUse">
          <path
   d="m 9255,13552 h 2488 v 2595 H 9255 Z"
   id="path53"
   inkscape:connector-curvature="0" />
         </clipPath>
        </defs>
        <g
   clip-path="url(#clip_path_1)"
   id="g160">
         <path
   d="m 11269,15556 33,-13 48,-18 56,-20 61,-23 58,-23 56,-20 46,-18 31,-13 28,-69 17,-61 8,-58 5,-56 -3,-58 -5,-59 -5,-66 -5,-74 -23,23 -28,28 -30,31 -36,38 -38,40 -38,41 -41,43 -38,44 -40,43 -39,40 -35,41 -33,33 -28,33 -26,26 -20,17 -13,13 13,13 10,13 13,12 10,16 8,15 10,15 7,15 z"
   id="path58"
   inkscape:connector-curvature="0"
   style="fill:#ffffff;stroke:none" />
         <path
   d="m 11650,15406 5,-6 -30,13 -46,18 -56,20 -59,23 -61,23 -56,20 -48,18 -33,13 5,15 33,-13 48,-17 56,-21 61,-23 59,-22 56,-21 46,-18 30,-12 5,-5 -5,5 5,-5 v -5 l -2,-6 h -8 z"
   id="path60"
   inkscape:connector-curvature="0"
   style="fill:#000000;stroke:none" />
         <path
   d="m 11703,14912 -12,-5 5,74 5,66 5,59 v 58 l -3,56 -7,58 -18,59 -28,69 15,5 28,-69 18,-64 8,-58 7,-56 -5,-58 -5,-59 -5,-66 -5,-74 -13,-5 13,5 -3,-5 -5,-2 -5,2 -2,5 z"
   id="path62"
   inkscape:connector-curvature="0"
   style="fill:#000000;stroke:none" />
         <path
   d="m 11197,15436 v 13 l 13,-15 20,-18 26,-26 28,-33 33,-33 35,-40 39,-41 40,-43 38,-44 41,-43 38,-41 38,-40 36,-38 30,-31 28,-28 23,-23 -10,-10 -23,23 -28,28 -30,30 -36,39 -38,40 -38,41 -41,43 -38,43 -41,44 -38,40 -35,41 -33,33 -28,33 -26,26 -20,17 -13,11 v 12 -12 l -5,5 3,5 5,5 h 7 z"
   id="path64"
   inkscape:connector-curvature="0"
   style="fill:#000000;stroke:none" />
         <path
   d="m 11266,15548 10,5 -5,-15 -8,-18 -10,-15 -7,-16 -10,-15 -16,-13 -10,-12 -13,-13 -10,10 13,13 10,13 10,12 10,16 8,15 10,15 8,13 5,15 10,5 -10,-5 5,5 h 5 l 5,-2 v -8 z"
   id="path66"
   inkscape:connector-curvature="0"
   style="fill:#000000;stroke:none" />
         <path
   d="m 11113,15390 8,-25 15,-46 23,-61 26,-74 30,-84 36,-94 35,-99 39,-101 38,-102 38,-99 35,-97 33,-86 28,-77 26,-63 18,-49 12,-30 -35,-64 -41,-58 -41,-59 -45,-56 -49,-50 -53,-51 -53,-46 -59,-43 -13,109 -17,193 -21,249 -23,273 -23,272 -20,236 -15,176 -10,83 h 10 l 10,3 10,3 10,2 11,3 7,5 10,2 z"
   id="path68"
   inkscape:connector-curvature="0"
   style="fill:#ffffff;stroke:none" />
         <path
   d="m 11546,14205 v -5 l -13,31 -18,48 -25,64 -28,76 -33,86 -36,97 -38,99 -38,102 -38,102 -36,99 -35,94 -31,84 -25,74 -23,61 -16,45 -7,26 15,5 8,-26 15,-45 23,-61 25,-74 31,-84 35,-94 36,-99 38,-102 38,-102 38,-99 36,-96 33,-87 28,-76 25,-64 18,-48 13,-31 v -5 5 -7 l -5,-3 h -5 l -5,5 z"
   id="path70"
   inkscape:connector-curvature="0"
   style="fill:#000000;stroke:none" />
         <path
   d="m 11185,13776 -13,7 58,44 54,43 53,51 46,51 46,55 40,59 41,58 36,61 15,-5 -36,-66 -40,-58 -41,-59 -46,-56 -51,-50 -53,-51 -53,-49 -59,-43 -13,8 13,-8 h -7 l -6,3 -2,7 5,5 z"
   id="path72"
   inkscape:connector-curvature="0"
   style="fill:#000000;stroke:none" />
         <path
   d="m 11035,15360 7,7 10,-83 16,-176 20,-236 23,-272 23,-273 20,-249 18,-193 13,-109 h -16 l -12,109 -18,193 -20,249 -23,273 -23,272 -21,236 -15,176 -10,83 8,8 -8,-8 3,6 5,2 5,-2 2,-6 z"
   id="path74"
   inkscape:connector-curvature="0"
   style="fill:#000000;stroke:none" />
         <path
   d="m 11106,15388 10,-5 -10,-5 -10,-3 -8,-5 -13,-3 -10,-2 -10,-3 -10,-2 h -10 v 15 h 10 l 10,3 10,2 10,3 8,2 8,5 10,3 10,5 10,-5 -10,5 h 8 l 2,-5 v -8 l -5,-2 z"
   id="path76"
   inkscape:connector-curvature="0"
   style="fill:#000000;stroke:none" />
         <path
   d="m 10963,15365 -12,-99 -26,-206 -35,-280 -43,-313 -41,-310 -41,-277 -28,-203 -18,-97 -28,-5 -30,-8 -28,-5 -31,-2 -30,-3 -31,-2 -30,-3 h -31 -45 l -44,3 -43,5 -43,5 -43,7 -41,8 -43,10 -41,13 13,30 25,61 36,87 48,109 54,125 58,137 64,148 66,152 66,155 63,150 64,145 56,132 51,120 43,99 33,76 20,51 16,-5 17,-2 16,-6 z"
   id="path78"
   inkscape:connector-curvature="0"
   style="fill:#ffffff;stroke:none" />
         <path
   d="m 10719,13588 -7,-5 18,94 28,203 40,277 41,310 43,313 36,280 25,206 13,99 h 15 l -13,-99 -25,-206 -36,-280 -43,-313 -41,-310 -40,-277 -28,-203 -18,-100 -8,-5 8,5 -2,-5 h -8 l -5,3 v 8 z"
   id="path80"
   inkscape:connector-curvature="0"
   style="fill:#000000;stroke:none" />
         <path
   d="m 10480,13562 v 0 h 31 30 l 31,3 30,2 31,3 28,5 30,8 28,5 v -16 l -28,-5 -30,-7 -28,-5 -31,-3 -30,-3 -31,-2 -30,-5 h -31 v 0 z"
   id="path82"
   inkscape:connector-curvature="0"
   style="fill:#000000;stroke:none" />
         <path
   d="m 10145,13600 -5,10 40,-12 41,-10 41,-8 43,-8 43,-5 43,-5 h 44 45 v -20 h -45 l -44,5 -43,5 -43,5 -43,8 -41,7 -46,11 -40,12 -5,10 5,-10 -5,3 v 7 l 2,5 h 8 z"
   id="path84"
   inkscape:connector-curvature="0"
   style="fill:#000000;stroke:none" />
         <path
   d="m 10897,15373 8,5 -20,-51 -33,-77 -44,-99 -50,-119 -56,-132 -64,-145 -63,-150 -67,-155 -66,-153 -63,-147 -59,-138 -53,-124 -48,-110 -36,-86 -25,-61 -13,-31 -15,5 12,31 26,61 35,86 49,110 53,124 58,138 64,147 66,153 66,155 64,150 63,145 56,132 51,119 43,100 33,76 21,51 7,5 -7,-5 5,5 h 5 l 5,-3 v -7 z"
   id="path86"
   inkscape:connector-curvature="0"
   style="fill:#000000;stroke:none" />
         <path
   d="m 10956,15365 7,-8 -17,3 -16,5 -17,2 -16,6 v 15 l 16,-5 17,-3 16,-5 17,-2 8,-8 -8,8 6,-3 2,-5 -2,-5 -6,-3 z"
   id="path88"
   inkscape:connector-curvature="0"
   style="fill:#000000;stroke:none" />
         <path
   d="m 10854,15400 -33,-45 -51,-71 -66,-89 -76,-107 -84,-120 -94,-129 -97,-135 -96,-140 -97,-135 -94,-132 -86,-122 -79,-112 -66,-97 -54,-76 -35,-51 -18,-28 -48,41 -49,43 -45,46 -41,48 -41,51 -38,54 -33,56 -33,55 20,21 43,40 64,56 84,74 94,84 109,97 115,101 119,105 122,106 120,107 114,102 107,94 94,84 81,74 64,56 43,40 13,-12 15,-13 15,-10 z"
   id="path90"
   inkscape:connector-curvature="0"
   style="fill:#ffffff;stroke:none" />
         <path
   d="m 9733,13819 -13,-3 18,28 36,51 53,77 66,96 79,112 86,122 94,132 97,135 97,140 96,135 94,129 84,120 77,107 66,89 50,71 34,46 15,-11 -33,-45 -51,-72 -66,-89 -76,-106 -84,-120 -94,-130 -97,-134 -97,-140 -96,-135 -94,-132 -87,-122 -79,-112 -66,-97 -53,-76 -36,-51 -17,-28 -13,-2 13,2 -6,-5 -5,3 -5,5 v 7 z"
   id="path92"
   inkscape:connector-curvature="0"
   style="fill:#000000;stroke:none" />
         <path
   d="m 9408,14200 v 8 l 33,-53 33,-56 38,-54 40,-51 39,-48 45,-46 49,-40 48,-41 -10,-15 -49,40 -48,46 -46,46 -43,48 -40,51 -39,53 -33,56 -33,59 v 8 -8 8 l 5,2 h 8 l 3,-5 z"
   id="path94"
   inkscape:connector-curvature="0"
   style="fill:#000000;stroke:none" />
         <path
   d="m 10788,15441 h 10 l -43,-41 -64,-55 -81,-74 -94,-84 -107,-94 -114,-102 -120,-107 -122,-109 -119,-104 -115,-99 -109,-97 -94,-84 -84,-76 -63,-54 -44,-40 -17,-21 -16,11 23,20 43,41 64,58 84,71 94,84 109,97 115,104 119,104 122,104 120,107 114,102 107,94 94,84 81,74 64,56 43,40 h 10 -10 5 l 5,-2 3,-3 -3,-5 z"
   id="path96"
   inkscape:connector-curvature="0"
   style="fill:#000000;stroke:none" />
         <path
   d="m 10847,15406 5,-13 -21,10 -15,10 -15,15 -13,13 10,10 13,-12 15,-11 15,-10 16,-10 5,-13 -5,13 5,-5 v -5 l -3,-5 h -7 z"
   id="path98"
   inkscape:connector-curvature="0"
   style="fill:#000000;stroke:none" />
         <path
   d="m 10742,15510 -30,-15 -56,-26 -74,-35 -91,-44 -105,-51 -114,-53 -122,-58 -125,-59 -127,-58 -124,-59 -120,-56 -109,-48 -99,-46 -84,-35 -64,-28 -43,-18 5,84 10,84 16,81 20,79 25,76 31,74 35,74 41,68 36,8 50,7 69,8 84,10 92,10 99,13 106,10 107,13 107,10 107,10 99,13 89,8 81,10 66,5 51,8 31,2 5,-18 8,-18 5,-15 7,-15 3,-3 v -2 l 2,-3 z"
   id="path100"
   inkscape:connector-curvature="0"
   style="fill:#ffffff;stroke:none" />
         <path
   d="m 9263,14821 -11,7 44,18 63,28 84,36 99,46 110,48 119,56 125,58 127,59 124,58 122,59 115,53 104,51 92,43 73,36 56,25 31,15 5,-15 -31,-15 -56,-26 -73,-35 -92,-43 -104,-51 -115,-54 -122,-58 -124,-59 -127,-58 -125,-58 -119,-56 -110,-49 -99,-46 -84,-35 -63,-28 -43,-18 -11,8 11,-8 h -8 l -3,5 v 5 l 5,5 z"
   id="path102"
   inkscape:connector-curvature="0"
   style="fill:#000000;stroke:none" />
         <path
   d="m 9438,15434 8,2 -41,-66 -36,-74 -30,-74 -26,-76 -20,-76 -15,-81 -10,-84 -5,-84 h -16 l 5,84 11,84 15,81 20,81 26,77 30,73 36,74 40,71 8,3 -8,-3 6,5 7,-2 3,-5 v -8 z"
   id="path104"
   inkscape:connector-curvature="0"
   style="fill:#000000;stroke:none" />
         <path
   d="m 10704,15584 8,-6 -31,-2 -51,-8 -66,-5 -81,-10 -89,-8 -99,-12 -107,-10 -107,-11 -107,-12 -106,-11 -99,-12 -92,-10 -84,-11 -69,-7 -50,-8 -36,-7 v 15 l 36,7 50,8 69,8 84,10 92,10 99,13 106,10 107,13 107,10 107,10 99,13 89,7 81,10 66,6 51,7 31,3 7,-5 -7,5 5,-3 2,-5 -2,-5 -5,-3 z"
   id="path106"
   inkscape:connector-curvature="0"
   style="fill:#000000;stroke:none" />
         <path
   d="m 10732,15515 -2,2 -8,16 -5,15 -8,18 -5,18 15,5 6,-18 7,-18 5,-15 8,-15 -3,2 z"
   id="path108"
   inkscape:connector-curvature="0"
   style="fill:#000000;stroke:none" />
         <path
   d="m 10740,15517 -8,-7 h 3 l -3,2 v 3 0 l 10,10 5,-5 v -3 l 3,-2 2,-5 -7,-8 7,8 -2,-8 -8,-2 -7,2 -3,8 z"
   id="path110"
   inkscape:connector-curvature="0"
   style="fill:#000000;stroke:none" />
         <path
   d="m 10704,15655 v -18 l 3,-18 2,-15 3,-18 5,-18 8,-15 5,-18 7,-15 3,-3 v -2 0 l 2,-3 10,-17 13,-18 13,-16 13,-12 15,-15 15,-13 15,-10 18,-11 10,-5 13,-5 10,-5 10,-5 18,-5 15,-2 16,-3 17,-3 8,-2 h 8 7 8 10 13 10 l 10,2 10,3 11,3 10,2 7,3 11,2 10,3 10,5 7,2 18,8 18,10 18,13 15,13 3,2 h 2 l 3,3 2,2 13,13 10,13 10,12 11,16 10,15 7,15 8,15 8,16 7,22 5,26 3,25 2,26 -5,58 -18,56 -27,48 -36,44 -43,35 -49,28 -56,18 -58,5 -58,-5 -54,-18 -51,-28 -43,-35 -36,-44 -25,-48 -18,-56 z"
   id="path112"
   inkscape:connector-curvature="0"
   style="fill:#ffbf3f;stroke:none" />
         <path
   d="m 10704,15584 v 2 l -2,18 -3,15 -2,18 -3,18 h 20 l -2,-18 2,-18 3,-15 2,-18 v 3 z"
   id="path114"
   inkscape:connector-curvature="0"
   style="fill:#000000;stroke:none" />
         <path
   d="m 10732,15515 -2,2 -8,16 -5,17 -8,16 -5,18 15,5 6,-18 7,-15 5,-18 8,-15 -3,2 z"
   id="path116"
   inkscape:connector-curvature="0"
   style="fill:#000000;stroke:none" />
         <path
   d="m 10735,15510 2,-3 -2,3 -5,5 h 2 v 0 l 10,10 5,-5 3,-5 -5,5 2,-3 3,-2 z"
   id="path118"
   inkscape:connector-curvature="0"
   style="fill:#000000;stroke:none" />
         <path
   d="m 10786,15444 v 0 l -13,12 -15,16 -13,17 -10,21 15,5 10,-15 13,-18 10,-15 13,-13 v 0 z"
   id="path120"
   inkscape:connector-curvature="0"
   style="fill:#000000;stroke:none" />
         <path
   d="m 10852,15393 v 0 l -21,10 -15,10 -15,15 -15,16 10,10 15,-15 15,-11 15,-10 16,-10 v 0 z"
   id="path122"
   inkscape:connector-curvature="0"
   style="fill:#000000;stroke:none" />
         <path
   d="m 10895,15373 v 0 l -10,5 -10,5 -13,5 -10,5 5,15 10,-5 13,-5 10,-5 10,-5 v 0 z"
   id="path124"
   inkscape:connector-curvature="0"
   style="fill:#000000;stroke:none" />
         <path
   d="m 10963,15360 v 0 l -17,2 -16,3 -15,2 -20,6 5,15 15,-5 15,-3 16,-2 17,-3 v 0 z"
   id="path126"
   inkscape:connector-curvature="0"
   style="fill:#000000;stroke:none" />
         <path
   d="m 10994,15355 v 0 h -8 -7 l -8,2 -8,3 v 15 l 8,-2 8,2 h 7 8 v 0 z"
   id="path128"
   inkscape:connector-curvature="0"
   style="fill:#000000;stroke:none" />
         <path
   d="m 11037,15360 v 0 l -10,-3 -10,-2 h -13 -10 v 20 h 10 13 l 10,-2 10,2 v 0 z"
   id="path130"
   inkscape:connector-curvature="0"
   style="fill:#000000;stroke:none" />
         <path
   d="m 11116,15383 v 0 l -8,-3 -10,-5 -12,-2 -8,-3 -8,-3 -12,-2 -11,-3 -10,-2 v 15 l 10,3 11,2 7,3 8,2 13,3 7,2 10,5 8,3 v 0 z"
   id="path132"
   inkscape:connector-curvature="0"
   style="fill:#000000;stroke:none" />
         <path
   d="m 11185,15426 h 2 l -15,-13 -18,-13 -20,-10 -18,-7 -5,15 18,8 15,10 18,12 15,13 h 3 z"
   id="path134"
   inkscape:connector-curvature="0"
   style="fill:#000000;stroke:none" />
         <path
   d="m 11197,15436 v 0 l -2,-2 -5,-6 h -3 l -2,-2 -5,15 2,3 h 3 v 0 l 2,2 v 0 z"
   id="path136"
   inkscape:connector-curvature="0"
   style="fill:#000000;stroke:none" />
         <path
   d="m 11276,15553 v 0 l -7,-15 -8,-15 -8,-18 -10,-16 -10,-15 -10,-13 -13,-12 -13,-13 -10,10 13,13 8,13 10,12 10,16 10,15 8,13 7,15 8,15 v 0 z"
   id="path138"
   inkscape:connector-curvature="0"
   style="fill:#000000;stroke:none" />
         <path
   d="m 11297,15655 v 0 l -6,-26 -2,-25 -5,-28 -8,-23 -15,5 8,23 5,23 2,25 v 26 0 z"
   id="path140"
   inkscape:connector-curvature="0"
   style="fill:#000000;stroke:none" />
         <path
   d="m 10994,15957 v 0 l 58,-7 59,-18 51,-28 43,-38 38,-43 28,-51 18,-59 8,-58 h -21 l -2,58 -18,54 -28,45 -33,44 -43,33 -46,28 -54,17 -58,3 v 0 z"
   id="path142"
   inkscape:connector-curvature="0"
   style="fill:#000000;stroke:none" />
         <path
   d="m 10694,15655 v 0 l 8,58 17,59 26,51 38,43 43,38 54,28 56,18 58,7 v -20 l -58,-3 -51,-17 -49,-28 -43,-33 -33,-44 -25,-45 -18,-54 -3,-58 v 0 z"
   id="path144"
   inkscape:connector-curvature="0"
   style="fill:#000000;stroke:none" />
         <path
   d="m 11510,16148 -30,-56 -36,-56 -43,-48 -51,-48 -53,-44 -59,-38 -63,-38 -67,-33 -68,-28 -71,-25 -72,-21 -71,-18 -74,-15 -71,-10 -71,-5 -69,-3 -68,3 -74,5 -71,10 -74,15 -76,18 -71,23 -74,26 -71,27 -66,34 -66,35 -61,41 -56,43 -49,46 -45,51 -39,53 -30,56 h 15 23 31 40 46 53 59 66 69 76 76 82 83 84 87 86 89 87 84 83 82 76 76 69 66 61 53 46 41 33 23 z"
   id="path146"
   inkscape:connector-curvature="0"
   style="fill:#26a50c;stroke:none" />
         <path
   d="m 10541,15673 v 0 h 69 l 71,5 71,10 74,15 69,18 71,20 71,26 69,28 66,33 61,38 58,38 54,43 51,46 40,48 36,56 30,54 16,-6 -31,-58 -35,-56 -46,-48 -51,-51 -53,-43 -59,-38 -66,-39 -66,-33 -69,-28 -71,-25 -71,-20 -74,-18 -74,-15 -71,-11 -71,-5 -69,-5 v 0 z"
   id="path148"
   inkscape:connector-curvature="0"
   style="fill:#000000;stroke:none" />
         <path
   d="m 9550,16138 8,13 30,-54 38,-53 43,-51 49,-43 56,-44 61,-40 63,-36 66,-33 72,-28 73,-25 71,-23 74,-18 74,-15 71,-10 74,-5 h 68 v -21 l -68,5 -74,5 -71,11 -74,15 -79,18 -71,22 -74,26 -71,28 -66,33 -69,36 -61,40 -55,43 -49,49 -48,51 -38,53 -31,58 8,13 -8,-13 -7,13 h 15 z"
   id="path150"
   inkscape:connector-curvature="0"
   style="fill:#000000;stroke:none" />
         <path
   d="m 11502,16151 8,-13 h -15 -23 -33 -41 -46 -53 -61 -66 -69 -76 -76 -82 -83 -84 -87 -89 -86 -87 -84 -83 -82 -76 -76 -69 -66 -59 -53 -46 -40 -31 -23 -15 v 20 h 15 23 31 40 46 53 59 66 69 76 76 82 83 84 87 86 89 87 84 83 82 76 76 69 66 61 53 46 41 33 23 15 l 8,-13 -8,13 h 15 l -7,-13 z"
   id="path152"
   inkscape:connector-curvature="0"
   style="fill:#000000;stroke:none" />
         <path
   d="m 10882,14508 -2,-8 -8,-2 -8,2 -2,8 z"
   id="path154"
   inkscape:connector-curvature="0"
   style="fill:#000000;stroke:none" />
         <path
   d="m 10890,14722 v -49 l -5,-58 -5,-59 2,-48 h -20 l 2,48 5,59 v 58 49 z"
   id="path156"
   inkscape:connector-curvature="0"
   style="fill:#000000;stroke:none" />
         <path
   d="m 10869,14722 3,7 8,3 7,-3 3,-7 z"
   id="path158"
   inkscape:connector-curvature="0"
   style="fill:#000000;stroke:none" />
        </g>
       </g>
      </g>
     </g>
    </g>
   </g>
  </g>
 </g>
</svg>