<?xml version="1.0" encoding="UTF-8" standalone="no"?>
<svg
   xmlns:ooo="http://xml.openoffice.org/svg/export"
   xmlns:dc="http://purl.org/dc/elements/1.1/"
   xmlns:cc="http://creativecommons.org/ns#"
   xmlns:rdf="http://www.w3.org/1999/02/22-rdf-syntax-ns#"
   xmlns:svg="http://www.w3.org/2000/svg"
   xmlns="http://www.w3.org/2000/svg"
   xmlns:sodipodi="http://sodipodi.sourceforge.net/DTD/sodipodi-0.dtd"
   xmlns:inkscape="http://www.inkscape.org/namespaces/inkscape"
   version="1.2"
   width="13.84mm"
   height="13.46mm"
   viewBox="0 0 1384 1346"
   preserveAspectRatio="xMidYMid"
   xml:space="preserve"
   id="svg160"
   sodipodi:docname="swirl.svg"
   style="fill-rule:evenodd;stroke-width:28.22200012;stroke-linejoin:round"
   inkscape:version="0.92.5 (2060ec1f9f, 2020-04-08)"><metadata
   id="metadata164"><rdf:RDF><cc:Work
       rdf:about=""><dc:format>image/svg+xml</dc:format><dc:type
         rdf:resource="http://purl.org/dc/dcmitype/StillImage" /></cc:Work></rdf:RDF></metadata><sodipodi:namedview
   pagecolor="#ffffff"
   bordercolor="#666666"
   borderopacity="1"
   objecttolerance="10"
   gridtolerance="10"
   guidetolerance="10"
   inkscape:pageopacity="0"
   inkscape:pageshadow="2"
   inkscape:window-width="664"
   inkscape:window-height="487"
   id="namedview162"
   showgrid="false"
   inkscape:zoom="0.2102413"
   inkscape:cx="26.154332"
   inkscape:cy="25.436219"
   inkscape:window-x="0"
   inkscape:window-y="0"
   inkscape:window-maximized="0"
   inkscape:current-layer="svg160" />
 <defs
   class="ClipPathGroup"
   id="defs8">
  <clipPath
   id="presentation_clip_path"
   clipPathUnits="userSpaceOnUse">
   <rect
   x="0"
   y="0"
   width="21000"
   height="29700"
   id="rect2" />
  </clipPath>
  <clipPath
   id="presentation_clip_path_shrink"
   clipPathUnits="userSpaceOnUse">
   <rect
   x="21"
   y="29"
   width="20958"
   height="29641"
   id="rect5" />
  </clipPath>
 </defs>
 <defs
   class="TextShapeIndex"
   id="defs12">
  <g
   ooo:slide="id1"
   ooo:id-list="id3"
   id="g10" />
 </defs>
 <defs
   class="EmbeddedBulletChars"
   id="defs44">
  <g
   id="bullet-char-template-57356"
   transform="matrix(4.8828125e-4,0,0,-4.8828125e-4,0,0)">
   <path
   d="M 580,1141 1163,571 580,0 -4,571 Z"
   id="path14"
   inkscape:connector-curvature="0" />
  </g>
  <g
   id="bullet-char-template-57354"
   transform="matrix(4.8828125e-4,0,0,-4.8828125e-4,0,0)">
   <path
   d="M 8,1128 H 1137 V 0 H 8 Z"
   id="path17"
   inkscape:connector-curvature="0" />
  </g>
  <g
   id="bullet-char-template-10146"
   transform="matrix(4.8828125e-4,0,0,-4.8828125e-4,0,0)">
   <path
   d="M 174,0 602,739 174,1481 1456,739 Z M 1358,739 309,1346 659,739 Z"
   id="path20"
   inkscape:connector-curvature="0" />
  </g>
  <g
   id="bullet-char-template-10132"
   transform="matrix(4.8828125e-4,0,0,-4.8828125e-4,0,0)">
   <path
   d="M 2015,739 1276,0 H 717 l 543,543 H 174 v 393 h 1086 l -543,545 h 557 z"
   id="path23"
   inkscape:connector-curvature="0" />
  </g>
  <g
   id="bullet-char-template-10007"
   transform="matrix(4.8828125e-4,0,0,-4.8828125e-4,0,0)">
   <path
   d="m 0,-2 c -7,16 -16,29 -25,39 l 381,530 c -94,256 -141,385 -141,387 0,25 13,38 40,38 9,0 21,-2 34,-5 21,4 42,12 65,25 l 27,-13 111,-251 280,301 64,-25 24,25 c 21,-10 41,-24 62,-43 C 886,937 835,863 770,784 769,783 710,716 594,584 L 774,223 c 0,-27 -21,-55 -63,-84 l 16,-20 C 717,90 699,76 672,76 641,76 570,178 457,381 L 164,-76 c -22,-34 -53,-51 -92,-51 -42,0 -63,17 -64,51 -7,9 -10,24 -10,44 0,9 1,19 2,30 z"
   id="path26"
   inkscape:connector-curvature="0" />
  </g>
  <g
   id="bullet-char-template-10004"
   transform="matrix(4.8828125e-4,0,0,-4.8828125e-4,0,0)">
   <path
   d="M 285,-33 C 182,-33 111,30 74,156 52,228 41,333 41,471 c 0,78 14,145 41,201 34,71 87,106 158,106 53,0 88,-31 106,-94 l 23,-176 c 8,-64 28,-97 59,-98 l 735,706 c 11,11 33,17 66,17 42,0 63,-15 63,-46 V 965 c 0,-36 -10,-64 -30,-84 L 442,47 C 390,-6 338,-33 285,-33 Z"
   id="path29"
   inkscape:connector-curvature="0" />
  </g>
  <g
   id="bullet-char-template-9679"
   transform="matrix(4.8828125e-4,0,0,-4.8828125e-4,0,0)">
   <path
   d="M 813,0 C 632,0 489,54 383,161 276,268 223,411 223,592 c 0,181 53,324 160,431 106,107 249,161 430,161 179,0 323,-54 432,-161 108,-107 162,-251 162,-431 0,-180 -54,-324 -162,-431 C 1136,54 992,0 813,0 Z"
   id="path32"
   inkscape:connector-curvature="0" />
  </g>
  <g
   id="bullet-char-template-8226"
   transform="matrix(4.8828125e-4,0,0,-4.8828125e-4,0,0)">
   <path
   d="m 346,457 c -73,0 -137,26 -191,78 -54,51 -81,114 -81,188 0,73 27,136 81,188 54,52 118,78 191,78 73,0 134,-26 185,-79 51,-51 77,-114 77,-187 0,-75 -25,-137 -76,-188 -50,-52 -112,-78 -186,-78 z"
   id="path35"
   inkscape:connector-curvature="0" />
  </g>
  <g
   id="bullet-char-template-8211"
   transform="matrix(4.8828125e-4,0,0,-4.8828125e-4,0,0)">
   <path
   d="M -4,459 H 1135 V 606 H -4 Z"
   id="path38"
   inkscape:connector-curvature="0" />
  </g>
  <g
   id="bullet-char-template-61548"
   transform="matrix(4.8828125e-4,0,0,-4.8828125e-4,0,0)">
   <path
   d="m 173,740 c 0,163 58,303 173,419 116,115 255,173 419,173 163,0 302,-58 418,-173 116,-116 174,-256 174,-419 0,-163 -58,-303 -174,-418 C 1067,206 928,148 765,148 601,148 462,206 346,322 231,437 173,577 173,740 Z"
   id="path41"
   inkscape:connector-curvature="0" />
  </g>
 </defs>
 <g
   id="g49"
   transform="translate(-9808,-14177)">
  <g
   id="id2"
   class="Master_Slide">
   <g
   id="bg-id2"
   class="Background" />
   <g
   id="bo-id2"
   class="BackgroundObjects" />
  </g>
 </g>
 <g
   class="SlideGroup"
   id="g158"
   transform="translate(-9808,-14177)">
  <g
   id="g156">
   <g
   id="container-id1">
    <g
   id="id1"
   class="Slide"
   clip-path="url(#presentation_clip_path)">
     <g
   class="Page"
   id="g152">
      <g
   class="Graphic"
   id="g150">
       <g
   id="id3">
        <rect
   class="BoundingBox"
   x="9808"
   y="14177"
   width="1384"
   height="1346"
   id="rect51"
   style="fill:none;stroke:none" />
        <path
   d="m 10548,14785 21,-8 28,-15 28,-23 25,-33 23,-38 13,-46 2,-53 -12,-56 17,43 8,48 -3,46 -7,44 -18,40 -25,36 -34,28 -38,20 h -23 l -12,-10 v -15 z"
   id="path53"
   inkscape:connector-curvature="0"
   style="fill:#000000;stroke:none" />
        <path
   d="m 10579,14836 23,5 30,-2 36,-8 38,-15 41,-23 33,-33 28,-44 18,-56 -8,49 -18,43 -23,41 -30,33 -36,28 -41,18 -40,7 -43,-2 -21,-10 -5,-16 8,-12 z"
   id="path55"
   inkscape:connector-curvature="0"
   style="fill:#000000;stroke:none" />
        <path
   d="m 10495,14757 13,-20 10,-28 5,-38 v -41 l -10,-43 -18,-46 -33,-41 -46,-35 43,22 36,31 28,38 23,38 13,44 2,43 -5,43 -18,41 -18,15 -15,-3 -10,-10 z"
   id="path57"
   inkscape:connector-curvature="0"
   style="fill:#000000;stroke:none" />
        <path
   d="m 10421,14846 -18,-13 -28,-10 -38,-7 -41,-3 -43,5 -46,18 -40,31 -38,43 25,-41 33,-33 36,-28 43,-20 41,-11 h 43 l 43,8 38,20 16,18 -3,16 -13,7 z"
   id="path59"
   inkscape:connector-curvature="0"
   style="fill:#000000;stroke:none" />
        <path
   d="m 10462,14902 -21,5 -27,10 -31,21 -31,28 -25,38 -20,43 -8,49 5,58 -10,-46 -3,-48 5,-43 16,-44 23,-38 28,-30 35,-26 41,-12 h 23 l 10,12 v 16 z"
   id="path61"
   inkscape:connector-curvature="0"
   style="fill:#000000;stroke:none" />
        <path
   d="m 10518,14917 -10,21 -5,28 v 38 l 7,41 13,43 25,41 39,35 50,28 -45,-18 -39,-25 -35,-31 -26,-38 -20,-38 -8,-43 v -41 l 11,-41 15,-17 15,-3 13,10 z"
   id="path63"
   inkscape:connector-curvature="0"
   style="fill:#000000;stroke:none" />
        <path
   d="m 10564,14882 5,23 15,25 23,31 30,28 39,23 43,17 51,5 58,-7 -46,13 -48,5 -46,-5 -43,-13 -41,-21 -33,-25 -25,-36 -15,-38 v -23 l 12,-10 h 13 z"
   id="path65"
   inkscape:connector-curvature="0"
   style="fill:#000000;stroke:none" />
        <path
   d="m 10444,14795 v -23 l -8,-28 -17,-35 -23,-33 -31,-33 -41,-26 -48,-18 -58,-2 48,-3 46,5 43,13 41,23 33,28 28,33 18,38 7,43 -5,23 -13,8 -15,-3 z"
   id="path67"
   inkscape:connector-curvature="0"
   style="fill:#000000;stroke:none" />
        <path
   d="m 10162,14620 5,-3 5,-2 2,-5 v -6 -5 l -2,-5 -5,-2 -5,-3 -5,3 -6,2 -2,5 -3,5 3,6 2,5 6,2 z"
   id="path69"
   inkscape:connector-curvature="0"
   style="fill:#000000;stroke:none" />
        <path
   d="m 10047,14648 h 5 l 5,-3 3,-5 2,-5 -2,-5 -3,-5 -5,-3 -5,-2 -5,2 -5,3 -3,5 -2,5 2,5 3,5 5,3 z"
   id="path71"
   inkscape:connector-curvature="0"
   style="fill:#000000;stroke:none" />
        <path
   d="m 9963,14711 h 5 l 5,-2 3,-5 v -5 -8 l -3,-5 -5,-3 h -5 -5 l -5,3 -3,5 -2,8 2,5 3,5 5,2 z"
   id="path73"
   inkscape:connector-curvature="0"
   style="fill:#000000;stroke:none" />
        <path
   d="m 9897,14772 5,-2 5,-3 3,-5 2,-5 -2,-5 -3,-5 -5,-3 h -5 -5 l -5,3 -3,5 -2,5 2,5 3,5 5,3 z"
   id="path75"
   inkscape:connector-curvature="0"
   style="fill:#000000;stroke:none" />
        <path
   d="m 9821,14854 5,-3 5,-2 2,-5 3,-5 -3,-6 -2,-5 -5,-2 -5,-3 -5,3 -5,2 -3,5 v 6 5 l 3,5 5,2 z"
   id="path77"
   inkscape:connector-curvature="0"
   style="fill:#000000;stroke:none" />
        <path
   d="m 10101,14989 5,-3 5,-2 2,-6 3,-5 -3,-5 -2,-5 -5,-2 h -5 -6 l -5,2 -2,5 -3,5 3,5 2,6 5,2 z"
   id="path79"
   inkscape:connector-curvature="0"
   style="fill:#000000;stroke:none" />
        <path
   d="m 10062,15090 h 6 l 5,-2 2,-5 v -5 -8 l -2,-5 -5,-3 h -6 -5 l -5,3 -2,5 -3,8 3,5 2,5 5,2 z"
   id="path81"
   inkscape:connector-curvature="0"
   style="fill:#000000;stroke:none" />
        <path
   d="m 10055,15192 h 7 l 6,-2 2,-5 v -5 -6 l -2,-5 -6,-2 -7,-3 -5,3 -5,2 -3,5 v 6 5 l 3,5 5,2 z"
   id="path83"
   inkscape:connector-curvature="0"
   style="fill:#000000;stroke:none" />
        <path
   d="m 10068,15291 h 5 l 5,-2 2,-5 3,-5 -3,-8 -2,-5 -5,-3 h -5 -6 l -5,3 -2,5 -3,8 3,5 2,5 5,2 z"
   id="path85"
   inkscape:connector-curvature="0"
   style="fill:#000000;stroke:none" />
        <path
   d="m 10095,15393 h 6 l 5,-2 2,-5 v -5 -6 l -2,-5 -5,-2 -6,-3 -5,3 -5,2 -2,5 -3,6 3,5 2,5 5,2 z"
   id="path87"
   inkscape:connector-curvature="0"
   style="fill:#000000;stroke:none" />
        <path
   d="m 10330,15230 2,-5 3,-5 -3,-5 -2,-5 -6,-3 -5,-2 -5,2 -5,3 -2,5 v 5 5 l 2,5 5,3 h 5 5 z"
   id="path89"
   inkscape:connector-curvature="0"
   style="fill:#000000;stroke:none" />
        <path
   d="m 10375,15330 3,-5 2,-6 -2,-5 -3,-5 -5,-2 -5,-3 -5,3 -5,2 -3,5 v 5 6 l 3,5 5,2 h 5 5 z"
   id="path91"
   inkscape:connector-curvature="0"
   style="fill:#000000;stroke:none" />
        <path
   d="m 10444,15403 3,-5 2,-5 -2,-5 -3,-5 -5,-2 h -5 -5 l -5,5 -3,5 v 5 5 l 3,5 5,3 h 5 5 z"
   id="path93"
   inkscape:connector-curvature="0"
   style="fill:#000000;stroke:none" />
        <path
   d="m 10523,15464 5,-5 v -5 l -3,-5 -2,-5 -5,-2 -5,-3 -5,3 -5,2 -3,5 v 5 5 l 3,5 5,6 h 5 l 5,-3 z"
   id="path95"
   inkscape:connector-curvature="0"
   style="fill:#000000;stroke:none" />
        <path
   d="m 10617,15518 3,-5 v -5 -5 l -6,-5 -5,-6 h -5 -5 l -5,6 -2,5 v 5 5 l 5,5 5,2 h 5 5 z"
   id="path97"
   inkscape:connector-curvature="0"
   style="fill:#000000;stroke:none" />
        <path
   d="m 10732,15215 -3,-5 -5,-5 -5,-3 h -5 l -5,3 -5,5 -3,5 v 5 l 3,5 5,3 5,2 h 5 l 5,-2 5,-3 3,-5 z"
   id="path99"
   inkscape:connector-curvature="0"
   style="fill:#000000;stroke:none" />
        <path
   d="m 10838,15233 -2,-5 -5,-5 -5,-3 h -5 l -6,3 -2,5 -3,5 v 5 l 3,5 2,3 6,2 h 5 l 7,-2 3,-3 2,-5 z"
   id="path101"
   inkscape:connector-curvature="0"
   style="fill:#000000;stroke:none" />
        <path
   d="m 10940,15218 -2,-5 -5,-6 h -6 -5 l -5,3 -2,3 -3,5 v 5 l 3,7 2,3 5,2 h 5 l 6,-2 5,-5 2,-5 z"
   id="path103"
   inkscape:connector-curvature="0"
   style="fill:#000000;stroke:none" />
        <path
   d="m 11034,15187 -2,-5 -5,-5 h -5 -6 l -5,3 -2,2 -3,5 v 5 l 3,5 2,5 5,3 h 8 l 5,-3 5,-5 v -5 z"
   id="path105"
   inkscape:connector-curvature="0"
   style="fill:#000000;stroke:none" />
        <path
   d="m 11128,15141 -2,-5 -3,-5 -5,-2 h -5 l -5,2 -5,5 -3,5 v 5 l 3,6 5,2 5,3 h 5 l 5,-3 5,-2 v -6 z"
   id="path107"
   inkscape:connector-curvature="0"
   style="fill:#000000;stroke:none" />
        <path
   d="m 10912,14981 -5,-3 h -5 -5 l -5,6 -3,5 v 5 5 l 5,5 5,2 h 6 l 5,-2 5,-3 2,-5 v -5 -5 z"
   id="path109"
   inkscape:connector-curvature="0"
   style="fill:#000000;stroke:none" />
        <path
   d="m 11009,14933 -5,-3 -5,-2 -5,2 -6,3 -2,5 v 2 5 l 5,6 5,2 h 5 5 l 5,-2 3,-6 v -5 -2 z"
   id="path111"
   inkscape:connector-curvature="0"
   style="fill:#000000;stroke:none" />
        <path
   d="m 11080,14859 -5,-3 h -5 -5 l -5,5 -3,6 v 5 l 3,5 2,5 5,2 h 5 6 l 5,-5 2,-5 v -5 -5 z"
   id="path113"
   inkscape:connector-curvature="0"
   style="fill:#000000;stroke:none" />
        <path
   d="m 11139,14777 -6,-2 -5,-3 -5,3 -5,2 -5,6 v 5 l 3,5 2,5 5,2 h 5 5 l 6,-2 2,-5 3,-5 -3,-5 z"
   id="path115"
   inkscape:connector-curvature="0"
   style="fill:#000000;stroke:none" />
        <path
   d="m 11184,14683 -5,-2 -5,-3 -5,3 -5,2 -3,5 v 6 5 l 6,5 5,2 h 5 5 l 5,-2 2,-5 v -5 l -2,-6 z"
   id="path117"
   inkscape:connector-curvature="0"
   style="fill:#000000;stroke:none" />
        <path
   d="m 10828,14571 -5,3 -2,5 -3,8 v 5 l 3,5 5,2 h 7 5 l 5,-2 3,-5 v -5 -5 l -3,-6 -5,-5 h -5 z"
   id="path119"
   inkscape:connector-curvature="0"
   style="fill:#000000;stroke:none" />
        <path
   d="m 10833,14462 -5,3 -2,5 -3,7 v 5 l 3,5 5,3 h 5 5 l 5,-3 5,-5 v -5 -5 l -2,-5 -6,-5 h -5 z"
   id="path121"
   inkscape:connector-curvature="0"
   style="fill:#000000;stroke:none" />
        <path
   d="m 10805,14365 -5,3 -2,5 v 5 5 l 2,5 5,3 h 5 5 l 6,-3 2,-5 v -5 -5 l -2,-5 -6,-3 h -5 z"
   id="path123"
   inkscape:connector-curvature="0"
   style="fill:#000000;stroke:none" />
        <path
   d="m 10762,14274 -5,2 -3,5 v 5 5 l 3,6 5,2 5,3 h 5 l 5,-3 3,-5 v -5 -5 l -3,-5 -5,-5 h -5 z"
   id="path125"
   inkscape:connector-curvature="0"
   style="fill:#000000;stroke:none" />
        <path
   d="m 10704,14187 -6,3 -2,5 v 5 5 l 2,5 6,3 h 5 5 l 5,-3 2,-5 v -5 -5 l -2,-5 -5,-3 h -5 z"
   id="path127"
   inkscape:connector-curvature="0"
   style="fill:#000000;stroke:none" />
        <path
   d="m 10622,14434 -2,5 2,5 v 5 l 5,5 5,3 h 5 5 l 3,-5 3,-5 v -5 -5 l -6,-6 -5,-2 h -5 l -5,2 z"
   id="path129"
   inkscape:connector-curvature="0"
   style="fill:#000000;stroke:none" />
        <path
   d="m 10566,14342 -2,5 v 6 5 l 5,5 5,2 h 5 l 5,-2 5,-3 3,-5 v -5 l -3,-5 -2,-5 -6,-3 h -5 -5 z"
   id="path131"
   inkscape:connector-curvature="0"
   style="fill:#000000;stroke:none" />
        <path
   d="m 10487,14274 -2,5 v 7 l 2,5 3,3 5,3 h 8 5 l 2,-6 3,-5 v -5 -5 l -5,-5 -5,-2 h -6 l -5,2 z"
   id="path133"
   inkscape:connector-curvature="0"
   style="fill:#000000;stroke:none" />
        <path
   d="m 10403,14225 -2,5 v 6 5 l 5,5 5,2 5,-2 h 5 l 5,-5 3,-5 v -6 l -3,-5 -2,-2 -5,-3 h -5 -6 z"
   id="path135"
   inkscape:connector-curvature="0"
   style="fill:#000000;stroke:none" />
        <path
   d="m 10304,14185 -2,5 v 5 l 2,5 3,5 5,3 h 5 l 5,-3 5,-3 3,-5 v -7 -5 l -6,-3 -5,-2 h -5 -5 z"
   id="path137"
   inkscape:connector-curvature="0"
   style="fill:#000000;stroke:none" />
        <path
   d="m 10347,14442 v 5 l 5,5 3,2 h 8 5 l 5,-2 2,-5 v -5 -5 l -2,-6 -5,-2 -5,-3 -8,3 -3,2 -5,6 z"
   id="path139"
   inkscape:connector-curvature="0"
   style="fill:#000000;stroke:none" />
        <path
   d="m 10246,14403 v 6 l 2,5 5,2 h 5 8 l 5,-2 3,-5 v -6 l -3,-7 -3,-5 -5,-3 h -5 -5 l -5,3 -2,5 z"
   id="path141"
   inkscape:connector-curvature="0"
   style="fill:#000000;stroke:none" />
        <path
   d="m 10144,14396 v 5 l 2,5 5,3 6,2 5,-2 5,-3 2,-5 3,-5 -3,-5 -2,-5 -5,-3 h -5 -6 l -5,3 -2,5 z"
   id="path143"
   inkscape:connector-curvature="0"
   style="fill:#000000;stroke:none" />
        <path
   d="m 10045,14409 v 5 l 2,5 5,2 5,3 5,-3 6,-2 2,-5 3,-5 -3,-6 -2,-5 -6,-2 -5,-3 -5,3 -5,2 -2,5 z"
   id="path145"
   inkscape:connector-curvature="0"
   style="fill:#000000;stroke:none" />
        <path
   d="m 9943,14437 v 5 l 2,5 5,2 h 6 5 l 5,-2 2,-5 3,-5 -3,-6 -2,-5 -5,-2 -5,-3 -6,3 -5,2 -2,5 z"
   id="path147"
   inkscape:connector-curvature="0"
   style="fill:#000000;stroke:none" />
       </g>
      </g>
     </g>
    </g>
   </g>
  </g>
 </g>
</svg>