<?xml version="1.0" encoding="UTF-8" standalone="no"?>
<svg
   xmlns:ooo="http://xml.openoffice.org/svg/export"
   xmlns:dc="http://purl.org/dc/elements/1.1/"
   xmlns:cc="http://creativecommons.org/ns#"
   xmlns:rdf="http://www.w3.org/1999/02/22-rdf-syntax-ns#"
   xmlns:svg="http://www.w3.org/2000/svg"
   xmlns="http://www.w3.org/2000/svg"
   xmlns:sodipodi="http://sodipodi.sourceforge.net/DTD/sodipodi-0.dtd"
   xmlns:inkscape="http://www.inkscape.org/namespaces/inkscape"
   version="1.2"
   width="36.98mm"
   height="30.379999mm"
   viewBox="0 0 3698 3037.9999"
   preserveAspectRatio="xMidYMid"
   xml:space="preserve"
   id="svg131"
   sodipodi:docname="tbltpncl.svg"
   style="fill-rule:evenodd;stroke-width:28.22200012;stroke-linejoin:round"
   inkscape:version="0.92.5 (2060ec1f9f, 2020-04-08)"><metadata
   id="metadata135"><rdf:RDF><cc:Work
       rdf:about=""><dc:format>image/svg+xml</dc:format><dc:type
         rdf:resource="http://purl.org/dc/dcmitype/StillImage" /></cc:Work></rdf:RDF></metadata><sodipodi:namedview
   pagecolor="#ffffff"
   bordercolor="#666666"
   borderopacity="1"
   objecttolerance="10"
   gridtolerance="10"
   guidetolerance="10"
   inkscape:pageopacity="0"
   inkscape:pageshadow="2"
   inkscape:window-width="664"
   inkscape:window-height="487"
   id="namedview133"
   showgrid="false"
   inkscape:zoom="0.2102413"
   inkscape:cx="69.883465"
   inkscape:cy="57.411022"
   inkscape:window-x="0"
   inkscape:window-y="0"
   inkscape:window-maximized="0"
   inkscape:current-layer="svg131" />
 <defs
   class="ClipPathGroup"
   id="defs8">
  <clipPath
   id="presentation_clip_path"
   clipPathUnits="userSpaceOnUse">
   <rect
   x="0"
   y="0"
   width="21000"
   height="29700"
   id="rect2" />
  </clipPath>
  <clipPath
   id="presentation_clip_path_shrink"
   clipPathUnits="userSpaceOnUse">
   <rect
   x="21"
   y="29"
   width="20958"
   height="29641"
   id="rect5" />
  </clipPath>
 </defs>
 <defs
   class="TextShapeIndex"
   id="defs12">
  <g
   ooo:slide="id1"
   ooo:id-list="id3"
   id="g10" />
 </defs>
 <defs
   class="EmbeddedBulletChars"
   id="defs44">
  <g
   id="bullet-char-template-57356"
   transform="matrix(4.8828125e-4,0,0,-4.8828125e-4,0,0)">
   <path
   d="M 580,1141 1163,571 580,0 -4,571 Z"
   id="path14"
   inkscape:connector-curvature="0" />
  </g>
  <g
   id="bullet-char-template-57354"
   transform="matrix(4.8828125e-4,0,0,-4.8828125e-4,0,0)">
   <path
   d="M 8,1128 H 1137 V 0 H 8 Z"
   id="path17"
   inkscape:connector-curvature="0" />
  </g>
  <g
   id="bullet-char-template-10146"
   transform="matrix(4.8828125e-4,0,0,-4.8828125e-4,0,0)">
   <path
   d="M 174,0 602,739 174,1481 1456,739 Z M 1358,739 309,1346 659,739 Z"
   id="path20"
   inkscape:connector-curvature="0" />
  </g>
  <g
   id="bullet-char-template-10132"
   transform="matrix(4.8828125e-4,0,0,-4.8828125e-4,0,0)">
   <path
   d="M 2015,739 1276,0 H 717 l 543,543 H 174 v 393 h 1086 l -543,545 h 557 z"
   id="path23"
   inkscape:connector-curvature="0" />
  </g>
  <g
   id="bullet-char-template-10007"
   transform="matrix(4.8828125e-4,0,0,-4.8828125e-4,0,0)">
   <path
   d="m 0,-2 c -7,16 -16,29 -25,39 l 381,530 c -94,256 -141,385 -141,387 0,25 13,38 40,38 9,0 21,-2 34,-5 21,4 42,12 65,25 l 27,-13 111,-251 280,301 64,-25 24,25 c 21,-10 41,-24 62,-43 C 886,937 835,863 770,784 769,783 710,716 594,584 L 774,223 c 0,-27 -21,-55 -63,-84 l 16,-20 C 717,90 699,76 672,76 641,76 570,178 457,381 L 164,-76 c -22,-34 -53,-51 -92,-51 -42,0 -63,17 -64,51 -7,9 -10,24 -10,44 0,9 1,19 2,30 z"
   id="path26"
   inkscape:connector-curvature="0" />
  </g>
  <g
   id="bullet-char-template-10004"
   transform="matrix(4.8828125e-4,0,0,-4.8828125e-4,0,0)">
   <path
   d="M 285,-33 C 182,-33 111,30 74,156 52,228 41,333 41,471 c 0,78 14,145 41,201 34,71 87,106 158,106 53,0 88,-31 106,-94 l 23,-176 c 8,-64 28,-97 59,-98 l 735,706 c 11,11 33,17 66,17 42,0 63,-15 63,-46 V 965 c 0,-36 -10,-64 -30,-84 L 442,47 C 390,-6 338,-33 285,-33 Z"
   id="path29"
   inkscape:connector-curvature="0" />
  </g>
  <g
   id="bullet-char-template-9679"
   transform="matrix(4.8828125e-4,0,0,-4.8828125e-4,0,0)">
   <path
   d="M 813,0 C 632,0 489,54 383,161 276,268 223,411 223,592 c 0,181 53,324 160,431 106,107 249,161 430,161 179,0 323,-54 432,-161 108,-107 162,-251 162,-431 0,-180 -54,-324 -162,-431 C 1136,54 992,0 813,0 Z"
   id="path32"
   inkscape:connector-curvature="0" />
  </g>
  <g
   id="bullet-char-template-8226"
   transform="matrix(4.8828125e-4,0,0,-4.8828125e-4,0,0)">
   <path
   d="m 346,457 c -73,0 -137,26 -191,78 -54,51 -81,114 -81,188 0,73 27,136 81,188 54,52 118,78 191,78 73,0 134,-26 185,-79 51,-51 77,-114 77,-187 0,-75 -25,-137 -76,-188 -50,-52 -112,-78 -186,-78 z"
   id="path35"
   inkscape:connector-curvature="0" />
  </g>
  <g
   id="bullet-char-template-8211"
   transform="matrix(4.8828125e-4,0,0,-4.8828125e-4,0,0)">
   <path
   d="M -4,459 H 1135 V 606 H -4 Z"
   id="path38"
   inkscape:connector-curvature="0" />
  </g>
  <g
   id="bullet-char-template-61548"
   transform="matrix(4.8828125e-4,0,0,-4.8828125e-4,0,0)">
   <path
   d="m 173,740 c 0,163 58,303 173,419 116,115 255,173 419,173 163,0 302,-58 418,-173 116,-116 174,-256 174,-419 0,-163 -58,-303 -174,-418 C 1067,206 928,148 765,148 601,148 462,206 346,322 231,437 173,577 173,740 Z"
   id="path41"
   inkscape:connector-curvature="0" />
  </g>
 </defs>
 <g
   id="g49"
   transform="translate(-8651,-13331)">
  <g
   id="id2"
   class="Master_Slide">
   <g
   id="bg-id2"
   class="Background" />
   <g
   id="bo-id2"
   class="BackgroundObjects" />
  </g>
 </g>
 <g
   class="SlideGroup"
   id="g129"
   transform="translate(-8651,-13331)">
  <g
   id="g127">
   <g
   id="container-id1">
    <g
   id="id1"
   class="Slide"
   clip-path="url(#presentation_clip_path)">
     <g
   class="Page"
   id="g123">
      <g
   class="Graphic"
   id="g121">
       <g
   id="id3">
        <rect
   class="BoundingBox"
   x="8651"
   y="13331"
   width="3698"
   height="3038"
   id="rect51"
   style="fill:none;stroke:none" />
        <defs
   id="defs56">
         <clipPath
   id="clip_path_1"
   clipPathUnits="userSpaceOnUse">
          <path
   d="m 8651,13331 h 3697 v 3037 H 8651 Z"
   id="path53"
   inkscape:connector-curvature="0" />
         </clipPath>
        </defs>
        <g
   clip-path="url(#clip_path_1)"
   id="g118">
         <path
   d="M 10987,16369 V 13623 H 8666 v 2746 z"
   id="path58"
   inkscape:connector-curvature="0"
   style="fill:#fff499;stroke:none" />
         <path
   d="m 10987,13639 -16,-16 v 2746 h 31 v -2746 l -15,-15 15,15 v -15 h -15 z"
   id="path60"
   inkscape:connector-curvature="0"
   style="fill:#00e5e5;stroke:none" />
         <path
   d="m 8681,13623 -15,16 h 2321 v -31 H 8666 l -15,15 15,-15 h -15 v 15 z"
   id="path62"
   inkscape:connector-curvature="0"
   style="fill:#00e5e5;stroke:none" />
         <path
   d="m 8666,16354 15,15 v -2746 h -30 v 2746 l 15,15 -15,-15 v 15 h 15 z"
   id="path64"
   inkscape:connector-curvature="0"
   style="fill:#00e5e5;stroke:none" />
         <path
   d="m 10971,16369 16,-15 H 8666 v 30 h 2321 l 15,-15 -15,15 h 15 v -15 z"
   id="path66"
   inkscape:connector-curvature="0"
   style="fill:#00e5e5;stroke:none" />
         <path
   d="m 11002,13547 v -216 H 8651 v 216 z"
   id="path68"
   inkscape:connector-curvature="0"
   style="fill:#330000;stroke:none" />
         <path
   d="m 8666,13908 h 2321 v -30 H 8666 Z"
   id="path70"
   inkscape:connector-curvature="0"
   style="fill:#54efef;stroke:none" />
         <path
   d="m 8666,14178 h 2321 v -31 H 8666 Z"
   id="path72"
   inkscape:connector-curvature="0"
   style="fill:#54efef;stroke:none" />
         <path
   d="m 8666,14462 h 2321 v -30 H 8666 Z"
   id="path74"
   inkscape:connector-curvature="0"
   style="fill:#54efef;stroke:none" />
         <path
   d="m 8666,14747 h 2321 v -30 H 8666 Z"
   id="path76"
   inkscape:connector-curvature="0"
   style="fill:#54efef;stroke:none" />
         <path
   d="m 8666,15024 h 2321 v -30 H 8666 Z"
   id="path78"
   inkscape:connector-curvature="0"
   style="fill:#54efef;stroke:none" />
         <path
   d="m 8674,15291 h 2320 v -30 H 8674 Z"
   id="path80"
   inkscape:connector-curvature="0"
   style="fill:#54efef;stroke:none" />
         <path
   d="m 8666,15583 h 2321 v -30 H 8666 Z"
   id="path82"
   inkscape:connector-curvature="0"
   style="fill:#54efef;stroke:none" />
         <path
   d="m 8666,15845 h 2321 v -30 H 8666 Z"
   id="path84"
   inkscape:connector-curvature="0"
   style="fill:#54efef;stroke:none" />
         <path
   d="m 8666,16122 h 2321 v -30 H 8666 Z"
   id="path86"
   inkscape:connector-curvature="0"
   style="fill:#54efef;stroke:none" />
         <path
   d="m 10402,16049 36,-8 35,-10 33,-8 31,-7 28,-8 25,-8 26,-5 23,-7 30,-23 31,-23 33,-23 30,-23 28,-20 25,-21 21,-15 15,-10 -18,-25 -28,-44 -33,-53 -38,-56 -38,-58 -33,-51 -28,-41 -15,-25 -28,23 -31,22 -35,28 -33,26 -33,25 -28,21 -23,17 -15,13 -18,33 -16,31 -15,30 -12,28 -16,28 -12,28 -13,25 -15,28 17,28 21,28 20,26 20,28 18,23 15,17 11,11 z"
   id="path88"
   inkscape:connector-curvature="0"
   style="fill:#e0ccc1;stroke:none" />
         <path
   d="m 10402,16049 v 0 l 36,-8 35,-10 33,-8 31,-7 28,-8 25,-8 26,-5 23,-7 v 0 l 30,-23 31,-23 33,-23 30,-23 28,-20 25,-21 21,-15 15,-10 v 0 l -18,-25 -28,-44 -33,-53 -38,-56 -38,-58 -33,-51 -28,-41 -15,-25 v 0 l -28,23 -31,22 -35,28 -33,26 -33,25 -28,21 -23,17 -15,13 v 0 l -18,33 -16,31 -15,30 -12,28 -16,28 -12,28 -13,25 -15,28 v 0 l 17,28 21,28 20,26 20,28 18,23 15,17 11,11 z"
   id="path90"
   inkscape:connector-curvature="0"
   style="fill:none;stroke:#000000" />
         <path
   d="m 10148,16112 18,-30 18,-31 17,-33 21,-33 17,-30 16,-28 12,-26 11,-18 5,6 12,17 21,28 23,31 22,30 21,28 15,21 5,7 -30,8 -38,10 -44,10 -40,10 -38,11 -34,5 -22,5 z"
   id="path92"
   inkscape:connector-curvature="0"
   style="fill:#2d5982;stroke:none" />
         <path
   d="m 10148,16112 v 0 l 18,-30 18,-31 17,-33 21,-33 17,-30 16,-28 12,-26 11,-18 v 0 l 5,6 12,17 21,28 23,31 22,30 21,28 15,21 5,7 v 0 l -30,8 -38,10 -44,10 -40,10 -38,11 -34,5 -22,5 z"
   id="path94"
   inkscape:connector-curvature="0"
   style="fill:none;stroke:#000000" />
         <path
   d="m 10392,15652 18,-15 40,-31 61,-45 77,-59 91,-69 104,-78 112,-87 120,-89 124,-94 125,-96 124,-95 122,-91 115,-89 109,-81 94,-74 84,-64 28,-20 25,-20 23,-16 20,-15 18,-13 13,-10 10,-10 8,-5 20,-3 18,-2 18,2 20,3 15,5 15,5 16,10 12,11 13,15 15,18 16,22 15,21 18,23 15,20 15,20 15,21 18,35 8,41 -8,38 -20,31 -5,5 -10,7 -16,10 -17,16 -23,15 -28,20 -28,23 -33,26 -54,40 -58,46 -64,48 -66,49 -66,51 -68,53 -66,51 -67,48 -63,48 -61,46 -53,41 -49,38 -43,30 -33,26 -23,20 -15,10 -18,16 -30,23 -44,30 -48,36 -56,43 -58,46 -64,45 -61,46 -61,46 -56,43 -53,41 -43,33 -36,25 -23,18 -7,8 5,-5 15,-46 15,-38 13,-36 13,-41 h -26 l -25,3 h -26 -23 -25 -23 l -23,-3 h -20 l 13,-33 15,-43 13,-48 12,-46 h -25 -31 -28 -27 -26 -20 -13 z"
   id="path96"
   inkscape:connector-curvature="0"
   style="fill:#f2b200;stroke:none" />
         <path
   d="m 10392,15652 v 0 l 18,-15 40,-31 61,-45 77,-59 91,-69 104,-78 112,-87 120,-89 124,-94 125,-96 124,-95 122,-91 115,-89 109,-81 94,-74 84,-64 v 0 l 28,-20 25,-20 23,-16 20,-15 18,-13 13,-10 10,-10 8,-5 v 0 l 20,-3 18,-2 18,2 20,3 15,5 15,5 16,10 12,11 v 0 l 13,15 15,18 16,22 15,21 18,23 15,20 15,20 15,21 v 0 l 18,35 8,41 -8,38 -20,31 v 0 l -5,5 -10,7 -16,10 -17,16 -23,15 -28,20 -28,23 -33,26 v 0 l -54,40 -58,46 -64,48 -66,49 -66,51 -68,53 -66,51 -67,48 -63,48 -61,46 -53,41 -49,38 -43,30 -33,26 -23,20 -15,10 v 0 l -18,16 -30,23 -44,30 -48,36 -56,43 -58,46 -64,45 -61,46 -61,46 -56,43 -53,41 -43,33 -36,25 -23,18 -7,8 5,-5 v 0 l 15,-46 15,-38 13,-36 13,-41 v 0 h -26 l -25,3 h -26 -23 -25 -23 l -23,-3 h -20 v 0 l 13,-33 15,-43 13,-48 12,-46 v 0 h -25 -31 -28 -27 -26 -20 -13 z"
   id="path98"
   inkscape:connector-curvature="0"
   style="fill:none;stroke:#000000" />
         <path
   d="m 11912,14495 28,-20 25,-20 23,-16 20,-15 18,-13 13,-10 10,-10 8,-5 20,-3 18,-2 18,2 20,3 15,5 15,5 16,10 12,11 13,15 15,18 16,22 15,21 18,23 15,20 15,20 15,21 18,35 8,41 -8,38 -20,31 -5,5 -10,7 -16,10 -17,16 -23,15 -28,20 -28,23 -33,26 z"
   id="path100"
   inkscape:connector-curvature="0"
   style="fill:#ffb2d1;stroke:none" />
         <path
   d="m 11912,14495 v 0 l 28,-20 25,-20 23,-16 20,-15 18,-13 13,-10 10,-10 8,-5 v 0 l 20,-3 18,-2 18,2 20,3 15,5 15,5 16,10 12,11 v 0 l 13,15 15,18 16,22 15,21 18,23 15,20 15,20 15,21 v 0 l 18,35 8,41 -8,38 -20,31 v 0 l -5,5 -10,7 -16,10 -17,16 -23,15 -28,20 -28,23 -33,26 z"
   id="path102"
   inkscape:connector-curvature="0"
   style="fill:none;stroke:#000000" />
         <path
   d="m 11846,14544 -5,-5 h -8 l -8,7 v 8 z"
   id="path104"
   inkscape:connector-curvature="0"
   style="fill:#000000;stroke:none" />
         <path
   d="m 12082,14907 10,-5 -246,-358 -21,10 247,358 z"
   id="path106"
   inkscape:connector-curvature="0"
   style="fill:#000000;stroke:none" />
         <path
   d="m 12072,14912 5,5 h 10 l 5,-7 v -8 z"
   id="path108"
   inkscape:connector-curvature="0"
   style="fill:#000000;stroke:none" />
         <path
   d="m 11917,14480 -5,-5 h -8 l -7,8 v 7 z"
   id="path110"
   inkscape:connector-curvature="0"
   style="fill:#000000;stroke:none" />
         <path
   d="m 12153,14846 10,-5 -246,-361 -20,10 246,361 z"
   id="path112"
   inkscape:connector-curvature="0"
   style="fill:#000000;stroke:none" />
         <path
   d="m 12143,14851 5,5 h 10 l 5,-7 v -8 z"
   id="path114"
   inkscape:connector-curvature="0"
   style="fill:#000000;stroke:none" />
         <path
   d="m 9091,14633 20,-46 23,-41 28,-38 30,-36 31,-33 35,-30 36,-28 41,-25 38,-23 43,-23 41,-21 43,-17 43,-18 46,-18 43,-15 43,-15 46,-11 41,-7 h 35 33 l 28,10 23,15 20,21 16,30 -3,-8 8,82 -8,73 -23,67 -38,61 -48,58 -56,53 -64,56 -66,54 -33,28 -33,25 -35,28 -31,28 -33,28 -30,31 -28,30 -28,33 2,-2 -15,20 -8,20 v 26 l 8,25 13,20 15,18 20,10 21,5 -8,-2 43,8 43,5 h 46 43 44 l 43,-3 43,-2 43,-3 28,-3 28,-2 28,-3 28,-2 h 25 l 28,-3 h 26 l 28,3 25,2 26,3 22,2 26,8 23,8 23,7 23,11 20,12 -18,-38 -5,28 -10,28 -13,25 -15,26 -18,23 -18,23 -20,25 -20,23 -31,33 -30,36 -26,38 -23,38 -15,46 -8,45 3,54 13,56 7,28 h 31 51 l -38,-41 v 107 l 2,-18 -13,23 -12,20 -16,18 -15,20 -18,23 -15,23 -15,25 -10,26 -8,28 -2,28 7,33 13,33 2,5 6,5 12,10 15,8 16,5 h 15 l 18,3 20,-3 18,-3 18,-2 15,-3 h 13 l 12,-2 h 13 v -82 h -15 l -15,3 -18,3 -16,2 -17,3 -21,2 h -17 l -13,-2 v 0 0 2 h 2 l 8,10 -10,-33 5,-30 18,-31 28,-38 15,-20 18,-26 15,-23 15,-27 5,-8 v -10 -107 -38 h -40 -51 l 35,25 -10,-40 v -39 l 5,-33 13,-33 18,-30 23,-31 25,-30 28,-31 23,-25 23,-26 20,-27 20,-31 18,-31 18,-33 10,-33 8,-38 2,-25 -20,-13 -25,-15 -28,-13 -26,-10 -28,-8 -28,-7 -28,-5 -30,-3 -28,-2 -28,-3 h -31 -30 l -28,3 h -30 l -31,2 -28,3 -30,2 -41,3 -41,2 -43,3 -41,2 h -40 l -41,-2 -38,-3 -41,-5 -2,-2 h -5 2 3 l 2,2 v 0 l -2,-2 v -5 l -3,-3 v -5 0 0 2 0 -2 h 3 l 25,-31 28,-28 28,-27 31,-28 30,-28 33,-28 31,-26 33,-25 71,-56 66,-59 63,-63 54,-66 43,-71 28,-82 10,-86 -10,-99 v -3 l -3,-2 -30,-54 -38,-38 -43,-23 -49,-10 -48,-3 -46,5 -45,8 -39,10 -48,16 -46,17 -48,18 -48,20 -46,21 -46,23 -45,23 -44,28 -40,27 -41,31 -36,36 -35,35 -33,41 -31,43 -25,46 -23,51 z"
   id="path116"
   inkscape:connector-curvature="0"
   style="fill:#2d5982;stroke:none" />
        </g>
       </g>
      </g>
     </g>
    </g>
   </g>
  </g>
 </g>
</svg>