<?xml version="1.0" encoding="UTF-8" standalone="no"?>
<svg
   xmlns:ooo="http://xml.openoffice.org/svg/export"
   xmlns:dc="http://purl.org/dc/elements/1.1/"
   xmlns:cc="http://creativecommons.org/ns#"
   xmlns:rdf="http://www.w3.org/1999/02/22-rdf-syntax-ns#"
   xmlns:svg="http://www.w3.org/2000/svg"
   xmlns="http://www.w3.org/2000/svg"
   xmlns:sodipodi="http://sodipodi.sourceforge.net/DTD/sodipodi-0.dtd"
   xmlns:inkscape="http://www.inkscape.org/namespaces/inkscape"
   version="1.2"
   width="71.699997mm"
   height="46.630001mm"
   viewBox="0 0 7169.9997 4663.0001"
   preserveAspectRatio="xMidYMid"
   xml:space="preserve"
   id="svg477"
   sodipodi:docname="train1.svg"
   style="fill-rule:evenodd;stroke-width:28.22200012;stroke-linejoin:round"
   inkscape:version="0.92.5 (2060ec1f9f, 2020-04-08)"><metadata
   id="metadata481"><rdf:RDF><cc:Work
       rdf:about=""><dc:format>image/svg+xml</dc:format><dc:type
         rdf:resource="http://purl.org/dc/dcmitype/StillImage" /></cc:Work></rdf:RDF></metadata><sodipodi:namedview
   pagecolor="#ffffff"
   bordercolor="#666666"
   borderopacity="1"
   objecttolerance="10"
   gridtolerance="10"
   guidetolerance="10"
   inkscape:pageopacity="0"
   inkscape:pageshadow="2"
   inkscape:window-width="664"
   inkscape:window-height="487"
   id="namedview479"
   showgrid="false"
   inkscape:zoom="0.2102413"
   inkscape:cx="135.49606"
   inkscape:cy="88.100786"
   inkscape:window-x="0"
   inkscape:window-y="0"
   inkscape:window-maximized="0"
   inkscape:current-layer="svg477" />
 <defs
   class="ClipPathGroup"
   id="defs8">
  <clipPath
   id="presentation_clip_path"
   clipPathUnits="userSpaceOnUse">
   <rect
   x="0"
   y="0"
   width="21000"
   height="29700"
   id="rect2" />
  </clipPath>
  <clipPath
   id="presentation_clip_path_shrink"
   clipPathUnits="userSpaceOnUse">
   <rect
   x="21"
   y="29"
   width="20958"
   height="29641"
   id="rect5" />
  </clipPath>
 </defs>
 <defs
   class="TextShapeIndex"
   id="defs12">
  <g
   ooo:slide="id1"
   ooo:id-list="id3"
   id="g10" />
 </defs>
 <defs
   class="EmbeddedBulletChars"
   id="defs44">
  <g
   id="bullet-char-template-57356"
   transform="matrix(4.8828125e-4,0,0,-4.8828125e-4,0,0)">
   <path
   d="M 580,1141 1163,571 580,0 -4,571 Z"
   id="path14"
   inkscape:connector-curvature="0" />
  </g>
  <g
   id="bullet-char-template-57354"
   transform="matrix(4.8828125e-4,0,0,-4.8828125e-4,0,0)">
   <path
   d="M 8,1128 H 1137 V 0 H 8 Z"
   id="path17"
   inkscape:connector-curvature="0" />
  </g>
  <g
   id="bullet-char-template-10146"
   transform="matrix(4.8828125e-4,0,0,-4.8828125e-4,0,0)">
   <path
   d="M 174,0 602,739 174,1481 1456,739 Z M 1358,739 309,1346 659,739 Z"
   id="path20"
   inkscape:connector-curvature="0" />
  </g>
  <g
   id="bullet-char-template-10132"
   transform="matrix(4.8828125e-4,0,0,-4.8828125e-4,0,0)">
   <path
   d="M 2015,739 1276,0 H 717 l 543,543 H 174 v 393 h 1086 l -543,545 h 557 z"
   id="path23"
   inkscape:connector-curvature="0" />
  </g>
  <g
   id="bullet-char-template-10007"
   transform="matrix(4.8828125e-4,0,0,-4.8828125e-4,0,0)">
   <path
   d="m 0,-2 c -7,16 -16,29 -25,39 l 381,530 c -94,256 -141,385 -141,387 0,25 13,38 40,38 9,0 21,-2 34,-5 21,4 42,12 65,25 l 27,-13 111,-251 280,301 64,-25 24,25 c 21,-10 41,-24 62,-43 C 886,937 835,863 770,784 769,783 710,716 594,584 L 774,223 c 0,-27 -21,-55 -63,-84 l 16,-20 C 717,90 699,76 672,76 641,76 570,178 457,381 L 164,-76 c -22,-34 -53,-51 -92,-51 -42,0 -63,17 -64,51 -7,9 -10,24 -10,44 0,9 1,19 2,30 z"
   id="path26"
   inkscape:connector-curvature="0" />
  </g>
  <g
   id="bullet-char-template-10004"
   transform="matrix(4.8828125e-4,0,0,-4.8828125e-4,0,0)">
   <path
   d="M 285,-33 C 182,-33 111,30 74,156 52,228 41,333 41,471 c 0,78 14,145 41,201 34,71 87,106 158,106 53,0 88,-31 106,-94 l 23,-176 c 8,-64 28,-97 59,-98 l 735,706 c 11,11 33,17 66,17 42,0 63,-15 63,-46 V 965 c 0,-36 -10,-64 -30,-84 L 442,47 C 390,-6 338,-33 285,-33 Z"
   id="path29"
   inkscape:connector-curvature="0" />
  </g>
  <g
   id="bullet-char-template-9679"
   transform="matrix(4.8828125e-4,0,0,-4.8828125e-4,0,0)">
   <path
   d="M 813,0 C 632,0 489,54 383,161 276,268 223,411 223,592 c 0,181 53,324 160,431 106,107 249,161 430,161 179,0 323,-54 432,-161 108,-107 162,-251 162,-431 0,-180 -54,-324 -162,-431 C 1136,54 992,0 813,0 Z"
   id="path32"
   inkscape:connector-curvature="0" />
  </g>
  <g
   id="bullet-char-template-8226"
   transform="matrix(4.8828125e-4,0,0,-4.8828125e-4,0,0)">
   <path
   d="m 346,457 c -73,0 -137,26 -191,78 -54,51 -81,114 -81,188 0,73 27,136 81,188 54,52 118,78 191,78 73,0 134,-26 185,-79 51,-51 77,-114 77,-187 0,-75 -25,-137 -76,-188 -50,-52 -112,-78 -186,-78 z"
   id="path35"
   inkscape:connector-curvature="0" />
  </g>
  <g
   id="bullet-char-template-8211"
   transform="matrix(4.8828125e-4,0,0,-4.8828125e-4,0,0)">
   <path
   d="M -4,459 H 1135 V 606 H -4 Z"
   id="path38"
   inkscape:connector-curvature="0" />
  </g>
  <g
   id="bullet-char-template-61548"
   transform="matrix(4.8828125e-4,0,0,-4.8828125e-4,0,0)">
   <path
   d="m 173,740 c 0,163 58,303 173,419 116,115 255,173 419,173 163,0 302,-58 418,-173 116,-116 174,-256 174,-419 0,-163 -58,-303 -174,-418 C 1067,206 928,148 765,148 601,148 462,206 346,322 231,437 173,577 173,740 Z"
   id="path41"
   inkscape:connector-curvature="0" />
  </g>
 </defs>
 <g
   id="g49"
   transform="translate(-6915,-12518)">
  <g
   id="id2"
   class="Master_Slide">
   <g
   id="bg-id2"
   class="Background" />
   <g
   id="bo-id2"
   class="BackgroundObjects" />
  </g>
 </g>
 <g
   class="SlideGroup"
   id="g475"
   transform="translate(-6915,-12518)">
  <g
   id="g473">
   <g
   id="container-id1">
    <g
   id="id1"
   class="Slide"
   clip-path="url(#presentation_clip_path)">
     <g
   class="Page"
   id="g469">
      <g
   class="Graphic"
   id="g467">
       <g
   id="id3">
        <rect
   class="BoundingBox"
   x="6915"
   y="12518"
   width="7170"
   height="4663"
   id="rect51"
   style="fill:none;stroke:none" />
        <defs
   id="defs56">
         <clipPath
   id="clip_path_1"
   clipPathUnits="userSpaceOnUse">
          <path
   d="m 6915,12518 h 7169 v 4662 H 6915 Z"
   id="path53"
   inkscape:connector-curvature="0" />
         </clipPath>
        </defs>
        <g
   clip-path="url(#clip_path_1)"
   id="g464">
         <path
   d="m 12550,14874 v 0 l 5,35 6,38 7,41 5,33 v 31 l -2,17 -8,10 -15,3 v 31 l 30,-8 18,-26 8,-27 -5,-31 -5,-38 -8,-36 -5,-38 v -35 0 z"
   id="path58"
   inkscape:connector-curvature="0"
   style="fill:#000000;stroke:none" />
         <path
   d="m 12578,14714 v 0 l -35,30 -18,23 -8,20 3,15 13,16 7,10 8,18 2,28 h 31 l -8,-33 -7,-23 -13,-16 -8,-10 -2,-5 2,-5 18,-18 31,-30 v 0 z"
   id="path60"
   inkscape:connector-curvature="0"
   style="fill:#000000;stroke:none" />
         <path
   d="m 12782,14566 v 0 l -16,28 -12,18 -21,10 -20,13 -28,10 -30,15 -36,23 -41,31 16,20 40,-31 31,-17 30,-16 28,-10 26,-13 20,-15 23,-23 15,-33 v 0 z"
   id="path62"
   inkscape:connector-curvature="0"
   style="fill:#000000;stroke:none" />
         <path
   d="m 12761,14332 v 0 l 33,79 13,54 -5,45 -20,56 25,10 20,-61 5,-50 -12,-59 -33,-84 v 0 z"
   id="path64"
   inkscape:connector-curvature="0"
   style="fill:#000000;stroke:none" />
         <path
   d="m 12667,14066 v 0 l 13,38 10,30 8,31 10,28 10,25 10,33 15,36 18,45 26,-10 -18,-46 -15,-35 -11,-28 -10,-31 -10,-22 -7,-31 -11,-30 -12,-39 v 0 z"
   id="path66"
   inkscape:connector-curvature="0"
   style="fill:#000000;stroke:none" />
         <path
   d="m 12535,13878 v 0 l 28,43 23,28 18,23 15,12 13,10 10,18 13,21 12,33 26,-6 -13,-38 -13,-25 -15,-18 -13,-15 -15,-13 -18,-18 -23,-28 -22,-38 v 0 z"
   id="path68"
   inkscape:connector-curvature="0"
   style="fill:#000000;stroke:none" />
         <path
   d="m 12195,13410 v 0 l 40,58 46,59 46,63 48,61 46,61 46,59 35,58 33,49 26,-11 -33,-53 -41,-58 -46,-59 -46,-61 -48,-61 -46,-63 -45,-59 -36,-58 v 0 z"
   id="path70"
   inkscape:connector-curvature="0"
   style="fill:#000000;stroke:none" />
         <path
   d="m 11816,13019 v 0 l 43,40 49,43 50,46 54,48 51,51 50,51 46,56 36,56 25,-15 -41,-56 -45,-56 -51,-56 -51,-51 -53,-48 -51,-46 -48,-43 -44,-41 v 0 z"
   id="path72"
   inkscape:connector-curvature="0"
   style="fill:#000000;stroke:none" />
         <path
   d="m 11511,12719 -10,-8 25,31 33,38 39,38 43,38 43,41 46,40 43,41 43,41 20,-21 -43,-40 -43,-41 -46,-41 -43,-40 -43,-38 -38,-39 -33,-33 -26,-30 -10,-8 10,8 -2,-8 h -8 z"
   id="path74"
   inkscape:connector-curvature="0"
   style="fill:#000000;stroke:none" />
         <path
   d="m 10889,12663 v 0 h 30 31 l 33,2 38,3 35,5 41,5 41,5 40,5 41,5 43,5 43,6 41,5 43,2 41,3 41,5 h 40 v -31 h -40 -41 l -41,-2 -43,-3 -41,-5 -43,-5 -43,-5 -41,-5 -40,-5 -41,-5 -41,-5 -35,-5 -38,-3 -33,-3 -31,-5 h -30 v 0 z"
   id="path76"
   inkscape:connector-curvature="0"
   style="fill:#000000;stroke:none" />
         <path
   d="m 10271,12698 v 0 l 31,-7 30,-5 36,-5 41,-5 40,-3 41,-3 43,-2 46,-3 h 43 43 l 43,-2 h 41 38 38 33 31 v -31 h -31 -33 -38 -38 -41 l -43,3 h -43 l -43,5 -46,3 -43,2 -41,3 -40,2 -41,5 -36,5 -35,5 -31,8 v 0 z"
   id="path78"
   inkscape:connector-curvature="0"
   style="fill:#000000;stroke:none" />
         <path
   d="m 10030,12752 v 0 l 25,-15 18,-11 20,-5 23,-2 28,-3 33,-2 41,-5 53,-11 -5,-25 -48,10 -41,5 -33,3 -28,2 -23,3 -25,5 -28,10 -25,20 v 0 z"
   id="path80"
   inkscape:connector-curvature="0"
   style="fill:#000000;stroke:none" />
         <path
   d="m 9466,13222 v 0 l 28,-28 30,-31 36,-35 38,-33 41,-36 43,-35 43,-36 43,-35 43,-36 41,-31 38,-30 38,-28 33,-25 28,-21 23,-18 18,-12 -15,-21 -18,13 -23,18 -28,20 -33,26 -38,28 -38,30 -41,31 -43,35 -43,36 -43,35 -44,36 -40,36 -43,33 -36,35 -30,31 -28,33 v 0 z"
   id="path82"
   inkscape:connector-curvature="0"
   style="fill:#000000;stroke:none" />
         <path
   d="m 8909,13900 v 0 l 26,-33 30,-38 33,-40 36,-46 36,-46 38,-46 40,-48 41,-51 38,-48 41,-46 38,-46 35,-45 36,-41 33,-38 31,-36 25,-30 -20,-15 -26,30 -30,36 -33,38 -36,40 -35,46 -39,46 -40,46 -38,48 -41,51 -41,48 -38,46 -35,46 -36,45 -33,41 -30,38 -26,33 v 0 z"
   id="path84"
   inkscape:connector-curvature="0"
   style="fill:#000000;stroke:none" />
         <path
   d="m 8600,14335 v 0 l 27,-41 31,-43 33,-51 38,-56 41,-56 45,-61 46,-63 48,-64 -20,-15 -48,64 -46,63 -46,61 -40,56 -38,56 -33,51 -31,43 -28,41 v 0 z"
   id="path86"
   inkscape:connector-curvature="0"
   style="fill:#000000;stroke:none" />
         <path
   d="m 8127,15029 v 0 l 25,-36 28,-38 31,-43 33,-46 33,-48 35,-51 31,-51 35,-51 34,-51 33,-48 30,-48 31,-43 27,-41 28,-38 18,-33 21,-28 -21,-15 -20,28 -23,33 -23,38 -28,40 -30,44 -31,48 -33,48 -33,51 -35,51 -36,51 -30,50 -34,49 -33,46 -30,43 -28,38 -25,35 v 0 z"
   id="path88"
   inkscape:connector-curvature="0"
   style="fill:#000000;stroke:none" />
         <path
   d="m 7941,15308 v 3 l 13,-31 13,-28 15,-23 15,-25 21,-31 28,-35 35,-48 46,-61 -20,-16 -46,61 -36,49 -28,35 -20,31 -20,25 -16,28 -12,28 -13,31 v 2 z"
   id="path90"
   inkscape:connector-curvature="0"
   style="fill:#000000;stroke:none" />
         <path
   d="m 7886,15702 v 0 l 7,-104 5,-81 13,-84 30,-125 -25,-5 -30,125 -13,89 -5,81 -8,104 v 0 z"
   id="path92"
   inkscape:connector-curvature="0"
   style="fill:#000000;stroke:none" />
         <path
   d="m 7868,15954 18,10 -11,-48 -2,-49 2,-63 11,-102 h -26 l -10,102 -8,63 8,49 10,53 18,10 -18,-10 5,18 13,-8 z"
   id="path94"
   inkscape:connector-curvature="0"
   style="fill:#000000;stroke:none" />
         <path
   d="m 8414,15689 v 0 l -36,16 -33,12 -35,16 -33,15 -36,15 -33,18 -33,15 -33,18 -35,15 -33,18 -33,18 -36,17 -33,18 -36,18 -33,18 -35,18 10,25 36,-18 33,-18 35,-17 33,-18 36,-18 33,-18 33,-17 35,-16 33,-18 33,-15 33,-18 36,-15 33,-15 36,-15 33,-13 35,-15 v 0 z"
   id="path96"
   inkscape:connector-curvature="0"
   style="fill:#000000;stroke:none" />
         <path
   d="m 8963,15499 v 0 l -36,10 -33,13 -35,10 -33,10 -36,13 -33,10 -33,10 -33,13 -36,10 -35,13 -33,12 -36,13 -33,13 -35,12 -33,13 -36,15 10,26 36,-15 33,-13 35,-13 33,-13 36,-12 33,-13 30,-13 36,-10 33,-13 33,-10 33,-10 36,-13 33,-10 35,-10 33,-13 36,-10 v 0 z"
   id="path98"
   inkscape:connector-curvature="0"
   style="fill:#000000;stroke:none" />
         <path
   d="m 9679,15331 v 0 l -53,10 -51,10 -51,11 -48,10 -48,12 -48,11 -49,10 -43,10 -46,10 -43,10 -43,10 -41,11 -40,12 -38,10 -39,11 -35,10 5,25 35,-10 39,-10 38,-10 40,-13 41,-10 43,-10 43,-11 46,-10 43,-10 49,-10 48,-10 48,-13 48,-10 51,-10 51,-10 53,-11 v 0 z"
   id="path100"
   inkscape:connector-curvature="0"
   style="fill:#000000;stroke:none" />
         <path
   d="m 10663,15196 v 0 h -59 l -58,5 -61,6 -61,5 -64,5 -63,7 -66,10 -64,8 -66,10 -66,10 -63,13 -61,10 -61,13 -59,10 -58,13 -54,10 5,25 54,-10 58,-12 59,-11 61,-12 61,-10 63,-13 61,-10 66,-10 64,-8 66,-10 63,-8 64,-5 61,-5 61,-5 h 58 59 v 0 z"
   id="path102"
   inkscape:connector-curvature="0"
   style="fill:#000000;stroke:none" />
         <path
   d="m 11623,15120 v 0 h -48 l -51,5 -53,5 -59,5 -58,5 -64,6 -63,7 -64,8 -63,7 -66,8 -64,5 -66,5 -64,5 -61,5 h -58 -58 v 31 h 58 l 58,-5 61,-5 64,-5 66,-5 64,-6 66,-7 63,-8 64,-7 63,-8 64,-5 58,-5 59,-5 53,-5 h 51 48 v 0 z"
   id="path104"
   inkscape:connector-curvature="0"
   style="fill:#000000;stroke:none" />
         <path
   d="m 12548,15082 v 0 h -33 l -41,3 h -46 l -53,5 -58,2 -64,5 -63,3 -69,2 -69,5 -68,3 -66,5 -66,3 h -64 -61 l -56,2 h -48 v 31 h 48 l 56,-3 h 61 l 64,-5 66,-3 66,-5 68,-2 69,-5 69,-3 63,-2 64,-5 58,-3 h 53 46 l 41,-2 h 33 v 0 z"
   id="path106"
   inkscape:connector-curvature="0"
   style="fill:#000000;stroke:none" />
         <path
   d="m 12548,15097 23,-5 12,-18 5,-22 -2,-31 -5,-36 -8,-38 -5,-38 -2,-35 -5,-31 -8,-20 -10,-13 -10,-13 -3,-10 5,-12 18,-21 33,-30 41,-31 33,-20 30,-15 28,-11 23,-12 20,-13 18,-20 15,-31 21,-58 5,-48 -13,-56 -33,-82 -18,-45 -15,-36 -10,-31 -10,-27 -11,-26 -7,-30 -10,-31 -13,-38 -13,-36 -12,-22 -13,-18 -13,-13 -15,-13 -18,-20 -23,-28 -25,-41 -33,-50 -38,-59 -46,-58 -46,-61 -48,-61 -46,-64 -46,-58 -38,-59 -38,-56 -45,-53 -49,-53 -53,-51 -51,-48 -53,-46 -49,-43 -43,-41 -40,-41 -46,-40 -43,-41 -46,-43 -43,-38 -38,-38 -33,-36 -26,-30 h -40 l -41,-3 -41,-3 -43,-2 -41,-5 -43,-5 -43,-5 -41,-5 -40,-6 -41,-5 -41,-5 -35,-5 -38,-2 -33,-3 -31,-2 h -30 -31 -33 -38 -38 -41 l -43,2 h -43 l -43,3 -46,2 -43,3 -41,2 -40,3 -41,5 -36,5 -33,5 -30,8 -51,10 -41,5 -33,3 -28,2 -23,3 -22,5 -23,10 -26,18 -17,12 -23,18 -28,20 -33,26 -38,28 -39,30 -40,31 -43,35 -44,36 -43,36 -43,35 -41,36 -40,33 -36,35 -30,31 -28,30 -26,31 -30,35 -33,38 -36,41 -38,46 -38,46 -41,45 -40,49 -41,50 -41,49 -38,45 -38,46 -35,46 -33,41 -31,38 -25,33 -49,61 -40,61 -41,56 -35,53 -36,53 -33,51 -33,48 -36,51 -20,28 -20,33 -26,36 -28,41 -28,43 -30,45 -33,49 -33,48 -33,51 -33,48 -33,51 -36,48 -30,49 -31,43 -30,43 -28,38 -43,61 -36,48 -28,38 -23,28 -18,28 -12,23 -16,28 -12,31 -31,124 -12,87 -6,81 -7,104 -10,102 -5,63 5,49 10,50 35,-17 33,-18 36,-18 33,-18 36,-18 33,-17 33,-18 35,-15 33,-18 33,-15 33,-18 36,-15 33,-16 36,-15 33,-13 35,-15 36,-15 33,-13 35,-13 33,-12 36,-13 33,-13 33,-12 36,-11 33,-12 33,-10 33,-11 35,-12 33,-10 36,-11 33,-12 35,-11 36,-10 38,-10 38,-10 41,-13 40,-10 44,-10 43,-10 46,-10 43,-11 48,-10 48,-10 49,-13 48,-10 51,-10 51,-10 53,-10 53,-10 59,-13 58,-10 61,-13 61,-10 64,-13 63,-10 66,-10 64,-8 66,-10 63,-8 64,-5 61,-5 61,-5 58,-2 h 59 58 l 58,-3 61,-5 64,-5 66,-5 64,-5 66,-8 63,-8 64,-7 63,-8 64,-5 58,-5 59,-5 53,-5 51,-3 h 48 48 l 56,-2 h 61 l 64,-3 66,-2 66,-5 68,-3 69,-5 69,-2 63,-3 64,-5 58,-3 53,-2 h 46 l 41,-3 z"
   id="path108"
   inkscape:connector-curvature="0"
   style="fill:#bfccd8;stroke:none" />
         <path
   d="m 12550,14874 v 0 l 5,35 6,38 7,41 5,33 v 31 l -2,17 -8,10 -15,3 v 31 l 30,-8 18,-26 8,-27 -5,-31 -5,-38 -8,-36 -5,-38 v -35 0 z"
   id="path110"
   inkscape:connector-curvature="0"
   style="fill:#000000;stroke:none" />
         <path
   d="m 12578,14714 v 0 l -35,30 -18,23 -8,20 3,15 13,16 7,10 8,18 2,28 h 31 l -8,-33 -7,-23 -13,-16 -8,-10 -2,-5 2,-5 18,-18 31,-30 v 0 z"
   id="path112"
   inkscape:connector-curvature="0"
   style="fill:#000000;stroke:none" />
         <path
   d="m 12782,14566 v 0 l -16,28 -12,18 -21,10 -20,13 -28,10 -30,15 -36,23 -41,31 16,20 40,-31 31,-17 30,-16 28,-10 26,-13 20,-15 23,-23 15,-33 v 0 z"
   id="path114"
   inkscape:connector-curvature="0"
   style="fill:#000000;stroke:none" />
         <path
   d="m 12761,14332 v 0 l 33,79 13,54 -5,45 -20,56 25,10 20,-61 5,-50 -12,-59 -33,-84 v 0 z"
   id="path116"
   inkscape:connector-curvature="0"
   style="fill:#000000;stroke:none" />
         <path
   d="m 12667,14066 v 0 l 13,38 10,30 8,31 10,28 10,25 10,33 15,36 18,45 26,-10 -18,-46 -15,-35 -11,-28 -10,-31 -10,-22 -7,-31 -11,-30 -12,-39 v 0 z"
   id="path118"
   inkscape:connector-curvature="0"
   style="fill:#000000;stroke:none" />
         <path
   d="m 12535,13878 v 0 l 28,43 23,28 18,23 15,12 13,10 10,18 13,21 12,33 26,-6 -13,-38 -13,-25 -15,-18 -13,-15 -15,-13 -18,-18 -23,-28 -22,-38 v 0 z"
   id="path120"
   inkscape:connector-curvature="0"
   style="fill:#000000;stroke:none" />
         <path
   d="m 12195,13410 v 0 l 40,58 46,59 46,63 48,61 46,61 46,59 35,58 33,49 26,-11 -33,-53 -41,-58 -46,-59 -46,-61 -48,-61 -46,-63 -45,-59 -36,-58 v 0 z"
   id="path122"
   inkscape:connector-curvature="0"
   style="fill:#000000;stroke:none" />
         <path
   d="m 11816,13021 v 0 l 43,41 51,43 51,46 51,48 53,51 48,51 46,53 36,56 25,-15 -41,-56 -45,-54 -49,-55 -53,-51 -51,-49 -56,-45 -45,-44 -44,-40 v 0 z"
   id="path124"
   inkscape:connector-curvature="0"
   style="fill:#000000;stroke:none" />
         <path
   d="m 11511,12719 -10,-8 25,31 33,38 39,38 43,38 46,43 43,41 45,40 41,41 20,-20 -40,-41 -46,-40 -43,-41 -46,-43 -43,-38 -38,-39 -33,-33 -26,-30 -10,-8 10,8 -2,-5 -8,-3 z"
   id="path126"
   inkscape:connector-curvature="0"
   style="fill:#000000;stroke:none" />
         <path
   d="m 10889,12663 v 0 h 30 31 l 33,2 38,3 35,5 41,5 41,5 40,5 41,5 43,5 43,6 41,5 43,2 41,3 41,5 h 40 v -31 h -40 -41 l -41,-2 -43,-3 -41,-5 -43,-5 -43,-5 -41,-5 -40,-5 -41,-5 -41,-5 -35,-5 -38,-3 -33,-3 -31,-5 h -30 v 0 z"
   id="path128"
   inkscape:connector-curvature="0"
   style="fill:#000000;stroke:none" />
         <path
   d="m 10271,12698 v 0 l 31,-7 30,-5 36,-5 41,-5 40,-3 41,-3 43,-2 46,-3 h 43 43 l 43,-2 h 41 38 38 33 31 v -31 h -31 -33 -38 -38 -41 l -43,3 h -43 l -43,5 -46,3 -43,2 -41,3 -40,2 -41,5 -36,5 -35,5 -31,8 v 0 z"
   id="path130"
   inkscape:connector-curvature="0"
   style="fill:#000000;stroke:none" />
         <path
   d="m 10030,12752 v 0 l 25,-15 18,-11 20,-5 23,-2 28,-3 33,-2 41,-5 53,-11 -5,-25 -48,10 -41,5 -33,3 -28,2 -23,3 -25,5 -28,10 -25,20 v 0 z"
   id="path132"
   inkscape:connector-curvature="0"
   style="fill:#000000;stroke:none" />
         <path
   d="m 9466,13222 v 0 l 28,-28 30,-31 36,-35 38,-33 41,-36 43,-35 43,-36 43,-35 43,-36 41,-31 38,-30 38,-28 33,-25 28,-21 23,-18 18,-12 -15,-21 -18,13 -23,18 -28,20 -33,26 -38,28 -38,30 -41,31 -43,35 -43,36 -43,35 -44,36 -40,36 -43,33 -36,35 -30,31 -28,33 v 0 z"
   id="path134"
   inkscape:connector-curvature="0"
   style="fill:#000000;stroke:none" />
         <path
   d="m 8902,13900 v 0 l 25,-33 31,-38 33,-40 35,-46 38,-46 39,-46 40,-48 41,-51 41,-48 40,-46 38,-46 38,-45 36,-41 33,-38 31,-36 25,-30 -20,-15 -26,30 -30,36 -33,38 -36,40 -38,46 -38,46 -41,46 -40,48 -41,51 -41,48 -38,46 -38,46 -36,45 -33,41 -30,38 -25,33 v 0 z"
   id="path136"
   inkscape:connector-curvature="0"
   style="fill:#000000;stroke:none" />
         <path
   d="m 8600,14335 v 0 l 35,-51 33,-48 33,-51 36,-53 35,-54 41,-56 41,-61 48,-61 -20,-15 -49,61 -40,61 -41,56 -36,53 -35,54 -33,51 -33,48 -36,51 v 0 z"
   id="path138"
   inkscape:connector-curvature="0"
   style="fill:#000000;stroke:none" />
         <path
   d="m 8127,15029 v 0 l 28,-38 30,-44 31,-43 30,-48 36,-48 33,-51 33,-49 33,-50 33,-49 33,-48 31,-46 28,-43 27,-41 26,-35 20,-33 21,-28 -21,-15 -20,28 -20,33 -26,35 -28,41 -28,43 -30,46 -33,48 -33,48 -33,51 -33,49 -33,50 -36,49 -30,48 -31,43 -30,43 -28,38 v 0 z"
   id="path140"
   inkscape:connector-curvature="0"
   style="fill:#000000;stroke:none" />
         <path
   d="m 7941,15308 v 3 l 13,-31 15,-28 13,-20 15,-28 23,-28 28,-38 36,-48 43,-61 -20,-16 -44,61 -35,49 -28,38 -23,28 -20,28 -13,25 -15,28 -13,31 v 2 z"
   id="path142"
   inkscape:connector-curvature="0"
   style="fill:#000000;stroke:none" />
         <path
   d="m 7886,15702 v 0 l 7,-104 5,-81 13,-84 30,-125 -25,-5 -30,125 -13,89 -5,81 -8,104 v 0 z"
   id="path144"
   inkscape:connector-curvature="0"
   style="fill:#000000;stroke:none" />
         <path
   d="m 7868,15954 18,10 -11,-48 -2,-49 2,-63 11,-102 h -26 l -10,102 -8,63 8,49 10,53 18,10 -18,-10 5,18 13,-8 z"
   id="path146"
   inkscape:connector-curvature="0"
   style="fill:#000000;stroke:none" />
         <path
   d="m 8414,15689 v 0 l -36,16 -33,12 -35,16 -33,15 -36,15 -33,18 -33,15 -33,18 -35,15 -33,18 -33,18 -36,17 -33,18 -36,18 -33,18 -35,18 10,25 36,-18 33,-18 35,-17 33,-18 36,-18 33,-18 33,-17 35,-16 33,-18 33,-15 33,-18 36,-15 33,-15 36,-15 33,-13 35,-15 v 0 z"
   id="path148"
   inkscape:connector-curvature="0"
   style="fill:#000000;stroke:none" />
         <path
   d="m 8963,15499 v 0 l -36,10 -33,13 -35,10 -33,10 -36,13 -33,10 -33,10 -33,13 -36,10 -35,13 -33,12 -36,13 -33,13 -35,12 -33,13 -36,15 10,26 36,-15 33,-13 35,-13 33,-13 36,-12 33,-13 30,-13 36,-10 33,-13 33,-10 33,-10 36,-13 33,-10 35,-10 33,-13 36,-10 v 0 z"
   id="path150"
   inkscape:connector-curvature="0"
   style="fill:#000000;stroke:none" />
         <path
   d="m 9679,15331 v 0 l -53,10 -51,10 -51,11 -48,10 -48,12 -48,11 -49,10 -43,10 -46,10 -43,10 -43,10 -41,11 -40,12 -38,10 -39,11 -35,10 5,25 35,-10 39,-10 38,-10 40,-13 41,-10 43,-10 43,-11 46,-10 43,-10 49,-10 48,-10 48,-13 48,-10 51,-10 51,-10 53,-11 v 0 z"
   id="path152"
   inkscape:connector-curvature="0"
   style="fill:#000000;stroke:none" />
         <path
   d="m 10663,15196 v 0 h -59 l -58,5 -61,6 -61,5 -64,5 -63,7 -66,10 -64,8 -66,10 -66,10 -63,13 -61,10 -61,13 -59,10 -58,13 -54,10 5,25 54,-10 58,-12 59,-11 61,-12 61,-10 63,-13 61,-10 66,-10 64,-8 66,-10 63,-8 64,-5 61,-5 61,-5 h 58 59 v 0 z"
   id="path154"
   inkscape:connector-curvature="0"
   style="fill:#000000;stroke:none" />
         <path
   d="m 11623,15120 v 0 h -48 l -51,5 -53,5 -59,5 -58,5 -64,6 -63,7 -64,8 -63,7 -66,8 -64,5 -66,5 -64,5 -61,5 h -58 -58 v 31 h 58 l 58,-5 61,-5 64,-5 66,-5 64,-6 66,-7 63,-8 64,-7 63,-8 64,-5 58,-5 59,-5 53,-5 h 51 48 v 0 z"
   id="path156"
   inkscape:connector-curvature="0"
   style="fill:#000000;stroke:none" />
         <path
   d="m 12548,15082 v 0 h -33 l -41,3 h -46 l -53,5 -58,2 -64,5 -63,3 -69,2 -69,5 -68,3 -66,5 -66,3 h -64 -61 l -56,2 h -48 v 31 h 48 l 56,-3 h 61 l 64,-5 66,-3 66,-5 68,-2 69,-5 69,-3 63,-2 64,-5 58,-3 h 53 46 l 41,-2 h 33 v 0 z"
   id="path158"
   inkscape:connector-curvature="0"
   style="fill:#000000;stroke:none" />
         <path
   d="m 7873,15702 -10,102 -5,63 5,49 10,50 35,-17 33,-18 36,-18 33,-18 36,-18 33,-17 33,-18 35,-15 33,-18 33,-15 33,-18 36,-15 33,-16 36,-15 33,-13 35,-15 36,-15 33,-13 35,-13 33,-12 36,-13 33,-13 33,-12 36,-11 33,-12 33,-10 33,-11 35,-12 33,-10 36,-11 33,-12 35,-11 36,-10 38,-10 38,-10 41,-13 40,-10 44,-10 43,-10 46,-10 43,-11 48,-10 48,-10 49,-13 48,-10 51,-10 51,-10 53,-10 56,-10 56,-11 61,-10 61,-10 63,-8 66,-10 66,-7 66,-8 66,-8 66,-7 67,-8 63,-7 64,-8 61,-5 60,-8 56,-7 56,-8 59,-8 61,-5 61,-7 63,-8 64,-5 63,-5 64,-8 61,-5 63,-2 61,-5 59,-3 56,-5 h 53 l 51,-3 h 48 48 l 56,-2 h 61 l 64,-3 66,-2 66,-5 68,-3 69,-5 69,-2 63,-3 64,-5 58,-3 53,-2 h 46 l 41,-3 h 33 l 23,-5 12,-18 5,-22 -2,-31 -5,-36 -8,-38 -5,-38 -2,-35 -5,-31 -8,-20 -10,-13 -10,-13 -3,-10 5,-12 18,-21 33,-30 41,-31 33,-20 30,-15 28,-11 23,-12 20,-13 18,-20 15,-31 21,-58 5,-48 -13,-56 -33,-82 -18,-45 -15,-36 -10,-31 -10,-27 -11,-26 -7,-30 -10,-31 -13,-38 -43,-8 -49,-7 -55,-8 -56,-10 -61,-8 -66,-7 -66,-10 -66,-8 -67,-5 -68,-8 -66,-5 -64,-5 -63,-2 -59,-3 h -53 -51 l -51,3 h -58 l -66,2 -69,3 h -73 l -77,2 -76,3 -74,2 -76,5 -71,3 -69,5 -63,5 -56,5 -48,5 -41,5 -30,8 -46,13 -38,7 -36,8 -33,7 -38,8 -43,10 -51,13 -63,18 -39,12 -40,13 -43,15 -49,18 -48,18 -51,20 -51,21 -50,20 -51,23 -51,23 -51,23 -48,22 -46,21 -43,23 -38,20 -36,20 -35,21 -41,25 -46,28 -45,31 -51,33 -51,33 -53,35 -54,33 -53,36 -51,35 -51,33 -48,33 -46,31 -40,28 -38,25 -34,21 -33,22 -40,28 -48,31 -51,38 -54,38 -58,43 -59,44 -58,43 -58,45 -56,41 -54,43 -50,38 -44,33 -38,31 -30,25 -23,21 -38,33 -38,33 -44,35 -40,33 -38,33 -33,28 -31,23 z"
   id="path160"
   inkscape:connector-curvature="0"
   style="fill:#004cb2;stroke:none" />
         <path
   d="m 7868,15954 18,10 -11,-48 -2,-49 2,-63 11,-102 h -26 l -10,102 -8,63 8,49 10,53 18,10 -18,-10 5,18 13,-8 z"
   id="path162"
   inkscape:connector-curvature="0"
   style="fill:#000000;stroke:none" />
         <path
   d="m 8414,15689 v 0 l -36,16 -33,12 -35,16 -33,15 -36,15 -33,18 -33,15 -33,18 -35,15 -33,18 -33,18 -36,17 -33,18 -36,18 -33,18 -35,18 10,25 36,-18 33,-18 35,-17 33,-18 36,-18 33,-18 33,-17 35,-16 33,-18 33,-15 33,-18 36,-15 33,-15 36,-15 33,-13 35,-15 v 0 z"
   id="path164"
   inkscape:connector-curvature="0"
   style="fill:#000000;stroke:none" />
         <path
   d="m 8963,15499 v 0 l -36,10 -33,13 -35,10 -33,10 -36,13 -33,10 -33,10 -33,13 -36,10 -35,13 -33,12 -36,13 -33,13 -35,12 -33,13 -36,15 10,26 36,-15 33,-13 35,-13 33,-13 36,-12 33,-13 30,-13 36,-10 33,-13 33,-10 33,-10 36,-13 33,-10 35,-10 33,-13 36,-10 v 0 z"
   id="path166"
   inkscape:connector-curvature="0"
   style="fill:#000000;stroke:none" />
         <path
   d="m 9679,15331 v 0 l -53,10 -51,10 -51,11 -48,10 -48,12 -48,11 -49,10 -43,10 -46,10 -43,10 -43,10 -41,11 -40,12 -38,10 -39,11 -35,10 5,25 35,-10 39,-10 38,-10 40,-13 41,-10 43,-10 43,-11 46,-10 43,-10 49,-10 48,-10 48,-13 48,-10 51,-10 51,-10 53,-11 v 0 z"
   id="path168"
   inkscape:connector-curvature="0"
   style="fill:#000000;stroke:none" />
         <path
   d="m 10680,15199 v 0 l -56,8 -60,7 -61,5 -64,8 -63,7 -67,8 -66,8 -66,7 -66,8 -66,8 -66,10 -63,7 -61,11 -64,10 -56,10 -56,10 5,25 56,-10 56,-10 59,-10 61,-10 63,-8 66,-10 66,-8 66,-7 66,-8 66,-7 67,-8 63,-8 64,-7 61,-5 60,-8 56,-8 v 0 z"
   id="path170"
   inkscape:connector-curvature="0"
   style="fill:#000000;stroke:none" />
         <path
   d="m 11623,15120 v 0 h -48 l -51,3 -53,2 -56,5 -59,3 -61,5 -63,2 -61,6 -64,7 -63,5 -64,5 -63,8 -61,8 -61,5 -59,7 -56,8 v 25 l 56,-7 59,-8 61,-5 61,-8 63,-7 64,-5 63,-5 64,-8 61,-5 63,-3 61,-5 59,-2 56,-5 53,2 51,-2 h 48 v 0 z"
   id="path172"
   inkscape:connector-curvature="0"
   style="fill:#000000;stroke:none" />
         <path
   d="m 12548,15082 v 0 h -33 l -41,3 h -46 l -53,5 -58,2 -64,5 -63,3 -69,2 -69,5 -68,3 -66,5 -66,3 h -64 -61 l -56,2 h -48 v 31 h 48 l 56,-3 h 61 l 64,-5 66,-3 66,-5 68,-2 69,-5 69,-3 63,-2 64,-5 58,-3 h 53 46 l 41,-2 h 33 v 0 z"
   id="path174"
   inkscape:connector-curvature="0"
   style="fill:#000000;stroke:none" />
         <path
   d="m 12550,14874 v 0 l 5,35 6,38 7,41 5,33 v 31 l -2,17 -8,10 -15,3 v 31 l 30,-8 18,-26 8,-27 -5,-31 -5,-38 -8,-36 -5,-38 v -35 0 z"
   id="path176"
   inkscape:connector-curvature="0"
   style="fill:#000000;stroke:none" />
         <path
   d="m 12578,14714 v 0 l -35,30 -18,23 -8,20 3,15 13,16 7,10 8,18 2,28 h 31 l -8,-33 -7,-23 -13,-16 -8,-10 -2,-5 2,-5 18,-18 31,-30 v 0 z"
   id="path178"
   inkscape:connector-curvature="0"
   style="fill:#000000;stroke:none" />
         <path
   d="m 12782,14566 v 0 l -16,28 -12,18 -21,10 -20,13 -28,10 -30,15 -36,23 -41,31 16,20 40,-31 31,-17 30,-16 28,-10 26,-13 20,-15 23,-23 15,-33 v 0 z"
   id="path180"
   inkscape:connector-curvature="0"
   style="fill:#000000;stroke:none" />
         <path
   d="m 12761,14332 v 0 l 33,79 13,54 -5,45 -20,56 25,10 20,-61 5,-50 -12,-59 -33,-84 v 0 z"
   id="path182"
   inkscape:connector-curvature="0"
   style="fill:#000000;stroke:none" />
         <path
   d="m 12677,14076 -10,-10 13,38 10,30 8,31 10,28 10,25 10,33 15,36 18,45 26,-10 -18,-46 -15,-35 -11,-28 -10,-31 -10,-22 -7,-31 -11,-30 -12,-39 -10,-10 10,10 -3,-10 h -7 z"
   id="path184"
   inkscape:connector-curvature="0"
   style="fill:#000000;stroke:none" />
         <path
   d="m 11727,13982 v 0 l 51,2 h 53 59 l 63,3 64,5 66,5 68,8 67,5 66,7 66,10 66,8 61,8 56,10 55,7 49,8 40,8 6,-26 -46,-7 -49,-8 -55,-8 -56,-10 -61,-7 -66,-8 -66,-10 -66,-8 -67,-5 -68,-7 -66,-6 -64,-5 -63,-2 -59,-5 h -53 l -51,2 v 0 z"
   id="path186"
   inkscape:connector-curvature="0"
   style="fill:#000000;stroke:none" />
         <path
   d="m 10731,14038 v 0 l 31,-8 38,-5 48,-5 56,-5 63,-5 69,-5 71,-3 76,-5 74,-3 76,-2 h 77 73 l 69,-5 h 66 58 l 51,-5 v -26 h -51 -58 l -66,5 h -69 -73 l -77,5 -76,3 -74,3 -76,5 -71,2 -69,5 -63,5 -56,5 -48,5 -43,6 -31,7 v 0 z"
   id="path188"
   inkscape:connector-curvature="0"
   style="fill:#000000;stroke:none" />
         <path
   d="m 10383,14121 v 0 l 64,-17 50,-13 44,-10 38,-8 33,-7 35,-8 38,-8 46,-12 -5,-26 -46,13 -38,8 -35,7 -33,8 -38,7 -44,11 -50,12 -64,18 v 0 z"
   id="path190"
   inkscape:connector-curvature="0"
   style="fill:#000000;stroke:none" />
         <path
   d="m 9654,14434 v 0 l 33,-20 38,-21 43,-23 46,-20 48,-23 51,-23 51,-22 51,-23 51,-21 50,-20 51,-20 48,-18 49,-18 40,-15 41,-13 38,-13 -5,-25 -38,13 -41,12 -45,16 -49,17 -48,18 -51,21 -51,20 -50,20 -51,23 -51,23 -51,23 -48,23 -46,20 -43,23 -38,20 -38,21 v 0 z"
   id="path192"
   inkscape:connector-curvature="0"
   style="fill:#000000;stroke:none" />
         <path
   d="m 8917,14914 v 0 l 33,-20 38,-28 41,-28 46,-30 48,-33 51,-33 51,-36 53,-33 53,-33 54,-38 50,-31 51,-35 46,-28 46,-28 40,-26 36,-20 -15,-25 -36,20 -41,25 -45,28 -46,33 -51,31 -51,35 -53,33 -53,33 -54,39 -51,35 -50,33 -49,33 -45,31 -41,28 -38,23 -33,20 v 0 z"
   id="path194"
   inkscape:connector-curvature="0"
   style="fill:#000000;stroke:none" />
         <path
   d="m 8163,15476 h 2 l 20,-20 31,-26 38,-30 43,-33 51,-38 53,-44 56,-40 59,-46 58,-43 59,-43 58,-44 53,-38 51,-38 48,-30 41,-28 33,-21 -15,-25 -33,25 -41,28 -48,31 -51,38 -53,38 -59,43 -58,43 -59,44 -58,45 -56,41 -53,43 -51,38 -43,33 -38,31 -31,25 -25,21 h 2 z"
   id="path196"
   inkscape:connector-curvature="0"
   style="fill:#000000;stroke:none" />
         <path
   d="m 7886,15702 -6,10 21,-18 30,-22 33,-28 38,-33 41,-33 43,-36 38,-33 39,-33 -16,-20 -38,33 -38,33 -43,35 -41,33 -38,33 -33,28 -30,23 -21,18 -5,10 5,-10 -5,2 v 8 z"
   id="path198"
   inkscape:connector-curvature="0"
   style="fill:#000000;stroke:none" />
         <path
   d="m 8965,15511 36,-10 38,-10 38,-10 41,-13 40,-10 44,-10 43,-10 46,-10 43,-11 48,-10 48,-10 49,-13 48,-10 51,-10 51,-10 53,-10 z"
   id="path200"
   inkscape:connector-curvature="0"
   style="fill:#7f7f7f;stroke:none" />
         <path
   d="m 9679,15331 -53,10 -51,10 -51,11 -48,10 -48,12 -48,11 -49,10 -43,10 -46,10 -43,10 -43,10 -41,11 -40,12 -38,10 -39,11 -35,10 5,25 35,-10 39,-10 38,-10 40,-13 41,-10 43,-10 43,-11 46,-10 43,-10 49,-10 48,-10 48,-13 48,-10 51,-10 51,-10 53,-11 z"
   id="path202"
   inkscape:connector-curvature="0"
   style="fill:#000000;stroke:none" />
         <path
   d="m 7873,15702 20,-18 31,-23 33,-28 38,-33 40,-33 44,-35 38,-33 38,-33 23,-21 30,-25 38,-31 44,-33 50,-38 54,-43 56,-41 58,-45 58,-43 59,-44 58,-43 54,-38 51,-38 48,-31 40,-28 33,-22 34,-21 38,-25 40,-28 46,-31 48,-33 51,-33 51,-35 53,-36 54,-33 53,-35 51,-33 51,-33 45,-31 46,-28 41,-25 35,-21 36,-20 38,-20 43,-23 46,-21 48,-22 51,-23 51,-23 51,-23 50,-20 51,-21 51,-20 48,-18 49,-18 43,-15 40,-13 39,-12 63,-18 51,-13 43,-10 38,-8 33,-7 36,-8 38,-7 46,-13 30,-8 41,-5 48,-5 56,-5 63,-5 69,-5 71,-3 76,-5 74,-2 76,-3 77,-2 h 73 l 69,-3 66,-2 h 58 l 51,-3 h 51 53 l 59,3 63,2 64,5 66,5 68,8 67,5 66,8 66,10 66,7 61,8 56,10 55,8 49,7 43,8 5,-25 8,-23 v -23 l -13,-23 -13,-13 -12,-12 -13,-11 -15,-10 -13,-7 -15,-8 -13,-3 -15,-2 -43,-8 -46,-7 -48,-8 -54,-8 -56,-7 -56,-8 -58,-7 -59,-8 -58,-8 -61,-5 -58,-5 -56,-2 -59,-5 h -53 -53 -49 l -50,2 -61,3 h -64 l -69,2 -73,3 -77,2 -76,3 -76,2 -74,5 -73,3 -69,2 -63,6 -56,5 -49,5 -40,5 -31,7 -43,13 -38,10 -36,8 -33,5 -38,10 -43,10 -51,13 -63,18 -38,13 -41,12 -43,15 -49,18 -48,18 -51,18 -50,23 -51,20 -51,20 -53,23 -49,23 -48,23 -46,20 -43,23 -41,21 -35,20 -36,20 -40,26 -44,28 -48,30 -48,33 -53,33 -51,36 -54,35 -53,36 -51,35 -51,33 -48,33 -46,31 -40,28 -38,25 -33,21 -33,23 -41,27 -48,31 -51,38 -54,38 -58,43 -58,44 -59,43 -58,43 -56,43 -54,41 -50,38 -44,36 -38,30 -30,25 -23,18 -36,33 -35,33 -36,31 -33,30 -33,28 -28,26 -25,20 -20,18 -18,23 -10,23 -3,20 v 20 l -2,21 v 20 l 2,20 z"
   id="path204"
   inkscape:connector-curvature="0"
   style="fill:#000000;stroke:none" />
         <path
   d="m 8145,15456 h 2 l -38,33 -38,33 -43,35 -41,33 -38,33 -33,28 -30,23 -21,18 15,20 21,-18 30,-22 33,-28 38,-33 41,-33 43,-36 38,-33 39,-33 h 2 z"
   id="path206"
   inkscape:connector-curvature="0"
   style="fill:#000000;stroke:none" />
         <path
   d="m 8902,14889 v 0 l -33,25 -41,28 -48,31 -51,38 -53,38 -59,43 -58,43 -59,44 -58,45 -56,41 -53,43 -51,38 -43,33 -38,31 -31,25 -25,21 20,20 20,-20 31,-26 38,-30 43,-33 51,-38 53,-44 56,-40 59,-46 58,-43 59,-43 58,-44 53,-38 51,-38 48,-30 41,-28 33,-21 v 0 z"
   id="path208"
   inkscape:connector-curvature="0"
   style="fill:#000000;stroke:none" />
         <path
   d="m 9639,14409 v 0 l -36,20 -41,25 -45,28 -46,33 -51,31 -51,35 -53,33 -53,33 -54,39 -51,35 -50,33 -49,33 -45,31 -41,28 -38,23 -33,20 15,25 33,-20 38,-28 41,-28 46,-30 48,-33 51,-33 51,-36 53,-33 53,-33 54,-38 50,-31 51,-35 46,-28 46,-28 40,-26 36,-20 v 0 z"
   id="path210"
   inkscape:connector-curvature="0"
   style="fill:#000000;stroke:none" />
         <path
   d="m 10378,14096 v 0 l -38,13 -41,12 -45,16 -49,17 -48,18 -51,21 -51,20 -50,20 -51,23 -51,23 -51,23 -48,23 -46,20 -43,23 -38,20 -38,21 15,25 33,-20 38,-21 43,-23 46,-20 48,-23 51,-23 51,-22 51,-23 51,-21 50,-20 51,-20 48,-18 49,-18 40,-15 41,-13 38,-13 v 0 z"
   id="path212"
   inkscape:connector-curvature="0"
   style="fill:#000000;stroke:none" />
         <path
   d="m 10726,14012 v 0 l -46,13 -38,8 -35,7 -33,8 -38,7 -44,11 -50,12 -64,18 5,25 64,-17 50,-13 44,-10 38,-8 33,-7 35,-8 38,-8 46,-12 v 0 z"
   id="path214"
   inkscape:connector-curvature="0"
   style="fill:#000000;stroke:none" />
         <path
   d="m 11727,13956 v 0 h -51 -58 l -66,5 h -69 -73 l -77,5 -76,3 -74,3 -76,5 -71,2 -69,5 -63,5 -56,5 -48,5 -43,6 -31,7 5,26 31,-8 38,-5 48,-5 56,-5 63,-5 69,-5 71,-3 76,-5 74,-3 76,-2 h 77 73 l 69,-5 h 66 58 l 51,-5 v 0 z"
   id="path216"
   inkscape:connector-curvature="0"
   style="fill:#000000;stroke:none" />
         <path
   d="m 12665,14063 18,-13 -46,-7 -49,-8 -55,-8 -56,-10 -61,-7 -66,-8 -66,-10 -66,-8 -67,-5 -68,-7 -66,-6 -64,-5 -63,-2 -59,-5 h -53 l -51,2 v 26 l 51,2 h 53 59 l 63,3 64,5 66,5 68,8 67,5 66,7 66,10 66,8 61,8 56,10 55,7 49,8 40,8 18,-13 -18,13 18,5 v -18 z"
   id="path218"
   inkscape:connector-curvature="0"
   style="fill:#000000;stroke:none" />
         <path
   d="m 12670,13979 v 0 l 10,15 v 21 l -8,20 -7,28 h 30 l 3,-23 7,-25 v -26 l -15,-30 v 0 z"
   id="path220"
   inkscape:connector-curvature="0"
   style="fill:#000000;stroke:none" />
         <path
   d="m 12568,13916 3,2 h 12 l 11,3 15,7 10,8 15,8 10,10 13,12 13,13 20,-20 -13,-13 -12,-13 -16,-10 -15,-12 -15,-8 -15,-8 -16,-2 -17,-5 2,2 z"
   id="path222"
   inkscape:connector-curvature="0"
   style="fill:#000000;stroke:none" />
         <path
   d="m 11704,13829 v 0 l 49,3 h 53 l 53,-3 59,5 56,3 58,5 61,5 58,8 59,7 58,8 56,8 56,7 54,8 48,7 43,8 43,8 5,-26 -43,-7 -48,-8 -48,-8 -54,-7 -56,-8 -56,-8 -58,-7 -59,-8 -58,-7 -61,-5 -58,-6 -56,-2 -59,-5 -53,-3 h -53 l -49,3 v 0 z"
   id="path224"
   inkscape:connector-curvature="0"
   style="fill:#000000;stroke:none" />
         <path
   d="m 10706,13885 v 0 l 30,-7 38,-6 49,-5 56,-5 63,-5 69,-2 73,-3 74,-5 76,-3 76,-2 77,-3 73,-2 h 69 64 l 61,-5 50,-3 v -25 l -50,2 h -61 -64 l -69,5 -73,3 -77,3 -76,2 -76,3 -74,5 -73,2 -69,3 -63,5 -56,5 -49,5 -43,5 -30,8 v 0 z"
   id="path226"
   inkscape:connector-curvature="0"
   style="fill:#000000;stroke:none" />
         <path
   d="m 10360,13972 v 0 l 64,-18 51,-13 43,-10 38,-10 33,-5 35,-8 39,-10 43,-13 -5,-25 -43,12 -39,11 -35,7 -33,5 -38,10 -43,11 -51,12 -64,18 v 0 z"
   id="path228"
   inkscape:connector-curvature="0"
   style="fill:#000000;stroke:none" />
         <path
   d="m 9629,14282 v 0 l 33,-21 40,-20 43,-23 46,-20 48,-23 49,-23 53,-23 51,-20 51,-21 50,-22 51,-18 49,-18 48,-18 40,-15 41,-13 38,-12 -5,-26 -38,13 -41,13 -45,15 -49,18 -48,17 -51,18 -50,23 -51,20 -51,21 -53,23 -49,22 -48,23 -46,21 -43,22 -41,21 -38,20 v 0 z"
   id="path230"
   inkscape:connector-curvature="0"
   style="fill:#000000;stroke:none" />
         <path
   d="m 8894,14764 v 0 l 33,-20 38,-28 41,-28 46,-30 48,-33 51,-33 51,-36 53,-36 53,-35 51,-36 54,-30 48,-36 48,-28 43,-28 41,-25 36,-20 -16,-26 -35,20 -41,26 -43,28 -48,33 -49,30 -53,36 -51,36 -53,35 -54,36 -50,35 -51,33 -48,33 -46,31 -41,28 -38,23 -33,20 v 0 z"
   id="path232"
   inkscape:connector-curvature="0"
   style="fill:#000000;stroke:none" />
         <path
   d="m 8142,15323 h -2 l 23,-17 30,-26 38,-30 43,-36 51,-38 53,-41 56,-43 59,-43 58,-43 59,-43 58,-44 53,-38 51,-38 49,-30 40,-28 33,-21 -15,-25 -33,25 -41,28 -48,31 -51,38 -53,38 -59,43 -58,43 -58,44 -59,43 -56,43 -53,41 -51,38 -43,35 -38,31 -31,25 -23,18 h -2 z"
   id="path234"
   inkscape:connector-curvature="0"
   style="fill:#000000;stroke:none" />
         <path
   d="m 7896,15542 h -3 l 21,-18 25,-20 28,-26 33,-28 33,-30 36,-31 38,-33 35,-33 -20,-20 -36,33 -33,33 -35,31 -33,30 -33,28 -28,26 -26,20 -20,18 h -3 z"
   id="path236"
   inkscape:connector-curvature="0"
   style="fill:#000000;stroke:none" />
         <path
   d="m 7870,15618 v 0 l -2,-20 2,-18 10,-18 16,-20 -21,-20 -20,25 -10,28 -3,23 -2,20 v 0 z"
   id="path238"
   inkscape:connector-curvature="0"
   style="fill:#000000;stroke:none" />
         <path
   d="m 7865,15692 h 18 l -15,-18 -3,-15 v -20 l 5,-21 h -30 v 21 20 l 2,25 21,28 h 17 -17 l 10,10 7,-10 z"
   id="path240"
   inkscape:connector-curvature="0"
   style="fill:#000000;stroke:none" />
         <path
   d="m 11631,12828 -46,3 h -53 -54 -58 -59 l -61,-3 h -61 l -61,-3 h -58 l -58,-2 h -54 l -51,-3 h -43 l -41,-2 h -33 -27 -23 -28 -28 l -28,-3 h -31 -33 -30 -31 -28 -30 -26 l -25,3 h -23 l -20,2 -15,3 -13,2 -25,8 -28,5 -33,5 -36,5 -36,8 -35,8 -33,12 -31,16 -15,10 -18,10 -23,13 -22,12 -28,16 -26,15 -30,15 -28,15 -31,18 -30,15 -31,18 -30,15 -28,18 -26,15 -25,16 -23,15 -40,28 -41,28 -38,25 -36,26 -33,25 -30,23 -31,23 -25,20 -23,23 -18,25 -13,31 -10,28 -7,30 -3,26 3,25 5,20 7,18 13,15 13,16 12,12 16,11 12,10 16,7 15,5 15,6 18,2 20,5 21,3 h 20 l 20,-3 21,-5 17,-8 18,-10 20,-10 23,-13 26,-12 23,-13 22,-13 23,-15 23,-18 26,-17 33,-21 35,-18 41,-20 43,-18 41,-20 38,-18 35,-18 31,-17 28,-16 28,-12 23,-13 22,-8 21,-10 20,-5 18,-5 20,-3 28,-2 33,-5 38,-3 41,-2 h 41 l 40,-3 h 41 20 23 26 27 31 30 31 33 30 31 30 31 28 25 23 20 41 46 48 48 46 46 41 35 38 46 53 56 54 50 46 33 36 45 51 54 53 48 38 26 l -21,-18 -22,-25 -31,-25 -30,-31 -36,-33 -38,-33 -36,-36 -38,-35 -38,-36 -38,-33 -33,-33 -33,-28 -28,-25 -23,-23 -18,-15 z"
   id="path242"
   inkscape:connector-curvature="0"
   style="fill:#b20000;stroke:none" />
         <path
   d="m 10162,13265 33,-28 18,-41 5,-40 -15,-43 v 0 l -13,-18 -15,-15 -18,-11 -20,-7 -21,-5 h -20 l -23,5 -20,10 -120,69 -33,28 -17,38 -5,43 15,41 v 0 l 12,17 16,16 17,12 21,8 20,2 h 23 l 20,-2 21,-10 z"
   id="path244"
   inkscape:connector-curvature="0"
   style="fill:#ffef66;stroke:none" />
         <path
   d="m 9789,13448 30,-28 15,-35 3,-41 -15,-38 v 0 l -13,-15 -15,-16 -18,-7 -20,-8 h -21 -20 l -20,5 -18,10 -122,76 -31,28 -15,36 v 41 l 15,38 v 0 l 13,18 15,12 18,10 18,6 20,2 h 21 l 20,-5 18,-10 z"
   id="path246"
   inkscape:connector-curvature="0"
   style="fill:#ffef66;stroke:none" />
         <path
   d="m 11204,12538 v -5 l -13,3 -20,10 -18,8 -31,15 -27,15 -26,13 -23,12 -23,13 -17,10 -21,11 -18,10 11,-3 h 20 l 18,3 h 18 12 l 13,2 13,5 10,3 h 10 10 l 10,-3 10,-7 16,-16 10,-15 10,-15 8,-13 7,-15 8,-13 10,-12 z"
   id="path248"
   inkscape:connector-curvature="0"
   style="fill:#000000;stroke:none" />
         <path
   d="m 11158,12566 3,-2 15,-5 20,-11 5,-2 -7,-18 20,20 -8,-27 -20,2 -20,10 -21,10 3,-2 z"
   id="path250"
   inkscape:connector-curvature="0"
   style="fill:#000000;stroke:none" />
         <path
   d="m 10960,12643 15,22 15,-10 21,-10 17,-10 23,-13 23,-13 26,-12 28,-15 30,-16 -10,-25 -31,15 -28,15 -25,13 -23,13 -23,12 -17,11 -21,10 -20,10 15,23 z"
   id="path252"
   inkscape:connector-curvature="0"
   style="fill:#000000;stroke:none" />
         <path
   d="m 11034,12637 v 0 l -18,3 -18,-3 h -20 l -18,6 15,20 h 3 20 l 18,2 18,3 v 0 z"
   id="path254"
   inkscape:connector-curvature="0"
   style="fill:#000000;stroke:none" />
         <path
   d="m 11112,12643 v 0 l -5,5 -5,2 -10,-2 -10,2 -8,-2 -12,-5 -16,-3 -12,-3 v 31 l 12,-3 10,3 13,5 13,3 10,2 10,-2 15,-3 16,-10 v 0 z"
   id="path256"
   inkscape:connector-curvature="0"
   style="fill:#000000;stroke:none" />
         <path
   d="m 11194,12528 v 0 l -13,18 -10,13 -10,15 -8,15 -8,10 -7,16 -10,15 -16,13 21,20 15,-18 10,-15 13,-15 7,-16 8,-15 5,-10 10,-13 13,-13 v 0 z"
   id="path258"
   inkscape:connector-curvature="0"
   style="fill:#000000;stroke:none" />
         <path
   d="m 11275,12825 h 84 l 528,1002 h -94 z"
   id="path260"
   inkscape:connector-curvature="0"
   style="fill:#7f99b2;stroke:none" />
         <path
   d="m 11371,12820 -12,-10 h -84 v 31 h 84 l -13,-10 25,-11 -5,-7 -7,-3 z"
   id="path262"
   inkscape:connector-curvature="0"
   style="fill:#000000;stroke:none" />
         <path
   d="m 11887,13842 13,-20 -529,-1002 -25,11 529,1001 12,-21 v 31 l 23,-3 -10,-17 z"
   id="path264"
   inkscape:connector-curvature="0"
   style="fill:#000000;stroke:none" />
         <path
   d="m 11781,13832 12,10 h 94 v -31 h -94 l 13,11 -25,10 5,10 h 7 z"
   id="path266"
   inkscape:connector-curvature="0"
   style="fill:#000000;stroke:none" />
         <path
   d="m 11275,12810 -13,21 519,1001 25,-10 -518,-1002 -13,21 v -31 h -23 l 10,21 z"
   id="path268"
   inkscape:connector-curvature="0"
   style="fill:#000000;stroke:none" />
         <path
   d="m 12035,13204 h -348 l -8,-2 -13,-3 -12,-8 -16,-7 -15,-13 -15,-13 -13,-17 -8,-18 -38,-94 3,-33 10,-31 15,-25 21,-20 25,-13 31,-5 33,2 40,13 v 0 l 31,28 35,35 41,39 43,38 46,40 40,38 39,39 z"
   id="path270"
   inkscape:connector-curvature="0"
   style="fill:#ffef66;stroke:none" />
         <path
   d="m 10099,12693 38,-7 452,1197 -48,28 z"
   id="path272"
   inkscape:connector-curvature="0"
   style="fill:#7f99b2;stroke:none" />
         <path
   d="m 10099,12693 38,-7 452,1197 -48,28 z"
   id="path274"
   inkscape:connector-curvature="0"
   style="fill:none;stroke:#000000" />
         <path
   d="m 9230,13590 114,-132 v 991 l -23,13 -15,10 -15,10 -11,8 -10,8 -12,7 -13,10 -15,11 v -229 -313 -274 z"
   id="path276"
   inkscape:connector-curvature="0"
   style="fill:#004cb2;stroke:none" />
         <path
   d="m 9359,13458 -25,-7 -115,132 21,15 114,-132 -25,-8 h 30 v -38 l -25,31 z"
   id="path278"
   inkscape:connector-curvature="0"
   style="fill:#000000;stroke:none" />
         <path
   d="m 9352,14462 7,-13 v -991 h -30 v 991 l 7,-12 16,25 7,-5 v -8 z"
   id="path280"
   inkscape:connector-curvature="0"
   style="fill:#000000;stroke:none" />
         <path
   d="m 9214,14526 23,12 15,-12 13,-11 13,-7 10,-8 10,-8 15,-10 16,-7 23,-13 -16,-25 -23,12 -15,13 -15,10 -10,8 -10,7 -13,8 -13,10 -15,8 23,13 h -31 v 25 l 23,-13 z"
   id="path282"
   inkscape:connector-curvature="0"
   style="fill:#000000;stroke:none" />
         <path
   d="m 9219,13583 -5,7 v 120 274 313 229 h 31 v -229 -313 -274 -120 l -5,8 -21,-15 -5,2 v 5 z"
   id="path284"
   inkscape:connector-curvature="0"
   style="fill:#000000;stroke:none" />
         <path
   d="m 9146,14091 v -226 h -38 v 226 z"
   id="path286"
   inkscape:connector-curvature="0"
   style="fill:#000000;stroke:none" />
         <path
   d="m 9070,14165 v -214 h -36 v 214 z"
   id="path288"
   inkscape:connector-curvature="0"
   style="fill:#000000;stroke:none" />
         <path
   d="m 9001,14221 v -194 h -33 v 194 z"
   id="path290"
   inkscape:connector-curvature="0"
   style="fill:#000000;stroke:none" />
         <path
   d="m 8925,14287 v -171 h -28 v 171 z"
   id="path292"
   inkscape:connector-curvature="0"
   style="fill:#000000;stroke:none" />
         <path
   d="m 8861,14355 v -147 h -23 v 147 z"
   id="path294"
   inkscape:connector-curvature="0"
   style="fill:#000000;stroke:none" />
         <path
   d="m 8566,14917 v -450 l -165,226 v 353 z"
   id="path296"
   inkscape:connector-curvature="0"
   style="fill:#000000;stroke:none" />
         <path
   d="m 8361,15074 v -312 l -135,188 v 218 z"
   id="path298"
   inkscape:connector-curvature="0"
   style="fill:#000000;stroke:none" />
         <path
   d="m 8190,15189 v -191 l -111,142 v 135 z"
   id="path300"
   inkscape:connector-curvature="0"
   style="fill:#000000;stroke:none" />
         <path
   d="m 12731,14208 -26,-13 -22,-13 -26,-10 -25,-10 -28,-8 -33,-5 -38,-5 -46,-2 -46,-3 h -41 l -38,-2 h -30 -31 -25 -25 -23 v 20 10 8 10 h 25 23 18 18 15 18 20 23 25 23 18 20 15 l 18,3 h 18 l 18,2 18,3 h 17 l 16,2 15,3 13,2 12,3 15,5 13,5 13,5 13,3 12,2 13,3 10,2 10,3 10,5 8,5 -8,-10 -2,-5 -3,-5 z"
   id="path302"
   inkscape:connector-curvature="0"
   style="fill:#ff0066;stroke:none" />
         <path
   d="m 12731,14208 v 0 l -26,-13 -22,-13 -26,-10 -25,-10 -28,-8 -33,-5 -38,-5 -46,-2 v 0 l -46,-3 h -41 l -38,-2 h -30 -31 -25 -25 -23 v 0 20 10 8 10 0 h 25 23 18 18 15 18 20 23 v 0 h 25 23 18 20 15 l 18,3 h 18 l 18,2 v 0 l 18,3 h 17 l 16,2 15,3 13,2 12,3 15,5 13,5 v 0 l 13,5 13,3 12,2 13,3 10,2 10,3 10,5 8,5 v 0 l -8,-10 -2,-5 -3,-5 z"
   id="path304"
   inkscape:connector-curvature="0"
   style="fill:none;stroke:#000000" />
         <path
   d="m 11877,14124 h -15 -20 l -21,3 h -25 -26 l -25,2 h -23 -23 -25 -38 -41 l -46,3 h -45 l -44,2 h -38 l -30,3 -28,2 -33,3 h -36 l -38,2 -38,3 -36,2 -30,5 -25,3 -23,3 -28,5 -28,2 -33,5 -31,3 -30,5 -28,2 -26,3 -22,3 -26,2 -25,3 -26,5 -28,5 -25,5 -25,5 -26,5 -20,5 -23,5 -23,5 -25,5 -23,8 -23,5 -18,5 -15,5 -13,3 -15,5 -15,2 -13,5 -10,3 -5,3 v 2 h 5 l 20,-2 21,-3 17,-3 21,-2 17,-3 18,-2 15,-3 13,-2 13,-3 h 18 l 17,-2 18,-5 21,-3 17,-2 18,-6 15,-2 16,-3 20,-2 23,-3 23,-2 h 25 l 25,-3 23,-2 21,-3 15,-2 20,-3 23,-3 23,-2 23,-3 25,-2 21,-3 20,-2 18,-3 h 23 l 22,-2 h 23 23 20 l 21,-3 h 15 l 15,-2 h 23 l 26,-3 h 28 25 25 23 18 13 17 l 16,-2 h 18 17 l 18,-3 h 18 15 10 16 l 17,-3 h 21 20 l 23,-2 h 23 20 23 25 26 25 23 20 16 12 v -13 l -2,-13 -5,-12 z"
   id="path306"
   inkscape:connector-curvature="0"
   style="fill:#ff0066;stroke:none" />
         <path
   d="m 11877,14124 v 0 h -15 -20 l -21,3 h -25 -26 l -25,2 h -23 -23 v 0 h -25 -38 -41 l -46,3 h -45 l -44,2 h -38 l -30,3 v 0 l -28,2 -33,3 h -36 l -38,2 -38,3 -36,2 -30,5 -25,3 v 0 l -23,3 -28,5 -28,2 -33,5 -31,3 -30,5 -28,2 -26,3 v 0 l -22,3 -26,2 -25,3 -26,5 -28,5 -25,5 -25,5 -26,5 v 0 l -20,5 -23,5 -23,5 -25,5 -23,8 -23,5 -18,5 -15,5 v 0 l -13,3 -15,5 -15,2 -13,5 -10,3 -5,3 v 2 h 5 v 0 l 20,-2 21,-3 17,-3 21,-2 17,-3 18,-2 15,-3 13,-2 v 0 l 13,-3 h 18 l 17,-2 18,-5 21,-3 17,-2 18,-6 15,-2 v 0 l 16,-3 20,-2 23,-3 23,-2 h 25 l 25,-3 23,-2 21,-3 v 0 l 15,-2 20,-3 23,-3 23,-2 23,-3 25,-2 21,-3 20,-2 v 0 l 18,-3 h 23 l 22,-2 h 23 23 20 l 21,-3 h 15 v 0 l 15,-2 h 23 l 26,-3 h 28 25 25 23 18 v 0 h 13 17 l 16,-2 h 18 17 l 18,-3 h 18 15 v 0 h 10 16 l 17,-3 h 21 20 l 23,-2 h 23 20 v 0 h 23 25 26 25 23 20 16 12 v 0 -13 l -2,-13 -5,-12 z"
   id="path308"
   inkscape:connector-curvature="0"
   style="fill:none;stroke:#000000" />
         <path
   d="m 12111,14185 v -104 h -61 v 104 z"
   id="path310"
   inkscape:connector-curvature="0"
   style="fill:#ff0066;stroke:none" />
         <path
   d="m 12111,14185 v -104 h -61 v 104 z"
   id="path312"
   inkscape:connector-curvature="0"
   style="fill:none;stroke:#000000" />
         <path
   d="m 11130,13204 46,5 43,3 38,-3 31,-7 25,-11 18,-15 10,-18 v -25 l -46,-122 -2,-23 -10,-20 -16,-15 -20,-16 -25,-10 -28,-7 -31,-6 -33,-2 h -640 l -33,2 -31,6 -28,7 -25,13 -20,18 -16,22 -10,28 -2,31 v 0 l 2,33 10,30 16,28 20,26 25,20 28,15 31,11 33,2 z"
   id="path314"
   inkscape:connector-curvature="0"
   style="fill:#ffef66;stroke:none" />
         <path
   d="m 11615,14533 -38,3 h -40 l -46,2 h -46 l -51,3 -48,2 h -53 l -51,3 -48,2 h -51 l -48,3 -44,5 -43,3 -38,2 -33,5 -30,5 -51,10 -51,8 -48,8 -46,7 -46,10 -43,13 -43,15 -46,23 -41,23 -33,18 -28,15 -25,13 -23,15 -28,13 -30,18 -38,17 76,-20 63,-15 51,-13 43,-13 38,-10 39,-7 38,-8 45,-8 46,-5 36,-7 33,-5 30,-3 33,-2 38,-3 46,-3 h 59 30 28 28 25 26 23 22 23 26 23 25 28 28 30 33 36 69 l 55,-2 49,-3 40,-2 39,-3 35,-2 h 38 l 43,2 26,3 h 28 l 33,2 h 33 35 39 38 40 38 38 36 36 33 l 28,3 h 25 l 23,2 38,3 36,3 30,2 h 31 l 27,3 h 26 23 23 20 15 13 10 10 8 10 10 l 26,-13 20,-8 15,-7 10,-5 10,-6 8,-7 5,-8 8,-12 13,-31 10,-28 5,-20 2,-8 -63,-5 -48,-2 -41,-3 h -36 -33 -38 l -43,3 h -56 -41 -45 -54 -58 l -61,2 h -66 -64 -66 l -63,3 h -61 -56 l -53,2 h -46 -38 -28 z"
   id="path316"
   inkscape:connector-curvature="0"
   style="fill:#000000;stroke:none" />
         <path
   d="m 11615,14533 v 0 l -38,3 h -40 l -46,2 h -46 l -51,3 -48,2 h -53 l -51,3 -48,2 h -51 l -48,3 -44,5 -43,3 -38,2 -33,5 -30,5 v 0 l -51,10 -51,8 -48,8 -46,7 -46,10 -43,13 -43,15 -46,23 v 0 l -41,23 -33,18 -28,15 -25,13 -23,15 -28,13 -30,18 -38,17 v 0 l 76,-20 63,-15 51,-13 43,-13 38,-10 39,-7 38,-8 45,-8 v 0 l 46,-5 36,-7 33,-5 30,-3 33,-2 38,-3 46,-3 h 59 v 0 h 30 28 28 25 26 23 22 23 26 23 25 28 28 30 33 36 v 0 h 69 l 55,-2 49,-3 40,-2 39,-3 35,-2 h 38 l 43,2 v 0 l 26,3 h 28 l 33,2 h 33 35 39 38 40 38 38 36 36 33 l 28,3 h 25 l 23,2 v 0 l 38,3 36,3 30,2 h 31 l 27,3 h 26 23 23 v 0 h 20 15 13 10 10 8 10 10 v 0 l 26,-13 20,-8 15,-7 10,-5 10,-6 8,-7 5,-8 8,-12 v 0 l 13,-31 10,-28 5,-20 2,-8 v 0 l -63,-5 -48,-2 -41,-3 h -36 -33 -38 l -43,3 h -56 v 0 h -41 -45 -54 -58 l -61,2 h -66 -64 -66 l -63,3 h -61 -56 l -53,2 h -46 -38 -28 z"
   id="path318"
   inkscape:connector-curvature="0"
   style="fill:none;stroke:#000000" />
         <path
   d="m 12266,14797 v -271 h -455 v 271 z"
   id="path320"
   inkscape:connector-curvature="0"
   style="fill:#000000;stroke:none" />
         <path
   d="m 12266,14541 -15,-15 v 271 h 30 v -271 l -15,-16 15,16 v -16 h -15 z"
   id="path322"
   inkscape:connector-curvature="0"
   style="fill:#000000;stroke:none" />
         <path
   d="m 11826,14526 -15,15 h 455 v -31 h -455 l -15,16 15,-16 h -15 v 16 z"
   id="path324"
   inkscape:connector-curvature="0"
   style="fill:#000000;stroke:none" />
         <path
   d="m 11811,14782 15,15 v -271 h -30 v 271 l 15,16 -15,-16 v 16 h 15 z"
   id="path326"
   inkscape:connector-curvature="0"
   style="fill:#000000;stroke:none" />
         <path
   d="m 12251,14797 15,-15 h -455 v 31 h 455 l 15,-16 -15,16 h 15 v -16 z"
   id="path328"
   inkscape:connector-curvature="0"
   style="fill:#000000;stroke:none" />
         <path
   d="m 12284,14780 v -293 h -425 v 293 z"
   id="path330"
   inkscape:connector-curvature="0"
   style="fill:#ff0066;stroke:none" />
         <path
   d="m 12284,14503 -16,-16 v 293 h 31 v -293 l -15,-15 15,15 v -15 h -15 z"
   id="path332"
   inkscape:connector-curvature="0"
   style="fill:#000000;stroke:none" />
         <path
   d="m 11875,14487 -16,16 h 425 v -31 h -425 l -15,15 15,-15 h -15 v 15 z"
   id="path334"
   inkscape:connector-curvature="0"
   style="fill:#000000;stroke:none" />
         <path
   d="m 11859,14764 16,16 v -293 h -31 v 293 l 15,15 -15,-15 v 15 h 15 z"
   id="path336"
   inkscape:connector-curvature="0"
   style="fill:#000000;stroke:none" />
         <path
   d="m 12268,14780 16,-16 h -425 v 31 h 425 l 15,-15 -15,15 h 15 v -15 z"
   id="path338"
   inkscape:connector-curvature="0"
   style="fill:#000000;stroke:none" />
         <path
   d="m 12284,14752 v -285 h -369 v 285 z"
   id="path340"
   inkscape:connector-curvature="0"
   style="fill:#ffef66;stroke:none" />
         <path
   d="m 12284,14482 -16,-15 v 285 h 31 v -285 l -15,-15 15,15 v -15 h -15 z"
   id="path342"
   inkscape:connector-curvature="0"
   style="fill:#000000;stroke:none" />
         <path
   d="m 11930,14467 -15,15 h 369 v -30 h -369 l -15,15 15,-15 h -15 v 15 z"
   id="path344"
   inkscape:connector-curvature="0"
   style="fill:#000000;stroke:none" />
         <path
   d="m 11915,14736 15,16 v -285 h -30 v 285 l 15,15 -15,-15 v 15 h 15 z"
   id="path346"
   inkscape:connector-curvature="0"
   style="fill:#000000;stroke:none" />
         <path
   d="m 12268,14752 16,-16 h -369 v 31 h 369 l 15,-15 -15,15 h 15 v -15 z"
   id="path348"
   inkscape:connector-curvature="0"
   style="fill:#000000;stroke:none" />
         <path
   d="m 9710,15181 v 0 l 30,-10 33,-8 33,-10 36,-10 36,-10 35,-13 36,-10 35,-10 33,-10 36,-11 33,-10 33,-10 30,-7 28,-8 23,-8 26,-5 -11,-56 -25,5 -28,8 -28,8 -30,7 -33,10 -33,11 -36,10 -33,10 -36,10 -35,10 -36,13 -35,10 -36,10 -33,10 -33,8 -30,10 v 0 z"
   id="path350"
   inkscape:connector-curvature="0"
   style="fill:#ff0066;stroke:none" />
         <path
   d="m 8940,15428 v 0 l 36,-13 38,-15 38,-16 46,-12 45,-16 46,-17 48,-16 51,-15 51,-15 53,-18 54,-15 53,-15 53,-18 54,-15 50,-16 54,-15 -15,-56 -54,15 -51,16 -53,15 -53,18 -54,15 -53,15 -53,18 -51,15 -51,16 -48,15 -51,18 -41,15 -45,13 -44,15 -38,15 -35,13 v 0 z"
   id="path352"
   inkscape:connector-curvature="0"
   style="fill:#ff0066;stroke:none" />
         <path
   d="m 8394,15651 v 0 l 23,-10 25,-13 25,-12 31,-13 30,-13 36,-12 33,-16 38,-15 36,-15 38,-15 38,-16 41,-15 38,-15 38,-15 38,-13 38,-15 -20,-56 -38,15 -39,13 -38,15 -38,15 -40,15 -39,16 -38,15 -35,15 -38,15 -33,16 -36,12 -30,18 -31,13 -30,13 -26,12 -23,10 v 0 z"
   id="path354"
   inkscape:connector-curvature="0"
   style="fill:#ff0066;stroke:none" />
         <path
   d="m 8074,15811 v 0 l 35,-17 38,-21 41,-18 38,-20 43,-20 41,-23 41,-20 43,-21 -26,-51 -43,21 -41,20 -40,23 -43,20 -38,21 -41,17 -38,21 -36,18 v 0 z"
   id="path356"
   inkscape:connector-curvature="0"
   style="fill:#ff0066;stroke:none" />
         <path
   d="m 7891,15898 2,-3 13,-2 18,-11 25,-10 25,-12 31,-16 33,-15 36,-18 -26,-50 -35,17 -33,16 -31,15 -25,12 -21,11 -17,5 -8,2 -8,3 z"
   id="path358"
   inkscape:connector-curvature="0"
   style="fill:#ff0066;stroke:none" />
         <path
   d="m 8655,15616 -5,-1370 -33,33 -5,1357 z"
   id="path360"
   inkscape:connector-curvature="0"
   style="fill:#7f99b2;stroke:none" />
         <path
   d="m 8655,15616 -5,-1370 -33,33 -5,1357 z"
   id="path362"
   inkscape:connector-curvature="0"
   style="fill:none;stroke:#000000" />
         <path
   d="m 10203,15240 -143,-422 -632,261 28,321 z"
   id="path364"
   inkscape:connector-curvature="0"
   style="fill:#000000;stroke:none" />
         <path
   d="m 10203,15240 -143,-422 -632,261 28,321 z"
   id="path366"
   inkscape:connector-curvature="0"
   style="fill:none;stroke:#000000" />
         <path
   d="m 9080,15484 -56,-244 -323,160 10,188 z"
   id="path368"
   inkscape:connector-curvature="0"
   style="fill:#000000;stroke:none" />
         <path
   d="m 9080,15484 -56,-244 -323,160 10,188 z"
   id="path370"
   inkscape:connector-curvature="0"
   style="fill:none;stroke:#000000" />
         <path
   d="m 8541,15664 v -198 l -310,178 v 142 z"
   id="path372"
   inkscape:connector-curvature="0"
   style="fill:#000000;stroke:none" />
         <path
   d="m 8541,15664 v -198 l -310,178 v 142 z"
   id="path374"
   inkscape:connector-curvature="0"
   style="fill:none;stroke:#000000" />
         <path
   d="m 8033,15890 -10,-109 -160,86 17,89 z"
   id="path376"
   inkscape:connector-curvature="0"
   style="fill:#000000;stroke:none" />
         <path
   d="m 8033,15890 -10,-109 -160,86 17,89 z"
   id="path378"
   inkscape:connector-curvature="0"
   style="fill:none;stroke:#000000" />
         <path
   d="m 9756,15021 71,-20 66,-18 61,-15 53,-13 43,-5 36,-5 23,2 10,5 -5,11 -18,12 -30,16 -41,17 -51,23 -58,21 -64,22 -71,23 -71,21 -66,17 -61,16 -54,10 -43,7 -35,5 -23,-2 -10,-5 5,-10 18,-13 30,-15 41,-21 50,-20 59,-23 63,-20 z"
   id="path380"
   inkscape:connector-curvature="0"
   style="fill:#7f99b2;stroke:none" />
         <path
   d="m 9794,15161 71,-21 66,-17 61,-16 53,-12 43,-8 36,-2 h 23 l 10,5 -5,10 -18,15 -30,15 -41,21 -51,20 -58,20 -66,23 -71,23 -72,20 -66,21 -61,15 -50,10 -46,8 -33,2 h -23 l -10,-5 5,-10 18,-13 30,-17 41,-18 51,-21 58,-22 64,-23 z"
   id="path382"
   inkscape:connector-curvature="0"
   style="fill:#ccd6e0;stroke:none" />
         <path
   d="m 8882,15443 33,-13 30,-7 28,-8 25,-8 23,-2 16,-3 12,3 5,2 -2,5 -8,8 -13,10 -17,10 -23,13 -28,13 -31,12 -33,13 -33,13 -30,7 -28,8 -26,8 -22,2 -16,3 -12,-3 -5,-2 2,-5 8,-8 12,-10 21,-13 23,-10 25,-13 31,-12 z"
   id="path384"
   inkscape:connector-curvature="0"
   style="fill:#ccd6e0;stroke:none" />
         <path
   d="m 8861,15356 33,-12 33,-8 28,-7 26,-8 20,-3 h 18 10 l 5,5 -3,6 -7,7 -13,10 -18,10 -23,13 -27,13 -28,13 -33,12 -33,13 -34,8 -27,7 -26,8 -20,2 -18,3 -10,-3 -5,-2 2,-8 8,-7 13,-11 17,-10 23,-12 28,-13 28,-13 z"
   id="path386"
   inkscape:connector-curvature="0"
   style="fill:#7f99b2;stroke:none" />
         <path
   d="m 8363,15669 26,-8 23,-7 20,-8 18,-2 17,-3 11,-2 10,2 2,3 v 5 l -5,5 -10,7 -15,8 -15,10 -21,8 -23,10 -25,10 -25,8 -23,7 -21,8 -17,3 -18,2 -13,3 -8,-3 -5,-2 3,-6 5,-5 10,-7 15,-8 16,-10 20,-8 23,-10 z"
   id="path388"
   inkscape:connector-curvature="0"
   style="fill:#ccd6e0;stroke:none" />
         <path
   d="m 8348,15605 25,-7 23,-8 21,-7 20,-3 15,-2 13,-3 7,3 6,2 -3,5 -5,5 -10,8 -13,7 -18,11 -20,7 -23,10 -23,11 -25,7 -23,8 -23,7 -18,3 -17,3 -11,2 -10,-2 -2,-3 v -5 l 7,-5 10,-8 13,-7 18,-11 20,-7 23,-10 z"
   id="path390"
   inkscape:connector-curvature="0"
   style="fill:#7f99b2;stroke:none" />
         <path
   d="m 7952,15893 25,-8 20,-5 13,-3 8,3 -5,5 -13,8 -18,10 -23,7 -23,8 -20,8 -15,2 -5,-2 2,-5 13,-8 18,-10 z"
   id="path392"
   inkscape:connector-curvature="0"
   style="fill:#ccd6e0;stroke:none" />
         <path
   d="m 7944,15862 25,-7 21,-8 12,-3 8,3 -2,5 -13,8 -21,10 -22,10 -23,8 -21,5 -12,2 -8,-2 3,-5 12,-8 18,-10 z"
   id="path394"
   inkscape:connector-curvature="0"
   style="fill:#7f99b2;stroke:none" />
         <path
   d="m 11105,12670 2,-30 10,-28 16,-25 17,-23 26,-21 25,-12 31,-10 33,-3 33,3 30,10 26,12 25,21 18,23 15,25 10,28 3,30 -3,31 -10,28 -15,25 -18,23 -25,21 -26,12 -30,10 -33,3 -33,-3 -31,-10 -25,-12 -26,-21 -17,-23 -16,-25 -10,-28 z"
   id="path396"
   inkscape:connector-curvature="0"
   style="fill:#ff0000;stroke:none" />
         <path
   d="m 11265,12523 30,3 28,10 26,12 22,18 21,23 13,23 10,28 2,30 -2,28 -10,28 -13,26 -21,20 -22,18 -26,13 -28,10 -30,2 -31,-2 -28,-10 -25,-13 -23,-18 -20,-20 -13,-26 -10,-28 -3,-28 3,-30 10,-28 13,-23 20,-23 23,-18 25,-12 28,-10 z"
   id="path398"
   inkscape:connector-curvature="0"
   style="fill:#ff0c00;stroke:none" />
         <path
   d="m 11262,12531 31,2 28,8 23,13 22,17 18,21 13,23 10,25 3,28 -3,28 -10,28 -13,23 -18,20 -22,18 -23,13 -28,7 -31,3 -28,-3 -28,-7 -25,-13 -20,-18 -18,-20 -13,-23 -10,-28 -3,-28 3,-28 10,-25 13,-23 18,-21 20,-17 25,-13 28,-8 z"
   id="path400"
   inkscape:connector-curvature="0"
   style="fill:#ff1c00;stroke:none" />
         <path
   d="m 11262,12536 28,2 26,8 22,13 21,15 18,20 12,23 8,23 2,28 -2,28 -8,23 -12,23 -18,20 -21,15 -22,13 -26,8 -28,2 -28,-2 -25,-8 -23,-13 -20,-15 -18,-20 -13,-23 -7,-23 -3,-28 3,-28 7,-23 13,-23 18,-20 20,-15 23,-13 25,-8 z"
   id="path402"
   inkscape:connector-curvature="0"
   style="fill:#ff2b00;stroke:none" />
         <path
   d="m 11262,12543 26,3 25,8 20,10 21,15 15,18 13,23 7,23 3,25 -3,25 -7,23 -13,21 -15,20 -21,15 -20,10 -25,8 -26,2 -28,-2 -23,-8 -22,-10 -18,-15 -18,-20 -10,-21 -8,-23 -2,-25 2,-25 8,-23 10,-23 18,-18 18,-15 22,-10 23,-8 z"
   id="path404"
   inkscape:connector-curvature="0"
   style="fill:#ff3800;stroke:none" />
         <path
   d="m 11260,12548 25,3 23,8 20,10 21,15 15,15 10,21 8,23 2,22 -2,23 -8,23 -10,20 -15,18 -21,13 -20,10 -23,8 -25,2 -26,-2 -20,-8 -23,-10 -18,-13 -15,-18 -10,-20 -8,-23 -2,-23 2,-22 8,-23 10,-21 15,-15 18,-15 23,-10 20,-8 z"
   id="path406"
   inkscape:connector-curvature="0"
   style="fill:#ff4700;stroke:none" />
         <path
   d="m 11260,12554 23,2 22,5 18,13 18,13 13,17 10,18 7,21 3,22 -3,23 -7,21 -10,17 -13,16 -18,15 -18,10 -22,5 -23,3 -23,-3 -23,-5 -18,-10 -18,-15 -12,-16 -10,-17 -8,-21 -3,-23 3,-22 8,-21 10,-18 12,-17 18,-13 18,-13 23,-5 z"
   id="path408"
   inkscape:connector-curvature="0"
   style="fill:#ff5600;stroke:none" />
         <path
   d="m 11260,12561 20,3 20,5 18,10 18,13 13,15 10,15 5,21 2,20 -2,20 -5,21 -10,17 -13,16 -18,12 -18,10 -20,5 -20,3 -23,-3 -21,-5 -17,-10 -16,-12 -15,-16 -10,-17 -5,-21 -3,-20 3,-20 5,-21 10,-15 15,-15 16,-13 17,-10 21,-5 z"
   id="path410"
   inkscape:connector-curvature="0"
   style="fill:#ff6300;stroke:none" />
         <path
   d="m 11257,12566 20,3 21,5 15,8 15,12 13,15 10,16 5,18 3,20 -3,20 -5,18 -10,15 -13,15 -15,13 -15,8 -21,5 -20,2 -20,-2 -18,-5 -18,-8 -12,-13 -13,-15 -10,-15 -5,-18 -3,-20 3,-20 5,-18 10,-16 13,-15 12,-12 18,-8 18,-5 z"
   id="path412"
   inkscape:connector-curvature="0"
   style="fill:#ff7200;stroke:none" />
         <path
   d="m 11257,12574 18,2 18,6 15,7 15,10 10,13 8,15 5,18 3,18 -3,18 -5,15 -8,15 -10,15 -15,11 -15,7 -18,5 -18,3 -18,-3 -17,-5 -16,-7 -12,-11 -13,-15 -8,-15 -5,-15 -2,-18 2,-18 5,-18 8,-15 13,-13 12,-10 16,-7 17,-6 z"
   id="path414"
   inkscape:connector-curvature="0"
   style="fill:#ff8200;stroke:none" />
         <path
   d="m 11257,12579 18,3 15,5 13,7 13,10 10,11 7,15 5,15 3,15 -3,18 -5,15 -7,13 -10,13 -13,10 -13,8 -15,2 -18,3 -18,-3 -15,-2 -15,-8 -13,-10 -10,-13 -8,-13 -5,-15 -2,-18 2,-15 5,-15 8,-15 10,-11 13,-10 15,-7 15,-5 z"
   id="path416"
   inkscape:connector-curvature="0"
   style="fill:#ff8e00;stroke:none" />
         <path
   d="m 11255,12587 15,2 15,3 13,7 12,8 11,13 7,12 3,13 2,15 -2,16 -3,12 -7,13 -11,10 -12,10 -13,8 -15,2 -15,3 -16,-3 -15,-2 -13,-8 -10,-10 -10,-10 -8,-13 -2,-12 -3,-16 3,-15 2,-13 8,-12 10,-13 10,-8 13,-7 15,-3 z"
   id="path418"
   inkscape:connector-curvature="0"
   style="fill:#ff9e00;stroke:none" />
         <path
   d="m 11255,12592 28,5 22,15 16,20 5,28 -5,26 -16,20 -22,15 -28,5 -28,-5 -23,-15 -15,-20 -6,-26 6,-28 15,-20 23,-15 z"
   id="path420"
   inkscape:connector-curvature="0"
   style="fill:#ffaa00;stroke:none" />
         <path
   d="m 11255,12599 22,5 21,13 12,18 6,23 -6,23 -12,20 -21,13 -22,5 -26,-5 -20,-13 -13,-20 -5,-23 5,-23 13,-18 20,-13 z"
   id="path422"
   inkscape:connector-curvature="0"
   style="fill:#ffba00;stroke:none" />
         <path
   d="m 11252,12604 23,5 18,11 10,17 5,21 -5,20 -10,18 -18,10 -23,5 -20,-5 -18,-10 -10,-18 -5,-20 5,-21 10,-17 18,-11 z"
   id="path424"
   inkscape:connector-curvature="0"
   style="fill:#ffc900;stroke:none" />
         <path
   d="m 11252,12609 18,6 15,10 10,12 5,18 -5,18 -10,15 -15,10 -18,3 -18,-3 -15,-10 -10,-15 -5,-18 5,-18 10,-12 15,-10 z"
   id="path426"
   inkscape:connector-curvature="0"
   style="fill:#ffd600;stroke:none" />
         <path
   d="m 11211,12655 3,-15 10,-13 13,-7 15,-3 15,3 13,7 8,13 2,15 -2,15 -8,11 -13,10 -15,2 -15,-2 -13,-10 -10,-11 z"
   id="path428"
   inkscape:connector-curvature="0"
   style="fill:#ffe500;stroke:none" />
         <path
   d="m 13577,15692 v -94 h -226 v 94 z"
   id="path430"
   inkscape:connector-curvature="0"
   style="fill:#7f99b2;stroke:none" />
         <path
   d="m 13180,15692 v -94 h -226 v 94 z"
   id="path432"
   inkscape:connector-curvature="0"
   style="fill:#7f99b2;stroke:none" />
         <path
   d="m 12764,15672 v -94 h -226 v 94 z"
   id="path434"
   inkscape:connector-curvature="0"
   style="fill:#7f99b2;stroke:none" />
         <path
   d="m 12332,15672 v -94 h -226 v 94 z"
   id="path436"
   inkscape:connector-curvature="0"
   style="fill:#7f99b2;stroke:none" />
         <path
   d="m 11936,15672 v -94 h -227 v 94 z"
   id="path438"
   inkscape:connector-curvature="0"
   style="fill:#7f99b2;stroke:none" />
         <path
   d="m 11519,15692 v -94 h -226 v 94 z"
   id="path440"
   inkscape:connector-curvature="0"
   style="fill:#7f99b2;stroke:none" />
         <path
   d="m 11125,15710 -3,-92 -223,8 2,91 z"
   id="path442"
   inkscape:connector-curvature="0"
   style="fill:#7f99b2;stroke:none" />
         <path
   d="m 10736,15730 -2,-91 -221,10 5,91 z"
   id="path444"
   inkscape:connector-curvature="0"
   style="fill:#7f99b2;stroke:none" />
         <path
   d="m 10340,15766 -13,-92 -218,28 12,92 z"
   id="path446"
   inkscape:connector-curvature="0"
   style="fill:#7f99b2;stroke:none" />
         <path
   d="m 9959,15824 -13,-89 -216,31 13,91 z"
   id="path448"
   inkscape:connector-curvature="0"
   style="fill:#7f99b2;stroke:none" />
         <path
   d="m 9603,15867 -23,-81 -221,51 23,81 z"
   id="path450"
   inkscape:connector-curvature="0"
   style="fill:#7f99b2;stroke:none" />
         <path
   d="m 9222,15949 -23,-87 -206,54 23,86 z"
   id="path452"
   inkscape:connector-curvature="0"
   style="fill:#7f99b2;stroke:none" />
         <path
   d="m 8882,16035 -33,-81 -196,78 33,82 z"
   id="path454"
   inkscape:connector-curvature="0"
   style="fill:#7f99b2;stroke:none" />
         <path
   d="m 8572,16154 -41,-76 -186,97 41,76 z"
   id="path456"
   inkscape:connector-curvature="0"
   style="fill:#7f99b2;stroke:none" />
         <path
   d="m 8272,16292 -49,-72 -170,117 49,71 z"
   id="path458"
   inkscape:connector-curvature="0"
   style="fill:#7f99b2;stroke:none" />
         <path
   d="m 13849,15212 -229,-3 h -224 l -223,-2 h -221 l -216,2 h -216 l -214,3 -210,5 -209,5 -206,7 -203,11 -201,10 -198,12 -195,16 -196,17 -191,21 -190,23 -186,25 -185,28 -183,31 -180,35 -178,38 -178,43 -173,46 -173,51 -167,53 -168,59 -165,61 -163,68 -162,72 -158,76 -157,81 -64,36 -58,38 -54,38 -48,38 -41,41 -35,40 -28,41 -23,43 -13,41 -5,43 3,41 12,43 21,41 30,40 43,41 51,38 64,41 73,38 87,35 99,36 112,36 124,33 140,30 150,28 168,28 180,25 198,23 211,21 229,20 246,15 262,13 279,10 -48,-10 -58,-13 -64,-13 -63,-12 -61,-10 -46,-8 -33,-5 -13,-3 -211,-10 -201,-10 -190,-15 -180,-16 -171,-17 -160,-18 -150,-20 -137,-23 -129,-23 -117,-28 -110,-26 -99,-30 -86,-28 -79,-33 -66,-33 -56,-36 -48,-35 -36,-38 -28,-38 -17,-41 -5,-41 2,-43 15,-43 23,-43 33,-46 43,-48 56,-49 64,-48 74,-51 81,-51 94,-50 104,-54 175,-81 183,-76 183,-69 191,-63 190,-59 196,-51 198,-45 198,-44 204,-35 200,-33 206,-28 203,-23 206,-20 206,-18 206,-13 203,-10 203,-10 201,-5 201,-3 198,-2 193,-3 193,3 h 188 l 186,2 180,3 178,2 170,3 168,2 h 160 155 150 l 142,-2 z"
   id="path460"
   inkscape:connector-curvature="0"
   style="fill:#000000;stroke:none" />
         <path
   d="m 13894,15443 -205,-3 -204,-2 -203,-3 -201,-2 -198,-5 -198,-3 -196,-2 -193,-3 -190,-3 h -191 -188 l -185,3 -186,3 -183,7 -180,5 -178,10 -175,13 -176,15 -170,18 -170,20 -168,23 -165,28 -165,31 -160,35 -158,38 -157,44 -155,48 -150,53 -150,56 -147,64 -143,66 -142,74 -74,40 -71,41 -66,40 -61,41 -56,38 -50,38 -46,41 -38,38 -33,36 -23,38 -18,35 -8,33 3,36 10,33 20,31 31,33 41,28 50,30 66,28 74,25 89,26 102,23 117,23 127,20 144,20 158,18 175,15 188,16 206,12 224,10 241,8 257,8 -46,-11 -53,-10 -56,-12 -59,-11 -51,-10 -43,-7 -30,-5 -10,-3 h -125 l -124,-3 -125,-2 -119,-5 -117,-5 -117,-8 -112,-10 -107,-10 -104,-10 -99,-13 -94,-15 -89,-18 -84,-18 -76,-18 -71,-23 -63,-22 -56,-23 -49,-28 -40,-28 -33,-31 -21,-30 -15,-36 -2,-35 7,-38 18,-39 28,-43 41,-43 53,-46 63,-48 79,-51 89,-53 104,-54 165,-78 168,-69 175,-66 181,-58 185,-51 188,-46 193,-43 196,-36 196,-30 200,-28 201,-21 203,-20 201,-15 203,-10 204,-10 200,-6 201,-5 h 196 195 193 l 188,3 186,5 180,5 178,5 170,3 163,5 160,5 150,2 145,3 h 134 l 128,-3 119,-2 z"
   id="path462"
   inkscape:connector-curvature="0"
   style="fill:#000000;stroke:none" />
        </g>
       </g>
      </g>
     </g>
    </g>
   </g>
  </g>
 </g>
</svg>