<?xml version="1.0" encoding="UTF-8" standalone="no"?>
<svg
   xmlns:ooo="http://xml.openoffice.org/svg/export"
   xmlns:dc="http://purl.org/dc/elements/1.1/"
   xmlns:cc="http://creativecommons.org/ns#"
   xmlns:rdf="http://www.w3.org/1999/02/22-rdf-syntax-ns#"
   xmlns:svg="http://www.w3.org/2000/svg"
   xmlns="http://www.w3.org/2000/svg"
   xmlns:sodipodi="http://sodipodi.sourceforge.net/DTD/sodipodi-0.dtd"
   xmlns:inkscape="http://www.inkscape.org/namespaces/inkscape"
   version="1.2"
   width="54.099998mm"
   height="26.950001mm"
   viewBox="0 0 5409.9998 2695.0001"
   preserveAspectRatio="xMidYMid"
   xml:space="preserve"
   id="svg161"
   sodipodi:docname="train.svg"
   style="fill-rule:evenodd;stroke-width:28.22200012;stroke-linejoin:round"
   inkscape:version="0.92.5 (2060ec1f9f, 2020-04-08)"><metadata
   id="metadata165"><rdf:RDF><cc:Work
       rdf:about=""><dc:format>image/svg+xml</dc:format><dc:type
         rdf:resource="http://purl.org/dc/dcmitype/StillImage" /></cc:Work></rdf:RDF></metadata><sodipodi:namedview
   pagecolor="#ffffff"
   bordercolor="#666666"
   borderopacity="1"
   objecttolerance="10"
   gridtolerance="10"
   guidetolerance="10"
   inkscape:pageopacity="0"
   inkscape:pageshadow="2"
   inkscape:window-width="664"
   inkscape:window-height="487"
   id="namedview163"
   showgrid="false"
   inkscape:zoom="0.2102413"
   inkscape:cx="102.23622"
   inkscape:cy="50.910235"
   inkscape:window-x="0"
   inkscape:window-y="0"
   inkscape:window-maximized="0"
   inkscape:current-layer="svg161" />
 <defs
   class="ClipPathGroup"
   id="defs8">
  <clipPath
   id="presentation_clip_path"
   clipPathUnits="userSpaceOnUse">
   <rect
   x="0"
   y="0"
   width="21000"
   height="29700"
   id="rect2" />
  </clipPath>
  <clipPath
   id="presentation_clip_path_shrink"
   clipPathUnits="userSpaceOnUse">
   <rect
   x="21"
   y="29"
   width="20958"
   height="29641"
   id="rect5" />
  </clipPath>
 </defs>
 <defs
   class="TextShapeIndex"
   id="defs12">
  <g
   ooo:slide="id1"
   ooo:id-list="id3"
   id="g10" />
 </defs>
 <defs
   class="EmbeddedBulletChars"
   id="defs44">
  <g
   id="bullet-char-template-57356"
   transform="matrix(4.8828125e-4,0,0,-4.8828125e-4,0,0)">
   <path
   d="M 580,1141 1163,571 580,0 -4,571 Z"
   id="path14"
   inkscape:connector-curvature="0" />
  </g>
  <g
   id="bullet-char-template-57354"
   transform="matrix(4.8828125e-4,0,0,-4.8828125e-4,0,0)">
   <path
   d="M 8,1128 H 1137 V 0 H 8 Z"
   id="path17"
   inkscape:connector-curvature="0" />
  </g>
  <g
   id="bullet-char-template-10146"
   transform="matrix(4.8828125e-4,0,0,-4.8828125e-4,0,0)">
   <path
   d="M 174,0 602,739 174,1481 1456,739 Z M 1358,739 309,1346 659,739 Z"
   id="path20"
   inkscape:connector-curvature="0" />
  </g>
  <g
   id="bullet-char-template-10132"
   transform="matrix(4.8828125e-4,0,0,-4.8828125e-4,0,0)">
   <path
   d="M 2015,739 1276,0 H 717 l 543,543 H 174 v 393 h 1086 l -543,545 h 557 z"
   id="path23"
   inkscape:connector-curvature="0" />
  </g>
  <g
   id="bullet-char-template-10007"
   transform="matrix(4.8828125e-4,0,0,-4.8828125e-4,0,0)">
   <path
   d="m 0,-2 c -7,16 -16,29 -25,39 l 381,530 c -94,256 -141,385 -141,387 0,25 13,38 40,38 9,0 21,-2 34,-5 21,4 42,12 65,25 l 27,-13 111,-251 280,301 64,-25 24,25 c 21,-10 41,-24 62,-43 C 886,937 835,863 770,784 769,783 710,716 594,584 L 774,223 c 0,-27 -21,-55 -63,-84 l 16,-20 C 717,90 699,76 672,76 641,76 570,178 457,381 L 164,-76 c -22,-34 -53,-51 -92,-51 -42,0 -63,17 -64,51 -7,9 -10,24 -10,44 0,9 1,19 2,30 z"
   id="path26"
   inkscape:connector-curvature="0" />
  </g>
  <g
   id="bullet-char-template-10004"
   transform="matrix(4.8828125e-4,0,0,-4.8828125e-4,0,0)">
   <path
   d="M 285,-33 C 182,-33 111,30 74,156 52,228 41,333 41,471 c 0,78 14,145 41,201 34,71 87,106 158,106 53,0 88,-31 106,-94 l 23,-176 c 8,-64 28,-97 59,-98 l 735,706 c 11,11 33,17 66,17 42,0 63,-15 63,-46 V 965 c 0,-36 -10,-64 -30,-84 L 442,47 C 390,-6 338,-33 285,-33 Z"
   id="path29"
   inkscape:connector-curvature="0" />
  </g>
  <g
   id="bullet-char-template-9679"
   transform="matrix(4.8828125e-4,0,0,-4.8828125e-4,0,0)">
   <path
   d="M 813,0 C 632,0 489,54 383,161 276,268 223,411 223,592 c 0,181 53,324 160,431 106,107 249,161 430,161 179,0 323,-54 432,-161 108,-107 162,-251 162,-431 0,-180 -54,-324 -162,-431 C 1136,54 992,0 813,0 Z"
   id="path32"
   inkscape:connector-curvature="0" />
  </g>
  <g
   id="bullet-char-template-8226"
   transform="matrix(4.8828125e-4,0,0,-4.8828125e-4,0,0)">
   <path
   d="m 346,457 c -73,0 -137,26 -191,78 -54,51 -81,114 -81,188 0,73 27,136 81,188 54,52 118,78 191,78 73,0 134,-26 185,-79 51,-51 77,-114 77,-187 0,-75 -25,-137 -76,-188 -50,-52 -112,-78 -186,-78 z"
   id="path35"
   inkscape:connector-curvature="0" />
  </g>
  <g
   id="bullet-char-template-8211"
   transform="matrix(4.8828125e-4,0,0,-4.8828125e-4,0,0)">
   <path
   d="M -4,459 H 1135 V 606 H -4 Z"
   id="path38"
   inkscape:connector-curvature="0" />
  </g>
  <g
   id="bullet-char-template-61548"
   transform="matrix(4.8828125e-4,0,0,-4.8828125e-4,0,0)">
   <path
   d="m 173,740 c 0,163 58,303 173,419 116,115 255,173 419,173 163,0 302,-58 418,-173 116,-116 174,-256 174,-419 0,-163 -58,-303 -174,-418 C 1067,206 928,148 765,148 601,148 462,206 346,322 231,437 173,577 173,740 Z"
   id="path41"
   inkscape:connector-curvature="0" />
  </g>
 </defs>
 <g
   id="g49"
   transform="translate(-7795,-13502)">
  <g
   id="id2"
   class="Master_Slide">
   <g
   id="bg-id2"
   class="Background" />
   <g
   id="bo-id2"
   class="BackgroundObjects" />
  </g>
 </g>
 <g
   class="SlideGroup"
   id="g159"
   transform="translate(-7795,-13502)">
  <g
   id="g157">
   <g
   id="container-id1">
    <g
   id="id1"
   class="Slide"
   clip-path="url(#presentation_clip_path)">
     <g
   class="Page"
   id="g153">
      <g
   class="Graphic"
   id="g151">
       <g
   id="id3">
        <rect
   class="BoundingBox"
   x="7795"
   y="13502"
   width="5410"
   height="2695"
   id="rect51"
   style="fill:none;stroke:none" />
        <defs
   id="defs56">
         <clipPath
   id="clip_path_1"
   clipPathUnits="userSpaceOnUse">
          <path
   d="m 7795,13502 h 5409 v 2694 H 7795 Z"
   id="path53"
   inkscape:connector-curvature="0" />
         </clipPath>
        </defs>
        <g
   clip-path="url(#clip_path_1)"
   id="g148">
         <path
   d="m 7808,14811 5,-43 23,-33 35,-25 43,-18 46,-10 h 43 l 38,7 28,18 23,-46 33,-38 44,-28 48,-18 48,-7 h 43 l 38,13 26,25 5,-43 13,-38 22,-33 28,-28 33,-23 41,-18 41,-15 43,-11 43,-2 43,-3 41,5 38,11 33,12 28,18 20,23 11,25 35,-25 43,-18 51,-10 h 51 l 48,10 46,18 38,31 26,43 25,-28 31,-23 33,-20 38,-13 38,-10 40,-5 h 41 l 41,5 40,7 36,13 36,18 30,20 25,26 18,28 15,33 6,38 40,2 49,10 50,16 51,23 46,28 43,35 31,38 20,44 -493,-11 -13,-33 -28,-28 -40,-23 -49,-10 -53,-2 -51,10 -43,25 -36,41 -25,-36 -36,-30 -40,-23 -46,-15 -43,-8 -41,-2 -33,10 -23,15 -40,-38 -51,-20 -54,-8 -53,8 -51,20 -38,30 -28,44 -7,50 -16,-5 h -18 -17 l -18,5 -15,6 -13,7 -13,10 -5,11 -28,-16 -33,-7 -33,-3 -30,3 -31,7 -28,10 -20,13 -15,15 -31,-20 -35,-15 -39,-10 -38,-5 h -38 l -33,5 -30,10 -26,13 -23,-11 -25,-7 -25,-5 -26,-5 h -25 l -26,2 -20,8 z"
   id="path58"
   inkscape:connector-curvature="0"
   style="fill:#000000;stroke:none" />
         <path
   d="m 9088,14252 11,-30 22,-28 33,-28 39,-23 40,-18 43,-13 39,-2 33,5 -5,-49 20,-45 35,-41 49,-33 53,-23 53,-5 51,13 38,35 26,-33 33,-25 40,-13 44,-8 h 43 l 35,6 28,12 13,13 5,-41 18,-40 25,-36 33,-36 41,-30 46,-28 51,-20 50,-16 51,-7 h 51 l 51,7 46,18 40,28 36,38 25,51 18,61 23,3 25,10 23,15 23,23 20,25 16,28 10,31 2,30 26,-2 33,5 33,15 33,23 28,31 23,38 15,51 3,58 -8,-18 -15,-18 -21,-15 -23,-13 -25,-7 -25,-5 h -21 l -17,5 -36,-31 -41,-23 -43,-15 -43,-5 h -43 l -44,10 -35,16 -33,25 -41,-10 -40,-3 -44,5 -40,10 -38,16 -31,23 -20,25 -8,28 -23,-20 -28,-18 -28,-15 -30,-11 -31,-10 -33,-5 -33,-2 h -35 l -33,2 -33,8 -31,7 -30,13 -28,15 -28,16 -23,20 -20,23 h -23 -31 l -35,-3 h -38 l -44,-2 -45,-3 -46,-2 -46,-3 h -43 l -43,-2 -38,-3 -36,-2 h -28 l -23,-3 h -12 z"
   id="path60"
   inkscape:connector-curvature="0"
   style="fill:#000000;stroke:none" />
         <path
   d="m 8207,15833 10,-2 h 28 35 l 44,2 40,3 36,5 25,3 h 10 v -13 l -35,-18 -18,-23 -8,-25 -2,-28 2,-13 5,-15 11,-15 12,-16 16,-15 17,-13 21,-12 23,-11 10,-2 15,-8 20,-7 26,-13 12,-5 16,-8 17,-5 18,-7 43,-18 46,-21 51,-22 56,-23 58,-26 61,-25 61,-28 66,-28 66,-28 69,-31 66,-28 69,-30 68,-28 66,-28 66,-28 64,-28 15,-8 18,-7 15,-5 16,-8 83,-36 77,-33 68,-30 59,-25 48,-21 36,-15 22,-10 8,-3 28,-20 33,-26 43,-28 46,-35 53,-38 56,-41 56,-41 61,-43 59,-41 58,-43 56,-38 51,-38 48,-33 41,-28 35,-25 28,-18 38,-10 38,-8 41,-8 41,-5 43,-5 43,-5 43,-2 h 46 43 43 44 l 43,2 43,3 41,2 38,3 38,5 36,-13 40,-13 43,-15 46,-15 43,-15 44,-16 40,-12 33,-13 8,-26 15,-20 18,-15 23,-10 25,-5 h 26 l 28,2 22,10 36,36 15,51 -5,51 -28,40 h 21 l 20,5 18,3 17,8 16,10 12,10 13,15 10,15 10,3 11,3 7,2 10,3 31,15 25,18 26,23 23,25 20,28 18,30 17,33 16,36 2,8 5,7 3,10 2,8 5,20 8,18 5,21 5,20 3,10 2,8 v 10 l 3,10 23,127 10,127 5,112 -3,89 v 13 13 l -2,10 v 7 l 20,74 -2,61 -18,46 -25,28 20,353 434,8 107,91 76,64 196,150 h -15 l -41,-3 -69,-5 -91,-7 -112,-8 -134,-8 -153,-10 -168,-12 -183,-11 -195,-15 -209,-13 -216,-15 -223,-15 -229,-15 -234,-16 -234,-17 -233,-16 -232,-15 -228,-18 -224,-15 -216,-15 -206,-15 -195,-16 -183,-12 -168,-13 -152,-13 -133,-10 -111,-10 -92,-8 -66,-7 -41,-5 z"
   id="path62"
   inkscape:connector-curvature="0"
   style="fill:#000000;stroke:none" />
         <path
   d="m 9073,15851 -638,-20 v 13 l 4574,203 -76,-64 -1410,-48 -3,-56 -5,-58 -15,-54 -25,-51 -36,-43 -53,-33 -72,-18 -89,-2 -53,2 -56,5 -61,3 -63,5 -64,5 -63,3 -61,5 -61,5 -56,2 -54,6 -48,2 -41,3 -33,2 h -25 l -18,3 h -5 l 13,-682 -209,79 -22,623 -1777,127 598,-10 -3,13 3,12 2,13 z"
   id="path64"
   inkscape:connector-curvature="0"
   style="fill:#ffffff;stroke:none" />
         <path
   d="m 11380,15577 666,-16 26,77 h -557 l -2,-3 -8,-5 -13,-10 -17,-10 -21,-10 -23,-11 -25,-7 z"
   id="path66"
   inkscape:connector-curvature="0"
   style="fill:#ffffff;stroke:none" />
         <path
   d="m 11551,15681 h 528 l 21,86 -506,-5 -3,-7 -5,-18 -12,-26 z"
   id="path68"
   inkscape:connector-curvature="0"
   style="fill:#ffffff;stroke:none" />
         <path
   d="m 11609,15800 496,5 17,72 h -508 v -11 -20 l -2,-25 z"
   id="path70"
   inkscape:connector-curvature="0"
   style="fill:#ffffff;stroke:none" />
         <path
   d="m 12089,15561 h 102 l 74,316 h -94 z"
   id="path72"
   inkscape:connector-curvature="0"
   style="fill:#ffffff;stroke:none" />
         <path
   d="m 12288,15561 h 48 v 72 h -48 z"
   id="path74"
   inkscape:connector-curvature="0"
   style="fill:#ffffff;stroke:none" />
         <path
   d="m 12288,15678 h 48 v 92 h -48 z"
   id="path76"
   inkscape:connector-curvature="0"
   style="fill:#ffffff;stroke:none" />
         <path
   d="m 12288,15808 h 48 v 69 h -48 z"
   id="path78"
   inkscape:connector-curvature="0"
   style="fill:#ffffff;stroke:none" />
         <path
   d="m 11774,14549 h 36 l 30,3 26,5 25,8 21,18 20,22 18,31 17,43 21,64 15,79 15,86 8,89 5,86 -3,77 -10,61 -17,38 -39,2 -38,3 -38,2 -40,3 -41,3 -41,2 h -40 -39 l -38,-2 -35,-6 -33,-7 -33,-8 -28,-13 -23,-15 -20,-18 -18,-22 -26,-49 -15,-51 -8,-53 v -56 l 8,-56 15,-58 23,-59 28,-61 31,-53 33,-43 30,-33 33,-23 36,-18 40,-10 41,-8 z"
   id="path80"
   inkscape:connector-curvature="0"
   style="fill:#ffffff;stroke:none" />
         <path
   d="m 12163,15429 54,-109 30,-122 8,-132 -8,-135 -23,-135 -33,-127 -41,-117 -43,-97 10,3 11,3 7,2 10,3 11,15 10,18 10,20 13,23 10,25 10,28 10,33 10,36 92,10 2,8 5,7 3,10 2,8 -94,-8 5,21 8,23 5,20 3,8 96,15 3,10 2,8 v 10 l 3,10 -97,-15 18,76 10,104 3,120 -15,127 116,43 v 13 13 l -2,10 v 7 l -66,-17 v 20 20 l -5,23 -3,18 h -7 -21 -23 -15 l -20,43 z"
   id="path82"
   inkscape:connector-curvature="0"
   style="fill:#ffffff;stroke:none" />
         <path
   d="m 11164,14631 61,-33 61,-31 56,-28 56,-23 54,-22 53,-18 48,-15 49,-16 43,-12 43,-8 38,-8 36,-7 33,-3 30,-2 h 26 22 l 44,2 38,5 33,10 28,16 28,23 23,30 22,41 21,53 25,84 28,102 20,112 16,119 2,120 -12,114 -33,104 -56,87 -941,45 -53,-76 h 36 l 48,-2 61,-3 69,-3 76,-2 81,-3 84,-5 84,-5 84,-2 78,-5 72,-3 66,-2 53,-3 41,-3 25,-2 h 10 l 31,-69 17,-86 8,-94 v -102 l -10,-97 -10,-91 -18,-79 -15,-58 -15,-46 -16,-41 -20,-38 -23,-33 -33,-28 -41,-20 -56,-13 -71,-5 h -40 l -41,2 -41,6 -43,7 -41,8 -43,7 -40,13 -41,10 -43,13 -41,15 -38,13 -41,15 -38,18 -35,15 -36,18 z"
   id="path84"
   inkscape:connector-curvature="0"
   style="fill:#ffffff;stroke:none" />
         <path
   d="m 11924,14247 -38,-5 -28,13 -15,25 -3,31 11,30 22,20 33,8 49,-15 -28,2 -21,-7 -17,-18 -10,-20 -3,-23 5,-21 15,-15 z"
   id="path86"
   inkscape:connector-curvature="0"
   style="fill:#ffffff;stroke:none" />
         <path
   d="m 10926,14473 38,-10 56,-10 63,-8 69,-7 63,-3 h 56 l 38,10 18,16 -28,17 -43,26 -51,30 -56,31 -58,28 -59,28 -53,20 -43,13 -15,-36 -6,-48 v -51 z"
   id="path88"
   inkscape:connector-curvature="0"
   style="fill:#ffffff;stroke:none" />
         <path
   d="m 10827,14575 v 23 l 2,30 3,36 5,28 -10,5 -13,8 -15,5 -13,5 -15,7 -16,5 -15,8 -13,5 v -25 -33 l 3,-28 10,-21 8,-7 7,-8 11,-7 10,-11 12,-7 13,-8 13,-5 z"
   id="path90"
   inkscape:connector-curvature="0"
   style="fill:#ffffff;stroke:none" />
         <path
   d="m 10682,14654 -3,25 -2,31 v 28 23 l -13,5 -15,7 -13,5 -13,5 -12,5 -11,6 -5,2 h -2 l -8,-23 -2,-28 5,-25 7,-15 8,-6 8,-7 10,-5 12,-8 13,-7 10,-8 13,-5 z"
   id="path92"
   inkscape:connector-curvature="0"
   style="fill:#ffffff;stroke:none" />
         <path
   d="m 10542,14725 -3,23 v 25 28 21 l -12,5 -21,7 -25,13 -25,10 -23,13 -21,7 -15,8 -5,3 5,-13 10,-20 13,-23 18,-26 20,-25 23,-23 30,-20 z"
   id="path94"
   inkscape:connector-curvature="0"
   style="fill:#ffffff;stroke:none" />
         <path
   d="m 8550,15597 12,-5 16,-8 17,-5 18,-7 -12,33 -13,38 -8,40 3,46 -49,8 v -15 -36 l 6,-46 z"
   id="path96"
   inkscape:connector-curvature="0"
   style="fill:#ffffff;stroke:none" />
         <path
   d="m 9589,15152 15,-8 18,-7 15,-5 16,-8 -31,38 -20,49 -13,55 -8,64 -2,66 v 74 71 l 2,74 -45,5 v -18 l -3,-46 v -68 -79 l 5,-82 10,-76 16,-61 z"
   id="path98"
   inkscape:connector-curvature="0"
   style="fill:#ffffff;stroke:none" />
         <path
   d="m 10166,15322 -127,28 2,-195 130,-44 z"
   id="path100"
   inkscape:connector-curvature="0"
   style="fill:#ffffff;stroke:none" />
         <path
   d="m 9942,15371 -109,25 3,-175 109,-36 z"
   id="path102"
   inkscape:connector-curvature="0"
   style="fill:#ffffff;stroke:none" />
         <path
   d="m 9498,15467 -74,16 v -128 l 71,-22 z"
   id="path104"
   inkscape:connector-curvature="0"
   style="fill:#ffffff;stroke:none" />
         <path
   d="m 9640,15284 99,-30 v 162 l -99,21 z"
   id="path106"
   inkscape:connector-curvature="0"
   style="fill:#ffffff;stroke:none" />
         <path
   d="m 9378,15495 -76,16 -3,-115 74,-23 z"
   id="path108"
   inkscape:connector-curvature="0"
   style="fill:#ffffff;stroke:none" />
         <path
   d="m 9249,15521 -74,18 -3,-102 77,-26 z"
   id="path110"
   inkscape:connector-curvature="0"
   style="fill:#ffffff;stroke:none" />
         <path
   d="m 9124,15549 -76,17 v -89 l 76,-25 z"
   id="path112"
   inkscape:connector-curvature="0"
   style="fill:#ffffff;stroke:none" />
         <path
   d="m 8997,15577 -74,15 v -74 l 74,-23 z"
   id="path114"
   inkscape:connector-curvature="0"
   style="fill:#ffffff;stroke:none" />
         <path
   d="m 8872,15605 -55,10 v -61 l 55,-18 z"
   id="path116"
   inkscape:connector-curvature="0"
   style="fill:#ffffff;stroke:none" />
         <path
   d="m 8766,15627 -49,11 3,-54 46,-15 z"
   id="path118"
   inkscape:connector-curvature="0"
   style="fill:#ffffff;stroke:none" />
         <path
   d="m 8669,15648 -33,7 v -43 l 33,-10 z"
   id="path120"
   inkscape:connector-curvature="0"
   style="fill:#ffffff;stroke:none" />
         <path
   d="m 10666,14916 26,33 -31,28 -15,38 -5,38 v 28 58 107 112 71 l 3,36 7,25 13,18 20,15 -28,31 -10,-5 -18,-16 -20,-35 -10,-61 v -97 -114 -107 -66 l 2,-38 11,-36 20,-30 z"
   id="path122"
   inkscape:connector-curvature="0"
   style="fill:#ffffff;stroke:none" />
         <path
   d="m 10793,14890 26,36 -31,28 -15,35 -5,38 v 28 59 104 112 74 l 3,33 10,25 12,21 21,12 -28,31 -10,-3 -21,-18 -20,-33 -10,-61 v -96 -115 -106 -67 l 2,-38 11,-35 20,-31 z"
   id="path124"
   inkscape:connector-curvature="0"
   style="fill:#ffffff;stroke:none" />
         <path
   d="m 9658,15872 -486,-16 13,-12 5,-16 v -17 l -8,-11 468,-23 -23,18 -10,28 8,26 z"
   id="path126"
   inkscape:connector-curvature="0"
   style="fill:#000000;stroke:none" />
         <path
   d="m 11416,15933 -102,-3 16,-20 10,-23 7,-23 3,-25 -3,-31 -10,-25 -15,-23 -20,-18 25,5 26,8 20,12 15,21 13,23 10,33 5,40 z"
   id="path128"
   inkscape:connector-curvature="0"
   style="fill:#000000;stroke:none" />
         <path
   d="m 11104,15861 -8,8 5,18 15,20 15,15 -338,-10 11,-12 7,-16 8,-15 2,-15 h -48 l -38,2 h -28 l -20,-2 -15,-3 -8,-5 -5,-10 v -13 l 2,-7 5,-5 11,-3 15,-3 h 20 l 28,3 h 36 45 l -5,-15 -5,-16 -7,-12 -11,-13 364,-18 -18,16 -15,15 -10,20 -8,20 h 31 27 26 20 l 18,3 13,5 7,10 3,13 -3,13 -10,7 -15,5 -20,3 h -23 -26 l -25,-3 z"
   id="path130"
   inkscape:connector-curvature="0"
   style="fill:#000000;stroke:none" />
         <path
   d="m 10600,15907 -432,-18 8,-12 5,-13 3,-15 2,-16 -2,-17 -3,-18 -8,-15 -10,-16 422,-10 -10,15 -3,18 3,21 v 22 l 3,21 5,18 7,17 z"
   id="path132"
   inkscape:connector-curvature="0"
   style="fill:#000000;stroke:none" />
         <path
   d="m 9963,15841 2,10 5,13 3,10 5,10 -226,-7 10,-8 7,-13 8,-12 3,-8 h -18 -18 l -18,3 h -15 l -13,-3 h -10 l -5,-5 -3,-5 v -8 l 3,-5 5,-5 8,-3 12,-2 h 18 23 31 l -3,-3 -5,-7 -5,-10 -10,-8 223,-3 -5,11 -5,10 -5,12 -2,11 h 7 l 18,-3 h 25 31 30 l 26,3 18,5 5,5 -5,7 -11,3 -15,5 h -23 l -23,3 h -28 l -27,-3 z"
   id="path134"
   inkscape:connector-curvature="0"
   style="fill:#000000;stroke:none" />
         <path
   d="m 11909,14664 -3,-13 -5,-13 -2,-10 -5,-10 -41,-5 h -43 -43 l -43,5 -44,8 -35,10 -31,13 -23,12 -7,11 -8,10 -7,12 -8,13 30,-10 39,-10 43,-10 45,-11 49,-7 51,-3 h 45 z"
   id="path136"
   inkscape:connector-curvature="0"
   style="fill:#000000;stroke:none" />
         <path
   d="m 11934,14761 -2,-13 -3,-10 -2,-13 -3,-10 -48,-5 -53,2 -59,5 -56,10 -56,11 -50,12 -44,16 -33,12 -5,13 -5,13 -5,12 -5,13 23,-7 23,-8 23,-8 28,-7 25,-5 28,-8 28,-5 28,-8 28,-5 30,-2 28,-5 28,-3 h 28 28 28 z"
   id="path138"
   inkscape:connector-curvature="0"
   style="fill:#000000;stroke:none" />
         <path
   d="m 11950,14855 -3,-11 v -12 -10 l -2,-11 -28,-2 -31,-3 h -30 l -33,3 -36,2 -33,3 -36,8 -33,5 -33,7 -30,8 -31,8 -28,10 -25,7 -23,10 -18,8 -15,10 -2,13 -5,13 -3,12 -3,11 16,-8 17,-5 23,-10 23,-8 28,-10 28,-10 33,-8 31,-10 35,-8 33,-5 36,-7 35,-3 39,-2 h 35 33 z"
   id="path140"
   inkscape:connector-curvature="0"
   style="fill:#000000;stroke:none" />
         <path
   d="m 11960,14949 v -11 -10 l -3,-12 v -11 l -40,-2 h -38 l -39,2 -38,3 -35,5 -36,5 -33,8 -33,7 -30,8 -31,10 -28,8 -28,10 -25,10 -23,10 -20,11 -21,10 -2,15 v 15 15 l 2,13 16,-13 20,-12 25,-13 28,-13 31,-12 33,-11 33,-10 38,-10 35,-8 39,-7 38,-8 35,-2 36,-3 33,-2 33,2 z"
   id="path142"
   inkscape:connector-curvature="0"
   style="fill:#000000;stroke:none" />
         <path
   d="m 11965,15058 v -13 -15 -13 -12 h -43 -41 l -41,5 -38,2 -38,8 -35,7 -33,8 -31,8 -30,10 -28,10 -28,10 -23,10 -21,11 -20,10 -15,10 -15,10 10,10 13,8 10,8 10,7 13,-7 15,-8 18,-10 22,-10 23,-8 23,-10 28,-8 28,-8 31,-7 30,-8 33,-5 33,-5 36,-5 h 33 l 35,-3 z"
   id="path144"
   inkscape:connector-curvature="0"
   style="fill:#000000;stroke:none" />
         <path
   d="m 11960,15170 2,-13 v -15 -15 -13 l -53,-3 -53,3 -56,8 -51,10 -51,10 -43,15 -38,15 -28,16 13,5 10,2 12,5 13,3 13,2 h 15 l 15,3 16,3 22,-8 28,-8 33,-7 36,-8 36,-5 38,-5 h 38 z"
   id="path146"
   inkscape:connector-curvature="0"
   style="fill:#000000;stroke:none" />
        </g>
       </g>
      </g>
     </g>
    </g>
   </g>
  </g>
 </g>
</svg>