<?xml version="1.0" encoding="UTF-8" standalone="no"?>
<svg
   xmlns:ooo="http://xml.openoffice.org/svg/export"
   xmlns:dc="http://purl.org/dc/elements/1.1/"
   xmlns:cc="http://creativecommons.org/ns#"
   xmlns:rdf="http://www.w3.org/1999/02/22-rdf-syntax-ns#"
   xmlns:svg="http://www.w3.org/2000/svg"
   xmlns="http://www.w3.org/2000/svg"
   xmlns:sodipodi="http://sodipodi.sourceforge.net/DTD/sodipodi-0.dtd"
   xmlns:inkscape="http://www.inkscape.org/namespaces/inkscape"
   version="1.2"
   width="105.08mm"
   height="77.239998mm"
   viewBox="0 0 10508 7723.9998"
   preserveAspectRatio="xMidYMid"
   xml:space="preserve"
   id="svg215"
   sodipodi:docname="tropics.svg"
   style="fill-rule:evenodd;stroke-width:28.22200012;stroke-linejoin:round"
   inkscape:version="0.92.5 (2060ec1f9f, 2020-04-08)"><metadata
   id="metadata219"><rdf:RDF><cc:Work
       rdf:about=""><dc:format>image/svg+xml</dc:format><dc:type
         rdf:resource="http://purl.org/dc/dcmitype/StillImage" /></cc:Work></rdf:RDF></metadata><sodipodi:namedview
   pagecolor="#ffffff"
   bordercolor="#666666"
   borderopacity="1"
   objecttolerance="10"
   gridtolerance="10"
   guidetolerance="10"
   inkscape:pageopacity="0"
   inkscape:pageshadow="2"
   inkscape:window-width="664"
   inkscape:window-height="487"
   id="namedview217"
   showgrid="false"
   inkscape:zoom="0.2102413"
   inkscape:cx="198.57638"
   inkscape:cy="145.96535"
   inkscape:window-x="0"
   inkscape:window-y="0"
   inkscape:window-maximized="0"
   inkscape:current-layer="svg215" />
 <defs
   class="ClipPathGroup"
   id="defs8">
  <clipPath
   id="presentation_clip_path"
   clipPathUnits="userSpaceOnUse">
   <rect
   x="0"
   y="0"
   width="21000"
   height="29700"
   id="rect2" />
  </clipPath>
  <clipPath
   id="presentation_clip_path_shrink"
   clipPathUnits="userSpaceOnUse">
   <rect
   x="21"
   y="29"
   width="20958"
   height="29641"
   id="rect5" />
  </clipPath>
 </defs>
 <defs
   class="TextShapeIndex"
   id="defs12">
  <g
   ooo:slide="id1"
   ooo:id-list="id3"
   id="g10" />
 </defs>
 <defs
   class="EmbeddedBulletChars"
   id="defs44">
  <g
   id="bullet-char-template-57356"
   transform="matrix(4.8828125e-4,0,0,-4.8828125e-4,0,0)">
   <path
   d="M 580,1141 1163,571 580,0 -4,571 Z"
   id="path14"
   inkscape:connector-curvature="0" />
  </g>
  <g
   id="bullet-char-template-57354"
   transform="matrix(4.8828125e-4,0,0,-4.8828125e-4,0,0)">
   <path
   d="M 8,1128 H 1137 V 0 H 8 Z"
   id="path17"
   inkscape:connector-curvature="0" />
  </g>
  <g
   id="bullet-char-template-10146"
   transform="matrix(4.8828125e-4,0,0,-4.8828125e-4,0,0)">
   <path
   d="M 174,0 602,739 174,1481 1456,739 Z M 1358,739 309,1346 659,739 Z"
   id="path20"
   inkscape:connector-curvature="0" />
  </g>
  <g
   id="bullet-char-template-10132"
   transform="matrix(4.8828125e-4,0,0,-4.8828125e-4,0,0)">
   <path
   d="M 2015,739 1276,0 H 717 l 543,543 H 174 v 393 h 1086 l -543,545 h 557 z"
   id="path23"
   inkscape:connector-curvature="0" />
  </g>
  <g
   id="bullet-char-template-10007"
   transform="matrix(4.8828125e-4,0,0,-4.8828125e-4,0,0)">
   <path
   d="m 0,-2 c -7,16 -16,29 -25,39 l 381,530 c -94,256 -141,385 -141,387 0,25 13,38 40,38 9,0 21,-2 34,-5 21,4 42,12 65,25 l 27,-13 111,-251 280,301 64,-25 24,25 c 21,-10 41,-24 62,-43 C 886,937 835,863 770,784 769,783 710,716 594,584 L 774,223 c 0,-27 -21,-55 -63,-84 l 16,-20 C 717,90 699,76 672,76 641,76 570,178 457,381 L 164,-76 c -22,-34 -53,-51 -92,-51 -42,0 -63,17 -64,51 -7,9 -10,24 -10,44 0,9 1,19 2,30 z"
   id="path26"
   inkscape:connector-curvature="0" />
  </g>
  <g
   id="bullet-char-template-10004"
   transform="matrix(4.8828125e-4,0,0,-4.8828125e-4,0,0)">
   <path
   d="M 285,-33 C 182,-33 111,30 74,156 52,228 41,333 41,471 c 0,78 14,145 41,201 34,71 87,106 158,106 53,0 88,-31 106,-94 l 23,-176 c 8,-64 28,-97 59,-98 l 735,706 c 11,11 33,17 66,17 42,0 63,-15 63,-46 V 965 c 0,-36 -10,-64 -30,-84 L 442,47 C 390,-6 338,-33 285,-33 Z"
   id="path29"
   inkscape:connector-curvature="0" />
  </g>
  <g
   id="bullet-char-template-9679"
   transform="matrix(4.8828125e-4,0,0,-4.8828125e-4,0,0)">
   <path
   d="M 813,0 C 632,0 489,54 383,161 276,268 223,411 223,592 c 0,181 53,324 160,431 106,107 249,161 430,161 179,0 323,-54 432,-161 108,-107 162,-251 162,-431 0,-180 -54,-324 -162,-431 C 1136,54 992,0 813,0 Z"
   id="path32"
   inkscape:connector-curvature="0" />
  </g>
  <g
   id="bullet-char-template-8226"
   transform="matrix(4.8828125e-4,0,0,-4.8828125e-4,0,0)">
   <path
   d="m 346,457 c -73,0 -137,26 -191,78 -54,51 -81,114 -81,188 0,73 27,136 81,188 54,52 118,78 191,78 73,0 134,-26 185,-79 51,-51 77,-114 77,-187 0,-75 -25,-137 -76,-188 -50,-52 -112,-78 -186,-78 z"
   id="path35"
   inkscape:connector-curvature="0" />
  </g>
  <g
   id="bullet-char-template-8211"
   transform="matrix(4.8828125e-4,0,0,-4.8828125e-4,0,0)">
   <path
   d="M -4,459 H 1135 V 606 H -4 Z"
   id="path38"
   inkscape:connector-curvature="0" />
  </g>
  <g
   id="bullet-char-template-61548"
   transform="matrix(4.8828125e-4,0,0,-4.8828125e-4,0,0)">
   <path
   d="m 173,740 c 0,163 58,303 173,419 116,115 255,173 419,173 163,0 302,-58 418,-173 116,-116 174,-256 174,-419 0,-163 -58,-303 -174,-418 C 1067,206 928,148 765,148 601,148 462,206 346,322 231,437 173,577 173,740 Z"
   id="path41"
   inkscape:connector-curvature="0" />
  </g>
 </defs>
 <g
   id="g49"
   transform="translate(-5246,-10988)">
  <g
   id="id2"
   class="Master_Slide">
   <g
   id="bg-id2"
   class="Background" />
   <g
   id="bo-id2"
   class="BackgroundObjects" />
  </g>
 </g>
 <g
   class="SlideGroup"
   id="g213"
   transform="translate(-5246,-10988)">
  <g
   id="g211">
   <g
   id="container-id1">
    <g
   id="id1"
   class="Slide"
   clip-path="url(#presentation_clip_path)">
     <g
   class="Page"
   id="g207">
      <g
   class="Graphic"
   id="g205">
       <g
   id="id3">
        <rect
   class="BoundingBox"
   x="5246"
   y="10988"
   width="10508"
   height="7724"
   id="rect51"
   style="fill:none;stroke:none" />
        <defs
   id="defs56">
         <clipPath
   id="clip_path_1"
   clipPathUnits="userSpaceOnUse">
          <path
   d="m 5246,10988 h 10507 v 7723 H 5246 Z"
   id="path53"
   inkscape:connector-curvature="0" />
         </clipPath>
        </defs>
        <g
   clip-path="url(#clip_path_1)"
   id="g202">
         <path
   d="m 13694,15899 83,-193 72,-190 63,-191 53,-185 44,-186 35,-183 28,-178 20,-175 13,-173 8,-167 v -163 l -5,-160 -8,-155 -15,-147 -18,-145 -20,-137 51,12 48,13 51,15 50,18 51,18 51,23 51,25 53,28 51,30 48,34 51,35 51,41 51,45 48,49 48,53 49,56 5,-25 -8,-31 -13,-30 -23,-26 36,15 36,18 38,23 38,26 35,27 36,28 33,31 30,30 -12,-76 -16,-89 -15,-79 -7,-55 -13,-3 -10,-5 -13,-5 -13,-5 -12,-5 -11,-5 -12,-3 -10,-5 17,-8 18,-7 15,-5 18,-5 -18,-36 -17,-30 -18,-31 -20,-28 -31,5 -28,5 -30,8 -31,5 -30,8 -28,2 -28,3 -26,-3 21,-13 20,-12 23,-13 23,-10 23,-10 25,-8 20,-5 23,-3 -48,-55 8,-44 -11,-7 -15,-10 -15,-8 -15,-8 -18,-7 -15,-8 -16,-5 -10,-3 -35,26 -44,25 -45,23 -51,23 -51,18 -51,15 -48,8 h -43 l 35,-18 36,-18 36,-18 38,-17 33,-21 33,-23 33,-28 28,-33 -97,-45 10,-46 -81,-15 -13,7 -12,10 -13,8 -13,8 -13,7 -12,8 -15,5 -13,5 -89,-58 10,-16 10,-12 10,-16 13,-12 13,-13 12,-13 16,-10 12,-10 h -15 l -18,-3 h -17 l -18,-2 -18,-3 -15,-2 h -15 l -13,-3 30,-17 33,-18 33,-13 33,-10 33,-8 31,-2 25,-3 h 23 l 8,-15 10,-13 15,-13 13,-12 13,-8 7,-7 5,-3 h -5 l -7,28 -5,15 -3,13 3,18 17,5 16,5 15,2 15,5 13,3 13,5 12,3 13,2 30,-7 31,-8 28,-5 28,-3 h 30 l 31,5 33,8 38,13 -26,-3 -25,-2 -25,2 -28,5 -23,5 -23,8 -20,8 -16,7 41,3 43,2 43,5 44,8 45,8 46,7 46,13 46,13 48,12 48,18 46,15 48,21 51,20 48,23 48,25 49,26 -26,-26 -33,-33 -40,-38 -46,-38 -51,-38 -51,-36 -51,-28 -50,-20 h 5 l 12,3 h 18 l 23,2 26,5 25,5 23,5 20,8 -33,-30 -33,-31 -33,-30 -30,-31 -28,-28 -26,-28 -23,-20 -17,-18 h -56 -56 -51 -48 l -49,8 -43,12 -43,21 -41,30 8,-25 10,-23 15,-18 18,-15 21,-13 20,-10 18,-13 15,-10 28,-13 28,-7 25,-8 26,-5 25,-2 23,-3 h 25 l 23,3 -10,-11 -10,-12 -13,-13 -13,-13 -12,-12 -10,-8 -8,-8 -3,-2 -56,-13 -30,-38 -58,3 -92,17 -23,8 -18,10 -17,10 -13,10 -15,13 -16,13 -17,10 -18,13 -48,-10 -26,15 -23,18 -25,17 -23,21 -25,25 -26,26 -28,27 -30,34 -104,17 28,-35 30,-31 31,-30 30,-26 33,-23 33,-22 33,-18 33,-18 33,-13 33,-12 33,-13 31,-10 30,-8 31,-7 28,-6 25,-5 92,-17 5,-18 10,-21 12,-20 21,-15 -26,8 -30,7 -33,8 -33,5 -33,2 -33,3 -28,-3 -28,-5 46,-7 40,-8 38,-8 33,-10 28,-10 26,-10 20,-10 20,-13 54,-74 -26,11 -30,7 -36,5 -35,3 -36,2 -33,-2 h -28 l -23,-5 38,-10 41,-11 41,-12 40,-13 39,-13 33,-15 27,-13 23,-15 -25,-28 8,-33 10,-38 5,-38 -5,-33 -21,7 -22,6 -21,2 -20,3 h -23 -18 -20 -18 l 26,-13 25,-15 23,-10 23,-13 20,-10 20,-8 16,-10 12,-8 8,-45 5,-54 5,-48 10,-38 -30,18 -31,22 -28,23 -25,26 -26,28 -20,25 -18,28 -12,25 v -40 l 2,-41 8,-35 7,-31 -38,13 -15,30 -18,31 -17,33 -18,35 -18,36 -15,35 -16,39 -10,38 -38,28 v -41 l 3,-56 10,-56 13,-43 -31,23 -30,20 -28,23 -28,23 -28,20 -26,26 -25,23 -23,25 -25,28 -23,30 -23,31 -23,35 -25,36 -23,41 -23,43 -25,46 25,-74 25,-69 28,-63 28,-59 31,-53 28,-46 30,-38 28,-33 -23,-33 -18,10 -20,10 -18,11 -17,12 -16,13 -17,13 -16,12 -12,13 15,-48 18,-43 17,-38 18,-28 -25,-31 -26,-30 -28,-33 -27,-33 -31,-31 -28,-28 -28,-28 -28,-23 46,127 28,138 13,137 -3,137 -10,132 -23,119 -28,102 -33,81 -13,-50 -10,-56 -15,-59 -15,-61 -18,-58 -26,-56 -27,-51 -33,-43 22,74 18,68 8,66 v 69 l -15,-36 -16,-38 -15,-40 -18,-41 -15,-41 -13,-35 -10,-33 -10,-23 -10,-3 h -13 -15 -13 -15 -15 l -13,3 h -10 l -26,-41 -25,-8 -28,-5 -25,-5 -23,-5 -26,-5 -22,-2 h -21 -20 l 18,33 10,35 5,33 -3,28 -10,-18 -13,-17 -15,-21 -15,-17 -18,-18 -15,-16 -15,-15 -10,-10 -36,-2 -36,-3 h -33 -33 l -30,3 -33,5 -33,7 -36,10 54,23 50,23 49,23 48,25 43,23 43,26 41,25 38,23 33,25 33,21 28,23 26,17 22,18 21,15 15,11 13,10 25,15 23,18 23,15 20,18 20,18 16,15 15,18 10,15 18,23 23,30 18,26 7,10 -23,-8 -20,-5 -20,-2 -18,-6 h -15 -16 l -15,6 -13,5 -66,-26 -17,-7 -23,-8 -31,-8 -33,-7 -40,-8 -41,-8 -46,-7 -43,-5 -48,-5 -46,-5 -43,-3 -43,-3 h -39 l -35,3 -28,3 -25,7 -16,13 -5,18 3,23 v 30 l -87,25 39,31 27,25 23,23 21,21 15,20 13,20 15,21 18,25 33,5 35,5 33,5 33,5 31,8 30,10 23,15 20,16 -10,-21 -10,-23 -13,-20 -10,-20 -12,-21 -16,-17 -12,-16 -13,-12 25,17 26,18 25,21 23,20 23,23 20,23 15,25 16,25 7,-30 8,-28 5,-25 v -23 l 15,5 23,5 23,7 25,11 26,7 25,8 21,8 17,5 -38,17 -38,21 -38,23 -38,25 -41,30 -38,33 -38,39 -41,38 -38,43 -35,46 -38,50 -36,54 -33,56 -33,58 -31,64 -28,66 -2,12 v 33 44 l 8,43 10,-20 10,-18 10,-13 10,-10 10,-8 13,-7 13,-3 15,-5 -15,28 -15,30 -16,31 -15,30 -13,31 -10,30 -10,28 -8,26 h 13 l 18,-3 18,-5 20,-7 18,-11 18,-10 17,-7 16,-8 22,-13 23,-15 23,-13 21,-12 22,-13 18,-13 20,-13 18,-10 18,-28 13,-33 7,-33 8,-30 10,48 15,43 18,38 15,33 -5,-73 -5,-76 -5,-72 -5,-61 10,28 10,28 13,31 13,28 7,30 8,28 3,26 -3,22 31,-22 25,-23 23,-18 18,-20 17,-21 16,-20 12,-23 13,-25 -8,-31 -10,-30 -10,-31 -13,-28 -15,-28 -10,-23 -10,-20 -8,-15 15,18 16,17 15,18 13,15 12,16 13,15 10,13 13,10 8,-33 7,-31 10,-28 13,-28 15,-22 18,-21 20,-18 23,-12 21,132 17,140 13,147 8,155 2,163 -5,170 -10,173 -18,177 -25,186 -33,185 -41,188 -51,191 -58,193 -69,193 -78,193 -92,191 z"
   id="path58"
   inkscape:connector-curvature="0"
   style="fill:#000000;stroke:none" />
         <path
   d="m 13688,15897 11,-181 5,-155 2,-134 v -112 l -5,-170 -18,-188 -30,-201 -41,-211 -51,-218 -63,-224 -69,-224 -78,-221 -13,-38 -15,-35 -13,-36 -15,-38 -16,-36 -15,-35 -15,-36 -15,-35 -46,-104 -48,-100 -49,-96 -50,-94 -51,-89 -51,-84 -53,-76 -54,-74 -2,43 -10,54 -21,51 -23,45 -5,-10 -7,-10 -8,-13 -10,-12 -13,-11 -15,-10 -15,-10 -18,-5 13,20 12,28 8,31 3,33 -6,15 -7,15 -8,18 -10,15 -13,18 -15,18 -18,18 -18,17 -10,-35 -15,-36 -20,-35 -23,-33 -28,-33 -28,-33 -30,-31 -31,-30 20,45 26,59 25,66 18,71 8,69 -8,66 -28,58 -53,48 v -30 l -11,-33 -15,-28 -15,-23 -8,43 -7,49 -8,50 -7,44 -13,12 -13,13 -13,15 -12,15 -10,18 -13,18 -8,18 -7,18 -8,-26 -8,-35 -2,-41 v -51 l -23,51 -10,48 -3,43 v 41 l -84,79 -17,-107 -5,-91 10,-82 20,-68 28,-64 38,-58 43,-54 49,-55 -28,12 -26,16 -25,17 -26,21 -20,25 -20,25 -21,28 -15,28 -5,-66 10,-18 10,-20 13,-20 15,-23 16,-20 17,-21 18,-20 18,-20 -13,5 -15,5 -15,7 -15,8 -18,10 -18,10 -15,13 -18,13 5,-56 13,-51 15,-43 20,-43 23,-36 26,-35 27,-31 28,-30 -30,2 -31,5 -33,10 -30,11 -31,10 -27,12 -26,13 -18,10 v -25 l 3,-36 5,-43 5,-41 -18,33 -12,41 -16,48 -15,44 -33,12 -33,16 -36,15 -35,18 -36,17 -38,18 -33,20 -33,18 -99,3 -10,46 -20,12 -23,18 -26,18 -25,20 -26,23 -25,20 -25,23 -23,21 2,-100 16,-91 28,-86 38,-82 45,-73 51,-66 51,-61 51,-54 -26,8 -25,10 -25,13 -23,12 -21,18 -20,15 -15,18 -15,15 -28,-10 25,-43 31,-35 35,-36 41,-28 43,-28 46,-23 48,-20 48,-18 48,-15 49,-13 45,-13 44,-10 40,-7 38,-8 33,-8 26,-5 15,-5 18,-5 20,-5 21,-5 20,-5 13,-5 12,-3 h 3 l 20,-2 h 26 30 l 31,-3 h 30 l 30,-2 28,-5 23,-6 -25,-22 -18,-28 -10,-31 -8,-33 -5,23 -10,28 -8,30 -5,33 -68,3 -3,-20 -2,-54 2,-73 10,-82 -25,54 -20,66 -13,68 -10,56 h -3 l -12,3 -13,5 -20,5 -21,5 -20,5 -18,5 -15,5 -15,-20 -18,-20 -23,-18 -25,-15 -26,-13 -28,-13 -25,-7 -26,-5 8,-34 13,-33 15,-35 18,-36 20,-38 20,-35 21,-36 20,-36 -30,23 -31,28 -28,36 -28,38 -25,38 -23,41 -18,38 -15,38 -51,-46 3,-12 7,-16 8,-20 13,-23 10,-23 12,-25 13,-23 10,-23 -20,15 -23,18 -23,20 -23,26 -20,25 -20,28 -18,26 -15,28 -18,-6 -20,-5 -23,-5 -23,-5 -23,-5 -20,-5 -18,-5 -13,-3 10,-17 16,-23 22,-28 23,-33 26,-31 23,-30 22,-26 21,-20 -18,-46 -13,16 -20,22 -23,31 -28,33 -25,36 -28,35 -23,31 -18,23 8,-36 10,-41 10,-40 8,-31 -23,15 -26,16 -22,15 -23,18 -23,17 -20,21 -21,20 -20,23 -18,-3 -18,-2 h -20 l -23,2 -20,3 -23,3 -23,2 -23,3 26,-23 25,-23 28,-23 30,-20 31,-21 33,-17 33,-18 33,-18 33,-15 36,-16 33,-15 35,-12 33,-13 33,-10 33,-10 31,-11 18,-5 17,-5 16,-2 17,-5 16,-3 15,-3 15,-2 13,-3 30,-5 31,-2 30,-3 h 33 31 l 35,3 36,2 35,5 39,8 40,8 43,7 44,13 48,10 48,15 54,16 55,15 -15,-26 -23,-22 -25,-21 -31,-15 -33,-15 -35,-10 -33,-8 -31,-5 -30,-89 -33,-79 -36,-73 -40,-69 -44,-64 -45,-61 -51,-63 -54,-61 h 16 18 17 l 18,-3 h 15 18 l 15,3 13,2 10,18 13,23 15,26 18,30 18,33 18,36 17,38 21,38 -13,-54 -10,-53 -13,-51 -15,-56 48,33 48,46 51,51 48,56 46,56 43,56 36,51 28,43 10,-36 15,-38 18,-41 20,-43 23,-40 23,-39 23,-33 23,-30 38,5 8,-13 10,-15 10,-15 10,-15 10,-13 10,-13 11,-10 10,-8 7,13 21,33 23,36 20,30 -18,-165 36,-18 5,26 15,68 18,84 18,86 -3,-68 5,-94 10,-99 10,-87 16,-5 15,-5 18,-5 17,-2 18,-3 18,-3 h 18 l 18,3 -16,81 5,-12 16,-28 20,-36 20,-30 64,-8 -13,33 -13,38 -10,41 -7,35 17,-17 21,-18 20,-18 23,-15 23,-13 23,-13 25,-12 28,-11 -43,59 -43,71 -44,84 -40,91 -41,102 -35,104 -31,109 -25,110 -87,-43 -12,-36 -16,-36 -17,-35 -21,-36 -25,-33 -31,-30 -30,-26 -36,-23 -50,39 33,20 27,18 31,17 28,18 28,26 28,30 30,38 33,49 87,43 -10,43 -6,48 -5,51 -2,46 15,-51 20,-48 21,-44 18,-45 48,-38 48,-33 51,-28 53,-28 51,-23 53,-21 54,-15 53,-15 51,-13 53,-10 49,-8 48,-5 46,-5 45,-2 h 41 38 l -23,15 -23,13 -23,18 -20,15 -20,15 -18,15 -15,15 -13,13 10,-56 -18,13 -20,18 -20,23 -23,25 -20,23 -21,25 -18,21 -12,17 5,-33 5,-38 2,-35 3,-31 -20,43 -16,33 -12,26 -10,23 -13,18 -13,20 -15,20 -20,26 -99,58 2,-69 -41,82 -38,23 -45,25 -49,31 -51,27 -45,31 -43,25 -39,23 -25,18 3,8 5,17 10,23 13,28 35,-7 41,-5 h 43 l 46,5 45,5 49,10 48,10 48,15 51,15 46,18 48,18 43,20 43,21 41,20 36,20 33,21 25,15 23,18 23,15 20,18 20,18 16,15 15,18 10,15 -15,-5 -18,-5 h -20 -21 -20 l -18,2 -15,5 -13,3 21,20 20,26 18,22 7,11 -66,-26 -12,-15 -16,-13 -15,-15 -18,-15 -20,-16 -20,-15 -26,-15 -28,-18 16,18 15,15 8,18 5,18 -79,-18 -23,-25 -20,-21 -21,-17 -20,-13 -20,-13 -28,-13 -31,-15 -35,-20 20,28 18,28 15,30 8,28 -28,-5 -31,-2 h -30 l -31,2 -33,5 -35,10 -33,10 -33,13 -16,13 -5,18 3,23 v 30 l -87,25 21,31 12,28 6,23 2,7 -94,-35 46,56 43,61 43,63 43,69 41,73 41,74 40,79 38,81 21,43 18,44 20,43 18,46 20,43 18,45 18,46 17,46 66,178 59,180 53,176 48,170 44,160 35,147 28,135 20,117 18,137 18,163 13,180 7,196 3,101 v 104 l -3,105 -2,109 z"
   id="path60"
   inkscape:connector-curvature="0"
   style="fill:#000000;stroke:none" />
         <path
   d="m 8894,15899 h -71 l 3,-89 18,-99 33,-109 43,-109 53,-104 61,-97 66,-81 69,-61 7,-76 16,-79 22,-74 31,-74 36,-71 40,-68 48,-64 51,-58 59,-56 63,-48 66,-44 71,-38 77,-28 78,-23 84,-12 87,-5 30,-64 36,-58 43,-56 43,-51 51,-48 53,-46 59,-41 61,-38 63,-33 66,-30 66,-26 71,-20 71,-18 74,-15 74,-10 74,-5 73,-3 74,3 74,5 71,10 71,15 68,18 69,23 66,25 61,33 61,36 56,38 53,46 49,48 45,53 38,59 36,61 81,-10 82,-5 h 81 l 81,5 79,12 76,18 74,25 71,34 66,40 61,48 56,56 48,64 43,74 33,81 28,91 18,102 117,-13 112,3 112,18 104,30 101,41 94,53 89,64 82,71 73,78 64,84 56,92 43,96 33,97 20,102 5,104 -5,101 z"
   id="path62"
   inkscape:connector-curvature="0"
   style="fill:#ffe28c;stroke:none" />
         <path
   d="m 13983,15899 5,-101 -5,-104 -20,-102 -33,-97 -43,-96 -56,-92 -64,-84 -73,-78 -82,-71 -89,-64 -94,-53 -101,-41 -104,-30 -112,-18 -112,-3 -117,13 -18,-102 -28,-91 -33,-81 -43,-74 -48,-64 -56,-56 -61,-48 -66,-40 -71,-34 -74,-25 -76,-18 -79,-12 -81,-5 h -81 l -82,5 -81,10 -36,-61 -38,-59 -45,-53 -49,-48 -53,-46 -56,-38 -61,-36 -61,-33 -66,-25 -69,-23 -68,-18 -71,-15 -71,-10 -74,-5 -74,-3 -73,3 -74,5 -74,10 -74,15 -71,18 -71,20 -66,26 -66,30 -63,33 -61,38 -59,41 -53,46 -51,48 -43,51 -43,56 -36,58 -30,64 -87,5 -84,12 -78,23 -77,28 -71,38 -66,44 -63,48 -59,56 -51,58 -48,64 -40,68 -36,71 -31,74 -22,74 -16,79 -7,76 -69,61 -66,81 -61,97 -53,104 -43,109 -33,109 -18,99 -3,89 h 71 l 3,-83 13,-97 20,-102 33,-104 43,-104 53,-97 67,-86 76,-69 10,-71 15,-73 26,-69 30,-69 38,-66 43,-63 51,-61 54,-56 58,-51 63,-48 67,-41 71,-35 71,-28 76,-23 76,-15 79,-6 38,-66 41,-61 45,-58 49,-53 51,-49 55,-45 59,-41 58,-36 64,-33 63,-28 64,-22 68,-21 67,-15 68,-10 71,-8 69,-5 68,3 69,5 71,7 66,13 69,15 63,21 66,23 61,27 61,34 59,35 53,38 53,43 49,46 46,51 43,53 38,59 76,-16 76,-7 79,2 76,11 79,20 76,25 74,33 68,41 67,46 60,51 56,53 49,58 43,64 33,63 25,69 16,69 h 86 l 86,7 92,18 89,23 91,30 89,41 86,48 82,59 81,66 74,73 66,84 61,94 53,104 43,112 33,122 z"
   id="path64"
   inkscape:connector-curvature="0"
   style="fill:#000000;stroke:none" />
         <path
   d="M 14346,15899 H 5912 l 15,16 20,15 26,15 28,10 33,10 35,11 38,5 41,5 41,2 h 40 l 41,-2 41,-5 38,-8 35,-10 33,-15 31,-16 25,13 28,13 28,7 28,8 30,8 33,5 31,2 h 33 l 33,-2 31,-3 33,-5 30,-5 33,-8 28,-12 28,-10 28,-16 28,10 30,11 33,7 36,10 35,8 39,5 38,5 38,3 h 40 l 39,-3 40,-2 38,-5 38,-11 36,-10 36,-15 33,-18 45,13 51,10 54,8 h 53 l 51,-3 45,-5 39,-13 27,-17 33,20 46,13 54,7 55,3 56,-3 54,-7 45,-13 33,-18 36,18 43,10 46,10 46,3 h 48 l 43,-3 36,-7 28,-13 23,8 25,7 25,8 31,5 28,2 30,3 31,2 h 33 l 30,-2 31,-3 28,-5 28,-5 25,-7 25,-8 21,-10 20,-13 26,10 25,8 28,8 30,7 28,5 31,5 30,3 31,2 h 28 l 30,-2 28,-3 26,-5 25,-7 25,-8 21,-13 20,-12 46,12 51,10 53,8 56,3 h 53 l 48,-8 41,-13 31,-17 48,17 51,16 50,7 54,5 48,-2 43,-8 36,-13 28,-20 25,13 31,10 33,8 35,7 41,5 41,5 40,3 h 43 l 41,-3 41,-2 40,-3 36,-7 33,-8 28,-8 23,-10 18,-12 30,17 33,16 36,10 35,10 36,7 38,6 35,2 h 36 l 36,-2 33,-3 30,-5 26,-5 25,-8 20,-10 16,-10 10,-10 17,10 23,13 23,7 28,8 28,7 31,6 33,2 30,3 h 33 l 31,-3 33,-2 30,-8 28,-8 25,-10 26,-10 20,-15 23,7 28,5 28,8 30,5 31,3 33,5 33,2 h 33 31 33 l 30,-2 28,-5 25,-5 26,-8 20,-10 18,-10 28,10 28,7 30,6 31,7 30,3 31,5 30,2 h 31 28 l 28,-2 28,-3 25,-5 23,-7 20,-8 20,-10 16,-10 38,15 48,13 51,10 53,5 h 54 l 50,-5 44,-13 35,-23 54,23 53,13 51,5 51,-3 43,-7 38,-11 28,-10 18,-10 20,13 25,13 23,10 28,7 28,8 31,5 27,3 h 33 31 l 30,-3 31,-3 28,-7 30,-8 28,-12 26,-13 25,-15 41,15 48,15 51,10 53,5 54,-2 50,-8 46,-15 36,-25 30,17 31,13 35,10 36,5 h 38 l 43,-10 41,-18 z"
   id="path66"
   inkscape:connector-curvature="0"
   style="fill:#000000;stroke:none" />
         <path
   d="m 14819,17086 58,2 8,-144 -74,-173 8,-13 8,-13 7,-15 10,-15 8,-13 13,-15 10,-13 13,-12 -23,-21 -26,-20 -22,-15 -26,-16 -23,-12 -20,-10 -23,-6 -18,-2 -7,-18 -11,-15 -10,-13 -12,-10 -13,-8 -15,-2 -13,2 -15,6 -26,22 -12,31 7,38 38,38 -10,10 -13,13 -10,15 -10,18 -5,18 v 20 l 5,20 13,21 18,23 17,22 23,28 26,31 30,35 36,36 40,38 46,41 5,-61 -10,-5 -13,-10 -12,-13 -16,-15 -12,-16 -13,-15 -10,-13 -8,-10 41,-20 13,18 17,28 16,38 7,33 -5,61 z"
   id="path68"
   inkscape:connector-curvature="0"
   style="fill:#000000;stroke:none" />
         <path
   d="m 14286,14756 25,163 33,193 36,211 38,213 38,206 33,185 28,150 20,107 20,99 21,94 23,91 25,87 28,76 35,64 41,53 48,36 33,-92 -15,-15 -18,-18 -17,-25 -18,-26 -18,-30 -15,-31 -13,-30 -10,-33 -10,-38 -10,-46 -13,-46 -10,-48 -13,-48 -10,-46 -10,-41 -8,-35 15,5 16,7 15,5 15,8 15,8 16,7 12,8 16,8 35,20 33,23 36,23 30,28 33,27 31,31 28,33 28,36 15,20 13,20 12,23 13,20 13,23 10,23 10,26 10,25 -33,13 -33,12 -38,13 -36,15 -35,13 -33,13 -28,10 -26,10 -33,92 44,-18 45,-21 49,-17 53,-21 56,-20 56,-20 58,-21 61,-20 61,-20 61,-21 61,-17 61,-18 58,-18 59,-18 58,-15 54,-15 -8,-18 -10,-15 -8,-18 -10,-15 -15,-26 -15,-25 -16,-26 -15,-28 -15,-25 -15,-25 -18,-26 -15,-25 -23,-33 -21,-33 -22,-33 -23,-33 -21,-33 -22,-31 -23,-33 -23,-33 -31,-43 -33,-43 -30,-43 -33,-44 -31,-40 -33,-41 -30,-41 -33,-40 -28,-33 -28,-36 -26,-33 -28,-33 -25,-30 -28,-33 -25,-31 -28,-30 -26,-31 -28,-30 -25,-31 -28,-30 -25,-31 -28,-28 -26,-28 -25,-28 -41,-40 -38,-41 -38,-38 -36,-38 -38,-38 -35,-36 -33,-33 -33,-33 -10,-10 -11,-8 -10,-7 -10,-8 -8,-8 -10,-10 -10,-7 z"
   id="path70"
   inkscape:connector-curvature="0"
   style="fill:#000000;stroke:none" />
         <path
   d="m 14654,15119 -41,-40 -38,-41 -38,-38 -36,-38 -38,-38 -35,-36 -33,-33 -33,-33 71,386 23,-10 28,-13 28,-12 30,-13 31,-13 28,-10 28,-10 z"
   id="path72"
   inkscape:connector-curvature="0"
   style="fill:#4c4cff;stroke:none" />
         <path
   d="m 15081,15615 -28,-33 -28,-36 -26,-33 -28,-33 -25,-30 -28,-33 -25,-31 -28,-30 -33,15 -43,20 -49,23 -53,23 -53,28 -51,25 -48,23 -41,23 58,325 23,-10 28,-13 31,-15 35,-15 36,-18 35,-18 38,-17 39,-18 40,-18 38,-18 36,-18 35,-17 33,-16 31,-12 28,-13 z"
   id="path74"
   inkscape:connector-curvature="0"
   style="fill:#4c4cff;stroke:none" />
         <path
   d="m 15513,16212 -23,-33 -21,-33 -22,-33 -23,-33 -21,-33 -22,-31 -23,-33 -23,-33 -33,13 -36,13 -38,15 -41,15 -43,18 -43,18 -43,17 -43,18 -46,18 -41,15 -40,18 -41,15 -36,16 -33,12 -30,10 -25,11 35,20 33,23 36,23 30,28 33,27 31,31 28,33 28,36 35,-13 38,-13 38,-15 36,-13 38,-15 38,-13 36,-15 35,-13 36,-12 35,-13 33,-13 31,-12 30,-11 28,-12 26,-8 z"
   id="path76"
   inkscape:connector-curvature="0"
   style="fill:#4c4cff;stroke:none" />
         <path
   d="m 14778,16784 44,-18 45,-21 49,-17 53,-21 56,-20 56,-20 58,-21 61,-20 61,-20 61,-21 61,-17 61,-18 58,-18 59,-18 58,-15 54,-15 -8,-18 -10,-15 -8,-18 -10,-15 -564,175 -33,13 -33,12 -38,13 -36,15 -35,13 -33,13 -28,10 -26,10 -15,-15 -18,-18 -17,-25 -18,-26 -18,-30 -15,-31 -13,-30 -10,-33 -10,-38 -10,-46 -13,-46 -10,-48 -13,-48 -10,-46 -10,-41 -8,-35 -51,-275 -58,-325 -61,-328 -71,-386 -10,-10 -11,-8 -10,-7 -10,-8 -8,-8 -10,-10 -10,-7 -7,-8 25,163 33,193 36,211 38,213 38,206 33,185 28,150 20,107 20,99 21,94 23,91 25,87 28,76 35,64 41,53 z"
   id="path78"
   inkscape:connector-curvature="0"
   style="fill:#000000;stroke:none" />
         <path
   d="m 14877,17088 h 23 l 13,-73 36,71 h 33 43 53 59 l 63,2 h 69 l 68,3 69,3 69,2 63,3 58,5 54,2 43,8 33,5 20,8 8,7 -15,10 -41,8 -66,8 -84,5 -101,2 -112,3 h -120 -122 -122 l -119,-3 -112,-2 -101,-5 -84,-6 -66,-7 -41,-5 -15,-8 15,-13 38,-12 59,-8 66,-7 66,-3 63,-3 51,-2 h 28 z"
   id="path80"
   inkscape:connector-curvature="0"
   style="fill:#000000;stroke:none" />
         <path
   d="m 5904,15902 h 2370 l 13,-43 15,-46 18,-43 20,-46 23,-43 26,-41 25,-38 31,-33 v -38 -43 -36 -15 l -8,-3 -10,-2 -13,-5 -10,-3 -15,-5 -15,-2 -18,-5 -18,-3 -61,-15 -71,-16 -79,-15 -86,-18 -89,-17 -94,-18 -94,-18 -97,-18 -96,-15 -94,-15 -92,-15 -84,-13 -78,-13 -74,-10 -61,-8 -53,-5 v -48 l -44,-10 -40,-8 -46,-7 -43,-11 -46,-7 -48,-8 -46,-10 -46,-8 -48,-7 -48,-8 -46,-7 -48,-8 -48,-5 -46,-8 -46,-7 -46,-5 -50,-8 -51,-5 -49,-5 -48,-8 -48,-5 -46,-3 -46,-5 -40,-5 -43,-2 -38,-3 -39,-2 -35,-3 -31,-2 -30,-3 h -28 -23 -79 l -73,3 -64,2 -56,5 -46,13 -38,15 -30,23 -18,31 3,33 10,48 20,56 26,61 33,63 38,64 45,56 51,50 28,23 28,26 31,28 33,28 33,30 30,31 33,30 31,31 30,28 28,30 28,28 25,28 21,25 20,23 15,23 z"
   id="path82"
   inkscape:connector-curvature="0"
   style="fill:#000000;stroke:none" />
         <path
   d="m 8338,15409 -61,-15 -71,-16 -79,-15 -86,-18 -89,-17 -94,-18 -94,-18 -97,-18 -96,-15 -94,-15 -92,-15 -84,-13 -78,-13 -74,-10 -61,-8 -53,-5 v -48 l -44,-10 -40,-8 -46,-7 -43,-11 -46,-7 -48,-8 -46,-10 -46,-8 -48,-7 -48,-8 -46,-7 -48,-8 -48,-5 -46,-8 -46,-7 -46,-5 -50,-8 -51,-5 -49,-5 -48,-8 -48,-5 -46,-3 -46,-5 -40,-5 -43,-2 -38,-3 -39,-2 -35,-3 -31,-2 -30,-3 h -28 -23 v -99 h 79 v -219 l -3,-5 -5,-15 -15,-13 -23,-5 v -22 h 94 v -216 h 302 v -82 h 343 l 84,-831 h 15 l 41,409 43,422 h 310 l 115,54 v 91 l 170,53 40,-472 36,-3 31,-2 h 30 28 l 25,2 26,5 28,5 25,6 28,553 5,77 252,53 v 46 l 162,23 v 20 l 49,8 7,-374 18,-5 h 15 l 10,3 13,7 8,155 12,292 97,23 -3,-5 v -13 l 8,-7 h 18 l 20,5 15,2 18,5 15,6 13,7 3,10 -3,11 -8,7 41,18 -8,20 -7,18 -10,15 -16,10 -20,8 h -28 l -35,-5 -44,-13 v 59 l 77,61 v 35 l 167,46 v 74 48 h -25 z"
   id="path84"
   inkscape:connector-curvature="0"
   style="fill:#000000;stroke:none" />
         <path
   d="m 8119,14992 44,13 35,5 h 28 l 20,-8 16,-10 10,-15 7,-18 8,-20 -15,20 -18,13 -23,10 -25,5 h -28 l -26,-5 -25,-5 -23,-10 3,7 2,6 5,5 z"
   id="path86"
   inkscape:connector-curvature="0"
   style="fill:#e0ccd6;stroke:none" />
         <path
   d="m 5909,14545 v -84 h -41 v 84 z"
   id="path88"
   inkscape:connector-curvature="0"
   style="fill:#e0ccd6;stroke:none" />
         <path
   d="m 5995,14545 v -84 h -38 v 84 z"
   id="path90"
   inkscape:connector-curvature="0"
   style="fill:#e0ccd6;stroke:none" />
         <path
   d="m 6084,14545 v -84 h -40 v 84 z"
   id="path92"
   inkscape:connector-curvature="0"
   style="fill:#e0ccd6;stroke:none" />
         <path
   d="m 6171,14545 v -84 h -41 v 84 z"
   id="path94"
   inkscape:connector-curvature="0"
   style="fill:#e0ccd6;stroke:none" />
         <path
   d="m 6257,14545 v -84 h -38 v 84 z"
   id="path96"
   inkscape:connector-curvature="0"
   style="fill:#e0ccd6;stroke:none" />
         <path
   d="m 6084,14408 v -36 h -287 v 36 z"
   id="path98"
   inkscape:connector-curvature="0"
   style="fill:#e0ccd6;stroke:none" />
         <path
   d="m 5886,14827 h 82 v -41 h -82 z"
   id="path100"
   inkscape:connector-curvature="0"
   style="fill:#e0ccd6;stroke:none" />
         <path
   d="m 6107,14827 h 84 v -41 h -84 z"
   id="path102"
   inkscape:connector-curvature="0"
   style="fill:#e0ccd6;stroke:none" />
         <path
   d="m 6384,14974 h -84 v 34 l 46,5 46,7 46,8 48,5 48,8 46,7 48,8 48,7 46,8 46,10 48,8 46,7 43,11 46,7 40,8 44,10 v 48 l 53,5 61,8 74,10 78,13 84,13 92,15 94,15 96,15 97,18 94,18 94,18 89,17 86,18 79,15 71,16 61,15 v -94 h 25 v -48 l -45,-10 -56,-13 -69,-13 -76,-15 -84,-18 -89,-15 -91,-15 -92,-18 -94,-15 -89,-16 -84,-12 -78,-13 -69,-10 -61,-10 -48,-5 -33,-3 v -61 l -23,-5 -23,-5 -20,-5 -23,-5 -20,-3 -21,-5 h -20 l -20,-3 h -115 v -266 l 33,5 43,7 51,11 56,10 59,10 61,13 63,12 64,10 61,13 56,13 53,10 46,10 38,8 30,5 18,2 8,3 -3,53 10,-7 13,-3 10,3 10,7 15,-2 h 16 l 10,5 10,8 h 13 12 11 12 l 10,2 11,3 12,5 11,5 12,-3 13,-2 13,-3 h 12 l 13,3 13,2 12,5 16,8 17,-5 18,-5 h 21 20 l 20,5 21,7 20,13 20,13 -10,-18 -5,-20 v -18 l 5,-15 56,-3 -97,-23 -12,-292 -16,-132 h -20 l 3,353 -38,-7 -49,-8 v -20 l -162,-23 v -46 l -252,-53 -5,-77 -23,-7 -20,-496 -13,-2 -15,-3 -15,-2 -18,-3 -18,-2 h -15 -15 -13 v 510 l -302,-86 v 36 l -115,-23 v 23 l 417,104 v 30 l -442,-99 v -84 h 25 v -53 h -25 v -64 h -432 v 64 h -163 v 53 h 524 v 84 h -524 v 48 h 595 l 119,23 h -119 v 49 h -595 v 269 h 84 v 23 h 84 v -23 h 84 v 23 h 81 v -23 h 84 v 23 h 71 v 17 h -71 -84 -81 -84 z"
   id="path104"
   inkscape:connector-curvature="0"
   style="fill:#e0ccd6;stroke:none" />
         <path
   d="m 6567,13851 43,422 h 310 v 74 h -493 v -66 h 56 l 21,-430 z"
   id="path106"
   inkscape:connector-curvature="0"
   style="fill:#e0ccd6;stroke:none" />
         <path
   d="m 7675,15043 v -48 l -158,-26 v 49 z"
   id="path108"
   inkscape:connector-curvature="0"
   style="fill:#e0ccd6;stroke:none" />
         <path
   d="m 8152,15135 v -46 l -157,-26 v 46 z"
   id="path110"
   inkscape:connector-curvature="0"
   style="fill:#e0ccd6;stroke:none" />
         <path
   d="m 7192,14954 v -46 l -157,-25 v 46 z"
   id="path112"
   inkscape:connector-curvature="0"
   style="fill:#e0ccd6;stroke:none" />
         <path
   d="m 6328,14827 h 84 v -41 h -84 z"
   id="path114"
   inkscape:connector-curvature="0"
   style="fill:#000000;stroke:none" />
         <path
   d="m 6552,14827 h 81 v -41 h -81 z"
   id="path116"
   inkscape:connector-curvature="0"
   style="fill:#000000;stroke:none" />
         <path
   d="m 6471,13851 h 99 25 v -27 h -28 -94 -28 v 27 z"
   id="path118"
   inkscape:connector-curvature="0"
   style="fill:#000000;stroke:none" />
         <path
   d="m 6488,13671 h 64 15 v -28 h -18 -58 -18 v 28 z"
   id="path120"
   inkscape:connector-curvature="0"
   style="fill:#000000;stroke:none" />
         <path
   d="m 6493,13541 h 51 16 v -27 h -16 -48 -15 v 27 z"
   id="path122"
   inkscape:connector-curvature="0"
   style="fill:#000000;stroke:none" />
         <path
   d="m 7561,15239 v -69 l -308,-53 v 68 z"
   id="path124"
   inkscape:connector-curvature="0"
   style="fill:#000000;stroke:none" />
         <path
   d="m 7926,15302 v -68 l -310,-54 v 69 z"
   id="path126"
   inkscape:connector-curvature="0"
   style="fill:#000000;stroke:none" />
         <path
   d="m 8290,15378 v -71 l -308,-63 v 68 z"
   id="path128"
   inkscape:connector-curvature="0"
   style="fill:#000000;stroke:none" />
         <path
   d="m 7660,14850 h 10 12 13 l 15,3 13,2 13,3 13,5 10,7 h 17 16 l 12,3 13,2 10,3 10,5 8,5 8,5 15,-2 h 13 l 12,-3 h 13 13 10 l 8,3 10,2 17,-2 h 16 15 13 l 12,2 13,3 10,5 10,5 v -20 l -12,-6 -16,-2 -12,-3 -16,-2 h -12 -13 l -13,2 -10,3 -15,-3 -15,-2 -13,-3 h -13 l -10,3 h -10 l -8,2 -7,3 -15,-8 -16,-7 -12,-3 -13,-2 -13,-3 h -10 l -10,3 h -8 l -10,-5 -10,-6 -13,-5 -10,-2 -15,-3 -13,-2 h -13 l -12,2 z"
   id="path130"
   inkscape:connector-curvature="0"
   style="fill:#000000;stroke:none" />
         <path
   d="m 12690,15071 8,64 5,66 -8,71 -28,79 -13,33 -15,45 -15,56 -10,64 673,5 -5,-59 -8,-50 -10,-44 -10,-33 -23,-68 -18,-66 -10,-71 8,-92 h -521 l -66,18 -20,-13 -11,-18 -5,-17 v -18 h 356 356 v 18 l -5,17 -10,18 -21,13 -18,13 -5,20 5,28 13,38 20,48 28,56 28,66 33,79 21,74 10,71 -3,68 -12,66 -21,59 -28,56 -33,45 -35,39 -16,12 -15,10 -18,11 -15,7 -18,10 -17,13 -16,15 -15,18 -15,20 -13,23 -12,28 -11,31 -17,66 -11,84 -7,104 -3,124 23,31 33,23 33,23 38,17 31,21 28,17 15,23 5,26 h -310 -310 l 5,-26 15,-23 28,-17 33,-21 36,-17 33,-23 33,-23 23,-31 -3,-124 -7,-104 -10,-84 -18,-66 -10,-31 -13,-28 -13,-23 -12,-20 -16,-18 -17,-15 -18,-13 -18,-10 -48,-28 -46,-43 -38,-56 -33,-66 -21,-74 -7,-78 5,-87 25,-86 33,-79 28,-66 26,-56 23,-48 12,-38 5,-28 -7,-20 -18,-13 z"
   id="path132"
   inkscape:connector-curvature="0"
   style="fill:#000000;stroke:none" />
         <path
   d="m 12614,15549 -5,58 5,61 15,56 28,51 43,46 61,35 81,23 102,8 97,-8 78,-23 61,-35 44,-44 33,-50 17,-56 11,-59 2,-58 z"
   id="path134"
   inkscape:connector-curvature="0"
   style="fill:#000000;stroke:none" />
         <path
   d="m 12294,14868 10,-5 30,-10 44,-16 48,-15 51,-13 45,-7 36,5 20,15 21,51 33,91 40,117 49,130 43,127 38,109 28,76 10,28 h 69 l -11,-28 -25,-76 -36,-109 -43,-127 -43,-127 -41,-117 -30,-89 -15,-48 -8,-21 -10,-23 -10,-20 -16,-18 -17,-12 -21,-8 -30,-2 -36,5 -43,10 -43,12 -41,13 -40,13 -33,10 -28,10 -18,5 -5,3 z"
   id="path136"
   inkscape:connector-curvature="0"
   style="fill:#000000;stroke:none" />
         <path
   d="m 13251,15041 6,20 10,28 10,30 10,33 13,33 12,28 13,28 13,21 38,-21 33,-23 30,-30 26,-33 23,-36 15,-40 10,-41 3,-46 -5,-58 -18,-54 -28,-50 -33,-44 -43,-35 -51,-25 -56,-18 -58,-5 -59,5 -53,18 -51,25 -43,35 -36,44 -25,50 -18,54 -5,58 2,46 11,41 15,40 23,36 25,33 31,30 33,23 38,21 5,-26 13,-30 12,-31 15,-30 13,-33 15,-33 11,-33 7,-31 z"
   id="path138"
   inkscape:connector-curvature="0"
   style="fill:#000000;stroke:none" />
         <path
   d="m 13203,15015 -129,148 -16,-11 -15,-12 -13,-16 -12,-17 20,-18 23,-20 28,-23 28,-21 25,-20 26,-18 17,-13 11,-7 -26,-3 -28,-7 -33,-8 -30,-8 -28,-10 -26,-7 -20,-5 -10,-3 10,-15 10,-21 8,-15 2,-5 21,8 25,10 31,13 33,12 28,13 25,8 18,7 5,3 2,-48 3,-64 2,-51 3,-23 h 15 l 15,3 16,5 15,8 -10,40 -8,59 -10,56 -3,30 23,-5 28,-5 28,-8 31,-5 28,-7 28,-3 20,-5 h 18 l 7,13 3,15 2,15 v 18 l -22,2 -23,3 -26,3 -25,5 -26,2 -22,3 -18,2 h -15 l 15,13 18,18 22,20 23,20 23,21 21,18 15,15 10,10 -13,15 -15,13 -15,8 -18,7 -15,-15 -16,-18 -20,-20 -18,-21 -17,-17 -16,-18 -12,-13 -11,-7 z"
   id="path140"
   inkscape:connector-curvature="0"
   style="fill:#7ae533;stroke:none" />
         <path
   d="m 8965,14875 -12,-17 -15,-18 -16,-18 -15,-18 -41,-58 -28,-56 -15,-56 -5,-53 5,-51 10,-51 18,-48 20,-46 -63,-61 -48,-71 -36,-74 -25,-76 -16,-71 -7,-66 -5,-56 2,-43 5,-21 3,-17 5,-21 3,-20 7,-36 8,-35 10,-36 10,-38 13,-41 13,-40 15,-38 15,-38 15,-39 21,-35 17,-36 23,-33 28,-7 28,-8 33,-10 33,-8 33,-7 33,-8 33,-5 33,-5 82,2 83,3 84,5 87,3 86,7 89,5 84,8 84,5 81,8 79,7 73,8 69,7 63,8 59,5 48,8 43,5 11,2 h 12 l 10,3 11,3 12,2 h 10 l 11,3 10,2 -18,48 -28,44 -41,38 -45,33 -51,28 -54,20 -48,15 -46,10 -20,18 -15,26 -13,28 -10,30 -18,3 -20,-3 -18,-8 -15,-7 -15,-13 -11,-13 -10,-12 -5,-16 -5,-17 -13,-23 -20,-26 -23,-22 -30,-21 -33,-15 -38,-3 -41,11 -41,28 -23,40 -5,51 3,58 10,72 8,78 5,87 -3,96 -18,97 -27,96 -36,92 -43,89 -46,81 -46,74 -43,66 -35,53 -26,48 -20,46 -10,46 -8,46 -2,40 v 41 l 2,38 3,36 10,28 20,30 25,33 28,33 31,38 28,41 23,46 18,53 7,8 20,5 23,7 31,8 28,8 25,7 15,10 8,8 -5,51 -10,48 -18,46 -20,43 -28,43 -28,38 -33,38 -33,36 -36,36 -35,30 -33,31 -33,27 -33,26 -28,23 -23,20 -21,20 -7,-25 -21,-33 -33,-38 -40,-48 -43,-56 -41,-66 -38,-77 -28,-89 -26,-106 -17,-120 -5,-134 17,-165 11,-44 10,-30 7,-28 z"
   id="path142"
   inkscape:connector-curvature="0"
   style="fill:#000000;stroke:none" />
         <path
   d="m 9209,15965 21,-20 23,-20 28,-23 33,-26 33,-27 33,-31 35,-30 36,-36 33,-36 33,-38 28,-38 28,-43 20,-43 18,-46 10,-48 5,-51 -8,-8 -15,-10 -25,-7 -28,-8 -31,-8 -23,-7 -20,-5 -7,-8 25,-13 30,-12 31,-13 33,-10 35,-13 39,-8 40,-10 41,-7 41,-8 43,-8 40,-7 44,-5 40,-8 43,-5 41,-3 38,-5 23,5 31,5 38,8 38,8 43,10 38,13 38,12 33,13 31,13 28,15 30,15 26,15 25,16 23,12 20,16 18,15 30,28 28,23 26,23 25,20 23,20 25,23 28,23 31,28 38,35 46,46 56,56 55,64 54,71 48,73 41,79 28,82 17,76 21,68 18,61 17,59 16,56 15,56 13,61 10,63 10,76 13,84 10,92 10,94 10,91 10,84 8,74 7,61 v 2 l 11,33 17,51 26,56 38,51 48,28 59,-5 73,-51 28,-26 33,-23 36,-25 41,-25 43,-28 40,-31 38,-33 36,-38 48,-61 46,-61 46,-58 40,-59 36,-56 30,-48 28,-43 18,-36 26,-56 22,-63 21,-69 20,-68 20,-69 21,-63 20,-56 23,-49 23,-43 23,-43 28,-46 30,-43 36,-43 45,-38 56,-36 69,-28 18,10 18,13 17,15 16,18 12,20 13,23 13,28 10,31 66,-15 63,-18 59,-21 53,-22 48,-23 44,-21 35,-20 33,-18 15,-7 18,-11 15,-10 16,-12 7,15 5,18 6,17 5,18 5,46 v 46 l -10,43 -18,35 10,26 8,23 7,23 5,22 10,46 5,48 -12,59 -33,68 30,26 15,33 v 43 l -20,56 -5,10 -8,13 -7,10 -8,13 -20,30 -18,28 -18,21 -20,15 -25,15 -36,13 -46,12 -58,13 -54,10 -48,10 -43,11 -38,7 -33,8 -31,7 -25,8 -23,5 -23,36 -20,35 -18,33 -20,33 -18,31 -15,28 -18,25 -15,23 56,-25 53,-13 51,-5 48,5 43,10 43,20 39,26 38,30 35,38 33,39 31,43 30,43 28,46 26,45 25,44 25,43 28,-10 28,-8 26,-8 28,-5 25,-5 28,-5 25,-2 28,-3 26,-2 h 25 28 l 26,2 h 25 l 25,5 28,3 26,5 101,43 87,79 66,109 53,130 41,142 28,145 18,137 10,127 h -163 -310 -140 -1666 l -41,36 -46,35 -45,33 -49,31 -43,25 -38,20 -33,13 -23,5 -23,-5 -28,-13 -28,-20 -28,-25 -30,-31 -33,-33 -31,-35 -33,-36 h -320 -861 -1052 l -56,-53 -56,-72 -48,-86 -48,-96 -43,-105 -41,-111 -36,-112 -33,-115 -30,-109 -25,-104 -21,-97 -18,-83 -15,-72 -10,-50 -5,-33 -3,-11 -5,-124 -15,-191 -15,-231 -10,-234 5,-94 15,-94 28,-89 36,-81 43,-76 48,-64 51,-53 51,-36 48,-25 38,-23 36,-18 30,-17 25,-21 28,-23 28,-25 31,-36 28,89 38,77 41,66 43,56 40,48 33,38 21,33 z"
   id="path144"
   inkscape:connector-curvature="0"
   style="fill:#000000;stroke:none" />
         <path
   d="m 10906,13989 -12,-26 -13,-25 -10,-28 -13,-28 -12,-28 -16,-28 -15,-30 -18,-33 -10,-23 -13,-26 -10,-23 -10,-22 -10,-44 v -40 l 5,-41 5,-38 -36,-15 -40,-16 -43,-15 -46,-15 -48,-15 -49,-13 -50,-13 -51,-10 -18,48 -28,44 -41,38 -45,33 -51,28 -54,20 -48,15 -46,10 -20,18 -15,26 -13,28 -10,30 -18,3 -20,-3 -18,-8 -15,-7 -15,-13 -11,-13 -10,-12 -5,-16 -5,-17 -13,-23 -20,-26 -23,-22 -30,-21 -33,-15 -38,-3 -41,11 -41,28 -23,40 -5,51 3,58 10,72 8,78 5,87 -3,96 -18,97 -27,96 -36,92 -43,89 -46,81 -46,74 -43,66 -35,53 -26,48 -20,46 -10,46 -8,46 -2,40 v 41 l 2,38 3,36 10,28 20,30 25,33 28,33 31,38 28,41 23,46 18,53 22,-13 26,-12 28,-11 30,-10 33,-10 33,-10 33,-8 36,-7 38,-8 38,-8 38,-5 38,-7 38,-5 39,-5 35,-3 38,-5 15,-3 16,-2 h 15 l 15,-3 v -99 l 10,-84 18,-68 18,-56 8,-15 7,-13 10,-10 10,-8 13,-5 13,-2 15,2 15,5 28,10 31,8 30,5 36,5 33,5 h 35 36 l 33,-2 36,-5 33,-6 30,-7 31,-10 28,-10 22,-13 23,-15 18,-18 28,-38 20,-43 11,-59 -3,-76 15,-10 15,-18 16,-20 7,-21 3,-25 -3,-20 -15,-21 -23,-18 26,-15 17,-23 5,-33 -15,-48 5,-31 8,-22 10,-18 13,-13 13,-7 12,-6 10,-2 h 8 l 18,-3 23,-2 20,-5 23,-8 15,-13 13,-15 2,-20 -7,-28 -8,-15 -8,-18 -10,-15 -7,-18 -10,-18 -11,-18 -12,-18 z"
   id="path146"
   inkscape:connector-curvature="0"
   style="fill:#000000;stroke:none" />
         <path
   d="m 9110,13285 -33,5 -33,5 -33,8 -33,7 -33,8 -33,10 -28,8 -28,7 -23,33 -17,36 -21,35 -15,39 -15,38 -15,38 -13,40 -13,41 -10,38 -10,36 -8,35 -7,36 -3,20 -5,21 -3,17 -5,21 -117,-10 -111,-16 -105,-15 -96,-23 -89,-23 -81,-28 -71,-30 -66,-31 -56,-33 -49,-38 -40,-35 -31,-38 -23,-41 -12,-41 -5,-40 5,-41 12,-31 23,-25 31,-28 38,-23 48,-23 53,-20 59,-18 63,-15 69,-15 71,-15 74,-11 76,-10 74,-7 76,-8 74,-5 73,-5 5,-23 5,-20 6,-23 5,-21 5,-20 7,-20 8,-18 5,-20 38,-87 46,-78 53,-72 59,-66 63,-56 69,-53 71,-43 76,-41 79,-30 84,-28 84,-21 83,-15 87,-10 84,-3 h 86 l 84,8 46,5 45,8 46,10 43,10 46,10 43,16 43,15 41,15 53,23 51,28 51,28 48,33 46,35 46,36 40,38 38,41 36,43 33,46 28,45 25,49 23,48 15,51 16,51 7,53 3,18 v 23 l 2,22 v 21 20 23 20 23 l 69,20 74,21 76,23 79,23 76,25 79,28 73,25 74,28 69,31 61,30 58,31 48,30 38,33 31,33 18,33 7,33 -5,33 -18,31 -28,25 -35,26 -43,23 -51,17 -56,18 -58,18 -61,13 -64,12 -66,13 -63,10 -61,8 -59,7 -53,8 -49,8 -12,-26 -13,-25 -10,-28 -13,-28 -12,-28 -16,-28 -15,-30 -18,-33 -10,-23 -13,-26 -10,-23 -10,-22 h 18 l 18,-6 20,-5 20,-7 16,-8 15,-10 7,-13 5,-12 -2,-13 -5,-13 -8,-13 -12,-12 -16,-10 -20,-13 -25,-15 -31,-13 -36,-15 -40,-16 -43,-15 -46,-15 -48,-15 -49,-13 -50,-13 -51,-10 -10,-2 -11,-3 h -10 l -12,-2 -11,-3 -10,-3 h -12 l -11,-2 -43,-5 -48,-8 -59,-5 -63,-8 -69,-7 -73,-8 -79,-7 -81,-8 -84,-5 -84,-8 -89,-5 -86,-7 -87,-3 -84,-5 -83,-3 z"
   id="path148"
   inkscape:connector-curvature="0"
   style="fill:#000000;stroke:none" />
         <path
   d="m 8724,13643 -10,38 -10,36 -8,35 -7,36 -69,-8 -71,-10 -71,-10 -71,-15 -72,-15 -68,-18 -66,-18 -61,-20 -59,-23 -53,-26 -46,-25 -38,-28 -33,-28 -23,-28 -15,-30 -3,-33 13,-33 28,-31 46,-25 58,-21 71,-17 79,-16 89,-12 97,-11 99,-5 101,-5 102,-2 h 102 99 l 91,2 87,3 78,5 -33,5 -33,5 -33,8 -33,7 -33,8 -33,10 -28,8 -28,7 -58,21 -56,20 -51,23 -46,20 -40,23 -31,23 -20,28 -10,30 2,21 10,20 18,18 23,15 25,13 34,10 33,10 z"
   id="path150"
   inkscape:connector-curvature="0"
   style="fill:#8e491e;stroke:none" />
         <path
   d="m 9550,12942 -3,20 -2,18 -3,20 v 21 l -56,-3 -58,-2 -56,-3 h -56 -58 l -56,-3 h -56 l -56,3 h -56 l -56,3 -53,2 -54,3 -53,2 -53,5 -54,5 -50,5 5,-20 7,-20 8,-18 5,-20 51,-5 53,-6 51,-5 53,-2 54,-3 53,-2 53,-3 h 56 l 54,-2 h 56 l 53,2 h 56 56 l 53,3 56,2 z"
   id="path152"
   inkscape:connector-curvature="0"
   style="fill:#8e491e;stroke:none" />
         <path
   d="m 9550,12942 -3,20 -2,18 -3,20 v 21 22 21 l 3,23 2,20 84,5 84,8 84,5 84,7 83,11 82,10 81,10 79,10 76,10 76,13 71,13 72,10 66,13 63,15 59,12 55,13 v -23 -20 -23 -20 -21 l -2,-22 v -23 l -3,-18 -7,-53 -16,-51 -15,-51 -23,-48 -25,-49 -28,-45 -33,-46 -36,-43 -38,-41 -40,-38 -46,-36 -46,-35 -48,-33 -51,-28 -51,-28 -53,-23 -69,-18 -66,-7 h -61 l -58,10 -53,15 -51,23 -46,30 -43,33 -38,41 -33,43 -31,49 -25,50 -21,54 -17,53 -13,56 z"
   id="path154"
   inkscape:connector-curvature="0"
   style="fill:#8e491e;stroke:none" />
         <path
   d="m 9542,13021 84,5 86,5 84,7 84,8 81,10 82,8 78,10 79,10 76,13 74,10 74,13 68,12 69,13 63,13 64,15 58,13 v -21 l -2,-22 v -23 l -3,-18 -58,-13 -64,-15 -63,-13 -69,-12 -68,-13 -71,-10 -74,-13 -76,-10 -77,-10 -78,-10 -82,-8 -78,-8 -84,-7 -82,-8 -83,-5 -84,-5 -3,20 -2,18 -3,20 z"
   id="path156"
   inkscape:connector-curvature="0"
   style="fill:#000000;stroke:none" />
         <path
   d="m 10754,13669 h 18 l 18,-6 20,-5 20,-7 16,-8 15,-10 7,-13 5,-12 -2,-13 -5,-13 -8,-13 -12,-12 -16,-10 -20,-13 -25,-15 -31,-13 -5,38 -5,41 v 40 z"
   id="path158"
   inkscape:connector-curvature="0"
   style="fill:#000000;stroke:none" />
         <path
   d="m 8965,14875 -10,31 -7,28 -10,30 -11,44 13,20 15,23 21,18 20,17 23,13 25,10 23,8 25,2 -2,-23 -5,-25 -10,-25 -13,-31 -18,-30 -20,-33 -28,-36 z"
   id="path160"
   inkscape:connector-curvature="0"
   style="fill:#ffd14c;stroke:none" />
         <path
   d="m 9347,14705 -26,48 -20,46 -10,46 -8,46 -2,40 v 41 l 2,38 3,36 -13,-51 -18,-51 -15,-53 -13,-54 -7,-51 -6,-53 6,-51 15,-51 15,-33 20,-33 26,-33 30,-35 31,-36 33,-35 35,-36 36,-35 33,-39 33,-35 30,-38 26,-36 23,-38 17,-38 13,-36 5,-38 -18,97 -27,96 -36,92 -43,89 -46,81 -46,74 -43,66 z"
   id="path162"
   inkscape:connector-curvature="0"
   style="fill:#ffd14c;stroke:none" />
         <path
   d="m 9209,15965 21,-20 23,-20 28,-23 33,-26 33,-27 33,-31 35,-30 36,-36 33,-36 33,-38 28,-38 28,-43 20,-43 18,-46 10,-48 5,-51 -8,-8 -15,-10 -25,-7 -28,-8 -31,-8 -23,-7 -20,-5 -7,-8 -18,-53 -23,-46 -28,-41 -31,-38 -28,-33 -25,-33 -20,-30 -10,-28 10,38 15,38 15,41 15,40 16,43 12,49 11,53 2,61 v 43 l 3,46 -3,53 -10,61 -18,71 -30,82 -49,94 z"
   id="path164"
   inkscape:connector-curvature="0"
   style="fill:#ffd14c;stroke:none" />
         <path
   d="m 13292,16626 20,-56 v -43 l -15,-33 -30,-26 33,-68 12,-59 -5,-48 -10,-46 -20,11 -26,15 -25,13 -23,15 -15,18 -8,15 8,18 23,15 -33,18 -13,17 -2,18 7,21 13,17 13,16 7,15 v 10 l -7,15 -3,21 -2,22 5,26 10,20 18,18 27,8 z"
   id="path166"
   inkscape:connector-curvature="0"
   style="fill:#d3a393;stroke:none" />
         <path
   d="m 10772,15592 38,35 46,46 56,56 55,64 54,71 48,73 41,79 28,82 28,132 23,134 17,135 16,130 10,129 7,120 5,109 v 99 l 8,23 18,38 23,48 25,64 10,38 13,40 10,46 13,43 10,44 13,40 10,33 10,26 18,-8 20,-15 28,-18 28,-20 30,-23 31,-23 28,-23 25,-20 28,-26 33,-23 36,-25 41,-25 43,-28 40,-31 38,-33 36,-38 41,-38 43,-43 46,-46 45,-48 44,-49 38,-43 33,-40 23,-33 20,-41 20,-56 23,-71 20,-81 18,-84 20,-87 16,-81 15,-74 23,-43 23,-43 28,-46 30,-43 36,-43 45,-38 56,-36 69,-28 -46,51 -23,41 3,33 18,20 30,15 41,5 h 46 l 48,-7 66,-15 63,-18 59,-21 53,-22 48,-23 44,-21 35,-20 33,-18 15,-7 18,-11 15,-10 16,-12 7,15 5,18 6,17 5,18 -23,18 -31,23 -40,25 -44,26 -45,23 -46,20 -43,18 -38,10 -36,-8 -35,10 -36,11 -36,12 -35,13 -36,13 -38,12 -33,16 -35,12 -31,13 -30,13 -28,10 -26,10 -23,10 -17,8 -16,5 -10,5 -18,15 -17,28 -18,41 -15,46 -16,48 -15,48 -10,41 -5,33 2,28 11,33 17,35 23,41 28,43 36,46 35,51 38,53 -17,36 -21,35 -20,31 -23,30 -23,28 -25,28 -26,25 -28,23 -30,23 -31,21 -33,20 -33,18 -35,17 -38,16 -41,15 -41,13 -55,17 -51,21 -51,23 -48,22 -44,26 -43,25 -43,28 -38,28 -41,33 -38,31 -35,33 -36,35 -36,36 -35,38 -36,38 -35,41 -18,-36 -25,-51 -28,-58 -33,-71 -33,-76 -36,-84 -36,-87 -35,-89 -36,-89 -33,-86 -30,-81 -28,-79 -20,-71 -18,-61 -10,-48 -3,-38 -5,-61 -13,-92 -12,-86 -6,-56 6,-76 -3,-66 -10,-82 -26,-122 -20,-71 -28,-61 -35,-58 -44,-54 -50,-50 -56,-49 -64,-51 -71,-53 -46,-30 -48,-28 -48,-26 -48,-23 -51,-17 -54,-18 -56,-15 -55,-11 -59,-10 -61,-7 -63,-5 -66,-3 -66,-3 h -72 -71 l -76,3 -8,-8 -15,-10 -25,-7 -28,-8 -31,-8 -23,-7 -20,-5 -7,-8 25,-13 30,-12 31,-13 33,-10 35,-13 39,-8 40,-10 41,-7 41,-8 43,-8 40,-7 44,-5 40,-8 43,-5 41,-3 38,-5 23,5 31,5 38,8 38,8 43,10 38,13 38,12 33,13 23,20 18,21 13,20 12,20 10,18 11,18 15,15 18,15 22,13 26,8 30,10 33,13 38,17 44,23 48,31 z"
   id="path168"
   inkscape:connector-curvature="0"
   style="fill:#d3a393;stroke:none" />
         <path
   d="m 11735,18397 h 1666 l 16,-13 20,-12 20,-16 21,-15 20,-15 20,-10 18,-11 13,-7 20,-8 18,-2 13,5 10,7 2,13 -10,8 -15,7 -18,3 -13,8 -10,17 -5,21 v 20 h 310 l 3,-53 5,-77 10,-83 13,-69 5,-51 -8,-51 -15,-48 -23,-46 -20,-45 -13,-49 -5,-45 5,-46 v -26 l -5,-28 -18,-33 -23,-35 -28,-36 -35,-35 -44,-31 -45,-25 -26,-5 -28,-3 -25,-5 h -25 l -26,-2 h -28 -25 l -26,2 -28,3 -25,2 -28,5 -25,5 -28,5 -26,8 -28,8 -28,10 -81,30 -18,-45 -20,-49 -25,-45 -26,-44 -30,-43 -31,-40 -35,-39 -33,-35 -38,-28 -39,-26 -38,-20 -38,-15 -38,-8 -38,-2 -38,7 -38,13 -31,59 -38,68 -38,74 -41,76 -43,79 -43,76 -38,69 -38,61 25,-13 31,-13 33,-13 38,-12 38,-10 41,-11 40,-7 41,-5 41,-3 h 38 l 35,5 31,5 28,13 23,15 17,23 10,26 -45,28 -51,30 -56,33 -56,33 -61,36 -61,38 -61,35 -61,36 -58,35 -59,36 -56,33 -50,31 -46,28 -41,25 -35,23 -28,18 -28,33 -31,33 -30,30 -28,28 -31,26 -28,22 -22,21 z"
   id="path170"
   inkscape:connector-curvature="0"
   style="fill:#d3a393;stroke:none" />
         <path
   d="m 10012,15221 15,-3 16,-2 h 15 l 15,-3 -35,-132 -11,-107 6,-81 10,-63 2,-28 -2,-26 -5,-23 -8,-20 -10,-23 -13,-20 -15,-25 -15,-26 -26,-56 -12,-63 v -66 l 5,-74 -39,-13 -35,-15 -38,-20 -38,-23 -36,-26 -30,-28 -31,-30 -23,-31 -23,64 -28,61 -30,58 -30,56 -26,54 -23,53 -15,51 -5,53 2,46 8,48 13,48 20,49 26,48 33,41 40,38 48,28 51,23 54,25 50,25 49,28 40,31 38,30 28,33 z"
   id="path172"
   inkscape:connector-curvature="0"
   style="fill:#d3a393;stroke:none" />
         <path
   d="m 10749,14591 3,76 -11,59 -20,43 -28,38 -69,2 -68,-5 -69,-12 -66,-23 -66,-28 -63,-36 -59,-40 -56,-46 -50,-48 -46,-54 -41,-56 -33,-56 -28,-58 -20,-61 -10,-58 -3,-59 -23,3 h -20 -23 l -23,-5 -23,-11 -23,-15 -25,-23 -25,-30 -23,-36 -21,-30 -17,-31 -13,-28 -10,-25 -10,-26 -8,-22 -5,-23 -8,-41 3,-25 8,-13 15,-8 h 15 l 18,8 12,20 13,41 8,23 13,25 15,26 18,25 20,20 20,18 18,10 18,5 28,-5 15,-15 5,-28 -5,-43 v -20 l 2,-21 8,-18 13,-10 13,-7 15,2 18,13 15,23 28,-18 33,-15 38,-13 43,-13 43,-10 49,-7 48,-6 51,-2 h 50 l 51,2 51,8 48,10 49,16 43,17 43,23 38,28 56,-7 3,-34 7,-40 15,-33 23,-15 18,33 15,30 16,28 12,28 13,28 10,28 13,25 12,26 23,53 16,43 -5,38 -36,23 -15,5 -16,10 -10,11 -7,7 -10,10 -8,11 -10,5 -13,2 -3,26 -5,17 -7,23 -3,46 -23,33 -28,30 -30,26 -31,25 -27,18 -23,15 -16,11 -5,2 18,13 20,15 21,15 20,15 18,16 18,12 12,16 z"
   id="path174"
   inkscape:connector-curvature="0"
   style="fill:#d3a393;stroke:none" />
         <path
   d="m 10863,18397 h -861 l 43,-23 43,-25 44,-26 40,-28 41,-30 41,-33 38,-38 38,-44 38,-48 35,-53 36,-59 33,-68 36,-74 30,-84 31,-91 30,-102 15,28 16,26 15,27 15,23 13,26 15,23 15,23 15,22 v 69 l -2,74 2,73 8,79 18,79 25,84 38,84 z"
   id="path176"
   inkscape:connector-curvature="0"
   style="fill:#b200ff;stroke:none" />
         <path
   d="m 10772,15592 -56,-43 -48,-31 -44,-23 -38,-17 -33,-13 -30,-10 -26,-8 -22,-13 -18,-15 -15,-15 -11,-18 -10,-18 -12,-20 -13,-20 -18,-21 -23,-20 -33,-13 -38,-12 -38,-13 -43,-10 -38,-8 -38,-8 -31,-5 -23,-5 -38,5 -41,3 -43,5 -40,8 -44,5 -40,7 -43,8 -41,8 -41,7 -40,10 -39,8 -35,13 -33,10 -31,13 -30,12 -25,13 7,8 20,5 23,7 31,8 28,8 25,7 15,10 8,8 76,-3 h 71 72 l 66,3 66,3 63,5 61,7 59,10 55,11 56,15 54,18 51,17 48,23 48,26 48,28 46,30 -10,-30 8,-21 20,-10 33,-2 35,7 41,10 41,16 z"
   id="path178"
   inkscape:connector-curvature="0"
   style="fill:#b200ff;stroke:none" />
         <path
   d="m 8305,18397 -10,-66 -26,-178 -38,-259 -46,-302 -45,-321 -43,-299 -39,-249 -22,-166 -16,-106 -17,-94 -23,-79 -26,-64 -30,-50 -36,-33 -43,-16 h -51 l -43,21 -28,35 -18,51 -5,61 v 69 l 5,73 10,74 11,74 5,30 7,46 8,56 10,68 13,77 13,86 12,94 15,97 18,116 18,122 20,125 18,122 10,76 13,76 10,74 13,71 10,69 10,66 8,61 10,56 15,96 10,74 8,48 3,18 z"
   id="path180"
   inkscape:connector-curvature="0"
   style="fill:#000000;stroke:none" />
         <path
   d="m 10724,18397 86,-5 -13,-79 -30,-213 -46,-308 -56,-361 -56,-373 -51,-351 -43,-284 -25,-178 -18,-107 -18,-94 -20,-79 -25,-63 -31,-48 -36,-33 -43,-18 -51,2 -12,3 -13,5 -13,8 -7,7 -10,8 -8,10 -8,13 -5,12 -18,79 v 99 l 11,107 15,107 20,147 41,267 53,345 59,379 58,371 48,318 36,223 13,84 z"
   id="path182"
   inkscape:connector-curvature="0"
   style="fill:#000000;stroke:none" />
         <path
   d="m 10424,16202 -10,-66 -16,-72 -17,-63 -26,-61 -30,-46 -41,-30 -51,-8 -61,15 5,-12 8,-13 8,-10 10,-8 7,-7 13,-8 13,-5 12,-3 51,-2 43,18 36,33 31,48 25,63 20,79 18,94 18,107 25,180 43,285 51,348 56,376 56,361 46,307 30,214 13,81 h -86 l -3,-10 -3,-33 -7,-54 -10,-68 -10,-84 -13,-97 -15,-109 -16,-117 -10,-66 -7,-68 -11,-69 -10,-71 -10,-71 -8,-71 -10,-72 -10,-73 -18,-132 -20,-130 -18,-127 -15,-119 -25,-181 -21,-147 -12,-109 -11,-64 -2,-13 v -15 l -3,-13 z"
   id="path184"
   inkscape:connector-curvature="0"
   style="fill:#33b2ff;stroke:none" />
         <path
   d="m 10500,16756 -25,-181 -21,-147 -12,-109 -11,-64 -2,-13 v -15 l -3,-13 -2,-12 -46,12 -51,16 -56,15 -63,15 -69,13 -71,15 -76,15 -79,16 -84,15 -89,15 -89,13 -91,15 -94,15 -97,13 -99,15 -99,13 -99,13 -99,12 -102,13 -99,13 -99,10 -99,10 -96,10 -94,10 -94,11 -92,7 -86,8 -87,5 -81,5 -76,5 -74,5 -68,3 5,30 7,46 8,56 10,68 13,77 13,86 12,94 15,97 61,-3 64,-3 66,-2 69,-3 71,-5 76,-2 76,-5 79,-5 81,-8 84,-5 84,-8 86,-7 87,-11 89,-7 89,-10 91,-10 91,-13 92,-13 94,-13 91,-12 94,-13 92,-15 91,-18 92,-15 91,-18 92,-18 89,-20 89,-20 86,-21 86,-23 84,-23 z"
   id="path186"
   inkscape:connector-curvature="0"
   style="fill:#33b2ff;stroke:none" />
         <path
   d="m 10647,17825 -10,-66 -7,-68 -11,-69 -10,-71 -10,-71 -8,-71 -10,-72 -10,-73 -46,12 -50,16 -56,15 -64,13 -66,15 -74,13 -73,15 -82,13 -83,15 -87,12 -89,16 -91,12 -94,13 -97,13 -96,13 -99,12 -99,13 -99,10 -102,13 -99,10 -99,10 -97,10 -96,10 -94,8 -94,8 -89,7 -89,8 -84,5 -81,5 -77,5 -73,5 -69,3 10,76 13,76 10,74 13,71 10,69 10,66 8,61 10,56 61,-3 63,-2 h 67 l 68,-6 71,-2 74,-3 76,-5 79,-2 81,-5 84,-5 84,-8 84,-5 89,-8 86,-7 92,-8 88,-10 92,-10 91,-10 92,-11 91,-12 94,-13 92,-13 91,-15 92,-15 91,-15 89,-18 92,-18 86,-20 89,-21 84,-20 84,-23 z"
   id="path188"
   inkscape:connector-curvature="0"
   style="fill:#33b2ff;stroke:none" />
         <path
   d="m 10500,16756 -25,-181 -21,-147 -12,-109 -11,-64 -2,-13 v -15 l -3,-13 -2,-12 -46,12 -51,16 -56,15 -63,15 -69,13 -71,15 -76,15 -79,16 -84,15 -89,15 -89,13 -91,15 -94,15 -97,13 -99,15 -99,13 -99,13 -99,12 -102,13 -99,13 -99,10 -99,10 -96,10 -94,10 -94,11 -92,7 -86,8 -87,5 -81,5 -76,5 -74,5 -68,3 5,30 7,46 8,56 10,68 13,77 13,86 12,94 15,97 61,-3 64,-3 66,-2 69,-3 71,-5 76,-2 76,-5 79,-5 81,-8 84,-5 84,-8 86,-7 87,-11 89,-7 89,-10 91,-10 91,-13 92,-13 94,-13 91,-12 94,-13 92,-15 91,-18 92,-15 91,-18 92,-18 89,-20 89,-20 86,-21 86,-23 84,-23 z"
   id="path190"
   inkscape:connector-curvature="0"
   style="fill:#33b2ff;stroke:none" />
         <path
   d="m 7243,18384 76,-12 61,5 46,20 35,30 26,36 15,33 8,33 2,20 v 18 l 5,15 5,13 8,13 10,7 15,6 18,2 h 23 l 36,3 30,7 31,15 33,16 43,15 56,13 73,10 h 97 l 53,-5 54,-13 53,-15 58,-23 56,-28 59,-30 56,-34 58,-38 59,-35 55,-38 59,-38 53,-39 56,-35 53,-33 51,-31 49,-28 48,-22 46,-21 45,-15 43,-13 44,-10 40,-10 41,-5 38,-3 36,-2 h 33 l 33,2 30,3 28,2 26,5 20,6 20,5 21,5 20,5 20,5 20,5 21,3 23,5 h 17 l 21,2 h 18 15 l 15,-2 15,-3 -51,-63 -63,-67 -76,-66 -84,-63 -94,-61 -102,-61 -106,-56 -112,-53 -112,-51 -117,-43 -114,-41 -115,-33 -111,-25 -107,-18 -102,-10 -94,-3 h -17 l -21,3 -18,2 h -17 l -16,5 -17,3 -18,2 -15,5 -16,-20 -15,-15 -13,-13 -12,-7 -16,-8 -12,-3 -15,-2 h -16 -15 l -15,-5 -13,-5 -13,-8 -12,-5 -8,-10 -8,-8 -5,-7 -7,-13 -8,-10 -13,-10 -12,-8 -13,-3 -15,5 -15,13 -13,20 -15,18 -18,3 -21,-10 -20,-16 -23,-17 -20,-13 -23,-3 -23,13 -15,15 -20,21 -18,25 -20,25 -21,28 -18,28 -20,26 -15,25 -15,20 -21,13 -23,8 -25,2 -25,-2 -28,-5 -26,-8 -25,-10 -26,-5 -22,5 -21,13 -23,17 -20,23 -20,23 -21,23 -20,20 -23,11 -23,2 -25,-5 -28,-10 -25,-10 -26,-11 -20,-2 -18,2 -20,18 -8,23 -7,20 -18,18 -15,5 -13,-2 -15,-8 -11,-10 -12,-8 -13,-7 -13,-3 -15,5 -15,21 -8,28 -7,28 -13,12 h -10 l -10,-5 -11,-5 -10,-8 -10,-7 -10,-5 -13,-3 h -10 l -23,10 -13,13 -12,18 -10,20 -11,10 -15,5 -15,3 -18,3 -18,2 -12,8 -11,10 -5,15 3,20 8,11 12,5 16,2 15,3 15,2 13,8 7,15 8,26 10,12 15,5 21,-10 28,-5 20,8 18,15 7,18 5,12 8,8 h 10 l 13,-8 18,-10 18,-2 17,5 16,10 15,13 15,12 10,16 5,15 5,15 11,8 h 15 l 18,-10 25,-13 h 25 l 26,13 23,17 17,23 16,23 12,18 5,10 8,18 10,10 h 13 l 23,-13 28,-17 28,-11 28,-2 28,2 25,11 23,15 18,23 15,28 18,55 12,46 13,31 z"
   id="path192"
   inkscape:connector-curvature="0"
   style="fill:#000000;stroke:none" />
         <path
   d="m 8099,17538 20,38 18,43 15,46 11,46 5,41 2,33 -5,22 -10,8 -10,-13 -10,-30 -13,-46 -18,-56 -23,-56 -28,-53 -35,-41 -43,-28 -16,-20 -15,-15 -13,-13 -12,-7 -16,-8 -12,-3 -15,-2 h -16 l -20,2 -15,8 -16,10 -12,10 -18,13 -23,8 -28,5 -35,-3 15,-13 18,-12 15,-13 13,-13 10,-12 7,-16 3,-10 -3,-12 -7,-13 -8,-10 -13,-10 -12,-8 -13,-3 -15,5 -15,13 -13,20 -18,28 -23,26 -28,23 -30,23 -31,17 -33,18 -35,15 -33,11 30,-23 31,-31 22,-30 18,-28 8,-28 v -23 l -13,-15 -28,-8 -15,15 -20,21 -18,25 -20,25 -21,28 -18,28 -20,26 -15,25 -15,20 -21,13 -23,8 -25,2 -25,-2 -28,-5 -26,-8 -25,-10 -26,-5 -22,5 -21,13 -23,17 -20,23 -20,23 -21,23 -20,20 -15,11 -18,7 -18,8 -17,2 -18,3 -18,-3 -20,-5 -18,-7 -18,-8 -13,-3 -10,6 -7,5 -8,10 -5,12 -8,13 -7,15 -8,8 -10,3 -13,2 h -13 l -15,-2 -13,-3 -10,-5 -10,-5 -15,-5 -18,5 -15,20 -15,36 -13,7 -13,3 -15,-5 -13,-10 -15,-10 -13,-11 -10,-7 -10,-3 -23,10 -13,13 -12,18 -10,20 -11,10 -15,5 -15,3 -18,3 -18,2 -12,8 -11,10 -5,15 11,-8 12,-7 13,-3 h 13 l 10,3 13,2 7,5 8,6 15,12 23,3 18,-10 5,-31 33,-15 10,13 10,10 5,12 5,18 21,-12 22,-8 h 23 l 23,2 21,8 20,15 18,21 15,25 8,-28 v -30 l -6,-33 -7,-36 28,13 20,18 13,25 5,30 23,3 23,5 17,8 16,10 12,18 13,20 8,25 7,33 h 10 l 11,-2 7,-8 3,-15 v -20 l -3,-21 3,-20 5,-13 10,-10 13,-10 7,-15 -2,-18 -8,-18 -7,-10 -11,-8 -7,-5 12,-18 8,-17 5,-18 3,-15 17,17 18,18 18,18 13,23 7,28 5,35 -2,41 -10,51 25,-10 31,-10 28,-8 30,-5 28,-5 28,2 20,5 18,11 15,12 13,13 13,13 12,10 13,7 13,8 13,3 12,2 5,-41 v -27 l -5,-16 -10,-12 -15,-18 -18,-21 -15,-17 -3,-16 5,-17 8,-28 5,-28 v -21 l -10,-17 -13,-23 -15,-23 -18,-23 28,28 28,31 28,38 20,40 18,49 8,53 -3,58 -13,64 21,-10 23,-13 20,-8 10,-2 10,5 16,10 15,5 13,-2 7,-8 10,-10 13,-10 13,-13 15,-13 10,-7 10,-8 h 5 l 11,8 10,7 10,8 13,2 12,-5 18,-5 13,-7 7,-5 8,-8 10,-10 10,-10 8,-5 13,-3 h 12 13 13 l 12,3 h 13 10 8 l 15,-11 21,-12 17,-13 13,-3 13,11 20,15 20,15 16,3 15,-11 18,-10 17,-5 16,3 10,7 7,13 11,8 7,5 h 8 15 l 15,-3 h 18 15 16 12 l 5,3 13,15 20,28 21,25 18,5 15,-7 15,-10 13,-5 10,2 13,15 20,28 23,23 15,8 8,-3 10,-5 10,-5 15,-2 13,-6 10,-2 h 8 5 l 2,8 10,10 11,18 15,17 20,18 21,15 20,13 23,5 h 33 30 l 31,-5 30,-8 31,-7 33,-10 33,-11 35,-12 23,-8 26,-5 33,-8 38,-5 40,-7 46,-3 48,-2 h 54 l 56,2 58,5 61,8 64,13 63,17 66,21 66,25 69,33 h 18 15 l 15,-2 15,-3 -35,-33 -43,-30 -51,-28 -56,-28 -59,-23 -58,-21 -53,-17 -46,-13 13,-25 v -23 l -11,-16 -17,-12 -23,-8 -26,-2 h -25 l -25,5 -3,-36 -10,-28 -18,-20 -23,-13 -28,-8 h -28 l -28,11 -25,15 v -31 l -8,-28 -20,-20 -23,-15 -30,-5 -33,2 -33,13 -31,25 3,-40 -11,-33 -15,-28 -23,-18 -28,-8 -30,3 -33,18 -33,33 -5,-54 -13,-38 -18,-25 -25,-15 -28,2 -33,13 -31,28 -33,40 -7,-53 -13,-38 -20,-23 -23,-10 -28,3 -28,15 -30,25 -31,38 -18,-38 -20,-30 -20,-23 -21,-18 -23,-13 -22,-7 -21,-5 -23,-3 h -17 l -21,3 -18,2 h -17 l -16,5 -17,3 -18,2 -15,5 20,3 h 18 l 15,5 15,3 15,7 13,8 15,10 13,10 107,114 10,13 13,13 12,15 13,15 13,16 15,15 15,15 18,15 89,77 30,22 31,21 33,20 30,15 34,16 30,10 30,7 31,5 -28,3 -28,-3 h -28 l -25,-5 -26,-5 -25,-7 -20,-8 -18,-8 -3,36 -7,25 -8,16 -8,5 -5,-18 -2,-41 -5,-53 -13,-53 -89,-77 13,66 10,72 v 61 l -15,22 -10,-10 -8,-25 -5,-36 -8,-48 -10,-51 -15,-58 -26,-56 -35,-54 z"
   id="path194"
   inkscape:connector-curvature="0"
   style="fill:#ffb2a5;stroke:none" />
         <path
   d="m 7731,17983 -13,43 v 33 l 5,23 5,25 3,28 -3,26 -7,25 -13,23 -15,18 -13,17 -8,21 -2,18 2,-56 -5,-49 -2,-43 12,-43 13,-30 10,-26 13,-25 z"
   id="path196"
   inkscape:connector-curvature="0"
   style="fill:#ffb2a5;stroke:none" />
         <path
   d="m 7881,17952 22,13 23,20 11,38 -6,61 11,33 5,36 v 33 l -3,33 -10,31 -15,28 -23,22 -31,18 -7,21 -8,17 -7,18 -11,15 -12,16 -16,12 -22,10 -28,11 25,-31 20,-28 16,-30 12,-31 8,-28 5,-28 3,-25 v -26 l 22,-66 21,-71 7,-66 z"
   id="path198"
   inkscape:connector-curvature="0"
   style="fill:#ffb2a5;stroke:none" />
         <path
   d="m 7334,18069 -20,15 -15,21 -10,25 -8,26 -8,28 -5,22 -10,18 -13,13 18,-13 18,-13 18,-10 13,-12 12,-11 8,-10 2,-10 v -10 l -5,-20 -5,-16 v -20 z"
   id="path200"
   inkscape:connector-curvature="0"
   style="fill:#ffb2a5;stroke:none" />
        </g>
       </g>
      </g>
     </g>
    </g>
   </g>
  </g>
 </g>
</svg>