<?xml version="1.0" encoding="UTF-8" standalone="no"?>
<svg
   xmlns:ooo="http://xml.openoffice.org/svg/export"
   xmlns:dc="http://purl.org/dc/elements/1.1/"
   xmlns:cc="http://creativecommons.org/ns#"
   xmlns:rdf="http://www.w3.org/1999/02/22-rdf-syntax-ns#"
   xmlns:svg="http://www.w3.org/2000/svg"
   xmlns="http://www.w3.org/2000/svg"
   xmlns:sodipodi="http://sodipodi.sourceforge.net/DTD/sodipodi-0.dtd"
   xmlns:inkscape="http://www.inkscape.org/namespaces/inkscape"
   version="1.2"
   width="33.579998mm"
   height="49.68mm"
   viewBox="0 0 3357.9998 4968"
   preserveAspectRatio="xMidYMid"
   xml:space="preserve"
   id="svg393"
   sodipodi:docname="twotix1.svg"
   style="fill-rule:evenodd;stroke-width:28.22200012;stroke-linejoin:round"
   inkscape:version="0.92.5 (2060ec1f9f, 2020-04-08)"><metadata
   id="metadata397"><rdf:RDF><cc:Work
       rdf:about=""><dc:format>image/svg+xml</dc:format><dc:type
         rdf:resource="http://purl.org/dc/dcmitype/StillImage" /></cc:Work></rdf:RDF></metadata><sodipodi:namedview
   pagecolor="#ffffff"
   bordercolor="#666666"
   borderopacity="1"
   objecttolerance="10"
   gridtolerance="10"
   guidetolerance="10"
   inkscape:pageopacity="0"
   inkscape:pageshadow="2"
   inkscape:window-width="664"
   inkscape:window-height="487"
   id="namedview395"
   showgrid="false"
   inkscape:zoom="0.2102413"
   inkscape:cx="63.458269"
   inkscape:cy="93.883463"
   inkscape:window-x="0"
   inkscape:window-y="0"
   inkscape:window-maximized="0"
   inkscape:current-layer="svg393" />
 <defs
   class="ClipPathGroup"
   id="defs8">
  <clipPath
   id="presentation_clip_path"
   clipPathUnits="userSpaceOnUse">
   <rect
   x="0"
   y="0"
   width="21000"
   height="29700"
   id="rect2" />
  </clipPath>
  <clipPath
   id="presentation_clip_path_shrink"
   clipPathUnits="userSpaceOnUse">
   <rect
   x="21"
   y="29"
   width="20958"
   height="29641"
   id="rect5" />
  </clipPath>
 </defs>
 <defs
   class="TextShapeIndex"
   id="defs12">
  <g
   ooo:slide="id1"
   ooo:id-list="id3"
   id="g10" />
 </defs>
 <defs
   class="EmbeddedBulletChars"
   id="defs44">
  <g
   id="bullet-char-template-57356"
   transform="matrix(4.8828125e-4,0,0,-4.8828125e-4,0,0)">
   <path
   d="M 580,1141 1163,571 580,0 -4,571 Z"
   id="path14"
   inkscape:connector-curvature="0" />
  </g>
  <g
   id="bullet-char-template-57354"
   transform="matrix(4.8828125e-4,0,0,-4.8828125e-4,0,0)">
   <path
   d="M 8,1128 H 1137 V 0 H 8 Z"
   id="path17"
   inkscape:connector-curvature="0" />
  </g>
  <g
   id="bullet-char-template-10146"
   transform="matrix(4.8828125e-4,0,0,-4.8828125e-4,0,0)">
   <path
   d="M 174,0 602,739 174,1481 1456,739 Z M 1358,739 309,1346 659,739 Z"
   id="path20"
   inkscape:connector-curvature="0" />
  </g>
  <g
   id="bullet-char-template-10132"
   transform="matrix(4.8828125e-4,0,0,-4.8828125e-4,0,0)">
   <path
   d="M 2015,739 1276,0 H 717 l 543,543 H 174 v 393 h 1086 l -543,545 h 557 z"
   id="path23"
   inkscape:connector-curvature="0" />
  </g>
  <g
   id="bullet-char-template-10007"
   transform="matrix(4.8828125e-4,0,0,-4.8828125e-4,0,0)">
   <path
   d="m 0,-2 c -7,16 -16,29 -25,39 l 381,530 c -94,256 -141,385 -141,387 0,25 13,38 40,38 9,0 21,-2 34,-5 21,4 42,12 65,25 l 27,-13 111,-251 280,301 64,-25 24,25 c 21,-10 41,-24 62,-43 C 886,937 835,863 770,784 769,783 710,716 594,584 L 774,223 c 0,-27 -21,-55 -63,-84 l 16,-20 C 717,90 699,76 672,76 641,76 570,178 457,381 L 164,-76 c -22,-34 -53,-51 -92,-51 -42,0 -63,17 -64,51 -7,9 -10,24 -10,44 0,9 1,19 2,30 z"
   id="path26"
   inkscape:connector-curvature="0" />
  </g>
  <g
   id="bullet-char-template-10004"
   transform="matrix(4.8828125e-4,0,0,-4.8828125e-4,0,0)">
   <path
   d="M 285,-33 C 182,-33 111,30 74,156 52,228 41,333 41,471 c 0,78 14,145 41,201 34,71 87,106 158,106 53,0 88,-31 106,-94 l 23,-176 c 8,-64 28,-97 59,-98 l 735,706 c 11,11 33,17 66,17 42,0 63,-15 63,-46 V 965 c 0,-36 -10,-64 -30,-84 L 442,47 C 390,-6 338,-33 285,-33 Z"
   id="path29"
   inkscape:connector-curvature="0" />
  </g>
  <g
   id="bullet-char-template-9679"
   transform="matrix(4.8828125e-4,0,0,-4.8828125e-4,0,0)">
   <path
   d="M 813,0 C 632,0 489,54 383,161 276,268 223,411 223,592 c 0,181 53,324 160,431 106,107 249,161 430,161 179,0 323,-54 432,-161 108,-107 162,-251 162,-431 0,-180 -54,-324 -162,-431 C 1136,54 992,0 813,0 Z"
   id="path32"
   inkscape:connector-curvature="0" />
  </g>
  <g
   id="bullet-char-template-8226"
   transform="matrix(4.8828125e-4,0,0,-4.8828125e-4,0,0)">
   <path
   d="m 346,457 c -73,0 -137,26 -191,78 -54,51 -81,114 -81,188 0,73 27,136 81,188 54,52 118,78 191,78 73,0 134,-26 185,-79 51,-51 77,-114 77,-187 0,-75 -25,-137 -76,-188 -50,-52 -112,-78 -186,-78 z"
   id="path35"
   inkscape:connector-curvature="0" />
  </g>
  <g
   id="bullet-char-template-8211"
   transform="matrix(4.8828125e-4,0,0,-4.8828125e-4,0,0)">
   <path
   d="M -4,459 H 1135 V 606 H -4 Z"
   id="path38"
   inkscape:connector-curvature="0" />
  </g>
  <g
   id="bullet-char-template-61548"
   transform="matrix(4.8828125e-4,0,0,-4.8828125e-4,0,0)">
   <path
   d="m 173,740 c 0,163 58,303 173,419 116,115 255,173 419,173 163,0 302,-58 418,-173 116,-116 174,-256 174,-419 0,-163 -58,-303 -174,-418 C 1067,206 928,148 765,148 601,148 462,206 346,322 231,437 173,577 173,740 Z"
   id="path41"
   inkscape:connector-curvature="0" />
  </g>
 </defs>
 <g
   id="g49"
   transform="translate(-8821,-12366)">
  <g
   id="id2"
   class="Master_Slide">
   <g
   id="bg-id2"
   class="Background" />
   <g
   id="bo-id2"
   class="BackgroundObjects" />
  </g>
 </g>
 <g
   class="SlideGroup"
   id="g391"
   transform="translate(-8821,-12366)">
  <g
   id="g389">
   <g
   id="container-id1">
    <g
   id="id1"
   class="Slide"
   clip-path="url(#presentation_clip_path)">
     <g
   class="Page"
   id="g385">
      <g
   class="Graphic"
   id="g383">
       <g
   id="id3">
        <rect
   class="BoundingBox"
   x="8821"
   y="12366"
   width="3358"
   height="4968"
   id="rect51"
   style="fill:none;stroke:none" />
        <defs
   id="defs56">
         <clipPath
   id="clip_path_1"
   clipPathUnits="userSpaceOnUse">
          <path
   d="m 8821,12366 h 3357 v 4967 H 8821 Z"
   id="path53"
   inkscape:connector-curvature="0" />
         </clipPath>
        </defs>
        <g
   clip-path="url(#clip_path_1)"
   id="g380">
         <path
   d="m 11391,14567 788,-1754 -880,-394 -782,1754 z"
   id="path58"
   inkscape:connector-curvature="0"
   style="fill:#4ccc66;stroke:none" />
         <path
   d="m 12171,12831 -10,-25 -788,1753 36,15 788,-1753 -10,-26 10,26 7,-18 -17,-8 z"
   id="path60"
   inkscape:connector-curvature="0"
   style="fill:#000000;stroke:none" />
         <path
   d="m 11317,12427 -25,10 879,394 16,-36 -880,-393 -25,10 25,-10 -18,-8 -7,18 z"
   id="path62"
   inkscape:connector-curvature="0"
   style="fill:#000000;stroke:none" />
         <path
   d="m 10524,14155 10,25 783,-1753 -35,-15 -783,1753 10,26 -10,-26 -8,18 18,8 z"
   id="path64"
   inkscape:connector-curvature="0"
   style="fill:#000000;stroke:none" />
         <path
   d="m 11373,14559 26,-10 -875,-394 -15,36 874,393 26,-10 -26,10 18,8 8,-18 z"
   id="path66"
   inkscape:connector-curvature="0"
   style="fill:#000000;stroke:none" />
         <path
   d="m 11353,14468 727,-1617 -742,-333 -722,1617 z"
   id="path68"
   inkscape:connector-curvature="0"
   style="fill:#fff499;stroke:none" />
         <path
   d="m 12072,12869 -10,-25 -727,1616 36,15 727,-1616 -11,-25 11,25 7,-18 -18,-7 z"
   id="path70"
   inkscape:connector-curvature="0"
   style="fill:#000000;stroke:none" />
         <path
   d="m 11355,12526 -25,10 742,333 15,-35 -742,-333 -25,10 25,-10 -18,-8 -7,18 z"
   id="path72"
   inkscape:connector-curvature="0"
   style="fill:#000000;stroke:none" />
         <path
   d="m 10623,14117 10,25 722,-1616 -35,-15 -722,1616 10,25 -10,-25 -8,18 18,7 z"
   id="path74"
   inkscape:connector-curvature="0"
   style="fill:#000000;stroke:none" />
         <path
   d="m 11335,14460 25,-10 -737,-333 -15,35 737,333 26,-10 -26,10 18,8 8,-18 z"
   id="path76"
   inkscape:connector-curvature="0"
   style="fill:#000000;stroke:none" />
         <path
   d="m 12026,12966 54,-115 -742,-333 -51,117 z"
   id="path78"
   inkscape:connector-curvature="0"
   style="fill:#000000;stroke:none" />
         <path
   d="m 11353,14468 51,-117 -737,-333 -51,117 z"
   id="path80"
   inkscape:connector-curvature="0"
   style="fill:#000000;stroke:none" />
         <path
   d="m 10593,14183 20,5 20,-3 18,-12 13,-15 5,-21 -5,-20 -10,-18 -18,-13 -20,-5 -21,3 -15,13 -13,17 -5,21 3,20 13,15 z"
   id="path82"
   inkscape:connector-curvature="0"
   style="fill:#4ccc66;stroke:none" />
         <path
   d="m 11325,14513 20,5 21,-5 17,-10 11,-18 5,-20 -3,-20 -13,-18 -15,-10 -20,-5 -21,2 -17,13 -13,15 -5,20 5,21 10,18 z"
   id="path84"
   inkscape:connector-curvature="0"
   style="fill:#4ccc66;stroke:none" />
         <path
   d="m 12047,12902 20,5 20,-2 18,-13 13,-15 5,-21 -5,-20 -10,-18 -18,-12 -20,-5 -21,5 -17,10 -13,18 -5,20 5,20 10,15 z"
   id="path86"
   inkscape:connector-curvature="0"
   style="fill:#4ccc66;stroke:none" />
         <path
   d="m 11320,12577 20,5 20,-3 18,-12 13,-15 5,-21 -2,-20 -13,-18 -18,-13 -20,-5 -21,3 -15,13 -13,15 -5,20 3,20 13,18 z"
   id="path88"
   inkscape:connector-curvature="0"
   style="fill:#4ccc66;stroke:none" />
         <path
   d="m 11666,14287 v -1921 h -961 v 1921 z"
   id="path90"
   inkscape:connector-curvature="0"
   style="fill:#4ccc66;stroke:none" />
         <path
   d="m 11666,12386 -21,-20 v 1921 h 41 v -1921 l -20,-20 20,20 v -20 h -20 z"
   id="path92"
   inkscape:connector-curvature="0"
   style="fill:#000000;stroke:none" />
         <path
   d="m 10725,12366 -20,20 h 961 v -40 h -961 l -21,20 21,-20 h -21 v 20 z"
   id="path94"
   inkscape:connector-curvature="0"
   style="fill:#000000;stroke:none" />
         <path
   d="m 10705,14267 20,20 v -1921 h -41 v 1921 l 21,20 -21,-20 v 20 h 21 z"
   id="path96"
   inkscape:connector-curvature="0"
   style="fill:#000000;stroke:none" />
         <path
   d="m 11645,14287 21,-20 h -961 v 40 h 961 l 20,-20 -20,20 h 20 v -20 z"
   id="path98"
   inkscape:connector-curvature="0"
   style="fill:#000000;stroke:none" />
         <path
   d="m 11592,14213 v -1773 h -814 v 1773 z"
   id="path100"
   inkscape:connector-curvature="0"
   style="fill:#fff499;stroke:none" />
         <path
   d="m 11592,12460 -21,-20 v 1773 h 41 v -1773 l -20,-21 20,21 v -21 h -20 z"
   id="path102"
   inkscape:connector-curvature="0"
   style="fill:#000000;stroke:none" />
         <path
   d="m 10799,12440 -21,20 h 814 v -41 h -814 l -20,21 20,-21 h -20 v 21 z"
   id="path104"
   inkscape:connector-curvature="0"
   style="fill:#000000;stroke:none" />
         <path
   d="m 10778,14193 21,20 v -1773 h -41 v 1773 l 20,21 -20,-21 v 21 h 20 z"
   id="path106"
   inkscape:connector-curvature="0"
   style="fill:#000000;stroke:none" />
         <path
   d="m 11571,14213 21,-20 h -814 v 41 h 814 l 20,-21 -20,21 h 20 v -21 z"
   id="path108"
   inkscape:connector-curvature="0"
   style="fill:#000000;stroke:none" />
         <path
   d="m 11592,12567 v -127 h -814 v 127 z"
   id="path110"
   inkscape:connector-curvature="0"
   style="fill:#000000;stroke:none" />
         <path
   d="m 11592,14213 v -129 h -814 v 129 z"
   id="path112"
   inkscape:connector-curvature="0"
   style="fill:#000000;stroke:none" />
         <path
   d="m 10778,14267 21,-5 17,-10 11,-18 5,-21 -5,-20 -11,-18 -17,-10 -21,-5 -20,5 -15,10 -10,18 -5,20 5,21 10,18 15,10 z"
   id="path114"
   inkscape:connector-curvature="0"
   style="fill:#4ccc66;stroke:none" />
         <path
   d="m 11584,14267 21,-5 17,-10 10,-18 6,-21 -6,-20 -10,-18 -17,-10 -21,-5 -20,5 -18,10 -10,18 -5,20 5,21 10,18 18,10 z"
   id="path116"
   inkscape:connector-curvature="0"
   style="fill:#4ccc66;stroke:none" />
         <path
   d="m 11584,12501 21,-5 17,-11 10,-17 6,-21 -6,-20 -10,-18 -17,-10 -21,-5 -20,5 -18,10 -10,18 -5,20 5,21 10,17 18,11 z"
   id="path118"
   inkscape:connector-curvature="0"
   style="fill:#4ccc66;stroke:none" />
         <path
   d="m 10786,12501 20,-5 18,-11 10,-17 5,-21 -5,-20 -10,-18 -18,-10 -20,-5 -20,5 -18,10 -10,18 -5,20 5,21 10,17 18,11 z"
   id="path120"
   inkscape:connector-curvature="0"
   style="fill:#4ccc66;stroke:none" />
         <path
   d="m 10639,15962 -13,-21 -15,-28 -18,-33 -26,-38 -25,-43 -33,-46 -33,-45 -38,-49 -43,-45 -46,-46 -49,-43 -50,-38 -56,-36 -59,-31 -63,-22 -64,-16 -23,-2 h -18 l -15,5 -15,13 -15,22 -23,34 -28,50 -36,66 36,16 41,20 45,25 49,31 53,33 53,41 59,43 56,51 58,53 59,58 56,61 56,66 55,72 51,73 49,79 43,81 10,-33 15,-45 15,-61 18,-71 5,-34 v -27 l -5,-26 -10,-23 -15,-20 -15,-23 -16,-23 z"
   id="path122"
   inkscape:connector-curvature="0"
   style="fill:#ffffff;stroke:none" />
         <path
   d="m 10008,15390 v 0 l 61,15 64,23 56,31 56,35 50,38 49,41 45,46 41,45 38,49 33,45 33,46 26,43 25,39 18,30 15,31 13,17 15,-5 -13,-23 -15,-25 -18,-36 -25,-38 -25,-43 -33,-46 -34,-45 -38,-49 -45,-45 -46,-46 -48,-46 -51,-38 -56,-36 -61,-30 -64,-23 -66,-15 v 0 0 l -5,2 -3,5 3,5 z"
   id="path124"
   inkscape:connector-curvature="0"
   style="fill:#000000;stroke:none" />
         <path
   d="m 9838,15563 5,10 35,-66 28,-48 23,-33 16,-23 12,-10 10,-6 h 18 l 23,3 v -15 l -23,-3 h -18 l -20,5 -18,16 -15,22 -23,33 -28,54 -35,66 5,10 -5,-10 v 8 l 5,2 h 7 l 3,-5 z"
   id="path126"
   inkscape:connector-curvature="0"
   style="fill:#000000;stroke:none" />
         <path
   d="m 10646,16373 15,-2 -43,-81 -48,-82 -51,-73 -56,-72 -56,-66 -58,-61 -59,-58 -58,-53 -56,-54 -59,-43 -53,-41 -53,-33 -49,-30 -48,-26 -41,-20 -35,-15 -5,15 35,15 41,21 43,25 48,31 54,33 53,40 59,43 56,49 58,53 59,59 53,61 56,66 56,71 51,73 48,77 43,81 15,-3 -15,3 5,5 h 5 l 5,-2 v -8 z"
   id="path128"
   inkscape:connector-curvature="0"
   style="fill:#000000;stroke:none" />
         <path
   d="m 10705,16163 v 0 l -18,71 -15,58 -16,46 -10,35 h 15 l 11,-30 15,-46 15,-63 18,-71 v 0 z"
   id="path130"
   inkscape:connector-curvature="0"
   style="fill:#000000;stroke:none" />
         <path
   d="m 10631,15964 v 3 l 18,25 15,23 15,23 15,20 11,21 5,23 v 27 l -5,34 h 15 l 5,-34 v -27 l -5,-28 -10,-26 -16,-20 -15,-23 -15,-23 -18,-25 v 2 -2 l -5,-5 -5,2 -5,5 v 8 z"
   id="path132"
   inkscape:connector-curvature="0"
   style="fill:#000000;stroke:none" />
         <path
   d="m 10519,16269 20,3 18,-3 18,-7 18,-13 18,-15 12,-21 13,-20 8,-25 5,-26 v -25 l -3,-23 -7,-20 -11,-18 -12,-15 -16,-13 -17,-8 -21,-2 -20,2 -18,8 -18,13 -15,15 -13,20 -12,20 -8,26 -5,25 v 26 l 3,23 7,20 10,20 13,15 15,11 z"
   id="path134"
   inkscape:connector-curvature="0"
   style="fill:#c1841e;stroke:none" />
         <path
   d="m 10636,16165 v 0 l -8,25 -12,18 -13,21 -15,12 -16,13 -17,8 h -16 -20 v 15 l 20,5 21,-5 18,-8 20,-12 20,-18 13,-21 13,-22 7,-26 v 0 z"
   id="path136"
   inkscape:connector-curvature="0"
   style="fill:#000000;stroke:none" />
         <path
   d="m 10583,16028 h -3 l 15,7 16,11 10,15 10,15 8,18 v 23 l 2,25 -5,23 15,5 5,-28 3,-25 -5,-23 -8,-23 -10,-20 -15,-16 -16,-15 -20,-7 h -2 z"
   id="path138"
   inkscape:connector-curvature="0"
   style="fill:#000000;stroke:none" />
         <path
   d="m 10466,16124 v 0 l 7,-25 13,-18 13,-20 12,-13 16,-13 17,-7 h 18 21 v -15 l -21,-5 -23,5 -17,7 -21,13 -18,18 -12,20 -13,23 -8,25 v 0 z"
   id="path140"
   inkscape:connector-curvature="0"
   style="fill:#000000;stroke:none" />
         <path
   d="m 10519,16262 v 0 l -15,-8 -13,-8 -10,-15 -10,-18 -8,-17 v -23 l -2,-26 5,-23 -16,-5 -5,28 -2,26 5,23 8,22 10,23 15,16 18,12 20,8 v 0 z"
   id="path142"
   inkscape:connector-curvature="0"
   style="fill:#000000;stroke:none" />
         <path
   d="m 10705,16053 v -7 l -5,-3 h -6 l -5,5 z"
   id="path144"
   inkscape:connector-curvature="0"
   style="fill:#000000;stroke:none" />
         <path
   d="m 10616,16335 7,3 82,-285 -16,-5 -81,285 z"
   id="path146"
   inkscape:connector-curvature="0"
   style="fill:#000000;stroke:none" />
         <path
   d="m 10608,16333 v 7 l 5,3 h 8 l 2,-5 z"
   id="path148"
   inkscape:connector-curvature="0"
   style="fill:#000000;stroke:none" />
         <path
   d="m 10677,16008 v -8 l -5,-3 h -5 l -6,5 z"
   id="path150"
   inkscape:connector-curvature="0"
   style="fill:#000000;stroke:none" />
         <path
   d="m 10639,16066 7,2 31,-60 -16,-6 -30,61 z"
   id="path152"
   inkscape:connector-curvature="0"
   style="fill:#000000;stroke:none" />
         <path
   d="m 10631,16063 v 8 l 5,3 h 8 l 2,-6 z"
   id="path154"
   inkscape:connector-curvature="0"
   style="fill:#000000;stroke:none" />
         <path
   d="m 10008,15382 64,16 63,22 59,31 56,36 50,38 49,43 46,46 43,45 38,49 33,45 33,46 25,43 26,38 18,33 15,28 13,21 7,-21 10,-20 13,-20 13,-18 15,-15 15,-13 16,-10 15,-5 20,-13 28,-33 33,-46 36,-56 33,-61 28,-61 17,-58 6,-48 h 25 l 20,-3 h 18 18 13 l 12,-2 8,-8 8,-8 10,-17 18,-23 22,-33 23,-33 26,-33 20,-33 15,-26 8,-20 13,-38 15,-51 8,-53 -13,-46 15,-21 15,-28 16,-30 15,-36 13,-33 15,-35 15,-31 15,-25 21,-36 5,-28 -5,-20 -5,-20 -6,-31 -2,-38 -5,-43 -10,-38 -38,-18 -44,-20 -43,-18 -43,-18 -36,-18 -30,-12 -21,-8 -7,-3 -3,3 -5,3 -5,-3 5,-15 15,-26 23,-35 31,-41 30,-43 31,-38 20,-31 13,-18 -5,-2 23,-15 25,-26 28,-30 28,-38 28,-36 23,-41 20,-35 13,-33 5,-18 5,-30 3,-39 v -40 l -5,-43 -16,-39 -23,-33 -38,-22 -48,-6 -51,21 -51,33 -51,46 -48,48 -38,46 -30,38 -21,23 -23,20 -20,18 -23,17 -25,23 -28,31 -31,43 -38,56 -46,74 -15,28 -5,15 -5,13 -13,22 -30,-12 -36,-16 -38,-17 -36,-18 -33,-15 -25,-11 -18,-10 -7,-2 114,-244 -20,15 -16,20 -15,23 -23,23 -20,18 -33,30 -41,39 -46,40 -43,43 -38,39 -33,30 -18,18 -13,10 -15,13 -18,12 -20,13 -18,15 -17,16 -16,15 -10,18 -15,43 -10,53 -8,48 3,36 2,28 -5,36 -10,38 -10,40 -10,38 -18,74 -21,94 -22,107 -18,112 -13,104 -5,89 z"
   id="path156"
   inkscape:connector-curvature="0"
   style="fill:#993300;stroke:none" />
         <path
   d="m 10631,15959 h 15 l -13,-23 -15,-25 -18,-36 -25,-38 -25,-43 -33,-46 -34,-45 -38,-49 -45,-45 -46,-46 -48,-46 -51,-38 -56,-36 -61,-30 -64,-23 -66,-15 v 15 l 61,15 64,23 56,31 56,35 50,38 49,41 45,46 41,45 38,49 33,45 33,46 26,43 25,39 18,30 15,31 13,17 h 15 -15 l 5,5 h 5 l 5,-2 v -8 z"
   id="path158"
   inkscape:connector-curvature="0"
   style="fill:#000000;stroke:none" />
         <path
   d="m 10743,15832 v 0 l -18,5 -18,10 -15,16 -18,15 -13,18 -12,23 -10,20 -8,20 15,5 8,-20 10,-20 13,-18 12,-18 13,-15 15,-10 13,-11 13,-5 v 0 z"
   id="path160"
   inkscape:connector-curvature="0"
   style="fill:#000000;stroke:none" />
         <path
   d="m 10944,15456 -8,8 -5,48 -18,56 -28,61 -33,58 -36,56 -33,46 -25,33 -15,10 v 15 l 25,-15 31,-33 33,-46 35,-56 33,-63 28,-61 18,-61 5,-48 -7,7 7,-7 -2,-5 -5,-3 -6,3 -2,5 z"
   id="path162"
   inkscape:connector-curvature="0"
   style="fill:#000000;stroke:none" />
         <path
   d="m 11058,15441 v 0 l -5,5 -5,5 -10,3 -13,-3 h -18 l -18,3 h -20 l -25,2 v 15 l 25,3 20,-5 18,2 h 18 l 13,-2 15,-3 10,-10 10,-10 v 0 z"
   id="path164"
   inkscape:connector-curvature="0"
   style="fill:#000000;stroke:none" />
         <path
   d="m 11200,15225 v 0 l -7,18 -16,22 -20,34 -25,33 -23,33 -23,33 -18,22 -10,21 15,5 10,-15 18,-23 23,-33 23,-33 25,-33 21,-33 15,-28 8,-23 v 0 z"
   id="path166"
   inkscape:connector-curvature="0"
   style="fill:#000000;stroke:none" />
         <path
   d="m 11223,15032 v 10 l 13,41 -8,53 -15,48 -13,41 h 16 l 12,-36 16,-53 7,-53 -13,-51 v 10 -10 l -5,-5 -5,2 -5,5 v 8 z"
   id="path168"
   inkscape:connector-curvature="0"
   style="fill:#000000;stroke:none" />
         <path
   d="m 11343,14793 v 0 l -16,28 -15,30 -15,36 -13,33 -15,35 -15,31 -16,25 -15,21 15,10 16,-20 15,-31 15,-30 15,-36 13,-33 15,-36 16,-30 15,-23 v 0 z"
   id="path170"
   inkscape:connector-curvature="0"
   style="fill:#000000;stroke:none" />
         <path
   d="m 11358,14694 v 0 l 5,20 3,20 -3,26 -20,33 15,10 20,-38 8,-31 -8,-20 -5,-20 v 0 z"
   id="path172"
   inkscape:connector-curvature="0"
   style="fill:#000000;stroke:none" />
         <path
   d="m 11340,14551 -5,-5 10,36 5,43 3,38 5,31 h 15 l -5,-31 -2,-38 -6,-43 -10,-41 -5,-5 5,5 -2,-5 h -8 l -5,3 v 7 z"
   id="path174"
   inkscape:connector-curvature="0"
   style="fill:#000000;stroke:none" />
         <path
   d="m 11086,14437 h -8 l 8,3 20,7 31,13 35,18 44,18 43,17 43,21 38,17 5,-15 -38,-18 -43,-20 -43,-18 -44,-18 -35,-17 -31,-13 -20,-8 -8,-2 h -7 7 -7 l -3,5 v 5 l 5,5 z"
   id="path176"
   inkscape:connector-curvature="0"
   style="fill:#000000;stroke:none" />
         <path
   d="m 11066,14414 v 0 l -8,18 15,13 10,-5 3,-3 -10,-15 -3,2 v 0 l 5,8 3,-13 v 0 z"
   id="path178"
   inkscape:connector-curvature="0"
   style="fill:#000000;stroke:none" />
         <path
   d="m 11226,14175 7,16 -5,-8 -12,15 -21,31 -30,38 -31,43 -30,41 -23,35 -15,28 15,5 15,-23 23,-35 30,-41 31,-43 30,-38 21,-31 13,-20 -16,-13 8,16 z"
   id="path180"
   inkscape:connector-curvature="0"
   style="fill:#000000;stroke:none" />
         <path
   d="m 11411,13929 v -3 l -12,33 -21,36 -23,38 -28,36 -28,38 -25,30 -25,23 -23,15 10,16 23,-16 25,-28 31,-30 28,-38 28,-36 23,-43 20,-36 13,-33 v -2 z"
   id="path182"
   inkscape:connector-curvature="0"
   style="fill:#000000;stroke:none" />
         <path
   d="m 11348,13672 v 0 l 35,20 21,31 15,36 5,43 -3,40 v 39 l -5,30 -5,18 h 16 l 5,-18 5,-30 5,-39 -3,-40 -5,-43 -15,-41 -25,-36 -41,-25 v 0 z"
   id="path184"
   inkscape:connector-curvature="0"
   style="fill:#000000;stroke:none" />
         <path
   d="m 11017,13919 v 0 l 23,-23 31,-38 35,-46 49,-48 50,-44 49,-33 48,-20 46,5 5,-15 -51,-5 -53,20 -54,33 -51,48 -48,49 -41,46 -30,38 -18,22 v 0 z"
   id="path186"
   inkscape:connector-curvature="0"
   style="fill:#000000;stroke:none" />
         <path
   d="m 10786,14198 v 3 l 46,-74 38,-56 30,-43 26,-31 25,-20 23,-18 20,-20 23,-20 -10,-11 -23,21 -20,15 -23,18 -25,25 -31,31 -30,43 -39,56 -45,74 v 2 z"
   id="path188"
   inkscape:connector-curvature="0"
   style="fill:#000000;stroke:none" />
         <path
   d="m 10738,14282 10,-2 13,-26 5,-13 5,-15 15,-28 -15,-5 -16,28 -5,15 -5,13 -12,20 10,-2 -10,2 v 8 l 5,5 5,3 5,-5 z"
   id="path190"
   inkscape:connector-curvature="0"
   style="fill:#000000;stroke:none" />
         <path
   d="m 10509,14170 5,10 8,3 17,10 26,10 33,16 35,17 39,18 35,15 31,13 5,-15 -31,-13 -35,-15 -38,-18 -36,-18 -33,-15 -26,-10 -17,-10 -8,-3 5,10 -5,-10 h -8 l -2,5 v 5 l 5,5 z"
   id="path192"
   inkscape:connector-curvature="0"
   style="fill:#000000;stroke:none" />
         <path
   d="m 10633,13936 -10,-10 -114,244 15,5 115,-244 -11,-10 11,10 v -7 l -6,-3 h -5 l -5,5 z"
   id="path194"
   inkscape:connector-curvature="0"
   style="fill:#000000;stroke:none" />
         <path
   d="m 10562,14018 v 0 l 26,-26 15,-23 13,-20 17,-13 -5,-15 -23,18 -17,20 -16,23 -20,21 v 0 z"
   id="path196"
   inkscape:connector-curvature="0"
   style="fill:#000000;stroke:none" />
         <path
   d="m 10290,14272 v 0 l 18,-18 33,-30 38,-39 43,-43 46,-40 41,-38 33,-31 20,-15 -10,-15 -20,20 -33,30 -41,38 -46,41 -43,43 -38,38 -33,31 -18,18 v 0 z"
   id="path198"
   inkscape:connector-curvature="0"
   style="fill:#000000;stroke:none" />
         <path
   d="m 10166,14381 v 0 l 10,-15 13,-15 17,-13 18,-15 21,-13 17,-13 16,-12 12,-13 -10,-10 -13,7 -15,13 -18,13 -20,12 -18,16 -18,17 -17,16 -11,20 v 0 z"
   id="path200"
   inkscape:connector-curvature="0"
   style="fill:#000000;stroke:none" />
         <path
   d="m 10135,14559 v 0 l -2,-36 7,-48 10,-51 16,-43 -16,-5 -15,43 -10,56 -8,48 3,36 v 0 z"
   id="path202"
   inkscape:connector-curvature="0"
   style="fill:#000000;stroke:none" />
         <path
   d="m 10112,14701 v 3 l 11,-41 10,-40 7,-36 -5,-28 h -15 v 28 l -3,36 -10,35 -10,41 v 2 z"
   id="path204"
   inkscape:connector-curvature="0"
   style="fill:#000000;stroke:none" />
         <path
   d="m 10008,15375 8,5 -10,-61 5,-89 12,-104 18,-112 23,-107 20,-94 18,-74 10,-38 h -15 l -10,38 -18,74 -20,94 -23,107 -18,112 -13,104 -5,89 10,66 8,5 -8,-5 6,5 h 5 l 5,-3 v -7 z"
   id="path206"
   inkscape:connector-curvature="0"
   style="fill:#000000;stroke:none" />
         <path
   d="m 10931,15464 -3,-5 -5,-3 -5,3 -2,5 z"
   id="path208"
   inkscape:connector-curvature="0"
   style="fill:#000000;stroke:none" />
         <path
   d="m 10697,15855 v 0 l 43,-38 43,-46 36,-56 36,-61 28,-58 22,-54 16,-45 10,-33 h -15 l -11,28 -15,45 -23,54 -28,58 -35,56 -36,56 -38,46 -43,33 v 0 z"
   id="path210"
   inkscape:connector-curvature="0"
   style="fill:#000000;stroke:none" />
         <path
   d="m 10631,15924 v 0 l -3,-3 -2,-2 h -3 l 5,-6 8,-15 23,-18 38,-25 -10,-15 -38,25 -23,23 -13,15 -5,16 3,10 7,7 8,3 h 5 z"
   id="path212"
   inkscape:connector-curvature="0"
   style="fill:#000000;stroke:none" />
         <path
   d="m 10631,15939 5,-3 3,-5 -3,-5 -5,-2 z"
   id="path214"
   inkscape:connector-curvature="0"
   style="fill:#000000;stroke:none" />
         <path
   d="m 10580,15845 -8,2 -2,8 2,8 8,2 z"
   id="path216"
   inkscape:connector-curvature="0"
   style="fill:#000000;stroke:none" />
         <path
   d="m 10677,15786 -8,8 -8,13 -7,10 -10,8 -13,10 -15,5 -16,5 h -20 v 20 l 20,-5 21,-5 15,-5 18,-10 10,-13 13,-10 7,-13 8,-12 z"
   id="path218"
   inkscape:connector-curvature="0"
   style="fill:#000000;stroke:none" />
         <path
   d="m 10692,15792 v -8 l -5,-3 h -5 l -5,5 z"
   id="path220"
   inkscape:connector-curvature="0"
   style="fill:#000000;stroke:none" />
         <path
   d="m 11333,13687 15,8 12,8 13,7 10,10 5,11 3,15 -3,20 -7,26 -15,45 -6,23 -10,3 -30,-18 -36,-18 -35,-13 -33,-5 -26,-5 -18,-7 -7,-10 5,-18 23,-28 17,-21 21,-15 18,-13 17,-7 16,-5 h 17 l 18,2 z"
   id="path222"
   inkscape:connector-curvature="0"
   style="fill:#cc8c7f;stroke:none" />
         <path
   d="m 11388,13794 v 0 l 8,-28 5,-20 -5,-18 -5,-13 -13,-12 -12,-8 -16,-8 -15,-7 -5,15 15,8 10,7 13,8 8,8 5,7 v 13 20 l -8,23 v 0 z"
   id="path224"
   inkscape:connector-curvature="0"
   style="fill:#000000;stroke:none" />
         <path
   d="m 11315,13853 v 0 l 33,17 20,-5 5,-25 15,-46 -15,-5 -15,46 -5,20 v 0 l -28,-18 v 0 z"
   id="path226"
   inkscape:connector-curvature="0"
   style="fill:#000000;stroke:none" />
         <path
   d="m 11185,13736 h 3 l -26,28 -5,23 10,17 21,8 28,5 30,5 36,13 33,18 10,-16 -38,-17 -36,-13 -35,-5 -23,-5 -16,-8 -5,-2 5,-13 21,-28 h 2 z"
   id="path228"
   inkscape:connector-curvature="0"
   style="fill:#000000;stroke:none" />
         <path
   d="m 11335,13680 v 0 l -18,-5 -18,-3 h -17 l -18,5 -18,8 -20,13 -21,17 -20,21 15,10 16,-20 20,-13 15,-13 18,-8 13,-5 h 17 l 18,3 13,5 v 0 z"
   id="path230"
   inkscape:connector-curvature="0"
   style="fill:#000000;stroke:none" />
         <path
   d="m 10743,14287 v -7 l -3,-6 -7,-2 -5,5 z"
   id="path232"
   inkscape:connector-curvature="0"
   style="fill:#000000;stroke:none" />
         <path
   d="m 10649,14396 v 0 l 5,-7 7,-10 8,-13 13,-13 15,-15 15,-15 18,-18 13,-18 -15,-10 -13,18 -13,18 -15,15 -15,15 -13,13 -13,12 -7,11 -6,12 v 0 z"
   id="path234"
   inkscape:connector-curvature="0"
   style="fill:#000000;stroke:none" />
         <path
   d="m 10511,14488 16,-10 17,-10 21,-13 20,-13 20,-10 21,-10 13,-13 10,-13 -16,-5 -5,8 -12,8 -16,10 -20,10 -25,13 -21,12 -17,10 -16,16 z"
   id="path236"
   inkscape:connector-curvature="0"
   style="fill:#000000;stroke:none" />
         <path
   d="m 10501,14478 v 5 l 3,2 2,3 h 5 z"
   id="path238"
   inkscape:connector-curvature="0"
   style="fill:#000000;stroke:none" />
         <path
   d="m 11081,14429 v -7 l -5,-3 h -5 l -5,5 z"
   id="path240"
   inkscape:connector-curvature="0"
   style="fill:#000000;stroke:none" />
         <path
   d="m 11027,14620 -2,5 13,-33 17,-58 16,-66 10,-39 -15,-5 -11,44 -15,61 -18,58 -7,28 -3,5 3,-5 v 5 l 2,3 3,2 h 5 z"
   id="path242"
   inkscape:connector-curvature="0"
   style="fill:#000000;stroke:none" />
         <path
   d="m 10989,14821 v 0 -41 l 11,-46 15,-53 12,-61 h -15 l -12,61 -16,53 -10,46 v 41 0 z"
   id="path244"
   inkscape:connector-curvature="0"
   style="fill:#000000;stroke:none" />
         <path
   d="m 10799,15413 v 0 l 56,-61 43,-81 33,-89 25,-97 18,-89 10,-79 5,-61 v -35 h -15 v 35 l -5,61 -10,79 -18,89 -25,92 -33,88 -44,77 -50,56 v 0 z"
   id="path246"
   inkscape:connector-curvature="0"
   style="fill:#000000;stroke:none" />
         <path
   d="m 10496,15601 28,2 31,-7 30,-15 36,-21 35,-28 41,-35 48,-38 54,-46 -10,-15 -54,45 -48,38 -41,36 -35,28 -31,20 -30,16 -26,7 -28,-2 z"
   id="path248"
   inkscape:connector-curvature="0"
   style="fill:#000000;stroke:none" />
         <path
   d="m 10496,15586 -5,2 -2,5 2,5 5,3 z"
   id="path250"
   inkscape:connector-curvature="0"
   style="fill:#000000;stroke:none" />
         <path
   d="m 11002,14750 -5,-3 -3,3 -2,5 v 5 z"
   id="path252"
   inkscape:connector-curvature="0"
   style="fill:#000000;stroke:none" />
         <path
   d="m 11083,14770 v 0 l -10,8 -12,5 h -8 -8 l -7,-5 -11,-8 -12,-8 -13,-12 -10,10 13,12 12,13 10,8 13,5 13,5 13,-5 12,-5 16,-8 v 0 z"
   id="path254"
   inkscape:connector-curvature="0"
   style="fill:#000000;stroke:none" />
         <path
   d="m 11292,14546 -18,21 -28,28 -25,33 -33,35 -33,36 -28,30 -26,26 -18,15 11,15 17,-20 26,-26 28,-30 33,-36 33,-35 30,-33 23,-28 18,-21 z"
   id="path256"
   inkscape:connector-curvature="0"
   style="fill:#000000;stroke:none" />
         <path
   d="m 11302,14556 3,-5 -3,-5 -5,-2 -5,2 z"
   id="path258"
   inkscape:connector-curvature="0"
   style="fill:#000000;stroke:none" />
         <path
   d="m 11238,15042 v -8 l -2,-5 -8,-2 -5,5 z"
   id="path260"
   inkscape:connector-curvature="0"
   style="fill:#000000;stroke:none" />
         <path
   d="m 11122,15075 h 2 l 13,2 12,3 16,-3 15,-2 18,-5 15,-8 13,-7 12,-13 -15,-10 -7,7 -13,8 -10,8 -13,5 -15,2 -16,-2 -12,2 -13,-2 h 3 z"
   id="path262"
   inkscape:connector-curvature="0"
   style="fill:#000000;stroke:none" />
         <path
   d="m 10961,15105 18,-5 21,-7 20,-5 25,-5 26,-6 20,-2 h 20 11 l 5,-15 -16,-5 -20,5 -20,2 -26,5 -25,5 -26,5 -20,8 -18,5 z"
   id="path264"
   inkscape:connector-curvature="0"
   style="fill:#000000;stroke:none" />
         <path
   d="m 10956,15090 -5,3 v 7 l 3,5 h 7 z"
   id="path266"
   inkscape:connector-curvature="0"
   style="fill:#000000;stroke:none" />
         <path
   d="m 10445,14544 -5,2 -2,5 2,5 5,3 z"
   id="path268"
   inkscape:connector-curvature="0"
   style="fill:#000000;stroke:none" />
         <path
   d="m 10611,14422 -16,20 -15,20 -20,18 -26,18 -23,18 -22,13 -26,10 -18,5 v 15 l 23,-5 26,-10 28,-13 22,-18 26,-17 20,-23 21,-21 15,-25 z"
   id="path270"
   inkscape:connector-curvature="0"
   style="fill:#000000;stroke:none" />
         <path
   d="m 10626,14427 v -8 l -5,-2 h -5 l -5,5 z"
   id="path272"
   inkscape:connector-curvature="0"
   style="fill:#000000;stroke:none" />
         <path
   d="m 10700,14262 2,-5 -2,-5 -6,-3 -5,3 z"
   id="path274"
   inkscape:connector-curvature="0"
   style="fill:#000000;stroke:none" />
         <path
   d="m 10618,14318 v 0 2 l 3,8 7,-5 11,-8 15,-10 15,-13 15,-15 16,-15 -11,-10 -15,15 -15,10 -15,13 -16,10 -10,7 -7,11 -3,12 10,3 v 0 z"
   id="path276"
   inkscape:connector-curvature="0"
   style="fill:#000000;stroke:none" />
         <path
   d="m 10687,14346 10,-13 8,-10 5,-8 -10,-13 h -8 l -15,3 -23,5 -36,8 v 15 l 36,-8 23,-5 15,-2 h 8 l -6,-8 -5,3 -7,10 -10,12 z"
   id="path278"
   inkscape:connector-curvature="0"
   style="fill:#000000;stroke:none" />
         <path
   d="m 10672,14335 v 8 l 5,5 5,3 5,-5 z"
   id="path280"
   inkscape:connector-curvature="0"
   style="fill:#000000;stroke:none" />
         <path
   d="m 11020,14577 v -8 l -5,-2 h -5 l -5,5 z"
   id="path282"
   inkscape:connector-curvature="0"
   style="fill:#000000;stroke:none" />
         <path
   d="m 10966,14717 v 0 l -2,-49 2,-12 21,-21 33,-58 -15,-5 -33,53 -21,20 -7,23 7,49 v 0 z"
   id="path284"
   inkscape:connector-curvature="0"
   style="fill:#000000;stroke:none" />
         <path
   d="m 10877,15250 18,-56 16,-73 17,-82 13,-86 13,-81 7,-72 5,-53 v -30 h -15 v 30 l -5,53 -8,72 -12,81 -13,86 -18,82 -15,68 -18,56 z"
   id="path286"
   inkscape:connector-curvature="0"
   style="fill:#000000;stroke:none" />
         <path
   d="m 10862,15245 v 8 l 5,2 h 8 l 2,-5 z"
   id="path288"
   inkscape:connector-curvature="0"
   style="fill:#000000;stroke:none" />
         <path
   d="m 10611,15636 -6,6 3,5 5,5 h 8 z"
   id="path290"
   inkscape:connector-curvature="0"
   style="fill:#000000;stroke:none" />
         <path
   d="m 10768,15428 v 0 l -2,15 -13,26 -18,28 -23,33 -25,35 -26,31 -25,23 -25,17 10,16 25,-18 26,-28 30,-30 26,-36 22,-33 18,-33 13,-26 8,-20 v 0 z"
   id="path292"
   inkscape:connector-curvature="0"
   style="fill:#000000;stroke:none" />
         <path
   d="m 10824,15441 v 0 l -15,-5 -13,-13 -15,-13 -13,18 h 21 l -8,3 5,2 13,18 25,10 v 0 z"
   id="path294"
   inkscape:connector-curvature="0"
   style="fill:#000000;stroke:none" />
         <path
   d="m 10946,15456 -25,-8 -21,-2 -15,-3 -15,-2 h -13 l -10,2 -13,-2 h -10 v 20 h 10 l 13,-2 10,-3 h 13 l 15,3 15,2 21,3 20,7 z"
   id="path296"
   inkscape:connector-curvature="0"
   style="fill:#000000;stroke:none" />
         <path
   d="m 10941,15471 h 8 l 2,-5 v -7 l -5,-3 z"
   id="path298"
   inkscape:connector-curvature="0"
   style="fill:#000000;stroke:none" />
         <path
   d="m 11109,14445 v -8 l -3,-5 -7,-3 -5,6 z"
   id="path300"
   inkscape:connector-curvature="0"
   style="fill:#000000;stroke:none" />
         <path
   d="m 11058,14516 13,-28 10,-13 10,-13 18,-17 -15,-10 -13,17 -15,13 -11,18 -12,28 z"
   id="path302"
   inkscape:connector-curvature="0"
   style="fill:#000000;stroke:none" />
         <path
   d="m 11043,14511 v 7 l 5,3 h 7 l 3,-5 z"
   id="path304"
   inkscape:connector-curvature="0"
   style="fill:#000000;stroke:none" />
         <path
   d="m 11061,14790 -3,-5 -5,-2 -5,2 -3,5 z"
   id="path306"
   inkscape:connector-curvature="0"
   style="fill:#000000;stroke:none" />
         <path
   d="m 11040,14844 v 0 l 15,7 8,-12 v -18 l -2,-31 h -16 l -2,31 5,18 7,-3 -5,-8 v 0 z"
   id="path308"
   inkscape:connector-curvature="0"
   style="fill:#000000;stroke:none" />
         <path
   d="m 10992,14828 2,-2 8,-3 18,5 20,16 10,-16 -25,-15 -23,-5 -13,3 -7,2 z"
   id="path310"
   inkscape:connector-curvature="0"
   style="fill:#000000;stroke:none" />
         <path
   d="m 10982,14813 -5,5 2,5 5,5 h 8 z"
   id="path312"
   inkscape:connector-curvature="0"
   style="fill:#000000;stroke:none" />
         <path
   d="m 11078,15083 5,-6 -2,-7 -5,-3 h -8 z"
   id="path314"
   inkscape:connector-curvature="0"
   style="fill:#000000;stroke:none" />
         <path
   d="m 10931,15166 5,-7 15,-8 21,-13 20,-12 23,-10 23,-13 20,-10 20,-10 -10,-16 -15,10 -20,11 -23,12 -23,10 -26,13 -20,13 -15,13 -10,12 z"
   id="path316"
   inkscape:connector-curvature="0"
   style="fill:#000000;stroke:none" />
         <path
   d="m 10916,15161 v 8 l 5,2 h 7 l 3,-5 z"
   id="path318"
   inkscape:connector-curvature="0"
   style="fill:#000000;stroke:none" />
         <path
   d="m 10944,15443 5,-2 2,-5 -2,-5 -5,-3 z"
   id="path320"
   inkscape:connector-curvature="0"
   style="fill:#000000;stroke:none" />
         <path
   d="m 10819,15398 18,7 13,8 15,7 15,6 15,5 16,5 17,5 16,2 v -15 l -16,-2 -12,-6 -16,-5 -15,-5 -15,-5 -15,-7 -13,-8 -13,-8 z"
   id="path322"
   inkscape:connector-curvature="0"
   style="fill:#000000;stroke:none" />
         <path
   d="m 10829,15382 h -7 l -6,3 -2,8 5,5 z"
   id="path324"
   inkscape:connector-curvature="0"
   style="fill:#000000;stroke:none" />
         <path
   d="m 10832,15454 v -8 l -5,-3 h -5 l -6,5 z"
   id="path326"
   inkscape:connector-curvature="0"
   style="fill:#000000;stroke:none" />
         <path
   d="m 10794,15542 5,-10 10,-23 13,-30 10,-25 -16,-6 -10,26 -12,30 -11,23 -5,10 z"
   id="path328"
   inkscape:connector-curvature="0"
   style="fill:#000000;stroke:none" />
         <path
   d="m 10778,15537 v 8 l 5,3 h 8 l 3,-6 z"
   id="path330"
   inkscape:connector-curvature="0"
   style="fill:#000000;stroke:none" />
         <path
   d="m 10857,15451 -2,-8 -8,-2 -8,2 -2,8 z"
   id="path332"
   inkscape:connector-curvature="0"
   style="fill:#000000;stroke:none" />
         <path
   d="m 10832,15588 7,-30 8,-38 5,-39 5,-30 h -20 v 30 l -5,39 -8,38 -8,25 z"
   id="path334"
   inkscape:connector-curvature="0"
   style="fill:#000000;stroke:none" />
         <path
   d="m 10816,15583 v 8 l 6,2 h 7 l 3,-5 z"
   id="path336"
   inkscape:connector-curvature="0"
   style="fill:#000000;stroke:none" />
         <path
   d="m 11246,15001 v -7 l -2,-6 -8,-2 -5,5 z"
   id="path338"
   inkscape:connector-curvature="0"
   style="fill:#000000;stroke:none" />
         <path
   d="m 10956,15055 26,2 33,5 40,-5 46,-5 43,-8 44,-10 33,-12 25,-21 -15,-10 -15,15 -33,13 -39,10 -43,8 -46,5 h -40 -33 l -21,-3 z"
   id="path340"
   inkscape:connector-curvature="0"
   style="fill:#000000;stroke:none" />
         <path
   d="m 10961,15039 h -7 l -3,5 v 5 l 5,6 z"
   id="path342"
   inkscape:connector-curvature="0"
   style="fill:#000000;stroke:none" />
         <path
   d="m 11050,15438 5,-5 -2,-7 -5,-3 h -8 z"
   id="path344"
   inkscape:connector-curvature="0"
   style="fill:#000000;stroke:none" />
         <path
   d="m 10839,15367 18,10 26,16 30,12 31,15 30,11 31,7 22,8 23,-8 -10,-15 -13,3 -22,-3 -26,-8 -30,-10 -31,-15 -30,-13 -21,-15 -17,-10 z"
   id="path346"
   inkscape:connector-curvature="0"
   style="fill:#000000;stroke:none" />
         <path
   d="m 10850,15352 h -8 l -5,2 -3,8 5,5 z"
   id="path348"
   inkscape:connector-curvature="0"
   style="fill:#000000;stroke:none" />
         <path
   d="m 11139,14714 v -8 l -2,-5 -8,-2 -5,5 z"
   id="path350"
   inkscape:connector-curvature="0"
   style="fill:#000000;stroke:none" />
         <path
   d="m 11012,14800 15,-5 16,-5 20,-10 15,-13 18,-12 15,-13 16,-15 12,-13 -15,-10 -8,13 -15,10 -15,12 -18,13 -15,13 -15,10 -16,5 h -10 z"
   id="path352"
   inkscape:connector-curvature="0"
   style="fill:#000000;stroke:none" />
         <path
   d="m 11012,14780 -7,3 -3,7 3,8 7,2 z"
   id="path354"
   inkscape:connector-curvature="0"
   style="fill:#000000;stroke:none" />
         <path
   d="m 11350,14602 5,5 h 5 l 6,-2 v -8 z"
   id="path356"
   inkscape:connector-curvature="0"
   style="fill:#000000;stroke:none" />
         <path
   d="m 11274,14567 13,7 18,-12 15,-6 h 7 3 l 3,3 5,13 5,12 7,18 16,-5 -8,-18 -5,-12 -5,-13 -8,-13 -13,-5 -12,5 -16,5 -22,13 12,8 -12,-8 -5,5 2,5 5,5 h 8 z"
   id="path358"
   inkscape:connector-curvature="0"
   style="fill:#000000;stroke:none" />
         <path
   d="m 11078,14465 16,-3 28,6 35,12 33,21 33,22 28,21 18,15 5,8 h 15 l -5,-18 -23,-20 -28,-21 -33,-23 -38,-20 -35,-13 -33,-10 -26,8 z"
   id="path360"
   inkscape:connector-curvature="0"
   style="fill:#000000;stroke:none" />
         <path
   d="m 11068,14450 -5,5 3,5 5,5 h 7 z"
   id="path362"
   inkscape:connector-curvature="0"
   style="fill:#000000;stroke:none" />
         <path
   d="m 8821,17334 20,-41 33,-68 41,-87 51,-104 58,-119 61,-130 66,-137 67,-137 66,-140 63,-135 61,-124 54,-117 48,-99 38,-82 31,-61 15,-33 35,-63 33,-46 31,-30 28,-21 28,-7 h 28 l 28,7 30,10 36,16 41,20 45,25 49,31 53,33 53,41 59,43 56,51 58,53 59,58 56,61 56,66 55,72 51,73 49,79 43,81 28,64 15,46 3,38 -8,48 -15,43 -31,71 -41,87 -45,99 -49,102 -45,96 -41,84 -25,64 -13,35 -10,31 -8,28 -8,25 h -43 -66 -89 -107 -119 -130 -134 -138 -137 -130 -119 -109 -89 -69 -46 z"
   id="path364"
   inkscape:connector-curvature="0"
   style="fill:#006600;stroke:none" />
         <path
   d="m 9586,15718 v 0 l -15,33 -31,61 -38,81 -48,99 -53,117 -61,125 -64,134 -66,140 -66,137 -66,138 -61,129 -59,120 -51,104 -40,86 -33,69 -21,40 16,6 20,-41 33,-69 41,-86 51,-104 58,-120 61,-129 66,-138 66,-137 66,-140 64,-134 61,-125 53,-117 49,-99 38,-81 30,-61 15,-33 v 0 z"
   id="path366"
   inkscape:connector-curvature="0"
   style="fill:#000000;stroke:none" />
         <path
   d="m 9838,15563 v 0 l -31,-10 -30,-8 h -28 l -31,8 -30,20 -33,33 -33,46 -36,66 15,5 36,-61 33,-46 28,-28 25,-20 26,-8 h 28 l 25,8 31,10 v 0 z"
   id="path368"
   inkscape:connector-curvature="0"
   style="fill:#000000;stroke:none" />
         <path
   d="m 10661,16371 v 0 l -43,-81 -48,-82 -51,-73 -56,-72 -56,-66 -58,-61 -59,-58 -58,-53 -56,-54 -59,-43 -53,-41 -53,-33 -49,-30 -48,-26 -41,-20 -35,-15 -5,15 35,15 41,21 43,25 48,31 54,33 53,40 59,43 56,49 58,53 59,59 53,61 56,66 56,71 51,73 48,77 43,81 v 0 z"
   id="path370"
   inkscape:connector-curvature="0"
   style="fill:#000000;stroke:none" />
         <path
   d="m 10700,16569 v 0 l 7,-48 -2,-38 -16,-49 -28,-63 -15,5 28,64 15,43 3,38 -8,48 v 0 z"
   id="path372"
   inkscape:connector-curvature="0"
   style="fill:#000000;stroke:none" />
         <path
   d="m 10407,17217 v 0 l 26,-63 40,-84 46,-97 48,-101 46,-100 41,-86 30,-71 16,-46 h -16 l -15,41 -30,71 -41,86 -46,99 -48,102 -46,97 -41,83 -25,64 v 0 z"
   id="path374"
   inkscape:connector-curvature="0"
   style="fill:#000000;stroke:none" />
         <path
   d="m 10361,17344 8,-7 8,-26 7,-28 11,-30 12,-36 -15,-5 -13,36 -10,30 -8,28 -7,25 7,-7 v 20 l 6,-2 2,-5 z"
   id="path376"
   inkscape:connector-curvature="0"
   style="fill:#000000;stroke:none" />
         <path
   d="m 8813,17331 8,13 h 15 46 69 89 109 119 130 137 138 134 130 119 107 89 66 43 v -20 h -43 -66 -89 -107 -119 -130 -134 -138 -137 -130 -119 -109 -89 -69 -46 -15 l 8,13 -16,-6 -7,13 h 15 z"
   id="path378"
   inkscape:connector-curvature="0"
   style="fill:#000000;stroke:none" />
        </g>
       </g>
      </g>
     </g>
    </g>
   </g>
  </g>
 </g>
</svg>