<?xml version="1.0" encoding="UTF-8" standalone="no"?>
<svg
   xmlns:ooo="http://xml.openoffice.org/svg/export"
   xmlns:dc="http://purl.org/dc/elements/1.1/"
   xmlns:cc="http://creativecommons.org/ns#"
   xmlns:rdf="http://www.w3.org/1999/02/22-rdf-syntax-ns#"
   xmlns:svg="http://www.w3.org/2000/svg"
   xmlns="http://www.w3.org/2000/svg"
   xmlns:sodipodi="http://sodipodi.sourceforge.net/DTD/sodipodi-0.dtd"
   xmlns:inkscape="http://www.inkscape.org/namespaces/inkscape"
   version="1.2"
   width="30.780001mm"
   height="33.93mm"
   viewBox="0 0 3078.0001 3393"
   preserveAspectRatio="xMidYMid"
   xml:space="preserve"
   id="svg409"
   sodipodi:docname="vaudvll.svg"
   style="fill-rule:evenodd;stroke-width:28.22200012;stroke-linejoin:round"
   inkscape:version="0.92.5 (2060ec1f9f, 2020-04-08)"><metadata
   id="metadata413"><rdf:RDF><cc:Work
       rdf:about=""><dc:format>image/svg+xml</dc:format><dc:type
         rdf:resource="http://purl.org/dc/dcmitype/StillImage" /></cc:Work></rdf:RDF></metadata><sodipodi:namedview
   pagecolor="#ffffff"
   bordercolor="#666666"
   borderopacity="1"
   objecttolerance="10"
   gridtolerance="10"
   guidetolerance="10"
   inkscape:pageopacity="0"
   inkscape:pageshadow="2"
   inkscape:window-width="664"
   inkscape:window-height="487"
   id="namedview411"
   showgrid="false"
   inkscape:zoom="0.2102413"
   inkscape:cx="58.16693"
   inkscape:cy="64.100786"
   inkscape:window-x="0"
   inkscape:window-y="0"
   inkscape:window-maximized="0"
   inkscape:current-layer="svg409" />
 <defs
   class="ClipPathGroup"
   id="defs8">
  <clipPath
   id="presentation_clip_path"
   clipPathUnits="userSpaceOnUse">
   <rect
   x="0"
   y="0"
   width="21000"
   height="29700"
   id="rect2" />
  </clipPath>
  <clipPath
   id="presentation_clip_path_shrink"
   clipPathUnits="userSpaceOnUse">
   <rect
   x="21"
   y="29"
   width="20958"
   height="29641"
   id="rect5" />
  </clipPath>
 </defs>
 <defs
   class="TextShapeIndex"
   id="defs12">
  <g
   ooo:slide="id1"
   ooo:id-list="id3"
   id="g10" />
 </defs>
 <defs
   class="EmbeddedBulletChars"
   id="defs44">
  <g
   id="bullet-char-template-57356"
   transform="matrix(4.8828125e-4,0,0,-4.8828125e-4,0,0)">
   <path
   d="M 580,1141 1163,571 580,0 -4,571 Z"
   id="path14"
   inkscape:connector-curvature="0" />
  </g>
  <g
   id="bullet-char-template-57354"
   transform="matrix(4.8828125e-4,0,0,-4.8828125e-4,0,0)">
   <path
   d="M 8,1128 H 1137 V 0 H 8 Z"
   id="path17"
   inkscape:connector-curvature="0" />
  </g>
  <g
   id="bullet-char-template-10146"
   transform="matrix(4.8828125e-4,0,0,-4.8828125e-4,0,0)">
   <path
   d="M 174,0 602,739 174,1481 1456,739 Z M 1358,739 309,1346 659,739 Z"
   id="path20"
   inkscape:connector-curvature="0" />
  </g>
  <g
   id="bullet-char-template-10132"
   transform="matrix(4.8828125e-4,0,0,-4.8828125e-4,0,0)">
   <path
   d="M 2015,739 1276,0 H 717 l 543,543 H 174 v 393 h 1086 l -543,545 h 557 z"
   id="path23"
   inkscape:connector-curvature="0" />
  </g>
  <g
   id="bullet-char-template-10007"
   transform="matrix(4.8828125e-4,0,0,-4.8828125e-4,0,0)">
   <path
   d="m 0,-2 c -7,16 -16,29 -25,39 l 381,530 c -94,256 -141,385 -141,387 0,25 13,38 40,38 9,0 21,-2 34,-5 21,4 42,12 65,25 l 27,-13 111,-251 280,301 64,-25 24,25 c 21,-10 41,-24 62,-43 C 886,937 835,863 770,784 769,783 710,716 594,584 L 774,223 c 0,-27 -21,-55 -63,-84 l 16,-20 C 717,90 699,76 672,76 641,76 570,178 457,381 L 164,-76 c -22,-34 -53,-51 -92,-51 -42,0 -63,17 -64,51 -7,9 -10,24 -10,44 0,9 1,19 2,30 z"
   id="path26"
   inkscape:connector-curvature="0" />
  </g>
  <g
   id="bullet-char-template-10004"
   transform="matrix(4.8828125e-4,0,0,-4.8828125e-4,0,0)">
   <path
   d="M 285,-33 C 182,-33 111,30 74,156 52,228 41,333 41,471 c 0,78 14,145 41,201 34,71 87,106 158,106 53,0 88,-31 106,-94 l 23,-176 c 8,-64 28,-97 59,-98 l 735,706 c 11,11 33,17 66,17 42,0 63,-15 63,-46 V 965 c 0,-36 -10,-64 -30,-84 L 442,47 C 390,-6 338,-33 285,-33 Z"
   id="path29"
   inkscape:connector-curvature="0" />
  </g>
  <g
   id="bullet-char-template-9679"
   transform="matrix(4.8828125e-4,0,0,-4.8828125e-4,0,0)">
   <path
   d="M 813,0 C 632,0 489,54 383,161 276,268 223,411 223,592 c 0,181 53,324 160,431 106,107 249,161 430,161 179,0 323,-54 432,-161 108,-107 162,-251 162,-431 0,-180 -54,-324 -162,-431 C 1136,54 992,0 813,0 Z"
   id="path32"
   inkscape:connector-curvature="0" />
  </g>
  <g
   id="bullet-char-template-8226"
   transform="matrix(4.8828125e-4,0,0,-4.8828125e-4,0,0)">
   <path
   d="m 346,457 c -73,0 -137,26 -191,78 -54,51 -81,114 -81,188 0,73 27,136 81,188 54,52 118,78 191,78 73,0 134,-26 185,-79 51,-51 77,-114 77,-187 0,-75 -25,-137 -76,-188 -50,-52 -112,-78 -186,-78 z"
   id="path35"
   inkscape:connector-curvature="0" />
  </g>
  <g
   id="bullet-char-template-8211"
   transform="matrix(4.8828125e-4,0,0,-4.8828125e-4,0,0)">
   <path
   d="M -4,459 H 1135 V 606 H -4 Z"
   id="path38"
   inkscape:connector-curvature="0" />
  </g>
  <g
   id="bullet-char-template-61548"
   transform="matrix(4.8828125e-4,0,0,-4.8828125e-4,0,0)">
   <path
   d="m 173,740 c 0,163 58,303 173,419 116,115 255,173 419,173 163,0 302,-58 418,-173 116,-116 174,-256 174,-419 0,-163 -58,-303 -174,-418 C 1067,206 928,148 765,148 601,148 462,206 346,322 231,437 173,577 173,740 Z"
   id="path41"
   inkscape:connector-curvature="0" />
  </g>
 </defs>
 <g
   id="g49"
   transform="translate(-8961,-13153)">
  <g
   id="id2"
   class="Master_Slide">
   <g
   id="bg-id2"
   class="Background" />
   <g
   id="bo-id2"
   class="BackgroundObjects" />
  </g>
 </g>
 <g
   class="SlideGroup"
   id="g407"
   transform="translate(-8961,-13153)">
  <g
   id="g405">
   <g
   id="container-id1">
    <g
   id="id1"
   class="Slide"
   clip-path="url(#presentation_clip_path)">
     <g
   class="Page"
   id="g401">
      <g
   class="Graphic"
   id="g399">
       <g
   id="id3">
        <rect
   class="BoundingBox"
   x="8961"
   y="13153"
   width="3078"
   height="3393"
   id="rect51"
   style="fill:none;stroke:none" />
        <defs
   id="defs56">
         <clipPath
   id="clip_path_1"
   clipPathUnits="userSpaceOnUse">
          <path
   d="m 8961,13153 h 3077 v 3392 H 8961 Z"
   id="path53"
   inkscape:connector-curvature="0" />
         </clipPath>
        </defs>
        <g
   clip-path="url(#clip_path_1)"
   id="g396">
         <path
   d="m 9670,15583 23,106 15,82 13,53 3,21 -542,2 8,74 20,71 33,66 46,58 53,49 61,35 69,26 74,7 h 2130 l 73,-7 69,-26 61,-35 53,-49 46,-58 33,-66 20,-71 8,-74 -544,-2 5,-21 10,-53 18,-82 23,-106 z"
   id="path58"
   inkscape:connector-curvature="0"
   style="fill:#c98484;stroke:none" />
         <path
   d="m 9724,15857 10,-12 -3,-21 -13,-56 -15,-79 -23,-109 -20,5 23,104 15,84 13,51 2,21 11,-13 -11,13 3,7 8,3 7,-3 3,-7 z"
   id="path60"
   inkscape:connector-curvature="0"
   style="fill:#000000;stroke:none" />
         <path
   d="m 9195,15847 -13,13 542,-3 v -25 l -542,2 -13,13 13,-13 -7,5 -3,8 3,8 7,5 z"
   id="path62"
   inkscape:connector-curvature="0"
   style="fill:#000000;stroke:none" />
         <path
   d="m 9546,16221 v 0 l -72,-5 -66,-26 -61,-35 -50,-46 -44,-56 -33,-64 -20,-68 -5,-74 h -26 l 11,74 20,73 33,69 48,61 56,51 61,36 71,25 77,10 v 0 0 l 7,-5 5,-8 -5,-7 z"
   id="path64"
   inkscape:connector-curvature="0"
   style="fill:#000000;stroke:none" />
         <path
   d="m 11676,16221 v 0 H 9546 v 25 h 2130 v 0 0 l 7,-5 5,-8 -5,-7 z"
   id="path66"
   inkscape:connector-curvature="0"
   style="fill:#000000;stroke:none" />
         <path
   d="m 12039,15860 -13,-13 -5,74 -20,68 -33,64 -43,56 -51,46 -61,35 -66,26 -71,5 v 25 l 76,-10 71,-25 61,-36 56,-51 48,-61 33,-69 21,-73 10,-74 -13,-13 13,13 -5,-8 -8,-5 -8,5 -5,8 z"
   id="path68"
   inkscape:connector-curvature="0"
   style="fill:#000000;stroke:none" />
         <path
   d="m 11485,15842 10,15 544,3 v -26 l -544,-2 10,15 -10,-15 -8,5 -2,8 2,7 8,5 z"
   id="path70"
   inkscape:connector-curvature="0"
   style="fill:#000000;stroke:none" />
         <path
   d="m 11551,15595 -10,-15 -23,107 -18,81 -10,56 -5,18 20,5 5,-23 10,-51 18,-81 23,-107 -10,-15 10,15 -2,-7 -5,-5 h -8 l -5,7 z"
   id="path72"
   inkscape:connector-curvature="0"
   style="fill:#000000;stroke:none" />
         <path
   d="m 9680,15580 -10,15 h 1881 v -25 H 9670 l -10,15 10,-15 -7,5 -3,8 3,7 7,5 z"
   id="path74"
   inkscape:connector-curvature="0"
   style="fill:#000000;stroke:none" />
         <path
   d="m 11551,15583 -23,106 -18,82 -10,53 -5,21 544,2 v -2099 l -8,-74 -20,-69 -33,-61 -46,-53 -53,-46 -61,-33 -69,-20 -73,-8 h -26 -28 -33 -33 -36 -35 -36 -35 -33 -31 -30 -23 -23 -15 -10 -3 l 3,43 5,51 7,56 10,59 16,63 17,64 23,68 26,66 33,69 38,66 46,64 53,61 58,56 69,53 76,46 84,40 -15,77 -23,122 -33,157 -36,181 -40,193 -41,196 -38,183 z"
   id="path76"
   inkscape:connector-curvature="0"
   style="fill:#ba1975;stroke:none" />
         <path
   d="m 11495,15832 10,15 5,-23 10,-51 18,-81 23,-107 -20,-5 -23,107 -18,81 -10,56 -5,18 10,15 -10,-15 2,8 6,5 7,-3 5,-5 z"
   id="path78"
   inkscape:connector-curvature="0"
   style="fill:#000000;stroke:none" />
         <path
   d="m 12026,15847 13,-13 -544,-2 v 25 l 544,3 13,-13 -13,13 8,-5 5,-8 -5,-8 -8,-5 z"
   id="path80"
   inkscape:connector-curvature="0"
   style="fill:#000000;stroke:none" />
         <path
   d="m 12026,13748 v 0 2099 h 26 v -2099 0 0 l -5,-8 -8,-5 -8,5 z"
   id="path82"
   inkscape:connector-curvature="0"
   style="fill:#000000;stroke:none" />
         <path
   d="m 11676,13397 v 0 l 73,5 66,20 59,33 51,44 43,50 33,59 20,66 5,74 h 26 l -10,-74 -21,-71 -33,-64 -48,-56 -56,-48 -64,-33 -71,-20 -73,-10 v 0 0 l -8,5 -3,7 3,8 z"
   id="path84"
   inkscape:connector-curvature="0"
   style="fill:#000000;stroke:none" />
         <path
   d="m 11256,13384 -10,13 h 3 10 15 23 23 30 31 33 35 36 35 36 33 33 28 26 v -25 h -26 -28 -33 -33 -36 -35 -36 -35 -33 -31 -30 -23 -23 -15 -10 -3 l -10,12 10,-12 -8,5 -2,7 2,8 8,5 z"
   id="path86"
   inkscape:connector-curvature="0"
   style="fill:#000000;stroke:none" />
         <path
   d="m 11820,14309 -7,-10 -82,-40 -76,-46 -66,-51 -58,-56 -54,-61 -43,-61 -38,-66 -33,-66 -26,-66 -22,-69 -18,-63 -15,-64 -11,-56 -7,-56 -5,-51 -3,-43 h -20 l 2,43 5,51 8,56 10,61 15,64 18,63 23,69 26,66 33,71 38,66 48,66 53,61 59,56 71,56 76,46 87,41 -8,-11 8,11 7,-3 5,-5 v -8 l -7,-5 z"
   id="path88"
   inkscape:connector-curvature="0"
   style="fill:#000000;stroke:none" />
         <path
   d="m 11561,15585 v -2 l 33,-165 38,-181 41,-196 41,-195 35,-181 33,-157 23,-122 15,-77 h -20 l -15,77 -23,122 -33,157 -36,181 -40,190 -41,196 -38,186 -33,165 v -3 3 l 2,7 8,3 8,-3 2,-7 z"
   id="path90"
   inkscape:connector-curvature="0"
   style="fill:#000000;stroke:none" />
         <path
   d="m 9670,15583 23,106 15,82 13,53 3,21 -542,2 v -2099 l 8,-74 20,-69 33,-61 46,-53 53,-46 61,-33 69,-20 74,-8 h 25 28 33 33 36 35 36 33 33 33 28 25 21 15 10 3 l -3,43 -5,51 -8,56 -10,59 -13,63 -17,64 -23,68 -28,66 -33,69 -38,66 -46,64 -51,61 -61,56 -66,53 -76,46 -84,40 15,77 23,122 33,157 36,181 40,193 38,196 41,183 z"
   id="path92"
   inkscape:connector-curvature="0"
   style="fill:#ba1975;stroke:none" />
         <path
   d="m 9724,15857 10,-12 -3,-21 -13,-56 -15,-79 -23,-109 -20,5 23,104 15,84 13,51 2,21 11,-13 -11,13 3,7 8,3 7,-3 3,-7 z"
   id="path94"
   inkscape:connector-curvature="0"
   style="fill:#000000;stroke:none" />
         <path
   d="m 9169,15847 13,13 542,-3 v -25 l -542,2 13,13 -13,-13 -7,5 -3,8 3,8 7,5 z"
   id="path96"
   inkscape:connector-curvature="0"
   style="fill:#000000;stroke:none" />
         <path
   d="m 9169,13748 v 0 2099 h 26 v -2099 0 0 l -5,-8 -8,-5 -7,5 z"
   id="path98"
   inkscape:connector-curvature="0"
   style="fill:#000000;stroke:none" />
         <path
   d="m 9546,13372 v 0 l -74,10 -71,20 -64,33 -56,48 -48,56 -33,64 -20,71 -11,74 h 26 l 5,-74 20,-66 33,-59 44,-50 50,-44 59,-33 66,-20 74,-5 v 0 0 l 7,-5 5,-8 -5,-7 z"
   id="path100"
   inkscape:connector-curvature="0"
   style="fill:#000000;stroke:none" />
         <path
   d="m 9983,13384 -10,-12 h -3 -10 -15 -21 -25 -28 -33 -33 -33 -36 -35 -36 -33 -33 -28 -25 v 25 h 25 28 33 33 36 35 36 33 33 33 28 25 21 15 10 3 l -11,-13 11,13 7,-5 5,-8 -5,-7 -7,-5 z"
   id="path102"
   inkscape:connector-curvature="0"
   style="fill:#000000;stroke:none" />
         <path
   d="m 9421,14309 -8,11 87,-41 76,-46 69,-56 61,-56 51,-61 48,-66 38,-66 33,-68 28,-69 23,-69 18,-63 12,-66 11,-59 7,-56 5,-51 3,-43 h -21 l -2,43 -5,51 -8,56 -10,59 -13,61 -17,63 -23,69 -28,63 -33,69 -38,66 -44,61 -51,61 -61,56 -63,51 -76,46 -82,40 -7,10 7,-10 -5,5 -2,8 5,5 7,3 z"
   id="path104"
   inkscape:connector-curvature="0"
   style="fill:#000000;stroke:none" />
         <path
   d="m 9680,15580 v 0 l -33,-165 -40,-183 -39,-193 -40,-193 -36,-181 -33,-157 -23,-122 -15,-77 h -20 l 15,77 23,122 33,157 35,181 41,193 38,198 41,183 33,165 v 0 0 l 5,5 8,3 5,-5 z"
   id="path106"
   inkscape:connector-curvature="0"
   style="fill:#000000;stroke:none" />
         <path
   d="m 11551,15583 33,-165 38,-183 41,-196 40,-193 36,-181 33,-157 23,-122 15,-77 -84,-40 -76,-46 -69,-53 -58,-56 -53,-61 -46,-64 -38,-66 -33,-69 -26,-66 -23,-68 -17,-64 -16,-63 -10,-59 -7,-56 -5,-51 -3,-43 H 9973 l -3,43 -5,51 -8,56 -10,59 -13,63 -17,64 -23,68 -28,66 -33,69 -38,66 -46,64 -51,61 -61,56 -66,53 -76,46 -84,40 15,77 23,122 33,157 36,181 40,193 38,196 41,183 33,165 z"
   id="path108"
   inkscape:connector-curvature="0"
   style="fill:#190000;stroke:none" />
         <path
   d="m 11808,14320 -8,-11 -15,77 -23,122 -33,157 -36,181 -40,190 -41,196 -38,186 -33,165 h 20 l 33,-165 38,-181 41,-196 41,-195 35,-181 33,-157 23,-122 15,-77 -7,-10 7,10 -2,-7 -8,-3 -7,3 -3,7 z"
   id="path110"
   inkscape:connector-curvature="0"
   style="fill:#000000;stroke:none" />
         <path
   d="m 11246,13397 -10,-13 2,43 5,51 8,56 10,61 15,64 18,63 23,69 26,66 33,71 38,66 48,66 53,61 59,56 71,56 76,46 87,41 5,-21 -82,-40 -76,-46 -66,-51 -58,-56 -54,-61 -43,-61 -38,-66 -33,-66 -26,-66 -22,-69 -18,-63 -15,-64 -11,-56 -7,-56 -5,-51 -3,-43 -10,-12 10,12 -2,-7 -8,-3 -8,3 -2,7 z"
   id="path112"
   inkscape:connector-curvature="0"
   style="fill:#000000;stroke:none" />
         <path
   d="m 9983,13384 -10,13 h 1273 v -25 H 9973 l -11,12 11,-12 -8,5 -3,7 3,8 8,5 z"
   id="path114"
   inkscape:connector-curvature="0"
   style="fill:#000000;stroke:none" />
         <path
   d="m 9421,14309 -8,11 87,-41 76,-46 69,-56 61,-56 51,-61 48,-66 38,-66 33,-68 28,-69 23,-69 18,-63 12,-66 11,-59 7,-56 5,-51 3,-43 h -21 l -2,43 -5,51 -8,56 -10,59 -13,61 -17,63 -23,69 -28,63 -33,69 -38,66 -44,61 -51,61 -61,56 -63,51 -76,46 -82,40 -7,10 7,-10 -5,5 -2,8 5,5 7,3 z"
   id="path116"
   inkscape:connector-curvature="0"
   style="fill:#000000;stroke:none" />
         <path
   d="m 9670,15570 10,10 -33,-165 -40,-183 -39,-193 -40,-193 -36,-181 -33,-157 -23,-122 -15,-77 h -20 l 15,77 23,122 33,157 35,181 41,193 38,198 41,183 33,165 10,10 -10,-10 5,5 8,3 5,-5 2,-8 z"
   id="path118"
   inkscape:connector-curvature="0"
   style="fill:#000000;stroke:none" />
         <path
   d="m 11541,15583 10,-13 H 9670 v 25 h 1881 l 10,-12 -10,12 8,-5 5,-7 -5,-8 -8,-5 z"
   id="path120"
   inkscape:connector-curvature="0"
   style="fill:#000000;stroke:none" />
         <path
   d="m 11673,16251 v 0 l 76,-10 71,-20 64,-38 56,-46 48,-59 36,-63 20,-71 10,-77 h -35 l -5,72 -21,66 -30,58 -43,53 -51,41 -59,33 -66,21 -71,5 v 0 0 l -13,5 -5,12 5,13 z"
   id="path122"
   inkscape:connector-curvature="0"
   style="fill:#000000;stroke:none" />
         <path
   d="m 9548,16251 v 0 h 2125 v -35 H 9548 v 0 0 l -13,5 -5,12 5,13 z"
   id="path124"
   inkscape:connector-curvature="0"
   style="fill:#000000;stroke:none" />
         <path
   d="m 9167,15867 v 0 l 10,77 20,71 36,63 48,59 56,46 64,38 71,20 76,10 v -35 l -71,-5 -66,-21 -59,-33 -50,-41 -44,-53 -30,-58 -20,-66 -6,-72 v 0 0 l -5,-12 -12,-5 -13,5 z"
   id="path126"
   inkscape:connector-curvature="0"
   style="fill:#000000;stroke:none" />
         <path
   d="m 9167,13743 v 0 2124 h 35 v -2124 0 0 l -5,-13 -12,-5 -13,5 z"
   id="path128"
   inkscape:connector-curvature="0"
   style="fill:#000000;stroke:none" />
         <path
   d="m 9548,13361 v 0 l -76,11 -71,20 -64,35 -56,49 -48,56 -36,63 -20,71 -10,77 h 35 l 6,-72 20,-66 30,-58 44,-51 50,-43 59,-31 66,-20 71,-5 v 0 0 l 13,-5 5,-13 -5,-13 z"
   id="path130"
   inkscape:connector-curvature="0"
   style="fill:#000000;stroke:none" />
         <path
   d="m 11673,13361 v 0 H 9548 v 36 h 2125 v 0 0 l 13,-5 5,-13 -5,-13 z"
   id="path132"
   inkscape:connector-curvature="0"
   style="fill:#000000;stroke:none" />
         <path
   d="m 12054,13743 v 0 l -10,-77 -20,-71 -36,-63 -48,-56 -56,-49 -64,-35 -71,-20 -76,-11 v 36 l 71,5 66,20 59,31 51,43 43,51 30,58 21,66 5,72 v 0 0 l 5,12 12,5 13,-5 z"
   id="path134"
   inkscape:connector-curvature="0"
   style="fill:#000000;stroke:none" />
         <path
   d="m 12054,15867 v 0 -2124 h -35 v 2124 0 0 l 5,13 12,5 13,-5 z"
   id="path136"
   inkscape:connector-curvature="0"
   style="fill:#000000;stroke:none" />
         <path
   d="m 9035,14833 -23,-31 -18,-35 -10,-38 -3,-38 5,-38 13,-36 18,-33 28,-31 30,-25 36,-18 38,-10 38,-3 38,6 36,12 33,18 30,28 885,933 -69,63 -882,-932 -15,-16 -20,-10 -18,-5 -20,-2 h -23 l -18,5 -20,10 -16,12 -25,36 -8,38 5,41 23,35 z"
   id="path138"
   inkscape:connector-curvature="0"
   style="fill:#ffffff;stroke:none" />
         <path
   d="m 9037,14546 v 0 l -30,33 -18,33 -13,38 -7,41 5,38 10,40 18,39 25,33 15,-16 -20,-28 -18,-33 -10,-35 v -38 l 3,-36 12,-33 18,-33 26,-28 v 0 z"
   id="path140"
   inkscape:connector-curvature="0"
   style="fill:#000000;stroke:none" />
         <path
   d="m 9332,14553 v 0 l -33,-30 -33,-18 -38,-13 -41,-7 -38,5 -41,10 -38,18 -33,28 16,15 27,-23 34,-18 35,-10 h 38 l 36,3 33,12 33,18 28,26 v 0 0 l 7,2 8,-2 3,-8 z"
   id="path142"
   inkscape:connector-curvature="0"
   style="fill:#000000;stroke:none" />
         <path
   d="m 10217,15501 v -15 l -885,-933 -15,16 884,932 v -15 15 l 8,3 8,-3 2,-7 -2,-8 z"
   id="path144"
   inkscape:connector-curvature="0"
   style="fill:#000000;stroke:none" />
         <path
   d="m 10133,15565 h 15 l 69,-64 -16,-15 -68,64 h 15 -15 l -3,7 3,8 7,2 8,-2 z"
   id="path146"
   inkscape:connector-curvature="0"
   style="fill:#000000;stroke:none" />
         <path
   d="m 9251,14632 v 0 l 882,933 15,-15 -882,-933 v 0 0 l -8,-3 -7,3 -3,8 z"
   id="path148"
   inkscape:connector-curvature="0"
   style="fill:#000000;stroke:none" />
         <path
   d="m 9116,14627 v 0 l 13,-10 18,-10 15,-5 23,2 h 20 l 15,5 18,10 13,13 15,-15 -18,-18 -23,-10 -20,-5 -20,-5 -23,2 -21,5 -22,11 -18,15 v 0 z"
   id="path150"
   inkscape:connector-curvature="0"
   style="fill:#000000;stroke:none" />
         <path
   d="m 9111,14777 v -15 l -20,-31 -3,-38 5,-33 23,-33 -15,-15 -28,38 -10,43 7,43 26,41 v -15 15 l 7,3 8,-3 3,-8 -3,-7 z"
   id="path152"
   inkscape:connector-curvature="0"
   style="fill:#000000;stroke:none" />
         <path
   d="m 9027,14841 h 15 l 69,-64 -15,-15 -69,63 h 15 -15 l -2,8 2,8 8,2 7,-2 z"
   id="path154"
   inkscape:connector-curvature="0"
   style="fill:#000000;stroke:none" />
         <path
   d="m 11048,16211 h -267 l -10,30 -10,41 -8,45 2,49 13,48 28,48 48,41 69,33 15,-23 18,-41 23,-50 23,-56 20,-54 18,-50 13,-39 5,-22 -148,-232 23,3 26,5 25,7 25,11 28,10 23,10 23,10 18,13 -8,38 -15,53 -15,51 z"
   id="path156"
   inkscape:connector-curvature="0"
   style="fill:#004cb2;stroke:none" />
         <path
   d="m 11048,16223 7,-5 5,-7 -5,-8 -7,-5 z"
   id="path158"
   inkscape:connector-curvature="0"
   style="fill:#000000;stroke:none" />
         <path
   d="m 10791,16213 -10,10 h 267 v -25 h -267 l -10,10 10,-10 -8,5 -2,8 2,7 8,5 z"
   id="path160"
   inkscape:connector-curvature="0"
   style="fill:#000000;stroke:none" />
         <path
   d="m 10905,16538 11,-2 -67,-33 -45,-38 -26,-44 -12,-45 -3,-49 8,-45 10,-38 10,-31 -20,-5 -10,30 -11,44 -7,45 2,49 13,51 30,53 51,43 71,33 11,-2 -11,2 8,-2 5,-5 v -8 l -7,-5 z"
   id="path162"
   inkscape:connector-curvature="0"
   style="fill:#000000;stroke:none" />
         <path
   d="m 11038,16216 -3,-5 -3,20 -12,38 -18,51 -20,53 -23,56 -23,48 -18,41 -13,20 16,16 17,-26 18,-40 23,-54 23,-56 20,-53 18,-51 13,-38 7,-25 -2,-6 z"
   id="path164"
   inkscape:connector-curvature="0"
   style="fill:#000000;stroke:none" />
         <path
   d="m 10900,15969 -10,15 148,232 20,-11 -148,-231 -10,15 10,-15 -5,-5 h -7 l -8,8 v 7 z"
   id="path166"
   inkscape:connector-curvature="0"
   style="fill:#000000;stroke:none" />
         <path
   d="m 11101,16048 -5,-10 -18,-13 -23,-10 -25,-10 -28,-11 -25,-10 -26,-7 -28,-5 -23,-3 v 20 l 23,3 23,5 25,8 26,10 28,10 20,10 23,10 18,13 -5,-10 5,10 h 7 l 8,-8 v -7 l -5,-5 z"
   id="path168"
   inkscape:connector-curvature="0"
   style="fill:#000000;stroke:none" />
         <path
   d="m 11058,16213 5,-20 15,-51 15,-53 8,-41 h -20 l -8,35 -15,54 -15,51 -5,20 z"
   id="path170"
   inkscape:connector-curvature="0"
   style="fill:#000000;stroke:none" />
         <path
   d="m 11038,16208 2,8 5,5 8,-3 5,-5 z"
   id="path172"
   inkscape:connector-curvature="0"
   style="fill:#000000;stroke:none" />
         <path
   d="m 11063,15870 43,-216 -18,2 -17,6 -23,7 -21,13 -20,15 -23,15 -18,18 -17,20 12,16 18,18 18,20 20,18 18,20 15,13 10,12 z"
   id="path174"
   inkscape:connector-curvature="0"
   style="fill:#004cb2;stroke:none" />
         <path
   d="m 11106,15667 -10,-13 -43,216 h 20 l 43,-216 -10,-13 10,13 -2,-8 -8,-2 -7,2 -3,8 z"
   id="path176"
   inkscape:connector-curvature="0"
   style="fill:#000000;stroke:none" />
         <path
   d="m 10956,15743 v 15 l 18,-20 18,-18 20,-13 20,-15 21,-13 20,-7 18,-5 h 15 v -26 l -20,5 -18,5 -25,8 -21,13 -20,15 -25,18 -18,18 -18,20 v 15 -15 l -3,7 3,8 8,3 7,-3 z"
   id="path178"
   inkscape:connector-curvature="0"
   style="fill:#000000;stroke:none" />
         <path
   d="m 11053,15870 18,-8 -3,-2 -10,-13 -15,-13 -18,-20 -20,-18 -18,-20 -18,-18 -13,-15 -15,15 13,15 17,18 18,20 21,18 17,21 16,12 10,13 2,3 18,-8 -18,8 8,2 8,-2 2,-8 -2,-8 z"
   id="path180"
   inkscape:connector-curvature="0"
   style="fill:#000000;stroke:none" />
         <path
   d="m 11063,15870 23,28 30,38 33,43 39,43 40,46 38,41 36,35 30,23 44,-33 28,-38 15,-41 2,-43 -7,-43 -21,-43 -30,-41 -41,-40 z"
   id="path182"
   inkscape:connector-curvature="0"
   style="fill:#004cb2;stroke:none" />
         <path
   d="m 11071,15862 -8,-2 -8,2 -2,8 2,8 z"
   id="path184"
   inkscape:connector-curvature="0"
   style="fill:#000000;stroke:none" />
         <path
   d="m 11327,16157 h 10 l -27,-20 -36,-36 -38,-40 -41,-46 -38,-43 -33,-44 -31,-38 -22,-28 -16,16 23,28 31,38 33,43 38,43 41,46 38,40 35,36 33,25 h 10 -10 8 l 8,-7 v -8 l -6,-5 z"
   id="path186"
   inkscape:connector-curvature="0"
   style="fill:#000000;stroke:none" />
         <path
   d="m 11322,15855 -7,-3 40,41 28,38 21,41 7,40 -2,41 -16,38 -25,36 -41,30 10,20 46,-35 31,-41 15,-43 3,-46 -8,-45 -20,-46 -33,-43 -41,-41 -8,-3 z"
   id="path188"
   inkscape:connector-curvature="0"
   style="fill:#000000;stroke:none" />
         <path
   d="m 11063,15870 v 10 l 259,-25 v -21 l -259,26 z"
   id="path190"
   inkscape:connector-curvature="0"
   style="fill:#000000;stroke:none" />
         <path
   d="m 11063,15860 -8,2 -2,8 2,8 8,2 z"
   id="path192"
   inkscape:connector-curvature="0"
   style="fill:#000000;stroke:none" />
         <path
   d="m 10590,13862 -5,51 -15,48 -23,43 -28,39 -38,30 -41,23 -48,15 -51,5 -51,-5 -48,-15 -41,-23 -38,-30 -30,-39 -23,-43 -15,-48 -5,-51 v -201 l 5,-51 15,-48 23,-40 30,-39 38,-30 41,-23 48,-15 51,-5 51,5 48,15 41,23 38,30 28,39 23,40 15,48 5,51 z"
   id="path194"
   inkscape:connector-curvature="0"
   style="fill:#f4d6cc;stroke:none" />
         <path
   d="m 10341,14129 v 0 l 51,-8 51,-15 43,-23 41,-33 30,-40 23,-46 15,-51 8,-51 h -25 l -3,51 -15,46 -23,40 -26,36 -35,28 -38,23 -46,15 -51,3 v 0 z"
   id="path196"
   inkscape:connector-curvature="0"
   style="fill:#000000;stroke:none" />
         <path
   d="m 10077,13862 v 0 l 7,51 16,51 23,46 33,40 40,33 43,23 51,15 51,8 v -25 l -51,-3 -45,-15 -39,-23 -35,-28 -28,-36 -23,-40 -15,-46 -3,-51 v 0 0 l -5,-8 -7,-5 -8,5 z"
   id="path198"
   inkscape:connector-curvature="0"
   style="fill:#000000;stroke:none" />
         <path
   d="m 10077,13661 v 0 201 h 25 v -201 0 0 l -5,-7 -7,-5 -8,5 z"
   id="path200"
   inkscape:connector-curvature="0"
   style="fill:#000000;stroke:none" />
         <path
   d="m 10341,13397 v 0 l -51,8 -51,15 -43,23 -40,33 -33,40 -23,44 -16,50 -7,51 h 25 l 3,-51 15,-45 23,-38 28,-36 35,-28 39,-23 45,-15 51,-3 v 0 z"
   id="path202"
   inkscape:connector-curvature="0"
   style="fill:#000000;stroke:none" />
         <path
   d="m 10603,13661 v 0 l -8,-51 -15,-50 -23,-44 -30,-40 -41,-33 -43,-23 -51,-15 -51,-8 v 25 l 51,3 46,15 38,23 35,28 26,36 23,38 15,45 3,51 v 0 0 l 5,8 7,2 8,-2 z"
   id="path204"
   inkscape:connector-curvature="0"
   style="fill:#000000;stroke:none" />
         <path
   d="m 10603,13862 v 0 -201 h -25 v 201 0 0 l 5,8 7,2 8,-2 z"
   id="path206"
   inkscape:connector-curvature="0"
   style="fill:#000000;stroke:none" />
         <path
   d="m 9871,14932 -3,120 -2,22 -8,23 -12,18 -16,18 -20,13 -20,10 -26,7 -25,3 -26,-3 -25,-7 -20,-10 -18,-16 -18,-17 -10,-21 -8,-23 -2,-23 v -119 z"
   id="path208"
   inkscape:connector-curvature="0"
   style="fill:#f4d6cc;stroke:none" />
         <path
   d="m 9881,15052 h -2 l 2,-120 h -20 l -3,120 h -2 v 0 l 5,7 7,3 8,-3 z"
   id="path210"
   inkscape:connector-curvature="0"
   style="fill:#000000;stroke:none" />
         <path
   d="m 9739,15179 v 0 l 25,-5 28,-8 23,-10 23,-15 15,-18 15,-21 8,-25 5,-25 h -25 v 20 l -8,20 -10,15 -15,18 -18,10 -18,11 -23,7 h -25 v 0 z"
   id="path212"
   inkscape:connector-curvature="0"
   style="fill:#000000;stroke:none" />
         <path
   d="m 9599,15046 v 0 l 5,26 8,23 10,23 20,20 21,18 22,10 28,8 26,5 v -26 h -26 l -23,-7 -17,-11 -16,-12 -15,-16 -10,-17 -8,-23 v -21 0 0 l -5,-7 -7,-5 -8,5 z"
   id="path214"
   inkscape:connector-curvature="0"
   style="fill:#000000;stroke:none" />
         <path
   d="m 9612,14917 -13,10 v 119 h 25 v -119 l -12,10 12,-10 -5,-8 -7,-5 -8,5 -5,8 z"
   id="path216"
   inkscape:connector-curvature="0"
   style="fill:#000000;stroke:none" />
         <path
   d="m 9881,14932 -10,-10 -259,-5 v 20 l 259,5 -10,-10 10,13 8,-5 5,-8 -5,-8 -8,-5 z"
   id="path218"
   inkscape:connector-curvature="0"
   style="fill:#000000;stroke:none" />
         <path
   d="m 10100,15268 -74,99 -15,18 -21,12 -20,8 -23,2 h -25 l -23,-5 -23,-10 -23,-13 -33,-38 -18,-43 v -46 l 21,-43 73,-96 z"
   id="path220"
   inkscape:connector-curvature="0"
   style="fill:#f4d6cc;stroke:none" />
         <path
   d="m 10034,15372 h 2 l 74,-99 -20,-10 -74,99 h 2 -2 v 7 l 7,8 h 8 l 5,-5 z"
   id="path222"
   inkscape:connector-curvature="0"
   style="fill:#000000;stroke:none" />
         <path
   d="m 9846,15387 v 0 l 25,15 25,10 26,6 25,2 26,-5 22,-8 23,-15 16,-20 -16,-10 -15,15 -18,10 -17,8 h -21 l -25,2 -21,-5 -20,-10 -20,-10 v 0 z"
   id="path224"
   inkscape:connector-curvature="0"
   style="fill:#000000;stroke:none" />
         <path
   d="m 9815,15202 v 0 l -23,48 v 48 l 18,48 36,41 15,-15 -31,-36 -18,-38 v -43 l 18,-38 v 0 0 l 3,-8 -3,-7 -7,-3 z"
   id="path226"
   inkscape:connector-curvature="0"
   style="fill:#000000;stroke:none" />
         <path
   d="m 9904,15105 h -15 l -74,97 15,15 74,-97 h -15 15 l 3,-7 -3,-8 -8,-3 -7,3 z"
   id="path228"
   inkscape:connector-curvature="0"
   style="fill:#000000;stroke:none" />
         <path
   d="m 10110,15273 -3,-13 -203,-155 -15,15 203,155 -2,-12 2,12 8,3 7,-3 3,-7 -3,-8 z"
   id="path230"
   inkscape:connector-curvature="0"
   style="fill:#000000;stroke:none" />
         <path
   d="m 10781,16211 119,-232 148,232 z"
   id="path232"
   inkscape:connector-curvature="0"
   style="fill:#ffffff;stroke:none" />
         <path
   d="m 10910,15974 h -20 l -119,231 20,11 119,-232 h -20 20 v -7 l -5,-8 h -10 l -5,5 z"
   id="path234"
   inkscape:connector-curvature="0"
   style="fill:#000000;stroke:none" />
         <path
   d="m 11048,16223 10,-18 -148,-231 -20,10 148,232 10,-18 -10,18 5,5 h 10 l 5,-8 v -8 z"
   id="path236"
   inkscape:connector-curvature="0"
   style="fill:#000000;stroke:none" />
         <path
   d="m 10771,16205 10,18 h 267 v -25 h -267 l 10,18 -10,-18 -8,5 -2,8 2,7 8,5 z"
   id="path238"
   inkscape:connector-curvature="0"
   style="fill:#000000;stroke:none" />
         <path
   d="m 11322,15845 -216,-191 -43,216 z"
   id="path240"
   inkscape:connector-curvature="0"
   style="fill:#ffffff;stroke:none" />
         <path
   d="m 11116,15654 -17,8 216,190 15,-15 -216,-191 -18,8 18,-8 -8,-2 -7,2 -3,8 3,8 z"
   id="path242"
   inkscape:connector-curvature="0"
   style="fill:#000000;stroke:none" />
         <path
   d="m 11063,15860 10,10 43,-216 h -20 l -43,216 10,10 -10,-10 2,8 8,2 8,-2 2,-8 z"
   id="path244"
   inkscape:connector-curvature="0"
   style="fill:#000000;stroke:none" />
         <path
   d="m 11315,15852 7,-18 -259,26 v 20 l 259,-25 8,-18 -8,18 8,-3 2,-7 -2,-8 -8,-3 z"
   id="path246"
   inkscape:connector-curvature="0"
   style="fill:#000000;stroke:none" />
         <path
   d="m 10433,15250 -150,633 498,328 119,-232 -302,-249 129,-450 97,-38 569,196 -287,216 216,191 427,-460 -658,-359 h -3 l -5,3 -12,5 -18,2 -26,5 -30,5 -38,8 -46,5 h -46 l -35,-7 -28,-16 -18,-20 -15,-23 -10,-23 -8,-23 -8,-20 -15,-41 -30,-76 -39,-102 -40,-114 -43,-119 -41,-110 -31,-89 -20,-58 -297,10 28,81 35,110 43,124 46,130 43,127 41,112 31,86 20,51 10,31 3,30 v 28 l -6,28 -10,25 -10,23 -15,21 z"
   id="path248"
   inkscape:connector-curvature="0"
   style="fill:#ffffff;stroke:none" />
         <path
   d="m 10288,15872 5,13 150,-633 -21,-5 -149,633 5,13 -5,-13 2,8 5,5 8,-3 5,-5 z"
   id="path250"
   inkscape:connector-curvature="0"
   style="fill:#000000;stroke:none" />
         <path
   d="m 10771,16205 15,-5 -498,-328 -10,21 498,328 15,-5 -15,5 h 7 l 8,-8 v -8 l -5,-5 z"
   id="path252"
   inkscape:connector-curvature="0"
   style="fill:#000000;stroke:none" />
         <path
   d="m 10893,15987 -3,-13 -119,231 20,11 119,-232 -2,-12 2,12 v -7 l -5,-8 h -10 l -5,5 z"
   id="path254"
   inkscape:connector-curvature="0"
   style="fill:#000000;stroke:none" />
         <path
   d="m 10588,15728 2,10 303,249 15,-15 -303,-249 3,10 -3,-10 -7,-3 -8,3 -2,7 2,8 z"
   id="path256"
   inkscape:connector-curvature="0"
   style="fill:#000000;stroke:none" />
         <path
   d="m 10725,15270 -8,8 -129,450 20,5 130,-450 -8,7 8,-7 -3,-8 -5,-5 h -8 l -5,8 z"
   id="path258"
   inkscape:connector-curvature="0"
   style="fill:#000000;stroke:none" />
         <path
   d="m 10827,15232 h -5 l -97,38 5,20 97,-38 h -5 5 l 7,-5 v -7 l -5,-5 -7,-3 z"
   id="path260"
   inkscape:connector-curvature="0"
   style="fill:#000000;stroke:none" />
         <path
   d="m 11398,15445 -2,-17 -569,-196 -5,20 569,196 -3,-18 3,18 7,-3 6,-5 v -7 l -8,-5 z"
   id="path262"
   inkscape:connector-curvature="0"
   style="fill:#000000;stroke:none" />
         <path
   d="m 11114,15646 -3,16 287,-217 -10,-15 -287,216 -2,16 2,-16 -5,5 3,5 5,6 h 7 z"
   id="path264"
   inkscape:connector-curvature="0"
   style="fill:#000000;stroke:none" />
         <path
   d="m 11315,15837 h 15 l -216,-191 -15,16 216,190 h 15 -15 l 7,3 8,-3 2,-7 -2,-8 z"
   id="path266"
   inkscape:connector-curvature="0"
   style="fill:#000000;stroke:none" />
         <path
   d="m 11744,15395 -2,-18 -427,460 15,15 427,-460 -3,-18 3,18 2,-7 -2,-8 -8,-3 -7,3 z"
   id="path268"
   inkscape:connector-curvature="0"
   style="fill:#000000;stroke:none" />
         <path
   d="m 11093,15036 h -7 l 658,359 10,-21 -658,-358 h -8 8 -8 l -7,5 v 10 l 5,5 z"
   id="path270"
   inkscape:connector-curvature="0"
   style="fill:#000000;stroke:none" />
         <path
   d="m 10913,15069 v 0 l 46,-5 38,-7 30,-5 26,-6 20,-2 13,-5 5,-3 h 2 l -5,-20 h -2 l -5,3 -13,5 -15,2 -26,5 -30,5 -38,8 -46,5 v 0 z"
   id="path272"
   inkscape:connector-curvature="0"
   style="fill:#000000;stroke:none" />
         <path
   d="m 10735,14932 v -2 l 8,20 7,23 11,25 17,26 18,20 33,18 38,7 h 46 v -20 h -46 l -33,-8 -23,-12 -17,-21 -13,-20 -10,-20 -8,-23 -8,-21 v -2 z"
   id="path274"
   inkscape:connector-curvature="0"
   style="fill:#000000;stroke:none" />
         <path
   d="m 10486,14228 -10,-8 20,59 31,89 40,109 44,120 40,114 38,102 31,76 15,43 20,-10 -15,-38 -30,-76 -38,-102 -41,-114 -43,-120 -41,-109 -30,-89 -21,-59 -10,-7 10,7 -5,-7 h -8 l -5,5 -2,7 z"
   id="path276"
   inkscape:connector-curvature="0"
   style="fill:#000000;stroke:none" />
         <path
   d="m 10199,14226 -10,12 297,-10 v -20 l -297,10 -11,13 11,-13 -8,2 -3,8 3,8 8,2 z"
   id="path278"
   inkscape:connector-curvature="0"
   style="fill:#000000;stroke:none" />
         <path
   d="m 10486,15046 v 0 l -20,-50 -31,-87 -40,-112 -44,-127 -45,-129 -44,-125 -35,-109 -28,-81 -21,5 28,81 36,109 43,125 46,129 43,127 41,112 30,87 21,51 v 0 z"
   id="path280"
   inkscape:connector-curvature="0"
   style="fill:#000000;stroke:none" />
         <path
   d="m 10443,15252 -3,5 16,-15 17,-23 10,-25 11,-26 5,-30 2,-28 -5,-33 -10,-31 -20,6 10,30 v 28 l 2,28 -5,25 -10,26 -10,20 -13,18 -15,15 -3,5 3,-5 -3,8 3,7 8,3 7,-3 z"
   id="path282"
   inkscape:connector-curvature="0"
   style="fill:#000000;stroke:none" />
         <path
   d="m 9871,14932 2,-99 -259,-3 -2,97 z"
   id="path284"
   inkscape:connector-curvature="0"
   style="fill:#ffffff;stroke:none" />
         <path
   d="m 9873,14846 -10,-13 -2,99 h 20 l 3,-99 -11,-13 13,13 -5,-8 -8,-5 -7,5 -5,8 z"
   id="path286"
   inkscape:connector-curvature="0"
   style="fill:#000000;stroke:none" />
         <path
   d="m 9624,14830 -10,13 259,3 v -26 l -259,-2 -10,12 10,-12 -7,5 -3,7 3,8 7,5 z"
   id="path288"
   inkscape:connector-curvature="0"
   style="fill:#000000;stroke:none" />
         <path
   d="m 9612,14917 10,10 2,-97 h -20 l -2,97 10,10 -13,-10 5,8 8,2 7,-2 5,-8 z"
   id="path290"
   inkscape:connector-curvature="0"
   style="fill:#000000;stroke:none" />
         <path
   d="m 9861,14932 10,-10 -259,-5 v 20 l 259,5 10,-10 -10,13 8,-5 5,-8 -5,-8 -8,-5 z"
   id="path292"
   inkscape:connector-curvature="0"
   style="fill:#000000;stroke:none" />
         <path
   d="m 10102,15270 59,-79 -206,-157 -59,79 z"
   id="path294"
   inkscape:connector-curvature="0"
   style="fill:#ffffff;stroke:none" />
         <path
   d="m 10153,15199 -2,-13 -59,79 20,10 59,-79 -3,-12 3,12 v -7 l -5,-8 h -10 l -5,5 z"
   id="path296"
   inkscape:connector-curvature="0"
   style="fill:#000000;stroke:none" />
         <path
   d="m 9965,15039 -18,2 206,158 15,-15 -206,-158 -17,3 17,-3 -7,-2 -8,2 -2,8 2,7 z"
   id="path298"
   inkscape:connector-curvature="0"
   style="fill:#000000;stroke:none" />
         <path
   d="m 9904,15105 3,13 58,-79 -20,-10 -59,78 3,13 -3,-13 v 8 l 8,8 h 7 l 6,-5 z"
   id="path300"
   inkscape:connector-curvature="0"
   style="fill:#000000;stroke:none" />
         <path
   d="m 10092,15265 18,-2 -206,-158 -15,15 206,158 17,-3 -17,3 7,2 8,-2 2,-8 -2,-7 z"
   id="path302"
   inkscape:connector-curvature="0"
   style="fill:#000000;stroke:none" />
         <path
   d="m 10705,13575 91,-196 -490,-226 -89,196 z"
   id="path304"
   inkscape:connector-curvature="0"
   style="fill:#ffffff;stroke:none" />
         <path
   d="m 10791,13389 -5,-15 -92,196 21,10 91,-196 -5,-15 5,15 v -7 l -5,-8 h -10 l -5,5 z"
   id="path306"
   inkscape:connector-curvature="0"
   style="fill:#000000;stroke:none" />
         <path
   d="m 10316,13158 -16,5 491,226 10,-20 -490,-226 -16,5 16,-5 h -8 l -8,5 v 10 l 5,5 z"
   id="path308"
   inkscape:connector-curvature="0"
   style="fill:#000000;stroke:none" />
         <path
   d="m 10222,13339 5,15 89,-196 -21,-10 -89,196 6,15 -6,-15 v 7 l 8,8 h 8 l 5,-5 z"
   id="path310"
   inkscape:connector-curvature="0"
   style="fill:#000000;stroke:none" />
         <path
   d="m 10694,13570 16,-5 -488,-226 -10,20 488,226 15,-5 -15,5 h 7 l 8,-8 v -7 l -5,-5 z"
   id="path312"
   inkscape:connector-curvature="0"
   style="fill:#000000;stroke:none" />
         <path
   d="m 10872,13732 33,-61 -882,-409 -33,61 z"
   id="path314"
   inkscape:connector-curvature="0"
   style="fill:#ffffff;stroke:none" />
         <path
   d="m 10900,13682 -5,-16 -33,61 21,11 33,-61 -6,-16 6,16 v -8 l -6,-8 h -10 l -5,5 z"
   id="path316"
   inkscape:connector-curvature="0"
   style="fill:#000000;stroke:none" />
         <path
   d="m 10034,13267 -16,5 882,410 10,-21 -881,-409 -16,5 16,-5 h -8 l -8,5 v 10 l 5,5 z"
   id="path318"
   inkscape:connector-curvature="0"
   style="fill:#000000;stroke:none" />
         <path
   d="m 9995,13313 6,15 33,-61 -21,-10 -33,61 5,15 -5,-15 v 8 l 8,7 h 7 l 6,-5 z"
   id="path320"
   inkscape:connector-curvature="0"
   style="fill:#000000;stroke:none" />
         <path
   d="m 10862,13727 15,-5 -882,-409 -10,20 882,410 16,-5 -16,5 h 8 l 8,-8 v -8 l -6,-5 z"
   id="path322"
   inkscape:connector-curvature="0"
   style="fill:#000000;stroke:none" />
         <path
   d="m 10705,13575 45,-97 -490,-228 -43,99 z"
   id="path324"
   inkscape:connector-curvature="0"
   style="fill:#004cb2;stroke:none" />
         <path
   d="m 10745,13488 -5,-15 -46,97 21,10 46,-97 -6,-15 6,15 v -7 l -6,-8 h -10 l -5,5 z"
   id="path326"
   inkscape:connector-curvature="0"
   style="fill:#000000;stroke:none" />
         <path
   d="m 10270,13252 -15,8 490,228 10,-20 -490,-229 -15,8 15,-8 h -8 l -7,5 v 11 l 5,5 z"
   id="path328"
   inkscape:connector-curvature="0"
   style="fill:#000000;stroke:none" />
         <path
   d="m 10222,13339 5,12 43,-99 -20,-5 -44,99 6,13 -6,-13 3,8 5,5 8,-3 5,-5 z"
   id="path330"
   inkscape:connector-curvature="0"
   style="fill:#000000;stroke:none" />
         <path
   d="m 10694,13570 16,-5 -488,-226 -10,20 488,226 15,-5 -15,5 h 7 l 8,-8 v -7 l -5,-5 z"
   id="path332"
   inkscape:connector-curvature="0"
   style="fill:#000000;stroke:none" />
         <path
   d="m 11091,15026 h -3 l -5,3 -12,5 -18,2 -26,5 -30,5 -38,8 -46,5 h -46 l -35,-7 -28,-16 -18,-20 -15,-23 -10,-23 -8,-23 -8,-20 -15,-41 -30,-76 -39,-102 -40,-114 -43,-119 -41,-110 -31,-89 -20,-58 h 31 l 38,-3 43,5 46,8 45,23 44,33 38,53 33,72 33,88 43,102 48,102 49,99 43,89 38,71 23,48 z"
   id="path334"
   inkscape:connector-curvature="0"
   style="fill:#56b2ef;stroke:none" />
         <path
   d="m 10913,15069 v 0 l 46,-5 38,-7 30,-5 26,-6 20,-2 13,-5 5,-3 h 2 l -5,-20 h -2 l -5,3 -13,5 -15,2 -26,5 -30,5 -38,8 -46,5 v 0 z"
   id="path336"
   inkscape:connector-curvature="0"
   style="fill:#000000;stroke:none" />
         <path
   d="m 10735,14932 v -2 l 8,20 7,23 11,25 17,26 18,20 33,18 38,7 h 46 v -20 h -46 l -33,-8 -23,-12 -17,-21 -13,-20 -10,-20 -8,-23 -8,-21 v -2 z"
   id="path338"
   inkscape:connector-curvature="0"
   style="fill:#000000;stroke:none" />
         <path
   d="m 10486,14205 -10,15 20,59 31,89 40,109 44,120 40,114 38,102 31,76 15,43 20,-10 -15,-38 -30,-76 -38,-102 -41,-114 -43,-120 -41,-109 -30,-89 -21,-59 -10,16 10,-16 -5,-7 h -8 l -5,5 -2,7 z"
   id="path340"
   inkscape:connector-curvature="0"
   style="fill:#000000;stroke:none" />
         <path
   d="m 10814,14406 v 0 l -33,-74 -41,-56 -46,-35 -48,-23 -48,-8 -43,-7 -38,2 h -31 v 26 h 31 l 38,-3 43,3 43,7 43,23 41,31 36,50 33,69 v 0 z"
   id="path342"
   inkscape:connector-curvature="0"
   style="fill:#000000;stroke:none" />
         <path
   d="m 11093,15036 8,-15 -10,-18 -23,-48 -38,-71 -43,-89 -49,-99 -48,-102 -43,-99 -33,-89 -20,5 33,89 43,104 48,102 48,99 44,89 38,71 23,48 10,18 7,-15 -7,15 5,5 h 10 l 5,-7 v -8 z"
   id="path344"
   inkscape:connector-curvature="0"
   style="fill:#000000;stroke:none" />
         <path
   d="m 10433,15250 -270,-745 h -274 v 328 l -293,-3 6,-457 2,-31 10,-25 13,-25 18,-23 20,-15 25,-16 28,-7 28,-3 h 13 18 25 31 35 39 38 38 40 36 36 30 26 20 13 5 l 28,81 35,110 43,124 46,130 43,127 41,112 31,86 20,51 10,31 3,30 v 28 l -6,28 -10,25 -10,23 -15,21 z"
   id="path346"
   inkscape:connector-curvature="0"
   style="fill:#56b2ef;stroke:none" />
         <path
   d="m 10163,14518 -10,-10 269,744 21,-5 -270,-744 -10,-11 10,11 -5,-8 h -7 l -5,5 -3,8 z"
   id="path348"
   inkscape:connector-curvature="0"
   style="fill:#000000;stroke:none" />
         <path
   d="m 9901,14505 -12,13 h 274 v -26 h -274 l -13,13 13,-13 -8,5 -2,8 2,8 8,5 z"
   id="path350"
   inkscape:connector-curvature="0"
   style="fill:#000000;stroke:none" />
         <path
   d="m 9889,14846 12,-13 v -328 h -25 v 328 l 13,-13 -13,13 5,8 8,2 7,-2 5,-8 z"
   id="path352"
   inkscape:connector-curvature="0"
   style="fill:#000000;stroke:none" />
         <path
   d="m 9584,14830 12,13 293,3 v -26 l -293,-2 13,12 -13,-12 -7,5 -3,7 3,8 7,5 z"
   id="path354"
   inkscape:connector-curvature="0"
   style="fill:#000000;stroke:none" />
         <path
   d="m 9589,14373 v 0 l -5,457 h 25 l 5,-457 v 0 0 l -5,-8 -7,-5 -8,5 z"
   id="path356"
   inkscape:connector-curvature="0"
   style="fill:#000000;stroke:none" />
         <path
   d="m 9746,14215 v 0 l -28,5 -30,8 -28,15 -23,18 -20,26 -13,25 -10,28 -5,33 h 25 v -28 l 10,-23 13,-25 15,-21 18,-12 23,-16 25,-7 h 28 v 0 0 l 8,-5 5,-8 -5,-8 z"
   id="path358"
   inkscape:connector-curvature="0"
   style="fill:#000000;stroke:none" />
         <path
   d="m 10199,14226 -10,-11 h -5 -13 -20 -26 -30 -36 -36 -40 -38 -38 -39 -35 -31 -25 -18 -13 v 26 h 13 18 25 31 35 39 38 38 40 36 36 30 26 20 13 5 l -11,-10 11,10 7,-5 5,-8 -5,-8 -7,-5 z"
   id="path360"
   inkscape:connector-curvature="0"
   style="fill:#000000;stroke:none" />
         <path
   d="m 10486,15046 v 0 l -20,-50 -31,-87 -40,-112 -44,-127 -45,-129 -44,-125 -35,-109 -28,-81 -21,5 28,81 36,109 43,125 46,129 43,127 41,112 30,87 21,51 v 0 z"
   id="path362"
   inkscape:connector-curvature="0"
   style="fill:#000000;stroke:none" />
         <path
   d="m 10422,15252 18,5 16,-15 17,-23 10,-25 11,-26 5,-30 2,-28 -5,-33 -10,-31 -20,6 10,30 v 28 l 2,28 -5,25 -10,26 -10,20 -13,18 -15,15 18,5 -18,-5 -3,8 3,7 8,3 7,-3 z"
   id="path364"
   inkscape:connector-curvature="0"
   style="fill:#000000;stroke:none" />
         <path
   d="m 9942,15026 524,-696 20,-23 23,-15 25,-13 28,-5 28,-3 26,5 28,11 25,15 20,20 18,23 10,25 8,28 v 28 l -5,28 -10,26 -16,25 -521,697 z"
   id="path366"
   inkscape:connector-curvature="0"
   style="fill:#56b2ef;stroke:none" />
         <path
   d="m 10458,14322 v 3 l -524,696 16,10 523,-696 v 2 -2 -8 l -2,-5 -8,-2 -5,5 z"
   id="path368"
   inkscape:connector-curvature="0"
   style="fill:#000000;stroke:none" />
         <path
   d="m 10677,14294 -3,-2 -25,-16 -31,-10 -28,-7 -28,5 -30,5 -28,12 -26,18 -20,23 15,15 21,-23 20,-12 23,-13 25,-5 h 28 l 23,3 26,10 25,15 -3,-3 z"
   id="path370"
   inkscape:connector-curvature="0"
   style="fill:#000000;stroke:none" />
         <path
   d="m 10702,14510 v 3 l 18,-28 10,-28 5,-31 v -28 l -8,-30 -10,-28 -20,-26 -20,-20 -16,15 21,21 15,20 10,23 8,25 v 28 l -5,26 -10,23 -13,22 v 3 -3 l -3,8 3,8 7,2 8,-2 z"
   id="path372"
   inkscape:connector-curvature="0"
   style="fill:#000000;stroke:none" />
         <path
   d="m 10166,15209 15,-2 521,-697 -15,-10 -521,696 15,-2 -15,2 v 8 l 5,5 5,3 5,-5 z"
   id="path374"
   inkscape:connector-curvature="0"
   style="fill:#000000;stroke:none" />
         <path
   d="m 9934,15021 v 13 l 232,175 15,-15 -231,-175 v 12 -12 l -8,-3 -8,3 -2,7 2,8 z"
   id="path376"
   inkscape:connector-curvature="0"
   style="fill:#000000;stroke:none" />
         <path
   d="m 10402,14223 140,41 v -193 l -140,40 -13,-10 -12,-8 -16,-5 -15,-2 -15,2 -15,5 -13,8 -13,10 -139,-40 v 193 l 139,-41 13,10 13,8 15,5 15,2 15,-2 16,-5 12,-8 z"
   id="path378"
   inkscape:connector-curvature="0"
   style="fill:#004cb2;stroke:none" />
         <path
   d="m 10529,14264 15,-10 -139,-41 -5,20 139,41 16,-10 -16,10 8,-3 5,-5 v -7 l -8,-5 z"
   id="path380"
   inkscape:connector-curvature="0"
   style="fill:#000000;stroke:none" />
         <path
   d="m 10544,14081 -15,-10 v 193 h 26 v -193 l -16,-11 16,11 -5,-8 -8,-5 -8,5 -5,8 z"
   id="path382"
   inkscape:connector-curvature="0"
   style="fill:#000000;stroke:none" />
         <path
   d="m 10395,14119 10,2 139,-40 -5,-21 -139,41 10,3 -10,-3 -5,5 -3,8 5,5 8,2 z"
   id="path384"
   inkscape:connector-curvature="0"
   style="fill:#000000;stroke:none" />
         <path
   d="m 10288,14121 10,-2 10,-8 13,-7 13,-6 h 12 13 l 13,6 12,7 11,8 15,-15 -15,-13 -13,-8 -18,-5 -18,-5 -18,5 -17,5 -13,8 -15,13 10,-3 -10,3 -3,7 3,8 7,2 8,-2 z"
   id="path386"
   inkscape:connector-curvature="0"
   style="fill:#000000;stroke:none" />
         <path
   d="m 10163,14071 -15,10 140,40 5,-20 -140,-41 -15,11 15,-11 -8,3 -5,5 3,8 5,5 z"
   id="path388"
   inkscape:connector-curvature="0"
   style="fill:#000000;stroke:none" />
         <path
   d="m 10148,14254 15,10 v -193 h -25 v 193 l 15,10 -15,-10 5,7 8,3 7,-3 5,-7 z"
   id="path390"
   inkscape:connector-curvature="0"
   style="fill:#000000;stroke:none" />
         <path
   d="m 10298,14215 -10,-2 -140,41 5,20 140,-41 -10,-2 10,2 7,-5 v -8 l -5,-5 -7,-2 z"
   id="path392"
   inkscape:connector-curvature="0"
   style="fill:#000000;stroke:none" />
         <path
   d="m 10405,14213 -10,2 -11,8 -12,8 -13,5 h -13 -12 l -13,-5 -13,-8 -10,-8 -15,16 15,12 13,8 17,5 18,5 18,-5 18,-5 13,-8 15,-12 -10,2 10,-2 2,-8 -2,-8 -8,-2 -7,2 z"
   id="path394"
   inkscape:connector-curvature="0"
   style="fill:#000000;stroke:none" />
        </g>
       </g>
      </g>
     </g>
    </g>
   </g>
  </g>
 </g>
</svg>