<?xml version="1.0" encoding="UTF-8" standalone="no"?>
<svg
   xmlns:ooo="http://xml.openoffice.org/svg/export"
   xmlns:dc="http://purl.org/dc/elements/1.1/"
   xmlns:cc="http://creativecommons.org/ns#"
   xmlns:rdf="http://www.w3.org/1999/02/22-rdf-syntax-ns#"
   xmlns:svg="http://www.w3.org/2000/svg"
   xmlns="http://www.w3.org/2000/svg"
   xmlns:sodipodi="http://sodipodi.sourceforge.net/DTD/sodipodi-0.dtd"
   xmlns:inkscape="http://www.inkscape.org/namespaces/inkscape"
   version="1.2"
   width="41.779999mm"
   height="23.52mm"
   viewBox="0 0 4177.9999 2352"
   preserveAspectRatio="xMidYMid"
   xml:space="preserve"
   id="svg93"
   sodipodi:docname="venice.svg"
   style="fill-rule:evenodd;stroke-width:28.22200012;stroke-linejoin:round"
   inkscape:version="0.92.5 (2060ec1f9f, 2020-04-08)"><metadata
   id="metadata97"><rdf:RDF><cc:Work
       rdf:about=""><dc:format>image/svg+xml</dc:format><dc:type
         rdf:resource="http://purl.org/dc/dcmitype/StillImage" /></cc:Work></rdf:RDF></metadata><sodipodi:namedview
   pagecolor="#ffffff"
   bordercolor="#666666"
   borderopacity="1"
   objecttolerance="10"
   gridtolerance="10"
   guidetolerance="10"
   inkscape:pageopacity="0"
   inkscape:pageshadow="2"
   inkscape:window-width="664"
   inkscape:window-height="487"
   id="namedview95"
   showgrid="false"
   inkscape:zoom="0.2102413"
   inkscape:cx="78.954332"
   inkscape:cy="44.447243"
   inkscape:window-x="0"
   inkscape:window-y="0"
   inkscape:window-maximized="0"
   inkscape:current-layer="svg93" />
 <defs
   class="ClipPathGroup"
   id="defs8">
  <clipPath
   id="presentation_clip_path"
   clipPathUnits="userSpaceOnUse">
   <rect
   x="0"
   y="0"
   width="21000"
   height="29700"
   id="rect2" />
  </clipPath>
  <clipPath
   id="presentation_clip_path_shrink"
   clipPathUnits="userSpaceOnUse">
   <rect
   x="21"
   y="29"
   width="20958"
   height="29641"
   id="rect5" />
  </clipPath>
 </defs>
 <defs
   class="TextShapeIndex"
   id="defs12">
  <g
   ooo:slide="id1"
   ooo:id-list="id3"
   id="g10" />
 </defs>
 <defs
   class="EmbeddedBulletChars"
   id="defs44">
  <g
   id="bullet-char-template-57356"
   transform="matrix(4.8828125e-4,0,0,-4.8828125e-4,0,0)">
   <path
   d="M 580,1141 1163,571 580,0 -4,571 Z"
   id="path14"
   inkscape:connector-curvature="0" />
  </g>
  <g
   id="bullet-char-template-57354"
   transform="matrix(4.8828125e-4,0,0,-4.8828125e-4,0,0)">
   <path
   d="M 8,1128 H 1137 V 0 H 8 Z"
   id="path17"
   inkscape:connector-curvature="0" />
  </g>
  <g
   id="bullet-char-template-10146"
   transform="matrix(4.8828125e-4,0,0,-4.8828125e-4,0,0)">
   <path
   d="M 174,0 602,739 174,1481 1456,739 Z M 1358,739 309,1346 659,739 Z"
   id="path20"
   inkscape:connector-curvature="0" />
  </g>
  <g
   id="bullet-char-template-10132"
   transform="matrix(4.8828125e-4,0,0,-4.8828125e-4,0,0)">
   <path
   d="M 2015,739 1276,0 H 717 l 543,543 H 174 v 393 h 1086 l -543,545 h 557 z"
   id="path23"
   inkscape:connector-curvature="0" />
  </g>
  <g
   id="bullet-char-template-10007"
   transform="matrix(4.8828125e-4,0,0,-4.8828125e-4,0,0)">
   <path
   d="m 0,-2 c -7,16 -16,29 -25,39 l 381,530 c -94,256 -141,385 -141,387 0,25 13,38 40,38 9,0 21,-2 34,-5 21,4 42,12 65,25 l 27,-13 111,-251 280,301 64,-25 24,25 c 21,-10 41,-24 62,-43 C 886,937 835,863 770,784 769,783 710,716 594,584 L 774,223 c 0,-27 -21,-55 -63,-84 l 16,-20 C 717,90 699,76 672,76 641,76 570,178 457,381 L 164,-76 c -22,-34 -53,-51 -92,-51 -42,0 -63,17 -64,51 -7,9 -10,24 -10,44 0,9 1,19 2,30 z"
   id="path26"
   inkscape:connector-curvature="0" />
  </g>
  <g
   id="bullet-char-template-10004"
   transform="matrix(4.8828125e-4,0,0,-4.8828125e-4,0,0)">
   <path
   d="M 285,-33 C 182,-33 111,30 74,156 52,228 41,333 41,471 c 0,78 14,145 41,201 34,71 87,106 158,106 53,0 88,-31 106,-94 l 23,-176 c 8,-64 28,-97 59,-98 l 735,706 c 11,11 33,17 66,17 42,0 63,-15 63,-46 V 965 c 0,-36 -10,-64 -30,-84 L 442,47 C 390,-6 338,-33 285,-33 Z"
   id="path29"
   inkscape:connector-curvature="0" />
  </g>
  <g
   id="bullet-char-template-9679"
   transform="matrix(4.8828125e-4,0,0,-4.8828125e-4,0,0)">
   <path
   d="M 813,0 C 632,0 489,54 383,161 276,268 223,411 223,592 c 0,181 53,324 160,431 106,107 249,161 430,161 179,0 323,-54 432,-161 108,-107 162,-251 162,-431 0,-180 -54,-324 -162,-431 C 1136,54 992,0 813,0 Z"
   id="path32"
   inkscape:connector-curvature="0" />
  </g>
  <g
   id="bullet-char-template-8226"
   transform="matrix(4.8828125e-4,0,0,-4.8828125e-4,0,0)">
   <path
   d="m 346,457 c -73,0 -137,26 -191,78 -54,51 -81,114 -81,188 0,73 27,136 81,188 54,52 118,78 191,78 73,0 134,-26 185,-79 51,-51 77,-114 77,-187 0,-75 -25,-137 -76,-188 -50,-52 -112,-78 -186,-78 z"
   id="path35"
   inkscape:connector-curvature="0" />
  </g>
  <g
   id="bullet-char-template-8211"
   transform="matrix(4.8828125e-4,0,0,-4.8828125e-4,0,0)">
   <path
   d="M -4,459 H 1135 V 606 H -4 Z"
   id="path38"
   inkscape:connector-curvature="0" />
  </g>
  <g
   id="bullet-char-template-61548"
   transform="matrix(4.8828125e-4,0,0,-4.8828125e-4,0,0)">
   <path
   d="m 173,740 c 0,163 58,303 173,419 116,115 255,173 419,173 163,0 302,-58 418,-173 116,-116 174,-256 174,-419 0,-163 -58,-303 -174,-418 C 1067,206 928,148 765,148 601,148 462,206 346,322 231,437 173,577 173,740 Z"
   id="path41"
   inkscape:connector-curvature="0" />
  </g>
 </defs>
 <g
   id="g49"
   transform="translate(-8411,-13674)">
  <g
   id="id2"
   class="Master_Slide">
   <g
   id="bg-id2"
   class="Background" />
   <g
   id="bo-id2"
   class="BackgroundObjects" />
  </g>
 </g>
 <g
   class="SlideGroup"
   id="g91"
   transform="translate(-8411,-13674)">
  <g
   id="g89">
   <g
   id="container-id1">
    <g
   id="id1"
   class="Slide"
   clip-path="url(#presentation_clip_path)">
     <g
   class="Page"
   id="g85">
      <g
   class="Graphic"
   id="g83">
       <g
   id="id3">
        <rect
   class="BoundingBox"
   x="8411"
   y="13674"
   width="4178"
   height="2352"
   id="rect51"
   style="fill:none;stroke:none" />
        <defs
   id="defs56">
         <clipPath
   id="clip_path_1"
   clipPathUnits="userSpaceOnUse">
          <path
   d="m 8411,13674 h 4177 v 2351 H 8411 Z"
   id="path53"
   inkscape:connector-curvature="0" />
         </clipPath>
        </defs>
        <g
   clip-path="url(#clip_path_1)"
   id="g80">
         <path
   d="m 9699,14256 36,41 25,46 16,51 12,50 6,54 v 51 45 l -3,41 -3,82 6,91 17,86 36,72 20,25 28,31 31,33 38,33 40,33 49,30 51,28 58,23 15,3 15,5 16,2 15,3 15,2 18,3 15,3 h 18 5 8 5 7 11 12 11 12 l 13,2 h 13 12 13 l 53,3 56,2 61,3 61,5 64,2 61,5 63,3 64,5 61,5 58,3 54,5 51,5 48,2 40,3 34,5 27,3 16,2 h 15 15 l 15,3 51,5 49,7 48,5 46,6 43,7 43,5 41,5 40,5 38,5 36,6 36,5 33,2 33,5 33,5 30,3 31,5 53,5 56,-2 53,-3 51,-13 49,-15 45,-23 41,-30 33,-41 20,-31 21,-33 17,-35 16,-41 10,-48 7,-56 3,-66 -3,-79 -5,-84 -2,-81 v -77 l 10,-71 18,-66 30,-64 46,-55 61,-54 v 379 l -15,-28 -18,-15 -15,-5 -18,5 -13,12 -12,21 -8,23 -3,28 5,119 18,148 21,150 7,134 v 56 l -2,72 -11,81 -20,86 -35,92 -59,94 -81,89 -112,86 -41,11 -43,7 -46,5 -45,3 -44,-3 -43,-10 -35,-15 -33,-23 -33,13 -33,12 -34,11 -35,10 -36,7 -38,6 -35,5 -36,2 h -36 -33 l -33,-2 -33,-3 -30,-8 -28,-7 -28,-8 -23,-13 -36,13 -38,10 -40,11 -38,7 -41,8 -41,2 -40,5 h -41 -41 l -40,-2 -41,-5 -38,-10 -38,-11 -38,-12 -36,-16 -33,-20 -56,13 -56,7 -56,3 h -51 l -48,-5 -46,-10 -40,-13 -36,-15 -23,7 -23,8 -22,10 -23,8 -23,7 -21,6 -15,2 -13,3 -68,-33 -61,-36 -59,-41 -53,-45 -46,-46 -43,-51 -38,-53 -33,-56 -31,-54 -22,-58 -21,-56 -18,-59 -12,-56 -8,-56 -5,-53 v -51 l 8,-109 12,-112 18,-109 15,-102 8,-84 -5,-61 -20,-31 -41,6 z"
   id="path58"
   inkscape:connector-curvature="0"
   style="fill:#000000;stroke:none" />
         <path
   d="m 10411,15225 53,3 56,2 61,3 61,5 64,2 61,5 63,3 64,5 61,5 58,3 54,5 51,5 48,2 40,3 34,5 27,3 16,2 h 15 15 l 15,3 13,-11 8,-15 7,-13 6,-10 -6,-17 -20,-34 -23,-33 -12,-20 -11,-20 -17,-36 -18,-33 -13,-20 -8,-5 -10,-5 -18,-8 -17,-10 -21,-8 -17,-10 -18,-8 -13,-5 10,-25 5,-36 v -35 l -2,-31 -5,-10 -13,-10 -18,-5 -18,-8 -20,-2 -18,-3 -12,-3 h -8 l -10,11 -15,22 -13,28 -10,16 -5,15 v 23 25 16 l 5,10 10,7 13,5 17,3 v 30 l -15,3 -15,3 -13,2 -13,5 -12,3 -8,5 -8,2 -5,3 -10,13 -12,25 -18,33 -18,31 -15,-31 -13,-36 -10,-35 -8,-23 -5,-8 -7,-7 -8,-8 -13,-8 -15,-7 -15,-8 -18,-5 -18,-5 8,-18 10,-18 10,-17 10,-16 8,-20 v -25 l -3,-26 -7,-18 -5,-5 -5,-7 -11,-8 -10,-5 -13,-3 -12,-2 h -18 l -18,5 -28,15 -12,18 -3,25 v 34 l -5,5 -8,10 -5,7 -7,8 -3,10 3,15 5,21 5,23 -13,7 -13,10 -12,11 -13,10 -8,5 -10,8 -13,10 -15,15 -18,20 -17,28 -21,36 -20,43 -5,13 -5,13 -8,15 z"
   id="path60"
   inkscape:connector-curvature="0"
   style="fill:#000000;stroke:none" />
         <path
   d="m 10162,15202 15,3 15,5 16,2 15,3 15,2 18,3 15,3 h 18 5 8 5 7 l -2,-34 -8,-78 -12,-89 -16,-74 5,-74 13,-107 13,-94 18,-43 20,36 18,86 12,97 8,68 8,56 15,72 15,71 13,53 20,-43 21,-36 17,-28 18,-20 15,-15 13,-10 10,-8 8,-5 -10,-66 -10,-64 -6,-51 -2,-35 -5,-46 -10,-74 -10,-76 v -51 l 2,-33 -2,-38 -6,-46 -10,-53 -10,-49 -7,-43 -6,-43 -7,-46 -5,-30 -3,-36 -2,-38 -5,-43 15,15 18,15 15,13 18,13 10,-8 15,-8 18,-12 15,-13 18,-10 13,-10 10,-8 2,-3 -20,-17 -20,-16 -18,-12 -18,-13 -18,-13 -15,-12 -15,-13 -13,-13 -20,-15 -16,-8 h -10 -10 -13 l -17,3 -18,5 h -18 l -2,-13 v -13 -12 -10 l 12,5 13,5 15,5 18,2 h 15 l 15,-2 16,-5 12,-8 -12,-2 -13,-6 -15,-2 -13,-3 -15,-5 -13,-2 -13,-3 -7,-2 2,-18 v -15 l 3,-8 v -3 l 15,-5 13,-7 10,-8 3,-13 -6,-12 -10,-5 h -18 -20 l -10,-28 -10,-21 -10,-10 -16,-5 h -10 -15 -18 l -20,3 h -18 l -15,5 -10,2 -5,5 -6,13 -5,18 -5,18 -2,17 -15,5 -16,3 -15,5 -10,5 -10,8 -8,5 -2,8 -3,7 3,8 2,7 8,8 10,5 13,5 15,5 18,3 h 17 l -2,10 -5,10 -5,8 2,2 8,3 10,8 13,15 15,23 -15,5 -16,7 -15,8 -18,10 -17,10 -16,10 -15,11 -10,10 -8,7 -5,11 -7,12 -8,11 -8,15 -7,12 -8,16 -10,15 -5,10 -5,10 -8,8 -5,8 -20,25 -21,31 -12,38 v 35 l 10,33 10,33 15,31 13,30 13,23 10,10 13,3 15,-3 18,-7 15,-8 8,-10 -6,-15 -12,-15 -8,-16 -5,-12 -5,-16 -5,-20 -5,-20 -3,-21 5,-15 13,-13 13,-10 12,-10 6,-3 40,-20 v 5 5 3 5 l -2,13 v 12 13 l 2,13 v 15 15 16 17 16 15 15 13 l 3,15 v 13 10 10 l -3,102 -5,165 -5,163 v 89 l 5,51 8,78 7,77 z"
   id="path62"
   inkscape:connector-curvature="0"
   style="fill:#000000;stroke:none" />
         <path
   d="m 10508,14099 -5,15 v 23 l 5,20 12,13 -40,23 17,2 h 21 20 l 15,-5 16,-7 15,-11 15,-10 13,-13 13,-10 10,-10 7,-10 3,-8 -3,-10 -7,-23 -10,-28 -16,-23 -2,3 -10,8 -13,10 -18,10 -15,13 -18,12 -15,8 z"
   id="path64"
   inkscape:connector-curvature="0"
   style="fill:#000000;stroke:none" />
         <path
   d="m 10147,14424 v -10 -10 -13 l -3,-15 23,-3 h 33 l 38,-2 41,-3 h 38 l 33,-2 h 25 13 l 8,50 z"
   id="path66"
   inkscape:connector-curvature="0"
   style="fill:#ffffff;stroke:none" />
         <path
   d="m 10144,14317 v -17 -16 -15 -15 h 21 l 30,-3 h 36 l 38,-2 h 38 l 33,-3 h 25 13 v 8 l 3,18 v 17 16 h -21 l -30,2 -38,3 h -41 l -41,2 -33,3 -25,2 z"
   id="path68"
   inkscape:connector-curvature="0"
   style="fill:#ffffff;stroke:none" />
         <path
   d="m 10144,14203 v -5 -3 -5 -5 l -40,20 -16,-15 -20,-18 -15,-17 -5,-8 h 25 l 36,-3 h 43 l 48,-2 48,-3 h 46 l 41,-2 h 28 l 2,61 z"
   id="path70"
   inkscape:connector-curvature="0"
   style="fill:#ffffff;stroke:none" />
         <path
   d="m 10040,14091 10,-15 8,-16 7,-12 8,-15 h 28 31 30 28 28 20 18 10 l 8,2 10,3 13,5 12,7 13,8 13,8 7,7 8,5 -20,3 -33,2 -46,3 h -48 l -51,2 h -48 -39 z"
   id="path72"
   inkscape:connector-curvature="0"
   style="fill:#ffffff;stroke:none" />
         <path
   d="m 10101,13992 10,-10 15,-11 16,-10 17,-10 h 8 l 20,-2 21,2 15,5 8,8 5,7 2,8 3,10 h -5 -13 -20 -23 -26 -22 l -18,3 z"
   id="path74"
   inkscape:connector-curvature="0"
   style="fill:#ffffff;stroke:none" />
         <path
   d="m 8411,15380 2097,-1281 -5,15 v 23 l 5,20 12,13 -40,23 v 5 l -3,13 -5,12 -8,5 -7,-2 -10,-8 -8,-5 -3,-2 -2017,1182 z"
   id="path76"
   inkscape:connector-curvature="0"
   style="fill:#000000;stroke:none" />
         <path
   d="m 10449,15342 3,25 10,21 20,20 28,15 33,16 38,12 38,11 44,10 40,7 41,5 38,5 36,3 28,3 22,2 h 16 5 l -21,-102 v -5 -5 h 8 l 20,21 49,38 56,30 61,18 61,13 56,7 45,3 h 31 10 l -10,-120 249,56 79,3 h 73 l 69,-3 h 63 l 59,-2 56,-3 48,-5 46,-2 38,-5 33,-3 31,-5 22,-3 21,-2 12,-3 11,-2 h 2 l -63,23 -61,23 -59,17 -58,16 -56,12 -56,10 -53,8 -51,5 -49,5 -48,3 -48,2 -43,3 h -44 -43 -40 -39 -53 l -61,-3 -66,-2 -69,-5 -73,-5 -74,-5 -74,-8 -73,-5 -72,-8 -66,-5 -63,-8 -54,-5 -48,-5 -38,-5 -28,-5 -18,-2 -28,-8 -35,-13 -43,-18 -49,-20 -48,-20 -48,-23 -46,-20 -38,-23 18,2 20,3 18,5 20,7 18,8 15,8 13,5 10,5 81,38 49,13 h 22 l 3,-16 -10,-22 -18,-26 -20,-23 -16,-15 -2,-8 13,-2 20,5 28,8 28,7 23,8 18,7 z"
   id="path78"
   inkscape:connector-curvature="0"
   style="fill:#ffffff;stroke:none" />
        </g>
       </g>
      </g>
     </g>
    </g>
   </g>
  </g>
 </g>
</svg>