<?xml version="1.0" encoding="UTF-8" standalone="no"?>
<svg
   xmlns:ooo="http://xml.openoffice.org/svg/export"
   xmlns:dc="http://purl.org/dc/elements/1.1/"
   xmlns:cc="http://creativecommons.org/ns#"
   xmlns:rdf="http://www.w3.org/1999/02/22-rdf-syntax-ns#"
   xmlns:svg="http://www.w3.org/2000/svg"
   xmlns="http://www.w3.org/2000/svg"
   xmlns:sodipodi="http://sodipodi.sourceforge.net/DTD/sodipodi-0.dtd"
   xmlns:inkscape="http://www.inkscape.org/namespaces/inkscape"
   version="1.2"
   width="24.77mm"
   height="48.720001mm"
   viewBox="0 0 2477 4872.0001"
   preserveAspectRatio="xMidYMid"
   xml:space="preserve"
   id="svg185"
   sodipodi:docname="violinst.svg"
   style="fill-rule:evenodd;stroke-width:28.22200012;stroke-linejoin:round"
   inkscape:version="0.92.5 (2060ec1f9f, 2020-04-08)"><metadata
   id="metadata189"><rdf:RDF><cc:Work
       rdf:about=""><dc:format>image/svg+xml</dc:format><dc:type
         rdf:resource="http://purl.org/dc/dcmitype/StillImage" /></cc:Work></rdf:RDF></metadata><sodipodi:namedview
   pagecolor="#ffffff"
   bordercolor="#666666"
   borderopacity="1"
   objecttolerance="10"
   gridtolerance="10"
   guidetolerance="10"
   inkscape:pageopacity="0"
   inkscape:pageshadow="2"
   inkscape:window-width="664"
   inkscape:window-height="487"
   id="namedview187"
   showgrid="false"
   inkscape:zoom="0.2102413"
   inkscape:cx="46.828347"
   inkscape:cy="92.06929"
   inkscape:window-x="0"
   inkscape:window-y="0"
   inkscape:window-maximized="0"
   inkscape:current-layer="svg185" />
 <defs
   class="ClipPathGroup"
   id="defs8">
  <clipPath
   id="presentation_clip_path"
   clipPathUnits="userSpaceOnUse">
   <rect
   x="0"
   y="0"
   width="21000"
   height="29700"
   id="rect2" />
  </clipPath>
  <clipPath
   id="presentation_clip_path_shrink"
   clipPathUnits="userSpaceOnUse">
   <rect
   x="21"
   y="29"
   width="20958"
   height="29641"
   id="rect5" />
  </clipPath>
 </defs>
 <defs
   class="TextShapeIndex"
   id="defs12">
  <g
   ooo:slide="id1"
   ooo:id-list="id3"
   id="g10" />
 </defs>
 <defs
   class="EmbeddedBulletChars"
   id="defs44">
  <g
   id="bullet-char-template-57356"
   transform="matrix(4.8828125e-4,0,0,-4.8828125e-4,0,0)">
   <path
   d="M 580,1141 1163,571 580,0 -4,571 Z"
   id="path14"
   inkscape:connector-curvature="0" />
  </g>
  <g
   id="bullet-char-template-57354"
   transform="matrix(4.8828125e-4,0,0,-4.8828125e-4,0,0)">
   <path
   d="M 8,1128 H 1137 V 0 H 8 Z"
   id="path17"
   inkscape:connector-curvature="0" />
  </g>
  <g
   id="bullet-char-template-10146"
   transform="matrix(4.8828125e-4,0,0,-4.8828125e-4,0,0)">
   <path
   d="M 174,0 602,739 174,1481 1456,739 Z M 1358,739 309,1346 659,739 Z"
   id="path20"
   inkscape:connector-curvature="0" />
  </g>
  <g
   id="bullet-char-template-10132"
   transform="matrix(4.8828125e-4,0,0,-4.8828125e-4,0,0)">
   <path
   d="M 2015,739 1276,0 H 717 l 543,543 H 174 v 393 h 1086 l -543,545 h 557 z"
   id="path23"
   inkscape:connector-curvature="0" />
  </g>
  <g
   id="bullet-char-template-10007"
   transform="matrix(4.8828125e-4,0,0,-4.8828125e-4,0,0)">
   <path
   d="m 0,-2 c -7,16 -16,29 -25,39 l 381,530 c -94,256 -141,385 -141,387 0,25 13,38 40,38 9,0 21,-2 34,-5 21,4 42,12 65,25 l 27,-13 111,-251 280,301 64,-25 24,25 c 21,-10 41,-24 62,-43 C 886,937 835,863 770,784 769,783 710,716 594,584 L 774,223 c 0,-27 -21,-55 -63,-84 l 16,-20 C 717,90 699,76 672,76 641,76 570,178 457,381 L 164,-76 c -22,-34 -53,-51 -92,-51 -42,0 -63,17 -64,51 -7,9 -10,24 -10,44 0,9 1,19 2,30 z"
   id="path26"
   inkscape:connector-curvature="0" />
  </g>
  <g
   id="bullet-char-template-10004"
   transform="matrix(4.8828125e-4,0,0,-4.8828125e-4,0,0)">
   <path
   d="M 285,-33 C 182,-33 111,30 74,156 52,228 41,333 41,471 c 0,78 14,145 41,201 34,71 87,106 158,106 53,0 88,-31 106,-94 l 23,-176 c 8,-64 28,-97 59,-98 l 735,706 c 11,11 33,17 66,17 42,0 63,-15 63,-46 V 965 c 0,-36 -10,-64 -30,-84 L 442,47 C 390,-6 338,-33 285,-33 Z"
   id="path29"
   inkscape:connector-curvature="0" />
  </g>
  <g
   id="bullet-char-template-9679"
   transform="matrix(4.8828125e-4,0,0,-4.8828125e-4,0,0)">
   <path
   d="M 813,0 C 632,0 489,54 383,161 276,268 223,411 223,592 c 0,181 53,324 160,431 106,107 249,161 430,161 179,0 323,-54 432,-161 108,-107 162,-251 162,-431 0,-180 -54,-324 -162,-431 C 1136,54 992,0 813,0 Z"
   id="path32"
   inkscape:connector-curvature="0" />
  </g>
  <g
   id="bullet-char-template-8226"
   transform="matrix(4.8828125e-4,0,0,-4.8828125e-4,0,0)">
   <path
   d="m 346,457 c -73,0 -137,26 -191,78 -54,51 -81,114 -81,188 0,73 27,136 81,188 54,52 118,78 191,78 73,0 134,-26 185,-79 51,-51 77,-114 77,-187 0,-75 -25,-137 -76,-188 -50,-52 -112,-78 -186,-78 z"
   id="path35"
   inkscape:connector-curvature="0" />
  </g>
  <g
   id="bullet-char-template-8211"
   transform="matrix(4.8828125e-4,0,0,-4.8828125e-4,0,0)">
   <path
   d="M -4,459 H 1135 V 606 H -4 Z"
   id="path38"
   inkscape:connector-curvature="0" />
  </g>
  <g
   id="bullet-char-template-61548"
   transform="matrix(4.8828125e-4,0,0,-4.8828125e-4,0,0)">
   <path
   d="m 173,740 c 0,163 58,303 173,419 116,115 255,173 419,173 163,0 302,-58 418,-173 116,-116 174,-256 174,-419 0,-163 -58,-303 -174,-418 C 1067,206 928,148 765,148 601,148 462,206 346,322 231,437 173,577 173,740 Z"
   id="path41"
   inkscape:connector-curvature="0" />
  </g>
 </defs>
 <g
   id="g49"
   transform="translate(-9261,-12414)">
  <g
   id="id2"
   class="Master_Slide">
   <g
   id="bg-id2"
   class="Background" />
   <g
   id="bo-id2"
   class="BackgroundObjects" />
  </g>
 </g>
 <g
   class="SlideGroup"
   id="g183"
   transform="translate(-9261,-12414)">
  <g
   id="g181">
   <g
   id="container-id1">
    <g
   id="id1"
   class="Slide"
   clip-path="url(#presentation_clip_path)">
     <g
   class="Page"
   id="g177">
      <g
   class="Graphic"
   id="g175">
       <g
   id="id3">
        <rect
   class="BoundingBox"
   x="9261"
   y="12414"
   width="2477"
   height="4872"
   id="rect51"
   style="fill:none;stroke:none" />
        <defs
   id="defs56">
         <clipPath
   id="clip_path_1"
   clipPathUnits="userSpaceOnUse">
          <path
   d="m 9261,12414 h 2476 v 4871 H 9261 Z"
   id="path53"
   inkscape:connector-curvature="0" />
         </clipPath>
        </defs>
        <g
   clip-path="url(#clip_path_1)"
   id="g172">
         <path
   d="m 10451,14623 -20,-3 h -26 l -28,3 -28,5 -28,10 -25,12 -23,16 -18,18 -33,50 -18,54 -10,53 -5,51 v 84 l 13,104 20,119 26,122 28,117 28,107 23,84 17,56 8,43 -3,61 -15,66 -33,71 -20,33 -21,31 -15,33 -13,33 -12,41 -8,43 -2,53 -3,64 v 142 l 3,145 -8,132 -15,107 -5,25 -3,31 3,35 12,41 13,-5 13,-8 18,-7 17,-13 16,-15 15,-18 13,-20 10,-26 10,-56 8,-58 5,-59 10,-56 15,-48 18,-43 20,-43 21,-41 20,-38 18,-36 18,-35 10,-33 15,-74 10,-79 8,-66 7,-46 13,-33 20,-38 18,-38 16,-38 5,-48 v -64 -68 l 5,-67 10,-109 10,-170 5,-188 -5,-158 -8,-63 -12,-61 -13,-56 -18,-48 -23,-44 -25,-35 -31,-28 z"
   id="path58"
   inkscape:connector-curvature="0"
   style="fill:#cc998c;stroke:none" />
         <path
   d="m 10410,14772 v -12 l -2,-13 -8,-10 -12,-5 h -13 l -10,5 -10,8 -6,10 v 12 l 3,13 8,10 12,5 h 13 l 13,-5 7,-7 z"
   id="path60"
   inkscape:connector-curvature="0"
   style="fill:#cc998c;stroke:none" />
         <path
   d="m 10276,16808 v -13 l -3,-10 -7,-10 -13,-5 h -13 l -13,3 -7,7 -5,13 v 13 l 2,12 8,8 13,5 h 12 l 10,-2 11,-8 z"
   id="path62"
   inkscape:connector-curvature="0"
   style="fill:#cc998c;stroke:none" />
         <path
   d="m 10227,16729 -10,6 -15,15 -15,18 -16,25 -17,30 -21,33 -12,34 -3,38 v 28 l -3,20 6,10 15,5 h 5 10 8 l 10,3 h 13 l 15,2 15,3 18,5 23,8 30,7 33,10 39,8 38,10 38,5 38,5 33,3 h 33 31 33 28 25 l 18,-5 13,-5 5,-8 -8,-13 -18,-12 -25,-18 -31,-15 -30,-16 -31,-15 -25,-13 -18,-10 -30,-28 -36,-33 -41,-35 -38,-33 -41,-31 -35,-25 -31,-13 z"
   id="path64"
   inkscape:connector-curvature="0"
   style="fill:#cc998c;stroke:none" />
         <path
   d="m 10253,16831 13,-5 7,-10 3,-10 v -13 l -5,-13 -11,-7 -12,-3 h -13 l -10,5 -8,10 -2,10 v 13 l 5,13 7,8 13,2 z"
   id="path66"
   inkscape:connector-curvature="0"
   style="fill:#cc998c;stroke:none" />
         <path
   d="m 10151,16790 -20,46 -18,59 -10,63 5,66 145,10 13,-7 5,2 15,3 23,7 28,8 33,5 33,8 33,5 33,2 31,3 h 35 l 36,3 h 33 33 l 25,-3 21,-5 10,-8 2,-10 -5,-13 -10,-15 -15,-15 -23,-15 -26,-16 -30,-15 -36,-15 -25,-18 -28,-23 -31,-25 -28,-26 -28,-22 -22,-21 -16,-15 -10,-8 -25,10 -28,8 -26,8 -25,2 -26,3 -25,-3 -28,-10 z"
   id="path68"
   inkscape:connector-curvature="0"
   style="fill:#000000;stroke:none" />
         <path
   d="m 10428,16877 13,-13 3,-13 -8,-15 -13,-20 -10,-31 v -40 l 3,-41 7,-36 8,-38 15,-78 23,-105 23,-119 25,-122 23,-109 18,-89 13,-51 20,-59 20,-58 18,-56 5,-53 -2,-99 2,-163 3,-173 2,-140 v -58 -66 l -5,-71 -7,-74 -16,-74 -22,-71 -34,-64 -43,-53 -53,-36 -56,-12 -56,10 -53,23 -49,40 -38,49 -28,53 -13,59 -7,124 2,127 8,117 15,97 10,45 13,59 18,63 18,67 15,61 15,55 13,41 8,23 15,30 12,33 8,28 -8,21 -15,10 -15,8 -13,10 -10,20 -8,25 -17,44 -18,58 -23,66 -20,69 -21,63 -15,54 -8,38 -7,124 -8,206 -8,193 -5,94 8,8 25,10 36,8 46,5 51,2 53,-5 54,-12 z"
   id="path70"
   inkscape:connector-curvature="0"
   style="fill:#000000;stroke:none" />
         <path
   d="m 10006,14600 -38,-13 -38,-3 -41,3 -41,13 -40,20 -33,28 -31,38 -23,46 -20,104 -3,122 8,117 10,81 8,38 13,54 17,61 18,68 21,66 17,64 13,48 10,36 15,71 16,97 12,94 6,61 -8,56 -18,86 -13,91 -5,72 3,33 7,48 8,53 13,64 15,63 18,66 20,61 21,56 33,99 17,84 11,71 7,49 10,38 16,30 12,21 13,2 13,-10 13,-18 12,-20 10,-25 8,-31 v -43 l -3,-41 -2,-38 -8,-66 -7,-104 -5,-109 2,-74 10,-51 13,-58 5,-61 v -56 l -8,-74 -10,-99 -10,-94 -5,-54 13,-68 7,-74 8,-66 -3,-46 -5,-30 -5,-33 -5,-31 v -28 l 5,-33 8,-71 15,-91 13,-110 13,-109 10,-102 7,-81 -2,-53 -13,-69 -18,-58 -20,-49 -23,-43 -23,-33 -23,-25 -23,-18 z"
   id="path72"
   inkscape:connector-curvature="0"
   style="fill:#cc998c;stroke:none" />
         <path
   d="m 9927,14772 3,-12 -5,-13 -8,-10 -10,-8 -13,-2 -10,5 -10,7 -8,11 -2,12 2,10 8,11 10,7 13,3 12,-5 11,-5 z"
   id="path74"
   inkscape:connector-curvature="0"
   style="fill:#cc998c;stroke:none" />
         <path
   d="m 10098,16938 2,-13 -2,-13 -8,-10 -10,-5 -13,-2 -13,2 -10,8 -5,10 -2,13 2,12 8,11 10,5 13,2 12,-2 11,-8 z"
   id="path76"
   inkscape:connector-curvature="0"
   style="fill:#cc998c;stroke:none" />
         <path
   d="m 10039,16785 10,3 13,5 15,10 13,15 13,16 10,15 8,18 5,15 2,28 8,25 7,26 11,20 7,18 16,28 17,33 18,38 18,36 15,33 8,22 v 13 l -5,5 -10,8 -11,5 -12,5 -16,5 -12,3 -13,2 -10,3 h -10 l -13,-3 -15,-2 -13,-5 -15,-6 -13,-7 -13,-10 -10,-10 -23,-46 -13,-49 -7,-43 -8,-25 -10,-18 -15,-25 -13,-26 -2,-20 5,-18 12,-25 13,-28 8,-26 2,-23 5,-17 8,-16 z"
   id="path78"
   inkscape:connector-curvature="0"
   style="fill:#cc998c;stroke:none" />
         <path
   d="m 10072,16958 h -12 l -11,-7 -7,-8 -5,-13 v -13 l 7,-10 8,-7 13,-5 h 12 l 11,5 7,10 5,13 v 12 l -5,10 -10,8 z"
   id="path80"
   inkscape:connector-curvature="0"
   style="fill:#cc998c;stroke:none" />
         <path
   d="m 9988,16856 -10,28 -13,31 -10,33 -5,28 5,25 10,23 11,18 5,8 23,2 2,18 8,41 10,48 18,38 10,15 18,16 18,15 22,13 23,12 26,10 23,5 22,3 36,-10 20,-26 8,-30 -2,-28 -8,-18 -15,-30 -18,-41 -23,-43 -23,-46 -18,-46 -18,-43 -10,-35 -18,17 -17,13 -18,8 -20,2 -18,-5 -21,-15 -17,-20 z"
   id="path82"
   inkscape:connector-curvature="0"
   style="fill:#000000;stroke:none" />
         <path
   d="m 9876,16907 26,10 28,16 30,15 33,18 28,15 28,10 21,8 15,2 20,-12 18,-23 13,-31 13,-28 -6,-124 6,-135 7,-122 10,-81 v -74 l -10,-109 -13,-117 -5,-104 v -82 l 3,-78 5,-92 5,-117 8,-137 10,-137 8,-125 10,-99 5,-48 5,-54 2,-63 v -66 l -7,-71 -15,-69 -26,-66 -36,-64 -22,-28 -26,-22 -28,-21 -28,-15 -33,-10 -30,-8 -33,-2 -33,2 -31,8 -31,10 -30,15 -25,21 -23,25 -21,28 -15,35 -13,39 -12,81 -8,81 3,79 5,74 10,68 13,64 12,53 13,43 13,46 12,61 13,66 15,71 11,67 10,61 7,48 3,30 10,38 13,33 10,31 -3,28 -12,20 -13,23 -10,31 -3,43 10,277 23,282 23,224 10,99 v 7 13 10 z"
   id="path84"
   inkscape:connector-curvature="0"
   style="fill:#000000;stroke:none" />
         <path
   d="m 10169,13072 h -18 l -20,3 -18,2 -18,3 -18,7 -15,8 -18,13 -15,13 -20,10 -23,12 -28,16 -28,17 -26,16 -25,15 -20,13 -16,7 -12,8 -18,5 -20,5 -23,5 -23,5 -21,10 -17,13 -16,18 -20,41 -15,43 -5,48 7,51 13,58 10,64 13,51 10,33 18,30 15,33 15,36 13,33 10,35 8,34 5,33 3,30 v 79 66 l 2,58 3,51 5,48 -3,46 -7,46 -13,43 -13,41 -10,41 -10,43 -8,51 -8,71 -7,84 -5,71 v 30 l 23,8 25,10 31,13 30,10 36,10 35,8 38,7 41,3 h 23 23 l 25,-3 h 28 l 28,-2 h 28 l 28,-3 31,-2 h 28 l 28,-3 h 28 l 25,-2 h 26 l 20,-3 h 20 18 33 l 31,-2 33,-3 28,-5 25,-3 20,-7 13,-5 5,-8 v -46 -91 l -7,-102 -13,-79 -15,-53 -16,-46 -10,-38 -5,-30 5,-54 5,-91 5,-97 3,-66 5,-51 13,-61 18,-61 15,-51 10,-38 10,-40 10,-44 10,-43 16,-46 15,-48 10,-48 8,-43 2,-46 v -51 l -5,-43 -7,-23 -8,-5 -8,-8 -12,-7 -13,-10 -15,-8 -13,-8 -13,-5 -12,-2 h -11 l -12,-5 -13,-3 -10,-8 -13,-5 -10,-7 -10,-5 -8,-5 -8,-8 -15,-8 -15,-10 -18,-13 -20,-10 -15,-7 -16,-8 -10,-3 -8,-5 -10,-7 -15,-13 -18,-13 -25,-12 -28,-13 -38,-8 z"
   id="path86"
   inkscape:connector-curvature="0"
   style="fill:#cc998c;stroke:none" />
         <path
   d="m 10169,13174 13,-3 10,-5 5,-10 2,-13 v -12 l -7,-10 -10,-8 -13,-3 -13,3 -10,8 -8,10 -2,12 2,13 8,10 10,5 z"
   id="path88"
   inkscape:connector-curvature="0"
   style="fill:#cc998c;stroke:none" />
         <path
   d="m 9734,13443 h 13 l 10,-7 5,-10 3,-13 v -13 l -8,-10 -10,-8 -13,-2 -13,2 -10,8 -7,10 -3,13 3,13 7,10 10,5 z"
   id="path90"
   inkscape:connector-curvature="0"
   style="fill:#cc998c;stroke:none" />
         <path
   d="m 10604,13448 h 12 l 11,-7 7,-10 3,-13 -3,-13 -7,-10 -11,-8 -10,-2 -12,2 -11,8 -5,10 -2,13 2,13 5,10 11,5 z"
   id="path92"
   inkscape:connector-curvature="0"
   style="fill:#cc998c;stroke:none" />
         <path
   d="m 9897,14793 12,-3 11,-7 5,-11 2,-12 -2,-13 -5,-10 -11,-5 -12,-3 h -13 l -10,8 -8,10 -2,13 2,12 8,11 10,7 z"
   id="path94"
   inkscape:connector-curvature="0"
   style="fill:#cc998c;stroke:none" />
         <path
   d="m 10380,14795 13,-2 10,-5 7,-10 3,-13 -3,-13 -7,-10 -10,-8 -13,-2 -13,2 -10,5 -8,11 -2,12 2,13 8,10 10,8 z"
   id="path96"
   inkscape:connector-curvature="0"
   style="fill:#cc998c;stroke:none" />
         <path
   d="m 9711,14381 -13,122 -15,150 -15,142 -5,105 -5,86 -8,91 -5,72 8,30 h 12 l 33,3 46,2 61,3 69,2 79,5 84,3 86,2 89,3 87,3 h 81 l 76,-3 69,-3 56,-5 43,-5 28,-10 v -86 l -8,-155 -12,-160 -16,-112 -10,-99 -7,-135 -5,-130 v -81 l 5,-31 5,-45 10,-59 13,-66 15,-68 15,-72 15,-66 16,-61 17,-58 18,-59 21,-61 17,-61 16,-55 7,-51 -2,-43 -10,-34 -16,-25 -17,-23 -18,-20 -23,-15 -28,-13 -36,-10 -45,-8 -59,-8 -15,-5 -26,-12 -30,-16 -33,-17 -31,-18 -28,-15 -18,-11 -7,-5 25,160 18,186 8,198 v 198 l -3,186 -5,163 -2,124 -3,74 h -10 -26 -38 l -46,-3 h -48 l -46,-2 -40,-3 -31,-2 -5,-277 -13,-204 -15,-150 -18,-122 -10,-61 -10,-68 -8,-76 -7,-79 -3,-82 5,-83 15,-79 28,-76 -15,7 -7,10 -8,13 -8,15 -5,10 -12,11 -13,12 -15,13 -16,13 -18,12 -12,11 -13,7 -15,8 -26,8 -30,10 -33,12 -36,13 -30,10 -28,10 -18,11 -15,7 -21,8 -20,7 -20,8 -18,8 -18,7 -10,11 -5,10 2,86 13,102 25,117 28,117 31,116 28,102 18,84 7,58 v 84 l -2,79 -5,71 z"
   id="path98"
   inkscape:connector-curvature="0"
   style="fill:#000000;stroke:none" />
         <path
   d="m 10800,14160 15,-20 23,-31 28,-41 30,-43 31,-45 28,-46 25,-43 20,-33 16,-31 15,-30 15,-33 16,-34 12,-30 13,-28 13,-25 7,-18 13,-41 13,-53 10,-51 8,-33 2,-20 -8,-16 -10,-10 -12,-7 -11,-6 -12,3 -18,15 -23,36 -18,28 -23,35 -30,38 -31,41 -35,43 -38,38 -36,39 -33,33 -28,-77 -10,-76 -3,-71 5,-74 v -35 l -2,-31 -10,-30 -11,-26 -15,-23 -15,-17 -13,-13 -15,-10 -31,-13 -28,-8 -30,-2 -28,5 -28,10 -26,18 -22,23 -21,30 -18,64 v 68 l 16,64 18,46 15,30 10,28 5,23 3,20 5,39 12,66 13,68 13,54 13,43 15,53 18,54 10,38 5,12 10,21 13,20 15,20 15,21 18,17 13,11 10,2 18,-5 18,-10 15,-13 z"
   id="path100"
   inkscape:connector-curvature="0"
   style="fill:#cc998c;stroke:none" />
         <path
   d="m 10632,13433 5,-13 -3,-12 -5,-10 -10,-8 -10,-5 -13,2 -10,5 -8,11 -2,12 v 13 l 5,10 8,8 12,2 h 13 l 10,-5 z"
   id="path102"
   inkscape:connector-curvature="0"
   style="fill:#cc998c;stroke:none" />
         <path
   d="m 11140,13461 3,-13 v -12 l -5,-10 -10,-8 -13,-5 h -13 l -10,7 -8,11 -5,12 v 10 l 8,11 10,10 13,2 h 10 l 13,-5 z"
   id="path104"
   inkscape:connector-curvature="0"
   style="fill:#cc998c;stroke:none" />
         <path
   d="m 10616,14081 13,21 13,22 13,21 12,20 16,18 10,15 10,10 8,5 7,3 h 10 l 13,2 13,-2 13,-3 15,-2 13,-5 10,-8 17,-23 21,-33 20,-30 15,-23 11,-13 17,-20 21,-26 23,-28 20,-28 20,-27 16,-23 10,-18 10,-23 23,-43 25,-51 26,-56 25,-56 20,-48 8,-36 -2,-15 -13,-5 -21,-8 -22,-10 -26,-13 -25,-15 -23,-20 -23,-23 -18,-25 -13,12 -15,18 -15,15 -13,18 -15,18 -10,18 -13,15 -8,13 -17,22 -16,21 -15,18 -5,15 -5,10 -8,-3 -7,-12 -5,-28 v -41 -46 l -3,-40 v -28 -33 l -5,-33 -8,-38 -12,-36 -21,-33 -23,-28 -33,-23 -40,-15 -41,-5 -36,5 -33,13 -30,20 -23,25 -18,36 -10,41 -5,45 v 23 l 5,49 10,66 20,78 13,49 15,58 18,69 15,68 18,66 16,59 15,48 z"
   id="path106"
   inkscape:connector-curvature="0"
   style="fill:#000000;stroke:none" />
         <path
   d="m 11555,13215 v -41 l -13,-3 -5,-10 3,-15 17,-13 h 21 l 10,10 v 16 l -10,10 v 43 l -5,5 -8,3 h -5 z"
   id="path108"
   inkscape:connector-curvature="0"
   style="fill:#000000;stroke:none" />
         <path
   d="m 11652,13237 v -40 l -13,-3 -5,-10 2,-15 18,-10 h 20 l 11,10 v 13 l -11,12 v 43 l -5,6 h -5 -7 z"
   id="path110"
   inkscape:connector-curvature="0"
   style="fill:#000000;stroke:none" />
         <path
   d="m 10759,13032 -38,-3 -43,-3 -46,-2 -46,2 -46,8 -40,13 -36,20 -23,28 -20,20 -18,21 -18,20 -13,15 -7,18 -3,15 5,16 16,12 2,44 13,43 20,30 33,18 21,3 20,2 20,3 21,2 h 20 l 20,3 h 21 22 l 8,-15 20,-16 28,-7 33,-5 31,2 25,8 18,12 8,21 43,2 41,3 38,-3 41,-5 35,-15 36,-23 35,-33 34,-46 22,-51 11,-43 -6,-38 -17,-30 -28,-26 -41,-18 -48,-12 -59,-5 -18,20 -28,15 -33,13 -33,5 -30,-3 -23,-10 -8,-17 z"
   id="path112"
   inkscape:connector-curvature="0"
   style="fill:#a53a00;stroke:none" />
         <path
   d="m 10746,12983 -38,-2 -43,-3 -46,-2 -46,2 -46,8 -40,13 -36,20 -23,28 -20,20 -18,20 -18,18 -12,18 -8,18 -3,15 6,15 15,13 2,43 11,41 20,33 33,15 20,3 21,5 20,2 h 20 l 21,3 23,2 h 20 23 l 7,-17 21,-13 28,-8 33,-5 30,3 26,7 18,13 5,20 43,3 41,3 40,-3 38,-8 39,-12 35,-23 33,-36 33,-46 26,-50 7,-44 -2,-38 -18,-30 -31,-23 -38,-18 -48,-13 -59,-5 -17,21 -28,15 -33,13 -33,5 -31,-3 -23,-10 -7,-18 z"
   id="path114"
   inkscape:connector-curvature="0"
   style="fill:#cc8e66;stroke:none" />
         <path
   d="m 10955,13121 28,2 h 33 l 35,3 44,5 43,2 46,5 45,3 46,5 46,5 41,3 40,5 36,2 30,5 26,3 h 20 l 10,2 13,5 10,11 10,12 13,16 13,10 18,5 23,-3 30,-12 13,-21 15,-12 h 18 l 15,7 13,20 7,31 v 33 l -2,23 -3,8 -5,10 -7,10 -11,7 -15,3 -15,-3 -20,-7 -21,-20 -20,-16 -18,-10 -15,-10 -13,-8 -13,-5 -12,-5 -10,-2 -16,-3 h -10 -18 l -25,-2 h -28 -33 l -36,-3 h -35 -39 l -38,-3 h -35 -33 l -28,-2 h -26 -20 -10 -5 l -18,-33 -145,-13 z"
   id="path116"
   inkscape:connector-curvature="0"
   style="fill:#931100;stroke:none" />
         <path
   d="m 10535,13192 -18,-49 v -10 l 5,-23 11,-25 15,-18 7,5 8,13 3,13 2,5 z"
   id="path118"
   inkscape:connector-curvature="0"
   style="fill:#d8d8d8;stroke:none" />
         <path
   d="m 10428,13047 -20,20 -18,20 -18,18 -12,18 -8,18 -3,15 6,15 15,13 h 13 12 l 13,-5 13,-8 10,-10 7,-13 6,-15 2,-20 v -36 -23 l -5,-10 z"
   id="path120"
   inkscape:connector-curvature="0"
   style="fill:#000000;stroke:none" />
         <path
   d="m 11555,13245 v 38 l -13,3 -5,12 3,16 17,10 h 21 l 10,-10 v -13 l -10,-13 v -43 l -5,-5 h -8 -5 z"
   id="path122"
   inkscape:connector-curvature="0"
   style="fill:#000000;stroke:none" />
         <path
   d="m 11652,13281 v 40 l -13,3 -5,10 2,15 18,10 h 20 l 11,-10 v -12 l -11,-13 v -43 l -5,-3 -5,-2 h -7 z"
   id="path124"
   inkscape:connector-curvature="0"
   style="fill:#000000;stroke:none" />
         <path
   d="m 10469,12505 23,16 23,20 20,25 20,26 16,30 10,31 8,30 v 31 l -8,35 -15,39 -11,35 -5,28 3,26 5,25 5,23 5,13 5,15 3,10 -8,10 -10,3 h -15 -13 l -10,2 -3,10 3,13 v 10 l -5,8 -13,5 3,8 -3,7 -2,5 -8,3 -10,5 -5,8 -3,10 v 7 10 l -5,13 -5,10 -10,11 -16,7 -15,5 -20,-2 -23,-10 -10,-8 -15,-5 -11,-5 -7,2 -16,23 -17,26 -23,28 -26,27 -25,26 -31,23 -28,18 -28,7 h -28 l -25,-7 -25,-13 -21,-18 -15,-20 -10,-23 -3,-20 3,-23 10,-23 10,-31 13,-30 13,-33 10,-31 10,-25 10,-21 5,-12 10,-46 -2,-56 -10,-58 -10,-44 -3,-20 3,-28 5,-33 12,-35 13,-36 18,-33 23,-28 23,-23 33,-23 33,-15 30,-13 33,-5 h 33 l 36,8 41,15 z"
   id="path126"
   inkscape:connector-curvature="0"
   style="fill:#cc998c;stroke:none" />
         <path
   d="m 10159,13174 12,2 11,-5 10,-7 7,-10 3,-13 -5,-13 -8,-10 -10,-5 -13,-3 -10,3 -10,8 -8,10 -2,12 5,13 8,10 z"
   id="path128"
   inkscape:connector-curvature="0"
   style="fill:#cc998c;stroke:none" />
         <path
   d="m 10184,12694 13,2 10,-5 10,-8 8,-10 2,-12 -5,-13 -7,-10 -11,-5 -12,-3 -10,3 -11,7 -7,10 -3,13 5,13 8,10 z"
   id="path130"
   inkscape:connector-curvature="0"
   style="fill:#cc998c;stroke:none" />
         <path
   d="m 10533,12833 5,-7 2,-8 -5,-8 -10,-7 -18,-3 h -18 l -20,3 -15,2 h -8 l -2,3 5,5 h 12 18 l 15,3 16,2 h 7 l 5,3 5,2 v 3 5 2 3 h 3 z"
   id="path132"
   inkscape:connector-curvature="0"
   style="fill:#000000;stroke:none" />
         <path
   d="m 10510,12861 h 2 l 3,-2 5,-3 2,-2 3,-3 v -2 h -3 -5 l -10,2 -15,-2 h -15 l -13,-5 -5,-3 v 0 l -3,3 3,2 5,3 10,5 8,5 7,2 5,3 6,5 2,2 v 6 l 3,2 v 0 h 2 v -2 l -2,-3 v -3 -2 -3 -2 h 2 v -3 z"
   id="path134"
   inkscape:connector-curvature="0"
   style="fill:#000000;stroke:none" />
         <path
   d="m 10502,13024 -10,-3 -8,-2 -10,-3 -10,-5 v -2 0 h -3 -2 l -3,2 h -2 -5 v 0 3 2 h 2 l 8,-2 5,5 8,2 10,3 5,2 h 5 5 3 l 2,3 v -3 0 z"
   id="path136"
   inkscape:connector-curvature="0"
   style="fill:#000000;stroke:none" />
         <path
   d="m 10627,12719 12,-5 11,-18 7,-18 3,-20 -3,-25 -7,-33 -11,-34 -17,-25 -11,-8 -12,-7 -16,-5 -15,-8 -18,-5 -15,-5 -15,-5 -13,-5 -15,-8 -20,-10 -26,-13 -25,-15 -28,-13 -26,-10 -23,-5 -17,-2 -26,2 h -18 l -15,3 -13,5 -10,7 -20,13 -23,18 -31,20 -28,23 -25,20 -20,21 -10,15 -21,74 -13,94 -5,84 8,45 13,21 15,28 13,25 12,13 8,2 h 10 13 18 l 18,-2 20,-5 18,-8 20,-10 -18,-23 -7,-33 -3,-33 5,-28 28,-3 18,5 13,6 12,7 16,-10 17,-13 18,-7 13,-5 13,-5 12,-8 16,-8 10,-12 7,-8 11,-10 12,-13 13,-10 13,-8 15,-7 13,-3 h 10 l 10,3 15,5 16,5 15,2 18,5 12,3 13,3 h 10 l 13,-3 h 5 3 z"
   id="path138"
   inkscape:connector-curvature="0"
   style="fill:#7f0000;stroke:none" />
         <path
   d="m 10182,12691 12,3 10,-3 11,-5 7,-10 3,-13 -3,-13 -5,-10 -10,-7 -13,-3 -12,3 -11,5 -7,10 -3,13 3,12 7,10 z"
   id="path140"
   inkscape:connector-curvature="0"
   style="fill:#7f0000;stroke:none" />
         <path
   d="m 10436,12965 -10,6 -5,7 2,8 13,5 20,5 21,8 15,10 10,10 5,5 h 8 l 5,-5 5,-10 5,-13 v -15 l -5,-10 -10,-8 -8,-3 -7,-2 h -11 -10 -10 -13 -10 z"
   id="path142"
   inkscape:connector-curvature="0"
   style="fill:#7f0000;stroke:none" />
         <path
   d="m 10342,13110 25,160 18,186 8,198 v 198 l -3,186 -5,163 -2,124 -3,74 h -10 -26 -38 l -46,-3 h -48 l -46,-2 -40,-3 -31,-2 -5,-277 -13,-204 -15,-150 -18,-122 -10,-61 -10,-68 -8,-76 -7,-79 -3,-82 5,-83 15,-79 28,-76 28,40 23,33 21,23 20,15 15,13 13,8 13,2 10,5 18,3 h 15 l 13,-8 12,-10 8,-8 10,-7 13,-10 13,-8 12,-8 13,-5 10,-2 z"
   id="path144"
   inkscape:connector-curvature="0"
   style="fill:#ffffff;stroke:none" />
         <path
   d="m 10385,14203 -2,66 v 56 l -3,43 v 31 h -10 -26 -38 l -46,-3 h -48 l -46,-2 -40,-3 -31,-2 v -51 -51 l -2,-46 v -45 l 33,2 40,3 46,2 43,3 h 44 38 30 z"
   id="path146"
   inkscape:connector-curvature="0"
   style="fill:#99007f;stroke:none" />
         <path
   d="m 10204,13197 -12,-3 -15,-5 -21,-5 -20,-5 -21,-5 -15,-5 h -12 -8 l -3,18 3,35 2,41 v 28 l 3,10 10,3 10,-3 10,-5 6,-5 12,-5 13,-8 15,-10 13,-8 13,-7 12,-5 5,-3 h 11 10 10 3 l 2,3 10,10 13,12 13,13 15,13 13,13 10,7 h 5 l 2,-23 v -43 l -2,-48 -5,-26 -10,-2 -21,8 -20,7 -13,5 h -7 -13 -13 z"
   id="path148"
   inkscape:connector-curvature="0"
   style="fill:#99007f;stroke:none" />
         <path
   d="m 10187,13990 23,7 63,-76 38,-2 8,-11 20,-33 36,-48 43,-66 51,-79 61,-86 64,-97 66,-101 66,-102 69,-104 63,-99 61,-97 54,-86 45,-77 36,-63 25,-48 -17,7 -13,15 -10,13 -11,10 -7,8 -10,8 -8,5 -10,5 -10,5 -10,5 -8,13 -10,15 -13,20 -8,13 -17,30 -28,41 -36,56 -41,66 -45,74 -54,81 -56,86 -58,92 -61,94 -61,91 -61,94 -61,89 -59,84 -56,79 z"
   id="path150"
   inkscape:connector-curvature="0"
   style="fill:#931100;stroke:none" />
         <path
   d="m 10057,13741 -10,12 -3,13 3,13 10,15 8,10 10,13 13,15 12,15 13,16 13,12 10,11 7,2 h 11 l 15,5 23,5 25,5 26,8 25,5 20,8 13,7 10,8 13,10 13,13 15,10 13,13 12,12 11,11 10,7 12,15 13,11 10,7 11,-2 5,-13 -5,-25 -11,-26 -10,-25 -13,-21 -12,-17 -15,-18 -13,-15 -10,-18 -11,-21 -12,-17 -10,-13 -8,-3 -15,-5 -23,-5 -23,-7 -26,-6 -20,-5 -18,-5 -12,-5 -11,-5 -12,-7 -18,-11 -18,-10 -18,-5 -17,-5 h -18 z"
   id="path152"
   inkscape:connector-curvature="0"
   style="fill:#cc998c;stroke:none" />
         <path
   d="m 10110,13799 8,-10 3,-13 -3,-12 -5,-11 -10,-7 -13,-3 h -13 l -10,8 -7,10 -3,13 v 12 l 8,11 10,7 13,3 12,-3 z"
   id="path154"
   inkscape:connector-curvature="0"
   style="fill:#cc998c;stroke:none" />
         <path
   d="m 9373,14091 25,-5 41,-7 46,-11 53,-12 54,-13 50,-13 46,-12 38,-13 33,-13 34,-12 33,-16 33,-12 33,-16 28,-12 23,-11 17,-7 18,-8 21,-12 22,-16 23,-15 21,-18 20,-12 15,-13 13,-8 15,-13 5,-12 v -15 l -2,-16 -5,-5 -5,-2 -11,-3 -12,-2 h -13 -13 l -12,2 -11,3 -30,10 -41,7 -48,11 -51,7 -56,8 -53,5 -51,2 h -49 l 16,-38 15,-35 20,-33 23,-31 23,-28 26,-25 25,-26 28,-25 23,-25 20,-28 13,-26 7,-28 6,-25 2,-23 -2,-20 -3,-16 -13,-30 -17,-25 -21,-23 -25,-18 -28,-10 -31,-5 -33,2 -35,8 -28,15 -28,18 -23,25 -23,28 -18,28 -15,28 -10,26 -8,20 -10,35 -10,26 -13,20 -13,15 -7,13 -16,20 -15,26 -18,30 -20,31 -18,30 -15,26 -10,20 -8,20 -13,23 -10,26 -13,25 -12,26 -10,22 -11,21 -7,15 -10,36 -8,50 -3,49 8,28 8,5 10,2 10,3 8,2 h 10 10 13 z"
   id="path156"
   inkscape:connector-curvature="0"
   style="fill:#cc998c;stroke:none" />
         <path
   d="m 9744,13443 10,-7 8,-10 5,-11 -2,-12 -6,-11 -10,-7 -12,-5 -13,2 -10,5 -8,11 -5,12 3,13 5,10 10,8 12,2 z"
   id="path158"
   inkscape:connector-curvature="0"
   style="fill:#cc998c;stroke:none" />
         <path
   d="m 10098,13804 10,-5 7,-10 6,-13 -3,-12 -5,-11 -10,-7 -13,-3 -13,3 -10,5 -7,10 -3,13 v 12 l 8,11 10,7 10,3 z"
   id="path160"
   inkscape:connector-curvature="0"
   style="fill:#cc998c;stroke:none" />
         <path
   d="m 9569,13314 -18,63 -15,59 -16,48 -17,20 -18,5 -13,11 -8,15 -10,18 -12,25 -21,48 -30,64 -31,71 -33,74 -28,68 -20,54 -8,33 -2,45 2,46 13,38 30,16 61,-3 61,-5 59,-8 56,-10 56,-13 51,-15 48,-15 43,-18 44,-15 35,-15 33,-16 31,-12 25,-13 18,-10 15,-8 10,-2 -10,-64 -7,-56 v -48 l 12,-41 -23,3 -28,2 -30,3 -33,2 -33,3 -28,3 h -26 l -15,2 -10,-2 5,-13 13,-21 5,-17 2,-10 5,-16 13,-18 15,-20 16,-18 17,-17 16,-16 12,-10 16,-13 18,-20 20,-25 20,-31 15,-33 13,-35 3,-33 -5,-31 -13,-30 -20,-31 -21,-28 -28,-23 -33,-15 -35,-10 h -39 l -45,13 -41,17 -33,13 -26,10 -17,8 -13,7 -8,6 -5,5 z"
   id="path162"
   inkscape:connector-curvature="0"
   style="fill:#000000;stroke:none" />
         <path
   d="m 9960,13957 -10,-64 -7,-56 v -48 l 12,-41 82,-7 -3,7 v 28 l 8,56 20,97 h -2 l -6,5 -10,2 -12,5 -16,8 -15,3 -20,5 z"
   id="path164"
   inkscape:connector-curvature="0"
   style="fill:#ffffff;stroke:none" />
         <path
   d="m 11115,13489 -18,-2 -15,-11 -10,-15 -5,-18 v -25 -33 l 2,-33 v -31 -30 -41 -35 l -2,-23 -3,-18 -2,-20 5,-16 17,-7 18,2 26,8 30,7 33,13 31,13 28,13 20,10 10,10 8,15 2,15 -2,16 -8,17 -7,13 -13,21 -15,27 -21,31 -18,30 -17,26 -13,20 -8,13 -10,13 -13,10 -15,10 z"
   id="path166"
   inkscape:connector-curvature="0"
   style="fill:#cc998c;stroke:none" />
         <path
   d="m 11110,13413 13,2 10,5 7,11 3,12 -3,13 -5,10 -10,8 -13,2 h -12 l -10,-7 -8,-10 -3,-13 3,-13 5,-10 10,-8 z"
   id="path168"
   inkscape:connector-curvature="0"
   style="fill:#cc998c;stroke:none" />
         <path
   d="m 11135,13570 -18,-5 -17,-7 -21,-11 -23,-10 -20,-15 -20,-15 -18,-20 -15,-21 15,-23 15,-20 15,-20 11,-16 7,-7 8,-3 h 8 l 7,8 8,5 13,10 15,13 18,13 17,10 16,12 12,8 8,3 3,2 2,5 -2,3 -3,5 -5,15 -13,28 -13,30 z"
   id="path170"
   inkscape:connector-curvature="0"
   style="fill:#ffffff;stroke:none" />
        </g>
       </g>
      </g>
     </g>
    </g>
   </g>
  </g>
 </g>
</svg>