<?xml version="1.0" encoding="UTF-8" standalone="no"?>
<svg
   xmlns:ooo="http://xml.openoffice.org/svg/export"
   xmlns:dc="http://purl.org/dc/elements/1.1/"
   xmlns:cc="http://creativecommons.org/ns#"
   xmlns:rdf="http://www.w3.org/1999/02/22-rdf-syntax-ns#"
   xmlns:svg="http://www.w3.org/2000/svg"
   xmlns="http://www.w3.org/2000/svg"
   xmlns:sodipodi="http://sodipodi.sourceforge.net/DTD/sodipodi-0.dtd"
   xmlns:inkscape="http://www.inkscape.org/namespaces/inkscape"
   version="1.2"
   width="31.67mm"
   height="54.150002mm"
   viewBox="0 0 3167 5415.0002"
   preserveAspectRatio="xMidYMid"
   xml:space="preserve"
   id="svg115"
   sodipodi:docname="waiter4.svg"
   style="fill-rule:evenodd;stroke-width:28.22200012;stroke-linejoin:round"
   inkscape:version="0.92.5 (2060ec1f9f, 2020-04-08)"><metadata
   id="metadata119"><rdf:RDF><cc:Work
       rdf:about=""><dc:format>image/svg+xml</dc:format><dc:type
         rdf:resource="http://purl.org/dc/dcmitype/StillImage" /></cc:Work></rdf:RDF></metadata><sodipodi:namedview
   pagecolor="#ffffff"
   bordercolor="#666666"
   borderopacity="1"
   objecttolerance="10"
   gridtolerance="10"
   guidetolerance="10"
   inkscape:pageopacity="0"
   inkscape:pageshadow="2"
   inkscape:window-width="664"
   inkscape:window-height="487"
   id="namedview117"
   showgrid="false"
   inkscape:zoom="0.2102413"
   inkscape:cx="59.867717"
   inkscape:cy="102.31181"
   inkscape:window-x="0"
   inkscape:window-y="0"
   inkscape:window-maximized="0"
   inkscape:current-layer="svg115" />
 <defs
   class="ClipPathGroup"
   id="defs8">
  <clipPath
   id="presentation_clip_path"
   clipPathUnits="userSpaceOnUse">
   <rect
   x="0"
   y="0"
   width="21000"
   height="29700"
   id="rect2" />
  </clipPath>
  <clipPath
   id="presentation_clip_path_shrink"
   clipPathUnits="userSpaceOnUse">
   <rect
   x="21"
   y="29"
   width="20958"
   height="29641"
   id="rect5" />
  </clipPath>
 </defs>
 <defs
   class="TextShapeIndex"
   id="defs12">
  <g
   ooo:slide="id1"
   ooo:id-list="id3"
   id="g10" />
 </defs>
 <defs
   class="EmbeddedBulletChars"
   id="defs44">
  <g
   id="bullet-char-template-57356"
   transform="matrix(4.8828125e-4,0,0,-4.8828125e-4,0,0)">
   <path
   d="M 580,1141 1163,571 580,0 -4,571 Z"
   id="path14"
   inkscape:connector-curvature="0" />
  </g>
  <g
   id="bullet-char-template-57354"
   transform="matrix(4.8828125e-4,0,0,-4.8828125e-4,0,0)">
   <path
   d="M 8,1128 H 1137 V 0 H 8 Z"
   id="path17"
   inkscape:connector-curvature="0" />
  </g>
  <g
   id="bullet-char-template-10146"
   transform="matrix(4.8828125e-4,0,0,-4.8828125e-4,0,0)">
   <path
   d="M 174,0 602,739 174,1481 1456,739 Z M 1358,739 309,1346 659,739 Z"
   id="path20"
   inkscape:connector-curvature="0" />
  </g>
  <g
   id="bullet-char-template-10132"
   transform="matrix(4.8828125e-4,0,0,-4.8828125e-4,0,0)">
   <path
   d="M 2015,739 1276,0 H 717 l 543,543 H 174 v 393 h 1086 l -543,545 h 557 z"
   id="path23"
   inkscape:connector-curvature="0" />
  </g>
  <g
   id="bullet-char-template-10007"
   transform="matrix(4.8828125e-4,0,0,-4.8828125e-4,0,0)">
   <path
   d="m 0,-2 c -7,16 -16,29 -25,39 l 381,530 c -94,256 -141,385 -141,387 0,25 13,38 40,38 9,0 21,-2 34,-5 21,4 42,12 65,25 l 27,-13 111,-251 280,301 64,-25 24,25 c 21,-10 41,-24 62,-43 C 886,937 835,863 770,784 769,783 710,716 594,584 L 774,223 c 0,-27 -21,-55 -63,-84 l 16,-20 C 717,90 699,76 672,76 641,76 570,178 457,381 L 164,-76 c -22,-34 -53,-51 -92,-51 -42,0 -63,17 -64,51 -7,9 -10,24 -10,44 0,9 1,19 2,30 z"
   id="path26"
   inkscape:connector-curvature="0" />
  </g>
  <g
   id="bullet-char-template-10004"
   transform="matrix(4.8828125e-4,0,0,-4.8828125e-4,0,0)">
   <path
   d="M 285,-33 C 182,-33 111,30 74,156 52,228 41,333 41,471 c 0,78 14,145 41,201 34,71 87,106 158,106 53,0 88,-31 106,-94 l 23,-176 c 8,-64 28,-97 59,-98 l 735,706 c 11,11 33,17 66,17 42,0 63,-15 63,-46 V 965 c 0,-36 -10,-64 -30,-84 L 442,47 C 390,-6 338,-33 285,-33 Z"
   id="path29"
   inkscape:connector-curvature="0" />
  </g>
  <g
   id="bullet-char-template-9679"
   transform="matrix(4.8828125e-4,0,0,-4.8828125e-4,0,0)">
   <path
   d="M 813,0 C 632,0 489,54 383,161 276,268 223,411 223,592 c 0,181 53,324 160,431 106,107 249,161 430,161 179,0 323,-54 432,-161 108,-107 162,-251 162,-431 0,-180 -54,-324 -162,-431 C 1136,54 992,0 813,0 Z"
   id="path32"
   inkscape:connector-curvature="0" />
  </g>
  <g
   id="bullet-char-template-8226"
   transform="matrix(4.8828125e-4,0,0,-4.8828125e-4,0,0)">
   <path
   d="m 346,457 c -73,0 -137,26 -191,78 -54,51 -81,114 -81,188 0,73 27,136 81,188 54,52 118,78 191,78 73,0 134,-26 185,-79 51,-51 77,-114 77,-187 0,-75 -25,-137 -76,-188 -50,-52 -112,-78 -186,-78 z"
   id="path35"
   inkscape:connector-curvature="0" />
  </g>
  <g
   id="bullet-char-template-8211"
   transform="matrix(4.8828125e-4,0,0,-4.8828125e-4,0,0)">
   <path
   d="M -4,459 H 1135 V 606 H -4 Z"
   id="path38"
   inkscape:connector-curvature="0" />
  </g>
  <g
   id="bullet-char-template-61548"
   transform="matrix(4.8828125e-4,0,0,-4.8828125e-4,0,0)">
   <path
   d="m 173,740 c 0,163 58,303 173,419 116,115 255,173 419,173 163,0 302,-58 418,-173 116,-116 174,-256 174,-419 0,-163 -58,-303 -174,-418 C 1067,206 928,148 765,148 601,148 462,206 346,322 231,437 173,577 173,740 Z"
   id="path41"
   inkscape:connector-curvature="0" />
  </g>
 </defs>
 <g
   id="g49"
   transform="translate(-8916,-12142)">
  <g
   id="id2"
   class="Master_Slide">
   <g
   id="bg-id2"
   class="Background" />
   <g
   id="bo-id2"
   class="BackgroundObjects" />
  </g>
 </g>
 <g
   class="SlideGroup"
   id="g113"
   transform="translate(-8916,-12142)">
  <g
   id="g111">
   <g
   id="container-id1">
    <g
   id="id1"
   class="Slide"
   clip-path="url(#presentation_clip_path)">
     <g
   class="Page"
   id="g107">
      <g
   class="Graphic"
   id="g105">
       <g
   id="id3">
        <rect
   class="BoundingBox"
   x="8916"
   y="12142"
   width="3167"
   height="5415"
   id="rect51"
   style="fill:none;stroke:none" />
        <defs
   id="defs56">
         <clipPath
   id="clip_path_1"
   clipPathUnits="userSpaceOnUse">
          <path
   d="m 8916,12142 h 3166 v 5414 H 8916 Z"
   id="path53"
   inkscape:connector-curvature="0" />
         </clipPath>
        </defs>
        <g
   clip-path="url(#clip_path_1)"
   id="g102">
         <path
   d="m 10169,14027 -8,6 -10,7 -12,8 -11,7 -12,11 -13,10 -13,10 -10,8 -18,7 -15,8 -13,10 -10,8 -7,7 -6,10 v 11 l 8,7 15,5 h 18 l 18,-2 15,-3 18,-5 18,-10 20,-10 15,-8 3,10 v 8 8 7 l -10,15 -18,21 -23,23 -18,17 -12,11 -8,10 -10,7 -13,5 h -10 -13 -10 -13 -12 -11 l -10,-2 -7,-3 -3,16 -10,20 -10,15 -13,8 h -13 -12 l -13,-3 -13,-7 -7,5 -8,7 -8,5 -7,3 -16,-3 -17,-2 -13,-3 -5,-5 5,-7 5,-8 5,-8 5,-10 -7,3 -11,2 -12,3 -10,2 -13,3 -10,2 h -8 -5 l -13,-10 -18,-15 -15,-15 -2,-10 7,-5 5,-3 5,-3 h 6 l -16,-5 -15,-7 -13,-10 -7,-16 -5,-23 -3,-25 v -23 l 5,-13 5,-10 8,-12 8,-11 7,-5 10,-5 18,-7 23,-13 28,-13 30,-12 26,-13 23,-8 18,-5 h 17 26 30 l 33,3 33,2 h 31 l 25,3 18,2 h 15 l 13,3 h 15 l 13,2 h 10 l 10,3 h 10 z"
   id="path58"
   inkscape:connector-curvature="0"
   style="fill:#000000;stroke:none" />
         <path
   d="m 10799,12599 6,-5 2,-7 5,-5 3,-8 -5,-8 -8,-10 -5,-15 -3,-23 3,-5 v -3 l 2,-5 v -7 l -7,-8 -5,-10 v -10 -5 l 2,-3 h 8 l 8,3 h 5 l 5,-21 7,-25 10,-25 13,-28 15,-26 18,-25 15,-21 18,-15 5,-2 3,-5 5,-3 8,-2 2,2 3,3 5,5 h 2 l 8,-5 8,-5 12,-8 13,-5 13,-8 12,-5 8,-5 8,-3 12,-2 h 13 l 13,5 7,3 8,5 10,5 10,2 h 8 l 10,3 15,5 18,5 13,5 10,10 8,15 7,16 3,15 v 10 l -8,10 -7,8 -8,8 3,7 2,8 5,10 v 8 h -5 l -2,2 -6,3 -5,2 5,15 3,23 v 21 17 l 3,13 5,13 2,10 3,10 v 10 13 l -3,13 v 12 11 l 3,10 5,10 5,8 5,-8 15,-8 15,-10 8,-5 3,-2 v -3 -3 l 2,-2 3,-3 5,-5 5,-2 5,-3 10,-2 h 15 l 13,2 h 10 l 5,3 5,10 3,10 2,10 3,13 v 18 18 l -3,20 8,23 v 33 l -2,35 -6,31 11,10 17,15 18,15 15,13 -2,5 -3,5 -2,5 -3,5 3,13 2,13 v 10 l -2,8 -8,5 -10,7 -18,11 -18,10 -20,12 -20,13 -15,8 -13,7 -13,5 -15,11 -20,10 -23,13 -21,12 -20,10 -18,8 -12,5 -13,3 -15,2 -16,5 -20,3 -18,5 -20,7 -15,6 -16,7 -7,-5 -5,-2 -8,-6 -5,-5 -13,-15 -10,-18 -10,-20 -5,-13 h -26 l -17,-5 -16,-5 -7,-7 -5,-8 -8,-15 -3,-16 v -17 l 6,-18 5,-18 2,-10 -2,-8 -5,-5 -6,-2 -7,-3 h -5 v -10 l 2,-13 10,-12 13,-11 -5,-5 -5,-5 -5,-2 -8,-3 -7,3 -8,2 -5,3 -5,2 -5,-7 -3,-10 -2,-11 -3,-7 5,-13 8,-8 5,-5 8,-5 -18,-5 -15,-5 -16,-8 -10,-7 -7,-10 -3,-13 5,-10 8,-8 10,-7 7,-13 8,-10 3,-10 5,-8 2,-8 5,-10 3,-8 z"
   id="path60"
   inkscape:connector-curvature="0"
   style="fill:#000000;stroke:none" />
         <path
   d="m 10957,17288 15,56 10,61 3,58 -3,53 -22,5 -28,3 -33,5 -36,3 -36,5 -30,2 -26,3 -15,2 -2,-10 v -7 -8 l -3,-10 h -15 -15 l -16,2 -17,3 -16,2 -12,5 -11,3 -10,5 -10,3 -13,5 -15,5 -18,2 -20,5 -18,3 h -20 -20 l -26,-5 -35,-5 -44,-5 -45,-8 -44,-8 -38,-5 -30,-5 -18,-5 -20,-2 -13,-5 -8,-6 -2,-7 5,-8 5,-7 8,-3 h 7 l 5,-15 8,-15 18,-13 30,-10 18,-5 20,-5 21,-6 17,-5 18,-5 15,-5 11,-2 7,-3 13,-7 18,-13 20,-13 15,-8 13,-5 18,-10 15,-10 13,-10 13,-10 17,-8 21,-8 23,-2 2,2 5,3 3,3 2,2 3,3 5,5 8,7 12,5 18,8 23,5 30,3 h 41 31 l 30,-3 h 31 l 30,-2 28,-5 25,-6 21,-7 z"
   id="path62"
   inkscape:connector-curvature="0"
   style="fill:#000000;stroke:none" />
         <path
   d="m 11941,17110 12,2 11,5 7,5 5,6 13,15 15,18 13,25 15,30 15,34 13,38 13,40 10,46 -20,10 -28,13 -31,15 -35,15 -36,16 -30,12 -26,11 -15,7 -8,-7 -5,-6 -5,-5 -5,-5 -18,8 -23,10 -28,10 -30,10 -31,13 -33,10 -33,5 -33,5 h -317 v -12 l 5,-18 5,-15 7,-13 13,-10 20,-13 21,-10 17,-5 h 16 l 20,-3 18,-2 15,-8 15,-10 18,-13 15,-7 11,-5 12,-5 18,-6 18,-5 7,-5 8,-23 10,-25 13,-25 10,-16 3,-12 5,-16 2,-15 3,-13 h 13 10 12 11 7 10 l 13,3 h 18 18 20 23 l 23,-3 20,-5 23,-7 23,-10 23,-13 20,-13 18,-10 15,-10 8,-5 7,-8 3,-8 -5,-7 z"
   id="path64"
   inkscape:connector-curvature="0"
   style="fill:#000000;stroke:none" />
         <path
   d="m 10957,17288 -15,10 -21,7 -25,6 -28,5 -30,2 h -31 l -30,3 h -31 -41 l -30,-3 -23,-5 -18,-8 -12,-5 -8,-7 -5,-5 -3,-3 13,-8 13,-12 12,-10 11,-11 h 28 l 38,3 h 43 46 43 38 l 30,-3 h 16 l 7,8 8,13 2,12 z"
   id="path66"
   inkscape:connector-curvature="0"
   style="fill:#000000;stroke:none" />
         <path
   d="m 11941,17110 10,5 5,7 -3,8 -7,8 -8,5 -15,10 -18,10 -20,13 -23,13 -23,10 -23,7 -20,5 -23,3 h -23 -20 -18 -18 l -13,-3 h -10 -7 l -3,-17 -2,-23 -8,-23 -8,-20 26,-6 30,-10 36,-15 38,-15 35,-15 34,-18 27,-15 18,-16 5,26 8,30 15,26 z"
   id="path68"
   inkscape:connector-curvature="0"
   style="fill:#000000;stroke:none" />
         <path
   d="m 10655,17244 h 28 l 38,3 h 43 46 43 38 l 30,-3 h 16 10 13 12 l 10,3 3,-53 3,-64 5,-61 2,-41 10,-53 16,-84 15,-84 10,-58 5,-66 13,-109 7,-105 3,-61 18,31 18,36 17,40 18,41 18,40 15,36 13,33 10,25 13,28 20,39 23,45 25,49 28,45 23,44 18,33 13,20 7,15 10,20 11,23 12,23 11,23 10,23 7,18 8,15 23,3 h 25 l 28,-3 31,-5 28,-5 28,-5 22,-8 18,-2 26,-6 30,-10 36,-15 38,-15 35,-15 34,-18 27,-15 18,-16 5,-7 5,-10 3,-16 -5,-18 -8,-20 -15,-41 -20,-50 -23,-59 -21,-61 -20,-58 -15,-48 -10,-36 -10,-33 -13,-46 -20,-51 -21,-53 -25,-53 -23,-51 -20,-41 -21,-28 -20,-25 -23,-31 -25,-33 -26,-40 -25,-39 -23,-40 -18,-41 -13,-38 -17,-76 -21,-92 -20,-84 -13,-63 18,-25 18,-26 18,-28 15,-28 18,-28 15,-30 10,-31 10,-33 -56,10 -53,8 -53,8 -51,7 -49,3 -48,5 -46,2 h -40 -41 -36 -33 l -30,-2 -25,-3 -21,-2 -18,-5 -12,-3 -38,-18 -33,-25 -31,-30 -28,-34 -23,-33 -20,-33 -15,-30 -13,-23 2,33 6,31 2,22 5,21 3,20 2,20 -2,21 -8,12 10,13 13,23 10,23 3,20 -21,64 -20,58 -15,48 -13,36 -10,38 -13,48 -13,51 -15,43 -13,56 -12,84 -8,87 v 68 l 5,64 3,81 v 74 l -3,48 -5,86 -10,158 -13,163 -10,106 -5,64 v 63 59 33 l -5,23 -8,20 -5,20 -5,13 h 18 l 20,3 21,2 20,3 20,2 18,3 15,5 z"
   id="path70"
   inkscape:connector-curvature="0"
   style="fill:#000000;stroke:none" />
         <path
   d="m 10685,15389 8,-12 2,-21 -2,-20 -3,-20 -5,-21 -2,-22 -6,-31 -2,-33 13,23 15,30 20,33 23,33 28,34 31,30 33,25 38,18 12,3 18,5 21,2 25,3 30,2 h 33 36 41 40 l 46,-2 48,-5 49,-3 51,-7 53,-8 53,-8 56,-10 31,-5 35,-7 38,-6 41,-7 38,-8 36,-5 28,-7 18,-6 15,-5 18,-5 17,-5 18,-5 18,-5 15,-3 13,-2 10,-3 -20,-48 -23,-61 -20,-58 -11,-49 -5,-55 -7,-72 -8,-66 -8,-43 -10,-66 -12,-119 -13,-138 -8,-114 3,-104 7,-117 13,-99 8,-59 5,-28 7,-33 11,-28 10,-17 10,-16 8,-22 v -31 l -16,-38 13,-28 13,-30 10,-31 13,-30 10,-28 7,-26 5,-20 6,-18 7,-41 10,-55 11,-54 2,-41 -5,-35 -8,-48 -10,-51 -15,-41 -15,-30 -16,-28 -17,-21 -21,-17 -17,-11 -31,-17 -41,-21 -43,-23 -48,-22 -46,-23 -41,-18 -30,-13 -15,-15 -18,-20 -18,-18 -15,-20 -15,-18 -13,-18 -10,-18 -8,-13 -2,3 -6,5 -2,3 -5,5 -8,5 -10,7 -18,11 -18,10 -20,12 -20,13 -15,8 -13,7 -13,5 -15,11 -20,10 -23,13 -21,12 -20,10 -18,8 -12,5 -13,3 -15,2 -16,5 -20,3 -18,5 -20,7 -15,6 -16,7 -7,-5 -5,-2 -8,-6 -5,-5 h -3 l -5,3 -2,5 -5,3 -3,5 -2,10 -3,10 -2,13 -13,10 -13,10 -10,15 -8,16 -20,10 -20,12 -26,18 -25,18 -23,20 -23,23 -20,20 -18,23 -23,41 -36,69 -40,91 -46,102 -46,106 -40,102 -33,86 -18,67 h 10 15 l 18,2 h 18 18 17 18 l 13,3 23,58 15,79 8,89 -3,94 -13,5 h -15 l -18,-3 -12,-5 -3,-18 v -17 -18 l 5,-18 h -7 l -11,3 h -12 -10 -13 l -10,-3 -11,-2 -7,-3 -8,15 -10,16 -10,17 -13,16 -13,17 -12,16 -10,15 -11,10 -5,84 v 94 84 l 3,53 -3,59 v 78 l 3,94 5,102 10,104 13,102 18,89 22,73 23,11 31,7 35,10 39,8 35,8 31,7 23,3 12,2 5,-5 5,-5 6,-5 z"
   id="path72"
   inkscape:connector-curvature="0"
   style="fill:#000000;stroke:none" />
         <path
   d="m 10553,13977 23,58 15,79 8,89 -3,94 -13,5 h -15 l -18,-3 -12,-5 -3,-18 v -17 -18 l 5,-18 3,-53 5,-71 2,-74 z"
   id="path74"
   inkscape:connector-curvature="0"
   style="fill:#ffffff;stroke:none" />
         <path
   d="m 11374,12897 -8,5 -10,7 -18,11 -18,10 -20,12 -20,13 -15,8 -13,7 -13,5 -15,11 -20,10 -23,13 -21,12 -20,10 -18,8 -12,5 h -8 l -10,3 -13,2 -13,3 -15,2 -15,5 -15,3 -13,5 -10,2 -8,6 -8,2 -5,5 -7,-5 -5,-2 -8,-6 -5,-5 h -3 l -5,3 -2,5 -5,3 -3,5 -2,10 -3,10 -2,13 -6,17 -5,21 -7,18 -8,15 -10,13 -15,22 -21,33 -20,33 -23,39 -20,33 -15,28 -11,20 -15,41 -20,50 -21,51 -12,28 -10,20 -11,28 -10,31 -7,23 -11,46 -12,81 -10,86 -8,64 13,2 h 15 18 18 17 18 15 13 l 13,-71 18,-74 25,-68 25,-69 28,-61 26,-53 23,-46 20,-35 18,-33 20,-39 23,-40 23,-43 25,-41 23,-38 23,-31 18,-25 23,-25 35,-39 41,-40 43,-46 46,-46 38,-40 31,-33 z"
   id="path76"
   inkscape:connector-curvature="0"
   style="fill:#ffffff;stroke:none" />
         <path
   d="m 10090,14238 18,-17 23,-23 18,-21 10,-15 v -7 -8 -8 l -3,-10 -15,8 -20,10 -18,10 -18,5 v 15 l 3,26 2,23 z"
   id="path78"
   inkscape:connector-curvature="0"
   style="fill:#ffffff;stroke:none" />
         <path
   d="m 10080,14094 10,-8 13,-10 13,-10 12,-11 11,-7 12,-8 10,-7 8,-6 -8,-2 h -10 l -10,-3 h -10 l -13,-2 h -15 l -13,-3 h -15 l 3,16 2,22 v 23 z"
   id="path80"
   inkscape:connector-curvature="0"
   style="fill:#ffffff;stroke:none" />
         <path
   d="m 10698,13575 -10,20 -11,28 -10,31 -7,23 -11,46 -12,81 -10,86 -8,64 13,2 h 15 18 18 17 18 15 13 l 5,-45 5,-51 10,-56 11,-56 12,-53 13,-51 15,-43 15,-39 16,-35 15,-36 15,-38 15,-38 13,-33 10,-28 8,-23 5,-15 8,-23 12,-23 11,-23 7,-12 5,-8 8,-10 5,-10 8,-5 5,-5 7,-8 8,-8 10,-5 5,10 3,13 5,13 2,12 v -38 l 3,-45 -3,-38 -2,-21 -5,-5 -8,-2 -8,-6 -7,-2 -10,2 -8,6 -8,2 -5,5 -7,10 -8,16 -5,12 -3,8 v 10 20 18 15 l -20,26 -23,30 -25,36 -26,36 -25,35 -20,31 -16,25 -10,15 -7,13 -13,20 -13,23 -15,23 -13,25 -15,21 -10,15 z"
   id="path82"
   inkscape:connector-curvature="0"
   style="fill:#000000;stroke:none" />
         <path
   d="m 10799,12599 8,-12 10,-13 8,-13 5,-10 -13,-10 -18,-3 -12,3 h -10 l 2,10 3,15 5,18 7,13 5,2 v 3 0 l -2,2 v 0 l -10,-12 -10,-13 -8,-15 -3,-18 -2,-3 -3,-5 -2,-7 2,-10 8,-3 h 8 7 10 l 8,3 h 8 10 l 10,2 8,-2 h 5 7 l 3,2 10,-2 10,-5 13,-3 13,-3 15,-2 13,-3 h 15 12 l 3,5 3,6 v 5 2 l 20,3 35,2 41,3 48,5 49,5 43,5 36,5 25,5 -5,3 -5,2 -5,5 -3,3 -18,-3 -30,-2 -38,-3 -46,-2 -46,-5 -43,-3 h -36 l -22,-2 v 17 21 l -3,23 -5,20 -10,10 -21,5 -17,-2 -13,-5 10,-11 8,3 h 12 l 13,-3 8,-5 2,-15 v -30 l -2,-31 -3,-15 -12,-3 -18,3 -21,5 -12,5 2,18 8,28 7,25 8,15 -10,11 -5,-11 -5,-12 -5,-13 -5,-10 -3,-10 -2,-11 -6,-10 -2,-10 -5,-2 h -8 -7 l -8,2 -5,10 -8,13 -10,13 z"
   id="path84"
   inkscape:connector-curvature="0"
   style="fill:#000000;stroke:none" />
         <path
   d="m 10845,12815 -5,-5 -5,-5 -5,-2 -8,-3 -7,3 -8,2 -5,3 -5,2 -5,-7 -3,-10 -2,-11 -3,-7 5,-13 8,-8 5,-5 8,-5 10,-2 h 7 l 11,2 7,3 8,2 h 10 l 10,3 8,2 7,5 8,11 10,10 5,7 v 8 10 l 3,8 2,5 -12,-3 h -18 -18 z"
   id="path86"
   inkscape:connector-curvature="0"
   style="fill:#000000;stroke:none" />
         <path
   d="m 11381,12833 -15,-13 -18,-15 -17,-15 -11,-10 6,-31 2,-35 v -33 l -8,-23 3,-20 v -18 -18 l -3,-13 -2,-10 -3,-10 -5,-10 -5,-3 h -10 l -13,-2 h -15 l -10,2 -5,3 -5,2 -5,5 -3,3 -2,2 v 3 3 l -3,2 -8,5 -15,10 -15,8 -5,8 -5,-8 -5,-10 -3,-10 v -11 -12 l 3,-13 v -13 -10 l -3,-10 -2,-10 -5,-13 -3,-13 v -17 -21 l -3,-23 -5,-15 5,-2 6,-3 2,-2 h 5 v -8 l -5,-10 -2,-8 -3,-7 8,-8 7,-8 8,-10 v -10 l -3,-15 -7,-16 -8,-15 -10,-10 -13,-5 -18,-5 -15,-5 -10,-3 h -8 l -10,-2 -10,-5 -8,-5 -7,-3 -13,-5 h -13 l -12,2 -8,3 -8,5 -12,5 -13,8 -13,5 -12,8 -8,5 -8,5 h -2 l -5,-5 -3,-3 -2,-2 -8,2 -5,3 -3,5 -5,2 3,-12 5,-16 2,-12 v -11 l -2,-7 v -8 -7 l 8,-6 15,-7 23,-8 20,-7 15,-6 13,-5 23,-2 18,-3 10,3 2,5 3,8 2,7 5,3 11,-3 15,-5 18,-8 15,-7 8,-3 12,-2 13,-3 13,-5 h 15 l 15,-2 13,2 13,3 22,7 18,5 13,5 8,6 15,2 15,3 18,2 15,5 15,5 13,8 13,5 10,8 8,7 12,10 13,13 15,15 13,18 13,15 7,11 5,10 3,15 2,15 6,13 2,13 10,15 13,23 13,23 5,20 v 25 l -3,33 -5,41 -7,36 -13,40 -21,51 -20,46 -15,30 -8,11 -12,12 -16,13 -12,10 -16,10 -10,10 -10,8 z"
   id="path88"
   inkscape:connector-curvature="0"
   style="fill:#000000;stroke:none" />
         <path
   d="m 10286,14114 h 3 2 l 5,-3 3,-2 2,-5 3,-10 2,-8 3,-8 -3,-7 -5,-8 -5,-10 -5,-15 -2,-23 v -28 l 2,-28 8,-31 2,-35 -5,-41 -10,-38 -10,-28 -8,-15 -18,-21 -20,-27 -25,-28 -28,-31 -28,-30 -26,-28 -25,-23 13,-41 17,-56 16,-51 12,-35 13,-23 15,-23 16,-20 20,-23 23,-5 20,-5 18,-10 13,-8 7,-8 v -7 -10 -6 l 3,-7 7,-5 5,-8 3,-5 -8,-10 -15,-23 -18,-20 -10,-13 -10,-3 -15,-2 h -21 -15 v 5 l -2,10 -5,8 v 7 h -3 l -8,3 -7,2 h -8 v 49 l -10,33 -15,18 -13,12 -8,5 -7,8 -13,10 -10,8 -15,10 -13,8 -10,5 -10,5 -13,5 -15,10 -21,13 -17,12 -21,16 -15,12 -13,8 -5,5 -2,3 -5,5 v 7 5 h -6 l -5,-2 h -7 -5 l 5,-15 5,-18 7,-21 8,-17 10,-18 10,-28 13,-33 20,-41 8,-5 10,-5 10,-5 13,-8 10,-5 10,-7 11,-8 10,-5 -10,-18 5,-5 5,-5 2,-5 v -8 l -2,-7 -5,-10 -8,-11 -5,-7 -5,-3 -10,-2 -10,-3 -13,-2 -8,-11 -7,-5 h -13 -13 l -13,5 -12,8 -10,13 -5,10 2,10 5,10 3,13 2,10 -2,13 -8,15 -10,15 -10,13 -10,8 -18,10 -26,15 -30,15 -31,16 -30,15 -28,15 -26,13 -22,12 -23,16 -23,17 -23,18 -20,21 -21,17 -17,21 -13,15 -23,2 -23,6 -20,7 -21,8 -17,10 -21,8 -15,10 -15,10 -18,10 -20,18 -23,18 -23,20 -23,20 -18,16 -15,15 -8,7 -5,11 -7,15 -11,20 -17,28 -13,18 -13,18 -15,20 -10,18 -13,20 -7,15 -8,13 -3,10 -2,18 -3,25 3,33 10,36 15,33 18,38 15,33 13,23 61,3 h 64 l 66,2 71,3 71,2 h 71 l 74,3 74,2 73,3 74,2 h 69 l 68,3 66,3 64,2 h 58 l 54,3 5,-11 5,-12 5,-13 z"
   id="path90"
   inkscape:connector-curvature="0"
   style="fill:#000000;stroke:none" />
         <path
   d="m 10299,14249 12,-3 21,-5 25,-8 26,-7 25,-8 23,-5 18,-8 7,-2 5,-8 5,-13 3,-10 v -7 h -5 -5 -8 -10 -10 -15 l -16,-3 h -15 -56 l -66,-2 -76,-3 -87,-2 -91,-3 -97,-3 -99,-2 -101,-3 -102,-2 -102,-3 -99,-5 -91,-2 -89,-3 -79,-2 h -71 l -61,-3 h -21 l -17,-3 h -18 -13 -13 -10 -5 -5 v 8 l 3,10 5,13 5,8 7,2 18,8 23,5 25,7 26,8 25,8 21,5 12,2 26,3 h 45 l 64,2 79,3 89,5 99,3 104,5 107,2 107,5 104,3 96,2 89,5 77,3 h 61 l 43,3 z"
   id="path92"
   inkscape:connector-curvature="0"
   style="fill:#000000;stroke:none" />
         <path
   d="m 9506,13613 -18,46 -8,48 8,56 33,61 8,-10 5,-15 2,-18 v -15 l -10,-21 -13,-28 -10,-43 z"
   id="path94"
   inkscape:connector-curvature="0"
   style="fill:#ffffff;stroke:none" />
         <path
   d="m 9923,13463 h -6 l -5,-2 h -7 -5 l -13,23 -18,30 -13,31 -5,23 11,-13 15,-15 15,-16 10,-7 18,7 23,11 28,17 30,16 28,17 26,18 20,13 15,10 -15,-23 -23,-23 -23,-25 -25,-26 -26,-22 -22,-21 -18,-15 z"
   id="path96"
   inkscape:connector-curvature="0"
   style="fill:#ffffff;stroke:none" />
         <path
   d="m 9882,14068 7,-2 8,-3 8,-2 7,-3 3,8 5,10 5,10 3,8 v 7 l 5,5 2,3 h 8 l 7,-5 6,-8 2,-8 -2,-7 -3,-8 v -10 l 3,-10 5,-5 12,-5 18,-8 15,-5 h 13 l 13,8 23,15 20,25 10,33 8,-20 5,-15 2,-13 v -10 l 13,-3 15,-2 h 16 l 12,2 13,5 10,3 8,5 5,5 5,13 3,15 2,13 v 7 l 8,-2 5,-8 2,-5 3,-7 10,2 h 18 l 18,-2 10,-6 v 8 l 5,8 2,7 3,3 h 3 2 l 5,-3 3,-2 2,-5 3,-10 2,-8 3,-8 5,3 8,2 5,3 h 5 l -3,-15 -2,-16 -3,-17 -2,-11 7,-5 5,-7 5,-8 3,-5 8,3 h 12 l 10,-3 11,-8 5,11 7,7 10,5 6,3 -11,7 -7,13 -5,10 v 13 h 7 10 8 8 v 8 l 2,12 3,13 2,10 -15,-2 h -15 l -13,5 -8,7 -2,8 v 13 l 5,12 5,13 h -56 l -66,-2 -76,-3 -87,-2 -91,-3 -97,-3 -99,-2 -101,-3 -102,-2 -102,-3 -99,-5 -91,-2 -89,-3 -79,-2 h -71 l -61,-3 -3,-15 -7,-15 -16,-13 -20,-5 8,-5 5,-8 v -10 l -5,-8 h 17 l 13,-2 8,-5 5,-3 v -8 l -3,-7 -2,-8 -5,-7 10,-5 10,-8 10,-15 3,-13 5,8 7,10 8,5 10,2 -2,13 2,13 8,15 15,13 v -10 -11 -12 l -3,-8 h 8 10 8 5 15 l 18,-5 13,-3 7,-7 8,5 10,5 10,8 5,5 5,7 6,8 7,10 8,5 7,-10 8,-13 3,-7 2,-8 h 8 l 12,-5 11,-5 7,-5 8,2 15,5 15,3 h 13 l -2,10 -6,13 -2,13 -3,7 -5,8 -5,7 -5,8 -7,3 2,5 5,5 5,5 5,2 8,-5 10,-5 10,-7 5,-8 -2,10 2,15 16,13 35,3 v -16 l 5,-17 8,-21 5,-10 10,-10 15,-8 18,-7 15,-3 16,5 10,8 10,10 8,10 h 17 l 23,8 23,18 10,30 8,3 h 13 12 8 20 8 l 13,2 15,5 h 8 l 5,-12 5,-13 v -13 -10 l -10,8 -16,15 -15,13 -13,5 h -20 l -3,-3 -5,-5 -7,-3 h -8 l -2,-10 -3,-7 -2,-5 -3,-5 8,-3 10,-8 10,-7 2,-8 11,5 12,5 13,3 h 8 l -3,-13 -2,-10 -5,-8 -3,-7 8,-5 7,-5 8,-8 2,-5 8,7 13,6 15,5 10,2 5,8 3,7 2,8 5,3 h 5 8 5 l 5,-3 5,-5 5,-5 6,-10 v -8 l 7,3 h 10 13 l 13,-3 h 10 l 13,-2 7,-3 5,-3 -2,11 v 12 l 5,13 7,8 -2,5 -5,10 v 8 7 l -8,3 -15,2 -15,3 -8,2 v 3 l 5,5 5,8 5,5 -38,7 v -7 -13 -10 l -2,-5 -16,5 -15,7 -15,13 -13,10 h 21 l 20,3 h 15 l 5,-3 38,-7 8,-8 10,-8 8,-10 z"
   id="path98"
   inkscape:connector-curvature="0"
   style="fill:#ffffff;stroke:none" />
         <path
   d="m 10426,13972 h 10 15 l 18,2 h 18 18 17 18 l 13,3 -3,48 -2,74 -5,71 -3,53 h -7 l -11,3 h -12 -10 -13 l -10,-3 -11,-2 -7,-3 -8,15 -10,16 -10,17 -13,16 -13,17 -12,16 -10,15 -11,10 -10,8 -10,10 -13,7 -10,3 h -7 -6 -5 l -2,-3 -10,3 h -13 -10 -8 l -5,-3 -5,-2 -5,-3 -5,-5 -5,-2 -5,-5 h -8 l -5,2 -13,3 -18,5 -20,5 -13,-3 -10,-7 -12,-8 -11,-10 -7,-8 -21,3 h -20 l -18,-3 -10,-7 -5,-13 -5,-15 v -13 l 5,-8 13,-7 10,-8 10,-7 10,-11 18,-17 23,-23 18,-21 10,-15 v -7 -8 -8 l -3,-10 -15,8 -20,10 -18,10 -18,5 -15,3 -18,2 h -18 l -15,-5 -8,-7 v -11 l 6,-10 7,-7 10,-8 13,-10 15,-8 18,-7 10,-8 13,-10 13,-10 12,-11 11,-7 12,-8 10,-7 8,-6 8,-2 10,-5 10,-5 10,-3 10,-5 11,-2 10,-3 10,-2 h 10 l 10,-3 13,-3 13,-5 10,-2 10,-3 10,-2 h 5 5 l 10,-3 11,-2 h 12 l 13,-3 15,-2 h 16 z"
   id="path100"
   inkscape:connector-curvature="0"
   style="fill:#000000;stroke:none" />
        </g>
       </g>
      </g>
     </g>
    </g>
   </g>
  </g>
 </g>
</svg>