<?xml version="1.0" encoding="UTF-8" standalone="no"?>
<svg
   xmlns:ooo="http://xml.openoffice.org/svg/export"
   xmlns:dc="http://purl.org/dc/elements/1.1/"
   xmlns:cc="http://creativecommons.org/ns#"
   xmlns:rdf="http://www.w3.org/1999/02/22-rdf-syntax-ns#"
   xmlns:svg="http://www.w3.org/2000/svg"
   xmlns="http://www.w3.org/2000/svg"
   xmlns:sodipodi="http://sodipodi.sourceforge.net/DTD/sodipodi-0.dtd"
   xmlns:inkscape="http://www.inkscape.org/namespaces/inkscape"
   version="1.2"
   width="22.860001mm"
   height="32.59mm"
   viewBox="0 0 2286.0001 3259"
   preserveAspectRatio="xMidYMid"
   xml:space="preserve"
   id="svg101"
   sodipodi:docname="waiter5.svg"
   style="fill-rule:evenodd;stroke-width:28.22200012;stroke-linejoin:round"
   inkscape:version="0.92.5 (2060ec1f9f, 2020-04-08)"><metadata
   id="metadata105"><rdf:RDF><cc:Work
       rdf:about=""><dc:format>image/svg+xml</dc:format><dc:type
         rdf:resource="http://purl.org/dc/dcmitype/StillImage" /></cc:Work></rdf:RDF></metadata><sodipodi:namedview
   pagecolor="#ffffff"
   bordercolor="#666666"
   borderopacity="1"
   objecttolerance="10"
   gridtolerance="10"
   guidetolerance="10"
   inkscape:pageopacity="0"
   inkscape:pageshadow="2"
   inkscape:window-width="664"
   inkscape:window-height="487"
   id="namedview103"
   showgrid="false"
   inkscape:zoom="0.2102413"
   inkscape:cx="43.200001"
   inkscape:cy="61.568502"
   inkscape:window-x="0"
   inkscape:window-y="0"
   inkscape:window-maximized="0"
   inkscape:current-layer="svg101" />
 <defs
   class="ClipPathGroup"
   id="defs8">
  <clipPath
   id="presentation_clip_path"
   clipPathUnits="userSpaceOnUse">
   <rect
   x="0"
   y="0"
   width="21000"
   height="29700"
   id="rect2" />
  </clipPath>
  <clipPath
   id="presentation_clip_path_shrink"
   clipPathUnits="userSpaceOnUse">
   <rect
   x="21"
   y="29"
   width="20958"
   height="29641"
   id="rect5" />
  </clipPath>
 </defs>
 <defs
   class="TextShapeIndex"
   id="defs12">
  <g
   ooo:slide="id1"
   ooo:id-list="id3"
   id="g10" />
 </defs>
 <defs
   class="EmbeddedBulletChars"
   id="defs44">
  <g
   id="bullet-char-template-57356"
   transform="matrix(4.8828125e-4,0,0,-4.8828125e-4,0,0)">
   <path
   d="M 580,1141 1163,571 580,0 -4,571 Z"
   id="path14"
   inkscape:connector-curvature="0" />
  </g>
  <g
   id="bullet-char-template-57354"
   transform="matrix(4.8828125e-4,0,0,-4.8828125e-4,0,0)">
   <path
   d="M 8,1128 H 1137 V 0 H 8 Z"
   id="path17"
   inkscape:connector-curvature="0" />
  </g>
  <g
   id="bullet-char-template-10146"
   transform="matrix(4.8828125e-4,0,0,-4.8828125e-4,0,0)">
   <path
   d="M 174,0 602,739 174,1481 1456,739 Z M 1358,739 309,1346 659,739 Z"
   id="path20"
   inkscape:connector-curvature="0" />
  </g>
  <g
   id="bullet-char-template-10132"
   transform="matrix(4.8828125e-4,0,0,-4.8828125e-4,0,0)">
   <path
   d="M 2015,739 1276,0 H 717 l 543,543 H 174 v 393 h 1086 l -543,545 h 557 z"
   id="path23"
   inkscape:connector-curvature="0" />
  </g>
  <g
   id="bullet-char-template-10007"
   transform="matrix(4.8828125e-4,0,0,-4.8828125e-4,0,0)">
   <path
   d="m 0,-2 c -7,16 -16,29 -25,39 l 381,530 c -94,256 -141,385 -141,387 0,25 13,38 40,38 9,0 21,-2 34,-5 21,4 42,12 65,25 l 27,-13 111,-251 280,301 64,-25 24,25 c 21,-10 41,-24 62,-43 C 886,937 835,863 770,784 769,783 710,716 594,584 L 774,223 c 0,-27 -21,-55 -63,-84 l 16,-20 C 717,90 699,76 672,76 641,76 570,178 457,381 L 164,-76 c -22,-34 -53,-51 -92,-51 -42,0 -63,17 -64,51 -7,9 -10,24 -10,44 0,9 1,19 2,30 z"
   id="path26"
   inkscape:connector-curvature="0" />
  </g>
  <g
   id="bullet-char-template-10004"
   transform="matrix(4.8828125e-4,0,0,-4.8828125e-4,0,0)">
   <path
   d="M 285,-33 C 182,-33 111,30 74,156 52,228 41,333 41,471 c 0,78 14,145 41,201 34,71 87,106 158,106 53,0 88,-31 106,-94 l 23,-176 c 8,-64 28,-97 59,-98 l 735,706 c 11,11 33,17 66,17 42,0 63,-15 63,-46 V 965 c 0,-36 -10,-64 -30,-84 L 442,47 C 390,-6 338,-33 285,-33 Z"
   id="path29"
   inkscape:connector-curvature="0" />
  </g>
  <g
   id="bullet-char-template-9679"
   transform="matrix(4.8828125e-4,0,0,-4.8828125e-4,0,0)">
   <path
   d="M 813,0 C 632,0 489,54 383,161 276,268 223,411 223,592 c 0,181 53,324 160,431 106,107 249,161 430,161 179,0 323,-54 432,-161 108,-107 162,-251 162,-431 0,-180 -54,-324 -162,-431 C 1136,54 992,0 813,0 Z"
   id="path32"
   inkscape:connector-curvature="0" />
  </g>
  <g
   id="bullet-char-template-8226"
   transform="matrix(4.8828125e-4,0,0,-4.8828125e-4,0,0)">
   <path
   d="m 346,457 c -73,0 -137,26 -191,78 -54,51 -81,114 -81,188 0,73 27,136 81,188 54,52 118,78 191,78 73,0 134,-26 185,-79 51,-51 77,-114 77,-187 0,-75 -25,-137 -76,-188 -50,-52 -112,-78 -186,-78 z"
   id="path35"
   inkscape:connector-curvature="0" />
  </g>
  <g
   id="bullet-char-template-8211"
   transform="matrix(4.8828125e-4,0,0,-4.8828125e-4,0,0)">
   <path
   d="M -4,459 H 1135 V 606 H -4 Z"
   id="path38"
   inkscape:connector-curvature="0" />
  </g>
  <g
   id="bullet-char-template-61548"
   transform="matrix(4.8828125e-4,0,0,-4.8828125e-4,0,0)">
   <path
   d="m 173,740 c 0,163 58,303 173,419 116,115 255,173 419,173 163,0 302,-58 418,-173 116,-116 174,-256 174,-419 0,-163 -58,-303 -174,-418 C 1067,206 928,148 765,148 601,148 462,206 346,322 231,437 173,577 173,740 Z"
   id="path41"
   inkscape:connector-curvature="0" />
  </g>
 </defs>
 <g
   id="g49"
   transform="translate(-9357,-13220)">
  <g
   id="id2"
   class="Master_Slide">
   <g
   id="bg-id2"
   class="Background" />
   <g
   id="bo-id2"
   class="BackgroundObjects" />
  </g>
 </g>
 <g
   class="SlideGroup"
   id="g99"
   transform="translate(-9357,-13220)">
  <g
   id="g97">
   <g
   id="container-id1">
    <g
   id="id1"
   class="Slide"
   clip-path="url(#presentation_clip_path)">
     <g
   class="Page"
   id="g93">
      <g
   class="Graphic"
   id="g91">
       <g
   id="id3">
        <rect
   class="BoundingBox"
   x="9357"
   y="13220"
   width="2286"
   height="3259"
   id="rect51"
   style="fill:none;stroke:none" />
        <defs
   id="defs56">
         <clipPath
   id="clip_path_1"
   clipPathUnits="userSpaceOnUse">
          <path
   d="m 9357,13220 h 2285 v 3258 H 9357 Z"
   id="path53"
   inkscape:connector-curvature="0" />
         </clipPath>
        </defs>
        <g
   clip-path="url(#clip_path_1)"
   id="g88">
         <path
   d="m 10382,13337 -8,-28 -13,-41 -12,-33 -5,-15 -23,3 -36,10 -38,12 -41,21 -40,25 -36,33 -25,38 -16,46 77,71 -21,5 -18,8 -15,13 -10,12 -8,18 -2,18 2,18 6,18 2,17 -2,21 -8,18 -13,15 -15,12 -15,6 -16,-3 -10,-13 -7,16 v 17 l 10,18 15,18 20,13 23,5 26,-3 25,-12 -13,20 -15,15 -15,8 -15,5 -13,2 -13,-2 -7,-3 -8,-5 10,15 15,13 23,10 26,5 h 30 l 31,-7 30,-15 28,-28 18,38 -25,20 -23,25 -18,21 -8,10 h -28 l -25,8 -26,12 -17,18 -18,23 -10,28 -8,33 -3,38 13,69 21,51 20,30 8,10 -13,23 -13,38 -10,33 -3,16 -23,-16 -17,-15 -18,-15 -15,-13 -13,-10 -10,-10 -8,-10 -5,-8 v -18 l 10,-18 15,-12 21,-3 15,-2 5,-11 -7,-10 -18,-7 h -13 -10 l -13,5 -10,5 -13,7 -12,6 -16,5 -15,2 h -20 -26 l -33,-5 -33,-2 -35,-6 -31,-5 -25,-5 -16,-7 -12,-3 -11,3 -12,7 -8,8 -2,10 5,8 12,5 h 23 l 28,2 26,5 25,13 23,13 23,15 23,13 20,10 23,5 23,8 28,15 28,23 28,25 25,26 26,28 20,25 15,23 13,18 15,12 15,8 16,5 h 12 l 13,-2 10,-8 8,-13 8,-20 12,-28 16,-31 12,-35 13,-31 13,-28 7,-17 3,-8 13,23 17,28 21,30 23,28 22,28 18,26 13,15 5,5 -36,23 -35,28 -33,30 -31,36 -25,35 -20,34 -16,28 -7,25 15,-5 20,-3 h 15 6 l -31,46 -25,51 -18,58 -10,59 -3,61 8,61 18,58 30,54 25,-8 36,-10 41,-10 40,-10 39,-8 33,-8 23,-2 7,-3 -5,54 3,84 7,73 3,33 -21,3 -22,5 -21,8 -23,5 -20,10 -20,7 -18,11 -15,10 -16,7 -17,8 -21,3 -20,2 -20,-2 -21,-8 -15,-13 -13,-15 -13,-18 -12,-15 -18,-13 -20,-10 -21,-8 -20,-7 h -18 -18 l -20,38 25,5 23,15 16,21 7,17 -20,-5 -15,-2 h -18 l -13,2 -13,5 -12,5 -11,6 -7,7 -10,13 -16,20 -20,28 -20,31 -21,30 -20,28 -13,23 -10,13 -5,7 3,11 5,7 10,8 10,2 h 13 l 15,-5 13,-10 15,-13 15,-10 21,-10 20,-5 20,-5 21,-5 20,-5 15,-5 15,-8 16,-10 15,-10 18,-13 18,-10 17,-8 21,-2 18,5 20,10 18,10 17,10 18,13 13,10 10,8 8,5 2,2 26,-56 25,3 31,2 h 33 33 28 25 18 5 l -20,16 -21,23 -17,28 -16,28 -12,30 -8,28 -5,23 2,18 11,56 7,91 5,92 -7,56 -71,10 5,10 12,23 13,28 3,23 -8,23 -13,20 -15,18 -15,17 -16,13 -10,15 -2,13 2,15 16,31 17,38 13,33 5,15 59,5 -8,-22 v -26 l 5,-15 3,-8 7,10 8,11 15,12 15,10 18,11 21,7 22,8 26,2 23,3 h 20 18 18 17 16 l 12,-3 h 16 l 25,-12 5,-21 -10,-20 -23,-10 -15,-3 -18,-5 -20,-7 -21,-11 -17,-10 -18,-12 -13,-13 -10,-10 -20,-21 -23,-20 -16,-20 3,-23 13,-31 12,-35 11,-28 2,-13 -30,-15 15,-59 15,-63 15,-64 16,-61 12,-53 13,-49 13,-35 13,-20 22,-31 23,-30 16,-28 7,-23 h 15 18 21 17 18 15 16 10 l 20,-10 21,-31 17,-36 5,-33 v -58 l 3,-97 v -96 l -3,-51 h 18 l 21,-3 h 20 l 23,-2 h 23 23 l 17,2 18,3 3,-33 v -33 l -5,-38 -8,-41 -10,-43 -15,-43 -18,-46 -26,-46 -25,-46 -33,-45 -36,-46 -43,-46 -46,-46 -51,-43 -58,-41 -61,-40 10,-44 8,-50 2,-51 5,-43 8,25 10,25 15,26 16,23 12,20 16,20 12,13 8,8 8,5 7,5 10,2 11,3 12,2 h 13 l 10,-2 13,-3 23,-7 38,-10 48,-16 56,-15 56,-18 51,-12 38,-11 23,-7 13,-5 12,-5 16,-5 15,-6 13,-7 12,-10 13,-10 10,-13 13,-13 15,-15 21,-10 20,-10 23,-6 20,-5 h 23 l 18,5 23,3 2,-10 -12,-13 -18,-10 h -13 l -18,-3 h -23 l -23,-2 -25,2 -23,3 -20,5 -15,8 -13,7 -15,3 -16,2 -12,-2 -16,-5 -12,-5 -11,-5 -10,-8 -10,-5 h -10 l -13,2 -10,5 -8,6 -5,5 3,5 10,2 25,10 21,18 7,15 -2,13 -8,5 -10,3 -13,5 -17,2 -18,3 h -21 -20 -23 -25 -36 l -38,3 -38,2 -36,5 -28,3 -20,2 h -8 l -2,-18 -10,-25 -11,-28 -12,-30 -16,-31 -12,-28 -13,-23 -10,-18 13,-56 -5,-71 -18,-63 -28,-41 -16,-10 -20,-10 -20,-10 -21,-6 -22,-2 h -18 l -18,5 -15,10 -23,-5 -15,3 -5,5 -3,2 -38,-56 h 25 l 18,-2 8,-8 2,-13 v -15 l 5,-10 5,-10 v -20 l 3,-13 8,-10 12,-5 16,-3 12,-3 10,-10 v -10 l -10,-10 -15,-13 -8,-12 -2,-13 7,-13 11,-13 5,-17 -3,-18 -7,-18 h 17 l 18,3 13,7 10,15 v -30 l -10,-36 -18,-28 -30,-12 17,-13 21,-8 15,-5 h 5 l -13,-15 -18,-18 -25,-15 -25,-13 -28,-5 -31,3 -28,15 z"
   id="path58"
   inkscape:connector-curvature="0"
   style="fill:#000000;stroke:none" />
         <path
   d="m 10720,16347 v -31 h -402 v 31 z"
   id="path60"
   inkscape:connector-curvature="0"
   style="fill:#000000;stroke:none" />
         <path
   d="m 10384,16479 23,-5 18,-13 13,-18 5,-22 -5,-23 -13,-18 -18,-13 -23,-5 -23,5 -17,13 -13,18 -5,23 5,22 13,18 17,13 z"
   id="path62"
   inkscape:connector-curvature="0"
   style="fill:#000000;stroke:none" />
         <path
   d="m 10651,16479 23,-5 18,-13 13,-18 5,-22 -5,-23 -13,-18 -18,-13 -23,-5 -23,5 -17,13 -13,18 -5,23 5,22 13,18 17,13 z"
   id="path64"
   inkscape:connector-curvature="0"
   style="fill:#000000;stroke:none" />
         <path
   d="m 9779,15566 26,16 213,-344 -25,-15 z"
   id="path66"
   inkscape:connector-curvature="0"
   style="fill:#000000;stroke:none" />
         <path
   d="m 9845,15210 -7,23 2,21 8,20 18,15 10,5 10,3 13,2 10,-2 10,-3 10,-5 8,-7 7,-11 8,-22 v -23 l -8,-21 -17,-15 -11,-5 -12,-2 h -10 l -11,2 -12,3 -11,5 -7,7 z"
   id="path68"
   inkscape:connector-curvature="0"
   style="fill:#000000;stroke:none" />
         <path
   d="m 9703,15439 -8,21 v 22 l 10,21 16,15 10,5 13,3 10,2 12,-2 11,-3 10,-5 7,-8 8,-10 8,-23 v -22 l -8,-21 -18,-15 -10,-5 -13,-3 h -10 l -10,3 -13,2 -10,5 -8,8 z"
   id="path70"
   inkscape:connector-curvature="0"
   style="fill:#000000;stroke:none" />
         <path
   d="m 11511,14117 2,-10 5,-7 5,-8 11,-8 15,-7 20,-3 33,-5 h 41 v -20 h -781 v 20 l 38,3 28,2 26,5 18,5 12,8 11,8 5,7 5,10 z"
   id="path72"
   inkscape:connector-curvature="0"
   style="fill:#000000;stroke:none" />
         <path
   d="m 11330,14049 v -41 -89 -97 -61 l -25,-22 -15,-33 -8,-46 -3,-59 h 21 v -63 h -97 v 63 h 23 l -3,59 -7,46 -15,33 -26,22 v 61 97 89 41 z"
   id="path74"
   inkscape:connector-curvature="0"
   style="fill:#000000;stroke:none" />
         <path
   d="m 11096,14051 21,-272 h -158 l 18,272 z"
   id="path76"
   inkscape:connector-curvature="0"
   style="fill:#000000;stroke:none" />
         <path
   d="m 11483,14049 15,-3 13,-2 15,-8 10,-10 10,-10 8,-13 3,-15 2,-16 v 0 l -2,-15 -3,-12 -8,-16 -10,-10 -10,-10 -15,-8 -13,-2 -15,-3 h -76 l -16,3 -15,2 -13,8 -10,10 -10,10 -8,16 -2,12 -3,15 v 0 l 3,16 2,15 8,13 10,10 10,10 13,8 15,2 16,3 z"
   id="path78"
   inkscape:connector-curvature="0"
   style="fill:#000000;stroke:none" />
         <path
   d="m 10005,14133 3,-11 3,-7 7,-8 8,-7 15,-6 23,-5 30,-2 h 41 v -20 h -778 v 20 l 38,2 28,3 26,5 17,5 13,5 10,8 5,7 5,11 z"
   id="path80"
   inkscape:connector-curvature="0"
   style="fill:#000000;stroke:none" />
         <path
   d="m 9777,14067 22,-267 h -185 l 20,267 z"
   id="path82"
   inkscape:connector-curvature="0"
   style="fill:#000000;stroke:none" />
         <path
   d="m 9896,14067 28,-6 25,-15 16,-23 5,-28 v 0 l -5,-28 -16,-20 -25,-15 -28,-5 h -97 l -28,5 -22,15 -18,20 -5,28 v 0 l 5,28 18,23 22,15 28,6 z"
   id="path84"
   inkscape:connector-curvature="0"
   style="fill:#000000;stroke:none" />
         <path
   d="m 9614,14067 28,-6 25,-15 15,-23 6,-28 v 0 l -6,-28 -15,-20 -25,-15 -28,-5 h -97 l -28,5 -23,15 -17,20 -6,28 v 0 l 6,28 17,23 23,15 28,6 z"
   id="path86"
   inkscape:connector-curvature="0"
   style="fill:#000000;stroke:none" />
        </g>
       </g>
      </g>
     </g>
    </g>
   </g>
  </g>
 </g>
</svg>