<?xml version="1.0" encoding="UTF-8" standalone="no"?>
<svg
   xmlns:ooo="http://xml.openoffice.org/svg/export"
   xmlns:dc="http://purl.org/dc/elements/1.1/"
   xmlns:cc="http://creativecommons.org/ns#"
   xmlns:rdf="http://www.w3.org/1999/02/22-rdf-syntax-ns#"
   xmlns:svg="http://www.w3.org/2000/svg"
   xmlns="http://www.w3.org/2000/svg"
   xmlns:sodipodi="http://sodipodi.sourceforge.net/DTD/sodipodi-0.dtd"
   xmlns:inkscape="http://www.inkscape.org/namespaces/inkscape"
   version="1.2"
   width="11.33mm"
   height="22.959999mm"
   viewBox="0 0 1133 2295.9999"
   preserveAspectRatio="xMidYMid"
   xml:space="preserve"
   id="svg369"
   sodipodi:docname="walking.svg"
   style="fill-rule:evenodd;stroke-width:28.22200012;stroke-linejoin:round"
   inkscape:version="0.92.5 (2060ec1f9f, 2020-04-08)"><metadata
   id="metadata373"><rdf:RDF><cc:Work
       rdf:about=""><dc:format>image/svg+xml</dc:format><dc:type
         rdf:resource="http://purl.org/dc/dcmitype/StillImage" /></cc:Work></rdf:RDF></metadata><sodipodi:namedview
   pagecolor="#ffffff"
   bordercolor="#666666"
   borderopacity="1"
   objecttolerance="10"
   gridtolerance="10"
   guidetolerance="10"
   inkscape:pageopacity="0"
   inkscape:pageshadow="2"
   inkscape:window-width="664"
   inkscape:window-height="487"
   id="namedview371"
   showgrid="false"
   inkscape:zoom="0.2102413"
   inkscape:cx="21.429922"
   inkscape:cy="43.388975"
   inkscape:window-x="0"
   inkscape:window-y="0"
   inkscape:window-maximized="0"
   inkscape:current-layer="svg369" />
 <defs
   class="ClipPathGroup"
   id="defs8">
  <clipPath
   id="presentation_clip_path"
   clipPathUnits="userSpaceOnUse">
   <rect
   x="0"
   y="0"
   width="21000"
   height="29700"
   id="rect2" />
  </clipPath>
  <clipPath
   id="presentation_clip_path_shrink"
   clipPathUnits="userSpaceOnUse">
   <rect
   x="21"
   y="29"
   width="20958"
   height="29641"
   id="rect5" />
  </clipPath>
 </defs>
 <defs
   class="TextShapeIndex"
   id="defs12">
  <g
   ooo:slide="id1"
   ooo:id-list="id3"
   id="g10" />
 </defs>
 <defs
   class="EmbeddedBulletChars"
   id="defs44">
  <g
   id="bullet-char-template-57356"
   transform="matrix(4.8828125e-4,0,0,-4.8828125e-4,0,0)">
   <path
   d="M 580,1141 1163,571 580,0 -4,571 Z"
   id="path14"
   inkscape:connector-curvature="0" />
  </g>
  <g
   id="bullet-char-template-57354"
   transform="matrix(4.8828125e-4,0,0,-4.8828125e-4,0,0)">
   <path
   d="M 8,1128 H 1137 V 0 H 8 Z"
   id="path17"
   inkscape:connector-curvature="0" />
  </g>
  <g
   id="bullet-char-template-10146"
   transform="matrix(4.8828125e-4,0,0,-4.8828125e-4,0,0)">
   <path
   d="M 174,0 602,739 174,1481 1456,739 Z M 1358,739 309,1346 659,739 Z"
   id="path20"
   inkscape:connector-curvature="0" />
  </g>
  <g
   id="bullet-char-template-10132"
   transform="matrix(4.8828125e-4,0,0,-4.8828125e-4,0,0)">
   <path
   d="M 2015,739 1276,0 H 717 l 543,543 H 174 v 393 h 1086 l -543,545 h 557 z"
   id="path23"
   inkscape:connector-curvature="0" />
  </g>
  <g
   id="bullet-char-template-10007"
   transform="matrix(4.8828125e-4,0,0,-4.8828125e-4,0,0)">
   <path
   d="m 0,-2 c -7,16 -16,29 -25,39 l 381,530 c -94,256 -141,385 -141,387 0,25 13,38 40,38 9,0 21,-2 34,-5 21,4 42,12 65,25 l 27,-13 111,-251 280,301 64,-25 24,25 c 21,-10 41,-24 62,-43 C 886,937 835,863 770,784 769,783 710,716 594,584 L 774,223 c 0,-27 -21,-55 -63,-84 l 16,-20 C 717,90 699,76 672,76 641,76 570,178 457,381 L 164,-76 c -22,-34 -53,-51 -92,-51 -42,0 -63,17 -64,51 -7,9 -10,24 -10,44 0,9 1,19 2,30 z"
   id="path26"
   inkscape:connector-curvature="0" />
  </g>
  <g
   id="bullet-char-template-10004"
   transform="matrix(4.8828125e-4,0,0,-4.8828125e-4,0,0)">
   <path
   d="M 285,-33 C 182,-33 111,30 74,156 52,228 41,333 41,471 c 0,78 14,145 41,201 34,71 87,106 158,106 53,0 88,-31 106,-94 l 23,-176 c 8,-64 28,-97 59,-98 l 735,706 c 11,11 33,17 66,17 42,0 63,-15 63,-46 V 965 c 0,-36 -10,-64 -30,-84 L 442,47 C 390,-6 338,-33 285,-33 Z"
   id="path29"
   inkscape:connector-curvature="0" />
  </g>
  <g
   id="bullet-char-template-9679"
   transform="matrix(4.8828125e-4,0,0,-4.8828125e-4,0,0)">
   <path
   d="M 813,0 C 632,0 489,54 383,161 276,268 223,411 223,592 c 0,181 53,324 160,431 106,107 249,161 430,161 179,0 323,-54 432,-161 108,-107 162,-251 162,-431 0,-180 -54,-324 -162,-431 C 1136,54 992,0 813,0 Z"
   id="path32"
   inkscape:connector-curvature="0" />
  </g>
  <g
   id="bullet-char-template-8226"
   transform="matrix(4.8828125e-4,0,0,-4.8828125e-4,0,0)">
   <path
   d="m 346,457 c -73,0 -137,26 -191,78 -54,51 -81,114 -81,188 0,73 27,136 81,188 54,52 118,78 191,78 73,0 134,-26 185,-79 51,-51 77,-114 77,-187 0,-75 -25,-137 -76,-188 -50,-52 -112,-78 -186,-78 z"
   id="path35"
   inkscape:connector-curvature="0" />
  </g>
  <g
   id="bullet-char-template-8211"
   transform="matrix(4.8828125e-4,0,0,-4.8828125e-4,0,0)">
   <path
   d="M -4,459 H 1135 V 606 H -4 Z"
   id="path38"
   inkscape:connector-curvature="0" />
  </g>
  <g
   id="bullet-char-template-61548"
   transform="matrix(4.8828125e-4,0,0,-4.8828125e-4,0,0)">
   <path
   d="m 173,740 c 0,163 58,303 173,419 116,115 255,173 419,173 163,0 302,-58 418,-173 116,-116 174,-256 174,-419 0,-163 -58,-303 -174,-418 C 1067,206 928,148 765,148 601,148 462,206 346,322 231,437 173,577 173,740 Z"
   id="path41"
   inkscape:connector-curvature="0" />
  </g>
 </defs>
 <g
   id="g49"
   transform="translate(-9933,-13702)">
  <g
   id="id2"
   class="Master_Slide">
   <g
   id="bg-id2"
   class="Background" />
   <g
   id="bo-id2"
   class="BackgroundObjects" />
  </g>
 </g>
 <g
   class="SlideGroup"
   id="g367"
   transform="translate(-9933,-13702)">
  <g
   id="g365">
   <g
   id="container-id1">
    <g
   id="id1"
   class="Slide"
   clip-path="url(#presentation_clip_path)">
     <g
   class="Page"
   id="g361">
      <g
   class="Graphic"
   id="g359">
       <g
   id="id3">
        <rect
   class="BoundingBox"
   x="9933"
   y="13702"
   width="1133"
   height="2296"
   id="rect51"
   style="fill:none;stroke:none" />
        <defs
   id="defs56">
         <clipPath
   id="clip_path_1"
   clipPathUnits="userSpaceOnUse">
          <path
   d="m 9933,13702 h 1132 v 2295 H 9933 Z"
   id="path53"
   inkscape:connector-curvature="0" />
         </clipPath>
        </defs>
        <g
   clip-path="url(#clip_path_1)"
   id="g356">
         <path
   d="m 10704,15914 -2,-5 -5,-3 -5,3 -3,5 z"
   id="path58"
   inkscape:connector-curvature="0"
   style="fill:#000000;stroke:none" />
         <path
   d="m 10946,15861 -33,23 -41,17 -40,11 -41,5 h -36 -30 l -18,-5 -3,2 h -15 l 13,13 23,5 30,5 36,-5 41,-5 46,-10 40,-18 39,-23 z"
   id="path60"
   inkscape:connector-curvature="0"
   style="fill:#000000;stroke:none" />
         <path
   d="m 10957,15876 5,-5 -3,-8 -5,-2 h -8 z"
   id="path62"
   inkscape:connector-curvature="0"
   style="fill:#000000;stroke:none" />
         <path
   d="m 10012,15797 2,-5 -2,-5 -5,-3 -5,3 z"
   id="path64"
   inkscape:connector-curvature="0"
   style="fill:#000000;stroke:none" />
         <path
   d="m 10101,15906 5,-15 -20,-13 -21,-12 -20,-13 -13,-18 -12,-15 -8,-10 v -10 -3 l -10,-10 -5,13 v 15 l 7,15 13,15 18,18 20,18 21,13 25,12 5,-15 z"
   id="path66"
   inkscape:connector-curvature="0"
   style="fill:#000000;stroke:none" />
         <path
   d="m 10223,15932 -2,-3 h -21 l -20,-7 -25,-10 -26,-11 -18,-7 -7,-5 -3,17 5,-15 -8,13 8,5 18,8 25,10 26,10 25,8 21,5 18,-8 z"
   id="path68"
   inkscape:connector-curvature="0"
   style="fill:#000000;stroke:none" />
         <path
   d="m 10239,15942 v -8 l -3,-5 -8,-2 -5,5 z"
   id="path70"
   inkscape:connector-curvature="0"
   style="fill:#000000;stroke:none" />
         <path
   d="m 10536,15144 8,-3 3,-7 -3,-8 -8,-3 z"
   id="path72"
   inkscape:connector-curvature="0"
   style="fill:#000000;stroke:none" />
         <path
   d="m 10452,15123 -2,3 5,10 10,5 8,3 h 10 10 13 15 15 v -21 h -15 -15 -13 -10 -10 l -8,3 h 5 v 0 l -2,2 2,-2 -2,-8 -8,-2 -8,2 -2,8 z"
   id="path74"
   inkscape:connector-curvature="0"
   style="fill:#000000;stroke:none" />
         <path
   d="m 10552,14933 v 0 l -13,17 -13,18 -12,18 -13,25 -13,23 -13,28 -12,28 -11,33 16,5 10,-33 13,-28 12,-28 13,-22 13,-21 13,-18 12,-17 13,-18 v 0 z"
   id="path76"
   inkscape:connector-curvature="0"
   style="fill:#000000;stroke:none" />
         <path
   d="m 10580,14770 v 0 l -3,43 5,36 -7,38 -23,46 15,10 23,-51 8,-43 v -36 l -3,-43 v 0 z"
   id="path78"
   inkscape:connector-curvature="0"
   style="fill:#000000;stroke:none" />
         <path
   d="m 10539,14551 v 0 l 25,49 13,55 3,62 v 53 h 15 l 5,-53 -8,-62 -12,-61 -26,-53 v 0 z"
   id="path80"
   inkscape:connector-curvature="0"
   style="fill:#000000;stroke:none" />
         <path
   d="m 10516,14371 v 0 l -18,18 -13,15 -5,18 v 17 l 5,23 13,26 18,30 23,33 15,-10 -23,-33 -17,-25 -13,-26 -5,-18 v -17 l 5,-13 7,-10 18,-13 v 0 z"
   id="path82"
   inkscape:connector-curvature="0"
   style="fill:#000000;stroke:none" />
         <path
   d="m 10585,14284 2,5 -10,18 -18,31 -43,33 10,15 44,-38 22,-31 11,-23 2,-10 z"
   id="path84"
   inkscape:connector-curvature="0"
   style="fill:#000000;stroke:none" />
         <path
   d="m 10605,14284 -2,-7 -8,-3 -8,3 -2,7 z"
   id="path86"
   inkscape:connector-curvature="0"
   style="fill:#000000;stroke:none" />
         <path
   d="m 10646,15131 -5,3 -3,5 3,5 5,2 z"
   id="path88"
   inkscape:connector-curvature="0"
   style="fill:#000000;stroke:none" />
         <path
   d="m 10875,15169 8,-2 -39,-6 -33,-2 -30,-5 -26,-5 -25,-5 -26,-5 -28,-5 -30,-3 v 15 l 30,3 28,5 26,5 25,5 26,5 30,5 33,3 39,5 7,-3 -7,3 5,-3 2,-5 -2,-5 -5,-2 z"
   id="path90"
   inkscape:connector-curvature="0"
   style="fill:#000000;stroke:none" />
         <path
   d="m 10809,14856 v 0 l 30,44 26,43 15,46 13,43 v 40 41 l -5,31 -13,25 15,10 13,-30 5,-36 5,-41 -5,-40 -13,-49 -15,-45 -25,-49 -31,-43 v 0 z"
   id="path92"
   inkscape:connector-curvature="0"
   style="fill:#000000;stroke:none" />
         <path
   d="m 10822,14503 -13,33 -15,38 -13,46 -10,46 -8,48 5,48 15,49 26,45 15,-10 -25,-40 -16,-44 v -48 l 3,-48 10,-46 13,-41 15,-38 13,-33 z"
   id="path94"
   inkscape:connector-curvature="0"
   style="fill:#000000;stroke:none" />
         <path
   d="m 10837,14508 v -8 l -5,-2 h -5 l -5,5 z"
   id="path96"
   inkscape:connector-curvature="0"
   style="fill:#000000;stroke:none" />
         <path
   d="m 10875,15179 -3,-5 -5,-2 -5,2 -2,5 z"
   id="path98"
   inkscape:connector-curvature="0"
   style="fill:#000000;stroke:none" />
         <path
   d="m 10862,15347 v 0 l 5,-36 5,-40 6,-43 -3,-49 h -15 l -3,49 v 43 l -5,40 -5,36 v 0 z"
   id="path100"
   inkscape:connector-curvature="0"
   style="fill:#000000;stroke:none" />
         <path
   d="m 10893,15439 v 2 l -10,-30 -11,-26 -7,-18 -3,-20 h -15 l 3,20 7,23 10,26 11,25 v 3 z"
   id="path102"
   inkscape:connector-curvature="0"
   style="fill:#000000;stroke:none" />
         <path
   d="m 10916,15614 v 0 l 5,-64 -8,-48 -10,-38 -10,-25 -15,5 10,25 10,33 3,48 v 64 0 z"
   id="path104"
   inkscape:connector-curvature="0"
   style="fill:#000000;stroke:none" />
         <path
   d="m 10951,15838 v 0 l -20,-33 -13,-54 -2,-63 v -74 h -15 l -6,74 8,63 13,59 20,38 v 0 z"
   id="path106"
   inkscape:connector-curvature="0"
   style="fill:#000000;stroke:none" />
         <path
   d="m 10979,15912 v 0 l -2,-13 -5,-21 -8,-17 -13,-23 -15,10 13,18 8,18 5,15 -3,13 v 0 z"
   id="path108"
   inkscape:connector-curvature="0"
   style="fill:#000000;stroke:none" />
         <path
   d="m 10921,15967 v 0 l 30,-7 21,-15 5,-21 2,-12 h -20 l 3,12 -5,10 -11,11 -25,7 v 0 z"
   id="path110"
   inkscape:connector-curvature="0"
   style="fill:#000000;stroke:none" />
         <path
   d="m 10750,15973 v 0 h 10 l 18,-3 21,3 h 25 26 25 l 26,-3 20,-3 v -15 l -20,-2 -26,2 h -25 -26 -25 l -21,3 -18,2 h -10 v 0 z"
   id="path112"
   inkscape:connector-curvature="0"
   style="fill:#000000;stroke:none" />
         <path
   d="m 10633,15937 v 0 l -10,15 10,15 21,6 20,5 h 23 l 23,-3 18,-2 h 12 v -16 h -12 l -18,3 -23,-3 h -23 -20 l -11,-5 v 0 -5 0 z"
   id="path114"
   inkscape:connector-curvature="0"
   style="fill:#000000;stroke:none" />
         <path
   d="m 10822,15848 v 3 l -11,7 -20,8 -28,12 -28,11 -31,10 -28,13 -25,10 -18,15 10,10 13,-10 26,-10 28,-13 30,-10 28,-10 28,-13 20,-8 16,-12 v 2 z"
   id="path116"
   inkscape:connector-curvature="0"
   style="fill:#000000;stroke:none" />
         <path
   d="m 10816,15736 v 0 l 6,28 5,36 v 33 l -5,15 10,15 10,-30 v -33 l -5,-36 -5,-28 v 0 z"
   id="path118"
   inkscape:connector-curvature="0"
   style="fill:#000000;stroke:none" />
         <path
   d="m 10766,15502 v 0 l 15,48 15,62 13,66 7,58 h 16 l -8,-58 -13,-66 -15,-67 -15,-48 v 0 z"
   id="path120"
   inkscape:connector-curvature="0"
   style="fill:#000000;stroke:none" />
         <path
   d="m 10730,15444 v 0 l 8,7 7,11 10,12 11,28 15,-5 -10,-28 -11,-18 -7,-10 -8,-7 v 0 z"
   id="path122"
   inkscape:connector-curvature="0"
   style="fill:#000000;stroke:none" />
         <path
   d="m 10689,15164 v 51 l 5,81 10,84 26,64 15,-10 -25,-54 -10,-84 v -81 -51 z"
   id="path124"
   inkscape:connector-curvature="0"
   style="fill:#000000;stroke:none" />
         <path
   d="m 10710,15164 -3,-8 -8,-2 -7,2 -3,8 z"
   id="path126"
   inkscape:connector-curvature="0"
   style="fill:#000000;stroke:none" />
         <path
   d="m 10468,15128 v -7 l -5,-3 h -6 l -5,5 z"
   id="path128"
   inkscape:connector-curvature="0"
   style="fill:#000000;stroke:none" />
         <path
   d="m 10366,15309 15,10 8,-13 10,-17 10,-21 13,-23 13,-25 10,-28 12,-31 11,-33 -16,-5 -10,33 -13,31 -10,28 -12,25 -13,23 -10,21 -11,12 -7,13 15,10 z"
   id="path130"
   inkscape:connector-curvature="0"
   style="fill:#000000;stroke:none" />
         <path
   d="m 10343,15423 v 0 l 2,-28 18,-43 18,-33 -15,-10 15,10 -15,-5 -18,33 -18,43 -2,38 v 0 z"
   id="path132"
   inkscape:connector-curvature="0"
   style="fill:#000000;stroke:none" />
         <path
   d="m 10231,15759 v 0 l 20,-33 23,-43 21,-49 20,-50 15,-51 10,-46 8,-38 -5,-26 -15,5 v 21 l -3,38 -10,41 -15,50 -21,51 -20,49 -23,38 -20,33 v 0 z"
   id="path134"
   inkscape:connector-curvature="0"
   style="fill:#000000;stroke:none" />
         <path
   d="m 10014,15795 v 0 l 28,10 28,10 28,5 26,3 25,-6 28,-12 26,-18 28,-28 -15,-10 -23,23 -26,18 -23,12 h -20 l -26,3 -22,-5 -28,-10 -28,-11 v 0 z"
   id="path136"
   inkscape:connector-curvature="0"
   style="fill:#000000;stroke:none" />
         <path
   d="m 9943,15787 v 0 -8 3 l 5,-3 5,-2 h 13 l 13,5 15,5 20,8 6,-16 -21,-7 -15,-5 -18,-5 h -13 l -10,2 -10,3 -5,12 v 8 0 z"
   id="path138"
   inkscape:connector-curvature="0"
   style="fill:#000000;stroke:none" />
         <path
   d="m 10032,15896 v 0 l -15,-7 -13,-8 -15,-10 -10,-15 -13,-18 -10,-15 -8,-18 -5,-18 h -15 l 5,23 8,18 10,20 13,18 15,15 15,15 18,8 15,8 v 0 z"
   id="path140"
   inkscape:connector-curvature="0"
   style="fill:#000000;stroke:none" />
         <path
   d="m 10144,15962 v -2 l -7,-10 -13,-13 -13,-8 -15,-10 -18,-7 -15,-6 -15,-5 -16,-5 -5,16 15,5 16,5 15,5 13,7 15,11 13,7 7,8 8,10 v -3 z"
   id="path142"
   inkscape:connector-curvature="0"
   style="fill:#000000;stroke:none" />
         <path
   d="m 10213,15962 v 0 l -5,8 -8,5 -10,5 h -13 l -10,-2 -10,-5 -8,-6 -5,-5 -15,5 10,16 13,5 10,5 15,2 h 13 l 15,-5 13,-10 10,-13 v 0 z"
   id="path144"
   inkscape:connector-curvature="0"
   style="fill:#000000;stroke:none" />
         <path
   d="m 10241,15891 v 0 15 l -5,16 -10,18 -13,22 15,5 13,-22 10,-18 5,-21 v -15 0 z"
   id="path146"
   inkscape:connector-curvature="0"
   style="fill:#000000;stroke:none" />
         <path
   d="m 10287,15800 v 0 l -20,20 -16,25 -10,28 v 18 h 15 v -18 l 11,-22 15,-21 15,-20 v 0 z"
   id="path148"
   inkscape:connector-curvature="0"
   style="fill:#000000;stroke:none" />
         <path
   d="m 10343,15736 v 0 l -23,26 -10,12 -8,10 -15,16 10,10 15,-15 8,-11 15,-12 18,-26 v 0 z"
   id="path150"
   inkscape:connector-curvature="0"
   style="fill:#000000;stroke:none" />
         <path
   d="m 10440,15515 v 0 25 l -8,28 -13,33 -12,31 -18,33 -16,25 -17,26 -13,20 10,10 18,-20 18,-25 15,-31 18,-33 13,-31 12,-33 8,-33 5,-25 v 0 z"
   id="path152"
   inkscape:connector-curvature="0"
   style="fill:#000000;stroke:none" />
         <path
   d="m 10498,15370 v 0 l -20,38 -18,38 -13,36 -7,33 h 20 l 3,-28 12,-36 18,-38 21,-33 v 0 z"
   id="path154"
   inkscape:connector-curvature="0"
   style="fill:#000000;stroke:none" />
         <path
   d="m 10549,15291 v -2 l -10,15 -15,23 -13,23 -13,20 16,10 12,-20 13,-23 15,-23 10,-15 v -3 z"
   id="path156"
   inkscape:connector-curvature="0"
   style="fill:#000000;stroke:none" />
         <path
   d="m 10712,15141 -20,15 -23,18 -23,21 -23,17 -23,23 -20,21 -18,17 -13,18 15,5 13,-12 13,-18 20,-21 23,-17 23,-18 23,-21 23,-17 20,-21 z"
   id="path158"
   inkscape:connector-curvature="0"
   style="fill:#000000;stroke:none" />
         <path
   d="m 10722,15151 3,-5 -3,-5 -5,-2 -5,2 z"
   id="path160"
   inkscape:connector-curvature="0"
   style="fill:#000000;stroke:none" />
         <path
   d="m 10659,13951 -3,-5 -5,-2 -5,2 -3,5 z"
   id="path162"
   inkscape:connector-curvature="0"
   style="fill:#000000;stroke:none" />
         <path
   d="m 10587,13794 8,10 25,10 16,18 10,30 v 36 33 l -3,23 16,7 v -10 h -16 l -5,10 21,-7 2,-23 5,-33 -5,-36 -10,-35 -20,-28 -36,-11 8,11 -8,-13 -8,2 -2,8 2,8 8,2 z"
   id="path164"
   inkscape:connector-curvature="0"
   style="fill:#000000;stroke:none" />
         <path
   d="m 10791,13760 v 0 l -8,-22 -23,-16 -25,-7 h -31 l -33,7 -33,13 -25,25 -26,34 16,5 20,-28 25,-21 28,-12 28,-8 h 31 l 20,8 13,10 8,12 v 0 z"
   id="path166"
   inkscape:connector-curvature="0"
   style="fill:#000000;stroke:none" />
         <path
   d="m 10778,13880 v 3 l -2,-18 2,-31 8,-35 5,-39 h -15 l -5,39 -8,35 -8,31 13,28 v 2 z"
   id="path168"
   inkscape:connector-curvature="0"
   style="fill:#000000;stroke:none" />
         <path
   d="m 10837,13956 v 0 l -10,-15 -13,-20 -15,-21 -21,-20 -10,15 15,15 16,21 12,20 11,15 v 0 z"
   id="path170"
   inkscape:connector-curvature="0"
   style="fill:#000000;stroke:none" />
         <path
   d="m 10822,14050 h 7 l 13,-20 8,-25 -6,-26 -7,-23 -15,10 7,13 v 26 l -2,20 -8,10 h 8 -8 l -5,5 2,5 6,5 h 7 z"
   id="path172"
   inkscape:connector-curvature="0"
   style="fill:#000000;stroke:none" />
         <path
   d="m 10684,13999 -5,21 13,15 20,5 23,5 h 25 l 26,3 23,-3 13,5 5,-15 -18,-5 -23,-3 -26,-2 h -25 -23 l -15,-5 h -3 l 5,-10 z"
   id="path174"
   inkscape:connector-curvature="0"
   style="fill:#000000;stroke:none" />
         <path
   d="m 10699,14010 v -8 l -2,-5 -8,-3 -5,5 z"
   id="path176"
   inkscape:connector-curvature="0"
   style="fill:#000000;stroke:none" />
         <path
   d="m 10898,14485 v 0 l 10,-20 5,-15 -2,-16 -8,-18 -15,6 7,17 3,11 -5,10 -10,15 v 0 z"
   id="path178"
   inkscape:connector-curvature="0"
   style="fill:#000000;stroke:none" />
         <path
   d="m 10921,14556 v 0 l -13,-17 -10,-18 -5,-21 5,-15 -15,-10 -11,25 11,26 10,23 13,17 v 0 z"
   id="path180"
   inkscape:connector-curvature="0"
   style="fill:#000000;stroke:none" />
         <path
   d="m 10949,14539 v 0 12 l -8,5 -15,5 -5,-5 -15,10 20,11 20,-5 18,-16 v -23 0 z"
   id="path182"
   inkscape:connector-curvature="0"
   style="fill:#000000;stroke:none" />
         <path
   d="m 10997,14480 v 0 l -5,13 -18,10 -20,13 -5,23 15,-6 v -7 l 21,-8 17,-15 16,-23 v 0 z"
   id="path184"
   inkscape:connector-curvature="0"
   style="fill:#000000;stroke:none" />
         <path
   d="m 11013,14422 v 0 10 l -6,10 -5,18 -5,20 h 21 v -20 l 5,-13 5,-15 v -16 0 z"
   id="path186"
   inkscape:connector-curvature="0"
   style="fill:#000000;stroke:none" />
         <path
   d="m 11038,14330 v 0 l -10,25 -10,26 -5,23 v 18 l 15,-6 v -12 l 5,-18 10,-25 10,-26 v 0 z"
   id="path188"
   inkscape:connector-curvature="0"
   style="fill:#000000;stroke:none" />
         <path
   d="m 11033,14251 v 0 l 10,15 3,18 v 23 l -8,23 15,5 8,-28 5,-23 -8,-23 -10,-20 v 0 z"
   id="path190"
   inkscape:connector-curvature="0"
   style="fill:#000000;stroke:none" />
         <path
   d="m 11051,14137 v 2 l -8,21 -10,30 -10,33 10,28 15,-10 -5,-18 5,-28 10,-30 8,-26 v 3 z"
   id="path192"
   inkscape:connector-curvature="0"
   style="fill:#000000;stroke:none" />
         <path
   d="m 11023,14040 v 0 l 15,23 13,28 v 25 21 l 15,5 5,-26 -5,-30 -13,-28 -20,-28 v 0 z"
   id="path194"
   inkscape:connector-curvature="0"
   style="fill:#000000;stroke:none" />
         <path
   d="m 11013,13946 v 0 23 l -6,20 v 26 l 16,25 10,-10 -10,-20 v -21 l 5,-20 5,-23 v 0 z"
   id="path196"
   inkscape:connector-curvature="0"
   style="fill:#000000;stroke:none" />
         <path
   d="m 10969,13885 v 0 l 16,13 15,12 10,16 3,20 h 20 l -8,-25 -10,-21 -20,-17 -21,-13 v 0 z"
   id="path198"
   inkscape:connector-curvature="0"
   style="fill:#000000;stroke:none" />
         <path
   d="m 10946,13799 v 0 25 l 3,23 5,20 15,18 5,-15 -5,-8 -5,-15 3,-23 -5,-25 v 0 z"
   id="path200"
   inkscape:connector-curvature="0"
   style="fill:#000000;stroke:none" />
         <path
   d="m 10890,13743 v 0 l 33,12 16,8 5,13 2,23 h 16 l -3,-23 -10,-23 -20,-13 -34,-13 v 0 z"
   id="path202"
   inkscape:connector-curvature="0"
   style="fill:#000000;stroke:none" />
         <path
   d="m 10814,13753 -5,7 15,-7 8,-5 7,-5 5,-5 6,-3 h 10 l 15,3 15,5 5,-16 -20,-5 -15,-2 h -10 l -11,2 -10,5 -7,6 -8,5 -10,7 -5,8 5,-8 -5,3 v 7 l 2,5 h 8 z"
   id="path204"
   inkscape:connector-curvature="0"
   style="fill:#000000;stroke:none" />
         <path
   d="m 10796,13860 v 0 -23 l 8,-36 7,-33 3,-15 h -15 l -3,15 -8,33 -7,36 v 28 0 z"
   id="path206"
   inkscape:connector-curvature="0"
   style="fill:#000000;stroke:none" />
         <path
   d="m 10837,13910 h -3 l -2,-5 -13,-15 -13,-18 -10,-12 -15,5 10,18 13,17 12,16 8,5 h -2 2 5 l 5,-3 3,-2 -3,-6 z"
   id="path208"
   inkscape:connector-curvature="0"
   style="fill:#000000;stroke:none" />
         <path
   d="m 10860,13972 v 0 l -5,-21 -8,-18 -8,-15 -2,-8 -15,11 2,2 8,15 7,18 v 16 0 z"
   id="path210"
   inkscape:connector-curvature="0"
   style="fill:#000000;stroke:none" />
         <path
   d="m 10860,14030 v -3 l 2,-5 -2,-12 -3,-18 3,-20 h -21 l 3,20 2,18 -2,12 2,5 v -2 2 l 3,6 5,2 5,-2 3,-6 z"
   id="path212"
   inkscape:connector-curvature="0"
   style="fill:#000000;stroke:none" />
         <path
   d="m 10839,14134 v 0 l -2,-28 2,-23 11,-28 10,-25 -16,-5 -10,25 -10,28 -8,28 8,33 v 0 z"
   id="path214"
   inkscape:connector-curvature="0"
   style="fill:#000000;stroke:none" />
         <path
   d="m 10857,14238 v -2 l 5,-25 -5,-23 -7,-26 -11,-28 -15,5 10,28 8,21 v 23 25 -3 z"
   id="path216"
   inkscape:connector-curvature="0"
   style="fill:#000000;stroke:none" />
         <path
   d="m 10850,14307 v 0 l -8,-10 2,-15 6,-18 7,-26 -15,-5 -8,26 -5,23 -2,15 7,20 v 0 z"
   id="path218"
   inkscape:connector-curvature="0"
   style="fill:#000000;stroke:none" />
         <path
   d="m 10852,14368 v 3 l 5,-13 5,-18 -5,-15 -7,-18 -16,10 8,13 v 10 13 l -5,13 v 2 z"
   id="path220"
   inkscape:connector-curvature="0"
   style="fill:#000000;stroke:none" />
         <path
   d="m 10890,14409 -2,-3 -18,-2 -10,-10 -8,-11 v -15 h -15 v 15 l 7,21 21,15 23,8 -3,-3 3,3 7,-3 3,-8 -3,-7 -7,-3 z"
   id="path222"
   inkscape:connector-curvature="0"
   style="fill:#000000;stroke:none" />
         <path
   d="m 10903,14416 -5,-5 -8,-2 -5,15 8,3 -5,-5 5,5 h 8 l 2,-5 v -8 l -5,-3 z"
   id="path224"
   inkscape:connector-curvature="0"
   style="fill:#000000;stroke:none" />
         <path
   d="m 10799,14605 -5,2 -3,5 3,5 5,3 z"
   id="path226"
   inkscape:connector-curvature="0"
   style="fill:#000000;stroke:none" />
         <path
   d="m 10936,14589 h -5 l -10,3 -18,2 -20,6 -23,2 h -23 -21 l -17,3 v 15 l 17,2 h 21 l 23,-5 23,-2 20,-5 18,-3 10,-2 h 5 z"
   id="path228"
   inkscape:connector-curvature="0"
   style="fill:#000000;stroke:none" />
         <path
   d="m 10936,14605 5,-3 3,-5 -3,-5 -5,-3 z"
   id="path230"
   inkscape:connector-curvature="0"
   style="fill:#000000;stroke:none" />
         <path
   d="m 10710,14099 v -8 l -6,-3 h -5 l -5,6 z"
   id="path232"
   inkscape:connector-curvature="0"
   style="fill:#000000;stroke:none" />
         <path
   d="m 10676,14124 h -2 l 10,-5 10,-5 8,-5 8,-10 -16,-5 -2,5 h -3 l -10,5 -10,5 h -3 z"
   id="path234"
   inkscape:connector-curvature="0"
   style="fill:#000000;stroke:none" />
         <path
   d="m 10613,14147 v 0 l 18,-5 17,-3 16,-7 12,-8 -10,-15 -12,7 -11,8 -12,3 h -18 v 0 z"
   id="path236"
   inkscape:connector-curvature="0"
   style="fill:#000000;stroke:none" />
         <path
   d="m 10552,14091 v 0 l 10,15 18,16 12,17 21,8 v -20 l -10,-3 -13,-13 -13,-15 -10,-15 v 0 z"
   id="path238"
   inkscape:connector-curvature="0"
   style="fill:#000000;stroke:none" />
         <path
   d="m 10536,13982 -12,30 5,33 13,28 10,18 15,-10 -10,-13 -13,-28 -5,-28 8,-20 z"
   id="path240"
   inkscape:connector-curvature="0"
   style="fill:#000000;stroke:none" />
         <path
   d="m 10547,13992 2,-5 -2,-5 -5,-3 -6,3 z"
   id="path242"
   inkscape:connector-curvature="0"
   style="fill:#000000;stroke:none" />
         <path
   d="m 10534,13972 2,7 8,3 8,-3 2,-7 z"
   id="path244"
   inkscape:connector-curvature="0"
   style="fill:#000000;stroke:none" />
         <path
   d="m 10534,13926 h -3 l 3,12 2,13 -2,13 v 8 h 20 v -8 l -2,-13 -3,-13 3,-12 h -3 3 l -3,-8 -7,-2 -8,2 -3,8 z"
   id="path246"
   inkscape:connector-curvature="0"
   style="fill:#000000;stroke:none" />
         <path
   d="m 10592,13788 -30,23 -20,33 -8,41 v 41 h 15 v -41 l 8,-36 15,-27 26,-18 z"
   id="path248"
   inkscape:connector-curvature="0"
   style="fill:#000000;stroke:none" />
         <path
   d="m 10598,13804 5,-5 v -5 l -3,-6 h -8 z"
   id="path250"
   inkscape:connector-curvature="0"
   style="fill:#000000;stroke:none" />
         <path
   d="m 10832,14147 7,-3 3,-7 -3,-8 -7,-2 z"
   id="path252"
   inkscape:connector-curvature="0"
   style="fill:#000000;stroke:none" />
         <path
   d="m 10806,14165 h 3 v -8 l 5,-5 8,-5 h 10 v -20 l -16,5 -12,5 -10,15 -6,13 h 3 z"
   id="path254"
   inkscape:connector-curvature="0"
   style="fill:#000000;stroke:none" />
         <path
   d="m 10847,14183 -18,5 -10,-8 -8,-8 -5,-7 h -15 l 5,18 13,12 20,8 23,-5 z"
   id="path256"
   inkscape:connector-curvature="0"
   style="fill:#000000;stroke:none" />
         <path
   d="m 10852,14198 5,-5 v -5 l -2,-5 h -8 z"
   id="path258"
   inkscape:connector-curvature="0"
   style="fill:#000000;stroke:none" />
         <path
   d="m 10786,14185 h 2 v 8 l -5,5 -7,5 h -10 v 20 l 15,-5 13,-5 10,-15 v -13 h 2 z"
   id="path260"
   inkscape:connector-curvature="0"
   style="fill:#000000;stroke:none" />
         <path
   d="m 10763,14167 v 3 h 10 l 8,5 5,2 v 8 h 20 l -5,-13 -10,-12 -13,-5 -15,-5 v 2 z"
   id="path262"
   inkscape:connector-curvature="0"
   style="fill:#000000;stroke:none" />
         <path
   d="m 10743,14190 h -3 v -7 l 5,-8 8,-5 10,-3 v -15 l -15,3 -13,10 -10,12 v 13 h -3 z"
   id="path264"
   inkscape:connector-curvature="0"
   style="fill:#000000;stroke:none" />
         <path
   d="m 10766,14203 v 2 h -13 l -5,-5 -5,-2 v -8 h -21 l 5,13 11,13 15,5 h 13 v 2 z"
   id="path266"
   inkscape:connector-curvature="0"
   style="fill:#000000;stroke:none" />
         <path
   d="m 10717,14195 v 0 8 l -2,8 -8,2 h -10 v 20 l 15,-5 13,-7 7,-13 6,-13 v 0 z"
   id="path268"
   inkscape:connector-curvature="0"
   style="fill:#000000;stroke:none" />
         <path
   d="m 10692,14183 v -3 h 12 l 8,5 5,3 v 7 h 21 l -6,-12 -10,-13 -18,-5 h -12 v -3 z"
   id="path270"
   inkscape:connector-curvature="0"
   style="fill:#000000;stroke:none" />
         <path
   d="m 10669,14200 h 2 v -7 l 3,-8 8,-2 h 10 v -21 l -16,5 -12,8 -8,13 -5,12 h 3 z"
   id="path272"
   inkscape:connector-curvature="0"
   style="fill:#000000;stroke:none" />
         <path
   d="m 10697,14213 v 3 h -13 l -5,-5 -5,-6 -5,-5 h -15 l 5,16 10,10 15,5 h 13 v 2 z"
   id="path274"
   inkscape:connector-curvature="0"
   style="fill:#000000;stroke:none" />
         <path
   d="m 10654,14180 5,-3 2,-5 -2,-5 -5,-2 z"
   id="path276"
   inkscape:connector-curvature="0"
   style="fill:#000000;stroke:none" />
         <path
   d="m 10633,14203 h -2 v -8 l 5,-7 7,-5 11,-3 v -15 l -16,2 -12,10 -11,13 v 13 h -2 z"
   id="path278"
   inkscape:connector-curvature="0"
   style="fill:#000000;stroke:none" />
         <path
   d="m 10656,14218 h -13 l -5,-5 -5,-2 v -8 h -20 l 5,13 10,12 15,5 h 13 z"
   id="path280"
   inkscape:connector-curvature="0"
   style="fill:#000000;stroke:none" />
         <path
   d="m 10656,14233 5,-2 3,-5 -3,-5 -5,-3 z"
   id="path282"
   inkscape:connector-curvature="0"
   style="fill:#000000;stroke:none" />
         <path
   d="m 10659,13938 v 8 l 5,5 5,3 5,-5 z"
   id="path284"
   inkscape:connector-curvature="0"
   style="fill:#000000;stroke:none" />
         <path
   d="m 10699,13999 16,-20 5,-18 -3,-12 -13,-13 -12,-3 -10,-5 -13,5 -10,5 15,11 v 0 h 8 10 l 7,2 3,3 2,7 -5,13 -10,15 z"
   id="path286"
   inkscape:connector-curvature="0"
   style="fill:#000000;stroke:none" />
         <path
   d="m 10689,13989 v 5 l 3,3 2,2 h 5 z"
   id="path288"
   inkscape:connector-curvature="0"
   style="fill:#000000;stroke:none" />
         <path
   d="m 10687,14261 5,-2 2,-5 -2,-5 -5,-3 z"
   id="path290"
   inkscape:connector-curvature="0"
   style="fill:#000000;stroke:none" />
         <path
   d="m 10613,14432 v 0 l -10,-46 v -41 l 2,-30 10,-23 13,-15 18,-13 18,-3 h 23 v -15 l -23,-5 -23,8 -23,12 -18,21 -10,28 -8,35 5,41 11,51 v 0 z"
   id="path292"
   inkscape:connector-curvature="0"
   style="fill:#000000;stroke:none" />
         <path
   d="m 10638,14643 v 0 l -7,-46 -5,-66 -6,-59 -7,-40 -15,5 7,35 5,59 5,66 8,51 v 0 z"
   id="path294"
   inkscape:connector-curvature="0"
   style="fill:#000000;stroke:none" />
         <path
   d="m 10603,14986 v 3 l 30,-87 15,-96 v -95 l -10,-68 -15,5 10,63 v 95 l -15,96 -31,76 v 3 z"
   id="path296"
   inkscape:connector-curvature="0"
   style="fill:#000000;stroke:none" />
         <path
   d="m 10572,15032 v -3 l 8,-7 7,-11 8,-10 8,-15 -16,-5 -7,10 -8,10 -8,10 -7,13 v -2 z"
   id="path298"
   inkscape:connector-curvature="0"
   style="fill:#000000;stroke:none" />
         <path
   d="m 10549,15098 v -3 l 3,-12 5,-16 5,-20 10,-15 -15,-10 -10,20 -5,20 -6,21 -2,12 v -2 z"
   id="path300"
   inkscape:connector-curvature="0"
   style="fill:#000000;stroke:none" />
         <path
   d="m 10544,15154 v 2 l 3,-15 2,-18 -2,-15 2,-10 -15,-5 -3,15 -2,15 2,18 -2,10 v 3 z"
   id="path302"
   inkscape:connector-curvature="0"
   style="fill:#000000;stroke:none" />
         <path
   d="m 10554,15167 3,2 -5,-8 -8,-2 v 2 -7 h -15 v 13 l 10,7 3,3 5,2 2,3 z"
   id="path304"
   inkscape:connector-curvature="0"
   style="fill:#000000;stroke:none" />
         <path
   d="m 10598,15187 h 5 l -5,-3 -16,-5 -15,-7 -13,-5 -5,15 13,5 15,8 15,5 6,2 h 5 -5 7 l 3,-5 v -8 l -5,-2 z"
   id="path306"
   inkscape:connector-curvature="0"
   style="fill:#000000;stroke:none" />
         <path
   d="m 10620,15177 v 0 h -2 l -8,5 -7,2 -5,3 5,15 5,-2 7,-3 13,-5 8,-15 v 0 z"
   id="path308"
   inkscape:connector-curvature="0"
   style="fill:#000000;stroke:none" />
         <path
   d="m 10646,15118 v -2 l -8,15 -7,15 -5,15 -6,16 h 16 l 5,-10 5,-16 8,-15 7,-10 v -3 z"
   id="path310"
   inkscape:connector-curvature="0"
   style="fill:#000000;stroke:none" />
         <path
   d="m 10671,15072 v -2 l -2,5 -8,13 -10,18 -5,12 15,5 5,-12 10,-13 8,-18 3,-5 v -3 3 -8 l -5,-2 h -6 l -5,5 z"
   id="path312"
   inkscape:connector-curvature="0"
   style="fill:#000000;stroke:none" />
         <path
   d="m 10669,15011 v 8 -2 l 2,10 v 18 27 h 16 l 5,-27 -5,-18 -3,-10 v -8 8 -8 l -5,-5 -5,2 -5,5 v 8 z"
   id="path314"
   inkscape:connector-curvature="0"
   style="fill:#000000;stroke:none" />
         <path
   d="m 10702,14933 v 0 l -13,28 -10,25 -8,18 -2,7 15,6 3,-8 7,-18 10,-25 13,-28 v 0 z"
   id="path316"
   inkscape:connector-curvature="0"
   style="fill:#000000;stroke:none" />
         <path
   d="m 10735,14717 v 0 55 l -8,64 -10,56 -15,41 15,5 15,-46 11,-56 7,-64 5,-55 v 0 z"
   id="path318"
   inkscape:connector-curvature="0"
   style="fill:#000000;stroke:none" />
         <path
   d="m 10740,14592 v 0 23 25 l -5,33 v 44 h 20 v -44 -33 l 5,-25 v -23 0 z"
   id="path320"
   inkscape:connector-curvature="0"
   style="fill:#000000;stroke:none" />
         <path
   d="m 10738,14378 2,59 v 56 56 43 h 20 v -43 -56 l -5,-56 -2,-59 z"
   id="path322"
   inkscape:connector-curvature="0"
   style="fill:#000000;stroke:none" />
         <path
   d="m 10753,14378 -3,-5 -5,-2 -5,2 -2,5 z"
   id="path324"
   inkscape:connector-curvature="0"
   style="fill:#000000;stroke:none" />
         <path
   d="m 10613,14948 -5,2 -3,6 3,5 5,2 z"
   id="path326"
   inkscape:connector-curvature="0"
   style="fill:#000000;stroke:none" />
         <path
   d="m 10702,14983 -8,-12 -10,-10 -13,-5 -12,-3 -11,-3 -10,-2 -12,2 -13,-2 v 15 l 13,3 12,2 10,-2 11,2 7,3 8,5 5,5 8,8 z"
   id="path328"
   inkscape:connector-curvature="0"
   style="fill:#000000;stroke:none" />
         <path
   d="m 10687,14989 5,5 h 5 l 5,-3 v -8 z"
   id="path330"
   inkscape:connector-curvature="0"
   style="fill:#000000;stroke:none" />
         <path
   d="m 10587,14732 -5,2 -2,5 2,5 5,3 z"
   id="path332"
   inkscape:connector-curvature="0"
   style="fill:#000000;stroke:none" />
         <path
   d="m 10628,14732 v 0 l -10,2 h -13 l -18,-2 v 15 l 18,3 h 13 l 10,-3 h 5 z"
   id="path334"
   inkscape:connector-curvature="0"
   style="fill:#000000;stroke:none" />
         <path
   d="m 10633,14747 5,-5 v -5 l -2,-5 h -8 z"
   id="path336"
   inkscape:connector-curvature="0"
   style="fill:#000000;stroke:none" />
         <path
   d="m 10750,14724 -7,3 -3,7 3,8 7,2 z"
   id="path338"
   inkscape:connector-curvature="0"
   style="fill:#000000;stroke:none" />
         <path
   d="m 10773,14724 h -2 -5 -8 -8 v 20 h 8 8 5 2 z"
   id="path340"
   inkscape:connector-curvature="0"
   style="fill:#000000;stroke:none" />
         <path
   d="m 10773,14744 8,-2 2,-8 -2,-7 -8,-3 z"
   id="path342"
   inkscape:connector-curvature="0"
   style="fill:#000000;stroke:none" />
         <path
   d="m 10957,14556 -3,-5 h -8 l -5,3 v 7 z"
   id="path344"
   inkscape:connector-curvature="0"
   style="fill:#000000;stroke:none" />
         <path
   d="m 10959,14582 8,5 -10,-31 -16,5 10,31 8,5 -8,-5 6,5 h 5 l 5,-3 v -7 z"
   id="path346"
   inkscape:connector-curvature="0"
   style="fill:#000000;stroke:none" />
         <path
   d="m 11051,14783 h 2 l -5,-28 -2,-33 -8,-33 -10,-31 -13,-25 -13,-26 -20,-18 -23,-7 v 15 l 13,8 15,12 13,21 13,25 10,31 7,28 3,33 v 28 h 2 z"
   id="path348"
   inkscape:connector-curvature="0"
   style="fill:#000000;stroke:none" />
         <path
   d="m 10967,14864 v 0 h 12 l 13,-3 15,-2 13,-5 10,-10 13,-16 5,-20 3,-25 h -16 l -2,25 -5,15 -8,10 -10,6 -8,5 -10,2 -13,3 h -12 v 0 z"
   id="path350"
   inkscape:connector-curvature="0"
   style="fill:#000000;stroke:none" />
         <path
   d="m 10842,14869 5,3 h 10 l 15,-3 21,-2 20,2 21,-2 17,-3 h 16 v -15 h -16 l -17,2 -21,-2 -20,2 -21,3 -15,-3 h -10 l -5,3 z"
   id="path352"
   inkscape:connector-curvature="0"
   style="fill:#000000;stroke:none" />
         <path
   d="m 10842,14851 -8,3 -2,7 2,8 8,3 z"
   id="path354"
   inkscape:connector-curvature="0"
   style="fill:#000000;stroke:none" />
        </g>
       </g>
      </g>
     </g>
    </g>
   </g>
  </g>
 </g>
</svg>