<?xml version="1.0" encoding="UTF-8" standalone="no"?>
<svg
   xmlns:ooo="http://xml.openoffice.org/svg/export"
   xmlns:dc="http://purl.org/dc/elements/1.1/"
   xmlns:cc="http://creativecommons.org/ns#"
   xmlns:rdf="http://www.w3.org/1999/02/22-rdf-syntax-ns#"
   xmlns:svg="http://www.w3.org/2000/svg"
   xmlns="http://www.w3.org/2000/svg"
   xmlns:sodipodi="http://sodipodi.sourceforge.net/DTD/sodipodi-0.dtd"
   xmlns:inkscape="http://www.inkscape.org/namespaces/inkscape"
   version="1.2"
   width="33.73mm"
   height="33.93mm"
   viewBox="0 0 3373 3393"
   preserveAspectRatio="xMidYMid"
   xml:space="preserve"
   id="svg138"
   sodipodi:docname="washer.svg"
   style="fill-rule:evenodd;stroke-width:28.22200012;stroke-linejoin:round"
   inkscape:version="0.92.5 (2060ec1f9f, 2020-04-08)"><metadata
   id="metadata142"><rdf:RDF><cc:Work
       rdf:about=""><dc:format>image/svg+xml</dc:format><dc:type
         rdf:resource="http://purl.org/dc/dcmitype/StillImage" /></cc:Work></rdf:RDF></metadata><sodipodi:namedview
   pagecolor="#ffffff"
   bordercolor="#666666"
   borderopacity="1"
   objecttolerance="10"
   gridtolerance="10"
   guidetolerance="10"
   inkscape:pageopacity="0"
   inkscape:pageshadow="2"
   inkscape:window-width="664"
   inkscape:window-height="487"
   id="namedview140"
   showgrid="false"
   inkscape:zoom="0.2102413"
   inkscape:cx="63.760631"
   inkscape:cy="64.100786"
   inkscape:window-x="0"
   inkscape:window-y="0"
   inkscape:window-maximized="0"
   inkscape:current-layer="svg138" />
 <defs
   class="ClipPathGroup"
   id="defs8">
  <clipPath
   id="presentation_clip_path"
   clipPathUnits="userSpaceOnUse">
   <rect
   x="0"
   y="0"
   width="21000"
   height="29700"
   id="rect2" />
  </clipPath>
  <clipPath
   id="presentation_clip_path_shrink"
   clipPathUnits="userSpaceOnUse">
   <rect
   x="21"
   y="29"
   width="20958"
   height="29641"
   id="rect5" />
  </clipPath>
 </defs>
 <defs
   class="TextShapeIndex"
   id="defs12">
  <g
   ooo:slide="id1"
   ooo:id-list="id3"
   id="g10" />
 </defs>
 <defs
   class="EmbeddedBulletChars"
   id="defs44">
  <g
   id="bullet-char-template-57356"
   transform="matrix(4.8828125e-4,0,0,-4.8828125e-4,0,0)">
   <path
   d="M 580,1141 1163,571 580,0 -4,571 Z"
   id="path14"
   inkscape:connector-curvature="0" />
  </g>
  <g
   id="bullet-char-template-57354"
   transform="matrix(4.8828125e-4,0,0,-4.8828125e-4,0,0)">
   <path
   d="M 8,1128 H 1137 V 0 H 8 Z"
   id="path17"
   inkscape:connector-curvature="0" />
  </g>
  <g
   id="bullet-char-template-10146"
   transform="matrix(4.8828125e-4,0,0,-4.8828125e-4,0,0)">
   <path
   d="M 174,0 602,739 174,1481 1456,739 Z M 1358,739 309,1346 659,739 Z"
   id="path20"
   inkscape:connector-curvature="0" />
  </g>
  <g
   id="bullet-char-template-10132"
   transform="matrix(4.8828125e-4,0,0,-4.8828125e-4,0,0)">
   <path
   d="M 2015,739 1276,0 H 717 l 543,543 H 174 v 393 h 1086 l -543,545 h 557 z"
   id="path23"
   inkscape:connector-curvature="0" />
  </g>
  <g
   id="bullet-char-template-10007"
   transform="matrix(4.8828125e-4,0,0,-4.8828125e-4,0,0)">
   <path
   d="m 0,-2 c -7,16 -16,29 -25,39 l 381,530 c -94,256 -141,385 -141,387 0,25 13,38 40,38 9,0 21,-2 34,-5 21,4 42,12 65,25 l 27,-13 111,-251 280,301 64,-25 24,25 c 21,-10 41,-24 62,-43 C 886,937 835,863 770,784 769,783 710,716 594,584 L 774,223 c 0,-27 -21,-55 -63,-84 l 16,-20 C 717,90 699,76 672,76 641,76 570,178 457,381 L 164,-76 c -22,-34 -53,-51 -92,-51 -42,0 -63,17 -64,51 -7,9 -10,24 -10,44 0,9 1,19 2,30 z"
   id="path26"
   inkscape:connector-curvature="0" />
  </g>
  <g
   id="bullet-char-template-10004"
   transform="matrix(4.8828125e-4,0,0,-4.8828125e-4,0,0)">
   <path
   d="M 285,-33 C 182,-33 111,30 74,156 52,228 41,333 41,471 c 0,78 14,145 41,201 34,71 87,106 158,106 53,0 88,-31 106,-94 l 23,-176 c 8,-64 28,-97 59,-98 l 735,706 c 11,11 33,17 66,17 42,0 63,-15 63,-46 V 965 c 0,-36 -10,-64 -30,-84 L 442,47 C 390,-6 338,-33 285,-33 Z"
   id="path29"
   inkscape:connector-curvature="0" />
  </g>
  <g
   id="bullet-char-template-9679"
   transform="matrix(4.8828125e-4,0,0,-4.8828125e-4,0,0)">
   <path
   d="M 813,0 C 632,0 489,54 383,161 276,268 223,411 223,592 c 0,181 53,324 160,431 106,107 249,161 430,161 179,0 323,-54 432,-161 108,-107 162,-251 162,-431 0,-180 -54,-324 -162,-431 C 1136,54 992,0 813,0 Z"
   id="path32"
   inkscape:connector-curvature="0" />
  </g>
  <g
   id="bullet-char-template-8226"
   transform="matrix(4.8828125e-4,0,0,-4.8828125e-4,0,0)">
   <path
   d="m 346,457 c -73,0 -137,26 -191,78 -54,51 -81,114 -81,188 0,73 27,136 81,188 54,52 118,78 191,78 73,0 134,-26 185,-79 51,-51 77,-114 77,-187 0,-75 -25,-137 -76,-188 -50,-52 -112,-78 -186,-78 z"
   id="path35"
   inkscape:connector-curvature="0" />
  </g>
  <g
   id="bullet-char-template-8211"
   transform="matrix(4.8828125e-4,0,0,-4.8828125e-4,0,0)">
   <path
   d="M -4,459 H 1135 V 606 H -4 Z"
   id="path38"
   inkscape:connector-curvature="0" />
  </g>
  <g
   id="bullet-char-template-61548"
   transform="matrix(4.8828125e-4,0,0,-4.8828125e-4,0,0)">
   <path
   d="m 173,740 c 0,163 58,303 173,419 116,115 255,173 419,173 163,0 302,-58 418,-173 116,-116 174,-256 174,-419 0,-163 -58,-303 -174,-418 C 1067,206 928,148 765,148 601,148 462,206 346,322 231,437 173,577 173,740 Z"
   id="path41"
   inkscape:connector-curvature="0" />
  </g>
 </defs>
 <g
   id="g49"
   transform="translate(-8813,-13153)">
  <g
   id="id2"
   class="Master_Slide">
   <g
   id="bg-id2"
   class="Background" />
   <g
   id="bo-id2"
   class="BackgroundObjects" />
  </g>
 </g>
 <g
   class="SlideGroup"
   id="g136"
   transform="translate(-8813,-13153)">
  <g
   id="g134">
   <g
   id="container-id1">
    <g
   id="id1"
   class="Slide"
   clip-path="url(#presentation_clip_path)">
     <g
   class="Page"
   id="g130">
      <g
   class="Graphic"
   id="g128">
       <g
   id="id3">
        <rect
   class="BoundingBox"
   x="8813"
   y="13153"
   width="3373"
   height="3393"
   id="rect51"
   style="fill:none;stroke:none" />
        <path
   d="m 9596,13854 -46,-325 13,-2 33,-11 56,-15 74,-18 88,-20 102,-23 115,-23 122,-20 127,-18 134,-13 135,-10 h 135 l 134,5 128,16 119,25 112,36 18,20 -5,30 -16,41 -28,43 -30,44 -28,35 -20,26 -8,10 z"
   id="path53"
   inkscape:connector-curvature="0"
   style="fill:#fff4e2;stroke:none" />
        <path
   d="m 9380,14401 1860,-264 6,25 15,71 25,112 36,142 51,168 61,188 76,198 89,204 -13,142 -15,137 -15,132 -8,125 3,117 20,107 41,99 66,86 -23,10 -31,11 -38,12 -46,10 -53,13 -61,13 -64,13 -71,12 -76,13 -79,13 -84,15 -86,13 -89,12 -89,10 -92,13 -94,10 -91,13 -94,10 -92,8 -89,10 -86,8 -86,7 -82,5 -79,5 -73,3 -69,3 h -63 -59 l -51,-3 -45,-5 -36,-5 -28,-8 51,-254 28,-285 5,-305 -10,-302 -28,-287 -38,-254 -51,-206 z"
   id="path55"
   inkscape:connector-curvature="0"
   style="fill:#fff4e2;stroke:none" />
        <path
   d="m 9700,14724 3,51 10,132 15,190 25,221 31,229 43,206 51,163 64,89 45,17 66,6 84,-3 102,-10 109,-15 117,-23 125,-28 124,-28 122,-31 115,-30 109,-31 94,-25 81,-23 61,-20 41,-11 13,-5 -8,-53 -23,-137 -35,-198 -46,-232 -59,-231 -68,-211 -74,-160 -81,-79 -51,-10 -69,-3 -81,8 -92,13 -99,20 -104,23 -109,28 -107,30 -107,31 -99,28 -91,30 -82,26 -68,23 -51,17 -33,11 z"
   id="path57"
   inkscape:connector-curvature="0"
   style="fill:#ffcc7c;stroke:none" />
        <path
   d="m 11060,13687 15,15 15,18 18,18 16,22 15,23 15,26 15,25 16,26 25,45 23,44 20,43 18,38 13,33 10,25 7,18 3,5 -1723,148 -186,15 201,-420 z"
   id="path59"
   inkscape:connector-curvature="0"
   style="fill:#ffcc7c;stroke:none" />
        <path
   d="m 10671,15003 -20,-15 -23,-15 -23,-10 -25,-11 -26,-10 -30,-5 -28,-5 h -33 -33 l -36,5 -38,8 -38,10 -43,15 -44,18 -43,20 -48,26 -21,18 -22,25 -21,36 -18,43 -17,48 -10,51 -8,56 v 58 l 5,49 13,45 17,49 23,43 33,43 41,41 48,35 59,31 38,15 43,8 46,5 h 46 l 48,-5 48,-8 49,-15 45,-21 44,-22 40,-31 36,-33 33,-38 25,-43 18,-49 13,-53 5,-58 -3,-31 -5,-41 -13,-45 -15,-49 -23,-50 -30,-51 -36,-46 z"
   id="path61"
   inkscape:connector-curvature="0"
   style="fill:#006dc9;stroke:none" />
        <path
   d="m 10671,15003 5,74 -5,56 -15,38 -23,20 -31,8 -35,-5 -41,-18 -43,-28 3,74 -11,61 -17,43 -26,28 -33,13 -38,-5 -41,-23 -40,-43 -18,83 -33,46 -41,18 -46,-5 -45,-18 -39,-23 -25,-20 -10,-8 5,49 13,45 17,49 23,43 33,43 41,41 48,35 59,31 38,15 43,8 46,5 h 46 l 48,-5 48,-8 49,-15 45,-21 44,-22 40,-31 36,-33 33,-38 25,-43 18,-49 13,-53 5,-58 -3,-31 -5,-41 -13,-45 -15,-49 -23,-50 -30,-51 -36,-46 z"
   id="path63"
   inkscape:connector-curvature="0"
   style="fill:#c9e8ff;stroke:none" />
        <path
   d="m 11185,13860 -64,2 -71,3 -79,5 -86,5 -92,5 -97,5 -99,5 -99,5 -99,8 -99,5 -97,7 -91,6 -87,7 -78,5 -72,8 -63,5 -15,-8 -8,-15 8,-18 23,-15 63,-20 79,-16 91,-15 102,-15 109,-13 115,-10 114,-10 117,-8 112,-5 104,-7 99,-3 84,-5 71,-3 h 56 l 33,-2 h 13 l 23,13 23,30 15,31 8,15 30,38 28,48 28,49 25,50 21,46 15,38 10,26 3,10 5,23 -5,23 -13,17 -20,13 h -8 l -15,3 h -28 l -33,2 -41,3 -46,2 -50,5 -54,3 -53,5 -54,3 -53,5 -51,2 -48,5 -43,3 -36,5 -28,2 -53,8 -69,8 -76,7 -87,10 -94,11 -96,10 -97,10 -96,10 -94,10 -89,10 -82,8 -71,8 -61,7 -46,3 -28,5 h -10 -10 -18 l -20,2 -25,3 -26,3 h -28 l -28,2 -25,3 -21,-16 -10,-28 v -40 l 18,-56 10,-8 21,-5 25,-5 h 30 31 31 l 22,3 h 16 l 1723,-148 -3,-5 -7,-18 -10,-25 -13,-33 -18,-38 -20,-43 -23,-44 z"
   id="path65"
   inkscape:connector-curvature="0"
   style="fill:#ffffff;stroke:none" />
        <path
   d="m 10638,14996 -3,-28 -25,-23 -43,-18 -56,-10 -64,-3 -66,3 -63,10 -56,18 -43,20 -41,26 -38,25 -33,30 -31,36 -28,38 -23,41 -17,43 -16,53 -7,56 2,54 10,53 16,53 23,51 30,49 33,43 36,38 38,33 41,25 43,23 46,18 45,15 49,8 48,2 h 48 l 48,-5 49,-10 48,-13 46,-17 46,-23 45,-28 41,-31 30,-30 26,-33 20,-36 15,-38 13,-41 5,-40 5,-41 v -41 l -10,-55 -23,-54 -33,-46 -38,-38 -38,-33 -31,-23 -25,-15 -8,-5 -10,-5 -10,-3 h -13 -12 l -13,6 -10,2 -10,8 -8,7 -8,18 v 20 l 8,18 15,13 23,20 26,21 28,17 25,18 23,23 18,23 12,28 5,33 -2,56 -10,56 -23,51 -38,43 -28,23 -31,17 -30,18 -31,13 -33,13 -33,7 -33,5 -33,3 h -33 l -33,-3 -33,-5 -31,-7 -33,-11 -30,-15 -31,-15 -30,-20 -36,-31 -28,-33 -25,-38 -18,-43 -13,-43 -7,-46 2,-43 8,-46 13,-41 20,-35 25,-33 28,-28 33,-26 33,-20 39,-20 40,-16 38,-12 41,-11 41,-7 38,-5 38,-5 h 33 33 z"
   id="path67"
   inkscape:connector-curvature="0"
   style="fill:#ffffff;stroke:none" />
        <path
   d="m 9779,14790 10,-3 28,-5 43,-10 56,-13 71,-12 79,-18 89,-18 94,-18 99,-20 102,-18 102,-20 101,-18 97,-15 94,-16 84,-10 76,-10 20,-5 16,-13 10,-17 2,-21 -5,-20 -12,-15 -18,-8 -21,-3 -12,3 -33,8 -54,10 -71,12 -81,18 -94,18 -102,20 -107,23 -109,23 -107,23 -104,23 -97,20 -86,21 -74,20 -61,18 -40,12 -21,-5 -17,3 -18,10 -10,15 -8,13 -10,20 -10,31 -3,43 v 28 l 3,33 5,33 7,38 13,36 13,35 20,33 23,28 2,8 6,3 7,2 h 8 l 5,-5 5,-5 v -8 -5 -51 l -3,-109 -2,-114 z"
   id="path69"
   inkscape:connector-curvature="0"
   style="fill:#ffffff;stroke:none" />
        <path
   d="m 11024,15837 -48,13 -51,17 -51,18 -53,18 -51,18 -53,20 -54,20 -55,18 -54,18 -56,18 -53,15 -56,13 -56,10 -56,5 -53,5 h -56 l -43,-5 -39,-8 -33,-7 -30,-8 -26,-5 -22,-5 h -18 l -13,3 -18,2 -12,10 -11,15 -2,18 2,18 11,15 15,10 18,3 30,3 33,2 36,3 38,2 h 38 41 40 l 41,-2 41,-3 40,-2 39,-3 38,-5 38,-5 35,-8 31,-7 30,-8 46,-18 46,-15 48,-13 48,-12 49,-11 48,-12 51,-11 51,-10 48,-10 51,-10 51,-10 48,-13 48,-13 49,-15 45,-15 46,-18 3,-8 -13,-10 -26,-10 -38,-13 -43,-10 -53,-5 -56,3 z"
   id="path71"
   inkscape:connector-curvature="0"
   style="fill:#ffffff;stroke:none" />
        <path
   d="m 11134,14358 -26,73 -5,77 5,76 18,76 20,76 23,77 23,76 15,76 21,107 23,102 25,99 28,99 25,96 23,102 16,102 10,109 5,20 12,18 18,10 23,3 20,-10 16,-23 7,-21 3,-10 -20,-206 -44,-226 -56,-236 -63,-226 -61,-204 -53,-162 -36,-110 z"
   id="path73"
   inkscape:connector-curvature="0"
   style="fill:#ffffff;stroke:none" />
        <path
   d="m 9931,13628 v -18 l 11,-12 15,-3 20,5 v 5 5 6 5 l 5,10 10,5 11,5 12,-3 10,-5 8,-10 3,-10 -3,-13 -2,-23 -13,-15 -21,-13 -20,-5 -15,-2 h -18 l -15,2 -15,5 -13,8 -10,10 -8,13 -5,18 -3,15 -2,18 2,15 11,15 7,8 10,8 11,5 10,5 12,5 13,2 h 13 l 15,-2 -13,-13 -12,-15 -13,-18 z"
   id="path75"
   inkscape:connector-curvature="0"
   style="fill:#ffffff;stroke:none" />
        <path
   d="m 10262,13580 18,-3 7,11 13,5 h 15 l 13,-8 5,-8 3,-10 -3,-10 -5,-10 -10,-15 -18,-10 -20,-6 h -11 l -7,3 -20,5 -21,15 -10,28 5,23 10,13 10,10 13,10 13,10 15,5 13,6 h 13 l 10,-6 -21,-17 -15,-21 -13,-15 z"
   id="path77"
   inkscape:connector-curvature="0"
   style="fill:#ffffff;stroke:none" />
        <path
   d="m 9644,13900 5,-12 3,-11 -3,-12 -7,-11 -8,-2 -10,-3 h -10 l -13,3 -13,2 -10,6 -8,2 -5,5 -35,59 -31,63 -28,61 -25,61 -20,56 -21,51 -18,43 -15,31 28,-11 38,-43 43,-63 46,-74 46,-74 36,-66 25,-46 z"
   id="path79"
   inkscape:connector-curvature="0"
   style="fill:#000000;stroke:none" />
        <path
   d="m 9365,14391 22,129 26,133 30,132 31,132 28,137 23,135 15,135 5,137 -5,71 -15,99 -18,117 -20,124 -21,128 -18,116 -10,100 -2,71 7,23 13,17 20,13 26,3 23,-8 18,-15 12,-21 3,-22 5,-28 13,-77 15,-111 20,-130 18,-137 13,-130 7,-109 v -74 l -18,-137 -22,-137 -28,-140 -31,-143 -33,-139 -33,-140 -36,-137 -33,-133 -2,-10 -5,-5 -8,-5 -10,-2 -10,7 -8,13 -5,13 z"
   id="path81"
   inkscape:connector-curvature="0"
   style="fill:#000000;stroke:none" />
        <path
   d="m 11218,14238 5,135 25,130 36,122 48,119 51,119 53,120 54,124 45,133 23,122 v 129 l -13,130 -17,129 -13,125 -3,122 23,114 54,105 15,10 15,7 13,3 13,2 10,-2 10,-3 10,-5 8,-5 15,-12 13,-18 2,-26 -12,-33 -46,-104 -18,-112 3,-117 10,-122 15,-122 10,-122 -5,-119 -23,-112 -48,-127 -51,-122 -53,-117 -54,-114 -51,-117 -45,-117 -41,-125 -33,-129 -3,-10 -5,-8 -10,-5 -10,-3 -10,3 -8,5 -5,10 z"
   id="path83"
   inkscape:connector-curvature="0"
   style="fill:#000000;stroke:none" />
        <path
   d="m 10178,14917 -43,18 -41,23 -38,27 -36,31 -30,36 -26,38 -22,43 -18,43 -15,53 -8,56 2,54 11,56 15,50 23,51 28,49 35,45 36,38 38,31 41,28 43,23 46,18 45,12 49,8 48,2 h 48 l 49,-5 48,-10 48,-12 46,-18 46,-23 43,-28 41,-31 33,-30 25,-33 20,-36 16,-38 10,-41 7,-40 5,-41 v -40 l -5,-46 -15,-46 -20,-38 -28,-36 -36,-33 -38,-28 -41,-23 -40,-20 v 0 l -21,-8 h -17 l -18,8 -13,15 -5,18 v 20 l 8,18 15,13 23,20 25,21 26,17 25,18 23,23 18,23 12,28 6,33 -3,56 -10,56 -23,51 -38,43 -28,23 -31,17 -30,18 -33,13 -31,13 -33,7 -33,5 -33,3 h -33 l -33,-3 -33,-5 -33,-7 -30,-10 -34,-16 -30,-15 -28,-20 -36,-31 -28,-33 -25,-38 -18,-43 -12,-43 -8,-46 2,-43 8,-46 13,-41 18,-35 22,-36 26,-28 28,-28 30,-23 33,-20 36,-18 38,-13 38,-10 41,-5 41,-5 h 40 l 41,5 41,8 38,10 5,3 h 5 l 2,-3 v -3 l -20,-33 -36,-25 -45,-18 -59,-10 -61,-5 -61,3 -58,7 z"
   id="path85"
   inkscape:connector-curvature="0"
   style="fill:#000000;stroke:none" />
        <path
   d="m 11065,14378 -25,74 -8,76 8,76 15,79 23,76 23,77 23,76 15,76 20,107 23,101 25,100 28,96 26,99 23,99 15,105 10,106 5,23 13,18 18,10 23,3 20,-10 15,-23 8,-21 2,-10 -20,-206 -43,-226 -56,-236 -64,-226 -61,-204 -53,-165 -36,-109 z"
   id="path87"
   inkscape:connector-curvature="0"
   style="fill:#000000;stroke:none" />
        <path
   d="m 10971,15781 -48,13 -51,17 -51,16 -51,20 -53,18 -54,20 -53,18 -53,20 -56,18 -54,15 -56,16 -55,12 -56,10 -54,8 -56,5 h -56 l -43,-5 -38,-8 -33,-7 -30,-8 -26,-5 -20,-5 h -18 l -13,3 -18,2 -15,10 -10,16 -2,17 2,18 10,15 15,8 18,3 31,2 33,3 35,2 39,3 h 38 40 41 l 41,-3 40,-2 41,-3 41,-2 38,-6 38,-5 33,-7 33,-8 31,-7 45,-18 46,-13 46,-15 48,-13 51,-10 48,-10 51,-10 48,-11 51,-10 51,-10 48,-13 51,-10 48,-13 46,-15 48,-15 46,-18 3,-7 -15,-11 -26,-12 -35,-10 -46,-11 -51,-5 -59,3 z"
   id="path89"
   inkscape:connector-curvature="0"
   style="fill:#000000;stroke:none" />
        <path
   d="m 10206,15265 30,-15 31,-13 33,-10 33,-8 h 33 l 33,3 33,13 31,17 20,18 13,20 5,28 -5,28 -10,18 -13,13 -15,13 -18,7 -21,3 -17,2 -21,-2 -20,-5 3,-8 2,-20 v -21 l -5,-17 -10,-8 -10,-5 -16,2 -12,3 -21,15 -15,26 -13,23 -2,10 2,28 21,22 20,18 10,5 41,16 41,7 40,-5 41,-13 35,-20 31,-28 23,-35 13,-41 2,-46 -10,-40 -20,-39 -28,-30 -36,-26 -38,-17 -41,-10 -43,-3 -30,3 -31,2 -30,5 -31,8 -28,10 -28,13 -25,17 -23,23 -23,46 -3,48 11,49 22,43 23,30 31,28 33,28 35,26 36,17 31,13 20,5 13,-7 -33,-21 -31,-25 -33,-31 -28,-33 -23,-38 -15,-43 -8,-43 z"
   id="path91"
   inkscape:connector-curvature="0"
   style="fill:#000000;stroke:none" />
        <path
   d="m 9891,15026 28,-20 28,-21 30,-17 28,-18 31,-18 33,-13 33,-12 33,-10 7,-6 8,-7 3,-10 -3,-11 -5,-7 -8,-8 -10,-2 -10,2 -36,8 -33,13 -30,15 -31,15 -28,23 -25,23 -25,25 -23,28 -11,15 3,11 8,2 z"
   id="path93"
   inkscape:connector-curvature="0"
   style="fill:#000000;stroke:none" />
        <path
   d="m 10226,15839 10,-2 11,-5 7,-8 3,-10 -3,-13 -5,-10 -7,-5 -11,-2 -33,-6 -33,-5 -35,-7 -33,-8 -33,-8 -31,-7 -25,-10 -23,-8 v 10 l 15,15 28,18 36,21 40,17 43,18 41,10 z"
   id="path95"
   inkscape:connector-curvature="0"
   style="fill:#000000;stroke:none" />
        <path
   d="m 10691,14978 11,10 10,5 12,3 13,-5 10,-8 5,-10 v -13 l -2,-13 -15,-25 -18,-20 -23,-18 -25,-15 -26,-11 -30,-5 -28,-2 h -28 -3 l -5,2 -2,3 -3,2 v 5 l 3,6 2,2 h 3 l 5,3 12,5 21,10 20,13 25,17 23,18 18,21 z"
   id="path97"
   inkscape:connector-curvature="0"
   style="fill:#000000;stroke:none" />
        <path
   d="m 11322,13313 v 18 l -8,41 -2,53 5,46 2,12 8,11 13,7 h 12 l 13,-2 10,-8 5,-10 3,-13 5,-35 5,-36 v -36 l 2,-35 v -8 l -2,-20 -18,-23 -33,-13 h -46 l -38,-10 -43,-13 -43,-15 -43,-13 -41,-7 -33,-8 h -23 l -10,5 38,18 46,18 48,20 51,18 46,15 35,13 26,8 z"
   id="path99"
   inkscape:connector-curvature="0"
   style="fill:#000000;stroke:none" />
        <path
   d="m 9133,14236 -7,2 -21,13 -17,23 -11,35 3,8 5,23 10,33 13,38 15,46 15,43 16,43 15,36 7,13 11,10 12,5 h 16 l 12,-5 10,-10 6,-13 v -15 l -6,-64 -15,-61 -20,-58 -28,-59 10,-13 20,-28 26,-38 15,-33 3,-5 2,-7 -2,-3 h -16 -2 l -8,5 -12,3 -16,7 -15,5 -15,8 -18,8 z"
   id="path101"
   inkscape:connector-curvature="0"
   style="fill:#000000;stroke:none" />
        <path
   d="m 11812,15794 18,38 18,38 15,36 13,38 15,38 10,38 13,38 10,38 13,43 18,41 17,43 18,41 -7,5 -21,10 -23,18 -20,23 -13,15 -2,18 2,18 8,15 15,10 18,5 18,-2 15,-8 13,-10 15,-13 18,-13 18,-17 17,-13 13,-13 10,-10 3,-3 5,-10 2,-10 v -7 l -2,-11 -10,-20 -26,-58 -35,-82 -43,-94 -46,-99 -46,-91 -36,-72 -25,-45 -2,-8 -8,-3 -8,-2 h -7 l -5,15 2,31 5,33 z"
   id="path103"
   inkscape:connector-curvature="0"
   style="fill:#000000;stroke:none" />
        <path
   d="m 11884,15458 27,54 31,63 28,64 28,61 25,56 18,45 13,31 5,10 -8,5 -18,15 -15,21 -2,20 5,8 10,5 13,5 15,2 15,3 h 15 13 l 13,-3 23,-12 17,-26 3,-35 -20,-44 -23,-35 -36,-56 -40,-66 -41,-71 -43,-66 -36,-59 -25,-35 -13,-13 -5,10 v 15 l 2,15 z"
   id="path105"
   inkscape:connector-curvature="0"
   style="fill:#000000;stroke:none" />
        <path
   d="m 8948,14093 -43,23 -28,23 -18,20 -10,23 -3,18 v 15 l 3,11 2,2 20,61 21,61 23,61 23,59 22,58 26,61 20,61 23,61 8,18 10,15 10,10 13,8 12,5 16,2 h 12 l 13,-2 13,-10 5,-13 v -18 l -5,-15 -18,-64 -20,-61 -23,-61 -26,-61 -25,-61 -25,-61 -23,-61 -23,-61 5,-2 13,-5 20,-10 25,-13 31,-15 33,-18 33,-18 36,-20 35,-21 33,-20 31,-18 23,-20 20,-18 10,-15 5,-13 -8,-10 -10,3 -28,7 -43,13 -51,13 -58,17 -56,18 -56,21 z"
   id="path107"
   inkscape:connector-curvature="0"
   style="fill:#000000;stroke:none" />
        <path
   d="m 11472,13262 -13,59 -8,61 -2,61 7,61 3,15 8,13 10,10 15,5 15,-3 13,-7 10,-10 5,-16 21,-53 5,-74 -3,-61 -2,-28 2,-17 v -31 l -13,-30 -38,-21 -28,-5 -25,-5 -28,-5 -28,-8 -28,-5 -30,-5 -28,-5 -28,-2 h -8 l -8,2 -5,5 -2,8 v 7 l 2,8 5,5 8,3 z"
   id="path109"
   inkscape:connector-curvature="0"
   style="fill:#000000;stroke:none" />
        <path
   d="m 10948,14932 5,13 10,33 13,48 18,56 13,59 12,50 5,38 -2,18 -15,16 -18,17 -8,18 5,15 13,16 84,-41 -13,-120 -23,-134 -25,-110 -10,-45 -8,-13 -10,-10 -13,-3 h -15 l -5,3 -10,5 -16,10 -17,10 -16,10 -15,8 -10,5 -3,3 13,10 20,10 26,8 z"
   id="path111"
   inkscape:connector-curvature="0"
   style="fill:#000000;stroke:none" />
        <path
   d="m 9733,14724 -2,12 v 18 18 l -3,13 3,279 2,5 -2,8 -3,5 -8,5 h -7 l -8,-2 -5,-3 -2,-8 -23,-28 -18,-33 -15,-35 -11,-36 -7,-35 -5,-36 -5,-33 v -28 l 5,-43 7,-31 11,-20 7,-13 13,-15 15,-10 18,-5 20,5 31,-13 33,-10 35,-10 36,-10 36,-8 35,-10 36,-8 38,-10 38,-7 36,-8 38,-8 35,-7 36,-8 35,-8 36,-7 33,-8 41,-10 46,-10 50,-10 51,-13 56,-10 56,-10 56,-11 53,-12 54,-8 48,-10 43,-8 38,-7 31,-5 25,-5 16,-3 h 5 l 20,3 18,10 10,15 5,20 -3,21 -7,17 -15,13 -21,5 -76,10 -84,11 -91,15 -97,15 -102,18 -101,18 -102,17 -97,18 -96,18 -87,18 -78,15 -72,13 -56,12 -43,8 -28,5 z"
   id="path113"
   inkscape:connector-curvature="0"
   style="fill:#000000;stroke:none" />
        <path
   d="m 9652,13776 10,-41 v -41 l -8,-40 -15,-38 -8,-11 -7,-7 -10,-8 -10,-2 -13,-3 h -10 l -13,3 -10,5 -18,15 -13,20 -2,23 7,23 8,10 15,28 13,36 v 38 l 8,13 12,10 16,2 h 15 l 12,-10 11,-13 7,-10 z"
   id="path115"
   inkscape:connector-curvature="0"
   style="fill:#000000;stroke:none" />
        <path
   d="m 9624,13529 25,-7 31,-8 33,-8 38,-7 43,-11 43,-7 46,-10 48,-8 49,-10 45,-8 46,-7 43,-8 44,-5 38,-5 33,-3 30,-2 59,-5 63,-3 69,-2 69,-5 68,-3 h 71 l 69,-3 h 69 66 l 61,3 56,3 50,5 46,7 36,8 30,10 18,13 13,2 10,3 h 13 l 10,-3 7,-5 11,-5 7,-8 5,-7 8,-23 -3,-20 -10,-21 -18,-12 h -7 l -18,-3 -33,-5 -41,-5 -50,-5 -59,-5 -63,-5 -72,-3 -76,-5 -76,-3 h -82 l -81,3 -79,5 -78,8 -77,10 -71,13 -41,7 -40,8 -41,7 -41,8 -40,5 -41,8 -41,7 -40,6 -41,10 -38,7 -41,10 -40,11 -38,12 -39,13 -38,15 -38,18 -7,3 -3,5 -3,7 v 8 l 6,5 5,3 7,2 z"
   id="path117"
   inkscape:connector-curvature="0"
   style="fill:#000000;stroke:none" />
        <path
   d="m 11177,13725 5,-23 13,-53 15,-64 8,-53 2,-13 -2,-10 -6,-10 -10,-8 -10,-3 -10,3 -10,5 -8,10 -2,5 -11,16 -12,22 -18,26 -18,30 -15,31 -15,28 -13,23 -61,7 -69,5 -76,6 -84,5 -89,2 -91,5 -97,5 -96,5 -97,5 -94,8 -92,8 -89,10 -83,10 -77,13 -68,18 -59,17 -23,16 -7,17 7,16 16,7 61,-5 71,-7 79,-6 86,-7 89,-5 94,-8 99,-5 97,-8 99,-5 96,-5 94,-5 92,-5 84,-5 79,-5 71,-3 63,-2 5,7 13,26 21,35 22,41 23,43 23,44 18,38 10,28 -10,2 h -15 l -23,3 -28,5 -33,2 -38,5 -44,6 -48,5 -51,5 -56,7 -58,5 -61,8 -64,8 -66,5 -66,7 -68,8 -72,8 -68,7 -71,8 -72,7 -68,8 -69,5 -68,8 -67,7 -63,6 -61,5 -59,5 -55,5 -51,5 -49,5 -43,2 -38,3 h -23 l -18,10 -12,15 -5,21 2,23 10,17 16,13 20,5 h 10 l 28,-5 46,-2 61,-8 71,-8 81,-7 89,-10 94,-11 97,-10 97,-10 96,-10 94,-10 87,-10 76,-8 68,-8 54,-7 28,-3 38,-2 43,-5 51,-3 53,-3 59,-5 58,-2 56,-3 59,-5 53,-2 48,-3 44,-2 38,-3 h 28 l 17,-3 h 8 l 20,-12 13,-18 5,-20 -5,-26 -5,-12 -13,-31 -23,-46 -25,-56 -31,-61 -33,-58 -33,-53 z"
   id="path119"
   inkscape:connector-curvature="0"
   style="fill:#000000;stroke:none" />
        <path
   d="m 9865,13623 v -18 l 8,-12 18,-3 20,5 v 5 5 5 6 l 5,10 10,5 10,5 11,-3 10,-5 7,-10 3,-10 -3,-13 -2,-23 -13,-15 -20,-13 -20,-5 -16,-2 h -18 l -15,2 -12,5 -13,8 -13,10 -8,13 -5,18 -2,15 -3,18 3,15 10,15 10,8 13,7 13,8 12,5 16,3 10,2 10,-2 5,-5 -10,-13 -13,-13 -10,-15 z"
   id="path121"
   inkscape:connector-curvature="0"
   style="fill:#000000;stroke:none" />
        <path
   d="m 10193,13575 21,-3 7,11 13,5 h 13 l 15,-8 5,-8 v -10 l -3,-10 -2,-10 -13,-15 -18,-11 -17,-5 h -11 l -7,-2 -18,2 -18,13 -15,38 v 23 l 5,20 10,13 15,10 16,5 17,3 16,-3 15,-5 -25,-18 -13,-17 -8,-13 z"
   id="path123"
   inkscape:connector-curvature="0"
   style="fill:#000000;stroke:none" />
        <path
   d="m 11159,16401 -10,5 -20,15 -21,16 -7,12 2,8 8,8 5,2 h 10 l 41,3 43,-3 41,-2 40,-5 43,-3 h 41 l 41,3 40,7 21,3 18,-5 15,-10 10,-18 v -21 l -15,-20 -21,-15 -22,-10 17,-3 h 18 l 18,-2 15,-3 h 18 l 15,-3 h 18 l 15,-2 23,-8 18,-15 10,-23 3,-23 -13,-20 -25,-13 -26,-7 -10,-3 -71,5 -69,8 -71,5 -69,8 -71,5 -68,7 -72,8 -68,7 -71,8 -72,5 -68,8 -71,7 -69,8 -71,8 -69,5 -71,7 -53,3 -54,2 h -53 l -56,-2 h -56 l -56,-5 -56,-3 -56,-2 -56,-3 -56,-2 h -55 -56 l -56,5 -56,5 -54,7 -53,11 -15,2 -18,5 -15,3 -16,5 -15,8 -15,7 -13,10 -12,13 -3,8 3,10 5,10 5,3 h 5 l 12,2 h 21 l 28,3 33,2 h 43 48 54 l -3,3 -5,5 -5,10 v 13 l 5,12 10,8 13,5 h 13 l 53,3 61,2 64,5 63,5 56,3 46,5 33,2 h 10 l 23,-2 23,-13 13,-18 7,-22 v -23 l -7,-16 -16,-10 -23,-5 59,-2 h 61 l 63,-3 61,-2 h 64 l 66,-3 64,-3 h 66 l 63,-2 66,-3 66,-2 64,-3 66,-2 64,-3 63,-2 z"
   id="path125"
   inkscape:connector-curvature="0"
   style="fill:#000000;stroke:none" />
       </g>
      </g>
     </g>
    </g>
   </g>
  </g>
 </g>
</svg>