<?xml version="1.0" encoding="UTF-8" standalone="no"?>
<svg
   xmlns:ooo="http://xml.openoffice.org/svg/export"
   xmlns:dc="http://purl.org/dc/elements/1.1/"
   xmlns:cc="http://creativecommons.org/ns#"
   xmlns:rdf="http://www.w3.org/1999/02/22-rdf-syntax-ns#"
   xmlns:svg="http://www.w3.org/2000/svg"
   xmlns="http://www.w3.org/2000/svg"
   xmlns:sodipodi="http://sodipodi.sourceforge.net/DTD/sodipodi-0.dtd"
   xmlns:inkscape="http://www.inkscape.org/namespaces/inkscape"
   version="1.2"
   width="29.870001mm"
   height="55.779999mm"
   viewBox="0 0 2987.0001 5577.9999"
   preserveAspectRatio="xMidYMid"
   xml:space="preserve"
   id="svg205"
   sodipodi:docname="wghtlft1.svg"
   style="fill-rule:evenodd;stroke-width:28.22200012;stroke-linejoin:round"
   inkscape:version="0.92.5 (2060ec1f9f, 2020-04-08)"><metadata
   id="metadata209"><rdf:RDF><cc:Work
       rdf:about=""><dc:format>image/svg+xml</dc:format><dc:type
         rdf:resource="http://purl.org/dc/dcmitype/StillImage" /></cc:Work></rdf:RDF></metadata><sodipodi:namedview
   pagecolor="#ffffff"
   bordercolor="#666666"
   borderopacity="1"
   objecttolerance="10"
   gridtolerance="10"
   guidetolerance="10"
   inkscape:pageopacity="0"
   inkscape:pageshadow="2"
   inkscape:window-width="664"
   inkscape:window-height="487"
   id="namedview207"
   showgrid="false"
   inkscape:zoom="0.2102413"
   inkscape:cx="56.466143"
   inkscape:cy="105.41102"
   inkscape:window-x="0"
   inkscape:window-y="0"
   inkscape:window-maximized="0"
   inkscape:current-layer="svg205" />
 <defs
   class="ClipPathGroup"
   id="defs8">
  <clipPath
   id="presentation_clip_path"
   clipPathUnits="userSpaceOnUse">
   <rect
   x="0"
   y="0"
   width="21000"
   height="29700"
   id="rect2" />
  </clipPath>
  <clipPath
   id="presentation_clip_path_shrink"
   clipPathUnits="userSpaceOnUse">
   <rect
   x="21"
   y="29"
   width="20958"
   height="29641"
   id="rect5" />
  </clipPath>
 </defs>
 <defs
   class="TextShapeIndex"
   id="defs12">
  <g
   ooo:slide="id1"
   ooo:id-list="id3"
   id="g10" />
 </defs>
 <defs
   class="EmbeddedBulletChars"
   id="defs44">
  <g
   id="bullet-char-template-57356"
   transform="matrix(4.8828125e-4,0,0,-4.8828125e-4,0,0)">
   <path
   d="M 580,1141 1163,571 580,0 -4,571 Z"
   id="path14"
   inkscape:connector-curvature="0" />
  </g>
  <g
   id="bullet-char-template-57354"
   transform="matrix(4.8828125e-4,0,0,-4.8828125e-4,0,0)">
   <path
   d="M 8,1128 H 1137 V 0 H 8 Z"
   id="path17"
   inkscape:connector-curvature="0" />
  </g>
  <g
   id="bullet-char-template-10146"
   transform="matrix(4.8828125e-4,0,0,-4.8828125e-4,0,0)">
   <path
   d="M 174,0 602,739 174,1481 1456,739 Z M 1358,739 309,1346 659,739 Z"
   id="path20"
   inkscape:connector-curvature="0" />
  </g>
  <g
   id="bullet-char-template-10132"
   transform="matrix(4.8828125e-4,0,0,-4.8828125e-4,0,0)">
   <path
   d="M 2015,739 1276,0 H 717 l 543,543 H 174 v 393 h 1086 l -543,545 h 557 z"
   id="path23"
   inkscape:connector-curvature="0" />
  </g>
  <g
   id="bullet-char-template-10007"
   transform="matrix(4.8828125e-4,0,0,-4.8828125e-4,0,0)">
   <path
   d="m 0,-2 c -7,16 -16,29 -25,39 l 381,530 c -94,256 -141,385 -141,387 0,25 13,38 40,38 9,0 21,-2 34,-5 21,4 42,12 65,25 l 27,-13 111,-251 280,301 64,-25 24,25 c 21,-10 41,-24 62,-43 C 886,937 835,863 770,784 769,783 710,716 594,584 L 774,223 c 0,-27 -21,-55 -63,-84 l 16,-20 C 717,90 699,76 672,76 641,76 570,178 457,381 L 164,-76 c -22,-34 -53,-51 -92,-51 -42,0 -63,17 -64,51 -7,9 -10,24 -10,44 0,9 1,19 2,30 z"
   id="path26"
   inkscape:connector-curvature="0" />
  </g>
  <g
   id="bullet-char-template-10004"
   transform="matrix(4.8828125e-4,0,0,-4.8828125e-4,0,0)">
   <path
   d="M 285,-33 C 182,-33 111,30 74,156 52,228 41,333 41,471 c 0,78 14,145 41,201 34,71 87,106 158,106 53,0 88,-31 106,-94 l 23,-176 c 8,-64 28,-97 59,-98 l 735,706 c 11,11 33,17 66,17 42,0 63,-15 63,-46 V 965 c 0,-36 -10,-64 -30,-84 L 442,47 C 390,-6 338,-33 285,-33 Z"
   id="path29"
   inkscape:connector-curvature="0" />
  </g>
  <g
   id="bullet-char-template-9679"
   transform="matrix(4.8828125e-4,0,0,-4.8828125e-4,0,0)">
   <path
   d="M 813,0 C 632,0 489,54 383,161 276,268 223,411 223,592 c 0,181 53,324 160,431 106,107 249,161 430,161 179,0 323,-54 432,-161 108,-107 162,-251 162,-431 0,-180 -54,-324 -162,-431 C 1136,54 992,0 813,0 Z"
   id="path32"
   inkscape:connector-curvature="0" />
  </g>
  <g
   id="bullet-char-template-8226"
   transform="matrix(4.8828125e-4,0,0,-4.8828125e-4,0,0)">
   <path
   d="m 346,457 c -73,0 -137,26 -191,78 -54,51 -81,114 -81,188 0,73 27,136 81,188 54,52 118,78 191,78 73,0 134,-26 185,-79 51,-51 77,-114 77,-187 0,-75 -25,-137 -76,-188 -50,-52 -112,-78 -186,-78 z"
   id="path35"
   inkscape:connector-curvature="0" />
  </g>
  <g
   id="bullet-char-template-8211"
   transform="matrix(4.8828125e-4,0,0,-4.8828125e-4,0,0)">
   <path
   d="M -4,459 H 1135 V 606 H -4 Z"
   id="path38"
   inkscape:connector-curvature="0" />
  </g>
  <g
   id="bullet-char-template-61548"
   transform="matrix(4.8828125e-4,0,0,-4.8828125e-4,0,0)">
   <path
   d="m 173,740 c 0,163 58,303 173,419 116,115 255,173 419,173 163,0 302,-58 418,-173 116,-116 174,-256 174,-419 0,-163 -58,-303 -174,-418 C 1067,206 928,148 765,148 601,148 462,206 346,322 231,437 173,577 173,740 Z"
   id="path41"
   inkscape:connector-curvature="0" />
  </g>
 </defs>
 <g
   id="g49"
   transform="translate(-9006,-12061)">
  <g
   id="id2"
   class="Master_Slide">
   <g
   id="bg-id2"
   class="Background" />
   <g
   id="bo-id2"
   class="BackgroundObjects" />
  </g>
 </g>
 <g
   class="SlideGroup"
   id="g203"
   transform="translate(-9006,-12061)">
  <g
   id="g201">
   <g
   id="container-id1">
    <g
   id="id1"
   class="Slide"
   clip-path="url(#presentation_clip_path)">
     <g
   class="Page"
   id="g197">
      <g
   class="Graphic"
   id="g195">
       <g
   id="id3">
        <rect
   class="BoundingBox"
   x="9006"
   y="12061"
   width="2987"
   height="5578"
   id="rect51"
   style="fill:none;stroke:none" />
        <defs
   id="defs56">
         <clipPath
   id="clip_path_1"
   clipPathUnits="userSpaceOnUse">
          <path
   d="m 9006,12061 h 2986 v 5577 H 9006 Z"
   id="path53"
   inkscape:connector-curvature="0" />
         </clipPath>
        </defs>
        <g
   clip-path="url(#clip_path_1)"
   id="g192">
         <path
   d="m 9006,12363 v -48 h 2987 v 48 z"
   id="path58"
   inkscape:connector-curvature="0"
   style="fill:#7f99b2;stroke:none" />
         <path
   d="m 9486,12618 v -557 h -83 v 557 z"
   id="path60"
   inkscape:connector-curvature="0"
   style="fill:#000000;stroke:none" />
         <path
   d="m 9342,12468 v -260 h 61 v 260 z"
   id="path62"
   inkscape:connector-curvature="0"
   style="fill:#000000;stroke:none" />
         <path
   d="m 9342,12287 h -18 v 18 h -66 v 69 h 66 v 22 h 18 z"
   id="path64"
   inkscape:connector-curvature="0"
   style="fill:#000000;stroke:none" />
         <path
   d="m 11513,12618 v -557 h 83 v 557 z"
   id="path66"
   inkscape:connector-curvature="0"
   style="fill:#000000;stroke:none" />
         <path
   d="m 11657,12468 v -260 h -61 v 260 z"
   id="path68"
   inkscape:connector-curvature="0"
   style="fill:#000000;stroke:none" />
         <path
   d="m 11657,12287 h 18 v 18 h 66 v 69 h -66 v 22 h -18 z"
   id="path70"
   inkscape:connector-curvature="0"
   style="fill:#000000;stroke:none" />
         <path
   d="m 10953,13952 21,7 22,3 h 23 l 26,-5 23,-8 23,-13 22,-17 18,-21 15,-23 18,-25 18,-28 18,-25 18,-26 20,-23 18,-22 20,-18 41,-41 40,-46 41,-53 38,-51 36,-51 28,-48 25,-41 18,-33 15,-25 16,-20 7,-21 -2,-20 -11,-23 -7,-25 -5,-28 -5,-33 -5,-31 -11,-53 -15,-66 -23,-79 -25,-84 -31,-84 -38,-79 -43,-66 -15,-23 -15,-20 -13,-23 -13,-17 -10,-18 -8,-13 -5,-10 -5,-5 -30,-10 -21,15 -12,28 2,38 8,25 10,46 8,53 7,56 5,74 10,97 13,96 18,74 20,51 18,38 10,33 v 20 l -5,10 -7,11 -8,15 -10,12 -13,16 -13,12 -12,13 -16,13 -15,10 -15,13 -15,12 -18,13 -15,15 -16,18 -15,18 -13,23 -12,20 -11,20 -12,18 -13,18 -10,15 -13,16 -13,12 -12,10 -16,11 -17,15 -23,18 -23,22 -26,23 -20,26 -20,28 -15,30 -11,31 -7,33 v 30 l 5,28 13,28 17,26 26,20 z"
   id="path72"
   inkscape:connector-curvature="0"
   style="fill:#7f0000;stroke:none" />
         <path
   d="m 11266,12488 -13,-3 -12,3 -11,8 -7,10 -3,12 3,11 7,10 11,7 12,3 13,-3 10,-5 5,-10 3,-13 -3,-12 -5,-10 z"
   id="path74"
   inkscape:connector-curvature="0"
   style="fill:#7f0000;stroke:none" />
         <path
   d="m 11055,13776 -13,-2 -12,2 -11,5 -7,11 -3,12 3,13 7,10 11,8 12,2 13,-2 10,-8 5,-10 3,-13 -3,-12 -5,-11 z"
   id="path76"
   inkscape:connector-curvature="0"
   style="fill:#7f0000;stroke:none" />
         <path
   d="m 11266,12559 -18,3 -18,-8 -15,-10 -8,-18 -5,-23 -5,-33 -7,-33 -8,-28 -8,-30 -7,-41 -10,-36 -8,-22 -8,-16 -5,-17 3,-16 15,-12 18,-3 25,3 31,2 35,3 33,5 31,5 20,7 13,6 10,12 5,15 3,16 -3,17 -10,39 -23,63 -20,64 -13,35 -7,16 -11,15 -10,12 z"
   id="path78"
   inkscape:connector-curvature="0"
   style="fill:#7f0000;stroke:none" />
         <path
   d="m 11243,12488 13,-3 12,5 11,8 5,10 v 13 l -3,13 -7,10 -13,5 h -13 l -10,-3 -10,-7 -5,-13 -3,-13 5,-10 8,-10 z"
   id="path80"
   inkscape:connector-curvature="0"
   style="fill:#7f0000;stroke:none" />
         <path
   d="m 10282,13929 -18,10 -20,8 -23,2 h -25 l -26,-2 -25,-8 -23,-13 -23,-18 -20,-20 -21,-23 -22,-23 -23,-22 -23,-23 -21,-18 -22,-18 -23,-15 -49,-33 -48,-38 -51,-44 -45,-45 -44,-43 -35,-44 -33,-35 -23,-28 -18,-21 -20,-17 -13,-18 v -23 l 5,-25 3,-26 v -28 -33 -30 l 2,-56 3,-69 7,-81 10,-87 16,-88 23,-82 30,-73 23,-49 18,-46 10,-33 8,-15 15,-10 13,-5 12,3 13,7 8,10 7,16 5,17 v 21 l -2,25 -3,48 v 56 l 5,56 8,71 8,97 5,96 -5,77 -11,53 -10,43 -5,31 5,23 5,7 10,10 11,13 12,10 13,13 15,13 16,10 15,7 18,8 17,10 18,8 18,13 20,12 18,13 15,18 18,18 15,17 16,18 15,15 15,16 15,12 16,11 12,10 16,10 15,10 23,10 25,15 26,16 28,20 28,20 25,26 20,25 16,28 10,31 7,30 -2,31 -5,28 -16,28 -20,25 z"
   id="path82"
   inkscape:connector-curvature="0"
   style="fill:#7f0000;stroke:none" />
         <path
   d="m 9715,12544 13,-5 h 13 l 10,5 10,10 3,10 v 13 l -3,10 -10,10 -13,5 h -13 l -10,-5 -7,-7 -5,-13 v -13 l 2,-10 z"
   id="path84"
   inkscape:connector-curvature="0"
   style="fill:#7f0000;stroke:none" />
         <path
   d="m 10152,13774 13,-5 h 13 l 10,5 10,7 5,13 v 13 l -5,10 -10,10 -13,5 h -10 l -10,-5 -10,-10 -5,-13 v -10 l 5,-13 z"
   id="path86"
   inkscape:connector-curvature="0"
   style="fill:#7f0000;stroke:none" />
         <path
   d="m 9718,12612 18,3 17,-8 16,-10 7,-15 8,-25 8,-31 7,-36 8,-27 7,-31 11,-38 7,-36 8,-23 7,-15 8,-18 -2,-17 -16,-11 -18,-2 h -25 l -30,2 -33,3 -34,3 -30,5 -23,7 -13,5 -10,13 -5,15 -5,16 3,17 10,38 20,64 20,64 13,38 5,15 10,13 13,15 z"
   id="path88"
   inkscape:connector-curvature="0"
   style="fill:#7f0000;stroke:none" />
         <path
   d="m 9743,12541 -12,-2 -13,2 -10,8 -5,13 v 12 l 2,10 8,11 10,7 h 13 l 12,-2 10,-8 6,-13 2,-12 -5,-10 -8,-11 z"
   id="path90"
   inkscape:connector-curvature="0"
   style="fill:#7f0000;stroke:none" />
         <path
   d="m 10425,13329 v -2 -6 -7 l -8,-8 -10,-10 -13,-13 -10,-12 -5,-16 v -20 l -3,-30 -2,-31 -5,-18 -8,-25 -3,-46 -2,-46 v -30 l 2,-15 5,-13 6,-13 7,-10 5,-13 5,-23 8,-22 3,-16 5,-7 15,-10 18,-13 20,-15 20,-13 21,-15 15,-11 8,-5 10,-7 12,-5 18,-3 21,3 7,-3 10,-2 16,5 25,10 25,10 h 16 l 10,-5 h 15 l 20,5 18,15 16,18 7,20 5,18 5,18 13,13 20,7 8,10 10,23 5,33 3,36 v 36 35 l 2,33 3,28 v 26 l -3,30 -7,25 -10,21 -16,23 -10,25 -10,25 -5,16 -10,12 -10,13 -11,10 -12,8 h -11 -12 l -15,2 h -16 -15 -15 -13 l -8,3 -7,3 -13,2 -13,3 -15,2 -15,3 h -13 -10 l -8,-3 -7,-2 -10,-5 -16,-3 -12,-3 h -16 l -12,-2 -11,-3 h -7 l -10,-5 -8,-12 -2,-16 z"
   id="path92"
   inkscape:connector-curvature="0"
   style="fill:#000000;stroke:none" />
         <path
   d="m 10602,13700 -33,-2 -25,-8 -23,-10 -18,-15 -12,-16 -8,-20 -8,-20 -2,-21 -5,-53 -5,-66 -5,-64 -3,-45 -13,-16 -7,-23 -5,-30 -5,-41 -13,-7 -8,-16 -5,-20 v -20 -23 l 3,-26 5,-17 12,-5 v -49 l 3,-61 10,-61 23,-43 15,-13 16,-12 15,-13 18,-10 20,-8 20,-5 21,-5 h 22 l 23,3 23,5 21,5 20,7 18,11 17,10 16,12 15,13 23,43 10,61 3,61 v 49 l 10,5 7,17 3,26 v 23 20 l -5,20 -8,16 -15,7 -5,41 -5,30 -8,23 -13,16 -2,45 -5,64 -8,66 -5,53 -2,23 -6,20 -10,18 -12,18 -16,15 -23,10 -27,6 z"
   id="path94"
   inkscape:connector-curvature="0"
   style="fill:#7f0000;stroke:none" />
         <path
   d="m 10602,12917 13,-2 10,-5 8,-10 3,-13 -3,-13 -8,-10 -10,-8 -10,-2 -13,2 -10,5 -5,11 -3,12 3,13 5,10 10,8 z"
   id="path96"
   inkscape:connector-curvature="0"
   style="fill:#7f0000;stroke:none" />
         <path
   d="m 10602,13563 13,-3 10,-7 8,-10 3,-13 -3,-13 -8,-10 -10,-5 -10,-3 h -13 l -10,8 -5,10 -3,13 3,13 5,10 10,7 z"
   id="path98"
   inkscape:connector-curvature="0"
   style="fill:#7f0000;stroke:none" />
         <path
   d="m 10752,13360 v 2 0 0 3 l -12,15 -16,13 -17,12 -16,10 -17,11 -16,5 -12,5 -13,2 h -8 l -2,-2 h 2 l 8,-3 13,-2 12,-5 16,-8 15,-8 18,-10 15,-10 15,-15 z"
   id="path100"
   inkscape:connector-curvature="0"
   style="fill:#000000;stroke:none" />
         <path
   d="m 10636,13116 7,-8 10,-5 13,-5 13,-3 18,-2 15,5 18,5 15,10 5,5 v 3 h -5 l -10,-5 -11,-3 h -10 -12 -11 -12 l -10,3 -11,2 -5,3 -7,2 h -5 l -5,-2 z"
   id="path102"
   inkscape:connector-curvature="0"
   style="fill:#000000;stroke:none" />
         <path
   d="m 10643,13161 3,-2 7,-8 5,-5 3,-2 h 15 18 l 20,2 10,3 3,2 h 3 l 2,3 v 0 l -13,2 -15,3 -15,5 -8,2 -7,-2 -11,-3 h -12 z"
   id="path104"
   inkscape:connector-curvature="0"
   style="fill:#000000;stroke:none" />
         <path
   d="m 10651,13248 -3,5 -5,2 h -7 -6 l -5,3 -7,2 -8,6 h -8 -5 l -5,-3 h -2 l -3,-3 -5,-2 h -8 -5 -5 l -2,-3 -3,-2 v -3 l 3,-2 7,2 h 11 5 l 5,3 5,2 h 7 6 5 l 5,-2 h 5 l 5,-3 h 2 l 6,-2 5,-3 h 7 z"
   id="path106"
   inkscape:connector-curvature="0"
   style="fill:#000000;stroke:none" />
         <path
   d="m 10572,13116 -8,-8 -10,-5 -13,-5 -12,-3 -18,-2 -15,5 -18,5 -15,10 -5,5 v 3 h 5 l 10,-5 10,-3 h 10 13 13 10 l 10,3 10,2 5,3 8,2 h 7 l 5,-2 z"
   id="path108"
   inkscape:connector-curvature="0"
   style="fill:#000000;stroke:none" />
         <path
   d="m 10564,13161 -2,-2 -5,-8 -8,-5 -2,-2 h -13 -21 l -17,2 -13,3 -3,2 h -2 l -3,3 v 0 l 13,2 15,3 16,5 7,2 8,-2 13,-3 h 10 z"
   id="path110"
   inkscape:connector-curvature="0"
   style="fill:#000000;stroke:none" />
         <path
   d="m 10689,13314 v -5 l -3,-3 h -5 v 3 2 3 2 h -2 -8 -10 -8 l -10,-2 -10,-3 h -13 l -7,3 -8,2 -5,-2 h -10 l -13,2 h -8 -7 -10 l -5,-2 h -6 v -3 -5 h -5 l -2,3 -3,5 v 2 l 3,5 2,3 h 3 v 0 0 -3 h 10 13 l 12,3 h 8 5 5 5 5 l 8,-3 h 13 10 10 10 10 l 11,3 h 7 3 v 0 0 h 2 v 0 l 3,-3 v -2 z"
   id="path112"
   inkscape:connector-curvature="0"
   style="fill:#000000;stroke:none" />
         <path
   d="m 10643,13339 -7,3 -13,2 h -13 -8 -2 -3 v 3 l 3,2 h 8 15 l 15,-2 10,-3 5,-5 v -2 l -2,-3 z"
   id="path114"
   inkscape:connector-curvature="0"
   style="fill:#000000;stroke:none" />
         <path
   d="m 10785,12905 6,15 2,23 3,23 v 17 l 2,16 3,15 2,15 5,13 v 15 l -5,26 -10,28 -10,20 -8,10 -7,-5 -3,-15 v -21 -35 l -5,-48 -18,-46 -28,-28 -7,-3 h -13 -13 l -12,3 -13,2 -13,3 -7,2 -8,3 -5,3 h -10 -11 l -12,-3 -10,-3 -13,-5 -10,-2 -8,-5 -15,-5 -21,-5 h -15 l -5,5 -5,10 -15,13 -15,12 -16,10 -7,18 v 28 33 l -3,26 v 2 13 15 23 l -2,2 h -8 l -5,-5 -5,-5 -5,-12 -8,-16 -8,-15 -5,-13 -2,-20 -5,-38 -3,-36 v -20 l 5,-13 5,-23 8,-22 3,-16 5,-7 15,-10 18,-13 20,-15 20,-13 21,-15 15,-11 8,-5 10,-7 12,-5 18,-3 21,3 7,-3 10,-2 16,5 25,10 25,10 h 16 l 10,-5 h 15 l 20,5 18,15 16,18 7,20 5,16 5,12 5,13 z"
   id="path116"
   inkscape:connector-curvature="0"
   style="fill:#000000;stroke:none" />
         <path
   d="m 10602,12917 13,-2 10,-5 8,-10 3,-13 -3,-13 -5,-10 -10,-8 -13,-2 -13,2 -10,5 -5,11 -3,12 v 13 l 8,10 10,8 z"
   id="path118"
   inkscape:connector-curvature="0"
   style="fill:#000000;stroke:none" />
         <path
   d="m 10666,15024 33,-20 38,-16 41,-5 h 43 l 43,11 41,17 38,28 36,38 25,44 20,53 18,58 15,59 13,58 10,56 5,46 6,36 2,94 v 134 l -2,135 v 86 l 2,74 10,99 13,94 10,59 8,20 15,30 18,39 20,40 18,43 20,44 13,38 10,30 10,79 8,119 2,133 -7,124 -8,104 5,87 8,71 5,51 v 38 l -5,33 -8,23 -12,7 -16,-7 -17,-13 -18,-18 -15,-23 -16,-28 -10,-40 -10,-41 -5,-38 -10,-66 -18,-104 -23,-104 -23,-72 -10,-20 -13,-25 -15,-26 -13,-28 -10,-28 -13,-30 -7,-28 -5,-26 -10,-73 -16,-99 -15,-92 -10,-53 -13,-31 -15,-33 -15,-35 -13,-33 -13,-33 -10,-31 -8,-25 -2,-18 -3,-33 -2,-33 -5,-31 -5,-25 -13,-33 -28,-64 -38,-89 -41,-99 -43,-104 -36,-94 -25,-79 -13,-50 -2,-72 2,-61 8,-53 10,-46 13,-38 15,-28 18,-23 z"
   id="path120"
   inkscape:connector-curvature="0"
   style="fill:#7f0000;stroke:none" />
         <path
   d="m 10788,15166 -5,-10 v -12 l 2,-11 11,-10 12,-5 h 13 l 10,3 10,10 6,10 v 13 l -3,10 -10,10 -13,5 h -13 l -10,-2 z"
   id="path122"
   inkscape:connector-curvature="0"
   style="fill:#7f0000;stroke:none" />
         <path
   d="m 11180,17306 -6,-10 v -13 l 3,-10 10,-10 13,-5 h 13 l 10,2 10,11 5,10 v 12 l -5,11 -8,10 -12,5 h -13 l -10,-3 z"
   id="path124"
   inkscape:connector-curvature="0"
   style="fill:#7f0000;stroke:none" />
         <path
   d="m 11225,17189 -18,5 -20,13 -20,18 -13,18 -8,20 -5,18 -5,17 -10,18 -13,28 -10,36 -5,30 13,21 10,2 10,5 10,3 11,5 10,5 7,5 11,8 10,7 12,10 16,18 20,18 20,20 23,18 23,15 20,13 23,5 h 21 23 22 l 23,-2 21,-3 15,-5 13,-5 7,-5 5,-15 -5,-18 -10,-18 -8,-15 -5,-8 -10,-10 -7,-10 -13,-10 -10,-11 -13,-7 -10,-8 -10,-7 -13,-11 -15,-10 -16,-10 -15,-13 -13,-12 -10,-13 -7,-10 -5,-10 -6,-16 -5,-17 -5,-26 -7,-25 -11,-23 -12,-20 -13,-18 z"
   id="path126"
   inkscape:connector-curvature="0"
   style="fill:#ce9382;stroke:none" />
         <path
   d="m 11205,17321 13,-2 10,-5 7,-10 3,-13 -3,-13 -5,-10 -10,-8 -13,-2 h -12 l -10,5 -8,10 -3,13 v 12 l 8,11 10,7 z"
   id="path128"
   inkscape:connector-curvature="0"
   style="fill:#ce9382;stroke:none" />
         <path
   d="m 11098,17049 10,46 13,76 13,77 5,48 2,15 5,18 11,20 12,21 13,20 18,15 18,10 20,5 30,-12 13,-31 3,-45 -3,-51 v -44 l 5,-27 v -21 l -2,-13 5,-12 5,-15 v -18 l -8,-10 5,-11 3,-10 v -10 l -8,-10 -2,-13 5,-12 2,-13 -10,-5 h -13 l -17,2 -23,3 -26,5 -25,2 h -20 -21 l -12,-5 -16,-7 -10,-3 -2,5 z"
   id="path130"
   inkscape:connector-curvature="0"
   style="fill:#ffffff;stroke:none" />
         <path
   d="m 11129,17230 -3,-10 -5,-3 -8,3 -2,7 -3,13 -2,18 -5,20 -5,18 -8,23 -8,28 -5,30 3,31 13,25 15,13 18,7 17,6 13,7 18,18 25,23 28,25 31,23 33,23 30,15 28,5 h 28 31 30 l 31,-5 28,-5 20,-10 15,-18 5,-20 -2,-23 -8,-20 -10,-18 -15,-18 -15,-13 -16,-12 -12,-10 -11,-11 -12,-15 -21,-23 -22,-28 -26,-30 -25,-31 -23,-25 -15,-18 -6,-10 -2,-10 -10,-8 -10,-2 h -16 l -15,2 -15,8 -10,10 -8,15 -5,10 -10,5 -13,3 -15,-3 -13,-5 -13,-7 -7,-10 z"
   id="path132"
   inkscape:connector-curvature="0"
   style="fill:#7f99b2;stroke:none" />
         <path
   d="m 11535,17540 -5,20 -15,18 -20,10 -28,5 -31,5 h -30 -31 -28 l -28,-5 -30,-15 -33,-23 -31,-23 -28,-25 -25,-23 -18,-18 -13,-7 -17,-6 -18,-7 -15,-13 -13,-25 -8,20 v 15 l 3,18 7,13 13,5 13,5 15,5 13,5 15,5 13,8 12,10 13,13 13,15 20,15 23,15 28,13 33,13 36,10 38,8 43,2 28,-2 25,-5 23,-11 21,-10 12,-12 8,-16 3,-12 z"
   id="path134"
   inkscape:connector-curvature="0"
   style="fill:#000066;stroke:none" />
         <path
   d="m 11357,17433 -10,-10 -12,-13 -16,-15 -15,-18 -15,-18 -13,-17 -13,-16 -5,-15 -15,5 -18,5 -18,3 -22,-3 -21,-2 -20,-10 -20,-18 -16,-26 5,21 6,20 10,18 10,15 13,15 12,13 13,8 15,7 15,8 16,10 15,15 18,13 20,10 23,5 h 28 z"
   id="path136"
   inkscape:connector-curvature="0"
   style="fill:#004cb2;stroke:none" />
         <path
   d="m 11337,17413 5,-8 8,-5 10,-7 10,-6 10,-2 13,-3 h 10 l 13,3 -3,-3 -5,-10 -7,-10 -8,-10 h -10 -13 l -13,2 -12,3 -10,5 -11,8 -7,7 -5,8 z"
   id="path138"
   inkscape:connector-curvature="0"
   style="fill:#004cb2;stroke:none" />
         <path
   d="m 11294,17365 8,-6 7,-7 8,-5 10,-5 13,-3 10,-2 13,-3 12,3 -2,-3 -5,-10 -11,-10 -7,-8 h -10 -13 l -13,3 -12,2 -11,5 -10,8 -7,8 -6,7 z"
   id="path140"
   inkscape:connector-curvature="0"
   style="fill:#004cb2;stroke:none" />
         <path
   d="m 11294,17268 13,3 h 17 l 21,2 23,-2 17,-3 16,-8 10,-10 v -15 l -8,-28 -12,-18 -11,-10 -12,-3 -8,3 -10,5 -13,5 -15,5 -13,5 -13,8 -10,5 -7,5 -11,3 -12,-8 -15,-8 h -13 l -15,8 -13,15 -8,23 5,28 10,13 13,5 h 13 l 13,-5 12,-5 13,-5 8,-8 5,-5 v -10 l -5,-8 -8,-2 h -5 l -8,7 -10,8 h -10 l -5,-10 2,-16 11,-5 12,3 10,5 11,8 7,7 h 10 l 16,-12 15,-18 13,-13 12,-8 8,3 5,10 3,10 -5,10 -13,6 h -15 l -11,-3 h -7 l -5,3 -10,5 -13,5 -5,7 z"
   id="path142"
   inkscape:connector-curvature="0"
   style="fill:#004cb2;stroke:none" />
         <path
   d="m 10628,15568 28,5 30,5 31,5 33,3 35,2 34,3 h 35 l 36,-3 35,-2 33,-5 33,-5 33,-11 31,-10 28,-15 28,-15 23,-21 -5,-45 -8,-56 -10,-64 -10,-66 -13,-66 -13,-61 -15,-53 -15,-41 -21,-33 -25,-28 -33,-20 -36,-16 -38,-10 -40,-2 h -41 l -41,7 -38,11 -38,15 -33,18 -31,22 -22,23 -18,28 -10,31 -3,33 v 25 l -3,36 -2,46 v 53 l 2,61 11,66 15,74 z"
   id="path144"
   inkscape:connector-curvature="0"
   style="fill:#004cb2;stroke:none" />
         <path
   d="m 10470,15009 -35,-18 -38,-10 -41,-5 -41,5 -43,13 -38,20 -38,33 -31,41 -20,45 -18,54 -13,58 -10,64 -7,58 -6,56 -2,48 v 36 l 5,91 10,135 15,135 8,86 v 74 99 l -5,94 -5,58 -8,23 -10,31 -15,40 -15,44 -18,43 -13,43 -13,41 -5,30 -2,79 v 119 l 10,135 18,122 15,102 5,89 -5,71 v 51 l 5,38 8,30 10,23 13,5 15,-7 15,-13 15,-20 16,-23 12,-31 8,-40 2,-44 3,-38 5,-63 10,-107 13,-107 18,-71 20,-48 20,-59 18,-56 8,-55 5,-74 8,-99 7,-94 5,-54 23,-66 23,-73 15,-64 8,-43 -3,-33 3,-33 v -31 l 5,-28 10,-33 23,-66 31,-89 33,-104 30,-107 28,-96 20,-82 8,-50 -3,-69 -7,-63 -10,-51 -16,-46 -17,-36 -18,-28 -18,-20 z"
   id="path146"
   inkscape:connector-curvature="0"
   style="fill:#7f0000;stroke:none" />
         <path
   d="m 10361,15161 5,-12 v -13 l -5,-10 -10,-8 -13,-5 h -13 l -10,5 -10,10 -3,13 v 13 l 6,10 10,7 12,6 h 11 l 12,-6 z"
   id="path148"
   inkscape:connector-curvature="0"
   style="fill:#7f0000;stroke:none" />
         <path
   d="m 10152,17326 3,-12 v -10 l -5,-13 -10,-8 -13,-5 h -10 l -10,5 -10,10 -6,13 v 13 l 6,10 10,10 12,3 h 13 l 10,-5 z"
   id="path150"
   inkscape:connector-curvature="0"
   style="fill:#7f0000;stroke:none" />
         <path
   d="m 10580,15563 h -11 l -17,2 -23,3 h -28 -33 -36 l -38,-3 -38,-2 -43,-3 -41,-7 -41,-8 -38,-10 -38,-13 -33,-18 -28,-17 -25,-23 5,-61 5,-64 7,-63 11,-64 12,-58 16,-56 20,-51 25,-43 18,-18 20,-18 28,-13 28,-10 33,-7 33,-3 h 36 l 33,5 36,10 33,13 28,18 28,23 23,28 20,33 13,38 7,46 8,170 -3,122 -10,81 z"
   id="path152"
   inkscape:connector-curvature="0"
   style="fill:#004cb2;stroke:none" />
         <path
   d="m 10104,17212 18,5 20,13 21,18 12,17 8,21 5,15 5,18 10,18 13,28 13,35 2,33 -10,18 -10,5 -10,3 -10,5 -11,2 -10,5 -10,5 -10,8 -10,8 -13,12 -15,16 -21,20 -20,18 -20,20 -23,15 -23,10 -20,6 -23,2 h -23 -23 l -23,-2 -20,-3 -15,-5 -13,-5 -8,-5 -5,-16 5,-17 10,-18 8,-15 5,-8 10,-10 8,-10 13,-10 10,-11 13,-10 10,-7 10,-8 13,-8 15,-10 15,-13 15,-10 13,-12 10,-13 8,-13 5,-10 5,-13 5,-20 5,-23 8,-25 10,-23 13,-23 12,-15 z"
   id="path154"
   inkscape:connector-curvature="0"
   style="fill:#ce9382;stroke:none" />
         <path
   d="m 10127,17342 h -13 l -10,-8 -7,-8 -6,-12 3,-13 5,-10 10,-8 13,-5 13,3 10,5 7,10 3,13 v 12 l -5,11 -10,7 z"
   id="path156"
   inkscape:connector-curvature="0"
   style="fill:#ce9382;stroke:none" />
         <path
   d="m 10224,17067 -10,46 -13,76 -10,76 -5,49 -3,15 -5,18 -10,20 -13,20 -15,21 -18,15 -18,10 -20,5 -28,-12 -13,-31 -2,-46 2,-51 -2,-43 -3,-28 -2,-20 5,-13 -5,-12 -6,-16 v -17 l 8,-11 -8,-10 -2,-10 2,-10 6,-10 2,-13 -5,-13 v -12 l 10,-5 h 13 l 18,2 23,3 22,5 26,2 h 23 20 l 13,-5 15,-7 8,-3 2,5 z"
   id="path158"
   inkscape:connector-curvature="0"
   style="fill:#ffffff;stroke:none" />
         <path
   d="m 10193,17248 3,-11 7,-2 5,2 6,8 2,13 3,18 2,20 5,18 8,23 10,28 5,30 -5,31 -10,25 -15,13 -18,7 -18,5 -13,8 -18,18 -25,23 -28,25 -33,23 -30,23 -33,15 -28,5 h -28 -31 -30 l -31,-5 -25,-5 -23,-10 -13,-18 -8,-20 3,-23 8,-21 10,-17 15,-18 18,-13 15,-13 13,-10 10,-10 13,-15 17,-23 26,-28 25,-30 26,-31 20,-25 15,-18 5,-10 3,-10 10,-8 10,-3 h 16 l 15,3 15,8 13,10 7,15 5,10 11,5 12,3 13,-3 13,-5 12,-7 8,-11 z"
   id="path160"
   inkscape:connector-curvature="0"
   style="fill:#7f99b2;stroke:none" />
         <path
   d="m 9786,17558 8,20 13,18 23,10 25,5 31,5 h 30 31 28 l 28,-5 33,-15 30,-23 33,-23 28,-25 25,-23 18,-18 13,-8 18,-5 18,-7 15,-13 10,-25 8,20 v 15 l -3,18 -8,13 -12,5 -13,5 -13,5 -15,5 -13,5 -15,8 -13,10 -10,13 -15,15 -18,15 -25,15 -28,13 -33,13 -36,10 -38,7 -43,3 -28,-3 -26,-5 -22,-10 -18,-10 -13,-13 -10,-15 -3,-13 z"
   id="path162"
   inkscape:connector-curvature="0"
   style="fill:#000066;stroke:none" />
         <path
   d="m 9967,17451 10,-10 13,-13 13,-15 17,-18 13,-18 15,-18 10,-15 6,-15 15,5 18,5 17,3 23,-3 21,-2 20,-11 20,-17 16,-26 -6,21 -5,20 -10,18 -10,15 -13,15 -12,13 -13,8 -13,7 -15,8 -15,10 -16,15 -17,13 -21,10 -25,5 h -26 z"
   id="path164"
   inkscape:connector-curvature="0"
   style="fill:#004cb2;stroke:none" />
         <path
   d="m 9987,17431 -7,-8 -8,-5 -10,-8 -10,-5 -10,-2 -13,-3 h -10 l -13,3 2,-3 6,-10 7,-10 10,-10 h 11 12 l 13,2 13,3 10,5 10,7 8,8 2,8 z"
   id="path166"
   inkscape:connector-curvature="0"
   style="fill:#004cb2;stroke:none" />
         <path
   d="m 10028,17382 -5,-5 -8,-7 -10,-5 -10,-6 -10,-2 -13,-3 -10,-2 -13,2 3,-2 5,-10 7,-10 8,-8 h 10 13 l 13,2 12,3 10,5 11,8 7,7 5,8 z"
   id="path168"
   inkscape:connector-curvature="0"
   style="fill:#004cb2;stroke:none" />
         <path
   d="m 10028,17286 -13,2 h -18 l -20,3 -23,-3 -18,-2 -15,-8 -10,-10 v -15 l 10,-28 13,-18 10,-10 10,-3 8,3 10,5 15,5 13,5 15,5 13,8 10,5 5,5 10,2 13,-7 15,-8 h 16 l 15,8 13,15 7,23 -7,28 -11,13 -12,5 h -13 l -13,-5 -12,-5 -13,-6 -8,-7 -5,-5 v -10 l 5,-8 8,-3 h 5 l 8,8 10,8 h 10 l 5,-10 -3,-16 -10,-5 -12,3 -11,5 -7,7 -10,8 h -11 l -12,-13 -16,-17 -15,-13 -13,-8 -7,3 -3,10 -2,10 2,10 13,5 h 15 l 13,-2 h 8 l 5,2 10,5 13,6 5,7 z"
   id="path170"
   inkscape:connector-curvature="0"
   style="fill:#004cb2;stroke:none" />
         <path
   d="m 10605,13459 h -18 l -18,2 -17,3 -18,5 -18,7 -18,8 -18,13 -15,13 -20,10 -23,12 -28,16 -28,15 -25,15 -26,15 -18,13 -15,10 -13,5 -20,5 -20,5 -23,6 -20,7 -23,8 -18,15 -15,18 -21,41 -15,40 -5,48 8,51 12,59 13,63 10,51 13,33 18,31 15,33 13,35 12,36 11,35 7,33 5,31 3,30 v 79 69 l 2,58 5,51 3,48 -3,46 -7,46 -10,43 -13,41 -13,40 -10,44 -8,50 -5,72 -7,81 -8,71 3,31 22,7 26,10 28,10 30,13 36,10 36,8 38,5 40,3 h 46 l 51,-3 58,-3 59,-2 56,-3 53,-2 46,-3 h 36 33 l 33,-2 30,-3 31,-5 25,-5 20,-5 13,-5 5,-8 v -48 l -2,-89 -5,-99 -13,-79 -15,-56 -16,-45 -10,-39 -5,-28 3,-53 5,-94 5,-94 5,-66 5,-51 13,-63 17,-61 16,-49 10,-40 10,-41 10,-41 13,-43 15,-46 15,-50 11,-46 5,-43 2,-46 v -53 l -5,-44 -7,-23 -8,-5 -8,-5 -12,-10 -13,-7 -15,-8 -13,-8 -13,-5 -13,-2 h -12 l -13,-5 -10,-6 -13,-5 -13,-7 -10,-5 -7,-8 -8,-5 -8,-5 -15,-10 -15,-10 -20,-11 -18,-10 -18,-10 -13,-8 -10,-2 -8,-5 -12,-8 -13,-12 -20,-13 -23,-13 -31,-13 -38,-7 z"
   id="path172"
   inkscape:connector-curvature="0"
   style="fill:#7f0000;stroke:none" />
         <path
   d="m 10602,13563 13,-3 10,-7 8,-10 3,-13 -3,-13 -8,-10 -10,-5 -13,-3 h -10 l -10,8 -5,10 -3,13 3,13 5,10 10,7 z"
   id="path174"
   inkscape:connector-curvature="0"
   style="fill:#7f0000;stroke:none" />
         <path
   d="m 10170,13832 13,-2 10,-8 8,-10 2,-13 -2,-13 -8,-10 -10,-5 -13,-2 -12,2 -11,5 -5,10 -2,13 2,13 5,10 11,8 z"
   id="path176"
   inkscape:connector-curvature="0"
   style="fill:#7f0000;stroke:none" />
         <path
   d="m 11042,13837 13,-2 10,-8 5,-10 3,-13 -3,-10 -5,-10 -10,-8 -13,-2 -12,2 -11,5 -7,11 -3,12 3,13 7,10 11,8 z"
   id="path178"
   inkscape:connector-curvature="0"
   style="fill:#7f0000;stroke:none" />
         <path
   d="m 10333,15177 13,-3 10,-5 7,-10 3,-13 -3,-13 -7,-10 -10,-7 -13,-3 -13,3 -10,7 -5,10 -3,11 v 12 l 8,10 10,8 z"
   id="path180"
   inkscape:connector-curvature="0"
   style="fill:#7f0000;stroke:none" />
         <path
   d="m 10813,15182 13,-3 10,-8 8,-10 3,-12 -3,-13 -5,-10 -10,-8 -13,-2 -13,2 -10,8 -8,10 -2,13 2,12 6,10 10,8 z"
   id="path182"
   inkscape:connector-curvature="0"
   style="fill:#7f0000;stroke:none" />
         <path
   d="m 10211,14900 -15,38 -18,45 -15,51 -18,51 -10,46 -8,40 3,31 10,15 10,5 13,5 12,5 18,8 21,5 22,8 26,7 28,5 30,8 33,5 33,3 39,5 38,2 h 40 44 l 45,-2 46,-3 43,-2 41,-3 41,-2 35,-3 36,-2 h 30 l 31,-3 25,-3 23,-2 h 20 l 18,-3 15,-2 11,-3 7,-5 5,-2 11,-49 2,-91 -5,-97 -8,-71 -48,-2 -56,-3 -56,-5 -61,-2 -61,-3 -63,-5 -61,-3 -61,-5 -61,-2 -56,-3 -54,-2 -45,-3 -44,-2 h -35 -28 z"
   id="path184"
   inkscape:connector-curvature="0"
   style="fill:#004cb2;stroke:none" />
         <path
   d="m 10170,14894 -15,54 -23,63 -20,59 -3,30 5,5 13,8 15,5 18,8 23,7 25,5 28,8 28,3 31,5 35,5 41,5 43,2 44,5 48,3 46,3 h 48 25 l 31,-3 33,-3 33,-2 36,-3 35,-5 36,-2 35,-5 36,-3 30,-5 31,-2 28,-6 23,-5 18,-2 12,-5 8,-3 15,-13 10,-12 v -23 l -7,-38 -11,-49 -5,-50 -5,-49 -7,-40 -10,-43 -8,-54 -5,-56 -3,-48 v -76 l 3,-120 2,-117 8,-68 3,-23 -8,-15 -15,-10 -21,-11 -43,-45 -33,-72 -25,-89 -16,-96 -5,-97 5,-91 13,-74 26,-53 -26,-13 -20,-13 -15,-7 -6,-3 -7,38 -10,49 -13,56 -23,55 -28,51 -41,43 -50,31 -64,10 -64,-15 -53,-36 -43,-53 -31,-64 -23,-61 -17,-53 -8,-36 -3,-15 -25,15 -18,16 -12,10 -3,2 10,51 13,74 8,86 5,94 -3,97 -13,89 -25,76 -41,54 -20,15 -18,12 -13,16 -2,17 5,49 v 81 86 l 5,61 -2,67 -11,96 -17,102 z"
   id="path186"
   inkscape:connector-curvature="0"
   style="fill:#ff4400;stroke:none" />
         <path
   d="m 11019,14333 -40,-18 -46,-13 -51,-12 -53,-8 -59,-8 -58,-2 -61,-3 h -59 l -61,3 -58,2 -54,3 -53,5 -48,8 -41,5 -38,7 -28,8 -5,-31 28,-7 38,-8 43,-5 46,-7 53,-6 56,-2 59,-3 61,-2 h 61 l 61,2 58,5 59,6 56,10 50,10 46,15 41,18 z"
   id="path188"
   inkscape:connector-curvature="0"
   style="fill:#d8d8d8;stroke:none" />
         <path
   d="m 11017,14465 -41,-18 -46,-12 -50,-13 -54,-8 -58,-7 -59,-3 -61,-3 h -58 l -61,3 -56,3 -56,5 -51,5 -48,5 -41,7 -38,8 -28,8 v -33 l 28,-8 38,-8 41,-5 48,-7 51,-5 56,-3 56,-2 61,-3 h 58 l 61,3 59,5 58,5 54,10 50,10 46,15 41,18 z"
   id="path190"
   inkscape:connector-curvature="0"
   style="fill:#d8d8d8;stroke:none" />
        </g>
       </g>
      </g>
     </g>
    </g>
   </g>
  </g>
 </g>
</svg>