<?xml version="1.0" encoding="UTF-8" standalone="no"?>
<svg
   xmlns:ooo="http://xml.openoffice.org/svg/export"
   xmlns:dc="http://purl.org/dc/elements/1.1/"
   xmlns:cc="http://creativecommons.org/ns#"
   xmlns:rdf="http://www.w3.org/1999/02/22-rdf-syntax-ns#"
   xmlns:svg="http://www.w3.org/2000/svg"
   xmlns="http://www.w3.org/2000/svg"
   xmlns:sodipodi="http://sodipodi.sourceforge.net/DTD/sodipodi-0.dtd"
   xmlns:inkscape="http://www.inkscape.org/namespaces/inkscape"
   version="1.2"
   width="16.309999mm"
   height="35.459999mm"
   viewBox="0 0 1630.9999 3545.9999"
   preserveAspectRatio="xMidYMid"
   xml:space="preserve"
   id="svg285"
   sodipodi:docname="wheat5.svg"
   style="fill-rule:evenodd;stroke-width:28.22200012;stroke-linejoin:round"
   inkscape:version="0.92.5 (2060ec1f9f, 2020-04-08)"><metadata
   id="metadata289"><rdf:RDF><cc:Work
       rdf:about=""><dc:format>image/svg+xml</dc:format><dc:type
         rdf:resource="http://purl.org/dc/dcmitype/StillImage" /></cc:Work></rdf:RDF></metadata><sodipodi:namedview
   pagecolor="#ffffff"
   bordercolor="#666666"
   borderopacity="1"
   objecttolerance="10"
   gridtolerance="10"
   guidetolerance="10"
   inkscape:pageopacity="0"
   inkscape:pageshadow="2"
   inkscape:window-width="664"
   inkscape:window-height="487"
   id="namedview287"
   showgrid="false"
   inkscape:zoom="0.2102413"
   inkscape:cx="30.840946"
   inkscape:cy="67.011022"
   inkscape:window-x="0"
   inkscape:window-y="0"
   inkscape:window-maximized="0"
   inkscape:current-layer="svg285" />
 <defs
   class="ClipPathGroup"
   id="defs8">
  <clipPath
   id="presentation_clip_path"
   clipPathUnits="userSpaceOnUse">
   <rect
   x="0"
   y="0"
   width="21000"
   height="29700"
   id="rect2" />
  </clipPath>
  <clipPath
   id="presentation_clip_path_shrink"
   clipPathUnits="userSpaceOnUse">
   <rect
   x="21"
   y="29"
   width="20958"
   height="29641"
   id="rect5" />
  </clipPath>
 </defs>
 <defs
   class="TextShapeIndex"
   id="defs12">
  <g
   ooo:slide="id1"
   ooo:id-list="id3"
   id="g10" />
 </defs>
 <defs
   class="EmbeddedBulletChars"
   id="defs44">
  <g
   id="bullet-char-template-57356"
   transform="matrix(4.8828125e-4,0,0,-4.8828125e-4,0,0)">
   <path
   d="M 580,1141 1163,571 580,0 -4,571 Z"
   id="path14"
   inkscape:connector-curvature="0" />
  </g>
  <g
   id="bullet-char-template-57354"
   transform="matrix(4.8828125e-4,0,0,-4.8828125e-4,0,0)">
   <path
   d="M 8,1128 H 1137 V 0 H 8 Z"
   id="path17"
   inkscape:connector-curvature="0" />
  </g>
  <g
   id="bullet-char-template-10146"
   transform="matrix(4.8828125e-4,0,0,-4.8828125e-4,0,0)">
   <path
   d="M 174,0 602,739 174,1481 1456,739 Z M 1358,739 309,1346 659,739 Z"
   id="path20"
   inkscape:connector-curvature="0" />
  </g>
  <g
   id="bullet-char-template-10132"
   transform="matrix(4.8828125e-4,0,0,-4.8828125e-4,0,0)">
   <path
   d="M 2015,739 1276,0 H 717 l 543,543 H 174 v 393 h 1086 l -543,545 h 557 z"
   id="path23"
   inkscape:connector-curvature="0" />
  </g>
  <g
   id="bullet-char-template-10007"
   transform="matrix(4.8828125e-4,0,0,-4.8828125e-4,0,0)">
   <path
   d="m 0,-2 c -7,16 -16,29 -25,39 l 381,530 c -94,256 -141,385 -141,387 0,25 13,38 40,38 9,0 21,-2 34,-5 21,4 42,12 65,25 l 27,-13 111,-251 280,301 64,-25 24,25 c 21,-10 41,-24 62,-43 C 886,937 835,863 770,784 769,783 710,716 594,584 L 774,223 c 0,-27 -21,-55 -63,-84 l 16,-20 C 717,90 699,76 672,76 641,76 570,178 457,381 L 164,-76 c -22,-34 -53,-51 -92,-51 -42,0 -63,17 -64,51 -7,9 -10,24 -10,44 0,9 1,19 2,30 z"
   id="path26"
   inkscape:connector-curvature="0" />
  </g>
  <g
   id="bullet-char-template-10004"
   transform="matrix(4.8828125e-4,0,0,-4.8828125e-4,0,0)">
   <path
   d="M 285,-33 C 182,-33 111,30 74,156 52,228 41,333 41,471 c 0,78 14,145 41,201 34,71 87,106 158,106 53,0 88,-31 106,-94 l 23,-176 c 8,-64 28,-97 59,-98 l 735,706 c 11,11 33,17 66,17 42,0 63,-15 63,-46 V 965 c 0,-36 -10,-64 -30,-84 L 442,47 C 390,-6 338,-33 285,-33 Z"
   id="path29"
   inkscape:connector-curvature="0" />
  </g>
  <g
   id="bullet-char-template-9679"
   transform="matrix(4.8828125e-4,0,0,-4.8828125e-4,0,0)">
   <path
   d="M 813,0 C 632,0 489,54 383,161 276,268 223,411 223,592 c 0,181 53,324 160,431 106,107 249,161 430,161 179,0 323,-54 432,-161 108,-107 162,-251 162,-431 0,-180 -54,-324 -162,-431 C 1136,54 992,0 813,0 Z"
   id="path32"
   inkscape:connector-curvature="0" />
  </g>
  <g
   id="bullet-char-template-8226"
   transform="matrix(4.8828125e-4,0,0,-4.8828125e-4,0,0)">
   <path
   d="m 346,457 c -73,0 -137,26 -191,78 -54,51 -81,114 -81,188 0,73 27,136 81,188 54,52 118,78 191,78 73,0 134,-26 185,-79 51,-51 77,-114 77,-187 0,-75 -25,-137 -76,-188 -50,-52 -112,-78 -186,-78 z"
   id="path35"
   inkscape:connector-curvature="0" />
  </g>
  <g
   id="bullet-char-template-8211"
   transform="matrix(4.8828125e-4,0,0,-4.8828125e-4,0,0)">
   <path
   d="M -4,459 H 1135 V 606 H -4 Z"
   id="path38"
   inkscape:connector-curvature="0" />
  </g>
  <g
   id="bullet-char-template-61548"
   transform="matrix(4.8828125e-4,0,0,-4.8828125e-4,0,0)">
   <path
   d="m 173,740 c 0,163 58,303 173,419 116,115 255,173 419,173 163,0 302,-58 418,-173 116,-116 174,-256 174,-419 0,-163 -58,-303 -174,-418 C 1067,206 928,148 765,148 601,148 462,206 346,322 231,437 173,577 173,740 Z"
   id="path41"
   inkscape:connector-curvature="0" />
  </g>
 </defs>
 <g
   id="g49"
   transform="translate(-9684,-13077)">
  <g
   id="id2"
   class="Master_Slide">
   <g
   id="bg-id2"
   class="Background" />
   <g
   id="bo-id2"
   class="BackgroundObjects" />
  </g>
 </g>
 <g
   class="SlideGroup"
   id="g283"
   transform="translate(-9684,-13077)">
  <g
   id="g281">
   <g
   id="container-id1">
    <g
   id="id1"
   class="Slide"
   clip-path="url(#presentation_clip_path)">
     <g
   class="Page"
   id="g277">
      <g
   class="Graphic"
   id="g275">
       <g
   id="id3">
        <rect
   class="BoundingBox"
   x="9684"
   y="13077"
   width="1631"
   height="3546"
   id="rect51"
   style="fill:none;stroke:none" />
        <defs
   id="defs56">
         <clipPath
   id="clip_path_1"
   clipPathUnits="userSpaceOnUse">
          <path
   d="m 9684,13077 h 1630 v 3545 H 9684 Z"
   id="path53"
   inkscape:connector-curvature="0" />
         </clipPath>
        </defs>
        <g
   clip-path="url(#clip_path_1)"
   id="g272">
         <path
   d="m 10549,14767 33,-28 36,-25 35,-20 39,-16 40,-7 38,2 44,16 40,30 -17,33 -26,28 -28,20 -35,13 -44,3 -45,-5 -51,-16 z"
   id="path58"
   inkscape:connector-curvature="0"
   style="fill:#d1a356;stroke:none" />
         <path
   d="m 10865,14722 -3,-11 -43,-33 -46,-15 -41,-2 -43,7 -41,16 -35,20 -38,28 -34,28 16,15 33,-28 33,-23 36,-20 35,-15 38,-8 36,3 41,15 38,28 -3,-10 3,10 7,2 8,-2 3,-8 -3,-8 z"
   id="path60"
   inkscape:connector-curvature="0"
   style="fill:#000000;stroke:none" />
         <path
   d="m 10541,14760 3,18 61,28 51,15 48,7 44,-5 40,-12 31,-23 28,-31 18,-35 -21,-5 -18,30 -22,25 -26,18 -30,13 h -44 l -43,-3 -51,-15 -56,-28 3,18 -3,-18 h -7 l -8,5 v 10 l 5,6 z"
   id="path62"
   inkscape:connector-curvature="0"
   style="fill:#000000;stroke:none" />
         <path
   d="m 9699,16420 v -84 l 8,-99 15,-110 21,-122 25,-132 31,-137 33,-142 38,-148 43,-150 43,-147 49,-148 48,-142 48,-137 51,-130 51,-122 51,-109 -38,-92 -8,-91 13,-79 25,-48 23,20 18,28 15,30 13,36 5,36 5,38 v 38 l -5,38 15,-36 23,-35 28,-33 33,-31 36,-23 33,-15 36,-8 33,6 -5,38 -18,40 -26,38 -35,36 -36,33 -38,26 -36,17 -28,8 -66,127 -61,127 -56,130 -51,129 -46,130 -40,127 -38,125 -36,122 -31,117 -28,111 -22,107 -23,99 -18,89 -18,84 -15,71 -13,64 33,-102 33,-101 36,-97 38,-97 38,-94 36,-91 41,-87 38,-83 38,-79 35,-77 39,-68 35,-64 36,-56 33,-50 30,-46 31,-36 -8,-53 v -51 l 5,-48 11,-41 12,-36 16,-30 15,-23 15,-13 23,33 18,33 8,36 2,36 -5,38 -10,35 -18,33 -25,33 38,-30 40,-18 39,-10 h 38 l 35,8 33,15 31,18 28,25 -31,23 -35,18 -38,10 -41,5 h -38 l -38,-3 -31,-5 -25,-5 -59,71 -58,87 -59,96 -58,105 -56,111 -56,120 -54,122 -51,125 -48,124 -43,122 -39,120 -35,114 -26,107 -22,99 -13,86 -5,74 -21,-41 -7,-68 v -66 z"
   id="path64"
   inkscape:connector-curvature="0"
   style="fill:#d1a356;stroke:none" />
         <path
   d="m 10244,14366 v -10 l -51,109 -51,124 -51,130 -48,137 -49,143 -48,147 -43,148 -43,150 -39,147 -33,142 -30,138 -26,134 -20,122 -15,110 -8,99 v 84 h 20 v -84 l 8,-99 15,-110 21,-122 25,-129 31,-138 33,-142 38,-147 43,-150 43,-148 49,-147 48,-143 48,-137 51,-129 51,-120 51,-109 v -10 10 -8 l -5,-7 h -10 l -5,5 z"
   id="path66"
   inkscape:connector-curvature="0"
   style="fill:#000000;stroke:none" />
         <path
   d="m 10251,14040 -12,3 -28,53 -16,82 11,94 38,94 20,-10 -38,-89 -5,-89 10,-77 23,-43 -13,3 13,-3 3,-7 -3,-8 -8,-3 -7,3 z"
   id="path68"
   inkscape:connector-curvature="0"
   style="fill:#000000;stroke:none" />
         <path
   d="m 10310,14312 20,3 5,-38 v -38 l -5,-38 -5,-39 -13,-35 -15,-33 -20,-31 -26,-23 -10,21 21,18 15,25 15,28 13,35 5,34 5,38 v 38 l -5,38 20,2 -20,-2 2,8 8,2 8,-2 2,-8 z"
   id="path70"
   inkscape:connector-curvature="0"
   style="fill:#000000;stroke:none" />
         <path
   d="m 10567,14140 -8,-11 -35,-7 -38,10 -36,15 -38,26 -33,30 -31,36 -23,35 -15,38 20,5 16,-33 22,-35 26,-31 33,-30 33,-21 31,-15 33,-5 30,3 -7,-10 7,10 8,-3 5,-5 v -8 l -8,-5 z"
   id="path72"
   inkscape:connector-curvature="0"
   style="fill:#000000;stroke:none" />
         <path
   d="m 10346,14381 -11,5 31,-8 38,-17 41,-28 35,-33 36,-36 28,-41 18,-43 5,-40 h -20 l -6,35 -17,38 -23,36 -36,35 -35,33 -36,23 -33,18 -26,8 -10,5 10,-5 -7,2 -3,8 3,8 7,2 z"
   id="path74"
   inkscape:connector-curvature="0"
   style="fill:#000000;stroke:none" />
         <path
   d="m 9763,16132 20,5 13,-63 15,-71 18,-87 18,-86 23,-99 23,-107 28,-112 30,-117 36,-122 38,-124 41,-127 45,-130 51,-130 56,-127 61,-127 67,-127 -21,-10 -66,127 -61,127 -56,132 -51,130 -46,129 -40,128 -39,124 -35,122 -31,117 -28,112 -23,107 -23,99 -17,91 -18,82 -15,71 -13,63 20,5 -20,-5 2,8 6,5 7,-2 5,-6 z"
   id="path76"
   inkscape:connector-curvature="0"
   style="fill:#000000;stroke:none" />
         <path
   d="m 10333,14907 2,-7 -30,38 -33,45 -33,51 -36,56 -36,64 -38,68 -35,77 -39,78 -38,84 -40,89 -36,92 -38,94 -38,96 -36,97 -33,102 -33,101 20,5 33,-101 33,-102 36,-96 38,-97 38,-94 36,-92 41,-83 38,-84 38,-79 36,-76 38,-69 35,-64 36,-56 33,-50 28,-46 31,-33 2,-8 -2,8 2,-8 -2,-7 -8,-3 -8,3 z"
   id="path78"
   inkscape:connector-curvature="0"
   style="fill:#000000;stroke:none" />
         <path
   d="m 10417,14605 -13,-3 -18,15 -18,26 -15,33 -13,35 -10,44 -5,48 v 51 l 8,53 h 20 l -7,-53 v -51 l 5,-48 10,-38 13,-36 15,-28 13,-20 12,-11 -12,-2 12,2 5,-5 v -10 l -7,-5 h -8 z"
   id="path80"
   inkscape:connector-curvature="0"
   style="fill:#000000;stroke:none" />
         <path
   d="m 10394,14882 15,15 28,-36 18,-35 10,-38 8,-38 -5,-36 -8,-38 -18,-36 -25,-35 -15,15 20,30 18,31 7,33 v 36 l -2,38 -10,33 -18,30 -23,31 15,15 -15,-15 -3,7 3,8 8,3 7,-3 z"
   id="path82"
   inkscape:connector-curvature="0"
   style="fill:#000000;stroke:none" />
         <path
   d="m 10692,14905 v -16 l -31,-28 -30,-17 -36,-16 -38,-7 h -38 l -41,10 -43,18 -41,33 15,15 36,-28 38,-18 36,-10 h 38 l 33,8 30,15 31,18 25,23 v -16 16 l 8,2 8,-2 2,-8 -2,-8 z"
   id="path84"
   inkscape:connector-curvature="0"
   style="fill:#000000;stroke:none" />
         <path
   d="m 10414,14948 -10,2 28,5 31,6 38,5 38,-3 41,-5 40,-10 39,-18 33,-25 -16,-16 -28,21 -33,18 -35,10 -41,5 -38,-3 h -38 l -31,-5 -23,-5 -10,3 10,-3 -7,3 -6,5 3,7 5,5 z"
   id="path86"
   inkscape:connector-curvature="0"
   style="fill:#000000;stroke:none" />
         <path
   d="m 9720,16633 15,-10 5,-74 13,-86 23,-97 25,-106 36,-115 38,-119 43,-122 48,-125 51,-124 54,-120 56,-119 56,-112 58,-104 59,-97 58,-87 56,-68 -15,-15 -61,73 -59,87 -58,96 -59,105 -56,111 -56,120 -53,124 -51,125 -48,125 -44,122 -38,119 -35,114 -26,107 -23,102 -12,86 -5,74 15,-10 -15,10 2,8 8,2 7,-2 3,-8 z"
   id="path88"
   inkscape:connector-curvature="0"
   style="fill:#000000;stroke:none" />
         <path
   d="m 9689,16420 v 0 l -5,28 3,66 7,71 26,48 10,-20 -15,-33 -8,-66 2,-66 v -28 0 0 l -2,-8 -8,-3 -7,3 z"
   id="path90"
   inkscape:connector-curvature="0"
   style="fill:#000000;stroke:none" />
         <path
   d="m 10503,14760 -12,-59 -3,-58 5,-56 10,-48 18,-46 20,-38 23,-31 26,-23 18,51 10,51 v 53 l -8,49 -18,45 -23,44 -30,35 z"
   id="path92"
   inkscape:connector-curvature="0"
   style="fill:#d1a356;stroke:none" />
         <path
   d="m 10600,14396 -15,-5 -28,26 -26,33 -20,38 -18,48 -10,51 -8,56 5,58 13,61 20,-5 -12,-56 v -58 l 2,-56 10,-46 18,-43 21,-38 20,-28 23,-20 -15,-6 15,6 5,-6 v -10 l -8,-5 h -7 z"
   id="path94"
   inkscape:connector-curvature="0"
   style="fill:#000000;stroke:none" />
         <path
   d="m 10493,14762 15,8 39,-33 33,-38 23,-43 17,-49 8,-51 v -53 l -10,-53 -18,-54 -20,10 17,49 11,48 v 53 l -8,46 -18,43 -23,44 -28,33 -33,28 15,7 -15,-7 -5,5 v 7 l 8,8 h 7 z"
   id="path96"
   inkscape:connector-curvature="0"
   style="fill:#000000;stroke:none" />
         <path
   d="m 10646,14617 -3,-45 v -49 l 5,-45 11,-46 12,-38 23,-33 31,-26 38,-12 5,43 2,46 -7,40 -13,41 -18,38 -23,33 -28,31 z"
   id="path98"
   inkscape:connector-curvature="0"
   style="fill:#d1a356;stroke:none" />
         <path
   d="m 10773,14320 -10,-8 -43,13 -33,28 -26,36 -13,40 -10,49 -5,45 -2,49 5,45 h 20 v -45 l -3,-49 6,-45 10,-44 12,-35 21,-31 28,-23 33,-12 -10,-8 10,8 7,-3 3,-7 -3,-8 -7,-3 z"
   id="path100"
   inkscape:connector-curvature="0"
   style="fill:#000000;stroke:none" />
         <path
   d="m 10636,14617 15,11 38,-26 28,-30 25,-36 18,-41 13,-40 8,-43 -3,-46 -5,-46 -20,5 5,41 2,46 -7,38 -13,40 -18,36 -20,30 -28,31 -33,20 15,10 -15,-10 -5,5 v 8 l 7,8 h 8 z"
   id="path102"
   inkscape:connector-curvature="0"
   style="fill:#000000;stroke:none" />
         <path
   d="m 10689,14633 31,-28 28,-26 30,-18 33,-15 33,-7 h 36 l 41,7 43,15 -13,34 -23,25 -30,18 -36,12 -43,6 -43,-3 -44,-8 z"
   id="path104"
   inkscape:connector-curvature="0"
   style="fill:#d1a356;stroke:none" />
         <path
   d="m 10974,14561 -8,-10 -43,-15 -43,-8 h -36 l -35,8 -36,15 -31,18 -30,28 -31,28 16,15 30,-28 26,-23 30,-17 31,-16 30,-7 h 36 l 38,7 43,16 -7,-11 7,11 8,-3 5,-5 v -8 l -8,-5 z"
   id="path106"
   inkscape:connector-curvature="0"
   style="fill:#000000;stroke:none" />
         <path
   d="m 10681,14625 6,18 43,13 46,7 43,5 46,-7 38,-13 33,-20 25,-28 13,-39 h -20 l -13,28 -20,23 -28,16 -33,12 -41,3 h -43 l -41,-8 -43,-13 5,18 -5,-18 -8,3 -5,5 2,8 6,5 z"
   id="path108"
   inkscape:connector-curvature="0"
   style="fill:#000000;stroke:none" />
         <path
   d="m 10765,14516 13,-51 23,-41 25,-30 34,-23 33,-15 35,-11 33,-2 h 33 l -2,38 -8,36 -18,33 -20,25 -33,20 -38,16 -51,7 z"
   id="path110"
   inkscape:connector-curvature="0"
   style="fill:#d1a356;stroke:none" />
         <path
   d="m 11007,14343 -13,-10 -33,-3 -33,5 -38,10 -36,16 -35,25 -28,33 -23,43 -13,54 h 21 l 12,-49 23,-38 23,-28 31,-20 30,-15 33,-10 h 33 l 33,-3 -12,-10 12,10 8,-2 3,-8 -3,-8 -8,-2 z"
   id="path112"
   inkscape:connector-curvature="0"
   style="fill:#000000;stroke:none" />
         <path
   d="m 10755,14516 10,10 59,2 53,-7 41,-15 36,-23 23,-28 17,-36 8,-38 5,-38 h -25 v 38 l -8,33 -18,31 -18,22 -30,18 -36,15 -48,8 -59,-2 11,10 -11,-10 -7,2 -3,8 3,7 7,3 z"
   id="path114"
   inkscape:connector-curvature="0"
   style="fill:#000000;stroke:none" />
         <path
   d="m 10353,14213 -28,-53 -20,-56 -10,-53 -3,-51 5,-49 10,-43 13,-35 20,-28 28,38 21,43 13,46 7,48 v 51 l -10,48 -18,48 z"
   id="path116"
   inkscape:connector-curvature="0"
   style="fill:#d1a356;stroke:none" />
         <path
   d="m 10348,13837 h -15 l -23,31 -13,38 -10,45 -8,49 5,51 11,55 20,59 28,53 20,-10 -28,-53 -20,-54 -10,-50 v -51 l 2,-49 11,-40 12,-33 18,-26 h -15 15 l 3,-7 -3,-8 -8,-3 -7,3 z"
   id="path118"
   inkscape:connector-curvature="0"
   style="fill:#000000;stroke:none" />
         <path
   d="m 10343,14218 18,3 30,-48 18,-51 10,-51 v -51 l -7,-51 -13,-46 -20,-45 -31,-41 -15,15 25,36 21,41 12,45 8,46 v 51 l -10,46 -18,45 -25,44 17,2 -17,-2 -3,7 3,8 7,2 8,-2 z"
   id="path120"
   inkscape:connector-curvature="0"
   style="fill:#000000;stroke:none" />
         <path
   d="m 10409,14152 15,-46 16,-38 20,-35 26,-28 25,-23 30,-18 31,-7 h 36 l -8,30 -10,31 -13,30 -15,25 -26,26 -30,23 -43,18 z"
   id="path122"
   inkscape:connector-curvature="0"
   style="fill:#d1a356;stroke:none" />
         <path
   d="m 10618,13959 -10,-13 h -36 l -33,8 -33,18 -28,25 -28,31 -20,35 -16,41 -15,46 20,5 16,-46 15,-36 20,-35 23,-26 23,-20 28,-18 28,-7 h 36 l -11,-13 11,13 7,-3 3,-7 -3,-8 -7,-3 z"
   id="path124"
   inkscape:connector-curvature="0"
   style="fill:#000000;stroke:none" />
         <path
   d="m 10399,14150 10,12 56,-12 46,-18 33,-26 25,-25 18,-28 13,-33 10,-30 8,-31 -21,-5 -7,30 -10,31 -13,28 -13,23 -25,25 -28,21 -41,17 -51,13 10,13 -10,-13 -7,3 -3,7 3,8 7,2 z"
   id="path126"
   inkscape:connector-curvature="0"
   style="fill:#000000;stroke:none" />
         <path
   d="m 10437,13974 -20,-53 -10,-51 -3,-46 5,-43 10,-35 13,-31 10,-23 8,-15 20,35 16,39 7,38 3,40 -5,39 -11,38 -17,35 z"
   id="path128"
   inkscape:connector-curvature="0"
   style="fill:#d1a356;stroke:none" />
         <path
   d="m 10460,13672 h -20 l -8,15 -10,25 -13,31 -10,38 -8,43 5,46 11,53 20,56 20,-10 -20,-51 -10,-48 v -46 l 2,-43 11,-33 12,-30 10,-21 8,-15 h -20 20 v -8 l -5,-7 h -10 l -5,5 z"
   id="path130"
   inkscape:connector-curvature="0"
   style="fill:#000000;stroke:none" />
         <path
   d="m 10427,13979 18,3 28,-36 18,-38 10,-40 7,-39 -5,-40 -7,-41 -16,-41 -20,-35 -20,10 20,36 15,35 8,36 v 40 l -3,39 -10,35 -18,33 -22,31 17,2 -17,-2 -3,7 3,8 7,2 8,-2 z"
   id="path132"
   inkscape:connector-curvature="0"
   style="fill:#000000;stroke:none" />
         <path
   d="m 10498,13954 3,-46 7,-40 13,-39 18,-35 25,-28 31,-23 38,-15 43,-10 v 35 l -5,38 -12,36 -18,33 -23,30 -33,26 -38,23 z"
   id="path134"
   inkscape:connector-curvature="0"
   style="fill:#d1a356;stroke:none" />
         <path
   d="m 10687,13718 -11,-11 -45,11 -41,15 -33,25 -28,31 -18,38 -13,38 -7,43 -5,46 h 25 v -46 l 8,-38 12,-38 18,-33 23,-26 28,-20 36,-15 40,-10 -10,-10 10,10 8,-3 3,-7 -3,-8 -8,-3 z"
   id="path136"
   inkscape:connector-curvature="0"
   style="fill:#000000;stroke:none" />
         <path
   d="m 10486,13954 15,10 51,-15 38,-23 35,-28 26,-33 18,-33 12,-38 6,-41 v -35 h -21 v 35 l -5,36 -13,33 -17,33 -21,28 -30,23 -39,23 -45,15 15,10 -15,-10 -5,5 -3,8 5,5 8,2 z"
   id="path138"
   inkscape:connector-curvature="0"
   style="fill:#000000;stroke:none" />
         <path
   d="m 10531,13758 -10,-56 3,-56 10,-53 18,-51 20,-43 25,-38 23,-26 23,-12 13,51 10,48 5,46 -5,45 -13,41 -28,38 -38,33 z"
   id="path140"
   inkscape:connector-curvature="0"
   style="fill:#d1a356;stroke:none" />
         <path
   d="m 10653,13420 -12,-7 -28,15 -23,25 -28,41 -21,46 -17,50 -11,56 -2,56 10,59 20,-5 -10,-54 3,-56 10,-50 18,-51 20,-41 23,-36 23,-25 18,-10 -13,-8 13,8 7,-5 v -8 l -5,-5 -7,-2 z"
   id="path142"
   inkscape:connector-curvature="0"
   style="fill:#000000;stroke:none" />
         <path
   d="m 10521,13761 15,7 56,-33 41,-35 31,-41 12,-46 8,-45 -8,-46 -10,-51 -13,-51 -20,5 13,51 10,46 3,46 -3,45 -13,36 -25,36 -36,30 -56,33 15,8 -15,-8 -5,5 v 8 l 8,7 h 7 z"
   id="path144"
   inkscape:connector-curvature="0"
   style="fill:#000000;stroke:none" />
         <path
   d="m 10241,14058 5,5 8,3 5,-5 3,-8 z"
   id="path146"
   inkscape:connector-curvature="0"
   style="fill:#000000;stroke:none" />
         <path
   d="m 10264,13669 -30,74 -11,104 3,110 15,101 21,-5 -16,-96 -2,-110 10,-99 25,-63 z"
   id="path148"
   inkscape:connector-curvature="0"
   style="fill:#000000;stroke:none" />
         <path
   d="m 10279,13685 3,-8 -3,-8 -7,-2 -8,2 z"
   id="path150"
   inkscape:connector-curvature="0"
   style="fill:#000000;stroke:none" />
         <path
   d="m 10330,13845 5,5 8,2 5,-5 3,-7 z"
   id="path152"
   inkscape:connector-curvature="0"
   style="fill:#000000;stroke:none" />
         <path
   d="m 10371,13507 -25,73 -21,84 -7,89 12,92 21,-5 -8,-87 3,-89 20,-79 25,-68 z"
   id="path154"
   inkscape:connector-curvature="0"
   style="fill:#000000;stroke:none" />
         <path
   d="m 10391,13517 v -8 l -5,-7 h -10 l -5,5 z"
   id="path156"
   inkscape:connector-curvature="0"
   style="fill:#000000;stroke:none" />
         <path
   d="m 10440,13672 2,7 8,3 8,-3 2,-7 z"
   id="path158"
   inkscape:connector-curvature="0"
   style="fill:#000000;stroke:none" />
         <path
   d="m 10564,13298 -33,26 -28,38 -23,48 -15,53 -13,56 -10,56 -5,51 3,46 h 20 l 3,-46 v -51 l 10,-51 13,-56 15,-53 23,-43 23,-33 28,-21 z"
   id="path160"
   inkscape:connector-curvature="0"
   style="fill:#000000;stroke:none" />
         <path
   d="m 10575,13318 5,-5 v -10 l -8,-5 h -8 z"
   id="path162"
   inkscape:connector-curvature="0"
   style="fill:#000000;stroke:none" />
         <path
   d="m 10628,13418 3,7 5,5 7,-2 5,-5 z"
   id="path164"
   inkscape:connector-curvature="0"
   style="fill:#000000;stroke:none" />
         <path
   d="m 10809,13067 -26,23 -25,35 -26,41 -23,51 -22,53 -21,54 -20,50 -18,44 20,5 18,-44 21,-50 20,-54 23,-48 23,-51 25,-41 20,-30 21,-18 z"
   id="path166"
   inkscape:connector-curvature="0"
   style="fill:#000000;stroke:none" />
         <path
   d="m 10819,13087 5,-5 v -10 l -8,-5 h -7 z"
   id="path168"
   inkscape:connector-curvature="0"
   style="fill:#000000;stroke:none" />
         <path
   d="m 10669,13712 -3,8 3,8 7,2 8,-2 z"
   id="path170"
   inkscape:connector-curvature="0"
   style="fill:#000000;stroke:none" />
         <path
   d="m 10837,13250 15,71 -3,71 -15,64 -23,61 -33,56 -36,53 -35,46 -38,40 15,16 38,-41 41,-51 35,-53 34,-56 22,-66 16,-69 2,-71 -15,-76 z"
   id="path172"
   inkscape:connector-curvature="0"
   style="fill:#000000;stroke:none" />
         <path
   d="m 10857,13245 -5,-8 h -8 l -5,5 -2,8 z"
   id="path174"
   inkscape:connector-curvature="0"
   style="fill:#000000;stroke:none" />
         <path
   d="m 10610,13951 -5,6 v 7 l 8,8 h 7 z"
   id="path176"
   inkscape:connector-curvature="0"
   style="fill:#000000;stroke:none" />
         <path
   d="m 10918,13509 -13,59 -23,63 -33,64 -40,63 -44,59 -50,53 -54,48 -51,33 10,21 56,-38 54,-49 51,-53 48,-64 41,-63 33,-69 23,-63 12,-64 z"
   id="path178"
   inkscape:connector-curvature="0"
   style="fill:#000000;stroke:none" />
         <path
   d="m 10938,13509 -2,-7 -8,-3 -7,3 -3,7 z"
   id="path180"
   inkscape:connector-curvature="0"
   style="fill:#000000;stroke:none" />
         <path
   d="m 10554,14134 -5,6 v 7 l 8,8 h 7 z"
   id="path182"
   inkscape:connector-curvature="0"
   style="fill:#000000;stroke:none" />
         <path
   d="m 10870,13809 -28,46 -33,46 -33,45 -41,44 -43,43 -46,38 -46,33 -46,30 10,21 46,-31 51,-38 46,-38 43,-43 41,-43 38,-51 33,-46 28,-46 z"
   id="path184"
   inkscape:connector-curvature="0"
   style="fill:#000000;stroke:none" />
         <path
   d="m 10890,13819 v -7 l -5,-8 h -10 l -5,5 z"
   id="path186"
   inkscape:connector-curvature="0"
   style="fill:#000000;stroke:none" />
         <path
   d="m 10987,14363 38,-28 46,-38 48,-48 51,-51 46,-56 43,-53 31,-51 20,-46 v -10 l -8,-8 -10,5 -13,18 -20,38 -33,49 -46,53 -48,56 -51,53 -48,46 -39,36 -25,20 z"
   id="path188"
   inkscape:connector-curvature="0"
   style="fill:#d1a356;stroke:none" />
         <path
   d="m 10982,14353 -5,5 v 8 l 7,7 h 8 z"
   id="path190"
   inkscape:connector-curvature="0"
   style="fill:#000000;stroke:none" />
         <path
   d="m 11300,13990 v 0 l -21,43 -30,51 -41,50 -46,56 -51,51 -48,49 -46,38 -35,25 10,20 41,-30 45,-38 49,-49 51,-50 45,-56 46,-56 31,-51 20,-48 v 0 0 l -2,-8 -6,-5 h -7 z"
   id="path192"
   inkscape:connector-curvature="0"
   style="fill:#000000;stroke:none" />
         <path
   d="m 11290,14000 v 0 l 10,-13 2,-3 h -2 v 6 l 20,5 v -16 l -18,-15 -18,8 -15,23 v 0 z"
   id="path194"
   inkscape:connector-curvature="0"
   style="fill:#000000;stroke:none" />
         <path
   d="m 10974,14358 28,-23 38,-35 49,-46 50,-53 49,-56 46,-54 35,-51 21,-40 -21,-5 -20,35 -31,46 -45,53 -49,56 -51,54 -48,45 -38,36 -23,18 z"
   id="path196"
   inkscape:connector-curvature="0"
   style="fill:#000000;stroke:none" />
         <path
   d="m 10964,14338 -5,5 v 8 l 7,7 h 8 z"
   id="path198"
   inkscape:connector-curvature="0"
   style="fill:#000000;stroke:none" />
         <path
   d="m 10745,14333 23,-56 25,-54 31,-53 36,-46 40,-43 44,-33 48,-23 51,-10 h 12 l 8,5 -2,8 -11,5 -53,18 -48,33 -49,40 -40,49 -36,50 -28,49 -20,43 -11,36 z"
   id="path200"
   inkscape:connector-curvature="0"
   style="fill:#d1a356;stroke:none" />
         <path
   d="m 10735,14330 2,8 5,5 8,-3 5,-5 z"
   id="path202"
   inkscape:connector-curvature="0"
   style="fill:#000000;stroke:none" />
         <path
   d="m 11043,14005 v 0 l -54,10 -51,23 -45,35 -41,44 -38,48 -31,53 -25,54 -23,58 20,5 23,-53 26,-54 30,-53 33,-43 41,-43 41,-31 45,-23 49,-10 v 0 z"
   id="path204"
   inkscape:connector-curvature="0"
   style="fill:#000000;stroke:none" />
         <path
   d="m 11050,14043 h 3 l 15,-8 5,-17 -15,-13 h -15 v 20 h 10 v -2 -3 l -5,3 h 2 z"
   id="path206"
   inkscape:connector-curvature="0"
   style="fill:#000000;stroke:none" />
         <path
   d="m 10776,14351 10,-34 20,-40 28,-49 33,-48 41,-48 48,-41 46,-30 48,-18 v -20 l -58,17 -51,36 -48,41 -41,48 -38,53 -28,49 -21,45 -10,39 z"
   id="path208"
   inkscape:connector-curvature="0"
   style="fill:#000000;stroke:none" />
         <path
   d="m 10755,14351 3,7 7,3 8,-3 3,-7 z"
   id="path210"
   inkscape:connector-curvature="0"
   style="fill:#000000;stroke:none" />
         <path
   d="m 10959,14564 53,-15 49,-23 45,-28 44,-36 40,-38 36,-43 30,-48 28,-54 8,-7 h 8 l 5,10 -3,18 -25,61 -36,53 -43,51 -48,41 -51,33 -54,28 -48,15 -48,7 z"
   id="path212"
   inkscape:connector-curvature="0"
   style="fill:#d1a356;stroke:none" />
         <path
   d="m 10956,14554 -5,5 -2,8 5,5 7,2 z"
   id="path214"
   inkscape:connector-curvature="0"
   style="fill:#000000;stroke:none" />
         <path
   d="m 11274,14277 v -3 l -28,54 -30,48 -33,41 -41,38 -41,33 -46,28 -45,23 -54,15 5,20 54,-15 51,-23 45,-28 46,-38 41,-38 38,-46 31,-48 28,-54 v -2 z"
   id="path216"
   inkscape:connector-curvature="0"
   style="fill:#000000;stroke:none" />
         <path
   d="m 11312,14302 v 0 l 3,-20 -8,-18 -20,-2 -13,15 21,5 h 2 l -5,-3 3,3 -3,15 v 0 z"
   id="path218"
   inkscape:connector-curvature="0"
   style="fill:#000000;stroke:none" />
         <path
   d="m 10949,14600 50,-8 49,-15 56,-28 51,-33 51,-43 43,-51 38,-56 25,-64 -20,-5 -25,59 -33,50 -44,51 -45,38 -51,33 -51,28 -49,16 -45,7 z"
   id="path220"
   inkscape:connector-curvature="0"
   style="fill:#000000;stroke:none" />
         <path
   d="m 10949,14579 -8,3 -3,7 3,8 8,3 z"
   id="path222"
   inkscape:connector-curvature="0"
   style="fill:#000000;stroke:none" />
         <path
   d="m 10577,14417 18,-61 20,-61 26,-59 30,-53 36,-49 41,-43 45,-33 54,-23 18,-2 10,5 2,7 -12,11 -54,28 -48,43 -46,51 -36,56 -33,58 -23,56 -15,48 -7,38 z"
   id="path224"
   inkscape:connector-curvature="0"
   style="fill:#d1a356;stroke:none" />
         <path
   d="m 10567,14414 2,8 6,5 7,-3 5,-5 z"
   id="path226"
   inkscape:connector-curvature="0"
   style="fill:#000000;stroke:none" />
         <path
   d="m 10844,14025 v 0 l -56,23 -48,36 -41,43 -38,51 -30,53 -26,61 -20,61 -18,61 20,5 18,-61 20,-61 26,-56 30,-53 34,-46 40,-43 43,-31 51,-23 v 0 z"
   id="path228"
   inkscape:connector-curvature="0"
   style="fill:#000000;stroke:none" />
         <path
   d="m 10867,14066 v 0 l 21,-15 -6,-21 -17,-7 -21,2 5,20 16,-2 2,2 v -5 l -5,5 v 0 z"
   id="path230"
   inkscape:connector-curvature="0"
   style="fill:#000000;stroke:none" />
         <path
   d="m 10613,14434 7,-35 16,-48 23,-54 33,-58 33,-54 45,-51 46,-40 51,-28 -5,-21 -56,28 -51,46 -46,51 -38,58 -33,59 -23,58 -15,49 -8,40 z"
   id="path232"
   inkscape:connector-curvature="0"
   style="fill:#000000;stroke:none" />
         <path
   d="m 10592,14434 3,8 8,3 7,-3 3,-8 z"
   id="path234"
   inkscape:connector-curvature="0"
   style="fill:#000000;stroke:none" />
         <path
   d="m 10394,14640 v -45 l 2,-59 8,-66 15,-71 23,-71 33,-66 46,-61 59,-49 23,-7 12,5 v 12 l -20,18 -41,36 -38,51 -30,63 -23,69 -18,71 -13,66 -5,61 v 48 z"
   id="path236"
   inkscape:connector-curvature="0"
   style="fill:#d1a356;stroke:none" />
         <path
   d="m 10384,14640 2,8 8,2 8,-2 2,-8 z"
   id="path238"
   inkscape:connector-curvature="0"
   style="fill:#000000;stroke:none" />
         <path
   d="m 10575,14142 v 0 l -62,51 -48,63 -33,69 -23,71 -15,74 -8,66 -5,59 3,45 h 20 l 3,-45 v -59 l 7,-66 16,-69 22,-71 34,-63 43,-59 56,-46 v 0 z"
   id="path240"
   inkscape:connector-curvature="0"
   style="fill:#000000;stroke:none" />
         <path
   d="m 10600,14190 v 0 l 25,-23 v -22 l -22,-11 -28,8 10,20 18,-7 h 2 v 2 l -15,13 v 0 z"
   id="path242"
   inkscape:connector-curvature="0"
   style="fill:#000000;stroke:none" />
         <path
   d="m 10437,14645 v -48 l 5,-61 13,-63 18,-72 23,-68 30,-61 36,-49 38,-33 -10,-20 -43,38 -41,54 -31,66 -23,68 -17,71 -13,69 -5,61 v 48 z"
   id="path244"
   inkscape:connector-curvature="0"
   style="fill:#000000;stroke:none" />
         <path
   d="m 10417,14645 2,8 8,3 8,-3 2,-8 z"
   id="path246"
   inkscape:connector-curvature="0"
   style="fill:#000000;stroke:none" />
         <path
   d="m 10844,14719 38,-2 41,-8 46,-8 46,-12 46,-18 45,-23 44,-31 43,-38 15,-7 8,5 -3,12 -15,23 -15,16 -28,20 -36,23 -43,25 -54,21 -58,20 -64,10 -68,5 z"
   id="path248"
   inkscape:connector-curvature="0"
   style="fill:#d1a356;stroke:none" />
         <path
   d="m 10844,14709 -7,2 -3,8 3,8 7,2 z"
   id="path250"
   inkscape:connector-curvature="0"
   style="fill:#000000;stroke:none" />
         <path
   d="m 11185,14572 v 0 l -43,38 -41,28 -46,23 -43,17 -46,13 -43,8 -41,7 -38,3 v 20 l 38,-2 41,-8 48,-8 46,-12 49,-18 45,-23 46,-33 43,-38 v 0 z"
   id="path252"
   inkscape:connector-curvature="0"
   style="fill:#000000;stroke:none" />
         <path
   d="m 11206,14620 v 0 l 17,-25 3,-21 -18,-13 -23,11 15,15 8,-5 -2,-3 -3,5 -13,21 v 0 z"
   id="path254"
   inkscape:connector-curvature="0"
   style="fill:#000000;stroke:none" />
         <path
   d="m 10832,14762 68,-5 66,-10 59,-20 56,-21 43,-25 36,-23 30,-23 16,-15 -16,-15 -15,15 -25,18 -36,23 -43,25 -51,20 -59,21 -61,10 -68,5 z"
   id="path256"
   inkscape:connector-curvature="0"
   style="fill:#000000;stroke:none" />
         <path
   d="m 10832,14739 -8,6 -3,7 3,8 8,5 z"
   id="path258"
   inkscape:connector-curvature="0"
   style="fill:#000000;stroke:none" />
         <path
   d="m 10664,14889 20,-2 25,-3 26,-5 25,-7 28,-5 28,-11 31,-10 28,-10 28,-10 28,-10 28,-13 25,-13 26,-10 23,-13 20,-12 18,-10 18,-8 12,2 v 11 l -20,22 -10,8 -16,8 -15,10 -18,10 -23,10 -22,10 -26,13 -28,10 -30,10 -31,11 -30,10 -36,10 -33,8 -36,7 -35,8 -36,5 z"
   id="path260"
   inkscape:connector-curvature="0"
   style="fill:#d1a356;stroke:none" />
         <path
   d="m 10664,14879 -8,3 -3,7 3,8 8,3 z"
   id="path262"
   inkscape:connector-curvature="0"
   style="fill:#000000;stroke:none" />
         <path
   d="m 11066,14734 v 0 l -18,11 -21,12 -22,13 -26,10 -25,13 -26,13 -28,10 -28,10 -28,10 -30,10 -28,10 -28,5 -26,8 -23,5 -25,3 -20,2 v 21 l 20,-3 25,-3 28,-5 26,-7 28,-5 28,-10 30,-11 28,-10 28,-10 28,-10 31,-13 25,-13 26,-10 23,-12 20,-13 18,-10 v 0 z"
   id="path264"
   inkscape:connector-curvature="0"
   style="fill:#000000;stroke:none" />
         <path
   d="m 11089,14780 v 0 l 22,-25 -2,-23 -20,-5 -23,7 10,21 13,-8 h 5 l -3,-2 -18,20 v 0 z"
   id="path266"
   inkscape:connector-curvature="0"
   style="fill:#000000;stroke:none" />
         <path
   d="m 10656,14930 36,-5 38,-8 35,-7 33,-8 36,-10 31,-10 30,-10 31,-11 28,-10 28,-12 23,-11 22,-10 18,-10 16,-10 15,-8 13,-10 -16,-15 -7,5 -16,8 -15,10 -18,10 -23,10 -23,10 -22,13 -28,10 -31,10 -30,10 -31,11 -36,10 -33,7 -35,8 -33,8 -36,5 z"
   id="path268"
   inkscape:connector-curvature="0"
   style="fill:#000000;stroke:none" />
         <path
   d="m 10656,14910 -8,2 -2,8 2,8 8,2 z"
   id="path270"
   inkscape:connector-curvature="0"
   style="fill:#000000;stroke:none" />
        </g>
       </g>
      </g>
     </g>
    </g>
   </g>
  </g>
 </g>
</svg>