<?xml version="1.0" encoding="UTF-8" standalone="no"?>
<svg
   xmlns:ooo="http://xml.openoffice.org/svg/export"
   xmlns:dc="http://purl.org/dc/elements/1.1/"
   xmlns:cc="http://creativecommons.org/ns#"
   xmlns:rdf="http://www.w3.org/1999/02/22-rdf-syntax-ns#"
   xmlns:svg="http://www.w3.org/2000/svg"
   xmlns="http://www.w3.org/2000/svg"
   xmlns:sodipodi="http://sodipodi.sourceforge.net/DTD/sodipodi-0.dtd"
   xmlns:inkscape="http://www.inkscape.org/namespaces/inkscape"
   version="1.2"
   width="31.719999mm"
   height="51.869999mm"
   viewBox="0 0 3171.9999 5186.9999"
   preserveAspectRatio="xMidYMid"
   xml:space="preserve"
   id="svg133"
   sodipodi:docname="woman.svg"
   style="fill-rule:evenodd;stroke-width:28.22200012;stroke-linejoin:round"
   inkscape:version="0.92.5 (2060ec1f9f, 2020-04-08)"><metadata
   id="metadata137"><rdf:RDF><cc:Work
       rdf:about=""><dc:format>image/svg+xml</dc:format><dc:type
         rdf:resource="http://purl.org/dc/dcmitype/StillImage" /></cc:Work></rdf:RDF></metadata><sodipodi:namedview
   pagecolor="#ffffff"
   bordercolor="#666666"
   borderopacity="1"
   objecttolerance="10"
   gridtolerance="10"
   guidetolerance="10"
   inkscape:pageopacity="0"
   inkscape:pageshadow="2"
   inkscape:window-width="664"
   inkscape:window-height="487"
   id="namedview135"
   showgrid="false"
   inkscape:zoom="0.2102413"
   inkscape:cx="59.943308"
   inkscape:cy="98.003148"
   inkscape:window-x="0"
   inkscape:window-y="0"
   inkscape:window-maximized="0"
   inkscape:current-layer="svg133" />
 <defs
   class="ClipPathGroup"
   id="defs8">
  <clipPath
   id="presentation_clip_path"
   clipPathUnits="userSpaceOnUse">
   <rect
   x="0"
   y="0"
   width="21000"
   height="29700"
   id="rect2" />
  </clipPath>
  <clipPath
   id="presentation_clip_path_shrink"
   clipPathUnits="userSpaceOnUse">
   <rect
   x="21"
   y="29"
   width="20958"
   height="29641"
   id="rect5" />
  </clipPath>
 </defs>
 <defs
   class="TextShapeIndex"
   id="defs12">
  <g
   ooo:slide="id1"
   ooo:id-list="id3"
   id="g10" />
 </defs>
 <defs
   class="EmbeddedBulletChars"
   id="defs44">
  <g
   id="bullet-char-template-57356"
   transform="matrix(4.8828125e-4,0,0,-4.8828125e-4,0,0)">
   <path
   d="M 580,1141 1163,571 580,0 -4,571 Z"
   id="path14"
   inkscape:connector-curvature="0" />
  </g>
  <g
   id="bullet-char-template-57354"
   transform="matrix(4.8828125e-4,0,0,-4.8828125e-4,0,0)">
   <path
   d="M 8,1128 H 1137 V 0 H 8 Z"
   id="path17"
   inkscape:connector-curvature="0" />
  </g>
  <g
   id="bullet-char-template-10146"
   transform="matrix(4.8828125e-4,0,0,-4.8828125e-4,0,0)">
   <path
   d="M 174,0 602,739 174,1481 1456,739 Z M 1358,739 309,1346 659,739 Z"
   id="path20"
   inkscape:connector-curvature="0" />
  </g>
  <g
   id="bullet-char-template-10132"
   transform="matrix(4.8828125e-4,0,0,-4.8828125e-4,0,0)">
   <path
   d="M 2015,739 1276,0 H 717 l 543,543 H 174 v 393 h 1086 l -543,545 h 557 z"
   id="path23"
   inkscape:connector-curvature="0" />
  </g>
  <g
   id="bullet-char-template-10007"
   transform="matrix(4.8828125e-4,0,0,-4.8828125e-4,0,0)">
   <path
   d="m 0,-2 c -7,16 -16,29 -25,39 l 381,530 c -94,256 -141,385 -141,387 0,25 13,38 40,38 9,0 21,-2 34,-5 21,4 42,12 65,25 l 27,-13 111,-251 280,301 64,-25 24,25 c 21,-10 41,-24 62,-43 C 886,937 835,863 770,784 769,783 710,716 594,584 L 774,223 c 0,-27 -21,-55 -63,-84 l 16,-20 C 717,90 699,76 672,76 641,76 570,178 457,381 L 164,-76 c -22,-34 -53,-51 -92,-51 -42,0 -63,17 -64,51 -7,9 -10,24 -10,44 0,9 1,19 2,30 z"
   id="path26"
   inkscape:connector-curvature="0" />
  </g>
  <g
   id="bullet-char-template-10004"
   transform="matrix(4.8828125e-4,0,0,-4.8828125e-4,0,0)">
   <path
   d="M 285,-33 C 182,-33 111,30 74,156 52,228 41,333 41,471 c 0,78 14,145 41,201 34,71 87,106 158,106 53,0 88,-31 106,-94 l 23,-176 c 8,-64 28,-97 59,-98 l 735,706 c 11,11 33,17 66,17 42,0 63,-15 63,-46 V 965 c 0,-36 -10,-64 -30,-84 L 442,47 C 390,-6 338,-33 285,-33 Z"
   id="path29"
   inkscape:connector-curvature="0" />
  </g>
  <g
   id="bullet-char-template-9679"
   transform="matrix(4.8828125e-4,0,0,-4.8828125e-4,0,0)">
   <path
   d="M 813,0 C 632,0 489,54 383,161 276,268 223,411 223,592 c 0,181 53,324 160,431 106,107 249,161 430,161 179,0 323,-54 432,-161 108,-107 162,-251 162,-431 0,-180 -54,-324 -162,-431 C 1136,54 992,0 813,0 Z"
   id="path32"
   inkscape:connector-curvature="0" />
  </g>
  <g
   id="bullet-char-template-8226"
   transform="matrix(4.8828125e-4,0,0,-4.8828125e-4,0,0)">
   <path
   d="m 346,457 c -73,0 -137,26 -191,78 -54,51 -81,114 -81,188 0,73 27,136 81,188 54,52 118,78 191,78 73,0 134,-26 185,-79 51,-51 77,-114 77,-187 0,-75 -25,-137 -76,-188 -50,-52 -112,-78 -186,-78 z"
   id="path35"
   inkscape:connector-curvature="0" />
  </g>
  <g
   id="bullet-char-template-8211"
   transform="matrix(4.8828125e-4,0,0,-4.8828125e-4,0,0)">
   <path
   d="M -4,459 H 1135 V 606 H -4 Z"
   id="path38"
   inkscape:connector-curvature="0" />
  </g>
  <g
   id="bullet-char-template-61548"
   transform="matrix(4.8828125e-4,0,0,-4.8828125e-4,0,0)">
   <path
   d="m 173,740 c 0,163 58,303 173,419 116,115 255,173 419,173 163,0 302,-58 418,-173 116,-116 174,-256 174,-419 0,-163 -58,-303 -174,-418 C 1067,206 928,148 765,148 601,148 462,206 346,322 231,437 173,577 173,740 Z"
   id="path41"
   inkscape:connector-curvature="0" />
  </g>
 </defs>
 <g
   id="g49"
   transform="translate(-8914,-12256)">
  <g
   id="id2"
   class="Master_Slide">
   <g
   id="bg-id2"
   class="Background" />
   <g
   id="bo-id2"
   class="BackgroundObjects" />
  </g>
 </g>
 <g
   class="SlideGroup"
   id="g131"
   transform="translate(-8914,-12256)">
  <g
   id="g129">
   <g
   id="container-id1">
    <g
   id="id1"
   class="Slide"
   clip-path="url(#presentation_clip_path)">
     <g
   class="Page"
   id="g125">
      <g
   class="Graphic"
   id="g123">
       <g
   id="id3">
        <rect
   class="BoundingBox"
   x="8914"
   y="12256"
   width="3172"
   height="5187"
   id="rect51"
   style="fill:none;stroke:none" />
        <defs
   id="defs56">
         <clipPath
   id="clip_path_1"
   clipPathUnits="userSpaceOnUse">
          <path
   d="m 8914,12256 h 3171 v 5186 H 8914 Z"
   id="path53"
   inkscape:connector-curvature="0" />
         </clipPath>
        </defs>
        <g
   clip-path="url(#clip_path_1)"
   id="g120">
         <path
   d="m 9745,13400 18,-16 18,-15 20,-13 18,-15 20,-13 21,-12 20,-15 20,-13 -13,66 -10,74 v 76 l 13,81 -8,-10 -7,-10 -13,-10 -10,-8 -13,-5 -13,-5 h -10 -10 l -15,7 -15,13 -13,18 -10,13 -5,-44 -3,-53 v -51 z"
   id="path58"
   inkscape:connector-curvature="0"
   style="fill:#000000;stroke:none" />
         <path
   d="m 10973,13105 -10,2 h -16 l -12,-2 h -5 l 17,-23 16,-23 10,-20 -3,-13 -10,10 -13,8 -15,5 -15,2 h -18 l -15,-2 -15,-3 -13,-2 -13,-5 -10,-5 -13,-3 -12,-2 40,106 21,87 7,68 3,54 -3,48 -13,56 -20,56 -23,53 21,-20 22,-28 21,-28 10,-18 5,-15 8,-31 12,-38 13,-45 15,-46 18,-46 15,-36 18,-25 -10,-8 -8,-10 -7,-5 -3,-2 18,-13 20,-13 18,-15 13,-15 -20,2 -16,3 h -15 z"
   id="path60"
   inkscape:connector-curvature="0"
   style="fill:#000000;stroke:none" />
         <path
   d="m 9753,13588 10,-13 13,-18 15,-13 15,-7 h 10 10 l 13,5 13,5 10,8 13,10 7,10 8,10 -13,-81 v -76 l 10,-74 13,-66 59,-36 61,-33 61,-33 63,-28 64,-28 61,-23 63,-20 61,-20 61,-16 59,-12 58,-10 54,-5 50,-6 h 49 l 43,3 41,8 40,106 21,87 7,68 3,54 v 12 16 12 l -3,16 -10,38 -13,40 -15,41 -18,38 21,-20 22,-28 21,-28 10,-18 3,64 5,58 2,51 -2,41 -8,28 -10,20 -21,13 -28,5 -10,38 -12,41 -16,43 -17,43 -18,41 -21,38 -20,35 -23,28 -35,46 -23,41 -8,33 3,30 5,41 5,46 2,50 -5,54 -5,33 -10,33 -13,33 -17,30 -46,5 -46,3 -46,-3 -43,-5 -46,-10 -40,-12 -41,-16 -41,-15 -45,-23 -44,-25 -40,-26 -38,-28 -33,-28 -31,-25 -28,-25 -23,-23 8,-18 5,-13 v -10 -10 l -5,-13 -8,-13 -12,-12 -18,-5 15,-31 13,-30 10,-26 2,-15 -2,-20 -5,-36 -10,-41 -18,-33 -13,-15 -15,-13 -15,-10 -18,-5 -10,-35 -8,-28 -8,-21 -7,-15 -10,-25 -16,-38 -17,-36 -16,-28 -12,-20 -11,-21 -7,-20 z"
   id="path62"
   inkscape:connector-curvature="0"
   style="fill:#000000;stroke:none" />
         <path
   d="m 9488,14459 8,8 10,5 8,5 10,5 10,5 10,3 h 11 l 10,2 h 7 10 11 l 10,-2 h 10 13 l 12,-3 h 13 l 26,-17 27,-13 34,-13 33,-7 35,-3 h 36 l 35,8 36,12 23,-25 12,-26 6,-22 -3,-26 -3,-7 -2,-8 v -8 -7 l 2,-18 6,-15 5,-16 7,-12 23,23 28,25 31,25 33,28 38,28 40,26 44,25 45,23 41,15 41,16 40,12 46,10 43,5 46,3 46,-3 46,-5 17,-30 13,-33 10,-33 5,-33 11,2 15,5 20,8 20,8 23,10 18,7 18,11 13,7 25,5 30,8 28,5 31,8 30,7 31,8 30,8 34,7 30,8 28,7 28,11 28,7 25,8 23,10 21,8 17,7 33,18 36,23 36,30 30,36 28,41 23,45 15,51 8,59 2,122 v 124 l 5,115 11,99 17,114 18,152 10,166 -2,145 10,12 10,10 8,8 2,10 5,56 13,117 15,125 16,83 5,18 10,33 12,46 18,56 21,66 25,74 28,81 30,84 36,89 38,89 41,89 43,86 48,84 51,79 56,73 56,64 h -701 l -26,-38 -25,-38 -26,-36 -23,-38 -20,-36 -15,-33 -13,-28 -8,-25 11,74 10,76 10,66 15,56 H 9506 l 31,-84 28,-86 17,-94 8,-99 -5,-110 -20,-117 -41,-132 -64,-142 -40,20 -49,26 -53,25 -53,20 -51,16 -46,7 -38,-5 -28,-18 -23,-30 -28,-36 -25,-40 -26,-44 -25,-48 -20,-46 -13,-50 -8,-49 -5,-89 3,-76 13,-74 25,-68 -3,-13 -2,-15 -5,-15 -3,-16 -18,-111 -7,-117 5,-122 23,-127 -18,-74 -5,-64 10,-50 20,-39 23,-30 13,-33 8,-36 -3,-45 v -18 l 3,-31 2,-35 8,-46 10,-48 15,-54 18,-56 23,-56 28,-55 33,-56 41,-51 45,-46 51,-38 61,-31 66,-22 z"
   id="path64"
   inkscape:connector-curvature="0"
   style="fill:#000000;stroke:none" />
         <path
   d="m 9847,13796 -10,-25 -16,-38 -17,-36 -16,-28 -12,-20 -11,-21 -7,-20 -5,-20 10,-13 13,-18 15,-13 15,-7 -2,25 v 23 l 2,23 8,23 15,35 20,51 11,49 z"
   id="path66"
   inkscape:connector-curvature="0"
   style="fill:#000000;stroke:none" />
         <path
   d="m 9880,13895 7,3 6,2 7,3 5,2 3,44 v 55 l -3,49 -2,28 -3,-46 -5,-51 -8,-46 z"
   id="path68"
   inkscape:connector-curvature="0"
   style="fill:#000000;stroke:none" />
         <path
   d="m 10843,13801 v 338 l 41,-38 z"
   id="path70"
   inkscape:connector-curvature="0"
   style="fill:#000000;stroke:none" />
         <path
   d="m 9936,14170 18,5 12,12 8,13 5,13 v 10 10 l -5,13 -8,18 -7,12 -5,16 -6,15 -2,18 v 7 8 l 2,8 3,7 3,26 -6,22 -12,26 -23,25 -36,-12 -35,-8 h -36 l -35,3 -33,7 -34,13 -27,13 -26,17 h -13 l -12,3 h -13 -10 l -10,2 h -11 -10 -7 l -10,-2 h -11 l -10,-3 -10,-5 -10,-5 -8,-5 -10,-5 -8,-8 -22,-30 -11,-31 -2,-30 7,-23 8,-10 10,-10 13,-8 15,-8 13,-5 13,-5 10,-5 7,-2 11,-8 10,-8 5,-12 2,-18 -35,-36 -41,-35 -48,-31 -48,-28 -49,-25 -43,-20 -36,-16 -22,-10 -28,-18 -18,-25 -8,-31 -7,-30 -11,-38 -15,-48 -15,-46 -13,-41 -5,-15 -2,-18 v -20 -18 -20 l -3,-21 v -17 l -2,-16 -8,-28 -13,-30 -13,-31 -2,-20 5,-8 10,-7 15,-8 16,-8 17,-7 16,-5 12,-3 8,-2 13,-3 12,-2 13,-3 h 10 l 11,-2 15,-6 15,-5 15,-7 8,-8 15,-15 18,-18 20,-23 21,-23 22,-23 21,-22 20,-18 28,-8 26,-10 20,-13 20,-12 15,-13 18,-15 18,-16 20,-15 5,3 3,2 5,3 3,5 7,15 5,18 -2,18 -10,15 -21,25 -18,33 -15,36 -10,28 13,-3 18,-10 20,-10 23,-15 20,-18 23,-15 20,-13 16,-13 5,3 5,2 5,6 5,2 10,13 5,18 3,28 -3,38 v 40 51 l 3,53 5,44 5,20 7,20 11,21 12,20 16,28 17,36 16,38 10,25 7,15 8,21 8,28 10,35 7,43 8,46 5,51 3,46 2,23 8,25 10,25 z"
   id="path72"
   inkscape:connector-curvature="0"
   style="fill:#ffccf2;stroke:none" />
         <path
   d="m 10973,13105 51,-41 50,-43 51,-48 51,-51 46,-51 43,-51 38,-51 33,-48 41,-81 18,-66 -3,-51 -18,-28 -10,-5 -15,-3 h -15 l -18,3 -18,2 -20,8 -18,8 -20,10 -26,15 -35,18 -46,25 -48,26 -51,28 -54,25 -50,25 -46,21 -3,-10 -5,-8 -2,-8 -5,-5 -44,-68 -45,-59 -49,-48 -51,-43 -55,-33 -54,-28 -58,-21 -56,-15 -59,-8 -58,-2 h -56 l -56,8 -56,10 -53,12 -49,18 -48,18 -61,31 -56,35 -48,43 -46,46 -38,51 -35,56 -28,58 -23,61 -21,76 -12,82 -3,81 5,84 -13,20 -17,23 -16,21 -5,7 16,10 10,23 v 26 l -10,20 -21,25 -18,33 -15,36 -10,28 13,-3 18,-10 20,-10 23,-15 20,-18 23,-15 20,-13 16,-13 5,3 5,2 5,6 5,2 10,13 5,18 3,28 -3,38 18,-16 18,-15 20,-13 18,-15 20,-13 21,-12 20,-15 20,-13 59,-36 61,-33 61,-33 63,-28 64,-28 61,-23 63,-20 61,-20 61,-16 59,-12 58,-10 54,-5 50,-6 h 49 l 43,3 41,8 12,2 13,3 10,5 13,5 13,2 15,3 15,2 h 18 l 15,-2 15,-5 13,-8 10,-10 3,13 -10,20 -16,23 -17,23 h 5 l 12,2 h 16 z"
   id="path74"
   inkscape:connector-curvature="0"
   style="fill:#000000;stroke:none" />
         <path
   d="m 9710,13290 -16,13 -20,13 -23,15 -20,18 -23,15 -20,10 -18,10 -13,3 10,-28 15,-36 18,-33 21,-25 10,-15 2,-18 -5,-18 -7,-15 -3,-5 -5,-3 -3,-2 -5,-3 5,-7 16,-21 17,-23 13,-20 -5,-84 3,-81 12,-82 21,-76 25,-53 31,-54 38,-50 40,-49 49,-43 51,-38 53,-36 58,-30 61,-23 64,-18 63,-7 67,-3 66,5 68,15 66,23 66,36 -45,10 -49,15 -48,18 -51,18 -51,23 -53,23 -51,25 -51,26 -50,27 -46,28 -46,28 -43,28 -41,28 -35,28 -31,26 -25,25 v 36 l -3,43 -5,43 v 36 l 61,-38 64,-36 66,-33 66,-31 68,-30 69,-26 69,-22 71,-23 68,-18 69,-18 66,-13 66,-12 64,-13 61,-8 56,-5 56,-5 5,5 2,8 5,8 3,10 -56,28 -59,30 -66,28 -68,31 -74,30 -76,31 -76,33 -82,33 -79,35 -81,38 -81,39 -79,40 -79,43 -76,49 -74,48 z"
   id="path76"
   inkscape:connector-curvature="0"
   style="fill:#ff4ccc;stroke:none" />
         <path
   d="m 11237,15481 33,163 15,155 3,150 -10,142 -18,132 -25,125 -31,114 -33,102 -33,99 -31,104 -27,104 -21,109 -15,112 -10,117 v 115 l 10,119 h -455 l 5,-175 3,-280 v -356 l -8,-396 -18,-201 -33,-188 -43,-178 -53,-170 -61,-158 -61,-145 -64,-134 -58,-125 25,-104 20,-127 13,-127 -8,-112 41,15 41,16 40,12 46,10 43,5 46,3 46,-3 46,-5 -5,5 12,13 26,21 38,22 40,28 41,31 38,25 28,26 38,43 41,51 41,58 43,69 41,73 43,79 43,87 41,89 10,35 15,38 15,41 16,38 12,36 13,28 8,17 z"
   id="path78"
   inkscape:connector-curvature="0"
   style="fill:#b2007a;stroke:none" />
         <path
   d="m 9194,13941 -11,-38 -15,-48 -15,-46 -13,-41 -5,-15 -2,-18 v -20 -18 l 12,10 8,10 5,13 3,15 5,26 10,33 7,33 6,28 2,20 v 20 l 3,21 z"
   id="path80"
   inkscape:connector-curvature="0"
   style="fill:#000000;stroke:none" />
         <path
   d="m 9295,13438 8,-8 15,-15 18,-18 20,-23 21,-23 22,-23 21,-22 20,-18 -7,18 -11,20 -12,20 -13,21 -15,20 -13,18 -10,15 -8,10 -15,3 h -13 l -15,2 z"
   id="path82"
   inkscape:connector-curvature="0"
   style="fill:#000000;stroke:none" />
         <path
   d="m 9239,13458 h -10 l -13,3 -12,2 -13,3 -8,2 -12,3 -16,5 -17,7 -16,8 -15,8 -10,7 -5,8 2,20 13,31 13,30 8,28 2,-35 3,-33 2,-28 5,-16 5,-2 5,-5 11,-8 10,-7 12,-8 18,-8 18,-7 z"
   id="path84"
   inkscape:connector-curvature="0"
   style="fill:#000000;stroke:none" />
         <path
   d="m 9730,13303 -5,-2 -5,-6 -5,-2 -5,-3 -16,13 -20,13 -23,15 -20,18 -23,15 -20,10 -18,10 -13,3 10,-28 15,-36 18,-33 21,-25 10,-15 2,-18 -5,-18 -7,-15 -8,20 -15,18 -18,15 -20,15 -23,16 -21,10 -15,10 -10,8 -15,20 -16,23 -15,25 -15,26 -15,25 -16,18 -12,15 -13,5 20,13 13,10 8,13 2,15 h 10 13 l 10,-2 h 10 l 11,2 10,3 7,2 6,8 10,18 10,15 10,15 13,18 20,23 18,20 13,28 -3,33 -5,31 v 38 33 20 l 10,10 10,10 13,8 13,10 12,10 11,10 10,11 10,10 -15,-54 -18,-71 -15,-63 -5,-31 7,-10 10,-18 8,-23 2,-22 -2,-26 v -25 -18 -13 l 28,-25 -31,-8 -2,-30 -3,-26 -2,-23 2,-10 5,-5 13,-10 15,-13 18,-17 18,-18 15,-16 10,-15 z"
   id="path86"
   inkscape:connector-curvature="0"
   style="fill:#000000;stroke:none" />
         <path
   d="m 9227,13865 5,-31 7,-35 13,-36 15,-38 18,-36 20,-33 21,-28 23,-20 -21,53 -17,41 -18,33 -16,26 -15,22 -15,28 -10,26 z"
   id="path88"
   inkscape:connector-curvature="0"
   style="fill:#000000;stroke:none" />
         <path
   d="m 9468,13656 13,8 15,8 10,7 5,10 -2,18 v 26 l 2,30 10,28 -7,-5 -13,-5 -10,-3 -13,-5 -12,-2 h -13 l -13,-3 h -10 l 15,-25 13,-33 8,-31 z"
   id="path90"
   inkscape:connector-curvature="0"
   style="fill:#000000;stroke:none" />
         <path
   d="m 9750,13979 18,13 18,15 18,15 15,18 18,20 12,21 13,23 10,25 -5,8 -7,7 -8,8 -8,10 -7,-8 -11,-5 -12,-2 -13,2 -2,-43 -8,-43 -15,-43 z"
   id="path92"
   inkscape:connector-curvature="0"
   style="fill:#000000;stroke:none" />
         <path
   d="m 9194,13941 7,30 8,31 18,25 28,18 22,10 36,16 43,20 49,25 48,28 48,31 41,35 35,36 -2,18 -5,12 -10,8 -11,8 11,-5 12,-6 13,-7 13,-5 12,-8 16,-5 17,-8 18,-10 -25,-30 -26,-28 -25,-26 -25,-25 -26,-20 -20,-21 -20,-15 -18,-13 -16,-10 -17,-12 -16,-11 -15,-12 -13,-13 -12,-13 -13,-10 -10,-13 -13,-12 -13,-13 -15,-13 -18,-10 -17,-8 -18,-2 -18,5 -18,10 -2,23 v 15 l -5,10 -5,6 -8,-3 -10,-8 -5,-12 z"
   id="path94"
   inkscape:connector-curvature="0"
   style="fill:#000000;stroke:none" />
         <path
   d="m 9946,14325 v 7 8 l 2,8 3,7 3,26 -6,22 -12,26 -23,25 -36,-12 -35,-8 h -36 l -35,3 -33,7 -34,13 -27,13 -26,17 h -13 l -12,3 h -13 -10 l -10,2 h -11 -10 -7 l -10,-12 -8,-10 -5,-16 v -15 l 13,13 10,7 12,5 16,3 -8,-20 v -16 l 3,-12 5,-10 10,12 15,10 13,8 18,5 -8,-20 -3,-23 v -20 l 8,-16 10,16 13,10 13,7 12,3 5,-28 8,-23 8,-20 10,-21 v 21 l 2,18 8,15 18,13 10,-23 13,-21 12,-23 13,-22 15,-21 13,-20 15,-20 13,-18 -15,35 -13,36 -8,33 v 33 l 13,-3 15,-12 16,-21 15,-25 13,-28 15,-28 13,-28 12,-23 -18,59 -7,51 5,33 28,5 z"
   id="path96"
   inkscape:connector-curvature="0"
   style="fill:#000000;stroke:none" />
         <path
   d="m 9651,14487 26,-17 27,-13 34,-13 33,-7 35,-3 h 36 l 35,8 36,12 -8,89 -5,120 -7,109 -3,64 -10,5 -13,5 -20,5 -26,2 -25,-5 -31,-5 -30,-7 -33,-8 -31,-10 -28,-8 -25,-8 -18,-7 16,-69 15,-91 12,-89 z"
   id="path98"
   inkscape:connector-curvature="0"
   style="fill:#d3a393;stroke:none" />
         <path
   d="m 10505,13379 5,-12 8,-13 7,-13 6,-15 10,-18 10,-18 10,-15 10,-15 10,-13 11,-10 10,-13 10,-10 10,-8 10,-7 13,-8 10,-5 10,-2 13,-3 13,-2 h 12 11 10 l 7,2 3,3 2,7 v 3 5 5 h -12 l -13,2 -13,3 h -10 l 15,15 11,10 10,13 5,8 5,12 -3,8 -5,8 -10,5 -8,5 -10,2 -10,6 -13,5 -15,2 -13,5 -15,3 -13,2 -22,3 -21,2 -15,3 -10,5 18,5 20,5 23,8 25,5 31,5 30,3 h 36 l 35,-6 18,11 21,12 17,13 18,18 -13,-26 -15,-22 -15,-21 -10,-13 18,6 15,5 10,5 10,5 -10,-13 -10,-10 -8,-8 -2,-2 15,5 13,5 12,5 5,5 8,8 8,15 5,18 -3,23 -10,38 -13,40 -15,41 -18,38 21,-20 22,-28 21,-28 10,-18 3,64 5,58 2,51 -2,41 -8,15 -18,10 -18,3 h -17 l -8,43 -15,53 -18,43 -23,21 -13,25 -12,23 -13,23 -13,23 -15,18 -15,17 -16,16 -15,12 -18,13 -20,13 -23,15 -25,13 -23,15 -25,10 -23,10 -23,5 -31,3 h -30 l -26,-3 -25,-5 -25,-5 -21,-7 -18,-6 -17,-5 -23,-7 -26,-10 -28,-11 -30,-15 -28,-13 -26,-15 -20,-18 -13,-17 -17,-33 -13,-33 -13,-36 -5,-41 -5,-45 -8,-46 -12,-43 -23,-33 -23,-28 -15,-23 -3,-26 3,-25 2,-10 5,-13 5,-15 8,-15 10,-21 15,-23 21,-23 23,-25 7,-2 h 5 3 2 l -7,10 -8,10 -5,7 -2,6 5,2 7,3 h 8 l 8,-5 7,-8 10,-8 13,-7 18,-3 -13,15 h 15 l 16,-2 17,-3 18,-2 15,-3 13,-2 13,-3 8,-5 12,-13 13,-15 15,-15 10,-13 11,-10 5,-13 5,-12 2,-13 13,-5 13,-8 7,-7 8,-11 10,-10 13,-13 15,-12 15,-8 10,-2 11,-3 10,-2 h 10 l 13,-3 h 10 10 l 10,3 -2,7 -5,8 v 7 11 l 7,22 10,31 13,30 z"
   id="path100"
   inkscape:connector-curvature="0"
   style="fill:#d3a393;stroke:none" />
         <path
   d="m 9283,15420 -8,48 h 18 15 l 13,3 h 5 l -26,15 -23,20 -20,21 -20,20 -18,23 -18,23 -15,20 -13,18 h 21 20 15 18 l -15,8 -21,12 -20,18 -25,20 -26,23 -23,23 -23,23 -17,20 h 7 10 13 l 13,-2 h 13 l 12,2 h 13 l 10,3 -25,18 -26,23 -25,25 -25,30 -23,34 -21,33 -17,33 -16,30 64,5 -13,18 -13,18 -12,20 -13,20 -13,23 -10,21 -10,20 -10,20 h 5 l 13,-2 15,-3 h 15 l -30,33 -21,36 -12,40 -11,51 -5,-89 3,-76 13,-74 25,-68 -3,-13 -2,-15 -5,-15 -3,-16 26,-66 35,-71 41,-74 46,-76 45,-71 49,-69 43,-61 z"
   id="path102"
   inkscape:connector-curvature="0"
   style="fill:#b2007a;stroke:none" />
         <path
   d="m 9399,14780 -2,109 -5,160 -15,165 -18,122 38,21 43,17 43,18 46,18 43,13 44,12 40,10 36,8 33,3 h 35 l 36,-8 33,-10 31,-15 25,-18 23,-21 15,-22 15,-31 16,-41 20,-48 20,-48 18,-51 18,-46 15,-40 10,-28 8,-21 10,-17 5,-21 3,-20 -3,-20 -8,-26 -15,-28 -25,-33 h 15 18 l 18,-2 h 20 l 15,-3 h 18 l 13,-2 h 7 l -17,-16 -21,-15 -25,-15 -26,-18 -28,-15 -25,-13 -23,-10 -20,-5 -10,15 -11,15 -10,16 -10,12 -10,15 -10,13 -10,10 -8,11 -10,5 -13,5 -20,5 -26,2 -43,5 -48,3 -53,-3 -54,-2 -51,-8 -48,-12 -41,-18 -30,-21 13,-5 15,-2 13,-3 h 15 18 20 l 25,3 28,5 -25,-8 -26,-7 -28,-5 -25,-3 -28,-3 -23,3 -25,3 z"
   id="path104"
   inkscape:connector-curvature="0"
   style="fill:#b2007a;stroke:none" />
         <path
   d="m 11237,15481 10,15 10,18 8,18 10,20 38,-10 -5,-130 -12,-122 -21,-109 -25,-102 -31,-91 -33,-81 -40,-77 -41,-66 -43,-61 -43,-53 -44,-46 -43,-40 -43,-36 -41,-30 -35,-26 -33,-23 -13,-7 -18,-11 -18,-7 -23,-10 -20,-8 -20,-8 -15,-5 -11,-2 -5,33 -10,33 -13,33 -17,30 -5,5 12,13 26,21 38,22 40,28 41,31 38,25 28,26 38,43 41,51 41,58 43,69 41,73 43,79 43,87 41,89 10,35 15,38 15,41 16,38 12,36 13,28 8,17 z"
   id="path106"
   inkscape:connector-curvature="0"
   style="fill:#b2007a;stroke:none" />
         <path
   d="m 10281,13590 11,-5 10,-5 10,-8 8,-10 7,-7 13,-11 15,-5 13,-2 13,-3 h 15 15 l 15,5 13,5 h 13 l 10,-2 10,-3 10,-5 10,-5 8,-7 8,-5 10,10 10,10 5,13 -5,10 -13,12 -12,13 -13,13 -3,10 h 5 l 8,-3 5,-7 5,-3 15,13 13,15 13,16 5,7 v 8 5 l -3,7 -2,8 h -10 -10 -13 l -13,-2 h -15 l -13,-3 h -13 l -10,-3 -12,-5 -16,-5 -12,-5 -16,-5 5,-5 6,-5 2,-5 3,-3 -11,-12 -12,-8 -13,-8 -13,-2 -7,-3 h -10 -13 -13 l -13,3 -12,2 h -8 l -8,3 v -3 l -2,-2 v -5 z"
   id="path108"
   inkscape:connector-curvature="0"
   style="fill:#000000;stroke:none" />
         <path
   d="m 10236,13801 15,-5 18,-8 15,-10 15,-10 15,-13 21,-12 20,-13 13,-10 13,-8 12,-7 13,-3 13,3 10,2 h 15 l 13,-2 10,-3 8,-2 10,-3 10,3 13,7 12,10 13,8 10,8 10,7 11,8 15,7 15,8 18,3 -3,5 -2,5 -5,2 v 3 l -10,28 -13,30 -21,31 -30,20 -18,8 -20,5 -20,2 -21,3 h -18 l -17,-3 -18,-2 -13,-5 -23,-13 -20,-18 -18,-18 -13,-15 16,3 12,2 h 16 l 17,3 13,2 h 15 13 10 10 l 13,-2 h 13 l 13,-3 10,-2 12,-5 8,-3 5,-2 8,-8 5,-15 5,-18 v -18 l -13,-5 h -10 l -13,-2 -12,2 -11,3 -10,2 -10,5 -10,8 -13,-3 -12,-2 h -13 -10 -13 l -13,2 -10,5 -8,5 -12,8 -8,5 h -8 l -7,3 h -15 l -23,2 h -21 z"
   id="path110"
   inkscape:connector-curvature="0"
   style="fill:#000000;stroke:none" />
         <path
   d="m 10815,14691 8,2 12,3 11,2 12,5 13,3 10,5 10,8 8,5 31,53 30,59 33,58 31,61 33,66 30,69 31,71 28,79 -41,-89 -43,-87 -43,-79 -41,-73 -43,-69 -41,-58 -41,-51 z"
   id="path112"
   inkscape:connector-curvature="0"
   style="fill:#000000;stroke:none" />
         <path
   d="m 10236,13801 12,5 h 21 l 23,-2 h 15 l 7,-3 h 8 l 8,-5 12,-8 8,-5 10,-5 13,-2 h 13 10 13 l 12,2 13,3 10,-8 10,-5 10,-2 11,-3 12,-2 13,2 h 10 l 13,5 v 18 l -5,18 -5,15 -8,8 -5,2 -8,3 -12,5 -10,2 -13,3 h -13 l -13,2 h -10 -10 -13 -15 l -13,-2 -17,-3 h -16 l -12,-2 -16,-3 -10,-12 -23,-8 -23,-8 z"
   id="path114"
   inkscape:connector-curvature="0"
   style="fill:#e50099;stroke:none" />
         <path
   d="m 10017,13374 18,-2 18,-8 15,-8 15,-12 8,-8 10,-8 13,-7 15,-8 15,-10 15,-8 16,-7 15,-5 18,7 15,8 10,8 8,7 -13,21 -13,12 -12,8 -13,5 -8,3 -10,2 -13,3 -10,2 -12,5 -13,3 h -10 l -8,2 h -10 -13 -13 -12 -13 l -13,-2 h -7 z"
   id="path116"
   inkscape:connector-curvature="0"
   style="fill:#70b2ef;stroke:none" />
         <path
   d="m 10571,13260 10,-13 11,-10 10,-13 10,-10 10,-8 10,-7 13,-8 10,-5 10,-2 13,-3 13,-2 h 12 11 10 l 7,2 3,3 2,7 v 3 5 5 h -12 l -13,2 -13,3 h -10 l 15,15 11,10 10,13 5,8 5,12 -3,8 -5,8 -10,5 -8,5 -10,2 -10,6 -13,5 -15,2 -13,5 -15,3 -13,2 -22,3 -21,2 -15,3 -10,5 v -8 l 5,-20 5,-25 z"
   id="path118"
   inkscape:connector-curvature="0"
   style="fill:#70b2ef;stroke:none" />
        </g>
       </g>
      </g>
     </g>
    </g>
   </g>
  </g>
 </g>
</svg>