<?xml version="1.0" encoding="UTF-8" standalone="no"?>
<svg
   xmlns:ooo="http://xml.openoffice.org/svg/export"
   xmlns:dc="http://purl.org/dc/elements/1.1/"
   xmlns:cc="http://creativecommons.org/ns#"
   xmlns:rdf="http://www.w3.org/1999/02/22-rdf-syntax-ns#"
   xmlns:svg="http://www.w3.org/2000/svg"
   xmlns="http://www.w3.org/2000/svg"
   xmlns:sodipodi="http://sodipodi.sourceforge.net/DTD/sodipodi-0.dtd"
   xmlns:inkscape="http://www.inkscape.org/namespaces/inkscape"
   version="1.2"
   width="37.079998mm"
   height="24.559999mm"
   viewBox="0 0 3707.9998 2455.9999"
   preserveAspectRatio="xMidYMid"
   xml:space="preserve"
   id="svg101"
   sodipodi:docname="wtrmelon.svg"
   style="fill-rule:evenodd;stroke-width:28.22200012;stroke-linejoin:round"
   inkscape:version="0.92.5 (2060ec1f9f, 2020-04-08)"><metadata
   id="metadata105"><rdf:RDF><cc:Work
       rdf:about=""><dc:format>image/svg+xml</dc:format><dc:type
         rdf:resource="http://purl.org/dc/dcmitype/StillImage" /></cc:Work></rdf:RDF></metadata><sodipodi:namedview
   pagecolor="#ffffff"
   bordercolor="#666666"
   borderopacity="1"
   objecttolerance="10"
   gridtolerance="10"
   guidetolerance="10"
   inkscape:pageopacity="0"
   inkscape:pageshadow="2"
   inkscape:window-width="664"
   inkscape:window-height="487"
   id="namedview103"
   showgrid="false"
   inkscape:zoom="0.2102413"
   inkscape:cx="70.072442"
   inkscape:cy="46.412597"
   inkscape:window-x="0"
   inkscape:window-y="0"
   inkscape:window-maximized="0"
   inkscape:current-layer="svg101" />
 <defs
   class="ClipPathGroup"
   id="defs8">
  <clipPath
   id="presentation_clip_path"
   clipPathUnits="userSpaceOnUse">
   <rect
   x="0"
   y="0"
   width="21000"
   height="29700"
   id="rect2" />
  </clipPath>
  <clipPath
   id="presentation_clip_path_shrink"
   clipPathUnits="userSpaceOnUse">
   <rect
   x="21"
   y="29"
   width="20958"
   height="29641"
   id="rect5" />
  </clipPath>
 </defs>
 <defs
   class="TextShapeIndex"
   id="defs12">
  <g
   ooo:slide="id1"
   ooo:id-list="id3"
   id="g10" />
 </defs>
 <defs
   class="EmbeddedBulletChars"
   id="defs44">
  <g
   id="bullet-char-template-57356"
   transform="matrix(4.8828125e-4,0,0,-4.8828125e-4,0,0)">
   <path
   d="M 580,1141 1163,571 580,0 -4,571 Z"
   id="path14"
   inkscape:connector-curvature="0" />
  </g>
  <g
   id="bullet-char-template-57354"
   transform="matrix(4.8828125e-4,0,0,-4.8828125e-4,0,0)">
   <path
   d="M 8,1128 H 1137 V 0 H 8 Z"
   id="path17"
   inkscape:connector-curvature="0" />
  </g>
  <g
   id="bullet-char-template-10146"
   transform="matrix(4.8828125e-4,0,0,-4.8828125e-4,0,0)">
   <path
   d="M 174,0 602,739 174,1481 1456,739 Z M 1358,739 309,1346 659,739 Z"
   id="path20"
   inkscape:connector-curvature="0" />
  </g>
  <g
   id="bullet-char-template-10132"
   transform="matrix(4.8828125e-4,0,0,-4.8828125e-4,0,0)">
   <path
   d="M 2015,739 1276,0 H 717 l 543,543 H 174 v 393 h 1086 l -543,545 h 557 z"
   id="path23"
   inkscape:connector-curvature="0" />
  </g>
  <g
   id="bullet-char-template-10007"
   transform="matrix(4.8828125e-4,0,0,-4.8828125e-4,0,0)">
   <path
   d="m 0,-2 c -7,16 -16,29 -25,39 l 381,530 c -94,256 -141,385 -141,387 0,25 13,38 40,38 9,0 21,-2 34,-5 21,4 42,12 65,25 l 27,-13 111,-251 280,301 64,-25 24,25 c 21,-10 41,-24 62,-43 C 886,937 835,863 770,784 769,783 710,716 594,584 L 774,223 c 0,-27 -21,-55 -63,-84 l 16,-20 C 717,90 699,76 672,76 641,76 570,178 457,381 L 164,-76 c -22,-34 -53,-51 -92,-51 -42,0 -63,17 -64,51 -7,9 -10,24 -10,44 0,9 1,19 2,30 z"
   id="path26"
   inkscape:connector-curvature="0" />
  </g>
  <g
   id="bullet-char-template-10004"
   transform="matrix(4.8828125e-4,0,0,-4.8828125e-4,0,0)">
   <path
   d="M 285,-33 C 182,-33 111,30 74,156 52,228 41,333 41,471 c 0,78 14,145 41,201 34,71 87,106 158,106 53,0 88,-31 106,-94 l 23,-176 c 8,-64 28,-97 59,-98 l 735,706 c 11,11 33,17 66,17 42,0 63,-15 63,-46 V 965 c 0,-36 -10,-64 -30,-84 L 442,47 C 390,-6 338,-33 285,-33 Z"
   id="path29"
   inkscape:connector-curvature="0" />
  </g>
  <g
   id="bullet-char-template-9679"
   transform="matrix(4.8828125e-4,0,0,-4.8828125e-4,0,0)">
   <path
   d="M 813,0 C 632,0 489,54 383,161 276,268 223,411 223,592 c 0,181 53,324 160,431 106,107 249,161 430,161 179,0 323,-54 432,-161 108,-107 162,-251 162,-431 0,-180 -54,-324 -162,-431 C 1136,54 992,0 813,0 Z"
   id="path32"
   inkscape:connector-curvature="0" />
  </g>
  <g
   id="bullet-char-template-8226"
   transform="matrix(4.8828125e-4,0,0,-4.8828125e-4,0,0)">
   <path
   d="m 346,457 c -73,0 -137,26 -191,78 -54,51 -81,114 -81,188 0,73 27,136 81,188 54,52 118,78 191,78 73,0 134,-26 185,-79 51,-51 77,-114 77,-187 0,-75 -25,-137 -76,-188 -50,-52 -112,-78 -186,-78 z"
   id="path35"
   inkscape:connector-curvature="0" />
  </g>
  <g
   id="bullet-char-template-8211"
   transform="matrix(4.8828125e-4,0,0,-4.8828125e-4,0,0)">
   <path
   d="M -4,459 H 1135 V 606 H -4 Z"
   id="path38"
   inkscape:connector-curvature="0" />
  </g>
  <g
   id="bullet-char-template-61548"
   transform="matrix(4.8828125e-4,0,0,-4.8828125e-4,0,0)">
   <path
   d="m 173,740 c 0,163 58,303 173,419 116,115 255,173 419,173 163,0 302,-58 418,-173 116,-116 174,-256 174,-419 0,-163 -58,-303 -174,-418 C 1067,206 928,148 765,148 601,148 462,206 346,322 231,437 173,577 173,740 Z"
   id="path41"
   inkscape:connector-curvature="0" />
  </g>
 </defs>
 <g
   id="g49"
   transform="translate(-8646,-13622)">
  <g
   id="id2"
   class="Master_Slide">
   <g
   id="bg-id2"
   class="Background" />
   <g
   id="bo-id2"
   class="BackgroundObjects" />
  </g>
 </g>
 <g
   class="SlideGroup"
   id="g99"
   transform="translate(-8646,-13622)">
  <g
   id="g97">
   <g
   id="container-id1">
    <g
   id="id1"
   class="Slide"
   clip-path="url(#presentation_clip_path)">
     <g
   class="Page"
   id="g93">
      <g
   class="Graphic"
   id="g91">
       <g
   id="id3">
        <rect
   class="BoundingBox"
   x="8646"
   y="13622"
   width="3708"
   height="2456"
   id="rect51"
   style="fill:none;stroke:none" />
        <defs
   id="defs56">
         <clipPath
   id="clip_path_1"
   clipPathUnits="userSpaceOnUse">
          <path
   d="m 8646,13622 h 3707 v 2455 H 8646 Z"
   id="path53"
   inkscape:connector-curvature="0" />
         </clipPath>
        </defs>
        <g
   clip-path="url(#clip_path_1)"
   id="g88">
         <path
   d="m 12329,14738 -8,-2 -20,-3 -31,-8 -43,-7 -51,-10 -56,-11 -63,-10 -66,-12 -41,-8 -59,-13 -68,-15 -79,-18 -86,-20 -92,-23 -96,-23 -100,-25 -99,-23 -96,-23 -92,-23 -84,-20 -76,-18 -66,-18 -51,-13 -38,-7 -41,-10 -66,-21 -83,-25 -100,-31 -114,-35 -122,-41 -127,-41 -130,-43 -129,-41 -125,-40 -117,-38 -104,-36 -91,-30 -74,-23 -51,-18 -25,-8 -18,-5 -23,-10 -28,-13 -36,-15 -38,-15 -38,-18 -43,-18 -41,-18 -40,-20 -41,-15 -36,-18 -30,-13 -28,-12 -20,-11 -13,-5 -5,-2 -20,84 -16,122 -5,155 10,173 26,188 48,196 76,193 107,183 56,79 56,71 53,68 54,62 50,55 51,54 49,46 48,43 48,40 46,36 43,33 43,28 44,28 40,23 41,23 40,20 41,21 48,20 51,23 56,20 61,20 64,21 71,15 76,15 79,10 84,8 h 89 l 94,-5 96,-10 102,-18 107,-25 112,-33 109,-39 104,-40 97,-41 91,-43 81,-41 77,-41 71,-40 63,-41 56,-38 51,-38 43,-33 38,-33 31,-28 25,-26 18,-23 13,-17 28,-41 40,-53 51,-67 56,-71 54,-71 50,-69 44,-61 z"
   id="path58"
   inkscape:connector-curvature="0"
   style="fill:#00ff00;stroke:none" />
         <path
   d="m 8918,13841 -3,7 -5,21 -5,33 -7,43 -8,56 -5,63 -3,74 5,84 8,89 15,97 23,101 33,107 41,112 56,114 68,117 82,120 48,61 51,61 56,56 56,53 61,51 61,48 63,46 64,43 66,38 68,34 67,33 71,25 68,25 71,18 69,15 71,11 94,7 94,5 92,-2 89,-8 86,-10 84,-13 81,-18 77,-17 73,-21 71,-23 67,-22 61,-23 58,-23 51,-23 48,-20 41,-21 48,-25 53,-33 54,-38 56,-44 56,-45 56,-49 55,-50 54,-54 51,-51 50,-51 46,-48 41,-46 38,-43 31,-38 25,-33 18,-25 28,-46 28,-49 28,-45 22,-44 21,-35 18,-31 10,-17 2,-8 -28,2 h -33 -30 l -33,3 h -36 -35 -36 -36 -35 l -36,-3 -35,-2 h -36 l -33,-3 -35,-5 -31,-2 -30,-5 -49,-8 -56,-8 -66,-10 -71,-10 -81,-13 -87,-12 -89,-13 -96,-15 -99,-16 -102,-17 -104,-18 -104,-18 -105,-18 -106,-20 -105,-23 -101,-20 -38,-8 -59,-15 -76,-21 -89,-22 -102,-28 -109,-31 -114,-33 -117,-33 -120,-36 -114,-33 -107,-33 -101,-33 -89,-28 -74,-28 -56,-23 z"
   id="path60"
   inkscape:connector-curvature="0"
   style="fill:#a5ff4c;stroke:none" />
         <path
   d="m 8974,13846 -3,25 -2,74 v 109 l 10,140 23,158 40,170 67,173 94,168 55,79 59,71 58,68 61,66 61,59 64,56 66,51 66,45 66,44 69,38 66,33 68,30 69,26 71,23 69,18 68,12 87,15 81,11 74,7 69,5 63,3 59,2 55,-2 54,-5 51,-8 48,-10 48,-13 51,-12 48,-16 51,-17 54,-21 55,-20 51,-20 54,-21 56,-23 61,-23 61,-28 61,-30 63,-31 64,-35 66,-38 61,-41 63,-46 61,-48 59,-53 56,-59 53,-61 51,-66 28,-43 25,-41 21,-36 17,-33 13,-25 10,-20 5,-13 3,-5 -33,-3 -33,-2 -33,-3 -36,-5 -35,-5 -36,-5 -38,-8 -36,-7 -40,-8 -39,-8 -40,-7 -41,-8 -41,-10 -43,-8 -40,-7 -44,-8 -50,-10 -69,-15 -81,-18 -92,-20 -102,-23 -106,-26 -112,-28 -114,-28 -112,-28 -110,-25 -104,-25 -94,-26 -84,-20 -71,-21 -53,-15 -38,-10 -36,-10 -53,-15 -69,-18 -81,-18 -89,-23 -97,-25 -104,-26 -104,-25 -104,-28 -105,-28 -96,-28 -92,-28 -81,-28 -71,-28 -56,-25 z"
   id="path62"
   inkscape:connector-curvature="0"
   style="fill:#ffffff;stroke:none" />
         <path
   d="m 9083,13622 23,13 41,20 56,28 71,33 84,38 91,43 99,46 102,46 102,46 101,45 99,44 92,38 81,35 69,28 58,21 38,12 18,6 26,7 30,10 38,13 41,13 48,15 51,18 56,18 58,20 64,20 63,23 69,23 69,23 68,23 71,25 72,23 71,23 71,25 68,23 69,23 66,21 64,22 63,18 56,21 56,17 51,16 46,12 40,13 36,10 28,8 25,5 16,2 -11,26 -10,30 -15,31 -18,30 -23,36 -25,36 -33,35 -38,38 -46,38 -51,39 -61,38 -68,38 -79,38 -87,38 -99,38 -109,36 -59,18 -55,15 -56,15 -56,13 -56,13 -56,10 -53,7 -56,8 -54,8 -53,2 -53,5 h -54 -51 l -53,-2 -51,-3 -51,-7 -51,-8 -50,-8 -51,-12 -51,-13 -48,-15 -51,-16 -48,-20 -51,-20 -49,-23 -48,-26 -48,-25 -48,-31 -49,-30 -48,-36 -46,-35 -48,-38 -89,-82 -76,-89 -66,-94 -54,-96 -45,-100 -39,-99 -30,-101 -20,-100 -18,-96 -10,-97 -8,-89 -2,-84 v -78 l 2,-69 3,-61 z"
   id="path64"
   inkscape:connector-curvature="0"
   style="fill:#ff0000;stroke:none" />
         <path
   d="m 12285,14664 -15,-5 h -15 l -10,3 -10,7 -11,11 -7,7 -10,10 -8,11 h 3 l -6,7 -12,18 -18,25 -23,31 -28,38 -33,41 -36,46 -40,45 -41,49 -46,45 -43,49 -46,43 -43,41 -43,35 -43,31 -43,28 -54,33 -61,35 -71,38 -76,39 -84,40 -91,41 -95,38 -99,36 -101,30 -105,28 -104,20 -106,16 -105,7 -104,-2 -102,-10 -101,-21 -99,-25 -97,-31 -94,-35 -91,-43 -87,-46 -84,-51 -81,-53 -76,-56 -71,-61 -66,-64 -64,-66 -56,-66 -51,-69 -45,-68 -39,-72 -63,-139 -51,-128 -36,-111 -22,-95 -18,-76 -10,-51 -8,-30 -8,-3 -5,10 -2,13 v 15 l 2,11 5,43 8,61 10,74 15,83 21,89 28,92 35,92 46,86 53,84 59,81 58,74 59,69 61,63 61,59 63,56 61,48 64,46 61,43 63,38 61,33 61,31 59,28 56,25 56,20 61,21 61,20 61,13 63,12 61,8 64,5 63,3 h 64 l 63,-3 64,-5 63,-8 64,-10 61,-12 63,-16 61,-15 61,-18 61,-20 59,-20 58,-23 59,-23 56,-23 56,-26 53,-28 53,-27 51,-26 51,-28 48,-30 46,-28 43,-28 43,-31 41,-28 38,-28 33,-25 31,-28 33,-31 33,-33 30,-33 31,-35 30,-36 31,-36 28,-35 25,-36 26,-35 22,-36 23,-33 18,-33 18,-31 15,-27 10,-18 13,-18 13,-18 z"
   id="path66"
   inkscape:connector-curvature="0"
   style="fill:#000000;stroke:none" />
         <path
   d="m 8842,13856 2,-5 8,-8 13,-5 17,3 5,7 -2,13 -3,15 -2,10 -31,125 -15,127 v 125 l 13,124 25,125 36,119 43,117 48,110 54,104 56,96 58,89 53,79 54,69 48,58 43,44 33,30 127,94 122,82 120,66 114,56 109,40 107,33 102,23 96,15 92,6 86,2 82,-5 76,-8 71,-10 66,-12 61,-16 53,-12 163,-44 153,-53 139,-61 133,-71 119,-77 112,-83 102,-84 91,-84 84,-87 74,-84 63,-78 56,-74 48,-69 38,-58 31,-49 23,-35 10,-8 15,-7 13,-3 h 5 l -5,20 -8,28 -15,33 -20,41 -26,46 -30,48 -36,54 -38,55 -43,56 -48,61 -51,59 -54,58 -58,59 -59,56 -63,51 -64,50 -76,54 -76,48 -79,48 -79,44 -78,38 -82,38 -81,33 -81,31 -82,25 -81,23 -81,20 -82,15 -81,13 -81,10 -82,5 h -81 -81 l -82,-7 -78,-10 -79,-13 -76,-18 -79,-20 -74,-26 -76,-30 -74,-33 -71,-38 -71,-41 -69,-46 -68,-51 -64,-53 -66,-59 -61,-63 -71,-79 -66,-84 -64,-86 -58,-92 -54,-91 -48,-94 -43,-100 -36,-96 -28,-102 -23,-99 -12,-102 -8,-101 3,-102 12,-102 23,-99 z"
   id="path68"
   inkscape:connector-curvature="0"
   style="fill:#000000;stroke:none" />
         <path
   d="m 8941,13856 30,18 46,23 61,25 69,28 78,30 87,31 91,31 92,30 94,31 91,27 89,28 82,26 73,20 66,21 51,12 38,10 56,13 77,18 91,23 107,23 114,28 122,30 130,31 129,30 130,31 125,30 122,28 109,26 99,20 86,20 66,13 49,10 30,5 31,5 25,5 28,6 23,5 25,5 23,2 23,5 25,3 23,2 26,5 25,3 26,3 28,2 30,3 33,2 28,-10 13,-23 -8,-23 -20,-15 -43,-10 -41,-10 -38,-8 -38,-5 -38,-8 -36,-5 -36,-5 -35,-2 -33,-5 -36,-6 -38,-2 -35,-5 -39,-5 -40,-5 -41,-8 -43,-8 -69,-12 -76,-16 -84,-17 -86,-21 -89,-20 -92,-23 -91,-23 -92,-23 -91,-20 -87,-23 -83,-20 -77,-18 -71,-15 -61,-13 -53,-10 -43,-8 -49,-7 -56,-13 -66,-15 -71,-18 -76,-21 -79,-22 -79,-23 -81,-26 -79,-23 -76,-25 -69,-20 -66,-23 -56,-18 -48,-15 -36,-13 -25,-8 -36,-12 -35,-11 -33,-12 -36,-10 -33,-13 -35,-13 -33,-15 -33,-13 -21,-2 -12,5 -11,7 z"
   id="path70"
   inkscape:connector-curvature="0"
   style="fill:#000000;stroke:none" />
         <path
   d="m 9335,14166 -10,-2 -11,2 -12,3 -13,7 -13,8 -7,10 -5,10 -3,10 3,18 5,10 10,5 13,3 h 15 l 20,-5 26,-5 27,-8 26,-7 20,-11 13,-7 5,-10 -5,-13 -8,-8 -12,-2 h -13 -18 -18 l -17,-3 z"
   id="path72"
   inkscape:connector-curvature="0"
   style="fill:#000000;stroke:none" />
         <path
   d="m 9688,14441 -5,15 v 13 l 5,12 10,11 15,5 13,2 13,-5 10,-10 5,-5 10,-10 15,-18 16,-21 18,-20 12,-18 8,-15 2,-10 -12,-13 -18,-2 -18,7 -20,13 -23,15 -20,18 -21,20 z"
   id="path74"
   inkscape:connector-curvature="0"
   style="fill:#000000;stroke:none" />
         <path
   d="m 9774,14781 v 13 l 3,13 5,10 10,10 15,3 13,-5 13,-16 10,-17 10,-23 8,-21 7,-20 6,-15 2,-13 -5,-8 -13,-2 -18,2 -12,8 -21,20 -20,28 z"
   id="path76"
   inkscape:connector-curvature="0"
   style="fill:#000000;stroke:none" />
         <path
   d="m 10074,15069 5,15 11,10 10,8 h 12 l 16,-5 10,-8 7,-13 v -15 l -5,-25 -7,-41 -10,-41 -5,-38 v -8 l -3,-5 -5,-2 -5,-3 h -5 l -5,3 -5,5 -3,5 -5,15 -13,36 -5,51 z"
   id="path78"
   inkscape:connector-curvature="0"
   style="fill:#000000;stroke:none" />
         <path
   d="m 10453,14992 15,8 21,-5 17,-10 5,-16 -7,-53 -10,-61 -5,-46 -6,-20 -12,5 -15,15 -13,26 -10,30 -5,36 v 33 l 7,33 z"
   id="path80"
   inkscape:connector-curvature="0"
   style="fill:#000000;stroke:none" />
         <path
   d="m 10816,14819 -5,-33 -2,-33 -5,-35 -10,-31 -6,-12 -7,-6 -8,3 -7,10 v 0 l -13,33 -5,33 -3,36 -2,33 2,15 8,10 10,11 15,2 16,-2 12,-8 8,-10 z"
   id="path82"
   inkscape:connector-curvature="0"
   style="fill:#000000;stroke:none" />
         <path
   d="m 11088,14980 5,15 11,10 12,8 h 16 l 15,-5 10,-11 8,-12 v -16 l -5,-38 v -38 l -6,-38 -7,-38 -3,-10 -5,-8 -7,-5 h -11 l -20,25 -10,51 -3,59 z"
   id="path84"
   inkscape:connector-curvature="0"
   style="fill:#000000;stroke:none" />
         <path
   d="m 11477,14794 5,13 8,10 13,8 h 12 l 13,-6 10,-7 8,-13 v -13 l -5,-20 -10,-15 -13,-15 -13,-13 -18,-10 -17,-13 -16,-10 -15,-13 -5,-2 -5,-3 h -8 l -5,5 -5,5 v 5 8 l 3,5 10,15 23,31 23,33 z"
   id="path86"
   inkscape:connector-curvature="0"
   style="fill:#000000;stroke:none" />
        </g>
       </g>
      </g>
     </g>
    </g>
   </g>
  </g>
 </g>
</svg>