<?xml version="1.0" encoding="UTF-8" standalone="no"?>
<svg
   xmlns:ooo="http://xml.openoffice.org/svg/export"
   xmlns:dc="http://purl.org/dc/elements/1.1/"
   xmlns:cc="http://creativecommons.org/ns#"
   xmlns:rdf="http://www.w3.org/1999/02/22-rdf-syntax-ns#"
   xmlns:svg="http://www.w3.org/2000/svg"
   xmlns="http://www.w3.org/2000/svg"
   xmlns:sodipodi="http://sodipodi.sourceforge.net/DTD/sodipodi-0.dtd"
   xmlns:inkscape="http://www.inkscape.org/namespaces/inkscape"
   version="1.2"
   width="137.85001mm"
   height="78.139999mm"
   viewBox="0 0 13785.001 7813.9999"
   preserveAspectRatio="xMidYMid"
   xml:space="preserve"
   id="svg105"
   sodipodi:docname="hndshak1.svg"
   style="fill-rule:evenodd;stroke-width:28.22200012;stroke-linejoin:round"
   inkscape:version="0.92.5 (2060ec1f9f, 2020-04-08)"><metadata
   id="metadata109"><rdf:RDF><cc:Work
       rdf:about=""><dc:format>image/svg+xml</dc:format><dc:type
         rdf:resource="http://purl.org/dc/dcmitype/StillImage" /></cc:Work></rdf:RDF></metadata><sodipodi:namedview
   pagecolor="#ffffff"
   bordercolor="#666666"
   borderopacity="1"
   objecttolerance="10"
   gridtolerance="10"
   guidetolerance="10"
   inkscape:pageopacity="0"
   inkscape:pageshadow="2"
   inkscape:window-width="664"
   inkscape:window-height="487"
   id="namedview107"
   showgrid="false"
   inkscape:zoom="0.2102413"
   inkscape:cx="260.52284"
   inkscape:cy="147.66614"
   inkscape:window-x="0"
   inkscape:window-y="0"
   inkscape:window-maximized="0"
   inkscape:current-layer="svg105" />
 <defs
   class="ClipPathGroup"
   id="defs8">
  <clipPath
   id="presentation_clip_path"
   clipPathUnits="userSpaceOnUse">
   <rect
   x="0"
   y="0"
   width="21000"
   height="29700"
   id="rect2" />
  </clipPath>
  <clipPath
   id="presentation_clip_path_shrink"
   clipPathUnits="userSpaceOnUse">
   <rect
   x="21"
   y="29"
   width="20958"
   height="29641"
   id="rect5" />
  </clipPath>
 </defs>
 <defs
   class="TextShapeIndex"
   id="defs12">
  <g
   ooo:slide="id1"
   ooo:id-list="id3"
   id="g10" />
 </defs>
 <defs
   class="EmbeddedBulletChars"
   id="defs44">
  <g
   id="bullet-char-template-57356"
   transform="matrix(4.8828125e-4,0,0,-4.8828125e-4,0,0)">
   <path
   d="M 580,1141 1163,571 580,0 -4,571 Z"
   id="path14"
   inkscape:connector-curvature="0" />
  </g>
  <g
   id="bullet-char-template-57354"
   transform="matrix(4.8828125e-4,0,0,-4.8828125e-4,0,0)">
   <path
   d="M 8,1128 H 1137 V 0 H 8 Z"
   id="path17"
   inkscape:connector-curvature="0" />
  </g>
  <g
   id="bullet-char-template-10146"
   transform="matrix(4.8828125e-4,0,0,-4.8828125e-4,0,0)">
   <path
   d="M 174,0 602,739 174,1481 1456,739 Z M 1358,739 309,1346 659,739 Z"
   id="path20"
   inkscape:connector-curvature="0" />
  </g>
  <g
   id="bullet-char-template-10132"
   transform="matrix(4.8828125e-4,0,0,-4.8828125e-4,0,0)">
   <path
   d="M 2015,739 1276,0 H 717 l 543,543 H 174 v 393 h 1086 l -543,545 h 557 z"
   id="path23"
   inkscape:connector-curvature="0" />
  </g>
  <g
   id="bullet-char-template-10007"
   transform="matrix(4.8828125e-4,0,0,-4.8828125e-4,0,0)">
   <path
   d="m 0,-2 c -7,16 -16,29 -25,39 l 381,530 c -94,256 -141,385 -141,387 0,25 13,38 40,38 9,0 21,-2 34,-5 21,4 42,12 65,25 l 27,-13 111,-251 280,301 64,-25 24,25 c 21,-10 41,-24 62,-43 C 886,937 835,863 770,784 769,783 710,716 594,584 L 774,223 c 0,-27 -21,-55 -63,-84 l 16,-20 C 717,90 699,76 672,76 641,76 570,178 457,381 L 164,-76 c -22,-34 -53,-51 -92,-51 -42,0 -63,17 -64,51 -7,9 -10,24 -10,44 0,9 1,19 2,30 z"
   id="path26"
   inkscape:connector-curvature="0" />
  </g>
  <g
   id="bullet-char-template-10004"
   transform="matrix(4.8828125e-4,0,0,-4.8828125e-4,0,0)">
   <path
   d="M 285,-33 C 182,-33 111,30 74,156 52,228 41,333 41,471 c 0,78 14,145 41,201 34,71 87,106 158,106 53,0 88,-31 106,-94 l 23,-176 c 8,-64 28,-97 59,-98 l 735,706 c 11,11 33,17 66,17 42,0 63,-15 63,-46 V 965 c 0,-36 -10,-64 -30,-84 L 442,47 C 390,-6 338,-33 285,-33 Z"
   id="path29"
   inkscape:connector-curvature="0" />
  </g>
  <g
   id="bullet-char-template-9679"
   transform="matrix(4.8828125e-4,0,0,-4.8828125e-4,0,0)">
   <path
   d="M 813,0 C 632,0 489,54 383,161 276,268 223,411 223,592 c 0,181 53,324 160,431 106,107 249,161 430,161 179,0 323,-54 432,-161 108,-107 162,-251 162,-431 0,-180 -54,-324 -162,-431 C 1136,54 992,0 813,0 Z"
   id="path32"
   inkscape:connector-curvature="0" />
  </g>
  <g
   id="bullet-char-template-8226"
   transform="matrix(4.8828125e-4,0,0,-4.8828125e-4,0,0)">
   <path
   d="m 346,457 c -73,0 -137,26 -191,78 -54,51 -81,114 -81,188 0,73 27,136 81,188 54,52 118,78 191,78 73,0 134,-26 185,-79 51,-51 77,-114 77,-187 0,-75 -25,-137 -76,-188 -50,-52 -112,-78 -186,-78 z"
   id="path35"
   inkscape:connector-curvature="0" />
  </g>
  <g
   id="bullet-char-template-8211"
   transform="matrix(4.8828125e-4,0,0,-4.8828125e-4,0,0)">
   <path
   d="M -4,459 H 1135 V 606 H -4 Z"
   id="path38"
   inkscape:connector-curvature="0" />
  </g>
  <g
   id="bullet-char-template-61548"
   transform="matrix(4.8828125e-4,0,0,-4.8828125e-4,0,0)">
   <path
   d="m 173,740 c 0,163 58,303 173,419 116,115 255,173 419,173 163,0 302,-58 418,-173 116,-116 174,-256 174,-419 0,-163 -58,-303 -174,-418 C 1067,206 928,148 765,148 601,148 462,206 346,322 231,437 173,577 173,740 Z"
   id="path41"
   inkscape:connector-curvature="0" />
  </g>
 </defs>
 <g
   id="g49"
   transform="translate(-3607,-10943)">
  <g
   id="id2"
   class="Master_Slide">
   <g
   id="bg-id2"
   class="Background" />
   <g
   id="bo-id2"
   class="BackgroundObjects" />
  </g>
 </g>
 <g
   class="SlideGroup"
   id="g103"
   transform="translate(-3607,-10943)">
  <g
   id="g101">
   <g
   id="container-id1">
    <g
   id="id1"
   class="Slide"
   clip-path="url(#presentation_clip_path)">
     <g
   class="Page"
   id="g97">
      <g
   class="Graphic"
   id="g95">
       <g
   id="id3">
        <rect
   class="BoundingBox"
   x="3607"
   y="10943"
   width="13785"
   height="7814"
   id="rect51"
   style="fill:none;stroke:none" />
        <defs
   id="defs56">
         <clipPath
   id="clip_path_1"
   clipPathUnits="userSpaceOnUse">
          <path
   d="m 3616,10952 h 13762 v 7786 H 3616 Z"
   id="path53"
   inkscape:connector-curvature="0" />
         </clipPath>
        </defs>
        <g
   clip-path="url(#clip_path_1)"
   id="g92">
         <path
   d="m 3686,11022 v 3283 l 265,88 463,225 380,221 529,287 644,423 397,309 357,336 199,264 203,265 176,203 622,379 865,442 511,247 375,242 221,155 243,132 291,-22 220,-132 66,-133 221,111 379,-67 309,-88 243,-132 291,22 198,-22 221,-132 176,-115 243,-177 93,-4 92,13 89,-13 61,-22 66,-40 58,-48 48,-58 49,-92 167,-71 142,-106 97,-128 44,-119 v -163 -128 l -44,-159 -53,-150 -375,-755 -821,-953 -1217,-754 -168,-124 -154,-97 h -124 l -220,44 -133,23 -132,-14 -256,-44 -234,-75 -176,-13 -199,44 -264,124 -247,119 -208,101 -313,9 h -331 l -344,-9 -145,-22 -141,-88 -133,-102 -123,-97 -146,-114 -163,-75 -150,-58 -212,-66 -198,-88 -190,-110 -198,-124 -199,-119 -190,-137 -207,-159 -190,-176 -198,-243 -278,-335 -199,-230 -180,-211 -155,-212 -176,-186 z"
   id="path58"
   inkscape:connector-curvature="0"
   style="fill:#ffbfbf;stroke:none" />
         <path
   d="m 3686,11022 v 3283 l 265,88 463,225 380,221 529,287 644,423 397,309 357,336 199,264 203,265 176,203 622,379 865,442 511,247 375,242 221,155 243,132 291,-22 220,-132 66,-133 221,111 379,-67 309,-88 243,-132 291,22 198,-22 221,-132 176,-115 243,-177 93,-4 92,13 89,-13 61,-22 66,-40 58,-48 48,-58 49,-92 167,-71 142,-106 97,-128 44,-119 v -163 -128 l -44,-159 -53,-150 -375,-755 -821,-953 -1217,-754 -168,-124 -154,-97 h -124 l -220,44 -133,23 -132,-14 -256,-44 -234,-75 -176,-13 -199,44 -264,124 -247,119 -208,101 -313,9 h -331 l -344,-9 -145,-22 -141,-88 -133,-102 -123,-97 -146,-114 -163,-75 -150,-58 -212,-66 -198,-88 -190,-110 -198,-124 -199,-119 -190,-137 -207,-159 -190,-176 -198,-243 -278,-335 -199,-230 -180,-211 -155,-212 -176,-186 z"
   id="path60"
   inkscape:connector-curvature="0"
   style="fill:none;stroke:#000000;stroke-width:71;stroke-linecap:round;stroke-linejoin:round" />
         <path
   d="m 9522,17575 292,110 264,110 212,110 132,93 133,110 176,120 88,44 89,22 22,13"
   id="path62"
   inkscape:connector-curvature="0"
   style="fill:none;stroke:#000000;stroke-width:71;stroke-linecap:round;stroke-linejoin:round" />
         <path
   d="m 10555,17222 264,154 256,132 177,89 88,66 137,132 97,88 132,89 146,35 110,44 145,22 v -9"
   id="path64"
   inkscape:connector-curvature="0"
   style="fill:none;stroke:#000000;stroke-width:71;stroke-linecap:round;stroke-linejoin:round" />
         <path
   d="m 11406,16670 269,194 177,168 211,154 252,177 136,79 243,75 265,80 154,44"
   id="path66"
   inkscape:connector-curvature="0"
   style="fill:none;stroke:#000000;stroke-width:71;stroke-linecap:round;stroke-linejoin:round" />
         <path
   d="m 17313,11221 h -1359 l -265,296 -591,617 -560,534 -282,247 -433,318 -414,269 -265,79 -154,14 -133,110 -154,137 -93,13 -176,31 h -265 l -207,-62 h -265 l -238,62 -234,119 -242,57 -177,40 -172,-9 -309,5 -282,22 -190,137 -176,119 -190,84 -203,88 -194,75 -106,101 -106,119 -136,345 -150,353 -58,229 53,84 66,70 97,67 159,44 159,-14 203,-44 168,-101 123,-110 124,-137 97,-208 53,-88 322,31 150,13 180,-66 146,-75 115,-31 238,106 366,168 194,53 155,48 233,124 115,101 296,296 128,154 136,172 133,93 150,88 163,84 150,18 145,13 194,-53 172,-93 155,-132 137,-251 145,-181 133,-124 163,-110 472,-358 622,-410 591,-357 648,-384 530,-296 z"
   id="path68"
   inkscape:connector-curvature="0"
   style="fill:#ff9f9f;stroke:none" />
         <path
   d="m 17313,11221 h -1359 l -265,296 -591,617 -560,534 -282,247 -433,318 -414,269 -265,79 -154,14 -133,110 -154,137 -93,13 -176,31 h -265 l -207,-62 h -265 l -238,62 -234,119 -242,57 -177,40 -172,-9 -309,5 -282,22 -190,137 -176,119 -190,84 -203,88 -194,75 -106,101 -106,119 -136,345 -150,353 -58,229 53,84 66,70 97,67 159,44 159,-14 203,-44 168,-101 123,-110 124,-137 97,-208 53,-88 322,31 150,13 180,-66 146,-75 115,-31 238,106 366,168 194,53 155,48 233,124 115,101 296,296 128,154 136,172 133,93 150,88 163,84 150,18 145,13 194,-53 172,-93 155,-132 137,-251 145,-181 133,-124 163,-110 472,-358 622,-410 591,-357 648,-384 530,-296 z"
   id="path70"
   inkscape:connector-curvature="0"
   style="fill:none;stroke:#000000;stroke-width:71;stroke-linecap:round;stroke-linejoin:round" />
         <path
   d="m 11966,15717 256,-44 163,-110 v -9"
   id="path72"
   inkscape:connector-curvature="0"
   style="fill:none;stroke:#000000;stroke-width:71;stroke-linecap:round;stroke-linejoin:round" />
         <path
   d="m 14097,15541 35,286 -22,256"
   id="path74"
   inkscape:connector-curvature="0"
   style="fill:none;stroke:#000000;stroke-width:71;stroke-linecap:round;stroke-linejoin:round" />
         <path
   d="m 6964,16604 -199,119 -176,137 -146,181 -44,141 -22,123 44,111 89,123 154,97 190,14 132,-36 172,-97 163,-115 225,-264 z"
   id="path76"
   inkscape:connector-curvature="0"
   style="fill:#ff9f9f;stroke:none" />
         <path
   d="m 6964,16604 -199,119 -176,137 -146,181 -44,141 -22,123 44,111 89,123 154,97 190,14 132,-36 172,-97 163,-115 225,-264 z"
   id="path78"
   inkscape:connector-curvature="0"
   style="fill:none;stroke:#000000;stroke-width:71;stroke-linecap:round;stroke-linejoin:round" />
         <path
   d="m 7687,16635 -207,57 -123,124 -58,145 13,177 75,423 49,230 22,137 44,132 141,97 199,22 247,-9 163,-57 79,-53 58,-102 -58,-375 -57,-256 -154,-300 -89,-154 -53,-93 -66,-79 -101,-53 z"
   id="path80"
   inkscape:connector-curvature="0"
   style="fill:#ff9f9f;stroke:none" />
         <path
   d="m 7687,16635 -207,57 -123,124 -58,145 13,177 75,423 49,230 22,137 44,132 141,97 199,22 247,-9 163,-57 79,-53 58,-102 -58,-375 -57,-256 -154,-300 -89,-154 -53,-93 -66,-79 -101,-53 z"
   id="path82"
   inkscape:connector-curvature="0"
   style="fill:none;stroke:#000000;stroke-width:71;stroke-linecap:round;stroke-linejoin:round" />
         <path
   d="m 8318,17173 h -119 l -66,31 -80,57 -66,133 -22,145 -22,141 v 212 l 22,177 13,145 53,133 67,66 132,35 159,9 198,-22 133,-53 189,-22 186,-102 176,-189 57,-75 -154,-89 -88,-145 -124,-88 -167,-58 -142,-9 -13,-123 -66,-124 -66,-66 -66,-66 z"
   id="path84"
   inkscape:connector-curvature="0"
   style="fill:#ff9f9f;stroke:none" />
         <path
   d="m 8318,17173 h -119 l -66,31 -80,57 -66,133 -22,145 -22,141 v 212 l 22,177 13,145 53,133 67,66 132,35 159,9 198,-22 133,-53 189,-22 186,-102 176,-189 57,-75 -154,-89 -88,-145 -124,-88 -167,-58 -142,-9 -13,-123 -66,-124 -66,-66 -66,-66 z"
   id="path86"
   inkscape:connector-curvature="0"
   style="fill:none;stroke:#000000;stroke-width:71;stroke-linecap:round;stroke-linejoin:round" />
         <path
   d="m 9196,17914 -66,-88 -88,-110 -102,-66 -110,-45 -102,-13 -97,13 -88,45 -35,97 v 114 l 13,155 53,110 57,97 97,124 168,189 110,97 124,36 167,9 120,-9 123,-44 119,-58 137,-53 88,-44 75,-57 -256,-177 -141,-88 -145,-110 z"
   id="path88"
   inkscape:connector-curvature="0"
   style="fill:#ff9f9f;stroke:none" />
         <path
   d="m 9196,17914 -66,-88 -88,-110 -102,-66 -110,-45 -102,-13 -97,13 -88,45 -35,97 v 114 l 13,155 53,110 57,97 97,124 168,189 110,97 124,36 167,9 120,-9 123,-44 119,-58 137,-53 88,-44 75,-57 -256,-177 -141,-88 -145,-110 z"
   id="path90"
   inkscape:connector-curvature="0"
   style="fill:none;stroke:#000000;stroke-width:71;stroke-linecap:round;stroke-linejoin:round" />
        </g>
       </g>
      </g>
     </g>
    </g>
   </g>
  </g>
 </g>
</svg>