<?xml version="1.0" encoding="UTF-8" standalone="no"?>
<svg
   xmlns:ooo="http://xml.openoffice.org/svg/export"
   xmlns:dc="http://purl.org/dc/elements/1.1/"
   xmlns:cc="http://creativecommons.org/ns#"
   xmlns:rdf="http://www.w3.org/1999/02/22-rdf-syntax-ns#"
   xmlns:svg="http://www.w3.org/2000/svg"
   xmlns="http://www.w3.org/2000/svg"
   xmlns:sodipodi="http://sodipodi.sourceforge.net/DTD/sodipodi-0.dtd"
   xmlns:inkscape="http://www.inkscape.org/namespaces/inkscape"
   version="1.2"
   width="147.77mm"
   height="85.769997mm"
   viewBox="0 0 14777 8576.9997"
   preserveAspectRatio="xMidYMid"
   xml:space="preserve"
   id="svg216"
   sodipodi:docname="jetplane.svg"
   style="fill-rule:evenodd;stroke-width:28.22200012;stroke-linejoin:round"
   inkscape:version="0.92.5 (2060ec1f9f, 2020-04-08)"><metadata
   id="metadata220"><rdf:RDF><cc:Work
       rdf:about=""><dc:format>image/svg+xml</dc:format><dc:type
         rdf:resource="http://purl.org/dc/dcmitype/StillImage" /></cc:Work></rdf:RDF></metadata><sodipodi:namedview
   pagecolor="#ffffff"
   bordercolor="#666666"
   borderopacity="1"
   objecttolerance="10"
   gridtolerance="10"
   guidetolerance="10"
   inkscape:pageopacity="0"
   inkscape:pageshadow="2"
   inkscape:window-width="664"
   inkscape:window-height="487"
   id="namedview218"
   showgrid="false"
   inkscape:zoom="0.2102413"
   inkscape:cx="279.26929"
   inkscape:cy="162.06614"
   inkscape:window-x="0"
   inkscape:window-y="0"
   inkscape:window-maximized="0"
   inkscape:current-layer="svg216" />
 <defs
   class="ClipPathGroup"
   id="defs8">
  <clipPath
   id="presentation_clip_path"
   clipPathUnits="userSpaceOnUse">
   <rect
   x="0"
   y="0"
   width="21000"
   height="29700"
   id="rect2" />
  </clipPath>
  <clipPath
   id="presentation_clip_path_shrink"
   clipPathUnits="userSpaceOnUse">
   <rect
   x="21"
   y="29"
   width="20958"
   height="29641"
   id="rect5" />
  </clipPath>
 </defs>
 <defs
   class="TextShapeIndex"
   id="defs12">
  <g
   ooo:slide="id1"
   ooo:id-list="id3"
   id="g10" />
 </defs>
 <defs
   class="EmbeddedBulletChars"
   id="defs44">
  <g
   id="bullet-char-template-57356"
   transform="matrix(4.8828125e-4,0,0,-4.8828125e-4,0,0)">
   <path
   d="M 580,1141 1163,571 580,0 -4,571 Z"
   id="path14"
   inkscape:connector-curvature="0" />
  </g>
  <g
   id="bullet-char-template-57354"
   transform="matrix(4.8828125e-4,0,0,-4.8828125e-4,0,0)">
   <path
   d="M 8,1128 H 1137 V 0 H 8 Z"
   id="path17"
   inkscape:connector-curvature="0" />
  </g>
  <g
   id="bullet-char-template-10146"
   transform="matrix(4.8828125e-4,0,0,-4.8828125e-4,0,0)">
   <path
   d="M 174,0 602,739 174,1481 1456,739 Z M 1358,739 309,1346 659,739 Z"
   id="path20"
   inkscape:connector-curvature="0" />
  </g>
  <g
   id="bullet-char-template-10132"
   transform="matrix(4.8828125e-4,0,0,-4.8828125e-4,0,0)">
   <path
   d="M 2015,739 1276,0 H 717 l 543,543 H 174 v 393 h 1086 l -543,545 h 557 z"
   id="path23"
   inkscape:connector-curvature="0" />
  </g>
  <g
   id="bullet-char-template-10007"
   transform="matrix(4.8828125e-4,0,0,-4.8828125e-4,0,0)">
   <path
   d="m 0,-2 c -7,16 -16,29 -25,39 l 381,530 c -94,256 -141,385 -141,387 0,25 13,38 40,38 9,0 21,-2 34,-5 21,4 42,12 65,25 l 27,-13 111,-251 280,301 64,-25 24,25 c 21,-10 41,-24 62,-43 C 886,937 835,863 770,784 769,783 710,716 594,584 L 774,223 c 0,-27 -21,-55 -63,-84 l 16,-20 C 717,90 699,76 672,76 641,76 570,178 457,381 L 164,-76 c -22,-34 -53,-51 -92,-51 -42,0 -63,17 -64,51 -7,9 -10,24 -10,44 0,9 1,19 2,30 z"
   id="path26"
   inkscape:connector-curvature="0" />
  </g>
  <g
   id="bullet-char-template-10004"
   transform="matrix(4.8828125e-4,0,0,-4.8828125e-4,0,0)">
   <path
   d="M 285,-33 C 182,-33 111,30 74,156 52,228 41,333 41,471 c 0,78 14,145 41,201 34,71 87,106 158,106 53,0 88,-31 106,-94 l 23,-176 c 8,-64 28,-97 59,-98 l 735,706 c 11,11 33,17 66,17 42,0 63,-15 63,-46 V 965 c 0,-36 -10,-64 -30,-84 L 442,47 C 390,-6 338,-33 285,-33 Z"
   id="path29"
   inkscape:connector-curvature="0" />
  </g>
  <g
   id="bullet-char-template-9679"
   transform="matrix(4.8828125e-4,0,0,-4.8828125e-4,0,0)">
   <path
   d="M 813,0 C 632,0 489,54 383,161 276,268 223,411 223,592 c 0,181 53,324 160,431 106,107 249,161 430,161 179,0 323,-54 432,-161 108,-107 162,-251 162,-431 0,-180 -54,-324 -162,-431 C 1136,54 992,0 813,0 Z"
   id="path32"
   inkscape:connector-curvature="0" />
  </g>
  <g
   id="bullet-char-template-8226"
   transform="matrix(4.8828125e-4,0,0,-4.8828125e-4,0,0)">
   <path
   d="m 346,457 c -73,0 -137,26 -191,78 -54,51 -81,114 -81,188 0,73 27,136 81,188 54,52 118,78 191,78 73,0 134,-26 185,-79 51,-51 77,-114 77,-187 0,-75 -25,-137 -76,-188 -50,-52 -112,-78 -186,-78 z"
   id="path35"
   inkscape:connector-curvature="0" />
  </g>
  <g
   id="bullet-char-template-8211"
   transform="matrix(4.8828125e-4,0,0,-4.8828125e-4,0,0)">
   <path
   d="M -4,459 H 1135 V 606 H -4 Z"
   id="path38"
   inkscape:connector-curvature="0" />
  </g>
  <g
   id="bullet-char-template-61548"
   transform="matrix(4.8828125e-4,0,0,-4.8828125e-4,0,0)">
   <path
   d="m 173,740 c 0,163 58,303 173,419 116,115 255,173 419,173 163,0 302,-58 418,-173 116,-116 174,-256 174,-419 0,-163 -58,-303 -174,-418 C 1067,206 928,148 765,148 601,148 462,206 346,322 231,437 173,577 173,740 Z"
   id="path41"
   inkscape:connector-curvature="0" />
  </g>
 </defs>
 <g
   id="g49"
   transform="translate(-3111,-10561)">
  <g
   id="id2"
   class="Master_Slide">
   <g
   id="bg-id2"
   class="Background" />
   <g
   id="bo-id2"
   class="BackgroundObjects" />
  </g>
 </g>
 <g
   class="SlideGroup"
   id="g214"
   transform="translate(-3111,-10561)">
  <g
   id="g212">
   <g
   id="container-id1">
    <g
   id="id1"
   class="Slide"
   clip-path="url(#presentation_clip_path)">
     <g
   class="Page"
   id="g208">
      <g
   class="Graphic"
   id="g206">
       <g
   id="id3">
        <rect
   class="BoundingBox"
   x="3111"
   y="10561"
   width="14777"
   height="8577"
   id="rect51"
   style="fill:none;stroke:none" />
        <defs
   id="defs56">
         <clipPath
   id="clip_path_1"
   clipPathUnits="userSpaceOnUse">
          <path
   d="m 3111,10561 h 14776 v 8576 H 3111 Z"
   id="path53"
   inkscape:connector-curvature="0" />
         </clipPath>
        </defs>
        <g
   clip-path="url(#clip_path_1)"
   id="g64">
         <path
   d="m 11016,13817 -2131,-2616 -776,273 639,3009 1615,133 z"
   id="path58"
   inkscape:connector-curvature="0"
   style="fill:#c0c0c0;stroke:none" />
         <path
   d="m 10861,13883 -2117,-2638 516,-185 2589,2510 z"
   id="path60"
   inkscape:connector-curvature="0"
   style="fill:#a0a0a0;stroke:none" />
         <path
   d="m 8722,11196 2161,2661 -44,84 -2210,-2727 z"
   id="path62"
   inkscape:connector-curvature="0"
   style="fill:#808080;stroke:none" />
        </g>
        <defs
   id="defs69">
         <clipPath
   id="clip_path_2"
   clipPathUnits="userSpaceOnUse">
          <path
   d="m 9172,11448 h 475 v 264 h -475 z"
   id="path66"
   inkscape:connector-curvature="0" />
         </clipPath>
        </defs>
        <g
   clip-path="url(#clip_path_2)"
   id="g73">
         <path
   d="m 8731,11907 1323,-689"
   id="path71"
   inkscape:connector-curvature="0"
   style="fill:none;stroke:#404040;stroke-width:35;stroke-linecap:round;stroke-linejoin:miter" />
        </g>
        <g
   clip-path="url(#clip_path_1)"
   id="g75" />
        <defs
   id="defs80">
         <clipPath
   id="clip_path_3"
   clipPathUnits="userSpaceOnUse">
          <path
   d="m 9798,12167 h 572 v 330 h -572 z"
   id="path77"
   inkscape:connector-curvature="0" />
         </clipPath>
        </defs>
        <g
   clip-path="url(#clip_path_3)"
   id="g84">
         <path
   d="m 9260,12758 1614,-887"
   id="path82"
   inkscape:connector-curvature="0"
   style="fill:none;stroke:#404040;stroke-width:35;stroke-linecap:round;stroke-linejoin:miter" />
        </g>
        <g
   clip-path="url(#clip_path_1)"
   id="g86" />
        <defs
   id="defs91">
         <clipPath
   id="clip_path_4"
   clipPathUnits="userSpaceOnUse">
          <path
   d="m 10566,13045 h 674 v 383 h -674 z"
   id="path88"
   inkscape:connector-curvature="0" />
         </clipPath>
        </defs>
        <g
   clip-path="url(#clip_path_4)"
   id="g95">
         <path
   d="m 9926,13742 1919,-1046"
   id="path93"
   inkscape:connector-curvature="0"
   style="fill:none;stroke:#404040;stroke-width:35;stroke-linecap:round;stroke-linejoin:miter" />
        </g>
        <g
   clip-path="url(#clip_path_1)"
   id="g123">
         <path
   d="m 8069,11479 556,2815 106,-27 -583,-2841 z"
   id="path97"
   inkscape:connector-curvature="0"
   style="fill:#404040;stroke:none" />
         <path
   d="m 7721,11263 105,229 80,278 -71,-31 -75,-31 -62,-13 -70,-13 -49,-146 49,-79 35,-67 31,-61 z"
   id="path99"
   inkscape:connector-curvature="0"
   style="fill:#c0c0c0;stroke:none" />
         <path
   d="m 7526,11571 203,-114 1941,-724 22,31 -13,84 -13,44 -22,22 -1853,706 -212,62 -48,-18 -18,-44 z"
   id="path101"
   inkscape:connector-curvature="0"
   style="fill:#808080;stroke:none" />
         <path
   d="m 9247,11011 172,146 251,-93 5,-216 z"
   id="path103"
   inkscape:connector-curvature="0"
   style="fill:#800000;stroke:none" />
         <path
   d="m 9207,10910 463,-177 -145,-176 -305,105 z"
   id="path105"
   inkscape:connector-curvature="0"
   style="fill:#ff0000;stroke:none" />
         <path
   d="m 16022,14351 -203,132 -216,128 -437,243 -379,181 -454,163 -441,146 -565,163 -2779,309 -1985,401 -335,128 -424,133 -401,105 -410,106 -455,115 -502,106 -512,88 -552,84 -322,40 -211,35 -186,31 -189,18 -168,13 -150,4 -159,-13 -123,-13 -128,-31 -132,-35 -89,-45 62,-105 102,-106 123,-128 146,-124 145,-110 146,-102 150,-106 163,-92 322,-185 384,-203 353,-173 392,-189 353,-155 463,-220 494,-194 534,-177 454,-163 212,-97 234,-97 243,-80 269,-53 277,-35 252,-22 278,9 278,22 154,-71 177,-97 198,-79 199,-84 202,-71 243,-66 265,-70 291,-58 1738,-485 498,-1363 124,-36 123,36 119,97 62,167 185,1183 62,-53 247,-13 260,22 252,26 84,102 70,97 58,163 13,123 -9,102 119,-35 102,-14 114,62 97,133 31,105 18,173 z"
   id="path107"
   inkscape:connector-curvature="0"
   style="fill:#a0a0a0;stroke:none" />
         <path
   d="m 14368,18639 1103,-401 v 106 l -1103,406 z"
   id="path109"
   inkscape:connector-curvature="0"
   style="fill:#808080;stroke:none" />
         <path
   d="m 12193,16941 2179,1698 v 111 l -622,-287 -855,-468 -966,-591 -622,-401 -816,-539 745,-591 z"
   id="path111"
   inkscape:connector-curvature="0"
   style="fill:#606060;stroke:none" />
         <path
   d="m 8245,16539 -233,-48 -291,-44 -252,26 -225,22 -207,18 -194,-13 -181,-22 -199,-23 -194,-30 -211,-45 260,-145 242,-115 265,-115 313,-114 291,-84 300,-84 340,-88 353,-84 238,-159 199,-106 220,-132 238,-106 269,-97 367,-93 485,-75 423,-22 437,-9 507,9 402,53 423,49 388,84 344,569 485,728 552,803 578,745 406,419 -1033,349 -630,-472 -794,-463 -839,-481 -745,-512 -693,-269 -286,115 -208,39 -225,40 -251,26 -234,22 -234,18 -220,-9 -265,-22 -211,-22 z"
   id="path113"
   inkscape:connector-curvature="0"
   style="fill:#808080;stroke:none" />
         <path
   d="m 8320,16575 -233,-53 -291,-44 -247,30 -225,22 -208,18 -198,-13 -177,-22 -198,-22 -199,-36 -207,-44 260,-145 238,-111 269,-119 309,-110 291,-84 305,-84 335,-92 353,-84 242,-155 195,-105 225,-133 238,-106 269,-97 362,-92 489,-75 424,-22 436,-14 503,14 406,48 423,53 389,84 344,569 480,728 556,803 574,746 406,419 -1090,392 -754,-383 -799,-464 -820,-503 -697,-458 -587,-367 -273,49 -208,40 -220,39 -252,27 -233,22 -243,17 -212,-13 -264,-22 -212,-22 z"
   id="path115"
   inkscape:connector-curvature="0"
   style="fill:#c0c0c0;stroke:none" />
         <path
   d="m 10685,16491 234,-212 202,-163 234,-133 216,-101 243,-75 194,-27 207,-17 230,17"
   id="path117"
   inkscape:connector-curvature="0"
   style="fill:none;stroke:#606060;stroke-width:35;stroke-linecap:round;stroke-linejoin:round" />
         <path
   d="m 13128,14964 2343,3274 -490,181 -2774,-3269 z"
   id="path119"
   inkscape:connector-curvature="0"
   style="fill:#a0a0a0;stroke:none" />
         <path
   d="m 13128,14964 2343,3274 -490,181 -2774,-3269 z"
   id="path121"
   inkscape:connector-curvature="0"
   style="fill:none;stroke:#a0a0a0;stroke-width:35;stroke-linecap:round;stroke-linejoin:round" />
        </g>
        <defs
   id="defs128">
         <clipPath
   id="clip_path_5"
   clipPathUnits="userSpaceOnUse">
          <path
   d="m 13128,15472 h 727 v 1164 h -727 z"
   id="path125"
   inkscape:connector-curvature="0" />
         </clipPath>
        </defs>
        <g
   clip-path="url(#clip_path_5)"
   id="g132">
         <path
   d="m 12436,16460 2078,-847"
   id="path130"
   inkscape:connector-curvature="0"
   style="fill:none;stroke:#404040;stroke-width:35;stroke-linecap:round;stroke-linejoin:miter" />
        </g>
        <g
   clip-path="url(#clip_path_1)"
   id="g134" />
        <defs
   id="defs139">
         <clipPath
   id="clip_path_6"
   clipPathUnits="userSpaceOnUse">
          <path
   d="m 13878,16341 h 590 v 1195 h -590 z"
   id="path136"
   inkscape:connector-curvature="0" />
         </clipPath>
        </defs>
        <g
   clip-path="url(#clip_path_6)"
   id="g143">
         <path
   d="m 13323,17298 1667,-754"
   id="path141"
   inkscape:connector-curvature="0"
   style="fill:none;stroke:#404040;stroke-width:35;stroke-linecap:round;stroke-linejoin:miter" />
        </g>
        <g
   clip-path="url(#clip_path_1)"
   id="g145" />
        <defs
   id="defs150">
         <clipPath
   id="clip_path_7"
   clipPathUnits="userSpaceOnUse">
          <path
   d="m 14509,17086 h 506 v 1230 h -506 z"
   id="path147"
   inkscape:connector-curvature="0" />
         </clipPath>
        </defs>
        <g
   clip-path="url(#clip_path_7)"
   id="g154">
         <path
   d="m 14037,18009 1416,-649"
   id="path152"
   inkscape:connector-curvature="0"
   style="fill:none;stroke:#404040;stroke-width:35;stroke-linecap:round;stroke-linejoin:miter" />
        </g>
        <g
   clip-path="url(#clip_path_1)"
   id="g172">
         <path
   d="m 12185,15136 2805,3309 -75,53 -2730,-3234 z"
   id="path156"
   inkscape:connector-curvature="0"
   style="fill:#808080;stroke:none" />
         <path
   d="m 14055,18617 110,234 71,274 -67,-36 -74,-26 -62,-18 -71,-13 -48,-137 48,-75 35,-70 31,-58 z"
   id="path158"
   inkscape:connector-curvature="0"
   style="fill:#c0c0c0;stroke:none" />
         <path
   d="m 13861,18931 203,-111 1940,-728 23,31 -9,84 -18,44 -22,22 -1848,706 -216,53 -44,-13 -23,-40 z"
   id="path160"
   inkscape:connector-curvature="0"
   style="fill:#808080;stroke:none" />
         <path
   d="m 15577,18370 180,141 247,-88 v -212 z"
   id="path162"
   inkscape:connector-curvature="0"
   style="fill:#800000;stroke:none" />
         <path
   d="m 15541,18273 468,-172 -141,-194 -309,119 z"
   id="path164"
   inkscape:connector-curvature="0"
   style="fill:#ff0000;stroke:none" />
         <path
   d="m 4139,16261 53,97 48,115 44,128 36,141 17,124 18,137 9,141"
   id="path166"
   inkscape:connector-curvature="0"
   style="fill:none;stroke:#404040;stroke-width:35;stroke-linecap:round;stroke-linejoin:round" />
         <path
   d="m 15246,13936 44,93 48,145 49,128 31,168 -5,132 230,-30 13,-173 -31,-172 -31,-119 -53,-128 -92,-141 z"
   id="path168"
   inkscape:connector-curvature="0"
   style="fill:#404040;stroke:none" />
         <path
   d="m 15197,13954 44,93 58,145 53,128 31,168 -5,128 234,-40 13,-159 -26,-168 -40,-154 -57,-110 -89,-128 z"
   id="path170"
   inkscape:connector-curvature="0"
   style="fill:#808080;stroke:none" />
        </g>
        <defs
   id="defs177">
         <clipPath
   id="clip_path_8"
   clipPathUnits="userSpaceOnUse">
          <path
   d="m 14977,13058 h 634 v 1711 h -634 z"
   id="path174"
   inkscape:connector-curvature="0" />
         </clipPath>
        </defs>
        <g
   clip-path="url(#clip_path_8)"
   id="g181">
         <path
   d="m 16177,13499 -1800,795"
   id="path179"
   inkscape:connector-curvature="0"
   style="fill:none;stroke:#c0c0c0;stroke-width:35;stroke-linecap:round;stroke-linejoin:miter" />
        </g>
        <g
   clip-path="url(#clip_path_1)"
   id="g203">
         <path
   d="m 14452,15026 2973,1297 132,35 115,-30 106,-71 61,-75 40,-115 13,-141 -48,-146 -137,-105 -2073,-1112 -216,31 -282,75 -278,114 -199,102 z"
   id="path183"
   inkscape:connector-curvature="0"
   style="fill:#c0c0c0;stroke:none" />
         <path
   d="m 11488,13777 736,-1191 812,-1363 62,-97 935,-234 -300,2360 -216,111 -216,101 -243,88 -291,67 -300,48 -313,44 -336,35 z"
   id="path185"
   inkscape:connector-curvature="0"
   style="fill:#808080;stroke:none" />
         <path
   d="m 11810,13645 1411,-2294 565,-128 -313,2065 -181,97 -225,70 -287,53 -260,44 -230,36 -251,31 z"
   id="path187"
   inkscape:connector-curvature="0"
   style="fill:#a0a0a0;stroke:none" />
         <path
   d="m 13067,13649 159,-189 101,-111 150,-176 141,-137 177,-159 127,-84 98,-44 75,-26 26,4 13,62 13,62 31,48 44,53 71,67 57,39 84,62 88,66 -39,66 -49,44 -84,40 -132,44 z"
   id="path189"
   inkscape:connector-curvature="0"
   style="fill:#c0c0c0;stroke:none" />
         <path
   d="m 12476,14845 405,80 146,39 243,-39 432,-102 560,-185 366,-155 530,-609 357,-432 379,-388 -31,-71 -573,203 -565,199 -375,234 -441,300 -688,480 z"
   id="path191"
   inkscape:connector-curvature="0"
   style="fill:#808080;stroke:none" />
         <path
   d="m 5731,15820 132,31 146,35 185,22 h 181 l 230,-17 194,-22 198,-49 199,-53 185,-57 163,-58 150,-70 150,-84 141,-84 146,-88 128,-93 145,-119 133,-128 83,-114 75,-128 27,-111 -132,-57 -137,-31 -177,-40 -145,-13 -441,93 -159,9 -146,17 -172,40 -176,57 -159,53 -163,80 -146,75 -123,84 -128,92 -331,208 -141,114 -102,124 -70,123 -53,119 z"
   id="path193"
   inkscape:connector-curvature="0"
   style="fill:#808080;stroke:none" />
         <path
   d="m 5731,15820 132,31 146,35 185,22 h 181 l 230,-17 194,-22 198,-49 199,-53 185,-57 163,-58 150,-70 150,-84 141,-84 146,-88 128,-93 145,-119 133,-128 83,-114 75,-128 27,-111 -132,-57 -137,-31 -177,-40 -145,-13 -441,93 -159,9 -146,17 -172,40 -176,57 -159,53 -163,80 -146,75 -123,84 -128,92 -331,208 -141,114 -102,124 -70,123 -53,119 z"
   id="path195"
   inkscape:connector-curvature="0"
   style="fill:none;stroke:#808080;stroke-width:35;stroke-linecap:round;stroke-linejoin:round" />
         <path
   d="m 5700,15736 133,31 145,36 185,22 h 181 l 230,-18 194,-22 211,-49 186,-48 185,-58 163,-61 150,-71 150,-84 141,-79 146,-93 128,-92 145,-120 133,-128 84,-110 61,-119 -136,-57 -181,-62 -172,-31 -172,-18 -155,-13 -176,9 -159,9 -146,17 -172,40 -176,57 -159,53 -163,80 -146,79 -123,80 -128,92 -128,124 -119,106 -106,123 -84,128 -75,124 z"
   id="path197"
   inkscape:connector-curvature="0"
   style="fill:#e0e0ff;stroke:none" />
         <path
   d="m 5700,15736 133,31 145,36 185,22 h 181 l 230,-18 194,-22 211,-49 186,-48 185,-58 163,-61 150,-71 150,-84 141,-79 146,-93 128,-92 145,-120 133,-128 84,-110 61,-119 -136,-57 -181,-62 -172,-31 -172,-18 -155,-13 -176,9 -159,9 -146,17 -172,40 -176,57 -159,53 -163,80 -146,79 -123,80 -128,92 -128,124 -119,106 -106,123 -84,128 -75,124 z"
   id="path199"
   inkscape:connector-curvature="0"
   style="fill:none;stroke:#e0e0ff;stroke-width:35;stroke-linecap:round;stroke-linejoin:round" />
         <path
   d="m 5846,15617 88,49 31,-53 53,-80 66,-83 62,-58 66,-53 66,-53 -48,14 -89,39 -66,31 -75,53 -75,71 -48,57 z"
   id="path201"
   inkscape:connector-curvature="0"
   style="fill:#ffffff;stroke:none" />
        </g>
       </g>
      </g>
     </g>
    </g>
   </g>
  </g>
 </g>
</svg>