<?xml version="1.0" encoding="UTF-8" standalone="no"?>
<svg
   xmlns:ooo="http://xml.openoffice.org/svg/export"
   xmlns:dc="http://purl.org/dc/elements/1.1/"
   xmlns:cc="http://creativecommons.org/ns#"
   xmlns:rdf="http://www.w3.org/1999/02/22-rdf-syntax-ns#"
   xmlns:svg="http://www.w3.org/2000/svg"
   xmlns="http://www.w3.org/2000/svg"
   xmlns:sodipodi="http://sodipodi.sourceforge.net/DTD/sodipodi-0.dtd"
   xmlns:inkscape="http://www.inkscape.org/namespaces/inkscape"
   version="1.2"
   width="103.1mm"
   height="82.370003mm"
   viewBox="0 0 10310 8237.0003"
   preserveAspectRatio="xMidYMid"
   xml:space="preserve"
   id="svg84"
   sodipodi:docname="jigsaw.svg"
   style="fill-rule:evenodd;stroke-width:28.22200012;stroke-linejoin:round"
   inkscape:version="0.92.5 (2060ec1f9f, 2020-04-08)"><metadata
   id="metadata88"><rdf:RDF><cc:Work
       rdf:about=""><dc:format>image/svg+xml</dc:format><dc:type
         rdf:resource="http://purl.org/dc/dcmitype/StillImage" /></cc:Work></rdf:RDF></metadata><sodipodi:namedview
   pagecolor="#ffffff"
   bordercolor="#666666"
   borderopacity="1"
   objecttolerance="10"
   gridtolerance="10"
   guidetolerance="10"
   inkscape:pageopacity="0"
   inkscape:pageshadow="2"
   inkscape:window-width="664"
   inkscape:window-height="487"
   id="namedview86"
   showgrid="false"
   inkscape:zoom="0.2102413"
   inkscape:cx="194.83465"
   inkscape:cy="155.64094"
   inkscape:window-x="0"
   inkscape:window-y="0"
   inkscape:window-maximized="0"
   inkscape:current-layer="svg84" />
 <defs
   class="ClipPathGroup"
   id="defs8">
  <clipPath
   id="presentation_clip_path"
   clipPathUnits="userSpaceOnUse">
   <rect
   x="0"
   y="0"
   width="21000"
   height="29700"
   id="rect2" />
  </clipPath>
  <clipPath
   id="presentation_clip_path_shrink"
   clipPathUnits="userSpaceOnUse">
   <rect
   x="21"
   y="29"
   width="20958"
   height="29641"
   id="rect5" />
  </clipPath>
 </defs>
 <defs
   class="TextShapeIndex"
   id="defs12">
  <g
   ooo:slide="id1"
   ooo:id-list="id3"
   id="g10" />
 </defs>
 <defs
   class="EmbeddedBulletChars"
   id="defs44">
  <g
   id="bullet-char-template-57356"
   transform="matrix(4.8828125e-4,0,0,-4.8828125e-4,0,0)">
   <path
   d="M 580,1141 1163,571 580,0 -4,571 Z"
   id="path14"
   inkscape:connector-curvature="0" />
  </g>
  <g
   id="bullet-char-template-57354"
   transform="matrix(4.8828125e-4,0,0,-4.8828125e-4,0,0)">
   <path
   d="M 8,1128 H 1137 V 0 H 8 Z"
   id="path17"
   inkscape:connector-curvature="0" />
  </g>
  <g
   id="bullet-char-template-10146"
   transform="matrix(4.8828125e-4,0,0,-4.8828125e-4,0,0)">
   <path
   d="M 174,0 602,739 174,1481 1456,739 Z M 1358,739 309,1346 659,739 Z"
   id="path20"
   inkscape:connector-curvature="0" />
  </g>
  <g
   id="bullet-char-template-10132"
   transform="matrix(4.8828125e-4,0,0,-4.8828125e-4,0,0)">
   <path
   d="M 2015,739 1276,0 H 717 l 543,543 H 174 v 393 h 1086 l -543,545 h 557 z"
   id="path23"
   inkscape:connector-curvature="0" />
  </g>
  <g
   id="bullet-char-template-10007"
   transform="matrix(4.8828125e-4,0,0,-4.8828125e-4,0,0)">
   <path
   d="m 0,-2 c -7,16 -16,29 -25,39 l 381,530 c -94,256 -141,385 -141,387 0,25 13,38 40,38 9,0 21,-2 34,-5 21,4 42,12 65,25 l 27,-13 111,-251 280,301 64,-25 24,25 c 21,-10 41,-24 62,-43 C 886,937 835,863 770,784 769,783 710,716 594,584 L 774,223 c 0,-27 -21,-55 -63,-84 l 16,-20 C 717,90 699,76 672,76 641,76 570,178 457,381 L 164,-76 c -22,-34 -53,-51 -92,-51 -42,0 -63,17 -64,51 -7,9 -10,24 -10,44 0,9 1,19 2,30 z"
   id="path26"
   inkscape:connector-curvature="0" />
  </g>
  <g
   id="bullet-char-template-10004"
   transform="matrix(4.8828125e-4,0,0,-4.8828125e-4,0,0)">
   <path
   d="M 285,-33 C 182,-33 111,30 74,156 52,228 41,333 41,471 c 0,78 14,145 41,201 34,71 87,106 158,106 53,0 88,-31 106,-94 l 23,-176 c 8,-64 28,-97 59,-98 l 735,706 c 11,11 33,17 66,17 42,0 63,-15 63,-46 V 965 c 0,-36 -10,-64 -30,-84 L 442,47 C 390,-6 338,-33 285,-33 Z"
   id="path29"
   inkscape:connector-curvature="0" />
  </g>
  <g
   id="bullet-char-template-9679"
   transform="matrix(4.8828125e-4,0,0,-4.8828125e-4,0,0)">
   <path
   d="M 813,0 C 632,0 489,54 383,161 276,268 223,411 223,592 c 0,181 53,324 160,431 106,107 249,161 430,161 179,0 323,-54 432,-161 108,-107 162,-251 162,-431 0,-180 -54,-324 -162,-431 C 1136,54 992,0 813,0 Z"
   id="path32"
   inkscape:connector-curvature="0" />
  </g>
  <g
   id="bullet-char-template-8226"
   transform="matrix(4.8828125e-4,0,0,-4.8828125e-4,0,0)">
   <path
   d="m 346,457 c -73,0 -137,26 -191,78 -54,51 -81,114 -81,188 0,73 27,136 81,188 54,52 118,78 191,78 73,0 134,-26 185,-79 51,-51 77,-114 77,-187 0,-75 -25,-137 -76,-188 -50,-52 -112,-78 -186,-78 z"
   id="path35"
   inkscape:connector-curvature="0" />
  </g>
  <g
   id="bullet-char-template-8211"
   transform="matrix(4.8828125e-4,0,0,-4.8828125e-4,0,0)">
   <path
   d="M -4,459 H 1135 V 606 H -4 Z"
   id="path38"
   inkscape:connector-curvature="0" />
  </g>
  <g
   id="bullet-char-template-61548"
   transform="matrix(4.8828125e-4,0,0,-4.8828125e-4,0,0)">
   <path
   d="m 173,740 c 0,163 58,303 173,419 116,115 255,173 419,173 163,0 302,-58 418,-173 116,-116 174,-256 174,-419 0,-163 -58,-303 -174,-418 C 1067,206 928,148 765,148 601,148 462,206 346,322 231,437 173,577 173,740 Z"
   id="path41"
   inkscape:connector-curvature="0" />
  </g>
 </defs>
 <g
   id="g49"
   transform="translate(-5345,-10731)">
  <g
   id="id2"
   class="Master_Slide">
   <g
   id="bg-id2"
   class="Background" />
   <g
   id="bo-id2"
   class="BackgroundObjects" />
  </g>
 </g>
 <g
   class="SlideGroup"
   id="g82"
   transform="translate(-5345,-10731)">
  <g
   id="g80">
   <g
   id="container-id1">
    <g
   id="id1"
   class="Slide"
   clip-path="url(#presentation_clip_path)">
     <g
   class="Page"
   id="g76">
      <g
   class="Graphic"
   id="g74">
       <g
   id="id3">
        <rect
   class="BoundingBox"
   x="5345"
   y="10731"
   width="10310"
   height="8237"
   id="rect51"
   style="fill:none;stroke:none" />
        <path
   d="m 10485,11812 v -1032 h 5082 l 4,3953 h -441 l -18,35 -13,48 v 40 l 5,49 17,61 18,80 17,53 14,66 9,62 v 61 l -9,58 -14,62 -22,57 -35,44 -48,53 -49,40 -44,39 -53,31 -62,22 -75,22 -70,9 -62,5 h -66 l -62,-5 -49,-9 -57,-17 -57,-18 -44,-26 -49,-36 -44,-44 -44,-48 -40,-49 -31,-53 -22,-66 -17,-75 v -71 l 17,-70 18,-71 18,-70 22,-80 8,-61 v -36 l -4,-31 -13,-35 h -847 l 13,-150 -4,-84 -9,-79 -9,-75 -13,-49 -22,-44 -27,-40 -44,-35 -49,-31 -48,-17 -44,-9 -75,-5 h -88 l -84,9 -93,5 -70,8 -93,5 -75,-5 -66,-8 -102,-22 -66,-31 -62,-44 -39,-49 -36,-53 -26,-66 -5,-71 v -88 l 5,-66 -5,-66 -17,-75 -13,-44 -22,-45 -27,-30 -26,-27 -58,-26 -66,-31 -75,-22 -88,-22 -88,-18 -93,-13 -66,-22 -71,-22 -70,-27 -49,-40 -57,-48 -40,-44 -35,-53 -27,-62 -9,-66 v -62 l 14,-57 22,-84 22,-84 9,-75 17,-75 9,-75 -9,-79 -17,-71 -27,-70 -35,-67 -40,-53 -22,-30 -40,-40 -39,-35 -40,-27 -53,-26 -53,-18 -66,-18 -75,-4 h -66 z"
   id="path53"
   inkscape:connector-curvature="0"
   style="fill:#ff00ff;stroke:none" />
        <path
   d="m 10485,11812 v -1032 h 5082 l 4,3953 h -441 l -18,35 -13,48 v 40 l 5,49 17,61 18,80 17,53 14,66 9,62 v 61 l -9,58 -14,62 -22,57 -35,44 -48,53 -49,40 -44,39 -53,31 -62,22 -75,22 -70,9 -62,5 h -66 l -62,-5 -49,-9 -57,-17 -57,-18 -44,-26 -49,-36 -44,-44 -44,-48 -40,-49 -31,-53 -22,-66 -17,-75 v -71 l 17,-70 18,-71 18,-70 22,-80 8,-61 v -36 l -4,-31 -13,-35 h -847 l 13,-150 -4,-84 -9,-79 -9,-75 -13,-49 -22,-44 -27,-40 -44,-35 -49,-31 -48,-17 -44,-9 -75,-5 h -88 l -84,9 -93,5 -70,8 -93,5 -75,-5 -66,-8 -102,-22 -66,-31 -62,-44 -39,-49 -36,-53 -26,-66 -5,-71 v -88 l 5,-66 -5,-66 -17,-75 -13,-44 -22,-45 -27,-30 -26,-27 -58,-26 -66,-31 -75,-22 -88,-22 -88,-18 -93,-13 -66,-22 -71,-22 -70,-27 -49,-40 -57,-48 -40,-44 -35,-53 -27,-62 -9,-66 v -62 l 14,-57 22,-84 22,-84 9,-75 17,-75 9,-75 -9,-79 -17,-71 -27,-70 -35,-67 -40,-53 -22,-30 -40,-40 -39,-35 -40,-27 -53,-26 -53,-18 -66,-18 -75,-4 h -66 z"
   id="path55"
   inkscape:connector-curvature="0"
   style="fill:none;stroke:#000000;stroke-width:35;stroke-linecap:round;stroke-linejoin:round" />
        <path
   d="m 10463,18006 v 869 h 5108 l -4,-4147 h -455 l -22,80 v 57 l 14,79 26,84 26,102 14,79 v 71 l -9,79 -22,75 -49,71 -57,61 -62,58 -70,39 -84,31 -75,18 -106,4 -124,-8 -79,-14 -71,-17 -66,-40 -84,-66 -53,-62 -48,-66 -27,-71 -17,-66 v -75 l 9,-75 17,-70 18,-67 22,-70 13,-71 v -62 l -17,-70 h -856 l 9,145 -9,102 -5,84 v 75 l -9,79 -17,80 -22,52 -31,49 -44,40 -49,31 -57,17 -62,9 -57,4 h -75 l -71,-8 -57,-5 -75,-4 -80,-9 h -88 l -75,9 -75,9 -79,22 -58,31 -61,39 -40,53 -40,58 -17,57 -9,66 9,66 4,71 -4,75 -14,57 -17,62 -27,57 -35,40 -57,40 -71,26 -71,22 -66,18 -70,18 -93,17 -71,14 -75,22 -61,22 -62,26 -49,35 -44,36 -48,57 -31,53 -27,62 -13,75 9,70 9,71 22,84 22,92 18,84 8,66 v 62 l -8,84 -22,71 -18,61 -27,58 -35,75 -48,84 -53,61 -53,49 -49,44 -53,35 -53,22 -75,18 -84,13 z"
   id="path57"
   inkscape:connector-curvature="0"
   style="fill:#0000ff;stroke:none" />
        <path
   d="m 10463,18006 v 869 h 5108 l -4,-4147 h -455 l -22,80 v 57 l 14,79 26,84 26,102 14,79 v 71 l -9,79 -22,75 -49,71 -57,61 -62,58 -70,39 -84,31 -75,18 -106,4 -124,-8 -79,-14 -71,-17 -66,-40 -84,-66 -53,-62 -48,-66 -27,-71 -17,-66 v -75 l 9,-75 17,-70 18,-67 22,-70 13,-71 v -62 l -17,-70 h -856 l 9,145 -9,102 -5,84 v 75 l -9,79 -17,80 -22,52 -31,49 -44,40 -49,31 -57,17 -62,9 -57,4 h -75 l -71,-8 -57,-5 -75,-4 -80,-9 h -88 l -75,9 -75,9 -79,22 -58,31 -61,39 -40,53 -40,58 -17,57 -9,66 9,66 4,71 -4,75 -14,57 -17,62 -27,57 -35,40 -57,40 -71,26 -71,22 -66,18 -70,18 -93,17 -71,14 -75,22 -61,22 -62,26 -49,35 -44,36 -48,57 -31,53 -27,62 -13,75 9,70 9,71 22,84 22,92 18,84 8,66 v 62 l -8,84 -22,71 -18,61 -27,58 -35,75 -48,84 -53,61 -53,49 -49,44 -53,35 -53,22 -75,18 -84,13 z"
   id="path59"
   inkscape:connector-curvature="0"
   style="fill:none;stroke:#000000;stroke-width:35;stroke-linecap:round;stroke-linejoin:round" />
        <path
   d="m 10463,18002 v 873 H 5380 l -4,-3953 h 441 l 18,-35 13,-49 v -39 l -4,-49 -18,-62 -18,-79 -17,-53 -18,-66 -4,-62 v -62 l 4,-57 18,-62 22,-57 35,-44 48,-53 45,-40 48,-40 53,-30 62,-27 70,-18 75,-8 62,-5 h 66 l 62,5 49,8 57,18 57,18 44,26 49,36 44,44 44,48 40,49 31,53 22,66 17,75 v 70 l -17,71 -18,71 -17,70 -23,80 -13,61 v 36 l 9,31 13,35 h 843 l -18,163 -4,97 4,80 5,75 9,79 13,79 26,53 31,44 40,40 53,31 57,22 57,9 62,4 h 71 l 75,-9 53,-4 79,-9 80,-9 h 88 l 75,9 75,13 75,27 62,26 61,45 40,48 35,57 22,62 9,62 -9,71 -4,70 4,71 9,62 22,57 27,57 35,40 53,40 71,26 75,22 61,18 75,17 89,18 75,13 75,22 61,22 62,27 49,35 39,36 53,57 31,53 27,57 13,80 -9,75 -13,66 -18,84 -22,92 -22,84 -9,71 v 57 l 13,84 18,70 27,53 30,53 45,58 48,57 57,49 67,39 61,22 67,18 66,9 79,4 z"
   id="path61"
   inkscape:connector-curvature="0"
   style="fill:#00ff00;stroke:none" />
        <path
   d="m 10463,18002 v 873 H 5380 l -4,-3953 h 441 l 18,-35 13,-49 v -39 l -4,-49 -18,-62 -18,-79 -17,-53 -18,-66 -4,-62 v -62 l 4,-57 18,-62 22,-57 35,-44 48,-53 45,-40 48,-40 53,-30 62,-27 70,-18 75,-8 62,-5 h 66 l 62,5 49,8 57,18 57,18 44,26 49,36 44,44 44,48 40,49 31,53 22,66 17,75 v 70 l -17,71 -18,71 -17,70 -23,80 -13,61 v 36 l 9,31 13,35 h 843 l -18,163 -4,97 4,80 5,75 9,79 13,79 26,53 31,44 40,40 53,31 57,22 57,9 62,4 h 71 l 75,-9 53,-4 79,-9 80,-9 h 88 l 75,9 75,13 75,27 62,26 61,45 40,48 35,57 22,62 9,62 -9,71 -4,70 4,71 9,62 22,57 27,57 35,40 53,40 71,26 75,22 61,18 75,17 89,18 75,13 75,22 61,22 62,27 49,35 39,36 53,57 31,53 27,57 13,80 -9,75 -13,66 -18,84 -22,92 -22,84 -9,71 v 57 l 13,84 18,70 27,53 30,53 45,58 48,57 57,49 67,39 61,22 67,18 66,9 79,4 z"
   id="path63"
   inkscape:connector-curvature="0"
   style="fill:none;stroke:#000000;stroke-width:35;stroke-linecap:round;stroke-linejoin:round" />
        <path
   d="M 10485,11812 V 10780 H 5376 l 4,4147 h 455 l 22,-80 v -57 l -13,-79 -27,-84 -26,-102 -14,-79 -4,-71 13,-79 22,-75 49,-75 57,-58 62,-57 70,-40 84,-35 75,-13 106,-5 124,9 79,9 71,22 66,40 84,66 53,62 48,66 27,71 17,66 v 75 l -9,75 -17,70 -18,67 -22,70 -13,71 v 61 l 17,71 h 856 l -8,-146 8,-105 v -80 l 5,-75 9,-79 17,-80 22,-53 31,-48 44,-40 49,-31 57,-17 62,-9 57,-5 h 75 l 71,5 57,9 75,4 80,9 h 88 l 75,-9 75,-13 79,-18 58,-31 61,-39 40,-53 40,-58 17,-57 9,-66 -9,-66 -4,-71 4,-75 14,-57 17,-62 27,-58 35,-39 57,-40 71,-26 71,-22 66,-18 70,-18 93,-17 71,-14 75,-22 61,-22 62,-26 49,-36 44,-35 48,-57 31,-53 27,-62 13,-79 -9,-66 -9,-71 -22,-84 -22,-93 -22,-83 -4,-67 v -61 l 8,-84 23,-71 22,-53 30,-53 45,-57 48,-57 62,-49 66,-40 62,-22 62,-17 66,-9 h 79 z"
   id="path65"
   inkscape:connector-curvature="0"
   style="fill:#008080;stroke:none" />
        <path
   d="M 10485,11812 V 10780 H 5376 l 4,4147 h 455 l 22,-80 v -57 l -13,-79 -27,-84 -26,-102 -14,-79 -4,-71 13,-79 22,-75 49,-75 57,-58 62,-57 70,-40 84,-35 75,-13 106,-5 124,9 79,9 71,22 66,40 84,66 53,62 48,66 27,71 17,66 v 75 l -9,75 -17,70 -18,67 -22,70 -13,71 v 61 l 17,71 h 856 l -8,-146 8,-105 v -80 l 5,-75 9,-79 17,-80 22,-53 31,-48 44,-40 49,-31 57,-17 62,-9 57,-5 h 75 l 71,5 57,9 75,4 80,9 h 88 l 75,-9 75,-13 79,-18 58,-31 61,-39 40,-53 40,-58 17,-57 9,-66 -9,-66 -4,-71 4,-75 14,-57 17,-62 27,-58 35,-39 57,-40 71,-26 71,-22 66,-18 70,-18 93,-17 71,-14 75,-22 61,-22 62,-26 49,-36 44,-35 48,-57 31,-53 27,-62 13,-79 -9,-66 -9,-71 -22,-84 -22,-93 -22,-83 -4,-67 v -61 l 8,-84 23,-71 22,-53 30,-53 45,-57 48,-57 62,-49 66,-40 62,-22 62,-17 66,-9 h 79 z"
   id="path67"
   inkscape:connector-curvature="0"
   style="fill:none;stroke:#000000;stroke-width:35;stroke-linecap:round;stroke-linejoin:round" />
        <path
   d="m 9788,13100 57,-70 40,-67 22,-75 v -97 l -27,-110 -22,-93 -31,-114 -13,-124 13,-75 22,-92 44,-98 62,-92 80,-75 70,-58 97,-35 115,-17 123,-5 h 168 l 132,13 75,27 58,35 62,40 61,62 58,79 44,71 22,61 17,106 v 93 l -13,93 -17,70 -22,115 -31,119 -14,75 22,75 27,53 48,70 71,58 66,48 97,40 97,27 93,22 97,13 102,26 79,27 62,31 48,35 36,40 26,48 22,58 9,52 9,49 v 66 l -9,75 v 58 l 13,70 31,62 35,53 44,40 58,44 57,26 88,18 75,9 71,4 79,-4 97,-9 75,-5 75,-8 71,-5 84,5 44,8 53,14 48,26 53,40 40,44 31,66 13,57 9,71 9,128 -5,150 5,159 -13,185 -14,128 -13,102 -22,57 -35,53 -40,35 -53,31 -62,18 -53,13 -110,4 -97,-4 -79,-13 -71,-5 -79,-4 h -71 l -62,4 -66,5 -79,22 -44,17 -40,18 -53,35 -35,44 -27,40 -26,49 -14,48 -4,53 4,58 v 97 l -4,101 -26,75 -27,62 -40,44 -57,35 -57,31 -66,18 -84,17 -71,22 -84,14 -70,13 -80,18 -61,30 -71,31 -66,40 -49,53 -44,62 -35,75 -9,66 4,75 14,71 22,75 17,83 14,75 17,97 v 97 l -22,98 -22,75 -26,75 -36,70 -48,88 -53,58 -44,39 -58,49 -61,44 -58,22 -53,13 -88,9 -101,5 -124,-5 h -57 l -75,-13 -80,-22 -70,-40 -44,-35 -49,-49 -40,-44 -39,-57 -31,-57 -27,-71 -13,-75 -4,-57 v -80 l 4,-66 22,-71 18,-83 22,-80 13,-70 5,-67 -5,-53 -13,-52 -35,-67 -36,-44 -44,-48 -48,-36 -49,-35 -70,-26 -62,-18 -80,-18 -70,-8 -66,-18 -80,-18 -66,-26 -79,-22 -62,-27 -49,-39 -39,-53 -27,-67 -22,-88 -4,-70 4,-80 9,-62 -9,-75 -22,-57 -40,-62 -39,-39 -49,-40 -66,-27 -75,-26 -79,-9 -67,-9 h -75 l -66,9 -66,4 -66,9 -66,9 h -111 l -70,-4 -75,-18 -53,-26 -57,-45 -40,-48 -27,-53 -31,-101 -4,-106 -4,-106 -5,-133 9,-114 4,-124 5,-110 9,-115 13,-88 13,-97 18,-75 26,-49 40,-48 40,-31 53,-35 48,-9 62,-13 79,-5 71,5 97,13 84,4 70,5 97,4 102,-13 84,-18 79,-31 53,-31 53,-48 40,-62 26,-62 9,-66 -4,-48 -5,-93 5,-93 17,-70 22,-66 31,-49 62,-49 66,-35 84,-26 84,-22 70,-18 89,-13 83,-18 97,-26 93,-40 z"
   id="path69"
   inkscape:connector-curvature="0"
   style="fill:#ffff00;stroke:none" />
        <path
   d="m 9788,13100 57,-70 40,-67 22,-75 v -97 l -27,-110 -22,-93 -31,-114 -13,-124 13,-75 22,-92 44,-98 62,-92 80,-75 70,-58 97,-35 115,-17 123,-5 h 168 l 132,13 75,27 58,35 62,40 61,62 58,79 44,71 22,61 17,106 v 93 l -13,93 -17,70 -22,115 -31,119 -14,75 22,75 27,53 48,70 71,58 66,48 97,40 97,27 93,22 97,13 102,26 79,27 62,31 48,35 36,40 26,48 22,58 9,52 9,49 v 66 l -9,75 v 58 l 13,70 31,62 35,53 44,40 58,44 57,26 88,18 75,9 71,4 79,-4 97,-9 75,-5 75,-8 71,-5 84,5 44,8 53,14 48,26 53,40 40,44 31,66 13,57 9,71 9,128 -5,150 5,159 -13,185 -14,128 -13,102 -22,57 -35,53 -40,35 -53,31 -62,18 -53,13 -110,4 -97,-4 -79,-13 -71,-5 -79,-4 h -71 l -62,4 -66,5 -79,22 -44,17 -40,18 -53,35 -35,44 -27,40 -26,49 -14,48 -4,53 4,58 v 97 l -4,101 -26,75 -27,62 -40,44 -57,35 -57,31 -66,18 -84,17 -71,22 -84,14 -70,13 -80,18 -61,30 -71,31 -66,40 -49,53 -44,62 -35,75 -9,66 4,75 14,71 22,75 17,83 14,75 17,97 v 97 l -22,98 -22,75 -26,75 -36,70 -48,88 -53,58 -44,39 -58,49 -61,44 -58,22 -53,13 -88,9 -101,5 -124,-5 h -57 l -75,-13 -80,-22 -70,-40 -44,-35 -49,-49 -40,-44 -39,-57 -31,-57 -27,-71 -13,-75 -4,-57 v -80 l 4,-66 22,-71 18,-83 22,-80 13,-70 5,-67 -5,-53 -13,-52 -35,-67 -36,-44 -44,-48 -48,-36 -49,-35 -70,-26 -62,-18 -80,-18 -70,-8 -66,-18 -80,-18 -66,-26 -79,-22 -62,-27 -49,-39 -39,-53 -27,-67 -22,-88 -4,-70 4,-80 9,-62 -9,-75 -22,-57 -40,-62 -39,-39 -49,-40 -66,-27 -75,-26 -79,-9 -67,-9 h -75 l -66,9 -66,4 -66,9 -66,9 h -111 l -70,-4 -75,-18 -53,-26 -57,-45 -40,-48 -27,-53 -31,-101 -4,-106 -4,-106 -5,-133 9,-114 4,-124 5,-110 9,-115 13,-88 13,-97 18,-75 26,-49 40,-48 40,-31 53,-35 48,-9 62,-13 79,-5 71,5 97,13 84,4 70,5 97,4 102,-13 84,-18 79,-31 53,-31 53,-48 40,-62 26,-62 9,-66 -4,-48 -5,-93 5,-93 17,-70 22,-66 31,-49 62,-49 66,-35 84,-26 84,-22 70,-18 89,-13 83,-18 97,-26 93,-40 z"
   id="path71"
   inkscape:connector-curvature="0"
   style="fill:none;stroke:#000000;stroke-width:35;stroke-linecap:round;stroke-linejoin:round" />
       </g>
      </g>
     </g>
    </g>
   </g>
  </g>
 </g>
</svg>