<?xml version="1.0" encoding="UTF-8" standalone="no"?>
<svg
   xmlns:ooo="http://xml.openoffice.org/svg/export"
   xmlns:dc="http://purl.org/dc/elements/1.1/"
   xmlns:cc="http://creativecommons.org/ns#"
   xmlns:rdf="http://www.w3.org/1999/02/22-rdf-syntax-ns#"
   xmlns:svg="http://www.w3.org/2000/svg"
   xmlns="http://www.w3.org/2000/svg"
   xmlns:sodipodi="http://sodipodi.sourceforge.net/DTD/sodipodi-0.dtd"
   xmlns:inkscape="http://www.inkscape.org/namespaces/inkscape"
   version="1.2"
   width="158.78999mm"
   height="88.720001mm"
   viewBox="0 0 15878.999 8872.0001"
   preserveAspectRatio="xMidYMid"
   xml:space="preserve"
   id="svg221"
   sodipodi:docname="lock.svg"
   style="fill-rule:evenodd;stroke-width:28.22200012;stroke-linejoin:round"
   inkscape:version="0.92.5 (2060ec1f9f, 2020-04-08)"><metadata
   id="metadata225"><rdf:RDF><cc:Work
       rdf:about=""><dc:format>image/svg+xml</dc:format><dc:type
         rdf:resource="http://purl.org/dc/dcmitype/StillImage" /></cc:Work></rdf:RDF></metadata><sodipodi:namedview
   pagecolor="#ffffff"
   bordercolor="#666666"
   borderopacity="1"
   objecttolerance="10"
   gridtolerance="10"
   guidetolerance="10"
   inkscape:pageopacity="0"
   inkscape:pageshadow="2"
   inkscape:window-width="664"
   inkscape:window-height="487"
   id="namedview223"
   showgrid="false"
   inkscape:zoom="0.2102413"
   inkscape:cx="300.09449"
   inkscape:cy="167.65984"
   inkscape:window-x="0"
   inkscape:window-y="0"
   inkscape:window-maximized="0"
   inkscape:current-layer="svg221" />
 <defs
   class="ClipPathGroup"
   id="defs8">
  <clipPath
   id="presentation_clip_path"
   clipPathUnits="userSpaceOnUse">
   <rect
   x="0"
   y="0"
   width="21000"
   height="29700"
   id="rect2" />
  </clipPath>
  <clipPath
   id="presentation_clip_path_shrink"
   clipPathUnits="userSpaceOnUse">
   <rect
   x="21"
   y="29"
   width="20958"
   height="29641"
   id="rect5" />
  </clipPath>
 </defs>
 <defs
   class="TextShapeIndex"
   id="defs12">
  <g
   ooo:slide="id1"
   ooo:id-list="id3"
   id="g10" />
 </defs>
 <defs
   class="EmbeddedBulletChars"
   id="defs44">
  <g
   id="bullet-char-template-57356"
   transform="matrix(4.8828125e-4,0,0,-4.8828125e-4,0,0)">
   <path
   d="M 580,1141 1163,571 580,0 -4,571 Z"
   id="path14"
   inkscape:connector-curvature="0" />
  </g>
  <g
   id="bullet-char-template-57354"
   transform="matrix(4.8828125e-4,0,0,-4.8828125e-4,0,0)">
   <path
   d="M 8,1128 H 1137 V 0 H 8 Z"
   id="path17"
   inkscape:connector-curvature="0" />
  </g>
  <g
   id="bullet-char-template-10146"
   transform="matrix(4.8828125e-4,0,0,-4.8828125e-4,0,0)">
   <path
   d="M 174,0 602,739 174,1481 1456,739 Z M 1358,739 309,1346 659,739 Z"
   id="path20"
   inkscape:connector-curvature="0" />
  </g>
  <g
   id="bullet-char-template-10132"
   transform="matrix(4.8828125e-4,0,0,-4.8828125e-4,0,0)">
   <path
   d="M 2015,739 1276,0 H 717 l 543,543 H 174 v 393 h 1086 l -543,545 h 557 z"
   id="path23"
   inkscape:connector-curvature="0" />
  </g>
  <g
   id="bullet-char-template-10007"
   transform="matrix(4.8828125e-4,0,0,-4.8828125e-4,0,0)">
   <path
   d="m 0,-2 c -7,16 -16,29 -25,39 l 381,530 c -94,256 -141,385 -141,387 0,25 13,38 40,38 9,0 21,-2 34,-5 21,4 42,12 65,25 l 27,-13 111,-251 280,301 64,-25 24,25 c 21,-10 41,-24 62,-43 C 886,937 835,863 770,784 769,783 710,716 594,584 L 774,223 c 0,-27 -21,-55 -63,-84 l 16,-20 C 717,90 699,76 672,76 641,76 570,178 457,381 L 164,-76 c -22,-34 -53,-51 -92,-51 -42,0 -63,17 -64,51 -7,9 -10,24 -10,44 0,9 1,19 2,30 z"
   id="path26"
   inkscape:connector-curvature="0" />
  </g>
  <g
   id="bullet-char-template-10004"
   transform="matrix(4.8828125e-4,0,0,-4.8828125e-4,0,0)">
   <path
   d="M 285,-33 C 182,-33 111,30 74,156 52,228 41,333 41,471 c 0,78 14,145 41,201 34,71 87,106 158,106 53,0 88,-31 106,-94 l 23,-176 c 8,-64 28,-97 59,-98 l 735,706 c 11,11 33,17 66,17 42,0 63,-15 63,-46 V 965 c 0,-36 -10,-64 -30,-84 L 442,47 C 390,-6 338,-33 285,-33 Z"
   id="path29"
   inkscape:connector-curvature="0" />
  </g>
  <g
   id="bullet-char-template-9679"
   transform="matrix(4.8828125e-4,0,0,-4.8828125e-4,0,0)">
   <path
   d="M 813,0 C 632,0 489,54 383,161 276,268 223,411 223,592 c 0,181 53,324 160,431 106,107 249,161 430,161 179,0 323,-54 432,-161 108,-107 162,-251 162,-431 0,-180 -54,-324 -162,-431 C 1136,54 992,0 813,0 Z"
   id="path32"
   inkscape:connector-curvature="0" />
  </g>
  <g
   id="bullet-char-template-8226"
   transform="matrix(4.8828125e-4,0,0,-4.8828125e-4,0,0)">
   <path
   d="m 346,457 c -73,0 -137,26 -191,78 -54,51 -81,114 -81,188 0,73 27,136 81,188 54,52 118,78 191,78 73,0 134,-26 185,-79 51,-51 77,-114 77,-187 0,-75 -25,-137 -76,-188 -50,-52 -112,-78 -186,-78 z"
   id="path35"
   inkscape:connector-curvature="0" />
  </g>
  <g
   id="bullet-char-template-8211"
   transform="matrix(4.8828125e-4,0,0,-4.8828125e-4,0,0)">
   <path
   d="M -4,459 H 1135 V 606 H -4 Z"
   id="path38"
   inkscape:connector-curvature="0" />
  </g>
  <g
   id="bullet-char-template-61548"
   transform="matrix(4.8828125e-4,0,0,-4.8828125e-4,0,0)">
   <path
   d="m 173,740 c 0,163 58,303 173,419 116,115 255,173 419,173 163,0 302,-58 418,-173 116,-116 174,-256 174,-419 0,-163 -58,-303 -174,-418 C 1067,206 928,148 765,148 601,148 462,206 346,322 231,437 173,577 173,740 Z"
   id="path41"
   inkscape:connector-curvature="0" />
  </g>
 </defs>
 <g
   id="g49"
   transform="translate(-2560,-10414)">
  <g
   id="id2"
   class="Master_Slide">
   <g
   id="bg-id2"
   class="Background" />
   <g
   id="bo-id2"
   class="BackgroundObjects" />
  </g>
 </g>
 <g
   class="SlideGroup"
   id="g219"
   transform="translate(-2560,-10414)">
  <g
   id="g217">
   <g
   id="container-id1">
    <g
   id="id1"
   class="Slide"
   clip-path="url(#presentation_clip_path)">
     <g
   class="Page"
   id="g213">
      <g
   class="Graphic"
   id="g211">
       <g
   id="id3">
        <rect
   class="BoundingBox"
   x="2560"
   y="10414"
   width="15879"
   height="8872"
   id="rect51"
   style="fill:none;stroke:none" />
        <defs
   id="defs56">
         <clipPath
   id="clip_path_1"
   clipPathUnits="userSpaceOnUse">
          <path
   d="m 2560,10414 h 15878 v 8871 H 2560 Z"
   id="path53"
   inkscape:connector-curvature="0" />
         </clipPath>
        </defs>
        <g
   clip-path="url(#clip_path_1)"
   id="g208">
         <path
   d="m 7716,11155 -273,-203 -190,-101 -123,-53 -146,-58 -132,-57 -168,-57 -181,-44 -211,-44 -203,-36 -137,-22 -172,-13 -146,4 h -207 l -220,9 -177,13 -194,22 -229,36 -221,57 -225,62 -260,97 -247,110 -238,128 -194,146 -186,172 -141,150 -110,145 -88,164 -49,110 -31,106 -35,154 -18,133 v 123 l 9,97 9,119 9,128 31,111 13,75 22,75 44,110 71,123 132,199 110,137 322,304 450,371 838,-424 -904,-653 -66,-79 -44,-58 -62,-83 -53,-89 -40,-106 -22,-97 -22,-119 v -106 l 22,-158 22,-120 36,-83 53,-111 79,-114 119,-133 159,-119 225,-115 163,-61 176,-66 159,-40 102,-18 128,-35 110,-22 176,-13 111,-5 132,-22 132,9 h 93 l 229,18 230,26 167,31 110,35 133,40 128,44 88,35 93,40 141,57 z"
   id="path58"
   inkscape:connector-curvature="0"
   style="fill:#606060;stroke:none" />
         <path
   d="m 7663,11177 -829,419 -190,-97 -251,-92 -260,-67 -318,-44 -335,-13 -415,13 -273,44 -353,80 -287,110 -211,106 -168,110 -141,146 -119,176 -71,203 -35,190 -13,190 -58,-203 -13,-163 35,-217 71,-176 132,-203 155,-176 176,-133 168,-97 211,-79 239,-80 225,-44 260,-53 176,-13 225,-13 h 265 l 260,13 331,53 260,57 238,66 190,67 35,13 84,-93 119,-66 119,-57 h 190 z"
   id="path60"
   inkscape:connector-curvature="0"
   style="fill:#404040;stroke:none" />
         <path
   d="m 2922,11751 -12,14 -13,17 -11,18 -12,21 -11,23 -11,24 -11,27 -9,28 -10,30 -9,32 -9,33 -7,35 -8,36 -7,37 -6,38 -5,40 -5,40 -5,41 -3,42 -3,42 -2,43"
   id="path62"
   inkscape:connector-curvature="0"
   style="fill:none;stroke:#e0e0e0;stroke-width:35;stroke-linecap:round;stroke-linejoin:round" />
         <path
   d="m 3769,16290 v -2995 l 5054,-2510 -8,2823 z"
   id="path64"
   inkscape:connector-curvature="0"
   style="fill:#404040;stroke:none" />
         <path
   d="m 3769,16290 v -2995 l 5054,-2510 -8,2823 z"
   id="path66"
   inkscape:connector-curvature="0"
   style="fill:none;stroke:#c0c0c0;stroke-width:35;stroke-linecap:round;stroke-linejoin:round" />
         <path
   d="m 3350,12982 419,313 v 2995 l -419,-313 z"
   id="path68"
   inkscape:connector-curvature="0"
   style="fill:#606060;stroke:none" />
         <path
   d="m 3350,12982 419,313 v 2995 l -419,-313 z"
   id="path70"
   inkscape:connector-curvature="0"
   style="fill:none;stroke:#c0c0c0;stroke-width:35;stroke-linecap:round;stroke-linejoin:round" />
         <path
   d="m 3350,12982 423,313 5050,-2510 -405,-322 z"
   id="path72"
   inkscape:connector-curvature="0"
   style="fill:#a0a0a0;stroke:none" />
         <path
   d="m 3350,12982 423,313 5050,-2510 -405,-322 z"
   id="path74"
   inkscape:connector-curvature="0"
   style="fill:none;stroke:#c0c0c0;stroke-width:35;stroke-linecap:round;stroke-linejoin:round" />
         <path
   d="m 4307,16687 v -2999 l 5037,-2502 9,2810 z"
   id="path76"
   inkscape:connector-curvature="0"
   style="fill:#404040;stroke:none" />
         <path
   d="m 4307,16687 v -2999 l 5037,-2502 9,2810 z"
   id="path78"
   inkscape:connector-curvature="0"
   style="fill:none;stroke:#c0c0c0;stroke-width:35;stroke-linecap:round;stroke-linejoin:round" />
         <path
   d="m 3888,13379 419,309 v 2999 l -424,-317 z"
   id="path80"
   inkscape:connector-curvature="0"
   style="fill:#606060;stroke:none" />
         <path
   d="m 3888,13379 419,309 v 2999 l -424,-317 z"
   id="path82"
   inkscape:connector-curvature="0"
   style="fill:none;stroke:#c0c0c0;stroke-width:35;stroke-linecap:round;stroke-linejoin:round" />
         <path
   d="m 3883,13374 428,314 5037,-2502 -423,-331 z"
   id="path84"
   inkscape:connector-curvature="0"
   style="fill:#a0a0a0;stroke:none" />
         <path
   d="m 3883,13374 428,314 5037,-2502 -423,-331 z"
   id="path86"
   inkscape:connector-curvature="0"
   style="fill:none;stroke:#c0c0c0;stroke-width:35;stroke-linecap:round;stroke-linejoin:round" />
         <path
   d="m 4818,17093 v -2995 l 5060,-2510 -9,2823 z"
   id="path88"
   inkscape:connector-curvature="0"
   style="fill:#404040;stroke:none" />
         <path
   d="m 4818,17093 v -2995 l 5060,-2510 -9,2823 z"
   id="path90"
   inkscape:connector-curvature="0"
   style="fill:none;stroke:#c0c0c0;stroke-width:35;stroke-linecap:round;stroke-linejoin:round" />
         <path
   d="m 4399,13780 419,318 v 2995 l -419,-317 z"
   id="path92"
   inkscape:connector-curvature="0"
   style="fill:#606060;stroke:none" />
         <path
   d="m 4399,13780 419,318 v 2995 l -419,-317 z"
   id="path94"
   inkscape:connector-curvature="0"
   style="fill:none;stroke:#c0c0c0;stroke-width:35;stroke-linecap:round;stroke-linejoin:round" />
         <path
   d="m 4399,13780 424,318 5055,-2510 -406,-327 z"
   id="path96"
   inkscape:connector-curvature="0"
   style="fill:#a0a0a0;stroke:none" />
         <path
   d="m 4399,13780 424,318 5055,-2510 -406,-327 z"
   id="path98"
   inkscape:connector-curvature="0"
   style="fill:none;stroke:#c0c0c0;stroke-width:35;stroke-linecap:round;stroke-linejoin:round" />
         <path
   d="m 5361,17512 v -2995 l 5037,-2497 -18,2806 z"
   id="path100"
   inkscape:connector-curvature="0"
   style="fill:#404040;stroke:none" />
         <path
   d="m 5361,17512 v -2995 l 5037,-2497 -18,2806 z"
   id="path102"
   inkscape:connector-curvature="0"
   style="fill:none;stroke:#c0c0c0;stroke-width:35;stroke-linecap:round;stroke-linejoin:round" />
         <path
   d="m 4933,14204 428,313 v 2995 l -424,-313 z"
   id="path104"
   inkscape:connector-curvature="0"
   style="fill:#606060;stroke:none" />
         <path
   d="m 4933,14204 428,313 v 2995 l -424,-313 z"
   id="path106"
   inkscape:connector-curvature="0"
   style="fill:none;stroke:#c0c0c0;stroke-width:35;stroke-linecap:round;stroke-linejoin:round" />
         <path
   d="m 4937,14204 428,313 5033,-2497 -419,-340 z"
   id="path108"
   inkscape:connector-curvature="0"
   style="fill:#a0a0a0;stroke:none" />
         <path
   d="m 4937,14204 428,313 5033,-2497 -419,-340 z"
   id="path110"
   inkscape:connector-curvature="0"
   style="fill:none;stroke:#c0c0c0;stroke-width:35;stroke-linecap:round;stroke-linejoin:round" />
         <path
   d="m 5895,17949 v -3000 l 5054,-2510 -8,2828 z"
   id="path112"
   inkscape:connector-curvature="0"
   style="fill:#404040;stroke:none" />
         <path
   d="m 5895,17949 v -3000 l 5054,-2510 -8,2828 z"
   id="path114"
   inkscape:connector-curvature="0"
   style="fill:none;stroke:#c0c0c0;stroke-width:35;stroke-linecap:round;stroke-linejoin:round" />
         <path
   d="m 5476,14636 419,313 v 3000 l -419,-317 z"
   id="path116"
   inkscape:connector-curvature="0"
   style="fill:#606060;stroke:none" />
         <path
   d="m 5476,14636 419,313 v 3000 l -419,-317 z"
   id="path118"
   inkscape:connector-curvature="0"
   style="fill:none;stroke:#c0c0c0;stroke-width:35;stroke-linecap:round;stroke-linejoin:round" />
         <path
   d="m 5476,14636 419,313 5054,-2510 -405,-322 z"
   id="path120"
   inkscape:connector-curvature="0"
   style="fill:#a0a0a0;stroke:none" />
         <path
   d="m 5476,14636 419,313 5054,-2510 -405,-322 z"
   id="path122"
   inkscape:connector-curvature="0"
   style="fill:none;stroke:#c0c0c0;stroke-width:35;stroke-linecap:round;stroke-linejoin:round" />
         <path
   d="m 6433,18368 v -2995 l 5041,-2502 -17,2806 z"
   id="path124"
   inkscape:connector-curvature="0"
   style="fill:#404040;stroke:none" />
         <path
   d="m 6433,18368 v -2995 l 5041,-2502 -17,2806 z"
   id="path126"
   inkscape:connector-curvature="0"
   style="fill:none;stroke:#c0c0c0;stroke-width:35;stroke-linecap:round;stroke-linejoin:round" />
         <path
   d="m 6014,15060 419,313 v 2995 l -424,-317 z"
   id="path128"
   inkscape:connector-curvature="0"
   style="fill:#606060;stroke:none" />
         <path
   d="m 6014,15060 419,313 v 2995 l -424,-317 z"
   id="path130"
   inkscape:connector-curvature="0"
   style="fill:none;stroke:#c0c0c0;stroke-width:35;stroke-linecap:round;stroke-linejoin:round" />
         <path
   d="m 6009,15055 424,318 5041,-2502 -423,-335 z"
   id="path132"
   inkscape:connector-curvature="0"
   style="fill:#a0a0a0;stroke:none" />
         <path
   d="m 6009,15055 424,318 5041,-2502 -423,-335 z"
   id="path134"
   inkscape:connector-curvature="0"
   style="fill:none;stroke:#c0c0c0;stroke-width:35;stroke-linecap:round;stroke-linejoin:round" />
         <path
   d="m 6984,18774 v -2995 l 5050,-2511 -8,2824 z"
   id="path136"
   inkscape:connector-curvature="0"
   style="fill:#404040;stroke:none" />
         <path
   d="m 6984,18774 v -2995 l 5050,-2511 -8,2824 z"
   id="path138"
   inkscape:connector-curvature="0"
   style="fill:none;stroke:#c0c0c0;stroke-width:35;stroke-linecap:round;stroke-linejoin:round" />
         <path
   d="m 6565,15465 419,314 v 2995 l -419,-313 z"
   id="path140"
   inkscape:connector-curvature="0"
   style="fill:#606060;stroke:none" />
         <path
   d="m 6565,15465 419,314 v 2995 l -419,-313 z"
   id="path142"
   inkscape:connector-curvature="0"
   style="fill:none;stroke:#c0c0c0;stroke-width:35;stroke-linecap:round;stroke-linejoin:round" />
         <path
   d="m 6565,15474 423,313 5060,-2519 -406,-326 z"
   id="path144"
   inkscape:connector-curvature="0"
   style="fill:#a0a0a0;stroke:none" />
         <path
   d="m 7518,19193 v -2995 l 5041,-2502 -13,2806 z"
   id="path146"
   inkscape:connector-curvature="0"
   style="fill:#404040;stroke:none" />
         <path
   d="m 7518,19193 v -2995 l 5041,-2502 -13,2806 z"
   id="path148"
   inkscape:connector-curvature="0"
   style="fill:none;stroke:#c0c0c0;stroke-width:35;stroke-linecap:round;stroke-linejoin:round" />
         <path
   d="m 7103,15889 415,309 v 2995 l -419,-313 z"
   id="path150"
   inkscape:connector-curvature="0"
   style="fill:#606060;stroke:none" />
         <path
   d="m 7103,15889 415,309 v 2995 l -419,-313 z"
   id="path152"
   inkscape:connector-curvature="0"
   style="fill:none;stroke:#c0c0c0;stroke-width:35;stroke-linecap:round;stroke-linejoin:round" />
         <path
   d="m 7099,15885 419,313 5041,-2502 -419,-331 z"
   id="path154"
   inkscape:connector-curvature="0"
   style="fill:#a0a0a0;stroke:none" />
         <path
   d="m 7099,15885 419,313 5041,-2502 -419,-331 z"
   id="path156"
   inkscape:connector-curvature="0"
   style="fill:none;stroke:#c0c0c0;stroke-width:35;stroke-linecap:round;stroke-linejoin:round" />
         <path
   d="m 10979,16374 c 0,195 -37,386 -108,555 -70,169 -172,310 -294,407 -123,98 -261,149 -402,149 -142,0 -280,-51 -403,-149 -122,-97 -224,-238 -294,-407 -71,-169 -108,-360 -108,-555 0,-196 37,-387 108,-556 70,-169 172,-310 294,-407 123,-98 261,-149 403,-149 141,0 279,51 402,149 122,97 224,238 294,407 71,169 108,360 108,555 z"
   id="path158"
   inkscape:connector-curvature="0"
   style="fill:#000000;stroke:none" />
         <path
   d="m 10976,16370 -1,-56 -3,-56 -5,-56 -7,-56 -10,-55 -11,-54 -13,-53 -15,-53 -17,-51 -19,-50 -21,-48 -22,-47 -24,-46 -26,-43 -27,-42 -29,-40 -30,-38 -31,-35 -33,-34 -34,-31 -35,-28 -36,-26 -37,-24 -38,-21 -39,-18 -39,-16 -39,-12 -40,-10 -41,-7 -40,-5 -41,-1 v 0 l -41,1 -40,5 -41,7 -40,10 -39,12 -39,16 -39,18 -38,21 -37,24 -36,26 -35,28 -34,31 -33,34 -31,35 -30,38 -29,40 -27,42 -26,43 -24,46 -22,47 -21,48 -19,50 -17,51 -15,53 -13,53 -11,54 -10,55 -7,56 -5,56 -3,56 -1,56 v 0 l 1,56 3,56 5,56 7,56 10,55 11,54 13,53 15,53 17,51 19,50 21,48 22,47 24,46 26,43 27,42 29,40 30,38 31,35 33,34 34,31 35,28 36,26 37,24 38,21 39,18 39,16 39,12 40,10 41,7 40,5 41,1 v 0 l 41,-1 40,-5 41,-7 40,-10 39,-12 39,-16 39,-18 38,-21 37,-24 36,-26 35,-28 34,-31 33,-34 31,-35 30,-38 29,-40 27,-42 26,-43 24,-46 22,-47 21,-48 19,-50 17,-51 15,-53 13,-53 11,-54 10,-55 7,-56 5,-56 3,-56 z"
   id="path160"
   inkscape:connector-curvature="0"
   style="fill:none;stroke:#000000;stroke-width:35;stroke-linecap:round;stroke-linejoin:round" />
         <path
   d="m 11045,16445 c 0,195 -37,386 -108,555 -71,169 -173,310 -295,407 -123,98 -262,149 -403,149 -142,0 -281,-51 -404,-149 -122,-97 -224,-238 -295,-407 -71,-169 -108,-360 -108,-555 0,-196 37,-387 108,-556 71,-169 173,-310 295,-407 123,-98 262,-149 404,-149 141,0 280,51 403,149 122,97 224,238 295,407 71,169 108,360 108,556 z"
   id="path162"
   inkscape:connector-curvature="0"
   style="fill:#606060;stroke:none" />
         <path
   d="m 11042,16440 -1,-56 -3,-56 -5,-56 -8,-56 -9,-55 -11,-54 -13,-53 -15,-53 -17,-51 -19,-50 -21,-48 -23,-47 -24,-46 -26,-43 -27,-42 -29,-40 -30,-38 -32,-35 -33,-34 -34,-31 -35,-28 -37,-26 -37,-24 -38,-21 -38,-18 -40,-16 -40,-12 -40,-10 -40,-7 -41,-5 -41,-1 v 0 l -41,1 -41,5 -40,7 -40,10 -40,12 -40,16 -38,18 -38,21 -37,24 -37,26 -35,28 -34,31 -33,34 -32,35 -30,38 -29,40 -27,42 -26,43 -24,46 -23,47 -21,48 -19,50 -17,51 -15,53 -13,53 -11,54 -9,55 -8,56 -5,56 -3,56 -1,56 v 0 l 1,56 3,56 5,56 8,56 9,55 11,54 13,53 15,53 17,51 19,50 21,48 23,47 24,46 26,43 27,42 29,40 30,38 32,35 33,34 34,31 35,28 37,26 37,24 38,21 38,18 40,16 40,12 40,10 40,7 41,5 41,1 v 0 l 41,-1 41,-5 40,-7 40,-10 40,-12 40,-16 38,-18 38,-21 37,-24 37,-26 35,-28 34,-31 33,-34 32,-35 30,-38 29,-40 27,-42 26,-43 24,-46 23,-47 21,-48 19,-50 17,-51 15,-53 13,-53 11,-54 9,-55 8,-56 5,-56 3,-56 z"
   id="path164"
   inkscape:connector-curvature="0"
   style="fill:none;stroke:#000000;stroke-width:35;stroke-linecap:round;stroke-linejoin:round" />
         <path
   d="m 10089,15871 212,-79 v 1138 l -212,80 z"
   id="path166"
   inkscape:connector-curvature="0"
   style="fill:#404040;stroke:none" />
         <path
   d="m 10089,15871 212,-79 v 1138 l -212,80 z"
   id="path168"
   inkscape:connector-curvature="0"
   style="fill:none;stroke:#c0c0c0;stroke-width:35;stroke-linecap:round;stroke-linejoin:round" />
         <path
   d="m 11735,16837 48,-110 88,-101 124,-80 114,-44 146,-22 137,9 145,44 80,40 84,62"
   id="path170"
   inkscape:connector-curvature="0"
   style="fill:none;stroke:#c0c0c0;stroke-width:141;stroke-linecap:round;stroke-linejoin:round" />
         <path
   d="m 10186,15911 v 1001 l 1685,1148 v -989 z"
   id="path172"
   inkscape:connector-curvature="0"
   style="fill:#a0a000;stroke:none" />
         <path
   d="m 10186,15915 1681,1165 137,-57 -1690,-1165 z"
   id="path174"
   inkscape:connector-curvature="0"
   style="fill:#ffff00;stroke:none" />
         <path
   d="m 11858,17071 141,-57 v 988 l -141,49 z"
   id="path176"
   inkscape:connector-curvature="0"
   style="fill:#606000;stroke:none" />
         <path
   d="m 12285,16886 c 0,265 -36,526 -106,756 -69,230 -169,421 -288,553 -120,133 -257,203 -395,203 -138,0 -275,-70 -394,-203 -120,-132 -220,-323 -289,-553 -70,-230 -106,-491 -106,-756 0,-266 36,-527 106,-757 69,-230 169,-421 289,-553 119,-133 256,-203 394,-203 138,0 275,70 395,203 119,132 219,323 288,553 70,230 106,491 106,756 z"
   id="path178"
   inkscape:connector-curvature="0"
   style="fill:#ffff00;stroke:none" />
         <path
   d="m 12153,16950 c 0,265 -36,525 -105,755 -70,229 -169,420 -288,553 -120,132 -256,202 -394,202 -138,0 -274,-70 -393,-202 -120,-133 -219,-324 -289,-553 -69,-230 -105,-490 -105,-755 0,-266 36,-526 105,-756 70,-229 169,-420 289,-553 119,-132 255,-202 393,-202 138,0 274,70 394,202 119,133 218,324 288,553 69,230 105,490 105,755 z"
   id="path180"
   inkscape:connector-curvature="0"
   style="fill:#a0a000;stroke:none" />
         <path
   d="m 11901,17129 c 0,56 -10,111 -28,160 -19,49 -45,90 -77,118 -33,28 -69,43 -106,43 -37,0 -73,-15 -105,-43 -33,-28 -59,-69 -78,-118 -18,-49 -28,-104 -28,-160 0,-57 10,-112 28,-161 19,-49 45,-90 78,-118 32,-28 68,-43 105,-43 37,0 73,15 106,43 32,28 58,69 77,118 18,49 28,104 28,161 z"
   id="path182"
   inkscape:connector-curvature="0"
   style="fill:#e0e000;stroke:none" />
         <path
   d="m 11896,17097 c 0,46 -7,90 -20,130 -14,40 -33,72 -56,95 -23,23 -49,35 -75,35 -27,0 -53,-12 -76,-35 -23,-23 -42,-55 -56,-95 -13,-40 -20,-84 -20,-130 0,-46 7,-90 20,-130 14,-40 33,-72 56,-95 23,-23 49,-35 76,-35 26,0 52,12 75,35 23,23 42,55 56,95 13,40 20,84 20,130 z"
   id="path184"
   inkscape:connector-curvature="0"
   style="fill:#606060;stroke:none" />
         <path
   d="m 14662,16943 c 0,262 -53,520 -153,748 -101,227 -245,415 -419,547 -174,131 -371,200 -572,200 -201,0 -398,-69 -572,-200 -174,-132 -318,-320 -419,-547 -100,-228 -153,-486 -153,-748 0,-262 53,-520 153,-747 101,-228 245,-416 419,-548 174,-131 371,-200 572,-200 201,0 398,69 572,200 174,132 318,320 419,547 100,228 153,486 153,748 z"
   id="path186"
   inkscape:connector-curvature="0"
   style="fill:#606000;stroke:none" />
         <path
   d="m 14662,16751 c 0,262 -53,520 -153,747 -101,226 -245,415 -419,546 -174,131 -371,200 -572,200 -201,0 -398,-69 -572,-200 -174,-131 -318,-320 -419,-546 -100,-227 -153,-485 -153,-747 0,-262 53,-520 153,-746 101,-227 245,-416 419,-547 174,-131 371,-200 572,-200 201,0 398,69 572,200 174,131 318,320 419,546 100,227 153,485 153,747 z"
   id="path188"
   inkscape:connector-curvature="0"
   style="fill:#ffff00;stroke:none" />
         <path
   d="m 14565,16806 c 0,249 -48,494 -140,710 -92,216 -224,395 -383,520 -160,124 -340,190 -524,190 -184,0 -364,-66 -523,-190 -160,-125 -292,-304 -384,-520 -92,-216 -140,-461 -140,-710 0,-249 48,-494 140,-710 92,-216 224,-395 384,-520 159,-124 339,-190 523,-190 184,0 364,66 524,190 159,125 291,304 383,520 92,216 140,461 140,710 z"
   id="path190"
   inkscape:connector-curvature="0"
   style="fill:#a0a000;stroke:none" />
         <path
   d="m 13119,16822 c 0,72 -13,143 -37,206 -24,63 -58,115 -99,151 -42,36 -89,55 -137,55 -48,0 -95,-19 -136,-55 -42,-36 -76,-88 -100,-151 -24,-63 -37,-134 -37,-206 0,-72 13,-143 37,-206 24,-63 58,-115 100,-151 41,-36 88,-55 136,-55 48,0 95,19 137,55 41,36 75,88 99,151 24,63 37,134 37,206 z"
   id="path192"
   inkscape:connector-curvature="0"
   style="fill:#ffff00;stroke:none" />
         <path
   d="m 13061,16912 c 0,56 -10,111 -29,160 -19,49 -46,90 -79,118 -33,28 -70,43 -107,43 -38,0 -75,-15 -108,-43 -33,-28 -60,-69 -79,-118 -19,-49 -29,-104 -29,-160 0,-57 10,-112 29,-161 19,-49 46,-90 79,-118 33,-28 70,-43 108,-43 37,0 74,15 107,43 33,28 60,69 79,118 19,49 29,104 29,161 z"
   id="path194"
   inkscape:connector-curvature="0"
   style="fill:#606060;stroke:none" />
         <path
   d="m 14482,16410 3957,348 v 177 l -260,520 h -530 v -256 h -264 v 256 h -260 v -256 h -530 v 256 h -264 l -265,-256 -265,256 -264,-256 v 256 h -265 v -256 h -260 l -269,256 h -261 z"
   id="path196"
   inkscape:connector-curvature="0"
   style="fill:#606000;stroke:none" />
         <path
   d="m 14482,16242 h 3697 l 260,516 -260,525 h -530 v -260 h -264 v 260 h -260 v -260 h -530 v 260 h -264 l -265,-260 -265,260 -264,-260 v 260 h -265 v -260 h -260 l -269,260 h -261 z"
   id="path198"
   inkscape:connector-curvature="0"
   style="fill:#a0a000;stroke:none" />
         <path
   d="m 14818,16498 h 3497 l 124,264 h -3621 z"
   id="path200"
   inkscape:connector-curvature="0"
   style="fill:#808000;stroke:none" />
         <path
   d="m 14879,16983 v -40 h 3419 v 40 z"
   id="path202"
   inkscape:connector-curvature="0"
   style="fill:#808000;stroke:none" />
         <path
   d="m 14760,16335 v -45 h 3419 v 45 z"
   id="path204"
   inkscape:connector-curvature="0"
   style="fill:#808000;stroke:none" />
         <path
   d="m 11743,16895 27,123 92,119 128,80 190,57 h 190 l 185,-44 146,-93 92,-132 31,-141 -22,-97 -49,-84"
   id="path206"
   inkscape:connector-curvature="0"
   style="fill:none;stroke:#c0c0c0;stroke-width:141;stroke-linecap:round;stroke-linejoin:round" />
        </g>
       </g>
      </g>
     </g>
    </g>
   </g>
  </g>
 </g>
</svg>