<?xml version="1.0" encoding="UTF-8" standalone="no"?>
<svg
   xmlns:ooo="http://xml.openoffice.org/svg/export"
   xmlns:dc="http://purl.org/dc/elements/1.1/"
   xmlns:cc="http://creativecommons.org/ns#"
   xmlns:rdf="http://www.w3.org/1999/02/22-rdf-syntax-ns#"
   xmlns:svg="http://www.w3.org/2000/svg"
   xmlns="http://www.w3.org/2000/svg"
   xmlns:sodipodi="http://sodipodi.sourceforge.net/DTD/sodipodi-0.dtd"
   xmlns:inkscape="http://www.inkscape.org/namespaces/inkscape"
   version="1.2"
   width="126.16mm"
   height="97.190002mm"
   viewBox="0 0 12616 9719.0002"
   preserveAspectRatio="xMidYMid"
   xml:space="preserve"
   id="svg201"
   sodipodi:docname="meeting2.svg"
   style="fill-rule:evenodd;stroke-width:28.22200012;stroke-linejoin:round"
   inkscape:version="0.92.5 (2060ec1f9f, 2020-04-08)"><metadata
   id="metadata205"><rdf:RDF><cc:Work
       rdf:about=""><dc:format>image/svg+xml</dc:format><dc:type
         rdf:resource="http://purl.org/dc/dcmitype/StillImage" /></cc:Work></rdf:RDF></metadata><sodipodi:namedview
   pagecolor="#ffffff"
   bordercolor="#666666"
   borderopacity="1"
   objecttolerance="10"
   gridtolerance="10"
   guidetolerance="10"
   inkscape:pageopacity="0"
   inkscape:pageshadow="2"
   inkscape:window-width="664"
   inkscape:window-height="487"
   id="namedview203"
   showgrid="false"
   inkscape:zoom="0.2102413"
   inkscape:cx="238.4126"
   inkscape:cy="183.64724"
   inkscape:window-x="0"
   inkscape:window-y="0"
   inkscape:window-maximized="0"
   inkscape:current-layer="svg201" />
 <defs
   class="ClipPathGroup"
   id="defs8">
  <clipPath
   id="presentation_clip_path"
   clipPathUnits="userSpaceOnUse">
   <rect
   x="0"
   y="0"
   width="21000"
   height="29700"
   id="rect2" />
  </clipPath>
  <clipPath
   id="presentation_clip_path_shrink"
   clipPathUnits="userSpaceOnUse">
   <rect
   x="21"
   y="29"
   width="20958"
   height="29641"
   id="rect5" />
  </clipPath>
 </defs>
 <defs
   class="TextShapeIndex"
   id="defs12">
  <g
   ooo:slide="id1"
   ooo:id-list="id3"
   id="g10" />
 </defs>
 <defs
   class="EmbeddedBulletChars"
   id="defs44">
  <g
   id="bullet-char-template-57356"
   transform="matrix(4.8828125e-4,0,0,-4.8828125e-4,0,0)">
   <path
   d="M 580,1141 1163,571 580,0 -4,571 Z"
   id="path14"
   inkscape:connector-curvature="0" />
  </g>
  <g
   id="bullet-char-template-57354"
   transform="matrix(4.8828125e-4,0,0,-4.8828125e-4,0,0)">
   <path
   d="M 8,1128 H 1137 V 0 H 8 Z"
   id="path17"
   inkscape:connector-curvature="0" />
  </g>
  <g
   id="bullet-char-template-10146"
   transform="matrix(4.8828125e-4,0,0,-4.8828125e-4,0,0)">
   <path
   d="M 174,0 602,739 174,1481 1456,739 Z M 1358,739 309,1346 659,739 Z"
   id="path20"
   inkscape:connector-curvature="0" />
  </g>
  <g
   id="bullet-char-template-10132"
   transform="matrix(4.8828125e-4,0,0,-4.8828125e-4,0,0)">
   <path
   d="M 2015,739 1276,0 H 717 l 543,543 H 174 v 393 h 1086 l -543,545 h 557 z"
   id="path23"
   inkscape:connector-curvature="0" />
  </g>
  <g
   id="bullet-char-template-10007"
   transform="matrix(4.8828125e-4,0,0,-4.8828125e-4,0,0)">
   <path
   d="m 0,-2 c -7,16 -16,29 -25,39 l 381,530 c -94,256 -141,385 -141,387 0,25 13,38 40,38 9,0 21,-2 34,-5 21,4 42,12 65,25 l 27,-13 111,-251 280,301 64,-25 24,25 c 21,-10 41,-24 62,-43 C 886,937 835,863 770,784 769,783 710,716 594,584 L 774,223 c 0,-27 -21,-55 -63,-84 l 16,-20 C 717,90 699,76 672,76 641,76 570,178 457,381 L 164,-76 c -22,-34 -53,-51 -92,-51 -42,0 -63,17 -64,51 -7,9 -10,24 -10,44 0,9 1,19 2,30 z"
   id="path26"
   inkscape:connector-curvature="0" />
  </g>
  <g
   id="bullet-char-template-10004"
   transform="matrix(4.8828125e-4,0,0,-4.8828125e-4,0,0)">
   <path
   d="M 285,-33 C 182,-33 111,30 74,156 52,228 41,333 41,471 c 0,78 14,145 41,201 34,71 87,106 158,106 53,0 88,-31 106,-94 l 23,-176 c 8,-64 28,-97 59,-98 l 735,706 c 11,11 33,17 66,17 42,0 63,-15 63,-46 V 965 c 0,-36 -10,-64 -30,-84 L 442,47 C 390,-6 338,-33 285,-33 Z"
   id="path29"
   inkscape:connector-curvature="0" />
  </g>
  <g
   id="bullet-char-template-9679"
   transform="matrix(4.8828125e-4,0,0,-4.8828125e-4,0,0)">
   <path
   d="M 813,0 C 632,0 489,54 383,161 276,268 223,411 223,592 c 0,181 53,324 160,431 106,107 249,161 430,161 179,0 323,-54 432,-161 108,-107 162,-251 162,-431 0,-180 -54,-324 -162,-431 C 1136,54 992,0 813,0 Z"
   id="path32"
   inkscape:connector-curvature="0" />
  </g>
  <g
   id="bullet-char-template-8226"
   transform="matrix(4.8828125e-4,0,0,-4.8828125e-4,0,0)">
   <path
   d="m 346,457 c -73,0 -137,26 -191,78 -54,51 -81,114 -81,188 0,73 27,136 81,188 54,52 118,78 191,78 73,0 134,-26 185,-79 51,-51 77,-114 77,-187 0,-75 -25,-137 -76,-188 -50,-52 -112,-78 -186,-78 z"
   id="path35"
   inkscape:connector-curvature="0" />
  </g>
  <g
   id="bullet-char-template-8211"
   transform="matrix(4.8828125e-4,0,0,-4.8828125e-4,0,0)">
   <path
   d="M -4,459 H 1135 V 606 H -4 Z"
   id="path38"
   inkscape:connector-curvature="0" />
  </g>
  <g
   id="bullet-char-template-61548"
   transform="matrix(4.8828125e-4,0,0,-4.8828125e-4,0,0)">
   <path
   d="m 173,740 c 0,163 58,303 173,419 116,115 255,173 419,173 163,0 302,-58 418,-173 116,-116 174,-256 174,-419 0,-163 -58,-303 -174,-418 C 1067,206 928,148 765,148 601,148 462,206 346,322 231,437 173,577 173,740 Z"
   id="path41"
   inkscape:connector-curvature="0" />
  </g>
 </defs>
 <g
   id="g49"
   transform="translate(-4192,-9990)">
  <g
   id="id2"
   class="Master_Slide">
   <g
   id="bg-id2"
   class="Background" />
   <g
   id="bo-id2"
   class="BackgroundObjects" />
  </g>
 </g>
 <g
   class="SlideGroup"
   id="g199"
   transform="translate(-4192,-9990)">
  <g
   id="g197">
   <g
   id="container-id1">
    <g
   id="id1"
   class="Slide"
   clip-path="url(#presentation_clip_path)">
     <g
   class="Page"
   id="g193">
      <g
   class="Graphic"
   id="g191">
       <g
   id="id3">
        <rect
   class="BoundingBox"
   x="4192"
   y="9990"
   width="12616"
   height="9719"
   id="rect51"
   style="fill:none;stroke:none" />
        <defs
   id="defs56">
         <clipPath
   id="clip_path_1"
   clipPathUnits="userSpaceOnUse">
          <path
   d="m 4201,9994 h 12602 v 9696 H 4201 Z"
   id="path53"
   inkscape:connector-curvature="0" />
         </clipPath>
        </defs>
        <g
   clip-path="url(#clip_path_1)"
   id="g188">
         <path
   d="m 4364,9990 h 9055 v 4980 H 4364 Z"
   id="path58"
   inkscape:connector-curvature="0"
   style="fill:#00dfff;stroke:none" />
         <path
   d="m 8749,15522 79,-119 -26,-198 -40,-437 53,-450 132,-344 212,-199 331,-92 384,-40 291,40 304,185 132,251 120,305 52,450 -66,106 27,119 -13,238 -67,238 -317,411 -225,92 -265,66 -216,62 z"
   id="path60"
   inkscape:connector-curvature="0"
   style="fill:#bf7f3f;stroke:none" />
         <path
   d="m 8736,15363 -80,-502 -13,-278 66,-397 106,-305 251,-238 305,-66 384,-14 211,27 212,79 185,93 172,132 53,119 -198,-119 -186,-13 -66,-13 159,119 93,132 53,133 79,92 79,119 27,120 13,132 -79,251 -80,172 -106,-52 27,-67 13,-92 -66,-80 -159,40 -198,119 -80,238 -39,106 39,80 80,39 -331,106 -265,40 -212,26 -251,-145 z"
   id="path62"
   inkscape:connector-curvature="0"
   style="fill:#3f3f3f;stroke:none" />
         <path
   d="m 7981,15986 384,-173 304,-357 980,755"
   id="path64"
   inkscape:connector-curvature="0"
   style="fill:none;stroke:#000000;stroke-width:35;stroke-linecap:round;stroke-linejoin:round" />
         <path
   d="m 12600,17225 -291,2334 h 3551 l -133,-2307 z"
   id="path66"
   inkscape:connector-curvature="0"
   style="fill:#005f5f;stroke:none" />
         <path
   d="m 13725,12337 -84,476 -44,45 -75,48 -84,27 97,463 40,225 39,137 58,119 114,75 186,79 225,71 163,22 145,-22 172,-44 115,-75 159,-217 40,-194 -22,-269 -58,-101 -181,-186 -57,-57 -9,-260 35,-177 z"
   id="path68"
   inkscape:connector-curvature="0"
   style="fill:#ff9f7f;stroke:none" />
         <path
   d="m 13729,12337 -84,476 -44,45 -75,48 -84,27 97,463 40,225 40,137 57,119 13,-102 v -88 l 31,-84 9,-62 22,-114 13,-89 40,-136 49,-89 74,-70 75,-66 93,-84 124,-75 485,-296 z"
   id="path70"
   inkscape:connector-curvature="0"
   style="fill:#ff7f3f;stroke:none" />
         <path
   d="m 13725,12337 -84,476 -44,45 -75,48 -84,27 97,463 40,225 13,-119 17,-119 31,-106 5,-89 31,-79 57,-79 66,-49 88,-35 71,-35 123,-67 111,-53 511,-269 z"
   id="path72"
   inkscape:connector-curvature="0"
   style="fill:#ff9f1f;stroke:none" />
         <path
   d="m 13742,12394 18,62 26,49 31,44 53,57 53,40 62,40 75,39 66,18 97,22 75,4 124,-4 66,-18 53,-22 53,-39 66,-67 z"
   id="path74"
   inkscape:connector-curvature="0"
   style="fill:#7f3f00;stroke:none" />
         <path
   d="m 13742,12394 18,62 26,49 31,44 53,57 53,40 62,40 75,39 66,18 97,22 75,4 124,-4 66,-18 53,-22 53,-39 66,-67 z"
   id="path76"
   inkscape:connector-curvature="0"
   style="fill:none;stroke:#7f3f00;stroke-width:35;stroke-linecap:round;stroke-linejoin:round" />
         <path
   d="m 14691,12575 44,-66 39,-71 93,-194 124,-304 66,-243 39,-220 45,-309 -14,-278 -57,-154 -128,-120 -190,-101 -185,-40 -181,-13 -176,18 -172,26 -124,44 -119,84 -97,110 -84,150 -53,142 -44,150 -9,176 -13,110 9,80 -62,9 -39,39 -9,44 35,102 49,48 39,67 62,44 h 79 l -17,123 26,137 40,128 26,97 31,71 36,52 44,53 48,58 71,48 57,31 62,27 62,13 61,13 71,9 75,4 84,-8 75,-23 57,-30 66,-62 z"
   id="path78"
   inkscape:connector-curvature="0"
   style="fill:#ff9f7f;stroke:none" />
         <path
   d="m 14691,12580 44,-67 39,-70 93,-194 124,-305 -89,128 -83,124 -45,88 -17,75 -44,97 -44,84 -53,48 -44,45 -53,30 -80,-26 -17,-49 -62,-57 17,102 -44,66 -48,31 -141,17 61,14 71,8 75,5 84,-9 75,-22 57,-31 66,-62 z"
   id="path80"
   inkscape:connector-curvature="0"
   style="fill:#ff7f3f;stroke:none" />
         <path
   d="m 13738,12253 -22,-53 v -61 l 9,-49 13,-57 13,-62 v -49 -48 l 13,-62 -22,-18 -31,-35 -22,-44 -13,-22 -9,-35 -31,-31 -31,13 -198,-31 -9,44 35,102 49,48 40,66 61,45 h 80 l -18,123 27,137 39,128 27,97 z"
   id="path82"
   inkscape:connector-curvature="0"
   style="fill:#ff7f3f;stroke:none" />
         <path
   d="m 14416,12321 c 0,9 -7,17 -21,25 -13,8 -33,14 -56,18 -23,5 -50,7 -77,7 -27,0 -54,-2 -77,-7 -23,-4 -43,-10 -56,-18 -14,-8 -21,-16 -21,-25 0,-9 7,-17 21,-25 13,-8 33,-14 56,-18 23,-5 50,-7 77,-7 27,0 54,2 77,7 23,4 43,10 56,18 14,8 21,16 21,25 z"
   id="path84"
   inkscape:connector-curvature="0"
   style="fill:#ffffff;stroke:none" />
         <path
   d="m 14060,12280 35,-31 31,-18 26,-17 31,-18 40,-5 40,9 26,22 h 27 l 26,-4 40,4 35,18 22,31 13,26 22,27 23,22 -120,-18 -44,-9 -35,-13 -31,-13 -26,4 -31,-4 -53,4 -40,-4 z"
   id="path86"
   inkscape:connector-curvature="0"
   style="fill:#ff0000;stroke:none" />
         <path
   d="m 14060,12280 44,9 40,13 h 31 l 26,4 31,5 26,13 h 31 31 l 44,4 40,5 44,4 44,9 -31,31 -53,35 -44,22 -35,4 h -40 -39 l -40,-13 -40,-22 -31,-26 -26,-36 -22,-30 z"
   id="path88"
   inkscape:connector-curvature="0"
   style="fill:#ff001f;stroke:none" />
         <path
   d="m 13866,11274 92,-44 49,-5 h 35 l 66,14 49,26 35,35 35,44 23,49 13,53 -71,-53 -44,-53 -40,-44 -48,-31 -66,-13 -49,9 -92,35 z"
   id="path90"
   inkscape:connector-curvature="0"
   style="fill:#000000;stroke:none" />
         <path
   d="m 13817,11411 h 62 l 31,-18 35,-18 53,-13 44,4 49,14 26,17 44,31 27,36 26,39 -9,18 -30,4 -40,-57 -27,-18 -22,31 -26,9 h -31 l -31,-9 -18,-17 -8,-27 -40,13 -49,-4 h -35 z"
   id="path92"
   inkscape:connector-curvature="0"
   style="fill:#000000;stroke:none" />
         <path
   d="m 13901,11468 31,9 22,17 31,18 31,9 h 31 l 35,-9 -40,13 -22,9 -31,-4 -48,-27 z"
   id="path94"
   inkscape:connector-curvature="0"
   style="fill:#000000;stroke:none" />
         <path
   d="m 14479,11591 -5,-26 23,-66 39,-53 36,-27 52,-26 80,-18 h 70 62 l 49,31 13,31 -27,-18 -52,-13 h -75 l -58,13 -48,22 -44,18 -31,27 -27,35 -22,44 z"
   id="path96"
   inkscape:connector-curvature="0"
   style="fill:#000000;stroke:none" />
         <path
   d="m 14563,11596 4,-40 49,-31 39,-13 58,-9 53,9 39,13 h 49 l -22,18 35,35 4,40 14,35 13,9 -13,31 -44,-22 -18,-35 -9,-22 -31,-5 -17,13 -36,9 h -39 l -31,-17 -13,-23 -5,-26 -44,13 z"
   id="path98"
   inkscape:connector-curvature="0"
   style="fill:#000000;stroke:none" />
         <path
   d="m 14563,11605 -22,22 -5,17 13,9 5,-39 z"
   id="path100"
   inkscape:connector-curvature="0"
   style="fill:#000000;stroke:none" />
         <path
   d="m 14250,11834 -31,18 -27,13 -22,26 -4,27 13,31 44,4 40,18 26,26 40,18 48,-9 31,-17 49,-18 35,4"
   id="path102"
   inkscape:connector-curvature="0"
   style="fill:none;stroke:#ff7f3f;stroke-width:35;stroke-linecap:round;stroke-linejoin:round" />
         <path
   d="m 13694,12240 -93,-53 -53,-53 -18,-48 -22,-106 -57,-27 -22,-97 -26,-48 -18,-27 -27,-84 -92,-145 53,-247 -53,-31 -31,-146 4,-101 9,-115 58,-123 136,-71 -13,-128 119,-150 57,-62 62,-97 97,-66 h 102 l 159,-141 132,-13 97,-27 93,13 88,14 h 97 l 128,13 136,62 80,44 168,48 110,111 62,79 57,93 26,92 49,80 57,75 88,97 58,172 48,141 40,97 -13,66 -40,141 -53,80 13,123 -35,75 -119,80 -40,84 -211,172 v 75 l -93,92 -159,84 -84,40 97,-216 93,-234 53,-186 35,-198 v -97 l -26,-106 13,-207 -26,-67 -49,-44 -185,97 -97,49 -146,18 h -194 l -150,-9 -79,-22 -75,-40 h -93 l -93,31 -39,62 -18,83 -40,75 -61,14 -49,92 -18,146 -30,35 -40,18 -44,4 -36,18 -17,31 -9,35 9,57 31,49 57,40 h 71 l 22,194 z"
   id="path104"
   inkscape:connector-curvature="0"
   style="fill:#7f5f3f;stroke:none" />
         <path
   d="m 13345,11397 h 168 l 273,-145 -203,-18 -150,-22 -66,-26 -53,-80 5,-150 114,58 84,35 133,17 92,14 137,53 -97,-111 -75,-61 -110,-53 13,-124 -13,-40 145,5 5,101 22,80 44,53 88,44 132,53 159,53 71,13"
   id="path106"
   inkscape:connector-curvature="0"
   style="fill:none;stroke:#5f3f1f;stroke-width:35;stroke-linecap:round;stroke-linejoin:round" />
         <path
   d="m 13464,10691 128,-35 177,9 123,-22 -44,119 57,93 120,-97 114,-115 133,-79 172,-98 53,-22 397,106 136,172 40,49 -4,203 83,13 115,-137 31,-106 -4,-119"
   id="path108"
   inkscape:connector-curvature="0"
   style="fill:none;stroke:#5f3f1f;stroke-width:35;stroke-linecap:round;stroke-linejoin:round" />
         <path
   d="m 14130,10572 -132,-53 h -212 l -216,31 335,-123 274,-9 -102,-66 -202,-58 264,-13 97,53 128,57 84,-79 -159,-163 115,-27 h 93 l 79,217 79,-80 27,-79 79,88 58,93 26,44 26,53 62,22 27,-168 97,35 -18,137 -13,62 70,79 80,164"
   id="path110"
   inkscape:connector-curvature="0"
   style="fill:none;stroke:#5f3f1f;stroke-width:35;stroke-linecap:round;stroke-linejoin:round" />
         <path
   d="m 15357,10749 110,238 53,128 40,124 8,92 -26,115 -35,53 -40,-159 -44,-132 -88,-159 -80,-119 -53,264 115,150 57,80 36,340 -194,-80 -40,-132 -57,-159"
   id="path112"
   inkscape:connector-curvature="0"
   style="fill:none;stroke:#5f3f1f;stroke-width:35;stroke-linecap:round;stroke-linejoin:round" />
         <path
   d="m 13688,11896 c 0,13 -3,25 -9,37 -7,11 -15,20 -26,27 -11,7 -23,10 -35,10 -12,0 -24,-3 -35,-10 -11,-7 -19,-16 -26,-27 -6,-12 -9,-24 -9,-37 0,-14 3,-26 9,-38 7,-11 15,-20 26,-27 11,-7 23,-10 35,-10 12,0 24,3 35,10 11,7 19,16 26,27 6,12 9,24 9,38 z"
   id="path114"
   inkscape:connector-curvature="0"
   style="fill:#ff5fbf;stroke:none" />
         <path
   d="m 13685,11891 v -4 -4 l -1,-3 v -4 l -1,-4 -1,-3 -1,-4 -2,-4 -1,-3 -2,-3 -2,-4 -2,-3 -2,-3 -2,-3 -3,-3 -2,-2 -3,-3 -3,-2 -2,-3 -3,-2 -4,-2 -3,-1 -3,-2 -3,-1 -4,-2 -3,-1 h -4 l -3,-1 -4,-1 h -3 -4 v 0 h -4 -3 l -4,1 -3,1 h -4 l -3,1 -4,2 -3,1 -3,2 -3,1 -4,2 -3,2 -2,3 -3,2 -3,3 -2,2 -3,3 -2,3 -2,3 -2,3 -2,4 -2,3 -1,3 -2,4 -1,4 -1,3 -1,4 v 4 l -1,3 v 4 4 0 4 4 l 1,3 v 4 l 1,4 1,3 1,4 2,4 1,3 2,3 2,4 2,3 2,3 2,3 3,3 2,2 3,3 3,2 2,3 3,2 4,2 3,1 3,2 3,1 4,2 3,1 h 4 l 3,1 4,1 h 3 4 v 0 h 4 3 l 4,-1 3,-1 h 4 l 3,-1 4,-2 3,-1 3,-2 3,-1 4,-2 3,-2 2,-3 3,-2 3,-3 2,-2 3,-3 2,-3 2,-3 2,-3 2,-4 2,-3 1,-3 2,-4 1,-4 1,-3 1,-4 v -4 l 1,-3 v -4 z"
   id="path116"
   inkscape:connector-curvature="0"
   style="fill:none;stroke:#ff009f;stroke-width:35;stroke-linecap:round;stroke-linejoin:round" />
         <path
   d="m 14298,12315 -304,1526 -75,53 322,-1588 17,-13 h 27 z"
   id="path118"
   inkscape:connector-curvature="0"
   style="fill:#bf7f1f;stroke:none" />
         <path
   d="m 13469,12915 -71,22 -106,26 -97,23 -114,26 -106,22 -93,27 -66,22 -62,30 -70,40 -58,44 -53,44 -53,49 -57,62 -57,79 -97,150 -159,274 -194,335 22,48 75,53 891,336 31,101 8,406 -39,552 -40,423 -44,274 -93,370 -145,305 -194,366 h 3454 l -366,-922 -159,-790 79,-71 93,-101 57,-124 35,-150 5,-136 4,-133 5,-101 13,-137 476,-397 -304,-874 -49,-127 -70,-93 -88,-75 -115,-53 -521,-159 -88,-31 -62,-22 -53,-13 -52,-13 -53,-9 v 75 l 30,48 31,58 44,66 40,62 40,79 22,62 18,53 8,70 v 80 l -17,70 -27,75 -39,62 -58,49 -79,53 -80,35 -83,35 -89,22 -83,14 -111,-14 -88,-26 -93,-31 -101,-53 -119,-66 -66,-44 -80,-89 -31,-83 -44,-89 -35,-92 -31,-106 -26,-97 -40,-124 -18,-88 z"
   id="path120"
   inkscape:connector-curvature="0"
   style="fill:#ffff00;stroke:none" />
         <path
   d="m 12176,14199 -57,207 -9,150 -13,291 40,358 v 445 l -23,225 -13,199 9,242 40,225 53,225 110,186 221,-22 198,-27 265,-84 220,-242 150,-208 644,-992 137,-186 27,-57 22,-66 26,-62 18,-70 57,-186 9,-39 -9,-49 -22,-44 -26,-44 -31,-49 -44,-48 -14,-44 -31,-36 -61,-48 66,-31 57,-13 31,39 35,58 14,44 13,31 22,26 31,13 13,-30 -4,-45 -5,-61 -13,-102 -13,-101 -22,-22 -5,-80 -9,-26 -53,-22 -35,-106 -26,-75 -27,-66 -9,-58 -4,-39 -22,-40 -35,-13 h -36 l -31,136 -260,292 -53,79 -26,40 -13,39 -5,36 44,132 58,225 57,132 44,199 -388,304 -490,415 18,-494 -18,-529 z"
   id="path122"
   inkscape:connector-curvature="0"
   style="fill:#ff9f7f;stroke:none" />
         <path
   d="m 12176,14199 -57,207 -9,150 -13,291 40,358 v 445 l -23,225 -13,199 9,242 40,225 53,225 110,186 221,-22 198,-27 265,-84 220,-242 150,-208 644,-992 137,-186 27,-57 22,-66 26,-62 18,-70 57,-186 9,-39 -9,-49 -22,-44 -26,-44 -31,-49 -44,-48 -14,-44 -31,-36 -61,-48 66,-31 57,-13 31,39 35,58 14,44 13,31 22,26 31,13 13,-30 -4,-45 -5,-61 -13,-102 -13,-101 -22,-22 -5,-80 -9,-26 -53,-22 -35,-106 -26,-75 -27,-66 -9,-58 -4,-39 -22,-40 -35,-13 h -36 l -31,136 -260,292 -53,79 -26,40 -13,39 -5,36 44,132 58,225 57,132 44,199 -388,304 -490,415 18,-494 -18,-529 z"
   id="path124"
   inkscape:connector-curvature="0"
   style="fill:none;stroke:#bf3f00;stroke-width:35;stroke-linecap:round;stroke-linejoin:round" />
         <path
   d="m 13905,14102 208,-62 h 110"
   id="path126"
   inkscape:connector-curvature="0"
   style="fill:none;stroke:#bf3f00;stroke-width:35;stroke-linecap:round;stroke-linejoin:round" />
         <path
   d="m 13861,14265 243,-71 176,-17"
   id="path128"
   inkscape:connector-curvature="0"
   style="fill:none;stroke:#bf3f00;stroke-width:35;stroke-linecap:round;stroke-linejoin:round" />
         <path
   d="m 13901,14097 150,-123 31,66"
   id="path130"
   inkscape:connector-curvature="0"
   style="fill:none;stroke:#bf3f00;stroke-width:35;stroke-linecap:round;stroke-linejoin:round" />
         <path
   d="m 14126,13797 -88,-39"
   id="path132"
   inkscape:connector-curvature="0"
   style="fill:none;stroke:#bf3f00;stroke-width:35;stroke-linecap:round;stroke-linejoin:round" />
         <path
   d="m 12441,14256 -397,-243 -88,177 22,48 75,53 966,380 v -88 z"
   id="path134"
   inkscape:connector-curvature="0"
   style="fill:#ffff00;stroke:none" />
         <path
   d="m 14095,13303 -132,49 -115,61 -79,128 -62,93 13,102 9,198 26,124 133,-142 4,-123 -9,-57 -17,-40 26,-18 22,-31 31,-48 13,-53 14,-49 44,-9 39,-22 31,-26 22,-40 5,-53 z"
   id="path136"
   inkscape:connector-curvature="0"
   style="fill:#ff9f7f;stroke:none" />
         <path
   d="m 14095,13303 -132,49 -115,61 -79,128 -62,93 13,102 9,198 26,124 133,-142 4,-123 -9,-57 -17,-40 26,-18 22,-31 31,-48 13,-53 14,-49 44,-9 39,-22 31,-26 22,-40 5,-53 z"
   id="path138"
   inkscape:connector-curvature="0"
   style="fill:none;stroke:#bf3f00;stroke-width:35;stroke-linecap:round;stroke-linejoin:round" />
         <path
   d="m 13963,13352 167,-62 5,22 -18,26 -88,27 -22,4 -27,-4 z"
   id="path140"
   inkscape:connector-curvature="0"
   style="fill:#ff001f;stroke:none" />
         <path
   d="m 13963,13352 167,-62 5,22 -18,26 -88,27 -22,4 -27,-4 z"
   id="path142"
   inkscape:connector-curvature="0"
   style="fill:none;stroke:#ff001f;stroke-width:35;stroke-linecap:round;stroke-linejoin:round" />
         <path
   d="m 15132,12893 1588,318 -119,39 203,93 -905,2819 -1151,-132 -675,-371 z"
   id="path144"
   inkscape:connector-curvature="0"
   style="fill:#9fbfff;stroke:none" />
         <path
   d="m 16243,14931 36,110 61,314 31,216 49,317 40,133 30,132 14,115 -14,66 -39,79 -84,53 -340,40 h -414 l -446,-48 -269,53 -172,13 -172,-18 -168,-26 -132,-9 -309,-31 -110,-88 -9,-97 -66,-89 -22,-70 v -115 l -58,-93 -22,-83 9,-40 27,-35 39,-5 31,18 40,48 53,40 115,40 -67,-53 -22,-62 40,-40 88,-30 h 106 l 150,-27 h 172 53 l -84,-35 -128,9 h -57 -79 l -80,-27 -26,-35 -13,-53 150,-27 207,-17 150,-13 119,30 93,40 75,106 52,79 111,71 132,57 172,27 185,-9 367,-97 h 57 l 141,-221 49,-242 z"
   id="path146"
   inkscape:connector-curvature="0"
   style="fill:#ff9f7f;stroke:none" />
         <path
   d="m 16243,14931 36,110 61,314 31,216 49,317 40,133 30,132 14,115 -14,66 -39,79 -84,53 -340,40 h -414 l -446,-48 -269,53 -172,13 -172,-18 -168,-26 -132,-9 -309,-31 -110,-88 -9,-97 -66,-89 -22,-70 v -115 l -58,-93 -22,-83 9,-40 27,-35 39,-5 31,18 40,48 53,40 115,40 -67,-53 -22,-62 40,-40 88,-30 h 106 l 150,-27 h 172 53 l -84,-35 -128,9 h -57 -79 l -80,-27 -26,-35 -13,-53 150,-27 207,-17 150,-13 119,30 93,40 75,106 52,79 111,71 132,57 172,27 185,-9 367,-97 h 57 l 141,-221 49,-242 z"
   id="path148"
   inkscape:connector-curvature="0"
   style="fill:none;stroke:#bf3f00;stroke-width:35;stroke-linecap:round;stroke-linejoin:round" />
         <path
   d="m 5912,17794 53,-145 -53,-344 v -230 l 40,-370 93,-265 106,-212 145,-212 238,-158 278,-120 358,-39 427,106 397,225 212,211 133,265 -14,291 -53,278 -158,318 -14,216 -17,93 -22,92 -199,291 -106,120 -92,128 -45,52 -39,31 -40,18 h -57 l -93,-26 -57,-9 -58,4 -167,132 z"
   id="path150"
   inkscape:connector-curvature="0"
   style="fill:#ffbf7f;stroke:none" />
         <path
   d="m 7624,18099 v -11 l -1,-11 -1,-11 -2,-10 -2,-11 -3,-11 -3,-10 -3,-10 -4,-10 -5,-10 -5,-9 -5,-9 -6,-9 -6,-9 -6,-8 -7,-8 -7,-7 -8,-7 -7,-6 -8,-6 -9,-6 -8,-5 -9,-4 -9,-5 -9,-3 -9,-3 -10,-3 -9,-2 -10,-1 -9,-1 h -10 v 0 h -10 l -9,1 -10,1 -9,2 -10,3 -9,3 -9,3 -9,5 -9,4 -8,5 -9,6 -8,6 -7,6 -8,7 -7,7 -7,8 -6,8 -6,9 -6,9 -5,9 -5,9 -5,10 -4,10 -3,10 -3,10 -3,11 -2,11 -2,10 -1,11 -1,11 v 11 0 11 l 1,11 1,11 2,10 2,11 3,11 3,10 3,10 4,10 5,10 5,9 5,9 6,9 6,9 6,8 7,8 7,7 8,7 7,6 8,6 9,6 8,5 9,4 9,5 9,3 9,3 10,3 9,2 10,1 9,1 h 10 v 0 h 10 l 9,-1 10,-1 9,-2 10,-3 9,-3 9,-3 9,-5 9,-4 8,-5 9,-6 8,-6 7,-6 8,-7 7,-7 7,-8 6,-8 6,-9 6,-9 5,-9 5,-9 5,-10 4,-10 3,-10 3,-10 3,-11 2,-11 2,-10 1,-11 1,-11 z"
   id="path152"
   inkscape:connector-curvature="0"
   style="fill:none;stroke:#000000;stroke-width:71;stroke-linecap:round;stroke-linejoin:round" />
         <path
   d="m 7258,17547 -18,84 v 88 l 53,186 75,163 93,26 66,-26"
   id="path154"
   inkscape:connector-curvature="0"
   style="fill:none;stroke:#ff7f3f;stroke-width:35;stroke-linecap:round;stroke-linejoin:round" />
         <path
   d="m 5996,17631 693,318 247,150 137,106 88,88 57,79 49,84 26,75 -198,278 -1363,-993 z"
   id="path156"
   inkscape:connector-curvature="0"
   style="fill:#5f3f1f;stroke:none" />
         <path
   d="m 7002,15319 132,-83 269,127 366,195 733,825 114,136 36,137 17,141 -13,119 -31,111 -53,101 -75,75 -370,221 -97,39 -93,5 -159,106 -242,9 -80,22 -44,-93 -84,-13 -79,17 -40,58 -22,57 9,40 -119,35 -141,75 -186,9 -207,40 -238,26 -318,-75 -251,-110 -40,-88 -44,-80 -26,-159 -58,-282 -13,-141 -13,-133 17,-114 67,-141 70,-172 137,-234 260,-340 221,-190 326,-189 208,-45 z"
   id="path158"
   inkscape:connector-curvature="0"
   style="fill:#9f7f5f;stroke:none" />
         <path
   d="m 8034,17358 h 274 l -31,-53 53,-5 75,66 v 53 l -49,5 -13,75 -18,75 -26,66 -22,40 -22,26 -36,27 -39,22 -40,13 -44,4 -31,5 35,-49 40,-9 49,-22 39,-26 22,-31 18,-35 18,-58 13,-62 9,-61 -358,35 z"
   id="path160"
   inkscape:connector-curvature="0"
   style="fill:#9f7f5f;stroke:none" />
         <path
   d="m 11550,16471 185,476 13,159 -39,163 26,239 185,370 -132,172 53,93 -40,212 -39,172 -14,119 14,159 -53,145 -119,53 -186,40 -516,291 -1469,-926 -26,-358 -93,-265 -26,-172 -40,-238 40,-309 79,-317 93,-225 159,-172 198,-186 238,-105 291,-53 225,-14 265,14 304,66 225,132 z"
   id="path162"
   inkscape:connector-curvature="0"
   style="fill:#bf7f3f;stroke:none" />
         <path
   d="m 9247,18328 -53,-344 -53,-146 -92,-225 -27,-185 v -229 l 40,-291 106,-292 132,-264 172,-212 159,-132 212,-120 225,-52 h 344 l 370,52 h 278 l 252,27 106,26 105,80 93,172 66,119 93,132 -66,199 -80,185 v 93 l -39,119 -14,146 -79,66 -53,441 -79,79 -80,-13 -53,-106 -79,-119 h -106 l -53,159 -26,225 26,185 40,106 79,79 146,93 -212,-40 h -106 l -26,40 -159,172 -106,27 -132,53 -106,26 -424,-53 -185,-13 -26,-53 -225,-80 -159,-26 z"
   id="path164"
   inkscape:connector-curvature="0"
   style="fill:#5f5f5f;stroke:none" />
         <path
   d="m 11435,17283 441,-199 h -150 l 14,-66 317,9 13,57 -61,88 13,155 v 167 l -5,111 -35,105 -44,62 -53,58 -66,22 -66,13 v -40 l 92,-53 67,-79 53,-181 4,-137 -27,-132 -582,322 z"
   id="path166"
   inkscape:connector-curvature="0"
   style="fill:#9f9f9f;stroke:none" />
         <path
   d="m 14289,15011 h 127 v 105 h -127 z"
   id="path168"
   inkscape:connector-curvature="0"
   style="fill:#fadb3a;stroke:none" />
         <path
   d="m 13932,13837 70,-344 27,-27 48,-26 -61,340 z"
   id="path170"
   inkscape:connector-curvature="0"
   style="fill:#e56c00;stroke:none" />
         <path
   d="m 8180,17358 106,-102 13,97 z"
   id="path172"
   inkscape:connector-curvature="0"
   style="fill:#000000;stroke:none" />
         <path
   d="m 15313,15875 26,66 22,84 9,75 -4,75 -18,106 -35,57 -49,75 -57,58 35,40 26,13 h 27 26 l 27,-13 26,-5 h 40 l 13,9 14,18 35,13 35,-18 22,-57 18,-110 9,-115 -5,-128 -13,-88 -35,-115 -18,-40 -22,-26 -40,-13 h -39 l -45,13 z"
   id="path174"
   inkscape:connector-curvature="0"
   style="fill:#7f5f3f;stroke:none" />
         <path
   d="m 15313,15875 26,66 22,84 9,75 -4,75 -18,106 -35,57 -49,75 -57,58 35,40 26,13 h 27 26 l 27,-13 26,-5 h 40 l 13,9 14,18 35,13 35,-18 22,-57 18,-110 9,-115 -5,-128 -13,-88 -35,-115 -18,-40 -22,-26 -40,-13 h -39 l -45,13 z"
   id="path176"
   inkscape:connector-curvature="0"
   style="fill:none;stroke:#3f1f00;stroke-width:35;stroke-linecap:round;stroke-linejoin:round" />
         <path
   d="m 13164,16475 -119,450 -53,265 -66,269 -13,291 26,212 40,132 13,212 119,132 93,199 212,450 1804,-384 -79,-344 119,-278 106,-371 79,-423 13,-388 -53,-384 -106,-304 -225,-305 -225,-185 -211,-80 -278,-39 -331,-14 -251,53 -190,120 -199,158 -106,172 -92,212 z"
   id="path178"
   inkscape:connector-curvature="0"
   style="fill:#ffbf5f;stroke:none" />
         <path
   d="m 13244,16065 53,-199 106,-198 132,-93 150,-66 265,-53 h 198 251 l 199,40 132,66 106,53 146,119 132,119 106,93 106,119 106,185 53,199 66,278 26,211 -13,225 -13,230 -66,251 -67,265 -52,251 -106,186 -119,79 -146,66 -159,53 -106,53 -145,27 -133,-14 -198,-52 -154,-9 -75,-18 13,53 -450,-79 53,-159 -9,-75 -4,-71 -18,-84 -22,-44 -44,-57 53,-62 48,-75 18,-66 -35,-154 -14,-199 -92,-119 -133,-40 -132,-110 h -93 l -92,110 v 159 l 61,124 14,185 -49,-13 -48,-36 -58,-406 -79,-269 53,-211 40,-239 39,-251 v -119 z"
   id="path180"
   inkscape:connector-curvature="0"
   style="fill:#5f3f1f;stroke:none" />
         <path
   d="m 9230,18271 39,-97 230,13 251,44 379,128 199,84 225,101 243,111 207,114 70,80 23,145 z"
   id="path182"
   inkscape:connector-curvature="0"
   style="fill:#ffffff;stroke:none" />
         <path
   d="m 4245,19135 476,-586 265,-256 234,-194 370,-305 159,-114 1081,529 238,282 185,225 217,252 105,167 658,-361 291,-168 392,-141 318,-256 503,141 419,168 423,172 53,26 318,58 344,361 185,221 446,229 1270,-670 1849,-424 688,225 683,446 186,534 H 4192 Z"
   id="path184"
   inkscape:connector-curvature="0"
   style="fill:#5f5f5f;stroke:none" />
         <path
   d="m 5546,18244 759,181 260,97 137,80 141,114 124,150 79,155 66,163 -119,181 -57,-194 -102,-172 -92,-119 -84,-84 -155,-93 -176,-88 -247,-106 -238,-110 z"
   id="path186"
   inkscape:connector-curvature="0"
   style="fill:#7f7f7f;stroke:none" />
        </g>
       </g>
      </g>
     </g>
    </g>
   </g>
  </g>
 </g>
</svg>